<?xml version="1.0" encoding="utf-8"?>
<!-- Generator: Adobe Illustrator 22.0.1, SVG Export Plug-In . SVG Version: 6.00 Build 0)  -->
<svg version="1.1" id="Layer_1" xmlns="http://www.w3.org/2000/svg" xmlns:xlink="http://www.w3.org/1999/xlink" x="0px" y="0px"
	 viewBox="0 0 97.8 93.4" style="enable-background:new 0 0 97.8 93.4;" xml:space="preserve">
<style type="text/css">
	.st0{fill:#235958;}
	.st1{fill:#EF5316;}
</style>
<g>
	<path class="st0" d="M23.2,72.5c0,4.5-1.1,8.7-3.3,12.7c-2.6,4.8-6,7.2-10.2,7.2c-2.5,0-5.7-1.3-9.6-3.9l0.5-1
		c1.2,0.3,2.1,0.4,2.9,0.4c3.4,0,7.1-1.6,11.1-4.9c4-3.2,6-6.5,6-9.7c0-1.2-0.8-2.9-2.5-5.2c-1.2-1.6-2.5-3.1-3.7-4.7
		c0.8-3.6,1.4-6.5,1.9-8.6C20.8,60,23.2,65.9,23.2,72.5z"/>
	<path class="st0" d="M52.8,74.5h-4.9c-2.5,12.6-7.2,18.9-14.2,18.9c-3.2,0-6.9-1.4-10.9-4.3l0.6-0.9c1.3,0.4,2.7,0.6,4.2,0.6
		c4.5,0,8.3-1.4,11.4-4.2c2.4-2.1,4.8-5.5,7.2-10.2c-2.9,0-4.8-0.2-5.8-0.5c-1.8-0.7-2.7-2.2-2.7-4.6c0-2.2,0.7-5.1,2.2-8.8
		c1.7-4.1,3.3-6.2,5.1-6.2c1.9,0,3.2,3.9,3.9,11.7h3.9L52.8,74.5L52.8,74.5z M46.5,66.1c-1.3-2.5-2.7-3.8-4.2-3.8
		c-1.3,0-1.9,0.6-1.9,1.7c0,1.4,1.2,2.1,3.5,2.1C43.9,66.1,46.5,66.1,46.5,66.1z"/>
	<path class="st0" d="M68.2,74.5h-3.7c-2.5,0-4.3-1.5-5.4-4.6c-1.5,3.1-3.2,4.6-5.2,4.6h-2.7v-8.4h3.1c2,0,3.3-0.3,3.9-1
		c0.2-0.2,0.2-1.4,0.2-3.8l0.5,0.1c0.4,3.1,2.9,4.7,7.3,4.7h1.9L68.2,74.5L68.2,74.5z M67.1,81l-3,5.1l-4.7-3.2L57.2,87l-5-3.8
		l2.9-5l4.5,3.6l2.8-4.5L67.1,81z"/>
	<path class="st1" d="M90.2,9l-0.3,3.7c-0.6-0.4-1.6-1-3-1.9c-2.9,3.6-5.4,5.4-7.5,5.4c-0.5,0-1.2-0.1-2.3-0.4c2.4-1.3,5-3.2,8-5.9
		c-1.6-1.3-2.3-2.4-2.3-3.5c0-1.3,0.5-2.7,1.4-4.2s2-2.3,3.2-2.3c1.6,0,2.4,1.1,2.4,3.3c0,1.6-0.4,3.1-1.1,4.5
		C89.3,8.3,89.8,8.7,90.2,9z M87.6,5.6c0-0.5-0.2-1-0.6-1.6s-0.8-0.8-1.3-0.8s-0.8,0.3-0.8,1c0,0.5,0.9,1.3,2.6,2.6
		C87.6,6.2,87.6,5.8,87.6,5.6z"/>
	<path class="st1" d="M97.8,57.5c0,5.5-3.4,9.9-10.1,13.1c-5.4,2.6-11.2,3.9-17.4,3.9h-3.1v-8.4h5.4c0.2-0.3,0.5-0.9,0.9-1.6
		c0.2-0.4,0.2-2,0.2-4.7s-0.6-6.7-1.6-12c-1.1-5.3-1.6-9.3-1.6-12.1c-0.4-0.5-0.7-1-0.8-1.4c0.8-3.2,2-5.2,3.6-6
		c0.1,1.9,0.9,3.5,2.3,4.9s3,1.9,4.9,1.6l-3.5,6l-1.4-0.7c-0.1,0.7-0.2,1.4-0.2,2c0,1,0.2,2.7,0.6,5.2s0.6,4.4,0.6,5.7
		c0,2.2-0.3,5.1-1,8.8c2.9-3.6,5-6,6.4-7.3c3.1-3,5.9-4.5,8.3-4.5c2.3,0,4.1,0.7,5.5,2.1C97.1,53.4,97.8,55.3,97.8,57.5z M94.1,61
		c0-0.9-0.6-1.7-1.7-2.3c-0.9-0.5-1.8-0.7-2.8-0.7c-2.2,0-4.5,0.9-7,2.7c-1,0.8-2.9,2.4-5.8,5.1c2.5,0,5.7-0.4,9.6-1.1
		C91.5,63.6,94.1,62.4,94.1,61z"/>
</g>
</svg>
