<?xml version="1.0" encoding="utf-8"?>
<!-- Generator: Adobe Illustrator 22.0.1, SVG Export Plug-In . SVG Version: 6.00 Build 0)  -->
<svg version="1.1" id="Layer_1" xmlns="http://www.w3.org/2000/svg" xmlns:xlink="http://www.w3.org/1999/xlink" x="0px" y="0px"
	 viewBox="0 0 97.1 59.8" style="enable-background:new 0 0 97.1 59.8;" xml:space="preserve">
<style type="text/css">
	.st0{fill:#235958;}
	.st1{fill:#EF5316;}
</style>
<g>
	<path class="st0" d="M53.6,41h-3.8c-2.8,0-4.6-1.3-5.2-3.9C38,41.7,29.8,44,20.1,44c-5.4,0-9.9-0.9-13.4-2.8
		C2.2,38.9,0,35.3,0,30.4c0-3.1,1.2-7,3.5-11.9l1,0.5c-1,2.4-1.4,4.6-1.4,6.6c0,3.6,2.3,6.3,6.8,8c3.2,1.2,7,1.8,11.4,1.8
		c8.1,0,14.2-0.7,18.1-2.2c1.2-0.4,1.9-0.7,2.1-0.7c0.9-0.4,1.4-0.9,1.6-1.4c0.2-0.5,0.3-1.5,0.2-2.9h0.8c0.8,3,2.9,4.5,6.4,4.5h3
		L53.6,41L53.6,41z M29.6,52.4l-2.9,5.1l-4.9-3.7l3-4.9L29.6,52.4z"/>
	<path class="st0" d="M69.5,41h-3.7c-2.5,0-4.3-1.5-5.4-4.6c-1.5,3.1-3.2,4.6-5.2,4.6h-2.7v-8.4h2.2c2.6,0,4.2-0.3,4.8-1
		c0.2-0.2,0.2-1.4,0.2-3.8l0.5,0.1c0.4,3.1,2.9,4.7,7.4,4.7h1.8L69.5,41L69.5,41z M65.5,19.3l-2.7,5l-4.9-3.7l2.9-4.9L65.5,19.3z"/>
	<path class="st1" d="M89.2,47.4c0,1.8-0.6,3.1-1.9,3.8l-10.9,6.3c0-1.2,0.1-2,0.4-2.4c0.3-0.5,1-1,2.1-1.6L89.2,47.4z"/>
	<path class="st0" d="M61.4,1.4c0,1.8-0.6,3.1-1.9,3.8l-10.9,6.3c0-1.2,0.1-2,0.4-2.4c0.3-0.5,1-1,2.1-1.6L61.4,1.4z"/>
	<path class="st1" d="M97.1,23.5c-0.4,4.2-1.1,6.7-2.1,7.6c-0.8,0.8-4.7,2.6-11.7,5.5c-7,2.9-11,4.4-12.1,4.4h-2.7v-8.4H71
		c2,0,3.4-0.5,4.3-1.4c-2.5-2-3.7-3.7-3.7-4.9c0-2.5,1.5-5.6,4.5-9.3s5.7-5.6,8.2-5.6c2.6,0,5.5,2.7,8.8,8c-2-0.8-3.7-1.2-5.1-1.2
		c-2,0-4.1,0.2-6.3,0.7c-3.2,0.9-4.7,1.9-4.7,3.2c0,1,1,2.2,3.1,3.5c2,1.3,3.6,2,4.8,2C87.2,27.6,91.2,26.2,97.1,23.5z"/>
</g>
</svg>
