<?xml version="1.0" encoding="utf-8"?>
<!-- Generator: Adobe Illustrator 16.0.0, SVG Export Plug-In . SVG Version: 6.00 Build 0)  -->
<!DOCTYPE svg PUBLIC "-//W3C//DTD SVG 1.1//EN" "http://www.w3.org/Graphics/SVG/1.1/DTD/svg11.dtd">
<svg version="1.1" id="Layer_1" xmlns="http://www.w3.org/2000/svg" xmlns:xlink="http://www.w3.org/1999/xlink" x="0px" y="0px"
	 width="51px" height="48px" viewBox="0 0 51 48" enable-background="new 0 0 51 48" xml:space="preserve">
<rect display="none" fill="#C9720A" width="51" height="48"/>
<path fill="#EF9411" d="M26.973,27.49c-0.047,1.131-0.215,2.197-0.505,3.199c-0.627,2.24-1.646,3.828-3.056,4.769
	c-1.344,0.853-3.28,1.28-5.811,1.28c-1.5,0-2.742-0.396-3.727-1.186c-1.053-0.854-1.578-1.982-1.578-3.392
	c0-0.726,0.201-1.611,0.604-2.656c0.336-0.853,0.684-1.706,1.041-2.56l0.403,0.158c-0.671,1.687-1.007,3.02-1.007,4
	c0,2.306,1.925,3.457,5.775,3.457c1.209,0,2.485-0.256,3.828-0.769c1.143-0.427,1.926-0.992,2.352-1.696
	c0.313-0.533,0.548-1.451,0.705-2.752c0.089-0.832,0.134-1.354,0.134-1.566c0-0.235-0.168-0.555-0.503-0.961
	c-0.27-0.319-0.527-0.629-0.773-0.928l0.975-2.112c0.514,1.088,1.209,1.61,2.082,1.567v2.145h-0.939V27.49z"/>
<path fill="#EF9411" d="M33.352,17.442l-1.142,1.983l-1.981-1.312l-1.142,1.695L27.24,18.53l1.141-1.889l1.948,1.248l1.075-1.664
	L33.352,17.442z M27.24,25.346c0.918,0,1.746-0.341,2.484-1.023c0.356-0.32,0.57-0.769,0.639-1.345
	c0.021-0.512,0.055-1.023,0.1-1.535h0.27c0.224,0.683,0.699,1.274,1.429,1.775c0.728,0.502,1.46,0.752,2.198,0.752
	c0.111,0,0.291-0.059,0.537-0.176c0.246-0.117,0.369-0.229,0.369-0.336c0-0.448-0.279-0.906-0.84-1.376l0.639-1.952
	c0.672,0.363,1.009,1.035,1.009,2.016c0,0.96-0.191,1.835-0.571,2.624c-0.493,1.024-1.188,1.537-2.082,1.537
	c-0.762,0-1.635-0.502-2.62-1.504c-0.356,0.684-0.851,1.279-1.477,1.791c-0.718,0.598-1.41,0.896-2.082,0.896L27.24,25.346
	L27.24,25.346z M31.035,14.274l-1.243,1.855l-1.813-1.12l1.143-1.952L31.035,14.274z"/>
</svg>
