<?xml version="1.0" encoding="utf-8"?>
<!-- Generator: Adobe Illustrator 16.0.0, SVG Export Plug-In . SVG Version: 6.00 Build 0)  -->
<!DOCTYPE svg PUBLIC "-//W3C//DTD SVG 1.1//EN" "http://www.w3.org/Graphics/SVG/1.1/DTD/svg11.dtd">
<svg version="1.1" id="Layer_1" xmlns="http://www.w3.org/2000/svg" xmlns:xlink="http://www.w3.org/1999/xlink" x="0px" y="0px"
	 width="51px" height="48px" viewBox="0 0 51 48" enable-background="new 0 0 51 48" xml:space="preserve">
<rect display="none" fill="#C9720A" width="51" height="48"/>
<path fill="#EF9411" d="M20.834,15.01c-0.336-0.298-0.56-0.618-0.672-0.96c0.27-0.811,0.762-1.482,1.479-2.016
	c0.089,0.598,0.363,1.109,0.822,1.536c0.459,0.427,1.002,0.672,1.629,0.735l-1.209,2.08l-0.504-0.224h-0.101v0.096
	c0,0.363,0.067,0.939,0.201,1.729c0.179,1.003,0.28,1.6,0.302,1.792c0.135,1.109,0.202,2.208,0.202,3.296
	c0,1.558-0.101,2.943-0.302,4.16c3.334-3.179,5.965-4.77,7.891-4.77c0.762,0,1.371,0.288,1.83,0.864
	c0.459,0.576,0.688,1.237,0.688,1.983c0,2.24-1.803,3.937-5.405,5.088c-2.577,0.832-5.33,1.248-8.263,1.248
	c-1.098,0-2.016-0.31-2.754-0.928c-0.225-0.299-0.56-0.746-1.008-1.345c0.762,0.086,1.489,0.128,2.184,0.128
	c1.701,0,2.607-0.096,2.72-0.288c0.515-0.341,0.929-0.971,1.243-1.888c0.268-0.789,0.402-1.547,0.402-2.271
	C22.211,23.159,21.752,19.81,20.834,15.01z M31.682,26.466c0-0.405-0.348-0.735-1.041-0.991c-0.537-0.213-1.063-0.32-1.578-0.32
	c-2.776,0-5.117,1.398-7.02,4.191h0.201c2.061,0,4.164-0.373,6.314-1.119C30.641,27.501,31.682,26.914,31.682,26.466z"/>
</svg>
