<?xml version="1.0" encoding="utf-8"?>
<!-- Generator: Adobe Illustrator 16.0.0, SVG Export Plug-In . SVG Version: 6.00 Build 0)  -->
<!DOCTYPE svg PUBLIC "-//W3C//DTD SVG 1.1//EN" "http://www.w3.org/Graphics/SVG/1.1/DTD/svg11.dtd">
<svg version="1.1" id="Layer_1" xmlns="http://www.w3.org/2000/svg" xmlns:xlink="http://www.w3.org/1999/xlink" x="0px" y="0px"
	 width="51px" height="48px" viewBox="0 0 51 48" enable-background="new 0 0 51 48" xml:space="preserve">
<rect display="none" fill="#C9720A" width="51" height="48"/>
<path fill="#EF9411" d="M37.049,21.41c0,2.133-0.996,3.658-2.988,4.576c-3.402,1.515-7.23,2.271-11.483,2.271
	c-2.128,0-3.896-0.233-5.307-0.704c-2.082-0.703-3.123-1.877-3.123-3.52c0-0.747,0.537-2.145,1.611-4.192l0.438,0.16
	c-0.537,1.387-0.807,2.208-0.807,2.464c0,2.262,2.553,3.393,7.657,3.393c3.111,0,6.201-0.469,9.269-1.407
	c2.484-0.769,3.729-1.419,3.729-1.952c0-0.256-0.225-0.778-0.672-1.568c-0.381-0.725-0.537-1.141-0.471-1.248l0.906-1.76
	C36.635,19.415,37.049,20.578,37.049,21.41z M28.251,17.41l-1.276,1.92l-1.947-1.376l-1.176,1.6l-1.813-1.312l1.243-1.92
	l1.947,1.376l1.074-1.632L28.251,17.41z"/>
</svg>
