<?xml version="1.0" encoding="utf-8"?>
<!-- Generator: Adobe Illustrator 16.0.0, SVG Export Plug-In . SVG Version: 6.00 Build 0)  -->
<!DOCTYPE svg PUBLIC "-//W3C//DTD SVG 1.1//EN" "http://www.w3.org/Graphics/SVG/1.1/DTD/svg11.dtd">
<svg version="1.1" id="Layer_1" xmlns="http://www.w3.org/2000/svg" xmlns:xlink="http://www.w3.org/1999/xlink" x="0px" y="0px"
	 width="51px" height="48px" viewBox="0 0 51 48" enable-background="new 0 0 51 48" xml:space="preserve">
<rect display="none" fill="#C9720A" width="51" height="48"/>
<path fill="#EF9411" d="M28.249,14.159v0.064c0,0.512,0.112,1.675,0.335,3.488c0.693,5.419,1.041,8.875,1.041,10.367
	c0,1.516-0.268,2.693-0.805,3.535c-0.538,0.845-1.506,1.59-2.905,2.24c-1.399,0.65-2.76,0.978-4.08,0.978
	c-1.456,0-2.687-0.353-3.694-1.058c-1.12-0.768-1.679-1.813-1.679-3.135c0-1.388,0.548-3.414,1.646-6.08l0.437,0.256
	c-0.672,2.367-1.008,3.744-1.008,4.127c0,2.283,1.511,3.425,4.534,3.425c1.298,0,2.674-0.276,4.13-0.832
	c1.835-0.683,2.754-1.535,2.754-2.56c0-1.152-0.189-3.072-0.571-5.761c-0.401-2.837-0.929-6.208-1.577-10.112
	c-0.313-0.128-0.604-0.49-0.874-1.088c0.336-0.875,0.84-1.547,1.512-2.016c0.089,0.597,0.363,1.109,0.822,1.535
	c0.459,0.428,1.002,0.673,1.629,0.736l-1.209,2.08L28.249,14.159z"/>
</svg>
