<?xml version="1.0" encoding="utf-8"?>
<!-- Generator: Adobe Illustrator 16.0.0, SVG Export Plug-In . SVG Version: 6.00 Build 0)  -->
<!DOCTYPE svg PUBLIC "-//W3C//DTD SVG 1.1//EN" "http://www.w3.org/Graphics/SVG/1.1/DTD/svg11.dtd">
<svg version="1.1" id="Layer_1" xmlns="http://www.w3.org/2000/svg" xmlns:xlink="http://www.w3.org/1999/xlink" x="0px" y="0px"
	 width="51px" height="48px" viewBox="0 0 51 48" enable-background="new 0 0 51 48" xml:space="preserve">
<rect display="none" fill="#C9720A" width="51" height="48"/>
<path fill="#EF9411" d="M31.077,23.652c0,1.625-0.478,3.008-1.437,4.148c-1.048,1.226-2.408,1.839-4.083,1.839
	c-1.166,0-2.094-0.398-2.782-1.197c-0.688-0.797-1.032-1.768-1.032-2.907c0-0.941,0.374-2.237,1.122-3.892
	c0.718-1.567,1.032-2.593,0.942-3.078c1.316-1.226,2.124-1.839,2.421-1.839c1.317,0,2.483,0.871,3.5,2.609
	C30.629,20.845,31.077,22.285,31.077,23.652z M29.552,24.208c0-0.456-0.583-1.197-1.75-2.224c-0.985-0.855-1.824-1.467-2.513-1.839
	c-1.466,1.54-2.199,2.938-2.199,4.191c0,1.055,0.897,1.582,2.692,1.582c0.776,0,1.526-0.113,2.243-0.342
	C29.043,25.264,29.552,24.807,29.552,24.208z"/>
</svg>
