<?xml version="1.0" encoding="utf-8"?>
<!-- Generator: Adobe Illustrator 16.0.0, SVG Export Plug-In . SVG Version: 6.00 Build 0)  -->
<!DOCTYPE svg PUBLIC "-//W3C//DTD SVG 1.1//EN" "http://www.w3.org/Graphics/SVG/1.1/DTD/svg11.dtd">
<svg version="1.1" id="Layer_1" xmlns="http://www.w3.org/2000/svg" xmlns:xlink="http://www.w3.org/1999/xlink" x="0px" y="0px"
	 width="51px" height="48px" viewBox="0 0 51 48" enable-background="new 0 0 51 48" xml:space="preserve">
<rect display="none" fill="#C9720A" width="51" height="48"/>
<path fill="#EF9411" d="M29.229,20.567c0,2.838-0.744,5.408-2.232,7.712c-1.489,2.305-3.129,3.455-4.919,3.455
	c-0.851,0-1.646-0.127-2.385-0.383c-0.381-0.149-1.108-0.492-2.183-1.024l0.302-0.287c0.806,0.298,1.567,0.446,2.284,0.446
	c1.925,0,3.766-0.885,5.524-2.654c1.758-1.771,2.637-3.584,2.637-5.44c0-0.597-0.113-1.066-0.336-1.408
	c-0.627,0.79-1.232,1.185-1.813,1.185c-0.604,0-1.131-0.214-1.58-0.641c-0.447-0.427-0.671-0.938-0.671-1.536
	c0-0.704,0.302-1.652,0.907-2.848c0.671-1.301,1.332-1.952,1.98-1.952c0.807,0,1.443,0.726,1.914,2.176
	C29.039,18.478,29.229,19.544,29.229,20.567z M26.006,18.071c-0.471,0-0.705,0.214-0.705,0.641c0,0.512,0.234,0.768,0.705,0.768
	c0.537,0,0.807-0.245,0.807-0.736C26.813,18.296,26.543,18.071,26.006,18.071z"/>
</svg>
