<?xml version="1.0" encoding="utf-8"?>
<!-- Generator: Adobe Illustrator 16.0.0, SVG Export Plug-In . SVG Version: 6.00 Build 0)  -->
<!DOCTYPE svg PUBLIC "-//W3C//DTD SVG 1.1//EN" "http://www.w3.org/Graphics/SVG/1.1/DTD/svg11.dtd">
<svg version="1.1" id="Layer_1" xmlns="http://www.w3.org/2000/svg" xmlns:xlink="http://www.w3.org/1999/xlink" x="0px" y="0px"
	 width="51px" height="48px" viewBox="0 0 51 48" enable-background="new 0 0 51 48" xml:space="preserve">
<rect display="none" fill="#C9720A" width="51" height="48"/>
<path fill="#EF9411" d="M35.744,21.41c0,2.133-0.996,3.658-2.988,4.576c-3.404,1.515-7.232,2.271-11.485,2.271
	c-2.128,0-3.896-0.233-5.306-0.704c-2.082-0.703-3.123-1.877-3.123-3.52c0-0.747,0.537-2.145,1.611-4.192l0.438,0.16
	c-0.538,1.387-0.807,2.208-0.807,2.464c0,2.262,2.553,3.393,7.656,3.393c3.111,0,6.201-0.469,9.27-1.407
	c2.484-0.769,3.727-1.419,3.727-1.952c0-0.256-0.223-0.778-0.672-1.568c-0.381-0.725-0.537-1.141-0.469-1.248l0.906-1.76
	C35.33,19.415,35.744,20.578,35.744,21.41z M26.813,17.346l-1.175,1.856l-1.948-1.28l-1.108,1.632l-1.947-1.344l1.209-1.856
	l1.98,1.313l1.041-1.632L26.813,17.346z M24.527,14.114l-1.175,1.855l-1.847-1.248l1.142-1.855L24.527,14.114z"/>
</svg>
