<?xml version="1.0" encoding="utf-8"?>
<!-- Generator: Adobe Illustrator 19.2.0, SVG Export Plug-In . SVG Version: 6.00 Build 0)  -->
<svg version="1.1" id="Layer_1" xmlns="http://www.w3.org/2000/svg" xmlns:xlink="http://www.w3.org/1999/xlink" x="0px" y="0px"
	 viewBox="0 0 323.4 45.9" style="enable-background:new 0 0 323.4 45.9;" xml:space="preserve">
<style type="text/css">
	.st0{fill:#CC4A6C;}
	.st1{fill:none;}
</style>
<g>
	<g>
		<g>
			<path class="st0" d="M19.6,35.3h-2.1c-1.1-1.7-1.9-3.4-2.5-5.2c-0.6-1.8-0.9-3.5-0.9-5.2c0-2.1,0.4-4,1.1-5.9
				c0.6-1.6,1.4-3.1,2.4-4.5h2.1c-1,2.2-1.7,4-2,5.6c-0.4,1.5-0.6,3.1-0.6,4.9c0,1.2,0.1,2.4,0.3,3.6c0.2,1.2,0.5,2.4,0.9,3.5
				C18.6,32.9,19,34,19.6,35.3z"/>
			<path class="st0" d="M29.7,23.4l-0.9,2.5c-1.1,0.3-2,0.6-2.7,0.9c-0.7,0.3-1.3,0.7-1.8,1.2c-0.4,0.3-0.9,0.9-1.6,1.7l-0.6-0.2
				c0-0.5,0.1-1,0.4-1.4c0.2-0.4,0.5-0.9,1-1.5c-0.7-0.7-1.1-1.2-1.3-1.5s-0.3-0.6-0.3-0.9c0-0.4,0.3-1.1,0.8-2.1c0.6-1,1-1.7,1.4-2
				c0.4-0.4,0.9-0.6,1.4-0.6c0.5,0,1,0.1,1.3,0.3c0.4,0.2,0.8,0.6,1.3,1.2l-1.4,2.4c-0.3-0.4-0.7-0.7-0.9-0.8s-0.6-0.3-0.8-0.3
				c-0.2,0-0.4,0.1-0.6,0.2c-0.2,0.1-0.3,0.3-0.3,0.4c0,0.2,0.1,0.5,0.4,0.7s0.8,0.6,1.5,0.9c0.9-0.4,1.6-0.7,2-0.8
				C28.4,23.5,29,23.4,29.7,23.4z"/>
			<path class="st0" d="M43.5,27.5h-1.1c-0.3,0-0.6,0-0.7,0c-0.1,0-0.2,0.1-0.2,0.1c0.2,0.1,0.4,0.2,0.6,0.3s0.3,0.1,0.4,0.2
				c0.1,0.1,0.1,0.2,0.1,0.4c0,0.5-0.1,1.1-0.4,1.8s-0.6,1.1-0.9,1.3c-0.3,0.2-1.1,0.5-2.4,0.8c-1.3,0.3-2.4,0.4-3.4,0.4
				c-1.4,0-2.4-0.3-3.3-0.8c-0.8-0.6-1.3-1.3-1.3-2.2c0-0.9,0.2-1.7,0.5-2.5c0.4-1,1.3-2.2,2.5-3.7l0.6,0.5
				c-0.8,0.9-1.3,1.7-1.6,2.2c-0.3,0.6-0.4,1.1-0.4,1.7c0,0.8,0.3,1.3,1,1.7c0.6,0.4,1.6,0.6,3,0.6c0.7,0,1.6-0.1,2.9-0.4
				s1.8-0.5,1.8-0.7c0-0.1-0.2-0.2-0.7-0.2s-1-0.1-1.5-0.1c-0.8,0-1.2-0.2-1.2-0.5c0-0.2,0.1-0.5,0.3-0.9c0.1-0.3,0.3-0.6,0.4-0.9
				c0.3-0.6,0.8-1.1,1.5-1.4c0.8-0.4,1.5-0.5,2.4-0.5h1.2V27.5z M39,34L38,35.2l-1.1-0.7L36,35.4l-1.4-0.8l1-1.3l1.2,0.8l0.8-1
				L39,34z"/>
			<path class="st0" d="M56.9,27.5c-0.8,0-1.5-0.1-2-0.2c-0.5-0.1-1.1-0.3-1.6-0.5c-0.4,0.3-0.8,0.5-1.1,0.6s-0.8,0.1-1.5,0.1H49
				c-0.5,0-0.9-0.1-1.1-0.4c-0.3-0.3-0.5-0.7-0.8-1.3c-0.4,0.6-0.8,1-1.3,1.3c-0.4,0.2-0.9,0.3-1.5,0.3h-1.5v-2.9h1.5
				c0.8,0,1.4-0.2,1.9-0.6c0.7-0.6,1-1.4,1-2.5l0.7,0.1c0,0.2,0,0.5,0,0.8c0,0.3,0,0.6,0,1c0,0.4,0.1,0.7,0.4,0.9s0.5,0.4,0.9,0.4
				h1.3c0.9,0,1.5-0.1,1.9-0.4c0.5-0.3,0.7-0.8,0.7-1.7c0-0.2,0.1-0.3,0.2-0.5c0.1-0.1,0.2-0.2,0.4-0.4l0.4-0.3c0,0.1,0,0.3,0,0.6
				c0,0.2,0,0.4,0,0.5c0,0.4-0.1,0.9-0.2,1.6c0.3,0.1,0.6,0.2,0.9,0.3c0.3,0.1,0.7,0.2,1,0.2c0-0.2-0.1-0.6-0.3-0.9
				c-0.2-0.4-0.3-0.7-0.3-0.8c0-0.2,0-0.3,0.1-0.4c0,0,0.1-0.1,0.2-0.3l0.9-1.2c0.2,0.5,0.3,0.9,0.4,1.2s0.1,0.8,0.1,1.4V27.5z
				 M55.7,17.2l-1.2,2.2L53,18.5L52,20.2l-1.9-1.1l1.1-2.1l1.6,0.8l0.9-1.7L55.7,17.2z M53.6,14.6l-1.1,2.2l-2-1.1l1.1-2.2
				L53.6,14.6z"/>
			<path class="st0" d="M72.2,27.5h-1.4c-0.3,0-0.5-0.1-0.7-0.2c-0.4-0.2-0.8-0.6-1.1-1.1c-0.4-0.8-0.6-1.8-0.8-3.1
				c-0.5,0.6-0.9,1-1.1,1.3c-0.4,0.4-0.7,0.6-1,0.6c-0.1,0-0.3,0-0.5-0.1l-1.3-0.3c-0.6-0.1-0.9-0.2-1-0.2c-0.1,0-0.2-0.1-0.2-0.3
				c0-0.2,0.3-0.8,0.8-1.8c0.5-1,0.9-1.7,1.1-1.9c0.2-0.2,0.5-0.4,1-0.8c0.3-0.2,0.7-0.4,1.2-0.7l0.6-0.3c0-0.1,0-0.2,0-0.3
				c0-0.1,0-0.2,0-0.3c0-0.3,0.1-0.6,0.2-1c0.1-0.4,0.4-0.9,0.7-1.5l1,6.7c0.2,1.1,0.4,1.8,0.6,2.1c0.2,0.2,0.4,0.4,0.7,0.4h1.4
				V27.5z M68,21.4l-0.2-1.3c-0.2,0.1-0.4,0.2-0.5,0.3c-0.4,0.2-0.7,0.4-0.9,0.6c-0.2,0.1-0.3,0.3-0.4,0.4c-0.1,0.2-0.2,0.3-0.2,0.4
				c0,0.1,0.1,0.2,0.4,0.2s0.5,0.1,0.7,0.1c0.2,0,0.3,0,0.5-0.1S67.7,21.7,68,21.4z"/>
			<path class="st0" d="M78.2,27.5h-6.8v-2.9h5.7c-0.1-0.5-0.2-0.9-0.4-1.2c-0.1-0.2-0.4-0.5-0.8-1l0.9-2.6c0.5,0.6,0.9,1.3,1.1,1.9
				c0.2,0.7,0.3,1.7,0.3,3V27.5z M77.1,29.8l-1.3,2.4l-2.5-1.4l1.3-2.5L77.1,29.8z"/>
			<path class="st0" d="M94.3,27.3c0,1.1-0.6,2.1-1.7,2.9c-1.2,0.9-2.5,1.3-3.9,1.3c-1.2,0-2.2-0.3-2.9-0.9c-0.7-0.6-1-1.5-1-2.6
				c0-1,0.1-2,0.4-2.7c0.3-0.9,0.9-2,1.7-3.2l0.7,0.5c-0.6,0.8-1,1.6-1.2,2.2c-0.2,0.6-0.4,1.2-0.4,1.8c0,0.7,0.2,1.2,0.7,1.5
				s1.2,0.5,2.1,0.5c1.3,0,2.3-0.2,3.1-0.7c0.8-0.5,1.2-1.1,1.2-1.9c0-0.1,0-0.2,0-0.3c0-0.1,0-0.1,0-0.2c0-0.3,0-0.6-0.1-0.9
				c0-0.3-0.2-1-0.4-2.1c-0.3-1.7-0.6-3.4-0.9-5.1l-0.5-0.4c0-0.7,0.3-1.8,1-3.2l0.5,0.2c0,0.1,0,0.2,0,0.3c0,0.3,0.1,0.5,0.4,0.7
				c0.4,0.2,0.9,0.5,1.2,0.7c-0.1,0.6-0.2,1.1-0.2,1.3s-0.2,0.7-0.5,1.2L93.2,18c0,0.1,0.1,0.7,0.3,1.8c0.2,1.1,0.4,2.1,0.5,2.9
				c0.2,1.2,0.3,1.9,0.3,2.1V27.3z"/>
			<path class="st0" d="M111.4,27.5H100c-0.5,0-0.9-0.1-1.2-0.4c-0.3-0.3-0.6-0.7-0.8-1.2c-0.5,0.6-0.9,1.1-1.3,1.3
				c-0.4,0.2-0.9,0.3-1.5,0.3l-1.5,0v-2.9l1.5,0c0.8,0,1.5-0.2,1.9-0.6c0.5-0.5,0.8-1.3,1-2.5l0.7,0.1c0,0.3,0,0.5,0,0.6
				c0,0.5,0,0.9,0,1.1c0,0.4,0.1,0.7,0.3,0.9c0.2,0.2,0.5,0.3,0.9,0.3c0.4,0,0.7-0.1,1-0.2c0.3-0.1,0.8-0.4,1.4-0.9l3.9-2.8
				c0.5-0.3,0.8-0.6,1-0.7c0.5-0.3,1-0.5,1.5-0.5c0.8,0,1.4,0.3,1.9,0.9c0.6,0.7,0.8,1.7,0.8,3V27.5z M109.9,23.5
				c0-0.3-0.3-0.6-0.8-0.8c-0.4-0.2-0.9-0.2-1.4-0.2c-0.5,0-1,0.2-1.6,0.5c-0.6,0.3-1.5,0.9-2.6,1.7h2.8
				C108.7,24.6,109.9,24.2,109.9,23.5z"/>
			<path class="st0" d="M117.4,27.5h-6.8v-2.9h5.7c-0.1-0.5-0.2-0.9-0.4-1.2c-0.1-0.2-0.4-0.5-0.8-1l0.9-2.6
				c0.5,0.6,0.9,1.3,1.1,1.9c0.2,0.7,0.3,1.7,0.3,3V27.5z M117.2,16l-1.2,2.2l-1.5-0.9l-0.9,1.7l-2-1.1l1.1-2.1l1.6,0.8l0.9-1.7
				L117.2,16z"/>
			<path class="st0" d="M123.4,27.5h-6.8v-2.9h5.7c-0.1-0.5-0.2-0.9-0.4-1.2c-0.1-0.2-0.4-0.5-0.8-1l0.9-2.6
				c0.5,0.6,0.9,1.3,1.1,1.9c0.2,0.7,0.3,1.7,0.3,3V27.5z M123.2,29.4l-1.2,2.2l-1.5-0.9l-0.9,1.7l-2-1.1l1.1-2.1l1.6,0.8l0.9-1.7
				L123.2,29.4z"/>
			<path class="st0" d="M137.5,27.5l-1.4,0c-1.3,0-2.5,0.1-3.5,0.3c-1,0.2-1.5,0.5-1.5,0.8c0.3,0.9,0.5,1.7,0.7,2.4
				c0.2,0.8,0.3,1.5,0.3,2.1c0,0.5,0,0.9-0.1,1.2c-0.1,0.3-0.3,0.6-0.5,1c-0.1-0.9-0.3-1.9-0.5-3c-0.1-0.4-0.3-1.1-0.7-2.3
				c-0.2-0.7-0.3-1.2-0.3-1.4c0-0.3,0.1-0.8,0.3-1.3c0.2-0.4,0.3-0.8,0.5-1.1c0.2-0.4,0.6-0.6,1.2-0.9c0.6-0.2,1.4-0.4,2.6-0.5
				c-0.6-0.8-1.1-1.2-1.5-1.2c-0.2,0-0.4,0.1-0.5,0.2c-0.2,0.1-0.4,0.5-0.8,0.9l-0.5-0.3c0.3-1.1,0.7-1.9,1.2-2.5
				c0.5-0.6,1-0.9,1.5-0.9c0.5,0,1,0.3,1.6,0.8c0.6,0.6,1.3,1.4,2,2.6V27.5z"/>
			<path class="st0" d="M142.7,27.5h-5.9v-2.9h4.6l-1.3-7.3l-0.7-0.5c0-0.4,0.1-0.9,0.2-1.3c0.2-0.5,0.4-1.2,0.8-2l0.5,0.3
				c0,0,0,0.2,0,0.3c0,0.2,0.2,0.5,0.5,0.7c0.3,0.2,0.7,0.4,1.3,0.7c-0.1,0.5-0.2,0.9-0.3,1.3c-0.1,0.4-0.3,0.8-0.4,1.2l-0.4-0.2
				l1.2,6.7V27.5z"/>
			<path class="st0" d="M152.6,26.8c0,1.2-0.5,2.5-1.6,3.7s-2.1,1.8-3.1,1.8c-0.6,0-1.2-0.2-2-0.6c-0.7-0.4-1.8-1.1-3.3-2.3l0.5-0.6
				c0.8,0.5,1.4,0.9,1.9,1c0.4,0.1,0.9,0.2,1.4,0.2c0.7,0,1.4-0.2,2.1-0.6c0.8-0.5,1.6-1.2,2.5-2.2c-0.3,0-0.6,0.1-0.8,0.1
				c-0.7,0-1.3-0.2-1.7-0.7c-0.4-0.5-0.6-1.1-0.6-1.9c0-1.1,0.2-2.1,0.7-3.1c0.5-1.1,1.2-1.6,1.8-1.6c0.6,0,1.1,0.4,1.5,1.2
				c0.4,0.8,0.6,1.7,0.6,2.8V26.8z M151.3,24.6c-0.2-1.2-0.6-1.7-1.2-1.7c-0.2,0-0.4,0.1-0.5,0.3c-0.1,0.2-0.2,0.4-0.2,0.6
				c0,0.3,0.1,0.5,0.4,0.6c0.3,0.2,0.7,0.3,1.1,0.3H151.3z"/>
			<path class="st0" d="M168.3,27.8c0,0.4-0.3,1-0.8,1.7c-0.5,0.7-1.1,1.3-1.8,1.9c-0.7,0.6-1.4,0.9-1.9,0.9c-0.6,0-1.3-0.2-2-0.5
				c-0.6-0.3-1.6-0.9-3-1.9l0.5-0.7c0.6,0.4,1.2,0.7,1.6,0.9c0.4,0.2,0.8,0.2,1.3,0.2c0.5,0,1-0.1,1.5-0.4c0.5-0.3,1.2-0.8,2-1.6
				c1.2-1.1,1.8-1.9,1.8-2.5c0-0.3-0.1-0.7-0.3-1.1c-0.3-0.5-0.6-1-0.9-1.3l0.6-2.9c0.5,0.5,0.9,1.1,1.1,1.7
				c0.3,0.7,0.4,1.4,0.4,2.2V27.8z"/>
			<path class="st0" d="M179.9,27.5h-12.3v-2.9h7.7c-0.9-0.9-1.7-1.5-2.4-1.9c-0.7-0.4-1.3-0.5-1.9-0.5c-0.2,0-0.4,0-0.5,0
				c-0.2,0-0.4,0.1-0.7,0.1c0.4-0.9,0.8-1.6,1.3-2s1-0.6,1.7-0.6c0.5,0,0.9,0.1,1.4,0.3c0.4,0.2,0.9,0.6,1.5,1.1
				c0.4,0.4,1,1,1.8,1.9c0.5,0.6,1,1,1.2,1.2s0.7,0.3,1.3,0.5V27.5z M175.5,16l-1.3,2.4l-2.5-1.3l1.3-2.4L175.5,16z"/>
			<path class="st0" d="M190.3,16.1c0,0.5-0.1,1-0.2,1.5c0,0.2-0.1,0.6-0.3,1.2l-0.8-0.3c0,0.8-0.1,1.7-0.3,2.5s-0.5,1.7-1,2.5
				c0.4,0.7,0.6,1.1,0.7,1.3c0.2,0.3,0.3,0.6,0.3,0.9V26c0,0.2-0.1,0.9-0.2,2.2c-0.8,0.4-1.6,0.6-2.2,0.8c-0.6,0.1-1.6,0.2-2.9,0.2
				v-3.2c0.7-0.4,1.2-0.7,1.6-0.9c0.3-0.3,0.7-0.7,1.2-1.3c-0.8-1-1.4-1.8-1.8-2.2c-0.3-0.3-0.7-0.7-1.2-1.2
				c-0.1,0.2-0.2,0.4-0.3,0.5c-0.1,0.1-0.1,0.1-0.2,0.1c-0.2,0-0.5-0.1-1-0.4c-0.4-0.3-0.8-0.5-1-0.7c-0.2-0.2-0.4-0.6-0.5-1.2
				c-0.1-0.6-0.2-1.3-0.2-2.2c0-0.4,0-0.7,0.1-0.8s0.1-0.2,0.3-0.2c0.3,0,0.8,0.4,1.7,1.2c0.7,0.7,1.4,1.4,2,2.1
				c0.5,0.5,0.9,1,1.2,1.5c0.3,0.4,0.8,1.2,1.6,2.3c0.3-0.6,0.5-1.4,0.7-2.3c0.1-0.6,0.1-1.3,0.1-2.1c-0.3-0.1-0.4-0.2-0.5-0.4
				s-0.1-0.3-0.1-0.5c0-0.4,0-0.9,0.1-1.3s0.2-0.9,0.5-1.4l0.5,0.2c0,0.5,0.1,0.8,0.3,0.9C188.7,15.5,189.3,15.8,190.3,16.1z
				 M183.5,13c-0.1,0.2-0.2,0.4-0.3,0.5c-0.1,0.1-0.2,0.1-0.4,0.2l-2.3,0.7c0.1-0.3,0.3-0.4,0.4-0.5c0.1-0.1,0.3-0.2,0.6-0.3
				c-0.2-0.1-0.3-0.3-0.4-0.4s-0.1-0.2-0.1-0.3c0-0.1,0-0.2,0.1-0.3s0.1-0.2,0.2-0.4c0.5-0.6,0.9-0.9,1.4-0.9c0.1,0,0.2,0,0.3,0.1
				s0.1,0.2,0.1,0.4c0,0.1,0,0.2,0,0.3c0,0.1-0.1,0.2-0.2,0.4c-0.4-0.2-0.6-0.3-0.7-0.3c-0.1,0-0.3,0-0.4,0.1
				c-0.1,0-0.2,0.1-0.2,0.2c0,0.1,0.2,0.2,0.5,0.4c0.3,0.2,0.6,0.3,0.7,0.3C182.8,13.2,183.1,13.2,183.5,13z M187.5,25.4l-0.5-0.8
				c-0.3,0.4-0.6,0.6-0.7,0.8c-0.2,0.1-0.5,0.4-0.9,0.7c0.5-0.1,0.9-0.1,1.2-0.2C186.7,25.8,187,25.7,187.5,25.4z"/>
			<path class="st0" d="M194.6,24.4c0,0.6-0.1,1.2-0.2,1.8c-0.2,0.5-0.4,1.2-0.9,2.1l-0.6-0.3c0.2-0.9,0.3-1.7,0.3-2.2
				c0-0.4,0-1.1-0.1-1.9c-0.1-0.8-0.2-1.7-0.3-2.5c-0.1-0.8-0.3-1.8-0.5-3c-0.1-0.4-0.1-0.7-0.1-0.8c0-0.2,0.1-0.6,0.3-1.1
				s0.5-1.2,0.9-1.9l0.6,3.8c0.2,1.5,0.4,2.7,0.5,3.8C194.6,22.8,194.6,23.6,194.6,24.4z"/>
			<path class="st0" d="M213.9,27.5h-1.7c-1.3,0-2.1-0.2-2.6-0.6c-0.5-0.4-0.7-1.1-0.7-2.1c0-0.5,0-0.9,0.1-1.3c0-0.1,0.1-0.5,0.2-1
				c-1.6,0.4-3,1-4,2c-1,1-1.6,2.1-1.6,3.3c0,1.4,0.6,2.5,1.8,3.3s3,1.2,5.3,1.2c0.7,0,1.7-0.1,2.9-0.2l0.2,0.3l-4.1,2.6l-1,0
				c-2.1,0-3.7-0.5-4.9-1.6c-1.1-1.1-1.7-2.6-1.7-4.6c0-1.5,0.3-2.9,1-4.2c0.7-1.3,1.6-2.2,2.6-2.8h-0.2c-0.7,0-1.2,0.1-1.7,0.2
				c-0.4,0.1-1.1,0.4-2,0.9c0.3-2.7,1.6-4,3.9-4c0.3,0,0.8,0,1.5,0.1c0.7,0.1,1.4,0.1,2,0.2c1.1,0.1,2.2,0.1,3.2,0.1l-0.6,2.6
				c-0.4,0-0.8,0-1.1,0.1c-0.4,0.1-0.8,0.2-1.1,0.2c0,0.1,0,0.3-0.1,0.5c0,0.2,0,0.3,0,0.4c0,0.5,0.2,0.9,0.5,1.1s1,0.3,1.9,0.3h1.7
				V27.5z"/>
			<path class="st0" d="M219.9,27.5h-6.8v-2.9h5.7c-0.1-0.5-0.2-0.9-0.4-1.2c-0.1-0.2-0.4-0.5-0.8-1l0.9-2.6
				c0.5,0.6,0.9,1.3,1.1,1.9c0.2,0.7,0.3,1.7,0.3,3V27.5z M219.7,29.4l-1.2,2.2l-1.5-0.9l-0.9,1.7l-2-1.1l1.1-2.1l1.6,0.8l0.9-1.7
				L219.7,29.4z"/>
			<path class="st0" d="M231.5,27.5h-12.3v-2.9h7.7c-0.9-0.9-1.7-1.5-2.4-1.9c-0.7-0.4-1.3-0.5-1.9-0.5c-0.2,0-0.4,0-0.5,0
				c-0.2,0-0.4,0.1-0.7,0.1c0.4-0.9,0.8-1.6,1.3-2s1-0.6,1.7-0.6c0.5,0,0.9,0.1,1.4,0.3c0.4,0.2,0.9,0.6,1.5,1.1
				c0.4,0.4,1,1,1.8,1.9c0.5,0.6,1,1,1.2,1.2s0.7,0.3,1.3,0.5V27.5z"/>
			<path class="st0" d="M248.5,27.5h-11.4c-0.5,0-0.9-0.1-1.2-0.4c-0.3-0.3-0.6-0.7-0.8-1.2c-0.5,0.6-0.9,1.1-1.3,1.3
				c-0.4,0.2-0.9,0.3-1.5,0.3l-1.5,0v-2.9l1.5,0c0.8,0,1.5-0.2,1.9-0.6c0.5-0.5,0.8-1.3,1-2.5l0.7,0.1c0,0.3,0,0.5,0,0.6
				c0,0.5,0,0.9,0,1.1c0,0.4,0.1,0.7,0.3,0.9c0.2,0.2,0.5,0.3,0.9,0.3s0.7-0.1,1-0.2c0.3-0.1,0.8-0.4,1.4-0.9l3.9-2.8
				c0.5-0.3,0.8-0.6,1-0.7c0.5-0.3,1-0.5,1.5-0.5c0.8,0,1.4,0.3,1.9,0.9c0.6,0.7,0.8,1.7,0.8,3V27.5z M247,23.5
				c0-0.3-0.3-0.6-0.8-0.8c-0.4-0.2-0.9-0.2-1.4-0.2c-0.5,0-1,0.2-1.6,0.5c-0.6,0.3-1.5,0.9-2.6,1.7h2.8
				C245.8,24.6,247,24.2,247,23.5z"/>
			<path class="st0" d="M266.6,27c0,1-0.1,1.8-0.3,2.4s-0.5,1.1-1,1.5c-0.4,0.4-1.1,0.7-1.9,0.9c-0.9,0.2-1.7,0.4-2.6,0.4
				c-1.7,0-3.1-0.3-4-1c-0.9-0.6-1.4-1.5-1.4-2.7c0-1,0.2-1.9,0.5-2.7c0.3-0.9,1-2.1,1.9-3.6l0.6,0.5c-0.7,1.2-1.2,2.1-1.4,2.6
				s-0.3,1.1-0.3,1.7c0,0.8,0.4,1.4,1.2,1.8c0.8,0.5,1.9,0.7,3.2,0.7c1.3,0,2.4-0.2,3.3-0.7c0.9-0.5,1.3-1.1,1.3-1.8
				c0-0.4-0.1-0.9-0.2-1.3c-0.2-0.4-0.5-1.1-1-2.1l0.9-2.9c0.5,0.9,0.8,1.5,0.9,1.9c0.2,0.6,0.3,1.4,0.3,2.4V27z M263,18.5l-1.3,2.4
				l-2.5-1.3l1.3-2.4L263,18.5z"/>
			<path class="st0" d="M271.8,27.5h-1.5c-0.8,0-1.4-0.3-1.8-1c-0.4-0.8-0.6-2-0.6-3.9v-3.1c0-0.7-0.1-1.2-0.3-1.6
				c-0.1-0.2-0.3-0.5-0.6-0.8l1.2-2.7c0.4,0.6,0.7,1.1,0.9,1.7c0.2,0.7,0.3,1.5,0.3,2.5v2.1c0,1.5,0.1,2.5,0.3,3.1
				c0.2,0.5,0.4,0.7,0.8,0.7h1.5V27.5z"/>
			<path class="st0" d="M279.7,27.5H271v-2.9h7c-0.3-0.3-0.6-0.6-0.8-0.9c-0.2-0.2-0.5-0.4-0.9-0.7c-0.4-0.3-0.8-0.6-1.2-0.9
				l-0.3,0.4c-0.6-0.6-1-1-1.1-1.2c-0.4-0.4-0.5-0.9-0.5-1.4c0-0.7,0-1.2,0.2-1.5c0.1-0.4,0.5-0.8,0.9-1.1c0.4-0.3,0.9-0.5,1.3-0.8
				c0.4-0.2,0.9-0.4,1.5-0.7c0.3-0.1,0.9-0.4,1.8-0.7v2.6c0,0-0.3,0.1-0.9,0.3c-0.7,0.2-1.3,0.4-1.7,0.6c-0.6,0.2-0.9,0.4-0.9,0.6
				c0,0.1,0.3,0.3,0.8,0.8c0.7,0.7,1.3,1.3,1.8,1.9c0.8,0.9,1.4,1.9,1.9,2.8V27.5z"/>
			<path class="st0" d="M289.9,24.4c0,0.6-0.1,1.2-0.2,1.8c-0.2,0.5-0.4,1.2-0.9,2.1l-0.6-0.3c0.2-0.9,0.3-1.7,0.3-2.2
				c0-0.4,0-1.1-0.1-1.9c-0.1-0.8-0.2-1.7-0.3-2.5c-0.1-0.8-0.3-1.8-0.5-3c-0.1-0.4-0.1-0.7-0.1-0.8c0-0.2,0.1-0.6,0.3-1.1
				c0.2-0.5,0.5-1.2,0.9-1.9l0.6,3.8c0.2,1.5,0.4,2.7,0.5,3.8C289.8,22.8,289.9,23.6,289.9,24.4z"/>
			<path class="st0" d="M298.2,27.5h-4.9c-0.5,0-0.8-0.1-1.1-0.3c-0.3-0.2-0.5-0.6-0.5-1.2c0-0.3,0-0.7,0-1s0.1-0.7,0.1-1.1l0.4,0
				c0.1,0.3,0.2,0.4,0.4,0.5c0.2,0.1,0.4,0.2,0.7,0.2h3.7c-0.2-1.1-0.5-1.9-0.9-2.5c-0.3-0.5-0.8-1-1.4-1.4l0.8-3.4
				c0.9,0.7,1.6,1.6,2,2.7c0.4,1,0.5,2.4,0.5,4V27.5z M296.4,13.4l-1.3,2.4l-2.5-1.3l1.3-2.4L296.4,13.4z"/>
			<path class="st0" d="M302.2,31.2c-0.1,0.2-0.2,0.4-0.3,0.5c-0.1,0.1-0.2,0.1-0.4,0.2l-2.3,0.7c0.1-0.3,0.3-0.4,0.4-0.5
				c0.1-0.1,0.3-0.2,0.6-0.3c-0.2-0.1-0.3-0.2-0.4-0.4c-0.1-0.1-0.1-0.2-0.1-0.3c0-0.1,0-0.2,0.1-0.3s0.1-0.2,0.2-0.4
				c0.5-0.6,0.9-0.9,1.4-0.9c0.1,0,0.2,0,0.3,0.1s0.1,0.2,0.1,0.4c0,0.1,0,0.2,0,0.3c0,0.1-0.1,0.2-0.2,0.4
				c-0.4-0.2-0.6-0.3-0.7-0.3c-0.1,0-0.3,0-0.4,0.1c-0.1,0-0.2,0.1-0.2,0.2c0,0.1,0.2,0.2,0.5,0.4c0.3,0.2,0.6,0.3,0.7,0.3
				C301.5,31.4,301.8,31.3,302.2,31.2z M302.2,24.4c0,0.6-0.1,1.2-0.2,1.8c-0.2,0.5-0.4,1.2-0.9,2.1l-0.6-0.3
				c0.2-0.9,0.3-1.7,0.3-2.2c0-0.4,0-1.1-0.1-1.9c-0.1-0.8-0.2-1.7-0.3-2.5c-0.1-0.8-0.3-1.8-0.5-3c-0.1-0.4-0.1-0.7-0.1-0.8
				c0-0.2,0.1-0.6,0.3-1.1s0.5-1.2,0.9-1.9l0.6,3.8c0.2,1.5,0.4,2.7,0.5,3.8C302.2,22.8,302.2,23.6,302.2,24.4z"/>
			<path class="st0" d="M303.8,35.3c0.6-1.3,1-2.3,1.3-2.9c0.2-0.7,0.5-1.5,0.7-2.4c0.2-0.9,0.4-1.7,0.5-2.5
				c0.1-0.8,0.2-1.6,0.2-2.5c0-1.7-0.2-3.3-0.5-4.9c-0.4-1.5-1-3.4-2-5.6h2.1c1.1,1.5,1.9,3.2,2.5,4.9s0.9,3.5,0.9,5.3
				c0,1.5-0.2,3.1-0.7,4.8c-0.5,1.9-1.4,3.8-2.7,5.7H303.8z"/>
		</g>
	</g>
	<rect class="st1" width="323.4" height="45.9"/>
</g>
</svg>
