<?xml version="1.0" encoding="utf-8"?>
<!-- Generator: Adobe Illustrator 19.2.0, SVG Export Plug-In . SVG Version: 6.00 Build 0)  -->
<svg version="1.1" id="Layer_1" xmlns="http://www.w3.org/2000/svg" xmlns:xlink="http://www.w3.org/1999/xlink" x="0px" y="0px"
	 viewBox="0 0 323.4 45.9" style="enable-background:new 0 0 323.4 45.9;" xml:space="preserve">
<style type="text/css">
	.st0{fill:#BA0017;}
	.st1{fill:none;}
</style>
<g>
	<g>
		<g>
			<g>
				<g>
					<path d="M91.1,16.7c0,0.3-0.2,0.6-0.5,1c-0.6,0.2-1.6,0.7-3,1.2c0-0.3,0.2-0.6,0.5-0.9C88.5,17.8,89.6,17.3,91.1,16.7z"/>
					<path d="M97.5,29.2h-7.8c-1.7,0-2.9-0.2-3.6-0.6c-0.8-0.4-1.1-1.2-1.1-2.2c0-0.6,0.2-1.3,0.5-2.1c0.1-0.2,0.3-0.6,0.6-1.2
						l0.4,0.2c-0.2,0.5-0.4,1-0.5,1.3c-0.1,0.3-0.1,0.6-0.1,0.8c0,0.8,0.4,1.3,1.2,1.6c0.6,0.2,1.5,0.3,2.6,0.3h6.7l-1.3-8.9
						l-0.5-0.3c0-0.5,0-0.9,0.1-1.4c0.1-0.4,0.2-0.8,0.4-1.2l0.2,0.1c0,0.4,0.3,0.7,0.8,0.9l1.1,0.4c0,0.3,0,0.7-0.1,1.1
						s-0.2,0.7-0.2,0.9l-0.5-0.2l1.2,8.2V29.2z M93.6,22.8c0,0.8-0.3,1.4-0.8,1.8c-0.5,0.4-1.2,0.6-2.2,0.6c-0.4,0-0.9-0.1-1.4-0.2
						c-0.3-0.1-0.8-0.2-1.4-0.4l0.2-0.2c0.2,0,0.4,0,0.6,0c0.6,0,0.9,0.1,1,0.1c0.8,0,1.5-0.1,2.1-0.4c0.6-0.2,0.9-0.5,0.9-0.8
						c0-0.1-0.1-0.3-0.2-0.4c-0.1-0.1-0.3-0.2-0.4-0.2c-0.2,0-0.3,0-0.4,0l-0.7,0.1c-0.2,0-0.3,0-0.4-0.1c-0.1-0.1-0.2-0.2-0.2-0.5
						c0-0.6,0.3-1.3,0.9-2.1c0.6-0.8,1.3-1.3,1.9-1.6l-0.2,1.4c-0.5,0.1-0.9,0.3-1.1,0.4c-0.4,0.2-0.6,0.5-0.6,0.9
						c0,0.1,0.1,0.2,0.2,0.3c0.1,0.1,0.2,0.1,0.4,0.1c0.1,0,0.2,0,0.3,0l0.6-0.1c0.4,0,0.6,0.1,0.8,0.3C93.6,22,93.6,22.3,93.6,22.8
						z"/>
					<path d="M102.4,29.2H101c-0.5,0-0.9-0.2-1.1-0.6c-0.3-0.3-0.4-0.8-0.6-1.5c-0.1-0.7-0.2-1.5-0.3-2.5c0-0.8-0.1-1.6-0.1-2.4
						c0-0.8-0.1-1.5-0.2-1.9c-0.1-0.4-0.2-0.8-0.3-1.1c-0.2-0.3-0.4-0.6-0.6-0.9l1.3-2c0.3,0.8,0.5,1.8,0.6,3
						c0.1,0.7,0.1,2.5,0.2,5.2c0.1,1.2,0.3,2,0.5,2.4c0.2,0.3,0.4,0.4,0.6,0.4h1.5V29.2z"/>
					<path d="M113.8,29.2h-12.1v-1.8h8.6c-0.7-0.6-1.3-1-1.8-1.3c-0.6-0.4-1.2-0.7-1.7-0.8c-0.6-0.2-1.1-0.3-1.7-0.3
						c-0.4,0-0.7,0-1.1,0.1c0.2-0.5,0.5-0.9,0.8-1.3c0.5-0.5,1.1-0.7,1.8-0.7c0.7,0,1.6,0.4,2.5,1.1c0.5,0.4,1.3,1,2.4,2
						c0.8,0.8,1.4,1.2,1.7,1.2h0.6V29.2z M108.8,19.4l-0.8,1.5l-1.7-0.9l0.8-1.5L108.8,19.4z"/>
					<path d="M118,10.2c0,0.3-0.2,0.6-0.5,1c-0.6,0.2-1.6,0.7-3,1.2c0-0.3,0.2-0.6,0.5-0.9C115.4,11.3,116.5,10.8,118,10.2z"/>
					<path d="M117.7,15.1c0,0.2-0.1,0.3-0.3,0.5c-0.1,0.1-0.4,0.2-0.7,0.3l-2,0.7c0-0.3,0.4-0.6,1.1-0.9c-0.2-0.1-0.4-0.2-0.5-0.3
						c-0.1-0.1-0.2-0.3-0.2-0.4c0-0.2,0.2-0.5,0.6-0.9c0.4-0.4,0.8-0.7,1.1-0.7c0.1,0,0.3,0,0.4,0.1c0.1,0.1,0.2,0.2,0.2,0.4
						c0,0.1,0,0.2-0.1,0.3s-0.1,0.2-0.2,0.3c-0.2-0.2-0.5-0.3-0.7-0.3c-0.2,0-0.3,0-0.5,0.1c-0.2,0.1-0.2,0.1-0.2,0.2
						c0,0.1,0.2,0.2,0.5,0.4c0.3,0.2,0.6,0.3,0.8,0.3c0.2,0,0.3,0,0.3,0C117.3,15.2,117.5,15.1,117.7,15.1z M117.4,26.5
						c0,0.6-0.1,1.1-0.3,1.6c-0.1,0.3-0.3,0.7-0.7,1.3l-0.2-0.1c0-0.2,0-0.4,0.1-0.7c0-0.3,0-0.4,0-0.5c0-0.7-0.1-1.7-0.2-3.1
						c-0.1-1.3-0.3-2.7-0.4-4.1c-0.1-0.9-0.2-1.7-0.3-2.6c0.1-0.3,0.3-0.6,0.5-1c0.2-0.4,0.3-0.7,0.5-1c0.1,0.8,0.3,1.9,0.4,3.3
						s0.3,2.6,0.4,3.8C117.3,24.8,117.4,25.8,117.4,26.5z"/>
					<path class="st0" d="M131.5,29.2h-1.3c-1.2,0-2.2,0.1-3,0.3c-1.1,0.3-1.7,0.7-1.7,1.2c0,0.5,0.1,1,0.2,1.5
						c0.2,0.5,0.3,1.1,0.5,1.6c0.2,0.5,0.2,1,0.2,1.5c0,0.3,0,0.5-0.1,0.7s-0.1,0.5-0.2,0.9c-0.2-0.6-0.4-1.2-0.5-1.7
						c-0.3-1.1-0.6-1.9-0.7-2.5c-0.3-0.9-0.4-1.4-0.4-1.6c0-0.9,0.2-1.6,0.6-2.1c0.4-0.5,1-0.8,1.7-1.1c0.6-0.2,1.5-0.3,2.8-0.5
						c-0.4-0.4-0.7-0.7-0.8-0.8c-0.4-0.3-0.7-0.4-1.1-0.4c-0.2,0-0.5,0.1-0.7,0.2c-0.2,0.1-0.4,0.3-0.6,0.6l-0.5-0.3
						c0.2-0.5,0.4-0.9,0.7-1.3c0.4-0.5,1-0.8,1.6-0.8c0.4,0,0.9,0.2,1.3,0.5c0.4,0.3,0.7,0.6,1.1,1.1c0.2,0.2,0.5,0.6,0.8,1.2V29.2z
						"/>
					<path class="st0" d="M139.2,36.2c0,0.3-0.2,0.7-0.5,1c-0.6,0.2-1.6,0.6-3,1.2c0-0.3,0.2-0.6,0.5-0.9
						C136.7,37.3,137.7,36.8,139.2,36.2z"/>
					<path class="st0" d="M142.1,29.2c0,0.8-0.3,1.6-1,2.4c-0.6,0.7-1.3,1.4-2.1,1.9c-0.8,0.5-1.5,0.8-2,0.8c-0.5,0-1-0.1-1.6-0.2
						c-0.4-0.1-0.9-0.3-1.5-0.5c-0.5-0.2-1-0.4-1.5-0.6l0.2-0.4c0.5,0.1,0.9,0.2,1.4,0.3s1,0.1,1.4,0.1c0.9,0,1.8-0.3,2.8-0.9
						c0.9-0.5,1.6-1.2,2.3-2c0.6-0.8,0.9-1.5,0.9-2.2c0-0.6-0.2-1.1-0.5-1.7c-0.3-0.5-0.6-1-1.1-1.5l0.6-1.7c0.6,0.5,1,1.1,1.3,1.6
						c0.3,0.6,0.5,1.3,0.5,2V29.2z"/>
					<path class="st0" d="M147.5,13.6c0,0.3-0.2,0.6-0.5,1c-0.6,0.2-1.6,0.7-3,1.2c0-0.3,0.2-0.6,0.5-0.9
						C145,14.6,146,14.2,147.5,13.6z"/>
					<path class="st0" d="M147.3,29.2h-6v-1.8h5.2c0-0.8-0.1-1.5-0.3-1.9c-0.1-0.3-0.5-0.7-1-1.3l0.8-1.7c0.5,0.6,0.8,1.1,0.9,1.5
						c0.2,0.5,0.3,1.4,0.3,2.7V29.2z M144.9,19.7l-0.8,1.5l-1.7-0.9l0.8-1.5L144.9,19.7z M147.3,18.8l-0.8,1.5l-1.7-0.9l0.8-1.5
						L147.3,18.8z"/>
					<path class="st0" d="M154.1,17.3c0,0.4-0.2,0.8-0.5,1.2c-0.3,0.3-0.7,0.5-1.2,0.5c-0.4,0-0.7-0.1-0.9-0.3
						c-0.2-0.2-0.3-0.5-0.3-0.9c0-0.5,0.1-1,0.4-1.4c0.3-0.4,0.6-0.6,1-0.6c0.4,0,0.7,0.2,1,0.5C153.9,16.6,154.1,16.9,154.1,17.3z
						 M153.4,17.6c0-0.2-0.1-0.4-0.4-0.7s-0.5-0.4-0.7-0.4c-0.2,0-0.3,0.1-0.5,0.2s-0.2,0.3-0.2,0.5c0,0.2,0.1,0.4,0.3,0.5
						c0.2,0.1,0.4,0.1,0.8,0.1c0.2,0,0.3,0,0.4-0.1S153.4,17.8,153.4,17.6z"/>
					<path class="st0" d="M158.7,29.2h-12.1v-1.8h8.6c-0.7-0.6-1.3-1-1.8-1.3c-0.6-0.4-1.2-0.7-1.7-0.8c-0.6-0.2-1.1-0.3-1.7-0.3
						c-0.4,0-0.7,0-1.1,0.1c0.2-0.5,0.5-0.9,0.8-1.3c0.5-0.5,1.1-0.7,1.8-0.7c0.7,0,1.6,0.4,2.5,1.1c0.5,0.4,1.3,1,2.4,2
						c0.8,0.8,1.4,1.2,1.7,1.2h0.6V29.2z"/>
					<path class="st0" d="M162.3,26.5c0,0.6-0.1,1.1-0.3,1.6c-0.1,0.3-0.3,0.7-0.7,1.3l-0.2-0.1c0-0.2,0-0.4,0.1-0.7
						c0-0.3,0-0.4,0-0.5c0-0.7-0.1-1.7-0.2-3.1c-0.1-1.3-0.3-2.7-0.4-4.1c-0.1-0.9-0.2-1.7-0.3-2.6c0.1-0.3,0.3-0.6,0.5-1
						c0.2-0.4,0.3-0.7,0.5-1c0.1,0.8,0.3,1.9,0.4,3.3s0.3,2.6,0.4,3.8C162.2,24.8,162.3,25.8,162.3,26.5z"/>
					<path class="st0" d="M172.5,28.6c0,1.2-0.4,2.3-1.3,3.4c-1,1.3-2.1,1.9-3.3,1.9c-0.5,0-0.9-0.1-1.4-0.2
						c-0.4-0.1-0.8-0.2-1.4-0.4c-0.5-0.2-0.9-0.3-1.4-0.5l0.2-0.4c0.4,0.1,0.8,0.2,1.2,0.3c0.4,0.1,0.8,0.2,1.2,0.2
						c0.9,0,1.7-0.2,2.4-0.7c0.6-0.3,1.2-0.8,1.8-1.5c0.3-0.3,0.7-0.9,1.3-1.6c-0.9,0-1.7-0.2-2.1-0.5c-0.5-0.3-0.8-0.9-0.8-1.7
						c0-0.7,0.2-1.4,0.5-2c0.4-0.7,0.9-1.1,1.5-1.1c0.6,0,1,0.4,1.3,1.1c0.2,0.6,0.3,1.3,0.3,2.3V28.6z M171.8,27.4
						c-0.2-0.7-0.3-1.1-0.6-1.4c-0.2-0.2-0.4-0.3-0.7-0.3c-0.2,0-0.4,0.1-0.5,0.2s-0.2,0.3-0.2,0.5c0,0.3,0.2,0.6,0.5,0.8
						C170.6,27.3,171.1,27.4,171.8,27.4z"/>
					<path d="M185,16.7c0,0.3-0.2,0.6-0.5,1c-0.6,0.2-1.6,0.7-3,1.2c0-0.3,0.2-0.6,0.5-0.9C182.4,17.8,183.5,17.3,185,16.7z"/>
					<path d="M191.4,29.2h-7.8c-1.7,0-2.9-0.2-3.6-0.6c-0.8-0.4-1.1-1.2-1.1-2.2c0-0.6,0.2-1.3,0.5-2.1c0.1-0.2,0.3-0.6,0.6-1.2
						l0.4,0.2c-0.2,0.5-0.4,1-0.5,1.3c-0.1,0.3-0.1,0.6-0.1,0.8c0,0.8,0.4,1.3,1.2,1.6c0.6,0.2,1.5,0.3,2.6,0.3h6.7l-1.3-8.9
						l-0.5-0.3c0-0.5,0-0.9,0.1-1.4c0.1-0.4,0.2-0.8,0.4-1.2l0.2,0.1c0,0.4,0.3,0.7,0.8,0.9L191,17c0,0.3,0,0.7-0.1,1.1
						s-0.2,0.7-0.2,0.9l-0.5-0.2l1.2,8.2V29.2z M187.6,22.8c0,0.8-0.3,1.4-0.8,1.8c-0.5,0.4-1.2,0.6-2.2,0.6c-0.4,0-0.9-0.1-1.4-0.2
						c-0.3-0.1-0.8-0.2-1.4-0.4l0.2-0.2c0.2,0,0.4,0,0.6,0c0.6,0,0.9,0.1,1,0.1c0.8,0,1.5-0.1,2.1-0.4c0.6-0.2,0.9-0.5,0.9-0.8
						c0-0.1-0.1-0.3-0.2-0.4c-0.1-0.1-0.3-0.2-0.4-0.2c-0.2,0-0.3,0-0.4,0l-0.7,0.1c-0.2,0-0.3,0-0.4-0.1c-0.1-0.1-0.2-0.2-0.2-0.5
						c0-0.6,0.3-1.3,0.9-2.1c0.6-0.8,1.3-1.3,1.9-1.6l-0.2,1.4c-0.5,0.1-0.9,0.3-1.1,0.4c-0.4,0.2-0.6,0.5-0.6,0.9
						c0,0.1,0.1,0.2,0.2,0.3c0.1,0.1,0.2,0.1,0.4,0.1c0.1,0,0.2,0,0.3,0l0.6-0.1c0.4,0,0.6,0.1,0.8,0.3
						C187.5,22,187.6,22.3,187.6,22.8z"/>
					<path d="M196.3,29.2h-1.5c-0.5,0-0.9-0.2-1.1-0.6c-0.3-0.3-0.4-0.8-0.6-1.5c-0.1-0.7-0.2-1.5-0.3-2.5c0-0.8-0.1-1.6-0.1-2.4
						c0-0.8-0.1-1.5-0.2-1.9c-0.1-0.4-0.2-0.8-0.3-1.1c-0.2-0.3-0.4-0.6-0.6-0.9l1.3-2c0.3,0.8,0.5,1.8,0.6,3
						c0.1,0.7,0.1,2.5,0.2,5.2c0.1,1.2,0.3,2,0.5,2.4c0.2,0.3,0.4,0.4,0.6,0.4h1.5V29.2z"/>
					<path d="M201.6,29.2h-6v-1.8h5.2c0-0.8-0.1-1.5-0.3-1.9c-0.1-0.3-0.5-0.7-1-1.3l0.8-1.7c0.5,0.6,0.8,1.1,0.9,1.5
						c0.2,0.5,0.3,1.4,0.3,2.7V29.2z M200.5,31.7l-0.8,1.5l-1.7-0.9l0.8-1.5L200.5,31.7z"/>
					<path d="M205.7,10.2c0,0.3-0.2,0.6-0.5,1c-0.6,0.2-1.6,0.7-3,1.2c0-0.3,0.2-0.6,0.5-0.9C203.2,11.3,204.2,10.8,205.7,10.2z"/>
					<path d="M205.4,15.1c0,0.2-0.1,0.3-0.3,0.5c-0.1,0.1-0.4,0.2-0.7,0.3l-2,0.7c0-0.3,0.4-0.6,1.1-0.9c-0.2-0.1-0.4-0.2-0.5-0.3
						c-0.1-0.1-0.2-0.3-0.2-0.4c0-0.2,0.2-0.5,0.6-0.9c0.4-0.4,0.8-0.7,1.1-0.7c0.1,0,0.3,0,0.4,0.1c0.1,0.1,0.2,0.2,0.2,0.4
						c0,0.1,0,0.2-0.1,0.3s-0.1,0.2-0.2,0.3c-0.2-0.2-0.5-0.3-0.7-0.3c-0.2,0-0.3,0-0.5,0.1c-0.2,0.1-0.2,0.1-0.2,0.2
						c0,0.1,0.2,0.2,0.5,0.4c0.3,0.2,0.6,0.3,0.8,0.3c0.2,0,0.3,0,0.3,0C205.1,15.2,205.2,15.1,205.4,15.1z M205.2,26.5
						c0,0.6-0.1,1.1-0.3,1.6c-0.1,0.3-0.3,0.7-0.7,1.3l-0.2-0.1c0-0.2,0-0.4,0.1-0.7c0-0.3,0-0.4,0-0.5c0-0.7-0.1-1.7-0.2-3.1
						c-0.1-1.3-0.3-2.7-0.4-4.1c-0.1-0.9-0.2-1.7-0.3-2.6c0.1-0.3,0.3-0.6,0.5-1c0.2-0.4,0.3-0.7,0.5-1c0.1,0.8,0.3,1.9,0.4,3.3
						s0.3,2.6,0.4,3.8C205.1,24.8,205.2,25.8,205.2,26.5z"/>
					<path class="st0" d="M218.8,17.3c0,0.4-0.2,0.8-0.5,1.2c-0.3,0.3-0.7,0.5-1.2,0.5c-0.4,0-0.7-0.1-0.9-0.3
						c-0.2-0.2-0.3-0.5-0.3-0.9c0-0.5,0.1-1,0.4-1.4c0.3-0.4,0.6-0.6,1-0.6c0.4,0,0.7,0.2,1,0.5C218.7,16.6,218.8,16.9,218.8,17.3z
						 M218.2,17.6c0-0.2-0.1-0.4-0.4-0.7s-0.5-0.4-0.7-0.4c-0.2,0-0.3,0.1-0.5,0.2s-0.2,0.3-0.2,0.5c0,0.2,0.1,0.4,0.3,0.5
						c0.2,0.1,0.4,0.1,0.8,0.1c0.2,0,0.3,0,0.4-0.1S218.2,17.8,218.2,17.6z"/>
					<path class="st0" d="M222.5,35.1l-2.1,1.7c-1.3,0-2.3-0.1-3.1-0.2c-1.4-0.2-2.4-0.6-3.2-1.3c-1-0.8-1.5-1.9-1.5-3.4
						c0-1,0.2-1.8,0.6-2.7c0.3-0.7,0.7-1.3,1.3-2c0.3-0.3,0.8-0.8,1.5-1.5c-0.1-0.2-0.2-0.4-0.3-0.5c-0.1-0.1-0.3-0.2-0.4-0.2
						c-0.2,0-0.4,0.1-0.5,0.4h-0.2c0.1-0.7,0.3-1.2,0.5-1.5c0.4-0.7,1-1,1.9-1c0.6,0,1.1,0.1,1.6,0.4c0.5,0.3,0.7,0.8,0.7,1.3
						c0,0.3-0.1,0.6-0.4,0.9c-0.2,0.2-0.4,0.4-0.6,0.5c0.4,0.5,0.8,0.8,1.1,1c0.4,0.2,0.8,0.3,1.4,0.3h1v1.8h-1
						c-1.1,0-1.9-0.2-2.5-0.5c-0.6-0.3-1.1-0.9-1.4-1.6c-0.5,0.3-1,0.7-1.4,1c-0.6,0.5-1,0.9-1.3,1.4c-0.4,0.6-0.6,1.1-0.6,1.6
						c0,1.2,0.6,2.1,1.8,2.8c0.9,0.5,2.2,0.8,3.8,1C219.9,35,221,35.1,222.5,35.1L222.5,35.1z"/>
					<path class="st0" d="M229.4,31.1c0,0.3-0.2,0.7-0.5,1c-0.6,0.2-1.6,0.6-3,1.2c0-0.3,0.2-0.6,0.5-0.9
						C226.8,32.1,227.9,31.7,229.4,31.1z"/>
					<path class="st0" d="M234.2,29.2H221v-1.8l1.6,0c0.5,0,0.9-0.1,1.3-0.2c0.5-0.1,1-0.4,1.6-0.8c0.1-0.3,0.2-0.6,0.3-1
						s0.1-0.7,0.1-1c0-0.8-0.1-1.6-0.2-2.5c-0.1-0.7-0.3-1.4-0.5-2.3c-0.1-0.5-0.3-1-0.4-1.7l-0.7-0.3c0-0.4,0.1-0.8,0.2-1.2
						c0.1-0.4,0.2-0.8,0.4-1.1c0.1,0.3,0.4,0.6,0.8,0.8c0.3,0.1,0.7,0.2,1.3,0.3c-0.1,0.7-0.1,1.2-0.2,1.4s-0.1,0.4-0.2,0.7
						c0,0-0.2,0-0.4-0.1l-0.1,0c0.2,0.8,0.4,1.7,0.6,2.5c0.2,0.9,0.2,1.6,0.2,2.2c0,0.5,0,1.1-0.1,1.7c0,0.2-0.1,0.6-0.2,1
						c1.2-0.7,2-1.1,2.4-1.3c1-0.5,1.9-0.7,2.7-0.7c0.9,0,1.7,0.3,2.1,0.8c0.4,0.5,0.6,1.2,0.6,2.2V29.2z M232.6,26.5
						c0-0.4-0.2-0.6-0.6-0.8s-0.9-0.3-1.6-0.3c-0.5,0-1.1,0.1-1.8,0.3c-0.5,0.2-1.1,0.4-1.7,0.8c-0.5,0.2-0.9,0.5-1.4,0.8h4.6
						C231.8,27.4,232.6,27.1,232.6,26.5z"/>
					<path class="st0" d="M238.4,10.2c0,0.3-0.2,0.6-0.5,1c-0.6,0.2-1.6,0.7-3,1.2c0-0.3,0.2-0.6,0.5-0.9
						C235.8,11.3,236.9,10.8,238.4,10.2z"/>
					<path class="st0" d="M238.1,15.1c0,0.2-0.1,0.3-0.3,0.5c-0.1,0.1-0.4,0.2-0.7,0.3l-2,0.7c0-0.3,0.4-0.6,1.1-0.9
						c-0.2-0.1-0.4-0.2-0.5-0.3c-0.1-0.1-0.2-0.3-0.2-0.4c0-0.2,0.2-0.5,0.6-0.9c0.4-0.4,0.8-0.7,1.1-0.7c0.1,0,0.3,0,0.4,0.1
						c0.1,0.1,0.2,0.2,0.2,0.4c0,0.1,0,0.2-0.1,0.3s-0.1,0.2-0.2,0.3c-0.2-0.2-0.5-0.3-0.7-0.3c-0.2,0-0.3,0-0.5,0.1
						c-0.2,0.1-0.2,0.1-0.2,0.2c0,0.1,0.2,0.2,0.5,0.4c0.3,0.2,0.6,0.3,0.8,0.3c0.2,0,0.3,0,0.3,0C237.7,15.2,237.9,15.1,238.1,15.1
						z M237.8,26.5c0,0.6-0.1,1.1-0.3,1.6c-0.1,0.3-0.3,0.7-0.7,1.3l-0.2-0.1c0-0.2,0-0.4,0.1-0.7c0-0.3,0-0.4,0-0.5
						c0-0.7-0.1-1.7-0.2-3.1c-0.1-1.3-0.3-2.7-0.4-4.1c-0.1-0.9-0.2-1.7-0.3-2.6c0.1-0.3,0.3-0.6,0.5-1c0.2-0.4,0.3-0.7,0.5-1
						c0.1,0.8,0.3,1.9,0.4,3.3s0.3,2.6,0.4,3.8C237.7,24.8,237.8,25.8,237.8,26.5z"/>
				</g>
			</g>
		</g>
	</g>
	<rect class="st1" width="323.4" height="45.9"/>
</g>
</svg>
