<?xml version="1.0" encoding="utf-8"?>
<!-- Generator: Adobe Illustrator 19.2.0, SVG Export Plug-In . SVG Version: 6.00 Build 0)  -->
<svg version="1.1" id="Layer_1" xmlns="http://www.w3.org/2000/svg" xmlns:xlink="http://www.w3.org/1999/xlink" x="0px" y="0px"
	 viewBox="0 0 233 54.9" style="enable-background:new 0 0 233 54.9;" xml:space="preserve">
<style type="text/css">
	.st0{fill:#FFFFFF;}
</style>
<g>
	<path class="st0" d="M15.5,45.9c0.1-0.1,0.2-0.1,0.2,0.1c0,0.8-0.3,1.6-0.7,1.9l-5.9,3.3c-0.1,0.1-0.1,0-0.1-0.1
		c0-0.4,0.2-1.1,0.3-1.4c0.2-0.3,0.4-0.4,1-0.8L15.5,45.9z"/>
	<path class="st0" d="M17,36.3c0,3.3-0.6,4-1.3,5.2c-1.8,2.8-5.1,4.2-8.4,4.2c-5.6,0-7.2-3-7.2-5.9c0-2.1,0.7-4.3,1.5-5.9
		c0.5-0.9,0.9-1.2,1.1-1.2c0.1,0,0.2,0.1,0.2,0.2c0,0.2-0.1,0.6-0.4,1.2c-0.4,1-1,2.4-1,3.6c0,2.5,2,4.8,6.3,4.8c3.1,0,7-2,7.8-3.7
		c0.1-0.2,0.1-0.3,0.1-0.5c-0.2-2.7-0.4-4.5-0.7-6.9c-0.6-4.4-0.7-5.4-1.2-9.5c0-0.6-0.4-1.9-0.5-2.4c0-0.1-0.1-0.2-0.1-0.4
		c0-0.1,0-0.1,0-0.2c0.1-0.2,0.2-0.5,0.5-1.2c0.4-0.7,1-1.5,1.2-1.5c0.1,0,0.2,0.1,0.3,0.3c0.4,1.3,0.8,2.1,1.1,2.6
		c0.1,0.1,0.1,0.2,0.1,0.3s0,0.2-0.1,0.3c-0.1,0.4-0.4,1.2-0.7,1.5C16.2,25.8,17,32.9,17,36.3z"/>
	<path class="st0" d="M27.2,39.2c-0.9,0-1.8-0.2-2.4-0.7c-1-0.8-1.6-2.4-1.8-4.4c-0.2-1.5-0.4-3.3-0.4-5.3c-0.1-2.9-0.3-7.3-0.7-9.8
		c0-0.1,0-0.3,0-0.4c0-0.1,0-0.3,0.2-0.6c0.4-0.7,0.7-1.1,1-1.7c0.2-0.4,0.3-0.5,0.4-0.5c0.1,0,0.3,0.3,0.4,0.9
		c0.6,5,0.1,12,0.9,15.9c0.2,1,0.3,1.3,0.5,1.9c0.4,0.9,1.1,1.3,2.1,1.4c1.1,0,1.7,0.5,1.7,1.6c0,1.3-0.6,1.7-1.5,1.7H27.2z"/>
	<path class="st0" d="M38.7,36c1,0,1.4,0.5,1.4,1.6c0,1.1-0.5,1.7-1.4,1.7h-0.4c-3.1,0-4.9-0.6-6.2-1.4c-1.1,0.7-2.7,1.4-4.6,1.4
		h-0.3c-0.9,0-1.3-0.6-1.3-1.7c0-1,0.5-1.6,1.4-1.6h0.3c1.3,0,2.1-0.2,2.4-0.5c-0.1-0.4-0.2-0.7-0.2-1.1c0-3.3,3.7-7.3,5.8-7.3
		c1.2,0,1.8,1.4,1.8,3.1c0,1.8-0.7,4-2.1,5.3c0.6,0.4,1.7,0.5,3.1,0.5H38.7z M35.1,20c0.1,0.1,0.1,0.2,0,0.3c-0.4,0.4-1.5,1.8-2,2.4
		c-0.1,0.1-0.2,0.1-0.3,0c-0.7-0.4-2.1-1.5-2.5-2.1c-0.1-0.2-0.1-0.2,0-0.4c0.5-0.7,1.3-1.7,1.9-2.2c0.3-0.3,0.3-0.3,0.4-0.2
		C33,18.5,34.1,19.4,35.1,20z M34.1,30.3c-1.2,0-2.3,1.3-2.3,1.8c0,0.7,0.5,1.3,1.7,2c0.4-0.2,2.1-1.4,2.1-1.9
		C35.6,31,35.2,30.3,34.1,30.3z"/>
	<path class="st0" d="M42.2,7.7c0.9,0,2.4,1.4,2.4,2.9c0,0.6-0.1,1.1-0.3,1.7c-0.4,1.1-1.3,1.8-2.6,1.8c-1.1,0-1.9-0.9-1.9-1.9
		C39.8,10.8,41.4,7.7,42.2,7.7z M41.9,10c-0.4,0-1,0.9-1,1.4c0,0.4,0.5,0.8,1.2,0.8c0.7,0,1.6-0.4,1.6-0.7
		C43.6,11.2,42.7,10,41.9,10z"/>
	<path class="st0" d="M44,29.1c0,1.3-0.1,2.4-0.5,3.3c3.1-2.6,5.4-3.8,7-3.8c0.7,0,1.7,0.2,2.6,0.5c1.2,0.5,1.7,1.1,1.7,2.3
		c0,1.6-0.7,3-1.7,4.3c-1.4,1.9-8.7,3.5-14.5,3.5h-0.4c-1,0-1.5-0.5-1.5-1.6c0-1.1,0.5-1.6,1.5-1.6c0.6,0,1.4,0,1.6,0
		c0.6-0.6,1.9-1.9,2.8-2.6c0-0.5,0-1.1,0-1.6c0-3.6-0.5-6.7-1-10.1c0-0.6-0.4-1.9-0.5-2.4c0-0.1-0.1-0.2-0.1-0.4c0-0.1,0-0.1,0-0.2
		c0.1-0.2,0.2-0.5,0.5-1.2c0.4-0.7,0.8-1.5,1.1-1.5c0.1,0,0.2,0.1,0.3,0.3c0.4,1.3,0.8,2.1,1.1,2.6c0.1,0.1,0.1,0.2,0.1,0.3
		c0,0.1,0,0.2-0.1,0.3c-0.1,0.4-0.5,1.2-0.8,1.5C43.5,23.7,44,26.7,44,29.1z M49.1,31.5c-2.7,0-5.3,2.1-7.8,4.5
		c4.9-0.3,9.6-1.2,11.5-2.5C52.1,32.4,50.5,31.5,49.1,31.5z"/>
	<path class="st0" d="M59.9,0C60,0,60.1,0,60.1,0.1c0,0.8-0.3,1.6-0.7,1.9l-5.9,3.3c-0.1,0.1-0.1,0-0.1-0.1c0-0.4,0.2-1.1,0.3-1.4
		c0.2-0.3,0.4-0.4,1-0.8L59.9,0z"/>
	<path class="st0" d="M59.7,11.6c-0.2,0.4-0.3,0.4-0.5,0.5c-1.2,0.6-3.7,2.1-5.7,3.6c-0.2,0.1-0.3,0.1-0.2-0.2
		c0-0.2,0.1-0.5,0.3-0.8c0.1-0.3,0.7-0.9,1.2-1.3c0.2-0.1,0.2-0.2-0.1-0.3c-1-0.4-1.3-0.8-1.3-1.5c0-1.3,1.3-3.1,2.5-4.1
		c0.4-0.3,0.9-0.7,1.6-0.7c0.8,0,1.2,0.4,1.2,1c0,0.4-0.1,0.9-0.3,1.4c-0.3,0.6-0.4,0.7-0.8,0.3c-0.2-0.3-0.5-0.4-0.8-0.4
		c-1.1,0-1.9,0.7-1.9,1c0,0.4,1.8,1.2,2.6,1.2c0.1,0,0.2,0,0.4-0.1c0.6-0.2,1.8-0.7,2-0.9c0.5-0.4,0.6-0.2,0.4,0.3
		C60.1,10.9,59.9,11.4,59.7,11.6z"/>
	<path class="st0" d="M70.8,18.6c0.1,0.2,0.2,0.3,0.2,0.4c0,0.1,0,0.2-0.1,0.3c-0.2,0.6-0.8,1.4-1.2,1.9c-0.3,3.5-0.7,6.2-2.2,10.1
		c0.4,1.1,0.7,2.7,0.7,4.2c0,1-0.1,1.9-0.4,2.6c-0.2,0.6-3.8,1.2-6.3,1.2c-0.6,0-1.2,0-1.6-0.1c-0.2,0-0.2-0.4-0.2-0.9
		c0-0.9,0.2-2.1,0.4-2.5c0-0.1,0.1-0.1,0.1-0.1c0.2,0,0.2,0,0.3,0c2,0,4-1.8,5.3-4.2c-1.6-3.2-5-7.4-8-9.4c-0.1,0.1-0.6,0.8-1.1,0.8
		c-0.5,0-3.1-2.5-3.2-3.1c-0.1-0.3-0.1-0.6-0.1-0.9c0-0.8,0.2-1.6,0.3-2c0.2-0.4,0.4-0.6,0.6-0.6c0.3,0,0.7,0.3,1.1,0.5
		c2.3,1.6,4.6,3.4,6.5,5.7c1.4,1.8,3.3,4.3,4.7,7.3c0.8-1.8,1-3.1,1.2-5.5c0.1-1.4,0.1-2.4,0.1-3.1c0-1.6-0.2-2.2-0.2-2.6
		c0-0.3,0.1-0.5,0.4-1c0.5-1,1-1.7,1.2-1.7c0.1,0,0.2,0.1,0.3,0.3C70,16.9,70.4,17.8,70.8,18.6z M66.4,32.8
		c-1.1,1.6-1.3,1.9-2.4,2.9c1.1,0,2.2-0.1,3.1-0.4C67,34.7,67,33.9,66.4,32.8z"/>
	<path class="st0" d="M76.5,39.2c-0.2,0-0.2-0.2-0.2-1c0-4.3-1.6-16.2-1.6-18.2c0-1,0.6-2.5,1.2-3.5c0.2-0.3,0.5-0.7,0.7-0.7
		c0.2,0,0.2,0.3,0.3,1.1c0.2,3.1,1,10.4,1,15.7c0,2.1-0.2,3.9-0.5,4.9C77,38.7,76.7,39.2,76.5,39.2z"/>
	<path class="st0" d="M96.9,40.6c0.1-0.1,0.2-0.1,0.2,0.1c0,0.8-0.3,1.6-0.7,1.9l-5.9,3.3c-0.1,0.1-0.1,0-0.1-0.1
		c0-0.4,0.2-1.1,0.3-1.4c0.2-0.3,0.4-0.4,1-0.8L96.9,40.6z"/>
	<path class="st0" d="M95.2,17.6c0.3-0.3,0.4-0.3,0.5-0.2c0.7,0.7,1.5,1.5,2.2,2c0.2,0.2,0.2,0.2,0,0.4c-0.7,0.7-1.3,1.4-1.9,2.2
		c-0.2,0.2-0.2,0.2-0.4,0c-0.5-0.4-1.3-1.1-2.1-1.7c-0.4,0.5-1.3,1.4-1.6,1.7c-0.2,0.1-0.3,0.2-0.5,0.1c-0.7-0.4-1.6-1.2-2.2-2
		c-0.1-0.2-0.1-0.3,0-0.5c0.5-0.6,1.3-1.5,2-2.2c0.2-0.2,0.3-0.1,0.4,0.1c0.5,0.6,1.5,1.4,2.1,1.8C94.1,18.8,94.9,17.9,95.2,17.6z
		 M99.5,35.3c0.7,0.4,1.3,0.7,1.7,0.7h0.5c1,0,1.5,0.5,1.5,1.5c0,1.2-0.5,1.8-1.6,1.8h-0.4c-1.1,0-2.2-0.4-3.2-1.3
		c-1-0.9-1.7-2.3-2-4.3c-0.3,0.5-0.6,1-1.2,1.4c-0.9,0.6-2.3,0.9-3.7,0.9c-1.1,0-2-0.2-2-0.9c0.4-3.2,0.9-3.7,2.4-4.9
		c0.7-0.5,2.6-1.7,3.3-2.2c0-0.3-0.1-0.5-0.1-0.8c0-0.7,0.2-1.2,0.5-1.7c0.2-0.4,0.4-0.7,0.6-0.7c0.1,0,0.3,0.2,0.4,0.8
		c0.5,2.9,0.7,5.4,1.1,6.8C97.6,33.5,98.4,34.6,99.5,35.3z M95.2,29.5c-1.3,0.9-3.6,2.2-3.7,2.7c0,0.2,0.4,0.3,1.1,0.3
		c0.9,0,2.2-0.2,3.1-0.7C95.4,30.9,95.4,30.6,95.2,29.5z"/>
	<path class="st0" d="M108.6,10.1c0.1-0.1,0.2-0.1,0.2,0.1c0,0.8-0.3,1.6-0.7,1.9l-5.9,3.3c-0.1,0.1-0.1,0-0.1-0.1
		c0-0.4,0.2-1.1,0.3-1.4c0.2-0.3,0.4-0.4,1-0.8L108.6,10.1z"/>
	<path class="st0" d="M112.6,36c1,0,1.4,0.5,1.4,1.6c0,1.1-0.5,1.7-1.4,1.7h-0.4c-3.1,0-4.9-0.6-6.2-1.4c-1.1,0.7-2.7,1.4-4.6,1.4
		h-0.3c-0.9,0-1.3-0.6-1.3-1.7c0-1,0.5-1.6,1.4-1.6h0.3c1.3,0,2.1-0.2,2.4-0.5c-0.1-0.4-0.2-0.7-0.2-1.1c0-3.3,3.7-7.3,5.8-7.3
		c1.2,0,1.8,1.4,1.8,3.1c0,1.8-0.7,4-2.1,5.3c0.6,0.4,1.7,0.5,3.1,0.5H112.6z M109,20c0.1,0.1,0.1,0.2,0,0.3c-0.4,0.4-1.5,1.8-2,2.4
		c-0.1,0.1-0.2,0.1-0.3,0c-0.7-0.4-2.1-1.5-2.5-2.1c-0.1-0.2-0.1-0.2,0-0.4c0.5-0.7,1.3-1.7,1.9-2.2c0.3-0.3,0.3-0.3,0.4-0.2
		C106.9,18.5,108,19.4,109,20z M108,30.3c-1.2,0-2.3,1.3-2.3,1.8c0,0.7,0.5,1.3,1.7,2c0.4-0.2,2.1-1.4,2.1-1.9
		C109.5,31,109.1,30.3,108,30.3z"/>
	<path class="st0" d="M117.8,17.8c0.9,0,2.4,1.4,2.4,2.9c0,0.6-0.1,1.1-0.3,1.7c-0.4,1.1-1.3,1.8-2.6,1.8c-1.1,0-1.9-0.9-1.9-1.9
		C115.5,21,117.1,17.8,117.8,17.8z M117.5,20.1c-0.4,0-1,0.9-1,1.4c0,0.4,0.5,0.8,1.2,0.8c0.7,0,1.6-0.4,1.6-0.7
		C119.2,21.3,118.3,20.1,117.5,20.1z"/>
	<path class="st0" d="M130.7,5.7c0,0.7-0.2,1.4-0.4,2.1c0.3,0.2,0.5,0.4,0.5,0.5c0,0.5-0.2,1.1-0.5,1.4c-0.1,0.1-0.1,0.1-0.2,0.1
		l-0.7-0.4c-0.7,1.1-1.8,2.5-3.5,3.3c-0.6,0.3-1.3,0.5-2.1,0.5c-0.4,0-0.6-0.1-0.6-0.2c0-0.2,0.3-0.3,0.8-0.5
		c1.2-0.7,3.6-2.5,4.4-3.6c-0.6-0.4-1.5-1-1.5-2c0-0.6,0.3-1.2,0.8-1.9c0.6-0.8,1.2-1.1,1.8-1.1C130.4,3.9,130.6,4.9,130.7,5.7z
		 M128.1,6.3C128.1,6.3,128,6.4,128.1,6.3c0,0.3,0.6,0.7,1.1,0.9c0.1-0.2,0.2-0.5,0.2-0.9c0-0.4-0.2-0.6-0.5-0.6
		C128.6,5.7,128.3,5.9,128.1,6.3z"/>
	<path class="st0" d="M129.6,14.2c0.3-0.3,0.4-0.3,0.5-0.2c0.7,0.7,1.5,1.5,2.2,2c0.2,0.2,0.2,0.2,0,0.4c-0.7,0.7-1.3,1.4-1.9,2.2
		c-0.2,0.2-0.2,0.2-0.4,0c-0.5-0.4-1.3-1.1-2.1-1.7c-0.4,0.5-1.3,1.4-1.6,1.7c-0.2,0.1-0.3,0.2-0.5,0.1c-0.7-0.4-1.6-1.2-2.2-2
		c-0.1-0.2-0.1-0.3,0-0.5c0.5-0.6,1.3-1.5,2-2.2c0.2-0.2,0.3-0.1,0.4,0.1c0.5,0.6,1.5,1.4,2.1,1.8C128.5,15.5,129.3,14.6,129.6,14.2
		z"/>
	<path class="st0" d="M128.8,26.6c-0.2,0-0.3-0.2-0.4-0.7c-0.1-0.9-0.6-1.7-1.2-1.7c-0.4,0-0.9,0.4-1.5,1.3c-1.5,2.5-3.3,4.1-4.7,5
		c-0.1,0.1,0,0.1,0.2,0.2c5.1,1.8,9.2,2.7,12.5,2.6c0.1,0,0.3,0,0.1,0.5c-0.2,0.5-0.9,1.3-1.9,2.4c-0.2,0.2-0.2,0.2-0.5,0.2
		c-1.3-0.2-2.5-0.3-3.6-0.4c-1.4,0-2.7,0.1-3.8,0.4c-1,0.3-2.4,0.7-4,1.3c-1.6,0.6-2.9,1-3.9,1.3c-0.9,0.3-2.1,0.4-3.5,0.4h-0.4
		c-0.8,0-1.3-0.6-1.3-1.7c0-1,0.4-1.6,1.2-1.6h0.4c3.1,0,6.2-0.5,9.5-1.4c0,0,0-0.1-0.2-0.2c-2-1-4.4-1.6-7.5-1.9
		c-0.2,0-0.2-0.1-0.1-0.4c0.2-0.4,0.9-1.1,1.9-2.1c0.4-0.4,1.4-1,3.1-1.6c2.7-1.2,5.5-3.1,7.1-6.1c0.4-0.9,1.3-1.5,2-1.5
		c1.1,0,1.5,1.7,1.5,2.6c0,0.8,0,1.3-0.1,1.8C129.4,26,129.1,26.6,128.8,26.6z"/>
	<path class="st0" d="M160.5,49.6c0.1-0.1,0.2-0.1,0.2,0.1c0,0.8-0.3,1.6-0.7,1.9l-5.9,3.3c-0.1,0.1-0.1,0-0.1-0.1
		c0-0.4,0.2-1.1,0.3-1.4c0.2-0.3,0.4-0.4,1-0.8L160.5,49.6z"/>
	<path class="st0" d="M148.1,35.5c1.4,0.6,3.6,1,6.5,1c4.1,0,7.4-0.6,9.6-1.2c2.9-0.9,4.3-1.3,5.9-2.5c0.1-0.1,0.3-0.2,0.4-0.2
		c0.1,0,0.2,0.1,0.2,0.6c0,1.8,1,2.8,2.1,2.8h0.5c0.9,0,1.3,0.5,1.3,1.6c0,1.1-0.4,1.7-1.3,1.7h-0.6c-2,0-3.3-1.1-3.7-3.2
		c-1.5,0.8-3.5,1.7-5.3,2.3c-2.8,0.8-5.9,1.5-9.5,1.5c-2.9,0-5.4-0.4-7.1-1.1c-2.1-0.8-3.1-2.1-3.1-4.3c0-1.9,0.8-3.7,1.2-4.4
		c0.3-0.5,0.6-0.9,0.9-0.9c0.1,0,0.2,0.1,0.2,0.2c0,0.2-0.1,0.5-0.3,0.9c-0.3,0.7-0.5,1.5-0.5,2.2C145.5,33.3,146,34.5,148.1,35.5z
		 M159.3,46c0.1,0.1,0.1,0.2,0,0.3c-0.4,0.4-1.5,1.8-2,2.4c-0.1,0.1-0.2,0.1-0.3,0c-0.7-0.4-2.1-1.5-2.5-2.1c-0.1-0.2-0.1-0.2,0-0.4
		c0.5-0.7,1.3-1.7,1.9-2.2c0.3-0.3,0.3-0.3,0.4-0.2C157.3,44.4,158.3,45.4,159.3,46z"/>
	<path class="st0" d="M186.1,40.2c0.1-0.1,0.2-0.1,0.2,0.1c0,0.8-0.3,1.6-0.7,1.9l-5.9,3.3c-0.1,0.1-0.1,0-0.1-0.1
		c0-0.4,0.2-1.1,0.3-1.4c0.2-0.3,0.4-0.4,1-0.8L186.1,40.2z"/>
	<path class="st0" d="M177,31.6c-0.4,0-0.7,0-0.9,0.2c-0.3,0.1-0.8,0.4-1.2,0.4c-0.2,0-0.3-0.2-0.3-0.3c0-0.6,0.8-1.9,1.7-2.6
		c0.7-0.6,1.4-0.8,2-0.8c0.2,0,0.5,0,0.7,0.1c2.6,0.6,5.9,2,8.5,2.5c1.8,0.4,3.7,0.5,4.9,0.5c0.3,0,0.5,0,0.7,0c0.1,0,0.1,0,0.1,0.1
		c0,0.5-1,2.1-1.6,2.7c-0.1,0.1-0.4,0.1-0.8,0.1c-0.7,0-2.3-0.1-2.7-0.1c-1.3,0-2.3,0.1-3.2,0.4c-0.6,0.2-1.7,0.7-3.3,1.4
		c-2.4,1.2-4.1,2-5.1,2.4c-1.1,0.4-2.2,0.6-3.6,0.7h-0.4c-1.1,0-1.6-0.6-1.6-1.7c0-1,0.5-1.5,1.6-1.5h0.4c2,0,3.6-0.2,4.9-0.6
		c1.3-0.4,3.3-1.1,5.7-2.1C180.8,32.5,178.5,31.6,177,31.6z"/>
	<path class="st0" d="M202,39.2c-0.9,0-1.8-0.2-2.4-0.7c-1-0.8-1.6-2.4-1.8-4.4c-0.2-1.5-0.4-3.3-0.4-5.3c-0.1-2.9-0.3-7.3-0.7-9.8
		c0-0.1,0-0.3,0-0.4c0-0.1,0-0.3,0.2-0.6c0.4-0.7,0.7-1.1,1-1.7c0.2-0.4,0.3-0.5,0.4-0.5c0.1,0,0.3,0.3,0.4,0.9
		c0.6,5,0.1,12,0.9,15.9c0.2,1,0.3,1.3,0.5,1.9c0.4,0.9,1.1,1.3,2.1,1.4c1.1,0,1.7,0.5,1.7,1.6c0,1.3-0.6,1.7-1.5,1.7H202z"/>
	<path class="st0" d="M226,39.2c-2.1,0-4.2,0.1-6.3,0.4c-1.9,0.3-3.8,0.6-5.8,0.6c-1.4,0-2.8-0.1-4.1-0.4c-0.3,0.3-0.5,0.7-0.8,1.2
		c-0.3,0.4-0.5,0.7-0.7,0.7c-0.2,0-0.2-0.1-0.2-0.3c0-0.1,0-0.3,0.1-0.4c0.2-0.4,0.4-0.9,0.7-1.5c-1.5-0.5-2.6-1.5-3.2-2.9
		c-0.8,1.8-2,2.7-3.3,2.7H202c-0.9,0-1.3-0.5-1.3-1.6c0-1.1,0.4-1.6,1.3-1.6h0.3c1.8-0.1,2.9-1,3.5-2.4c0.4-0.9,0.7-1.6,1.1-1.6
		c0.3,0,0.4,0.4,0.4,1.1c0,1.8,1.8,3,3.5,3.4c2.3-2.9,7.7-7.4,10-7.4c0.7,0,1.6,0.3,2.4,0.7c0.8,0.5,1.7,1.3,1.7,2.3
		c0,1-0.6,2.9-1.3,4.2c1.1-0.2,1.9-0.3,2.5-0.3h0.3c1,0,1.5,0.5,1.5,1.6c0,1.1-0.5,1.7-1.5,1.7H226z M222.9,34.8
		c0-0.4-0.5-1.1-1.2-1.6c-0.9-0.6-1.9-0.8-2.4-0.8c-2.3,0-5.8,2.5-7.4,4.4c0.7,0.1,1.8,0.2,2.3,0.2C218,36.9,221,35.7,222.9,34.8
		C222.9,34.9,222.9,34.8,222.9,34.8z"/>
	<path class="st0" d="M232.8,41.8c0.1-0.1,0.2-0.1,0.2,0.1c0,0.8-0.3,1.6-0.7,1.9l-5.9,3.3c-0.1,0.1-0.1,0-0.1-0.1
		c0-0.4,0.2-1.1,0.3-1.4c0.2-0.3,0.4-0.4,1-0.8L232.8,41.8z"/>
	<path class="st0" d="M229.4,37.7c-0.8,1-1.7,1.5-3.2,1.5h-0.3c-0.9,0-1.4-0.6-1.4-1.7c0-1,0.5-1.5,1.4-1.5h0.3
		c0.8,0,1.5-0.1,2.1-0.3c0.5-0.2,0.9-0.4,1-0.6c0-2.5-0.9-7.7-1.3-12.7c0-0.6-0.4-2.3-0.5-3c0-0.1,0-0.2,0-0.3
		c0-0.4,0.5-1.3,0.8-1.9c0.4-0.7,0.7-1.3,1-1.3c0.1,0,0.2,0.1,0.3,0.3c0.4,1.4,0.8,2.1,1.2,2.6c0.1,0.1,0.2,0.3,0.2,0.4
		c0,0.1,0,0.1,0,0.2c-0.1,0.4-0.5,1.2-0.8,1.5c0.2,4.9,1,8.8,1,11.2C230.9,34.4,230.4,36.3,229.4,37.7z"/>
</g>
</svg>
