<?xml version="1.0" encoding="utf-8"?>
<!-- Generator: Adobe Illustrator 19.2.0, SVG Export Plug-In . SVG Version: 6.00 Build 0)  -->
<svg version="1.1" id="Layer_1" xmlns="http://www.w3.org/2000/svg" xmlns:xlink="http://www.w3.org/1999/xlink" x="0px" y="0px"
	 viewBox="0 0 202.2 31" style="enable-background:new 0 0 202.2 31;" xml:space="preserve">
<style type="text/css">
	.st0{fill:#FFFA00;}
	.st1{fill:#FFFFFF;}
	.st2{fill:#CB9248;}
	.st3{fill:url(#SVGID_1_);}
	.st4{fill:#F4CE83;}
	.st5{opacity:0.5;fill:#FFFFFF;}
	.st6{fill:none;stroke:#003351;stroke-width:2.398;stroke-linecap:round;stroke-linejoin:round;stroke-miterlimit:10;}
	.st7{fill:url(#SVGID_2_);}
	.st8{fill:url(#SVGID_3_);}
	.st9{fill:url(#SVGID_4_);}
</style>
<g>
	<g>
		<path class="st0" d="M92.8,16.3c0.3,0.3,0.4,0.7,0.4,1.1c0,0.2-0.1,0.7-0.4,0.9c-0.3,0.3-0.7,0.4-1.1,0.4c-0.3,0-0.7-0.1-0.9-0.4
			c-0.3-0.3-0.4-0.6-0.4-1c0-0.4,0.2-0.8,0.4-1c0.3-0.2,0.6-0.4,1-0.4C92.2,15.9,92.6,16.1,92.8,16.3z M92.8,21.5
			c0.3,0.3,0.4,0.8,0.4,1.1c0,0.3-0.1,0.7-0.4,1c-0.3,0.3-0.7,0.4-1.1,0.4c-0.3,0-0.6-0.2-0.9-0.4c-0.3-0.3-0.4-0.6-0.4-1
			c0-0.3,0.2-0.7,0.4-1c0.3-0.3,0.6-0.4,1-0.4C92.2,21.2,92.6,21.3,92.8,21.5z"/>
		<path class="st0" d="M148.8,0.8c0.1-0.1,0.1,0,0.1,0.1c0,0.6-0.2,1.1-0.5,1.3l-4,2.3c-0.1,0-0.1,0-0.1-0.1c0-0.3,0.1-0.8,0.2-1
			c0.1-0.2,0.3-0.3,0.7-0.5L148.8,0.8z M148.8,2.8c0.1-0.1,0.1,0,0.1,0.1c0,0.6-0.2,1.1-0.5,1.3l-4,2.3c-0.1,0-0.1,0-0.1-0.1
			c0-0.3,0.1-0.8,0.2-1c0.1-0.2,0.3-0.3,0.7-0.5L148.8,2.8z"/>
		<path class="st0" d="M148.2,8.6c0.2-0.2,0.2-0.2,0.3-0.1c0.5,0.5,1,1.1,1.5,1.4c0.2,0.1,0.2,0.2,0,0.3c-0.5,0.5-0.9,1-1.3,1.5
			c-0.1,0.1-0.2,0.1-0.3,0c-0.4-0.3-0.9-0.7-1.4-1.2c-0.3,0.3-0.9,1-1.1,1.2c-0.1,0.1-0.2,0.2-0.4,0c-0.5-0.3-1.1-0.9-1.5-1.4
			c-0.1-0.1-0.1-0.2,0-0.3c0.4-0.5,0.9-1,1.4-1.5c0.1-0.1,0.2-0.1,0.3,0.1c0.4,0.4,1,1,1.4,1.2C147.4,9.4,147.9,8.8,148.2,8.6z
			 M151.2,21c0.5,0.3,0.9,0.5,1.2,0.5h0.3c0.7,0,1.1,0.4,1.1,1.1c0,0.8-0.4,1.2-1.1,1.2h-0.3c-0.8,0-1.5-0.3-2.3-0.9
			c-0.7-0.6-1.2-1.6-1.4-3c-0.2,0.4-0.4,0.7-0.8,1c-0.6,0.4-1.6,0.6-2.6,0.6c-0.7,0-1.4-0.1-1.4-0.7c0.3-2.2,0.6-2.6,1.7-3.4
			c0.5-0.4,1.8-1.2,2.3-1.6c0-0.2,0-0.4,0-0.5c0-0.5,0.1-0.8,0.4-1.2c0.2-0.3,0.3-0.5,0.4-0.5c0.1,0,0.2,0.2,0.2,0.5
			c0.3,2.1,0.5,3.8,0.8,4.8C149.9,19.7,150.4,20.5,151.2,21z M148.1,16.9c-0.9,0.6-2.5,1.6-2.6,1.9c0,0.2,0.3,0.2,0.7,0.2
			c0.6,0,1.5-0.2,2.2-0.5C148.4,17.9,148.3,17.7,148.1,16.9z"/>
		<path class="st0" d="M159.1,4c0.1-0.1,0.1,0,0.1,0.1c0,0.6-0.2,1.1-0.5,1.3l-4.1,2.3c-0.1,0-0.1,0-0.1-0.1c0-0.3,0.1-0.8,0.2-1
			c0.1-0.2,0.3-0.3,0.7-0.5L159.1,4z"/>
		<path class="st0" d="M162.6,21.4c0.6,0,1,0.4,1,1.1c0,0.8-0.3,1.2-1,1.2h-0.2c-1-0.1-1.9-0.3-2.7-0.8c-0.8-0.5-1.1-0.9-1.6-1.7
			c-1.2,1.1-2.1,1.7-2.9,2c-0.8,0.3-1.7,0.5-2.7,0.5c-0.8,0-1.1-0.4-1.1-1.2c0-0.7,0.4-1.1,1.1-1.1h0.2c1.8,0,3-0.3,4.5-1.2
			c-0.5-0.7-1.7-1-2.3-1.1c-0.1,0-0.1-0.2-0.1-0.4c0-0.5,0.2-1.4,0.5-1.6c1-0.7,2.1-1.1,3.1-1.1c1,0,1.9,0.4,2.6,1.1
			c0.2,0.2,0.2,0.4,0.2,0.7c0,0.7-0.4,1.7-1.3,2.3c0.8,0.8,1.7,1.2,2.6,1.2H162.6z M159.2,11.3c0.1,0.1,0.1,0.1,0,0.2
			c-0.2,0.3-1.1,1.2-1.4,1.7c-0.1,0.1-0.1,0.1-0.2,0c-0.5-0.3-1.5-1-1.7-1.4c-0.1-0.1-0.1-0.1,0-0.2c0.3-0.5,0.9-1.2,1.3-1.6
			c0.2-0.2,0.2-0.2,0.3-0.1C157.7,10.2,158.5,10.8,159.2,11.3z"/>
		<path class="st0" d="M166.3,1.2c0,0.5-0.1,1-0.3,1.5c0.2,0.1,0.4,0.3,0.4,0.4c0,0.4-0.2,0.7-0.3,1C166,4.2,166,4.2,166,4.1
			l-0.5-0.3c-0.5,0.8-1.3,1.7-2.5,2.3c-0.4,0.2-0.9,0.4-1.5,0.4c-0.3,0-0.4-0.1-0.4-0.1c0-0.1,0.2-0.2,0.6-0.4
			c0.9-0.5,2.5-1.8,3.1-2.5c-0.5-0.3-1.1-0.7-1.1-1.4c0-0.4,0.2-0.9,0.6-1.3c0.4-0.5,0.8-0.8,1.2-0.8C166.1,0,166.3,0.7,166.3,1.2z
			 M164.5,1.7C164.5,1.7,164.5,1.7,164.5,1.7c0,0.2,0.4,0.5,0.8,0.7c0.1-0.2,0.1-0.4,0.1-0.7c0-0.3-0.1-0.4-0.3-0.4
			C164.9,1.3,164.7,1.4,164.5,1.7z"/>
		<path class="st0" d="M164.8,22.7c-0.5,0.7-1.2,1-2.3,1h-0.2c-0.7,0-1-0.4-1-1.2c0-0.7,0.3-1.1,1-1.1h0.2c0.5,0,1-0.1,1.5-0.2
			c0.4-0.1,0.6-0.3,0.7-0.4c0-1.7-0.6-5.4-0.9-8.9c0-0.4-0.3-1.6-0.4-2.1c0-0.1,0-0.2,0-0.2c0-0.3,0.3-0.9,0.5-1.3
			c0.3-0.5,0.5-0.9,0.7-0.9c0.1,0,0.1,0.1,0.2,0.2c0.3,1,0.6,1.5,0.8,1.8c0.1,0.1,0.1,0.2,0.1,0.3c0,0,0,0.1,0,0.1
			c-0.1,0.2-0.4,0.8-0.6,1.1c0.2,3.4,0.7,6.2,0.7,7.8C165.8,20.3,165.4,21.7,164.8,22.7z"/>
	</g>
	<g>
		<path class="st1" d="M2.4,21.4c0.4,0.3,0.4,0.8,0.4,1.1c0,0.3-0.1,0.7-0.4,1C2.1,23.8,1.7,24,1.3,24c-0.3,0-0.7-0.1-0.9-0.4
			C0.1,23.3,0,22.9,0,22.5c0-0.4,0.2-0.7,0.4-1c0.3-0.2,0.6-0.4,1-0.4S2.1,21.2,2.4,21.4z"/>
		<path class="st1" d="M21.4,2.2c0,0.5-0.1,1-0.3,1.5c0.2,0.1,0.4,0.3,0.4,0.4c0,0.4-0.2,0.7-0.3,1C21,5.1,21,5.1,21,5.1l-0.5-0.3
			C20,5.5,19.2,6.5,18,7.1c-0.4,0.2-0.9,0.4-1.5,0.4c-0.3,0-0.4-0.1-0.4-0.1c0-0.1,0.2-0.2,0.6-0.4c0.9-0.5,2.5-1.8,3.1-2.5
			c-0.5-0.3-1.1-0.7-1.1-1.4c0-0.4,0.2-0.9,0.6-1.3C19.7,1.2,20.1,1,20.5,1C21.2,1,21.3,1.7,21.4,2.2z M19.6,2.7
			C19.6,2.7,19.5,2.7,19.6,2.7c0,0.2,0.4,0.5,0.8,0.7c0.1-0.2,0.1-0.4,0.1-0.7c0-0.3-0.1-0.4-0.3-0.4C19.9,2.2,19.7,2.4,19.6,2.7z"
			/>
		<path class="st1" d="M15.3,28.7c2.4,0,5.7-1.7,5.7-2.9c-0.2-2-0.3-3.2-0.5-4.9c-0.4-3.1-0.7-5.5-1.1-9.6c-0.1-0.5-0.1-0.7-0.1-1
			c0-0.2,0-0.4,0.1-0.6C19.6,9.2,20.2,8,20.4,8c0.1,0,0.1,0.1,0.2,0.3c0.1,0.9,0.1,1.5,0.2,3.2c0.2,1.8,0.4,4.3,0.7,6.8
			c0.3,2,1.4,3.2,2.7,3.2h0.3c0.7,0,1,0.4,1,1.1c0,0.8-0.3,1.2-1,1.2h-0.3c-0.9-0.1-1.8-0.6-2.2-1.5c0.1,1,0.1,1.7,0.1,2.2
			c0,2-0.4,2.7-0.9,3.5c-0.5,0.7-2.5,3-6.2,3c-3.9,0-5-2.1-5-4.1c0-1.4,0.5-3,1.1-4.2c0.3-0.6,0.6-0.8,0.8-0.8
			c0.1,0,0.1,0.1,0.1,0.2c0,0.2-0.1,0.4-0.3,0.8c-0.3,0.7-0.7,1.7-0.7,2.5C10.9,27.8,13.3,28.7,15.3,28.7z"/>
		<path class="st1" d="M28.2,22.3c-0.4,0.6-1.2,1.1-2.6,1.3c-0.4,0.1-0.9,0.1-1.4,0.1c-0.6,0-1-0.6-1-1.1s0.3-1.1,1-1.1h0.5
			c1,0,2.6,0,3.2-0.6c-0.1-0.9-0.8-2-1.1-2.4c0,0,0,0,0-0.1c0-0.4,0.7-1.8,0.7-1.9c0-0.1,0.1-0.1,0.1-0.1c0.3,0,1.1,1.6,1.1,3.5
			C28.8,20.6,28.7,21.6,28.2,22.3z M28.7,24.9c0.2-0.2,0.2-0.2,0.3-0.1c0.5,0.5,1,1.1,1.5,1.4c0.2,0.1,0.2,0.2,0,0.3
			c-0.5,0.5-0.9,1-1.3,1.5c-0.1,0.1-0.2,0.1-0.3,0c-0.4-0.3-0.9-0.7-1.4-1.2c-0.3,0.3-0.9,1-1.1,1.2c-0.1,0.1-0.2,0.2-0.4,0
			c-0.5-0.3-1.1-0.9-1.5-1.4c-0.1-0.1-0.1-0.2,0-0.3c0.4-0.5,0.9-1,1.4-1.5c0.1-0.1,0.2-0.1,0.3,0.1c0.4,0.4,1,1,1.4,1.2
			C27.9,25.7,28.5,25.1,28.7,24.9z"/>
		<path class="st1" d="M30.4,29.7C30,29.5,30,29.4,30,29.3c0-0.1,0.2-0.2,0.4-0.2c0.3,0,1.1,0.2,1.8,0.2c0.6,0,1.2-0.2,2.1-0.6
			c2.4-1.2,3.9-3,3.9-4.2c0-0.2,0-0.3-0.1-0.7h-0.7c-0.5,0-1.5-0.1-2.2-0.5c-0.7-0.4-1-0.9-1-1.5c0-0.6,0.3-1.4,0.6-2.2
			c0.6-1.3,1.2-2.2,1.9-2.2c0.7,0,1.3,0.5,1.8,1.1c0.5,0.7,0.7,1.8,0.7,2.8h1c0.6,0,0.9,0.3,0.9,1c0,0.8-0.3,1.2-0.9,1.2l-1.1,0.1
			c-0.2,3.5-1.3,5.8-4.1,6.9c-0.2,0.1-0.4,0.1-0.6,0.1C33.4,30.7,31.7,30.3,30.4,29.7z M36.6,20c-0.1-0.1-0.3-0.2-0.6-0.2
			c-0.5,0-0.8,0.5-0.8,0.8c0,0.2,0.2,0.5,0.8,0.7c0.4,0.2,0.9,0.2,1.1,0.2c0.2,0,0.2,0,0.2-0.1C37.5,21.1,37.1,20.4,36.6,20z"/>
		<path class="st1" d="M46,9.6c0.7,0,1.7,1,1.7,2.1c0,0.4-0.1,0.8-0.2,1.2c-0.3,0.8-0.9,1.3-1.8,1.3c-0.8,0-1.3-0.6-1.3-1.3
			C44.3,11.8,45.4,9.6,46,9.6z M45.7,11.2c-0.3,0-0.7,0.6-0.7,1c0,0.3,0.4,0.6,0.8,0.6c0.5,0,1.1-0.3,1.1-0.5
			C46.9,12,46.3,11.2,45.7,11.2z"/>
		<path class="st1" d="M53.1,20.3c0,0-0.1,0.1-0.1,0.1c-0.2,0-0.3,0-0.4,0c-0.5,0-0.8,0-1.5-0.1c0,0.4,0.3,0.6,0.9,0.8
			c0.6,0.2,1.2,0.3,1.9,0.3h1.1c0.8,0,1.1,0.4,1.1,1.1c0,0.8-0.4,1.2-1.1,1.2h-1c-1.3,0-2.3-0.3-2.7-0.8c-0.5-0.5-0.7-1.4-0.7-2.6
			c-1.3,0-1.8,0.1-2.4,0.4c-0.4,0.2-0.9,0.3-2,0.9c-1.6,0.8-2.8,1.4-3.5,1.6c-0.8,0.3-1.7,0.5-2.6,0.5h-0.3c-0.7,0-1.1-0.4-1.1-1.2
			c0-0.7,0.4-1.1,1.1-1.1H40c1.4,0,2.5-0.1,3.4-0.4c1-0.3,2.3-0.7,3.9-1.4c-1.9-0.5-3.5-1.2-4.5-1.2c-0.2,0-0.4,0-0.6,0.1
			c-0.2,0.1-0.6,0.3-0.8,0.3c-0.1,0-0.2-0.1-0.2-0.2c0-0.4,0.4-1.1,1.2-1.8c0.5-0.4,1-0.6,1.4-0.6c0.2,0,0.3,0,0.5,0.1
			c1.8,0.4,4.1,1.4,6,1.8c1.3,0.3,2.6,0.4,3.4,0.4c0.2,0,0.3,0,0.5,0c0.1,0,0.1,0.1,0.1,0.1C54.2,18.8,53.5,19.9,53.1,20.3z"/>
		<path class="st1" d="M56.1,11.5c-0.7,0-1.1-0.7-1.1-1.5c0-0.2,0-0.5,0.1-0.8c0.1-0.2,0.2-0.8,0.5-0.8c0.1,0,0.2,0.2,0.2,0.6v0.3
			c0,0.3,0.2,0.5,0.6,0.5h0c0.5,0,0.8-0.3,0.9-1c0.1-0.3,0.2-1.1,0.6-1.1c0.1,0,0.2,0.2,0.2,0.5c0,0.2,0.1,0.3,0.4,0.3
			c0.5,0,0.8-0.3,0.9-0.8c0.1-0.7,0.2-0.8,0.4-0.8c0.2,0,0.3,0.7,0.3,1.1c0,0.3,0,0.6-0.2,1c-0.2,0.7-0.7,1.2-1.5,1.2
			c-0.2,0-0.4-0.1-0.5-0.1c-0.1-0.1-0.1,0-0.2,0.1C57.4,10.9,56.9,11.5,56.1,11.5z M60,4.6C60.1,4.5,60.1,4.6,60,4.6
			c0,0.5-0.2,0.9-0.4,1.2c-0.1,0.1-0.2,0.2-0.5,0.3l-4,1.9c0,0-0.1,0-0.1-0.1c0-0.2,0.1-0.5,0.2-0.7c0.2-0.3,0.2-0.4,0.3-0.5
			c0.1-0.1,0.2-0.1,0.3-0.2L60,4.6z"/>
		<path class="st1" d="M59.4,20.1c0,0.6,0.6,1.2,1.4,1.4c0.2,0,0.3,0,0.5,0h0.1c0.9,0,0.9,0.7,0.9,1c0,0.3,0,1.3-0.8,1.3h-0.2
			c-0.2,0-0.3,0-0.6,0c-1.5-0.2-2.1-1.5-2.2-1.7c-0.2,0.6-1.5,1.7-3.7,1.7h-0.1c-0.6,0-1-0.6-1-1.1s0.3-1.1,1-1.1h0.7
			c1,0,2.4-0.2,3.3-1.6c0.3-0.5,0.4-0.5,0.5-0.5C59.3,19.3,59.4,19.5,59.4,20.1z M59.2,13.2c0.2-0.2,0.2-0.2,0.3-0.1
			c0.5,0.5,1,1.1,1.5,1.4c0.2,0.1,0.2,0.2,0,0.3c-0.5,0.5-0.9,1-1.3,1.5c-0.1,0.1-0.2,0.1-0.3,0c-0.4-0.3-0.9-0.7-1.4-1.2
			c-0.3,0.3-0.9,1-1.1,1.2c-0.1,0.1-0.2,0.2-0.4,0c-0.5-0.3-1.1-0.9-1.5-1.4c-0.1-0.1-0.1-0.2,0-0.3c0.4-0.5,0.9-1,1.4-1.5
			c0.1-0.1,0.2-0.1,0.3,0.1c0.4,0.4,1,1,1.4,1.2C58.4,14.1,59,13.5,59.2,13.2z"/>
		<path class="st1" d="M63.8,22.7c-0.5,0.7-1.2,1-2.3,1h-0.2c-0.7,0-1-0.4-1-1.2c0-0.7,0.3-1.1,1-1.1h0.2c0.5,0,1-0.1,1.5-0.2
			c0.4-0.1,0.6-0.3,0.7-0.4c0-1.7-0.6-5.4-0.9-8.9c0-0.4-0.3-1.6-0.4-2.1c0-0.1,0-0.2,0-0.2c0-0.3,0.3-0.9,0.5-1.3
			c0.3-0.5,0.5-0.9,0.7-0.9c0.1,0,0.1,0.1,0.2,0.2c0.3,1,0.6,1.5,0.8,1.8c0.1,0.1,0.1,0.2,0.1,0.3c0,0,0,0.1,0,0.1
			c-0.1,0.2-0.4,0.8-0.6,1.1c0.2,3.4,0.7,6.2,0.7,7.8C64.8,20.3,64.4,21.7,63.8,22.7z"/>
		<path class="st1" d="M69.4,23.7c-0.1,0-0.2-0.2-0.2-0.7c0-3-1.1-11.3-1.1-12.7c0-0.7,0.5-1.7,0.9-2.5c0.1-0.2,0.3-0.5,0.5-0.5
			c0.1,0,0.2,0.2,0.2,0.8c0.1,2.2,0.7,7.3,0.7,11c0,1.5-0.1,2.7-0.4,3.5C69.7,23.3,69.5,23.7,69.4,23.7z"/>
	</g>
	<g>
		<g>
			<circle class="st2" cx="193" cy="18.9" r="9.1"/>
		</g>
		<g>
			<linearGradient id="SVGID_1_" gradientUnits="userSpaceOnUse" x1="193.0195" y1="28.0703" x2="193.0195" y2="15.3311">
				<stop  offset="0" style="stop-color:#BF780A;stop-opacity:0"/>
				<stop  offset="0.1413" style="stop-color:#BF780A;stop-opacity:0.1413"/>
				<stop  offset="1" style="stop-color:#BF780A"/>
			</linearGradient>
			<path class="st3" d="M193,21.2c-4.8,0-8.8-1.1-9.1-5.9c0,0.2,0,3.4,0,3.6c0,5,4.1,9.1,9.1,9.1c5.1,0,9.1-4.1,9.1-9.1
				c0-0.2,0-3.4,0-3.6C201.8,20.1,197.9,21.2,193,21.2z"/>
		</g>
		<g>
			<ellipse class="st4" cx="193" cy="14.8" rx="6.6" ry="4.7"/>
		</g>
		<ellipse class="st5" cx="192.8" cy="10.9" rx="1.3" ry="0.8"/>
		<g>
			<circle class="st6" cx="193" cy="19" r="5.6"/>
			<circle class="st6" cx="193" cy="17.8" r="5.6"/>
			<linearGradient id="SVGID_2_" gradientUnits="userSpaceOnUse" x1="193.0205" y1="23.3804" x2="193.0205" y2="12.2647">
				<stop  offset="0" style="stop-color:#509B7E"/>
				<stop  offset="0.2754" style="stop-color:#2F7F7A"/>
				<stop  offset="0.5528" style="stop-color:#156A77"/>
				<stop  offset="0.8029" style="stop-color:#055D76"/>
				<stop  offset="1" style="stop-color:#005875"/>
			</linearGradient>
			<circle class="st7" cx="193" cy="17.8" r="5.6"/>
			<linearGradient id="SVGID_3_" gradientUnits="userSpaceOnUse" x1="193.0205" y1="18.803" x2="193.0205" y2="13.2451">
				<stop  offset="0" style="stop-color:#FFCC8B;stop-opacity:0"/>
				<stop  offset="1" style="stop-color:#FFCC8B"/>
			</linearGradient>
			<circle class="st8" cx="193" cy="16" r="2.8"/>
			<linearGradient id="SVGID_4_" gradientUnits="userSpaceOnUse" x1="193.0205" y1="18.803" x2="193.0205" y2="13.2451">
				<stop  offset="0" style="stop-color:#FFCC8B;stop-opacity:0"/>
				<stop  offset="1" style="stop-color:#FFCC8B"/>
			</linearGradient>
			<circle class="st9" cx="193" cy="16" r="2.8"/>
		</g>
		<ellipse class="st1" cx="192.9" cy="14.5" rx="1.2" ry="0.8"/>
	</g>
</g>
</svg>
