<?xml version="1.0" encoding="utf-8"?>
<!-- Generator: Adobe Illustrator 19.2.0, SVG Export Plug-In . SVG Version: 6.00 Build 0)  -->
<svg version="1.1" id="Layer_1" xmlns="http://www.w3.org/2000/svg" xmlns:xlink="http://www.w3.org/1999/xlink" x="0px" y="0px"
	 viewBox="0 0 398.7 46.9" style="enable-background:new 0 0 398.7 46.9;" xml:space="preserve">
<style type="text/css">
	.st0{fill:#003E4E;}
	.st1{fill:#F5712E;}
	.st2{fill:none;}
</style>
<g>
	<path d="M94.8,38.5c0,0.1-0.1,0.1-0.3,0.2c-0.6,0-1.4-0.5-2.5-1.5c-0.8-0.7-1.5-1.4-2-2.2c-1.1-1.5-2.1-3.2-2.8-5
		c-1.8,0-2.7-0.2-2.8-0.7c0.5-0.4,0.9-0.9,1.2-1.3c0.4-0.5,0.6-1.1,0.6-1.6c-0.4,0-0.9,0.2-1.5,0.7c-0.1,0.1-0.6,0.5-1.3,1.2
		c-0.2,0-0.3-0.2-0.4-0.6c-0.1-0.4-0.2-0.9-0.3-1.6c-0.4-0.2-0.8-0.4-1.1-0.7c-0.3-0.2-0.4-0.4-0.4-0.6c0-0.3,0.2-0.6,0.6-0.9
		c0.2-0.2,0.5-0.4,0.8-0.5c0-0.5,0.1-1,0.2-1.5c0.1-0.4,0.3-0.6,0.5-0.6c0.6,0.6,1,1,1.4,1.2c0.6,0.4,1.1,0.6,1.7,0.7
		c0-0.5-0.3-1.1-0.7-1.6c-0.4-0.4-0.8-0.9-1.3-1.3c0-0.2,0.4-0.4,1.3-0.6c0.6-0.1,1.2-0.2,1.6-0.2c1.2-3.6,3-6.3,5.3-8.1
		c0.8-0.6,1.3-0.9,1.6-0.9c0.2,0,0.3,0.1,0.3,0.3c0,0.1-0.3,0.5-1,1.2c-1.9,2.2-3.1,4.8-3.6,7.7c0.6,0.1,1,0.2,1.1,0.3
		c0.2,0.1,0.2,0.2,0.2,0.3c-0.5,0.5-0.9,0.9-1.2,1.3c-0.4,0.5-0.6,1.1-0.6,1.7c0.5,0,1-0.2,1.5-0.6c0.3-0.3,0.8-0.8,1.3-1.4
		c0.2,0,0.4,0.3,0.6,1c0.1,0.5,0.2,0.9,0.2,1.2c0.9,0.4,1.4,0.9,1.4,1.3c0,0.3-0.4,0.8-1.3,1.3c0,0.8-0.1,1.4-0.3,1.8
		c-0.1,0.2-0.3,0.3-0.5,0.4c-1-1.1-2-1.8-3-1.9c0,0.5,0.2,1,0.7,1.7c0.2,0.2,0.6,0.7,1.3,1.4c0,0.1-0.1,0.2-0.2,0.3
		c-0.2,0.1-0.6,0.2-1.2,0.3c0.3,1.4,0.8,2.9,1.7,4.4c0.9,1.5,1.9,2.8,3,3.7C94.7,38.2,94.8,38.3,94.8,38.5z M85.7,25.7
		c-0.3-0.1-0.6-0.2-1.1-0.4c-0.1,0-0.3-0.2-0.7-0.3c-0.4-0.2-0.6-0.3-0.6-0.3c0-0.1,0.4-0.2,1.3-0.5c0.2-0.1,0.5-0.2,0.9-0.4
		c-0.5-0.2-1-0.4-1.3-0.7c-0.2-0.2-0.5-0.5-0.9-0.8c-0.1,0-0.1,0.1-0.2,0.4c0,0.2,0,0.6,0,1.1c-0.8,0.5-1.2,0.8-1.2,1
		c0,0.1,0.1,0.2,0.4,0.4c0.2,0.1,0.5,0.3,0.9,0.4c0,0.2,0,0.5,0.1,0.9c0.1,0.5,0.2,0.8,0.2,0.8l1-0.9C84.9,26.1,85.3,25.8,85.7,25.7
		z M93.2,11.4c-2.4,1.6-4.3,4.5-5.7,8.6c-1,0-1.6,0-1.8,0.1c-0.2,0-0.4,0.1-0.4,0.2c0.7,0.6,1.2,1.2,1.6,1.9
		c0.2-0.4,0.4-0.7,0.5-0.8c0.1-0.3,0.3-0.6,0.5-0.9c0,0,0.1,0.1,0.1,0.4c0,0.3,0.1,0.4,0.1,0.5c0.1,0.1,0.3,0.4,0.6,0.9
		c0.2-0.5,0.4-0.8,0.7-1.2c0.2-0.2,0.4-0.5,0.8-0.8c0-0.1-0.1-0.2-0.4-0.2c-0.1,0-0.4,0-0.6-0.1c0.4-1.6,0.7-2.7,0.8-3.2
		C90.6,15.1,91.7,13.3,93.2,11.4z M93.8,37.9c-1-0.9-1.9-2-2.7-3.4c-0.9-1.6-1.5-3.3-1.8-5.1c0.7,0,1.1-0.1,1.1-0.3
		c-0.7-0.6-1.3-1.3-1.7-2c-0.1,0.2-0.2,0.5-0.4,0.9c0,0-0.1,0.2-0.2,0.5c-0.1,0.3-0.2,0.4-0.2,0.4c-0.3,0-0.6-0.6-0.9-1.8
		c-0.3,0.5-0.5,1-0.7,1.2c-0.2,0.3-0.5,0.5-0.8,0.8c0,0,0.2,0.1,0.4,0.1c0.2,0,0.5,0.1,0.9,0.1c0.2,0,0.4,0,0.5,0c0.2,0,0.3,0,0.5,0
		C88.9,33.2,90.9,36.1,93.8,37.9z M89.6,24.8c0-0.5-0.2-0.9-0.5-1.2c-0.3-0.3-0.8-0.5-1.2-0.5c-0.5,0-0.9,0.2-1.2,0.5
		c-0.3,0.3-0.5,0.7-0.5,1.2c0,0.4,0.2,0.8,0.5,1.2c0.4,0.3,0.8,0.5,1.2,0.5c0.5,0,0.9-0.2,1.2-0.5C89.4,25.6,89.6,25.2,89.6,24.8z
		 M93.7,24.6c0-0.2-0.4-0.5-1.2-0.8c0-0.5,0-0.9-0.1-1.2c-0.1-0.3-0.1-0.5-0.2-0.5c-0.1,0.1-0.4,0.4-1,0.9c-0.4,0.3-0.8,0.6-1.2,0.7
		c0.1,0,0.6,0.2,1.4,0.5c0.5,0.2,0.8,0.3,0.8,0.5c0,0.1-0.3,0.3-0.8,0.4c-0.5,0.1-0.9,0.3-1.4,0.4c0.4,0.1,0.8,0.4,1.3,0.7
		c0.2,0.2,0.5,0.5,0.9,0.8c0.2,0,0.2-0.5,0.2-1.6C93.3,25.1,93.7,24.8,93.7,24.6z"/>
	<path class="st0" d="M108.4,32.8c-0.8,0.2-1.5,0.5-2.3,0.7c-0.7,0.3-1.5,0.5-2.1,0.7c-0.1,0-0.2,0-0.1-0.1l0.5-0.9
		c0,0,0-0.1,0.1-0.1c0,0,0.1,0,0.1-0.1c0.2-0.1,0.5-0.2,0.8-0.3c0.3-0.1,0.7-0.2,1.1-0.4c0.4-0.1,0.8-0.3,1.2-0.4
		c0.4-0.1,0.8-0.3,1.2-0.4c0.1,0,0.1,0,0.1,0c0,0,0,0,0,0.1l-0.5,0.9C108.5,32.7,108.5,32.8,108.4,32.8
		C108.4,32.8,108.4,32.8,108.4,32.8z"/>
	<path class="st0" d="M104.1,29.2c0.1-0.1,0.1-0.1,0.3-0.2c0.1-0.1,0.2-0.1,0.4-0.2c0.1-0.1,0.3-0.1,0.4-0.2
		c0.1-0.1,0.2-0.1,0.3-0.1c-0.3-0.2-0.5-0.4-0.7-0.7c-0.2-0.2-0.3-0.5-0.4-0.8c-0.1-0.3-0.1-0.6,0.1-0.9c0.1-0.3,0.3-0.5,0.6-0.8
		c0.2-0.3,0.5-0.5,0.7-0.7s0.6-0.4,0.9-0.5s0.6-0.2,0.9-0.2c0.1,0,0.3,0,0.4,0.1c0.1,0.1,0.2,0.2,0.3,0.3c0.1,0.1,0.2,0.2,0.2,0.4
		c0.1,0.1,0.1,0.2,0.1,0.3c0.1,0.1,0.1,0.3,0,0.5c0,0.2-0.1,0.3-0.2,0.5c-0.1,0.1-0.2,0.3-0.3,0.4c-0.1,0.1-0.2,0.1-0.3,0.1
		c-0.1,0-0.1,0-0.1-0.1c0,0-0.1-0.1-0.1-0.2c0-0.1,0-0.1-0.1-0.2c0-0.1,0-0.1-0.1-0.2c-0.1-0.1-0.2-0.3-0.3-0.4
		c-0.1-0.1-0.3-0.1-0.4-0.1c-0.3,0-0.5,0.1-0.7,0.1c-0.2,0.1-0.4,0.2-0.6,0.4c0.1,0.4,0.4,0.7,0.7,1.1c0.2,0.2,0.3,0.3,0.5,0.4
		c0.2,0.1,0.4,0.2,0.6,0.2c0.5,0.1,1,0.1,1.5,0c0.5-0.1,1-0.2,1.5-0.3c0,0-0.1,0.3-0.3,0.7c-0.2,0.5-0.3,0.7-0.3,0.7
		c-0.8,0.1-1.5,0.2-2.2,0.4c-0.7,0.2-1.4,0.5-2.2,0.8c-0.3,0.1-0.6,0.2-0.8,0.4c-0.3,0.1-0.5,0.2-0.7,0.3c0,0-0.1,0-0.1,0
		c0,0-0.1-0.1-0.1-0.1c0-0.2,0.1-0.4,0.2-0.6C103.9,29.6,104,29.4,104.1,29.2z"/>
	<path class="st0" d="M122.8,10.4c-0.4,0.2-0.8,0.4-1.2,0.6c-0.4,0.2-0.8,0.4-1.2,0.6c-0.4,0.2-0.8,0.3-1.1,0.5
		c-0.3,0.2-0.6,0.3-0.9,0.4c-0.1,0-0.1,0-0.1,0c0,0,0-0.1,0-0.1l0.6-1.1c0-0.1,0.1-0.1,0.1-0.1c0,0,0.1-0.1,0.1-0.1l4.3-1.9
		c0.1-0.1,0.2,0,0.1,0.1l-0.5,1.1C122.9,10.3,122.8,10.4,122.8,10.4z"/>
	<path class="st0" d="M120,25c0.3-0.7,0.5-1.5,0.6-2.2s0.2-1.5,0.2-2.3c0.1-1.7,0-3.3-0.1-4.6c0-0.2-0.1-0.4-0.2-0.5
		c-0.1-0.1-0.2-0.3-0.3-0.5l1-1.5c0-0.1,0.1-0.1,0.1-0.1c0,0,0.1,0,0.1,0.1c0.1,0.4,0.2,0.8,0.4,1.3s0.4,0.8,0.7,1
		c0,0.1-0.1,0.2-0.2,0.3c-0.1,0.1-0.2,0.2-0.2,0.3c-0.1,0.1-0.1,0.2-0.2,0.4c-0.1,0.1-0.1,0.3-0.1,0.4c0,0.8,0,1.5,0,2.3
		c0,0.8-0.1,1.6-0.2,2.3c-0.1,0.8-0.3,1.5-0.4,2.2c-0.2,0.7-0.4,1.3-0.7,1.9c0.2,0.4,0.4,0.9,0.6,1.4c0.2,0.5,0.3,1,0.4,1.5
		c0,0.3,0,0.6-0.1,1c-0.1,0.3-0.2,0.6-0.4,0.9c-0.3,0.1-0.6,0.1-1,0.2c-0.4,0.1-0.8,0.1-1.3,0.2c-0.5,0-0.9,0.1-1.4,0.1
		c-0.4,0-0.8,0.1-1.2,0.1c-0.1,0,0-0.3,0-0.7c0.1-0.4,0.1-0.7,0.2-0.9c0-0.1,0.1-0.2,0.2-0.2c0.2,0,0.4,0,0.6-0.1
		c0.1-0.1,0.2-0.1,0.3-0.2c0.1-0.1,0.2-0.3,0.4-0.5c0.2-0.2,0.4-0.5,0.6-0.7c0.2-0.3,0.4-0.6,0.6-0.9c0.2-0.3,0.4-0.6,0.5-0.8
		c-0.4-0.6-0.8-1.2-1.2-1.9c-0.4-0.7-0.9-1.3-1.4-1.9c-0.5-0.6-1-1.2-1.5-1.8c-0.5-0.6-1-1.1-1.6-1.6c-0.2,0.1-0.4,0.2-0.7,0.2
		c-0.2,0-0.4-0.1-0.6-0.2c-0.2-0.1-0.5-0.2-0.7-0.4c-0.2-0.2-0.4-0.3-0.6-0.5c-0.2-0.2-0.2-0.4-0.3-0.6c0-0.4,0-0.8,0.1-1.1
		c0-0.4,0.1-0.7,0.1-0.8c0-0.2,0.1-0.3,0.2-0.3c0.1,0,0.2,0,0.4,0.1c0.8,0.5,1.6,1.2,2.3,2c0.8,0.8,1.5,1.6,2.2,2.5
		c0.7,0.9,1.4,1.8,2,2.7C118.9,23.4,119.5,24.2,120,25z M120.8,28.9c0-0.1,0-0.2-0.1-0.4c-0.1-0.2-0.1-0.4-0.2-0.6
		c-0.1-0.2-0.2-0.4-0.3-0.6c-0.1-0.2-0.2-0.3-0.2-0.4c-0.1,0.2-0.2,0.4-0.4,0.6c-0.1,0.2-0.3,0.4-0.4,0.6c-0.1,0.2-0.3,0.4-0.4,0.6
		c-0.1,0.2-0.3,0.4-0.4,0.5c0.2,0,0.4,0,0.6,0c0.2,0,0.4,0,0.6-0.1c0.2,0,0.4-0.1,0.6-0.1C120.4,29,120.6,29,120.8,28.9z"/>
	<path class="st0" d="M126.7,17.7c0.3-0.1,0.5-0.3,0.8-0.4c0.3-0.1,0.5-0.3,0.7-0.5c0.2-0.2,0.5-0.4,0.7-0.6
		c0.2-0.2,0.5-0.4,0.7-0.7c-0.2-0.1-0.4-0.2-0.7-0.3c-0.2-0.1-0.4-0.3-0.6-0.5c-0.1-0.1-0.1-0.2-0.1-0.3c0-0.1,0-0.3,0-0.4
		c0.1-0.2,0.2-0.4,0.3-0.6c0.1-0.2,0.2-0.4,0.4-0.6c0.2-0.2,0.3-0.3,0.5-0.4c0.2-0.1,0.4-0.2,0.6-0.2c0.2,0,0.4,0.1,0.5,0.3
		c0.1,0.2,0.2,0.5,0.2,0.7c0,0.3,0,0.6,0,0.8c0,0.3,0,0.5-0.1,0.6c0,0,0,0.1,0,0.1c0.1,0.1,0.2,0.1,0.2,0.2c0,0,0.1,0.1,0.1,0.2
		c0,0.1,0.1,0.3,0,0.4c0,0.2-0.1,0.3-0.1,0.4c-0.1,0.1-0.1,0.1-0.2,0.1c0,0-0.1,0-0.1-0.1c0,0-0.1-0.1-0.1-0.1c0,0-0.1-0.1-0.2-0.1
		c-0.2,0.3-0.5,0.5-0.7,0.8c-0.2,0.2-0.5,0.5-0.8,0.7c-0.3,0.2-0.6,0.4-0.9,0.5c-0.3,0.2-0.6,0.3-1,0.4c-0.1,0-0.3,0.1-0.4,0.1
		c-0.1,0-0.2,0-0.2,0c0,0,0-0.1,0.1-0.2C126.6,17.9,126.6,17.8,126.7,17.7z M129,13.8c0.2,0.2,0.4,0.4,0.6,0.5
		c0.2,0.1,0.4,0.2,0.6,0.3h0c0-0.1,0-0.1,0-0.3c0-0.1,0-0.2,0-0.3c0-0.1,0-0.2,0-0.3c0-0.1-0.1-0.2-0.1-0.3
		c-0.1-0.1-0.2-0.1-0.3-0.1c-0.1,0-0.2,0-0.3,0.1c-0.1,0-0.2,0.1-0.3,0.2C129,13.7,129,13.7,129,13.8z"/>
	<path class="st0" d="M132.2,30.3l-1.2,0c-0.3,0-0.6,0-0.9-0.1c-0.3-0.1-0.6-0.2-0.8-0.4c-0.2-0.2-0.4-0.4-0.5-0.6
		c-0.1-0.3-0.2-0.5-0.1-0.9c0-0.2,0.1-0.5,0.2-0.8c0.1-0.3,0.3-0.6,0.5-0.9c0.2-0.3,0.4-0.6,0.7-0.8c0.3-0.2,0.5-0.3,0.8-0.3
		c0.3,0,0.5,0.1,0.8,0.3c0.2,0.2,0.5,0.5,0.6,0.8s0.3,0.6,0.5,1c0.1,0.3,0.2,0.6,0.2,0.9l1.2,0h0.2c0.2,0,0.4,0.1,0.6,0.3
		c0.1,0.2,0.2,0.4,0.2,0.6s-0.1,0.4-0.2,0.6c-0.1,0.2-0.3,0.3-0.6,0.3h-0.2l-1.2,0c-0.1,0.7-0.3,1.3-0.5,1.9s-0.4,1.2-0.7,1.7
		c-0.3,0.5-0.6,1-1.1,1.4c-0.4,0.4-0.9,0.7-1.5,0.9c-0.4,0.1-0.9,0.2-1.4,0.3c-0.5,0.1-1.1,0.1-1.6,0c-0.6,0-1.1-0.1-1.7-0.1
		s-1-0.2-1.5-0.3c-0.1,0-0.2-0.1-0.2-0.1c0-0.1,0-0.1,0-0.2c0-0.1,0.1-0.1,0.2-0.2c0.1,0,0.2-0.1,0.3-0.1c0.5,0,1,0,1.5,0
		c0.5,0,1-0.1,1.5-0.1c0.5-0.1,1-0.2,1.4-0.3c0.5-0.1,0.9-0.3,1.2-0.5c0.4-0.2,0.8-0.5,1.2-0.9c0.4-0.3,0.7-0.7,1-1.1
		c0.3-0.4,0.5-0.8,0.7-1.2C131.9,31.2,132,30.8,132.2,30.3z M128,22.8c0.1-0.1,0.2-0.1,0.4-0.2c0.2-0.1,0.3-0.2,0.5-0.3
		c-0.2-0.1-0.3-0.3-0.5-0.4c-0.1-0.2-0.2-0.4-0.3-0.6c0-0.1,0-0.2,0-0.3c0-0.1,0.1-0.2,0.1-0.3c0.1-0.2,0.3-0.3,0.4-0.5
		c0.2-0.2,0.3-0.3,0.5-0.5c0.2-0.1,0.4-0.3,0.6-0.4c0.2-0.1,0.4-0.1,0.6-0.1c0.1,0,0.2,0,0.3,0.1c0.1,0.1,0.1,0.1,0.2,0.2
		c0.1,0.1,0.1,0.2,0.2,0.3c0,0.1,0.1,0.2,0.1,0.2c0,0.2,0,0.3,0,0.4l-0.2,0.4c-0.1,0.2-0.2,0.2-0.3,0.2c-0.1,0-0.1,0-0.1-0.1
		c0-0.1,0-0.2-0.1-0.3c-0.1-0.1-0.1-0.2-0.2-0.2c-0.1,0-0.2-0.1-0.3-0.1c-0.4,0-0.7,0.1-0.9,0.4c0.1,0.3,0.3,0.5,0.5,0.7
		c0.2,0.2,0.5,0.3,0.8,0.4c0.4,0,0.7,0,1.1,0c0.3-0.1,0.7-0.1,1.1-0.2c0,0,0,0.1,0,0.2c0,0.1-0.1,0.2-0.1,0.4c0,0.1-0.1,0.2-0.1,0.3
		c0,0.1-0.1,0.2-0.1,0.2c-0.3,0-0.6,0.1-0.9,0.1c-0.3,0.1-0.6,0.1-1,0.2c-0.4,0.1-0.7,0.3-1.1,0.4c-0.4,0.2-0.7,0.3-1.1,0.5
		c-0.1,0-0.1,0-0.1-0.1c0-0.1,0.1-0.3,0.2-0.4C127.8,23.1,127.9,23,128,22.8z M130.4,27.4c-0.1,0-0.2,0-0.3,0.1
		c-0.1,0.1-0.2,0.1-0.3,0.2c-0.1,0.1-0.1,0.2-0.2,0.3c-0.1,0.1-0.1,0.2-0.1,0.3c0,0.1,0.2,0.2,0.4,0.2c0.2,0.1,0.4,0.1,0.7,0.1
		c0.2,0,0.5,0,0.7,0c0.2,0,0.4,0,0.5,0c0,0,0-0.1-0.1-0.2c-0.1-0.1-0.2-0.3-0.3-0.4c-0.1-0.1-0.3-0.3-0.5-0.4
		C130.7,27.4,130.6,27.4,130.4,27.4z"/>
	<path class="st0" d="M136.2,19.2c0,0,0.1,0,0.1,0.1c0.4,0.6,0.8,1.2,0.9,1.9c0.2,0.6,0.2,1.4,0.1,2.2c0,0.2-0.1,0.4-0.1,0.6
		c-0.1,0.2-0.1,0.4-0.2,0.6c-0.1,0.2-0.2,0.4-0.3,0.5c-0.1,0.1-0.2,0.2-0.3,0.2c-0.1,0-0.1,0-0.1-0.1c0-0.1,0-0.1,0-0.2
		c0-0.1,0-0.2,0.1-0.3c0-0.1,0-0.2,0.1-0.3c0.1-0.3,0.1-0.7,0.1-1c0-0.4,0-0.7-0.1-1.1c-0.1-0.4-0.2-0.7-0.3-1.1
		c-0.2-0.3-0.3-0.7-0.6-1c0,0,0-0.1,0.1-0.2c0.1-0.1,0.1-0.2,0.2-0.4s0.1-0.2,0.2-0.3C136.1,19.2,136.2,19.2,136.2,19.2z"/>
	<path class="st0" d="M143.7,15.4c-0.4,0.2-0.8,0.4-1.2,0.6c-0.4,0.2-0.8,0.4-1.2,0.6c-0.4,0.2-0.8,0.3-1.1,0.5
		c-0.3,0.2-0.6,0.3-0.9,0.4c-0.1,0-0.1,0-0.1,0c0,0,0-0.1,0-0.1l0.6-1.1c0-0.1,0.1-0.1,0.1-0.1c0,0,0.1-0.1,0.1-0.1l4.3-1.9
		c0.1-0.1,0.2,0,0.1,0.1l-0.5,1.1C143.9,15.3,143.8,15.4,143.7,15.4z"/>
	<path class="st0" d="M140.9,22.9c-0.1,0-0.1-0.1-0.2-0.1c0,0-0.1-0.1-0.2-0.2c0,0-0.1-0.1-0.1-0.2c0-0.3,0.1-0.6,0.1-0.8
		s0.1-0.5,0.1-0.8c0-0.1,0.1-0.2,0.2-0.3c0.1,0,0.2,0,0.4,0c0.3,0.2,0.7,0.3,1.1,0.6c0.4,0.2,0.8,0.5,1.3,0.7
		c0.4,0.3,0.8,0.6,1.3,0.9c0.4,0.3,0.8,0.6,1.1,1c0.3,0.3,0.6,0.7,0.9,1.1c0.2,0.4,0.4,0.7,0.4,1.1c0,0.3,0.1,0.6,0.1,0.8
		c0,0.3,0,0.5-0.1,0.8s-0.2,0.5-0.3,0.7c-0.1,0.2-0.3,0.4-0.6,0.6c-0.2,0.1-0.3,0.2-0.5,0.2c-0.1,0-0.3,0-0.5,0
		c-0.2,0-0.5-0.1-0.8-0.1c-0.3-0.1-0.6-0.1-0.9-0.2c-0.3-0.1-0.7-0.1-1-0.2c-0.3-0.1-0.7-0.1-1-0.2c-0.7,0.5-1.5,0.9-2.2,1.1
		c-0.7,0.3-1.4,0.5-2.1,0.6c-0.6,0.1-1.3,0.2-1.8,0.3c-0.6,0-1.1,0.1-1.5,0.1H134c-0.2,0-0.3,0-0.4-0.1c-0.1-0.1-0.2-0.2-0.2-0.3
		c-0.1-0.1-0.1-0.3-0.1-0.4c0-0.2,0-0.3,0.1-0.4c0.1-0.1,0.1-0.3,0.2-0.3c0.1-0.1,0.2-0.1,0.4-0.1h0.2c0.1,0,0.2,0,0.5,0
		c0.2,0,0.5,0,0.8,0c0.3,0,0.7,0,1.1-0.1c0.4,0,0.8-0.1,1.2-0.1c0.4-0.1,0.8-0.1,1.2-0.2c0.4-0.1,0.7-0.2,1.1-0.3
		c-0.2-0.2-0.3-0.4-0.4-0.6s-0.1-0.5-0.1-0.8c0-0.3,0.1-0.6,0.2-0.9c0.1-0.3,0.2-0.6,0.3-0.9s0.3-0.6,0.4-0.8
		C140.6,23.3,140.8,23.1,140.9,22.9z M141.9,26.5c0.1,0,0.2-0.1,0.4-0.1c0.2-0.1,0.3-0.2,0.5-0.3c0.1-0.1,0.3-0.2,0.4-0.3
		c0.1-0.1,0.1-0.2,0.1-0.2c0-0.2,0-0.3-0.1-0.5c-0.1-0.2-0.2-0.4-0.4-0.6c-0.2-0.2-0.3-0.3-0.5-0.4s-0.3-0.2-0.5-0.2
		c-0.1,0-0.3,0.1-0.4,0.2c-0.2,0.1-0.3,0.3-0.5,0.4c-0.1,0.2-0.3,0.4-0.4,0.6c-0.1,0.2-0.2,0.4-0.2,0.6c0,0.1,0.1,0.3,0.2,0.4
		c0.1,0.1,0.3,0.2,0.4,0.3c0.2,0.1,0.3,0.1,0.5,0.2C141.7,26.5,141.8,26.5,141.9,26.5z M146.6,26.9c0-0.2-0.1-0.5-0.3-0.7
		s-0.5-0.5-0.7-0.8c-0.3-0.3-0.6-0.5-0.9-0.7c-0.3-0.2-0.5-0.4-0.7-0.5c-0.1-0.1-0.2,0-0.2,0.1c0.1,0.4,0.1,0.8,0.1,1.2
		c0,0.4-0.2,0.8-0.3,1.1c0,0.1,0,0.1,0,0.1c0.2,0,0.4,0.1,0.6,0.2c0.2,0.1,0.5,0.1,0.7,0.2c0.3,0,0.5,0.1,0.7,0.1c0.2,0,0.5,0,0.6,0
		C146.5,27.1,146.6,27,146.6,26.9z"/>
	<path class="st0" d="M159.4,32.8c-0.8,0.2-1.5,0.5-2.3,0.7s-1.5,0.5-2.1,0.7c-0.1,0-0.2,0-0.1-0.1l0.5-0.9c0,0,0-0.1,0.1-0.1
		c0,0,0.1,0,0.1-0.1c0.2-0.1,0.5-0.2,0.8-0.3c0.3-0.1,0.7-0.2,1.1-0.4c0.4-0.1,0.8-0.3,1.2-0.4c0.4-0.1,0.8-0.3,1.2-0.4
		c0.1,0,0.1,0,0.1,0s0,0,0,0.1l-0.5,0.9C159.5,32.7,159.5,32.8,159.4,32.8C159.5,32.8,159.4,32.8,159.4,32.8z"/>
	<path class="st0" d="M155.2,29.2c0.1-0.1,0.1-0.1,0.3-0.2c0.1-0.1,0.2-0.1,0.4-0.2c0.1-0.1,0.3-0.1,0.4-0.2
		c0.1-0.1,0.2-0.1,0.3-0.1c-0.3-0.2-0.5-0.4-0.7-0.7c-0.2-0.2-0.3-0.5-0.4-0.8c-0.1-0.3-0.1-0.6,0.1-0.9c0.1-0.3,0.3-0.5,0.6-0.8
		c0.2-0.3,0.5-0.5,0.7-0.7c0.3-0.2,0.6-0.4,0.9-0.5c0.3-0.1,0.6-0.2,0.9-0.2c0.1,0,0.3,0,0.4,0.1c0.1,0.1,0.2,0.2,0.3,0.3
		c0.1,0.1,0.2,0.2,0.2,0.4c0.1,0.1,0.1,0.2,0.1,0.3c0.1,0.1,0.1,0.3,0,0.5c0,0.2-0.1,0.3-0.2,0.5c-0.1,0.1-0.2,0.3-0.3,0.4
		c-0.1,0.1-0.2,0.1-0.3,0.1c-0.1,0-0.1,0-0.1-0.1c0,0-0.1-0.1-0.1-0.2c0-0.1,0-0.1-0.1-0.2c0-0.1,0-0.1-0.1-0.2
		c-0.1-0.1-0.2-0.3-0.3-0.4c-0.1-0.1-0.3-0.1-0.4-0.1c-0.3,0-0.5,0.1-0.7,0.1c-0.2,0.1-0.4,0.2-0.6,0.4c0.1,0.4,0.4,0.7,0.7,1.1
		c0.2,0.2,0.3,0.3,0.5,0.4c0.2,0.1,0.4,0.2,0.6,0.2c0.5,0.1,1,0.1,1.5,0c0.5-0.1,1-0.2,1.5-0.3c0,0-0.1,0.3-0.3,0.7
		c-0.2,0.5-0.3,0.7-0.3,0.7c-0.8,0.1-1.5,0.2-2.2,0.4c-0.7,0.2-1.4,0.5-2.2,0.8c-0.3,0.1-0.6,0.2-0.8,0.4c-0.3,0.1-0.5,0.2-0.7,0.3
		c0,0-0.1,0-0.1,0c0,0-0.1-0.1-0.1-0.1c0-0.2,0.1-0.4,0.2-0.6C154.9,29.6,155,29.4,155.2,29.2z"/>
	<path class="st0" d="M168.4,28.5c0.2,0,0.4,0.1,0.5,0.3c0.1,0.2,0.2,0.4,0.2,0.6c0,0.2-0.1,0.4-0.2,0.6c-0.1,0.2-0.3,0.3-0.5,0.3
		c0,0,0,0-0.1,0s-0.1,0-0.1,0c-0.7,0-1.3-0.1-1.7-0.4c-0.4-0.3-0.8-0.6-1.1-1c-0.3-0.5-0.5-1.1-0.6-1.7c-0.1-0.6-0.2-1.2-0.2-1.8
		c-0.1-0.7-0.1-1.4-0.2-2c-0.1-0.7-0.2-1.4-0.2-2c-0.1-0.7-0.2-1.4-0.3-2.1c-0.1-0.7-0.3-1.5-0.5-2.3c0-0.1,0-0.1,0-0.1
		c0,0,0-0.1,0-0.1l0.6-1.5c0-0.1,0.1-0.1,0.1-0.1c0,0,0.1,0,0.1,0.1c0.1,0.4,0.2,0.9,0.3,1.3c0.1,0.4,0.2,0.9,0.2,1.5
		c0.1,0.5,0.2,1.1,0.2,1.7c0.1,0.6,0.2,1.3,0.2,2.1c0.1,0.5,0.1,1.1,0.2,1.6c0.1,0.5,0.1,1.1,0.2,1.6c0.1,0.4,0.1,0.9,0.2,1.3
		c0.1,0.4,0.2,0.9,0.4,1.2c0.2,0.3,0.4,0.6,0.8,0.7c0.3,0.2,0.8,0.2,1.4,0.2C168.2,28.5,168.3,28.5,168.4,28.5
		C168.3,28.5,168.3,28.5,168.4,28.5z"/>
	<path class="st0" d="M174.3,18.3c-0.4,0.2-0.8,0.4-1.2,0.6c-0.4,0.2-0.8,0.4-1.2,0.6c-0.4,0.2-0.8,0.3-1.1,0.5
		c-0.3,0.2-0.6,0.3-0.9,0.4c-0.1,0-0.1,0-0.1,0c0,0,0-0.1,0-0.1l0.6-1.1c0-0.1,0.1-0.1,0.1-0.1c0,0,0.1-0.1,0.1-0.1l4.3-1.9
		c0.1-0.1,0.2,0,0.1,0.1l-0.5,1.1C174.4,18.2,174.4,18.3,174.3,18.3z"/>
	<path class="st0" d="M175.2,29.8c-0.1,0.2-0.1,0.3-0.2,0.5c-0.1,0.2-0.2,0.3-0.2,0.3c-0.3,0-0.6,0-1-0.1c-0.4-0.1-0.8-0.2-1.2-0.4
		c-0.4-0.2-0.7-0.4-1-0.6c-0.3-0.2-0.5-0.5-0.5-0.7c-0.2,0.3-0.4,0.5-0.7,0.7c-0.2,0.2-0.5,0.3-0.7,0.4c-0.3,0.1-0.5,0.2-0.7,0.2
		c-0.2,0-0.5,0.1-0.7,0.1H168c-0.3,0-0.4-0.1-0.6-0.3c-0.1-0.2-0.2-0.4-0.2-0.6c0-0.2,0.1-0.4,0.2-0.6c0.1-0.2,0.3-0.3,0.6-0.3h0.2
		c0.3,0,0.6,0,0.9,0c0.3,0,0.6-0.1,0.8-0.1c0.3-0.1,0.5-0.2,0.8-0.4c0.3-0.2,0.5-0.4,0.7-0.7c0.1-0.2,0.3-0.3,0.4-0.5
		c0.1-0.2,0.3-0.3,0.5-0.5c0.2-0.1,0.3-0.2,0.5-0.3c0.2-0.1,0.3-0.1,0.4-0.1c0.1,0,0.3,0.1,0.5,0.2c0.2,0.1,0.3,0.3,0.5,0.5
		c0.2,0.2,0.3,0.4,0.5,0.5c0.2,0.2,0.3,0.3,0.4,0.4c0.2,0.2,0.4,0.4,0.6,0.5c0.2,0.1,0.4,0.2,0.7,0.3c0.2,0.1,0.5,0.1,0.7,0.2
		c0.3,0,0.5,0,0.8,0h0.2c0.2,0,0.4,0.1,0.6,0.3c0.1,0.2,0.2,0.4,0.2,0.6c0,0.2-0.1,0.4-0.2,0.6c-0.1,0.2-0.3,0.3-0.6,0.3h-0.2
		c-0.2,0-0.5,0-0.7,0c-0.2,0-0.4,0-0.7-0.1c-0.2,0-0.4-0.1-0.6-0.2C175.6,30,175.4,29.9,175.2,29.8z M174.1,28.7
		C174.1,28.7,174.1,28.7,174.1,28.7c0.1,0,0.1-0.1,0-0.1c-0.1-0.1-0.2-0.3-0.3-0.5c-0.1-0.2-0.2-0.3-0.2-0.5
		c-0.1-0.1-0.1-0.3-0.2-0.4c0-0.1-0.1-0.2-0.1-0.3c-0.1-0.1-0.2-0.2-0.3-0.2c-0.1,0-0.3,0.1-0.5,0.2c-0.2,0.1-0.4,0.3-0.5,0.5
		c0,0.1-0.1,0.1-0.1,0.1c0,0,0,0.1,0.1,0.1c0.1,0.1,0.3,0.2,0.5,0.3c0.2,0.1,0.4,0.2,0.6,0.3c0.2,0.1,0.4,0.1,0.6,0.2
		C173.7,28.7,173.9,28.7,174.1,28.7z"/>
	<path class="st0" d="M184.8,16.8c0,0.3,0,0.5-0.1,0.8s-0.2,0.5-0.3,0.7c-0.1,0.2-0.3,0.4-0.6,0.5c-0.2,0.1-0.5,0.2-0.8,0.2
		c-0.4,0-0.7-0.1-1-0.4c-0.3-0.3-0.4-0.6-0.4-1c0-0.2,0-0.5,0.1-0.8c0.1-0.3,0.2-0.6,0.3-0.9c0.1-0.3,0.3-0.5,0.5-0.8
		c0.2-0.2,0.5-0.3,0.8-0.4c0.3,0,0.5,0,0.7,0.2c0.2,0.1,0.4,0.3,0.5,0.6c0.1,0.2,0.2,0.5,0.2,0.7C184.8,16.4,184.8,16.6,184.8,16.8z
		 M182.1,17.1c0,0.1,0,0.2,0.1,0.3c0.1,0.1,0.2,0.1,0.3,0.2c0.1,0,0.2,0.1,0.3,0.1c0.1,0,0.2,0,0.3,0c0.2,0,0.4,0,0.6-0.1
		c0.2-0.1,0.4-0.2,0.5-0.4c0-0.1,0-0.3,0-0.4c0-0.2-0.1-0.3-0.2-0.4c-0.1-0.1-0.2-0.2-0.4-0.3c-0.1-0.1-0.3-0.1-0.5-0.1
		c-0.1,0-0.2,0.1-0.4,0.2c-0.1,0.1-0.2,0.2-0.3,0.3c-0.1,0.1-0.2,0.2-0.2,0.4C182.1,16.9,182.1,17,182.1,17.1z"/>
	<path class="st0" d="M186,26.1c0.1-0.2,0.2-0.3,0.3-0.3s0.2,0.1,0.1,0.3c-0.1,0.2-0.1,0.4-0.2,0.5c-0.1,0.2-0.1,0.3-0.2,0.5
		c0.1,0.1,0.2,0.3,0.4,0.4s0.5,0.3,0.7,0.4c0.3,0.1,0.5,0.2,0.8,0.2c0.3,0,0.5,0,0.7-0.1c0-0.3,0-0.5-0.1-0.8c0-0.2-0.1-0.5-0.2-0.8
		l0.7-1.3c0,0,0,0,0.1,0c0,0,0.1,0,0.1,0.1c0.2,0.5,0.3,1,0.3,1.5c0,0.5-0.1,0.9-0.2,1.4c0,0.1-0.1,0.3-0.2,0.5
		c-0.1,0.2-0.2,0.4-0.3,0.6c-0.1,0.2-0.2,0.3-0.4,0.5c-0.1,0.1-0.3,0.2-0.5,0.2c-0.2,0-0.4,0-0.6,0c-0.2,0-0.5-0.1-0.7-0.2
		c-0.3-0.1-0.5-0.2-0.8-0.4c-0.2-0.2-0.4-0.3-0.6-0.6c-0.2,0.3-0.5,0.6-0.9,0.8c-0.4,0.2-0.8,0.4-1.2,0.4c-0.5,0.1-0.9,0.1-1.4,0
		c-0.5-0.1-0.9-0.2-1.3-0.4c-0.5,0.3-0.9,0.5-1.4,0.5c-0.4,0.1-0.9,0.1-1.3,0.1h-0.2c-0.2,0-0.4-0.1-0.5-0.3
		c-0.1-0.2-0.2-0.4-0.2-0.6c0-0.2,0.1-0.4,0.2-0.6c0.1-0.2,0.3-0.3,0.5-0.3h0.2c0.5,0,0.9,0,1.4-0.1c0.4,0,0.8-0.1,1.2-0.3
		c0.4-0.1,0.7-0.4,1-0.7c0.3-0.3,0.6-0.7,0.8-1.1c0.1-0.1,0.2-0.2,0.3-0.2c0.1,0,0.1,0.1,0.1,0.3c0,0.1-0.1,0.3-0.1,0.5
		c-0.1,0.2-0.1,0.3-0.2,0.5c-0.1,0.2-0.1,0.3-0.2,0.5c-0.1,0.2-0.2,0.3-0.3,0.4c0.2,0.1,0.5,0.1,0.8,0.1c0.3,0,0.5,0,0.8,0
		c0.4,0,0.8-0.1,1.1-0.3c0.4-0.2,0.7-0.4,0.9-0.7c0.1-0.2,0.3-0.4,0.4-0.6C185.8,26.6,185.9,26.4,186,26.1z"/>
	<path class="st0" d="M194.5,6.6c-0.4,0.2-0.8,0.4-1.2,0.6c-0.4,0.2-0.8,0.4-1.2,0.6c-0.4,0.2-0.8,0.3-1.1,0.5
		c-0.3,0.2-0.6,0.3-0.9,0.4c-0.1,0-0.1,0-0.1,0c0,0,0-0.1,0-0.1l0.6-1.1c0-0.1,0.1-0.1,0.1-0.1c0,0,0.1-0.1,0.1-0.1l4.3-1.9
		c0.1-0.1,0.2,0,0.1,0.1l-0.5,1.1C194.6,6.5,194.6,6.6,194.5,6.6z"/>
	<path class="st0" d="M191.1,13.4c0,0,0.2-0.1,0.4-0.2c0.2-0.1,0.4-0.2,0.5-0.3c-0.2-0.1-0.3-0.3-0.5-0.4c-0.1-0.2-0.3-0.4-0.4-0.6
		c-0.1-0.1-0.1-0.2,0-0.4c0-0.1,0.1-0.2,0.2-0.4c0.1-0.2,0.2-0.3,0.4-0.5c0.2-0.2,0.3-0.3,0.5-0.4c0.2-0.1,0.4-0.2,0.6-0.3
		c0.2-0.1,0.4-0.1,0.6-0.1c0.1,0,0.2,0,0.3,0.1c0.1,0.1,0.1,0.1,0.2,0.2c0.1,0.1,0.1,0.2,0.2,0.2c0,0.1,0.1,0.2,0.1,0.2
		c0.1,0.2,0.1,0.3,0,0.4c-0.1,0.3-0.2,0.4-0.3,0.5c-0.1,0.1-0.1,0.1-0.2,0.1c-0.1,0-0.1-0.1-0.1-0.1c0-0.1,0-0.2-0.1-0.3
		c0-0.1-0.1-0.2-0.2-0.2c-0.1,0-0.2-0.1-0.3-0.1c-0.4,0-0.7,0.1-1,0.4c0.1,0.3,0.3,0.5,0.5,0.7c0.2,0.2,0.5,0.3,0.8,0.4
		c0.2,0,0.4,0,0.6,0c0.2,0,0.4,0,0.5,0c0.2,0,0.4-0.1,0.5-0.1c0.2,0,0.4-0.1,0.6-0.1l-0.4,1c-0.3,0-0.6,0.1-1,0.1
		c-0.3,0.1-0.7,0.1-1,0.2c-0.4,0.1-0.7,0.2-1.1,0.4c-0.4,0.2-0.7,0.3-1.1,0.5c-0.1,0-0.1,0-0.1,0c0,0,0-0.1,0-0.1
		c0-0.1,0.1-0.2,0.1-0.4C191,13.6,191,13.5,191.1,13.4z M197,28.5c0.2,0,0.4,0.1,0.5,0.3s0.2,0.4,0.2,0.6c0,0.2-0.1,0.4-0.2,0.6
		c-0.1,0.2-0.3,0.3-0.5,0.3c0,0,0,0-0.1,0c0,0-0.1,0-0.1,0c-0.7,0-1.3-0.1-1.7-0.4c-0.5-0.3-0.8-0.6-1.1-1c-0.3-0.5-0.5-1.1-0.6-1.6
		c-0.1-0.6-0.2-1.2-0.2-1.8c-0.1-0.7-0.1-1.3-0.2-2c-0.1-0.7-0.2-1.3-0.2-2c-0.1-0.7-0.2-1.4-0.3-2.1c-0.1-0.7-0.3-1.5-0.5-2.3
		c0-0.1,0-0.1,0-0.1c0,0,0-0.1,0-0.1l0.6-1.5c0-0.1,0.1-0.1,0.1-0.1c0,0,0.1,0,0.1,0.1c0.1,0.4,0.2,0.9,0.3,1.3
		c0.1,0.4,0.2,0.9,0.2,1.4c0.1,0.5,0.2,1.1,0.2,1.7c0.1,0.6,0.2,1.3,0.2,2.1c0.1,0.5,0.1,1.1,0.2,1.6c0.1,0.5,0.1,1,0.2,1.6
		c0.1,0.4,0.1,0.8,0.2,1.3c0.1,0.4,0.2,0.8,0.4,1.2c0.2,0.3,0.4,0.6,0.8,0.7c0.3,0.2,0.8,0.2,1.4,0.2
		C196.9,28.5,196.9,28.5,197,28.5C197,28.5,197,28.5,197,28.5z"/>
	<path class="st0" d="M201.1,37.5c-0.8,0.2-1.5,0.5-2.3,0.7s-1.5,0.5-2.1,0.7c-0.1,0-0.2,0-0.1-0.1l0.5-0.9c0,0,0-0.1,0.1-0.1
		c0,0,0.1,0,0.1-0.1c0.2-0.1,0.5-0.2,0.8-0.3c0.3-0.1,0.7-0.2,1.1-0.4c0.4-0.1,0.8-0.3,1.2-0.4c0.4-0.1,0.8-0.3,1.2-0.4
		c0.1,0,0.1,0,0.1,0c0,0,0,0,0,0.1l-0.5,0.9C201.3,37.4,201.2,37.4,201.1,37.5C201.2,37.5,201.2,37.5,201.1,37.5z"/>
	<path class="st0" d="M199.9,23.9c0.2,0.2,0.4,0.5,0.6,0.7c0.2,0.3,0.3,0.5,0.5,0.8c0.1,0.3,0.3,0.6,0.3,0.9
		c0.1,0.3,0.1,0.6,0.1,0.9c0,0.1,0,0.3,0,0.4c0,0.2,0,0.3-0.1,0.5c0,0.2-0.1,0.3-0.1,0.5c-0.1,0.2-0.1,0.3-0.2,0.4
		c-0.2,0.3-0.4,0.5-0.8,0.7c-0.3,0.2-0.7,0.3-1.1,0.4c-0.4,0.1-0.8,0.1-1.2,0.2c-0.4,0-0.8,0-1.1,0h-0.2c-0.2,0-0.4-0.1-0.6-0.3
		c-0.1-0.2-0.2-0.4-0.2-0.6c0-0.2,0.1-0.4,0.2-0.6c0.1-0.2,0.3-0.3,0.6-0.3h0.2c0.4,0,0.7,0,1.1,0c0.4,0,0.7,0,1-0.1
		c0.3,0,0.6-0.1,0.9-0.1c0.3-0.1,0.5-0.1,0.6-0.2c0.1,0,0.1-0.1,0.1-0.2c0-0.1,0-0.2-0.1-0.3c-0.1-0.2-0.2-0.4-0.3-0.6
		c-0.1-0.2-0.2-0.3-0.3-0.5c-0.1-0.2-0.3-0.3-0.4-0.5c-0.1-0.1-0.3-0.3-0.4-0.4l0.4-1.6c0-0.1,0.1-0.1,0.1-0.1
		S199.8,23.9,199.9,23.9z M198.7,32.6l1.4,1.2c0.1,0.1,0.1,0.1,0,0.2l-1,1.2c-0.1,0.1-0.1,0.1-0.2,0l-1.5-1.2
		c-0.1-0.1-0.1-0.1,0-0.2l1-1.2C198.5,32.6,198.6,32.6,198.7,32.6z"/>
	<path class="st0" d="M220.9,39c-0.8,0.2-1.5,0.5-2.3,0.7c-0.7,0.3-1.5,0.5-2.1,0.7c-0.1,0-0.2,0-0.1-0.1l0.5-0.9c0,0,0-0.1,0.1-0.1
		c0,0,0.1,0,0.1-0.1c0.2-0.1,0.5-0.2,0.8-0.3c0.3-0.1,0.7-0.2,1.1-0.4c0.4-0.1,0.8-0.3,1.2-0.4c0.4-0.1,0.8-0.3,1.2-0.4
		c0.1,0,0.1,0,0.1,0c0,0,0,0,0,0.1l-0.5,0.9C221,38.9,221,38.9,220.9,39C220.9,39,220.9,39,220.9,39z"/>
	<path class="st0" d="M219.9,25.3c0-0.3-0.1-0.6-0.3-1c-0.1-0.3-0.3-0.7-0.5-1c-0.2-0.3-0.4-0.6-0.6-0.9c-0.2-0.3-0.4-0.5-0.6-0.7
		c0-0.3,0.1-0.7,0.2-1c0.1-0.3,0.2-0.7,0.3-1c0-0.1,0.1-0.1,0.1,0c0.6,0.6,1,1.2,1.4,1.8c0.4,0.6,0.6,1.3,0.8,2c0.1,0.7,0.1,1.3,0,2
		s-0.4,1.2-0.8,1.8c0.2,0,0.4,0.1,0.6,0.2c0.2,0.1,0.4,0.2,0.6,0.2c0.5,0.2,0.7,0.6,0.9,1c0.1,0.4,0.1,0.9,0,1.3
		c-0.1,0.5-0.4,0.9-0.7,1.3c-0.3,0.4-0.7,0.8-1.2,1.1c-0.4,0.3-0.9,0.7-1.5,0.9c-0.5,0.3-1.1,0.5-1.7,0.7c-0.6,0.2-1.1,0.3-1.7,0.5
		c-0.6,0.1-1.1,0.2-1.6,0.2c-0.7,0-1.3-0.1-1.9-0.3c-0.6-0.2-1.1-0.5-1.5-0.8c-0.4-0.4-0.8-0.8-1-1.4c-0.2-0.6-0.4-1.2-0.4-2
		c0-0.4,0-0.8,0.1-1.2c0.1-0.4,0.2-0.8,0.3-1.2c0.1-0.4,0.3-0.8,0.5-1.1c0.2-0.4,0.4-0.7,0.6-1c0,0,0.1-0.1,0.1-0.1
		c0,0,0.1,0,0.1,0.1c0,0,0,0.1,0.1,0.1c0,0,0,0.1,0,0.1c-0.1,0.3-0.2,0.6-0.4,0.9c-0.1,0.3-0.2,0.6-0.3,0.9c-0.1,0.3-0.2,0.6-0.2,1
		c0,0.3-0.1,0.6,0,0.9c0,0.6,0.2,1.1,0.4,1.5c0.3,0.4,0.6,0.7,1,1c0.4,0.3,0.8,0.4,1.3,0.6c0.5,0.1,1,0.2,1.4,0.2c1,0,2-0.1,3-0.4
		c0.9-0.3,1.8-0.7,2.7-1.1c0.1-0.1,0.3-0.2,0.5-0.3c0.2-0.1,0.4-0.3,0.6-0.4c0.2-0.1,0.4-0.3,0.5-0.4c0.1-0.1,0.2-0.3,0.2-0.3
		c-0.1-0.2-0.3-0.3-0.7-0.5c-0.3-0.2-0.8-0.3-1.2-0.4c-0.5-0.1-1-0.2-1.6-0.3c-0.5-0.1-1-0.1-1.6-0.2c0-0.1,0-0.2,0.1-0.3
		c0-0.1,0.1-0.3,0.1-0.4c0.1-0.1,0.1-0.3,0.2-0.4c0.1-0.1,0.1-0.2,0.2-0.2c0,0,0.1,0,0.2-0.1c0.2,0,0.3-0.1,0.6-0.2
		c0.2-0.1,0.5-0.2,0.7-0.3s0.5-0.2,0.7-0.3c0.2-0.1,0.4-0.3,0.6-0.4C219.8,25.6,219.9,25.5,219.9,25.3z M217.4,14.7l1.4,1.2
		c0.1,0.1,0.1,0.1,0,0.2l-1,1.2c-0.1,0.1-0.1,0.1-0.2,0l-1.5-1.2c-0.1-0.1-0.1-0.1,0-0.2l1-1.2C217.3,14.7,217.3,14.7,217.4,14.7z"
		/>
	<path class="st0" d="M230.1,30.3l-1.2,0c-0.3,0-0.6,0-0.9-0.1c-0.3-0.1-0.5-0.2-0.8-0.4c-0.2-0.2-0.4-0.4-0.5-0.6
		c-0.1-0.3-0.2-0.5-0.1-0.9c0-0.2,0.1-0.5,0.2-0.8c0.1-0.3,0.3-0.6,0.5-0.9c0.2-0.3,0.4-0.6,0.7-0.8c0.3-0.2,0.5-0.3,0.8-0.3
		c0.3,0,0.5,0.1,0.8,0.3c0.2,0.2,0.5,0.5,0.6,0.8c0.2,0.3,0.3,0.6,0.4,1c0.1,0.3,0.2,0.6,0.2,0.9l0.9,0h0.2c0.1,0,0.2,0,0.3,0.1
		c0.1,0.1,0.2,0.1,0.2,0.2c0.1,0.1,0.1,0.2,0.1,0.3c0,0.1,0,0.2,0,0.3c0,0.2-0.1,0.4-0.2,0.6c-0.1,0.2-0.3,0.3-0.6,0.3h-0.2l-1,0
		c-0.1,0.7-0.3,1.3-0.5,2c-0.2,0.6-0.4,1.2-0.7,1.8c-0.3,0.5-0.6,1-1,1.4c-0.4,0.4-0.9,0.7-1.5,0.9c-0.4,0.1-0.8,0.2-1.3,0.3
		c-0.5,0-1,0-1.4,0c-0.5,0-1-0.1-1.4-0.2c-0.5-0.1-0.9-0.2-1.3-0.3c-0.1,0-0.2-0.1-0.2-0.1c0-0.1,0-0.1,0-0.2c0-0.1,0.1-0.1,0.2-0.1
		c0.1,0,0.2-0.1,0.3,0c0.4,0,0.8,0,1.2,0c0.4,0,0.9-0.1,1.3-0.2c0.4-0.1,0.9-0.2,1.3-0.3c0.4-0.1,0.8-0.3,1.1-0.5
		c0.4-0.2,0.8-0.5,1.2-0.9c0.3-0.3,0.7-0.7,0.9-1.1c0.3-0.4,0.5-0.8,0.7-1.2C229.8,31.2,230,30.8,230.1,30.3z M227.5,28.2
		c0,0.1,0.2,0.2,0.4,0.2c0.2,0.1,0.4,0.1,0.6,0.1c0.2,0,0.5,0,0.7,0c0.2,0,0.4,0,0.5,0c0,0,0-0.1-0.1-0.2s-0.2-0.3-0.3-0.4
		c-0.1-0.1-0.3-0.3-0.4-0.4c-0.2-0.1-0.3-0.2-0.5-0.2c-0.1,0-0.2,0-0.3,0.1c-0.1,0.1-0.2,0.1-0.3,0.2c-0.1,0.1-0.2,0.2-0.2,0.3
		C227.5,28.1,227.5,28.1,227.5,28.2z"/>
	<path class="st0" d="M232.4,18.9c0.3-0.1,0.5-0.3,0.8-0.4c0.3-0.1,0.5-0.3,0.7-0.5c0.2-0.2,0.5-0.4,0.7-0.6
		c0.2-0.2,0.5-0.4,0.7-0.7c-0.2-0.1-0.4-0.2-0.7-0.3c-0.2-0.1-0.4-0.3-0.6-0.5c-0.1-0.1-0.1-0.2-0.1-0.3c0-0.1,0-0.3,0-0.4
		c0.1-0.2,0.2-0.4,0.3-0.6c0.1-0.2,0.2-0.4,0.4-0.6c0.2-0.2,0.3-0.3,0.5-0.4c0.2-0.1,0.4-0.2,0.6-0.2c0.2,0,0.4,0.1,0.5,0.3
		c0.1,0.2,0.2,0.5,0.2,0.7c0,0.3,0,0.6,0,0.8c0,0.3,0,0.5-0.1,0.6c0,0,0,0.1,0,0.1c0.1,0.1,0.2,0.1,0.2,0.2c0,0,0.1,0.1,0.1,0.2
		c0,0.1,0.1,0.3,0,0.4c0,0.2-0.1,0.3-0.1,0.4c-0.1,0.1-0.1,0.1-0.2,0.1c0,0-0.1,0-0.1-0.1c0,0-0.1-0.1-0.1-0.1c0,0-0.1-0.1-0.2-0.1
		c-0.2,0.3-0.5,0.5-0.7,0.8c-0.2,0.2-0.5,0.5-0.8,0.7c-0.3,0.2-0.6,0.4-0.9,0.5c-0.3,0.2-0.6,0.3-1,0.4c-0.1,0-0.3,0.1-0.4,0.1
		c-0.1,0-0.2,0-0.2,0c0,0,0-0.1,0.1-0.2C232.2,19,232.3,19,232.4,18.9z M234.6,15c0.2,0.2,0.4,0.4,0.6,0.5c0.2,0.1,0.4,0.2,0.6,0.3
		h0c0-0.1,0-0.1,0-0.3c0-0.1,0-0.2,0-0.3c0-0.1,0-0.2,0-0.3c0-0.1-0.1-0.2-0.1-0.3c-0.1-0.1-0.2-0.1-0.3-0.1c-0.1,0-0.2,0-0.3,0.1
		c-0.1,0-0.2,0.1-0.3,0.2C234.7,14.8,234.6,14.9,234.6,15z"/>
	<path class="st0" d="M241.6,28.5h0.1c0.2,0,0.4,0.1,0.5,0.3c0.1,0.2,0.2,0.4,0.2,0.6c0,0.2-0.1,0.4-0.2,0.6
		c-0.1,0.2-0.3,0.3-0.5,0.3h-0.1c-0.5,0-0.9-0.1-1.2-0.2c-0.3-0.1-0.7-0.3-0.9-0.5c-0.3-0.2-0.5-0.4-0.7-0.7c-0.2-0.3-0.4-0.6-0.5-1
		c-0.8,0.8-1.7,1.3-2.8,1.7c-1.1,0.4-2.3,0.6-3.7,0.6h-0.2c-0.2,0-0.4-0.1-0.5-0.3c-0.1-0.2-0.2-0.4-0.2-0.6c0-0.2,0.1-0.4,0.2-0.6
		c0.1-0.2,0.3-0.3,0.5-0.3h0.2c0.7,0,1.3,0,1.9-0.1c0.6,0,1.1-0.1,1.7-0.3c0.5-0.1,1-0.4,1.5-0.6c0.5-0.3,0.9-0.6,1.4-1.1
		c0.1-0.1,0.2-0.2,0.2-0.2c0-0.1,0.1-0.1,0.2-0.1c0.1,0,0.1,0,0.1,0.1c0,0.1,0.1,0.1,0.1,0.2c0.1,0.4,0.3,0.7,0.4,1
		c0.2,0.3,0.4,0.5,0.6,0.7c0.2,0.2,0.5,0.3,0.8,0.4C240.9,28.5,241.2,28.5,241.6,28.5z M233.1,24.3c0,0,0.1,0,0.1-0.1
		c0.1,0,0.2-0.1,0.3-0.2l0.5-0.2c-0.2-0.1-0.3-0.3-0.5-0.5c-0.1-0.2-0.3-0.4-0.4-0.6c0-0.1-0.1-0.3,0-0.4c0-0.1,0.1-0.2,0.2-0.4
		c0.1-0.2,0.2-0.3,0.4-0.5c0.1-0.2,0.3-0.3,0.5-0.5c0.2-0.1,0.4-0.2,0.6-0.3c0.2-0.1,0.4-0.1,0.6-0.1c0.1,0,0.2,0,0.2,0.1
		c0.1,0.1,0.1,0.1,0.2,0.2c0.1,0.1,0.1,0.2,0.2,0.2c0,0.1,0.1,0.2,0.1,0.2c0,0.2,0,0.3,0,0.4c-0.1,0.3-0.2,0.4-0.3,0.5
		s-0.1,0.1-0.2,0.1c-0.1,0-0.1-0.1-0.1-0.1c0-0.1,0-0.2-0.1-0.3c0-0.1-0.1-0.2-0.2-0.2c-0.1,0-0.2-0.1-0.3-0.1c-0.4,0-0.7,0.1-1,0.4
		c0.1,0.3,0.3,0.5,0.5,0.7c0.2,0.2,0.5,0.3,0.8,0.4c0.2,0,0.4,0,0.6,0c0.2,0,0.4,0,0.5,0c0.4-0.1,0.7-0.1,1.1-0.2l-0.4,1
		c-0.3,0-0.6,0.1-1,0.1c-0.3,0.1-0.7,0.1-1,0.2c-0.4,0.1-0.7,0.3-1.1,0.4c-0.4,0.2-0.7,0.3-1.1,0.5c-0.1,0-0.1,0-0.1,0
		c0,0,0-0.1,0-0.1c0-0.1,0.1-0.2,0.1-0.4S233,24.4,233.1,24.3z"/>
	<path class="st1" d="M246.7,37.2c-0.8,0.2-1.5,0.5-2.3,0.7s-1.5,0.5-2.1,0.7c-0.1,0-0.2,0-0.1-0.1l0.5-0.9c0,0,0-0.1,0.1-0.1
		c0,0,0.1,0,0.1-0.1c0.2-0.1,0.5-0.2,0.8-0.3c0.3-0.1,0.7-0.2,1.1-0.4c0.4-0.1,0.8-0.3,1.2-0.4c0.4-0.1,0.8-0.3,1.2-0.4
		c0.1,0,0.1,0,0.1,0c0,0,0,0,0,0.1l-0.5,0.9C246.8,37.1,246.8,37.2,246.7,37.2C246.8,37.2,246.7,37.2,246.7,37.2z"/>
	<path class="st1" d="M244.2,25.2c0-0.1,0.1-0.2,0.1-0.3c0.1-0.2,0.1-0.3,0.2-0.4c0.1-0.1,0.1-0.3,0.2-0.4c0.1-0.1,0.1-0.1,0.1-0.1
		c0.3,0.7,0.5,1.4,0.7,1.9c0.2,0.6,0.4,1,0.7,1.4c0.2,0.3,0.4,0.5,0.5,0.7c0.2,0.2,0.4,0.3,0.6,0.4c0.2,0.1,0.4,0.1,0.7,0.2
		c0.2,0,0.5,0,0.7,0h0.2c0.2,0,0.4,0.1,0.5,0.3c0.1,0.2,0.2,0.4,0.2,0.6s-0.1,0.4-0.2,0.6c-0.1,0.2-0.3,0.3-0.6,0.3h-0.2
		c-0.8,0-1.5-0.2-2.1-0.5c-0.6-0.3-1.1-0.8-1.4-1.4c-0.1,0.4-0.3,0.7-0.5,0.9c-0.2,0.2-0.5,0.4-0.8,0.6c-0.3,0.2-0.7,0.3-1,0.3
		c-0.4,0.1-0.8,0.1-1.2,0.1h-0.2c-0.2,0-0.4-0.1-0.5-0.3c-0.1-0.2-0.2-0.4-0.2-0.6s0.1-0.4,0.2-0.6c0.1-0.2,0.3-0.3,0.5-0.3h0.2
		c0.2,0,0.4,0,0.7,0c0.3,0,0.6,0,0.9-0.1c0.3-0.1,0.6-0.1,0.9-0.2c0.3-0.1,0.5-0.3,0.8-0.4c0-0.1-0.1-0.3-0.2-0.5
		c-0.1-0.2-0.1-0.4-0.2-0.6c-0.1-0.2-0.1-0.4-0.2-0.6c-0.1-0.2-0.1-0.4-0.2-0.5C244.1,25.5,244.1,25.3,244.2,25.2z M244.7,32
		l1.4,1.2c0.1,0.1,0.1,0.1,0,0.2l-1,1.2c-0.1,0.1-0.1,0.1-0.2,0l-1.5-1.2c-0.1-0.1-0.1-0.1,0-0.2l1-1.2C244.6,32,244.7,32,244.7,32z
		"/>
	<path class="st1" d="M251.8,23.9c0.2,0.2,0.4,0.5,0.6,0.7c0.2,0.3,0.3,0.5,0.5,0.8c0.1,0.3,0.3,0.6,0.3,0.9
		c0.1,0.3,0.1,0.6,0.1,0.9c0,0.1,0,0.3,0,0.4c0,0.2,0,0.3-0.1,0.5c0,0.2-0.1,0.3-0.1,0.5c-0.1,0.2-0.1,0.3-0.2,0.4
		c-0.2,0.3-0.4,0.5-0.8,0.7c-0.3,0.2-0.7,0.3-1.1,0.4c-0.4,0.1-0.8,0.1-1.2,0.2c-0.4,0-0.8,0-1.1,0h-0.2c-0.2,0-0.4-0.1-0.6-0.3
		c-0.1-0.2-0.2-0.4-0.2-0.6c0-0.2,0.1-0.4,0.2-0.6c0.1-0.2,0.3-0.3,0.6-0.3h0.2c0.4,0,0.7,0,1.1,0c0.4,0,0.7,0,1-0.1
		c0.3,0,0.6-0.1,0.9-0.1c0.3-0.1,0.5-0.1,0.6-0.2c0.1,0,0.1-0.1,0.1-0.2c0-0.1,0-0.2-0.1-0.3c-0.1-0.2-0.2-0.4-0.3-0.6
		c-0.1-0.2-0.2-0.3-0.3-0.5c-0.1-0.2-0.3-0.3-0.4-0.5c-0.1-0.1-0.3-0.3-0.4-0.4l0.4-1.6c0-0.1,0.1-0.1,0.1-0.1
		C251.7,23.8,251.7,23.9,251.8,23.9z M250.6,18.7l1.4,1.2c0.1,0.1,0.1,0.1,0,0.2l-1,1.2c-0.1,0.1-0.1,0.1-0.2,0l-1.5-1.2
		c-0.1-0.1-0.1-0.1,0-0.2l1-1.2C250.5,18.7,250.6,18.7,250.6,18.7z"/>
	<path class="st0" d="M258.4,6.6c-0.4,0.2-0.8,0.4-1.2,0.6c-0.4,0.2-0.8,0.4-1.2,0.6c-0.4,0.2-0.8,0.3-1.1,0.5
		c-0.3,0.2-0.6,0.3-0.9,0.4c-0.1,0-0.1,0-0.1,0c0,0,0-0.1,0-0.1l0.6-1.1c0-0.1,0.1-0.1,0.1-0.1c0,0,0.1-0.1,0.1-0.1l4.3-1.9
		c0.1-0.1,0.2,0,0.1,0.1l-0.5,1.1C258.5,6.5,258.5,6.6,258.4,6.6z"/>
	<path class="st0" d="M254.7,13.4c0,0,0.1-0.1,0.2-0.1c0.1,0,0.2-0.1,0.3-0.1c0.1-0.1,0.2-0.1,0.3-0.1c0.1,0,0.2-0.1,0.2-0.1
		c-0.2-0.1-0.3-0.3-0.5-0.5c-0.2-0.2-0.3-0.4-0.4-0.6c-0.1-0.1-0.1-0.3,0-0.4c0-0.1,0.1-0.3,0.2-0.4c0.1-0.2,0.2-0.3,0.4-0.5
		c0.2-0.2,0.3-0.3,0.5-0.5c0.2-0.1,0.4-0.3,0.6-0.4c0.2-0.1,0.4-0.1,0.7-0.1c0.1,0,0.2,0,0.3,0.1c0.1,0.1,0.2,0.1,0.2,0.2
		s0.1,0.2,0.2,0.3c0,0.1,0.1,0.2,0.1,0.3c0,0.2,0,0.3,0,0.4c-0.1,0.3-0.2,0.5-0.3,0.5c-0.1,0.1-0.1,0.1-0.2,0.1
		c-0.1,0-0.1-0.1-0.1-0.2c0-0.1-0.1-0.2-0.1-0.3c-0.1-0.1-0.1-0.2-0.2-0.3c-0.1,0-0.2-0.1-0.3-0.1c-0.4,0-0.7,0.1-1,0.4
		c0.1,0.1,0.1,0.3,0.2,0.4c0.1,0.1,0.2,0.3,0.3,0.4c0.1,0.1,0.2,0.2,0.4,0.3c0.1,0.1,0.3,0.1,0.4,0.1c0.4,0,0.8,0,1.1,0
		c0.4-0.1,0.8-0.1,1.1-0.2c0,0,0,0.1,0,0.2c0,0.1-0.1,0.2-0.1,0.4c-0.1,0.1-0.1,0.3-0.2,0.4c-0.1,0.1-0.1,0.2-0.1,0.2
		c-0.3,0-0.7,0.1-1,0.2c-0.3,0.1-0.7,0.1-1.1,0.3c-0.4,0.1-0.8,0.3-1.2,0.5c-0.4,0.2-0.8,0.4-1.1,0.6c-0.1,0-0.1,0-0.1,0
		c0,0,0-0.1,0-0.1c0,0,0-0.1,0-0.2c0-0.1,0.1-0.2,0.1-0.3c0-0.1,0.1-0.2,0.1-0.3C254.6,13.6,254.7,13.5,254.7,13.4z M256.8,15.1
		c0.1,0,0.2,0.2,0.2,0.4c0,0.3,0,0.6,0,0.9c0,0.3,0,0.6,0.1,0.9c0.1,0.7,0.1,1.4,0.2,2.2c0.1,0.7,0.2,1.5,0.3,2.2
		c0.1,0.7,0.2,1.5,0.2,2.2c0.1,0.7,0.2,1.5,0.2,2.2c0,0.3,0,0.6,0,1c0,0.4,0,0.7,0,1.1c0,0.4-0.1,0.7-0.2,1.1
		c-0.1,0.4-0.2,0.6-0.3,0.9c-0.1,0.1-0.1,0.2-0.2,0.3c-0.1,0-0.1,0-0.1-0.1c0-0.7-0.1-1.4-0.1-2.1c-0.1-0.7-0.1-1.4-0.2-2.1
		c-0.1-0.7-0.2-1.5-0.3-2.2c-0.1-0.7-0.2-1.5-0.2-2.2c-0.1-0.7-0.2-1.5-0.2-2.2s-0.2-1.5-0.2-2.2c0-0.2,0.1-0.4,0.1-0.6
		c0.1-0.2,0.1-0.4,0.2-0.6c0.2-0.5,0.3-0.8,0.4-0.9C256.8,15.2,256.8,15.1,256.8,15.1z"/>
	<path class="st0" d="M274.9,11.3c-0.4,0.2-0.8,0.4-1.2,0.6c-0.4,0.2-0.8,0.4-1.2,0.6c-0.4,0.2-0.8,0.3-1.1,0.5
		c-0.3,0.2-0.6,0.3-0.9,0.4c-0.1,0-0.1,0-0.1,0c0,0,0-0.1,0-0.1l0.6-1.1c0-0.1,0.1-0.1,0.1-0.1c0,0,0.1-0.1,0.1-0.1l4.3-1.9
		c0.1-0.1,0.2,0,0.1,0.1l-0.5,1.1C275,11.2,275,11.3,274.9,11.3z"/>
	<path class="st0" d="M274.4,29.4L272.8,18c0-0.3-0.1-0.6-0.2-1c-0.1-0.3-0.2-0.6-0.4-0.9c-0.1-0.1-0.1-0.2-0.1-0.2s0-0.1,0.1-0.2
		c0.1-0.2,0.2-0.5,0.3-0.7c0.1-0.2,0.2-0.5,0.4-0.7c0-0.1,0.1-0.1,0.1-0.1c0,0,0.1,0,0.1,0.1c0.1,0.4,0.3,0.8,0.5,1.2
		c0.2,0.4,0.5,0.7,0.9,0.9c-0.1,0.2-0.2,0.3-0.3,0.5c-0.1,0.1-0.2,0.3-0.2,0.4c-0.1,0.1-0.1,0.2-0.1,0.3c0,0.1,0,0.2,0,0.3l1.1,8.7
		c0.2,1.4,0.2,2.2,0.2,2.2c0,0.7-0.2,1.3-0.5,1.9c-0.3,0.6-0.7,1.1-1.2,1.5c-0.5,0.4-1.1,0.7-1.7,1c-0.6,0.2-1.3,0.3-2,0.3
		c-0.7,0-1.3-0.1-1.8-0.3c-0.5-0.2-1-0.5-1.4-0.9c-0.4-0.4-0.7-0.8-0.9-1.4c-0.2-0.5-0.3-1.1-0.3-1.8c0-0.7,0.1-1.4,0.4-2.1
		c0.2-0.7,0.6-1.3,1-1.9c0-0.1,0.1-0.1,0.1-0.1c0,0,0.1,0,0.1,0.1c0,0,0,0.1,0.1,0.1c0,0.1,0,0.1,0,0.1c-0.4,0.7-0.6,1.4-0.7,2.2
		c-0.1,0.8,0,1.4,0.2,2c0.2,0.6,0.6,1.1,1.2,1.5c0.6,0.4,1.3,0.6,2.3,0.6c0.4,0,0.9,0,1.3-0.1c0.4-0.1,0.8-0.2,1.2-0.4
		s0.8-0.4,1.1-0.7C273.8,30.1,274.1,29.8,274.4,29.4z"/>
	<path class="st0" d="M282,28.5c0.2,0,0.4,0.1,0.5,0.3c0.1,0.2,0.2,0.4,0.2,0.6c0,0.2-0.1,0.4-0.2,0.6c-0.1,0.2-0.3,0.3-0.5,0.3
		c0,0,0,0-0.1,0c0,0-0.1,0-0.1,0c-0.7,0-1.3-0.1-1.7-0.4c-0.4-0.3-0.8-0.6-1.1-1c-0.3-0.5-0.5-1.1-0.6-1.7c-0.1-0.6-0.2-1.2-0.2-1.8
		c-0.1-0.7-0.1-1.4-0.2-2c-0.1-0.7-0.2-1.4-0.2-2c-0.1-0.7-0.2-1.4-0.3-2.1c-0.1-0.7-0.3-1.5-0.5-2.3c0-0.1,0-0.1,0-0.1
		c0,0,0-0.1,0-0.1l0.6-1.5c0-0.1,0.1-0.1,0.1-0.1s0.1,0,0.1,0.1c0.1,0.4,0.2,0.9,0.3,1.3c0.1,0.4,0.2,0.9,0.2,1.5
		c0.1,0.5,0.2,1.1,0.2,1.7c0.1,0.6,0.2,1.3,0.2,2.1c0.1,0.5,0.1,1.1,0.2,1.6c0.1,0.5,0.1,1.1,0.2,1.6c0.1,0.4,0.1,0.9,0.2,1.3
		c0.1,0.4,0.2,0.9,0.4,1.2c0.2,0.3,0.4,0.6,0.8,0.7c0.3,0.2,0.8,0.2,1.4,0.2C281.9,28.5,281.9,28.5,282,28.5
		C281.9,28.5,282,28.5,282,28.5z"/>
	<path class="st0" d="M288.5,14.8c-0.4,0.2-0.8,0.4-1.2,0.6c-0.4,0.2-0.8,0.4-1.2,0.6c-0.4,0.2-0.8,0.3-1.1,0.5
		c-0.3,0.2-0.6,0.3-0.9,0.4c-0.1,0-0.1,0-0.1,0c0,0,0-0.1,0-0.1l0.6-1.1c0-0.1,0.1-0.1,0.1-0.1c0,0,0.1-0.1,0.1-0.1l4.3-1.9
		c0.1-0.1,0.2,0,0.1,0.1l-0.5,1.1C288.6,14.7,288.6,14.8,288.5,14.8z"/>
	<path class="st0" d="M288.1,22.8c0.3,0,0.6,0.2,0.8,0.4c0.2,0.3,0.3,0.6,0.4,0.9c0.1,0.4,0.1,0.7,0.1,1.1c0,0.4,0,0.8-0.1,1.1
		c-0.1,0.3-0.2,0.7-0.4,0.9s-0.4,0.6-0.6,0.8c0.1,0.1,0.3,0.2,0.5,0.2c0.2,0,0.4,0.1,0.6,0.1c0.2,0,0.4,0,0.7,0c0.2,0,0.4,0,0.6,0
		h0.2c0.2,0,0.3,0.1,0.4,0.2c0.1,0.1,0.2,0.2,0.3,0.3c0.1,0.1,0.1,0.3,0.1,0.4c0,0.2,0,0.3-0.1,0.4c-0.1,0.1-0.1,0.2-0.3,0.3
		c-0.1,0.1-0.3,0.1-0.4,0.1h-0.2c-0.9,0-1.7-0.1-2.5-0.3c-0.8-0.2-1.5-0.5-2.1-0.8c-0.3,0.2-0.7,0.3-1,0.4c-0.3,0.1-0.7,0.2-1,0.3
		c-0.3,0.1-0.7,0.2-1.1,0.2c-0.4,0.1-0.8,0.1-1.3,0.1h-0.2c-0.2,0-0.3,0-0.4-0.1c-0.1-0.1-0.2-0.2-0.3-0.3c-0.1-0.1-0.1-0.3-0.1-0.4
		c0-0.2,0-0.3,0.1-0.4c0.1-0.1,0.1-0.3,0.3-0.3c0.1-0.1,0.3-0.1,0.4-0.1h0.2c0.3,0,0.5,0,0.7,0c0.2,0,0.5,0,0.7-0.1
		c0.2,0,0.5-0.1,0.7-0.1c0.2-0.1,0.5-0.1,0.8-0.2c-0.1-0.1-0.1-0.3-0.2-0.5c0-0.2-0.1-0.4,0-0.6c0-0.5,0.2-1.1,0.4-1.6
		c0.3-0.5,0.6-0.9,0.9-1.3c0.4-0.4,0.7-0.7,1.1-0.9C287.4,22.9,287.8,22.8,288.1,22.8z M288.6,20.7
		C288.5,20.7,288.5,20.8,288.6,20.7c-0.1,0.1-0.2,0.1-0.2,0l-1.4-1.1l-0.9,1.2c-0.1,0.1-0.1,0.1-0.2,0l-1.5-1.1
		c-0.1,0-0.1-0.1,0-0.1l0.9-1.3c0,0,0.1-0.1,0.1-0.1c0,0,0.1,0,0.1,0l1.4,1l0.9-1.2c0-0.1,0.1-0.1,0.1,0l1.5,1.2
		c0.1,0,0.1,0.1,0,0.2L288.6,20.7z M288.6,26.3c0-0.2,0-0.5-0.1-0.7c-0.1-0.2-0.2-0.5-0.4-0.7c-0.1-0.1-0.2-0.2-0.3-0.2
		c-0.1,0-0.2-0.1-0.4,0c-0.1,0-0.3,0.1-0.5,0.1c-0.2,0.1-0.4,0.2-0.6,0.3c-0.2,0.1-0.4,0.3-0.5,0.4c-0.2,0.2-0.3,0.3-0.3,0.5
		c0,0.2,0.1,0.4,0.1,0.5c0.1,0.2,0.2,0.3,0.3,0.4c0.1,0.1,0.2,0.2,0.4,0.3c0.1,0.1,0.2,0.1,0.3,0.2c0.1,0,0.2-0.1,0.4-0.1
		c0.2-0.1,0.4-0.2,0.6-0.3c0.2-0.1,0.4-0.2,0.6-0.4C288.4,26.6,288.5,26.4,288.6,26.3z"/>
	<path class="st0" d="M296.5,13.6c-0.4,0.2-0.8,0.4-1.2,0.6c-0.4,0.2-0.8,0.4-1.2,0.6c-0.4,0.2-0.8,0.3-1.1,0.5
		c-0.3,0.2-0.6,0.3-0.9,0.4c-0.1,0-0.1,0-0.1,0c0,0,0-0.1,0-0.1l0.6-1.1c0-0.1,0.1-0.1,0.1-0.1c0,0,0.1-0.1,0.1-0.1l4.3-1.9
		c0.1-0.1,0.2,0,0.1,0.1l-0.5,1.1C296.7,13.6,296.6,13.6,296.5,13.6z"/>
	<path class="st0" d="M290.8,28.5c0.1,0,0.4,0,0.7,0c0.3,0,0.7,0,1.1-0.1c0.4,0,0.9-0.1,1.4-0.1c0.5-0.1,0.9-0.1,1.4-0.3
		c0.4-0.1,0.8-0.2,1.2-0.4c0.3-0.2,0.6-0.3,0.7-0.5c0-0.1,0-0.2,0-0.4c0-0.1,0-0.3-0.1-0.4c0-0.1-0.1-0.3-0.1-0.4
		c0-0.1-0.1-0.3-0.1-0.3c-0.1,0.1-0.2,0.3-0.3,0.4c-0.1,0.1-0.2,0.3-0.4,0.4c-0.1,0.1-0.3,0.2-0.5,0.3c-0.2,0.1-0.3,0.1-0.5,0.1
		c-0.2,0-0.4,0-0.6-0.1s-0.4-0.2-0.5-0.3s-0.3-0.3-0.4-0.4c-0.1-0.2-0.2-0.4-0.2-0.6c0-0.2-0.1-0.5,0-0.7c0-0.3,0.1-0.5,0.1-0.8
		c0.1-0.3,0.2-0.5,0.3-0.8s0.3-0.5,0.4-0.7c0.2-0.2,0.4-0.4,0.6-0.5c0.2-0.1,0.4-0.2,0.7-0.2c0.2,0,0.4,0.1,0.6,0.2
		c0.2,0.1,0.4,0.3,0.6,0.5c0.2,0.2,0.3,0.5,0.5,0.7c0.1,0.3,0.3,0.5,0.4,0.8c0.1,0.3,0.2,0.5,0.3,0.8c0.1,0.3,0.1,0.5,0.1,0.7
		c0.1,0.8,0,1.4-0.2,2.1c-0.2,0.6-0.5,1.2-1,1.6c-0.3,0.2-0.7,0.4-1.2,0.6c-0.5,0.2-1,0.3-1.6,0.4c-0.6,0.1-1.2,0.2-1.7,0.2
		c-0.6,0-1.1,0.1-1.5,0.1h-0.2c-0.3,0-0.4-0.1-0.6-0.3c-0.1-0.2-0.2-0.4-0.2-0.6s0.1-0.4,0.2-0.6c0.1-0.2,0.3-0.3,0.6-0.3H290.8z
		 M294.6,16.9l1.5,1.2c0.1,0,0.1,0.1,0,0.2l-1,1.2c-0.1,0.1-0.1,0.1-0.2,0l-1.5-1.2c-0.1,0-0.1-0.1,0-0.2l1-1.2
		C294.5,16.9,294.5,16.9,294.6,16.9z M296.3,24.5c0-0.1-0.1-0.2-0.1-0.3c-0.1-0.1-0.2-0.2-0.3-0.3c-0.1-0.1-0.2-0.2-0.3-0.2
		s-0.2-0.1-0.3-0.1c-0.1,0-0.2,0-0.3,0.1s-0.2,0.1-0.3,0.2c-0.1,0.1-0.2,0.2-0.2,0.3s-0.1,0.2-0.1,0.3c0.1,0.2,0.2,0.3,0.4,0.4
		c0.2,0.1,0.4,0.1,0.6,0.1c0.2,0,0.4,0,0.6-0.1C296.1,24.8,296.2,24.7,296.3,24.5z"/>
	<path d="M318.1,24.3c0,0.2-0.1,0.4-0.3,0.6c-0.2,0.3-0.6,0.5-1.1,0.8c0,0.5-0.1,1-0.2,1.5c-0.1,0.4-0.3,0.6-0.5,0.6
		c-0.5-0.5-1-0.9-1.4-1.3c-0.5-0.4-1-0.6-1.6-0.6c0,0.5,0.3,1.1,0.8,1.6c0.4,0.5,0.8,0.9,1.2,1.4c0,0.2-0.4,0.4-1.3,0.6
		c-0.7,0.1-1.2,0.2-1.6,0.2c-0.6,1.9-1.5,3.6-2.6,5.2c-0.5,0.7-1.1,1.4-2,2.2c-1.1,1.1-1.9,1.6-2.4,1.6c-0.2,0-0.3-0.1-0.3-0.3
		c0-0.1,0.3-0.5,1-1.2c0.9-1,1.5-1.9,2-2.8c0.8-1.4,1.3-3.1,1.6-4.9c-0.6-0.1-0.9-0.2-1.1-0.2c-0.2-0.1-0.2-0.2-0.2-0.4
		c1.3-1,1.9-2,1.9-3c-0.5,0-1.1,0.2-1.5,0.6c-0.3,0.3-0.8,0.8-1.3,1.4c-0.2,0-0.3-0.2-0.5-0.7c-0.2-0.5-0.3-1-0.3-1.5
		c-0.6-0.3-0.9-0.5-0.9-0.5c-0.3-0.3-0.5-0.5-0.5-0.8c0-0.2,0.1-0.3,0.3-0.6c0.1-0.1,0.5-0.3,1.1-0.7c0-1.4,0.2-2.1,0.7-2.1
		c1.1,1.1,2,1.8,2.9,1.9c0-0.5-0.2-1-0.7-1.7c0,0-0.4-0.5-1.2-1.4c0-0.1,0.1-0.2,0.3-0.3c0.2-0.1,0.6-0.2,1.2-0.3
		c-0.3-1.4-0.8-2.9-1.7-4.4c-0.9-1.5-1.8-2.8-3-3.8c-0.2-0.2-0.3-0.3-0.3-0.4s0.1-0.2,0.3-0.2c0.3,0,0.9,0.3,1.7,0.9
		c2.4,1.7,4.2,4.3,5.5,7.8c1.9,0,2.8,0.3,2.8,0.8c-0.5,0.4-0.9,0.9-1.2,1.3c-0.4,0.5-0.6,1.1-0.6,1.7c0.4,0,0.9-0.2,1.4-0.6l1.5-1.3
		c0.3,0,0.5,0.6,0.7,1.8c0,0.1,0,0.2,0,0.3C317.6,23.5,318.1,23.9,318.1,24.3z M313.9,20c0-0.1-0.2-0.1-0.5-0.2
		c-0.3-0.1-0.6-0.1-0.7-0.1h-0.6c-0.1,0-0.2,0-0.4,0.1c-0.5-1.6-1.3-3.2-2.3-4.7c-1.1-1.6-2.5-3-4-4c1,1,1.9,2.1,2.7,3.5
		c1,1.6,1.6,3.3,1.8,5.1c-0.7,0.1-1,0.2-1.1,0.3c0.8,0.6,1.3,1.3,1.7,2c0.1-0.3,0.2-0.6,0.4-1c0,0,0.1-0.2,0.2-0.5
		c0.1-0.3,0.2-0.4,0.2-0.4c0.2,0,0.5,0.6,1,1.8c0.2-0.5,0.5-0.9,0.7-1.2C313.3,20.6,313.6,20.3,313.9,20z M309.4,25.4
		c-0.2-0.1-0.6-0.2-1.5-0.5c-0.5-0.2-0.8-0.3-0.8-0.4c0,0,0.4-0.2,1.2-0.6c0.2-0.1,0.5-0.2,1-0.4c-0.4-0.2-0.9-0.4-1.3-0.7
		c-0.2-0.2-0.5-0.4-0.9-0.8c-0.2,0-0.2,0.5-0.2,1.6c-0.8,0.4-1.2,0.7-1.2,1c0,0.2,0.4,0.5,1.2,0.8c0,1.1,0.1,1.7,0.3,1.7
		c0,0,0.3-0.2,0.8-0.7C308.6,25.8,309.1,25.5,309.4,25.4z M314.1,28.7c-0.6-0.5-1.2-1.2-1.6-1.9c-0.1,0.2-0.2,0.5-0.4,0.9
		c0,0-0.1,0.2-0.3,0.6c-0.1,0.3-0.2,0.4-0.3,0.4c0,0-0.1-0.1-0.3-0.4c-0.1-0.3-0.2-0.4-0.2-0.5c0-0.1-0.2-0.5-0.4-0.9
		c-0.1,0.4-0.4,0.7-0.7,1.1c-0.2,0.3-0.5,0.6-0.8,0.9c0,0.1,0.3,0.2,1,0.3c-0.4,1.7-0.7,2.7-0.8,3.2c-0.6,1.9-1.7,3.7-3.2,5.4
		c2.5-1.7,4.4-4.6,5.7-8.6c1,0,1.4,0,1.2,0C313.7,29,314,28.9,314.1,28.7z M313.2,24.4c0-0.5-0.2-0.9-0.5-1.2
		c-0.3-0.3-0.7-0.5-1.2-0.5c-0.5,0-0.9,0.2-1.2,0.5c-0.3,0.3-0.5,0.7-0.5,1.2c0,0.5,0.1,0.9,0.5,1.2c0.3,0.3,0.7,0.5,1.2,0.5
		c0.5,0,0.9-0.1,1.2-0.5C313.1,25.3,313.2,24.9,313.2,24.4z M317.4,24.3c0-0.1-0.1-0.2-0.3-0.4c-0.2-0.1-0.5-0.3-0.9-0.4
		c0-0.5,0-0.9-0.1-1.2c-0.1-0.3-0.2-0.5-0.2-0.5c0,0-0.3,0.2-0.7,0.7c-0.4,0.4-0.9,0.8-1.4,1c0.2,0.1,0.6,0.3,1,0.5
		c0.1,0,0.3,0.1,0.8,0.3c0.4,0.1,0.6,0.2,0.6,0.3c0,0.1-0.3,0.2-0.8,0.4c-0.9,0.2-1.4,0.4-1.5,0.4c0.5,0.2,1,0.4,1.3,0.7
		c0.2,0.2,0.5,0.4,0.9,0.8c0.1,0,0.2-0.1,0.2-0.4c0-0.2,0-0.6,0-1.1C317,24.8,317.4,24.5,317.4,24.3z"/>
	<rect class="st2" width="398.7" height="46.9"/>
</g>
</svg>
