<?xml version="1.0" encoding="utf-8"?>
<!-- Generator: Adobe Illustrator 19.2.0, SVG Export Plug-In . SVG Version: 6.00 Build 0)  -->
<svg version="1.1" id="Layer_1" xmlns="http://www.w3.org/2000/svg" xmlns:xlink="http://www.w3.org/1999/xlink" x="0px" y="0px"
	 viewBox="0 0 398.7 46.9" style="enable-background:new 0 0 398.7 46.9;" xml:space="preserve">
<style type="text/css">
	.st0{fill:#003E4E;}
	.st1{fill:#F5712E;}
	.st2{fill:none;}
</style>
<g>
	<path d="M112.3,40.5c0,0.1-0.1,0.1-0.3,0.2c-0.6,0-1.4-0.5-2.5-1.5c-0.8-0.7-1.5-1.4-2-2.2c-1.1-1.5-2.1-3.2-2.8-5
		c-1.8,0-2.7-0.2-2.8-0.7c0.5-0.4,0.9-0.9,1.2-1.3c0.4-0.5,0.6-1.1,0.6-1.6c-0.4,0-0.9,0.2-1.5,0.7c-0.1,0.1-0.6,0.5-1.3,1.2
		c-0.2,0-0.3-0.2-0.4-0.6c-0.1-0.4-0.2-0.9-0.3-1.6c-0.4-0.2-0.8-0.4-1.1-0.7c-0.3-0.2-0.4-0.4-0.4-0.6c0-0.3,0.2-0.6,0.6-0.9
		c0.2-0.2,0.5-0.4,0.8-0.5c0-0.5,0.1-1,0.2-1.5c0.1-0.4,0.3-0.6,0.5-0.6c0.6,0.6,1,1,1.4,1.2c0.6,0.4,1.1,0.6,1.7,0.7
		c0-0.5-0.3-1.1-0.7-1.6c-0.4-0.4-0.8-0.9-1.3-1.3c0-0.2,0.4-0.4,1.3-0.6c0.6-0.1,1.2-0.2,1.6-0.2c1.2-3.6,3-6.3,5.3-8.1
		c0.8-0.6,1.3-0.9,1.6-0.9c0.2,0,0.3,0.1,0.3,0.3c0,0.1-0.3,0.5-1,1.2c-1.9,2.2-3.1,4.8-3.6,7.7c0.6,0.1,1,0.2,1.1,0.3
		c0.2,0.1,0.2,0.2,0.2,0.3c-0.5,0.5-0.9,0.9-1.2,1.3c-0.4,0.5-0.6,1.1-0.6,1.7c0.5,0,1-0.2,1.5-0.6c0.3-0.3,0.8-0.8,1.3-1.4
		c0.2,0,0.4,0.3,0.6,1c0.1,0.5,0.2,0.9,0.2,1.2c0.9,0.4,1.4,0.9,1.4,1.3c0,0.3-0.4,0.8-1.3,1.3c0,0.8-0.1,1.4-0.3,1.8
		c-0.1,0.2-0.3,0.3-0.5,0.4c-1-1.1-2-1.8-3-1.9c0,0.5,0.2,1,0.7,1.7c0.2,0.2,0.6,0.7,1.3,1.4c0,0.1-0.1,0.2-0.2,0.3
		c-0.2,0.1-0.6,0.2-1.2,0.3c0.3,1.4,0.8,2.9,1.7,4.4c0.9,1.5,1.9,2.8,3,3.7C112.2,40.2,112.3,40.3,112.3,40.5z M103.1,27.7
		c-0.3-0.1-0.6-0.2-1.1-0.4c-0.1,0-0.3-0.2-0.7-0.3c-0.4-0.2-0.6-0.3-0.6-0.3c0-0.1,0.4-0.2,1.3-0.5c0.2-0.1,0.5-0.2,0.9-0.4
		c-0.5-0.2-1-0.4-1.3-0.7c-0.2-0.2-0.5-0.5-0.9-0.8c-0.1,0-0.1,0.1-0.2,0.4c0,0.2,0,0.6,0,1.1c-0.8,0.5-1.2,0.8-1.2,1
		c0,0.1,0.1,0.2,0.4,0.4c0.2,0.1,0.5,0.3,0.9,0.4c0,0.2,0,0.5,0.1,0.9c0.1,0.5,0.2,0.8,0.2,0.8l1-0.9
		C102.4,28.1,102.7,27.8,103.1,27.7z M110.7,13.4c-2.4,1.6-4.3,4.5-5.7,8.6c-1,0-1.6,0-1.8,0.1c-0.2,0-0.4,0.1-0.4,0.2
		c0.7,0.6,1.2,1.2,1.6,1.9c0.2-0.4,0.4-0.7,0.5-0.8c0.1-0.3,0.3-0.6,0.5-0.9c0,0,0.1,0.1,0.1,0.4c0,0.3,0.1,0.4,0.1,0.5
		c0.1,0.1,0.3,0.4,0.6,0.9c0.2-0.5,0.4-0.8,0.7-1.2c0.2-0.2,0.4-0.5,0.8-0.8c0-0.1-0.1-0.2-0.4-0.2c-0.1,0-0.4,0-0.6-0.1
		c0.4-1.6,0.7-2.7,0.8-3.2C108.1,17.1,109.1,15.3,110.7,13.4z M111.3,39.9c-1-0.9-1.9-2-2.7-3.4c-0.9-1.6-1.5-3.3-1.8-5.1
		c0.7,0,1.1-0.1,1.1-0.3c-0.7-0.6-1.3-1.3-1.7-2c-0.1,0.2-0.2,0.5-0.4,0.9c0,0-0.1,0.2-0.2,0.5c-0.1,0.3-0.2,0.4-0.2,0.4
		c-0.3,0-0.6-0.6-0.9-1.8c-0.3,0.5-0.5,1-0.7,1.2c-0.2,0.3-0.5,0.5-0.8,0.8c0,0,0.2,0.1,0.4,0.1c0.2,0,0.5,0.1,0.9,0.1
		c0.2,0,0.4,0,0.5,0c0.2,0,0.3,0,0.5,0C106.3,35.2,108.4,38.1,111.3,39.9z M107.1,26.8c0-0.5-0.2-0.9-0.5-1.2
		c-0.3-0.3-0.8-0.5-1.2-0.5c-0.5,0-0.9,0.2-1.2,0.5c-0.3,0.3-0.5,0.7-0.5,1.2c0,0.4,0.2,0.8,0.5,1.2c0.4,0.3,0.8,0.5,1.2,0.5
		c0.5,0,0.9-0.2,1.2-0.5C106.9,27.6,107.1,27.2,107.1,26.8z M111.2,26.6c0-0.2-0.4-0.5-1.2-0.8c0-0.5,0-0.9-0.1-1.2
		c-0.1-0.3-0.1-0.5-0.2-0.5c-0.1,0.1-0.4,0.4-1,0.9c-0.4,0.3-0.8,0.6-1.2,0.7c0.1,0,0.6,0.2,1.4,0.5c0.5,0.2,0.8,0.3,0.8,0.5
		c0,0.1-0.3,0.3-0.8,0.4c-0.5,0.1-0.9,0.3-1.4,0.4c0.4,0.1,0.8,0.4,1.3,0.7c0.2,0.2,0.5,0.5,0.9,0.8c0.2,0,0.2-0.5,0.2-1.6
		C110.7,27.1,111.2,26.8,111.2,26.6z"/>
	<path class="st0" d="M125.8,35.4c-0.8,0.2-1.5,0.5-2.3,0.7c-0.7,0.3-1.5,0.5-2.1,0.7c-0.1,0-0.2,0-0.1-0.1l0.5-0.9
		c0,0,0-0.1,0.1-0.1c0,0,0.1,0,0.1-0.1c0.2-0.1,0.5-0.2,0.8-0.3c0.3-0.1,0.7-0.2,1.1-0.4c0.4-0.1,0.8-0.3,1.2-0.4s0.8-0.3,1.2-0.4
		c0.1,0,0.1,0,0.1,0c0,0,0,0,0,0.1l-0.5,0.9C126,35.3,125.9,35.3,125.8,35.4C125.9,35.4,125.9,35.4,125.8,35.4z"/>
	<path class="st0" d="M124.7,22.8c0-0.1,0.1-0.1,0.1-0.1c0.1,0,0.1,0,0.1,0.1c0.1,0.4,0.1,0.9,0.2,1.4c0.1,0.6,0.2,1.1,0.3,1.7
		c0.1,0.6,0.2,1.1,0.3,1.6c0.1,0.5,0.2,0.9,0.3,1.1c0.1,0.4,0.3,0.7,0.5,1c0.2,0.2,0.4,0.4,0.7,0.6c0.2,0.1,0.5,0.2,0.8,0.3
		c0.3,0.1,0.6,0.1,0.9,0.1h0.2c0.3,0,0.4,0.1,0.6,0.3s0.2,0.4,0.2,0.6c0,0.2-0.1,0.4-0.2,0.6c-0.1,0.2-0.3,0.3-0.6,0.3h-0.2
		c-0.6,0-1.2-0.1-1.6-0.3c-0.4-0.2-0.8-0.5-1.1-0.8c-0.3-0.4-0.5-0.8-0.7-1.2c-0.1-0.4-0.3-0.9-0.4-1.3c-0.3,0.4-0.6,0.7-0.9,0.9
		c-0.3,0.2-0.5,0.4-0.8,0.5c-0.3,0.1-0.6,0.2-0.9,0.2c-0.3,0-0.6,0-0.9,0c-0.3,0-0.5-0.1-0.7-0.3c-0.2-0.2-0.3-0.4-0.3-0.7
		c0.1-0.4,0.2-0.9,0.3-1.2s0.4-0.7,0.6-1c0.3-0.5,0.7-0.9,1.2-1.2c0.2-0.2,0.5-0.3,0.8-0.5c0.3-0.1,0.6-0.3,0.9-0.4
		c0-0.1,0-0.2-0.1-0.4c0-0.2-0.1-0.3-0.1-0.5c0-0.1,0-0.2,0-0.3c0-0.1,0.1-0.3,0.1-0.4c0-0.1,0.1-0.3,0.1-0.4
		C124.6,23,124.7,22.9,124.7,22.8z M121.9,28c-0.1,0.2-0.1,0.3,0,0.3c0.2,0.1,0.5,0.2,0.8,0.2s0.6,0,0.9-0.1
		c0.3-0.1,0.6-0.2,0.8-0.3c0.3-0.1,0.4-0.2,0.6-0.3c0-0.2-0.1-0.3-0.1-0.4c0-0.1-0.1-0.2-0.1-0.4c0-0.1,0-0.2-0.1-0.4
		c0-0.1-0.1-0.3-0.1-0.5c-0.3,0.1-0.5,0.2-0.8,0.3c-0.3,0.1-0.5,0.2-0.7,0.4c-0.2,0.2-0.5,0.3-0.7,0.5
		C122.3,27.6,122.1,27.8,121.9,28z M126.1,21.3C126.1,21.3,126,21.4,126.1,21.3c-0.1,0.1-0.2,0.1-0.2,0l-1.4-1.1l-0.9,1.3
		c-0.1,0.1-0.1,0.1-0.2,0l-1.5-1.1c-0.1,0-0.1-0.1,0-0.1l0.9-1.3c0,0,0.1-0.1,0.1-0.1c0,0,0.1,0,0.1,0l1.4,1.1l1-1.2
		c0-0.1,0.1-0.1,0.1,0l1.5,1.2c0.1,0,0.1,0.1,0,0.2L126.1,21.3z"/>
	<path class="st0" d="M135,20.3c-0.4,0.2-0.8,0.4-1.2,0.6c-0.4,0.2-0.8,0.4-1.2,0.6c-0.4,0.2-0.8,0.3-1.1,0.5
		c-0.3,0.2-0.6,0.3-0.9,0.4c-0.1,0-0.1,0-0.1,0c0,0,0-0.1,0-0.1l0.6-1.1c0-0.1,0.1-0.1,0.1-0.1c0,0,0.1-0.1,0.1-0.1l4.3-1.9
		c0.1-0.1,0.2,0,0.1,0.1l-0.5,1.1C135.1,20.2,135.1,20.3,135,20.3z"/>
	<path class="st0" d="M135.9,31.8c-0.1,0.2-0.1,0.3-0.2,0.5c-0.1,0.2-0.2,0.3-0.2,0.3c-0.3,0-0.6,0-1-0.1c-0.4-0.1-0.8-0.2-1.2-0.4
		c-0.4-0.2-0.7-0.4-1-0.6c-0.3-0.2-0.5-0.5-0.5-0.7c-0.2,0.3-0.4,0.5-0.7,0.7c-0.2,0.2-0.5,0.3-0.7,0.4c-0.3,0.1-0.5,0.2-0.7,0.2
		c-0.2,0-0.5,0.1-0.7,0.1h-0.2c-0.3,0-0.4-0.1-0.6-0.3c-0.1-0.2-0.2-0.4-0.2-0.6c0-0.2,0.1-0.4,0.2-0.6s0.3-0.3,0.6-0.3h0.2
		c0.3,0,0.6,0,0.9,0c0.3,0,0.6-0.1,0.8-0.1c0.3-0.1,0.5-0.2,0.8-0.4c0.3-0.2,0.5-0.4,0.7-0.7c0.1-0.2,0.3-0.3,0.4-0.5
		c0.1-0.2,0.3-0.3,0.5-0.5c0.2-0.1,0.3-0.2,0.5-0.3c0.2-0.1,0.3-0.1,0.4-0.1c0.1,0,0.3,0.1,0.5,0.2c0.2,0.1,0.3,0.3,0.5,0.5
		c0.2,0.2,0.3,0.4,0.5,0.5c0.2,0.2,0.3,0.3,0.4,0.4c0.2,0.2,0.4,0.4,0.6,0.5c0.2,0.1,0.4,0.2,0.7,0.3c0.2,0.1,0.5,0.1,0.7,0.2
		c0.3,0,0.5,0,0.8,0h0.2c0.2,0,0.4,0.1,0.6,0.3s0.2,0.4,0.2,0.6c0,0.2-0.1,0.4-0.2,0.6c-0.1,0.2-0.3,0.3-0.6,0.3h-0.2
		c-0.2,0-0.5,0-0.7,0c-0.2,0-0.4,0-0.7-0.1c-0.2,0-0.4-0.1-0.6-0.2C136.3,32,136.1,31.9,135.9,31.8z M134.8,30.7
		C134.8,30.7,134.8,30.7,134.8,30.7c0.1,0,0.1-0.1,0-0.1c-0.1-0.1-0.2-0.3-0.3-0.5c-0.1-0.2-0.2-0.3-0.2-0.5
		c-0.1-0.1-0.1-0.3-0.2-0.4c0-0.1-0.1-0.2-0.1-0.3c-0.1-0.1-0.2-0.2-0.3-0.2c-0.1,0-0.3,0.1-0.5,0.2c-0.2,0.1-0.4,0.3-0.5,0.5
		c0,0.1-0.1,0.1-0.1,0.1c0,0,0,0.1,0.1,0.1c0.1,0.1,0.3,0.2,0.5,0.3c0.2,0.1,0.4,0.2,0.6,0.3c0.2,0.1,0.4,0.1,0.6,0.2
		C134.4,30.7,134.6,30.7,134.8,30.7z"/>
	<path class="st0" d="M148.1,19.7c-0.4,0.2-0.8,0.4-1.2,0.6c-0.4,0.2-0.8,0.4-1.2,0.6c-0.4,0.2-0.8,0.3-1.1,0.5
		c-0.3,0.2-0.6,0.3-0.9,0.4c-0.1,0-0.1,0-0.1,0c0,0,0-0.1,0-0.1l0.6-1.1c0-0.1,0.1-0.1,0.1-0.1c0,0,0.1-0.1,0.1-0.1l4.3-1.9
		c0.1-0.1,0.2,0,0.1,0.1l-0.5,1.1C148.2,19.7,148.2,19.7,148.1,19.7z"/>
	<path class="st0" d="M141.3,28.8c0.2-0.4,0.3-0.9,0.3-1.6c0-0.7-0.1-1.5-0.1-2.4c-0.1-0.9-0.2-1.7-0.4-2.6
		c-0.1-0.9-0.3-1.6-0.4-2.3c0-0.3-0.1-0.6-0.2-0.9c-0.1-0.3-0.2-0.6-0.4-0.8c-0.1-0.1-0.1-0.2-0.1-0.2c0,0,0-0.1,0-0.2l0.7-1.4
		c0.1-0.1,0.1-0.1,0.2,0c0.1,0.4,0.3,0.8,0.5,1.1c0.2,0.4,0.4,0.7,0.8,0.9c-0.2,0.4-0.4,0.7-0.5,0.9c-0.1,0.2-0.2,0.4-0.1,0.7
		c0.1,0.6,0.3,1.3,0.4,2c0.1,0.7,0.2,1.4,0.2,2.1c0,0.7,0,1.4,0,2.1c0,0.7-0.1,1.4-0.2,2c0.5-0.4,0.9-0.8,1.5-1.2
		c0.5-0.4,1.1-0.8,1.7-1.1c0.4-0.2,0.9-0.3,1.4-0.3c0.5,0,1,0.1,1.4,0.2c0.4,0.2,0.8,0.4,1.2,0.7c0.3,0.3,0.5,0.6,0.6,1
		c0,0.7-0.2,1.2-0.5,1.8c-0.3,0.5-0.7,0.9-1.2,1.2c0.5,0,1,0.1,1.5,0.1c0.5,0,1,0,1.5,0h0.2c0.3,0,0.4,0.1,0.6,0.3
		c0.1,0.2,0.2,0.4,0.2,0.6c0,0.2-0.1,0.4-0.2,0.6c-0.1,0.2-0.3,0.3-0.6,0.3H151c-0.5,0-1.1,0-1.8,0c-0.8,0-1.6,0-2.4-0.1
		c-0.8,0-1.7,0-2.5-0.1c-0.8,0-1.5-0.1-2.1-0.1c-0.6,0.1-1.3,0.1-1.9,0.2c-0.6,0-1.2,0.1-1.8,0.1h-0.2c-0.2,0-0.4-0.1-0.5-0.3
		c-0.1-0.2-0.2-0.4-0.2-0.6c0-0.2,0.1-0.4,0.2-0.6c0.1-0.2,0.3-0.3,0.5-0.3h0.2c0.1,0,0.3,0,0.5,0c0.2,0,0.3,0,0.5,0L141.3,28.8z
		 M148.6,28.6c-0.2-0.3-0.4-0.5-0.7-0.7c-0.3-0.2-0.6-0.3-0.9-0.4c-0.3-0.1-0.7-0.2-1-0.2c-0.3,0-0.7,0-1,0.1
		c-0.4,0.1-0.8,0.3-1.1,0.5c-0.4,0.2-0.7,0.4-1.1,0.7c-0.4,0.3-0.7,0.6-1.1,0.9c-0.4,0.3-0.8,0.7-1.2,1c0.6,0,1.3-0.1,2.1-0.2
		c0.8-0.1,1.5-0.2,2.2-0.3c0.7-0.2,1.4-0.3,2.1-0.6C147.6,29.2,148.2,28.9,148.6,28.6z"/>
	<path class="st0" d="M152,23.8c0.3-0.1,0.5-0.3,0.8-0.4c0.3-0.1,0.5-0.3,0.7-0.5c0.2-0.2,0.5-0.4,0.7-0.6c0.2-0.2,0.5-0.4,0.7-0.7
		c-0.2-0.1-0.4-0.2-0.7-0.3c-0.2-0.1-0.4-0.3-0.6-0.5c-0.1-0.1-0.1-0.2-0.1-0.3c0-0.1,0-0.3,0-0.4c0.1-0.2,0.2-0.4,0.3-0.6
		c0.1-0.2,0.2-0.4,0.4-0.6c0.2-0.2,0.3-0.3,0.5-0.4c0.2-0.1,0.4-0.2,0.6-0.2c0.2,0,0.4,0.1,0.5,0.3c0.1,0.2,0.2,0.5,0.2,0.7
		c0,0.3,0,0.6,0,0.8c0,0.3,0,0.5-0.1,0.6c0,0,0,0.1,0,0.1c0.1,0.1,0.2,0.1,0.2,0.2c0,0,0.1,0.1,0.1,0.2c0,0.1,0.1,0.3,0,0.4
		c0,0.2-0.1,0.3-0.1,0.4c-0.1,0.1-0.1,0.1-0.2,0.1c0,0-0.1,0-0.1-0.1c0,0-0.1-0.1-0.1-0.1c0,0-0.1-0.1-0.2-0.1
		c-0.2,0.3-0.5,0.5-0.7,0.8c-0.2,0.2-0.5,0.5-0.8,0.7c-0.3,0.2-0.6,0.4-0.9,0.5c-0.3,0.2-0.6,0.3-1,0.4c-0.1,0-0.3,0.1-0.4,0.1
		c-0.1,0-0.2,0-0.2,0c0,0,0-0.1,0.1-0.2S151.9,23.9,152,23.8z M154.2,19.9c0.2,0.2,0.4,0.4,0.6,0.5c0.2,0.1,0.4,0.2,0.6,0.3h0
		c0-0.1,0-0.1,0-0.3c0-0.1,0-0.2,0-0.3c0-0.1,0-0.2,0-0.3c0-0.1-0.1-0.2-0.1-0.3c-0.1-0.1-0.2-0.1-0.3-0.1c-0.1,0-0.2,0-0.3,0.1
		c-0.1,0-0.2,0.1-0.3,0.2C154.3,19.8,154.2,19.8,154.2,19.9z"/>
	<path class="st0" d="M159.2,11.2c0,0.3,0,0.5-0.1,0.8s-0.2,0.5-0.3,0.7c-0.1,0.2-0.3,0.4-0.6,0.5c-0.2,0.1-0.5,0.2-0.8,0.2
		c-0.4,0-0.7-0.1-1-0.4c-0.3-0.3-0.4-0.6-0.4-1c0-0.2,0-0.5,0.1-0.8c0.1-0.3,0.2-0.6,0.3-0.9c0.1-0.3,0.3-0.5,0.5-0.8
		c0.2-0.2,0.5-0.3,0.8-0.4c0.3,0,0.5,0,0.7,0.2c0.2,0.1,0.4,0.3,0.5,0.6c0.1,0.2,0.2,0.5,0.2,0.7C159.2,10.8,159.2,11,159.2,11.2z
		 M156.5,11.5c0,0.1,0,0.2,0.1,0.3c0.1,0.1,0.2,0.1,0.3,0.2c0.1,0,0.2,0.1,0.3,0.1c0.1,0,0.2,0,0.3,0c0.2,0,0.4,0,0.6-0.1
		c0.2-0.1,0.4-0.2,0.5-0.4c0-0.1,0-0.3,0-0.4c0-0.2-0.1-0.3-0.2-0.4c-0.1-0.1-0.2-0.2-0.4-0.3c-0.1-0.1-0.3-0.1-0.5-0.1
		c-0.1,0-0.2,0.1-0.4,0.2s-0.2,0.2-0.3,0.3c-0.1,0.1-0.2,0.2-0.2,0.4C156.5,11.3,156.5,11.4,156.5,11.5z"/>
	<path class="st0" d="M159.3,26.7c0.4,0.1,0.8,0.2,1.1,0.3c0.3,0.1,0.7,0.2,1,0.3c0.3,0.1,0.6,0.2,0.9,0.2c0.3,0.1,0.6,0.1,1,0.2
		c0.7,0.1,1.3,0.2,1.9,0.2c0.6,0,1.1,0,1.6,0.1c0,0,0.1,0,0.1,0.1c0,0,0,0.1,0,0.1c0,0.1-0.1,0.2-0.1,0.3c-0.1,0.1-0.2,0.3-0.2,0.4
		c-0.1,0.1-0.2,0.3-0.3,0.4c-0.1,0.1-0.2,0.2-0.2,0.3c0,0.1-0.1,0.1-0.2,0.1c-0.1,0-0.1,0-0.2,0c-0.6-0.1-1.3-0.2-1.8-0.1
		c-0.6,0-1.1,0.1-1.6,0.2s-1,0.3-1.6,0.4c-0.5,0.2-1,0.4-1.6,0.6c-0.6,0.2-1.3,0.5-1.9,0.7s-1.3,0.4-1.9,0.5s-1.3,0.3-2,0.3
		c-0.7,0.1-1.4,0.1-2.2,0.1h-0.2c-0.3,0-0.5-0.1-0.6-0.3c-0.1-0.2-0.2-0.4-0.2-0.6c0-0.2,0.1-0.4,0.2-0.6c0.1-0.2,0.3-0.3,0.6-0.3
		h0.2c0.5,0,1.1,0,1.8,0c0.6,0,1.3-0.1,2.1-0.2c0.8-0.1,1.6-0.3,2.4-0.5c0.9-0.2,1.8-0.5,2.8-0.9c-0.6-0.2-1.2-0.4-1.8-0.5
		c-0.6-0.1-1.1-0.2-1.7-0.3c-0.6-0.1-1.1-0.1-1.7-0.1s-1.2,0-1.8,0.1c-0.1,0-0.1,0-0.1-0.1c0.1-0.3,0.3-0.6,0.4-0.8
		c0.1-0.2,0.3-0.5,0.5-0.7c0,0,0.1-0.1,0.3-0.1c0.2,0,0.4-0.1,0.6-0.1c0.3,0,0.5-0.1,0.8-0.1c0.3,0,0.6-0.1,0.9-0.1
		c0.3,0,0.6-0.1,0.9-0.1c0.3,0,0.6-0.1,0.8-0.1c0.2,0,0.3-0.1,0.5-0.1c0.1,0,0.2-0.1,0.2-0.3c0-0.4-0.1-0.9-0.2-1.4
		c-0.1-0.5-0.2-1.1-0.3-1.7c-0.1-0.6-0.2-1.2-0.3-1.8c-0.1-0.6-0.2-1.2-0.3-1.7c0-0.2-0.1-0.4-0.1-0.6c0-0.2-0.1-0.4-0.1-0.6
		c-0.1-0.2-0.1-0.4-0.2-0.5c-0.1-0.2-0.2-0.3-0.3-0.4l0.8-1.6c0.1-0.1,0.2-0.1,0.3,0c0.1,0.2,0.1,0.4,0.2,0.6s0.2,0.4,0.3,0.6
		c0.1,0.2,0.2,0.4,0.4,0.5c0.1,0.2,0.3,0.3,0.5,0.4c0,0.1-0.1,0.2-0.2,0.3c-0.1,0.1-0.2,0.2-0.3,0.4c-0.1,0.1-0.2,0.3-0.2,0.4
		c-0.1,0.1-0.1,0.3,0,0.4c0,0.1,0.1,0.4,0.1,0.7c0.1,0.4,0.1,0.8,0.2,1.3c0.1,0.5,0.2,1,0.3,1.5c0.1,0.5,0.2,1,0.2,1.4
		c0,0.2,0,0.4,0,0.7c0,0.3,0,0.5,0,0.8c0,0.3-0.1,0.5-0.2,0.8C159.6,26.2,159.5,26.4,159.3,26.7z"/>
	<path class="st0" d="M169.7,17.1c0.1,0,0.2,0.2,0.2,0.4c0,0.3,0,0.6,0,0.9c0,0.3,0.1,0.6,0.1,0.9c0.1,0.7,0.2,1.4,0.3,2.2
		c0.1,0.7,0.2,1.5,0.3,2.2c0.1,0.7,0.2,1.5,0.3,2.2c0.1,0.7,0.2,1.5,0.3,2.2c0,0.3,0.1,0.6,0.1,1c0,0.4,0,0.7,0,1.1
		c0,0.4-0.1,0.7-0.1,1.1c-0.1,0.4-0.2,0.6-0.3,0.9c-0.1,0.1-0.1,0.2-0.2,0.3c-0.1,0-0.1,0-0.1-0.1c0-0.7-0.1-1.4-0.2-2.1
		c-0.1-0.7-0.2-1.4-0.3-2.1c-0.1-0.7-0.2-1.5-0.3-2.2c-0.1-0.7-0.2-1.5-0.3-2.2c-0.1-0.7-0.2-1.5-0.3-2.2c-0.1-0.7-0.2-1.5-0.3-2.2
		c0-0.2,0.1-0.4,0.1-0.6c0-0.2,0.1-0.4,0.2-0.6c0.2-0.5,0.3-0.8,0.4-0.9C169.7,17.2,169.7,17.1,169.7,17.1z"/>
	<path class="st0" d="M191.1,38.1c-0.8,0.2-1.5,0.5-2.3,0.7s-1.5,0.5-2.1,0.7c-0.1,0-0.2,0-0.1-0.1l0.5-0.9c0,0,0-0.1,0.1-0.1
		c0,0,0.1,0,0.1-0.1c0.2-0.1,0.5-0.2,0.8-0.3c0.3-0.1,0.7-0.2,1.1-0.4c0.4-0.1,0.8-0.3,1.2-0.4c0.4-0.1,0.8-0.3,1.2-0.4
		c0.1,0,0.1,0,0.1,0c0,0,0,0,0,0.1l-0.5,0.9C191.2,38,191.2,38,191.1,38.1C191.1,38,191.1,38.1,191.1,38.1z"/>
	<path class="st0" d="M186,30.8c0-0.1,0-0.2,0-0.3c0-0.1,0.1-0.3,0.1-0.4c0.1-0.1,0.1-0.3,0.2-0.4c0.1-0.1,0.2-0.2,0.2-0.3
		c0.2-0.1,0.5-0.2,0.8-0.3c0.3-0.1,0.6-0.3,0.9-0.4c0.3-0.2,0.6-0.4,0.8-0.6c0.2-0.2,0.3-0.4,0.4-0.7c0-0.1,0-0.3,0-0.4
		c0-0.1-0.1-0.3-0.1-0.4c-0.1-0.1-0.1-0.3-0.2-0.4c-0.1-0.1-0.1-0.2-0.2-0.4c-0.2,0.4-0.4,0.8-0.8,1c-0.3,0.2-0.7,0.4-1.1,0.4
		c-0.2,0-0.4-0.1-0.6-0.2c-0.2-0.1-0.4-0.3-0.5-0.4c-0.1-0.2-0.3-0.4-0.3-0.6c-0.1-0.2-0.1-0.4-0.1-0.6c0-0.3,0-0.6,0.1-1
		c0.1-0.4,0.2-0.7,0.4-1.1c0.2-0.3,0.4-0.6,0.7-0.9c0.3-0.2,0.5-0.4,0.8-0.4c0.3,0,0.6,0.1,0.8,0.3c0.3,0.2,0.5,0.5,0.7,0.8
		c0.2,0.3,0.4,0.6,0.6,1c0.2,0.4,0.3,0.7,0.3,1c0.2,0.8,0.2,1.5,0.1,2.2c-0.1,0.7-0.4,1.4-0.8,2c0.7,0.1,1.2,0.3,1.5,0.7
		c0.3,0.3,0.4,0.8,0.4,1.3c0,0.5-0.2,0.9-0.4,1.4c-0.3,0.4-0.6,0.8-1,1.2c-0.4,0.4-0.9,0.7-1.4,1c-0.5,0.3-1.1,0.6-1.7,0.8
		c-0.6,0.2-1.2,0.4-1.8,0.5c-0.6,0.1-1.2,0.2-1.7,0.2c-0.7,0-1.4-0.1-1.9-0.3c-0.6-0.2-1.1-0.5-1.5-0.8c-0.4-0.4-0.8-0.8-1-1.4
		c-0.2-0.6-0.4-1.2-0.4-2c0-0.8,0.1-1.5,0.4-2.3c0.3-0.7,0.7-1.4,1.1-2c0,0,0.1-0.1,0.1-0.1c0,0,0.1,0,0.1,0.1c0,0,0,0.1,0.1,0.1
		c0,0,0,0.1,0,0.1c-0.3,0.5-0.5,1.1-0.7,1.7c-0.2,0.6-0.2,1.2-0.2,1.8c0,0.6,0.2,1.1,0.4,1.5c0.3,0.4,0.6,0.7,1,1
		c0.4,0.3,0.8,0.4,1.3,0.6c0.5,0.1,1,0.2,1.4,0.2c1,0,1.9-0.1,2.7-0.4c0.9-0.3,1.7-0.7,2.5-1.1c0.1-0.1,0.3-0.2,0.5-0.3
		c0.2-0.1,0.4-0.3,0.6-0.4c0.2-0.1,0.4-0.3,0.5-0.4c0.1-0.1,0.2-0.2,0.2-0.3c-0.1-0.1-0.2-0.2-0.3-0.3c-0.1-0.1-0.3-0.1-0.4-0.2
		c-0.1-0.1-0.3-0.1-0.5-0.1c-0.2,0-0.3-0.1-0.5-0.1c-0.3,0-0.6-0.1-0.9-0.1c-0.3,0-0.6-0.1-0.9-0.1c-0.3,0-0.5,0-0.7,0
		C186.2,30.8,186,30.8,186,30.8z M186.4,17.8c0-0.1,0.1-0.1,0.2,0l1.4,1.1c0,0,0,0.1,0,0.1c0,0,0,0.1,0,0.1l-0.9,1.1
		c0,0-0.1,0.1-0.2,0l-1.4-1.1c0,0,0,0,0-0.1c0,0,0-0.1,0-0.1L186.4,17.8z M186.5,24.8c0.1,0.2,0.2,0.3,0.3,0.4
		c0.2,0.1,0.3,0.2,0.5,0.2c0.2,0,0.4,0,0.6,0c0.2,0,0.4-0.1,0.5-0.3c0,0,0.1,0,0.1-0.1c0-0.1,0-0.1,0-0.2c-0.1-0.1-0.1-0.2-0.2-0.4
		c-0.1-0.1-0.2-0.2-0.3-0.3c-0.1-0.1-0.3-0.2-0.4-0.2c-0.1-0.1-0.3-0.1-0.4-0.1c-0.2,0-0.3,0.2-0.4,0.3
		C186.6,24.4,186.5,24.6,186.5,24.8z"/>
	<path class="st0" d="M205.6,13.1c-0.4,0.2-0.8,0.4-1.2,0.6c-0.4,0.2-0.8,0.4-1.2,0.6c-0.4,0.2-0.8,0.3-1.1,0.5
		c-0.3,0.2-0.6,0.3-0.9,0.4c-0.1,0-0.1,0-0.1,0c0,0,0-0.1,0-0.1l0.6-1.1c0-0.1,0.1-0.1,0.1-0.1c0,0,0.1-0.1,0.1-0.1l4.3-1.9
		c0.1-0.1,0.2,0,0.1,0.1l-0.5,1.1C205.7,13.1,205.7,13.1,205.6,13.1z M203.5,17.9c-0.2,0.3-0.4,0.6-0.6,0.8
		c-0.2,0.2-0.5,0.3-0.8,0.3c-0.3,0-0.5-0.1-0.7-0.2c-0.2-0.1-0.3-0.4-0.3-0.7c0-0.2,0-0.3,0-0.5c0-0.2,0.1-0.3,0.1-0.5
		c0.1-0.1,0.1-0.3,0.2-0.4c0.1-0.1,0.2-0.2,0.3-0.2c0.1,0,0.1,0.1,0,0.2c0,0.1-0.1,0.2-0.1,0.3c0,0.1,0,0.2,0,0.3c0,0.1,0,0.2,0,0.3
		c0,0.1,0.1,0.2,0.2,0.2c0.1,0.1,0.2,0.1,0.4,0.1s0.3,0,0.4-0.1c0.1-0.1,0.3-0.1,0.4-0.2c0.1-0.1,0.2-0.2,0.3-0.3
		c0.1-0.1,0.2-0.3,0.2-0.4c0-0.2,0.1-0.3,0.1-0.4c0-0.1,0-0.2,0.1-0.3c0-0.1,0.1-0.2,0.2-0.2c0,0,0,0,0.1,0.1c0,0,0,0.1,0,0.1
		c0,0.1,0,0.1,0,0.2s0,0.1,0,0.1c0,0.2,0,0.4,0.1,0.5c0.1,0.1,0.2,0.2,0.4,0.3c0.1,0,0.3,0,0.4,0c0.2,0,0.3-0.1,0.5-0.2
		c0,0,0-0.1,0-0.1c0-0.1,0-0.1,0-0.2c0-0.1,0-0.2-0.1-0.3c0-0.1-0.1-0.1-0.1-0.2l0.4-0.8c0.1,0,0.1,0.1,0.2,0.3s0.1,0.3,0.1,0.5
		c0,0.2,0,0.3,0,0.5c0,0.2,0,0.3-0.1,0.4c-0.1,0.3-0.2,0.6-0.4,0.8c-0.2,0.2-0.4,0.4-0.7,0.4c-0.3,0.1-0.5,0-0.7-0.1
		C203.7,18.2,203.6,18,203.5,17.9z"/>
	<path class="st0" d="M209.3,31.1c-0.1,0.7-0.4,1.4-0.8,2c-0.4,0.6-0.9,1-1.5,1.4c-0.6,0.4-1.3,0.7-2,0.8c-0.7,0.2-1.4,0.3-2.1,0.3
		c-0.6,0-1.2-0.1-1.8-0.3c-0.5-0.2-1-0.5-1.4-0.8c-0.4-0.4-0.7-0.8-1-1.3c-0.2-0.5-0.4-1.1-0.4-1.8c0-0.7,0.1-1.4,0.4-2.1
		c0.2-0.7,0.6-1.3,1-1.9c0-0.1,0.1-0.1,0.1-0.1c0,0,0.1,0,0.1,0.1c0,0,0,0.1,0.1,0.1c0,0.1,0,0.1,0,0.1c-0.4,0.8-0.6,1.5-0.7,2.2
		c-0.1,0.7,0,1.4,0.2,2c0.2,0.6,0.6,1.1,1.2,1.5c0.6,0.4,1.3,0.6,2.3,0.6c0.5,0,1-0.1,1.5-0.2c0.5-0.1,1-0.3,1.5-0.4
		c0.5-0.2,1-0.5,1.4-0.8c0.4-0.3,0.8-0.6,1.1-1c0-0.5,0-0.9-0.2-1.4c-0.1-0.5-0.3-1-0.5-1.5c-0.2-0.5-0.4-1-0.7-1.5
		c-0.2-0.5-0.5-0.9-0.7-1.3c0.1-0.3,0.2-0.5,0.2-0.8c0.1-0.3,0.2-0.5,0.3-0.8c0-0.1,0.1-0.1,0.1-0.1c0,0,0.1,0.1,0.1,0.1
		c0.4,0.5,0.7,1,1,1.6c0.3,0.6,0.5,1.2,0.7,1.8c0.2,0.6,0.3,1.2,0.3,1.8S209.4,30.4,209.3,31.1z M204,20.8l1.5,1.2
		c0,0,0.1,0.1,0,0.1c0,0,0,0.1,0,0.1l-1,1.2c0,0.1-0.1,0.1-0.2,0l-1.5-1.2c-0.1,0-0.1-0.1,0-0.2l1-1.2
		C203.8,20.8,203.9,20.8,204,20.8z"/>
	<path class="st0" d="M217,15.4c-0.4,0.2-0.8,0.4-1.2,0.6c-0.4,0.2-0.8,0.4-1.2,0.6c-0.4,0.2-0.8,0.3-1.1,0.5
		c-0.3,0.2-0.6,0.3-0.9,0.4c-0.1,0-0.1,0-0.1,0c0,0,0-0.1,0-0.1l0.6-1.1c0-0.1,0.1-0.1,0.1-0.1c0,0,0.1-0.1,0.1-0.1l4.3-1.9
		c0.1-0.1,0.2,0,0.1,0.1l-0.5,1.1C217.1,15.3,217.1,15.3,217,15.4z"/>
	<path class="st0" d="M216.5,24.7l0.3-1.4c0-0.1,0.1-0.1,0.1-0.1c0.1,0,0.1,0,0.1,0.1l1.2,4.2c0.2,0.6,0.4,1,0.6,1.5
		c0.2,0.4,0.6,0.8,1,1c0.2,0.2,0.5,0.3,0.8,0.4c0.3,0.1,0.7,0.1,1,0.1h0.2c0.3,0,0.4,0.1,0.6,0.3c0.1,0.2,0.2,0.4,0.2,0.6
		c0,0.2-0.1,0.4-0.2,0.6c-0.1,0.2-0.3,0.3-0.6,0.3h-0.2c-0.4,0-0.8,0-1.2-0.1c-0.4-0.1-0.7-0.2-1-0.5c-0.3-0.2-0.6-0.5-0.9-0.9
		c-0.3-0.4-0.5-0.9-0.8-1.5c-0.2,0.6-0.5,1.1-1,1.5c-0.4,0.3-0.8,0.6-1.3,0.7c-0.5,0.2-1,0.3-1.5,0.3c-0.5,0.1-0.9,0.1-1.4,0
		c-0.4,0-0.8-0.2-1-0.4c-0.1-0.1-0.2-0.3-0.3-0.4c-0.1-0.2-0.1-0.4-0.1-0.6c0-0.2,0-0.4,0.1-0.6c0-0.2,0.1-0.4,0.1-0.5
		c0,0,0.1-0.1,0.1-0.1c0,0,0.1,0,0.1,0.1c0.1,0.3,0.3,0.4,0.5,0.5c0.2,0.1,0.4,0.1,0.6,0.2c0.4,0,0.8,0,1.3,0
		c0.5-0.1,0.9-0.2,1.4-0.3c0.5-0.1,0.9-0.3,1.2-0.5c0.4-0.2,0.6-0.5,0.7-0.7L216.5,24.7z M215.6,18.6l1.4,1.2c0.1,0.1,0.1,0.1,0,0.2
		l-1,1.2c-0.1,0.1-0.1,0.1-0.2,0l-1.5-1.2c-0.1-0.1-0.1-0.1,0-0.2l1-1.2C215.5,18.5,215.5,18.5,215.6,18.6z"/>
	<path class="st0" d="M226.6,19.7c-0.4,0.2-0.8,0.4-1.2,0.6c-0.4,0.2-0.8,0.4-1.2,0.6c-0.4,0.2-0.8,0.3-1.1,0.5
		c-0.3,0.2-0.6,0.3-0.9,0.4c-0.1,0-0.1,0-0.1,0c0,0,0-0.1,0-0.1l0.6-1.1c0-0.1,0.1-0.1,0.1-0.1c0,0,0.1-0.1,0.1-0.1l4.3-1.9
		c0.1-0.1,0.2,0,0.1,0.1l-0.5,1.1C226.8,19.7,226.7,19.7,226.6,19.7z"/>
	<path class="st0" d="M221.8,32.3h-0.2c-0.2,0-0.4-0.1-0.5-0.3c-0.1-0.2-0.2-0.4-0.2-0.6c0-0.1,0-0.2,0-0.3c0-0.1,0.1-0.2,0.1-0.3
		c0.1-0.1,0.1-0.2,0.2-0.2c0.1-0.1,0.2-0.1,0.3-0.1h0.2c0.2,0,0.5,0,0.8,0c0.3,0,0.6-0.1,0.8-0.1c0.3-0.1,0.5-0.2,0.8-0.3
		c0.3-0.1,0.5-0.3,0.7-0.6c0.2-0.2,0.3-0.4,0.4-0.6c0.1-0.2,0.2-0.4,0.3-0.7c0-0.1,0.1-0.2,0.2-0.2c0.1,0,0.1,0,0.1,0.1
		c0,0.1,0,0.2,0,0.3c0,0.1,0,0.3,0,0.4c0,0.2,0.1,0.4,0.2,0.6c0.1,0.2,0.3,0.4,0.5,0.6c0.2,0.2,0.5,0.3,0.9,0.4
		c0.4,0.1,0.8,0.2,1.3,0.2h0.2c0.1,0,0.2,0,0.3,0.1c0.1,0.1,0.2,0.1,0.2,0.2c0.1,0.1,0.1,0.2,0.1,0.3c0,0.1,0,0.2,0,0.3
		c0,0.2-0.1,0.4-0.2,0.6c-0.1,0.2-0.3,0.3-0.5,0.3h-0.2c-0.4,0-0.8,0-1.2-0.1c-0.4-0.1-0.7-0.2-1-0.4c-0.5-0.3-0.9-0.8-1.2-1.4
		c-0.2,0.4-0.4,0.6-0.6,0.9s-0.5,0.4-0.8,0.6c-0.3,0.1-0.6,0.3-1,0.3C222.5,32.3,222.1,32.3,221.8,32.3z M225,34l1.4,1.2
		c0.1,0.1,0.1,0.1,0,0.2l-1,1.2c-0.1,0.1-0.1,0.1-0.2,0l-1.5-1.2c-0.1-0.1-0.1-0.1,0-0.2l1-1.2C224.9,33.9,224.9,33.9,225,34z"/>
	<path class="st1" d="M231.1,27.2c0-0.1,0.1-0.2,0.1-0.3c0.1-0.2,0.1-0.3,0.2-0.4c0.1-0.1,0.1-0.3,0.2-0.4c0.1-0.1,0.1-0.1,0.1-0.1
		c0.3,0.7,0.5,1.4,0.7,1.9c0.2,0.6,0.4,1,0.7,1.4c0.2,0.3,0.4,0.5,0.5,0.7c0.2,0.2,0.4,0.3,0.6,0.4c0.2,0.1,0.4,0.1,0.7,0.2
		c0.2,0,0.5,0,0.7,0h0.2c0.2,0,0.4,0.1,0.5,0.3s0.2,0.4,0.2,0.6c0,0.2-0.1,0.4-0.2,0.6c-0.1,0.2-0.3,0.3-0.6,0.3h-0.2
		c-0.8,0-1.5-0.2-2.1-0.5c-0.6-0.3-1.1-0.8-1.4-1.4c-0.1,0.4-0.3,0.7-0.5,0.9s-0.5,0.4-0.8,0.6c-0.3,0.2-0.7,0.3-1,0.3
		c-0.4,0.1-0.8,0.1-1.2,0.1h-0.2c-0.2,0-0.4-0.1-0.5-0.3c-0.1-0.2-0.2-0.4-0.2-0.6c0-0.2,0.1-0.4,0.2-0.6c0.1-0.2,0.3-0.3,0.5-0.3
		h0.2c0.2,0,0.4,0,0.7,0c0.3,0,0.6,0,0.9-0.1c0.3-0.1,0.6-0.1,0.9-0.2c0.3-0.1,0.5-0.3,0.8-0.4c0-0.1-0.1-0.3-0.2-0.5
		c-0.1-0.2-0.1-0.4-0.2-0.6c-0.1-0.2-0.1-0.4-0.2-0.6c-0.1-0.2-0.1-0.4-0.2-0.5C231.1,27.5,231.1,27.3,231.1,27.2z M230.8,20.9
		l1.4,1.2c0.1,0.1,0.1,0.1,0,0.2l-1,1.2c-0.1,0.1-0.1,0.1-0.2,0l-1.5-1.2c-0.1-0.1-0.1-0.1,0-0.2l1-1.2
		C230.6,20.8,230.7,20.8,230.8,20.9z"/>
	<path class="st1" d="M236.4,22.1c0.3-0.1,0.5-0.3,0.8-0.4s0.5-0.3,0.7-0.5c0.2-0.2,0.5-0.4,0.7-0.6c0.2-0.2,0.5-0.4,0.7-0.7
		c-0.2-0.1-0.4-0.2-0.7-0.3c-0.2-0.1-0.4-0.3-0.6-0.5c-0.1-0.1-0.1-0.2-0.1-0.3c0-0.1,0-0.3,0-0.4c0.1-0.2,0.2-0.4,0.3-0.6
		c0.1-0.2,0.2-0.4,0.4-0.6c0.2-0.2,0.3-0.3,0.5-0.4c0.2-0.1,0.4-0.2,0.6-0.2c0.2,0,0.4,0.1,0.5,0.3c0.1,0.2,0.2,0.5,0.2,0.7
		c0,0.3,0,0.6,0,0.8c0,0.3,0,0.5-0.1,0.6c0,0,0,0.1,0,0.1c0.1,0.1,0.2,0.1,0.2,0.2c0,0,0.1,0.1,0.1,0.2c0,0.1,0.1,0.3,0,0.4
		c0,0.2-0.1,0.3-0.1,0.4c-0.1,0.1-0.1,0.1-0.2,0.1c0,0-0.1,0-0.1-0.1c0,0-0.1-0.1-0.1-0.1c0,0-0.1-0.1-0.2-0.1
		c-0.2,0.3-0.5,0.5-0.7,0.8c-0.2,0.2-0.5,0.5-0.8,0.7c-0.3,0.2-0.6,0.4-0.9,0.5c-0.3,0.2-0.6,0.3-1,0.4c-0.1,0-0.3,0.1-0.4,0.1
		c-0.1,0-0.2,0-0.2,0c0,0,0-0.1,0.1-0.2C236.2,22.2,236.3,22.1,236.4,22.1z M238.6,18.1c0.2,0.2,0.4,0.4,0.6,0.5
		c0.2,0.1,0.4,0.2,0.6,0.3h0c0-0.1,0-0.1,0-0.3c0-0.1,0-0.2,0-0.3c0-0.1,0-0.2,0-0.3c0-0.1-0.1-0.2-0.1-0.3
		c-0.1-0.1-0.2-0.1-0.3-0.1c-0.1,0-0.2,0-0.3,0.1c-0.1,0-0.2,0.1-0.3,0.2C238.6,18,238.6,18.1,238.6,18.1z"/>
	<path class="st1" d="M235.7,32.3h-0.2c-0.2,0-0.4-0.1-0.5-0.3c-0.1-0.2-0.2-0.4-0.2-0.6c0-0.1,0-0.2,0-0.3c0-0.1,0.1-0.2,0.1-0.3
		c0.1-0.1,0.1-0.2,0.2-0.2c0.1-0.1,0.2-0.1,0.3-0.1h0.2c0.2,0,0.5,0,0.8,0c0.3,0,0.6-0.1,0.8-0.1c0.3-0.1,0.5-0.2,0.8-0.3
		c0.3-0.1,0.5-0.3,0.7-0.6c0.2-0.2,0.3-0.4,0.4-0.6c0.1-0.2,0.2-0.4,0.3-0.7c0-0.1,0.1-0.2,0.2-0.2c0.1,0,0.1,0,0.1,0.1
		c0,0.1,0,0.2,0,0.3c0,0.1,0,0.3,0,0.4c0,0.2,0.1,0.4,0.2,0.6c0.1,0.2,0.3,0.4,0.5,0.6c0.2,0.2,0.5,0.3,0.9,0.4
		c0.4,0.1,0.8,0.2,1.3,0.2h0.2c0.1,0,0.2,0,0.3,0.1c0.1,0.1,0.2,0.1,0.2,0.2c0.1,0.1,0.1,0.2,0.1,0.3c0,0.1,0,0.2,0,0.3
		c0,0.2-0.1,0.4-0.2,0.6c-0.1,0.2-0.3,0.3-0.5,0.3h-0.2c-0.4,0-0.8,0-1.2-0.1c-0.4-0.1-0.7-0.2-1-0.4c-0.5-0.3-0.9-0.8-1.2-1.4
		c-0.2,0.4-0.4,0.6-0.6,0.9c-0.2,0.2-0.5,0.4-0.8,0.6c-0.3,0.1-0.6,0.3-1,0.3C236.4,32.3,236,32.3,235.7,32.3z M240.6,37
		C240.5,37.1,240.5,37.1,240.6,37c-0.1,0.1-0.2,0.1-0.2,0l-1.4-1.1l-0.9,1.3c-0.1,0.1-0.1,0.1-0.2,0l-1.5-1.1c-0.1,0-0.1-0.1,0-0.1
		l0.9-1.3c0,0,0.1-0.1,0.1-0.1c0,0,0.1,0,0.1,0l1.4,1.1l1-1.2c0-0.1,0.1-0.1,0.1,0l1.5,1.2c0.1,0,0.1,0.1,0,0.2L240.6,37z"/>
	<path class="st0" d="M247.1,13.6c-0.4,0.2-0.8,0.4-1.2,0.6s-0.8,0.4-1.2,0.6c-0.4,0.2-0.8,0.3-1.1,0.5c-0.3,0.2-0.6,0.3-0.9,0.4
		c-0.1,0-0.1,0-0.1,0c0,0,0-0.1,0-0.1l0.6-1.1c0-0.1,0.1-0.1,0.1-0.1c0,0,0.1-0.1,0.1-0.1l4.3-1.9c0.1-0.1,0.2,0,0.1,0.1l-0.5,1.1
		C247.2,13.5,247.2,13.6,247.1,13.6z"/>
	<path class="st0" d="M245.3,16.5c0-0.1,0.1-0.1,0.1-0.1c0,0,0.1,0,0.1,0.1c0.1,0.4,0.3,0.8,0.5,1.2c0.2,0.4,0.5,0.7,0.8,0.9
		c-0.2,0.4-0.4,0.7-0.5,0.9c-0.1,0.2-0.2,0.4-0.1,0.7l1.1,9c0,0.2,0,0.4-0.1,0.7c0,0.2-0.1,0.5-0.2,0.7c-0.1,0.2-0.2,0.4-0.3,0.6
		c-0.1,0.2-0.2,0.3-0.3,0.4c-0.2,0.2-0.5,0.4-0.9,0.5c-0.3,0.1-0.7,0.2-1.1,0.3c-0.4,0.1-0.7,0.1-1.1,0.1s-0.7,0-1,0h-0.2
		c-0.3,0-0.4-0.1-0.6-0.3c-0.1-0.2-0.2-0.4-0.2-0.6c0-0.2,0.1-0.4,0.2-0.6c0.1-0.2,0.3-0.3,0.6-0.3h0.2c0.1,0,0.4,0,0.8,0
		c0.4,0,0.8,0,1.3-0.1s0.9-0.1,1.2-0.2c0.4-0.1,0.6-0.2,0.7-0.4c-0.2-1.6-0.4-3.2-0.7-4.9c-0.2-1.6-0.4-3.2-0.7-4.9
		c0-0.3-0.1-0.7-0.2-1c-0.1-0.3-0.2-0.6-0.4-0.9c-0.1-0.1-0.1-0.1-0.1-0.2c0,0,0-0.1,0.1-0.2c0.1-0.2,0.3-0.5,0.4-0.7
		C245.1,16.9,245.2,16.7,245.3,16.5z"/>
	<path class="st0" d="M262.2,9.5c-0.4,0.2-0.7,0.3-1.1,0.4c-0.4,0.1-0.8,0.1-1.2,0.1c-0.3,0-0.6-0.1-0.9-0.2
		c-0.2-0.1-0.5-0.3-0.7-0.5c-0.1,0.2-0.3,0.4-0.5,0.6c-0.2,0.1-0.4,0.2-0.6,0.3c-0.3,0-0.5,0-0.6-0.2c-0.2-0.1-0.3-0.3-0.4-0.6
		c0,0-0.1,0.1-0.1,0.2c0,0.1-0.1,0.2-0.2,0.3c-0.1,0.1-0.2,0.2-0.3,0.3c-0.1,0.1-0.2,0.2-0.4,0.2c-0.1,0.1-0.3,0.1-0.4,0.2
		s-0.2,0.2-0.4,0.2c-0.1,0.1-0.1,0.2-0.1,0.3c0,0,0,0.1,0.1,0.1c0.1,0.1,0.1,0.1,0.2,0.1c0.3,0.1,0.6,0.2,0.9,0.2c0.3,0,0.6,0,0.9,0
		c0.3,0,0.6,0,0.9-0.1c0.3,0,0.6-0.1,0.9-0.1c0.4,0,0.7-0.1,1-0.1c0.3,0,0.6-0.1,0.9-0.1c0.3,0,0.6-0.1,0.9-0.1c0.3,0,0.6,0,1-0.1
		c0.1,0,0.1,0,0,0.1c-0.1,0.1-0.2,0.3-0.2,0.4c-0.1,0.1-0.1,0.2-0.2,0.3c-0.4,0-0.7,0.1-1,0.1c-0.3,0-0.5,0-0.8,0.1
		c-0.3,0-0.5,0-0.8,0.1c-0.3,0-0.6,0.1-1,0.1c-0.6,0.1-1.1,0.1-1.6,0.2c-0.5,0.1-1,0.1-1.4,0.1c-0.4,0-0.7-0.1-0.9-0.2
		c-0.2-0.1-0.3-0.3-0.3-0.7c0-0.3,0.1-0.5,0.2-0.7c0.1-0.2,0.2-0.4,0.4-0.6c0.2-0.2,0.3-0.3,0.5-0.4c0.2-0.1,0.4-0.3,0.6-0.4
		c0.1-0.1,0.2-0.2,0.3-0.2c0.1-0.1,0.1-0.2,0.1-0.3c0-0.4-0.1-1-0.2-1.5c-0.1-0.6-0.1-1.2-0.3-1.9c0,0,0,0,0-0.1c0,0,0-0.1,0-0.1
		c0.1-0.1,0.1-0.2,0.1-0.2c0-0.1,0.1-0.1,0.1-0.3c0,0,0,0,0.1,0c0,0,0,0,0,0c0,0.3,0.1,0.6,0.1,1c0,0.3,0.1,0.7,0.1,1
		c0,0.3,0.1,0.7,0.1,0.9c0,0.3,0.1,0.5,0.1,0.7c0.1,0.5,0.4,0.8,0.9,0.7c0.2,0,0.4-0.1,0.6-0.2c0.2-0.1,0.3-0.3,0.5-0.6
		c0,0,0.1-0.1,0.1-0.1c0,0,0.1,0,0.2,0.1c0.2,0.4,0.4,0.6,0.7,0.6c0.1-0.2,0.3-0.4,0.5-0.7c0.2-0.2,0.3-0.4,0.5-0.6
		c0.2-0.2,0.4-0.4,0.6-0.5c0.2-0.2,0.4-0.3,0.7-0.3c0.2,0,0.4-0.1,0.5,0c0.2,0,0.4,0.1,0.5,0.2c0.2,0.1,0.3,0.2,0.4,0.4
		c0.1,0.2,0.2,0.3,0.2,0.5c0,0.4-0.1,0.7-0.3,0.9C262.7,9.1,262.5,9.4,262.2,9.5z M259.7,9.1c0.3,0,0.5,0,0.7,0s0.5,0,0.7-0.1
		c0.3-0.1,0.6-0.2,0.9-0.3c0.3-0.1,0.5-0.3,0.6-0.5c-0.2-0.3-0.4-0.5-0.7-0.6c-0.3-0.1-0.6,0-0.8,0.1c-0.2,0.1-0.3,0.2-0.4,0.2
		c-0.1,0.1-0.2,0.2-0.4,0.3c-0.1,0.1-0.2,0.2-0.3,0.4C259.9,8.8,259.8,9,259.7,9.1z"/>
	<path class="st0" d="M272.1,9.3c-0.4,0.2-0.8,0.4-1.2,0.6c-0.4,0.2-0.8,0.4-1.2,0.6c-0.4,0.2-0.8,0.3-1.1,0.5
		c-0.3,0.2-0.6,0.3-0.9,0.4c-0.1,0-0.1,0-0.1,0c0,0,0-0.1,0-0.1l0.6-1.1c0-0.1,0.1-0.1,0.1-0.1c0,0,0.1-0.1,0.1-0.1l4.3-1.9
		c0.1-0.1,0.2,0,0.1,0.1l-0.5,1.1C272.2,9.2,272.2,9.3,272.1,9.3z M270,14.1c-0.2,0.3-0.4,0.6-0.6,0.8c-0.2,0.2-0.5,0.3-0.8,0.3
		c-0.3,0-0.5-0.1-0.7-0.2c-0.2-0.1-0.3-0.4-0.3-0.7c0-0.2,0-0.3,0-0.5c0-0.2,0.1-0.3,0.1-0.5c0.1-0.1,0.1-0.3,0.2-0.4
		c0.1-0.1,0.2-0.2,0.3-0.2c0.1,0,0.1,0.1,0,0.2c0,0.1-0.1,0.2-0.1,0.3c0,0.1,0,0.2,0,0.3c0,0.1,0,0.2,0,0.3c0,0.1,0.1,0.2,0.2,0.2
		c0.1,0.1,0.2,0.1,0.4,0.1c0.1,0,0.3,0,0.4-0.1c0.1-0.1,0.3-0.1,0.4-0.2c0.1-0.1,0.2-0.2,0.3-0.3c0.1-0.1,0.2-0.3,0.2-0.4
		c0-0.2,0.1-0.3,0.1-0.4c0-0.1,0-0.2,0.1-0.3c0-0.1,0.1-0.2,0.2-0.2c0,0,0,0,0.1,0.1c0,0,0,0.1,0,0.1c0,0.1,0,0.1,0,0.2
		c0,0.1,0,0.1,0,0.1c0,0.2,0,0.4,0.1,0.5c0.1,0.1,0.2,0.2,0.4,0.3c0.1,0,0.3,0,0.4,0s0.3-0.1,0.5-0.2c0,0,0-0.1,0-0.1
		c0-0.1,0-0.1,0-0.2c0-0.1,0-0.2-0.1-0.3c0-0.1-0.1-0.1-0.1-0.2l0.4-0.8c0.1,0,0.1,0.1,0.2,0.3c0,0.1,0.1,0.3,0.1,0.5
		c0,0.2,0,0.3,0,0.5c0,0.2,0,0.3-0.1,0.4c-0.1,0.3-0.2,0.6-0.4,0.8c-0.2,0.2-0.4,0.4-0.7,0.4c-0.3,0.1-0.5,0-0.7-0.1
		C270.3,14.4,270.1,14.2,270,14.1z"/>
	<path class="st0" d="M278.1,15.2c-0.4,0.2-0.8,0.4-1.2,0.6c-0.4,0.2-0.8,0.4-1.2,0.6c-0.4,0.2-0.8,0.3-1.1,0.5
		c-0.3,0.2-0.6,0.3-0.9,0.4c-0.1,0-0.1,0-0.1,0c0,0,0-0.1,0-0.1l0.6-1.1c0-0.1,0.1-0.1,0.1-0.1c0,0,0.1-0.1,0.1-0.1l4.3-1.9
		c0.1-0.1,0.2,0,0.1,0.1l-0.5,1.1C278.2,15.1,278.2,15.1,278.1,15.2z"/>
	<path class="st0" d="M269.8,16.9c0-0.1,0.1-0.2,0.1-0.3c0-0.1,0.1-0.2,0.1-0.3s0.1-0.2,0.1-0.3c0-0.1,0.1-0.2,0.2-0.3
		c0-0.1,0.1-0.1,0.1-0.1c0,0,0.1,0,0.1,0.1c0,0.2,0,0.4,0.1,0.6c0,0.3,0.1,0.6,0.1,0.9c0,0.3,0.1,0.7,0.1,1.1c0,0.4,0.1,0.8,0.1,1.2
		c0,0.4,0.1,0.8,0.1,1.2c0,0.4,0,0.8,0.1,1.1c0-0.3,0.2-0.5,0.4-0.8c0.2-0.3,0.5-0.5,0.8-0.7c0.3-0.2,0.6-0.4,0.9-0.6
		s0.6-0.3,0.8-0.4c1.4-0.7,2.8-1.4,4.2-2c1.4-0.6,2.8-1.1,4.3-1.7c0.1,0,0.1,0,0.1,0c-0.1,0.3-0.2,0.5-0.3,0.8
		c-0.1,0.3-0.2,0.5-0.3,0.7c-0.5,0.2-1.1,0.4-1.7,0.7c-0.6,0.3-1.3,0.5-1.9,0.8c-0.7,0.3-1.3,0.6-1.9,0.8c-0.6,0.3-1.2,0.6-1.8,0.8
		c-0.6,0.3-1,0.5-1.5,0.8c-0.4,0.2-0.7,0.4-1,0.6c-0.1,0-0.1,0.1,0,0.1c0,0,0.1,0.1,0.2,0.1c0.4,0.3,0.9,0.6,1.4,1
		c0.5,0.4,1,0.8,1.5,1.2c0.5,0.4,1,0.9,1.4,1.3c0.4,0.4,0.8,0.9,1.1,1.3c0.2,0.3,0.3,0.5,0.4,0.9s0.2,0.6,0.2,1c0,0.3,0,0.7,0,1
		c0,0.3-0.1,0.6-0.3,0.9c-0.2,0.4-0.5,0.7-0.8,1c-0.3,0.3-0.7,0.5-1.1,0.7c-0.4,0.2-0.9,0.3-1.3,0.4c-0.5,0.1-0.9,0.1-1.4,0.1
		c-0.4,0-0.8-0.1-1.1-0.2c-0.3-0.2-0.6-0.4-0.8-0.6c-0.2-0.3-0.4-0.6-0.5-0.9c-0.1-0.4-0.2-0.7-0.3-1.1c-0.1-0.4-0.2-0.8-0.2-1.2
		c-0.1-0.4-0.1-0.8-0.1-1.2l0-0.6c-0.1,0.5-0.3,1-0.4,1.5c-0.2,0.5-0.4,1-0.7,1.5c-0.3,0.5-0.6,0.9-0.9,1.3
		c-0.4,0.4-0.8,0.8-1.2,1.1c-0.4,0.3-0.8,0.5-1.2,0.7c-0.4,0.2-0.8,0.4-1.3,0.5c-0.4,0.1-0.9,0.3-1.3,0.4c-0.4,0.1-0.9,0.2-1.4,0.3
		c-0.1,0-0.3,0-0.3,0c-0.1,0-0.2-0.1-0.2-0.1c0,0,0-0.1,0-0.1c0-0.1,0.1-0.1,0.2-0.1c1.3-0.6,2.6-1.2,3.7-1.9
		c1.1-0.7,2.2-1.6,3.2-2.7c-0.1-0.7-0.4-1.4-0.8-2.1c-0.4-0.7-0.8-1.3-1.4-1.9c-0.5-0.6-1.1-1.2-1.7-1.7c-0.6-0.5-1.2-0.9-1.8-1.3
		c-0.1,0.2-0.1,0.3-0.2,0.3c-0.1,0-0.2,0.1-0.3,0.1c-0.2,0-0.4-0.1-0.7-0.2c-0.3-0.1-0.6-0.2-0.8-0.4s-0.5-0.3-0.7-0.6
		c-0.2-0.2-0.3-0.4-0.3-0.7c0-0.1,0-0.2,0-0.3c0-0.2,0-0.3,0.1-0.5c0-0.2,0.1-0.4,0.1-0.6c0-0.2,0.1-0.4,0.1-0.6
		c0.1-0.2,0.1-0.3,0.2-0.3c0.1,0,0.2,0,0.4,0.1c0.6,0.3,1.2,0.7,1.8,1.1c0.6,0.4,1.2,0.9,1.8,1.4c0.6,0.5,1.1,1.1,1.6,1.6
		c0.5,0.6,1,1.2,1.4,1.9c0.4,0.6,0.8,1.3,1.1,2c0.3,0.7,0.5,1.4,0.6,2.1c0.2-0.4,0.4-0.7,0.6-1c0.2-0.3,0.3-0.7,0.4-1
		c0.1-0.3,0.2-0.6,0.2-1c0-0.3,0.1-0.7,0.1-1c0-0.5,0-1,0-1.5c0-0.5-0.1-1.1-0.1-1.7c0-0.6-0.1-1.2-0.2-1.9
		c-0.1-0.7-0.1-1.4-0.2-2.1c0-0.1,0-0.1,0-0.2C269.7,17,269.7,17,269.8,16.9z M273.7,31.1c0.4,0,0.7,0,1.1,0c0.4,0,0.8-0.1,1.2-0.2
		c0.4-0.1,0.7-0.3,1-0.4c0.3-0.2,0.6-0.4,0.8-0.6c-0.1-0.4-0.2-0.8-0.5-1.2c-0.3-0.4-0.6-0.9-1-1.3c-0.4-0.4-0.8-0.9-1.3-1.3
		c-0.5-0.4-1-0.8-1.4-1.2c-0.5-0.4-0.9-0.7-1.3-1c-0.4-0.3-0.8-0.5-1-0.6c0,0.5,0.1,0.9,0.1,1.4c0,0.5,0.1,1,0.1,1.5
		c0,0.5,0.1,1,0.2,1.5c0.1,0.5,0.2,1,0.3,1.5c0.1,0.3,0.1,0.5,0.2,0.7c0.1,0.2,0.2,0.4,0.4,0.6c0.2,0.2,0.3,0.3,0.6,0.4
		C273.1,31,273.4,31.1,273.7,31.1z"/>
	<path d="M300.7,26.3c0,0.2-0.1,0.4-0.3,0.6c-0.2,0.3-0.6,0.5-1.1,0.8c0,0.5-0.1,1-0.2,1.5c-0.1,0.4-0.3,0.6-0.5,0.6
		c-0.5-0.5-1-0.9-1.4-1.3c-0.5-0.4-1-0.6-1.6-0.6c0,0.5,0.3,1.1,0.8,1.6c0.4,0.5,0.8,0.9,1.2,1.4c0,0.2-0.4,0.4-1.3,0.6
		c-0.7,0.1-1.2,0.2-1.6,0.2c-0.6,1.9-1.5,3.6-2.6,5.2c-0.5,0.7-1.1,1.4-2,2.2c-1.1,1.1-1.9,1.6-2.4,1.6c-0.2,0-0.3-0.1-0.3-0.3
		c0-0.1,0.3-0.5,1-1.2c0.9-1,1.5-1.9,2-2.8c0.8-1.4,1.3-3.1,1.6-4.9c-0.6-0.1-0.9-0.2-1.1-0.2c-0.2-0.1-0.2-0.2-0.2-0.4
		c1.3-1,1.9-2,1.9-3c-0.5,0-1.1,0.2-1.5,0.6c-0.3,0.3-0.8,0.8-1.3,1.4c-0.2,0-0.3-0.2-0.5-0.7c-0.2-0.5-0.3-1-0.3-1.5
		c-0.6-0.3-0.9-0.5-0.9-0.5c-0.3-0.3-0.5-0.5-0.5-0.8c0-0.2,0.1-0.3,0.3-0.6c0.1-0.1,0.5-0.3,1.1-0.7c0-1.4,0.2-2.1,0.7-2.1
		c1.1,1.1,2,1.8,2.9,1.9c0-0.5-0.2-1-0.7-1.7c0,0-0.4-0.5-1.2-1.4c0-0.1,0.1-0.2,0.3-0.3c0.2-0.1,0.6-0.2,1.2-0.3
		c-0.3-1.4-0.8-2.9-1.7-4.4c-0.9-1.5-1.8-2.8-3-3.8c-0.2-0.2-0.3-0.3-0.3-0.4c0-0.1,0.1-0.2,0.3-0.2c0.3,0,0.9,0.3,1.7,0.9
		c2.4,1.7,4.2,4.3,5.5,7.8c1.9,0,2.8,0.3,2.8,0.8c-0.5,0.4-0.9,0.9-1.2,1.3c-0.4,0.5-0.6,1.1-0.6,1.7c0.4,0,0.9-0.2,1.4-0.6l1.5-1.3
		c0.3,0,0.5,0.6,0.7,1.8c0,0.1,0,0.2,0,0.3C300.2,25.5,300.7,25.9,300.7,26.3z M296.4,22c0-0.1-0.2-0.1-0.5-0.2
		c-0.3-0.1-0.6-0.1-0.7-0.1h-0.6c-0.1,0-0.2,0-0.4,0.1c-0.5-1.6-1.3-3.2-2.3-4.7c-1.1-1.6-2.5-3-4-4c1,1,1.9,2.1,2.7,3.5
		c1,1.6,1.6,3.3,1.8,5.1c-0.7,0.1-1,0.2-1.1,0.3c0.8,0.6,1.3,1.3,1.7,2c0.1-0.3,0.2-0.6,0.4-1c0,0,0.1-0.2,0.2-0.5
		c0.1-0.3,0.2-0.4,0.2-0.4c0.2,0,0.5,0.6,1,1.8c0.2-0.5,0.5-0.9,0.7-1.2C295.9,22.6,296.1,22.3,296.4,22z M291.9,27.4
		c-0.2-0.1-0.6-0.2-1.5-0.5c-0.5-0.2-0.8-0.3-0.8-0.4c0,0,0.4-0.2,1.2-0.6c0.2-0.1,0.5-0.2,1-0.4c-0.4-0.2-0.9-0.4-1.3-0.7
		c-0.2-0.2-0.5-0.4-0.9-0.8c-0.2,0-0.2,0.5-0.2,1.6c-0.8,0.4-1.2,0.7-1.2,1c0,0.2,0.4,0.5,1.2,0.8c0,1.1,0.1,1.7,0.3,1.7
		c0,0,0.3-0.2,0.8-0.7C291.2,27.8,291.6,27.5,291.9,27.4z M296.6,30.7c-0.6-0.5-1.2-1.2-1.6-1.9c-0.1,0.2-0.2,0.5-0.4,0.9
		c0,0-0.1,0.2-0.3,0.6c-0.1,0.3-0.2,0.4-0.3,0.4c0,0-0.1-0.1-0.3-0.4c-0.1-0.3-0.2-0.4-0.2-0.5c0-0.1-0.2-0.5-0.4-0.9
		c-0.1,0.4-0.4,0.7-0.7,1.1c-0.2,0.3-0.5,0.6-0.8,0.9c0,0.1,0.3,0.2,1,0.3c-0.4,1.7-0.7,2.7-0.8,3.2c-0.6,1.9-1.7,3.7-3.2,5.4
		c2.5-1.7,4.4-4.6,5.7-8.6c1,0,1.4,0,1.2,0C296.2,31,296.6,30.9,296.6,30.7z M295.8,26.4c0-0.5-0.2-0.9-0.5-1.2
		c-0.3-0.3-0.7-0.5-1.2-0.5c-0.5,0-0.9,0.2-1.2,0.5c-0.3,0.3-0.5,0.7-0.5,1.2c0,0.5,0.1,0.9,0.5,1.2c0.3,0.3,0.7,0.5,1.2,0.5
		c0.5,0,0.9-0.1,1.2-0.5C295.6,27.3,295.8,26.9,295.8,26.4z M299.9,26.3c0-0.1-0.1-0.2-0.3-0.4c-0.2-0.1-0.5-0.3-0.9-0.4
		c0-0.5,0-0.9-0.1-1.2c-0.1-0.3-0.2-0.5-0.2-0.5c0,0-0.3,0.2-0.7,0.7c-0.4,0.4-0.9,0.8-1.4,1c0.2,0.1,0.6,0.3,1,0.5
		c0.1,0,0.3,0.1,0.8,0.3c0.4,0.1,0.6,0.2,0.6,0.3c0,0.1-0.3,0.2-0.8,0.4c-0.9,0.2-1.4,0.4-1.5,0.4c0.5,0.2,1,0.4,1.3,0.7
		c0.2,0.2,0.5,0.4,0.9,0.8c0.1,0,0.2-0.1,0.2-0.4c0-0.2,0-0.6,0-1.1C299.5,26.8,299.9,26.5,299.9,26.3z"/>
	<rect class="st2" width="398.7" height="46.9"/>
</g>
</svg>
