<?xml version="1.0" encoding="utf-8"?>
<!-- Generator: Adobe Illustrator 19.2.0, SVG Export Plug-In . SVG Version: 6.00 Build 0)  -->
<svg version="1.1" id="Layer_1" xmlns="http://www.w3.org/2000/svg" xmlns:xlink="http://www.w3.org/1999/xlink" x="0px" y="0px"
	 viewBox="0 0 241.8 62.2" style="enable-background:new 0 0 241.8 62.2;" xml:space="preserve">
<style type="text/css">
	.st0{opacity:0.75;}
	.st1{fill:#FFFFFF;}
	.st2{fill:#CB9248;}
	.st3{fill:#F4CE83;fill-opacity:0.5;}
	.st4{opacity:0.5;}
	.st5{fill:#F4CE83;}
</style>
<g>
	<g>
		<g>
			<g class="st0">
				<path d="M64.2,55.7c0.2-0.1,0.2-0.1,0.2,0.1c0,1-0.4,2-0.9,2.3l-7.4,4.1c-0.1,0.1-0.2,0-0.2-0.1c0-0.5,0.2-1.4,0.4-1.8
					c0.2-0.3,0.5-0.6,1.2-1L64.2,55.7z"/>
				<path d="M48.6,38c1.7,0.8,4.5,1.2,8.2,1.2c5.1,0,9.2-0.7,11.9-1.5c3.7-1.1,5.3-1.7,7.3-3.1c0.1-0.1,0.3-0.3,0.5-0.3
					c0.1,0,0.3,0.2,0.3,0.8c0,2.2,1.2,3.5,2.6,3.5H80c1.1,0,1.7,0.7,1.7,2c0,1.4-0.5,2.1-1.6,2.1h-0.7c-2.5,0-4.1-1.3-4.6-4
					c-1.9,1-4.3,2.2-6.6,2.9c-3.5,1-7.4,1.9-11.9,1.9c-3.7,0-6.8-0.5-8.8-1.3c-2.6-1-3.9-2.6-3.9-5.3c0-2.3,1-4.6,1.5-5.5
					c0.4-0.6,0.8-1.1,1.1-1.1c0.1,0,0.2,0.1,0.2,0.3c0,0.2-0.1,0.7-0.3,1.1c-0.4,0.9-0.7,1.9-0.7,2.8C45.4,35.3,46,36.8,48.6,38z
					 M62.6,51.1c0.2,0.1,0.1,0.2,0,0.3c-0.4,0.6-1.9,2.2-2.5,3c-0.1,0.2-0.2,0.2-0.4,0c-0.8-0.5-2.6-1.9-3.1-2.6
					c-0.1-0.2-0.1-0.2,0-0.4c0.6-0.9,1.6-2.1,2.3-2.8c0.3-0.3,0.4-0.4,0.5-0.2C60.1,49.2,61.4,50.3,62.6,51.1z"/>
				<path d="M83.5,4c1.2,0,3,1.7,3,3.7c0,0.7-0.1,1.4-0.3,2.1c-0.5,1.4-1.7,2.2-3.2,2.2c-1.4,0-2.4-1.1-2.4-2.4
					C80.5,7.9,82.6,4,83.5,4z M83.1,6.8c-0.5,0-1.3,1.1-1.3,1.7c0,0.5,0.7,1,1.4,1c0.9,0,2-0.5,2-0.9C85.2,8.3,84.1,6.8,83.1,6.8z"
					/>
				<path d="M79.3,38.6h0.4c1,0,1.8-0.3,2.3-0.8c0.8-0.8,0.9-1.9,0.9-3.2c0-2.6-0.2-8.1-0.6-16.4c0-0.9,0.3-1.9,1-3.1
					c0.3-0.6,0.6-1.1,0.9-1.1c0.2,0,0.4,0.3,0.5,1.3c0.4,6.2,0.6,14.4,1.3,20.1c0.1,1.1,0.6,2,1.4,2.6c0.5,0.4,1.1,0.6,1.7,0.6h0.5
					c1.1,0,1.7,0.7,1.7,2c0,1.4-0.6,2.1-1.7,2.1H89c-2.5,0-4.4-1.8-5-4.2c-0.6,2.8-2,4.2-4.3,4.2h-0.4c-1.2,0-1.8-0.7-1.8-2.1
					C77.5,39.2,78.1,38.6,79.3,38.6z"/>
				<path d="M100.3,7.5c0.2-0.1,0.2-0.1,0.2,0.1c0,1-0.4,2-0.9,2.3l-7.4,4.1c-0.1,0.1-0.2,0-0.2-0.1c0-0.5,0.2-1.4,0.4-1.8
					c0.2-0.3,0.5-0.6,1.2-1L100.3,7.5z"/>
				<path d="M103.3,38.6c1.2,0,1.8,0.7,1.8,2c0,1.4-0.6,2.1-1.8,2.1h-0.5c-3.8,0-6.1-0.8-7.8-1.7c-1.4,0.9-3.4,1.7-5.8,1.7h-0.4
					c-1.1,0-1.7-0.7-1.7-2.1c0-1.3,0.6-2,1.7-2h0.4c1.6,0,2.6-0.2,3.1-0.7c-0.1-0.4-0.2-0.9-0.2-1.3c0-4.1,4.6-9.2,7.2-9.2
					c1.5,0,2.3,1.7,2.3,3.9c0,2.2-0.9,5-2.7,6.6c0.8,0.4,2.1,0.7,3.8,0.7H103.3z M98.7,17.3c0.3-0.3,0.4-0.4,0.6-0.2
					c0.9,0.9,1.8,1.9,2.8,2.5c0.3,0.2,0.3,0.3,0,0.6c-0.8,0.9-1.6,1.8-2.4,2.7c-0.2,0.2-0.3,0.2-0.5,0c-0.7-0.5-1.7-1.3-2.6-2.2
					c-0.5,0.6-1.6,1.8-2,2.1c-0.2,0.1-0.3,0.3-0.7,0.1c-0.9-0.6-2.1-1.5-2.8-2.5c-0.2-0.2-0.2-0.3,0-0.6c0.7-0.8,1.6-1.9,2.5-2.7
					c0.2-0.2,0.3-0.2,0.6,0.1c0.7,0.7,1.9,1.8,2.6,2.2C97.3,18.8,98.2,17.7,98.7,17.3z M97.6,31.5c-1.5,0-2.9,1.6-2.9,2.2
					c0,0.9,0.7,1.6,2.2,2.5c0.5-0.2,2.6-1.7,2.6-2.4C99.4,32.4,98.9,31.5,97.6,31.5z"/>
				<path d="M106.6,3c1.2,0,3,1.7,3,3.7c0,0.7-0.1,1.4-0.3,2.1c-0.5,1.4-1.7,2.2-3.2,2.2c-1.4,0-2.4-1.1-2.4-2.4
					C103.7,6.9,105.7,3,106.6,3z M106.3,5.9c-0.5,0-1.3,1.1-1.3,1.7c0,0.5,0.7,1,1.4,1c0.9,0,2-0.5,2-0.9
					C108.4,7.4,107.3,5.9,106.3,5.9z"/>
				<path d="M107.2,40.8c-1,1.2-2.1,1.9-4.1,1.9h-0.4c-1.2,0-1.8-0.7-1.8-2.2c0-1.3,0.6-1.9,1.8-1.9h0.4c1,0,1.8-0.1,2.6-0.4
					c0.7-0.2,1.1-0.5,1.2-0.8c0-3.1-1.1-9.6-1.7-15.9c0-0.7-0.5-2.9-0.7-3.8c0-0.1,0-0.3,0-0.4c0-0.5,0.6-1.7,1-2.4
					c0.5-0.9,0.9-1.6,1.3-1.6c0.1,0,0.2,0.1,0.3,0.4c0.5,1.8,1.1,2.6,1.5,3.3c0.1,0.2,0.2,0.3,0.2,0.5c0,0.1,0,0.1,0,0.2
					c-0.1,0.4-0.7,1.5-1,1.9c0.3,6.1,1.3,11,1.3,14C109,36.6,108.4,39,107.2,40.8z"/>
				<path d="M117.2,42.7c-0.2,0-0.3-0.3-0.3-1.2c0-5.4-2-20.3-2-22.7c0-1.2,0.8-3.1,1.5-4.4c0.2-0.4,0.6-0.9,0.8-0.9
					c0.2,0,0.3,0.3,0.3,1.4c0.2,3.9,1.3,13,1.3,19.6c0,2.6-0.2,4.9-0.6,6.2C117.8,42,117.5,42.7,117.2,42.7z"/>
				<path d="M152.7,16.7c0,0.9-0.2,1.8-0.5,2.6c0.4,0.2,0.6,0.5,0.6,0.7c0,0.7-0.3,1.3-0.6,1.8c-0.1,0.1-0.1,0.1-0.2,0.1l-0.9-0.6
					c-0.9,1.4-2.3,3.1-4.4,4.1c-0.8,0.4-1.7,0.7-2.6,0.7c-0.5,0-0.7-0.1-0.7-0.2c0-0.2,0.4-0.3,1-0.7c1.5-0.9,4.5-3.1,5.5-4.5
					c-0.8-0.6-1.9-1.3-1.9-2.4c0-0.8,0.4-1.5,1.1-2.3c0.7-1,1.5-1.4,2.2-1.4C152.3,14.5,152.7,15.7,152.7,16.7z M149.5,17.5
					c0,0,0,0.1,0,0.1c0,0.2,0.8,0.8,1.4,1c0.2-0.3,0.2-0.6,0.2-1.2c0-0.5-0.2-0.8-0.6-0.8C150.2,16.7,149.7,17,149.5,17.5z"/>
				<path d="M138.8,38c1.7,0.8,4.5,1.2,8.2,1.2c5.1,0,9.2-0.7,11.9-1.5c3.7-1.1,5.3-1.7,7.3-3.1c0.1-0.1,0.3-0.3,0.5-0.3
					c0.1,0,0.3,0.2,0.3,0.8c0,2.2,1.2,3.5,2.6,3.5h0.6c1.1,0,1.7,0.7,1.7,2c0,1.4-0.5,2.1-1.6,2.1h-0.7c-2.5,0-4.1-1.3-4.6-4
					c-1.9,1-4.3,2.2-6.6,2.9c-3.5,1-7.4,1.9-11.9,1.9c-3.7,0-6.8-0.5-8.8-1.3c-2.6-1-3.9-2.6-3.9-5.3c0-2.3,1-4.6,1.5-5.5
					c0.4-0.6,0.8-1.1,1.1-1.1c0.1,0,0.2,0.1,0.2,0.3c0,0.2-0.1,0.7-0.3,1.1c-0.4,0.9-0.7,1.9-0.7,2.8
					C135.5,35.3,136.2,36.8,138.8,38z M152.8,51.1c0.2,0.1,0.1,0.2,0,0.3c-0.4,0.6-1.9,2.2-2.5,3c-0.1,0.2-0.2,0.2-0.4,0
					c-0.8-0.5-2.6-1.9-3.1-2.6c-0.1-0.2-0.1-0.2,0-0.4c0.6-0.9,1.6-2.1,2.3-2.8c0.3-0.3,0.4-0.4,0.5-0.2
					C150.3,49.2,151.6,50.3,152.8,51.1z"/>
				<path d="M177.9,17.8c0.2-0.1,0.2-0.1,0.2,0.1c0,1-0.4,2-0.9,2.3l-7.4,4.1c-0.1,0.1-0.2,0-0.2-0.1c0-0.5,0.2-1.4,0.4-1.8
					c0.2-0.3,0.5-0.6,1.2-1L177.9,17.8z"/>
				<path d="M179.7,38.6h0.2c1,0,1.6,1,1.6,2.1c0,1-0.5,2-1.6,2h-0.2c-1.1,0-2.2-0.1-3.2-0.9c-1.4-1.1-1.9-3.1-2-3.4
					c-0.1,1.2-1.9,4.3-4.6,4.3h-0.2c-1.1,0-1.6-1-1.6-2c0-1,0.5-2.1,1.7-2.1h0.1c2.2,0,3.5-0.9,3.8-1.4c0,0,0.1-0.2,0.1-0.2
					c0-0.3-0.7-4.6-0.7-5c0-0.2,0-0.4,0.1-0.6c0.2-0.7,0.6-1.7,1-2.4c0.2-0.4,0.3-0.6,0.4-0.6s0.3,0.3,0.4,0.7
					c0.5,1.9,1,5.6,1.4,6.8C177.1,37.5,178.9,38.6,179.7,38.6z M178.3,49.3c0.2,0.1,0.1,0.2,0,0.3c-0.4,0.6-1.9,2.2-2.5,3
					c-0.1,0.2-0.2,0.2-0.4,0c-0.8-0.5-2.6-1.9-3.1-2.6c-0.1-0.2-0.1-0.2,0-0.4c0.6-0.9,1.6-2.1,2.3-2.8c0.3-0.3,0.4-0.4,0.5-0.2
					C175.8,47.4,177.1,48.5,178.3,49.3z"/>
				<path d="M197.6,19c0.2-0.1,0.2-0.1,0.2,0.1c0,1-0.4,2-0.9,2.3l-7.4,4.1c-0.1,0.1-0.2,0-0.2-0.1c0-0.5,0.2-1.4,0.4-1.8
					c0.2-0.3,0.5-0.6,1.2-1L197.6,19z"/>
				<path d="M184.3,40.9c-1.1,1-2.2,1.8-4.2,1.8h-0.5c-1.2,0-1.8-0.7-1.8-2.1c0-1.3,0.6-2,1.9-2h0.4c1.6,0,2.8-0.3,3.8-0.8
					c1.3-0.7,2.1-1.8,3.1-3.3c0.1-0.2,0.4-0.4,0.6-0.4c0.3,0,0.4,0.4,0.5,1.3c0.2,1.5,0.8,2.7,2.7,2.7c2,0,3.9-1.7,4.7-3.6
					c0.4-1.1,0.8-1.6,1.1-1.6c0.2,0,0.3,0.1,0.3,0.5c0,0.4-0.1,0.8-0.1,1.3c0,2.2,2,3.2,3.3,3.2c0.4,0,1.2-0.1,1.2-0.8
					c0-0.5-0.3-1-0.8-1.8c0-0.1-0.1-0.1-0.1-0.2c0-0.5,1.3-2.5,1.8-3.2c0.1-0.1,0.2-0.3,0.4-0.3c0.1,0,0.2,0.1,0.4,0.4
					c0.4,0.7,0.5,1.6,0.5,2.8c0,2.2-1.5,6.9-4.7,6.9c-1.9,0-3.3-1-3.8-2.9c-1.4,2.5-3.3,3.4-4.7,3.4c-1.9,0-3.2-1.1-3.6-3.9
					C185.7,39.3,185.1,40.1,184.3,40.9z"/>
			</g>
			<g>
				<g>
					<path class="st1" d="M61.2,52.7c0.2-0.1,0.2-0.1,0.2,0.1c0,1-0.4,2-0.9,2.3l-7.4,4.1c-0.1,0.1-0.2,0-0.2-0.1
						c0-0.5,0.2-1.4,0.4-1.8c0.2-0.3,0.5-0.6,1.2-1L61.2,52.7z"/>
					<path class="st1" d="M45.6,35c1.7,0.8,4.5,1.2,8.2,1.2c5.1,0,9.2-0.7,11.9-1.5c3.7-1.1,5.3-1.7,7.3-3.1
						c0.1-0.1,0.3-0.3,0.5-0.3c0.1,0,0.3,0.2,0.3,0.8c0,2.2,1.2,3.5,2.6,3.5H77c1.1,0,1.7,0.7,1.7,2c0,1.4-0.5,2.1-1.6,2.1h-0.7
						c-2.5,0-4.1-1.3-4.6-4c-1.9,1-4.3,2.2-6.6,2.9c-3.5,1-7.4,1.9-11.9,1.9c-3.7,0-6.8-0.5-8.8-1.3c-2.6-1-3.9-2.6-3.9-5.3
						c0-2.3,1-4.6,1.5-5.5c0.4-0.6,0.8-1.1,1.1-1.1c0.1,0,0.2,0.1,0.2,0.3c0,0.2-0.1,0.7-0.3,1.1c-0.4,0.9-0.7,1.9-0.7,2.8
						C42.4,32.3,43,33.8,45.6,35z M59.6,48.1c0.2,0.1,0.1,0.2,0,0.3c-0.4,0.6-1.9,2.2-2.5,3c-0.1,0.2-0.2,0.2-0.4,0
						c-0.8-0.5-2.6-1.9-3.1-2.6c-0.1-0.2-0.1-0.2,0-0.4c0.6-0.9,1.6-2.1,2.3-2.8c0.3-0.3,0.4-0.4,0.5-0.2
						C57.1,46.2,58.4,47.3,59.6,48.1z"/>
					<path class="st1" d="M80.5,1c1.2,0,3,1.7,3,3.7c0,0.7-0.1,1.4-0.3,2.1c-0.5,1.4-1.7,2.2-3.2,2.2c-1.4,0-2.4-1.1-2.4-2.4
						C77.5,4.9,79.6,1,80.5,1z M80.1,3.8c-0.5,0-1.3,1.1-1.3,1.7c0,0.5,0.7,1,1.4,1c0.9,0,2-0.5,2-0.9C82.2,5.3,81.1,3.8,80.1,3.8z"
						/>
					<path class="st1" d="M76.3,35.6h0.4c1,0,1.8-0.3,2.3-0.8c0.8-0.8,0.9-1.9,0.9-3.2c0-2.6-0.2-8.1-0.6-16.4c0-0.9,0.3-1.9,1-3.1
						c0.3-0.6,0.6-1.1,0.9-1.1c0.2,0,0.4,0.3,0.5,1.3c0.4,6.2,0.6,14.4,1.3,20.1c0.1,1.1,0.6,2,1.4,2.6c0.5,0.4,1.1,0.6,1.7,0.6h0.5
						c1.1,0,1.7,0.7,1.7,2c0,1.4-0.6,2.1-1.7,2.1H86c-2.5,0-4.4-1.8-5-4.2c-0.6,2.8-2,4.2-4.3,4.2h-0.4c-1.2,0-1.8-0.7-1.8-2.1
						C74.5,36.2,75.1,35.6,76.3,35.6z"/>
					<path class="st1" d="M97.3,4.5c0.2-0.1,0.2-0.1,0.2,0.1c0,1-0.4,2-0.9,2.3l-7.4,4.1c-0.1,0.1-0.2,0-0.2-0.1
						c0-0.5,0.2-1.4,0.4-1.8c0.2-0.3,0.5-0.6,1.2-1L97.3,4.5z"/>
					<path class="st1" d="M100.3,35.6c1.2,0,1.8,0.7,1.8,2c0,1.4-0.6,2.1-1.8,2.1h-0.5c-3.8,0-6.1-0.8-7.8-1.7
						c-1.4,0.9-3.4,1.7-5.8,1.7h-0.4c-1.1,0-1.7-0.7-1.7-2.1c0-1.3,0.6-2,1.7-2h0.4c1.6,0,2.6-0.2,3.1-0.7c-0.1-0.4-0.2-0.9-0.2-1.3
						c0-4.1,4.6-9.2,7.2-9.2c1.5,0,2.3,1.7,2.3,3.9c0,2.2-0.9,5-2.7,6.6c0.8,0.4,2.1,0.7,3.8,0.7H100.3z M95.7,14.3
						c0.3-0.3,0.4-0.4,0.6-0.2c0.9,0.9,1.8,1.9,2.8,2.5c0.3,0.2,0.3,0.3,0,0.6c-0.8,0.9-1.6,1.8-2.4,2.7c-0.2,0.2-0.3,0.2-0.5,0
						c-0.7-0.5-1.7-1.3-2.6-2.2c-0.5,0.6-1.6,1.8-2,2.1c-0.2,0.1-0.3,0.3-0.7,0.1c-0.9-0.6-2.1-1.5-2.8-2.5c-0.2-0.2-0.2-0.3,0-0.6
						c0.7-0.8,1.6-1.9,2.5-2.7c0.2-0.2,0.3-0.2,0.6,0.1c0.7,0.7,1.9,1.8,2.6,2.2C94.3,15.8,95.2,14.7,95.7,14.3z M94.6,28.5
						c-1.5,0-2.9,1.6-2.9,2.2c0,0.9,0.7,1.6,2.2,2.5c0.5-0.2,2.6-1.7,2.6-2.4C96.4,29.4,95.9,28.5,94.6,28.5z"/>
					<path class="st1" d="M103.6,0c1.2,0,3,1.7,3,3.7c0,0.7-0.1,1.4-0.3,2.1c-0.5,1.4-1.7,2.2-3.2,2.2c-1.4,0-2.4-1.1-2.4-2.4
						C100.7,3.9,102.7,0,103.6,0z M103.3,2.9c-0.5,0-1.3,1.1-1.3,1.7c0,0.5,0.7,1,1.4,1c0.9,0,2-0.5,2-0.9
						C105.4,4.4,104.3,2.9,103.3,2.9z"/>
					<path class="st1" d="M104.2,37.8c-1,1.2-2.1,1.9-4.1,1.9h-0.4c-1.2,0-1.8-0.7-1.8-2.2c0-1.3,0.6-1.9,1.8-1.9h0.4
						c1,0,1.8-0.1,2.6-0.4c0.7-0.2,1.1-0.5,1.2-0.8c0-3.1-1.1-9.6-1.7-15.9c0-0.7-0.5-2.9-0.7-3.8c0-0.1,0-0.3,0-0.4
						c0-0.5,0.6-1.7,1-2.4c0.5-0.9,0.9-1.6,1.3-1.6c0.1,0,0.2,0.1,0.3,0.4c0.5,1.8,1.1,2.6,1.5,3.3c0.1,0.2,0.2,0.3,0.2,0.5
						c0,0.1,0,0.1,0,0.2c-0.1,0.4-0.7,1.5-1,1.9c0.3,6.1,1.3,11,1.3,14C106,33.6,105.4,36,104.2,37.8z"/>
					<path class="st1" d="M114.2,39.7c-0.2,0-0.3-0.3-0.3-1.2c0-5.4-2-20.3-2-22.7c0-1.2,0.8-3.1,1.5-4.4c0.2-0.4,0.6-0.9,0.8-0.9
						c0.2,0,0.3,0.3,0.3,1.4c0.2,3.9,1.3,13,1.3,19.6c0,2.6-0.2,4.9-0.6,6.2C114.8,39,114.5,39.7,114.2,39.7z"/>
					<path class="st1" d="M149.7,13.7c0,0.9-0.2,1.8-0.5,2.6c0.4,0.2,0.6,0.5,0.6,0.7c0,0.7-0.3,1.3-0.6,1.8
						c-0.1,0.1-0.1,0.1-0.2,0.1l-0.9-0.6c-0.9,1.4-2.3,3.1-4.4,4.1c-0.8,0.4-1.7,0.7-2.6,0.7c-0.5,0-0.7-0.1-0.7-0.2
						c0-0.2,0.4-0.3,1-0.7c1.5-0.9,4.5-3.1,5.5-4.5c-0.8-0.6-1.9-1.3-1.9-2.4c0-0.8,0.4-1.5,1.1-2.3c0.7-1,1.5-1.4,2.2-1.4
						C149.3,11.5,149.7,12.7,149.7,13.7z M146.5,14.5c0,0,0,0.1,0,0.1c0,0.2,0.8,0.8,1.4,1c0.2-0.3,0.2-0.6,0.2-1.2
						c0-0.5-0.2-0.8-0.6-0.8C147.2,13.7,146.7,14,146.5,14.5z"/>
					<path class="st1" d="M135.8,35c1.7,0.8,4.5,1.2,8.2,1.2c5.1,0,9.2-0.7,11.9-1.5c3.7-1.1,5.3-1.7,7.3-3.1
						c0.1-0.1,0.3-0.3,0.5-0.3c0.1,0,0.3,0.2,0.3,0.8c0,2.2,1.2,3.5,2.6,3.5h0.6c1.1,0,1.7,0.7,1.7,2c0,1.4-0.5,2.1-1.6,2.1h-0.7
						c-2.5,0-4.1-1.3-4.6-4c-1.9,1-4.3,2.2-6.6,2.9c-3.5,1-7.4,1.9-11.9,1.9c-3.7,0-6.8-0.5-8.8-1.3c-2.6-1-3.9-2.6-3.9-5.3
						c0-2.3,1-4.6,1.5-5.5c0.4-0.6,0.8-1.1,1.1-1.1c0.1,0,0.2,0.1,0.2,0.3c0,0.2-0.1,0.7-0.3,1.1c-0.4,0.9-0.7,1.9-0.7,2.8
						C132.5,32.3,133.2,33.8,135.8,35z M149.8,48.1c0.2,0.1,0.1,0.2,0,0.3c-0.4,0.6-1.9,2.2-2.5,3c-0.1,0.2-0.2,0.2-0.4,0
						c-0.8-0.5-2.6-1.9-3.1-2.6c-0.1-0.2-0.1-0.2,0-0.4c0.6-0.9,1.6-2.1,2.3-2.8c0.3-0.3,0.4-0.4,0.5-0.2
						C147.3,46.2,148.6,47.3,149.8,48.1z"/>
					<path class="st1" d="M174.9,14.8c0.2-0.1,0.2-0.1,0.2,0.1c0,1-0.4,2-0.9,2.3l-7.4,4.1c-0.1,0.1-0.2,0-0.2-0.1
						c0-0.5,0.2-1.4,0.4-1.8c0.2-0.3,0.5-0.6,1.2-1L174.9,14.8z"/>
					<path class="st1" d="M176.7,35.6h0.2c1,0,1.6,1,1.6,2.1c0,1-0.5,2-1.6,2h-0.2c-1.1,0-2.2-0.1-3.2-0.9c-1.4-1.1-1.9-3.1-2-3.4
						c-0.1,1.2-1.9,4.3-4.6,4.3h-0.2c-1.1,0-1.6-1-1.6-2c0-1,0.5-2.1,1.7-2.1h0.1c2.2,0,3.5-0.9,3.8-1.4c0,0,0.1-0.2,0.1-0.2
						c0-0.3-0.7-4.6-0.7-5c0-0.2,0-0.4,0.1-0.6c0.2-0.7,0.6-1.7,1-2.4c0.2-0.4,0.3-0.6,0.4-0.6s0.3,0.3,0.4,0.7
						c0.5,1.9,1,5.6,1.4,6.8C174.1,34.5,175.9,35.6,176.7,35.6z M175.3,46.3c0.2,0.1,0.1,0.2,0,0.3c-0.4,0.6-1.9,2.2-2.5,3
						c-0.1,0.2-0.2,0.2-0.4,0c-0.8-0.5-2.6-1.9-3.1-2.6c-0.1-0.2-0.1-0.2,0-0.4c0.6-0.9,1.6-2.1,2.3-2.8c0.3-0.3,0.4-0.4,0.5-0.2
						C172.8,44.4,174.1,45.5,175.3,46.3z"/>
					<path class="st1" d="M194.6,16c0.2-0.1,0.2-0.1,0.2,0.1c0,1-0.4,2-0.9,2.3l-7.4,4.1c-0.1,0.1-0.2,0-0.2-0.1
						c0-0.5,0.2-1.4,0.4-1.8c0.2-0.3,0.5-0.6,1.2-1L194.6,16z"/>
					<path class="st1" d="M181.3,37.9c-1.1,1-2.2,1.8-4.2,1.8h-0.5c-1.2,0-1.8-0.7-1.8-2.1c0-1.3,0.6-2,1.9-2h0.4
						c1.6,0,2.8-0.3,3.8-0.8c1.3-0.7,2.1-1.8,3.1-3.3c0.1-0.2,0.4-0.4,0.6-0.4c0.3,0,0.4,0.4,0.5,1.3c0.2,1.5,0.8,2.7,2.7,2.7
						c2,0,3.9-1.7,4.7-3.6c0.4-1.1,0.8-1.6,1.1-1.6c0.2,0,0.3,0.1,0.3,0.5c0,0.4-0.1,0.8-0.1,1.3c0,2.2,2,3.2,3.3,3.2
						c0.4,0,1.2-0.1,1.2-0.8c0-0.5-0.3-1-0.8-1.8c0-0.1-0.1-0.1-0.1-0.2c0-0.5,1.3-2.5,1.8-3.2c0.1-0.1,0.2-0.3,0.4-0.3
						c0.1,0,0.2,0.1,0.4,0.4c0.4,0.7,0.5,1.6,0.5,2.8c0,2.2-1.5,6.9-4.7,6.9c-1.9,0-3.3-1-3.8-2.9c-1.4,2.5-3.3,3.4-4.7,3.4
						c-1.9,0-3.2-1.1-3.6-3.9C182.7,36.3,182.1,37.1,181.3,37.9z"/>
				</g>
			</g>
		</g>
	</g>
	<g>
		<g>
			<g>
				<g>
					<path class="st2" d="M8.7,29.3c0,0,1.5-3,4.6-1.4c-1.3-2.1-0.6-4.8,0-5.6c1,3.4,2.8,6.3,6.9,7h2.4l-1,0c3,0,5.8-2.2,5.8-6
						c0-3.8-2.3-5-3.6-5.1c-0.6,0-1.2,0.1-1.7,0.3c-1.3,0.3-2.2,1.5-2.2,2.8c0,1.6,1.4,2.9,3.1,2.9c0.6,0,1.2-0.2,1.7-0.5
						c-0.1,1.6-1.4,3-3.4,3c-2.5,0-5.5-2.5-4.3-7.5c-1.1-0.9-4.6-1.2-5.4,1.8c0,0,0,0,0,0c-0.3-0.2-0.6-0.3-1-0.3
						c-1.1,0-2.1,1.2-2.1,2.6c0,0.8,0.3,1.4,0.7,1.9c-5-0.9-9.1,4.2-9.1,4.2s0,0,0,0H8.7z M21.5,29.5l1,0h-2.4c-4,0.7-5.9,3.6-6.9,7
						c-0.6-0.8-1.3-3.5,0-5.6c-3.1,1.6-4.6-1.4-4.6-1.4H0c0,0,0,0,0,0s4,5,9,4.2c-0.4,0.5-0.6,1.1-0.6,1.8c0,1.4,0.9,2.6,2.1,2.6
						c0.4,0,0.7-0.1,1-0.4c0,0.1,0,0.1,0,0.1c0.8,3,4.2,2.8,5.4,1.8c-1.2-5,1.8-7.5,4.3-7.5c2,0,3.3,1.4,3.4,3
						c-0.5-0.3-1.1-0.5-1.7-0.5c-1.7,0-3.1,1.3-3.1,2.9c0,1.3,1,2.4,2.2,2.8c0.5,0.2,1.1,0.3,1.7,0.3c1.3-0.1,3.6-1.3,3.6-5.1
						C27.4,31.8,24.6,29.5,21.5,29.5z"/>
				</g>
			</g>
			<path class="st3" d="M11.7,32c0,0-0.1,2.2-0.2,2.7c0,0.8-0.6,1.3-1.2,1.3c-0.7,0-1.1-0.7-1.1-1.4c0-0.5,0.2-0.9,0.6-1.1
				C9.9,33.3,10.8,32.5,11.7,32z"/>
			<path class="st3" d="M11.4,32.4c0,0-0.1,1.3-0.1,1.5c0,0.4-0.3,0.8-0.7,0.7c-0.4,0-0.6-0.4-0.6-0.8c0-0.3,0.1-0.5,0.3-0.6
				C10.4,33.1,10.9,32.7,11.4,32.4z"/>
			<g>
				<g class="st4">
					<path class="st5" d="M10.1,25.8c-1.1-0.5-2.5-1.2-5.8,0.1c-1.1,0.5-2.3,1.4-2.9,2.1c-1,1,0.3,1.7,2.5,1.7
						c2.2,0,2.6-0.6,3.9-1.9C9.2,26.2,10.9,26.1,10.1,25.8z"/>
				</g>
			</g>
			<g class="st4">
				<g>
					<path class="st5" d="M24.7,18.6c-0.4-0.3-0.9-0.4-1.5-0.4c-0.1,0-0.2,0-0.2,0c0,0,0,0,0,0c0,0,0,0,0,0c-0.1,0-0.2,0-0.3,0
						c-0.1,0-0.3,0-0.4,0c0,0,0,0,0,0.1c-1,0.3-1.8,1-1.7,1.8c0,1,1.2,1.7,2.6,1.6c0.9,0,1.7-0.4,2.1-0.9c0.2,0.5,0.4,1.2,0.4,1.8
						c0.1,2.1-1.5,4.2-4,4.2c-1.7,0-2.6-0.1-3.9-1.2c-1.3-1.1-0.3,2.4,4.1,2.4c3.2,0,5.3-2.9,5.3-5.1C27.1,21.2,26.2,19.4,24.7,18.6
						z"/>
				</g>
			</g>
			<g>
				
					<ellipse transform="matrix(0.9999 -1.343745e-002 1.343745e-002 0.9999 -0.2579 0.3111)" class="st5" cx="23" cy="19.3" rx="1.8" ry="1.2"/>
			</g>
			
				<ellipse transform="matrix(0.9999 -1.348834e-002 1.348834e-002 0.9999 -0.2501 0.3105)" class="st1" cx="22.9" cy="18.7" rx="1" ry="0.5"/>
			<g>
				<path class="st5" d="M4.7,25.5c-1.2,0.4-2,1.2-1.8,1.8c0.2,0.6,1.4,0.7,2.6,0.3c1.2-0.4,2-1.2,1.8-1.8
					C7.1,25.3,5.9,25.1,4.7,25.5z"/>
			</g>
			<path class="st1" d="M4.9,26.5c0.7-0.2,1.1-0.6,1-0.9c-0.1-0.3-0.7-0.3-1.4-0.1c-0.7,0.2-1.1,0.6-1,0.9
				C3.7,26.7,4.3,26.7,4.9,26.5z"/>
			<g>
				<g class="st4">
					<path class="st5" d="M26.9,34.7c0-2.1-2.1-4.9-5.3-4.9c-4.1,0-5.6,2.2-4.2,2.2c1.3,0,1.3-0.9,3.7-0.9c2.3,0,4.5,2.1,4.4,4.1
						c0,0.3-0.1,0.6-0.1,0.8c-0.3-0.7-1.1-1.2-2.2-1.2c-1.3-0.1-2.4,0.6-2.5,1.5c0,0.8,0.7,1.4,1.7,1.7c0,0,0,0,0,0
						c0.1,0,0.3,0,0.4,0c0,0,0.1,0,0.1,0c0,0,0.1,0,0.1,0c0.2,0,0.4,0,0.6,0C25.8,37.8,26.9,36.6,26.9,34.7z"/>
				</g>
			</g>
			<g>
				
					<ellipse transform="matrix(0.9999 -1.344265e-002 1.344265e-002 0.9999 -0.4786 0.3127)" class="st5" cx="23" cy="35.8" rx="1.8" ry="1.2"/>
			</g>
			<g>
				<path class="st5" d="M21.5,29.7c-0.9,0-1.6,0.3-1.6,0.6c0,0.3,0.7,0.6,1.6,0.6c0.9,0,1.6-0.3,1.6-0.6
					C23.1,30,22.4,29.7,21.5,29.7z"/>
			</g>
			<path class="st1" d="M21.4,30.2c0.5,0,0.9-0.1,0.9-0.2c0-0.1-0.4-0.2-0.9-0.2c-0.5,0-0.9,0.1-0.9,0.3
				C20.5,30.1,20.9,30.2,21.4,30.2z"/>
			
				<ellipse transform="matrix(0.9999 -1.348834e-002 1.348834e-002 0.9999 -0.4714 0.312)" class="st1" cx="22.9" cy="35.1" rx="1" ry="0.5"/>
			<path class="st3" d="M16.9,19.1c0,0-2-1.1-3.6-0.2c-1.6,0.8-1.4,1.6-1.4,2.1c0,0.6,0.3-0.4,1.6-0.3c0.6,0,0.9,1.9,1.8,1.9
				C16.6,22.5,15.1,20.8,16.9,19.1z"/>
			<g>
				<path class="st5" d="M14.5,18.6c-0.9,0-1.6,0.3-1.6,0.7c0,0.4,0.7,0.6,1.6,0.6c0.9,0,1.6-0.3,1.6-0.7
					C16.1,18.9,15.4,18.6,14.5,18.6z"/>
			</g>
			<path class="st1" d="M14.4,19.2c0.5,0,0.9-0.1,0.9-0.3c0-0.2-0.4-0.3-0.9-0.3c-0.5,0-0.9,0.1-0.9,0.3
				C13.5,19.1,13.9,19.2,14.4,19.2z"/>
			
				<ellipse transform="matrix(4.954097e-002 -0.9988 0.9988 4.954097e-002 -12.7496 31.3977)" class="st3" cx="10.1" cy="22.4" rx="1.8" ry="1.5"/>
			<g>
				<path class="st5" d="M10.1,20.6c-0.6,0-1,0.5-1,1.1c0,0.6,0.5,1.1,1.1,1c0.6,0,1-0.5,1-1.1C11.2,21.1,10.7,20.6,10.1,20.6z"/>
			</g>
			
				<ellipse transform="matrix(1 -9.739798e-003 9.739798e-003 1 -0.2045 9.921396e-002)" class="st1" cx="10.1" cy="21" rx="0.5" ry="0.4"/>
		</g>
		<g>
			<g>
				<g>
					<path class="st2" d="M220.3,29.3l-1,0h2.4c4-0.7,5.9-3.6,6.9-7c0.6,0.8,1.3,3.5,0,5.6c3.1-1.6,4.6,1.4,4.6,1.4h8.7c0,0,0,0,0,0
						s-4.1-5.1-9.1-4.2c0.4-0.5,0.7-1.1,0.7-1.9c0-1.4-0.9-2.6-2.1-2.6c-0.4,0-0.7,0.1-1,0.3c0,0,0,0,0,0c-0.8-3-4.2-2.8-5.4-1.8
						c1.2,5-1.8,7.5-4.3,7.5c-2,0-3.3-1.4-3.4-3c0.5,0.3,1.1,0.5,1.7,0.5c1.7,0,3.1-1.3,3.1-2.9c0-1.3-0.9-2.4-2.2-2.8
						c-0.5-0.2-1.1-0.3-1.7-0.3c-1.3,0.1-3.6,1.3-3.6,5.1C214.4,27,217.2,29.3,220.3,29.3z M233.1,29.5c0,0-1.5,3-4.6,1.4
						c1.3,2.1,0.6,4.8,0,5.6c-1-3.4-2.8-6.3-6.9-7h-2.4l1,0c-3,0-5.8,2.2-5.8,6c0,3.8,2.3,5,3.6,5.1c0.6,0,1.2-0.1,1.7-0.3
						c1.3-0.3,2.2-1.5,2.2-2.8c0-1.6-1.4-2.9-3.1-2.9c-0.6,0-1.2,0.2-1.7,0.5c0.1-1.6,1.4-3,3.4-3c2.5,0,5.5,2.5,4.3,7.5
						c1.1,0.9,4.6,1.2,5.4-1.8c0,0,0,0,0-0.1c0.3,0.2,0.7,0.4,1,0.4c1.1,0,2.1-1.2,2.1-2.6c0-0.7-0.2-1.3-0.6-1.8c5,0.8,9-4.2,9-4.2
						s0,0,0,0H233.1z"/>
				</g>
			</g>
			<path class="st3" d="M230.2,32c0,0,0.1,2.2,0.2,2.7c0,0.8,0.6,1.3,1.2,1.3c0.7,0,1.1-0.7,1.1-1.4c0-0.5-0.2-0.9-0.6-1.1
				C231.9,33.3,231,32.5,230.2,32z"/>
			<path class="st3" d="M230.4,32.4c0,0,0.1,1.3,0.1,1.5c0,0.4,0.3,0.8,0.7,0.7c0.4,0,0.6-0.4,0.6-0.8c0-0.3-0.1-0.5-0.3-0.6
				C231.4,33.1,230.9,32.7,230.4,32.4z"/>
			<g>
				<g class="st4">
					<path class="st5" d="M240.5,27.9c-0.7-0.7-1.8-1.6-2.9-2.1c-3.3-1.3-4.7-0.6-5.8-0.1c-0.8,0.4,0.9,0.5,2.4,2
						c1.3,1.3,1.8,1.9,3.9,1.9C240.1,29.6,241.4,28.9,240.5,27.9z"/>
				</g>
			</g>
			<g class="st4">
				<g>
					<path class="st5" d="M224.2,25.5c-1.3,1.1-2.2,1.2-3.9,1.2c-2.5,0-4.1-2.1-4-4.2c0-0.7,0.2-1.3,0.4-1.8
						c0.4,0.5,1.2,0.9,2.1,0.9c1.4,0.1,2.5-0.7,2.6-1.6c0-0.8-0.7-1.5-1.7-1.8c0,0,0,0,0-0.1c-0.1,0-0.3,0-0.4,0c-0.1,0-0.2,0-0.3,0
						c0,0,0,0,0,0c0,0,0,0,0,0c-0.1,0-0.2,0-0.2,0c-0.6,0-1.1,0.2-1.5,0.4c-1.5,0.8-2.3,2.5-2.3,4.1c0,2.2,2.1,5.1,5.3,5.1
						C224.5,27.9,225.5,24.4,224.2,25.5z"/>
				</g>
			</g>
			<g>
				
					<ellipse transform="matrix(1.343745e-002 -0.9999 0.9999 1.343745e-002 196.4933 237.8513)" class="st5" cx="218.8" cy="19.3" rx="1.2" ry="1.8"/>
			</g>
			
				<ellipse transform="matrix(1.348834e-002 -0.9999 0.9999 1.348834e-002 197.2607 237.3307)" class="st1" cx="218.9" cy="18.7" rx="0.5" ry="1"/>
			<g>
				<path class="st5" d="M237.1,25.5c1.2,0.4,2,1.2,1.8,1.8c-0.2,0.6-1.4,0.7-2.6,0.3c-1.2-0.4-2-1.2-1.8-1.8
					C234.7,25.3,235.9,25.1,237.1,25.5z"/>
			</g>
			<path class="st1" d="M236.9,26.5c-0.7-0.2-1.1-0.6-1-0.9c0.1-0.3,0.7-0.3,1.4-0.1c0.7,0.2,1.1,0.6,1,0.9
				C238.1,26.7,237.5,26.7,236.9,26.5z"/>
			<g>
				<g class="st4">
					<path class="st5" d="M220.2,29.8c-3.2,0-5.3,2.8-5.3,4.9c0,1.9,1.1,3.1,3.4,3.3c0.2,0,0.4,0,0.6,0c0,0,0.1,0,0.1,0
						c0,0,0.1,0,0.1,0c0.1,0,0.3,0,0.4,0c0,0,0,0,0,0c1-0.2,1.7-0.9,1.7-1.7c0-0.9-1.2-1.6-2.5-1.5c-1,0.1-1.9,0.6-2.2,1.2
						c0-0.2-0.1-0.5-0.1-0.8c-0.1-2,2.1-4.1,4.4-4.1c2.4,0,2.4,0.9,3.7,0.9C225.8,31.9,224.3,29.8,220.2,29.8z"/>
				</g>
			</g>
			<g>
				
					<ellipse transform="matrix(1.344265e-002 -0.9999 0.9999 1.344265e-002 180.0856 254.0386)" class="st5" cx="218.8" cy="35.8" rx="1.2" ry="1.8"/>
			</g>
			<g>
				<path class="st5" d="M220.3,29.7c0.9,0,1.6,0.3,1.6,0.6c0,0.3-0.7,0.6-1.6,0.6c-0.9,0-1.6-0.3-1.6-0.6
					C218.7,30,219.4,29.7,220.3,29.7z"/>
			</g>
			<path class="st1" d="M220.4,30.2c-0.5,0-0.9-0.1-0.9-0.2c0-0.1,0.4-0.2,0.9-0.2c0.5,0,0.9,0.1,0.9,0.3
				C221.3,30.1,220.9,30.2,220.4,30.2z"/>
			
				<ellipse transform="matrix(1.348834e-002 -0.9999 0.9999 1.348834e-002 180.8549 253.5166)" class="st1" cx="218.9" cy="35.1" rx="0.5" ry="1"/>
			<path class="st3" d="M224.9,19.1c0,0,2-1.1,3.6-0.2c1.6,0.8,1.4,1.6,1.4,2.1c0,0.6-0.3-0.4-1.6-0.3c-0.6,0-0.9,1.9-1.8,1.9
				C225.2,22.5,226.7,20.8,224.9,19.1z"/>
			<g>
				<path class="st5" d="M227.3,18.6c0.9,0,1.6,0.3,1.6,0.7c0,0.4-0.7,0.6-1.6,0.6c-0.9,0-1.6-0.3-1.6-0.7
					C225.7,18.9,226.4,18.6,227.3,18.6z"/>
			</g>
			<path class="st1" d="M227.4,19.2c-0.5,0-0.9-0.1-0.9-0.3c0-0.2,0.4-0.3,0.9-0.3c0.5,0,0.9,0.1,0.9,0.3
				C228.3,19.1,227.9,19.2,227.4,19.2z"/>
			
				<ellipse transform="matrix(0.9987 -5.008120e-002 5.008120e-002 0.9987 -0.831 11.6308)" class="st3" cx="231.7" cy="22.4" rx="1.5" ry="1.8"/>
			<g>
				<path class="st5" d="M231.7,20.6c0.6,0,1,0.5,1,1.1c0,0.6-0.5,1.1-1.1,1c-0.6,0-1-0.5-1-1.1C230.6,21.1,231.1,20.6,231.7,20.6z"
					/>
			</g>
			
				<ellipse transform="matrix(7.367433e-003 -1 1 7.367433e-003 208.968 252.5957)" class="st1" cx="231.7" cy="21" rx="0.4" ry="0.5"/>
		</g>
	</g>
</g>
</svg>
