<?xml version="1.0" encoding="utf-8"?>
<!-- Generator: Adobe Illustrator 19.2.0, SVG Export Plug-In . SVG Version: 6.00 Build 0)  -->
<svg version="1.1" id="Layer_1" xmlns="http://www.w3.org/2000/svg" xmlns:xlink="http://www.w3.org/1999/xlink" x="0px" y="0px"
	 viewBox="0 0 282.3 45.9" style="enable-background:new 0 0 282.3 45.9;" xml:space="preserve">
<style type="text/css">
	.st0{fill:#CC4A6C;}
	.st1{fill:none;}
</style>
<g>
	<g>
		<g>
			<g>
				<path class="st0" d="M30.8,36.9h-2.1c-1.1-1.7-1.9-3.4-2.5-5.2c-0.6-1.8-0.9-3.5-0.9-5.2c0-2.1,0.4-4,1.1-5.9
					c0.6-1.6,1.4-3.1,2.4-4.5h2.1c-1,2.2-1.7,4-2,5.6s-0.6,3.1-0.6,4.9c0,1.2,0.1,2.4,0.3,3.6c0.2,1.2,0.5,2.4,0.9,3.5
					C29.7,34.4,30.1,35.5,30.8,36.9z"/>
				<path class="st0" d="M40.7,29.1h-1.4c-0.3,0-0.5-0.1-0.7-0.2c-0.4-0.2-0.8-0.6-1.1-1.1c-0.4-0.8-0.6-1.8-0.8-3.1
					c-0.5,0.6-0.9,1-1.1,1.3c-0.4,0.4-0.7,0.6-1,0.6c-0.1,0-0.3,0-0.5-0.1l-1.3-0.3c-0.6-0.1-0.9-0.2-1-0.2c-0.1,0-0.2-0.1-0.2-0.3
					c0-0.2,0.3-0.8,0.8-1.8s0.9-1.7,1.1-1.9c0.2-0.2,0.5-0.4,1-0.8c0.3-0.2,0.7-0.4,1.2-0.7l0.6-0.3c0-0.1,0-0.2,0-0.3s0-0.2,0-0.3
					c0-0.3,0.1-0.6,0.2-1c0.1-0.4,0.4-0.9,0.7-1.5l1,6.7c0.2,1.1,0.4,1.8,0.6,2.1c0.2,0.2,0.4,0.4,0.7,0.4h1.4V29.1z M38.2,13.9
					l-1.2,2l-1.5-0.9l-0.9,1.7l-2-1.1l1.1-1.9l1.6,0.8l0.9-1.7L38.2,13.9z M36.5,23l-0.2-1.3c-0.2,0.1-0.4,0.2-0.5,0.3
					c-0.4,0.2-0.7,0.4-0.9,0.6c-0.2,0.1-0.3,0.3-0.4,0.4c-0.1,0.2-0.2,0.3-0.2,0.4c0,0.1,0.1,0.2,0.4,0.2c0.3,0.1,0.5,0.1,0.7,0.1
					c0.2,0,0.3,0,0.5-0.1C35.9,23.4,36.2,23.2,36.5,23z"/>
				<path class="st0" d="M45.8,29.1h-5.9v-2.9h4.6l-1.3-7.3l-0.7-0.5c0-0.4,0.1-0.9,0.2-1.3c0.2-0.5,0.4-1.2,0.8-2l0.5,0.3
					c0,0,0,0.2,0,0.3c0,0.2,0.2,0.5,0.5,0.7c0.3,0.2,0.7,0.4,1.3,0.7c-0.1,0.5-0.2,0.9-0.3,1.3s-0.3,0.8-0.4,1.2l-0.4-0.2l1.2,6.7
					V29.1z"/>
				<path class="st0" d="M51.8,29.1h-6.8v-2.9h5.7c-0.1-0.5-0.2-0.9-0.4-1.2c-0.1-0.2-0.4-0.5-0.8-1l0.9-2.6
					c0.5,0.6,0.9,1.3,1.1,1.9c0.2,0.7,0.3,1.7,0.3,3V29.1z M51.7,31l-1.2,2.2L49,32.3L48.1,34l-2-1.1l1.1-2.1l1.6,0.8l0.9-1.7
					L51.7,31z"/>
				<path class="st0" d="M59,29.1h-7.9v-2.9H53c0.3,0,0.6,0,0.9,0c0.8,0.1,1.7,0.2,2.7,0.3c-1.1-0.2-1.8-0.6-2.2-0.9
					c-0.4-0.4-0.6-1-0.6-1.7c0-1.1,0.3-2.1,0.8-3c0.5-0.9,1.1-1.3,1.7-1.3c0.7,0,1.4,0.6,1.9,1.9c0.5,1.3,0.8,2.8,0.8,4.5V29.1z
					 M57.7,16.1l-1.2,2.2l-1.5-0.9l-0.9,1.7l-2-1.1l1.1-2.1l1.6,0.8l0.9-1.7L57.7,16.1z M57.5,24.6c-0.3-0.6-0.5-1.1-0.9-1.4
					c-0.3-0.3-0.6-0.5-0.9-0.5c-0.1,0-0.3,0-0.4,0.1c-0.1,0.1-0.2,0.2-0.2,0.3c0,0.3,0.2,0.6,0.7,0.9S56.9,24.5,57.5,24.6z"/>
				<path class="st0" d="M65,29.1h-6.8v-2.9h5.7c-0.1-0.5-0.2-0.9-0.4-1.2c-0.1-0.2-0.4-0.5-0.8-1l0.9-2.6c0.5,0.6,0.9,1.3,1.1,1.9
					c0.2,0.7,0.3,1.7,0.3,3V29.1z M64.8,17.5l-1.2,2.2l-1.5-0.9l-0.9,1.7l-2-1.1l1.1-2.1l1.6,0.8l0.9-1.7L64.8,17.5z M62.7,15
					l-1.1,2.2l-2-1.1l1.1-2.2L62.7,15z"/>
				<path class="st0" d="M78.7,29.1h-4.9c-0.5,0-0.8-0.1-1.1-0.3c-0.3-0.2-0.5-0.6-0.5-1.2c0-0.3,0-0.7,0-1c0-0.4,0.1-0.7,0.1-1.1
					l0.4,0c0.1,0.3,0.2,0.4,0.4,0.6c0.2,0.1,0.4,0.2,0.7,0.2h3.7c-0.2-1.1-0.5-1.9-0.9-2.5c-0.3-0.5-0.8-1-1.4-1.4l0.8-3.4
					c0.9,0.7,1.6,1.6,2,2.7c0.4,1,0.5,2.4,0.5,4V29.1z"/>
				<path class="st0" d="M84.7,29.1H78v-2.9h5.7c-0.1-0.5-0.2-0.9-0.4-1.2c-0.1-0.2-0.4-0.5-0.8-1l0.9-2.6c0.5,0.6,0.9,1.3,1.1,1.9
					c0.2,0.7,0.3,1.7,0.3,3V29.1z M84.5,31l-1.2,2.2l-1.5-0.9L81,34l-2-1.1l1.1-2.1l1.6,0.8l0.9-1.7L84.5,31z"/>
				<path class="st0" d="M92.7,29.1H84v-2.9h7c-0.3-0.3-0.6-0.6-0.8-0.9c-0.2-0.2-0.5-0.4-0.9-0.7c-0.4-0.3-0.8-0.6-1.2-0.9
					l-0.3,0.4c-0.6-0.6-1-1-1.1-1.2c-0.4-0.4-0.5-0.9-0.5-1.4c0-0.7,0-1.2,0.2-1.5c0.1-0.4,0.4-0.8,0.9-1.1c0.4-0.3,0.9-0.5,1.3-0.8
					c0.4-0.2,0.9-0.4,1.5-0.7c0.3-0.1,0.9-0.4,1.8-0.7v2.6c0,0-0.3,0.1-0.9,0.3c-0.7,0.2-1.3,0.4-1.7,0.6c-0.6,0.2-0.9,0.4-0.9,0.6
					c0,0.1,0.3,0.3,0.8,0.8c0.7,0.7,1.3,1.3,1.8,1.9c0.8,0.9,1.4,1.9,1.9,2.8V29.1z"/>
				<path class="st0" d="M102.6,28.3c0,1.2-0.5,2.5-1.6,3.7c-1,1.2-2.1,1.8-3.1,1.8c-0.6,0-1.2-0.2-2-0.6c-0.7-0.4-1.8-1.1-3.3-2.3
					l0.5-0.6c0.8,0.5,1.4,0.9,1.9,1c0.4,0.1,0.9,0.2,1.4,0.2c0.7,0,1.4-0.2,2.1-0.6c0.8-0.5,1.6-1.2,2.5-2.2c-0.3,0-0.6,0.1-0.8,0.1
					c-0.7,0-1.3-0.2-1.7-0.7c-0.4-0.5-0.6-1.1-0.6-1.9c0-1.1,0.2-2.1,0.7-3.1c0.5-1.1,1.2-1.6,1.8-1.6c0.6,0,1.1,0.4,1.5,1.2
					c0.4,0.8,0.6,1.7,0.6,2.8V28.3z M101.3,26.1c-0.2-1.2-0.6-1.7-1.2-1.7c-0.2,0-0.4,0.1-0.5,0.3c-0.1,0.2-0.2,0.4-0.2,0.6
					c0,0.3,0.1,0.5,0.4,0.6c0.3,0.2,0.7,0.3,1.1,0.3H101.3z"/>
				<path class="st0" d="M108.6,29.1h-6.8v-2.9h5.7c-0.1-0.5-0.2-0.9-0.4-1.2c-0.1-0.2-0.4-0.5-0.8-1l0.9-2.6
					c0.5,0.6,0.9,1.3,1.1,1.9c0.2,0.7,0.3,1.7,0.3,3V29.1z M108.5,17.5l-1.2,2.2l-1.5-0.9l-0.9,1.7l-2-1.1l1.1-2.1l1.6,0.8l0.9-1.7
					L108.5,17.5z"/>
				<path class="st0" d="M113.8,29.1h-5.9v-2.9h4.6l-1.3-7.3l-0.7-0.5c0-0.4,0.1-0.9,0.2-1.3c0.2-0.5,0.4-1.2,0.8-2l0.5,0.3
					c0,0,0,0.2,0,0.3c0,0.2,0.2,0.5,0.5,0.7c0.3,0.2,0.7,0.4,1.3,0.7c-0.1,0.5-0.2,0.9-0.3,1.3s-0.3,0.8-0.4,1.2l-0.4-0.2l1.2,6.7
					V29.1z"/>
				<path class="st0" d="M117.8,25.9c0,0.6-0.1,1.2-0.2,1.8c-0.2,0.5-0.4,1.2-0.9,2.1l-0.6-0.3c0.2-0.9,0.3-1.7,0.3-2.2
					c0-0.4,0-1.1-0.1-1.9s-0.2-1.7-0.3-2.5c-0.1-0.8-0.3-1.8-0.5-3c-0.1-0.4-0.1-0.7-0.1-0.8c0-0.2,0.1-0.6,0.3-1.1
					c0.2-0.5,0.5-1.2,0.9-1.9l0.6,3.8c0.2,1.5,0.4,2.7,0.5,3.8C117.8,24.4,117.8,25.2,117.8,25.9z"/>
				<path class="st0" d="M136.7,28.5c0,1-0.1,1.8-0.3,2.4s-0.5,1.1-1,1.5c-0.4,0.4-1.1,0.7-1.9,0.9c-0.9,0.2-1.7,0.4-2.6,0.4
					c-1.7,0-3.1-0.3-4-1c-0.9-0.6-1.4-1.5-1.4-2.7c0-1,0.2-1.9,0.5-2.7c0.3-0.9,1-2.1,1.9-3.6l0.6,0.5c-0.7,1.2-1.2,2.1-1.4,2.6
					c-0.2,0.5-0.3,1.1-0.3,1.7c0,0.8,0.4,1.4,1.2,1.8c0.8,0.5,1.9,0.7,3.2,0.7c1.3,0,2.4-0.2,3.3-0.7s1.3-1.1,1.3-1.8
					c0-0.4-0.1-0.9-0.2-1.3c-0.2-0.4-0.5-1.1-1-2.1l0.9-2.9c0.5,0.9,0.8,1.5,0.9,1.9c0.2,0.6,0.3,1.4,0.3,2.4V28.5z M133.1,20
					l-1.3,2.4l-2.5-1.3l1.3-2.4L133.1,20z"/>
				<path class="st0" d="M146.7,28.3c0,1.2-0.5,2.5-1.6,3.7c-1,1.2-2.1,1.8-3.1,1.8c-0.6,0-1.2-0.2-2-0.6c-0.7-0.4-1.8-1.1-3.3-2.3
					l0.5-0.6c0.8,0.5,1.4,0.9,1.9,1c0.4,0.1,0.9,0.2,1.4,0.2c0.7,0,1.4-0.2,2.1-0.6c0.8-0.5,1.6-1.2,2.5-2.2c-0.3,0-0.6,0.1-0.8,0.1
					c-0.7,0-1.3-0.2-1.7-0.7c-0.4-0.5-0.6-1.1-0.6-1.9c0-1.1,0.2-2.1,0.7-3.1c0.5-1.1,1.2-1.6,1.8-1.6c0.6,0,1.1,0.4,1.5,1.2
					c0.4,0.8,0.6,1.7,0.6,2.8V28.3z M145.4,26.1c-0.2-1.2-0.6-1.7-1.2-1.7c-0.2,0-0.4,0.1-0.5,0.3c-0.1,0.2-0.2,0.4-0.2,0.6
					c0,0.3,0.1,0.5,0.4,0.6c0.3,0.2,0.7,0.3,1.1,0.3H145.4z"/>
				<path class="st0" d="M152.7,29.1h-6.8v-2.9h5.7c-0.1-0.5-0.2-0.9-0.4-1.2c-0.1-0.2-0.4-0.5-0.8-1l0.9-2.6
					c0.5,0.6,0.9,1.3,1.1,1.9c0.2,0.7,0.3,1.7,0.3,3V29.1z M152.7,17.3l-1.3,2.4l-2.5-1.3l1.3-2.4L152.7,17.3z"/>
				<path class="st0" d="M168,29.1h-1.4c-0.3,0-0.5-0.1-0.7-0.2c-0.4-0.2-0.8-0.6-1.1-1.1c-0.4-0.8-0.6-1.8-0.8-3.1
					c-0.5,0.6-0.9,1-1.1,1.3c-0.4,0.4-0.7,0.6-1,0.6c-0.1,0-0.3,0-0.5-0.1l-1.3-0.3c-0.6-0.1-0.9-0.2-1-0.2c-0.1,0-0.2-0.1-0.2-0.3
					c0-0.2,0.3-0.8,0.8-1.8s0.9-1.7,1.1-1.9c0.2-0.2,0.5-0.4,1-0.8c0.3-0.2,0.7-0.4,1.2-0.7l0.6-0.3c0-0.1,0-0.2,0-0.3s0-0.2,0-0.3
					c0-0.3,0.1-0.6,0.2-1c0.1-0.4,0.4-0.9,0.7-1.5l1,6.7c0.2,1.1,0.4,1.8,0.6,2.1c0.2,0.2,0.4,0.4,0.7,0.4h1.4V29.1z M163.8,23
					l-0.2-1.3c-0.2,0.1-0.4,0.2-0.5,0.3c-0.4,0.2-0.7,0.4-0.9,0.6c-0.2,0.1-0.3,0.3-0.4,0.4c-0.1,0.2-0.2,0.3-0.2,0.4
					c0,0.1,0.1,0.2,0.4,0.2c0.3,0.1,0.5,0.1,0.7,0.1c0.2,0,0.3,0,0.5-0.1C163.2,23.4,163.4,23.2,163.8,23z"/>
				<path class="st0" d="M174,29.1h-6.8v-2.9h5.7c-0.1-0.5-0.2-0.9-0.4-1.2c-0.1-0.2-0.4-0.5-0.8-1l0.9-2.6c0.5,0.6,0.9,1.3,1.1,1.9
					c0.2,0.7,0.3,1.7,0.3,3V29.1z M172.9,31.3l-1.3,2.4l-2.5-1.4l1.3-2.5L172.9,31.3z"/>
				<path class="st0" d="M194.4,29.1h-9.1c-0.9,0-1.4,0-1.7,0c-0.3,0-0.6-0.1-0.9-0.2c-0.6-0.2-1.1-0.6-1.5-1.2
					c-0.4-0.6-0.6-1.3-0.6-2.1c0-0.3,0-0.6,0-0.8c0-0.2,0.1-0.5,0.2-0.8c0.1-0.5,0.3-0.9,0.4-1.2c0.2-0.3,0.4-0.7,0.8-1.3l0.6,0.4
					c-0.3,0.6-0.5,1-0.6,1.3s-0.2,0.7-0.2,1c0,0.4,0.1,0.8,0.4,1.1s0.6,0.5,1,0.6c0.3,0.1,0.6,0.1,1,0.2s0.8,0.1,1.3,0.1h7.8
					c-0.2-0.5-0.4-0.9-0.5-1.2c-0.2-0.3-0.4-0.6-0.7-1l1-2.5c0.5,0.8,0.9,1.5,1.1,2.1c0.1,0.6,0.2,1.4,0.2,2.5V29.1z M190.6,18.8
					l-1.2,2.2l-1.5-0.9l-0.9,1.7l-2-1.1l1.1-2.1l1.6,0.8l0.9-1.7L190.6,18.8z"/>
				<path class="st0" d="M199.6,29.1h-5.9v-2.9h4.6l-1.3-7.3l-0.7-0.5c0-0.4,0.1-0.9,0.2-1.3c0.2-0.5,0.4-1.2,0.8-2l0.5,0.3
					c0,0,0,0.2,0,0.3c0,0.2,0.2,0.5,0.5,0.7c0.3,0.2,0.7,0.4,1.3,0.7c-0.1,0.5-0.2,0.9-0.3,1.3s-0.3,0.8-0.4,1.2l-0.4-0.2l1.2,6.7
					V29.1z"/>
				<path class="st0" d="M216.7,29.1h-11.4c-0.5,0-0.9-0.1-1.2-0.4c-0.3-0.3-0.6-0.7-0.8-1.2c-0.5,0.6-0.9,1.1-1.3,1.3
					c-0.4,0.2-0.9,0.3-1.5,0.3l-1.5,0v-2.9l1.5,0c0.8,0,1.5-0.2,1.9-0.6c0.5-0.5,0.8-1.3,1-2.5l0.7,0.1c0,0.3,0,0.5,0,0.6
					c0,0.5,0,0.9,0,1.1c0,0.4,0.1,0.7,0.3,0.9c0.2,0.2,0.5,0.3,0.9,0.3s0.7-0.1,1-0.2c0.3-0.1,0.8-0.4,1.4-0.9l3.9-2.8
					c0.5-0.3,0.8-0.6,1-0.7c0.5-0.3,1-0.5,1.5-0.5c0.8,0,1.4,0.3,1.9,0.9c0.6,0.7,0.8,1.7,0.8,3V29.1z M215.2,25
					c0-0.3-0.3-0.6-0.8-0.8c-0.4-0.2-0.9-0.2-1.4-0.2c-0.5,0-1,0.2-1.6,0.5c-0.6,0.3-1.5,0.9-2.6,1.7h2.8
					C214,26.1,215.2,25.8,215.2,25z"/>
				<path class="st0" d="M222.7,29.1h-6.8v-2.9h5.7c-0.1-0.5-0.2-0.9-0.4-1.2c-0.1-0.2-0.4-0.5-0.8-1l0.9-2.6
					c0.5,0.6,0.9,1.3,1.1,1.9c0.2,0.7,0.3,1.7,0.3,3V29.1z M222.5,17.5l-1.2,2.2l-1.5-0.9l-0.9,1.7l-2-1.1l1.1-2.1l1.6,0.8l0.9-1.7
					L222.5,17.5z"/>
				<path class="st0" d="M226.7,25.9c0,0.6-0.1,1.2-0.2,1.8c-0.2,0.5-0.4,1.2-0.9,2.1l-0.6-0.3c0.2-0.9,0.3-1.7,0.3-2.2
					c0-0.4,0-1.1-0.1-1.9s-0.2-1.7-0.3-2.5c-0.1-0.8-0.3-1.8-0.5-3c-0.1-0.4-0.1-0.7-0.1-0.8c0-0.2,0.1-0.6,0.3-1.1
					c0.2-0.5,0.5-1.2,0.9-1.9l0.6,3.8c0.2,1.5,0.4,2.7,0.5,3.8C226.6,24.4,226.7,25.2,226.7,25.9z"/>
				<path class="st0" d="M237.6,25.9c0,0.6-0.1,1.2-0.2,1.8c-0.2,0.5-0.4,1.2-0.9,2.1l-0.6-0.3c0.2-0.9,0.3-1.7,0.3-2.2
					c0-0.4,0-1.1-0.1-1.9s-0.2-1.7-0.3-2.5c-0.1-0.8-0.3-1.8-0.5-3c-0.1-0.4-0.1-0.7-0.1-0.8c0-0.2,0.1-0.6,0.3-1.1
					c0.2-0.5,0.5-1.2,0.9-1.9l0.6,3.8c0.2,1.5,0.4,2.7,0.5,3.8C237.5,24.4,237.6,25.2,237.6,25.9z"/>
				<path class="st0" d="M245.9,29.1h-4.9c-0.5,0-0.8-0.1-1.1-0.3c-0.3-0.2-0.5-0.6-0.5-1.2c0-0.3,0-0.7,0-1c0-0.4,0.1-0.7,0.1-1.1
					l0.4,0c0.1,0.3,0.2,0.4,0.4,0.6c0.2,0.1,0.4,0.2,0.7,0.2h3.7c-0.2-1.1-0.5-1.9-0.9-2.5c-0.3-0.5-0.8-1-1.4-1.4l0.8-3.4
					c0.9,0.7,1.6,1.6,2,2.7c0.4,1,0.5,2.4,0.5,4V29.1z M244.1,14.9l-1.3,2.4l-2.5-1.3l1.3-2.4L244.1,14.9z"/>
				<path class="st0" d="M249.9,32.8c-0.1,0.2-0.2,0.4-0.3,0.5c-0.1,0.1-0.2,0.1-0.4,0.2l-2.3,0.7c0.1-0.3,0.3-0.4,0.4-0.5
					c0.1-0.1,0.3-0.2,0.6-0.3c-0.2-0.1-0.3-0.3-0.4-0.4c-0.1-0.1-0.1-0.2-0.1-0.3c0-0.1,0-0.2,0.1-0.3c0.1-0.1,0.1-0.2,0.2-0.4
					c0.5-0.6,0.9-0.9,1.4-0.9c0.1,0,0.2,0,0.3,0.1c0.1,0.1,0.1,0.2,0.1,0.4c0,0.1,0,0.2,0,0.3s-0.1,0.2-0.2,0.4
					c-0.4-0.2-0.6-0.3-0.7-0.3c-0.1,0-0.3,0-0.4,0.1c-0.1,0-0.2,0.1-0.2,0.2c0,0.1,0.2,0.2,0.5,0.4c0.3,0.2,0.6,0.3,0.7,0.3
					C249.2,32.9,249.5,32.9,249.9,32.8z M249.9,25.9c0,0.6-0.1,1.2-0.2,1.8c-0.2,0.5-0.4,1.2-0.9,2.1l-0.6-0.3
					c0.2-0.9,0.3-1.7,0.3-2.2c0-0.4,0-1.1-0.1-1.9s-0.2-1.7-0.3-2.5c-0.1-0.8-0.3-1.8-0.5-3c-0.1-0.4-0.1-0.7-0.1-0.8
					c0-0.2,0.1-0.6,0.3-1.1c0.2-0.5,0.5-1.2,0.9-1.9l0.6,3.8c0.2,1.5,0.4,2.7,0.5,3.8C249.9,24.4,249.9,25.2,249.9,25.9z"/>
				<path class="st0" d="M251.5,36.9c0.6-1.3,1-2.3,1.3-2.9c0.2-0.7,0.5-1.5,0.7-2.4c0.2-0.9,0.4-1.7,0.5-2.5s0.2-1.6,0.2-2.5
					c0-1.7-0.2-3.3-0.5-4.9c-0.4-1.5-1-3.4-2-5.6h2.1c1.1,1.5,1.9,3.2,2.5,4.9s0.9,3.5,0.9,5.3c0,1.5-0.2,3.1-0.7,4.8
					c-0.5,1.9-1.4,3.8-2.7,5.7H251.5z"/>
			</g>
		</g>
	</g>
	<rect class="st1" width="282.3" height="45.9"/>
</g>
</svg>
