<?xml version="1.0" encoding="utf-8"?>
<!-- Generator: Adobe Illustrator 19.2.0, SVG Export Plug-In . SVG Version: 6.00 Build 0)  -->
<svg version="1.1" id="Layer_1" xmlns="http://www.w3.org/2000/svg" xmlns:xlink="http://www.w3.org/1999/xlink" x="0px" y="0px"
	 viewBox="0 0 282.3 45.9" style="enable-background:new 0 0 282.3 45.9;" xml:space="preserve">
<style type="text/css">
	.st0{fill:#BA0017;}
	.st1{fill:none;}
</style>
<g>
	<g>
		<g>
			<g>
				<g>
					<path d="M75.7,10c0,0.3-0.2,0.6-0.5,0.9c-0.6,0.3-1.7,0.7-3.1,1.2c0-0.3,0.2-0.6,0.5-0.9C73.2,11.1,74.2,10.7,75.7,10z
						 M75.7,11.6c0,0.3,0,0.5-0.1,0.6c-0.1,0.1-0.2,0.2-0.4,0.3c-0.6,0.3-1.7,0.7-3.1,1.2c0-0.3,0.2-0.6,0.5-0.9
						C73.2,12.7,74.2,12.2,75.7,11.6z"/>
					<path d="M77.9,28.4h-1.5c-0.5,0-0.9-0.4-1.3-1.3c-0.3-0.6-0.5-1.5-0.7-2.5c-0.2,0.4-0.5,0.7-0.8,0.9c-0.3,0.2-0.7,0.3-1,0.3
						c-0.8,0-1.5-0.1-2-0.2c-0.5-0.1-0.8-0.2-0.8-0.4c0-0.6,0.4-1.3,1.2-2s1.8-1.4,2.9-1.9c0-0.1,0-0.2-0.1-0.4s-0.1-0.4-0.1-0.4
						c0-0.2,0.1-0.5,0.2-0.8c0.1-0.2,0.3-0.5,0.5-0.7c0.1,0.4,0.1,0.9,0.2,1.3c0.1,0.4,0.2,0.8,0.3,1.3l0.3,1.8
						c0.2,1,0.3,1.7,0.5,2.2c0.2,0.7,0.4,1.1,0.7,1.1h1.5V28.4z M72.9,16.7l-0.8,1.5l-1.7-0.9l0.8-1.5L72.9,16.7z M74.3,23.7
						l-0.2-1.1c-0.6,0.2-1.1,0.4-1.4,0.7c-0.4,0.2-0.6,0.5-0.9,0.9c0.1,0.1,0.3,0.1,0.5,0.1c0.2,0,0.5,0.1,0.8,0.1
						C73.5,24.3,73.9,24.1,74.3,23.7z M75.3,15.8l-0.8,1.5l-1.7-0.9l0.8-1.5L75.3,15.8z"/>
					<path d="M84.4,15.9c0,0.3-0.2,0.6-0.5,1c-0.6,0.2-1.6,0.7-3,1.2c0-0.3,0.2-0.6,0.5-0.9C81.9,16.9,82.9,16.5,84.4,15.9z"/>
					<path d="M88.1,25.1L87.3,27c-1.1,0.4-2.3,0.7-3.7,1c-1.4,0.3-2.7,0.4-3.8,0.4h-2.6v-1.8h2.5c-0.2-0.3-0.4-0.7-0.5-1.1
						C79.1,25,79,24.6,79,24.2c0-0.8,0.3-1.5,1-2.1c0.7-0.6,1.6-0.8,2.7-0.8c0.9,0,1.6,0.2,2.1,0.6c0.2,0.2,0.6,0.6,1.2,1.3
						l-0.2,0.2c-0.5-0.1-0.9-0.2-1.3-0.3C84.2,23,83.8,23,83.4,23c-1,0-1.7,0.1-2.3,0.3c-0.6,0.2-0.8,0.5-0.8,0.8
						c0,0.3,0.2,0.7,0.5,1.2c0.3,0.4,0.8,0.8,1.3,1.1c1.1-0.2,2.1-0.3,2.8-0.5C85.7,25.7,86.7,25.5,88.1,25.1z"/>
					<path d="M94.2,28.4h-1.5c-0.5,0-0.9-0.2-1.1-0.6c-0.3-0.3-0.4-0.8-0.6-1.5c-0.1-0.7-0.2-1.5-0.3-2.5c0-0.8-0.1-1.6-0.1-2.4
						c0-0.8-0.1-1.5-0.2-1.9c-0.1-0.4-0.2-0.8-0.3-1.1c-0.2-0.3-0.4-0.6-0.6-0.9l1.3-2c0.3,0.8,0.5,1.8,0.6,3
						c0.1,0.7,0.1,2.5,0.2,5.2c0.1,1.2,0.3,2,0.5,2.4c0.2,0.3,0.4,0.4,0.6,0.4h1.5V28.4z"/>
					<path d="M105.6,28.4h-0.8c-0.4,0-0.8-0.1-1.2-0.2c-0.3-0.1-0.6-0.3-0.9-0.5c-0.3,0.3-0.6,0.4-0.9,0.5c-0.4,0.1-0.8,0.2-1.5,0.2
						h-0.7c-0.4,0-0.7-0.1-1.1-0.2c-0.2-0.1-0.5-0.2-0.9-0.5c-0.3,0.3-0.6,0.4-0.9,0.5s-0.7,0.1-1.4,0.1h-2v-1.8h2
						c0.6,0,1,0,1.2-0.1c0.4-0.2,0.6-0.5,0.6-1c0-0.2,0-0.4,0-0.6s-0.1-0.4-0.1-0.7l0.4-0.6c0.2,0.6,0.4,1.1,0.5,1.4
						c0.2,0.5,0.5,0.9,0.7,1.2c0.3,0.3,0.7,0.5,1.2,0.5h0.7c0.5,0,0.9-0.1,1.2-0.2c0.3-0.2,0.4-0.5,0.4-0.9c0-0.2,0-0.4,0-0.6
						c0-0.2-0.1-0.4-0.1-0.7l0.4-0.6l0.2,1c0.2,0.8,0.4,1.3,0.7,1.6c0.2,0.3,0.6,0.4,1,0.4c0.2,0,0.3-0.1,0.5-0.2
						c0.1-0.1,0.2-0.3,0.2-0.4c0-0.4-0.1-0.8-0.4-1.2c0-0.1-0.2-0.3-0.5-0.7l0.7-1.1c0.3,0.4,0.5,0.8,0.6,1.1
						c0.2,0.5,0.2,1.1,0.2,1.9V28.4z"/>
					<path d="M118,36.6c0,0.3-0.2,0.6-0.5,1c-0.6,0.2-1.6,0.7-3,1.2c0-0.3,0.2-0.6,0.5-0.9C115.5,37.6,116.5,37.2,118,36.6z
						 M118,38.1c0,0.3-0.2,0.7-0.5,1c-0.6,0.2-1.6,0.7-3,1.2c0-0.3,0.2-0.6,0.5-0.9C115.5,39.2,116.5,38.8,118,38.1z"/>
					<path d="M118.9,28.4h-1.3c-1.2,0-2.2,0.1-3,0.3c-1.1,0.3-1.7,0.7-1.7,1.2c0,0.5,0.1,1,0.2,1.5c0.2,0.5,0.3,1.1,0.5,1.6
						c0.2,0.5,0.2,1,0.2,1.5c0,0.3,0,0.5-0.1,0.7s-0.1,0.5-0.2,0.9c-0.2-0.6-0.4-1.2-0.5-1.7c-0.3-1.1-0.6-1.9-0.7-2.5
						c-0.3-0.9-0.4-1.4-0.4-1.6c0-0.9,0.2-1.6,0.6-2.1c0.4-0.5,1-0.8,1.7-1.1c0.6-0.2,1.5-0.3,2.8-0.5c-0.4-0.4-0.7-0.7-0.8-0.8
						c-0.4-0.3-0.7-0.4-1.1-0.4c-0.2,0-0.5,0.1-0.7,0.2c-0.2,0.1-0.4,0.3-0.6,0.6l-0.5-0.3c0.2-0.5,0.4-0.9,0.7-1.3
						c0.4-0.5,1-0.8,1.6-0.8c0.4,0,0.9,0.2,1.3,0.5c0.4,0.3,0.7,0.6,1.1,1.1c0.2,0.2,0.5,0.6,0.8,1.2V28.4z"/>
					<path d="M127.5,16.5c0,0.4-0.2,0.8-0.5,1.2c-0.3,0.3-0.7,0.5-1.2,0.5c-0.4,0-0.7-0.1-0.9-0.3c-0.2-0.2-0.3-0.5-0.3-0.9
						c0-0.5,0.1-1,0.4-1.4c0.3-0.4,0.6-0.6,1-0.6c0.4,0,0.7,0.2,1,0.5C127.3,15.7,127.5,16.1,127.5,16.5z M126.8,16.8
						c0-0.2-0.1-0.4-0.4-0.7s-0.5-0.4-0.7-0.4c-0.2,0-0.3,0.1-0.5,0.2s-0.2,0.3-0.2,0.5c0,0.2,0.1,0.4,0.3,0.5
						c0.2,0.1,0.4,0.1,0.8,0.1c0.2,0,0.3,0,0.4-0.1S126.8,16.9,126.8,16.8z"/>
					<path d="M128.2,27.7c0,1.2-0.4,2.3-1.3,3.4c-1,1.3-2.1,1.9-3.3,1.9c-0.5,0-0.9-0.1-1.4-0.2c-0.4-0.1-0.8-0.2-1.4-0.4
						c-0.5-0.2-0.9-0.3-1.4-0.5l0.2-0.4c0.4,0.1,0.8,0.2,1.2,0.3c0.4,0.1,0.8,0.2,1.2,0.2c0.9,0,1.7-0.2,2.4-0.7
						c0.6-0.3,1.2-0.8,1.8-1.5c0.3-0.3,0.7-0.9,1.3-1.6c-0.9,0-1.7-0.2-2.1-0.5c-0.5-0.3-0.8-0.9-0.8-1.7c0-0.7,0.2-1.4,0.5-2
						c0.4-0.7,0.9-1.1,1.5-1.1c0.6,0,1,0.4,1.3,1.1c0.2,0.6,0.3,1.3,0.3,2.3V27.7z M127.5,26.6c-0.2-0.7-0.3-1.1-0.6-1.4
						c-0.2-0.2-0.4-0.3-0.7-0.3c-0.2,0-0.4,0.1-0.5,0.2s-0.2,0.3-0.2,0.5c0,0.3,0.2,0.6,0.5,0.8C126.3,26.5,126.8,26.6,127.5,26.6z"
						/>
					<path d="M133.6,15.9c0,0.3-0.2,0.6-0.5,1c-0.6,0.2-1.6,0.7-3,1.2c0-0.3,0.2-0.6,0.5-0.9C131.1,16.9,132.1,16.5,133.6,15.9z"/>
					<path d="M133.4,28.4h-6v-1.8h5.2c0-0.8-0.1-1.5-0.3-1.9c-0.1-0.3-0.5-0.7-1-1.3l0.8-1.7c0.5,0.6,0.8,1.1,0.9,1.5
						c0.2,0.5,0.3,1.4,0.3,2.7V28.4z M131,31.4l-0.8,1.5l-1.7-0.9l0.8-1.5L131,31.4z M133.4,30.5l-0.8,1.5l-1.7-0.9l0.8-1.5
						L133.4,30.5z"/>
					<path d="M144.8,16c0,0.5-0.1,1-0.3,1.3c-0.2,0.4-0.5,0.6-0.8,0.6c-0.1,0-0.2,0-0.4-0.1c-0.1,0-0.2-0.1-0.4-0.2
						c-0.1,0.2-0.3,0.4-0.4,0.6c-0.2,0.2-0.5,0.3-0.7,0.3c-0.3,0-0.5-0.1-0.7-0.3c-0.1-0.2-0.2-0.5-0.2-0.8c0-0.2,0-0.4,0.1-0.6
						c0-0.1,0.1-0.3,0.2-0.6l0.2-0.1c0,0.1,0,0.1,0,0.3c0,0.1,0,0.2,0,0.3c0,0.2,0,0.3,0.1,0.4c0.1,0.1,0.2,0.2,0.3,0.2
						c0.3,0,0.5-0.2,0.7-0.6c0.1-0.2,0.2-0.5,0.3-1.1l0.2-0.1c0.1,0.3,0.1,0.6,0.1,0.6c0.1,0.2,0.2,0.3,0.4,0.3
						c0.3,0,0.5-0.2,0.6-0.5c0.1-0.3,0.2-0.6,0.2-0.9l0.2-0.1c0,0.1,0.1,0.3,0.1,0.5C144.8,15.8,144.8,15.9,144.8,16z M144.7,13.5
						c0,0.3-0.2,0.6-0.5,1c-0.6,0.2-1.6,0.6-3,1.2c0-0.3,0.2-0.6,0.5-0.9C142.1,14.5,143.2,14.1,144.7,13.5z"/>
					<path d="M150.3,27c0,1.1-0.3,2-0.8,2.7c-0.5,0.6-1.2,1-2.1,1.3c-0.8,0.2-1.7,0.3-2.9,0.3c-1.4,0-2.4-0.2-3.1-0.7
						c-0.8-0.5-1.2-1.4-1.2-2.4c0-0.6,0.1-1.2,0.3-1.9c0.1-0.6,0.4-1.2,0.7-1.8c0.2-0.5,0.5-1.1,0.9-1.7l0.3,0.2
						c-0.3,0.5-0.5,0.9-0.7,1.3c-0.2,0.5-0.4,0.9-0.5,1.3c-0.1,0.5-0.2,0.9-0.2,1.4c0,0.9,0.3,1.5,0.9,2s1.5,0.7,2.6,0.7
						c1.2,0,2.3-0.2,3.3-0.6c1.1-0.4,1.7-1,1.7-1.6c0-0.7-0.1-1.8-0.3-3.5c-0.2-1.2-0.4-2.6-0.6-4.2l-0.3-2l-0.5-0.3
						c0-0.9,0.2-1.8,0.6-2.6h0.2c0,0.3,0.1,0.5,0.1,0.6c0.1,0.1,0.2,0.2,0.3,0.3c0.2,0.1,0.5,0.2,0.7,0.3c0.2,0.1,0.4,0.2,0.5,0.2
						c0,0.5,0,0.8-0.1,1.1c0,0.2-0.1,0.5-0.2,0.9l-0.6-0.2c0,0.2,0.1,0.9,0.3,2.1c0.2,1.5,0.4,2.7,0.5,3.6
						C150.2,25.2,150.3,26.3,150.3,27z"/>
					<path d="M155.8,13.5c0,0.1,0,0.2,0,0.4c0,0.1,0,0.3-0.1,0.4l-0.9-0.5c-0.4,0.4-0.6,0.6-0.7,0.8c-0.5,0.5-1,0.8-1.3,0.8h-0.8
						c0.4-0.2,0.8-0.5,1.3-0.9c0.4-0.4,0.8-0.7,1-0.9c-0.2-0.1-0.4-0.3-0.5-0.4c-0.1-0.2-0.2-0.4-0.2-0.6c0-0.5,0.1-0.9,0.4-1.2
						c0.3-0.4,0.6-0.5,0.9-0.5c0.2,0,0.3,0.1,0.5,0.3c0.1,0.2,0.2,0.4,0.2,0.7c0,0.1,0,0.3-0.1,0.4s-0.1,0.4-0.3,0.8
						c0.1,0.1,0.2,0.2,0.3,0.3C155.8,13.2,155.8,13.3,155.8,13.5z M155,12.3c0-0.2-0.1-0.4-0.2-0.5c-0.1-0.2-0.3-0.2-0.4-0.2
						c-0.1,0-0.1,0-0.2,0.1c0,0-0.1,0.1-0.1,0.1c0,0.2,0.1,0.3,0.3,0.5l0.5,0.4C155,12.5,155,12.4,155,12.3z"/>
					<path d="M158.8,28.4h-9.2v-1.8h8c-0.5-0.7-1.1-1.4-1.7-1.9c-0.6-0.5-1.5-1.1-2.6-1.8l-0.3,0.3l-1.2-0.9
						c-0.4-0.4-0.7-0.6-0.7-0.9c0-1.2,0.3-2.2,0.9-2.8c0.5-0.6,1.5-1.2,2.8-1.7l3-1.2v1.8l-2.2,0.7c-0.9,0.3-1.6,0.6-2.1,0.8
						c-0.7,0.3-1,0.5-1,0.7s0.2,0.4,0.7,0.7c0.3,0.2,0.6,0.4,0.9,0.6c1.1,0.8,2,1.6,2.8,2.5c0.9,0.9,1.5,1.9,2.1,2.9V28.4z"/>
					<path class="st0" d="M172.3,16.5c0,0.4-0.2,0.8-0.5,1.2c-0.3,0.3-0.7,0.5-1.2,0.5c-0.4,0-0.7-0.1-0.9-0.3
						c-0.2-0.2-0.3-0.5-0.3-0.9c0-0.5,0.1-1,0.4-1.4c0.3-0.4,0.6-0.6,1-0.6c0.4,0,0.7,0.2,1,0.5C172.2,15.7,172.3,16.1,172.3,16.5z
						 M171.7,16.8c0-0.2-0.1-0.4-0.4-0.7s-0.5-0.4-0.7-0.4c-0.2,0-0.3,0.1-0.5,0.2s-0.2,0.3-0.2,0.5c0,0.2,0.1,0.4,0.3,0.5
						c0.2,0.1,0.4,0.1,0.8,0.1c0.2,0,0.3,0,0.4-0.1S171.7,16.9,171.7,16.8z"/>
					<path class="st0" d="M176.1,28.4c0,1.6-0.5,2.7-1.4,3.4c-1,0.8-2.6,1.2-4.8,1.2c-1.4,0-2.5-0.2-3.2-0.7
						c-0.8-0.5-1.2-1.4-1.2-2.5c0-0.6,0.1-1.2,0.2-1.8c0.1-0.6,0.3-1.2,0.6-1.9c0.2-0.4,0.4-1,0.8-1.7l0.4,0.2c-0.5,1-0.8,1.8-1,2.4
						c-0.2,0.6-0.2,1.1-0.2,1.6c0,0.9,0.3,1.5,0.9,2s1.5,0.7,2.7,0.7c1.3,0,2.5-0.2,3.5-0.7c1.3-0.6,1.9-1.4,1.9-2.4
						c0-0.7-0.1-1.4-0.3-2c-0.2-0.5-0.4-1-0.8-1.4l0.9-2.2c0.4,0.6,0.6,1.1,0.8,1.7c0.1,0.6,0.2,1.4,0.2,2.3V28.4z M172.2,20.3
						l-0.8,1.5l-1.6-0.9l0.8-1.5L172.2,20.3z"/>
					<path class="st0" d="M181.5,15.9c0,0.3-0.2,0.6-0.5,1c-0.6,0.2-1.6,0.7-3,1.2c0-0.3,0.2-0.6,0.5-0.9
						C179,16.9,180,16.5,181.5,15.9z"/>
					<path class="st0" d="M181.3,28.4h-6v-1.8h5.2c0-0.8-0.1-1.5-0.3-1.9c-0.1-0.3-0.5-0.7-1-1.3l0.8-1.7c0.5,0.6,0.8,1.1,0.9,1.5
						c0.2,0.5,0.3,1.4,0.3,2.7V28.4z M178.9,31.4l-0.8,1.5l-1.7-0.9l0.8-1.5L178.9,31.4z M181.3,30.5l-0.8,1.5l-1.7-0.9l0.8-1.5
						L181.3,30.5z"/>
					<path class="st0" d="M188.5,30.2c0,0.3-0.2,0.7-0.5,1c-0.6,0.2-1.6,0.6-3,1.2c0-0.3,0.2-0.6,0.5-0.9
						C185.9,31.3,187,30.9,188.5,30.2z"/>
					<path class="st0" d="M192.8,28.4H192c-0.4,0-0.8-0.1-1.2-0.2c-0.3-0.1-0.6-0.3-0.9-0.5c-0.3,0.3-0.6,0.4-0.9,0.5
						c-0.4,0.1-0.8,0.2-1.5,0.2h-0.7c-0.4,0-0.7-0.1-1.1-0.2c-0.2-0.1-0.5-0.2-0.9-0.5c-0.3,0.3-0.6,0.4-0.9,0.5s-0.7,0.1-1.4,0.1
						h-2v-1.8h2c0.6,0,1,0,1.2-0.1c0.4-0.2,0.6-0.5,0.6-1c0-0.2,0-0.4,0-0.6s-0.1-0.4-0.1-0.7l0.4-0.6c0.2,0.6,0.4,1.1,0.5,1.4
						c0.2,0.5,0.5,0.9,0.7,1.2c0.3,0.3,0.7,0.5,1.2,0.5h0.7c0.5,0,0.9-0.1,1.2-0.2c0.3-0.2,0.4-0.5,0.4-0.9c0-0.2,0-0.4,0-0.6
						c0-0.2-0.1-0.4-0.1-0.7l0.4-0.6l0.2,1c0.2,0.8,0.4,1.3,0.7,1.6c0.2,0.3,0.6,0.4,1,0.4c0.2,0,0.3-0.1,0.5-0.2
						c0.1-0.1,0.2-0.3,0.2-0.4c0-0.4-0.1-0.8-0.4-1.2c0-0.1-0.2-0.3-0.5-0.7l0.7-1.1c0.3,0.4,0.5,0.8,0.6,1.1
						c0.2,0.5,0.2,1.1,0.2,1.9V28.4z M189.4,19.8l-0.8,1.5l-1.7-0.9l0.8-1.5L189.4,19.8z M189.8,16.9l-0.8,1.5l-1.7-0.9L188,16
						L189.8,16.9z M191.8,18.8l-0.8,1.5l-1.7-0.9l0.8-1.5L191.8,18.8z"/>
					<path class="st0" d="M198.5,16.5c0,0.4-0.2,0.8-0.5,1.2c-0.3,0.3-0.7,0.5-1.2,0.5c-0.4,0-0.7-0.1-0.9-0.3
						c-0.2-0.2-0.3-0.5-0.3-0.9c0-0.5,0.1-1,0.4-1.4c0.3-0.4,0.6-0.6,1-0.6c0.4,0,0.7,0.2,1,0.5C198.3,15.7,198.5,16.1,198.5,16.5z
						 M197.8,16.8c0-0.2-0.1-0.4-0.4-0.7s-0.5-0.4-0.7-0.4c-0.2,0-0.3,0.1-0.5,0.2s-0.2,0.3-0.2,0.5c0,0.2,0.1,0.4,0.3,0.5
						c0.2,0.1,0.4,0.1,0.8,0.1c0.2,0,0.3,0,0.4-0.1S197.8,16.9,197.8,16.8z"/>
					<path class="st0" d="M201.2,28.4h-1.1c-0.5,0-1-0.1-1.6-0.3c-0.7-0.2-1.3-0.6-1.8-1c-0.4,0.5-0.8,0.8-1.2,1
						c-0.4,0.2-1,0.3-1.9,0.3H192v-1.8h1.6c0.6,0,1.2-0.2,1.7-0.5c0.4-0.3,0.7-0.6,1.1-1.1c0.4-0.6,1-1.2,1.6-1.6
						c0.6-0.4,1.1-0.7,1.5-0.8c0.5,0.7,0.9,1.4,1.2,2c0.4,0.8,0.6,1.4,0.6,1.9V28.4z M200,26.3c-0.1-0.4-0.2-0.8-0.4-1.2
						c-0.2-0.3-0.4-0.7-0.6-1c-0.3,0.1-0.6,0.2-0.9,0.5c-0.2,0.1-0.3,0.4-0.5,0.7c0.3,0.3,0.6,0.5,1.1,0.7c0.5,0.2,0.9,0.4,1.3,0.4
						L200,26.3z"/>
					<path class="st0" d="M205.4,9.1c0,0.3-0.2,0.6-0.5,1c-0.6,0.2-1.6,0.7-3,1.2c0-0.3,0.2-0.6,0.5-0.9
						C202.9,10.1,203.9,9.7,205.4,9.1z"/>
					<path class="st0" d="M212.5,11.7c0,0.3-0.2,0.6-0.5,1c-0.6,0.2-1.6,0.7-3,1.2c0-0.3,0.2-0.6,0.5-0.9
						C209.9,12.7,211,12.3,212.5,11.7z"/>
					<path class="st0" d="M204.6,14.2c0,0.2-0.1,0.3-0.3,0.5c-0.1,0.1-0.4,0.2-0.7,0.3l-2,0.7c0-0.3,0.4-0.6,1.1-0.9
						c-0.2-0.1-0.4-0.2-0.5-0.3c-0.1-0.1-0.2-0.3-0.2-0.4c0-0.2,0.2-0.5,0.6-0.9c0.4-0.4,0.8-0.7,1.1-0.7c0.1,0,0.3,0,0.4,0.1
						c0.1,0.1,0.2,0.2,0.2,0.4c0,0.1,0,0.2-0.1,0.3s-0.1,0.2-0.2,0.3c-0.2-0.2-0.5-0.3-0.7-0.3c-0.2,0-0.3,0-0.5,0.1
						c-0.2,0.1-0.2,0.1-0.2,0.2c0,0.1,0.2,0.2,0.5,0.4c0.3,0.2,0.6,0.3,0.8,0.3c0.2,0,0.3,0,0.3,0C204.2,14.3,204.4,14.3,204.6,14.2
						z M212.2,17.2l-0.5,1.9l-0.6-0.3l0,1c0,0.9-0.1,1.8-0.4,2.7c-0.3,1-0.7,1.9-1.2,2.9c0.3,0.5,0.5,0.9,0.6,1.2
						c0.2,0.4,0.2,0.9,0.2,1.3c0,0.3,0,0.5,0,0.7c0,0.2,0,0.4-0.1,0.6c-0.7,0.2-1.5,0.3-2.4,0.4s-1.7,0.1-2.5,0.1c0-0.1,0-0.2,0-0.3
						c0-0.5,0.1-1,0.3-1.5c1.2-0.6,2.2-1.5,3-2.5c-0.5-0.9-0.8-1.6-1.1-2c-0.2-0.4-0.7-1.1-1.3-2c-0.2-0.3-0.4-0.5-0.6-0.7
						c-0.2-0.2-0.4-0.4-0.5-0.4c-0.1,0-0.2,0.1-0.5,0.2c-0.1,0.1-0.2,0.1-0.3,0.1c-0.2,0-0.4-0.2-0.7-0.5c-0.3-0.3-0.6-0.6-0.9-1
						c-0.3-0.3-0.4-0.6-0.5-0.8c-0.1-0.2-0.1-0.5-0.1-0.8c0-0.4,0-0.8,0.1-1c0.1-0.4,0.2-0.6,0.4-0.6c0.3,0,0.7,0.3,1.3,0.8
						c0.5,0.5,1,1.1,1.6,1.9c0.5,0.7,1,1.5,1.6,2.3l1.1,1.7c0.3,0.5,0.6,1.1,1,1.8c0.5-0.9,0.8-1.9,1-2.9c0.2-0.8,0.2-1.9,0.2-3.2
						l-0.6-0.3c0-0.5,0-0.9,0.1-1.3s0.2-0.7,0.3-1l0.2,0.1c0,0.3,0.2,0.5,0.5,0.7c0.2,0.1,0.4,0.2,0.6,0.3S212,17.2,212.2,17.2z
						 M209.4,27.5c0-0.2,0-0.3-0.1-0.5s-0.2-0.4-0.4-0.8c-0.2,0.3-0.5,0.6-0.9,0.9c-0.4,0.4-0.8,0.7-1.2,0.9c0.8,0,1.4,0,1.8-0.1
						C209.1,27.9,209.4,27.7,209.4,27.5z"/>
				</g>
			</g>
		</g>
	</g>
	<rect class="st1" width="282.3" height="45.9"/>
</g>
</svg>
