<?xml version="1.0" encoding="utf-8"?>
<!-- Generator: Adobe Illustrator 23.0.2, SVG Export Plug-In . SVG Version: 6.00 Build 0)  -->
<svg version="1.1" id="Layer_1" xmlns="http://www.w3.org/2000/svg" xmlns:xlink="http://www.w3.org/1999/xlink" x="0px" y="0px"
	 viewBox="0 0 36.6 28.6" style="enable-background:new 0 0 36.6 28.6;" xml:space="preserve">
<style type="text/css">
	.st0{fill:#FFFFFF;}
</style>
<g>
	<g>
		<g>
			<path class="st0" d="M21.3,19.3H3.7C3.3,19.3,3,19,3,18.5c0-0.4,0.3-0.7,0.7-0.7h17.5c0.2,0,0.4-0.1,0.8-0.4
				c0.3-0.2,0.6-0.4,1-0.6c-0.9-0.4-2-1.1-2.8-2.1c-0.4-0.4-0.8-0.9-1.1-1.3c-1.3-1.6-2.2-2.7-3.9-2.7c-2.5,0-4.2,3-4.2,3
				c-0.2,0.3-0.6,0.5-1,0.3c-0.3-0.2-0.5-0.6-0.3-1c0.1-0.2,2.1-3.7,5.4-3.7c2.4,0,3.6,1.5,5,3.2c0.3,0.4,0.7,0.8,1.1,1.3
				c1.8,2,4.6,2.5,4.6,2.5c0.4,0.1,0.6,0.4,0.6,0.7c0,0.4-0.3,0.6-0.7,0.6c-1.6,0-2.4,0.5-3,0.9C22.4,18.9,21.9,19.3,21.3,19.3z"/>
		</g>
		<g>
			<path class="st0" d="M32.9,19.3h-6.7c-2.7,0-3-1.4-3-1.6c0-0.4,0.2-0.7,0.6-0.8c0.4,0,0.7,0.2,0.8,0.6c0,0.1,0.3,0.4,1.6,0.4h6.7
				c0.4,0,0.7,0.3,0.7,0.7S33.2,19.3,32.9,19.3z M24.6,17.5L24.6,17.5L24.6,17.5z M24.6,17.5L24.6,17.5L24.6,17.5z"/>
		</g>
	</g>
</g>
</svg>
