<?xml version="1.0" encoding="utf-8"?>
<!-- Generator: Adobe Illustrator 19.2.0, SVG Export Plug-In . SVG Version: 6.00 Build 0)  -->
<svg version="1.1" id="Layer_1" xmlns="http://www.w3.org/2000/svg" xmlns:xlink="http://www.w3.org/1999/xlink" x="0px" y="0px"
	 viewBox="0 0 151.5 46.4" style="enable-background:new 0 0 151.5 46.4;" xml:space="preserve">
<style type="text/css">
	.st0{fill:#097B70;}
	.st1{fill:none;}
</style>
<g>
	<g>
		<path class="st0" d="M70.8,27.7c0,1-0.5,1.9-1.6,2.7c-1.1,0.8-2.2,1.2-3.6,1.2c-1.1,0-2-0.3-2.6-0.9c-0.6-0.6-1-1.4-1-2.4
			c0-1,0.1-1.8,0.4-2.5c0.3-0.8,0.8-1.8,1.6-2.9l0.6,0.4c-0.5,0.8-0.9,1.4-1.1,2c-0.2,0.6-0.3,1.1-0.3,1.7c0,0.6,0.2,1.1,0.7,1.4
			c0.4,0.3,1.1,0.5,1.9,0.5c1.2,0,2.1-0.2,2.8-0.7s1.1-1,1.1-1.8c0-0.1,0-0.2,0-0.3s0-0.1,0-0.2c0-0.3,0-0.5-0.1-0.8
			s-0.2-0.9-0.3-1.9c-0.3-1.6-0.6-3.1-0.8-4.7l-0.5-0.4c0-0.6,0.3-1.6,0.9-3l0.5,0.2c0,0.1,0,0.2,0,0.3c0,0.3,0.1,0.5,0.4,0.6
			c0.4,0.2,0.8,0.4,1.1,0.6c-0.1,0.6-0.1,1-0.2,1.2s-0.2,0.6-0.5,1.1l-0.3-0.1c0,0.1,0.1,0.7,0.3,1.7c0.2,1,0.3,1.9,0.5,2.6
			c0.2,1.1,0.3,1.7,0.3,1.9V27.7z"/>
		<path class="st0" d="M75.6,27.9h-1.4c-0.8,0-1.3-0.3-1.7-0.9c-0.4-0.7-0.6-1.9-0.6-3.5v-2.8c0-0.6-0.1-1.1-0.3-1.5
			c-0.1-0.2-0.3-0.4-0.6-0.7l1.1-2.5c0.4,0.5,0.6,1,0.8,1.6c0.2,0.6,0.3,1.4,0.3,2.3v1.9c0,1.4,0.1,2.3,0.3,2.9
			c0.1,0.4,0.4,0.6,0.7,0.6h1.4V27.9z"/>
		<path class="st0" d="M81,27.9h-6.2v-2.7h5.2c-0.1-0.4-0.2-0.8-0.4-1.1c-0.1-0.2-0.3-0.5-0.7-0.9l0.8-2.3c0.5,0.6,0.8,1.1,1,1.8
			c0.2,0.6,0.3,1.5,0.3,2.7V27.9z M80.9,17.4l-1.1,2l-1.4-0.8l-0.8,1.6l-1.8-1l1-1.9l1.5,0.7l0.8-1.6L80.9,17.4z M79,15l-1,2l-1.9-1
			l1-2L79,15z"/>
		<path class="st0" d="M89.4,27.9c-0.7,0-1.5-0.1-2.4-0.4c-0.8-0.2-1.5-0.5-2.2-0.8c-0.4,0.6-0.9,0.9-1.4,1.1
			c-0.3,0.1-0.6,0.1-1.1,0.1h-1.9v-2.7h1.9c0.6,0,1.1-0.1,1.4-0.2c0.4-0.2,0.8-0.5,0.9-1c0.4-0.8,0.9-1.5,1.4-2.1
			c0.5-0.5,1-0.7,1.3-0.7c0.3,0,0.7,0.5,1.2,1.5c0.5,1.1,0.8,2.1,0.8,3V27.9z M87.6,24.9c0-0.1-0.1-0.4-0.4-0.7
			c-0.3-0.4-0.6-0.6-0.8-0.6c-0.3,0-0.5,0.3-0.6,0.9c0.3,0.1,0.6,0.2,0.8,0.3c0.5,0.2,0.8,0.3,0.9,0.3C87.5,25.1,87.6,25,87.6,24.9z
			"/>
	</g>
	<rect class="st1" width="151.5" height="46.4"/>
</g>
</svg>
