<?xml version="1.0" encoding="utf-8"?>
<!-- Generator: Adobe Illustrator 19.2.0, SVG Export Plug-In . SVG Version: 6.00 Build 0)  -->
<svg version="1.1" id="Layer_1" xmlns="http://www.w3.org/2000/svg" xmlns:xlink="http://www.w3.org/1999/xlink" x="0px" y="0px"
	 viewBox="0 0 186.9 37" style="enable-background:new 0 0 186.9 37;" xml:space="preserve">
<style type="text/css">
	.st0{fill:#BA0017;}
	.st1{fill:none;}
</style>
<g>
	<g>
		<path class="st0" d="M17.7,21.4l-0.4,1.2c-0.8,0.2-1.4,0.4-1.9,0.6c-0.6,0.3-1.1,0.6-1.6,1l-0.2-0.1c0.1-0.2,0.2-0.4,0.3-0.6
			c0.1-0.2,0.2-0.3,0.3-0.4l-0.9-0.5C13.1,22.4,13,22.2,13,22c0-0.2,0.1-0.4,0.3-0.9c0.2-0.5,0.5-0.9,0.8-1.2
			c0.4-0.4,0.8-0.6,1.2-0.6c0.4,0,0.7,0.1,0.9,0.3c0.1,0,0.2,0.2,0.4,0.4l-0.4,1c-0.2-0.1-0.3-0.2-0.3-0.2c-0.3-0.2-0.6-0.3-0.8-0.3
			c-0.2,0-0.5,0.1-0.8,0.2C14.2,20.8,14,21,14,21.1c0,0.2,0.2,0.4,0.5,0.6c0.2,0.1,0.6,0.3,1.1,0.5C16.3,21.9,17,21.6,17.7,21.4z"/>
		<path class="st0" d="M22,23.2H21c-0.3,0-0.6-0.1-0.8-0.4c-0.2-0.2-0.3-0.6-0.4-1c-0.1-0.5-0.2-1-0.2-1.7c0-0.6-0.1-1.1-0.1-1.7
			s-0.1-1-0.1-1.3c-0.1-0.3-0.1-0.5-0.2-0.7c-0.1-0.2-0.3-0.4-0.5-0.6l0.9-1.4c0.2,0.6,0.3,1.3,0.4,2.1c0,0.5,0.1,1.7,0.2,3.6
			c0.1,0.9,0.2,1.4,0.4,1.7c0.1,0.2,0.3,0.3,0.5,0.3H22V23.2z"/>
		<path class="st0" d="M25.8,23.2h-4.3v-1.3h3.8c0-0.6-0.1-1-0.2-1.3c-0.1-0.2-0.3-0.5-0.7-0.9l0.6-1.2c0.4,0.4,0.6,0.8,0.7,1
			c0.1,0.4,0.2,1,0.2,1.9V23.2z M24,25.3l-0.6,1.1l-1.2-0.6l0.6-1.1L24,25.3z M25.8,24.7l-0.6,1.1l-1.2-0.6l0.6-1.1L25.8,24.7z"/>
		<path class="st0" d="M29,23.2h-3.7v-1.3h3l-0.9-6.2L27,15.5c0-0.3,0-0.7,0.1-1c0.1-0.3,0.2-0.6,0.3-0.9l0.1,0.1
			c0,0.3,0.2,0.5,0.5,0.6c0.3,0.1,0.5,0.2,0.8,0.3c0,0.2,0,0.5-0.1,0.8c0,0.3-0.1,0.5-0.1,0.6L28.1,16l0.9,5.8V23.2z"/>
		<path class="st0" d="M32.6,23.2h-1.1c-0.3,0-0.6-0.1-0.8-0.4c-0.2-0.2-0.3-0.6-0.4-1c-0.1-0.5-0.2-1-0.2-1.7
			c0-0.6-0.1-1.1-0.1-1.7s-0.1-1-0.1-1.3c-0.1-0.3-0.1-0.5-0.2-0.7c-0.1-0.2-0.3-0.4-0.5-0.6l0.9-1.4c0.2,0.6,0.3,1.3,0.4,2.1
			c0,0.5,0.1,1.7,0.2,3.6c0.1,0.9,0.2,1.4,0.4,1.7c0.1,0.2,0.3,0.3,0.5,0.3h1.1V23.2z"/>
		<path class="st0" d="M36.4,23.2H32v-1.3h3.8c0-0.6-0.1-1-0.2-1.3c-0.1-0.2-0.3-0.5-0.7-0.9l0.6-1.2c0.4,0.4,0.6,0.8,0.7,1
			c0.1,0.4,0.2,1,0.2,1.9V23.2z M35.6,25L35,26l-1.2-0.6l0.6-1.1L35.6,25z"/>
		<path d="M48.2,23.2c0,0.5-0.2,1.1-0.7,1.7c-0.4,0.5-0.9,0.9-1.5,1.3c-0.6,0.4-1.1,0.5-1.4,0.5c-0.3,0-0.7,0-1.1-0.1
			c-0.3-0.1-0.7-0.2-1.1-0.3c-0.4-0.1-0.7-0.3-1.1-0.4l0.1-0.3c0.3,0.1,0.7,0.1,1,0.2c0.4,0.1,0.7,0.1,1,0.1c0.6,0,1.3-0.2,2-0.6
			c0.6-0.4,1.2-0.8,1.6-1.4c0.4-0.6,0.7-1.1,0.7-1.5c0-0.4-0.1-0.8-0.3-1.2c-0.2-0.3-0.4-0.7-0.8-1.1l0.4-1.2
			c0.4,0.4,0.7,0.7,0.9,1.1c0.2,0.4,0.3,0.9,0.3,1.4V23.2z"/>
		<path d="M56.5,23.2h-8.7v-1.3h6.2c-0.5-0.4-0.9-0.7-1.3-0.9c-0.4-0.3-0.8-0.5-1.2-0.6c-0.4-0.1-0.8-0.2-1.2-0.2
			c-0.3,0-0.5,0-0.8,0.1c0.1-0.4,0.3-0.7,0.6-0.9c0.3-0.3,0.8-0.5,1.3-0.5c0.5,0,1.1,0.2,1.8,0.7c0.3,0.2,0.9,0.7,1.7,1.4
			c0.6,0.5,1,0.8,1.2,0.9h0.5V23.2z M52.8,16.4l-0.6,1.1L51,16.8l0.6-1.1L52.8,16.4z"/>
		<path d="M60,13.2c-0.1,0.2-0.3,0.3-0.4,0.4c-0.2,0.1-0.4,0.2-0.7,0.2c-0.3,0-0.5,0-0.7-0.1c-0.5-0.2-0.8-0.2-0.8-0.2
			c-0.1,0-0.1,0-0.2,0c-0.1,0-0.1,0-0.2,0.1L57,13.4c0.1-0.2,0.2-0.3,0.3-0.3c0.1-0.1,0.3-0.1,0.5-0.1c0,0,0.3,0.1,0.8,0.2
			c0.3,0.1,0.5,0.1,0.6,0.1c0.3,0,0.5-0.1,0.8-0.2L60,13.2z M64.3,15.4L64,16.8l-0.4-0.2l0,0.7c0,0.7-0.1,1.3-0.3,1.9
			c-0.2,0.7-0.5,1.3-0.9,2c0.2,0.3,0.3,0.6,0.4,0.8c0.1,0.3,0.2,0.6,0.2,0.9c0,0.2,0,0.3,0,0.5c0,0.1,0,0.3-0.1,0.4
			c-0.5,0.1-1.1,0.2-1.7,0.3c-0.6,0.1-1.2,0.1-1.8,0.1c0-0.1,0-0.2,0-0.2c0-0.4,0.1-0.7,0.2-1c0.9-0.4,1.6-1,2.2-1.7
			c-0.4-0.6-0.6-1.1-0.8-1.4c-0.2-0.3-0.5-0.8-0.9-1.4c-0.2-0.2-0.3-0.4-0.4-0.5c-0.2-0.2-0.3-0.3-0.4-0.3c-0.1,0-0.2,0-0.3,0.1
			c-0.1,0-0.1,0.1-0.2,0.1c-0.1,0-0.3-0.1-0.5-0.3c-0.2-0.2-0.4-0.4-0.7-0.7c-0.2-0.2-0.3-0.4-0.4-0.6c-0.1-0.1-0.1-0.3-0.1-0.5
			c0-0.3,0-0.5,0.1-0.7c0.1-0.3,0.2-0.4,0.3-0.4c0.2,0,0.5,0.2,0.9,0.6c0.3,0.3,0.7,0.8,1.2,1.4c0.4,0.5,0.8,1,1.1,1.6l0.8,1.2
			c0.2,0.4,0.5,0.8,0.7,1.2c0.3-0.7,0.6-1.3,0.7-2c0.1-0.6,0.2-1.3,0.2-2.2L62.6,16c0-0.3,0-0.6,0.1-0.9c0.1-0.3,0.1-0.5,0.2-0.7
			l0.2,0c0,0.2,0.1,0.4,0.4,0.5c0.1,0.1,0.3,0.1,0.5,0.2C64.1,15.3,64.2,15.4,64.3,15.4z M62.4,22.6c0-0.1,0-0.2-0.1-0.3
			s-0.1-0.3-0.3-0.6c-0.2,0.2-0.4,0.4-0.7,0.7c-0.3,0.3-0.6,0.5-0.9,0.6c0.6,0,1,0,1.3-0.1C62.1,22.9,62.4,22.7,62.4,22.6z"/>
		<path d="M67.5,21.3c0,0.4-0.1,0.8-0.2,1.1c-0.1,0.2-0.2,0.5-0.5,0.9l-0.1-0.1c0-0.1,0-0.3,0-0.5c0-0.2,0-0.3,0-0.4
			c0-0.5,0-1.2-0.1-2.1c-0.1-0.9-0.2-1.9-0.3-2.9c-0.1-0.6-0.1-1.2-0.2-1.8c0.1-0.2,0.2-0.4,0.3-0.7s0.3-0.5,0.4-0.7
			c0.1,0.6,0.2,1.3,0.3,2.3c0.1,1,0.2,1.8,0.3,2.6C67.4,20.1,67.5,20.8,67.5,21.3z"/>
		<path d="M80.3,22.3c0,0.8-0.2,1.4-0.6,1.9c-0.3,0.4-0.8,0.7-1.5,0.9c-0.6,0.1-1.3,0.2-2.1,0.2c-1,0-1.7-0.2-2.3-0.5
			c-0.6-0.4-0.9-1-0.9-1.7c0-0.4,0.1-0.9,0.2-1.3c0.1-0.4,0.3-0.8,0.5-1.3c0.2-0.3,0.4-0.7,0.6-1.2l0.2,0.1
			c-0.2,0.3-0.3,0.6-0.5,0.9c-0.2,0.3-0.3,0.7-0.4,0.9c-0.1,0.3-0.1,0.7-0.1,1c0,0.6,0.2,1.1,0.7,1.4c0.5,0.3,1.1,0.5,1.9,0.5
			c0.9,0,1.6-0.1,2.4-0.4c0.8-0.3,1.2-0.7,1.2-1.1c0-0.5-0.1-1.3-0.2-2.4c-0.1-0.9-0.3-1.8-0.4-2.9l-0.3-1.4l-0.3-0.2
			c0-0.7,0.1-1.3,0.4-1.8h0.1c0,0.2,0.1,0.3,0.1,0.4c0,0.1,0.1,0.2,0.3,0.2c0.2,0.1,0.3,0.1,0.5,0.2c0.1,0.1,0.3,0.1,0.4,0.2
			c0,0.3,0,0.6,0,0.7c0,0.2-0.1,0.4-0.2,0.7L79.5,16c0,0.1,0.1,0.6,0.2,1.5c0.2,1,0.3,1.9,0.3,2.5C80.2,21,80.3,21.7,80.3,22.3z"/>
		<path d="M84.1,23.2h-4.3v-1.3h3.8c0-0.6-0.1-1-0.2-1.3c-0.1-0.2-0.3-0.5-0.7-0.9l0.6-1.2c0.4,0.4,0.6,0.8,0.7,1
			c0.1,0.4,0.2,1,0.2,1.9V23.2z M82.3,16.6l-0.6,1.1L80.5,17L81,16L82.3,16.6z M84,15.9L83.4,17l-1.2-0.6l0.6-1.1L84,15.9z"/>
		<path d="M90.2,23.2h-1.1c-0.3,0-0.7-0.1-1-0.2c-0.4-0.2-0.7-0.4-0.9-0.8c-0.3,0.3-0.7,0.5-1.2,0.7c-0.5,0.2-1.1,0.3-1.8,0.3h-0.7
			v-1.3h0.7c0.4,0,0.8,0,1.2-0.1c0.4-0.1,0.8-0.3,1.2-0.5l-0.3-0.4c-0.2-0.2-0.3-0.3-0.5-0.3c-0.1,0-0.2,0-0.2,0s-0.1,0.1-0.2,0.2
			h-0.2v-0.4c0-0.5,0.1-0.9,0.4-1.1c0.3-0.2,0.7-0.3,1.4-0.3c0.6,0,1,0.1,1.4,0.2c0.5,0.2,0.7,0.5,0.7,0.9c0,0.2-0.1,0.4-0.3,0.7
			c-0.1,0.2-0.4,0.4-0.7,0.7c0.1,0.1,0.2,0.2,0.5,0.3c0.2,0.1,0.4,0.1,0.6,0.1h1.1V23.2z"/>
		<path d="M96.3,23.2h-0.8c-0.3,0-0.7-0.1-1.1-0.2c-0.5-0.2-0.9-0.4-1.3-0.7c-0.3,0.3-0.6,0.6-0.9,0.7c-0.3,0.1-0.8,0.2-1.3,0.2
			h-1.2v-1.3h1.2c0.5,0,0.9-0.1,1.2-0.3c0.3-0.2,0.5-0.4,0.8-0.7c0.3-0.4,0.7-0.8,1.1-1.1c0.4-0.3,0.8-0.5,1.1-0.5
			c0.3,0.5,0.6,1,0.8,1.4c0.3,0.6,0.4,1,0.4,1.4V23.2z M95.4,21.7c-0.1-0.3-0.2-0.6-0.3-0.8c-0.1-0.2-0.3-0.5-0.5-0.7
			c-0.2,0.1-0.4,0.2-0.6,0.3c-0.1,0.1-0.2,0.3-0.4,0.5c0.2,0.2,0.4,0.4,0.8,0.5C94.7,21.7,95.1,21.8,95.4,21.7L95.4,21.7z"/>
		<path d="M99.5,23.2h-3.7v-1.3h3l-0.9-6.2l-0.4-0.2c0-0.3,0-0.7,0.1-1c0.1-0.3,0.2-0.6,0.3-0.9l0.1,0.1c0,0.3,0.2,0.5,0.5,0.6
			c0.3,0.1,0.5,0.2,0.8,0.3c0,0.2,0,0.5-0.1,0.8c0,0.3-0.1,0.5-0.1,0.6L98.6,16l0.9,5.8V23.2z"/>
		<path d="M102.1,21.3c0,0.4-0.1,0.8-0.2,1.1c-0.1,0.2-0.2,0.5-0.5,0.9l-0.1-0.1c0-0.1,0-0.3,0-0.5c0-0.2,0-0.3,0-0.4
			c0-0.5,0-1.2-0.1-2.1c-0.1-0.9-0.2-1.9-0.3-2.9c-0.1-0.6-0.1-1.2-0.2-1.8c0.1-0.2,0.2-0.4,0.3-0.7s0.3-0.5,0.4-0.7
			c0.1,0.6,0.2,1.3,0.3,2.3c0.1,1,0.2,1.8,0.3,2.6C102,20.1,102.1,20.8,102.1,21.3z"/>
		<path d="M115,27.3l-1.9,1.2c-1.1,0-1.9,0-2.4-0.1c-1-0.1-1.8-0.4-2.3-0.9c-0.7-0.5-1-1.3-1-2.3c0-0.6,0.1-1.2,0.3-1.6
			c0.2-0.4,0.4-0.8,0.7-1.1c0.1-0.2,0.4-0.4,0.7-0.8c-0.5-0.2-0.8-0.4-1-0.6c-0.4-0.4-0.6-0.9-0.6-1.4c0-0.5,0.2-1,0.7-1.5
			c0.5-0.6,1.1-0.9,1.9-0.9c0.3,0,0.7,0.1,1,0.3c0.2,0.1,0.6,0.3,0.9,0.6c-0.5,0-1,0-1.5,0.1c-0.7,0.1-1.2,0.2-1.6,0.4
			c-0.5,0.2-0.8,0.4-0.8,0.7c0,0.3,0.3,0.6,0.9,0.9c0.5,0.2,1,0.4,1.7,0.5c0.5-0.3,1-0.5,1.5-0.7c0.5-0.2,1.1-0.4,1.7-0.5l-0.3,1.1
			c-1,0.4-1.8,0.7-2.3,0.9c-0.9,0.4-1.7,0.9-2.2,1.3c-0.6,0.6-1,1.2-1,1.9c0,0.7,0.3,1.2,0.8,1.6c0.5,0.3,1.1,0.6,2.1,0.7
			c0.7,0.1,1.6,0.2,2.7,0.2c0.2,0,0.5,0,0.7,0S114.8,27.2,115,27.3L115,27.3z"/>
		<path d="M123,23.2c0,0.5-0.2,1.1-0.7,1.7c-0.4,0.5-0.9,0.9-1.5,1.3c-0.6,0.4-1.1,0.5-1.4,0.5c-0.3,0-0.7,0-1.1-0.1
			c-0.3-0.1-0.7-0.2-1.1-0.3c-0.4-0.1-0.7-0.3-1.1-0.4l0.1-0.3c0.3,0.1,0.7,0.1,1,0.2c0.4,0.1,0.7,0.1,1,0.1c0.6,0,1.3-0.2,2-0.6
			c0.6-0.4,1.2-0.8,1.6-1.4c0.4-0.6,0.7-1.1,0.7-1.5c0-0.4-0.1-0.8-0.3-1.2c-0.2-0.3-0.4-0.7-0.8-1.1l0.4-1.2
			c0.4,0.4,0.7,0.7,0.9,1.1c0.2,0.4,0.3,0.9,0.3,1.4V23.2z"/>
		<path d="M126.6,23.2h-1.1c-0.3,0-0.6-0.1-0.8-0.4c-0.2-0.2-0.3-0.6-0.4-1c-0.1-0.5-0.2-1-0.2-1.7c0-0.6-0.1-1.1-0.1-1.7
			s-0.1-1-0.1-1.3c-0.1-0.3-0.1-0.5-0.2-0.7c-0.1-0.2-0.3-0.4-0.5-0.6l0.9-1.4c0.2,0.6,0.3,1.3,0.4,2.1c0,0.5,0.1,1.7,0.2,3.6
			c0.1,0.9,0.2,1.4,0.4,1.7c0.1,0.2,0.3,0.3,0.5,0.3h1.1V23.2z"/>
		<path d="M139.7,23.2h-9.1c-0.3,0-0.5,0-0.8-0.1c-0.2-0.1-0.4-0.2-0.7-0.3c-0.2,0.2-0.4,0.3-0.6,0.4c-0.2,0.1-0.6,0.1-1,0.1h-1.5
			v-1.3h1.5c0.4,0,0.7,0,0.9-0.1c0.3-0.1,0.4-0.3,0.4-0.7c0-0.1,0-0.3,0-0.4s0-0.3-0.1-0.5l0.3-0.4c0.2,0.7,0.4,1.2,0.7,1.5
			c0.3,0.4,0.7,0.6,1.2,0.6c0.4,0,0.9-0.1,1.5-0.3c0.6-0.2,1.1-0.5,1.6-0.8c0.7-0.5,1.2-0.8,1.3-0.9c0.4-0.3,0.8-0.4,1.1-0.5
			c0.4-0.1,0.8-0.2,1.2-0.2c0.7,0,1.2,0.2,1.6,0.6c0.3,0.4,0.5,0.9,0.5,1.5V23.2z M134.9,17.1l-0.6,1.1l-1.2-0.6l0.6-1.1L134.9,17.1
			z M138.5,21.3c0-0.2-0.2-0.4-0.5-0.6c-0.3-0.1-0.7-0.2-1.1-0.2c-0.5,0-1.1,0.2-1.8,0.5c-0.6,0.3-1.1,0.6-1.7,0.8h3.5
			c0.5,0,1,0,1.2-0.1C138.4,21.7,138.5,21.5,138.5,21.3z"/>
		<path d="M145.8,23.2H145c-0.3,0-0.7-0.1-1.1-0.2c-0.5-0.2-0.9-0.4-1.3-0.7c-0.3,0.3-0.6,0.6-0.9,0.7c-0.3,0.1-0.8,0.2-1.3,0.2
			h-1.2v-1.3h1.2c0.5,0,0.9-0.1,1.2-0.3c0.3-0.2,0.5-0.4,0.8-0.7c0.3-0.4,0.7-0.8,1.1-1.1c0.4-0.3,0.8-0.5,1.1-0.5
			c0.3,0.5,0.6,1,0.8,1.4c0.3,0.6,0.4,1,0.4,1.4V23.2z M145,21.7c-0.1-0.3-0.2-0.6-0.3-0.8c-0.1-0.2-0.3-0.5-0.5-0.7
			c-0.2,0.1-0.4,0.2-0.6,0.3c-0.1,0.1-0.2,0.3-0.4,0.5c0.2,0.2,0.4,0.4,0.8,0.5C144.3,21.7,144.6,21.8,145,21.7L145,21.7z"/>
		<path d="M158,22.3c0,0.8-0.2,1.4-0.6,1.9c-0.3,0.4-0.8,0.7-1.5,0.9c-0.6,0.1-1.3,0.2-2.1,0.2c-1,0-1.7-0.2-2.3-0.5
			c-0.6-0.4-0.9-1-0.9-1.7c0-0.4,0.1-0.9,0.2-1.3c0.1-0.4,0.3-0.8,0.5-1.3c0.2-0.3,0.4-0.7,0.6-1.2l0.2,0.1
			c-0.2,0.3-0.3,0.6-0.5,0.9c-0.2,0.3-0.3,0.7-0.4,0.9c-0.1,0.3-0.1,0.7-0.1,1c0,0.6,0.2,1.1,0.7,1.4c0.5,0.3,1.1,0.5,1.9,0.5
			c0.9,0,1.6-0.1,2.4-0.4c0.8-0.3,1.2-0.7,1.2-1.1c0-0.5-0.1-1.3-0.2-2.4c-0.1-0.9-0.3-1.8-0.4-2.9l-0.3-1.4l-0.3-0.2
			c0-0.7,0.1-1.3,0.4-1.8h0.1c0,0.2,0.1,0.3,0.1,0.4c0,0.1,0.1,0.2,0.3,0.2c0.2,0.1,0.3,0.1,0.5,0.2c0.1,0.1,0.3,0.1,0.4,0.2
			c0,0.3,0,0.6,0,0.7c0,0.2-0.1,0.4-0.2,0.7l-0.4-0.1c0,0.1,0.1,0.6,0.2,1.5c0.2,1,0.3,1.9,0.3,2.5C157.9,21,158,21.7,158,22.3z"/>
		<path d="M164.1,23.2H163c-0.3,0-0.7-0.1-1-0.2c-0.4-0.2-0.7-0.4-0.9-0.8c-0.3,0.3-0.7,0.5-1.2,0.7c-0.5,0.2-1.1,0.3-1.8,0.3h-0.7
			v-1.3h0.7c0.4,0,0.8,0,1.2-0.1c0.4-0.1,0.8-0.3,1.2-0.5l-0.3-0.4c-0.2-0.2-0.3-0.3-0.5-0.3c-0.1,0-0.2,0-0.2,0
			c-0.1,0-0.1,0.1-0.2,0.2H159v-0.4c0-0.5,0.1-0.9,0.4-1.1c0.3-0.2,0.7-0.3,1.4-0.3c0.6,0,1,0.1,1.4,0.2c0.5,0.2,0.7,0.5,0.7,0.9
			c0,0.2-0.1,0.4-0.3,0.7c-0.1,0.2-0.4,0.4-0.7,0.7c0.1,0.1,0.2,0.2,0.5,0.3c0.2,0.1,0.4,0.1,0.6,0.1h1.1V23.2z"/>
		<path d="M168.2,23.2h-4.6v-1.3h2.6c0.3,0,0.6,0,0.8,0c0.2,0,0.5-0.1,0.7-0.1c-0.9-0.1-1.4-0.2-1.7-0.3c-0.6-0.2-0.9-0.7-0.9-1.2
			c0-0.5,0.1-1,0.4-1.5c0.3-0.5,0.7-0.8,1.1-0.8c0.5,0,0.9,0.3,1.2,1c0.2,0.5,0.3,1.1,0.3,1.8V23.2z M167.5,15.4l-0.7,1.1l-1.1-0.7
			l0.6-1L167.5,15.4z M167.5,20.6c-0.1-0.4-0.2-0.7-0.3-0.9c-0.2-0.4-0.5-0.6-0.8-0.6c-0.1,0-0.3,0.1-0.4,0.2
			c-0.1,0.1-0.2,0.2-0.2,0.4c0,0.4,0.2,0.6,0.6,0.8C166.6,20.5,167,20.6,167.5,20.6z"/>
		<path d="M171.4,23.2h-3.7v-1.3h3l-0.9-6.2l-0.4-0.2c0-0.3,0-0.7,0.1-1c0.1-0.3,0.2-0.6,0.3-0.9l0.1,0.1c0,0.3,0.2,0.5,0.5,0.6
			c0.3,0.1,0.5,0.2,0.8,0.3c0,0.2,0,0.5-0.1,0.8c0,0.3-0.1,0.5-0.1,0.6l-0.4-0.1l0.9,5.8V23.2z"/>
		<path d="M173.9,21.3c0,0.4-0.1,0.8-0.2,1.1c-0.1,0.2-0.2,0.5-0.5,0.9l-0.1-0.1c0-0.1,0-0.3,0-0.5c0-0.2,0-0.3,0-0.4
			c0-0.5,0-1.2-0.1-2.1c-0.1-0.9-0.2-1.9-0.3-2.9c-0.1-0.6-0.1-1.2-0.2-1.8c0.1-0.2,0.2-0.4,0.3-0.7s0.3-0.5,0.4-0.7
			c0.1,0.6,0.2,1.3,0.3,2.3c0.1,1,0.2,1.8,0.3,2.6C173.9,20.1,173.9,20.8,173.9,21.3z"/>
	</g>
	<rect class="st1" width="186.9" height="37"/>
</g>
</svg>
