<?xml version="1.0" encoding="utf-8"?>
<!-- Generator: Adobe Illustrator 19.2.0, SVG Export Plug-In . SVG Version: 6.00 Build 0)  -->
<svg version="1.1" id="Layer_1" xmlns="http://www.w3.org/2000/svg" xmlns:xlink="http://www.w3.org/1999/xlink" x="0px" y="0px"
	 viewBox="0 0 218.5 37.1" style="enable-background:new 0 0 218.5 37.1;" xml:space="preserve">
<style type="text/css">
	.st0{fill:#BA0017;}
	.st1{fill:none;}
</style>
<g>
	<g>
		<g>
			<g>
				<path class="st0" d="M42.3,15.2c0,0.1,0,0.2,0,0.3c0,0.1,0,0.2,0,0.3l-0.6-0.4c-0.3,0.3-0.4,0.4-0.5,0.5
					c-0.4,0.4-0.7,0.5-0.9,0.5h-0.6c0.3-0.1,0.6-0.3,0.9-0.6c0.3-0.2,0.6-0.5,0.7-0.7c-0.2-0.1-0.3-0.2-0.4-0.3
					c-0.1-0.1-0.2-0.3-0.2-0.4c0-0.3,0.1-0.6,0.3-0.9c0.2-0.2,0.4-0.4,0.6-0.4c0.1,0,0.2,0.1,0.4,0.2c0.1,0.1,0.2,0.3,0.2,0.5
					c0,0.1,0,0.2,0,0.3c0,0.1-0.1,0.3-0.2,0.6c0.1,0.1,0.2,0.1,0.3,0.2C42.3,15,42.3,15.1,42.3,15.2z M41.7,14.4
					c0-0.1,0-0.3-0.1-0.4c-0.1-0.1-0.2-0.2-0.3-0.2c-0.1,0-0.1,0-0.1,0.1c0,0,0,0.1,0,0.1c0,0.1,0.1,0.2,0.2,0.3l0.3,0.3
					C41.7,14.5,41.7,14.4,41.7,14.4z"/>
				<path class="st0" d="M43.2,21.2c0,0.7-0.1,1.2-0.3,1.6c-0.4,0.5-1,0.8-2,0.8c-0.4,0-0.7-0.1-0.9-0.2c-0.3-0.2-0.4-0.4-0.4-0.7
					c0-0.3,0.1-0.7,0.3-1.2c0.2-0.4,0.3-0.8,0.5-1.2l-0.1,0l0.5-1.2c0.9,0.5,1.5,0.8,1.6,0.9C42.9,20.4,43.2,20.8,43.2,21.2z
					 M42.5,21.8c0-0.2-0.3-0.4-0.8-0.7c-0.2-0.1-0.5-0.3-0.8-0.4c-0.2,0.2-0.4,0.4-0.4,0.4c-0.1,0.2-0.2,0.4-0.2,0.5
					c0,0.3,0.1,0.4,0.2,0.6c0.1,0.1,0.3,0.2,0.6,0.2c0.3,0,0.6-0.1,0.9-0.2S42.5,21.9,42.5,21.8z"/>
				<path class="st0" d="M48.6,14.7c0,0.2-0.1,0.4-0.4,0.7c-0.5,0.2-1.2,0.5-2.2,0.9c0-0.2,0.1-0.4,0.3-0.6
					C46.7,15.4,47.5,15.1,48.6,14.7z"/>
				<path class="st0" d="M51.1,23.4c0,0.5-0.2,1.1-0.7,1.7c-0.4,0.5-0.9,0.9-1.5,1.3c-0.6,0.4-1.1,0.5-1.4,0.5c-0.3,0-0.7,0-1.1-0.1
					c-0.3-0.1-0.7-0.2-1.1-0.3c-0.4-0.1-0.7-0.3-1.1-0.4l0.1-0.3c0.3,0.1,0.7,0.1,1,0.2c0.4,0.1,0.7,0.1,1,0.1c0.6,0,1.3-0.2,2-0.6
					c0.6-0.4,1.2-0.8,1.6-1.4c0.4-0.6,0.7-1.1,0.7-1.5c0-0.4-0.1-0.8-0.3-1.2c-0.2-0.3-0.4-0.7-0.8-1.1l0.4-1.2
					c0.4,0.4,0.7,0.7,0.9,1.1c0.2,0.4,0.3,0.9,0.3,1.4V23.4z"/>
				<path class="st0" d="M57.8,23c0,0.8-0.3,1.6-0.9,2.4c-0.7,0.9-1.5,1.3-2.4,1.3c-0.3,0-0.7,0-1-0.1c-0.3-0.1-0.6-0.1-1-0.3
					c-0.3-0.1-0.7-0.2-1-0.3l0.1-0.3c0.3,0.1,0.6,0.1,0.9,0.2c0.3,0.1,0.6,0.1,0.8,0.1c0.6,0,1.2-0.2,1.7-0.5c0.4-0.2,0.9-0.6,1.3-1
					c0.2-0.2,0.5-0.6,0.9-1.1c-0.7,0-1.2-0.1-1.5-0.3c-0.4-0.2-0.6-0.6-0.6-1.2c0-0.5,0.1-1,0.4-1.4c0.3-0.5,0.6-0.7,1.1-0.7
					c0.4,0,0.8,0.2,0.9,0.7c0.2,0.4,0.2,0.9,0.2,1.6V23z M57.3,22.2c-0.1-0.5-0.2-0.8-0.4-1c-0.1-0.2-0.3-0.2-0.5-0.2
					c-0.1,0-0.3,0-0.4,0.1s-0.2,0.2-0.2,0.3c0,0.2,0.1,0.4,0.3,0.5C56.4,22.1,56.8,22.2,57.3,22.2z"/>
				<path class="st0" d="M65.3,23.4c0,0.5-0.2,1.1-0.7,1.7c-0.4,0.5-0.9,0.9-1.5,1.3c-0.6,0.4-1.1,0.5-1.4,0.5c-0.3,0-0.7,0-1.1-0.1
					c-0.3-0.1-0.7-0.2-1.1-0.3c-0.4-0.1-0.7-0.3-1.1-0.4l0.1-0.3c0.3,0.1,0.7,0.1,1,0.2c0.4,0.1,0.7,0.1,1,0.1c0.6,0,1.3-0.2,2-0.6
					c0.6-0.4,1.2-0.8,1.6-1.4c0.4-0.6,0.7-1.1,0.7-1.5c0-0.4-0.1-0.8-0.3-1.2c-0.2-0.3-0.4-0.7-0.8-1.1l0.4-1.2
					c0.4,0.4,0.7,0.7,0.9,1.1c0.2,0.4,0.3,0.9,0.3,1.4V23.4z M64.2,16.6l-0.6,1.1L62.4,17l0.6-1.1L64.2,16.6z"/>
				<path class="st0" d="M68.3,10.1c0,0.2-0.1,0.4-0.4,0.7c-0.5,0.2-1.2,0.5-2.2,0.9c0-0.2,0.1-0.4,0.3-0.6
					C66.5,10.9,67.2,10.6,68.3,10.1z"/>
				<path class="st0" d="M68.1,13.5c0,0.1-0.1,0.2-0.2,0.3c-0.1,0.1-0.3,0.1-0.5,0.2L66,14.5c0-0.2,0.3-0.4,0.8-0.6
					c-0.2-0.1-0.3-0.2-0.4-0.2c-0.1-0.1-0.2-0.2-0.2-0.3c0-0.2,0.1-0.4,0.4-0.6c0.3-0.3,0.6-0.5,0.8-0.5c0.1,0,0.2,0,0.3,0.1
					c0.1,0.1,0.1,0.2,0.1,0.3c0,0.1,0,0.1,0,0.2s-0.1,0.2-0.1,0.2c-0.2-0.1-0.3-0.2-0.5-0.2c-0.1,0-0.2,0-0.3,0.1s-0.2,0.1-0.2,0.2
					c0,0.1,0.1,0.2,0.4,0.3c0.2,0.1,0.4,0.2,0.6,0.2c0.1,0,0.2,0,0.2,0C67.9,13.6,68,13.6,68.1,13.5z M67.9,21.5
					c0,0.4-0.1,0.8-0.2,1.1c-0.1,0.2-0.2,0.5-0.5,0.9l-0.1-0.1c0-0.1,0-0.3,0-0.5c0-0.2,0-0.3,0-0.4c0-0.5,0-1.2-0.1-2.1
					c-0.1-0.9-0.2-1.9-0.3-2.9c-0.1-0.6-0.1-1.2-0.2-1.8c0.1-0.2,0.2-0.4,0.3-0.7s0.3-0.5,0.4-0.7c0.1,0.6,0.2,1.3,0.3,2.3
					c0.1,1,0.2,1.8,0.3,2.6C67.9,20.3,67.9,21,67.9,21.5z"/>
				<path d="M82,23.4h-1.3c-0.8,0-1.4,0-1.8,0.1c-0.4,0-0.6,0.1-0.6,0.2c0,0.2,0.2,0.2,0.7,0.2c0.2,0,0.4,0,0.5,0s0.4,0,0.8,0.1
					c0.2,0,0.4,0.1,0.5,0.1c0.1,0.1,0.2,0.2,0.2,0.4c0,0.9-0.3,1.6-0.9,2c-0.7,0.5-1.8,0.7-3.4,0.7c-1.1,0-1.9-0.2-2.6-0.5
					c-0.7-0.4-1-0.9-1-1.6c0-0.6,0.2-1.2,0.5-1.8c0.1-0.2,0.4-0.7,0.9-1.5l0.3,0.1c-0.2,0.3-0.4,0.6-0.6,0.9c-0.3,0.5-0.4,1-0.4,1.3
					c0,0.6,0.3,1.1,1,1.4c0.6,0.3,1.5,0.4,2.5,0.4c0.7,0,1.4-0.1,1.9-0.2c0.7-0.1,1-0.3,1-0.5c0-0.1,0-0.1-0.1-0.2
					c-0.1,0-0.2-0.1-0.4-0.1c-0.1,0-0.3,0-0.6,0c-0.3,0-0.5,0-0.6,0c-0.3,0-0.5,0-0.7-0.1c-0.1-0.1-0.2-0.2-0.2-0.4
					c0-0.6,0.2-1.1,0.6-1.5c0.3-0.3,0.7-0.5,1.2-0.7c0.4-0.1,0.8-0.2,1.2-0.2H82V23.4z M77.3,28.1l-0.7,0.6l-0.9-0.5l0.7-0.7
					L77.3,28.1z M78.9,28.1l-0.7,0.6l-0.8-0.5l0.7-0.7L78.9,28.1z"/>
				<path d="M86.3,12.5c0,0.2-0.1,0.4-0.4,0.7c-0.5,0.2-1.2,0.5-2.2,0.9c0-0.2,0.1-0.4,0.3-0.6C84.5,13.2,85.2,12.9,86.3,12.5z"/>
				<path d="M88.1,23.4h-6.6v-1.3h5.8c-0.4-0.5-0.8-1-1.2-1.4c-0.5-0.4-1.1-0.8-1.8-1.2l-0.3,0.2L83,19.1c-0.3-0.3-0.5-0.5-0.5-0.6
					c0-0.8,0.2-1.5,0.6-2c0.4-0.4,1.1-0.8,2-1.2l2.1-0.8v1.3l-1.6,0.5c-0.6,0.2-1.1,0.4-1.5,0.6c-0.5,0.2-0.7,0.4-0.7,0.5
					c0,0.1,0.2,0.3,0.5,0.5c0.2,0.1,0.4,0.3,0.6,0.4c0.8,0.6,1.4,1.2,2,1.8c0.6,0.7,1.1,1.3,1.5,2.1V23.4z"/>
				<path d="M101.5,23.4h-1.3c-0.8,0-1.4,0-1.8,0.1c-0.4,0-0.6,0.1-0.6,0.2c0,0.2,0.2,0.2,0.7,0.2c0.2,0,0.4,0,0.5,0s0.4,0,0.8,0.1
					c0.2,0,0.4,0.1,0.5,0.1c0.1,0.1,0.2,0.2,0.2,0.4c0,0.9-0.3,1.6-0.9,2c-0.7,0.5-1.8,0.7-3.4,0.7c-1.1,0-1.9-0.2-2.6-0.5
					c-0.7-0.4-1-0.9-1-1.6c0-0.6,0.2-1.2,0.5-1.8c0.1-0.2,0.4-0.7,0.9-1.5l0.3,0.1c-0.2,0.3-0.4,0.6-0.6,0.9c-0.3,0.5-0.4,1-0.4,1.3
					c0,0.6,0.3,1.1,1,1.4c0.6,0.3,1.5,0.4,2.5,0.4c0.7,0,1.4-0.1,1.9-0.2c0.7-0.1,1-0.3,1-0.5c0-0.1,0-0.1-0.1-0.2
					c-0.1,0-0.2-0.1-0.4-0.1c-0.1,0-0.3,0-0.6,0c-0.3,0-0.5,0-0.6,0c-0.3,0-0.5,0-0.7-0.1c-0.1-0.1-0.2-0.2-0.2-0.4
					c0-0.6,0.2-1.1,0.6-1.5c0.3-0.3,0.7-0.5,1.2-0.7c0.4-0.1,0.8-0.2,1.2-0.2h1.3V23.4z M96.8,28.1l-0.7,0.6l-0.9-0.5l0.7-0.7
					L96.8,28.1z M98.4,28.1l-0.7,0.6l-0.8-0.5l0.7-0.7L98.4,28.1z"/>
				<path d="M105.6,23.4H101v-1.3h2.6c0.3,0,0.6,0,0.8,0c0.2,0,0.5-0.1,0.7-0.1c-0.9-0.1-1.4-0.2-1.7-0.3c-0.6-0.2-0.9-0.7-0.9-1.2
					c0-0.5,0.1-1,0.4-1.5c0.3-0.5,0.7-0.8,1.1-0.8c0.5,0,0.9,0.3,1.2,1c0.2,0.5,0.3,1.1,0.3,1.8V23.4z M103.6,15.7l-0.6,1l-0.9-0.6
					l0.6-1L103.6,15.7z M104.9,20.8c-0.1-0.4-0.2-0.7-0.3-0.9c-0.2-0.4-0.5-0.6-0.8-0.6c-0.1,0-0.3,0.1-0.4,0.2
					c-0.1,0.1-0.2,0.2-0.2,0.4c0,0.4,0.2,0.6,0.6,0.8C104.1,20.7,104.4,20.8,104.9,20.8z M105.3,15.2l-0.6,1l-0.9-0.6l0.7-1
					L105.3,15.2z"/>
				<path d="M109.4,23.4h-4.3v-1.3h3.8c0-0.6-0.1-1-0.2-1.3c-0.1-0.2-0.3-0.5-0.7-0.9l0.6-1.2c0.4,0.4,0.6,0.8,0.7,1
					c0.1,0.4,0.2,1,0.2,1.9V23.4z M107.6,25.5l-0.6,1.1l-1.2-0.6l0.6-1.1L107.6,25.5z M109.4,24.9l-0.6,1.1l-1.2-0.6l0.6-1.1
					L109.4,24.9z"/>
				<path d="M114.6,23.4h-3.4c-0.3,0-0.5-0.1-0.8-0.2c-0.2-0.2-0.3-0.4-0.3-0.6c0-0.2,0-0.4,0-0.5c0-0.2,0.1-0.3,0.1-0.5h0.2
					c0.1,0.2,0.2,0.3,0.3,0.4c0.1,0.1,0.3,0.1,0.5,0.1h2.9c0-0.9-0.1-1.6-0.4-2.1c-0.3-0.7-0.8-1.1-1.6-1.3l0.1-1.4
					c0.9,0.4,1.5,1.1,1.9,2c0.3,0.7,0.4,1.7,0.4,2.9V23.4z"/>
				<path d="M119.3,14.7c0,0.2-0.1,0.4-0.4,0.7c-0.5,0.2-1.2,0.5-2.2,0.9c0-0.2,0.1-0.4,0.3-0.6C117.5,15.4,118.2,15.1,119.3,14.7z"
					/>
				<path d="M127.8,23.4h-9.1c-0.3,0-0.5,0-0.8-0.1c-0.2-0.1-0.4-0.2-0.7-0.3c-0.2,0.2-0.4,0.3-0.6,0.4c-0.2,0.1-0.6,0.1-1,0.1h-1.5
					v-1.3h1.5c0.4,0,0.7,0,0.9-0.1c0.3-0.1,0.4-0.3,0.4-0.7c0-0.1,0-0.3,0-0.4s0-0.3-0.1-0.5l0.3-0.4c0.2,0.7,0.4,1.2,0.7,1.5
					c0.3,0.4,0.7,0.6,1.2,0.6c0.4,0,0.9-0.1,1.5-0.3c0.6-0.2,1.1-0.5,1.6-0.8c0.7-0.5,1.2-0.8,1.3-0.9c0.4-0.3,0.8-0.4,1.1-0.5
					c0.4-0.1,0.8-0.2,1.2-0.2c0.7,0,1.2,0.2,1.6,0.6c0.3,0.4,0.5,0.9,0.5,1.5V23.4z M126.5,21.6c0-0.2-0.2-0.4-0.5-0.6
					c-0.3-0.1-0.7-0.2-1.1-0.2c-0.5,0-1.1,0.2-1.8,0.5c-0.6,0.3-1.1,0.6-1.7,0.8h3.5c0.5,0,1,0,1.2-0.1
					C126.4,21.9,126.5,21.7,126.5,21.6z"/>
				<path d="M141.2,23.4h-1.3c-0.8,0-1.4,0-1.8,0.1c-0.4,0-0.6,0.1-0.6,0.2c0,0.2,0.2,0.2,0.7,0.2c0.2,0,0.4,0,0.5,0s0.4,0,0.8,0.1
					c0.2,0,0.4,0.1,0.5,0.1c0.1,0.1,0.2,0.2,0.2,0.4c0,0.9-0.3,1.6-0.9,2c-0.7,0.5-1.8,0.7-3.4,0.7c-1.1,0-1.9-0.2-2.6-0.5
					c-0.7-0.4-1-0.9-1-1.6c0-0.6,0.2-1.2,0.5-1.8c0.1-0.2,0.4-0.7,0.9-1.5l0.3,0.1c-0.2,0.3-0.4,0.6-0.6,0.9c-0.3,0.5-0.4,1-0.4,1.3
					c0,0.6,0.3,1.1,1,1.4c0.6,0.3,1.5,0.4,2.5,0.4c0.7,0,1.4-0.1,1.9-0.2c0.7-0.1,1-0.3,1-0.5c0-0.1,0-0.1-0.1-0.2
					c-0.1,0-0.2-0.1-0.4-0.1c-0.1,0-0.3,0-0.6,0c-0.3,0-0.5,0-0.6,0c-0.3,0-0.5,0-0.7-0.1c-0.1-0.1-0.2-0.2-0.2-0.4
					c0-0.6,0.2-1.1,0.6-1.5c0.3-0.3,0.7-0.5,1.2-0.7c0.4-0.1,0.8-0.2,1.2-0.2h1.3V23.4z"/>
				<path d="M144.4,23.4h-3.7v-1.3h3l-0.9-6.2l-0.4-0.2c0-0.3,0-0.7,0.1-1c0.1-0.3,0.2-0.6,0.3-0.9l0.1,0.1c0,0.3,0.2,0.5,0.5,0.6
					c0.3,0.1,0.5,0.2,0.8,0.3c0,0.2,0,0.5-0.1,0.8c0,0.3-0.1,0.5-0.1,0.6l-0.4-0.1l0.9,5.8V23.4z"/>
				<path d="M146.9,26c0,0.1-0.1,0.2-0.2,0.3c-0.1,0.1-0.3,0.1-0.5,0.2l-1.4,0.5c0-0.2,0.3-0.4,0.8-0.6c-0.2-0.1-0.3-0.2-0.4-0.2
					c-0.1-0.1-0.2-0.2-0.2-0.3c0-0.2,0.1-0.4,0.4-0.6c0.3-0.3,0.6-0.5,0.8-0.5c0.1,0,0.2,0,0.3,0.1c0.1,0.1,0.1,0.2,0.1,0.3
					c0,0.1,0,0.1,0,0.2s-0.1,0.2-0.1,0.2c-0.2-0.1-0.3-0.2-0.5-0.2c-0.1,0-0.2,0-0.3,0.1c-0.1,0-0.2,0.1-0.2,0.2
					c0,0.1,0.1,0.2,0.4,0.3c0.2,0.1,0.4,0.2,0.6,0.2c0.1,0,0.2,0,0.2,0C146.6,26,146.7,26,146.9,26z M147,21.5
					c0,0.4-0.1,0.8-0.2,1.1c-0.1,0.2-0.2,0.5-0.5,0.9l-0.1-0.1c0-0.1,0-0.3,0-0.5c0-0.2,0-0.3,0-0.4c0-0.5,0-1.2-0.1-2.1
					c-0.1-0.9-0.2-1.9-0.3-2.9c-0.1-0.6-0.1-1.2-0.2-1.8c0.1-0.2,0.2-0.4,0.3-0.7s0.3-0.5,0.4-0.7c0.1,0.6,0.2,1.3,0.3,2.3
					c0.1,1,0.2,1.8,0.3,2.6C146.9,20.3,147,21,147,21.5z"/>
				<path d="M157,13.7c0,0.1,0,0.2,0,0.3c0,0.1,0,0.2,0,0.3l-0.6-0.4c-0.3,0.3-0.4,0.4-0.5,0.5c-0.4,0.4-0.7,0.5-0.9,0.5h-0.6
					c0.3-0.1,0.6-0.3,0.9-0.6c0.3-0.2,0.6-0.5,0.7-0.7c-0.2-0.1-0.3-0.2-0.4-0.3c-0.1-0.1-0.2-0.3-0.2-0.4c0-0.3,0.1-0.6,0.3-0.9
					c0.2-0.2,0.4-0.4,0.6-0.4c0.1,0,0.2,0.1,0.4,0.2c0.1,0.1,0.2,0.3,0.2,0.5c0,0.1,0,0.2,0,0.3c0,0.1-0.1,0.3-0.2,0.6
					c0.1,0.1,0.2,0.1,0.3,0.2C157,13.6,157,13.6,157,13.7z M156.4,12.9c0-0.1,0-0.3-0.1-0.4c-0.1-0.1-0.2-0.2-0.3-0.2
					c-0.1,0-0.1,0-0.1,0.1c0,0,0,0.1,0,0.1c0,0.1,0.1,0.2,0.2,0.3l0.3,0.3C156.4,13,156.4,13,156.4,12.9z"/>
				<path d="M163,23.4h-7.2c-1,0-1.7-0.2-2.3-0.5c-0.7-0.4-1.1-1.1-1.1-1.9c0-0.5,0.1-0.9,0.3-1.4c0.1-0.2,0.3-0.5,0.5-1l0.2,0.1
					c-0.1,0.2-0.2,0.5-0.3,0.7c-0.1,0.3-0.2,0.7-0.2,0.9c0,0.6,0.3,1,0.9,1.3c0.6,0.3,1.3,0.4,2.1,0.4h6.4v-0.2c0-0.5-0.1-1-0.2-1.3
					c-0.1-0.3-0.4-0.6-0.7-0.9l0.6-1.2c0.2,0.3,0.4,0.4,0.4,0.5c0.3,0.5,0.5,1.3,0.5,2.4V23.4z M157.7,17.4l-0.6,1.1l-1.2-0.6
					l0.6-1.1L157.7,17.4z M159.4,16.7l-0.6,1.1l-1.2-0.6l0.6-1.1L159.4,16.7z"/>
				<path d="M166.7,15.1c0,0.3-0.1,0.6-0.3,0.8c-0.2,0.2-0.5,0.4-0.9,0.4c-0.3,0-0.5-0.1-0.6-0.2c-0.1-0.1-0.2-0.4-0.2-0.6
					c0-0.4,0.1-0.7,0.3-1c0.2-0.3,0.5-0.4,0.8-0.4c0.3,0,0.5,0.1,0.7,0.3C166.6,14.6,166.7,14.8,166.7,15.1z M166.3,15.3
					c0-0.1-0.1-0.3-0.3-0.5c-0.2-0.2-0.4-0.3-0.5-0.3c-0.1,0-0.2,0.1-0.3,0.2c-0.1,0.1-0.1,0.2-0.1,0.3c0,0.2,0.1,0.3,0.3,0.4
					c0.1,0.1,0.3,0.1,0.6,0.1c0.1,0,0.2,0,0.3-0.1S166.3,15.4,166.3,15.3z"/>
				<path d="M166.8,23.4h-4.3v-1.3h3.8c0-0.6-0.1-1-0.2-1.3c-0.1-0.2-0.3-0.5-0.7-0.9l0.6-1.2c0.4,0.4,0.6,0.8,0.7,1
					c0.1,0.4,0.2,1,0.2,1.9V23.4z M166,25.2l-0.6,1.1l-1.2-0.6l0.6-1.1L166,25.2z"/>
				<path d="M171.2,14.7c0,0.2-0.1,0.4-0.4,0.7c-0.5,0.2-1.2,0.5-2.2,0.9c0-0.2,0.1-0.4,0.3-0.6C169.4,15.4,170.1,15.1,171.2,14.7z"
					/>
				<path d="M172.7,22.2c0,0.3-0.1,0.6-0.3,0.9c-0.2,0.4-0.4,0.6-0.6,0.6c-0.2,0-0.6-0.1-1.2-0.4c-0.5-0.2-1-0.5-1.3-0.7
					c-0.6,0.3-1,0.5-1.3,0.6c-0.3,0.1-0.7,0.2-1.2,0.2h-0.7v-1.3h0.7c0.2,0,0.4,0,0.6,0c0.2,0,0.5-0.1,0.8-0.2
					c-0.1-0.1-0.3-0.2-0.4-0.3c-0.1-0.1-0.2-0.2-0.2-0.4c0-0.1,0-0.1,0-0.2c0,0,0-0.1,0.1-0.2l0.8-1.3c0.1-0.2,0.2-0.3,0.3-0.4
					s0.2-0.1,0.3-0.2c-0.3-0.2-0.5-0.4-0.5-0.5c0-0.1,0.1-0.3,0.3-0.8c0.1-0.1,0.2-0.3,0.3-0.6c0.3,0.3,0.7,0.7,1.2,1.3
					c0.6,0.7,1.1,1.4,1.5,1.9C172.5,21.2,172.7,21.7,172.7,22.2z M170.1,20.6c0-0.2,0-0.4-0.1-0.5c-0.1-0.1-0.3-0.2-0.5-0.2
					s-0.4,0.1-0.7,0.2c-0.2,0.1-0.3,0.3-0.3,0.5c0,0.2,0.3,0.5,0.9,0.8c0.2-0.1,0.4-0.3,0.5-0.4C170,20.9,170.1,20.7,170.1,20.6z
					 M171.9,22.2c0-0.2-0.1-0.4-0.4-0.8c-0.2-0.2-0.4-0.5-0.7-0.7c0,0.2-0.1,0.5-0.2,0.7c-0.1,0.2-0.2,0.4-0.4,0.5
					c0.3,0.2,0.6,0.3,0.9,0.4c0.3,0.1,0.4,0.2,0.5,0.2c0.1,0,0.1,0,0.2-0.1C171.9,22.4,171.9,22.3,171.9,22.2z"/>
				<path d="M179,23.4h-3.4c-0.3,0-0.5-0.1-0.8-0.2c-0.2-0.2-0.3-0.4-0.3-0.6c0-0.2,0-0.4,0-0.5c0-0.2,0.1-0.3,0.1-0.5h0.2
					c0.1,0.2,0.2,0.3,0.3,0.4c0.1,0.1,0.3,0.1,0.5,0.1h2.9c0-0.9-0.1-1.6-0.4-2.1c-0.3-0.7-0.8-1.1-1.6-1.3l0.1-1.4
					c0.9,0.4,1.5,1.1,1.9,2c0.3,0.7,0.4,1.7,0.4,2.9V23.4z M177,14.8l-0.6,1.1l-1.2-0.6l0.6-1.1L177,14.8z"/>
			</g>
		</g>
	</g>
	<rect class="st1" width="218.5" height="37.1"/>
</g>
</svg>
