<?xml version="1.0" encoding="utf-8"?>
<!-- Generator: Adobe Illustrator 19.2.0, SVG Export Plug-In . SVG Version: 6.00 Build 0)  -->
<svg version="1.1" id="Layer_1" xmlns="http://www.w3.org/2000/svg" xmlns:xlink="http://www.w3.org/1999/xlink" x="0px" y="0px"
	 viewBox="0 0 218.5 37.1" style="enable-background:new 0 0 218.5 37.1;" xml:space="preserve">
<style type="text/css">
	.st0{fill:#BA0017;}
	.st1{fill:none;}
</style>
<g>
	<g>
		<g>
			<g>
				<path d="M38.5,15.1c0,0.1,0,0.2,0,0.3c0,0.1,0,0.2,0,0.3l-0.6-0.4c-0.3,0.3-0.4,0.4-0.5,0.5c-0.4,0.4-0.7,0.5-0.9,0.5h-0.6
					c0.3-0.1,0.6-0.3,0.9-0.6c0.3-0.2,0.6-0.5,0.7-0.7c-0.2-0.1-0.3-0.2-0.4-0.3c-0.1-0.1-0.2-0.3-0.2-0.4c0-0.3,0.1-0.6,0.3-0.9
					c0.2-0.2,0.4-0.4,0.6-0.4c0.1,0,0.2,0.1,0.4,0.2c0.1,0.1,0.2,0.3,0.2,0.5c0,0.1,0,0.2,0,0.3c0,0.1-0.1,0.3-0.2,0.6
					c0.1,0.1,0.2,0.1,0.3,0.2C38.4,14.9,38.5,15,38.5,15.1z M37.9,14.2c0-0.1,0-0.3-0.1-0.4c-0.1-0.1-0.2-0.2-0.3-0.2
					c-0.1,0-0.1,0-0.1,0.1c0,0,0,0.1,0,0.1c0,0.1,0.1,0.2,0.2,0.3l0.3,0.3C37.9,14.3,37.9,14.3,37.9,14.2z"/>
				<path d="M40.3,23.2h-1.1c-0.4,0-0.7-0.3-1-0.9c-0.2-0.5-0.4-1-0.5-1.7c-0.2,0.3-0.3,0.5-0.6,0.6c-0.2,0.2-0.5,0.2-0.7,0.2
					c-0.6,0-1.1,0-1.5-0.1c-0.4-0.1-0.6-0.2-0.6-0.3c0-0.4,0.3-0.9,0.8-1.4c0.6-0.5,1.3-1,2.1-1.3c0,0,0-0.1-0.1-0.3
					c0-0.2,0-0.3,0-0.3c0-0.2,0.1-0.4,0.2-0.6c0.1-0.2,0.2-0.3,0.4-0.5c0,0.3,0.1,0.6,0.2,0.9c0.1,0.3,0.1,0.6,0.2,0.9l0.2,1.3
					c0.1,0.7,0.2,1.2,0.3,1.5c0.2,0.5,0.3,0.8,0.5,0.8h1.1V23.2z M37.7,20l-0.1-0.8c-0.4,0.2-0.8,0.3-1,0.5
					c-0.3,0.2-0.5,0.4-0.6,0.7c0.1,0,0.2,0.1,0.4,0.1s0.3,0,0.6,0C37.1,20.4,37.4,20.3,37.7,20z"/>
				<path d="M43.9,12.3c0,0.2-0.1,0.4-0.4,0.7c-0.5,0.2-1.2,0.5-2.2,0.9c0-0.2,0.1-0.4,0.3-0.6C42,13.1,42.8,12.8,43.9,12.3z"/>
				<path d="M44.4,23.2h-4.6V22h2.6c0.3,0,0.6,0,0.8,0c0.2,0,0.5-0.1,0.7-0.1c-0.9-0.1-1.4-0.2-1.7-0.3c-0.6-0.2-0.9-0.7-0.9-1.2
					c0-0.5,0.1-1,0.4-1.5c0.3-0.5,0.7-0.8,1.1-0.8c0.5,0,0.9,0.3,1.2,1c0.2,0.5,0.3,1.1,0.3,1.8V23.2z M43.7,15.4l-0.7,1.1L42,15.8
					l0.6-1L43.7,15.4z M43.7,20.7c-0.1-0.4-0.2-0.7-0.3-0.9c-0.2-0.4-0.5-0.6-0.8-0.6c-0.1,0-0.3,0.1-0.4,0.2
					c-0.1,0.1-0.2,0.2-0.2,0.4c0,0.4,0.2,0.6,0.6,0.8C42.9,20.6,43.2,20.6,43.7,20.7z"/>
				<path d="M48.1,15c0,0.3-0.1,0.6-0.3,0.8c-0.2,0.2-0.5,0.4-0.9,0.4c-0.3,0-0.5-0.1-0.6-0.2c-0.1-0.1-0.2-0.4-0.2-0.6
					c0-0.4,0.1-0.7,0.3-1c0.2-0.3,0.5-0.4,0.8-0.4c0.3,0,0.5,0.1,0.7,0.3C48,14.4,48.1,14.7,48.1,15z M47.7,15.2
					c0-0.1-0.1-0.3-0.3-0.5c-0.2-0.2-0.4-0.3-0.5-0.3c-0.1,0-0.2,0.1-0.3,0.2c-0.1,0.1-0.1,0.2-0.1,0.3c0,0.2,0.1,0.3,0.3,0.4
					c0.1,0.1,0.3,0.1,0.6,0.1c0.1,0,0.2,0,0.3-0.1S47.7,15.3,47.7,15.2z"/>
				<path d="M48.2,23.2h-4.3V22h3.8c0-0.6-0.1-1-0.2-1.3c-0.1-0.2-0.3-0.5-0.7-0.9l0.6-1.2c0.4,0.4,0.6,0.8,0.7,1
					c0.1,0.4,0.2,1,0.2,1.9V23.2z M46.4,25.4l-0.6,1.1l-1.2-0.6l0.6-1.1L46.4,25.4z M48.1,24.7l-0.6,1.1l-1.2-0.6l0.6-1.1L48.1,24.7
					z"/>
				<path d="M52.9,14.5c0,0.2-0.1,0.4-0.4,0.7c-0.5,0.2-1.2,0.5-2.2,0.9c0-0.2,0.1-0.4,0.3-0.6C51,15.3,51.8,15,52.9,14.5z"/>
				<path d="M61.3,23.2h-9.1c-0.3,0-0.5,0-0.8-0.1c-0.2-0.1-0.4-0.2-0.7-0.3c-0.2,0.2-0.4,0.3-0.6,0.4c-0.2,0.1-0.6,0.1-1,0.1h-1.5
					V22h1.5c0.4,0,0.7,0,0.9-0.1c0.3-0.1,0.4-0.3,0.4-0.7c0-0.1,0-0.3,0-0.4s0-0.3-0.1-0.5l0.3-0.4c0.2,0.7,0.4,1.2,0.7,1.5
					c0.3,0.4,0.7,0.6,1.2,0.6c0.4,0,0.9-0.1,1.5-0.3c0.6-0.2,1.1-0.5,1.6-0.8c0.7-0.5,1.2-0.8,1.3-0.9c0.4-0.3,0.8-0.4,1.1-0.5
					c0.4-0.1,0.8-0.2,1.2-0.2c0.7,0,1.2,0.2,1.6,0.6c0.3,0.4,0.5,0.9,0.5,1.5V23.2z M56.5,17.1l-0.6,1.1l-1.2-0.6l0.6-1.1L56.5,17.1
					z M60.1,21.4c0-0.2-0.2-0.4-0.5-0.6c-0.3-0.1-0.7-0.2-1.1-0.2c-0.5,0-1.1,0.2-1.8,0.5c-0.6,0.3-1.1,0.6-1.7,0.8h3.5
					c0.5,0,1,0,1.2-0.1C60,21.7,60.1,21.6,60.1,21.4z"/>
				<path class="st0" d="M69.6,16c0,0.2-0.1,0.4-0.4,0.7c-0.5,0.2-1.2,0.5-2.2,0.9c0-0.2,0.1-0.4,0.3-0.6
					C67.7,16.7,68.5,16.4,69.6,16z"/>
				<path class="st0" d="M70.9,23.2H70c-0.8,0-1.6,0.1-2.2,0.2c-0.8,0.2-1.2,0.5-1.2,0.8c0,0.3,0.1,0.7,0.2,1
					c0.1,0.4,0.2,0.7,0.3,1.1c0.1,0.4,0.2,0.7,0.2,1c0,0.2,0,0.4,0,0.5c0,0.2-0.1,0.4-0.1,0.6c-0.1-0.4-0.3-0.8-0.4-1.2
					c-0.2-0.8-0.4-1.4-0.5-1.8c-0.2-0.6-0.3-1-0.3-1.1c0-0.6,0.1-1.1,0.4-1.4c0.3-0.3,0.7-0.6,1.2-0.7c0.4-0.1,1.1-0.2,2-0.3
					c-0.3-0.3-0.5-0.5-0.6-0.6c-0.3-0.2-0.5-0.3-0.8-0.3c-0.2,0-0.3,0-0.5,0.1c-0.1,0.1-0.3,0.2-0.4,0.4l-0.3-0.2
					c0.2-0.4,0.3-0.7,0.5-0.9c0.3-0.4,0.7-0.5,1.1-0.5c0.3,0,0.6,0.1,0.9,0.3c0.3,0.2,0.5,0.4,0.8,0.8c0.1,0.2,0.3,0.4,0.6,0.8V23.2
					z"/>
				<path class="st0" d="M76.4,28.2c0,0.2-0.1,0.5-0.4,0.7c-0.5,0.2-1.2,0.5-2.2,0.8c0-0.2,0.1-0.4,0.3-0.6
					C74.5,28.9,75.3,28.6,76.4,28.2z"/>
				<path class="st0" d="M78.4,23.2c0,0.5-0.2,1.1-0.7,1.7c-0.4,0.5-0.9,0.9-1.5,1.3c-0.6,0.4-1.1,0.5-1.4,0.5c-0.3,0-0.7,0-1.1-0.1
					c-0.3-0.1-0.7-0.2-1.1-0.3c-0.4-0.1-0.7-0.3-1.1-0.4l0.1-0.3c0.3,0.1,0.7,0.1,1,0.2c0.4,0.1,0.7,0.1,1,0.1c0.6,0,1.3-0.2,2-0.6
					c0.6-0.4,1.2-0.8,1.6-1.4c0.4-0.6,0.7-1.1,0.7-1.5c0-0.4-0.1-0.8-0.3-1.2c-0.2-0.3-0.4-0.7-0.8-1.1l0.4-1.2
					c0.4,0.4,0.7,0.7,0.9,1.1c0.2,0.4,0.3,0.9,0.3,1.4V23.2z"/>
				<path class="st0" d="M82.4,12.3c0,0.2-0.1,0.4-0.4,0.7c-0.5,0.2-1.2,0.5-2.2,0.9c0-0.2,0.1-0.4,0.3-0.6
					C80.5,13.1,81.3,12.8,82.4,12.3z"/>
				<path class="st0" d="M82.2,23.2h-4.3V22h3.8c0-0.6-0.1-1-0.2-1.3c-0.1-0.2-0.3-0.5-0.7-0.9l0.6-1.2c0.4,0.4,0.6,0.8,0.7,1
					c0.1,0.4,0.2,1,0.2,1.9V23.2z M80.4,16.7l-0.6,1.1l-1.2-0.6l0.6-1.1L80.4,16.7z M82.2,16l-0.6,1.1l-1.2-0.6l0.6-1.1L82.2,16z"/>
				<path class="st0" d="M87.1,15c0,0.3-0.1,0.6-0.3,0.8c-0.2,0.2-0.5,0.4-0.9,0.4c-0.3,0-0.5-0.1-0.6-0.2c-0.1-0.1-0.2-0.4-0.2-0.6
					c0-0.4,0.1-0.7,0.3-1c0.2-0.3,0.5-0.4,0.8-0.4c0.3,0,0.5,0.1,0.7,0.3C87,14.4,87.1,14.7,87.1,15z M86.6,15.2
					c0-0.1-0.1-0.3-0.3-0.5c-0.2-0.2-0.4-0.3-0.5-0.3c-0.1,0-0.2,0.1-0.3,0.2c-0.1,0.1-0.1,0.2-0.1,0.3c0,0.2,0.1,0.3,0.3,0.4
					c0.1,0.1,0.3,0.1,0.6,0.1c0.1,0,0.2,0,0.3-0.1S86.6,15.3,86.6,15.2z"/>
				<path class="st0" d="M90.4,23.2h-8.7V22h6.2c-0.5-0.4-0.9-0.7-1.3-0.9c-0.4-0.3-0.8-0.5-1.2-0.6c-0.4-0.1-0.8-0.2-1.2-0.2
					c-0.3,0-0.5,0-0.8,0.1c0.1-0.4,0.3-0.7,0.6-0.9c0.3-0.3,0.8-0.5,1.3-0.5c0.5,0,1.1,0.2,1.8,0.7c0.3,0.2,0.9,0.7,1.7,1.4
					c0.6,0.5,1,0.8,1.2,0.9h0.5V23.2z"/>
				<path class="st0" d="M94.4,14.5c0,0.2-0.1,0.4-0.4,0.7c-0.5,0.2-1.2,0.5-2.2,0.9c0-0.2,0.1-0.4,0.3-0.6
					C92.5,15.3,93.3,15,94.4,14.5z"/>
				<path class="st0" d="M94.2,23.2h-4.3V22h3.8c0-0.6-0.1-1-0.2-1.3c-0.1-0.2-0.3-0.5-0.7-0.9l0.6-1.2c0.4,0.4,0.6,0.8,0.7,1
					c0.1,0.4,0.2,1,0.2,1.9V23.2z M92.5,25.4l-0.6,1.1l-1.2-0.6l0.6-1.1L92.5,25.4z M94.2,24.7l-0.6,1.1l-1.2-0.6l0.6-1.1L94.2,24.7
					z"/>
				<path d="M104,15c0,0.3-0.1,0.6-0.3,0.8c-0.2,0.2-0.5,0.4-0.9,0.4c-0.3,0-0.5-0.1-0.6-0.2c-0.1-0.1-0.2-0.4-0.2-0.6
					c0-0.4,0.1-0.7,0.3-1c0.2-0.3,0.5-0.4,0.8-0.4c0.3,0,0.5,0.1,0.7,0.3C103.9,14.4,104,14.7,104,15z M103.5,15.2
					c0-0.1-0.1-0.3-0.3-0.5c-0.2-0.2-0.4-0.3-0.5-0.3c-0.1,0-0.2,0.1-0.3,0.2c-0.1,0.1-0.1,0.2-0.1,0.3c0,0.2,0.1,0.3,0.3,0.4
					c0.1,0.1,0.3,0.1,0.6,0.1c0.1,0,0.2,0,0.3-0.1S103.5,15.3,103.5,15.2z"/>
				<path d="M106.7,23.2c0,1.1-0.3,1.9-1,2.4c-0.7,0.6-1.9,0.8-3.4,0.8c-1,0-1.8-0.2-2.3-0.5c-0.6-0.4-0.9-1-0.9-1.7
					c0-0.4,0.1-0.8,0.2-1.3c0.1-0.4,0.3-0.9,0.4-1.3c0.1-0.3,0.3-0.7,0.6-1.2l0.3,0.1c-0.4,0.7-0.6,1.3-0.7,1.7
					c-0.1,0.4-0.2,0.8-0.2,1.1c0,0.6,0.2,1.1,0.7,1.4c0.4,0.3,1.1,0.5,1.9,0.5c1,0,1.8-0.2,2.5-0.5c0.9-0.4,1.4-1,1.4-1.7
					c0-0.5-0.1-1-0.2-1.4c-0.1-0.4-0.3-0.7-0.6-1l0.6-1.5c0.3,0.4,0.5,0.8,0.6,1.2c0.1,0.4,0.2,1,0.2,1.6V23.2z M103.9,17.6
					l-0.6,1.1l-1.2-0.6l0.5-1L103.9,17.6z"/>
				<path d="M109.7,10c0,0.2-0.1,0.4-0.4,0.7c-0.5,0.2-1.2,0.5-2.2,0.9c0-0.2,0.1-0.4,0.3-0.6C107.8,10.7,108.6,10.4,109.7,10z"/>
				<path d="M109.5,13.4c0,0.1-0.1,0.2-0.2,0.3c-0.1,0.1-0.3,0.1-0.5,0.2l-1.4,0.5c0-0.2,0.3-0.4,0.8-0.6c-0.2-0.1-0.3-0.2-0.4-0.2
					c-0.1-0.1-0.2-0.2-0.2-0.3c0-0.2,0.1-0.4,0.4-0.6c0.3-0.3,0.6-0.5,0.8-0.5c0.1,0,0.2,0,0.3,0.1c0.1,0.1,0.1,0.2,0.1,0.3
					c0,0.1,0,0.1,0,0.2S109,12.9,109,13c-0.2-0.1-0.3-0.2-0.5-0.2c-0.1,0-0.2,0-0.3,0.1S108,12.9,108,13c0,0.1,0.1,0.2,0.4,0.3
					c0.2,0.1,0.4,0.2,0.6,0.2c0.1,0,0.2,0,0.2,0C109.2,13.5,109.3,13.4,109.5,13.4z M109.3,21.4c0,0.4-0.1,0.8-0.2,1.1
					c-0.1,0.2-0.2,0.5-0.5,0.9l-0.1-0.1c0-0.1,0-0.3,0-0.5c0-0.2,0-0.3,0-0.4c0-0.5,0-1.2-0.1-2.1c-0.1-0.9-0.2-1.9-0.3-2.9
					c-0.1-0.6-0.1-1.2-0.2-1.8c0.1-0.2,0.2-0.4,0.3-0.7s0.3-0.5,0.4-0.7c0.1,0.6,0.2,1.3,0.3,2.3c0.1,1,0.2,1.8,0.3,2.6
					C109.2,20.1,109.3,20.9,109.3,21.4z"/>
				<path d="M118.8,25.2c0,0.2-0.1,0.5-0.4,0.7c-0.5,0.2-1.2,0.5-2.2,0.8c0-0.2,0.1-0.4,0.3-0.6C116.9,26,117.7,25.7,118.8,25.2z"/>
				<path d="M119.8,21.5l-0.4,1.2c-0.8,0.2-1.4,0.4-1.9,0.6c-0.6,0.3-1.1,0.6-1.6,1l-0.2-0.1c0.1-0.2,0.2-0.4,0.3-0.6
					c0.1-0.2,0.2-0.3,0.3-0.4l-0.9-0.5c-0.3-0.2-0.4-0.3-0.4-0.5c0-0.2,0.1-0.4,0.3-0.9c0.2-0.5,0.5-0.9,0.8-1.2
					c0.4-0.4,0.8-0.6,1.2-0.6c0.4,0,0.7,0.1,0.9,0.3c0.1,0,0.2,0.2,0.4,0.4l-0.4,1c-0.2-0.1-0.3-0.2-0.3-0.2
					c-0.3-0.2-0.6-0.3-0.8-0.3c-0.2,0-0.5,0.1-0.8,0.2c-0.3,0.1-0.4,0.3-0.4,0.4c0,0.2,0.2,0.4,0.5,0.6c0.2,0.1,0.6,0.3,1.1,0.5
					C118.4,21.9,119.1,21.7,119.8,21.5z"/>
				<path d="M128.2,23.2c0,0.5-0.2,1.1-0.7,1.7c-0.4,0.5-0.9,0.9-1.5,1.3c-0.6,0.4-1.1,0.5-1.4,0.5c-0.3,0-0.7,0-1.1-0.1
					c-0.3-0.1-0.7-0.2-1.1-0.3c-0.4-0.1-0.7-0.3-1.1-0.4l0.1-0.3c0.3,0.1,0.7,0.1,1,0.2c0.4,0.1,0.7,0.1,1,0.1c0.6,0,1.3-0.2,2-0.6
					c0.6-0.4,1.2-0.8,1.6-1.4c0.4-0.6,0.7-1.1,0.7-1.5c0-0.4-0.1-0.8-0.3-1.2c-0.2-0.3-0.4-0.7-0.8-1.1l0.4-1.2
					c0.4,0.4,0.7,0.7,0.9,1.1c0.2,0.4,0.3,0.9,0.3,1.4V23.2z"/>
				<path d="M132.5,14.5c0,0.2-0.1,0.4-0.4,0.7c-0.5,0.2-1.2,0.5-2.2,0.9c0-0.2,0.1-0.4,0.3-0.6C130.7,15.3,131.4,15,132.5,14.5z"/>
				<path d="M134.3,23.2h-0.8c-0.3,0-0.7-0.1-1.1-0.2c-0.5-0.2-0.9-0.4-1.3-0.7c-0.3,0.3-0.6,0.6-0.9,0.7c-0.3,0.1-0.8,0.2-1.3,0.2
					h-1.2V22h1.2c0.5,0,0.9-0.1,1.2-0.3c0.3-0.2,0.5-0.4,0.8-0.7c0.3-0.4,0.7-0.8,1.1-1.1c0.4-0.3,0.8-0.5,1.1-0.5
					c0.3,0.5,0.6,1,0.8,1.4c0.3,0.6,0.4,1,0.4,1.4V23.2z M133.4,21.8c-0.1-0.3-0.2-0.6-0.3-0.8c-0.1-0.2-0.3-0.5-0.5-0.7
					c-0.2,0.1-0.4,0.2-0.6,0.3c-0.1,0.1-0.2,0.3-0.4,0.5c0.2,0.2,0.4,0.4,0.8,0.5C132.8,21.8,133.1,21.9,133.4,21.8L133.4,21.8z"/>
				<path d="M137.5,23.2h-3.7V22h3l-0.9-6.2l-0.4-0.2c0-0.3,0-0.7,0.1-1c0.1-0.3,0.2-0.6,0.3-0.9l0.1,0.1c0,0.3,0.2,0.5,0.5,0.6
					c0.3,0.1,0.5,0.2,0.8,0.3c0,0.2,0,0.5-0.1,0.8c0,0.3-0.1,0.5-0.1,0.6l-0.4-0.1l0.9,5.8V23.2z"/>
				<path d="M140.1,21.4c0,0.4-0.1,0.8-0.2,1.1c-0.1,0.2-0.2,0.5-0.5,0.9l-0.1-0.1c0-0.1,0-0.3,0-0.5c0-0.2,0-0.3,0-0.4
					c0-0.5,0-1.2-0.1-2.1c-0.1-0.9-0.2-1.9-0.3-2.9c-0.1-0.6-0.1-1.2-0.2-1.8c0.1-0.2,0.2-0.4,0.3-0.7s0.3-0.5,0.4-0.7
					c0.1,0.6,0.2,1.3,0.3,2.3c0.1,1,0.2,1.8,0.3,2.6C140,20.1,140.1,20.9,140.1,21.4z"/>
				<path d="M150.2,27.8c0,0.2-0.1,0.5-0.4,0.7c-0.5,0.2-1.2,0.5-2.2,0.8c0-0.2,0.1-0.4,0.3-0.6C148.3,28.5,149.1,28.2,150.2,27.8z"
					/>
				<path d="M154.1,23.6c0,1-0.5,1.7-1.4,2.2c-0.9,0.5-2,0.7-3.4,0.7c-1.1,0-2-0.2-2.6-0.6c-0.7-0.4-1-1.1-1-1.9
					c0-0.6,0.1-1.2,0.3-1.8c0.2-0.6,0.4-1.2,0.8-1.8l0.3,0.1c-0.1,0.3-0.3,0.6-0.4,0.9c-0.1,0.4-0.2,0.7-0.3,0.9
					c-0.1,0.3-0.1,0.6-0.1,1c0,0.6,0.3,1.1,0.8,1.4c0.5,0.3,1.3,0.4,2.3,0.4c1.1,0,2-0.2,2.8-0.5c0.9-0.4,1.4-0.9,1.4-1.6
					c0-0.3,0-0.4,0-0.5c0-0.1,0-0.2-0.1-0.3c-0.2,0.1-0.4,0.2-0.6,0.2c-0.2,0.1-0.4,0.1-0.6,0.1c-0.4,0-0.8-0.1-1.1-0.3
					c-0.3-0.2-0.5-0.6-0.5-1.1c0-0.6,0.1-1.1,0.4-1.6c0.3-0.6,0.7-0.9,1.2-0.9c0.6,0,1.1,0.4,1.4,1.2c0.3,0.7,0.4,1.4,0.4,2.3V23.6z
					 M151.4,16.4l-0.6,1.1l-1.2-0.6l0.6-1.1L151.4,16.4z M152.8,20.9c-0.1-0.3-0.2-0.5-0.3-0.6c-0.1-0.2-0.3-0.3-0.5-0.3
					c-0.2,0-0.4,0.1-0.5,0.2c-0.1,0.1-0.2,0.3-0.2,0.4c0,0.2,0.1,0.3,0.2,0.4c0.1,0.1,0.3,0.1,0.5,0.1c0.1,0,0.3,0,0.4-0.1
					C152.5,21,152.7,21,152.8,20.9z M153.2,15.7l-0.6,1.1l-1.2-0.6l0.6-1.1L153.2,15.7z"/>
				<path d="M156.9,12.1c0,0.1,0,0.2,0,0.3c0,0.1,0,0.2,0,0.3l-0.6-0.4c-0.3,0.3-0.4,0.4-0.5,0.5c-0.4,0.4-0.7,0.5-0.9,0.5h-0.6
					c0.3-0.1,0.6-0.3,0.9-0.6c0.3-0.2,0.6-0.5,0.7-0.7c-0.2-0.1-0.3-0.2-0.4-0.3c-0.1-0.1-0.2-0.3-0.2-0.4c0-0.3,0.1-0.6,0.3-0.9
					c0.2-0.2,0.4-0.4,0.6-0.4c0.1,0,0.2,0.1,0.4,0.2c0.1,0.1,0.2,0.3,0.2,0.5c0,0.1,0,0.2,0,0.3c0,0.1-0.1,0.3-0.2,0.6
					c0.1,0.1,0.2,0.1,0.3,0.2C156.9,12,156.9,12,156.9,12.1z M156.3,11.3c0-0.1,0-0.3-0.1-0.4c-0.1-0.1-0.2-0.2-0.3-0.2
					c-0.1,0-0.1,0-0.1,0.1c0,0,0,0.1,0,0.1c0,0.1,0.1,0.2,0.2,0.3l0.3,0.3C156.3,11.4,156.3,11.3,156.3,11.3z"/>
				<path d="M157.3,23.2h-3.7V22h3l-0.9-6.2l-0.4-0.2c0-0.3,0-0.7,0.1-1c0.1-0.3,0.2-0.6,0.3-0.9l0.1,0.1c0,0.3,0.2,0.5,0.5,0.6
					c0.3,0.1,0.5,0.2,0.8,0.3c0,0.2,0,0.5-0.1,0.8c0,0.3-0.1,0.5-0.1,0.6l-0.4-0.1l0.9,5.8V23.2z"/>
				<path d="M162,12.9c0,0.1,0,0.2,0,0.3c0,0.1,0,0.2,0,0.3l-0.6-0.4c-0.3,0.3-0.4,0.4-0.5,0.5c-0.4,0.4-0.7,0.5-0.9,0.5h-0.6
					c0.3-0.1,0.6-0.3,0.9-0.6c0.3-0.2,0.6-0.5,0.7-0.7c-0.2-0.1-0.3-0.2-0.4-0.3c-0.1-0.1-0.2-0.3-0.2-0.4c0-0.3,0.1-0.6,0.3-0.9
					c0.2-0.2,0.4-0.4,0.6-0.4c0.1,0,0.2,0.1,0.4,0.2c0.1,0.1,0.2,0.3,0.2,0.5c0,0.1,0,0.2,0,0.3c0,0.1-0.1,0.3-0.2,0.6
					c0.1,0.1,0.2,0.1,0.3,0.2C162,12.7,162,12.8,162,12.9z M161.4,12c0-0.1,0-0.3-0.1-0.4c-0.1-0.1-0.2-0.2-0.3-0.2
					c-0.1,0-0.1,0-0.1,0.1c0,0,0,0.1,0,0.1c0,0.1,0.1,0.2,0.2,0.3l0.3,0.3C161.4,12.1,161.4,12.1,161.4,12z"/>
				<path d="M165.5,23.2h-8.7V22h6.2c-0.5-0.4-0.9-0.7-1.3-0.9c-0.4-0.3-0.8-0.5-1.2-0.6c-0.4-0.1-0.8-0.2-1.2-0.2
					c-0.3,0-0.5,0-0.8,0.1c0.1-0.4,0.3-0.7,0.6-0.9c0.3-0.3,0.8-0.5,1.3-0.5c0.5,0,1.1,0.2,1.8,0.7c0.3,0.2,0.9,0.7,1.7,1.4
					c0.6,0.5,1,0.8,1.2,0.9h0.5V23.2z M161.9,16.4l-0.6,1.1l-1.2-0.6l0.6-1.1L161.9,16.4z"/>
				<path d="M175.2,15c0,0.3-0.1,0.6-0.3,0.8c-0.2,0.2-0.5,0.4-0.9,0.4c-0.3,0-0.5-0.1-0.6-0.2c-0.1-0.1-0.2-0.4-0.2-0.6
					c0-0.4,0.1-0.7,0.3-1c0.2-0.3,0.5-0.4,0.8-0.4c0.3,0,0.5,0.1,0.7,0.3C175.1,14.4,175.2,14.7,175.2,15z M174.8,15.2
					c0-0.1-0.1-0.3-0.3-0.5c-0.2-0.2-0.4-0.3-0.5-0.3c-0.1,0-0.2,0.1-0.3,0.2c-0.1,0.1-0.1,0.2-0.1,0.3c0,0.2,0.1,0.3,0.3,0.4
					c0.1,0.1,0.3,0.1,0.6,0.1c0.1,0,0.2,0,0.3-0.1S174.8,15.3,174.8,15.2z"/>
				<path d="M177.9,23.2c0,1.1-0.3,1.9-1,2.4c-0.7,0.6-1.9,0.8-3.4,0.8c-1,0-1.8-0.2-2.3-0.5c-0.6-0.4-0.9-1-0.9-1.7
					c0-0.4,0.1-0.8,0.2-1.3c0.1-0.4,0.3-0.9,0.4-1.3c0.1-0.3,0.3-0.7,0.6-1.2l0.3,0.1c-0.4,0.7-0.6,1.3-0.7,1.7
					c-0.1,0.4-0.2,0.8-0.2,1.1c0,0.6,0.2,1.1,0.7,1.4c0.4,0.3,1.1,0.5,1.9,0.5c1,0,1.8-0.2,2.5-0.5c0.9-0.4,1.4-1,1.4-1.7
					c0-0.5-0.1-1-0.2-1.4c-0.1-0.4-0.3-0.7-0.6-1l0.6-1.5c0.3,0.4,0.5,0.8,0.6,1.2c0.1,0.4,0.2,1,0.2,1.6V23.2z M175.1,17.6
					l-0.6,1.1l-1.2-0.6l0.5-1L175.1,17.6z"/>
				<path d="M182.3,24.6c0,0.2-0.1,0.5-0.4,0.7c-0.5,0.2-1.2,0.5-2.2,0.8c0-0.2,0.1-0.4,0.3-0.6C180.5,25.3,181.2,25,182.3,24.6z"/>
				<path d="M184.1,23.2h-0.8c-0.3,0-0.7-0.1-1.1-0.2c-0.5-0.2-0.9-0.4-1.3-0.7c-0.3,0.3-0.6,0.6-0.9,0.7c-0.3,0.1-0.8,0.2-1.3,0.2
					h-1.2V22h1.2c0.5,0,0.9-0.1,1.2-0.3c0.3-0.2,0.5-0.4,0.8-0.7c0.3-0.4,0.7-0.8,1.1-1.1c0.4-0.3,0.8-0.5,1.1-0.5
					c0.3,0.5,0.6,1,0.8,1.4c0.3,0.6,0.4,1,0.4,1.4V23.2z M183.2,21.8c-0.1-0.3-0.2-0.6-0.3-0.8c-0.1-0.2-0.3-0.5-0.5-0.7
					c-0.2,0.1-0.4,0.2-0.6,0.3c-0.1,0.1-0.2,0.3-0.4,0.5c0.2,0.2,0.4,0.4,0.8,0.5C182.5,21.8,182.8,21.9,183.2,21.8L183.2,21.8z"/>
			</g>
		</g>
	</g>
	<rect class="st1" width="218.5" height="37.1"/>
</g>
</svg>
