<?xml version="1.0" encoding="utf-8"?>
<!-- Generator: Adobe Illustrator 19.2.0, SVG Export Plug-In . SVG Version: 6.00 Build 0)  -->
<svg version="1.1" id="Layer_1" xmlns="http://www.w3.org/2000/svg" xmlns:xlink="http://www.w3.org/1999/xlink" x="0px" y="0px"
	 viewBox="0 0 186.9 37" style="enable-background:new 0 0 186.9 37;" xml:space="preserve">
<style type="text/css">
	.st0{fill:#BA0017;}
	.st1{fill:none;}
</style>
<g>
	<g>
		<g>
			<g>
				<path class="st0" d="M17.6,21.4c0,0.8-0.3,1.6-0.9,2.4c-0.7,0.9-1.5,1.3-2.4,1.3c-0.3,0-0.7,0-1-0.1c-0.3-0.1-0.6-0.1-1-0.3
					c-0.3-0.1-0.7-0.2-1-0.3l0.1-0.3c0.3,0.1,0.6,0.1,0.9,0.2c0.3,0.1,0.6,0.1,0.8,0.1c0.6,0,1.2-0.2,1.8-0.5c0.4-0.2,0.9-0.6,1.3-1
					c0.2-0.2,0.5-0.6,0.9-1.1c-0.7,0-1.2-0.1-1.5-0.3c-0.4-0.2-0.6-0.6-0.6-1.2c0-0.5,0.1-1,0.4-1.4c0.3-0.5,0.6-0.7,1.1-0.7
					c0.4,0,0.8,0.2,0.9,0.7c0.2,0.4,0.2,0.9,0.2,1.6V21.4z M17.1,20.6c-0.1-0.5-0.2-0.8-0.4-1c-0.1-0.2-0.3-0.2-0.5-0.2
					c-0.1,0-0.3,0-0.4,0.1s-0.2,0.2-0.2,0.3c0,0.2,0.1,0.4,0.3,0.5C16.3,20.6,16.6,20.6,17.1,20.6z"/>
				<path class="st0" d="M20.2,20c0,0.4-0.1,0.8-0.2,1.1c-0.1,0.2-0.2,0.5-0.5,0.9L19.3,22c0-0.1,0-0.3,0-0.5c0-0.2,0-0.3,0-0.4
					c0-0.5,0-1.2-0.1-2.1c-0.1-0.9-0.2-1.9-0.3-2.9c-0.1-0.6-0.1-1.2-0.2-1.8c0.1-0.2,0.2-0.4,0.3-0.7s0.3-0.5,0.4-0.7
					c0.1,0.6,0.2,1.3,0.3,2.3s0.2,1.8,0.3,2.6C20.1,18.8,20.2,19.5,20.2,20z"/>
				<path class="st0" d="M27.5,21.4c0,0.8-0.3,1.6-0.9,2.4c-0.7,0.9-1.5,1.3-2.4,1.3c-0.3,0-0.7,0-1-0.1c-0.3-0.1-0.6-0.1-1-0.3
					c-0.3-0.1-0.7-0.2-1-0.3l0.1-0.3c0.3,0.1,0.6,0.1,0.9,0.2c0.3,0.1,0.6,0.1,0.8,0.1c0.6,0,1.2-0.2,1.7-0.5c0.4-0.2,0.9-0.6,1.3-1
					c0.2-0.2,0.5-0.6,0.9-1.1c-0.7,0-1.2-0.1-1.5-0.3c-0.4-0.2-0.6-0.6-0.6-1.2c0-0.5,0.1-1,0.4-1.4c0.3-0.5,0.6-0.7,1.1-0.7
					c0.4,0,0.8,0.2,0.9,0.7c0.2,0.4,0.2,0.9,0.2,1.6V21.4z M27,20.6c-0.1-0.5-0.2-0.8-0.4-1c-0.1-0.2-0.3-0.2-0.5-0.2
					c-0.1,0-0.3,0-0.4,0.1s-0.2,0.2-0.2,0.3c0,0.2,0.1,0.4,0.3,0.5C26.2,20.6,26.5,20.6,27,20.6z"/>
				<path class="st0" d="M30.7,21.9H27v-1.3h3l-0.9-6.2l-0.4-0.2c0-0.3,0-0.7,0.1-1c0.1-0.3,0.2-0.6,0.3-0.9l0.1,0.1
					c0,0.3,0.2,0.5,0.5,0.6c0.3,0.1,0.5,0.2,0.8,0.3c0,0.2,0,0.5-0.1,0.8c0,0.3-0.1,0.5-0.1,0.6l-0.4-0.1l0.9,5.8V21.9z"/>
				<path class="st0" d="M34.3,21.9h-1.1c-0.3,0-0.6-0.1-0.8-0.4c-0.2-0.2-0.3-0.6-0.4-1c-0.1-0.5-0.2-1-0.2-1.7
					c0-0.6-0.1-1.1-0.1-1.7s-0.1-1-0.1-1.3c-0.1-0.3-0.1-0.5-0.2-0.7c-0.1-0.2-0.3-0.4-0.5-0.6l0.9-1.4c0.2,0.6,0.3,1.3,0.4,2.1
					c0,0.5,0.1,1.7,0.2,3.6c0.1,0.9,0.2,1.4,0.4,1.7c0.1,0.2,0.3,0.3,0.5,0.3h1.1V21.9z"/>
				<path class="st0" d="M38.1,21.9h-4.3v-1.3h3.8c0-0.6-0.1-1-0.2-1.3c-0.1-0.2-0.3-0.5-0.7-0.9l0.6-1.2c0.4,0.4,0.6,0.8,0.7,1
					c0.1,0.4,0.2,1,0.2,1.9V21.9z M37.3,23.7l-0.6,1.1l-1.2-0.6L36,23L37.3,23.7z"/>
				<path d="M50,21.9c0,0.5-0.2,1.1-0.7,1.7c-0.4,0.5-0.9,0.9-1.5,1.3c-0.6,0.4-1.1,0.5-1.4,0.5c-0.3,0-0.7,0-1.1-0.1
					c-0.3-0.1-0.7-0.2-1.1-0.3c-0.4-0.1-0.7-0.3-1.1-0.4l0.1-0.3c0.3,0.1,0.7,0.1,1,0.2c0.4,0.1,0.7,0.1,1,0.1c0.6,0,1.3-0.2,2-0.6
					c0.6-0.4,1.2-0.8,1.6-1.4c0.4-0.6,0.7-1.1,0.7-1.5c0-0.4-0.1-0.8-0.3-1.2c-0.2-0.3-0.4-0.7-0.8-1.1l0.4-1.2
					c0.4,0.4,0.7,0.7,0.9,1.1c0.2,0.4,0.3,0.9,0.3,1.4V21.9z"/>
				<path d="M58.2,21.9h-8.7v-1.3h6.2c-0.5-0.4-0.9-0.7-1.3-0.9c-0.4-0.3-0.8-0.5-1.2-0.6c-0.4-0.1-0.8-0.2-1.2-0.2
					c-0.3,0-0.5,0-0.8,0.1c0.1-0.4,0.3-0.7,0.6-0.9c0.3-0.3,0.8-0.5,1.3-0.5c0.5,0,1.1,0.2,1.8,0.7c0.3,0.2,0.9,0.7,1.7,1.4
					c0.6,0.5,1,0.8,1.2,0.9h0.5V21.9z M54.5,15L54,16.1l-1.2-0.6l0.6-1.1L54.5,15z"/>
				<path d="M61.7,11.9c-0.1,0.2-0.3,0.3-0.4,0.4c-0.2,0.1-0.4,0.2-0.7,0.2c-0.3,0-0.5,0-0.7-0.1c-0.5-0.2-0.8-0.2-0.8-0.2
					c-0.1,0-0.1,0-0.2,0c-0.1,0-0.1,0-0.2,0.1l-0.1-0.1c0.1-0.2,0.2-0.3,0.3-0.3c0.1-0.1,0.3-0.1,0.5-0.1c0,0,0.3,0.1,0.8,0.2
					c0.3,0.1,0.5,0.1,0.6,0.1c0.3,0,0.5-0.1,0.8-0.2L61.7,11.9z M66,14.1l-0.4,1.3l-0.4-0.2l0,0.7c0,0.7-0.1,1.3-0.3,1.9
					c-0.2,0.7-0.5,1.3-0.9,2c0.2,0.3,0.3,0.6,0.4,0.8c0.1,0.3,0.2,0.6,0.2,0.9c0,0.2,0,0.3,0,0.5c0,0.1,0,0.3-0.1,0.4
					c-0.5,0.1-1.1,0.2-1.7,0.3c-0.6,0.1-1.2,0.1-1.8,0.1c0-0.1,0-0.2,0-0.2c0-0.4,0.1-0.7,0.2-1c0.9-0.4,1.6-1,2.2-1.7
					c-0.4-0.6-0.6-1.1-0.8-1.4c-0.2-0.3-0.5-0.8-0.9-1.4c-0.2-0.2-0.3-0.4-0.4-0.5c-0.2-0.2-0.3-0.3-0.4-0.3c-0.1,0-0.2,0-0.3,0.1
					c-0.1,0-0.2,0.1-0.2,0.1c-0.1,0-0.3-0.1-0.5-0.3c-0.2-0.2-0.4-0.4-0.7-0.7c-0.2-0.2-0.3-0.4-0.4-0.6s-0.1-0.3-0.1-0.5
					c0-0.3,0-0.5,0.1-0.7c0.1-0.3,0.2-0.4,0.3-0.4c0.2,0,0.5,0.2,0.9,0.6c0.3,0.3,0.7,0.8,1.2,1.4c0.4,0.5,0.8,1,1.1,1.6l0.8,1.2
					c0.2,0.4,0.5,0.8,0.7,1.2c0.3-0.7,0.6-1.3,0.7-2c0.1-0.6,0.2-1.3,0.2-2.2l-0.4-0.2c0-0.3,0-0.6,0.1-0.9c0.1-0.3,0.1-0.5,0.2-0.7
					l0.2,0c0,0.2,0.1,0.4,0.4,0.5c0.1,0.1,0.3,0.1,0.5,0.2S65.9,14.1,66,14.1z M64.1,21.3c0-0.1,0-0.2-0.1-0.3
					c0-0.1-0.1-0.3-0.3-0.6c-0.2,0.2-0.4,0.4-0.7,0.7s-0.6,0.5-0.9,0.6c0.6,0,1,0,1.3-0.1C63.8,21.5,64.1,21.4,64.1,21.3z"/>
				<path d="M69.2,20c0,0.4-0.1,0.8-0.2,1.1c-0.1,0.2-0.2,0.5-0.5,0.9L68.3,22c0-0.1,0-0.3,0-0.5c0-0.2,0-0.3,0-0.4
					c0-0.5,0-1.2-0.1-2.1c-0.1-0.9-0.2-1.9-0.3-2.9c-0.1-0.6-0.1-1.2-0.2-1.8c0.1-0.2,0.2-0.4,0.3-0.7s0.3-0.5,0.4-0.7
					c0.1,0.6,0.2,1.3,0.3,2.3S69,17,69,17.8C69.1,18.8,69.2,19.5,69.2,20z"/>
				<path d="M82,21c0,0.8-0.2,1.4-0.6,1.9c-0.3,0.4-0.8,0.7-1.5,0.9c-0.6,0.1-1.3,0.2-2.1,0.2c-1,0-1.7-0.2-2.3-0.5
					c-0.6-0.4-0.9-1-0.9-1.7c0-0.4,0.1-0.9,0.2-1.3c0.1-0.4,0.3-0.8,0.5-1.3c0.2-0.3,0.4-0.7,0.6-1.2l0.2,0.1
					c-0.2,0.3-0.3,0.6-0.5,0.9c-0.2,0.3-0.3,0.7-0.4,0.9c-0.1,0.3-0.1,0.7-0.1,1c0,0.6,0.2,1.1,0.7,1.4c0.5,0.3,1.1,0.5,1.9,0.5
					c0.9,0,1.6-0.1,2.4-0.4c0.8-0.3,1.2-0.7,1.2-1.1c0-0.5-0.1-1.3-0.2-2.4c-0.1-0.9-0.3-1.8-0.4-2.9l-0.3-1.4l-0.3-0.2
					c0-0.7,0.1-1.3,0.4-1.8h0.1c0,0.2,0.1,0.3,0.1,0.4c0,0.1,0.1,0.2,0.3,0.2c0.2,0.1,0.3,0.1,0.5,0.2c0.1,0.1,0.3,0.1,0.4,0.2
					c0,0.3,0,0.6,0,0.7c0,0.2-0.1,0.4-0.2,0.7l-0.4-0.1c0,0.1,0.1,0.6,0.2,1.5c0.2,1,0.3,1.9,0.3,2.5C81.9,19.6,82,20.4,82,21z"/>
				<path d="M85.8,21.9h-4.3v-1.3h3.8c0-0.6-0.1-1-0.2-1.3c-0.1-0.2-0.3-0.5-0.7-0.9l0.6-1.2c0.4,0.4,0.6,0.8,0.7,1
					c0.1,0.4,0.2,1,0.2,1.9V21.9z M84,15.3l-0.6,1.1l-1.2-0.6l0.6-1.1L84,15.3z M85.7,14.6l-0.6,1.1L83.9,15l0.6-1.1L85.7,14.6z"/>
				<path d="M91.9,21.9h-1.1c-0.3,0-0.7-0.1-1-0.2c-0.4-0.2-0.7-0.4-0.9-0.8c-0.3,0.3-0.7,0.5-1.2,0.7c-0.5,0.2-1.1,0.3-1.8,0.3
					h-0.7v-1.3h0.7c0.4,0,0.8,0,1.2-0.1c0.4-0.1,0.8-0.3,1.2-0.5L88,19.6c-0.2-0.2-0.3-0.3-0.5-0.3c-0.1,0-0.2,0-0.2,0
					s-0.1,0.1-0.2,0.2h-0.2v-0.4c0-0.5,0.1-0.9,0.4-1.1c0.3-0.2,0.7-0.3,1.4-0.3c0.6,0,1,0.1,1.4,0.2c0.5,0.2,0.7,0.5,0.7,0.9
					c0,0.2-0.1,0.4-0.3,0.7c-0.1,0.2-0.4,0.4-0.8,0.7c0.1,0.1,0.2,0.2,0.5,0.3c0.2,0.1,0.4,0.1,0.6,0.1h1.1V21.9z"/>
				<path d="M98,21.9h-0.8c-0.3,0-0.7-0.1-1.1-0.2c-0.5-0.2-0.9-0.4-1.3-0.7c-0.3,0.3-0.6,0.6-0.9,0.7s-0.8,0.2-1.3,0.2h-1.2v-1.3
					h1.2c0.5,0,0.9-0.1,1.2-0.3c0.3-0.2,0.5-0.4,0.8-0.7c0.3-0.4,0.7-0.8,1.1-1.1c0.4-0.3,0.8-0.5,1.1-0.5c0.3,0.5,0.6,1,0.8,1.4
					c0.3,0.6,0.4,1,0.4,1.4V21.9z M97.1,20.4c-0.1-0.3-0.2-0.6-0.3-0.8c-0.1-0.2-0.3-0.5-0.5-0.7c-0.2,0.1-0.4,0.2-0.6,0.3
					c-0.1,0.1-0.2,0.3-0.4,0.5c0.2,0.2,0.4,0.4,0.8,0.5C96.4,20.4,96.8,20.5,97.1,20.4L97.1,20.4z"/>
				<path d="M101.2,21.9h-3.7v-1.3h3l-0.9-6.2l-0.4-0.2c0-0.3,0-0.7,0.1-1c0.1-0.3,0.2-0.6,0.3-0.9l0.1,0.1c0,0.3,0.2,0.5,0.5,0.6
					c0.3,0.1,0.5,0.2,0.8,0.3c0,0.2,0,0.5-0.1,0.8s-0.1,0.5-0.1,0.6l-0.4-0.1l0.9,5.8V21.9z"/>
				<path d="M103.8,20c0,0.4-0.1,0.8-0.2,1.1c-0.1,0.2-0.2,0.5-0.5,0.9l-0.1-0.1c0-0.1,0-0.3,0-0.5c0-0.2,0-0.3,0-0.4
					c0-0.5,0-1.2-0.1-2.1c-0.1-0.9-0.2-1.9-0.3-2.9c-0.1-0.6-0.1-1.2-0.2-1.8c0.1-0.2,0.2-0.4,0.3-0.7s0.3-0.5,0.4-0.7
					c0.1,0.6,0.2,1.3,0.3,2.3s0.2,1.8,0.3,2.6C103.7,18.8,103.8,19.5,103.8,20z"/>
				<path d="M116.7,26l-1.9,1.2c-1.1,0-1.9,0-2.4-0.1c-1-0.1-1.8-0.4-2.3-0.9c-0.7-0.5-1-1.3-1-2.3c0-0.6,0.1-1.2,0.3-1.6
					c0.2-0.4,0.4-0.8,0.7-1.1c0.1-0.2,0.4-0.4,0.7-0.8c-0.5-0.2-0.8-0.4-1-0.6c-0.4-0.4-0.6-0.9-0.6-1.4c0-0.5,0.2-1,0.7-1.5
					c0.5-0.6,1.1-0.9,1.9-0.9c0.3,0,0.7,0.1,1,0.3c0.2,0.1,0.6,0.3,0.9,0.6c-0.5,0-1,0-1.5,0.1c-0.7,0.1-1.2,0.2-1.6,0.4
					c-0.5,0.2-0.8,0.4-0.8,0.7c0,0.3,0.3,0.6,0.9,0.9c0.5,0.2,1,0.4,1.7,0.5c0.5-0.3,1-0.5,1.5-0.7c0.5-0.2,1.1-0.4,1.7-0.5
					l-0.3,1.1c-1,0.4-1.8,0.7-2.3,0.9c-0.9,0.4-1.7,0.9-2.2,1.3c-0.6,0.6-1,1.2-1,1.9c0,0.7,0.3,1.2,0.8,1.6
					c0.5,0.3,1.1,0.6,2.1,0.7c0.7,0.1,1.6,0.2,2.7,0.2c0.2,0,0.5,0,0.7,0C116.2,25.9,116.5,25.9,116.7,26L116.7,26z"/>
				<path d="M124.7,21.9c0,0.5-0.2,1.1-0.7,1.7c-0.4,0.5-0.9,0.9-1.5,1.3c-0.6,0.4-1.1,0.5-1.4,0.5c-0.3,0-0.7,0-1.1-0.1
					c-0.3-0.1-0.7-0.2-1.1-0.3c-0.4-0.1-0.7-0.3-1.1-0.4l0.1-0.3c0.3,0.1,0.7,0.1,1,0.2c0.4,0.1,0.7,0.1,1,0.1c0.6,0,1.3-0.2,2-0.6
					c0.6-0.4,1.2-0.8,1.6-1.4s0.7-1.1,0.7-1.5c0-0.4-0.1-0.8-0.3-1.2c-0.2-0.3-0.4-0.7-0.8-1.1l0.4-1.2c0.4,0.4,0.7,0.7,0.9,1.1
					c0.2,0.4,0.3,0.9,0.3,1.4V21.9z"/>
				<path d="M128.3,21.9h-1.1c-0.3,0-0.6-0.1-0.8-0.4c-0.2-0.2-0.3-0.6-0.4-1c-0.1-0.5-0.2-1-0.2-1.7c0-0.6-0.1-1.1-0.1-1.7
					s-0.1-1-0.1-1.3s-0.1-0.5-0.2-0.7c-0.1-0.2-0.3-0.4-0.5-0.6l0.9-1.4c0.2,0.6,0.3,1.3,0.4,2.1c0.1,0.5,0.1,1.7,0.2,3.6
					c0.1,0.9,0.2,1.4,0.4,1.7c0.1,0.2,0.3,0.3,0.5,0.3h1.1V21.9z"/>
				<path d="M141.4,21.9h-9.1c-0.3,0-0.5,0-0.8-0.1c-0.2-0.1-0.4-0.2-0.7-0.3c-0.2,0.2-0.4,0.3-0.6,0.4c-0.2,0.1-0.6,0.1-1,0.1h-1.5
					v-1.3h1.5c0.4,0,0.7,0,0.9-0.1c0.3-0.1,0.4-0.3,0.4-0.7c0-0.1,0-0.3,0-0.4s0-0.3-0.1-0.5l0.3-0.4c0.2,0.7,0.4,1.2,0.7,1.5
					c0.3,0.4,0.7,0.6,1.2,0.6c0.4,0,0.9-0.1,1.5-0.3c0.6-0.2,1.1-0.5,1.6-0.8c0.7-0.5,1.2-0.8,1.3-0.9c0.4-0.3,0.8-0.4,1.1-0.5
					c0.4-0.1,0.8-0.2,1.2-0.2c0.7,0,1.2,0.2,1.6,0.6c0.3,0.4,0.5,0.9,0.5,1.5V21.9z M136.6,15.8l-0.6,1.1l-1.2-0.6l0.6-1.1
					L136.6,15.8z M140.2,20c0-0.2-0.2-0.4-0.5-0.6s-0.7-0.2-1.1-0.2c-0.5,0-1.1,0.2-1.8,0.5c-0.6,0.3-1.1,0.6-1.7,0.8h3.5
					c0.6,0,1,0,1.2-0.1C140.1,20.4,140.2,20.2,140.2,20z"/>
				<path d="M147.5,21.9h-0.8c-0.3,0-0.7-0.1-1.1-0.2c-0.5-0.2-0.9-0.4-1.3-0.7c-0.3,0.3-0.6,0.6-0.9,0.7c-0.3,0.1-0.8,0.2-1.3,0.2
					h-1.2v-1.3h1.2c0.5,0,0.9-0.1,1.2-0.3c0.3-0.2,0.5-0.4,0.8-0.7c0.3-0.4,0.7-0.8,1.1-1.1c0.4-0.3,0.8-0.5,1.1-0.5
					c0.3,0.5,0.6,1,0.8,1.4c0.3,0.6,0.4,1,0.4,1.4V21.9z M146.7,20.4c-0.1-0.3-0.2-0.6-0.3-0.8c-0.1-0.2-0.3-0.5-0.5-0.7
					c-0.2,0.1-0.4,0.2-0.6,0.3c-0.1,0.1-0.2,0.3-0.4,0.5c0.2,0.2,0.4,0.4,0.8,0.5C146,20.4,146.3,20.5,146.7,20.4L146.7,20.4z"/>
				<path d="M159.7,21c0,0.8-0.2,1.4-0.6,1.9c-0.3,0.4-0.8,0.7-1.5,0.9c-0.6,0.1-1.3,0.2-2.1,0.2c-1,0-1.7-0.2-2.3-0.5
					c-0.6-0.4-0.9-1-0.9-1.7c0-0.4,0.1-0.9,0.2-1.3c0.1-0.4,0.3-0.8,0.5-1.3c0.2-0.3,0.4-0.7,0.6-1.2l0.2,0.1
					c-0.2,0.3-0.3,0.6-0.5,0.9c-0.2,0.3-0.3,0.7-0.4,0.9c-0.1,0.3-0.1,0.7-0.1,1c0,0.6,0.2,1.1,0.7,1.4c0.5,0.3,1.1,0.5,1.9,0.5
					c0.9,0,1.6-0.1,2.4-0.4c0.8-0.3,1.2-0.7,1.2-1.1c0-0.5-0.1-1.3-0.2-2.4c-0.1-0.9-0.3-1.8-0.4-2.9l-0.3-1.4l-0.3-0.2
					c0-0.7,0.1-1.3,0.4-1.8h0.1c0,0.2,0.1,0.3,0.1,0.4c0,0.1,0.1,0.2,0.3,0.2c0.2,0.1,0.3,0.1,0.5,0.2c0.1,0.1,0.3,0.1,0.4,0.2
					c0,0.3,0,0.6,0,0.7c0,0.2-0.1,0.4-0.2,0.7l-0.4-0.1c0,0.1,0.1,0.6,0.2,1.5c0.2,1,0.3,1.9,0.3,2.5
					C159.6,19.6,159.7,20.4,159.7,21z"/>
				<path d="M165.8,21.9h-1.1c-0.3,0-0.7-0.1-1-0.2c-0.4-0.2-0.7-0.4-0.9-0.8c-0.3,0.3-0.7,0.5-1.2,0.7c-0.5,0.2-1.1,0.3-1.8,0.3
					h-0.7v-1.3h0.7c0.4,0,0.8,0,1.2-0.1c0.4-0.1,0.8-0.3,1.2-0.5l-0.3-0.4c-0.2-0.2-0.3-0.3-0.5-0.3c-0.1,0-0.2,0-0.2,0
					s-0.1,0.1-0.2,0.2h-0.2v-0.4c0-0.5,0.1-0.9,0.4-1.1c0.3-0.2,0.7-0.3,1.4-0.3c0.6,0,1,0.1,1.4,0.2c0.5,0.2,0.7,0.5,0.7,0.9
					c0,0.2-0.1,0.4-0.3,0.7c-0.1,0.2-0.4,0.4-0.8,0.7c0.1,0.1,0.2,0.2,0.5,0.3c0.2,0.1,0.4,0.1,0.6,0.1h1.1V21.9z"/>
				<path d="M169.9,21.9h-4.6v-1.3h2.6c0.3,0,0.6,0,0.8,0c0.2,0,0.5-0.1,0.7-0.1c-0.9-0.1-1.4-0.2-1.7-0.3c-0.6-0.2-0.9-0.7-0.9-1.2
					c0-0.5,0.1-1,0.4-1.5c0.3-0.5,0.7-0.8,1.1-0.8c0.5,0,0.9,0.3,1.2,1c0.2,0.5,0.3,1.1,0.3,1.8V21.9z M169.2,14.1l-0.7,1.1
					l-1.1-0.7l0.6-1L169.2,14.1z M169.2,19.3c-0.1-0.4-0.2-0.7-0.3-0.9c-0.2-0.4-0.5-0.6-0.8-0.6c-0.1,0-0.3,0.1-0.4,0.2
					c-0.1,0.1-0.2,0.2-0.2,0.4c0,0.4,0.2,0.6,0.6,0.8C168.3,19.2,168.7,19.3,169.2,19.3z"/>
				<path d="M173.1,21.9h-3.7v-1.3h3l-0.9-6.2l-0.4-0.2c0-0.3,0-0.7,0.1-1c0.1-0.3,0.2-0.6,0.3-0.9l0.1,0.1c0,0.3,0.2,0.5,0.5,0.6
					c0.3,0.1,0.5,0.2,0.8,0.3c0,0.2,0,0.5-0.1,0.8c0,0.3-0.1,0.5-0.1,0.6l-0.4-0.1l0.9,5.8V21.9z"/>
				<path d="M175.6,20c0,0.4-0.1,0.8-0.2,1.1c-0.1,0.2-0.2,0.5-0.5,0.9l-0.1-0.1c0-0.1,0-0.3,0-0.5c0-0.2,0-0.3,0-0.4
					c0-0.5,0-1.2-0.1-2.1c-0.1-0.9-0.2-1.9-0.3-2.9c-0.1-0.6-0.1-1.2-0.2-1.8c0.1-0.2,0.2-0.4,0.3-0.7s0.3-0.5,0.4-0.7
					c0.1,0.6,0.2,1.3,0.3,2.3s0.2,1.8,0.3,2.6C175.6,18.8,175.6,19.5,175.6,20z"/>
			</g>
		</g>
	</g>
	<rect class="st1" width="186.9" height="37"/>
</g>
</svg>
