<?xml version="1.0" encoding="utf-8"?>
<!-- Generator: Adobe Illustrator 19.2.0, SVG Export Plug-In . SVG Version: 6.00 Build 0)  -->
<svg version="1.1" id="Layer_1" xmlns="http://www.w3.org/2000/svg" xmlns:xlink="http://www.w3.org/1999/xlink" x="0px" y="0px"
	 viewBox="0 0 218.5 37.1" style="enable-background:new 0 0 218.5 37.1;" xml:space="preserve">
<style type="text/css">
	.st0{fill:#BA0017;}
	.st1{fill:none;}
</style>
<g>
	<g>
		<g>
			<path d="M57.3,12.8c0-0.2,0.1-0.4,0.2-0.6c0.1-0.2,0.2-0.4,0.2-0.5c0,0,0,0,0.1,0c0,0,0,0,0.1,0c0.1,0.3,0.1,0.6,0.2,0.9
				c0.1,0.3,0.1,0.6,0.2,1c0.1,0.4,0.1,0.8,0.2,1.2s0.1,0.9,0.2,1.5c0,0.4,0.1,0.8,0.1,1.1s0.1,0.6,0.1,0.8c0,0.2,0.1,0.4,0.1,0.6
				c0,0.2,0.1,0.4,0.1,0.6c0,0.3,0.1,0.5,0.2,0.7c0.1,0.2,0.2,0.4,0.3,0.5c0.1,0.1,0.3,0.2,0.5,0.3s0.4,0.1,0.7,0.1h0.1
				c0.2,0,0.3,0.1,0.4,0.2c0.1,0.1,0.1,0.3,0.1,0.4c0,0.2,0,0.3-0.1,0.4c-0.1,0.1-0.2,0.2-0.4,0.2h-0.1c-0.4,0-0.8-0.1-1-0.2
				c-0.3-0.1-0.5-0.3-0.7-0.5c-0.2-0.2-0.3-0.5-0.4-0.8c-0.1-0.3-0.2-0.6-0.2-1c0-0.3-0.1-0.6-0.1-1s-0.1-0.6-0.1-1
				c0-0.3-0.1-0.6-0.1-0.9c0-0.3-0.1-0.6-0.1-0.8c-0.1-0.5-0.1-1-0.2-1.5c-0.1-0.5-0.2-1-0.3-1.6C57.3,13,57.3,12.9,57.3,12.8
				C57.3,12.9,57.3,12.9,57.3,12.8z"/>
			<path d="M64.9,12.8c-0.3,0.1-0.6,0.2-0.9,0.4s-0.6,0.3-0.9,0.4c-0.3,0.1-0.5,0.2-0.8,0.4c-0.2,0.1-0.4,0.2-0.6,0.3
				c-0.1,0-0.1,0-0.1-0.1c0,0,0-0.1,0.1-0.2c0-0.1,0.1-0.1,0.1-0.2c0-0.1,0.1-0.1,0.1-0.2c0-0.1,0.1-0.1,0.1-0.1
				c0-0.1,0.1-0.1,0.2-0.1l3-1.3c0.1,0,0.1,0,0.1,0.1c0,0.1-0.1,0.2-0.2,0.3c-0.1,0.1-0.1,0.2-0.2,0.3C65,12.7,64.9,12.7,64.9,12.8z
				 M64.9,11.4c-0.3,0.1-0.6,0.2-0.9,0.4c-0.3,0.1-0.6,0.3-0.9,0.4c-0.3,0.1-0.5,0.2-0.8,0.4s-0.4,0.2-0.6,0.3c-0.1,0-0.1,0-0.1-0.1
				c0,0,0-0.1,0.1-0.2c0-0.1,0.1-0.1,0.1-0.2s0.1-0.1,0.1-0.2s0.1-0.1,0.1-0.1c0-0.1,0.1-0.1,0.2-0.1l3-1.3c0.1,0,0.1,0,0.1,0.1
				c0,0.1-0.1,0.2-0.2,0.3s-0.1,0.2-0.2,0.3C65,11.3,65,11.3,64.9,11.4z"/>
			<path d="M64.6,17.2c0.1,0,0.1,0,0.2,0.1s0.1,0.2,0.1,0.3s0.1,0.2,0.1,0.4c0,0.1,0,0.3,0.1,0.4s0,0.2,0,0.3c0,0.1,0,0.2,0,0.2
				c0,0.5-0.1,0.9-0.3,1.2c-0.1,0.4-0.4,0.7-0.7,0.9c0.2,0,0.4,0,0.7-0.1c0.2,0,0.5,0,0.7,0c0.2,0,0.5,0,0.7,0s0.4,0,0.6,0h0.1
				c0.2,0,0.3,0.1,0.4,0.2c0.1,0.1,0.1,0.3,0.1,0.4c0,0.2,0,0.3-0.1,0.4c-0.1,0.1-0.2,0.2-0.4,0.2h-0.1l-1.5,0
				c0.2,0.2,0.3,0.4,0.4,0.6c0.1,0.2,0.1,0.4,0.1,0.7c0,0.2,0,0.3-0.1,0.5c0,0.2-0.1,0.3-0.2,0.5c-0.1,0.1-0.2,0.3-0.3,0.4
				c-0.1,0.1-0.3,0.2-0.4,0.2c-0.4,0.1-0.7,0-1-0.1c-0.3-0.1-0.5-0.3-0.8-0.6c-0.1-0.1-0.2-0.3-0.3-0.4c-0.1-0.1-0.2-0.3-0.3-0.5
				c-0.1-0.2-0.1-0.3-0.2-0.5c-0.1-0.2-0.1-0.3-0.1-0.5c-0.1,0-0.2,0-0.2,0s-0.2,0-0.2,0s-0.1,0-0.2,0c-0.1,0-0.1,0-0.1,0
				c0-0.1,0-0.1,0-0.2c0-0.1,0.1-0.1,0-0.2l-0.8,0h-0.1c-0.2,0-0.3-0.1-0.4-0.2c-0.1-0.1-0.1-0.3-0.1-0.4c0-0.2,0.1-0.3,0.1-0.4
				s0.2-0.2,0.4-0.2h0.1c0.3,0,0.6,0,0.8,0c0.3,0,0.5,0,0.7,0c0.1-0.4,0.2-0.8,0.3-1.2c0.2-0.4,0.3-0.8,0.5-1.1
				c0.1-0.1,0.2-0.2,0.3-0.4c0.1-0.2,0.2-0.3,0.4-0.5c0.1-0.1,0.3-0.3,0.4-0.4S64.5,17.2,64.6,17.2z M62.7,20.8
				c0.1,0,0.3-0.1,0.5-0.2c0.2-0.1,0.4-0.2,0.6-0.3c0.2-0.1,0.3-0.2,0.5-0.3c0.1-0.1,0.3-0.2,0.3-0.3c0-0.2,0-0.4-0.1-0.6
				c0-0.2-0.1-0.3-0.2-0.5c0,0-0.1-0.1-0.1-0.1s-0.1,0-0.1,0c-0.2,0-0.3,0.1-0.5,0.3c-0.2,0.2-0.3,0.4-0.4,0.6
				c-0.1,0.2-0.2,0.5-0.3,0.7C62.8,20.4,62.7,20.6,62.7,20.8z M62.8,22.4c0.1,0.2,0.2,0.3,0.3,0.5c0.1,0.2,0.2,0.3,0.3,0.4
				s0.2,0.2,0.4,0.3c0.2,0.1,0.3,0.2,0.6,0.2c0.1,0,0.1,0,0.2,0c0.1,0,0.2,0,0.3-0.1c0.1,0,0.2-0.1,0.2-0.1c0.1-0.1,0.1-0.1,0.1-0.2
				c0-0.1,0-0.2-0.1-0.3c-0.1-0.1-0.2-0.2-0.4-0.3c-0.1-0.1-0.3-0.2-0.5-0.2c-0.2-0.1-0.4-0.1-0.5-0.2c-0.2-0.1-0.3-0.1-0.5-0.1
				C63,22.4,62.9,22.4,62.8,22.4z"/>
			<path d="M66.7,4.2C66.7,4.2,66.7,4.3,66.7,4.2c0.4,0.5,0.6,0.9,0.7,1.3c0.1,0.5,0.2,0.9,0.1,1.5c0,0.1,0,0.3-0.1,0.4
				s-0.1,0.3-0.1,0.4C67.2,8,67.1,8.2,67,8.2c-0.1,0.1-0.1,0.1-0.2,0.1c0,0-0.1,0-0.1-0.1c0,0,0-0.1,0-0.2c0-0.1,0-0.1,0-0.2
				c0-0.1,0-0.1,0-0.2c0-0.2,0.1-0.5,0.1-0.7s0-0.5-0.1-0.7s-0.1-0.5-0.2-0.7c-0.1-0.2-0.2-0.5-0.4-0.7c0,0,0-0.1,0.1-0.2
				s0.1-0.2,0.1-0.2s0.1-0.2,0.2-0.2C66.6,4.3,66.6,4.2,66.7,4.2z"/>
			<path d="M68.9,9.6c-0.3,0.1-0.6,0.2-0.9,0.4c-0.3,0.1-0.6,0.3-0.9,0.4c-0.3,0.1-0.6,0.2-0.8,0.4c-0.2,0.1-0.4,0.2-0.6,0.3
				c0,0-0.1,0-0.1,0c0,0,0,0,0-0.1c0,0,0-0.1,0.1-0.2c0-0.1,0.1-0.2,0.1-0.2c0-0.1,0.1-0.2,0.1-0.2c0-0.1,0.1-0.1,0.1-0.1
				c0-0.1,0.1-0.1,0.2-0.1l3-1.3c0.1,0,0.1,0,0.1,0.1c0,0,0,0.1-0.1,0.2s-0.1,0.1-0.1,0.2c0,0.1-0.1,0.1-0.1,0.2
				c0,0.1-0.1,0.1-0.1,0.2C69,9.5,69,9.6,68.9,9.6z"/>
			<path d="M67.5,11.4C67.5,11.4,67.5,11.3,67.5,11.4c0.1-0.1,0.1-0.1,0.1,0c0,0.1,0.1,0.3,0.1,0.4s0.1,0.3,0.2,0.4
				c0.1,0.1,0.2,0.2,0.3,0.4c0.1,0.1,0.2,0.2,0.3,0.3c-0.1,0.1-0.1,0.2-0.2,0.3c-0.1,0.1-0.1,0.2-0.1,0.3s-0.1,0.2-0.1,0.2
				c0,0.1,0,0.1,0,0.2c0.1,0.5,0.1,1,0.2,1.5s0.2,1,0.2,1.5c0.1,0.5,0.1,1,0.2,1.5s0.1,1,0.1,1.5c0,0.2,0,0.3,0,0.5
				c0,0.2-0.1,0.3-0.1,0.5c-0.1,0.2-0.1,0.3-0.2,0.5c-0.1,0.1-0.2,0.3-0.3,0.4c-0.2,0.1-0.3,0.2-0.6,0.3c-0.2,0.1-0.5,0.1-0.8,0.1
				h-0.1c-0.2,0-0.3-0.1-0.4-0.2c-0.1-0.1-0.1-0.3-0.1-0.4c0-0.2,0-0.3,0.1-0.4c0.1-0.1,0.2-0.2,0.4-0.2h0.1c0.2,0,0.3,0,0.5,0
				c0.2,0,0.3,0,0.5-0.1c0.1,0,0.3-0.1,0.4-0.1s0.2-0.1,0.2-0.2c-0.1-1.1-0.2-2.2-0.4-3.3c-0.2-1.1-0.3-2.2-0.5-3.3
				c0-0.2-0.1-0.4-0.1-0.7c0-0.2-0.1-0.4-0.2-0.6c0-0.1-0.1-0.1-0.1-0.1s0-0.1,0-0.1c0.1-0.2,0.2-0.3,0.3-0.5
				C67.3,11.7,67.4,11.5,67.5,11.4z"/>
			<path d="M72.9,26.2c-0.6,0.2-1.1,0.4-1.6,0.6s-1,0.4-1.5,0.6c-0.1,0-0.1,0-0.1-0.1c0-0.1,0.1-0.2,0.2-0.3
				c0.1-0.1,0.1-0.2,0.2-0.3c0,0,0.1-0.1,0.1-0.1c0.1-0.1,0.3-0.1,0.5-0.2c0.2-0.1,0.5-0.2,0.8-0.3c0.3-0.1,0.6-0.2,0.9-0.3
				s0.6-0.2,0.9-0.3c0.1,0,0.1,0,0.1,0c0,0-0.1,0.1-0.1,0.2c0,0.1-0.1,0.1-0.1,0.2c0,0.1-0.1,0.1-0.1,0.2c0,0.1-0.1,0.1-0.1,0.1
				C73,26.1,73,26.1,72.9,26.2C72.9,26.2,72.9,26.2,72.9,26.2z"/>
			<path d="M70.2,24.4c0,0,0.1,0,0.1-0.1c0.1,0,0.1-0.1,0.2-0.1s0.1-0.1,0.2-0.1c0.1,0,0.1-0.1,0.2-0.1c-0.1-0.1-0.2-0.2-0.3-0.3
				c-0.1-0.1-0.2-0.2-0.2-0.4c0-0.1,0-0.1,0-0.2c0-0.1,0-0.1,0.1-0.2c0.1-0.1,0.2-0.2,0.3-0.3s0.2-0.2,0.3-0.3s0.3-0.2,0.4-0.2
				s0.3-0.1,0.4-0.1c0.1,0,0.1,0,0.2,0.1s0.1,0.1,0.1,0.1c0,0,0.1,0.1,0.1,0.2c0,0.1,0.1,0.1,0.1,0.2c0,0.1,0,0.2,0,0.3L72.1,23
				c0,0.1-0.1,0.2-0.2,0.2c-0.1,0-0.1,0-0.1-0.1c0-0.1,0-0.1,0-0.2c0-0.1-0.1-0.1-0.2-0.2s-0.1,0-0.2,0c-0.3,0-0.5,0.1-0.7,0.2
				c0.1,0.2,0.2,0.3,0.3,0.5c0.2,0.1,0.3,0.2,0.5,0.2c0.3,0,0.5,0,0.7,0c0.2,0,0.5-0.1,0.7-0.1c0,0,0,0,0,0.1c0,0.1,0,0.1-0.1,0.2
				c0,0.1-0.1,0.2-0.1,0.2c0,0.1-0.1,0.1-0.1,0.1c-0.2,0-0.4,0.1-0.6,0.1c-0.2,0-0.4,0.1-0.7,0.1c-0.2,0.1-0.5,0.2-0.8,0.3
				c-0.3,0.1-0.5,0.2-0.7,0.3c0,0-0.1,0-0.1-0.1c0-0.1,0.1-0.2,0.1-0.3C70.1,24.5,70.1,24.5,70.2,24.4z M71.1,11.7
				C71.2,11.7,71.2,11.7,71.1,11.7c0.1,0.1,0.1,0.1,0.1,0.1c0,0,0,0.1,0,0.1s0,0.1,0,0.1c0,0.2,0,0.4,0,0.5s0,0.4,0.1,0.5
				c0.1,0.4,0.1,0.9,0.2,1.3s0.1,0.9,0.2,1.4c0.1,0.5,0.1,0.9,0.2,1.4c0.1,0.5,0.1,0.9,0.2,1.3c0,0.2,0,0.4,0,0.6c0,0.2,0,0.5,0,0.7
				c0,0.2,0,0.5-0.1,0.7s-0.1,0.4-0.2,0.6c0,0.1-0.1,0.1-0.1,0.2c0,0-0.1,0-0.1-0.1c-0.1-0.8-0.2-1.7-0.3-2.6
				c-0.1-0.9-0.3-1.8-0.4-2.7c-0.1-0.9-0.3-1.8-0.4-2.7c0-0.2,0.1-0.5,0.2-0.7c0.1-0.1,0.1-0.3,0.2-0.4C71,11.9,71.1,11.8,71.1,11.7
				z"/>
			<path d="M80.6,24.4c-0.6,0.2-1.1,0.4-1.6,0.6s-1,0.4-1.5,0.6c-0.1,0-0.1,0-0.1-0.1c0-0.1,0.1-0.2,0.2-0.3
				c0.1-0.1,0.1-0.2,0.2-0.3c0,0,0.1-0.1,0.1-0.1c0.1-0.1,0.3-0.1,0.5-0.2c0.2-0.1,0.5-0.2,0.8-0.3c0.3-0.1,0.6-0.2,0.9-0.3
				s0.6-0.2,0.9-0.3c0.1,0,0.1,0,0.1,0c0,0-0.1,0.1-0.1,0.2c0,0.1-0.1,0.1-0.1,0.2c0,0.1-0.1,0.1-0.1,0.2c0,0.1-0.1,0.1-0.1,0.1
				C80.7,24.3,80.7,24.3,80.6,24.4C80.7,24.4,80.6,24.4,80.6,24.4z"/>
			<path d="M79.8,15.7C79.8,15.6,79.8,15.6,79.8,15.7c0.1-0.1,0.2,0,0.2,0c0,0.2,0.1,0.6,0.2,1.2c0.1,0.3,0.1,0.6,0.2,0.8
				s0.1,0.4,0.1,0.5c0.1,0.3,0.1,0.5,0.2,0.8c0.1,0.2,0.1,0.5,0.2,0.6c0.1,0.3,0.2,0.5,0.3,0.6c0.1,0.2,0.3,0.3,0.4,0.4
				c0.2,0.1,0.3,0.2,0.5,0.2s0.4,0.1,0.6,0.1h0.1c0.2,0,0.3,0.1,0.4,0.2c0.1,0.1,0.1,0.3,0.1,0.4c0,0.2,0,0.3-0.1,0.4
				c-0.1,0.1-0.2,0.2-0.4,0.2h-0.1c-0.3,0-0.6,0-0.9-0.1c-0.2-0.1-0.5-0.2-0.6-0.3c-0.2-0.1-0.3-0.3-0.5-0.5
				c-0.1-0.2-0.2-0.4-0.3-0.6c-0.1-0.2-0.2-0.4-0.2-0.6c-0.1-0.2-0.1-0.3-0.1-0.4c-0.2,0.3-0.4,0.5-0.6,0.6
				c-0.2,0.1-0.4,0.3-0.6,0.3c-0.2,0.1-0.4,0.1-0.6,0.1c-0.2,0-0.4,0-0.7,0c-0.1,0-0.2,0-0.2-0.1c-0.1,0-0.2-0.1-0.2-0.1
				c-0.1-0.1-0.1-0.1-0.1-0.2s0-0.2,0-0.3c0-0.3,0.1-0.6,0.2-0.8s0.2-0.5,0.4-0.7c0.2-0.3,0.5-0.6,0.8-0.8c0.3-0.2,0.7-0.4,1.1-0.6
				c0-0.1,0-0.2,0-0.3s0-0.2-0.1-0.3c0,0,0-0.1,0-0.2s0-0.2,0.1-0.2c0-0.1,0.1-0.2,0.1-0.3C79.7,15.8,79.7,15.8,79.8,15.7z M79.7,18
				c-0.4,0.1-0.8,0.3-1.1,0.5c-0.3,0.2-0.6,0.5-0.8,0.8c-0.1,0.1-0.1,0.1,0,0.2c0.2,0.1,0.3,0.1,0.6,0.1c0.2,0,0.4,0,0.6-0.1
				c0.2,0,0.4-0.1,0.6-0.2s0.3-0.1,0.4-0.2c0-0.2-0.1-0.4-0.1-0.5S79.8,18.2,79.7,18z"/>
			<path d="M85.7,24.4c-0.6,0.2-1.1,0.4-1.6,0.6s-1,0.4-1.5,0.6c-0.1,0-0.1,0-0.1-0.1c0-0.1,0.1-0.2,0.2-0.3
				c0.1-0.1,0.1-0.2,0.2-0.3c0,0,0.1-0.1,0.1-0.1c0.1-0.1,0.3-0.1,0.5-0.2c0.2-0.1,0.5-0.2,0.8-0.3c0.3-0.1,0.6-0.2,0.9-0.3
				s0.6-0.2,0.9-0.3c0.1,0,0.1,0,0.1,0c0,0-0.1,0.1-0.1,0.2c0,0.1-0.1,0.1-0.1,0.2c0,0.1-0.1,0.1-0.1,0.2c0,0.1-0.1,0.1-0.1,0.1
				C85.8,24.3,85.8,24.3,85.7,24.4C85.7,24.4,85.7,24.4,85.7,24.4z"/>
			<path d="M84.5,17.8C84.6,17.8,84.6,17.8,84.5,17.8c0.1-0.1,0.1,0,0.2,0c0.1,0.1,0.3,0.3,0.4,0.5c0.1,0.2,0.2,0.4,0.3,0.6
				c0.1,0.2,0.2,0.4,0.2,0.6s0.1,0.4,0.1,0.6c0,0.1,0,0.2,0,0.3s0,0.2-0.1,0.3c0,0.1-0.1,0.2-0.1,0.3c0,0.1-0.1,0.2-0.1,0.3
				c-0.1,0.2-0.3,0.3-0.5,0.5c-0.2,0.1-0.5,0.2-0.8,0.3c-0.3,0.1-0.5,0.1-0.8,0.1c-0.3,0-0.5,0-0.8,0h-0.1c-0.2,0-0.3-0.1-0.4-0.2
				C82,21.9,82,21.7,82,21.6c0-0.2,0-0.3,0.1-0.4c0.1-0.1,0.2-0.2,0.4-0.2h0.1c0.1,0,0.3,0,0.5,0c0.2,0,0.5,0,0.7,0
				c0.2,0,0.5,0,0.7-0.1c0.2,0,0.4-0.1,0.6-0.2c0.1,0,0.1-0.1,0.1-0.2c-0.1-0.3-0.2-0.6-0.4-0.8s-0.4-0.5-0.6-0.7
				c0-0.2,0.1-0.4,0.1-0.6C84.5,18.2,84.5,18,84.5,17.8z M84.1,14.3l1,0.8c0,0,0,0.1,0,0.1l-0.7,0.8c0,0.1-0.1,0.1-0.1,0l-1-0.8
				c0,0,0-0.1,0-0.1l0.7-0.8C84.1,14.3,84.1,14.3,84.1,14.3z"/>
			<path d="M91.4,20.7c-0.1,0.2-0.2,0.4-0.4,0.6s-0.4,0.2-0.7,0.2c-0.1,0-0.3,0-0.4-0.1c-0.1-0.1-0.2-0.2-0.3-0.3
				c-0.1-0.1-0.2-0.3-0.2-0.4c-0.1-0.2-0.1-0.3-0.1-0.5c0-0.1,0-0.2,0.1-0.4c0-0.1,0.1-0.3,0.1-0.5s0.1-0.3,0.2-0.5s0.2-0.3,0.3-0.4
				s0.2-0.2,0.3-0.3s0.2-0.1,0.3-0.1c0.2,0,0.4,0.1,0.6,0.2c0.2,0.2,0.3,0.4,0.5,0.6c0.1,0.3,0.2,0.5,0.3,0.8
				c0.1,0.3,0.1,0.6,0.1,0.9c0,0.4-0.1,0.8-0.1,1.2c-0.1,0.4-0.2,0.8-0.4,1.2c-0.2,0.4-0.3,0.8-0.5,1.1s-0.4,0.7-0.6,0.9
				c-0.2,0.2-0.4,0.4-0.7,0.6s-0.5,0.3-0.8,0.4c-0.3,0.1-0.6,0.2-0.9,0.2s-0.6,0-0.9,0c-0.3,0-0.6-0.1-1-0.1c-0.3,0-0.6-0.1-0.9-0.2
				c0,0-0.1,0-0.1-0.1c0,0,0-0.1,0-0.1c0,0,0-0.1,0.1-0.1c0,0,0.1,0,0.2,0c0.4,0,0.9,0,1.3,0c0.4-0.1,0.8-0.2,1.2-0.3
				c0.3-0.1,0.7-0.3,0.9-0.5s0.6-0.4,0.9-0.7c0.2-0.2,0.4-0.4,0.6-0.6s0.4-0.5,0.5-0.7c0.2-0.3,0.3-0.5,0.4-0.8
				c0.1-0.3,0.2-0.5,0.2-0.7c0,0,0-0.1,0-0.2c0-0.1,0-0.1,0-0.2c0-0.1,0-0.1,0-0.2S91.4,20.8,91.4,20.7z M91.1,20c0,0,0-0.1-0.1-0.2
				s-0.1-0.2-0.2-0.2s-0.1-0.1-0.2-0.2c-0.1-0.1-0.2-0.1-0.3-0.1c-0.1,0-0.2,0-0.2,0.1c-0.1,0.1-0.1,0.1-0.2,0.2
				c0,0.1-0.1,0.1-0.1,0.2s0,0.1,0,0.2c0.1,0.1,0.2,0.2,0.3,0.2c0.1,0,0.2,0.1,0.4,0.1c0.1,0,0.3,0,0.4-0.1S91.1,20.1,91.1,20z"/>
			<path d="M93.5,13.9C93.5,13.9,93.5,13.8,93.5,13.9c0-0.1,0.1-0.2,0.2-0.3c0.2-0.1,0.3-0.2,0.5-0.3c0.2-0.1,0.3-0.2,0.5-0.3
				c0.2-0.1,0.3-0.2,0.5-0.4c0.2-0.1,0.3-0.3,0.5-0.5c-0.1,0-0.3-0.1-0.5-0.2c-0.2-0.1-0.3-0.2-0.4-0.3c-0.1-0.1-0.1-0.1-0.1-0.2
				s0-0.2,0-0.3c0-0.1,0.1-0.3,0.2-0.4c0.1-0.1,0.2-0.3,0.3-0.4c0.1-0.1,0.2-0.2,0.3-0.3c0.1-0.1,0.3-0.1,0.4-0.1
				c0.1,0,0.2,0,0.3,0.1c0.1,0.1,0.1,0.2,0.2,0.3s0.1,0.2,0.1,0.4c0,0.1,0,0.3,0,0.4c0,0.1,0,0.2,0,0.4s0,0.2,0,0.2c0,0,0,0,0,0.1
				c0.1,0,0.1,0.1,0.1,0.1c0,0,0,0.1,0.1,0.1c0,0.1,0,0.2,0,0.3c0,0.1,0,0.2-0.1,0.3c0,0.1-0.1,0.1-0.1,0.1c0,0-0.1,0-0.1-0.1
				c0,0,0-0.1-0.1-0.1c0,0-0.1,0-0.1-0.1c-0.2,0.2-0.3,0.4-0.5,0.5c-0.1,0.1-0.3,0.3-0.5,0.4c-0.2,0.1-0.3,0.2-0.5,0.3
				c-0.2,0.1-0.4,0.2-0.6,0.3c-0.1,0-0.2,0.1-0.3,0.1C93.7,13.9,93.6,13.9,93.5,13.9z M95.2,10.9c0.1,0.2,0.2,0.3,0.4,0.4
				c0.2,0.1,0.3,0.1,0.4,0.2h0c0,0,0-0.1,0-0.2c0-0.1,0-0.1,0-0.2s0-0.2,0-0.2c0-0.1-0.1-0.1-0.1-0.2c0,0-0.1-0.1-0.2-0.1
				c-0.1,0-0.2,0-0.2,0c-0.1,0-0.1,0.1-0.2,0.1S95.2,10.9,95.2,10.9z"/>
			<path d="M95,17.4c0-0.2,0-0.3,0-0.5c0-0.2,0-0.4,0-0.6c0-0.1,0.1-0.1,0.1-0.1c0.1,0,0.1,0,0.2,0c0.4,0.1,0.7,0.3,1,0.6
				c0.3,0.3,0.6,0.6,0.9,0.9c0.2,0.3,0.4,0.7,0.6,1.1c0.2,0.4,0.3,0.7,0.3,1.1c0,0.1,0,0.3,0,0.4c0,0.2,0,0.3-0.1,0.5
				c0,0.2-0.1,0.3-0.1,0.4c-0.1,0.1-0.1,0.2-0.2,0.3c-0.2,0.1-0.4,0.3-0.7,0.4c-0.3,0.1-0.6,0.2-0.9,0.2c-0.3,0.1-0.6,0.1-0.9,0.1
				c-0.3,0-0.6,0-0.9,0c-0.1,0-0.1,0-0.2,0s-0.2,0-0.3-0.1c-0.1,0-0.2-0.1-0.2-0.1c-0.1-0.1-0.1-0.1-0.1-0.2c0,0,0-0.1,0-0.2
				c0-0.1,0-0.3,0-0.4s0-0.3,0-0.4c0-0.1,0-0.2,0.1-0.2c0,0,0,0,0,0c0,0,0,0,0,0.1c0.1,0.1,0.2,0.1,0.3,0.1s0.3,0,0.4,0.1
				s0.3,0,0.4,0s0.3,0,0.4,0c0.2,0,0.4,0,0.6-0.1s0.4-0.1,0.6-0.1c0.2,0,0.4-0.1,0.5-0.1c0.2-0.1,0.3-0.1,0.4-0.2
				c0.1,0,0.1-0.1,0.2-0.1s0.1-0.1,0.1-0.1c0-0.3-0.2-0.6-0.3-0.9c-0.2-0.3-0.4-0.6-0.6-0.9c-0.2-0.3-0.5-0.5-0.8-0.7
				C95.6,17.6,95.3,17.5,95,17.4z"/>
			<path d="M108.8,20.8c0.1-0.2,0.1-0.4,0.2-0.6c0.1-0.2,0.1-0.4,0.2-0.5c0-0.1,0-0.1,0.1-0.1s0.1,0,0.1,0.1
				c0.1,0.2,0.2,0.4,0.3,0.6c0.1,0.2,0.2,0.4,0.3,0.5c0.1,0.1,0.1,0.1,0.2,0.1c0.1,0,0.2,0,0.3,0.1c0.1,0,0.2,0,0.3,0
				c0.1,0,0.2,0,0.2,0h0.1c0.2,0,0.3,0.1,0.4,0.2c0.1,0.1,0.1,0.3,0.1,0.4c0,0.2,0,0.3-0.1,0.4c-0.1,0.1-0.2,0.2-0.4,0.2H111
				c-0.3,0-0.6,0-0.8,0c0,0.3,0,0.6,0.1,1c0,0.3,0,0.7-0.1,1c-0.1,0.5-0.3,1-0.6,1.4c-0.3,0.4-0.7,0.7-1.1,0.9
				c-0.4,0.2-0.9,0.4-1.4,0.5c-0.5,0.1-1,0.2-1.5,0.2c-0.4,0-0.8-0.1-1.2-0.2s-0.7-0.3-1-0.6c-0.3-0.3-0.5-0.6-0.6-0.9
				c-0.2-0.4-0.2-0.8-0.2-1.2c0-0.5,0.1-1,0.2-1.4s0.4-0.9,0.7-1.3c0,0,0.1-0.1,0.1-0.1s0,0,0.1,0s0,0.1,0,0.1s0,0.1,0,0.1
				c-0.3,0.5-0.4,1-0.5,1.5c-0.1,0.5,0,1,0.1,1.4c0.1,0.2,0.2,0.4,0.3,0.6c0.1,0.2,0.3,0.3,0.5,0.4s0.4,0.2,0.7,0.3s0.6,0.1,0.9,0.1
				c0.4,0,0.7,0,1.1-0.1s0.7-0.2,1.1-0.3c0.3-0.1,0.7-0.3,1-0.5c0.3-0.2,0.6-0.5,0.8-0.8c0-0.3,0-0.5,0-0.8c0-0.3-0.1-0.6-0.2-0.9
				c-0.1-0.3-0.2-0.6-0.3-0.9C109,21.4,108.9,21.1,108.8,20.8z M107.1,17.4l1,0.8c0,0,0,0.1,0,0.1l-0.7,0.8c0,0.1-0.1,0.1-0.1,0
				l-1-0.8c0,0,0-0.1,0-0.1l0.7-0.8C107.1,17.3,107.1,17.3,107.1,17.4z"/>
			<path d="M115.4,24c-0.6,0.2-1.1,0.4-1.6,0.6s-1,0.4-1.5,0.6c-0.1,0-0.1,0-0.1-0.1c0-0.1,0.1-0.2,0.2-0.3c0.1-0.1,0.1-0.2,0.2-0.3
				c0,0,0.1-0.1,0.1-0.1c0.1-0.1,0.3-0.1,0.5-0.2c0.2-0.1,0.5-0.2,0.8-0.3c0.3-0.1,0.6-0.2,0.9-0.3s0.6-0.2,0.9-0.3
				c0.1,0,0.1,0,0.1,0c0,0-0.1,0.1-0.1,0.2c0,0.1-0.1,0.1-0.1,0.2c0,0.1-0.1,0.1-0.1,0.2c0,0.1-0.1,0.1-0.1,0.1
				C115.5,23.9,115.4,24,115.4,24C115.4,24,115.4,24,115.4,24z"/>
			<path d="M111,20.9c0.2,0,0.4,0,0.7,0c0.2,0,0.4,0,0.6-0.1c0.2,0,0.4-0.1,0.5-0.2c0.2-0.1,0.3-0.2,0.4-0.4
				c0.1-0.3,0.3-0.6,0.4-0.9c0.1-0.3,0.3-0.6,0.4-0.8c0.1-0.1,0.1-0.2,0.2-0.3c0.1-0.1,0.2-0.2,0.3-0.3c0.1-0.1,0.2-0.2,0.4-0.3
				c0.1-0.1,0.2-0.1,0.4-0.1c0.1,0,0.3,0.1,0.4,0.1c0.1,0.1,0.2,0.2,0.4,0.4c0.1,0.1,0.2,0.3,0.3,0.5c0.1,0.2,0.2,0.4,0.2,0.5
				c0.1,0.2,0.1,0.4,0.2,0.5c0,0.2,0,0.3,0,0.4c0,0.1,0,0.2,0,0.4s-0.1,0.2-0.1,0.4c0,0.1-0.1,0.2-0.2,0.3c-0.1,0.1-0.2,0.2-0.3,0.2
				c-0.1,0-0.3,0.1-0.5,0s-0.4-0.1-0.7-0.1c-0.3-0.1-0.5-0.2-0.8-0.3c-0.3-0.1-0.5-0.2-0.7-0.4c-0.2,0.6-0.5,1.1-0.9,1.3
				s-0.9,0.4-1.6,0.4h-0.1c-0.2,0-0.3-0.1-0.4-0.2c-0.1-0.1-0.1-0.3-0.1-0.4c0-0.2,0-0.3,0.1-0.4c0.1-0.1,0.2-0.2,0.4-0.2H111z
				 M116,20c0,0,0-0.1,0-0.1c0-0.1-0.1-0.2-0.1-0.2c0-0.1-0.1-0.2-0.1-0.2s-0.1-0.1-0.1-0.2c0-0.1-0.1-0.1-0.2-0.2
				c-0.1-0.1-0.1-0.1-0.2-0.2s-0.1-0.1-0.2-0.1c-0.1,0-0.2,0-0.3,0c-0.1,0-0.2,0-0.3,0.1s-0.2,0.1-0.2,0.2c-0.1,0.1-0.1,0.1-0.2,0.2
				c-0.1,0.1-0.1,0.2-0.1,0.2c0.3,0.2,0.6,0.4,0.9,0.5C115.3,20,115.7,20,116,20z"/>
			<path class="st0" d="M124.9,14c-0.3,0.1-0.6,0.2-0.9,0.4c-0.3,0.1-0.6,0.3-0.9,0.4c-0.3,0.1-0.6,0.2-0.8,0.4
				c-0.2,0.1-0.4,0.2-0.6,0.3c0,0-0.1,0-0.1,0c0,0,0,0,0-0.1c0,0,0-0.1,0.1-0.2c0-0.1,0.1-0.2,0.1-0.2c0-0.1,0.1-0.2,0.1-0.2
				c0-0.1,0.1-0.1,0.1-0.1c0-0.1,0.1-0.1,0.2-0.1l3-1.3c0.1,0,0.1,0,0.1,0.1c0,0,0,0.1-0.1,0.2s-0.1,0.1-0.1,0.2
				c0,0.1-0.1,0.1-0.1,0.2c0,0.1-0.1,0.1-0.1,0.2C125,13.9,125,14,124.9,14z"/>
			<path class="st0" d="M125.5,22.2l-0.8,0c-0.2,0-0.4,0-0.6-0.1c-0.2-0.1-0.4-0.1-0.5-0.3c-0.1-0.1-0.3-0.3-0.3-0.4
				s-0.1-0.4-0.1-0.6c0-0.1,0-0.2,0.1-0.3c0-0.1,0.1-0.3,0.2-0.4c0.1-0.1,0.2-0.3,0.2-0.4c0.1-0.1,0.2-0.3,0.3-0.4
				c0.1-0.1,0.2-0.2,0.3-0.3s0.2-0.1,0.4-0.1c0.2,0,0.4,0.1,0.5,0.2c0.2,0.1,0.3,0.3,0.4,0.5s0.2,0.4,0.3,0.7
				c0.1,0.2,0.1,0.4,0.2,0.6l0.6,0h0.2c0.2,0,0.3,0.1,0.4,0.2c0.1,0.1,0.1,0.3,0.1,0.4c0,0.2,0,0.3-0.1,0.4
				c-0.1,0.1-0.2,0.2-0.4,0.2h-0.2l-0.7,0c-0.1,0.5-0.2,0.9-0.3,1.3c-0.1,0.4-0.3,0.8-0.5,1.2c-0.2,0.4-0.4,0.7-0.7,0.9
				s-0.6,0.5-1,0.6c-0.3,0.1-0.6,0.1-0.9,0.2c-0.3,0-0.7,0-1.1,0s-0.7,0-1.1-0.1c-0.3-0.1-0.7-0.1-1-0.2c-0.1,0-0.1-0.1-0.1-0.1
				c0,0,0-0.1,0-0.1c0,0,0.1-0.1,0.1-0.1c0.1,0,0.1,0,0.2,0c0.3,0,0.6,0,0.9,0c0.3,0,0.6,0,1-0.1c0.3,0,0.6-0.1,0.9-0.2
				s0.6-0.2,0.8-0.3c0.3-0.2,0.6-0.4,0.8-0.6s0.4-0.5,0.6-0.7c0.2-0.3,0.3-0.5,0.5-0.8S125.4,22.5,125.5,22.2z M124.3,20.2
				c-0.1,0-0.1,0-0.2,0.1c-0.1,0-0.1,0.1-0.2,0.2c-0.1,0.1-0.1,0.1-0.1,0.2s-0.1,0.1-0.1,0.2c0,0.1,0.1,0.1,0.2,0.2
				c0.1,0,0.3,0.1,0.4,0.1c0.2,0,0.3,0,0.5,0c0.2,0,0.3,0,0.4,0c0,0,0-0.1-0.1-0.2c-0.1-0.1-0.1-0.2-0.2-0.3
				c-0.1-0.1-0.2-0.2-0.3-0.3C124.5,20.2,124.4,20.2,124.3,20.2z"/>
			<path class="st0" d="M127.7,14.3C127.7,14.3,127.7,14.2,127.7,14.3c0-0.1,0.1-0.2,0.2-0.3c0.2-0.1,0.3-0.2,0.5-0.3
				c0.2-0.1,0.3-0.2,0.5-0.3c0.2-0.1,0.3-0.2,0.5-0.4c0.2-0.1,0.3-0.3,0.5-0.5c-0.1,0-0.3-0.1-0.5-0.2c-0.2-0.1-0.3-0.2-0.4-0.3
				c-0.1-0.1-0.1-0.1-0.1-0.2s0-0.2,0-0.3c0-0.1,0.1-0.3,0.2-0.4c0.1-0.1,0.2-0.3,0.3-0.4c0.1-0.1,0.2-0.2,0.3-0.3
				c0.1-0.1,0.3-0.1,0.4-0.1c0.1,0,0.2,0,0.3,0.1c0.1,0.1,0.1,0.2,0.2,0.3s0.1,0.2,0.1,0.4c0,0.1,0,0.3,0,0.4c0,0.1,0,0.2,0,0.4
				s0,0.2,0,0.2c0,0,0,0,0,0.1c0.1,0,0.1,0.1,0.1,0.1c0,0,0,0.1,0.1,0.1c0,0.1,0,0.2,0,0.3c0,0.1,0,0.2-0.1,0.3
				c0,0.1-0.1,0.1-0.1,0.1c0,0-0.1,0-0.1-0.1c0,0,0-0.1-0.1-0.1c0,0-0.1,0-0.1-0.1c-0.2,0.2-0.3,0.4-0.5,0.5
				c-0.1,0.1-0.3,0.3-0.5,0.4c-0.2,0.1-0.3,0.2-0.5,0.3c-0.2,0.1-0.4,0.2-0.6,0.3c-0.1,0-0.2,0.1-0.3,0.1
				C127.9,14.3,127.8,14.3,127.7,14.3z M129.4,11.3c0.1,0.2,0.2,0.3,0.4,0.4c0.2,0.1,0.3,0.1,0.4,0.2h0c0,0,0-0.1,0-0.2
				c0-0.1,0-0.1,0-0.2s0-0.2,0-0.2c0-0.1-0.1-0.1-0.1-0.2c0,0-0.1-0.1-0.2-0.1c-0.1,0-0.2,0-0.2,0c-0.1,0-0.1,0.1-0.2,0.1
				C129.5,11.2,129.5,11.3,129.4,11.3z"/>
			<path class="st0" d="M133.6,20.6c-0.3,0.1-0.7,0.2-1.1,0.3c-0.4,0.1-0.8,0.2-1.2,0.4c-0.4,0.1-0.9,0.2-1.3,0.3
				c-0.4,0.1-0.9,0.2-1.3,0.3s-0.8,0.2-1.1,0.2c-0.3,0.1-0.6,0.1-0.9,0.1h-0.1c-0.2,0-0.3-0.1-0.4-0.2c-0.1-0.1-0.1-0.3-0.1-0.4
				c0-0.2,0-0.3,0.1-0.4c0.1-0.1,0.2-0.2,0.4-0.2h0.1c0.1,0,0.3,0,0.4,0c0.2,0,0.3,0,0.5,0c0.2,0,0.3,0,0.5-0.1s0.3,0,0.5-0.1
				c-0.1-0.1-0.3-0.2-0.4-0.3s-0.2-0.3-0.3-0.4s-0.2-0.3-0.3-0.5c-0.1-0.2-0.1-0.4-0.1-0.5c0-0.3,0-0.7,0.1-1c0.1-0.3,0.3-0.7,0.5-1
				c0.2-0.3,0.5-0.5,0.8-0.8c0.3-0.2,0.6-0.3,0.9-0.4c0.4-0.1,0.8-0.1,1.1,0c0.3,0.1,0.6,0.2,0.9,0.3c0.3,0.1,0.5,0.3,0.7,0.5
				c0.2,0.2,0.3,0.4,0.5,0.6c0,0,0,0.1,0,0.1c0,0,0,0-0.1,0.1c0,0-0.1,0-0.1,0c0,0-0.1,0-0.1,0c-0.2-0.1-0.3-0.2-0.5-0.2
				s-0.3-0.1-0.5-0.1s-0.4,0-0.6-0.1c-0.2,0-0.4,0-0.6,0c-0.2,0-0.4,0-0.6,0.1c-0.2,0-0.4,0.1-0.6,0.2c-0.2,0.1-0.4,0.2-0.5,0.3
				s-0.3,0.2-0.4,0.3c0,0.1,0,0.2,0.1,0.3c0,0.1,0.1,0.3,0.2,0.4c0.1,0.1,0.1,0.3,0.2,0.4s0.2,0.3,0.3,0.4c0.1,0.1,0.2,0.2,0.4,0.3
				c0.1,0.1,0.3,0.2,0.4,0.3s0.3,0.2,0.4,0.2c0.1,0.1,0.2,0.1,0.3,0.1c0.7-0.1,1.3-0.3,2-0.5c0.7-0.2,1.3-0.4,2-0.6c0.1,0,0.1,0,0,0
				c-0.2,0.3-0.3,0.5-0.5,0.8C133.9,20.3,133.7,20.4,133.6,20.6z"/>
			<path class="st0" d="M139.7,12c0,0.2,0,0.4-0.1,0.5c0,0.2-0.1,0.3-0.2,0.5c-0.1,0.1-0.2,0.2-0.4,0.3s-0.3,0.1-0.6,0.1
				c-0.3,0-0.5-0.1-0.7-0.3c-0.2-0.2-0.3-0.4-0.3-0.7c0-0.2,0-0.3,0.1-0.5c0-0.2,0.1-0.4,0.2-0.6c0.1-0.2,0.2-0.4,0.4-0.5
				c0.2-0.1,0.3-0.2,0.5-0.3c0.2,0,0.4,0,0.5,0.1c0.1,0.1,0.2,0.2,0.3,0.4c0.1,0.2,0.1,0.3,0.2,0.5S139.7,11.9,139.7,12z
				 M138.6,11.4c-0.1,0-0.2,0.1-0.3,0.1c-0.1,0.1-0.2,0.1-0.2,0.2c-0.1,0.1-0.1,0.2-0.2,0.3c0,0.1-0.1,0.2-0.1,0.3s0,0.1,0.1,0.2
				s0.1,0.1,0.2,0.1c0.1,0,0.1,0,0.2,0.1s0.2,0,0.2,0c0.3,0,0.6-0.1,0.8-0.3c0-0.1,0-0.2,0-0.3c0-0.1-0.1-0.2-0.2-0.3
				c-0.1-0.1-0.2-0.2-0.3-0.2C138.8,11.4,138.7,11.4,138.6,11.4z"/>
			<path class="st0" d="M139.4,17c0-0.2,0.1-0.3,0.1-0.5c0-0.2,0.1-0.3,0.1-0.4c0-0.1,0-0.1,0.1-0.1c0,0,0.1,0,0.1,0.1
				c0,0.1,0,0.1,0.1,0.2c0,0.1,0.1,0.2,0.1,0.3c0,0.1,0.1,0.2,0.1,0.4s0.1,0.2,0.1,0.3c0.1,0.4,0.2,0.8,0.3,1.2s0.3,0.8,0.4,1.1
				c0.2,0.5,0.5,0.8,0.8,1c0.3,0.2,0.7,0.3,1.3,0.3h0.1c0.2,0,0.3,0.1,0.4,0.2c0.1,0.1,0.1,0.3,0.1,0.4c0,0.2,0,0.3-0.1,0.4
				c-0.1,0.1-0.2,0.2-0.4,0.2h-0.1c-0.3,0-0.6,0-0.8-0.1s-0.5-0.2-0.7-0.3c-0.2-0.1-0.4-0.4-0.6-0.6c-0.2-0.3-0.4-0.6-0.5-1
				c-0.1,0.4-0.3,0.6-0.5,0.9c-0.2,0.2-0.5,0.4-0.8,0.5c-0.1,0.1-0.4,0.1-0.6,0.2s-0.5,0.1-0.8,0.2c-0.3,0-0.6,0-0.8,0
				s-0.5-0.1-0.6-0.2c-0.1-0.1-0.1-0.2-0.2-0.3c0-0.1-0.1-0.3-0.1-0.4c0-0.1,0-0.3,0-0.4c0-0.1,0.1-0.3,0.1-0.3c0,0,0-0.1,0.1-0.1
				s0.1,0,0.1,0.1c0.1,0.2,0.2,0.3,0.3,0.4c0.1,0.1,0.3,0.1,0.4,0.1c0.2,0,0.3,0,0.6,0c0.2,0,0.4,0,0.6-0.1s0.4-0.1,0.6-0.2
				c0.2-0.1,0.4-0.1,0.6-0.2c0.2-0.1,0.3-0.2,0.5-0.3c0.1-0.1,0.2-0.2,0.3-0.4c-0.1-0.5-0.3-0.9-0.4-1.3
				C139.6,17.9,139.5,17.5,139.4,17z"/>
			<path class="st0" d="M144.4,12.7c-0.1,0.2-0.2,0.4-0.4,0.5c-0.1,0.1-0.3,0.2-0.6,0.2c-0.2,0-0.4,0-0.5-0.1
				c-0.1-0.1-0.2-0.3-0.2-0.5c0-0.1,0-0.2,0-0.3c0-0.1,0-0.2,0.1-0.3c0-0.1,0.1-0.2,0.1-0.3c0.1-0.1,0.1-0.1,0.2-0.1
				c0.1,0,0.1,0,0,0.2c0,0.1,0,0.1-0.1,0.2c0,0.1,0,0.2,0,0.2s0,0.1,0,0.2c0,0.1,0,0.1,0.1,0.1c0.1,0.1,0.2,0.1,0.2,0.1
				c0.1,0,0.2,0,0.3-0.1s0.2-0.1,0.3-0.2c0.1-0.1,0.1-0.1,0.2-0.2c0.1-0.1,0.1-0.2,0.1-0.3c0-0.1,0-0.2,0.1-0.3c0,0,0-0.1,0-0.1
				c0,0,0-0.1,0-0.1c0,0,0-0.1,0.1-0.1c0,0,0.1,0,0.1-0.1c0,0,0,0,0,0s0,0.1,0,0.1s0,0.1,0,0.1c0,0,0,0.1,0,0.1c0,0.1,0,0.3,0.1,0.3
				s0.1,0.1,0.3,0.2c0.1,0,0.2,0,0.3,0c0.1,0,0.2-0.1,0.3-0.2c0,0,0,0,0-0.1s0-0.1,0-0.1c0,0,0-0.1,0-0.1s0-0.1,0-0.1
				c0,0,0-0.1,0-0.1c0-0.1,0-0.1,0.1-0.2c0-0.1,0.1-0.1,0.1-0.2c0-0.1,0.1-0.1,0.1-0.1c0.1,0,0.1,0,0.1,0.1s0.1,0.2,0.1,0.3
				c0,0.1,0,0.2,0,0.4c0,0.1,0,0.2,0,0.3c0,0.1-0.1,0.2-0.1,0.3c0,0.1-0.1,0.2-0.1,0.3s-0.1,0.1-0.2,0.2c-0.1,0.1-0.2,0.1-0.3,0.1
				c-0.2,0-0.4,0-0.5,0C144.6,12.9,144.5,12.8,144.4,12.7z"/>
			<path class="st0" d="M145.9,12.2c-0.3,0.1-0.6,0.2-0.9,0.4c-0.3,0.1-0.6,0.3-0.9,0.4c-0.3,0.1-0.6,0.2-0.8,0.4
				c-0.2,0.1-0.4,0.2-0.6,0.3c0,0-0.1,0-0.1,0c0,0,0,0,0-0.1c0,0,0-0.1,0.1-0.2c0-0.1,0.1-0.2,0.1-0.2c0-0.1,0.1-0.2,0.1-0.2
				c0-0.1,0.1-0.1,0.1-0.1c0-0.1,0.1-0.1,0.2-0.1l3-1.3c0.1,0,0.1,0,0.1,0.1c0,0,0,0.1-0.1,0.2s-0.1,0.1-0.1,0.2
				c0,0.1-0.1,0.1-0.1,0.2c0,0.1-0.1,0.1-0.1,0.2C146,12.1,145.9,12.2,145.9,12.2z"/>
			<path class="st0" d="M144.8,17.8C144.9,17.8,144.9,17.8,144.8,17.8c0.1-0.1,0.1,0,0.2,0c0.1,0.1,0.3,0.3,0.4,0.5
				c0.1,0.2,0.2,0.4,0.3,0.6c0.1,0.2,0.2,0.4,0.2,0.6s0.1,0.4,0.1,0.6c0,0.1,0,0.2,0,0.3s0,0.2-0.1,0.3c0,0.1-0.1,0.2-0.1,0.3
				c0,0.1-0.1,0.2-0.1,0.3c-0.1,0.2-0.3,0.3-0.5,0.5c-0.2,0.1-0.5,0.2-0.8,0.3c-0.3,0.1-0.5,0.1-0.8,0.1c-0.3,0-0.5,0-0.8,0h-0.1
				c-0.2,0-0.3-0.1-0.4-0.2c-0.1-0.1-0.1-0.3-0.1-0.4c0-0.2,0-0.3,0.1-0.4c0.1-0.1,0.2-0.2,0.4-0.2h0.1c0.1,0,0.3,0,0.5,0
				c0.2,0,0.5,0,0.7,0c0.2,0,0.5,0,0.7-0.1c0.2,0,0.4-0.1,0.6-0.2c0.1,0,0.1-0.1,0.1-0.2c-0.1-0.3-0.2-0.6-0.4-0.8s-0.4-0.5-0.6-0.7
				c0-0.2,0.1-0.4,0.1-0.6C144.7,18.2,144.8,18,144.8,17.8z M144.4,14.3l1,0.8c0,0,0,0.1,0,0.1l-0.7,0.8c0,0.1-0.1,0.1-0.1,0l-1-0.8
				c0,0,0-0.1,0-0.1l0.7-0.8C144.3,14.3,144.4,14.3,144.4,14.3z"/>
			<path d="M156.8,20.8c0.1-0.2,0.1-0.4,0.2-0.6c0.1-0.2,0.1-0.4,0.2-0.5c0-0.1,0-0.1,0.1-0.1s0.1,0,0.1,0.1
				c0.1,0.2,0.2,0.4,0.3,0.6c0.1,0.2,0.2,0.4,0.3,0.5c0.1,0.1,0.1,0.1,0.2,0.1c0.1,0,0.2,0,0.3,0.1c0.1,0,0.2,0,0.3,0
				c0.1,0,0.2,0,0.2,0h0.1c0.2,0,0.3,0.1,0.4,0.2c0.1,0.1,0.1,0.3,0.1,0.4c0,0.2,0,0.3-0.1,0.4c-0.1,0.1-0.2,0.2-0.4,0.2H159
				c-0.3,0-0.6,0-0.8,0c0,0.3,0,0.6,0.1,1c0,0.3,0,0.7-0.1,1c-0.1,0.5-0.3,1-0.6,1.4c-0.3,0.4-0.7,0.7-1.1,0.9
				c-0.4,0.2-0.9,0.4-1.4,0.5c-0.5,0.1-1,0.2-1.5,0.2c-0.4,0-0.8-0.1-1.2-0.2s-0.7-0.3-1-0.6c-0.3-0.3-0.5-0.6-0.6-0.9
				c-0.2-0.4-0.2-0.8-0.2-1.2c0-0.5,0.1-1,0.2-1.4s0.4-0.9,0.7-1.3c0,0,0.1-0.1,0.1-0.1s0,0,0.1,0s0,0.1,0,0.1s0,0.1,0,0.1
				c-0.3,0.5-0.4,1-0.5,1.5c-0.1,0.5,0,1,0.1,1.4c0.1,0.2,0.2,0.4,0.3,0.6c0.1,0.2,0.3,0.3,0.5,0.4s0.4,0.2,0.7,0.3s0.6,0.1,0.9,0.1
				c0.4,0,0.7,0,1.1-0.1s0.7-0.2,1.1-0.3c0.3-0.1,0.7-0.3,1-0.5c0.3-0.2,0.6-0.5,0.8-0.8c0-0.3,0-0.5,0-0.8c0-0.3-0.1-0.6-0.2-0.9
				c-0.1-0.3-0.2-0.6-0.3-0.9C157,21.4,156.9,21.1,156.8,20.8z M155.1,17.4l1,0.8c0,0,0,0.1,0,0.1l-0.7,0.8c0,0.1-0.1,0.1-0.1,0
				l-1-0.8c0,0,0-0.1,0-0.1l0.7-0.8C155,17.3,155.1,17.3,155.1,17.4z"/>
			<path d="M162,9.4c-0.3,0.1-0.6,0.2-0.9,0.4c-0.3,0.1-0.6,0.3-0.9,0.4c-0.3,0.1-0.6,0.2-0.8,0.4c-0.2,0.1-0.4,0.2-0.6,0.3
				c0,0-0.1,0-0.1,0c0,0,0,0,0-0.1c0,0,0-0.1,0.1-0.2c0-0.1,0.1-0.2,0.1-0.2c0-0.1,0.1-0.2,0.1-0.2c0-0.1,0.1-0.1,0.1-0.1
				c0-0.1,0.1-0.1,0.2-0.1l3-1.3c0.1,0,0.1,0,0.1,0.1c0,0,0,0.1-0.1,0.2s-0.1,0.1-0.1,0.2c0,0.1-0.1,0.1-0.1,0.2
				c0,0.1-0.1,0.1-0.1,0.2C162.1,9.3,162.1,9.4,162,9.4z"/>
			<path d="M160.9,11.4C160.9,11.4,160.9,11.3,160.9,11.4c0.1-0.1,0.1-0.1,0.1,0c0,0.1,0.1,0.3,0.1,0.4s0.1,0.3,0.2,0.4
				c0.1,0.1,0.2,0.2,0.3,0.4c0.1,0.1,0.2,0.2,0.3,0.3c-0.1,0.1-0.1,0.2-0.2,0.3c-0.1,0.1-0.1,0.2-0.1,0.3s-0.1,0.2-0.1,0.2
				c0,0.1,0,0.1,0,0.2c0.1,0.5,0.1,1,0.2,1.5c0.1,0.5,0.2,1,0.2,1.5c0.1,0.5,0.1,1,0.2,1.5c0.1,0.5,0.1,1,0.1,1.5c0,0.1,0,0.3,0,0.4
				c0,0.2-0.1,0.3-0.1,0.5c0,0.2-0.1,0.3-0.2,0.4s-0.1,0.2-0.2,0.3c-0.2,0.1-0.3,0.3-0.6,0.3c-0.2,0.1-0.5,0.1-0.7,0.2
				s-0.5,0.1-0.8,0.1s-0.5,0-0.7,0h-0.1c-0.2,0-0.3-0.1-0.4-0.2c-0.1-0.1-0.1-0.3-0.1-0.4c0-0.2,0-0.3,0.1-0.4
				c0.1-0.1,0.2-0.2,0.4-0.2h0.1c0.1,0,0.2,0,0.3,0s0.3,0,0.5,0c0.2,0,0.4,0,0.6,0c0.2,0,0.4,0,0.6-0.1c0.2,0,0.3-0.1,0.5-0.1
				c0.1-0.1,0.2-0.1,0.3-0.2c-0.1-1.1-0.2-2.2-0.4-3.3s-0.3-2.2-0.5-3.3c0-0.2-0.1-0.4-0.1-0.7c-0.1-0.2-0.1-0.4-0.3-0.6
				c0-0.1-0.1-0.1-0.1-0.1s0-0.1,0-0.1c0.1-0.2,0.2-0.3,0.3-0.5C160.8,11.7,160.8,11.5,160.9,11.4z"/>
		</g>
		<g>
			<path d="M173,19.1c0,0.1-0.1,0.2-0.2,0.3c-0.1,0.1-0.3,0.3-0.6,0.4c0,0.3,0,0.5-0.1,0.8c-0.1,0.2-0.1,0.3-0.2,0.3
				c-0.3-0.3-0.5-0.5-0.8-0.7c-0.3-0.2-0.6-0.3-0.9-0.3c0,0.3,0.2,0.6,0.4,0.9c0.2,0.2,0.4,0.5,0.7,0.7c0,0.1-0.2,0.2-0.7,0.3
				c-0.3,0.1-0.6,0.1-0.8,0.1c-0.3,1-0.8,1.9-1.4,2.8c-0.3,0.4-0.6,0.8-1,1.2c-0.6,0.6-1,0.8-1.3,0.8c-0.1,0-0.1,0-0.1-0.1
				c0-0.1,0.2-0.3,0.5-0.7c0.5-0.5,0.8-1,1.1-1.5c0.4-0.8,0.7-1.6,0.8-2.6c-0.3,0-0.5-0.1-0.6-0.1c-0.1,0-0.1-0.1-0.1-0.2
				c0.7-0.6,1-1.1,1-1.6c-0.3,0-0.6,0.1-0.8,0.3c-0.2,0.2-0.4,0.4-0.7,0.7c-0.1,0-0.2-0.1-0.3-0.4c-0.1-0.3-0.1-0.5-0.1-0.8
				c-0.3-0.2-0.5-0.3-0.5-0.3c-0.2-0.1-0.3-0.3-0.3-0.4c0-0.1,0-0.2,0.1-0.3c0.1-0.1,0.3-0.2,0.6-0.4c0-0.8,0.1-1.1,0.4-1.1
				c0.6,0.6,1.1,0.9,1.6,1c0-0.2-0.1-0.5-0.4-0.9c0,0-0.2-0.3-0.7-0.7c0-0.1,0.1-0.1,0.2-0.2c0.1-0.1,0.3-0.1,0.6-0.2
				c-0.1-0.8-0.4-1.5-0.9-2.4c-0.5-0.8-1-1.5-1.6-2c-0.1-0.1-0.1-0.2-0.1-0.2c0-0.1,0.1-0.1,0.2-0.1c0.2,0,0.5,0.2,0.9,0.5
				c1.3,0.9,2.2,2.3,2.9,4.1c1,0,1.5,0.1,1.5,0.4c-0.3,0.2-0.5,0.5-0.7,0.7c-0.2,0.3-0.3,0.6-0.3,0.9c0.2,0,0.5-0.1,0.7-0.3l0.8-0.7
				c0.2,0,0.3,0.3,0.4,1c0,0.1,0,0.1,0,0.2C172.7,18.7,173,18.9,173,19.1z M170.7,16.8c0,0-0.1-0.1-0.3-0.1c-0.2,0-0.3,0-0.4,0h-0.3
				c-0.1,0-0.1,0-0.2,0c-0.3-0.9-0.7-1.7-1.2-2.5c-0.6-0.9-1.3-1.6-2.1-2.1c0.5,0.5,1,1.1,1.4,1.8c0.5,0.9,0.8,1.8,1,2.7
				c-0.4,0-0.6,0.1-0.6,0.2c0.4,0.3,0.7,0.7,0.9,1.1c0.1-0.1,0.1-0.3,0.2-0.5c0,0,0-0.1,0.1-0.2c0-0.1,0.1-0.2,0.1-0.2
				c0.1,0,0.3,0.3,0.5,1c0.1-0.2,0.2-0.5,0.4-0.7C170.4,17.1,170.5,17,170.7,16.8z M168.3,19.7c-0.1,0-0.3-0.1-0.8-0.3
				c-0.3-0.1-0.4-0.2-0.4-0.2c0,0,0.2-0.1,0.7-0.3c0.1,0,0.3-0.1,0.5-0.2c-0.2-0.1-0.5-0.2-0.7-0.4c-0.1-0.1-0.3-0.2-0.5-0.4
				c-0.1,0-0.1,0.3-0.1,0.8c-0.4,0.2-0.6,0.4-0.7,0.5c0,0.1,0.2,0.2,0.7,0.4c0,0.6,0.1,0.9,0.2,0.9c0,0,0.1-0.1,0.4-0.4
				C167.9,19.9,168.1,19.7,168.3,19.7z M170.8,21.4c-0.3-0.3-0.6-0.6-0.8-1c0,0.1-0.1,0.3-0.2,0.5c0,0-0.1,0.1-0.2,0.3
				c-0.1,0.1-0.1,0.2-0.1,0.2c0,0-0.1-0.1-0.1-0.2c-0.1-0.2-0.1-0.2-0.1-0.2c0-0.1-0.1-0.2-0.2-0.5c-0.1,0.2-0.2,0.4-0.4,0.6
				c-0.1,0.1-0.3,0.3-0.4,0.5c0,0,0.2,0.1,0.5,0.2c-0.2,0.9-0.4,1.5-0.4,1.7c-0.3,1-0.9,2-1.7,2.9c1.3-0.9,2.3-2.4,3-4.6
				c0.5,0,0.7,0,0.6,0C170.6,21.6,170.8,21.6,170.8,21.4z M170.4,19.1c0-0.3-0.1-0.5-0.3-0.6c-0.2-0.2-0.4-0.2-0.7-0.2
				c-0.2,0-0.5,0.1-0.6,0.3c-0.2,0.2-0.3,0.4-0.3,0.6c0,0.3,0.1,0.5,0.3,0.6c0.2,0.2,0.4,0.3,0.7,0.3c0.3,0,0.5-0.1,0.7-0.3
				C170.3,19.6,170.4,19.4,170.4,19.1z M172.6,19.1c0-0.1-0.1-0.1-0.2-0.2c-0.1-0.1-0.3-0.1-0.5-0.2c0-0.3,0-0.5-0.1-0.6
				c0-0.2-0.1-0.3-0.1-0.3c0,0-0.2,0.1-0.4,0.4c-0.2,0.2-0.5,0.4-0.8,0.5c0.1,0.1,0.3,0.1,0.5,0.3c0,0,0.2,0.1,0.4,0.2
				c0.2,0.1,0.3,0.1,0.3,0.2c0,0.1-0.1,0.1-0.4,0.2c-0.5,0.1-0.7,0.2-0.8,0.2c0.3,0.1,0.5,0.2,0.7,0.4c0.1,0.1,0.3,0.2,0.5,0.4
				c0.1,0,0.1-0.1,0.1-0.2c0-0.1,0-0.3,0-0.6C172.3,19.4,172.6,19.2,172.6,19.1z"/>
		</g>
		<g>
			<path d="M45.5,19.4c0-0.1,0.1-0.2,0.2-0.3c0.1-0.1,0.3-0.3,0.6-0.4c0-0.3,0-0.5,0.1-0.8c0.1-0.2,0.1-0.3,0.2-0.3
				c0.3,0.3,0.5,0.5,0.8,0.7c0.3,0.2,0.6,0.3,0.9,0.3c0-0.3-0.2-0.6-0.4-0.9c-0.2-0.2-0.4-0.5-0.7-0.7c0-0.1,0.2-0.2,0.7-0.3
				c0.3-0.1,0.6-0.1,0.8-0.1c0.3-1,0.8-1.9,1.4-2.8c0.3-0.4,0.6-0.8,1-1.2c0.6-0.6,1-0.8,1.3-0.8c0.1,0,0.1,0,0.1,0.1
				c0,0.1-0.2,0.3-0.5,0.7c-0.5,0.5-0.8,1-1.1,1.5c-0.4,0.8-0.7,1.6-0.8,2.6c0.3,0,0.5,0.1,0.6,0.1c0.1,0,0.1,0.1,0.1,0.2
				c-0.7,0.6-1,1.1-1,1.6c0.3,0,0.6-0.1,0.8-0.3c0.2-0.2,0.4-0.4,0.7-0.7c0.1,0,0.2,0.1,0.3,0.4c0.1,0.3,0.1,0.5,0.1,0.8
				c0.3,0.2,0.5,0.3,0.5,0.3c0.2,0.1,0.3,0.3,0.3,0.4c0,0.1,0,0.2-0.1,0.3c-0.1,0.1-0.3,0.2-0.6,0.4c0,0.8-0.1,1.1-0.4,1.1
				c-0.6-0.6-1.1-0.9-1.6-1c0,0.2,0.1,0.5,0.4,0.9c0,0,0.2,0.3,0.7,0.7c0,0.1-0.1,0.1-0.2,0.2c-0.1,0.1-0.3,0.1-0.6,0.2
				c0.1,0.8,0.4,1.5,0.9,2.4c0.5,0.8,1,1.5,1.6,2c0.1,0.1,0.1,0.2,0.1,0.2c0,0.1-0.1,0.1-0.2,0.1c-0.2,0-0.5-0.2-0.9-0.5
				c-1.3-0.9-2.2-2.3-2.9-4.1c-1,0-1.5-0.1-1.5-0.4c0.3-0.2,0.5-0.5,0.7-0.7c0.2-0.3,0.3-0.6,0.3-0.9c-0.2,0-0.5,0.1-0.7,0.3
				l-0.8,0.7c-0.2,0-0.3-0.3-0.4-1c0-0.1,0-0.1,0-0.2C45.8,19.8,45.5,19.6,45.5,19.4z M47.8,21.7c0,0,0.1,0.1,0.3,0.1
				c0.2,0,0.3,0,0.4,0h0.3c0.1,0,0.1,0,0.2,0c0.3,0.9,0.7,1.7,1.2,2.5c0.6,0.9,1.3,1.6,2.1,2.1c-0.5-0.5-1-1.1-1.4-1.8
				c-0.5-0.9-0.8-1.8-1-2.7c0.4,0,0.6-0.1,0.6-0.2c-0.4-0.3-0.7-0.7-0.9-1.1c-0.1,0.1-0.1,0.3-0.2,0.5c0,0,0,0.1-0.1,0.2
				c0,0.1-0.1,0.2-0.1,0.2c-0.1,0-0.3-0.3-0.5-1c-0.1,0.2-0.2,0.5-0.4,0.7C48.1,21.4,48,21.5,47.8,21.7z M50.2,18.8
				c0.1,0,0.3,0.1,0.8,0.3c0.3,0.1,0.4,0.2,0.4,0.2c0,0-0.2,0.1-0.7,0.3c-0.1,0-0.3,0.1-0.5,0.2c0.2,0.1,0.5,0.2,0.7,0.4
				c0.1,0.1,0.3,0.2,0.5,0.4c0.1,0,0.1-0.3,0.1-0.8c0.4-0.2,0.6-0.4,0.7-0.5c0-0.1-0.2-0.2-0.7-0.4c0-0.6-0.1-0.9-0.2-0.9
				c0,0-0.1,0.1-0.4,0.4C50.6,18.6,50.4,18.7,50.2,18.8z M47.7,17c0.3,0.3,0.6,0.6,0.8,1c0-0.1,0.1-0.3,0.2-0.5c0,0,0.1-0.1,0.2-0.3
				c0.1-0.1,0.1-0.2,0.1-0.2c0,0,0.1,0.1,0.1,0.2c0.1,0.2,0.1,0.2,0.1,0.2c0,0.1,0.1,0.2,0.2,0.5c0.1-0.2,0.2-0.4,0.4-0.6
				c0.1-0.1,0.3-0.3,0.4-0.5c0,0-0.2-0.1-0.5-0.2c0.2-0.9,0.4-1.5,0.4-1.7c0.3-1,0.9-2,1.7-2.9c-1.3,0.9-2.3,2.4-3,4.6
				c-0.5,0-0.7,0-0.6,0C47.9,16.8,47.7,16.9,47.7,17z M48.1,19.3c0,0.3,0.1,0.5,0.3,0.6c0.2,0.2,0.4,0.2,0.7,0.2
				c0.2,0,0.5-0.1,0.6-0.3c0.2-0.2,0.3-0.4,0.3-0.6c0-0.3-0.1-0.5-0.3-0.6c-0.2-0.2-0.4-0.3-0.7-0.3c-0.3,0-0.5,0.1-0.7,0.3
				C48.2,18.8,48.1,19.1,48.1,19.3z M45.9,19.4c0,0.1,0.1,0.1,0.2,0.2s0.3,0.1,0.5,0.2c0,0.3,0,0.5,0.1,0.6c0,0.2,0.1,0.3,0.1,0.3
				c0,0,0.2-0.1,0.4-0.4c0.2-0.2,0.5-0.4,0.8-0.5c-0.1-0.1-0.3-0.1-0.5-0.3c0,0-0.2-0.1-0.4-0.2c-0.2-0.1-0.3-0.1-0.3-0.2
				c0-0.1,0.1-0.1,0.4-0.2c0.5-0.1,0.7-0.2,0.8-0.2c-0.3-0.1-0.5-0.2-0.7-0.4c-0.1-0.1-0.3-0.2-0.5-0.4c-0.1,0-0.1,0.1-0.1,0.2
				c0,0.1,0,0.3,0,0.6C46.2,19.1,45.9,19.3,45.9,19.4z"/>
		</g>
	</g>
	<rect class="st1" width="218.5" height="37.1"/>
</g>
</svg>
