<?xml version="1.0" encoding="utf-8"?>
<!-- Generator: Adobe Illustrator 19.2.0, SVG Export Plug-In . SVG Version: 6.00 Build 0)  -->
<svg version="1.1" id="Layer_1" xmlns="http://www.w3.org/2000/svg" xmlns:xlink="http://www.w3.org/1999/xlink" x="0px" y="0px"
	 viewBox="0 0 32.1 41.6" style="enable-background:new 0 0 32.1 41.6;" xml:space="preserve">
<style type="text/css">
	.st0{opacity:0.5;}
	.st1{fill:#FFFFFF;}
</style>
<g>
	<g class="st0">
		<path d="M32.1,4.5c0,1.9-0.2,3.5-0.6,4.8c-0.6-0.7-1.8-1.1-3.6-1.1c-1.5,0-3.1,0.4-4.7,1.3c-1.8,1-2.7,2.2-2.7,3.6
			c0,1.3,0.9,2.1,2.7,2.6c1.8,0.4,3.5,0.9,5.3,1.2c1.9,0.7,2.8,1.8,2.8,3.4c0,3.3-2.8,6-8.5,8.3c-4.5,1.8-8.7,2.7-12.6,2.7
			c-2.8,0-5.2-0.6-7-1.9c-2-1.4-3-3.5-3-6.2c0-3.7,1.8-8.1,5.3-13.3L6,10.5c-0.7,1.1-1.4,2.3-2,3.5c-0.7,1.4-1,2.7-1,3.9
			c0,2.7,1.4,4.7,4.3,6c2.1,1,4.7,1.5,7.8,1.5c1.8,0,4.2-0.3,7.2-1c3.7-0.8,5.6-1.7,5.6-2.7c0-0.3-0.3-0.5-0.9-0.6
			c-2.2-0.1-4.4-0.3-6.6-0.4c-2.8-0.4-4.2-1.7-4.2-4c0-1.8,1.2-4.3,3.7-7.5c2.3-2.9,4.3-5,6.1-6.1C27.1,2.4,28.3,2,29.5,2
			C31.2,2,32.1,2.8,32.1,4.5z M20,36.9l-2.4,3.9l-3.7-2.5L12,41.6l-4-3l2.4-3.9l3.6,2.8l2.2-3.6L20,36.9z"/>
	</g>
	<g>
		<g>
			<g>
				<path class="st1" d="M32.1,2.5c0,1.9-0.2,3.5-0.6,4.8c-0.6-0.7-1.8-1.1-3.6-1.1c-1.5,0-3.1,0.4-4.7,1.3c-1.8,1-2.7,2.2-2.7,3.6
					c0,1.3,0.9,2.1,2.7,2.6c1.8,0.4,3.5,0.9,5.3,1.2c1.9,0.7,2.8,1.8,2.8,3.4c0,3.3-2.8,6-8.5,8.3c-4.5,1.8-8.7,2.7-12.6,2.7
					c-2.8,0-5.2-0.6-7-1.9c-2-1.4-3-3.5-3-6.2c0-3.7,1.8-8.1,5.3-13.3L6,8.5C5.3,9.6,4.6,10.8,4,12c-0.7,1.4-1,2.7-1,3.9
					c0,2.7,1.4,4.7,4.3,6c2.1,1,4.7,1.5,7.8,1.5c1.8,0,4.2-0.3,7.2-1c3.7-0.8,5.6-1.7,5.6-2.7c0-0.3-0.3-0.5-0.9-0.6
					c-2.2-0.1-4.4-0.3-6.6-0.4c-2.8-0.4-4.2-1.7-4.2-4c0-1.8,1.2-4.3,3.7-7.5c2.3-2.9,4.3-5,6.1-6.1C27.1,0.4,28.3,0,29.5,0
					C31.2,0,32.1,0.8,32.1,2.5z M20,34.9l-2.4,3.9l-3.7-2.5L12,39.6l-4-3l2.4-3.9l3.6,2.8l2.2-3.6L20,34.9z"/>
			</g>
		</g>
	</g>
</g>
</svg>
