<?xml version="1.0" encoding="utf-8"?>
<!-- Generator: Adobe Illustrator 22.0.1, SVG Export Plug-In . SVG Version: 6.00 Build 0)  -->
<svg version="1.1" id="Layer_1" xmlns="http://www.w3.org/2000/svg" xmlns:xlink="http://www.w3.org/1999/xlink" x="0px" y="0px"
	 viewBox="0 0 86.2 86.2" style="enable-background:new 0 0 86.2 86.2;" xml:space="preserve">
<style type="text/css">
	.st0{fill:#235958;}
</style>
<polygon class="st0" points="32.4,66.3 37.3,70 40.2,65 35.4,61.5 "/>
<path class="st0" d="M64.1,45.3h-1h-1.9c-3.5,0-5.6-1.5-6.3-4.5H54c0.1,1.4,0,2.3-0.2,2.8s-0.8,1-1.6,1.4c-0.2,0.1-0.9,0.3-2.1,0.7
	C46.2,47.3,40.1,48,32,48c-4.4,0-8.2-0.6-11.4-1.8c-4.5-1.6-6.8-4.3-6.8-7.9c0-2,0.5-4.2,1.4-6.5l-1-0.5c-2.4,4.8-3.5,8.8-3.5,11.8
	c0,4.8,2.2,8.4,6.7,10.8c3.5,1.9,7.9,2.8,13.3,2.8c9.7,0,17.9-2.3,24.5-6.9c0.6,2.6,2.4,3.8,5.2,3.8h2.7h1h13.4v-8.3
	C77.5,45.3,64.1,45.3,64.1,45.3z"/>
</svg>
