<?xml version="1.0" encoding="utf-8"?>
<!-- Generator: Adobe Illustrator 22.0.1, SVG Export Plug-In . SVG Version: 6.00 Build 0)  -->
<svg version="1.1" id="Layer_1" xmlns="http://www.w3.org/2000/svg" xmlns:xlink="http://www.w3.org/1999/xlink" x="0px" y="0px"
	 viewBox="0 0 129.6 74.4" style="enable-background:new 0 0 129.6 74.4;" xml:space="preserve">
<style type="text/css">
	.st0{fill:#235958;}
	.st1{fill:#EF5316;}
</style>
<g>
	<path class="st0" d="M53.6,54.6h-3.8c-2.8,0-4.6-1.3-5.2-3.9c-6.6,4.6-14.8,6.9-24.5,6.9c-5.4,0-9.9-0.9-13.4-2.8
		C2.2,52.5,0,48.8,0,44c0-3.1,1.2-7,3.5-11.9l1,0.5c-1,2.4-1.4,4.6-1.4,6.6c0,3.6,2.3,6.3,6.8,8c3.2,1.2,7,1.8,11.4,1.8
		c8.1,0,14.2-0.7,18.1-2.2c1.2-0.4,1.9-0.7,2.1-0.7c0.9-0.4,1.4-0.9,1.6-1.4c0.2-0.5,0.3-1.5,0.2-2.9h0.8c0.8,3,2.9,4.5,6.4,4.5h3
		L53.6,54.6L53.6,54.6z M29.6,66l-2.9,5.1l-4.9-3.7l3-4.9L29.6,66z"/>
	<path class="st0" d="M84.4,8.5c-1.5,3.3-2.8,5.7-3.9,7.2c-0.5,0.8-1.5,1.5-3,2s-3.9,1.4-7.2,2.5c-9.4,2.9-14.2,4.9-14.2,6
		c0,0.6,1.3,1.7,4,3.1C67.4,33.1,71,38.2,71,44.7c0,4-1.5,6.7-4.4,8.3c-2.1,1.1-5.4,1.7-9.8,1.7h-4.4v-8.4H56
		c8.6,0,12.9-0.9,12.9-2.8c0-1.2-2.4-3.6-7.3-7.2c-1.1-0.8-2.2-1.2-3.3-1.2c-0.5,0-1.2-0.3-2.1-1c-0.8-0.6-1.4-1.2-1.6-1.8
		C54.2,31.4,54,30,54,28.1c0-3.2,0.3-5.3,0.8-6.1c1-1.7,5.5-4.2,13.6-7.6C75.1,11.6,80.4,9.6,84.4,8.5z"/>
	<path class="st1" d="M101.3,26.3c0,1.6-0.6,3-1.6,4.3c-1.1,1.2-2.5,1.9-4.1,1.9c-2.7,0-4-1.5-4-4.5c0-1.9,0.4-3.5,1.1-4.8
		c1-1.6,2.3-2.3,4.1-2.3c1.2-0.2,2.3,0.4,3.2,1.6C100.8,23.7,101.3,24.9,101.3,26.3z M99.2,27.2c0-0.6-0.5-1.4-1.6-2.1
		c-1.1-0.8-2-1.2-2.7-1.2c-0.6,0-1.1,0.3-1.6,0.8c-0.5,0.6-0.7,1.1-0.7,1.7c0,1.5,1.1,2.3,3.3,2.3C98.1,28.8,99.2,28.3,99.2,27.2z"
		/>
	<path class="st1" d="M109,54.6h-3.9c-0.7,5-1.9,9.2-3.6,12.6c-2.5,4.8-5.7,7.2-9.8,7.2c-2.9,0-6.5-1.4-10.7-4.3l0.6-1
		c1.7,0.3,2.9,0.5,3.7,0.5c2.8,0,5.8-1.2,8.8-3.5c1.3-1,2.8-2.8,4.6-5.6c1.3-2.1,2.6-4.3,3.9-6.4c-2.4-0.8-4.1-2.8-5.3-5.9l4.5-6.6
		c1.5,3,3.2,4.5,5.1,4.5h2.1L109,54.6L109,54.6z"/>
	<path class="st0" d="M129.6,44.6c0,1.8-0.4,3.4-1.2,4.7c-0.9,1.7-2.2,2.5-3.8,2.5c-1.7,0-4.6-1-8.7-3.1c-0.3,1-1,2.2-2.2,3.5
		c-1.2,1.5-2.2,2.3-3.1,2.3H108v-8.4h2.6c2.3,0,4-1.3,5.1-4c0.8-2,1.6-4,2.3-6c1.3-2.5,2.9-3.8,4.8-3.8c2,0,3.8,1.6,5.1,4.7
		C129.1,39.8,129.6,42.3,129.6,44.6z M125.1,43c0-1-0.4-1.8-1.2-2.5c-0.8-0.7-1.8-1-2.8-1c-1.2,0-2.1,0.8-2.9,2.3
		c2.8,1.6,4.7,2.4,5.7,2.4C124.7,44.1,125.1,43.8,125.1,43z"/>
</g>
<path class="st0" d="M66.4,3.5c0,2-0.6,3.3-1.8,4.1l-11,6.3c0-1.1,0.2-2,0.5-2.5s1-1,2-1.6L66.4,3.5z"/>
<path class="st0" d="M125.2,16.3c0,2-0.6,3.3-1.8,4.1l-11,6.3c0-1.1,0.2-2,0.5-2.5c0.3-0.5,1-1,2-1.6L125.2,16.3z"/>
</svg>
