<?xml version="1.0" encoding="utf-8"?>
<!-- Generator: Adobe Illustrator 23.0.2, SVG Export Plug-In . SVG Version: 6.00 Build 0)  -->
<svg version="1.1" id="Layer_1" xmlns="http://www.w3.org/2000/svg" xmlns:xlink="http://www.w3.org/1999/xlink" x="0px" y="0px"
	 viewBox="0 0 36.6 28.5" style="enable-background:new 0 0 36.6 28.5;" xml:space="preserve">
<g>
	<g>
		<path d="M13.9,21.2h-9c-0.3,0-0.5-0.2-0.5-0.5s0.2-0.5,0.5-0.5l0,0h9c0.8,0,1.6-0.5,1.6-0.5c1.2-0.8,1.4-1.6,1.4-1.6v-0.5
			c0-0.5,0-1.4,0-2.7c0-0.1,0.1-0.4,0.2-0.5c0.3-0.3,0.9,0,0.9,0.4v3.1c0.1,0.4,0.5,2.2,3.1,2.2h0.2c2.6,0,2.9-1.9,2.9-2.1v-3.2
			c0-0.1,0-0.2,0-0.2c0.1-0.2,0.3-0.3,0.5-0.3c0.3,0,0.5,0.2,0.5,0.5V18v0.1v0.1c0,0.3,0.4,1.9,2.9,1.9h0.2c2.4,0,2.8-1.6,2.8-2.1
			v-0.2c0,0,0-0.2,0-0.5c0-0.6,0-1.5,0-2.4c0-0.3,0.2-0.5,0.5-0.5l0,0c0.3,0,0.5,0.2,0.5,0.5c0,0.9,0,1.8,0,2.4c0,0.3,0,0.6,0,0.6
			v0.3c-0.2,1.5-1.3,3-3.8,3h-0.2c-2,0-3-0.8-3.5-1.6c-0.5,0.8-1.6,1.6-3.4,1.6H21c-2.1,0-3.1-1-3.6-1.8c-0.3,0.4-0.7,0.8-1.4,1.2
			C16,20.6,15.1,21.2,13.9,21.2z M24.8,14.8L24.8,14.8L24.8,14.8z"/>
	</g>
	<g>
		<path d="M25.7,11.2c0.4,0.2,0.9,0.1,1.2-0.3c0.2-0.4,0.1-0.9-0.3-1.2c-0.4-0.2-0.9-0.1-1.2,0.3C25.1,10.5,25.3,11,25.7,11.2"/>
		<path d="M22.8,11.2c0.4,0.2,0.9,0.1,1.2-0.3c0.2-0.4,0.1-0.9-0.3-1.2c-0.4-0.2-0.9-0.1-1.2,0.3C22.2,10.5,22.4,11,22.8,11.2"/>
		<circle cx="24.5" cy="8.2" r="0.9"/>
	</g>
</g>
</svg>
