<?xml version="1.0" encoding="utf-8"?>
<!-- Generator: Adobe Illustrator 19.2.0, SVG Export Plug-In . SVG Version: 6.00 Build 0)  -->
<svg version="1.1" id="Layer_1" xmlns="http://www.w3.org/2000/svg" xmlns:xlink="http://www.w3.org/1999/xlink" x="0px" y="0px"
	 viewBox="0 0 282.5 45.8" style="enable-background:new 0 0 282.5 45.8;" xml:space="preserve">
<style type="text/css">
	.st0{fill:#097B70;}
	.st1{fill:none;}
</style>
<g>
	<g>
		<path class="st0" d="M128.6,34.2h-1.6c-0.3,0-0.6-0.1-0.8-0.2c-0.5-0.2-0.9-0.7-1.2-1.3c-0.4-0.9-0.7-2.1-0.9-3.6
			c-0.6,0.7-1,1.2-1.3,1.5c-0.5,0.4-0.8,0.6-1.1,0.6c-0.2,0-0.4,0-0.6-0.1l-1.5-0.3c-0.6-0.1-1-0.2-1.2-0.3
			c-0.1-0.1-0.2-0.2-0.2-0.3c0-0.2,0.3-0.9,0.9-2.1s1-1.9,1.3-2.2c0.2-0.2,0.6-0.5,1.1-0.9c0.3-0.2,0.8-0.5,1.3-0.8l0.7-0.4
			c0-0.1,0-0.2-0.1-0.4c0-0.1,0-0.2,0-0.3c0-0.3,0.1-0.7,0.2-1.2s0.4-1.1,0.8-1.8l1.2,7.8c0.2,1.2,0.4,2.1,0.7,2.5
			c0.2,0.3,0.5,0.4,0.8,0.4h1.6V34.2z M125.7,16.7l-1.4,2.3l-1.8-1l-1,2l-2.3-1.3l1.3-2.2l1.8,0.9l1.1-1.9L125.7,16.7z M123.7,27.1
			l-0.2-1.5c-0.3,0.1-0.5,0.2-0.6,0.3c-0.5,0.2-0.8,0.5-1.1,0.7c-0.2,0.2-0.4,0.3-0.5,0.5c-0.2,0.2-0.2,0.3-0.2,0.4
			c0,0.1,0.1,0.2,0.4,0.3c0.3,0.1,0.6,0.1,0.9,0.1c0.2,0,0.4-0.1,0.6-0.2C123,27.6,123.3,27.4,123.7,27.1z"/>
		<path class="st0" d="M134.6,34.2h-6.9v-3.4h5.4l-1.5-8.5l-0.8-0.5c0-0.5,0.1-1,0.2-1.5c0.2-0.6,0.5-1.4,1-2.3l0.6,0.3
			c0,0,0,0.2,0,0.4c0,0.3,0.2,0.5,0.5,0.8c0.3,0.2,0.8,0.5,1.5,0.8c-0.1,0.5-0.2,1.1-0.3,1.6c-0.1,0.5-0.3,1-0.5,1.4l-0.4-0.2
			l1.4,7.7V34.2z"/>
		<path class="st0" d="M140.6,34.2h-1.7c-1,0-1.7-0.4-2.1-1.2c-0.5-0.9-0.7-2.4-0.7-4.5V25c0-0.8-0.1-1.4-0.3-1.9
			c-0.1-0.2-0.4-0.5-0.7-0.9l1.3-3.1c0.5,0.7,0.8,1.3,1,2c0.2,0.8,0.3,1.7,0.3,2.9v2.5c0,1.7,0.1,2.9,0.3,3.6
			c0.2,0.5,0.5,0.8,0.9,0.8h1.7V34.2z"/>
		<path class="st0" d="M153.9,34.2h-14.3v-3.4h8.9c-1-1-1.9-1.8-2.8-2.2c-0.8-0.4-1.5-0.6-2.2-0.6c-0.2,0-0.4,0-0.6,0
			c-0.2,0-0.4,0.1-0.8,0.1c0.5-1,1-1.8,1.5-2.3c0.6-0.5,1.2-0.7,1.9-0.7c0.5,0,1.1,0.1,1.6,0.4c0.5,0.3,1.1,0.7,1.7,1.3
			c0.5,0.5,1.2,1.2,2.1,2.2c0.6,0.7,1.1,1.2,1.4,1.4c0.3,0.2,0.8,0.4,1.5,0.5V34.2z"/>
		<path class="st0" d="M159.9,34.2h-6.9v-3.4h5.4l-1.5-8.5l-0.8-0.5c0-0.5,0.1-1,0.2-1.5c0.2-0.6,0.5-1.4,1-2.3l0.6,0.3
			c0,0,0,0.2,0,0.4c0,0.3,0.2,0.5,0.5,0.8c0.3,0.2,0.8,0.5,1.5,0.8c-0.1,0.5-0.2,1.1-0.3,1.6c-0.1,0.5-0.3,1-0.5,1.4l-0.4-0.2
			l1.4,7.7V34.2z"/>
		<path class="st0" d="M164.6,30.6c0,0.7-0.1,1.4-0.3,2c-0.2,0.6-0.5,1.4-1,2.5l-0.7-0.3c0.2-1.1,0.3-1.9,0.3-2.6
			c0-0.5,0-1.3-0.1-2.2c-0.1-1-0.2-2-0.3-2.9c-0.1-1-0.3-2.1-0.6-3.4c-0.1-0.5-0.1-0.8-0.1-1c0-0.3,0.1-0.7,0.4-1.3
			c0.3-0.6,0.6-1.4,1.1-2.3l0.7,4.4c0.3,1.7,0.5,3.1,0.6,4.4C164.5,28.8,164.6,29.7,164.6,30.6z"/>
	</g>
	<rect class="st1" width="282.5" height="45.8"/>
</g>
</svg>
