<?xml version="1.0" encoding="utf-8"?>
<!-- Generator: Adobe Illustrator 22.0.1, SVG Export Plug-In . SVG Version: 6.00 Build 0)  -->
<svg version="1.1" id="Layer_1" xmlns="http://www.w3.org/2000/svg" xmlns:xlink="http://www.w3.org/1999/xlink" x="0px" y="0px"
	 viewBox="0 0 94 59.7" style="enable-background:new 0 0 94 59.7;" xml:space="preserve">
<style type="text/css">
	.st0{display:none;enable-background:new    ;}
	.st1{display:inline;fill:#EF5316;}
	.st2{fill:none;}
	.st3{clip-path:url(#SVGID_2_);}
	.st4{fill:#235958;}
	.st5{fill:#EF5316;}
</style>
<text transform="matrix(1.0494 0 0 1 331.356 45.5967)" style="display:none;fill:#EF5316;enable-background:new    ; font-family:'AdobeArabic-Regular'; font-size:60px;">أأ</text>
<rect x="103.3" y="-21.2" class="st2" width="76.7" height="86"/>
<rect x="-3.7" y="-16.6" class="st2" width="104" height="94"/>
<rect x="-4" y="-22.2" class="st2" width="98" height="93"/>
<rect x="9" y="-15.2" class="st2" width="79" height="88"/>
<rect x="1" y="-18.2" class="st2" width="96" height="89"/>
<rect y="-8.2" class="st2" width="106" height="82"/>
<rect x="3" y="-10.2" class="st2" width="84" height="84"/>
<rect x="-4.3" y="-12.6" class="st2" width="116" height="81.3"/>
<rect x="-4" y="-12.6" class="st2" width="109.7" height="83.3"/>
<rect x="105.7" y="-15.2" class="st2" width="159.3" height="91.3"/>
<g>
	<g>
		<g>
			<defs>
				<rect id="SVGID_1_" x="-4" y="-11.2" width="105.3" height="82.7"/>
			</defs>
			<clipPath id="SVGID_2_">
				<use xlink:href="#SVGID_1_"  style="overflow:visible;"/>
			</clipPath>
			<g class="st3">
				<path class="st4" d="M-420.8,41.5h-4.8c-0.6,4.2-1.7,7.7-3.2,10.5c-2.2,4-5,6-8.6,6c-2.5,0-5.7-1.2-9.4-3.6l0.5-0.8
					c1.5,0.3,2.5,0.4,3.2,0.4c2.5,0,5-1,7.7-2.9c1.1-0.8,2.5-2.4,4-4.7c1.1-1.8,2.3-3.6,3.4-5.4c-2.1-0.7-3.6-2.3-4.6-4.9l3.9-5.5
					c0.9,1.8,1.9,3,3,3.4c0.7,0.3,2.3,0.4,4.8,0.4v7.1H-420.8z"/>
				<path class="st4" d="M-394.4,41.5h-4.7c-1.9,0-3.4-0.6-4.3-1.7c-0.3,2.6-1.5,4-3.7,4c-2,0-4.7-1.9-8.2-5.6
					c-0.3,0.5-1.2,1.4-2.5,2.5c-0.8,0.6-2.5,0.9-5.2,0.9v-7h2.4c1.7,0,3.1-0.8,4.3-2.3c0.9-1.4,1.8-2.9,2.7-4.3
					c1.1-1.5,2.5-2.3,4.1-2.3c0.8,0,1.8,0.7,3,2.2s2.2,2.9,3.2,4.4c1.4,1.6,2.8,2.3,4.3,2.3h4.7L-394.4,41.5L-394.4,41.5z
					 M-407.5,34.6c0-1-0.2-2.1-0.5-3.4c-0.4-1.6-1-2.4-1.7-2.4c-0.6,0-1.2,0.6-1.8,1.7c-0.4,0.8-0.8,1.7-1.2,2.5
					c2.1,2.1,3.6,3.1,4.4,3.1C-407.8,36.1-407.5,35.6-407.5,34.6z"/>
				<path class="st5" d="M-385.5,0.9c0,1.3-0.5,2.5-1.4,3.6c-1,1-2.2,1.5-3.6,1.5c-2.3,0-3.5-1.3-3.5-3.8c0-1.6,0.3-2.9,1-4
					c0.8-1.3,2-1.9,3.6-1.9c1.1,0,2.1,0.5,2.9,1.5C-385.8-1.3-385.5-0.2-385.5,0.9z M-387.3,1.7c0-0.5-0.5-1.1-1.4-1.8
					c-0.9-0.6-1.7-1-2.3-1c-0.5,0-1,0.2-1.4,0.7s-0.6,1-0.6,1.4c0,1.3,1,1.9,2.9,1.9C-388.2,3-387.3,2.5-387.3,1.7z"/>
				<path class="st5" d="M-380.5,41.5h-4.6c-2.2,0-3.7-1.3-4.7-3.8c-1.3,2.5-2.8,3.8-4.6,3.8h-2.3v-7c2.7,0,3.8,0,3.2,0
					c1.5,0,2.5-0.3,3-0.8c0.1-0.1,0.2-1.2,0.2-3.2l0.4,0.1c0.3,2,1.5,3.2,3.7,3.6c0.7,0.2,2.6,0.3,5.8,0.3v7H-380.5z M-383.3,23.8
					l-2.5,4.2l-4.1-2.8l-2,3.6l-4.4-3.2l2.6-4.2l3.9,3l2.4-3.8L-383.3,23.8z M-387.9,17.4l-2.5,4.3l-4.3-3.1l2.7-4.2L-387.9,17.4z"
					/>
				<path class="st4" d="M-363.8,33.2c0,1.5-0.4,2.8-1.1,4c-0.8,1.4-1.9,2.1-3.3,2.1c-1.5,0-4-0.8-7.6-2.5c-0.3,0.9-0.9,1.8-1.9,3
					c-1,1.3-1.9,1.9-2.7,1.9h-2.3v-7c2.1,0,3.5-0.1,4.2-0.4c1-0.4,1.9-1.4,2.6-3c0.7-1.6,1.3-3.2,2-4.9c1.2-2.1,2.6-3.2,4.2-3.2
					c1.8,0,3.3,1.3,4.5,4C-364.3,29.2-363.8,31.2-363.8,33.2z M-367.8,31.8c0-0.8-0.4-1.5-1.1-2.1s-1.5-0.9-2.4-0.9
					c-1,0-1.9,0.6-2.5,1.9c2.4,1.3,4.1,2,5,2C-368.1,32.8-367.8,32.5-367.8,31.8z"/>
				<path class="st4" d="M-320.5,39.9c0,3.8-1,7.3-2.9,10.6c-2.3,4-5.3,6-8.9,6c-2.2,0-5-1.1-8.4-3.3l0.4-0.9c1,0.2,1.9,0.3,2.5,0.3
					c3,0,6.2-1.4,9.7-4.1c3.5-2.7,5.2-5.4,5.2-8.1c0-1-0.7-2.4-2.2-4.4c-1.1-1.3-2.2-2.6-3.2-3.9c0.7-3,1.2-5.4,1.6-7.2
					C-322.5,29.4-320.5,34.4-320.5,39.9z"/>
				<path class="st4" d="M-301.8,41.5h-4.7c-2.2,0-3.8-0.9-4.9-2.7c-0.8-1.4-1.4-4.1-1.5-8.1c0-1.7-0.4-4.7-0.9-9.1
					c-0.6-4-0.8-7-0.8-9.1c0-0.6,0-1.1,0.1-1.4c0-0.3,1.2-1.4,3.5-3.2c0,0.2,0.3,3.8,0.9,10.7c0.6,6.3,0.8,10.1,0.8,11.4
					c0,1.5,0.3,2.6,0.8,3.4c0.5,0.7,1.6,1.1,3.1,1.1c-2.4,0-1.2-0.1,3.6-0.1V41.5L-301.8,41.5z"/>
				<path class="st4" d="M-275.6,41.5h-4.7c-1.9,0-3.4-0.6-4.3-1.7c-0.3,2.6-1.5,4-3.7,4c-2,0-4.7-1.9-8.2-5.6
					c-0.3,0.5-1.2,1.4-2.5,2.5c-0.8,0.6-2.5,0.9-5.2,0.9v-7h2.4c1.7,0,3.1-0.8,4.3-2.3c0.9-1.4,1.8-2.9,2.7-4.3
					c1.1-1.5,2.5-2.3,4.1-2.3c0.8,0,1.8,0.7,3,2.2s2.2,2.9,3.2,4.4c1.4,1.6,2.8,2.3,4.3,2.3h4.7L-275.6,41.5L-275.6,41.5z
					 M-288.7,34.6c0-1-0.2-2.1-0.5-3.4c-0.4-1.6-1-2.4-1.7-2.4c-0.6,0-1.2,0.6-1.8,1.7c-0.4,0.8-0.8,1.7-1.2,2.5
					c2.1,2.1,3.6,3.1,4.4,3.1C-288.9,36.1-288.7,35.6-288.7,34.6z"/>
				<path class="st5" d="M-266,63.4c0,1.5-0.5,2.6-1.6,3.2l-9.6,5.3c0-1,0.1-1.7,0.4-2c0.3-0.4,0.9-0.8,1.8-1.4L-266,63.4z"/>
				<path class="st5" d="M-267.5,31c0,2.9-0.6,5.2-1.8,7.1c-1.4,2.2-3.5,3.4-6.3,3.4h-2.3v-7c4.9,0,7.3-0.5,7.3-1.6
					c0-0.2-0.4-0.8-1.2-1.7c-0.8-0.9-1.2-1.6-1.2-2.2c0-0.8,1-3.1,3.1-6.9C-268.3,25.6-267.5,28.5-267.5,31z M-264.4,16.8l-2.7,4.1
					l-4.1-2.7l-2,3.5l-4.4-3.1l2.7-4.2l3.9,2.9l2.5-3.8L-264.4,16.8z M-269.3,10.4l-2.5,4.2l-4.3-3.1l2.6-4.2L-269.3,10.4z"/>
				<path class="st4" d="M-215.9,30c0,4-1.4,7.2-4.2,9.6c-2.8,2.4-6.3,3.7-10.5,3.7c-3,0-5.4-0.7-7.3-2.1c-2.1-1.5-3.2-3.7-3.2-6.4
					c0-3.4,1.3-7.6,3.9-12.7l0.9,0.6c-1.2,2.3-1.8,4.4-1.8,6.1c0,2.8,0.8,4.8,2.5,5.8c1.3,0.9,3.6,1.3,6.8,1.3
					c2.3,0,4.4-0.4,6.5-1.2c2.8-1.1,4.2-2.5,4.2-4.3c0-0.8-0.8-2.4-2.3-4.8c-1.3-2.1-2.3-3.7-3.1-4.7l2.6-6.2
					C-217.5,18.9-215.9,24-215.9,30z M-227.3,11.9l-2.6,4.1l-4.3-3l2.7-4.2L-227.3,11.9z"/>
				<path class="st4" d="M-197,41.5h-4.7c-2.2,0-3.8-0.9-4.9-2.7c-0.8-1.4-1.4-4.1-1.5-8.1c0-1.7-0.4-4.7-0.9-9.1
					c-0.6-4-0.8-7-0.8-9.1c0-0.6,0-1.1,0.1-1.4c0-0.3,1.2-1.4,3.5-3.2c0,0.2,0.3,3.8,0.9,10.7c0.6,6.3,0.8,10.1,0.8,11.4
					c0,1.5,0.3,2.6,0.8,3.4c0.5,0.7,1.6,1.1,3.1,1.1c-2.4,0-1.2-0.1,3.6-0.1L-197,41.5L-197,41.5z"/>
				<path class="st4" d="M-183.1,41.5h-4.6c-2.2,0-3.7-1.3-4.7-3.8c-1.3,2.5-2.8,3.8-4.6,3.8h-2.3v-7c2.7,0,3.8,0,3.2,0
					c1.5,0,2.5-0.3,3-0.8c0.1-0.1,0.2-1.2,0.2-3.2l0.4,0.1c0.3,2,1.5,3.2,3.7,3.7c0.7,0.1,2.6,0.2,5.8,0.2L-183.1,41.5L-183.1,41.5z
					 M-188.3,46.9l-2.6,4.2l-4.3-3l2.7-4.2L-188.3,46.9z"/>
				<path class="st4" d="M-162.9,41.5h-4.7c-0.9,0-2.1-0.7-3.7-2.1c-0.1,0-1.2-1.1-3.3-3.3c-3.8,3.6-6.7,5.4-8.4,5.4h-2.3v-7
					c2.2,0,3.5,0,3.9-0.1c0.9-0.2,2.1-0.7,3.4-1.6c-1.5-2.2-3.5-3.3-5.8-3.3c0.2-2.7,1-4.7,2.5-5.8c1.4-1,3.5-1.5,6.5-1.5
					c2.2,0,4,0.5,5.4,1.5c1.6,1.2,2.5,2.8,2.5,4.8c0,2.1-1.3,3.8-3.9,5c1.2,0.6,2.5,0.9,3.7,0.9c-0.6,0,0.8,0,4.2,0L-162.9,41.5
					L-162.9,41.5z"/>
				<path class="st5" d="M-153.3-5.3l-0.3,3.1c-0.6-0.3-1.4-0.8-2.6-1.6c-2.5,3-4.7,4.5-6.5,4.5c-0.4,0-1.1-0.1-2-0.3
					c2.1-1.1,4.4-2.7,7-4.9c-1.4-1.1-2-2-2-2.9c0-1.1,0.4-2.2,1.2-3.5s1.7-1.9,2.8-1.9c1.4,0,2.1,0.9,2.1,2.8c0,1.3-0.3,2.5-1,3.8
					C-154.1-5.9-153.7-5.6-153.3-5.3z M-155.6-8.1c0-0.4-0.2-0.8-0.5-1.3c-0.4-0.5-0.7-0.7-1.2-0.7s-0.7,0.3-0.7,0.9
					c0,0.4,0.8,1.1,2.3,2.1C-155.6-7.7-155.6-8-155.6-8.1z"/>
				<path class="st5" d="M-154.9,31c0,2.9-0.6,5.2-1.8,7.1c-1.4,2.2-3.5,3.4-6.3,3.4h-2.3v-7c4.9,0,7.3-0.5,7.3-1.6
					c0-0.2-0.4-0.8-1.2-1.7c-0.8-0.9-1.2-1.6-1.2-2.2c0-0.8,1-3.1,3.1-6.9C-155.7,25.6-154.9,28.5-154.9,31z M-151.9,16.8l-2.7,4.1
					l-4.1-2.7l-2,3.5l-4.4-3.1l2.7-4.2l3.9,2.9l2.5-3.8L-151.9,16.8z M-156.7,10.4l-2.5,4.2l-4.3-3.1l2.6-4.2L-156.7,10.4z"/>
				<path class="st4" d="M-68.8,41.5h-4.7c-2.5,0-4-1.1-4.6-3.2c-5.8,3.8-13,5.8-21.5,5.8c-4.7,0-8.6-0.8-11.7-2.3
					c-3.9-2-5.8-5-5.8-9.1c0-2.6,1-5.9,3.1-9.9l0.9,0.4c-0.8,2-1.3,3.8-1.3,5.5c0,3,2,5.3,6,6.6c2.8,1,6.1,1.5,10,1.5
					c7.1,0,12.4-0.6,15.8-1.8c1.1-0.4,1.7-0.6,1.8-0.6c0.8-0.4,1.2-0.7,1.4-1.2c0.2-0.4,0.3-1.2,0.2-2.4h0.7c0.7,2.6,2.7,3.8,6,3.8
					c0.4,0,1,0,1.8-0.1c0.8,0,1.4,0,1.8,0L-68.8,41.5L-68.8,41.5z M-91.2,51l-2.5,4.2l-4.3-3.1l2.7-4.1L-91.2,51z"/>
				<path class="st4" d="M-52.2,41.5h-4.6c-3.1,0-5.2-2.5-6.2-7.5c-1.5,5-3.4,7.5-5.8,7.5h-2.3v-7h2.3c3,0,4.5-2.7,4.5-8.1
					c0-2.2-0.2-5.5-0.6-9.9s-0.6-7.7-0.6-9.9c0-0.1,1.1-1,3.4-2.9c0.5,3.1,0.7,5.7,0.7,7.9c0,4.7,0.2,8.9,0.6,12.6
					c0.8,6.8,2.1,10.2,3.9,10.2h4.6L-52.2,41.5L-52.2,41.5z"/>
				<path class="st4" d="M-32,41.5h-4.7c-0.9,0-2.1-0.7-3.7-2.1c-0.1,0-1.2-1.1-3.3-3.3c-3.8,3.6-6.7,5.4-8.4,5.4h-2.3v-7
					c2.2,0,3.5,0,3.9-0.1c0.9-0.2,2.1-0.7,3.4-1.6c-1.5-2.2-3.5-3.3-5.8-3.3c0.2-2.7,1-4.7,2.5-5.8c1.4-1,3.5-1.5,6.5-1.5
					c2.2,0,4,0.5,5.4,1.5c1.6,1.2,2.5,2.8,2.5,4.8c0,2.1-1.3,3.8-3.9,5c1.2,0.6,2.5,0.9,3.7,0.9c-0.6,0,0.8,0,4.2,0L-32,41.5
					L-32,41.5z"/>
				<path class="st5" d="M-22.5-7.9c0,1.6-0.5,2.7-1.6,3.4l-9.6,5.2c0-0.9,0.1-1.6,0.4-2c0.3-0.4,0.9-0.8,1.8-1.3L-22.5-7.9z"/>
				<path class="st5" d="M-24,31c0,2.9-0.6,5.2-1.8,7.1c-1.4,2.2-3.5,3.4-6.3,3.4h-2.3v-7c4.9,0,7.3-0.5,7.3-1.6
					c0-0.2-0.4-0.8-1.2-1.7c-0.8-0.9-1.2-1.6-1.2-2.2c0-0.8,1-3.1,3.1-6.9C-24.8,25.6-24,28.5-24,31z M-20.9,16.8l-2.7,4.1l-4.1-2.7
					l-2,3.5l-4.4-3.1l2.7-4.2l3.9,2.9l2.5-3.8L-20.9,16.8z M-25.8,10.4l-2.5,4.2l-4.3-3.1l2.6-4.2L-25.8,10.4z"/>
				<path class="st4" d="M26.2,41.5h-4.8c-0.6,4.2-1.7,7.7-3.2,10.5c-2.2,4-5,6-8.6,6c-2.5,0-5.7-1.2-9.4-3.6l0.5-0.8
					C2.3,54,3.3,54.1,4,54.1c2.5,0,5-1,7.7-2.9c1.1-0.8,2.5-2.4,4-4.7c1.1-1.8,2.3-3.6,3.4-5.4c-2.1-0.7-3.6-2.3-4.6-4.9l3.9-5.5
					c0.9,1.8,1.9,3,3,3.4c0.7,0.3,2.3,0.4,4.8,0.4V41.5z"/>
				<path class="st4" d="M62.8,41.5h-7.7c-6,0-8.9-1.7-8.9-5c0-1.1,0.4-2.8,1.3-5.1c-3,0.4-5.5,1.2-7.5,2.1c-1.2,0.6-3.3,2-6.3,4.2
					c-1,0.7-2.5,1.7-4.5,3c-1,0.5-2.7,0.7-5.2,0.7v-7c3.1,0,5.6-0.3,7.5-0.8c1.6-0.4,4-1.4,7-2.9c-2.7-1.3-4.8-1.9-6.3-1.9
					c-0.9,0-1.7,0.4-2.2,1.2h-4.4c0.7-2.6,1.4-4.4,2.1-5.6c1.2-1.7,3-2.6,5.2-2.6c1.4,0,3.5,0.5,6.2,1.5c4.4,1.6,8.2,2.4,11.6,2.4
					c0.6,0,1.4,0,2.5-0.1s1.9-0.1,2.5-0.1L54.8,31c-2.2,0.2-3.8,0.3-4.9,0.5c0.7,1.3,1.5,2.2,2.5,2.6c0.8,0.3,2.1,0.5,3.8,0.5h6.6
					C62.8,34.5,62.8,41.5,62.8,41.5z M44.4,44.3l-2.5,4.2l-4.3-3.2l2.7-4.2L44.4,44.3z"/>
				<path class="st5" d="M67.7,8.2c0,1.3-0.5,2.5-1.4,3.6c-1,1-2.2,1.5-3.6,1.5c-2.3,0-3.5-1.3-3.5-3.8c0-1.6,0.3-2.9,1-4
					c0.8-1.3,2-1.9,3.6-1.9c1.1,0,2.1,0.5,2.9,1.5C67.3,6,67.7,7.1,67.7,8.2z M65.9,9c0-0.5-0.5-1.1-1.4-1.8c-0.9-0.6-1.7-1-2.3-1
					c-0.5,0-1,0.2-1.4,0.7s-0.6,1-0.6,1.4c0,1.3,1,1.9,2.9,1.9C64.9,10.3,65.9,9.8,65.9,9z"/>
				<path class="st5" d="M76.7,41.5H72c-2.2,0-3.7-1.3-4.7-3.8c-1.3,2.5-2.8,3.8-4.6,3.8h-2.3v-7c2.7,0,3.8,0,3.2,0
					c1.5,0,2.5-0.3,3-0.8c0.1-0.1,0.2-1.2,0.2-3.2l0.4,0.1c0.3,2,1.5,3.2,3.7,3.6c0.7,0.2,2.6,0.3,5.8,0.3
					C76.7,34.5,76.7,41.5,76.7,41.5z M73.9,23.8L71.4,28l-4.1-2.8l-2,3.6l-4.4-3.2l2.6-4.2l3.9,3l2.4-3.8L73.9,23.8z"/>
				<path class="st4" d="M93.3,33.2c0,1.5-0.4,2.8-1.1,4c-0.8,1.4-1.9,2.1-3.3,2.1c-1.5,0-4-0.8-7.6-2.5c-0.3,0.9-0.9,1.8-1.9,3
					c-1,1.3-1.9,1.9-2.7,1.9h-2.3v-7c2.1,0,3.5-0.1,4.2-0.4c1-0.4,1.9-1.4,2.6-3c0.7-1.6,1.3-3.2,2-4.9c1.2-2.1,2.6-3.2,4.2-3.2
					c1.8,0,3.3,1.3,4.5,4C92.8,29.2,93.3,31.2,93.3,33.2z M89.4,31.8c0-0.8-0.4-1.5-1.1-2.1s-1.5-0.9-2.4-0.9c-1,0-1.9,0.6-2.5,1.9
					c2.4,1.3,4.1,2,5,2C89,32.8,89.4,32.5,89.4,31.8z"/>
				<path class="st4" d="M122.1,32.1h-4.4c0.7-2.6,1.4-4.5,2.1-5.6c1.2-1.8,3-2.7,5.2-2.7c1.7,0,3.9,0.2,6.6,0.7
					c3.5,0.6,5.7,0.9,6.6,1c1.5,0,3.7,0.1,6.5,0.3l-1.1,5.4c-2.6,0-5.1,0.2-7.3,0.6c-4.1,0.7-7.7,2.3-10.7,4.8
					c-3.4,2.8-5.1,6.1-5.1,9.9c0,4.5,2.8,7.9,8.3,10.1c4,1.6,8.8,2.3,14.4,2.3c1.5,0,4.9-0.2,10.4-0.6l0.1,0.8l-13.9,6.4h-1.7
					c-6.1,0-10.9-1.1-14.4-3.2c-4.3-2.6-6.5-6.6-6.5-12.1c0-7.5,4-13.7,11.9-18.6c-2.5-0.5-4.2-0.8-5-0.8c-0.7,0-1.2,0.1-1.4,0.2
					C122.6,31.2,122.4,31.5,122.1,32.1z"/>
				<path class="st4" d="M170.5,41.5h-4.7c-2.2,0-3.8-0.9-4.9-2.7c-0.8-1.4-1.4-4.1-1.5-8.1c0-1.7-0.4-4.7-0.9-9.1
					c-0.6-4-0.8-7-0.8-9.1c0-0.6,0-1.1,0.1-1.4c0-0.3,1.2-1.4,3.5-3.2c0,0.2,0.3,3.8,0.9,10.7c0.6,6.3,0.8,10.1,0.8,11.4
					c0,1.5,0.3,2.6,0.8,3.4c0.5,0.7,1.6,1.1,3.1,1.1c-2.4,0-1.2-0.1,3.6-0.1L170.5,41.5L170.5,41.5z"/>
				<path class="st4" d="M180.9,41.5c-3,0-4.9-1.3-5.9-3.9c-1.2,2.6-2.7,3.9-4.6,3.9h-2.3v-7c3.5,0,5.6-0.3,6.3-0.8
					c0.3-0.2,0.5-1.2,0.6-3h0.4c0.5,1.4,1.3,2.4,2.3,2.9c0.8,0.4,2.1,0.5,3.9,0.5v7.3C181.4,41.5,180.9,41.5,180.9,41.5z"/>
				<path class="st4" d="M180.9,34.2h2.3c1.9,0,3.1-0.4,3.4-1.1c0.1-0.2,0.3-1.3,0.5-3.5l0.8,0.1c0,0.9,0.9,2,2.6,3.2
					c0.6,0.4,1.7,0.6,3.4,0.6c1.3,0,2.2-0.4,2.7-1.3c0.3-0.5,0.4-1.5,0.5-3h0.8c0.4,1.7,1.2,3.1,2.5,4.2c0.8,0.7,2.1,1.1,3.8,1.2
					c-1.5,0-0.1-0.1,4.2-0.1v7h-4.6c-1.7,0-3.1-0.7-4.2-2.1c-0.7-0.9-1.3-2.3-2-4.4c-1.3,3.8-3.1,5.6-5.4,5.6
					c-1.9,0-3.3-1.2-4.2-3.7c-1.3,3-3.7,4.5-7.2,4.5L180.9,34.2L180.9,34.2z"/>
				<path class="st4" d="M234.7,41.5H230c-1.9,0-3.4-0.6-4.3-1.7c-0.3,2.6-1.5,4-3.7,4c-2,0-4.7-1.9-8.2-5.6
					c-0.3,0.5-1.1,1.4-2.5,2.5c-0.8,0.6-2.5,0.9-5.2,0.9v-7h2.4c1.7,0,3.1-0.8,4.3-2.3c0.9-1.4,1.8-2.9,2.7-4.3
					c1.1-1.5,2.5-2.3,4.1-2.3c0.8,0,1.8,0.7,3,2.2s2.2,2.9,3.2,4.4c1.4,1.6,2.8,2.3,4.3,2.3h4.7L234.7,41.5L234.7,41.5z M221.6,34.6
					c0-1-0.2-2.1-0.5-3.4c-0.4-1.6-1-2.4-1.7-2.4c-0.6,0-1.2,0.6-1.8,1.7c-0.4,0.8-0.8,1.7-1.2,2.5c2.1,2.1,3.6,3.1,4.4,3.1
					C221.3,36.1,221.6,35.6,221.6,34.6z"/>
				<path class="st4" d="M232.3,41.5v-7h14.1v7H232.3z"/>
				<path class="st5" d="M255.1,63.4c0,1.5-0.5,2.6-1.6,3.2l-9.6,5.3c0-1,0.1-1.7,0.4-2c0.3-0.4,0.9-0.8,1.8-1.4L255.1,63.4z"/>
				<path class="st5" d="M253.6,31c0,2.9-0.6,5.2-1.8,7.1c-1.4,2.2-3.5,3.4-6.3,3.4h-2.3v-7c4.9,0,7.3-0.5,7.3-1.6
					c0-0.2-0.4-0.8-1.2-1.7c-0.8-0.9-1.2-1.6-1.2-2.2c0-0.8,1-3.1,3.1-6.9C252.8,25.6,253.6,28.5,253.6,31z M256.6,16.8l-2.7,4.1
					l-4.1-2.7l-2,3.5l-4.4-3.1l2.7-4.2l3.9,2.9l2.5-3.8L256.6,16.8z"/>
				<path class="st4" d="M283.4,32.1H279c0.7-2.6,1.4-4.5,2.1-5.6c1.2-1.8,3-2.7,5.2-2.7c1.7,0,3.9,0.2,6.6,0.7
					c3.5,0.6,5.7,0.9,6.6,1c1.5,0,3.7,0.1,6.5,0.3l-1.1,5.4c-2.6,0-5.1,0.2-7.3,0.6c-4.1,0.7-7.7,2.3-10.7,4.8
					c-3.4,2.8-5.1,6.1-5.1,9.9c0,4.5,2.8,7.9,8.3,10.1c4,1.6,8.8,2.3,14.4,2.3c1.5,0,4.9-0.2,10.4-0.6l0.1,0.8l-13.9,6.4h-1.7
					c-6.1,0-10.9-1.1-14.4-3.2c-4.3-2.6-6.5-6.6-6.5-12.1c0-7.5,4-13.7,11.9-18.6c-2.5-0.5-4.2-0.8-5-0.8c-0.7,0-1.2,0.1-1.4,0.2
					C283.9,31.2,283.6,31.5,283.4,32.1z"/>
				<path class="st4" d="M331.7,41.5H327c-2.2,0-3.8-0.9-4.9-2.7c-0.8-1.4-1.4-4.1-1.5-8.1c0-1.7-0.4-4.7-0.9-9.1
					c-0.6-4-0.8-7-0.8-9.1c0-0.6,0-1.1,0.1-1.4s1.2-1.4,3.5-3.2c0,0.2,0.3,3.8,0.9,10.7c0.6,6.3,0.8,10.1,0.8,11.4
					c0,1.5,0.3,2.6,0.8,3.4c0.5,0.7,1.6,1.1,3.1,1.1c-2.4,0-1.2-0.1,3.6-0.1V41.5L331.7,41.5z"/>
				<path class="st4" d="M351.9,41.5h-4.7c-3.5,0-6.1-0.8-7.9-2.5c-3.1,1.7-5.6,2.5-7.6,2.5h-2.3v-7c2.3,0,3.8-0.3,4.8-0.8
					c-0.5-0.5-0.8-1-0.8-1.6c0-2.1,0.7-4.4,2.2-6.9c1.4-2.4,3-4.2,4.8-5.6c1.2-0.9,2.2-1.3,3-1.3c1.5,0,2.6,1.1,3.3,3.4
					c0.5,1.6,0.8,3.3,0.8,5.2c0,2.6-0.8,4.9-2.5,6.8c0.8,0.6,2,1,3.4,1c-2.2,0-1-0.1,3.6-0.1L351.9,41.5L351.9,41.5z M344.9,28.9
					c0-1-0.4-1.9-1.2-2.6c-0.8-0.7-1.8-1-2.9-1c-0.9,0-1.8,0.2-2.6,0.7c-1,0.5-1.5,1.2-1.5,2c0,1,1.2,2.3,3.5,4
					C343.3,31.2,344.9,30.2,344.9,28.9z M346,10.4l-2.6,4.2l-4.3-3l2.7-4.2L346,10.4z"/>
				<path class="st5" d="M361.5-0.6l-0.3,3.1c-0.6-0.3-1.4-0.8-2.6-1.6c-2.5,3-4.7,4.5-6.5,4.5c-0.4,0-1.1-0.1-2-0.3
					c2.1-1.1,4.4-2.7,7-4.9c-1.4-1.1-2-2-2-2.9c0-1.1,0.4-2.2,1.2-3.5c0.8-1.3,1.7-1.9,2.8-1.9c1.4,0,2.1,0.9,2.1,2.7
					c0,1.3-0.3,2.5-1,3.8C360.7-1.2,361.1-0.8,361.5-0.6z M359.2-3.4c0-0.4-0.2-0.8-0.5-1.3c-0.4-0.5-0.7-0.7-1.2-0.7
					s-0.7,0.3-0.7,0.9c0,0.4,0.8,1.1,2.3,2.1C359.2-2.9,359.2-3.2,359.2-3.4z"/>
				<path class="st5" d="M359.9,31c0,2.9-0.6,5.2-1.8,7.1c-1.4,2.2-3.5,3.4-6.3,3.4h-2.3v-7c4.9,0,7.3-0.5,7.3-1.6
					c0-0.2-0.4-0.8-1.2-1.7c-0.8-0.9-1.2-1.6-1.2-2.2c0-0.8,1-3.1,3.1-6.9C359.1,25.6,359.9,28.5,359.9,31z M362.9,16.8l-2.7,4.1
					l-4.1-2.7l-2,3.5l-4.4-3.1l2.7-4.2l3.9,2.9l2.5-3.8L362.9,16.8z"/>
				<path class="st4" d="M410.1,41.5h-4.8c-0.6,4.2-1.7,7.7-3.2,10.5c-2.2,4-5,6-8.6,6c-2.5,0-5.7-1.2-9.4-3.6l0.5-0.8
					c1.5,0.3,2.5,0.4,3.2,0.4c2.5,0,5-1,7.7-2.9c1.1-0.8,2.5-2.4,4-4.7c1.1-1.8,2.3-3.6,3.4-5.4c-2.1-0.7-3.6-2.3-4.6-4.9l3.9-5.5
					c0.9,1.8,1.9,3,3,3.4c0.7,0.3,2.3,0.4,4.8,0.4L410.1,41.5L410.1,41.5z"/>
				<path class="st4" d="M436.5,41.5h-4.7c-1.9,0-3.4-0.6-4.3-1.7c-0.3,2.6-1.5,4-3.7,4c-2,0-4.7-1.9-8.2-5.6
					c-0.3,0.5-1.2,1.4-2.5,2.5c-0.8,0.6-2.5,0.9-5.2,0.9v-7h2.4c1.7,0,3.1-0.8,4.3-2.3c0.9-1.4,1.8-2.9,2.7-4.3
					c1.1-1.5,2.5-2.3,4.1-2.3c0.8,0,1.8,0.7,3,2.2c1.1,1.5,2.2,2.9,3.2,4.4c1.4,1.6,2.8,2.3,4.3,2.3h4.7L436.5,41.5L436.5,41.5z
					 M423.4,34.6c0-1-0.2-2.1-0.5-3.4c-0.4-1.6-1-2.4-1.7-2.4c-0.6,0-1.2,0.6-1.8,1.7c-0.4,0.8-0.8,1.7-1.2,2.5
					c2.1,2.1,3.6,3.1,4.4,3.1C423.1,36.1,423.4,35.6,423.4,34.6z"/>
				<path class="st4" d="M434.1,41.5v-7h14.1v7H434.1z"/>
				<path class="st5" d="M456.9-3.1c0,1.6-0.5,2.7-1.6,3.4l-9.6,5.2c0-0.9,0.1-1.6,0.4-2s0.9-0.8,1.8-1.3L456.9-3.1z"/>
				<path class="st5" d="M455.4,31c0,2.9-0.6,5.2-1.8,7.1c-1.4,2.2-3.5,3.4-6.3,3.4H445v-7c4.9,0,7.3-0.5,7.3-1.6
					c0-0.2-0.4-0.8-1.2-1.7c-0.8-0.9-1.2-1.6-1.2-2.2c0-0.8,1-3.1,3.1-6.9C454.6,25.6,455.4,28.5,455.4,31z M458.4,16.8l-2.7,4.1
					l-4.1-2.7l-2,3.5l-4.4-3.1l2.7-4.2l3.9,2.9l2.5-3.8L458.4,16.8z"/>
				<path class="st4" d="M516.4,41.5h-4.8c-0.6,4.2-1.7,7.7-3.2,10.5c-2.2,4-5,6-8.6,6c-2.5,0-5.7-1.2-9.4-3.6l0.5-0.8
					c1.5,0.3,2.5,0.4,3.2,0.4c2.5,0,5-1,7.7-2.9c1.1-0.8,2.5-2.4,4-4.7c1.1-1.8,2.3-3.6,3.4-5.4c-2.1-0.7-3.6-2.3-4.6-4.9l3.9-5.5
					c0.9,1.8,1.9,3,3,3.4c0.7,0.3,2.3,0.4,4.8,0.4L516.4,41.5L516.4,41.5z M511.6,21.4l-2.5,4.2l-4.3-3.1l2.5-4.2L511.6,21.4z"/>
				<path class="st5" d="M530.9,41.5h-4.6c-2.2,0-3.7-1.3-4.7-3.8c-1.3,2.5-2.8,3.8-4.6,3.8h-2.3v-7c2.7,0,3.8,0,3.2,0
					c1.5,0,2.5-0.3,3-0.8c0.1-0.1,0.2-1.2,0.2-3.2l0.4,0.1c0.3,2,1.5,3.2,3.7,3.7c0.7,0.1,2.6,0.2,5.8,0.2L530.9,41.5L530.9,41.5z
					 M525.7,46.9l-2.6,4.2l-4.3-3l2.7-4.2L525.7,46.9z"/>
				<path class="st4" d="M549.2-0.3c0,1.3-0.5,2.5-1.4,3.6c-1,1-2.2,1.5-3.6,1.5c-2.3,0-3.5-1.3-3.5-3.8c0-1.6,0.3-2.9,1-4
					c0.8-1.3,2-1.9,3.6-1.9c1.1,0,2.1,0.5,2.9,1.5C548.8-2.5,549.2-1.4,549.2-0.3z M547.3,0.5c0-0.5-0.5-1.1-1.4-1.8
					c-0.9-0.6-1.7-1-2.3-1c-0.5,0-1,0.2-1.4,0.7s-0.6,1-0.6,1.4c0,1.3,1,1.9,2.9,1.9C546.4,1.8,547.3,1.4,547.3,0.5z"/>
				<path class="st4" d="M559,25.6l-0.8,5.4c-0.9,0.1-2.2,0.2-3.9,0.2c-3.3,0-6.4,0.7-9.2,2c-1.4,0.7-3.3,1.9-5.7,3.8
					c-2.4,1.9-4.3,3.1-5.6,3.7c-0.9,0.5-2.7,0.7-5.2,0.7v-7c3.1,0,5.6-0.3,7.5-0.8c1.6-0.4,4-1.4,7-2.9c-2.7-1.3-4.8-1.9-6.3-1.9
					c-1.2,0-1.9,0.4-2.2,1.2h-4.4c0.7-2.6,1.4-4.4,2.1-5.6c1.2-1.7,3-2.6,5.2-2.6c1.4,0,3.5,0.5,6.2,1.5c4.4,1.6,8.2,2.4,11.6,2.4
					c0.4,0,1,0,1.8-0.1C557.9,25.6,558.5,25.6,559,25.6z M551.4,15.8L549,20l-4.3-3l2.6-4.2L551.4,15.8z"/>
				<path class="st4" d="M634.3,41.5h-4.7c-2.5,0-4-1.1-4.6-3.2c-5.8,3.8-13,5.8-21.5,5.8c-4.7,0-8.6-0.8-11.7-2.3
					c-3.9-2-5.8-5-5.8-9.1c0-2.6,1-5.9,3.1-9.9l0.9,0.4c-0.8,2-1.3,3.8-1.3,5.5c0,3,2,5.3,6,6.6c2.8,1,6.1,1.5,10,1.5
					c7.1,0,12.4-0.6,15.8-1.8c1.1-0.4,1.7-0.6,1.8-0.6c0.8-0.4,1.2-0.7,1.4-1.2c0.2-0.4,0.3-1.2,0.2-2.4h0.7c0.7,2.6,2.7,3.8,6,3.8
					c0.4,0,1,0,1.8-0.1c0.8,0,1.4,0,1.8,0L634.3,41.5L634.3,41.5z M613.2,18.6l-2.6,4.1l-4.1-2.7l-2,3.5l-4.4-3.1l2.6-4.2l3.9,3
					l2.4-3.7L613.2,18.6z"/>
				<path class="st4" d="M648.2,41.5h-4.6c-2.2,0-3.7-1.3-4.7-3.8c-1.3,2.5-2.8,3.8-4.6,3.8H632v-7c2.7,0,3.8,0,3.2,0
					c1.5,0,2.5-0.3,3-0.8c0.1-0.1,0.2-1.2,0.2-3.2l0.4,0.1c0.3,2,1.5,3.2,3.7,3.6c0.7,0.2,2.6,0.3,5.8,0.3v7H648.2z M643.4,23.4
					l-2.4,4.2l-4.3-3.1l2.5-4.1L643.4,23.4z"/>
				<path class="st5" d="M657.8,62.8c0,1.5-0.5,2.6-1.6,3.2l-9.6,5.3c0-1,0.1-1.7,0.4-2c0.3-0.4,0.9-0.8,1.8-1.4L657.8,62.8z"/>
				<path class="st5" d="M656.3,31c0,2.9-0.6,5.2-1.8,7.1c-1.4,2.2-3.5,3.4-6.3,3.4h-2.3v-7c4.9,0,7.3-0.5,7.3-1.6
					c0-0.2-0.4-0.8-1.2-1.7c-0.8-0.9-1.2-1.6-1.2-2.2c0-0.8,1-3.1,3.1-6.9C655.5,25.6,656.3,28.5,656.3,31z M656.2,46.9l-2.6,4.2
					l-4.3-3l2.7-4.2L656.2,46.9z"/>
				<path class="st4" d="M719.7,25.9l-1.1,5.4c-2.6,0-5.1,0.2-7.3,0.6c-4.1,0.7-7.7,2.3-10.7,4.8c-3.4,2.8-5.1,6.1-5.1,9.9
					c0,4.5,2.8,7.9,8.3,10.1c4,1.6,8.8,2.3,14.4,2.3c1.5,0,4.9-0.2,10.4-0.6l0.1,0.8l-13.9,6.4h-1.7c-6.1,0-10.9-1.1-14.4-3.2
					c-4.3-2.6-6.5-6.6-6.5-12.1c0-7.5,4-13.7,11.9-18.6l-4.3-0.9c-1.5,0-2.4,0.4-2.9,1.3h-4.4c0.7-2.6,1.4-4.4,2.1-5.6
					c1.2-1.8,3-2.7,5.2-2.7c1.7,0,3.9,0.2,6.7,0.7c3.5,0.6,5.7,0.9,6.6,1C714.6,25.6,716.8,25.7,719.7,25.9z M712,44.8l-2.5,4.2
					l-4.3-3.1l2.5-4.2L712,44.8z"/>
				<path class="st4" d="M755.1,41.5h-4.8c-0.6,4.2-1.7,7.7-3.2,10.5c-2.2,4-5,6-8.6,6c-2.5,0-5.7-1.2-9.4-3.6l0.5-0.8
					c1.5,0.3,2.5,0.4,3.2,0.4c2.5,0,5-1,7.7-2.9c1.1-0.8,2.5-2.4,4-4.7c1.1-1.8,2.3-3.6,3.4-5.4c-2.1-0.7-3.6-2.3-4.6-4.9l3.9-5.5
					c0.9,1.8,1.9,3,3,3.4c0.7,0.3,2.3,0.4,4.8,0.4L755.1,41.5L755.1,41.5z"/>
				<path class="st5" d="M764.9,5.9L764.6,9c-0.6-0.3-1.4-0.8-2.6-1.6c-2.5,3-4.7,4.5-6.5,4.5c-0.4,0-1.1-0.1-2-0.3
					c2.1-1.1,4.4-2.7,7-4.9c-1.4-1.1-2-2-2-2.9c0-1.1,0.4-2.2,1.2-3.5s1.7-1.9,2.8-1.9c1.4,0,2.1,0.9,2.1,2.8c0,1.3-0.3,2.5-1,3.8
					C764.1,5.3,764.5,5.6,764.9,5.9z M762.6,3.1c0-0.4-0.2-0.8-0.5-1.3S761.4,1,761,1c-0.5,0-0.7,0.3-0.7,0.9c0,0.4,0.8,1.1,2.3,2.1
					C762.6,3.5,762.6,3.2,762.6,3.1z"/>
				<path class="st5" d="M763.3,31c0,2.9-0.6,5.2-1.8,7.1c-1.4,2.2-3.5,3.4-6.3,3.4h-2.3v-7c4.9,0,7.3-0.5,7.3-1.6
					c0-0.2-0.4-0.8-1.2-1.7c-0.8-0.9-1.2-1.6-1.2-2.2c0-0.8,1-3.1,3.1-6.9C762.5,25.6,763.3,28.5,763.3,31z M763.2,46.9l-2.6,4.2
					l-4.3-3l2.7-4.2L763.2,46.9z"/>
				<path class="st4" d="M809.7,41.5H805c-2,0-3.5-0.9-4.4-2.7c-0.6-1.1-1-2.8-1.3-5.3c-2.5,3.3-4.6,5-6.1,5c-1,0-2.1-0.3-3.1-0.8
					c-1.2-0.6-1.8-1.4-1.8-2.3c0-1,0.6-2.8,1.8-5.3c0.6-1.4,1.6-2.6,3.1-3.6c0.5-0.3,1.9-1.1,4.4-2.4c-0.4-1.8-0.6-2.9-0.6-3.4
					c0-0.8,1.1-2.3,3.3-4.4c0,0,0.5,3.2,1.4,9.4c0.8,5,1.3,7.7,1.7,8.2c0.4,0.4,1,0.7,1.8,0.8c0.6,0.1,1.4,0.1,2.5,0.1
					c1.5,0,2.1-0.1,2-0.1L809.7,41.5L809.7,41.5z M803.1,10.2l-2.7,4.2l-4.1-2.8l-2,3.5l-4.5-3.1l2.6-4.1l4,2.9l2.5-3.8L803.1,10.2z
					 M798.9,30.8c0-1-0.2-2.4-0.7-4.3c-3.5,1.8-5.2,3.1-5.2,4s1.6,1.3,4.8,1.3C798.5,31.8,798.9,31.5,798.9,30.8z"/>
				<path class="st4" d="M810.1,9.2c-0.4-0.5-0.6-0.9-0.7-1.2c0.7-2.7,1.7-4.4,3.2-5c0.1,1.6,0.8,2.9,2,4.1c1.2,1.1,2.7,1.6,4.3,1.3
					l-3,5.1c-0.4-0.1-0.9-0.4-1.4-0.7l-0.1,0.5c0,1.3,0.1,3,0.5,5.2c0.4,2.4,0.6,4.2,0.6,5.2c0,2.3-0.3,4.8-0.8,7.4
					c2.8-3.2,4.7-5.2,5.7-6.1c2.7-2.5,5.1-3.8,7.2-3.8c2,0,3.6,0.6,4.8,1.7c1.2,1.2,1.8,2.7,1.8,4.6c0,1.6-0.3,3-0.8,4.1
					c-0.4,0.8-1.3,1.9-2.5,3.3c1.9-0.1,3.1-0.2,3.7-0.2h5.5v7h-6.5c-0.6,0-1.5,0-2.7-0.1c-1.2,0-2.1-0.1-2.7-0.1
					c-2.9,0-4.6-0.6-5.2-1.7c-2.4,1.3-6.5,1.9-12.3,1.9h-3.1v-7h4.2c0.4-0.8,0.8-1.5,1.3-2.3c0.1-0.3,0.2-1.3,0.2-3
					c0-2.2-0.5-5.6-1.4-10C810.6,14.8,810.1,11.5,810.1,9.2z M830.8,30.2c0-0.8-0.5-1.4-1.4-1.9c-0.8-0.4-1.5-0.6-2.4-0.6
					c-3.2,0-7,2.1-11.3,6.4c2.2,0,5-0.3,8.4-0.9C828.6,32.4,830.8,31.4,830.8,30.2z"/>
				<path class="st5" d="M849.3,3.3c0,1.6-0.5,2.7-1.6,3.4l-9.6,5.2c0-0.9,0.1-1.6,0.4-2c0.3-0.4,0.9-0.8,1.8-1.3L849.3,3.3z"/>
				<path class="st5" d="M847.9,31c0,2.9-0.6,5.2-1.8,7.1c-1.4,2.2-3.5,3.4-6.3,3.4h-2.3v-7c4.9,0,7.3-0.5,7.3-1.6
					c0-0.2-0.4-0.8-1.2-1.7c-0.8-0.9-1.2-1.6-1.2-2.2c0-0.8,1-3.1,3.1-6.9C847,25.6,847.9,28.5,847.9,31z M847.8,46.9l-2.6,4.2
					l-4.3-3l2.7-4.2L847.8,46.9z"/>
				<path class="st4" d="M894.3,41.9c-0.7,5-2,8.6-4,10.9c-2.4,2.7-6,4.1-11,4.1c-2.6,0-4.8-0.6-6.5-1.7c-1.9-1.3-2.9-3.1-2.9-5.5
					c0-2.5,1.4-6.2,4.2-11.2l0.8,0.4c-1.3,2.5-2,4.4-2,5.9c0,2.3,0.5,3.9,1.6,4.6c1.4,1,3.7,1.4,6.9,1.4c3.4,0,6-0.5,7.9-1.6
					c1.4-0.8,2.3-2.2,2.8-4.4c0.2-1.1,0.3-1.8,0.3-2.2c0-0.7-0.4-1.5-1.1-2.5c-1-1.3-1.6-2.1-1.7-2.4c0.6-1.2,1.5-3,2.8-5.4
					c0.5,0.7,1,1.4,1.5,2.1c0.5,0.7,1.3,1,2.4,1v6.5L894.3,41.9L894.3,41.9z"/>
				<path class="st4" d="M895.7,35.4c3.6,0,5.4-0.9,5.4-2.8c0-0.3,0-0.8-0.1-1.4s-0.1-1-0.2-1.2l0.8-0.1c0.4,1.6,1.1,2.9,2.1,4
					c1.1,1.2,2.5,1.7,4.1,1.7c0.3,0,0.8-0.1,1.4-0.4c0.6-0.3,0.9-0.6,0.9-0.8c0-0.5-0.3-1.2-0.9-2.2c-0.5-0.6-0.9-1.3-1.4-1.9
					c0.4-1.1,0.9-2.7,1.5-4.9c2,1.7,3,4.1,3,7.2c0,2-0.4,3.8-1.3,5.4c-1,2-2.5,2.9-4.4,2.9s-3.5-1.1-4.6-3.4c-1.5,3-3.5,4.4-6.2,4.4
					L895.7,35.4L895.7,35.4z"/>
				<path class="st5" d="M925-11.2c0,1.2-0.4,2.3-1.3,3.2c-0.9,0.9-1.9,1.4-3.2,1.4c-2.1,0-3.1-1.1-3.1-3.4c0-1.4,0.3-2.6,0.9-3.6
					c0.8-1.2,1.8-1.7,3.2-1.7c1,0,1.9,0.4,2.6,1.3C924.6-13.2,925-12.2,925-11.2z M923.3-10.5c0-0.5-0.4-1-1.3-1.6
					c-0.8-0.6-1.5-0.9-2.1-0.9c-0.5,0-0.9,0.2-1.2,0.6s-0.5,0.9-0.5,1.3c0,1.1,0.9,1.7,2.6,1.7C922.5-9.4,923.3-9.7,923.3-10.5z"/>
				<path class="st5" d="M927.1,6.7c-0.2,0.8-0.4,1.3-0.7,1.6s-0.8,0.5-1.6,0.7l-8,2.3c0.7-1.4,1.7-2.2,3.2-2.6
					c-1.4-1-2.1-1.8-2.1-2.4c0-0.9,0.7-2,2.2-3.3c1.4-1.3,2.7-2,3.6-2c1.1,0,1.7,0.5,1.7,1.6c0,0.4-0.3,1.2-0.8,2.3
					c-1.1-0.7-2-1.1-2.7-1.1c-0.8,0-1.5,0.4-2.1,1.2c2,1.5,3.5,2.2,4.5,2.2C925.3,7.1,926.2,7,927.1,6.7z"/>
				<path class="st5" d="M923.9,34c0,2.2-0.5,4.4-1.4,6.7h-1.1c0-3.4-0.4-7.1-1.1-11c-1.2-6.3-1.8-10.3-1.8-12.1
					c0-1,0.4-2.1,1.1-3.1c0.3-0.4,1-1.3,2.3-2.6c0,2.3,0.3,6,1,10.9C923.6,28,923.9,31.7,923.9,34z"/>
				<path class="st4" d="M944.8,40.5c0,3.4-0.9,6.5-2.6,9.5c-2.1,3.6-4.7,5.3-8,5.3c-2,0-4.5-1-7.6-2.9l0.4-0.8
					c0.9,0.2,1.7,0.3,2.3,0.3c2.6,0,5.5-1.2,8.7-3.6c3.1-2.4,4.7-4.8,4.7-7.2c0-0.9-0.7-2.2-2-3.9c-1-1.2-1.9-2.3-2.9-3.5
					c0.6-2.7,1.1-4.9,1.4-6.4C943,31.1,944.8,35.5,944.8,40.5z"/>
				<path class="st4" d="M1015.8,41.9h-4c-0.4,4.2-2.1,7.7-4.9,10.4c-3,2.8-6.7,4.2-11.1,4.2c-6.2,0-9.3-3.1-9.3-9.4
					c0-2.3,0.4-4.4,1.3-6.2c0.6-1.5,1.7-3.3,3.3-5.5l0.7,0.7c-2,3.1-3,5.5-3,7.3c0,2.2,0.9,3.9,2.7,5c1.6,1,3.5,1.5,5.9,1.5
					c8.4,0,12.6-2.6,12.6-7.9c-2.9,0-4.6-0.1-5.2-0.2c-2.1-0.4-3.1-1.4-3.1-3.1c0-1.1,0.5-2.9,1.5-5.3c1-2.5,1.8-4,2.5-4.5
					c0.5-0.4,1.2-0.7,2-0.7c1.3,0,2.3,1,3,3c0.2,0.6,0.6,2.1,1.1,4.5h4V41.9L1015.8,41.9z M1012.2,21.4l-2.3,3.7l-3.7-2.4l-1.8,3.1
					l-3.9-2.8l2.3-3.8l3.6,2.7l2.3-3.4L1012.2,21.4z M1009.4,35.6c-0.5-1.8-1.6-2.6-3.2-2.6c-0.8,0-1.3,0.4-1.3,1.1
					c0,1,1,1.6,2.9,1.6C1007.8,35.6,1009.4,35.6,1009.4,35.6z"/>
				<path class="st4" d="M1023,32.6c0,2.6-0.5,4.7-1.6,6.4c-1.3,2-3.1,3-5.7,3h-2.1v-6.2c4.4,0,6.5-0.5,6.5-1.4
					c0-0.2-0.4-0.7-1.1-1.5c-0.7-0.8-1.1-1.5-1.1-2c0-0.7,0.9-2.8,2.8-6.2C1022.3,27.7,1023,30.3,1023,32.6z M1025.5,46.8l-2.4,3.8
					l-3.7-2.4l-1.8,3.1l-4-2.8l2.5-3.7l3.5,2.7l2.2-3.4L1025.5,46.8z"/>
				<path class="st4" d="M1048.5,41.9h-4.3c-0.5,3.8-1.5,6.9-2.8,9.4c-1.9,3.6-4.5,5.4-7.7,5.4c-2.3,0-5.1-1.1-8.4-3.2l0.4-0.7
					c1.3,0.2,2.3,0.4,2.9,0.4c2.2,0,4.5-0.9,6.9-2.6c1-0.7,2.2-2.1,3.6-4.2c1-1.6,2-3.2,3.1-4.8c-1.8-0.6-3.2-2.1-4.2-4.4l3.5-4.9
					c0.8,1.6,1.7,2.6,2.6,3c0.6,0.2,2,0.4,4.3,0.4L1048.5,41.9L1048.5,41.9z"/>
				<path class="st4" d="M1055.8,32.6c0,2.6-0.5,4.7-1.6,6.4c-1.3,2-3.1,3-5.7,3h-2.1v-6.2c4.4,0,6.5-0.5,6.5-1.4
					c0-0.2-0.4-0.7-1.1-1.5s-1.1-1.5-1.1-2c0-0.7,0.9-2.8,2.8-6.2C1055.1,27.7,1055.8,30.3,1055.8,32.6z M1055.7,46.8l-2.3,3.8
					l-3.8-2.7l2.4-3.8L1055.7,46.8z"/>
				<path class="st5" d="M1067.3,63.6c0,1.4-0.5,2.3-1.4,2.8l-8.6,4.7c0-0.9,0.1-1.5,0.3-1.8c0.2-0.3,0.8-0.8,1.6-1.2L1067.3,63.6z"
					/>
				<path class="st5" d="M1070.5,51.8c-0.2,0.8-0.4,1.4-0.7,1.7c-0.2,0.3-0.8,0.5-1.6,0.8l-8,2.2c0.5-0.9,0.9-1.5,1.3-1.8
					s1.1-0.6,2.1-0.9c-1.4-0.7-2.1-1.5-2.1-2.3c0-0.9,0.7-2,2.1-3.3s2.6-1.9,3.7-1.9s1.7,0.5,1.7,1.6c0,0.4-0.3,1.1-0.9,2.2
					c-1.1-0.6-2.1-1-2.8-1c-0.7,0-1.3,0.4-2,1.1c2,1.5,3.5,2.2,4.6,2.2C1068.7,52.3,1069.6,52.1,1070.5,51.8z"/>
				<path class="st5" d="M1066.4,34c0,2.2-0.5,4.4-1.4,6.7h-1.1c0-3.4-0.4-7.1-1.1-11c-1.2-6.3-1.8-10.3-1.8-12.1
					c0-1,0.4-2.1,1.1-3.1c0.3-0.4,1-1.3,2.3-2.6c0,2.3,0.3,6,1,10.9C1066.1,28,1066.4,31.7,1066.4,34z"/>
				<path class="st4" d="M1113.2,31.7c0,3.6-1.2,6.4-3.7,8.6s-5.6,3.3-9.4,3.3c-2.7,0-4.9-0.6-6.5-1.9c-1.9-1.4-2.8-3.3-2.8-5.8
					c0-3,1.2-6.8,3.5-11.4l0.8,0.5c-1.1,2.1-1.6,3.9-1.6,5.5c0,2.5,0.7,4.3,2.2,5.2c1.2,0.8,3.2,1.2,6,1.2c2,0,4-0.4,5.9-1.1
					c2.5-1,3.7-2.2,3.7-3.8c0-0.7-0.7-2.1-2-4.3c-1.1-1.9-2.1-3.3-2.8-4.2l2.3-5.6C1111.8,21.7,1113.2,26.3,1113.2,31.7z M1103,15.5
					l-2.3,3.7l-3.8-2.6l2.4-3.7L1103,15.5z"/>
				<path class="st4" d="M1134.7,33.7c0,2.4-0.5,4.2-1.5,5.4s-2.8,2-5.3,2.6c-1.9,0.4-3.9,0.7-6.2,0.7c-0.9,0-2.2-0.4-3.8-1.1
					l1.3-7.1c1.3,0.6,2.2,1,2.7,1c7.1,0,10.7-0.8,10.7-2.5c0-1.4-3.2-3.7-9.7-6.8l2.3-6.8C1131.5,22.8,1134.7,27.7,1134.7,33.7z
					 M1127.7,13l-2.3,3.8l-3.8-2.7l2.3-3.8L1127.7,13z"/>
				<path class="st5" d="M1149.1-12l-0.3,2.8c-0.5-0.3-1.3-0.8-2.3-1.4c-2.3,2.7-4.2,4-5.9,4c-0.4,0-1-0.1-1.8-0.3
					c1.8-1,3.9-2.4,6.3-4.4c-1.2-1-1.8-1.8-1.8-2.6c0-1,0.4-2,1.1-3.1s1.6-1.7,2.5-1.7c1.3,0,1.9,0.8,1.9,2.5c0,1.2-0.3,2.3-0.9,3.4
					C1148.3-12.5,1148.7-12.2,1149.1-12z M1147-14.5c0-0.4-0.2-0.8-0.5-1.2c-0.3-0.4-0.7-0.6-1-0.6c-0.4,0-0.6,0.3-0.6,0.8
					c0,0.4,0.7,1,2,1.9C1147-14.1,1147-14.4,1147-14.5z"/>
				<path class="st5" d="M1148.7,6.7c-0.2,0.8-0.4,1.3-0.7,1.6c-0.3,0.3-0.8,0.5-1.6,0.7l-8,2.3c0.7-1.4,1.7-2.2,3.2-2.6
					c-1.4-1-2.1-1.8-2.1-2.4c0-0.9,0.7-2,2.2-3.3c1.4-1.3,2.7-2,3.6-2c1.1,0,1.7,0.5,1.7,1.6c0,0.4-0.3,1.2-0.8,2.3
					c-1.1-0.7-2-1.1-2.7-1.1c-0.8,0-1.5,0.4-2.1,1.2c2,1.5,3.5,2.2,4.5,2.2C1146.8,7.1,1147.7,7,1148.7,6.7z"/>
				<path class="st5" d="M1145.5,34c0,2.2-0.5,4.4-1.4,6.7h-1.1c0-3.4-0.4-7.1-1.1-11c-1.2-6.3-1.8-10.3-1.8-12.1
					c0-1,0.4-2.1,1.1-3.1c0.3-0.4,1-1.3,2.3-2.6c0,2.3,0.3,6,1,10.9C1145.1,28,1145.5,31.7,1145.5,34z"/>
				<path class="st4" d="M1212.6,11.3c0,1.2-0.4,2.3-1.3,3.2s-1.9,1.4-3.2,1.4c-2.1,0-3.1-1.1-3.1-3.4c0-1.4,0.3-2.6,0.9-3.6
					c0.8-1.2,1.8-1.7,3.2-1.7c1,0,1.9,0.4,2.6,1.3C1212.3,9.3,1212.6,10.3,1212.6,11.3z M1211,12c0-0.5-0.4-1-1.3-1.6
					c-0.8-0.6-1.5-0.9-2.1-0.9c-0.5,0-0.9,0.2-1.2,0.6c-0.4,0.4-0.5,0.8-0.5,1.3c0,1.1,0.9,1.7,2.6,1.7
					C1210.1,13.1,1211,12.7,1211,12z"/>
				<path class="st4" d="M1232.8,41.9h-4.2c-2.2,0-3.6-1-4.1-2.9c-5.2,3.4-11.6,5.2-19.2,5.2c-4.2,0-7.7-0.7-10.5-2.1
					c-3.5-1.8-5.2-4.5-5.2-8.1c0-2.3,0.9-5.2,2.8-8.9l0.8,0.4c-0.8,1.8-1.1,3.4-1.1,4.9c0,2.7,1.8,4.7,5.4,5.9
					c2.5,0.9,5.5,1.3,8.9,1.3c6.4,0,11.1-0.5,14.2-1.6c1-0.3,1.5-0.5,1.6-0.5c0.7-0.3,1.1-0.7,1.3-1c0.2-0.4,0.2-1.1,0.2-2.1h0.6
					c0.6,2.3,2.4,3.4,5.4,3.4c0.4,0,0.9,0,1.6-0.1c0.7,0,1.2,0,1.6,0v6.2H1232.8z M1212.8,50.5l-2.3,3.8l-3.8-2.8l2.4-3.7
					L1212.8,50.5z"/>
				<path class="st4" d="M1241.4,1.5c0,1.4-0.5,2.4-1.4,3l-8.6,4.6c0-0.8,0.1-1.4,0.4-1.8s0.8-0.8,1.6-1.2L1241.4,1.5z"/>
				<path class="st4" d="M1240,32.6c0,2.6-0.5,4.7-1.6,6.4c-1.3,2-3.1,3-5.7,3h-2.1v-6.2c4.4,0,6.5-0.5,6.5-1.4
					c0-0.2-0.4-0.7-1.1-1.5s-1.1-1.5-1.1-2c0-0.7,0.9-2.8,2.8-6.2C1239.3,27.7,1240,30.3,1240,32.6z M1239.2,19l-2.1,3.7l-3.8-2.7
					l2.2-3.7L1239.2,19z"/>
				<path class="st4" d="M1256,12.8c0,1.2-0.4,2.3-1.3,3.2s-1.9,1.4-3.2,1.4c-2.1,0-3.1-1.1-3.1-3.4c0-1.4,0.3-2.6,0.9-3.6
					c0.8-1.2,1.8-1.7,3.2-1.7c1,0,1.9,0.4,2.5,1.3C1255.6,10.9,1256,11.8,1256,12.8z M1254.3,13.6c0-0.5-0.4-1-1.3-1.6
					c-0.8-0.6-1.5-0.9-2.1-0.9c-0.5,0-0.9,0.2-1.2,0.6c-0.4,0.4-0.5,0.8-0.5,1.3c0,1.1,0.9,1.7,2.6,1.7
					C1253.5,14.7,1254.3,14.3,1254.3,13.6z"/>
				<path class="st4" d="M1260.3,40.5c0,3.4-0.9,6.5-2.6,9.5c-2.1,3.6-4.7,5.3-8,5.3c-2,0-4.5-1-7.6-2.9l0.4-0.8
					c0.9,0.2,1.7,0.3,2.3,0.3c2.6,0,5.5-1.2,8.7-3.6c3.1-2.4,4.7-4.8,4.7-7.2c0-0.9-0.7-2.2-2-3.9c-1-1.2-1.9-2.3-2.9-3.5
					c0.6-2.7,1.1-4.9,1.4-6.4C1258.5,31.1,1260.3,35.5,1260.3,40.5z"/>
				<path class="st5" d="M1274.3-14.3c0,1.4-0.5,2.4-1.4,3l-8.6,4.6c0-0.8,0.1-1.4,0.4-1.8s0.8-0.8,1.6-1.2L1274.3-14.3z"/>
				<path class="st5" d="M1274.2,6.7c-0.2,0.8-0.4,1.3-0.7,1.6c-0.3,0.3-0.8,0.5-1.6,0.7l-8,2.3c0.7-1.4,1.7-2.2,3.2-2.6
					c-1.4-1-2.1-1.8-2.1-2.4c0-0.9,0.7-2,2.2-3.3c1.4-1.3,2.7-2,3.6-2c1.1,0,1.7,0.5,1.7,1.6c0,0.4-0.3,1.2-0.8,2.3
					c-1.1-0.7-2-1.1-2.7-1.1c-0.8,0-1.5,0.4-2.1,1.2c2,1.5,3.5,2.2,4.5,2.2C1272.3,7.1,1273.2,7,1274.2,6.7z"/>
				<path class="st5" d="M1270.9,34c0,2.2-0.5,4.4-1.4,6.7h-1.1c0-3.4-0.4-7.1-1.1-11c-1.2-6.3-1.8-10.3-1.8-12.1
					c0-1,0.4-2.1,1.1-3.1c0.3-0.4,1-1.3,2.3-2.6c0,2.3,0.3,6,1,10.9C1270.6,28,1270.9,31.7,1270.9,34z"/>
			</g>
		</g>
	</g>
</g>
<path class="st4" d="M90.8,5.6c0,2-0.6,3.3-1.8,4.1L78,16c0-1.1,0.2-2,0.5-2.5c0.3-0.5,1-1,2-1.6L90.8,5.6z"/>
<path class="st4" d="M36.7,5.2c0,2-0.6,3.3-1.8,4.1l-11,6.3c0-1.1,0.2-2,0.5-2.5s1-1,2-1.6L36.7,5.2z"/>
</svg>
