<?xml version="1.0" encoding="utf-8"?>
<!-- Generator: Adobe Illustrator 19.2.0, SVG Export Plug-In . SVG Version: 6.00 Build 0)  -->
<svg version="1.1" id="Layer_1" xmlns="http://www.w3.org/2000/svg" xmlns:xlink="http://www.w3.org/1999/xlink" x="0px" y="0px"
	 viewBox="0 0 32 34" style="enable-background:new 0 0 32 34;" xml:space="preserve">
<style type="text/css">
	.st0{opacity:0.3;}
	.st1{fill:#010101;}
	.st2{fill:#493A3E;}
	.st3{fill:url(#SVGID_1_);}
	.st4{fill:#FFFFFF;}
</style>
<g>
	<g class="st0">
		<path class="st1" d="M16,34C7.2,34,0,26.8,0,18C0,9.2,7.2,2,16,2c8.8,0,16,7.2,16,16C32,26.8,24.8,34,16,34z"/>
		<circle class="st1" cx="16" cy="18" r="15.4"/>
		<polygon class="st1" points="25.4,23.3 20.2,18 25.4,12.8 21.9,9.3 16.6,14.5 11.4,9.3 7.9,12.8 13.1,18 7.9,23.3 11.4,26.8 
			16.6,21.5 21.9,26.8 		"/>
	</g>
	<g>
		<g>
			<g>
				<g>
					<g>
						<g>
							<g>
								<path class="st2" d="M16,32C7.2,32,0,24.8,0,16C0,7.2,7.2,0,16,0c8.8,0,16,7.2,16,16C32,24.8,24.8,32,16,32z"/>
								<linearGradient id="SVGID_1_" gradientUnits="userSpaceOnUse" x1="16.0149" y1="30.2471" x2="16.0149" y2="-1.9548">
									<stop  offset="0" style="stop-color:#848284"/>
									<stop  offset="1" style="stop-color:#060707"/>
								</linearGradient>
								<circle class="st3" cx="16" cy="16" r="15.4"/>
							</g>
						</g>
					</g>
				</g>
			</g>
			<g>
				<g>
					<polygon class="st4" points="25.4,21.3 20.2,16 25.4,10.8 21.9,7.3 16.6,12.5 11.4,7.3 7.9,10.8 13.1,16 7.9,21.3 11.4,24.8 
						16.6,19.5 21.9,24.8 					"/>
				</g>
			</g>
		</g>
	</g>
</g>
</svg>
