<?xml version="1.0" encoding="utf-8"?>
<!-- Generator: Adobe Illustrator 23.0.2, SVG Export Plug-In . SVG Version: 6.00 Build 0)  -->
<svg version="1.1" id="Layer_1" xmlns="http://www.w3.org/2000/svg" xmlns:xlink="http://www.w3.org/1999/xlink" x="0px" y="0px"
	 viewBox="0 0 36.6 28.6" style="enable-background:new 0 0 36.6 28.6;" xml:space="preserve">
<style type="text/css">
	.st0{fill:#FFFFFF;}
</style>
<g>
	<path class="st0" d="M13.9,17.7l-9,0c-0.3,0-0.5-0.2-0.5-0.5c0-0.3,0.2-0.5,0.5-0.5l0,0l9,0c0.8,0,1.6-0.5,1.6-0.5
		c1.2-0.8,1.4-1.6,1.4-1.6l0-0.5c0-0.5,0-1.4,0-2.7c0-0.1,0.1-0.4,0.2-0.5c0.3-0.3,0.9,0,0.9,0.4l0,3.1c0.1,0.4,0.5,2.2,3.1,2.2h0.2
		c2.6,0,2.9-1.9,2.9-2.1l0-3.2c0-0.1,0-0.2,0-0.2c0.1-0.2,0.3-0.3,0.5-0.3c0.3,0,0.5,0.2,0.5,0.5l0,3.2c0,0,0,0.1,0,0.1l0,0.1
		c0,0.3,0.4,1.9,2.9,1.9h0.2c2.4,0,2.8-1.6,2.8-2.1l0-0.2c0,0,0-0.2,0-0.5c0-0.6,0-1.5,0-2.4c0-0.3,0.2-0.5,0.5-0.5c0,0,0,0,0,0
		c0.3,0,0.5,0.2,0.5,0.5c0,0.9,0,1.8,0,2.4c0,0.3,0,0.6,0,0.6l0,0.3c-0.2,1.5-1.3,3-3.8,3h-0.2c-2,0-3-0.8-3.5-1.6
		c-0.5,0.8-1.6,1.6-3.4,1.6h-0.2c-2.1,0-3.1-1-3.6-1.8c-0.3,0.4-0.7,0.8-1.4,1.2C16,17.1,15,17.7,13.9,17.7z M24.7,11.3L24.7,11.3
		L24.7,11.3z"/>
</g>
</svg>
