<?xml version="1.0" encoding="utf-8"?>
<!-- Generator: Adobe Illustrator 23.0.2, SVG Export Plug-In . SVG Version: 6.00 Build 0)  -->
<svg version="1.1" id="Layer_1" xmlns="http://www.w3.org/2000/svg" xmlns:xlink="http://www.w3.org/1999/xlink" x="0px" y="0px"
	 viewBox="0 0 36.6 28.5" style="enable-background:new 0 0 36.6 28.5;" xml:space="preserve">
<style type="text/css">
	.st0{fill:none;stroke:#D12426;stroke-width:27;stroke-linecap:round;stroke-linejoin:round;stroke-miterlimit:10;}
</style>
<path class="st0" d="M1393.9,1718.7l0,1.6c0.1,35.7,0.2,58.6,0.9,72.8c0.1,1.3,0,2.6-0.1,3.9l-0.6,6.5c-4.1,32.1-29,66-86.7,66.6
	l-4.1,0c-79.4-0.6-89-56.2-89.8-62.5l-0.1-0.8l0-5.1l0-0.1l-0.3-82.8c0-0.2-0.2-0.3-0.3-0.3l-0.3,0c-0.1,0.1-0.1,0.3-0.1,0.4v3.3
	l0.3,67.4l0.1,12.7l0,0.6c-2,24.9-22.9,66.8-88.4,67.4h-5.5c-72.5-0.6-89.8-50.8-92.7-66.2l-0.3-1.3l-0.1-1.9l0-1.3
	c-0.1-19.6-0.2-80.6-0.2-80.6l0,0c0-0.2-0.2-0.4-0.4-0.4c-0.1,0-0.2,0-0.3,0.1c-0.1,0.1-0.1,0.2-0.1,0.2l0,1.2
	c0.1,33.3,0.2,55.3,0.7,69.8l0,0.4l-0.3,11.4l-0.1,1.3l0,1.3c0,0-4,27.2-43.3,51.9c0,0-24.7,14.1-48.9,14.1l-103.9-0.1l-60.6,0.5
	c0,0-54.8-0.5-58.9-0.7c-23.1-1-42.8-9.9-56.7-25.6c-12.1-13.6-19.6-35.1-20.7-53.9c-1-17.3,3.3-33.8,12.1-46.5
	c10-14.4,25.2-23.3,45.1-26.6c4.4-0.7,8.5-1.1,12.5-1.1c14.4,0,26,4.6,35.7,14.1c30.4,29.8,27.2,95,24.4,121.7c0,0-0.9,9.8-1.4,13
	c-0.5,3.5-2.3,13.8-2.3,13.8c-14.4,84.6-51.2,128.8-126,149.8c-12.5,3.5-41.1,7.6-106.8,7.7"/>
<g>
	<path d="M13.9,17.7l-9,0c-0.3,0-0.5-0.2-0.5-0.5c0-0.3,0.2-0.5,0.5-0.5l0,0l9,0c0.8,0,1.6-0.5,1.6-0.5c1.2-0.8,1.4-1.6,1.4-1.6
		l0-0.5c0-0.5,0-1.4,0-2.7c0-0.1,0.1-0.4,0.2-0.5c0.3-0.3,0.9,0,0.9,0.4l0,3.1c0.1,0.4,0.5,2.2,3.1,2.2h0.2c2.6,0,2.9-1.9,2.9-2.1
		l0-3.2c0-0.1,0-0.2,0-0.2c0.1-0.2,0.3-0.3,0.5-0.3c0.3,0,0.5,0.2,0.5,0.5l0,3.2c0,0,0,0.1,0,0.1l0,0.1c0,0.3,0.4,1.9,2.9,1.9h0.2
		c2.4,0,2.8-1.6,2.8-2.1l0-0.2c0,0,0-0.2,0-0.5c0-0.6,0-1.5,0-2.4c0-0.3,0.2-0.5,0.5-0.5c0,0,0,0,0,0c0.3,0,0.5,0.2,0.5,0.5
		c0,0.9,0,1.8,0,2.4c0,0.3,0,0.6,0,0.6l0,0.3c-0.2,1.5-1.3,3-3.8,3h-0.2c-2,0-3-0.8-3.5-1.6c-0.5,0.8-1.6,1.6-3.4,1.6h-0.2
		c-2.1,0-3.1-1-3.6-1.8c-0.3,0.4-0.7,0.8-1.4,1.2C16,17.1,15,17.7,13.9,17.7z M24.7,11.3L24.7,11.3L24.7,11.3z"/>
</g>
</svg>
