<?xml version="1.0" encoding="utf-8"?>
<!-- Generator: Adobe Illustrator 23.0.2, SVG Export Plug-In . SVG Version: 6.00 Build 0)  -->
<svg version="1.1" id="Layer_1" xmlns="http://www.w3.org/2000/svg" xmlns:xlink="http://www.w3.org/1999/xlink" x="0px" y="0px"
	 viewBox="0 0 36.6 28.6" style="enable-background:new 0 0 36.6 28.6;" xml:space="preserve">
<g>
	<path d="M11,21.2c-0.5,0-1,0-1.4-0.1c-1.5-0.2-2.8-0.9-3.8-2C3.5,16.6,3.2,12.3,5,7.7c0.1-0.3,0.4-0.4,0.7-0.3
		C6,7.5,6.2,7.8,6.1,8.1c-1.7,4.2-1.5,8,0.6,10.3c0.9,0.9,1.9,1.5,3.2,1.7c0.6,0.1,1.8,0.1,2.3,0c1.3-0.2,2.3-0.7,3.2-1.6
		c1.2-1.3,1.7-3,1.6-5.6l0-1.5c0,0,0-0.1,0-0.1l0-0.5c0-0.6,0-1.5,0-2.8c0-0.1,0.1-0.3,0.2-0.4c0.1-0.1,0.2-0.2,0.4-0.2
		C17.8,7.4,18,7.7,18,8l0,3.2c0.1,0.7,0.7,2.3,3.1,2.3h0.2c2.7,0,3-2,3-2.2l0-3.3c0-0.1,0-0.2,0.1-0.2c0.1-0.2,0.3-0.3,0.5-0.3
		c0.3,0,0.6,0.3,0.6,0.6l0,3.5c0,0.2,0.3,2,3.1,2h0.2c2.5,0,2.9-1.7,2.9-2.2l0-0.2c0-0.7,0-3,0-3.1c0-0.3,0.2-0.5,0.5-0.5
		c0,0,0,0,0,0c0.3,0,0.5,0.2,0.5,0.5c0,0,0,2.4,0,3c0,0.1,0,0.2,0,0.2l0,0.3c-0.2,1.5-1.3,3.1-4,3.2h-0.2c-2.1,0-3.1-0.9-3.6-1.7
		c-0.6,0.9-1.7,1.7-3.5,1.7h-0.2c-1.4,0-2.5-0.5-3.1-1.1c0,2.5-0.6,4.3-1.9,5.8c-1,1.1-2.3,1.7-3.8,1.9C11.9,21.2,11.4,21.2,11,21.2
		z M24.9,8L24.9,8L24.9,8z"/>
</g>
</svg>
