<?xml version="1.0" encoding="utf-8"?>
<!-- Generator: Adobe Illustrator 22.0.1, SVG Export Plug-In . SVG Version: 6.00 Build 0)  -->
<svg version="1.1" id="Layer_1" xmlns="http://www.w3.org/2000/svg" xmlns:xlink="http://www.w3.org/1999/xlink" x="0px" y="0px"
	 viewBox="0 0 86.2 86.2" style="enable-background:new 0 0 86.2 86.2;" xml:space="preserve">
<style type="text/css">
	.st0{fill:#235958;}
</style>
<g>
	<path class="st0" d="M55,37.9c-1.5-5.5-3.5-8.3-6-8.3c-3,0-5.2,4.4-6.7,13.2c-0.3,1.8-0.5,3-0.5,3.6c0,2.8,1.5,4.2,4.6,4.2
		c1.7,0,3-0.4,3.9-1.2c0.7-0.6,1.5-1.8,2.2-3.5c1.1,2.3,1.6,3.8,1.6,4.5c0,2.6-3.5,3.9-10.6,3.9h-1.6h-2H27.5v8.3h12.4h2h0.6
		c9.4,0,14.1-4.3,14.1-13C56.7,45.9,56.1,42,55,37.9z M47.1,42.4c-1.4,0-2.1-0.8-2.1-2.4c0-1.3,0.5-2,1.6-2c1,0,2,0.8,3,2.4
		C48.8,41.7,48,42.4,47.1,42.4z"/>
	<polygon class="st0" points="51.3,22.4 46.6,18.7 43.6,23.7 48.5,27.4 	"/>
</g>
<g>
	<g>
		<g>
			<path class="st0" d="M44,11.6c0,1.9-0.6,3.3-1.8,4.1l-11,6.2c0-1.1,0.2-2,0.5-2.4c0.3-0.5,1-1,2-1.6L44,11.6z"/>
		</g>
	</g>
</g>
</svg>
