<?xml version="1.0" encoding="utf-8"?>
<!-- Generator: Adobe Illustrator 22.0.1, SVG Export Plug-In . SVG Version: 6.00 Build 0)  -->
<svg version="1.1" id="Layer_1" xmlns="http://www.w3.org/2000/svg" xmlns:xlink="http://www.w3.org/1999/xlink" x="0px" y="0px"
	 viewBox="0 0 81.8 54.9" style="enable-background:new 0 0 81.8 54.9;" xml:space="preserve">
<style type="text/css">
	.st0{fill:#542C0B;}
	.st1{fill:none;}
</style>
<g>
	<g>
		<path class="st0" d="M18.1,36.5h-1.6c-0.5,0-1-0.5-1.4-1.4c-0.3-0.7-0.6-1.6-0.7-2.7c-0.2,0.4-0.5,0.7-0.9,1
			c-0.3,0.2-0.7,0.3-1.1,0.3c-0.9,0-1.6-0.1-2.2-0.2c-0.6-0.1-0.9-0.3-0.9-0.4c0-0.6,0.4-1.4,1.3-2.1c0.8-0.8,1.9-1.5,3.1-2
			c0-0.1,0-0.2-0.1-0.5s-0.1-0.4-0.1-0.5c0-0.3,0.1-0.5,0.3-0.9c0.1-0.3,0.3-0.5,0.6-0.8c0.1,0.5,0.2,0.9,0.2,1.3
			c0.1,0.4,0.2,0.9,0.3,1.3l0.3,1.9c0.2,1.1,0.4,1.8,0.5,2.4c0.2,0.8,0.5,1.2,0.7,1.2H18L18.1,36.5L18.1,36.5z M12.6,24.1l-0.9,1.6
			L10,24.8l0.8-1.6L12.6,24.1z M14.1,31.5l-0.2-1.2c-0.7,0.2-1.2,0.5-1.5,0.7c-0.4,0.3-0.7,0.6-0.9,1c0.2,0.1,0.3,0.1,0.6,0.2
			c0.2,0,0.5,0.1,0.9,0.1C13.3,32.2,13.7,32,14.1,31.5z M15.2,23.1l-0.9,1.6l-1.8-1l0.8-1.6L15.2,23.1z"/>
		<path class="st0" d="M23.7,36.5h-6.4v-2h5.6c0-0.9-0.1-1.6-0.3-2c-0.1-0.3-0.5-0.8-1.1-1.4l0.9-1.8c0.5,0.7,0.9,1.2,1,1.6
			c0.2,0.6,0.3,1.5,0.3,2.9V36.5z M21,39.8l-0.9,1.6l-1.8-0.9l0.8-1.6L21,39.8z M23.6,38.8l-0.9,1.6l-1.8-1l0.8-1.6L23.6,38.8z"/>
		<path class="st0" d="M32.5,34.7c0,0.4-0.1,0.9-0.4,1.4c-0.3,0.6-0.6,0.9-0.9,0.9s-0.9-0.2-1.7-0.6c-0.8-0.4-1.4-0.7-2-1.1
			c-0.9,0.5-1.5,0.8-1.9,1c-0.5,0.2-1.1,0.3-1.8,0.3h-1v-2h1c0.3,0,0.6,0,0.9-0.1c0.3,0,0.7-0.1,1.2-0.3c-0.2-0.1-0.4-0.3-0.6-0.4
			c-0.2-0.2-0.3-0.4-0.3-0.5s0-0.2,0-0.3s0.1-0.2,0.2-0.3l1.1-1.9c0.1-0.3,0.3-0.4,0.4-0.5s0.3-0.2,0.5-0.2
			c-0.5-0.4-0.8-0.6-0.8-0.8c0-0.2,0.2-0.5,0.5-1.2c0.1-0.2,0.3-0.5,0.5-0.9c0.5,0.5,1.1,1.1,1.8,2c0.9,1.1,1.6,2.1,2.2,2.9
			C32.2,33.1,32.5,34,32.5,34.7z M28.6,32.2c0-0.3-0.1-0.6-0.2-0.8c-0.2-0.2-0.4-0.3-0.8-0.3c-0.3,0-0.7,0.1-1,0.3
			c-0.3,0.2-0.4,0.5-0.4,0.8s0.5,0.7,1.4,1.2c0.3-0.2,0.6-0.4,0.7-0.6C28.5,32.7,28.6,32.4,28.6,32.2z M31.3,34.8
			c0-0.3-0.2-0.7-0.6-1.2c-0.3-0.4-0.6-0.7-1-1.1c0,0.4-0.1,0.7-0.2,1s-0.4,0.6-0.6,0.7c0.4,0.2,0.9,0.5,1.4,0.7
			c0.4,0.2,0.6,0.2,0.8,0.2c0.1,0,0.2,0,0.2-0.1C31.2,35,31.3,34.9,31.3,34.8z"/>
		<path class="st0" d="M39.3,36.5h-1.6c-0.5,0-0.9-0.2-1.2-0.6c-0.3-0.4-0.5-0.9-0.6-1.6s-0.2-1.6-0.3-2.6c0-0.8-0.1-1.7-0.1-2.6
			s-0.1-1.6-0.2-2c-0.1-0.5-0.2-0.8-0.3-1.1c-0.2-0.4-0.4-0.7-0.7-0.9l1.4-2.2c0.3,0.9,0.5,2,0.6,3.2c0.1,0.8,0.1,2.6,0.2,5.5
			c0.1,1.3,0.3,2.2,0.6,2.6c0.2,0.3,0.4,0.5,0.7,0.5h1.6v1.8H39.3z"/>
		<path class="st0" d="M44.9,36.5h-6.4v-2h5.6c0-0.9-0.1-1.6-0.3-2c-0.1-0.3-0.5-0.8-1.1-1.4l0.9-1.8c0.5,0.7,0.9,1.2,1,1.6
			c0.2,0.6,0.3,1.5,0.3,2.9V36.5z M44,26.2l-0.9,1.6l-1.8-0.9l0.8-1.6L44,26.2z"/>
		<path class="st0" d="M49.7,36.5h-5.5v-2h4.4L47.3,25l-0.6-0.3c0-0.5,0-1,0.1-1.5s0.2-0.9,0.4-1.3l0.2,0.1c0,0.4,0.2,0.8,0.7,1
			c0.4,0.1,0.8,0.3,1.1,0.4c0,0.4,0,0.8-0.1,1.2c-0.1,0.4-0.1,0.7-0.2,1l-0.5-0.2l1.3,8.8C49.7,34.2,49.7,36.5,49.7,36.5z"/>
		<path class="st0" d="M53.5,33.7c0,0.6-0.1,1.2-0.3,1.7c-0.1,0.3-0.4,0.8-0.7,1.4l-0.2-0.1c0-0.2,0-0.5,0.1-0.8s0-0.5,0-0.6
			c0-0.8-0.1-1.9-0.2-3.3c-0.1-1.4-0.3-2.9-0.4-4.4c-0.1-0.9-0.2-1.9-0.3-2.8c0.2-0.3,0.3-0.7,0.5-1.1s0.4-0.7,0.5-1.1
			c0.1,0.9,0.3,2,0.5,3.5s0.3,2.8,0.4,4C53.4,31.8,53.5,32.9,53.5,33.7z"/>
		<path class="st0" d="M72.5,24.7l-0.5,2l-0.7-0.3v1c0,1-0.1,2-0.4,2.9c-0.3,1-0.7,2.1-1.3,3.1c0.3,0.5,0.5,0.9,0.6,1.2
			c0.2,0.5,0.3,1,0.3,1.4c0,0.3,0,0.5,0,0.7s0,0.4-0.1,0.7c-0.8,0.2-1.6,0.3-2.5,0.4S66,38,65.2,38c0-0.1,0-0.3,0-0.4
			c0-0.6,0.1-1.1,0.3-1.6c1.3-0.7,2.3-1.6,3.2-2.7c-0.5-1-0.9-1.7-1.1-2.1c-0.3-0.4-0.7-1.2-1.3-2.1c-0.2-0.3-0.4-0.6-0.6-0.8
			c-0.2-0.3-0.4-0.4-0.6-0.4c-0.1,0-0.3,0.1-0.5,0.2c-0.1,0.1-0.2,0.1-0.3,0.1c-0.2,0-0.4-0.2-0.8-0.5c-0.3-0.3-0.6-0.7-1-1.1
			c-0.3-0.3-0.5-0.6-0.6-0.9s-0.1-0.5-0.1-0.8c0-0.5,0-0.8,0.1-1.1c0.1-0.4,0.2-0.6,0.5-0.6s0.8,0.3,1.3,0.9
			c0.5,0.5,1.1,1.2,1.7,2.1c0.6,0.8,1.1,1.6,1.7,2.4l1.1,1.8c0.3,0.6,0.7,1.2,1,1.9c0.5-1,0.8-2,1-3.1c0.2-0.9,0.2-2,0.2-3.4
			l-0.6-0.4c0-0.5,0-0.9,0.1-1.3s0.2-0.8,0.4-1.1l0.3,0.1c0,0.3,0.2,0.6,0.5,0.8c0.2,0.1,0.4,0.2,0.7,0.4
			C72.1,24.5,72.3,24.6,72.5,24.7z M69.6,35.6c0-0.2,0-0.3-0.1-0.5s-0.2-0.5-0.4-0.9c-0.2,0.3-0.6,0.6-1,1s-0.9,0.7-1.3,1
			c0.9,0,1.5,0,1.9-0.1C69.2,36,69.6,35.9,69.6,35.6z"/>
	</g>
</g>
<rect class="st1" width="81.8" height="54.9"/>
</svg>
