<?xml version="1.0" encoding="utf-8"?>
<!-- Generator: Adobe Illustrator 19.2.0, SVG Export Plug-In . SVG Version: 6.00 Build 0)  -->
<svg version="1.1" id="Layer_1" xmlns="http://www.w3.org/2000/svg" xmlns:xlink="http://www.w3.org/1999/xlink" x="0px" y="0px"
	 viewBox="0 0 341.1 55.1" style="enable-background:new 0 0 341.1 55.1;" xml:space="preserve">
<style type="text/css">
	.st0{fill:#BA0017;}
	.st1{fill:none;}
</style>
<g>
	<g>
		<path d="M87.6,22.5c0,0.3-0.2,0.7-0.6,1c-0.7,0.3-1.8,0.7-3.3,1.3c0-0.3,0.2-0.6,0.5-0.9C84.9,23.7,86,23.2,87.6,22.5z"/>
		<path d="M91.4,35.9c0,1.7-0.5,2.9-1.5,3.7c-1.1,0.8-2.8,1.3-5.1,1.3c-1.5,0-2.6-0.3-3.4-0.8c-0.9-0.6-1.3-1.5-1.3-2.7
			c0-0.6,0.1-1.3,0.2-2c0.2-0.7,0.4-1.3,0.6-2c0.2-0.4,0.4-1,0.9-1.9l0.4,0.2c-0.5,1.1-0.9,1.9-1,2.5c-0.2,0.6-0.3,1.2-0.3,1.7
			c0,0.9,0.3,1.6,1,2.1c0.7,0.5,1.6,0.7,2.8,0.7c1.4,0,2.7-0.3,3.8-0.8c1.4-0.6,2-1.5,2-2.6c0-0.8-0.1-1.5-0.3-2.1
			c-0.2-0.6-0.5-1.1-0.8-1.5l0.9-2.3c0.4,0.6,0.7,1.2,0.8,1.9c0.1,0.6,0.2,1.5,0.2,2.5V35.9z M87.2,27.2l-0.8,1.6l-1.8-1l0.8-1.6
			L87.2,27.2z"/>
		<path d="M96.9,23.2c0,0.5-0.2,0.9-0.5,1.2C96,24.8,95.6,25,95.1,25c-0.4,0-0.7-0.1-0.9-0.3c-0.2-0.2-0.3-0.5-0.3-0.9
			c0-0.6,0.1-1.1,0.4-1.5s0.7-0.7,1.1-0.7c0.4,0,0.7,0.2,1,0.5S96.9,22.8,96.9,23.2z M96.2,23.5c0-0.2-0.1-0.4-0.4-0.7
			s-0.5-0.4-0.7-0.4c-0.2,0-0.4,0.1-0.5,0.3c-0.1,0.2-0.2,0.3-0.2,0.5c0,0.3,0.1,0.4,0.4,0.6c0.2,0.1,0.5,0.1,0.8,0.1
			c0.2,0,0.3,0,0.5-0.1S96.2,23.7,96.2,23.5z"/>
		<path d="M97,35.9h-6.4v-2h5.6c0-0.9-0.1-1.6-0.3-2c-0.1-0.3-0.5-0.8-1.1-1.4l0.9-1.8c0.5,0.7,0.9,1.2,1,1.6
			c0.2,0.6,0.3,1.5,0.3,2.9V35.9z M94.3,39.1l-0.9,1.6l-1.8-0.9l0.8-1.6L94.3,39.1z M96.9,38.1L96,39.7l-1.8-1l0.8-1.6L96.9,38.1z"
			/>
		<path d="M105.1,43.4c0,0.4-0.2,0.7-0.6,1c-0.7,0.3-1.8,0.7-3.3,1.3c0-0.3,0.2-0.6,0.5-0.9C102.4,44.5,103.5,44,105.1,43.4z"/>
		<path d="M108.2,35.9c0,0.8-0.4,1.7-1.1,2.6c-0.6,0.8-1.4,1.4-2.3,2c-0.9,0.5-1.6,0.8-2.1,0.8c-0.5,0-1.1-0.1-1.7-0.2
			c-0.5-0.1-1-0.3-1.6-0.5c-0.5-0.2-1.1-0.4-1.6-0.6l0.2-0.4c0.5,0.1,1,0.2,1.5,0.3c0.5,0.1,1,0.2,1.5,0.2c1,0,2-0.3,3-0.9
			c0.9-0.6,1.7-1.3,2.4-2.1c0.7-0.9,1-1.6,1-2.3c0-0.6-0.2-1.2-0.5-1.9c-0.3-0.5-0.7-1.1-1.2-1.6l0.6-1.8c0.6,0.6,1.1,1.1,1.4,1.7
			c0.3,0.6,0.5,1.4,0.5,2.2V35.9z"/>
		<path d="M115.7,19.2c0,0.3-0.2,0.7-0.6,1c-0.7,0.3-1.8,0.7-3.3,1.3c0-0.3,0.2-0.6,0.5-0.9C113,20.3,114.1,19.8,115.7,19.2z"/>
		<path d="M120.4,35.9h-13v-2h9.2c-0.8-0.6-1.4-1.1-1.9-1.4c-0.7-0.4-1.2-0.7-1.8-0.9c-0.6-0.2-1.2-0.3-1.8-0.3
			c-0.4,0-0.8,0-1.2,0.1c0.2-0.6,0.5-1,0.9-1.3c0.5-0.5,1.2-0.7,1.9-0.7c0.8,0,1.7,0.4,2.7,1.1c0.5,0.4,1.4,1.1,2.5,2.1
			c0.9,0.8,1.5,1.3,1.8,1.3h0.7V35.9z M115,25.4l-0.9,1.6l-1.8-0.9l0.8-1.6L115,25.4z"/>
		<path d="M125.7,20.6c-0.2,0.2-0.4,0.4-0.6,0.5c-0.3,0.2-0.6,0.3-1,0.3c-0.4,0-0.7-0.1-1.1-0.2c-0.7-0.2-1.1-0.4-1.2-0.4
			c-0.1,0-0.2,0-0.3,0c-0.1,0-0.2,0.1-0.3,0.1l-0.1-0.1c0.2-0.3,0.3-0.4,0.4-0.5c0.2-0.1,0.4-0.2,0.7-0.2c0.1,0,0.5,0.1,1.2,0.4
			c0.4,0.1,0.7,0.2,0.9,0.2c0.4,0,0.8-0.1,1.2-0.3L125.7,20.6z M132.1,24l-0.5,2l-0.7-0.3l0,1c0,1-0.1,2-0.4,2.9
			c-0.3,1-0.7,2.1-1.3,3.1c0.3,0.5,0.5,0.9,0.6,1.2c0.2,0.5,0.3,1,0.3,1.4c0,0.3,0,0.5,0,0.7c0,0.2,0,0.4-0.1,0.7
			c-0.8,0.2-1.6,0.3-2.5,0.4s-1.8,0.2-2.6,0.2c0-0.1,0-0.3,0-0.4c0-0.6,0.1-1.1,0.3-1.6c1.3-0.7,2.3-1.6,3.2-2.7
			c-0.5-1-0.9-1.7-1.1-2.1c-0.3-0.4-0.7-1.2-1.3-2.1c-0.2-0.3-0.4-0.6-0.6-0.8c-0.2-0.3-0.4-0.4-0.6-0.4c-0.1,0-0.3,0.1-0.5,0.2
			c-0.1,0.1-0.2,0.1-0.3,0.1c-0.2,0-0.4-0.2-0.8-0.5c-0.3-0.3-0.6-0.7-1-1.1c-0.3-0.3-0.5-0.6-0.6-0.9s-0.1-0.5-0.1-0.8
			c0-0.5,0-0.8,0.1-1.1c0.1-0.4,0.2-0.6,0.5-0.6c0.3,0,0.8,0.3,1.3,0.9c0.5,0.5,1.1,1.2,1.7,2.1c0.6,0.8,1.1,1.6,1.7,2.4l1.1,1.8
			c0.3,0.6,0.7,1.2,1,1.9c0.5-1,0.8-2,1-3.1c0.2-0.9,0.2-2,0.2-3.4l-0.6-0.4c0-0.5,0-0.9,0.1-1.3c0.1-0.4,0.2-0.8,0.4-1.1l0.3,0.1
			c0,0.3,0.2,0.6,0.5,0.8c0.2,0.1,0.4,0.2,0.7,0.4C131.7,23.8,131.9,23.9,132.1,24z M129.1,34.9c0-0.2,0-0.3-0.1-0.5
			s-0.2-0.5-0.4-0.9c-0.2,0.3-0.6,0.6-1,1c-0.4,0.4-0.9,0.7-1.3,1c0.9,0,1.5,0,1.9-0.1C128.8,35.4,129.1,35.2,129.1,34.9z"/>
		<path d="M136.7,33c0,0.6-0.1,1.2-0.3,1.7c-0.1,0.3-0.4,0.8-0.7,1.4l-0.2-0.1c0-0.2,0-0.5,0.1-0.8s0-0.5,0-0.6
			c0-0.8-0.1-1.9-0.2-3.3c-0.1-1.4-0.3-2.9-0.4-4.4c-0.1-0.9-0.2-1.9-0.3-2.8c0.2-0.3,0.3-0.7,0.5-1.1c0.2-0.4,0.4-0.7,0.5-1.1
			c0.1,0.9,0.3,2,0.5,3.5s0.3,2.8,0.4,4C136.6,31.1,136.7,32.2,136.7,33z"/>
		<path d="M157.6,35.9h-2c-1.2,0-2,0-2.6,0.1s-0.9,0.2-0.9,0.4c0,0.2,0.3,0.4,1,0.4c0.3,0,0.5,0,0.7,0c0.2,0,0.6,0.1,1.2,0.1
			c0.4,0,0.6,0.1,0.7,0.2c0.2,0.1,0.3,0.3,0.3,0.6c0,1.4-0.5,2.4-1.4,3.1c-1,0.7-2.7,1-5,1c-1.6,0-2.9-0.3-3.8-0.8
			c-1-0.6-1.5-1.4-1.5-2.5c0-0.9,0.2-1.8,0.7-2.8c0.2-0.4,0.6-1.1,1.4-2.3l0.4,0.2c-0.3,0.5-0.6,1-0.8,1.4c-0.4,0.8-0.6,1.5-0.6,2
			c0,0.9,0.5,1.6,1.4,2.1c0.9,0.5,2.2,0.7,3.8,0.7c1.1,0,2-0.1,2.8-0.2c1-0.2,1.5-0.5,1.5-0.8c0-0.1-0.1-0.2-0.2-0.3
			c-0.1-0.1-0.3-0.1-0.6-0.1c-0.2,0-0.5,0-0.9-0.1c-0.4,0-0.7,0-0.8,0c-0.5,0-0.8-0.1-1-0.2c-0.2-0.1-0.3-0.3-0.3-0.6
			c0-0.9,0.3-1.7,0.8-2.3c0.4-0.5,1.1-0.8,1.8-1.1c0.6-0.2,1.2-0.3,1.8-0.3h2V35.9z"/>
		<path d="M162.3,18.1c0,0.3-0.2,0.7-0.6,1c-0.7,0.3-1.8,0.7-3.3,1.3c0-0.3,0.2-0.6,0.5-0.9C159.6,19.2,160.7,18.7,162.3,18.1z"/>
		<path d="M162.4,35.9h-5.5v-2h4.4l-1.3-9.5l-0.6-0.3c0-0.5,0-1,0.1-1.5c0.1-0.5,0.2-0.9,0.4-1.3l0.2,0.1c0,0.4,0.2,0.8,0.7,1
			c0.4,0.1,0.8,0.3,1.1,0.4c0,0.4,0,0.8-0.1,1.2c-0.1,0.4-0.1,0.7-0.2,1l-0.5-0.2l1.3,8.8V35.9z"/>
		<path d="M169.3,22.5c0,0.3-0.2,0.7-0.6,1c-0.7,0.3-1.8,0.7-3.3,1.3c0-0.3,0.2-0.6,0.5-0.9C166.6,23.7,167.7,23.2,169.3,22.5z"/>
		<path d="M173.2,32.4l-0.8,2c-1.1,0.4-2.4,0.8-3.9,1s-2.9,0.4-4.1,0.4h-2.8v-2h2.7c-0.2-0.4-0.4-0.8-0.5-1.2
			c-0.1-0.4-0.2-0.9-0.2-1.3c0-0.9,0.4-1.6,1.1-2.2s1.7-0.9,2.8-0.9c0.9,0,1.7,0.2,2.3,0.7c0.3,0.2,0.7,0.6,1.3,1.4l-0.2,0.2
			c-0.5-0.1-1-0.2-1.4-0.3c-0.4-0.1-0.8-0.1-1.3-0.1c-1,0-1.8,0.1-2.4,0.3s-0.9,0.5-0.9,0.9c0,0.4,0.2,0.8,0.6,1.2
			c0.4,0.5,0.8,0.9,1.4,1.2c1.2-0.2,2.2-0.4,3-0.5C170.7,33.1,171.8,32.8,173.2,32.4z"/>
		<path d="M186.7,24.8c0,0.3-0.2,0.7-0.6,1c-0.7,0.3-1.8,0.7-3.3,1.3c0-0.3,0.2-0.6,0.5-0.9C183.9,25.9,185.1,25.4,186.7,24.8z"/>
		<path d="M188.6,35.9h-1.3c-1.2,0-2.3,0.1-3.3,0.3c-1.2,0.3-1.8,0.7-1.8,1.3c0,0.5,0.1,1,0.3,1.6c0.2,0.6,0.3,1.1,0.5,1.7
			s0.3,1.1,0.3,1.6c0,0.3,0,0.5-0.1,0.8s-0.1,0.5-0.2,0.9c-0.2-0.6-0.4-1.2-0.6-1.9c-0.4-1.2-0.6-2.1-0.8-2.7
			c-0.3-1-0.4-1.5-0.4-1.7c0-1,0.2-1.7,0.6-2.2c0.4-0.5,1-0.9,1.8-1.1c0.7-0.2,1.7-0.4,3-0.5c-0.5-0.5-0.8-0.8-0.9-0.9
			c-0.4-0.3-0.8-0.4-1.2-0.4c-0.2,0-0.5,0.1-0.7,0.2c-0.2,0.1-0.4,0.3-0.7,0.6l-0.5-0.3c0.2-0.6,0.5-1,0.8-1.3
			c0.5-0.6,1-0.8,1.7-0.8c0.5,0,0.9,0.2,1.4,0.5c0.4,0.3,0.8,0.7,1.2,1.2c0.2,0.2,0.5,0.7,0.9,1.3V35.9z"/>
		<path d="M197.8,23.2c0,0.5-0.2,0.9-0.5,1.2c-0.3,0.4-0.8,0.5-1.3,0.5c-0.4,0-0.7-0.1-0.9-0.3c-0.2-0.2-0.3-0.5-0.3-0.9
			c0-0.6,0.1-1.1,0.4-1.5s0.7-0.7,1.1-0.7c0.4,0,0.7,0.2,1,0.5S197.8,22.8,197.8,23.2z M197.1,23.5c0-0.2-0.1-0.4-0.4-0.7
			s-0.5-0.4-0.7-0.4c-0.2,0-0.4,0.1-0.5,0.3c-0.1,0.2-0.2,0.3-0.2,0.5c0,0.3,0.1,0.4,0.4,0.6c0.2,0.1,0.5,0.1,0.8,0.1
			c0.2,0,0.3,0,0.5-0.1S197.1,23.7,197.1,23.5z"/>
		<path d="M198.6,35.2c0,1.2-0.5,2.5-1.4,3.7c-1,1.4-2.2,2-3.5,2c-0.5,0-1-0.1-1.5-0.2c-0.4-0.1-0.9-0.2-1.5-0.4
			c-0.5-0.2-1-0.3-1.5-0.5l0.2-0.4c0.4,0.1,0.9,0.2,1.3,0.3c0.5,0.1,0.9,0.2,1.2,0.2c0.9,0,1.8-0.2,2.6-0.7c0.6-0.4,1.3-0.9,1.9-1.6
			c0.3-0.4,0.8-0.9,1.4-1.7c-1,0-1.8-0.2-2.3-0.5c-0.6-0.4-0.9-1-0.9-1.8c0-0.8,0.2-1.5,0.5-2.1c0.4-0.8,1-1.1,1.6-1.1
			c0.7,0,1.1,0.4,1.4,1.1c0.2,0.6,0.3,1.4,0.3,2.5V35.2z M197.8,34c-0.2-0.7-0.4-1.2-0.6-1.5c-0.2-0.2-0.4-0.4-0.7-0.4
			c-0.2,0-0.4,0.1-0.5,0.2c-0.2,0.1-0.2,0.3-0.2,0.5c0,0.4,0.2,0.6,0.5,0.8S197.1,34,197.8,34z"/>
		<path d="M203.3,35.9h-5.5v-2h4.4l-1.3-9.5l-0.6-0.3c0-0.5,0-1,0.1-1.5c0.1-0.5,0.2-0.9,0.4-1.3l0.2,0.1c0,0.4,0.2,0.8,0.7,1
			c0.4,0.1,0.8,0.3,1.1,0.4c0,0.4,0,0.8-0.1,1.2c-0.1,0.4-0.1,0.7-0.2,1l-0.5-0.2l1.3,8.8V35.9z"/>
		<path d="M208.1,35.9h-5.5v-2h4.4l-1.3-9.5l-0.6-0.3c0-0.5,0-1,0.1-1.5c0.1-0.5,0.2-0.9,0.4-1.3l0.2,0.1c0,0.4,0.2,0.8,0.7,1
			c0.4,0.1,0.8,0.3,1.1,0.4c0,0.4,0,0.8-0.1,1.2c-0.1,0.4-0.1,0.7-0.2,1l-0.5-0.2l1.3,8.8V35.9z"/>
		<path d="M211.9,33c0,0.6-0.1,1.2-0.3,1.7c-0.1,0.3-0.4,0.8-0.7,1.4l-0.2-0.1c0-0.2,0-0.5,0.1-0.8s0-0.5,0-0.6
			c0-0.8-0.1-1.9-0.2-3.3c-0.1-1.4-0.3-2.9-0.4-4.4c-0.1-0.9-0.2-1.9-0.3-2.8c0.2-0.3,0.3-0.7,0.5-1.1c0.2-0.4,0.4-0.7,0.5-1.1
			c0.1,0.9,0.3,2,0.5,3.5s0.3,2.8,0.4,4C211.8,31.1,211.9,32.2,211.9,33z"/>
		<path d="M226.8,42.8c0,0.4-0.2,0.7-0.6,1c-0.7,0.3-1.8,0.7-3.3,1.3c0-0.3,0.2-0.6,0.5-0.9C224.1,44,225.2,43.5,226.8,42.8z"/>
		<path d="M232.6,36.4c0,1.5-0.7,2.6-2.1,3.4c-1.3,0.7-3,1-5.1,1c-1.7,0-3-0.3-3.9-0.9c-1-0.7-1.5-1.6-1.5-2.9
			c0-0.9,0.1-1.8,0.4-2.8c0.3-0.9,0.6-1.8,1.1-2.7l0.5,0.2c-0.2,0.5-0.4,1-0.5,1.4c-0.2,0.6-0.3,1-0.4,1.4c-0.1,0.5-0.2,1-0.2,1.5
			c0,1,0.4,1.7,1.2,2.2c0.8,0.4,1.9,0.6,3.4,0.6c1.6,0,3-0.3,4.2-0.8c1.4-0.6,2.1-1.4,2.1-2.5c0-0.4,0-0.7,0-0.8s-0.1-0.3-0.1-0.5
			c-0.3,0.1-0.6,0.2-0.9,0.3c-0.3,0.1-0.6,0.1-0.9,0.1c-0.7,0-1.2-0.2-1.6-0.4c-0.5-0.4-0.8-0.9-0.8-1.6c0-0.8,0.2-1.7,0.7-2.4
			c0.5-0.9,1.1-1.3,1.7-1.3c0.9,0,1.6,0.6,2.1,1.8c0.4,1,0.7,2.2,0.7,3.5V36.4z M228.7,25.4l-0.9,1.6l-1.8-0.9l0.8-1.6L228.7,25.4z
			 M230.8,32.3c-0.2-0.5-0.3-0.8-0.4-0.9c-0.2-0.3-0.5-0.5-0.8-0.5c-0.4,0-0.6,0.1-0.8,0.3c-0.2,0.2-0.3,0.4-0.3,0.7
			c0,0.2,0.1,0.4,0.3,0.5c0.2,0.1,0.5,0.2,0.7,0.2c0.2,0,0.4,0,0.5-0.1C230.4,32.5,230.6,32.4,230.8,32.3z M231.3,24.4l-0.9,1.6
			l-1.8-1l0.8-1.6L231.3,24.4z"/>
		<path d="M237,18.7c0,0.5-0.2,0.9-0.5,1.2c-0.3,0.4-0.8,0.5-1.3,0.5c-0.4,0-0.7-0.1-0.9-0.3c-0.2-0.2-0.3-0.5-0.3-0.9
			c0-0.6,0.1-1.1,0.4-1.5s0.7-0.7,1.1-0.7c0.4,0,0.7,0.2,1,0.5S237,18.3,237,18.7z M236.3,19c0-0.2-0.1-0.4-0.4-0.7
			s-0.5-0.4-0.7-0.4c-0.2,0-0.4,0.1-0.5,0.3c-0.1,0.2-0.2,0.3-0.2,0.5c0,0.3,0.1,0.4,0.4,0.6c0.2,0.1,0.5,0.1,0.8,0.1
			c0.2,0,0.3,0,0.5-0.1S236.3,19.2,236.3,19z"/>
		<path d="M237.4,35.9h-5.5v-2h4.4l-1.3-9.5l-0.6-0.3c0-0.5,0-1,0.1-1.5c0.1-0.5,0.2-0.9,0.4-1.3l0.2,0.1c0,0.4,0.2,0.8,0.7,1
			c0.4,0.1,0.8,0.3,1.1,0.4c0,0.4,0,0.8-0.1,1.2c-0.1,0.4-0.1,0.7-0.2,1l-0.5-0.2l1.3,8.8V35.9z"/>
		<path d="M242.7,20c0,0.1,0,0.3,0,0.4s0,0.3-0.1,0.4l-0.9-0.6c-0.4,0.4-0.6,0.7-0.8,0.8c-0.6,0.5-1,0.8-1.4,0.8h-0.8
			c0.4-0.2,0.9-0.5,1.4-0.9c0.5-0.4,0.8-0.7,1.1-1c-0.2-0.1-0.4-0.3-0.5-0.4c-0.1-0.2-0.2-0.4-0.2-0.6c0-0.5,0.1-0.9,0.4-1.3
			c0.3-0.4,0.6-0.6,0.9-0.6c0.2,0,0.4,0.1,0.5,0.3c0.2,0.2,0.2,0.5,0.2,0.8c0,0.1,0,0.3-0.1,0.4c0,0.2-0.1,0.4-0.3,0.8
			c0.1,0.1,0.2,0.2,0.4,0.3C242.6,19.7,242.7,19.8,242.7,20z M241.8,18.7c0-0.2-0.1-0.4-0.2-0.6c-0.1-0.2-0.3-0.3-0.4-0.3
			c-0.1,0-0.1,0-0.2,0.1c0,0.1-0.1,0.1-0.1,0.2c0,0.2,0.1,0.3,0.3,0.5l0.5,0.4C241.8,18.9,241.8,18.8,241.8,18.7z"/>
		<path d="M243,35.9h-6.4v-2h5.6c0-0.9-0.1-1.6-0.3-2c-0.1-0.3-0.5-0.8-1.1-1.4l0.9-1.8c0.5,0.7,0.9,1.2,1,1.6
			c0.2,0.6,0.3,1.5,0.3,2.9V35.9z M240.3,25.8l-0.9,1.6l-1.8-0.9l0.8-1.6L240.3,25.8z M242.9,24.8l-0.9,1.6l-1.8-1l0.8-1.6
			L242.9,24.8z"/>
		<path class="st0" d="M261,24l-0.5,2l-0.7-0.3l0,1c0,1-0.1,2-0.4,2.9c-0.3,1-0.7,2.1-1.3,3.1c0.3,0.5,0.5,0.9,0.6,1.2
			c0.2,0.5,0.3,1,0.3,1.4c0,0.3,0,0.5,0,0.7c0,0.2,0,0.4-0.1,0.7c-0.8,0.2-1.6,0.3-2.5,0.4s-1.8,0.2-2.6,0.2c0-0.1,0-0.3,0-0.4
			c0-0.6,0.1-1.1,0.3-1.6c1.3-0.7,2.3-1.6,3.2-2.7c-0.5-1-0.9-1.7-1.1-2.1c-0.3-0.4-0.7-1.2-1.3-2.1c-0.2-0.3-0.4-0.6-0.6-0.8
			c-0.2-0.3-0.4-0.4-0.6-0.4c-0.1,0-0.3,0.1-0.5,0.2c-0.1,0.1-0.2,0.1-0.3,0.1c-0.2,0-0.4-0.2-0.8-0.5c-0.3-0.3-0.6-0.7-1-1.1
			c-0.3-0.3-0.5-0.6-0.6-0.9s-0.1-0.5-0.1-0.8c0-0.5,0-0.8,0.1-1.1c0.1-0.4,0.2-0.6,0.5-0.6c0.3,0,0.8,0.3,1.3,0.9
			c0.5,0.5,1.1,1.2,1.7,2.1c0.6,0.8,1.1,1.6,1.7,2.4l1.1,1.8c0.3,0.6,0.7,1.2,1,1.9c0.5-1,0.8-2,1-3.1c0.2-0.9,0.2-2,0.2-3.4
			l-0.6-0.4c0-0.5,0-0.9,0.1-1.3c0.1-0.4,0.2-0.8,0.4-1.1l0.3,0.1c0,0.3,0.2,0.6,0.5,0.8c0.2,0.1,0.4,0.2,0.7,0.4
			C260.7,23.8,260.9,23.9,261,24z M258.1,34.9c0-0.2,0-0.3-0.1-0.5s-0.2-0.5-0.4-0.9c-0.2,0.3-0.6,0.6-1,1c-0.4,0.4-0.9,0.7-1.3,1
			c0.9,0,1.5,0,1.9-0.1C257.8,35.4,258.1,35.2,258.1,34.9z"/>
	</g>
	<rect class="st1" width="341.1" height="55.1"/>
</g>
</svg>
