<?xml version="1.0" encoding="utf-8"?>
<!-- Generator: Adobe Illustrator 19.2.0, SVG Export Plug-In . SVG Version: 6.00 Build 0)  -->
<svg version="1.1" id="Layer_1" xmlns="http://www.w3.org/2000/svg" xmlns:xlink="http://www.w3.org/1999/xlink" x="0px" y="0px"
	 viewBox="0 0 616.1 55.1" style="enable-background:new 0 0 616.1 55.1;" xml:space="preserve">
<style type="text/css">
	.st0{fill:#BA0017;}
	.st1{fill:none;}
</style>
<g>
	<g>
		<path d="M217.2,28.8c0,0.2,0,0.5-0.1,0.7c0,0.3-0.1,0.4-0.1,0.5c-0.3-0.3-0.6-0.6-0.9-0.8c-0.4-0.2-0.7-0.3-1.1-0.3
			c-0.7,0-1.3,0.4-2.1,1.1c-0.7,0.7-1,1.3-1,1.7c0,0.1,0.1,0.2,0.2,0.3c0.2,0.1,0.4,0.1,0.8,0.1h0.9c0.5,0,0.9,0,1.2,0
			c0.3,0,0.6,0,0.9,0.1c0.4,0.1,0.5,0.3,0.5,0.8c0,1.9-0.8,3.3-2.5,4.3c-1.5,0.9-3.5,1.3-6.1,1.3c-1.3,0-2.4-0.3-3.1-0.8
			c-0.8-0.6-1.1-1.4-1.1-2.5c0-0.8,0.1-1.6,0.4-2.4c0.2-0.7,0.5-1.3,0.8-2c0,0,0.3-0.5,0.7-1.3l0.5,0.2c-0.5,0.8-0.8,1.6-1.1,2.4
			c-0.3,0.7-0.4,1.4-0.4,1.9c0,0.9,0.3,1.6,0.9,2.1c0.6,0.5,1.5,0.7,2.7,0.7c0.9,0,1.9-0.2,3.1-0.5c1-0.3,1.9-0.7,2.8-1.1
			c0.8-0.4,1.2-0.7,1.2-0.9c0-0.1,0-0.2-0.1-0.3s-0.2-0.1-0.5-0.1h-2.6c-0.3,0-0.6-0.1-0.9-0.3c-0.2-0.2-0.4-0.5-0.4-0.9
			c0-0.5,0.2-1.2,0.6-2c0.4-0.9,1-1.7,1.6-2.3c0.8-0.8,1.5-1.1,2.3-1.1c0.5,0,0.9,0.2,1.2,0.4C217.1,27.9,217.2,28.3,217.2,28.8z"/>
		<path d="M224.9,15.6c0,0.3-0.2,0.7-0.6,1c-0.7,0.3-1.8,0.7-3.3,1.3c0-0.3,0.2-0.6,0.5-0.9C222.2,16.7,223.3,16.3,224.9,15.6z"/>
		<path d="M225.7,34.5h-5c-0.4,0-0.8-0.1-1.2-0.4s-0.5-0.5-0.5-0.9c0-0.3,0-0.5,0-0.8c0-0.2,0.1-0.5,0.2-0.8h0.3
			c0.1,0.3,0.2,0.5,0.4,0.7c0.2,0.1,0.4,0.2,0.7,0.2h4.3c0-1.3-0.2-2.4-0.6-3.2c-0.5-1-1.2-1.7-2.3-2l0.2-2.2c1.3,0.6,2.2,1.7,2.8,3
			c0.4,1.1,0.7,2.6,0.7,4.4V34.5z M222.7,21.3l-0.9,1.6l-1.8-1l0.8-1.6L222.7,21.3z"/>
		<path d="M229.4,14.2c0,0.3-0.2,0.7-0.6,1c-0.7,0.3-1.8,0.7-3.3,1.3c0-0.3,0.2-0.6,0.5-0.9C226.7,15.4,227.8,14.9,229.4,14.2z"/>
		<path d="M229,19.4c0,0.2-0.1,0.4-0.3,0.5c-0.2,0.1-0.4,0.2-0.7,0.3l-2.1,0.7c0-0.3,0.4-0.6,1.1-0.9c-0.2-0.1-0.4-0.2-0.5-0.3
			c-0.2-0.1-0.2-0.3-0.2-0.4c0-0.2,0.2-0.6,0.6-1c0.4-0.5,0.8-0.7,1.2-0.7c0.1,0,0.3,0.1,0.4,0.2c0.1,0.1,0.2,0.2,0.2,0.4
			c0,0.1,0,0.2-0.1,0.3c0,0.1-0.1,0.2-0.2,0.4c-0.2-0.2-0.5-0.3-0.8-0.3c-0.2,0-0.3,0-0.5,0.1s-0.2,0.1-0.2,0.2
			c0,0.1,0.2,0.3,0.5,0.5c0.3,0.2,0.6,0.3,0.9,0.3c0.2,0,0.3,0,0.4,0C228.7,19.6,228.8,19.5,229,19.4z M231,34.5h-1.6
			c-0.5,0-0.9-0.2-1.2-0.6c-0.3-0.4-0.5-0.9-0.6-1.6c-0.1-0.7-0.2-1.6-0.3-2.6c0-0.8-0.1-1.7-0.1-2.6c0-0.9-0.1-1.6-0.2-2
			c-0.1-0.5-0.2-0.8-0.3-1.1c-0.2-0.4-0.4-0.7-0.7-0.9l1.4-2.2c0.3,0.9,0.5,2,0.6,3.2c0.1,0.8,0.1,2.6,0.2,5.5
			c0.1,1.3,0.3,2.2,0.6,2.6c0.2,0.3,0.4,0.5,0.7,0.5h1.6V34.5z"/>
		<path d="M235.8,41.5c0,0.4-0.2,0.7-0.6,1c-0.7,0.3-1.8,0.7-3.3,1.3c0-0.3,0.2-0.6,0.5-0.9C233.1,42.6,234.2,42.2,235.8,41.5z"/>
		<path d="M236.6,34.5h-6.4v-2h5.6c0-0.9-0.1-1.6-0.3-2c-0.1-0.3-0.5-0.8-1.1-1.4l0.9-1.8c0.5,0.7,0.9,1.2,1,1.6
			c0.2,0.6,0.3,1.5,0.3,2.9V34.5z M235.5,37.3l-0.9,1.6l-1.8-0.9l0.8-1.6L235.5,37.3z"/>
		<path d="M250.8,21.9c0,0.5-0.2,0.9-0.5,1.2c-0.3,0.4-0.8,0.5-1.3,0.5c-0.4,0-0.7-0.1-0.9-0.3c-0.2-0.2-0.3-0.5-0.3-0.9
			c0-0.6,0.1-1.1,0.4-1.5c0.3-0.4,0.7-0.7,1.1-0.7c0.4,0,0.7,0.2,1,0.5S250.8,21.4,250.8,21.9z M250.1,22.2c0-0.2-0.1-0.4-0.4-0.7
			c-0.3-0.3-0.5-0.4-0.7-0.4c-0.2,0-0.4,0.1-0.5,0.3c-0.1,0.2-0.2,0.3-0.2,0.5c0,0.3,0.1,0.4,0.4,0.6c0.2,0.1,0.5,0.1,0.8,0.1
			c0.2,0,0.3,0,0.5-0.1C250,22.4,250.1,22.3,250.1,22.2z"/>
		<path d="M259.4,34.5h-10.7c-1.4,0-2.6-0.3-3.4-0.8c-1.1-0.6-1.6-1.6-1.6-3c0-0.7,0.2-1.4,0.5-2.1c0.1-0.3,0.4-0.8,0.8-1.5l0.3,0.2
			c-0.2,0.3-0.3,0.7-0.5,1c-0.2,0.5-0.3,1-0.3,1.4c0,0.9,0.5,1.6,1.4,2.1c0.8,0.4,1.9,0.7,3.2,0.7h9.5v-0.3c0-0.8-0.1-1.5-0.3-2
			c-0.2-0.5-0.5-1-1-1.4l0.9-1.8c0.3,0.4,0.5,0.7,0.6,0.8c0.5,0.8,0.8,2.1,0.8,3.7V34.5z M253,37.3l-0.9,1.6l-1.8-0.9l0.8-1.6
			L253,37.3z"/>
		<path d="M266.4,21.2c0,0.3-0.2,0.7-0.6,1c-0.7,0.3-1.8,0.7-3.3,1.3c0-0.3,0.2-0.6,0.5-0.9C263.6,22.3,264.8,21.9,266.4,21.2z"/>
		<path d="M278.9,34.5h-13.5c-0.4,0-0.8-0.1-1.2-0.2c-0.3-0.1-0.6-0.3-1-0.5c-0.3,0.3-0.6,0.5-0.9,0.6c-0.3,0.1-0.8,0.2-1.5,0.2
			h-2.2v-2h2.2c0.6,0,1-0.1,1.3-0.2c0.4-0.2,0.7-0.5,0.7-1c0-0.2,0-0.4,0-0.7s-0.1-0.5-0.1-0.7l0.5-0.7c0.3,1,0.6,1.8,1.1,2.4
			c0.5,0.6,1.1,0.9,1.7,0.9c0.6,0,1.4-0.1,2.2-0.4c0.9-0.3,1.7-0.7,2.4-1.2c1.1-0.8,1.7-1.2,2-1.4c0.6-0.4,1.2-0.7,1.7-0.8
			c0.6-0.2,1.2-0.3,1.8-0.3c1,0,1.8,0.3,2.3,0.9c0.5,0.5,0.7,1.3,0.7,2.3V34.5z M277,31.7c0-0.4-0.2-0.7-0.7-0.9
			c-0.5-0.2-1-0.3-1.6-0.3c-0.7,0-1.7,0.3-2.7,0.8c-0.8,0.4-1.7,0.9-2.5,1.3h5.2c0.8,0,1.4-0.1,1.8-0.2C276.9,32.2,277,32,277,31.7z
			"/>
		<path d="M284.2,18.6c0,0.1,0,0.3,0,0.4s0,0.3-0.1,0.4l-0.9-0.6c-0.4,0.4-0.6,0.7-0.8,0.8c-0.6,0.5-1,0.8-1.4,0.8h-0.8
			c0.4-0.2,0.9-0.5,1.4-0.9c0.5-0.4,0.8-0.7,1.1-1c-0.2-0.1-0.4-0.3-0.5-0.4c-0.1-0.2-0.2-0.4-0.2-0.6c0-0.5,0.1-0.9,0.4-1.3
			s0.6-0.6,0.9-0.6c0.2,0,0.4,0.1,0.5,0.3c0.2,0.2,0.2,0.5,0.2,0.8c0,0.1,0,0.3-0.1,0.4c0,0.2-0.1,0.4-0.3,0.8
			c0.1,0.1,0.2,0.2,0.4,0.3C284.1,18.4,284.2,18.5,284.2,18.6z M283.3,17.4c0-0.2-0.1-0.4-0.2-0.6c-0.1-0.2-0.3-0.3-0.4-0.3
			c-0.1,0-0.1,0-0.2,0.1c0,0.1-0.1,0.1-0.1,0.2c0,0.2,0.1,0.3,0.3,0.5l0.5,0.4C283.3,17.5,283.3,17.4,283.3,17.4z"/>
		<path d="M284.5,34.5h-6.4v-2h5.6c0-0.9-0.1-1.6-0.3-2c-0.1-0.3-0.5-0.8-1.1-1.4l0.9-1.8c0.5,0.7,0.9,1.2,1,1.6
			c0.2,0.6,0.3,1.5,0.3,2.9V34.5z M281.9,24.4l-0.9,1.6l-1.8-0.9l0.8-1.6L281.9,24.4z M284.4,23.4l-0.9,1.6l-1.8-1l0.8-1.6
			L284.4,23.4z"/>
		<path d="M302.7,40.8l-2.8,1.9c-1.6,0-2.8-0.1-3.6-0.2c-1.5-0.2-2.6-0.7-3.4-1.3c-1-0.8-1.5-2-1.5-3.5c0-0.9,0.1-1.8,0.4-2.5
			c0.2-0.6,0.6-1.2,1-1.7c0.2-0.3,0.6-0.6,1.1-1.2c-0.7-0.4-1.2-0.7-1.5-0.9c-0.6-0.6-0.9-1.3-0.9-2.2c0-0.8,0.3-1.6,1-2.3
			c0.8-0.9,1.7-1.3,2.8-1.3c0.5,0,1,0.1,1.5,0.4c0.4,0.2,0.8,0.5,1.4,0.9c-0.7,0-1.5,0-2.3,0.1c-1,0.1-1.8,0.3-2.4,0.6
			c-0.7,0.3-1.1,0.7-1.1,1.1c0,0.5,0.4,0.9,1.3,1.3c0.7,0.3,1.5,0.6,2.5,0.7c0.7-0.4,1.5-0.7,2.2-1c0.8-0.3,1.6-0.6,2.5-0.8
			l-0.5,1.8c-1.6,0.6-2.7,1.1-3.4,1.4c-1.4,0.7-2.5,1.3-3.2,2c-1,0.9-1.4,1.8-1.4,2.8c0,1.1,0.4,1.9,1.2,2.5c0.7,0.5,1.7,0.9,3,1.1
			c1.1,0.2,2.4,0.3,4.1,0.3c0.4,0,0.7,0,1.1,0S302.4,40.7,302.7,40.8L302.7,40.8z"/>
		<path d="M311.6,42c0,0.4-0.2,0.7-0.6,1c-0.7,0.3-1.8,0.7-3.3,1.3c0-0.3,0.2-0.6,0.5-0.9C308.8,43.2,310,42.7,311.6,42z"/>
		<path d="M314.6,34.5c0,0.8-0.4,1.7-1.1,2.6c-0.6,0.8-1.4,1.4-2.3,2c-0.9,0.5-1.6,0.8-2.1,0.8c-0.5,0-1.1-0.1-1.7-0.2
			c-0.5-0.1-1-0.3-1.6-0.5c-0.5-0.2-1.1-0.4-1.6-0.6l0.2-0.4c0.5,0.1,1,0.2,1.5,0.3c0.5,0.1,1,0.2,1.5,0.2c1,0,2-0.3,3-0.9
			c0.9-0.6,1.7-1.3,2.4-2.1c0.7-0.9,1-1.6,1-2.3c0-0.6-0.2-1.2-0.5-1.9c-0.3-0.5-0.7-1.1-1.2-1.6l0.6-1.8c0.6,0.6,1.1,1.1,1.4,1.7
			c0.3,0.6,0.5,1.4,0.5,2.2V34.5z"/>
		<path d="M319.9,34.5h-1.6c-0.5,0-0.9-0.2-1.2-0.6c-0.3-0.4-0.5-0.9-0.6-1.6c-0.1-0.7-0.2-1.6-0.3-2.6c0-0.8-0.1-1.7-0.1-2.6
			c0-0.9-0.1-1.6-0.2-2c-0.1-0.5-0.2-0.8-0.3-1.1c-0.2-0.4-0.4-0.7-0.7-0.9l1.4-2.2c0.3,0.9,0.5,2,0.6,3.2c0.1,0.8,0.1,2.6,0.2,5.5
			c0.1,1.3,0.3,2.2,0.6,2.6c0.2,0.3,0.4,0.5,0.7,0.5h1.6V34.5z"/>
		<path d="M325.7,18c0,0.6-0.1,1-0.3,1.4c-0.2,0.4-0.5,0.6-0.9,0.6c-0.1,0-0.3,0-0.4-0.1c-0.1,0-0.2-0.1-0.4-0.2
			c-0.1,0.3-0.3,0.5-0.4,0.6c-0.2,0.2-0.5,0.4-0.8,0.4c-0.3,0-0.5-0.1-0.7-0.3c-0.2-0.2-0.2-0.5-0.2-0.9c0-0.2,0-0.4,0.1-0.6
			c0-0.1,0.1-0.3,0.2-0.6l0.2-0.1c0,0.1,0,0.2,0,0.3s0,0.2,0,0.3c0,0.2,0,0.3,0.1,0.4c0.1,0.1,0.2,0.2,0.3,0.2
			c0.3,0,0.6-0.2,0.8-0.6c0.1-0.2,0.2-0.6,0.3-1.1l0.2-0.1c0.1,0.4,0.1,0.6,0.1,0.7c0.1,0.2,0.2,0.3,0.4,0.3c0.3,0,0.5-0.2,0.7-0.6
			c0.1-0.3,0.2-0.6,0.2-1l0.2-0.1c0,0.1,0.1,0.3,0.1,0.5C325.7,17.7,325.7,17.9,325.7,18z M325.5,15.3c0,0.3-0.2,0.7-0.6,1
			c-0.7,0.3-1.8,0.7-3.3,1.3c0-0.3,0.2-0.6,0.5-0.9C322.8,16.4,323.9,15.9,325.5,15.3z"/>
		<path d="M332.1,34.5h-0.9c-0.5,0-0.9-0.1-1.2-0.2c-0.3-0.1-0.7-0.3-0.9-0.6c-0.4,0.3-0.7,0.5-0.9,0.6c-0.4,0.1-0.9,0.2-1.6,0.2
			h-0.7c-0.4,0-0.8-0.1-1.2-0.2c-0.3-0.1-0.6-0.3-0.9-0.5c-0.4,0.3-0.7,0.5-1,0.6c-0.3,0.1-0.8,0.2-1.5,0.2h-2.2v-2h2.2
			c0.6,0,1-0.1,1.3-0.2c0.4-0.2,0.7-0.5,0.7-1c0-0.2,0-0.4,0-0.7c0-0.2-0.1-0.5-0.1-0.7l0.5-0.7c0.2,0.7,0.4,1.2,0.5,1.5
			c0.2,0.5,0.5,1,0.8,1.2c0.3,0.3,0.8,0.5,1.2,0.5h0.8c0.6,0,1-0.1,1.2-0.3c0.3-0.2,0.4-0.5,0.4-0.9c0-0.2,0-0.5,0-0.7
			c0-0.2-0.1-0.5-0.1-0.7l0.5-0.7l0.2,1.1c0.2,0.8,0.4,1.4,0.7,1.7c0.3,0.3,0.6,0.4,1,0.4c0.2,0,0.4-0.1,0.5-0.2
			c0.1-0.1,0.2-0.3,0.2-0.5c0-0.4-0.2-0.9-0.5-1.3c-0.1-0.1-0.2-0.3-0.6-0.7l0.7-1.2c0.3,0.5,0.5,0.9,0.6,1.2c0.2,0.5,0.2,1.2,0.2,2
			V34.5z M328.5,25.3l-0.9,1.6l-1.8-0.9l0.8-1.6L328.5,25.3z M328.9,22.3L328,24l-1.8-1l0.8-1.6L328.9,22.3z M331.1,24.3l-0.9,1.6
			l-1.8-1l0.8-1.6L331.1,24.3z"/>
		<path d="M336.9,34.5h-5.5v-2h4.4l-1.3-9.5l-0.6-0.3c0-0.5,0-1,0.1-1.5s0.2-0.9,0.4-1.3l0.2,0.1c0,0.4,0.2,0.8,0.7,1
			c0.4,0.1,0.8,0.3,1.1,0.4c0,0.4,0,0.8-0.1,1.2c-0.1,0.4-0.1,0.7-0.2,1l-0.5-0.2l1.3,8.8V34.5z"/>
		<path d="M342.2,34.5h-1.6c-0.5,0-0.9-0.2-1.2-0.6c-0.3-0.4-0.5-0.9-0.6-1.6c-0.1-0.7-0.2-1.6-0.3-2.6c0-0.8-0.1-1.7-0.1-2.6
			c0-0.9-0.1-1.6-0.2-2c-0.1-0.5-0.2-0.8-0.3-1.1c-0.2-0.4-0.4-0.7-0.7-0.9l1.4-2.2c0.3,0.9,0.5,2,0.6,3.2c0.1,0.8,0.1,2.6,0.2,5.5
			c0.1,1.3,0.3,2.2,0.6,2.6c0.2,0.3,0.4,0.5,0.7,0.5h1.6V34.5z"/>
		<path d="M347.8,34.5h-6.4v-2h5.6c0-0.9-0.1-1.6-0.3-2c-0.1-0.3-0.5-0.8-1.1-1.4l0.9-1.8c0.5,0.7,0.9,1.2,1,1.6
			c0.2,0.6,0.3,1.5,0.3,2.9V34.5z M346.6,37.3l-0.9,1.6l-1.8-0.9l0.8-1.6L346.6,37.3z"/>
		<path d="M361.9,21.9c0,0.5-0.2,0.9-0.5,1.2c-0.3,0.4-0.8,0.5-1.3,0.5c-0.4,0-0.7-0.1-0.9-0.3c-0.2-0.2-0.3-0.5-0.3-0.9
			c0-0.6,0.1-1.1,0.4-1.5c0.3-0.4,0.7-0.7,1.1-0.7c0.4,0,0.7,0.2,1,0.5S361.9,21.4,361.9,21.9z M361.3,22.2c0-0.2-0.1-0.4-0.4-0.7
			c-0.3-0.3-0.5-0.4-0.7-0.4c-0.2,0-0.4,0.1-0.5,0.3c-0.1,0.2-0.2,0.3-0.2,0.5c0,0.3,0.1,0.4,0.4,0.6c0.2,0.1,0.5,0.1,0.8,0.1
			c0.2,0,0.3,0,0.5-0.1C361.2,22.4,361.3,22.3,361.3,22.2z"/>
		<path d="M370.6,34.5h-10.7c-1.4,0-2.6-0.3-3.4-0.8c-1.1-0.6-1.6-1.6-1.6-3c0-0.7,0.2-1.4,0.5-2.1c0.1-0.3,0.4-0.8,0.8-1.5l0.3,0.2
			c-0.2,0.3-0.3,0.7-0.5,1c-0.2,0.5-0.3,1-0.3,1.4c0,0.9,0.5,1.6,1.4,2.1c0.8,0.4,1.9,0.7,3.2,0.7h9.5v-0.3c0-0.8-0.1-1.5-0.3-2
			c-0.2-0.5-0.5-1-1-1.4l0.9-1.8c0.3,0.4,0.5,0.7,0.6,0.8c0.5,0.8,0.8,2.1,0.8,3.7V34.5z M364.1,37.3l-0.9,1.6l-1.8-0.9l0.8-1.6
			L364.1,37.3z"/>
		<path d="M377.5,21.2c0,0.3-0.2,0.7-0.6,1c-0.7,0.3-1.8,0.7-3.3,1.3c0-0.3,0.2-0.6,0.5-0.9C374.8,22.3,375.9,21.9,377.5,21.2z"/>
		<path d="M379.6,34.5H378c-0.5,0-1-0.1-1.5-0.3c-0.6-0.3-1-0.7-1.3-1.2c-0.5,0.4-1.1,0.8-1.7,1c-0.8,0.3-1.7,0.5-2.7,0.5h-1v-2h1
			c0.6,0,1.2-0.1,1.8-0.2c0.6-0.2,1.2-0.4,1.8-0.8l-0.5-0.6c-0.2-0.3-0.5-0.4-0.8-0.4c-0.1,0-0.3,0-0.4,0.1c-0.1,0-0.2,0.2-0.3,0.3
			h-0.2v-0.7c0-0.8,0.2-1.4,0.7-1.7c0.4-0.3,1.1-0.4,2.1-0.4c0.8,0,1.5,0.1,2.1,0.3c0.7,0.3,1,0.7,1,1.3c0,0.3-0.1,0.7-0.4,1
			c-0.2,0.3-0.6,0.6-1.1,1.1c0.1,0.2,0.3,0.3,0.7,0.4c0.3,0.1,0.6,0.2,0.9,0.2h1.7V34.5z"/>
		<path d="M384,17.4c0,0.5-0.2,0.9-0.5,1.2c-0.3,0.4-0.8,0.5-1.3,0.5c-0.4,0-0.7-0.1-0.9-0.3c-0.2-0.2-0.3-0.5-0.3-0.9
			c0-0.6,0.1-1.1,0.4-1.5c0.3-0.4,0.7-0.7,1.1-0.7c0.4,0,0.7,0.2,1,0.5S384,16.9,384,17.4z M383.4,17.7c0-0.2-0.1-0.4-0.4-0.7
			c-0.3-0.3-0.5-0.4-0.7-0.4c-0.2,0-0.4,0.1-0.5,0.3c-0.1,0.2-0.2,0.3-0.2,0.5c0,0.3,0.1,0.4,0.4,0.6c0.2,0.1,0.5,0.1,0.8,0.1
			c0.2,0,0.3,0,0.5-0.1C383.3,17.9,383.4,17.8,383.4,17.7z"/>
		<path d="M384.4,34.5h-5.5v-2h4.4l-1.3-9.5l-0.6-0.3c0-0.5,0-1,0.1-1.5s0.2-0.9,0.4-1.3l0.2,0.1c0,0.4,0.2,0.8,0.7,1
			c0.4,0.1,0.8,0.3,1.1,0.4c0,0.4,0,0.8-0.1,1.2c-0.1,0.4-0.1,0.7-0.2,1l-0.5-0.2l1.3,8.8V34.5z"/>
		<path d="M390.2,17.8c0,0.3-0.2,0.7-0.6,1c-0.7,0.3-1.8,0.7-3.3,1.3c0-0.3,0.2-0.6,0.5-0.9C387.5,19,388.6,18.5,390.2,17.8z"/>
		<path d="M390,34.5h-6.4v-2h5.6c0-0.9-0.1-1.6-0.3-2c-0.1-0.3-0.5-0.8-1.1-1.4l0.9-1.8c0.5,0.7,0.9,1.2,1,1.6
			c0.2,0.6,0.3,1.5,0.3,2.9V34.5z M387.4,24.4l-0.9,1.6l-1.8-0.9l0.8-1.6L387.4,24.4z M390,23.4l-0.9,1.6l-1.8-1l0.8-1.6L390,23.4z"
			/>
		<path class="st0" d="M404.5,21.9c0,0.5-0.2,0.9-0.5,1.2c-0.3,0.4-0.8,0.5-1.3,0.5c-0.4,0-0.7-0.1-0.9-0.3
			c-0.2-0.2-0.3-0.5-0.3-0.9c0-0.6,0.1-1.1,0.4-1.5c0.3-0.4,0.7-0.7,1.1-0.7c0.4,0,0.7,0.2,1,0.5S404.5,21.4,404.5,21.9z
			 M403.8,22.2c0-0.2-0.1-0.4-0.4-0.7c-0.3-0.3-0.5-0.4-0.7-0.4c-0.2,0-0.4,0.1-0.5,0.3c-0.1,0.2-0.2,0.3-0.2,0.5
			c0,0.3,0.1,0.4,0.4,0.6c0.2,0.1,0.5,0.1,0.8,0.1c0.2,0,0.3,0,0.5-0.1C403.7,22.4,403.8,22.3,403.8,22.2z"/>
		<path class="st0" d="M408.5,34.5c0,1.7-0.5,2.9-1.5,3.7c-1.1,0.8-2.8,1.3-5.1,1.3c-1.5,0-2.6-0.3-3.4-0.8
			c-0.9-0.6-1.3-1.5-1.3-2.7c0-0.6,0.1-1.3,0.2-2c0.2-0.7,0.4-1.3,0.6-2c0.2-0.4,0.4-1,0.9-1.9l0.4,0.2c-0.5,1.1-0.9,1.9-1,2.5
			c-0.2,0.6-0.3,1.2-0.3,1.7c0,0.9,0.3,1.6,1,2.1c0.7,0.5,1.6,0.7,2.8,0.7c1.4,0,2.7-0.3,3.8-0.8c1.4-0.6,2-1.5,2-2.6
			c0-0.8-0.1-1.5-0.3-2.1c-0.2-0.6-0.5-1.1-0.8-1.5l0.9-2.3c0.4,0.6,0.7,1.2,0.8,1.9c0.1,0.6,0.2,1.5,0.2,2.5V34.5z M404.3,25.9
			l-0.8,1.6l-1.8-1l0.8-1.6L404.3,25.9z"/>
		<path class="st0" d="M412.2,38.4c0,0.2-0.1,0.4-0.3,0.5c-0.2,0.1-0.4,0.2-0.7,0.3L409,40c0-0.3,0.4-0.6,1.1-0.9
			c-0.2-0.1-0.4-0.2-0.5-0.3c-0.2-0.1-0.2-0.3-0.2-0.4c0-0.2,0.2-0.6,0.6-1c0.4-0.5,0.8-0.7,1.2-0.7c0.1,0,0.3,0,0.4,0.2
			c0.1,0.1,0.2,0.2,0.2,0.4c0,0.1,0,0.2-0.1,0.3s-0.1,0.2-0.2,0.4c-0.2-0.2-0.5-0.3-0.8-0.3c-0.2,0-0.3,0-0.5,0.1s-0.2,0.1-0.2,0.2
			c0,0.1,0.2,0.3,0.5,0.5c0.3,0.2,0.6,0.3,0.9,0.3c0.2,0,0.3,0,0.4,0C411.8,38.6,411.9,38.5,412.2,38.4z M412.3,31.7
			c0,0.6-0.1,1.2-0.3,1.7c-0.1,0.3-0.4,0.8-0.7,1.4l-0.2-0.1c0-0.2,0-0.5,0.1-0.8c0-0.3,0-0.5,0-0.6c0-0.8-0.1-1.9-0.2-3.3
			c-0.1-1.4-0.3-2.9-0.4-4.4c-0.1-0.9-0.2-1.9-0.3-2.8c0.2-0.3,0.3-0.7,0.5-1.1c0.2-0.4,0.4-0.7,0.5-1.1c0.1,0.9,0.3,2,0.5,3.5
			s0.3,2.8,0.4,4C412.2,29.8,412.3,30.9,412.3,31.7z"/>
	</g>
	<rect class="st1" width="616.1" height="55.1"/>
</g>
</svg>
