<?xml version="1.0" encoding="utf-8"?>
<!-- Generator: Adobe Illustrator 22.0.1, SVG Export Plug-In . SVG Version: 6.00 Build 0)  -->
<svg version="1.1" id="Layer_1" xmlns="http://www.w3.org/2000/svg" xmlns:xlink="http://www.w3.org/1999/xlink" x="0px" y="0px"
	 viewBox="0 0 81.8 54.9" style="enable-background:new 0 0 81.8 54.9;" xml:space="preserve">
<style type="text/css">
	.st0{fill:#542C0B;}
	.st1{fill:none;}
</style>
<path class="st0" d="M45.7,23.5l0.5,0.2c0.1-0.3,0.1-0.6,0.2-1c0.1-0.4,0.1-0.8,0.1-1.2c-0.3-0.1-0.7-0.2-1.1-0.4
	c-0.5-0.2-0.7-0.6-0.7-1L44.5,20c-0.2,0.4-0.3,0.8-0.4,1.3c-0.1,0.5-0.1,1-0.1,1.5l0.6,0.3l1.3,9.5h-3.8c-0.3-0.5-0.6-0.9-0.8-1.1
	c-0.4-0.5-0.8-0.9-1.2-1.2c-0.5-0.3-0.9-0.5-1.4-0.5c-0.7,0-1.2,0.2-1.7,0.8c-0.3,0.3-0.6,0.7-0.8,1.3l0.5,0.3
	c0.3-0.3,0.5-0.5,0.7-0.6c0.2-0.1,0.5-0.2,0.7-0.2c0.4,0,0.8,0.1,1.2,0.4c0.1,0.1,0.4,0.4,0.9,0.9c-1.3,0.1-2.3,0.3-3,0.5
	c-0.8,0.2-1.4,0.6-1.8,1.1c-0.4,0.5-0.6,1.2-0.6,2.2c0,0.2,0.1,0.7,0.4,1.7c0.2,0.6,0.4,1.5,0.8,2.7c0.2,0.7,0.4,1.3,0.6,1.9
	c0.1-0.4,0.1-0.6,0.2-0.9c0.1-0.3,0.1-0.5,0.1-0.8c0-0.5-0.1-1-0.3-1.6c-0.2-0.6-0.3-1.1-0.5-1.7c-0.2-0.6-0.3-1.1-0.3-1.6
	c0-0.6,0.6-1,1.8-1.3c1-0.2,2.1-0.3,3.3-0.3h0.6h0.7H47v-2.3L45.7,23.5z"/>
<rect class="st1" width="81.8" height="54.9"/>
</svg>
