<?xml version="1.0" encoding="utf-8"?>
<!-- Generator: Adobe Illustrator 19.2.0, SVG Export Plug-In . SVG Version: 6.00 Build 0)  -->
<svg version="1.1" id="Layer_1" xmlns="http://www.w3.org/2000/svg" xmlns:xlink="http://www.w3.org/1999/xlink" x="0px" y="0px"
	 viewBox="0 0 341.1 55.1" style="enable-background:new 0 0 341.1 55.1;" xml:space="preserve">
<style type="text/css">
	.st0{fill:#BA0017;}
	.st1{fill:none;}
</style>
<g>
	<g>
		<path d="M95.3,37.3c-0.8,0.3-1.5,0.5-2.2,0.8c-0.7,0.3-1.4,0.5-2.1,0.8c-0.1,0.1-0.1,0-0.1-0.1c0.1-0.1,0.1-0.3,0.2-0.5
			s0.2-0.3,0.2-0.4c0-0.1,0.1-0.1,0.2-0.2c0.2-0.1,0.4-0.2,0.8-0.3c0.3-0.1,0.7-0.3,1.1-0.4c0.4-0.1,0.8-0.3,1.2-0.4
			s0.9-0.3,1.3-0.4c0.1,0,0.1,0,0.1,0.1c0,0.1-0.1,0.1-0.1,0.2s-0.1,0.2-0.1,0.3s-0.1,0.2-0.1,0.2s-0.1,0.1-0.1,0.2
			C95.4,37.2,95.4,37.2,95.3,37.3C95.3,37.2,95.3,37.3,95.3,37.3z"/>
		<path d="M94.1,25c0-0.1,0.1-0.1,0.1-0.1c0.1,0,0.1,0,0.1,0.1c0,0.2,0.1,0.8,0.3,1.6c0.1,0.5,0.2,0.9,0.2,1.2
			c0.1,0.3,0.1,0.6,0.2,0.8c0.1,0.4,0.2,0.7,0.3,1.1s0.2,0.6,0.3,0.9c0.1,0.4,0.3,0.7,0.5,0.9c0.2,0.2,0.4,0.4,0.6,0.6
			s0.5,0.2,0.7,0.3c0.3,0.1,0.5,0.1,0.8,0.1h0.2c0.2,0,0.4,0.1,0.5,0.3c0.1,0.2,0.2,0.4,0.2,0.6c0,0.2-0.1,0.4-0.2,0.6
			c-0.1,0.2-0.3,0.3-0.5,0.3h-0.2c-0.5,0-0.9-0.1-1.2-0.2c-0.3-0.1-0.6-0.3-0.9-0.5s-0.5-0.4-0.6-0.7c-0.2-0.3-0.3-0.5-0.4-0.8
			c-0.1-0.3-0.2-0.6-0.3-0.8s-0.1-0.4-0.2-0.5c-0.3,0.4-0.6,0.7-0.8,0.9c-0.3,0.2-0.5,0.4-0.8,0.5c-0.3,0.1-0.5,0.2-0.8,0.2
			c-0.3,0-0.6,0-0.9,0c-0.1,0-0.2,0-0.3-0.1c-0.1,0-0.2-0.1-0.3-0.2s-0.2-0.2-0.2-0.3s-0.1-0.2-0.1-0.4c0.1-0.4,0.2-0.8,0.3-1.2
			c0.2-0.4,0.3-0.7,0.5-1c0.3-0.4,0.7-0.8,1.1-1.1c0.4-0.3,1-0.6,1.6-0.8c0-0.1,0-0.2-0.1-0.4c0-0.2-0.1-0.3-0.1-0.4
			c0-0.1,0-0.1,0-0.3c0-0.1,0.1-0.2,0.1-0.3s0.1-0.2,0.1-0.4S94,25.1,94.1,25z M94,28.3c-0.6,0.2-1.1,0.4-1.5,0.7s-0.8,0.6-1.1,1.1
			c-0.1,0.1-0.1,0.2,0,0.3c0.2,0.1,0.5,0.2,0.8,0.2s0.6,0,0.9-0.1c0.3-0.1,0.6-0.1,0.8-0.2c0.2-0.1,0.4-0.2,0.5-0.3
			c-0.1-0.3-0.1-0.5-0.2-0.8C94.1,28.8,94.1,28.5,94,28.3z"/>
		<path d="M102.8,37.8c-0.8,0.3-1.5,0.5-2.2,0.8c-0.7,0.3-1.4,0.5-2.1,0.8c-0.1,0.1-0.1,0-0.1-0.1c0.1-0.1,0.1-0.3,0.2-0.5
			s0.2-0.3,0.2-0.4c0-0.1,0.1-0.1,0.2-0.2c0.2-0.1,0.4-0.2,0.8-0.3c0.3-0.1,0.7-0.3,1.1-0.4c0.4-0.1,0.8-0.3,1.2-0.4
			s0.9-0.3,1.3-0.4c0.1,0,0.1,0,0.1,0.1c0,0.1-0.1,0.1-0.1,0.2s-0.1,0.2-0.1,0.3s-0.1,0.2-0.1,0.2s-0.1,0.1-0.1,0.2
			C103,37.7,102.9,37.7,102.8,37.8C102.9,37.8,102.8,37.8,102.8,37.8z"/>
		<path d="M102,30.1c0,0.1,0,0.2,0,0.3c0,0.1,0,0.2,0,0.3c0,0.2,0.1,0.4,0.2,0.6c0.1,0.2,0.2,0.4,0.4,0.5c0.2,0.2,0.5,0.3,0.8,0.4
			c0.3,0.1,0.7,0.2,1.2,0.2h0.2c0.2,0,0.4,0.1,0.5,0.3c0.1,0.2,0.2,0.4,0.2,0.6c0,0.2-0.1,0.4-0.2,0.6c-0.1,0.2-0.3,0.3-0.5,0.3
			h-0.2c-0.8,0-1.5-0.2-2-0.5s-0.9-0.8-1.2-1.3c-0.2,0.4-0.4,0.7-0.7,0.9c-0.3,0.2-0.5,0.4-0.8,0.5c-0.3,0.1-0.6,0.2-0.9,0.2
			s-0.6,0.1-0.8,0.1h-0.2c-0.2,0-0.4-0.1-0.5-0.3c-0.1-0.2-0.2-0.4-0.2-0.6c0-0.2,0.1-0.4,0.2-0.6c0.1-0.2,0.3-0.3,0.5-0.3h0.2
			c0.2,0,0.5,0,0.7,0c0.3,0,0.5-0.1,0.8-0.1s0.5-0.2,0.7-0.3c0.2-0.1,0.5-0.3,0.7-0.6c0.1-0.2,0.3-0.4,0.4-0.6
			c0.1-0.2,0.2-0.4,0.3-0.6c0,0,0-0.1,0.1-0.1c0,0,0.1,0,0.1,0C101.9,30,101.9,30,102,30.1C102,30,102,30,102,30.1z M102.4,27.8
			C102.4,27.8,102.3,27.9,102.4,27.8c-0.1,0.1-0.2,0.1-0.2,0l-1.3-1L100,28c-0.1,0.1-0.1,0.1-0.2,0l-1.4-1.1c-0.1,0-0.1-0.1,0-0.1
			l0.9-1.3c0,0,0.1-0.1,0.1-0.1s0,0,0.1,0l1.3,1l0.9-1.2c0-0.1,0.1-0.1,0.1,0l1.4,1.2c0.1,0,0.1,0.1,0,0.2L102.4,27.8z"/>
		<path d="M110.2,21.2c-0.4,0.2-0.8,0.3-1.2,0.5s-0.8,0.4-1.3,0.5s-0.8,0.3-1.1,0.5c-0.3,0.2-0.6,0.3-0.8,0.4c-0.1,0-0.1,0-0.1,0
			c0,0,0-0.1,0-0.1c0-0.1,0.1-0.1,0.1-0.2c0.1-0.1,0.1-0.2,0.2-0.3s0.1-0.2,0.2-0.3c0.1-0.1,0.1-0.2,0.1-0.2
			c0.1-0.1,0.1-0.2,0.2-0.2l4.3-1.8c0.1-0.1,0.1,0,0.1,0.1c0,0.1-0.1,0.1-0.1,0.2c0,0.1-0.1,0.2-0.1,0.3c0,0.1-0.1,0.2-0.1,0.3
			s-0.1,0.2-0.1,0.2C110.3,21.1,110.3,21.2,110.2,21.2z"/>
		<path d="M104.3,34.2c-0.2,0-0.4-0.1-0.5-0.3c-0.1-0.2-0.2-0.4-0.2-0.6c0-0.2,0.1-0.4,0.2-0.6c0.1-0.2,0.3-0.3,0.5-0.3h0.2
			c0.2,0,0.5,0,0.8-0.1c0.3,0,0.6-0.1,0.9-0.2c0.3-0.1,0.6-0.2,0.9-0.3s0.6-0.3,0.9-0.5c-0.2-0.2-0.4-0.4-0.6-0.5s-0.5-0.3-0.7-0.3
			c-0.2,0-0.3,0-0.5,0s-0.3,0.1-0.4,0.2c-0.1,0.1-0.1,0.1-0.2,0c-0.1,0-0.1-0.1-0.1-0.2c0-0.1,0.1-0.2,0.1-0.4
			c0-0.2,0.1-0.3,0.2-0.5s0.2-0.3,0.3-0.5c0.1-0.2,0.2-0.3,0.4-0.5c0.6-0.6,1.4-0.9,2.4-0.9c0.3,0,0.5,0,0.8,0.1s0.6,0.1,0.9,0.2
			c0.3,0.1,0.5,0.3,0.7,0.5c0.2,0.2,0.3,0.5,0.3,0.8c0,0.4-0.1,0.8-0.3,1.1c-0.2,0.3-0.5,0.6-0.8,0.9c0.1,0.2,0.3,0.4,0.5,0.5
			c0.2,0.1,0.4,0.2,0.7,0.3s0.5,0.1,0.8,0.2c0.3,0,0.6,0,0.9,0h0.2c0.2,0,0.4,0.1,0.5,0.3s0.2,0.4,0.2,0.6c0,0.2-0.1,0.4-0.2,0.6
			s-0.3,0.3-0.5,0.3h-0.2c-0.9,0-1.7-0.1-2.3-0.4s-1.3-0.8-1.8-1.4c-0.4,0.3-0.8,0.6-1.2,0.8s-0.8,0.4-1.1,0.6s-0.8,0.3-1.1,0.3
			s-0.8,0.1-1.2,0.1H104.3z"/>
		<path d="M120.8,21.5c-0.4,0.2-0.8,0.3-1.2,0.5s-0.8,0.4-1.3,0.5s-0.8,0.3-1.1,0.5c-0.3,0.2-0.6,0.3-0.8,0.4c-0.1,0-0.1,0-0.1,0
			c0,0,0-0.1,0-0.1c0-0.1,0.1-0.1,0.1-0.2c0.1-0.1,0.1-0.2,0.2-0.3c0.1-0.1,0.1-0.2,0.2-0.3c0.1-0.1,0.1-0.2,0.1-0.2
			c0.1-0.1,0.1-0.2,0.2-0.2l4.3-1.8c0.1-0.1,0.1,0,0.1,0.1c0,0.1-0.1,0.1-0.1,0.2c0,0.1-0.1,0.2-0.1,0.3c0,0.1-0.1,0.2-0.1,0.3
			s-0.1,0.2-0.1,0.2C121,21.4,120.9,21.4,120.8,21.5z"/>
		<path d="M121.1,30.1c0-0.1,0.1-0.1,0.1-0.2s0.1-0.1,0.1-0.1s0.1,0,0.1,0.1s0,0.1,0,0.2c0,0.1-0.1,0.3-0.1,0.5
			c-0.1,0.2-0.1,0.4-0.2,0.5c0.1,0.1,0.2,0.3,0.4,0.4s0.4,0.2,0.7,0.3c0.3,0.1,0.5,0.2,0.8,0.2c0.3,0,0.5,0,0.7-0.1
			c0-0.3,0-0.5-0.1-0.8s-0.1-0.5-0.2-0.8c0.1-0.1,0.1-0.3,0.2-0.4c0.1-0.1,0.1-0.2,0.2-0.3s0.1-0.2,0.2-0.3c0.1-0.1,0.1-0.2,0.2-0.3
			c0.1-0.1,0.1-0.1,0.1,0c0.1,0.3,0.2,0.5,0.2,0.8c0,0.2,0.1,0.5,0.1,0.7s0,0.4,0,0.7s-0.1,0.5-0.1,0.7c0,0.1-0.1,0.3-0.2,0.5
			c-0.1,0.2-0.2,0.4-0.3,0.5c-0.1,0.2-0.2,0.3-0.4,0.4c-0.1,0.1-0.3,0.2-0.4,0.2c-0.2,0-0.4,0-0.6,0c-0.2,0-0.5-0.1-0.7-0.2
			c-0.2-0.1-0.5-0.2-0.7-0.4c-0.2-0.2-0.4-0.3-0.6-0.5c-0.2,0.3-0.5,0.6-0.9,0.8c-0.4,0.2-0.8,0.3-1.2,0.4s-0.9,0.1-1.3,0
			c-0.5-0.1-0.9-0.2-1.3-0.4c-0.3,0.2-0.5,0.3-0.8,0.4s-0.5,0.2-0.7,0.2c-0.2,0-0.4,0.1-0.6,0.1s-0.3,0-0.5,0H113
			c-0.2,0-0.4-0.1-0.5-0.3s-0.2-0.4-0.2-0.6c0-0.2,0.1-0.4,0.2-0.6s0.3-0.3,0.5-0.3h0.2c0.5,0,0.9,0,1.3-0.1c0.4,0,0.8-0.1,1.1-0.3
			c0.3-0.1,0.7-0.4,0.9-0.6c0.3-0.3,0.5-0.6,0.8-1c0-0.1,0.1-0.1,0.1-0.2s0.1-0.1,0.1-0.1s0.1,0,0.1,0.1s0,0.1,0,0.2
			c0,0.1-0.1,0.3-0.1,0.4s-0.1,0.3-0.2,0.5c-0.1,0.2-0.1,0.3-0.2,0.5c-0.1,0.2-0.2,0.3-0.2,0.4c0.4,0.1,0.9,0.1,1.4,0.1
			c0.5,0,1-0.2,1.4-0.4c0.3-0.2,0.6-0.4,0.8-0.7C120.7,30.9,120.9,30.6,121.1,30.1z"/>
		<path d="M139.3,32.2c0.1-0.3,0.2-0.6,0.2-0.9c0.1-0.3,0.2-0.5,0.3-0.8c0-0.1,0.1-0.1,0.1-0.1c0,0,0.1,0,0.1,0.1
			c0.2,0.2,0.3,0.5,0.5,0.8c0.1,0.3,0.3,0.5,0.5,0.8c0.1,0.1,0.2,0.1,0.3,0.2c0.1,0,0.3,0.1,0.4,0.1c0.2,0,0.3,0,0.4,0s0.2,0,0.3,0
			h0.2c0.2,0,0.4,0.1,0.5,0.3s0.2,0.4,0.2,0.6c0,0.2-0.1,0.4-0.2,0.6s-0.3,0.3-0.5,0.3h-0.2c-0.4,0-0.8,0-1.1-0.1
			c0,0.4,0.1,0.9,0.1,1.3c0,0.5,0,0.9-0.1,1.4c-0.1,0.8-0.4,1.4-0.8,1.9s-0.9,1-1.5,1.3c-0.6,0.3-1.3,0.6-2,0.8
			c-0.7,0.2-1.4,0.2-2.1,0.2c-0.6,0-1.2-0.1-1.7-0.3s-1-0.5-1.4-0.8c-0.4-0.4-0.7-0.8-0.9-1.3s-0.3-1.1-0.3-1.7c0-0.7,0.1-1.4,0.3-2
			c0.2-0.7,0.5-1.3,0.9-1.9c0-0.1,0.1-0.1,0.1-0.1c0,0,0.1,0,0.1,0.1c0,0,0,0.1,0,0.1c0,0,0,0.1,0,0.1c-0.4,0.7-0.6,1.4-0.7,2.1
			c-0.1,0.7,0,1.4,0.2,1.9c0.1,0.3,0.3,0.6,0.5,0.8c0.2,0.2,0.4,0.4,0.7,0.6s0.6,0.3,1,0.4s0.8,0.1,1.2,0.1c0.5,0,1,0,1.6-0.1
			c0.5-0.1,1-0.2,1.5-0.4c0.5-0.2,0.9-0.4,1.4-0.7c0.4-0.3,0.8-0.7,1.2-1.1c0-0.4,0-0.7-0.1-1.1c-0.1-0.4-0.2-0.8-0.3-1.2
			c-0.1-0.4-0.3-0.8-0.4-1.2C139.6,33,139.4,32.6,139.3,32.2z M136.9,27.3l1.4,1.1c0.1,0.1,0.1,0.1,0,0.2l-0.9,1.2
			c-0.1,0.1-0.1,0.1-0.2,0l-1.4-1.1c-0.1-0.1-0.1-0.1,0-0.2l0.9-1.1C136.8,27.3,136.9,27.3,136.9,27.3z"/>
		<path d="M148.5,36.7c-0.8,0.3-1.5,0.5-2.2,0.8c-0.7,0.3-1.4,0.5-2.1,0.8c-0.1,0.1-0.1,0-0.1-0.1c0.1-0.1,0.1-0.3,0.2-0.5
			s0.2-0.3,0.2-0.4c0-0.1,0.1-0.1,0.2-0.2c0.2-0.1,0.4-0.2,0.8-0.3c0.3-0.1,0.7-0.3,1.1-0.4c0.4-0.1,0.8-0.3,1.2-0.4
			s0.9-0.3,1.3-0.4c0.1,0,0.1,0,0.1,0.1c0,0.1-0.1,0.1-0.1,0.2s-0.1,0.2-0.1,0.3c0,0.1-0.1,0.2-0.1,0.2s-0.1,0.1-0.1,0.2
			C148.6,36.6,148.6,36.6,148.5,36.7C148.6,36.7,148.5,36.7,148.5,36.7z"/>
		<path d="M142.4,32.4c0.3,0,0.6,0,0.9,0c0.3,0,0.6-0.1,0.9-0.1s0.5-0.2,0.7-0.3c0.2-0.1,0.4-0.3,0.5-0.5c0.2-0.4,0.4-0.8,0.6-1.2
			s0.4-0.8,0.6-1.2c0.1-0.1,0.2-0.3,0.3-0.5c0.1-0.2,0.3-0.3,0.5-0.5c0.2-0.2,0.3-0.3,0.5-0.4s0.3-0.1,0.5-0.1
			c0.2,0,0.4,0.1,0.6,0.2c0.2,0.1,0.3,0.3,0.5,0.5c0.2,0.2,0.3,0.4,0.4,0.7c0.1,0.3,0.2,0.5,0.3,0.8c0.1,0.3,0.2,0.5,0.2,0.7
			c0,0.2,0.1,0.4,0.1,0.6c0,0.2,0,0.3-0.1,0.5c0,0.2-0.1,0.3-0.1,0.5s-0.1,0.3-0.2,0.4c-0.1,0.1-0.2,0.2-0.4,0.3
			c-0.2,0.1-0.4,0.1-0.7,0.1c-0.3,0-0.6-0.1-1-0.2s-0.7-0.2-1.1-0.4c-0.4-0.2-0.7-0.3-1-0.6c-0.3,0.9-0.7,1.5-1.3,1.9
			c-0.6,0.4-1.3,0.6-2.2,0.6h-0.2c-0.2,0-0.4-0.1-0.5-0.3s-0.2-0.4-0.2-0.6c0-0.2,0.1-0.4,0.2-0.6s0.3-0.3,0.5-0.3H142.4z
			 M149.5,31.1c0,0,0-0.1,0-0.2c0-0.1-0.1-0.2-0.2-0.3c-0.1-0.1-0.1-0.2-0.2-0.3C149,30.1,149,30,149,30c-0.1-0.1-0.1-0.2-0.2-0.3
			c-0.1-0.1-0.2-0.2-0.3-0.2c-0.1-0.1-0.2-0.1-0.3-0.2c-0.1,0-0.2-0.1-0.4-0.1c-0.1,0-0.2,0-0.4,0.1s-0.2,0.1-0.3,0.2
			s-0.2,0.2-0.3,0.3c-0.1,0.1-0.1,0.2-0.2,0.3c0.4,0.3,0.8,0.5,1.3,0.7S149,31.1,149.5,31.1z"/>
		<path d="M161.7,39c-0.8,0.2-1.5,0.5-2.2,0.7c-0.7,0.2-1.3,0.5-2,0.7c-0.1,0-0.1,0-0.1-0.1c0.1-0.1,0.1-0.3,0.2-0.5
			c0.1-0.2,0.2-0.3,0.2-0.4c0-0.1,0.1-0.1,0.2-0.2c0.2-0.1,0.4-0.2,0.7-0.3s0.7-0.2,1-0.3c0.4-0.1,0.8-0.3,1.2-0.4
			c0.4-0.1,0.8-0.3,1.2-0.4c0.1,0,0.1,0,0.1,0c0,0,0,0,0,0.1c0,0.1-0.1,0.1-0.1,0.2s-0.1,0.2-0.1,0.3s-0.1,0.2-0.1,0.2
			s-0.1,0.1-0.1,0.2C161.9,38.9,161.8,38.9,161.7,39C161.8,39,161.8,39,161.7,39z M161.9,37c-0.8,0.2-1.5,0.5-2.2,0.7
			c-0.7,0.2-1.3,0.5-2,0.7c-0.1,0-0.1,0-0.1-0.1c0.1-0.1,0.1-0.3,0.2-0.5c0.1-0.2,0.2-0.3,0.2-0.4c0-0.1,0.1-0.1,0.2-0.2
			c0.2-0.1,0.4-0.2,0.7-0.3s0.7-0.2,1-0.3c0.4-0.1,0.8-0.3,1.2-0.4c0.4-0.1,0.8-0.3,1.2-0.4c0.1,0,0.1,0,0.1,0c0,0,0,0,0,0.1
			c0,0.1-0.1,0.1-0.1,0.2s-0.1,0.2-0.1,0.3s-0.1,0.2-0.1,0.2s-0.1,0.1-0.1,0.2C162.1,36.9,162.1,36.9,161.9,37
			C162,37,162,37,161.9,37z"/>
		<path d="M160.6,25c0-0.1,0.1-0.1,0.1-0.1c0.1,0,0.1,0,0.1,0.1l0.3,1.6c0.1,0.3,0.1,0.6,0.2,1c0.1,0.4,0.1,0.7,0.2,1.1
			c0.1,0.4,0.2,0.7,0.2,1c0.1,0.3,0.2,0.6,0.2,0.8c0.1,0.4,0.2,0.7,0.4,0.9c0.2,0.2,0.4,0.4,0.6,0.6c0.2,0.1,0.5,0.2,0.8,0.3
			c0.3,0.1,0.6,0.1,0.8,0.1h0.2c0.2,0,0.4,0.1,0.5,0.3c0.1,0.2,0.2,0.4,0.2,0.6c0,0.2-0.1,0.4-0.2,0.6c-0.1,0.2-0.3,0.3-0.5,0.3
			h-0.2c-0.5,0-0.9-0.1-1.2-0.2c-0.3-0.1-0.6-0.3-0.9-0.5s-0.5-0.4-0.6-0.7c-0.2-0.3-0.3-0.5-0.4-0.8c-0.1-0.3-0.2-0.6-0.3-0.8
			s-0.1-0.4-0.2-0.5c-0.3,0.4-0.6,0.7-0.8,0.9c-0.3,0.2-0.5,0.4-0.8,0.5c-0.3,0.1-0.5,0.2-0.8,0.2c-0.3,0-0.6,0-0.9,0
			c-0.1,0-0.2,0-0.3-0.1c-0.1,0-0.2-0.1-0.3-0.2s-0.2-0.2-0.2-0.3s-0.1-0.2-0.1-0.4c0.1-0.4,0.2-0.8,0.3-1.2c0.2-0.4,0.3-0.7,0.5-1
			c0.3-0.4,0.7-0.8,1.1-1.1c0.4-0.3,1-0.6,1.6-0.8c0-0.1,0-0.2-0.1-0.4c0-0.2-0.1-0.3-0.1-0.4c0-0.1,0-0.1,0-0.3
			c0-0.1,0.1-0.2,0.1-0.3s0.1-0.2,0.1-0.4S160.6,25.1,160.6,25z M160.5,28.3c-0.6,0.2-1.1,0.4-1.5,0.7s-0.8,0.6-1.1,1.1
			c-0.1,0.1-0.1,0.2,0,0.3c0.2,0.1,0.5,0.2,0.8,0.2s0.6,0,0.9-0.1c0.3-0.1,0.6-0.1,0.8-0.2c0.2-0.1,0.4-0.2,0.5-0.3
			c-0.1-0.3-0.1-0.5-0.2-0.8C160.7,28.8,160.6,28.5,160.5,28.3z M162,23.8C162,23.9,161.9,23.9,162,23.8c-0.1,0-0.2,0-0.2,0l-1.3-1
			l-0.9,1.2c0,0-0.1,0.1-0.1,0.1c0,0-0.1,0-0.1,0l-1.4-1.1c0,0,0,0-0.1-0.1s0,0,0-0.1l0.9-1.3c0,0,0.1-0.1,0.1-0.1s0.1,0,0.1,0
			l1.4,1l0.9-1.2c0,0,0.1-0.1,0.1-0.1c0,0,0,0,0.1,0l1.4,1.2c0.1,0,0.1,0.1,0,0.2L162,23.8z"/>
		<path d="M170.3,21.2c-0.4,0.2-0.8,0.3-1.2,0.5s-0.8,0.4-1.3,0.5s-0.8,0.3-1.1,0.5c-0.3,0.2-0.6,0.3-0.8,0.4c-0.1,0-0.1,0-0.1,0
			c0,0,0-0.1,0-0.1c0-0.1,0.1-0.1,0.1-0.2c0.1-0.1,0.1-0.2,0.2-0.3s0.1-0.2,0.2-0.3c0.1-0.1,0.1-0.2,0.1-0.2
			c0.1-0.1,0.1-0.2,0.2-0.2l4.3-1.8c0.1-0.1,0.1,0,0.1,0.1c0,0.1-0.1,0.1-0.1,0.2s-0.1,0.2-0.1,0.3s-0.1,0.2-0.1,0.3
			c0,0.1-0.1,0.2-0.1,0.2C170.5,21.1,170.4,21.2,170.3,21.2z"/>
		<path d="M164.4,34.2c-0.2,0-0.4-0.1-0.5-0.3c-0.1-0.2-0.2-0.4-0.2-0.6c0-0.2,0.1-0.4,0.2-0.6c0.1-0.2,0.3-0.3,0.5-0.3h0.2
			c0.2,0,0.5,0,0.8-0.1c0.3,0,0.6-0.1,0.9-0.2c0.3-0.1,0.6-0.2,0.9-0.3s0.6-0.3,0.9-0.5c-0.2-0.2-0.4-0.4-0.6-0.5s-0.5-0.3-0.7-0.3
			c-0.2,0-0.3,0-0.5,0s-0.3,0.1-0.4,0.2c-0.1,0.1-0.1,0.1-0.2,0c-0.1,0-0.1-0.1-0.1-0.2c0-0.1,0.1-0.2,0.1-0.4
			c0-0.2,0.1-0.3,0.2-0.5s0.2-0.3,0.3-0.5c0.1-0.2,0.2-0.3,0.4-0.5c0.6-0.6,1.4-0.9,2.4-0.9c0.3,0,0.5,0,0.8,0.1s0.6,0.1,0.9,0.2
			c0.3,0.1,0.5,0.3,0.7,0.5c0.2,0.2,0.3,0.5,0.3,0.8c0,0.4-0.1,0.8-0.3,1.1c-0.2,0.3-0.5,0.6-0.8,0.9c0.1,0.2,0.3,0.4,0.5,0.5
			c0.2,0.1,0.4,0.2,0.7,0.3s0.5,0.1,0.8,0.2c0.3,0,0.6,0,0.9,0h0.2c0.2,0,0.4,0.1,0.5,0.3s0.2,0.4,0.2,0.6c0,0.2-0.1,0.4-0.2,0.6
			s-0.3,0.3-0.5,0.3h-0.2c-0.9,0-1.7-0.1-2.3-0.4s-1.3-0.8-1.8-1.4c-0.4,0.3-0.8,0.6-1.2,0.8s-0.8,0.4-1.1,0.6s-0.8,0.3-1.1,0.3
			s-0.8,0.1-1.2,0.1H164.4z"/>
		<path d="M181,21.5c-0.4,0.2-0.8,0.3-1.2,0.5s-0.8,0.4-1.3,0.5s-0.8,0.3-1.1,0.5c-0.3,0.2-0.6,0.3-0.8,0.4c-0.1,0-0.1,0-0.1,0
			c0,0,0-0.1,0-0.1c0-0.1,0.1-0.1,0.1-0.2c0.1-0.1,0.1-0.2,0.2-0.3c0.1-0.1,0.1-0.2,0.2-0.3c0.1-0.1,0.1-0.2,0.1-0.2
			c0.1-0.1,0.1-0.2,0.2-0.2l4.3-1.8c0.1-0.1,0.1,0,0.1,0.1c0,0.1-0.1,0.1-0.1,0.2c0,0.1-0.1,0.2-0.1,0.3c0,0.1-0.1,0.2-0.1,0.3
			s-0.1,0.2-0.1,0.2C181.2,21.4,181.1,21.4,181,21.5z"/>
		<path d="M181.2,30.1c0-0.1,0.1-0.1,0.1-0.2s0.1-0.1,0.1-0.1s0.1,0,0.1,0.1s0,0.1,0,0.2c0,0.1-0.1,0.3-0.1,0.5
			c-0.1,0.2-0.1,0.4-0.2,0.5c0.1,0.1,0.2,0.3,0.4,0.4s0.4,0.2,0.7,0.3c0.3,0.1,0.5,0.2,0.8,0.2c0.3,0,0.5,0,0.7-0.1
			c0-0.3,0-0.5-0.1-0.8s-0.1-0.5-0.2-0.8c0.1-0.1,0.1-0.3,0.2-0.4c0.1-0.1,0.1-0.2,0.2-0.3s0.1-0.2,0.2-0.3c0.1-0.1,0.1-0.2,0.2-0.3
			c0.1-0.1,0.1-0.1,0.1,0c0.1,0.3,0.2,0.5,0.2,0.8c0,0.2,0.1,0.5,0.1,0.7c0,0.2,0,0.4,0,0.7s-0.1,0.5-0.1,0.7c0,0.1-0.1,0.3-0.2,0.5
			c-0.1,0.2-0.2,0.4-0.3,0.5c-0.1,0.2-0.2,0.3-0.4,0.4c-0.1,0.1-0.3,0.2-0.4,0.2c-0.2,0-0.4,0-0.6,0c-0.2,0-0.5-0.1-0.7-0.2
			c-0.2-0.1-0.5-0.2-0.7-0.4c-0.2-0.2-0.4-0.3-0.6-0.5c-0.2,0.3-0.5,0.6-0.9,0.8c-0.4,0.2-0.8,0.3-1.2,0.4s-0.9,0.1-1.3,0
			c-0.5-0.1-0.9-0.2-1.3-0.4c-0.3,0.2-0.5,0.3-0.8,0.4s-0.5,0.2-0.7,0.2c-0.2,0-0.4,0.1-0.6,0.1s-0.3,0-0.5,0h-0.2
			c-0.2,0-0.4-0.1-0.5-0.3s-0.2-0.4-0.2-0.6c0-0.2,0.1-0.4,0.2-0.6s0.3-0.3,0.5-0.3h0.2c0.5,0,0.9,0,1.3-0.1c0.4,0,0.8-0.1,1.1-0.3
			c0.3-0.1,0.7-0.4,0.9-0.6c0.3-0.3,0.5-0.6,0.8-1c0-0.1,0.1-0.1,0.1-0.2s0.1-0.1,0.1-0.1s0.1,0,0.1,0.1s0,0.1,0,0.2
			c0,0.1-0.1,0.3-0.1,0.4s-0.1,0.3-0.2,0.5c-0.1,0.2-0.1,0.3-0.2,0.5c-0.1,0.2-0.2,0.3-0.2,0.4c0.4,0.1,0.9,0.1,1.4,0.1
			c0.5,0,1-0.2,1.4-0.4c0.3-0.2,0.6-0.4,0.8-0.7C180.9,30.9,181.1,30.6,181.2,30.1z"/>
		<path d="M196.8,32.1c-0.1,0.3-0.3,0.6-0.6,0.8c-0.3,0.2-0.6,0.3-1,0.3c-0.2,0-0.4-0.1-0.6-0.2c-0.2-0.1-0.3-0.2-0.5-0.4
			s-0.2-0.4-0.3-0.6c-0.1-0.2-0.1-0.4-0.1-0.7c0-0.2,0-0.3,0.1-0.5c0.1-0.2,0.1-0.4,0.2-0.6c0.1-0.2,0.2-0.4,0.3-0.7
			s0.2-0.4,0.4-0.6c0.1-0.2,0.3-0.3,0.4-0.4c0.1-0.1,0.3-0.2,0.5-0.2c0.3,0,0.6,0.1,0.8,0.3c0.3,0.2,0.5,0.5,0.7,0.9
			c0.2,0.4,0.3,0.8,0.4,1.2c0.1,0.4,0.2,0.8,0.1,1.3c0,0.5-0.1,1.1-0.2,1.7s-0.3,1.2-0.5,1.7c-0.2,0.6-0.5,1.1-0.7,1.6
			s-0.6,0.9-0.9,1.3c-0.3,0.3-0.6,0.6-1,0.8s-0.7,0.4-1.1,0.5c-0.4,0.1-0.8,0.2-1.2,0.3s-0.8,0.1-1.2,0c-0.5,0-0.9-0.1-1.3-0.1
			c-0.4-0.1-0.9-0.2-1.3-0.3c-0.1,0-0.1-0.1-0.1-0.1c0-0.1,0-0.1,0-0.2c0-0.1,0.1-0.1,0.1-0.1s0.1-0.1,0.3,0c0.6,0.1,1.2,0.1,1.8,0
			c0.6-0.1,1.2-0.2,1.7-0.4c0.5-0.2,0.9-0.4,1.3-0.7c0.4-0.3,0.8-0.6,1.2-0.9c0.3-0.3,0.6-0.6,0.8-0.9c0.3-0.3,0.5-0.7,0.7-1
			c0.2-0.4,0.4-0.7,0.6-1.1s0.3-0.7,0.3-1c0-0.1,0-0.1,0-0.2c0-0.1,0-0.2,0-0.3c0-0.1,0-0.2-0.1-0.2
			C196.9,32.2,196.9,32.1,196.8,32.1z M196.4,31.1c0-0.1,0-0.1-0.1-0.2c-0.1-0.1-0.1-0.2-0.2-0.3c-0.1-0.1-0.2-0.2-0.3-0.3
			s-0.3-0.1-0.4-0.1c-0.1,0-0.2,0.1-0.3,0.1c-0.1,0.1-0.2,0.2-0.2,0.3c-0.1,0.1-0.1,0.2-0.1,0.3c0,0.1,0,0.2,0,0.2
			c0.1,0.2,0.2,0.3,0.4,0.3c0.2,0.1,0.3,0.1,0.5,0.1c0.2,0,0.4-0.1,0.5-0.1C196.3,31.3,196.4,31.2,196.4,31.1z"/>
		<path d="M199.5,20.1c-0.1,0-0.1-0.1,0-0.1c0.1-0.1,0.2-0.2,0.3-0.2c0.2-0.2,0.5-0.3,0.7-0.5c0.2-0.1,0.5-0.3,0.7-0.5
			c0.2-0.2,0.5-0.3,0.7-0.5c0.2-0.2,0.4-0.4,0.7-0.6c-0.2-0.1-0.4-0.2-0.6-0.3c-0.2-0.1-0.4-0.3-0.5-0.4c-0.1-0.1-0.1-0.2-0.1-0.3
			c0-0.1,0-0.3,0-0.4c0.1-0.2,0.2-0.4,0.3-0.6c0.1-0.2,0.2-0.4,0.4-0.6c0.1-0.2,0.3-0.3,0.5-0.4s0.4-0.2,0.6-0.1
			c0.1,0,0.3,0.1,0.4,0.2c0.1,0.1,0.2,0.2,0.2,0.4c0.1,0.2,0.1,0.3,0.1,0.5s0,0.4,0,0.5s0,0.3,0,0.5s0,0.3-0.1,0.3
			c0,0,0,0.1,0.1,0.1c0.1,0.1,0.2,0.1,0.2,0.1s0.1,0.1,0.1,0.2c0,0.1,0,0.2,0,0.4c0,0.2-0.1,0.3-0.1,0.4c-0.1,0.1-0.1,0.1-0.2,0.1
			c-0.1,0-0.1,0-0.1-0.1c0-0.1-0.1-0.1-0.1-0.1c0,0-0.1-0.1-0.1-0.1c-0.2,0.3-0.5,0.5-0.7,0.8s-0.4,0.4-0.7,0.6
			c-0.2,0.2-0.5,0.3-0.7,0.4s-0.6,0.3-0.9,0.4c-0.1,0-0.3,0.1-0.4,0.1C199.7,20.1,199.6,20.1,199.5,20.1z M201.9,15.9
			c0.1,0.2,0.3,0.4,0.5,0.5c0.2,0.1,0.4,0.2,0.6,0.3h0c0-0.1,0-0.2,0-0.2s0-0.2,0-0.3c0-0.1,0-0.2,0-0.3c0-0.1-0.1-0.2-0.1-0.2
			c-0.1-0.1-0.1-0.1-0.2-0.1c-0.1,0-0.2,0-0.3,0.1c-0.1,0-0.2,0.1-0.3,0.2C202,15.8,201.9,15.9,201.9,15.9z"/>
		<path d="M201.9,27.4c0-0.2,0-0.5,0-0.7s0-0.5,0.1-0.8c0-0.1,0.1-0.2,0.2-0.2c0.1,0,0.2,0,0.3,0c0.5,0.1,1,0.4,1.4,0.8
			c0.5,0.4,0.9,0.8,1.2,1.3c0.3,0.5,0.6,1,0.9,1.5s0.4,1,0.4,1.5c0,0.2,0,0.4,0,0.6c0,0.2-0.1,0.5-0.1,0.7s-0.1,0.4-0.2,0.6
			s-0.2,0.3-0.3,0.4c-0.3,0.2-0.6,0.4-1,0.5c-0.4,0.1-0.8,0.3-1.2,0.3s-0.9,0.2-1.3,0.2c-0.4,0-0.9,0.1-1.2,0.1c-0.1,0-0.2,0-0.3,0
			c-0.1,0-0.3,0-0.4-0.1S200.1,34,200,34c-0.1-0.1-0.1-0.2-0.1-0.3c0,0,0-0.2,0-0.3s0-0.4,0-0.5c0-0.2,0-0.4,0.1-0.5
			c0-0.1,0.1-0.2,0.1-0.2c0,0,0,0,0.1,0s0,0.1,0.1,0.1c0.1,0.1,0.3,0.2,0.5,0.2c0.2,0,0.4,0.1,0.6,0.1c0.2,0,0.4,0,0.6,0
			c0.2,0,0.4,0,0.5,0c0.3,0,0.5,0,0.8-0.1c0.3,0,0.6-0.1,0.8-0.2c0.3-0.1,0.5-0.1,0.8-0.2c0.2-0.1,0.4-0.2,0.6-0.3
			c0.1,0,0.1-0.1,0.2-0.1c0.1-0.1,0.1-0.1,0.1-0.2c-0.1-0.4-0.2-0.8-0.5-1.2c-0.2-0.4-0.5-0.8-0.9-1.2c-0.3-0.4-0.7-0.7-1.2-1
			C202.8,27.7,202.3,27.5,201.9,27.4z M201.6,21l1.4,1.1c0.1,0.1,0.1,0.1,0,0.2l-0.9,1.2c-0.1,0.1-0.1,0.1-0.2,0l-1.4-1.1
			c-0.1-0.1-0.1-0.1,0-0.2l0.9-1.1C201.4,21,201.5,21,201.6,21z"/>
		<path d="M222.2,34.2c-0.1,0-0.3,0-0.4,0s-0.4,0-0.6,0s-0.4,0-0.6,0c-0.2,0-0.4,0-0.6-0.1c-0.3,0-0.5-0.1-0.7-0.2s-0.3-0.3-0.4-0.4
			c-0.1-0.2-0.2-0.4-0.2-0.6c0-0.2-0.1-0.4-0.1-0.7c0-0.2,0-0.5,0.1-0.8s0.2-0.6,0.3-0.9s0.3-0.5,0.5-0.7c0.2-0.2,0.5-0.3,0.8-0.3
			c0.3,0,0.6,0.1,0.9,0.3s0.5,0.5,0.7,0.7c0.2,0.3,0.4,0.6,0.6,0.9c0.2,0.3,0.3,0.6,0.3,0.9h1.3h0.2c0.2,0,0.4,0.1,0.5,0.3
			c0.1,0.2,0.2,0.4,0.2,0.6c0,0.2-0.1,0.4-0.2,0.6c-0.1,0.2-0.3,0.3-0.5,0.3h-1.3c0,0.2,0,0.4,0,0.7c0,0.3,0,0.5-0.1,0.8
			c-0.2,0.7-0.4,1.3-0.9,1.8c-0.4,0.5-0.9,1-1.5,1.3c-0.6,0.4-1.2,0.6-1.9,0.8s-1.3,0.3-2,0.3c-0.6,0-1.2-0.1-1.7-0.3
			c-0.5-0.2-1-0.5-1.4-0.8s-0.7-0.8-0.9-1.3c-0.2-0.5-0.3-1.1-0.3-1.7c0-0.7,0.1-1.4,0.3-2.1c0.2-0.7,0.5-1.3,0.9-1.9
			c0-0.1,0.1-0.1,0.1-0.1c0,0,0.1,0,0.1,0.1s0,0.1,0.1,0.1c0,0,0,0.1,0,0.1c-0.2,0.4-0.3,0.7-0.4,1.1c-0.1,0.4-0.2,0.7-0.2,1.1
			s-0.1,0.7,0,1c0,0.3,0.1,0.6,0.2,0.9c0.1,0.3,0.3,0.6,0.5,0.8c0.2,0.2,0.4,0.5,0.7,0.6s0.6,0.3,1,0.4c0.4,0.1,0.8,0.1,1.2,0.1
			c0.5,0,1.1-0.1,1.6-0.2c0.5-0.1,1-0.3,1.5-0.5s0.9-0.5,1.4-0.8c0.4-0.3,0.8-0.7,1.2-1.1c0-0.1,0-0.2,0-0.3c0-0.1,0-0.2-0.1-0.4
			c0-0.1-0.1-0.3-0.1-0.4C222.3,34.3,222.3,34.2,222.2,34.2z M221.3,27.4c-0.1,0-0.2,0-0.2,0l-1.3-1l-0.8,1.2c0,0-0.1,0.1-0.1,0.1
			c0,0-0.1,0-0.1,0l-1.4-1c0,0,0,0-0.1-0.1c0,0,0,0,0-0.1l0.9-1.2c0,0,0.1-0.1,0.1-0.1c0,0,0.1,0,0.1,0l1.4,1l0.9-1.2
			c0,0,0.1-0.1,0.1-0.1c0,0,0,0,0.1,0l1.4,1c0.1,0,0.1,0.1,0,0.2L221.3,27.4z M219.3,32c0.1,0.1,0.2,0.2,0.3,0.3
			c0.2,0.1,0.4,0.1,0.6,0.2c0.2,0,0.4,0,0.7,0c0.2,0,0.5,0,0.7-0.1c0-0.1-0.1-0.2-0.2-0.3s-0.2-0.3-0.3-0.4s-0.3-0.2-0.4-0.3
			c-0.2-0.1-0.3-0.1-0.4-0.1c-0.1,0-0.2,0-0.3,0.1s-0.2,0.1-0.3,0.2c-0.1,0.1-0.2,0.2-0.2,0.2S219.3,31.9,219.3,32z"/>
		<path d="M230,37.6c-0.8,0.3-1.5,0.5-2.2,0.8c-0.7,0.3-1.4,0.5-2.1,0.8c-0.1,0.1-0.1,0-0.1-0.1c0.1-0.1,0.1-0.3,0.2-0.5
			s0.2-0.3,0.2-0.4c0-0.1,0.1-0.1,0.2-0.2c0.2-0.1,0.4-0.2,0.8-0.3c0.3-0.1,0.7-0.3,1.1-0.4c0.4-0.1,0.8-0.3,1.2-0.4
			s0.9-0.3,1.3-0.4c0.1,0,0.1,0,0.1,0.1c0,0.1-0.1,0.1-0.1,0.2s-0.1,0.2-0.1,0.3s-0.1,0.2-0.1,0.2s-0.1,0.1-0.1,0.2
			C230.2,37.4,230.2,37.5,230,37.6C230.1,37.5,230.1,37.5,230,37.6z"/>
		<path d="M230.2,27c0.3,0,0.5,0.2,0.7,0.4c0.2,0.2,0.3,0.5,0.4,0.9s0.1,0.7,0.1,1.1c0,0.4,0,0.7-0.1,1c-0.1,0.3-0.2,0.6-0.4,0.9
			c-0.2,0.3-0.3,0.5-0.6,0.8c0.1,0.1,0.3,0.1,0.5,0.2c0.2,0,0.4,0.1,0.6,0.1c0.2,0,0.4,0,0.6,0s0.4,0,0.6,0h0.2
			c0.2,0,0.3,0.1,0.4,0.1s0.2,0.2,0.2,0.3c0.1,0.1,0.1,0.3,0.1,0.4s0,0.3-0.1,0.4c-0.1,0.1-0.1,0.2-0.2,0.3
			c-0.1,0.1-0.2,0.1-0.4,0.1h-0.2c-0.8,0-1.6-0.1-2.4-0.3c-0.7-0.2-1.4-0.4-2-0.8c-0.3,0.2-0.6,0.3-0.9,0.4c-0.3,0.1-0.6,0.2-1,0.3
			s-0.7,0.2-1.1,0.2c-0.4,0-0.8,0.1-1.2,0.1H224c-0.2,0-0.3,0-0.4-0.1s-0.2-0.2-0.2-0.3c-0.1-0.1-0.1-0.3-0.1-0.4
			c0-0.2,0-0.3,0.1-0.4c0.1-0.1,0.1-0.2,0.2-0.3c0.1-0.1,0.2-0.1,0.4-0.1h0.2c0.2,0,0.5,0,0.7,0c0.2,0,0.4,0,0.7-0.1
			s0.4-0.1,0.7-0.1c0.2-0.1,0.5-0.1,0.8-0.2c-0.1-0.1-0.1-0.3-0.2-0.5c0-0.2,0-0.4,0-0.6c0-0.5,0.2-1,0.4-1.5s0.5-0.9,0.9-1.3
			c0.3-0.4,0.7-0.7,1.1-0.9C229.6,27,229.9,26.9,230.2,27z M228.5,22.3c0-0.1,0.1-0.1,0.2,0l1.3,1.1c0,0,0,0,0.1,0.1
			c0,0,0,0.1,0,0.1l-0.9,1.1c-0.1,0.1-0.1,0.1-0.2,0l-1.3-1.1c0,0,0,0,0-0.1c0,0,0-0.1,0-0.1L228.5,22.3z M230.7,30.3
			c0-0.2,0-0.4-0.1-0.7c-0.1-0.2-0.2-0.4-0.3-0.6c-0.1-0.1-0.2-0.2-0.3-0.2c-0.1,0-0.2,0-0.3,0c-0.1,0-0.3,0.1-0.5,0.1
			c-0.2,0.1-0.4,0.2-0.5,0.3c-0.2,0.1-0.3,0.3-0.5,0.4c-0.1,0.2-0.3,0.3-0.3,0.5c0,0.2,0.1,0.4,0.1,0.5c0.1,0.1,0.2,0.3,0.3,0.4
			c0.1,0.1,0.2,0.2,0.4,0.3c0.1,0.1,0.2,0.1,0.3,0.2c0.1,0,0.2-0.1,0.4-0.1c0.2-0.1,0.4-0.2,0.6-0.3c0.2-0.1,0.4-0.2,0.5-0.3
			C230.5,30.5,230.6,30.4,230.7,30.3z"/>
		<path d="M236.6,30.1c0,0.1,0,0.2,0,0.3c0,0.1,0,0.2,0,0.3c0,0.2,0.1,0.4,0.2,0.6c0.1,0.2,0.2,0.4,0.4,0.5c0.2,0.2,0.5,0.3,0.8,0.4
			c0.3,0.1,0.7,0.2,1.2,0.2h0.2c0.2,0,0.4,0.1,0.5,0.3c0.1,0.2,0.2,0.4,0.2,0.6c0,0.2-0.1,0.4-0.2,0.6c-0.1,0.2-0.3,0.3-0.5,0.3
			h-0.2c-0.8,0-1.5-0.2-2-0.5s-0.9-0.8-1.2-1.3c-0.2,0.4-0.4,0.7-0.7,0.9c-0.3,0.2-0.5,0.4-0.8,0.5c-0.3,0.1-0.6,0.2-0.9,0.2
			s-0.6,0.1-0.8,0.1h-0.2c-0.2,0-0.4-0.1-0.5-0.3c-0.1-0.2-0.2-0.4-0.2-0.6c0-0.2,0.1-0.4,0.2-0.6c0.1-0.2,0.3-0.3,0.5-0.3h0.2
			c0.2,0,0.5,0,0.7,0c0.3,0,0.5-0.1,0.8-0.1s0.5-0.2,0.7-0.3c0.2-0.1,0.5-0.3,0.7-0.6c0.1-0.2,0.3-0.4,0.4-0.6
			c0.1-0.2,0.2-0.4,0.3-0.6c0,0,0-0.1,0.1-0.1c0,0,0.1,0,0.1,0C236.5,30,236.5,30,236.6,30.1C236.6,30,236.6,30,236.6,30.1z
			 M235.5,25l1.4,1.1c0.1,0.1,0.1,0.1,0,0.2l-0.9,1.2c-0.1,0.1-0.1,0.1-0.2,0l-1.4-1.1c-0.1-0.1-0.1-0.1,0-0.2l0.9-1.1
			C235.4,24.9,235.5,24.9,235.5,25z"/>
		<path d="M239.2,25.8c-0.1,0-0.1-0.1,0-0.1c0.1-0.1,0.2-0.2,0.3-0.2c0.2-0.2,0.5-0.3,0.7-0.5c0.2-0.2,0.5-0.3,0.7-0.5
			c0.2-0.2,0.5-0.3,0.7-0.5s0.4-0.4,0.7-0.6c-0.2-0.1-0.4-0.2-0.6-0.3c-0.2-0.1-0.4-0.3-0.5-0.4c-0.1-0.1-0.1-0.2-0.1-0.3
			c0-0.1,0-0.3,0-0.4c0.1-0.2,0.2-0.4,0.3-0.6c0.1-0.2,0.2-0.4,0.4-0.6c0.1-0.2,0.3-0.3,0.5-0.4s0.4-0.2,0.6-0.1
			c0.1,0,0.3,0.1,0.4,0.2s0.2,0.2,0.2,0.4c0.1,0.1,0.1,0.3,0.1,0.5c0,0.2,0,0.4,0,0.5s0,0.3,0,0.5s0,0.3-0.1,0.3c0,0,0,0.1,0.1,0.1
			c0.1,0.1,0.2,0.1,0.2,0.1s0.1,0.1,0.1,0.2c0,0.1,0,0.2,0,0.4c0,0.2-0.1,0.3-0.1,0.4c-0.1,0.1-0.1,0.1-0.2,0.1
			c-0.1,0-0.1,0-0.1-0.1c0-0.1-0.1-0.1-0.1-0.1s-0.1-0.1-0.1-0.1c-0.2,0.3-0.5,0.5-0.7,0.8s-0.4,0.4-0.7,0.6
			c-0.2,0.2-0.5,0.3-0.7,0.4c-0.3,0.1-0.6,0.3-0.9,0.4c-0.1,0-0.3,0.1-0.4,0.1C239.4,25.8,239.3,25.8,239.2,25.8z M241.6,21.7
			c0.1,0.2,0.3,0.4,0.5,0.5c0.2,0.1,0.4,0.2,0.6,0.3h0c0-0.1,0-0.1,0-0.2s0-0.2,0-0.3c0-0.1,0-0.2,0-0.3c0-0.1-0.1-0.2-0.1-0.2
			c-0.1-0.1-0.1-0.1-0.2-0.1c-0.1,0-0.2,0-0.3,0.1c-0.1,0-0.2,0.1-0.3,0.2C241.7,21.5,241.6,21.6,241.6,21.7z"/>
		<path class="st0" d="M249.7,37c-0.8,0.3-1.5,0.5-2.2,0.8c-0.7,0.3-1.4,0.5-2.1,0.8c-0.1,0.1-0.1,0-0.1-0.1
			c0.1-0.1,0.1-0.3,0.2-0.5s0.2-0.3,0.2-0.4c0-0.1,0.1-0.1,0.2-0.2c0.2-0.1,0.4-0.2,0.8-0.3c0.3-0.1,0.7-0.3,1.1-0.4
			c0.4-0.1,0.8-0.3,1.2-0.4s0.9-0.3,1.3-0.4c0.1,0,0.1,0,0.1,0.1c0,0.1-0.1,0.1-0.1,0.2s-0.1,0.2-0.1,0.3c0,0.1-0.1,0.2-0.1,0.2
			s-0.1,0.1-0.1,0.2C249.8,36.9,249.8,36.9,249.7,37C249.8,37,249.7,37,249.7,37z"/>
		<path d="M239.2,32.4c0.3,0,0.6,0,0.9,0s0.8-0.1,1.2-0.2s0.9-0.2,1.4-0.5c0.5-0.2,1-0.5,1.6-0.9c0.1-0.1,0.3-0.1,0.4-0.1
			c0.1,0,0.2,0,0.4,0.1c0.2,0.1,0.4,0.2,0.6,0.3c0.3,0.1,0.5,0.2,0.8,0.3c0.3,0.1,0.5,0.2,0.8,0.2c0.3,0.1,0.5,0.1,0.6,0.2
			c0.3,0.1,0.5,0.1,0.7,0s0.3-0.2,0.3-0.3c-0.1-0.8-0.2-1.6-0.3-2.3c-0.1-0.7-0.2-1.4-0.3-2.1s-0.2-1.5-0.3-2.2s-0.2-1.6-0.3-2.6
			c0-0.3-0.1-0.6-0.1-0.9s-0.2-0.6-0.4-0.9c-0.1-0.1-0.1-0.1-0.1-0.2c0,0,0-0.1,0.1-0.2l0.7-1.3c0-0.1,0.1-0.1,0.1-0.1
			s0.1,0,0.1,0.1c0.1,0.2,0.1,0.4,0.2,0.5c0.1,0.2,0.2,0.4,0.3,0.5s0.2,0.3,0.4,0.5c0.1,0.2,0.3,0.3,0.5,0.4
			c-0.1,0.2-0.2,0.3-0.3,0.5c-0.1,0.1-0.2,0.2-0.2,0.3c-0.1,0.1-0.1,0.2-0.1,0.3c0,0.1,0,0.2,0,0.3c0.1,0.7,0.1,1.4,0.2,2.1
			s0.2,1.4,0.2,2.1c0.1,0.7,0.2,1.3,0.2,1.9c0.1,0.6,0.1,1.1,0.1,1.4c0,0.3,0,0.7,0,1.2s-0.1,0.8-0.3,1.2c-0.1,0.4-0.3,0.7-0.5,1
			c-0.2,0.3-0.5,0.4-0.8,0.4c-0.2,0-0.4,0-0.7-0.1c-0.3-0.1-0.6-0.2-0.9-0.3c-0.3-0.1-0.6-0.2-0.9-0.3c-0.3-0.1-0.5-0.2-0.7-0.3
			c-0.1-0.1-0.3-0.1-0.3-0.1s-0.2,0-0.3,0.1c-0.4,0.2-0.8,0.4-1.1,0.6c-0.4,0.2-0.7,0.4-1.1,0.5s-0.8,0.3-1.2,0.3s-0.9,0.1-1.4,0.1
			 M243.4,38.6C243.4,38.6,243.4,38.6,243.4,38.6c-0.1,0.1-0.2,0.1-0.2,0l-1.3-1l-0.9,1.2c-0.1,0.1-0.1,0.1-0.2,0l-1.4-1.1
			c-0.1,0-0.1-0.1,0-0.1l0.9-1.3c0,0,0.1-0.1,0.1-0.1c0,0,0,0,0.1,0l1.3,1l0.9-1.2c0-0.1,0.1-0.1,0.1,0l1.4,1.2c0.1,0,0.1,0.1,0,0.2
			L243.4,38.6z"/>
		<path d="M80.4,39.4c0,0.1-0.1,0.1-0.2,0.1c-0.4,0-1.1-0.4-1.9-1.1c-0.6-0.5-1.1-1.1-1.5-1.6c-0.9-1.1-1.5-2.4-2.1-3.8
			c-1.3,0-2-0.2-2.1-0.5c0.4-0.3,0.7-0.7,0.9-1c0.3-0.4,0.4-0.8,0.4-1.2c-0.3,0-0.7,0.2-1.2,0.6c-0.1,0.1-0.4,0.4-1,0.9
			c-0.1,0-0.2-0.1-0.3-0.4c-0.1-0.3-0.2-0.7-0.2-1.2c-0.3-0.2-0.6-0.3-0.8-0.5c-0.2-0.2-0.3-0.3-0.3-0.4c0-0.2,0.2-0.4,0.5-0.7
			c0.2-0.1,0.4-0.3,0.6-0.4c0-0.4,0-0.7,0.1-1.1c0.1-0.3,0.2-0.5,0.3-0.5c0.4,0.4,0.8,0.7,1,0.9c0.4,0.3,0.9,0.5,1.2,0.5
			c0-0.4-0.2-0.8-0.5-1.2c-0.3-0.3-0.6-0.7-1-1c0-0.2,0.3-0.3,1-0.5c0.5-0.1,0.9-0.2,1.2-0.2c0.9-2.7,2.3-4.7,4-6.1
			c0.6-0.5,1-0.7,1.2-0.7c0.1,0,0.2,0.1,0.2,0.2c0,0.1-0.2,0.4-0.7,0.9c-1.5,1.7-2.3,3.6-2.7,5.7c0.4,0.1,0.7,0.1,0.8,0.2
			c0.1,0.1,0.2,0.2,0.2,0.3c-0.4,0.3-0.7,0.7-0.9,1c-0.3,0.4-0.5,0.8-0.5,1.2c0.4,0,0.8-0.2,1.1-0.5c0.2-0.2,0.6-0.6,1-1
			c0.2,0,0.3,0.2,0.5,0.7C79,27.5,79,27.8,79,28c0.7,0.3,1.1,0.7,1.1,1c0,0.3-0.3,0.6-1,1c0,0.6-0.1,1.1-0.2,1.3
			c-0.1,0.2-0.2,0.2-0.4,0.3c-0.7-0.9-1.5-1.3-2.2-1.4c0,0.3,0.2,0.8,0.5,1.2c0.1,0.2,0.5,0.5,1,1c0,0.1-0.1,0.1-0.2,0.2
			c-0.1,0.1-0.4,0.1-0.9,0.3c0.2,1.1,0.6,2.2,1.3,3.3c0.7,1.1,1.4,2.1,2.2,2.8C80.3,39.1,80.4,39.2,80.4,39.4z M73.5,29.8
			c-0.2-0.1-0.5-0.2-0.8-0.3c0,0-0.2-0.1-0.5-0.2c-0.3-0.1-0.4-0.2-0.4-0.3c0,0,0.3-0.2,1-0.3c0.1-0.1,0.4-0.2,0.7-0.3
			c-0.4-0.1-0.7-0.3-1-0.5c-0.1-0.1-0.4-0.4-0.7-0.6c-0.1,0-0.1,0.1-0.1,0.3c0,0.2,0,0.4,0,0.8c-0.6,0.3-0.9,0.6-0.9,0.7
			c0,0.1,0.1,0.2,0.3,0.3c0.2,0.1,0.4,0.2,0.7,0.3c0,0.1,0,0.4,0.1,0.7c0.1,0.4,0.1,0.6,0.2,0.6l0.7-0.7
			C72.9,30,73.2,29.9,73.5,29.8z M79.2,19.1c-1.8,1.2-3.2,3.4-4.3,6.5c-0.7,0-1.2,0-1.4,0.1c-0.2,0-0.3,0.1-0.3,0.2
			c0.5,0.4,0.9,0.9,1.2,1.4c0.1-0.3,0.3-0.5,0.4-0.6c0.1-0.2,0.2-0.5,0.4-0.7c0,0,0.1,0.1,0.1,0.3c0,0.2,0.1,0.3,0.1,0.3
			c0.1,0.1,0.2,0.3,0.4,0.7c0.1-0.3,0.3-0.6,0.5-0.9c0.1-0.1,0.3-0.4,0.6-0.6c0-0.1-0.1-0.1-0.3-0.2c-0.1,0-0.3,0-0.5-0.1
			c0.3-1.2,0.5-2,0.6-2.4C77.2,21.8,78,20.5,79.2,19.1z M79.6,38.9c-0.7-0.7-1.4-1.5-2-2.6c-0.7-1.2-1.1-2.5-1.4-3.8
			c0.5,0,0.8-0.1,0.8-0.2c-0.5-0.5-1-1-1.2-1.5c-0.1,0.2-0.2,0.4-0.3,0.7c0,0-0.1,0.2-0.2,0.4c-0.1,0.2-0.1,0.3-0.2,0.3
			c-0.2,0-0.4-0.4-0.7-1.3c-0.2,0.4-0.4,0.7-0.6,0.9c-0.2,0.2-0.4,0.4-0.6,0.6c0,0,0.1,0.1,0.3,0.1c0.1,0,0.4,0.1,0.6,0.1
			c0.2,0,0.3,0,0.4,0c0.1,0,0.3,0,0.3,0C75.9,35.4,77.5,37.5,79.6,38.9z M76.4,29.1c0-0.4-0.1-0.7-0.4-0.9c-0.3-0.2-0.6-0.4-0.9-0.4
			c-0.4,0-0.7,0.1-0.9,0.4c-0.2,0.2-0.4,0.6-0.4,0.9c0,0.3,0.1,0.6,0.4,0.9c0.3,0.2,0.6,0.4,0.9,0.4c0.4,0,0.7-0.1,0.9-0.4
			C76.3,29.7,76.4,29.4,76.4,29.1z M79.5,28.9c0-0.2-0.3-0.3-0.9-0.6c0-0.4,0-0.7-0.1-0.9c-0.1-0.2-0.1-0.4-0.2-0.4
			c-0.1,0.1-0.3,0.3-0.7,0.7c-0.3,0.3-0.6,0.4-0.9,0.6c0.1,0,0.4,0.2,1.1,0.4c0.4,0.1,0.6,0.3,0.6,0.3c0,0.1-0.2,0.2-0.6,0.3
			c-0.3,0.1-0.7,0.2-1.1,0.3c0.3,0.1,0.6,0.3,1,0.5c0.1,0.1,0.4,0.3,0.6,0.6c0.1,0,0.2-0.4,0.2-1.2C79.2,29.3,79.5,29.1,79.5,28.9z"
			/>
		<path d="M270.9,28.7c0,0.1-0.1,0.3-0.2,0.4c-0.2,0.2-0.4,0.4-0.8,0.6c0,0.4-0.1,0.7-0.2,1.1c-0.1,0.3-0.2,0.5-0.3,0.5
			c-0.4-0.4-0.7-0.7-1.1-1c-0.4-0.3-0.8-0.5-1.2-0.5c0,0.4,0.2,0.8,0.6,1.2c0.3,0.3,0.6,0.7,0.9,1c0,0.2-0.3,0.3-1,0.5
			c-0.5,0.1-0.9,0.1-1.2,0.1c-0.5,1.4-1.1,2.7-2,3.9c-0.4,0.5-0.9,1.1-1.5,1.7c-0.8,0.8-1.4,1.2-1.8,1.2c-0.1,0-0.2-0.1-0.2-0.2
			c0-0.1,0.2-0.4,0.7-0.9c0.7-0.8,1.2-1.4,1.5-2.1c0.6-1.1,1-2.3,1.2-3.7c-0.4-0.1-0.7-0.1-0.8-0.2c-0.1-0.1-0.2-0.1-0.2-0.3
			c0.9-0.8,1.4-1.5,1.4-2.2c-0.4,0-0.8,0.2-1.2,0.5c-0.2,0.2-0.6,0.6-1,1c-0.1,0-0.2-0.2-0.4-0.5c-0.1-0.4-0.2-0.7-0.2-1.1
			c-0.4-0.2-0.6-0.4-0.7-0.4c-0.3-0.2-0.4-0.4-0.4-0.6c0-0.1,0.1-0.3,0.2-0.4c0.1-0.1,0.4-0.3,0.8-0.5c0-1.1,0.2-1.6,0.6-1.6
			c0.8,0.9,1.5,1.3,2.2,1.4c0-0.3-0.2-0.8-0.5-1.2c0,0-0.3-0.4-0.9-1c0-0.1,0.1-0.2,0.2-0.2c0.2-0.1,0.4-0.1,0.9-0.2
			c-0.2-1.1-0.6-2.2-1.3-3.3c-0.6-1.1-1.4-2.1-2.2-2.8c-0.1-0.1-0.2-0.2-0.2-0.3c0-0.1,0.1-0.2,0.3-0.2c0.3,0,0.7,0.2,1.3,0.6
			c1.8,1.3,3.2,3.2,4.1,5.8c1.4,0,2.1,0.2,2.1,0.6c-0.4,0.3-0.7,0.7-0.9,1c-0.3,0.4-0.4,0.8-0.4,1.2c0.3,0,0.7-0.2,1-0.5l1.1-1
			c0.2,0,0.4,0.5,0.5,1.4c0,0.1,0,0.2,0,0.3C270.5,28.1,270.9,28.4,270.9,28.7z M267.7,25.5c0,0-0.1-0.1-0.4-0.1
			c-0.2,0-0.4-0.1-0.5-0.1h-0.4c-0.1,0-0.2,0-0.3,0.1c-0.4-1.2-0.9-2.4-1.7-3.5c-0.9-1.2-1.8-2.2-3-3c0.8,0.7,1.4,1.6,2,2.6
			c0.7,1.2,1.2,2.5,1.4,3.8c-0.5,0-0.8,0.1-0.8,0.2c0.6,0.5,1,1,1.3,1.5c0.1-0.2,0.2-0.5,0.3-0.7c0,0,0.1-0.1,0.1-0.3
			c0.1-0.2,0.1-0.3,0.2-0.3c0.2,0,0.4,0.5,0.7,1.4c0.2-0.3,0.3-0.7,0.6-0.9C267.3,25.9,267.5,25.7,267.7,25.5z M264.3,29.5
			c-0.1-0.1-0.5-0.2-1.1-0.4c-0.4-0.1-0.6-0.2-0.6-0.3c0,0,0.3-0.2,0.9-0.4c0.1-0.1,0.4-0.2,0.7-0.3c-0.3-0.1-0.7-0.3-1-0.5
			c-0.1-0.1-0.4-0.3-0.7-0.6c-0.1,0-0.2,0.4-0.2,1.2c-0.6,0.3-0.9,0.6-0.9,0.7c0,0.2,0.3,0.3,0.9,0.6c0,0.8,0.1,1.3,0.3,1.3
			c0,0,0.2-0.2,0.6-0.5C263.8,29.8,264.1,29.6,264.3,29.5z M267.8,32c-0.5-0.4-0.9-0.9-1.2-1.4c-0.1,0.2-0.2,0.4-0.3,0.7
			c0,0-0.1,0.2-0.2,0.4c-0.1,0.2-0.2,0.3-0.2,0.3c0,0-0.1-0.1-0.2-0.3c-0.1-0.2-0.1-0.3-0.2-0.3c0-0.1-0.1-0.3-0.3-0.7
			c-0.1,0.3-0.3,0.6-0.5,0.8c-0.2,0.2-0.4,0.4-0.6,0.6c0,0.1,0.3,0.1,0.8,0.3c-0.3,1.3-0.5,2.1-0.6,2.4c-0.5,1.4-1.3,2.8-2.4,4.1
			c1.9-1.3,3.3-3.4,4.3-6.5c0.7,0,1,0,0.9,0C267.5,32.3,267.8,32.2,267.8,32z M267.2,28.8c0-0.4-0.1-0.7-0.4-0.9
			c-0.2-0.2-0.6-0.3-0.9-0.3c-0.3,0-0.6,0.1-0.9,0.4c-0.3,0.2-0.4,0.5-0.4,0.9c0,0.4,0.1,0.7,0.4,0.9c0.3,0.2,0.6,0.4,0.9,0.4
			c0.4,0,0.7-0.1,0.9-0.4C267.1,29.5,267.2,29.1,267.2,28.8z M270.3,28.7c0-0.1-0.1-0.2-0.2-0.3s-0.4-0.2-0.7-0.3
			c0-0.4,0-0.7-0.1-0.9c-0.1-0.2-0.1-0.4-0.2-0.4c0,0-0.2,0.2-0.5,0.5c-0.3,0.3-0.7,0.6-1.1,0.7c0.2,0.1,0.4,0.2,0.8,0.4
			c0,0,0.2,0.1,0.6,0.2c0.3,0.1,0.4,0.2,0.4,0.2c0,0.1-0.2,0.2-0.6,0.3c-0.6,0.2-1,0.3-1.1,0.3c0.4,0.1,0.7,0.3,1,0.5
			c0.1,0.1,0.4,0.3,0.6,0.6c0.1,0,0.1-0.1,0.2-0.3c0-0.1,0-0.4,0-0.8C270,29.1,270.3,28.8,270.3,28.7z"/>
		<path class="st0" d="M247.1,20.4c0,0,0.5,0.5,0.6,1.5l1.2,9.7c0,0-0.1,0.4-0.7,0.4c0,0-0.2,0.2-3.6-1.1v1.9c0,0,2.7,1.1,3.4,1
			c0,0,0.8,0.2,1.3-1.4c0,0,0.3-0.8,0.3-1.7l-0.9-8.2c0,0-0.2-0.3,0.6-1.4c0,0-0.4,0.2-1.5-2.1L247.1,20.4z"/>
	</g>
	<rect class="st1" width="341.1" height="55.1"/>
</g>
</svg>
