<?xml version="1.0" encoding="utf-8"?>
<!-- Generator: Adobe Illustrator 19.2.0, SVG Export Plug-In . SVG Version: 6.00 Build 0)  -->
<svg version="1.1" id="Layer_1" xmlns="http://www.w3.org/2000/svg" xmlns:xlink="http://www.w3.org/1999/xlink" x="0px" y="0px"
	 viewBox="0 0 341.1 55.1" style="enable-background:new 0 0 341.1 55.1;" xml:space="preserve">
<style type="text/css">
	.st0{fill:#BA0017;}
	.st1{fill:none;}
</style>
<g>
	<g>
		<g>
			<path d="M100.7,27.4c-0.1,0-0.1-0.1,0-0.1c0.1-0.1,0.2-0.2,0.3-0.2c0.2-0.2,0.5-0.3,0.7-0.5c0.2-0.2,0.5-0.3,0.7-0.5
				c0.2-0.2,0.5-0.3,0.7-0.5s0.4-0.4,0.7-0.6c-0.2-0.1-0.4-0.2-0.6-0.3c-0.2-0.1-0.4-0.3-0.5-0.4c-0.1-0.1-0.1-0.2-0.1-0.3
				c0-0.1,0-0.3,0-0.4c0.1-0.2,0.2-0.4,0.3-0.6c0.1-0.2,0.2-0.4,0.4-0.6c0.1-0.2,0.3-0.3,0.5-0.4s0.4-0.2,0.6-0.1
				c0.1,0,0.3,0.1,0.4,0.2s0.2,0.2,0.2,0.4c0.1,0.1,0.1,0.3,0.1,0.5c0,0.2,0,0.4,0,0.5s0,0.3,0,0.5s0,0.3-0.1,0.3c0,0,0,0.1,0.1,0.1
				c0.1,0.1,0.2,0.1,0.2,0.1s0.1,0.1,0.1,0.2c0,0.1,0,0.2,0,0.4c0,0.2-0.1,0.3-0.1,0.4c-0.1,0.1-0.1,0.1-0.2,0.1
				c-0.1,0-0.1,0-0.1-0.1c0-0.1-0.1-0.1-0.1-0.1s-0.1-0.1-0.1-0.1c-0.2,0.3-0.5,0.5-0.7,0.8s-0.4,0.4-0.7,0.6
				c-0.2,0.2-0.5,0.3-0.7,0.4c-0.3,0.1-0.6,0.3-0.9,0.4c-0.1,0-0.3,0.1-0.4,0.1C100.9,27.4,100.7,27.4,100.7,27.4z M103.1,23.3
				c0.1,0.2,0.3,0.4,0.5,0.5c0.2,0.1,0.4,0.2,0.6,0.3h0c0-0.1,0-0.1,0-0.2s0-0.2,0-0.3c0-0.1,0-0.2,0-0.3c0-0.1-0.1-0.2-0.1-0.2
				c-0.1-0.1-0.1-0.1-0.2-0.1c-0.1,0-0.2,0-0.3,0.1c-0.1,0-0.2,0.1-0.3,0.2C103.1,23.1,103.1,23.2,103.1,23.3z"/>
			<path d="M101.8,32.6C101.8,32.6,101.8,32.6,101.8,32.6c-0.1-0.1-0.1-0.2,0-0.3c0-0.2,0.1-0.3,0.1-0.5c0.1-0.2,0.1-0.3,0.2-0.4
				c0.1-0.1,0.1-0.2,0.1-0.2c1.1,0.2,1.9,0.5,2.4,0.9s0.8,1.1,0.8,1.9c0,0.5-0.1,1.1-0.4,1.7c-0.1,0.2-0.2,0.4-0.3,0.6
				c-0.1,0.2-0.3,0.3-0.5,0.4c-0.2,0.1-0.4,0.2-0.6,0.3c-0.2,0.1-0.4,0.1-0.7,0.1c-0.4,0-0.7-0.1-0.9-0.2c-0.2-0.1-0.4-0.3-0.6-0.6
				c-0.1-0.2-0.2-0.5-0.3-0.8c0-0.3,0-0.6,0-0.9c0.1-0.4,0.2-0.7,0.3-1S101.7,32.9,101.8,32.6z M102.3,33c-0.1,0.2-0.2,0.5-0.3,0.7
				c-0.1,0.2-0.1,0.4-0.1,0.6s0.1,0.4,0.1,0.5c0.1,0.2,0.2,0.3,0.3,0.3c0.1,0.1,0.3,0.1,0.5,0.1c0.2,0,0.4,0,0.6,0s0.4-0.1,0.6-0.2
				c0.2-0.1,0.4-0.2,0.5-0.4c0-0.2-0.1-0.4-0.3-0.6s-0.4-0.4-0.6-0.5c-0.3-0.2-0.5-0.3-0.8-0.4C102.7,33,102.5,33,102.3,33z"/>
			<path d="M111.6,26.2c-0.4,0.2-0.8,0.3-1.2,0.5s-0.8,0.4-1.3,0.5s-0.8,0.3-1.1,0.5c-0.3,0.2-0.6,0.3-0.8,0.4c-0.1,0-0.1,0-0.1,0
				c0,0,0-0.1,0-0.1c0-0.1,0.1-0.1,0.1-0.2c0.1-0.1,0.1-0.2,0.2-0.3s0.1-0.2,0.2-0.3c0.1-0.1,0.1-0.2,0.1-0.2
				c0.1-0.1,0.1-0.2,0.2-0.2l4.3-1.8c0.1-0.1,0.1,0,0.1,0.1c0,0.1-0.1,0.1-0.1,0.2s-0.1,0.2-0.1,0.3s-0.1,0.2-0.1,0.3
				s-0.1,0.2-0.1,0.2C111.7,26.1,111.7,26.1,111.6,26.2z"/>
			<path d="M110.8,34.2c0-0.1,0.1-0.1,0.1,0c0,0,0.1,0.1,0.1,0.1c0.2,0.3,0.5,0.5,0.7,0.7s0.5,0.3,0.8,0.3c0.3,0.1,0.5,0.1,0.8,0.1
				c0.3,0,0.5,0,0.7,0h0.2c0.2,0,0.4,0.1,0.5,0.3c0.1,0.2,0.2,0.4,0.2,0.6s-0.1,0.4-0.2,0.6c-0.1,0.2-0.3,0.3-0.5,0.3h-0.2
				c-0.1,0-0.2,0-0.3,0c-0.1,0-0.3,0-0.4,0c-0.1,0-0.3,0-0.4,0c-0.1,0-0.3,0-0.4-0.1c-0.1,0.5-0.2,1-0.4,1.5s-0.3,0.8-0.4,1.2
				c-0.1,0.3-0.3,0.6-0.4,0.9c-0.1,0.2-0.2,0.4-0.3,0.5c-0.3,0.4-0.6,0.7-0.9,0.9s-0.6,0.5-1,0.6c-0.3,0.2-0.7,0.3-1.1,0.4
				s-0.7,0.1-1.1,0.2c-0.5,0-1.1,0-1.8-0.1c-0.6-0.1-1.3-0.3-2-0.5c-0.1,0-0.2-0.1-0.2-0.2c0-0.1,0-0.1,0-0.2c0,0,0.1-0.1,0.2-0.1
				c0.1,0,0.2,0,0.4,0c0.9,0.1,1.8,0.1,2.5-0.1s1.6-0.5,2.3-0.9c0.9-0.5,1.6-1.1,2.2-1.8c0.5-0.7,0.9-1.5,1.1-2.4
				c-0.3-0.1-0.6-0.3-0.8-0.5c-0.3-0.2-0.5-0.4-0.7-0.7c0.1-0.2,0.1-0.5,0.2-0.8C110.6,34.7,110.7,34.4,110.8,34.2z"/>
			<path d="M120.4,23.9c-0.4,0.2-0.8,0.3-1.2,0.5s-0.8,0.4-1.3,0.5s-0.8,0.3-1.1,0.5c-0.3,0.2-0.6,0.3-0.8,0.4c-0.1,0-0.1,0-0.1,0
				c0,0,0-0.1,0-0.1c0-0.1,0.1-0.1,0.1-0.2c0.1-0.1,0.1-0.2,0.2-0.3s0.1-0.2,0.2-0.3c0.1-0.1,0.1-0.2,0.1-0.2
				c0.1-0.1,0.1-0.2,0.2-0.2l4.3-1.8c0.1-0.1,0.1,0,0.1,0.1c0,0.1-0.1,0.1-0.1,0.2s-0.1,0.2-0.1,0.3s-0.1,0.2-0.1,0.3
				s-0.1,0.2-0.1,0.2C120.5,23.8,120.4,23.9,120.4,23.9z"/>
			<path d="M114.1,35.4c0.3,0,0.6,0,0.9,0s0.6-0.1,0.9-0.1c0.3-0.1,0.5-0.2,0.7-0.3c0.2-0.1,0.4-0.3,0.5-0.5
				c0.2-0.4,0.4-0.8,0.6-1.2s0.4-0.8,0.6-1.2c0.1-0.1,0.2-0.3,0.3-0.5s0.3-0.3,0.5-0.5c0.2-0.2,0.3-0.3,0.5-0.4
				c0.2-0.1,0.3-0.1,0.5-0.1c0.2,0,0.4,0.1,0.6,0.2s0.3,0.3,0.5,0.5s0.3,0.4,0.4,0.7s0.2,0.5,0.3,0.8c0.1,0.3,0.2,0.5,0.2,0.7
				c0,0.2,0.1,0.4,0.1,0.6c0,0.2,0,0.3-0.1,0.5c0,0.2-0.1,0.3-0.1,0.5c-0.1,0.2-0.1,0.3-0.2,0.4c-0.1,0.1-0.2,0.2-0.4,0.3
				c-0.2,0.1-0.4,0.1-0.7,0.1c-0.3,0-0.6-0.1-1-0.2s-0.7-0.2-1.1-0.4c-0.4-0.2-0.7-0.3-1-0.6c-0.3,0.9-0.7,1.5-1.3,1.9
				s-1.3,0.6-2.2,0.6h-0.2c-0.2,0-0.4-0.1-0.5-0.3c-0.1-0.2-0.2-0.4-0.2-0.6s0.1-0.4,0.2-0.6c0.1-0.2,0.3-0.3,0.5-0.3H114.1z
				 M121.1,34.1c0,0,0-0.1,0-0.2c0-0.1-0.1-0.2-0.2-0.3c-0.1-0.1-0.1-0.2-0.2-0.3c-0.1-0.1-0.1-0.2-0.1-0.2
				c-0.1-0.1-0.1-0.2-0.2-0.3c-0.1-0.1-0.2-0.2-0.3-0.2c-0.1-0.1-0.2-0.1-0.3-0.2c-0.1,0-0.2-0.1-0.4-0.1c-0.1,0-0.2,0-0.4,0.1
				c-0.1,0.1-0.2,0.1-0.3,0.2s-0.2,0.2-0.3,0.3c-0.1,0.1-0.1,0.2-0.2,0.3c0.4,0.3,0.8,0.5,1.3,0.7C120.2,34,120.6,34.1,121.1,34.1z"
				/>
			<path d="M127.5,14.7c-0.4,0.2-0.8,0.3-1.2,0.5s-0.8,0.4-1.3,0.5c-0.4,0.2-0.8,0.3-1.1,0.5c-0.3,0.2-0.6,0.3-0.8,0.4
				c-0.1,0-0.1,0-0.1,0c0,0,0-0.1,0-0.1c0-0.1,0.1-0.1,0.1-0.2c0.1-0.1,0.1-0.2,0.2-0.3c0.1-0.1,0.1-0.2,0.2-0.3
				c0.1-0.1,0.1-0.2,0.1-0.2c0.1-0.1,0.1-0.2,0.2-0.2l4.3-1.8c0.1-0.1,0.1,0,0.1,0.1c0,0.1-0.1,0.1-0.1,0.2s-0.1,0.2-0.1,0.3
				c0,0.1-0.1,0.2-0.1,0.3s-0.1,0.2-0.1,0.2C127.6,14.6,127.5,14.6,127.5,14.7z"/>
			<path d="M123.7,21.1c0.1,0,0.1-0.1,0.2-0.1c0.1,0,0.2-0.1,0.3-0.1s0.2-0.1,0.3-0.1c0.1,0,0.2-0.1,0.2-0.1
				c-0.2-0.1-0.3-0.3-0.5-0.4s-0.3-0.4-0.3-0.6c0-0.1,0-0.2,0-0.3c0-0.1,0.1-0.2,0.1-0.3c0.1-0.2,0.3-0.4,0.4-0.6s0.3-0.4,0.5-0.5
				c0.2-0.1,0.4-0.3,0.6-0.4s0.4-0.1,0.7-0.1c0.1,0,0.2,0,0.3,0.1c0.1,0.1,0.1,0.1,0.2,0.2c0.1,0.1,0.1,0.2,0.2,0.3s0.1,0.2,0.1,0.2
				c0,0.2,0,0.3,0,0.4l-0.2,0.4c-0.1,0.2-0.2,0.2-0.3,0.2c-0.1,0-0.1,0-0.1-0.1s0-0.2-0.1-0.3c-0.1-0.1-0.1-0.2-0.2-0.2
				s-0.2-0.1-0.3-0.1c-0.4,0-0.7,0.1-1,0.4c0.1,0.3,0.3,0.5,0.5,0.8s0.5,0.4,0.8,0.4c0.4,0,0.7,0,1.1,0c0.4-0.1,0.7-0.1,1.1-0.2
				c0,0,0,0.1,0,0.2c0,0.1-0.1,0.2-0.1,0.4s-0.1,0.2-0.1,0.4s-0.1,0.2-0.1,0.2c-0.3,0-0.6,0.1-1,0.2s-0.7,0.1-1,0.2
				c-0.4,0.1-0.7,0.3-1.1,0.4c-0.4,0.2-0.8,0.3-1.1,0.5c-0.1,0-0.1,0-0.1-0.1c0-0.1,0.1-0.3,0.2-0.5
				C123.5,21.3,123.6,21.2,123.7,21.1z M125.3,22.8c0.1,0,0.1,0,0.1,0.1c0,0,0,0.1,0,0.1c0,0,0,0.1,0,0.1c0,0,0,0.1,0,0.1
				c0,0.3,0,0.6,0,0.8s0.1,0.5,0.1,0.8c0.1,0.7,0.2,1.3,0.3,2s0.2,1.4,0.3,2.1c0.1,0.7,0.2,1.4,0.3,2.1s0.2,1.4,0.3,2
				c0,0.3,0,0.6,0.1,0.9c0,0.3,0,0.7,0,1.1c0,0.4-0.1,0.7-0.1,1c-0.1,0.3-0.1,0.6-0.2,0.8c0,0.1-0.1,0.2-0.2,0.2
				c-0.1,0-0.1,0-0.1-0.1c-0.1-1.3-0.2-2.6-0.4-3.9c-0.2-1.4-0.4-2.8-0.6-4.1c-0.2-1.4-0.4-2.8-0.5-4.1c0-0.3,0.1-0.7,0.3-1.1
				c0.1-0.2,0.2-0.4,0.2-0.6S125.2,22.9,125.3,22.8z"/>
			<path d="M136.6,18.9c-0.4,0.2-0.8,0.3-1.2,0.5s-0.8,0.4-1.3,0.5c-0.4,0.2-0.8,0.3-1.1,0.5c-0.3,0.2-0.6,0.3-0.8,0.4
				c-0.1,0-0.1,0-0.1,0s0-0.1,0-0.1c0-0.1,0.1-0.1,0.1-0.2c0.1-0.1,0.1-0.2,0.2-0.3c0.1-0.1,0.1-0.2,0.2-0.3
				c0.1-0.1,0.1-0.2,0.1-0.2c0.1-0.1,0.1-0.2,0.2-0.2l4.3-1.8c0.1-0.1,0.1,0,0.1,0.1c0,0.1-0.1,0.1-0.1,0.2c0,0.1-0.1,0.2-0.1,0.3
				s-0.1,0.2-0.1,0.3s-0.1,0.2-0.1,0.2C136.7,18.8,136.6,18.8,136.6,18.9z"/>
			<path d="M133.5,24c0.1-0.3,0.1-0.5,0.3-0.8s0.2-0.5,0.3-0.8c0,0,0-0.1,0.1-0.1s0.1,0,0.1,0.1c0.1,0.4,0.2,0.9,0.3,1.3
				c0.1,0.4,0.2,0.9,0.3,1.4s0.2,1.1,0.2,1.7c0.1,0.6,0.1,1.3,0.2,2c0.1,0.6,0.1,1.1,0.1,1.5c0,0.4,0.1,0.8,0.1,1.1
				c0,0.3,0.1,0.6,0.1,0.9s0.1,0.6,0.1,0.8c0.1,0.4,0.2,0.7,0.3,1c0.1,0.3,0.3,0.5,0.5,0.7s0.4,0.3,0.7,0.4s0.6,0.1,1,0.1h0.1
				c0.2,0,0.4,0.1,0.5,0.3c0.1,0.2,0.2,0.4,0.2,0.6s-0.1,0.4-0.2,0.6c-0.1,0.2-0.3,0.3-0.5,0.3h-0.1c-0.6,0-1.1-0.1-1.5-0.3
				c-0.4-0.2-0.7-0.4-1-0.8c-0.3-0.3-0.5-0.7-0.6-1.1s-0.2-0.9-0.3-1.4c-0.1-0.4-0.1-0.9-0.2-1.3c-0.1-0.5-0.1-0.9-0.1-1.4
				s-0.1-0.9-0.1-1.3c0-0.4-0.1-0.8-0.1-1.2c-0.1-0.7-0.2-1.4-0.3-2.1s-0.3-1.4-0.5-2.2c0-0.1,0-0.1,0-0.1S133.5,24,133.5,24z"/>
			<path d="M144.5,23.9c-0.4,0.2-0.8,0.3-1.2,0.5s-0.8,0.4-1.3,0.5s-0.8,0.3-1.1,0.5c-0.3,0.2-0.6,0.3-0.8,0.4c-0.1,0-0.1,0-0.1,0
				c0,0,0-0.1,0-0.1c0-0.1,0.1-0.1,0.1-0.2c0.1-0.1,0.1-0.2,0.2-0.3s0.1-0.2,0.2-0.3c0.1-0.1,0.1-0.2,0.1-0.2
				c0.1-0.1,0.1-0.2,0.2-0.2l4.3-1.8c0.1-0.1,0.1,0,0.1,0.1c0,0.1-0.1,0.1-0.1,0.2s-0.1,0.2-0.1,0.3s-0.1,0.2-0.1,0.3
				s-0.1,0.2-0.1,0.2C144.6,23.8,144.6,23.9,144.5,23.9z"/>
			<path d="M138.2,35.4c0.3,0,0.6,0,0.9,0s0.6-0.1,0.9-0.1c0.3-0.1,0.5-0.2,0.7-0.3c0.2-0.1,0.4-0.3,0.5-0.5
				c0.2-0.4,0.4-0.8,0.6-1.2s0.4-0.8,0.6-1.2c0.1-0.1,0.2-0.3,0.3-0.5s0.3-0.3,0.5-0.5c0.2-0.2,0.3-0.3,0.5-0.4
				c0.2-0.1,0.3-0.1,0.5-0.1c0.2,0,0.4,0.1,0.6,0.2s0.3,0.3,0.5,0.5s0.3,0.4,0.4,0.7s0.2,0.5,0.3,0.8c0.1,0.3,0.2,0.5,0.2,0.7
				c0,0.2,0.1,0.4,0.1,0.6c0,0.2,0,0.3-0.1,0.5c0,0.2-0.1,0.3-0.1,0.5c-0.1,0.2-0.1,0.3-0.2,0.4c-0.1,0.1-0.2,0.2-0.4,0.3
				c-0.2,0.1-0.4,0.1-0.7,0.1c-0.3,0-0.6-0.1-1-0.2s-0.7-0.2-1.1-0.4c-0.4-0.2-0.7-0.3-1-0.6c-0.3,0.9-0.7,1.5-1.3,1.9
				s-1.3,0.6-2.2,0.6H138c-0.2,0-0.4-0.1-0.5-0.3c-0.1-0.2-0.2-0.4-0.2-0.6s0.1-0.4,0.2-0.6c0.1-0.2,0.3-0.3,0.5-0.3H138.2z
				 M145.3,34.1c0,0,0-0.1,0-0.2c0-0.1-0.1-0.2-0.2-0.3c-0.1-0.1-0.1-0.2-0.2-0.3c-0.1-0.1-0.1-0.2-0.1-0.2
				c-0.1-0.1-0.1-0.2-0.2-0.3c-0.1-0.1-0.2-0.2-0.3-0.2c-0.1-0.1-0.2-0.1-0.3-0.2c-0.1,0-0.2-0.1-0.4-0.1c-0.1,0-0.2,0-0.4,0.1
				c-0.1,0.1-0.2,0.1-0.3,0.2s-0.2,0.2-0.3,0.3c-0.1,0.1-0.1,0.2-0.2,0.3c0.4,0.3,0.8,0.5,1.3,0.7C144.3,34,144.8,34.1,145.3,34.1z"
				/>
			<path d="M169.1,41.1c-0.8,0.3-1.5,0.5-2.2,0.8c-0.7,0.3-1.4,0.5-2.1,0.8c-0.1,0.1-0.1,0-0.1-0.1c0.1-0.1,0.1-0.3,0.2-0.5
				s0.2-0.3,0.2-0.4c0-0.1,0.1-0.1,0.2-0.2c0.2-0.1,0.4-0.2,0.8-0.3c0.3-0.1,0.7-0.3,1.1-0.4c0.4-0.1,0.8-0.3,1.2-0.4
				c0.4-0.1,0.9-0.3,1.3-0.4c0.1,0,0.1,0,0.1,0.1c0,0.1-0.1,0.1-0.1,0.2s-0.1,0.2-0.1,0.3s-0.1,0.2-0.1,0.2c0,0.1-0.1,0.1-0.1,0.2
				C169.2,41,169.2,41,169.1,41.1C169.2,41.1,169.1,41.1,169.1,41.1z"/>
			<path d="M163.8,35.2c0.4-0.5,0.7-0.9,1.1-1.3c0.4-0.4,0.8-0.8,1.2-1.2c0.4-0.4,0.9-0.8,1.3-1.1c0.5-0.3,0.9-0.7,1.5-0.9
				c0.2-0.1,0.5-0.2,0.8-0.3s0.6,0,1,0c0.3,0,0.6,0.1,1,0.3c0.3,0.1,0.6,0.3,0.9,0.5c0.3,0.2,0.5,0.4,0.6,0.6
				c0.2,0.2,0.2,0.5,0.3,0.8c0,0.6-0.2,1.1-0.4,1.6s-0.5,0.9-0.9,1.2c0.4,0,0.8,0,1.1,0c0.4,0,0.7,0,1.1,0h0.2
				c0.2,0,0.4,0.1,0.5,0.3c0.1,0.2,0.2,0.4,0.2,0.6s-0.1,0.4-0.2,0.6c-0.1,0.2-0.3,0.3-0.5,0.3h-0.2c-0.4,0-0.8,0-1.3,0
				c-0.5,0-1,0-1.6,0c-0.6,0-1.2,0-1.8,0c-0.6,0-1.2,0-1.8-0.1c-0.8,0.1-1.5,0.2-2.3,0.1c-0.8,0-1.6-0.1-2.3-0.3
				c0.1,0.4,0.1,0.8,0.1,1.2s0,0.8-0.1,1.2c-0.1,0.4-0.1,0.7-0.3,1.1c-0.1,0.3-0.3,0.6-0.4,0.9c-0.3,0.4-0.7,0.8-1.1,1.1
				c-0.4,0.3-0.9,0.6-1.4,0.8s-1,0.4-1.5,0.5c-0.5,0.1-1.1,0.2-1.6,0.2c-0.6,0-1.2-0.1-1.7-0.3s-1-0.5-1.4-0.8s-0.7-0.8-0.9-1.3
				c-0.2-0.5-0.3-1.1-0.3-1.7c0-0.7,0.1-1.4,0.3-2.1c0.2-0.7,0.5-1.3,0.9-1.9c0-0.1,0.1-0.1,0.1-0.1c0,0,0.1,0,0.1,0.1
				c0,0,0,0.1,0,0.1c0,0,0,0.1,0,0.1c-0.2,0.4-0.3,0.7-0.4,1.1s-0.2,0.7-0.2,1.1s0,0.7,0,1c0,0.3,0.1,0.7,0.2,0.9
				c0.1,0.3,0.3,0.5,0.5,0.8c0.2,0.2,0.4,0.5,0.7,0.6c0.3,0.2,0.6,0.3,1,0.4c0.4,0.1,0.8,0.1,1.2,0.1c0.5,0,1-0.1,1.6-0.2
				s1.1-0.3,1.6-0.5c0.5-0.2,1-0.5,1.4-0.8c0.4-0.3,0.8-0.7,1-1.2c0-0.4,0-0.8-0.1-1.2c-0.1-0.4-0.2-0.7-0.3-1.1
				c-0.1-0.4-0.3-0.7-0.4-1.1s-0.3-0.7-0.5-1c0.1-0.3,0.2-0.5,0.2-0.8c0.1-0.2,0.2-0.5,0.3-0.8c0-0.1,0-0.1,0.1-0.1s0.1,0,0.1,0.1
				c0.2,0.2,0.3,0.5,0.5,0.7c0.1,0.2,0.3,0.4,0.4,0.7c0.1,0.1,0.3,0.2,0.4,0.3C163.3,35.1,163.5,35.2,163.8,35.2z M172.3,33.5
				c-0.2-0.3-0.4-0.6-0.7-0.8s-0.6-0.4-1-0.5c-0.3-0.1-0.7-0.2-1.1-0.2s-0.7,0-1,0.2c-0.4,0.2-0.8,0.3-1.1,0.6
				c-0.4,0.2-0.7,0.5-1,0.8c-0.3,0.3-0.6,0.6-0.9,0.9s-0.6,0.6-0.9,1c0.3,0.1,0.7,0.1,1.2,0.1c0.4,0,0.9,0,1.4-0.1
				c0.5-0.1,1-0.1,1.5-0.2s1-0.2,1.4-0.4s0.9-0.3,1.2-0.5S172.1,33.7,172.3,33.5z M166.4,26.5l1.4,1.1c0.1,0.1,0.1,0.1,0,0.2
				l-0.9,1.2c-0.1,0.1-0.1,0.1-0.2,0l-1.4-1.1c-0.1-0.1-0.1-0.1,0-0.2l0.9-1.1C166.3,26.5,166.3,26.5,166.4,26.5z"/>
			<path d="M180.3,30c0.3,0,0.5,0.2,0.7,0.4c0.2,0.2,0.3,0.5,0.4,0.9c0.1,0.3,0.1,0.7,0.1,1.1s0,0.7-0.1,1c-0.1,0.3-0.2,0.6-0.4,0.9
				c-0.2,0.3-0.3,0.5-0.6,0.8c0.1,0.1,0.3,0.1,0.5,0.2c0.2,0,0.4,0.1,0.6,0.1s0.4,0,0.6,0s0.4,0,0.6,0h0.2c0.2,0,0.3,0.1,0.4,0.1
				s0.2,0.2,0.2,0.3c0.1,0.1,0.1,0.3,0.1,0.4c0,0.1,0,0.3-0.1,0.4c-0.1,0.1-0.1,0.2-0.2,0.3c-0.1,0.1-0.2,0.1-0.4,0.1h-0.2
				c-0.8,0-1.6-0.1-2.4-0.3c-0.7-0.2-1.4-0.4-2-0.8c-0.3,0.2-0.6,0.3-0.9,0.4s-0.6,0.2-1,0.3s-0.7,0.2-1.1,0.2
				c-0.4,0-0.8,0.1-1.2,0.1h-0.2c-0.2,0-0.4-0.1-0.5-0.3c-0.1-0.2-0.2-0.4-0.2-0.6s0.1-0.4,0.2-0.6c0.1-0.2,0.3-0.3,0.5-0.3h0.2
				c0.2,0,0.5,0,0.7,0s0.4,0,0.7-0.1c0.2,0,0.4-0.1,0.7-0.1c0.2-0.1,0.5-0.1,0.8-0.2c-0.1-0.1-0.1-0.3-0.2-0.5c0-0.2,0-0.4,0-0.6
				c0-0.5,0.2-1,0.4-1.5c0.2-0.5,0.5-0.9,0.9-1.3c0.3-0.4,0.7-0.7,1.1-0.9S180,29.9,180.3,30z M180.7,27.7c-0.1,0-0.2,0-0.2,0
				l-1.3-1l-0.8,1.2c0,0-0.1,0.1-0.1,0.1c0,0-0.1,0-0.1,0l-1.4-1c0,0,0,0-0.1-0.1c0,0,0,0,0-0.1l0.9-1.2c0,0,0.1-0.1,0.1-0.1
				c0,0,0.1,0,0.1,0l1.4,1l0.9-1.2c0,0,0.1-0.1,0.1-0.1c0,0,0,0,0.1,0l1.4,1c0.1,0,0.1,0.1,0,0.2L180.7,27.7z M180.7,33.3
				c0-0.2,0-0.4-0.1-0.7c-0.1-0.2-0.2-0.4-0.3-0.6c-0.1-0.1-0.2-0.2-0.3-0.2s-0.2,0-0.3,0c-0.1,0-0.3,0.1-0.5,0.1
				c-0.2,0.1-0.4,0.2-0.5,0.3s-0.3,0.3-0.5,0.4s-0.3,0.3-0.3,0.5c0,0.2,0.1,0.4,0.1,0.5s0.2,0.3,0.3,0.4c0.1,0.1,0.2,0.2,0.4,0.3
				c0.1,0.1,0.2,0.1,0.3,0.2c0.1,0,0.2-0.1,0.4-0.1s0.4-0.2,0.6-0.3s0.4-0.2,0.5-0.3C180.6,33.5,180.7,33.4,180.7,33.3z"/>
			<path d="M187,24.8c-0.4,0.2-0.8,0.3-1.2,0.5s-0.8,0.4-1.3,0.5c-0.4,0.2-0.8,0.3-1.1,0.5c-0.3,0.2-0.6,0.3-0.8,0.4
				c-0.1,0-0.1,0-0.1,0c0,0,0-0.1,0-0.1c0-0.1,0.1-0.1,0.1-0.2c0.1-0.1,0.1-0.2,0.2-0.3c0.1-0.1,0.1-0.2,0.2-0.3
				c0.1-0.1,0.1-0.2,0.1-0.2c0.1-0.1,0.1-0.2,0.2-0.2l4.3-1.8c0.1-0.1,0.1,0,0.1,0.1c0,0.1-0.1,0.1-0.1,0.2s-0.1,0.2-0.1,0.3
				c0,0.1-0.1,0.2-0.1,0.3s-0.1,0.2-0.1,0.2C187.1,24.7,187.1,24.7,187,24.8z"/>
			<path d="M185.5,31C185.5,31,185.6,30.9,185.5,31c0.1-0.1,0.2-0.1,0.3,0c0.2,0.2,0.4,0.4,0.6,0.7c0.2,0.2,0.3,0.5,0.5,0.8
				s0.2,0.5,0.3,0.8c0.1,0.3,0.1,0.6,0.1,0.9c0,0.1,0,0.3,0,0.4c0,0.2,0,0.3-0.1,0.5c0,0.2-0.1,0.3-0.1,0.5c0,0.1-0.1,0.3-0.2,0.4
				c-0.2,0.3-0.4,0.5-0.7,0.7c-0.3,0.2-0.7,0.3-1.1,0.4s-0.8,0.1-1.2,0.2c-0.4,0-0.7,0-1.1,0h-0.2c-0.2,0-0.4-0.1-0.5-0.3
				c-0.1-0.2-0.2-0.4-0.2-0.6s0.1-0.4,0.2-0.6c0.1-0.2,0.3-0.3,0.5-0.3h0.2c0.2,0,0.4,0,0.7,0s0.6,0,1,0c0.3,0,0.7-0.1,1-0.1
				c0.3-0.1,0.6-0.1,0.8-0.3c0.1-0.1,0.2-0.2,0.1-0.3c-0.1-0.4-0.3-0.8-0.6-1.1c-0.3-0.3-0.5-0.6-0.8-0.9c0.1-0.3,0.1-0.5,0.2-0.8
				S185.4,31.3,185.5,31z M186.9,41.5C186.8,41.6,186.8,41.6,186.9,41.5c-0.1,0.1-0.1,0.1-0.2,0l-1.3-1l-0.8,1.2
				c-0.1,0.1-0.1,0.1-0.2,0l-1.4-1.1c0,0-0.1-0.1,0-0.1l0.9-1.3c0,0,0.1-0.1,0.1-0.1s0,0,0.1,0l1.3,1l0.9-1.2c0-0.1,0.1-0.1,0.1,0
				l1.4,1.2c0,0,0,0.1,0,0.2L186.9,41.5z"/>
			<path class="st0" d="M193.6,24c0.1-0.3,0.1-0.5,0.3-0.8s0.2-0.5,0.3-0.8c0,0,0-0.1,0.1-0.1s0.1,0,0.1,0.1
				c0.1,0.4,0.2,0.9,0.3,1.3c0.1,0.4,0.2,0.9,0.3,1.4s0.2,1.1,0.2,1.7c0.1,0.6,0.1,1.3,0.2,2c0.1,0.6,0.1,1.1,0.1,1.5
				c0,0.4,0.1,0.8,0.1,1.1c0,0.3,0.1,0.6,0.1,0.9s0.1,0.6,0.1,0.8c0.1,0.4,0.2,0.7,0.3,1c0.1,0.3,0.3,0.5,0.5,0.7s0.4,0.3,0.7,0.4
				s0.6,0.1,1,0.1h0.1c0.2,0,0.4,0.1,0.5,0.3c0.1,0.2,0.2,0.4,0.2,0.6s-0.1,0.4-0.2,0.6c-0.1,0.2-0.3,0.3-0.5,0.3h-0.1
				c-0.6,0-1.1-0.1-1.5-0.3c-0.4-0.2-0.7-0.4-1-0.8c-0.3-0.3-0.5-0.7-0.6-1.1s-0.2-0.9-0.3-1.4c-0.1-0.4-0.1-0.9-0.2-1.3
				c-0.1-0.5-0.1-0.9-0.1-1.4s-0.1-0.9-0.1-1.3c0-0.4-0.1-0.8-0.1-1.2c-0.1-0.7-0.2-1.4-0.3-2.1s-0.3-1.4-0.5-2.2c0-0.1,0-0.1,0-0.1
				S193.6,24,193.6,24z"/>
			<path class="st0" d="M204.5,20.9c-0.4,0.2-0.8,0.3-1.2,0.5s-0.8,0.4-1.3,0.5c-0.4,0.2-0.8,0.3-1.1,0.5c-0.3,0.2-0.6,0.3-0.8,0.4
				c-0.1,0-0.1,0-0.1,0c0,0,0-0.1,0-0.1c0-0.1,0.1-0.1,0.1-0.2c0.1-0.1,0.1-0.2,0.2-0.3c0.1-0.1,0.1-0.2,0.2-0.3
				c0.1-0.1,0.1-0.2,0.1-0.2c0.1-0.1,0.1-0.2,0.2-0.2l4.3-1.8c0.1-0.1,0.1,0,0.1,0.1c0,0.1-0.1,0.1-0.1,0.2s-0.1,0.2-0.1,0.3
				c0,0.1-0.1,0.2-0.1,0.3s-0.1,0.2-0.1,0.2C204.7,20.8,204.6,20.9,204.5,20.9z M202.3,25.1c-0.2,0.3-0.3,0.6-0.5,0.7
				c-0.2,0.2-0.5,0.3-0.8,0.3c-0.3,0-0.5,0-0.7-0.1s-0.3-0.4-0.3-0.7c0-0.2,0-0.3,0-0.5s0.1-0.3,0.1-0.5c0.1-0.1,0.1-0.3,0.2-0.4
				c0.1-0.1,0.2-0.2,0.2-0.2c0.1,0,0.1,0,0,0.2c0,0.1-0.1,0.2-0.1,0.3c0,0.1,0,0.2,0,0.3c0,0.1,0,0.2,0,0.3s0.1,0.2,0.1,0.2
				c0.1,0.1,0.2,0.1,0.3,0.1c0.1,0,0.3,0,0.4-0.1c0.1-0.1,0.3-0.1,0.4-0.2c0.1-0.1,0.2-0.2,0.3-0.3c0.1-0.1,0.1-0.2,0.2-0.4
				c0-0.1,0.1-0.3,0.1-0.4c0,0,0-0.1,0-0.2c0-0.1,0-0.1,0-0.2s0-0.1,0.1-0.1s0.1-0.1,0.1-0.1c0,0,0.1,0,0.1,0.1c0,0,0,0.1,0,0.1
				c0,0.1,0,0.1,0,0.2c0,0.1,0,0.1,0,0.1c0,0.2,0,0.4,0.1,0.5c0.1,0.1,0.2,0.2,0.4,0.2c0.1,0,0.3,0,0.4,0s0.3-0.1,0.4-0.2
				c0,0,0-0.1,0-0.1s0-0.1,0-0.2c0-0.1,0-0.1-0.1-0.2c0-0.1,0-0.1,0-0.1c0,0,0-0.1,0-0.2s0.1-0.2,0.1-0.3c0-0.1,0.1-0.2,0.1-0.3
				s0.1-0.1,0.1-0.1c0.1,0,0.1,0.1,0.2,0.2c0,0.1,0.1,0.3,0.1,0.4c0,0.2,0,0.3,0,0.5c0,0.2,0,0.3-0.1,0.5c0,0.1-0.1,0.3-0.1,0.4
				c-0.1,0.1-0.1,0.3-0.2,0.4c-0.1,0.1-0.2,0.2-0.3,0.3c-0.1,0.1-0.2,0.1-0.4,0.2c-0.3,0.1-0.5,0.1-0.7,0
				C202.6,25.4,202.5,25.3,202.3,25.1z"/>
			<path class="st0" d="M205.1,36.7c0,0.1-0.1,0.2-0.1,0.2c0,0.1-0.1,0.2-0.1,0.3c0,0.1-0.1,0.1-0.1,0.2c0,0.1-0.1,0.1-0.1,0.1
				c-0.2,0-0.4,0-0.6,0c-0.2,0-0.5-0.1-0.7-0.1c-0.3-0.1-0.5-0.2-0.8-0.3c-0.3-0.1-0.5-0.2-0.7-0.4c-0.2-0.1-0.4-0.3-0.5-0.4
				c-0.1-0.2-0.2-0.3-0.2-0.5c-0.2,0.3-0.4,0.5-0.6,0.7s-0.5,0.3-0.7,0.4c-0.2,0.1-0.5,0.2-0.7,0.2c-0.2,0-0.4,0.1-0.7,0.1h-0.2
				c-0.2,0-0.4-0.1-0.5-0.3c-0.1-0.2-0.2-0.4-0.2-0.6s0.1-0.4,0.2-0.6c0.1-0.2,0.3-0.3,0.5-0.3h0.2c0.3,0,0.6,0,0.8,0
				c0.3,0,0.5-0.1,0.8-0.1c0.3-0.1,0.5-0.2,0.8-0.4c0.2-0.2,0.5-0.4,0.7-0.7c0.1-0.2,0.3-0.3,0.4-0.5c0.1-0.2,0.3-0.3,0.4-0.4
				s0.3-0.2,0.4-0.3c0.1-0.1,0.3-0.1,0.4-0.1s0.3,0.1,0.4,0.2c0.2,0.1,0.3,0.3,0.5,0.4c0.2,0.2,0.3,0.3,0.5,0.5
				c0.1,0.2,0.3,0.3,0.4,0.4c0.4,0.4,0.8,0.6,1.2,0.7c0.4,0.1,0.9,0.2,1.4,0.2h0.2c0.2,0,0.4,0.1,0.5,0.3c0.1,0.2,0.2,0.4,0.2,0.6
				s-0.1,0.4-0.2,0.6c-0.1,0.2-0.3,0.3-0.5,0.3h-0.2c-0.4,0-0.9,0-1.3-0.1C205.8,37,205.4,36.9,205.1,36.7z M201.9,34.8
				c0.2,0.1,0.4,0.2,0.6,0.3c0.2,0.1,0.4,0.2,0.6,0.3c0.2,0.1,0.3,0.1,0.5,0.2s0.3,0.1,0.4,0.1c0,0,0.1,0,0.1,0c0,0,0,0,0-0.1
				c-0.1-0.1-0.2-0.3-0.3-0.4c-0.1-0.2-0.2-0.3-0.2-0.4c-0.1-0.1-0.1-0.3-0.2-0.4s-0.1-0.2-0.1-0.2c-0.1-0.1-0.2-0.2-0.3-0.2
				c-0.1,0-0.3,0.1-0.5,0.2s-0.4,0.3-0.5,0.4C201.9,34.6,201.8,34.6,201.9,34.8C201.8,34.7,201.9,34.7,201.9,34.8z"/>
			<path class="st0" d="M210.6,19.5c-0.4,0.2-0.8,0.3-1.2,0.5s-0.8,0.4-1.3,0.5s-0.8,0.3-1.1,0.5c-0.3,0.2-0.6,0.3-0.8,0.4
				c-0.1,0-0.1,0-0.1,0c0,0,0-0.1,0-0.1c0-0.1,0.1-0.1,0.1-0.2c0.1-0.1,0.1-0.2,0.2-0.3s0.1-0.2,0.2-0.3c0.1-0.1,0.1-0.2,0.1-0.2
				c0.1-0.1,0.1-0.2,0.2-0.2l4.3-1.8c0.1-0.1,0.1,0,0.1,0.1c0,0.1-0.1,0.1-0.1,0.2s-0.1,0.2-0.1,0.3s-0.1,0.2-0.1,0.3
				s-0.1,0.2-0.1,0.2C210.8,19.3,210.7,19.4,210.6,19.5z"/>
			<path class="st0" d="M208.6,22c0-0.1,0.1-0.1,0.1-0.1c0,0,0.1,0,0.1,0.1c0.1,0.2,0.1,0.4,0.2,0.5c0.1,0.2,0.2,0.4,0.3,0.6
				c0.1,0.2,0.2,0.3,0.4,0.5c0.1,0.2,0.3,0.3,0.5,0.4c-0.1,0.2-0.2,0.3-0.3,0.5c-0.1,0.1-0.1,0.3-0.2,0.4c-0.1,0.1-0.1,0.2-0.1,0.3
				c0,0.1,0,0.2,0,0.3c0.1,0.7,0.2,1.4,0.3,2.2c0.1,0.7,0.2,1.4,0.3,2.2c0.1,0.7,0.2,1.4,0.3,2.2s0.1,1.4,0.2,2.2c0,0.2,0,0.5,0,0.7
				s-0.1,0.5-0.2,0.7s-0.2,0.4-0.3,0.6c-0.1,0.2-0.3,0.4-0.4,0.5c-0.2,0.2-0.5,0.3-0.8,0.4c-0.3,0.1-0.7,0.1-1.2,0.1h-0.2
				c-0.2,0-0.4-0.1-0.5-0.3c-0.1-0.2-0.2-0.4-0.2-0.6s0.1-0.4,0.2-0.6c0.1-0.2,0.3-0.3,0.5-0.3h0.2c0.2,0,0.5,0,0.7,0
				s0.4-0.1,0.6-0.1c0.2,0,0.4-0.1,0.5-0.2s0.2-0.2,0.3-0.3c-0.1-1.6-0.3-3.1-0.6-4.7c-0.2-1.5-0.5-3.1-0.7-4.6
				c0-0.3-0.1-0.6-0.1-0.9c0-0.3-0.2-0.6-0.3-0.9c-0.1-0.1-0.1-0.1-0.1-0.2c0,0,0-0.1,0.1-0.2c0.1-0.2,0.2-0.4,0.4-0.7
				C208.4,22.4,208.5,22.2,208.6,22z"/>
			<path d="M219.1,20.1c-0.2,0.3-0.3,0.6-0.5,0.7c-0.2,0.2-0.5,0.3-0.8,0.3c-0.3,0-0.5,0-0.7-0.1c-0.2-0.1-0.3-0.4-0.3-0.7
				c0-0.2,0-0.3,0-0.5c0-0.2,0.1-0.3,0.1-0.5c0.1-0.1,0.1-0.3,0.2-0.4s0.2-0.2,0.2-0.2c0.1,0,0.1,0,0,0.2c0,0.1-0.1,0.2-0.1,0.3
				c0,0.1,0,0.2,0,0.3c0,0.1,0,0.2,0,0.3s0.1,0.1,0.1,0.2c0.1,0.1,0.2,0.1,0.3,0.1s0.3,0,0.4-0.1s0.3-0.1,0.4-0.2
				c0.1-0.1,0.2-0.2,0.3-0.3c0.1-0.1,0.1-0.2,0.2-0.4c0-0.1,0.1-0.3,0.1-0.4c0,0,0-0.1,0-0.2c0-0.1,0-0.1,0-0.2s0-0.1,0.1-0.1
				s0.1-0.1,0.1-0.1c0,0,0.1,0,0.1,0.1c0,0,0,0.1,0,0.1c0,0.1,0,0.1,0,0.2c0,0.1,0,0.1,0,0.1c0,0.2,0,0.4,0.1,0.5
				c0.1,0.1,0.2,0.2,0.4,0.2c0.1,0,0.3,0,0.4,0s0.3-0.1,0.4-0.2c0,0,0-0.1,0-0.1s0-0.1,0-0.2c0-0.1,0-0.1-0.1-0.2c0-0.1,0-0.1,0-0.1
				c0,0,0-0.1,0-0.2c0-0.1,0.1-0.2,0.1-0.3s0.1-0.2,0.1-0.3s0.1-0.1,0.1-0.1c0.1,0,0.1,0.1,0.2,0.2c0,0.1,0.1,0.3,0.1,0.4
				s0,0.3,0,0.5c0,0.2,0,0.3-0.1,0.5c0,0.1-0.1,0.3-0.1,0.4c-0.1,0.1-0.1,0.3-0.2,0.4c-0.1,0.1-0.2,0.2-0.3,0.3
				c-0.1,0.1-0.2,0.1-0.4,0.2c-0.3,0.1-0.5,0.1-0.7,0C219.4,20.4,219.3,20.3,219.1,20.1z"/>
			<path d="M221.2,19.5c-0.4,0.2-0.8,0.3-1.2,0.5s-0.8,0.4-1.3,0.5s-0.8,0.3-1.1,0.5c-0.3,0.2-0.6,0.3-0.8,0.4c-0.1,0-0.1,0-0.1,0
				c0,0,0-0.1,0-0.1c0-0.1,0.1-0.1,0.1-0.2c0.1-0.1,0.1-0.2,0.2-0.3s0.1-0.2,0.2-0.3c0.1-0.1,0.1-0.2,0.1-0.2
				c0.1-0.1,0.1-0.2,0.2-0.2l4.3-1.8c0.1-0.1,0.1,0,0.1,0.1c0,0.1-0.1,0.1-0.1,0.2s-0.1,0.2-0.1,0.3s-0.1,0.2-0.1,0.3
				s-0.1,0.2-0.1,0.2C221.3,19.3,221.3,19.4,221.2,19.5z"/>
			<path d="M227.9,21.6c0.1,0.7,0.2,1.4,0.2,2c0.1,0.6,0.1,1.3,0.2,1.8s0.1,1.2,0.2,1.7s0.1,1.1,0.2,1.7c0.2,1.1,0.3,2,0.4,2.7
				c0.1,0.7,0.2,1.3,0.4,1.7c0.1,0.4,0.2,0.7,0.3,1c0.1,0.3,0.3,0.5,0.5,0.7s0.5,0.3,0.8,0.4s0.7,0.1,1.2,0.1h0.2
				c0.2,0,0.4,0.1,0.5,0.3c0.1,0.2,0.2,0.4,0.2,0.6s-0.1,0.4-0.2,0.6c-0.1,0.2-0.3,0.3-0.5,0.3h-0.2c-0.4,0-0.7,0-1.1-0.1
				s-0.7-0.2-1-0.4s-0.6-0.4-0.9-0.8s-0.5-0.8-0.6-1.4c-0.1-0.4-0.2-0.7-0.3-1c-0.1-0.3-0.1-0.6-0.2-0.9c-0.1-0.3-0.1-0.7-0.2-1
				c-0.1-0.4-0.1-0.8-0.2-1.3c-0.1,0.5-0.2,1.1-0.3,1.7c-0.2,0.6-0.4,1.2-0.6,1.8s-0.6,1.1-1,1.6c-0.4,0.5-0.9,0.9-1.4,1.3
				c-0.8,0.5-1.6,0.9-2.4,1.2c-0.8,0.3-1.7,0.5-2.6,0.6c-0.1,0-0.3,0-0.3,0s-0.1-0.1-0.2-0.1s0-0.1,0-0.1c0,0,0.1-0.1,0.2-0.1
				c1.3-0.5,2.4-1.2,3.5-1.9c1.1-0.7,2.1-1.6,3.1-2.6c-0.1-0.4-0.2-0.9-0.4-1.3c-0.2-0.4-0.4-0.9-0.7-1.3c-0.3-0.4-0.6-0.9-0.9-1.3
				c-0.3-0.4-0.7-0.8-1.1-1.2c-0.4-0.4-0.8-0.7-1.1-1c-0.4-0.3-0.8-0.6-1.1-0.8c-0.1,0.2-0.1,0.3-0.2,0.3c-0.1,0-0.2,0.1-0.3,0.1
				c-0.2,0-0.4,0-0.7-0.1s-0.5-0.2-0.8-0.4c-0.3-0.2-0.5-0.3-0.7-0.5c-0.2-0.2-0.3-0.4-0.3-0.7c0-0.1,0-0.2,0-0.3
				c0-0.2,0-0.3,0.1-0.5s0.1-0.4,0.1-0.6s0.1-0.4,0.1-0.6c0.1-0.2,0.1-0.3,0.2-0.3s0.2,0,0.4,0.1c0.6,0.3,1.2,0.7,1.8,1.1
				s1.2,0.9,1.8,1.4c0.6,0.5,1.1,1.1,1.7,1.7c0.5,0.6,1,1.2,1.4,1.8c0.4,0.6,0.7,1.3,0.9,1.9c0.2,0.6,0.4,1.3,0.4,1.9
				c0.3-0.4,0.5-0.8,0.6-1.2s0.3-0.7,0.4-1.1s0.1-0.7,0.2-1.1s0-0.8,0-1.3c0-0.8,0-1.7-0.1-2.5s-0.2-1.7-0.2-2.5c0-0.1,0-0.3,0-0.5
				c0-0.2,0.1-0.3,0.2-0.5c0.1-0.2,0.2-0.3,0.3-0.5c0.1-0.1,0.2-0.3,0.3-0.4C227.8,21.4,227.8,21.4,227.9,21.6
				C227.9,21.5,227.9,21.5,227.9,21.6z"/>
			<path d="M238.5,19.5c-0.4,0.2-0.8,0.3-1.2,0.5s-0.8,0.4-1.3,0.5s-0.8,0.3-1.1,0.5c-0.3,0.2-0.6,0.3-0.8,0.4c-0.1,0-0.1,0-0.1,0
				c0,0,0-0.1,0-0.1c0-0.1,0.1-0.1,0.1-0.2c0.1-0.1,0.1-0.2,0.2-0.3s0.1-0.2,0.2-0.3c0.1-0.1,0.1-0.2,0.1-0.2
				c0.1-0.1,0.1-0.2,0.2-0.2l4.3-1.8c0.1-0.1,0.1,0,0.1,0.1c0,0.1-0.1,0.1-0.1,0.2s-0.1,0.2-0.1,0.3s-0.1,0.2-0.1,0.3
				s-0.1,0.2-0.1,0.2C238.6,19.3,238.6,19.4,238.5,19.5z"/>
			<path d="M232,35.4h0.2c0.3,0,0.6,0,0.9,0c0.3,0,0.6,0,0.9,0c0.3,0,0.6,0,0.9-0.1c0.3,0,0.6-0.1,1-0.1c0.2,0,0.4-0.1,0.5-0.1
				c0.2,0,0.4-0.1,0.6-0.2s0.4-0.1,0.5-0.2s0.3-0.2,0.4-0.3c0-0.4-0.1-0.8-0.2-1.1s-0.3-0.7-0.6-1s-0.5-0.7-0.8-1
				c-0.3-0.3-0.6-0.6-0.9-0.9s-0.6-0.5-0.9-0.8c-0.3-0.2-0.5-0.5-0.8-0.7c0,0-0.1,0-0.1,0c0,0,0,0-0.1,0.1c0,0,0,0.1-0.1,0.1
				c0,0,0,0,0,0c-0.1,0-0.2,0-0.3-0.1c-0.1-0.1-0.3-0.1-0.4-0.2c-0.1-0.1-0.3-0.2-0.4-0.3c-0.1-0.1-0.2-0.2-0.2-0.3
				c-0.1-0.2-0.1-0.4-0.2-0.6c0-0.2-0.1-0.5,0-0.7c0-0.7,0.2-1.3,0.6-1.8c0.4-0.5,0.8-0.9,1.3-1.2c0.4-0.2,0.8-0.5,1.3-0.7
				s1.1-0.5,1.6-0.8s1.2-0.6,1.8-0.8c0.6-0.3,1.2-0.5,1.8-0.8c0.6-0.3,1.1-0.5,1.6-0.7c0.5-0.2,0.9-0.4,1.2-0.5c0.1,0,0.1,0,0.1,0
				c-0.1,0.3-0.2,0.6-0.3,0.8c-0.1,0.2-0.2,0.5-0.3,0.8c-0.3,0.1-0.6,0.2-1,0.4c-0.4,0.2-0.8,0.3-1.3,0.6c-0.5,0.2-0.9,0.4-1.4,0.7
				c-0.5,0.2-1,0.5-1.5,0.7c-0.5,0.2-1,0.5-1.4,0.7c-0.5,0.2-0.9,0.4-1.3,0.6c-0.4,0.2-0.7,0.4-1,0.5c-0.3,0.1-0.5,0.3-0.6,0.3
				c-0.1,0.1-0.3,0.2-0.4,0.3c-0.1,0.1-0.2,0.2-0.2,0.2c0,0.1,0,0.1,0.1,0.2c0.1,0,0.1,0.1,0.2,0.1c0.6,0.4,1.1,0.8,1.7,1.3
				c0.6,0.5,1.1,1,1.6,1.5c0.5,0.6,0.9,1.2,1.3,1.8s0.6,1.3,0.7,2c0,0.3,0,0.5,0,0.8c0,0.3-0.1,0.6-0.2,0.8s-0.2,0.5-0.3,0.8
				c-0.1,0.2-0.3,0.4-0.5,0.6c-0.3,0.2-0.6,0.4-1,0.5s-0.8,0.2-1.3,0.3c-0.5,0.1-0.9,0.1-1.5,0.2s-1,0-1.6,0H232
				c-0.2,0-0.4-0.1-0.5-0.3c-0.1-0.2-0.2-0.4-0.2-0.6s0.1-0.4,0.2-0.6C231.6,35.5,231.8,35.4,232,35.4z"/>
		</g>
		<path d="M86,41.5c0,0.1-0.1,0.1-0.2,0.1c-0.4,0-1.1-0.4-1.9-1.1c-0.6-0.5-1.1-1.1-1.5-1.6c-0.9-1.1-1.5-2.4-2.1-3.8
			c-1.3,0-2-0.2-2.1-0.5c0.4-0.3,0.7-0.7,0.9-1c0.3-0.4,0.4-0.8,0.4-1.2c-0.3,0-0.7,0.2-1.2,0.6c-0.1,0.1-0.4,0.4-1,0.9
			c-0.1,0-0.2-0.1-0.3-0.4c-0.1-0.3-0.2-0.7-0.2-1.2c-0.3-0.2-0.6-0.3-0.8-0.5c-0.2-0.2-0.3-0.3-0.3-0.4c0-0.2,0.2-0.4,0.5-0.7
			c0.2-0.1,0.4-0.3,0.6-0.4c0-0.4,0-0.7,0.1-1.1c0.1-0.3,0.2-0.5,0.3-0.5c0.4,0.4,0.8,0.7,1,0.9c0.4,0.3,0.9,0.5,1.2,0.5
			c0-0.4-0.2-0.8-0.5-1.2c-0.3-0.3-0.6-0.7-1-1c0-0.2,0.3-0.3,1-0.5c0.5-0.1,0.9-0.2,1.2-0.2c0.9-2.7,2.3-4.7,4-6.1
			c0.6-0.5,1-0.7,1.2-0.7c0.1,0,0.2,0.1,0.2,0.2c0,0.1-0.2,0.4-0.7,0.9c-1.5,1.7-2.3,3.6-2.7,5.7c0.4,0.1,0.7,0.1,0.8,0.2
			c0.1,0.1,0.2,0.2,0.2,0.3c-0.4,0.3-0.7,0.7-0.9,1c-0.3,0.4-0.5,0.8-0.5,1.2c0.4,0,0.8-0.2,1.1-0.5c0.2-0.2,0.6-0.6,1-1
			c0.2,0,0.3,0.2,0.5,0.7c0.1,0.4,0.1,0.7,0.1,0.9c0.7,0.3,1.1,0.7,1.1,1c0,0.3-0.3,0.6-1,1c0,0.6-0.1,1.1-0.2,1.3
			c-0.1,0.2-0.2,0.2-0.4,0.3c-0.7-0.9-1.5-1.3-2.2-1.4c0,0.3,0.2,0.8,0.5,1.2c0.1,0.2,0.5,0.5,1,1c0,0.1-0.1,0.1-0.2,0.2
			c-0.1,0.1-0.4,0.1-0.9,0.3c0.2,1.1,0.6,2.2,1.3,3.3c0.7,1.1,1.4,2.1,2.2,2.8C85.9,41.2,86,41.4,86,41.5z M79.1,31.9
			c-0.2-0.1-0.5-0.2-0.8-0.3c0,0-0.2-0.1-0.5-0.2s-0.4-0.2-0.4-0.3c0,0,0.3-0.2,1-0.3c0.1-0.1,0.4-0.2,0.7-0.3
			c-0.4-0.1-0.7-0.3-1-0.5c-0.1-0.1-0.4-0.4-0.7-0.6c-0.1,0-0.1,0.1-0.1,0.3c0,0.2,0,0.4,0,0.8c-0.6,0.3-0.9,0.6-0.9,0.7
			c0,0.1,0.1,0.2,0.3,0.3c0.2,0.1,0.4,0.2,0.7,0.3c0,0.1,0,0.4,0.1,0.7c0.1,0.4,0.1,0.6,0.2,0.6l0.7-0.7
			C78.5,32.1,78.8,32,79.1,31.9z M84.8,21.2c-1.8,1.2-3.2,3.4-4.3,6.5c-0.7,0-1.2,0-1.4,0.1c-0.2,0-0.3,0.1-0.3,0.2
			c0.5,0.4,0.9,0.9,1.2,1.4c0.1-0.3,0.3-0.5,0.4-0.6c0.1-0.2,0.2-0.5,0.4-0.7c0,0,0.1,0.1,0.1,0.3c0,0.2,0.1,0.3,0.1,0.3
			c0.1,0.1,0.2,0.3,0.4,0.7c0.1-0.3,0.3-0.6,0.5-0.9c0.1-0.1,0.3-0.4,0.6-0.6c0-0.1-0.1-0.1-0.3-0.2c-0.1,0-0.3,0-0.5-0.1
			c0.3-1.2,0.5-2,0.6-2.4C82.8,23.9,83.6,22.6,84.8,21.2z M85.2,41.1c-0.7-0.7-1.4-1.5-2-2.6c-0.7-1.2-1.1-2.5-1.4-3.8
			c0.5,0,0.8-0.1,0.8-0.2c-0.5-0.5-1-1-1.2-1.5c-0.1,0.2-0.2,0.4-0.3,0.7c0,0-0.1,0.2-0.2,0.4c-0.1,0.2-0.1,0.3-0.2,0.3
			c-0.2,0-0.4-0.4-0.7-1.3c-0.2,0.4-0.4,0.7-0.6,0.9c-0.2,0.2-0.4,0.4-0.6,0.6c0,0,0.1,0.1,0.3,0.1c0.1,0,0.4,0.1,0.6,0.1
			c0.2,0,0.3,0,0.4,0c0.1,0,0.3,0,0.3,0C81.5,37.5,83.1,39.6,85.2,41.1z M82.1,31.2c0-0.4-0.1-0.7-0.4-0.9c-0.3-0.2-0.6-0.4-0.9-0.4
			c-0.4,0-0.7,0.1-0.9,0.4c-0.2,0.2-0.4,0.6-0.4,0.9c0,0.3,0.1,0.6,0.4,0.9c0.3,0.2,0.6,0.4,0.9,0.4c0.4,0,0.7-0.1,0.9-0.4
			C81.9,31.8,82.1,31.5,82.1,31.2z M85.1,31.1c0-0.2-0.3-0.3-0.9-0.6c0-0.4,0-0.7-0.1-0.9c-0.1-0.2-0.1-0.4-0.2-0.4
			c-0.1,0.1-0.3,0.3-0.7,0.7c-0.3,0.3-0.6,0.4-0.9,0.6c0.1,0,0.4,0.2,1.1,0.4c0.4,0.1,0.6,0.3,0.6,0.3c0,0.1-0.2,0.2-0.6,0.3
			c-0.3,0.1-0.7,0.2-1.1,0.3c0.3,0.1,0.6,0.3,1,0.5c0.1,0.1,0.4,0.3,0.6,0.6c0.1,0,0.2-0.4,0.2-1.2C84.8,31.5,85.1,31.2,85.1,31.1z"
			/>
		<path d="M265.3,30.8c0,0.1-0.1,0.3-0.2,0.4c-0.2,0.2-0.4,0.4-0.8,0.6c0,0.4-0.1,0.7-0.2,1.1c-0.1,0.3-0.2,0.5-0.3,0.5
			c-0.4-0.4-0.7-0.7-1.1-1c-0.4-0.3-0.8-0.5-1.2-0.5c0,0.4,0.2,0.8,0.6,1.2c0.3,0.3,0.6,0.7,0.9,1c0,0.2-0.3,0.3-1,0.5
			c-0.5,0.1-0.9,0.1-1.2,0.1c-0.5,1.4-1.1,2.7-2,3.9c-0.4,0.5-0.9,1.1-1.5,1.7c-0.8,0.8-1.4,1.2-1.8,1.2c-0.1,0-0.2-0.1-0.2-0.2
			c0-0.1,0.2-0.4,0.7-0.9c0.7-0.8,1.2-1.4,1.5-2.1c0.6-1.1,1-2.3,1.2-3.7c-0.4-0.1-0.7-0.1-0.8-0.2c-0.1-0.1-0.2-0.1-0.2-0.3
			c0.9-0.8,1.4-1.5,1.4-2.2c-0.4,0-0.8,0.2-1.2,0.5c-0.2,0.2-0.6,0.6-1,1c-0.1,0-0.2-0.2-0.4-0.5c-0.1-0.4-0.2-0.7-0.2-1.1
			c-0.4-0.2-0.6-0.4-0.7-0.4c-0.3-0.2-0.4-0.4-0.4-0.6c0-0.1,0.1-0.3,0.2-0.4c0.1-0.1,0.4-0.3,0.8-0.5c0-1.1,0.2-1.6,0.6-1.6
			c0.8,0.9,1.5,1.3,2.2,1.4c0-0.3-0.2-0.8-0.5-1.2c0,0-0.3-0.4-0.9-1c0-0.1,0.1-0.2,0.2-0.2c0.2-0.1,0.4-0.1,0.9-0.2
			c-0.2-1.1-0.6-2.2-1.3-3.3c-0.6-1.1-1.4-2.1-2.2-2.8c-0.1-0.1-0.2-0.2-0.2-0.3c0-0.1,0.1-0.2,0.3-0.2c0.3,0,0.7,0.2,1.3,0.6
			c1.8,1.3,3.2,3.2,4.1,5.8c1.4,0,2.1,0.2,2.1,0.6c-0.4,0.3-0.7,0.7-0.9,1c-0.3,0.4-0.4,0.8-0.4,1.2c0.3,0,0.7-0.2,1-0.5l1.1-1
			c0.2,0,0.4,0.5,0.5,1.4c0,0.1,0,0.2,0,0.3C264.9,30.2,265.3,30.6,265.3,30.8z M262.1,27.6c0,0-0.1-0.1-0.4-0.1s-0.4-0.1-0.5-0.1
			h-0.4c-0.1,0-0.2,0-0.3,0.1c-0.4-1.2-0.9-2.4-1.7-3.5c-0.9-1.2-1.8-2.2-3-3c0.8,0.7,1.4,1.6,2,2.6c0.7,1.2,1.2,2.5,1.4,3.8
			c-0.5,0-0.8,0.1-0.8,0.2c0.6,0.5,1,1,1.3,1.5c0.1-0.2,0.2-0.5,0.3-0.7c0,0,0.1-0.1,0.1-0.3c0.1-0.2,0.1-0.3,0.2-0.3
			c0.2,0,0.4,0.5,0.7,1.4c0.2-0.3,0.3-0.7,0.6-0.9C261.7,28,261.9,27.8,262.1,27.6z M258.7,31.6c-0.1-0.1-0.5-0.2-1.1-0.4
			c-0.4-0.1-0.6-0.2-0.6-0.3c0,0,0.3-0.2,0.9-0.4c0.1-0.1,0.4-0.2,0.7-0.3c-0.3-0.1-0.7-0.3-1-0.5c-0.1-0.1-0.4-0.3-0.7-0.6
			c-0.1,0-0.2,0.4-0.2,1.2c-0.6,0.3-0.9,0.6-0.9,0.7c0,0.2,0.3,0.3,0.9,0.6c0,0.8,0.1,1.3,0.3,1.3c0,0,0.2-0.2,0.6-0.5
			C258.2,31.9,258.5,31.7,258.7,31.6z M262.2,34.1c-0.5-0.4-0.9-0.9-1.2-1.4c-0.1,0.2-0.2,0.4-0.3,0.7c0,0-0.1,0.2-0.2,0.4
			c-0.1,0.2-0.2,0.3-0.2,0.3c0,0-0.1-0.1-0.2-0.3c-0.1-0.2-0.1-0.3-0.2-0.3c0-0.1-0.1-0.3-0.3-0.7c-0.1,0.3-0.3,0.6-0.5,0.8
			c-0.2,0.2-0.4,0.4-0.6,0.6c0,0.1,0.3,0.1,0.8,0.3c-0.3,1.3-0.5,2.1-0.6,2.4c-0.5,1.4-1.3,2.8-2.4,4.1c1.9-1.3,3.3-3.4,4.3-6.5
			c0.7,0,1,0,0.9,0C261.9,34.4,262.2,34.3,262.2,34.1z M261.6,30.9c0-0.4-0.1-0.7-0.4-0.9c-0.2-0.2-0.6-0.3-0.9-0.3
			c-0.3,0-0.6,0.1-0.9,0.4c-0.3,0.2-0.4,0.5-0.4,0.9c0,0.4,0.1,0.7,0.4,0.9c0.3,0.2,0.6,0.4,0.9,0.4c0.4,0,0.7-0.1,0.9-0.4
			C261.5,31.6,261.6,31.3,261.6,30.9z M264.7,30.8c0-0.1-0.1-0.2-0.2-0.3s-0.4-0.2-0.7-0.3c0-0.4,0-0.7-0.1-0.9
			c-0.1-0.2-0.1-0.4-0.2-0.4c0,0-0.2,0.2-0.5,0.5c-0.3,0.3-0.7,0.6-1.1,0.7c0.2,0.1,0.4,0.2,0.8,0.4c0,0,0.2,0.1,0.6,0.2
			c0.3,0.1,0.4,0.2,0.4,0.2c0,0.1-0.2,0.2-0.6,0.3c-0.6,0.2-1,0.3-1.1,0.3c0.4,0.1,0.7,0.3,1,0.5c0.1,0.1,0.4,0.3,0.6,0.6
			c0.1,0,0.1-0.1,0.2-0.3c0-0.1,0-0.4,0-0.8C264.4,31.2,264.7,30.9,264.7,30.8z"/>
	</g>
	<rect class="st1" width="341.1" height="55.1"/>
</g>
</svg>
