<?xml version="1.0" encoding="utf-8"?>
<!-- Generator: Adobe Illustrator 22.0.1, SVG Export Plug-In . SVG Version: 6.00 Build 0)  -->
<svg version="1.1" id="Layer_1" xmlns="http://www.w3.org/2000/svg" xmlns:xlink="http://www.w3.org/1999/xlink" x="0px" y="0px"
	 viewBox="0 0 314.7 59.3" style="enable-background:new 0 0 314.7 59.3;" xml:space="preserve">
<style type="text/css">
	.st0{opacity:0.2;}
	.st1{fill:#CC4A6C;}
</style>
<g>
	<g class="st0">
		<path d="M36.1,25.7c1.1-0.8,2-1.8,2.8-2.9c-0.8-1.2-1.9-2.4-3.2-3.5l-2.9,3C34,23.5,35.1,24.6,36.1,25.7z"/>
		<path d="M30.2,26c1.1-0.8,2-1.8,2.8-2.9c-0.8-1.2-1.9-2.4-3.2-3.5l-2.9,3C28,23.7,29.1,24.8,30.2,26z"/>
		<path d="M55.6,26c1.1-0.8,2-1.8,2.8-2.9c-0.8-1.2-1.9-2.4-3.2-3.5l-2.9,3C53.4,23.7,54.5,24.8,55.6,26z"/>
		<path d="M58,19.9c1.1-0.8,2-1.8,2.8-2.9c-0.8-1.2-1.9-2.4-3.2-3.5l-2.9,3C55.8,17.6,56.9,18.7,58,19.9z"/>
		<path d="M61.6,25.7c1.1-0.8,2-1.8,2.8-2.9c-0.8-1.2-1.9-2.4-3.2-3.5l-2.9,3C59.4,23.5,60.5,24.6,61.6,25.7z"/>
		<path d="M76.4,24.3c-1.3,0-2.5,0.5-3.7,1.7c-2.8,2.6-2.3,6.5-4.5,7.9c-0.7,0.5-1.6,0.7-2.4,0.7h-0.4c0,0,0,0,0,0v0H65
			c-1.2,0-2.2-0.3-3-0.8c-1.1-0.7-1.4-1.6-1.4-2.9c0-0.6,0.2-1.4,0.5-2.6l-0.2-0.2c-0.9,0.5-1.6,1-2.3,1.5c-0.6,1.3-0.8,3.1-2.3,4.1
			c-0.9,0.6-2,1-3.9,1h-0.4c0,0,0,0,0,0v0h-0.6c-3,0-3.7-1.2-3.7-3.9c0-1.3,0.1-3.8,0.1-6.8c0-4,0-8.7-0.5-12.7L47,11.1
			c-1.1,0.8-2.1,1.9-3.2,2.9c0.5,5.3,0.8,11.7,0.8,16.8c0,2.4-1.3,3.8-4.2,3.8h-0.6c0,0,0,0,0,0v0h-0.3c-1.2,0-2.2-0.3-3-0.8
			c-1.1-0.7-1.4-1.6-1.4-2.9c0-0.6,0.2-1.4,0.5-2.6l-0.2-0.2c-0.9,0.5-1.6,1-2.3,1.5c-0.6,1.3-0.8,3.1-2.3,4.1c-0.9,0.6-2,1-3.9,1
			h-0.4c0,0,0,0,0,0v0h-5.2c0.3-0.9,0.5-1.8,0.5-2.8c0-2.5-1.4-5.2-3.1-8l-1.7-2.8h-0.5c-2.1,3.4-3.7,7.9-4.8,13.6H8.7c0,0,0,0,0,0
			v0H8.3c-2.6,0-3.7-1-3.7-3.8c0-2.3,0.1-3.8,0.1-6.8c0-4-0.1-8.6-0.5-12.7l-0.4-0.2c-1.1,1-2.2,2-3.3,3.1c0.7,7,1,15.3,1,18.5
			c0.1,5.5,2.9,7.5,6.7,7.5h0.5v0c0,0,0,0,0,0c0.5,0,1.1,0,2.3-0.1c0,6.1,4.2,9.4,7.7,9.4c3.9,0,6-4,6-6.6c0-1-0.1-1.9-0.5-2.9
			c1,0.1,1.6,0.1,2,0.1h0.4v0c0,0,0,0,0,0H27c2.5,0,4.4-1.1,5.9-3.1H33c1.5,2.6,3.9,3.1,6.5,3.1h0.4v0c0,0,0,0,0,0h0.4
			c2.4,0,4.1-1.1,5.4-3.2h0.1c1.2,2.4,3.4,3.2,5.9,3.2h0.4v0c0,0,0,0,0,0h0.4c2.5,0,4.4-1.1,5.9-3.1h0.1c1.5,2.6,3.9,3.1,6.5,3.1
			h0.3h0h0.3c2.3,0,3.9-1.2,4.7-3.3h0.1c2.5,2,5.3,3.1,7.5,3.1c3.8,0,4.8-5,4.8-5.4C82.7,31.5,81.1,24.3,76.4,24.3z M16.1,27.5h0.1
			c1.8,2.7,2.9,4.9,2.9,6c0,0.9-1.9,1.1-5.2,1.1C14.5,32.5,15.2,30.2,16.1,27.5z M20,45.1c-2.7,0-5.6-2.6-6.2-5
			c1.1-0.2,2.1-0.3,3-0.3c1.6,0,2.8,0.6,3.6,1.7c0.7,0.9,1,1.9,1,2.7C21.4,44.8,20.8,45.1,20,45.1z M78.7,34.7c-2.2,0-4.4-1.1-6.6-3
			c0.8-1.5,1.8-2.4,3.3-2.4c1.9,0,3.6,2,4.2,5.2C79.6,34.6,79.3,34.7,78.7,34.7z"/>
		<path d="M93.9,7.2L93.8,7c-1,0.1-1.8,0.1-2.9,0.1c-2.4,0-3.7-0.8-3.7-1.5c0-0.4,0.8-1,1.9-1c0.4,0,0.7,0.1,1,0.4l0.8,0.8h0.4
			C91.7,5,92,4.3,92,3.7c0-1-0.8-1.6-2-1.6s-2.4,0.6-3.5,1.5c-1.2,1.1-1.8,2.3-1.8,3.2c0,1.1,0.6,1.8,1.7,2.3
			c-0.4,0.7-0.8,1.4-1.1,2.1l0.3,0.3c1.6-1,4-1.6,7.1-2C93.2,8.8,93.6,8,93.9,7.2z"/>
		<path d="M90.8,11.8c-1.1,1-2.2,2.2-3.3,3.6c0.7,6.2,1,12.3,1,18.4c0,2.7-0.1,4.8-0.4,6.8l0.6,0.5c1-1.1,1.7-2.2,2.3-3.3
			c0.6-1,0.9-3.9,0.9-8.4c0-5.5-0.1-11.2-0.7-17.3L90.8,11.8z"/>
		<path d="M104.5,23.9c-1.7,0-3.3,1-4.8,2.6c-1.5,1.8-2.2,3.9-2.2,6.3c0,3.2,2.2,5.7,6.5,5.7c1.2,0,2.4-0.1,3.3-0.4
			c-0.9,1.7-2.2,3.2-4.1,4.6c-2.3,1.7-4.6,2.6-7,2.6c-1.2,0-2.3-0.3-3.3-0.7l-0.6,1.6c2.9,2,5.7,3.2,8.4,3.2c2,0,4.2-1,6.6-4.3
			c1.8-2.6,2.9-5.7,2.9-9.8C110.4,28.6,107.6,23.9,104.5,23.9z M105.2,33.3c-3,0-5.2-1.4-5.2-2.7c0-0.9,1.2-2,3.1-2
			c1.7,0,3.7,2,4.4,4.5C106.9,33.3,106.1,33.3,105.2,33.3z"/>
		<path d="M132.9,37.4c2.2,0,4.5,0.2,8.2,0.7c1.1-1.9,1.8-3.5,1.8-4.8c0-1.6-0.7-3.5-1.8-5.3c-1.8-3-4-4.8-6.5-4.8
			c-3,0-4.6,2.5-5.9,6.2l0.5,3.7c-1,1.3-1.7,2.5-2.1,3.6c-0.5,1.5-0.7,2.7-0.7,3.7c0,4.4,4.1,12.9,5,18.7l0.7,0.1
			c0.6-2.4,0.9-4.1,0.9-5.3c0-2.2-3.2-10.6-3.7-15.5C130,37.8,131.3,37.4,132.9,37.4z M131.6,30.9c0.1-0.7,0.1-1.5,0.1-2v-0.4
			c0.4-0.2,0.9-0.3,1.5-0.3c2,0,3.9,1.3,5.6,3.7l-0.1,0.2c-1.8-0.3-3.5-0.5-4.9-0.5c-1,0-1.9,0.1-2.7,0.5l-0.1-0.1L131.6,30.9z"/>
		<path d="M153.5,22.2c-1.2-1.2-2.5-2.3-4-3.3l-2.6,3.7c1.5,1.1,2.9,2.1,4.1,3.1C152,24.8,152.9,23.6,153.5,22.2z"/>
		<path d="M183.6,27.6l-0.1-0.2h-2.1c-2.4,0-4.2-0.3-7-1.3c-3.3-1.2-5.9-2-7.8-2c-2.9,0-5.5,1.6-6.2,5.1l1.8,3.6h0.6l1.3-3
			c0.5-0.3,1.3-0.5,2.4-0.5c1.6,0,4.1,0.5,7.2,1.5v0.1c-4.5,2.8-8.3,3.7-14.3,3.7h-0.4c0,0,0,0,0,0v0h-0.4c-3.2,0-4.7-2.3-6.2-5.6
			h-0.4c-0.7,1.2-1.4,2.7-2,4.2c1,2.1,2,3.8,3.1,5.2c-0.3,1.7-1.4,3.7-3.3,5.4c-1.8,1.6-3.8,2.6-6.2,2.6c-0.6,0-1.5-0.1-2.5-0.5
			l-0.6,1.4c3,2,5.4,2.8,7.5,2.8c2.3,0,4.2-1.6,5.7-4.1c1-1.6,1.8-3.5,1.8-6.4c0.9,0.3,1.8,0.5,2.9,0.5h0.5v0c0,0,0,0,0,0h0.4
			c8.3,0,12-2.5,17-7.1c1.5-1.4,2.9-1.7,4.9-1.7C182.2,30.1,183,28.8,183.6,27.6z"/>
		<path d="M166.6,47.1c1.5,1.1,2.9,2.1,4.1,3.1c1.1-0.9,1.9-2.1,2.5-3.5c-1.2-1.2-2.5-2.3-4-3.3L166.6,47.1z"/>
		<path d="M191.8,11.4l-0.3-0.2c-1,0.7-1.7,1.4-2.2,2.1s-0.8,1.6-0.8,2.6c0,1.4,0.9,7.7,0.9,14.8c0,1.5,0,2.3-0.5,2.8
			c-0.8,0.8-2.2,1.2-4,1.2h-0.4c0,0,0,0,0,0v0h-0.4c-2.5,0-4.7-0.1-4.9-2.3l-0.1-0.1l-1.6,1.2c-0.1,0.6-0.1,1.1-0.1,1.7
			c0,1.8,0.5,3,1.5,4c0.8,0.8,2.5,1.2,5.2,1.2h0.4v0c0,0,0,0,0,0h0.4c2.5,0,4.1-1,5.2-2.5c0.6-0.9,1-1.9,1.4-3c0.6-1.8,1-3.7,1-6.3
			c0-2.8-0.1-5.4-0.2-7.6l2.5-1.9C192.8,15.6,191.8,13.3,191.8,11.4z"/>
		<path d="M201.5,11.8c-1.1,1-2.2,2.2-3.3,3.6c0.7,6.2,1,12.3,1,18.4c0,2.7-0.1,4.8-0.4,6.8l0.6,0.5c1-1.1,1.7-2.2,2.3-3.3
			c0.6-1,0.9-3.9,0.9-8.4c0-5.5-0.1-11.2-0.7-17.3L201.5,11.8z"/>
		<path d="M247.3,13.7c-1.2-1.2-2.6-2.4-4.1-3.4l-2.7,3.7c1.6,1.1,3,2.2,4.2,3.2C245.8,16.3,246.7,15.1,247.3,13.7z"/>
		<path d="M245.5,19c-1.6,0-3.1,0.9-4.5,2.4c-1.4,1.6-2.2,3.5-2.2,5.7c0,3.7,2.7,5.4,7.5,5.4c1,0,2,0,3-0.1c0,0.8-0.5,1.2-1.6,1.5
			c-4.1,1-8.4,1.6-13,1.6c-8.5,0-12.6-3.3-12.6-7.8c0-1,0.2-2.2,0.7-3.6l-1.8-0.7c-1,2.2-1.7,4.8-1.7,8c0,5.5,4.3,10,13.7,10
			c5,0,9.3-0.7,13.2-1.7c2-0.5,3.4-1.1,4.2-1.7c1-2.2,1.5-4.5,1.5-6.5C251.8,25.6,249.3,19,245.5,19z M241.2,25.4
			c0-0.8,1.1-1.9,3.1-1.9c1.9,0,3.3,1.7,4.4,4.7C244.1,28.1,241.2,27,241.2,25.4z"/>
		<path d="M264.8,23.9c-1.7,0-3.3,1-4.8,2.6c-1.5,1.8-2.2,3.9-2.2,6.3c0,3.2,2.2,5.7,6.5,5.7c1.2,0,2.4-0.1,3.3-0.4
			c-0.9,1.7-2.2,3.2-4.1,4.6c-2.3,1.7-4.6,2.6-7,2.6c-1.2,0-2.3-0.3-3.3-0.7l-0.6,1.6c2.9,2,5.7,3.2,8.4,3.2c2,0,4.2-1,6.6-4.3
			c1.8-2.6,2.9-5.7,2.9-9.8C270.6,28.6,267.9,23.9,264.8,23.9z M265.5,33.3c-3,0-5.2-1.4-5.2-2.7c0-0.9,1.2-2,3.1-2
			c1.7,0,3.7,2,4.4,4.5C267.2,33.3,266.4,33.3,265.5,33.3z"/>
		<path d="M314.7,27.4h-2.1c-2.4,0-4.2-0.3-7-1.3c-3.3-1.2-5.9-2-7.8-2c-2.9,0-5.5,1.6-6.2,5.1l1.8,3.6h0.6l1.3-3
			c0.5-0.3,1.3-0.5,2.4-0.5c1.6,0,4.1,0.5,7.2,1.5v0.1c-4.5,2.8-8.3,3.7-14.3,3.7h-0.4c0,0,0,0,0,0v0h-0.4c-3.2,0-4.7-2.3-6.2-5.6
			h-0.4c-0.7,1.2-1.4,2.7-2,4.2c1,2.1,2,3.8,3.1,5.2c-0.3,1.7-1.4,3.7-3.3,5.4c-1.8,1.6-3.8,2.6-6.2,2.6c-0.6,0-1.5-0.1-2.5-0.5
			l-0.6,1.4c3,2,5.4,2.8,7.5,2.8c2.3,0,4.2-1.6,5.7-4.1c1-1.6,1.8-3.5,1.8-6.4c0.9,0.3,1.8,0.5,2.9,0.5h0.5v0c0,0,0,0,0,0h0.4
			c8.3,0,12-2.5,17-7.1c1.5-1.4,2.8-1.7,4.8-1.7c1-1.4,1.8-2.8,2.4-3.9L314.7,27.4z"/>
	</g>
	<g>
		<path class="st1" d="M8.2,38.2H7.7c-3.9,0-6.6-2-6.7-7.5c0-3.2-0.3-11.6-1-18.5C1,11,2.2,10,3.3,9l0.4,0.2
			c0.5,4.1,0.5,8.7,0.5,12.7c0,3-0.1,4.5-0.1,6.8c0,2.8,1.1,3.8,3.7,3.8h0.4V38.2z"/>
		<path class="st1" d="M26.1,32.5v5.7h-0.4c-0.4,0-1,0-2-0.1c0.4,1,0.5,1.9,0.5,2.9c0,2.6-2.1,6.6-6,6.6c-3.5,0-7.7-3.3-7.7-9.4
			c-1.2,0.1-1.8,0.1-2.3,0.1c-1.4,0-2-1.5-2-2.8s0.6-2.8,2-2.8h3.2c1.1-5.6,2.7-10.2,4.8-13.6h0.5l1.7,2.8c1.7,2.8,3.1,5.5,3.1,8
			c0,0.9-0.2,1.8-0.5,2.8H26.1z M19.5,43c0.8,0,1.4-0.3,1.4-0.8c0-0.8-0.3-1.8-1-2.7c-0.8-1.1-2-1.7-3.6-1.7c-0.9,0-1.9,0.1-3,0.3
			C13.8,40.4,16.8,43,19.5,43z M18.6,31.4c0-1.1-1.1-3.3-2.9-6h-0.1c-0.9,2.7-1.6,5-2.2,7.1C16.7,32.5,18.6,32.3,18.6,31.4z"/>
		<path class="st1" d="M39.4,38.2H39c-2.6,0-5-0.5-6.5-3.1h-0.1c-1.5,2-3.5,3.1-5.9,3.1h-0.4c-1.4,0-2-1.5-2-2.8s0.6-2.8,2-2.8h0.4
			c1.9,0,2.9-0.4,3.9-1c1.6-1,1.7-2.8,2.3-4.1c0.7-0.5,1.4-1,2.3-1.5l0.2,0.2c-0.3,1.2-0.5,2-0.5,2.6c0,1.3,0.3,2.2,1.4,2.9
			c0.8,0.5,1.8,0.8,3,0.8h0.3V38.2z M29.2,17.4c1.3,1.2,2.4,2.4,3.2,3.5c-0.7,1.1-1.7,2-2.8,2.9c-1.1-1.2-2.2-2.3-3.3-3.4L29.2,17.4
			z M35.2,17.2c1.3,1.2,2.4,2.4,3.2,3.5c-0.7,1.1-1.7,2-2.8,2.9c-1.1-1.2-2.2-2.3-3.3-3.4L35.2,17.2z"/>
		<path class="st1" d="M51.5,38.2h-0.4c-2.5,0-4.7-0.8-5.9-3.2h-0.1c-1.2,2-3,3.2-5.4,3.2h-0.4c-1.4,0-2-1.5-2-2.8s0.6-2.8,2-2.8H40
			c2.9,0,4.2-1.4,4.2-3.8c0-5.1-0.3-11.4-0.8-16.8c1.1-1.1,2.1-2.1,3.2-2.9l0.4,0.2c0.5,4,0.5,8.7,0.5,12.7c0,3-0.1,5.5-0.1,6.8
			c0,2.7,0.7,3.9,3.7,3.9h0.6V38.2z"/>
		<path class="st1" d="M64.8,38.2h-0.4c-2.6,0-5-0.5-6.5-3.1h-0.1c-1.5,2-3.5,3.1-5.9,3.1h-0.4c-1.4,0-2-1.5-2-2.8s0.6-2.8,2-2.8
			h0.4c1.9,0,2.9-0.4,3.9-1c1.6-1,1.7-2.8,2.3-4.1c0.7-0.5,1.4-1,2.3-1.5l0.2,0.2c-0.3,1.2-0.5,2-0.5,2.6c0,1.3,0.3,2.2,1.4,2.9
			c0.8,0.5,1.8,0.8,3,0.8h0.3V38.2z M54.6,17.4c1.3,1.2,2.4,2.4,3.2,3.5c-0.7,1.1-1.7,2-2.8,2.9c-1.1-1.2-2.2-2.3-3.3-3.4L54.6,17.4
			z M57,11.3c1.3,1.2,2.4,2.4,3.2,3.5c-0.7,1.1-1.7,2-2.8,2.9c-1.1-1.2-2.2-2.3-3.3-3.4L57,11.3z M60.6,17.2
			c1.3,1.2,2.4,2.4,3.2,3.5c-0.7,1.1-1.7,2-2.8,2.9c-1.1-1.2-2.2-2.3-3.3-3.4L60.6,17.2z"/>
		<path class="st1" d="M69.8,34.8c-0.8,2.1-2.4,3.3-4.7,3.3h-0.4c-1.3,0-2-1.4-2-2.8c0-1.4,0.6-2.8,2-2.8h0.4c0.9,0,1.7-0.3,2.4-0.7
			c2.2-1.4,1.7-5.4,4.5-7.9c1.2-1.1,2.5-1.7,3.7-1.7c4.7,0,6.3,7.2,6.3,10.4c0,0.4-1,5.4-4.8,5.4C75.2,37.9,72.5,36.8,69.8,34.8
			L69.8,34.8z M78.2,32.5c0.5,0,0.9-0.1,0.9-0.3c-0.6-3.2-2.3-5.2-4.2-5.2c-1.5,0-2.5,0.9-3.3,2.4C73.8,31.4,76,32.5,78.2,32.5z"/>
		<path class="st1" d="M90.3,3.7l-0.8-0.8c-0.2-0.3-0.6-0.4-1-0.4c-1.1,0-1.9,0.6-1.9,1c0,0.7,1.3,1.5,3.7,1.5c1,0,1.9,0,2.9-0.1
			l0.1,0.3c-0.3,0.8-0.7,1.5-1.2,2.3c-3.1,0.4-5.5,1-7.1,2l-0.3-0.3c0.3-0.7,0.7-1.4,1.1-2.1c-1.1-0.5-1.7-1.2-1.7-2.3
			c0-0.9,0.6-2.1,1.8-3.2C87.1,0.6,88.3,0,89.5,0s2,0.6,2,1.6c0,0.6-0.3,1.3-0.8,2.1H90.3z M87.6,38.5c0.3-2,0.4-4.1,0.4-6.8
			c0-6.1-0.3-12.2-1-18.4c1.1-1.4,2.2-2.5,3.3-3.6l0.5,0.3c0.6,6.1,0.7,11.8,0.7,17.3c0,4.4-0.3,7.4-0.9,8.4
			c-0.6,1.1-1.4,2.2-2.3,3.3L87.6,38.5z"/>
		<path class="st1" d="M103.5,36.3c-4.4,0-6.5-2.5-6.5-5.7c0-2.4,0.7-4.5,2.2-6.3c1.5-1.6,3.1-2.6,4.8-2.6c3.1,0,5.9,4.7,5.9,11.4
			c0,4.1-1.2,7.2-2.9,9.8c-2.5,3.2-4.6,4.3-6.6,4.3c-2.7,0-5.6-1.2-8.4-3.2l0.6-1.6c1,0.4,2.1,0.7,3.3,0.7c2.4,0,4.7-1,7-2.6
			c1.8-1.4,3.2-2.9,4.1-4.6C105.9,36.2,104.7,36.3,103.5,36.3z M102.6,26.5c-1.9,0-3.1,1.1-3.1,2c0,1.3,2.2,2.7,5.2,2.7
			c0.9,0,1.7-0.1,2.4-0.2C106.3,28.5,104.3,26.5,102.6,26.5z"/>
		<path class="st1" d="M128.1,27.4c1.3-3.8,2.9-6.2,5.9-6.2c2.6,0,4.7,1.8,6.5,4.8c1.1,1.8,1.8,3.7,1.8,5.3c0,1.2-0.7,2.9-1.8,4.8
			c-3.7-0.5-6-0.7-8.2-0.7c-1.6,0-2.9,0.4-3.6,1.1c0.4,4.8,3.7,13.2,3.7,15.5c0,1.2-0.3,2.9-0.9,5.3l-0.7-0.1
			c-0.8-5.8-5-14.2-5-18.7c0-1,0.2-2.2,0.7-3.7c0.4-1.1,1-2.4,2.1-3.6L128.1,27.4z M130.7,30c0.8-0.3,1.7-0.5,2.7-0.5
			c1.4,0,3.1,0.2,4.9,0.5l0.1-0.2c-1.8-2.4-3.6-3.7-5.6-3.7c-0.6,0-1.1,0.1-1.5,0.3v0.4c0,0.5,0,1.2-0.1,2L130.7,30L130.7,30z"/>
		<path class="st1" d="M158.4,38.2h-0.5c-1.2,0-2.1-0.3-2.9-0.5c0,2.9-0.8,4.8-1.8,6.4c-1.6,2.5-3.4,4.1-5.7,4.1
			c-2.1,0-4.5-0.8-7.5-2.8l0.6-1.4c1.1,0.4,1.9,0.5,2.5,0.5c2.4,0,4.4-1,6.2-2.6c1.9-1.7,3-3.7,3.3-5.4c-1.1-1.4-2.2-3.1-3.1-5.2
			c0.7-1.5,1.3-2.9,2-4.2h0.4c1.5,3.3,3,5.6,6.2,5.6h0.4V38.2z M148.9,16.8c1.5,1,2.8,2.1,4,3.3c-0.6,1.4-1.5,2.5-2.5,3.5
			c-1.2-1-2.6-2.1-4.1-3.1L148.9,16.8z"/>
		<path class="st1" d="M173.1,28.7c-3.1-1-5.6-1.5-7.2-1.5c-1.1,0-1.8,0.2-2.4,0.5l-1.3,3h-0.6l-1.8-3.6c0.7-3.5,3.2-5.1,6.2-5.1
			c1.9,0,4.6,0.7,7.8,2c2.7,1,4.6,1.3,7,1.3h2.1l0.1,0.2c-0.6,1.2-1.4,2.5-2.4,3.9c-2,0-3.3,0.3-4.9,1.7c-5,4.5-8.8,7.1-17,7.1h-0.4
			c-1.4,0-2-1.5-2-2.8s0.6-2.8,2-2.8h0.4c6,0,9.9-0.9,14.3-3.7V28.7z M168.7,41.3c1.5,1,2.8,2.1,4,3.3c-0.6,1.4-1.5,2.5-2.5,3.5
			c-1.2-1-2.6-2.1-4.1-3.1L168.7,41.3z M178.5,30.1l0.1,0.1c0.2,2.1,2.5,2.3,4.9,2.3h0.4v5.7h-0.4c-2.7,0-4.3-0.4-5.2-1.2
			c-1-1-1.5-2.2-1.5-4c0-0.6,0-1.1,0.1-1.7L178.5,30.1z"/>
		<path class="st1" d="M191.2,9.3c0,1.9,1.1,4.2,3.1,7.6l-2.5,1.9c0.1,2.2,0.2,4.8,0.2,7.6c0,2.5-0.4,4.4-1,6.3
			c-0.4,1.1-0.8,2.1-1.4,3c-1.1,1.5-2.6,2.5-5.2,2.5H184c-1.4,0-2-1.5-2-2.8s0.6-2.8,2-2.8h0.4c1.8,0,3.2-0.3,4-1.2
			c0.5-0.5,0.5-1.3,0.5-2.8c0-7.1-0.9-13.3-0.9-14.8c0-1,0.2-2,0.8-2.6s1.2-1.4,2.2-2.1L191.2,9.3z"/>
		<path class="st1" d="M198.3,38.5c0.3-2,0.4-4.1,0.4-6.8c0-6.1-0.3-12.2-1-18.4c1.1-1.4,2.2-2.5,3.3-3.6l0.5,0.3
			c0.6,6.1,0.7,11.8,0.7,17.3c0,4.4-0.3,7.4-0.9,8.4c-0.6,1.1-1.4,2.2-2.3,3.3L198.3,38.5z"/>
		<path class="st1" d="M245.7,30.4c-4.8,0-7.5-1.7-7.5-5.4c0-2.2,0.8-4.2,2.2-5.7c1.4-1.5,2.9-2.4,4.5-2.4c3.9,0,6.3,6.5,6.3,12.6
			c0,2-0.5,4.4-1.5,6.5c-0.7,0.6-2.2,1.2-4.2,1.7c-3.9,1-8.2,1.7-13.2,1.7c-9.4,0-13.7-4.5-13.7-10c0-3.2,0.7-5.7,1.7-8l1.8,0.7
			c-0.5,1.4-0.7,2.5-0.7,3.6c0,4.5,4.1,7.8,12.6,7.8c4.6,0,8.9-0.6,13-1.6c1.1-0.3,1.6-0.7,1.6-1.5
			C247.7,30.4,246.7,30.4,245.7,30.4z M242.7,8.2c1.5,1,2.9,2.2,4.1,3.4c-0.6,1.4-1.5,2.6-2.6,3.6c-1.2-1-2.6-2.1-4.2-3.2L242.7,8.2
			z M243.7,21.4c-1.9,0-3.1,1-3.1,1.9c0,1.6,3,2.7,7.4,2.8C247,23.1,245.6,21.4,243.7,21.4z"/>
		<path class="st1" d="M263.8,36.3c-4.4,0-6.5-2.5-6.5-5.7c0-2.4,0.7-4.5,2.2-6.3c1.5-1.6,3.1-2.6,4.8-2.6c3.1,0,5.9,4.7,5.9,11.4
			c0,4.1-1.2,7.2-2.9,9.8c-2.5,3.2-4.6,4.3-6.6,4.3c-2.7,0-5.6-1.2-8.4-3.2l0.6-1.6c1,0.4,2.1,0.7,3.3,0.7c2.4,0,4.7-1,7-2.6
			c1.8-1.4,3.2-2.9,4.1-4.6C266.2,36.2,265,36.3,263.8,36.3z M262.9,26.5c-1.9,0-3.1,1.1-3.1,2c0,1.3,2.2,2.7,5.2,2.7
			c0.9,0,1.7-0.1,2.4-0.2C266.6,28.5,264.6,26.5,262.9,26.5z"/>
		<path class="st1" d="M289.6,38.2h-0.5c-1.2,0-2.1-0.3-2.9-0.5c0,2.9-0.8,4.8-1.8,6.4c-1.6,2.5-3.4,4.1-5.7,4.1
			c-2.1,0-4.5-0.8-7.5-2.8l0.6-1.4c1.1,0.4,1.9,0.5,2.5,0.5c2.4,0,4.4-1,6.2-2.6c1.9-1.7,3-3.7,3.3-5.4c-1.1-1.4-2.2-3.1-3.1-5.2
			c0.7-1.5,1.3-2.9,2-4.2h0.4c1.5,3.3,3,5.6,6.2,5.6h0.4V38.2z"/>
		<path class="st1" d="M304.3,28.7c-3.1-1-5.6-1.5-7.2-1.5c-1.1,0-1.8,0.2-2.4,0.5l-1.3,3h-0.6L291,27c0.7-3.5,3.2-5.1,6.2-5.1
			c1.9,0,4.6,0.7,7.8,2c2.7,1,4.6,1.3,7,1.3h2.1l0.1,0.2c-0.6,1.2-1.4,2.5-2.4,3.9c-2,0-3.3,0.3-4.8,1.7c-5,4.5-8.8,7.1-17,7.1h-0.4
			c-1.4,0-2-1.5-2-2.8s0.6-2.8,2-2.8h0.4c6,0,9.9-0.9,14.3-3.7V28.7z"/>
	</g>
</g>
</svg>
