<?xml version="1.0" encoding="utf-8"?>
<!-- Generator: Adobe Illustrator 22.0.1, SVG Export Plug-In . SVG Version: 6.00 Build 0)  -->
<svg version="1.1" id="Layer_1" xmlns="http://www.w3.org/2000/svg" xmlns:xlink="http://www.w3.org/1999/xlink" x="0px" y="0px"
	 viewBox="0 0 86.2 86.2" style="enable-background:new 0 0 86.2 86.2;" xml:space="preserve">
<style type="text/css">
	.st0{fill:#235958;}
</style>
<g>
	<g>
		<polygon class="st0" points="53.7,26.6 48.8,22.7 45.7,28 50.8,31.8 		"/>
		<path class="st0" d="M49.3,50.2c0,0.7,0.5,1.7,1.5,2.8s1.5,1.8,1.5,2.1c0,1.4-1.9,2-5.6,2h-1h-2.2h-13v8.8h13h2.2h0.6
			c3.4,0,5.9-1.4,7.6-4.2c1.4-2.4,2.1-5.4,2.1-9c0-3.2-1-6.9-3-11.3C50.5,46.2,49.3,49.2,49.3,50.2z"/>
		<polygon class="st0" points="54.6,30.7 51.6,35.4 46.9,31.8 43.7,37 49.1,40.9 51.5,36.5 56.4,39.9 59.6,34.7 		"/>
	</g>
	<g>
		<path class="st0" d="M45.8,15.6l-0.3,3.9c-0.7-0.4-1.7-1.1-3.1-2c-3,3.8-5.7,5.7-7.9,5.7c-0.5,0-1.3-0.1-2.4-0.4
			c2.5-1.4,5.3-3.4,8.5-6.2c-1.6-1.4-2.5-2.6-2.5-3.6c0-1.4,0.5-2.8,1.4-4.4c1-1.6,2.1-2.4,3.4-2.4c1.7,0,2.5,1.2,2.5,3.5
			c0,1.6-0.4,3.2-1.2,4.7C44.8,14.8,45.3,15.2,45.8,15.6z M43.1,12c0-0.5-0.2-1.1-0.6-1.7c-0.4-0.6-0.9-0.9-1.4-0.9
			c-0.6,0-0.8,0.4-0.8,1.1c0,0.5,0.9,1.4,2.7,2.7C43,12.6,43.1,12.2,43.1,12z"/>
	</g>
</g>
</svg>
