<?xml version="1.0" encoding="utf-8"?>
<!-- Generator: Adobe Illustrator 22.0.1, SVG Export Plug-In . SVG Version: 6.00 Build 0)  -->
<svg version="1.1" id="Layer_1" xmlns="http://www.w3.org/2000/svg" xmlns:xlink="http://www.w3.org/1999/xlink" x="0px" y="0px"
	 viewBox="0 0 86.2 86.2" style="enable-background:new 0 0 86.2 86.2;" xml:space="preserve">
<style type="text/css">
	.st0{fill:#235958;}
</style>
<g>
	<g>
		<path class="st0" d="M61.3,43.8c0,4.7-2.7,8.7-8,12c-5.4,3.3-11.9,5-19.5,5c-2.4,0-4.5-1-6.4-2.9c-0.1-0.1-1.5-2-4.3-5.9
			c2,0.4,3.8,0.6,5.4,0.6c1.5,0,4-0.2,7.6-0.5c0.8-2.1,1.1-4,1.1-5.5c0-2.7-0.6-6.8-1.6-12.2C34.5,29,34,24.9,34,22.2l-1-1.6
			c0.7-3.2,1.9-5.2,3.7-6c0.1,1.9,0.8,3.5,2.2,4.9s3.1,1.9,4.9,1.6l-3.5,6.1l-1.2-0.6c-0.2,0.6-0.2,1.2-0.2,1.8
			c0,1.1,0.2,2.9,0.6,5.5c0.4,2.6,0.6,4.7,0.6,6.2c0,2.5-0.3,5.1-0.9,8c5.6-7.9,10.5-11.8,14.6-11.8c2.3,0,4.1,0.7,5.4,2.1
			C60.6,39.8,61.3,41.6,61.3,43.8z M57.6,47.3c0-0.9-0.6-1.7-1.8-2.3c-1-0.4-2-0.6-3-0.6c-4,0-8.2,2.5-12.5,7.6
			c2.6,0,5.8-0.4,9.7-1.1C55,49.9,57.6,48.7,57.6,47.3z"/>
	</g>
	<g>
		<path class="st0" d="M47.5,62.4c0,1.9-0.6,3.3-1.8,4l-10.9,6.2c0-1.1,0.2-2,0.5-2.4s1-1,2-1.6L47.5,62.4z"/>
	</g>
</g>
</svg>
