<?xml version="1.0" encoding="utf-8"?>
<!-- Generator: Adobe Illustrator 22.0.1, SVG Export Plug-In . SVG Version: 6.00 Build 0)  -->
<svg version="1.1" id="Layer_1" xmlns="http://www.w3.org/2000/svg" xmlns:xlink="http://www.w3.org/1999/xlink" x="0px" y="0px"
	 viewBox="0 0 86.2 86.2" style="enable-background:new 0 0 86.2 86.2;" xml:space="preserve">
<style type="text/css">
	.st0{fill:#235958;}
</style>
<path class="st0" d="M53.8,53.5h-1.1H50c-2.2,0-3.8-4.2-4.6-12.6c-0.5-4.6-0.7-9.8-0.7-15.6c0-2.7-0.3-6-0.8-9.8
	c-2.7,2.3-4.1,3.4-4.1,3.6c0,2.7,0.2,6.8,0.7,12.2s0.7,9.5,0.7,12.2c0,6.6-1.8,9.9-5.3,9.9h-0.6h-2.2H20.5V62h12.7h2.2H36
	c2.8,0,5.1-3.1,6.8-9.3C44,58.9,46.3,62,50,62h2.7h1h13.8v-8.6L53.8,53.5L53.8,53.5z"/>
<g>
	<g>
		<path class="st0" d="M39.7,5.2c0,1.9-0.6,3.3-1.8,4.1l-11,6.2c0-1.1,0.2-2,0.5-2.4c0.3-0.5,1-1,2-1.6L39.7,5.2z"/>
	</g>
</g>
</svg>
