<?xml version="1.0" encoding="utf-8"?>
<!-- Generator: Adobe Illustrator 22.0.1, SVG Export Plug-In . SVG Version: 6.00 Build 0)  -->
<svg version="1.1" id="Layer_1" xmlns="http://www.w3.org/2000/svg" xmlns:xlink="http://www.w3.org/1999/xlink" x="0px" y="0px"
	 viewBox="0 0 86.2 86.2" style="enable-background:new 0 0 86.2 86.2;" xml:space="preserve">
<style type="text/css">
	.st0{fill:#235958;}
</style>
<path class="st0" d="M63.7,48.5h-1.1h-4.8c-2,0-3.4-0.2-4.4-0.6c-1.2-0.5-2.1-1.5-2.9-3.1c1.3-0.2,3.2-0.3,5.6-0.6l1-6.5
	c-0.6,0-1.6,0.1-2.8,0.2C53,38,52.1,38,51.5,38c-3.9,0-8.3-1-13.3-2.9c-3.1-1.2-5.5-1.8-7.1-1.8c-2.6,0-4.6,1-6,3.1
	c-0.9,1.3-1.7,3.6-2.4,6.7h5c0.6-1,1.4-1.5,2.5-1.5c1.8,0,4.2,0.8,7.3,2.3c-5.3,2.7-9.9,4.2-14,4.4H23h-2.1H8.4v8.4h12.4h2.1h1.6
	c0.4,0,1.1-0.3,2.3-0.9c2.3-1.5,4-2.7,5.2-3.5c3.4-2.6,5.9-4.3,7.3-5.1c2.3-1.2,5.1-2,8.5-2.6c-1,2.8-1.5,4.8-1.5,6.1
	c0,4,3.4,6,10.2,6h6h1.1H77v-8.4H63.7V48.5z"/>
<g>
	<path class="st0" d="M33,18c0,1.6-0.6,3-1.7,4.3c-1.1,1.2-2.5,1.9-4.1,1.9c-2.7,0-4-1.5-4-4.5c0-1.9,0.4-3.5,1.1-4.8
		c1-1.6,2.3-2.3,4.1-2.3c1.3,0,2.4,0.6,3.3,1.8C32.6,15.4,33,16.6,33,18z M30.9,19c0-0.6-0.5-1.4-1.6-2.1c-1.1-0.8-2-1.2-2.7-1.2
		c-0.6,0-1.1,0.3-1.6,0.8c-0.5,0.6-0.7,1.1-0.7,1.7c0,1.5,1.1,2.3,3.3,2.3C29.9,20.5,30.9,20,30.9,19z"/>
</g>
</svg>
