<?xml version="1.0" encoding="utf-8"?>
<!-- Generator: Adobe Illustrator 22.0.1, SVG Export Plug-In . SVG Version: 6.00 Build 0)  -->
<svg version="1.1" id="Layer_1" xmlns="http://www.w3.org/2000/svg" xmlns:xlink="http://www.w3.org/1999/xlink" x="0px" y="0px"
	 viewBox="0 0 86.2 86.2" style="enable-background:new 0 0 86.2 86.2;" xml:space="preserve">
<style type="text/css">
	.st0{fill:#235958;}
</style>
<g>
	<g>
		<path class="st0" d="M43.1,10.4c0,1.9-0.6,3.3-1.8,4l-10.9,6.2c0-1.1,0.2-2,0.5-2.4s1-1,2-1.6L43.1,10.4z"/>
	</g>
</g>
<g>
	<polygon class="st0" points="47.9,24.5 52.6,27.7 55.5,22.5 50.9,18.8 48.1,23.4 43.5,19.8 40.6,24.9 45.7,28.6 	"/>
	<path class="st0" d="M55,39.1c-1.5-5.6-3.5-8.4-6-8.4c-3,0-5.3,4.4-6.8,13.3c-0.3,1.8-0.5,3-0.5,3.6c0,2.8,1.5,4.2,4.6,4.2
		c1.7,0,3-0.4,3.9-1.2c0.8-0.6,1.5-1.8,2.3-3.5c1.1,2.4,1.6,3.9,1.6,4.5c0,2.6-3.5,3.9-10.5,3.9h-1.7h-2H27.5v8.4H40h2h0.6
		c9.4,0,14.2-4.4,14.2-13.1C56.7,47.1,56.2,43.2,55,39.1z M47.2,43.6c-1.4,0-2.1-0.8-2.1-2.4c0-1.3,0.5-2,1.6-2c1,0,2,0.8,3,2.4
		C48.8,42.9,48,43.6,47.2,43.6z"/>
</g>
</svg>
