<?xml version="1.0" encoding="utf-8"?>
<!-- Generator: Adobe Illustrator 22.0.1, SVG Export Plug-In . SVG Version: 6.00 Build 0)  -->
<svg version="1.1" id="Layer_1" xmlns="http://www.w3.org/2000/svg" xmlns:xlink="http://www.w3.org/1999/xlink" x="0px" y="0px"
	 viewBox="0 0 121.5 89.8" style="enable-background:new 0 0 121.5 89.8;" xml:space="preserve">
<style type="text/css">
	.st0{fill:#235958;}
	.st1{fill:#EF5316;}
</style>
<path class="st0" d="M22.8,70H19c-2.3,0-4-1.1-5-3.2c-0.6-1.3-1.1-3.4-1.4-6.4c-2.9,4-5.2,6-7,6c-1.2,0-2.4-0.3-3.5-1
	c-1.3-0.7-2-1.7-2-2.8c0-1.2,0.7-3.3,2.1-6.4c0.7-1.7,1.9-3.1,3.5-4.3c0.5-0.4,2.2-1.3,5-2.9c-0.5-2.1-0.7-3.5-0.7-4.1
	c0-1,1.3-2.8,3.8-5.2c0,0.1,0.5,3.8,1.6,11.3c0.9,6,1.5,9.3,2,9.9c0.5,0.6,1.6,0.8,3.3,0.8h2.2L22.8,70L22.8,70z M16.7,32.4l-3,5.1
	l-4.6-3.3l-2.2,4.2l-5.2-3.7l3-4.9l4.6,3.5l2.8-4.5L16.7,32.4z M12,57.2c0-1.2-0.3-2.9-0.8-5.1c-4,2.1-6,3.8-6,4.8s1.8,1.5,5.5,1.5
	C11.6,58.4,12,58,12,57.2z"/>
<path class="st0" d="M38.5,56.9c0,8.7-4.7,13.1-14.2,13.1h-2.7v-8.4h3.7c7,0,10.5-1.3,10.5-3.9c0-0.6-0.5-2.1-1.6-4.5
	c-0.8,1.7-1.5,2.9-2.3,3.5c-0.9,0.8-2.2,1.2-3.9,1.2c-3.1,0-4.6-1.4-4.6-4.2c0-0.6,0.2-1.8,0.5-3.6c1.5-8.8,3.8-13.3,6.8-13.3
	c2.5,0,4.5,2.8,6,8.4C38,49.3,38.5,53.2,38.5,56.9z M37.3,28.6l-3,5.2l-4.7-3.2l-2.2,4.1l-5-3.7l2.9-5.1l4.6,3.6l2.7-4.6L37.3,28.6z
	 M31.4,47.7c-1-1.6-2-2.4-3-2.4c-1.1,0-1.6,0.7-1.6,2c0,1.6,0.7,2.4,2.1,2.4C29.8,49.7,30.6,49,31.4,47.7z"/>
<path class="st0" d="M66.4,70h-3.9c-0.7,5-1.9,9.2-3.6,12.6c-2.5,4.8-5.7,7.2-9.8,7.2c-2.9,0-6.5-1.4-10.7-4.3l0.6-1
	c1.7,0.3,2.9,0.5,3.7,0.5c2.8,0,5.8-1.2,8.8-3.5c1.3-1,2.8-2.8,4.6-5.6c1.3-2.1,2.6-4.3,3.9-6.4c-2.4-0.8-4.1-2.8-5.3-5.9l4.5-6.6
	c1.5,3,3.2,4.5,5.1,4.5h2.1V70L66.4,70z"/>
<path class="st1" d="M73.6,11.3c0,1.6-0.6,3-1.6,4.3c-1.1,1.2-2.5,1.9-4.1,1.9c-2.7,0-4-1.5-4-4.5c0-1.9,0.4-3.5,1.1-4.8
	c1-1.6,2.3-2.3,4.1-2.3c1.3,0,2.4,0.6,3.3,1.8C73.2,8.7,73.6,10,73.6,11.3z M71.5,12.3c0-0.6-0.5-1.4-1.6-2.1
	c-1.1-0.8-2-1.2-2.7-1.2c-0.6,0-1.1,0.3-1.6,0.8c-0.5,0.6-0.7,1.1-0.7,1.7c0.1,1.6,1.2,2.3,3.4,2.3C70.4,13.8,71.5,13.3,71.5,12.3z"
	/>
<path class="st1" d="M102.5,70h-7.4c-0.6,0-1.7,0-3.1-0.1s-2.4-0.1-3.1-0.1c-3.3,0-5.3-0.7-6-2.1c-2.8,1.6-7.5,2.3-14.1,2.3h-3.5
	v-8.4h4.8c0.5-0.9,1-1.8,1.4-2.7c0.2-0.4,0.2-1.6,0.2-3.5c0-2.7-0.6-6.7-1.6-12c-1.1-5.3-1.6-9.4-1.6-12.1c-0.4-0.6-0.7-1.1-0.8-1.4
	c0.8-3.2,2-5.2,3.6-6c0.1,1.9,0.9,3.5,2.3,4.9s3,1.9,4.9,1.6L75,36.5c-0.5-0.2-1-0.5-1.6-0.9l-0.1,0.6c-0.1,1.5,0.1,3.6,0.6,6.3
	c0.5,2.9,0.7,5,0.7,6.3c0,2.8-0.3,5.7-1,8.8c3.2-3.8,5.4-6.2,6.5-7.3c3.1-3,5.8-4.6,8.2-4.6c2.3,0,4.1,0.7,5.4,2.1
	c1.4,1.4,2.1,3.2,2.1,5.5c0,1.9-0.3,3.6-0.9,4.9c-0.5,1-1.4,2.3-2.8,3.9c2.1-0.2,3.5-0.2,4.1-0.2h6.2C102.5,61.6,102.5,70,102.5,70z
	 M92.2,56.5c0-0.9-0.5-1.7-1.6-2.3c-0.9-0.5-1.8-0.7-2.7-0.7c-3.7,0-8,2.6-12.9,7.7c2.5,0,5.7-0.4,9.6-1.1
	C89.7,59.1,92.2,57.9,92.2,56.5z"/>
<path class="st0" d="M121.5,60c0,1.8-0.4,3.4-1.2,4.7c-0.9,1.7-2.2,2.5-3.8,2.5c-1.7,0-4.6-1-8.7-3.1c-0.3,1-1,2.2-2.2,3.5
	c-1.2,1.5-2.2,2.3-3.1,2.3h-2.7v-8.4h2.6c2.3,0,4-1.3,5.1-4c0.8-2,1.6-4,2.3-6c1.3-2.5,2.9-3.8,4.8-3.8c2,0,3.8,1.6,5.1,4.7
	C121,55.2,121.5,57.6,121.5,60z M117,58.4c0-1-0.4-1.8-1.2-2.5c-0.8-0.7-1.8-1-2.8-1c-1.2,0-2.1,0.8-2.9,2.3
	c2.8,1.6,4.7,2.4,5.7,2.4C116.6,59.5,117,59.1,117,58.4z"/>
<g>
	<path class="st0" d="M117.7,77.6c0,1.9-0.6,3.3-1.8,4L105,87.8c0-1.1,0.2-2,0.5-2.4s1-1,2-1.6L117.7,77.6z"/>
</g>
<g>
	<path class="st0" d="M60.8,40.2c0,1.9-0.6,3.3-1.8,4L48,50.4c0-1.1,0.2-2,0.5-2.4s1-1,2-1.6L60.8,40.2z"/>
</g>
<g>
	<path class="st0" d="M33.2,13.8c0,1.9-0.6,3.3-1.8,4L20.4,24c0-1.1,0.2-2,0.5-2.4s1-1,2-1.6L33.2,13.8z"/>
</g>
</svg>
