<?xml version="1.0" encoding="utf-8"?>
<!-- Generator: Adobe Illustrator 22.0.1, SVG Export Plug-In . SVG Version: 6.00 Build 0)  -->
<svg version="1.1" id="Layer_1" xmlns="http://www.w3.org/2000/svg" xmlns:xlink="http://www.w3.org/1999/xlink" x="0px" y="0px"
	 viewBox="0 0 86.2 86.2" style="enable-background:new 0 0 86.2 86.2;" xml:space="preserve">
<style type="text/css">
	.st0{fill:#235958;}
</style>
<g>
	<path class="st0" d="M44.7,12.6c0,2-0.6,3.5-1.9,4.3l-11.5,6.6c0-1.2,0.2-2.1,0.5-2.6s1-1.1,2.1-1.7L44.7,12.6z"/>
</g>
<g>
	<path class="st0" d="M47.3,47.9c0,0.7,0.5,1.7,1.5,2.8s1.5,1.8,1.5,2.1c0,1.4-1.9,2-5.6,2h-1h-2.2h-13v8.8h13h2.2h0.6
		c3.4,0,5.9-1.4,7.6-4.2c1.4-2.4,2.1-5.4,2.1-9c0-3.2-1-6.9-3-11.3C48.6,44,47.3,46.9,47.3,47.9z"/>
	<polygon class="st0" points="51.8,24.3 46.8,20.4 43.7,25.8 48.9,29.5 	"/>
	<polygon class="st0" points="52.6,28.4 49.6,33.2 45,29.5 41.8,34.8 47.1,38.6 49.6,34.3 54.5,37.7 57.7,32.5 	"/>
</g>
</svg>
