<?xml version="1.0" encoding="utf-8"?>
<!-- Generator: Adobe Illustrator 22.0.1, SVG Export Plug-In . SVG Version: 6.00 Build 0)  -->
<svg version="1.1" id="Layer_1" xmlns="http://www.w3.org/2000/svg" xmlns:xlink="http://www.w3.org/1999/xlink" x="0px" y="0px"
	 viewBox="0 0 97.3 64.9" style="enable-background:new 0 0 97.3 64.9;" xml:space="preserve">
<style type="text/css">
	.st0{display:none;enable-background:new    ;}
	.st1{display:inline;fill:#EF5316;}
	.st2{fill:none;}
	.st3{clip-path:url(#SVGID_2_);}
	.st4{fill:#235958;}
	.st5{fill:#EF5316;}
</style>
<text transform="matrix(1.0494 0 0 1 334.606 53.8203)" style="display:none;fill:#EF5316;enable-background:new    ; font-family:'AdobeArabic-Regular'; font-size:60px;">أأ</text>
<rect x="106.6" y="-13" class="st2" width="76.7" height="86"/>
<rect x="-0.4" y="-8.3" class="st2" width="104" height="94"/>
<rect x="-0.8" y="-14" class="st2" width="98" height="93"/>
<rect x="12.3" y="-7" class="st2" width="79" height="88"/>
<rect x="4.3" y="-10" class="st2" width="96" height="89"/>
<rect x="3.3" class="st2" width="106" height="82"/>
<rect x="6.3" y="-2" class="st2" width="84" height="84"/>
<rect x="-1.1" y="-4.3" class="st2" width="116" height="81.3"/>
<rect x="-0.8" y="-4.3" class="st2" width="109.7" height="83.3"/>
<rect x="108.9" y="-7" class="st2" width="159.3" height="91.3"/>
<rect x="-0.8" y="-3" class="st2" width="105.3" height="82.7"/>
<g>
	<g>
		<g>
			<defs>
				<rect id="SVGID_1_" x="-16.1" y="-11" width="125.3" height="90"/>
			</defs>
			<clipPath id="SVGID_2_">
				<use xlink:href="#SVGID_1_"  style="overflow:visible;"/>
			</clipPath>
			<g class="st3">
				<path class="st4" d="M-302.5,49.7h-4.8c-0.6,4.2-1.7,7.7-3.2,10.5c-2.2,4-5,6-8.6,6c-2.5,0-5.7-1.2-9.4-3.6l0.5-0.8
					c1.5,0.3,2.5,0.4,3.2,0.4c2.5,0,5-1,7.7-2.9c1.1-0.8,2.5-2.4,4-4.7c1.1-1.8,2.3-3.6,3.4-5.4c-2.1-0.7-3.6-2.3-4.6-4.9l3.9-5.5
					c0.9,1.8,1.9,3,3,3.4c0.7,0.3,2.3,0.4,4.8,0.4v7.1H-302.5z"/>
				<path class="st4" d="M-276.1,49.7h-4.7c-1.9,0-3.4-0.6-4.3-1.7c-0.3,2.6-1.5,4-3.7,4c-2,0-4.7-1.9-8.2-5.6
					c-0.3,0.5-1.2,1.4-2.5,2.5c-0.8,0.6-2.5,0.9-5.2,0.9v-7h2.4c1.7,0,3.1-0.8,4.3-2.3c0.9-1.4,1.8-2.9,2.7-4.3
					c1.1-1.5,2.5-2.3,4.1-2.3c0.8,0,1.8,0.7,3,2.2s2.2,2.9,3.2,4.4c1.4,1.6,2.8,2.3,4.3,2.3h4.7L-276.1,49.7L-276.1,49.7z
					 M-289.2,42.8c0-1-0.2-2.1-0.5-3.4c-0.4-1.6-1-2.4-1.7-2.4c-0.6,0-1.2,0.6-1.8,1.7c-0.4,0.8-0.8,1.7-1.2,2.5
					c2.1,2.1,3.6,3.1,4.4,3.1C-289.5,44.3-289.2,43.8-289.2,42.8z"/>
				<path class="st5" d="M-267.2,9.1c0,1.3-0.5,2.5-1.4,3.6c-1,1-2.2,1.5-3.6,1.5c-2.3,0-3.5-1.3-3.5-3.8c0-1.6,0.3-2.9,1-4
					c0.8-1.3,2-1.9,3.6-1.9c1.1,0,2.1,0.5,2.9,1.5C-267.6,6.9-267.2,8-267.2,9.1z M-269,9.9c0-0.5-0.5-1.1-1.4-1.8
					c-0.9-0.6-1.7-1-2.3-1c-0.5,0-1,0.2-1.4,0.7s-0.6,1-0.6,1.4c0,1.3,1,1.9,2.9,1.9C-270,11.2-269,10.8-269,9.9z"/>
				<path class="st5" d="M-262.2,49.7h-4.6c-2.2,0-3.7-1.3-4.7-3.8c-1.3,2.5-2.8,3.8-4.6,3.8h-2.3v-7c2.7,0,3.8,0,3.2,0
					c1.5,0,2.5-0.3,3-0.8c0.1-0.1,0.2-1.2,0.2-3.2l0.4,0.1c0.3,2,1.5,3.2,3.7,3.6c0.7,0.2,2.6,0.3,5.8,0.3v7H-262.2z M-265,32
					l-2.5,4.2l-4.1-2.8l-2,3.6l-4.4-3.2l2.6-4.2l3.9,3l2.4-3.8L-265,32z M-269.7,25.6l-2.5,4.3l-4.3-3.1l2.7-4.2L-269.7,25.6z"/>
				<path class="st4" d="M-245.6,41.4c0,1.5-0.4,2.8-1.1,4c-0.8,1.4-1.9,2.1-3.3,2.1c-1.5,0-4-0.8-7.6-2.5c-0.3,0.9-0.9,1.8-1.9,3
					c-1,1.3-1.9,1.9-2.7,1.9h-2.3v-7c2.1,0,3.5-0.1,4.2-0.4c1-0.4,1.9-1.4,2.6-3s1.3-3.2,2-4.9c1.2-2.1,2.6-3.2,4.2-3.2
					c1.8,0,3.3,1.3,4.5,4C-246.1,37.4-245.6,39.4-245.6,41.4z M-249.5,40.1c0-0.8-0.4-1.5-1.1-2.1c-0.7-0.6-1.5-0.9-2.4-0.9
					c-1,0-1.9,0.6-2.5,1.9c2.4,1.3,4.1,2,5,2C-249.9,41-249.5,40.7-249.5,40.1z"/>
				<path class="st4" d="M-202.2,48.1c0,3.8-1,7.3-2.9,10.6c-2.3,4-5.3,6-8.9,6c-2.2,0-5-1.1-8.4-3.3l0.4-0.9c1,0.2,1.9,0.3,2.5,0.3
					c3,0,6.2-1.4,9.7-4.1c3.5-2.7,5.2-5.4,5.2-8.1c0-1-0.7-2.4-2.2-4.4c-1.1-1.3-2.2-2.6-3.2-3.9c0.7-3,1.2-5.4,1.6-7.2
					C-204.3,37.6-202.2,42.6-202.2,48.1z"/>
				<path class="st4" d="M-183.6,49.7h-4.7c-2.2,0-3.8-0.9-4.9-2.7c-0.8-1.4-1.4-4.1-1.5-8.1c0-1.7-0.4-4.7-0.9-9.1
					c-0.6-4-0.8-7-0.8-9.1c0-0.6,0-1.1,0.1-1.4c0-0.3,1.2-1.4,3.5-3.2c0,0.2,0.3,3.8,0.9,10.7c0.6,6.3,0.8,10.1,0.8,11.4
					c0,1.5,0.3,2.6,0.8,3.4c0.5,0.7,1.6,1.1,3.1,1.1c-2.4,0-1.2-0.1,3.6-0.1L-183.6,49.7L-183.6,49.7z"/>
				<path class="st4" d="M-157.3,49.7h-4.7c-1.9,0-3.4-0.6-4.3-1.7c-0.3,2.6-1.5,4-3.7,4c-2,0-4.7-1.9-8.2-5.6
					c-0.3,0.5-1.2,1.4-2.5,2.5c-0.8,0.6-2.5,0.9-5.2,0.9v-7h2.4c1.7,0,3.1-0.8,4.3-2.3c0.9-1.4,1.8-2.9,2.7-4.3
					c1.1-1.5,2.5-2.3,4.1-2.3c0.8,0,1.8,0.7,3,2.2c1.1,1.5,2.2,2.9,3.2,4.4c1.4,1.6,2.8,2.3,4.3,2.3h4.7L-157.3,49.7L-157.3,49.7z
					 M-170.4,42.8c0-1-0.2-2.1-0.5-3.4c-0.4-1.6-1-2.4-1.7-2.4c-0.6,0-1.2,0.6-1.8,1.7c-0.4,0.8-0.8,1.7-1.2,2.5
					c2.1,2.1,3.6,3.1,4.4,3.1C-170.7,44.3-170.4,43.8-170.4,42.8z"/>
				<path class="st5" d="M-147.7,71.6c0,1.5-0.5,2.6-1.6,3.2l-9.6,5.3c0-1,0.1-1.7,0.4-2c0.3-0.4,0.9-0.8,1.8-1.4L-147.7,71.6z"/>
				<path class="st5" d="M-149.2,39.3c0,2.9-0.6,5.2-1.8,7.1c-1.4,2.2-3.5,3.4-6.3,3.4h-2.3v-7c4.9,0,7.3-0.5,7.3-1.6
					c0-0.2-0.4-0.8-1.2-1.7s-1.2-1.6-1.2-2.2c0-0.8,1-3.1,3.1-6.9C-150,33.8-149.2,36.8-149.2,39.3z M-146.2,25l-2.7,4.1l-4.1-2.7
					l-2,3.5l-4.4-3.1l2.7-4.2l3.9,2.9l2.5-3.8L-146.2,25z M-151,18.6l-2.5,4.2l-4.3-3.1l2.6-4.2L-151,18.6z"/>
				<path class="st4" d="M-97.6,38.3c0,4-1.4,7.2-4.2,9.6s-6.3,3.7-10.5,3.7c-3,0-5.4-0.7-7.3-2.1c-2.1-1.5-3.2-3.7-3.2-6.4
					c0-3.4,1.3-7.6,3.9-12.7l0.9,0.6c-1.2,2.3-1.8,4.4-1.8,6.1c0,2.8,0.8,4.8,2.5,5.8c1.3,0.9,3.6,1.3,6.8,1.3
					c2.3,0,4.4-0.4,6.5-1.2c2.8-1.1,4.2-2.5,4.2-4.3c0-0.8-0.8-2.4-2.3-4.8c-1.3-2.1-2.3-3.7-3.1-4.7l2.6-6.2
					C-99.3,27.1-97.6,32.3-97.6,38.3z M-109.1,20.1l-2.6,4.1l-4.3-3l2.7-4.2L-109.1,20.1z"/>
				<path class="st4" d="M-78.8,49.7h-4.7c-2.2,0-3.8-0.9-4.9-2.7c-0.8-1.4-1.4-4.1-1.5-8.1c0-1.7-0.4-4.7-0.9-9.1
					c-0.6-4-0.8-7-0.8-9.1c0-0.6,0-1.1,0.1-1.4c0-0.3,1.2-1.4,3.5-3.2c0,0.2,0.3,3.8,0.9,10.7c0.6,6.3,0.8,10.1,0.8,11.4
					c0,1.5,0.3,2.6,0.8,3.4c0.5,0.7,1.6,1.1,3.1,1.1c-2.4,0-1.2-0.1,3.6-0.1C-78.8,42.8-78.8,49.7-78.8,49.7z"/>
				<path class="st4" d="M-64.9,49.7h-4.6c-2.2,0-3.7-1.3-4.7-3.8c-1.3,2.5-2.8,3.8-4.6,3.8h-2.3v-7c2.7,0,3.8,0,3.2,0
					c1.5,0,2.5-0.3,3-0.8c0.1-0.1,0.2-1.2,0.2-3.2l0.4,0.1c0.3,2,1.5,3.2,3.7,3.7c0.7,0.1,2.6,0.2,5.8,0.2L-64.9,49.7L-64.9,49.7z
					 M-70.1,55.2l-2.6,4.2l-4.3-3l2.7-4.2L-70.1,55.2z"/>
				<path class="st4" d="M-44.7,49.7h-4.7c-0.9,0-2.1-0.7-3.7-2.1c-0.1,0-1.2-1.1-3.3-3.3c-3.8,3.6-6.7,5.4-8.4,5.4h-2.3v-7
					c2.2,0,3.5,0,3.9-0.1c0.9-0.2,2.1-0.7,3.4-1.6c-1.5-2.2-3.5-3.3-5.8-3.3c0.2-2.7,1-4.7,2.5-5.8c1.4-1,3.5-1.5,6.5-1.5
					c2.2,0,4,0.5,5.4,1.5c1.6,1.2,2.5,2.8,2.5,4.8c0,2.1-1.3,3.8-3.9,5c1.2,0.6,2.5,0.9,3.7,0.9c-0.6,0,0.8,0,4.2,0
					C-44.7,42.8-44.7,49.7-44.7,49.7z"/>
				<path class="st5" d="M-35.1,2.9L-35.4,6C-36,5.7-36.8,5.2-38,4.4c-2.5,3-4.7,4.5-6.5,4.5c-0.4,0-1.1-0.1-2-0.3
					c2.1-1.1,4.4-2.7,7-4.9c-1.4-1.1-2-2-2-2.9c0-1.1,0.4-2.2,1.2-3.5s1.7-1.9,2.8-1.9c1.4,0,2.1,0.9,2.1,2.8c0,1.3-0.3,2.5-1,3.8
					C-35.9,2.3-35.5,2.6-35.1,2.9z M-37.3,0.1c0-0.4-0.2-0.8-0.5-1.3s-0.7-0.7-1.2-0.7s-0.7,0.3-0.7,0.9c0,0.4,0.8,1.1,2.3,2.1
					C-37.4,0.6-37.3,0.2-37.3,0.1z"/>
				<path class="st5" d="M-36.7,39.3c0,2.9-0.6,5.2-1.8,7.1c-1.4,2.2-3.5,3.4-6.3,3.4h-2.3v-7c4.9,0,7.3-0.5,7.3-1.6
					c0-0.2-0.4-0.8-1.2-1.7s-1.2-1.6-1.2-2.2c0-0.8,1-3.1,3.1-6.9C-37.5,33.8-36.7,36.8-36.7,39.3z M-33.6,25l-2.7,4.1l-4.1-2.7
					l-2,3.5l-4.4-3.1l2.7-4.2l3.9,2.9l2.5-3.8L-33.6,25z M-38.5,18.6l-2.5,4.2l-4.3-3.1l2.6-4.2L-38.5,18.6z"/>
				<path class="st4" d="M49.4,49.7h-4.7c-2.5,0-4-1.1-4.6-3.2c-5.8,3.8-13,5.8-21.5,5.8c-4.7,0-8.6-0.8-11.7-2.3
					c-3.9-2-5.8-5-5.8-9.1c0-2.5,1-5.9,3.1-9.9l0.9,0.4c-0.8,2-1.3,3.8-1.3,5.5c0,3,2,5.3,6,6.6c2.8,1,6.1,1.5,10,1.5
					c7.1,0,12.4-0.6,15.8-1.8c1.1-0.4,1.7-0.6,1.8-0.6c0.8-0.4,1.2-0.7,1.4-1.2C39,41,39.1,40.2,39,39h0.7c0.7,2.5,2.7,3.8,6,3.8
					c0.4,0,1,0,1.8-0.1c0.8,0,1.4,0,1.8,0L49.4,49.7L49.4,49.7z M27,59.3l-2.5,4.2l-4.3-3.1l2.7-4.1L27,59.3z"/>
				<path class="st4" d="M66,49.7h-4.6c-3.1,0-5.2-2.5-6.2-7.5c-1.5,5-3.4,7.5-5.8,7.5h-2.3v-7h2.3c3,0,4.5-2.7,4.5-8
					c0-2.2-0.2-5.5-0.6-9.9c-0.4-4.4-0.6-7.7-0.6-9.9c0-0.1,1.1-1,3.4-2.9c0.5,3.1,0.7,5.7,0.7,7.9c0,4.7,0.2,8.9,0.6,12.6
					c0.8,6.8,2.1,10.2,3.9,10.2H66V49.7L66,49.7z"/>
				<path class="st4" d="M86.3,49.7h-4.7c-0.9,0-2.1-0.7-3.7-2.1c-0.1,0-1.2-1.1-3.3-3.3c-3.8,3.6-6.7,5.4-8.4,5.4h-2.3v-7
					c2.2,0,3.5,0,3.9-0.1c0.9-0.2,2.1-0.7,3.4-1.6c-1.5-2.2-3.5-3.3-5.8-3.3c0.2-2.7,1-4.7,2.5-5.8c1.4-1,3.5-1.5,6.5-1.5
					c2.2,0,4,0.5,5.4,1.5c1.6,1.2,2.5,2.8,2.5,4.8c0,2.1-1.3,3.8-3.9,5c1.2,0.6,2.5,0.9,3.7,0.9c-0.6,0,0.8,0,4.2,0L86.3,49.7
					L86.3,49.7z"/>
				<path class="st5" d="M95.8,0.4c0,1.6-0.5,2.7-1.6,3.4L84.6,9c0-0.9,0.1-1.6,0.4-2s0.9-0.8,1.8-1.3L95.8,0.4z"/>
				<path class="st4" d="M54.2,2.6c0,1.6-0.5,2.7-1.6,3.4l-9.6,5.2c0-0.9,0.1-1.6,0.4-2c0.3-0.4,0.9-0.8,1.8-1.3L54.2,2.6z"/>
				<path class="st5" d="M94.3,39.3c0,2.9-0.6,5.2-1.8,7.1c-1.4,2.2-3.5,3.4-6.3,3.4h-2.3v-7c4.9,0,7.3-0.5,7.3-1.6
					c0-0.2-0.4-0.8-1.2-1.7c-0.8-0.9-1.2-1.6-1.2-2.2c0-0.8,1-3.1,3.1-6.9C93.5,33.8,94.3,36.8,94.3,39.3z M97.3,25l-2.7,4.1
					l-4.1-2.7l-2,3.5l-4.4-3.1l2.7-4.2l3.9,2.9l2.5-3.8L97.3,25z M92.4,18.6L90,22.8l-4.3-3.1l2.6-4.2L92.4,18.6z"/>
				<path class="st4" d="M144.5,49.7h-4.8c-0.6,4.2-1.7,7.7-3.2,10.5c-2.2,4-5,6-8.6,6c-2.5,0-5.7-1.2-9.4-3.6l0.5-0.8
					c1.5,0.3,2.5,0.4,3.2,0.4c2.5,0,5-1,7.7-2.9c1.1-0.8,2.5-2.4,4-4.7c1.1-1.8,2.3-3.6,3.4-5.4c-2.1-0.7-3.6-2.3-4.6-4.9l3.9-5.5
					c0.9,1.8,1.9,3,3,3.4c0.7,0.3,2.3,0.4,4.8,0.4L144.5,49.7L144.5,49.7z"/>
				<path class="st4" d="M181.1,49.7h-7.7c-6,0-8.9-1.7-8.9-5c0-1.1,0.4-2.8,1.3-5.1c-3,0.4-5.5,1.2-7.5,2.1c-1.2,0.6-3.3,2-6.3,4.2
					c-1,0.7-2.5,1.7-4.5,3c-1,0.5-2.7,0.7-5.2,0.7v-7c3.1,0,5.6-0.3,7.5-0.8c1.6-0.4,4-1.4,7-2.9c-2.7-1.3-4.8-1.9-6.3-1.9
					c-0.9,0-1.7,0.4-2.2,1.2h-4.4c0.7-2.6,1.4-4.4,2.1-5.6c1.2-1.7,3-2.6,5.2-2.6c1.4,0,3.5,0.5,6.2,1.5c4.4,1.6,8.2,2.4,11.6,2.4
					c0.6,0,1.4,0,2.5-0.1s1.9-0.1,2.5-0.1l-0.8,5.4c-2.2,0.2-3.8,0.3-4.9,0.5c0.7,1.3,1.5,2.2,2.5,2.6c0.8,0.3,2.1,0.5,3.8,0.5h6.6
					L181.1,49.7L181.1,49.7z M162.6,52.5l-2.5,4.2l-4.3-3.2l2.7-4.2L162.6,52.5z"/>
				<path class="st5" d="M189.9,13.9c0,1.3-0.5,2.5-1.4,3.6c-1,1-2.2,1.5-3.6,1.5c-2.3,0-3.5-1.3-3.5-3.8c0-1.6,0.3-2.9,1-4
					c0.8-1.3,2-1.9,3.6-1.9c1.1,0,2.1,0.5,2.9,1.5C189.6,11.7,189.9,12.8,189.9,13.9z M188.1,14.7c0-0.5-0.5-1.1-1.4-1.8
					c-0.9-0.6-1.7-1-2.3-1c-0.5,0-1,0.2-1.4,0.7s-0.6,1-0.6,1.4c0,1.3,1,1.9,2.9,1.9C187.2,16,188.1,15.6,188.1,14.7z"/>
				<path class="st5" d="M194.9,49.7h-4.6c-2.2,0-3.7-1.3-4.7-3.8c-1.3,2.5-2.8,3.8-4.6,3.8h-2.3v-7c2.7,0,3.8,0,3.2,0
					c1.5,0,2.5-0.3,3-0.8c0.1-0.1,0.2-1.2,0.2-3.2l0.4,0.1c0.3,2,1.5,3.2,3.7,3.6c0.7,0.2,2.6,0.3,5.8,0.3L194.9,49.7L194.9,49.7z
					 M192.1,32l-2.5,4.2l-4.1-2.8l-2,3.6l-4.4-3.2l2.6-4.2l3.9,3l2.4-3.8L192.1,32z"/>
				<path class="st4" d="M211.6,41.4c0,1.5-0.4,2.8-1.1,4c-0.8,1.4-1.9,2.1-3.3,2.1c-1.5,0-4-0.8-7.6-2.5c-0.3,0.9-0.9,1.8-1.9,3
					c-1,1.3-1.9,1.9-2.7,1.9h-2.3v-7c2.1,0,3.5-0.1,4.2-0.4c1-0.4,1.9-1.4,2.6-3s1.3-3.2,2-4.9c1.2-2.1,2.6-3.2,4.2-3.2
					c1.8,0,3.3,1.3,4.5,4C211.1,37.4,211.6,39.4,211.6,41.4z M207.6,40.1c0-0.8-0.4-1.5-1.1-2.1c-0.7-0.6-1.5-0.9-2.4-0.9
					c-1,0-1.9,0.6-2.5,1.9c2.4,1.3,4.1,2,5,2C207.3,41,207.6,40.7,207.6,40.1z"/>
				<path class="st4" d="M240.3,40.3H236c0.7-2.6,1.4-4.5,2.1-5.6c1.2-1.8,3-2.7,5.2-2.7c1.7,0,3.9,0.2,6.6,0.7
					c3.5,0.6,5.7,0.9,6.6,1c1.5,0,3.7,0.1,6.5,0.3l-1.1,5.4c-2.6,0-5.1,0.2-7.3,0.6c-4.1,0.7-7.7,2.3-10.7,4.8
					c-3.4,2.8-5.1,6.1-5.1,9.9c0,4.5,2.8,7.9,8.3,10.1c4,1.6,8.8,2.3,14.4,2.3c1.5,0,4.9-0.2,10.4-0.6l0.1,0.8l-13.9,6.4h-1.7
					c-6.1,0-10.9-1.1-14.4-3.2c-4.3-2.6-6.5-6.6-6.5-12.1c0-7.5,4-13.7,11.9-18.6c-2.5-0.5-4.2-0.8-5-0.8c-0.7,0-1.2,0.1-1.4,0.2
					C240.9,39.4,240.6,39.8,240.3,40.3z"/>
				<path class="st4" d="M288.7,49.7H284c-2.2,0-3.8-0.9-4.9-2.7c-0.8-1.4-1.4-4.1-1.5-8.1c0-1.7-0.4-4.7-0.9-9.1
					c-0.6-4-0.8-7-0.8-9.1c0-0.6,0-1.1,0.1-1.4c0-0.3,1.2-1.4,3.5-3.2c0,0.2,0.3,3.8,0.9,10.7c0.6,6.3,0.8,10.1,0.8,11.4
					c0,1.5,0.3,2.6,0.8,3.4c0.5,0.7,1.6,1.1,3.1,1.1c-2.4,0-1.2-0.1,3.6-0.1V49.7L288.7,49.7z"/>
				<path class="st4" d="M299.1,49.7c-3,0-4.9-1.3-5.9-3.9c-1.2,2.6-2.7,3.9-4.6,3.9h-2.3v-7c3.5,0,5.6-0.3,6.3-0.8
					c0.3-0.2,0.5-1.2,0.6-3h0.4c0.5,1.4,1.3,2.4,2.3,2.9c0.8,0.4,2.1,0.5,3.9,0.5v7.3C299.7,49.7,299.1,49.7,299.1,49.7z"/>
				<path class="st4" d="M299.1,42.4h2.3c1.9,0,3.1-0.4,3.4-1.1c0.1-0.2,0.3-1.3,0.5-3.5l0.8,0.1c0,0.9,0.9,2,2.6,3.2
					c0.6,0.4,1.7,0.6,3.4,0.6c1.3,0,2.2-0.4,2.7-1.3c0.3-0.5,0.4-1.5,0.5-3h0.8c0.4,1.7,1.2,3.1,2.5,4.2c0.8,0.7,2.1,1.1,3.8,1.2
					c-1.5,0-0.1-0.1,4.2-0.1v7H322c-1.7,0-3.1-0.7-4.2-2.1c-0.7-0.9-1.3-2.3-2-4.4c-1.3,3.8-3.1,5.6-5.4,5.6c-1.9,0-3.3-1.2-4.2-3.7
					c-1.3,3-3.7,4.5-7.2,4.5L299.1,42.4L299.1,42.4z"/>
				<path class="st4" d="M352.9,49.7h-4.7c-1.9,0-3.4-0.6-4.3-1.7c-0.3,2.6-1.5,4-3.7,4c-2,0-4.7-1.9-8.2-5.6
					c-0.3,0.5-1.1,1.4-2.5,2.5c-0.8,0.6-2.5,0.9-5.2,0.9v-7h2.4c1.7,0,3.1-0.8,4.3-2.3c0.9-1.4,1.8-2.9,2.7-4.3
					c1.1-1.5,2.5-2.3,4.1-2.3c0.8,0,1.8,0.7,3,2.2s2.2,2.9,3.2,4.4c1.4,1.6,2.8,2.3,4.3,2.3h4.7L352.9,49.7L352.9,49.7z M339.8,42.8
					c0-1-0.2-2.1-0.5-3.4c-0.4-1.6-1-2.4-1.7-2.4c-0.6,0-1.2,0.6-1.8,1.7c-0.4,0.8-0.8,1.7-1.2,2.5c2.1,2.1,3.6,3.1,4.4,3.1
					C339.5,44.3,339.8,43.8,339.8,42.8z"/>
				<path class="st4" d="M350.6,49.7v-7h14.1v7H350.6z"/>
				<path class="st5" d="M373.3,71.6c0,1.5-0.5,2.6-1.6,3.2l-9.6,5.3c0-1,0.1-1.7,0.4-2c0.3-0.4,0.9-0.8,1.8-1.4L373.3,71.6z"/>
				<path class="st5" d="M371.8,39.3c0,2.9-0.6,5.2-1.8,7.1c-1.4,2.2-3.5,3.4-6.3,3.4h-2.3v-7c4.9,0,7.3-0.5,7.3-1.6
					c0-0.2-0.4-0.8-1.2-1.7c-0.8-0.9-1.2-1.6-1.2-2.2c0-0.8,1-3.1,3.1-6.9C371,33.8,371.8,36.8,371.8,39.3z M374.9,25l-2.7,4.1
					l-4.1-2.7l-2,3.5l-4.4-3.1l2.7-4.2l3.9,2.9l2.5-3.8L374.9,25z"/>
				<path class="st4" d="M401.6,40.3h-4.4c0.7-2.6,1.4-4.5,2.1-5.6c1.2-1.8,3-2.7,5.2-2.7c1.7,0,3.9,0.2,6.6,0.7
					c3.5,0.6,5.7,0.9,6.6,1c1.5,0,3.7,0.1,6.5,0.3l-1.1,5.4c-2.6,0-5.1,0.2-7.3,0.6c-4.1,0.7-7.7,2.3-10.7,4.8
					c-3.4,2.8-5.1,6.1-5.1,9.9c0,4.5,2.8,7.9,8.3,10.1c4,1.6,8.8,2.3,14.4,2.3c1.5,0,4.9-0.2,10.4-0.6l0.1,0.8l-13.9,6.4h-1.7
					c-6.1,0-10.9-1.1-14.4-3.2c-4.3-2.6-6.5-6.6-6.5-12.1c0-7.5,4-13.7,11.9-18.6c-2.5-0.5-4.2-0.8-5-0.8c-0.7,0-1.2,0.1-1.4,0.2
					C402.1,39.4,401.9,39.8,401.6,40.3z"/>
				<path class="st4" d="M450,49.7h-4.7c-2.2,0-3.8-0.9-4.9-2.7c-0.8-1.4-1.4-4.1-1.5-8.1c0-1.7-0.4-4.7-0.9-9.1
					c-0.6-4-0.8-7-0.8-9.1c0-0.6,0-1.1,0.1-1.4s1.2-1.4,3.5-3.2c0,0.2,0.3,3.8,0.9,10.7c0.6,6.3,0.8,10.1,0.8,11.4
					c0,1.5,0.3,2.6,0.8,3.4c0.5,0.7,1.6,1.1,3.1,1.1c-2.4,0-1.2-0.1,3.6-0.1V49.7L450,49.7z"/>
				<path class="st4" d="M470.1,49.7h-4.7c-3.5,0-6.1-0.8-7.9-2.5c-3.1,1.7-5.6,2.5-7.6,2.5h-2.3v-7c2.3,0,3.8-0.3,4.8-0.8
					c-0.5-0.5-0.8-1-0.8-1.6c0-2.1,0.7-4.4,2.2-6.9c1.4-2.4,3-4.2,4.8-5.6c1.2-0.9,2.2-1.3,3-1.3c1.5,0,2.6,1.1,3.3,3.4
					c0.5,1.6,0.8,3.3,0.8,5.2c0,2.6-0.8,4.9-2.5,6.8c0.8,0.6,2,1,3.4,1c-2.2,0-1-0.1,3.6-0.1L470.1,49.7L470.1,49.7z M463.1,37.1
					c0-1-0.4-1.9-1.2-2.6c-0.8-0.7-1.8-1-2.9-1c-0.9,0-1.8,0.2-2.6,0.7c-1,0.5-1.5,1.2-1.5,2c0,1,1.2,2.3,3.5,4
					C461.6,39.5,463.1,38.4,463.1,37.1z M464.3,18.6l-2.6,4.2l-4.3-3l2.7-4.2L464.3,18.6z"/>
				<path class="st5" d="M479.7,7.7l-0.3,3.1c-0.6-0.3-1.4-0.8-2.6-1.6c-2.5,3-4.7,4.5-6.5,4.5c-0.4,0-1.1-0.1-2-0.3
					c2.1-1.1,4.4-2.7,7-4.9c-1.4-1.1-2-2-2-2.9c0-1.1,0.4-2.2,1.2-3.5c0.8-1.3,1.7-1.9,2.8-1.9c1.4,0,2.1,0.9,2.1,2.8
					c0,1.3-0.3,2.5-1,3.8C478.9,7.1,479.3,7.4,479.7,7.7z M477.5,4.9c0-0.4-0.2-0.8-0.5-1.3c-0.4-0.5-0.7-0.7-1.2-0.7
					s-0.7,0.3-0.7,0.9c0,0.4,0.8,1.1,2.3,2.1C477.4,5.3,477.5,5,477.5,4.9z"/>
				<path class="st5" d="M478.1,39.3c0,2.9-0.6,5.2-1.8,7.1c-1.4,2.2-3.5,3.4-6.3,3.4h-2.3v-7c4.9,0,7.3-0.5,7.3-1.6
					c0-0.2-0.4-0.8-1.2-1.7c-0.8-0.9-1.2-1.6-1.2-2.2c0-0.8,1-3.1,3.1-6.9C477.3,33.8,478.1,36.8,478.1,39.3z M481.2,25l-2.7,4.1
					l-4.1-2.7l-2,3.5l-4.4-3.1l2.7-4.2l3.9,2.9l2.5-3.8L481.2,25z"/>
				<path class="st4" d="M528.3,49.7h-4.8c-0.6,4.2-1.7,7.7-3.2,10.5c-2.2,4-5,6-8.6,6c-2.5,0-5.7-1.2-9.4-3.6l0.5-0.8
					c1.5,0.3,2.5,0.4,3.2,0.4c2.5,0,5-1,7.7-2.9c1.1-0.8,2.5-2.4,4-4.7c1.1-1.8,2.3-3.6,3.4-5.4c-2.1-0.7-3.6-2.3-4.6-4.9l3.9-5.5
					c0.9,1.8,1.9,3,3,3.4c0.7,0.3,2.3,0.4,4.8,0.4L528.3,49.7L528.3,49.7z"/>
				<path class="st4" d="M554.7,49.7H550c-1.9,0-3.4-0.6-4.3-1.7c-0.3,2.6-1.5,4-3.7,4c-2,0-4.7-1.9-8.2-5.6
					c-0.3,0.5-1.2,1.4-2.5,2.5c-0.8,0.6-2.5,0.9-5.2,0.9v-7h2.4c1.7,0,3.1-0.8,4.3-2.3c0.9-1.4,1.8-2.9,2.7-4.3
					c1.1-1.5,2.5-2.3,4.1-2.3c0.8,0,1.8,0.7,3,2.2c1.1,1.5,2.2,2.9,3.2,4.4c1.4,1.6,2.8,2.3,4.3,2.3h4.7L554.7,49.7L554.7,49.7z
					 M541.6,42.8c0-1-0.2-2.1-0.5-3.4c-0.4-1.6-1-2.4-1.7-2.4c-0.6,0-1.2,0.6-1.8,1.7c-0.4,0.8-0.8,1.7-1.2,2.5
					c2.1,2.1,3.6,3.1,4.4,3.1C541.3,44.3,541.6,43.8,541.6,42.8z"/>
				<path class="st4" d="M552.4,49.7v-7h14.1v7H552.4z"/>
				<path class="st5" d="M575.1,5.1c0,1.6-0.5,2.7-1.6,3.4l-9.6,5.2c0-0.9,0.1-1.6,0.4-2c0.3-0.4,0.9-0.8,1.8-1.3L575.1,5.1z"/>
				<path class="st5" d="M573.7,39.3c0,2.9-0.6,5.2-1.8,7.1c-1.4,2.2-3.5,3.4-6.3,3.4h-2.3v-7c4.9,0,7.3-0.5,7.3-1.6
					c0-0.2-0.4-0.8-1.2-1.7s-1.2-1.6-1.2-2.2c0-0.8,1-3.1,3.1-6.9C572.8,33.8,573.7,36.8,573.7,39.3z M576.7,25l-2.7,4.1l-4.1-2.7
					l-2,3.5l-4.4-3.1l2.7-4.2l3.9,2.9l2.5-3.8L576.7,25z"/>
				<path class="st4" d="M634.7,49.7h-4.8c-0.6,4.2-1.7,7.7-3.2,10.5c-2.2,4-5,6-8.6,6c-2.5,0-5.7-1.2-9.4-3.6l0.5-0.8
					c1.5,0.3,2.5,0.4,3.2,0.4c2.5,0,5-1,7.7-2.9c1.1-0.8,2.5-2.4,4-4.7c1.1-1.8,2.3-3.6,3.4-5.4c-2.1-0.7-3.6-2.3-4.6-4.9l3.9-5.5
					c0.9,1.8,1.9,3,3,3.4c0.7,0.3,2.3,0.4,4.8,0.4L634.7,49.7L634.7,49.7z M629.8,29.6l-2.5,4.2l-4.3-3.1l2.5-4.2L629.8,29.6z"/>
				<path class="st5" d="M649.1,49.7h-4.6c-2.2,0-3.7-1.3-4.7-3.8c-1.3,2.5-2.8,3.8-4.6,3.8h-2.3v-7c2.7,0,3.8,0,3.2,0
					c1.5,0,2.5-0.3,3-0.8c0.1-0.1,0.2-1.2,0.2-3.2l0.4,0.1c0.3,2,1.5,3.2,3.7,3.7c0.7,0.1,2.6,0.2,5.8,0.2L649.1,49.7L649.1,49.7z
					 M643.9,55.2l-2.6,4.2l-4.3-3l2.7-4.2L643.9,55.2z"/>
				<path class="st4" d="M667.4,7.9c0,1.3-0.5,2.5-1.4,3.6c-1,1-2.2,1.5-3.6,1.5c-2.3,0-3.5-1.3-3.5-3.8c0-1.6,0.3-2.9,1-4
					c0.8-1.3,2-1.9,3.6-1.9c1.1,0,2.1,0.5,2.9,1.5C667,5.8,667.4,6.8,667.4,7.9z M665.6,8.7c0-0.5-0.5-1.1-1.4-1.8
					c-0.9-0.6-1.7-1-2.3-1c-0.5,0-1,0.2-1.4,0.7s-0.6,1-0.6,1.4c0,1.3,1,1.9,2.9,1.9C664.7,10,665.6,9.6,665.6,8.7z"/>
				<path class="st4" d="M677.2,33.8l-0.8,5.4c-0.9,0.1-2.2,0.2-3.9,0.2c-3.3,0-6.4,0.7-9.2,2c-1.4,0.7-3.3,1.9-5.7,3.8
					c-2.4,1.9-4.3,3.1-5.6,3.7c-0.9,0.5-2.7,0.7-5.2,0.7v-7c3.1,0,5.6-0.3,7.5-0.8c1.6-0.4,4-1.4,7-2.9c-2.7-1.3-4.8-1.9-6.3-1.9
					c-1.2,0-1.9,0.4-2.2,1.2h-4.4c0.7-2.6,1.4-4.4,2.1-5.6c1.2-1.7,3-2.6,5.2-2.6c1.4,0,3.5,0.5,6.2,1.5c4.4,1.6,8.2,2.4,11.6,2.4
					c0.4,0,1,0,1.8-0.1C676.2,33.9,676.8,33.8,677.2,33.8z M669.7,24l-2.5,4.2l-4.3-3l2.6-4.2L669.7,24z"/>
				<path class="st4" d="M752.5,49.7h-4.7c-2.5,0-4-1.1-4.6-3.2c-5.8,3.8-13,5.8-21.5,5.8c-4.7,0-8.6-0.8-11.7-2.3
					c-3.9-2-5.8-5-5.8-9.1c0-2.5,1-5.9,3.1-9.9l0.9,0.4c-0.8,2-1.3,3.8-1.3,5.5c0,3,2,5.3,6,6.6c2.8,1,6.1,1.5,10,1.5
					c7.1,0,12.4-0.6,15.8-1.8c1.1-0.4,1.7-0.6,1.8-0.6c0.8-0.4,1.2-0.7,1.4-1.2c0.2-0.4,0.3-1.2,0.2-2.4h0.7c0.7,2.5,2.7,3.8,6,3.8
					c0.4,0,1,0,1.8-0.1c0.8,0,1.4,0,1.8,0L752.5,49.7L752.5,49.7z M731.5,26.8l-2.6,4.1l-4.1-2.7l-2,3.5l-4.4-3.1l2.6-4.2l3.9,3
					l2.4-3.7L731.5,26.8z"/>
				<path class="st4" d="M766.5,49.7h-4.6c-2.2,0-3.7-1.3-4.7-3.8c-1.3,2.5-2.8,3.8-4.6,3.8h-2.3v-7c2.7,0,3.8,0,3.2,0
					c1.5,0,2.5-0.3,3-0.8c0.1-0.1,0.2-1.2,0.2-3.2l0.4,0.1c0.3,2,1.5,3.2,3.7,3.6c0.7,0.2,2.6,0.3,5.8,0.3v7H766.5z M761.6,31.6
					l-2.4,4.2l-4.3-3.1l2.5-4.1L761.6,31.6z"/>
				<path class="st5" d="M776,71c0,1.5-0.5,2.6-1.6,3.2l-9.6,5.3c0-1,0.1-1.7,0.4-2c0.3-0.4,0.9-0.8,1.8-1.4L776,71z"/>
				<path class="st5" d="M774.6,39.3c0,2.9-0.6,5.2-1.8,7.1c-1.4,2.2-3.5,3.4-6.3,3.4h-2.3v-7c4.9,0,7.3-0.5,7.3-1.6
					c0-0.2-0.4-0.8-1.2-1.7s-1.2-1.6-1.2-2.2c0-0.8,1-3.1,3.1-6.9C773.7,33.8,774.6,36.8,774.6,39.3z M774.5,55.2l-2.6,4.2l-4.3-3
					l2.7-4.2L774.5,55.2z"/>
				<path class="st4" d="M837.9,34.2l-1.1,5.4c-2.6,0-5.1,0.2-7.3,0.6c-4.1,0.7-7.7,2.3-10.7,4.8c-3.4,2.8-5.1,6.1-5.1,9.9
					c0,4.5,2.8,7.9,8.3,10.1c4,1.6,8.8,2.3,14.4,2.3c1.5,0,4.9-0.2,10.4-0.6l0.1,0.8L833,73.8h-1.7c-6.1,0-10.9-1.1-14.4-3.2
					c-4.3-2.6-6.5-6.6-6.5-12.1c0-7.5,4-13.7,11.9-18.6L818,39c-1.5,0-2.4,0.4-2.9,1.3h-4.4c0.7-2.6,1.4-4.4,2.1-5.6
					c1.2-1.8,3-2.7,5.2-2.7c1.7,0,3.9,0.2,6.7,0.7c3.5,0.6,5.7,0.9,6.6,1C832.9,33.8,835.1,33.9,837.9,34.2z M830.2,53l-2.5,4.2
					l-4.3-3.1l2.5-4.2L830.2,53z"/>
				<path class="st4" d="M873.4,49.7h-4.8c-0.6,4.2-1.7,7.7-3.2,10.5c-2.2,4-5,6-8.6,6c-2.5,0-5.7-1.2-9.4-3.6l0.5-0.8
					c1.5,0.3,2.5,0.4,3.2,0.4c2.5,0,5-1,7.7-2.9c1.1-0.8,2.5-2.4,4-4.7c1.1-1.8,2.3-3.6,3.4-5.4c-2.1-0.7-3.6-2.3-4.6-4.9l3.9-5.5
					c0.9,1.8,1.9,3,3,3.4c0.7,0.3,2.3,0.4,4.8,0.4L873.4,49.7L873.4,49.7z"/>
				<path class="st5" d="M883.1,14.1l-0.3,3.1c-0.6-0.3-1.4-0.8-2.6-1.6c-2.5,3-4.7,4.5-6.5,4.5c-0.4,0-1.1-0.1-2-0.3
					c2.1-1.1,4.4-2.7,7-4.9c-1.4-1.1-2-2-2-2.9c0-1.1,0.4-2.2,1.2-3.5s1.7-1.9,2.8-1.9c1.4,0,2.1,0.9,2.1,2.8c0,1.3-0.3,2.5-1,3.8
					C882.3,13.5,882.8,13.8,883.1,14.1z M880.9,11.3c0-0.4-0.2-0.8-0.5-1.3c-0.4-0.5-0.7-0.7-1.2-0.7s-0.7,0.3-0.7,0.9
					c0,0.4,0.8,1.1,2.3,2.1C880.8,11.7,880.9,11.4,880.9,11.3z"/>
				<path class="st5" d="M881.6,39.3c0,2.9-0.6,5.2-1.8,7.1c-1.4,2.2-3.5,3.4-6.3,3.4h-2.3v-7c4.9,0,7.3-0.5,7.3-1.6
					c0-0.2-0.4-0.8-1.2-1.7s-1.2-1.6-1.2-2.2c0-0.8,1-3.1,3.1-6.9C880.7,33.8,881.6,36.8,881.6,39.3z M881.5,55.2l-2.6,4.2l-4.3-3
					l2.7-4.2L881.5,55.2z"/>
				<path class="st4" d="M928,49.7h-4.7c-2,0-3.5-0.9-4.4-2.7c-0.6-1.1-1-2.8-1.3-5.3c-2.5,3.3-4.6,5-6.1,5c-1,0-2.1-0.3-3.1-0.8
					c-1.2-0.6-1.8-1.4-1.8-2.3c0-1,0.6-2.8,1.8-5.3c0.6-1.4,1.6-2.6,3.1-3.6c0.5-0.3,1.9-1.1,4.4-2.4c-0.4-1.8-0.6-2.9-0.6-3.4
					c0-0.8,1.1-2.3,3.3-4.4c0,0,0.5,3.2,1.4,9.4c0.8,5,1.3,7.7,1.7,8.2c0.4,0.4,1,0.7,1.8,0.8c0.6,0.1,1.4,0.1,2.5,0.1
					c1.5,0,2.1-0.1,2-0.1L928,49.7L928,49.7z M921.3,18.5l-2.7,4.2l-4.1-2.8l-2,3.5l-4.5-3.1l2.6-4.1l4,2.9l2.5-3.8L921.3,18.5z
					 M917.1,39.1c0-1-0.2-2.4-0.7-4.3c-3.5,1.8-5.2,3.1-5.2,4s1.6,1.3,4.8,1.3C916.7,40.1,917.1,39.7,917.1,39.1z"/>
				<path class="st4" d="M928.4,17.4c-0.4-0.5-0.6-0.9-0.7-1.2c0.7-2.7,1.7-4.4,3.2-5c0.1,1.6,0.8,2.9,2,4.1
					c1.2,1.1,2.7,1.6,4.3,1.3l-3,5.1c-0.4-0.1-0.9-0.4-1.4-0.7l-0.1,0.5c0,1.3,0.1,3,0.5,5.2c0.4,2.4,0.6,4.2,0.6,5.2
					c0,2.3-0.3,4.8-0.8,7.4c2.8-3.2,4.7-5.2,5.7-6.1c2.7-2.5,5.1-3.8,7.2-3.8c2,0,3.6,0.6,4.8,1.7c1.2,1.2,1.8,2.7,1.8,4.6
					c0,1.6-0.3,3-0.8,4.1c-0.4,0.8-1.3,1.9-2.5,3.3c1.9-0.1,3.1-0.2,3.7-0.2h5.5v7h-6.5c-0.6,0-1.5,0-2.7-0.1
					c-1.2,0-2.1-0.1-2.7-0.1c-2.9,0-4.6-0.6-5.2-1.7c-2.4,1.3-6.5,1.9-12.3,1.9h-3.1v-7h4.2c0.4-0.8,0.8-1.5,1.3-2.3
					c0.1-0.3,0.2-1.3,0.2-3c0-2.2-0.5-5.6-1.4-10C928.9,23,928.4,19.7,928.4,17.4z M949.1,38.5c0-0.8-0.5-1.4-1.4-1.9
					c-0.8-0.4-1.5-0.6-2.4-0.6c-3.2,0-7,2.1-11.3,6.4c2.2,0,5-0.3,8.4-0.9C946.8,40.6,949.1,39.6,949.1,38.5z"/>
				<path class="st5" d="M967.6,11.5c0,1.6-0.5,2.7-1.6,3.4l-9.6,5.2c0-0.9,0.1-1.6,0.4-2c0.3-0.4,0.9-0.8,1.8-1.3L967.6,11.5z"/>
				<path class="st5" d="M966.1,39.3c0,2.9-0.6,5.2-1.8,7.1c-1.4,2.2-3.5,3.4-6.3,3.4h-2.3v-7c4.9,0,7.3-0.5,7.3-1.6
					c0-0.2-0.4-0.8-1.2-1.7s-1.2-1.6-1.2-2.2c0-0.8,1-3.1,3.1-6.9C965.3,33.8,966.1,36.8,966.1,39.3z M966,55.2l-2.6,4.2l-4.3-3
					l2.7-4.2L966,55.2z"/>
				<path class="st4" d="M1012.6,50.2c-0.7,5-2,8.6-4,10.9c-2.4,2.7-6,4.1-11,4.1c-2.6,0-4.8-0.6-6.5-1.7c-1.9-1.3-2.9-3.1-2.9-5.5
					c0-2.5,1.4-6.2,4.2-11.2l0.8,0.4c-1.3,2.5-2,4.4-2,5.9c0,2.3,0.5,3.9,1.6,4.6c1.4,1,3.7,1.4,6.9,1.4c3.4,0,6-0.5,7.9-1.6
					c1.4-0.8,2.3-2.2,2.8-4.4c0.2-1.1,0.3-1.8,0.3-2.2c0-0.7-0.4-1.5-1.1-2.5c-1-1.3-1.6-2.1-1.7-2.4c0.6-1.2,1.5-3,2.8-5.4
					c0.5,0.7,1,1.4,1.5,2.1c0.5,0.7,1.3,1,2.4,1v6.5L1012.6,50.2L1012.6,50.2z"/>
				<path class="st4" d="M1014,43.6c3.6,0,5.4-0.9,5.4-2.8c0-0.3,0-0.8-0.1-1.4s-0.1-1-0.2-1.2l0.8-0.1c0.4,1.6,1.1,2.9,2.1,4
					c1.1,1.2,2.5,1.7,4.1,1.7c0.3,0,0.8-0.1,1.4-0.4c0.6-0.3,0.9-0.6,0.9-0.8c0-0.5-0.3-1.2-0.9-2.2c-0.5-0.6-0.9-1.3-1.4-1.9
					c0.4-1.1,0.9-2.7,1.5-4.9c2,1.7,3,4.1,3,7.2c0,2-0.4,3.8-1.3,5.4c-1,2-2.5,2.9-4.4,2.9s-3.5-1.1-4.6-3.4c-1.5,3-3.5,4.4-6.2,4.4
					L1014,43.6L1014,43.6z"/>
				<path class="st5" d="M1043.2-3c0,1.2-0.4,2.3-1.3,3.2s-1.9,1.4-3.2,1.4c-2.1,0-3.1-1.1-3.1-3.4c0-1.4,0.3-2.6,0.9-3.6
					c0.8-1.2,1.8-1.7,3.2-1.7c1,0,1.9,0.4,2.6,1.3C1042.9-4.9,1043.2-4,1043.2-3z M1041.6-2.3c0-0.5-0.4-1-1.3-1.6
					c-0.8-0.6-1.5-0.9-2.1-0.9c-0.5,0-0.9,0.2-1.2,0.6s-0.5,0.9-0.5,1.3c0,1.1,0.9,1.7,2.6,1.7C1040.7-1.1,1041.6-1.5,1041.6-2.3z"
					/>
				<path class="st5" d="M1045.4,14.9c-0.2,0.8-0.4,1.3-0.7,1.6c-0.3,0.3-0.8,0.5-1.6,0.7l-8,2.3c0.7-1.4,1.7-2.2,3.2-2.6
					c-1.4-1-2.1-1.8-2.1-2.4c0-0.9,0.7-2,2.2-3.3c1.4-1.3,2.7-2,3.6-2c1.1,0,1.7,0.5,1.7,1.6c0,0.4-0.3,1.2-0.8,2.3
					c-1.1-0.7-2-1.1-2.7-1.1c-0.8,0-1.5,0.4-2.1,1.2c2,1.5,3.5,2.2,4.5,2.2C1043.5,15.4,1044.4,15.2,1045.4,14.9z"/>
				<path class="st5" d="M1042.1,42.2c0,2.2-0.5,4.4-1.4,6.7h-1.1c0-3.4-0.4-7.1-1.1-11c-1.2-6.3-1.8-10.3-1.8-12.1
					c0-1,0.4-2.1,1.1-3.1c0.3-0.4,1-1.3,2.3-2.6c0,2.3,0.3,6,1,11C1041.8,36.2,1042.1,39.9,1042.1,42.2z"/>
				<path class="st4" d="M1063,48.7c0,3.4-0.9,6.5-2.6,9.5c-2.1,3.6-4.7,5.3-8,5.3c-2,0-4.5-1-7.6-2.9l0.4-0.8
					c0.9,0.2,1.7,0.3,2.3,0.3c2.6,0,5.5-1.2,8.7-3.6c3.1-2.4,4.7-4.8,4.7-7.2c0-0.9-0.7-2.2-2-3.9c-1-1.2-1.9-2.3-2.9-3.5
					c0.6-2.7,1.1-4.9,1.4-6.4C1061.2,39.3,1063,43.8,1063,48.7z"/>
				<path class="st4" d="M1134.1,50.2h-4c-0.4,4.2-2.1,7.7-4.9,10.4c-3,2.8-6.7,4.2-11.1,4.2c-6.2,0-9.3-3.1-9.3-9.4
					c0-2.3,0.4-4.4,1.3-6.2c0.6-1.5,1.7-3.3,3.3-5.5l0.7,0.7c-2,3.1-3,5.5-3,7.3c0,2.2,0.9,3.9,2.7,5c1.6,1,3.5,1.5,5.9,1.5
					c8.4,0,12.6-2.6,12.6-7.9c-2.9,0-4.6-0.1-5.2-0.2c-2.1-0.4-3.1-1.4-3.1-3.1c0-1.1,0.5-2.9,1.5-5.3c1-2.5,1.8-4,2.5-4.5
					c0.5-0.4,1.2-0.7,2-0.7c1.3,0,2.3,1,3,3c0.2,0.6,0.6,2.1,1.1,4.5h4V50.2L1134.1,50.2z M1130.4,29.6l-2.3,3.7l-3.7-2.4l-1.8,3.1
					l-3.9-2.8l2.3-3.8l3.6,2.7l2.3-3.4L1130.4,29.6z M1127.6,43.8c-0.5-1.8-1.6-2.6-3.2-2.6c-0.8,0-1.3,0.4-1.3,1.1
					c0,1,1,1.6,2.9,1.6C1126.1,43.8,1127.6,43.8,1127.6,43.8z"/>
				<path class="st4" d="M1141.2,40.8c0,2.6-0.5,4.7-1.6,6.4c-1.3,2-3.1,3-5.7,3h-2.1V44c4.4,0,6.5-0.5,6.5-1.4
					c0-0.2-0.4-0.7-1.1-1.5s-1.1-1.5-1.1-2c0-0.7,0.9-2.8,2.8-6.2C1140.5,35.9,1141.2,38.6,1141.2,40.8z M1143.8,55l-2.4,3.8
					l-3.7-2.4l-1.8,3.1l-4-2.8l2.5-3.7l3.5,2.7l2.2-3.4L1143.8,55z"/>
				<path class="st4" d="M1166.7,50.2h-4.3c-0.5,3.8-1.5,6.9-2.8,9.4c-1.9,3.6-4.5,5.4-7.7,5.4c-2.3,0-5.1-1.1-8.4-3.2l0.4-0.7
					c1.3,0.2,2.3,0.4,2.9,0.4c2.2,0,4.5-0.9,6.9-2.6c1-0.7,2.2-2.1,3.6-4.2c1-1.6,2-3.2,3.1-4.8c-1.8-0.6-3.2-2.1-4.2-4.4l3.5-4.9
					c0.8,1.6,1.7,2.6,2.6,3c0.6,0.2,2,0.4,4.3,0.4L1166.7,50.2L1166.7,50.2z"/>
				<path class="st4" d="M1174.1,40.8c0,2.6-0.5,4.7-1.6,6.4c-1.3,2-3.1,3-5.7,3h-2.1V44c4.4,0,6.5-0.5,6.5-1.4
					c0-0.2-0.4-0.7-1.1-1.5s-1.1-1.5-1.1-2c0-0.7,0.9-2.8,2.8-6.2C1173.3,35.9,1174.1,38.6,1174.1,40.8z M1174,55l-2.3,3.8l-3.8-2.7
					l2.4-3.8L1174,55z"/>
				<path class="st5" d="M1185.6,71.8c0,1.4-0.5,2.3-1.4,2.8l-8.6,4.7c0-0.9,0.1-1.5,0.3-1.8c0.2-0.3,0.8-0.8,1.6-1.2L1185.6,71.8z"
					/>
				<path class="st5" d="M1188.7,60c-0.2,0.8-0.4,1.4-0.7,1.7c-0.2,0.3-0.8,0.5-1.6,0.8l-8,2.2c0.5-0.9,0.9-1.5,1.3-1.8
					s1.1-0.6,2.1-0.9c-1.4-0.7-2.1-1.5-2.1-2.3c0-0.9,0.7-2,2.1-3.3s2.6-1.9,3.7-1.9s1.7,0.5,1.7,1.6c0,0.4-0.3,1.1-0.9,2.2
					c-1.1-0.6-2.1-1-2.8-1c-0.7,0-1.3,0.4-2,1.1c2,1.5,3.5,2.2,4.6,2.2C1186.9,60.5,1187.8,60.3,1188.7,60z"/>
				<path class="st5" d="M1184.7,42.2c0,2.2-0.5,4.4-1.4,6.7h-1.1c0-3.4-0.4-7.1-1.1-11c-1.2-6.3-1.8-10.3-1.8-12.1
					c0-1,0.4-2.1,1.1-3.1c0.3-0.4,1-1.3,2.3-2.6c0,2.3,0.3,6,1,11C1184.4,36.2,1184.7,39.9,1184.7,42.2z"/>
				<path class="st4" d="M1231.5,39.9c0,3.6-1.2,6.4-3.7,8.6c-2.5,2.2-5.6,3.3-9.4,3.3c-2.7,0-4.9-0.6-6.5-1.9
					c-1.9-1.4-2.8-3.3-2.8-5.8c0-3,1.2-6.8,3.5-11.4l0.8,0.5c-1.1,2.1-1.6,3.9-1.6,5.5c0,2.5,0.7,4.3,2.2,5.2c1.2,0.8,3.2,1.2,6,1.2
					c2,0,4-0.4,5.9-1.1c2.5-1,3.7-2.2,3.7-3.8c0-0.7-0.7-2.1-2-4.3c-1.1-1.9-2.1-3.3-2.8-4.2l2.3-5.6
					C1230,30,1231.5,34.5,1231.5,39.9z M1221.2,23.7l-2.3,3.7l-3.8-2.6l2.4-3.7L1221.2,23.7z"/>
				<path class="st4" d="M1252.9,41.9c0,2.4-0.5,4.2-1.5,5.4s-2.8,2-5.3,2.6c-1.9,0.4-3.9,0.7-6.2,0.7c-0.9,0-2.2-0.4-3.8-1.1
					l1.3-7.1c1.3,0.6,2.2,1,2.7,1c7.1,0,10.7-0.8,10.7-2.5c0-1.4-3.2-3.7-9.7-6.8l2.3-6.8C1249.8,31,1252.9,36,1252.9,41.9z
					 M1246,21.2l-2.3,3.8l-3.8-2.7l2.3-3.8L1246,21.2z"/>
				<path class="st5" d="M1267.3-3.8L1267-1c-0.5-0.3-1.3-0.8-2.3-1.4c-2.3,2.7-4.2,4-5.9,4c-0.4,0-1-0.1-1.8-0.3
					c1.8-1,3.9-2.4,6.3-4.4c-1.2-1-1.8-1.8-1.8-2.6c0-1,0.4-2,1.1-3.1s1.6-1.7,2.5-1.7c1.3,0,1.9,0.8,1.9,2.5c0,1.2-0.3,2.3-0.9,3.4
					C1266.6-4.3,1267-4,1267.3-3.8z M1265.3-6.3c0-0.4-0.2-0.8-0.5-1.2c-0.3-0.4-0.7-0.6-1-0.6c-0.4,0-0.6,0.3-0.6,0.8
					c0,0.4,0.7,1,2,1.9C1265.2-5.9,1265.3-6.2,1265.3-6.3z"/>
				<path class="st5" d="M1266.9,14.9c-0.2,0.8-0.4,1.3-0.7,1.6c-0.3,0.3-0.8,0.5-1.6,0.7l-8,2.3c0.7-1.4,1.7-2.2,3.2-2.6
					c-1.4-1-2.1-1.8-2.1-2.4c0-0.9,0.7-2,2.2-3.3c1.4-1.3,2.7-2,3.6-2c1.1,0,1.7,0.5,1.7,1.6c0,0.4-0.3,1.2-0.8,2.3
					c-1.1-0.7-2-1.1-2.7-1.1c-0.8,0-1.5,0.4-2.1,1.2c2,1.5,3.5,2.2,4.5,2.2S1266,15.2,1266.9,14.9z"/>
				<path class="st5" d="M1263.7,42.2c0,2.2-0.5,4.4-1.4,6.7h-1.1c0-3.4-0.4-7.1-1.1-11c-1.2-6.3-1.8-10.3-1.8-12.1
					c0-1,0.4-2.1,1.1-3.1c0.3-0.4,1-1.3,2.3-2.6c0,2.3,0.3,6,1,11C1263.4,36.2,1263.7,39.9,1263.7,42.2z"/>
				<path class="st4" d="M1330.9,19.5c0,1.2-0.4,2.3-1.3,3.2c-0.9,0.9-1.9,1.4-3.2,1.4c-2.1,0-3.1-1.1-3.1-3.4
					c0-1.4,0.3-2.6,0.9-3.6c0.8-1.2,1.8-1.7,3.2-1.7c1,0,1.9,0.4,2.6,1.3C1330.5,17.5,1330.9,18.5,1330.9,19.5z M1329.2,20.2
					c0-0.5-0.4-1-1.3-1.6c-0.8-0.6-1.5-0.9-2.1-0.9c-0.5,0-0.9,0.2-1.2,0.6c-0.4,0.4-0.5,0.8-0.5,1.3c0,1.1,0.9,1.7,2.6,1.7
					C1328.4,21.3,1329.2,21,1329.2,20.2z"/>
				<path class="st4" d="M1351,50.2h-4.2c-2.2,0-3.6-1-4.1-2.9c-5.2,3.4-11.6,5.2-19.2,5.2c-4.2,0-7.7-0.7-10.5-2.1
					c-3.5-1.8-5.2-4.5-5.2-8.1c0-2.3,0.9-5.2,2.8-8.9l0.8,0.4c-0.8,1.8-1.1,3.4-1.1,4.9c0,2.7,1.8,4.7,5.4,5.9
					c2.5,0.9,5.5,1.3,8.9,1.3c6.4,0,11.1-0.5,14.2-1.6c1-0.3,1.5-0.5,1.6-0.5c0.7-0.3,1.1-0.7,1.3-1c0.2-0.4,0.2-1.1,0.2-2.1h0.6
					c0.6,2.3,2.4,3.4,5.4,3.4c0.4,0,0.9,0,1.6-0.1c0.7,0,1.2,0,1.6,0v6.2H1351z M1331,58.7l-2.3,3.8l-3.8-2.8l2.4-3.7L1331,58.7z"/>
				<path class="st4" d="M1359.6,9.7c0,1.4-0.5,2.4-1.4,3l-8.6,4.6c0-0.8,0.1-1.4,0.4-1.8c0.3-0.4,0.8-0.8,1.6-1.2L1359.6,9.7z"/>
				<path class="st4" d="M1358.3,40.8c0,2.6-0.5,4.7-1.6,6.4c-1.3,2-3.1,3-5.7,3h-2.1V44c4.4,0,6.5-0.5,6.5-1.4
					c0-0.2-0.4-0.7-1.1-1.5s-1.1-1.5-1.1-2c0-0.7,0.9-2.8,2.8-6.2C1357.5,35.9,1358.3,38.6,1358.3,40.8z M1357.5,27.2l-2.1,3.7
					l-3.8-2.7l2.2-3.7L1357.5,27.2z"/>
				<path class="st4" d="M1374.2,21.1c0,1.2-0.4,2.3-1.3,3.2c-0.9,0.9-1.9,1.4-3.2,1.4c-2.1,0-3.1-1.1-3.1-3.4
					c0-1.4,0.3-2.6,0.9-3.6c0.8-1.2,1.8-1.7,3.2-1.7c1,0,1.9,0.4,2.5,1.3C1373.9,19.1,1374.2,20.1,1374.2,21.1z M1372.6,21.8
					c0-0.5-0.4-1-1.3-1.6c-0.8-0.6-1.5-0.9-2.1-0.9c-0.5,0-0.9,0.2-1.2,0.6c-0.4,0.4-0.5,0.8-0.5,1.3c0,1.1,0.9,1.7,2.6,1.7
					C1371.7,22.9,1372.6,22.5,1372.6,21.8z"/>
				<path class="st4" d="M1378.6,48.7c0,3.4-0.9,6.5-2.6,9.5c-2.1,3.6-4.7,5.3-8,5.3c-2,0-4.5-1-7.6-2.9l0.4-0.8
					c0.9,0.2,1.7,0.3,2.3,0.3c2.6,0,5.5-1.2,8.7-3.6c3.1-2.4,4.7-4.8,4.7-7.2c0-0.9-0.7-2.2-2-3.9c-1-1.2-1.9-2.3-2.9-3.5
					c0.6-2.7,1.1-4.9,1.4-6.4C1376.7,39.3,1378.6,43.8,1378.6,48.7z"/>
				<path class="st5" d="M1392.6-6.1c0,1.4-0.5,2.4-1.4,3l-8.6,4.6c0-0.8,0.1-1.4,0.4-1.8s0.8-0.8,1.6-1.2L1392.6-6.1z"/>
				<path class="st5" d="M1392.4,14.9c-0.2,0.8-0.4,1.3-0.7,1.6c-0.3,0.3-0.8,0.5-1.6,0.7l-8,2.3c0.7-1.4,1.7-2.2,3.2-2.6
					c-1.4-1-2.1-1.8-2.1-2.4c0-0.9,0.7-2,2.2-3.3c1.4-1.3,2.7-2,3.6-2c1.1,0,1.7,0.5,1.7,1.6c0,0.4-0.3,1.2-0.8,2.3
					c-1.1-0.7-2-1.1-2.7-1.1c-0.8,0-1.5,0.4-2.1,1.2c2,1.5,3.5,2.2,4.5,2.2S1391.5,15.2,1392.4,14.9z"/>
				<path class="st5" d="M1389.2,42.2c0,2.2-0.5,4.4-1.4,6.7h-1.1c0-3.4-0.4-7.1-1.1-11c-1.2-6.3-1.8-10.3-1.8-12.1
					c0-1,0.4-2.1,1.1-3.1c0.3-0.4,1-1.3,2.3-2.6c0,2.3,0.3,6,1,11C1388.9,36.2,1389.2,39.9,1389.2,42.2z"/>
			</g>
		</g>
	</g>
</g>
<g>
	<path class="st4" d="M74,12.8c0,1.7-0.6,3.2-1.7,4.5c-1.2,1.3-2.6,1.9-4.4,1.9c-2.8,0-4.2-1.6-4.2-4.7c0-2,0.4-3.7,1.2-5.1
		c1-1.6,2.5-2.5,4.3-2.5c1.4,0,2.5,0.6,3.4,1.9C73.5,10,74,11.4,74,12.8z M71.8,13.8c0-0.7-0.6-1.4-1.7-2.2
		c-1.1-0.8-2.1-1.2-2.8-1.2c-0.6,0-1.2,0.3-1.7,0.9s-0.7,1.2-0.7,1.8c0,1.6,1.2,2.4,3.5,2.4C70.8,15.4,71.8,14.9,71.8,13.8z"/>
</g>
</svg>
