<?xml version="1.0" encoding="utf-8"?>
<!-- Generator: Adobe Illustrator 22.0.1, SVG Export Plug-In . SVG Version: 6.00 Build 0)  -->
<svg version="1.1" id="Layer_1" xmlns="http://www.w3.org/2000/svg" xmlns:xlink="http://www.w3.org/1999/xlink" x="0px" y="0px"
	 viewBox="0 0 105.8 61.8" style="enable-background:new 0 0 105.8 61.8;" xml:space="preserve">
<style type="text/css">
	.st0{fill:#235958;}
	.st1{fill:#EF5316;}
</style>
<g>
	<path class="st0" d="M55.1,49.3h-4.7c-4.1,0-7.1-0.9-9-2.8C32,52,23.1,54.7,14.7,54.7c-4,0-7.4-0.8-10.1-2.5
		c-3.1-2-4.7-4.9-4.7-8.7c0-3.9,2-8.2,5.9-13.1L7,31.2c-1.8,2.6-2.7,4.7-2.7,6.2c0,3.1,2,5.3,5.9,6.8c2.8,1,6,1.5,9.7,1.5
		c5.1,0,10.1-0.9,15-2.7c-0.7-1.1-1-2-1-2.7c0-2.4,1.3-5.8,4-10.5c2.8-4.9,5.2-7.3,7.3-7.3c1.6,0,2.8,1.4,3.9,4.1
		c0.8,2.1,1.1,4.1,1.1,6c0,2.8-0.8,5.3-2.5,7.5c1.5,0.5,3.4,0.8,5.6,0.8h1.8V49.3z M46.2,12l-3,5l-4.9-3.7l3.1-5L46.2,12z
		 M47.5,33.9c0-0.7-0.5-1.5-1.4-2.4s-1.7-1.4-2.4-1.4c-1,0-2.1,0.5-3.3,1.5s-1.8,2-1.8,2.9c0,1.4,1.6,2.7,4.7,3.9
		C46,36.8,47.5,35.2,47.5,33.9z"/>
	<path class="st0" d="M71,49.3h-3.7c-2.5,0-4.3-1.5-5.4-4.6c-1.5,3.1-3.2,4.6-5.2,4.6H54v-8.4h3.1c2,0,3.4-0.3,3.9-1
		c0.2-0.2,0.2-1.4,0.2-3.8l0.5,0.1c0.4,3.1,2.9,4.7,7.3,4.7h2V49.3z M69.9,55.8l-3,5.1l-4.7-3.2L60,61.8L55,58l2.9-5l4.5,3.6
		l2.8-4.5L69.9,55.8z"/>
	<path class="st1" d="M94.5,10.2c0,1.9-0.6,3.3-1.8,4l-10.9,6.2c0-1.1,0.2-2,0.5-2.4c0.3-0.5,1-1,2-1.6L94.5,10.2z"/>
	<path class="st1" d="M85.2,49.3h-0.6c-3.4,0-5.6-1.6-6.8-4.7c-1.4,3.1-3.1,4.7-5.2,4.7H70v-8.4c4,0,6.4-0.3,7.2-1
		c0.3-0.3,0.5-1.4,0.6-3.5h0.4c0.6,1.7,1.5,2.9,2.7,3.5c0.9,0.4,2.4,0.6,4.4,0.6L85.2,49.3L85.2,49.3z"/>
	<path class="st1" d="M105.8,36.7c0,2.7-0.5,5.1-1.6,7.2c-1.3,2.6-3.2,3.9-5.6,3.9c-2.5,0-4.4-1.5-5.9-4.6c-1.9,4-4.5,6-8,6v-8.8
		c4.6,0,6.9-1.3,6.9-3.8c0-0.4,0-1.1-0.1-1.9c-0.1-0.8-0.1-1.4-0.2-1.6l1-0.1c0.5,2.1,1.4,3.9,2.7,5.3c1.4,1.6,3.2,2.3,5.2,2.3
		c0.4,0,1-0.2,1.8-0.6c0.8-0.4,1.1-0.8,1.1-1.1c0-0.7-0.4-1.7-1.2-2.9c-0.6-0.9-1.2-1.7-1.8-2.6c0.5-1.4,1.1-3.6,1.9-6.5
		C104.5,29.4,105.8,32.6,105.8,36.7z"/>
</g>
<g>
	<path class="st0" d="M64.9,18c0,1.6-0.6,3-1.7,4.3c-1.1,1.2-2.5,1.9-4.1,1.9c-2.7,0-4-1.5-4-4.5c0-1.9,0.4-3.5,1.1-4.8
		c1-1.6,2.3-2.3,4.1-2.3c1.3,0,2.4,0.6,3.3,1.8C64.5,15.4,64.9,16.7,64.9,18z M62.9,19c0-0.6-0.5-1.4-1.6-2.1
		c-1.1-0.8-2-1.2-2.7-1.2c-0.6,0-1.1,0.3-1.6,0.8c-0.5,0.6-0.7,1.1-0.7,1.7c0,1.5,1.1,2.3,3.3,2.3C61.8,20.5,62.9,20,62.9,19z"/>
</g>
</svg>
