<?xml version="1.0" encoding="utf-8"?>
<!-- Generator: Adobe Illustrator 22.0.1, SVG Export Plug-In . SVG Version: 6.00 Build 0)  -->
<svg version="1.1" id="Layer_1" xmlns="http://www.w3.org/2000/svg" xmlns:xlink="http://www.w3.org/1999/xlink" x="0px" y="0px"
	 viewBox="0 0 167 71.5" style="enable-background:new 0 0 167 71.5;" xml:space="preserve">
<style type="text/css">
	.st0{fill:#235958;}
	.st1{fill:#EF5316;}
</style>
<path class="st0" d="M49.4,33.3c0,1.3-0.3,3.2-1,5.7c-0.6,2.7-1.3,4.5-1.9,5.4c-1.7,2.5-6,4.5-13.1,6.1c-5.6,1.2-10.7,1.9-15.2,1.9
	c-4.8,0-8.7-0.8-11.9-2.3C2.1,48,0,44.9,0,40.7c0-1.9,0.5-3.9,1.4-5.8c0.5-1,1.5-2.7,3.1-5.1l0.8,0.6c-1,1.9-1.5,3.7-1.5,5.5
	c0,5,5.1,7.5,15.2,7.5c6.6,0,12.6-0.6,17.9-1.9c6.3-1.5,9.5-3.2,9.5-5.2c0-0.5-0.5-1.3-1.4-2.3c-0.6-0.7-1.3-1.4-1.8-2.2
	c1.3-3.3,2.2-6.1,2.8-8.4C48.2,26.5,49.4,29.8,49.4,33.3z M31.5,22.2l-3,4.9l-4.7-3.2l-2.4,4.3l-5.1-3.8l3.1-5l4.4,3.5l2.9-4.4
	L31.5,22.2z M26,14.5l-2.8,5.1l-4.9-3.7l3.1-5.1L26,14.5z"/>
<path class="st0" d="M62.8,41c0,2.9-0.6,5.9-1.8,9h-1.4c0-4.6-0.5-9.5-1.4-14.7c-1.5-8.5-2.3-13.3-2.3-14.6c0-1.4,0.5-2.8,1.4-4.1
	c0.4-0.6,1.3-1.7,2.9-3.5c0,3.1,0.4,7.7,1.3,13.9C62.4,33.2,62.8,37.8,62.8,41z"/>
<path class="st0" d="M92.2,51.6h-3.9c-0.7,5-1.9,9.2-3.6,12.6c-2.5,4.8-5.7,7.2-9.8,7.2c-2.9,0-6.5-1.4-10.7-4.3l0.6-1
	c1.7,0.3,2.9,0.5,3.7,0.5c2.8,0,5.8-1.2,8.8-3.5c1.3-1,2.8-2.8,4.6-5.6c1.3-2.1,2.6-4.3,3.9-6.4c-2.4-0.8-4.1-2.8-5.3-5.9l4.5-6.6
	c1.5,3,3.2,4.5,5.1,4.5h2.1C92.2,43.1,92.2,51.6,92.2,51.6z"/>
<path class="st1" d="M101.9,16.3c0,1.6-0.6,3-1.6,4.3c-1.1,1.2-2.5,1.8-4.1,1.8c-2.7,0-4-1.5-4-4.5c0-1.9,0.4-3.5,1.1-4.8
	c1-1.6,2.3-2.3,4.1-2.3c1.3,0,2.4,0.6,3.3,1.8C101.5,13.8,101.9,15,101.9,16.3z M99.8,17.3c0-0.6-0.5-1.4-1.6-2.1
	c-1.1-0.8-2-1.2-2.7-1.2c-0.6,0-1.1,0.3-1.6,0.8c-0.5,0.6-0.7,1.1-0.7,1.7c0,1.5,1.1,2.3,3.3,2.3C98.8,18.8,99.8,18.3,99.8,17.3z"/>
<path class="st1" d="M134,51.6h-7.2c-6.8,0-10.2-2-10.2-6c0-1.3,0.5-3.3,1.4-6.1c-3.4,0.5-6.3,1.4-8.5,2.6c-1.4,0.8-3.8,2.4-7.2,5.1
	c-1.1,0.9-2.8,2-5.1,3.5c-1.1,0.6-1.9,0.9-2.3,0.9h-3.7v-8.4h2.6c4.1-0.2,8.7-1.7,14-4.4c-3.1-1.6-5.5-2.3-7.2-2.3
	c-1.1,0-1.9,0.5-2.5,1.4h-5c0.8-3.1,1.6-5.3,2.4-6.7c1.4-2.1,3.4-3.1,6-3.1c1.6,0,4,0.6,7.1,1.8c5,1.9,9.4,2.9,13.3,2.9
	c0.6,0,1.6-0.1,2.8-0.2c1.2-0.1,2.2-0.2,2.8-0.2l-1,6.5c-2.5,0.2-4.3,0.4-5.6,0.6c0.8,1.6,1.7,2.7,2.9,3.1c0.9,0.4,2.4,0.6,4.3,0.6
	h6v8.4C134.1,51.6,134,51.6,134,51.6z"/>
<path class="st0" d="M147.3,51.6h-14.5v-8.4h14.5V51.6z"/>
<path class="st0" d="M167,41.6c0,1.8-0.4,3.4-1.2,4.7c-0.9,1.7-2.2,2.5-3.8,2.5c-1.7,0-4.6-1-8.7-3.1c-0.3,1-1,2.2-2.2,3.5
	c-1.2,1.5-2.2,2.3-3.1,2.3h-2.7v-8.4h2.6c2.3,0,4-1.3,5.1-4c0.8-2,1.6-4,2.3-6c1.3-2.5,2.9-3.8,4.8-3.8c2,0,3.8,1.6,5.1,4.7
	C166.4,36.8,167,39.3,167,41.6z M162.5,40c0-1-0.4-1.8-1.2-2.5s-1.8-1-2.8-1c-1.2,0-2.1,0.8-2.9,2.3c2.8,1.6,4.7,2.4,5.7,2.4
	C162,41.1,162.5,40.8,162.5,40z"/>
<path class="st0" d="M160.1,56.9c0,2-0.6,3.3-1.8,4.1l-11,6.3c0-1.1,0.2-2,0.5-2.5s1-1,2-1.6L160.1,56.9z"/>
</svg>
