<?xml version="1.0" encoding="utf-8"?>
<!-- Generator: Adobe Illustrator 22.0.1, SVG Export Plug-In . SVG Version: 6.00 Build 0)  -->
<svg version="1.1" id="Layer_1" xmlns="http://www.w3.org/2000/svg" xmlns:xlink="http://www.w3.org/1999/xlink" x="0px" y="0px"
	 viewBox="0 0 86.2 86.2" style="enable-background:new 0 0 86.2 86.2;" xml:space="preserve">
<style type="text/css">
	.st0{fill:#235958;}
</style>
<g>
	<polygon class="st0" points="50.2,22.5 45.1,18.6 41.9,23.9 47,27.8 	"/>
	<path class="st0" d="M55.5,53h-1.2h-0.4c-2.4,0-4.1-0.4-5.1-1.2c2-2.4,3-5.3,3-8.6c0-2.4-0.3-4.6-0.9-6.6c-0.8-2.8-2.2-4.2-4-4.2
		c-1,0-2.2,0.6-3.6,1.7c-2.2,1.8-4.1,4.1-5.8,7.1c-1.8,3.2-2.6,6.1-2.6,8.7c0,0.7,0.3,1.4,0.9,2c-1.1,0.7-3,1-5.8,1H17v8.8h13h2.2
		h0.6c2.4,0,5.5-1.1,9.1-3.2c2.1,2.1,5.3,3.2,9.5,3.2h2.8h1.2h14.1v-8.8h-14V53z M43.1,49.9c-2.8-2.1-4.2-3.8-4.2-5.1
		c0-1,0.6-1.9,1.8-2.5c1-0.6,2.1-0.9,3.1-0.9c1.4,0,2.5,0.4,3.5,1.3c1,0.9,1.5,2,1.5,3.3C48.8,47.5,46.9,48.9,43.1,49.9z"/>
</g>
<g>
	<path class="st0" d="M37.8,18.9c0,1.6-0.6,3-1.7,4.3C35,24.4,33.6,25,32,25c-2.7,0-4-1.5-4-4.5c0-1.9,0.4-3.5,1.1-4.8
		c1-1.6,2.3-2.3,4.1-2.3c1.3,0,2.4,0.6,3.3,1.8C37.3,16.3,37.8,17.5,37.8,18.9z M35.7,19.9c0-0.6-0.5-1.4-1.6-2.1
		c-1.1-0.8-2-1.2-2.7-1.2c-0.6,0-1.1,0.3-1.6,0.8c-0.5,0.6-0.7,1.1-0.7,1.7c0,1.5,1.1,2.3,3.3,2.3C34.6,21.4,35.7,20.9,35.7,19.9z"
		/>
</g>
</svg>
