<?xml version="1.0" encoding="utf-8"?>
<!-- Generator: Adobe Illustrator 22.0.1, SVG Export Plug-In . SVG Version: 6.00 Build 0)  -->
<svg version="1.1" id="Layer_1" xmlns="http://www.w3.org/2000/svg" xmlns:xlink="http://www.w3.org/1999/xlink" x="0px" y="0px"
	 viewBox="0 0 86.2 86.2" style="enable-background:new 0 0 86.2 86.2;" xml:space="preserve">
<style type="text/css">
	.st0{fill:#235958;}
</style>
<g>
	<g>
		<g>
			<g>
				<path class="st0" d="M35.8,13.4c0,1.9-0.6,3.3-1.8,4.1l-11,6.2c0-1.1,0.2-2,0.5-2.4c0.3-0.5,1-1,2-1.6L35.8,13.4z"/>
			</g>
		</g>
	</g>
	<path class="st0" d="M51.8,52.4h-1.5h-2.7c-1.1,0-2-0.5-2.7-1.5s-1.5-3.6-2.4-7.9c-0.2-1.1-0.8-4.1-1.7-9.2
		c-0.4-1.9-0.6-4.5-0.6-7.6c-0.8,0.8-1.6,1.6-2.5,2.4c-1.1,1.1-1.7,2-1.7,2.7c0,1.8,0.3,4.5,1,8.1c0.7,3.6,1,6.2,1,7.8
		c0,1.8-0.8,2.9-2.4,3.5c-0.9,0.3-2.4,0.5-4.6,0.5c-3.6,0-5.8-1.3-6.5-4l-1-0.2c-1.6,5-2.4,8-2.4,8.8c0,2.8,2.1,4.2,6.3,4.2
		c5.3,0,9.3-2.6,11.8-7.9c1.5,5.7,4.2,8.6,8.2,8.6h2.7h1.5h13v-8.4H51.8V52.4z"/>
</g>
</svg>
