<?xml version="1.0" encoding="utf-8"?>
<!-- Generator: Adobe Illustrator 22.0.1, SVG Export Plug-In . SVG Version: 6.00 Build 0)  -->
<svg version="1.1" id="Layer_1" xmlns="http://www.w3.org/2000/svg" xmlns:xlink="http://www.w3.org/1999/xlink" x="0px" y="0px"
	 viewBox="0 0 135.8 102.3" style="enable-background:new 0 0 135.8 102.3;" xml:space="preserve">
<style type="text/css">
	.st0{fill:#235958;}
	.st1{fill:#EF5316;}
</style>
<path class="st0" d="M38.5,85.4l-15.6,6.4c-6.3,0-11.6-1.6-15.8-4.8C2.4,83.4,0,78.6,0,72.5c0-3.7,0.8-7.2,2.4-10.5c1-2.1,3-5.1,6-9
	c-3.7-0.9-5.5-2.7-5.5-5.2c0-2,1.4-5.6,4.2-10.9c1.6-3,3.5-4.5,5.8-4.5c2.4,0,5.1,1.7,8.2,5c-3,0.3-5.3,0.6-6.8,0.9
	c-2.5,0.6-4.4,1.5-5.9,2.7s-2.2,2.2-2.2,3.1c0,1.9,2.5,3.4,7.4,4.5c4.9-2.9,9.2-4.9,12.9-6.1c-1.3,2.5-2,3.9-2.2,4.3
	c-0.9,1.7-1.8,3-2.7,3.9c-1,1.2-2.9,2.3-5.5,3.3C8,57,4,61.6,4,68.1c0,5.8,3.4,10.2,10.3,13.2c5.1,2.1,11,3.2,17.7,3.2
	c1.9,0,4.1-0.1,6.4-0.3L38.5,85.4z"/>
<path class="st0" d="M69.3,63h-4.2c-4,0-6.7-2.9-8.2-8.6c-2.6,5.3-6.5,7.9-11.8,7.9c-4.2,0-6.3-1.4-6.3-4.2c0-0.8,0.8-3.7,2.4-8.8
	l1,0.2c0.8,2.7,2.9,4,6.5,4c2.2,0,3.7-0.2,4.6-0.5c1.6-0.5,2.4-1.7,2.4-3.5c0-1.6-0.3-4.2-1-7.8s-1-6.3-1-8.1c0-0.6,0.6-1.5,1.7-2.7
	c0.9-0.8,1.7-1.6,2.5-2.4c0,3.1,0.2,5.6,0.6,7.6c0.9,5,1.5,8.1,1.7,9.2c0.9,4.2,1.7,6.9,2.4,7.8c0.7,1,1.6,1.5,2.7,1.5h4.2L69.3,63
	L69.3,63z"/>
<path class="st0" d="M91.9,63h-3.8c-4,0-7-1-9-3.1c-3.5,2-6.4,3.1-8.7,3.1h-2.7v-8.4c2.6,0,4.4-0.3,5.5-1c-0.6-0.6-0.9-1.2-0.9-1.9
	c0-2.5,0.8-5.3,2.5-8.3c1.6-2.8,3.4-5.1,5.5-6.8c1.3-1.1,2.5-1.6,3.5-1.6c1.7,0,3,1.3,3.8,4c0.6,1.9,0.9,4,0.9,6.3
	c0,3.1-1,5.8-2.9,8.1c0.9,0.8,2.5,1.1,4.8,1.1h1.5C91.9,54.7,91.9,63,91.9,63z M85.6,47.9c0-1.2-0.5-2.3-1.4-3.1s-2.1-1.2-3.3-1.2
	c-1,0-2,0.3-3,0.9c-1.1,0.6-1.7,1.4-1.7,2.4c0,1.2,1.3,2.8,4,4.8C83.8,50.7,85.6,49.5,85.6,47.9z M86.8,25.7l-3,5L79,27.1l3-5.1
	L86.8,25.7z"/>
<path class="st1" d="M119.7,72.7c0,1.8-0.6,3.1-1.9,3.8l-10.9,6.4c0-1.2,0.1-2,0.4-2.4c0.3-0.5,1-1,2.1-1.6L119.7,72.7z"/>
<path class="st0" d="M55.4,15.6c0,1.8-0.6,3.1-1.9,3.8l-10.9,6.4c0-1.2,0.1-2,0.4-2.4c0.3-0.5,1-1,2.1-1.6L55.4,15.6z"/>
<path class="st1" d="M106.1,63h-0.6c-3.4,0-5.6-1.6-6.8-4.7c-1.4,3.1-3.1,4.7-5.2,4.7h-2.7v-8.4c4,0,6.4-0.3,7.2-1
	c0.3-0.3,0.5-1.4,0.6-3.5H99c0.6,1.7,1.5,2.9,2.7,3.5c0.9,0.4,2.4,0.6,4.4,0.6C106.1,54.3,106.1,63,106.1,63z"/>
<path class="st1" d="M135.8,46.4c0,5.1-3.2,9.3-9.7,12.5c-4.8,2.4-10.3,3.8-16.3,4.2c-0.1,0.5-0.5,1.3-1.1,2.3
	c-0.8,1.2-1.3,1.8-1.7,1.8c-0.5,0-0.8-0.3-0.8-0.9c0-0.1,0.5-1.2,1.4-3.3h-2v-8.8c3.2,0,5.1,0,5.8-0.1c2-3.3,4.5-6.6,7.6-9.8
	c4-4.2,7.3-6.4,10-6.4c2,0,3.7,0.9,5,2.7C135.3,42.4,135.8,44.3,135.8,46.4z M117.2,34.5l-3,5l-4.8-3.7l3-5L117.2,34.5z M132.3,49.2
	c0-1.7-1.6-2.5-4.7-2.5c-2.8,0-7.2,2.5-13.1,7.4c2.8,0,6.1-0.4,10-1.1C129.7,52,132.3,50.7,132.3,49.2z"/>
<g>
	<path class="st0" d="M83.9,9.5c0,1.6-0.6,3-1.7,4.3c-1.1,1.2-2.5,1.8-4.1,1.8c-2.7,0-4-1.5-4-4.5c0-1.9,0.4-3.5,1.1-4.8
		c1-1.6,2.3-2.3,4.1-2.3c1.3,0,2.4,0.6,3.3,1.8C83.4,6.9,83.9,8.1,83.9,9.5z M81.8,10.5c0-0.6-0.5-1.4-1.6-2.1
		c-1.1-0.8-2-1.2-2.7-1.2c-0.6,0-1.1,0.3-1.6,0.8c-0.5,0.6-0.7,1.1-0.7,1.7c0,1.5,1.1,2.3,3.3,2.3C80.7,12,81.8,11.5,81.8,10.5z"/>
</g>
</svg>
