<?xml version="1.0" encoding="utf-8"?>
<!-- Generator: Adobe Illustrator 22.0.1, SVG Export Plug-In . SVG Version: 6.00 Build 0)  -->
<svg version="1.1" id="Layer_1" xmlns="http://www.w3.org/2000/svg" xmlns:xlink="http://www.w3.org/1999/xlink" x="0px" y="0px"
	 viewBox="0 0 86.2 86.2" style="enable-background:new 0 0 86.2 86.2;" xml:space="preserve">
<style type="text/css">
	.st0{fill:#235958;}
</style>
<g>
	<path class="st0" d="M34.3,19.2c0,1.6-0.6,3-1.6,4.3c-1.1,1.2-2.5,1.8-4.1,1.8c-2.7,0-4-1.5-4-4.5c0-1.9,0.4-3.5,1.1-4.8
		c1-1.6,2.3-2.3,4.1-2.3c1.3,0,2.4,0.6,3.3,1.8C33.9,16.6,34.3,17.9,34.3,19.2z M32.3,20.2c0-0.6-0.5-1.4-1.6-2.1
		c-1.1-0.8-2-1.2-2.7-1.2c-0.6,0-1.1,0.3-1.6,0.8c-0.5,0.6-0.7,1.1-0.7,1.7c0,1.5,1.1,2.3,3.3,2.3C31.2,21.7,32.3,21.2,32.3,20.2z"
		/>
</g>
<path class="st0" d="M50.5,53.4H49h-2.7c-1.1,0-2-0.5-2.7-1.5s-1.5-3.6-2.4-7.8C41,43,40.4,40,39.5,34.9c-0.4-1.9-0.6-4.4-0.6-7.6
	c-0.8,0.8-1.6,1.6-2.5,2.4c-1.1,1.1-1.7,2-1.7,2.7c0,1.8,0.3,4.5,1,8.1s1,6.2,1,7.8c0,1.8-0.8,2.9-2.4,3.5c-0.9,0.3-2.4,0.5-4.6,0.5
	c-3.6,0-5.8-1.3-6.5-4l-1-0.2c-1.6,5-2.4,8-2.4,8.8c0,2.8,2.1,4.2,6.3,4.2c5.3,0,9.2-2.6,11.8-7.9c1.5,5.7,4.2,8.6,8.2,8.6h2.7h1.5
	h12.9v-8.4C63.2,53.4,50.5,53.4,50.5,53.4z"/>
</svg>
