<?xml version="1.0" encoding="utf-8"?>
<!-- Generator: Adobe Illustrator 19.2.0, SVG Export Plug-In . SVG Version: 6.00 Build 0)  -->
<svg version="1.1" id="Layer_1" xmlns="http://www.w3.org/2000/svg" xmlns:xlink="http://www.w3.org/1999/xlink" x="0px" y="0px"
	 viewBox="0 0 56.3 55.9" style="enable-background:new 0 0 56.3 55.9;" xml:space="preserve">
<style type="text/css">
	.st0{fill:none;stroke:#6D2400;stroke-width:13.983;stroke-linecap:round;stroke-linejoin:round;stroke-miterlimit:10;}
	.st1{fill:none;stroke:#CB9248;stroke-width:9.7881;stroke-linecap:round;stroke-linejoin:round;stroke-miterlimit:10;}
	.st2{fill:none;stroke:#F4CE83;stroke-width:8.3898;stroke-linecap:round;stroke-linejoin:round;stroke-miterlimit:10;}
	.st3{fill:none;stroke:#CB9248;stroke-width:4.1949;stroke-linecap:round;stroke-linejoin:round;stroke-miterlimit:10;}
	.st4{fill:none;stroke:#6D2400;stroke-width:4.1949;stroke-linecap:round;stroke-linejoin:round;stroke-miterlimit:10;}
	.st5{fill:#003E4E;}
	.st6{opacity:0.2;}
	.st7{fill:url(#SVGID_1_);}
	.st8{fill:url(#SVGID_2_);}
	.st9{fill:url(#SVGID_3_);}
	.st10{opacity:0.5;fill:url(#SVGID_4_);}
	.st11{opacity:0.75;}
	.st12{fill:#FFFFFF;}
</style>
<g>
	<g>
		<g>
			<g>
				<g>
					<g>
						<path class="st0" d="M28,7C16.4,7,7,16.4,7,28v0c0,11.5,9.4,21,21,21h0.3c11.5,0,21-9.4,21-21v0c0-11.5-9.4-21-21-21H28z"/>
						<path class="st0" d="M28,7C16.4,7,7,16.4,7,28v0c0,11.5,9.4,21,21,21h0.3c11.5,0,21-9.4,21-21v0c0-11.5-9.4-21-21-21H28z"/>
					</g>
				</g>
				<g>
					<g>
						<path class="st1" d="M28,7C16.4,7,7,16.4,7,28v0c0,11.5,9.4,21,21,21h0.3c11.5,0,21-9.4,21-21v0c0-11.5-9.4-21-21-21H28z"/>
						<path class="st1" d="M28,7C16.4,7,7,16.4,7,28v0c0,11.5,9.4,21,21,21h0.3c11.5,0,21-9.4,21-21v0c0-11.5-9.4-21-21-21H28z"/>
					</g>
				</g>
				<g>
					<g>
						<path class="st2" d="M28,5.6c-11.5,0-21,9.4-21,21v0c0,11.5,9.4,21,21,21h0.3c11.5,0,21-9.4,21-21v0c0-11.5-9.4-21-21-21H28z"
							/>
						<path class="st2" d="M28,5.6c-11.5,0-21,9.4-21,21v0c0,11.5,9.4,21,21,21h0.3c11.5,0,21-9.4,21-21v0c0-11.5-9.4-21-21-21H28z"
							/>
					</g>
				</g>
				<g>
					<g>
						<path class="st3" d="M28,4.9c-11.5,0-21,9.4-21,21v0c0,11.5,9.4,21,21,21h0.3c11.5,0,21-9.4,21-21v0c0-11.5-9.4-21-21-21H28z"
							/>
						<path class="st3" d="M28,4.9c-11.5,0-21,9.4-21,21v0c0,11.5,9.4,21,21,21h0.3c11.5,0,21-9.4,21-21v0c0-11.5-9.4-21-21-21H28z"
							/>
					</g>
				</g>
				<g>
					<g>
						<path class="st4" d="M28,6.3c-11.5,0-21,9.4-21,21v0c0,11.5,9.4,21,21,21h0.3c11.5,0,21-9.4,21-21v0c0-11.5-9.4-21-21-21H28z"
							/>
						<path class="st4" d="M28,6.3c-11.5,0-21,9.4-21,21v0c0,11.5,9.4,21,21,21h0.3c11.5,0,21-9.4,21-21v0c0-11.5-9.4-21-21-21H28z"
							/>
					</g>
				</g>
				<g>
					<g>
						<path class="st5" d="M28,7C16.4,7,7,16.4,7,28v0c0,11.5,9.4,21,21,21h0.3c11.5,0,21-9.4,21-21v0c0-11.5-9.4-21-21-21H28z"/>
						<path class="st5" d="M28,7C16.4,7,7,16.4,7,28v0c0,11.5,9.4,21,21,21h0.3c11.5,0,21-9.4,21-21v0c0-11.5-9.4-21-21-21H28z"/>
					</g>
				</g>
				<g class="st6">
					<g>
						
							<linearGradient id="SVGID_1_" gradientUnits="userSpaceOnUse" x1="28.1282" y1="48.2415" x2="28.1282" y2="6.2923" gradientTransform="matrix(0.94 0 0 0.6 1.6877 4.6144)">
							<stop  offset="0" style="stop-color:#FFFFFF;stop-opacity:0"/>
							<stop  offset="1" style="stop-color:#FFFFFF"/>
						</linearGradient>
						<path class="st7" d="M28,8.4C17.1,8.4,8.3,14.1,8.3,21v0c0,6.9,8.9,12.6,19.7,12.6h0.3C39.1,33.6,48,27.9,48,21v0
							c0-6.9-8.9-12.6-19.7-12.6H28z"/>
						
							<linearGradient id="SVGID_2_" gradientUnits="userSpaceOnUse" x1="28.1282" y1="48.2415" x2="28.1282" y2="6.2923" gradientTransform="matrix(0.94 0 0 0.6 1.6877 4.6144)">
							<stop  offset="0" style="stop-color:#FFFFFF;stop-opacity:0"/>
							<stop  offset="1" style="stop-color:#FFFFFF"/>
						</linearGradient>
						<path class="st8" d="M28,8.4C17.1,8.4,8.3,14.1,8.3,21v0c0,6.9,8.9,12.6,19.7,12.6h0.3C39.1,33.6,48,27.9,48,21v0
							c0-6.9-8.9-12.6-19.7-12.6H28z"/>
					</g>
				</g>
			</g>
			<linearGradient id="SVGID_3_" gradientUnits="userSpaceOnUse" x1="24.095" y1="9.0892" x2="30.7629" y2="9.0892">
				<stop  offset="0" style="stop-color:#FFFFFF;stop-opacity:0"/>
				<stop  offset="0.5" style="stop-color:#FFFFFF"/>
				<stop  offset="1" style="stop-color:#FFFFFF;stop-opacity:0"/>
			</linearGradient>
			<polygon class="st9" points="24.1,9.8 30.8,9.8 30.8,8.4 24.1,8.4 			"/>
			<linearGradient id="SVGID_4_" gradientUnits="userSpaceOnUse" x1="24.7961" y1="48.2415" x2="31.4612" y2="48.2415">
				<stop  offset="0" style="stop-color:#FFFFFF;stop-opacity:0"/>
				<stop  offset="0.5" style="stop-color:#FFFFFF"/>
				<stop  offset="1" style="stop-color:#FFFFFF;stop-opacity:0"/>
			</linearGradient>
			<polygon class="st10" points="24.8,48.9 31.5,48.9 31.5,47.5 24.8,47.5 			"/>
		</g>
	</g>
	<g>
		<g>
			<g class="st11">
				<path d="M34.9,26.3c-2.1,0-2.6-1.4-3.1-2.1c-0.7,1.4-1.5,2.6-3.2,2.6h0c0.3,1.2,2.1,6.1,2.1,12.1c0,1.5-0.6,5.1-1.1,5.1
					c-0.1,0-0.3-0.2-0.4-1c-0.1-1.1-0.2-2.6-0.5-4.3c-0.4-2.3-1.2-6.3-2.6-9.3c-1.5-3.1-3-5.5-3-6c0-0.7,1-5,1.7-5
					c0.1,0,0.2,0.1,0.3,0.2c1.7,3.1,2.6,3.6,3.7,3.7h0.1c2.3,0,3-1.5,4.3-4c0.1-0.2,0.3-0.3,0.4-0.3c0.3,0,0.6,0.4,0.6,0.9
					c0,0.1-0.1,0.4-0.1,0.7c0,1.4,1,2.1,2.1,2.1h0.2c1-0.1,2-0.2,2.9-3.2c0.1-0.2,0.2-0.3,0.3-0.3c0.2,0,0.5,0.4,0.5,1.1v0.1
					C39.9,23.8,37,26.3,34.9,26.3z"/>
			</g>
			<g>
				<g>
					<path class="st12" d="M31.9,23.3c-2.1,0-2.6-1.4-3.1-2.1c-0.7,1.4-1.5,2.6-3.2,2.6h0c0.3,1.2,2.1,6.1,2.1,12.1
						c0,1.5-0.6,5.1-1.1,5.1c-0.1,0-0.3-0.2-0.4-1c-0.1-1.1-0.2-2.6-0.5-4.3c-0.4-2.3-1.2-6.2-2.6-9.3c-1.5-3.1-3-5.5-3-6
						c0-0.7,1-5,1.7-5c0.1,0,0.2,0.1,0.3,0.2c1.7,3.1,2.6,3.6,3.7,3.7h0.1c2.3,0,3-1.5,4.3-4c0.1-0.2,0.3-0.3,0.4-0.3
						c0.3,0,0.6,0.4,0.6,0.9c0,0.1-0.1,0.4-0.1,0.7c0,1.4,1,2.1,2.1,2.1h0.2c1-0.1,2-0.2,2.9-3.2c0.1-0.2,0.2-0.3,0.3-0.3
						c0.2,0,0.5,0.4,0.5,1.1v0.1C36.9,20.8,34,23.3,31.9,23.3z"/>
				</g>
			</g>
		</g>
	</g>
</g>
</svg>
