<?xml version="1.0" encoding="utf-8"?>
<!-- Generator: Adobe Illustrator 19.2.0, SVG Export Plug-In . SVG Version: 6.00 Build 0)  -->
<svg version="1.1" id="Layer_1" xmlns="http://www.w3.org/2000/svg" xmlns:xlink="http://www.w3.org/1999/xlink" x="0px" y="0px"
	 viewBox="0 0 784.7 39.2" style="enable-background:new 0 0 784.7 39.2;" xml:space="preserve">
<style type="text/css">
	.st0{fill:#FFFA00;}
	.st1{fill:#FFFFFF;}
	.st2{fill:#CB9248;}
	.st3{fill:url(#SVGID_1_);}
	.st4{fill:#F4CE83;}
	.st5{opacity:0.5;fill:#FFFFFF;}
	.st6{fill:none;stroke:#003351;stroke-width:2.398;stroke-linecap:round;stroke-linejoin:round;stroke-miterlimit:10;}
	.st7{fill:url(#SVGID_2_);}
	.st8{fill:url(#SVGID_3_);}
	.st9{fill:url(#SVGID_4_);}
</style>
<g>
	<g>
		<path class="st0" d="M649.3,16.7c0.3,0.3,0.4,0.7,0.4,1.1c0,0.2-0.1,0.7-0.4,0.9c-0.3,0.3-0.7,0.4-1.1,0.4c-0.3,0-0.7-0.1-0.9-0.4
			c-0.3-0.3-0.4-0.6-0.4-1c0-0.4,0.2-0.8,0.4-1c0.3-0.2,0.6-0.4,1-0.4C648.7,16.3,649.1,16.5,649.3,16.7z M649.3,21.9
			c0.3,0.3,0.4,0.8,0.4,1.1c0,0.3-0.1,0.7-0.4,1c-0.3,0.3-0.7,0.4-1.1,0.4c-0.3,0-0.6-0.2-0.9-0.4c-0.3-0.3-0.4-0.6-0.4-1
			c0-0.3,0.2-0.7,0.4-1c0.3-0.3,0.6-0.4,1-0.4C648.7,21.6,649.1,21.7,649.3,21.9z"/>
		<path class="st0" d="M663,25.1c0.1-0.1,0.1,0,0.1,0.1c0,0.6-0.2,1.1-0.5,1.3l-4.1,2.3c-0.1,0-0.1,0-0.1-0.1c0-0.3,0.1-0.8,0.2-1
			c0.1-0.2,0.3-0.3,0.7-0.5L663,25.1z"/>
		<path class="st0" d="M661.9,9c0.2-0.2,0.2-0.2,0.3-0.1c0.5,0.5,1,1.1,1.5,1.4c0.2,0.1,0.2,0.2,0,0.3c-0.5,0.5-0.9,1-1.3,1.5
			c-0.1,0.1-0.2,0.1-0.3,0c-0.4-0.3-0.9-0.7-1.4-1.2c-0.3,0.3-0.9,1-1.1,1.2c-0.1,0.1-0.2,0.2-0.4,0c-0.5-0.3-1.1-0.9-1.5-1.4
			c-0.1-0.1-0.1-0.2,0-0.3c0.4-0.5,0.9-1,1.4-1.5c0.1-0.1,0.2-0.1,0.3,0.1c0.4,0.4,1,1,1.4,1.2C661.1,9.8,661.6,9.2,661.9,9z
			 M664.8,21.4c0.5,0.3,0.9,0.5,1.2,0.5h0.3c0.7,0,1.1,0.4,1.1,1.1c0,0.8-0.4,1.2-1.1,1.2H666c-0.8,0-1.5-0.3-2.3-0.9
			s-1.2-1.6-1.4-3c-0.2,0.4-0.4,0.7-0.8,1c-0.6,0.4-1.6,0.6-2.6,0.6c-0.7,0-1.4-0.1-1.4-0.7c0.3-2.2,0.6-2.6,1.7-3.4
			c0.5-0.4,1.8-1.2,2.3-1.6c0-0.2,0-0.4,0-0.5c0-0.5,0.1-0.8,0.4-1.2c0.2-0.3,0.3-0.5,0.4-0.5c0.1,0,0.2,0.2,0.2,0.5
			c0.3,2.1,0.5,3.8,0.8,4.8C663.6,20.1,664.1,20.9,664.8,21.4z M661.8,17.3c-0.9,0.6-2.5,1.6-2.6,1.9c0,0.2,0.3,0.2,0.7,0.2
			c0.6,0,1.5-0.2,2.2-0.5C662,18.3,662,18.1,661.8,17.3z"/>
		<path class="st0" d="M667.4,11.7c-0.7,0-1.1-0.7-1.1-1.5c0-0.2,0-0.5,0.1-0.8c0.1-0.2,0.2-0.8,0.5-0.8c0.1,0,0.2,0.2,0.2,0.6v0.3
			c0,0.3,0.2,0.5,0.6,0.5h0c0.5,0,0.8-0.3,0.9-1c0.1-0.3,0.2-1.1,0.6-1.1c0.1,0,0.2,0.2,0.2,0.5c0,0.2,0.1,0.3,0.4,0.3
			c0.5,0,0.8-0.3,0.9-0.8c0.1-0.7,0.2-0.8,0.4-0.8c0.2,0,0.3,0.7,0.3,1.1c0,0.3,0,0.6-0.2,1c-0.2,0.7-0.7,1.2-1.5,1.2
			c-0.2,0-0.4-0.1-0.5-0.1c-0.1-0.1-0.1,0-0.2,0.1C668.6,11.2,668.2,11.7,667.4,11.7z M671.3,4.8C671.4,4.8,671.4,4.9,671.3,4.8
			c0,0.5-0.2,0.9-0.4,1.2c-0.1,0.1-0.2,0.2-0.5,0.3l-4,1.9c0,0-0.1,0-0.1-0.1c0-0.2,0.1-0.5,0.2-0.7c0.2-0.3,0.2-0.4,0.3-0.5
			c0.1-0.1,0.2-0.1,0.3-0.2L671.3,4.8z"/>
		<path class="st0" d="M670.8,20.5c0,0.6,0.6,1.2,1.4,1.4c0.2,0,0.3,0,0.5,0h0.1c0.9,0,0.9,0.7,0.9,1c0,0.3,0,1.3-0.8,1.3h-0.2
			c-0.2,0-0.3,0-0.6,0c-1.5-0.2-2.1-1.5-2.2-1.7c-0.2,0.6-1.5,1.7-3.7,1.7h-0.1c-0.6,0-1-0.6-1-1.1c0-0.6,0.3-1.1,1-1.1h0.7
			c1,0,2.4-0.2,3.3-1.6c0.3-0.5,0.4-0.5,0.5-0.5C670.7,19.7,670.8,19.9,670.8,20.5z M671.7,14.6c0.1,0.1,0.1,0.1,0,0.2
			c-0.2,0.3-1.1,1.2-1.4,1.7c-0.1,0.1-0.1,0.1-0.2,0c-0.5-0.3-1.5-1-1.7-1.4c-0.1-0.1-0.1-0.1,0-0.2c0.3-0.5,0.9-1.2,1.3-1.6
			c0.2-0.2,0.2-0.2,0.3-0.1C670.2,13.5,671,14.2,671.7,14.6z"/>
		<path class="st0" d="M679.2,3.2c0,0.5-0.1,1-0.3,1.5c0.2,0.1,0.4,0.3,0.4,0.4c0,0.4-0.2,0.7-0.3,1c-0.1,0.1-0.1,0.1-0.1,0.1
			l-0.5-0.3c-0.5,0.8-1.3,1.8-2.5,2.3c-0.4,0.2-0.9,0.4-1.5,0.4c-0.3,0-0.4-0.1-0.4-0.1c0-0.1,0.2-0.2,0.6-0.4
			c0.9-0.5,2.5-1.8,3.1-2.5c-0.5-0.3-1.1-0.7-1.1-1.4c0-0.4,0.2-0.9,0.6-1.3c0.4-0.5,0.8-0.8,1.2-0.8C679,1.9,679.2,2.6,679.2,3.2z
			 M677.4,3.6C677.4,3.6,677.4,3.7,677.4,3.6c0,0.2,0.4,0.5,0.8,0.7c0.1-0.2,0.1-0.4,0.1-0.7c0-0.3-0.1-0.4-0.3-0.4
			C677.8,3.2,677.5,3.3,677.4,3.6z"/>
		<path class="st0" d="M683,21.8c0.6,0,1,0.4,1,1.1c0,0.8-0.3,1.2-1,1.2h-0.2c-1-0.1-1.9-0.3-2.7-0.8c-0.8-0.5-1.1-0.9-1.6-1.7
			c-1.2,1.1-2.1,1.7-2.9,2c-0.8,0.3-1.7,0.5-2.7,0.5c-0.8,0-1.1-0.4-1.1-1.2c0-0.7,0.4-1.1,1.1-1.1h0.2c1.8,0,3-0.3,4.5-1.2
			c-0.5-0.7-1.7-1-2.3-1.1c-0.1,0-0.1-0.2-0.1-0.4c0-0.5,0.2-1.4,0.5-1.6c1-0.7,2.1-1.1,3.1-1.1c1,0,1.9,0.4,2.6,1.1
			c0.2,0.2,0.2,0.4,0.2,0.7c0,0.7-0.4,1.7-1.3,2.3c0.8,0.8,1.7,1.2,2.6,1.2H683z M679.5,11.7c0.1,0.1,0.1,0.1,0,0.2
			c-0.2,0.3-1.1,1.2-1.4,1.7c-0.1,0.1-0.1,0.1-0.2,0c-0.5-0.3-1.5-1-1.7-1.4c-0.1-0.1-0.1-0.1,0-0.2c0.3-0.5,0.9-1.2,1.3-1.6
			c0.2-0.2,0.2-0.2,0.3-0.1C678.1,10.6,678.8,11.2,679.5,11.7z"/>
		<path class="st0" d="M684.8,1.9c0.7,0,1.7,1,1.7,2.1c0,0.4-0.1,0.8-0.2,1.2c-0.3,0.8-0.9,1.3-1.8,1.3c-0.8,0-1.3-0.6-1.3-1.3
			C683.2,4.1,684.3,1.9,684.8,1.9z M684.6,3.5c-0.3,0-0.7,0.6-0.7,1c0,0.3,0.4,0.6,0.8,0.6c0.5,0,1.1-0.3,1.1-0.5
			C685.8,4.4,685.2,3.5,684.6,3.5z"/>
		<path class="st0" d="M685.1,23.1c-0.5,0.7-1.2,1-2.3,1h-0.2c-0.7,0-1-0.4-1-1.2c0-0.7,0.3-1.1,1-1.1h0.2c0.5,0,1-0.1,1.5-0.2
			c0.4-0.1,0.6-0.3,0.7-0.4c0-1.7-0.6-5.4-0.9-8.9c0-0.4-0.3-1.6-0.4-2.1c0-0.1,0-0.2,0-0.2c0-0.3,0.3-0.9,0.5-1.3
			c0.3-0.5,0.5-0.9,0.7-0.9c0.1,0,0.1,0.1,0.2,0.2c0.3,1,0.6,1.5,0.8,1.8c0.1,0.1,0.1,0.2,0.1,0.3c0,0,0,0.1,0,0.1
			c-0.1,0.2-0.4,0.8-0.6,1.1c0.2,3.4,0.7,6.2,0.7,7.8C686.1,20.8,685.8,22.1,685.1,23.1z"/>
		<path class="st0" d="M690.7,24.1c-0.1,0-0.2-0.2-0.2-0.7c0-3-1.1-11.3-1.1-12.7c0-0.7,0.5-1.7,0.9-2.5c0.1-0.2,0.3-0.5,0.5-0.5
			c0.1,0,0.2,0.2,0.2,0.8c0.1,2.2,0.7,7.3,0.7,11c0,1.5-0.1,2.7-0.4,3.5C691.1,23.8,690.9,24.1,690.7,24.1z"/>
		<path class="st0" d="M716.1,4.1c0,0.5-0.1,1-0.3,1.5c0.2,0.1,0.4,0.3,0.4,0.4c0,0.4-0.2,0.7-0.3,1C715.8,7,715.7,7,715.7,7
			l-0.5-0.3c-0.5,0.8-1.3,1.7-2.5,2.3c-0.4,0.2-0.9,0.4-1.5,0.4c-0.3,0-0.4-0.1-0.4-0.1c0-0.1,0.2-0.2,0.6-0.4
			c0.9-0.5,2.5-1.8,3.1-2.5C714,6,713.4,5.6,713.4,5c0-0.4,0.2-0.9,0.6-1.3c0.4-0.5,0.8-0.8,1.2-0.8C715.9,2.9,716.1,3.6,716.1,4.1z
			 M714.3,4.6C714.3,4.6,714.3,4.6,714.3,4.6c0,0.2,0.4,0.5,0.8,0.7c0.1-0.2,0.1-0.4,0.1-0.7c0-0.3-0.1-0.4-0.3-0.4
			C714.7,4.1,714.4,4.3,714.3,4.6z"/>
		<path class="st0" d="M721.3,21.8c0.8,0,1.2,0.4,1.2,1.1c0,0.8-0.4,1.2-1.2,1.2H721c-2.1,0-3.6-0.5-4.4-1.1c-1.9,0.9-5.6,1.9-9,1.9
			c-6.4,0-7.6-2.4-7.6-4.6c0-1,0.4-2.6,1.1-3.7c0.3-0.4,0.5-0.6,0.6-0.6c0.1,0,0.1,0.1,0.1,0.2c0,0.2-0.1,0.4-0.2,0.6
			c-0.3,0.6-0.5,1.2-0.5,1.9c0,3.4,5,4,7.6,4c2.6,0,5-0.5,6.7-1.1c-0.1-0.2-0.1-0.5-0.1-0.8c0-2.3,2.6-5.2,4-5.2
			c0.8,0,1.3,1,1.3,2.2c0,1.3-0.5,2.8-1.5,3.7c0.3,0.2,0.9,0.3,1.9,0.3H721.3z M716.7,12.3c0.1,0.1,0.1,0.1,0,0.2
			c-0.2,0.3-1.1,1.2-1.4,1.7c-0.1,0.1-0.1,0.1-0.2,0c-0.5-0.3-1.5-1-1.7-1.4c-0.1-0.1-0.1-0.1,0-0.2c0.3-0.5,0.9-1.2,1.3-1.6
			c0.2-0.2,0.2-0.2,0.3-0.1C715.3,11.3,716,11.9,716.7,12.3z M718.3,18c-0.8,0-1.6,0.9-1.6,1.2c0.1,0.6,0.4,0.9,1.2,1.4
			c0.3-0.1,1.4-1,1.4-1.3C719.3,18.5,719.1,18,718.3,18z"/>
		<path class="st0" d="M725,22.7c-0.4,0.6-1.2,1.1-2.6,1.3c-0.4,0.1-0.9,0.1-1.4,0.1c-0.6,0-1-0.6-1-1.1c0-0.6,0.3-1.1,1-1.1h0.5
			c1,0,2.6,0,3.2-0.6c-0.1-0.9-0.8-2-1.1-2.4c0,0,0,0,0-0.1c0-0.4,0.7-1.8,0.7-1.9c0-0.1,0.1-0.1,0.1-0.1c0.3,0,1.1,1.6,1.1,3.5
			C725.6,21.1,725.5,22,725,22.7z M725.5,25.3c0.2-0.2,0.2-0.2,0.3-0.1c0.5,0.5,1,1.1,1.5,1.4c0.2,0.1,0.2,0.2,0,0.3
			c-0.5,0.5-0.9,1-1.3,1.5c-0.1,0.1-0.2,0.1-0.3,0c-0.4-0.3-0.9-0.7-1.4-1.2c-0.3,0.3-0.9,1-1.1,1.2c-0.1,0.1-0.2,0.2-0.4,0
			c-0.5-0.3-1.1-0.9-1.5-1.4c-0.1-0.1-0.1-0.2,0-0.3c0.4-0.5,0.9-1,1.4-1.5c0.1-0.1,0.2-0.1,0.3,0.1c0.4,0.4,1,1,1.4,1.2
			C724.7,26.2,725.3,25.5,725.5,25.3z"/>
		<path class="st0" d="M738.8,21.8c0.7,0,1.1,0.4,1.1,1.1c0,0.8-0.4,1.2-1.1,1.2h-0.2c-0.6,0-1,0-1.3-0.1c0,0.1,0,0.2,0,0.3
			c0,0.7-0.1,1.5-0.4,2.1c-0.5,1.2-1.3,3.3-3.6,4.3c-0.4,0.2-0.8,0.3-1.2,0.3c-0.9,0-2.4-0.5-3.5-1c-0.3-0.2-0.4-0.3-0.4-0.4
			c0-0.1,0.1-0.2,0.4-0.2c0.3,0,0.8,0.1,1.3,0.1c3.1,0,6.2-2.7,6.6-5c0-0.5-1.1-1.6-1.3-1.9c0-0.1-0.1-0.2-0.1-0.3
			c0-0.5,0.4-1.5,0.6-1.8c0.1-0.2,0.2-0.2,0.3-0.2c0.2,0,0.3,0.2,0.6,0.7c0.4,0.6,0.9,0.9,1.8,0.9H738.8z"/>
		<path class="st0" d="M743.6,9.2c0.7,0,1.7,1,1.7,2.1c0,0.4-0.1,0.8-0.2,1.2c-0.3,0.8-0.9,1.3-1.8,1.3c-0.8,0-1.3-0.6-1.3-1.3
			C742,11.3,743.1,9.2,743.6,9.2z M743.4,10.8c-0.3,0-0.7,0.6-0.7,1c0,0.3,0.4,0.6,0.8,0.6c0.5,0,1.1-0.3,1.1-0.5
			C744.6,11.6,744,10.8,743.4,10.8z"/>
		<path class="st0" d="M748.7,21.8c0.6,0,1,0.4,1,1.1c0,0.8-0.3,1.2-1,1.2h-0.2c-1-0.1-1.9-0.3-2.7-0.8c-0.8-0.5-1.1-0.9-1.6-1.7
			c-1.2,1.1-2.1,1.7-2.9,2c-0.8,0.3-1.7,0.5-2.7,0.5c-0.8,0-1.1-0.4-1.1-1.2c0-0.7,0.4-1.1,1.1-1.1h0.2c1.8,0,3-0.3,4.5-1.2
			c-0.5-0.7-1.7-1-2.3-1.1c-0.1,0-0.1-0.2-0.1-0.4c0-0.5,0.2-1.4,0.5-1.6c1-0.7,2.1-1.1,3.1-1.1c1,0,1.9,0.4,2.6,1.1
			c0.2,0.2,0.2,0.4,0.2,0.7c0,0.7-0.4,1.7-1.3,2.3c0.8,0.8,1.7,1.2,2.6,1.2H748.7z"/>
		<path class="st0" d="M753.1,5.7c0.1-0.1,0.1,0,0.1,0.1c0,0.6-0.2,1.1-0.5,1.3l-4.1,2.3c-0.1,0-0.1,0-0.1-0.1c0-0.3,0.1-0.8,0.2-1
			c0.1-0.2,0.3-0.3,0.7-0.5L753.1,5.7z"/>
		<path class="st0" d="M752.4,22.7c-0.4,0.6-1.2,1.1-2.6,1.3c-0.4,0.1-0.9,0.1-1.4,0.1c-0.6,0-1-0.6-1-1.1c0-0.6,0.3-1.1,1-1.1h0.5
			c1,0,2.6,0,3.2-0.6c-0.1-0.9-0.8-2-1.1-2.4c0,0,0,0,0-0.1c0-0.4,0.7-1.8,0.7-1.9c0-0.1,0.1-0.1,0.1-0.1c0.3,0,1.1,1.6,1.1,3.5
			C753,21.1,752.9,22,752.4,22.7z M752.3,11.3c0.2-0.2,0.2-0.2,0.3-0.1c0.5,0.5,1,1.1,1.5,1.4c0.2,0.1,0.2,0.2,0,0.3
			c-0.5,0.5-0.9,1-1.3,1.5c-0.1,0.1-0.2,0.1-0.3,0c-0.4-0.3-0.9-0.7-1.4-1.2c-0.3,0.3-0.9,1-1.1,1.2c-0.1,0.1-0.2,0.2-0.4,0
			c-0.5-0.3-1.1-0.9-1.5-1.4c-0.1-0.1-0.1-0.2,0-0.3c0.4-0.5,0.9-1,1.4-1.5c0.1-0.1,0.2-0.1,0.3,0.1c0.4,0.4,1,1,1.4,1.2
			C751.5,12.2,752,11.5,752.3,11.3z"/>
	</g>
	<g>
		<path class="st1" d="M2.4,21.9c0.4,0.3,0.4,0.8,0.4,1.1c0,0.3-0.1,0.7-0.4,1c-0.3,0.3-0.7,0.4-1.1,0.4c-0.3,0-0.7-0.1-0.9-0.4
			C0.1,23.7,0,23.4,0,22.9c0-0.4,0.2-0.7,0.4-1c0.3-0.2,0.6-0.4,1-0.4S2.1,21.7,2.4,21.9z"/>
		<path class="st1" d="M13.1,31.5c0.1-0.1,0.1,0,0.1,0.1c0,0.6-0.2,1.1-0.5,1.3l-4.1,2.3c-0.1,0-0.1,0-0.1-0.1c0-0.3,0.1-0.8,0.2-1
			c0.1-0.2,0.3-0.3,0.7-0.5L13.1,31.5z"/>
		<path class="st1" d="M12.3,15.4c0.1,0.1,0.1,0.1,0,0.2c-0.2,0.3-1.1,1.2-1.4,1.7c-0.1,0.1-0.1,0.1-0.2,0c-0.5-0.3-1.5-1-1.7-1.4
			c-0.1-0.1-0.1-0.1,0-0.2c0.3-0.5,0.9-1.2,1.3-1.6c0.2-0.2,0.2-0.2,0.3-0.1C10.8,14.3,11.6,14.9,12.3,15.4z"/>
		<path class="st1" d="M20.2,28.3c0.2-0.2,0.2-0.2,0.3-0.1c0.5,0.5,1,1.1,1.5,1.4c0.2,0.1,0.2,0.2,0,0.3c-0.5,0.5-0.9,1-1.3,1.5
			c-0.1,0.1-0.2,0.1-0.3,0c-0.4-0.3-0.9-0.7-1.4-1.2c-0.3,0.3-0.9,1-1.1,1.2c-0.1,0.1-0.2,0.2-0.4,0c-0.5-0.3-1.1-0.9-1.5-1.4
			c-0.1-0.1-0.1-0.2,0-0.3c0.4-0.5,0.9-1,1.4-1.5c0.1-0.1,0.2-0.1,0.3,0.1c0.4,0.4,1,1,1.4,1.2C19.4,29.2,19.9,28.5,20.2,28.3z"/>
		<path class="st1" d="M24.1,22.9c0,0.8-0.3,1.2-0.9,1.2h-0.3c-0.4,0-0.8-0.1-1.2-0.4c-0.4-0.3-0.7-0.6-0.9-1
			c-0.2-0.4-0.4-1-0.5-1.8c-0.1-0.8-0.2-1.3-0.3-1.3c-0.3,0.8-0.7,1.4-1.1,1.7c-0.6,0.5-1.2,0.6-1.6,0.6c-0.2,0-0.3,0-0.4,0
			c0,0.4,0,0.7,0,1c0,0.4,0,0.9-0.1,1.5c-0.1,0.9-0.2,1.6-0.3,2c-0.2,0.5-0.4,0.8-0.6,1.2c-1.6,2.2-4,3.1-6.8,3.1
			c-1.3,0-2.1-0.3-2.9-0.8c-1.1-0.8-1.6-2.2-1.6-3.7c0-1.1,0.5-2.5,1.3-3.7c0.2-0.4,0.5-0.6,0.7-0.6c0.1,0,0.1,0.1,0.1,0.1
			c0,0.2-0.1,0.4-0.2,0.7c-0.4,0.8-0.8,1.7-0.8,2.7c0,1.5,1.7,2.9,4.1,2.9c2.4,0,5.7-1,6.4-2.7c0-0.1,0-0.2,0-0.4c0-1.3-0.4-3-1-3.8
			c-0.2-0.3-0.5-0.6-0.5-0.6c0,0-0.1-0.1-0.1-0.2c0-0.5,0.5-2,0.7-2.2c0.1-0.1,0.1-0.1,0.2,0c0.6,0.8,1.2,1.2,1.9,1.3
			c0.2,0,0.5,0,0.9-0.1c0.4-0.1,0.8-0.4,1-0.7c0.5-0.6,0.7-1,0.9-1.5c0.1-0.1,0.2-0.3,0.3-0.3c0.1,0,0.2,0.2,0.3,0.5
			c0.1,0.3,0.2,0.8,0.3,1.6c0.1,0.8,0.4,1.4,0.7,1.9c0.3,0.5,0.7,0.8,1.2,0.8h0.3C23.9,21.8,24.1,22.2,24.1,22.9z"/>
		<path class="st1" d="M27.7,20.5c0,0.6,0.6,1.2,1.4,1.4c0.2,0,0.3,0,0.5,0h0.1c0.9,0,0.9,0.7,0.9,1c0,0.3,0,1.3-0.8,1.3h-0.2
			c-0.2,0-0.3,0-0.6,0c-1.5-0.2-2.1-1.5-2.2-1.7c-0.2,0.6-1.5,1.7-3.7,1.7H23c-0.6,0-1-0.6-1-1.1c0-0.6,0.3-1.1,1-1.1h0.7
			c1,0,2.4-0.2,3.3-1.6c0.3-0.5,0.4-0.5,0.5-0.5C27.6,19.7,27.7,19.9,27.7,20.5z M27.5,13.6c0.2-0.2,0.2-0.2,0.3-0.1
			c0.5,0.5,1,1.1,1.5,1.4c0.2,0.1,0.2,0.2,0,0.3c-0.5,0.5-0.9,1-1.3,1.5c-0.1,0.1-0.2,0.1-0.3,0c-0.4-0.3-0.9-0.7-1.4-1.2
			c-0.3,0.3-0.9,1-1.1,1.2c-0.1,0.1-0.2,0.2-0.4,0c-0.5-0.3-1.1-0.9-1.5-1.4c-0.1-0.1-0.1-0.2,0-0.3c0.4-0.5,0.9-1,1.4-1.5
			c0.1-0.1,0.2-0.1,0.3,0.1c0.4,0.4,1,1,1.4,1.2C26.7,14.5,27.2,13.9,27.5,13.6z"/>
		<path class="st1" d="M36.2,5.1c0.1-0.1,0.1,0,0.1,0.1c0,0.6-0.2,1.1-0.5,1.3l-4.1,2.3c-0.1,0-0.1,0-0.1-0.1c0-0.3,0.1-0.8,0.2-1
			c0.1-0.2,0.3-0.3,0.7-0.5L36.2,5.1z"/>
		<path class="st1" d="M41.1,8.2c0.1,0,0.1,0,0.1,0.1c0,0.3-0.5,1.3-0.7,1.6c0,0.1-0.1,0.1-0.2,0.2c-0.7,0.2-5.9,2.3-8.2,3.8
			c2.2,1.2,4.4,3.8,4.4,5.4c0,1.6-0.5,2.7-1.3,3.5c-1.4,0.8-3.2,1.2-5.4,1.2h-0.3c-0.4,0-0.7-0.5-0.7-1.1c0-0.6,0.3-1.1,0.7-1.1h0.2
			c3,0,5.4-0.7,5.9-1.2c0-1.4-2.4-3.7-4.2-4.6c-0.3-0.1-0.5-0.3-0.7-0.5c-0.1-0.2-0.2-0.5-0.2-0.9c0-0.5,0.1-1.1,0.4-1.4
			c0.7-0.7,1.4-1.2,2.9-2c2.8-1.5,5.7-2.5,6.8-2.9C40.8,8.3,41,8.2,41.1,8.2z"/>
		<path class="st1" d="M47.6,14.6c0.1-0.1,0.1,0,0.1,0.1c0,0.6-0.2,1.1-0.5,1.3l-4.1,2.3c-0.1,0-0.1,0-0.1-0.1c0-0.3,0.1-0.8,0.2-1
			c0.1-0.2,0.3-0.3,0.7-0.5L47.6,14.6z"/>
		<path class="st1" d="M49.1,21.8c0.7,0,1.1,0.4,1.1,1.1c0,0.8-0.4,1.2-1.1,1.2h-0.2c-0.6,0-1,0-1.3-0.1c0,0.1,0,0.2,0,0.3
			c0,0.7-0.1,1.5-0.4,2.1c-0.5,1.2-1.3,3.3-3.6,4.3c-0.4,0.2-0.8,0.3-1.2,0.3c-0.9,0-2.4-0.5-3.5-1c-0.3-0.2-0.4-0.3-0.4-0.4
			c0-0.1,0.1-0.2,0.4-0.2c0.3,0,0.8,0.1,1.3,0.1c3.1,0,6.2-2.7,6.6-5c0-0.5-1.1-1.6-1.3-1.9c0-0.1-0.1-0.2-0.1-0.3
			c0-0.5,0.4-1.5,0.6-1.8c0.1-0.2,0.2-0.2,0.3-0.2c0.2,0,0.3,0.2,0.6,0.7c0.4,0.6,0.9,0.9,1.8,0.9H49.1z"/>
		<path class="st1" d="M56.4,10.7c0.1-0.1,0.1,0,0.1,0.1c0,0.6-0.2,1.1-0.5,1.3l-4.1,2.3c-0.1,0-0.1,0-0.1-0.1c0-0.3,0.1-0.8,0.2-1
			c0.1-0.2,0.3-0.3,0.7-0.5L56.4,10.7z"/>
		<path class="st1" d="M51.8,18.8c-0.2,0-0.5,0-0.6,0.1c-0.2,0.1-0.6,0.3-0.8,0.3c-0.2,0-0.2-0.1-0.2-0.2c0-0.4,0.6-1.3,1.2-1.8
			c0.5-0.4,1-0.6,1.4-0.6c0.2,0,0.3,0,0.5,0.1c1.8,0.4,4.1,1.4,6,1.8c1.3,0.3,2.6,0.4,3.4,0.4c0.2,0,0.3,0,0.5,0
			c0.1,0,0.1,0,0.1,0.1c0,0.4-0.7,1.5-1.1,1.9c-0.1,0.1-0.3,0.1-0.6,0.1c-0.5,0-1.6-0.1-1.9-0.1c-0.9,0-1.6,0.1-2.2,0.3
			c-0.4,0.2-1.2,0.5-2.3,1c-1.7,0.8-2.8,1.4-3.6,1.7c-0.8,0.3-1.6,0.5-2.5,0.5h-0.3c-0.7,0-1.1-0.4-1.1-1.2c0-0.7,0.4-1.1,1.1-1.1
			H49c1.4,0,2.5-0.1,3.4-0.4c0.9-0.3,2.3-0.7,4-1.4C54.5,19.4,52.9,18.8,51.8,18.8z"/>
		<path class="st1" d="M77.5,31.3c0.1-0.1,0.1,0,0.1,0.1c0,0.6-0.2,1.1-0.5,1.3L73,34.9c-0.1,0-0.1,0-0.1-0.1c0-0.3,0.1-0.8,0.2-1
			c0.1-0.2,0.3-0.3,0.7-0.5L77.5,31.3z"/>
		<path class="st1" d="M77.9,23.4c0,3.4-1.5,6-4.2,7.1c-0.2,0.1-0.4,0.1-0.6,0.1c-0.9,0-2.8-0.5-4.1-1.1c-0.3-0.2-0.4-0.3-0.4-0.4
			c0-0.1,0.2-0.2,0.3-0.2c0.3,0,1.1,0.2,1.8,0.2c0.7,0,1.2-0.2,2.2-0.6c1.1-0.5,3.3-2.3,3.8-3.8c0.1-0.2,0.1-0.6,0.1-0.7
			c0-0.1-0.1-1-1-2.4c-0.3-0.5-0.5-0.8-0.8-1.2c-0.1-0.1-0.1-0.1-0.1-0.2c0-0.3,0.4-1.3,0.6-1.7c0.1-0.1,0.1-0.2,0.2-0.2
			c0.5,0,1.4,1.7,1.8,3.1C77.9,22,77.9,22.7,77.9,23.4z"/>
		<path class="st1" d="M81.8,24.1c-0.1,0-0.2-0.2-0.2-0.7c0-3-1.1-11.3-1.1-12.7c0-0.7,0.5-1.7,0.9-2.5c0.1-0.2,0.3-0.5,0.5-0.5
			C82,7.8,82,8,82.1,8.6c0.1,2.2,0.7,7.3,0.7,11c0,1.5-0.1,2.7-0.4,3.5C82.2,23.8,82,24.1,81.8,24.1z"/>
		<path class="st1" d="M95.5,21.8h0.3c0.7,0,1,0.4,1,1.1c0,0.8-0.4,1.2-1,1.2h-0.3c-0.8,0-1.4-0.3-1.8-0.7c-0.5-0.4-0.8-1-1.1-1.9
			c-0.3,1.6-2.2,2.6-4.6,2.6c-0.7,0-1.5-0.1-2.1-0.5c-0.4-0.3-0.7-0.6-0.7-1.1c0-0.5,0.1-1.3,0.4-1.9c0.1-0.2,0.2-0.3,0.3-0.3
			c0.1,0,0.2,0.1,0.3,0.3c0.2,0.7,1.2,1,2.3,1c2.1,0,3.1-0.5,3.6-1.3c0-0.2,0.1-0.4,0.1-0.7c0-1.3-0.4-2.9-0.7-4.4
			c0-0.2-0.1-0.3-0.1-0.5c0-0.1,0.1-0.4,0.5-1.4c0.2-0.4,0.3-0.6,0.4-0.6c0.1,0,0.2,0.2,0.3,0.6c0.8,3.3,0.8,5.6,1.2,7
			c0.1,0.4,0.2,0.6,0.5,0.9C94.7,21.6,95.1,21.8,95.5,21.8z"/>
		<path class="st1" d="M99.8,3.4c0.7,0,1.7,1,1.7,2.1c0,0.4-0.1,0.8-0.2,1.2c-0.3,0.8-0.9,1.3-1.8,1.3c-0.8,0-1.3-0.6-1.3-1.3
			C98.1,5.6,99.3,3.4,99.8,3.4z M99.5,5c-0.3,0-0.7,0.6-0.7,1c0,0.3,0.4,0.6,0.8,0.6c0.5,0,1.1-0.3,1.1-0.5
			C100.7,5.9,100.1,5,99.5,5z"/>
		<path class="st1" d="M103.6,21.8c0.7,0,1,0.4,1,1.1c0,0.8-0.3,1.2-1,1.2h-0.3c-2.1,0-3.4-0.4-4.3-1c-0.8,0.5-1.9,1-3.2,1h-0.2
			c-0.6,0-0.9-0.4-0.9-1.2c0-0.7,0.3-1.1,1-1.1h0.2c0.9,0,1.4-0.1,1.7-0.4c-0.1-0.2-0.1-0.5-0.1-0.8c0-2.3,2.6-5.1,4-5.1
			c0.8,0,1.3,1,1.3,2.2c0,1.3-0.5,2.8-1.5,3.7c0.5,0.2,1.2,0.4,2.1,0.4H103.6z M101,9.9c0.2-0.2,0.2-0.2,0.3-0.1
			c0.5,0.5,1,1.1,1.5,1.4c0.2,0.1,0.2,0.2,0,0.3c-0.5,0.5-0.9,1-1.3,1.5c-0.1,0.1-0.2,0.1-0.3,0c-0.4-0.3-0.9-0.7-1.4-1.2
			c-0.3,0.3-0.9,1-1.1,1.2c-0.1,0.1-0.2,0.2-0.4,0c-0.5-0.3-1.1-0.9-1.5-1.4c-0.1-0.1-0.1-0.2,0-0.3c0.4-0.5,0.9-1,1.4-1.5
			c0.1-0.1,0.2-0.1,0.3,0.1c0.4,0.4,1,1,1.4,1.2C100.2,10.8,100.7,10.1,101,9.9z M100.4,17.9c-0.8,0-1.6,0.9-1.6,1.2
			c0,0.5,0.4,0.9,1.2,1.4c0.3-0.1,1.4-1,1.4-1.3C101.4,18.4,101.1,17.9,100.4,17.9z"/>
		<path class="st1" d="M108.9,25.3c0.1-0.1,0.1,0,0.1,0.1c0,0.6-0.2,1.1-0.5,1.3l-4.1,2.3c-0.1,0-0.1,0-0.1-0.1c0-0.3,0.1-0.8,0.2-1
			c0.1-0.2,0.3-0.3,0.7-0.5L108.9,25.3z"/>
		<path class="st1" d="M111.7,30.1c0.1-0.1,0.1,0,0.1,0.1c0,0.6-0.2,1.1-0.5,1.3l-4.1,2.3c-0.1,0-0.1,0-0.1-0.1c0-0.3,0.1-0.8,0.2-1
			c0.1-0.2,0.3-0.3,0.7-0.5L111.7,30.1z"/>
		<path class="st1" d="M111,27.8c0.1,0.1,0.1,0.1,0,0.2c-0.2,0.3-1.1,1.2-1.4,1.7c-0.1,0.1-0.1,0.1-0.2,0c-0.5-0.3-1.5-1-1.7-1.4
			c-0.1-0.1-0.1-0.1,0-0.2c0.3-0.5,0.9-1.2,1.3-1.6c0.2-0.2,0.2-0.2,0.3-0.1C109.6,26.7,110.3,27.3,111,27.8z"/>
		<path class="st1" d="M110.3,16.4c-0.3-0.4-0.7-0.5-1.1-0.5c-0.4,0-0.8,0.2-1.2,0.5c-0.7,0.5-1.3,1.4-1.3,1.7
			c0.4,1.3,1.4,2.4,2.6,3c0.6,0.3,1,0.5,1.1,0.6c0.1,0.1,0.2,0.3,0.2,0.5c0,0.4-0.1,0.8-0.2,1.3c-0.1,0.4-0.2,0.6-0.3,0.7
			c0,0-0.1,0-0.2,0c-1.3-0.8-2.2-1.1-2.8-1.1c-0.4,0-0.9,0.2-1.6,0.6c-0.6,0.4-1.3,0.6-2.1,0.6h-0.3c-0.7,0-1.1-0.4-1.1-1.1
			c0-0.8,0.4-1.2,1.1-1.2h0.3c1.2,0,2.1-0.2,2.6-0.5l0.4-0.2v0c-0.4-0.8-0.6-1.5-0.6-2.1c0-1.2,0.4-1.9,0.6-2.4
			c0.7-1.5,2-2.8,3.3-2.8c0.4,0,1.7,0.1,1.7,1.5c0,0.4-0.1,0.8-0.2,1.3C111,17,110.8,17,110.3,16.4z"/>
		<path class="st1" d="M123.2,6.7c0,0.5-0.1,1-0.3,1.5c0.2,0.1,0.4,0.3,0.4,0.4c0,0.4-0.2,0.7-0.3,1c-0.1,0.1-0.1,0.1-0.1,0.1
			l-0.5-0.3c-0.5,0.8-1.3,1.8-2.5,2.3c-0.4,0.2-0.9,0.4-1.5,0.4c-0.3,0-0.4-0.1-0.4-0.1c0-0.1,0.2-0.2,0.6-0.4
			c0.9-0.5,2.5-1.8,3.1-2.5c-0.5-0.3-1.1-0.7-1.1-1.4c0-0.4,0.2-0.9,0.6-1.3c0.4-0.5,0.8-0.8,1.2-0.8C123,5.5,123.1,6.2,123.2,6.7z
			 M121.4,7.2C121.3,7.2,121.3,7.2,121.4,7.2c0,0.2,0.4,0.5,0.8,0.7c0.1-0.2,0.1-0.4,0.1-0.7c0-0.3-0.1-0.4-0.3-0.4
			C121.7,6.7,121.5,6.9,121.4,7.2z"/>
		<path class="st1" d="M125.4,21.4c0.5,0.3,0.9,0.5,1.2,0.5h0.3c0.7,0,1.1,0.4,1.1,1.1c0,0.8-0.4,1.2-1.1,1.2h-0.3
			c-0.8,0-1.5-0.3-2.3-0.9c-0.7-0.6-1.2-1.6-1.4-3c-0.2,0.4-0.4,0.7-0.8,1c-0.6,0.4-1.6,0.6-2.6,0.6c-0.7,0-1.4-0.1-1.4-0.7
			c0.3-2.2,0.6-2.6,1.7-3.4c0.5-0.4,1.8-1.2,2.3-1.6c0-0.2,0-0.4,0-0.5c0-0.5,0.1-0.8,0.4-1.2c0.2-0.3,0.3-0.5,0.4-0.5
			c0.1,0,0.2,0.2,0.2,0.5c0.3,2.1,0.5,3.8,0.8,4.8C124.1,20.1,124.6,20.9,125.4,21.4z M122.3,17.3c-0.9,0.6-2.5,1.6-2.6,1.9
			c0,0.2,0.3,0.2,0.7,0.2c0.6,0,1.5-0.2,2.2-0.5C122.6,18.3,122.5,18.1,122.3,17.3z"/>
		<path class="st1" d="M131.7,6.7c0,0.5-0.1,1-0.3,1.5c0.2,0.1,0.4,0.3,0.4,0.4c0,0.4-0.2,0.7-0.3,1c-0.1,0.1-0.1,0.1-0.1,0.1
			l-0.5-0.3c-0.5,0.8-1.3,1.8-2.5,2.3c-0.4,0.2-0.9,0.4-1.5,0.4c-0.3,0-0.4-0.1-0.4-0.1c0-0.1,0.2-0.2,0.6-0.4
			c0.9-0.5,2.5-1.8,3.1-2.5c-0.5-0.3-1.1-0.7-1.1-1.4c0-0.4,0.2-0.9,0.6-1.3c0.4-0.5,0.8-0.8,1.2-0.8C131.5,5.5,131.7,6.2,131.7,6.7
			z M129.9,7.2C129.9,7.2,129.9,7.2,129.9,7.2c0,0.2,0.4,0.5,0.8,0.7c0.1-0.2,0.1-0.4,0.1-0.7c0-0.3-0.1-0.4-0.3-0.4
			C130.3,6.7,130,6.9,129.9,7.2z"/>
		<path class="st1" d="M131.3,20.5c0,0.6,0.6,1.2,1.4,1.4c0.2,0,0.3,0,0.5,0h0.1c0.9,0,0.9,0.7,0.9,1c0,0.3,0,1.3-0.8,1.3h-0.2
			c-0.2,0-0.3,0-0.6,0c-1.5-0.2-2.1-1.5-2.2-1.7c-0.2,0.6-1.5,1.7-3.7,1.7h-0.1c-0.6,0-1-0.6-1-1.1c0-0.6,0.3-1.1,1-1.1h0.7
			c1,0,2.4-0.2,3.3-1.6c0.3-0.5,0.4-0.5,0.5-0.5C131.3,19.7,131.3,19.9,131.3,20.5z M132.2,14.6c0.1,0.1,0.1,0.1,0,0.2
			c-0.2,0.3-1.1,1.2-1.4,1.7c-0.1,0.1-0.1,0.1-0.2,0c-0.5-0.3-1.5-1-1.7-1.4c-0.1-0.1-0.1-0.1,0-0.2c0.3-0.5,0.9-1.2,1.3-1.6
			c0.2-0.2,0.2-0.2,0.3-0.1C130.8,13.5,131.5,14.2,132.2,14.6z"/>
		<path class="st1" d="M140.5,11.2c0.1-0.1,0.1,0,0.1,0.1c0,0.6-0.2,1.1-0.5,1.3l-4.1,2.3c-0.1,0-0.1,0-0.1-0.1c0-0.3,0.1-0.8,0.2-1
			c0.1-0.2,0.3-0.3,0.7-0.5L140.5,11.2z"/>
		<path class="st1" d="M133.4,24.1h-0.1c-0.7,0-1-0.4-1-1.2c0-0.7,0.4-1.1,1-1.1h0.1c1.2,0,2.2-0.5,2.9-1.4l1.3-2
			c0.7-1.1,1.7-1.5,2.2-1.5c1.7,0,2.4,2.9,2.4,4.1c0,1-1.1,2.4-1.6,2.4c-0.8,0-2.8-1-3.8-1.9C135.7,23.3,134.7,24.1,133.4,24.1z
			 M138.7,18.9c-0.2,0-0.3,0.1-0.5,0.3c-0.1,0.1-0.2,0.3-0.3,0.5c0.5,0.3,1.9,1,2.5,1.4C140.4,20.3,139.4,18.9,138.7,18.9z"/>
		<path class="st1" d="M148.3,6.2c0.1-0.1,0.1,0,0.1,0.1c0,0.6-0.2,1.1-0.5,1.3l-4.1,2.3c-0.1,0-0.1,0-0.1-0.1c0-0.3,0.1-0.8,0.2-1
			c0.1-0.2,0.3-0.3,0.7-0.5L148.3,6.2z"/>
		<path class="st1" d="M148.6,23.4c0,3.4-1.5,6-4.2,7.1c-0.2,0.1-0.4,0.1-0.6,0.1c-0.9,0-2.8-0.5-4.1-1.1c-0.3-0.2-0.4-0.3-0.4-0.4
			c0-0.1,0.2-0.2,0.3-0.2c0.3,0,1.1,0.2,1.8,0.2c0.7,0,1.2-0.2,2.2-0.6c1.1-0.5,3.3-2.3,3.8-3.8c0.1-0.2,0.1-0.6,0.1-0.7
			c0-0.1-0.1-1-1-2.4c-0.3-0.5-0.5-0.8-0.8-1.2c-0.1-0.1-0.1-0.1-0.1-0.2c0-0.3,0.4-1.3,0.6-1.7c0.1-0.1,0.1-0.2,0.2-0.2
			c0.5,0,1.4,1.7,1.8,3.1C148.6,22,148.6,22.7,148.6,23.4z M147.9,12.9c0.1,0.1,0.1,0.1,0,0.2c-0.2,0.3-1.1,1.2-1.4,1.7
			c-0.1,0.1-0.1,0.1-0.2,0c-0.5-0.3-1.5-1-1.7-1.4c-0.1-0.1-0.1-0.1,0-0.2c0.3-0.5,0.9-1.2,1.3-1.6c0.2-0.2,0.2-0.2,0.3-0.1
			C146.5,11.9,147.2,12.5,147.9,12.9z"/>
		<path class="st1" d="M162.5,11c0,0.5-0.1,1-0.3,1.5c0.2,0.1,0.4,0.3,0.4,0.4c0,0.4-0.2,0.7-0.3,1c-0.1,0.1-0.1,0.1-0.1,0.1
			l-0.5-0.3c-0.5,0.8-1.3,1.8-2.5,2.3c-0.4,0.2-0.9,0.4-1.5,0.4c-0.3,0-0.4-0.1-0.4-0.1c0-0.1,0.2-0.2,0.6-0.4
			c0.9-0.5,2.5-1.8,3.1-2.5c-0.5-0.3-1.1-0.7-1.1-1.4c0-0.4,0.2-0.9,0.6-1.3c0.4-0.5,0.8-0.8,1.2-0.8C162.3,9.7,162.5,10.4,162.5,11
			z M160.7,11.4C160.7,11.4,160.7,11.4,160.7,11.4c0,0.2,0.4,0.5,0.8,0.7c0.1-0.2,0.1-0.4,0.1-0.7c0-0.3-0.1-0.4-0.3-0.4
			C161.1,11,160.8,11.1,160.7,11.4z"/>
		<path class="st1" d="M163.2,23.4c0,3.4-1.5,6-4.2,7.1c-0.2,0.1-0.4,0.1-0.6,0.1c-0.9,0-2.8-0.5-4.1-1.1c-0.3-0.2-0.4-0.3-0.4-0.4
			c0-0.1,0.2-0.2,0.3-0.2c0.3,0,1.1,0.2,1.8,0.2c0.7,0,1.2-0.2,2.2-0.6c1.1-0.5,3.3-2.3,3.8-3.8c0.1-0.2,0.1-0.6,0.1-0.7
			c0-0.1-0.1-1-1-2.4c-0.3-0.5-0.5-0.8-0.8-1.2c-0.1-0.1-0.1-0.1-0.1-0.2c0-0.3,0.4-1.3,0.6-1.7c0.1-0.1,0.1-0.2,0.2-0.2
			c0.5,0,1.4,1.7,1.8,3.1C163.2,22,163.2,22.7,163.2,23.4z"/>
		<path class="st1" d="M169.2,10.5c-0.7,0-1.1-0.7-1.1-1.5c0-0.2,0-0.5,0.1-0.8c0.1-0.2,0.2-0.8,0.5-0.8c0.1,0,0.2,0.2,0.2,0.6v0.3
			c0,0.3,0.2,0.5,0.6,0.5h0c0.5,0,0.8-0.3,0.9-1c0.1-0.3,0.2-1.1,0.6-1.1c0.1,0,0.2,0.2,0.2,0.5c0,0.2,0.1,0.3,0.4,0.3
			c0.5,0,0.8-0.3,0.9-0.8c0.1-0.7,0.2-0.8,0.4-0.8c0.2,0,0.3,0.7,0.3,1.1c0,0.3,0,0.6-0.2,1c-0.2,0.7-0.7,1.2-1.5,1.2
			c-0.2,0-0.4-0.1-0.5-0.1c-0.1-0.1-0.1,0-0.2,0.1C170.4,10,170,10.5,169.2,10.5z M173.1,3.6C173.2,3.6,173.2,3.7,173.1,3.6
			c0,0.5-0.2,0.9-0.4,1.2c-0.1,0.1-0.2,0.2-0.5,0.3l-4,1.9c0,0-0.1,0-0.1-0.1c0-0.2,0.1-0.5,0.2-0.7c0.2-0.3,0.2-0.4,0.3-0.5
			c0.1-0.1,0.2-0.1,0.3-0.2L173.1,3.6z"/>
		<path class="st1" d="M174.9,21.8h0.3c0.7,0,1,0.4,1,1.1c0,0.8-0.4,1.2-1,1.2h-0.3c-0.8,0-1.4-0.3-1.8-0.7c-0.5-0.4-0.8-1-1.1-1.9
			c-0.3,1.6-2.2,2.6-4.6,2.6c-0.7,0-1.5-0.1-2.1-0.5c-0.4-0.3-0.7-0.6-0.7-1.1c0-0.5,0.1-1.3,0.4-1.9c0.1-0.2,0.2-0.3,0.3-0.3
			s0.2,0.1,0.3,0.3c0.2,0.7,1.2,1,2.3,1c2.1,0,3.1-0.5,3.6-1.3c0-0.2,0.1-0.4,0.1-0.7c0-1.3-0.4-2.9-0.7-4.4c0-0.2-0.1-0.3-0.1-0.5
			c0-0.1,0.1-0.4,0.5-1.4c0.2-0.4,0.3-0.6,0.4-0.6c0.1,0,0.2,0.2,0.3,0.6c0.8,3.3,0.8,5.6,1.2,7c0.1,0.4,0.2,0.6,0.5,0.9
			C174.1,21.6,174.5,21.8,174.9,21.8z"/>
		<path class="st1" d="M181.2,4.5c0.1-0.1,0.1,0,0.1,0.1c0,0.6-0.2,1.1-0.5,1.3l-4.1,2.3c-0.1,0-0.1,0-0.1-0.1c0-0.3,0.1-0.8,0.2-1
			c0.1-0.2,0.3-0.3,0.7-0.5L181.2,4.5z"/>
		<path class="st1" d="M182.9,21.8c0.7,0,1,0.4,1,1.1c0,0.8-0.3,1.2-1,1.2h-0.3c-2.1,0-3.4-0.4-4.3-1c-0.8,0.5-1.9,1-3.2,1h-0.2
			c-0.6,0-0.9-0.4-0.9-1.2c0-0.7,0.3-1.1,1-1.1h0.2c0.9,0,1.4-0.1,1.7-0.4c-0.1-0.2-0.1-0.5-0.1-0.8c0-2.3,2.6-5.1,4-5.1
			c0.8,0,1.3,1,1.3,2.2c0,1.3-0.5,2.8-1.5,3.7c0.5,0.2,1.2,0.4,2.1,0.4H182.9z M180.4,9.9c0.2-0.2,0.2-0.2,0.3-0.1
			c0.5,0.5,1,1.1,1.5,1.4c0.2,0.1,0.2,0.2,0,0.3c-0.5,0.5-0.9,1-1.3,1.5c-0.1,0.1-0.2,0.1-0.3,0c-0.4-0.3-0.9-0.7-1.4-1.2
			c-0.3,0.3-0.9,1-1.1,1.2c-0.1,0.1-0.2,0.2-0.4,0c-0.5-0.3-1.1-0.9-1.5-1.4c-0.1-0.1-0.1-0.2,0-0.3c0.4-0.5,0.9-1,1.4-1.5
			c0.1-0.1,0.2-0.1,0.3,0.1c0.4,0.4,1,1,1.4,1.2C179.6,10.8,180.1,10.1,180.4,9.9z M179.7,17.9c-0.8,0-1.6,0.9-1.6,1.2
			c0,0.5,0.4,0.9,1.2,1.4c0.3-0.1,1.4-1,1.4-1.3C180.7,18.4,180.5,17.9,179.7,17.9z"/>
		<path class="st1" d="M187.2,9.7c0,0.5-0.1,1-0.3,1.5c0.2,0.1,0.4,0.3,0.4,0.4c0,0.4-0.2,0.7-0.3,1c-0.1,0.1-0.1,0.1-0.1,0.1
			l-0.5-0.3c-0.5,0.8-1.3,1.8-2.5,2.3c-0.4,0.2-0.9,0.4-1.5,0.4c-0.3,0-0.4-0.1-0.4-0.1c0-0.1,0.2-0.2,0.6-0.4
			c0.9-0.5,2.5-1.8,3.1-2.5c-0.5-0.3-1.1-0.7-1.1-1.4c0-0.4,0.2-0.9,0.6-1.3c0.4-0.5,0.8-0.8,1.2-0.8C187,8.5,187.2,9.2,187.2,9.7z
			 M185.4,10.2C185.4,10.2,185.4,10.2,185.4,10.2c0,0.2,0.4,0.5,0.8,0.7c0.1-0.2,0.1-0.4,0.1-0.7c0-0.3-0.1-0.4-0.3-0.4
			C185.8,9.7,185.6,9.9,185.4,10.2z"/>
		<path class="st1" d="M186.6,22.7c-0.4,0.6-1.2,1.1-2.6,1.3c-0.4,0.1-0.9,0.1-1.4,0.1c-0.6,0-1-0.6-1-1.1c0-0.6,0.3-1.1,1-1.1h0.5
			c1,0,2.6,0,3.2-0.6c-0.1-0.9-0.8-2-1.1-2.4c0,0,0,0,0-0.1c0-0.4,0.7-1.8,0.7-1.9c0-0.1,0.1-0.1,0.1-0.1c0.3,0,1.1,1.6,1.1,3.5
			C187.2,21.1,187.1,22,186.6,22.7z M187.1,25.3c0.2-0.2,0.2-0.2,0.3-0.1c0.5,0.5,1,1.1,1.5,1.4c0.2,0.1,0.2,0.2,0,0.3
			c-0.5,0.5-0.9,1-1.3,1.5c-0.1,0.1-0.2,0.1-0.3,0c-0.4-0.3-0.9-0.7-1.4-1.2c-0.3,0.3-0.9,1-1.1,1.2c-0.1,0.1-0.2,0.2-0.4,0
			c-0.5-0.3-1.1-0.9-1.5-1.4c-0.1-0.1-0.1-0.2,0-0.3c0.4-0.5,0.9-1,1.4-1.5c0.1-0.1,0.2-0.1,0.3,0.1c0.4,0.4,1,1,1.4,1.2
			C186.3,26.2,186.9,25.5,187.1,25.3z"/>
		<path class="st1" d="M196.7,11.7c0.1-0.1,0.1,0,0.1,0.1c0,0.6-0.2,1.1-0.5,1.3l-4.1,2.3c-0.1,0-0.1,0-0.1-0.1c0-0.3,0.1-0.8,0.2-1
			c0.1-0.2,0.3-0.3,0.7-0.5L196.7,11.7z"/>
		<path class="st1" d="M197.5,20c0.3,0.9,0.5,1.8,0.5,3.1c0,4-1.1,6.5-4.2,7.7c-0.2,0.1-0.4,0.1-0.6,0.1c-1,0-2.6-0.5-4-1.1
			c-0.3-0.2-0.4-0.3-0.4-0.4c0-0.1,0.1-0.2,0.4-0.2c0.2,0,1.1,0.2,1.8,0.2c0.9,0,1.9-0.4,3.3-1.3c1.5-1,2.8-2.3,2.8-3.8
			c0-0.5-0.1-1-0.4-1.5c-0.3,0.7-0.8,1.1-1.5,1.1c-1.3,0-2.1-0.7-2.1-2.1c0-0.5,0.3-1.3,0.6-2.1c0.5-1,1.2-1.9,1.8-1.9
			C196.1,17.8,197,18.7,197.5,20z M194.9,20c-0.3,0-0.5,0.2-0.7,0.5c-0.1,0.1-0.2,0.4-0.2,0.5c0,0.4,0.6,0.6,1.1,0.6
			c0.4,0,0.7-0.2,0.8-0.4C195.9,20.5,195.2,20,194.9,20z"/>
		<path class="st1" d="M209.4,22.9c0.2,0.3,0.3,0.6,0.3,1.1c0,0.5-0.2,0.9-0.5,1.1c-0.3,0.2-0.6,0.3-1,0.3c-0.6,0-1.2-0.4-1.5-1.1
			c-0.3-0.7-0.4-1.3-0.4-2c0-0.8,0.2-1.6,0.5-2.3c0.3-0.7,0.6-1.2,1-1.7c0.4-0.4,0.6-0.7,0.8-0.7c0.3,0,0.1,0.4-0.2,0.8
			c-0.8,1.1-1.1,2.1-1.1,3.2c0,0.6,0.1,0.7,0.2,1c0.3-0.1,0.6-0.2,0.8-0.2C208.8,22.4,209.1,22.6,209.4,22.9z"/>
		<path class="st1" d="M216.6,16.2c0.1-0.1,0.1,0,0.1,0.1c0,0.6-0.2,1.1-0.5,1.3l-4.1,2.3c-0.1,0-0.1,0-0.1-0.1c0-0.3,0.1-0.8,0.2-1
			c0.1-0.2,0.3-0.3,0.7-0.5L216.6,16.2z"/>
		<path class="st1" d="M222.4,28.6c0.2-0.2,0.2-0.2,0.3-0.1c0.5,0.5,1,1.1,1.5,1.4c0.2,0.1,0.2,0.2,0,0.3c-0.5,0.5-0.9,1-1.3,1.5
			c-0.1,0.1-0.2,0.1-0.3,0c-0.4-0.3-0.9-0.7-1.4-1.2c-0.3,0.3-0.9,1-1.1,1.2c-0.1,0.1-0.2,0.2-0.4,0c-0.5-0.3-1.1-0.9-1.5-1.4
			c-0.1-0.1-0.1-0.2,0-0.3c0.4-0.5,0.9-1,1.4-1.5c0.1-0.1,0.2-0.1,0.3,0.1c0.4,0.4,1,1,1.4,1.2C221.6,29.4,222.2,28.8,222.4,28.6z"
			/>
		<path class="st1" d="M219.5,25.4c0,0.1,0,0.2-0.1,0.5c-0.3,0.8-0.6,1.3-0.8,1.6c-0.1,0.1-0.1,0.1-0.2,0.1
			c-0.5-0.2-1.1-0.3-2.2-0.4c-1.7,0-2.8,0.3-3.1,0.9c0.2,1.2,0.4,2.1,0.5,2.6l0.4,2.1c0.2,1.1,0.3,2.2,0.3,3.1
			c0,0.9-0.1,1.9-0.4,2.8c-0.1,0.4-0.3,0.6-0.4,0.6c-0.1,0-0.1-0.2-0.1-0.5c0-0.3,0.1-0.7,0-1.2c0-0.9-0.2-2.1-0.6-4.6
			c-0.3-1.9-0.6-3-0.6-3.5c0-1,0.2-1.9,0.7-2.8c0.5-0.9,1.1-1.5,1.8-1.8l0.7-1.6c0.5-1.2,1.3-2,2.1-2.5c0.8-0.5,2.1-1.1,3.1-1.1
			c0.3,0,0.6,0.1,0.8,0.2c0.3,0.2,0.6,0.5,1,1.1c0.4,0.6,0.8,0.8,1.3,0.8h0.3c0.6,0,0.9,0.3,0.9,1c0,0.8-0.3,1.2-0.9,1.2h-0.3
			c-0.7,0-1.4-0.3-2-1c-0.5-0.5-0.8-0.9-1.2-1c-0.2-0.1-0.4-0.1-0.9-0.1c-1.1,0-2.1,0.4-2.9,1.1c0.9,0.4,1.6,0.8,2.1,1.3
			C219.1,24.8,219.4,25.1,219.5,25.4z"/>
		<path class="st1" d="M226.4,2.2c0.7,0,1.7,1,1.7,2.1c0,0.4-0.1,0.8-0.2,1.2c-0.3,0.8-0.9,1.3-1.8,1.3c-0.8,0-1.3-0.6-1.3-1.3
			C224.8,4.4,225.9,2.2,226.4,2.2z M226.2,3.8c-0.3,0-0.7,0.6-0.7,1c0,0.3,0.4,0.6,0.8,0.6c0.5,0,1.1-0.3,1.1-0.5
			C227.4,4.6,226.8,3.8,226.2,3.8z"/>
		<path class="st1" d="M227.9,19.4c0.1,0.5,0.4,0.9,0.7,1.1c0.3,0.2,0.7,0.4,1.1,0.6c0.4,0.2,0.7,0.3,0.8,0.4
			c0.2,0.1,0.3,0.8,0.3,1.2c0,0.4-0.1,1-0.4,1.4c-0.1,0.1-0.2,0.1-0.2,0.1c-1.3-0.7-2.3-1.1-3-1.1c-0.5,0-0.9,0.2-1.5,0.5
			c-0.6,0.3-1.3,0.6-2,0.6h-0.2c-0.6,0-0.9-0.4-0.9-1.1c0-0.8,0.3-1.2,0.9-1.2h0.2c0.9,0,1.9-0.3,3.1-0.8c0-0.2-0.1-0.7-0.2-1.6
			c-0.1-0.9-0.4-4.1-0.8-8c-0.1-0.4-0.2-1-0.3-1.4c0-0.1,0-0.2,0-0.3c0,0,0-0.1,0-0.2c0-0.1,0.1-0.4,0.4-0.8
			c0.3-0.5,0.6-1.1,0.8-1.1c0.1,0,0.1,0.1,0.2,0.2c0.3,0.9,0.5,1.4,0.7,1.8c0,0.1,0.1,0.2,0.1,0.2s0,0.1,0,0.2
			c-0.1,0.2-0.4,0.9-0.6,1.2C227.5,16.1,227.8,18.9,227.9,19.4z"/>
		<path class="st1" d="M234.8,24.1c-0.1,0-0.2-0.2-0.2-0.7c0-3-1.1-11.3-1.1-12.7c0-0.7,0.5-1.7,0.9-2.5c0.1-0.2,0.3-0.5,0.5-0.5
			c0.1,0,0.2,0.2,0.2,0.8c0.1,2.2,0.7,7.3,0.7,11c0,1.5-0.1,2.7-0.4,3.5C235.1,23.8,235,24.1,234.8,24.1z"/>
		<path class="st1" d="M251.5,11.7c0.1-0.1,0.1,0,0.1,0.1c0,0.6-0.2,1.1-0.5,1.3l-4.1,2.3c-0.1,0-0.1,0-0.1-0.1c0-0.3,0.1-0.8,0.2-1
			c0.1-0.2,0.3-0.3,0.7-0.5L251.5,11.7z"/>
		<path class="st1" d="M252.3,20c0.3,0.9,0.5,1.8,0.5,3.1c0,4-1.1,6.5-4.2,7.7c-0.2,0.1-0.4,0.1-0.6,0.1c-1,0-2.6-0.5-4-1.1
			c-0.3-0.2-0.4-0.3-0.4-0.4c0-0.1,0.1-0.2,0.4-0.2c0.2,0,1.1,0.2,1.8,0.2c0.9,0,1.9-0.4,3.3-1.3c1.5-1,2.8-2.3,2.8-3.8
			c0-0.5-0.1-1-0.4-1.5c-0.3,0.7-0.8,1.1-1.5,1.1c-1.3,0-2.1-0.7-2.1-2.1c0-0.5,0.3-1.3,0.6-2.1c0.5-1,1.2-1.9,1.8-1.9
			C250.9,17.8,251.8,18.7,252.3,20z M249.7,20c-0.3,0-0.5,0.2-0.7,0.5c-0.1,0.1-0.2,0.4-0.2,0.5c0,0.4,0.6,0.6,1.1,0.6
			c0.4,0,0.7-0.2,0.8-0.4C250.7,20.5,250,20,249.7,20z"/>
		<path class="st1" d="M268,4.2c0.1-0.1,0.1,0,0.1,0.1c0,0.6-0.2,1.1-0.5,1.3l-4.1,2.3c-0.1,0-0.1,0-0.1-0.1c0-0.3,0.1-0.8,0.2-1
			c0.1-0.2,0.3-0.3,0.7-0.5L268,4.2z"/>
		<path class="st1" d="M261.4,24.8c-0.9-0.8-1.4-2.1-1.4-3.4c0-1.5,0.9-3.2,1.4-3.9c0.2-0.3,0.4-0.4,0.5-0.4c0.1,0,0.1,0.1,0.1,0.2
			c0,0.1-0.1,0.3-0.2,0.5c-0.4,0.9-0.9,1.8-0.9,2.9c0,0.8,0.6,1.6,1.4,2.1c0.8,0.5,1.7,0.8,2.7,0.8c2.4,0,5.7-1,6.4-2.7
			c0-0.2,0-0.3,0-0.4c0-1.1-0.3-2.3-0.9-3.1c-0.2-0.4-0.4-0.7-0.5-0.8c0,0,0-0.1,0-0.2c0-0.2,0.1-0.5,0.2-0.8
			c0.2-0.4,0.3-0.8,0.4-1.1c0.1-0.1,0.1-0.2,0.2-0.2c0.1,0,0.1,0,0.2,0.3c0.7,1.5,1.3,2.9,1.3,4.7c0,1.4-0.2,2.3-0.3,2.7
			c-0.4,0.9-0.6,1.3-1.1,1.8c-0.5,0.5-1.4,1.2-2.5,1.6c-1.1,0.5-2.4,0.7-4.1,0.7C263.3,25.9,262.2,25.6,261.4,24.8z M267.9,11
			c0.1,0.1,0.1,0.1,0,0.2c-0.2,0.3-1.1,1.2-1.4,1.7c-0.1,0.1-0.1,0.1-0.2,0c-0.5-0.3-1.5-1-1.7-1.4c-0.1-0.1-0.1-0.1,0-0.2
			c0.3-0.5,0.9-1.2,1.3-1.6c0.2-0.2,0.2-0.2,0.3-0.1C266.5,9.9,267.2,10.6,267.9,11z"/>
		<path class="st1" d="M271.4,30.1c-0.3-0.2-0.4-0.3-0.4-0.4c0-0.1,0.2-0.2,0.4-0.2c0.3,0,1.1,0.2,1.8,0.2c0.6,0,1.2-0.2,2.1-0.6
			c2.4-1.2,3.9-3,3.9-4.2c0-0.2,0-0.3-0.1-0.7h-0.7c-0.5,0-1.5-0.1-2.2-0.5c-0.7-0.4-1-0.9-1-1.5c0-0.6,0.3-1.4,0.6-2.2
			c0.6-1.3,1.2-2.2,1.9-2.2c0.7,0,1.3,0.5,1.8,1.1c0.5,0.7,0.7,1.8,0.7,2.8h1c0.6,0,0.9,0.3,0.9,1c0,0.8-0.3,1.2-0.9,1.2l-1.1,0.1
			c-0.2,3.5-1.3,5.8-4.1,6.9c-0.2,0.1-0.4,0.1-0.6,0.1C274.4,31.1,272.7,30.7,271.4,30.1z M277.6,20.4c-0.1-0.1-0.3-0.2-0.6-0.2
			c-0.5,0-0.8,0.5-0.8,0.8c0,0.2,0.2,0.5,0.8,0.7c0.4,0.2,0.9,0.2,1.1,0.2c0.2,0,0.2,0,0.2-0.1C278.5,21.5,278,20.8,277.6,20.4z"/>
		<path class="st1" d="M282.4,11.7c0,0-0.1,0-0.1,0c-0.3,0-0.6-0.2-0.8-0.4c-0.3-0.3-0.4-0.7-0.4-1.2c0-0.2,0-0.5,0.1-0.7
			c0.1-0.2,0.3-0.7,0.5-0.7c0.1,0,0.1,0.1,0.1,0.4c0,0.1,0,0.3,0,0.4c0,0.4,0.2,0.6,0.7,0.6h0c0.4,0,0.8-0.3,0.9-0.9
			c0.1-0.2,0.3-1,0.6-1c0.1,0,0.2,0.1,0.2,0.4v0.1c0,0.3,0.1,0.4,0.4,0.4c0,0,0.1,0,0.2,0c0.4-0.1,0.6-0.4,0.7-0.8
			c0.2-0.5,0.3-0.7,0.4-0.7c0.1,0,0.2,0.1,0.2,0.3c0,0.2,0,0.3,0,0.5c0,0.4-0.1,0.8-0.3,1.2c-0.3,0.6-0.7,1.1-1.4,1.1
			c-0.3,0-0.4-0.1-0.6-0.2c-0.1-0.1-0.1-0.1-0.2,0C283.3,11.3,282.9,11.7,282.4,11.7z M285.6,3.5c0,0.2,0,0.2,0,0.3
			c0,0.4-0.1,0.8-0.3,1.2c0.2,0.1,0.3,0.2,0.3,0.3c0,0.3-0.1,0.6-0.3,0.9L284.9,6c-0.5,0.8-1,1.3-1.3,1.6c-0.3,0.2-0.9,0.4-1.6,0.4
			c-0.4,0-0.5-0.1-0.3-0.2c1.3-0.8,2.2-1.5,2.7-2.2c-0.4-0.3-0.9-0.6-0.9-1.1c0-0.3,0.2-0.7,0.5-1.1c0.3-0.5,0.7-0.7,1-0.7
			C285.3,2.8,285.5,3.2,285.6,3.5z M284.1,4.3c0.1,0.2,0.3,0.3,0.7,0.5c0.1-0.1,0.1-0.4,0.1-0.5c0-0.2-0.1-0.4-0.3-0.4
			C284.4,3.9,284.2,4,284.1,4.3z"/>
		<path class="st1" d="M285.6,20.5c0,0.6,0.6,1.2,1.4,1.4c0.2,0,0.3,0,0.5,0h0.1c0.9,0,0.9,0.7,0.9,1c0,0.3,0,1.3-0.8,1.3h-0.2
			c-0.2,0-0.3,0-0.6,0c-1.5-0.2-2.1-1.5-2.2-1.7c-0.2,0.6-1.5,1.7-3.7,1.7h-0.1c-0.6,0-1-0.6-1-1.1c0-0.6,0.3-1.1,1-1.1h0.7
			c1,0,2.4-0.2,3.3-1.6c0.3-0.5,0.4-0.5,0.5-0.5C285.5,19.7,285.6,19.9,285.6,20.5z M286.4,14.6c0.1,0.1,0.1,0.1,0,0.2
			c-0.2,0.3-1.1,1.2-1.4,1.7c-0.1,0.1-0.1,0.1-0.2,0c-0.5-0.3-1.5-1-1.7-1.4c-0.1-0.1-0.1-0.1,0-0.2c0.3-0.5,0.9-1.2,1.3-1.6
			c0.2-0.2,0.2-0.2,0.3-0.1C285,13.5,285.7,14.2,286.4,14.6z"/>
		<path class="st1" d="M289.9,23.1c-0.5,0.7-1.2,1-2.3,1h-0.2c-0.7,0-1-0.4-1-1.2c0-0.7,0.3-1.1,1-1.1h0.2c0.5,0,1-0.1,1.5-0.2
			c0.4-0.1,0.6-0.3,0.7-0.4c0-1.7-0.6-5.4-0.9-8.9c0-0.4-0.3-1.6-0.4-2.1c0-0.1,0-0.2,0-0.2c0-0.3,0.3-0.9,0.5-1.3
			c0.3-0.5,0.5-0.9,0.7-0.9c0.1,0,0.1,0.1,0.2,0.2c0.3,1,0.6,1.5,0.8,1.8c0.1,0.1,0.1,0.2,0.1,0.3c0,0,0,0.1,0,0.1
			c-0.1,0.2-0.4,0.8-0.6,1.1c0.2,3.4,0.7,6.2,0.7,7.8C291,20.8,290.6,22.1,289.9,23.1z"/>
		<path class="st1" d="M295.5,24.1c-0.1,0-0.2-0.2-0.2-0.7c0-3-1.1-11.3-1.1-12.7c0-0.7,0.5-1.7,0.9-2.5c0.1-0.2,0.3-0.5,0.5-0.5
			c0.1,0,0.2,0.2,0.2,0.8c0.1,2.2,0.7,7.3,0.7,11c0,1.5-0.1,2.7-0.4,3.5C295.9,23.8,295.7,24.1,295.5,24.1z"/>
		<path class="st1" d="M315.5,9.6c0,0.5-0.1,1-0.3,1.5c0.2,0.1,0.4,0.3,0.4,0.4c0,0.4-0.2,0.7-0.3,1c-0.1,0.1-0.1,0.1-0.1,0.1
			l-0.5-0.3c-0.5,0.8-1.3,1.8-2.5,2.3c-0.4,0.2-0.9,0.4-1.5,0.4c-0.3,0-0.4-0.1-0.4-0.1c0-0.1,0.2-0.2,0.6-0.4
			c0.9-0.5,2.5-1.8,3.1-2.5c-0.5-0.3-1.1-0.7-1.1-1.4c0-0.4,0.2-0.9,0.6-1.3c0.4-0.5,0.8-0.8,1.2-0.8C315.2,8.3,315.4,9,315.5,9.6z
			 M313.6,10C313.6,10.1,313.6,10.1,313.6,10c0,0.2,0.4,0.5,0.8,0.7c0.1-0.2,0.1-0.4,0.1-0.7c0-0.3-0.1-0.4-0.3-0.4
			C314,9.6,313.8,9.8,313.6,10z"/>
		<path class="st1" d="M307.7,21.5c1,0.5,2.5,0.7,4.6,0.7c2.9,0,5.2-0.4,6.7-0.9c2.1-0.6,3-0.9,4.1-1.8c0.1,0,0.2-0.2,0.3-0.2
			c0.1,0,0.2,0.1,0.2,0.5c0,1.2,0.7,2,1.4,2h0.3c0.6,0,0.9,0.4,0.9,1.1c0,0.8-0.3,1.2-0.9,1.2h-0.4c-1.4,0-2.3-0.8-2.6-2.3
			c-1.1,0.5-2.4,1.2-3.7,1.6c-2,0.6-4.1,1.1-6.7,1.1c-2.1,0-3.8-0.3-4.9-0.8c-1.4-0.6-2.2-1.5-2.2-3c0-1.3,0.5-2.6,0.8-3.1
			c0.2-0.3,0.4-0.6,0.6-0.6c0.1,0,0.1,0.1,0.1,0.2c0,0.1-0.1,0.4-0.2,0.6c-0.2,0.5-0.4,1.1-0.4,1.5C305.8,20,306.2,20.8,307.7,21.5z
			 M315.5,28.9c0.1,0.1,0.1,0.1,0,0.2c-0.2,0.3-1.1,1.2-1.4,1.7c-0.1,0.1-0.1,0.1-0.2,0c-0.5-0.3-1.5-1-1.7-1.4
			c-0.1-0.1-0.1-0.1,0-0.2c0.3-0.5,0.9-1.2,1.3-1.6c0.2-0.2,0.2-0.2,0.3-0.1C314.1,27.8,314.8,28.4,315.5,28.9z"/>
		<path class="st1" d="M334.2,24.8c0.1-0.1,0.1,0,0.1,0.1c0,0.6-0.2,1.1-0.5,1.3l-4.1,2.3c-0.1,0-0.1,0-0.1-0.1c0-0.3,0.1-0.8,0.2-1
			c0.1-0.2,0.3-0.3,0.7-0.5L334.2,24.8z"/>
		<path class="st1" d="M327.9,18.8c-0.2,0-0.5,0-0.6,0.1c-0.2,0.1-0.6,0.3-0.8,0.3c-0.2,0-0.2-0.1-0.2-0.2c0-0.4,0.6-1.3,1.2-1.8
			c0.5-0.4,1-0.6,1.4-0.6c0.2,0,0.3,0,0.5,0.1c1.8,0.4,4.1,1.4,6,1.8c1.3,0.3,2.6,0.4,3.4,0.4c0.2,0,0.3,0,0.5,0
			c0.1,0,0.1,0,0.1,0.1c0,0.4-0.7,1.5-1.1,1.9c-0.1,0.1-0.3,0.1-0.6,0.1c-0.5,0-1.6-0.1-1.9-0.1c-0.9,0-1.6,0.1-2.2,0.3
			c-0.4,0.2-1.2,0.5-2.3,1c-1.7,0.8-2.8,1.4-3.6,1.7c-0.8,0.3-1.6,0.5-2.5,0.5h-0.3c-0.7,0-1.1-0.4-1.1-1.2c0-0.7,0.4-1.1,1.1-1.1
			h0.3c1.4,0,2.5-0.1,3.4-0.4c0.9-0.3,2.3-0.7,4-1.4C330.6,19.4,329,18.8,327.9,18.8z"/>
		<path class="st1" d="M345.4,24.1c-0.7,0-1.2-0.1-1.7-0.5c-0.7-0.6-1.1-1.7-1.3-3.1c-0.2-1.1-0.2-2.3-0.3-3.7
			c-0.1-2-0.2-5.1-0.5-6.9c0-0.1,0-0.2,0-0.2c0-0.1,0-0.2,0.2-0.4c0.3-0.5,0.5-0.8,0.7-1.2c0.2-0.3,0.2-0.3,0.3-0.3
			c0.1,0,0.2,0.2,0.3,0.7c0.4,3.5,0.1,8.4,0.6,11.1c0.1,0.7,0.2,0.9,0.4,1.3c0.3,0.6,0.7,0.9,1.4,1c0.8,0,1.2,0.4,1.2,1.1
			c0,0.9-0.4,1.2-1.1,1.2H345.4z"/>
		<path class="st1" d="M362.2,24.1c-1.5,0-2.9,0-4.4,0.3c-1.3,0.2-2.6,0.4-4.1,0.4c-1,0-2-0.1-2.9-0.3c-0.2,0.2-0.4,0.5-0.6,0.8
			c-0.2,0.3-0.3,0.5-0.5,0.5c-0.1,0-0.2-0.1-0.2-0.2c0-0.1,0-0.2,0.1-0.3c0.1-0.3,0.3-0.7,0.5-1.1c-1.1-0.4-1.8-1-2.2-2
			c-0.6,1.2-1.4,1.9-2.3,1.9h-0.2c-0.6,0-0.9-0.4-0.9-1.1c0-0.8,0.3-1.1,0.9-1.1h0.2c1.2-0.1,2-0.7,2.4-1.7c0.3-0.6,0.5-1.1,0.8-1.1
			c0.2,0,0.2,0.3,0.2,0.8c0,1.3,1.2,2.1,2.4,2.4c1.6-2,5.4-5.2,7-5.2c0.5,0,1.1,0.2,1.7,0.5c0.6,0.3,1.2,0.9,1.2,1.6
			c0,0.7-0.4,2.1-0.9,2.9c0.7-0.1,1.3-0.2,1.8-0.2h0.2c0.7,0,1.1,0.4,1.1,1.1c0,0.8-0.4,1.2-1.1,1.2H362.2z M360,21
			c0-0.3-0.4-0.8-0.8-1.1c-0.6-0.4-1.3-0.6-1.7-0.6c-1.6,0-4,1.8-5.2,3c0.5,0.1,1.2,0.2,1.6,0.2C356.6,22.5,358.7,21.7,360,21
			C360,21.1,360,21,360,21z"/>
		<path class="st1" d="M366.7,9.7c0,0.5-0.1,1-0.3,1.5c0.2,0.1,0.4,0.3,0.4,0.4c0,0.4-0.2,0.7-0.3,1c-0.1,0.1-0.1,0.1-0.1,0.1
			l-0.5-0.3c-0.5,0.8-1.3,1.8-2.5,2.3c-0.4,0.2-0.9,0.4-1.5,0.4c-0.3,0-0.4-0.1-0.4-0.1c0-0.1,0.2-0.2,0.6-0.4
			c0.9-0.5,2.5-1.8,3.1-2.5c-0.5-0.3-1.1-0.7-1.1-1.4c0-0.4,0.2-0.9,0.6-1.3c0.4-0.5,0.8-0.8,1.2-0.8C366.5,8.5,366.7,9.2,366.7,9.7
			z M364.9,10.2C364.9,10.2,364.9,10.2,364.9,10.2c0,0.2,0.4,0.5,0.8,0.7c0.1-0.2,0.1-0.4,0.1-0.7c0-0.3-0.1-0.4-0.3-0.4
			C365.3,9.7,365.1,9.9,364.9,10.2z"/>
		<path class="st1" d="M366.1,22.7c-0.4,0.6-1.2,1.1-2.6,1.3c-0.4,0.1-0.9,0.1-1.4,0.1c-0.6,0-1-0.6-1-1.1c0-0.6,0.3-1.1,1-1.1h0.5
			c1,0,2.6,0,3.2-0.6c-0.1-0.9-0.8-2-1.1-2.4c0,0,0,0,0-0.1c0-0.4,0.7-1.8,0.7-1.9c0-0.1,0.1-0.1,0.1-0.1c0.3,0,1.1,1.6,1.1,3.5
			C366.7,21.1,366.6,22,366.1,22.7z M366.6,25.3c0.2-0.2,0.2-0.2,0.3-0.1c0.5,0.5,1,1.1,1.5,1.4c0.2,0.1,0.2,0.2,0,0.3
			c-0.5,0.5-0.9,1-1.3,1.5c-0.1,0.1-0.2,0.1-0.3,0c-0.4-0.3-0.9-0.7-1.4-1.2c-0.3,0.3-0.9,1-1.1,1.2c-0.1,0.1-0.2,0.2-0.4,0
			c-0.5-0.3-1.1-0.9-1.5-1.4c-0.1-0.1-0.1-0.2,0-0.3c0.4-0.5,0.9-1,1.4-1.5c0.1-0.1,0.2-0.1,0.3,0.1c0.4,0.4,1,1,1.4,1.2
			C365.8,26.2,366.4,25.5,366.6,25.3z"/>
		<path class="st1" d="M378.1,22.9c0.2,0.3,0.3,0.6,0.3,1.1c0,0.5-0.2,0.9-0.5,1.1c-0.3,0.2-0.6,0.3-1,0.3c-0.6,0-1.2-0.4-1.5-1.1
			c-0.3-0.7-0.4-1.3-0.4-2c0-0.8,0.2-1.6,0.5-2.3c0.3-0.7,0.6-1.2,1-1.7c0.4-0.4,0.6-0.7,0.8-0.7c0.3,0,0.1,0.4-0.2,0.8
			c-0.8,1.1-1.1,2.1-1.1,3.2c0,0.6,0.1,0.7,0.2,1c0.3-0.1,0.6-0.2,0.8-0.2C377.4,22.4,377.8,22.6,378.1,22.9z"/>
		<path class="st1" d="M388.8,25.3c0.1-0.1,0.1,0,0.1,0.1c0,0.6-0.2,1.1-0.5,1.3l-4.1,2.3c-0.1,0-0.1,0-0.1-0.1c0-0.3,0.1-0.8,0.2-1
			c0.1-0.2,0.3-0.3,0.7-0.5L388.8,25.3z"/>
		<path class="st1" d="M388.6,19.4c-0.1,0.7-0.5,1.6-0.8,2.1c-0.1,0.1-0.1,0.1-0.2,0.1c0,0-0.1,0-0.1,0c-0.3-0.1-0.7-0.2-1.5-0.2
			c-1.6,0-3.6,0.4-3.7,1c0,0.8,0.9,4,0.9,8c0,0.4,0,0.8,0,1.1c-0.1,1.7-0.6,2.7-0.8,2.7c-0.1,0-0.2-0.2-0.2-0.6c0-0.3,0-0.6,0-1
			c0-2.3-0.5-5-0.9-7.6c-0.1-0.7-0.2-1.3-0.2-1.8c0-1.9,0.7-2.6,1.1-3c0-0.1,0-0.2,0-0.3c0-1.5,0.9-3.9,2.4-3.9c1.8,0,3.2,2.1,4,3.3
			C388.6,19.2,388.6,19.3,388.6,19.4z M384.1,18.4c-0.6,0-0.8,0.7-1,1.1c0.6-0.4,1.7-0.5,2.3-0.5C385,18.6,384.6,18.4,384.1,18.4z"
			/>
		<path class="st1" d="M389.9,30.1c-0.3-0.2-0.4-0.3-0.4-0.4c0-0.1,0.2-0.2,0.4-0.2c0.3,0,1.1,0.2,1.8,0.2c0.6,0,1.2-0.2,2.1-0.6
			c2.4-1.2,3.9-3,3.9-4.2c0-0.2,0-0.3-0.1-0.7h-0.7c-0.5,0-1.5-0.1-2.2-0.5c-0.7-0.4-1-0.9-1-1.5c0-0.6,0.3-1.4,0.6-2.2
			c0.6-1.3,1.2-2.2,1.9-2.2c0.7,0,1.3,0.5,1.8,1.1c0.5,0.7,0.7,1.8,0.7,2.8h1c0.6,0,0.9,0.3,0.9,1c0,0.8-0.3,1.2-0.9,1.2l-1.1,0.1
			c-0.2,3.5-1.3,5.8-4.1,6.9c-0.2,0.1-0.4,0.1-0.6,0.1C392.8,31.1,391.2,30.7,389.9,30.1z M396.1,20.4c-0.1-0.1-0.3-0.2-0.6-0.2
			c-0.5,0-0.8,0.5-0.8,0.8c0,0.2,0.2,0.5,0.8,0.7c0.4,0.2,0.9,0.2,1.1,0.2c0.2,0,0.2,0,0.2-0.1C396.9,21.5,396.5,20.8,396.1,20.4z"
			/>
		<path class="st1" d="M408.1,19.6c0.1,0,0.2,0.1,0.2,0.5c0,0.1,0,0.3,0,0.5c0,0.7,0.5,1.1,1.2,1.1c1,0,1.5-1,1.9-1.8
			c0-0.1,0.2-0.4,0.3-0.4c0.1,0,0.2,0.1,0.2,0.6c0.1,1.1,0.7,1.7,1.5,1.7h0.3c0.7,0,1.1,0.3,1.1,1c0,0.8-0.4,1.3-1.1,1.3h-0.3
			c-1.3,0-2-0.6-2.2-1.9c-0.3,0.9-1.2,2-2.3,2c-1.1,0-1.6-0.9-1.7-1.9c-0.4,1.1-1.5,1.9-2.7,1.9c-1.2,0-2-0.4-2.3-1.6
			c-0.2,0.4-0.4,0.8-0.8,1.1c-0.4,0.3-1.1,0.5-2.1,0.5h-0.2c-0.7,0-1-0.4-1-1.2c0-0.7,0.3-1.1,1-1.1h0.3c1.6,0,2.6-0.6,3.2-1.7
			c0-0.1,0.2-0.3,0.3-0.3c0.2,0,0.2,0.2,0.2,0.5c0,0.9,0.8,1.3,1.8,1.3c1.2,0,2.1-0.5,2.8-1.7C407.9,19.8,408,19.6,408.1,19.6z
			 M408.9,14c0.2-0.2,0.2-0.2,0.3-0.1c0.5,0.5,1,1.1,1.5,1.4c0.2,0.1,0.2,0.2,0,0.3c-0.5,0.5-0.9,1-1.3,1.5c-0.1,0.1-0.2,0.1-0.3,0
			c-0.4-0.3-0.9-0.7-1.4-1.2c-0.3,0.3-0.9,1-1.1,1.2c-0.1,0.1-0.2,0.2-0.4,0c-0.5-0.3-1.1-0.9-1.5-1.4c-0.1-0.1-0.1-0.2,0-0.3
			c0.4-0.5,0.9-1,1.4-1.5c0.1-0.1,0.2-0.1,0.3,0.1c0.4,0.4,1,1,1.4,1.2C408.1,14.9,408.7,14.2,408.9,14z M409.3,10.7
			c0.1,0.1,0.1,0.1,0,0.2c-0.2,0.3-1.1,1.2-1.4,1.7c-0.1,0.1-0.1,0.1-0.2,0c-0.5-0.3-1.5-1-1.7-1.4c-0.1-0.1-0.1-0.1,0-0.2
			c0.3-0.5,0.9-1.2,1.3-1.6c0.2-0.2,0.2-0.2,0.3-0.1C407.9,9.6,408.6,10.3,409.3,10.7z"/>
		<path class="st1" d="M415.8,9.2c0.7,0,1.7,1,1.7,2.1c0,0.4-0.1,0.8-0.2,1.2c-0.3,0.8-0.9,1.3-1.8,1.3c-0.8,0-1.3-0.6-1.3-1.3
			C414.2,11.3,415.3,9.2,415.8,9.2z M415.6,10.8c-0.3,0-0.7,0.6-0.7,1c0,0.3,0.4,0.6,0.8,0.6c0.5,0,1.1-0.3,1.1-0.5
			C416.8,11.6,416.2,10.8,415.6,10.8z"/>
		<path class="st1" d="M419.2,21.8h0.1c0.6,0,0.9,0.6,0.9,1.1c0,0.6-0.3,1.1-0.9,1.1h-0.1c-0.6,0-1.2-0.1-1.8-0.5
			c-0.8-0.6-1.1-1.7-1.1-1.9c-0.1,0.7-1.1,2.4-2.6,2.4h-0.1c-0.6,0-0.9-0.6-0.9-1.1c0-0.6,0.3-1.1,0.9-1.1h0.1c1.2,0,2-0.5,2.1-0.8
			c0,0,0-0.1,0-0.1c0-0.2-0.4-2.6-0.4-2.8c0-0.1,0-0.2,0-0.3c0.1-0.4,0.4-1,0.5-1.4c0.1-0.2,0.2-0.3,0.2-0.3s0.2,0.2,0.2,0.4
			c0.3,1,0.5,3.1,0.8,3.8C417.8,21.3,418.8,21.8,419.2,21.8z M417.6,25.7c0.2-0.2,0.2-0.2,0.3-0.1c0.5,0.5,1,1.1,1.5,1.4
			c0.2,0.1,0.2,0.2,0,0.3c-0.5,0.5-0.9,1-1.3,1.5c-0.1,0.1-0.2,0.1-0.3,0c-0.4-0.3-0.9-0.7-1.4-1.2c-0.3,0.3-0.9,1-1.1,1.2
			c-0.1,0.1-0.2,0.2-0.4,0c-0.5-0.3-1.1-0.9-1.5-1.4c-0.1-0.1-0.1-0.2,0-0.3c0.4-0.5,0.9-1,1.4-1.5c0.1-0.1,0.2-0.1,0.3,0.1
			c0.4,0.4,1,1,1.4,1.2C416.9,26.6,417.4,25.9,417.6,25.7z"/>
		<path class="st1" d="M422.8,8.3c0.1-0.1,0.1,0,0.1,0.1c0,0.6-0.2,1.1-0.5,1.3l-4.1,2.3c-0.1,0-0.1,0-0.1-0.1c0-0.3,0.1-0.8,0.2-1
			c0.1-0.2,0.3-0.3,0.7-0.5L422.8,8.3z"/>
		<path class="st1" d="M422.7,14.3c0.1,0.1,0.1,0.1,0,0.2c-0.2,0.3-1.1,1.2-1.4,1.7c-0.1,0.1-0.1,0.1-0.2,0c-0.5-0.3-1.5-1-1.7-1.4
			c-0.1-0.1-0.1-0.1,0-0.2c0.3-0.5,0.9-1.2,1.3-1.6c0.2-0.2,0.2-0.2,0.3-0.1C421.2,13.2,422,13.8,422.7,14.3z"/>
		<path class="st1" d="M425.2,2.1c0.7,0,1.7,1,1.7,2.1c0,0.4-0.1,0.8-0.2,1.2c-0.3,0.8-0.9,1.3-1.8,1.3c-0.8,0-1.3-0.6-1.3-1.3
			C423.6,4.2,424.7,2.1,425.2,2.1z M425,3.7c-0.3,0-0.7,0.6-0.7,1c0,0.3,0.4,0.6,0.8,0.6c0.5,0,1.1-0.3,1.1-0.5
			C426.2,4.5,425.6,3.7,425,3.7z"/>
		<path class="st1" d="M426.1,14.7c0,0.6-0.1,1.1-0.2,1.4c-0.1,0.4-0.2,0.7-0.3,1c-0.1,0.3-0.4,0.6-0.9,1c0.9,0.2,1.8,0.5,2.8,0.8
			c1.1,0.3,2,0.6,2.6,0.7c0.6,0.2,1.4,0.2,2.4,0.3l1.7,0.1c0.2,0,0.2,0.1,0.2,0.2c-0.3,0.4-0.7,0.9-1.3,1.6
			c-0.1,0.2-0.2,0.2-0.4,0.2c-0.2,0-1.3-0.2-2.9-0.2c-0.8,0-1.5,0.1-2.3,0.3c-0.7,0.2-1.7,0.5-2.8,0.9c-1.1,0.4-2.1,0.7-2.7,0.9
			c-0.6,0.2-1.5,0.3-2.4,0.3h-0.2c-0.7,0-1-0.4-1-1.2c0-0.8,0.3-1.1,1-1.1h0.3c2.5,0,4.7-0.4,6.7-1c-0.2-0.2-0.9-0.4-2.3-0.8
			c-1.3-0.4-2.4-0.6-3.1-0.6c-0.2,0-0.2,0-0.2-0.1c0-0.3,0.4-0.8,1.3-1.6c0.1-0.1,0.2-0.2,0.3-0.2c0.2-0.1,0.5-0.2,0.9-0.3
			c0.3-0.1,0.7-0.2,1.3-0.5c0.6-0.2,0.8-0.5,0.8-0.8l-0.7-4.2c-0.1-0.4-0.3-1.3-0.4-1.7c0-0.1,0-0.2,0-0.3c0,0,0-0.1,0-0.2
			c0-0.1,0.1-0.4,0.4-0.9c0.2-0.5,0.6-1,0.8-1c0.1,0,0.1,0.1,0.2,0.2c0.3,0.9,0.6,1.4,0.8,1.8c0,0.1,0.1,0.2,0.1,0.2s0,0.1,0,0.2
			c-0.1,0.2-0.3,0.7-0.5,1C426,12.3,426.1,13.7,426.1,14.7z"/>
		<path class="st1" d="M438,24.1c-0.1,0-0.2-0.2-0.2-0.7c0-3-1.1-11.3-1.1-12.7c0-0.7,0.5-1.7,0.9-2.5c0.1-0.2,0.3-0.5,0.5-0.5
			c0.1,0,0.2,0.2,0.2,0.8c0.1,2.2,0.7,7.3,0.7,11c0,1.5-0.1,2.7-0.4,3.5C438.3,23.8,438.1,24.1,438,24.1z"/>
		<path class="st1" d="M454.4,10.2c0.1-0.1,0.1,0,0.1,0.1c0,0.6-0.2,1.1-0.5,1.3l-4.1,2.3c-0.1,0-0.1,0-0.1-0.1c0-0.3,0.1-0.8,0.2-1
			c0.1-0.2,0.3-0.3,0.7-0.5L454.4,10.2z"/>
		<path class="st1" d="M456.9,22c0-0.3,0.3-1.4,0.6-2c0.1-0.1,0.1-0.2,0.2-0.2c0.1,0,0.2,0.1,0.2,0.2c0.6,1.2,1.1,1.8,1.9,1.8h0.3
			c0.7,0,1,0.4,1,1.1c0,0.8-0.3,1.2-1,1.2h-0.3c-0.4,0-0.7,0-0.9-0.1c-0.1,1.8-0.2,2.6-0.4,3c-0.3,0.9-0.8,1.7-2.1,2.6
			c-1.2,0.9-3,1.5-5.5,1.5c-2.5,0-4.4-1.7-4.4-4.5c0-1.4,0.7-3.1,1.3-3.8c0.2-0.3,0.5-0.6,0.6-0.6c0.1,0,0.1,0.1,0.1,0.2
			c0,0.2-0.1,0.4-0.2,0.7c-0.5,0.9-0.8,1.7-0.8,2.7c0,1.9,2.3,3,3.9,3c2.7,0,5.6-1,6.4-2.5c0-0.1,0.1-0.2,0.1-0.4
			c-0.1-1.9-0.3-2.6-0.9-3.7C456.9,22.1,456.9,22.1,456.9,22z M454.5,16.9c0.1,0.1,0.1,0.1,0,0.2c-0.2,0.3-1.1,1.2-1.4,1.7
			c-0.1,0.1-0.1,0.1-0.2,0c-0.5-0.3-1.5-1-1.7-1.4c-0.1-0.1-0.1-0.1,0-0.2c0.3-0.5,0.9-1.2,1.3-1.6c0.2-0.2,0.2-0.2,0.3-0.1
			C453,15.8,453.8,16.4,454.5,16.9z"/>
		<path class="st1" d="M467.8,26.1c0.1-0.1,0.1,0,0.1,0.1c0,0.6-0.2,1.1-0.5,1.3l-4.1,2.3c-0.1,0-0.1,0-0.1-0.1c0-0.3,0.1-0.8,0.2-1
			c0.1-0.2,0.3-0.3,0.7-0.5L467.8,26.1z"/>
		<path class="st1" d="M459.9,24.1h-0.1c-0.7,0-1-0.4-1-1.2c0-0.7,0.4-1.1,1-1.1h0.1c1.2,0,2.2-0.5,2.9-1.4l1.3-2
			c0.7-1.1,1.7-1.5,2.2-1.5c1.7,0,2.4,2.9,2.4,4.1c0,1-1.1,2.4-1.6,2.4c-0.8,0-2.8-1-3.8-1.9C462.2,23.3,461.2,24.1,459.9,24.1z
			 M465.2,18.9c-0.2,0-0.3,0.1-0.5,0.3c-0.1,0.1-0.2,0.3-0.3,0.5c0.5,0.3,1.9,1,2.5,1.4C466.9,20.3,465.9,18.9,465.2,18.9z"/>
		<path class="st1" d="M483.4,10c0,0.5-0.1,1-0.3,1.5c0.2,0.1,0.4,0.3,0.4,0.4c0,0.4-0.2,0.7-0.3,1c-0.1,0.1-0.1,0.1-0.1,0.1
			l-0.5-0.3c-0.5,0.8-1.3,1.8-2.5,2.3c-0.4,0.2-0.9,0.4-1.5,0.4c-0.3,0-0.4-0.1-0.4-0.1c0-0.1,0.2-0.2,0.6-0.4
			c0.9-0.5,2.5-1.8,3.1-2.5c-0.5-0.3-1.1-0.7-1.1-1.4c0-0.4,0.2-0.9,0.6-1.3c0.4-0.5,0.8-0.8,1.2-0.8C483.2,8.8,483.4,9.4,483.4,10z
			 M481.6,10.4C481.6,10.5,481.6,10.5,481.6,10.4c0,0.2,0.4,0.5,0.8,0.7c0.1-0.2,0.1-0.4,0.1-0.7c0-0.3-0.1-0.4-0.3-0.4
			C482,10,481.8,10.2,481.6,10.4z"/>
		<path class="st1" d="M490.3,33.6c0.3,0,0.4,0.1,0.4,0.1c0,0.2-0.5,0.5-0.9,0.6c-1.5,0.6-3.9,1.6-6.4,1.6c-4.4,0-7.6-2.3-7.6-7.1
			c0-4.4,2.3-8.3,5.4-9.4c-0.8-0.2-1.5-0.2-2.1-0.2c-1.1,0-1.8,0.3-2.4,0.5c-0.5,0.2-0.6,0.2-0.7,0.2c-0.1,0-0.2,0-0.2-0.2
			c0-0.3,0.5-1.4,0.9-1.8c0.7-0.7,1.7-0.9,2.9-0.9c2.1,0,4.2,0.7,6.4,0.7c0.9,0,1.6-0.1,2.1-0.1c0.4,0,0.4,0,0.4,0.1
			c0,0.5-0.9,1.9-1.3,2c-1.4,0-2.9,0.2-4.4,0.7c-4.5,1.5-6,5.1-6,7.1c0,3.2,1.7,6.2,9.4,6.2C488.4,33.8,489.8,33.6,490.3,33.6z
			 M485.1,26.7c0.1,0.1,0.1,0.1,0,0.2c-0.2,0.3-1.1,1.2-1.4,1.7c-0.1,0.1-0.1,0.1-0.2,0c-0.5-0.3-1.5-1-1.7-1.4
			c-0.1-0.1-0.1-0.1,0-0.2c0.3-0.5,0.9-1.2,1.3-1.6c0.2-0.2,0.2-0.2,0.3-0.1C483.7,25.6,484.4,26.3,485.1,26.7z"/>
		<path class="st1" d="M494.3,13.3c0,0.5-0.1,1-0.3,1.5c0.2,0.1,0.4,0.3,0.4,0.4c0,0.4-0.2,0.7-0.3,1c-0.1,0.1-0.1,0.1-0.1,0.1
			l-0.5-0.3c-0.5,0.8-1.3,1.8-2.5,2.3c-0.4,0.2-0.9,0.4-1.5,0.4c-0.3,0-0.4-0.1-0.4-0.1c0-0.1,0.2-0.2,0.6-0.4
			c0.9-0.5,2.5-1.8,3.1-2.5c-0.5-0.3-1.1-0.7-1.1-1.4c0-0.4,0.2-0.9,0.6-1.3c0.4-0.5,0.8-0.8,1.2-0.8
			C494.1,12,494.3,12.7,494.3,13.3z M492.5,13.7C492.5,13.8,492.5,13.8,492.5,13.7c0,0.2,0.4,0.5,0.8,0.7c0.1-0.2,0.1-0.4,0.1-0.7
			c0-0.3-0.1-0.4-0.3-0.4C492.9,13.3,492.7,13.5,492.5,13.7z"/>
		<path class="st1" d="M496.1,21.8c0.7,0,1.1,0.4,1.1,1.1c0,0.8-0.4,1.2-1.1,1.2h-0.2c-0.6,0-1,0-1.3-0.1c0,0.1,0,0.2,0,0.3
			c0,0.7-0.1,1.5-0.4,2.1c-0.5,1.2-1.3,3.3-3.6,4.3c-0.4,0.2-0.8,0.3-1.2,0.3c-0.9,0-2.4-0.5-3.5-1c-0.3-0.2-0.4-0.3-0.4-0.4
			c0-0.1,0.1-0.2,0.4-0.2c0.3,0,0.8,0.1,1.3,0.1c3.1,0,6.2-2.7,6.6-5c0-0.5-1.1-1.6-1.3-1.9c0-0.1-0.1-0.2-0.1-0.3
			c0-0.5,0.4-1.5,0.6-1.8c0.1-0.2,0.2-0.2,0.3-0.2c0.2,0,0.3,0.2,0.6,0.7c0.4,0.6,0.9,0.9,1.8,0.9H496.1z"/>
		<path class="st1" d="M499.4,5.4c0.7,0,1.7,1,1.7,2.1c0,0.4-0.1,0.8-0.2,1.2c-0.3,0.8-0.9,1.3-1.8,1.3c-0.8,0-1.3-0.6-1.3-1.3
			C497.8,7.6,498.9,5.4,499.4,5.4z M499.2,7c-0.3,0-0.7,0.6-0.7,1c0,0.3,0.4,0.6,0.8,0.6c0.5,0,1.1-0.3,1.1-0.5
			C500.4,7.9,499.8,7,499.2,7z"/>
		<path class="st1" d="M501.4,12.5c0.1,0.1,0.1,0.1,0,0.2c-0.2,0.3-1.1,1.2-1.4,1.7c-0.1,0.1-0.1,0.1-0.2,0c-0.5-0.3-1.5-1-1.7-1.4
			c-0.1-0.1-0.1-0.1,0-0.2c0.3-0.5,0.9-1.2,1.3-1.6c0.2-0.2,0.2-0.2,0.3-0.1C500,11.4,500.7,12,501.4,12.5z"/>
		<path class="st1" d="M508.9,5.7c0.1-0.1,0.1,0,0.1,0.1c0,0.6-0.2,1.1-0.5,1.3l-4.1,2.3c-0.1,0-0.1,0-0.1-0.1c0-0.3,0.1-0.8,0.2-1
			c0.1-0.2,0.3-0.3,0.7-0.5L508.9,5.7z"/>
		<path class="st1" d="M510.2,24.1c0.2-0.2,0.2-0.2,0.3-0.1c0.5,0.5,1,1.1,1.5,1.4c0.2,0.1,0.2,0.2,0,0.3c-0.5,0.5-0.9,1-1.3,1.5
			c-0.1,0.1-0.2,0.1-0.3,0c-0.4-0.3-0.9-0.7-1.4-1.2c-0.3,0.3-0.9,1-1.1,1.2c-0.1,0.1-0.2,0.2-0.4,0c-0.5-0.3-1.1-0.9-1.5-1.4
			c-0.1-0.1-0.1-0.2,0-0.3c0.4-0.5,0.9-1,1.4-1.5c0.1-0.1,0.2-0.1,0.3,0.1c0.4,0.4,1,1,1.4,1.2C509.4,24.9,510,24.3,510.2,24.1z"/>
		<path class="st1" d="M507.4,15.3c-0.2,0-0.2-0.2-0.3-0.5c-0.1-0.6-0.4-1.2-0.8-1.2c-0.3,0-0.7,0.3-1.1,0.9
			c-1.1,1.7-2.3,2.8-3.3,3.5c-0.1,0,0,0.1,0.1,0.1c3.5,1.3,6.4,1.9,8.8,1.8c0.1,0,0.2,0,0.1,0.3c-0.2,0.3-0.6,0.9-1.3,1.7
			c-0.1,0.1-0.2,0.2-0.3,0.1c-0.9-0.1-1.8-0.2-2.5-0.3c-1,0-1.9,0.1-2.7,0.3c-0.7,0.2-1.7,0.5-2.8,0.9c-1.1,0.4-2.1,0.7-2.7,0.9
			c-0.6,0.2-1.5,0.3-2.5,0.3h-0.3c-0.6,0-0.9-0.4-0.9-1.2c0-0.7,0.3-1.1,0.9-1.1h0.3c2.1,0,4.3-0.3,6.6-1c0,0,0,0-0.2-0.1
			c-1.4-0.7-3.1-1.1-5.2-1.3c-0.2,0-0.1-0.1,0-0.3c0.2-0.3,0.6-0.8,1.3-1.5c0.3-0.3,1-0.7,2.2-1.1c1.9-0.8,3.9-2.1,5-4.2
			c0.3-0.6,0.9-1.1,1.4-1.1c0.8,0,1.1,1.2,1.1,1.8c0,0.6,0,0.9-0.1,1.3C507.9,14.8,507.6,15.3,507.4,15.3z"/>
		<path class="st1" d="M528.6,2.7c0.1,0.2,0.2,0.5,0.2,0.8c0,0.5-0.2,0.9-0.4,1.4c0.2,0.2,0.3,0.3,0.3,0.4c0,0.3-0.2,0.6-0.5,0.9
			l-0.5-0.4c-0.6,0.8-1.1,1.3-1.7,1.5c-0.6,0.3-1.9,0.6-2.8,0.8c-0.3,0-0.4,0-0.4-0.1c0,0,0-0.1,0.2-0.2c2.2-1.2,3.6-2.1,4.2-2.5
			c-0.4-0.3-0.8-0.7-0.8-1.3c0-0.5,0.3-0.8,0.7-1.2c0.4-0.4,0.8-0.6,1.1-0.6C528.3,2.3,528.4,2.4,528.6,2.7z M524.4,3
			c0.9-1.6,2.8-3,4.7-3c1,0,2.6,0.4,2.6,1.3c0,1.1-1.4,2.7-2.4,3.4c0,0,0,0-0.1,0c-0.1,0-0.2-0.2-0.2-0.3c0,0,0,0,0-0.1
			c0.9-0.8,1.4-1.3,1.4-1.9c-0.2-0.7-1.2-1.1-1.9-1.1c-1.5,0-3.7,1.3-3.8,3c0,0.2,0.2,0.5,0.7,0.9c0,0,0,0,0,0.1
			c-0.2,0.2-0.4,0.6-1,0.9c0,0-0.1,0.1-0.1,0.1c-0.1,0-0.7-0.4-0.7-1C523.6,4.7,524,3.7,524.4,3z M527,3.8c0.1,0.2,0.3,0.4,0.7,0.6
			c0.1-0.1,0.2-0.3,0.2-0.6c0-0.3-0.1-0.4-0.3-0.4C527.4,3.4,527.1,3.6,527,3.8z"/>
		<path class="st1" d="M523.1,29.1c2.4,0,5.7-1.7,5.7-2.9c-0.2-2-0.3-3.2-0.5-4.9c-0.4-3.1-0.7-5.5-1.1-9.6c-0.1-0.5-0.1-0.7-0.1-1
			c0-0.2,0-0.4,0.1-0.6c0.2-0.5,0.8-1.8,1.1-1.8c0.1,0,0.1,0.1,0.2,0.3c0.1,0.9,0.1,1.5,0.2,3.2c0.2,1.8,0.4,4.3,0.7,6.8
			c0.3,2,1.4,3.2,2.7,3.2h0.3c0.7,0,1,0.4,1,1.1c0,0.8-0.3,1.2-1,1.2h-0.3c-0.9-0.1-1.8-0.6-2.2-1.5c0.1,1,0.1,1.7,0.1,2.2
			c0,2-0.4,2.7-0.9,3.5c-0.5,0.7-2.5,3-6.2,3c-3.9,0-5-2.1-5-4.1c0-1.4,0.5-3,1.1-4.2c0.3-0.6,0.6-0.8,0.8-0.8
			c0.1,0,0.1,0.1,0.1,0.2c0,0.2-0.1,0.4-0.3,0.8c-0.3,0.7-0.7,1.7-0.7,2.5C518.7,28.2,521,29.1,523.1,29.1z"/>
		<path class="st1" d="M536.8,20.5c0,0.6,0.6,1.2,1.4,1.4c0.2,0,0.3,0,0.5,0h0.1c0.9,0,0.9,0.7,0.9,1c0,0.3,0,1.3-0.8,1.3h-0.2
			c-0.2,0-0.3,0-0.6,0c-1.5-0.2-2.1-1.5-2.2-1.7c-0.2,0.6-1.5,1.7-3.7,1.7h-0.1c-0.6,0-1-0.6-1-1.1c0-0.6,0.3-1.1,1-1.1h0.7
			c1,0,2.4-0.2,3.3-1.6c0.3-0.5,0.4-0.5,0.5-0.5C536.7,19.7,536.8,19.9,536.8,20.5z M536.6,27.2c0.2-0.2,0.2-0.2,0.3-0.1
			c0.5,0.5,1,1.1,1.5,1.4c0.2,0.1,0.2,0.2,0,0.3c-0.5,0.5-0.9,1-1.3,1.5c-0.1,0.1-0.2,0.1-0.3,0c-0.4-0.3-0.9-0.7-1.4-1.2
			c-0.3,0.3-0.9,1-1.1,1.2c-0.1,0.1-0.2,0.2-0.4,0c-0.5-0.3-1.1-0.9-1.5-1.4c-0.1-0.1-0.1-0.2,0-0.3c0.4-0.5,0.9-1,1.4-1.5
			c0.1-0.1,0.2-0.1,0.3,0.1c0.4,0.4,1,1,1.4,1.2C535.8,28.1,536.4,27.4,536.6,27.2z"/>
		<path class="st1" d="M552.4,9.8c0.1-0.1,0.1,0,0.1,0.1c0,0.6-0.2,1.1-0.5,1.3l-4.1,2.3c-0.1,0-0.1,0-0.1-0.1c0-0.3,0.1-0.8,0.2-1
			c0.1-0.2,0.3-0.3,0.7-0.5L552.4,9.8z"/>
		<path class="st1" d="M552.3,24.6c0.1,0.1,0.1,0.1,0,0.2c-0.2,0.3-1.1,1.2-1.4,1.7c-0.1,0.1-0.1,0.1-0.2,0c-0.5-0.3-1.5-1-1.7-1.4
			c-0.1-0.1-0.1-0.1,0-0.2c0.3-0.5,0.9-1.2,1.3-1.6c0.2-0.2,0.2-0.2,0.3-0.1C550.9,23.5,551.6,24.2,552.3,24.6z"/>
		<path class="st1" d="M543.9,17c-0.4,0.1-0.5,0.1-0.6,0.1c-0.1,0-0.2-0.1-0.2-0.2c0-0.1,0-0.2,0.1-0.3c0.3-0.5,0.7-1.1,1.4-1.5
			c0.4-0.3,0.8-0.4,1.2-0.4c0.3,0,0.6,0,1.1,0.2c1.5,0.7,3.7,2,5.5,2.7c1.5,0.5,3,0.9,3.8,1c0.1,0,0.1,0,0.1,0.1
			c0,0.2-0.2,0.5-0.5,0.9c-0.2,0.2-0.4,0.4-0.6,0.7c-0.2,0.2-0.3,0.3-0.4,0.3h0c-1.6-0.5-3-0.7-4.3-0.8c-0.3,0-0.6,0-0.9,0
			c-1,0-2.1,0-3.4,0.2c0.3,0.3,0.5,0.8,0.5,1.7c0,0.4-0.2,0.9-0.5,1.5c-0.4,0.6-0.7,0.9-1.1,0.9c-0.5,0-1-0.2-1.6-0.5
			c-0.6-0.3-1.1-0.7-1.5-1.3c-0.6,1.2-1.5,1.8-2.8,1.8h-0.3c-0.6,0-0.9-0.4-0.9-1.2c0-0.7,0.3-1.1,0.9-1.1h0.3c1,0,1.7-0.1,2.2-0.4
			s0.9-0.6,1.2-1.1c0.3-0.5,0.6-0.9,0.9-1.2c0.3-0.3,1-0.5,2-0.7c0.7-0.1,1.4-0.2,2.1-0.2c0.4,0,0.9,0,1.3,0.1
			c-1.4-0.8-2.4-1.2-3-1.3c-0.4-0.1-0.7-0.1-1-0.1C544.3,16.9,544.1,17,543.9,17z M543.9,21.5c0.5,0.3,0.9,0.4,1.2,0.4
			c-0.1-0.5-0.2-0.8-0.5-1.1c-0.2-0.3-0.7-0.5-1.1-0.5c-0.4,0-0.6,0.1-0.7,0.4C543.1,20.9,543.4,21.2,543.9,21.5z"/>
		<path class="st1" d="M573.8,6.1c0.1,0.2,0.2,0.5,0.2,0.8c0,0.5-0.2,0.9-0.4,1.4c0.2,0.2,0.3,0.3,0.3,0.4c0,0.3-0.2,0.6-0.5,0.9
			l-0.5-0.4c-0.6,0.8-1.1,1.3-1.7,1.5s-1.9,0.6-2.8,0.8c-0.3,0-0.4,0-0.4-0.1c0,0,0-0.1,0.2-0.2c2.2-1.2,3.6-2.1,4.2-2.5
			c-0.4-0.3-0.8-0.7-0.8-1.3c0-0.5,0.3-0.8,0.7-1.2c0.4-0.4,0.8-0.6,1.1-0.6C573.5,5.8,573.7,5.8,573.8,6.1z M569.7,6.4
			c0.9-1.6,2.8-3,4.7-3c1,0,2.6,0.4,2.6,1.3c0,1.1-1.4,2.7-2.4,3.4c0,0,0,0-0.1,0c-0.1,0-0.2-0.2-0.2-0.3c0,0,0,0,0-0.1
			c0.9-0.8,1.4-1.3,1.4-1.9c-0.2-0.7-1.2-1.1-1.9-1.1c-1.5,0-3.7,1.3-3.8,3c0,0.2,0.2,0.5,0.7,0.9c0,0,0,0,0,0.1
			c-0.2,0.2-0.4,0.6-1,0.9c0,0-0.1,0.1-0.1,0.1c-0.1,0-0.7-0.4-0.7-1C568.9,8.1,569.3,7.1,569.7,6.4z M572.3,7.2
			c0.1,0.2,0.3,0.4,0.7,0.6c0.1-0.1,0.2-0.3,0.2-0.6c0-0.3-0.1-0.4-0.3-0.4C572.7,6.8,572.4,7,572.3,7.2z"/>
		<path class="st1" d="M565.8,23.4c-1.4-0.6-2.2-1.4-2.2-3.1c0-1.2,0.5-2.4,0.8-3c0.2-0.3,0.4-0.6,0.6-0.6c0.1,0,0.1,0.1,0.1,0.2
			c0,0.1-0.1,0.4-0.2,0.6c-0.2,0.5-0.4,1-0.4,1.6c0,0.5,0.4,1.4,1.8,2.1c1,0.4,2.5,0.7,4.6,0.7c4.7,0,9.9-1.4,10-2
			c0-0.1,0-0.3,0-0.4c0-1-0.8-2.1-1.1-2.6c0,0,0,0,0-0.1c0-0.3,0.7-1.9,1-1.9c0.3,0,1.2,1.6,1.2,3.5c0,1.6-0.5,2.7-0.8,3.2
			c-0.6,0.8-5.9,2.5-10.6,2.5C568.6,24.2,566.9,23.9,565.8,23.4z M574.2,12.4c0.2-0.2,0.2-0.2,0.3-0.1c0.5,0.5,1,1.1,1.5,1.4
			c0.2,0.1,0.2,0.2,0,0.3c-0.5,0.5-0.9,1-1.3,1.5c-0.1,0.1-0.2,0.1-0.3,0c-0.4-0.3-0.9-0.7-1.4-1.2c-0.3,0.3-0.9,1-1.1,1.2
			c-0.1,0.1-0.2,0.2-0.4,0c-0.5-0.3-1.1-0.9-1.5-1.4c-0.1-0.1-0.1-0.2,0-0.3c0.4-0.5,0.9-1,1.4-1.5c0.1-0.1,0.2-0.1,0.3,0.1
			c0.4,0.4,1,1,1.4,1.2C573.4,13.3,573.9,12.6,574.2,12.4z"/>
		<path class="st1" d="M587.3,11.2c0.7,0,1.7,1,1.7,2.1c0,0.4-0.1,0.8-0.2,1.2c-0.3,0.8-0.9,1.3-1.8,1.3c-0.8,0-1.3-0.6-1.3-1.3
			C585.6,13.4,586.8,11.2,587.3,11.2z M587.1,12.8c-0.3,0-0.7,0.6-0.7,1c0,0.3,0.4,0.6,0.8,0.6c0.5,0,1.1-0.3,1.1-0.5
			C588.3,13.7,587.6,12.8,587.1,12.8z"/>
		<path class="st1" d="M581.6,30.1c-0.3-0.2-0.4-0.3-0.4-0.4c0-0.1,0.2-0.2,0.4-0.2c0.3,0,1.1,0.2,1.8,0.2c0.6,0,1.2-0.2,2.1-0.6
			c2.4-1.2,3.9-3,3.9-4.2c0-0.2,0-0.3-0.1-0.7h-0.7c-0.5,0-1.5-0.1-2.2-0.5c-0.7-0.4-1-0.9-1-1.5c0-0.6,0.3-1.4,0.6-2.2
			c0.6-1.3,1.2-2.2,1.9-2.2c0.7,0,1.3,0.5,1.8,1.1c0.5,0.7,0.7,1.8,0.7,2.8h1c0.6,0,0.9,0.3,0.9,1c0,0.8-0.3,1.2-0.9,1.2l-1.1,0.1
			c-0.2,3.5-1.3,5.8-4.1,6.9c-0.2,0.1-0.4,0.1-0.6,0.1C584.6,31.1,583,30.7,581.6,30.1z M587.8,20.4c-0.1-0.1-0.3-0.2-0.6-0.2
			c-0.5,0-0.8,0.5-0.8,0.8c0,0.2,0.2,0.5,0.8,0.7c0.4,0.2,0.9,0.2,1.1,0.2c0.2,0,0.2,0,0.2-0.1C588.7,21.5,588.3,20.8,587.8,20.4z"
			/>
		<path class="st1" d="M599.4,11.2c0.1-0.1,0.1,0,0.1,0.1c0,0.6-0.2,1.1-0.5,1.3l-4.1,2.3c-0.1,0-0.1,0-0.1-0.1c0-0.3,0.1-0.8,0.2-1
			c0.1-0.2,0.3-0.3,0.7-0.5L599.4,11.2z"/>
		<path class="st1" d="M595.5,25.3c-0.1,0-0.1-0.1-0.1-0.2c0-0.1,0-0.2,0.1-0.3c0.1-0.3,0.3-0.7,0.5-1.1c-1-0.4-1.7-1-2-1.9
			c-0.8,1.5-1.6,2.3-2.6,2.3H591c-0.7,0-1-0.4-1-1.1c0-0.8,0.3-1.1,1-1.1h0.2c1.3,0,2.2-0.8,2.8-2.3c0.3-0.6,0.5-0.9,0.6-0.9
			c0.2,0,0.3,0.2,0.3,0.7c0,0.8,0.5,1.9,2.3,2.3c2-2.5,5.6-5.5,7.2-5.5c0.6,0,1.3,0.2,1.9,0.6c0.7,0.5,0.9,1,0.9,1.5
			c0,0.8-0.4,2.2-1.1,3.1c-0.8,0.9-2.6,1.8-4.5,2.2c-1.1,0.3-2.3,0.4-3.3,0.4c-0.7,0-1.3-0.1-1.8-0.2c-0.2,0.3-0.4,0.7-0.6,1
			C595.9,25.1,595.7,25.3,595.5,25.3z M605.9,20c0-0.6-1.6-1.5-2.5-1.5c-1.5,0-3.9,1.8-5.3,3.3c0.2,0,0.4,0,0.7,0
			C601.6,21.8,605.1,20.6,605.9,20C605.9,20,605.9,20,605.9,20z"/>
		<path class="st1" d="M622,12.3c0.1-0.1,0.1,0,0.1,0.1c0,0.6-0.2,1.1-0.5,1.3l-4.1,2.3c-0.1,0-0.1,0-0.1-0.1c0-0.3,0.1-0.8,0.2-1
			c0.1-0.2,0.3-0.3,0.7-0.5L622,12.3z"/>
		<path class="st1" d="M614.3,30.1c-0.3-0.2-0.4-0.3-0.4-0.4c0-0.1,0.2-0.2,0.4-0.2c0.3,0,1.1,0.2,1.8,0.2c0.6,0,1.2-0.2,2.1-0.6
			c2.4-1.2,3.9-3,3.9-4.2c0-0.2,0-0.3-0.1-0.7h-0.7c-0.5,0-1.5-0.1-2.2-0.5c-0.7-0.4-1-0.9-1-1.5c0-0.6,0.3-1.4,0.6-2.2
			c0.6-1.3,1.2-2.2,1.9-2.2c0.7,0,1.3,0.5,1.8,1.1c0.5,0.7,0.7,1.8,0.7,2.8h1c0.6,0,0.9,0.3,0.9,1c0,0.8-0.3,1.2-0.9,1.2l-1.1,0.1
			c-0.2,3.5-1.3,5.8-4.1,6.9c-0.2,0.1-0.4,0.1-0.6,0.1C617.3,31.1,615.6,30.7,614.3,30.1z M620.5,20.4c-0.1-0.1-0.3-0.2-0.6-0.2
			c-0.5,0-0.8,0.5-0.8,0.8c0,0.2,0.2,0.5,0.8,0.7c0.4,0.2,0.9,0.2,1.1,0.2c0.2,0,0.2,0,0.2-0.1C621.4,21.5,620.9,20.8,620.5,20.4z"
			/>
		<path class="st1" d="M629.5,6.6c0,0.5-0.1,1-0.3,1.5c0.2,0.1,0.4,0.3,0.4,0.4c0,0.4-0.2,0.7-0.3,1c-0.1,0.1-0.1,0.1-0.1,0.1
			l-0.5-0.3c-0.5,0.8-1.3,1.8-2.5,2.3c-0.4,0.2-0.9,0.4-1.5,0.4c-0.3,0-0.4-0.1-0.4-0.1c0-0.1,0.2-0.2,0.6-0.4
			c0.9-0.5,2.5-1.8,3.1-2.5c-0.5-0.3-1.1-0.7-1.1-1.4c0-0.4,0.2-0.9,0.6-1.3c0.4-0.5,0.8-0.8,1.2-0.8C629.3,5.3,629.5,6,629.5,6.6z
			 M627.7,7C627.7,7.1,627.7,7.1,627.7,7c0,0.2,0.4,0.5,0.8,0.7c0.1-0.2,0.1-0.4,0.1-0.7c0-0.3-0.1-0.4-0.3-0.4
			C628.1,6.6,627.9,6.8,627.7,7z"/>
		<path class="st1" d="M633.9,20.6c0,1.6-0.8,2.6-1.7,2.6c-0.3,0-1-0.1-1.6-0.3c-0.8-0.2-1.5-0.5-2.4-0.6c-1.7,1.2-3.1,1.9-4.4,1.9
			h-0.2c-0.7,0-1-0.4-1-1.1c0-0.8,0.3-1.1,1-1.1h0.2c0.6,0,1.3-0.2,2.2-0.5c-0.2-0.3-0.3-0.7-0.3-1.2c0-1.2,0.6-2.7,1.1-3.4
			c-0.1-0.1-0.2-0.4-0.2-0.6c0-0.3,0.1-1.1,0.4-1.6c0.1-0.3,0.3-0.5,0.6-0.5C629.3,14,633.8,17.3,633.9,20.6z M629.7,19.2
			c0-0.9-1.2-1.9-1.5-1.9c-0.2,0-0.5,0.2-0.9,0.5c-0.4,0.4-0.7,0.8-0.7,1c0.1,1,1,1.2,1.7,1.3C628.5,20.1,629.7,19.5,629.7,19.2z
			 M633.1,21.4C633.1,21.4,633.1,21.4,633.1,21.4c-0.1-1.1-1.2-2.6-2.6-3.3c0,1.4-0.7,2.3-0.7,2.3C631.2,20.8,632.2,21.4,633.1,21.4
			z"/>
	</g>
	<g>
		<g>
			<circle class="st2" cx="775.5" cy="19.3" r="9.1"/>
		</g>
		<g>
			<linearGradient id="SVGID_1_" gradientUnits="userSpaceOnUse" x1="775.5396" y1="28.4795" x2="775.5396" y2="15.7402">
				<stop  offset="0" style="stop-color:#BF780A;stop-opacity:0"/>
				<stop  offset="0.1413" style="stop-color:#BF780A;stop-opacity:0.1413"/>
				<stop  offset="1" style="stop-color:#BF780A"/>
			</linearGradient>
			<path class="st3" d="M775.5,21.6c-4.8,0-8.8-1.1-9.1-5.9c0,0.2,0,3.4,0,3.6c0,5,4.1,9.1,9.1,9.1c5.1,0,9.1-4.1,9.1-9.1
				c0-0.2,0-3.4,0-3.6C784.3,20.5,780.4,21.6,775.5,21.6z"/>
		</g>
		<g>
			<ellipse class="st4" cx="775.5" cy="15.2" rx="6.6" ry="4.7"/>
		</g>
		<ellipse class="st5" cx="775.3" cy="11.3" rx="1.3" ry="0.8"/>
		<g>
			<circle class="st6" cx="775.5" cy="19.4" r="5.6"/>
			<circle class="st6" cx="775.5" cy="18.2" r="5.6"/>
			<linearGradient id="SVGID_2_" gradientUnits="userSpaceOnUse" x1="775.5391" y1="23.79" x2="775.5391" y2="12.6738">
				<stop  offset="0" style="stop-color:#509B7E"/>
				<stop  offset="0.2754" style="stop-color:#2F7F7A"/>
				<stop  offset="0.5528" style="stop-color:#156A77"/>
				<stop  offset="0.8029" style="stop-color:#055D76"/>
				<stop  offset="1" style="stop-color:#005875"/>
			</linearGradient>
			<circle class="st7" cx="775.5" cy="18.2" r="5.6"/>
			<linearGradient id="SVGID_3_" gradientUnits="userSpaceOnUse" x1="775.5391" y1="19.2125" x2="775.5391" y2="13.6544">
				<stop  offset="0" style="stop-color:#FFCC8B;stop-opacity:0"/>
				<stop  offset="1" style="stop-color:#FFCC8B"/>
			</linearGradient>
			<circle class="st8" cx="775.5" cy="16.4" r="2.8"/>
			<linearGradient id="SVGID_4_" gradientUnits="userSpaceOnUse" x1="775.5391" y1="19.2125" x2="775.5391" y2="13.6544">
				<stop  offset="0" style="stop-color:#FFCC8B;stop-opacity:0"/>
				<stop  offset="1" style="stop-color:#FFCC8B"/>
			</linearGradient>
			<circle class="st9" cx="775.5" cy="16.4" r="2.8"/>
		</g>
		<ellipse class="st1" cx="775.4" cy="14.9" rx="1.2" ry="0.8"/>
	</g>
</g>
</svg>
