<?xml version="1.0" encoding="utf-8"?>
<!-- Generator: Adobe Illustrator 19.2.0, SVG Export Plug-In . SVG Version: 6.00 Build 0)  -->
<svg version="1.1" id="Layer_1" xmlns="http://www.w3.org/2000/svg" xmlns:xlink="http://www.w3.org/1999/xlink" x="0px" y="0px"
	 viewBox="0 0 622.3 36.6" style="enable-background:new 0 0 622.3 36.6;" xml:space="preserve">
<style type="text/css">
	.st0{fill:#F9A326;}
	.st1{fill:#FFFFFF;}
</style>
<g>
	<path class="st0" d="M1.8,24.7C0.6,23.7,0,22.1,0,20.4c0-1.9,1.1-4.1,1.8-5.1c0.3-0.4,0.5-0.5,0.6-0.5c0.1,0,0.2,0.1,0.2,0.2
		c0,0.2-0.1,0.4-0.2,0.7c-0.6,1.1-1.1,2.3-1.1,3.7c0,1.1,0.8,2.1,1.7,2.7c1.1,0.7,2.2,1,3.5,1c3.1,0,7.3-1.3,8.2-3.5
		c0-0.2,0-0.4,0-0.6c0-1.4-0.4-2.9-1.1-4c-0.3-0.5-0.5-0.8-0.6-1.1c0-0.1,0-0.1,0-0.2c0-0.2,0.1-0.6,0.2-1c0.2-0.5,0.4-1,0.5-1.4
		c0.1-0.2,0.2-0.3,0.3-0.3c0.1,0,0.1,0.1,0.3,0.4c0.9,1.9,1.6,3.7,1.6,6c-0.1,1.8-0.2,2.9-0.4,3.5c-0.5,1.1-0.8,1.7-1.4,2.3
		c-0.6,0.6-1.8,1.5-3.2,2.1c-1.4,0.6-3.1,0.9-5.3,0.9C4.2,26.1,2.8,25.8,1.8,24.7z M10.2,6.9c0.1,0.1,0.1,0.1,0,0.2
		C9.8,7.6,8.8,8.8,8.3,9.3C8.2,9.5,8.2,9.5,8,9.4C7.4,9,6.1,8,5.8,7.5c-0.1-0.1-0.1-0.2,0-0.3c0.4-0.7,1.2-1.5,1.7-2
		C7.7,4.9,7.8,4.9,7.8,5C8.3,5.5,9.3,6.4,10.2,6.9z"/>
	<path class="st0" d="M21.1,23.8c-0.1,0-0.2-0.2-0.2-0.9c0-3.9-1.4-14.6-1.4-16.4c0-0.9,0.6-2.2,1.1-3.2c0.2-0.3,0.4-0.7,0.6-0.7
		c0.2,0,0.2,0.2,0.2,1c0.1,2.8,0.9,9.4,0.9,14.1c0,1.9-0.1,3.5-0.5,4.4C21.5,23.3,21.3,23.8,21.1,23.8z"/>
	<path class="st0" d="M21.6,31.5c-0.4-0.2-0.5-0.4-0.5-0.5c0-0.1,0.2-0.2,0.5-0.2c0.3,0,1.4,0.2,2.3,0.2c0.8,0,1.5-0.2,2.7-0.8
		c3.1-1.6,5-3.8,5-5.4c0-0.2,0-0.4-0.1-0.8h-0.9c-0.7,0-1.9-0.1-2.8-0.6c-0.9-0.5-1.2-1.2-1.2-2c0-0.7,0.3-1.9,0.8-2.8
		c0.7-1.6,1.6-2.8,2.4-2.8c0.9,0,1.7,0.6,2.3,1.5c0.6,0.9,0.9,2.4,0.9,3.6h1.2c0.8,0,1.2,0.4,1.2,1.3c0,1.1-0.4,1.6-1.2,1.6
		l-1.4,0.1c-0.2,4.5-1.7,7.4-5.3,8.8c-0.2,0.1-0.5,0.1-0.8,0.1C25.5,32.8,23.4,32.3,21.6,31.5z M29.7,19.1c-0.2-0.1-0.4-0.3-0.7-0.3
		c-0.6,0-1,0.7-1,1c0,0.3,0.3,0.6,1,0.9c0.5,0.2,1.1,0.3,1.5,0.3c0.2,0,0.3,0,0.3-0.1C30.8,20.5,30.2,19.5,29.7,19.1z"/>
	<path class="st0" d="M41.2,17.1c0,1.5-0.5,3.7-1.2,4.8c-0.3,0.4-1.2,0.9-1.8,1.1c-1.8,0.5-3.2,0.8-4.3,0.8h-0.3
		c-0.8,0-1.2-0.5-1.2-1.5c0-0.9,0.4-1.4,1.2-1.4H34c1.7,0,3.6-0.3,4.7-0.6c1-0.3,1.1-0.4,1.1-1.4c0-0.6-0.2-1.1-0.4-1.7
		c-0.3,0.7-1.2,1.3-2.3,1.3c-1.4,0-2.3-0.8-2.3-2.5c0-2.3,1.7-5.3,2.6-5.3C39.8,10.6,41.2,15,41.2,17.1z M39.4,3.6
		c0.2-0.2,0.3-0.3,0.4-0.1c0.6,0.7,1.3,1.4,2,1.8c0.2,0.1,0.2,0.2,0,0.4c-0.6,0.6-1.2,1.3-1.7,2c-0.1,0.2-0.2,0.2-0.4,0
		c-0.5-0.4-1.2-0.9-1.8-1.6c-0.4,0.4-1.1,1.3-1.5,1.5c-0.2,0.1-0.2,0.2-0.5,0.1c-0.7-0.4-1.5-1.1-2-1.8c-0.1-0.2-0.1-0.2,0-0.4
		c0.5-0.6,1.1-1.3,1.8-2c0.1-0.1,0.2-0.1,0.4,0.1c0.5,0.5,1.3,1.3,1.8,1.6C38.4,4.7,39.1,3.9,39.4,3.6z M38,13.9
		c-0.3-0.2-0.7-0.4-0.9-0.4c-0.2,0-0.5,0.2-0.7,0.6c-0.2,0.3-0.2,0.5-0.2,0.7c0,0.6,0.6,0.8,1.3,0.8c0.6,0,1.2-0.2,1.2-0.6
		C38.6,14.8,38.4,14.2,38,13.9z"/>
	<path class="st0" d="M55.7,22.2c0.3,0.4,0.4,0.8,0.4,1.4c0,0.6-0.3,1.1-0.7,1.5c-0.4,0.3-0.8,0.4-1.2,0.4c-0.8,0-1.5-0.6-2-1.5
		c-0.4-0.9-0.6-1.7-0.6-2.6c0-1,0.2-2,0.6-2.9c0.4-0.9,0.8-1.6,1.3-2.2c0.5-0.6,0.8-0.8,1-0.8c0.3,0,0.1,0.5-0.3,1
		c-1.1,1.4-1.4,2.6-1.4,4.1c0.1,0.7,0.1,0.9,0.3,1.3c0.4-0.2,0.8-0.2,1.1-0.2C54.9,21.6,55.4,21.8,55.7,22.2z"/>
	<path class="st0" d="M68.5,24.7c-1.2-1.1-1.8-2.7-1.8-4.3c0-1.9,1.1-4.1,1.8-5.1c0.3-0.4,0.5-0.5,0.6-0.5c0.1,0,0.2,0.1,0.2,0.2
		c0,0.2-0.1,0.4-0.2,0.7C68.6,16.7,68,18,68,19.3c0,1.1,0.8,2.1,1.7,2.7c1.1,0.7,2.2,1,3.5,1c3.1,0,7.3-1.3,8.2-3.5
		c0-0.2,0-0.4,0-0.6c0-1.4-0.4-2.9-1.1-4c-0.3-0.5-0.5-0.8-0.6-1.1c0-0.1,0-0.1,0-0.2c0-0.2,0.1-0.6,0.2-1c0.2-0.5,0.4-1,0.5-1.4
		c0.1-0.2,0.2-0.3,0.3-0.3c0.1,0,0.1,0.1,0.3,0.4c0.9,1.9,1.6,3.7,1.6,6c-0.1,1.8-0.2,2.9-0.4,3.5c-0.5,1.1-0.8,1.7-1.4,2.3
		c-0.6,0.6-1.8,1.5-3.2,2.1c-1.4,0.6-3.1,0.9-5.3,0.9C70.9,26.1,69.6,25.8,68.5,24.7z M76.9,6.9C77,7,77,7.1,76.9,7.2
		c-0.3,0.4-1.4,1.6-1.8,2.1c-0.1,0.1-0.2,0.1-0.3,0C74.2,9,72.9,8,72.5,7.5c-0.1-0.1-0.1-0.2,0-0.3c0.4-0.7,1.2-1.5,1.7-2
		c0.2-0.2,0.3-0.3,0.4-0.2C75.1,5.5,76,6.4,76.9,6.9z"/>
	<path class="st0" d="M90.5,23.8c-0.8,0-1.6-0.1-2.2-0.6c-0.9-0.8-1.4-2.2-1.7-4c-0.2-1.4-0.3-3-0.4-4.8c-0.1-2.6-0.3-6.6-0.7-8.9
		c0-0.1,0-0.2,0-0.3c0-0.1,0-0.2,0.2-0.5c0.4-0.6,0.7-1,0.9-1.5c0.2-0.4,0.3-0.4,0.4-0.4c0.1,0,0.2,0.2,0.4,0.8
		c0.6,4.5,0.1,10.8,0.8,14.3c0.2,0.9,0.3,1.2,0.5,1.7c0.3,0.8,0.9,1.2,1.8,1.2c1,0,1.5,0.5,1.5,1.4c0,1.2-0.5,1.5-1.4,1.5H90.5z"/>
	<path class="st0" d="M96.8,19.1c0,0.7,0.8,1.6,1.7,1.7c0.2,0,0.4,0,0.6,0h0.2c1.1,0,1.1,0.9,1.1,1.3c0,0.4,0,1.6-1.1,1.6h-0.2
		c-0.2,0-0.4,0-0.7,0c-2-0.2-2.7-1.9-2.8-2.1c-0.3,0.8-1.9,2.2-4.7,2.2h-0.1c-0.8,0-1.2-0.7-1.2-1.5s0.4-1.5,1.2-1.5h0.9
		c1.3,0,3.1-0.2,4.2-2.1c0.3-0.6,0.5-0.7,0.6-0.7C96.6,18.2,96.8,18.4,96.8,19.1z M96.6,27.8c0.2-0.2,0.3-0.3,0.4-0.1
		c0.6,0.7,1.3,1.4,2,1.8c0.2,0.1,0.2,0.2,0,0.4c-0.6,0.6-1.2,1.3-1.7,2c-0.1,0.2-0.2,0.2-0.4,0c-0.5-0.4-1.2-0.9-1.8-1.6
		c-0.4,0.4-1.1,1.3-1.5,1.5c-0.2,0.1-0.2,0.2-0.5,0.1c-0.7-0.4-1.5-1.1-2-1.8c-0.1-0.2-0.1-0.2,0-0.4c0.5-0.6,1.1-1.3,1.8-2
		c0.1-0.1,0.2-0.1,0.4,0.1c0.5,0.5,1.3,1.3,1.8,1.6C95.5,28.9,96.2,28.1,96.6,27.8z"/>
	<path class="st0" d="M104.2,22c-0.6,0.8-1.5,1.5-3.3,1.7c-0.5,0.1-1.2,0.1-1.8,0.1c-0.8,0-1.2-0.7-1.2-1.5s0.4-1.5,1.2-1.5h0.7
		c1.3,0,3.4-0.1,4.1-0.8c-0.1-1.2-1-2.6-1.4-3.1c0,0,0-0.1,0-0.1c0-0.5,0.9-2.3,0.9-2.4c0-0.1,0.1-0.2,0.2-0.2
		c0.4,0,1.5,2.1,1.5,4.5C105,19.9,104.9,21.1,104.2,22z M105.7,27c0.1,0.1,0.1,0.1,0,0.2c-0.3,0.4-1.4,1.6-1.8,2.1
		c-0.1,0.1-0.2,0.1-0.3,0c-0.6-0.4-1.9-1.3-2.2-1.9c-0.1-0.1-0.1-0.2,0-0.3c0.4-0.7,1.2-1.5,1.7-2c0.2-0.2,0.3-0.3,0.4-0.2
		C103.9,25.6,104.8,26.5,105.7,27z"/>
	<path class="st0" d="M119.6,22.2c0.3,0.4,0.4,0.8,0.4,1.4c0,0.6-0.3,1.1-0.7,1.5c-0.4,0.3-0.8,0.4-1.2,0.4c-0.8,0-1.5-0.6-2-1.5
		c-0.4-0.9-0.6-1.7-0.6-2.6c0-1,0.2-2,0.6-2.9c0.4-0.9,0.8-1.6,1.3-2.2c0.5-0.6,0.8-0.8,1-0.8c0.3,0,0.1,0.5-0.3,1
		c-1.1,1.4-1.4,2.6-1.4,4.1c0.1,0.7,0.1,0.9,0.3,1.3c0.4-0.2,0.8-0.2,1.1-0.2C118.8,21.6,119.3,21.8,119.6,22.2z"/>
	<path class="st0" d="M132.4,24.7c-1.2-1.1-1.8-2.7-1.8-4.3c0-1.9,1.1-4.1,1.8-5.1c0.3-0.4,0.5-0.5,0.6-0.5c0.1,0,0.2,0.1,0.2,0.2
		c0,0.2-0.1,0.4-0.2,0.7c-0.6,1.1-1.1,2.3-1.1,3.7c0,1.1,0.8,2.1,1.7,2.7c1.1,0.7,2.2,1,3.5,1c3.1,0,7.3-1.3,8.2-3.5
		c0-0.2,0-0.4,0-0.6c0-1.4-0.4-2.9-1.1-4c-0.3-0.5-0.5-0.8-0.6-1.1c0-0.1,0-0.1,0-0.2c0-0.2,0.1-0.6,0.2-1c0.2-0.5,0.4-1,0.5-1.4
		c0.1-0.2,0.2-0.3,0.3-0.3c0.1,0,0.1,0.1,0.3,0.4c0.9,1.9,1.6,3.7,1.6,6c-0.1,1.8-0.2,2.9-0.4,3.5c-0.5,1.1-0.8,1.7-1.4,2.3
		c-0.6,0.6-1.8,1.5-3.2,2.1c-1.4,0.6-3.1,0.9-5.3,0.9C134.8,26.1,133.5,25.8,132.4,24.7z M140.8,6.9c0.1,0.1,0.1,0.1,0,0.2
		c-0.3,0.4-1.4,1.6-1.8,2.1c-0.1,0.1-0.2,0.1-0.3,0c-0.6-0.4-1.9-1.3-2.2-1.9c-0.1-0.1-0.1-0.2,0-0.3c0.4-0.7,1.2-1.5,1.7-2
		c0.2-0.2,0.3-0.3,0.4-0.2C139,5.5,139.9,6.4,140.8,6.9z"/>
	<path class="st0" d="M151.7,23.8c-0.1,0-0.2-0.2-0.2-0.9c0-3.9-1.4-14.6-1.4-16.4c0-0.9,0.6-2.2,1.1-3.2c0.2-0.3,0.4-0.7,0.6-0.7
		c0.2,0,0.2,0.2,0.2,1c0.1,2.8,0.9,9.4,0.9,14.1c0,1.9-0.1,3.5-0.5,4.4C152.2,23.3,152,23.8,151.7,23.8z"/>
	<path class="st0" d="M152.3,31.5c-0.4-0.2-0.5-0.4-0.5-0.5c0-0.1,0.2-0.2,0.5-0.2c0.3,0,1.4,0.2,2.3,0.2c0.8,0,1.5-0.2,2.7-0.8
		c3.1-1.6,5-3.8,5-5.4c0-0.2,0-0.4-0.1-0.8h-0.9c-0.7,0-1.9-0.1-2.8-0.6c-0.9-0.5-1.2-1.2-1.2-2c0-0.7,0.3-1.9,0.8-2.8
		c0.7-1.6,1.6-2.8,2.4-2.8c0.9,0,1.7,0.6,2.3,1.5c0.6,0.9,0.9,2.4,0.9,3.6h1.2c0.8,0,1.2,0.4,1.2,1.3c0,1.1-0.4,1.6-1.2,1.6
		l-1.4,0.1c-0.2,4.5-1.7,7.4-5.3,8.8c-0.2,0.1-0.5,0.1-0.8,0.1C156.1,32.8,154,32.3,152.3,31.5z M160.3,19.1
		c-0.2-0.1-0.4-0.3-0.7-0.3c-0.6,0-1,0.7-1,1c0,0.3,0.3,0.6,1,0.9c0.5,0.2,1.1,0.3,1.5,0.3c0.2,0,0.3,0,0.3-0.1
		C161.4,20.5,160.9,19.5,160.3,19.1z"/>
	<path class="st0" d="M170.2,25.4c-0.1,0-0.2-0.1-0.2-0.3c0-0.1,0-0.3,0.1-0.4c0.1-0.4,0.3-0.9,0.6-1.4c-1.3-0.5-2.2-1.3-2.6-2.5
		c-1,2-2.1,2.9-3.4,2.9h-0.3c-0.8,0-1.3-0.5-1.3-1.5c0-1,0.4-1.5,1.3-1.5h0.3c1.6,0,2.8-1,3.6-3c0.3-0.8,0.6-1.2,0.8-1.2
		c0.3,0,0.4,0.3,0.4,0.9c0,1,0.6,2.5,2.9,2.9c2.5-3.2,7.2-7,9.2-7c0.7,0,1.7,0.3,2.5,0.8c0.9,0.6,1.2,1.3,1.2,1.9c0,1-0.5,2.8-1.4,4
		c-1,1.2-3.3,2.3-5.8,2.8c-1.5,0.4-3,0.5-4.2,0.5c-0.9,0-1.7-0.1-2.3-0.2c-0.3,0.4-0.5,0.9-0.7,1.2C170.6,25,170.4,25.4,170.2,25.4z
		 M183.5,18.5c0-0.7-2-1.9-3.2-1.9c-1.9,0-5,2.3-6.8,4.2c0.3,0,0.6,0,0.8,0C178,20.8,182.5,19.3,183.5,18.5
		C183.5,18.5,183.5,18.5,183.5,18.5z"/>
	<path class="st0" d="M200.1,22.2c0.3,0.4,0.4,0.8,0.4,1.4c0,0.6-0.3,1.1-0.7,1.5c-0.4,0.3-0.8,0.4-1.2,0.4c-0.8,0-1.5-0.6-2-1.5
		c-0.4-0.9-0.6-1.7-0.6-2.6c0-1,0.2-2,0.6-2.9c0.4-0.9,0.8-1.6,1.3-2.2c0.5-0.6,0.8-0.8,1-0.8c0.3,0,0.1,0.5-0.3,1
		c-1.1,1.4-1.4,2.6-1.4,4.1c0.1,0.7,0.1,0.9,0.3,1.3c0.4-0.2,0.8-0.2,1.1-0.2C199.3,21.6,199.8,21.8,200.1,22.2z"/>
	<path class="st0" d="M219.3,27.4c0.2-0.2,0.3-0.3,0.4-0.1c0.6,0.7,1.3,1.4,2,1.8c0.2,0.1,0.2,0.2,0,0.4c-0.6,0.6-1.2,1.3-1.7,2
		c-0.1,0.2-0.2,0.2-0.4,0c-0.5-0.4-1.2-0.9-1.8-1.6c-0.4,0.4-1.1,1.3-1.5,1.5c-0.2,0.1-0.2,0.2-0.5,0.1c-0.7-0.4-1.5-1.1-2-1.8
		c-0.1-0.2-0.1-0.2,0-0.4c0.5-0.6,1.1-1.3,1.8-2c0.1-0.1,0.2-0.1,0.4,0.1c0.5,0.5,1.3,1.3,1.8,1.6C218.3,28.5,219,27.7,219.3,27.4z"
		/>
	<path class="st0" d="M212.7,14.4c-0.1-2.6-0.3-6.8-0.7-8.9c0-0.1,0-0.1,0-0.2c0-0.4,0.5-1.1,0.9-1.8c0.2-0.4,0.4-0.7,0.5-0.7
		c0.1,0,0.3,0.2,0.4,0.9c0.5,4.5,0.2,10.8,0.8,14.5c0.3,1.2,0.5,1.9,1.2,2.3c0.6,0.3,1.6,0.4,2.4,0.4c0.8,0,2.2-0.1,2.9-0.8
		c-0.1-1.2-0.9-2.5-1.4-3.1c0,0-0.1-0.1-0.1-0.2c0-0.3,0.6-1.8,0.9-2.4c0.1-0.1,0.1-0.2,0.2-0.2c0.1,0,0.3,0.2,0.5,0.6
		c0.6,1.1,0.9,2.4,0.9,4c0,1.2-0.2,2.5-1.1,3.5c-1,1.1-2.4,1.5-4,1.5c-1,0-2.1-0.2-2.9-1C213.3,21.6,212.9,20.2,212.7,14.4z"/>
	<path class="st0" d="M233.8,18.6c0,1.1-0.2,2.2-0.3,2.6c-0.6,2-2.6,2.7-6.3,2.7c-0.9,0-1.3-0.1-1.5-0.4c-0.3-0.3-0.4-0.9-0.4-1.5
		c0-0.5,0.1-0.9,0.1-1.1c0.1-0.4,0.2-0.6,0.3-0.6c0.1,0,0.2,0.1,0.3,0.2c0.4,0.3,1.2,0.4,2.2,0.4c1.6,0,3.5-0.3,4.3-0.8
		c0.1-0.1,0.1-0.1,0.1-0.1c0,0,0-0.1,0-0.2c-0.5-1.8-2.8-5.1-4.6-5.1c-0.2,0-0.5,0.3-0.7,0.3c-0.1,0-0.1-0.1-0.1-0.2
		c0-0.7,0.5-2.4,1-2.8c0.2-0.1,0.4-0.2,0.6-0.2c0.4,0,1,0.1,1.4,0.4c0.8,0.3,2,1.5,2.8,3.1C233.4,16.3,233.8,17.4,233.8,18.6z"/>
	<path class="st1" d="M245.1,16.4c0.3,0.3,0.4,0.7,0.4,1.1c0,0.2-0.1,0.7-0.4,0.9c-0.3,0.3-0.7,0.4-1.1,0.4c-0.3,0-0.7-0.1-0.9-0.4
		c-0.3-0.3-0.4-0.6-0.4-1c0-0.4,0.2-0.8,0.4-1c0.3-0.2,0.6-0.4,1-0.4C244.5,16,244.9,16.2,245.1,16.4z M245.1,21.6
		c0.3,0.3,0.4,0.8,0.4,1.1c0,0.3-0.1,0.7-0.4,1c-0.3,0.3-0.7,0.4-1.1,0.4c-0.3,0-0.6-0.2-0.9-0.4c-0.3-0.3-0.4-0.6-0.4-1
		c0-0.3,0.2-0.7,0.4-1c0.3-0.3,0.6-0.4,1-0.4C244.5,21.3,244.9,21.4,245.1,21.6z"/>
	<path class="st1" d="M258.2,23.8c-0.7,0-1.2-0.1-1.7-0.5c-0.7-0.6-1.1-1.7-1.3-3.1c-0.2-1.1-0.2-2.3-0.3-3.7
		c-0.1-2-0.2-5.1-0.5-6.9c0-0.1,0-0.2,0-0.2c0-0.1,0-0.2,0.2-0.4c0.3-0.5,0.5-0.8,0.7-1.2c0.2-0.3,0.2-0.3,0.3-0.3
		c0.1,0,0.2,0.2,0.3,0.7c0.4,3.5,0.1,8.4,0.6,11.1c0.1,0.7,0.2,0.9,0.4,1.3c0.3,0.6,0.7,0.9,1.4,1c0.8,0,1.2,0.4,1.2,1.1
		c0,0.9-0.4,1.2-1.1,1.2H258.2z"/>
	<path class="st1" d="M263,20.1c0,0.6,0.6,1.2,1.4,1.4c0.2,0,0.3,0,0.5,0h0.1c0.9,0,0.9,0.7,0.9,1c0,0.3,0,1.3-0.8,1.3h-0.2
		c-0.2,0-0.3,0-0.6,0c-1.5-0.2-2.1-1.5-2.2-1.7c-0.2,0.6-1.5,1.7-3.7,1.7h-0.1c-0.6,0-1-0.6-1-1.1c0-0.6,0.3-1.1,1-1.1h0.7
		c1,0,2.4-0.2,3.3-1.6c0.3-0.5,0.4-0.5,0.5-0.5C262.9,19.4,263,19.6,263,20.1z M263.8,14.3c0.1,0.1,0.1,0.1,0,0.2
		c-0.2,0.3-1.1,1.2-1.4,1.7c-0.1,0.1-0.1,0.1-0.2,0c-0.5-0.3-1.5-1-1.7-1.4c-0.1-0.1-0.1-0.1,0-0.2c0.3-0.5,0.9-1.2,1.3-1.6
		c0.2-0.2,0.2-0.2,0.3-0.1C262.4,13.2,263.1,13.8,263.8,14.3z"/>
	<path class="st1" d="M269.1,3.1c0.7,0,1.7,1,1.7,2.1c0,0.4-0.1,0.8-0.2,1.2c-0.3,0.8-0.9,1.3-1.8,1.3c-0.8,0-1.3-0.6-1.3-1.3
		C267.4,5.3,268.6,3.1,269.1,3.1z M268.9,4.7c-0.3,0-0.7,0.6-0.7,1c0,0.3,0.4,0.6,0.8,0.6c0.5,0,1.1-0.3,1.1-0.5
		C270.1,5.5,269.5,4.7,268.9,4.7z"/>
	<path class="st1" d="M272.9,21.5c0.7,0,1,0.4,1,1.1c0,0.8-0.3,1.2-1,1.2h-0.3c-2.1,0-3.4-0.4-4.3-1c-0.8,0.5-1.9,1-3.2,1h-0.2
		c-0.6,0-0.9-0.4-0.9-1.2c0-0.7,0.3-1.1,1-1.1h0.2c0.9,0,1.4-0.1,1.7-0.4c-0.1-0.2-0.1-0.5-0.1-0.8c0-2.3,2.6-5.1,4-5.1
		c0.8,0,1.3,1,1.3,2.2c0,1.3-0.5,2.8-1.5,3.7c0.5,0.2,1.2,0.4,2.1,0.4H272.9z M270.3,9.6c0.2-0.2,0.2-0.2,0.3-0.1
		c0.5,0.5,1,1.1,1.5,1.4c0.2,0.1,0.2,0.2,0,0.3c-0.5,0.5-0.9,1-1.3,1.5c-0.1,0.1-0.2,0.1-0.3,0c-0.4-0.3-0.9-0.7-1.4-1.2
		c-0.3,0.3-0.9,1-1.1,1.2c-0.1,0.1-0.2,0.2-0.4,0c-0.5-0.3-1.1-0.9-1.5-1.4c-0.1-0.1-0.1-0.2,0-0.3c0.4-0.5,0.9-1,1.4-1.5
		c0.1-0.1,0.2-0.1,0.3,0.1c0.4,0.4,1,1,1.4,1.2C269.5,10.4,270.1,9.8,270.3,9.6z M269.7,17.6c-0.8,0-1.6,0.9-1.6,1.2
		c0,0.5,0.4,0.9,1.2,1.4c0.3-0.1,1.4-1,1.4-1.3C270.7,18.1,270.4,17.6,269.7,17.6z"/>
	<path class="st1" d="M277.6,2.6c0.1-0.1,0.1,0,0.1,0.1c0,0.6-0.2,1.1-0.5,1.3l-4.1,2.3c-0.1,0-0.1,0-0.1-0.1c0-0.3,0.1-0.8,0.2-1
		c0.1-0.2,0.3-0.3,0.7-0.5L277.6,2.6z"/>
	<path class="st1" d="M276.5,16.8c0,0.9-0.1,1.7-0.3,2.4c2.1-1.7,3.9-2.7,4.9-2.7c0.5,0,1.3,0.1,1.9,0.4c0.8,0.4,1.1,0.8,1.1,1.5
		c0,1.2-0.9,3-1.8,3.5c0.8-0.2,1.7-0.4,2.5-0.4h0.3c0.7,0,1,0.4,1,1.1c0,0.8-0.3,1.2-1,1.2h-0.4c-4.4,0.2-6.5,0.2-7.4,0.2
		c-1.2,0-2.7,0-4.6-0.2h-0.3c-0.7,0-1-0.4-1-1.1c0-0.8,0.3-1.1,1-1.1h1.1c0.4-0.4,1.1-1.1,1.9-1.8c0-0.4,0-0.9,0-1.2
		c0-2.9-0.5-5.5-0.7-7.1c-0.1-0.4-0.3-1.3-0.4-1.7c0-0.1,0-0.2,0-0.3c0-0.2,0.2-0.6,0.4-1c0.2-0.5,0.6-1.1,0.7-1.1
		c0.1,0,0.1,0.1,0.2,0.2c0.3,0.9,0.6,1.4,0.8,1.8c0,0.1,0.1,0.2,0.1,0.2s0,0.1,0,0.2c-0.1,0.2-0.4,0.8-0.6,1.1
		C276.2,13,276.5,15.1,276.5,16.8z M280.2,18.4c-1.9,0-3.7,1.4-5.4,3.1c3.4-0.2,6.7-0.8,8.1-1.8C282.3,19,281.1,18.4,280.2,18.4z"/>
	<path class="st1" d="M289.6,4.7c0.1-0.1,0.1,0,0.1,0.1c0,0.6-0.2,1.1-0.5,1.3l-4.1,2.3c-0.1,0-0.1,0-0.1-0.1c0-0.3,0.1-0.8,0.2-1
		c0.1-0.2,0.3-0.3,0.7-0.5L289.6,4.7z"/>
	<path class="st1" d="M288.8,22.4c-0.4,0.6-1.2,1.1-2.6,1.3c-0.4,0.1-0.9,0.1-1.4,0.1c-0.6,0-1-0.6-1-1.1c0-0.6,0.3-1.1,1-1.1h0.5
		c1,0,2.6,0,3.2-0.6c-0.1-0.9-0.8-2-1.1-2.4c0,0,0,0,0-0.1c0-0.4,0.7-1.8,0.7-1.9c0-0.1,0.1-0.1,0.1-0.1c0.3,0,1.1,1.6,1.1,3.5
		C289.4,20.7,289.4,21.7,288.8,22.4z M289.4,11.3c0.1,0.1,0.1,0.1,0,0.2c-0.2,0.3-1.1,1.2-1.4,1.7c-0.1,0.1-0.1,0.1-0.2,0
		c-0.5-0.3-1.5-1-1.7-1.4c-0.1-0.1-0.1-0.1,0-0.2c0.3-0.5,0.9-1.2,1.3-1.6c0.2-0.2,0.2-0.2,0.3-0.1C288,10.3,288.8,10.9,289.4,11.3z
		"/>
	<path class="st1" d="M299,23.8c-0.1,0-0.2-0.2-0.2-0.7c0-3-1.1-11.3-1.1-12.7c0-0.7,0.5-1.7,0.9-2.5c0.1-0.2,0.3-0.5,0.5-0.5
		c0.1,0,0.2,0.2,0.2,0.8c0.1,2.2,0.7,7.3,0.7,11c0,1.5-0.1,2.7-0.4,3.5C299.3,23.4,299.1,23.8,299,23.8z"/>
	<path class="st1" d="M309.7,19.8c0,0.9-0.2,1.7-0.3,2c-0.4,1.5-2,2.1-4.9,2.1c-0.7,0-1-0.1-1.2-0.3c-0.2-0.2-0.3-0.7-0.3-1.2
		c0-0.4,0.1-0.7,0.1-0.8c0.1-0.3,0.2-0.5,0.2-0.5c0.1,0,0.1,0.1,0.2,0.2c0.3,0.2,0.9,0.3,1.7,0.3c1.2,0,2.7-0.2,3.3-0.6
		c0.1,0,0.1-0.1,0.1-0.1c0,0,0-0.1,0-0.1c-0.4-1.4-2.2-3.9-3.6-3.9c-0.2,0-0.4,0.2-0.6,0.2c-0.1,0-0.1,0-0.1-0.2
		c0-0.5,0.4-1.8,0.8-2.2c0.1-0.1,0.3-0.1,0.5-0.1c0.3,0,0.8,0.1,1.1,0.3c0.6,0.2,1.5,1.2,2.2,2.4C309.4,17.9,309.7,18.8,309.7,19.8z
		 M307.5,9.3c0.1,0.1,0.1,0.1,0,0.2c-0.2,0.3-1.1,1.2-1.4,1.7c-0.1,0.1-0.1,0.1-0.2,0c-0.5-0.3-1.5-1-1.7-1.4
		c-0.1-0.1-0.1-0.1,0-0.2c0.3-0.5,0.9-1.2,1.3-1.6c0.2-0.2,0.2-0.2,0.3-0.1C306,8.2,306.8,8.8,307.5,9.3z"/>
	<path class="st1" d="M316,30.3c0.1-0.1,0.1,0,0.1,0.1c0,0.6-0.2,1.1-0.5,1.3l-4.1,2.3c-0.1,0-0.1,0-0.1-0.1c0-0.3,0.1-0.8,0.2-1
		c0.1-0.2,0.3-0.3,0.7-0.5L316,30.3z"/>
	<path class="st1" d="M315.8,28.3c-0.8,0.4-2.6,1.5-4,2.5c-0.1,0-0.1,0-0.1,0c0,0-0.1,0-0.1-0.1c0-0.1,0.1-0.3,0.2-0.7
		c0.1-0.2,0.5-0.6,0.8-0.9c0,0,0.1-0.1,0.1-0.1c0,0,0-0.1-0.1-0.1c-0.6-0.2-0.9-0.4-0.9-0.9c0-0.1,0-0.1,0-0.2c0-0.9,1-2.2,1.8-2.9
		c0.3-0.3,0.7-0.4,1-0.4c0.5,0,0.8,0.3,0.8,0.7c0,0.3-0.1,0.6-0.2,1c-0.1,0.2-0.2,0.4-0.3,0.4c-0.1,0-0.2-0.1-0.3-0.2
		c-0.1-0.1-0.3-0.3-0.6-0.3c-0.8,0-1.3,0.5-1.3,0.7c0,0.3,1.3,0.8,1.8,0.8c0.1,0,0.1,0,0.1,0c0.2-0.1,1.1-0.4,1.5-0.6
		c0.2-0.1,0.3-0.2,0.3-0.2c0,0,0.1,0,0.1,0.1c0,0.1-0.1,0.2-0.1,0.4C316.1,28.1,316,28.2,315.8,28.3z M314.3,23.8
		c-0.1,0-0.2-0.2-0.2-0.7c0-3-1.1-11.3-1.1-12.7c0-0.7,0.5-1.7,0.9-2.5c0.1-0.2,0.3-0.5,0.5-0.5c0.1,0,0.2,0.2,0.2,0.8
		c0.1,2.2,0.7,7.3,0.7,11c0,1.5-0.1,2.7-0.4,3.5C314.7,23.4,314.5,23.8,314.3,23.8z"/>
	<path class="st1" d="M337.9,15.3c0.1,0.1,0.1,0.1,0,0.2c-0.2,0.3-1.1,1.2-1.4,1.7c-0.1,0.1-0.1,0.1-0.2,0c-0.5-0.3-1.5-1-1.7-1.4
		c-0.1-0.1-0.1-0.1,0-0.2c0.3-0.5,0.9-1.2,1.3-1.6c0.2-0.2,0.2-0.2,0.3-0.1C336.5,14.2,337.2,14.9,337.9,15.3z"/>
	<path class="st1" d="M324.4,22.3c0.2-0.4,0.5-0.6,0.7-0.6c0.2,0,0.1,0.4-0.1,0.8c-0.6,1.3-1,2.5-1,3.5c0,1.5,0.8,2.7,2.2,3.3
		c0.8,0.4,1.7,0.5,2.5,0.5c2.7,0,6.9-1.9,7.6-2.8c0,0,0,0,0-0.1c0-0.2-0.5-0.3-1.5-0.4c-2.2-0.2-3.3-0.6-3.3-1.4
		c0-1.7,1.3-3.5,2.7-4.6c1-0.8,2-1.2,2.9-1.2c0.8,0,1.1,0.2,1.4,0.9c0.4,0.6,0.9,1.3,1.4,1.3h0.4c0.6,0,0.9,0.4,0.9,1.1
		c0,0.8-0.3,1.2-0.9,1.2h-0.4c-0.3,0-0.7-0.1-1.1-0.4c-0.4-0.3-0.8-0.6-1-0.9c-0.3-0.4-0.5-0.6-0.7-0.7c-0.2-0.1-0.5-0.2-1-0.2
		c-0.6,0-1.3,0.2-2,0.6c-0.7,0.4-1.2,0.8-1.5,1.3c-0.1,0.1-0.1,0.2-0.1,0.3c0,0.5,0.7,0.8,2,1c1.3,0.1,2.1,0.2,2.5,0.4
		c0.3,0.1,0.5,0.5,0.5,0.9c0,0.2,0,0.5-0.1,0.8c-0.8,2.8-6.2,5.2-9.2,5.1c-0.8,0-2-0.2-2.9-0.6c-1.3-0.6-2.3-1.9-2.3-4
		C323,25.7,323.7,23.5,324.4,22.3z"/>
	<path class="st1" d="M345.1,8.8c0.7,0,1.7,1,1.7,2.1c0,0.4-0.1,0.8-0.2,1.2c-0.3,0.8-0.9,1.3-1.8,1.3c-0.8,0-1.3-0.6-1.3-1.3
		C343.4,11,344.6,8.8,345.1,8.8z M344.9,10.4c-0.3,0-0.7,0.6-0.7,1c0,0.3,0.4,0.6,0.8,0.6c0.5,0,1.1-0.3,1.1-0.5
		C346,11.3,345.4,10.4,344.9,10.4z"/>
	<path class="st1" d="M350.2,21.5c0.6,0,1,0.4,1,1.1c0,0.8-0.3,1.2-1,1.2h-0.2c-1-0.1-1.9-0.3-2.7-0.8c-0.8-0.5-1.1-0.9-1.6-1.7
		c-1.2,1.1-2.1,1.7-2.9,2c-0.8,0.3-1.7,0.5-2.7,0.5c-0.8,0-1.1-0.4-1.1-1.2c0-0.7,0.4-1.1,1.1-1.1h0.2c1.8,0,3-0.3,4.5-1.2
		c-0.5-0.7-1.7-1-2.3-1.1c-0.1,0-0.1-0.2-0.1-0.4c0-0.5,0.2-1.4,0.5-1.6c1-0.7,2.1-1.1,3.1-1.1c1,0,1.9,0.4,2.6,1.1
		c0.2,0.2,0.2,0.4,0.2,0.7c0,0.7-0.4,1.7-1.3,2.3c0.8,0.8,1.7,1.2,2.6,1.2H350.2z"/>
	<path class="st1" d="M357.3,12.5c0.1-0.1,0.1,0,0.1,0.1c0,0.6-0.2,1.1-0.5,1.3l-4.1,2.3c-0.1,0-0.1,0-0.1-0.1c0-0.3,0.1-0.8,0.2-1
		c0.1-0.2,0.3-0.3,0.7-0.5L357.3,12.5z"/>
	<path class="st1" d="M361.7,2c0.7,0,1.7,1,1.7,2.1c0,0.4-0.1,0.8-0.2,1.2c-0.3,0.8-0.9,1.3-1.8,1.3c-0.8,0-1.3-0.6-1.3-1.3
		C360.1,4.2,361.2,2,361.7,2z M361.5,3.6c-0.3,0-0.7,0.6-0.7,1c0,0.3,0.4,0.6,0.8,0.6c0.5,0,1.1-0.3,1.1-0.5
		C362.7,4.5,362.1,3.6,361.5,3.6z"/>
	<path class="st1" d="M363.5,18.8c0,1.7-0.4,3-1.1,4.1c-0.5,0.6-1.5,1-2.3,1c-0.8,0-1.5-0.2-2.1-0.8c-0.2,0.6-0.8,1.3-1.2,1.5
		c-0.1,0-0.2,0.1-0.2,0c-1.1-0.2-3.3-1-4.2-2.2c-0.5,1-1.3,1.4-2.4,1.4h-0.3c-0.6,0-0.9-0.4-0.9-1.1c0-0.8,0.3-1.2,0.9-1.2h0.3
		c2.1,0,3.2-1.2,4.1-2.1c0.5-0.6,0.9-1.1,1.4-1.1c0.2,0,0.5,0.1,0.7,0.4c0.9,1.1,2.6,2.8,4.1,2.8c0.5,0,1.7-0.2,2.1-0.7v0
		c0-1.7-0.7-6.1-1-9.5c-0.1-0.4-0.2-1-0.3-1.5c0-0.1,0-0.2,0-0.3c0,0,0-0.1,0-0.2c0-0.1,0.2-0.5,0.4-0.9c0.3-0.5,0.6-1.1,0.8-1.1
		c0.1,0,0.1,0.1,0.2,0.2c0.3,1,0.7,1.4,0.9,1.8c0,0.1,0.1,0.2,0.1,0.2s0,0.1,0,0.2c-0.1,0.2-0.4,0.9-0.6,1.2
		C363,14.5,363.5,17.2,363.5,18.8z M354.8,20.2c-0.2,0-0.5,0.2-0.7,0.4c-0.2,0.2-0.2,0.3,0.1,0.5c0.4,0.2,1.8,0.9,2.1,1
		c0.2,0.1,0.3,0.1,0.4,0.1c0.2,0,0.1-0.2,0-0.4C356.4,21.4,355.5,20.2,354.8,20.2z"/>
	<path class="st1" d="M367.4,23.8c-0.1,0-0.2-0.2-0.2-0.7c0-3-1.1-11.3-1.1-12.7c0-0.7,0.5-1.7,0.9-2.5c0.1-0.2,0.3-0.5,0.5-0.5
		c0.1,0,0.2,0.2,0.2,0.8c0.1,2.2,0.7,7.3,0.7,11c0,1.5-0.1,2.7-0.4,3.5C367.8,23.4,367.6,23.8,367.4,23.8z"/>
	<path class="st1" d="M383.5,31.2c0.2-0.2,0.2-0.2,0.3-0.1c0.5,0.5,1,1.1,1.5,1.4c0.2,0.1,0.2,0.2,0,0.3c-0.5,0.5-0.9,1-1.3,1.5
		c-0.1,0.1-0.2,0.1-0.3,0c-0.4-0.3-0.9-0.7-1.4-1.2c-0.3,0.3-0.9,1-1.1,1.2c-0.1,0.1-0.2,0.2-0.4,0c-0.5-0.3-1.1-0.9-1.5-1.4
		c-0.1-0.1-0.1-0.2,0-0.3c0.4-0.5,0.9-1,1.4-1.5c0.1-0.1,0.2-0.1,0.3,0.1c0.4,0.4,1,1,1.4,1.2C382.7,32,383.3,31.4,383.5,31.2z"/>
	<path class="st1" d="M389.2,8.3c0.1,0.1,0.1,0.1,0,0.2c-0.2,0.3-1.1,1.2-1.4,1.7c-0.1,0.1-0.1,0.1-0.2,0c-0.5-0.3-1.5-1-1.7-1.4
		c-0.1-0.1-0.1-0.1,0-0.2c0.3-0.5,0.9-1.2,1.3-1.6c0.2-0.2,0.2-0.2,0.3-0.1C387.7,7.2,388.5,7.9,389.2,8.3z"/>
	<path class="st1" d="M380.1,26.4c0.7,0.2,1.4,0.3,2.1,0.3c0.8,0,1.4-0.1,2.2-0.3c2.4-0.6,5.1-1.9,5.5-2.5c-0.7-0.6-2.7-1.4-4.4-1.5
		c-0.3,0-0.5-0.1-0.5-0.4c0-0.3,0.3-0.9,0.5-1.2c0.1-0.1,0.1-0.1,0.3-0.2c3.2-0.6,3.4-1.8,3.4-1.9c0-0.7-0.1-0.9-0.3-1.5
		c-0.4,0.5-1,1-1.8,1c-0.9,0-1.8-0.6-1.8-1.7c0-1.6,1.5-4.4,2.2-4.4c0.8,0,1.6,0.7,2.1,1.9c0.4,0.9,0.7,2.2,0.7,3
		c0,1.5-0.7,3-1.5,4.2c0.6,0.2,1.1,0.4,1.4,0.6c0.9,0.5,0.9,1.1,0.9,1.5c0,0.9-0.7,1.9-1.7,2.8c-2,1.7-5.4,2.9-7.6,2.9
		c-0.6,0-1.4-0.1-2.1-0.3c-1.7-0.5-3.2-1.7-3.2-4.5c0-1.6,0.7-3.8,1.5-5c0.2-0.4,0.5-0.6,0.7-0.6c0.2,0,0.1,0.4-0.1,0.8
		c-0.6,1.3-1,2.5-1,3.4C377.3,24.8,378.5,25.9,380.1,26.4z M387,14.3c-0.2,0-0.5,0.2-0.7,0.7c0,0.1-0.1,0.2-0.1,0.3
		c0,0.4,0.5,0.6,1,0.7c0.5,0,1-0.2,1-0.5C388,14.6,387.4,14.3,387,14.3z"/>
	<path class="st1" d="M410.6,30.8c0.1-0.1,0.1,0,0.1,0.1c0,0.6-0.2,1.1-0.5,1.3l-4.2,2.4c-0.1,0-0.1,0-0.1-0.1c0-0.3,0.1-0.8,0.2-1
		c0.1-0.2,0.3-0.3,0.7-0.5L410.6,30.8z M410.6,32.8c0.1-0.1,0.1,0,0.1,0.1c0,0.6-0.2,1.1-0.5,1.3l-4.2,2.4c-0.1,0-0.1,0-0.1-0.1
		c0-0.3,0.1-0.8,0.2-1c0.1-0.2,0.3-0.3,0.7-0.5L410.6,32.8z"/>
	<path class="st1" d="M397.8,26.4c0-1.4,0.7-3.1,1.3-3.8c0.2-0.3,0.5-0.6,0.6-0.6c0.1,0,0.1,0.1,0.1,0.2c0,0.2-0.1,0.4-0.2,0.7
		c-0.5,0.9-0.8,1.7-0.8,2.7c0,1.9,2.3,3,3.9,3c2.7,0,5.6-1,6.4-2.5c0-0.1,0.1-0.2,0.1-0.4c-0.1-1.9-0.3-2.6-0.9-3.7
		c0-0.1-0.1-0.1-0.1-0.2c0-0.5,0.4-1.3,0.7-1.9c0.1-0.1,0.2-0.3,0.3-0.3s0.2,0.2,0.2,0.2c0.5,1.3,1.2,1.8,2,1.8c1.1,0,2.1-1,2.4-1.9
		c0.1-0.3,0.4-0.9,0.6-0.9c0.1,0,0.1,0.1,0.1,0.2c0,0.2,0,0.5,0,0.8c0,1.2,1.1,1.8,1.8,1.8c0.5,0,0.8-0.2,0.8-0.4
		c0-0.3-0.3-0.8-0.5-1.1c0,0,0,0,0-0.1c0-0.2,0.5-1.2,0.7-1.6c0.2-0.3,0.2-0.4,0.3-0.4c0.3,0,0.5,0.9,0.5,1.9c0,2.2-1.1,3.9-2.6,3.9
		c-1,0-1.7-0.7-2.1-1.7c-0.1,0.3-0.9,1.8-2.4,1.8c-0.3,0-0.6,0-1-0.2c0,1.3-0.2,2.4-0.4,3c-0.3,0.9-0.8,1.7-2.1,2.6
		c-1.2,0.9-3,1.5-5.5,1.5C399.7,30.9,397.8,29.1,397.8,26.4z"/>
	<path class="st1" d="M424.1,23.8c-0.7,0-1.2-0.1-1.7-0.5c-0.7-0.6-1.1-1.7-1.3-3.1c-0.2-1.1-0.2-2.3-0.3-3.7
		c-0.1-2-0.2-5.1-0.5-6.9c0-0.1,0-0.2,0-0.2c0-0.1,0-0.2,0.2-0.4c0.3-0.5,0.5-0.8,0.7-1.2c0.2-0.3,0.2-0.3,0.3-0.3
		c0.1,0,0.2,0.2,0.3,0.7c0.4,3.5,0.1,8.4,0.6,11.1c0.1,0.7,0.2,0.9,0.4,1.3c0.3,0.6,0.7,0.9,1.4,1c0.8,0,1.2,0.4,1.2,1.1
		c0,0.9-0.4,1.2-1.1,1.2H424.1z"/>
	<path class="st1" d="M429,20.1c0,0.6,0.6,1.2,1.4,1.4c0.2,0,0.3,0,0.5,0h0.1c0.9,0,0.9,0.7,0.9,1c0,0.3,0,1.3-0.8,1.3h-0.2
		c-0.2,0-0.3,0-0.6,0c-1.5-0.2-2.1-1.5-2.2-1.7c-0.2,0.6-1.5,1.7-3.7,1.7h-0.1c-0.6,0-1-0.6-1-1.1c0-0.6,0.3-1.1,1-1.1h0.7
		c1,0,2.4-0.2,3.3-1.6c0.3-0.5,0.4-0.5,0.5-0.5C428.9,19.4,429,19.6,429,20.1z M430.1,28c0.1,0.1,0.1,0.1,0,0.2
		c-0.2,0.3-1.1,1.2-1.4,1.7c-0.1,0.1-0.1,0.1-0.2,0c-0.5-0.3-1.5-1-1.7-1.4c-0.1-0.1-0.1-0.1,0-0.2c0.3-0.5,0.9-1.2,1.3-1.6
		c0.2-0.2,0.2-0.2,0.3-0.1C428.7,26.9,429.4,27.5,430.1,28z"/>
	<path class="st1" d="M436.2,26.3c0.1-0.1,0.1,0,0.1,0.1c0,0.6-0.2,1.1-0.5,1.3l-4.1,2.3c-0.1,0-0.1,0-0.1-0.1c0-0.3,0.1-0.8,0.2-1
		c0.1-0.2,0.3-0.3,0.7-0.5L436.2,26.3z"/>
	<path class="st1" d="M435.7,20.1c0,0.6,0.6,1.2,1.4,1.4c0.2,0,0.3,0,0.5,0h0.1c0.9,0,0.9,0.7,0.9,1c0,0.3,0,1.3-0.8,1.3h-0.2
		c-0.2,0-0.3,0-0.6,0c-1.5-0.2-2.1-1.5-2.2-1.7c-0.2,0.6-1.5,1.7-3.7,1.7H431c-0.6,0-1-0.6-1-1.1c0-0.6,0.3-1.1,1-1.1h0.7
		c1,0,2.4-0.2,3.3-1.6c0.3-0.5,0.4-0.5,0.5-0.5C435.6,19.4,435.7,19.6,435.7,20.1z M435.4,13.3c0.2-0.2,0.2-0.2,0.3-0.1
		c0.5,0.5,1,1.1,1.5,1.4c0.2,0.1,0.2,0.2,0,0.3c-0.5,0.5-0.9,1-1.3,1.5c-0.1,0.1-0.2,0.1-0.3,0c-0.4-0.3-0.9-0.7-1.4-1.2
		c-0.3,0.3-0.9,1-1.1,1.2c-0.1,0.1-0.2,0.2-0.4,0c-0.5-0.3-1.1-0.9-1.5-1.4c-0.1-0.1-0.1-0.2,0-0.3c0.4-0.5,0.9-1,1.4-1.5
		c0.1-0.1,0.2-0.1,0.3,0.1c0.4,0.4,1,1,1.4,1.2C434.6,14.2,435.2,13.5,435.4,13.3z"/>
	<path class="st1" d="M439.7,1.6c0.7,0,1.7,1,1.7,2.1c0,0.4-0.1,0.8-0.2,1.2c-0.3,0.8-0.9,1.3-1.8,1.3c-0.8,0-1.3-0.6-1.3-1.3
		C438,3.8,439.2,1.6,439.7,1.6z M439.5,3.2c-0.3,0-0.7,0.6-0.7,1c0,0.3,0.4,0.6,0.8,0.6c0.5,0,1.1-0.3,1.1-0.5
		C440.7,4,440.1,3.2,439.5,3.2z"/>
	<path class="st1" d="M440,22.8c-0.5,0.7-1.2,1-2.3,1h-0.2c-0.7,0-1-0.4-1-1.2c0-0.7,0.3-1.1,1-1.1h0.2c0.5,0,1-0.1,1.5-0.2
		c0.4-0.1,0.6-0.3,0.7-0.4c0-1.7-0.6-5.4-0.9-8.9c0-0.4-0.3-1.6-0.4-2.1c0-0.1,0-0.2,0-0.2c0-0.3,0.3-0.9,0.5-1.3
		c0.3-0.5,0.5-0.9,0.7-0.9c0.1,0,0.1,0.1,0.2,0.2c0.3,1,0.6,1.5,0.8,1.8c0.1,0.1,0.1,0.2,0.1,0.3c0,0,0,0.1,0,0.1
		c-0.1,0.2-0.4,0.8-0.6,1.1c0.2,3.4,0.7,6.2,0.7,7.8C441,20.4,440.7,21.8,440,22.8z"/>
	<path class="st1" d="M445.6,23.8c-0.1,0-0.2-0.2-0.2-0.7c0-3-1.1-11.3-1.1-12.7c0-0.7,0.5-1.7,0.9-2.5c0.1-0.2,0.3-0.5,0.5-0.5
		c0.1,0,0.2,0.2,0.2,0.8c0.1,2.2,0.7,7.3,0.7,11c0,1.5-0.1,2.7-0.4,3.5C445.9,23.4,445.8,23.8,445.6,23.8z"/>
	<path class="st1" d="M459.9,6.4c0,0.5-0.1,1-0.3,1.5c0.2,0.1,0.4,0.3,0.4,0.4c0,0.4-0.2,0.7-0.3,1c-0.1,0.1-0.1,0.1-0.1,0.1L459,9
		c-0.5,0.8-1.3,1.8-2.5,2.3c-0.4,0.2-0.9,0.4-1.5,0.4c-0.3,0-0.4-0.1-0.4-0.1c0-0.1,0.2-0.2,0.6-0.4c0.9-0.5,2.5-1.8,3.1-2.5
		c-0.5-0.3-1.1-0.7-1.1-1.4c0-0.4,0.2-0.9,0.6-1.3c0.4-0.5,0.8-0.8,1.2-0.8C459.7,5.2,459.9,5.8,459.9,6.4z M458.1,6.8
		C458.1,6.9,458.1,6.9,458.1,6.8c0,0.2,0.4,0.5,0.8,0.7c0.1-0.2,0.1-0.4,0.1-0.7c0-0.3-0.1-0.4-0.3-0.4
		C458.5,6.4,458.2,6.6,458.1,6.8z"/>
	<path class="st1" d="M468.9,33.3c0.2,0,0.2,0,0.2,0.1c0,0.2-0.7,0.6-1,0.8c-1.4,0.6-3.6,1.4-6.2,1.4c-5.2,0-7.4-3.7-7.4-7
		c0-4.4,1.7-6.3,2.7-7.4c-1-0.6-2.1-1.3-2.1-2.6c0-0.7,0.3-1.9,0.8-2.7c0.7-1.3,1.8-1.9,2.8-1.9c0.9,0,2.2,0.5,2.8,1
		c0.2,0.2,0.3,0.4,0.3,0.5c0,0.1-0.1,0.1-0.2,0.1c-0.4,0-1-0.1-1.5-0.1c-1.3,0-3.8,1.1-3.8,1.7c0,0.4,1.1,2.1,3,2.1
		c0.1,0,0.1,0,0.2,0c1.2-0.5,2.8-1.2,3.8-1.7c0.4-0.2,0.7-0.3,0.9-0.3c0.1,0,0.1,0.1,0.1,0.1c0,0.2-0.7,1.5-0.8,1.7
		c-0.1,0.1-0.2,0.3-0.6,0.5c-1.2,0.6-2.1,1-3,1.5c-3.1,1.8-4.4,3.6-4.4,6.3c0,2.9,2.2,6.2,9.6,6.2C467.3,33.6,468.4,33.3,468.9,33.3
		z"/>
	<path class="st1" d="M464.4,29.8c-0.3-0.2-0.4-0.3-0.4-0.4c0-0.1,0.2-0.2,0.4-0.2c0.3,0,1.1,0.2,1.8,0.2c0.6,0,1.2-0.2,2.1-0.6
		c2.4-1.2,3.9-3,3.9-4.2c0-0.2,0-0.3-0.1-0.7h-0.7c-0.5,0-1.5-0.1-2.2-0.5c-0.7-0.4-1-0.9-1-1.5c0-0.6,0.3-1.4,0.6-2.2
		c0.6-1.3,1.2-2.2,1.9-2.2c0.7,0,1.3,0.5,1.8,1.1c0.5,0.7,0.7,1.8,0.7,2.8h1c0.6,0,0.9,0.3,0.9,1c0,0.8-0.3,1.2-0.9,1.2l-1.1,0.1
		c-0.2,3.5-1.3,5.8-4.1,6.9c-0.2,0.1-0.4,0.1-0.6,0.1C467.4,30.8,465.8,30.4,464.4,29.8z M470.7,20.1c-0.1-0.1-0.3-0.2-0.6-0.2
		c-0.5,0-0.8,0.5-0.8,0.8c0,0.2,0.2,0.5,0.8,0.7c0.4,0.2,0.9,0.2,1.1,0.2c0.2,0,0.2,0,0.2-0.1C471.5,21.2,471.1,20.5,470.7,20.1z"/>
	<path class="st1" d="M479.7,18.6c0,1.2-0.4,2.9-0.9,3.7c-0.2,0.3-0.9,0.7-1.4,0.8c-1.4,0.4-2.5,0.6-3.3,0.6h-0.2
		c-0.6,0-1-0.4-1-1.2c0-0.7,0.3-1.1,1-1.1h0.2c1.3,0,2.8-0.2,3.7-0.5c0.8-0.3,0.9-0.3,0.9-1.1c0-0.5-0.1-0.8-0.3-1.3
		c-0.2,0.5-0.9,1-1.8,1c-1.1,0-1.8-0.7-1.8-2c0-1.8,1.4-4.1,2-4.1C478.6,13.6,479.7,17,479.7,18.6z M478.3,8.1
		c0.2-0.2,0.2-0.2,0.3-0.1c0.5,0.5,1,1.1,1.5,1.4c0.2,0.1,0.2,0.2,0,0.3c-0.5,0.5-0.9,1-1.3,1.5c-0.1,0.1-0.2,0.1-0.3,0
		c-0.4-0.3-0.9-0.7-1.4-1.2c-0.3,0.3-0.9,1-1.1,1.2c-0.1,0.1-0.2,0.2-0.4,0c-0.5-0.3-1.1-0.9-1.5-1.4c-0.1-0.1-0.1-0.2,0-0.3
		c0.4-0.5,0.9-1,1.4-1.5c0.1-0.1,0.2-0.1,0.3,0.1c0.4,0.4,1,1,1.4,1.2C477.5,8.9,478,8.3,478.3,8.1z M477.2,16.1
		c-0.2-0.2-0.5-0.3-0.7-0.3c-0.2,0-0.4,0.1-0.5,0.4c-0.1,0.2-0.2,0.4-0.2,0.5c0,0.5,0.5,0.6,1,0.6c0.5,0,0.9-0.2,0.9-0.5
		C477.6,16.8,477.5,16.3,477.2,16.1z"/>
	<path class="st1" d="M486.8,10.1c0,0.5-0.1,1-0.3,1.5c0.2,0.1,0.4,0.3,0.4,0.4c0,0.4-0.2,0.7-0.3,1c-0.1,0.1-0.1,0.1-0.1,0.1
		l-0.5-0.3c-0.5,0.8-1.3,1.8-2.5,2.3c-0.4,0.2-0.9,0.4-1.5,0.4c-0.3,0-0.4-0.1-0.4-0.1c0-0.1,0.2-0.2,0.6-0.4
		c0.9-0.5,2.5-1.8,3.1-2.5c-0.5-0.3-1.1-0.7-1.1-1.4c0-0.4,0.2-0.9,0.6-1.3c0.4-0.5,0.8-0.8,1.2-0.8C486.6,8.8,486.8,9.5,486.8,10.1
		z M485,10.5C485,10.6,485,10.6,485,10.5c0,0.2,0.4,0.5,0.8,0.7c0.1-0.2,0.1-0.4,0.1-0.7c0-0.3-0.1-0.4-0.3-0.4
		C485.4,10.1,485.1,10.3,485,10.5z"/>
	<path class="st1" d="M487.8,19.6c0.3,0.9,0.5,1.8,0.5,3.1c0,4-1.1,6.5-4.2,7.7c-0.2,0.1-0.4,0.1-0.6,0.1c-1,0-2.6-0.5-4-1.1
		c-0.3-0.2-0.4-0.3-0.4-0.4c0-0.1,0.1-0.2,0.4-0.2c0.2,0,1.1,0.2,1.8,0.2c0.9,0,1.9-0.4,3.3-1.3c1.5-1,2.8-2.3,2.8-3.8
		c0-0.5-0.1-1-0.4-1.5c-0.3,0.7-0.8,1.1-1.5,1.1c-1.3,0-2.1-0.7-2.1-2.1c0-0.5,0.3-1.3,0.6-2.1c0.5-1,1.2-1.9,1.8-1.9
		C486.4,17.5,487.3,18.4,487.8,19.6z M485.3,19.7c-0.3,0-0.5,0.2-0.7,0.5c-0.1,0.1-0.2,0.4-0.2,0.5c0,0.4,0.6,0.6,1.1,0.6
		c0.4,0,0.7-0.2,0.8-0.4C486.3,20.2,485.6,19.7,485.3,19.7z"/>
	<path class="st1" d="M498.6,16.4c0.3,0.3,0.4,0.7,0.4,1.1c0,0.2-0.1,0.7-0.4,0.9c-0.3,0.3-0.7,0.4-1.1,0.4c-0.3,0-0.7-0.1-0.9-0.4
		c-0.3-0.3-0.4-0.6-0.4-1c0-0.4,0.2-0.8,0.4-1c0.3-0.2,0.6-0.4,1-0.4C498,16,498.4,16.2,498.6,16.4z M498.6,21.6
		c0.3,0.3,0.4,0.8,0.4,1.1c0,0.3-0.1,0.7-0.4,1c-0.3,0.3-0.7,0.4-1.1,0.4c-0.3,0-0.6-0.2-0.9-0.4c-0.3-0.3-0.4-0.6-0.4-1
		c0-0.3,0.2-0.7,0.4-1c0.3-0.3,0.6-0.4,1-0.4C498,21.3,498.4,21.4,498.6,21.6z"/>
	<path class="st1" d="M511.7,23.8c-0.7,0-1.2-0.1-1.7-0.5c-0.7-0.6-1.1-1.7-1.3-3.1c-0.2-1.1-0.2-2.3-0.3-3.7
		c-0.1-2-0.2-5.1-0.5-6.9c0-0.1,0-0.2,0-0.2c0-0.1,0-0.2,0.2-0.4c0.3-0.5,0.5-0.8,0.7-1.2c0.2-0.3,0.2-0.3,0.3-0.3
		c0.1,0,0.2,0.2,0.3,0.7c0.4,3.5,0.1,8.4,0.6,11.1c0.1,0.7,0.2,0.9,0.4,1.3c0.3,0.6,0.7,0.9,1.4,1c0.8,0,1.2,0.4,1.2,1.1
		c0,0.9-0.4,1.2-1.1,1.2H511.7z"/>
	<path class="st1" d="M516.5,20.1c0,0.6,0.6,1.2,1.4,1.4c0.2,0,0.3,0,0.5,0h0.1c0.9,0,0.9,0.7,0.9,1c0,0.3,0,1.3-0.8,1.3h-0.2
		c-0.2,0-0.3,0-0.6,0c-1.5-0.2-2.1-1.5-2.2-1.7c-0.2,0.6-1.5,1.7-3.7,1.7h-0.1c-0.6,0-1-0.6-1-1.1c0-0.6,0.3-1.1,1-1.1h0.7
		c1,0,2.4-0.2,3.3-1.6c0.3-0.5,0.4-0.5,0.5-0.5C516.4,19.4,516.5,19.6,516.5,20.1z M517.4,14.3c0.1,0.1,0.1,0.1,0,0.2
		c-0.2,0.3-1.1,1.2-1.4,1.7c-0.1,0.1-0.1,0.1-0.2,0c-0.5-0.3-1.5-1-1.7-1.4c-0.1-0.1-0.1-0.1,0-0.2c0.3-0.5,0.9-1.2,1.3-1.6
		c0.2-0.2,0.2-0.2,0.3-0.1C515.9,13.2,516.7,13.8,517.4,14.3z"/>
	<path class="st1" d="M524.2,6.3c0,0.5-0.1,1-0.3,1.5c0.2,0.1,0.4,0.3,0.4,0.4c0,0.4-0.2,0.7-0.3,1c-0.1,0.1-0.1,0.1-0.1,0.1
		l-0.5-0.3c-0.5,0.8-1.3,1.8-2.5,2.3c-0.4,0.2-0.9,0.4-1.5,0.4c-0.3,0-0.4-0.1-0.4-0.1c0-0.1,0.2-0.2,0.6-0.4
		c0.9-0.5,2.5-1.8,3.1-2.5c-0.5-0.3-1.1-0.7-1.1-1.4c0-0.4,0.2-0.9,0.6-1.3c0.4-0.5,0.8-0.8,1.2-0.8C524,5,524.2,5.7,524.2,6.3z
		 M522.4,6.7C522.4,6.7,522.4,6.8,522.4,6.7c0,0.2,0.4,0.5,0.8,0.7c0.1-0.2,0.1-0.4,0.1-0.7c0-0.3-0.1-0.4-0.3-0.4
		C522.8,6.3,522.6,6.4,522.4,6.7z"/>
	<path class="st1" d="M528.6,20.3c0,1.6-0.8,2.6-1.7,2.6c-0.3,0-1-0.1-1.6-0.3c-0.8-0.2-1.5-0.5-2.4-0.6c-1.7,1.2-3.1,1.9-4.4,1.9
		h-0.2c-0.7,0-1-0.4-1-1.1c0-0.8,0.3-1.1,1-1.1h0.2c0.6,0,1.3-0.2,2.2-0.5c-0.2-0.3-0.3-0.7-0.3-1.2c0-1.2,0.6-2.7,1.1-3.4
		c-0.1-0.1-0.2-0.4-0.2-0.6c0-0.3,0.1-1.1,0.4-1.6c0.1-0.3,0.3-0.5,0.6-0.5C524,13.7,528.5,16.9,528.6,20.3z M524.4,18.9
		c0-0.9-1.2-1.9-1.5-1.9c-0.2,0-0.5,0.2-0.9,0.5c-0.4,0.4-0.7,0.8-0.7,1c0.1,1,1,1.2,1.7,1.3C523.2,19.8,524.4,19.2,524.4,18.9z
		 M527.8,21.1C527.8,21.1,527.8,21.1,527.8,21.1c-0.1-1.1-1.2-2.6-2.6-3.3c0,1.4-0.7,2.3-0.7,2.3C525.9,20.5,526.8,21.1,527.8,21.1z
		"/>
	<path class="st1" d="M542.8,31c0.1-0.1,0.1,0,0.1,0.1c0,0.6-0.2,1.1-0.5,1.3l-4.1,2.3c-0.1,0-0.1,0-0.1-0.1c0-0.3,0.1-0.8,0.2-1
		c0.1-0.2,0.3-0.3,0.7-0.5L542.8,31z"/>
	<path class="st1" d="M543.2,23c0,3.4-1.5,6-4.2,7.1c-0.2,0.1-0.4,0.1-0.6,0.1c-0.9,0-2.8-0.5-4.1-1.1c-0.3-0.2-0.4-0.3-0.4-0.4
		c0-0.1,0.2-0.2,0.3-0.2c0.3,0,1.1,0.2,1.8,0.2c0.7,0,1.2-0.2,2.2-0.6c1.1-0.5,3.3-2.3,3.8-3.8c0.1-0.2,0.1-0.6,0.1-0.7
		c0-0.1-0.1-1-1-2.4c-0.3-0.5-0.5-0.8-0.8-1.2c-0.1-0.1-0.1-0.1-0.1-0.2c0-0.3,0.4-1.3,0.6-1.7c0.1-0.1,0.1-0.2,0.2-0.2
		c0.5,0,1.4,1.7,1.8,3.1C543.2,21.7,543.2,22.3,543.2,23z"/>
	<path class="st1" d="M549.2,23.8c-0.7,0-1.2-0.1-1.7-0.5c-0.7-0.6-1.1-1.7-1.3-3.1c-0.2-1.1-0.2-2.3-0.3-3.7
		c-0.1-2-0.2-5.1-0.5-6.9c0-0.1,0-0.2,0-0.2c0-0.1,0-0.2,0.2-0.4c0.3-0.5,0.5-0.8,0.7-1.2c0.2-0.3,0.2-0.3,0.3-0.3
		c0.1,0,0.2,0.2,0.3,0.7c0.4,3.5,0.1,8.4,0.6,11.1c0.1,0.7,0.2,0.9,0.4,1.3c0.3,0.6,0.7,0.9,1.4,1c0.8,0,1.2,0.4,1.2,1.1
		c0,0.9-0.4,1.2-1.1,1.2H549.2z"/>
	<path class="st1" d="M564.3,3.1c0.7,0,1.7,1,1.7,2.1c0,0.4-0.1,0.8-0.2,1.2c-0.3,0.8-0.9,1.3-1.8,1.3c-0.8,0-1.3-0.6-1.3-1.3
		C562.7,5.3,563.8,3.1,564.3,3.1z M564.1,4.7c-0.3,0-0.7,0.6-0.7,1c0,0.3,0.4,0.6,0.8,0.6c0.5,0,1.1-0.3,1.1-0.5
		C565.3,5.6,564.7,4.7,564.1,4.7z"/>
	<path class="st1" d="M566.3,10.2c0.1,0.1,0.1,0.1,0,0.2c-0.2,0.3-1.1,1.2-1.4,1.7c-0.1,0.1-0.1,0.1-0.2,0c-0.5-0.3-1.5-1-1.7-1.4
		c-0.1-0.1-0.1-0.1,0-0.2c0.3-0.5,0.9-1.2,1.3-1.6c0.2-0.2,0.2-0.2,0.3-0.1C564.8,9.1,565.6,9.7,566.3,10.2z"/>
	<path class="st1" d="M560.3,16.2c0,0.8-0.1,1.4-0.2,2c1.1-0.9,2-1.5,2.8-1.9c0.8-0.5,1.5-0.7,2.1-0.7c0.8,0,2,0.3,2.6,0.9
		c0.3,0.2,0.4,0.6,0.4,1.1c0,1.1-0.5,2.1-1.2,3c-0.5,0.7-2.1,1.2-3.9,1.6c-0.6,0.1-1.2,0.2-4,0.5c-1.4,0.1-2,0.2-2.8,0.5
		c-0.6,0.3-1,0.7-1.2,1.1c-0.1,0.3-0.2,0.6-0.2,0.9c0,0.2,0,0.4,0.1,0.6c0.1,0.5,0.2,0.9,0.3,1.1c0.1,0.2,0.1,0.5,0.2,0.7v0.1
		c0,0.5-0.4,1.5-0.6,1.9c0,0.1-0.1,0.1-0.2,0.1c-0.4,0-0.8-0.4-1.1-0.7c-0.8-0.8-1.2-2.1-1.2-3.9c0-0.6,0-1.2,0.1-1.9
		c0-0.3,0.1-0.6,0.2-1c-0.7,0.8-1.6,1.4-2.8,1.4h-0.3c-0.6,0-0.9-0.4-0.9-1.1c0-0.8,0.3-1.1,1-1.1h0.3c0.6,0,1.1-0.1,1.6-0.3
		c1.1-0.5,1.7-1,2.4-2c0.1-0.2,0.3-0.5,0.5-0.5c0.1,0,0.2,0.1,0.2,0.3c0,0.3-0.2,0.7-0.4,1.3c-0.3,0.9-0.7,2.1-0.7,3.3
		c0,0.8,0.2,1.5,0.6,2.3c0-0.4,0-0.7,0-1.2c0.1-0.9,0.4-1.5,1-2.2c0.7-0.7,1.6-1.4,2.7-1.7c0.7-0.8,1.3-1.4,1.9-2c0-0.3,0-0.6,0-0.9
		c0-3.1-0.5-5.1-0.7-7.1c0-0.4-0.3-1.3-0.4-1.7c0-0.1,0-0.2,0-0.3c0,0,0-0.1,0-0.2c0-0.1,0.1-0.4,0.4-0.9c0.2-0.5,0.6-1.1,0.7-1.1
		c0.1,0,0.1,0.1,0.2,0.2c0.3,0.9,0.6,1.4,0.8,1.8c0,0.1,0.1,0.2,0.1,0.2s0,0.1,0,0.2c-0.1,0.2-0.4,0.8-0.6,1.1
		C560,12.6,560.3,14.5,560.3,16.2z M563.9,17.7c-1.9,0-3.7,1.4-5.5,3.1c3.4-0.2,6.7-0.8,8.1-1.8C566,18.3,564.9,17.7,563.9,17.7z"/>
	<path class="st1" d="M575.2,31.4c0.1-0.1,0.1,0,0.1,0.1c0,0.6-0.2,1.1-0.5,1.3l-4.1,2.3c-0.1,0-0.1,0-0.1-0.1c0-0.3,0.1-0.8,0.2-1
		c0.1-0.2,0.3-0.3,0.7-0.5L575.2,31.4z"/>
	<path class="st1" d="M574.4,29.3c-0.8,0.4-2.6,1.5-4,2.5c-0.1,0-0.1,0-0.1,0c0,0-0.1,0-0.1-0.1c0-0.1,0.1-0.3,0.2-0.7
		c0.1-0.2,0.5-0.6,0.8-0.9c0,0,0.1-0.1,0.1-0.1c0,0,0-0.1-0.1-0.1c-0.6-0.2-0.9-0.4-0.9-0.9c0-0.1,0-0.1,0-0.2c0-0.9,1-2.2,1.8-2.9
		c0.3-0.3,0.7-0.4,1-0.4c0.5,0,0.8,0.3,0.8,0.7c0,0.3-0.1,0.6-0.2,1c-0.1,0.2-0.2,0.4-0.3,0.4c-0.1,0-0.2-0.1-0.3-0.2
		c-0.1-0.1-0.3-0.3-0.6-0.3c-0.8,0-1.3,0.5-1.3,0.7c0,0.3,1.3,0.8,1.8,0.8c0.1,0,0.1,0,0.1,0c0.2-0.1,1.1-0.4,1.5-0.6
		C574.9,28,575,28,575,28c0,0,0.1,0,0.1,0.1c0,0.1-0.1,0.2-0.1,0.4C574.7,29.1,574.5,29.2,574.4,29.3z"/>
	<path class="st1" d="M579.3,9.4c0.1,0.2,0.1,0.2,0.1,0.3c0,0.1,0,0.1-0.1,0.2c-0.2,0.4-0.5,1-0.8,1.3c-0.2,2.4-0.5,4.3-1.6,7
		c0.3,0.8,0.5,1.9,0.5,2.9c0,0.7-0.1,1.3-0.3,1.8c-0.2,0.4-2.7,0.8-4.4,0.8c-0.5,0-0.8,0-1.1-0.1c-0.1,0-0.2-0.3-0.2-0.7
		c0-0.6,0.1-1.5,0.3-1.8c0-0.1,0.1-0.1,0.1-0.1c0.1,0,0.1,0,0.2,0c1.4,0,2.8-1.3,3.7-2.9c-1.1-2.2-3.5-5.2-5.6-6.6
		c0,0.1-0.4,0.6-0.7,0.6c-0.3,0-2.2-1.8-2.2-2.2c0-0.2-0.1-0.4-0.1-0.6c0-0.6,0.1-1.1,0.2-1.4c0.1-0.3,0.3-0.4,0.4-0.4
		c0.2,0,0.5,0.2,0.8,0.4c1.6,1.1,3.2,2.4,4.5,4c1,1.3,2.3,3,3.3,5.1c0.6-1.3,0.7-2.2,0.9-3.9c0.1-1,0.1-1.7,0.1-2.2
		c0-1.1-0.1-1.5-0.1-1.8c0-0.2,0.1-0.4,0.2-0.7c0.4-0.7,0.7-1.2,0.8-1.2c0.1,0,0.1,0.1,0.2,0.2C578.8,8.2,579,8.8,579.3,9.4z
		 M576.2,19.3c-0.8,1.1-0.9,1.3-1.7,2.1c0.8,0,1.5-0.1,2.1-0.3C576.7,20.7,576.7,20.1,576.2,19.3z"/>
	<path class="st1" d="M583.3,23.8c-0.1,0-0.2-0.2-0.2-0.7c0-3-1.1-11.3-1.1-12.7c0-0.7,0.5-1.7,0.9-2.5c0.1-0.2,0.3-0.5,0.5-0.5
		c0.1,0,0.2,0.2,0.2,0.8c0.1,2.2,0.7,7.3,0.7,11c0,1.5-0.1,2.7-0.4,3.5C583.6,23.4,583.5,23.8,583.3,23.8z"/>
	<path class="st1" d="M597,4.8c0,0.5-0.1,1-0.3,1.5c0.2,0.1,0.4,0.3,0.4,0.4c0,0.4-0.2,0.7-0.3,1c-0.1,0.1-0.1,0.1-0.1,0.1l-0.5-0.3
		c-0.5,0.8-1.3,1.8-2.5,2.3c-0.4,0.2-0.9,0.4-1.5,0.4c-0.3,0-0.4-0.1-0.4-0.1c0-0.1,0.2-0.2,0.6-0.4c0.9-0.5,2.5-1.8,3.1-2.5
		c-0.5-0.3-1.1-0.7-1.1-1.4c0-0.4,0.2-0.9,0.6-1.3c0.4-0.5,0.8-0.8,1.2-0.8C596.8,3.5,596.9,4.2,597,4.8z M595.2,5.2
		C595.1,5.2,595.1,5.2,595.2,5.2c0,0.2,0.4,0.5,0.8,0.7c0.1-0.2,0.1-0.4,0.1-0.7c0-0.3-0.1-0.4-0.3-0.4
		C595.5,4.8,595.3,4.9,595.2,5.2z"/>
	<path class="st1" d="M596.2,10.8c0.2-0.2,0.2-0.2,0.3-0.1c0.5,0.5,1,1.1,1.5,1.4c0.2,0.1,0.2,0.2,0,0.3c-0.5,0.5-0.9,1-1.3,1.5
		c-0.1,0.1-0.2,0.1-0.3,0c-0.4-0.3-0.9-0.7-1.4-1.2c-0.3,0.3-0.9,1-1.1,1.2c-0.1,0.1-0.2,0.2-0.4,0c-0.5-0.3-1.1-0.9-1.5-1.4
		c-0.1-0.1-0.1-0.2,0-0.3c0.4-0.5,0.9-1,1.4-1.5c0.1-0.1,0.2-0.1,0.3,0.1c0.4,0.4,1,1,1.4,1.2C595.4,11.6,596,11,596.2,10.8z"/>
	<path class="st1" d="M599.7,6.9c-0.7,0-1.1-0.7-1.1-1.5c0-0.2,0-0.5,0.1-0.8c0.1-0.2,0.2-0.8,0.5-0.8c0.1,0,0.2,0.2,0.2,0.6v0.3
		c0,0.3,0.2,0.5,0.6,0.5h0c0.5,0,0.8-0.3,0.9-1c0.1-0.3,0.2-1.1,0.6-1.1c0.1,0,0.2,0.2,0.2,0.5c0,0.2,0.1,0.3,0.4,0.3
		c0.5,0,0.8-0.3,0.9-0.8c0.1-0.7,0.2-0.8,0.4-0.8c0.2,0,0.3,0.7,0.3,1.1c0,0.3,0,0.6-0.2,1c-0.2,0.7-0.7,1.2-1.5,1.2
		c-0.2,0-0.4-0.1-0.5-0.1c-0.1-0.1-0.1,0-0.2,0.1C600.9,6.4,600.4,6.9,599.7,6.9z M603.6,0C603.7,0,603.7,0.1,603.6,0
		c0,0.5-0.2,0.9-0.4,1.2c-0.1,0.1-0.2,0.2-0.5,0.3l-4,1.9c0,0-0.1,0-0.1-0.1c0-0.2,0.1-0.5,0.2-0.7c0.2-0.3,0.2-0.4,0.3-0.5
		c0.1-0.1,0.2-0.1,0.3-0.2L603.6,0z"/>
	<path class="st1" d="M601.1,21.2c0.3-0.2,0.5-0.4,0.5-0.6v-0.3c0-0.9-0.4-7.1-0.6-10c0-0.2,0-0.2,0.1-0.4c0.1-0.3,0.4-1.1,0.8-1.9
		c0.1-0.2,0.2-0.2,0.2-0.2c0.1,0,0.2,0.1,0.2,0.3c0.1,0.6,0.2,2.4,0.3,4.6l0.1,2.7c0.1,3,0.4,4.5,0.7,5.2c0.4,0.8,0.9,1.1,1.4,1.1
		h0.4c0.6,0,0.9,0.4,0.9,1.1c0,0.8-0.3,1.2-0.9,1.2h-0.3c-0.7,0-1.2-0.2-1.7-0.5c-0.4-0.4-0.8-0.9-1.1-1.8c-0.1,0.6-0.4,1.2-0.9,1.7
		c-0.4,0.5-1,0.7-1.6,0.7c-0.7,0-1.3-0.2-1.8-0.8c-0.4-0.5-0.8-1.4-1.1-2.8c-0.5,1.2-1.2,1.8-2.2,1.8c-0.1,0-0.1,0-0.4,0
		c-0.7,0-1.1-0.1-1.4-0.2s-0.4-0.3-0.4-0.6c0-0.1,0-0.2,0.1-0.4c0.1-0.3,0.2-0.7,0.3-1c0.2-0.5,0.5-0.9,1-1.1c0.8-0.5,1.8-1,2.7-1.3
		c0-0.3,0.1-0.7,0.3-1.2c0.2-0.5,0.3-0.8,0.4-0.8c0.1,0,0.2,0.1,0.2,0.3c0.1,0.6,0.2,1.9,0.5,3.7c0.2,0.6,0.4,1.1,0.7,1.4
		c0.3,0.3,0.8,0.5,1.4,0.5C600.4,21.4,600.8,21.3,601.1,21.2z M595.2,19.7c0.7,0,1.1-0.2,1.4-0.5l-0.2-1.1c-1.2,0.6-2,1-2.3,1.4
		C594.4,19.7,594.7,19.7,595.2,19.7z"/>
	<path class="st1" d="M612.2,25.6c0.1-0.1,0.1,0,0.1,0.1c0,0.6-0.2,1.1-0.5,1.3l-4.1,2.3c-0.1,0-0.1,0-0.1-0.1c0-0.3,0.1-0.8,0.2-1
		c0.1-0.2,0.3-0.3,0.7-0.5L612.2,25.6z"/>
	<path class="st1" d="M606.3,19.4c0-0.5,0.2-1.7,0.6-2.5c0.7-1.5,1.9-2.2,2.9-2.2c0.7,0,2.1,0.4,2.8,1c0.3,0.2,0.3,0.4,0.3,0.5
		c0,0.1-0.1,0.1-0.2,0.1c-0.4,0-1-0.1-1.6-0.1c-1.1,0-3.6,1-3.7,1.7c0.1,0.4,1.3,2.3,3.3,2.3h0.1c1.2-0.5,2.7-1.1,3.7-1.6
		c0.4-0.2,0.7-0.3,0.8-0.3c0.1,0,0.1,0,0.1,0.1c0,0.2-0.5,1.2-0.8,1.7c-0.1,0.1-0.2,0.3-0.4,0.4c-0.7,0.4-1.8,0.9-3.2,1.6
		c-1.5,0.7-4.6,1.8-5.9,1.8h-0.2c-0.7,0-1-0.4-1-1.1c0-0.8,0.4-1.1,1.1-1.1h0.2c0.2,0,1.2-0.1,2.1-0.3
		C606.7,20.7,606.3,20.1,606.3,19.4z"/>
	<path class="st1" d="M621.1,11.4c0.1-0.1,0.1,0,0.1,0.1c0,0.6-0.2,1.1-0.5,1.3l-4.1,2.3c-0.1,0-0.1,0-0.1-0.1c0-0.3,0.1-0.8,0.2-1
		c0.1-0.2,0.3-0.3,0.7-0.5L621.1,11.4z"/>
	<path class="st1" d="M621.8,19.6c0.3,0.9,0.5,1.8,0.5,3.1c0,4-1.1,6.5-4.2,7.7c-0.2,0.1-0.4,0.1-0.6,0.1c-1,0-2.6-0.5-4-1.1
		c-0.3-0.2-0.4-0.3-0.4-0.4c0-0.1,0.1-0.2,0.4-0.2c0.2,0,1.1,0.2,1.8,0.2c0.9,0,1.9-0.4,3.3-1.3c1.5-1,2.8-2.3,2.8-3.8
		c0-0.5-0.1-1-0.4-1.5c-0.3,0.7-0.8,1.1-1.5,1.1c-1.3,0-2.1-0.7-2.1-2.1c0-0.5,0.3-1.3,0.6-2.1c0.5-1,1.2-1.9,1.8-1.9
		C620.5,17.5,621.3,18.4,621.8,19.6z M619.3,19.7c-0.3,0-0.5,0.2-0.7,0.5c-0.1,0.1-0.2,0.4-0.2,0.5c0,0.4,0.6,0.6,1.1,0.6
		c0.4,0,0.7-0.2,0.8-0.4C620.3,20.2,619.6,19.7,619.3,19.7z"/>
</g>
</svg>
