<?xml version="1.0" encoding="utf-8"?>
<!-- Generator: Adobe Illustrator 19.2.0, SVG Export Plug-In . SVG Version: 6.00 Build 0)  -->
<svg version="1.1" id="Layer_1" xmlns="http://www.w3.org/2000/svg" xmlns:xlink="http://www.w3.org/1999/xlink" x="0px" y="0px"
	 viewBox="0 0 563.7 53.7" style="enable-background:new 0 0 563.7 53.7;" xml:space="preserve">
<style type="text/css">
	.st0{fill:#003E4E;}
	.st1{fill:#F5712E;}
	.st2{fill:none;}
</style>
<g>
	<path d="M177.7,39.6c0,0.1-0.1,0.1-0.2,0.1c-0.4,0-1.1-0.4-1.9-1.1c-0.6-0.5-1.1-1.1-1.5-1.6c-0.9-1.1-1.5-2.4-2.1-3.8
		c-1.3,0-2-0.2-2.1-0.5c0.4-0.3,0.7-0.7,0.9-1c0.3-0.4,0.4-0.8,0.4-1.2c-0.3,0-0.7,0.2-1.2,0.6c-0.1,0.1-0.4,0.4-1,0.9
		c-0.1,0-0.2-0.1-0.3-0.4c-0.1-0.3-0.2-0.7-0.2-1.2c-0.3-0.2-0.6-0.3-0.8-0.5c-0.2-0.2-0.3-0.3-0.3-0.4c0-0.2,0.2-0.4,0.5-0.7
		c0.2-0.1,0.4-0.3,0.6-0.4c0-0.4,0-0.7,0.1-1.1c0.1-0.3,0.2-0.5,0.3-0.5c0.4,0.4,0.8,0.7,1,0.9c0.4,0.3,0.9,0.5,1.2,0.5
		c0-0.4-0.2-0.8-0.5-1.2c-0.3-0.3-0.6-0.7-1-1c0-0.2,0.3-0.3,1-0.5c0.5-0.1,0.9-0.2,1.2-0.2c0.9-2.7,2.3-4.7,4-6.1
		c0.6-0.5,1-0.7,1.2-0.7c0.1,0,0.2,0.1,0.2,0.2c0,0.1-0.2,0.4-0.7,0.9c-1.5,1.7-2.3,3.6-2.7,5.7c0.4,0.1,0.7,0.1,0.8,0.2
		c0.1,0.1,0.2,0.2,0.2,0.3c-0.4,0.3-0.7,0.7-0.9,1c-0.3,0.4-0.5,0.8-0.5,1.2c0.4,0,0.8-0.2,1.1-0.5c0.2-0.2,0.6-0.6,1-1
		c0.2,0,0.3,0.2,0.5,0.7c0.1,0.4,0.1,0.7,0.1,0.9c0.7,0.3,1.1,0.7,1.1,1c0,0.3-0.3,0.6-1,1c0,0.6-0.1,1.1-0.2,1.3
		c-0.1,0.2-0.2,0.2-0.4,0.3c-0.7-0.9-1.5-1.3-2.2-1.4c0,0.3,0.2,0.8,0.5,1.2c0.1,0.2,0.5,0.5,1,1c0,0.1-0.1,0.1-0.2,0.2
		c-0.1,0.1-0.4,0.1-0.9,0.3c0.2,1.1,0.6,2.2,1.3,3.3c0.7,1.1,1.4,2.1,2.2,2.8C177.6,39.4,177.7,39.5,177.7,39.6z M170.8,30
		c-0.2-0.1-0.5-0.2-0.8-0.3c0,0-0.2-0.1-0.5-0.2c-0.3-0.1-0.4-0.2-0.4-0.3c0,0,0.3-0.2,1-0.3c0.1-0.1,0.4-0.2,0.7-0.3
		c-0.4-0.1-0.7-0.3-1-0.5c-0.1-0.1-0.4-0.4-0.7-0.6c-0.1,0-0.1,0.1-0.1,0.3c0,0.2,0,0.4,0,0.8c-0.6,0.3-0.9,0.6-0.9,0.7
		c0,0.1,0.1,0.2,0.3,0.3c0.2,0.1,0.4,0.2,0.7,0.3c0,0.1,0,0.4,0.1,0.7c0.1,0.4,0.1,0.6,0.2,0.6l0.7-0.7
		C170.2,30.3,170.5,30.1,170.8,30z M176.5,19.3c-1.8,1.2-3.2,3.4-4.3,6.5c-0.7,0-1.2,0-1.4,0.1c-0.2,0-0.3,0.1-0.3,0.2
		c0.5,0.4,0.9,0.9,1.2,1.4c0.1-0.3,0.3-0.5,0.4-0.6c0.1-0.2,0.2-0.5,0.4-0.7c0,0,0.1,0.1,0.1,0.3c0,0.2,0.1,0.3,0.1,0.3
		c0.1,0.1,0.2,0.3,0.4,0.7c0.1-0.3,0.3-0.6,0.5-0.9c0.1-0.1,0.3-0.4,0.6-0.6c0-0.1-0.1-0.1-0.3-0.2c-0.1,0-0.3,0-0.5-0.1
		c0.3-1.2,0.5-2,0.6-2.4C174.5,22.1,175.3,20.7,176.5,19.3z M176.9,39.2c-0.7-0.7-1.4-1.5-2-2.6c-0.7-1.2-1.1-2.5-1.4-3.8
		c0.5,0,0.8-0.1,0.8-0.2c-0.5-0.5-1-1-1.2-1.5c-0.1,0.2-0.2,0.4-0.3,0.7c0,0-0.1,0.2-0.2,0.4c-0.1,0.2-0.1,0.3-0.2,0.3
		c-0.2,0-0.4-0.4-0.7-1.3c-0.2,0.4-0.4,0.7-0.6,0.9c-0.2,0.2-0.4,0.4-0.6,0.6c0,0,0.1,0.1,0.3,0.1c0.1,0,0.4,0.1,0.6,0.1
		c0.2,0,0.3,0,0.4,0c0.1,0,0.3,0,0.3,0C173.2,35.6,174.7,37.8,176.9,39.2z M173.7,29.3c0-0.4-0.1-0.7-0.4-0.9
		c-0.3-0.2-0.6-0.4-0.9-0.4c-0.4,0-0.7,0.1-0.9,0.4c-0.2,0.2-0.4,0.6-0.4,0.9c0,0.3,0.1,0.6,0.4,0.9c0.3,0.2,0.6,0.4,0.9,0.4
		c0.4,0,0.7-0.1,0.9-0.4C173.6,29.9,173.7,29.6,173.7,29.3z M176.8,29.2c0-0.2-0.3-0.3-0.9-0.6c0-0.4,0-0.7-0.1-0.9
		c-0.1-0.2-0.1-0.4-0.2-0.4c-0.1,0.1-0.3,0.3-0.7,0.7c-0.3,0.3-0.6,0.4-0.9,0.6c0.1,0,0.4,0.2,1.1,0.4c0.4,0.1,0.6,0.3,0.6,0.3
		c0,0.1-0.2,0.2-0.6,0.3c-0.3,0.1-0.7,0.2-1.1,0.3c0.3,0.1,0.6,0.3,1,0.5c0.1,0.1,0.4,0.3,0.6,0.6c0.1,0,0.2-0.4,0.2-1.2
		C176.5,29.6,176.8,29.3,176.8,29.2z"/>
	<path class="st0" d="M199.4,17.5c-0.1-0.1-0.1-0.2-0.2-0.4c0-0.1,0-0.3,0.1-0.4c0.1-0.2,0.2-0.4,0.3-0.6c0.1-0.2,0.3-0.4,0.4-0.6
		c0.2-0.2,0.3-0.3,0.5-0.4c0.2-0.1,0.4-0.2,0.6-0.2c0.3,0,0.5,0.1,0.6,0.3c0.1,0.2,0.2,0.5,0.2,0.8c0,0.3,0,0.6,0,0.8
		c0,0.3-0.1,0.5-0.1,0.6c0,0,0,0.1,0.1,0.1c0.1,0.1,0.2,0.1,0.2,0.2c0,0.1,0.1,0.1,0.1,0.2c0,0.1,0,0.2,0,0.4c0,0.2-0.1,0.3-0.2,0.4
		c0,0.1-0.1,0.1-0.2,0.1s-0.1,0-0.2-0.1c0-0.1-0.1-0.1-0.1-0.1s-0.1-0.1-0.1-0.1c-0.3,0.3-0.5,0.6-0.8,0.8c-0.3,0.2-0.6,0.5-0.9,0.7
		c-0.3,0.2-0.6,0.4-1,0.5c-0.3,0.2-0.7,0.3-1.1,0.5c-0.1,0-0.1,0.1-0.2,0.1c-0.1,0-0.2,0-0.3,0.1c-0.1,0-0.2,0-0.2,0s-0.1,0-0.2,0
		c-0.1,0-0.1-0.1,0-0.2c0.1-0.1,0.2-0.1,0.3-0.2c0.3-0.2,0.6-0.3,0.9-0.5c0.3-0.2,0.6-0.4,0.9-0.6c0.3-0.2,0.6-0.4,0.9-0.6
		c0.3-0.2,0.6-0.5,0.8-0.7c-0.2-0.1-0.5-0.2-0.7-0.3C199.8,17.8,199.6,17.6,199.4,17.5z M198.4,18.6c0,0.1-0.1,0.1-0.1,0.1
		c-0.1,0-0.1-0.1-0.1-0.1c-0.2-0.2-0.4-0.4-0.6-0.6c-0.2-0.3-0.3-0.5-0.2-0.9c0-0.3,0.1-0.6,0.2-0.9c0.1-0.3,0.3-0.7,0.5-1
		c0.2-0.4,0.5-0.7,0.8-1.1c0.3-0.3,0.7-0.6,1.1-0.9c0.5-0.3,0.9-0.5,1.4-0.5c0.5-0.1,0.9,0,1.2,0.1c0.2,0.1,0.4,0.2,0.5,0.4
		c0.1,0.2,0.2,0.4,0.2,0.6c0,0.2,0,0.5,0,0.7c-0.1,0.2-0.1,0.5-0.3,0.6c0,0.1-0.1,0.1-0.1,0.1c0,0,0,0,0-0.1c0-0.1,0-0.2,0-0.3
		c0-0.1,0-0.3-0.1-0.4c0-0.1-0.1-0.3-0.2-0.4c-0.1-0.1-0.2-0.2-0.3-0.3c-0.2-0.1-0.4-0.2-0.7-0.2c-0.3,0-0.5,0-0.8,0.1
		c-0.3,0.1-0.6,0.2-0.8,0.3c-0.3,0.1-0.5,0.3-0.7,0.5c-0.4,0.3-0.7,0.7-1,1.2c-0.3,0.4-0.4,0.9-0.3,1.4c0,0.1,0,0.1,0.1,0.2
		c0.1,0.1,0.1,0.1,0.2,0.2c0.1,0.1,0.1,0.1,0.2,0.2c0.1,0.1,0.1,0.1,0.2,0.2c0,0.1,0.1,0.1,0.1,0.2c0,0.1,0,0.1,0,0.2
		c0,0.1-0.1,0.2-0.1,0.3C198.4,18.4,198.4,18.5,198.4,18.6z M200,16.5c0.2,0.2,0.4,0.4,0.6,0.5c0.2,0.1,0.5,0.2,0.6,0.3h0
		c0,0,0-0.1,0-0.2c0-0.1,0-0.2,0-0.3c0-0.1,0-0.2,0-0.4c0-0.1-0.1-0.2-0.2-0.3c-0.1-0.1-0.2-0.1-0.3-0.1c-0.1,0-0.2,0-0.4,0.1
		c-0.1,0.1-0.2,0.1-0.3,0.2C200.1,16.4,200,16.4,200,16.5z"/>
	<path class="st0" d="M197.1,30.6c0.8-1,1.7-2,2.6-2.9c0.9-0.9,2-1.7,3.1-2.3c0.4-0.2,0.9-0.3,1.5-0.3c0.6,0,1.1,0.1,1.7,0.3
		c0.5,0.2,1,0.5,1.4,0.8c0.4,0.4,0.6,0.8,0.6,1.3c0,0.9-0.3,1.7-0.7,2.3c-0.4,0.6-0.9,1.1-1.6,1.6c-0.6,0.4-1.4,0.7-2.2,0.9
		s-1.7,0.4-2.5,0.4c-0.8,0.1-1.5,0.1-2.3,0.1c-0.8,0-1.5-0.1-2.3-0.3c0.1,0.4,0.1,0.9,0.1,1.3c0,0.5,0,0.9-0.1,1.3
		c-0.1,0.4-0.2,0.8-0.3,1.2c-0.1,0.4-0.3,0.7-0.5,1c-0.3,0.5-0.8,0.9-1.3,1.3c-0.5,0.4-1,0.7-1.6,0.9c-0.6,0.2-1.1,0.4-1.7,0.6
		c-0.6,0.1-1.2,0.2-1.8,0.2c-0.7,0-1.4-0.1-2-0.3c-0.6-0.2-1.1-0.5-1.5-0.9c-0.4-0.4-0.8-0.9-1-1.5c-0.2-0.6-0.4-1.2-0.4-1.9
		c0-0.8,0.1-1.6,0.4-2.3c0.3-0.8,0.6-1.5,1.1-2.1c0.1-0.1,0.1-0.1,0.1-0.1c0,0,0.1,0,0.1,0.1c0,0,0,0.1,0,0.1c0,0.1,0,0.1,0,0.1
		c-0.2,0.4-0.3,0.8-0.5,1.2c-0.1,0.4-0.2,0.8-0.3,1.2c-0.1,0.4-0.1,0.8,0,1.2c0,0.4,0.1,0.8,0.3,1.2c0.1,0.3,0.3,0.6,0.5,0.9
		c0.2,0.3,0.5,0.5,0.8,0.7c0.3,0.2,0.7,0.4,1.1,0.5c0.4,0.1,0.9,0.2,1.4,0.2c0.6,0,1.2-0.1,1.8-0.2c0.6-0.1,1.2-0.3,1.8-0.5
		c0.6-0.2,1.1-0.5,1.5-0.9c0.5-0.4,0.9-0.8,1.2-1.3c0-0.5,0-0.9-0.1-1.3c-0.1-0.4-0.2-0.8-0.3-1.3c-0.1-0.4-0.3-0.8-0.5-1.2
		c-0.2-0.4-0.4-0.8-0.6-1.1c0.1-0.3,0.2-0.6,0.2-0.9c0.1-0.3,0.2-0.6,0.3-0.9c0-0.1,0.1-0.1,0.1-0.1c0,0,0.1,0,0.1,0.1
		c0.2,0.3,0.4,0.5,0.5,0.8c0.1,0.2,0.3,0.5,0.5,0.8c0.1,0.1,0.1,0.1,0.2,0.2c0.1,0.1,0.2,0.1,0.3,0.2c0.1,0.1,0.2,0.1,0.4,0.1
		C196.9,30.5,197,30.6,197.1,30.6z M202.6,27.1c-0.4,0.2-0.9,0.4-1.3,0.6c-0.4,0.3-0.8,0.6-1.2,0.9c-0.4,0.3-0.7,0.7-1.1,1
		c-0.3,0.4-0.7,0.7-1,1.1c0.7,0.1,1.4,0.1,2.2,0.1c0.8,0,1.6-0.2,2.4-0.3c0.8-0.2,1.6-0.4,2.3-0.7c0.7-0.3,1.3-0.7,1.7-1.1
		c-0.2-0.3-0.4-0.6-0.7-0.9c-0.3-0.2-0.7-0.4-1.1-0.6c-0.4-0.1-0.8-0.2-1.2-0.2C203.4,26.9,203,26.9,202.6,27.1z"/>
	<path class="st0" d="M214.8,33.5l-1.3,0c-0.4,0-0.7,0-1-0.1c-0.3-0.1-0.6-0.2-0.8-0.4c-0.2-0.2-0.4-0.4-0.5-0.7
		c-0.1-0.3-0.2-0.6-0.1-0.9c0-0.2,0.1-0.5,0.3-0.9c0.1-0.3,0.3-0.7,0.5-1c0.2-0.3,0.5-0.6,0.7-0.8c0.3-0.2,0.5-0.3,0.8-0.3
		c0.3,0,0.6,0.1,0.8,0.4c0.3,0.2,0.5,0.5,0.7,0.9c0.2,0.3,0.4,0.7,0.5,1.1c0.1,0.4,0.2,0.7,0.2,0.9l1,0h0.2c0.1,0,0.2,0,0.3,0.1
		c0.1,0.1,0.2,0.1,0.3,0.2c0.1,0.1,0.1,0.2,0.2,0.3c0,0.1,0.1,0.2,0.1,0.4c0,0.2-0.1,0.5-0.2,0.7c-0.1,0.2-0.3,0.3-0.6,0.3h-0.2
		l-1.1,0c-0.2,0.7-0.3,1.4-0.5,2.1c-0.2,0.7-0.5,1.3-0.8,1.9c-0.3,0.6-0.7,1.1-1.1,1.5c-0.4,0.4-1,0.8-1.6,1
		c-0.4,0.2-0.9,0.3-1.4,0.3c-0.5,0-1,0-1.6,0c-0.5,0-1-0.1-1.6-0.2c-0.5-0.1-1-0.2-1.4-0.3c-0.1,0-0.2-0.1-0.2-0.1
		c0-0.1,0-0.1,0-0.2c0-0.1,0.1-0.1,0.2-0.2c0.1,0,0.2-0.1,0.3-0.1c0.4,0,0.8,0,1.3,0c0.5,0,0.9-0.1,1.4-0.2c0.5-0.1,0.9-0.2,1.4-0.3
		c0.4-0.1,0.8-0.3,1.2-0.5c0.5-0.3,0.9-0.6,1.3-0.9c0.4-0.4,0.7-0.8,1-1.2c0.3-0.4,0.6-0.9,0.8-1.3
		C214.5,34.4,214.7,33.9,214.8,33.5z M212.1,31.2c0.1,0.1,0.2,0.2,0.4,0.3c0.2,0.1,0.4,0.1,0.7,0.1c0.3,0,0.5,0,0.8,0
		c0.3,0,0.4,0,0.6,0c0,0,0-0.1-0.1-0.3c-0.1-0.1-0.2-0.3-0.3-0.4c-0.1-0.2-0.3-0.3-0.5-0.4c-0.2-0.1-0.3-0.2-0.5-0.2
		c-0.1,0-0.2,0-0.3,0.1c-0.1,0.1-0.2,0.1-0.3,0.2c-0.1,0.1-0.2,0.2-0.2,0.3C212.1,31,212.1,31.1,212.1,31.2z"/>
	<path class="st0" d="M223.2,21.1c0.3-0.2,0.6-0.3,0.8-0.5c0.3-0.2,0.5-0.3,0.8-0.5c0.3-0.2,0.5-0.4,0.8-0.6
		c0.3-0.2,0.5-0.5,0.7-0.7c-0.2-0.1-0.5-0.2-0.7-0.3c-0.3-0.2-0.5-0.3-0.6-0.5c-0.1-0.1-0.1-0.2-0.1-0.4c0-0.1,0-0.3,0-0.4
		c0.1-0.2,0.2-0.4,0.3-0.7c0.1-0.2,0.3-0.5,0.4-0.6c0.2-0.2,0.4-0.4,0.6-0.5c0.2-0.1,0.4-0.2,0.6-0.2c0.3,0,0.5,0.1,0.6,0.4
		c0.1,0.2,0.2,0.5,0.2,0.8c0,0.3,0,0.6,0,0.9c0,0.3-0.1,0.5-0.1,0.6c0,0,0,0.1,0,0.1c0.1,0.1,0.2,0.1,0.2,0.2c0,0.1,0.1,0.1,0.1,0.2
		c0.1,0.1,0.1,0.3,0,0.5c0,0.2-0.1,0.3-0.2,0.4c-0.1,0.1-0.1,0.1-0.2,0.1c-0.1,0-0.1,0-0.2-0.1c0-0.1-0.1-0.1-0.1-0.1
		c0,0-0.1-0.1-0.2-0.1c-0.2,0.3-0.5,0.6-0.8,0.8c-0.3,0.3-0.5,0.5-0.8,0.7c-0.3,0.2-0.6,0.4-1,0.6c-0.3,0.2-0.7,0.3-1,0.4
		c-0.1,0-0.3,0.1-0.4,0.1c-0.2,0-0.2,0-0.3,0c0-0.1,0-0.1,0.1-0.2C223,21.2,223.1,21.2,223.2,21.1z M225.5,16.8
		c0.2,0.2,0.4,0.4,0.6,0.6c0.2,0.1,0.5,0.2,0.7,0.3h0c0-0.1,0-0.2,0-0.3c0-0.1,0-0.2,0-0.3c0-0.1,0-0.2-0.1-0.3
		c0-0.1-0.1-0.2-0.2-0.3c-0.1-0.1-0.2-0.1-0.3-0.1c-0.1,0-0.2,0-0.4,0.1c-0.1,0-0.2,0.1-0.3,0.2C225.6,16.7,225.6,16.7,225.5,16.8z"
		/>
	<path class="st0" d="M223.4,31.3c0.4-0.5,0.9-1,1.4-1.5c0.5-0.5,1-1,1.5-1.5c0.5-0.5,1-0.9,1.6-1.3c0.5-0.4,1-0.7,1.5-1
		c0.4-0.2,0.9-0.3,1.4-0.3c0.6,0,1.1,0.2,1.6,0.4c0.5,0.2,1,0.5,1.3,0.9c0.4,0.4,0.6,0.8,0.6,1.3c0,0.8-0.2,1.5-0.5,2.1
		c-0.3,0.6-0.8,1.1-1.3,1.5c-0.5,0.4-1.2,0.7-1.9,1c-0.7,0.3-1.4,0.4-2.2,0.6c-0.9,0.2-1.9,0.2-2.8,0.2c-0.9,0-1.8-0.1-2.5-0.2
		c-0.1,0.1-0.1,0.2-0.2,0.4c-0.1,0.2-0.1,0.3-0.2,0.5c-0.1,0.2-0.2,0.3-0.4,0.3c-0.1,0-0.1-0.1-0.2-0.2c0-0.1,0-0.2,0-0.3
		c0-0.2,0.1-0.3,0.1-0.4c0-0.1,0.1-0.3,0.2-0.5c-0.5-0.2-0.8-0.4-1.1-0.6c-0.3-0.2-0.6-0.5-0.9-0.9c-0.2,0.3-0.5,0.6-0.7,0.8
		c-0.2,0.2-0.5,0.4-0.8,0.6c-0.6,0.3-1.3,0.5-2.1,0.5h-0.2c-0.3,0-0.5-0.1-0.6-0.3c-0.1-0.2-0.2-0.4-0.2-0.7c0-0.2,0.1-0.5,0.2-0.7
		c0.1-0.2,0.3-0.3,0.6-0.3h0.2c0.4,0,0.8,0,1.2-0.1c0.4,0,0.7-0.2,1.1-0.4c0.4-0.2,0.7-0.5,0.9-0.9c0.2-0.4,0.4-0.8,0.6-1.2
		c0.1-0.1,0.1-0.2,0.2-0.2c0.1,0,0.2,0,0.2,0.1c0,0.3,0.1,0.6,0.3,0.9c0.2,0.3,0.4,0.5,0.6,0.7c0.2,0.2,0.5,0.4,0.8,0.5
		C222.9,31.2,223.2,31.3,223.4,31.3z M233.1,29.3c-0.2-0.4-0.5-0.7-0.8-0.9c-0.3-0.3-0.7-0.4-1.1-0.6c-0.4-0.1-0.8-0.2-1.2-0.2
		c-0.4,0-0.7,0-1,0.2c-0.4,0.2-0.8,0.4-1.2,0.7c-0.4,0.3-0.8,0.6-1.2,0.9c-0.4,0.3-0.8,0.7-1.1,1c-0.4,0.4-0.7,0.7-1,1.1
		c0.6,0.1,1.2,0.1,2.1,0.1c0.8,0,1.6-0.1,2.5-0.3c0.8-0.2,1.6-0.4,2.3-0.7C232.1,30.1,232.7,29.8,233.1,29.3z"/>
	<path class="st0" d="M239.5,20.4c0,0.3,0,0.6-0.1,0.8s-0.2,0.5-0.4,0.7c-0.2,0.2-0.4,0.4-0.6,0.5c-0.3,0.1-0.5,0.2-0.9,0.2
		c-0.4,0-0.8-0.1-1.1-0.4c-0.3-0.3-0.5-0.7-0.5-1.1c0-0.2,0-0.5,0.1-0.9c0.1-0.3,0.2-0.7,0.3-1c0.2-0.3,0.3-0.6,0.6-0.8
		c0.2-0.2,0.5-0.4,0.9-0.4c0.3,0,0.6,0,0.8,0.2c0.2,0.2,0.4,0.4,0.5,0.6c0.1,0.3,0.2,0.5,0.3,0.8C239.5,20,239.5,20.2,239.5,20.4z
		 M236.6,20.7c0,0.1,0,0.3,0.1,0.3c0.1,0.1,0.2,0.1,0.3,0.2c0.1,0,0.2,0.1,0.4,0.1c0.1,0,0.2,0,0.3,0c0.2,0,0.5-0.1,0.7-0.2
		c0.2-0.1,0.4-0.2,0.6-0.4c0-0.2,0-0.3-0.1-0.5c-0.1-0.2-0.1-0.3-0.2-0.5c-0.1-0.1-0.2-0.2-0.4-0.3c-0.2-0.1-0.3-0.1-0.6-0.1
		c-0.1,0-0.3,0.1-0.4,0.2c-0.1,0.1-0.2,0.2-0.3,0.3c-0.1,0.1-0.2,0.2-0.3,0.4C236.6,20.5,236.6,20.6,236.6,20.7z"/>
	<path class="st0" d="M239.7,30.1c0-0.1,0.1-0.1,0.2,0c0.3,0.3,0.5,0.6,0.8,0.7c0.3,0.2,0.5,0.3,0.8,0.4c0.1,0.1,0.3,0.1,0.4,0.1
		c0.1,0,0.3,0.1,0.4,0.1c0.1,0,0.3,0,0.5,0c0.2,0,0.4,0,0.6,0h0.2c0.3,0,0.5,0.1,0.6,0.3c0.1,0.2,0.2,0.4,0.2,0.7
		c0,0.3-0.1,0.5-0.2,0.7c-0.1,0.2-0.3,0.3-0.6,0.3h-0.2c-0.3,0-0.6,0-0.9,0c-0.3,0-0.6-0.1-0.9-0.1c-0.1,0.5-0.2,0.9-0.3,1.3
		c-0.1,0.4-0.2,0.8-0.4,1.1c-0.3,0.8-0.7,1.5-1.1,2.1c-0.4,0.6-1,1.1-1.8,1.5c-0.4,0.2-0.9,0.4-1.3,0.5c-0.5,0.1-0.9,0.2-1.4,0.2
		c-0.3,0-0.6,0-0.9,0c-0.3,0-0.6,0-0.9-0.1c-0.3,0-0.6-0.1-0.9-0.2c-0.3-0.1-0.7-0.2-1-0.3c-0.1,0-0.2-0.1-0.2-0.2
		c0-0.1,0-0.1,0-0.2c0-0.1,0.2-0.2,0.5-0.2c0.5,0,1,0,1.4,0c0.4,0,0.9-0.1,1.3-0.2c0.4-0.1,0.8-0.2,1.2-0.4c0.4-0.2,0.9-0.4,1.3-0.6
		c0.5-0.3,1-0.6,1.4-0.9c0.4-0.4,0.8-0.7,1.1-1.1c0.3-0.4,0.5-0.8,0.8-1.3c0.2-0.4,0.4-0.9,0.5-1.4c-0.3-0.1-0.6-0.3-0.9-0.6
		c-0.3-0.2-0.6-0.5-0.7-0.7L239.7,30.1z"/>
	<path class="st0" d="M250.5,14.9c-0.4,0.2-0.9,0.4-1.3,0.6c-0.5,0.2-0.9,0.4-1.3,0.6c-0.4,0.2-0.8,0.4-1.2,0.5
		c-0.4,0.2-0.7,0.3-1,0.4c-0.1,0-0.1,0-0.1,0c0,0,0-0.1,0-0.1l0.6-1.2c0-0.1,0.1-0.1,0.1-0.1c0,0,0.1-0.1,0.1-0.1l4.6-2.1
		c0.1-0.1,0.2,0,0.1,0.1l-0.5,1.2C250.6,14.8,250.6,14.9,250.5,14.9z M248.2,20c-0.2,0.4-0.4,0.7-0.6,0.8c-0.3,0.2-0.6,0.3-0.9,0.3
		c-0.3,0-0.5-0.1-0.7-0.2c-0.2-0.2-0.3-0.4-0.4-0.8c0-0.2,0-0.3,0-0.5c0-0.2,0.1-0.4,0.2-0.5c0.1-0.2,0.1-0.3,0.2-0.4
		c0.1-0.1,0.2-0.2,0.3-0.2c0.1,0,0.1,0.1,0,0.2c-0.1,0.1-0.1,0.2-0.1,0.3c0,0.1,0,0.3-0.1,0.4c0,0.1,0,0.2,0,0.3
		c0,0.1,0.1,0.2,0.2,0.2c0.1,0.1,0.3,0.1,0.4,0.1c0.1,0,0.3,0,0.4-0.1c0.1-0.1,0.3-0.1,0.4-0.2c0.1-0.1,0.2-0.2,0.3-0.3
		c0.1-0.1,0.2-0.3,0.2-0.5c0.1-0.2,0.1-0.4,0.1-0.5c0-0.1,0-0.2,0.1-0.3c0.1-0.1,0.1-0.2,0.3-0.2c0,0,0,0,0.1,0.1c0,0,0,0.1,0,0.2
		c0,0.1,0,0.1,0,0.2c0,0.1,0,0.1,0,0.1c0,0.2,0,0.4,0.1,0.6c0.1,0.1,0.2,0.2,0.5,0.3c0.1,0,0.3,0,0.5,0c0.2-0.1,0.4-0.1,0.5-0.3
		c0,0,0-0.1,0-0.1c0-0.1,0-0.2,0-0.2c0-0.1-0.1-0.2-0.1-0.3c0-0.1-0.1-0.2-0.1-0.2l0.5-0.9c0.1,0,0.2,0.1,0.2,0.3
		c0,0.1,0.1,0.3,0.1,0.5c0,0.2,0,0.4,0,0.6c0,0.2,0,0.3-0.1,0.5c-0.1,0.3-0.2,0.6-0.4,0.9c-0.2,0.3-0.4,0.4-0.8,0.5
		c-0.3,0.1-0.6,0-0.8-0.1C248.5,20.3,248.3,20.2,248.2,20z"/>
	<path class="st0" d="M243.4,31.5c0.4,0,0.7,0,1.1,0c0.4,0,0.7-0.1,1-0.1c0.3-0.1,0.6-0.2,0.8-0.3c0.2-0.1,0.4-0.3,0.6-0.6
		c0.2-0.5,0.5-0.9,0.7-1.4c0.2-0.5,0.4-0.9,0.7-1.3c0.1-0.2,0.2-0.3,0.4-0.5c0.2-0.2,0.3-0.4,0.5-0.6c0.2-0.2,0.4-0.3,0.6-0.4
		c0.2-0.1,0.4-0.2,0.6-0.2c0.2,0,0.4,0.1,0.6,0.2c0.2,0.1,0.4,0.3,0.6,0.6c0.2,0.2,0.3,0.5,0.5,0.8c0.1,0.3,0.3,0.6,0.4,0.9
		c0.1,0.3,0.2,0.6,0.2,0.8c0.1,0.3,0.1,0.5,0.1,0.7c0,0.2,0,0.4-0.1,0.6c0,0.2-0.1,0.4-0.2,0.6c-0.1,0.2-0.2,0.3-0.3,0.5
		c-0.1,0.1-0.3,0.3-0.4,0.3c-0.2,0.1-0.5,0.1-0.8,0.1c-0.3,0-0.7-0.1-1.1-0.2c-0.4-0.1-0.8-0.2-1.2-0.4c-0.4-0.2-0.8-0.4-1.2-0.6
		c-0.3,1-0.8,1.7-1.5,2.1c-0.7,0.4-1.5,0.7-2.5,0.7h-0.2c-0.3,0-0.5-0.1-0.6-0.3c-0.1-0.2-0.2-0.4-0.2-0.7c0-0.3,0.1-0.5,0.2-0.7
		c0.1-0.2,0.3-0.3,0.6-0.3H243.4z M251.4,30c0,0,0-0.1,0-0.2c0-0.1-0.1-0.2-0.2-0.4c-0.1-0.1-0.1-0.3-0.2-0.4
		c-0.1-0.1-0.1-0.2-0.1-0.2c-0.1-0.2-0.3-0.4-0.5-0.6c-0.2-0.2-0.5-0.3-0.8-0.3c-0.1,0-0.3,0-0.4,0.1c-0.1,0.1-0.3,0.2-0.4,0.3
		c-0.1,0.1-0.2,0.2-0.3,0.3c-0.1,0.1-0.1,0.2-0.2,0.4c0.4,0.4,0.9,0.6,1.4,0.8C250.3,29.9,250.8,30,251.4,30z"/>
	<path class="st1" d="M265.3,15.9c-0.1-0.1-0.1-0.2-0.2-0.4c0-0.1,0-0.3,0.1-0.4c0.1-0.2,0.2-0.4,0.3-0.6c0.1-0.2,0.3-0.4,0.4-0.6
		c0.2-0.2,0.3-0.3,0.5-0.4c0.2-0.1,0.4-0.2,0.6-0.2c0.3,0,0.5,0.1,0.6,0.3c0.1,0.2,0.2,0.5,0.2,0.8c0,0.3,0,0.6,0,0.8
		c0,0.3-0.1,0.5-0.1,0.6c0,0,0,0.1,0.1,0.1c0.1,0.1,0.2,0.1,0.2,0.2c0,0.1,0.1,0.1,0.1,0.2c0,0.1,0,0.2,0,0.4c0,0.2-0.1,0.3-0.2,0.4
		c0,0.1-0.1,0.1-0.2,0.1c-0.1,0-0.1,0-0.2-0.1c0-0.1-0.1-0.1-0.1-0.1c-0.1,0-0.1-0.1-0.1-0.1c-0.3,0.3-0.5,0.6-0.8,0.8
		c-0.3,0.2-0.6,0.5-0.9,0.7c-0.3,0.2-0.6,0.4-1,0.5c-0.3,0.2-0.7,0.3-1.1,0.5c-0.1,0-0.1,0.1-0.2,0.1c-0.1,0-0.2,0-0.3,0.1
		c-0.1,0-0.2,0-0.2,0c-0.1,0-0.1,0-0.2,0c-0.1,0-0.1-0.1,0-0.2c0.1-0.1,0.2-0.1,0.3-0.2c0.3-0.2,0.6-0.3,0.9-0.5
		c0.3-0.2,0.6-0.4,0.9-0.6c0.3-0.2,0.6-0.4,0.9-0.6c0.3-0.2,0.6-0.5,0.8-0.7c-0.2-0.1-0.5-0.2-0.7-0.3
		C265.7,16.2,265.5,16.1,265.3,15.9z M264.3,17c0,0.1-0.1,0.1-0.1,0.1c-0.1,0-0.1-0.1-0.1-0.1c-0.2-0.2-0.4-0.4-0.6-0.6
		c-0.2-0.3-0.3-0.5-0.2-0.9c0-0.3,0.1-0.6,0.2-0.9c0.1-0.3,0.3-0.7,0.5-1c0.2-0.4,0.5-0.7,0.8-1.1c0.3-0.3,0.7-0.6,1.1-0.9
		c0.5-0.3,0.9-0.5,1.4-0.5c0.5-0.1,0.9,0,1.2,0.1c0.2,0.1,0.4,0.2,0.5,0.4c0.1,0.2,0.2,0.4,0.2,0.6c0,0.2,0,0.5,0,0.7
		c-0.1,0.2-0.1,0.5-0.3,0.6c0,0.1-0.1,0.1-0.1,0.1c0,0,0,0,0-0.1c0-0.1,0-0.2,0-0.3c0-0.1,0-0.3-0.1-0.4c0-0.1-0.1-0.3-0.2-0.4
		c-0.1-0.1-0.2-0.2-0.3-0.3c-0.2-0.1-0.4-0.2-0.7-0.2c-0.3,0-0.5,0-0.8,0.1c-0.3,0.1-0.6,0.2-0.8,0.3c-0.3,0.1-0.5,0.3-0.7,0.5
		c-0.4,0.3-0.7,0.7-1,1.2c-0.3,0.4-0.4,0.9-0.3,1.4c0,0.1,0,0.1,0.1,0.2c0.1,0.1,0.1,0.1,0.2,0.2c0.1,0.1,0.1,0.1,0.2,0.2
		c0.1,0.1,0.1,0.1,0.2,0.2c0,0.1,0.1,0.1,0.1,0.2c0,0.1,0,0.1,0,0.2c0,0.1-0.1,0.2-0.1,0.3C264.3,16.9,264.3,16.9,264.3,17z
		 M265.9,14.9c0.2,0.2,0.4,0.4,0.6,0.5c0.2,0.1,0.5,0.2,0.6,0.3h0c0,0,0-0.1,0-0.2c0-0.1,0-0.2,0-0.3c0-0.1,0-0.2,0-0.4
		c0-0.1-0.1-0.2-0.2-0.3c-0.1-0.1-0.2-0.1-0.3-0.1c-0.1,0-0.2,0-0.4,0.1c-0.1,0.1-0.2,0.1-0.3,0.2C266,14.8,265.9,14.9,265.9,14.9z"
		/>
	<path class="st1" d="M272.1,32.1c-0.1,0.8-0.4,1.5-0.9,2.1c-0.5,0.6-1,1.1-1.7,1.5c-0.7,0.4-1.4,0.7-2.1,0.9
		c-0.8,0.2-1.5,0.3-2.2,0.3c-0.7,0-1.3-0.1-1.9-0.3c-0.6-0.2-1.1-0.5-1.5-0.9c-0.4-0.4-0.8-0.9-1-1.5s-0.4-1.2-0.4-2
		c0-0.8,0.1-1.6,0.4-2.3c0.3-0.7,0.6-1.4,1-2.1c0.1-0.1,0.1-0.1,0.1-0.1c0,0,0.1,0,0.1,0.1c0,0,0,0.1,0.1,0.1c0,0.1,0,0.1,0,0.1
		c-0.4,0.8-0.7,1.6-0.8,2.4c-0.1,0.8,0,1.5,0.2,2.2c0.3,0.7,0.7,1.2,1.3,1.6c0.6,0.4,1.5,0.6,2.5,0.6c0.5,0,1.1-0.1,1.7-0.2
		c0.6-0.1,1.1-0.3,1.6-0.5c0.5-0.2,1-0.5,1.5-0.8c0.5-0.3,0.9-0.7,1.2-1.1c0-0.5,0-1-0.2-1.6c-0.1-0.6-0.3-1.1-0.5-1.6
		c-0.2-0.5-0.4-1.1-0.7-1.6c-0.3-0.5-0.5-1-0.8-1.4c0.1-0.3,0.2-0.6,0.3-0.9c0.1-0.3,0.2-0.6,0.3-0.9c0-0.1,0.1-0.1,0.1-0.1
		c0,0,0.1,0.1,0.1,0.1c0.4,0.5,0.7,1.1,1,1.7c0.3,0.6,0.6,1.2,0.7,1.9c0.2,0.7,0.3,1.3,0.4,2C272.2,30.7,272.2,31.4,272.1,32.1z
		 M266.3,21l1.6,1.3c0,0,0.1,0.1,0.1,0.1c0,0,0,0.1,0,0.1l-1.1,1.3c-0.1,0.1-0.1,0.1-0.2,0l-1.6-1.3c-0.1-0.1-0.1-0.1,0-0.2l1.1-1.3
		C266.1,20.9,266.2,20.9,266.3,21z"/>
	<path class="st1" d="M279.5,31.5c0.3,0,0.4,0.1,0.6,0.3c0.1,0.2,0.2,0.4,0.2,0.7c0,0.2-0.1,0.5-0.2,0.7c-0.1,0.2-0.3,0.3-0.6,0.3
		c0,0-0.1,0-0.1,0c0,0-0.1,0-0.1,0c-0.8,0-1.4-0.1-1.9-0.4c-0.5-0.3-0.9-0.7-1.2-1.1c-0.3-0.6-0.6-1.2-0.7-1.8
		c-0.1-0.6-0.2-1.3-0.3-1.9c-0.1-0.7-0.2-1.5-0.2-2.2c-0.1-0.7-0.2-1.5-0.3-2.2c-0.1-0.8-0.2-1.5-0.3-2.3c-0.1-0.8-0.3-1.6-0.6-2.5
		c0-0.1,0-0.1,0-0.2c0,0,0-0.1,0-0.1l0.7-1.7c0-0.1,0.1-0.1,0.1-0.1c0,0,0.1,0,0.1,0.1c0.1,0.5,0.2,1,0.3,1.5c0.1,0.5,0.2,1,0.3,1.6
		c0.1,0.6,0.2,1.2,0.2,1.8c0.1,0.7,0.2,1.4,0.3,2.3c0.1,0.6,0.1,1.2,0.2,1.8c0.1,0.6,0.1,1.2,0.2,1.7c0.1,0.5,0.1,0.9,0.2,1.4
		c0.1,0.5,0.2,0.9,0.4,1.3c0.2,0.3,0.5,0.6,0.8,0.8c0.4,0.2,0.9,0.3,1.6,0.3C279.3,31.5,279.4,31.5,279.5,31.5
		C279.4,31.5,279.5,31.5,279.5,31.5z"/>
	<path class="st1" d="M284.6,20.5c-0.4,0.2-0.9,0.4-1.3,0.6c-0.5,0.2-0.9,0.4-1.3,0.6c-0.4,0.2-0.8,0.4-1.2,0.5
		c-0.4,0.2-0.7,0.3-1,0.4c-0.1,0-0.1,0-0.1,0s0-0.1,0-0.1l0.6-1.2c0-0.1,0.1-0.1,0.1-0.1c0,0,0.1-0.1,0.1-0.1l4.6-2.1
		c0.1-0.1,0.2,0,0.1,0.1l-0.5,1.2C284.7,20.4,284.7,20.4,284.6,20.5z"/>
	<path class="st1" d="M279.3,33.5h-0.2c-0.3,0-0.4-0.1-0.6-0.3c-0.1-0.2-0.2-0.4-0.2-0.7c0-0.1,0-0.3,0-0.4c0-0.1,0.1-0.2,0.1-0.3
		c0.1-0.1,0.1-0.2,0.2-0.2c0.1-0.1,0.2-0.1,0.3-0.1h0.2c0.3,0,0.6,0,0.9,0c0.3,0,0.6-0.1,0.9-0.1c0.3-0.1,0.6-0.2,0.8-0.3
		c0.3-0.2,0.5-0.4,0.7-0.7c0.2-0.2,0.3-0.4,0.4-0.6c0.1-0.2,0.2-0.5,0.3-0.7c0-0.1,0.1-0.2,0.2-0.2c0.1,0,0.1,0,0.2,0.1
		c0,0.1,0,0.2,0,0.4c0,0.1,0,0.3,0,0.4c0,0.2,0.1,0.4,0.2,0.7c0.1,0.2,0.3,0.4,0.5,0.6c0.2,0.2,0.5,0.3,0.9,0.4
		c0.4,0.1,0.9,0.2,1.4,0.2h0.2c0.1,0,0.2,0,0.3,0.1c0.1,0.1,0.2,0.1,0.2,0.2c0.1,0.1,0.1,0.2,0.1,0.3c0,0.1,0,0.2,0,0.4
		c0,0.3-0.1,0.5-0.2,0.7c-0.1,0.2-0.3,0.3-0.6,0.3h-0.2c-0.5,0-0.9,0-1.3-0.1c-0.4-0.1-0.8-0.2-1-0.4c-0.6-0.3-1-0.8-1.3-1.5
		c-0.2,0.4-0.4,0.7-0.7,1c-0.3,0.3-0.5,0.5-0.8,0.6c-0.3,0.2-0.7,0.3-1.1,0.3C280.1,33.4,279.7,33.5,279.3,33.5z M284.6,38.5
		c0,0.1-0.1,0.1-0.1,0.1c0,0-0.1,0-0.1-0.1l-1.5-1.2l-1,1.4c-0.1,0.1-0.1,0.1-0.2,0l-1.6-1.2c-0.1,0-0.1-0.1,0-0.2l1-1.5
		c0-0.1,0.1-0.1,0.1-0.1s0.1,0,0.1,0.1l1.5,1.2l1-1.3c0.1-0.1,0.1-0.1,0.2,0l1.6,1.3c0.1,0,0.1,0.1,0,0.2L284.6,38.5z"/>
	<path class="st1" d="M290.8,15.7c0,0.3,0,0.6-0.1,0.8c-0.1,0.3-0.2,0.5-0.4,0.7c-0.2,0.2-0.4,0.4-0.6,0.5c-0.3,0.1-0.5,0.2-0.9,0.2
		c-0.4,0-0.8-0.1-1.1-0.4c-0.3-0.3-0.5-0.7-0.5-1.1c0-0.2,0-0.5,0.1-0.9c0.1-0.3,0.2-0.7,0.3-1c0.2-0.3,0.3-0.6,0.6-0.8
		c0.2-0.2,0.5-0.4,0.9-0.4c0.3,0,0.6,0,0.8,0.2c0.2,0.2,0.4,0.4,0.5,0.6c0.1,0.3,0.2,0.5,0.3,0.8C290.7,15.2,290.8,15.5,290.8,15.7z
		 M287.8,16c0,0.1,0,0.3,0.1,0.3c0.1,0.1,0.2,0.1,0.3,0.2c0.1,0,0.2,0.1,0.4,0.1c0.1,0,0.2,0,0.3,0c0.2,0,0.5-0.1,0.7-0.2
		c0.2-0.1,0.4-0.2,0.6-0.4c0-0.2,0-0.3-0.1-0.5c-0.1-0.2-0.1-0.3-0.2-0.5c-0.1-0.1-0.2-0.2-0.4-0.3c-0.2-0.1-0.3-0.1-0.6-0.1
		c-0.1,0-0.3,0.1-0.4,0.2c-0.1,0.1-0.2,0.2-0.3,0.3c-0.1,0.1-0.2,0.2-0.3,0.4C287.8,15.7,287.8,15.8,287.8,16z"/>
	<path class="st1" d="M289.5,27.9c0-0.1,0.1-0.2,0.1-0.4c0.1-0.2,0.1-0.3,0.2-0.5c0.1-0.2,0.1-0.3,0.2-0.4c0.1-0.1,0.1-0.1,0.1-0.1
		c0.3,0.8,0.5,1.5,0.8,2.1c0.2,0.6,0.5,1.1,0.7,1.5c0.2,0.3,0.4,0.5,0.6,0.7c0.2,0.2,0.4,0.3,0.7,0.4c0.2,0.1,0.5,0.2,0.7,0.2
		c0.3,0,0.5,0,0.8,0h0.2c0.3,0,0.5,0.1,0.6,0.3c0.1,0.2,0.2,0.4,0.2,0.7c0,0.2-0.1,0.5-0.2,0.7c-0.1,0.2-0.3,0.3-0.6,0.3h-0.2
		c-0.8,0-1.6-0.2-2.2-0.6c-0.6-0.4-1.2-0.9-1.5-1.5c-0.1,0.4-0.3,0.7-0.6,1c-0.3,0.3-0.6,0.5-0.9,0.6c-0.3,0.2-0.7,0.3-1.1,0.4
		c-0.4,0.1-0.8,0.1-1.3,0.1h-0.2c-0.3,0-0.4-0.1-0.6-0.3c-0.1-0.2-0.2-0.4-0.2-0.7c0-0.3,0.1-0.5,0.2-0.7c0.1-0.2,0.3-0.3,0.6-0.3
		h0.2c0.2,0,0.5,0,0.8,0c0.3,0,0.6,0,1-0.1c0.3-0.1,0.7-0.1,1-0.3c0.3-0.1,0.6-0.3,0.8-0.5c-0.1-0.1-0.1-0.3-0.2-0.5
		c-0.1-0.2-0.2-0.4-0.2-0.6c-0.1-0.2-0.1-0.4-0.2-0.6c-0.1-0.2-0.1-0.4-0.2-0.5C289.4,28.2,289.4,28.1,289.5,27.9z M289.1,21.1
		l1.6,1.3c0.1,0.1,0.1,0.1,0,0.2l-1,1.3c-0.1,0.1-0.1,0.1-0.2,0l-1.6-1.3c-0.1-0.1-0.1-0.1,0-0.2l1.1-1.3
		C288.9,21,289,21,289.1,21.1z"/>
	<path class="st1" d="M294.3,21.4c0.3-0.2,0.6-0.3,0.8-0.5c0.3-0.2,0.5-0.3,0.8-0.5c0.3-0.2,0.5-0.4,0.8-0.6s0.5-0.5,0.7-0.7
		c-0.2-0.1-0.5-0.2-0.7-0.3c-0.3-0.2-0.5-0.3-0.6-0.5c-0.1-0.1-0.1-0.2-0.1-0.4c0-0.1,0-0.3,0-0.4c0.1-0.2,0.2-0.4,0.3-0.7
		c0.1-0.2,0.3-0.5,0.4-0.6c0.2-0.2,0.4-0.4,0.6-0.5c0.2-0.1,0.4-0.2,0.6-0.2c0.3,0,0.5,0.1,0.6,0.4c0.1,0.2,0.2,0.5,0.2,0.8
		c0,0.3,0,0.6,0,0.9c0,0.3-0.1,0.5-0.1,0.6c0,0,0,0.1,0,0.1c0.1,0.1,0.2,0.1,0.2,0.2c0,0.1,0.1,0.1,0.1,0.2c0.1,0.1,0.1,0.3,0,0.5
		c0,0.2-0.1,0.3-0.2,0.4c-0.1,0.1-0.1,0.1-0.2,0.1c-0.1,0-0.1,0-0.2-0.1c0-0.1-0.1-0.1-0.1-0.1c0,0-0.1-0.1-0.2-0.1
		c-0.2,0.3-0.5,0.6-0.8,0.8c-0.3,0.3-0.5,0.5-0.8,0.7c-0.3,0.2-0.6,0.4-1,0.6c-0.3,0.2-0.7,0.3-1,0.4c-0.1,0-0.3,0.1-0.4,0.1
		c-0.2,0-0.2,0-0.3,0c0-0.1,0-0.1,0.1-0.2C294.1,21.5,294.2,21.5,294.3,21.4z M296.7,17.1c0.2,0.2,0.4,0.4,0.6,0.6
		c0.2,0.1,0.5,0.2,0.7,0.3h0c0-0.1,0-0.2,0-0.3c0-0.1,0-0.2,0-0.3c0-0.1,0-0.2-0.1-0.3c0-0.1-0.1-0.2-0.2-0.3
		c-0.1-0.1-0.2-0.1-0.3-0.1c-0.1,0-0.2,0-0.4,0.1c-0.1,0-0.2,0.1-0.3,0.2C296.8,17,296.7,17.1,296.7,17.1z"/>
	<path class="st1" d="M297.7,26.5c0.2,0.2,0.5,0.5,0.7,0.8c0.2,0.3,0.4,0.6,0.5,0.9c0.2,0.3,0.3,0.6,0.4,0.9c0.1,0.3,0.1,0.6,0.1,1
		c0,0.1,0,0.3,0,0.5c0,0.2,0,0.4-0.1,0.5c0,0.2-0.1,0.4-0.1,0.5c-0.1,0.2-0.1,0.3-0.2,0.4c-0.2,0.3-0.5,0.5-0.8,0.7
		c-0.4,0.2-0.8,0.3-1.2,0.4c-0.4,0.1-0.9,0.2-1.3,0.2c-0.4,0-0.8,0-1.2,0h-0.2c-0.3,0-0.5-0.1-0.6-0.3c-0.1-0.2-0.2-0.4-0.2-0.7
		c0-0.3,0.1-0.5,0.2-0.7c0.1-0.2,0.3-0.3,0.6-0.3h0.2c0.4,0,0.8,0,1.2,0c0.4,0,0.8,0,1.1-0.1c0.4,0,0.7-0.1,1-0.1
		c0.3-0.1,0.5-0.2,0.7-0.3c0.1-0.1,0.1-0.1,0.1-0.2c0-0.1,0-0.2-0.1-0.3c-0.1-0.2-0.2-0.4-0.3-0.6c-0.1-0.2-0.2-0.4-0.3-0.5
		c-0.1-0.2-0.3-0.3-0.4-0.5c-0.1-0.2-0.3-0.3-0.5-0.5l0.4-1.8c0-0.1,0.1-0.1,0.1-0.1C297.6,26.4,297.6,26.5,297.7,26.5z M296.4,36
		l1.6,1.3c0.1,0.1,0.1,0.1,0,0.2l-1,1.3c-0.1,0.1-0.1,0.1-0.2,0l-1.6-1.3c-0.1-0.1-0.1-0.1,0-0.2l1.1-1.3
		C296.2,35.9,296.3,35.9,296.4,36z"/>
	<path class="st0" d="M312.1,29.1c0.2,0,0.3,0,0.4,0.1c0.1,0.1,0.3,0.2,0.4,0.4c0.1,0.1,0.3,0.3,0.5,0.5c0.2,0.2,0.3,0.3,0.5,0.5
		c0.2,0.2,0.5,0.4,0.8,0.5c0.3,0.1,0.6,0.2,0.9,0.3c0.3,0.1,0.6,0.1,0.9,0.1c0.3,0,0.6,0,1,0h0.2c0.3,0,0.5,0.1,0.6,0.3
		c0.1,0.2,0.2,0.4,0.2,0.7c0,0.2-0.1,0.5-0.2,0.7c-0.1,0.2-0.3,0.3-0.6,0.3h-0.2c-0.2,0-0.4,0-0.6,0c-0.2,0-0.5,0-0.7,0
		c-0.3,0-0.5,0-0.8-0.1c-0.3,0-0.6-0.1-0.9-0.2c0,0.2-0.1,0.4-0.1,0.6c0,0.2-0.1,0.3-0.2,0.3c-0.3,0.1-0.7,0.1-1.2,0
		c-0.5-0.1-0.9-0.2-1.4-0.3c-0.4-0.2-0.9-0.3-1.2-0.6c-0.4-0.2-0.6-0.4-0.7-0.6c-0.2,0.1-0.3,0.2-0.5,0.3c-0.2,0.1-0.4,0.3-0.5,0.4
		c-0.2,0.2-0.3,0.3-0.4,0.5c-0.1,0.2-0.2,0.4-0.2,0.6c0,0.3,0,0.7,0.1,1.3c0.1,0.5,0.1,1.1,0.2,1.6c0.1,0.6,0.2,1.1,0.3,1.7
		c0.1,0.6,0.2,1,0.2,1.4c0.1,0.4,0.1,0.7,0.2,1.2c0.1,0.4,0.1,0.9,0.1,1.3c0,0.4,0,0.8,0,1.2c0,0.4-0.1,0.7-0.1,0.9
		c0,0.1-0.1,0.2-0.2,0.2c-0.1,0-0.1,0-0.2-0.2c-0.1-0.2-0.1-0.3-0.1-0.5c0-0.2,0-0.3-0.1-0.5c0-0.2-0.1-0.5-0.1-1s-0.2-1.1-0.3-2
		c-0.1-0.8-0.2-1.5-0.3-2.1c-0.1-0.6-0.2-1.2-0.3-1.7c-0.1-0.5-0.2-1-0.2-1.3c-0.1-0.4-0.1-0.7-0.1-1c0-0.8,0-1.4,0.2-2
		c0.2-0.6,0.5-1,0.9-1.4c0.2-0.1,0.4-0.4,0.7-0.6c0.3-0.3,0.7-0.5,1.1-0.8c0.4-0.3,0.7-0.5,1.1-0.7
		C311.6,29.2,311.9,29.1,312.1,29.1z M311.8,30.5c-0.2,0-0.4,0-0.7,0.2c-0.3,0.1-0.5,0.3-0.6,0.4c-0.1,0.1-0.1,0.1,0,0.2
		c0.2,0.1,0.4,0.2,0.7,0.3c0.3,0.1,0.5,0.2,0.8,0.3c0.3,0.1,0.5,0.1,0.8,0.2c0.2,0,0.4,0,0.5,0c-0.1-0.2-0.2-0.4-0.4-0.6
		c-0.2-0.2-0.3-0.4-0.5-0.5c-0.2-0.1-0.3-0.3-0.4-0.3C312,30.5,311.9,30.5,311.8,30.5z"/>
	<path class="st0" d="M319.5,21.7c0.3-0.2,0.6-0.3,0.8-0.5c0.3-0.2,0.5-0.3,0.8-0.5c0.3-0.2,0.5-0.4,0.8-0.6
		c0.3-0.2,0.5-0.5,0.7-0.7c-0.2-0.1-0.5-0.2-0.7-0.3c-0.3-0.2-0.5-0.3-0.6-0.5c-0.1-0.1-0.1-0.2-0.1-0.4c0-0.1,0-0.3,0-0.4
		c0.1-0.2,0.2-0.4,0.3-0.7c0.1-0.2,0.3-0.5,0.4-0.6c0.2-0.2,0.4-0.4,0.6-0.5c0.2-0.1,0.4-0.2,0.6-0.2c0.3,0,0.5,0.1,0.6,0.4
		c0.1,0.2,0.2,0.5,0.2,0.8c0,0.3,0,0.6,0,0.9c0,0.3-0.1,0.5-0.1,0.6c0,0,0,0.1,0,0.1c0.1,0.1,0.2,0.1,0.2,0.2c0,0.1,0.1,0.1,0.1,0.2
		c0.1,0.1,0.1,0.3,0,0.5c0,0.2-0.1,0.3-0.2,0.4c-0.1,0.1-0.1,0.1-0.2,0.1c-0.1,0-0.1,0-0.2-0.1c0-0.1-0.1-0.1-0.1-0.1
		c0,0-0.1-0.1-0.2-0.1c-0.2,0.3-0.5,0.6-0.8,0.8c-0.3,0.3-0.5,0.5-0.8,0.7c-0.3,0.2-0.6,0.4-1,0.6c-0.3,0.2-0.7,0.3-1,0.4
		c-0.1,0-0.3,0.1-0.4,0.1c-0.2,0-0.2,0-0.3,0c0-0.1,0-0.1,0.1-0.2C319.3,21.9,319.4,21.8,319.5,21.7z M321.9,17.5
		c0.2,0.2,0.4,0.4,0.6,0.6c0.2,0.1,0.5,0.2,0.7,0.3h0c0-0.1,0-0.2,0-0.3c0-0.1,0-0.2,0-0.3c0-0.1,0-0.2-0.1-0.3
		c0-0.1-0.1-0.2-0.2-0.3c-0.1-0.1-0.2-0.1-0.3-0.1c-0.1,0-0.2,0-0.4,0.1c-0.1,0-0.2,0.1-0.3,0.2C321.9,17.3,321.9,17.4,321.9,17.5z"
		/>
	<path class="st0" d="M324.4,28.2c0,0.4-0.1,0.7-0.2,1c-0.1,0.3-0.2,0.6-0.3,0.9c-0.1,0.3-0.3,0.5-0.5,0.8c-0.2,0.2-0.4,0.5-0.6,0.7
		c0.3,0,0.7-0.1,1-0.1c0.4,0,0.7,0,1.1,0c0.4,0,0.7,0,1.1,0c0.3,0,0.7,0,1,0h0.2c0.3,0,0.5,0.1,0.6,0.3c0.1,0.2,0.2,0.4,0.2,0.7
		c0,0.2-0.1,0.5-0.2,0.7c-0.1,0.2-0.3,0.3-0.6,0.3h-0.2h-1.2l-1.2,0c0.5,0.6,0.8,1.3,0.8,2c0,0.2,0,0.5-0.1,0.8
		c-0.1,0.3-0.2,0.5-0.3,0.8c-0.1,0.2-0.3,0.4-0.5,0.6c-0.2,0.2-0.4,0.3-0.6,0.3c-0.6,0.1-1.1,0-1.5-0.2c-0.5-0.2-0.9-0.5-1.2-0.9
		c-0.3-0.4-0.6-0.8-0.9-1.4c-0.3-0.5-0.4-1.1-0.5-1.6c-0.2,0-0.5,0.1-0.7,0.1c-0.3,0.1-0.4,0.1-0.5,0c0-0.1,0-0.2,0.1-0.3
		c0.1-0.1,0.1-0.2,0.1-0.3l-1.3,0h-0.2c-0.3,0-0.5-0.1-0.7-0.3c-0.1-0.2-0.2-0.4-0.2-0.7c0-0.2,0.1-0.5,0.2-0.7
		c0.1-0.2,0.4-0.3,0.6-0.3h0.2c0.5,0,0.9,0,1.3,0c0.4,0,0.8,0,1.1-0.1c0.1-0.3,0.1-0.6,0.2-0.9c0.1-0.3,0.2-0.6,0.3-1
		c0.1-0.3,0.3-0.6,0.4-0.9c0.1-0.3,0.3-0.6,0.5-0.8c0.1-0.2,0.2-0.4,0.4-0.6c0.2-0.3,0.4-0.5,0.6-0.7c0.2-0.2,0.4-0.4,0.7-0.6
		c0.2-0.2,0.4-0.3,0.7-0.3c0.2,0,0.3,0.1,0.4,0.4c0.1,0.2,0.2,0.5,0.3,0.8c0.1,0.3,0.1,0.6,0.1,0.9
		C324.5,27.9,324.5,28.1,324.4,28.2z M323.6,29.5c0-0.3,0-0.6-0.1-0.9c-0.1-0.3-0.2-0.5-0.3-0.7c0-0.1-0.1-0.1-0.1-0.2
		c0,0-0.1-0.1-0.2,0c-0.2,0.1-0.5,0.2-0.7,0.5c-0.2,0.3-0.5,0.6-0.7,1c-0.2,0.4-0.4,0.8-0.5,1.1c-0.1,0.4-0.3,0.7-0.3,1
		c0.2-0.1,0.5-0.2,0.7-0.3c0.3-0.1,0.6-0.3,0.9-0.4c0.3-0.2,0.6-0.3,0.8-0.5C323.3,29.8,323.5,29.6,323.6,29.5z M320.8,33.7
		c0.1,0.3,0.3,0.6,0.4,0.8c0.1,0.3,0.3,0.5,0.5,0.7c0.2,0.2,0.4,0.4,0.6,0.5c0.2,0.1,0.6,0.2,0.9,0.3c0.1,0,0.2,0,0.4,0
		c0.2,0,0.3,0,0.5-0.1c0.1,0,0.3-0.1,0.4-0.2c0.1-0.1,0.2-0.2,0.2-0.3c0-0.2-0.2-0.4-0.5-0.6c-0.3-0.2-0.7-0.4-1.1-0.6
		c-0.4-0.2-0.8-0.3-1.3-0.4C321.3,33.8,321,33.7,320.8,33.7z"/>
	<path class="st0" d="M332.9,12.7c-0.4,0.2-0.9,0.4-1.3,0.6c-0.5,0.2-0.9,0.4-1.3,0.6c-0.4,0.2-0.8,0.4-1.2,0.5
		c-0.4,0.2-0.7,0.3-1,0.4c-0.1,0-0.1,0-0.1,0s0-0.1,0-0.1l0.6-1.2c0-0.1,0.1-0.1,0.1-0.1c0,0,0.1-0.1,0.1-0.1l4.6-2.1
		c0.1-0.1,0.2,0,0.1,0.1l-0.5,1.2C333,12.6,333,12.6,332.9,12.7z M330.6,17.8c-0.2,0.4-0.4,0.7-0.6,0.8c-0.3,0.2-0.6,0.3-0.9,0.3
		c-0.3,0-0.5-0.1-0.7-0.2c-0.2-0.2-0.3-0.4-0.4-0.8c0-0.2,0-0.3,0-0.5c0-0.2,0.1-0.4,0.2-0.5c0.1-0.2,0.1-0.3,0.2-0.4
		c0.1-0.1,0.2-0.2,0.3-0.2c0.1,0,0.1,0.1,0,0.2c-0.1,0.1-0.1,0.2-0.1,0.3c0,0.1,0,0.3-0.1,0.4c0,0.1,0,0.2,0,0.3
		c0,0.1,0.1,0.2,0.2,0.2c0.1,0.1,0.3,0.1,0.4,0.1c0.1,0,0.3,0,0.4-0.1c0.1-0.1,0.3-0.1,0.4-0.2c0.1-0.1,0.2-0.2,0.3-0.3
		c0.1-0.1,0.2-0.3,0.2-0.5c0.1-0.2,0.1-0.4,0.1-0.5c0-0.1,0-0.2,0.1-0.3c0.1-0.1,0.1-0.2,0.3-0.2c0,0,0,0,0.1,0.1c0,0,0,0.1,0,0.2
		c0,0.1,0,0.1,0,0.2c0,0.1,0,0.1,0,0.1c0,0.2,0,0.4,0.1,0.6c0.1,0.1,0.2,0.2,0.5,0.3c0.1,0,0.3,0,0.5,0c0.2-0.1,0.4-0.1,0.5-0.3
		c0,0,0-0.1,0-0.1c0-0.1,0-0.2,0-0.2c0-0.1-0.1-0.2-0.1-0.3c0-0.1-0.1-0.2-0.1-0.2l0.5-0.9c0.1,0,0.2,0.1,0.2,0.3
		c0,0.1,0.1,0.3,0.1,0.5c0,0.2,0,0.4,0,0.6c0,0.2,0,0.3-0.1,0.5c-0.1,0.3-0.2,0.6-0.4,0.9c-0.2,0.3-0.4,0.4-0.8,0.5
		c-0.3,0.1-0.6,0-0.8-0.1C330.9,18.1,330.7,18,330.6,17.8z"/>
	<path class="st0" d="M331.8,26.4c0-0.1,0.1-0.1,0.3,0c0.2,0.2,0.4,0.5,0.6,0.8c0.2,0.3,0.4,0.6,0.5,0.9c0.1,0.3,0.3,0.6,0.4,0.9
		c0.1,0.3,0.1,0.6,0.1,1c0,0.1,0,0.3,0,0.5c0,0.2-0.1,0.4-0.1,0.5c0,0.2-0.1,0.4-0.1,0.5c-0.1,0.2-0.1,0.3-0.2,0.4
		c-0.1,0.2-0.4,0.4-0.7,0.5c-0.3,0.2-0.6,0.3-1,0.4c-0.4,0.1-0.8,0.2-1.2,0.3c-0.4,0.1-0.9,0.1-1.3,0.2c-0.4,0-0.8,0.1-1.2,0.1
		c-0.4,0-0.7,0-0.9,0h-0.2c-0.3,0-0.5-0.1-0.6-0.3c-0.1-0.2-0.2-0.4-0.2-0.7c0-0.3,0.1-0.5,0.2-0.7c0.1-0.2,0.3-0.3,0.6-0.3h0.2
		c0.1,0,0.3,0,0.6,0c0.3,0,0.6,0,1,0c0.4,0,0.8,0,1.2-0.1c0.4,0,0.8-0.1,1.2-0.1c0.4,0,0.7-0.1,1-0.2c0.3-0.1,0.5-0.1,0.7-0.2
		c0.1-0.1,0.2-0.2,0.2-0.3c-0.1-0.5-0.4-0.9-0.6-1.2c-0.3-0.4-0.6-0.7-1-1.1c0.1-0.3,0.1-0.6,0.2-0.9
		C331.6,27,331.7,26.7,331.8,26.4z M330.6,20.7l1.6,1.3c0.1,0.1,0.1,0.1,0,0.2l-1,1.3c-0.1,0.1-0.1,0.1-0.2,0l-1.6-1.3
		c-0.1-0.1-0.1-0.1,0-0.2l1.1-1.3C330.4,20.7,330.5,20.6,330.6,20.7z"/>
	<path class="st0" d="M340.7,7.5c-0.4,0.2-0.9,0.4-1.3,0.6c-0.5,0.2-0.9,0.4-1.3,0.6c-0.4,0.2-0.8,0.4-1.2,0.5
		c-0.4,0.2-0.7,0.3-1,0.4c-0.1,0-0.1,0-0.1,0s0-0.1,0-0.1l0.6-1.2c0-0.1,0.1-0.1,0.1-0.1c0,0,0.1-0.1,0.1-0.1l4.6-2.1
		c0.1-0.1,0.2,0,0.1,0.1l-0.5,1.2C340.9,7.4,340.8,7.4,340.7,7.5z"/>
	<path class="st0" d="M336.2,14.8c0.1,0,0.1-0.1,0.2-0.1c0.1-0.1,0.2-0.1,0.3-0.2c0.1-0.1,0.2-0.1,0.3-0.2c0.1-0.1,0.2-0.1,0.3-0.2
		c-0.2-0.1-0.4-0.3-0.5-0.5c-0.1-0.2-0.3-0.4-0.4-0.6c0-0.1-0.1-0.2,0-0.3c0-0.1,0.1-0.2,0.1-0.3c0.1-0.2,0.3-0.4,0.4-0.6
		c0.2-0.2,0.3-0.4,0.5-0.5c0.2-0.2,0.4-0.3,0.6-0.4c0.2-0.1,0.4-0.2,0.7-0.2c0.1,0,0.2,0,0.3,0.1c0.1,0.1,0.2,0.2,0.3,0.3
		c0.1,0.1,0.1,0.3,0.1,0.4c0,0.1,0,0.3,0,0.4l-0.2,0.4c-0.1,0.2-0.2,0.3-0.3,0.3c-0.1,0-0.1,0-0.1-0.1c0-0.1,0-0.2-0.1-0.3
		c-0.1-0.1-0.1-0.2-0.2-0.3c-0.1,0-0.2-0.1-0.3-0.1c-0.4,0-0.7,0.1-1,0.4c0.1,0.3,0.3,0.6,0.5,0.8c0.2,0.2,0.5,0.4,0.8,0.4
		c0.4,0,0.8,0,1.2,0c0.4-0.1,0.7-0.1,1.2-0.2c0,0,0,0.1-0.1,0.2c0,0.1-0.1,0.2-0.1,0.4c0,0.1-0.1,0.3-0.1,0.4c0,0.1-0.1,0.2-0.1,0.2
		c-0.3,0-0.7,0.1-1,0.1c-0.3,0.1-0.7,0.1-1.1,0.3c-0.2,0.1-0.4,0.2-0.6,0.3c-0.2,0.1-0.4,0.2-0.6,0.3c-0.2,0.1-0.4,0.2-0.6,0.3
		c-0.2,0.1-0.4,0.2-0.6,0.3c0,0-0.1,0-0.1,0c0,0,0-0.1,0-0.1c0-0.2,0.1-0.3,0.2-0.5C336,15.1,336.1,15,336.2,14.8z M342.8,31.5
		c0.3,0,0.5,0.1,0.6,0.3c0.1,0.2,0.2,0.4,0.2,0.7c0,0.3-0.1,0.5-0.2,0.7c-0.1,0.2-0.3,0.3-0.6,0.3h-0.2c-0.7,0-1.2-0.1-1.7-0.3
		c-0.4-0.2-0.8-0.5-1.1-0.9c-0.3-0.4-0.5-0.8-0.7-1.3c-0.2-0.5-0.3-1-0.3-1.5c0-0.4-0.1-0.8-0.1-1.3c0-0.5-0.1-1-0.1-1.5
		c0-0.5-0.1-1-0.1-1.5c0-0.5-0.1-1-0.1-1.4c-0.1-0.8-0.2-1.5-0.3-2.3c-0.1-0.8-0.3-1.6-0.5-2.5c0-0.1,0-0.1,0-0.2c0,0,0-0.1,0-0.1
		c0.1-0.3,0.2-0.5,0.3-0.9c0.1-0.3,0.2-0.6,0.4-0.9c0,0,0.1-0.1,0.1-0.1c0.1,0,0.1,0,0.1,0.1c0.1,0.5,0.2,1,0.3,1.5
		c0.1,0.5,0.2,1,0.3,1.6c0.1,0.6,0.2,1.2,0.2,1.9c0.1,0.7,0.1,1.5,0.2,2.3c0,0.6,0.1,1.2,0.1,1.7c0.1,0.5,0.1,0.9,0.1,1.3
		c0,0.4,0.1,0.7,0.1,1c0,0.3,0.1,0.6,0.1,0.8c0.1,0.8,0.4,1.4,0.8,1.8c0.4,0.4,1.1,0.6,2,0.6H342.8z"/>
	<path class="st0" d="M349.5,12.8c-0.4,0.2-0.9,0.4-1.3,0.6c-0.5,0.2-0.9,0.4-1.3,0.6c-0.4,0.2-0.8,0.4-1.2,0.5
		c-0.4,0.2-0.7,0.3-1,0.4c-0.1,0-0.1,0-0.1,0c0,0,0-0.1,0-0.1l0.6-1.2c0-0.1,0.1-0.1,0.1-0.1c0,0,0.1-0.1,0.1-0.1l4.6-2.1
		c0.1-0.1,0.2,0,0.1,0.1l-0.5,1.2C349.6,12.7,349.5,12.8,349.5,12.8z"/>
	<path class="st0" d="M342.4,31.5h0.2c0.7,0,1.4,0,2.1,0c0.7,0,1.4-0.1,2.1-0.2c0.4-0.1,0.8-0.2,1.2-0.3c0.4-0.1,0.8-0.3,1.1-0.6
		c0-0.7-0.2-1.3-0.5-1.9c-0.3-0.6-0.7-1.1-1.2-1.7c-0.5-0.5-1.4-1.4-2.8-2.6c-0.1-0.1-0.1,0-0.2,0.1c0,0.1-0.1,0.2-0.1,0.2
		c-0.1,0-0.2,0-0.4-0.1c-0.2-0.1-0.3-0.1-0.5-0.2c-0.2-0.1-0.3-0.2-0.4-0.3c-0.1-0.1-0.2-0.2-0.2-0.3c-0.1-0.2-0.1-0.4-0.2-0.7
		c0-0.3-0.1-0.5,0-0.8c0.1-0.8,0.3-1.4,0.7-2c0.4-0.5,0.9-1,1.5-1.4c0.6-0.4,1.4-0.8,2.3-1.2c0.9-0.5,1.9-0.9,2.9-1.4
		c1-0.4,1.9-0.9,2.9-1.3c0.9-0.4,1.7-0.7,2.2-1c0.1,0,0.1,0,0.1,0.1c-0.1,0.4-0.2,0.7-0.3,0.9c-0.1,0.3-0.2,0.6-0.3,0.9
		c-0.3,0.1-0.6,0.2-1,0.4c-0.4,0.2-1.1,0.5-2.2,1c-1,0.5-1.8,0.8-2.4,1.1c-0.5,0.3-1.4,0.7-2.6,1.3c-1.2,0.6-1.9,0.9-2,1
		c-0.5,0.3-0.8,0.5-0.9,0.7c0,0.1,0,0.1,0.1,0.2c0.1,0.1,0.2,0.1,0.2,0.1c0.5,0.3,1.1,0.8,1.8,1.3c0.6,0.5,1.3,1.1,1.8,1.8
		c0.6,0.7,1.1,1.4,1.5,2.1c0.4,0.8,0.7,1.5,0.9,2.4c0,0.3,0.1,0.6,0,0.9c0,0.3-0.1,0.6-0.2,1c-0.1,0.3-0.2,0.6-0.4,0.9
		c-0.2,0.3-0.4,0.5-0.6,0.7c-0.3,0.3-0.7,0.5-1.2,0.6c-0.4,0.2-0.9,0.3-1.4,0.4c-0.5,0.1-1.1,0.1-1.7,0.2c-0.6,0-1.2,0-1.8,0h-0.3
		c-0.3,0-0.5-0.1-0.6-0.3c-0.1-0.2-0.2-0.4-0.2-0.7c0-0.2,0.1-0.5,0.2-0.7C341.9,31.6,342.1,31.5,342.4,31.5z"/>
	<path class="st0" d="M367.7,31.5c0.3,0,0.4,0.1,0.6,0.3c0.1,0.2,0.2,0.4,0.2,0.7c0,0.2-0.1,0.5-0.2,0.7c-0.1,0.2-0.3,0.3-0.6,0.3
		c0,0-0.1,0-0.1,0c0,0-0.1,0-0.1,0c-0.8,0-1.4-0.1-1.9-0.4c-0.5-0.3-0.9-0.7-1.2-1.1c-0.3-0.6-0.6-1.2-0.7-1.8
		c-0.1-0.6-0.2-1.3-0.3-1.9c-0.1-0.7-0.2-1.5-0.2-2.2c-0.1-0.7-0.2-1.5-0.3-2.2c-0.1-0.8-0.2-1.5-0.3-2.3c-0.1-0.8-0.3-1.6-0.6-2.5
		c0-0.1,0-0.1,0-0.2c0,0,0-0.1,0-0.1l0.7-1.7c0-0.1,0.1-0.1,0.1-0.1c0,0,0.1,0,0.1,0.1c0.1,0.5,0.2,1,0.3,1.5c0.1,0.5,0.2,1,0.3,1.6
		c0.1,0.6,0.2,1.2,0.2,1.8c0.1,0.7,0.2,1.4,0.3,2.3c0.1,0.6,0.1,1.2,0.2,1.8c0.1,0.6,0.1,1.2,0.2,1.7c0.1,0.5,0.1,0.9,0.2,1.4
		c0.1,0.5,0.2,0.9,0.4,1.3c0.2,0.3,0.5,0.6,0.8,0.8c0.4,0.2,0.9,0.3,1.6,0.3C367.6,31.5,367.6,31.5,367.7,31.5
		C367.6,31.5,367.7,31.5,367.7,31.5z"/>
	<path class="st0" d="M374.9,12.4c-0.4,0.2-0.9,0.4-1.3,0.6c-0.5,0.2-0.9,0.4-1.3,0.6c-0.4,0.2-0.8,0.4-1.2,0.5
		c-0.4,0.2-0.7,0.3-1,0.4c-0.1,0-0.1,0-0.1,0c0,0,0-0.1,0-0.1l0.6-1.2c0-0.1,0.1-0.1,0.1-0.1c0,0,0.1-0.1,0.1-0.1l4.6-2.1
		c0.1-0.1,0.2,0,0.1,0.1l-0.5,1.2C375.1,12.3,375,12.3,374.9,12.4z M372.6,17.5c-0.2,0.4-0.4,0.7-0.6,0.8c-0.3,0.2-0.6,0.3-0.9,0.3
		c-0.3,0-0.5-0.1-0.7-0.2c-0.2-0.2-0.3-0.4-0.4-0.8c0-0.2,0-0.3,0-0.5c0-0.2,0.1-0.4,0.2-0.5c0.1-0.2,0.1-0.3,0.2-0.4
		c0.1-0.1,0.2-0.2,0.3-0.2c0.1,0,0.1,0.1,0,0.2c-0.1,0.1-0.1,0.2-0.1,0.3c0,0.1,0,0.3-0.1,0.4c0,0.1,0,0.2,0,0.3
		c0,0.1,0.1,0.2,0.2,0.2c0.1,0.1,0.3,0.1,0.4,0.1c0.1,0,0.3,0,0.4-0.1c0.1-0.1,0.3-0.1,0.4-0.2c0.1-0.1,0.2-0.2,0.3-0.3
		c0.1-0.1,0.2-0.3,0.2-0.5c0.1-0.2,0.1-0.4,0.1-0.5c0-0.1,0-0.2,0.1-0.3c0.1-0.1,0.1-0.2,0.3-0.2c0,0,0,0,0.1,0.1c0,0,0,0.1,0,0.2
		c0,0.1,0,0.1,0,0.2c0,0.1,0,0.1,0,0.1c0,0.2,0,0.4,0.1,0.6c0.1,0.1,0.2,0.2,0.5,0.3c0.1,0,0.3,0,0.5,0c0.2-0.1,0.4-0.1,0.5-0.3
		c0,0,0-0.1,0-0.1c0-0.1,0-0.2,0-0.2c0-0.1-0.1-0.2-0.1-0.3c0-0.1-0.1-0.2-0.1-0.2l0.5-0.9c0.1,0,0.2,0.1,0.2,0.3
		c0,0.1,0.1,0.3,0.1,0.5c0,0.2,0,0.4,0,0.6c0,0.2,0,0.3-0.1,0.5c-0.1,0.3-0.2,0.6-0.4,0.9c-0.2,0.3-0.4,0.4-0.8,0.5
		c-0.3,0.1-0.6,0-0.8-0.1C372.9,17.8,372.8,17.7,372.6,17.5z"/>
	<path class="st0" d="M375.7,29.2c-0.1,0.4-0.2,0.7-0.4,1c-0.2,0.3-0.4,0.6-0.6,0.9c0.1,0.1,0.3,0.2,0.5,0.2
		c0.2,0.1,0.4,0.1,0.7,0.1c0.2,0,0.5,0,0.7,0c0.2,0,0.5,0,0.7,0h0.2c0.3,0,0.5,0.1,0.6,0.3c0.1,0.2,0.2,0.4,0.2,0.7
		c0,0.3-0.1,0.5-0.2,0.7c-0.1,0.2-0.3,0.3-0.6,0.3h-0.2c-0.9,0-1.8-0.1-2.7-0.3c-0.8-0.2-1.6-0.5-2.2-0.9c-0.4,0.2-0.7,0.3-1.1,0.5
		c-0.3,0.1-0.7,0.3-1.1,0.4c-0.4,0.1-0.8,0.2-1.2,0.2c-0.4,0.1-0.9,0.1-1.4,0.1h-0.2c-0.3,0-0.5-0.1-0.6-0.3
		c-0.1-0.2-0.2-0.4-0.2-0.7c0-0.2,0.1-0.5,0.2-0.7c0.1-0.2,0.3-0.3,0.6-0.3h0.2c0.3,0,0.5,0,0.8,0c0.2,0,0.5,0,0.7-0.1
		c0.3,0,0.5-0.1,0.8-0.1c0.3-0.1,0.6-0.1,0.9-0.2c-0.1-0.1-0.1-0.3-0.2-0.5c0-0.2-0.1-0.4,0-0.7c0-0.6,0.2-1.1,0.5-1.7
		c0.3-0.5,0.6-1,1-1.4c0.4-0.4,0.8-0.8,1.2-1c0.4-0.2,0.8-0.4,1.2-0.3c0.4,0,0.7,0.2,0.9,0.5c0.2,0.3,0.4,0.7,0.4,1.1
		c0.1,0.4,0.1,0.8,0.1,1.3C375.8,28.6,375.8,29,375.7,29.2z M374.3,27.6c-0.1-0.1-0.2-0.2-0.3-0.2c-0.1,0-0.3-0.1-0.4-0.1
		c-0.2,0-0.3,0.1-0.5,0.2c-0.2,0.1-0.4,0.2-0.6,0.3c-0.2,0.1-0.4,0.3-0.6,0.5c-0.2,0.2-0.3,0.4-0.3,0.6c0,0.2,0.1,0.4,0.2,0.6
		c0.1,0.2,0.2,0.3,0.3,0.4c0.1,0.1,0.3,0.2,0.4,0.3c0.1,0.1,0.3,0.1,0.3,0.2c0.1,0,0.2-0.1,0.4-0.1c0.2-0.1,0.4-0.2,0.6-0.3
		c0.2-0.1,0.4-0.3,0.6-0.4c0.2-0.1,0.3-0.3,0.4-0.4c0-0.2,0-0.5-0.2-0.8C374.6,28.1,374.4,27.8,374.3,27.6z M372.8,20.2l1.5,1.3
		c0.1,0.1,0.1,0.1,0,0.2l-1,1.3c-0.1,0.1-0.1,0.1-0.2,0l-1.5-1.3c-0.1-0.1-0.1-0.1,0-0.2l1-1.3C372.7,20.1,372.7,20.1,372.8,20.2z"
		/>
	<path class="st0" d="M388.2,19.2c-0.4,0.2-0.9,0.4-1.3,0.6c-0.5,0.2-0.9,0.4-1.3,0.6c-0.4,0.2-0.8,0.4-1.2,0.5
		c-0.4,0.2-0.7,0.3-1,0.4c-0.1,0-0.1,0-0.1,0c0,0,0-0.1,0-0.1l0.6-1.2c0-0.1,0.1-0.1,0.1-0.1c0,0,0.1-0.1,0.1-0.1l4.6-2.1
		c0.1-0.1,0.2,0,0.1,0.1l-0.5,1.2C388.4,19.1,388.3,19.2,388.2,19.2z"/>
	<path class="st0" d="M383.9,31.3c0.4-0.5,0.9-1,1.4-1.5c0.5-0.5,1-1,1.5-1.5c0.5-0.5,1-0.9,1.6-1.3c0.5-0.4,1-0.7,1.5-1
		c0.4-0.2,0.9-0.3,1.4-0.3c0.6,0,1.1,0.2,1.6,0.4c0.5,0.2,1,0.5,1.3,0.9c0.4,0.4,0.6,0.8,0.6,1.3c0,0.8-0.2,1.5-0.5,2.1
		c-0.3,0.6-0.8,1.1-1.3,1.5c-0.5,0.4-1.2,0.7-1.9,1c-0.7,0.3-1.4,0.4-2.2,0.6c-0.9,0.2-1.9,0.2-2.8,0.2c-0.9,0-1.8-0.1-2.5-0.2
		c-0.1,0.1-0.1,0.2-0.2,0.4c-0.1,0.2-0.1,0.3-0.2,0.5c-0.1,0.2-0.2,0.3-0.4,0.3c-0.1,0-0.1-0.1-0.2-0.2c0-0.1,0-0.2,0-0.3
		c0-0.2,0.1-0.3,0.1-0.4c0-0.1,0.1-0.3,0.2-0.5c-0.5-0.2-0.8-0.4-1.1-0.6c-0.3-0.2-0.6-0.5-0.9-0.9c-0.2,0.3-0.5,0.6-0.7,0.8
		c-0.2,0.2-0.5,0.4-0.8,0.6c-0.6,0.3-1.3,0.5-2.1,0.5H377c-0.3,0-0.5-0.1-0.6-0.3c-0.1-0.2-0.2-0.4-0.2-0.7c0-0.2,0.1-0.5,0.2-0.7
		c0.1-0.2,0.3-0.3,0.6-0.3h0.2c0.4,0,0.8,0,1.2-0.1c0.4,0,0.7-0.2,1.1-0.4c0.4-0.2,0.7-0.5,0.9-0.9c0.2-0.4,0.4-0.8,0.6-1.2
		c0.1-0.1,0.1-0.2,0.2-0.2c0.1,0,0.2,0,0.2,0.1c0,0.3,0.1,0.6,0.3,0.9c0.2,0.3,0.4,0.5,0.6,0.7c0.2,0.2,0.5,0.4,0.8,0.5
		C383.4,31.2,383.7,31.3,383.9,31.3z M393.6,29.3c-0.2-0.4-0.5-0.7-0.8-0.9c-0.3-0.3-0.7-0.4-1.1-0.6c-0.4-0.1-0.8-0.2-1.2-0.2
		c-0.4,0-0.7,0-1,0.2c-0.4,0.2-0.8,0.4-1.2,0.7s-0.8,0.6-1.2,0.9c-0.4,0.3-0.8,0.7-1.1,1c-0.4,0.4-0.7,0.7-1,1.1
		c0.6,0.1,1.2,0.1,2.1,0.1c0.8,0,1.6-0.1,2.5-0.3c0.8-0.2,1.6-0.4,2.3-0.7C392.6,30.1,393.2,29.8,393.6,29.3z"/>
	<path d="M409.9,28.9c0,0.1-0.1,0.3-0.2,0.4c-0.2,0.2-0.4,0.4-0.8,0.6c0,0.4-0.1,0.7-0.2,1.1c-0.1,0.3-0.2,0.5-0.3,0.5
		c-0.4-0.4-0.7-0.7-1.1-1c-0.4-0.3-0.8-0.5-1.2-0.5c0,0.4,0.2,0.8,0.6,1.2c0.3,0.3,0.6,0.7,0.9,1c0,0.2-0.3,0.3-1,0.5
		c-0.5,0.1-0.9,0.1-1.2,0.1c-0.5,1.4-1.1,2.7-2,3.9c-0.4,0.5-0.9,1.1-1.5,1.7c-0.8,0.8-1.4,1.2-1.8,1.2c-0.1,0-0.2-0.1-0.2-0.2
		c0-0.1,0.2-0.4,0.7-0.9c0.7-0.8,1.2-1.4,1.5-2.1c0.6-1.1,1-2.3,1.2-3.7c-0.4-0.1-0.7-0.1-0.8-0.2c-0.1-0.1-0.2-0.1-0.2-0.3
		c0.9-0.8,1.4-1.5,1.4-2.2c-0.4,0-0.8,0.2-1.2,0.5c-0.2,0.2-0.6,0.6-1,1c-0.1,0-0.2-0.2-0.4-0.5c-0.1-0.4-0.2-0.7-0.2-1.1
		c-0.4-0.2-0.6-0.4-0.7-0.4c-0.3-0.2-0.4-0.4-0.4-0.6c0-0.1,0.1-0.3,0.2-0.4c0.1-0.1,0.4-0.3,0.8-0.5c0-1.1,0.2-1.6,0.6-1.6
		c0.8,0.9,1.5,1.3,2.2,1.4c0-0.3-0.2-0.8-0.5-1.2c0,0-0.3-0.4-0.9-1c0-0.1,0.1-0.2,0.2-0.2c0.2-0.1,0.4-0.1,0.9-0.2
		c-0.2-1.1-0.6-2.2-1.3-3.3c-0.6-1.1-1.4-2.1-2.2-2.8c-0.1-0.1-0.2-0.2-0.2-0.3c0-0.1,0.1-0.2,0.3-0.2c0.3,0,0.7,0.2,1.3,0.6
		c1.8,1.3,3.2,3.2,4.1,5.8c1.4,0,2.1,0.2,2.1,0.6c-0.4,0.3-0.7,0.7-0.9,1c-0.3,0.4-0.4,0.8-0.4,1.2c0.3,0,0.7-0.2,1-0.5l1.1-1
		c0.2,0,0.4,0.5,0.5,1.4c0,0.1,0,0.2,0,0.3C409.5,28.4,409.9,28.7,409.9,28.9z M406.7,25.7c0,0-0.1-0.1-0.4-0.1
		c-0.2,0-0.4-0.1-0.5-0.1h-0.4c-0.1,0-0.2,0-0.3,0.1c-0.4-1.2-0.9-2.4-1.7-3.5c-0.9-1.2-1.8-2.2-3-3c0.8,0.7,1.4,1.6,2,2.6
		c0.7,1.2,1.2,2.5,1.4,3.8c-0.5,0-0.8,0.1-0.8,0.2c0.6,0.5,1,1,1.3,1.5c0.1-0.2,0.2-0.5,0.3-0.7c0,0,0.1-0.1,0.1-0.3
		c0.1-0.2,0.1-0.3,0.2-0.3c0.2,0,0.4,0.5,0.7,1.4c0.2-0.3,0.3-0.7,0.6-0.9C406.3,26.2,406.4,26,406.7,25.7z M403.3,29.7
		c-0.1-0.1-0.5-0.2-1.1-0.4c-0.4-0.1-0.6-0.2-0.6-0.3c0,0,0.3-0.2,0.9-0.4c0.1-0.1,0.4-0.2,0.7-0.3c-0.3-0.1-0.7-0.3-1-0.5
		c-0.1-0.1-0.4-0.3-0.7-0.6c-0.1,0-0.2,0.4-0.2,1.2c-0.6,0.3-0.9,0.6-0.9,0.7c0,0.2,0.3,0.3,0.9,0.6c0,0.8,0.1,1.3,0.3,1.3
		c0,0,0.2-0.2,0.6-0.5C402.7,30,403.1,29.8,403.3,29.7z M406.8,32.3c-0.5-0.4-0.9-0.9-1.2-1.4c-0.1,0.2-0.2,0.4-0.3,0.7
		c0,0-0.1,0.2-0.2,0.4c-0.1,0.2-0.2,0.3-0.2,0.3c0,0-0.1-0.1-0.2-0.3c-0.1-0.2-0.1-0.3-0.2-0.3c0-0.1-0.1-0.3-0.3-0.7
		c-0.1,0.3-0.3,0.6-0.5,0.8c-0.2,0.2-0.4,0.4-0.6,0.6c0,0.1,0.3,0.1,0.8,0.3c-0.3,1.3-0.5,2.1-0.6,2.4c-0.5,1.4-1.3,2.8-2.4,4.1
		c1.9-1.3,3.3-3.4,4.3-6.5c0.7,0,1,0,0.9,0C406.5,32.5,406.8,32.4,406.8,32.3z M406.2,29c0-0.4-0.1-0.7-0.4-0.9
		c-0.2-0.2-0.6-0.3-0.9-0.3c-0.3,0-0.6,0.1-0.9,0.4c-0.3,0.2-0.4,0.5-0.4,0.9c0,0.4,0.1,0.7,0.4,0.9c0.3,0.2,0.6,0.4,0.9,0.4
		c0.4,0,0.7-0.1,0.9-0.4C406.1,29.7,406.2,29.4,406.2,29z M409.3,28.9c0-0.1-0.1-0.2-0.2-0.3s-0.4-0.2-0.7-0.3c0-0.4,0-0.7-0.1-0.9
		c-0.1-0.2-0.1-0.4-0.2-0.4c0,0-0.2,0.2-0.5,0.5c-0.3,0.3-0.7,0.6-1.1,0.7c0.2,0.1,0.4,0.2,0.8,0.4c0,0,0.2,0.1,0.6,0.2
		c0.3,0.1,0.4,0.2,0.4,0.2c0,0.1-0.2,0.2-0.6,0.3c-0.6,0.2-1,0.3-1.1,0.3c0.4,0.1,0.7,0.3,1,0.5c0.1,0.1,0.4,0.3,0.6,0.6
		c0.1,0,0.1-0.1,0.2-0.3c0-0.1,0-0.4,0-0.8C409,29.3,409.3,29.1,409.3,28.9z"/>
	<rect class="st2" width="563.7" height="53.7"/>
</g>
</svg>
