<?xml version="1.0" encoding="utf-8"?>
<!-- Generator: Adobe Illustrator 19.2.0, SVG Export Plug-In . SVG Version: 6.00 Build 0)  -->
<svg version="1.1" id="Layer_1" xmlns="http://www.w3.org/2000/svg" xmlns:xlink="http://www.w3.org/1999/xlink" x="0px" y="0px"
	 viewBox="0 0 233.7 54.2" style="enable-background:new 0 0 233.7 54.2;" xml:space="preserve">
<style type="text/css">
	.st0{fill:#003E4E;}
	.st1{fill:none;}
</style>
<g>
	<path class="st0" d="M107.7,32.8c0.3,0,0.4,0.1,0.6,0.3c0.1,0.2,0.2,0.4,0.2,0.7c0,0.2-0.1,0.5-0.2,0.7c-0.1,0.2-0.3,0.3-0.6,0.3
		c0,0-0.1,0-0.1,0c0,0-0.1,0-0.1,0c-0.8,0-1.4-0.1-1.9-0.4c-0.5-0.3-0.9-0.7-1.2-1.1c-0.3-0.6-0.6-1.2-0.7-1.8
		c-0.1-0.6-0.2-1.3-0.3-1.9c-0.1-0.7-0.2-1.5-0.2-2.2c-0.1-0.7-0.2-1.5-0.3-2.2c-0.1-0.8-0.2-1.5-0.3-2.3c-0.1-0.8-0.3-1.6-0.6-2.5
		c0-0.1,0-0.1,0-0.2c0,0,0-0.1,0-0.1l0.7-1.7c0-0.1,0.1-0.1,0.1-0.1c0,0,0.1,0,0.1,0.1c0.1,0.5,0.2,1,0.3,1.5c0.1,0.5,0.2,1,0.3,1.6
		c0.1,0.6,0.2,1.2,0.2,1.8c0.1,0.7,0.2,1.4,0.3,2.3c0.1,0.6,0.1,1.2,0.2,1.8c0.1,0.6,0.1,1.2,0.2,1.7c0.1,0.5,0.1,0.9,0.2,1.4
		c0.1,0.5,0.2,0.9,0.4,1.3c0.2,0.3,0.5,0.6,0.8,0.8c0.4,0.2,0.9,0.3,1.6,0.3C107.6,32.8,107.6,32.8,107.7,32.8
		C107.7,32.8,107.7,32.8,107.7,32.8z"/>
	<path class="st0" d="M107.5,34.8h-0.2c-0.3,0-0.4-0.1-0.6-0.3c-0.1-0.2-0.2-0.4-0.2-0.7c0-0.1,0-0.3,0-0.4c0-0.1,0.1-0.2,0.1-0.3
		c0.1-0.1,0.1-0.2,0.2-0.2c0.1-0.1,0.2-0.1,0.3-0.1h0.2c0.3,0,0.6,0,0.9,0c0.3,0,0.6-0.1,0.9-0.1c0.3-0.1,0.6-0.2,0.8-0.3
		c0.3-0.2,0.5-0.4,0.7-0.7c0.2-0.2,0.3-0.4,0.4-0.6c0.1-0.2,0.2-0.5,0.3-0.7c0-0.1,0.1-0.2,0.2-0.2c0.1,0,0.1,0,0.2,0.1
		c0,0.1,0,0.2,0,0.4c0,0.1,0,0.3,0,0.4c0,0.2,0.1,0.4,0.2,0.7c0.1,0.2,0.3,0.4,0.5,0.6c0.2,0.2,0.5,0.3,0.9,0.4
		c0.4,0.1,0.9,0.2,1.4,0.2h0.2c0.1,0,0.2,0,0.3,0.1c0.1,0.1,0.2,0.1,0.2,0.2c0.1,0.1,0.1,0.2,0.1,0.3c0,0.1,0,0.2,0,0.4
		c0,0.3-0.1,0.5-0.2,0.7c-0.1,0.2-0.3,0.3-0.6,0.3h-0.2c-0.5,0-0.9,0-1.3-0.1c-0.4-0.1-0.8-0.2-1-0.4c-0.6-0.3-1-0.8-1.3-1.5
		c-0.2,0.4-0.4,0.7-0.7,1c-0.3,0.3-0.5,0.5-0.8,0.6c-0.3,0.2-0.7,0.3-1.1,0.3C108.3,34.8,107.9,34.8,107.5,34.8z M112.8,39.9
		c0,0.1-0.1,0.1-0.1,0.1c0,0-0.1,0-0.1-0.1l-1.5-1.2l-1,1.4c-0.1,0.1-0.1,0.1-0.2,0l-1.6-1.2c-0.1,0-0.1-0.1,0-0.2l1-1.5
		c0-0.1,0.1-0.1,0.1-0.1c0,0,0.1,0,0.1,0.1l1.5,1.2l1-1.3c0.1-0.1,0.1-0.1,0.2,0l1.6,1.3c0.1,0,0.1,0.1,0,0.2L112.8,39.9z"/>
	<path class="st0" d="M118.3,27.9c0.2,0.2,0.5,0.5,0.7,0.8c0.2,0.3,0.4,0.6,0.5,0.9c0.2,0.3,0.3,0.6,0.4,0.9c0.1,0.3,0.1,0.6,0.1,1
		c0,0.1,0,0.3,0,0.5c0,0.2,0,0.4-0.1,0.5c0,0.2-0.1,0.4-0.1,0.5c-0.1,0.2-0.1,0.3-0.2,0.4c-0.2,0.3-0.5,0.5-0.8,0.7
		c-0.4,0.2-0.8,0.3-1.2,0.4c-0.4,0.1-0.9,0.2-1.3,0.2c-0.4,0-0.8,0-1.2,0h-0.2c-0.3,0-0.5-0.1-0.6-0.3c-0.1-0.2-0.2-0.4-0.2-0.7
		c0-0.3,0.1-0.5,0.2-0.7c0.1-0.2,0.3-0.3,0.6-0.3h0.2c0.4,0,0.8,0,1.2,0c0.4,0,0.8,0,1.1-0.1c0.4,0,0.7-0.1,1-0.1
		c0.3-0.1,0.5-0.2,0.7-0.3c0.1-0.1,0.1-0.1,0.1-0.2c0-0.1,0-0.2-0.1-0.3c-0.1-0.2-0.2-0.4-0.3-0.6c-0.1-0.2-0.2-0.4-0.3-0.5
		c-0.1-0.2-0.3-0.3-0.4-0.5c-0.1-0.2-0.3-0.3-0.5-0.5l0.4-1.8c0-0.1,0.1-0.1,0.1-0.1C118.1,27.8,118.2,27.8,118.3,27.9z M117,22.2
		l1.6,1.3c0.1,0.1,0.1,0.1,0,0.2l-1,1.3c-0.1,0.1-0.1,0.1-0.2,0l-1.6-1.3c-0.1-0.1-0.1-0.1,0-0.2l1.1-1.3
		C116.9,22.2,116.9,22.2,117,22.2z"/>
	<path class="st0" d="M126.2,22c-0.2,0.4-0.4,0.7-0.6,0.8c-0.3,0.2-0.6,0.3-0.9,0.3c-0.3,0-0.5-0.1-0.7-0.2
		c-0.2-0.2-0.3-0.4-0.4-0.8c0-0.2,0-0.3,0-0.5c0-0.2,0.1-0.4,0.2-0.5c0.1-0.2,0.1-0.3,0.2-0.4c0.1-0.1,0.2-0.2,0.3-0.2
		c0.1,0,0.1,0.1,0,0.2c-0.1,0.1-0.1,0.2-0.1,0.3c0,0.1,0,0.3-0.1,0.4c0,0.1,0,0.2,0,0.3c0,0.1,0.1,0.2,0.2,0.2
		c0.1,0.1,0.3,0.1,0.4,0.1c0.1,0,0.3,0,0.4-0.1c0.1-0.1,0.3-0.1,0.4-0.2c0.1-0.1,0.2-0.2,0.3-0.3c0.1-0.1,0.2-0.3,0.2-0.5
		c0.1-0.2,0.1-0.4,0.1-0.5c0-0.1,0-0.2,0.1-0.3c0.1-0.1,0.1-0.2,0.3-0.2c0,0,0,0,0.1,0.1c0,0,0,0.1,0,0.2c0,0.1,0,0.1,0,0.2
		c0,0.1,0,0.1,0,0.1c0,0.2,0,0.4,0.1,0.6c0.1,0.1,0.2,0.2,0.5,0.3c0.1,0,0.3,0,0.5,0c0.2-0.1,0.4-0.1,0.5-0.3c0,0,0-0.1,0-0.1
		c0-0.1,0-0.2,0-0.2c0-0.1-0.1-0.2-0.1-0.3c0-0.1-0.1-0.2-0.1-0.2l0.5-0.9c0.1,0,0.2,0.1,0.2,0.3c0,0.1,0.1,0.3,0.1,0.5
		c0,0.2,0,0.4,0,0.6c0,0.2,0,0.3-0.1,0.5c-0.1,0.3-0.2,0.6-0.4,0.9c-0.2,0.3-0.4,0.4-0.8,0.5c-0.3,0.1-0.6,0-0.8-0.1
		C126.5,22.3,126.3,22.2,126.2,22z"/>
	<path class="st0" d="M123.8,23.1c0.3-0.2,0.6-0.3,0.8-0.5s0.5-0.3,0.8-0.5c0.3-0.2,0.5-0.4,0.8-0.6c0.3-0.2,0.5-0.5,0.7-0.7
		c-0.2-0.1-0.5-0.2-0.7-0.3c-0.3-0.2-0.5-0.3-0.6-0.5c-0.1-0.1-0.1-0.2-0.1-0.4c0-0.1,0-0.3,0-0.4c0.1-0.2,0.2-0.4,0.3-0.7
		c0.1-0.2,0.3-0.5,0.4-0.6c0.2-0.2,0.4-0.4,0.6-0.5c0.2-0.1,0.4-0.2,0.6-0.2c0.3,0,0.5,0.1,0.6,0.4c0.1,0.2,0.2,0.5,0.2,0.8
		c0,0.3,0,0.6,0,0.9c0,0.3-0.1,0.5-0.1,0.6c0,0,0,0.1,0,0.1c0.1,0.1,0.2,0.1,0.2,0.2c0,0.1,0.1,0.1,0.1,0.2c0.1,0.1,0.1,0.3,0,0.5
		c0,0.2-0.1,0.3-0.2,0.4c-0.1,0.1-0.1,0.1-0.2,0.1c-0.1,0-0.1,0-0.2-0.1c0-0.1-0.1-0.1-0.1-0.1c0,0-0.1-0.1-0.2-0.1
		c-0.2,0.3-0.5,0.6-0.8,0.8c-0.3,0.3-0.5,0.5-0.8,0.7c-0.3,0.2-0.6,0.4-1,0.6c-0.3,0.2-0.7,0.3-1,0.4c-0.1,0-0.3,0.1-0.4,0.1
		c-0.2,0-0.2,0-0.3,0c0-0.1,0-0.1,0.1-0.2C123.6,23.2,123.7,23.1,123.8,23.1z M126.2,18.8c0.2,0.2,0.4,0.4,0.6,0.6
		c0.2,0.1,0.5,0.2,0.7,0.3h0c0-0.1,0-0.2,0-0.3c0-0.1,0-0.2,0-0.3c0-0.1,0-0.2-0.1-0.3c0-0.1-0.1-0.2-0.2-0.3
		c-0.1-0.1-0.2-0.1-0.3-0.1c-0.1,0-0.2,0-0.4,0.1c-0.1,0-0.2,0.1-0.3,0.2C126.3,18.6,126.2,18.7,126.2,18.8z"/>
	<path class="st0" d="M134.2,32.1c-0.1-0.9-0.2-1.8-0.3-2.8c-0.1-1-0.3-2-0.4-3.1c-0.1-1-0.3-2-0.4-3c-0.2-1-0.3-1.9-0.4-2.7
		c-0.1-0.4-0.1-0.7-0.2-1c-0.1-0.3-0.2-0.7-0.4-1c-0.1-0.1-0.1-0.2-0.1-0.2c0,0,0-0.1,0.1-0.2c0.1-0.2,0.3-0.5,0.4-0.8
		c0.1-0.3,0.2-0.5,0.4-0.7c0-0.1,0.1-0.1,0.1-0.1c0,0,0.1,0,0.1,0.1c0.1,0.2,0.1,0.4,0.2,0.6c0.1,0.2,0.2,0.4,0.3,0.6
		c0.1,0.2,0.2,0.4,0.4,0.6c0.2,0.2,0.3,0.3,0.5,0.4c-0.1,0.2-0.2,0.4-0.3,0.5c-0.1,0.1-0.2,0.3-0.2,0.4c-0.1,0.1-0.1,0.2-0.1,0.4
		c0,0.1,0,0.2,0,0.4c0.1,0.7,0.2,1.4,0.3,2.2c0.1,0.8,0.2,1.5,0.3,2.3c0.1,0.8,0.2,1.6,0.3,2.4c0.1,0.8,0.2,1.6,0.3,2.3
		c0,0.3,0,0.7,0,1.1c0,0.4-0.1,0.8-0.1,1.3c-0.1,0.4-0.2,0.8-0.3,1.2c-0.1,0.4-0.3,0.7-0.5,0.9c-0.2,0.2-0.4,0.3-0.6,0.4
		c-0.3,0.1-0.5,0.2-0.8,0.2c-0.3,0-0.6,0-0.8,0c-0.3,0-0.5-0.1-0.7-0.2c-0.3-0.2-0.5-0.4-0.8-0.6c-0.2-0.2-0.4-0.5-0.6-0.8
		c-0.2-0.3-0.3-0.6-0.5-1c-0.1-0.3-0.2-0.7-0.3-1c-0.1,0.4-0.3,0.7-0.6,1.1c-0.3,0.3-0.6,0.6-1,0.8c-0.2,0.1-0.4,0.2-0.7,0.3
		c-0.3,0.1-0.5,0.2-0.8,0.2c-0.3,0.1-0.6,0.1-0.9,0.1c-0.3,0-0.6,0-0.9,0c-0.3,0-0.5-0.1-0.8-0.1c-0.2-0.1-0.4-0.2-0.6-0.3
		c-0.1-0.1-0.2-0.3-0.2-0.5c0-0.2-0.1-0.4-0.1-0.6c0-0.2,0-0.5,0.1-0.7s0.1-0.4,0.2-0.5c0-0.1,0.1-0.1,0.1-0.1c0,0,0.1,0,0.1,0.1
		c0.1,0.3,0.3,0.5,0.5,0.6c0.2,0.1,0.4,0.2,0.7,0.2c0.4,0.1,0.8,0.1,1.3,0c0.5,0,0.9-0.1,1.4-0.3c0.4-0.1,0.8-0.3,1.2-0.5
		c0.4-0.2,0.6-0.5,0.8-0.7c-0.1-0.6-0.3-1.3-0.4-1.9c-0.1-0.7-0.3-1.3-0.4-1.9c0-0.1,0-0.2,0-0.3c0-0.1,0.1-0.3,0.1-0.4
		c0.1-0.1,0.1-0.3,0.2-0.4c0.1-0.1,0.1-0.3,0.1-0.4c0-0.1,0.1-0.1,0.1-0.1c0.1,0,0.1,0.1,0.1,0.1c0.1,0.3,0.1,0.7,0.2,1.1
		c0.1,0.4,0.1,0.8,0.2,1.2c0.1,0.4,0.2,0.8,0.2,1.2c0.1,0.4,0.2,0.8,0.2,1.1c0.1,0.4,0.2,0.9,0.3,1.2c0.1,0.4,0.3,0.7,0.4,1
		c0.2,0.3,0.4,0.5,0.6,0.7c0.3,0.2,0.6,0.3,0.9,0.4c0.2,0,0.4,0.1,0.6,0c0.3,0,0.5,0,0.8-0.1c0.3-0.1,0.5-0.1,0.7-0.3
		C134.1,32.4,134.2,32.3,134.2,32.1z"/>
	<path class="st0" d="M138.1,18.3c0.1,0,0.2,0.2,0.2,0.5c0,0.3,0,0.6,0,0.9c0,0.3,0.1,0.6,0.1,0.9c0.1,0.8,0.2,1.5,0.3,2.3
		c0.1,0.8,0.2,1.6,0.4,2.4c0.1,0.8,0.2,1.6,0.3,2.4c0.1,0.8,0.2,1.6,0.3,2.3c0,0.3,0.1,0.6,0.1,1c0,0.4,0,0.8,0,1.2
		c0,0.4-0.1,0.8-0.1,1.2c-0.1,0.4-0.2,0.7-0.3,1c-0.1,0.1-0.1,0.2-0.2,0.3c-0.1,0-0.1,0-0.1-0.1c-0.1-0.7-0.1-1.5-0.2-2.2
		c-0.1-0.7-0.2-1.5-0.3-2.3c-0.1-0.8-0.2-1.6-0.3-2.4c-0.1-0.8-0.2-1.6-0.3-2.4c-0.1-0.8-0.2-1.6-0.3-2.4c-0.1-0.8-0.2-1.6-0.3-2.4
		c0-0.2,0.1-0.4,0.1-0.6c0.1-0.2,0.1-0.4,0.2-0.6c0.2-0.5,0.3-0.9,0.4-1C138,18.4,138,18.3,138.1,18.3z"/>
	<rect class="st1" width="233.7" height="54.2"/>
</g>
</svg>
