<?xml version="1.0" encoding="utf-8"?>
<!-- Generator: Adobe Illustrator 19.2.0, SVG Export Plug-In . SVG Version: 6.00 Build 0)  -->
<svg version="1.1" id="Layer_1" xmlns="http://www.w3.org/2000/svg" xmlns:xlink="http://www.w3.org/1999/xlink" x="0px" y="0px"
	 viewBox="0 0 397 36.7" style="enable-background:new 0 0 397 36.7;" xml:space="preserve">
<style type="text/css">
	.st0{fill:#FFFFFF;}
</style>
<g>
	<g>
		<path class="st0" d="M2.4,21.5c0.4,0.3,0.4,0.8,0.4,1.1c0,0.3-0.1,0.7-0.4,1C2.1,23.8,1.7,24,1.3,24c-0.3,0-0.7-0.1-0.9-0.4
			C0.1,23.3,0,22.9,0,22.5c0-0.4,0.2-0.7,0.4-1c0.3-0.2,0.6-0.4,1-0.4S2.1,21.2,2.4,21.5z"/>
		<path class="st0" d="M13.5,33.4c0.2-0.2,0.2-0.2,0.3-0.1c0.5,0.5,1,1.1,1.5,1.4c0.2,0.1,0.2,0.2,0,0.3c-0.5,0.5-0.9,1-1.3,1.5
			c-0.1,0.1-0.2,0.1-0.3,0c-0.4-0.3-0.9-0.7-1.4-1.2c-0.3,0.3-0.9,1-1.1,1.2c-0.1,0.1-0.2,0.2-0.4,0c-0.5-0.3-1.1-0.9-1.5-1.4
			c-0.1-0.1-0.1-0.2,0-0.3c0.4-0.5,0.9-1,1.4-1.5c0.1-0.1,0.2-0.1,0.3,0.1c0.4,0.4,1,1,1.4,1.2C12.7,34.3,13.2,33.6,13.5,33.4z"/>
		<path class="st0" d="M22.9,2.4c0.7,0,1.7,1,1.7,2.1c0,0.4-0.1,0.8-0.2,1.2c-0.3,0.8-0.9,1.3-1.8,1.3c-0.8,0-1.3-0.6-1.3-1.3
			C21.2,4.6,22.4,2.4,22.9,2.4z M22.6,4c-0.3,0-0.7,0.6-0.7,1c0,0.3,0.4,0.6,0.8,0.6c0.5,0,1.1-0.3,1.1-0.5C23.8,4.9,23.2,4,22.6,4z
			"/>
		<path class="st0" d="M24.4,12.9c0.2-0.2,0.2-0.2,0.3-0.1c0.5,0.5,1,1.1,1.5,1.4c0.2,0.1,0.2,0.2,0,0.3c-0.5,0.5-0.9,1-1.3,1.5
			c-0.1,0.1-0.2,0.1-0.3,0c-0.4-0.3-0.9-0.7-1.4-1.2c-0.3,0.3-0.9,1-1.1,1.2c-0.1,0.1-0.2,0.2-0.4,0c-0.5-0.3-1.1-0.9-1.5-1.4
			c-0.1-0.1-0.1-0.2,0-0.3c0.4-0.5,0.9-1,1.4-1.5c0.1-0.1,0.2-0.1,0.3,0.1c0.4,0.4,1,1,1.4,1.2C23.6,13.8,24.2,13.2,24.4,12.9z
			 M24.8,9.6c0.1,0.1,0.1,0.1,0,0.2c-0.2,0.3-1.1,1.2-1.4,1.7c-0.1,0.1-0.1,0.1-0.2,0c-0.5-0.3-1.5-1-1.7-1.4
			c-0.1-0.1-0.1-0.1,0-0.2c0.3-0.5,0.9-1.2,1.3-1.6c0.2-0.2,0.2-0.2,0.3-0.1C23.4,8.5,24.1,9.2,24.8,9.6z"/>
		<path class="st0" d="M7.7,31.6c-1.6-0.5-3.1-1.6-3.1-4.4c0-1.8,0.7-3.9,1.5-5.1c0.2-0.4,0.5-0.6,0.7-0.6c0.2,0,0.1,0.4-0.1,0.8
			c-0.6,1.3-1,2.4-1,3.4c0,1.9,1.2,3.2,3.1,3.7c0.5,0.1,1.1,0.2,1.6,0.2c2.9,0,7-2,7.7-2.8c0.1-0.2-0.3-0.3-1.2-0.4
			c-0.2,0-0.8,0-1.4-0.1c-1.5-0.2-2.3-0.7-2.3-1.3c0-0.4,0.1-0.9,0.3-1.3c0.9-2,2-3.2,3-3.8c0.7-0.4,1.3-0.6,1.8-0.6
			c0.3,0,0.5,0.1,0.7,0.2c0.2,0.2,0.4,0.4,0.7,1c0.3,0.5,0.8,0.8,1.4,0.8c1.2,0,2.2-0.6,2.8-1.9c0.1-0.1,0.2-0.2,0.3-0.2
			c0.1,0,0.2,0.2,0.2,0.4c0,0.3,0,0.4,0,0.6c0,0.7,0.5,1.2,1.2,1.2c0.9,0,1.4-0.6,1.8-1.5c0.2-0.6,0.3-0.7,0.5-0.7
			c0.1,0,0.2,0.1,0.2,0.6c0.1,1.1,0.5,1.7,1.4,1.7h0.3c0.7,0,1,0.4,1,1.1c0,0.8-0.4,1.1-1.1,1.1h-0.2c-1,0-1.9-0.7-2-1.9
			c-0.2,0.7-0.9,2-2.1,2c-0.3,0-0.6-0.1-0.9-0.3c-0.6-0.4-0.9-1-0.9-1.7c-0.5,1.1-1.4,1.9-2.7,1.9c-0.2,0-0.4,0-0.6-0.1
			c-0.8-0.1-1.3-0.5-1.7-1.1c-0.4-0.6-0.8-0.9-1.3-0.9c-0.5,0-0.9,0.2-1.5,0.5c-0.5,0.3-1,0.8-1.3,1.4c0,0.1-0.1,0.2-0.1,0.3
			c0,0.4,0.6,0.7,1.8,0.9c1.3,0.1,2.1,0.2,2.5,0.4c0.3,0.2,0.5,0.5,0.5,1c0,0.9-0.3,1.2-0.5,1.5c-1.5,2.4-5.9,4.3-8.9,4.3
			C9.2,31.9,8.5,31.8,7.7,31.6z"/>
		<path class="st0" d="M36.7,12.4c0.1-0.1,0.1,0,0.1,0.1c0,0.6-0.2,1.1-0.5,1.3l-4.1,2.3c-0.1,0-0.1,0-0.1-0.1c0-0.3,0.1-0.8,0.2-1
			c0.1-0.2,0.3-0.3,0.7-0.5L36.7,12.4z"/>
		<path class="st0" d="M41.2,1.9c0.7,0,1.7,1,1.7,2.1c0,0.4-0.1,0.8-0.2,1.2c-0.3,0.8-0.9,1.3-1.8,1.3c-0.8,0-1.3-0.6-1.3-1.3
			C39.5,4.1,40.7,1.9,41.2,1.9z M41,3.5c-0.3,0-0.7,0.6-0.7,1C40.2,4.7,40.6,5,41,5c0.5,0,1.1-0.3,1.1-0.5C42.2,4.4,41.5,3.5,41,3.5
			z"/>
		<path class="st0" d="M43,18.7c0,1.7-0.4,3-1.1,4.1c-0.5,0.6-1.5,1-2.3,1c-0.8,0-1.5-0.2-2.1-0.8c-0.2,0.6-0.8,1.3-1.2,1.5
			c-0.1,0-0.2,0.1-0.2,0c-1.1-0.2-3.3-1-4.2-2.2c-0.5,1-1.3,1.4-2.4,1.4h-0.3c-0.6,0-0.9-0.4-0.9-1.1c0-0.8,0.3-1.2,0.9-1.2h0.3
			c2.1,0,3.2-1.2,4.1-2.1c0.5-0.6,0.9-1.1,1.4-1.1c0.2,0,0.5,0.1,0.7,0.4c0.9,1.1,2.6,2.8,4.1,2.8c0.5,0,1.7-0.2,2.1-0.7v0
			c0-1.7-0.7-6.1-1-9.5c-0.1-0.4-0.2-1-0.3-1.5c0-0.1,0-0.2,0-0.3c0,0,0-0.1,0-0.2c0-0.1,0.2-0.5,0.4-0.9c0.3-0.5,0.6-1.1,0.8-1.1
			c0.1,0,0.1,0.1,0.2,0.2c0.3,1,0.7,1.4,0.9,1.8c0,0.1,0.1,0.2,0.1,0.2c0,0.1,0,0.1,0,0.2c-0.1,0.2-0.4,0.9-0.6,1.2
			C42.4,14.4,43,17.1,43,18.7z M34.3,20.2c-0.2,0-0.5,0.2-0.7,0.4c-0.2,0.2-0.2,0.3,0.1,0.5c0.4,0.2,1.8,0.9,2.1,1
			c0.2,0.1,0.3,0.1,0.4,0.1c0.2,0,0.1-0.2,0-0.4C35.8,21.4,35,20.2,34.3,20.2z"/>
		<path class="st0" d="M46.9,23.7c-0.1,0-0.2-0.2-0.2-0.7c0-3-1.1-11.3-1.1-12.7c0-0.7,0.5-1.7,0.9-2.5c0.1-0.2,0.3-0.5,0.5-0.5
			c0.1,0,0.2,0.2,0.2,0.8c0.1,2.2,0.7,7.3,0.7,11c0,1.5-0.1,2.7-0.4,3.5C47.2,23.4,47,23.7,46.9,23.7z"/>
		<path class="st0" d="M63,31.1c0.2-0.2,0.2-0.2,0.3-0.1c0.5,0.5,1,1.1,1.5,1.4c0.2,0.1,0.2,0.2,0,0.3c-0.5,0.5-0.9,1-1.3,1.5
			c-0.1,0.1-0.2,0.1-0.3,0c-0.4-0.3-0.9-0.7-1.4-1.2c-0.3,0.3-0.9,1-1.1,1.2c-0.1,0.1-0.2,0.2-0.4,0c-0.5-0.3-1.1-0.9-1.5-1.4
			c-0.1-0.1-0.1-0.2,0-0.3c0.4-0.5,0.9-1,1.4-1.5c0.1-0.1,0.2-0.1,0.3,0.1c0.4,0.4,1,1,1.4,1.2C62.2,31.9,62.7,31.3,63,31.1z"/>
		<path class="st0" d="M68.6,8.2c0.1,0.1,0.1,0.1,0,0.2c-0.2,0.3-1.1,1.2-1.4,1.7c-0.1,0.1-0.1,0.1-0.2,0c-0.5-0.3-1.5-1-1.7-1.4
			c-0.1-0.1-0.1-0.1,0-0.2c0.3-0.5,0.9-1.2,1.3-1.6c0.2-0.2,0.2-0.2,0.3-0.1C67.2,7.2,67.9,7.8,68.6,8.2z"/>
		<path class="st0" d="M59.5,26.3c0.7,0.2,1.4,0.3,2.1,0.3c0.8,0,1.4-0.1,2.2-0.3c2.4-0.6,5.1-1.9,5.5-2.5c-0.7-0.6-2.7-1.4-4.4-1.5
			c-0.3,0-0.5-0.1-0.5-0.4c0-0.3,0.3-0.9,0.5-1.2c0.1-0.1,0.1-0.1,0.3-0.2c3.2-0.6,3.4-1.8,3.4-1.9c0-0.7-0.1-0.9-0.3-1.5
			c-0.4,0.5-1,1-1.8,1c-0.9,0-1.8-0.6-1.8-1.7c0-1.6,1.5-4.4,2.2-4.4c0.8,0,1.6,0.7,2.1,1.9c0.4,0.9,0.7,2.2,0.7,3
			c0,1.5-0.7,3-1.5,4.2c0.6,0.2,1.1,0.4,1.4,0.6c0.9,0.5,0.9,1.1,0.9,1.5c0,0.9-0.7,1.9-1.7,2.8c-2,1.7-5.4,2.9-7.6,2.9
			c-0.6,0-1.4-0.1-2.1-0.3c-1.7-0.5-3.2-1.7-3.2-4.5c0-1.6,0.7-3.8,1.5-5c0.2-0.4,0.5-0.6,0.7-0.6c0.2,0,0.1,0.4-0.1,0.8
			c-0.6,1.3-1,2.5-1,3.4C56.8,24.7,58,25.8,59.5,26.3z M66.4,14.2c-0.2,0-0.5,0.2-0.7,0.7c0,0.1-0.1,0.2-0.1,0.3
			c0,0.4,0.5,0.6,1,0.7c0.5,0,1-0.2,1-0.5C67.5,14.5,66.8,14.2,66.4,14.2z"/>
		<path class="st0" d="M82.7,6.3c0,0.5-0.1,1-0.3,1.5c0.2,0.1,0.4,0.3,0.4,0.4c0,0.4-0.2,0.7-0.3,1c-0.1,0.1-0.1,0.1-0.1,0.1
			l-0.5-0.3c-0.5,0.8-1.3,1.8-2.5,2.3c-0.4,0.2-0.9,0.4-1.5,0.4c-0.3,0-0.4-0.1-0.4-0.1c0-0.1,0.2-0.2,0.6-0.4
			c0.9-0.5,2.5-1.8,3.1-2.5C80.6,8.2,80,7.8,80,7.2c0-0.4,0.2-0.9,0.6-1.3c0.4-0.5,0.8-0.8,1.2-0.8C82.5,5.1,82.7,5.8,82.7,6.3z
			 M80.9,6.8C80.9,6.8,80.9,6.8,80.9,6.8c0,0.2,0.4,0.5,0.8,0.7c0.1-0.2,0.1-0.4,0.1-0.7c0-0.3-0.1-0.4-0.3-0.4
			C81.3,6.3,81,6.5,80.9,6.8z"/>
		<path class="st0" d="M91.7,33.2c0.2,0,0.2,0,0.2,0.1c0,0.2-0.7,0.6-1,0.8c-1.4,0.6-3.6,1.4-6.2,1.4c-5.2,0-7.4-3.7-7.4-7
			c0-4.4,1.7-6.3,2.7-7.4c-1-0.6-2.1-1.3-2.1-2.6c0-0.7,0.3-1.9,0.8-2.7c0.7-1.3,1.8-1.9,2.8-1.9c0.9,0,2.2,0.5,2.8,1
			c0.2,0.2,0.3,0.4,0.3,0.5c0,0.1-0.1,0.1-0.2,0.1c-0.4,0-1-0.1-1.5-0.1c-1.3,0-3.8,1.1-3.8,1.7c0,0.4,1.1,2.1,3,2.1
			c0.1,0,0.1,0,0.2,0c1.2-0.5,2.8-1.2,3.8-1.7c0.4-0.2,0.7-0.3,0.9-0.3c0.1,0,0.1,0.1,0.1,0.1c0,0.2-0.7,1.5-0.8,1.7
			c-0.1,0.1-0.2,0.3-0.6,0.5c-1.2,0.6-2.1,1-3,1.5c-3.1,1.8-4.4,3.6-4.4,6.3c0,2.9,2.2,6.2,9.6,6.2C90.1,33.5,91.2,33.2,91.7,33.2z"
			/>
		<path class="st0" d="M90.9,23.7c-0.1,0-0.2-0.2-0.2-0.7c0-3-1.1-11.3-1.1-12.7c0-0.7,0.5-1.7,0.9-2.5c0.1-0.2,0.3-0.5,0.5-0.5
			c0.1,0,0.2,0.2,0.2,0.8c0.1,2.2,0.7,7.3,0.7,11c0,1.5-0.1,2.7-0.4,3.5C91.3,23.4,91.1,23.7,90.9,23.7z"/>
		<path class="st0" d="M109,10.1c0.7,0,1.7,1,1.7,2.1c0,0.4-0.1,0.8-0.2,1.2c-0.3,0.8-0.9,1.3-1.8,1.3c-0.8,0-1.3-0.6-1.3-1.3
			C107.3,12.3,108.4,10.1,109,10.1z M108.7,11.7c-0.3,0-0.7,0.6-0.7,1c0,0.3,0.4,0.6,0.8,0.6c0.5,0,1.1-0.3,1.1-0.5
			C109.9,12.6,109.3,11.7,108.7,11.7z"/>
		<path class="st0" d="M101.3,22.5c0.1,0.5,0.2,0.8,0.2,1.3c0,0.5-0.1,1.1-0.2,1.8c-0.3,2.1-1.8,4.3-3.9,5.1
			c-0.2,0.1-0.4,0.1-0.6,0.1c-1,0-2.5-0.4-3.9-1c-0.3-0.2-0.5-0.3-0.5-0.4c0-0.1,0.1-0.2,0.4-0.2c0.5,0,1.3,0.2,1.8,0.2
			c0.1,0,0.2,0,0.4,0c0.8-0.1,1.7-0.4,2.5-1c1.3-0.8,3.2-2.7,3.2-3.9c0,0,0-0.1,0-0.1c0-0.2-0.2-0.6-0.5-1l-0.4-0.7c0,0,0-0.1,0-0.3
			c0.1-0.4,0.3-1.2,0.5-1.6c0-0.1,0.1-0.2,0.2-0.2c1.1-0.5,3.1-1.1,4.6-1.7c0.1,0,0.2,0,0.2,0.1c0,0.4,0.2,1,0.4,1.3
			c0.2,0.4,0.6,0.6,1.2,0.6c0.5,0,0.9-0.2,1.5-0.5c0.5-0.4,1-0.9,1.1-1.5c0.2-0.6,0.4-0.9,0.6-0.9c0.1,0,0.2,0.1,0.2,0.3
			c0,0.1,0,0.2,0,0.3c0,0.2,0,0.3,0,0.4c0,1.1,1,1.8,1.8,1.8c0.3,0,0.5-0.1,0.6-0.3c0,0,0-0.1,0-0.2c0-0.3-0.2-0.7-0.4-1
			c0,0-0.1-0.1-0.1-0.2c0-0.2,0.2-0.5,0.5-1c0.2-0.4,0.4-0.7,0.5-0.8c0-0.1,0.1-0.2,0.2-0.2c0.2,0,0.5,0.9,0.5,1.6
			c0,0.3,0,0.7-0.1,1.1c-0.3,1.5-0.9,2.4-1.7,2.8c-0.2,0.2-0.5,0.2-0.8,0.2c-0.3,0-0.5-0.1-0.8-0.1c-0.8-0.3-1.1-0.7-1.4-1.5
			c0,0-0.1,0.3-0.4,0.6c-0.5,0.7-1.4,1.3-2.3,1.3c-1.3,0-1.7-0.8-2-1.9C103.6,21.6,102,22.1,101.3,22.5z"/>
		<path class="st0" d="M120.7,31.3c0.1-0.1,0.1,0,0.1,0.1c0,0.6-0.2,1.1-0.5,1.3l-4.1,2.3c-0.1,0-0.1,0-0.1-0.1c0-0.3,0.1-0.8,0.2-1
			c0.1-0.2,0.3-0.3,0.7-0.5L120.7,31.3z"/>
		<path class="st0" d="M119.8,29.2c-0.8,0.4-2.6,1.5-4,2.5c-0.1,0-0.1,0-0.1,0c0,0-0.1,0-0.1-0.1c0-0.1,0.1-0.3,0.2-0.7
			c0.1-0.2,0.5-0.6,0.8-0.9c0,0,0.1-0.1,0.1-0.1c0,0,0-0.1-0.1-0.1c-0.6-0.2-0.9-0.4-0.9-0.9c0-0.1,0-0.1,0-0.2c0-0.9,1-2.2,1.8-2.9
			c0.3-0.3,0.7-0.4,1-0.4c0.5,0,0.8,0.3,0.8,0.7c0,0.3-0.1,0.6-0.2,1c-0.1,0.2-0.2,0.4-0.3,0.4s-0.2-0.1-0.3-0.2
			c-0.1-0.1-0.3-0.3-0.6-0.3c-0.8,0-1.3,0.5-1.3,0.7c0,0.3,1.3,0.8,1.8,0.8c0.1,0,0.1,0,0.1,0c0.2-0.1,1.1-0.4,1.5-0.6
			c0.2-0.1,0.3-0.2,0.3-0.2c0,0,0.1,0,0.1,0.1c0,0.1-0.1,0.2-0.1,0.4C120.2,29,120,29.1,119.8,29.2z"/>
		<path class="st0" d="M124.8,9.3c0.1,0.2,0.1,0.2,0.1,0.3c0,0.1,0,0.1-0.1,0.2c-0.2,0.4-0.5,1-0.8,1.3c-0.2,2.4-0.5,4.3-1.6,7
			c0.3,0.8,0.5,1.9,0.5,2.9c0,0.7-0.1,1.3-0.3,1.8c-0.2,0.4-2.7,0.8-4.4,0.8c-0.5,0-0.8,0-1.1-0.1c-0.1,0-0.2-0.3-0.2-0.7
			c0-0.6,0.1-1.5,0.3-1.8c0-0.1,0.1-0.1,0.1-0.1c0.1,0,0.1,0,0.2,0c1.4,0,2.8-1.3,3.7-2.9c-1.1-2.2-3.5-5.2-5.6-6.6
			c0,0.1-0.4,0.6-0.7,0.6c-0.3,0-2.2-1.8-2.2-2.2c0-0.2-0.1-0.4-0.1-0.6c0-0.6,0.1-1.1,0.2-1.4c0.1-0.3,0.3-0.4,0.4-0.4
			c0.2,0,0.5,0.2,0.8,0.4c1.6,1.1,3.2,2.4,4.5,4c1,1.3,2.3,3,3.3,5.1c0.6-1.3,0.7-2.2,0.9-3.9c0.1-1,0.1-1.7,0.1-2.2
			c0-1.1-0.1-1.5-0.1-1.8c0-0.2,0.1-0.4,0.2-0.7c0.4-0.7,0.7-1.2,0.8-1.2c0.1,0,0.1,0.1,0.2,0.2C124.3,8.1,124.5,8.7,124.8,9.3z
			 M121.7,19.2c-0.8,1.1-0.9,1.3-1.7,2.1c0.8,0,1.5-0.1,2.1-0.3C122.1,20.6,122.1,20,121.7,19.2z"/>
		<path class="st0" d="M128.8,23.7c-0.1,0-0.2-0.2-0.2-0.7c0-3-1.1-11.3-1.1-12.7c0-0.7,0.5-1.7,0.9-2.5c0.1-0.2,0.3-0.5,0.5-0.5
			c0.1,0,0.2,0.2,0.2,0.8c0.1,2.2,0.7,7.3,0.7,11c0,1.5-0.1,2.7-0.4,3.5C129.1,23.4,128.9,23.7,128.8,23.7z"/>
		<path class="st0" d="M141,16.3c0.3,0.3,0.4,0.7,0.4,1.1c0,0.2-0.1,0.7-0.4,0.9c-0.3,0.3-0.7,0.4-1.1,0.4c-0.3,0-0.7-0.1-0.9-0.4
			c-0.3-0.3-0.4-0.6-0.4-1c0-0.4,0.2-0.8,0.4-1c0.3-0.2,0.6-0.4,1-0.4C140.4,15.9,140.8,16.1,141,16.3z M141,21.5
			c0.3,0.3,0.4,0.8,0.4,1.1c0,0.3-0.1,0.7-0.4,1c-0.3,0.3-0.7,0.4-1.1,0.4c-0.3,0-0.6-0.2-0.9-0.4c-0.3-0.3-0.4-0.6-0.4-1
			c0-0.3,0.2-0.7,0.4-1c0.3-0.3,0.6-0.4,1-0.4C140.4,21.2,140.8,21.3,141,21.5z"/>
		<path class="st0" d="M157,11.8c0.1-0.1,0.1,0,0.1,0.1c0,0.6-0.2,1.1-0.5,1.3l-4.1,2.3c-0.1,0-0.1,0-0.1-0.1c0-0.3,0.1-0.8,0.2-1
			c0.1-0.2,0.3-0.3,0.7-0.5L157,11.8z"/>
		<path class="st0" d="M149.2,29.7c-0.3-0.2-0.4-0.3-0.4-0.4c0-0.1,0.2-0.2,0.4-0.2c0.3,0,1.1,0.2,1.8,0.2c0.6,0,1.2-0.2,2.1-0.6
			c2.4-1.2,3.9-3,3.9-4.2c0-0.2,0-0.3-0.1-0.7h-0.7c-0.5,0-1.5-0.1-2.2-0.5c-0.7-0.4-1-0.9-1-1.5c0-0.6,0.3-1.4,0.6-2.2
			c0.6-1.3,1.2-2.2,1.9-2.2c0.7,0,1.3,0.5,1.8,1.1c0.5,0.7,0.7,1.8,0.7,2.8h1c0.6,0,0.9,0.3,0.9,1c0,0.8-0.3,1.2-0.9,1.2l-1.1,0.1
			c-0.2,3.5-1.3,5.8-4.1,6.9c-0.2,0.1-0.4,0.1-0.6,0.1C152.2,30.7,150.6,30.3,149.2,29.7z M155.5,20c-0.1-0.1-0.3-0.2-0.6-0.2
			c-0.5,0-0.8,0.5-0.8,0.8c0,0.2,0.2,0.5,0.8,0.7c0.4,0.2,0.9,0.2,1.1,0.2c0.2,0,0.2,0,0.2-0.1C156.3,21.1,155.9,20.4,155.5,20z"/>
		<path class="st0" d="M164.5,6.2c0,0.5-0.1,1-0.3,1.5c0.2,0.1,0.4,0.3,0.4,0.4c0,0.4-0.2,0.7-0.3,1c-0.1,0.1-0.1,0.1-0.1,0.1
			l-0.5-0.3c-0.5,0.8-1.3,1.8-2.5,2.3c-0.4,0.2-0.9,0.4-1.5,0.4c-0.3,0-0.4-0.1-0.4-0.1c0-0.1,0.2-0.2,0.6-0.4
			c0.9-0.5,2.5-1.8,3.1-2.5c-0.5-0.3-1.1-0.7-1.1-1.4c0-0.4,0.2-0.9,0.6-1.3c0.4-0.5,0.8-0.8,1.2-0.8C164.3,4.9,164.5,5.6,164.5,6.2
			z M162.7,6.6C162.7,6.6,162.7,6.7,162.7,6.6c0,0.2,0.4,0.5,0.8,0.7c0.1-0.2,0.1-0.4,0.1-0.7c0-0.3-0.1-0.4-0.3-0.4
			C163.1,6.2,162.8,6.3,162.7,6.6z"/>
		<path class="st0" d="M168.8,20.2c0,1.6-0.8,2.6-1.7,2.6c-0.3,0-1-0.1-1.6-0.3c-0.8-0.2-1.5-0.5-2.4-0.6c-1.7,1.2-3.1,1.9-4.4,1.9
			h-0.2c-0.7,0-1-0.4-1-1.1c0-0.8,0.3-1.1,1-1.1h0.2c0.6,0,1.3-0.2,2.2-0.5c-0.2-0.3-0.3-0.7-0.3-1.2c0-1.2,0.6-2.7,1.1-3.4
			c-0.1-0.1-0.2-0.4-0.2-0.6c0-0.3,0.1-1.1,0.4-1.6c0.1-0.3,0.3-0.5,0.6-0.5C164.3,13.6,168.8,16.8,168.8,20.2z M164.7,18.8
			c0-0.9-1.2-1.9-1.5-1.9c-0.2,0-0.5,0.2-0.9,0.5c-0.4,0.4-0.7,0.8-0.7,1c0.1,1,1,1.2,1.7,1.3C163.5,19.7,164.7,19.1,164.7,18.8z
			 M168.1,21C168.1,21,168.1,21,168.1,21c-0.1-1.1-1.2-2.6-2.6-3.3c0,1.4-0.7,2.3-0.7,2.3C166.2,20.4,167.1,21,168.1,21z"/>
		<path class="st0" d="M187.2,2.2c0,0.5-0.1,1-0.3,1.5c0.2,0.1,0.4,0.3,0.4,0.4c0,0.4-0.2,0.7-0.3,1c-0.1,0.1-0.1,0.1-0.1,0.1
			l-0.5-0.3c-0.5,0.8-1.3,1.8-2.5,2.3c-0.4,0.2-0.9,0.4-1.5,0.4c-0.3,0-0.4-0.1-0.4-0.1c0-0.1,0.2-0.2,0.6-0.4
			c0.9-0.5,2.5-1.8,3.1-2.5c-0.5-0.3-1.1-0.7-1.1-1.4c0-0.4,0.2-0.9,0.6-1.3c0.4-0.5,0.8-0.8,1.2-0.8C187,1,187.2,1.7,187.2,2.2z
			 M185.4,2.7C185.4,2.7,185.3,2.7,185.4,2.7c0,0.2,0.4,0.5,0.8,0.7c0.1-0.2,0.1-0.4,0.1-0.7c0-0.3-0.1-0.4-0.3-0.4
			C185.8,2.2,185.5,2.4,185.4,2.7z"/>
		<path class="st0" d="M181.1,28.7c2.4,0,5.7-1.7,5.7-2.9c-0.2-2-0.3-3.2-0.5-4.9c-0.4-3.1-0.7-5.5-1.1-9.6c-0.1-0.5-0.1-0.7-0.1-1
			c0-0.2,0-0.4,0.1-0.6c0.2-0.5,0.8-1.8,1.1-1.8c0.1,0,0.1,0.1,0.2,0.3c0.1,0.9,0.1,1.5,0.2,3.2c0.2,1.8,0.4,4.3,0.7,6.8
			c0.3,2,1.4,3.2,2.7,3.2h0.3c0.7,0,1,0.4,1,1.1c0,0.8-0.3,1.2-1,1.2H190c-0.9-0.1-1.8-0.6-2.2-1.5c0.1,1,0.1,1.7,0.1,2.2
			c0,2-0.4,2.7-0.9,3.5c-0.5,0.7-2.5,3-6.2,3c-3.9,0-5-2.1-5-4.1c0-1.4,0.5-3,1.1-4.2c0.3-0.6,0.6-0.8,0.8-0.8
			c0.1,0,0.1,0.1,0.1,0.2c0,0.2-0.1,0.4-0.3,0.8c-0.3,0.7-0.7,1.7-0.7,2.5C176.7,27.8,179.1,28.7,181.1,28.7z"/>
		<path class="st0" d="M195.2,9.7c0.7,0,1.7,1,1.7,2.1c0,0.4-0.1,0.8-0.2,1.2c-0.3,0.8-0.9,1.3-1.8,1.3c-0.8,0-1.3-0.6-1.3-1.3
			C193.6,11.9,194.7,9.7,195.2,9.7z M195,11.3c-0.3,0-0.7,0.6-0.7,1c0,0.3,0.4,0.6,0.8,0.6c0.5,0,1.1-0.3,1.1-0.5
			C196.2,12.2,195.6,11.3,195,11.3z"/>
		<path class="st0" d="M190.2,23.7h-0.1c-0.7,0-1-0.4-1-1.2c0-0.7,0.4-1.1,1-1.1h0.1c1.2,0,2.2-0.5,2.9-1.4l1.3-2
			c0.7-1.1,1.7-1.5,2.2-1.5c1.7,0,2.4,2.9,2.4,4.1c0,1-1.1,2.4-1.6,2.4c-0.8,0-2.8-1-3.8-1.9C192.6,22.9,191.5,23.7,190.2,23.7z
			 M195.5,18.5c-0.2,0-0.3,0.1-0.5,0.3c-0.1,0.1-0.2,0.3-0.3,0.5c0.5,0.3,1.9,1,2.5,1.4C197.2,19.9,196.2,18.5,195.5,18.5z"/>
		<path class="st0" d="M201.3,17.9c-0.7,0-1.1-0.7-1.1-1.5c0-0.2,0-0.5,0.1-0.8c0.1-0.2,0.2-0.8,0.5-0.8c0.1,0,0.2,0.2,0.2,0.6v0.3
			c0,0.3,0.2,0.5,0.6,0.5h0c0.5,0,0.8-0.3,0.9-1c0.1-0.3,0.2-1.1,0.6-1.1c0.1,0,0.2,0.2,0.2,0.5c0,0.2,0.1,0.3,0.4,0.3
			c0.5,0,0.8-0.3,0.9-0.8c0.1-0.7,0.2-0.8,0.4-0.8c0.2,0,0.3,0.7,0.3,1.1c0,0.3,0,0.6-0.2,1c-0.2,0.7-0.7,1.2-1.5,1.2
			c-0.2,0-0.4-0.1-0.5-0.1c-0.1-0.1-0.1,0-0.2,0.1C202.6,17.4,202.1,17.9,201.3,17.9z M205.2,11C205.3,11,205.3,11,205.2,11
			c0,0.5-0.2,0.9-0.4,1.2c-0.1,0.1-0.2,0.2-0.5,0.3l-4,1.9c0,0-0.1,0-0.1-0.1c0-0.2,0.1-0.5,0.2-0.7c0.2-0.3,0.2-0.4,0.3-0.5
			c0.1-0.1,0.2-0.1,0.3-0.2L205.2,11z"/>
		<path class="st0" d="M206.8,21.4c0.7,0,1.1,0.4,1.1,1.1c0,0.8-0.4,1.2-1.1,1.2h-0.2c-0.6,0-1,0-1.3-0.1c0,0.1,0,0.2,0,0.3
			c0,0.7-0.1,1.5-0.4,2.1c-0.5,1.2-1.3,3.3-3.6,4.3c-0.4,0.2-0.8,0.3-1.2,0.3c-0.9,0-2.4-0.5-3.5-1c-0.3-0.2-0.4-0.3-0.4-0.4
			c0-0.1,0.1-0.2,0.4-0.2c0.3,0,0.8,0.1,1.3,0.1c3.1,0,6.2-2.7,6.6-5c0-0.5-1.1-1.6-1.3-1.9c0-0.1-0.1-0.2-0.1-0.3
			c0-0.5,0.4-1.5,0.6-1.8c0.1-0.2,0.2-0.2,0.3-0.2c0.2,0,0.3,0.2,0.6,0.7c0.4,0.6,0.9,0.9,1.8,0.9H206.8z"/>
		<path class="st0" d="M209,22.7c-0.5,0.7-1.2,1-2.3,1h-0.2c-0.7,0-1-0.4-1-1.2c0-0.7,0.3-1.1,1-1.1h0.2c0.5,0,1-0.1,1.5-0.2
			c0.4-0.1,0.6-0.3,0.7-0.4c0-1.7-0.6-5.4-0.9-8.9c0-0.4-0.3-1.6-0.4-2.1c0-0.1,0-0.2,0-0.2c0-0.3,0.3-0.9,0.5-1.3
			c0.3-0.5,0.5-0.9,0.7-0.9c0.1,0,0.1,0.1,0.2,0.2c0.3,1,0.6,1.5,0.8,1.8c0.1,0.1,0.1,0.2,0.1,0.3c0,0,0,0.1,0,0.1
			c-0.1,0.2-0.4,0.8-0.6,1.1c0.2,3.4,0.7,6.2,0.7,7.8C210,20.3,209.7,21.7,209,22.7z"/>
		<path class="st0" d="M214.6,23.7c-0.1,0-0.2-0.2-0.2-0.7c0-3-1.1-11.3-1.1-12.7c0-0.7,0.5-1.7,0.9-2.5c0.1-0.2,0.3-0.5,0.5-0.5
			c0.1,0,0.2,0.2,0.2,0.8c0.1,2.2,0.7,7.3,0.7,11c0,1.5-0.1,2.7-0.4,3.5C215,23.4,214.8,23.7,214.6,23.7z"/>
		<path class="st0" d="M223,11.3c0.1-0.1,0.1,0,0.1,0.1c0,0.6-0.2,1.1-0.5,1.3l-4.1,2.3c-0.1,0-0.1,0-0.1-0.1c0-0.3,0.1-0.8,0.2-1
			c0.1-0.2,0.3-0.3,0.7-0.5L223,11.3z"/>
		<path class="st0" d="M223.7,19.6c0.3,0.9,0.5,1.8,0.5,3.1c0,4-1.1,6.5-4.2,7.7c-0.2,0.1-0.4,0.1-0.6,0.1c-1,0-2.6-0.5-4-1.1
			c-0.3-0.2-0.4-0.3-0.4-0.4c0-0.1,0.1-0.2,0.4-0.2c0.2,0,1.1,0.2,1.8,0.2c0.9,0,1.9-0.4,3.3-1.3c1.5-1,2.8-2.3,2.8-3.8
			c0-0.5-0.1-1-0.4-1.5c-0.3,0.7-0.8,1.1-1.5,1.1c-1.3,0-2.1-0.7-2.1-2.1c0-0.5,0.3-1.3,0.6-2.1c0.5-1,1.2-1.9,1.8-1.9
			C222.4,17.4,223.2,18.3,223.7,19.6z M221.2,19.6c-0.3,0-0.5,0.2-0.7,0.5c-0.1,0.1-0.2,0.4-0.2,0.5c0,0.4,0.6,0.6,1.1,0.6
			c0.4,0,0.7-0.2,0.8-0.4C222.2,20.1,221.5,19.6,221.2,19.6z"/>
		<path class="st0" d="M237.5,7.8c0.1,0,0.4,0.4,0.4,0.5c-2.2,2-3.9,4.8-3.9,9.4c0,4.2,1.2,7.5,3.7,9.8c0,0.1-0.3,0.5-0.4,0.5
			c-1.4-0.6-5-4.3-5-10C232.3,13.3,234.7,9.8,237.5,7.8z"/>
		<path class="st0" d="M253.5,3.8c0.1-0.1,0.1,0,0.1,0.1c0,0.6-0.2,1.1-0.5,1.3L249,7.5c-0.1,0-0.1,0-0.1-0.1c0-0.3,0.1-0.8,0.2-1
			c0.1-0.2,0.3-0.3,0.7-0.5L253.5,3.8z"/>
		<path class="st0" d="M246.9,24.4c-0.9-0.8-1.4-2.1-1.4-3.4c0-1.5,0.9-3.2,1.4-3.9c0.2-0.3,0.4-0.4,0.5-0.4c0.1,0,0.1,0.1,0.1,0.2
			c0,0.1-0.1,0.3-0.2,0.5c-0.4,0.9-0.9,1.8-0.9,2.9c0,0.8,0.6,1.6,1.4,2.1c0.8,0.5,1.7,0.8,2.7,0.8c2.4,0,5.7-1,6.4-2.7
			c0-0.2,0-0.3,0-0.4c0-1.1-0.3-2.3-0.9-3.1c-0.2-0.4-0.4-0.7-0.5-0.8c0,0,0-0.1,0-0.2c0-0.2,0.1-0.5,0.2-0.8
			c0.2-0.4,0.3-0.8,0.4-1.1c0.1-0.1,0.1-0.2,0.2-0.2c0.1,0,0.1,0,0.2,0.3c0.7,1.5,1.3,2.9,1.3,4.7c0,1.4-0.2,2.3-0.3,2.7
			c-0.4,0.9-0.6,1.3-1.1,1.8c-0.5,0.5-1.4,1.2-2.5,1.6c-1.1,0.5-2.4,0.7-4.1,0.7C248.8,25.5,247.8,25.2,246.9,24.4z M253.5,10.6
			c0.1,0.1,0.1,0.1,0,0.2c-0.2,0.3-1.1,1.2-1.4,1.7c-0.1,0.1-0.1,0.1-0.2,0c-0.5-0.3-1.5-1-1.7-1.4c-0.1-0.1-0.1-0.1,0-0.2
			c0.3-0.5,0.9-1.2,1.3-1.6c0.2-0.2,0.2-0.2,0.3-0.1C252.1,9.5,252.8,10.1,253.5,10.6z"/>
		<path class="st0" d="M256.9,29.7c-0.3-0.2-0.4-0.3-0.4-0.4c0-0.1,0.2-0.2,0.4-0.2c0.3,0,1.1,0.2,1.8,0.2c0.6,0,1.2-0.2,2.1-0.6
			c2.4-1.2,3.9-3,3.9-4.2c0-0.2,0-0.3-0.1-0.7h-0.7c-0.5,0-1.5-0.1-2.2-0.5c-0.7-0.4-1-0.9-1-1.5c0-0.6,0.3-1.4,0.6-2.2
			c0.6-1.3,1.2-2.2,1.9-2.2c0.7,0,1.3,0.5,1.8,1.1c0.5,0.7,0.7,1.8,0.7,2.8h1c0.6,0,0.9,0.3,0.9,1c0,0.8-0.3,1.2-0.9,1.2l-1.1,0.1
			c-0.2,3.5-1.3,5.8-4.1,6.9c-0.2,0.1-0.4,0.1-0.6,0.1C259.9,30.7,258.3,30.3,256.9,29.7z M263.1,20c-0.1-0.1-0.3-0.2-0.6-0.2
			c-0.5,0-0.8,0.5-0.8,0.8c0,0.2,0.2,0.5,0.8,0.7c0.4,0.2,0.9,0.2,1.1,0.2c0.2,0,0.2,0,0.2-0.1C264,21.1,263.6,20.4,263.1,20z"/>
		<path class="st0" d="M266.3,21.4h0.2c0.6,0,1-0.2,1.3-0.5c0.5-0.5,0.5-1.1,0.5-1.8c0-1.5-0.1-4.6-0.3-9.2c0-0.5,0.2-1,0.5-1.7
			c0.2-0.3,0.3-0.6,0.5-0.6c0.1,0,0.2,0.2,0.3,0.7c0.2,3.4,0.4,8,0.7,11.3c0.1,0.6,0.4,1.1,0.8,1.4c0.3,0.2,0.6,0.3,0.9,0.3h0.3
			c0.6,0,1,0.4,1,1.1c0,0.8-0.3,1.2-1,1.2h-0.3c-1.4,0-2.4-1-2.8-2.4c-0.3,1.6-1.1,2.4-2.4,2.4h-0.2c-0.7,0-1-0.4-1-1.2
			C265.3,21.8,265.6,21.4,266.3,21.4z"/>
		<path class="st0" d="M279.8,25.7c0.1-0.1,0.1,0,0.1,0.1c0,0.6-0.2,1.1-0.5,1.3l-4.1,2.3c-0.1,0-0.1,0-0.1-0.1c0-0.3,0.1-0.8,0.2-1
			c0.1-0.2,0.3-0.3,0.7-0.5L279.8,25.7z"/>
		<path class="st0" d="M271.9,23.7h-0.1c-0.7,0-1-0.4-1-1.2c0-0.7,0.4-1.1,1-1.1h0.1c1.2,0,2.2-0.5,2.9-1.4l1.3-2
			c0.7-1.1,1.7-1.5,2.2-1.5c1.7,0,2.4,2.9,2.4,4.1c0,1-1.1,2.4-1.6,2.4c-0.8,0-2.8-1-3.8-1.9C274.3,22.9,273.2,23.7,271.9,23.7z
			 M277.2,18.5c-0.2,0-0.3,0.1-0.5,0.3c-0.1,0.1-0.2,0.3-0.3,0.5c0.5,0.3,1.9,1,2.5,1.4C278.9,19.9,277.9,18.5,277.2,18.5z"/>
		<path class="st0" d="M283.7,13.5c0.7,0,1.7,1,1.7,2.1c0,0.4-0.1,0.8-0.2,1.2c-0.3,0.8-0.9,1.3-1.8,1.3c-0.8,0-1.3-0.6-1.3-1.3
			C282.1,15.7,283.2,13.5,283.7,13.5z M283.5,15.1c-0.3,0-0.7,0.6-0.7,1c0,0.3,0.4,0.6,0.8,0.6c0.5,0,1.1-0.3,1.1-0.5
			C284.7,15.9,284.1,15.1,283.5,15.1z"/>
		<path class="st0" d="M291.9,12.8c0.1-0.1,0.1,0,0.1,0.1c0,0.6-0.2,1.1-0.5,1.3l-4.1,2.3c-0.1,0-0.1,0-0.1-0.1c0-0.3,0.1-0.8,0.2-1
			c0.1-0.2,0.3-0.3,0.7-0.5L291.9,12.8z"/>
		<path class="st0" d="M290,29.9c0.2-0.2,0.2-0.2,0.3-0.1c0.5,0.5,1,1.1,1.5,1.4c0.2,0.1,0.2,0.2,0,0.3c-0.5,0.5-0.9,1-1.3,1.5
			c-0.1,0.1-0.2,0.1-0.3,0c-0.4-0.3-0.9-0.7-1.4-1.2c-0.3,0.3-0.9,1-1.1,1.2c-0.1,0.1-0.2,0.2-0.4,0c-0.5-0.3-1.1-0.9-1.5-1.4
			c-0.1-0.1-0.1-0.2,0-0.3c0.4-0.5,0.9-1,1.4-1.5c0.1-0.1,0.2-0.1,0.3,0.1c0.4,0.4,1,1,1.4,1.2C289.2,30.8,289.7,30.2,290,29.9z"/>
		<path class="st0" d="M287.9,24.4c0,0.8-0.1,1.5-0.4,2.3c-0.5,1.3-1.5,2.8-3.4,3.7c-0.4,0.2-0.8,0.3-1.2,0.3c-0.9,0-2.3-0.5-3.5-1
			c-0.3-0.1-0.5-0.3-0.5-0.4c0-0.2,0.2-0.3,0.6-0.2c0.3,0,0.6,0.1,0.9,0.1c3.1,0,6.4-2.7,6.6-4.3c0-1-0.9-1.9-1.1-2.2
			c0-0.1-0.1-0.2-0.1-0.3c0-0.5,0.4-1.5,0.6-1.8c0.1-0.2,0.2-0.2,0.3-0.2s0.4,0.3,0.7,0.8c0.1,0.1,0.1,0.1,0.2,0.1
			c0.2,0.1,0.3,0.1,0.4,0.1c0.8,0,1.6-0.6,1.8-1.8c0-0.3,0.1-0.5,0.3-0.5c0.2,0,0.4,0.4,0.5,1c0,0.1,0,0.3,0,0.4
			c0,1.9-1.4,3.1-2.7,3.2C287.9,23.9,287.9,24.2,287.9,24.4z"/>
		<path class="st0" d="M298.4,28c-0.1,0-0.4-0.4-0.4-0.5c2.2-2.2,3.9-4.8,3.9-9.4c0-4.1-1.1-7.4-3.7-9.8c0-0.1,0.4-0.5,0.4-0.5
			c1.5,0.7,5,4.3,5,10C303.6,22.6,301.2,26.1,298.4,28z"/>
		<path class="st0" d="M316.3,1.2c0,0.5-0.1,1-0.3,1.5c0.2,0.1,0.4,0.3,0.4,0.4c0,0.4-0.2,0.7-0.3,1c-0.1,0.1-0.1,0.1-0.1,0.1
			l-0.5-0.3c-0.5,0.8-1.3,1.7-2.5,2.3c-0.4,0.2-0.9,0.4-1.5,0.4c-0.3,0-0.4-0.1-0.4-0.1c0-0.1,0.2-0.2,0.6-0.4
			c0.9-0.5,2.5-1.8,3.1-2.5c-0.5-0.3-1.1-0.7-1.1-1.4c0-0.4,0.2-0.9,0.6-1.3c0.4-0.5,0.8-0.8,1.2-0.8C316.1,0,316.2,0.7,316.3,1.2z
			 M314.5,1.7C314.5,1.7,314.4,1.7,314.5,1.7c0,0.2,0.4,0.5,0.8,0.7c0.1-0.2,0.1-0.4,0.1-0.7c0-0.3-0.1-0.4-0.3-0.4
			C314.8,1.3,314.6,1.4,314.5,1.7z"/>
		<path class="st0" d="M315.8,8.6c0.2-0.2,0.2-0.2,0.3-0.1c0.5,0.5,1,1.1,1.5,1.4c0.2,0.1,0.2,0.2,0,0.3c-0.5,0.5-0.9,1-1.3,1.5
			c-0.1,0.1-0.2,0.1-0.3,0c-0.4-0.3-0.9-0.7-1.4-1.2c-0.3,0.3-0.9,1-1.1,1.2c-0.1,0.1-0.2,0.2-0.4,0c-0.5-0.3-1.1-0.9-1.5-1.4
			c-0.1-0.1-0.1-0.2,0-0.3c0.4-0.5,0.9-1,1.4-1.5c0.1-0.1,0.2-0.1,0.3,0.1c0.4,0.4,1,1,1.4,1.2C315,9.4,315.5,8.8,315.8,8.6z
			 M318.7,21c0.5,0.3,0.9,0.5,1.2,0.5h0.3c0.7,0,1.1,0.4,1.1,1.1c0,0.8-0.4,1.2-1.1,1.2h-0.3c-0.8,0-1.5-0.3-2.3-0.9
			c-0.7-0.6-1.2-1.6-1.4-3c-0.2,0.4-0.4,0.7-0.8,1c-0.6,0.4-1.6,0.6-2.6,0.6c-0.7,0-1.4-0.1-1.4-0.7c0.3-2.2,0.6-2.6,1.7-3.4
			c0.5-0.4,1.8-1.2,2.3-1.6c0-0.2,0-0.4,0-0.5c0-0.5,0.1-0.8,0.4-1.2c0.2-0.3,0.3-0.5,0.4-0.5c0.1,0,0.2,0.2,0.2,0.5
			c0.3,2.1,0.5,3.8,0.8,4.8C317.5,19.7,318,20.5,318.7,21z M315.7,16.9c-0.9,0.6-2.5,1.6-2.6,1.9c0,0.2,0.3,0.2,0.7,0.2
			c0.6,0,1.5-0.2,2.2-0.5C315.9,17.9,315.9,17.7,315.7,16.9z"/>
		<path class="st0" d="M326,12.4c0.1-0.1,0.1,0,0.1,0.1c0,0.6-0.2,1.1-0.5,1.3l-4.1,2.3c-0.1,0-0.1,0-0.1-0.1c0-0.3,0.1-0.8,0.2-1
			c0.1-0.2,0.3-0.3,0.7-0.5L326,12.4z"/>
		<path class="st0" d="M331.6,25.3c0.1-0.1,0.1,0,0.1,0.1c0,0.6-0.2,1.1-0.5,1.3l-4.1,2.3c-0.1,0-0.1,0-0.1-0.1c0-0.3,0.1-0.8,0.2-1
			c0.1-0.2,0.3-0.3,0.7-0.5L331.6,25.3z"/>
		<path class="st0" d="M336.4,4.2c0.1-0.1,0.1,0,0.1,0.1c0,0.6-0.2,1.1-0.5,1.3l-4.1,2.3c-0.1,0-0.1,0-0.1-0.1c0-0.3,0.1-0.8,0.2-1
			c0.1-0.2,0.3-0.3,0.7-0.5L336.4,4.2z"/>
		<path class="st0" d="M331.1,23.4c-0.6-0.3-1-0.8-1.3-1.7c-0.1-0.3-0.2-0.8-0.3-1.4c-0.2-1.1-0.3-2.1-0.4-3.2
			c-0.5,1.4-1.1,2.4-1.6,2.8c0.2,0.4,0.3,0.9,0.3,1.4c0,0.4-0.2,0.9-0.5,1.5c-0.4,0.6-0.7,0.9-1.1,0.9c-0.5,0-1-0.2-1.6-0.5
			c-0.6-0.3-1.1-0.7-1.5-1.3c-0.7,1.3-1.7,1.8-2.9,1.8h-0.2c-0.6,0-0.9-0.4-0.9-1.2c0-0.7,0.3-1.1,0.9-1.1h0.3c1,0,1.8-0.1,2.3-0.3
			c0.5-0.2,0.8-0.6,1.2-1.2c0.4-0.6,0.7-1.1,1-1.3c0,0,0.1-0.1,0.2-0.1c1.1-0.2,2.2-0.6,3-1.4c0.8-0.7,1.2-1.4,1.2-2.2l-0.4-5.7
			c0-0.1,0-0.2,0-0.2c0.2-0.7,0.8-1.9,1.1-2c0.2,0,0.2,0.8,0.2,0.9c0.1,0.6,0.1,1.6,0.2,2.6c0.1,0.7,0.1,2,0.2,3.5l0.2-0.8
			c0.1-0.6,0.5-1.1,1.1-1.6c1-0.8,2.4-1.7,4.3-2.8c1.9-1.1,3.3-1.8,4.4-2.2c0.2-0.1,0.4-0.1,0.4,0c0,0.2-0.2,0.9-0.9,1.9
			c-0.1,0.1-0.1,0.2-0.3,0.2c-1,0.4-2.4,1.2-4.1,2.2c-1.9,1.1-3.2,2-4.1,2.7c3.6,1.4,5.5,3.3,5.5,5.5c0,1.1-0.2,2.1-0.7,2.9
			c-0.4,0.7-1.4,1.4-3.3,1.4C332,23.7,331.5,23.6,331.1,23.4z M324.2,20.3c0.2,0.3,0.5,0.5,1.1,0.8c0.5,0.3,0.9,0.4,1.2,0.4
			c-0.1-0.5-0.2-0.8-0.4-1.1c-0.3-0.3-0.6-0.5-0.9-0.5C324.6,19.9,324.3,20,324.2,20.3z M332.3,21.3c0.2,0,0.3,0.1,0.5,0.1
			c0.5,0,1-0.1,1.6-0.2c0.5-0.2,1-0.4,1.3-0.6c0,0,0-0.1,0-0.1c0-0.5-0.4-1.1-1.2-1.8c-0.8-0.7-2-1.4-3.5-2.1
			c-0.2-0.1-0.3-0.2-0.5-0.4c0.1,1.6,0.3,3.1,0.6,3.9C331,20.1,331.3,21,332.3,21.3z"/>
		<path class="st0" d="M349.4,23.7c-0.7,0-1.2-0.1-1.7-0.5c-0.7-0.6-1.1-1.7-1.3-3.1c-0.2-1.1-0.2-2.3-0.3-3.7
			c-0.1-2-0.2-5.1-0.5-6.9c0-0.1,0-0.2,0-0.2c0-0.1,0-0.2,0.2-0.4c0.3-0.5,0.5-0.8,0.7-1.2c0.2-0.3,0.2-0.3,0.3-0.3
			c0.1,0,0.2,0.2,0.3,0.7c0.4,3.5,0.1,8.4,0.6,11.1c0.1,0.7,0.2,0.9,0.4,1.3c0.3,0.6,0.7,0.9,1.4,1c0.8,0,1.2,0.4,1.2,1.1
			c0,0.9-0.4,1.2-1.1,1.2H349.4z"/>
		<path class="st0" d="M361.9,8.2c0,0.5-0.1,1-0.3,1.5c0.2,0.1,0.4,0.3,0.4,0.4c0,0.4-0.2,0.7-0.3,1c-0.1,0.1-0.1,0.1-0.1,0.1
			l-0.5-0.3c-0.5,0.8-1.3,1.8-2.5,2.3c-0.4,0.2-0.9,0.4-1.5,0.4c-0.3,0-0.4-0.1-0.4-0.1c0-0.1,0.2-0.2,0.6-0.4
			c0.9-0.5,2.5-1.8,3.1-2.5c-0.5-0.3-1.1-0.7-1.1-1.4c0-0.4,0.2-0.9,0.6-1.3c0.4-0.5,0.8-0.8,1.2-0.8C361.7,6.9,361.9,7.6,361.9,8.2
			z M360.1,8.6C360.1,8.7,360.1,8.7,360.1,8.6c0,0.2,0.4,0.5,0.8,0.7c0.1-0.2,0.1-0.4,0.1-0.7c0-0.3-0.1-0.4-0.3-0.4
			C360.5,8.2,360.3,8.4,360.1,8.6z"/>
		<path class="st0" d="M354.8,25.2c0,0.2,0,0.4,0.1,0.6c0.3,1.1,0.4,1.4,0.5,1.9c0,0.5-0.4,1.5-0.6,2c0,0.1-0.1,0.1-0.2,0.1
			c-0.1,0-0.3,0-0.3-0.1c-1.4-0.7-2-2.4-2-4.5c0-1.5,0.1-2,0.3-2.9c-0.7,0.9-1.6,1.4-2.8,1.4h-0.2c-0.7,0-1.1-0.4-1.1-1.1
			c0-0.8,0.4-1.1,1.1-1.1h0.2c1.6,0,3.1-1,3.9-2.2c0.2-0.4,0.4-0.6,0.6-0.6c0.1,0,0.2,0.1,0.2,0.3c0,0.7-1.1,2.6-1.1,4.8
			c0,0.5,0.2,1.2,0.6,2.2c0-1.3,0.4-2.6,1.1-3.7c0.7-1,2.3-1.8,3.7-2.4c-0.1-0.2-0.3-0.3-0.5-0.4c-0.4-0.2-0.9-0.2-1.2-0.4
			c-0.1,0-0.2-0.1-0.2-0.2c0-0.5,0.2-1.3,0.4-1.8c0.4-0.5,1.8-1.2,2.8-1.2c1.7,0,3.2,0.7,3.2,1.8c0,0.4-0.1,0.7-0.2,1
			c-0.2,0.5-0.9,1.2-1.1,1.3c0.9,0.9,1.8,1.3,2.7,1.3h0.3c0.6,0,1,0.4,1,1.1c0,0.8-0.3,1.2-1,1.2h-0.3c-1.6,0-2.8-0.8-4.4-2.5
			c-3.5,1.5-4.9,2.4-5.2,3C354.9,24.5,354.8,24.8,354.8,25.2z"/>
		<path class="st0" d="M371.9,12.5c0.1-0.1,0.1,0,0.1,0.1c0,0.6-0.2,1.1-0.5,1.3l-4.1,2.3c-0.1,0-0.1,0-0.1-0.1c0-0.3,0.1-0.8,0.2-1
			c0.1-0.2,0.3-0.3,0.7-0.5L371.9,12.5z"/>
		<path class="st0" d="M364.9,23.7h-0.2c-0.6,0-0.9-0.4-0.9-1.1c0-0.8,0.3-1.2,1-1.2h0.2c1.6,0,2.7-0.8,3.5-1.6
			c0.8-0.8,1.4-1.6,1.9-1.6c0.2,0,0.4,0.1,0.6,0.3c0.9,1,2.9,2.9,3.8,2.9h0.1c0.7,0,1.1,0.4,1.1,1.1c0,0.8-0.4,1.2-1.1,1.2h-0.1
			c-0.9,0-1.8-0.6-1.9-0.8c-0.2,0.7-1,1.5-1.4,1.5c-0.4,0-3.3-0.9-4.2-2.2C366.9,23.2,365.8,23.7,364.9,23.7z M370.7,20.8
			c-0.3-0.3-0.7-0.6-1.1-0.6c-0.2,0-0.3,0.1-0.5,0.3c-0.2,0.2-0.3,0.3-0.3,0.4c0,0.2,0.3,0.3,1.2,0.8c0.4,0.2,1.3,0.6,1.5,0.6
			c0.1,0,0.1-0.1,0.1-0.1C371.6,21.9,371,21.1,370.7,20.8z"/>
		<path class="st0" d="M378.7,8.8c0.7,0,1.7,1,1.7,2.1c0,0.4-0.1,0.8-0.2,1.2c-0.3,0.8-0.9,1.3-1.8,1.3c-0.8,0-1.3-0.6-1.3-1.3
			C377,10.9,378.2,8.8,378.7,8.8z M378.4,10.3c-0.3,0-0.7,0.6-0.7,1c0,0.3,0.4,0.6,0.8,0.6c0.5,0,1.1-0.3,1.1-0.5
			C379.6,11.2,379,10.3,378.4,10.3z"/>
		<path class="st0" d="M383,26.5c0.1,0.1,0.1,0.1,0,0.2c-0.2,0.3-1.1,1.2-1.4,1.7c-0.1,0.1-0.1,0.1-0.2,0c-0.5-0.3-1.5-1-1.7-1.4
			c-0.1-0.1-0.1-0.1,0-0.2c0.3-0.5,0.9-1.2,1.3-1.6c0.2-0.2,0.2-0.2,0.3-0.1C381.6,25.4,382.3,26.1,383,26.5z"/>
		<path class="st0" d="M387.9,5.3c0.1-0.1,0.1,0,0.1,0.1c0,0.6-0.2,1.1-0.5,1.3l-4.1,2.3c-0.1,0-0.1,0-0.1-0.1c0-0.3,0.1-0.8,0.2-1
			c0.1-0.2,0.3-0.3,0.7-0.5L387.9,5.3z"/>
		<path class="st0" d="M389.1,23.7c0.2-0.2,0.2-0.2,0.3-0.1c0.5,0.5,1,1.1,1.5,1.4c0.2,0.1,0.2,0.2,0,0.3c-0.5,0.5-0.9,1-1.3,1.5
			c-0.1,0.1-0.2,0.1-0.3,0c-0.4-0.3-0.9-0.7-1.4-1.2c-0.3,0.3-0.9,1-1.1,1.2c-0.1,0.1-0.2,0.2-0.4,0c-0.5-0.3-1.1-0.9-1.5-1.4
			c-0.1-0.1-0.1-0.2,0-0.3c0.4-0.5,0.9-1,1.4-1.5c0.1-0.1,0.2-0.1,0.3,0.1c0.4,0.4,1,1,1.4,1.2C388.3,24.5,388.9,23.9,389.1,23.7z"
			/>
		<path class="st0" d="M386.3,14.9c-0.2,0-0.2-0.2-0.3-0.5c-0.1-0.6-0.4-1.2-0.8-1.2c-0.3,0-0.7,0.3-1.1,0.9
			c-1.1,1.7-2.3,2.8-3.3,3.5c-0.1,0,0,0.1,0.1,0.1c3.5,1.3,6.4,1.9,8.8,1.8c0.1,0,0.2,0,0.1,0.3c-0.2,0.3-0.6,0.9-1.3,1.7
			c-0.1,0.1-0.2,0.2-0.3,0.1c-0.9-0.1-1.8-0.2-2.5-0.3c-1,0-1.9,0.1-2.7,0.3c-0.7,0.2-1.7,0.5-2.8,0.9c-1.1,0.4-2.1,0.7-2.7,0.9
			c-0.6,0.2-1.5,0.3-2.5,0.3h-0.3c-0.6,0-0.9-0.4-0.9-1.2c0-0.7,0.3-1.1,0.9-1.1h0.3c2.1,0,4.3-0.3,6.6-1c0,0,0,0-0.2-0.1
			c-1.4-0.7-3.1-1.1-5.2-1.3c-0.2,0-0.1-0.1,0-0.3c0.2-0.3,0.6-0.8,1.3-1.5c0.3-0.3,1-0.7,2.2-1.1c1.9-0.8,3.9-2.1,5-4.2
			c0.3-0.6,0.9-1.1,1.4-1.1c0.8,0,1.1,1.2,1.1,1.8c0,0.6,0,0.9-0.1,1.3C386.8,14.4,386.6,14.9,386.3,14.9z"/>
		<path class="st0" d="M395.8,11.3c0.1-0.1,0.1,0,0.1,0.1c0,0.6-0.2,1.1-0.5,1.3l-4.1,2.3c-0.1,0-0.1,0-0.1-0.1c0-0.3,0.1-0.8,0.2-1
			c0.1-0.2,0.3-0.3,0.7-0.5L395.8,11.3z"/>
		<path class="st0" d="M396.6,19.6c0.3,0.9,0.5,1.8,0.5,3.1c0,4-1.1,6.5-4.2,7.7c-0.2,0.1-0.4,0.1-0.6,0.1c-1,0-2.6-0.5-4-1.1
			c-0.3-0.2-0.4-0.3-0.4-0.4c0-0.1,0.1-0.2,0.4-0.2c0.2,0,1.1,0.2,1.8,0.2c0.9,0,1.9-0.4,3.3-1.3c1.5-1,2.8-2.3,2.8-3.8
			c0-0.5-0.1-1-0.4-1.5c-0.3,0.7-0.8,1.1-1.5,1.1c-1.3,0-2.1-0.7-2.1-2.1c0-0.5,0.3-1.3,0.6-2.1c0.5-1,1.2-1.9,1.8-1.9
			C395.2,17.4,396.1,18.3,396.6,19.6z M394.1,19.6c-0.3,0-0.5,0.2-0.7,0.5c-0.1,0.1-0.2,0.4-0.2,0.5c0,0.4,0.6,0.6,1.1,0.6
			c0.4,0,0.7-0.2,0.8-0.4C395,20.1,394.4,19.6,394.1,19.6z"/>
	</g>
</g>
</svg>
