<?xml version="1.0" encoding="utf-8"?>
<!-- Generator: Adobe Illustrator 19.2.0, SVG Export Plug-In . SVG Version: 6.00 Build 0)  -->
<svg version="1.1" id="Layer_1" xmlns="http://www.w3.org/2000/svg" xmlns:xlink="http://www.w3.org/1999/xlink" x="0px" y="0px"
	 viewBox="0 0 133.8 38" style="enable-background:new 0 0 133.8 38;" xml:space="preserve">
<style type="text/css">
	.st0{fill:#CB9248;}
	.st1{fill:url(#SVGID_1_);}
	.st2{fill:#F4CE83;}
	.st3{opacity:0.5;fill:#FFFFFF;}
	.st4{fill:none;stroke:#003351;stroke-width:2.398;stroke-linecap:round;stroke-linejoin:round;stroke-miterlimit:10;}
	.st5{fill:url(#SVGID_2_);}
	.st6{fill:url(#SVGID_3_);}
	.st7{fill:url(#SVGID_4_);}
	.st8{fill:#FFFFFF;}
</style>
<g>
	<g>
		<circle class="st0" cx="124.7" cy="20.3" r="9.1"/>
	</g>
	<g>
		<linearGradient id="SVGID_1_" gradientUnits="userSpaceOnUse" x1="124.6674" y1="29.4783" x2="124.6674" y2="16.739">
			<stop  offset="0" style="stop-color:#BF780A;stop-opacity:0"/>
			<stop  offset="0.1413" style="stop-color:#BF780A;stop-opacity:0.1413"/>
			<stop  offset="1" style="stop-color:#BF780A"/>
		</linearGradient>
		<path class="st1" d="M124.7,22.6c-4.8,0-8.8-1.1-9.1-5.9c0,0.2,0,3.4,0,3.6c0,5,4.1,9.1,9.1,9.1c5.1,0,9.1-4.1,9.1-9.1
			c0-0.2,0-3.4,0-3.6C133.5,21.5,129.5,22.6,124.7,22.6z"/>
	</g>
	<g>
		<ellipse class="st2" cx="124.7" cy="16.2" rx="6.6" ry="4.7"/>
	</g>
	<ellipse class="st3" cx="124.4" cy="12.3" rx="1.3" ry="0.8"/>
	<g>
		<circle class="st4" cx="124.7" cy="20.4" r="5.6"/>
		<circle class="st4" cx="124.7" cy="19.2" r="5.6"/>
		<linearGradient id="SVGID_2_" gradientUnits="userSpaceOnUse" x1="124.667" y1="24.7889" x2="124.667" y2="13.6726">
			<stop  offset="0" style="stop-color:#509B7E"/>
			<stop  offset="0.2754" style="stop-color:#2F7F7A"/>
			<stop  offset="0.5528" style="stop-color:#156A77"/>
			<stop  offset="0.8029" style="stop-color:#055D76"/>
			<stop  offset="1" style="stop-color:#005875"/>
		</linearGradient>
		<circle class="st5" cx="124.7" cy="19.2" r="5.6"/>
		<linearGradient id="SVGID_3_" gradientUnits="userSpaceOnUse" x1="124.667" y1="20.2113" x2="124.667" y2="14.6532">
			<stop  offset="0" style="stop-color:#FFCC8B;stop-opacity:0"/>
			<stop  offset="1" style="stop-color:#FFCC8B"/>
		</linearGradient>
		<circle class="st6" cx="124.7" cy="17.4" r="2.8"/>
		<linearGradient id="SVGID_4_" gradientUnits="userSpaceOnUse" x1="124.667" y1="20.2113" x2="124.667" y2="14.6532">
			<stop  offset="0" style="stop-color:#FFCC8B;stop-opacity:0"/>
			<stop  offset="1" style="stop-color:#FFCC8B"/>
		</linearGradient>
		<circle class="st7" cx="124.7" cy="17.4" r="2.8"/>
	</g>
	<ellipse class="st8" cx="124.5" cy="15.9" rx="1.2" ry="0.8"/>
	<path class="st8" d="M2.3,18.7c0.3,0.3,0.4,0.7,0.4,1.1c0,0.2-0.1,0.7-0.4,0.9c-0.3,0.3-0.7,0.4-1.1,0.4c-0.3,0-0.7-0.1-0.9-0.4
		c-0.3-0.3-0.4-0.6-0.4-1c0-0.4,0.2-0.8,0.4-1c0.3-0.2,0.6-0.4,1-0.4C1.7,18.3,2.1,18.5,2.3,18.7z M2.3,23.9
		c0.3,0.3,0.4,0.8,0.4,1.1c0,0.3-0.1,0.7-0.4,1c-0.3,0.3-0.7,0.4-1.1,0.4c-0.3,0-0.6-0.2-0.9-0.4C0.1,25.7,0,25.4,0,25
		c0-0.3,0.2-0.7,0.4-1c0.3-0.3,0.6-0.4,1-0.4C1.7,23.6,2.1,23.7,2.3,23.9z"/>
	<path class="st8" d="M18.7,27.3c0.1-0.1,0.1,0,0.1,0.1c0,0.6-0.2,1.1-0.5,1.3l-4.1,2.3c-0.1,0-0.1,0-0.1-0.1c0-0.3,0.1-0.8,0.2-1
		c0.1-0.2,0.3-0.3,0.7-0.5L18.7,27.3z"/>
	<path class="st8" d="M18.5,21.4c-0.1,0.7-0.5,1.6-0.8,2.1c-0.1,0.1-0.1,0.1-0.2,0.1c0,0-0.1,0-0.1,0c-0.3-0.1-0.7-0.2-1.5-0.2
		c-1.6,0-3.6,0.4-3.7,1c0,0.8,0.9,4,0.9,8c0,0.4,0,0.8,0,1.1c-0.1,1.7-0.6,2.7-0.8,2.7c-0.1,0-0.2-0.2-0.2-0.6c0-0.3,0-0.6,0-1
		c0-2.3-0.5-5-0.9-7.6C11,26.2,11,25.6,11,25.1c0-1.9,0.7-2.6,1.1-3c0-0.1,0-0.2,0-0.3c0-1.5,0.9-3.9,2.4-3.9c1.8,0,3.2,2.1,4,3.3
		C18.5,21.2,18.5,21.3,18.5,21.4z M14,20.4c-0.6,0-0.8,0.7-1,1.1c0.6-0.4,1.7-0.5,2.3-0.5C14.9,20.6,14.5,20.4,14,20.4z"/>
	<path class="st8" d="M24.6,26.1c-0.7,0-1.2-0.1-1.7-0.5c-0.7-0.6-1.1-1.7-1.3-3.1c-0.2-1.1-0.2-2.3-0.3-3.7c-0.1-2-0.2-5.1-0.5-6.9
		c0-0.1,0-0.2,0-0.2c0-0.1,0-0.2,0.2-0.4c0.3-0.5,0.5-0.8,0.7-1.2c0.2-0.3,0.2-0.3,0.3-0.3c0.1,0,0.2,0.2,0.3,0.7
		c0.4,3.5,0.1,8.4,0.6,11.1c0.1,0.7,0.2,0.9,0.4,1.3c0.3,0.6,0.7,0.9,1.4,1c0.8,0,1.2,0.4,1.2,1.1c0,0.9-0.4,1.2-1.1,1.2H24.6z"/>
	<path class="st8" d="M26.1,21.7c0-0.5,0.2-1.7,0.6-2.5c0.7-1.5,1.9-2.2,2.9-2.2c0.7,0,2.1,0.4,2.8,1c0.3,0.2,0.3,0.4,0.3,0.5
		c0,0.1-0.1,0.1-0.2,0.1c-0.4,0-1-0.1-1.6-0.1c-1.1,0-3.6,1-3.7,1.7c0.1,0.4,1.3,2.3,3.3,2.3h0.1c1.2-0.5,2.7-1.1,3.7-1.6
		c0.4-0.2,0.7-0.3,0.8-0.3c0.1,0,0.1,0,0.1,0.1c0,0.2-0.5,1.2-0.8,1.7c-0.1,0.1-0.2,0.3-0.4,0.4c-0.7,0.4-1.8,0.9-3.2,1.6
		c-1.5,0.7-4.6,1.8-5.9,1.8h-0.2c-0.7,0-1-0.4-1-1.1c0-0.8,0.4-1.1,1.1-1.1h0.2c0.2,0,1.2-0.1,2.1-0.3
		C26.4,23.1,26.1,22.5,26.1,21.7z M30.9,12c0.1,0.1,0.1,0.1,0,0.2c-0.2,0.3-1.1,1.2-1.4,1.7c-0.1,0.1-0.1,0.1-0.2,0
		c-0.5-0.3-1.5-1-1.7-1.4c-0.1-0.1-0.1-0.1,0-0.2c0.3-0.5,0.9-1.2,1.3-1.6c0.2-0.2,0.2-0.2,0.3-0.1C29.5,10.9,30.2,11.5,30.9,12z"/>
	<path class="st8" d="M39.9,9.7c0.7,0,1.7,1,1.7,2.1c0,0.4-0.1,0.8-0.2,1.2c-0.3,0.8-0.9,1.3-1.8,1.3c-0.8,0-1.3-0.6-1.3-1.3
		C38.3,11.8,39.4,9.7,39.9,9.7z M39.7,11.3c-0.3,0-0.7,0.6-0.7,1c0,0.3,0.4,0.6,0.8,0.6c0.5,0,1.1-0.3,1.1-0.5
		C40.9,12.1,40.3,11.3,39.7,11.3z"/>
	<path class="st8" d="M43.9,22.1c0,0.9-0.2,1.7-0.3,2c-0.4,1.5-2,2.1-4.9,2.1c-0.7,0-1-0.1-1.2-0.3c-0.2-0.2-0.3-0.7-0.3-1.2
		c0-0.4,0.1-0.7,0.1-0.8c0.1-0.3,0.2-0.5,0.2-0.5c0.1,0,0.1,0.1,0.2,0.2c0.3,0.2,0.9,0.3,1.7,0.3c1.2,0,2.7-0.2,3.3-0.6
		c0.1,0,0.1-0.1,0.1-0.1c0,0,0-0.1,0-0.1c-0.4-1.4-2.2-3.9-3.6-3.9c-0.2,0-0.4,0.2-0.6,0.2c-0.1,0-0.1,0-0.1-0.2
		c0-0.5,0.4-1.8,0.8-2.2c0.1-0.1,0.3-0.1,0.5-0.1c0.3,0,0.8,0.1,1.1,0.3c0.6,0.2,1.5,1.2,2.2,2.4C43.6,20.3,43.9,21.1,43.9,22.1z"/>
	<path class="st8" d="M50.9,33.7c0.1-0.1,0.1,0,0.1,0.1c0,0.6-0.2,1.1-0.5,1.3l-4.1,2.3c-0.1,0-0.1,0-0.1-0.1c0-0.3,0.1-0.8,0.2-1
		c0.1-0.2,0.3-0.3,0.7-0.5L50.9,33.7z"/>
	<path class="st8" d="M50.1,31.6c-0.8,0.4-2.6,1.5-4,2.5c-0.1,0-0.1,0-0.1,0c0,0-0.1,0-0.1-0.1c0-0.1,0.1-0.3,0.2-0.7
		c0.1-0.2,0.5-0.6,0.8-0.9c0,0,0.1-0.1,0.1-0.1c0,0,0-0.1-0.1-0.1C46.3,32.1,46,32,46,31.4c0-0.1,0-0.1,0-0.2c0-0.9,1-2.2,1.8-2.9
		c0.3-0.3,0.7-0.4,1-0.4c0.5,0,0.8,0.3,0.8,0.7c0,0.3-0.1,0.6-0.2,1c-0.1,0.2-0.2,0.4-0.3,0.4c-0.1,0-0.2-0.1-0.3-0.2
		c-0.1-0.1-0.3-0.3-0.6-0.3c-0.8,0-1.3,0.5-1.3,0.7c0,0.3,1.3,0.8,1.8,0.8c0.1,0,0.1,0,0.1,0c0.2-0.1,1.1-0.4,1.5-0.6
		c0.2-0.1,0.3-0.2,0.3-0.2c0,0,0.1,0,0.1,0.1c0,0.1-0.1,0.2-0.1,0.4C50.4,31.4,50.3,31.5,50.1,31.6z"/>
	<path class="st8" d="M55,11.7c0.1,0.2,0.1,0.2,0.1,0.3c0,0.1,0,0.1-0.1,0.2c-0.2,0.4-0.5,1-0.8,1.3c-0.2,2.4-0.5,4.3-1.6,7
		c0.3,0.8,0.5,1.9,0.5,2.9c0,0.7-0.1,1.3-0.3,1.8c-0.2,0.4-2.7,0.8-4.4,0.8c-0.5,0-0.8,0-1.1-0.1c-0.1,0-0.2-0.3-0.2-0.7
		c0-0.6,0.1-1.5,0.3-1.8c0-0.1,0.1-0.1,0.1-0.1c0.1,0,0.1,0,0.2,0c1.4,0,2.8-1.3,3.7-2.9c-1.1-2.2-3.5-5.2-5.6-6.6
		c0,0.1-0.4,0.6-0.7,0.6c-0.3,0-2.2-1.8-2.2-2.2c0-0.2-0.1-0.4-0.1-0.6c0-0.6,0.1-1.1,0.2-1.4c0.1-0.3,0.3-0.4,0.4-0.4
		c0.2,0,0.5,0.2,0.8,0.4c1.6,1.1,3.2,2.4,4.5,4c1,1.3,2.3,3,3.3,5.1c0.6-1.3,0.7-2.2,0.9-3.9c0.1-1,0.1-1.7,0.1-2.2
		c0-1.1-0.1-1.5-0.1-1.8c0-0.2,0.1-0.4,0.2-0.7c0.4-0.7,0.7-1.2,0.8-1.2c0.1,0,0.1,0.1,0.2,0.2C54.5,10.5,54.7,11.1,55,11.7z
		 M52,21.6c-0.8,1.1-0.9,1.3-1.7,2.1c0.8,0,1.5-0.1,2.1-0.3C52.4,23,52.4,22.4,52,21.6z"/>
	<path class="st8" d="M59,26.1c-0.1,0-0.2-0.2-0.2-0.7c0-3-1.1-11.3-1.1-12.7c0-0.7,0.5-1.7,0.9-2.5c0.1-0.2,0.3-0.5,0.5-0.5
		c0.1,0,0.2,0.2,0.2,0.8c0.1,2.2,0.7,7.3,0.7,11c0,1.5-0.1,2.7-0.4,3.5C59.3,25.8,59.2,26.1,59,26.1z"/>
	<path class="st8" d="M73.3,8.7c0,0.5-0.1,1-0.3,1.5c0.2,0.1,0.4,0.3,0.4,0.4c0,0.4-0.2,0.7-0.3,1c-0.1,0.1-0.1,0.1-0.1,0.1
		l-0.5-0.3c-0.5,0.8-1.3,1.8-2.5,2.3C69.5,13.8,69,14,68.5,14c-0.3,0-0.4-0.1-0.4-0.1c0-0.1,0.2-0.2,0.6-0.4
		c0.9-0.5,2.5-1.8,3.1-2.5c-0.5-0.3-1.1-0.7-1.1-1.4c0-0.4,0.2-0.9,0.6-1.3c0.4-0.5,0.8-0.8,1.2-0.8C73.1,7.5,73.3,8.2,73.3,8.7z
		 M71.5,9.2C71.5,9.2,71.5,9.2,71.5,9.2c0,0.2,0.4,0.5,0.8,0.7c0.1-0.2,0.1-0.4,0.1-0.7c0-0.3-0.1-0.4-0.3-0.4
		C71.9,8.7,71.6,8.9,71.5,9.2z"/>
	<path class="st8" d="M82.3,35.6c0.2,0,0.2,0,0.2,0.1c0,0.2-0.7,0.6-1,0.8c-1.4,0.6-3.6,1.4-6.2,1.4c-5.2,0-7.4-3.7-7.4-7
		c0-4.4,1.7-6.3,2.7-7.4c-1-0.6-2.1-1.3-2.1-2.6c0-0.7,0.3-1.9,0.8-2.7c0.7-1.3,1.8-1.9,2.8-1.9c0.9,0,2.2,0.5,2.8,1
		c0.2,0.2,0.3,0.4,0.3,0.5c0,0.1-0.1,0.1-0.2,0.1c-0.4,0-1-0.1-1.5-0.1c-1.3,0-3.8,1.1-3.8,1.7c0,0.4,1.1,2.1,3,2.1
		c0.1,0,0.1,0,0.2,0c1.2-0.5,2.8-1.2,3.8-1.7c0.4-0.2,0.7-0.3,0.9-0.3c0.1,0,0.1,0.1,0.1,0.1c0,0.2-0.7,1.5-0.8,1.7
		c-0.1,0.1-0.2,0.3-0.6,0.5c-1.2,0.6-2.1,1-3,1.5c-3.1,1.8-4.4,3.6-4.4,6.3c0,2.9,2.2,6.2,9.6,6.2C80.7,35.9,81.8,35.6,82.3,35.6z"
		/>
	<path class="st8" d="M81.5,26.1c-0.1,0-0.2-0.2-0.2-0.7c0-3-1.1-11.3-1.1-12.7c0-0.7,0.5-1.7,0.9-2.5c0.1-0.2,0.3-0.5,0.5-0.5
		c0.1,0,0.2,0.2,0.2,0.8c0.1,2.2,0.7,7.3,0.7,11c0,1.5-0.1,2.7-0.4,3.5C81.9,25.8,81.7,26.1,81.5,26.1z"/>
	<path class="st8" d="M82,32.1c-0.3-0.2-0.4-0.3-0.4-0.4c0-0.1,0.2-0.2,0.4-0.2c0.3,0,1.1,0.2,1.8,0.2c0.6,0,1.2-0.2,2.1-0.6
		c2.4-1.2,3.9-3,3.9-4.2c0-0.2,0-0.3-0.1-0.7h-0.7c-0.5,0-1.5-0.1-2.2-0.5c-0.7-0.4-1-0.9-1-1.5c0-0.6,0.3-1.4,0.6-2.2
		c0.6-1.3,1.2-2.2,1.9-2.2c0.7,0,1.3,0.5,1.8,1.1c0.5,0.7,0.7,1.8,0.7,2.8h1c0.6,0,0.9,0.3,0.9,1c0,0.8-0.3,1.2-0.9,1.2l-1.1,0.1
		c-0.2,3.5-1.3,5.8-4.1,6.9c-0.2,0.1-0.4,0.1-0.6,0.1C85,33.1,83.3,32.7,82,32.1z M88.2,22.4c-0.1-0.1-0.3-0.2-0.6-0.2
		c-0.5,0-0.8,0.5-0.8,0.8c0,0.2,0.2,0.5,0.8,0.7c0.4,0.2,0.9,0.2,1.1,0.2c0.2,0,0.2,0,0.2-0.1C89.1,23.5,88.7,22.8,88.2,22.4z"/>
	<path class="st8" d="M94,6c0.7,0,1.7,1,1.7,2.1c0,0.4-0.1,0.8-0.2,1.2c-0.3,0.8-0.9,1.3-1.8,1.3c-0.8,0-1.3-0.6-1.3-1.3
		C92.4,8.2,93.5,6,94,6z M93.8,7.6c-0.3,0-0.7,0.6-0.7,1c0,0.3,0.4,0.6,0.8,0.6c0.5,0,1.1-0.3,1.1-0.5C95,8.4,94.4,7.6,93.8,7.6z"/>
	<path class="st8" d="M95.4,24.7c-0.4,0.6-1.2,1.1-2.6,1.3c-0.4,0.1-0.9,0.1-1.4,0.1c-0.6,0-1-0.6-1-1.1c0-0.6,0.3-1.1,1-1.1h0.5
		c1,0,2.6,0,3.2-0.6c-0.1-0.9-0.8-2-1.1-2.4c0,0,0,0,0-0.1c0-0.4,0.7-1.8,0.7-1.9c0-0.1,0.1-0.1,0.1-0.1c0.3,0,1.1,1.6,1.1,3.5
		C96,23.1,95.9,24,95.4,24.7z M96,13.7c0.1,0.1,0.1,0.1,0,0.2c-0.2,0.3-1.1,1.2-1.4,1.7c-0.1,0.1-0.1,0.1-0.2,0
		c-0.5-0.3-1.5-1-1.7-1.4c-0.1-0.1-0.1-0.1,0-0.2c0.3-0.5,0.9-1.2,1.3-1.6c0.2-0.2,0.2-0.2,0.3-0.1C94.6,12.6,95.3,13.2,96,13.7z"/>
	<path class="st8" d="M101.5,0c0.1-0.1,0.1,0,0.1,0.1c0,0.6-0.2,1.1-0.5,1.3L97,3.7c-0.1,0-0.1,0-0.1-0.1c0-0.3,0.1-0.8,0.2-1
		c0.1-0.2,0.3-0.3,0.7-0.5L101.5,0z"/>
	<path class="st8" d="M101.2,7.7c-0.8,0.4-2.6,1.5-4,2.5c-0.1,0-0.1,0-0.1,0c0,0-0.1,0-0.1-0.1c0-0.1,0.1-0.3,0.2-0.7
		c0.1-0.2,0.5-0.6,0.8-0.9c0,0,0.1-0.1,0.1-0.1c0,0,0-0.1-0.1-0.1c-0.6-0.2-0.9-0.4-0.9-0.9c0-0.1,0-0.1,0-0.2c0-0.9,1-2.2,1.8-2.9
		c0.3-0.3,0.7-0.4,1-0.4c0.5,0,0.8,0.3,0.8,0.7c0,0.3-0.1,0.6-0.2,1c-0.1,0.2-0.2,0.4-0.3,0.4c-0.1,0-0.2-0.1-0.3-0.2
		c-0.1-0.1-0.3-0.3-0.6-0.3c-0.8,0-1.3,0.5-1.3,0.7c0,0.3,1.3,0.8,1.8,0.8c0.1,0,0.1,0,0.1,0c0.2-0.1,1.1-0.4,1.5-0.6
		c0.2-0.1,0.3-0.2,0.3-0.2c0,0,0.1,0,0.1,0.1c0,0.1-0.1,0.2-0.1,0.4C101.6,7.5,101.4,7.6,101.2,7.7z M99.8,26.1
		c-0.1,0-0.2-0.2-0.2-0.7c0-3-1.1-11.3-1.1-12.7c0-0.7,0.5-1.7,0.9-2.5c0.1-0.2,0.3-0.5,0.5-0.5c0.1,0,0.2,0.2,0.2,0.8
		c0.1,2.2,0.7,7.3,0.7,11c0,1.5-0.1,2.7-0.4,3.5C100.1,25.8,99.9,26.1,99.8,26.1z"/>
</g>
</svg>
