<?xml version="1.0" encoding="utf-8"?>
<!-- Generator: Adobe Illustrator 19.2.0, SVG Export Plug-In . SVG Version: 6.00 Build 0)  -->
<svg version="1.1" id="Layer_1" xmlns="http://www.w3.org/2000/svg" xmlns:xlink="http://www.w3.org/1999/xlink" x="0px" y="0px"
	 viewBox="0 0 374 78.3" style="enable-background:new 0 0 374 78.3;" xml:space="preserve">
<style type="text/css">
	.st0{fill:#003E4E;}
	.st1{fill:#F5712E;}
	.st2{fill:none;}
</style>
<g>
	<g>
		<g>
			<path class="st0" d="M67.2,12.1c0.1,0,0.2,0.1,0.2,0.4c0,0.3,0,0.5,0,0.8c0,0.3,0,0.5,0.1,0.8c0.1,0.6,0.2,1.3,0.3,2
				c0.1,0.7,0.2,1.4,0.3,2c0.1,0.7,0.2,1.4,0.3,2c0.1,0.7,0.2,1.3,0.2,2c0,0.3,0,0.5,0.1,0.9c0,0.3,0,0.7,0,1c0,0.3-0.1,0.7-0.1,1
				c-0.1,0.3-0.1,0.6-0.3,0.8C68.1,25.9,68.1,26,68,26c-0.1,0-0.1,0-0.1-0.1c0-0.6-0.1-1.3-0.2-1.9c-0.1-0.6-0.1-1.3-0.2-1.9
				c-0.1-0.7-0.2-1.4-0.3-2c-0.1-0.7-0.2-1.3-0.3-2c-0.1-0.7-0.2-1.3-0.3-2c-0.1-0.7-0.2-1.3-0.3-2c0-0.2,0.1-0.3,0.1-0.5
				c0-0.2,0.1-0.4,0.2-0.5c0.2-0.5,0.3-0.7,0.3-0.8C67.1,12.1,67.2,12.1,67.2,12.1z"/>
			<path class="st0" d="M75.3,26l-1.1,0c-0.3,0-0.6,0-0.9-0.1c-0.3-0.1-0.5-0.2-0.7-0.3c-0.2-0.2-0.3-0.3-0.5-0.6
				c-0.1-0.2-0.1-0.5-0.1-0.8c0-0.2,0.1-0.4,0.2-0.7c0.1-0.3,0.3-0.6,0.5-0.9c0.2-0.3,0.4-0.5,0.6-0.7c0.2-0.2,0.5-0.3,0.7-0.3
				c0.3,0,0.5,0.1,0.7,0.3c0.2,0.2,0.4,0.4,0.6,0.7c0.2,0.3,0.3,0.6,0.4,0.9c0.1,0.3,0.2,0.6,0.2,0.8l0.9,0h0.2c0.1,0,0.2,0,0.3,0.1
				c0.1,0,0.2,0.1,0.2,0.2c0.1,0.1,0.1,0.2,0.1,0.3c0,0.1,0,0.2,0,0.3c0,0.2,0,0.4-0.2,0.6c-0.1,0.2-0.3,0.3-0.5,0.3h-0.2L76,26
				c-0.1,0.6-0.3,1.2-0.4,1.8c-0.2,0.6-0.4,1.1-0.6,1.6c-0.3,0.5-0.6,0.9-1,1.3c-0.4,0.4-0.8,0.6-1.4,0.8c-0.4,0.1-0.8,0.2-1.2,0.2
				c-0.4,0-0.9,0-1.3,0c-0.4,0-0.9-0.1-1.3-0.2c-0.4-0.1-0.8-0.2-1.2-0.3c-0.1,0-0.2-0.1-0.2-0.1c0-0.1,0-0.1,0-0.2
				c0,0,0.1-0.1,0.1-0.1c0.1,0,0.2,0,0.3,0c0.3,0,0.7,0,1.1,0c0.4,0,0.8-0.1,1.2-0.2c0.4-0.1,0.8-0.2,1.2-0.3c0.4-0.1,0.7-0.3,1-0.4
				c0.4-0.2,0.8-0.5,1.1-0.8c0.3-0.3,0.6-0.6,0.8-1c0.3-0.4,0.5-0.7,0.7-1.1C75,26.8,75.2,26.4,75.3,26z M72.9,24
				c0,0.1,0.2,0.2,0.3,0.2c0.2,0,0.4,0.1,0.6,0.1c0.2,0,0.4,0,0.6,0c0.2,0,0.4,0,0.5,0c0,0,0-0.1-0.1-0.2c-0.1-0.1-0.2-0.2-0.3-0.4
				c-0.1-0.1-0.3-0.2-0.4-0.3c-0.1-0.1-0.3-0.2-0.4-0.2c-0.1,0-0.2,0-0.3,0.1c-0.1,0.1-0.2,0.1-0.3,0.2c-0.1,0.1-0.1,0.2-0.2,0.3
				C73,23.9,72.9,24,72.9,24z"/>
			<path class="st0" d="M77.5,15.2c0.2-0.1,0.5-0.3,0.7-0.4c0.2-0.1,0.5-0.3,0.7-0.4c0.2-0.2,0.4-0.3,0.7-0.5
				c0.2-0.2,0.4-0.4,0.6-0.6c-0.2-0.1-0.4-0.2-0.6-0.3c-0.2-0.1-0.4-0.3-0.5-0.4c-0.1-0.1-0.1-0.2-0.1-0.3c0-0.1,0-0.2,0-0.3
				c0.1-0.2,0.1-0.4,0.2-0.6c0.1-0.2,0.2-0.4,0.4-0.5c0.1-0.2,0.3-0.3,0.5-0.4c0.2-0.1,0.4-0.2,0.5-0.1c0.2,0,0.4,0.1,0.5,0.3
				c0.1,0.2,0.2,0.4,0.2,0.7c0,0.3,0,0.5,0,0.8c0,0.3,0,0.4-0.1,0.5c0,0,0,0.1,0,0.1c0.1,0,0.1,0.1,0.2,0.1c0,0,0.1,0.1,0.1,0.2
				c0,0.1,0.1,0.2,0,0.4c0,0.2-0.1,0.3-0.1,0.3c-0.1,0.1-0.1,0.1-0.2,0.1c0,0-0.1,0-0.1-0.1c0,0-0.1-0.1-0.1-0.1
				c0,0-0.1-0.1-0.1-0.1c-0.2,0.2-0.4,0.5-0.6,0.7c-0.2,0.2-0.5,0.4-0.7,0.6c-0.3,0.2-0.5,0.3-0.8,0.5c-0.3,0.1-0.6,0.3-0.9,0.4
				c-0.1,0-0.2,0.1-0.4,0.1c-0.1,0-0.2,0-0.2,0c0,0,0-0.1,0.1-0.2C77.3,15.3,77.4,15.3,77.5,15.2z M79.5,11.6
				c0.2,0.2,0.3,0.4,0.5,0.5c0.2,0.1,0.4,0.2,0.6,0.2h0c0-0.1,0-0.1,0-0.2c0-0.1,0-0.2,0-0.3c0-0.1,0-0.2,0-0.3
				c0-0.1-0.1-0.2-0.1-0.2c-0.1,0-0.1-0.1-0.2-0.1c-0.1,0-0.2,0-0.3,0.1c-0.1,0-0.2,0.1-0.3,0.1C79.6,11.5,79.5,11.6,79.5,11.6z"/>
			<path class="st0" d="M76.9,26h-0.2c-0.2,0-0.4-0.1-0.5-0.3c-0.1-0.2-0.2-0.4-0.2-0.6c0-0.1,0-0.2,0-0.3c0-0.1,0.1-0.2,0.1-0.3
				c0.1-0.1,0.1-0.1,0.2-0.2c0.1,0,0.2-0.1,0.3-0.1h0.2c0.2,0,0.5,0,0.7,0c0.3,0,0.5-0.1,0.8-0.1c0.2-0.1,0.5-0.2,0.7-0.3
				c0.2-0.1,0.4-0.3,0.6-0.6c0.1-0.2,0.3-0.3,0.3-0.5c0.1-0.2,0.2-0.4,0.3-0.6c0-0.1,0.1-0.1,0.2-0.2c0.1,0,0.1,0,0.1,0.1
				c0,0.1,0,0.2,0,0.3c0,0.1,0,0.2,0,0.3c0,0.2,0,0.4,0.1,0.6c0.1,0.2,0.2,0.4,0.4,0.5c0.2,0.2,0.5,0.3,0.8,0.4
				c0.3,0.1,0.7,0.1,1.2,0.1h0.2c0.1,0,0.2,0,0.3,0.1c0.1,0,0.1,0.1,0.2,0.2c0.1,0.1,0.1,0.2,0.1,0.3c0,0.1,0,0.2,0,0.3
				c0,0.2-0.1,0.4-0.2,0.6c-0.1,0.2-0.3,0.3-0.5,0.3h-0.2c-0.4,0-0.8,0-1.1-0.1c-0.3-0.1-0.6-0.2-0.9-0.3c-0.5-0.3-0.8-0.7-1.1-1.3
				c-0.2,0.3-0.3,0.6-0.6,0.8c-0.2,0.2-0.5,0.4-0.7,0.5c-0.3,0.1-0.6,0.2-0.9,0.3C77.6,25.9,77.2,26,76.9,26z M79.7,17.2l1.3,1.1
				c0.1,0,0.1,0.1,0,0.2l-0.9,1.1c0,0.1-0.1,0.1-0.2,0l-1.3-1.1c-0.1,0-0.1-0.1,0-0.2l0.9-1.1C79.6,17.1,79.7,17.1,79.7,17.2z"/>
			<path class="st0" d="M89,13.9c-0.4,0.2-0.7,0.3-1.1,0.5c-0.4,0.2-0.8,0.4-1.1,0.5c-0.4,0.2-0.7,0.3-1,0.5
				c-0.3,0.1-0.6,0.3-0.8,0.4c0,0-0.1,0-0.1,0c0,0,0-0.1,0-0.1l0.5-1.1c0-0.1,0.1-0.1,0.1-0.1c0,0,0.1,0,0.1-0.1l3.9-1.7
				c0.1,0,0.2,0,0.1,0.1l-0.4,1C89.1,13.8,89,13.9,89,13.9z"/>
			<path class="st0" d="M83.2,24.3c0.3,0,0.6,0,0.9,0c0.3,0,0.6-0.1,0.8-0.1c0.3-0.1,0.5-0.2,0.7-0.3c0.2-0.1,0.4-0.3,0.5-0.5
				c0.2-0.4,0.4-0.8,0.6-1.2c0.2-0.4,0.4-0.8,0.6-1.1c0.1-0.1,0.2-0.3,0.3-0.5c0.1-0.2,0.3-0.3,0.4-0.5c0.2-0.1,0.3-0.3,0.5-0.4
				c0.2-0.1,0.3-0.1,0.5-0.1c0.3,0,0.5,0.2,0.8,0.4c0.3,0.3,0.5,0.6,0.7,0.9c0.2,0.4,0.3,0.7,0.5,1.1c0.1,0.4,0.2,0.7,0.1,0.9
				c0,0.2,0,0.3-0.1,0.5c0,0.2-0.1,0.3-0.1,0.5c-0.1,0.2-0.1,0.3-0.2,0.4c-0.1,0.1-0.2,0.2-0.4,0.3c-0.3,0.1-0.6,0.1-1,0
				c-0.4-0.1-0.7-0.2-1-0.3c-0.3-0.1-0.6-0.2-0.8-0.3c-0.3-0.1-0.5-0.3-0.8-0.5c-0.3,0.8-0.7,1.4-1.3,1.8C84.7,25.8,84,26,83.2,26
				H83c-0.2,0-0.4-0.1-0.5-0.3c-0.1-0.2-0.2-0.4-0.2-0.6c0-0.2,0.1-0.4,0.2-0.6c0.1-0.2,0.3-0.3,0.5-0.3H83.2z M89.4,22
				c-0.1-0.2-0.3-0.3-0.4-0.5c-0.2-0.2-0.4-0.2-0.7-0.2c-0.2,0-0.4,0.1-0.6,0.3c-0.2,0.2-0.3,0.4-0.4,0.6c0.2,0.2,0.4,0.3,0.6,0.4
				c0.2,0.1,0.4,0.2,0.6,0.3c0.2,0.1,0.5,0.1,0.7,0.1c0.2,0,0.5,0,0.7,0c0,0,0-0.1,0-0.2c0-0.1-0.1-0.2-0.1-0.3
				c-0.1-0.1-0.1-0.2-0.2-0.3C89.5,22.1,89.4,22,89.4,22z"/>
			<path class="st0" d="M97.6,8.2c0,0,0,0.1,0,0.1c0,0.1,0,0.1,0,0.2c0,0.1-0.1,0.2-0.1,0.2c0,0.1-0.1,0.2-0.1,0.2
				c-0.2,0.3-0.4,0.5-0.6,0.8c-0.2,0.2-0.5,0.4-0.8,0.5c-0.3,0.1-0.5,0.2-0.8,0.3c-0.3,0.1-0.6,0.1-0.9,0.1c-0.4,0-0.8,0-1.2-0.1
				c-0.4-0.1-0.7-0.2-1-0.4c-0.1-0.1-0.2-0.1-0.2,0c0,0.1-0.1,0.1-0.1,0.2c-0.1,0.1-0.1,0.2-0.2,0.3c-0.1,0.1-0.1,0.2-0.2,0.2
				C91.4,11,91.4,11,91.3,11c-0.1,0-0.1,0-0.1-0.1c0-0.1,0-0.2,0-0.2c0-0.1,0-0.2,0.1-0.4c0-0.2,0.1-0.3,0.2-0.5
				c0.1-0.2,0.1-0.4,0.2-0.5c0.1-0.2,0.1-0.3,0.2-0.4c0-0.1,0.1-0.1,0.3,0C92.6,9,93,9.1,93.4,9.2c0.4,0.1,0.8,0.2,1.2,0.1
				c0.3,0,0.5,0,0.8-0.1c0.3,0,0.5-0.1,0.7-0.2c0.2-0.1,0.5-0.2,0.7-0.3c0.2-0.1,0.4-0.3,0.6-0.5C97.5,8.2,97.5,8.2,97.6,8.2z
				 M93.9,11.9c0.1,0,0.2,0.1,0.2,0.4c0,0.3,0,0.5,0,0.8c0,0.3,0,0.5,0.1,0.8c0.1,0.6,0.2,1.3,0.3,2c0.1,0.7,0.2,1.4,0.3,2
				c0.1,0.7,0.2,1.4,0.3,2c0.1,0.7,0.2,1.3,0.2,2c0,0.3,0,0.5,0.1,0.9c0,0.3,0,0.7,0,1c0,0.3-0.1,0.7-0.1,1
				c-0.1,0.3-0.1,0.6-0.3,0.8c-0.1,0.1-0.1,0.2-0.2,0.2c-0.1,0-0.1,0-0.1-0.1c0-0.6-0.1-1.3-0.2-1.9c-0.1-0.6-0.1-1.3-0.2-1.9
				c-0.1-0.7-0.2-1.4-0.3-2c-0.1-0.7-0.2-1.3-0.3-2c-0.1-0.7-0.2-1.3-0.3-2c-0.1-0.7-0.2-1.3-0.3-2c0-0.2,0.1-0.3,0.1-0.5
				c0-0.2,0.1-0.4,0.2-0.5c0.2-0.5,0.3-0.7,0.3-0.8C93.8,12,93.8,11.9,93.9,11.9z"/>
			<path class="st0" d="M108.8,15.2c-0.4,0.2-0.7,0.3-1.1,0.5c-0.4,0.2-0.8,0.4-1.1,0.5c-0.4,0.2-0.7,0.3-1,0.5
				c-0.3,0.1-0.6,0.3-0.8,0.4c0,0-0.1,0-0.1,0c0,0,0-0.1,0-0.1l0.5-1.1c0-0.1,0.1-0.1,0.1-0.1c0,0,0.1,0,0.1-0.1l3.9-1.7
				c0.1,0,0.2,0,0.1,0.1l-0.4,1C108.9,15.2,108.9,15.2,108.8,15.2z"/>
			<path class="st0" d="M110.1,24.1l0.5-1.6c0-0.1,0.1-0.1,0.1-0.1c0,0,0.1,0,0.1,0.1c0.1,0.2,0.3,0.5,0.4,0.8
				c0.2,0.3,0.3,0.5,0.4,0.7c0.1,0.1,0.2,0.1,0.3,0.2c0.1,0,0.3,0.1,0.4,0.1c0.1,0,0.3,0,0.4,0c0.1,0,0.2,0,0.3,0h0.2
				c0.2,0,0.4,0.1,0.5,0.3c0.1,0.2,0.2,0.4,0.2,0.6c0,0.2-0.1,0.4-0.2,0.6c-0.1,0.2-0.3,0.3-0.5,0.3h-0.2c-0.4,0-0.7,0-1.1-0.1
				c0,0.4,0.1,0.8,0.1,1.3c0,0.5,0,0.9-0.1,1.3c-0.1,0.7-0.4,1.3-0.8,1.8c-0.4,0.5-0.9,0.9-1.5,1.3c-0.6,0.3-1.2,0.6-1.9,0.7
				c-0.7,0.2-1.3,0.2-2,0.2c-0.6,0-1.1-0.1-1.6-0.3c-0.5-0.2-0.9-0.4-1.3-0.8c-0.4-0.3-0.7-0.7-0.9-1.2c-0.2-0.5-0.3-1-0.3-1.6
				c0-0.7,0.1-1.3,0.3-2c0.2-0.6,0.5-1.2,0.9-1.8c0-0.1,0.1-0.1,0.1-0.1c0,0,0.1,0,0.1,0.1c0,0.1,0,0.1,0,0.2
				c-0.3,0.6-0.5,1.3-0.6,2c-0.1,0.7,0,1.3,0.2,1.9c0.2,0.6,0.6,1,1.1,1.4c0.5,0.4,1.2,0.5,2.1,0.5c0.5,0,1,0,1.5-0.1
				c0.5-0.1,1-0.2,1.4-0.4c0.5-0.2,0.9-0.4,1.3-0.7c0.4-0.3,0.8-0.6,1.1-1c0-0.4,0-0.8-0.1-1.2c-0.1-0.4-0.1-0.8-0.3-1.2
				c-0.1-0.4-0.2-0.8-0.4-1.1C110.5,24.8,110.3,24.4,110.1,24.1z M107.6,19.6l1.3,1.1c0.1,0,0.1,0.1,0,0.2l-0.9,1.1
				c0,0.1-0.1,0.1-0.2,0l-1.3-1.1c-0.1,0-0.1-0.1,0-0.2l0.9-1.1C107.5,19.5,107.5,19.5,107.6,19.6z"/>
			<path class="st0" d="M115.9,20.1c0.2,0.2,0.4,0.4,0.6,0.7c0.2,0.2,0.3,0.5,0.4,0.7c0.1,0.3,0.2,0.5,0.3,0.8
				c0.1,0.3,0.1,0.5,0.1,0.8c0,0.1,0,0.3,0,0.4c0,0.2,0,0.3-0.1,0.5c0,0.2-0.1,0.3-0.1,0.4c0,0.1-0.1,0.3-0.2,0.4
				c-0.2,0.3-0.4,0.5-0.7,0.6c-0.3,0.2-0.6,0.3-1,0.4c-0.4,0.1-0.7,0.1-1.1,0.2c-0.4,0-0.7,0-1,0h-0.2c-0.2,0-0.4-0.1-0.5-0.3
				c-0.1-0.2-0.2-0.4-0.2-0.6c0-0.2,0.1-0.4,0.2-0.6c0.1-0.2,0.3-0.3,0.5-0.3h0.2c0.3,0,0.7,0,1,0c0.3,0,0.7,0,1-0.1
				c0.3,0,0.6-0.1,0.8-0.1c0.2-0.1,0.4-0.1,0.6-0.2c0.1,0,0.1-0.1,0.1-0.2c0-0.1,0-0.1,0-0.2c-0.1-0.2-0.2-0.4-0.2-0.5
				c-0.1-0.2-0.2-0.3-0.3-0.5c-0.1-0.2-0.2-0.3-0.4-0.4c-0.1-0.1-0.3-0.3-0.4-0.4l0.4-1.5c0-0.1,0.1-0.1,0.1-0.1
				C115.8,20,115.9,20.1,115.9,20.1z M117,30.2C117,30.2,116.9,30.3,117,30.2c-0.1,0.1-0.1,0.1-0.2,0l-1.3-1l-0.8,1.1
				c0,0.1-0.1,0.1-0.2,0l-1.4-1.1c0,0-0.1-0.1,0-0.1L114,28c0,0,0.1-0.1,0.1-0.1s0,0,0.1,0l1.3,1l0.9-1.1c0-0.1,0.1-0.1,0.1,0
				l1.4,1.1c0,0,0,0.1,0,0.2L117,30.2z"/>
			<path class="st0" d="M124.5,28.8c-0.7,0.2-1.4,0.4-2.1,0.7c-0.7,0.2-1.3,0.4-2,0.6c-0.1,0-0.1,0-0.1-0.1l0.4-0.8
				c0,0,0-0.1,0.1-0.1c0,0,0,0,0.1-0.1c0.2-0.1,0.4-0.2,0.8-0.3c0.3-0.1,0.7-0.2,1-0.3c0.4-0.1,0.7-0.2,1.1-0.4
				c0.4-0.1,0.8-0.2,1.1-0.3c0.1,0,0.1,0,0.1,0c0,0,0,0,0,0.1l-0.5,0.8C124.6,28.7,124.6,28.7,124.5,28.8
				C124.5,28.8,124.5,28.8,124.5,28.8z"/>
			<path class="st0" d="M130.6,4.9c-0.4,0.2-0.7,0.3-1.1,0.5c-0.4,0.2-0.8,0.4-1.1,0.5c-0.4,0.2-0.7,0.3-1,0.5
				c-0.3,0.1-0.6,0.3-0.8,0.4c0,0-0.1,0-0.1,0s0-0.1,0-0.1l0.5-1.1c0-0.1,0.1-0.1,0.1-0.1c0,0,0.1,0,0.1-0.1l3.9-1.7
				c0.1,0,0.2,0,0.1,0.1l-0.4,1C130.8,4.8,130.7,4.9,130.6,4.9z M128.7,9.2c-0.2,0.3-0.3,0.6-0.5,0.7c-0.2,0.2-0.5,0.3-0.8,0.3
				c-0.2,0-0.4-0.1-0.6-0.2c-0.2-0.1-0.3-0.4-0.3-0.7c0-0.1,0-0.3,0-0.4c0-0.2,0.1-0.3,0.1-0.4c0.1-0.1,0.1-0.2,0.2-0.3
				c0.1-0.1,0.2-0.2,0.2-0.2c0.1,0,0.1,0.1,0,0.2c0,0.1-0.1,0.2-0.1,0.3c0,0.1,0,0.2,0,0.3c0,0.1,0,0.2,0,0.3c0,0.1,0.1,0.1,0.1,0.2
				c0.1,0.1,0.2,0.1,0.3,0.1c0.1,0,0.2,0,0.4-0.1c0.1,0,0.2-0.1,0.3-0.2c0.1-0.1,0.2-0.2,0.3-0.3c0.1-0.1,0.2-0.2,0.2-0.4
				s0.1-0.3,0.1-0.4c0-0.1,0-0.2,0.1-0.3c0-0.1,0.1-0.1,0.2-0.1c0,0,0,0,0,0.1c0,0,0,0.1,0,0.1c0,0,0,0.1,0,0.1c0,0,0,0.1,0,0.1
				c0,0.2,0,0.4,0.1,0.5c0.1,0.1,0.2,0.2,0.4,0.2c0.1,0,0.2,0,0.4,0c0.2,0,0.3-0.1,0.4-0.2c0,0,0-0.1,0-0.1c0-0.1,0-0.1,0-0.2
				c0-0.1,0-0.1-0.1-0.2c0-0.1-0.1-0.1-0.1-0.1l0.4-0.8c0.1,0,0.1,0.1,0.2,0.2c0,0.1,0.1,0.3,0.1,0.4c0,0.2,0,0.3,0,0.5
				c0,0.2,0,0.3-0.1,0.4c-0.1,0.3-0.2,0.5-0.3,0.7c-0.1,0.2-0.4,0.4-0.7,0.4c-0.3,0-0.5,0-0.7-0.1C128.9,9.5,128.8,9.4,128.7,9.2z"
				/>
			<path class="st0" d="M124.6,17.8c0-0.1,0.1-0.1,0.1-0.1c0.1,0,0.1,0,0.1,0.1c0,0.3,0.1,0.6,0.2,0.9c0.1,0.3,0.1,0.7,0.2,1
				c0.1,0.4,0.1,0.7,0.2,1c0.1,0.3,0.1,0.6,0.2,0.9c0.1,0.4,0.2,0.7,0.3,1.1c0.1,0.4,0.3,0.7,0.4,1c0.2,0.3,0.4,0.5,0.7,0.7
				c0.3,0.2,0.6,0.3,1,0.3c0.2,0,0.3,0,0.5-0.1c0.2,0,0.4-0.1,0.5-0.2c0.2-0.1,0.3-0.2,0.4-0.3c0.1-0.1,0.2-0.3,0.2-0.5l-1.5-9.9
				c0-0.1,0-0.2,0-0.3c0.1-0.2,0.2-0.4,0.3-0.6c0.1-0.2,0.2-0.4,0.3-0.6c0,0,0-0.1,0.1-0.1c0,0,0.1,0,0.1,0.1
				c0.4,3.3,0.8,5.8,1.1,7.5c0.3,1.7,0.5,2.7,0.6,2.9c0.2,0.6,0.5,1,0.8,1.2c0.3,0.2,0.7,0.3,1.2,0.3h0.2c0.2,0,0.4,0.1,0.5,0.3
				c0.1,0.2,0.2,0.4,0.2,0.6c0,0.2-0.1,0.4-0.2,0.6c-0.1,0.2-0.3,0.3-0.5,0.3h-0.2c-0.3,0-0.6-0.1-0.8-0.2c-0.3-0.1-0.5-0.2-0.7-0.4
				c-0.2-0.2-0.4-0.4-0.5-0.6c-0.1-0.2-0.3-0.5-0.3-0.8c-0.1,0.4-0.2,0.7-0.3,1c-0.1,0.3-0.3,0.5-0.5,0.7c-0.2,0.2-0.4,0.3-0.7,0.4
				c-0.3,0.1-0.5,0.1-0.8,0.1c-0.4,0-0.8-0.1-1.1-0.3c-0.3-0.2-0.5-0.5-0.8-0.8c-0.2-0.3-0.4-0.7-0.5-1.1c-0.1-0.4-0.3-0.8-0.4-1.2
				c-0.1,0.3-0.3,0.6-0.5,0.9c-0.3,0.3-0.5,0.5-0.8,0.7c-0.2,0.1-0.5,0.2-0.9,0.3c-0.4,0.1-0.8,0.2-1.2,0.2c-0.4,0-0.8,0-1.1,0
				c-0.3-0.1-0.6-0.2-0.8-0.4c-0.1-0.1-0.1-0.2-0.2-0.4c0-0.2,0-0.3,0-0.5c0-0.2,0-0.4,0.1-0.6c0-0.2,0.1-0.3,0.1-0.5
				c0-0.1,0.1-0.1,0.1-0.1c0,0,0.1,0,0.1,0.1c0.1,0.2,0.3,0.4,0.4,0.5c0.2,0.1,0.4,0.2,0.6,0.2c0.3,0,0.7,0.1,1.1,0
				c0.4,0,0.8-0.1,1.2-0.2c0.4-0.1,0.7-0.2,1-0.4c0.3-0.2,0.5-0.4,0.7-0.6c-0.1-0.5-0.2-1.1-0.3-1.6c-0.1-0.5-0.2-1-0.3-1.5
				c0-0.1,0-0.2,0-0.3c0-0.1,0.1-0.2,0.1-0.4c0-0.1,0.1-0.2,0.1-0.4C124.5,18,124.6,17.9,124.6,17.8z M123.4,13.7l1.3,1.1
				c0.1,0,0.1,0.1,0,0.2l-0.9,1.1c0,0.1-0.1,0.1-0.2,0l-1.3-1.1c-0.1,0-0.1-0.1,0-0.2l0.9-1.1C123.2,13.6,123.3,13.6,123.4,13.7z"/>
			<path class="st0" d="M136.1,28.5c-0.7,0.2-1.4,0.4-2.1,0.7c-0.7,0.2-1.3,0.4-2,0.6c-0.1,0-0.1,0-0.1-0.1l0.4-0.8
				c0,0,0-0.1,0.1-0.1c0,0,0,0,0.1-0.1c0.2-0.1,0.4-0.2,0.8-0.3c0.3-0.1,0.7-0.2,1-0.3c0.4-0.1,0.7-0.2,1.1-0.4
				c0.4-0.1,0.8-0.2,1.1-0.3c0.1,0,0.1,0,0.1,0c0,0,0,0,0,0.1l-0.5,0.8C136.2,28.4,136.2,28.5,136.1,28.5
				C136.2,28.5,136.1,28.5,136.1,28.5z"/>
			<path class="st0" d="M133.5,11.5c0-0.1,0-0.1,0.1-0.1c0,0,0.1,0,0.1,0.1c0.1,0.2,0.1,0.3,0.2,0.5c0.1,0.2,0.2,0.4,0.3,0.5
				c0.1,0.2,0.2,0.3,0.3,0.5c0.1,0.1,0.3,0.3,0.4,0.4c-0.1,0.2-0.2,0.3-0.3,0.4c-0.1,0.1-0.1,0.2-0.2,0.3c0,0.1-0.1,0.2-0.1,0.3
				c0,0.1,0,0.2,0,0.3c0.1,0.7,0.2,1.4,0.3,2.1c0.1,0.7,0.2,1.4,0.3,2.1c0.1,0.7,0.2,1.4,0.3,2.1c0.1,0.7,0.1,1.4,0.1,2.1
				c0,0.2,0,0.5,0,0.7c0,0.2-0.1,0.5-0.2,0.7c-0.1,0.2-0.2,0.4-0.3,0.6c-0.1,0.2-0.3,0.3-0.4,0.5c-0.2,0.2-0.5,0.3-0.8,0.4
				c-0.3,0.1-0.7,0.1-1.1,0.1h-0.2c-0.2,0-0.4-0.1-0.5-0.3c-0.1-0.2-0.2-0.4-0.2-0.6c0-0.2,0.1-0.4,0.2-0.6c0.1-0.2,0.3-0.3,0.5-0.3
				h0.2c0.2,0,0.5,0,0.7,0c0.2,0,0.4-0.1,0.6-0.1c0.2,0,0.3-0.1,0.5-0.2c0.1-0.1,0.2-0.2,0.3-0.3c-0.1-1.5-0.3-3-0.6-4.5
				c-0.2-1.5-0.5-3-0.7-4.4c0-0.3-0.1-0.6-0.1-0.9c0-0.3-0.2-0.6-0.3-0.8c-0.1-0.1-0.1-0.1-0.1-0.2c0,0,0-0.1,0.1-0.2
				c0.1-0.2,0.2-0.4,0.3-0.6C133.3,11.8,133.4,11.6,133.5,11.5z"/>
			<path class="st0" d="M146.9,16c0,0,0.1,0,0.1,0.1c0.4,0.5,0.7,1.1,0.9,1.7c0.2,0.6,0.2,1.3,0.1,2c0,0.2-0.1,0.4-0.1,0.6
				c-0.1,0.2-0.1,0.4-0.2,0.6c-0.1,0.2-0.1,0.3-0.2,0.4c-0.1,0.1-0.2,0.2-0.3,0.2c-0.1,0-0.1,0-0.1-0.1c0-0.1,0-0.1,0-0.2
				c0-0.1,0-0.2,0.1-0.3c0-0.1,0-0.2,0.1-0.2c0.1-0.3,0.1-0.6,0.1-0.9c0-0.3,0-0.7-0.1-1c-0.1-0.3-0.2-0.7-0.3-1
				c-0.1-0.3-0.3-0.6-0.5-0.9c0,0,0-0.1,0.1-0.2c0.1-0.1,0.1-0.2,0.2-0.3c0.1-0.1,0.1-0.2,0.2-0.3C146.9,16.1,146.9,16,146.9,16z"/>
			<path class="st0" d="M156,11.8c-0.4,0.2-0.7,0.3-1.1,0.5c-0.4,0.2-0.8,0.4-1.1,0.5c-0.4,0.2-0.7,0.3-1,0.5
				c-0.3,0.1-0.6,0.3-0.8,0.4c0,0-0.1,0-0.1,0c0,0,0-0.1,0-0.1l0.5-1.1c0-0.1,0.1-0.1,0.1-0.1c0,0,0.1,0,0.1-0.1l3.9-1.7
				c0.1,0,0.2,0,0.1,0.1l-0.4,1C156.2,11.7,156.1,11.7,156,11.8z"/>
			<path class="st0" d="M151.4,26.2c0.3,0.1,0.7,0.1,1,0.2c0.3,0.1,0.7,0.2,1,0.3c0.2,0.1,0.4,0.2,0.5,0.3c0.2,0.1,0.3,0.2,0.4,0.3
				c0.1,0.1,0.2,0.2,0.3,0.4c0.1,0.1,0.1,0.3,0.1,0.5c0,0.5-0.2,0.9-0.5,1.3c-0.3,0.4-0.6,0.8-1.1,1.2c-0.4,0.3-0.9,0.7-1.5,0.9
				c-0.5,0.3-1.1,0.5-1.7,0.7c-0.6,0.2-1.2,0.3-1.7,0.4c-0.6,0.1-1.1,0.2-1.6,0.2c-0.6,0-1.2-0.1-1.8-0.2c-0.5-0.2-1-0.4-1.4-0.8
				c-0.4-0.3-0.7-0.8-0.9-1.3c-0.2-0.5-0.3-1.1-0.3-1.9c0-0.4,0-0.7,0.1-1c0.1-0.3,0.2-0.7,0.3-1c0.1-0.3,0.3-0.6,0.4-1
				c0.2-0.3,0.3-0.6,0.5-0.9c0,0,0.1-0.1,0.1-0.1c0,0,0.1,0,0.1,0c0,0,0,0.1,0.1,0.1c0,0,0,0.1,0,0.1c-0.2,0.5-0.4,1-0.6,1.6
				c-0.2,0.5-0.2,1.1-0.2,1.7c0,0.5,0.2,1,0.4,1.4c0.2,0.4,0.5,0.7,0.9,0.9c0.4,0.2,0.8,0.4,1.2,0.5c0.4,0.1,0.9,0.2,1.3,0.2
				c0.5,0,0.9,0,1.4-0.1c0.5-0.1,1-0.2,1.4-0.3c0.5-0.1,0.9-0.3,1.4-0.5s0.9-0.4,1.3-0.6c0.1-0.1,0.3-0.1,0.4-0.2
				c0.2-0.1,0.4-0.2,0.5-0.3c0.2-0.1,0.3-0.2,0.5-0.3c0.1-0.1,0.2-0.2,0.2-0.3c0-0.1-0.1-0.2-0.3-0.3c-0.2-0.1-0.4-0.2-0.7-0.3
				c-0.3-0.1-0.6-0.2-0.9-0.3c-0.3-0.1-0.7-0.2-1-0.2c-0.3-0.1-0.6-0.1-0.9-0.2c-0.3,0-0.6-0.1-0.8-0.1c-0.1,0-0.2,0-0.2,0
				c0,0,0-0.1,0-0.2c0-0.1,0.1-0.2,0.1-0.3c0-0.1,0.1-0.2,0.2-0.3c0.1-0.1,0.1-0.2,0.2-0.3c0-0.1,0.1-0.2,0.1-0.2
				c0.2-0.2,0.5-0.4,0.7-0.6c0.3-0.2,0.5-0.3,0.8-0.5c0.3-0.2,0.6-0.3,0.8-0.5c0.3-0.1,0.6-0.3,0.9-0.5c-0.2-0.3-0.2-0.7-0.2-1
				c0-0.4,0.1-0.7,0.2-1.1c0.1-0.4,0.3-0.7,0.5-1c0.2-0.3,0.4-0.6,0.6-0.9c0.1-0.1,0.2-0.2,0.3-0.3c0.1-0.1,0.3-0.2,0.5-0.3
				c0.2-0.1,0.4-0.2,0.6-0.2c0.2,0,0.4-0.1,0.7,0c0.2,0,0.4,0.1,0.5,0.3c0.2,0.2,0.3,0.4,0.4,0.7c0.1,0.3,0.2,0.6,0.2,0.9
				c0,0.3,0,0.7-0.1,1c-0.1,0.4-0.2,0.7-0.3,1.1c-0.2,0.3-0.4,0.7-0.7,1c0.3,0.1,0.6,0.2,1,0.2c0.4,0,0.8,0.1,1.2,0.1h0.2
				c0.2,0,0.4,0.1,0.5,0.3c0.1,0.2,0.2,0.4,0.2,0.6c0,0.2-0.1,0.4-0.2,0.6c-0.1,0.2-0.3,0.3-0.5,0.3h-0.2c-0.5,0-0.9,0-1.3-0.1
				c-0.4,0-0.8-0.1-1.1-0.2c-0.3-0.1-0.6-0.2-0.9-0.3c-0.3-0.1-0.6-0.2-0.8-0.4c-0.6,0.2-1.2,0.4-1.6,0.6
				C152.2,25.9,151.8,26.1,151.4,26.2z M156.3,17.2c0,0-0.1,0-0.2,0l-1.3-0.9l-0.8,1.1c0,0-0.1,0.1-0.2,0.1l-1.4-1
				c-0.1,0-0.1-0.1,0-0.1l0.8-1.1c0-0.1,0.1-0.1,0.2-0.1l1.3,1l0.8-1.2c0,0,0.1,0,0.2,0l1.4,1c0,0,0,0.1,0,0.2L156.3,17.2z
				 M156.4,22.3c0-0.1,0-0.3-0.1-0.5c0-0.2-0.1-0.3-0.2-0.5c-0.1-0.2-0.2-0.3-0.3-0.4c-0.1-0.1-0.3-0.1-0.5-0.1
				c-0.1,0-0.3,0-0.5,0.1c-0.2,0.1-0.4,0.2-0.5,0.3c-0.2,0.1-0.3,0.3-0.5,0.4c-0.1,0.2-0.2,0.3-0.3,0.5c0,0.2,0,0.3,0.1,0.5
				c0.1,0.1,0.2,0.3,0.3,0.4c0.1,0.1,0.2,0.2,0.3,0.3c0.1,0.1,0.2,0.1,0.3,0.1c0.1,0,0.2,0,0.4-0.1c0.2-0.1,0.3-0.2,0.5-0.3
				c0.2-0.1,0.3-0.2,0.5-0.3C156.2,22.5,156.3,22.4,156.4,22.3z"/>
			<path class="st0" d="M162.4,13.6c0,0.2,0,0.5-0.1,0.7c-0.1,0.2-0.2,0.4-0.3,0.6c-0.1,0.2-0.3,0.3-0.5,0.4
				c-0.2,0.1-0.5,0.2-0.8,0.2c-0.4,0-0.7-0.1-0.9-0.4c-0.3-0.2-0.4-0.6-0.4-0.9c0-0.2,0-0.4,0.1-0.7c0.1-0.3,0.2-0.6,0.3-0.8
				c0.1-0.3,0.3-0.5,0.5-0.7c0.2-0.2,0.5-0.3,0.7-0.3c0.3,0,0.5,0,0.7,0.2c0.2,0.1,0.3,0.3,0.4,0.5c0.1,0.2,0.2,0.4,0.2,0.7
				C162.4,13.2,162.4,13.4,162.4,13.6z M159.9,13.9c0,0.1,0,0.2,0.1,0.3c0.1,0.1,0.1,0.1,0.2,0.2c0.1,0,0.2,0.1,0.3,0.1
				c0.1,0,0.2,0,0.3,0c0.2,0,0.4,0,0.6-0.1c0.2-0.1,0.3-0.2,0.5-0.3c0-0.1,0-0.3,0-0.4c0-0.1-0.1-0.3-0.2-0.4
				c-0.1-0.1-0.2-0.2-0.3-0.3c-0.1-0.1-0.3-0.1-0.5-0.1c-0.1,0-0.2,0.1-0.3,0.2c-0.1,0.1-0.2,0.2-0.3,0.3c-0.1,0.1-0.2,0.2-0.2,0.3
				C159.9,13.6,159.9,13.8,159.9,13.9z"/>
			<path class="st0" d="M162.3,20c0-0.1,0.1-0.1,0.3,0c0.2,0.2,0.4,0.4,0.5,0.7c0.2,0.2,0.3,0.5,0.4,0.7c0.1,0.3,0.2,0.5,0.3,0.8
				c0.1,0.3,0.1,0.5,0.1,0.8c0,0.1,0,0.3,0,0.4c0,0.2,0,0.3-0.1,0.5c0,0.2-0.1,0.3-0.1,0.4c0,0.1-0.1,0.3-0.2,0.3
				c-0.1,0.2-0.3,0.3-0.6,0.5c-0.3,0.1-0.5,0.2-0.9,0.3c-0.3,0.1-0.7,0.2-1,0.2c-0.4,0.1-0.7,0.1-1.1,0.1c-0.3,0-0.7,0.1-1,0.1
				c-0.3,0-0.6,0-0.8,0h-0.2c-0.2,0-0.4-0.1-0.5-0.3c-0.1-0.2-0.2-0.4-0.2-0.6c0-0.2,0.1-0.4,0.2-0.6c0.1-0.2,0.3-0.3,0.5-0.3h0.2
				c0.1,0,0.3,0,0.5,0c0.2,0,0.5,0,0.8,0c0.3,0,0.6,0,1-0.1c0.3,0,0.7,0,1-0.1c0.3,0,0.6-0.1,0.9-0.1c0.3-0.1,0.4-0.1,0.6-0.2
				c0.1-0.1,0.2-0.2,0.1-0.3c-0.1-0.4-0.3-0.7-0.5-1c-0.2-0.3-0.5-0.6-0.8-0.9c0.1-0.3,0.1-0.5,0.2-0.8
				C162.2,20.5,162.3,20.3,162.3,20z M161,28l1.3,1.1c0.1,0,0.1,0.1,0,0.2l-0.9,1.1c0,0.1-0.1,0.1-0.2,0l-1.3-1.1
				c-0.1,0-0.1-0.1,0-0.2l0.9-1.1C160.9,27.9,161,27.9,161,28z"/>
			<path class="st0" d="M169.7,4.2c-0.4,0.2-0.7,0.3-1.1,0.5c-0.4,0.2-0.8,0.4-1.1,0.5s-0.7,0.3-1,0.5c-0.3,0.1-0.6,0.3-0.8,0.4
				c0,0-0.1,0-0.1,0c0,0,0-0.1,0-0.1l0.5-1.1c0-0.1,0.1-0.1,0.1-0.1c0,0,0.1,0,0.1-0.1l3.9-1.7c0.1,0,0.2,0,0.1,0.1l-0.4,1
				C169.9,4.1,169.8,4.2,169.7,4.2z"/>
			<path class="st0" d="M166,10.6c0.1-0.1,0.2-0.2,0.4-0.2c0.2-0.1,0.3-0.2,0.5-0.3c-0.2-0.1-0.3-0.3-0.4-0.4
				c-0.1-0.2-0.3-0.4-0.3-0.6c0-0.1,0-0.2,0-0.3s0.1-0.2,0.1-0.3c0.1-0.2,0.2-0.3,0.4-0.5c0.1-0.2,0.3-0.3,0.5-0.5
				c0.2-0.1,0.4-0.3,0.6-0.4c0.2-0.1,0.4-0.1,0.6-0.1c0.1,0,0.2,0,0.2,0.1c0.1,0.1,0.1,0.1,0.2,0.2c0.1,0.1,0.1,0.2,0.2,0.2
				c0,0.1,0.1,0.2,0.1,0.2c0,0.2,0,0.3,0,0.4c-0.1,0.3-0.2,0.4-0.3,0.5c-0.1,0.1-0.1,0.1-0.2,0.1c-0.1,0-0.1-0.1-0.1-0.1
				c0-0.1,0-0.2-0.1-0.3c0-0.1-0.1-0.2-0.2-0.2C168,8,167.9,8,167.8,8c-0.4,0-0.7,0.1-0.9,0.4c0,0.1,0.1,0.3,0.2,0.4
				c0.1,0.1,0.2,0.2,0.3,0.3c0.1,0.1,0.2,0.2,0.4,0.3c0.1,0.1,0.3,0.1,0.4,0.1c0.4,0,0.7,0,1.1,0c0.3-0.1,0.7-0.1,1.1-0.2
				c0,0,0,0.1,0,0.2c0,0.1-0.1,0.2-0.1,0.3c0,0.1-0.1,0.2-0.1,0.3c0,0.1-0.1,0.2-0.1,0.2c-0.3,0-0.6,0.1-0.9,0.1
				c-0.3,0.1-0.6,0.1-1,0.2c-0.4,0.1-0.7,0.2-1.1,0.4c-0.4,0.2-0.7,0.4-1,0.5c0,0-0.1,0-0.1,0c0,0,0-0.1,0-0.1
				c0-0.1,0.1-0.3,0.2-0.5C165.9,10.8,166,10.7,166,10.6z M167.9,12.2C167.9,12.2,167.9,12.3,167.9,12.2c0.1,0.1,0.1,0.1,0.1,0.2
				c0,0,0,0.1,0,0.1s0,0.1,0,0.1c0,0.3,0,0.5,0,0.8c0,0.3,0,0.5,0.1,0.8c0,0.6,0.1,1.3,0.2,1.9c0.1,0.7,0.1,1.3,0.2,2
				c0.1,0.7,0.1,1.4,0.2,2c0.1,0.7,0.1,1.3,0.2,2c0,0.3,0,0.5,0,0.9c0,0.3,0,0.7-0.1,1c0,0.3-0.1,0.7-0.2,1
				c-0.1,0.3-0.2,0.6-0.3,0.8c0,0.1-0.1,0.1-0.1,0.2c0,0-0.1,0.1-0.1,0.1c-0.1,0-0.1,0-0.1-0.1c0-0.6-0.1-1.2-0.1-1.8
				c0-0.6-0.1-1.3-0.2-1.9c-0.1-1.3-0.3-2.7-0.4-4c-0.1-1.3-0.3-2.6-0.4-4c0-0.3,0.1-0.7,0.3-1c0-0.1,0.1-0.2,0.1-0.3
				c0-0.1,0.1-0.2,0.1-0.3C167.7,12.5,167.7,12.4,167.9,12.2C167.8,12.3,167.8,12.2,167.9,12.2z"/>
			<path class="st1" d="M175.3,15c-0.4,0.2-0.7,0.3-1.1,0.5c-0.4,0.2-0.8,0.4-1.1,0.5c-0.4,0.2-0.7,0.3-1,0.5
				c-0.3,0.1-0.6,0.3-0.8,0.4c0,0-0.1,0-0.1,0c0,0,0-0.1,0-0.1l0.5-1.1c0-0.1,0.1-0.1,0.1-0.1c0,0,0.1,0,0.1-0.1l3.9-1.7
				c0.1,0,0.2,0,0.1,0.1l-0.4,1C175.4,14.9,175.4,14.9,175.3,15z"/>
			<path class="st1" d="M175.8,24c-0.1,0.3-0.3,0.6-0.5,0.8c-0.3,0.2-0.6,0.3-1,0.3c-0.2,0-0.4,0-0.6-0.2c-0.2-0.1-0.3-0.2-0.5-0.4
				c-0.1-0.2-0.2-0.3-0.3-0.6c-0.1-0.2-0.1-0.4-0.1-0.6c0-0.2,0-0.3,0.1-0.5c0-0.2,0.1-0.4,0.2-0.6c0.1-0.2,0.2-0.4,0.3-0.6
				c0.1-0.2,0.2-0.4,0.3-0.5c0.1-0.2,0.3-0.3,0.4-0.4c0.1-0.1,0.3-0.2,0.5-0.2c0.3,0,0.5,0.1,0.8,0.3c0.2,0.2,0.5,0.5,0.6,0.8
				c0.2,0.3,0.3,0.7,0.4,1.1c0.1,0.4,0.1,0.8,0.1,1.2c0,0.5-0.1,1.1-0.2,1.6c-0.1,0.6-0.3,1.1-0.5,1.6c-0.2,0.5-0.4,1-0.7,1.5
				c-0.3,0.5-0.6,0.9-0.9,1.2c-0.4,0.5-0.9,0.9-1.4,1.1c-0.5,0.3-1,0.4-1.6,0.5c-0.5,0.1-1.1,0.1-1.7,0c-0.6-0.1-1.2-0.2-1.8-0.4
				c-0.1,0-0.1-0.1-0.1-0.1c0,0,0-0.1,0-0.2c0-0.1,0.1-0.1,0.1-0.1c0.1,0,0.1-0.1,0.2,0c0.6,0,1.1,0,1.6,0c0.5-0.1,0.9-0.2,1.4-0.4
				c0.4-0.2,0.8-0.4,1.2-0.7c0.4-0.3,0.8-0.6,1.2-1c0.3-0.2,0.5-0.5,0.8-0.8c0.3-0.3,0.5-0.7,0.7-1c0.2-0.4,0.4-0.7,0.5-1.1
				c0.1-0.4,0.2-0.7,0.3-1c0-0.1,0-0.1,0-0.2c0-0.1,0-0.2,0-0.2c0-0.1,0-0.2-0.1-0.2C175.8,24.1,175.8,24.1,175.8,24z M174.4,22.1
				c-0.1,0-0.2,0-0.3,0.1c-0.1,0.1-0.2,0.2-0.2,0.3c-0.1,0.1-0.1,0.2-0.1,0.3c0,0.1,0,0.2,0,0.2c0.1,0.2,0.2,0.3,0.4,0.3
				c0.2,0.1,0.3,0.1,0.5,0.1c0.2,0,0.4-0.1,0.5-0.1c0.2-0.1,0.3-0.1,0.3-0.2c0-0.1,0-0.2-0.1-0.3c-0.1-0.1-0.2-0.2-0.3-0.3
				c-0.1-0.1-0.2-0.2-0.3-0.2C174.6,22.2,174.5,22.1,174.4,22.1z"/>
			<path class="st1" d="M186.5,14.9c-0.1-0.1-0.1-0.2-0.1-0.3c0-0.1,0-0.2,0-0.3c0.1-0.2,0.2-0.3,0.3-0.5c0.1-0.2,0.2-0.3,0.4-0.5
				c0.1-0.2,0.3-0.3,0.5-0.4c0.2-0.1,0.3-0.1,0.5-0.1c0.2,0,0.4,0.1,0.5,0.3c0.1,0.2,0.2,0.4,0.2,0.6c0,0.2,0,0.5,0,0.7
				c0,0.2-0.1,0.4-0.1,0.5c0,0,0,0.1,0.1,0.1c0.1,0,0.1,0.1,0.2,0.1c0,0,0.1,0.1,0.1,0.2c0,0.1,0,0.2,0,0.3c0,0.1-0.1,0.2-0.1,0.3
				c0,0.1-0.1,0.1-0.1,0.1s-0.1,0-0.2-0.1c0,0-0.1-0.1-0.1-0.1c0,0-0.1-0.1-0.1-0.1c-0.2,0.3-0.5,0.5-0.7,0.7
				c-0.2,0.2-0.5,0.4-0.7,0.6c-0.3,0.2-0.5,0.3-0.8,0.5c-0.3,0.1-0.6,0.3-0.9,0.4c0,0-0.1,0-0.2,0.1c-0.1,0-0.1,0-0.2,0
				c-0.1,0-0.1,0-0.2,0c-0.1,0-0.1,0-0.1,0c-0.1,0-0.1-0.1,0-0.1c0.1,0,0.1-0.1,0.3-0.2c0.2-0.1,0.5-0.3,0.7-0.4
				c0.3-0.2,0.5-0.3,0.8-0.5c0.3-0.2,0.5-0.3,0.7-0.5c0.2-0.2,0.5-0.4,0.7-0.6c-0.2-0.1-0.4-0.1-0.6-0.3
				C186.8,15.1,186.6,15,186.5,14.9z M185.6,15.8c0,0.1-0.1,0.1-0.1,0.1c0,0-0.1,0-0.1-0.1c-0.2-0.1-0.3-0.3-0.5-0.5
				c-0.2-0.2-0.2-0.5-0.2-0.7c0-0.2,0.1-0.5,0.2-0.8c0.1-0.3,0.2-0.6,0.4-0.9c0.2-0.3,0.4-0.6,0.6-0.9c0.3-0.3,0.6-0.5,0.9-0.8
				c0.4-0.3,0.8-0.4,1.2-0.5c0.4,0,0.8,0,1,0.1c0.2,0.1,0.3,0.2,0.5,0.4c0.1,0.2,0.2,0.3,0.2,0.5c0,0.2,0,0.4,0,0.6
				c0,0.2-0.1,0.4-0.2,0.5c0,0-0.1,0.1-0.1,0.1c0,0,0,0,0-0.1c0-0.1,0-0.2,0-0.3c0-0.1,0-0.2-0.1-0.3c0-0.1-0.1-0.2-0.2-0.3
				c-0.1-0.1-0.1-0.2-0.2-0.2c-0.2-0.1-0.3-0.1-0.6-0.1c-0.2,0-0.5,0-0.7,0.1c-0.2,0.1-0.5,0.1-0.7,0.3c-0.2,0.1-0.4,0.2-0.6,0.4
				c-0.3,0.3-0.6,0.6-0.8,1c-0.2,0.4-0.3,0.8-0.3,1.2c0,0,0,0.1,0.1,0.2c0,0.1,0.1,0.1,0.2,0.2c0.1,0.1,0.1,0.1,0.2,0.2
				c0.1,0.1,0.1,0.1,0.2,0.2c0,0,0.1,0.1,0.1,0.1c0,0,0,0.1,0,0.1c0,0.1,0,0.1-0.1,0.2S185.6,15.7,185.6,15.8z M187,14
				c0.1,0.2,0.3,0.3,0.5,0.5c0.2,0.1,0.4,0.2,0.5,0.2h0c0,0,0-0.1,0-0.1c0-0.1,0-0.2,0-0.3c0-0.1,0-0.2,0-0.3c0-0.1-0.1-0.2-0.1-0.3
				c-0.1,0-0.1-0.1-0.2-0.1c-0.1,0-0.2,0-0.3,0.1c-0.1,0-0.2,0.1-0.3,0.2C187.1,13.9,187,14,187,14z"/>
			<path class="st1" d="M188,23.1c0-0.1,0.1-0.1,0.2,0c0.2,0.3,0.4,0.5,0.7,0.6c0.2,0.2,0.5,0.3,0.7,0.3c0.1,0,0.2,0.1,0.4,0.1
				c0.1,0,0.2,0,0.4,0.1c0.1,0,0.3,0,0.4,0c0.2,0,0.3,0,0.5,0h0.2c0.2,0,0.4,0.1,0.5,0.3c0.1,0.2,0.2,0.4,0.2,0.6
				c0,0.2-0.1,0.4-0.2,0.6c-0.1,0.2-0.3,0.3-0.5,0.3h-0.2c-0.2,0-0.5,0-0.7,0c-0.2,0-0.5,0-0.7-0.1c-0.1,0.4-0.2,0.8-0.3,1.1
				c-0.1,0.3-0.2,0.7-0.3,1c-0.3,0.7-0.6,1.3-0.9,1.8c-0.3,0.5-0.8,1-1.5,1.3c-0.4,0.2-0.7,0.4-1.1,0.5c-0.4,0.1-0.8,0.2-1.2,0.2
				c-0.3,0-0.5,0-0.8,0c-0.2,0-0.5,0-0.8-0.1c-0.3,0-0.5-0.1-0.8-0.2c-0.3-0.1-0.6-0.2-0.9-0.3c-0.1,0-0.1-0.1-0.2-0.1
				c0,0,0-0.1,0-0.2c0-0.1,0.2-0.1,0.4-0.1c0.4,0,0.8,0,1.2,0c0.4,0,0.7-0.1,1.1-0.1c0.3-0.1,0.7-0.2,1-0.3c0.3-0.1,0.7-0.3,1.1-0.5
				c0.4-0.2,0.8-0.5,1.2-0.8c0.3-0.3,0.6-0.6,0.9-1c0.3-0.3,0.5-0.7,0.6-1.1c0.2-0.4,0.3-0.8,0.4-1.2c-0.3-0.1-0.5-0.3-0.8-0.5
				c-0.3-0.2-0.5-0.4-0.6-0.6L188,23.1z"/>
			<path class="st0" d="M194.9,14.1c0,0.2,0,0.5-0.1,0.7c-0.1,0.2-0.2,0.4-0.3,0.6c-0.1,0.2-0.3,0.3-0.5,0.4
				c-0.2,0.1-0.5,0.2-0.8,0.2c-0.4,0-0.7-0.1-0.9-0.4c-0.3-0.2-0.4-0.6-0.4-0.9c0-0.2,0-0.4,0.1-0.7c0.1-0.3,0.2-0.6,0.3-0.8
				c0.1-0.3,0.3-0.5,0.5-0.7c0.2-0.2,0.5-0.3,0.7-0.3c0.3,0,0.5,0,0.7,0.2c0.2,0.1,0.3,0.3,0.4,0.5c0.1,0.2,0.2,0.4,0.2,0.7
				C194.9,13.7,194.9,14,194.9,14.1z M192.4,14.4c0,0.1,0,0.2,0.1,0.3c0.1,0.1,0.1,0.1,0.2,0.2c0.1,0,0.2,0.1,0.3,0.1
				c0.1,0,0.2,0,0.3,0c0.2,0,0.4,0,0.6-0.1c0.2-0.1,0.3-0.2,0.5-0.3c0-0.1,0-0.3,0-0.4c0-0.1-0.1-0.3-0.2-0.4
				c-0.1-0.1-0.2-0.2-0.3-0.3c-0.1-0.1-0.3-0.1-0.5-0.1c-0.1,0-0.2,0.1-0.3,0.2c-0.1,0.1-0.2,0.2-0.3,0.3c-0.1,0.1-0.2,0.2-0.2,0.3
				C192.4,14.2,192.4,14.3,192.4,14.4z"/>
			<path class="st0" d="M191.2,26H191c-0.2,0-0.4-0.1-0.5-0.3c-0.1-0.2-0.2-0.4-0.2-0.6c0-0.1,0-0.2,0-0.3c0-0.1,0.1-0.2,0.1-0.3
				c0.1-0.1,0.1-0.1,0.2-0.2c0.1,0,0.2-0.1,0.3-0.1h0.2c0.2,0,0.5,0,0.7,0c0.3,0,0.5-0.1,0.8-0.1c0.2-0.1,0.5-0.2,0.7-0.3
				c0.2-0.1,0.4-0.3,0.6-0.6c0.1-0.2,0.3-0.3,0.3-0.5c0.1-0.2,0.2-0.4,0.3-0.6c0-0.1,0.1-0.1,0.2-0.2c0.1,0,0.1,0,0.1,0.1
				c0,0.1,0,0.2,0,0.3c0,0.1,0,0.2,0,0.3c0,0.2,0,0.4,0.1,0.6c0.1,0.2,0.2,0.4,0.4,0.5c0.2,0.2,0.5,0.3,0.8,0.4
				c0.3,0.1,0.7,0.1,1.2,0.1h0.2c0.1,0,0.2,0,0.3,0.1c0.1,0,0.1,0.1,0.2,0.2c0.1,0.1,0.1,0.2,0.1,0.3c0,0.1,0,0.2,0,0.3
				c0,0.2-0.1,0.4-0.2,0.6c-0.1,0.2-0.3,0.3-0.5,0.3h-0.2c-0.4,0-0.8,0-1.1-0.1c-0.3-0.1-0.6-0.2-0.9-0.3c-0.5-0.3-0.8-0.7-1.1-1.3
				c-0.2,0.3-0.3,0.6-0.6,0.8c-0.2,0.2-0.5,0.4-0.7,0.5c-0.3,0.1-0.6,0.2-0.9,0.3C191.8,25.9,191.5,26,191.2,26z M195.7,30.3
				C195.6,30.3,195.6,30.3,195.7,30.3c-0.1,0.1-0.1,0.1-0.2,0l-1.3-1l-0.8,1.1c0,0.1-0.1,0.1-0.2,0l-1.4-1.1c0,0-0.1-0.1,0-0.1
				l0.9-1.2c0,0,0.1-0.1,0.1-0.1s0,0,0.1,0l1.3,1l0.9-1.1c0-0.1,0.1-0.1,0.1,0l1.4,1.1c0,0,0,0.1,0,0.2L195.7,30.3z"/>
			<path class="st0" d="M203.8,12.8c-0.4,0.2-0.7,0.3-1.1,0.5c-0.4,0.2-0.8,0.4-1.1,0.5c-0.4,0.2-0.7,0.3-1,0.5
				c-0.3,0.1-0.6,0.3-0.8,0.4c0,0-0.1,0-0.1,0c0,0,0-0.1,0-0.1l0.5-1.1c0-0.1,0.1-0.1,0.1-0.1c0,0,0.1,0,0.1-0.1l3.9-1.7
				c0.1,0,0.2,0,0.1,0.1l-0.4,1C203.9,12.7,203.9,12.8,203.8,12.8z"/>
			<path class="st0" d="M203.8,23c-0.2-0.1-0.4-0.2-0.7-0.4c-0.3-0.1-0.6-0.3-0.9-0.4c-0.3-0.1-0.6-0.2-1-0.3
				c-0.3-0.1-0.6-0.2-0.8-0.2c-0.4-0.1-0.7,0-1.1,0.1c-0.4,0.1-0.7,0.3-1,0.5c0,0-0.1,0-0.1,0c0,0-0.1-0.1-0.1-0.1
				c0-0.2,0.1-0.4,0.1-0.6c0.1-0.2,0.2-0.4,0.3-0.5c0.3-0.4,0.6-0.6,1-0.8c0.4-0.2,0.8-0.3,1.3-0.2c0.4,0.1,0.7,0.2,1.1,0.3
				c0.4,0.1,0.8,0.3,1.2,0.5c0.4,0.2,0.8,0.4,1.2,0.5c0.4,0.2,0.8,0.3,1.2,0.5c0.6,0.2,1.3,0.4,1.9,0.5c0.7,0.1,1.3,0.1,2,0.1
				c0.1,0,0.1,0,0.1,0.2l-0.8,1.5c-0.5-0.1-0.9-0.2-1.3-0.2c-0.4,0-0.8,0-1.2,0c-0.4,0-0.8,0.1-1.1,0.2c-0.4,0.1-0.8,0.2-1.2,0.4
				c-0.4,0.2-0.8,0.3-1.2,0.5c-0.4,0.2-0.8,0.3-1.2,0.4c-0.6,0.2-1.3,0.3-1.9,0.4c-0.6,0.1-1.3,0.2-2,0.2c0,0-0.1,0-0.1,0
				c0,0-0.1,0-0.1,0c-0.2,0-0.4-0.1-0.5-0.3c-0.1-0.2-0.2-0.4-0.2-0.6c0-0.2,0.1-0.4,0.2-0.6c0.1-0.2,0.3-0.3,0.5-0.3
				c0,0,0.1,0,0.1,0c0,0,0.1,0,0.1,0c0.5,0,1.1,0,1.6,0c0.5-0.1,1.1-0.1,1.6-0.3c0.5-0.1,1.1-0.3,1.6-0.4
				C202.8,23.4,203.3,23.2,203.8,23z M202.3,15.8l1.3,1.1c0.1,0,0.1,0.1,0,0.2l-0.9,1.1c0,0.1-0.1,0.1-0.2,0l-1.3-1.1
				c-0.1,0-0.1-0.1,0-0.2l0.9-1.1C202.1,15.8,202.2,15.8,202.3,15.8z"/>
			<path class="st0" d="M220.1,29c-0.7,0.2-1.4,0.4-2.1,0.7c-0.7,0.2-1.3,0.4-2,0.6c-0.1,0-0.1,0-0.1-0.1l0.4-0.8c0,0,0-0.1,0.1-0.1
				c0,0,0,0,0.1-0.1c0.2-0.1,0.4-0.2,0.8-0.3c0.3-0.1,0.7-0.2,1-0.3c0.4-0.1,0.7-0.2,1.1-0.4c0.4-0.1,0.8-0.2,1.1-0.3
				c0.1,0,0.1,0,0.1,0c0,0,0,0,0,0.1l-0.5,0.8C220.2,28.9,220.2,28.9,220.1,29C220.2,28.9,220.1,29,220.1,29z"/>
			<path class="st0" d="M227.6,9.5c-0.4,0.2-0.7,0.3-1.1,0.5c-0.4,0.2-0.8,0.4-1.1,0.5c-0.4,0.2-0.7,0.3-1,0.5
				c-0.3,0.1-0.6,0.3-0.8,0.4c0,0-0.1,0-0.1,0c0,0,0-0.1,0-0.1l0.5-1.1c0-0.1,0.1-0.1,0.1-0.1c0,0,0.1,0,0.1-0.1l3.9-1.7
				c0.1,0,0.2,0,0.1,0.1l-0.4,1C227.7,9.4,227.6,9.4,227.6,9.5z M225.6,13.8c-0.2,0.3-0.3,0.6-0.5,0.7c-0.2,0.2-0.5,0.3-0.8,0.3
				c-0.2,0-0.4-0.1-0.6-0.2c-0.2-0.1-0.3-0.4-0.3-0.7c0-0.1,0-0.3,0-0.4c0-0.2,0.1-0.3,0.1-0.4c0.1-0.1,0.1-0.2,0.2-0.3
				c0.1-0.1,0.2-0.2,0.2-0.2c0.1,0,0.1,0.1,0,0.2c0,0.1-0.1,0.2-0.1,0.3c0,0.1,0,0.2,0,0.3c0,0.1,0,0.2,0,0.3c0,0.1,0.1,0.1,0.1,0.2
				c0.1,0.1,0.2,0.1,0.3,0.1c0.1,0,0.2,0,0.4-0.1c0.1,0,0.2-0.1,0.3-0.2c0.1-0.1,0.2-0.2,0.3-0.3c0.1-0.1,0.2-0.2,0.2-0.4
				c0-0.2,0.1-0.3,0.1-0.4c0-0.1,0-0.2,0.1-0.3c0-0.1,0.1-0.1,0.2-0.1c0,0,0,0,0,0.1c0,0,0,0.1,0,0.1c0,0,0,0.1,0,0.1
				c0,0,0,0.1,0,0.1c0,0.2,0,0.4,0.1,0.5c0.1,0.1,0.2,0.2,0.4,0.2c0.1,0,0.2,0,0.4,0c0.2,0,0.3-0.1,0.4-0.2c0,0,0-0.1,0-0.1
				c0-0.1,0-0.1,0-0.2c0-0.1,0-0.1-0.1-0.2c0-0.1-0.1-0.1-0.1-0.1l0.4-0.8c0.1,0,0.1,0.1,0.2,0.2c0,0.1,0.1,0.3,0.1,0.4
				c0,0.2,0,0.3,0,0.5c0,0.2,0,0.3-0.1,0.4c-0.1,0.3-0.2,0.5-0.3,0.7c-0.1,0.2-0.4,0.4-0.7,0.4c-0.3,0-0.5,0-0.7-0.1
				C225.9,14.1,225.7,13.9,225.6,13.8z"/>
			<path class="st0" d="M221.2,17.3c0.1-0.1,0.1-0.1,0.2-0.1c0,0.5,0,1.1,0,1.8c0,0.6,0,1.2,0.1,1.8c0,0.6,0.1,1.1,0.1,1.5
				c0,0.4,0.1,0.7,0.1,0.9c0.1,0.5,0.4,0.9,0.8,1.1c0.4,0.2,0.9,0.3,1.6,0.2c0.3-0.1,0.5-0.2,0.8-0.3c0.3-0.1,0.5-0.3,0.8-0.5
				c0.2-0.2,0.4-0.4,0.6-0.6c0.1-0.2,0.2-0.5,0.2-0.7l-0.7-5.2c0-0.1,0-0.2,0.1-0.3c0-0.1,0.1-0.3,0.2-0.5c0.1-0.2,0.1-0.3,0.2-0.5
				c0.1-0.2,0.1-0.3,0.2-0.3c0.1-0.1,0.1-0.1,0.2-0.2c0,0,0.1,0,0.1,0.1l0.8,5.6c0.1,0.8,0.4,1.5,0.9,2c0.5,0.5,1.1,0.8,1.8,1
				c0.2,0,0.4,0.1,0.6,0.1c0.2,0,0.4,0,0.6-0.1c0.2,0,0.3-0.1,0.5-0.2c0.1-0.1,0.2-0.2,0.2-0.3c-0.1-0.5-0.2-1-0.3-1.5
				c-0.2-0.6-0.3-1.1-0.5-1.7c-0.1-0.2-0.1-0.4-0.2-0.7c-0.1-0.3-0.2-0.6-0.2-0.9s-0.1-0.6-0.2-1c-0.1-0.3-0.1-0.6-0.1-0.8
				c0-0.1,0-0.2,0.1-0.3c0-0.1,0.1-0.3,0.2-0.5c0.1-0.2,0.1-0.3,0.2-0.5c0.1-0.2,0.1-0.3,0.2-0.4c0-0.1,0.1-0.1,0.2-0.1
				c0.1,0,0.1,0.1,0.1,0.2c0.1,0.6,0.2,1.3,0.3,1.9c0.1,0.6,0.3,1.2,0.5,1.9c0.2,0.6,0.4,1.2,0.5,1.7c0.2,0.5,0.3,1,0.4,1.4
				c0.1,0.4,0.1,0.9,0,1.3c-0.1,0.4-0.2,0.9-0.4,1.2c-0.2,0.4-0.5,0.7-0.8,0.9c-0.3,0.2-0.8,0.3-1.3,0.3c-0.7,0-1.4-0.2-2-0.5
				c-0.6-0.4-1.1-1-1.5-1.8c-0.3,0.8-0.7,1.5-1.3,2c-0.5,0.5-1.2,0.8-1.9,0.9c-0.5,0-1,0-1.3-0.2c-0.4-0.2-0.7-0.4-0.9-0.7
				c-0.2-0.3-0.4-0.7-0.5-1.1c-0.1-0.4-0.2-0.8-0.2-1.3c-0.2,0.3-0.4,0.6-0.6,0.9c-0.2,0.3-0.4,0.4-0.7,0.5
				c-0.2,0.1-0.5,0.1-0.7,0.2c-0.3,0-0.6,0-0.8,0c-0.3,0-0.5-0.1-0.8-0.1c-0.3-0.1-0.5-0.2-0.7-0.3c0-0.3,0-0.6,0.1-0.9
				c0.1-0.3,0.3-0.6,0.5-0.9c0.2-0.3,0.4-0.6,0.7-0.8c0.3-0.2,0.5-0.4,0.7-0.6c0.3-0.2,0.7-0.4,1.1-0.6c0.4-0.2,0.8-0.3,1.2-0.4
				c0-0.2,0-0.4,0-0.6c0-0.2,0-0.4,0-0.6c0.1-0.3,0.2-0.6,0.4-0.8C220.9,17.9,221,17.6,221.2,17.3z M220.4,21.1
				c-0.2,0.1-0.5,0.2-0.8,0.3c-0.3,0.1-0.5,0.2-0.8,0.3c-0.3,0.1-0.5,0.3-0.8,0.4c-0.2,0.1-0.5,0.3-0.6,0.5c0,0,0,0,0,0c0,0,0,0,0,0
				c0.2,0.1,0.4,0.1,0.7,0.2c0.3,0,0.6,0.1,0.9,0c0.3,0,0.6,0,0.8-0.1c0.3-0.1,0.5-0.2,0.7-0.3L220.4,21.1z"/>
			<path class="st0" d="M235.6,12.1c0.1,0,0.2,0.1,0.2,0.4c0,0.3,0,0.5,0,0.8c0,0.3,0,0.5,0.1,0.8c0.1,0.6,0.2,1.3,0.3,2
				c0.1,0.7,0.2,1.4,0.3,2c0.1,0.7,0.2,1.4,0.3,2c0.1,0.7,0.2,1.3,0.2,2c0,0.3,0,0.5,0.1,0.9c0,0.3,0,0.7,0,1c0,0.3-0.1,0.7-0.1,1
				c-0.1,0.3-0.1,0.6-0.3,0.8c-0.1,0.1-0.1,0.2-0.2,0.2c-0.1,0-0.1,0-0.1-0.1c0-0.6-0.1-1.3-0.2-1.9c-0.1-0.6-0.1-1.3-0.2-1.9
				c-0.1-0.7-0.2-1.4-0.3-2c-0.1-0.7-0.2-1.3-0.3-2c-0.1-0.7-0.2-1.3-0.3-2c-0.1-0.7-0.2-1.3-0.3-2c0-0.2,0.1-0.3,0.1-0.5
				c0-0.2,0.1-0.4,0.2-0.5c0.2-0.5,0.3-0.7,0.3-0.8C235.5,12.1,235.5,12.1,235.6,12.1z"/>
			<path class="st0" d="M249.5,13.9c-0.4,0.2-0.7,0.3-1.1,0.5c-0.4,0.2-0.8,0.4-1.1,0.5c-0.4,0.2-0.7,0.3-1,0.5
				c-0.3,0.1-0.6,0.3-0.8,0.4c0,0-0.1,0-0.1,0c0,0,0-0.1,0-0.1l0.5-1.1c0-0.1,0.1-0.1,0.1-0.1c0,0,0.1,0,0.1-0.1l3.9-1.7
				c0.1,0,0.2,0,0.1,0.1l-0.4,1C249.7,13.8,249.6,13.9,249.5,13.9z"/>
			<path class="st0" d="M248.3,19l0.3-1.3c0-0.1,0.1-0.1,0.1-0.1c0.1,0,0.1,0,0.1,0.1l1.1,3.9c0.1,0.5,0.3,1,0.5,1.3
				c0.2,0.4,0.5,0.7,0.9,1c0.2,0.2,0.5,0.3,0.8,0.3c0.3,0.1,0.6,0.1,1,0.1h0.2c0.2,0,0.4,0.1,0.5,0.3c0.1,0.2,0.2,0.4,0.2,0.6
				c0,0.2-0.1,0.4-0.2,0.6c-0.1,0.2-0.3,0.3-0.5,0.3h-0.2c-0.4,0-0.8,0-1.1-0.1c-0.3-0.1-0.7-0.2-1-0.4c-0.3-0.2-0.6-0.5-0.8-0.8
				c-0.2-0.3-0.5-0.8-0.7-1.3c-0.2,0.6-0.5,1-0.9,1.4c-0.3,0.3-0.7,0.5-1.2,0.7c-0.5,0.1-0.9,0.2-1.4,0.3c-0.4,0.1-0.9,0.1-1.2,0
				c-0.4,0-0.7-0.2-0.9-0.3c-0.1-0.1-0.2-0.2-0.2-0.4c0-0.2-0.1-0.4-0.1-0.5c0-0.2,0-0.4,0-0.6c0-0.2,0.1-0.3,0.1-0.5
				c0,0,0.1-0.1,0.1-0.1c0,0,0.1,0,0.1,0.1c0.1,0.2,0.3,0.4,0.4,0.5c0.2,0.1,0.4,0.1,0.6,0.2c0.3,0,0.7,0,1.2,0
				c0.4,0,0.9-0.1,1.3-0.3c0.4-0.1,0.8-0.3,1.1-0.5c0.3-0.2,0.6-0.4,0.7-0.7L248.3,19z"/>
			<path class="st0" d="M253.1,26h-0.2c-0.2,0-0.4-0.1-0.5-0.3c-0.1-0.2-0.2-0.4-0.2-0.6c0-0.1,0-0.2,0-0.3c0-0.1,0.1-0.2,0.1-0.3
				c0.1-0.1,0.1-0.1,0.2-0.2c0.1,0,0.2-0.1,0.3-0.1h0.2c0.2,0,0.5,0,0.7,0c0.3,0,0.5-0.1,0.8-0.1c0.2-0.1,0.5-0.2,0.7-0.3
				c0.2-0.1,0.4-0.3,0.6-0.6c0.1-0.2,0.3-0.3,0.3-0.5c0.1-0.2,0.2-0.4,0.3-0.6c0-0.1,0.1-0.1,0.2-0.2c0.1,0,0.1,0,0.1,0.1
				c0,0.1,0,0.2,0,0.3c0,0.1,0,0.2,0,0.3c0,0.2,0,0.4,0.1,0.6c0.1,0.2,0.2,0.4,0.4,0.5c0.2,0.2,0.5,0.3,0.8,0.4
				c0.3,0.1,0.7,0.1,1.2,0.1h0.2c0.1,0,0.2,0,0.3,0.1c0.1,0,0.1,0.1,0.2,0.2c0.1,0.1,0.1,0.2,0.1,0.3c0,0.1,0,0.2,0,0.3
				c0,0.2-0.1,0.4-0.2,0.6c-0.1,0.2-0.3,0.3-0.5,0.3h-0.2c-0.4,0-0.8,0-1.1-0.1c-0.3-0.1-0.6-0.2-0.9-0.3c-0.5-0.3-0.8-0.7-1.1-1.3
				c-0.2,0.3-0.3,0.6-0.6,0.8c-0.2,0.2-0.5,0.4-0.7,0.5c-0.3,0.1-0.6,0.2-0.9,0.3C253.8,25.9,253.4,26,253.1,26z M256,17.2l1.3,1.1
				c0.1,0,0.1,0.1,0,0.2l-0.9,1.1c0,0.1-0.1,0.1-0.2,0l-1.3-1.1c-0.1,0-0.1-0.1,0-0.2l0.9-1.1C255.8,17.1,255.9,17.1,256,17.2z"/>
			<path class="st0" d="M265.4,29.1c-0.7,0.2-1.4,0.4-2.1,0.7c-0.7,0.2-1.3,0.4-2,0.6c-0.1,0-0.1,0-0.1-0.1l0.4-0.8
				c0,0,0-0.1,0.1-0.1c0,0,0,0,0.1-0.1c0.2-0.1,0.4-0.2,0.8-0.3c0.3-0.1,0.7-0.2,1-0.3c0.4-0.1,0.7-0.2,1.1-0.4
				c0.4-0.1,0.8-0.2,1.1-0.3c0.1,0,0.1,0,0.1,0c0,0,0,0,0,0.1l-0.5,0.8C265.5,29,265.4,29,265.4,29.1
				C265.4,29.1,265.4,29.1,265.4,29.1z"/>
			<path class="st0" d="M268.7,23.8c-0.7,0.2-1.4,0.4-2.3,0.6c-0.9,0.2-1.7,0.5-2.6,0.7c-0.9,0.2-1.7,0.4-2.5,0.6
				c-0.8,0.2-1.4,0.2-1.9,0.2h-0.2c-0.2,0-0.4-0.1-0.5-0.3c-0.1-0.2-0.2-0.4-0.2-0.6c0-0.2,0.1-0.4,0.2-0.6c0.1-0.2,0.3-0.3,0.5-0.3
				h0.2c0.2,0,0.4,0,0.6,0c0.2,0,0.5,0,0.7,0c0.2,0,0.5,0,0.7-0.1c0.2,0,0.4-0.1,0.6-0.1c-0.2-0.1-0.3-0.2-0.5-0.4
				c-0.2-0.2-0.3-0.4-0.4-0.6c-0.1-0.2-0.2-0.4-0.3-0.7c-0.1-0.2-0.2-0.5-0.2-0.7c-0.1-0.4,0-0.9,0.1-1.4c0.2-0.5,0.4-0.9,0.7-1.3
				c0.3-0.4,0.6-0.7,1-1c0.4-0.3,0.8-0.5,1.2-0.5c0.5-0.1,1-0.1,1.5,0c0.4,0.1,0.8,0.2,1.2,0.4c0.3,0.2,0.6,0.4,0.9,0.6
				c0.3,0.2,0.5,0.5,0.6,0.7c0.1,0.1,0,0.2-0.1,0.2c-0.1,0-0.2,0-0.3,0c-0.5-0.3-0.9-0.4-1.4-0.5c-0.5-0.1-1-0.1-1.6,0
				c-0.3,0-0.6,0.1-0.9,0.1c-0.3,0.1-0.6,0.2-0.8,0.2c-0.3,0.1-0.5,0.2-0.7,0.3c-0.2,0.1-0.4,0.3-0.5,0.4c0,0.1,0,0.3,0.1,0.5
				c0,0.2,0.1,0.4,0.2,0.5c0.1,0.2,0.2,0.4,0.3,0.6c0.1,0.2,0.3,0.3,0.4,0.5c0.2,0.2,0.3,0.3,0.5,0.5c0.2,0.1,0.4,0.3,0.5,0.4
				c0.2,0.1,0.3,0.2,0.5,0.3c0.2,0.1,0.3,0.1,0.4,0.1c0.5-0.1,0.9-0.2,1.4-0.3c0.5-0.1,0.9-0.2,1.4-0.3c0.5-0.1,0.9-0.2,1.3-0.4
				c0.4-0.1,0.9-0.3,1.3-0.4c0,0,0.1,0,0.1,0c-0.2,0.4-0.4,0.7-0.6,1C269.1,23.4,268.9,23.6,268.7,23.8z"/>
			<path class="st0" d="M280.9,24.3c0.2,0,0.4,0.1,0.5,0.3c0.1,0.2,0.2,0.4,0.2,0.6c0,0.2,0,0.4-0.2,0.6c-0.1,0.2-0.3,0.3-0.5,0.3
				c0,0,0,0-0.1,0c0,0-0.1,0-0.1,0c-0.6,0-1.2-0.1-1.6-0.4c-0.4-0.2-0.7-0.6-1-0.9c-0.3-0.5-0.5-1-0.6-1.5c-0.1-0.5-0.2-1.1-0.2-1.6
				c-0.1-0.6-0.1-1.2-0.2-1.9c-0.1-0.6-0.1-1.2-0.2-1.9c-0.1-0.6-0.2-1.3-0.3-1.9c-0.1-0.7-0.3-1.4-0.5-2.1c0-0.1,0-0.1,0-0.1
				c0,0,0-0.1,0-0.1l0.6-1.4c0,0,0.1-0.1,0.1-0.1c0,0,0.1,0,0.1,0.1c0.1,0.4,0.2,0.8,0.3,1.2c0.1,0.4,0.2,0.9,0.2,1.3
				c0.1,0.5,0.1,1,0.2,1.6c0.1,0.6,0.1,1.2,0.2,1.9c0.1,0.5,0.1,1,0.2,1.5c0,0.5,0.1,1,0.2,1.5c0,0.4,0.1,0.8,0.2,1.2
				c0.1,0.4,0.2,0.8,0.4,1.1c0.2,0.3,0.4,0.5,0.7,0.7c0.3,0.2,0.8,0.2,1.3,0.2C280.8,24.3,280.9,24.3,280.9,24.3
				C280.9,24.3,280.9,24.3,280.9,24.3z"/>
			<path class="st0" d="M286.6,13.9c-0.4,0.2-0.7,0.3-1.1,0.5c-0.4,0.2-0.8,0.4-1.1,0.5c-0.4,0.2-0.7,0.3-1,0.5
				c-0.3,0.1-0.6,0.3-0.8,0.4c0,0-0.1,0-0.1,0c0,0,0-0.1,0-0.1l0.5-1.1c0-0.1,0.1-0.1,0.1-0.1c0,0,0.1,0,0.1-0.1l3.9-1.7
				c0.1,0,0.2,0,0.1,0.1l-0.4,1C286.7,13.8,286.7,13.9,286.6,13.9z"/>
			<path class="st0" d="M280.8,24.3c0.3,0,0.6,0,0.9,0c0.3,0,0.6-0.1,0.8-0.1c0.3-0.1,0.5-0.2,0.7-0.3c0.2-0.1,0.4-0.3,0.5-0.5
				c0.2-0.4,0.4-0.8,0.6-1.2c0.2-0.4,0.4-0.8,0.6-1.1c0.1-0.1,0.2-0.3,0.3-0.5c0.1-0.2,0.3-0.3,0.4-0.5c0.2-0.1,0.3-0.3,0.5-0.4
				c0.2-0.1,0.3-0.1,0.5-0.1c0.3,0,0.5,0.2,0.8,0.4c0.3,0.3,0.5,0.6,0.7,0.9c0.2,0.4,0.3,0.7,0.5,1.1c0.1,0.4,0.2,0.7,0.1,0.9
				c0,0.2,0,0.3-0.1,0.5c0,0.2-0.1,0.3-0.1,0.5c-0.1,0.2-0.1,0.3-0.2,0.4c-0.1,0.1-0.2,0.2-0.4,0.3c-0.3,0.1-0.6,0.1-1,0
				c-0.4-0.1-0.7-0.2-1-0.3c-0.3-0.1-0.6-0.2-0.8-0.3c-0.3-0.1-0.5-0.3-0.8-0.5c-0.3,0.8-0.7,1.4-1.3,1.8c-0.6,0.4-1.3,0.6-2.1,0.6
				h-0.2c-0.2,0-0.4-0.1-0.5-0.3c-0.1-0.2-0.2-0.4-0.2-0.6c0-0.2,0.1-0.4,0.2-0.6c0.1-0.2,0.3-0.3,0.5-0.3H280.8z M287.1,22
				c-0.1-0.2-0.3-0.3-0.4-0.5c-0.2-0.2-0.4-0.2-0.7-0.2c-0.2,0-0.4,0.1-0.6,0.3c-0.2,0.2-0.3,0.4-0.4,0.6c0.2,0.2,0.4,0.3,0.6,0.4
				c0.2,0.1,0.4,0.2,0.6,0.3c0.2,0.1,0.5,0.1,0.7,0.1c0.2,0,0.5,0,0.7,0c0,0,0-0.1,0-0.2c0-0.1-0.1-0.2-0.1-0.3
				c-0.1-0.1-0.1-0.2-0.2-0.3C287.1,22.1,287.1,22,287.1,22z"/>
			<path class="st0" d="M294.4,15c-0.4,0.2-0.7,0.3-1.1,0.5c-0.4,0.2-0.8,0.4-1.1,0.5c-0.4,0.2-0.7,0.3-1,0.5
				c-0.3,0.1-0.6,0.3-0.8,0.4c0,0-0.1,0-0.1,0c0,0,0-0.1,0-0.1l0.5-1.1c0-0.1,0.1-0.1,0.1-0.1c0,0,0.1,0,0.1-0.1l3.9-1.7
				c0.1,0,0.2,0,0.1,0.1l-0.4,1C294.5,14.9,294.5,14.9,294.4,15z"/>
			<path class="st0" d="M294.9,24c-0.1,0.3-0.3,0.6-0.5,0.8c-0.3,0.2-0.6,0.3-1,0.3c-0.2,0-0.4,0-0.6-0.2c-0.2-0.1-0.3-0.2-0.5-0.4
				c-0.1-0.2-0.2-0.3-0.3-0.6c-0.1-0.2-0.1-0.4-0.1-0.6c0-0.2,0-0.3,0.1-0.5c0-0.2,0.1-0.4,0.2-0.6c0.1-0.2,0.2-0.4,0.3-0.6
				c0.1-0.2,0.2-0.4,0.3-0.5s0.3-0.3,0.4-0.4c0.1-0.1,0.3-0.2,0.5-0.2c0.3,0,0.5,0.1,0.8,0.3c0.2,0.2,0.5,0.5,0.6,0.8
				c0.2,0.3,0.3,0.7,0.4,1.1c0.1,0.4,0.1,0.8,0.1,1.2c0,0.5-0.1,1.1-0.2,1.6c-0.1,0.6-0.3,1.1-0.5,1.6s-0.4,1-0.7,1.5
				c-0.3,0.5-0.6,0.9-0.9,1.2c-0.4,0.5-0.9,0.9-1.4,1.1c-0.5,0.3-1,0.4-1.6,0.5c-0.5,0.1-1.1,0.1-1.7,0c-0.6-0.1-1.2-0.2-1.8-0.4
				c-0.1,0-0.1-0.1-0.1-0.1c0,0,0-0.1,0-0.2c0-0.1,0.1-0.1,0.1-0.1c0.1,0,0.1-0.1,0.2,0c0.6,0,1.1,0,1.6,0c0.5-0.1,0.9-0.2,1.4-0.4
				c0.4-0.2,0.8-0.4,1.2-0.7c0.4-0.3,0.8-0.6,1.2-1c0.3-0.2,0.5-0.5,0.8-0.8c0.3-0.3,0.5-0.7,0.7-1c0.2-0.4,0.4-0.7,0.5-1.1
				c0.1-0.4,0.2-0.7,0.3-1c0-0.1,0-0.1,0-0.2c0-0.1,0-0.2,0-0.2c0-0.1,0-0.2-0.1-0.2C294.9,24.1,294.9,24.1,294.9,24z M293.5,22.1
				c-0.1,0-0.2,0-0.3,0.1c-0.1,0.1-0.2,0.2-0.2,0.3c-0.1,0.1-0.1,0.2-0.1,0.3c0,0.1,0,0.2,0,0.2c0.1,0.2,0.2,0.3,0.4,0.3
				c0.2,0.1,0.3,0.1,0.5,0.1c0.2,0,0.4-0.1,0.5-0.1c0.2-0.1,0.3-0.1,0.3-0.2c0-0.1,0-0.2-0.1-0.3c-0.1-0.1-0.2-0.2-0.3-0.3
				c-0.1-0.1-0.2-0.2-0.3-0.2C293.7,22.2,293.6,22.1,293.5,22.1z"/>
			<path d="M310.9,21.5c0,0.1-0.1,0.3-0.2,0.4c-0.2,0.2-0.4,0.4-0.8,0.6c0,0.4-0.1,0.7-0.2,1.1c-0.1,0.3-0.2,0.5-0.3,0.5
				c-0.4-0.4-0.7-0.7-1.1-1c-0.4-0.3-0.8-0.5-1.2-0.5c0,0.4,0.2,0.8,0.6,1.2c0.3,0.3,0.6,0.7,0.9,1c0,0.2-0.3,0.3-1,0.5
				c-0.5,0.1-0.9,0.1-1.2,0.1c-0.5,1.4-1.1,2.7-2,3.9c-0.4,0.5-0.9,1.1-1.5,1.7c-0.8,0.8-1.4,1.2-1.8,1.2c-0.1,0-0.2-0.1-0.2-0.2
				c0-0.1,0.2-0.4,0.7-0.9c0.7-0.8,1.2-1.4,1.5-2.1c0.6-1.1,1-2.3,1.2-3.7c-0.4-0.1-0.7-0.1-0.8-0.2c-0.1-0.1-0.2-0.1-0.2-0.3
				c0.9-0.8,1.4-1.5,1.4-2.2c-0.4,0-0.8,0.2-1.2,0.5c-0.2,0.2-0.6,0.6-1,1c-0.1,0-0.2-0.2-0.4-0.5c-0.1-0.4-0.2-0.7-0.2-1.1
				c-0.4-0.2-0.6-0.4-0.7-0.4c-0.3-0.2-0.4-0.4-0.4-0.6c0-0.1,0.1-0.3,0.2-0.4c0.1-0.1,0.4-0.3,0.8-0.5c0-1.1,0.2-1.6,0.6-1.6
				c0.8,0.9,1.5,1.3,2.2,1.4c0-0.3-0.2-0.8-0.5-1.2c0,0-0.3-0.4-0.9-1c0-0.1,0.1-0.2,0.2-0.2c0.2-0.1,0.4-0.1,0.9-0.2
				c-0.2-1.1-0.6-2.2-1.3-3.3c-0.6-1.1-1.4-2.1-2.2-2.8c-0.1-0.1-0.2-0.2-0.2-0.3c0-0.1,0.1-0.2,0.3-0.2c0.3,0,0.7,0.2,1.3,0.6
				c1.8,1.3,3.2,3.2,4.1,5.8c1.4,0,2.1,0.2,2.1,0.6c-0.4,0.3-0.7,0.7-0.9,1c-0.3,0.4-0.4,0.8-0.4,1.2c0.3,0,0.7-0.2,1-0.5l1.1-1
				c0.2,0,0.4,0.5,0.5,1.4c0,0.1,0,0.2,0,0.3C310.6,20.9,310.9,21.2,310.9,21.5z M307.8,18.2c0,0-0.1-0.1-0.4-0.1
				c-0.2,0-0.4-0.1-0.5-0.1h-0.4c-0.1,0-0.2,0-0.3,0.1c-0.4-1.2-0.9-2.4-1.7-3.5c-0.9-1.2-1.8-2.2-3-3c0.8,0.7,1.4,1.6,2,2.6
				c0.7,1.2,1.2,2.5,1.4,3.8c-0.5,0-0.8,0.1-0.8,0.2c0.6,0.5,1,1,1.3,1.5c0.1-0.2,0.2-0.5,0.3-0.7c0,0,0.1-0.1,0.1-0.3
				c0.1-0.2,0.1-0.3,0.2-0.3c0.2,0,0.4,0.5,0.7,1.4c0.2-0.3,0.3-0.7,0.6-0.9C307.3,18.7,307.5,18.5,307.8,18.2z M304.4,22.3
				c-0.1-0.1-0.5-0.2-1.1-0.4c-0.4-0.1-0.6-0.2-0.6-0.3c0,0,0.3-0.2,0.9-0.4c0.1-0.1,0.4-0.2,0.7-0.3c-0.3-0.1-0.7-0.3-1-0.5
				c-0.1-0.1-0.4-0.3-0.7-0.6c-0.1,0-0.2,0.4-0.2,1.2c-0.6,0.3-0.9,0.6-0.9,0.7c0,0.2,0.3,0.3,0.9,0.6c0,0.8,0.1,1.3,0.3,1.3
				c0,0,0.2-0.2,0.6-0.5C303.8,22.6,304.1,22.3,304.4,22.3z M307.9,24.8c-0.5-0.4-0.9-0.9-1.2-1.4c-0.1,0.2-0.2,0.4-0.3,0.7
				c0,0-0.1,0.2-0.2,0.4c-0.1,0.2-0.2,0.3-0.2,0.3c0,0-0.1-0.1-0.2-0.3c-0.1-0.2-0.1-0.3-0.2-0.3c0-0.1-0.1-0.3-0.3-0.7
				c-0.1,0.3-0.3,0.6-0.5,0.8c-0.2,0.2-0.4,0.4-0.6,0.6c0,0.1,0.3,0.1,0.8,0.3c-0.3,1.3-0.5,2.1-0.6,2.4c-0.5,1.4-1.3,2.8-2.4,4.1
				c1.9-1.3,3.3-3.4,4.3-6.5c0.7,0,1,0,0.9,0C307.6,25,307.9,24.9,307.9,24.8z M307.3,21.5c0-0.4-0.1-0.7-0.4-0.9
				c-0.2-0.2-0.6-0.3-0.9-0.3c-0.3,0-0.6,0.1-0.9,0.4c-0.3,0.2-0.4,0.5-0.4,0.9c0,0.4,0.1,0.7,0.4,0.9c0.3,0.2,0.6,0.4,0.9,0.4
				c0.4,0,0.7-0.1,0.9-0.4C307.1,22.2,307.3,21.9,307.3,21.5z M310.4,21.5c0-0.1-0.1-0.2-0.2-0.3c-0.2-0.1-0.4-0.2-0.7-0.3
				c0-0.4,0-0.7-0.1-0.9c-0.1-0.2-0.1-0.4-0.2-0.4c0,0-0.2,0.2-0.5,0.5c-0.3,0.3-0.7,0.6-1.1,0.7c0.2,0.1,0.4,0.2,0.8,0.4
				c0,0,0.2,0.1,0.6,0.2c0.3,0.1,0.4,0.2,0.4,0.2c0,0.1-0.2,0.2-0.6,0.3c-0.6,0.2-1,0.3-1.1,0.3c0.4,0.1,0.7,0.3,1,0.5
				c0.1,0.1,0.4,0.3,0.6,0.6c0.1,0,0.1-0.1,0.2-0.3c0-0.1,0-0.4,0-0.8C310.1,21.8,310.4,21.6,310.4,21.5z"/>
			<path d="M130.3,67.1c0,0.1-0.1,0.1-0.2,0.1c-0.4,0-1.1-0.4-1.9-1.1c-0.6-0.5-1.1-1.1-1.5-1.6c-0.9-1.1-1.5-2.4-2.1-3.8
				c-1.3,0-2-0.2-2.1-0.5c0.4-0.3,0.7-0.7,0.9-1c0.3-0.4,0.4-0.8,0.4-1.2c-0.3,0-0.7,0.2-1.2,0.6c-0.1,0.1-0.4,0.4-1,0.9
				c-0.1,0-0.2-0.1-0.3-0.4c-0.1-0.3-0.2-0.7-0.2-1.2c-0.3-0.2-0.6-0.3-0.8-0.5c-0.2-0.2-0.3-0.3-0.3-0.4c0-0.2,0.2-0.4,0.5-0.7
				c0.2-0.1,0.4-0.3,0.6-0.4c0-0.4,0-0.7,0.1-1.1c0.1-0.3,0.2-0.5,0.3-0.5c0.4,0.4,0.8,0.7,1,0.9c0.4,0.3,0.9,0.5,1.2,0.5
				c0-0.4-0.2-0.8-0.5-1.2c-0.3-0.3-0.6-0.7-1-1c0-0.2,0.3-0.3,1-0.5c0.5-0.1,0.9-0.2,1.2-0.2c0.9-2.7,2.3-4.7,4-6.1
				c0.6-0.5,1-0.7,1.2-0.7c0.1,0,0.2,0.1,0.2,0.2c0,0.1-0.2,0.4-0.7,0.9c-1.5,1.7-2.3,3.6-2.7,5.7c0.4,0.1,0.7,0.1,0.8,0.2
				c0.1,0.1,0.2,0.2,0.2,0.3c-0.4,0.3-0.7,0.7-0.9,1c-0.3,0.4-0.5,0.8-0.5,1.2c0.4,0,0.8-0.2,1.1-0.5c0.2-0.2,0.6-0.6,1-1
				c0.2,0,0.3,0.2,0.5,0.7c0.1,0.4,0.1,0.7,0.1,0.9c0.7,0.3,1.1,0.7,1.1,1c0,0.3-0.3,0.6-1,1c0,0.6-0.1,1.1-0.2,1.3
				c-0.1,0.2-0.2,0.2-0.4,0.3c-0.7-0.9-1.5-1.3-2.2-1.4c0,0.3,0.2,0.8,0.5,1.2c0.1,0.2,0.5,0.5,1,1c0,0.1-0.1,0.1-0.2,0.2
				c-0.1,0.1-0.4,0.1-0.9,0.3c0.2,1.1,0.6,2.2,1.3,3.3c0.7,1.1,1.4,2.1,2.2,2.8C130.3,66.9,130.3,67,130.3,67.1z M123.5,57.5
				c-0.2-0.1-0.5-0.2-0.8-0.3c0,0-0.2-0.1-0.5-0.2c-0.3-0.1-0.4-0.2-0.4-0.3c0,0,0.3-0.2,1-0.3c0.1-0.1,0.4-0.2,0.7-0.3
				c-0.4-0.1-0.7-0.3-1-0.5c-0.1-0.1-0.4-0.4-0.7-0.6c-0.1,0-0.1,0.1-0.1,0.3c0,0.2,0,0.4,0,0.8c-0.6,0.3-0.9,0.6-0.9,0.7
				c0,0.1,0.1,0.2,0.3,0.3c0.2,0.1,0.4,0.2,0.7,0.3c0,0.1,0,0.4,0.1,0.7c0.1,0.4,0.1,0.6,0.2,0.6l0.7-0.7
				C122.9,57.8,123.2,57.6,123.5,57.5z M129.2,46.8c-1.8,1.2-3.2,3.4-4.3,6.5c-0.7,0-1.2,0-1.4,0.1c-0.2,0-0.3,0.1-0.3,0.2
				c0.5,0.4,0.9,0.9,1.2,1.4c0.1-0.3,0.3-0.5,0.4-0.6c0.1-0.2,0.2-0.5,0.4-0.7c0,0,0.1,0.1,0.1,0.3c0,0.2,0.1,0.3,0.1,0.3
				c0.1,0.1,0.2,0.3,0.4,0.7c0.1-0.3,0.3-0.6,0.5-0.9c0.1-0.1,0.3-0.4,0.6-0.6c0-0.1-0.1-0.1-0.3-0.2c-0.1,0-0.3,0-0.5-0.1
				c0.3-1.2,0.5-2,0.6-2.4C127.2,49.6,128,48.2,129.2,46.8z M129.6,66.7c-0.7-0.7-1.4-1.5-2-2.6c-0.7-1.2-1.1-2.5-1.4-3.8
				c0.5,0,0.8-0.1,0.8-0.2c-0.5-0.5-1-1-1.2-1.5c-0.1,0.2-0.2,0.4-0.3,0.7c0,0-0.1,0.2-0.2,0.4c-0.1,0.2-0.1,0.3-0.2,0.3
				c-0.2,0-0.4-0.4-0.7-1.3c-0.2,0.4-0.4,0.7-0.6,0.9c-0.2,0.2-0.4,0.4-0.6,0.6c0,0,0.1,0.1,0.3,0.1c0.1,0,0.4,0.1,0.6,0.1
				c0.2,0,0.3,0,0.4,0c0.1,0,0.3,0,0.3,0C125.9,63.1,127.4,65.3,129.6,66.7z M126.4,56.8c0-0.4-0.1-0.7-0.4-0.9
				c-0.3-0.2-0.6-0.4-0.9-0.4c-0.4,0-0.7,0.1-0.9,0.4s-0.4,0.6-0.4,0.9c0,0.3,0.1,0.6,0.4,0.9c0.3,0.2,0.6,0.4,0.9,0.4
				c0.4,0,0.7-0.1,0.9-0.4C126.3,57.5,126.4,57.2,126.4,56.8z M129.5,56.7c0-0.2-0.3-0.3-0.9-0.6c0-0.4,0-0.7-0.1-0.9
				c-0.1-0.2-0.1-0.4-0.2-0.4c-0.1,0.1-0.3,0.3-0.7,0.7c-0.3,0.3-0.6,0.4-0.9,0.6c0.1,0,0.4,0.2,1.1,0.4c0.4,0.1,0.6,0.3,0.6,0.3
				c0,0.1-0.2,0.2-0.6,0.3c-0.3,0.1-0.7,0.2-1.1,0.3c0.3,0.1,0.6,0.3,1,0.5c0.1,0.1,0.4,0.3,0.6,0.6c0.1,0,0.2-0.4,0.2-1.2
				C129.2,57.1,129.5,56.8,129.5,56.7z"/>
			<path class="st0" d="M143.2,47c-0.4,0.2-0.7,0.3-1.1,0.5c-0.4,0.2-0.8,0.4-1.1,0.5c-0.4,0.2-0.7,0.3-1,0.5
				c-0.3,0.1-0.6,0.3-0.8,0.4c0,0-0.1,0-0.1,0c0,0,0-0.1,0-0.1l0.5-1.1c0-0.1,0.1-0.1,0.1-0.1c0,0,0.1,0,0.1-0.1l3.9-1.7
				c0.1,0,0.2,0,0.1,0.1l-0.4,1C143.3,46.9,143.3,47,143.2,47z"/>
			<path class="st0" d="M146.8,59.8c-0.1,0.7-0.4,1.3-0.7,1.8c-0.4,0.5-0.9,0.9-1.4,1.3c-0.6,0.3-1.1,0.6-1.8,0.8
				c-0.6,0.2-1.3,0.3-1.9,0.3c-0.6,0-1.1-0.1-1.6-0.3c-0.5-0.2-0.9-0.4-1.3-0.8c-0.4-0.3-0.7-0.7-0.9-1.2c-0.2-0.5-0.3-1-0.3-1.7
				c0-0.7,0.1-1.3,0.3-1.9c0.2-0.6,0.5-1.2,0.9-1.8c0-0.1,0.1-0.1,0.1-0.1c0,0,0.1,0,0.1,0.1c0,0,0,0.1,0,0.1c0,0,0,0.1,0,0.1
				c-0.3,0.7-0.6,1.4-0.7,2c-0.1,0.7,0,1.3,0.2,1.8c0.2,0.6,0.6,1,1.1,1.4c0.5,0.4,1.2,0.5,2.1,0.5c0.5,0,0.9,0,1.4-0.1
				c0.5-0.1,0.9-0.2,1.4-0.4c0.5-0.2,0.9-0.4,1.3-0.7c0.4-0.3,0.7-0.6,1-0.9c0-0.4,0-0.9-0.1-1.3c-0.1-0.5-0.2-0.9-0.4-1.4
				c-0.2-0.5-0.4-0.9-0.6-1.3c-0.2-0.4-0.4-0.8-0.7-1.2c0.1-0.3,0.2-0.5,0.2-0.7c0.1-0.2,0.2-0.5,0.2-0.7c0-0.1,0.1-0.1,0.1-0.1
				c0,0,0.1,0.1,0.1,0.1c0.3,0.5,0.6,1,0.9,1.5c0.3,0.5,0.5,1.1,0.6,1.6c0.2,0.6,0.3,1.1,0.3,1.7C146.9,58.7,146.8,59.2,146.8,59.8z
				 M141.9,50.4l1.3,1.1c0,0,0,0.1,0,0.1c0,0,0,0.1,0,0.1l-0.9,1.1c0,0.1-0.1,0.1-0.2,0l-1.3-1.1c0,0,0-0.1,0-0.2l0.9-1.1
				C141.8,50.4,141.8,50.4,141.9,50.4z"/>
			<path class="st0" d="M154.2,61l-1.1,0c-0.3,0-0.6,0-0.9-0.1c-0.3-0.1-0.5-0.2-0.7-0.3c-0.2-0.2-0.3-0.3-0.5-0.6
				c-0.1-0.2-0.1-0.5-0.1-0.8c0-0.2,0.1-0.4,0.2-0.7c0.1-0.3,0.3-0.6,0.5-0.9c0.2-0.3,0.4-0.5,0.6-0.7c0.2-0.2,0.5-0.3,0.7-0.3
				c0.3,0,0.5,0.1,0.7,0.3c0.2,0.2,0.4,0.4,0.6,0.7c0.2,0.3,0.3,0.6,0.4,0.9c0.1,0.3,0.2,0.6,0.2,0.8l0.9,0h0.2c0.1,0,0.2,0,0.3,0.1
				c0.1,0,0.2,0.1,0.2,0.2c0.1,0.1,0.1,0.2,0.1,0.3c0,0.1,0,0.2,0,0.3c0,0.2,0,0.4-0.2,0.6c-0.1,0.2-0.3,0.3-0.5,0.3h-0.2l-0.9,0
				c-0.1,0.6-0.3,1.2-0.4,1.8c-0.2,0.6-0.4,1.1-0.6,1.6c-0.3,0.5-0.6,0.9-1,1.3c-0.4,0.4-0.8,0.6-1.4,0.8c-0.4,0.1-0.8,0.2-1.2,0.2
				c-0.4,0-0.9,0-1.3,0c-0.4,0-0.9-0.1-1.3-0.2c-0.4-0.1-0.8-0.2-1.2-0.3c-0.1,0-0.2-0.1-0.2-0.1c0-0.1,0-0.1,0-0.2
				c0,0,0.1-0.1,0.1-0.1c0.1,0,0.2,0,0.3,0c0.3,0,0.7,0,1.1,0c0.4,0,0.8-0.1,1.2-0.2c0.4-0.1,0.8-0.2,1.2-0.3c0.4-0.1,0.7-0.3,1-0.4
				c0.4-0.2,0.8-0.5,1.1-0.8c0.3-0.3,0.6-0.6,0.8-1c0.3-0.4,0.5-0.7,0.7-1.1C154,61.8,154.1,61.4,154.2,61z M151.9,59
				c0,0.1,0.2,0.2,0.3,0.2c0.2,0,0.4,0.1,0.6,0.1c0.2,0,0.4,0,0.6,0c0.2,0,0.4,0,0.5,0c0,0,0-0.1-0.1-0.2c-0.1-0.1-0.2-0.2-0.3-0.4
				c-0.1-0.1-0.3-0.2-0.4-0.3c-0.1-0.1-0.3-0.2-0.4-0.2c-0.1,0-0.2,0-0.3,0.1c-0.1,0.1-0.2,0.1-0.3,0.2c-0.1,0.1-0.1,0.2-0.2,0.3
				C151.9,58.9,151.9,59,151.9,59z"/>
			<path class="st0" d="M155.9,44.4c0.2-0.1,0.5-0.3,0.7-0.4c0.2-0.1,0.5-0.3,0.7-0.4c0.2-0.2,0.4-0.3,0.7-0.5
				c0.2-0.2,0.4-0.4,0.6-0.6c-0.2-0.1-0.4-0.2-0.6-0.3c-0.2-0.1-0.4-0.3-0.5-0.4c-0.1-0.1-0.1-0.2-0.1-0.3c0-0.1,0-0.2,0-0.3
				c0.1-0.2,0.1-0.4,0.2-0.6c0.1-0.2,0.2-0.4,0.4-0.5c0.1-0.2,0.3-0.3,0.5-0.4c0.2-0.1,0.4-0.2,0.5-0.1c0.2,0,0.4,0.1,0.5,0.3
				c0.1,0.2,0.2,0.4,0.2,0.7c0,0.3,0,0.5,0,0.8c0,0.3,0,0.4-0.1,0.5c0,0,0,0.1,0,0.1c0.1,0,0.1,0.1,0.2,0.1c0,0,0.1,0.1,0.1,0.2
				c0,0.1,0.1,0.2,0,0.4c0,0.2-0.1,0.3-0.1,0.3c-0.1,0.1-0.1,0.1-0.2,0.1c0,0-0.1,0-0.1-0.1c0,0-0.1-0.1-0.1-0.1
				c0,0-0.1-0.1-0.1-0.1c-0.2,0.2-0.4,0.5-0.6,0.7c-0.2,0.2-0.5,0.4-0.7,0.6c-0.3,0.2-0.5,0.3-0.8,0.5c-0.3,0.1-0.6,0.3-0.9,0.4
				c-0.1,0-0.2,0.1-0.4,0.1c-0.1,0-0.2,0-0.2,0c0,0,0-0.1,0.1-0.2C155.7,44.5,155.8,44.5,155.9,44.4z M157.9,40.8
				c0.2,0.2,0.3,0.4,0.5,0.5c0.2,0.1,0.4,0.2,0.6,0.2h0c0-0.1,0-0.1,0-0.2c0-0.1,0-0.2,0-0.3c0-0.1,0-0.2,0-0.3
				c0-0.1-0.1-0.2-0.1-0.2c-0.1,0-0.1-0.1-0.2-0.1c-0.1,0-0.2,0-0.3,0.1c-0.1,0-0.2,0.1-0.3,0.1C157.9,40.7,157.9,40.8,157.9,40.8z"
				/>
			<path class="st0" d="M165.3,41c-0.4,0.2-0.7,0.3-1.1,0.5c-0.4,0.2-0.8,0.4-1.1,0.5c-0.4,0.2-0.7,0.3-1,0.5
				c-0.3,0.1-0.6,0.3-0.8,0.4c0,0-0.1,0-0.1,0c0,0,0-0.1,0-0.1l0.5-1.1c0-0.1,0.1-0.1,0.1-0.1c0,0,0.1,0,0.1-0.1l3.9-1.7
				c0.1,0,0.2,0,0.1,0.1l-0.4,1C165.4,40.9,165.4,40.9,165.3,41z M163.4,45.3c-0.2,0.3-0.3,0.6-0.5,0.7c-0.2,0.2-0.5,0.3-0.8,0.3
				c-0.2,0-0.4-0.1-0.6-0.2c-0.2-0.1-0.3-0.4-0.3-0.7c0-0.1,0-0.3,0-0.4c0-0.2,0.1-0.3,0.1-0.4c0.1-0.1,0.1-0.2,0.2-0.3
				c0.1-0.1,0.2-0.2,0.2-0.2c0.1,0,0.1,0.1,0,0.2c0,0.1-0.1,0.2-0.1,0.3c0,0.1,0,0.2,0,0.3c0,0.1,0,0.2,0,0.3c0,0.1,0.1,0.1,0.1,0.2
				c0.1,0.1,0.2,0.1,0.3,0.1c0.1,0,0.2,0,0.4-0.1c0.1,0,0.2-0.1,0.3-0.2c0.1-0.1,0.2-0.2,0.3-0.3c0.1-0.1,0.2-0.2,0.2-0.4
				c0-0.2,0.1-0.3,0.1-0.4c0-0.1,0-0.2,0.1-0.3c0-0.1,0.1-0.1,0.2-0.1c0,0,0,0,0,0.1c0,0,0,0.1,0,0.1c0,0,0,0.1,0,0.1
				c0,0,0,0.1,0,0.1c0,0.2,0,0.4,0.1,0.5c0.1,0.1,0.2,0.2,0.4,0.2c0.1,0,0.2,0,0.4,0c0.2,0,0.3-0.1,0.4-0.2c0,0,0-0.1,0-0.1
				c0-0.1,0-0.1,0-0.2c0-0.1,0-0.1-0.1-0.2c0-0.1-0.1-0.1-0.1-0.1l0.4-0.8c0.1,0,0.1,0.1,0.2,0.2c0,0.1,0.1,0.3,0.1,0.4
				c0,0.2,0,0.3,0,0.5c0,0.2,0,0.3-0.1,0.4c-0.1,0.3-0.2,0.5-0.3,0.7c-0.1,0.2-0.4,0.4-0.7,0.4c-0.3,0-0.5,0-0.7-0.1
				C163.6,45.6,163.5,45.4,163.4,45.3z"/>
			<path class="st0" d="M158.5,51.6c0.1-0.3,0.4-0.6,0.7-0.9c0.3-0.3,0.7-0.6,1.2-1c0.6-0.4,1.2-0.9,2-1.3c0.7-0.4,1.5-0.9,2.2-1.3
				c0.8-0.4,1.5-0.8,2.3-1.1c0.7-0.4,1.4-0.7,2-0.9c0.1,0,0.1,0,0.1,0c0,0.1-0.1,0.2-0.1,0.4c0,0.1-0.1,0.3-0.1,0.4
				c0,0.1-0.1,0.3-0.1,0.4c0,0.1-0.1,0.3-0.1,0.4c-0.5,0.2-1,0.4-1.6,0.7c-0.6,0.3-1.2,0.6-1.8,0.9c-0.6,0.3-1.2,0.6-1.8,1
				c-0.6,0.3-1.1,0.6-1.6,0.9c-0.5,0.3-0.9,0.6-1.3,0.8c-0.4,0.3-0.7,0.5-0.9,0.6c-0.1,0-0.1,0.1,0,0.1c0,0,0.1,0.1,0.2,0.1
				c0.5,0.3,1,0.6,1.5,0.9c0.5,0.3,0.9,0.7,1.3,1.1c0.4,0.4,0.8,0.8,1.2,1.1c0.4,0.4,0.7,0.8,1,1.2c0.2,0.3,0.3,0.5,0.4,0.8
				c0.1,0.3,0.2,0.6,0.2,0.9c0,0.3,0,0.6,0,0.9c0,0.3-0.1,0.6-0.2,0.9c-0.2,0.4-0.4,0.7-0.7,1c-0.3,0.3-0.7,0.5-1.1,0.7
				c-0.4,0.2-0.8,0.3-1.2,0.4c-0.4,0.1-0.8,0.1-1.2,0.1c-0.6,0-1.1-0.2-1.6-0.6c-0.4-0.4-0.7-0.9-0.9-1.7c-0.2,0.5-0.6,1-1,1.3
				c-0.4,0.3-0.9,0.4-1.6,0.4h-0.2c-0.2,0-0.4-0.1-0.5-0.3c-0.1-0.2-0.2-0.4-0.2-0.6c0-0.2,0.1-0.4,0.2-0.6c0.1-0.2,0.3-0.3,0.5-0.3
				h0.2c0.5,0,1-0.1,1.4-0.2c0.4-0.2,0.7-0.5,1-0.9c0-0.2,0-0.5-0.1-0.9c0-0.3-0.1-0.7-0.1-1.1c0-0.4-0.1-0.8-0.1-1.3
				c0-0.4-0.1-0.9-0.1-1.3c0-0.4-0.1-0.8-0.1-1.2c0-0.4-0.1-0.7-0.1-0.9c-0.1-1.3-0.2-2.7-0.4-4.2c0-0.1,0-0.2,0-0.3
				c0-0.1,0.1-0.2,0.1-0.3c0-0.1,0.1-0.2,0.1-0.2c0-0.1,0.1-0.2,0.1-0.2c0-0.1,0.1-0.2,0.2-0.3c0,0,0.1-0.1,0.1-0.1
				c0,0,0.1,0,0.1,0.1c0,0.2,0.1,0.5,0.1,1c0,0.4,0.1,0.9,0.1,1.4c0,0.5,0.1,1.1,0.2,1.6C158.4,50.6,158.5,51.1,158.5,51.6z
				 M160.9,59.9c0.3,0,0.7,0,1,0c0.4,0,0.7-0.1,1-0.2c0.3-0.1,0.6-0.2,0.9-0.4c0.3-0.2,0.5-0.3,0.7-0.5c0-0.3-0.2-0.7-0.4-1.1
				c-0.2-0.4-0.5-0.8-0.9-1.1c-0.4-0.4-0.7-0.8-1.2-1.1c-0.4-0.4-0.9-0.7-1.3-1c-0.4-0.3-0.8-0.6-1.2-0.8c-0.4-0.2-0.7-0.4-0.9-0.5
				l0.4,4.6c0,0.3,0.1,0.5,0.2,0.8c0.1,0.3,0.2,0.5,0.3,0.7c0.1,0.2,0.3,0.4,0.5,0.5C160.3,59.8,160.6,59.9,160.9,59.9z"/>
			<path class="st0" d="M171.8,50.5c-0.4,0.2-0.7,0.3-1.1,0.5c-0.4,0.2-0.8,0.4-1.1,0.5c-0.4,0.2-0.7,0.3-1,0.5
				c-0.3,0.1-0.6,0.3-0.8,0.4c0,0-0.1,0-0.1,0c0,0,0-0.1,0-0.1l0.5-1.1c0-0.1,0.1-0.1,0.1-0.1c0,0,0.1,0,0.1-0.1l3.9-1.7
				c0.1,0,0.2,0,0.1,0.1l-0.4,1C172,50.4,171.9,50.5,171.8,50.5z"/>
			<path class="st0" d="M172.8,61l-1.1,0c-0.3,0-0.6,0-0.9-0.1c-0.3-0.1-0.5-0.2-0.7-0.3c-0.2-0.2-0.3-0.3-0.5-0.6
				c-0.1-0.2-0.1-0.5-0.1-0.8c0-0.2,0.1-0.4,0.2-0.7c0.1-0.3,0.3-0.6,0.5-0.9c0.2-0.3,0.4-0.5,0.6-0.7c0.2-0.2,0.5-0.3,0.7-0.3
				c0.3,0,0.5,0.1,0.7,0.3c0.2,0.2,0.4,0.4,0.6,0.7c0.2,0.3,0.3,0.6,0.4,0.9c0.1,0.3,0.2,0.6,0.2,0.8l0.9,0h0.2c0.1,0,0.2,0,0.3,0.1
				c0.1,0,0.2,0.1,0.2,0.2c0.1,0.1,0.1,0.2,0.1,0.3c0,0.1,0,0.2,0,0.3c0,0.2,0,0.4-0.2,0.6c-0.1,0.2-0.3,0.3-0.5,0.3h-0.2l-0.9,0
				c-0.1,0.6-0.3,1.2-0.4,1.8c-0.2,0.6-0.4,1.1-0.6,1.6c-0.3,0.5-0.6,0.9-1,1.3c-0.4,0.4-0.8,0.6-1.4,0.8c-0.4,0.1-0.8,0.2-1.2,0.2
				c-0.4,0-0.9,0-1.3,0c-0.4,0-0.9-0.1-1.3-0.2c-0.4-0.1-0.8-0.2-1.2-0.3c-0.1,0-0.2-0.1-0.2-0.1c0-0.1,0-0.1,0-0.2
				c0,0,0.1-0.1,0.1-0.1c0.1,0,0.2,0,0.3,0c0.3,0,0.7,0,1.1,0c0.4,0,0.8-0.1,1.2-0.2c0.4-0.1,0.8-0.2,1.2-0.3c0.4-0.1,0.7-0.3,1-0.4
				c0.4-0.2,0.8-0.5,1.1-0.8c0.3-0.3,0.6-0.6,0.8-1c0.3-0.4,0.5-0.7,0.7-1.1C172.5,61.8,172.7,61.4,172.8,61z M170.4,59
				c0,0.1,0.2,0.2,0.3,0.2c0.2,0,0.4,0.1,0.6,0.1c0.2,0,0.4,0,0.6,0c0.2,0,0.4,0,0.5,0c0,0,0-0.1-0.1-0.2c-0.1-0.1-0.2-0.2-0.3-0.4
				c-0.1-0.1-0.3-0.2-0.4-0.3c-0.1-0.1-0.3-0.2-0.4-0.2c-0.1,0-0.2,0-0.3,0.1c-0.1,0.1-0.2,0.1-0.3,0.2c-0.1,0.1-0.1,0.2-0.2,0.3
				C170.5,58.9,170.4,59,170.4,59z"/>
			<path class="st0" d="M178.8,48.6c-0.4,0.2-0.7,0.3-1.1,0.5c-0.4,0.2-0.8,0.4-1.1,0.5c-0.4,0.2-0.7,0.3-1,0.5
				c-0.3,0.1-0.6,0.3-0.8,0.4c0,0-0.1,0-0.1,0s0-0.1,0-0.1l0.5-1.1c0-0.1,0.1-0.1,0.1-0.1c0,0,0.1,0,0.1-0.1l3.9-1.7
				c0.1,0,0.2,0,0.1,0.1l-0.4,1C179,48.5,178.9,48.6,178.8,48.6z"/>
			<path class="st0" d="M174.4,61h-0.2c-0.2,0-0.4-0.1-0.5-0.3c-0.1-0.2-0.2-0.4-0.2-0.6c0-0.1,0-0.2,0-0.3c0-0.1,0.1-0.2,0.1-0.3
				c0.1-0.1,0.1-0.1,0.2-0.2c0.1,0,0.2-0.1,0.3-0.1h0.2c0.2,0,0.5,0,0.7,0c0.3,0,0.5-0.1,0.8-0.1c0.2-0.1,0.5-0.2,0.7-0.3
				c0.2-0.1,0.4-0.3,0.6-0.6c0.1-0.2,0.3-0.3,0.3-0.5c0.1-0.2,0.2-0.4,0.3-0.6c0-0.1,0.1-0.1,0.2-0.2c0.1,0,0.1,0,0.1,0.1
				c0,0.1,0,0.2,0,0.3c0,0.1,0,0.2,0,0.3c0,0.2,0,0.4,0.1,0.6c0.1,0.2,0.2,0.4,0.4,0.5c0.2,0.2,0.5,0.3,0.8,0.4
				c0.3,0.1,0.7,0.1,1.2,0.1h0.2c0.1,0,0.2,0,0.3,0.1c0.1,0,0.1,0.1,0.2,0.2c0.1,0.1,0.1,0.2,0.1,0.3c0,0.1,0,0.2,0,0.3
				c0,0.2-0.1,0.4-0.2,0.6c-0.1,0.2-0.3,0.3-0.5,0.3h-0.2c-0.4,0-0.8,0-1.1-0.1c-0.3-0.1-0.6-0.2-0.9-0.3c-0.5-0.3-0.8-0.7-1.1-1.3
				c-0.2,0.3-0.3,0.6-0.6,0.8c-0.2,0.2-0.5,0.4-0.7,0.5c-0.3,0.1-0.6,0.2-0.9,0.3C175,60.9,174.7,61,174.4,61z M178.9,54.7
				C178.9,54.8,178.9,54.8,178.9,54.7c-0.1,0.1-0.1,0.1-0.2,0l-1.3-1l-0.8,1.1c0,0.1-0.1,0.1-0.2,0l-1.4-1.1c0,0-0.1-0.1,0-0.1
				l0.9-1.2c0,0,0.1-0.1,0.1-0.1s0,0,0.1,0l1.3,1l0.9-1.1c0-0.1,0.1-0.1,0.1,0l1.4,1.1c0,0,0,0.1,0,0.2L178.9,54.7z"/>
			<path class="st0" d="M185.9,49.4c-0.4,0.2-0.7,0.3-1.1,0.5c-0.4,0.2-0.8,0.4-1.1,0.5c-0.4,0.2-0.7,0.3-1,0.5
				c-0.3,0.1-0.6,0.3-0.8,0.4c0,0-0.1,0-0.1,0c0,0,0-0.1,0-0.1l0.5-1.1c0-0.1,0.1-0.1,0.1-0.1c0,0,0.1,0,0.1-0.1l3.9-1.7
				c0.1,0,0.2,0,0.1,0.1l-0.4,1C186,49.4,186,49.4,185.9,49.4z"/>
			<path class="st0" d="M184.6,55c0-0.1,0.1-0.1,0.3,0c0.2,0.2,0.4,0.4,0.5,0.7c0.2,0.2,0.3,0.5,0.4,0.7c0.1,0.3,0.2,0.5,0.3,0.8
				c0.1,0.3,0.1,0.5,0.1,0.8c0,0.1,0,0.3,0,0.4c0,0.2,0,0.3-0.1,0.5c0,0.2-0.1,0.3-0.1,0.4c0,0.1-0.1,0.3-0.2,0.3
				c-0.1,0.2-0.3,0.3-0.6,0.5c-0.3,0.1-0.5,0.2-0.9,0.3c-0.3,0.1-0.7,0.2-1,0.2c-0.4,0.1-0.7,0.1-1.1,0.1c-0.3,0-0.7,0.1-1,0.1
				c-0.3,0-0.6,0-0.8,0h-0.2c-0.2,0-0.4-0.1-0.5-0.3c-0.1-0.2-0.2-0.4-0.2-0.6c0-0.2,0.1-0.4,0.2-0.6c0.1-0.2,0.3-0.3,0.5-0.3h0.2
				c0.1,0,0.3,0,0.5,0c0.2,0,0.5,0,0.8,0c0.3,0,0.6,0,1-0.1c0.3,0,0.7,0,1-0.1c0.3,0,0.6-0.1,0.9-0.1c0.3-0.1,0.4-0.1,0.6-0.2
				c0.1-0.1,0.2-0.2,0.1-0.3c-0.1-0.4-0.3-0.7-0.5-1c-0.2-0.3-0.5-0.6-0.8-0.9c0.1-0.3,0.1-0.5,0.2-0.8
				C184.5,55.5,184.5,55.3,184.6,55z M185,65.3C184.9,65.3,184.9,65.3,185,65.3c-0.1,0.1-0.1,0.1-0.2,0l-1.3-1l-0.8,1.1
				c0,0.1-0.1,0.1-0.2,0l-1.4-1.1c0,0-0.1-0.1,0-0.1L182,63c0,0,0.1-0.1,0.1-0.1s0,0,0.1,0l1.3,1l0.9-1.1c0-0.1,0.1-0.1,0.1,0
				l1.4,1.1c0,0,0,0.1,0,0.2L185,65.3z"/>
			<path class="st0" d="M197.1,49.4c0,0.2,0,0.5-0.1,0.7c-0.1,0.2-0.2,0.4-0.3,0.6c-0.1,0.2-0.3,0.3-0.5,0.4
				c-0.2,0.1-0.5,0.2-0.8,0.2c-0.4,0-0.7-0.1-0.9-0.4c-0.3-0.2-0.4-0.6-0.4-0.9c0-0.2,0-0.4,0.1-0.7c0.1-0.3,0.2-0.6,0.3-0.8
				c0.1-0.3,0.3-0.5,0.5-0.7c0.2-0.2,0.5-0.3,0.7-0.3c0.3,0,0.5,0,0.7,0.2c0.2,0.1,0.3,0.3,0.4,0.5c0.1,0.2,0.2,0.4,0.2,0.7
				C197.1,49,197.1,49.2,197.1,49.4z M194.6,49.7c0,0.1,0,0.2,0.1,0.3c0.1,0.1,0.1,0.1,0.2,0.2c0.1,0,0.2,0.1,0.3,0.1
				c0.1,0,0.2,0,0.3,0c0.2,0,0.4,0,0.6-0.1c0.2-0.1,0.3-0.2,0.5-0.3c0-0.1,0-0.3,0-0.4c0-0.1-0.1-0.3-0.2-0.4
				c-0.1-0.1-0.2-0.2-0.3-0.3c-0.1-0.1-0.3-0.1-0.5-0.1c-0.1,0-0.2,0.1-0.3,0.2c-0.1,0.1-0.2,0.2-0.3,0.3c-0.1,0.1-0.2,0.2-0.2,0.3
				C194.6,49.4,194.6,49.6,194.6,49.7z"/>
			<path class="st0" d="M196.9,57.3c0.1,0,0.3,0,0.4,0.1c0.1,0.1,0.2,0.2,0.4,0.3c0.1,0.1,0.2,0.3,0.4,0.4c0.1,0.1,0.3,0.3,0.4,0.4
				c0.2,0.2,0.4,0.3,0.6,0.4c0.2,0.1,0.5,0.2,0.7,0.2c0.3,0,0.5,0.1,0.8,0.1c0.3,0,0.5,0,0.8,0h0.2c0.2,0,0.4,0.1,0.5,0.3
				c0.1,0.2,0.2,0.4,0.2,0.6c0,0.2-0.1,0.4-0.2,0.6c-0.1,0.2-0.3,0.3-0.5,0.3h-0.2c-0.2,0-0.3,0-0.5,0c-0.2,0-0.4,0-0.6,0
				c-0.2,0-0.5,0-0.7-0.1c-0.2,0-0.5-0.1-0.7-0.1c0,0.2,0,0.4-0.1,0.5c0,0.2-0.1,0.2-0.2,0.3c-0.3,0.1-0.6,0.1-1,0
				c-0.4,0-0.8-0.1-1.2-0.3c-0.4-0.1-0.7-0.3-1-0.5c-0.3-0.2-0.5-0.4-0.6-0.5c-0.1,0.1-0.3,0.1-0.5,0.2c-0.2,0.1-0.3,0.2-0.4,0.4
				c-0.1,0.1-0.2,0.3-0.3,0.5c-0.1,0.2-0.1,0.3-0.1,0.5c0,0.3,0,0.6,0.1,1.1c0.1,0.4,0.1,0.9,0.2,1.4c0.1,0.5,0.1,1,0.2,1.4
				c0.1,0.5,0.1,0.9,0.2,1.2c0,0.3,0.1,0.6,0.1,1c0,0.4,0.1,0.7,0.1,1.1c0,0.4,0,0.7,0,1c0,0.3,0,0.6-0.1,0.8c0,0.1-0.1,0.1-0.1,0.1
				c-0.1,0-0.1,0-0.1-0.1c0-0.1-0.1-0.3-0.1-0.4c0-0.1,0-0.3-0.1-0.4c0-0.1-0.1-0.4-0.1-0.8c-0.1-0.4-0.1-1-0.2-1.7
				c-0.1-0.7-0.2-1.3-0.3-1.8c-0.1-0.5-0.2-1-0.2-1.5c-0.1-0.4-0.1-0.8-0.2-1.1c0-0.3-0.1-0.6-0.1-0.8c0-0.7,0-1.2,0.2-1.7
				c0.2-0.5,0.4-0.9,0.8-1.2c0.1-0.1,0.3-0.3,0.6-0.5c0.3-0.2,0.6-0.5,0.9-0.7c0.3-0.2,0.6-0.4,0.9-0.6
				C196.4,57.4,196.7,57.3,196.9,57.3z M196.6,58.5c-0.2,0-0.4,0-0.6,0.1c-0.2,0.1-0.4,0.2-0.5,0.3c-0.1,0.1-0.1,0.1,0,0.2
				c0.2,0.1,0.4,0.2,0.6,0.3c0.2,0.1,0.5,0.2,0.7,0.2c0.2,0.1,0.5,0.1,0.7,0.2c0.2,0,0.3,0,0.4,0c-0.1-0.2-0.2-0.3-0.3-0.5
				c-0.1-0.2-0.3-0.3-0.4-0.4c-0.1-0.1-0.2-0.2-0.3-0.3C196.7,58.5,196.7,58.5,196.6,58.5z"/>
			<path class="st0" d="M207.1,67.8c-0.7,0.2-1.4,0.4-2.1,0.7c-0.7,0.2-1.3,0.4-2,0.6c-0.1,0-0.1,0-0.1-0.1l0.4-0.8
				c0,0,0-0.1,0.1-0.1c0,0,0,0,0.1-0.1c0.2-0.1,0.4-0.2,0.8-0.3c0.3-0.1,0.7-0.2,1-0.3c0.4-0.1,0.7-0.2,1.1-0.4
				c0.4-0.1,0.8-0.2,1.1-0.3c0.1,0,0.1,0,0.1,0c0,0,0,0,0,0.1l-0.5,0.8C207.2,67.7,207.2,67.8,207.1,67.8
				C207.2,67.8,207.1,67.8,207.1,67.8z"/>
			<path class="st0" d="M207.3,56.5c0,0.3-0.1,0.6-0.1,0.9c-0.1,0.3-0.1,0.5-0.2,0.8c-0.1,0.2-0.2,0.5-0.4,0.7
				c-0.1,0.2-0.3,0.4-0.5,0.6c0.3,0,0.6-0.1,0.9-0.1c0.3,0,0.6,0,0.9,0c0.3,0,0.6,0,0.9,0c0.3,0,0.6,0,0.8,0h0.2
				c0.2,0,0.4,0.1,0.5,0.3c0.1,0.2,0.2,0.4,0.2,0.6c0,0.2-0.1,0.4-0.2,0.6c-0.1,0.2-0.3,0.3-0.5,0.3h-0.2h-1l-1,0
				c0.5,0.5,0.7,1.1,0.7,1.7c0,0.2,0,0.4-0.1,0.7c-0.1,0.2-0.1,0.4-0.2,0.6c-0.1,0.2-0.2,0.4-0.4,0.5c-0.2,0.1-0.3,0.2-0.5,0.3
				c-0.5,0.1-0.9,0-1.3-0.2c-0.4-0.2-0.7-0.4-1-0.8c-0.3-0.3-0.5-0.7-0.8-1.2c-0.2-0.5-0.3-0.9-0.4-1.3c-0.2,0-0.4,0.1-0.6,0.1
				c-0.2,0.1-0.4,0.1-0.4,0c0-0.1,0-0.2,0.1-0.3c0-0.1,0.1-0.2,0.1-0.2l-1.1,0h-0.2c-0.3,0-0.4-0.1-0.6-0.3
				c-0.1-0.2-0.2-0.4-0.2-0.6c0-0.2,0.1-0.4,0.2-0.6c0.1-0.2,0.3-0.3,0.5-0.3h0.2c0.4,0,0.8,0,1.1,0c0.4,0,0.7,0,1-0.1
				c0-0.3,0.1-0.5,0.2-0.8c0.1-0.3,0.2-0.5,0.3-0.8c0.1-0.3,0.2-0.5,0.3-0.8c0.1-0.3,0.3-0.5,0.4-0.7c0.1-0.1,0.2-0.3,0.4-0.5
				c0.2-0.2,0.3-0.4,0.5-0.6c0.2-0.2,0.4-0.4,0.6-0.5c0.2-0.1,0.4-0.2,0.6-0.2c0.2,0,0.3,0.1,0.4,0.3c0.1,0.2,0.2,0.4,0.2,0.7
				c0,0.3,0.1,0.5,0.1,0.8C207.3,56.3,207.3,56.4,207.3,56.5z M206.6,57.6c0-0.3,0-0.5-0.1-0.8c-0.1-0.3-0.1-0.5-0.2-0.6
				c0-0.1-0.1-0.1-0.1-0.1c0,0-0.1-0.1-0.2,0c-0.2,0-0.4,0.2-0.6,0.4c-0.2,0.2-0.4,0.5-0.6,0.8c-0.2,0.3-0.3,0.6-0.4,1
				c-0.1,0.3-0.2,0.6-0.3,0.8c0.2-0.1,0.4-0.1,0.6-0.2c0.2-0.1,0.5-0.2,0.7-0.4c0.2-0.1,0.5-0.3,0.7-0.4
				C206.3,57.9,206.5,57.7,206.6,57.6z M204.2,61.2c0.1,0.2,0.2,0.5,0.4,0.7c0.1,0.2,0.2,0.4,0.4,0.6c0.1,0.2,0.3,0.3,0.5,0.4
				c0.2,0.1,0.5,0.2,0.8,0.3c0.1,0,0.2,0,0.3,0c0.1,0,0.3,0,0.4-0.1c0.1,0,0.2-0.1,0.3-0.2c0.1-0.1,0.1-0.2,0.1-0.3
				c0-0.2-0.1-0.4-0.4-0.5c-0.3-0.2-0.6-0.3-0.9-0.5c-0.4-0.1-0.7-0.3-1.1-0.3C204.7,61.2,204.4,61.2,204.2,61.2z"/>
			<path class="st0" d="M212.1,49.9c-0.2,0.3-0.3,0.6-0.5,0.7c-0.2,0.2-0.5,0.3-0.8,0.3c-0.2,0-0.4-0.1-0.6-0.2
				c-0.2-0.1-0.3-0.4-0.3-0.7c0-0.1,0-0.3,0-0.4c0-0.2,0.1-0.3,0.1-0.4c0.1-0.1,0.1-0.2,0.2-0.3c0.1-0.1,0.2-0.2,0.2-0.2
				c0.1,0,0.1,0.1,0,0.2c0,0.1-0.1,0.2-0.1,0.3c0,0.1,0,0.2,0,0.3c0,0.1,0,0.2,0,0.3c0,0.1,0.1,0.1,0.1,0.2c0.1,0.1,0.2,0.1,0.3,0.1
				c0.1,0,0.2,0,0.4-0.1c0.1,0,0.2-0.1,0.3-0.2c0.1-0.1,0.2-0.2,0.3-0.3c0.1-0.1,0.2-0.2,0.2-0.4c0-0.2,0.1-0.3,0.1-0.4
				c0-0.1,0-0.2,0.1-0.3c0-0.1,0.1-0.1,0.2-0.1c0,0,0,0,0,0.1c0,0,0,0.1,0,0.1c0,0,0,0.1,0,0.1c0,0,0,0.1,0,0.1c0,0.2,0,0.4,0.1,0.5
				c0.1,0.1,0.2,0.2,0.4,0.2c0.1,0,0.2,0,0.4,0c0.2,0,0.3-0.1,0.4-0.2c0,0,0-0.1,0-0.1c0-0.1,0-0.1,0-0.2c0-0.1,0-0.1-0.1-0.2
				c0-0.1-0.1-0.1-0.1-0.1l0.4-0.8c0.1,0,0.1,0.1,0.2,0.2c0,0.1,0.1,0.3,0.1,0.4c0,0.2,0,0.3,0,0.5c0,0.2,0,0.3-0.1,0.4
				c-0.1,0.3-0.2,0.5-0.3,0.7c-0.1,0.2-0.4,0.4-0.7,0.4c-0.3,0-0.5,0-0.7-0.1C212.3,50.1,212.2,50,212.1,49.9z"/>
			<path class="st0" d="M213.4,69.2c-0.7,0.2-1.4,0.4-2.1,0.7c-0.7,0.2-1.3,0.4-2,0.6c-0.1,0-0.1,0-0.1-0.1l0.4-0.8
				c0,0,0-0.1,0.1-0.1c0,0,0,0,0.1-0.1c0.2-0.1,0.4-0.2,0.8-0.3c0.3-0.1,0.7-0.2,1-0.3c0.4-0.1,0.7-0.2,1.1-0.4
				c0.4-0.1,0.8-0.2,1.1-0.3c0.1,0,0.1,0,0.1,0c0,0,0,0,0,0.1l-0.5,0.8C213.5,69.1,213.5,69.1,213.4,69.2
				C213.4,69.2,213.4,69.2,213.4,69.2z"/>
			<path class="st0" d="M212.8,55.1C212.9,55,212.9,55,212.8,55.1c0.1-0.1,0.2-0.1,0.3,0c0.2,0.2,0.4,0.4,0.5,0.7
				c0.2,0.2,0.3,0.5,0.4,0.7c0.1,0.3,0.2,0.5,0.3,0.8c0.1,0.3,0.1,0.5,0.1,0.8c0,0.1,0,0.3,0,0.4c0,0.2,0,0.3-0.1,0.5
				c0,0.2-0.1,0.3-0.1,0.4c0,0.1-0.1,0.3-0.2,0.3c-0.1,0.2-0.3,0.3-0.5,0.5c-0.2,0.1-0.5,0.2-0.7,0.3c-0.3,0.1-0.6,0.2-0.9,0.2
				c-0.3,0.1-0.6,0.1-0.9,0.1c-0.3,0-0.6,0.1-0.9,0.1c-0.3,0-0.5,0-0.7,0h-0.2c-0.2,0-0.4-0.1-0.5-0.3c-0.1-0.2-0.2-0.4-0.2-0.6
				c0-0.2,0.1-0.4,0.2-0.6c0.1-0.2,0.3-0.3,0.5-0.3h0.2c0.1,0,0.3,0,0.5,0c0.2,0,0.5,0,0.7,0c0.3,0,0.5,0,0.8,0c0.3,0,0.6,0,0.8-0.1
				c0.3,0,0.5-0.1,0.7-0.1c0.2,0,0.4-0.1,0.5-0.2c0.1-0.1,0.2-0.2,0.1-0.3c-0.1-0.4-0.3-0.7-0.5-1c-0.2-0.3-0.5-0.6-0.8-0.9
				c0.1-0.3,0.1-0.5,0.2-0.8C212.7,55.6,212.8,55.3,212.8,55.1z M211,63.2l1.3,1.1c0,0,0,0.1,0,0.1c0,0,0,0,0,0.1l-0.9,1.1
				c0,0.1-0.1,0.1-0.2,0l-1.3-1.1c-0.1,0-0.1-0.1,0-0.2l0.9-1.1C210.9,63.2,211,63.2,211,63.2z"/>
			<path class="st0" d="M221.1,50c-0.4,0.2-0.7,0.3-1.1,0.5c-0.4,0.2-0.8,0.4-1.1,0.5c-0.4,0.2-0.7,0.3-1,0.5
				c-0.3,0.1-0.6,0.3-0.8,0.4c0,0-0.1,0-0.1,0s0-0.1,0-0.1l0.5-1.1c0-0.1,0.1-0.1,0.1-0.1c0,0,0.1,0,0.1-0.1l3.9-1.7
				c0.1,0,0.2,0,0.1,0.1l-0.4,1C221.2,49.9,221.2,49.9,221.1,50z"/>
			<path class="st0" d="M220.4,56.4c0-0.1,0.1-0.1,0.2,0c0.3,0.3,0.5,0.6,0.8,1c0.2,0.4,0.4,0.8,0.6,1.2c0.2,0.4,0.3,0.8,0.4,1.3
				c0.1,0.4,0.1,0.8,0,1.2c-0.1,0.5-0.2,1-0.4,1.6c-0.2,0.6-0.5,1.1-0.8,1.6c-0.3,0.5-0.7,1-1.1,1.4c-0.4,0.4-0.9,0.7-1.3,0.8
				c-0.4,0.1-0.8,0.2-1.2,0.3c-0.4,0-0.8,0.1-1.3,0c-0.4,0-0.8-0.1-1.2-0.2c-0.4-0.1-0.8-0.2-1.1-0.3c-0.1,0-0.1-0.1-0.2-0.1
				c0-0.1,0-0.1,0-0.2c0,0,0.1-0.1,0.1-0.1c0.1,0,0.1,0,0.2,0c0.6,0,1.1,0,1.5,0s0.8-0.1,1.1-0.2c0.3-0.1,0.6-0.2,0.9-0.4
				c0.3-0.2,0.6-0.4,1-0.6c0.3-0.2,0.7-0.4,1-0.7c0.3-0.3,0.6-0.6,0.9-0.9c0.6-0.7,1-1.4,1.3-2.1c0-0.2-0.1-0.5-0.3-0.7
				c-0.1-0.3-0.3-0.6-0.5-0.9c-0.2-0.3-0.4-0.6-0.6-0.8c-0.2-0.3-0.4-0.5-0.5-0.6L220.4,56.4z"/>
			<path class="st0" d="M233.4,49.4c0,0,0.1,0,0.1,0.1c0.4,0.5,0.7,1.1,0.9,1.7c0.2,0.6,0.2,1.3,0.1,2c0,0.2-0.1,0.4-0.1,0.6
				c-0.1,0.2-0.1,0.4-0.2,0.6c-0.1,0.2-0.1,0.3-0.2,0.4c-0.1,0.1-0.2,0.2-0.3,0.2c-0.1,0-0.1,0-0.1-0.1c0-0.1,0-0.1,0-0.2
				c0-0.1,0-0.2,0.1-0.3c0-0.1,0-0.2,0.1-0.2c0.1-0.3,0.1-0.6,0.1-0.9c0-0.3,0-0.7-0.1-1c-0.1-0.3-0.2-0.7-0.3-1
				c-0.1-0.3-0.3-0.6-0.5-0.9c0,0,0-0.1,0.1-0.2c0.1-0.1,0.1-0.2,0.2-0.3c0.1-0.1,0.1-0.2,0.2-0.3C233.3,49.5,233.4,49.4,233.4,49.4
				z"/>
			<path class="st0" d="M239.2,42.5c-0.4,0.2-0.7,0.3-1.1,0.5c-0.4,0.2-0.8,0.4-1.1,0.5c-0.4,0.2-0.7,0.3-1,0.5
				c-0.3,0.1-0.6,0.3-0.8,0.4c0,0-0.1,0-0.1,0c0,0,0-0.1,0-0.1l0.5-1.1c0-0.1,0.1-0.1,0.1-0.1c0,0,0.1,0,0.1-0.1l3.9-1.7
				c0.1,0,0.2,0,0.1,0.1l-0.4,1C239.4,42.4,239.3,42.4,239.2,42.5z"/>
			<path class="st0" d="M245.5,45.6c-0.4,0.2-0.7,0.3-1.1,0.5c-0.4,0.2-0.8,0.4-1.1,0.5c-0.4,0.2-0.7,0.3-1,0.5
				c-0.3,0.1-0.6,0.3-0.8,0.4c0,0-0.1,0-0.1,0c0,0,0-0.1,0-0.1l0.5-1.1c0-0.1,0.1-0.1,0.1-0.1c0,0,0.1,0,0.1-0.1l3.9-1.7
				c0.1,0,0.2,0,0.1,0.1l-0.4,1C245.6,45.5,245.5,45.5,245.5,45.6z"/>
			<path class="st0" d="M249.2,55c-0.8,0.5-1.6,1-2.5,1.4c-0.9,0.4-1.8,0.7-2.7,0.9c-0.5,0.1-1.1,0.2-1.6,0.2c-0.5,0-1-0.1-1.5-0.3
				c-0.5-0.2-0.9-0.4-1.3-0.8c-0.4-0.3-0.7-0.8-0.9-1.4c0,0.3,0,0.6,0,0.9c0,0.3-0.1,0.6-0.1,0.9c0,0.3-0.1,0.6-0.2,0.8
				c-0.1,0.3-0.1,0.5-0.2,0.7c0.2,0,0.5,0.1,0.8,0.2c0.3,0.1,0.7,0.2,1,0.3c0.3,0.1,0.6,0.2,0.8,0.4c0.2,0.2,0.4,0.4,0.4,0.6
				c0.1,0.5,0.1,0.9-0.1,1.4c-0.2,0.4-0.4,0.8-0.8,1.2c-0.3,0.4-0.7,0.7-1.1,1c-0.4,0.3-0.8,0.5-1.2,0.7c-0.7,0.3-1.4,0.6-2.1,0.8
				c-0.7,0.2-1.4,0.3-2,0.3c-0.6,0-1.2-0.1-1.8-0.2c-0.5-0.2-1-0.4-1.4-0.8c-0.4-0.3-0.7-0.8-0.9-1.3c-0.2-0.5-0.3-1.1-0.3-1.8
				c0-0.7,0.1-1.4,0.4-2.1c0.3-0.7,0.6-1.3,1-1.9c0,0,0.1-0.1,0.1-0.1c0,0,0.1,0,0.1,0.1c0,0,0,0.1,0.1,0.1c0,0,0,0.1,0,0.1
				c-0.2,0.5-0.4,1-0.6,1.6c-0.2,0.5-0.2,1.1-0.2,1.6c0,0.5,0.2,1,0.4,1.3c0.2,0.4,0.5,0.7,0.9,0.9s0.8,0.4,1.2,0.5
				c0.4,0.1,0.9,0.2,1.3,0.2c0.5,0,0.9,0,1.3-0.1c0.4-0.1,0.8-0.2,1.2-0.3c0.4-0.1,0.8-0.3,1.2-0.4c0.4-0.2,0.8-0.4,1.2-0.6
				c0.1-0.1,0.2-0.1,0.4-0.2c0.2-0.1,0.3-0.2,0.5-0.3c0.2-0.1,0.3-0.2,0.4-0.3c0.1-0.1,0.2-0.2,0.2-0.3c0-0.1-0.1-0.2-0.3-0.3
				c-0.2-0.1-0.3-0.2-0.6-0.2c-0.2-0.1-0.5-0.1-0.8-0.2c-0.3,0-0.5-0.1-0.8-0.1c-0.3,0-0.5-0.1-0.7-0.1c-0.2,0-0.4,0-0.5-0.1
				c-0.1,0-0.1-0.1-0.1-0.3c0.4-0.7,0.6-1.4,0.8-2.1c0.2-0.7,0.3-1.4,0.3-2.1c0-0.7,0-1.4,0-2.2c-0.1-0.7-0.1-1.4-0.2-2.1l-0.6-4.4
				c0-0.1,0-0.3,0-0.4c0-0.2,0.1-0.3,0.2-0.5c0.1-0.2,0.2-0.3,0.2-0.5c0.1-0.1,0.2-0.3,0.2-0.4c0,0,0,0,0.1,0c0,0,0.1,0,0.1,0.1
				c0.1,0.7,0.2,1.4,0.3,2.1c0.1,0.7,0.2,1.4,0.3,2.1c0.1,0.7,0.2,1.3,0.3,2c0.1,0.6,0.3,1.2,0.4,1.8c0.2,0.8,0.6,1.5,1.2,1.9
				c0.5,0.5,1.2,0.7,1.9,0.7c-0.2-0.1-0.3-0.3-0.5-0.5c-0.2-0.2-0.3-0.4-0.4-0.6c-0.1-0.2-0.2-0.4-0.3-0.7c-0.1-0.2-0.1-0.4-0.1-0.6
				c0-0.4,0-0.9,0.2-1.3c0.1-0.4,0.3-0.8,0.6-1.1c0.3-0.3,0.6-0.6,0.9-0.9s0.8-0.4,1.2-0.5c0.5-0.1,1-0.1,1.5-0.1
				c0.4,0,0.8,0.1,1.2,0.3c0.3,0.2,0.6,0.3,0.9,0.6c0.2,0.2,0.5,0.5,0.6,0.7c0,0,0,0.1,0,0.1c0,0,0,0.1-0.1,0.1c0,0-0.1,0-0.1,0
				c0,0-0.1,0-0.1,0c-0.5-0.3-1-0.4-1.4-0.5c-0.5-0.1-1-0.1-1.4,0c-0.2,0-0.5,0.1-0.8,0.2c-0.3,0.1-0.6,0.2-0.8,0.3
				c-0.3,0.1-0.5,0.2-0.8,0.4c-0.2,0.1-0.4,0.3-0.5,0.4c0,0.1,0,0.3,0.1,0.5s0.1,0.4,0.2,0.6c0.1,0.2,0.2,0.4,0.3,0.6
				c0.1,0.2,0.3,0.4,0.4,0.5c0.1,0.2,0.3,0.3,0.5,0.5c0.2,0.2,0.4,0.3,0.6,0.4c0.2,0.1,0.5,0.2,0.7,0.3c0.2,0.1,0.4,0.1,0.6,0.1
				c0.5,0,0.9-0.1,1.3-0.3c0.4-0.1,0.8-0.3,1.1-0.5c0.3-0.2,0.7-0.4,1-0.6c0.3-0.2,0.6-0.4,0.8-0.6c0.1,0,0.1,0,0.1,0
				c0,0,0,0.1,0,0.2c-0.1,0.2-0.1,0.3-0.1,0.4c0,0.1-0.1,0.2-0.1,0.3c0,0.1-0.1,0.2-0.1,0.3C249.3,54.8,249.3,54.9,249.2,55z"/>
			<path class="st0" d="M255.1,50c-0.4,0.2-0.7,0.3-1.1,0.5c-0.4,0.2-0.8,0.4-1.1,0.5c-0.4,0.2-0.7,0.3-1,0.5s-0.6,0.3-0.8,0.4
				c0,0-0.1,0-0.1,0s0-0.1,0-0.1l0.5-1.1c0-0.1,0.1-0.1,0.1-0.1c0,0,0.1,0,0.1-0.1l3.9-1.7c0.1,0,0.2,0,0.1,0.1l-0.4,1
				C255.2,49.9,255.2,49.9,255.1,50z"/>
			<path class="st0" d="M255.5,59c-0.1,0.3-0.3,0.6-0.5,0.8c-0.3,0.2-0.6,0.3-1,0.3c-0.2,0-0.4,0-0.6-0.2c-0.2-0.1-0.3-0.2-0.5-0.4
				c-0.1-0.2-0.2-0.3-0.3-0.6c-0.1-0.2-0.1-0.4-0.1-0.6c0-0.2,0-0.3,0.1-0.5c0-0.2,0.1-0.4,0.2-0.6s0.2-0.4,0.3-0.6
				c0.1-0.2,0.2-0.4,0.3-0.5c0.1-0.2,0.3-0.3,0.4-0.4c0.1-0.1,0.3-0.2,0.5-0.2c0.3,0,0.5,0.1,0.8,0.3c0.2,0.2,0.5,0.5,0.6,0.8
				c0.2,0.3,0.3,0.7,0.4,1.1c0.1,0.4,0.1,0.8,0.1,1.2c0,0.5-0.1,1.1-0.2,1.6c-0.1,0.6-0.3,1.1-0.5,1.6c-0.2,0.5-0.4,1-0.7,1.5
				c-0.3,0.5-0.6,0.9-0.9,1.2c-0.4,0.5-0.9,0.9-1.4,1.1c-0.5,0.3-1,0.4-1.6,0.5c-0.5,0.1-1.1,0.1-1.7,0c-0.6-0.1-1.2-0.2-1.8-0.4
				c-0.1,0-0.1-0.1-0.1-0.1c0,0,0-0.1,0-0.2c0-0.1,0.1-0.1,0.1-0.1c0.1,0,0.1-0.1,0.2,0c0.6,0,1.1,0,1.6,0c0.5-0.1,0.9-0.2,1.4-0.4
				c0.4-0.2,0.8-0.4,1.2-0.7c0.4-0.3,0.8-0.6,1.2-1c0.3-0.2,0.5-0.5,0.8-0.8c0.3-0.3,0.5-0.7,0.7-1c0.2-0.4,0.4-0.7,0.5-1.1
				c0.1-0.4,0.2-0.7,0.3-1c0-0.1,0-0.1,0-0.2c0-0.1,0-0.2,0-0.2c0-0.1,0-0.2-0.1-0.2C255.6,59.1,255.6,59.1,255.5,59z M254.1,57.1
				c-0.1,0-0.2,0-0.3,0.1c-0.1,0.1-0.2,0.2-0.2,0.3c-0.1,0.1-0.1,0.2-0.1,0.3c0,0.1,0,0.2,0,0.2c0.1,0.2,0.2,0.3,0.4,0.3
				c0.2,0.1,0.3,0.1,0.5,0.1c0.2,0,0.4-0.1,0.5-0.1c0.2-0.1,0.3-0.1,0.3-0.2c0-0.1,0-0.2-0.1-0.3c-0.1-0.1-0.2-0.2-0.3-0.3
				c-0.1-0.1-0.2-0.2-0.3-0.2C254.3,57.2,254.2,57.1,254.1,57.1z"/>
		</g>
	</g>
	<rect class="st2" width="374" height="78.3"/>
</g>
</svg>
