<?xml version="1.0" encoding="utf-8"?>
<!-- Generator: Adobe Illustrator 19.2.0, SVG Export Plug-In . SVG Version: 6.00 Build 0)  -->
<svg version="1.1" id="Layer_1" xmlns="http://www.w3.org/2000/svg" xmlns:xlink="http://www.w3.org/1999/xlink" x="0px" y="0px"
	 viewBox="0 0 341.3 47.3" style="enable-background:new 0 0 341.3 47.3;" xml:space="preserve">
<style type="text/css">
	.st0{fill:#003E4E;}
	.st1{fill:#F5712E;}
	.st2{fill:none;}
</style>
<g>
	<g>
		<g>
			<path d="M64.1,34.6c0,0.1-0.1,0.1-0.2,0.1c-0.4,0-1.1-0.4-1.9-1.1c-0.6-0.5-1.1-1.1-1.5-1.6c-0.9-1.1-1.5-2.4-2.1-3.8
				c-1.3,0-2-0.2-2.1-0.5c0.4-0.3,0.7-0.7,0.9-1c0.3-0.4,0.4-0.8,0.4-1.2c-0.3,0-0.7,0.2-1.2,0.6c-0.1,0.1-0.4,0.4-1,0.9
				c-0.1,0-0.2-0.1-0.3-0.4c-0.1-0.3-0.2-0.7-0.2-1.2c-0.3-0.2-0.6-0.3-0.8-0.5c-0.2-0.2-0.3-0.3-0.3-0.4c0-0.2,0.2-0.4,0.5-0.7
				c0.2-0.1,0.4-0.3,0.6-0.4c0-0.4,0-0.7,0.1-1.1c0.1-0.3,0.2-0.5,0.3-0.5c0.4,0.4,0.8,0.7,1,0.9c0.4,0.3,0.9,0.5,1.2,0.5
				c0-0.4-0.2-0.8-0.5-1.2c-0.3-0.3-0.6-0.7-1-1c0-0.2,0.3-0.3,1-0.5c0.5-0.1,0.9-0.2,1.2-0.2c0.9-2.7,2.3-4.7,4-6.1
				c0.6-0.5,1-0.7,1.2-0.7c0.1,0,0.2,0.1,0.2,0.2c0,0.1-0.2,0.4-0.7,0.9c-1.5,1.7-2.3,3.6-2.7,5.7c0.4,0.1,0.7,0.1,0.8,0.2
				c0.1,0.1,0.2,0.2,0.2,0.3c-0.4,0.3-0.7,0.7-0.9,1c-0.3,0.4-0.5,0.8-0.5,1.2c0.4,0,0.8-0.2,1.1-0.5c0.2-0.2,0.6-0.6,1-1
				c0.2,0,0.3,0.2,0.5,0.7c0.1,0.4,0.1,0.7,0.1,0.9c0.7,0.3,1.1,0.7,1.1,1c0,0.3-0.3,0.6-1,1c0,0.6-0.1,1.1-0.2,1.3
				c-0.1,0.2-0.2,0.2-0.4,0.3c-0.7-0.9-1.5-1.3-2.2-1.4c0,0.3,0.2,0.8,0.5,1.2c0.1,0.2,0.5,0.5,1,1c0,0.1-0.1,0.1-0.2,0.2
				c-0.1,0.1-0.4,0.1-0.9,0.3c0.2,1.1,0.6,2.2,1.3,3.3c0.7,1.1,1.4,2.1,2.2,2.8C64.1,34.4,64.1,34.5,64.1,34.6z M57.2,25
				c-0.2-0.1-0.5-0.2-0.8-0.3c0,0-0.2-0.1-0.5-0.2s-0.4-0.2-0.4-0.3c0,0,0.3-0.2,1-0.3c0.1-0.1,0.4-0.2,0.7-0.3
				c-0.4-0.1-0.7-0.3-1-0.5c-0.1-0.1-0.4-0.4-0.7-0.6c-0.1,0-0.1,0.1-0.1,0.3c0,0.2,0,0.4,0,0.8c-0.6,0.3-0.9,0.6-0.9,0.7
				c0,0.1,0.1,0.2,0.3,0.3c0.2,0.1,0.4,0.2,0.7,0.3c0,0.1,0,0.4,0.1,0.7c0.1,0.4,0.1,0.6,0.2,0.6l0.7-0.7C56.7,25.3,57,25.1,57.2,25
				z M62.9,14.3c-1.8,1.2-3.2,3.4-4.3,6.5c-0.7,0-1.2,0-1.4,0.1c-0.2,0-0.3,0.1-0.3,0.2c0.5,0.4,0.9,0.9,1.2,1.4
				c0.1-0.3,0.3-0.5,0.4-0.6c0.1-0.2,0.2-0.5,0.4-0.7c0,0,0.1,0.1,0.1,0.3c0,0.2,0.1,0.3,0.1,0.3c0.1,0.1,0.2,0.3,0.4,0.7
				c0.1-0.3,0.3-0.6,0.5-0.9c0.1-0.1,0.3-0.4,0.6-0.6c0-0.1-0.1-0.1-0.3-0.2c-0.1,0-0.3,0-0.5-0.1c0.3-1.2,0.5-2,0.6-2.4
				C61,17.1,61.7,15.7,62.9,14.3z M63.4,34.2c-0.7-0.7-1.4-1.5-2-2.6c-0.7-1.2-1.1-2.5-1.4-3.8c0.5,0,0.8-0.1,0.8-0.2
				c-0.5-0.5-1-1-1.2-1.5c-0.1,0.2-0.2,0.4-0.3,0.7c0,0-0.1,0.2-0.2,0.4c-0.1,0.2-0.1,0.3-0.2,0.3c-0.2,0-0.4-0.4-0.7-1.3
				c-0.2,0.4-0.4,0.7-0.6,0.9c-0.2,0.2-0.4,0.4-0.6,0.6c0,0,0.1,0.1,0.3,0.1c0.1,0,0.4,0.1,0.6,0.1c0.2,0,0.3,0,0.4,0
				c0.1,0,0.3,0,0.3,0C59.7,30.6,61.2,32.8,63.4,34.2z M60.2,24.3c0-0.4-0.1-0.7-0.4-0.9c-0.3-0.2-0.6-0.4-0.9-0.4
				c-0.4,0-0.7,0.1-0.9,0.4c-0.2,0.2-0.4,0.6-0.4,0.9c0,0.3,0.1,0.6,0.4,0.9c0.3,0.2,0.6,0.4,0.9,0.4c0.4,0,0.7-0.1,0.9-0.4
				C60.1,25,60.2,24.7,60.2,24.3z M63.3,24.2c0-0.2-0.3-0.3-0.9-0.6c0-0.4,0-0.7-0.1-0.9c-0.1-0.2-0.1-0.4-0.2-0.4
				c-0.1,0.1-0.3,0.3-0.7,0.7c-0.3,0.3-0.6,0.4-0.9,0.6c0.1,0,0.4,0.2,1.1,0.4c0.4,0.1,0.6,0.3,0.6,0.3c0,0.1-0.2,0.2-0.6,0.3
				c-0.3,0.1-0.7,0.2-1.1,0.3c0.3,0.1,0.6,0.3,1,0.5c0.1,0.1,0.4,0.3,0.6,0.6c0.1,0,0.2-0.4,0.2-1.2C63,24.6,63.3,24.3,63.3,24.2z"
				/>
			<path class="st0" d="M76.6,31.9c-0.7,0.2-1.4,0.4-2.1,0.7c-0.7,0.2-1.3,0.4-2,0.6c-0.1,0-0.1,0-0.1-0.1l0.4-0.8
				c0,0,0-0.1,0.1-0.1c0,0,0,0,0.1-0.1c0.2-0.1,0.4-0.2,0.8-0.3c0.3-0.1,0.7-0.2,1-0.3c0.4-0.1,0.7-0.2,1.1-0.4
				c0.4-0.1,0.8-0.2,1.1-0.3c0.1,0,0.1,0,0.1,0c0,0,0,0,0,0.1l-0.5,0.8C76.7,31.8,76.7,31.8,76.6,31.9
				C76.7,31.8,76.6,31.8,76.6,31.9z"/>
			<path class="st0" d="M75.4,21.5l0.3-1.3c0-0.1,0.1-0.1,0.1-0.1c0.1,0,0.1,0,0.1,0.1l1.1,3.9c0.1,0.5,0.3,1,0.5,1.3
				c0.2,0.4,0.5,0.7,0.9,1c0.2,0.2,0.5,0.3,0.8,0.3c0.3,0.1,0.6,0.1,1,0.1h0.2c0.2,0,0.4,0.1,0.5,0.3c0.1,0.2,0.2,0.4,0.2,0.6
				S81.1,28,81,28.2c-0.1,0.2-0.3,0.3-0.5,0.3h-0.2c-0.4,0-0.8,0-1.1-0.1c-0.3-0.1-0.7-0.2-1-0.4c-0.3-0.2-0.6-0.5-0.8-0.8
				c-0.2-0.3-0.5-0.8-0.7-1.3c-0.2,0.6-0.5,1-0.9,1.4c-0.3,0.3-0.7,0.5-1.2,0.7c-0.5,0.1-0.9,0.2-1.4,0.3c-0.4,0.1-0.9,0.1-1.2,0
				c-0.4,0-0.7-0.2-0.9-0.3c-0.1-0.1-0.2-0.2-0.2-0.4c0-0.2-0.1-0.4-0.1-0.5c0-0.2,0-0.4,0-0.6c0-0.2,0.1-0.3,0.1-0.5
				c0,0,0.1-0.1,0.1-0.1c0,0,0.1,0,0.1,0.1c0.1,0.2,0.3,0.4,0.4,0.5c0.2,0.1,0.4,0.1,0.6,0.2c0.3,0,0.7,0,1.2,0
				c0.4,0,0.9-0.1,1.3-0.3c0.4-0.1,0.8-0.3,1.1-0.5c0.3-0.2,0.6-0.4,0.7-0.7L75.4,21.5z"/>
			<path class="st0" d="M80.3,28.5h-0.2c-0.2,0-0.4-0.1-0.5-0.3c-0.1-0.2-0.2-0.4-0.2-0.6c0-0.1,0-0.2,0-0.3c0-0.1,0.1-0.2,0.1-0.3
				c0.1-0.1,0.1-0.1,0.2-0.2c0.1,0,0.2-0.1,0.3-0.1h0.2c0.2,0,0.5,0,0.7,0c0.3,0,0.5-0.1,0.8-0.1c0.2-0.1,0.5-0.2,0.7-0.3
				c0.2-0.1,0.4-0.3,0.6-0.6c0.1-0.2,0.3-0.3,0.3-0.5c0.1-0.2,0.2-0.4,0.3-0.6c0-0.1,0.1-0.1,0.2-0.2c0.1,0,0.1,0,0.1,0.1
				c0,0.1,0,0.2,0,0.3c0,0.1,0,0.2,0,0.3c0,0.2,0,0.4,0.1,0.6c0.1,0.2,0.2,0.4,0.4,0.5c0.2,0.2,0.5,0.3,0.8,0.4
				c0.3,0.1,0.7,0.1,1.2,0.1h0.2c0.1,0,0.2,0,0.3,0.1c0.1,0,0.1,0.1,0.2,0.2c0.1,0.1,0.1,0.2,0.1,0.3c0,0.1,0,0.2,0,0.3
				c0,0.2-0.1,0.4-0.2,0.6c-0.1,0.2-0.3,0.3-0.5,0.3h-0.2c-0.4,0-0.8,0-1.1-0.1c-0.3-0.1-0.6-0.2-0.9-0.3c-0.5-0.3-0.8-0.7-1.1-1.3
				c-0.2,0.3-0.3,0.6-0.6,0.8c-0.2,0.2-0.5,0.4-0.7,0.5c-0.3,0.1-0.6,0.2-0.9,0.3C80.9,28.5,80.6,28.5,80.3,28.5z M84.8,32.8
				C84.7,32.8,84.7,32.8,84.8,32.8c-0.1,0.1-0.1,0.1-0.2,0l-1.3-1l-0.8,1.1c0,0.1-0.1,0.1-0.2,0l-1.4-1.1c0,0-0.1-0.1,0-0.1l0.9-1.2
				c0,0,0.1-0.1,0.1-0.1s0,0,0.1,0l1.3,1l0.9-1.1c0-0.1,0.1-0.1,0.1,0l1.4,1.1c0,0,0,0.1,0,0.2L84.8,32.8z"/>
			<path class="st0" d="M92.8,31.9c-0.7,0.2-1.4,0.4-2.1,0.7c-0.7,0.2-1.3,0.4-2,0.6c-0.1,0-0.1,0-0.1-0.1l0.4-0.8
				c0,0,0-0.1,0.1-0.1c0,0,0,0,0.1-0.1c0.2-0.1,0.4-0.2,0.8-0.3c0.3-0.1,0.7-0.2,1-0.3c0.4-0.1,0.7-0.2,1.1-0.4
				c0.4-0.1,0.8-0.2,1.1-0.3c0.1,0,0.1,0,0.1,0c0,0,0,0,0,0.1l-0.5,0.8C92.9,31.8,92.9,31.8,92.8,31.9
				C92.8,31.8,92.8,31.8,92.8,31.9z"/>
			<path class="st0" d="M96.9,26.2c-0.5,0.2-1,0.3-1.6,0.5c-0.6,0.2-1.2,0.3-1.8,0.5c-0.6,0.2-1.3,0.3-1.9,0.5
				c-0.6,0.2-1.3,0.3-1.9,0.4c-0.6,0.1-1.2,0.2-1.7,0.3c-0.5,0.1-1,0.1-1.4,0.1h-0.2c-0.2,0-0.4-0.1-0.5-0.3
				c-0.1-0.2-0.2-0.4-0.2-0.6c0-0.2,0.1-0.4,0.2-0.6c0.1-0.2,0.3-0.3,0.5-0.3h0.2c0.1,0,0.3,0,0.4,0c0.2,0,0.4,0,0.6,0
				c0.2,0,0.5,0,0.7-0.1c0.3,0,0.5,0,0.7-0.1c0.2,0,0.5-0.1,0.7-0.1c0.2,0,0.4-0.1,0.5-0.1c-0.2-0.1-0.3-0.2-0.5-0.4
				c-0.2-0.2-0.3-0.4-0.4-0.6c-0.1-0.2-0.3-0.4-0.3-0.7c-0.1-0.2-0.2-0.5-0.2-0.7c-0.1-0.4,0-0.9,0.1-1.4c0.2-0.5,0.4-0.9,0.7-1.3
				c0.3-0.4,0.6-0.7,1-1c0.4-0.3,0.8-0.4,1.2-0.5c0.5-0.1,1-0.1,1.5,0c0.4,0.1,0.8,0.2,1.2,0.4c0.3,0.2,0.6,0.4,0.9,0.6
				c0.3,0.3,0.5,0.5,0.6,0.8c0,0,0,0.1,0,0.1c0,0,0,0.1-0.1,0.1c0,0-0.1,0-0.1,0c0,0-0.1,0-0.1,0c-0.5-0.3-0.9-0.4-1.4-0.5
				c-0.5-0.1-1-0.1-1.6,0c-0.3,0-0.6,0.1-0.9,0.1c-0.3,0.1-0.6,0.1-0.8,0.2c-0.3,0.1-0.5,0.2-0.7,0.3c-0.2,0.1-0.4,0.3-0.5,0.4
				c0,0.1,0,0.3,0.1,0.5c0,0.2,0.1,0.4,0.2,0.5c0.1,0.2,0.2,0.4,0.3,0.6c0.1,0.2,0.3,0.3,0.4,0.5c0.2,0.2,0.3,0.3,0.5,0.4
				c0.2,0.1,0.4,0.3,0.5,0.4c0.2,0.1,0.3,0.2,0.5,0.3c0.2,0.1,0.3,0.1,0.4,0.1c0.9-0.2,1.9-0.4,2.8-0.6c0.9-0.3,1.8-0.5,2.6-0.7
				c0.1,0,0.1,0,0.1,0c-0.2,0.3-0.4,0.7-0.6,1S97.1,26,96.9,26.2z"/>
			<path class="st0" d="M102.8,17.5c-0.4,0.2-0.7,0.3-1.1,0.5c-0.4,0.2-0.8,0.4-1.1,0.5c-0.4,0.2-0.7,0.3-1,0.5
				c-0.3,0.1-0.6,0.3-0.8,0.4c0,0-0.1,0-0.1,0c0,0,0-0.1,0-0.1l0.5-1.1c0-0.1,0.1-0.1,0.1-0.1c0,0,0.1,0,0.1-0.1l3.9-1.7
				c0.1,0,0.2,0,0.1,0.1l-0.4,1C102.9,17.4,102.9,17.4,102.8,17.5z"/>
			<path class="st0" d="M103.3,26.5c-0.1,0.3-0.3,0.6-0.5,0.8c-0.3,0.2-0.6,0.3-1,0.3c-0.2,0-0.4,0-0.6-0.2
				c-0.2-0.1-0.3-0.2-0.5-0.4c-0.1-0.2-0.2-0.3-0.3-0.6c-0.1-0.2-0.1-0.4-0.1-0.6c0-0.2,0-0.3,0.1-0.5c0-0.2,0.1-0.4,0.2-0.6
				c0.1-0.2,0.2-0.4,0.3-0.6c0.1-0.2,0.2-0.4,0.3-0.5c0.1-0.2,0.3-0.3,0.4-0.4c0.1-0.1,0.3-0.2,0.5-0.2c0.3,0,0.5,0.1,0.8,0.3
				c0.2,0.2,0.5,0.5,0.6,0.8c0.2,0.3,0.3,0.7,0.4,1.1c0.1,0.4,0.1,0.8,0.1,1.2c0,0.5-0.1,1.1-0.2,1.6c-0.1,0.6-0.3,1.1-0.5,1.6
				s-0.4,1-0.7,1.5c-0.3,0.5-0.6,0.9-0.9,1.2c-0.4,0.5-0.9,0.9-1.4,1.1c-0.5,0.3-1,0.4-1.6,0.5c-0.5,0.1-1.1,0.1-1.7,0
				c-0.6-0.1-1.2-0.2-1.8-0.4c-0.1,0-0.1-0.1-0.1-0.1c0,0,0-0.1,0-0.2c0-0.1,0.1-0.1,0.1-0.1c0.1,0,0.1-0.1,0.2,0c0.6,0,1.1,0,1.6,0
				c0.5-0.1,0.9-0.2,1.4-0.4c0.4-0.2,0.8-0.4,1.2-0.7c0.4-0.3,0.8-0.6,1.2-1c0.3-0.2,0.5-0.5,0.8-0.8c0.3-0.3,0.5-0.7,0.7-1
				c0.2-0.4,0.4-0.7,0.5-1.1c0.1-0.4,0.2-0.7,0.3-1c0-0.1,0-0.1,0-0.2c0-0.1,0-0.2,0-0.2c0-0.1,0-0.2-0.1-0.2
				C103.3,26.6,103.3,26.6,103.3,26.5z M101.9,24.6c-0.1,0-0.2,0-0.3,0.1c-0.1,0.1-0.2,0.2-0.2,0.3c-0.1,0.1-0.1,0.2-0.1,0.3
				c0,0.1,0,0.2,0,0.2c0.1,0.2,0.2,0.3,0.4,0.3c0.2,0.1,0.3,0.1,0.5,0.1c0.2,0,0.4-0.1,0.5-0.1c0.2-0.1,0.3-0.1,0.3-0.2
				c0-0.1,0-0.2-0.1-0.3c-0.1-0.1-0.2-0.2-0.3-0.3c-0.1-0.1-0.2-0.2-0.3-0.2C102.1,24.7,102,24.6,101.9,24.6z"/>
			<path class="st0" d="M121.2,13.4c0.2-0.1,0.5-0.3,0.7-0.4c0.2-0.1,0.5-0.3,0.7-0.4c0.2-0.2,0.4-0.3,0.7-0.5
				c0.2-0.2,0.4-0.4,0.6-0.6c-0.2-0.1-0.4-0.2-0.6-0.3c-0.2-0.1-0.4-0.3-0.5-0.4c-0.1-0.1-0.1-0.2-0.1-0.3c0-0.1,0-0.2,0-0.3
				c0.1-0.2,0.1-0.4,0.2-0.6c0.1-0.2,0.2-0.4,0.4-0.5c0.1-0.2,0.3-0.3,0.5-0.4c0.2-0.1,0.4-0.2,0.5-0.1c0.2,0,0.4,0.1,0.5,0.3
				c0.1,0.2,0.2,0.4,0.2,0.7c0,0.3,0,0.5,0,0.8c0,0.3,0,0.4-0.1,0.5c0,0,0,0.1,0,0.1c0.1,0,0.1,0.1,0.2,0.1c0,0,0.1,0.1,0.1,0.2
				c0,0.1,0.1,0.2,0,0.4c0,0.2-0.1,0.3-0.1,0.3c-0.1,0.1-0.1,0.1-0.2,0.1c0,0-0.1,0-0.1-0.1c0,0-0.1-0.1-0.1-0.1
				c0,0-0.1-0.1-0.1-0.1c-0.2,0.2-0.4,0.5-0.6,0.7c-0.2,0.2-0.5,0.4-0.7,0.6c-0.3,0.2-0.5,0.3-0.8,0.5c-0.3,0.1-0.6,0.3-0.9,0.4
				c-0.1,0-0.2,0.1-0.4,0.1c-0.1,0-0.2,0-0.2,0c0,0,0-0.1,0.1-0.2C121,13.6,121.1,13.5,121.2,13.4z M123.2,9.8
				c0.2,0.2,0.3,0.4,0.5,0.5c0.2,0.1,0.4,0.2,0.6,0.2h0c0-0.1,0-0.1,0-0.2c0-0.1,0-0.2,0-0.3c0-0.1,0-0.2,0-0.3
				c0-0.1-0.1-0.2-0.1-0.2c-0.1,0-0.1-0.1-0.2-0.1c-0.1,0-0.2,0-0.3,0.1c-0.1,0-0.2,0.1-0.3,0.1C123.2,9.7,123.2,9.8,123.2,9.8z"/>
			<path class="st0" d="M124.8,24c-0.2,0-0.4,0-0.7-0.1c-0.2-0.1-0.4-0.2-0.6-0.3c-0.2-0.1-0.3-0.3-0.4-0.5
				c-0.1-0.2-0.2-0.4-0.2-0.6c0-0.3,0-0.6,0.1-1c0.1-0.4,0.2-0.7,0.4-1c0.2-0.3,0.3-0.6,0.6-0.8c0.2-0.2,0.5-0.3,0.7-0.4
				c0.3,0,0.6,0.1,0.9,0.3c0.3,0.2,0.6,0.5,0.9,0.8c0.3,0.3,0.5,0.7,0.6,1.1c0.2,0.4,0.3,0.8,0.3,1.1c0,0.3,0,0.6,0,1
				c0,0.4-0.1,0.7-0.2,1c-0.1,0.3-0.2,0.6-0.3,0.8c-0.1,0.2-0.3,0.4-0.4,0.5c-0.7,0.4-1.4,0.7-2.1,1.1c-0.8,0.3-1.5,0.6-2.3,0.8
				c-0.8,0.2-1.6,0.4-2.3,0.5c-0.8,0.1-1.4,0.2-2.1,0.2c-0.8,0-1.5,0-2.3-0.1c-0.8-0.1-1.5-0.2-2.1-0.5c-0.6-0.3-1.2-0.6-1.6-1.2
				c-0.4-0.5-0.7-1.2-0.7-2.1c0-0.6,0-1.2,0.2-1.8c0.2-0.6,0.5-1.1,1-1.6c0.1-0.1,0.1,0,0.2,0c0.1,0.1,0.1,0.1,0,0.2
				c-0.3,0.4-0.5,0.9-0.6,1.4c-0.1,0.5-0.1,1,0,1.5c0.1,0.3,0.2,0.6,0.4,0.8c0.2,0.2,0.4,0.4,0.6,0.6c0.2,0.2,0.5,0.3,0.8,0.4
				c0.3,0.1,0.6,0.2,0.9,0.3c0.3,0.1,0.6,0.1,1,0.2c0.3,0,0.7,0.1,1,0.1c0.3,0,0.6,0,0.9,0c0.3,0,0.6,0,0.9,0c0.7,0,1.5-0.1,2.2-0.2
				c0.8-0.1,1.5-0.3,2.2-0.5c0.7-0.2,1.4-0.4,2.1-0.7c0.7-0.3,1.3-0.6,1.9-1c0-0.1,0-0.2,0-0.3c0-0.1,0-0.3-0.1-0.4
				c0-0.1-0.1-0.3-0.1-0.4c0-0.1-0.1-0.2-0.2-0.2c-0.2,0.2-0.4,0.4-0.7,0.6C125.4,23.8,125.1,23.9,124.8,24z M123.4,15.1
				c0-0.1,0.1-0.1,0.2,0l1.3,1.1c0,0,0,0,0,0.1c0,0,0,0.1,0,0.1l-0.9,1.1c-0.1,0.1-0.1,0.1-0.2,0l-1.3-1.1c0,0,0,0,0-0.1
				c0,0,0-0.1,0-0.1L123.4,15.1z M125.7,21.7c-0.1-0.1-0.3-0.3-0.5-0.4c-0.2-0.2-0.4-0.2-0.6-0.3c-0.1,0-0.2,0-0.3,0.1
				c-0.1,0-0.2,0.1-0.2,0.2c-0.1,0.1-0.1,0.2-0.2,0.3c0,0.1,0,0.2,0,0.3c0,0.1,0.1,0.2,0.3,0.3c0.2,0.1,0.3,0.1,0.5,0.1
				c0.2,0,0.4,0,0.6,0c0.2,0,0.3-0.1,0.5-0.2c0.1,0,0.1-0.1,0.1-0.2C125.8,21.8,125.7,21.7,125.7,21.7z"/>
			<path class="st0" d="M133.7,26.8c0.2,0,0.4,0.1,0.5,0.3c0.1,0.2,0.2,0.4,0.2,0.6c0,0.2,0,0.4-0.2,0.6c-0.1,0.2-0.3,0.3-0.5,0.3
				c0,0,0,0-0.1,0c0,0-0.1,0-0.1,0c-0.6,0-1.2-0.1-1.6-0.4c-0.4-0.2-0.7-0.6-1-0.9c-0.3-0.5-0.5-1-0.6-1.5c-0.1-0.5-0.2-1.1-0.2-1.6
				c-0.1-0.6-0.1-1.2-0.2-1.9c-0.1-0.6-0.1-1.2-0.2-1.9c-0.1-0.6-0.2-1.3-0.3-1.9c-0.1-0.7-0.3-1.4-0.5-2.1c0-0.1,0-0.1,0-0.1
				c0,0,0-0.1,0-0.1l0.6-1.4c0,0,0.1-0.1,0.1-0.1c0,0,0.1,0,0.1,0.1c0.1,0.4,0.2,0.8,0.3,1.2c0.1,0.4,0.2,0.9,0.2,1.3
				c0.1,0.5,0.1,1,0.2,1.6c0.1,0.6,0.1,1.2,0.2,1.9c0.1,0.5,0.1,1,0.2,1.5c0,0.5,0.1,1,0.2,1.5c0,0.4,0.1,0.8,0.2,1.2
				c0.1,0.4,0.2,0.8,0.4,1.1c0.2,0.3,0.4,0.5,0.7,0.7c0.3,0.2,0.8,0.2,1.3,0.2C133.6,26.8,133.6,26.8,133.7,26.8
				C133.7,26.8,133.7,26.8,133.7,26.8z"/>
			<path class="st0" d="M140.2,14.5c-0.4,0.2-0.7,0.3-1.1,0.5c-0.4,0.2-0.8,0.4-1.1,0.5c-0.4,0.2-0.7,0.3-1,0.5
				c-0.3,0.1-0.6,0.3-0.8,0.4c0,0-0.1,0-0.1,0s0-0.1,0-0.1l0.5-1.1c0-0.1,0.1-0.1,0.1-0.1c0,0,0.1,0,0.1-0.1l3.9-1.7
				c0.1,0,0.2,0,0.1,0.1l-0.4,1C140.3,14.4,140.3,14.5,140.2,14.5z"/>
			<path class="st0" d="M140.2,24.6c-0.6-0.2-1.2-0.3-1.8-0.5c-0.6-0.2-1.2-0.2-1.7-0.3c-0.4,0-0.8,0-1.1,0.2
				c-0.4,0.1-0.7,0.3-1,0.6c0,0-0.1,0.1-0.2,0.1c-0.1,0-0.1,0-0.1-0.1c0.1-0.4,0.2-0.7,0.3-1c0.1-0.3,0.3-0.6,0.5-0.8
				c0.2-0.2,0.5-0.4,0.8-0.5c0.3-0.1,0.7-0.2,1.1-0.1c0.4,0,0.8,0.1,1.2,0.2c0.4,0.1,0.8,0.2,1.2,0.3c0.4,0.1,0.8,0.2,1.2,0.4
				c0.4,0.1,0.8,0.2,1.2,0.3c0.7,0.2,1.3,0.2,2,0.3c0.7,0,1.3,0,2,0c0.1,0,0.1,0,0.1,0.1l-0.7,1.5c-0.2,0-0.4,0-0.6-0.1
				c-0.2,0-0.4,0-0.6-0.1c0,0.3,0,0.5,0,0.7c0.1,0.2,0.2,0.4,0.4,0.6c0.2,0.1,0.4,0.2,0.6,0.3c0.2,0.1,0.5,0.1,0.7,0.1
				c0.2,0,0.5,0,0.7,0c0.2,0,0.5,0,0.7,0h0.2c0.2,0,0.4,0.1,0.5,0.3c0.1,0.2,0.2,0.4,0.2,0.6s-0.1,0.4-0.2,0.6
				c-0.1,0.2-0.3,0.3-0.5,0.3c0,0-0.1,0-0.1,0c0,0-0.1,0-0.1,0c-0.3,0-0.6,0-1,0c-0.3,0-0.6,0-0.9-0.1c-0.3-0.1-0.6-0.2-0.8-0.3
				c-0.3-0.1-0.5-0.3-0.6-0.5c-0.2-0.3-0.4-0.7-0.4-1.2c0-0.4,0-0.9,0-1.3c-0.4,0-0.8,0.1-1.2,0.2s-0.8,0.3-1.2,0.5
				c-0.6,0.3-1.3,0.7-1.9,1.1c-0.6,0.4-1.2,0.7-1.9,1c-0.5,0.2-1.1,0.4-1.7,0.5c-0.6,0.1-1.2,0.2-1.8,0.2h-0.2
				c-0.2,0-0.4-0.1-0.5-0.3c-0.1-0.2-0.2-0.4-0.2-0.6s0.1-0.4,0.2-0.6c0.1-0.2,0.3-0.3,0.5-0.3c0,0,0.1,0,0.1,0c0,0,0.1,0,0.1,0
				c0.5,0,1,0,1.5-0.1c0.5-0.1,1-0.2,1.5-0.4c0.6-0.2,1.2-0.4,1.8-0.7C139,25.3,139.6,24.9,140.2,24.6z M138.5,17.7l1.3,1.1
				c0.1,0,0.1,0.1,0,0.2l-0.9,1.1c0,0.1-0.1,0.1-0.2,0l-1.3-1.1c-0.1,0-0.1-0.1,0-0.2l0.9-1.1C138.4,17.6,138.4,17.6,138.5,17.7z"/>
			<path class="st1" d="M150.8,16.7c-0.4,0.2-0.7,0.3-1.1,0.5c-0.4,0.2-0.8,0.4-1.1,0.5c-0.4,0.2-0.7,0.3-1,0.5
				c-0.3,0.1-0.6,0.3-0.8,0.4c0,0-0.1,0-0.1,0c0,0,0-0.1,0-0.1l0.5-1.1c0-0.1,0.1-0.1,0.1-0.1c0,0,0.1,0,0.1-0.1l3.9-1.7
				c0.1,0,0.2,0,0.1,0.1l-0.4,1C150.9,16.6,150.9,16.6,150.8,16.7z"/>
			<path class="st1" d="M149.8,22.6c0.2,0.2,0.4,0.4,0.6,0.7c0.2,0.2,0.3,0.5,0.4,0.7c0.1,0.3,0.2,0.5,0.3,0.8
				c0.1,0.3,0.1,0.5,0.1,0.8c0,0.1,0,0.3,0,0.4c0,0.2,0,0.3-0.1,0.5c0,0.2-0.1,0.3-0.1,0.4c0,0.1-0.1,0.3-0.2,0.4
				c-0.2,0.3-0.4,0.5-0.7,0.6c-0.3,0.2-0.6,0.3-1,0.4c-0.4,0.1-0.7,0.1-1.1,0.2c-0.4,0-0.7,0-1,0h-0.2c-0.2,0-0.4-0.1-0.5-0.3
				c-0.1-0.2-0.2-0.4-0.2-0.6c0-0.2,0.1-0.4,0.2-0.6c0.1-0.2,0.3-0.3,0.5-0.3h0.2c0.3,0,0.7,0,1,0c0.3,0,0.7,0,1-0.1
				c0.3,0,0.6-0.1,0.8-0.1c0.2-0.1,0.4-0.1,0.6-0.2c0.1,0,0.1-0.1,0.1-0.2c0-0.1,0-0.1,0-0.2c-0.1-0.2-0.2-0.4-0.2-0.5
				c-0.1-0.2-0.2-0.3-0.3-0.5c-0.1-0.2-0.2-0.3-0.4-0.4c-0.1-0.1-0.3-0.3-0.4-0.4l0.4-1.5c0-0.1,0.1-0.1,0.1-0.1
				C149.7,22.5,149.8,22.6,149.8,22.6z M150.9,32.7C150.9,32.7,150.9,32.8,150.9,32.7c-0.1,0.1-0.1,0.1-0.2,0l-1.3-1l-0.8,1.1
				c0,0.1-0.1,0.1-0.2,0l-1.4-1.1c0,0-0.1-0.1,0-0.1l0.9-1.2c0,0,0.1-0.1,0.1-0.1s0,0,0.1,0l1.3,1l0.9-1.1c0-0.1,0.1-0.1,0.1,0
				l1.4,1.1c0,0,0,0.1,0,0.2L150.9,32.7z"/>
			<path class="st1" d="M166.3,26.6l0.5-1.6c0-0.1,0.1-0.1,0.1-0.1c0,0,0.1,0,0.1,0.1c0.1,0.2,0.3,0.5,0.4,0.8
				c0.2,0.3,0.3,0.5,0.4,0.7c0.1,0.1,0.2,0.1,0.3,0.2c0.1,0,0.3,0.1,0.4,0.1c0.1,0,0.3,0,0.4,0c0.1,0,0.2,0,0.3,0h0.2
				c0.2,0,0.4,0.1,0.5,0.3c0.1,0.2,0.2,0.4,0.2,0.6c0,0.2-0.1,0.4-0.2,0.6c-0.1,0.2-0.3,0.3-0.5,0.3h-0.2c-0.4,0-0.7,0-1.1-0.1
				c0,0.4,0.1,0.8,0.1,1.3c0,0.5,0,0.9-0.1,1.3c-0.1,0.7-0.4,1.3-0.8,1.8c-0.4,0.5-0.9,0.9-1.5,1.3c-0.6,0.3-1.2,0.6-1.9,0.7
				c-0.7,0.2-1.3,0.2-2,0.2c-0.6,0-1.1-0.1-1.6-0.3c-0.5-0.2-0.9-0.4-1.3-0.8c-0.4-0.3-0.7-0.7-0.9-1.2c-0.2-0.5-0.3-1-0.3-1.6
				c0-0.7,0.1-1.3,0.3-2c0.2-0.6,0.5-1.2,0.9-1.8c0-0.1,0.1-0.1,0.1-0.1c0,0,0.1,0,0.1,0.1c0,0.1,0,0.1,0,0.2
				c-0.3,0.6-0.5,1.3-0.6,2c-0.1,0.7,0,1.3,0.2,1.9c0.2,0.6,0.6,1,1.1,1.4c0.5,0.4,1.2,0.5,2.1,0.5c0.5,0,1,0,1.5-0.1
				c0.5-0.1,1-0.2,1.4-0.4c0.5-0.2,0.9-0.4,1.3-0.7c0.4-0.3,0.8-0.6,1.1-1c0-0.4,0-0.8-0.1-1.2c-0.1-0.4-0.1-0.8-0.3-1.2
				c-0.1-0.4-0.2-0.8-0.4-1.1S166.5,27,166.3,26.6z M163.7,22.1l1.3,1.1c0.1,0,0.1,0.1,0,0.2l-0.9,1.1c0,0.1-0.1,0.1-0.2,0l-1.3-1.1
				c-0.1,0-0.1-0.1,0-0.2l0.9-1.1C163.6,22,163.7,22,163.7,22.1z"/>
			<path class="st0" d="M175.1,16.4c-0.4,0.2-0.7,0.3-1.1,0.5c-0.4,0.2-0.8,0.4-1.1,0.5c-0.4,0.2-0.7,0.3-1,0.5
				c-0.3,0.1-0.6,0.3-0.8,0.4c0,0-0.1,0-0.1,0s0-0.1,0-0.1l0.5-1.1c0-0.1,0.1-0.1,0.1-0.1c0,0,0.1,0,0.1-0.1l3.9-1.7
				c0.1,0,0.2,0,0.1,0.1l-0.4,1C175.2,16.3,175.2,16.4,175.1,16.4z"/>
			<path class="st0" d="M169.3,26.8c0.3,0,0.6,0,0.9,0c0.3,0,0.6-0.1,0.8-0.1c0.3-0.1,0.5-0.2,0.7-0.3c0.2-0.1,0.4-0.3,0.5-0.5
				c0.2-0.4,0.4-0.8,0.6-1.2c0.2-0.4,0.4-0.8,0.6-1.1c0.1-0.1,0.2-0.3,0.3-0.5c0.1-0.2,0.3-0.3,0.4-0.5c0.2-0.1,0.3-0.3,0.5-0.4
				c0.2-0.1,0.3-0.1,0.5-0.1c0.3,0,0.5,0.2,0.8,0.4c0.3,0.3,0.5,0.6,0.7,0.9c0.2,0.4,0.3,0.7,0.5,1.1c0.1,0.4,0.2,0.7,0.1,0.9
				c0,0.2,0,0.3-0.1,0.5c0,0.2-0.1,0.3-0.1,0.5c-0.1,0.2-0.1,0.3-0.2,0.4c-0.1,0.1-0.2,0.2-0.4,0.3c-0.3,0.1-0.6,0.1-1,0
				c-0.4-0.1-0.7-0.2-1-0.3c-0.3-0.1-0.6-0.2-0.8-0.3c-0.3-0.1-0.5-0.3-0.8-0.5c-0.3,0.8-0.7,1.4-1.3,1.8c-0.6,0.4-1.3,0.6-2.1,0.6
				h-0.2c-0.2,0-0.4-0.1-0.5-0.3c-0.1-0.2-0.2-0.4-0.2-0.6s0.1-0.4,0.2-0.6c0.1-0.2,0.3-0.3,0.5-0.3H169.3z M175.5,24.5
				c-0.1-0.2-0.3-0.3-0.4-0.5c-0.2-0.2-0.4-0.2-0.7-0.2c-0.2,0-0.4,0.1-0.6,0.3c-0.2,0.2-0.3,0.4-0.4,0.6c0.2,0.2,0.4,0.3,0.6,0.4
				c0.2,0.1,0.4,0.2,0.6,0.3c0.2,0.1,0.5,0.1,0.7,0.1c0.2,0,0.5,0,0.7,0c0,0,0-0.1,0-0.2c0-0.1-0.1-0.2-0.1-0.3
				c-0.1-0.1-0.1-0.2-0.2-0.3C175.6,24.6,175.6,24.5,175.5,24.5z"/>
			<path class="st0" d="M190.6,34.3c-0.7,0.2-1.4,0.4-2.1,0.7c-0.7,0.2-1.3,0.4-2,0.6c-0.1,0-0.1,0-0.1-0.1l0.4-0.8
				c0,0,0-0.1,0.1-0.1c0,0,0,0,0.1-0.1c0.2-0.1,0.4-0.2,0.8-0.3c0.3-0.1,0.7-0.2,1-0.3c0.4-0.1,0.7-0.2,1.1-0.4
				c0.4-0.1,0.8-0.2,1.1-0.3c0.1,0,0.1,0,0.1,0c0,0,0,0,0,0.1l-0.5,0.8C190.8,34.2,190.7,34.2,190.6,34.3
				C190.7,34.2,190.7,34.3,190.6,34.3z"/>
			<path class="st0" d="M193.5,27.3c-0.1,0.7-0.4,1.3-0.7,1.8c-0.4,0.5-0.9,0.9-1.4,1.3c-0.6,0.3-1.1,0.6-1.8,0.8
				c-0.6,0.2-1.3,0.3-1.9,0.3c-0.6,0-1.1-0.1-1.6-0.3c-0.5-0.2-0.9-0.4-1.3-0.8c-0.4-0.3-0.7-0.7-0.9-1.2c-0.2-0.5-0.3-1-0.3-1.7
				c0-0.7,0.1-1.3,0.3-1.9c0.2-0.6,0.5-1.2,0.9-1.8c0-0.1,0.1-0.1,0.1-0.1c0,0,0.1,0,0.1,0.1c0,0,0,0.1,0,0.1c0,0,0,0.1,0,0.1
				c-0.3,0.7-0.6,1.4-0.7,2c-0.1,0.7,0,1.3,0.2,1.8c0.2,0.6,0.6,1,1.1,1.4c0.5,0.4,1.2,0.5,2.1,0.5c0.5,0,0.9,0,1.4-0.1
				c0.5-0.1,0.9-0.2,1.4-0.4c0.5-0.2,0.9-0.4,1.3-0.7c0.4-0.3,0.7-0.6,1-0.9c0-0.4,0-0.9-0.1-1.3c-0.1-0.5-0.2-0.9-0.4-1.4
				c-0.2-0.5-0.4-0.9-0.6-1.3c-0.2-0.4-0.4-0.8-0.7-1.2c0.1-0.3,0.2-0.5,0.2-0.7c0.1-0.2,0.2-0.5,0.2-0.7c0-0.1,0.1-0.1,0.1-0.1
				c0,0,0.1,0.1,0.1,0.1c0.3,0.5,0.6,1,0.9,1.5c0.3,0.5,0.5,1.1,0.6,1.6c0.2,0.6,0.3,1.1,0.3,1.7C193.6,26.2,193.6,26.7,193.5,27.3z
				 M188.6,17.9l1.3,1.1c0,0,0,0.1,0,0.1c0,0,0,0.1,0,0.1l-0.9,1.1c0,0.1-0.1,0.1-0.2,0l-1.3-1.1c0,0,0-0.1,0-0.2l0.9-1.1
				C188.5,17.9,188.5,17.9,188.6,17.9z"/>
			<path class="st0" d="M201.4,10.7c0,0,0,0.1,0,0.1c0,0.1,0,0.1,0,0.2c0,0.1-0.1,0.2-0.1,0.2c0,0.1-0.1,0.2-0.1,0.2
				c-0.2,0.3-0.4,0.5-0.6,0.8c-0.2,0.2-0.5,0.4-0.8,0.5c-0.3,0.1-0.5,0.2-0.8,0.3c-0.3,0.1-0.6,0.1-0.9,0.1c-0.4,0-0.8,0-1.2-0.1
				c-0.4-0.1-0.7-0.2-1-0.4c-0.1-0.1-0.2-0.1-0.2,0c0,0.1-0.1,0.1-0.1,0.2c-0.1,0.1-0.1,0.2-0.2,0.3c-0.1,0.1-0.1,0.2-0.2,0.2
				c-0.1,0.1-0.1,0.1-0.2,0.1c-0.1,0-0.1,0-0.1-0.1c0-0.1,0-0.2,0-0.2c0-0.1,0-0.2,0.1-0.4c0-0.2,0.1-0.3,0.2-0.5
				c0.1-0.2,0.1-0.4,0.2-0.5c0.1-0.2,0.1-0.3,0.2-0.4c0-0.1,0.1-0.1,0.3,0c0.4,0.2,0.8,0.3,1.2,0.4c0.4,0.1,0.8,0.2,1.2,0.1
				c0.3,0,0.5,0,0.8-0.1c0.3,0,0.5-0.1,0.7-0.2c0.2-0.1,0.5-0.2,0.7-0.3c0.2-0.1,0.4-0.3,0.6-0.5C201.3,10.7,201.3,10.7,201.4,10.7z
				 M197.7,14.5c0.1,0,0.2,0.1,0.2,0.4c0,0.3,0,0.5,0,0.8c0,0.3,0,0.5,0.1,0.8c0.1,0.6,0.2,1.3,0.3,2c0.1,0.7,0.2,1.4,0.3,2
				c0.1,0.7,0.2,1.4,0.3,2c0.1,0.7,0.2,1.3,0.2,2c0,0.3,0,0.5,0.1,0.9c0,0.3,0,0.7,0,1c0,0.3-0.1,0.7-0.1,1
				c-0.1,0.3-0.1,0.6-0.3,0.8c-0.1,0.1-0.1,0.2-0.2,0.2c-0.1,0-0.1,0-0.1-0.1c0-0.6-0.1-1.3-0.2-1.9c-0.1-0.6-0.1-1.3-0.2-1.9
				c-0.1-0.7-0.2-1.4-0.3-2c-0.1-0.7-0.2-1.3-0.3-2c-0.1-0.7-0.2-1.3-0.3-2c-0.1-0.7-0.2-1.3-0.3-2c0-0.2,0.1-0.3,0.1-0.5
				c0-0.2,0.1-0.4,0.2-0.5c0.2-0.5,0.3-0.7,0.3-0.8C197.6,14.5,197.6,14.5,197.7,14.5z"/>
			<path class="st0" d="M205.4,17.4c0,0.2,0,0.5-0.1,0.7c-0.1,0.2-0.2,0.4-0.3,0.6c-0.1,0.2-0.3,0.3-0.5,0.4
				c-0.2,0.1-0.5,0.2-0.8,0.2c-0.4,0-0.7-0.1-0.9-0.4c-0.3-0.2-0.4-0.6-0.4-0.9c0-0.2,0-0.4,0.1-0.7c0.1-0.3,0.2-0.6,0.3-0.8
				c0.1-0.3,0.3-0.5,0.5-0.7c0.2-0.2,0.5-0.3,0.7-0.3c0.3,0,0.5,0,0.7,0.2c0.2,0.1,0.3,0.3,0.4,0.5c0.1,0.2,0.2,0.4,0.2,0.7
				C205.4,17.1,205.4,17.3,205.4,17.4z M202.9,17.7c0,0.1,0,0.2,0.1,0.3c0.1,0.1,0.1,0.1,0.2,0.2c0.1,0,0.2,0.1,0.3,0.1
				c0.1,0,0.2,0,0.3,0c0.2,0,0.4,0,0.6-0.1c0.2-0.1,0.3-0.2,0.5-0.3c0-0.1,0-0.3,0-0.4c0-0.1-0.1-0.3-0.2-0.4
				c-0.1-0.1-0.2-0.2-0.3-0.3c-0.1-0.1-0.3-0.1-0.5-0.1c-0.1,0-0.2,0.1-0.3,0.2c-0.1,0.1-0.2,0.2-0.3,0.3c-0.1,0.1-0.2,0.2-0.2,0.3
				C202.9,17.5,202.9,17.6,202.9,17.7z"/>
			<path class="st0" d="M205.5,25.6c0-0.1,0.1-0.1,0.2,0c0.2,0.3,0.4,0.5,0.7,0.6c0.2,0.2,0.5,0.3,0.7,0.3c0.1,0,0.2,0.1,0.4,0.1
				c0.1,0,0.2,0,0.4,0.1c0.1,0,0.3,0,0.4,0c0.2,0,0.3,0,0.5,0h0.2c0.2,0,0.4,0.1,0.5,0.3c0.1,0.2,0.2,0.4,0.2,0.6
				c0,0.2-0.1,0.4-0.2,0.6c-0.1,0.2-0.3,0.3-0.5,0.3h-0.2c-0.2,0-0.5,0-0.7,0c-0.2,0-0.5,0-0.7-0.1c-0.1,0.4-0.2,0.8-0.3,1.1
				c-0.1,0.3-0.2,0.7-0.3,1c-0.3,0.7-0.6,1.3-0.9,1.8c-0.3,0.5-0.8,1-1.5,1.3c-0.4,0.2-0.7,0.4-1.1,0.5c-0.4,0.1-0.8,0.2-1.2,0.2
				c-0.3,0-0.5,0-0.8,0c-0.2,0-0.5,0-0.8-0.1c-0.3,0-0.5-0.1-0.8-0.2c-0.3-0.1-0.6-0.2-0.9-0.3c-0.1,0-0.1-0.1-0.2-0.1
				c0,0,0-0.1,0-0.2c0-0.1,0.2-0.1,0.4-0.1c0.4,0,0.8,0,1.2,0c0.4,0,0.7-0.1,1.1-0.1c0.3-0.1,0.7-0.2,1-0.3c0.3-0.1,0.7-0.3,1.1-0.5
				c0.4-0.2,0.8-0.5,1.2-0.8c0.3-0.3,0.6-0.6,0.9-1c0.3-0.3,0.5-0.7,0.6-1.1c0.2-0.4,0.3-0.8,0.4-1.2c-0.3-0.1-0.5-0.3-0.8-0.5
				c-0.3-0.2-0.5-0.4-0.6-0.6L205.5,25.6z"/>
			<path class="st0" d="M210.9,15.9c0.2-0.1,0.5-0.3,0.7-0.4c0.2-0.1,0.5-0.3,0.7-0.4c0.2-0.2,0.4-0.3,0.7-0.5
				c0.2-0.2,0.4-0.4,0.6-0.6c-0.2-0.1-0.4-0.2-0.6-0.3c-0.2-0.1-0.4-0.3-0.5-0.4c-0.1-0.1-0.1-0.2-0.1-0.3c0-0.1,0-0.2,0-0.3
				c0.1-0.2,0.1-0.4,0.2-0.6c0.1-0.2,0.2-0.4,0.4-0.5c0.1-0.2,0.3-0.3,0.5-0.4c0.2-0.1,0.4-0.2,0.5-0.1c0.2,0,0.4,0.1,0.5,0.3
				c0.1,0.2,0.2,0.4,0.2,0.7c0,0.3,0,0.5,0,0.8c0,0.3,0,0.4-0.1,0.5c0,0,0,0.1,0,0.1c0.1,0,0.1,0.1,0.2,0.1c0,0,0.1,0.1,0.1,0.2
				c0,0.1,0.1,0.2,0,0.4c0,0.2-0.1,0.3-0.1,0.3c-0.1,0.1-0.1,0.1-0.2,0.1c0,0-0.1,0-0.1-0.1c0,0-0.1-0.1-0.1-0.1
				c0,0-0.1-0.1-0.1-0.1c-0.2,0.2-0.4,0.5-0.6,0.7c-0.2,0.2-0.5,0.4-0.7,0.6c-0.3,0.2-0.5,0.3-0.8,0.5c-0.3,0.1-0.6,0.3-0.9,0.4
				c-0.1,0-0.2,0.1-0.4,0.1c-0.1,0-0.2,0-0.2,0c0,0,0-0.1,0.1-0.2C210.8,16,210.8,15.9,210.9,15.9z M212.9,12.3
				c0.2,0.2,0.3,0.4,0.5,0.5c0.2,0.1,0.4,0.2,0.6,0.2h0c0-0.1,0-0.1,0-0.2c0-0.1,0-0.2,0-0.3c0-0.1,0-0.2,0-0.3
				c0-0.1-0.1-0.2-0.1-0.2c-0.1,0-0.1-0.1-0.2-0.1c-0.1,0-0.2,0-0.3,0.1c-0.1,0-0.2,0.1-0.3,0.1C213,12.1,213,12.2,212.9,12.3z"/>
			<path class="st0" d="M214.5,21.6c0.3,0,0.5,0.1,0.7,0.4c0.2,0.2,0.3,0.5,0.4,0.8c0.1,0.3,0.1,0.7,0.1,1.1c0,0.4,0,0.7-0.1,1
				c-0.1,0.3-0.2,0.6-0.3,0.9c-0.2,0.3-0.3,0.5-0.5,0.8c0.1,0.1,0.3,0.1,0.4,0.2c0.2,0,0.4,0.1,0.6,0.1c0.2,0,0.4,0,0.6,0
				s0.4,0,0.6,0h0.2c0.2,0,0.3,0.1,0.4,0.1c0.1,0.1,0.2,0.2,0.2,0.3c0,0.1,0.1,0.3,0.1,0.4c0,0.1,0,0.3-0.1,0.4
				c0,0.1-0.1,0.2-0.2,0.3c-0.1,0.1-0.2,0.1-0.4,0.1h-0.2c-0.8,0-1.6-0.1-2.3-0.3c-0.7-0.2-1.3-0.4-1.9-0.7
				c-0.3,0.2-0.6,0.3-0.9,0.4c-0.3,0.1-0.6,0.2-0.9,0.3c-0.3,0.1-0.7,0.2-1,0.2c-0.4,0-0.7,0.1-1.2,0.1h-0.2c-0.2,0-0.3,0-0.4-0.1
				c-0.1-0.1-0.2-0.2-0.2-0.3c0-0.1-0.1-0.3-0.1-0.4c0-0.1,0-0.3,0.1-0.4c0-0.1,0.1-0.2,0.2-0.3c0.1-0.1,0.2-0.1,0.4-0.1h0.2
				c0.2,0,0.5,0,0.7,0c0.2,0,0.4,0,0.6-0.1c0.2,0,0.4-0.1,0.7-0.1c0.2,0,0.5-0.1,0.7-0.2c-0.1-0.1-0.1-0.3-0.2-0.5
				c0-0.2,0-0.4,0-0.6c0-0.5,0.2-1,0.4-1.4c0.2-0.5,0.5-0.9,0.8-1.2c0.3-0.4,0.7-0.6,1-0.8C213.8,21.7,214.2,21.6,214.5,21.6z
				 M214.9,19.6C214.8,19.7,214.8,19.7,214.9,19.6c-0.1,0.1-0.1,0.1-0.2,0l-1.2-1l-0.8,1.1c0,0.1-0.1,0.1-0.2,0l-1.3-1
				c0,0-0.1-0.1,0-0.1l0.8-1.2c0,0,0.1-0.1,0.1-0.1c0,0,0,0,0.1,0l1.3,1l0.9-1.1c0-0.1,0.1-0.1,0.1,0l1.3,1.1c0,0,0,0.1,0,0.2
				L214.9,19.6z M214.9,24.8c0-0.2,0-0.4-0.1-0.6c-0.1-0.2-0.2-0.4-0.3-0.6c-0.1-0.1-0.2-0.2-0.3-0.2c-0.1,0-0.2,0-0.3,0
				c-0.1,0-0.3,0.1-0.5,0.1c-0.2,0.1-0.4,0.2-0.5,0.3c-0.2,0.1-0.3,0.2-0.5,0.4c-0.1,0.2-0.2,0.3-0.3,0.5c0,0.2,0.1,0.3,0.1,0.5
				c0.1,0.1,0.2,0.3,0.3,0.4c0.1,0.1,0.2,0.2,0.3,0.3c0.1,0.1,0.2,0.1,0.3,0.1c0.1,0,0.2-0.1,0.4-0.1c0.2-0.1,0.4-0.2,0.5-0.3
				c0.2-0.1,0.4-0.2,0.5-0.3C214.7,25,214.8,24.9,214.9,24.8z"/>
			<path class="st0" d="M220.3,10.5c0,0.2,0,0.5-0.1,0.7c-0.1,0.2-0.2,0.4-0.3,0.6c-0.1,0.2-0.3,0.3-0.5,0.4
				c-0.2,0.1-0.5,0.2-0.8,0.2c-0.4,0-0.7-0.1-0.9-0.4c-0.3-0.2-0.4-0.6-0.4-0.9c0-0.2,0-0.4,0.1-0.7c0.1-0.3,0.2-0.6,0.3-0.8
				c0.1-0.3,0.3-0.5,0.5-0.7c0.2-0.2,0.5-0.3,0.7-0.3c0.3,0,0.5,0,0.7,0.2c0.2,0.1,0.3,0.3,0.4,0.5c0.1,0.2,0.2,0.4,0.2,0.7
				C220.3,10.1,220.3,10.3,220.3,10.5z M217.8,10.7c0,0.1,0,0.2,0.1,0.3c0.1,0.1,0.1,0.1,0.2,0.2c0.1,0,0.2,0.1,0.3,0.1
				c0.1,0,0.2,0,0.3,0c0.2,0,0.4,0,0.6-0.1c0.2-0.1,0.3-0.2,0.5-0.3c0-0.1,0-0.3,0-0.4c0-0.1-0.1-0.3-0.2-0.4
				c-0.1-0.1-0.2-0.2-0.3-0.3c-0.1-0.1-0.3-0.1-0.5-0.1c-0.1,0-0.2,0.1-0.3,0.2c-0.1,0.1-0.2,0.2-0.3,0.3c-0.1,0.1-0.2,0.2-0.2,0.3
				C217.9,10.5,217.8,10.6,217.8,10.7z"/>
			<path class="st0" d="M219.5,14C219.5,13.9,219.5,13.9,219.5,14c0.1-0.1,0.2-0.1,0.2,0c0.1,0.3,0.3,0.7,0.5,1.1
				c0.2,0.4,0.4,0.6,0.8,0.8c-0.2,0.3-0.3,0.6-0.4,0.8c-0.1,0.2-0.1,0.4-0.1,0.6l1,8.2c0,0.2,0,0.4-0.1,0.6c0,0.2-0.1,0.4-0.2,0.6
				c-0.1,0.2-0.1,0.4-0.2,0.6c-0.1,0.2-0.2,0.3-0.3,0.4c-0.2,0.2-0.5,0.3-0.8,0.5c-0.3,0.1-0.6,0.2-1,0.2c-0.3,0-0.7,0.1-1,0.1
				c-0.3,0-0.6,0-0.9,0h-0.2c-0.2,0-0.4-0.1-0.5-0.3c-0.1-0.2-0.2-0.4-0.2-0.6s0.1-0.4,0.2-0.6c0.1-0.2,0.3-0.3,0.5-0.3h0.2
				c0.1,0,0.4,0,0.8,0s0.8,0,1.2-0.1c0.4,0,0.8-0.1,1.1-0.2c0.3-0.1,0.6-0.2,0.6-0.4c-0.2-1.5-0.4-3-0.6-4.5c-0.2-1.5-0.4-3-0.6-4.5
				c0-0.3-0.1-0.6-0.2-0.9c-0.1-0.3-0.2-0.6-0.4-0.8c0-0.1-0.1-0.1-0.1-0.2c0,0,0-0.1,0-0.2c0.1-0.2,0.2-0.4,0.4-0.6
				C219.2,14.4,219.4,14.2,219.5,14z"/>
			<path class="st0" d="M227.8,26.8c0.2,0,0.4,0.1,0.5,0.3c0.1,0.2,0.2,0.4,0.2,0.6c0,0.2,0,0.4-0.2,0.6c-0.1,0.2-0.3,0.3-0.5,0.3
				c0,0,0,0-0.1,0c0,0-0.1,0-0.1,0c-0.6,0-1.2-0.1-1.6-0.4c-0.4-0.2-0.7-0.6-1-0.9c-0.3-0.5-0.5-1-0.6-1.5c-0.1-0.5-0.2-1.1-0.2-1.6
				c-0.1-0.6-0.1-1.2-0.2-1.9c-0.1-0.6-0.1-1.2-0.2-1.9c-0.1-0.6-0.2-1.3-0.3-1.9c-0.1-0.7-0.3-1.4-0.5-2.1c0-0.1,0-0.1,0-0.1
				c0,0,0-0.1,0-0.1l0.6-1.4c0,0,0.1-0.1,0.1-0.1c0,0,0.1,0,0.1,0.1c0.1,0.4,0.2,0.8,0.3,1.2c0.1,0.4,0.2,0.9,0.2,1.3
				c0.1,0.5,0.1,1,0.2,1.6c0.1,0.6,0.1,1.2,0.2,1.9c0.1,0.5,0.1,1,0.2,1.5c0,0.5,0.1,1,0.2,1.5c0,0.4,0.1,0.8,0.2,1.2
				c0.1,0.4,0.2,0.8,0.4,1.1c0.2,0.3,0.4,0.5,0.7,0.7c0.3,0.2,0.8,0.2,1.3,0.2C227.6,26.8,227.7,26.8,227.8,26.8
				C227.7,26.8,227.7,26.8,227.8,26.8z"/>
			<path class="st0" d="M231.6,35.1c-0.7,0.2-1.4,0.4-2.1,0.7c-0.7,0.2-1.3,0.4-2,0.6c-0.1,0-0.1,0-0.1-0.1l0.4-0.8
				c0,0,0-0.1,0.1-0.1c0,0,0,0,0.1-0.1c0.2-0.1,0.4-0.2,0.8-0.3c0.3-0.1,0.7-0.2,1-0.3c0.4-0.1,0.7-0.2,1.1-0.4
				c0.4-0.1,0.8-0.2,1.1-0.3c0.1,0,0.1,0,0.1,0c0,0,0,0,0,0.1l-0.5,0.8C231.7,35,231.7,35,231.6,35.1
				C231.6,35.1,231.6,35.1,231.6,35.1z"/>
			<path class="st0" d="M230.4,22.6c0.2,0.2,0.4,0.4,0.6,0.7c0.2,0.2,0.3,0.5,0.4,0.7s0.2,0.5,0.3,0.8c0.1,0.3,0.1,0.5,0.1,0.8
				c0,0.1,0,0.3,0,0.4c0,0.2,0,0.3-0.1,0.5c0,0.2-0.1,0.3-0.1,0.4c0,0.1-0.1,0.3-0.2,0.4c-0.2,0.3-0.4,0.5-0.7,0.6
				c-0.3,0.2-0.6,0.3-1,0.4c-0.4,0.1-0.7,0.1-1.1,0.2c-0.4,0-0.7,0-1,0h-0.2c-0.2,0-0.4-0.1-0.5-0.3c-0.1-0.2-0.2-0.4-0.2-0.6
				c0-0.2,0.1-0.4,0.2-0.6c0.1-0.2,0.3-0.3,0.5-0.3h0.2c0.3,0,0.7,0,1,0c0.3,0,0.7,0,1-0.1c0.3,0,0.6-0.1,0.8-0.1
				c0.2-0.1,0.4-0.1,0.6-0.2c0.1,0,0.1-0.1,0.1-0.2c0-0.1,0-0.1,0-0.2c-0.1-0.2-0.2-0.4-0.2-0.5c-0.1-0.2-0.2-0.3-0.3-0.5
				c-0.1-0.2-0.2-0.3-0.4-0.4c-0.1-0.1-0.3-0.3-0.4-0.4l0.4-1.5c0-0.1,0.1-0.1,0.1-0.1S230.4,22.6,230.4,22.6z M229.3,30.6l1.3,1.1
				c0.1,0,0.1,0.1,0,0.2l-0.9,1.1c0,0.1-0.1,0.1-0.2,0l-1.3-1.1c-0.1,0-0.1-0.1,0-0.2l0.9-1.1C229.2,30.6,229.2,30.5,229.3,30.6z"/>
			<path class="st0" d="M243.1,17.4c0,0.2,0,0.5-0.1,0.7c-0.1,0.2-0.2,0.4-0.3,0.6c-0.1,0.2-0.3,0.3-0.5,0.4
				c-0.2,0.1-0.5,0.2-0.8,0.2c-0.4,0-0.7-0.1-0.9-0.4c-0.3-0.2-0.4-0.6-0.4-0.9c0-0.2,0-0.4,0.1-0.7c0.1-0.3,0.2-0.6,0.3-0.8
				c0.1-0.3,0.3-0.5,0.5-0.7c0.2-0.2,0.5-0.3,0.7-0.3c0.3,0,0.5,0,0.7,0.2c0.2,0.1,0.3,0.3,0.4,0.5c0.1,0.2,0.2,0.4,0.2,0.7
				C243.1,17.1,243.1,17.3,243.1,17.4z M240.6,17.7c0,0.1,0,0.2,0.1,0.3c0.1,0.1,0.1,0.1,0.2,0.2c0.1,0,0.2,0.1,0.3,0.1
				c0.1,0,0.2,0,0.3,0c0.2,0,0.4,0,0.6-0.1c0.2-0.1,0.3-0.2,0.5-0.3c0-0.1,0-0.3,0-0.4c0-0.1-0.1-0.3-0.2-0.4
				c-0.1-0.1-0.2-0.2-0.3-0.3c-0.1-0.1-0.3-0.1-0.5-0.1c-0.1,0-0.2,0.1-0.3,0.2c-0.1,0.1-0.2,0.2-0.3,0.3c-0.1,0.1-0.2,0.2-0.2,0.3
				C240.6,17.5,240.6,17.6,240.6,17.7z"/>
			<path class="st0" d="M243.2,25.6c0-0.1,0.1-0.1,0.2,0c0.2,0.3,0.4,0.5,0.7,0.6c0.2,0.2,0.5,0.3,0.7,0.3c0.1,0,0.2,0.1,0.4,0.1
				c0.1,0,0.2,0,0.4,0.1c0.1,0,0.3,0,0.4,0c0.2,0,0.3,0,0.5,0h0.2c0.2,0,0.4,0.1,0.5,0.3c0.1,0.2,0.2,0.4,0.2,0.6
				c0,0.2-0.1,0.4-0.2,0.6c-0.1,0.2-0.3,0.3-0.5,0.3h-0.2c-0.2,0-0.5,0-0.7,0c-0.2,0-0.5,0-0.7-0.1c-0.1,0.4-0.2,0.8-0.3,1.1
				c-0.1,0.3-0.2,0.7-0.3,1c-0.3,0.7-0.6,1.3-0.9,1.8c-0.3,0.5-0.8,1-1.5,1.3c-0.4,0.2-0.7,0.4-1.1,0.5c-0.4,0.1-0.8,0.2-1.2,0.2
				c-0.3,0-0.5,0-0.8,0c-0.2,0-0.5,0-0.8-0.1c-0.3,0-0.5-0.1-0.8-0.2c-0.3-0.1-0.6-0.2-0.9-0.3c-0.1,0-0.1-0.1-0.2-0.1
				c0,0,0-0.1,0-0.2c0-0.1,0.2-0.1,0.4-0.1c0.4,0,0.8,0,1.2,0c0.4,0,0.7-0.1,1.1-0.1c0.3-0.1,0.7-0.2,1-0.3c0.3-0.1,0.7-0.3,1.1-0.5
				c0.4-0.2,0.8-0.5,1.2-0.8c0.3-0.3,0.6-0.6,0.9-1c0.3-0.3,0.5-0.7,0.6-1.1s0.3-0.8,0.4-1.2c-0.3-0.1-0.5-0.3-0.8-0.5
				c-0.3-0.2-0.5-0.4-0.6-0.6L243.2,25.6z"/>
			<path class="st0" d="M250.4,11.7c-0.2,0.3-0.3,0.6-0.5,0.7c-0.2,0.2-0.5,0.3-0.8,0.3c-0.2,0-0.4-0.1-0.6-0.2
				c-0.2-0.1-0.3-0.4-0.3-0.7c0-0.1,0-0.3,0-0.4c0-0.2,0.1-0.3,0.1-0.4c0.1-0.1,0.1-0.2,0.2-0.3c0.1-0.1,0.2-0.2,0.2-0.2
				c0.1,0,0.1,0.1,0,0.2c0,0.1-0.1,0.2-0.1,0.3c0,0.1,0,0.2,0,0.3c0,0.1,0,0.2,0,0.3c0,0.1,0.1,0.1,0.1,0.2c0.1,0.1,0.2,0.1,0.3,0.1
				c0.1,0,0.2,0,0.4-0.1c0.1,0,0.2-0.1,0.3-0.2c0.1-0.1,0.2-0.2,0.3-0.3c0.1-0.1,0.2-0.2,0.2-0.4c0-0.2,0.1-0.3,0.1-0.4
				c0-0.1,0-0.2,0.1-0.3c0-0.1,0.1-0.1,0.2-0.1c0,0,0,0,0,0.1c0,0,0,0.1,0,0.1c0,0,0,0.1,0,0.1c0,0,0,0.1,0,0.1c0,0.2,0,0.4,0.1,0.5
				c0.1,0.1,0.2,0.2,0.4,0.2c0.1,0,0.2,0,0.4,0c0.2,0,0.3-0.1,0.4-0.2c0,0,0-0.1,0-0.1c0-0.1,0-0.1,0-0.2c0-0.1,0-0.1-0.1-0.2
				c0-0.1-0.1-0.1-0.1-0.1l0.4-0.8c0.1,0,0.1,0.1,0.2,0.2c0,0.1,0.1,0.3,0.1,0.4c0,0.2,0,0.3,0,0.5c0,0.2,0,0.3-0.1,0.4
				c-0.1,0.3-0.2,0.5-0.3,0.7c-0.1,0.2-0.4,0.4-0.7,0.4c-0.3,0-0.5,0-0.7-0.1C250.6,12,250.5,11.9,250.4,11.7z"/>
			<path class="st0" d="M251.6,31.3c-0.7,0.2-1.4,0.4-2.1,0.7c-0.7,0.2-1.3,0.4-2,0.6c-0.1,0-0.1,0-0.1-0.1l0.4-0.8
				c0,0,0-0.1,0.1-0.1c0,0,0,0,0.1-0.1c0.2-0.1,0.4-0.2,0.8-0.3c0.3-0.1,0.7-0.2,1-0.3c0.4-0.1,0.7-0.2,1.1-0.4
				c0.4-0.1,0.8-0.2,1.1-0.3c0.1,0,0.1,0,0.1,0c0,0,0,0,0,0.1l-0.5,0.8C251.7,31.2,251.7,31.2,251.6,31.3
				C251.6,31.3,251.6,31.3,251.6,31.3z"/>
			<path class="st0" d="M246.2,26.8h0.2c0.6,0,1.2,0,1.8,0c0.6,0,1.2-0.1,1.8-0.2c0.3-0.1,0.7-0.1,1-0.3c0.4-0.1,0.7-0.3,0.9-0.5
				c0-0.6-0.2-1.1-0.5-1.6c-0.3-0.5-0.6-1-1-1.4c-0.4-0.4-1.2-1.2-2.4-2.2c-0.1,0-0.1,0-0.2,0.1c0,0.1-0.1,0.1-0.1,0.1
				c-0.1,0-0.2,0-0.3-0.1c-0.1,0-0.3-0.1-0.4-0.2c-0.1-0.1-0.3-0.2-0.4-0.3c-0.1-0.1-0.2-0.2-0.2-0.3c-0.1-0.2-0.1-0.4-0.2-0.6
				c0-0.2-0.1-0.5,0-0.7c0-0.6,0.2-1.2,0.6-1.7c0.3-0.5,0.8-0.8,1.3-1.1c0.5-0.3,1.2-0.7,2-1c0.8-0.4,1.6-0.8,2.5-1.2
				c0.8-0.4,1.6-0.7,2.4-1.1c0.8-0.3,1.4-0.6,1.9-0.8c0.1,0,0.1,0,0.1,0c-0.1,0.3-0.2,0.6-0.3,0.8c-0.1,0.2-0.2,0.5-0.3,0.8
				c-0.2,0.1-0.5,0.2-0.9,0.3c-0.3,0.1-1,0.4-1.8,0.8c-0.9,0.4-1.6,0.7-2,0.9c-0.5,0.2-1.2,0.6-2.2,1.1c-1,0.5-1.6,0.8-1.7,0.8
				c-0.4,0.2-0.7,0.4-0.8,0.6c0,0.1,0,0.1,0.1,0.2c0.1,0,0.1,0.1,0.2,0.1c0.5,0.3,1,0.7,1.5,1.1c0.5,0.4,1.1,0.9,1.6,1.5
				c0.5,0.6,0.9,1.1,1.3,1.8c0.4,0.6,0.6,1.3,0.7,2c0,0.3,0,0.5,0,0.8c0,0.3-0.1,0.5-0.2,0.8c-0.1,0.3-0.2,0.5-0.3,0.7
				c-0.1,0.2-0.3,0.4-0.5,0.6c-0.3,0.2-0.6,0.4-1,0.5c-0.4,0.1-0.8,0.2-1.2,0.3c-0.4,0.1-0.9,0.1-1.4,0.1c-0.5,0-1,0-1.5,0h-0.2
				c-0.2,0-0.4-0.1-0.5-0.3c-0.1-0.2-0.2-0.4-0.2-0.6s0.1-0.4,0.2-0.6C245.8,26.9,246,26.8,246.2,26.8z"/>
			<path class="st0" d="M263.6,12.9c-0.4,0.2-0.7,0.3-1.1,0.5c-0.4,0.2-0.8,0.4-1.1,0.5c-0.4,0.2-0.7,0.3-1,0.5
				c-0.3,0.1-0.6,0.3-0.8,0.4c0,0-0.1,0-0.1,0c0,0,0-0.1,0-0.1l0.5-1.1c0-0.1,0.1-0.1,0.1-0.1c0,0,0.1,0,0.1-0.1l3.9-1.7
				c0.1,0,0.2,0,0.1,0.1l-0.4,1C263.7,12.8,263.7,12.9,263.6,12.9z"/>
			<path class="st0" d="M263.1,21.5l0.3-1.3c0-0.1,0.1-0.1,0.1-0.1c0.1,0,0.1,0,0.1,0.1l1.1,3.9c0.1,0.5,0.3,1,0.5,1.3
				c0.2,0.4,0.5,0.7,0.9,1c0.2,0.2,0.5,0.3,0.8,0.3c0.3,0.1,0.6,0.1,1,0.1h0.2c0.2,0,0.4,0.1,0.5,0.3c0.1,0.2,0.2,0.4,0.2,0.6
				s-0.1,0.4-0.2,0.6c-0.1,0.2-0.3,0.3-0.5,0.3H268c-0.4,0-0.8,0-1.1-0.1c-0.3-0.1-0.7-0.2-1-0.4c-0.3-0.2-0.6-0.5-0.8-0.8
				c-0.2-0.3-0.5-0.8-0.7-1.3c-0.2,0.6-0.5,1-0.9,1.4c-0.3,0.3-0.7,0.5-1.2,0.7c-0.5,0.1-0.9,0.2-1.4,0.3c-0.4,0.1-0.9,0.1-1.2,0
				c-0.4,0-0.7-0.2-0.9-0.3c-0.1-0.1-0.2-0.2-0.2-0.4c0-0.2-0.1-0.4-0.1-0.5c0-0.2,0-0.4,0-0.6c0-0.2,0.1-0.3,0.1-0.5
				c0,0,0.1-0.1,0.1-0.1c0,0,0.1,0,0.1,0.1c0.1,0.2,0.3,0.4,0.4,0.5c0.2,0.1,0.4,0.1,0.6,0.2c0.3,0,0.7,0,1.2,0
				c0.4,0,0.9-0.1,1.3-0.3c0.4-0.1,0.8-0.3,1.1-0.5c0.3-0.2,0.6-0.4,0.7-0.7L263.1,21.5z M262.3,15.9l1.3,1.1c0.1,0,0.1,0.1,0,0.2
				l-0.9,1.1c0,0.1-0.1,0.1-0.2,0l-1.3-1.1c-0.1,0-0.1-0.1,0-0.2l0.9-1.1C262.2,15.8,262.2,15.8,262.3,15.9z"/>
			<path class="st0" d="M272.2,13.2c-0.4,0.2-0.7,0.3-1.1,0.5c-0.4,0.2-0.8,0.4-1.1,0.5c-0.4,0.2-0.7,0.3-1,0.5
				c-0.3,0.1-0.6,0.3-0.8,0.4c0,0-0.1,0-0.1,0c0,0,0-0.1,0-0.1l0.5-1.1c0-0.1,0.1-0.1,0.1-0.1c0,0,0.1,0,0.1-0.1l3.9-1.7
				c0.1,0,0.2,0,0.1,0.1l-0.4,1C272.3,13.1,272.2,13.1,272.2,13.2z"/>
			<path class="st0" d="M268,26.8c0.2,0,0.5,0,1,0c0.4,0,0.9,0,1.4-0.1c0.5-0.1,1-0.2,1.4-0.3c0.4-0.2,0.8-0.4,1-0.7
				c0-0.1,0-0.2,0-0.3c0-0.1,0-0.3-0.1-0.4c0-0.1-0.1-0.3-0.1-0.4c0-0.1-0.1-0.2-0.1-0.3c-0.1,0.1-0.1,0.3-0.2,0.4
				c-0.1,0.1-0.2,0.3-0.3,0.4c-0.1,0.1-0.3,0.2-0.4,0.3c-0.2,0.1-0.3,0.1-0.5,0.1c-0.4,0-0.7-0.1-1.1-0.3c-0.3-0.2-0.5-0.6-0.6-0.9
				c-0.1-0.3-0.1-0.6,0-1c0.1-0.4,0.2-0.8,0.4-1.1c0.2-0.4,0.4-0.6,0.6-0.9c0.3-0.2,0.6-0.4,0.9-0.4c0.3,0,0.5,0.2,0.8,0.4
				c0.3,0.3,0.5,0.6,0.7,1c0.2,0.4,0.4,0.7,0.5,1.1c0.1,0.4,0.2,0.7,0.2,1c0,0.3,0,0.7,0,1c0,0.3-0.1,0.6-0.2,0.9
				c-0.1,0.3-0.2,0.5-0.3,0.8c-0.1,0.2-0.3,0.4-0.6,0.6c-0.3,0.2-0.6,0.4-0.9,0.5c-0.4,0.1-0.7,0.2-1.1,0.3
				c-0.4,0.1-0.8,0.1-1.2,0.1c-0.4,0-0.8,0-1.2,0h-0.1c-0.2,0-0.4-0.1-0.5-0.3c-0.1-0.2-0.2-0.4-0.2-0.6s0.1-0.4,0.2-0.6
				C267.5,26.9,267.6,26.8,268,26.8L268,26.8z M270.4,16.3l1.3,1.1c0.1,0,0.1,0.1,0,0.2l-0.8,1.1c0,0.1-0.1,0.1-0.2,0l-1.3-1.1
				c-0.1,0-0.1-0.1,0-0.2l0.9-1.1C270.3,16.2,270.3,16.2,270.4,16.3z M270.9,22.5c-0.1,0-0.2,0-0.3,0.1c-0.1,0.1-0.2,0.1-0.3,0.2
				c-0.1,0.1-0.2,0.2-0.2,0.3c-0.1,0.1-0.1,0.2-0.1,0.3c0.1,0.2,0.2,0.3,0.4,0.4c0.2,0.1,0.3,0.1,0.5,0.1c0.2,0,0.4,0,0.5-0.1
				c0.2-0.1,0.3-0.2,0.4-0.4c0-0.1,0-0.2-0.1-0.3c-0.1-0.1-0.2-0.2-0.3-0.3c-0.1-0.1-0.2-0.2-0.3-0.2
				C271.1,22.5,271,22.5,270.9,22.5z"/>
			<path d="M288.7,24c0,0.1-0.1,0.3-0.2,0.4c-0.2,0.2-0.4,0.4-0.8,0.6c0,0.4-0.1,0.7-0.2,1.1c-0.1,0.3-0.2,0.5-0.3,0.5
				c-0.4-0.4-0.7-0.7-1.1-1c-0.4-0.3-0.8-0.5-1.2-0.5c0,0.4,0.2,0.8,0.6,1.2c0.3,0.3,0.6,0.7,0.9,1c0,0.2-0.3,0.3-1,0.5
				c-0.5,0.1-0.9,0.1-1.2,0.1c-0.5,1.4-1.1,2.7-2,3.9c-0.4,0.5-0.9,1.1-1.5,1.7c-0.8,0.8-1.4,1.2-1.8,1.2c-0.1,0-0.2-0.1-0.2-0.2
				c0-0.1,0.2-0.4,0.7-0.9c0.7-0.8,1.2-1.4,1.5-2.1c0.6-1.1,1-2.3,1.2-3.7c-0.4-0.1-0.7-0.1-0.8-0.2c-0.1-0.1-0.2-0.1-0.2-0.3
				c0.9-0.8,1.4-1.5,1.4-2.2c-0.4,0-0.8,0.2-1.2,0.5c-0.2,0.2-0.6,0.6-1,1c-0.1,0-0.2-0.2-0.4-0.5c-0.1-0.4-0.2-0.7-0.2-1.1
				c-0.4-0.2-0.6-0.4-0.7-0.4c-0.3-0.2-0.4-0.4-0.4-0.6c0-0.1,0.1-0.3,0.2-0.4c0.1-0.1,0.4-0.3,0.8-0.5c0-1.1,0.2-1.6,0.6-1.6
				c0.8,0.9,1.5,1.3,2.2,1.4c0-0.3-0.2-0.8-0.5-1.2c0,0-0.3-0.4-0.9-1c0-0.1,0.1-0.2,0.2-0.2c0.2-0.1,0.4-0.1,0.9-0.2
				c-0.2-1.1-0.6-2.2-1.3-3.3c-0.6-1.1-1.4-2.1-2.2-2.8c-0.1-0.1-0.2-0.2-0.2-0.3c0-0.1,0.1-0.2,0.3-0.2c0.3,0,0.7,0.2,1.3,0.6
				c1.8,1.3,3.2,3.2,4.1,5.8c1.4,0,2.1,0.2,2.1,0.6c-0.4,0.3-0.7,0.7-0.9,1c-0.3,0.4-0.4,0.8-0.4,1.2c0.3,0,0.7-0.2,1-0.5l1.1-1
				c0.2,0,0.4,0.5,0.5,1.4c0,0.1,0,0.2,0,0.3C288.3,23.4,288.7,23.7,288.7,24z M285.5,20.7c0,0-0.1-0.1-0.4-0.1s-0.4-0.1-0.5-0.1
				h-0.4c-0.1,0-0.2,0-0.3,0.1c-0.4-1.2-0.9-2.4-1.7-3.5c-0.9-1.2-1.8-2.2-3-3c0.8,0.7,1.4,1.6,2,2.6c0.7,1.2,1.2,2.5,1.4,3.8
				c-0.5,0-0.8,0.1-0.8,0.2c0.6,0.5,1,1,1.3,1.5c0.1-0.2,0.2-0.5,0.3-0.7c0,0,0.1-0.1,0.1-0.3c0.1-0.2,0.1-0.3,0.2-0.3
				c0.2,0,0.4,0.5,0.7,1.4c0.2-0.3,0.3-0.7,0.6-0.9C285.1,21.2,285.2,21,285.5,20.7z M282.1,24.8c-0.1-0.1-0.5-0.2-1.1-0.4
				c-0.4-0.1-0.6-0.2-0.6-0.3c0,0,0.3-0.2,0.9-0.4c0.1-0.1,0.4-0.2,0.7-0.3c-0.3-0.1-0.7-0.3-1-0.5c-0.1-0.1-0.4-0.3-0.7-0.6
				c-0.1,0-0.2,0.4-0.2,1.2c-0.6,0.3-0.9,0.6-0.9,0.7c0,0.2,0.3,0.3,0.9,0.6c0,0.8,0.1,1.3,0.3,1.3c0,0,0.2-0.2,0.6-0.5
				C281.5,25.1,281.9,24.8,282.1,24.8z M285.6,27.3c-0.5-0.4-0.9-0.9-1.2-1.4c-0.1,0.2-0.2,0.4-0.3,0.7c0,0-0.1,0.2-0.2,0.4
				c-0.1,0.2-0.2,0.3-0.2,0.3c0,0-0.1-0.1-0.2-0.3c-0.1-0.2-0.1-0.3-0.2-0.3c0-0.1-0.1-0.3-0.3-0.7c-0.1,0.3-0.3,0.6-0.5,0.8
				c-0.2,0.2-0.4,0.4-0.6,0.6c0,0.1,0.3,0.1,0.8,0.3c-0.3,1.3-0.5,2.1-0.6,2.4c-0.5,1.4-1.3,2.8-2.4,4.1c1.9-1.3,3.3-3.4,4.3-6.5
				c0.7,0,1,0,0.9,0C285.3,27.5,285.6,27.4,285.6,27.3z M285,24c0-0.4-0.1-0.7-0.4-0.9c-0.2-0.2-0.6-0.3-0.9-0.3
				c-0.3,0-0.6,0.1-0.9,0.4c-0.3,0.2-0.4,0.5-0.4,0.9c0,0.4,0.1,0.7,0.4,0.9c0.3,0.2,0.6,0.4,0.9,0.4c0.4,0,0.7-0.1,0.9-0.4
				C284.9,24.7,285,24.4,285,24z M288.1,24c0-0.1-0.1-0.2-0.2-0.3c-0.2-0.1-0.4-0.2-0.7-0.3c0-0.4,0-0.7-0.1-0.9
				c-0.1-0.2-0.1-0.4-0.2-0.4c0,0-0.2,0.2-0.5,0.5c-0.3,0.3-0.7,0.6-1.1,0.7c0.2,0.1,0.4,0.2,0.8,0.4c0,0,0.2,0.1,0.6,0.2
				c0.3,0.1,0.4,0.2,0.4,0.2c0,0.1-0.2,0.2-0.6,0.3c-0.6,0.2-1,0.3-1.1,0.3c0.4,0.1,0.7,0.3,1,0.5c0.1,0.1,0.4,0.3,0.6,0.6
				c0.1,0,0.1-0.1,0.2-0.3c0-0.1,0-0.4,0-0.8C287.8,24.3,288.1,24.1,288.1,24z"/>
		</g>
	</g>
	<rect class="st2" width="341.3" height="47.3"/>
</g>
</svg>
