<?xml version="1.0" encoding="utf-8"?>
<!-- Generator: Adobe Illustrator 19.2.0, SVG Export Plug-In . SVG Version: 6.00 Build 0)  -->
<svg version="1.1" id="Layer_1" xmlns="http://www.w3.org/2000/svg" xmlns:xlink="http://www.w3.org/1999/xlink" x="0px" y="0px"
	 viewBox="0 0 776.7 32.1" style="enable-background:new 0 0 776.7 32.1;" xml:space="preserve">
<style type="text/css">
	.st0{fill:#FFFFFF;}
	.st1{fill:#F9A326;}
</style>
<g>
	<path class="st0" d="M1.8,18.9c0.3,0.2,0.3,0.6,0.3,0.8c0,0.2-0.1,0.6-0.3,0.7c-0.2,0.2-0.5,0.3-0.8,0.3c-0.2,0-0.5-0.1-0.7-0.3
		C0.1,20.3,0,20,0,19.7c0-0.3,0.1-0.5,0.3-0.8c0.2-0.2,0.5-0.3,0.7-0.3S1.6,18.7,1.8,18.9z"/>
	<path class="st0" d="M7,7.5c0,0.4-0.1,0.7-0.2,1.1C6.9,8.7,7,8.8,7,8.9c0,0.3-0.1,0.6-0.2,0.7c0,0.1-0.1,0.1-0.1,0.1L6.3,9.5
		c-0.4,0.6-1,1.3-1.9,1.7c-0.3,0.2-0.7,0.3-1.1,0.3c-0.2,0-0.3,0-0.3-0.1c0-0.1,0.2-0.1,0.4-0.3c0.6-0.4,1.9-1.3,2.3-1.9
		C5.4,9,5,8.7,5,8.2c0-0.3,0.2-0.6,0.4-1C5.7,6.8,6,6.6,6.4,6.6C6.8,6.6,7,7.1,7,7.5z M5.6,7.9C5.6,7.9,5.6,7.9,5.6,7.9
		c0,0.1,0.3,0.4,0.6,0.5c0.1-0.1,0.1-0.3,0.1-0.5c0-0.2-0.1-0.3-0.3-0.3C5.9,7.5,5.7,7.7,5.6,7.9z"/>
	<path class="st0" d="M8.6,18.5c0.4,0.2,0.7,0.3,0.9,0.3h0.3c0.5,0,0.8,0.3,0.8,0.8c0,0.6-0.3,0.9-0.8,0.9H9.5
		c-0.6,0-1.1-0.2-1.7-0.7c-0.5-0.5-0.9-1.2-1-2.3c-0.2,0.3-0.3,0.5-0.6,0.8c-0.5,0.3-1.2,0.5-2,0.5c-0.6,0-1-0.1-1-0.5
		c0.2-1.7,0.5-1.9,1.3-2.6c0.3-0.3,1.4-0.9,1.8-1.2c0-0.2,0-0.3,0-0.4c0-0.4,0.1-0.6,0.3-0.9c0.1-0.2,0.2-0.4,0.3-0.4
		c0.1,0,0.1,0.1,0.2,0.4c0.3,1.5,0.4,2.8,0.6,3.6C7.7,17.6,8.1,18.1,8.6,18.5z M6.4,15.5c-0.7,0.5-1.9,1.2-1.9,1.4
		c0,0.1,0.2,0.2,0.6,0.2c0.5,0,1.1-0.1,1.6-0.4C6.5,16.2,6.5,16.1,6.4,15.5z"/>
	<path class="st0" d="M14.8,9.9c0,0.4-0.1,0.7-0.2,1.1c0.2,0.1,0.3,0.2,0.3,0.3c0,0.3-0.1,0.6-0.2,0.7c0,0.1-0.1,0.1-0.1,0.1
		l-0.4-0.2c-0.4,0.6-1,1.3-1.9,1.7c-0.3,0.2-0.7,0.3-1.1,0.3c-0.2,0-0.3,0-0.3-0.1c0-0.1,0.2-0.1,0.4-0.3c0.6-0.4,1.9-1.3,2.3-1.9
		c-0.3-0.2-0.8-0.5-0.8-1c0-0.3,0.2-0.6,0.4-1C13.6,9.1,13.9,9,14.2,9C14.7,9,14.8,9.5,14.8,9.9z M13.5,10.2
		C13.5,10.2,13.4,10.3,13.5,10.2c0,0.1,0.3,0.4,0.6,0.5c0.1-0.1,0.1-0.3,0.1-0.5c0-0.2-0.1-0.3-0.3-0.3C13.8,9.9,13.6,10,13.5,10.2z
		"/>
	<path class="st0" d="M9.7,20.6L9.7,20.6c-0.6,0-0.8-0.3-0.8-0.9c0-0.5,0.3-0.8,0.7-0.8h0.1c0.9,0,1.7-0.4,2.2-1.1l0.9-1.5
		c0.6-0.8,1.3-1.1,1.7-1.1c1.3,0,1.8,2.2,1.8,3.1c0,0.8-0.8,1.8-1.2,1.8c-0.6,0-2.1-0.7-2.8-1.4C11.4,20,10.6,20.6,9.7,20.6z
		 M13.7,16.7c-0.1,0-0.2,0.1-0.4,0.2c-0.1,0.1-0.1,0.2-0.2,0.4c0.3,0.2,1.4,0.8,1.9,1C14.9,17.7,14.2,16.7,13.7,16.7z"/>
	<path class="st0" d="M20.7,20.6c-0.5,0-0.9-0.1-1.3-0.4c-0.5-0.4-0.8-1.3-1-2.3c-0.1-0.8-0.2-1.7-0.2-2.8c-0.1-1.5-0.2-3.8-0.4-5.2
		c0-0.1,0-0.1,0-0.2c0-0.1,0-0.1,0.1-0.3c0.2-0.3,0.4-0.6,0.5-0.9c0.1-0.2,0.2-0.2,0.2-0.2c0.1,0,0.1,0.1,0.2,0.5
		c0.3,2.6,0.1,6.3,0.5,8.3c0.1,0.5,0.2,0.7,0.3,1c0.2,0.5,0.6,0.7,1.1,0.7c0.6,0,0.9,0.3,0.9,0.8c0,0.7-0.3,0.9-0.8,0.9H20.7z"/>
	<path class="st0" d="M21.8,17.3c0-0.4,0.2-1.3,0.5-1.9c0.5-1.1,1.4-1.6,2.2-1.6c0.5,0,1.5,0.3,2.1,0.8c0.2,0.2,0.2,0.3,0.2,0.3
		c0,0.1-0.1,0.1-0.2,0.1c-0.3,0-0.7-0.1-1.2-0.1c-0.8,0-2.7,0.8-2.8,1.3c0,0.3,1,1.7,2.5,1.7h0.1c0.9-0.4,2.1-0.9,2.7-1.2
		c0.3-0.2,0.5-0.2,0.6-0.2c0.1,0,0.1,0,0.1,0.1c0,0.2-0.4,0.9-0.6,1.3c-0.1,0.1-0.2,0.2-0.3,0.3c-0.5,0.3-1.3,0.7-2.4,1.2
		c-1.1,0.5-3.4,1.3-4.5,1.3h-0.1c-0.5,0-0.8-0.3-0.8-0.9c0-0.6,0.3-0.9,0.8-0.9h0.1c0.2,0,0.9,0,1.5-0.2
		C22.1,18.3,21.8,17.8,21.8,17.3z M25.5,10c0.1,0,0.1,0.1,0,0.1c-0.2,0.2-0.8,0.9-1.1,1.3c-0.1,0.1-0.1,0.1-0.2,0
		c-0.3-0.2-1.1-0.8-1.3-1.1c-0.1-0.1-0.1-0.1,0-0.2c0.2-0.4,0.7-0.9,1-1.2c0.1-0.1,0.2-0.2,0.2-0.1C24.4,9.2,24.9,9.6,25.5,10z"/>
	<path class="st0" d="M32.3,8.2c0.5,0,1.3,0.7,1.3,1.5c0,0.3-0.1,0.6-0.1,0.9c-0.2,0.6-0.7,0.9-1.3,0.9c-0.6,0-1-0.5-1-1
		C31,9.9,31.9,8.2,32.3,8.2z M32.1,9.4c-0.2,0-0.5,0.5-0.5,0.7c0,0.2,0.3,0.4,0.6,0.4c0.4,0,0.8-0.2,0.8-0.4
		C33,10.1,32.5,9.4,32.1,9.4z"/>
	<path class="st0" d="M35.2,17.6c0,0.6-0.1,1.3-0.2,1.5c-0.3,1.1-1.5,1.6-3.7,1.6c-0.5,0-0.8-0.1-0.9-0.2c-0.2-0.2-0.2-0.5-0.2-0.9
		c0-0.3,0-0.5,0.1-0.6c0.1-0.3,0.1-0.3,0.2-0.3c0.1,0,0.1,0.1,0.2,0.1c0.2,0.2,0.7,0.2,1.3,0.2c0.9,0,2.1-0.2,2.5-0.4
		c0.1,0,0.1-0.1,0.1-0.1c0,0,0-0.1,0-0.1c-0.3-1-1.7-3-2.7-3c-0.1,0-0.3,0.2-0.4,0.2c0,0-0.1,0-0.1-0.1c0-0.4,0.3-1.4,0.6-1.6
		c0.1-0.1,0.2-0.1,0.4-0.1c0.3,0,0.6,0.1,0.8,0.2c0.4,0.2,1.1,0.9,1.6,1.8C35,16.2,35.2,16.8,35.2,17.6z"/>
	<path class="st0" d="M38.6,20.6c-0.1,0-0.1-0.1-0.1-0.5c0-2.3-0.8-8.5-0.8-9.5c0-0.5,0.3-1.3,0.6-1.8c0.1-0.2,0.2-0.4,0.3-0.4
		c0.1,0,0.1,0.1,0.1,0.6c0.1,1.6,0.5,5.5,0.5,8.2c0,1.1-0.1,2.1-0.3,2.6C38.9,20.3,38.7,20.6,38.6,20.6z"/>
	<path class="st0" d="M49.3,24.3c1.8,0,4.3-1.3,4.3-2.2c-0.1-1.5-0.3-2.4-0.4-3.6c-0.3-2.3-0.5-4.1-0.8-7.2c0-0.3-0.1-0.6-0.1-0.7
		c0-0.2,0-0.3,0.1-0.5c0.2-0.4,0.6-1.3,0.8-1.3c0.1,0,0.1,0.1,0.1,0.2c0.1,0.7,0.1,1.2,0.2,2.4c0.1,1.3,0.3,3.3,0.6,5.1
		c0.2,1.5,1,2.4,2,2.4h0.2c0.5,0,0.8,0.3,0.8,0.8c0,0.6-0.3,0.9-0.8,0.9H56c-0.7,0-1.4-0.4-1.7-1.1c0.1,0.7,0.1,1.2,0.1,1.6
		c0,1.5-0.3,2-0.7,2.6c-0.3,0.5-1.8,2.3-4.7,2.3c-2.9,0-3.8-1.6-3.8-3.1c0-1.1,0.4-2.3,0.8-3.1c0.2-0.5,0.5-0.6,0.6-0.6
		c0.1,0,0.1,0,0.1,0.1c0,0.1-0.1,0.3-0.2,0.6c-0.2,0.6-0.5,1.3-0.5,1.9C46,23.7,47.8,24.3,49.3,24.3z"/>
	<path class="st0" d="M61.5,12.2c0.1,0,0.1,0,0.1,0c0,0.4-0.2,0.9-0.4,1L58.1,15c-0.1,0-0.1,0-0.1,0c0-0.2,0.1-0.6,0.2-0.7
		c0.1-0.1,0.2-0.2,0.5-0.4L61.5,12.2z"/>
	<path class="st0" d="M56.2,20.6h-0.1c-0.5,0-0.7-0.3-0.7-0.8c0-0.6,0.2-0.9,0.7-0.9h0.1c1.2,0,2-0.6,2.6-1.2c0.6-0.6,1-1.2,1.4-1.2
		c0.1,0,0.3,0.1,0.4,0.2c0.7,0.7,2.1,2.2,2.9,2.2h0.1c0.5,0,0.8,0.3,0.8,0.8c0,0.6-0.3,0.9-0.8,0.9h-0.1c-0.7,0-1.3-0.5-1.5-0.6
		c-0.1,0.5-0.7,1.1-1,1.1c-0.3,0-2.5-0.7-3.1-1.6C57.7,20.2,56.9,20.6,56.2,20.6z M60.5,18.4c-0.3-0.3-0.6-0.5-0.8-0.5
		c-0.2,0-0.2,0.1-0.4,0.2c-0.1,0.1-0.2,0.2-0.2,0.3c0,0.1,0.2,0.2,0.9,0.6c0.3,0.1,1,0.4,1.1,0.4c0.1,0,0.1,0,0.1-0.1
		C61.3,19.2,60.8,18.6,60.5,18.4z"/>
	<path class="st0" d="M67.7,8.6c0.1,0,0.1,0,0.1,0c0,0.4-0.2,0.9-0.4,1l-3.1,1.7c-0.1,0-0.1,0-0.1,0c0-0.2,0.1-0.6,0.2-0.7
		c0.1-0.1,0.2-0.2,0.5-0.4L67.7,8.6z"/>
	<path class="st0" d="M67.2,17.8c0,0.4,0.5,0.9,1,1c0.1,0,0.3,0,0.4,0h0.1c0.6,0,0.6,0.5,0.6,0.8c0,0.2,0,0.9-0.6,0.9h-0.1
		c-0.1,0-0.2,0-0.4,0c-1.1-0.1-1.6-1.1-1.6-1.2c-0.2,0.5-1.1,1.3-2.8,1.3h-0.1c-0.5,0-0.7-0.4-0.7-0.9c0-0.4,0.2-0.9,0.7-0.9h0.5
		c0.7,0,1.8-0.1,2.5-1.2c0.2-0.3,0.3-0.4,0.4-0.4C67.1,17.3,67.2,17.5,67.2,17.8z M67,12.7c0.1-0.1,0.2-0.2,0.3-0.1
		c0.4,0.4,0.8,0.8,1.2,1.1c0.1,0.1,0.1,0.1,0,0.2c-0.3,0.4-0.7,0.7-1,1.1c-0.1,0.1-0.1,0.1-0.2,0c-0.3-0.2-0.7-0.6-1.1-0.9
		c-0.2,0.3-0.7,0.7-0.9,0.9c-0.1,0.1-0.1,0.1-0.3,0c-0.4-0.2-0.9-0.6-1.2-1c-0.1-0.1-0.1-0.1,0-0.2c0.3-0.3,0.7-0.8,1-1.1
		c0.1-0.1,0.1-0.1,0.2,0c0.3,0.3,0.8,0.8,1.1,0.9C66.4,13.4,66.8,12.9,67,12.7z"/>
	<path class="st0" d="M71.9,5.5c0.5,0,1.3,0.7,1.3,1.5c0,0.3-0.1,0.6-0.1,0.9c-0.2,0.6-0.7,0.9-1.3,0.9c-0.6,0-1-0.5-1-1
		C70.7,7.2,71.6,5.5,71.9,5.5z M71.8,6.7c-0.2,0-0.5,0.5-0.5,0.7c0,0.2,0.3,0.4,0.6,0.4c0.4,0,0.8-0.2,0.8-0.4
		C72.7,7.4,72.2,6.7,71.8,6.7z"/>
	<path class="st0" d="M77.2,8.7C77.3,8.7,77.3,8.7,77.2,8.7c0.1,0.3-0.3,1-0.5,1.3c0,0.1-0.1,0.1-0.1,0.1c-0.5,0.2-4.4,1.7-6.2,2.9
		c1.7,0.9,3.3,2.9,3.3,4.1c0,1.2-0.3,2.1-1,2.7c-1.1,0.6-2.4,0.9-4.1,0.9h-0.2c-0.3,0-0.5-0.4-0.5-0.9c0-0.5,0.2-0.9,0.5-0.9h0.2
		c2.3,0,4.1-0.5,4.5-0.9c0-1.1-1.8-2.8-3.2-3.5c-0.2-0.1-0.4-0.2-0.5-0.4c-0.1-0.1-0.1-0.3-0.1-0.6c0-0.4,0.1-0.8,0.3-1
		c0.5-0.5,1.1-0.9,2.1-1.5c2.1-1.1,4.2-1.9,5.1-2.2C77,8.7,77.2,8.7,77.2,8.7z"/>
	<path class="st0" d="M79.7,20.6c-0.1,0-0.1-0.1-0.1-0.5c0-2.3-0.8-8.5-0.8-9.5c0-0.5,0.3-1.3,0.6-1.8c0.1-0.2,0.2-0.4,0.3-0.4
		c0.1,0,0.1,0.1,0.1,0.6c0.1,1.6,0.5,5.5,0.5,8.2c0,1.1-0.1,2.1-0.3,2.6C80,20.3,79.9,20.6,79.7,20.6z"/>
	<path class="st0" d="M92.6,22.1c0.1,0,0.1,0,0.1,0c0,0.4-0.2,0.9-0.4,1l-3.1,1.7c-0.1,0-0.1,0-0.1,0c0-0.2,0.1-0.6,0.2-0.7
		c0.1-0.1,0.2-0.2,0.5-0.4L92.6,22.1z"/>
	<path class="st0" d="M94.3,18.9h0.2c0.5,0,0.7,0.3,0.7,0.8c0,0.6-0.3,0.9-0.8,0.9h-0.2c-0.6,0-1-0.2-1.3-0.5
		c-0.3-0.3-0.6-0.7-0.8-1.5c-0.2,1.2-1.7,2-3.4,2c-0.5,0-1.1-0.1-1.6-0.4c-0.3-0.2-0.5-0.5-0.5-0.8c0-0.4,0.1-1,0.3-1.4
		c0.1-0.1,0.1-0.2,0.2-0.2c0.1,0,0.1,0.1,0.2,0.3c0.2,0.5,0.9,0.7,1.7,0.7c1.6,0,2.4-0.4,2.7-1c0-0.2,0-0.3,0-0.5
		c0-0.9-0.3-2.2-0.5-3.3c0-0.1,0-0.3,0-0.3c0-0.1,0-0.3,0.4-1.1c0.1-0.3,0.2-0.5,0.3-0.5c0.1,0,0.1,0.1,0.2,0.5
		c0.6,2.5,0.6,4.2,0.9,5.2c0.1,0.3,0.2,0.5,0.3,0.6C93.6,18.7,93.9,18.9,94.3,18.9z"/>
	<path class="st0" d="M99,5.8c0.1,0,0.1,0,0.1,0c0,0.4-0.2,0.9-0.4,1l-3.1,1.7c-0.1,0-0.1,0-0.1,0c0-0.2,0.1-0.6,0.2-0.7
		c0.1-0.1,0.2-0.2,0.5-0.4L99,5.8z"/>
	<path class="st0" d="M100.3,18.9c0.5,0,0.7,0.3,0.7,0.8c0,0.6-0.2,0.9-0.7,0.9h-0.2c-1.6,0-2.6-0.3-3.3-0.7
		c-0.6,0.4-1.4,0.7-2.4,0.7h-0.2c-0.5,0-0.7-0.3-0.7-0.9c0-0.5,0.2-0.8,0.7-0.8h0.2c0.7,0,1.1-0.1,1.3-0.3c-0.1-0.2-0.1-0.4-0.1-0.6
		c0-1.7,1.9-3.9,3-3.9c0.6,0,1,0.7,1,1.6c0,0.9-0.4,2.1-1.1,2.8c0.3,0.2,0.9,0.3,1.6,0.3H100.3z M98.3,9.9c0.1-0.1,0.2-0.2,0.3-0.1
		c0.4,0.4,0.8,0.8,1.2,1.1c0.1,0.1,0.1,0.1,0,0.2c-0.3,0.4-0.7,0.7-1,1.1c-0.1,0.1-0.1,0.1-0.2,0c-0.3-0.2-0.7-0.6-1.1-0.9
		c-0.2,0.3-0.7,0.7-0.9,0.9c-0.1,0.1-0.1,0.1-0.3,0c-0.4-0.2-0.9-0.6-1.2-1c-0.1-0.1-0.1-0.1,0-0.2c0.3-0.3,0.7-0.8,1-1.1
		c0.1-0.1,0.1-0.1,0.2,0c0.3,0.3,0.8,0.8,1.1,0.9C97.8,10.6,98.2,10.1,98.3,9.9z M97.9,15.9c-0.6,0-1.2,0.7-1.2,0.9
		c0,0.4,0.3,0.7,0.9,1.1c0.2-0.1,1.1-0.7,1.1-1C98.6,16.3,98.4,15.9,97.9,15.9z"/>
	<path class="st0" d="M103.4,4.4c0.1,0,0.1,0,0.1,0c0,0.4-0.2,0.9-0.4,1L100,7.2c-0.1,0-0.1,0-0.1,0c0-0.2,0.1-0.6,0.2-0.7
		c0.1-0.1,0.2-0.2,0.5-0.4L103.4,4.4z"/>
	<path class="st0" d="M104.4,16.7c0,0.9-0.3,2.2-0.7,2.8c-0.2,0.3-0.7,0.5-1,0.6c-1,0.3-1.9,0.5-2.5,0.5H100c-0.5,0-0.7-0.3-0.7-0.9
		c0-0.5,0.2-0.8,0.7-0.8h0.1c1,0,2.1-0.2,2.7-0.4c0.6-0.2,0.7-0.2,0.7-0.8c0-0.3-0.1-0.6-0.2-1c-0.2,0.4-0.7,0.7-1.3,0.7
		c-0.8,0-1.3-0.5-1.3-1.5c0-1.4,1-3.1,1.5-3.1C103.6,12.9,104.4,15.5,104.4,16.7z M103.3,9.2c0.1,0,0.1,0.1,0,0.1
		c-0.2,0.2-0.8,0.9-1.1,1.3c-0.1,0.1-0.1,0.1-0.2,0c-0.3-0.2-1.1-0.8-1.3-1.1c-0.1-0.1-0.1-0.1,0-0.2c0.2-0.4,0.7-0.9,1-1.2
		c0.1-0.1,0.2-0.2,0.2-0.1C102.3,8.4,102.8,8.9,103.3,9.2z M102.5,14.8c-0.2-0.1-0.4-0.2-0.6-0.2c-0.1,0-0.3,0.1-0.4,0.3
		c-0.1,0.2-0.1,0.3-0.1,0.4c0,0.3,0.4,0.5,0.7,0.5c0.4,0,0.7-0.1,0.7-0.4C102.9,15.3,102.7,15,102.5,14.8z"/>
	<path class="st0" d="M118.4,4c0,0.4-0.1,0.7-0.2,1.1c0.2,0.1,0.3,0.2,0.3,0.3c0,0.3-0.1,0.6-0.2,0.7c0,0.1-0.1,0.1-0.1,0.1L117.7,6
		c-0.4,0.6-1,1.3-1.9,1.7c-0.3,0.2-0.7,0.3-1.1,0.3c-0.2,0-0.3,0-0.3-0.1c0-0.1,0.2-0.1,0.4-0.3c0.6-0.4,1.9-1.3,2.3-1.9
		c-0.3-0.2-0.8-0.5-0.8-1c0-0.3,0.2-0.6,0.4-1c0.3-0.4,0.6-0.6,0.9-0.6C118.2,3.1,118.3,3.6,118.4,4z M117,4.4
		C117,4.4,117,4.4,117,4.4c0,0.1,0.3,0.4,0.6,0.5c0.1-0.1,0.1-0.3,0.1-0.5c0-0.2-0.1-0.3-0.3-0.3C117.3,4.1,117.1,4.2,117,4.4z"/>
	<path class="st0" d="M119,19c0,1.7-0.3,2.1-0.7,2.7c-0.9,1.5-2.7,2.2-4.4,2.2c-3,0-3.8-1.6-3.8-3.1c0-1.1,0.3-2.2,0.8-3.1
		c0.2-0.5,0.5-0.6,0.6-0.6c0.1,0,0.1,0.1,0.1,0.1c0,0.1-0.1,0.3-0.2,0.6c-0.2,0.5-0.5,1.3-0.5,1.9c0,1.3,1,2.5,3.3,2.5
		c1.6,0,3.7-1.1,4.1-1.9c0-0.1,0.1-0.2,0.1-0.3c-0.1-1.4-0.2-2.4-0.4-3.6c-0.3-2.3-0.3-2.8-0.6-5c0-0.3-0.2-1-0.3-1.3
		c0-0.1,0-0.1,0-0.2c0,0,0-0.1,0-0.1c0-0.1,0.1-0.3,0.3-0.6c0.2-0.4,0.5-0.8,0.6-0.8c0.1,0,0.1,0.1,0.1,0.2c0.2,0.7,0.4,1.1,0.6,1.3
		c0,0.1,0.1,0.1,0.1,0.2c0,0,0,0.1,0,0.2c-0.1,0.2-0.2,0.6-0.4,0.8C118.6,13.6,119,17.3,119,19z"/>
	<path class="st0" d="M121.1,14.1c-0.6,0-0.9-0.5-0.9-1.1c0-0.2,0-0.4,0.1-0.6c0-0.2,0.2-0.6,0.4-0.6c0.1,0,0.2,0.2,0.2,0.4v0.2
		c0,0.2,0.2,0.4,0.5,0.4h0c0.3,0,0.6-0.3,0.7-0.7c0-0.2,0.2-0.8,0.5-0.8c0.1,0,0.2,0.1,0.2,0.4c0,0.1,0.1,0.2,0.3,0.2
		c0.3,0,0.6-0.2,0.7-0.6c0.1-0.5,0.2-0.6,0.3-0.6c0.2,0,0.2,0.5,0.2,0.8c0,0.2,0,0.5-0.1,0.8c-0.2,0.5-0.5,0.9-1.1,0.9
		c-0.1,0-0.3-0.1-0.3-0.1c-0.1,0-0.1,0-0.2,0.1C122,13.7,121.7,14.1,121.1,14.1z M124,8.9C124.1,8.9,124.1,8.9,124,8.9
		c0,0.3-0.1,0.7-0.3,0.9c-0.1,0.1-0.2,0.1-0.4,0.2l-3,1.4c0,0-0.1,0-0.1,0c0-0.1,0.1-0.3,0.1-0.6c0.1-0.3,0.2-0.3,0.2-0.4
		c0.1-0.1,0.1-0.1,0.3-0.2L124,8.9z"/>
	<path class="st0" d="M124.7,17.5c0.3,0.7,0.3,1.3,0.3,2.3c0,3-0.8,4.9-3.1,5.8c-0.1,0-0.3,0.1-0.5,0.1c-0.7,0-2-0.3-3-0.8
		c-0.2-0.1-0.3-0.2-0.3-0.3c0-0.1,0.1-0.1,0.3-0.1c0.1,0,0.8,0.1,1.4,0.1c0.7,0,1.4-0.3,2.5-1c1.2-0.7,2.1-1.8,2.1-2.9
		c0-0.4-0.1-0.7-0.3-1.1c-0.2,0.5-0.6,0.9-1.2,0.9c-0.9,0-1.5-0.5-1.5-1.6c0-0.4,0.2-1,0.5-1.6c0.4-0.7,0.9-1.4,1.3-1.4
		C123.7,15.8,124.3,16.5,124.7,17.5z M122.8,17.5c-0.2,0-0.4,0.2-0.5,0.3c-0.1,0.1-0.2,0.3-0.2,0.4c0,0.3,0.5,0.5,0.9,0.5
		c0.3,0,0.5-0.1,0.6-0.3C123.6,17.9,123,17.5,122.8,17.5z"/>
	<path class="st0" d="M128.6,0c0.1,0,0.1,0,0.1,0c0,0.4-0.2,0.9-0.4,1l-3.1,1.7c-0.1,0-0.1,0-0.1,0c0-0.2,0.1-0.6,0.2-0.7
		c0.1-0.1,0.2-0.2,0.5-0.4L128.6,0z"/>
	<path class="st0" d="M128.5,6.1c-0.1,0.2-0.2,0.2-0.3,0.3c-0.6,0.3-2,1.1-3,1.9c-0.1,0.1-0.1,0-0.1-0.1c0-0.1,0.1-0.3,0.1-0.4
		c0.1-0.1,0.4-0.5,0.6-0.7c0.1-0.1,0.1-0.1,0-0.1c-0.5-0.2-0.7-0.4-0.7-0.8c0-0.7,0.7-1.6,1.3-2.2c0.2-0.2,0.5-0.4,0.8-0.4
		c0.4,0,0.6,0.2,0.6,0.5c0,0.2-0.1,0.5-0.2,0.7c-0.1,0.3-0.2,0.3-0.4,0.1c-0.1-0.1-0.3-0.2-0.4-0.2c-0.6,0-1,0.3-1,0.5
		c0,0.2,0.9,0.6,1.4,0.6c0,0,0.1,0,0.2,0c0.3-0.1,0.9-0.4,1.1-0.5c0.2-0.2,0.3-0.1,0.2,0.2C128.7,5.7,128.6,6,128.5,6.1z"/>
	<path class="st0" d="M134.3,9.8c0.1,0.1,0.1,0.2,0.1,0.2c0,0,0,0.1,0,0.2c-0.1,0.3-0.4,0.7-0.6,1c-0.1,1.8-0.4,3.2-1.2,5.3
		c0.2,0.6,0.4,1.4,0.4,2.2c0,0.5-0.1,1-0.2,1.4c-0.1,0.3-2,0.6-3.3,0.6c-0.3,0-0.6,0-0.8-0.1c-0.1,0-0.1-0.2-0.1-0.5
		c0-0.5,0.1-1.1,0.2-1.3c0,0,0.1-0.1,0.1-0.1c0.1,0,0.1,0,0.2,0c1,0,2.1-1,2.8-2.2c-0.9-1.7-2.6-3.9-4.2-4.9c0,0.1-0.3,0.4-0.6,0.4
		c-0.2,0-1.6-1.3-1.7-1.6c0-0.2,0-0.3,0-0.5c0-0.4,0.1-0.8,0.2-1c0.1-0.2,0.2-0.3,0.3-0.3c0.2,0,0.4,0.1,0.6,0.3
		c1.2,0.8,2.4,1.8,3.4,3c0.7,1,1.7,2.3,2.5,3.8c0.4-1,0.5-1.7,0.6-2.9c0.1-0.7,0.1-1.2,0.1-1.7c0-0.9-0.1-1.2-0.1-1.4
		c0-0.1,0.1-0.3,0.2-0.5c0.3-0.5,0.5-0.9,0.6-0.9c0,0,0.1,0.1,0.1,0.2C133.9,8.9,134.1,9.3,134.3,9.8z M132,17.2
		c-0.6,0.8-0.7,1-1.3,1.5c0.6,0,1.1-0.1,1.6-0.2C132.3,18.2,132.3,17.8,132,17.2z"/>
	<path class="st0" d="M137.3,20.6c-0.1,0-0.1-0.1-0.1-0.5c0-2.3-0.8-8.5-0.8-9.5c0-0.5,0.3-1.3,0.6-1.8c0.1-0.2,0.2-0.4,0.3-0.4
		c0.1,0,0.1,0.1,0.1,0.6c0.1,1.6,0.5,5.5,0.5,8.2c0,1.1-0.1,2.1-0.3,2.6C137.6,20.3,137.4,20.6,137.3,20.6z"/>
	<path class="st0" d="M147.5,20.6c-0.5,0-0.9-0.1-1.3-0.4c-0.5-0.4-0.8-1.3-1-2.3c-0.1-0.8-0.2-1.7-0.2-2.8
		c-0.1-1.5-0.2-3.8-0.4-5.2c0-0.1,0-0.1,0-0.2c0-0.1,0-0.1,0.1-0.3c0.2-0.3,0.4-0.6,0.5-0.9c0.1-0.2,0.2-0.2,0.2-0.2
		c0.1,0,0.1,0.1,0.2,0.5c0.3,2.6,0.1,6.3,0.5,8.3c0.1,0.5,0.2,0.7,0.3,1c0.2,0.5,0.6,0.7,1.1,0.7c0.6,0,0.9,0.3,0.9,0.8
		c0,0.7-0.3,0.9-0.8,0.9H147.5z"/>
	<path class="st0" d="M150,13.7c-0.6,0-0.9-0.5-0.9-1.1c0-0.2,0-0.4,0.1-0.6c0-0.2,0.2-0.6,0.4-0.6c0.1,0,0.2,0.2,0.2,0.4V12
		c0,0.2,0.2,0.4,0.5,0.4h0c0.3,0,0.6-0.3,0.7-0.7c0-0.2,0.2-0.8,0.5-0.8c0.1,0,0.2,0.1,0.2,0.4c0,0.1,0.1,0.2,0.3,0.2
		c0.3,0,0.6-0.2,0.7-0.6c0.1-0.5,0.2-0.6,0.3-0.6c0.2,0,0.2,0.5,0.2,0.8c0,0.2,0,0.5-0.1,0.8c-0.2,0.5-0.5,0.9-1.1,0.9
		c-0.1,0-0.3-0.1-0.3-0.1c-0.1,0-0.1,0-0.2,0.1C151,13.3,150.6,13.7,150,13.7z M153,8.5C153,8.5,153,8.5,153,8.5
		c0,0.3-0.1,0.7-0.3,0.9c-0.1,0.1-0.2,0.1-0.4,0.2l-3,1.4c0,0-0.1,0-0.1,0c0-0.1,0.1-0.3,0.1-0.6c0.1-0.3,0.2-0.3,0.2-0.4
		c0.1-0.1,0.1-0.1,0.3-0.2L153,8.5z"/>
	<path class="st0" d="M147.7,20.6L147.7,20.6c-0.6,0-0.8-0.3-0.8-0.9c0-0.5,0.3-0.8,0.7-0.8h0.1c0.9,0,1.7-0.4,2.2-1.1l0.9-1.5
		c0.6-0.8,1.3-1.1,1.7-1.1c1.3,0,1.8,2.2,1.8,3.1c0,0.8-0.8,1.8-1.2,1.8c-0.6,0-2.1-0.7-2.8-1.4C149.5,20,148.7,20.6,147.7,20.6z
		 M151.7,16.7c-0.1,0-0.2,0.1-0.4,0.2c-0.1,0.1-0.1,0.2-0.2,0.4c0.3,0.2,1.4,0.8,1.9,1C152.9,17.7,152.2,16.7,151.7,16.7z"/>
	<path class="st0" d="M158.4,1c0.1,0,0.1,0,0.1,0c0,0.4-0.2,0.9-0.4,1l-3.1,1.7c-0.1,0-0.1,0-0.1,0c0-0.2,0.1-0.6,0.2-0.7
		c0.1-0.1,0.2-0.2,0.5-0.4L158.4,1z"/>
	<path class="st0" d="M158.2,6.8c-0.6,0.3-2,1.1-3,1.9c0,0-0.1,0-0.1,0c0,0,0,0,0-0.1c0-0.1,0.1-0.3,0.2-0.5
		c0.1-0.1,0.4-0.5,0.6-0.7c0,0,0.1-0.1,0.1-0.1c0,0,0-0.1-0.1-0.1c-0.4-0.2-0.6-0.3-0.7-0.7c0,0,0-0.1,0-0.1c0-0.7,0.7-1.7,1.4-2.2
		c0.2-0.2,0.5-0.3,0.8-0.3c0.4,0,0.6,0.2,0.6,0.5c0,0.2-0.1,0.4-0.2,0.7c-0.1,0.2-0.1,0.3-0.2,0.3c-0.1,0-0.1,0-0.2-0.1
		c-0.1-0.1-0.2-0.2-0.4-0.2c-0.6,0-1,0.3-1,0.5c0,0.2,1,0.6,1.4,0.6c0,0,0.1,0,0.1,0c0.2-0.1,0.8-0.3,1.1-0.5
		c0.1-0.1,0.2-0.1,0.2-0.1c0,0,0.1,0,0.1,0.1c0,0.1,0,0.2-0.1,0.3C158.5,6.6,158.4,6.7,158.2,6.8z M157.1,20.6
		c-0.1,0-0.1-0.1-0.1-0.5c0-2.3-0.8-8.5-0.8-9.5c0-0.5,0.3-1.3,0.6-1.8c0.1-0.2,0.2-0.4,0.3-0.4c0.1,0,0.1,0.1,0.1,0.6
		c0.1,1.6,0.5,5.5,0.5,8.2c0,1.1-0.1,2.1-0.3,2.6C157.4,20.3,157.3,20.6,157.1,20.6z"/>
	<path class="st0" d="M167.2,19.6c0.2,0.2,0.3,0.5,0.3,0.8c0,0.3-0.2,0.7-0.4,0.9c-0.2,0.2-0.5,0.2-0.7,0.2c-0.5,0-0.9-0.3-1.2-0.9
		c-0.3-0.5-0.3-1-0.3-1.5c0-0.6,0.1-1.2,0.4-1.7c0.2-0.5,0.5-0.9,0.8-1.3c0.3-0.3,0.5-0.5,0.6-0.5c0.2,0,0.1,0.3-0.2,0.6
		c-0.6,0.8-0.8,1.5-0.8,2.4c0,0.4,0.1,0.5,0.2,0.8c0.2-0.1,0.5-0.1,0.6-0.1C166.7,19.3,167,19.4,167.2,19.6z"/>
	<path class="st1" d="M173.2,27.5c0.1-0.1,0.2-0.2,0.3-0.1c0.4,0.4,0.8,0.8,1.2,1.1c0.1,0.1,0.1,0.1,0,0.2c-0.3,0.4-0.7,0.7-1,1.1
		c-0.1,0.1-0.1,0.1-0.2,0c-0.3-0.2-0.7-0.6-1.1-0.9c-0.2,0.3-0.7,0.7-0.9,0.9c-0.1,0.1-0.1,0.1-0.3,0c-0.4-0.2-0.9-0.6-1.2-1
		c-0.1-0.1-0.1-0.1,0-0.2c0.3-0.3,0.7-0.8,1-1.1c0.1-0.1,0.1-0.1,0.2,0c0.3,0.3,0.8,0.8,1.1,0.9C172.6,28.2,173.1,27.7,173.2,27.5z"
		/>
	<path class="st1" d="M178.7,11.3c0.1,0,0.1,0.1,0,0.1c-0.2,0.2-0.8,0.9-1.1,1.3c-0.1,0.1-0.1,0.1-0.2,0c-0.3-0.2-1.1-0.8-1.3-1.1
		c-0.1-0.1-0.1-0.1,0-0.2c0.2-0.4,0.7-0.9,1-1.2c0.1-0.1,0.2-0.2,0.2-0.1C177.7,10.5,178.2,11,178.7,11.3z"/>
	<path class="st1" d="M173.8,23.6c2,0,5.3-1.5,5.7-2.1c-0.5-0.4-2.1-1.1-3.3-1.1c-0.2,0-0.3-0.1-0.3-0.3c0-0.2,0.2-0.6,0.4-0.9
		c0-0.1,0.1-0.1,0.1-0.1c0.5-0.1,0.8-0.2,1-0.2c0.4-0.1,0.9-0.3,1.1-0.6c0-1-0.5-1.9-1.3-2.5c-0.1,0-0.1-0.1-0.1-0.2
		c0-0.1,0.1-0.4,0.2-0.8c0.1-0.3,0.2-0.6,0.3-0.7c0.1-0.1,0.1-0.1,0.2-0.1c0.4,0.3,1,1,1.3,1.9c0.2,0.5,0.3,1.1,0.3,1.7
		c0,0.6-0.3,1.2-0.8,1.8c0.6,0.1,1.1,0.4,1.5,0.7c0.3,0.3,0.3,0.5,0.3,0.9c0,0.8-0.8,1.8-1.9,2.6c-1.5,1-3.6,1.7-5,1.7
		c-1.8,0-4-0.7-4-3.5c0-1.3,0.5-3,1.1-3.9c0.2-0.3,0.3-0.4,0.5-0.4c0.2,0,0,0.3-0.1,0.6c-0.5,1-0.8,1.9-0.8,2.6
		C170.1,22.5,171.7,23.6,173.8,23.6z"/>
	<path class="st1" d="M184.2,20.6c-0.5,0-0.9-0.1-1.3-0.4c-0.5-0.4-0.8-1.3-1-2.3c-0.1-0.8-0.2-1.7-0.2-2.8
		c-0.1-1.5-0.2-3.8-0.4-5.2c0-0.1,0-0.1,0-0.2c0-0.1,0-0.1,0.1-0.3c0.2-0.3,0.4-0.6,0.5-0.9c0.1-0.2,0.2-0.2,0.2-0.2
		c0.1,0,0.1,0.1,0.2,0.5c0.3,2.6,0.1,6.3,0.5,8.3c0.1,0.5,0.2,0.7,0.3,1c0.2,0.5,0.6,0.7,1.1,0.7c0.6,0,0.9,0.3,0.9,0.8
		c0,0.7-0.3,0.9-0.8,0.9H184.2z"/>
	<path class="st1" d="M184.9,8.1c-0.6,0-0.9-0.5-0.9-1.1c0-0.2,0-0.4,0.1-0.6c0-0.2,0.2-0.6,0.4-0.6c0.1,0,0.2,0.2,0.2,0.4v0.2
		c0,0.2,0.2,0.4,0.5,0.4h0c0.3,0,0.6-0.3,0.7-0.7c0-0.2,0.2-0.8,0.5-0.8c0.1,0,0.2,0.1,0.2,0.4c0,0.1,0.1,0.2,0.3,0.2
		c0.3,0,0.6-0.2,0.7-0.6c0.1-0.5,0.2-0.6,0.3-0.6c0.2,0,0.2,0.5,0.2,0.8c0,0.2,0,0.5-0.1,0.8c-0.2,0.5-0.5,0.9-1.1,0.9
		c-0.1,0-0.3-0.1-0.3-0.1c-0.1,0-0.1,0-0.2,0.1C185.8,7.7,185.5,8.1,184.9,8.1z M187.8,2.9C187.9,2.9,187.9,3,187.8,2.9
		c0,0.3-0.1,0.7-0.3,0.9c-0.1,0.1-0.2,0.1-0.4,0.2l-3,1.4c0,0-0.1,0-0.1,0c0-0.1,0.1-0.3,0.1-0.6c0.1-0.3,0.2-0.3,0.2-0.4
		c0.1-0.1,0.1-0.1,0.3-0.2L187.8,2.9z"/>
	<path class="st1" d="M187.9,17.8c0,0.4,0.5,0.9,1,1c0.1,0,0.3,0,0.4,0h0.1c0.6,0,0.6,0.5,0.6,0.8c0,0.2,0,0.9-0.6,0.9h-0.1
		c-0.1,0-0.2,0-0.4,0c-1.1-0.1-1.6-1.1-1.6-1.2c-0.2,0.5-1.1,1.3-2.8,1.3h-0.1c-0.5,0-0.7-0.4-0.7-0.9c0-0.4,0.2-0.9,0.7-0.9h0.5
		c0.7,0,1.8-0.1,2.5-1.2c0.2-0.3,0.3-0.4,0.4-0.4C187.8,17.3,187.9,17.5,187.9,17.8z M187.7,13c0.1-0.1,0.2-0.2,0.3-0.1
		c0.4,0.4,0.8,0.8,1.2,1.1c0.1,0.1,0.1,0.1,0,0.2c-0.3,0.4-0.7,0.7-1,1.1c-0.1,0.1-0.1,0.1-0.2,0c-0.3-0.2-0.7-0.6-1.1-0.9
		c-0.2,0.3-0.7,0.7-0.9,0.9c-0.1,0.1-0.1,0.1-0.3,0c-0.4-0.2-0.9-0.6-1.2-1c-0.1-0.1-0.1-0.1,0-0.2c0.3-0.3,0.7-0.8,1-1.1
		c0.1-0.1,0.1-0.1,0.2,0c0.3,0.3,0.8,0.8,1.1,0.9C187.1,13.6,187.5,13.2,187.7,13z M188,10.5c0.1,0,0.1,0.1,0,0.1
		c-0.2,0.2-0.8,0.9-1.1,1.3c-0.1,0.1-0.1,0.1-0.2,0c-0.3-0.2-1.1-0.8-1.3-1.1c-0.1-0.1-0.1-0.1,0-0.2c0.2-0.4,0.7-0.9,1-1.2
		c0.1-0.1,0.2-0.2,0.2-0.1C186.9,9.7,187.5,10.2,188,10.5z"/>
	<path class="st1" d="M191.1,19.8c-0.4,0.5-0.9,0.8-1.7,0.8h-0.2c-0.5,0-0.7-0.3-0.7-0.9c0-0.5,0.2-0.8,0.7-0.8h0.2
		c0.4,0,0.8-0.1,1.1-0.2c0.3-0.1,0.5-0.2,0.5-0.3c0-1.3-0.5-4-0.7-6.7c0-0.3-0.2-1.2-0.3-1.6c0-0.1,0-0.1,0-0.2c0-0.2,0.2-0.7,0.4-1
		c0.2-0.4,0.4-0.7,0.5-0.7c0.1,0,0.1,0.1,0.1,0.2c0.2,0.7,0.4,1.1,0.6,1.4c0,0.1,0.1,0.1,0.1,0.2c0,0,0,0.1,0,0.1
		c-0.1,0.2-0.3,0.6-0.4,0.8c0.1,2.6,0.5,4.6,0.5,5.9C191.9,18.1,191.6,19.1,191.1,19.8z"/>
	<path class="st1" d="M195.3,20.6c-0.1,0-0.1-0.1-0.1-0.5c0-2.3-0.8-8.5-0.8-9.5c0-0.5,0.3-1.3,0.6-1.8c0.1-0.2,0.2-0.4,0.3-0.4
		c0.1,0,0.1,0.1,0.1,0.6c0.1,1.6,0.5,5.5,0.5,8.2c0,1.1-0.1,2.1-0.3,2.6C195.6,20.3,195.5,20.6,195.3,20.6z"/>
	<path class="st1" d="M212.7,21.9c0.1,0,0.1,0,0.1,0c0,0.4-0.2,0.9-0.4,1l-3.1,1.7c-0.1,0-0.1,0-0.1,0c0-0.2,0.1-0.6,0.2-0.7
		c0.1-0.1,0.2-0.2,0.5-0.4L212.7,21.9z"/>
	<path class="st1" d="M216.4,16.3c0,0.3-0.2,1.4-0.5,2.1c-0.2,0.5-0.3,0.6-0.9,0.9c-1.2,0.6-4.3,1.5-7.4,1.5c-4,0-5.6-1.3-5.6-3.2
		c0-0.6,0.3-1.8,0.8-2.5c0.1-0.2,0.3-0.4,0.4-0.4c0,0,0.1,0,0.1,0.1c0,0.1-0.1,0.2-0.1,0.4c-0.2,0.5-0.4,1.1-0.4,1.5
		c0,0.8,1.1,2.4,4.9,2.4c2.8,0,5.8-0.6,7.1-1.1c0.7-0.2,0.7-0.3,0.7-0.8c0-0.3-0.1-0.6-0.2-1c-0.2,0.4-0.7,0.7-1.3,0.7
		c-0.8,0-1.3-0.5-1.3-1.5c0-1.4,1-3.1,1.5-3.1C215.3,12.3,216.4,14.3,216.4,16.3z M212.6,10.2c0.1,0,0.1,0.1,0,0.1
		c-0.2,0.2-0.8,0.9-1.1,1.3c-0.1,0.1-0.1,0.1-0.2,0c-0.3-0.2-1.1-0.8-1.3-1.1c-0.1-0.1-0.1-0.1,0-0.2c0.2-0.4,0.7-0.9,1-1.2
		c0.1-0.1,0.2-0.2,0.2-0.1C211.6,9.4,212.1,9.9,212.6,10.2z M214,14c-0.2,0-0.5,0.3-0.6,0.6c0,0,0,0.1,0,0.1c0,0,0,0.1,0,0.1
		c0.1,0.2,0.3,0.4,0.7,0.4c0.3,0,0.6-0.1,0.7-0.2c0,0,0,0,0-0.1C214.9,14.7,214.6,14,214,14z"/>
	<path class="st1" d="M220.1,12.6c0.5,0,1.3,0.7,1.3,1.5c0,0.3-0.1,0.6-0.1,0.9c-0.2,0.6-0.7,0.9-1.3,0.9c-0.6,0-1-0.5-1-1
		C218.8,14.3,219.7,12.6,220.1,12.6z M219.9,13.8c-0.2,0-0.5,0.5-0.5,0.7c0,0.2,0.3,0.4,0.6,0.4c0.4,0,0.8-0.2,0.8-0.4
		C220.8,14.5,220.4,13.8,219.9,13.8z"/>
	<path class="st1" d="M222.8,18.9c0.6,0,0.8,0.3,0.8,0.8c0,0.6-0.3,0.9-0.8,0.9h-0.2c-0.5,0-0.8,0-1-0.1c0,0.1,0,0.2,0,0.3
		c0,0.6-0.1,1.1-0.3,1.6c-0.4,0.9-1,2.5-2.7,3.3c-0.3,0.1-0.6,0.2-0.9,0.2c-0.7,0-1.8-0.4-2.6-0.8c-0.3-0.1-0.3-0.2-0.3-0.3
		c0-0.1,0.1-0.2,0.3-0.2c0.2,0,0.6,0.1,1,0.1c2.4,0,4.7-2.1,5-3.7c0-0.4-0.8-1.2-1-1.4c0,0,0-0.1,0-0.2c0-0.4,0.3-1.1,0.4-1.4
		c0.1-0.1,0.2-0.2,0.2-0.2c0.1,0,0.2,0.1,0.4,0.5c0.3,0.5,0.7,0.6,1.4,0.6H222.8z"/>
	<path class="st1" d="M228.8,10.8c0.1,0,0.1,0,0.1,0c0,0.4-0.2,0.9-0.4,1l-3.1,1.7c-0.1,0-0.1,0-0.1,0c0-0.2,0.1-0.6,0.2-0.7
		c0.1-0.1,0.2-0.2,0.5-0.4L228.8,10.8z"/>
	<path class="st1" d="M232.5,18.1c0,0,0,0-0.1,0.1c-0.1,0-0.2,0-0.3,0c-0.4,0-0.6,0-1.1-0.1c0,0.3,0.2,0.5,0.7,0.6
		c0.5,0.1,0.9,0.2,1.4,0.2h0.8c0.6,0,0.9,0.3,0.9,0.8c0,0.6-0.3,0.9-0.9,0.9h-0.7c-1,0-1.7-0.2-2.1-0.6c-0.4-0.4-0.5-1-0.5-1.9
		c-1,0-1.3,0.1-1.8,0.3c-0.3,0.1-0.7,0.3-1.5,0.7c-1.2,0.6-2.1,1-2.6,1.2c-0.6,0.2-1.3,0.4-1.9,0.4h-0.2c-0.5,0-0.8-0.3-0.8-0.9
		c0-0.6,0.3-0.8,0.8-0.8h0.2c1,0,1.9-0.1,2.6-0.3c0.7-0.2,1.7-0.5,2.9-1.1c-1.4-0.4-2.6-0.9-3.4-0.9c-0.2,0-0.3,0-0.5,0.1
		c-0.1,0.1-0.4,0.2-0.6,0.2c-0.1,0-0.1,0-0.1-0.2c0-0.3,0.3-0.8,0.9-1.4c0.4-0.3,0.7-0.4,1.1-0.4c0.1,0,0.2,0,0.3,0
		c1.4,0.3,3.1,1.1,4.5,1.3c0.9,0.2,1.9,0.3,2.6,0.3c0.1,0,0.2,0,0.3,0c0.1,0,0.1,0,0.1,0.1C233.3,16.9,232.8,17.8,232.5,18.1z"/>
	<path class="st1" d="M235.4,4.3c0.5,0,1.3,0.7,1.3,1.5c0,0.3-0.1,0.6-0.1,0.9c-0.2,0.6-0.7,0.9-1.3,0.9c-0.6,0-1-0.5-1-1
		C234.2,6,235,4.3,235.4,4.3z M235.3,5.5c-0.2,0-0.5,0.5-0.5,0.7c0,0.2,0.3,0.4,0.6,0.4c0.4,0,0.8-0.2,0.8-0.4
		C236.1,6.2,235.7,5.5,235.3,5.5z"/>
	<path class="st1" d="M233.7,18.9h0.2c0.4,0,0.8-0.1,1-0.3c0.3-0.3,0.4-0.8,0.4-1.4c0-1.1-0.1-3.4-0.2-6.9c0-0.4,0.1-0.8,0.4-1.3
		c0.1-0.2,0.3-0.5,0.4-0.5c0.1,0,0.2,0.1,0.2,0.6c0.2,2.6,0.3,6,0.5,8.4c0.1,0.5,0.3,0.8,0.6,1.1c0.2,0.2,0.5,0.3,0.7,0.3h0.2
		c0.5,0,0.7,0.3,0.7,0.8c0,0.6-0.3,0.9-0.7,0.9h-0.2c-1.1,0-1.8-0.8-2.1-1.8c-0.2,1.2-0.8,1.8-1.8,1.8h-0.2c-0.5,0-0.8-0.3-0.8-0.9
		C232.9,19.1,233.2,18.9,233.7,18.9z"/>
	<path class="st1" d="M241.3,21.9c0.1,0,0.1,0,0.1,0c0,0.4-0.2,0.9-0.4,1l-3.1,1.7c-0.1,0-0.1,0-0.1,0c0-0.2,0.1-0.6,0.2-0.7
		c0.1-0.1,0.2-0.2,0.5-0.4L241.3,21.9z"/>
	<path class="st1" d="M240.3,16.8c0,1.2-0.3,2.2-0.8,3c-0.4,0.5-0.9,0.8-1.7,0.8h-0.2c-0.5,0-0.7-0.3-0.7-0.9c0-0.5,0.2-0.8,0.7-0.8
		h0.2c0.8,0,1.5-0.3,1.6-0.5v0c0-1.3-0.5-4.5-0.7-7.1c0-0.3-0.2-1-0.3-1.3c0-0.1,0-0.1,0-0.2c0,0,0-0.1,0-0.1c0-0.1,0.1-0.3,0.3-0.6
		c0.2-0.4,0.5-0.8,0.6-0.8c0.1,0,0.1,0.1,0.1,0.2c0.2,0.7,0.4,1.1,0.6,1.3c0,0.1,0.1,0.1,0.1,0.2c0,0,0,0.1,0,0.2
		c-0.1,0.2-0.2,0.6-0.3,0.8C239.9,13.6,240.3,15.6,240.3,16.8z"/>
	<path class="st0" d="M249.1,3.8c0.1,0.1,0.1,0.4,0.1,0.6c0,0.4-0.1,0.7-0.3,1.1c0.1,0.1,0.2,0.2,0.2,0.3c0,0.2-0.1,0.5-0.3,0.7
		l-0.3-0.3c-0.4,0.6-0.8,1-1.3,1.2c-0.4,0.2-1.5,0.5-2.1,0.6c-0.2,0-0.3,0-0.3,0c0,0,0-0.1,0.1-0.1c1.7-0.9,2.7-1.5,3.1-1.9
		c-0.3-0.2-0.6-0.5-0.6-0.9c0-0.3,0.2-0.6,0.5-0.9c0.3-0.3,0.6-0.4,0.8-0.4C248.9,3.5,249,3.6,249.1,3.8z M246,4
		c0.7-1.2,2.1-2.2,3.5-2.2c0.8,0,2,0.3,2,1c0,0.8-1.1,2-1.8,2.5c0,0,0,0,0,0c0,0-0.2-0.2-0.2-0.2c0,0,0,0,0,0c0.7-0.6,1-1,1-1.4
		c-0.1-0.5-0.9-0.8-1.4-0.8c-1.1,0-2.8,1-2.8,2.3c0,0.2,0.2,0.4,0.5,0.6c0,0,0,0,0,0.1c-0.1,0.2-0.3,0.4-0.7,0.7c0,0-0.1,0-0.1,0
		c-0.1,0-0.5-0.3-0.5-0.7C245.4,5.3,245.7,4.5,246,4z M247.9,4.6c0,0.2,0.2,0.3,0.5,0.5c0.1-0.1,0.1-0.2,0.1-0.4
		c0-0.2-0.1-0.3-0.2-0.3C248.2,4.3,248,4.4,247.9,4.6z"/>
	<path class="st0" d="M249.1,9.2c0.1-0.1,0.2-0.2,0.3-0.1c0.4,0.4,0.8,0.8,1.2,1.1c0.1,0.1,0.1,0.1,0,0.2c-0.3,0.4-0.7,0.7-1,1.1
		c-0.1,0.1-0.1,0.1-0.2,0c-0.3-0.2-0.7-0.6-1.1-0.9c-0.2,0.3-0.7,0.7-0.9,0.9c-0.1,0.1-0.1,0.1-0.3,0c-0.4-0.2-0.9-0.6-1.2-1
		c-0.1-0.1-0.1-0.1,0-0.2c0.3-0.3,0.7-0.8,1-1.1c0.1-0.1,0.1-0.1,0.2,0c0.3,0.3,0.8,0.8,1.1,0.9C248.5,9.9,249,9.4,249.1,9.2z
		 M251.4,18.5c0.4,0.2,0.7,0.3,0.9,0.3h0.3c0.5,0,0.8,0.3,0.8,0.8c0,0.6-0.3,0.9-0.8,0.9h-0.2c-0.6,0-1.1-0.2-1.7-0.7
		c-0.5-0.5-0.9-1.2-1-2.3c-0.2,0.3-0.3,0.5-0.6,0.8c-0.5,0.3-1.2,0.5-2,0.5c-0.6,0-1-0.1-1-0.5c0.2-1.7,0.5-1.9,1.3-2.6
		c0.3-0.3,1.4-0.9,1.8-1.2c0-0.2,0-0.3,0-0.4c0-0.4,0.1-0.6,0.3-0.9c0.1-0.2,0.2-0.4,0.3-0.4c0.1,0,0.1,0.1,0.2,0.4
		c0.3,1.5,0.4,2.8,0.6,3.6C250.4,17.6,250.8,18.1,251.4,18.5z M249.1,15.5c-0.7,0.5-1.9,1.2-1.9,1.4c0,0.1,0.2,0.2,0.6,0.2
		c0.5,0,1.1-0.1,1.6-0.4C249.3,16.2,249.2,16.1,249.1,15.5z"/>
	<path class="st0" d="M256.2,5.3c0.1,0,0.1,0,0.1,0c0,0.4-0.2,0.9-0.4,1l-3.1,1.7c-0.1,0-0.1,0-0.1,0c0-0.2,0.1-0.6,0.2-0.7
		c0.1-0.1,0.2-0.2,0.5-0.4L256.2,5.3z"/>
	<path class="st0" d="M258.3,18.9c0.5,0,0.7,0.3,0.7,0.8c0,0.6-0.2,0.9-0.7,0.9h-0.2c-1.6,0-2.6-0.3-3.3-0.7
		c-0.6,0.4-1.4,0.7-2.4,0.7h-0.2c-0.5,0-0.7-0.3-0.7-0.9c0-0.5,0.2-0.8,0.7-0.8h0.2c0.7,0,1.1-0.1,1.3-0.3c-0.1-0.2-0.1-0.4-0.1-0.6
		c0-1.7,1.9-3.9,3-3.9c0.6,0,1,0.7,1,1.6c0,0.9-0.4,2.1-1.1,2.8c0.3,0.2,0.9,0.3,1.6,0.3H258.3z M256.4,10.5c0.1,0,0.1,0.1,0,0.1
		c-0.2,0.2-0.8,0.9-1.1,1.3c-0.1,0.1-0.1,0.1-0.2,0c-0.3-0.2-1.1-0.8-1.3-1.1c-0.1-0.1-0.1-0.1,0-0.2c0.2-0.4,0.7-0.9,1-1.2
		c0.1-0.1,0.2-0.2,0.2-0.1C255.3,9.7,255.8,10.2,256.4,10.5z M255.9,15.9c-0.6,0-1.2,0.7-1.2,0.9c0,0.4,0.3,0.7,0.9,1.1
		c0.2-0.1,1.1-0.7,1.1-1C256.6,16.3,256.4,15.9,255.9,15.9z"/>
	<path class="st0" d="M265.2,22.2c0.1,0,0.1,0,0.1,0c0,0.4-0.2,0.9-0.4,1l-3.1,1.7c-0.1,0-0.1,0-0.1,0c0-0.2,0.1-0.6,0.2-0.7
		c0.1-0.1,0.2-0.2,0.5-0.4L265.2,22.2z"/>
	<path class="st0" d="M261.4,21.5c-0.1,0-0.1-0.1-0.1-0.2c0-0.1,0-0.2,0-0.2c0.1-0.2,0.2-0.5,0.3-0.8c-0.8-0.3-1.3-0.8-1.5-1.4
		c-0.6,1.1-1.2,1.7-2,1.7H258c-0.5,0-0.7-0.3-0.7-0.9c0-0.6,0.3-0.9,0.7-0.9h0.2c1,0,1.6-0.6,2.1-1.7c0.2-0.5,0.3-0.7,0.5-0.7
		c0.2,0,0.2,0.2,0.2,0.5c0,0.6,0.3,1.4,1.7,1.7c1.5-1.9,4.2-4.1,5.4-4.1c0.4,0,1,0.2,1.4,0.5c0.5,0.3,0.7,0.7,0.7,1.1
		c0,0.6-0.3,1.6-0.8,2.4c-0.6,0.7-1.9,1.3-3.4,1.7c-0.9,0.2-1.7,0.3-2.5,0.3c-0.5,0-1-0.1-1.3-0.1c-0.2,0.2-0.3,0.5-0.4,0.7
		C261.6,21.3,261.5,21.5,261.4,21.5z M269.2,17.5c0-0.4-1.2-1.1-1.9-1.1c-1.1,0-2.9,1.4-4,2.5c0.2,0,0.3,0,0.5,0
		C265.9,18.9,268.6,18,269.2,17.5C269.2,17.5,269.2,17.5,269.2,17.5z"/>
	<path class="st0" d="M281.3,11.7c0.1,0,0.1,0,0.1,0c0,0.4-0.2,0.9-0.4,1l-3.1,1.7c-0.1,0-0.1,0-0.1,0c0-0.2,0.1-0.6,0.2-0.7
		c0.1-0.1,0.2-0.2,0.5-0.4L281.3,11.7z"/>
	<path class="st0" d="M275.5,25.1c-0.2-0.1-0.3-0.2-0.3-0.3c0-0.1,0.1-0.1,0.3-0.1c0.2,0,0.8,0.1,1.4,0.1c0.5,0,0.9-0.1,1.6-0.5
		c1.8-0.9,2.9-2.2,2.9-3.1c0-0.1,0-0.3-0.1-0.5h-0.6c-0.4,0-1.1-0.1-1.6-0.3c-0.5-0.3-0.7-0.7-0.7-1.1c0-0.4,0.2-1.1,0.5-1.7
		c0.4-0.9,0.9-1.7,1.4-1.7c0.5,0,1,0.4,1.3,0.9c0.4,0.6,0.5,1.4,0.6,2.1h0.7c0.5,0,0.7,0.3,0.7,0.8c0,0.6-0.2,0.9-0.7,0.9l-0.8,0
		c-0.1,2.6-1,4.3-3.1,5.1c-0.1,0-0.3,0.1-0.5,0.1C277.7,25.9,276.5,25.5,275.5,25.1z M280.1,17.8c-0.1-0.1-0.2-0.2-0.4-0.2
		c-0.4,0-0.6,0.4-0.6,0.6c0,0.2,0.2,0.4,0.6,0.5c0.3,0.1,0.7,0.2,0.9,0.2c0.1,0,0.2,0,0.2-0.1C280.8,18.7,280.5,18.1,280.1,17.8z"/>
	<path class="st0" d="M286.9,7.4c0,0.4-0.1,0.7-0.2,1.1c0.2,0.1,0.3,0.2,0.3,0.3c0,0.3-0.1,0.6-0.2,0.7c0,0.1-0.1,0.1-0.1,0.1
		l-0.4-0.2c-0.4,0.6-1,1.3-1.9,1.7c-0.3,0.2-0.7,0.3-1.1,0.3c-0.2,0-0.3,0-0.3-0.1c0-0.1,0.2-0.1,0.4-0.3c0.6-0.4,1.9-1.3,2.3-1.9
		c-0.3-0.2-0.8-0.5-0.8-1c0-0.3,0.2-0.6,0.4-1c0.3-0.4,0.6-0.6,0.9-0.6C286.8,6.5,286.9,7,286.9,7.4z M285.6,7.8
		C285.5,7.8,285.5,7.8,285.6,7.8c0,0.1,0.3,0.4,0.6,0.5c0.1-0.1,0.1-0.3,0.1-0.5c0-0.2-0.1-0.3-0.3-0.3
		C285.8,7.4,285.7,7.6,285.6,7.8z"/>
	<path class="st0" d="M290.2,18c0,1.2-0.6,1.9-1.3,1.9c-0.2,0-0.8-0.1-1.2-0.2c-0.6-0.2-1.1-0.3-1.8-0.5c-1.2,0.9-2.3,1.4-3.3,1.4
		h-0.2c-0.5,0-0.8-0.3-0.8-0.9c0-0.6,0.3-0.9,0.8-0.9h0.2c0.4,0,1-0.1,1.6-0.3c-0.1-0.2-0.2-0.6-0.2-0.9c0-0.9,0.4-2,0.8-2.6
		c-0.1-0.1-0.1-0.3-0.1-0.5c0-0.2,0.1-0.8,0.3-1.2c0.1-0.2,0.2-0.4,0.4-0.4C286.7,13,290.1,15.4,290.2,18z M287,16.9
		c0-0.7-0.9-1.4-1.1-1.4c-0.1,0-0.4,0.2-0.7,0.4c-0.3,0.3-0.5,0.6-0.5,0.8c0.1,0.7,0.7,0.9,1.3,1C286.2,17.5,287,17.1,287,16.9z
		 M289.6,18.6C289.6,18.6,289.6,18.5,289.6,18.6c-0.1-0.8-0.9-1.9-1.9-2.5c0,1.1-0.5,1.7-0.5,1.8C288.1,18.1,288.9,18.6,289.6,18.6z
		"/>
	<path class="st0" d="M300.1,8.7c0.1,0,0.3,0.3,0.3,0.4c-1.7,1.5-2.9,3.6-2.9,7.1c0,3.1,0.9,5.6,2.7,7.3c0,0.1-0.2,0.4-0.3,0.4
		c-1.1-0.5-3.7-3.2-3.7-7.5C296.2,12.7,298,10.1,300.1,8.7z"/>
	<path class="st0" d="M307.6,17c-0.1,0.5-0.3,1.2-0.6,1.5c-0.1,0.1-0.1,0.1-0.1,0.1c0,0-0.1,0-0.1,0c-0.2-0.1-0.5-0.1-1.1-0.1
		c-1.2,0-2.7,0.3-2.8,0.8c0,0.6,0.7,3,0.7,6c0,0.3,0,0.6,0,0.8c-0.1,1.3-0.4,2-0.6,2c-0.1,0-0.1-0.1-0.1-0.4c0-0.2,0-0.5,0-0.8
		c0-1.7-0.4-3.8-0.7-5.7c-0.1-0.5-0.1-1-0.1-1.4c0-1.4,0.6-1.9,0.9-2.2c0-0.1,0-0.2,0-0.2c0-1.1,0.7-2.9,1.8-2.9
		c1.3,0,2.4,1.5,3,2.5C307.6,16.9,307.6,16.9,307.6,17z M304.2,16.3c-0.5,0-0.6,0.5-0.7,0.9c0.5-0.3,1.3-0.4,1.7-0.4
		C304.9,16.5,304.6,16.3,304.2,16.3z"/>
	<path class="st0" d="M309.3,23.8c-0.1,0-0.3-0.3-0.3-0.4c1.7-1.6,2.9-3.6,2.9-7.1c0-3.1-0.9-5.5-2.7-7.3c0-0.1,0.3-0.4,0.3-0.4
		c1.1,0.5,3.8,3.2,3.8,7.5C313.2,19.8,311.4,22.4,309.3,23.8z"/>
	<path class="st0" d="M319.2,10.5c0.5,0,1.3,0.7,1.3,1.5c0,0.3-0.1,0.6-0.1,0.9c-0.2,0.6-0.7,0.9-1.3,0.9c-0.6,0-1-0.5-1-1
		C318,12.1,318.8,10.5,319.2,10.5z M319.1,11.7c-0.2,0-0.5,0.5-0.5,0.7c0,0.2,0.3,0.4,0.6,0.4c0.4,0,0.8-0.2,0.8-0.4
		C319.9,12.3,319.5,11.7,319.1,11.7z"/>
	<path class="st0" d="M321.4,17.5c0.3,0.7,0.3,1.3,0.3,2.3c0,3-0.8,4.9-3.1,5.8c-0.1,0-0.3,0.1-0.5,0.1c-0.7,0-2-0.3-3-0.8
		c-0.2-0.1-0.3-0.2-0.3-0.3c0-0.1,0.1-0.1,0.3-0.1c0.1,0,0.8,0.1,1.4,0.1c0.7,0,1.4-0.3,2.5-1c1.2-0.7,2.1-1.8,2.1-2.9
		c0-0.4-0.1-0.7-0.3-1.1c-0.2,0.5-0.6,0.9-1.2,0.9c-0.9,0-1.5-0.5-1.5-1.6c0-0.4,0.2-1,0.5-1.6c0.4-0.7,0.9-1.4,1.3-1.4
		C320.4,15.8,321,16.5,321.4,17.5z M319.5,17.5c-0.2,0-0.4,0.2-0.5,0.3c-0.1,0.1-0.2,0.3-0.2,0.4c0,0.3,0.5,0.5,0.9,0.5
		c0.3,0,0.5-0.1,0.6-0.3C320.2,17.9,319.7,17.5,319.5,17.5z"/>
	<path class="st0" d="M325.9,1c0.1,0,0.1,0,0.1,0c0,0.4-0.2,0.9-0.4,1l-3.1,1.7c-0.1,0-0.1,0-0.1,0c0-0.2,0.1-0.6,0.2-0.7
		c0.1-0.1,0.2-0.2,0.5-0.4L325.9,1z"/>
	<path class="st0" d="M325.7,6.8c-0.6,0.3-2,1.1-3,1.9c0,0-0.1,0-0.1,0c0,0,0,0,0-0.1c0-0.1,0.1-0.3,0.2-0.5
		c0.1-0.1,0.4-0.5,0.6-0.7c0,0,0.1-0.1,0.1-0.1c0,0,0-0.1-0.1-0.1c-0.4-0.2-0.6-0.3-0.7-0.7c0,0,0-0.1,0-0.1c0-0.7,0.7-1.7,1.4-2.2
		c0.2-0.2,0.5-0.3,0.8-0.3c0.4,0,0.6,0.2,0.6,0.5c0,0.2-0.1,0.4-0.2,0.7c-0.1,0.2-0.1,0.3-0.2,0.3c-0.1,0-0.1,0-0.2-0.1
		c-0.1-0.1-0.2-0.2-0.4-0.2c-0.6,0-1,0.3-1,0.5c0,0.2,1,0.6,1.4,0.6c0,0,0.1,0,0.1,0c0.2-0.1,0.8-0.3,1.1-0.5
		c0.1-0.1,0.2-0.1,0.2-0.1c0,0,0.1,0,0.1,0.1c0,0.1,0,0.2-0.1,0.3C326,6.6,325.9,6.7,325.7,6.8z M324.6,20.6c-0.1,0-0.1-0.1-0.1-0.5
		c0-2.3-0.8-8.5-0.8-9.5c0-0.5,0.3-1.3,0.6-1.8c0.1-0.2,0.2-0.4,0.3-0.4c0.1,0,0.1,0.1,0.1,0.6c0.1,1.6,0.5,5.5,0.5,8.2
		c0,1.1-0.1,2.1-0.3,2.6C324.9,20.3,324.8,20.6,324.6,20.6z"/>
	<path class="st0" d="M336.1,8.7c0.1,0,0.3,0.3,0.3,0.4c-1.7,1.5-2.9,3.6-2.9,7.1c0,3.1,0.9,5.6,2.7,7.3c0,0.1-0.2,0.4-0.3,0.4
		c-1.1-0.5-3.7-3.2-3.7-7.5C332.1,12.7,333.9,10.1,336.1,8.7z"/>
	<path class="st0" d="M338.9,21.1c-0.7-0.6-1-1.5-1-2.5c0-1.1,0.6-2.4,1-3c0.2-0.2,0.3-0.3,0.4-0.3c0.1,0,0.1,0.1,0.1,0.1
		c0,0.1-0.1,0.3-0.1,0.4c-0.3,0.6-0.7,1.4-0.7,2.1c0,0.6,0.4,1.2,1,1.6c0.6,0.4,1.3,0.6,2,0.6c1.8,0,4.3-0.8,4.8-2.1
		c0-0.1,0-0.2,0-0.3c0-0.8-0.2-1.7-0.6-2.4c-0.2-0.3-0.3-0.5-0.3-0.6c0,0,0-0.1,0-0.1c0-0.1,0.1-0.4,0.1-0.6
		c0.1-0.3,0.2-0.6,0.3-0.8c0.1-0.1,0.1-0.2,0.2-0.2c0,0,0.1,0,0.2,0.2c0.5,1.1,0.9,2.2,0.9,3.5c0,1-0.1,1.7-0.3,2
		c-0.3,0.6-0.5,1-0.8,1.4c-0.4,0.4-1,0.9-1.9,1.2c-0.8,0.3-1.8,0.5-3.1,0.5C340.3,21.9,339.5,21.7,338.9,21.1z M343.8,10.7
		c0.1,0,0.1,0.1,0,0.1c-0.2,0.2-0.8,0.9-1.1,1.3c-0.1,0.1-0.1,0.1-0.2,0c-0.3-0.2-1.1-0.8-1.3-1.1c-0.1-0.1-0.1-0.1,0-0.2
		c0.2-0.4,0.7-0.9,1-1.2c0.1-0.1,0.2-0.2,0.2-0.1C342.7,9.9,343.3,10.4,343.8,10.7z"/>
	<path class="st0" d="M348.9,23.8c-0.1,0-0.3-0.3-0.3-0.4c1.7-1.6,2.9-3.6,2.9-7.1c0-3.1-0.9-5.5-2.7-7.3c0-0.1,0.3-0.4,0.3-0.4
		c1.1,0.5,3.8,3.2,3.8,7.5C352.8,19.8,351,22.4,348.9,23.8z"/>
	<path class="st0" d="M361.2,15.6c-0.3,0-0.5-0.1-0.6-0.3c-0.2-0.2-0.3-0.6-0.3-0.8c0-0.3,0-0.5,0.1-0.8c0.1-0.3,0.3-0.6,0.5-0.6
		c0.1,0,0.1,0.1,0.1,0.2c0,0.2-0.1,0.3-0.1,0.5c0,0.3,0.3,0.5,0.6,0.5c0.3,0,0.5-0.3,0.7-0.6c0.2-0.5,0.5-0.7,0.7-0.7
		c0.1,0,0.1,0.1,0.1,0.2c0,0.1,0,0.1,0,0.3c0,0.2,0.1,0.4,0.4,0.4c0.2,0,0.5-0.2,0.7-0.5c0.2-0.4,0.3-0.5,0.4-0.5
		c0.1,0,0.1,0.2,0.1,0.4c0,0.4-0.1,0.8-0.3,1.2c-0.2,0.3-0.5,0.7-1,0.7c-0.3,0-0.5-0.1-0.6-0.2c-0.1-0.1-0.1,0-0.2,0.1
		C362,15.4,361.6,15.6,361.2,15.6z"/>
	<path class="st0" d="M365.2,29.3c0.1,0,0.1,0,0.1,0c0,0.4-0.2,0.9-0.4,1l-3.1,1.7c-0.1,0-0.1,0-0.1,0c0-0.2,0.1-0.6,0.2-0.7
		c0.1-0.1,0.2-0.2,0.5-0.4L365.2,29.3z"/>
	<path class="st0" d="M364.1,26.1c0.1-0.1,0.2-0.2,0.3-0.1c0.4,0.4,0.8,0.8,1.2,1.1c0.1,0.1,0.1,0.1,0,0.2c-0.3,0.4-0.7,0.7-1,1.1
		c-0.1,0.1-0.1,0.1-0.2,0c-0.3-0.2-0.7-0.6-1.1-0.9c-0.2,0.3-0.7,0.7-0.9,0.9c-0.1,0.1-0.1,0.1-0.3,0c-0.4-0.2-0.9-0.6-1.2-1
		c-0.1-0.1-0.1-0.1,0-0.2c0.3-0.3,0.7-0.8,1-1.1c0.1-0.1,0.1-0.1,0.2,0c0.3,0.3,0.8,0.8,1.1,0.9C363.6,26.8,364,26.3,364.1,26.1z"/>
	<path class="st0" d="M368.5,4.5c0.1,0,0.1,0,0.1,0c0,0.4-0.2,0.9-0.4,1l-3.1,1.7c-0.1,0-0.1,0-0.1,0c0-0.2,0.1-0.6,0.2-0.7
		c0.1-0.1,0.2-0.2,0.5-0.4L368.5,4.5z"/>
	<path class="st0" d="M368.4,9c0.1,0,0.1,0.1,0,0.1c-0.2,0.2-0.8,0.9-1.1,1.3c-0.1,0.1-0.1,0.1-0.2,0c-0.3-0.2-1.1-0.8-1.3-1.1
		c-0.1-0.1-0.1-0.1,0-0.2c0.2-0.4,0.7-0.9,1-1.2c0.1-0.1,0.2-0.2,0.2-0.1C367.3,8.2,367.8,8.6,368.4,9z"/>
	<path class="st0" d="M361.6,22.5c0.5,0.2,1,0.2,1.5,0.2c0.6,0,1.1-0.1,1.6-0.2c1.8-0.5,3.8-1.5,4.1-1.9c-0.5-0.4-2-1.1-3.3-1.1
		c-0.2,0-0.3-0.1-0.3-0.3c0-0.2,0.2-0.6,0.4-0.9c0.1-0.1,0.1-0.1,0.2-0.1c2.4-0.5,2.5-1.3,2.5-1.5c0-0.6-0.1-0.7-0.2-1.2
		c-0.3,0.4-0.8,0.7-1.4,0.7c-0.7,0-1.4-0.5-1.4-1.3c0-1.2,1.1-3.3,1.6-3.3c0.6,0,1.2,0.5,1.6,1.4c0.3,0.7,0.5,1.7,0.5,2.3
		c0,1.1-0.5,2.3-1.2,3.1c0.5,0.1,0.8,0.3,1,0.5c0.7,0.4,0.7,0.8,0.7,1.1c0,0.7-0.5,1.4-1.3,2.1c-1.5,1.3-4,2.2-5.7,2.2
		c-0.4,0-1-0.1-1.6-0.2c-1.2-0.4-2.4-1.3-2.4-3.4c0-1.2,0.5-2.8,1.1-3.8c0.2-0.3,0.3-0.4,0.5-0.4c0.2,0,0,0.3-0.1,0.6
		c-0.5,1-0.8,1.9-0.8,2.6C359.5,21.3,360.4,22.2,361.6,22.5z M366.7,13.5c-0.2,0-0.3,0.2-0.5,0.5c0,0.1-0.1,0.1-0.1,0.2
		c0,0.3,0.4,0.5,0.7,0.5c0.4,0,0.7-0.1,0.7-0.4C367.5,13.7,367,13.5,366.7,13.5z"/>
	<path class="st0" d="M374.2,12.6c0.5,0,1.3,0.7,1.3,1.5c0,0.3-0.1,0.6-0.1,0.9c-0.2,0.6-0.7,0.9-1.3,0.9c-0.6,0-1-0.5-1-1
		C373,14.3,373.9,12.6,374.2,12.6z M374.1,13.8c-0.2,0-0.5,0.5-0.5,0.7c0,0.2,0.3,0.4,0.6,0.4c0.4,0,0.8-0.2,0.8-0.4
		C375,14.5,374.5,13.8,374.1,13.8z"/>
	<path class="st0" d="M376.9,18.9c0.6,0,0.8,0.3,0.8,0.8c0,0.6-0.3,0.9-0.8,0.9h-0.2c-0.5,0-0.8,0-1-0.1c0,0.1,0,0.2,0,0.3
		c0,0.6-0.1,1.1-0.3,1.6c-0.4,0.9-1,2.5-2.7,3.3c-0.3,0.1-0.6,0.2-0.9,0.2c-0.7,0-1.8-0.4-2.6-0.8c-0.3-0.1-0.3-0.2-0.3-0.3
		c0-0.1,0.1-0.2,0.3-0.2c0.2,0,0.6,0.1,1,0.1c2.4,0,4.7-2.1,5-3.7c0-0.4-0.8-1.2-1-1.4c0,0,0-0.1,0-0.2c0-0.4,0.3-1.1,0.4-1.4
		c0.1-0.1,0.2-0.2,0.2-0.2c0.1,0,0.2,0.1,0.4,0.5c0.3,0.5,0.7,0.6,1.4,0.6H376.9z"/>
	<path class="st0" d="M381.3,10.1c0.1,0,0.1,0,0.1,0c0,0.4-0.2,0.9-0.4,1l-3.1,1.7c-0.1,0-0.1,0-0.1,0c0-0.2,0.1-0.6,0.2-0.7
		c0.1-0.1,0.2-0.2,0.5-0.4L381.3,10.1z"/>
	<path class="st0" d="M388.6,23.3c0.1,0,0.1,0,0.1,0c0,0.4-0.2,0.9-0.4,1l-3.1,1.7c-0.1,0-0.1,0-0.1,0c0-0.2,0.1-0.6,0.2-0.7
		c0.1-0.1,0.2-0.2,0.5-0.4L388.6,23.3z"/>
	<path class="st0" d="M388.1,21.6c0.1,0,0.1,0.1,0,0.1c-0.2,0.2-0.8,0.9-1.1,1.3c-0.1,0.1-0.1,0.1-0.2,0c-0.3-0.2-1.1-0.8-1.3-1.1
		c-0.1-0.1-0.1-0.1,0-0.2c0.2-0.4,0.7-0.9,1-1.2c0.1-0.1,0.2-0.2,0.2-0.1C387,20.8,387.5,21.2,388.1,21.6z"/>
	<path class="st0" d="M385.4,14c-0.1,0-0.2-0.1-0.2-0.4c-0.1-0.5-0.3-0.9-0.6-0.9c-0.2,0-0.5,0.2-0.8,0.7c-0.8,1.3-1.7,2.1-2.5,2.6
		c0,0,0,0.1,0.1,0.1c2.7,1,4.8,1.4,6.6,1.3c0.1,0,0.2,0,0,0.3c-0.1,0.3-0.5,0.7-1,1.3c-0.1,0.1-0.1,0.1-0.3,0.1
		c-0.7-0.1-1.3-0.2-1.9-0.2c-0.7,0-1.4,0.1-2,0.2c-0.5,0.2-1.3,0.4-2.1,0.7c-0.9,0.3-1.5,0.5-2,0.7c-0.5,0.1-1.1,0.2-1.9,0.2h-0.2
		c-0.4,0-0.7-0.3-0.7-0.9c0-0.5,0.2-0.8,0.6-0.8h0.2c1.6,0,3.3-0.3,5-0.8c0,0,0,0-0.1-0.1c-1-0.5-2.3-0.9-3.9-1
		c-0.1,0-0.1-0.1,0-0.2c0.1-0.2,0.5-0.6,1-1.1c0.2-0.2,0.7-0.5,1.6-0.9c1.4-0.6,2.9-1.6,3.7-3.2c0.2-0.5,0.7-0.8,1-0.8
		c0.6,0,0.8,0.9,0.8,1.4c0,0.4,0,0.7-0.1,1C385.8,13.6,385.6,14,385.4,14z"/>
	<path class="st0" d="M400.8,27c0.1,0,0.1,0,0.1,0c0,0.4-0.2,0.9-0.4,1l-3.1,1.7c-0.1,0-0.1,0-0.1,0c0-0.2,0.1-0.6,0.2-0.7
		c0.1-0.1,0.2-0.2,0.5-0.4L400.8,27z"/>
	<path class="st0" d="M399.2,14.7c0.1,0,0.1,0.1,0,0.1c-0.2,0.2-0.8,0.9-1.1,1.2c-0.1,0.1-0.1,0.1-0.2,0c-0.3-0.2-1.1-0.8-1.3-1.1
		c-0.1-0.1-0.1-0.1,0-0.2c0.2-0.4,0.7-0.9,1-1.2c0.1-0.1,0.2-0.2,0.2-0.1C398.1,13.8,398.7,14.3,399.2,14.7z"/>
	<path class="st0" d="M404.4,25.3c0.1-0.1,0.2-0.2,0.3-0.1c0.4,0.4,0.8,0.8,1.2,1.1c0.1,0.1,0.1,0.1,0,0.2c-0.3,0.4-0.7,0.7-1,1.1
		c-0.1,0.1-0.1,0.1-0.2,0c-0.3-0.2-0.7-0.6-1.1-0.9c-0.2,0.3-0.7,0.7-0.9,0.9c-0.1,0.1-0.1,0.1-0.3,0c-0.4-0.2-0.9-0.6-1.2-1
		c-0.1-0.1-0.1-0.1,0-0.2c0.3-0.3,0.7-0.8,1-1.1c0.1-0.1,0.1-0.1,0.2,0c0.3,0.3,0.8,0.8,1.1,0.9C403.8,25.9,404.2,25.4,404.4,25.3z"
		/>
	<path class="st0" d="M404.8,18.1c0,1.5-1.1,2.4-2.1,2.4h-0.1c0,0.1,0,0.3,0,0.5c0,0.2,0,0.5,0,0.7c0,0.6-0.1,1.1-0.3,1.4
		c-0.3,0.7-0.5,1.1-0.9,1.4c-1.2,1.3-3,1.7-4.8,1.8c-1.1,0-1.9-0.3-2.7-1.1c-0.4-0.5-0.7-1.3-0.7-2.2c0-1,0.4-2,0.9-2.9
		c0.2-0.3,0.4-0.5,0.5-0.5c0.1,0,0.1,0.1,0.1,0.2c0,0.1-0.1,0.3-0.2,0.5c-0.5,1-0.6,1.6-0.6,2c0,0.7,0.5,1.2,1,1.6
		c0.6,0.4,1.3,0.6,2,0.6c1.8,0,4.3-0.8,4.8-2.1c-0.1-1.3-0.3-1.7-0.7-2.9c0,0,0-0.1,0-0.1c0-0.4,0.3-1,0.5-1.5
		c0-0.1,0.1-0.1,0.1-0.1c0.1,0,0.1,0.1,0.1,0.1c0.3,0.4,0.7,0.7,1.1,0.7c0.1,0,0.1,0,0.2,0c0.6,0,1.2-0.5,1.3-1.2
		c0.1-0.3,0.1-0.5,0.2-0.5c0.2,0,0.3,0.3,0.4,0.7C404.8,17.9,404.8,18,404.8,18.1z"/>
	<path class="st0" d="M405.7,25.1c-0.2-0.1-0.3-0.2-0.3-0.3c0-0.1,0.1-0.1,0.3-0.1c0.2,0,0.8,0.1,1.4,0.1c0.5,0,0.9-0.1,1.6-0.5
		c1.8-0.9,2.9-2.2,2.9-3.1c0-0.1,0-0.3-0.1-0.5h-0.6c-0.4,0-1.1-0.1-1.6-0.3c-0.5-0.3-0.7-0.7-0.7-1.1c0-0.4,0.2-1.1,0.5-1.7
		c0.4-0.9,0.9-1.7,1.4-1.7c0.5,0,1,0.4,1.3,0.9c0.4,0.6,0.5,1.4,0.6,2.1h0.7c0.5,0,0.7,0.3,0.7,0.8c0,0.6-0.2,0.9-0.7,0.9l-0.8,0
		c-0.1,2.6-1,4.3-3.1,5.1c-0.1,0-0.3,0.1-0.5,0.1C407.9,25.9,406.7,25.5,405.7,25.1z M410.3,17.8c-0.1-0.1-0.2-0.2-0.4-0.2
		c-0.4,0-0.6,0.4-0.6,0.6c0,0.2,0.2,0.4,0.6,0.5c0.3,0.1,0.7,0.2,0.9,0.2c0.1,0,0.2,0,0.2-0.1C411,18.7,410.7,18.1,410.3,17.8z"/>
	<path class="st0" d="M416.3,17.8c0,0.4,0.5,0.9,1,1c0.1,0,0.3,0,0.4,0h0.1c0.6,0,0.6,0.5,0.6,0.8c0,0.2,0,0.9-0.6,0.9h-0.1
		c-0.1,0-0.2,0-0.4,0c-1.1-0.1-1.6-1.1-1.6-1.2c-0.2,0.5-1.1,1.3-2.8,1.3h-0.1c-0.5,0-0.7-0.4-0.7-0.9c0-0.4,0.2-0.9,0.7-0.9h0.5
		c0.7,0,1.8-0.1,2.5-1.2c0.2-0.3,0.3-0.4,0.4-0.4C416.3,17.3,416.3,17.5,416.3,17.8z M417,13.4c0.1,0,0.1,0.1,0,0.1
		c-0.2,0.2-0.8,0.9-1.1,1.3c-0.1,0.1-0.1,0.1-0.2,0c-0.3-0.2-1.1-0.8-1.3-1.1c-0.1-0.1-0.1-0.1,0-0.2c0.2-0.4,0.7-0.9,1-1.2
		c0.1-0.1,0.2-0.2,0.2-0.1C415.9,12.6,416.4,13.1,417,13.4z"/>
	<path class="st0" d="M418.9,11.4c-0.6,0-0.9-0.5-0.9-1.1c0-0.2,0-0.4,0.1-0.6c0-0.2,0.2-0.6,0.4-0.6c0.1,0,0.2,0.2,0.2,0.4v0.2
		c0,0.2,0.2,0.4,0.5,0.4h0c0.3,0,0.6-0.3,0.7-0.7c0-0.2,0.2-0.8,0.5-0.8c0.1,0,0.2,0.1,0.2,0.4c0,0.1,0.1,0.2,0.3,0.2
		c0.3,0,0.6-0.2,0.7-0.6c0.1-0.5,0.2-0.6,0.3-0.6c0.2,0,0.2,0.5,0.2,0.8c0,0.2,0,0.5-0.1,0.8c-0.2,0.5-0.5,0.9-1.1,0.9
		c-0.1,0-0.3-0.1-0.3-0.1c-0.1,0-0.1,0-0.2,0.1C419.8,11,419.4,11.4,418.9,11.4z M421.8,6.2C421.9,6.2,421.9,6.3,421.8,6.2
		c0,0.3-0.1,0.7-0.3,0.9c-0.1,0.1-0.2,0.1-0.4,0.2l-3,1.4c0,0-0.1,0-0.1,0c0-0.1,0.1-0.3,0.1-0.6c0.1-0.3,0.2-0.3,0.2-0.4
		c0.1-0.1,0.1-0.1,0.3-0.2L421.8,6.2z"/>
	<path class="st0" d="M421.3,17.8c0,0.4,0.5,0.9,1,1c0.1,0,0.3,0,0.4,0h0.1c0.6,0,0.6,0.5,0.6,0.8c0,0.2,0,0.9-0.6,0.9h-0.1
		c-0.1,0-0.2,0-0.4,0c-1.1-0.1-1.6-1.1-1.6-1.2c-0.2,0.5-1.1,1.3-2.8,1.3h-0.1c-0.5,0-0.7-0.4-0.7-0.9c0-0.4,0.2-0.9,0.7-0.9h0.5
		c0.7,0,1.8-0.1,2.5-1.2c0.2-0.3,0.3-0.4,0.4-0.4C421.3,17.3,421.3,17.5,421.3,17.8z M421.2,12.7c0.1-0.1,0.2-0.2,0.3-0.1
		c0.4,0.4,0.8,0.8,1.2,1.1c0.1,0.1,0.1,0.1,0,0.2c-0.3,0.4-0.7,0.7-1,1.1c-0.1,0.1-0.1,0.1-0.2,0c-0.3-0.2-0.7-0.6-1.1-0.9
		c-0.2,0.3-0.7,0.7-0.9,0.9c-0.1,0.1-0.1,0.1-0.3,0c-0.4-0.2-0.9-0.6-1.2-1c-0.1-0.1-0.1-0.1,0-0.2c0.3-0.3,0.7-0.8,1-1.1
		c0.1-0.1,0.1-0.1,0.2,0c0.3,0.3,0.8,0.8,1.1,0.9C420.6,13.4,421,12.9,421.2,12.7z"/>
	<path class="st0" d="M424.6,19.8c-0.4,0.5-0.9,0.8-1.7,0.8h-0.2c-0.5,0-0.7-0.3-0.7-0.9c0-0.5,0.2-0.8,0.7-0.8h0.2
		c0.4,0,0.8-0.1,1.1-0.2c0.3-0.1,0.5-0.2,0.5-0.3c0-1.3-0.5-4-0.7-6.7c0-0.3-0.2-1.2-0.3-1.6c0-0.1,0-0.1,0-0.2c0-0.2,0.2-0.7,0.4-1
		c0.2-0.4,0.4-0.7,0.5-0.7c0.1,0,0.1,0.1,0.1,0.2c0.2,0.7,0.4,1.1,0.6,1.4c0,0.1,0.1,0.1,0.1,0.2c0,0,0,0.1,0,0.1
		c-0.1,0.2-0.3,0.6-0.4,0.8c0.1,2.6,0.5,4.6,0.5,5.9C425.4,18.1,425.1,19.1,424.6,19.8z"/>
	<path class="st0" d="M428.8,20.6c-0.1,0-0.1-0.1-0.1-0.5c0-2.3-0.8-8.5-0.8-9.5c0-0.5,0.3-1.3,0.6-1.8c0.1-0.2,0.2-0.4,0.3-0.4
		c0.1,0,0.1,0.1,0.1,0.6c0.1,1.6,0.5,5.5,0.5,8.2c0,1.1-0.1,2.1-0.3,2.6C429.1,20.3,428.9,20.6,428.8,20.6z"/>
	<path class="st0" d="M441.3,11.3c0.1,0,0.1,0,0.1,0c0,0.4-0.2,0.9-0.4,1L438,14c-0.1,0-0.1,0-0.1,0c0-0.2,0.1-0.6,0.2-0.7
		c0.1-0.1,0.2-0.2,0.5-0.4L441.3,11.3z"/>
	<path class="st0" d="M441.9,17.5c0.3,0.7,0.3,1.3,0.3,2.3c0,3-0.8,4.9-3.1,5.8c-0.1,0-0.3,0.1-0.5,0.1c-0.7,0-2-0.3-3-0.8
		c-0.2-0.1-0.3-0.2-0.3-0.3c0-0.1,0.1-0.1,0.3-0.1c0.1,0,0.8,0.1,1.4,0.1c0.7,0,1.4-0.3,2.5-1c1.2-0.7,2.1-1.8,2.1-2.9
		c0-0.4-0.1-0.7-0.3-1.1c-0.2,0.5-0.6,0.9-1.2,0.9c-0.9,0-1.5-0.5-1.5-1.6c0-0.4,0.2-1,0.5-1.6c0.4-0.7,0.9-1.4,1.3-1.4
		C440.9,15.8,441.5,16.5,441.9,17.5z M440,17.5c-0.2,0-0.4,0.2-0.5,0.3c-0.1,0.1-0.2,0.3-0.2,0.4c0,0.3,0.5,0.5,0.9,0.5
		c0.3,0,0.5-0.1,0.6-0.3C440.8,17.9,440.3,17.5,440,17.5z"/>
	<path class="st0" d="M446.5,1c0.1,0,0.1,0,0.1,0c0,0.4-0.2,0.9-0.4,1l-3.1,1.7c-0.1,0-0.1,0-0.1,0c0-0.2,0.1-0.6,0.2-0.7
		c0.1-0.1,0.2-0.2,0.5-0.4L446.5,1z"/>
	<path class="st0" d="M446.3,6.8c-0.6,0.3-2,1.1-3,1.9c0,0-0.1,0-0.1,0s0,0,0-0.1c0-0.1,0.1-0.3,0.2-0.5c0.1-0.1,0.4-0.5,0.6-0.7
		c0,0,0.1-0.1,0.1-0.1c0,0,0-0.1-0.1-0.1c-0.4-0.2-0.6-0.3-0.7-0.7c0,0,0-0.1,0-0.1c0-0.7,0.7-1.7,1.4-2.2c0.2-0.2,0.5-0.3,0.8-0.3
		c0.4,0,0.6,0.2,0.6,0.5c0,0.2-0.1,0.4-0.2,0.7c-0.1,0.2-0.1,0.3-0.2,0.3c-0.1,0-0.1,0-0.2-0.1c-0.1-0.1-0.2-0.2-0.4-0.2
		c-0.6,0-1,0.3-1,0.5c0,0.2,1,0.6,1.4,0.6c0,0,0.1,0,0.1,0c0.2-0.1,0.8-0.3,1.1-0.5c0.1-0.1,0.2-0.1,0.2-0.1c0,0,0.1,0,0.1,0.1
		c0,0.1,0,0.2-0.1,0.3C446.5,6.6,446.4,6.7,446.3,6.8z M445.2,20.6c-0.1,0-0.1-0.1-0.1-0.5c0-2.3-0.8-8.5-0.8-9.5
		c0-0.5,0.3-1.3,0.6-1.8c0.1-0.2,0.2-0.4,0.3-0.4c0.1,0,0.1,0.1,0.1,0.6c0.1,1.6,0.5,5.5,0.5,8.2c0,1.1-0.1,2.1-0.3,2.6
		C445.4,20.3,445.3,20.6,445.2,20.6z"/>
	<path class="st0" d="M455.9,21.3c0.1,0,0.1,0,0.1,0c0,0.4-0.2,0.9-0.4,1l-3.1,1.7c-0.1,0-0.1,0-0.1,0c0-0.2,0.1-0.6,0.2-0.7
		c0.1-0.1,0.2-0.2,0.5-0.4L455.9,21.3z"/>
	<path class="st0" d="M455,9.2c0.1-0.1,0.2-0.2,0.3-0.1c0.4,0.4,0.8,0.8,1.2,1.1c0.1,0.1,0.1,0.1,0,0.2c-0.3,0.4-0.7,0.7-1,1.1
		c-0.1,0.1-0.1,0.1-0.2,0c-0.3-0.2-0.7-0.6-1.1-0.9c-0.2,0.3-0.7,0.7-0.9,0.9c-0.1,0.1-0.1,0.1-0.3,0c-0.4-0.2-0.9-0.6-1.2-1
		c-0.1-0.1-0.1-0.1,0-0.2c0.3-0.3,0.7-0.8,1-1.1c0.1-0.1,0.1-0.1,0.2,0c0.3,0.3,0.8,0.8,1.1,0.9C454.4,9.9,454.8,9.4,455,9.2z
		 M457.3,18.5c0.4,0.2,0.7,0.3,0.9,0.3h0.3c0.5,0,0.8,0.3,0.8,0.8c0,0.6-0.3,0.9-0.8,0.9h-0.2c-0.6,0-1.1-0.2-1.7-0.7
		c-0.5-0.5-0.9-1.2-1-2.3c-0.2,0.3-0.3,0.5-0.6,0.8c-0.5,0.3-1.2,0.5-2,0.5c-0.6,0-1-0.1-1-0.5c0.2-1.7,0.5-1.9,1.3-2.6
		c0.3-0.3,1.4-0.9,1.8-1.2c0-0.2,0-0.3,0-0.4c0-0.4,0.1-0.6,0.3-0.9c0.1-0.2,0.2-0.4,0.3-0.4c0.1,0,0.1,0.1,0.2,0.4
		c0.3,1.5,0.4,2.8,0.6,3.6C456.3,17.6,456.7,18.1,457.3,18.5z M455,15.5c-0.7,0.5-1.9,1.2-1.9,1.4c0,0.1,0.2,0.2,0.6,0.2
		c0.5,0,1.1-0.1,1.6-0.4C455.2,16.2,455.1,16.1,455,15.5z"/>
	<path class="st0" d="M462.2,8.5c0.1,0,0.1,0,0.1,0c0,0.4-0.2,0.9-0.4,1l-3.1,1.7c-0.1,0-0.1,0-0.1,0c0-0.2,0.1-0.6,0.2-0.7
		c0.1-0.1,0.2-0.2,0.5-0.4L462.2,8.5z"/>
	<path class="st0" d="M461.7,17.8c0,0.4,0.5,0.9,1,1c0.1,0,0.3,0,0.4,0h0.1c0.6,0,0.6,0.5,0.6,0.8c0,0.2,0,0.9-0.6,0.9h-0.1
		c-0.1,0-0.2,0-0.4,0c-1.1-0.1-1.6-1.1-1.6-1.2c-0.2,0.5-1.1,1.3-2.8,1.3h-0.1c-0.5,0-0.7-0.4-0.7-0.9c0-0.4,0.2-0.9,0.7-0.9h0.5
		c0.7,0,1.8-0.1,2.5-1.2c0.2-0.3,0.3-0.4,0.4-0.4C461.7,17.3,461.7,17.5,461.7,17.8z M462.4,13.4c0.1,0,0.1,0.1,0,0.1
		c-0.2,0.2-0.8,0.9-1.1,1.3c-0.1,0.1-0.1,0.1-0.2,0c-0.3-0.2-1.1-0.8-1.3-1.1c-0.1-0.1-0.1-0.1,0-0.2c0.2-0.4,0.7-0.9,1-1.2
		c0.1-0.1,0.2-0.2,0.2-0.1C461.3,12.6,461.8,13.1,462.4,13.4z"/>
	<path class="st0" d="M468,21.9c0.1,0,0.1,0,0.1,0c0,0.4-0.2,0.9-0.4,1l-3.1,1.7c-0.1,0-0.1,0-0.1,0c0-0.2,0.1-0.6,0.2-0.7
		c0.1-0.1,0.2-0.2,0.5-0.4L468,21.9z"/>
	<path class="st0" d="M471.8,8.7C471.9,8.7,471.9,8.7,471.8,8.7c0.1,0.3-0.3,1-0.5,1.3c0,0.1-0.1,0.1-0.1,0.1
		c-0.5,0.2-4.4,1.7-6.2,2.9c1.7,0.9,3.3,2.9,3.3,4.1c0,1.2-0.3,2.1-1,2.7c-1.1,0.6-2.4,0.9-4.1,0.9h-0.2c-0.3,0-0.5-0.4-0.5-0.9
		c0-0.5,0.2-0.9,0.5-0.9h0.2c2.3,0,4.1-0.5,4.4-0.9c0-1.1-1.8-2.8-3.2-3.5c-0.2-0.1-0.4-0.2-0.5-0.4c-0.1-0.1-0.1-0.3-0.1-0.6
		c0-0.4,0.1-0.8,0.3-1c0.5-0.5,1.1-0.9,2.1-1.5c2.1-1.1,4.2-1.9,5.1-2.2C471.6,8.7,471.7,8.7,471.8,8.7z"/>
	<path class="st0" d="M475.9,20.6c-0.5,0-0.9-0.1-1.3-0.4c-0.5-0.4-0.8-1.3-1-2.3c-0.1-0.8-0.2-1.7-0.2-2.8
		c-0.1-1.5-0.2-3.8-0.4-5.2c0-0.1,0-0.1,0-0.2c0-0.1,0-0.1,0.1-0.3c0.2-0.3,0.4-0.6,0.5-0.9c0.1-0.2,0.2-0.2,0.2-0.2
		c0.1,0,0.1,0.1,0.2,0.5c0.3,2.6,0.1,6.3,0.5,8.3c0.1,0.5,0.2,0.7,0.3,1c0.2,0.5,0.6,0.7,1.1,0.7c0.6,0,0.9,0.3,0.9,0.8
		c0,0.7-0.3,0.9-0.8,0.9H475.9z"/>
	<path class="st0" d="M480.2,14.5c-0.6,0-0.9-0.5-0.9-1.1c0-0.2,0-0.4,0.1-0.6c0-0.2,0.2-0.6,0.4-0.6c0.1,0,0.2,0.2,0.2,0.4v0.2
		c0,0.2,0.2,0.4,0.5,0.4h0c0.3,0,0.6-0.3,0.7-0.7c0-0.2,0.2-0.8,0.5-0.8c0.1,0,0.2,0.1,0.2,0.4c0,0.1,0.1,0.2,0.3,0.2
		c0.3,0,0.6-0.2,0.7-0.6c0.1-0.5,0.2-0.6,0.3-0.6c0.2,0,0.2,0.5,0.2,0.8c0,0.2,0,0.5-0.1,0.8c-0.2,0.5-0.5,0.9-1.1,0.9
		c-0.1,0-0.3-0.1-0.3-0.1c-0.1,0-0.1,0-0.2,0.1C481.1,14.1,480.8,14.5,480.2,14.5z M483.1,9.3C483.2,9.3,483.2,9.3,483.1,9.3
		c0,0.3-0.1,0.7-0.3,0.9c-0.1,0.1-0.2,0.1-0.4,0.2l-3,1.4c0,0-0.1,0-0.1,0c0-0.1,0.1-0.3,0.1-0.6c0.1-0.3,0.2-0.3,0.2-0.4
		c0.1-0.1,0.1-0.1,0.3-0.2L483.1,9.3z"/>
	<path class="st0" d="M482.5,17.2c0.1,0,0.1,0.1,0.1,0.4c0,0.1,0,0.2,0,0.3c0,0.5,0.4,0.9,0.9,0.9c0.8,0,1.1-0.7,1.5-1.4
		c0-0.1,0.1-0.3,0.2-0.3c0.1,0,0.1,0.1,0.2,0.5c0.1,0.8,0.5,1.2,1.2,1.3h0.2c0.5,0,0.8,0.2,0.8,0.8c0,0.6-0.3,0.9-0.8,0.9h-0.2
		c-1,0-1.5-0.5-1.6-1.5c-0.2,0.7-0.9,1.5-1.7,1.5c-0.8,0-1.2-0.7-1.3-1.5c-0.3,0.8-1.2,1.4-2,1.4c-0.9,0-1.5-0.3-1.7-1.2
		c-0.1,0.3-0.3,0.6-0.6,0.8c-0.3,0.2-0.8,0.4-1.6,0.4h-0.2c-0.5,0-0.8-0.3-0.8-0.9c0-0.5,0.3-0.8,0.8-0.8h0.2c1.2,0,2-0.4,2.4-1.3
		c0-0.1,0.1-0.2,0.2-0.2c0.1,0,0.2,0.1,0.2,0.4c0,0.7,0.6,1,1.3,1c0.9,0,1.6-0.4,2.1-1.3C482.3,17.3,482.4,17.2,482.5,17.2z"/>
	<path class="st0" d="M488.4,19.8c-0.4,0.5-0.9,0.8-1.7,0.8h-0.2c-0.5,0-0.7-0.3-0.7-0.9c0-0.5,0.2-0.8,0.7-0.8h0.2
		c0.4,0,0.8-0.1,1.1-0.2c0.3-0.1,0.5-0.2,0.5-0.3c0-1.3-0.5-4-0.7-6.7c0-0.3-0.2-1.2-0.3-1.6c0-0.1,0-0.1,0-0.2c0-0.2,0.2-0.7,0.4-1
		c0.2-0.4,0.4-0.7,0.5-0.7c0.1,0,0.1,0.1,0.1,0.2c0.2,0.7,0.4,1.1,0.6,1.4c0,0.1,0.1,0.1,0.1,0.2c0,0,0,0.1,0,0.1
		c-0.1,0.2-0.3,0.6-0.4,0.8c0.1,2.6,0.5,4.6,0.5,5.9C489.2,18.1,488.9,19.1,488.4,19.8z"/>
	<path class="st0" d="M492.6,20.6c-0.1,0-0.1-0.1-0.1-0.5c0-2.3-0.8-8.5-0.8-9.5c0-0.5,0.3-1.3,0.6-1.8c0.1-0.2,0.2-0.4,0.3-0.4
		c0.1,0,0.1,0.1,0.1,0.6c0.1,1.6,0.5,5.5,0.5,8.2c0,1.1-0.1,2.1-0.3,2.6C492.9,20.3,492.8,20.6,492.6,20.6z"/>
	<path class="st0" d="M507,22.9c0.1,0,0.1,0,0.1,0c0,0.4-0.2,0.9-0.4,1l-3.1,1.7c-0.1,0-0.1,0-0.1,0c0-0.2,0.1-0.6,0.2-0.7
		c0.1-0.1,0.2-0.2,0.5-0.4L507,22.9z"/>
	<path class="st0" d="M500.6,21.1c-0.7-0.6-1-1.5-1-2.5c0-1.1,0.6-2.4,1-3c0.2-0.2,0.3-0.3,0.4-0.3c0.1,0,0.1,0.1,0.1,0.1
		c0,0.1-0.1,0.3-0.1,0.4c-0.3,0.6-0.7,1.4-0.7,2.1c0,0.6,0.4,1.2,1,1.6c0.6,0.4,1.3,0.6,2,0.6c1.8,0,4.3-0.8,4.8-2.1
		c0-0.1,0-0.2,0-0.3c0-0.8-0.2-1.7-0.6-2.4c-0.2-0.3-0.3-0.5-0.3-0.6c0,0,0-0.1,0-0.1c0-0.1,0.1-0.4,0.1-0.6
		c0.1-0.3,0.2-0.6,0.3-0.8c0.1-0.1,0.1-0.2,0.2-0.2c0,0,0.1,0,0.2,0.2c0.5,1.1,0.9,2.2,0.9,3.5c0,1-0.1,1.7-0.3,2
		c-0.3,0.6-0.5,1-0.8,1.4c-0.4,0.4-1,0.9-1.9,1.2c-0.8,0.3-1.8,0.5-3.1,0.5C502,21.9,501.2,21.7,500.6,21.1z M505.5,10.7
		c0.1,0,0.1,0.1,0,0.1c-0.2,0.2-0.8,0.9-1.1,1.3c-0.1,0.1-0.1,0.1-0.2,0c-0.3-0.2-1.1-0.8-1.3-1.1c-0.1-0.1-0.1-0.1,0-0.2
		c0.2-0.4,0.7-0.9,1-1.2c0.1-0.1,0.2-0.2,0.2-0.1C504.4,9.9,504.9,10.4,505.5,10.7z"/>
	<path class="st0" d="M508,25.1c-0.2-0.1-0.3-0.2-0.3-0.3c0-0.1,0.1-0.1,0.3-0.1c0.2,0,0.8,0.1,1.4,0.1c0.5,0,0.9-0.1,1.6-0.5
		c1.8-0.9,2.9-2.2,2.9-3.1c0-0.1,0-0.3-0.1-0.5h-0.6c-0.4,0-1.1-0.1-1.6-0.3c-0.5-0.3-0.7-0.7-0.7-1.1c0-0.4,0.2-1.1,0.5-1.7
		c0.4-0.9,0.9-1.7,1.4-1.7c0.5,0,1,0.4,1.3,0.9c0.4,0.6,0.5,1.4,0.6,2.1h0.7c0.5,0,0.7,0.3,0.7,0.8c0,0.6-0.2,0.9-0.7,0.9l-0.8,0
		c-0.1,2.6-1,4.3-3.1,5.1c-0.1,0-0.3,0.1-0.5,0.1C510.3,25.9,509,25.5,508,25.1z M512.7,17.8c-0.1-0.1-0.2-0.2-0.4-0.2
		c-0.4,0-0.6,0.4-0.6,0.6c0,0.2,0.2,0.4,0.6,0.5c0.3,0.1,0.7,0.2,0.9,0.2c0.1,0,0.2,0,0.2-0.1C513.4,18.7,513,18.1,512.7,17.8z"/>
	<path class="st0" d="M516.3,11.3c0,0-0.1,0-0.1,0c-0.2,0-0.4-0.1-0.6-0.3c-0.2-0.3-0.3-0.5-0.3-0.9c0-0.2,0-0.4,0.1-0.6
		c0.1-0.2,0.2-0.5,0.4-0.5c0.1,0,0.1,0.1,0.1,0.3c0,0.1,0,0.2,0,0.3c0,0.3,0.2,0.4,0.5,0.5h0c0.3,0,0.6-0.2,0.7-0.6
		c0.1-0.2,0.2-0.7,0.5-0.7c0.1,0,0.1,0.1,0.1,0.3v0.1c0,0.2,0.1,0.3,0.3,0.3c0,0,0.1,0,0.1,0c0.3-0.1,0.5-0.3,0.6-0.6
		c0.1-0.4,0.2-0.6,0.3-0.6c0.1,0,0.1,0.1,0.2,0.2c0,0.1,0,0.3,0,0.4c0,0.3-0.1,0.6-0.2,0.9c-0.2,0.4-0.5,0.8-1.1,0.8
		c-0.2,0-0.3-0.1-0.4-0.1c-0.1,0-0.1,0-0.1,0C517,11,516.7,11.3,516.3,11.3z M518.7,5.1c0,0.1,0,0.2,0,0.2c0,0.3-0.1,0.6-0.2,0.9
		c0.1,0.1,0.2,0.2,0.2,0.2c0,0.2-0.1,0.5-0.3,0.7L518.2,7c-0.4,0.6-0.7,1-1,1.2c-0.3,0.2-0.7,0.3-1.2,0.3c-0.3,0-0.3-0.1-0.2-0.1
		c1-0.6,1.7-1.2,2-1.6c-0.3-0.2-0.7-0.5-0.7-0.9c0-0.2,0.1-0.5,0.4-0.8c0.3-0.3,0.5-0.5,0.8-0.5C518.5,4.6,518.7,4.9,518.7,5.1z
		 M517.6,5.7c0.1,0.1,0.2,0.2,0.5,0.4c0.1-0.1,0.1-0.3,0.1-0.4c0-0.2-0.1-0.3-0.2-0.3C517.8,5.4,517.7,5.5,517.6,5.7z"/>
	<path class="st0" d="M518.7,17.8c0,0.4,0.5,0.9,1,1c0.1,0,0.3,0,0.4,0h0.1c0.6,0,0.6,0.5,0.6,0.8c0,0.2,0,0.9-0.6,0.9h-0.1
		c-0.1,0-0.2,0-0.4,0c-1.1-0.1-1.6-1.1-1.6-1.2c-0.2,0.5-1.1,1.3-2.8,1.3h-0.1c-0.5,0-0.7-0.4-0.7-0.9c0-0.4,0.2-0.9,0.7-0.9h0.5
		c0.7,0,1.8-0.1,2.5-1.2c0.2-0.3,0.3-0.4,0.4-0.4C518.6,17.3,518.7,17.5,518.7,17.8z M519.3,13.4c0.1,0,0.1,0.1,0,0.1
		c-0.2,0.2-0.8,0.9-1.1,1.3c-0.1,0.1-0.1,0.1-0.2,0c-0.3-0.2-1.1-0.8-1.3-1.1c-0.1-0.1-0.1-0.1,0-0.2c0.2-0.4,0.7-0.9,1-1.2
		c0.1-0.1,0.2-0.2,0.2-0.1C518.3,12.6,518.8,13.1,519.3,13.4z"/>
	<path class="st0" d="M522,19.8c-0.4,0.5-0.9,0.8-1.7,0.8h-0.2c-0.5,0-0.7-0.3-0.7-0.9c0-0.5,0.2-0.8,0.7-0.8h0.2
		c0.4,0,0.8-0.1,1.1-0.2c0.3-0.1,0.5-0.2,0.5-0.3c0-1.3-0.5-4-0.7-6.7c0-0.3-0.2-1.2-0.3-1.6c0-0.1,0-0.1,0-0.2c0-0.2,0.2-0.7,0.4-1
		c0.2-0.4,0.4-0.7,0.5-0.7c0.1,0,0.1,0.1,0.1,0.2c0.2,0.7,0.4,1.1,0.6,1.4c0,0.1,0.1,0.1,0.1,0.2c0,0,0,0.1,0,0.1
		c-0.1,0.2-0.3,0.6-0.4,0.8c0.1,2.6,0.5,4.6,0.5,5.9C522.7,18.1,522.5,19.1,522,19.8z"/>
	<path class="st0" d="M526.2,20.6c-0.1,0-0.1-0.1-0.1-0.5c0-2.3-0.8-8.5-0.8-9.5c0-0.5,0.3-1.3,0.6-1.8c0.1-0.2,0.2-0.4,0.3-0.4
		c0.1,0,0.1,0.1,0.1,0.6c0.1,1.6,0.5,5.5,0.5,8.2c0,1.1-0.1,2.1-0.3,2.6C526.4,20.3,526.3,20.6,526.2,20.6z"/>
	<path class="st0" d="M537.5,22.6c0.1,0,0.1,0,0.1,0c0,0.4-0.2,0.9-0.4,1l-3.1,1.7c-0.1,0-0.1,0-0.1,0c0-0.2,0.1-0.6,0.2-0.7
		c0.1-0.1,0.2-0.2,0.5-0.4L537.5,22.6z"/>
	<path class="st0" d="M537.7,19.5c-0.8,0.4-2.6,1.5-4,2.5c-0.1,0-0.1,0.1-0.1,0.1c0,0-0.1,0-0.1-0.1c0-0.1,0.1-0.5,0.2-0.7
		c0.1-0.2,0.5-0.6,0.8-0.9c0,0,0.1-0.1,0.1-0.1c0,0,0-0.1-0.1-0.1c-0.6-0.2-1-0.4-1-1.1c0-0.9,0.9-2.2,1.8-2.9
		c0.4-0.3,0.7-0.4,1.1-0.4c0.5,0,0.8,0.3,0.8,0.7c0,0.3-0.1,0.7-0.3,1c-0.1,0.2-0.2,0.3-0.2,0.3c-0.1,0-0.1,0-0.2-0.1
		c-0.2-0.2-0.4-0.3-0.6-0.3c-0.6,0-1.3,0.3-1.3,0.7c0,0.3,1.3,0.9,1.8,0.9c0.1,0,0.1,0,0.1,0c0.3-0.1,1.1-0.4,1.5-0.7
		c0.2-0.1,0.2-0.1,0.3-0.1c0.1,0,0.1,0,0.1,0.1c0,0.1,0,0.3-0.1,0.4C538,19.4,537.9,19.4,537.7,19.5z"/>
	<path class="st0" d="M543.4,20.6c-0.5,0-0.9-0.1-1.3-0.4c-0.5-0.4-0.8-1.3-1-2.3c-0.1-0.8-0.2-1.7-0.2-2.8
		c-0.1-1.5-0.2-3.8-0.4-5.2c0-0.1,0-0.1,0-0.2c0-0.1,0-0.1,0.1-0.3c0.2-0.3,0.4-0.6,0.5-0.9c0.1-0.2,0.2-0.2,0.2-0.2
		c0.1,0,0.1,0.1,0.2,0.5c0.3,2.6,0.1,6.3,0.5,8.3c0.1,0.5,0.2,0.7,0.3,1c0.2,0.5,0.6,0.7,1.1,0.7c0.6,0,0.9,0.3,0.9,0.8
		c0,0.7-0.3,0.9-0.8,0.9H543.4z"/>
	<path class="st0" d="M549.5,18.9c0.5,0,0.7,0.3,0.7,0.8c0,0.6-0.2,0.9-0.7,0.9h-0.2c-1.6,0-2.6-0.3-3.3-0.7
		c-0.6,0.4-1.4,0.7-2.4,0.7h-0.2c-0.5,0-0.7-0.3-0.7-0.9c0-0.5,0.2-0.8,0.7-0.8h0.2c0.7,0,1.1-0.1,1.3-0.3c-0.1-0.2-0.1-0.4-0.1-0.6
		c0-1.7,1.9-3.9,3-3.9c0.6,0,1,0.7,1,1.6c0,0.9-0.4,2.1-1.1,2.8c0.3,0.2,0.9,0.3,1.6,0.3H549.5z M547.5,9.9c0.1-0.1,0.2-0.2,0.3-0.1
		c0.4,0.4,0.8,0.8,1.2,1.1c0.1,0.1,0.1,0.1,0,0.2c-0.3,0.4-0.7,0.7-1,1.1c-0.1,0.1-0.1,0.1-0.2,0c-0.3-0.2-0.7-0.6-1.1-0.9
		c-0.2,0.3-0.7,0.7-0.9,0.9c-0.1,0.1-0.1,0.1-0.3,0c-0.4-0.2-0.9-0.6-1.2-1c-0.1-0.1-0.1-0.1,0-0.2c0.3-0.3,0.7-0.8,1-1.1
		c0.1-0.1,0.1-0.1,0.2,0c0.3,0.3,0.8,0.8,1.1,0.9C546.9,10.6,547.4,10.1,547.5,9.9z M547.1,15.9c-0.6,0-1.2,0.7-1.2,0.9
		c0,0.4,0.3,0.7,0.9,1.1c0.2-0.1,1.1-0.7,1.1-1C547.8,16.3,547.6,15.9,547.1,15.9z"/>
	<path class="st0" d="M553.3,22.5c0.1,0,0.1,0,0.1,0c0,0.4-0.2,0.9-0.4,1l-3.1,1.7c-0.1,0-0.1,0-0.1,0c0-0.2,0.1-0.6,0.2-0.7
		c0.1-0.1,0.2-0.2,0.5-0.4L553.3,22.5z"/>
	<path class="st0" d="M552.8,17.8c0,0.4,0.5,0.9,1,1c0.1,0,0.3,0,0.4,0h0.1c0.6,0,0.6,0.5,0.6,0.8c0,0.2,0,0.9-0.6,0.9h-0.1
		c-0.1,0-0.2,0-0.4,0c-1.1-0.1-1.6-1.1-1.6-1.2c-0.2,0.5-1.1,1.3-2.8,1.3h-0.1c-0.5,0-0.7-0.4-0.7-0.9c0-0.4,0.2-0.9,0.7-0.9h0.5
		c0.7,0,1.8-0.1,2.5-1.2c0.2-0.3,0.3-0.4,0.4-0.4C552.8,17.3,552.8,17.5,552.8,17.8z M552.7,12.7c0.1-0.1,0.2-0.2,0.3-0.1
		c0.4,0.4,0.8,0.8,1.2,1.1c0.1,0.1,0.1,0.1,0,0.2c-0.3,0.4-0.7,0.7-1,1.1c-0.1,0.1-0.1,0.1-0.2,0c-0.3-0.2-0.7-0.6-1.1-0.9
		c-0.2,0.3-0.7,0.7-0.9,0.9c-0.1,0.1-0.1,0.1-0.3,0c-0.4-0.2-0.9-0.6-1.2-1c-0.1-0.1-0.1-0.1,0-0.2c0.3-0.3,0.7-0.8,1-1.1
		c0.1-0.1,0.1-0.1,0.2,0c0.3,0.3,0.8,0.8,1.1,0.9C552.1,13.4,552.5,12.9,552.7,12.7z"/>
	<path class="st0" d="M555.9,3.9c0.5,0,1.3,0.7,1.3,1.5c0,0.3-0.1,0.6-0.1,0.9c-0.2,0.6-0.7,0.9-1.3,0.9c-0.6,0-1-0.5-1-1
		C554.6,5.6,555.5,3.9,555.9,3.9z M555.7,5.1c-0.2,0-0.5,0.5-0.5,0.7c0,0.2,0.3,0.4,0.6,0.4c0.4,0,0.8-0.2,0.8-0.4
		C556.6,5.8,556.2,5.1,555.7,5.1z"/>
	<path class="st0" d="M556.1,19.8c-0.4,0.5-0.9,0.8-1.7,0.8h-0.2c-0.5,0-0.7-0.3-0.7-0.9c0-0.5,0.2-0.8,0.7-0.8h0.2
		c0.4,0,0.8-0.1,1.1-0.2c0.3-0.1,0.5-0.2,0.5-0.3c0-1.3-0.5-4-0.7-6.7c0-0.3-0.2-1.2-0.3-1.6c0-0.1,0-0.1,0-0.2c0-0.2,0.2-0.7,0.4-1
		c0.2-0.4,0.4-0.7,0.5-0.7c0.1,0,0.1,0.1,0.1,0.2c0.2,0.7,0.4,1.1,0.6,1.4c0,0.1,0.1,0.1,0.1,0.2c0,0,0,0.1,0,0.1
		c-0.1,0.2-0.3,0.6-0.4,0.8c0.1,2.6,0.5,4.6,0.5,5.9C556.9,18.1,556.6,19.1,556.1,19.8z"/>
	<path class="st0" d="M560.3,20.6c-0.1,0-0.1-0.1-0.1-0.5c0-2.3-0.8-8.5-0.8-9.5c0-0.5,0.3-1.3,0.6-1.8c0.1-0.2,0.2-0.4,0.3-0.4
		c0.1,0,0.1,0.1,0.1,0.6c0.1,1.6,0.5,5.5,0.5,8.2c0,1.1-0.1,2.1-0.3,2.6C560.6,20.3,560.4,20.6,560.3,20.6z"/>
	<path class="st0" d="M573.6,7.6c0.1,0,0.1,0,0.1,0c0,0.4-0.2,0.9-0.4,1l-3.1,1.7c-0.1,0-0.1,0-0.1,0c0-0.2,0.1-0.6,0.2-0.7
		c0.1-0.1,0.2-0.2,0.5-0.4L573.6,7.6z"/>
	<path class="st0" d="M574.8,18.9h0.2c0.5,0,0.7,0.3,0.7,0.8c0,0.6-0.3,0.9-0.8,0.9h-0.2c-0.6,0-1-0.2-1.3-0.5
		c-0.3-0.3-0.6-0.7-0.8-1.5c-0.2,1.2-1.7,2-3.4,2c-0.5,0-1.1-0.1-1.6-0.4c-0.3-0.2-0.5-0.5-0.5-0.8c0-0.4,0.1-1,0.3-1.4
		c0.1-0.1,0.1-0.2,0.2-0.2c0.1,0,0.1,0.1,0.2,0.3c0.2,0.5,0.9,0.7,1.7,0.7c1.6,0,2.4-0.4,2.7-1c0-0.2,0-0.3,0-0.5
		c0-0.9-0.3-2.2-0.5-3.3c0-0.1,0-0.3,0-0.3c0-0.1,0-0.3,0.4-1.1c0.1-0.3,0.2-0.5,0.3-0.5c0.1,0,0.1,0.1,0.2,0.5
		c0.6,2.5,0.6,4.2,0.9,5.2c0.1,0.3,0.2,0.5,0.3,0.6C574.2,18.7,574.5,18.9,574.8,18.9z"/>
	<path class="st0" d="M577.3,7.7c0.5,0,1.3,0.7,1.3,1.5c0,0.3-0.1,0.6-0.1,0.9c-0.2,0.6-0.7,0.9-1.3,0.9c-0.6,0-1-0.5-1-1
		C576,9.4,576.9,7.7,577.3,7.7z M577.1,8.9c-0.2,0-0.5,0.5-0.5,0.7c0,0.2,0.3,0.4,0.6,0.4c0.4,0,0.8-0.2,0.8-0.4
		C578,9.6,577.6,8.9,577.1,8.9z"/>
	<path class="st0" d="M578.4,17.8c0,0.4,0.5,0.9,1,1c0.1,0,0.3,0,0.4,0h0.1c0.6,0,0.6,0.5,0.6,0.8c0,0.2,0,0.9-0.6,0.9h-0.1
		c-0.1,0-0.2,0-0.4,0c-1.1-0.1-1.6-1.1-1.6-1.2c-0.2,0.5-1.1,1.3-2.8,1.3h-0.1c-0.5,0-0.7-0.4-0.7-0.9c0-0.4,0.2-0.9,0.7-0.9h0.5
		c0.7,0,1.8-0.1,2.5-1.2c0.2-0.3,0.3-0.4,0.4-0.4C578.4,17.3,578.4,17.5,578.4,17.8z M579.1,13.4c0.1,0,0.1,0.1,0,0.1
		c-0.2,0.2-0.8,0.9-1.1,1.3c-0.1,0.1-0.1,0.1-0.2,0c-0.3-0.2-1.1-0.8-1.3-1.1c-0.1-0.1-0.1-0.1,0-0.2c0.2-0.4,0.7-0.9,1-1.2
		c0.1-0.1,0.2-0.2,0.2-0.1C578,12.6,578.5,13.1,579.1,13.4z"/>
	<path class="st0" d="M585.3,21.9c0.1,0,0.1,0,0.1,0c0,0.4-0.2,0.9-0.4,1l-3.1,1.7c-0.1,0-0.1,0-0.1,0c0-0.2,0.1-0.6,0.2-0.7
		c0.1-0.1,0.2-0.2,0.5-0.4L585.3,21.9z"/>
	<path class="st0" d="M580.9,17.3c0-0.4,0.2-1.3,0.5-1.9c0.5-1.1,1.4-1.6,2.2-1.6c0.5,0,1.5,0.3,2.1,0.8c0.2,0.2,0.2,0.3,0.2,0.3
		c0,0.1-0.1,0.1-0.2,0.1c-0.3,0-0.7-0.1-1.2-0.1c-0.8,0-2.7,0.8-2.8,1.3c0,0.3,1,1.7,2.5,1.7h0.1c0.9-0.4,2.1-0.9,2.7-1.2
		c0.3-0.2,0.5-0.2,0.6-0.2c0.1,0,0.1,0,0.1,0.1c0,0.2-0.4,0.9-0.6,1.3c-0.1,0.1-0.2,0.2-0.3,0.3c-0.5,0.3-1.3,0.7-2.4,1.2
		c-1.1,0.5-3.4,1.3-4.5,1.3h-0.1c-0.5,0-0.8-0.3-0.8-0.9c0-0.6,0.3-0.9,0.8-0.9h0.1c0.2,0,0.9,0,1.5-0.2
		C581.2,18.3,580.9,17.8,580.9,17.3z"/>
	<path class="st1" d="M596.9,21.3c0.1,0,0.1,0,0.1,0c0,0.4-0.2,0.9-0.4,1l-3.1,1.7c-0.1,0-0.1,0-0.1,0c0-0.2,0.1-0.6,0.2-0.7
		c0.1-0.1,0.2-0.2,0.5-0.4L596.9,21.3z"/>
	<path class="st1" d="M596.1,9.2c0.1-0.1,0.2-0.2,0.3-0.1c0.4,0.4,0.8,0.8,1.2,1.1c0.1,0.1,0.1,0.1,0,0.2c-0.3,0.4-0.7,0.7-1,1.1
		c-0.1,0.1-0.1,0.1-0.2,0c-0.3-0.2-0.7-0.6-1.1-0.9c-0.2,0.3-0.7,0.7-0.9,0.9c-0.1,0.1-0.1,0.1-0.3,0c-0.4-0.2-0.9-0.6-1.2-1
		c-0.1-0.1-0.1-0.1,0-0.2c0.3-0.3,0.7-0.8,1-1.1c0.1-0.1,0.1-0.1,0.2,0c0.3,0.3,0.8,0.8,1.1,0.9C595.5,9.9,595.9,9.4,596.1,9.2z
		 M598.3,18.5c0.4,0.2,0.7,0.3,0.9,0.3h0.3c0.5,0,0.8,0.3,0.8,0.8c0,0.6-0.3,0.9-0.8,0.9h-0.2c-0.6,0-1.1-0.2-1.7-0.7
		c-0.5-0.5-0.9-1.2-1-2.3c-0.2,0.3-0.3,0.5-0.6,0.8c-0.5,0.3-1.2,0.5-2,0.5c-0.6,0-1-0.1-1-0.5c0.2-1.7,0.5-1.9,1.3-2.6
		c0.3-0.3,1.4-0.9,1.8-1.2c0-0.2,0-0.3,0-0.4c0-0.4,0.1-0.6,0.3-0.9c0.1-0.2,0.2-0.4,0.3-0.4c0.1,0,0.1,0.1,0.2,0.4
		c0.3,1.5,0.4,2.8,0.6,3.6C597.3,17.6,597.7,18.1,598.3,18.5z M596,15.5c-0.7,0.5-1.9,1.2-1.9,1.4c0,0.1,0.2,0.2,0.6,0.2
		c0.5,0,1.1-0.1,1.6-0.4C596.2,16.2,596.1,16.1,596,15.5z"/>
	<path class="st1" d="M600.2,11.3c-0.6,0-0.9-0.5-0.9-1.1c0-0.2,0-0.4,0.1-0.6c0-0.2,0.2-0.6,0.4-0.6c0.1,0,0.2,0.2,0.2,0.4v0.2
		c0,0.2,0.2,0.4,0.5,0.4h0c0.3,0,0.6-0.3,0.7-0.7c0-0.2,0.2-0.8,0.5-0.8c0.1,0,0.2,0.1,0.2,0.4c0,0.1,0.1,0.2,0.3,0.2
		c0.3,0,0.6-0.2,0.7-0.6c0.1-0.5,0.2-0.6,0.3-0.6c0.2,0,0.2,0.5,0.2,0.8c0,0.2,0,0.5-0.1,0.8c-0.2,0.5-0.5,0.9-1.1,0.9
		c-0.1,0-0.3-0.1-0.3-0.1c-0.1,0-0.1,0-0.2,0.1C601.1,10.9,600.8,11.3,600.2,11.3z M603.1,6.1C603.2,6.1,603.2,6.2,603.1,6.1
		c0,0.3-0.1,0.7-0.3,0.9c-0.1,0.1-0.2,0.1-0.4,0.2l-3,1.4c0,0-0.1,0-0.1,0c0-0.1,0.1-0.3,0.1-0.6c0.1-0.3,0.2-0.3,0.2-0.4
		c0.1-0.1,0.1-0.1,0.3-0.2L603.1,6.1z"/>
	<path class="st1" d="M602.8,17.8c0,0.4,0.5,0.9,1,1c0.1,0,0.3,0,0.4,0h0.1c0.6,0,0.6,0.5,0.6,0.8c0,0.2,0,0.9-0.6,0.9h-0.1
		c-0.1,0-0.2,0-0.4,0c-1.1-0.1-1.6-1.1-1.6-1.2c-0.2,0.5-1.1,1.3-2.8,1.3h-0.1c-0.5,0-0.7-0.4-0.7-0.9c0-0.4,0.2-0.9,0.7-0.9h0.5
		c0.7,0,1.8-0.1,2.5-1.2c0.2-0.3,0.3-0.4,0.4-0.4C602.7,17.3,602.8,17.5,602.8,17.8z M603.4,13.4c0.1,0,0.1,0.1,0,0.1
		c-0.2,0.2-0.8,0.9-1.1,1.3c-0.1,0.1-0.1,0.1-0.2,0c-0.3-0.2-1.1-0.8-1.3-1.1c-0.1-0.1-0.1-0.1,0-0.2c0.2-0.4,0.7-0.9,1-1.2
		c0.1-0.1,0.2-0.2,0.2-0.1C602.3,12.6,602.9,13.1,603.4,13.4z"/>
	<path class="st1" d="M608.4,3.7c0,0.4-0.1,0.7-0.2,1.1c0.2,0.1,0.3,0.2,0.3,0.3c0,0.3-0.1,0.6-0.2,0.7c0,0.1-0.1,0.1-0.1,0.1
		l-0.4-0.2c-0.4,0.6-1,1.3-1.9,1.7c-0.3,0.2-0.7,0.3-1.1,0.3c-0.2,0-0.3,0-0.3-0.1c0-0.1,0.2-0.1,0.4-0.3c0.6-0.4,1.9-1.3,2.3-1.9
		c-0.3-0.2-0.8-0.5-0.8-1c0-0.3,0.2-0.6,0.4-1c0.3-0.4,0.6-0.6,0.9-0.6C608.3,2.8,608.4,3.3,608.4,3.7z M607.1,4.1
		C607.1,4.1,607.1,4.1,607.1,4.1c0,0.1,0.3,0.4,0.6,0.5c0.1-0.1,0.1-0.3,0.1-0.5c0-0.2-0.1-0.3-0.3-0.3
		C607.4,3.7,607.2,3.9,607.1,4.1z"/>
	<path class="st1" d="M605.2,17.3c0-0.4,0.2-1.3,0.5-1.9c0.5-1.1,1.4-1.6,2.2-1.6c0.5,0,1.5,0.3,2.1,0.8c0.2,0.2,0.2,0.3,0.2,0.3
		c0,0.1-0.1,0.1-0.2,0.1c-0.3,0-0.7-0.1-1.2-0.1c-0.8,0-2.7,0.8-2.8,1.3c0,0.3,1,1.7,2.5,1.7h0.1c0.9-0.4,2.1-0.9,2.7-1.2
		c0.3-0.2,0.5-0.2,0.6-0.2c0.1,0,0.1,0,0.1,0.1c0,0.2-0.4,0.9-0.6,1.3c-0.1,0.1-0.2,0.2-0.3,0.3c-0.5,0.3-1.3,0.7-2.4,1.2
		c-1.1,0.5-3.4,1.3-4.5,1.3h-0.1c-0.5,0-0.8-0.3-0.8-0.9c0-0.6,0.3-0.9,0.8-0.9h0.1c0.2,0,0.9,0,1.5-0.2
		C605.5,18.3,605.2,17.8,605.2,17.3z M608.9,10c0.1,0,0.1,0.1,0,0.1c-0.2,0.2-0.8,0.9-1.1,1.3c-0.1,0.1-0.1,0.1-0.2,0
		c-0.3-0.2-1.1-0.8-1.3-1.1c-0.1-0.1-0.1-0.1,0-0.2c0.2-0.4,0.7-0.9,1-1.2c0.1-0.1,0.2-0.2,0.2-0.1C607.8,9.2,608.3,9.6,608.9,10z"
		/>
	<path class="st0" d="M621.3,9.4c0.5,0,1.3,0.7,1.3,1.5c0,0.3-0.1,0.6-0.1,0.9c-0.2,0.6-0.7,0.9-1.3,0.9c-0.6,0-1-0.5-1-1
		C620.1,11,620.9,9.4,621.3,9.4z M621.2,10.6c-0.2,0-0.5,0.5-0.5,0.7c0,0.2,0.3,0.4,0.6,0.4c0.4,0,0.8-0.2,0.8-0.4
		C622,11.2,621.6,10.6,621.2,10.6z"/>
	<path class="st0" d="M624.7,19c0-0.2,0.2-1,0.5-1.5c0.1-0.1,0.1-0.2,0.1-0.2c0.1,0,0.1,0.1,0.1,0.1c0.4,0.9,0.8,1.4,1.4,1.4h0.2
		c0.5,0,0.8,0.3,0.8,0.8c0,0.6-0.3,0.9-0.8,0.9h-0.2c-0.3,0-0.5,0-0.7-0.1c0,1.3-0.2,1.9-0.3,2.2c-0.2,0.7-0.6,1.2-1.6,2
		c-0.9,0.7-2.2,1.1-4.1,1.1c-1.9,0-3.3-1.3-3.3-3.4c0-1.1,0.6-2.3,1-2.9c0.2-0.2,0.3-0.4,0.5-0.4c0.1,0,0.1,0,0.1,0.1
		c0,0.1-0.1,0.3-0.2,0.5c-0.3,0.6-0.6,1.3-0.6,2c0,1.4,1.7,2.2,3,2.2c2,0,4.2-0.7,4.8-1.9c0,0,0.1-0.1,0.1-0.3c0-1.4-0.3-2-0.7-2.8
		C624.7,19.1,624.7,19,624.7,19z M622.9,15.1c0.1,0,0.1,0.1,0,0.1c-0.2,0.2-0.8,0.9-1.1,1.3c-0.1,0.1-0.1,0.1-0.2,0
		c-0.3-0.2-1.1-0.8-1.3-1.1c-0.1-0.1-0.1-0.1,0-0.2c0.2-0.4,0.7-0.9,1-1.2c0.1-0.1,0.2-0.2,0.2-0.1
		C621.9,14.3,622.4,14.8,622.9,15.1z"/>
	<path class="st0" d="M633,22.1c0.1,0,0.1,0,0.1,0c0,0.4-0.2,0.9-0.4,1l-3.1,1.7c-0.1,0-0.1,0-0.1,0c0-0.2,0.1-0.6,0.2-0.7
		c0.1-0.1,0.2-0.2,0.5-0.4L633,22.1z"/>
	<path class="st0" d="M627,20.6L627,20.6c-0.6,0-0.8-0.3-0.8-0.9c0-0.5,0.3-0.8,0.7-0.8h0.1c0.9,0,1.7-0.4,2.2-1.1l0.9-1.5
		c0.6-0.8,1.3-1.1,1.7-1.1c1.3,0,1.8,2.2,1.8,3.1c0,0.8-0.8,1.8-1.2,1.8c-0.6,0-2.1-0.7-2.8-1.4C628.8,20,627.9,20.6,627,20.6z
		 M631,16.7c-0.1,0-0.2,0.1-0.4,0.2c-0.1,0.1-0.1,0.2-0.2,0.4c0.3,0.2,1.4,0.8,1.9,1C632.2,17.7,631.5,16.7,631,16.7z"/>
	<path class="st0" d="M643.7,9.7c0,0.4-0.1,0.7-0.2,1.1c0.2,0.1,0.3,0.2,0.3,0.3c0,0.3-0.1,0.6-0.2,0.7c0,0.1-0.1,0.1-0.1,0.1
		l-0.4-0.2c-0.4,0.6-1,1.3-1.9,1.7c-0.3,0.2-0.7,0.3-1.1,0.3c-0.2,0-0.3,0-0.3-0.1c0-0.1,0.2-0.1,0.4-0.3c0.6-0.4,1.9-1.3,2.3-1.9
		c-0.3-0.2-0.8-0.5-0.8-1c0-0.3,0.2-0.6,0.4-1c0.3-0.4,0.6-0.6,0.9-0.6C643.6,8.8,643.7,9.3,643.7,9.7z M642.4,10
		C642.4,10,642.4,10.1,642.4,10c0,0.1,0.3,0.4,0.6,0.5c0.1-0.1,0.1-0.3,0.1-0.5c0-0.2-0.1-0.3-0.3-0.3C642.7,9.7,642.5,9.8,642.4,10
		z"/>
	<path class="st0" d="M646,18.9c0.5,0,0.8,0.3,0.8,0.8c0,0.6-0.3,0.9-0.8,0.9h-0.3c-0.6,0-1.2-0.1-1.6-0.4c-0.4-0.3-0.9-0.7-1.6-1.4
		c-3,1.8-3.2,3.7-3.2,4.8c0,2.1,1.5,4.5,7,4.5c0.7,0,1.5-0.1,2.4-0.1c0.2,0,0.4-0.1,0.5-0.1c0.1,0,0.2,0,0.2,0.1
		c0,0.2-0.5,0.5-0.8,0.6c-1.1,0.5-2.7,1.1-4.7,1.1c-3.9,0-5.4-2.6-5.4-5.1c0-2.9,1-4.9,3.1-6.6c-0.4-0.5-1.3-0.8-1.8-0.8
		c-0.1,0-0.1-0.1-0.1-0.3c0-0.4,0.1-1,0.3-1.2c0.7-0.5,1.5-0.8,2.3-0.8c0.8,0,1.5,0.3,2,0.7c0.1,0.1,0.2,0.3,0.2,0.6
		c0,0.5-0.3,1.3-1,1.7c0.6,0.6,1.3,0.9,2,0.9H646z"/>
	<path class="st0" d="M651.3,12.2c0.1,0,0.1,0,0.1,0c0,0.4-0.2,0.9-0.4,1l-3.1,1.7c-0.1,0-0.1,0-0.1,0c0-0.2,0.1-0.6,0.2-0.7
		c0.1-0.1,0.2-0.2,0.5-0.4L651.3,12.2z"/>
	<path class="st0" d="M646,20.6h-0.1c-0.5,0-0.7-0.3-0.7-0.8c0-0.6,0.2-0.9,0.7-0.9h0.1c1.2,0,2-0.6,2.6-1.2c0.6-0.6,1-1.2,1.4-1.2
		c0.1,0,0.3,0.1,0.4,0.2c0.7,0.7,2.1,2.2,2.9,2.2h0.1c0.5,0,0.8,0.3,0.8,0.8c0,0.6-0.3,0.9-0.8,0.9h-0.1c-0.7,0-1.3-0.5-1.5-0.6
		c-0.1,0.5-0.7,1.1-1,1.1c-0.3,0-2.5-0.7-3.1-1.6C647.6,20.2,646.7,20.6,646,20.6z M650.4,18.4c-0.3-0.3-0.6-0.5-0.8-0.5
		c-0.2,0-0.2,0.1-0.4,0.2c-0.1,0.1-0.2,0.2-0.2,0.3c0,0.1,0.2,0.2,0.9,0.6c0.3,0.1,1,0.4,1.1,0.4c0.1,0,0.1,0,0.1-0.1
		C651.1,19.2,650.6,18.6,650.4,18.4z"/>
	<path class="st0" d="M659.2,10.9c0.5,0,1.3,0.7,1.3,1.5c0,0.3-0.1,0.6-0.1,0.9c-0.2,0.6-0.7,0.9-1.3,0.9c-0.6,0-1-0.5-1-1
		C657.9,12.5,658.8,10.9,659.2,10.9z M659,12.1c-0.2,0-0.5,0.5-0.5,0.7c0,0.2,0.3,0.4,0.6,0.4c0.4,0,0.8-0.2,0.8-0.4
		C659.9,12.7,659.4,12.1,659,12.1z"/>
	<path class="st0" d="M660,17.2c0.1,0,0.1,0.1,0.1,0.4c0,0.1,0,0.2,0,0.3c0,0.5,0.4,0.9,0.9,0.9c0.8,0,1.1-0.7,1.5-1.4
		c0-0.1,0.1-0.3,0.2-0.3c0.1,0,0.1,0.1,0.2,0.5c0.1,0.8,0.5,1.2,1.2,1.3h0.2c0.5,0,0.8,0.2,0.8,0.8c0,0.6-0.3,0.9-0.8,0.9h-0.2
		c-1,0-1.5-0.5-1.6-1.5c-0.2,0.7-0.9,1.5-1.7,1.5c-0.8,0-1.2-0.7-1.3-1.5c-0.3,0.8-1.2,1.4-2,1.4c-0.9,0-1.5-0.3-1.7-1.2
		c-0.1,0.3-0.3,0.6-0.6,0.8c-0.3,0.2-0.8,0.4-1.6,0.4h-0.2c-0.5,0-0.8-0.3-0.8-0.9c0-0.5,0.3-0.8,0.8-0.8h0.2c1.2,0,2-0.4,2.4-1.3
		c0-0.1,0.1-0.2,0.2-0.2c0.1,0,0.2,0.1,0.2,0.4c0,0.7,0.6,1,1.3,1c0.9,0,1.6-0.4,2.1-1.3C659.8,17.3,659.9,17.2,660,17.2z"/>
	<path class="st0" d="M666.4,8.1c0,0.4-0.1,0.7-0.2,1.1c0.2,0.1,0.3,0.2,0.3,0.3c0,0.3-0.1,0.6-0.2,0.7c0,0.1-0.1,0.1-0.1,0.1
		l-0.4-0.2c-0.4,0.6-1,1.3-1.9,1.7c-0.3,0.2-0.7,0.3-1.1,0.3c-0.2,0-0.3,0-0.3-0.1c0-0.1,0.2-0.1,0.4-0.3c0.6-0.4,1.9-1.3,2.3-1.9
		c-0.3-0.2-0.8-0.5-0.8-1c0-0.3,0.2-0.6,0.4-1c0.3-0.4,0.6-0.6,0.9-0.6C666.2,7.2,666.4,7.7,666.4,8.1z M665,8.5
		C665,8.5,665,8.5,665,8.5c0,0.1,0.3,0.4,0.6,0.5c0.1-0.1,0.1-0.3,0.1-0.5c0-0.2-0.1-0.3-0.3-0.3C665.3,8.2,665.2,8.3,665,8.5z"/>
	<path class="st0" d="M665.5,21.5c0.1-0.1,0.2-0.2,0.3-0.1c0.4,0.4,0.8,0.8,1.2,1.1c0.1,0.1,0.1,0.1,0,0.2c-0.3,0.4-0.7,0.7-1,1.1
		c-0.1,0.1-0.1,0.1-0.2,0c-0.3-0.2-0.7-0.6-1.1-0.9c-0.2,0.3-0.7,0.7-0.9,0.9c-0.1,0.1-0.1,0.1-0.3,0c-0.4-0.2-0.9-0.6-1.2-1
		c-0.1-0.1-0.1-0.1,0-0.2c0.3-0.3,0.7-0.8,1-1.1c0.1-0.1,0.1-0.1,0.2,0c0.3,0.3,0.8,0.8,1.1,0.9C664.9,22.1,665.3,21.7,665.5,21.5z
		 M666.1,19.2c-0.3,0.7-0.6,1.4-2,1.4c-0.6,0-0.9-0.4-0.9-0.9c0-0.4,0.3-0.9,0.9-0.9h0c0.4,0,1.4-0.6,1.4-1.2v0
		c-0.1-1.3-0.5-1.7-1.2-2.8c0-0.1-0.1-0.1-0.1-0.2c0-0.2,0.2-0.9,0.4-1.3c0.1-0.1,0.1-0.2,0.2-0.2c0,0,0.1,0,0.1,0.1
		c1,1,1.4,2.9,1.4,4.2C666.4,18,666.3,18.8,666.1,19.2z"/>
	<path class="st0" d="M675,20.6c-0.5,0-0.9-0.1-1.3-0.4c-0.5-0.4-0.8-1.3-1-2.3c-0.1-0.8-0.2-1.7-0.2-2.8c-0.1-1.5-0.2-3.8-0.4-5.2
		c0-0.1,0-0.1,0-0.2c0-0.1,0-0.1,0.1-0.3c0.2-0.3,0.4-0.6,0.5-0.9c0.1-0.2,0.2-0.2,0.2-0.2c0.1,0,0.1,0.1,0.2,0.5
		c0.3,2.6,0.1,6.3,0.5,8.3c0.1,0.5,0.2,0.7,0.3,1c0.2,0.5,0.6,0.7,1.1,0.7c0.6,0,0.9,0.3,0.9,0.8c0,0.7-0.3,0.9-0.8,0.9H675z"/>
	<path class="st0" d="M675.2,20.6L675.2,20.6c-0.6,0-0.8-0.3-0.8-0.9c0-0.5,0.3-0.8,0.7-0.8h0.1c0.9,0,1.7-0.4,2.2-1.1l0.9-1.5
		c0.6-0.8,1.3-1.1,1.7-1.1c1.3,0,1.8,2.2,1.8,3.1c0,0.8-0.8,1.8-1.2,1.8c-0.6,0-2.1-0.7-2.8-1.4C677,20,676.2,20.6,675.2,20.6z
		 M679.2,16.7c-0.1,0-0.2,0.1-0.4,0.2c-0.1,0.1-0.1,0.2-0.2,0.4c0.3,0.2,1.4,0.8,1.9,1C680.4,17.7,679.7,16.7,679.2,16.7z"/>
	<path class="st0" d="M690.2,8.4c-0.6,0-0.9-0.5-0.9-1.1c0-0.2,0-0.4,0.1-0.6c0-0.2,0.2-0.6,0.4-0.6c0.1,0,0.2,0.2,0.2,0.4v0.2
		c0,0.2,0.2,0.4,0.5,0.4h0c0.3,0,0.6-0.3,0.7-0.7c0-0.2,0.2-0.8,0.5-0.8c0.1,0,0.2,0.1,0.2,0.4c0,0.1,0.1,0.2,0.3,0.2
		c0.3,0,0.6-0.2,0.7-0.6c0.1-0.5,0.2-0.6,0.3-0.6c0.2,0,0.2,0.5,0.2,0.8c0,0.2,0,0.5-0.1,0.8c-0.2,0.5-0.5,0.9-1.1,0.9
		c-0.1,0-0.3-0.1-0.3-0.1c-0.1,0-0.1,0-0.2,0.1C691.1,8,690.7,8.4,690.2,8.4z M693.1,3.3C693.1,3.2,693.1,3.3,693.1,3.3
		c0,0.3-0.1,0.7-0.3,0.9c-0.1,0.1-0.2,0.1-0.4,0.2l-3,1.4c0,0-0.1,0-0.1,0c0-0.1,0.1-0.3,0.1-0.6c0.1-0.3,0.2-0.3,0.2-0.4
		c0.1-0.1,0.1-0.1,0.3-0.2L693.1,3.3z"/>
	<path class="st0" d="M688.2,21.1c-0.7-0.6-1-1.5-1-2.5c0-1.1,0.6-2.4,1-3c0.2-0.2,0.3-0.3,0.4-0.3c0.1,0,0.1,0.1,0.1,0.1
		c0,0.1-0.1,0.3-0.1,0.4c-0.3,0.6-0.7,1.4-0.7,2.1c0,0.6,0.4,1.2,1,1.6c0.6,0.4,1.3,0.6,2,0.6c1.8,0,4.3-0.8,4.8-2.1
		c0-0.1,0-0.2,0-0.3c0-0.8-0.2-1.7-0.6-2.4c-0.2-0.3-0.3-0.5-0.3-0.6c0,0,0-0.1,0-0.1c0-0.1,0.1-0.4,0.1-0.6
		c0.1-0.3,0.2-0.6,0.3-0.8c0.1-0.1,0.1-0.2,0.2-0.2c0,0,0.1,0,0.2,0.2c0.5,1.1,0.9,2.2,0.9,3.5c0,1-0.1,1.7-0.3,2
		c-0.3,0.6-0.5,1-0.8,1.4c-0.4,0.4-1,0.9-1.9,1.2c-0.8,0.3-1.8,0.5-3.1,0.5C689.6,21.9,688.9,21.7,688.2,21.1z M693.1,10.7
		c0.1,0,0.1,0.1,0,0.1c-0.2,0.2-0.8,0.9-1.1,1.3c-0.1,0.1-0.1,0.1-0.2,0c-0.3-0.2-1.1-0.8-1.3-1.1c-0.1-0.1-0.1-0.1,0-0.2
		c0.2-0.4,0.7-0.9,1-1.2c0.1-0.1,0.2-0.2,0.2-0.1C692.1,9.9,692.6,10.4,693.1,10.7z"/>
	<path class="st0" d="M700.7,1c0.1,0,0.1,0,0.1,0c0,0.4-0.2,0.9-0.4,1l-3.1,1.7c-0.1,0-0.1,0-0.1,0c0-0.2,0.1-0.6,0.2-0.7
		c0.1-0.1,0.2-0.2,0.5-0.4L700.7,1z"/>
	<path class="st0" d="M700.5,6.8c-0.6,0.3-2,1.1-3,1.9c0,0-0.1,0-0.1,0s0,0,0-0.1c0-0.1,0.1-0.3,0.2-0.5c0.1-0.1,0.4-0.5,0.6-0.7
		c0,0,0.1-0.1,0.1-0.1c0,0,0-0.1-0.1-0.1c-0.4-0.2-0.6-0.3-0.7-0.7c0,0,0-0.1,0-0.1c0-0.7,0.7-1.7,1.4-2.2c0.2-0.2,0.5-0.3,0.8-0.3
		c0.4,0,0.6,0.2,0.6,0.5c0,0.2-0.1,0.4-0.2,0.7c-0.1,0.2-0.1,0.3-0.2,0.3c-0.1,0-0.1,0-0.2-0.1c-0.1-0.1-0.2-0.2-0.4-0.2
		c-0.6,0-1,0.3-1,0.5c0,0.2,1,0.6,1.4,0.6c0,0,0.1,0,0.1,0c0.2-0.1,0.8-0.3,1.1-0.5c0.1-0.1,0.2-0.1,0.2-0.1c0,0,0.1,0,0.1,0.1
		c0,0.1,0,0.2-0.1,0.3C700.8,6.6,700.7,6.7,700.5,6.8z M699.4,20.6c-0.1,0-0.1-0.1-0.1-0.5c0-2.3-0.8-8.5-0.8-9.5
		c0-0.5,0.3-1.3,0.6-1.8c0.1-0.2,0.2-0.4,0.3-0.4c0.1,0,0.1,0.1,0.1,0.6c0.1,1.6,0.5,5.5,0.5,8.2c0,1.1-0.1,2.1-0.3,2.6
		C699.7,20.3,699.5,20.6,699.4,20.6z"/>
	<path class="st0" d="M710.1,21.3c0.1,0,0.1,0,0.1,0c0,0.4-0.2,0.9-0.4,1l-3.1,1.7c-0.1,0-0.1,0-0.1,0c0-0.2,0.1-0.6,0.2-0.7
		c0.1-0.1,0.2-0.2,0.5-0.4L710.1,21.3z"/>
	<path class="st0" d="M709.3,9.2c0.1-0.1,0.2-0.2,0.3-0.1c0.4,0.4,0.8,0.8,1.2,1.1c0.1,0.1,0.1,0.1,0,0.2c-0.3,0.4-0.7,0.7-1,1.1
		c-0.1,0.1-0.1,0.1-0.2,0c-0.3-0.2-0.7-0.6-1.1-0.9c-0.2,0.3-0.7,0.7-0.9,0.9c-0.1,0.1-0.1,0.1-0.3,0c-0.4-0.2-0.9-0.6-1.2-1
		c-0.1-0.1-0.1-0.1,0-0.2c0.3-0.3,0.7-0.8,1-1.1c0.1-0.1,0.1-0.1,0.2,0c0.3,0.3,0.8,0.8,1.1,0.9C708.7,9.9,709.1,9.4,709.3,9.2z
		 M711.5,18.5c0.4,0.2,0.7,0.3,0.9,0.3h0.3c0.5,0,0.8,0.3,0.8,0.8c0,0.6-0.3,0.9-0.8,0.9h-0.2c-0.6,0-1.1-0.2-1.7-0.7
		c-0.5-0.5-0.9-1.2-1-2.3c-0.2,0.3-0.3,0.5-0.6,0.8c-0.5,0.3-1.2,0.5-2,0.5c-0.6,0-1-0.1-1-0.5c0.2-1.7,0.5-1.9,1.3-2.6
		c0.3-0.3,1.4-0.9,1.8-1.2c0-0.2,0-0.3,0-0.4c0-0.4,0.1-0.6,0.3-0.9c0.1-0.2,0.2-0.4,0.3-0.4c0.1,0,0.1,0.1,0.2,0.4
		c0.3,1.5,0.4,2.8,0.6,3.6C710.5,17.6,710.9,18.1,711.5,18.5z M709.2,15.5c-0.7,0.5-1.9,1.2-1.9,1.4c0,0.1,0.2,0.2,0.6,0.2
		c0.5,0,1.1-0.1,1.6-0.4C709.4,16.2,709.3,16.1,709.2,15.5z"/>
	<path class="st0" d="M718.6,4.8c0.1,0,0.1,0,0.1,0c0,0.4-0.2,0.9-0.4,1l-3.1,1.7c-0.1,0-0.1,0-0.1,0c0-0.2,0.1-0.6,0.2-0.7
		c0.1-0.1,0.2-0.2,0.5-0.4L718.6,4.8z"/>
	<path class="st0" d="M715.3,15.3c0,0.7-0.1,1.3-0.2,1.8c1.6-1.3,2.9-2.1,3.7-2.1c0.4,0,0.9,0.1,1.4,0.3c0.6,0.3,0.9,0.6,0.9,1.2
		c0,0.9-0.6,2.2-1.3,2.6c0.6-0.2,1.3-0.3,1.9-0.3h0.2c0.5,0,0.8,0.3,0.8,0.8c0,0.6-0.2,0.9-0.7,0.9h-0.3c-3.3,0.1-4.9,0.1-5.5,0.1
		c-0.9,0-2,0-3.5-0.1h-0.2c-0.5,0-0.8-0.3-0.8-0.9c0-0.6,0.3-0.9,0.8-0.9h0.8c0.3-0.3,0.9-0.9,1.4-1.3c0-0.3,0-0.6,0-0.9
		c0-2.2-0.4-4.1-0.5-5.3c0-0.3-0.2-1-0.3-1.3c0-0.1,0-0.1,0-0.2c0-0.1,0.2-0.5,0.3-0.8c0.2-0.4,0.4-0.8,0.6-0.8
		c0.1,0,0.1,0.1,0.1,0.2c0.2,0.7,0.4,1.1,0.6,1.3c0,0.1,0.1,0.1,0.1,0.2s0,0.1,0,0.2c-0.1,0.2-0.3,0.6-0.4,0.8
		C715.1,12.5,715.3,14,715.3,15.3z M718,16.6c-1.4,0-2.8,1.1-4.1,2.3c2.6-0.2,5-0.6,6.1-1.3C719.6,17,718.8,16.6,718,16.6z
		 M719.9,11.5c0.1,0,0.1,0.1,0,0.1c-0.2,0.2-0.8,0.9-1.1,1.3c-0.1,0.1-0.1,0.1-0.2,0c-0.3-0.2-1.1-0.8-1.3-1.1
		c-0.1-0.1-0.1-0.1,0-0.2c0.2-0.4,0.7-0.9,1-1.2c0.1-0.1,0.2-0.2,0.2-0.1C718.9,10.7,719.4,11.2,719.9,11.5z"/>
	<path class="st0" d="M727.2,10.6c0.1,0,0.1,0,0.1,0c0,0.4-0.2,0.9-0.4,1l-3.1,1.7c-0.1,0-0.1,0-0.1,0c0-0.2,0.1-0.6,0.2-0.7
		c0.1-0.1,0.2-0.2,0.5-0.4L727.2,10.6z"/>
	<path class="st0" d="M723.8,16.6c-0.2,0-0.3,0-0.5,0.1c-0.1,0.1-0.4,0.2-0.6,0.2c-0.1,0-0.1-0.1-0.1-0.2c0-0.3,0.4-1,0.9-1.4
		c0.4-0.3,0.7-0.4,1.1-0.4c0.1,0,0.2,0,0.3,0c1.4,0.3,3.1,1.1,4.5,1.3c0.9,0.2,1.9,0.3,2.6,0.3c0.1,0,0.2,0,0.3,0c0,0,0.1,0,0.1,0.1
		c0,0.3-0.5,1.1-0.8,1.4c-0.1,0.1-0.2,0.1-0.4,0.1c-0.4,0-1.2-0.1-1.4-0.1c-0.7,0-1.2,0.1-1.7,0.2c-0.3,0.1-0.9,0.3-1.7,0.7
		c-1.2,0.6-2.1,1.1-2.7,1.3c-0.6,0.2-1.2,0.3-1.9,0.4h-0.2c-0.6,0-0.8-0.3-0.8-0.9c0-0.5,0.3-0.8,0.8-0.8h0.2c1,0,1.9-0.1,2.6-0.3
		c0.7-0.2,1.7-0.6,3-1.1C725.9,17.1,724.6,16.6,723.8,16.6z"/>
	<path class="st0" d="M740.1,18.6c0.2,0.1,0.4,0.3,0.7,0.3h0.2c0.5,0,0.7,0.3,0.7,0.9c0,0.6-0.2,0.9-0.7,0.9h-0.2
		c-0.4,0-0.8-0.1-1.1-0.3c-0.6-0.3-0.9-1-1-2.3c-0.1-0.9-0.2-1.8-0.3-2.2c0-0.2-0.1-0.3-0.1-0.3c0,0-0.1,0.1-0.1,0.2
		c-0.2,1.9-0.5,3-1.5,4.5c-0.3,0.4-0.9,0.7-1.6,0.8c-0.6,0.1-1.8,0.3-2.5,0.3c-0.2,0-0.4,0-0.4-0.1c0-0.1,0.2-0.2,0.8-0.5
		c1.2-0.6,3.3-2.2,4-3.5c0-0.9-0.6-1.8-0.8-2.2c-0.8-1.4-2.1-2.6-3-3c-0.1,0.2-0.3,0.4-0.6,0.4c-0.4,0-1.1-0.3-1.8-1.2
		c-0.2-0.2-0.2-0.7-0.2-1.1c0-0.5,0.1-1.1,0.4-1.1c0.2,0,0.7,0.1,1,0.3c1.8,0.7,4.3,2.8,5,5.1c0.2,0.7,0.4,1.4,0.4,2.1
		c0.4-1,0.5-2.2,0.5-3.4c0-1.4-0.2-2.7-0.2-3.6c0.1-0.5,0.6-1.6,0.8-1.6c0.1,0,0.1,0.5,0.2,0.5c0.1,0.5,0.1,1.3,0.2,2.1
		c0.1,0.9,0.2,3.5,0.4,5.3C739.4,17.7,739.6,18.2,740.1,18.6z"/>
	<path class="st0" d="M746.1,9.9c0,0.4-0.1,0.7-0.2,1.1c0.2,0.1,0.3,0.2,0.3,0.3c0,0.3-0.1,0.6-0.2,0.7c0,0.1-0.1,0.1-0.1,0.1
		l-0.4-0.2c-0.4,0.6-1,1.3-1.9,1.7c-0.3,0.2-0.7,0.3-1.1,0.3c-0.2,0-0.3,0-0.3-0.1c0-0.1,0.2-0.1,0.4-0.3c0.6-0.4,1.9-1.3,2.3-1.9
		c-0.3-0.2-0.8-0.5-0.8-1c0-0.3,0.2-0.6,0.4-1c0.3-0.4,0.6-0.6,0.9-0.6C746,9,746.1,9.5,746.1,9.9z M744.8,10.2
		C744.7,10.2,744.7,10.3,744.8,10.2c0,0.1,0.3,0.4,0.6,0.5c0.1-0.1,0.1-0.3,0.1-0.5c0-0.2-0.1-0.3-0.3-0.3
		C745,9.9,744.9,10,744.8,10.2z"/>
	<path class="st0" d="M741,20.6L741,20.6c-0.6,0-0.8-0.3-0.8-0.9c0-0.5,0.3-0.8,0.7-0.8h0.1c0.9,0,1.7-0.4,2.2-1.1l0.9-1.5
		c0.6-0.8,1.3-1.1,1.7-1.1c1.3,0,1.8,2.2,1.8,3.1c0,0.8-0.8,1.8-1.2,1.8c-0.6,0-2.1-0.7-2.8-1.4C742.7,20,741.9,20.6,741,20.6z
		 M744.9,16.7c-0.1,0-0.2,0.1-0.4,0.2c-0.1,0.1-0.1,0.2-0.2,0.4c0.3,0.2,1.4,0.8,1.9,1C746.2,17.7,745.4,16.7,744.9,16.7z"/>
	<path class="st0" d="M757.9,10.7c0.1,0,0.1,0,0.1,0c0,0.4-0.2,0.9-0.4,1l-3.1,1.7c-0.1,0-0.1,0-0.1,0c0-0.2,0.1-0.6,0.2-0.7
		c0.1-0.1,0.2-0.2,0.5-0.4L757.9,10.7z"/>
	<path class="st0" d="M760,18.9c0.5,0,0.8,0.3,0.8,0.8c0,0.6-0.3,0.9-0.8,0.9h-0.3c-0.6,0-1.2-0.1-1.6-0.4c-0.4-0.3-0.9-0.7-1.6-1.4
		c-3,1.8-3.2,3.7-3.2,4.8c0,2.1,1.5,4.5,7,4.5c0.7,0,1.5-0.1,2.4-0.1c0.2,0,0.4-0.1,0.5-0.1c0.1,0,0.2,0,0.2,0.1
		c0,0.2-0.5,0.5-0.8,0.6c-1.1,0.5-2.7,1.1-4.7,1.1c-3.9,0-5.4-2.6-5.4-5.1c0-2.9,1-4.9,3.1-6.6c-0.4-0.5-1.3-0.8-1.8-0.8
		c-0.1,0-0.1-0.1-0.1-0.3c0-0.4,0.1-1,0.3-1.2c0.7-0.5,1.5-0.8,2.3-0.8c0.8,0,1.5,0.3,2,0.7c0.1,0.1,0.2,0.3,0.2,0.6
		c0,0.5-0.3,1.3-1,1.7c0.6,0.6,1.3,0.9,2,0.9H760z"/>
	<path class="st0" d="M765.3,10.9c0.1,0,0.1,0,0.1,0c0,0.4-0.2,0.9-0.4,1l-3.1,1.7c-0.1,0-0.1,0-0.1,0c0-0.2,0.1-0.6,0.2-0.7
		c0.1-0.1,0.2-0.2,0.5-0.4L765.3,10.9z"/>
	<path class="st0" d="M759.9,20.6L759.9,20.6c-0.6,0-0.8-0.3-0.8-0.9c0-0.5,0.3-0.8,0.7-0.8h0.1c0.9,0,1.7-0.4,2.2-1.1l0.9-1.5
		c0.6-0.8,1.3-1.1,1.7-1.1c1.3,0,1.8,2.2,1.8,3.1c0,0.8-0.8,1.8-1.2,1.8c-0.6,0-2.1-0.7-2.8-1.4C761.7,20,760.9,20.6,759.9,20.6z
		 M763.9,16.7c-0.1,0-0.2,0.1-0.4,0.2c-0.1,0.1-0.1,0.2-0.2,0.4c0.3,0.2,1.4,0.8,1.9,1C765.2,17.7,764.4,16.7,763.9,16.7z"/>
	<path class="st0" d="M776.6,11.3c0,0,0.1,0.1,0.1,0.2c-0.1,0.2-0.2,0.5-0.4,0.6c-0.4,0.2-1.1,0.5-1.5,0.6c0.3,0.3,1.3,1,1.6,1.2
		c0,0,0,0.1-0.1,0.2c-0.1,0.1-0.6,0.1-0.8,0c-0.5-0.3-0.9-0.6-1.2-0.8c-0.1,0.6-0.3,1.6-0.4,2c0,0-0.1,0-0.1,0
		c-0.2,0-0.6-0.4-0.5-0.7c0-0.3,0.2-1,0.2-1.5c-0.3,0.1-1.5,0.5-2,0.7c0,0-0.1-0.1-0.1-0.1c0.1-0.2,0.3-0.6,0.4-0.6
		c0.5-0.2,0.8-0.3,1.4-0.5c-0.3-0.2-1.1-1-1.3-1.2c-0.1-0.1-0.1-0.2,0-0.3c0.2-0.1,0.5-0.3,0.7-0.3c0.2,0.3,0.7,0.8,1.1,1.2
		c0.1-0.6,0.3-1.4,0.4-1.6c0.1-0.1,0.6-0.2,0.8-0.2c0,0,0,0.1,0,0.1c-0.2,0.4-0.4,1.5-0.5,1.9C775,11.9,776,11.5,776.6,11.3z"/>
</g>
</svg>
