<?xml version="1.0" encoding="utf-8"?>
<!-- Generator: Adobe Illustrator 19.2.0, SVG Export Plug-In . SVG Version: 6.00 Build 0)  -->
<svg version="1.1" id="Layer_1" xmlns="http://www.w3.org/2000/svg" xmlns:xlink="http://www.w3.org/1999/xlink" x="0px" y="0px"
	 viewBox="0 0 689.6 94.4" style="enable-background:new 0 0 689.6 94.4;" xml:space="preserve">
<style type="text/css">
	.st0{fill:#FFFFFF;}
</style>
<g>
	<path class="st0" d="M2.4,21.6c0.4,0.3,0.4,0.8,0.4,1.1c0,0.3-0.1,0.7-0.4,1c-0.3,0.3-0.7,0.4-1.1,0.4c-0.3,0-0.7-0.1-0.9-0.4
		C0.1,23.4,0,23.1,0,22.6c0-0.4,0.2-0.7,0.4-1c0.3-0.2,0.6-0.4,1-0.4S2.1,21.4,2.4,21.6z"/>
	<path class="st0" d="M12.2,25.4c0.1-0.1,0.1,0,0.1,0.1c0,0.6-0.2,1.1-0.5,1.3L7.7,29c-0.1,0-0.1,0-0.1-0.1c0-0.3,0.1-0.8,0.2-1
		c0.1-0.2,0.3-0.3,0.7-0.5L12.2,25.4z"/>
	<path class="st0" d="M14.7,0c0.1-0.1,0.1,0,0.1,0.1c0,0.6-0.2,1.1-0.5,1.3l-4.1,2.3c-0.1,0-0.1,0-0.1-0.1c0-0.3,0.1-0.8,0.2-1
		c0.1-0.2,0.3-0.3,0.7-0.5L14.7,0z"/>
	<path class="st0" d="M14.5,6c0.1,0.1,0.1,0.1,0,0.2c-0.2,0.3-1.1,1.2-1.4,1.7C13,8,12.9,8,12.8,7.9c-0.5-0.3-1.5-1-1.7-1.4
		c-0.1-0.1-0.1-0.1,0-0.2c0.3-0.5,0.9-1.2,1.3-1.6c0.2-0.2,0.2-0.2,0.3-0.1C13.1,5,13.8,5.6,14.5,6z"/>
	<path class="st0" d="M9.1,14c0-0.2,0-0.4,0.1-0.6c0.7-2.6,2.3-3.9,3.7-3.9c0.2,0,0.6,0.1,0.9,0.1C14,9.8,15,10,15.8,10.8
		c0.5,0.6,0.3,0.7-0.2,0.5c-0.4-0.1-0.8-0.2-1.3-0.2c-1.5,0-3.7,0.6-3.9,1.3c0,0.4,1.2,2.3,3.2,2.4c1.3-0.4,2.8-0.9,3.8-1.2
		c0.4-0.2,0.7-0.2,0.9-0.2c0.2,0,0.2,0.1,0,0.4c-0.2,0.3-0.6,0.9-0.9,1.3c-0.1,0.1-0.2,0.3-0.5,0.3c-0.1,0-0.5,0.2-1.4,0.5l-3.5,1.2
		c-1.5,0.5-2.4,1-2.7,1.4c0.5,0.2,1.1,0.6,1.7,1.1c0.6,0.5,0.9,0.9,0.9,1.2c-0.1,0.4-0.7,1.6-0.9,1.9c-0.1,0.1-0.1,0.1-0.3,0
		c-0.4-0.2-1.1-0.3-2.1-0.4c-1.7,0-2.8,0.3-3.1,0.9c0.2,1.2,0.4,2.1,0.5,2.8l0.4,2.5C6.5,29.7,6.7,31,6.7,32c0,0.7-0.1,1.3-0.3,1.9
		c-0.2,0.7-0.4,1.1-0.6,1.1c-0.1,0-0.1-0.2-0.1-0.6c0-0.4,0-0.5,0-1c0-0.9-0.2-2-0.6-4.2c-0.4-2.2-0.6-3.3-0.6-4.3
		c0-1,0.2-1.9,0.7-2.8c0.5-0.9,1.1-1.5,1.8-1.8c0.2-0.5,0.5-1.1,0.7-1.6l0.1-0.2c0.3-0.5,1.2-1.3,2.6-2.2C9.7,15.7,9.1,15,9.1,14z"
		/>
	<path class="st0" d="M28.2,6.5c0.1-0.1,0.1,0,0.1,0.1c0,0.6-0.2,1.1-0.5,1.3l-4.1,2.3c-0.1,0-0.1,0-0.1-0.1c0-0.3,0.1-0.8,0.2-1
		c0.1-0.2,0.3-0.3,0.7-0.5L28.2,6.5z"/>
	<path class="st0" d="M29.9,21.6h0.3c0.7,0,1,0.4,1,1.1c0,0.8-0.4,1.2-1,1.2h-0.3c-0.8,0-1.4-0.3-1.8-0.7c-0.5-0.4-0.8-1-1.1-1.9
		c-0.3,1.6-2.2,2.6-4.6,2.6c-0.7,0-1.5-0.1-2.1-0.5c-0.4-0.3-0.7-0.6-0.7-1.1c0-0.5,0.1-1.3,0.4-1.9c0.1-0.2,0.2-0.3,0.3-0.3
		s0.2,0.1,0.3,0.3c0.2,0.7,1.2,1,2.3,1c2.1,0,3.1-0.5,3.6-1.3c0-0.2,0.1-0.4,0.1-0.7c0-1.3-0.4-2.9-0.7-4.4c0-0.2-0.1-0.3-0.1-0.5
		c0-0.1,0.1-0.4,0.5-1.4c0.2-0.4,0.3-0.6,0.4-0.6c0.1,0,0.2,0.2,0.3,0.6c0.8,3.3,0.8,5.6,1.2,7c0.1,0.4,0.2,0.6,0.5,0.9
		C29,21.3,29.4,21.5,29.9,21.6z"/>
	<path class="st0" d="M37.1,11.2c0,0.5-0.1,1-0.3,1.5c0.2,0.1,0.4,0.3,0.4,0.4c0,0.4-0.2,0.7-0.3,1c-0.1,0.1-0.1,0.1-0.1,0.1
		l-0.5-0.3c-0.5,0.8-1.3,1.8-2.5,2.3c-0.4,0.2-0.9,0.4-1.5,0.4c-0.3,0-0.4-0.1-0.4-0.1c0-0.1,0.2-0.2,0.6-0.4
		c0.9-0.5,2.5-1.8,3.1-2.5c-0.5-0.3-1.1-0.7-1.1-1.4c0-0.4,0.2-0.9,0.6-1.3c0.4-0.5,0.8-0.8,1.2-0.8C36.8,10,37,10.7,37.1,11.2z
		 M35.2,11.7C35.2,11.7,35.2,11.7,35.2,11.7c0,0.2,0.4,0.5,0.8,0.7c0.1-0.2,0.1-0.4,0.1-0.7c0-0.3-0.1-0.4-0.3-0.4
		C35.6,11.2,35.4,11.4,35.2,11.7z"/>
	<path class="st0" d="M41.7,2c0.7,0,1.7,1,1.7,2.1c0,0.4-0.1,0.8-0.2,1.2c-0.3,0.8-0.9,1.3-1.8,1.3c-0.8,0-1.3-0.6-1.3-1.3
		C40.1,4.2,41.2,2,41.7,2z M41.5,3.6c-0.3,0-0.7,0.6-0.7,1c0,0.3,0.4,0.6,0.8,0.6c0.5,0,1.1-0.3,1.1-0.5C42.7,4.5,42.1,3.6,41.5,3.6
		z"/>
	<path class="st0" d="M43.5,18.8c0,1.7-0.4,3-1.1,4.1c-0.5,0.6-1.5,1-2.3,1c-0.8,0-1.5-0.2-2.1-0.8c-0.2,0.6-0.8,1.3-1.2,1.5
		c-0.1,0-0.2,0.1-0.2,0c-1.1-0.2-3.3-1-4.2-2.2c-0.5,1-1.3,1.4-2.4,1.4h-0.3c-0.6,0-0.9-0.4-0.9-1.1c0-0.8,0.3-1.2,0.9-1.2h0.3
		c2.1,0,3.2-1.2,4.1-2.1c0.5-0.6,0.9-1.1,1.4-1.1c0.2,0,0.5,0.1,0.7,0.4c0.9,1.1,2.6,2.8,4.1,2.8c0.5,0,1.7-0.2,2.1-0.7v0
		c0-1.7-0.7-6.1-1-9.5c-0.1-0.4-0.2-1-0.3-1.5c0-0.1,0-0.2,0-0.3c0,0,0-0.1,0-0.2c0-0.1,0.2-0.5,0.4-0.9c0.3-0.5,0.6-1.1,0.8-1.1
		c0.1,0,0.1,0.1,0.2,0.2c0.3,1,0.7,1.4,0.9,1.8c0,0.1,0.1,0.2,0.1,0.2c0,0.1,0,0.1,0,0.2c-0.1,0.2-0.4,0.9-0.6,1.2
		C43,14.5,43.5,17.2,43.5,18.8z M34.8,20.3c-0.2,0-0.5,0.2-0.7,0.4C34,20.9,34,21,34.2,21.1c0.4,0.2,1.8,0.9,2.1,1
		c0.2,0.1,0.3,0.1,0.4,0.1c0.2,0,0.1-0.2,0-0.4C36.4,21.5,35.5,20.3,34.8,20.3z"/>
	<path class="st0" d="M47.4,23.8c-0.1,0-0.2-0.2-0.2-0.7c0-3-1.1-11.3-1.1-12.7c0-0.7,0.5-1.7,0.9-2.5c0.1-0.2,0.3-0.5,0.5-0.5
		c0.1,0,0.2,0.2,0.2,0.8c0.1,2.2,0.7,7.3,0.7,11c0,1.5-0.1,2.7-0.4,3.5C47.8,23.5,47.6,23.8,47.4,23.8z"/>
	<path class="st0" d="M70.6,25.6c0.1-0.1,0.1,0,0.1,0.1c0,0.6-0.2,1.1-0.5,1.3l-4.1,2.3c-0.1,0-0.1,0-0.1-0.1c0-0.3,0.1-0.8,0.2-1
		c0.1-0.2,0.3-0.3,0.7-0.5L70.6,25.6z"/>
	<path class="st0" d="M75.5,18.2c0,0.5-0.3,1.8-0.6,2.8c-0.3,0.7-0.4,0.8-1.2,1.2c-1.7,0.8-5.7,2-9.8,2c-5.3,0-7.4-1.8-7.4-4.3
		c0-0.9,0.4-2.4,1-3.3c0.2-0.3,0.4-0.6,0.6-0.6c0.1,0,0.1,0,0.1,0.1c0,0.1-0.1,0.3-0.1,0.5c-0.2,0.7-0.5,1.4-0.5,2
		c0,1.1,1.4,3.1,6.5,3.2c3.7,0,7.7-0.8,9.4-1.4c0.9-0.3,0.9-0.5,0.9-1.1c0-0.5-0.1-0.8-0.3-1.3c-0.2,0.5-0.9,1-1.8,1
		c-1.1,0-1.8-0.7-1.8-2c0-1.8,1.4-4.1,2-4.1C74.1,12.8,75.5,15.4,75.5,18.2z M70.5,10c0.1,0.1,0.1,0.1,0,0.2
		c-0.2,0.3-1.1,1.2-1.4,1.7c-0.1,0.1-0.1,0.1-0.2,0c-0.5-0.3-1.5-1-1.7-1.4c-0.1-0.1-0.1-0.1,0-0.2c0.3-0.5,0.9-1.2,1.3-1.6
		c0.2-0.2,0.2-0.2,0.3-0.1C69.1,8.9,69.8,9.6,70.5,10z M72.3,15c-0.3,0-0.6,0.4-0.7,0.8c0,0,0,0.1,0,0.1c0,0,0,0.1,0,0.1
		c0.1,0.3,0.5,0.5,1,0.5c0.4,0,0.8-0.2,0.9-0.3c0,0,0.1-0.1,0.1-0.1C73.5,15.9,73.1,15,72.3,15z"/>
	<path class="st0" d="M80.4,13.2c0.7,0,1.7,1,1.7,2.1c0,0.4-0.1,0.8-0.2,1.2c-0.3,0.8-0.9,1.3-1.8,1.3c-0.8,0-1.3-0.6-1.3-1.3
		C78.8,15.4,79.9,13.2,80.4,13.2z M80.2,14.8c-0.3,0-0.7,0.6-0.7,1c0,0.3,0.4,0.6,0.8,0.6c0.5,0,1.1-0.3,1.1-0.5
		C81.4,15.7,80.8,14.8,80.2,14.8z"/>
	<path class="st0" d="M84,21.6c0.7,0,1.1,0.4,1.1,1.1c0,0.8-0.4,1.2-1.1,1.2h-0.2c-0.6,0-1,0-1.3-0.1c0,0.1,0,0.2,0,0.3
		c0,0.7-0.1,1.5-0.4,2.1c-0.5,1.2-1.3,3.3-3.6,4.3c-0.4,0.2-0.8,0.3-1.2,0.3c-0.9,0-2.4-0.5-3.5-1c-0.3-0.2-0.4-0.3-0.4-0.4
		c0-0.1,0.1-0.2,0.4-0.2c0.3,0,0.8,0.1,1.3,0.1c3.1,0,6.2-2.7,6.6-5c0-0.5-1.1-1.6-1.3-1.9c0-0.1-0.1-0.2-0.1-0.3
		c0-0.5,0.4-1.5,0.6-1.8c0.1-0.2,0.2-0.2,0.3-0.2c0.2,0,0.3,0.2,0.6,0.7c0.4,0.6,0.9,0.9,1.8,0.9H84z"/>
	<path class="st0" d="M87.6,11.7c0.1-0.1,0.1,0,0.1,0.1c0,0.6-0.2,1.1-0.5,1.3l-4.1,2.3c-0.1,0-0.1,0-0.1-0.1c0-0.3,0.1-0.8,0.2-1
		c0.1-0.2,0.3-0.3,0.7-0.5L87.6,11.7z"/>
	<path class="st0" d="M89.7,1.8c0.7,0,1.7,1,1.7,2.1c0,0.4-0.1,0.8-0.2,1.2c-0.3,0.8-0.9,1.3-1.8,1.3c-0.8,0-1.3-0.6-1.3-1.3
		C88.1,3.9,89.2,1.8,89.7,1.8z M89.5,3.4c-0.3,0-0.7,0.6-0.7,1c0,0.3,0.4,0.6,0.8,0.6c0.5,0,1.1-0.3,1.1-0.5
		C90.7,4.2,90.1,3.4,89.5,3.4z"/>
	<path class="st0" d="M90.6,14.4c0,0.6-0.1,1.1-0.2,1.4c-0.1,0.4-0.2,0.7-0.3,1c-0.1,0.3-0.4,0.6-0.9,1c0.9,0.2,1.8,0.5,2.8,0.8
		c1.1,0.3,2,0.6,2.6,0.7c0.6,0.2,1.4,0.2,2.4,0.3l1.7,0.1c0.2,0,0.2,0.1,0.2,0.2c-0.3,0.4-0.7,0.9-1.3,1.6c-0.1,0.2-0.2,0.2-0.4,0.2
		c-0.2,0-1.3-0.2-2.9-0.2c-0.8,0-1.5,0.1-2.3,0.3c-0.7,0.2-1.7,0.5-2.8,0.9c-1.1,0.4-2.1,0.7-2.7,0.9c-0.6,0.2-1.5,0.3-2.4,0.3h-0.2
		c-0.7,0-1-0.4-1-1.2c0-0.8,0.3-1.1,1-1.1h0.3c2.5,0,4.7-0.4,6.7-1c-0.2-0.2-0.9-0.4-2.3-0.8c-1.3-0.4-2.4-0.6-3.1-0.6
		c-0.2,0-0.2,0-0.2-0.1c0-0.3,0.4-0.8,1.3-1.6c0.1-0.1,0.2-0.2,0.3-0.2c0.2-0.1,0.5-0.2,0.9-0.3c0.3-0.1,0.7-0.2,1.3-0.5
		c0.6-0.2,0.8-0.5,0.8-0.8L89,11.4c-0.1-0.4-0.3-1.3-0.4-1.7c0-0.1,0-0.2,0-0.3c0,0,0-0.1,0-0.2c0-0.1,0.1-0.4,0.4-0.9
		c0.2-0.5,0.6-1,0.8-1c0.1,0,0.1,0.1,0.2,0.2c0.3,0.9,0.6,1.4,0.8,1.8c0,0.1,0.1,0.2,0.1,0.2c0,0.1,0,0.1,0,0.2
		c-0.1,0.2-0.3,0.7-0.5,1C90.5,12,90.6,13.4,90.6,14.4z"/>
	<path class="st0" d="M102.5,23.8c-0.1,0-0.2-0.2-0.2-0.7c0-3-1.1-11.3-1.1-12.7c0-0.7,0.5-1.7,0.9-2.5c0.1-0.2,0.3-0.5,0.5-0.5
		c0.1,0,0.2,0.2,0.2,0.8c0.1,2.2,0.7,7.3,0.7,11c0,1.5-0.1,2.7-0.4,3.5C102.8,23.5,102.6,23.8,102.5,23.8z"/>
	<path class="st0" d="M117.2,28.9c2.7,0,7.1-2.1,7.6-2.8c-0.7-0.6-2.6-1.5-4.4-1.5c-0.3,0-0.4-0.1-0.4-0.3c0-0.3,0.3-0.9,0.5-1.3
		c0.1-0.1,0.1-0.2,0.2-0.2c0.7-0.2,1.6-0.7,2.4-1.3c0.8-0.7,1.2-1.6,1.2-2.8c0-1.1-0.1-2.8-0.2-5c-0.1-1.7-0.2-3.4-0.3-3.9
		c0-0.2,0-0.3,0.1-0.4c0.4-1.1,0.8-1.6,0.9-1.6c0.1,0,0.1,0.1,0.1,0.3c0.2,2.9,0.5,8.1,0.8,10.5c0.3,2.1,1.1,3.1,2.3,3.1h0.4
		c0.6,0,0.9,0.4,0.9,1.1c0,0.8-0.3,1.2-0.9,1.2h-0.4c-1,0-1.7-0.3-2.1-0.9c-0.5-0.6-0.9-1.4-1-2.6c-0.1,1.4-0.6,2.4-1.6,3
		c1,0.2,1.4,0.5,1.8,0.7c0.9,0.5,0.9,1.1,0.9,1.5c0,2.8-5.9,5.7-9.3,5.7c-2.2,0-5.3-0.8-5.3-4.8c0-1.7,0.7-3.8,1.5-5
		c0.2-0.4,0.5-0.6,0.7-0.6c0.2,0,0.1,0.4-0.1,0.8c-0.6,1.3-1,2.5-1,3.4C112.4,27.8,114.9,28.9,117.2,28.9z"/>
	<path class="st0" d="M134.3,8.5c0.1-0.1,0.1,0,0.1,0.1c0,0.6-0.2,1.1-0.5,1.3l-4.1,2.3c-0.1,0-0.1,0-0.1-0.1c0-0.3,0.1-0.8,0.2-1
		c0.1-0.2,0.3-0.3,0.7-0.5L134.3,8.5z"/>
	<path class="st0" d="M129.5,19.4c0-0.5,0.2-1.7,0.6-2.5c0.7-1.5,1.9-2.2,2.9-2.2c0.7,0,2.1,0.4,2.8,1c0.3,0.2,0.3,0.4,0.3,0.5
		c0,0.1-0.1,0.1-0.2,0.1c-0.4,0-1-0.1-1.6-0.1c-1.1,0-3.6,1-3.7,1.7c0.1,0.4,1.3,2.3,3.3,2.3h0.1c1.2-0.5,2.7-1.1,3.7-1.6
		c0.4-0.2,0.7-0.3,0.8-0.3c0.1,0,0.1,0,0.1,0.1c0,0.2-0.5,1.2-0.8,1.7c-0.1,0.1-0.2,0.3-0.4,0.4c-0.7,0.4-1.8,0.9-3.2,1.6
		c-1.5,0.7-4.6,1.8-5.9,1.8h-0.2c-0.7,0-1-0.4-1-1.1c0-0.8,0.4-1.1,1.1-1.1h0.2c0.2,0,1.2-0.1,2.1-0.3
		C129.9,20.8,129.5,20.2,129.5,19.4z"/>
	<path class="st0" d="M149.1,3c0.1,0,0.1-0.1,0.2-0.1c0.1,0,0.3,0,0.4,0c0.1,0,0.1,0,0,0.1c-0.9,0.7-1.9,1.7-2.5,2.8
		c-0.2,0.3-0.2,0.5-0.2,0.7c0,0.4,0.4,0.6,0.8,0.8c0.1,0.1,0.2,0.2,0.2,0.3c0,0.5-0.5,1-1.3,1c-0.3,0-0.6-0.1-0.8-0.3
		c-0.2-0.2-0.2-0.4-0.2-0.7c0-0.7,0.3-1.4,0.9-2.3C147.4,4.1,148.6,3.2,149.1,3z M151.1,4.9c0,0.5-0.1,0.9-0.2,1.4
		c0.2,0.1,0.3,0.2,0.3,0.3c0,0.4-0.1,0.7-0.3,0.9c0,0.1-0.1,0.1-0.1,0.1l-0.5-0.3c-0.5,0.7-1.1,1.7-2.2,2.2c-0.3,0.2-0.7,0.3-1,0.3
		c-0.5,0.1-0.8,0-0.8-0.1c0-0.1,0.2-0.2,0.5-0.4c0.8-0.5,2.3-1.7,2.8-2.4c-0.4-0.3-1-0.6-1-1.2c0-0.4,0.2-0.8,0.5-1.2
		c0.4-0.5,0.8-0.8,1.1-0.8C150.9,3.8,151.1,4.4,151.1,4.9z M149.5,5.4C149.5,5.4,149.5,5.4,149.5,5.4c0,0.2,0.3,0.4,0.7,0.6
		c0.1-0.2,0.1-0.3,0.1-0.6c0-0.3-0.1-0.4-0.3-0.4C149.8,5,149.6,5.1,149.5,5.4z"/>
	<path class="st0" d="M149.6,10.8c0.2-0.2,0.2-0.2,0.3-0.1c0.5,0.5,1,1.1,1.5,1.4c0.2,0.1,0.2,0.2,0,0.3c-0.5,0.5-0.9,1-1.3,1.5
		c-0.1,0.1-0.2,0.1-0.3,0c-0.4-0.3-0.9-0.7-1.4-1.2c-0.3,0.3-0.9,1-1.1,1.2c-0.1,0.1-0.2,0.2-0.4,0c-0.5-0.3-1.1-0.9-1.5-1.4
		c-0.1-0.1-0.1-0.2,0-0.3c0.4-0.5,0.9-1,1.4-1.5c0.1-0.1,0.2-0.1,0.3,0.1c0.4,0.4,1,1,1.4,1.2C148.8,11.6,149.4,11,149.6,10.8z"/>
	<path class="st0" d="M156.6,3.2c0.1-0.1,0.1,0,0.1,0.1c0,0.6-0.2,1.1-0.5,1.3l-4.1,2.3c-0.1,0-0.1,0-0.1-0.1c0-0.3,0.1-0.8,0.2-1
		c0.1-0.2,0.3-0.3,0.7-0.5L156.6,3.2z"/>
	<path class="st0" d="M153.9,9.8c0-0.1,0-0.2,0-0.3c0,0,0-0.1,0-0.2c0-0.1,0.2-0.5,0.5-1c0.3-0.5,0.5-0.9,0.7-0.9
		c0.1,0,0.1,0.1,0.2,0.2c0.3,1,0.6,1.4,0.8,1.7c0,0.1,0.1,0.2,0.1,0.2s0,0.1,0,0.2c-0.1,0.2-0.4,0.8-0.6,1.1c0,0.6,0.2,2.2,0.5,4.3
		c0.2,2,0.3,3.1,0.3,3.6c0,1.7-0.4,3-1.1,4c-0.6,0.7-1.4,1-2.3,1c-0.7,0-1.3-0.2-1.8-0.8c-0.4-0.5-0.8-1.4-1.1-2.8
		c-0.5,1.2-1.2,1.8-2.2,1.8c-0.1,0-0.1,0-0.4,0c-0.7,0-1.1-0.1-1.4-0.2c-0.2-0.1-0.4-0.3-0.4-0.6c0-0.1,0-0.2,0.1-0.4
		c0.1-0.3,0.2-0.7,0.3-1c0.2-0.5,0.5-0.9,1-1.1c0.8-0.5,1.8-1,2.7-1.3c0-0.3,0.1-0.7,0.3-1.2c0.2-0.5,0.3-0.8,0.4-0.8
		c0.1,0,0.2,0.1,0.2,0.3c0.1,0.6,0.2,1.9,0.5,3.7c0.2,0.6,0.4,1.1,0.7,1.4c0.3,0.3,0.7,0.5,1.2,0.5c0.1,0,0.2,0,0.4,0
		c0.4,0,0.7,0,1-0.2c0.4-0.1,0.6-0.3,0.7-0.4c-0.1-1.9-0.9-8.8-1.1-10.3C153.9,10.2,153.9,10.3,153.9,9.8z M148.4,19.8
		c0.7,0,1.1-0.2,1.4-0.5l-0.2-1.1c-1.2,0.6-2,1-2.3,1.4C147.6,19.8,148,19.8,148.4,19.8z"/>
	<path class="st0" d="M170.3,9.4c0.1,0.2,0.1,0.2,0.1,0.3c0,0.1,0,0.1-0.1,0.2c-0.2,0.4-0.5,1-0.8,1.3c-0.2,2.4-0.5,4.3-1.6,7
		c0.3,0.8,0.5,1.9,0.5,2.9c0,0.7-0.1,1.3-0.3,1.8c-0.2,0.4-2.7,0.8-4.4,0.8c-0.5,0-0.8,0-1.1-0.1c-0.1,0-0.2-0.3-0.2-0.7
		c0-0.6,0.1-1.5,0.3-1.8c0-0.1,0.1-0.1,0.1-0.1c0.1,0,0.1,0,0.2,0c1.4,0,2.8-1.3,3.7-2.9c-1.1-2.2-3.5-5.2-5.6-6.6
		c0,0.1-0.4,0.6-0.7,0.6c-0.3,0-2.2-1.8-2.2-2.2c0-0.2-0.1-0.4-0.1-0.6c0-0.6,0.1-1.1,0.2-1.4c0.1-0.3,0.3-0.4,0.4-0.4
		c0.2,0,0.5,0.2,0.8,0.4c1.6,1.1,3.2,2.4,4.5,4c1,1.3,2.3,3,3.3,5.1c0.6-1.3,0.7-2.2,0.9-3.9c0.1-1,0.1-1.7,0.1-2.2
		c0-1.1-0.1-1.5-0.1-1.8c0-0.2,0.1-0.4,0.2-0.7c0.4-0.7,0.7-1.2,0.8-1.2c0.1,0,0.1,0.1,0.2,0.2C169.7,8.2,170,8.8,170.3,9.4z
		 M167.2,19.3c-0.8,1.1-0.9,1.3-1.7,2.1c0.8,0,1.5-0.1,2.1-0.3C167.6,20.7,167.6,20.1,167.2,19.3z"/>
	<path class="st0" d="M176.1,8.4c0.1-0.1,0.1,0,0.1,0.1c0,0.6-0.2,1.1-0.5,1.3l-4.1,2.3c-0.1,0-0.1,0-0.1-0.1c0-0.3,0.1-0.8,0.2-1
		c0.1-0.2,0.3-0.3,0.7-0.5L176.1,8.4z"/>
	<path class="st0" d="M177.9,19.8c0,0.9-0.2,1.7-0.3,2c-0.4,1.5-2,2.1-4.9,2.1c-0.7,0-1-0.1-1.2-0.3c-0.2-0.2-0.3-0.7-0.3-1.2
		c0-0.4,0.1-0.7,0.1-0.8c0.1-0.3,0.2-0.5,0.2-0.5c0.1,0,0.1,0.1,0.2,0.2c0.3,0.2,0.9,0.3,1.7,0.3c1.2,0,2.7-0.2,3.3-0.6
		c0.1,0,0.1-0.1,0.1-0.1c0,0,0-0.1,0-0.1c-0.4-1.4-2.2-3.9-3.6-3.9c-0.2,0-0.4,0.2-0.6,0.2c-0.1,0-0.1,0-0.1-0.2
		c0-0.5,0.4-1.8,0.8-2.2c0.1-0.1,0.3-0.1,0.5-0.1c0.3,0,0.8,0.1,1.1,0.3c0.6,0.2,1.5,1.2,2.2,2.4C177.6,18,177.9,18.8,177.9,19.8z"
		/>
	<path class="st0" d="M190.8,25.5c0.1-0.1,0.1,0,0.1,0.1c0,0.6-0.2,1.1-0.5,1.3l-4.1,2.3c-0.1,0-0.1,0-0.1-0.1c0-0.3,0.1-0.8,0.2-1
		c0.1-0.2,0.3-0.3,0.7-0.5L190.8,25.5z"/>
	<path class="st0" d="M192.7,21.1c0.5,0.3,0.9,0.5,1.2,0.5h0.3c0.7,0,1.1,0.4,1.1,1.1c0,0.8-0.4,1.2-1.1,1.2h-0.3
		c-0.8,0-1.5-0.3-2.3-0.9c-0.7-0.6-1.2-1.6-1.4-3c-0.2,0.4-0.4,0.7-0.8,1c-0.6,0.4-1.6,0.6-2.6,0.6c-0.7,0-1.4-0.1-1.4-0.7
		c0.3-2.2,0.6-2.6,1.7-3.4c0.5-0.4,1.8-1.2,2.3-1.6c0-0.2,0-0.4,0-0.5c0-0.5,0.1-0.8,0.4-1.2c0.2-0.3,0.3-0.5,0.4-0.5
		c0.1,0,0.2,0.2,0.2,0.5c0.3,2.1,0.5,3.8,0.8,4.8C191.4,19.8,191.9,20.6,192.7,21.1z M189.7,17c-0.9,0.6-2.5,1.6-2.6,1.9
		c0,0.2,0.3,0.2,0.7,0.2c0.6,0,1.5-0.2,2.2-0.5C189.9,18,189.8,17.8,189.7,17z"/>
	<path class="st0" d="M198.7,20.2c0,0.6,0.6,1.2,1.4,1.4c0.2,0,0.3,0,0.5,0h0.1c0.9,0,0.9,0.7,0.9,1c0,0.3,0,1.3-0.8,1.3h-0.2
		c-0.2,0-0.3,0-0.6,0c-1.5-0.2-2.1-1.5-2.2-1.7c-0.2,0.6-1.5,1.7-3.7,1.7h-0.1c-0.6,0-1-0.6-1-1.1c0-0.6,0.3-1.1,1-1.1h0.7
		c1,0,2.4-0.2,3.3-1.6c0.3-0.5,0.4-0.5,0.5-0.5C198.6,19.4,198.7,19.7,198.7,20.2z M198.5,26.9c0.2-0.2,0.2-0.2,0.3-0.1
		c0.5,0.5,1,1.1,1.5,1.4c0.2,0.1,0.2,0.2,0,0.3c-0.5,0.5-0.9,1-1.3,1.5c-0.1,0.1-0.2,0.1-0.3,0c-0.4-0.3-0.9-0.7-1.4-1.2
		c-0.3,0.3-0.9,1-1.1,1.2c-0.1,0.1-0.2,0.2-0.4,0c-0.5-0.3-1.1-0.9-1.5-1.4c-0.1-0.1-0.1-0.2,0-0.3c0.4-0.5,0.9-1,1.4-1.5
		c0.1-0.1,0.2-0.1,0.3,0.1c0.4,0.4,1,1,1.4,1.2C197.7,27.8,198.3,27.1,198.5,26.9z"/>
	<path class="st0" d="M206.3,18.6c0,1.2-0.4,2.9-0.9,3.7c-0.2,0.3-0.9,0.7-1.4,0.8c-1.4,0.4-2.5,0.6-3.3,0.6h-0.2
		c-0.6,0-1-0.4-1-1.2c0-0.7,0.3-1.1,1-1.1h0.2c1.3,0,2.8-0.2,3.7-0.5c0.8-0.3,0.9-0.3,0.9-1.1c0-0.5-0.1-0.8-0.3-1.3
		c-0.2,0.5-0.9,1-1.8,1c-1.1,0-1.8-0.7-1.8-2c0-1.8,1.4-4.1,2-4.1C205.2,13.6,206.3,17,206.3,18.6z M204.9,8.7
		c0.1,0.1,0.1,0.1,0,0.2c-0.2,0.3-1.1,1.2-1.4,1.7c-0.1,0.1-0.1,0.1-0.2,0c-0.5-0.3-1.5-1-1.7-1.4c-0.1-0.1-0.1-0.1,0-0.2
		c0.3-0.5,0.9-1.2,1.3-1.6c0.2-0.2,0.2-0.2,0.3-0.1C203.5,7.6,204.2,8.2,204.9,8.7z M203.8,16.1c-0.2-0.2-0.5-0.3-0.7-0.3
		c-0.2,0-0.4,0.1-0.5,0.4c-0.1,0.2-0.2,0.4-0.2,0.5c0,0.5,0.5,0.6,1,0.6c0.5,0,0.9-0.2,0.9-0.5C204.3,16.8,204.1,16.3,203.8,16.1z"
		/>
	<path class="st0" d="M219.3,26.5c0.1-0.1,0.1,0,0.1,0.1c0,0.6-0.2,1.1-0.5,1.3l-4.1,2.3c-0.1,0-0.1,0-0.1-0.1c0-0.3,0.1-0.8,0.2-1
		c0.1-0.2,0.3-0.3,0.7-0.5L219.3,26.5z"/>
	<path class="st0" d="M219.6,22.4c-1.1,0.6-3.5,2-5.4,3.4c-0.1,0.1-0.1,0.1-0.2,0.1s-0.1,0-0.1-0.1c0-0.2,0.1-0.6,0.3-0.9
		c0.1-0.2,0.7-0.8,1.1-1.2c0.1-0.1,0.1-0.1,0.1-0.1c0,0,0-0.1-0.2-0.1c-0.8-0.3-1.3-0.6-1.3-1.4c0-1.2,1.2-3,2.4-3.9
		c0.5-0.4,0.9-0.6,1.4-0.6c0.7,0,1.1,0.3,1.1,1c0,0.3-0.1,0.9-0.3,1.4c-0.1,0.3-0.2,0.4-0.3,0.4c-0.1,0-0.1,0-0.3-0.2
		c-0.2-0.2-0.5-0.4-0.8-0.4c-0.7,0-1.7,0.5-1.7,0.9c0,0.4,1.7,1.1,2.4,1.1c0.1,0,0.1,0,0.2,0c0.4-0.1,1.4-0.5,2-0.9
		c0.2-0.1,0.3-0.2,0.4-0.2c0.1,0,0.1,0,0.1,0.1c0,0.1-0.1,0.3-0.2,0.6C220,22.3,219.9,22.3,219.6,22.4z"/>
	<path class="st0" d="M227.2,23.8c-0.7,0-1.2-0.1-1.7-0.5c-0.7-0.6-1.1-1.7-1.3-3.1c-0.2-1.1-0.2-2.3-0.3-3.7
		c-0.1-2-0.2-5.1-0.5-6.9c0-0.1,0-0.2,0-0.2c0-0.1,0-0.2,0.2-0.4c0.3-0.5,0.5-0.8,0.7-1.2c0.2-0.3,0.2-0.3,0.3-0.3
		c0.1,0,0.2,0.2,0.3,0.7c0.4,3.5,0.1,8.4,0.6,11.1c0.1,0.7,0.2,0.9,0.4,1.3c0.3,0.6,0.7,0.9,1.4,1c0.8,0,1.2,0.4,1.2,1.1
		c0,0.9-0.4,1.2-1.1,1.2H227.2z"/>
	<path class="st0" d="M232.1,20.2c0,0.6,0.6,1.2,1.4,1.4c0.2,0,0.3,0,0.5,0h0.1c0.9,0,0.9,0.7,0.9,1c0,0.3,0,1.3-0.8,1.3h-0.2
		c-0.2,0-0.3,0-0.6,0c-1.5-0.2-2.1-1.5-2.2-1.7c-0.2,0.6-1.5,1.7-3.7,1.7h-0.1c-0.6,0-1-0.6-1-1.1c0-0.6,0.3-1.1,1-1.1h0.7
		c1,0,2.4-0.2,3.3-1.6c0.3-0.5,0.4-0.5,0.5-0.5C232,19.4,232.1,19.7,232.1,20.2z M231.9,26.9c0.2-0.2,0.2-0.2,0.3-0.1
		c0.5,0.5,1,1.1,1.5,1.4c0.2,0.1,0.2,0.2,0,0.3c-0.5,0.5-0.9,1-1.3,1.5c-0.1,0.1-0.2,0.1-0.3,0c-0.4-0.3-0.9-0.7-1.4-1.2
		c-0.3,0.3-0.9,1-1.1,1.2c-0.1,0.1-0.2,0.2-0.4,0c-0.5-0.3-1.1-0.9-1.5-1.4c-0.1-0.1-0.1-0.2,0-0.3c0.4-0.5,0.9-1,1.4-1.5
		c0.1-0.1,0.2-0.1,0.3,0.1c0.4,0.4,1,1,1.4,1.2C231.1,27.8,231.7,27.1,231.9,26.9z"/>
	<path class="st0" d="M236.4,22.8c-0.5,0.7-1.2,1-2.3,1h-0.2c-0.7,0-1-0.4-1-1.2c0-0.7,0.3-1.1,1-1.1h0.2c0.5,0,1-0.1,1.5-0.2
		c0.4-0.1,0.6-0.3,0.7-0.4c0-1.7-0.6-5.4-0.9-8.9c0-0.4-0.3-1.6-0.4-2.1c0-0.1,0-0.2,0-0.2c0-0.3,0.3-0.9,0.5-1.3
		c0.3-0.5,0.5-0.9,0.7-0.9c0.1,0,0.1,0.1,0.2,0.2c0.3,1,0.6,1.5,0.8,1.8c0.1,0.1,0.1,0.2,0.1,0.3c0,0,0,0.1,0,0.1
		c-0.1,0.2-0.4,0.8-0.6,1.1c0.2,3.4,0.7,6.2,0.7,7.8C237.4,20.5,237.1,21.8,236.4,22.8z"/>
	<path class="st0" d="M242,23.8c-0.1,0-0.2-0.2-0.2-0.7c0-3-1.1-11.3-1.1-12.7c0-0.7,0.5-1.7,0.9-2.5c0.1-0.2,0.3-0.5,0.5-0.5
		c0.1,0,0.2,0.2,0.2,0.8c0.1,2.2,0.7,7.3,0.7,11c0,1.5-0.1,2.7-0.4,3.5C242.4,23.5,242.2,23.8,242,23.8z"/>
	<path class="st0" d="M250.4,11.4c0.1-0.1,0.1,0,0.1,0.1c0,0.6-0.2,1.1-0.5,1.3l-4.1,2.3c-0.1,0-0.1,0-0.1-0.1c0-0.3,0.1-0.8,0.2-1
		c0.1-0.2,0.3-0.3,0.7-0.5L250.4,11.4z"/>
	<path class="st0" d="M251.1,19.7c0.3,0.9,0.5,1.8,0.5,3.1c0,4-1.1,6.5-4.2,7.7c-0.2,0.1-0.4,0.1-0.6,0.1c-1,0-2.6-0.5-4-1.1
		c-0.3-0.2-0.4-0.3-0.4-0.4c0-0.1,0.1-0.2,0.4-0.2c0.2,0,1.1,0.2,1.8,0.2c0.9,0,1.9-0.4,3.3-1.3c1.5-1,2.8-2.3,2.8-3.8
		c0-0.5-0.1-1-0.4-1.5c-0.3,0.7-0.8,1.1-1.5,1.1c-1.3,0-2.1-0.7-2.1-2.1c0-0.5,0.3-1.3,0.6-2.1c0.5-1,1.2-1.9,1.8-1.9
		C249.8,17.5,250.6,18.4,251.1,19.7z M248.6,19.7c-0.3,0-0.5,0.2-0.7,0.5c-0.1,0.1-0.2,0.4-0.2,0.5c0,0.4,0.6,0.6,1.1,0.6
		c0.4,0,0.7-0.2,0.8-0.4C249.6,20.2,248.9,19.7,248.6,19.7z"/>
	<path class="st0" d="M267.5,31.2c0.1-0.1,0.1,0,0.1,0.1c0,0.6-0.2,1.1-0.5,1.3l-4.1,2.3c-0.1,0-0.1,0-0.1-0.1c0-0.3,0.1-0.8,0.2-1
		c0.1-0.2,0.3-0.3,0.7-0.5L267.5,31.2z"/>
	<path class="st0" d="M267.2,19.7c0.3,0.9,0.5,1.8,0.5,3.1c0,4-1.1,6.5-4.2,7.7c-0.2,0.1-0.4,0.1-0.6,0.1c-1,0-2.6-0.5-4-1.1
		c-0.3-0.2-0.4-0.3-0.4-0.4c0-0.1,0.1-0.2,0.4-0.2c0.2,0,1.1,0.2,1.8,0.2c0.9,0,1.9-0.4,3.3-1.3c1.5-1,2.8-2.3,2.8-3.8
		c0-0.5-0.1-1-0.4-1.5c-0.3,0.7-0.8,1.1-1.5,1.1c-1.3,0-2.1-0.7-2.1-2.1c0-0.5,0.3-1.3,0.6-2.1c0.5-1,1.2-1.9,1.8-1.9
		C265.8,17.5,266.7,18.4,267.2,19.7z M264.7,19.7c-0.3,0-0.5,0.2-0.7,0.5c-0.1,0.1-0.2,0.4-0.2,0.5c0,0.4,0.6,0.6,1.1,0.6
		c0.4,0,0.7-0.2,0.8-0.4C265.7,20.2,265,19.7,264.7,19.7z"/>
	<path class="st0" d="M271.6,23.8c-0.1,0-0.2-0.2-0.2-0.7c0-3-1.1-11.3-1.1-12.7c0-0.7,0.5-1.7,0.9-2.5c0.1-0.2,0.3-0.5,0.5-0.5
		c0.1,0,0.2,0.2,0.2,0.8c0.1,2.2,0.7,7.3,0.7,11c0,1.5-0.1,2.7-0.4,3.5C272,23.5,271.8,23.8,271.6,23.8z"/>
	<path class="st0" d="M272.1,29.8c-0.3-0.2-0.4-0.3-0.4-0.4c0-0.1,0.2-0.2,0.4-0.2c0.3,0,1.1,0.2,1.8,0.2c0.6,0,1.2-0.2,2.1-0.6
		c2.4-1.2,3.9-3,3.9-4.2c0-0.2,0-0.3-0.1-0.7H279c-0.5,0-1.5-0.1-2.2-0.5c-0.7-0.4-1-0.9-1-1.5c0-0.6,0.3-1.4,0.6-2.2
		c0.6-1.3,1.2-2.2,1.9-2.2c0.7,0,1.3,0.5,1.8,1.1c0.5,0.7,0.7,1.8,0.7,2.8h1c0.6,0,0.9,0.3,0.9,1c0,0.8-0.3,1.2-0.9,1.2l-1.1,0.1
		c-0.2,3.5-1.3,5.8-4.1,6.9c-0.2,0.1-0.4,0.1-0.6,0.1C275.1,30.8,273.4,30.4,272.1,29.8z M278.3,20.1c-0.1-0.1-0.3-0.2-0.6-0.2
		c-0.5,0-0.8,0.5-0.8,0.8c0,0.2,0.2,0.5,0.8,0.7c0.4,0.2,0.9,0.2,1.1,0.2c0.2,0,0.2,0,0.2-0.1C279.2,21.3,278.8,20.5,278.3,20.1z"/>
	<path class="st0" d="M283.7,1.6c0.7,0,1.7,1,1.7,2.1c0,0.4-0.1,0.8-0.2,1.2c-0.3,0.8-0.9,1.3-1.8,1.3c-0.8,0-1.3-0.6-1.3-1.3
		C282.1,3.8,283.2,1.6,283.7,1.6z M283.5,3.2c-0.3,0-0.7,0.6-0.7,1c0,0.3,0.4,0.6,0.8,0.6c0.5,0,1.1-0.3,1.1-0.5
		C284.7,4.1,284.1,3.2,283.5,3.2z"/>
	<path class="st0" d="M284,22.8c-0.5,0.7-1.2,1-2.3,1h-0.2c-0.7,0-1-0.4-1-1.2c0-0.7,0.3-1.1,1-1.1h0.2c0.5,0,1-0.1,1.5-0.2
		c0.4-0.1,0.6-0.3,0.7-0.4c0-1.7-0.6-5.4-0.9-8.9c0-0.4-0.3-1.6-0.4-2.1c0-0.1,0-0.2,0-0.2c0-0.3,0.3-0.9,0.5-1.3
		c0.3-0.5,0.5-0.9,0.7-0.9c0.1,0,0.1,0.1,0.2,0.2c0.3,1,0.6,1.5,0.8,1.8c0.1,0.1,0.1,0.2,0.1,0.3c0,0,0,0.1,0,0.1
		c-0.1,0.2-0.4,0.8-0.6,1.1c0.2,3.4,0.7,6.2,0.7,7.8C285,20.5,284.7,21.8,284,22.8z"/>
	<path class="st0" d="M289.6,23.8c-0.1,0-0.2-0.2-0.2-0.7c0-3-1.1-11.3-1.1-12.7c0-0.7,0.5-1.7,0.9-2.5c0.1-0.2,0.3-0.5,0.5-0.5
		c0.1,0,0.2,0.2,0.2,0.8c0.1,2.2,0.7,7.3,0.7,11c0,1.5-0.1,2.7-0.4,3.5C290,23.5,289.8,23.8,289.6,23.8z"/>
	<path class="st0" d="M307.3,6.5c0.1-0.1,0.1,0,0.1,0.1c0,0.6-0.2,1.1-0.5,1.3l-4.1,2.3c-0.1,0-0.1,0-0.1-0.1c0-0.3,0.1-0.8,0.2-1
		c0.1-0.2,0.3-0.3,0.7-0.5L307.3,6.5z"/>
	<path class="st0" d="M309,21.6h0.3c0.7,0,1,0.4,1,1.1c0,0.8-0.4,1.2-1,1.2H309c-0.8,0-1.4-0.3-1.8-0.7c-0.5-0.4-0.8-1-1.1-1.9
		c-0.3,1.6-2.2,2.6-4.6,2.6c-0.7,0-1.5-0.1-2.1-0.5c-0.4-0.3-0.7-0.6-0.7-1.1c0-0.5,0.1-1.3,0.4-1.9c0.1-0.2,0.2-0.3,0.3-0.3
		c0.1,0,0.2,0.1,0.3,0.3c0.2,0.7,1.2,1,2.3,1c2.1,0,3.1-0.5,3.6-1.3c0-0.2,0.1-0.4,0.1-0.7c0-1.3-0.4-2.9-0.7-4.4
		c0-0.2-0.1-0.3-0.1-0.5c0-0.1,0.1-0.4,0.5-1.4c0.2-0.4,0.3-0.6,0.4-0.6c0.1,0,0.2,0.2,0.3,0.6c0.8,3.3,0.8,5.6,1.2,7
		c0.1,0.4,0.2,0.6,0.5,0.9C308.1,21.3,308.5,21.5,309,21.6z"/>
	<path class="st0" d="M312.2,6.7c0.7,0,1.7,1,1.7,2.1c0,0.4-0.1,0.8-0.2,1.2c-0.3,0.8-0.9,1.3-1.8,1.3c-0.8,0-1.3-0.6-1.3-1.3
		C310.6,8.9,311.7,6.7,312.2,6.7z M312,8.3c-0.3,0-0.7,0.6-0.7,1c0,0.3,0.4,0.6,0.8,0.6c0.5,0,1.1-0.3,1.1-0.5
		C313.2,9.1,312.6,8.3,312,8.3z"/>
	<path class="st0" d="M313.8,20.2c0,0.6,0.6,1.2,1.4,1.4c0.2,0,0.3,0,0.5,0h0.1c0.9,0,0.9,0.7,0.9,1c0,0.3,0,1.3-0.8,1.3h-0.2
		c-0.2,0-0.3,0-0.6,0c-1.5-0.2-2.1-1.5-2.2-1.7c-0.2,0.6-1.5,1.7-3.7,1.7h-0.1c-0.6,0-1-0.6-1-1.1c0-0.6,0.3-1.1,1-1.1h0.7
		c1,0,2.4-0.2,3.3-1.6c0.3-0.5,0.4-0.5,0.5-0.5C313.7,19.4,313.8,19.7,313.8,20.2z M314.6,14.3c0.1,0.1,0.1,0.1,0,0.2
		c-0.2,0.3-1.1,1.2-1.4,1.7c-0.1,0.1-0.1,0.1-0.2,0c-0.5-0.3-1.5-1-1.7-1.4c-0.1-0.1-0.1-0.1,0-0.2c0.3-0.5,0.9-1.2,1.3-1.6
		c0.2-0.2,0.2-0.2,0.3-0.1C313.2,13.2,313.9,13.9,314.6,14.3z"/>
	<path class="st0" d="M322.9,25.6c0.1-0.1,0.1,0,0.1,0.1c0,0.6-0.2,1.1-0.5,1.3l-4.1,2.3c-0.1,0-0.1,0-0.1-0.1c0-0.3,0.1-0.8,0.2-1
		c0.1-0.2,0.3-0.3,0.7-0.5L322.9,25.6z"/>
	<path class="st0" d="M317.1,19.4c0-0.5,0.2-1.7,0.6-2.5c0.7-1.5,1.9-2.2,2.9-2.2c0.7,0,2.1,0.4,2.8,1c0.3,0.2,0.3,0.4,0.3,0.5
		c0,0.1-0.1,0.1-0.2,0.1c-0.4,0-1-0.1-1.6-0.1c-1.1,0-3.6,1-3.7,1.7c0.1,0.4,1.3,2.3,3.3,2.3h0.1c1.2-0.5,2.7-1.1,3.7-1.6
		c0.4-0.2,0.7-0.3,0.8-0.3c0.1,0,0.1,0,0.1,0.1c0,0.2-0.5,1.2-0.8,1.7c-0.1,0.1-0.2,0.3-0.4,0.4c-0.7,0.4-1.8,0.9-3.2,1.6
		c-1.5,0.7-4.6,1.8-5.9,1.8h-0.2c-0.7,0-1-0.4-1-1.1c0-0.8,0.4-1.1,1.1-1.1h0.2c0.2,0,1.2-0.1,2.1-0.3
		C317.4,20.8,317.1,20.2,317.1,19.4z"/>
	<path class="st0" d="M340.7,12c0.1-0.1,0.1,0,0.1,0.1c0,0.6-0.2,1.1-0.5,1.3l-4.1,2.3c-0.1,0-0.1,0-0.1-0.1c0-0.3,0.1-0.8,0.2-1
		c0.1-0.2,0.3-0.3,0.7-0.5L340.7,12z"/>
	<path class="st0" d="M333,29.8c-0.3-0.2-0.4-0.3-0.4-0.4c0-0.1,0.2-0.2,0.4-0.2c0.3,0,1.1,0.2,1.8,0.2c0.6,0,1.2-0.2,2.1-0.6
		c2.4-1.2,3.9-3,3.9-4.2c0-0.2,0-0.3-0.1-0.7h-0.7c-0.5,0-1.5-0.1-2.2-0.5c-0.7-0.4-1-0.9-1-1.5c0-0.6,0.3-1.4,0.6-2.2
		c0.6-1.3,1.2-2.2,1.9-2.2c0.7,0,1.3,0.5,1.8,1.1c0.5,0.7,0.7,1.8,0.7,2.8h1c0.6,0,0.9,0.3,0.9,1c0,0.8-0.3,1.2-0.9,1.2l-1.1,0.1
		c-0.2,3.5-1.3,5.8-4.1,6.9c-0.2,0.1-0.4,0.1-0.6,0.1C335.9,30.8,334.3,30.4,333,29.8z M339.2,20.1c-0.1-0.1-0.3-0.2-0.6-0.2
		c-0.5,0-0.8,0.5-0.8,0.8c0,0.2,0.2,0.5,0.8,0.7c0.4,0.2,0.9,0.2,1.1,0.2c0.2,0,0.2,0,0.2-0.1C340,21.3,339.6,20.5,339.2,20.1z"/>
	<path class="st0" d="M348.2,6.3c0,0.5-0.1,1-0.3,1.5c0.2,0.1,0.4,0.3,0.4,0.4c0,0.4-0.2,0.7-0.3,1c-0.1,0.1-0.1,0.1-0.1,0.1
		l-0.5-0.3c-0.5,0.8-1.3,1.8-2.5,2.3c-0.4,0.2-0.9,0.4-1.5,0.4c-0.3,0-0.4-0.1-0.4-0.1c0-0.1,0.2-0.2,0.6-0.4
		c0.9-0.5,2.5-1.8,3.1-2.5c-0.5-0.3-1.1-0.7-1.1-1.4c0-0.4,0.2-0.9,0.6-1.3c0.4-0.5,0.8-0.8,1.2-0.8C348,5,348.2,5.7,348.2,6.3z
		 M346.4,6.7C346.4,6.8,346.4,6.8,346.4,6.7c0,0.2,0.4,0.5,0.8,0.7c0.1-0.2,0.1-0.4,0.1-0.7c0-0.3-0.1-0.4-0.3-0.4
		C346.8,6.3,346.6,6.5,346.4,6.7z"/>
	<path class="st0" d="M352.6,20.3c0,1.6-0.8,2.6-1.7,2.6c-0.3,0-1-0.1-1.6-0.3c-0.8-0.2-1.5-0.5-2.4-0.6c-1.7,1.2-3.1,1.9-4.4,1.9
		h-0.2c-0.7,0-1-0.4-1-1.1c0-0.8,0.3-1.1,1-1.1h0.2c0.6,0,1.3-0.2,2.2-0.5c-0.2-0.3-0.3-0.7-0.3-1.2c0-1.2,0.6-2.7,1.1-3.4
		c-0.1-0.1-0.2-0.4-0.2-0.6c0-0.3,0.1-1.1,0.4-1.6c0.1-0.3,0.3-0.5,0.6-0.5C348,13.7,352.5,17,352.6,20.3z M348.4,18.9
		c0-0.9-1.2-1.9-1.5-1.9c-0.2,0-0.5,0.2-0.9,0.5c-0.4,0.4-0.7,0.8-0.7,1c0.1,1,1,1.2,1.7,1.3C347.2,19.8,348.4,19.2,348.4,18.9z
		 M351.8,21.1C351.8,21.1,351.8,21.1,351.8,21.1c-0.1-1.1-1.2-2.6-2.6-3.3c0,1.4-0.7,2.3-0.7,2.3C349.9,20.5,350.8,21.1,351.8,21.1z
		"/>
	<path class="st0" d="M360,11.4c0.1-0.1,0.1,0,0.1,0.1c0,0.6-0.2,1.1-0.5,1.3l-4.1,2.3c-0.1,0-0.1,0-0.1-0.1c0-0.3,0.1-0.8,0.2-1
		c0.1-0.2,0.3-0.3,0.7-0.5L360,11.4z"/>
	<path class="st0" d="M360.8,19.7c0.3,0.9,0.5,1.8,0.5,3.1c0,4-1.1,6.5-4.2,7.7c-0.2,0.1-0.4,0.1-0.6,0.1c-1,0-2.6-0.5-4-1.1
		c-0.3-0.2-0.4-0.3-0.4-0.4c0-0.1,0.1-0.2,0.4-0.2c0.2,0,1.1,0.2,1.8,0.2c0.9,0,1.9-0.4,3.3-1.3c1.5-1,2.8-2.3,2.8-3.8
		c0-0.5-0.1-1-0.4-1.5c-0.3,0.7-0.8,1.1-1.5,1.1c-1.3,0-2.1-0.7-2.1-2.1c0-0.5,0.3-1.3,0.6-2.1c0.5-1,1.2-1.9,1.8-1.9
		C359.4,17.5,360.3,18.4,360.8,19.7z M358.3,19.7c-0.3,0-0.5,0.2-0.7,0.5c-0.1,0.1-0.2,0.4-0.2,0.5c0,0.4,0.6,0.6,1.1,0.6
		c0.4,0,0.7-0.2,0.8-0.4C359.3,20.2,358.6,19.7,358.3,19.7z"/>
	<path class="st0" d="M372.7,22.6c0.2,0.3,0.3,0.6,0.3,1.1c0,0.5-0.2,0.9-0.5,1.1c-0.3,0.2-0.6,0.3-1,0.3c-0.6,0-1.2-0.4-1.5-1.1
		c-0.3-0.7-0.4-1.3-0.4-2c0-0.8,0.2-1.6,0.5-2.3c0.3-0.7,0.6-1.2,1-1.7c0.4-0.4,0.6-0.7,0.8-0.7c0.3,0,0.1,0.4-0.2,0.8
		c-0.8,1.1-1.1,2.1-1.1,3.2c0,0.6,0.1,0.7,0.2,1c0.3-0.1,0.6-0.2,0.8-0.2C372.1,22.1,372.4,22.3,372.7,22.6z"/>
	<path class="st0" d="M385.7,26.9c0.1-0.1,0.1,0,0.1,0.1c0,0.6-0.2,1.1-0.5,1.3l-4.1,2.3c-0.1,0-0.1,0-0.1-0.1c0-0.3,0.1-0.8,0.2-1
		c0.1-0.2,0.3-0.3,0.7-0.5L385.7,26.9z"/>
	<path class="st0" d="M377,24.5c-0.9-0.8-1.4-2.1-1.4-3.4c0-1.5,0.9-3.2,1.4-3.9c0.2-0.3,0.4-0.4,0.5-0.4c0.1,0,0.1,0.1,0.1,0.2
		c0,0.1-0.1,0.3-0.2,0.5c-0.4,0.9-0.9,1.8-0.9,2.9c0,0.8,0.6,1.6,1.4,2.1c0.8,0.5,1.7,0.8,2.7,0.8c2.4,0,5.7-1,6.4-2.7
		c0-0.2,0-0.3,0-0.4c0-1.1-0.3-2.3-0.9-3.1c-0.2-0.4-0.4-0.7-0.5-0.8c0,0,0-0.1,0-0.2c0-0.2,0.1-0.5,0.2-0.8
		c0.2-0.4,0.3-0.8,0.4-1.1c0.1-0.1,0.1-0.2,0.2-0.2c0.1,0,0.1,0,0.2,0.3c0.7,1.5,1.3,2.9,1.3,4.7c0,1.4-0.2,2.3-0.3,2.7
		c-0.4,0.9-0.6,1.3-1.1,1.8c-0.5,0.5-1.4,1.2-2.5,1.6c-1.1,0.5-2.4,0.7-4.1,0.7C378.9,25.6,377.9,25.4,377,24.5z M383.6,10.7
		c0.1,0.1,0.1,0.1,0,0.2c-0.2,0.3-1.1,1.2-1.4,1.7c-0.1,0.1-0.1,0.1-0.2,0c-0.5-0.3-1.5-1-1.7-1.4c-0.1-0.1-0.1-0.1,0-0.2
		c0.3-0.5,0.9-1.2,1.3-1.6c0.2-0.2,0.2-0.2,0.3-0.1C382.1,9.6,382.9,10.3,383.6,10.7z"/>
	<path class="st0" d="M387,29.8c-0.3-0.2-0.4-0.3-0.4-0.4c0-0.1,0.2-0.2,0.4-0.2c0.3,0,1.1,0.2,1.8,0.2c0.6,0,1.2-0.2,2.1-0.6
		c2.4-1.2,3.9-3,3.9-4.2c0-0.2,0-0.3-0.1-0.7H394c-0.5,0-1.5-0.1-2.2-0.5c-0.7-0.4-1-0.9-1-1.5c0-0.6,0.3-1.4,0.6-2.2
		c0.6-1.3,1.2-2.2,1.9-2.2c0.7,0,1.3,0.5,1.8,1.1c0.5,0.7,0.7,1.8,0.7,2.8h1c0.6,0,0.9,0.3,0.9,1c0,0.8-0.3,1.2-0.9,1.2l-1.1,0.1
		c-0.2,3.5-1.3,5.8-4.1,6.9c-0.2,0.1-0.4,0.1-0.6,0.1C390,30.8,388.3,30.4,387,29.8z M393.2,20.1c-0.1-0.1-0.3-0.2-0.6-0.2
		c-0.5,0-0.8,0.5-0.8,0.8c0,0.2,0.2,0.5,0.8,0.7c0.4,0.2,0.9,0.2,1.1,0.2c0.2,0,0.2,0,0.2-0.1C394.1,21.3,393.7,20.5,393.2,20.1z"/>
	<path class="st0" d="M398,11.4c0,0-0.1,0-0.1,0c-0.3,0-0.6-0.2-0.8-0.4c-0.3-0.3-0.4-0.7-0.4-1.2c0-0.2,0-0.5,0.1-0.7
		c0.1-0.2,0.3-0.7,0.5-0.7c0.1,0,0.1,0.1,0.1,0.4c0,0.1,0,0.3,0,0.4c0,0.4,0.2,0.6,0.7,0.6h0c0.4,0,0.8-0.3,0.9-0.9
		c0.1-0.2,0.3-1,0.6-1c0.1,0,0.2,0.1,0.2,0.4v0.1c0,0.3,0.1,0.4,0.4,0.4c0,0,0.1,0,0.2,0c0.4-0.1,0.6-0.4,0.7-0.8
		c0.2-0.5,0.3-0.7,0.4-0.7c0.1,0,0.2,0.1,0.2,0.3c0,0.2,0,0.3,0,0.5c0,0.4-0.1,0.8-0.3,1.2c-0.3,0.6-0.7,1.1-1.4,1.1
		c-0.3,0-0.4-0.1-0.6-0.2c-0.1-0.1-0.1-0.1-0.2,0C399,11,398.5,11.4,398,11.4z M401.2,3.2c0,0.2,0,0.2,0,0.3c0,0.4-0.1,0.8-0.3,1.2
		c0.2,0.1,0.3,0.2,0.3,0.3c0,0.3-0.1,0.6-0.3,0.9l-0.5-0.3c-0.5,0.8-1,1.3-1.3,1.6c-0.3,0.2-0.9,0.4-1.6,0.4c-0.4,0-0.5-0.1-0.3-0.2
		c1.3-0.8,2.2-1.5,2.7-2.2c-0.4-0.3-0.9-0.6-0.9-1.1c0-0.3,0.2-0.7,0.5-1.1c0.3-0.5,0.7-0.7,1-0.7C401,2.5,401.2,2.9,401.2,3.2z
		 M399.7,4c0.1,0.2,0.3,0.3,0.7,0.5c0.1-0.1,0.1-0.4,0.1-0.5c0-0.2-0.1-0.4-0.3-0.4C400,3.6,399.8,3.7,399.7,4z"/>
	<path class="st0" d="M401.2,20.2c0,0.6,0.6,1.2,1.4,1.4c0.2,0,0.3,0,0.5,0h0.1c0.9,0,0.9,0.7,0.9,1c0,0.3,0,1.3-0.8,1.3h-0.2
		c-0.2,0-0.3,0-0.6,0c-1.5-0.2-2.1-1.5-2.2-1.7c-0.2,0.6-1.5,1.7-3.7,1.7h-0.1c-0.6,0-1-0.6-1-1.1c0-0.6,0.3-1.1,1-1.1h0.7
		c1,0,2.4-0.2,3.3-1.6c0.3-0.5,0.4-0.5,0.5-0.5C401.1,19.4,401.2,19.7,401.2,20.2z M402.1,14.3c0.1,0.1,0.1,0.1,0,0.2
		c-0.2,0.3-1.1,1.2-1.4,1.7c-0.1,0.1-0.1,0.1-0.2,0c-0.5-0.3-1.5-1-1.7-1.4c-0.1-0.1-0.1-0.1,0-0.2c0.3-0.5,0.9-1.2,1.3-1.6
		c0.2-0.2,0.2-0.2,0.3-0.1C400.7,13.2,401.4,13.9,402.1,14.3z"/>
	<path class="st0" d="M405.6,22.8c-0.5,0.7-1.2,1-2.3,1h-0.2c-0.7,0-1-0.4-1-1.2c0-0.7,0.3-1.1,1-1.1h0.2c0.5,0,1-0.1,1.5-0.2
		c0.4-0.1,0.6-0.3,0.7-0.4c0-1.7-0.6-5.4-0.9-8.9c0-0.4-0.3-1.6-0.4-2.1c0-0.1,0-0.2,0-0.2c0-0.3,0.3-0.9,0.5-1.3
		c0.3-0.5,0.5-0.9,0.7-0.9c0.1,0,0.1,0.1,0.2,0.2c0.3,1,0.6,1.5,0.8,1.8c0.1,0.1,0.1,0.2,0.1,0.3c0,0,0,0.1,0,0.1
		c-0.1,0.2-0.4,0.8-0.6,1.1c0.2,3.4,0.7,6.2,0.7,7.8C406.6,20.5,406.2,21.8,405.6,22.8z"/>
	<path class="st0" d="M411.2,23.8c-0.1,0-0.2-0.2-0.2-0.7c0-3-1.1-11.3-1.1-12.7c0-0.7,0.5-1.7,0.9-2.5c0.1-0.2,0.3-0.5,0.5-0.5
		c0.1,0,0.2,0.2,0.2,0.8c0.1,2.2,0.7,7.3,0.7,11c0,1.5-0.1,2.7-0.4,3.5C411.5,23.5,411.4,23.8,411.2,23.8z"/>
	<path class="st0" d="M419.5,11.4c0.1-0.1,0.1,0,0.1,0.1c0,0.6-0.2,1.1-0.5,1.3l-4.1,2.3c-0.1,0-0.1,0-0.1-0.1c0-0.3,0.1-0.8,0.2-1
		c0.1-0.2,0.3-0.3,0.7-0.5L419.5,11.4z"/>
	<path class="st0" d="M420.3,19.7c0.3,0.9,0.5,1.8,0.5,3.1c0,4-1.1,6.5-4.2,7.7c-0.2,0.1-0.4,0.1-0.6,0.1c-1,0-2.6-0.5-4-1.1
		c-0.3-0.2-0.4-0.3-0.4-0.4c0-0.1,0.1-0.2,0.4-0.2c0.2,0,1.1,0.2,1.8,0.2c0.9,0,1.9-0.4,3.3-1.3c1.5-1,2.8-2.3,2.8-3.8
		c0-0.5-0.1-1-0.4-1.5c-0.3,0.7-0.8,1.1-1.5,1.1c-1.3,0-2.1-0.7-2.1-2.1c0-0.5,0.3-1.3,0.6-2.1c0.5-1,1.2-1.9,1.8-1.9
		C418.9,17.5,419.8,18.4,420.3,19.7z M417.8,19.7c-0.3,0-0.5,0.2-0.7,0.5c-0.1,0.1-0.2,0.4-0.2,0.5c0,0.4,0.6,0.6,1.1,0.6
		c0.4,0,0.7-0.2,0.8-0.4C418.8,20.2,418.1,19.7,417.8,19.7z"/>
	<path class="st0" d="M435.1,34.8c0.1-0.1,0.1,0,0.1,0.1c0,0.6-0.2,1.1-0.5,1.3l-4.1,2.3c-0.1,0-0.1,0-0.1-0.1c0-0.3,0.1-0.8,0.2-1
		c0.1-0.2,0.3-0.3,0.7-0.5L435.1,34.8z"/>
	<path class="st0" d="M438.1,28.3c0.2-0.2,0.2-0.2,0.3-0.1c0.5,0.5,1,1.1,1.5,1.4c0.2,0.1,0.2,0.2,0,0.3c-0.5,0.5-0.9,1-1.3,1.5
		c-0.1,0.1-0.2,0.1-0.3,0c-0.4-0.3-0.9-0.7-1.4-1.2c-0.3,0.3-0.9,1-1.1,1.2c-0.1,0.1-0.2,0.2-0.4,0c-0.5-0.3-1.1-0.9-1.5-1.4
		c-0.1-0.1-0.1-0.2,0-0.3c0.4-0.5,0.9-1,1.4-1.5c0.1-0.1,0.2-0.1,0.3,0.1c0.4,0.4,1,1,1.4,1.2C437.3,29.1,437.9,28.5,438.1,28.3z"/>
	<path class="st0" d="M435.2,25.1c0,0.1,0,0.2-0.1,0.5c-0.3,0.8-0.6,1.3-0.8,1.6c-0.1,0.1-0.1,0.1-0.2,0.1c-0.5-0.2-1.1-0.3-2.2-0.4
		c-1.7,0-2.8,0.3-3.1,0.9c0.2,1.2,0.4,2.1,0.5,2.6l0.4,2.1c0.2,1.1,0.3,2.2,0.3,3.1c0,0.9-0.1,1.9-0.4,2.8c-0.1,0.4-0.3,0.6-0.4,0.6
		c-0.1,0-0.1-0.2-0.1-0.5c0-0.3,0.1-0.7,0-1.2c0-0.9-0.2-2.1-0.6-4.6c-0.3-1.9-0.6-3-0.6-3.5c0-1,0.2-1.9,0.7-2.8
		c0.5-0.9,1.1-1.5,1.8-1.8L431,23c0.5-1.2,1.3-2,2.1-2.5c0.8-0.5,2.1-1.1,3.1-1.1c0.3,0,0.6,0.1,0.8,0.2c0.3,0.2,0.6,0.5,1,1.1
		c0.4,0.6,0.8,0.8,1.3,0.8h0.3c0.6,0,0.9,0.3,0.9,1c0,0.8-0.3,1.2-0.9,1.2h-0.3c-0.7,0-1.4-0.3-2-1c-0.5-0.5-0.8-0.9-1.2-1
		c-0.2-0.1-0.4-0.1-0.9-0.1c-1.1,0-2.1,0.4-2.9,1.1c0.9,0.4,1.6,0.8,2.1,1.3C434.9,24.5,435.1,24.8,435.2,25.1z"/>
	<path class="st0" d="M442.1,1.9c0.7,0,1.7,1,1.7,2.1c0,0.4-0.1,0.8-0.2,1.2c-0.3,0.8-0.9,1.3-1.8,1.3c-0.8,0-1.3-0.6-1.3-1.3
		C440.5,4.1,441.6,1.9,442.1,1.9z M441.9,3.5c-0.3,0-0.7,0.6-0.7,1c0,0.3,0.4,0.6,0.8,0.6c0.5,0,1.1-0.3,1.1-0.5
		C443.1,4.3,442.5,3.5,441.9,3.5z"/>
	<path class="st0" d="M443.7,19.1c0.1,0.5,0.4,0.9,0.7,1.1c0.3,0.2,0.7,0.4,1.1,0.6c0.4,0.2,0.7,0.3,0.8,0.4
		c0.2,0.1,0.3,0.8,0.3,1.2c0,0.4-0.1,1-0.4,1.4c-0.1,0.1-0.2,0.1-0.2,0.1c-1.3-0.7-2.3-1.1-3-1.1c-0.5,0-0.9,0.2-1.5,0.5
		c-0.6,0.3-1.3,0.6-2,0.6h-0.2c-0.6,0-0.9-0.4-0.9-1.1c0-0.8,0.3-1.2,0.9-1.2h0.2c0.9,0,1.9-0.3,3.1-0.8c0-0.2-0.1-0.7-0.2-1.6
		s-0.4-4.1-0.8-8c-0.1-0.4-0.2-1-0.3-1.4c0-0.1,0-0.2,0-0.3c0,0,0-0.1,0-0.2c0-0.1,0.1-0.4,0.4-0.8c0.3-0.5,0.6-1.1,0.8-1.1
		c0.1,0,0.1,0.1,0.2,0.2c0.3,0.9,0.5,1.4,0.7,1.8c0,0.1,0.1,0.2,0.1,0.2s0,0.1,0,0.2c-0.1,0.2-0.4,0.9-0.6,1.2
		C443.2,15.8,443.5,18.6,443.7,19.1z"/>
	<path class="st0" d="M450.5,23.8c-0.1,0-0.2-0.2-0.2-0.7c0-3-1.1-11.3-1.1-12.7c0-0.7,0.5-1.7,0.9-2.5c0.1-0.2,0.3-0.5,0.5-0.5
		c0.1,0,0.2,0.2,0.2,0.8c0.1,2.2,0.7,7.3,0.7,11c0,1.5-0.1,2.7-0.4,3.5C450.9,23.5,450.7,23.8,450.5,23.8z"/>
	<path class="st0" d="M466.6,31.2c0.2-0.2,0.2-0.2,0.3-0.1c0.5,0.5,1,1.1,1.5,1.4c0.2,0.1,0.2,0.2,0,0.3c-0.5,0.5-0.9,1-1.3,1.5
		c-0.1,0.1-0.2,0.1-0.3,0c-0.4-0.3-0.9-0.7-1.4-1.2c-0.3,0.3-0.9,1-1.1,1.2c-0.1,0.1-0.2,0.2-0.4,0c-0.5-0.3-1.1-0.9-1.5-1.4
		c-0.1-0.1-0.1-0.2,0-0.3c0.4-0.5,0.9-1,1.4-1.5c0.1-0.1,0.2-0.1,0.3,0.1c0.4,0.4,1,1,1.4,1.2C465.8,32.1,466.4,31.4,466.6,31.2z"/>
	<path class="st0" d="M472.3,8.4c0.1,0.1,0.1,0.1,0,0.2c-0.2,0.3-1.1,1.2-1.4,1.7c-0.1,0.1-0.1,0.1-0.2,0c-0.5-0.3-1.5-1-1.7-1.4
		c-0.1-0.1-0.1-0.1,0-0.2c0.3-0.5,0.9-1.2,1.3-1.6c0.2-0.2,0.2-0.2,0.3-0.1C470.8,7.3,471.6,7.9,472.3,8.4z"/>
	<path class="st0" d="M463.2,26.4c0.7,0.2,1.4,0.3,2.1,0.3c0.8,0,1.4-0.1,2.2-0.3c2.4-0.6,5.1-1.9,5.5-2.5c-0.7-0.6-2.7-1.4-4.4-1.5
		c-0.3,0-0.5-0.1-0.5-0.4c0-0.3,0.3-0.9,0.5-1.2c0.1-0.1,0.1-0.1,0.3-0.2c3.2-0.6,3.4-1.8,3.4-1.9c0-0.7-0.1-0.9-0.3-1.5
		c-0.4,0.5-1,1-1.8,1c-0.9,0-1.8-0.6-1.8-1.7c0-1.6,1.5-4.4,2.2-4.4c0.8,0,1.6,0.7,2.1,1.9c0.4,0.9,0.7,2.2,0.7,3
		c0,1.5-0.7,3-1.5,4.2c0.6,0.2,1.1,0.4,1.4,0.6c0.9,0.5,0.9,1.1,0.9,1.5c0,0.9-0.7,1.9-1.7,2.8c-2,1.7-5.4,2.9-7.6,2.9
		c-0.6,0-1.4-0.1-2.1-0.3c-1.7-0.5-3.2-1.7-3.2-4.5c0-1.6,0.7-3.8,1.5-5c0.2-0.4,0.5-0.6,0.7-0.6c0.2,0,0.1,0.4-0.1,0.8
		c-0.6,1.3-1,2.5-1,3.4C460.4,24.8,461.6,26,463.2,26.4z M470.1,14.3c-0.2,0-0.5,0.2-0.7,0.7c0,0.1-0.1,0.2-0.1,0.3
		c0,0.4,0.5,0.6,1,0.7c0.5,0,1-0.2,1-0.5C471.1,14.6,470.5,14.3,470.1,14.3z"/>
	<path class="st0" d="M489.3,4.3c0.1-0.1,0.1,0,0.1,0.1c0,0.6-0.2,1.1-0.5,1.3L484.8,8c-0.1,0-0.1,0-0.1-0.1c0-0.3,0.1-0.8,0.2-1
		c0.1-0.2,0.3-0.3,0.7-0.5L489.3,4.3z"/>
	<path class="st0" d="M489.5,25.3l1,0.3c0,0,0,0.1,0,0.2c-0.1,0.6-0.5,1.5-0.8,1.9c-0.1,0.1-0.2,0.2-0.3,0.2c-1.2,0-3-0.9-4.6-2.2
		c-1.9-1.5-3-3.9-3.2-7c0-1.1,0-1.6,0-1.9c0-4.2-0.3-6.8-0.5-7.6c0-0.1,0-0.1,0-0.2c0.1-0.1,0.2-0.2,0.2-0.4l0.7-1.1
		c0.1-0.2,0.2-0.2,0.3-0.2c0.1,0,0.1,0.1,0.2,0.3c0.1,0.8,0.2,1.6,0.2,2.5c0.1,1.1,0.1,2.3,0.2,3.7l0.1-0.4c0.2-0.6,0.5-1.1,1.1-1.6
		c3.2-2.4,7.6-4.4,10.7-5.7c0.2-0.1,0.3-0.1,0.3,0.1c0,0.3-0.3,0.9-0.9,1.7c-0.1,0.1-0.1,0.1-0.3,0.2c-2.6,1.1-5,2.4-7.5,3.9
		c-1.4,0.8-2.3,1.4-2.8,1.9c4.3,1.7,6.5,3.5,6.6,5.5c0.1,1.9-0.5,3.1-1.6,3.6c-1.1,0.4-1.5,0.8-1.3,1c0.2,0.3,0.6,0.5,0.9,0.7
		C488.7,25,489.1,25.2,489.5,25.3z M487.9,22.2c1-0.3,1.5-0.7,1.5-1.2c-0.1-1-2-2.5-5.9-4.3c-0.2-0.1-0.3-0.2-0.4-0.5
		c0-0.1,0,0.6,0.1,2.2c0.1,2.2,1.3,4.2,3.5,5.9C486.5,23.2,486.9,22.5,487.9,22.2z"/>
	<path class="st0" d="M503.1,22.6c0.2,0.3,0.3,0.6,0.3,1.1c0,0.5-0.2,0.9-0.5,1.1c-0.3,0.2-0.6,0.3-1,0.3c-0.6,0-1.2-0.4-1.5-1.1
		c-0.3-0.7-0.4-1.3-0.4-2c0-0.8,0.2-1.6,0.5-2.3c0.3-0.7,0.6-1.2,1-1.7c0.4-0.4,0.6-0.7,0.8-0.7c0.3,0,0.1,0.4-0.2,0.8
		c-0.8,1.1-1.1,2.1-1.1,3.2c0,0.6,0.1,0.7,0.2,1c0.3-0.1,0.6-0.2,0.8-0.2C502.4,22.1,502.8,22.3,503.1,22.6z"/>
	<path class="st0" d="M520.2,25.5c0.1-0.1,0.1,0,0.1,0.1c0,0.6-0.2,1.1-0.5,1.3l-4.2,2.4c-0.1,0-0.1,0-0.1-0.1c0-0.3,0.1-0.8,0.2-1
		c0.1-0.2,0.3-0.3,0.7-0.5L520.2,25.5z M520.2,27.6c0.1-0.1,0.1,0,0.1,0.1c0,0.6-0.2,1.1-0.5,1.3l-4.2,2.4c-0.1,0-0.1,0-0.1-0.1
		c0-0.3,0.1-0.8,0.2-1c0.1-0.2,0.3-0.3,0.7-0.5L520.2,27.6z"/>
	<path class="st0" d="M524.9,18.2c0,0.5-0.3,1.8-0.6,2.8c-0.3,0.7-0.4,0.8-1.2,1.2c-1.7,0.8-5.7,2-9.8,2c-5.3,0-7.4-1.8-7.4-4.3
		c0-0.9,0.4-2.4,1-3.3c0.2-0.3,0.4-0.6,0.6-0.6c0.1,0,0.1,0,0.1,0.1c0,0.1-0.1,0.3-0.1,0.5c-0.2,0.7-0.5,1.4-0.5,2
		c0,1.1,1.4,3.1,6.5,3.2c3.7,0,7.7-0.8,9.4-1.4c0.9-0.3,0.9-0.5,0.9-1.1c0-0.5-0.1-0.8-0.3-1.3c-0.2,0.5-0.9,1-1.8,1
		c-1.1,0-1.8-0.7-1.8-2c0-1.8,1.4-4.1,2-4.1C523.5,12.8,524.9,15.4,524.9,18.2z M519.9,10c0.1,0.1,0.1,0.1,0,0.2
		c-0.2,0.3-1.1,1.2-1.4,1.7c-0.1,0.1-0.1,0.1-0.2,0c-0.5-0.3-1.5-1-1.7-1.4c-0.1-0.1-0.1-0.1,0-0.2c0.3-0.5,0.9-1.2,1.3-1.6
		c0.2-0.2,0.2-0.2,0.3-0.1C518.4,8.9,519.2,9.6,519.9,10z M521.6,15c-0.3,0-0.6,0.4-0.7,0.8c0,0,0,0.1,0,0.1c0,0,0,0.1,0,0.1
		c0.1,0.3,0.5,0.5,1,0.5c0.4,0,0.8-0.2,0.9-0.3c0,0,0.1-0.1,0.1-0.1C522.9,15.9,522.4,15,521.6,15z"/>
	<path class="st0" d="M529.8,13.2c0.7,0,1.7,1,1.7,2.1c0,0.4-0.1,0.8-0.2,1.2c-0.3,0.8-0.9,1.3-1.8,1.3c-0.8,0-1.3-0.6-1.3-1.3
		C528.1,15.4,529.3,13.2,529.8,13.2z M529.6,14.8c-0.3,0-0.7,0.6-0.7,1c0,0.3,0.4,0.6,0.8,0.6c0.5,0,1.1-0.3,1.1-0.5
		C530.8,15.7,530.2,14.8,529.6,14.8z"/>
	<path class="st0" d="M533.4,21.6c0.7,0,1.1,0.4,1.1,1.1c0,0.8-0.4,1.2-1.1,1.2h-0.2c-0.6,0-1,0-1.3-0.1c0,0.1,0,0.2,0,0.3
		c0,0.7-0.1,1.5-0.4,2.1c-0.5,1.2-1.3,3.3-3.6,4.3c-0.4,0.2-0.8,0.3-1.2,0.3c-0.9,0-2.4-0.5-3.5-1c-0.3-0.2-0.4-0.3-0.4-0.4
		c0-0.1,0.1-0.2,0.4-0.2c0.3,0,0.8,0.1,1.3,0.1c3.1,0,6.2-2.7,6.6-5c0-0.5-1.1-1.6-1.3-1.9c0-0.1-0.1-0.2-0.1-0.3
		c0-0.5,0.4-1.5,0.6-1.8c0.1-0.2,0.2-0.2,0.3-0.2c0.2,0,0.3,0.2,0.6,0.7c0.4,0.6,0.9,0.9,1.8,0.9H533.4z"/>
	<path class="st0" d="M540.7,10.4c0.1-0.1,0.1,0,0.1,0.1c0,0.6-0.2,1.1-0.5,1.3l-4.1,2.3c-0.1,0-0.1,0-0.1-0.1c0-0.3,0.1-0.8,0.2-1
		c0.1-0.2,0.3-0.3,0.7-0.5L540.7,10.4z"/>
	<path class="st0" d="M536.1,18.5c-0.2,0-0.5,0-0.6,0.1c-0.2,0.1-0.6,0.3-0.8,0.3c-0.2,0-0.2-0.1-0.2-0.2c0-0.4,0.6-1.3,1.2-1.8
		c0.5-0.4,1-0.6,1.4-0.6c0.2,0,0.3,0,0.5,0.1c1.8,0.4,4.1,1.4,6,1.8c1.3,0.3,2.6,0.4,3.4,0.4c0.2,0,0.3,0,0.5,0c0.1,0,0.1,0,0.1,0.1
		c0,0.4-0.7,1.5-1.1,1.9c-0.1,0.1-0.3,0.1-0.6,0.1c-0.5,0-1.6-0.1-1.9-0.1c-0.9,0-1.6,0.1-2.2,0.3c-0.4,0.2-1.2,0.5-2.3,1
		c-1.7,0.8-2.8,1.4-3.6,1.7c-0.8,0.3-1.6,0.5-2.5,0.5h-0.3c-0.7,0-1.1-0.4-1.1-1.2c0-0.7,0.4-1.1,1.1-1.1h0.3c1.4,0,2.5-0.1,3.4-0.4
		c0.9-0.3,2.3-0.7,4-1.4C538.8,19.1,537.2,18.5,536.1,18.5z"/>
	<path class="st0" d="M567.8,18.1c0,2.2,0,2.9-1,3.9c1,0.3,2.8,0.9,2.8,2.3c0,2.7-5.8,5.7-9.3,5.7c-2.1,0-5.3-0.8-5.3-4.8
		c0-1.7,0.7-3.8,1.5-5c0.2-0.4,0.5-0.6,0.7-0.6c0.2,0,0.1,0.4-0.1,0.8c-0.6,1.3-1,2.5-1,3.4c0,2.7,2.4,3.8,4.8,3.8
		c2.7,0,7.1-2.1,7.6-2.8c-0.7-0.6-2.7-1.5-4.4-1.5c-0.3,0-0.4-0.1-0.4-0.3c0-0.3,0.3-0.9,0.5-1.3c0.1-0.1,0.1-0.2,0.2-0.2l1-0.3
		c0.8-0.3,1.4-0.7,1.4-1c-0.3-2.7-0.7-7-0.9-8.6c-0.1-0.4-0.2-0.7-0.2-1.1c0-0.1,0-0.2,0-0.3c0,0,0-0.1,0-0.2c0-0.1,0.2-0.6,0.5-1.1
		c0.3-0.5,0.5-0.9,0.7-0.9c0.1,0,0.1,0.1,0.2,0.2c0.2,0.8,0.6,1.4,0.8,1.8c0,0.1,0.1,0.1,0.1,0.2c0,0.1,0,0.1,0,0.2
		c-0.1,0.2-0.4,0.8-0.6,1.2C567.6,14.2,567.8,16.3,567.8,18.1z"/>
	<path class="st0" d="M575.4,30.3c0.1-0.1,0.1,0,0.1,0.1c0,0.6-0.2,1.1-0.5,1.3l-4.1,2.3c-0.1,0-0.1,0-0.1-0.1c0-0.3,0.1-0.8,0.2-1
		c0.1-0.2,0.3-0.3,0.7-0.5L575.4,30.3z"/>
	<path class="st0" d="M575.2,28.3c-0.8,0.4-2.6,1.5-4,2.5c-0.1,0-0.1,0-0.1,0c0,0-0.1,0-0.1-0.1c0-0.1,0.1-0.3,0.2-0.7
		c0.1-0.2,0.5-0.6,0.8-0.9c0,0,0.1-0.1,0.1-0.1c0,0,0-0.1-0.1-0.1c-0.6-0.2-0.9-0.4-0.9-0.9c0-0.1,0-0.1,0-0.2c0-0.9,1-2.2,1.8-2.9
		c0.3-0.3,0.7-0.4,1-0.4c0.5,0,0.8,0.3,0.8,0.7c0,0.3-0.1,0.6-0.2,1c-0.1,0.2-0.2,0.4-0.3,0.4c-0.1,0-0.2-0.1-0.3-0.2
		c-0.1-0.1-0.3-0.3-0.6-0.3c-0.8,0-1.3,0.5-1.3,0.7c0,0.3,1.3,0.8,1.8,0.8c0.1,0,0.1,0,0.1,0c0.2-0.1,1.1-0.4,1.5-0.6
		c0.2-0.1,0.3-0.2,0.3-0.2c0,0,0.1,0,0.1,0.1c0,0.1-0.1,0.2-0.1,0.4C575.5,28.1,575.4,28.2,575.2,28.3z M573.7,23.8
		c-0.1,0-0.2-0.2-0.2-0.7c0-3-1.1-11.3-1.1-12.7c0-0.7,0.5-1.7,0.9-2.5c0.1-0.2,0.3-0.5,0.5-0.5c0.1,0,0.2,0.2,0.2,0.8
		c0.1,2.2,0.7,7.3,0.7,11c0,1.5-0.1,2.7-0.4,3.5C574,23.5,573.9,23.8,573.7,23.8z"/>
	<path class="st0" d="M592.9,32.3c0.1-0.1,0.1,0,0.1,0.1c0,0.6-0.2,1.1-0.5,1.3l-4.1,2.3c-0.1,0-0.1,0-0.1-0.1c0-0.3,0.1-0.8,0.2-1
		c0.1-0.2,0.3-0.3,0.7-0.5L592.9,32.3z"/>
	<path class="st0" d="M590.8,15.9c0.1,0.1,0.1,0.1,0,0.2c-0.2,0.3-1.1,1.2-1.4,1.7c-0.1,0.1-0.1,0.1-0.2,0c-0.5-0.3-1.5-1-1.7-1.4
		c-0.1-0.1-0.1-0.1,0-0.2c0.3-0.5,0.9-1.2,1.3-1.6c0.2-0.2,0.2-0.2,0.3-0.1C589.4,14.8,590.1,15.5,590.8,15.9z"/>
	<path class="st0" d="M597.7,30.1c0.2-0.2,0.2-0.2,0.3-0.1c0.5,0.5,1,1.1,1.5,1.4c0.2,0.1,0.2,0.2,0,0.3c-0.5,0.5-0.9,1-1.3,1.5
		c-0.1,0.1-0.2,0.1-0.3,0c-0.4-0.3-0.9-0.7-1.4-1.2c-0.3,0.3-0.9,1-1.1,1.2c-0.1,0.1-0.2,0.2-0.4,0c-0.5-0.3-1.1-0.9-1.5-1.4
		c-0.1-0.1-0.1-0.2,0-0.3c0.4-0.5,0.9-1,1.4-1.5c0.1-0.1,0.2-0.1,0.3,0.1c0.4,0.4,1,1,1.4,1.2C596.9,30.9,597.5,30.3,597.7,30.1z"/>
	<path class="st0" d="M598.2,20.5c0,2-1.5,3.2-2.9,3.2h-0.2c0,0.1,0,0.4,0,0.7c0,0.3,0,0.6,0,1c0,0.8-0.2,1.4-0.4,1.9
		c-0.4,1-0.7,1.4-1.2,1.9c-1.7,1.7-4,2.3-6.4,2.3c-1.4,0-2.6-0.4-3.5-1.5c-0.5-0.6-0.9-1.7-0.9-2.9c0-1.4,0.5-2.7,1.2-3.8
		c0.3-0.4,0.5-0.6,0.7-0.6c0.1,0,0.1,0.1,0.1,0.2c0,0.1-0.1,0.4-0.3,0.7c-0.7,1.3-0.8,2.1-0.8,2.7c0,0.9,0.6,1.6,1.4,2.1
		c0.8,0.5,1.8,0.8,2.7,0.8c2.4,0,5.7-1,6.4-2.7c-0.1-1.7-0.4-2.3-1-3.8c0,0,0-0.1,0-0.2c0-0.5,0.3-1.3,0.6-1.9
		c0-0.1,0.1-0.2,0.2-0.2c0.1,0,0.1,0.1,0.2,0.1c0.5,0.6,0.9,0.9,1.4,1c0.1,0,0.1,0,0.2,0c0.8,0,1.5-0.6,1.7-1.6
		c0.1-0.5,0.2-0.7,0.3-0.7c0.2,0,0.4,0.4,0.5,1C598.2,20.3,598.2,20.4,598.2,20.5z"/>
	<path class="st0" d="M599.4,29.8c-0.3-0.2-0.4-0.3-0.4-0.4c0-0.1,0.2-0.2,0.4-0.2c0.3,0,1.1,0.2,1.8,0.2c0.6,0,1.2-0.2,2.1-0.6
		c2.4-1.2,3.9-3,3.9-4.2c0-0.2,0-0.3-0.1-0.7h-0.7c-0.5,0-1.5-0.1-2.2-0.5c-0.7-0.4-1-0.9-1-1.5c0-0.6,0.3-1.4,0.6-2.2
		c0.6-1.3,1.2-2.2,1.9-2.2c0.7,0,1.3,0.5,1.8,1.1c0.5,0.7,0.7,1.8,0.7,2.8h1c0.6,0,0.9,0.3,0.9,1c0,0.8-0.3,1.2-0.9,1.2l-1.1,0.1
		c-0.2,3.5-1.3,5.8-4.1,6.9c-0.2,0.1-0.4,0.1-0.6,0.1C602.4,30.8,600.8,30.4,599.4,29.8z M605.6,20.1c-0.1-0.1-0.3-0.2-0.6-0.2
		c-0.5,0-0.8,0.5-0.8,0.8c0,0.2,0.2,0.5,0.8,0.7c0.4,0.2,0.9,0.2,1.1,0.2c0.2,0,0.2,0,0.2-0.1C606.5,21.3,606.1,20.5,605.6,20.1z"/>
	<path class="st0" d="M613.6,20.2c0,0.6,0.6,1.2,1.4,1.4c0.2,0,0.3,0,0.5,0h0.1c0.9,0,0.9,0.7,0.9,1c0,0.3,0,1.3-0.8,1.3h-0.2
		c-0.2,0-0.3,0-0.6,0c-1.5-0.2-2.1-1.5-2.2-1.7c-0.2,0.6-1.5,1.7-3.7,1.7h-0.1c-0.6,0-1-0.6-1-1.1c0-0.6,0.3-1.1,1-1.1h0.7
		c1,0,2.4-0.2,3.3-1.6c0.3-0.5,0.4-0.5,0.5-0.5C613.6,19.4,613.6,19.7,613.6,20.2z M614.5,14.3c0.1,0.1,0.1,0.1,0,0.2
		c-0.2,0.3-1.1,1.2-1.4,1.7c-0.1,0.1-0.1,0.1-0.2,0c-0.5-0.3-1.5-1-1.7-1.4c-0.1-0.1-0.1-0.1,0-0.2c0.3-0.5,0.9-1.2,1.3-1.6
		c0.2-0.2,0.2-0.2,0.3-0.1C613.1,13.2,613.8,13.9,614.5,14.3z"/>
	<path class="st0" d="M617,11.6c-0.7,0-1.1-0.7-1.1-1.5c0-0.2,0-0.5,0.1-0.8c0.1-0.2,0.2-0.8,0.5-0.8c0.1,0,0.2,0.2,0.2,0.6v0.3
		c0,0.3,0.2,0.5,0.6,0.5h0c0.5,0,0.8-0.3,0.9-1c0.1-0.3,0.2-1.1,0.6-1.1c0.1,0,0.2,0.2,0.2,0.5c0,0.2,0.1,0.3,0.4,0.3
		c0.5,0,0.8-0.3,0.9-0.8c0.1-0.7,0.2-0.8,0.4-0.8c0.2,0,0.3,0.7,0.3,1.1c0,0.3,0,0.6-0.2,1c-0.2,0.7-0.7,1.2-1.5,1.2
		c-0.2,0-0.4-0.1-0.5-0.1c-0.1-0.1-0.1,0-0.2,0.1C618.3,11.1,617.8,11.6,617,11.6z M620.9,4.7C621,4.6,621,4.7,620.9,4.7
		c0,0.5-0.2,0.9-0.4,1.2c-0.1,0.1-0.2,0.2-0.5,0.3l-4,1.9c0,0-0.1,0-0.1-0.1c0-0.2,0.1-0.5,0.2-0.7c0.2-0.3,0.2-0.4,0.3-0.5
		c0.1-0.1,0.2-0.1,0.3-0.2L620.9,4.7z"/>
	<path class="st0" d="M620.3,20.2c0,0.6,0.6,1.2,1.4,1.4c0.2,0,0.3,0,0.5,0h0.1c0.9,0,0.9,0.7,0.9,1c0,0.3,0,1.3-0.8,1.3h-0.2
		c-0.2,0-0.3,0-0.6,0c-1.5-0.2-2.1-1.5-2.2-1.7c-0.2,0.6-1.5,1.7-3.7,1.7h-0.1c-0.6,0-1-0.6-1-1.1c0-0.6,0.3-1.1,1-1.1h0.7
		c1,0,2.4-0.2,3.3-1.6c0.3-0.5,0.4-0.5,0.5-0.5C620.2,19.4,620.3,19.7,620.3,20.2z M620.1,13.3c0.2-0.2,0.2-0.2,0.3-0.1
		c0.5,0.5,1,1.1,1.5,1.4c0.2,0.1,0.2,0.2,0,0.3c-0.5,0.5-0.9,1-1.3,1.5c-0.1,0.1-0.2,0.1-0.3,0c-0.4-0.3-0.9-0.7-1.4-1.2
		c-0.3,0.3-0.9,1-1.1,1.2c-0.1,0.1-0.2,0.2-0.4,0c-0.5-0.3-1.1-0.9-1.5-1.4c-0.1-0.1-0.1-0.2,0-0.3c0.4-0.5,0.9-1,1.4-1.5
		c0.1-0.1,0.2-0.1,0.3,0.1c0.4,0.4,1,1,1.4,1.2C619.3,14.2,619.8,13.6,620.1,13.3z"/>
	<path class="st0" d="M624.7,22.8c-0.5,0.7-1.2,1-2.3,1h-0.2c-0.7,0-1-0.4-1-1.2c0-0.7,0.3-1.1,1-1.1h0.2c0.5,0,1-0.1,1.5-0.2
		c0.4-0.1,0.6-0.3,0.7-0.4c0-1.7-0.6-5.4-0.9-8.9c0-0.4-0.3-1.6-0.4-2.1c0-0.1,0-0.2,0-0.2c0-0.3,0.3-0.9,0.5-1.3
		c0.3-0.5,0.5-0.9,0.7-0.9c0.1,0,0.1,0.1,0.2,0.2c0.3,1,0.6,1.5,0.8,1.8c0.1,0.1,0.1,0.2,0.1,0.3c0,0,0,0.1,0,0.1
		c-0.1,0.2-0.4,0.8-0.6,1.1c0.2,3.4,0.7,6.2,0.7,7.8C625.7,20.5,625.3,21.8,624.7,22.8z"/>
	<path class="st0" d="M630.3,23.8c-0.1,0-0.2-0.2-0.2-0.7c0-3-1.1-11.3-1.1-12.7c0-0.7,0.5-1.7,0.9-2.5c0.1-0.2,0.3-0.5,0.5-0.5
		c0.1,0,0.2,0.2,0.2,0.8c0.1,2.2,0.7,7.3,0.7,11c0,1.5-0.1,2.7-0.4,3.5C630.6,23.5,630.4,23.8,630.3,23.8z"/>
	<path class="st0" d="M650.7,8.5c0,0.5-0.1,1-0.3,1.5c0.2,0.1,0.4,0.3,0.4,0.4c0,0.4-0.2,0.7-0.3,1c-0.1,0.1-0.1,0.1-0.1,0.1
		l-0.5-0.3c-0.5,0.8-1.3,1.8-2.5,2.3c-0.4,0.2-0.9,0.4-1.5,0.4c-0.3,0-0.4-0.1-0.4-0.1c0-0.1,0.2-0.2,0.6-0.4
		c0.9-0.5,2.5-1.8,3.1-2.5c-0.5-0.3-1.1-0.7-1.1-1.4c0-0.4,0.2-0.9,0.6-1.3c0.4-0.5,0.8-0.8,1.2-0.8C650.5,7.2,650.7,7.9,650.7,8.5z
		 M648.9,8.9C648.9,8.9,648.9,9,648.9,8.9c0,0.2,0.4,0.5,0.8,0.7c0.1-0.2,0.1-0.4,0.1-0.7c0-0.3-0.1-0.4-0.3-0.4
		C649.3,8.5,649,8.6,648.9,8.9z"/>
	<path class="st0" d="M642.1,23.1c-1.4-0.6-2.2-1.4-2.2-3.1c0-1.2,0.5-2.4,0.8-3c0.2-0.3,0.4-0.6,0.6-0.6c0.1,0,0.1,0.1,0.1,0.2
		c0,0.1-0.1,0.4-0.2,0.6c-0.2,0.5-0.4,1-0.4,1.6c0,0.5,0.4,1.4,1.8,2.1c1,0.4,2.5,0.7,4.6,0.7c4.7,0,9.9-1.4,10-2c0-0.1,0-0.3,0-0.4
		c0-1-0.8-2.1-1.1-2.6c0,0,0,0,0-0.1c0-0.3,0.7-1.9,1-1.9c0.3,0,1.2,1.6,1.2,3.5c0,1.6-0.5,2.7-0.8,3.2c-0.6,0.8-5.9,2.5-10.6,2.5
		C645,23.9,643.2,23.6,642.1,23.1z M651.4,27.7c0.1,0.1,0.1,0.1,0,0.2c-0.2,0.3-1.1,1.2-1.4,1.7c-0.1,0.1-0.1,0.1-0.2,0
		c-0.5-0.3-1.5-1-1.7-1.4c-0.1-0.1-0.1-0.1,0-0.2c0.3-0.5,0.9-1.2,1.3-1.6c0.2-0.2,0.2-0.2,0.3-0.1C650,26.6,650.7,27.3,651.4,27.7z
		"/>
	<path class="st0" d="M670.3,21.2c0.2,0.2,0.6,0.3,1,0.3h0.2c0.6,0,1,0.4,1,1.1c0,0.8-0.3,1.1-1,1.1h-0.3c-0.5,0-1-0.1-1.5-0.4
		c-0.8-0.5-1.1-1.3-1.4-3c-0.2-1.2-0.3-2.3-0.3-2.9c0-0.2-0.1-0.4-0.1-0.4c0,0-0.1,0.1-0.1,0.3c-0.2,2.6-0.6,4.1-2,6
		c-0.4,0.6-1.3,0.9-2.2,1.1c-0.8,0.2-2.4,0.4-3.3,0.4c-0.3,0-0.5,0-0.5-0.1c0-0.1,0.3-0.3,1-0.7c1.6-0.8,4.5-3,5.4-4.6
		c0-1.1-0.8-2.4-1.1-2.9c-1-1.9-2.7-3.4-4-4c-0.2,0.2-0.4,0.5-0.8,0.5c-0.5,0-1.5-0.5-2.4-1.6c-0.2-0.3-0.3-0.9-0.3-1.5
		c0-0.7,0.2-1.4,0.5-1.4c0.3,0,0.9,0.2,1.3,0.4c2.4,1,5.7,3.7,6.7,6.8c0.3,0.9,0.5,1.9,0.5,2.8c0.6-1.4,0.7-3,0.7-4.5
		c0-1.8-0.2-3.6-0.2-4.8c0.2-0.6,0.8-2.1,1.1-2.1c0.2,0,0.2,0.6,0.2,0.7c0.1,0.6,0.1,1.7,0.2,2.8c0.1,1.2,0.2,4.6,0.5,7.1
		C669.4,19.9,669.6,20.6,670.3,21.2z"/>
	<path class="st0" d="M677.8,26c0.1-0.1,0.1,0,0.1,0.1c0,0.6-0.2,1.1-0.5,1.3l-4.1,2.3c-0.1,0-0.1,0-0.1-0.1c0-0.3,0.1-0.8,0.2-1
		c0.1-0.2,0.3-0.3,0.7-0.5L677.8,26z"/>
	<path class="st0" d="M679.2,21.6c0.7,0,1,0.4,1,1.1c0,0.8-0.3,1.2-1,1.2h-0.3c-2.1,0-3.4-0.4-4.3-1c-0.8,0.5-1.9,1-3.2,1h-0.2
		c-0.6,0-0.9-0.4-0.9-1.2c0-0.7,0.3-1.1,1-1.1h0.2c0.9,0,1.4-0.1,1.7-0.4c-0.1-0.2-0.1-0.5-0.1-0.8c0-2.3,2.6-5.1,4-5.1
		c0.8,0,1.3,1,1.3,2.2c0,1.3-0.5,2.8-1.5,3.7c0.5,0.2,1.2,0.4,2.1,0.4H679.2z M676.6,9.6c0.2-0.2,0.2-0.2,0.3-0.1
		c0.5,0.5,1,1.1,1.5,1.4c0.2,0.1,0.2,0.2,0,0.3c-0.5,0.5-0.9,1-1.3,1.5c-0.1,0.1-0.2,0.1-0.3,0c-0.4-0.3-0.9-0.7-1.4-1.2
		c-0.3,0.3-0.9,1-1.1,1.2c-0.1,0.1-0.2,0.2-0.4,0c-0.5-0.3-1.1-0.9-1.5-1.4c-0.1-0.1-0.1-0.2,0-0.3c0.4-0.5,0.9-1,1.4-1.5
		c0.1-0.1,0.2-0.1,0.3,0.1c0.4,0.4,1,1,1.4,1.2C675.9,10.5,676.4,9.8,676.6,9.6z M676,17.6c-0.8,0-1.6,0.9-1.6,1.2
		c0,0.5,0.4,0.9,1.2,1.4c0.3-0.1,1.4-1,1.4-1.3C677,18.1,676.8,17.6,676,17.6z"/>
	<path class="st0" d="M681.5,3.7c0.7,0,1.7,1,1.7,2.1c0,0.4-0.1,0.8-0.2,1.2c-0.3,0.8-0.9,1.3-1.8,1.3c-0.8,0-1.3-0.6-1.3-1.3
		C679.9,5.9,681,3.7,681.5,3.7z M681.3,5.3c-0.3,0-0.7,0.6-0.7,1c0,0.3,0.4,0.6,0.8,0.6c0.5,0,1.1-0.3,1.1-0.5
		C682.5,6.1,681.9,5.3,681.3,5.3z"/>
	<path class="st0" d="M682.9,22.4c-0.4,0.6-1.2,1.1-2.6,1.3c-0.4,0.1-0.9,0.1-1.4,0.1c-0.6,0-1-0.6-1-1.1c0-0.6,0.3-1.1,1-1.1h0.5
		c1,0,2.6,0,3.2-0.6c-0.1-0.9-0.8-2-1.1-2.4c0,0,0,0,0-0.1c0-0.4,0.7-1.8,0.7-1.9c0-0.1,0.1-0.1,0.1-0.1c0.3,0,1.1,1.6,1.1,3.5
		C683.5,20.8,683.4,21.7,682.9,22.4z M683.5,11.4c0.1,0.1,0.1,0.1,0,0.2c-0.2,0.3-1.1,1.2-1.4,1.7c-0.1,0.1-0.1,0.1-0.2,0
		c-0.5-0.3-1.5-1-1.7-1.4c-0.1-0.1-0.1-0.1,0-0.2c0.3-0.5,0.9-1.2,1.3-1.6c0.2-0.2,0.2-0.2,0.3-0.1
		C682.1,10.3,682.8,10.9,683.5,11.4z"/>
	<path class="st0" d="M687.4,23.8c-0.1,0-0.2-0.2-0.2-0.7c0-3-1.1-11.3-1.1-12.7c0-0.7,0.5-1.7,0.9-2.5c0.1-0.2,0.3-0.5,0.5-0.5
		c0.1,0,0.2,0.2,0.2,0.8c0.1,2.2,0.7,7.3,0.7,11c0,1.5-0.1,2.7-0.4,3.5C687.8,23.5,687.6,23.8,687.4,23.8z"/>
	<path class="st0" d="M148.7,81.6c0.4,0.3,0.4,0.8,0.4,1.1c0,0.3-0.1,0.7-0.4,1c-0.3,0.3-0.7,0.4-1.1,0.4c-0.3,0-0.7-0.1-0.9-0.4
		c-0.3-0.3-0.4-0.7-0.4-1.1c0-0.4,0.2-0.7,0.4-1c0.3-0.2,0.6-0.4,1-0.4C148.1,81.2,148.4,81.4,148.7,81.6z"/>
	<path class="st0" d="M154.8,61.4c0.1,0.2,0.2,0.5,0.2,0.8c0,0.5-0.2,0.9-0.4,1.4c0.2,0.2,0.3,0.3,0.3,0.4c0,0.3-0.2,0.6-0.5,0.9
		l-0.5-0.4c-0.6,0.8-1.1,1.3-1.7,1.5c-0.6,0.3-1.9,0.6-2.8,0.8c-0.3,0-0.4,0-0.4-0.1c0,0,0-0.1,0.2-0.2c2.2-1.2,3.6-2.1,4.2-2.5
		c-0.4-0.3-0.8-0.7-0.8-1.3c0-0.5,0.3-0.8,0.7-1.2c0.4-0.4,0.8-0.6,1.1-0.6C154.5,61.1,154.7,61.2,154.8,61.4z M150.7,61.7
		c0.9-1.6,2.8-3,4.7-3c1,0,2.6,0.4,2.6,1.3c0,1.1-1.4,2.7-2.4,3.4c0,0,0,0-0.1,0c-0.1,0-0.2-0.2-0.2-0.3c0,0,0,0,0-0.1
		c0.9-0.8,1.4-1.3,1.4-1.9c-0.2-0.7-1.2-1.1-1.9-1.1c-1.5,0-3.7,1.3-3.8,3c0,0.2,0.2,0.5,0.7,0.9c0,0,0,0,0,0.1
		c-0.2,0.2-0.4,0.6-1,0.9c0,0-0.1,0.1-0.1,0.1c-0.1,0-0.7-0.4-0.7-1C149.9,63.4,150.3,62.4,150.7,61.7z M153.3,62.5
		c0.1,0.2,0.3,0.4,0.7,0.6c0.1-0.1,0.2-0.3,0.2-0.6c0-0.3-0.1-0.4-0.3-0.4C153.6,62.2,153.4,62.3,153.3,62.5z"/>
	<path class="st0" d="M154.9,68.7c0.2-0.2,0.2-0.2,0.3-0.1c0.5,0.5,1,1.1,1.5,1.4c0.2,0.1,0.2,0.2,0,0.3c-0.5,0.5-0.9,1-1.3,1.5
		c-0.1,0.1-0.2,0.1-0.3,0c-0.4-0.3-0.9-0.7-1.4-1.2c-0.3,0.3-0.9,1-1.1,1.2c-0.1,0.1-0.2,0.2-0.4,0c-0.5-0.3-1.1-0.9-1.5-1.4
		c-0.1-0.1-0.1-0.2,0-0.3c0.4-0.5,0.9-1,1.4-1.5c0.1-0.1,0.2-0.1,0.3,0.1c0.4,0.4,1,1,1.4,1.2C154.1,69.5,154.6,68.9,154.9,68.7z
		 M157.8,81.1c0.5,0.3,0.9,0.5,1.2,0.5h0.3c0.7,0,1.1,0.4,1.1,1.1c0,0.8-0.4,1.2-1.1,1.2H159c-0.8,0-1.5-0.3-2.3-0.9
		c-0.7-0.6-1.2-1.6-1.4-3c-0.2,0.4-0.4,0.7-0.8,1c-0.6,0.4-1.6,0.6-2.6,0.6c-0.7,0-1.4-0.1-1.4-0.7c0.3-2.2,0.6-2.6,1.7-3.4
		c0.5-0.4,1.8-1.2,2.3-1.6c0-0.2,0-0.4,0-0.5c0-0.5,0.1-0.8,0.4-1.2c0.2-0.3,0.3-0.5,0.4-0.5c0.1,0,0.2,0.2,0.2,0.5
		c0.3,2.1,0.5,3.8,0.8,4.8C156.6,79.8,157.1,80.6,157.8,81.1z M154.8,77c-0.9,0.6-2.5,1.6-2.6,1.9c0,0.2,0.3,0.2,0.7,0.2
		c0.6,0,1.5-0.2,2.2-0.5C155,78,155,77.8,154.8,77z"/>
	<path class="st0" d="M160.4,71.4c-0.7,0-1.1-0.7-1.1-1.5c0-0.2,0-0.5,0.1-0.8c0.1-0.2,0.2-0.8,0.5-0.8c0.1,0,0.2,0.2,0.2,0.6v0.3
		c0,0.3,0.2,0.5,0.6,0.5h0c0.5,0,0.8-0.3,0.9-1c0.1-0.3,0.2-1.1,0.6-1.1c0.1,0,0.2,0.2,0.2,0.5c0,0.2,0.1,0.3,0.4,0.3
		c0.5,0,0.8-0.3,0.9-0.8c0.1-0.7,0.2-0.8,0.4-0.8c0.2,0,0.3,0.7,0.3,1.1c0,0.3,0,0.6-0.2,1c-0.2,0.7-0.7,1.2-1.5,1.2
		c-0.2,0-0.4-0.1-0.5-0.1c-0.1-0.1-0.1,0-0.2,0.1C161.6,70.9,161.2,71.4,160.4,71.4z M164.3,64.5C164.4,64.5,164.4,64.6,164.3,64.5
		c0,0.5-0.2,0.9-0.4,1.2c-0.1,0.1-0.2,0.2-0.5,0.3l-4,1.9c0,0-0.1,0-0.1-0.1c0-0.2,0.1-0.5,0.2-0.7c0.2-0.3,0.2-0.4,0.3-0.5
		c0.1-0.1,0.2-0.1,0.3-0.2L164.3,64.5z"/>
	<path class="st0" d="M163.8,80.2c0,0.6,0.6,1.2,1.4,1.4c0.2,0,0.3,0,0.5,0h0.1c0.9,0,0.9,0.7,0.9,1c0,0.3,0,1.3-0.8,1.3h-0.2
		c-0.2,0-0.3,0-0.6,0c-1.5-0.2-2.1-1.5-2.2-1.7c-0.2,0.6-1.5,1.7-3.7,1.7h-0.1c-0.6,0-1-0.6-1-1.1c0-0.6,0.3-1.1,1-1.1h0.7
		c1,0,2.4-0.2,3.3-1.6c0.3-0.5,0.4-0.5,0.5-0.5C163.7,79.4,163.8,79.7,163.8,80.2z M164.7,74.3c0.1,0.1,0.1,0.1,0,0.2
		c-0.2,0.3-1.1,1.2-1.4,1.7c-0.1,0.1-0.1,0.1-0.2,0c-0.5-0.3-1.5-1-1.7-1.4c-0.1-0.1-0.1-0.1,0-0.2c0.3-0.5,0.9-1.2,1.3-1.6
		c0.2-0.2,0.2-0.2,0.3-0.1C163.2,73.2,164,73.9,164.7,74.3z"/>
	<path class="st0" d="M171.4,61.4c0,0.5-0.1,1-0.3,1.5c0.2,0.1,0.4,0.3,0.4,0.4c0,0.4-0.2,0.7-0.3,1c-0.1,0.1-0.1,0.1-0.1,0.1
		l-0.5-0.3c-0.5,0.8-1.3,1.7-2.5,2.3c-0.4,0.2-0.9,0.4-1.5,0.4c-0.3,0-0.4-0.1-0.4-0.1c0-0.1,0.2-0.2,0.6-0.4
		c0.9-0.5,2.5-1.8,3.1-2.5c-0.5-0.3-1.1-0.7-1.1-1.4c0-0.4,0.2-0.9,0.6-1.3c0.4-0.5,0.8-0.8,1.2-0.8
		C171.2,60.1,171.4,60.8,171.4,61.4z M169.6,61.8C169.6,61.8,169.6,61.9,169.6,61.8c0,0.2,0.4,0.5,0.8,0.7c0.1-0.2,0.1-0.4,0.1-0.7
		c0-0.3-0.1-0.4-0.3-0.4C170,61.4,169.7,61.5,169.6,61.8z"/>
	<path class="st0" d="M167.1,79.4c0-0.5,0.2-1.7,0.6-2.5c0.7-1.5,1.9-2.2,2.9-2.2c0.7,0,2.1,0.4,2.8,1c0.3,0.2,0.3,0.4,0.3,0.5
		c0,0.1-0.1,0.1-0.2,0.1c-0.4,0-1-0.1-1.6-0.1c-1.1,0-3.6,1-3.7,1.7c0.1,0.4,1.3,2.3,3.3,2.3h0.1c1.2-0.5,2.7-1.1,3.7-1.6
		c0.4-0.2,0.7-0.3,0.8-0.3c0.1,0,0.1,0,0.1,0.1c0,0.2-0.5,1.2-0.8,1.7c-0.1,0.1-0.2,0.3-0.4,0.4c-0.7,0.4-1.8,0.9-3.2,1.6
		c-1.5,0.7-4.6,1.8-5.9,1.8h-0.2c-0.7,0-1-0.4-1-1.1c0-0.8,0.4-1.1,1.1-1.1h0.2c0.2,0,1.2-0.1,2.1-0.3
		C167.5,80.8,167.1,80.2,167.1,79.4z M171.9,69.7c0.1,0.1,0.1,0.1,0,0.2c-0.2,0.3-1.1,1.2-1.4,1.7c-0.1,0.1-0.1,0.1-0.2,0
		c-0.5-0.3-1.5-1-1.7-1.4c-0.1-0.1-0.1-0.1,0-0.2c0.3-0.5,0.9-1.2,1.3-1.6c0.2-0.2,0.2-0.2,0.3-0.1
		C170.5,68.6,171.2,69.2,171.9,69.7z"/>
	<path class="st0" d="M188.5,85.5c0.1-0.1,0.1,0,0.1,0.1c0,0.6-0.2,1.1-0.5,1.3l-4.1,2.3c-0.1,0-0.1,0-0.1-0.1c0-0.3,0.1-0.8,0.2-1
		c0.1-0.2,0.3-0.3,0.7-0.5L188.5,85.5z"/>
	<path class="st0" d="M190.3,81.1c0.5,0.3,0.9,0.5,1.2,0.5h0.3c0.7,0,1.1,0.4,1.1,1.1c0,0.8-0.4,1.2-1.1,1.2h-0.3
		c-0.8,0-1.5-0.3-2.3-0.9c-0.7-0.6-1.2-1.6-1.4-3c-0.2,0.4-0.4,0.7-0.8,1c-0.6,0.4-1.6,0.6-2.6,0.6c-0.7,0-1.4-0.1-1.4-0.7
		c0.3-2.2,0.6-2.6,1.7-3.4c0.5-0.4,1.8-1.2,2.3-1.6c0-0.2,0-0.4,0-0.5c0-0.5,0.1-0.8,0.4-1.2c0.2-0.3,0.3-0.5,0.4-0.5
		c0.1,0,0.2,0.2,0.2,0.5c0.3,2.1,0.5,3.8,0.8,4.8C189,79.8,189.5,80.6,190.3,81.1z M187.3,77c-0.9,0.6-2.5,1.6-2.6,1.9
		c0,0.2,0.3,0.2,0.7,0.2c0.6,0,1.5-0.2,2.2-0.5C187.5,78,187.4,77.8,187.3,77z"/>
	<path class="st0" d="M196.3,80.2c0,0.6,0.6,1.2,1.4,1.4c0.2,0,0.3,0,0.5,0h0.1c0.9,0,0.9,0.7,0.9,1c0,0.3,0,1.3-0.8,1.3h-0.2
		c-0.2,0-0.3,0-0.6,0c-1.5-0.2-2.1-1.5-2.2-1.7c-0.2,0.6-1.5,1.7-3.7,1.7h-0.1c-0.6,0-1-0.6-1-1.1c0-0.6,0.3-1.1,1-1.1h0.7
		c1,0,2.4-0.2,3.3-1.6c0.3-0.5,0.4-0.5,0.5-0.5C196.2,79.4,196.3,79.7,196.3,80.2z M196.1,86.9c0.2-0.2,0.2-0.2,0.3-0.1
		c0.5,0.5,1,1.1,1.5,1.4c0.2,0.1,0.2,0.2,0,0.3c-0.5,0.5-0.9,1-1.3,1.5c-0.1,0.1-0.2,0.1-0.3,0c-0.4-0.3-0.9-0.7-1.4-1.2
		c-0.3,0.3-0.9,1-1.1,1.2c-0.1,0.1-0.2,0.2-0.4,0c-0.5-0.3-1.1-0.9-1.5-1.4c-0.1-0.1-0.1-0.2,0-0.3c0.4-0.5,0.9-1,1.4-1.5
		c0.1-0.1,0.2-0.1,0.3,0.1c0.4,0.4,1,1,1.4,1.2C195.3,87.8,195.9,87.1,196.1,86.9z"/>
	<path class="st0" d="M204,78.6c0,1.2-0.4,2.9-0.9,3.7c-0.2,0.3-0.9,0.7-1.4,0.8c-1.4,0.4-2.5,0.6-3.3,0.6h-0.2c-0.6,0-1-0.4-1-1.2
		c0-0.7,0.3-1.1,1-1.1h0.2c1.3,0,2.8-0.2,3.7-0.5c0.8-0.3,0.9-0.3,0.9-1.1c0-0.5-0.1-0.8-0.3-1.3c-0.2,0.5-0.9,1-1.8,1
		c-1.1,0-1.8-0.7-1.8-2c0-1.8,1.4-4.1,2-4.1C202.8,73.6,204,77,204,78.6z M202.5,68.7c0.1,0.1,0.1,0.1,0,0.2
		c-0.2,0.3-1.1,1.2-1.4,1.7c-0.1,0.1-0.1,0.1-0.2,0c-0.5-0.3-1.5-1-1.7-1.4c-0.1-0.1-0.1-0.1,0-0.2c0.3-0.5,0.9-1.2,1.3-1.6
		c0.2-0.2,0.2-0.2,0.3-0.1C201.1,67.6,201.8,68.2,202.5,68.7z M201.4,76.1c-0.2-0.2-0.5-0.3-0.7-0.3c-0.2,0-0.4,0.1-0.5,0.4
		c-0.1,0.2-0.2,0.4-0.2,0.5c0,0.5,0.5,0.6,1,0.6c0.5,0,0.9-0.2,0.9-0.5C201.9,76.8,201.7,76.3,201.4,76.1z"/>
	<path class="st0" d="M223.2,73.2c0.1-0.1,0.1,0,0.1,0.1c0,0.6-0.2,1.1-0.5,1.3l-4.1,2.3c-0.1,0-0.1,0-0.1-0.1c0-0.3,0.1-0.8,0.2-1
		c0.1-0.2,0.3-0.3,0.7-0.5L223.2,73.2z"/>
	<path class="st0" d="M227.1,79.7c0.2-0.3,0.4-0.5,0.5-0.5c0.1,0,0.2,0.1,0.2,0.2c0,0.3-0.2,0.5-0.2,1c0,0.6,0.6,1,1.3,1
		c1.1,0,1.5-0.8,2-1.9c0.2-0.4,0.3-0.5,0.5-0.5c0.1,0,0.2,0.1,0.2,0.4c0,0.1,0,0.2,0,0.3c0,1.2,0.7,1.9,2,2h0.3c0.7,0,1.1,0.3,1.1,1
		c0,0.8-0.4,1.3-1.1,1.3h-0.4c-1.3,0-2.4-0.6-2.7-1.9c-0.3,1-1.1,1.9-2.3,1.9c-0.3,0-0.6-0.1-0.9-0.3c-0.5-0.4-0.6-0.9-0.7-1.6
		c-0.7,1.2-1.5,2-2.9,2c-0.3,0-0.6,0-1-0.2c0,1.3-0.2,2.4-0.4,3c-0.3,0.9-0.7,1.7-2.1,2.6c-1.3,0.9-3,1.5-5.5,1.5
		c-2.5,0-4.4-1.7-4.4-4.5c0-1.4,0.7-3.1,1.3-3.8c0.2-0.3,0.5-0.6,0.6-0.6c0.1,0,0.1,0.1,0.1,0.2c0,0.2-0.1,0.4-0.2,0.7
		c-0.5,0.9-0.8,1.7-0.8,2.7c0,1.9,2.3,2.9,4,2.9c2.7,0,5.5-1,6.4-2.5c0-0.1,0.1-0.2,0.1-0.4c-0.1-1.9-0.3-2.6-0.9-3.7
		c0-0.1-0.1-0.1-0.1-0.2c0-0.5,0.4-1.3,0.7-1.9c0.1-0.1,0.2-0.3,0.3-0.3c0.1,0,0.2,0.2,0.2,0.2c0.5,1.2,1.2,1.7,2,1.7
		C225.7,81.4,226.4,80.9,227.1,79.7z"/>
	<path class="st0" d="M235.9,68.9c0.7,0,1.7,1,1.7,2.1c0,0.4-0.1,0.8-0.2,1.2c-0.3,0.8-0.9,1.3-1.8,1.3c-0.8,0-1.3-0.6-1.3-1.3
		C234.3,71.1,235.4,68.9,235.9,68.9z M235.7,70.5c-0.3,0-0.7,0.6-0.7,1c0,0.3,0.4,0.6,0.8,0.6c0.5,0,1.1-0.3,1.1-0.5
		C236.9,71.3,236.3,70.5,235.7,70.5z"/>
	<path class="st0" d="M239.3,81.6h0.1c0.6,0,0.9,0.6,0.9,1.1c0,0.6-0.3,1.1-0.9,1.1h-0.1c-0.6,0-1.2-0.1-1.8-0.5
		c-0.8-0.6-1.1-1.7-1.1-1.9c-0.1,0.7-1.1,2.4-2.6,2.4h-0.1c-0.6,0-0.9-0.6-0.9-1.1c0-0.6,0.3-1.1,0.9-1.1h0.1c1.2,0,2-0.5,2.1-0.8
		c0,0,0-0.1,0-0.1c0-0.2-0.4-2.6-0.4-2.8c0-0.1,0-0.2,0-0.3c0.1-0.4,0.4-1,0.5-1.4c0.1-0.2,0.2-0.3,0.2-0.3s0.2,0.2,0.2,0.4
		c0.3,1,0.5,3.1,0.8,3.8C237.8,81,238.8,81.6,239.3,81.6z M237.7,85.4c0.2-0.2,0.2-0.2,0.3-0.1c0.5,0.5,1,1.1,1.5,1.4
		c0.2,0.1,0.2,0.2,0,0.3c-0.5,0.5-0.9,1-1.3,1.5c-0.1,0.1-0.2,0.1-0.3,0c-0.4-0.3-0.9-0.7-1.4-1.2c-0.3,0.3-0.9,1-1.1,1.2
		c-0.1,0.1-0.2,0.2-0.4,0c-0.5-0.3-1.1-0.9-1.5-1.4c-0.1-0.1-0.1-0.2,0-0.3c0.4-0.5,0.9-1,1.4-1.5c0.1-0.1,0.2-0.1,0.3,0.1
		c0.4,0.4,1,1,1.4,1.2C236.9,86.3,237.5,85.6,237.7,85.4z"/>
	<path class="st0" d="M241.8,82.8c-0.5,0.7-1.2,1-2.3,1h-0.2c-0.7,0-1-0.4-1-1.2c0-0.7,0.3-1.1,1-1.1h0.2c0.5,0,1-0.1,1.5-0.2
		c0.4-0.1,0.6-0.3,0.7-0.4c0-1.7-0.6-5.4-0.9-8.9c0-0.4-0.3-1.6-0.4-2.1c0-0.1,0-0.2,0-0.2c0-0.3,0.3-0.9,0.5-1.3
		c0.3-0.5,0.5-0.9,0.7-0.9c0.1,0,0.1,0.1,0.2,0.2c0.3,1,0.6,1.5,0.8,1.8c0.1,0.1,0.1,0.2,0.1,0.3c0,0,0,0.1,0,0.1
		c-0.1,0.2-0.4,0.8-0.6,1.1c0.2,3.4,0.7,6.2,0.7,7.8C242.8,80.5,242.4,81.8,241.8,82.8z"/>
	<path class="st0" d="M254.5,61.6c0.1-0.1,0.1,0,0.1,0.1c0,0.6-0.2,1.1-0.5,1.3l-4,2.3c-0.1,0-0.1,0-0.1-0.1c0-0.3,0.1-0.8,0.2-1
		c0.1-0.2,0.3-0.3,0.7-0.5L254.5,61.6z M254.5,63.7c0.1-0.1,0.1,0,0.1,0.1c0,0.6-0.2,1.1-0.5,1.3l-4,2.3c-0.1,0-0.1,0-0.1-0.1
		c0-0.3,0.1-0.8,0.2-1c0.1-0.2,0.3-0.3,0.7-0.5L254.5,63.7z"/>
	<path class="st0" d="M255.1,83.8c-0.7,0-1.2-0.1-1.7-0.5c-0.7-0.6-1.1-1.7-1.3-3.1c-0.2-1.1-0.2-2.3-0.3-3.7
		c-0.1-2-0.2-5.1-0.5-6.9c0-0.1,0-0.2,0-0.2c0-0.1,0-0.2,0.2-0.4c0.3-0.5,0.5-0.8,0.7-1.2c0.2-0.3,0.2-0.3,0.3-0.3
		c0.1,0,0.2,0.2,0.3,0.7c0.4,3.5,0.1,8.4,0.6,11.1c0.1,0.7,0.2,0.9,0.4,1.3c0.3,0.6,0.7,0.9,1.4,1c0.8,0,1.2,0.4,1.2,1.1
		c0,0.9-0.4,1.2-1.1,1.2H255.1z"/>
	<path class="st0" d="M260.9,78.6c0,1.2-0.4,2.9-0.9,3.7c-0.2,0.3-0.9,0.7-1.4,0.8c-1.4,0.4-2.5,0.6-3.3,0.6h-0.2
		c-0.6,0-1-0.4-1-1.2c0-0.7,0.3-1.1,1-1.1h0.2c1.3,0,2.8-0.2,3.7-0.5c0.8-0.3,0.9-0.3,0.9-1.1c0-0.5-0.1-0.8-0.3-1.3
		c-0.2,0.5-0.9,1-1.8,1c-1.1,0-1.8-0.7-1.8-2c0-1.8,1.4-4.1,2-4.1C259.8,73.6,260.9,77,260.9,78.6z M259.5,68.7
		c0.1,0.1,0.1,0.1,0,0.2c-0.2,0.3-1.1,1.2-1.4,1.7c-0.1,0.1-0.1,0.1-0.2,0c-0.5-0.3-1.5-1-1.7-1.4c-0.1-0.1-0.1-0.1,0-0.2
		c0.3-0.5,0.9-1.2,1.3-1.6c0.2-0.2,0.2-0.2,0.3-0.1C258.1,67.6,258.8,68.2,259.5,68.7z M258.4,76.1c-0.2-0.2-0.5-0.3-0.7-0.3
		c-0.2,0-0.4,0.1-0.5,0.4c-0.1,0.2-0.2,0.4-0.2,0.5c0,0.5,0.5,0.6,1,0.6c0.5,0,0.9-0.2,0.9-0.5C258.9,76.8,258.7,76.3,258.4,76.1z"
		/>
	<path class="st0" d="M265.9,73.2c0.7,0,1.7,1,1.7,2.1c0,0.4-0.1,0.8-0.2,1.2c-0.3,0.8-0.9,1.3-1.8,1.3c-0.8,0-1.3-0.6-1.3-1.3
		C264.3,75.4,265.4,73.2,265.9,73.2z M265.7,74.8c-0.3,0-0.7,0.6-0.7,1c0,0.3,0.4,0.6,0.8,0.6c0.5,0,1.1-0.3,1.1-0.5
		C266.9,75.7,266.3,74.8,265.7,74.8z"/>
	<path class="st0" d="M269.5,81.6c0.7,0,1.1,0.4,1.1,1.1c0,0.8-0.4,1.2-1.1,1.2h-0.2c-0.6,0-1,0-1.3-0.1c0,0.1,0,0.2,0,0.3
		c0,0.7-0.1,1.5-0.4,2.1c-0.5,1.2-1.3,3.3-3.6,4.3c-0.4,0.2-0.8,0.3-1.2,0.3c-0.9,0-2.4-0.5-3.5-1c-0.3-0.2-0.4-0.3-0.4-0.4
		c0-0.1,0.1-0.2,0.4-0.2c0.3,0,0.8,0.1,1.3,0.1c3.1,0,6.2-2.7,6.6-5c0-0.5-1.1-1.6-1.3-1.9c0-0.1-0.1-0.2-0.1-0.3
		c0-0.5,0.4-1.5,0.6-1.8c0.1-0.2,0.2-0.2,0.3-0.2c0.2,0,0.3,0.2,0.6,0.7c0.4,0.6,0.9,0.9,1.8,0.9H269.5z"/>
	<path class="st0" d="M276.8,70.4c0.1-0.1,0.1,0,0.1,0.1c0,0.6-0.2,1.1-0.5,1.3l-4.1,2.3c-0.1,0-0.1,0-0.1-0.1c0-0.3,0.1-0.8,0.2-1
		c0.1-0.2,0.3-0.3,0.7-0.5L276.8,70.4z"/>
	<path class="st0" d="M272.2,78.5c-0.2,0-0.5,0-0.6,0.1c-0.2,0.1-0.6,0.3-0.8,0.3c-0.2,0-0.2-0.1-0.2-0.2c0-0.4,0.6-1.3,1.2-1.8
		c0.5-0.4,1-0.6,1.4-0.6c0.2,0,0.3,0,0.5,0.1c1.8,0.4,4.1,1.4,6,1.8c1.3,0.3,2.6,0.4,3.4,0.4c0.2,0,0.3,0,0.5,0c0.1,0,0.1,0,0.1,0.1
		c0,0.4-0.7,1.5-1.1,1.9c-0.1,0.1-0.3,0.1-0.6,0.1c-0.5,0-1.6-0.1-1.9-0.1c-0.9,0-1.6,0.1-2.2,0.3c-0.4,0.2-1.2,0.5-2.3,1
		c-1.7,0.8-2.8,1.4-3.6,1.7c-0.8,0.3-1.6,0.5-2.5,0.5h-0.3c-0.7,0-1.1-0.4-1.1-1.2c0-0.7,0.4-1.1,1.1-1.1h0.3c1.4,0,2.5-0.1,3.4-0.4
		c0.9-0.3,2.3-0.7,4-1.4C274.9,79.1,273.3,78.5,272.2,78.5z"/>
	<path class="st0" d="M295.3,83.8c-0.7,0-1.2-0.1-1.7-0.5c-0.7-0.6-1.1-1.7-1.3-3.1c-0.2-1.1-0.2-2.3-0.3-3.7
		c-0.1-2-0.2-5.1-0.5-6.9c0-0.1,0-0.2,0-0.2c0-0.1,0-0.2,0.2-0.4c0.3-0.5,0.5-0.8,0.7-1.2c0.2-0.3,0.2-0.3,0.3-0.3
		c0.1,0,0.2,0.2,0.3,0.7c0.4,3.5,0.1,8.4,0.6,11.1c0.1,0.7,0.2,0.9,0.4,1.3c0.3,0.6,0.7,0.9,1.4,1c0.8,0,1.2,0.4,1.2,1.1
		c0,0.9-0.4,1.2-1.1,1.2H295.3z"/>
	<path class="st0" d="M300.2,80.2c0,0.6,0.6,1.2,1.4,1.4c0.2,0,0.3,0,0.5,0h0.1c0.9,0,0.9,0.7,0.9,1c0,0.3,0,1.3-0.8,1.3H302
		c-0.2,0-0.3,0-0.6,0c-1.5-0.2-2.1-1.5-2.2-1.7c-0.2,0.6-1.5,1.7-3.7,1.7h-0.1c-0.6,0-1-0.6-1-1.1c0-0.6,0.3-1.1,1-1.1h0.7
		c1,0,2.4-0.2,3.3-1.6c0.3-0.5,0.4-0.5,0.5-0.5C300.1,79.4,300.2,79.7,300.2,80.2z M301.3,88c0.1,0.1,0.1,0.1,0,0.2
		c-0.2,0.3-1.1,1.2-1.4,1.7c-0.1,0.1-0.1,0.1-0.2,0c-0.5-0.3-1.5-1-1.7-1.4c-0.1-0.1-0.1-0.1,0-0.2c0.3-0.5,0.9-1.2,1.3-1.6
		c0.2-0.2,0.2-0.2,0.3-0.1C299.9,86.9,300.6,87.6,301.3,88z"/>
	<path class="st0" d="M307,85.6c0.1-0.1,0.1,0,0.1,0.1c0,0.6-0.2,1.1-0.5,1.3l-4.1,2.3c-0.1,0-0.1,0-0.1-0.1c0-0.3,0.1-0.8,0.2-1
		c0.1-0.2,0.3-0.3,0.7-0.5L307,85.6z"/>
	<path class="st0" d="M302,81.6h0.2c0.6,0,1-0.2,1.3-0.5c0.5-0.5,0.5-1.1,0.5-1.8c0-1.5-0.1-4.6-0.3-9.2c0-0.5,0.2-1,0.5-1.7
		c0.2-0.3,0.3-0.6,0.5-0.6c0.1,0,0.2,0.2,0.3,0.7c0.2,3.4,0.4,8,0.7,11.3c0.1,0.6,0.4,1.1,0.8,1.4c0.3,0.2,0.6,0.3,0.9,0.3h0.3
		c0.6,0,1,0.4,1,1.1c0,0.8-0.3,1.2-1,1.2h-0.3c-1.4,0-2.4-1-2.8-2.4c-0.3,1.6-1.1,2.4-2.4,2.4H302c-0.7,0-1-0.4-1-1.2
		C301,81.9,301.3,81.6,302,81.6z"/>
	<path class="st0" d="M312.2,61.5c0,0.5-0.1,1-0.3,1.5c0.2,0.1,0.4,0.3,0.4,0.4c0,0.4-0.2,0.7-0.3,1c-0.1,0.1-0.1,0.1-0.1,0.1
		l-0.5-0.3c-0.5,0.8-1.3,1.8-2.5,2.3c-0.4,0.2-0.9,0.4-1.5,0.4c-0.3,0-0.4-0.1-0.4-0.1c0-0.1,0.2-0.2,0.6-0.4
		c0.9-0.5,2.5-1.8,3.1-2.5c-0.5-0.3-1.1-0.7-1.1-1.4c0-0.4,0.2-0.9,0.6-1.3c0.4-0.5,0.8-0.8,1.2-0.8C312,60.3,312.1,60.9,312.2,61.5
		z M310.4,61.9C310.3,62,310.3,62,310.4,61.9c0,0.2,0.4,0.5,0.8,0.7c0.1-0.2,0.1-0.4,0.1-0.7c0-0.3-0.1-0.4-0.3-0.4
		C310.7,61.5,310.5,61.7,310.4,61.9z"/>
	<path class="st0" d="M313.2,78.6c0,1.2-0.4,2.9-0.9,3.7c-0.2,0.3-0.9,0.7-1.4,0.8c-1.4,0.4-2.5,0.6-3.3,0.6h-0.2
		c-0.6,0-1-0.4-1-1.2c0-0.7,0.3-1.1,1-1.1h0.2c1.3,0,2.8-0.2,3.7-0.5c0.8-0.3,0.9-0.3,0.9-1.1c0-0.5-0.1-0.8-0.3-1.3
		c-0.2,0.5-0.9,1-1.8,1c-1.1,0-1.8-0.7-1.8-2c0-1.8,1.4-4.1,2-4.1C312.1,73.6,313.2,77,313.2,78.6z M311.8,68.1
		c0.2-0.2,0.2-0.2,0.3-0.1c0.5,0.5,1,1.1,1.5,1.4c0.2,0.1,0.2,0.2,0,0.3c-0.5,0.5-0.9,1-1.3,1.5c-0.1,0.1-0.2,0.1-0.3,0
		c-0.4-0.3-0.9-0.7-1.4-1.2c-0.3,0.3-0.9,1-1.1,1.2c-0.1,0.1-0.2,0.2-0.4,0c-0.5-0.3-1.1-0.9-1.5-1.4c-0.1-0.1-0.1-0.2,0-0.3
		c0.4-0.5,0.9-1,1.4-1.5c0.1-0.1,0.2-0.1,0.3,0.1c0.4,0.4,1,1,1.4,1.2C311,68.9,311.5,68.3,311.8,68.1z M310.7,76.1
		c-0.2-0.2-0.5-0.3-0.7-0.3c-0.2,0-0.4,0.1-0.5,0.4c-0.1,0.2-0.2,0.4-0.2,0.5c0,0.5,0.5,0.6,1,0.6c0.5,0,0.9-0.2,0.9-0.5
		C311.2,76.8,311,76.3,310.7,76.1z"/>
	<path class="st0" d="M328.3,69.9c0.1-0.1,0.1,0,0.1,0.1c0,0.6-0.2,1.1-0.5,1.3l-4.1,2.3c-0.1,0-0.1,0-0.1-0.1c0-0.3,0.1-0.8,0.2-1
		c0.1-0.2,0.3-0.3,0.7-0.5L328.3,69.9z"/>
	<path class="st0" d="M328.1,75.9c0.1,0.1,0.1,0.1,0,0.2c-0.2,0.3-1.1,1.2-1.4,1.7c-0.1,0.1-0.1,0.1-0.2,0c-0.5-0.3-1.5-1-1.7-1.4
		c-0.1-0.1-0.1-0.1,0-0.2c0.3-0.5,0.9-1.2,1.3-1.6c0.2-0.2,0.2-0.2,0.3-0.1C326.7,74.8,327.4,75.5,328.1,75.9z"/>
	<path class="st0" d="M335,90.1c0.2-0.2,0.2-0.2,0.3-0.1c0.5,0.5,1,1.1,1.5,1.4c0.2,0.1,0.2,0.2,0,0.3c-0.5,0.5-0.9,1-1.3,1.5
		c-0.1,0.1-0.2,0.1-0.3,0c-0.4-0.3-0.9-0.7-1.4-1.2c-0.3,0.3-0.9,1-1.1,1.2c-0.1,0.1-0.2,0.2-0.4,0c-0.5-0.3-1.1-0.9-1.5-1.4
		c-0.1-0.1-0.1-0.2,0-0.3c0.4-0.5,0.9-1,1.4-1.5c0.1-0.1,0.2-0.1,0.3,0.1c0.4,0.4,1,1,1.4,1.2C334.2,90.9,334.7,90.3,335,90.1z"/>
	<path class="st0" d="M335.5,80.5c0,2-1.5,3.2-2.9,3.2h-0.2c0,0.1,0,0.4,0,0.7c0,0.3,0,0.6,0,1c0,0.8-0.2,1.4-0.4,1.9
		c-0.4,1-0.7,1.4-1.2,1.9c-1.7,1.7-4,2.3-6.4,2.3c-1.4,0-2.6-0.4-3.5-1.5c-0.5-0.6-0.9-1.7-0.9-2.9c0-1.4,0.5-2.7,1.2-3.8
		c0.3-0.4,0.5-0.6,0.7-0.6c0.1,0,0.1,0.1,0.1,0.2c0,0.1-0.1,0.4-0.3,0.7c-0.7,1.3-0.8,2.1-0.8,2.7c0,0.9,0.6,1.6,1.4,2.1
		c0.8,0.5,1.8,0.8,2.7,0.8c2.4,0,5.7-1,6.4-2.7c-0.1-1.7-0.4-2.3-1-3.8c0,0,0-0.1,0-0.2c0-0.5,0.3-1.3,0.6-1.9
		c0-0.1,0.1-0.2,0.2-0.2c0.1,0,0.1,0.1,0.2,0.1c0.5,0.6,0.9,0.9,1.4,1c0.1,0,0.1,0,0.2,0c0.8,0,1.5-0.6,1.7-1.6
		c0.1-0.5,0.2-0.7,0.3-0.7c0.2,0,0.4,0.4,0.5,1C335.5,80.3,335.5,80.4,335.5,80.5z"/>
	<path class="st0" d="M336.7,89.8c-0.3-0.2-0.4-0.3-0.4-0.4c0-0.1,0.2-0.2,0.4-0.2c0.3,0,1.1,0.2,1.8,0.2c0.6,0,1.2-0.2,2.1-0.6
		c2.4-1.2,3.9-3,3.9-4.2c0-0.2,0-0.3-0.1-0.7h-0.7c-0.5,0-1.5-0.1-2.2-0.5c-0.7-0.4-1-0.9-1-1.5c0-0.6,0.3-1.4,0.6-2.2
		c0.6-1.3,1.2-2.2,1.9-2.2c0.7,0,1.3,0.5,1.8,1.1c0.5,0.7,0.7,1.8,0.7,2.8h1c0.6,0,0.9,0.3,0.9,1c0,0.8-0.3,1.2-0.9,1.2l-1.1,0.1
		c-0.2,3.5-1.3,5.8-4.1,6.9c-0.2,0.1-0.4,0.1-0.6,0.1C339.7,90.8,338,90.4,336.7,89.8z M342.9,80.1c-0.1-0.1-0.3-0.2-0.6-0.2
		c-0.5,0-0.8,0.5-0.8,0.8c0,0.2,0.2,0.5,0.8,0.7c0.4,0.2,0.9,0.2,1.1,0.2c0.2,0,0.2,0,0.2-0.1C343.8,81.3,343.4,80.5,342.9,80.1z"/>
	<path class="st0" d="M350.9,80.2c0,0.6,0.6,1.2,1.4,1.4c0.2,0,0.3,0,0.5,0h0.1c0.9,0,0.9,0.7,0.9,1c0,0.3,0,1.3-0.8,1.3h-0.2
		c-0.2,0-0.3,0-0.6,0c-1.5-0.2-2.1-1.5-2.2-1.7c-0.2,0.6-1.5,1.7-3.7,1.7h-0.1c-0.6,0-1-0.6-1-1.1c0-0.6,0.3-1.1,1-1.1h0.7
		c1,0,2.4-0.2,3.3-1.6c0.3-0.5,0.4-0.5,0.5-0.5C350.8,79.4,350.9,79.7,350.9,80.2z M351.8,74.3c0.1,0.1,0.1,0.1,0,0.2
		c-0.2,0.3-1.1,1.2-1.4,1.7c-0.1,0.1-0.1,0.1-0.2,0c-0.5-0.3-1.5-1-1.7-1.4c-0.1-0.1-0.1-0.1,0-0.2c0.3-0.5,0.9-1.2,1.3-1.6
		c0.2-0.2,0.2-0.2,0.3-0.1C350.3,73.2,351.1,73.9,351.8,74.3z"/>
	<path class="st0" d="M354.3,71.6c-0.7,0-1.1-0.7-1.1-1.5c0-0.2,0-0.5,0.1-0.8c0.1-0.2,0.2-0.8,0.5-0.8c0.1,0,0.2,0.2,0.2,0.6v0.3
		c0,0.3,0.2,0.5,0.6,0.5h0c0.5,0,0.8-0.3,0.9-1c0.1-0.3,0.2-1.1,0.6-1.1c0.1,0,0.2,0.2,0.2,0.5c0,0.2,0.1,0.3,0.4,0.3
		c0.5,0,0.8-0.3,0.9-0.8c0.1-0.7,0.2-0.8,0.4-0.8c0.2,0,0.3,0.7,0.3,1.1c0,0.3,0,0.6-0.2,1c-0.2,0.7-0.7,1.2-1.5,1.2
		c-0.2,0-0.4-0.1-0.5-0.1c-0.1-0.1-0.1,0-0.2,0.1C355.5,71.1,355.1,71.6,354.3,71.6z M358.2,64.7C358.3,64.6,358.3,64.7,358.2,64.7
		c0,0.5-0.2,0.9-0.4,1.2c-0.1,0.1-0.2,0.2-0.5,0.3l-4,1.9c0,0-0.1,0-0.1-0.1c0-0.2,0.1-0.5,0.2-0.7c0.2-0.3,0.2-0.4,0.3-0.5
		c0.1-0.1,0.2-0.1,0.3-0.2L358.2,64.7z"/>
	<path class="st0" d="M357.6,80.2c0,0.6,0.6,1.2,1.4,1.4c0.2,0,0.3,0,0.5,0h0.1c0.9,0,0.9,0.7,0.9,1c0,0.3,0,1.3-0.8,1.3h-0.2
		c-0.2,0-0.3,0-0.6,0c-1.5-0.2-2.1-1.5-2.2-1.7c-0.2,0.6-1.5,1.7-3.7,1.7h-0.1c-0.6,0-1-0.6-1-1.1c0-0.6,0.3-1.1,1-1.1h0.7
		c1,0,2.4-0.2,3.3-1.6c0.3-0.5,0.4-0.5,0.5-0.5C357.5,79.4,357.6,79.7,357.6,80.2z M357.4,73.3c0.2-0.2,0.2-0.2,0.3-0.1
		c0.5,0.5,1,1.1,1.5,1.4c0.2,0.1,0.2,0.2,0,0.3c-0.5,0.5-0.9,1-1.3,1.5c-0.1,0.1-0.2,0.1-0.3,0c-0.4-0.3-0.9-0.7-1.4-1.2
		c-0.3,0.3-0.9,1-1.1,1.2c-0.1,0.1-0.2,0.2-0.4,0c-0.5-0.3-1.1-0.9-1.5-1.4c-0.1-0.1-0.1-0.2,0-0.3c0.4-0.5,0.9-1,1.4-1.5
		c0.1-0.1,0.2-0.1,0.3,0.1c0.4,0.4,1,1,1.4,1.2C356.6,74.2,357.1,73.6,357.4,73.3z"/>
	<path class="st0" d="M361.9,82.8c-0.5,0.7-1.2,1-2.3,1h-0.2c-0.7,0-1-0.4-1-1.2c0-0.7,0.3-1.1,1-1.1h0.2c0.5,0,1-0.1,1.5-0.2
		c0.4-0.1,0.6-0.3,0.7-0.4c0-1.7-0.6-5.4-0.9-8.9c0-0.4-0.3-1.6-0.4-2.1c0-0.1,0-0.2,0-0.2c0-0.3,0.3-0.9,0.5-1.3
		c0.3-0.5,0.5-0.9,0.7-0.9c0.1,0,0.1,0.1,0.2,0.2c0.3,1,0.6,1.5,0.8,1.8c0.1,0.1,0.1,0.2,0.1,0.3c0,0,0,0.1,0,0.1
		c-0.1,0.2-0.4,0.8-0.6,1.1c0.2,3.4,0.7,6.2,0.7,7.8C362.9,80.5,362.6,81.8,361.9,82.8z"/>
	<path class="st0" d="M367.5,83.8c-0.1,0-0.2-0.2-0.2-0.7c0-3-1.1-11.3-1.1-12.7c0-0.7,0.5-1.7,0.9-2.5c0.1-0.2,0.3-0.5,0.5-0.5
		c0.1,0,0.2,0.2,0.2,0.8c0.1,2.2,0.7,7.3,0.7,11c0,1.5-0.1,2.7-0.4,3.5C367.9,83.5,367.7,83.8,367.5,83.8z"/>
	<path class="st0" d="M375.9,71.4c0.1-0.1,0.1,0,0.1,0.1c0,0.6-0.2,1.1-0.5,1.3l-4.1,2.3c-0.1,0-0.1,0-0.1-0.1c0-0.3,0.1-0.8,0.2-1
		c0.1-0.2,0.3-0.3,0.7-0.5L375.9,71.4z"/>
	<path class="st0" d="M376.7,79.7c0.3,0.9,0.5,1.8,0.5,3.1c0,4-1.1,6.5-4.2,7.7c-0.2,0.1-0.4,0.1-0.6,0.1c-1,0-2.6-0.5-4-1.1
		c-0.3-0.2-0.4-0.3-0.4-0.4c0-0.1,0.1-0.2,0.4-0.2c0.2,0,1.1,0.2,1.8,0.2c0.9,0,1.9-0.4,3.3-1.3c1.5-1,2.8-2.3,2.8-3.8
		c0-0.5-0.1-1-0.4-1.5c-0.3,0.7-0.8,1.1-1.5,1.1c-1.3,0-2.1-0.7-2.1-2.1c0-0.5,0.3-1.3,0.6-2.1c0.5-1,1.2-1.9,1.8-1.9
		C375.3,77.5,376.2,78.4,376.7,79.7z M374.1,79.7c-0.3,0-0.5,0.2-0.7,0.5c-0.1,0.1-0.2,0.4-0.2,0.5c0,0.4,0.6,0.6,1.1,0.6
		c0.4,0,0.7-0.2,0.8-0.4C375.1,80.2,374.4,79.7,374.1,79.7z"/>
	<path class="st0" d="M392.4,63.9c0.1-0.1,0.1,0,0.1,0.1c0,0.6-0.2,1.1-0.5,1.3l-4.1,2.3c-0.1,0-0.1,0-0.1-0.1c0-0.3,0.1-0.8,0.2-1
		c0.1-0.2,0.3-0.3,0.7-0.5L392.4,63.9z"/>
	<path class="st0" d="M385.8,84.5c-0.9-0.8-1.4-2.1-1.4-3.4c0-1.5,0.9-3.2,1.4-3.9c0.2-0.3,0.4-0.4,0.5-0.4c0.1,0,0.1,0.1,0.1,0.2
		c0,0.1-0.1,0.3-0.2,0.5c-0.4,0.9-0.9,1.8-0.9,2.9c0,0.8,0.6,1.6,1.4,2.1c0.8,0.5,1.7,0.8,2.7,0.8c2.4,0,5.7-1,6.4-2.7
		c0-0.2,0-0.3,0-0.4c0-1.1-0.3-2.3-0.9-3.1c-0.2-0.4-0.4-0.7-0.5-0.8c0,0,0-0.1,0-0.2c0-0.2,0.1-0.5,0.2-0.8
		c0.2-0.4,0.3-0.8,0.4-1.1c0.1-0.1,0.1-0.2,0.2-0.2c0.1,0,0.1,0,0.2,0.3c0.7,1.5,1.3,2.9,1.3,4.7c0,1.4-0.2,2.3-0.3,2.7
		c-0.4,0.9-0.6,1.3-1.1,1.8c-0.5,0.5-1.4,1.2-2.5,1.6c-1.1,0.5-2.4,0.7-4.1,0.7C387.7,85.6,386.6,85.4,385.8,84.5z M392.3,70.7
		c0.1,0.1,0.1,0.1,0,0.2c-0.2,0.3-1.1,1.2-1.4,1.7c-0.1,0.1-0.1,0.1-0.2,0c-0.5-0.3-1.5-1-1.7-1.4c-0.1-0.1-0.1-0.1,0-0.2
		c0.3-0.5,0.9-1.2,1.3-1.6c0.2-0.2,0.2-0.2,0.3-0.1C390.9,69.6,391.6,70.3,392.3,70.7z"/>
	<path class="st0" d="M395.8,89.8c-0.3-0.2-0.4-0.3-0.4-0.4c0-0.1,0.2-0.2,0.4-0.2c0.3,0,1.1,0.2,1.8,0.2c0.6,0,1.2-0.2,2.1-0.6
		c2.4-1.2,3.9-3,3.9-4.2c0-0.2,0-0.3-0.1-0.7h-0.7c-0.5,0-1.5-0.1-2.2-0.5c-0.7-0.4-1-0.9-1-1.5c0-0.6,0.3-1.4,0.6-2.2
		c0.6-1.3,1.2-2.2,1.9-2.2c0.7,0,1.3,0.5,1.8,1.1c0.5,0.7,0.7,1.8,0.7,2.8h1c0.6,0,0.9,0.3,0.9,1c0,0.8-0.3,1.2-0.9,1.2l-1.1,0.1
		c-0.2,3.5-1.3,5.8-4.1,6.9c-0.2,0.1-0.4,0.1-0.6,0.1C398.8,90.8,397.1,90.4,395.8,89.8z M402,80.1c-0.1-0.1-0.3-0.2-0.6-0.2
		c-0.5,0-0.8,0.5-0.8,0.8c0,0.2,0.2,0.5,0.8,0.7c0.4,0.2,0.9,0.2,1.1,0.2c0.2,0,0.2,0,0.2-0.1C402.9,81.3,402.4,80.5,402,80.1z"/>
	<path class="st0" d="M406.8,71.4c0,0-0.1,0-0.1,0c-0.3,0-0.6-0.2-0.8-0.4c-0.3-0.3-0.4-0.7-0.4-1.2c0-0.2,0-0.5,0.1-0.7
		c0.1-0.2,0.3-0.7,0.5-0.7c0.1,0,0.1,0.1,0.1,0.4c0,0.1,0,0.3,0,0.4c0,0.4,0.2,0.6,0.7,0.6h0c0.4,0,0.8-0.3,0.9-0.9
		c0.1-0.2,0.3-1,0.6-1c0.1,0,0.2,0.1,0.2,0.4v0.1c0,0.3,0.1,0.4,0.4,0.4c0,0,0.1,0,0.2,0c0.4-0.1,0.6-0.4,0.7-0.8
		c0.2-0.5,0.3-0.7,0.4-0.7c0.1,0,0.2,0.1,0.2,0.3c0,0.2,0,0.3,0,0.5c0,0.4-0.1,0.8-0.3,1.2c-0.3,0.6-0.7,1.1-1.4,1.1
		c-0.3,0-0.4-0.1-0.6-0.2c-0.1-0.1-0.1-0.1-0.2,0C407.7,71,407.3,71.4,406.8,71.4z M410,63.2c0,0.2,0,0.2,0,0.3
		c0,0.4-0.1,0.8-0.3,1.2c0.2,0.1,0.3,0.2,0.3,0.3c0,0.3-0.1,0.6-0.3,0.9l-0.5-0.3c-0.5,0.8-1,1.3-1.3,1.6c-0.3,0.2-0.9,0.4-1.6,0.4
		c-0.4,0-0.5-0.1-0.3-0.2c1.3-0.8,2.2-1.5,2.7-2.2c-0.4-0.3-0.9-0.6-0.9-1.1c0-0.3,0.2-0.7,0.5-1.1c0.3-0.5,0.7-0.7,1-0.7
		C409.7,62.5,409.9,62.9,410,63.2z M408.5,64c0.1,0.2,0.3,0.3,0.7,0.5c0.1-0.1,0.1-0.4,0.1-0.5c0-0.2-0.1-0.4-0.3-0.4
		C408.8,63.6,408.6,63.7,408.5,64z"/>
	<path class="st0" d="M410,80.2c0,0.6,0.6,1.2,1.4,1.4c0.2,0,0.3,0,0.5,0h0.1c0.9,0,0.9,0.7,0.9,1c0,0.3,0,1.3-0.8,1.3h-0.2
		c-0.2,0-0.3,0-0.6,0c-1.5-0.2-2.1-1.5-2.2-1.7c-0.2,0.6-1.5,1.7-3.7,1.7h-0.1c-0.6,0-1-0.6-1-1.1c0-0.6,0.3-1.1,1-1.1h0.7
		c1,0,2.4-0.2,3.3-1.6c0.3-0.5,0.4-0.5,0.5-0.5C409.9,79.4,410,79.7,410,80.2z M410.8,74.3c0.1,0.1,0.1,0.1,0,0.2
		c-0.2,0.3-1.1,1.2-1.4,1.7c-0.1,0.1-0.1,0.1-0.2,0c-0.5-0.3-1.5-1-1.7-1.4c-0.1-0.1-0.1-0.1,0-0.2c0.3-0.5,0.9-1.2,1.3-1.6
		c0.2-0.2,0.2-0.2,0.3-0.1C409.4,73.2,410.1,73.9,410.8,74.3z"/>
	<path class="st0" d="M414.3,82.8c-0.5,0.7-1.2,1-2.3,1h-0.2c-0.7,0-1-0.4-1-1.2c0-0.7,0.3-1.1,1-1.1h0.2c0.5,0,1-0.1,1.5-0.2
		c0.4-0.1,0.6-0.3,0.7-0.4c0-1.7-0.6-5.4-0.9-8.9c0-0.4-0.3-1.6-0.4-2.1c0-0.1,0-0.2,0-0.2c0-0.3,0.3-0.9,0.5-1.3
		c0.3-0.5,0.5-0.9,0.7-0.9c0.1,0,0.1,0.1,0.2,0.2c0.3,1,0.6,1.5,0.8,1.8c0.1,0.1,0.1,0.2,0.1,0.3c0,0,0,0.1,0,0.1
		c-0.1,0.2-0.4,0.8-0.6,1.1c0.2,3.4,0.7,6.2,0.7,7.8C415.4,80.5,415,81.8,414.3,82.8z"/>
	<path class="st0" d="M419.9,83.8c-0.1,0-0.2-0.2-0.2-0.7c0-3-1.1-11.3-1.1-12.7c0-0.7,0.5-1.7,0.9-2.5c0.1-0.2,0.3-0.5,0.5-0.5
		c0.1,0,0.2,0.2,0.2,0.8c0.1,2.2,0.7,7.3,0.7,11c0,1.5-0.1,2.7-0.4,3.5C420.3,83.5,420.1,83.8,419.9,83.8z"/>
	<path class="st0" d="M433.1,67.6c-0.7,0-1.1-0.7-1.1-1.5c0-0.2,0-0.5,0.1-0.8c0.1-0.2,0.2-0.8,0.5-0.8c0.1,0,0.2,0.2,0.2,0.6v0.3
		c0,0.3,0.2,0.5,0.6,0.5h0c0.5,0,0.8-0.3,0.9-1c0.1-0.3,0.2-1.1,0.6-1.1c0.1,0,0.2,0.2,0.2,0.5c0,0.2,0.1,0.3,0.4,0.3
		c0.5,0,0.8-0.3,0.9-0.8c0.1-0.7,0.2-0.8,0.4-0.8c0.2,0,0.3,0.7,0.3,1.1c0,0.3,0,0.6-0.2,1c-0.2,0.7-0.7,1.2-1.5,1.2
		c-0.2,0-0.4-0.1-0.5-0.1c-0.1-0.1-0.1,0-0.2,0.1C434.3,67.1,433.8,67.6,433.1,67.6z M437,60.7C437.1,60.7,437,60.8,437,60.7
		c0,0.5-0.2,0.9-0.4,1.2c-0.1,0.1-0.2,0.2-0.5,0.3l-4,1.9c0,0-0.1,0-0.1-0.1c0-0.2,0.1-0.5,0.2-0.7c0.2-0.3,0.2-0.4,0.3-0.5
		c0.1-0.1,0.2-0.1,0.3-0.2L437,60.7z"/>
	<path class="st0" d="M430.5,84.5c-0.9-0.8-1.4-2.1-1.4-3.4c0-1.5,0.9-3.2,1.4-3.9c0.2-0.3,0.4-0.4,0.5-0.4c0.1,0,0.1,0.1,0.1,0.2
		c0,0.1-0.1,0.3-0.2,0.5c-0.4,0.9-0.9,1.8-0.9,2.9c0,0.8,0.6,1.6,1.4,2.1c0.8,0.5,1.7,0.8,2.7,0.8c2.4,0,5.7-1,6.4-2.7
		c0-0.2,0-0.3,0-0.4c0-1.1-0.3-2.3-0.9-3.1c-0.2-0.4-0.4-0.7-0.5-0.8c0,0,0-0.1,0-0.2c0-0.2,0.1-0.5,0.2-0.8
		c0.2-0.4,0.3-0.8,0.4-1.1c0.1-0.1,0.1-0.2,0.2-0.2c0.1,0,0.1,0,0.2,0.3c0.7,1.5,1.3,2.9,1.3,4.7c0,1.4-0.2,2.3-0.3,2.7
		c-0.4,0.9-0.6,1.3-1.1,1.8c-0.5,0.5-1.4,1.2-2.5,1.6c-1.1,0.5-2.4,0.7-4.1,0.7C432.4,85.6,431.3,85.4,430.5,84.5z M437,70.7
		c0.1,0.1,0.1,0.1,0,0.2c-0.2,0.3-1.1,1.2-1.4,1.7c-0.1,0.1-0.1,0.1-0.2,0c-0.5-0.3-1.5-1-1.7-1.4c-0.1-0.1-0.1-0.1,0-0.2
		c0.3-0.5,0.9-1.2,1.3-1.6c0.2-0.2,0.2-0.2,0.3-0.1C435.6,69.6,436.4,70.3,437,70.7z"/>
	<path class="st0" d="M447.2,57.7c0.1-0.1,0.1,0,0.1,0.1c0,0.6-0.2,1.1-0.5,1.3l-4.1,2.3c-0.1,0-0.1,0-0.1-0.1c0-0.3,0.1-0.8,0.2-1
		c0.1-0.2,0.3-0.3,0.7-0.5L447.2,57.7z"/>
	<path class="st0" d="M446.9,65.4c-0.8,0.4-2.6,1.5-4,2.5c-0.1,0-0.1,0-0.1,0c0,0-0.1,0-0.1-0.1c0-0.1,0.1-0.3,0.2-0.7
		c0.1-0.2,0.5-0.6,0.8-0.9c0,0,0.1-0.1,0.1-0.1c0,0,0-0.1-0.1-0.1c-0.6-0.2-0.9-0.4-0.9-0.9c0-0.1,0-0.1,0-0.2c0-0.9,1-2.2,1.8-2.9
		c0.3-0.3,0.7-0.4,1-0.4c0.5,0,0.8,0.3,0.8,0.7c0,0.3-0.1,0.6-0.2,1c-0.1,0.2-0.2,0.4-0.3,0.4c-0.1,0-0.2-0.1-0.3-0.2
		c-0.1-0.1-0.3-0.3-0.6-0.3c-0.8,0-1.3,0.5-1.3,0.7c0,0.3,1.3,0.8,1.8,0.8c0.1,0,0.1,0,0.1,0c0.2-0.1,1.1-0.4,1.5-0.6
		c0.2-0.1,0.3-0.2,0.3-0.2c0,0,0.1,0,0.1,0.1c0,0.1-0.1,0.2-0.1,0.4C447.2,65.2,447.1,65.3,446.9,65.4z M445.4,83.8
		c-0.1,0-0.2-0.2-0.2-0.7c0-3-1.1-11.3-1.1-12.7c0-0.7,0.5-1.7,0.9-2.5c0.1-0.2,0.3-0.5,0.5-0.5c0.1,0,0.2,0.2,0.2,0.8
		c0.1,2.2,0.7,7.3,0.7,11c0,1.5-0.1,2.7-0.4,3.5C445.8,83.5,445.6,83.8,445.4,83.8z"/>
	<path class="st0" d="M462,72c0.1-0.1,0.1,0,0.1,0.1c0,0.6-0.2,1.1-0.5,1.3l-4.1,2.3c-0.1,0-0.1,0-0.1-0.1c0-0.3,0.1-0.8,0.2-1
		c0.1-0.2,0.3-0.3,0.7-0.5L462,72z"/>
	<path class="st0" d="M454.2,89.8c-0.3-0.2-0.4-0.3-0.4-0.4c0-0.1,0.2-0.2,0.4-0.2c0.3,0,1.1,0.2,1.8,0.2c0.6,0,1.2-0.2,2.1-0.6
		c2.4-1.2,3.9-3,3.9-4.2c0-0.2,0-0.3-0.1-0.7h-0.7c-0.5,0-1.5-0.1-2.2-0.5c-0.7-0.4-1-0.9-1-1.5c0-0.6,0.3-1.4,0.6-2.2
		c0.6-1.3,1.2-2.2,1.9-2.2c0.7,0,1.3,0.5,1.8,1.1c0.5,0.7,0.7,1.8,0.7,2.8h1c0.6,0,0.9,0.3,0.9,1c0,0.8-0.3,1.2-0.9,1.2l-1.1,0.1
		c-0.2,3.5-1.3,5.8-4.1,6.9c-0.2,0.1-0.4,0.1-0.6,0.1C457.2,90.8,455.6,90.4,454.2,89.8z M460.5,80.1c-0.1-0.1-0.3-0.2-0.6-0.2
		c-0.5,0-0.8,0.5-0.8,0.8c0,0.2,0.2,0.5,0.8,0.7c0.4,0.2,0.9,0.2,1.1,0.2c0.2,0,0.2,0,0.2-0.1C461.3,81.3,460.9,80.5,460.5,80.1z"/>
	<path class="st0" d="M469.8,72c0,0.5-0.1,1-0.3,1.5c0.2,0.1,0.4,0.3,0.4,0.4c0,0.4-0.2,0.7-0.3,1c-0.1,0.1-0.1,0.1-0.1,0.1
		l-0.5-0.3c-0.5,0.8-1.3,1.8-2.5,2.3c-0.4,0.2-0.9,0.4-1.5,0.4c-0.3,0-0.4-0.1-0.4-0.1c0-0.1,0.2-0.2,0.6-0.4
		c0.9-0.5,2.5-1.8,3.1-2.5c-0.5-0.3-1.1-0.7-1.1-1.4c0-0.4,0.2-0.9,0.6-1.3c0.4-0.5,0.8-0.8,1.2-0.8C469.6,70.8,469.8,71.5,469.8,72
		z M468,72.5C468,72.5,467.9,72.5,468,72.5c0,0.2,0.4,0.5,0.8,0.7c0.1-0.2,0.1-0.4,0.1-0.7c0-0.3-0.1-0.4-0.3-0.4
		C468.4,72,468.1,72.2,468,72.5z"/>
	<path class="st0" d="M475.1,61.9c0.1-0.1,0.1,0,0.1,0.1c0,0.6-0.2,1.1-0.5,1.3l-4.1,2.3c-0.1,0-0.1,0-0.1-0.1c0-0.3,0.1-0.8,0.2-1
		c0.1-0.2,0.3-0.3,0.7-0.5L475.1,61.9z"/>
	<path class="st0" d="M474.9,67.9c0.1,0.1,0.1,0.1,0,0.2c-0.2,0.3-1.1,1.2-1.4,1.7c-0.1,0.1-0.1,0.1-0.2,0c-0.5-0.3-1.5-1-1.7-1.4
		c-0.1-0.1-0.1-0.1,0-0.2c0.3-0.5,0.9-1.2,1.3-1.6c0.2-0.2,0.2-0.2,0.3-0.1C473.5,66.8,474.2,67.5,474.9,67.9z"/>
	<path class="st0" d="M469,89.7c0,0.1-0.1,0.1-0.2,0.1c-0.4,0-0.8-0.3-1.1-0.7c-0.8-0.9-1.2-2-1.2-3.9c0-0.6,0-1.2,0.1-1.9
		c0-0.3,0.1-0.6,0.2-1c-0.7,0.8-1.6,1.4-2.8,1.4h-0.2c-0.7,0-0.9-0.4-0.9-1.1c0-0.8,0.3-1.1,1-1.1h0.2c0.6,0,1.1-0.1,1.6-0.3
		c1.1-0.5,1.7-0.9,2.4-2c0.1-0.2,0.3-0.5,0.5-0.5c0.1,0,0.2,0.1,0.2,0.3c0,0.3-0.2,0.7-0.4,1.3c-0.3,0.9-0.7,2.1-0.7,3.3
		c0,0.6,0.1,1.1,0.3,1.7l0.2-1.2c0.1-0.3,0.2-0.7,0.3-1.1c0.6-1.7,2-2.9,5.1-3.8l1.3-0.3c0.4-0.1,0.5-0.3,0.5-0.9
		c0-0.5-0.1-0.8-0.3-1.3c-0.2,0.5-0.9,1-1.8,1c-1.2,0-1.8-0.8-1.8-2c0-1.8,1.4-4.1,2-4.1c1.1,0,2.4,1.4,2.9,4
		c0.1,0.4,0.1,0.8,0.1,1.3c0,1.6-0.6,3.7-2.3,4.2c-2.1,0.7-3.8,1.3-4.8,2.4c-0.2,0.2-0.3,0.6-0.3,1c0,1.3,0.7,2.6,0.7,3.3
		C469.5,88.3,469.2,89.3,469,89.7z M473.5,73.9c-0.1,0-0.2-0.1-0.3-0.1c-0.2,0-0.5,0.2-0.8,0.8c0,0,0,0.1,0,0.1c0,0.5,0.5,0.6,1,0.6
		c0.5,0,1-0.2,0.9-0.5C474.2,74.6,474,74.1,473.5,73.9z"/>
	<path class="st0" d="M489.5,86.5c0.1-0.1,0.1,0,0.1,0.1c0,0.6-0.2,1.1-0.5,1.3l-4.1,2.3c-0.1,0-0.1,0-0.1-0.1c0-0.3,0.1-0.8,0.2-1
		c0.1-0.2,0.3-0.3,0.7-0.5L489.5,86.5z"/>
	<path class="st0" d="M489.8,82.4c-1.1,0.6-3.5,2-5.4,3.4c-0.1,0.1-0.1,0.1-0.2,0.1s-0.1,0-0.1-0.1c0-0.2,0.1-0.6,0.3-0.9
		c0.1-0.2,0.7-0.8,1.1-1.2c0.1-0.1,0.1-0.1,0.1-0.1c0,0,0-0.1-0.2-0.1c-0.8-0.3-1.3-0.6-1.3-1.4c0-1.2,1.2-3,2.4-3.9
		c0.5-0.4,0.9-0.6,1.4-0.6c0.7,0,1.1,0.3,1.1,1c0,0.3-0.1,0.9-0.3,1.4c-0.1,0.3-0.2,0.4-0.3,0.4c-0.1,0-0.1,0-0.3-0.2
		c-0.2-0.2-0.5-0.4-0.8-0.4c-0.7,0-1.7,0.5-1.7,0.9c0,0.4,1.7,1.1,2.4,1.1c0.1,0,0.1,0,0.2,0c0.4-0.1,1.4-0.5,2-0.9
		c0.2-0.1,0.3-0.2,0.4-0.2c0.1,0,0.1,0,0.1,0.1c0,0.1-0.1,0.3-0.2,0.6C490.2,82.3,490.1,82.3,489.8,82.4z"/>
	<path class="st0" d="M495.3,83.8c-0.1,0-0.2-0.2-0.2-0.7c0-3-1.1-11.3-1.1-12.7c0-0.7,0.5-1.7,0.9-2.5c0.1-0.2,0.3-0.5,0.5-0.5
		c0.1,0,0.2,0.2,0.2,0.8c0.1,2.2,0.7,7.3,0.7,11c0,1.5-0.1,2.7-0.4,3.5C495.7,83.5,495.5,83.8,495.3,83.8z"/>
	<path class="st0" d="M502.3,78c-0.7,0-1.1-0.7-1.1-1.5c0-0.2,0-0.5,0.1-0.8c0.1-0.2,0.2-0.8,0.5-0.8c0.1,0,0.2,0.2,0.2,0.6v0.3
		c0,0.3,0.2,0.5,0.6,0.5h0c0.5,0,0.8-0.3,0.9-1c0.1-0.3,0.2-1.1,0.6-1.1c0.1,0,0.2,0.2,0.2,0.5c0,0.2,0.1,0.3,0.4,0.3
		c0.5,0,0.8-0.3,0.9-0.8c0.1-0.7,0.2-0.8,0.4-0.8c0.2,0,0.3,0.7,0.3,1.1c0,0.3,0,0.6-0.2,1c-0.2,0.7-0.7,1.2-1.5,1.2
		c-0.2,0-0.4-0.1-0.5-0.1c-0.1-0.1-0.1,0-0.2,0.1C503.5,77.5,503,78,502.3,78z M506.2,71.1C506.3,71.1,506.3,71.1,506.2,71.1
		c0,0.5-0.2,0.9-0.4,1.2c-0.1,0.1-0.2,0.2-0.5,0.3l-4,1.9c0,0-0.1,0-0.1-0.1c0-0.2,0.1-0.5,0.2-0.7c0.2-0.3,0.2-0.4,0.3-0.5
		c0.1-0.1,0.2-0.1,0.3-0.2L506.2,71.1z"/>
	<path class="st0" d="M507.8,81.6c0.7,0,1.1,0.4,1.1,1.1c0,0.8-0.4,1.2-1.1,1.2h-0.2c-0.6,0-1,0-1.3-0.1c0,0.1,0,0.2,0,0.3
		c0,0.7-0.1,1.5-0.4,2.1c-0.5,1.2-1.3,3.3-3.6,4.3c-0.4,0.2-0.8,0.3-1.2,0.3c-0.9,0-2.4-0.5-3.5-1c-0.3-0.2-0.4-0.3-0.4-0.4
		c0-0.1,0.1-0.2,0.4-0.2c0.3,0,0.8,0.1,1.3,0.1c3.1,0,6.2-2.7,6.6-5c0-0.5-1.1-1.6-1.3-1.9c0-0.1-0.1-0.2-0.1-0.3
		c0-0.5,0.4-1.5,0.6-1.8c0.1-0.2,0.2-0.2,0.3-0.2c0.2,0,0.3,0.2,0.6,0.7c0.4,0.6,0.9,0.9,1.8,0.9H507.8z"/>
	<path class="st0" d="M510,82.8c-0.5,0.7-1.2,1-2.3,1h-0.2c-0.7,0-1-0.4-1-1.2c0-0.7,0.3-1.1,1-1.1h0.2c0.5,0,1-0.1,1.5-0.2
		c0.4-0.1,0.6-0.3,0.7-0.4c0-1.7-0.6-5.4-0.9-8.9c0-0.4-0.3-1.6-0.4-2.1c0-0.1,0-0.2,0-0.2c0-0.3,0.3-0.9,0.5-1.3
		c0.3-0.5,0.5-0.9,0.7-0.9c0.1,0,0.1,0.1,0.2,0.2c0.3,1,0.6,1.5,0.8,1.8c0.1,0.1,0.1,0.2,0.1,0.3c0,0,0,0.1,0,0.1
		c-0.1,0.2-0.4,0.8-0.6,1.1c0.2,3.4,0.7,6.2,0.7,7.8C511,80.5,510.6,81.8,510,82.8z"/>
	<path class="st0" d="M515.6,83.8c-0.1,0-0.2-0.2-0.2-0.7c0-3-1.1-11.3-1.1-12.7c0-0.7,0.5-1.7,0.9-2.5c0.1-0.2,0.3-0.5,0.5-0.5
		c0.1,0,0.2,0.2,0.2,0.8c0.1,2.2,0.7,7.3,0.7,11c0,1.5-0.1,2.7-0.4,3.5C515.9,83.5,515.7,83.8,515.6,83.8z"/>
	<path class="st0" d="M523.9,71.4c0.1-0.1,0.1,0,0.1,0.1c0,0.6-0.2,1.1-0.5,1.3l-4.1,2.3c-0.1,0-0.1,0-0.1-0.1c0-0.3,0.1-0.8,0.2-1
		c0.1-0.2,0.3-0.3,0.7-0.5L523.9,71.4z"/>
	<path class="st0" d="M524.7,79.7c0.3,0.9,0.5,1.8,0.5,3.1c0,4-1.1,6.5-4.2,7.7c-0.2,0.1-0.4,0.1-0.6,0.1c-1,0-2.6-0.5-4-1.1
		c-0.3-0.2-0.4-0.3-0.4-0.4c0-0.1,0.1-0.2,0.4-0.2c0.2,0,1.1,0.2,1.8,0.2c0.9,0,1.9-0.4,3.3-1.3c1.5-1,2.8-2.3,2.8-3.8
		c0-0.5-0.1-1-0.4-1.5c-0.3,0.7-0.8,1.1-1.5,1.1c-1.3,0-2.1-0.7-2.1-2.1c0-0.5,0.3-1.3,0.6-2.1c0.5-1,1.2-1.9,1.8-1.9
		C523.3,77.5,524.2,78.4,524.7,79.7z M522.2,79.7c-0.3,0-0.5,0.2-0.7,0.5c-0.1,0.1-0.2,0.4-0.2,0.5c0,0.4,0.6,0.6,1.1,0.6
		c0.4,0,0.7-0.2,0.8-0.4C523.2,80.2,522.5,79.7,522.2,79.7z"/>
	<path class="st0" d="M540.3,85c0.1-0.1,0.1,0,0.1,0.1c0,0.6-0.2,1.1-0.5,1.3l-4.1,2.3c-0.1,0-0.1,0-0.1-0.1c0-0.3,0.1-0.8,0.2-1
		c0.1-0.2,0.3-0.3,0.7-0.5L540.3,85z"/>
	<path class="st0" d="M540,79.1c-0.1,0.7-0.5,1.6-0.8,2.1c-0.1,0.1-0.1,0.1-0.2,0.1c0,0-0.1,0-0.1,0c-0.3-0.1-0.7-0.2-1.5-0.2
		c-1.6,0-3.6,0.4-3.7,1c0,0.8,0.9,4,0.9,8c0,0.4,0,0.8,0,1.1c-0.1,1.7-0.6,2.7-0.8,2.7c-0.1,0-0.2-0.2-0.2-0.6c0-0.3,0-0.6,0-1
		c0-2.3-0.5-5-0.9-7.6c-0.1-0.7-0.2-1.3-0.2-1.8c0-1.9,0.7-2.6,1.1-3c0-0.1,0-0.2,0-0.3c0-1.5,0.9-3.9,2.4-3.9c1.8,0,3.2,2.1,4,3.3
		C540,78.9,540,79,540,79.1z M535.5,78.1c-0.6,0-0.8,0.7-1,1.1c0.6-0.4,1.7-0.5,2.3-0.5C536.4,78.4,536,78.1,535.5,78.1z"/>
	<path class="st0" d="M546.7,66.9c-0.7,0-1.1-0.7-1.1-1.5c0-0.2,0-0.5,0.1-0.8c0.1-0.2,0.2-0.8,0.5-0.8c0.1,0,0.2,0.2,0.2,0.6v0.3
		c0,0.3,0.2,0.5,0.6,0.5h0c0.5,0,0.8-0.3,0.9-1c0.1-0.3,0.2-1.1,0.6-1.1c0.1,0,0.2,0.2,0.2,0.5c0,0.2,0.1,0.3,0.4,0.3
		c0.5,0,0.8-0.3,0.9-0.8c0.1-0.7,0.2-0.8,0.4-0.8c0.2,0,0.3,0.7,0.3,1.1c0,0.3,0,0.6-0.2,1c-0.2,0.7-0.7,1.2-1.5,1.2
		c-0.2,0-0.4-0.1-0.5-0.1c-0.1-0.1-0.1,0-0.2,0.1C547.9,66.4,547.5,66.9,546.7,66.9z M550.6,60C550.7,60,550.7,60.1,550.6,60
		c0,0.5-0.2,0.9-0.4,1.2c-0.1,0.1-0.2,0.2-0.5,0.3l-4,1.9c0,0-0.1,0-0.1-0.1c0-0.2,0.1-0.5,0.2-0.7c0.2-0.3,0.2-0.4,0.3-0.5
		c0.1-0.1,0.2-0.1,0.3-0.2L550.6,60z"/>
	<path class="st0" d="M551.3,81.2c0.2,0.2,0.6,0.3,1,0.3h0.2c0.6,0,1,0.4,1,1.1c0,0.8-0.3,1.1-1,1.1h-0.3c-0.5,0-1-0.1-1.5-0.4
		c-0.8-0.5-1.1-1.3-1.4-3c-0.2-1.2-0.3-2.3-0.3-2.9c0-0.2-0.1-0.4-0.1-0.4c0,0-0.1,0.1-0.1,0.3c-0.2,2.6-0.6,4.1-2,6
		c-0.4,0.6-1.3,0.9-2.2,1.1c-0.8,0.2-2.4,0.4-3.3,0.4c-0.3,0-0.5,0-0.5-0.1c0-0.1,0.3-0.3,1-0.7c1.6-0.8,4.5-3,5.4-4.6
		c0-1.1-0.8-2.4-1.1-2.9c-1-1.9-2.7-3.4-4-4c-0.2,0.2-0.4,0.5-0.8,0.5c-0.5,0-1.5-0.5-2.4-1.6c-0.2-0.3-0.3-0.9-0.3-1.5
		c0-0.7,0.2-1.4,0.5-1.4c0.3,0,0.9,0.2,1.3,0.4c2.4,1,5.7,3.7,6.7,6.8c0.3,0.9,0.5,1.9,0.5,2.8c0.6-1.4,0.7-3,0.7-4.5
		c0-1.8-0.2-3.6-0.2-4.8c0.2-0.6,0.8-2.1,1.1-2.1c0.2,0,0.2,0.6,0.2,0.7c0.1,0.6,0.1,1.7,0.2,2.8c0.1,1.2,0.2,4.6,0.5,7.1
		C550.4,79.9,550.6,80.6,551.3,81.2z"/>
	<path class="st0" d="M554.7,82.8c-0.5,0.7-1.2,1-2.3,1h-0.2c-0.7,0-1-0.4-1-1.2c0-0.7,0.3-1.1,1-1.1h0.2c0.5,0,1-0.1,1.5-0.2
		c0.4-0.1,0.6-0.3,0.7-0.4c0-1.7-0.6-5.4-0.9-8.9c0-0.4-0.3-1.6-0.4-2.1c0-0.1,0-0.2,0-0.2c0-0.3,0.3-0.9,0.5-1.3
		c0.3-0.5,0.5-0.9,0.7-0.9c0.1,0,0.1,0.1,0.2,0.2c0.3,1,0.6,1.5,0.8,1.8c0.1,0.1,0.1,0.2,0.1,0.3c0,0,0,0.1,0,0.1
		c-0.1,0.2-0.4,0.8-0.6,1.1c0.2,3.4,0.7,6.2,0.7,7.8C555.7,80.5,555.4,81.8,554.7,82.8z"/>
	<path class="st0" d="M560.3,83.8c-0.1,0-0.2-0.2-0.2-0.7c0-3-1.1-11.3-1.1-12.7c0-0.7,0.5-1.7,0.9-2.5c0.1-0.2,0.3-0.5,0.5-0.5
		c0.1,0,0.2,0.2,0.2,0.8c0.1,2.2,0.7,7.3,0.7,11c0,1.5-0.1,2.7-0.4,3.5C560.7,83.5,560.5,83.8,560.3,83.8z"/>
	<path class="st0" d="M576.4,91.2c0.2-0.2,0.2-0.2,0.3-0.1c0.5,0.5,1,1.1,1.5,1.4c0.2,0.1,0.2,0.2,0,0.3c-0.5,0.5-0.9,1-1.3,1.5
		c-0.1,0.1-0.2,0.1-0.3,0c-0.4-0.3-0.9-0.7-1.4-1.2c-0.3,0.3-0.9,1-1.1,1.2c-0.1,0.1-0.2,0.2-0.4,0c-0.5-0.3-1.1-0.9-1.5-1.4
		c-0.1-0.1-0.1-0.2,0-0.3c0.4-0.5,0.9-1,1.4-1.5c0.1-0.1,0.2-0.1,0.3,0.1c0.4,0.4,1,1,1.4,1.2C575.6,92.1,576.2,91.4,576.4,91.2z"/>
	<path class="st0" d="M582.1,68.4c0.1,0.1,0.1,0.1,0,0.2c-0.2,0.3-1.1,1.2-1.4,1.7c-0.1,0.1-0.1,0.1-0.2,0c-0.5-0.3-1.5-1-1.7-1.4
		c-0.1-0.1-0.1-0.1,0-0.2c0.3-0.5,0.9-1.2,1.3-1.6c0.2-0.2,0.2-0.2,0.3-0.1C580.6,67.3,581.4,67.9,582.1,68.4z"/>
	<path class="st0" d="M573,86.4c0.7,0.2,1.4,0.3,2.1,0.3c0.8,0,1.4-0.1,2.2-0.3c2.4-0.6,5.1-1.9,5.5-2.5c-0.7-0.6-2.7-1.4-4.4-1.5
		c-0.3,0-0.5-0.1-0.5-0.4c0-0.3,0.3-0.9,0.5-1.2c0.1-0.1,0.1-0.1,0.3-0.2c3.2-0.6,3.4-1.8,3.4-1.9c0-0.7-0.1-0.9-0.3-1.5
		c-0.4,0.5-1,1-1.8,1c-0.9,0-1.8-0.6-1.8-1.7c0-1.6,1.5-4.4,2.2-4.4c0.8,0,1.6,0.7,2.1,1.9c0.4,0.9,0.7,2.2,0.7,3
		c0,1.5-0.7,3-1.5,4.2c0.6,0.2,1.1,0.4,1.4,0.6c0.9,0.5,0.9,1.1,0.9,1.5c0,0.9-0.7,1.9-1.7,2.8c-2,1.7-5.4,2.9-7.6,2.9
		c-0.6,0-1.4-0.1-2.1-0.3c-1.7-0.5-3.2-1.7-3.2-4.5c0-1.6,0.7-3.8,1.5-5c0.2-0.4,0.5-0.6,0.7-0.6c0.2,0,0.1,0.4-0.1,0.8
		c-0.6,1.3-1,2.5-1,3.4C570.2,84.8,571.4,86,573,86.4z M579.9,74.3c-0.2,0-0.5,0.2-0.7,0.7c0,0.1-0.1,0.2-0.1,0.3
		c0,0.4,0.5,0.6,1,0.7c0.5,0,1-0.2,1-0.5C580.9,74.6,580.3,74.3,579.9,74.3z"/>
	<path class="st0" d="M596.1,84.8c0.1-0.1,0.1,0,0.1,0.1c0,0.6-0.2,1.1-0.5,1.3l-4.1,2.3c-0.1,0-0.1,0-0.1-0.1c0-0.3,0.1-0.8,0.2-1
		c0.1-0.2,0.3-0.3,0.7-0.5L596.1,84.8z"/>
	<path class="st0" d="M595,68.7c0.2-0.2,0.2-0.2,0.3-0.1c0.5,0.5,1,1.1,1.5,1.4c0.2,0.1,0.2,0.2,0,0.3c-0.5,0.5-0.9,1-1.3,1.5
		c-0.1,0.1-0.2,0.1-0.3,0c-0.4-0.3-0.9-0.7-1.4-1.2c-0.3,0.3-0.9,1-1.1,1.2c-0.1,0.1-0.2,0.2-0.4,0c-0.5-0.3-1.1-0.9-1.5-1.4
		c-0.1-0.1-0.1-0.2,0-0.3c0.4-0.5,0.9-1,1.4-1.5c0.1-0.1,0.2-0.1,0.3,0.1c0.4,0.4,1,1,1.4,1.2C594.2,69.5,594.7,68.9,595,68.7z
		 M598,81.1c0.5,0.3,0.9,0.5,1.2,0.5h0.3c0.7,0,1.1,0.4,1.1,1.1c0,0.8-0.4,1.2-1.1,1.2h-0.3c-0.8,0-1.5-0.3-2.3-0.9
		c-0.7-0.6-1.2-1.6-1.4-3c-0.2,0.4-0.4,0.7-0.8,1c-0.6,0.4-1.6,0.6-2.6,0.6c-0.7,0-1.4-0.1-1.4-0.7c0.3-2.2,0.6-2.6,1.7-3.4
		c0.5-0.4,1.8-1.2,2.3-1.6c0-0.2,0-0.4,0-0.5c0-0.5,0.1-0.8,0.4-1.2c0.2-0.3,0.3-0.5,0.4-0.5c0.1,0,0.2,0.2,0.2,0.5
		c0.3,2.1,0.5,3.8,0.8,4.8C596.7,79.8,597.2,80.6,598,81.1z M594.9,77c-0.9,0.6-2.5,1.6-2.6,1.9c0,0.2,0.3,0.2,0.7,0.2
		c0.6,0,1.5-0.2,2.2-0.5C595.2,78,595.1,77.8,594.9,77z"/>
	<path class="st0" d="M600.5,71.4c-0.7,0-1.1-0.7-1.1-1.5c0-0.2,0-0.5,0.1-0.8c0.1-0.2,0.2-0.8,0.5-0.8c0.1,0,0.2,0.2,0.2,0.6v0.3
		c0,0.3,0.2,0.5,0.6,0.5h0c0.5,0,0.8-0.3,0.9-1c0.1-0.3,0.2-1.1,0.6-1.1c0.1,0,0.2,0.2,0.2,0.5c0,0.2,0.1,0.3,0.4,0.3
		c0.5,0,0.8-0.3,0.9-0.8c0.1-0.7,0.2-0.8,0.4-0.8c0.2,0,0.3,0.7,0.3,1.1c0,0.3,0,0.6-0.2,1c-0.2,0.7-0.7,1.2-1.5,1.2
		c-0.2,0-0.4-0.1-0.5-0.1c-0.1-0.1-0.1,0-0.2,0.1C601.7,70.9,601.3,71.4,600.5,71.4z M604.4,64.5C604.5,64.5,604.5,64.6,604.4,64.5
		c0,0.5-0.2,0.9-0.4,1.2c-0.1,0.1-0.2,0.2-0.5,0.3l-4,1.9c0,0-0.1,0-0.1-0.1c0-0.2,0.1-0.5,0.2-0.7c0.2-0.3,0.2-0.4,0.3-0.5
		c0.1-0.1,0.2-0.1,0.3-0.2L604.4,64.5z"/>
	<path class="st0" d="M603.9,80.2c0,0.6,0.6,1.2,1.4,1.4c0.2,0,0.3,0,0.5,0h0.1c0.9,0,0.9,0.7,0.9,1c0,0.3,0,1.3-0.8,1.3h-0.2
		c-0.2,0-0.3,0-0.6,0c-1.5-0.2-2.1-1.5-2.2-1.7c-0.2,0.6-1.5,1.7-3.7,1.7h-0.1c-0.6,0-1-0.6-1-1.1c0-0.6,0.3-1.1,1-1.1h0.7
		c1,0,2.4-0.2,3.3-1.6c0.3-0.5,0.4-0.5,0.5-0.5C603.8,79.4,603.9,79.7,603.9,80.2z M604.8,74.3c0.1,0.1,0.1,0.1,0,0.2
		c-0.2,0.3-1.1,1.2-1.4,1.7c-0.1,0.1-0.1,0.1-0.2,0c-0.5-0.3-1.5-1-1.7-1.4c-0.1-0.1-0.1-0.1,0-0.2c0.3-0.5,0.9-1.2,1.3-1.6
		c0.2-0.2,0.2-0.2,0.3-0.1C603.4,73.2,604.1,73.9,604.8,74.3z"/>
	<path class="st0" d="M612.3,62.9c0,0.5-0.1,1-0.3,1.5c0.2,0.1,0.4,0.3,0.4,0.4c0,0.4-0.2,0.7-0.3,1c-0.1,0.1-0.1,0.1-0.1,0.1
		l-0.5-0.3c-0.5,0.8-1.3,1.8-2.5,2.3c-0.4,0.2-0.9,0.4-1.5,0.4c-0.3,0-0.4-0.1-0.4-0.1c0-0.1,0.2-0.2,0.6-0.4
		c0.9-0.5,2.5-1.8,3.1-2.5c-0.5-0.3-1.1-0.7-1.1-1.4c0-0.4,0.2-0.9,0.6-1.3c0.4-0.5,0.8-0.8,1.2-0.8
		C612.1,61.6,612.3,62.3,612.3,62.9z M610.5,63.3C610.5,63.3,610.5,63.4,610.5,63.3c0,0.2,0.4,0.5,0.8,0.7c0.1-0.2,0.1-0.4,0.1-0.7
		c0-0.3-0.1-0.4-0.3-0.4C610.9,62.9,610.7,63,610.5,63.3z"/>
	<path class="st0" d="M616.1,81.6c0.6,0,1,0.4,1,1.1c0,0.8-0.3,1.2-1,1.2h-0.2c-1-0.1-1.9-0.3-2.7-0.8c-0.8-0.5-1.1-0.9-1.6-1.7
		c-1.2,1.1-2.1,1.7-2.9,2c-0.8,0.3-1.7,0.5-2.7,0.5c-0.8,0-1.1-0.4-1.1-1.2c0-0.7,0.4-1.1,1.1-1.1h0.2c1.8,0,3-0.3,4.5-1.2
		c-0.5-0.7-1.7-1-2.3-1.1c-0.1,0-0.1-0.2-0.1-0.4c0-0.5,0.2-1.4,0.5-1.6c1-0.7,2.1-1.1,3.1-1.1c1,0,1.9,0.4,2.6,1.1
		c0.2,0.2,0.2,0.4,0.2,0.7c0,0.7-0.4,1.7-1.3,2.3c0.8,0.8,1.7,1.2,2.6,1.2H616.1z M612.6,71.4c0.1,0.1,0.1,0.1,0,0.2
		c-0.2,0.3-1.1,1.2-1.4,1.7c-0.1,0.1-0.1,0.1-0.2,0c-0.5-0.3-1.5-1-1.7-1.4c-0.1-0.1-0.1-0.1,0-0.2c0.3-0.5,0.9-1.2,1.3-1.6
		c0.2-0.2,0.2-0.2,0.3-0.1C611.2,70.3,611.9,70.9,612.6,71.4z"/>
	<path class="st0" d="M617.9,61.6c0.7,0,1.7,1,1.7,2.1c0,0.4-0.1,0.8-0.2,1.2c-0.3,0.8-0.9,1.3-1.8,1.3c-0.8,0-1.3-0.6-1.3-1.3
		C616.3,63.8,617.4,61.6,617.9,61.6z M617.7,63.2c-0.3,0-0.7,0.6-0.7,1c0,0.3,0.4,0.6,0.8,0.6c0.5,0,1.1-0.3,1.1-0.5
		C618.9,64.1,618.3,63.2,617.7,63.2z"/>
	<path class="st0" d="M618.2,82.8c-0.5,0.7-1.2,1-2.3,1h-0.2c-0.7,0-1-0.4-1-1.2c0-0.7,0.3-1.1,1-1.1h0.2c0.5,0,1-0.1,1.5-0.2
		c0.4-0.1,0.6-0.3,0.7-0.4c0-1.7-0.6-5.4-0.9-8.9c0-0.4-0.3-1.6-0.4-2.1c0-0.1,0-0.2,0-0.2c0-0.3,0.3-0.9,0.5-1.3
		c0.3-0.5,0.5-0.9,0.7-0.9c0.1,0,0.1,0.1,0.2,0.2c0.3,1,0.6,1.5,0.8,1.8c0.1,0.1,0.1,0.2,0.1,0.3c0,0,0,0.1,0,0.1
		c-0.1,0.2-0.4,0.8-0.6,1.1c0.2,3.4,0.7,6.2,0.7,7.8C619.2,80.5,618.9,81.8,618.2,82.8z"/>
	<path class="st0" d="M623.8,83.8c-0.1,0-0.2-0.2-0.2-0.7c0-3-1.1-11.3-1.1-12.7c0-0.7,0.5-1.7,0.9-2.5c0.1-0.2,0.3-0.5,0.5-0.5
		c0.1,0,0.2,0.2,0.2,0.8c0.1,2.2,0.7,7.3,0.7,11c0,1.5-0.1,2.7-0.4,3.5C624.2,83.5,624,83.8,623.8,83.8z"/>
	<path class="st0" d="M637.9,68.3c0,0.5-0.1,1-0.3,1.5c0.2,0.1,0.4,0.3,0.4,0.4c0,0.4-0.2,0.7-0.3,1c-0.1,0.1-0.1,0.1-0.1,0.1
		l-0.5-0.3c-0.5,0.8-1.3,1.8-2.5,2.3c-0.4,0.2-0.9,0.4-1.5,0.4c-0.3,0-0.4-0.1-0.4-0.1c0-0.1,0.2-0.2,0.6-0.4
		c0.9-0.5,2.5-1.8,3.1-2.5c-0.5-0.3-1.1-0.7-1.1-1.4c0-0.4,0.2-0.9,0.6-1.3c0.4-0.5,0.8-0.8,1.2-0.8
		C637.7,67.1,637.8,67.8,637.9,68.3z M636.1,68.8C636,68.8,636,68.8,636.1,68.8c0,0.2,0.4,0.5,0.8,0.7c0.1-0.2,0.1-0.4,0.1-0.7
		c0-0.3-0.1-0.4-0.3-0.4C636.4,68.3,636.2,68.5,636.1,68.8z"/>
	<path class="st0" d="M640.6,79.1c-0.1,0.7-0.5,1.6-0.8,2.1c-0.1,0.1-0.1,0.1-0.2,0.1c0,0-0.1,0-0.1,0c-0.3-0.1-0.7-0.2-1.5-0.2
		c-1.6,0-3.6,0.4-3.7,1c0,0.8,0.9,4,0.9,8c0,0.4,0,0.8,0,1.1c-0.1,1.7-0.6,2.7-0.8,2.7c-0.1,0-0.2-0.2-0.2-0.6c0-0.3,0-0.6,0-1
		c0-2.3-0.5-5-0.9-7.6c-0.1-0.7-0.2-1.3-0.2-1.8c0-1.9,0.7-2.6,1.1-3c0-0.1,0-0.2,0-0.3c0-1.5,0.9-3.9,2.4-3.9c1.8,0,3.2,2.1,4,3.3
		C640.6,78.9,640.6,79,640.6,79.1z M636.1,78.1c-0.6,0-0.8,0.7-1,1.1c0.6-0.4,1.7-0.5,2.3-0.5C637,78.4,636.6,78.1,636.1,78.1z"/>
	<path class="st0" d="M650.8,66.5c0.1-0.1,0.1,0,0.1,0.1c0,0.6-0.2,1.1-0.5,1.3l-4.1,2.3c-0.1,0-0.1,0-0.1-0.1c0-0.3,0.1-0.8,0.2-1
		c0.1-0.2,0.3-0.3,0.7-0.5L650.8,66.5z"/>
	<path class="st0" d="M652.4,81.6h0.3c0.7,0,1,0.4,1,1.1c0,0.8-0.4,1.2-1,1.2h-0.3c-0.8,0-1.4-0.3-1.8-0.7c-0.5-0.4-0.8-1-1.1-1.9
		c-0.3,1.6-2.2,2.6-4.6,2.6c-0.7,0-1.5-0.1-2.1-0.5c-0.4-0.3-0.7-0.6-0.7-1.1c0-0.5,0.1-1.3,0.4-1.9c0.1-0.2,0.2-0.3,0.3-0.3
		c0.1,0,0.2,0.1,0.3,0.3c0.2,0.7,1.2,1,2.3,1c2.1,0,3.1-0.5,3.6-1.3c0-0.2,0.1-0.4,0.1-0.7c0-1.3-0.4-2.9-0.7-4.4
		c0-0.2-0.1-0.3-0.1-0.5c0-0.1,0.1-0.4,0.5-1.4c0.2-0.4,0.3-0.6,0.4-0.6c0.1,0,0.2,0.2,0.3,0.6c0.8,3.3,0.8,5.6,1.2,7
		c0.1,0.4,0.2,0.6,0.5,0.9C651.6,81.3,652,81.5,652.4,81.6z"/>
	<path class="st0" d="M658.6,68.5c0.1-0.1,0.1,0,0.1,0.1c0,0.6-0.2,1.1-0.5,1.3l-4.1,2.3c-0.1,0-0.1,0-0.1-0.1c0-0.3,0.1-0.8,0.2-1
		c0.1-0.2,0.3-0.3,0.7-0.5L658.6,68.5z"/>
	<path class="st0" d="M653.9,79.4c0-0.5,0.2-1.7,0.6-2.5c0.7-1.5,1.9-2.2,2.9-2.2c0.7,0,2.1,0.4,2.8,1c0.3,0.2,0.3,0.4,0.3,0.5
		c0,0.1-0.1,0.1-0.2,0.1c-0.4,0-1-0.1-1.6-0.1c-1.1,0-3.6,1-3.7,1.7c0.1,0.4,1.3,2.3,3.3,2.3h0.1c1.2-0.5,2.7-1.1,3.7-1.6
		c0.4-0.2,0.7-0.3,0.8-0.3c0.1,0,0.1,0,0.1,0.1c0,0.2-0.5,1.2-0.8,1.7c-0.1,0.1-0.2,0.3-0.4,0.4c-0.7,0.4-1.8,0.9-3.2,1.6
		c-1.5,0.7-4.6,1.8-5.9,1.8h-0.2c-0.7,0-1-0.4-1-1.1c0-0.8,0.4-1.1,1.1-1.1h0.2c0.2,0,1.2-0.1,2.1-0.3
		C654.2,80.8,653.9,80.2,653.9,79.4z"/>
	<path class="st0" d="M674.6,83.8c-0.7,0-1.2-0.1-1.7-0.5c-0.7-0.6-1.1-1.7-1.3-3.1c-0.2-1.1-0.2-2.3-0.3-3.7
		c-0.1-2-0.2-5.1-0.5-6.9c0-0.1,0-0.2,0-0.2c0-0.1,0-0.2,0.2-0.4c0.3-0.5,0.5-0.8,0.7-1.2c0.2-0.3,0.2-0.3,0.3-0.3
		c0.1,0,0.2,0.2,0.3,0.7c0.4,3.5,0.1,8.4,0.6,11.1c0.1,0.7,0.2,0.9,0.4,1.3c0.3,0.6,0.7,0.9,1.4,1c0.8,0,1.2,0.4,1.2,1.1
		c0,0.9-0.4,1.2-1.1,1.2H674.6z"/>
	<path class="st0" d="M677.9,74.6c-0.7,0-1.1-0.7-1.1-1.5c0-0.2,0-0.5,0.1-0.8c0.1-0.2,0.2-0.8,0.5-0.8c0.1,0,0.2,0.2,0.2,0.6v0.3
		c0,0.3,0.2,0.5,0.6,0.5h0c0.5,0,0.8-0.3,0.9-1c0.1-0.3,0.2-1.1,0.6-1.1c0.1,0,0.2,0.2,0.2,0.5c0,0.2,0.1,0.3,0.4,0.3
		c0.5,0,0.8-0.3,0.9-0.8c0.1-0.7,0.2-0.8,0.4-0.8c0.2,0,0.3,0.7,0.3,1.1c0,0.3,0,0.6-0.2,1c-0.2,0.7-0.7,1.2-1.5,1.2
		c-0.2,0-0.4-0.1-0.5-0.1c-0.1-0.1-0.1,0-0.2,0.1C679.2,74.1,678.7,74.6,677.9,74.6z M681.8,67.7C681.9,67.6,681.9,67.7,681.8,67.7
		c0,0.5-0.2,0.9-0.4,1.2c-0.1,0.1-0.2,0.2-0.5,0.3l-4,1.9c0,0-0.1,0-0.1-0.1c0-0.2,0.1-0.5,0.2-0.7c0.2-0.3,0.2-0.4,0.3-0.5
		c0.1-0.1,0.2-0.1,0.3-0.2L681.8,67.7z"/>
	<path class="st0" d="M674.8,83.8h-0.1c-0.7,0-1-0.4-1-1.2c0-0.7,0.4-1.1,1-1.1h0.1c1.2,0,2.2-0.5,2.9-1.4l1.3-2
		c0.7-1.1,1.7-1.5,2.2-1.5c1.7,0,2.4,2.9,2.4,4.1c0,1-1.1,2.4-1.6,2.4c-0.8,0-2.8-1-3.8-1.9C677.2,83,676.1,83.8,674.8,83.8z
		 M680.1,78.6c-0.2,0-0.3,0.1-0.5,0.3c-0.1,0.1-0.2,0.3-0.3,0.5c0.5,0.3,1.9,1,2.5,1.4C681.8,80,680.8,78.6,680.1,78.6z"/>
	<path class="st0" d="M689.1,57.7c0.1-0.1,0.1,0,0.1,0.1c0,0.6-0.2,1.1-0.5,1.3l-4.1,2.3c-0.1,0-0.1,0-0.1-0.1c0-0.3,0.1-0.8,0.2-1
		c0.1-0.2,0.3-0.3,0.7-0.5L689.1,57.7z"/>
	<path class="st0" d="M688.9,65.4c-0.8,0.4-2.6,1.5-4,2.5c-0.1,0-0.1,0-0.1,0c0,0-0.1,0-0.1-0.1c0-0.1,0.1-0.3,0.2-0.7
		c0.1-0.2,0.5-0.6,0.8-0.9c0,0,0.1-0.1,0.1-0.1c0,0,0-0.1-0.1-0.1c-0.6-0.2-0.9-0.4-0.9-0.9c0-0.1,0-0.1,0-0.2c0-0.9,1-2.2,1.8-2.9
		c0.3-0.3,0.7-0.4,1-0.4c0.5,0,0.8,0.3,0.8,0.7c0,0.3-0.1,0.6-0.2,1c-0.1,0.2-0.2,0.4-0.3,0.4c-0.1,0-0.2-0.1-0.3-0.2
		c-0.1-0.1-0.3-0.3-0.6-0.3c-0.8,0-1.3,0.5-1.3,0.7c0,0.3,1.3,0.8,1.8,0.8c0.1,0,0.1,0,0.1,0c0.2-0.1,1.1-0.4,1.5-0.6
		c0.2-0.1,0.3-0.2,0.3-0.2c0,0,0.1,0,0.1,0.1c0,0.1-0.1,0.2-0.1,0.4C689.2,65.2,689,65.3,688.9,65.4z M687.4,83.8
		c-0.1,0-0.2-0.2-0.2-0.7c0-3-1.1-11.3-1.1-12.7c0-0.7,0.5-1.7,0.9-2.5c0.1-0.2,0.3-0.5,0.5-0.5c0.1,0,0.2,0.2,0.2,0.8
		c0.1,2.2,0.7,7.3,0.7,11c0,1.5-0.1,2.7-0.4,3.5C687.7,83.5,687.6,83.8,687.4,83.8z"/>
</g>
</svg>
