<?xml version="1.0" encoding="utf-8"?>
<!-- Generator: Adobe Illustrator 19.2.0, SVG Export Plug-In . SVG Version: 6.00 Build 0)  -->
<svg version="1.1" id="Layer_1" xmlns="http://www.w3.org/2000/svg" xmlns:xlink="http://www.w3.org/1999/xlink" x="0px" y="0px"
	 viewBox="0 0 724.1 72.4" style="enable-background:new 0 0 724.1 72.4;" xml:space="preserve">
<style type="text/css">
	.st0{fill:#FFFFFF;}
	.st1{fill:none;stroke:#6D2400;stroke-width:7.6905;stroke-linecap:round;stroke-linejoin:round;stroke-miterlimit:10;}
	.st2{fill:none;stroke:#CB9248;stroke-width:5.3834;stroke-linecap:round;stroke-linejoin:round;stroke-miterlimit:10;}
	.st3{fill:none;stroke:#F4CE83;stroke-width:4.6143;stroke-linecap:round;stroke-linejoin:round;stroke-miterlimit:10;}
	.st4{fill:none;stroke:#CB9248;stroke-width:2.3072;stroke-linecap:round;stroke-linejoin:round;stroke-miterlimit:10;}
	.st5{fill:none;stroke:#6D2400;stroke-width:2.3072;stroke-linecap:round;stroke-linejoin:round;stroke-miterlimit:10;}
	.st6{fill:#003E4E;}
	.st7{opacity:0.2;}
	.st8{fill:url(#SVGID_1_);}
	.st9{fill:url(#SVGID_2_);}
	.st10{fill:url(#SVGID_3_);}
	.st11{opacity:0.5;fill:url(#SVGID_4_);}
	.st12{opacity:0.75;}
</style>
<g>
	<g>
		<path class="st0" d="M6.1,10.5c0,0.5-0.1,1-0.3,1.5c0.2,0.1,0.4,0.3,0.4,0.4c0,0.4-0.2,0.7-0.3,1c-0.1,0.1-0.1,0.1-0.1,0.1
			l-0.5-0.3c-0.5,0.8-1.3,1.8-2.5,2.3c-0.4,0.2-0.9,0.4-1.5,0.4c-0.3,0-0.4-0.1-0.4-0.1c0-0.1,0.2-0.2,0.6-0.4
			c0.9-0.5,2.5-1.8,3.1-2.5c-0.5-0.3-1.1-0.7-1.1-1.4c0-0.4,0.2-0.9,0.6-1.3c0.4-0.5,0.8-0.8,1.2-0.8C5.9,9.3,6,10,6.1,10.5z
			 M4.3,11C4.2,11,4.2,11,4.3,11c0,0.2,0.4,0.5,0.8,0.7c0.1-0.2,0.1-0.4,0.1-0.7c0-0.3-0.1-0.4-0.3-0.4C4.6,10.6,4.4,10.7,4.3,11z"
			/>
		<path class="st0" d="M12.5,2.8c0.7,0,1.7,1,1.7,2.1c0,0.4-0.1,0.8-0.2,1.2c-0.3,0.8-0.9,1.3-1.8,1.3c-0.8,0-1.3-0.6-1.3-1.3
			C10.8,5,12,2.8,12.5,2.8z M12.3,4.4c-0.3,0-0.7,0.6-0.7,1c0,0.3,0.4,0.6,0.8,0.6c0.5,0,1.1-0.3,1.1-0.5
			C13.5,5.3,12.8,4.4,12.3,4.4z"/>
		<path class="st0" d="M9.9,11.3c0.9-0.9,1.6-1.3,2.6-1.9c3-1.7,7.5-3.3,8.2-3.5c0.1,0,0.1,0,0.1,0c0.1,0,0.1,0,0.1,0.1
			c0,0.3-0.5,1.3-0.7,1.6c-0.1,0.1-0.1,0.1-0.2,0.2c-1,0.4-4.8,1.8-8,3.5c-0.4,0.2-0.7,0.4-1,0.6c0.9,0.5,1.5,1,2,1.4
			c1.5,1.2,3.9,3.5,4.7,4.3c1.6,1.7,2.6,2.2,3,2.2h0.3c0.6,0,0.9,0.4,0.9,1.1c0,0.8-0.3,1.1-1,1.1h-0.3c-0.7,0-1.5-0.3-2.3-1
			c-0.5-0.4-1.3-1.1-2.2-2.1c-0.3-0.3-0.6-0.6-0.8-0.8c-0.1,1.2-0.6,2.1-1.3,2.7c-0.9,0.5-1.9,0.8-2.9,1c-0.7,0.1-1.2,0.2-1.8,0.2
			c-1,0-2-0.2-2.5-0.5c0.1,0.3,0.1,0.6,0.1,0.8c0,1.2-0.5,2.2-1,2.4c0,0-0.1,0-0.1,0c-0.3,0-0.7-0.4-0.9-0.6c-1-1-1.4-2.3-1.4-3.7
			C2.9,20.7,1.5,21,1,21.8c0,0,0,0.1,0,0.2c0,1.2,1.3,6.5,1.3,8.9c0,0.2,0,0.5,0,0.7c-0.1,0.6-0.2,1.1-0.4,1.5
			c-0.1,0.4-0.3,0.6-0.4,0.6c-0.1,0-0.2-0.2-0.2-0.7c0-1.3-0.2-2.6-0.4-4c-0.3-1.8-0.6-3.7-0.9-5.1c0-0.2,0-0.5,0-0.8
			c0-2.4,1.5-4.6,4-4.9c0.1-0.3,0.2-0.7,0.5-0.7c0.2,0,0.4,0.1,0.7,0.5c0.5,0.5,1.2,1,2.4,1.4c0.9,0.2,1.7,0.3,2.5,0.3
			c0.6,0,1.6-0.1,2.6-0.3c1-0.2,1.7-0.5,2-0.8c0-0.5-0.4-1.3-1.2-2.2c-0.8-1-1.8-1.7-2.9-2.3c-0.4-0.2-0.7-0.4-0.8-0.6
			c-0.2-0.3-0.2-0.6-0.2-1C9.6,12.1,9.7,11.5,9.9,11.3z"/>
		<path class="st0" d="M24.5,8.7c0,0.5-0.1,1-0.3,1.5c0.2,0.1,0.4,0.3,0.4,0.4c0,0.4-0.2,0.7-0.3,1c-0.1,0.1-0.1,0.1-0.1,0.1
			l-0.5-0.3c-0.5,0.8-1.3,1.8-2.5,2.3c-0.4,0.2-0.9,0.4-1.5,0.4c-0.3,0-0.4-0.1-0.4-0.1c0-0.1,0.2-0.2,0.6-0.4
			c0.9-0.5,2.5-1.8,3.1-2.5c-0.5-0.3-1.1-0.7-1.1-1.4c0-0.4,0.2-0.9,0.6-1.3c0.4-0.5,0.8-0.8,1.2-0.8C24.3,7.4,24.4,8.1,24.5,8.7z
			 M22.7,9.1C22.6,9.1,22.6,9.2,22.7,9.1c0,0.2,0.4,0.5,0.8,0.7c0.1-0.2,0.1-0.4,0.1-0.7c0-0.3-0.1-0.4-0.3-0.4
			C23,8.7,22.8,8.8,22.7,9.1z"/>
		<path class="st0" d="M26.8,0c0.7,0,1.7,1,1.7,2.1c0,0.4-0.1,0.8-0.2,1.2c-0.3,0.8-0.9,1.3-1.8,1.3c-0.8,0-1.3-0.6-1.3-1.3
			C25.1,2.2,26.3,0,26.8,0z M26.6,1.6c-0.3,0-0.7,0.6-0.7,1c0,0.3,0.4,0.6,0.8,0.6c0.5,0,1.1-0.3,1.1-0.5
			C27.8,2.4,27.1,1.6,26.6,1.6z"/>
		<path class="st0" d="M27.7,12.6c0,0.6-0.1,1.1-0.2,1.4c-0.1,0.4-0.2,0.7-0.3,1c-0.1,0.3-0.4,0.6-0.9,1c0.9,0.2,1.8,0.5,2.8,0.8
			c1.1,0.3,2,0.6,2.6,0.7c0.6,0.2,1.4,0.2,2.4,0.3l1.7,0.1c0.2,0,0.2,0.1,0.2,0.2c-0.3,0.4-0.7,0.9-1.3,1.6
			c-0.1,0.2-0.2,0.2-0.4,0.2c-0.2,0-1.3-0.2-2.9-0.2c-0.8,0-1.5,0.1-2.3,0.3c-0.7,0.2-1.7,0.5-2.8,0.9c-1.1,0.4-2.1,0.7-2.7,0.9
			c-0.6,0.2-1.5,0.3-2.4,0.3h-0.2c-0.7,0-1-0.4-1-1.2c0-0.8,0.3-1.1,1-1.1H21c2.5,0,4.7-0.4,6.7-1c-0.2-0.2-0.9-0.4-2.3-0.8
			c-1.3-0.4-2.4-0.6-3.1-0.6c-0.2,0-0.2,0-0.2-0.1c0-0.3,0.4-0.8,1.3-1.6c0.1-0.1,0.2-0.2,0.3-0.2c0.2-0.1,0.5-0.2,0.9-0.3
			c0.3-0.1,0.7-0.2,1.3-0.5c0.6-0.2,0.8-0.5,0.8-0.8L26,9.7C26,9.3,25.7,8.4,25.7,8c0-0.1,0-0.2,0-0.3c0,0,0-0.1,0-0.2
			c0-0.1,0.1-0.4,0.4-0.9c0.2-0.5,0.6-1,0.8-1c0.1,0,0.1,0.1,0.2,0.2c0.3,0.9,0.6,1.4,0.8,1.8c0,0.1,0.1,0.2,0.1,0.2
			c0,0.1,0,0.1,0,0.2c-0.1,0.2-0.3,0.7-0.5,1C27.5,10.3,27.7,11.6,27.7,12.6z"/>
		<path class="st0" d="M39.5,22.1c-0.1,0-0.2-0.2-0.2-0.7c0-3-1.1-11.3-1.1-12.7c0-0.7,0.5-1.7,0.9-2.5c0.1-0.2,0.3-0.5,0.5-0.5
			c0.1,0,0.2,0.2,0.2,0.8c0.1,2.2,0.7,7.3,0.7,11c0,1.5-0.1,2.7-0.4,3.5C39.9,21.7,39.7,22.1,39.5,22.1z"/>
		<path class="st0" d="M53.2,22.1c-0.7,0-1.2-0.1-1.7-0.5c-0.7-0.6-1.1-1.7-1.3-3.1c-0.2-1.1-0.2-2.3-0.3-3.7
			c-0.1-2-0.2-5.1-0.5-6.9c0-0.1,0-0.2,0-0.2c0-0.1,0-0.2,0.2-0.4c0.3-0.5,0.5-0.8,0.7-1.2c0.2-0.3,0.2-0.3,0.3-0.3
			c0.1,0,0.2,0.2,0.3,0.7c0.4,3.5,0.1,8.4,0.6,11.1c0.1,0.7,0.2,0.9,0.4,1.3c0.3,0.6,0.7,0.9,1.4,1c0.8,0,1.2,0.4,1.2,1.1
			c0,0.9-0.4,1.2-1.1,1.2H53.2z"/>
		<path class="st0" d="M63.4,18.6c0,1.6-0.8,2.6-1.7,2.6c-0.3,0-1-0.1-1.6-0.3c-0.8-0.2-1.5-0.5-2.4-0.6c-1.7,1.2-3.1,1.9-4.4,1.9
			h-0.2c-0.7,0-1-0.4-1-1.1c0-0.8,0.3-1.1,1-1.1h0.2c0.6,0,1.3-0.2,2.2-0.5c-0.2-0.3-0.3-0.7-0.3-1.2c0-1.2,0.6-2.7,1.1-3.4
			c-0.1-0.1-0.2-0.4-0.2-0.6c0-0.3,0.1-1.1,0.4-1.6c0.1-0.3,0.3-0.5,0.6-0.5C58.8,11.9,63.3,15.2,63.4,18.6z M59.2,17.1
			c0-0.9-1.2-1.9-1.5-1.9c-0.2,0-0.5,0.2-0.9,0.5c-0.4,0.4-0.7,0.8-0.7,1c0.1,1,1,1.2,1.7,1.3C58,18,59.2,17.5,59.2,17.1z
			 M62.6,19.4C62.6,19.4,62.6,19.3,62.6,19.4c-0.1-1.1-1.2-2.6-2.6-3.3c0,1.4-0.7,2.3-0.7,2.3C60.7,18.7,61.7,19.4,62.6,19.4z"/>
		<path class="st0" d="M73.4,4.7c0.1-0.1,0.1,0,0.1,0.1c0,0.6-0.2,1.1-0.5,1.3l-4.1,2.3c-0.1,0-0.1,0-0.1-0.1c0-0.3,0.1-0.8,0.2-1
			c0.1-0.2,0.3-0.3,0.7-0.5L73.4,4.7z"/>
		<path class="st0" d="M75.1,19.8h0.3c0.7,0,1,0.4,1,1.1c0,0.8-0.4,1.2-1,1.2h-0.3c-0.8,0-1.4-0.3-1.8-0.7c-0.5-0.4-0.8-1-1.1-1.9
			c-0.3,1.6-2.2,2.6-4.6,2.6c-0.7,0-1.5-0.1-2.1-0.5c-0.4-0.3-0.7-0.6-0.7-1.1c0-0.5,0.1-1.3,0.4-1.9c0.1-0.2,0.2-0.3,0.3-0.3
			c0.1,0,0.2,0.1,0.3,0.3c0.2,0.7,1.2,1,2.3,1c2.1,0,3.1-0.5,3.6-1.3c0-0.2,0.1-0.4,0.1-0.7c0-1.3-0.4-2.9-0.7-4.4
			c0-0.2-0.1-0.3-0.1-0.5c0-0.1,0.1-0.4,0.5-1.4c0.2-0.4,0.3-0.6,0.4-0.6c0.1,0,0.2,0.2,0.3,0.6c0.8,3.3,0.8,5.6,1.2,7
			c0.1,0.4,0.2,0.6,0.5,0.9C74.3,19.6,74.7,19.8,75.1,19.8z"/>
		<path class="st0" d="M78.4,4.9c0.7,0,1.7,1,1.7,2.1c0,0.4-0.1,0.8-0.2,1.2c-0.3,0.8-0.9,1.3-1.8,1.3c-0.8,0-1.3-0.6-1.3-1.3
			C76.7,7.1,77.9,4.9,78.4,4.9z M78.2,6.5c-0.3,0-0.7,0.6-0.7,1c0,0.3,0.4,0.6,0.8,0.6c0.5,0,1.1-0.3,1.1-0.5
			C79.4,7.4,78.8,6.5,78.2,6.5z"/>
		<path class="st0" d="M79.9,18.4c0,0.6,0.6,1.2,1.4,1.4c0.2,0,0.3,0,0.5,0h0.1c0.9,0,0.9,0.7,0.9,1c0,0.3,0,1.3-0.8,1.3h-0.2
			c-0.2,0-0.3,0-0.6,0c-1.5-0.2-2.1-1.5-2.2-1.7c-0.2,0.6-1.5,1.7-3.7,1.7h-0.1c-0.6,0-1-0.6-1-1.1c0-0.6,0.3-1.1,1-1.1h0.7
			c1,0,2.4-0.2,3.3-1.6c0.3-0.5,0.4-0.5,0.5-0.5C79.8,17.7,79.9,17.9,79.9,18.4z M80.8,12.6c0.1,0.1,0.1,0.1,0,0.2
			c-0.2,0.3-1.1,1.2-1.4,1.7c-0.1,0.1-0.1,0.1-0.2,0c-0.5-0.3-1.5-1-1.7-1.4c-0.1-0.1-0.1-0.1,0-0.2c0.3-0.5,0.9-1.2,1.3-1.6
			C78.8,11,78.9,11,79,11C79.3,11.5,80.1,12.1,80.8,12.6z"/>
		<path class="st0" d="M89.1,23.9c0.1-0.1,0.1,0,0.1,0.1c0,0.6-0.2,1.1-0.5,1.3l-4.1,2.3c-0.1,0-0.1,0-0.1-0.1c0-0.3,0.1-0.8,0.2-1
			c0.1-0.2,0.3-0.3,0.7-0.5L89.1,23.9z"/>
		<path class="st0" d="M83.2,17.6c0-0.5,0.2-1.7,0.6-2.5c0.7-1.5,1.9-2.2,2.9-2.2c0.7,0,2.1,0.4,2.8,1c0.3,0.2,0.3,0.4,0.3,0.5
			c0,0.1-0.1,0.1-0.2,0.1c-0.4,0-1-0.1-1.6-0.1c-1.1,0-3.6,1-3.7,1.7c0.1,0.4,1.3,2.3,3.3,2.3h0.1c1.2-0.5,2.7-1.1,3.7-1.6
			c0.4-0.2,0.7-0.3,0.8-0.3c0.1,0,0.1,0,0.1,0.1c0,0.2-0.5,1.2-0.8,1.7c-0.1,0.1-0.2,0.3-0.4,0.4c-0.7,0.4-1.8,0.9-3.2,1.6
			c-1.5,0.7-4.6,1.8-5.9,1.8h-0.2c-0.7,0-1-0.4-1-1.1c0-0.8,0.4-1.1,1.1-1.1H82c0.2,0,1.2-0.1,2.1-0.3C83.6,19,83.2,18.4,83.2,17.6z
			"/>
		<path class="st0" d="M114.6,14.7c-0.7,0-1.1-0.7-1.1-1.5c0-0.2,0-0.5,0.1-0.8c0.1-0.2,0.2-0.8,0.5-0.8c0.1,0,0.2,0.2,0.2,0.6v0.3
			c0,0.3,0.2,0.5,0.6,0.5h0c0.5,0,0.8-0.3,0.9-1c0.1-0.3,0.2-1.1,0.6-1.1c0.1,0,0.2,0.2,0.2,0.5c0,0.2,0.1,0.3,0.4,0.3
			c0.5,0,0.8-0.3,0.9-0.8c0.1-0.7,0.2-0.8,0.4-0.8c0.2,0,0.3,0.7,0.3,1.1c0,0.3,0,0.6-0.2,1c-0.2,0.7-0.7,1.2-1.5,1.2
			c-0.2,0-0.4-0.1-0.5-0.1c-0.1-0.1-0.1,0-0.2,0.1C115.9,14.2,115.4,14.7,114.6,14.7z M118.5,7.8C118.6,7.8,118.6,7.9,118.5,7.8
			c0,0.5-0.2,0.9-0.4,1.2c-0.1,0.1-0.2,0.2-0.5,0.3l-4,1.9c0,0-0.1,0-0.1-0.1c0-0.2,0.1-0.5,0.2-0.7c0.2-0.3,0.2-0.4,0.3-0.5
			c0.1-0.1,0.2-0.1,0.3-0.2L118.5,7.8z"/>
		<path class="st0" d="M105.3,27.1c2.8,0,7.2-2.1,7.7-2.8c-0.8-0.8-3.1-1.5-4.4-1.5c-0.3,0-0.4-0.2-0.4-0.5c0-0.5,0.4-1.3,0.5-1.3
			l0.5-0.1c6.2-1,7.2-4.6,8.4-4.6c0.2,0,0.3,0.1,0.6,0.4c1.1,1.5,2.9,2.9,4.5,3.1h0.3c0.7,0,1,0.4,1,1.1c0,0.8-0.4,1.2-1,1.2h-0.3
			c-1.1,0-2.3-0.8-2.5-0.9c-0.2,0.7-1,1.5-1.3,1.5c-0.1,0-0.2,0-0.4-0.1c-1.1-0.2-3.3-1.2-4-2.4c-0.3,0.3-0.6,0.6-0.8,0.8
			c-0.3,0.2-0.8,0.4-1.5,0.7c0.6,0.2,0.9,0.4,1.2,0.5c0.8,0.5,0.9,1,0.9,1.5c0,2.8-5.9,5.7-9.2,5.7c-2.2,0-5.3-0.9-5.3-4.7
			c0-1.8,0.7-3.9,1.5-5.2c0.2-0.4,0.5-0.6,0.7-0.6c0.2,0,0.1,0.4-0.1,0.8c-0.6,1.3-1,2.3-1,3.5C100.5,25.8,102.6,27.1,105.3,27.1z
			 M117,18.4c-0.1,0-0.2,0-0.4,0.2c-0.3,0.2-0.4,0.3-0.4,0.5c0,0.1,0.1,0.1,0.2,0.2c0.4,0.2,1.8,0.9,2.1,1.1
			c0.2,0.1,0.3,0.1,0.4,0.1c0.1,0,0.1-0.1,0.1-0.1c0-0.1-0.2-0.3-0.2-0.3C118.5,19.6,117.7,18.4,117,18.4z"/>
		<path class="st0" d="M132.4,10.2c0.1-0.1,0.1,0,0.1,0.1c0,0.6-0.2,1.1-0.5,1.3l-4.1,2.3c-0.1,0-0.1,0-0.1-0.1c0-0.3,0.1-0.8,0.2-1
			c0.1-0.2,0.3-0.3,0.7-0.5L132.4,10.2z"/>
		<path class="st0" d="M131.5,17.5c0.1,0,0.2,0.1,0.2,0.5c0,0.1,0,0.3,0,0.5c0,0.7,0.5,1.1,1.2,1.1c1,0,1.5-1,1.9-1.8
			c0-0.1,0.2-0.4,0.3-0.4c0.1,0,0.2,0.1,0.2,0.6c0.1,1.1,0.7,1.7,1.5,1.7h0.3c0.7,0,1.1,0.3,1.1,1c0,0.8-0.4,1.3-1.1,1.3h-0.3
			c-1.3,0-2-0.6-2.2-1.9c-0.3,0.9-1.2,2-2.3,2c-1.1,0-1.6-0.9-1.7-1.9c-0.4,1.1-1.5,1.9-2.7,1.9c-1.2,0-2-0.4-2.3-1.6
			c-0.2,0.4-0.4,0.8-0.8,1.1c-0.4,0.3-1.1,0.5-2.1,0.5h-0.2c-0.7,0-1-0.4-1-1.2c0-0.7,0.3-1.1,1-1.1h0.3c1.6,0,2.6-0.6,3.2-1.7
			c0-0.1,0.2-0.3,0.3-0.3c0.2,0,0.2,0.2,0.2,0.5c0,0.9,0.8,1.3,1.8,1.3c1.2,0,2.1-0.5,2.8-1.7C131.2,17.7,131.4,17.5,131.5,17.5z"/>
		<path class="st0" d="M140,5.5c0,0.5-0.1,1-0.3,1.5c0.2,0.1,0.4,0.3,0.4,0.4c0,0.4-0.2,0.7-0.3,1c-0.1,0.1-0.1,0.1-0.1,0.1
			l-0.5-0.3c-0.5,0.8-1.3,1.8-2.5,2.3c-0.4,0.2-0.9,0.4-1.5,0.4c-0.3,0-0.4-0.1-0.4-0.1c0-0.1,0.2-0.2,0.6-0.4
			c0.9-0.5,2.5-1.8,3.1-2.5c-0.5-0.3-1.1-0.7-1.1-1.4c0-0.4,0.2-0.9,0.6-1.3c0.4-0.5,0.8-0.8,1.2-0.8C139.8,4.2,139.9,4.9,140,5.5z
			 M138.2,5.9C138.2,6,138.1,6,138.2,5.9c0,0.2,0.4,0.5,0.8,0.7c0.1-0.2,0.1-0.4,0.1-0.7c0-0.3-0.1-0.4-0.3-0.4
			C138.6,5.5,138.3,5.7,138.2,5.9z"/>
		<path class="st0" d="M138.7,23.3c0.2-0.2,0.2-0.2,0.3-0.1c0.5,0.5,1,1.1,1.5,1.4c0.2,0.1,0.2,0.2,0,0.3c-0.5,0.5-0.9,1-1.3,1.5
			c-0.1,0.1-0.2,0.1-0.3,0c-0.4-0.3-0.9-0.7-1.4-1.2c-0.3,0.3-0.9,1-1.1,1.2c-0.1,0.1-0.2,0.2-0.4,0c-0.5-0.3-1.1-0.9-1.5-1.4
			c-0.1-0.1-0.1-0.2,0-0.3c0.4-0.5,0.9-1,1.4-1.5c0.1-0.1,0.2-0.1,0.3,0.1c0.4,0.4,1,1,1.4,1.2C137.9,24.1,138.5,23.5,138.7,23.3z
			 M139.6,20.2c-0.4,0.9-0.9,1.8-2.6,1.8c-0.9,0-1.2-0.5-1.2-1.1c0-0.5,0.4-1.1,1.2-1.1h0c0.5,0,1.8-0.8,1.8-1.6v-0.1
			c-0.1-1.8-0.7-2.3-1.6-3.8c-0.1-0.1-0.1-0.2-0.1-0.3c0-0.3,0.2-1.2,0.6-1.8c0.1-0.2,0.2-0.2,0.3-0.2c0.1,0,0.1,0,0.2,0.1
			c1.3,1.3,1.8,3.8,1.8,5.6C140,18.6,139.8,19.7,139.6,20.2z"/>
		<path class="st0" d="M149,9.7c0.1-0.1,0.1,0,0.1,0.1c0,0.6-0.2,1.1-0.5,1.3l-4.1,2.3c-0.1,0-0.1,0-0.1-0.1c0-0.3,0.1-0.8,0.2-1
			c0.1-0.2,0.3-0.3,0.7-0.5L149,9.7z"/>
		<path class="st0" d="M149.7,17.9c0.3,0.9,0.5,1.8,0.5,3.1c0,4-1.1,6.5-4.2,7.7c-0.2,0.1-0.4,0.1-0.6,0.1c-1,0-2.6-0.5-4-1.1
			c-0.3-0.2-0.4-0.3-0.4-0.4c0-0.1,0.1-0.2,0.4-0.2c0.2,0,1.1,0.2,1.8,0.2c0.9,0,1.9-0.4,3.3-1.3c1.5-1,2.8-2.3,2.8-3.8
			c0-0.5-0.1-1-0.4-1.5c-0.3,0.7-0.8,1.1-1.5,1.1c-1.3,0-2.1-0.7-2.1-2.1c0-0.5,0.3-1.3,0.6-2.1c0.5-1,1.2-1.9,1.8-1.9
			C148.4,15.7,149.2,16.6,149.7,17.9z M147.2,18c-0.3,0-0.5,0.2-0.7,0.5c-0.1,0.1-0.2,0.4-0.2,0.5c0,0.4,0.6,0.6,1.1,0.6
			c0.4,0,0.7-0.2,0.8-0.4C148.2,18.4,147.5,18,147.2,18z"/>
		<path class="st0" d="M161.7,20.8c0.2,0.3,0.3,0.6,0.3,1.1c0,0.5-0.2,0.9-0.5,1.1c-0.3,0.2-0.6,0.3-1,0.3c-0.6,0-1.2-0.4-1.5-1.1
			c-0.3-0.7-0.4-1.3-0.4-2c0-0.8,0.2-1.6,0.5-2.3c0.3-0.7,0.6-1.2,1-1.7c0.4-0.4,0.6-0.7,0.8-0.7c0.3,0,0.1,0.4-0.2,0.8
			c-0.8,1.1-1.1,2.1-1.1,3.2c0,0.6,0.1,0.7,0.2,1c0.3-0.1,0.6-0.2,0.8-0.2C161,20.3,161.4,20.5,161.7,20.8z"/>
		<path class="st0" d="M170.4,23.9c0.1-0.1,0.1,0,0.1,0.1c0,0.6-0.2,1.1-0.5,1.3l-4.2,2.4c-0.1,0-0.1,0-0.1-0.1c0-0.3,0.1-0.8,0.2-1
			c0.1-0.2,0.3-0.3,0.7-0.5L170.4,23.9z M170.4,26c0.1-0.1,0.1,0,0.1,0.1c0,0.6-0.2,1.1-0.5,1.3l-4.2,2.4c-0.1,0-0.1,0-0.1-0.1
			c0-0.3,0.1-0.8,0.2-1c0.1-0.2,0.3-0.3,0.7-0.5L170.4,26z"/>
		<path class="st0" d="M168.8,8.6c0.2-0.2,0.2-0.2,0.3-0.1c0.5,0.5,1,1.1,1.5,1.4c0.2,0.1,0.2,0.2,0,0.3c-0.5,0.5-0.9,1-1.3,1.5
			c-0.1,0.1-0.2,0.1-0.3,0c-0.4-0.3-0.9-0.7-1.4-1.2c-0.3,0.3-0.9,1-1.1,1.2c-0.1,0.1-0.2,0.2-0.4,0c-0.5-0.3-1.1-0.9-1.5-1.4
			c-0.1-0.1-0.1-0.2,0-0.3c0.4-0.5,0.9-1,1.4-1.5c0.1-0.1,0.2-0.1,0.3,0.1c0.4,0.4,1,1,1.4,1.2C168,9.4,168.5,8.8,168.8,8.6z
			 M167.6,14.3c0.3,0,0.9,0.2,1.4,0.6c0.8,0.6,1.5,1.7,1.5,2.9c0,0.7-0.1,1.4-0.4,2.1c-0.5,1.4-1.6,2.2-3.1,2.2
			c-1.4,0-2.3-1.1-2.3-2.3C164.7,18.1,166.8,14.3,167.6,14.3z M169.4,18.8c-0.4-0.8-1.3-1.8-2.2-1.8c-0.1,0-0.2,0-0.2,0.1
			c-0.7,0.5-1.1,1.3-1.1,1.7c0,0.5,0.7,1,1.5,1c0.5,0,1.6-0.3,2-0.7c0-0.1,0.1-0.1,0.1-0.1C169.4,18.9,169.4,18.8,169.4,18.8z"/>
		<path class="st0" d="M180.9,4.7c0.1-0.1,0.1,0,0.1,0.1c0,0.6-0.2,1.1-0.5,1.3l-4.1,2.3c-0.1,0-0.1,0-0.1-0.1c0-0.3,0.1-0.8,0.2-1
			c0.1-0.2,0.3-0.3,0.7-0.5L180.9,4.7z"/>
		<path class="st0" d="M182.5,19.8h0.3c0.7,0,1,0.4,1,1.1c0,0.8-0.4,1.2-1,1.2h-0.3c-0.8,0-1.4-0.3-1.8-0.7c-0.5-0.4-0.8-1-1.1-1.9
			c-0.3,1.6-2.2,2.6-4.6,2.6c-0.7,0-1.5-0.1-2.1-0.5c-0.4-0.3-0.7-0.6-0.7-1.1c0-0.5,0.1-1.3,0.4-1.9c0.1-0.2,0.2-0.3,0.3-0.3
			c0.1,0,0.2,0.1,0.3,0.3c0.2,0.7,1.2,1,2.3,1c2.1,0,3.1-0.5,3.6-1.3c0-0.2,0.1-0.4,0.1-0.7c0-1.3-0.4-2.9-0.7-4.4
			c0-0.2-0.1-0.3-0.1-0.5c0-0.1,0.1-0.4,0.5-1.4c0.2-0.4,0.3-0.6,0.4-0.6c0.1,0,0.2,0.2,0.3,0.6c0.8,3.3,0.8,5.6,1.2,7
			c0.1,0.4,0.2,0.6,0.5,0.9C181.7,19.6,182.1,19.8,182.5,19.8z"/>
		<path class="st0" d="M191.9,22.8c0.1-0.1,0.1,0,0.1,0.1c0,0.6-0.2,1.1-0.5,1.3l-4.1,2.3c-0.1,0-0.1,0-0.1-0.1c0-0.3,0.1-0.8,0.2-1
			c0.1-0.2,0.3-0.3,0.7-0.5L191.9,22.8z"/>
		<path class="st0" d="M185.6,16.8c-0.2,0-0.5,0-0.6,0.1c-0.2,0.1-0.6,0.3-0.8,0.3c-0.2,0-0.2-0.1-0.2-0.2c0-0.4,0.6-1.3,1.2-1.8
			c0.5-0.4,1-0.6,1.4-0.6c0.2,0,0.3,0,0.5,0.1c1.8,0.4,4.1,1.4,6,1.8c1.3,0.3,2.6,0.4,3.4,0.4c0.2,0,0.3,0,0.5,0
			c0.1,0,0.1,0,0.1,0.1c0,0.4-0.7,1.5-1.1,1.9c-0.1,0.1-0.3,0.1-0.6,0.1c-0.5,0-1.6-0.1-1.9-0.1c-0.9,0-1.6,0.1-2.2,0.3
			c-0.4,0.2-1.2,0.5-2.3,1c-1.7,0.8-2.8,1.4-3.6,1.7c-0.8,0.3-1.6,0.5-2.5,0.5h-0.3c-0.7,0-1.1-0.4-1.1-1.2c0-0.7,0.4-1.1,1.1-1.1
			h0.3c1.4,0,2.5-0.1,3.4-0.4c0.9-0.3,2.3-0.7,4-1.4C188.2,17.4,186.6,16.8,185.6,16.8z"/>
		<path class="st0" d="M200.9,22.1c-0.1,0-0.2-0.2-0.2-0.7c0-3-1.1-11.3-1.1-12.7c0-0.7,0.5-1.7,0.9-2.5c0.1-0.2,0.3-0.5,0.5-0.5
			c0.1,0,0.2,0.2,0.2,0.8c0.1,2.2,0.7,7.3,0.7,11c0,1.5-0.1,2.7-0.4,3.5C201.3,21.7,201.1,22.1,200.9,22.1z"/>
		<path class="st0" d="M210.1,17.9c0.3,0.9,0.5,1.8,0.5,3.1c0,4-1.1,6.5-4.2,7.7c-0.2,0.1-0.4,0.1-0.6,0.1c-1,0-2.6-0.5-4-1.1
			c-0.3-0.2-0.4-0.3-0.4-0.4c0-0.1,0.1-0.2,0.4-0.2c0.2,0,1.1,0.2,1.8,0.2c0.9,0,1.9-0.4,3.3-1.3c1.5-1,2.8-2.3,2.8-3.8
			c0-0.5-0.1-1-0.4-1.5c-0.3,0.7-0.8,1.1-1.5,1.1c-1.3,0-2.1-0.7-2.1-2.1c0-0.5,0.3-1.3,0.6-2.1c0.5-1,1.2-1.9,1.8-1.9
			C208.7,15.7,209.6,16.6,210.1,17.9z M207.5,18c-0.3,0-0.5,0.2-0.7,0.5c-0.1,0.1-0.2,0.4-0.2,0.5c0,0.4,0.6,0.6,1.1,0.6
			c0.4,0,0.7-0.2,0.8-0.4C208.5,18.4,207.8,18,207.5,18z"/>
		<path class="st0" d="M223.1,22.9c0.1-0.1,0.1,0,0.1,0.1c0,0.6-0.2,1.1-0.5,1.3l-4.2,2.4c-0.1,0-0.1,0-0.1-0.1c0-0.3,0.1-0.8,0.2-1
			c0.1-0.2,0.3-0.3,0.7-0.5L223.1,22.9z M223.1,25c0.1-0.1,0.1,0,0.1,0.1c0,0.6-0.2,1.1-0.5,1.3l-4.2,2.4c-0.1,0-0.1,0-0.1-0.1
			c0-0.3,0.1-0.8,0.2-1c0.1-0.2,0.3-0.3,0.7-0.5L223.1,25z"/>
		<path class="st0" d="M221.7,6.9c0.2-0.2,0.2-0.2,0.3-0.1c0.5,0.5,1,1.1,1.5,1.4c0.2,0.1,0.2,0.2,0,0.3c-0.5,0.5-0.9,1-1.3,1.5
			c-0.1,0.1-0.2,0.1-0.3,0c-0.4-0.3-0.9-0.7-1.4-1.2c-0.3,0.3-0.9,1-1.1,1.2c-0.1,0.1-0.2,0.2-0.4,0c-0.5-0.3-1.1-0.9-1.5-1.4
			c-0.1-0.1-0.1-0.2,0-0.3c0.4-0.5,0.9-1,1.4-1.5c0.1-0.1,0.2-0.1,0.3,0.1c0.4,0.4,1,1,1.4,1.2C221,7.8,221.5,7.2,221.7,6.9z
			 M224.7,19.3c0.5,0.3,0.9,0.5,1.2,0.5h0.3c0.7,0,1.1,0.4,1.1,1.1c0,0.8-0.4,1.2-1.1,1.2h-0.3c-0.8,0-1.5-0.3-2.3-0.9
			c-0.7-0.6-1.2-1.6-1.4-3c-0.2,0.4-0.4,0.7-0.8,1c-0.6,0.4-1.6,0.6-2.6,0.6c-0.7,0-1.4-0.1-1.4-0.7c0.3-2.2,0.6-2.6,1.7-3.4
			c0.5-0.4,1.8-1.2,2.3-1.6c0-0.2,0-0.4,0-0.5c0-0.5,0.1-0.8,0.4-1.2c0.2-0.3,0.3-0.5,0.4-0.5c0.1,0,0.2,0.2,0.2,0.5
			c0.3,2.1,0.5,3.8,0.8,4.8C223.4,18,223.9,18.8,224.7,19.3z M221.7,15.3c-0.9,0.6-2.5,1.6-2.6,1.9c0,0.2,0.3,0.2,0.7,0.2
			c0.6,0,1.5-0.2,2.2-0.5C221.9,16.3,221.9,16,221.7,15.3z"/>
		<path class="st0" d="M232,10.7c0.1-0.1,0.1,0,0.1,0.1c0,0.6-0.2,1.1-0.5,1.3l-4.1,2.3c-0.1,0-0.1,0-0.1-0.1c0-0.3,0.1-0.8,0.2-1
			c0.1-0.2,0.3-0.3,0.7-0.5L232,10.7z"/>
		<path class="st0" d="M237.6,23.6c0.1-0.1,0.1,0,0.1,0.1c0,0.6-0.2,1.1-0.5,1.3l-4.1,2.3c-0.1,0-0.1,0-0.1-0.1c0-0.3,0.1-0.8,0.2-1
			c0.1-0.2,0.3-0.3,0.7-0.5L237.6,23.6z"/>
		<path class="st0" d="M242.3,2.6c0.1-0.1,0.1,0,0.1,0.1c0,0.6-0.2,1.1-0.5,1.3l-4.1,2.3c-0.1,0-0.1,0-0.1-0.1c0-0.3,0.1-0.8,0.2-1
			c0.1-0.2,0.3-0.3,0.7-0.5L242.3,2.6z"/>
		<path class="st0" d="M237,21.7c-0.6-0.3-1-0.8-1.3-1.7c-0.1-0.3-0.2-0.8-0.3-1.4c-0.2-1.1-0.3-2.1-0.4-3.2
			c-0.5,1.4-1.1,2.4-1.6,2.8c0.2,0.4,0.3,0.9,0.3,1.4c0,0.4-0.2,0.9-0.5,1.5c-0.4,0.6-0.7,0.9-1.1,0.9c-0.5,0-1-0.2-1.6-0.5
			c-0.6-0.3-1.1-0.7-1.5-1.3c-0.7,1.3-1.7,1.8-2.9,1.8h-0.2c-0.6,0-0.9-0.4-0.9-1.2c0-0.7,0.3-1.1,0.9-1.1h0.3c1,0,1.8-0.1,2.3-0.3
			c0.5-0.2,0.8-0.6,1.2-1.2c0.4-0.6,0.7-1.1,1-1.3c0,0,0.1-0.1,0.2-0.1c1.1-0.2,2.2-0.6,3-1.4c0.8-0.7,1.2-1.4,1.2-2.2l-0.4-5.7
			c0-0.1,0-0.2,0-0.2c0.2-0.7,0.8-1.9,1.1-2c0.2,0,0.2,0.8,0.2,0.9C235.9,7,236,8,236,9c0.1,0.7,0.1,2,0.2,3.5l0.2-0.8
			c0.1-0.6,0.5-1.1,1.1-1.6c1-0.8,2.4-1.7,4.3-2.8c1.9-1.1,3.3-1.8,4.4-2.2c0.2-0.1,0.4-0.1,0.4,0c0,0.2-0.2,0.9-0.9,1.9
			c-0.1,0.1-0.1,0.2-0.3,0.2c-1,0.4-2.4,1.2-4.1,2.2c-1.9,1.1-3.2,2-4.1,2.7c3.6,1.4,5.5,3.3,5.5,5.5c0,1.1-0.2,2.1-0.7,2.9
			c-0.4,0.7-1.4,1.4-3.3,1.4C237.9,22.1,237.4,22,237,21.7z M230.2,18.6c0.2,0.3,0.5,0.5,1.1,0.8c0.5,0.3,0.9,0.4,1.2,0.4
			c-0.1-0.5-0.2-0.8-0.4-1.1c-0.3-0.3-0.6-0.5-0.9-0.5C230.6,18.2,230.3,18.4,230.2,18.6z M238.2,19.7c0.2,0,0.3,0.1,0.5,0.1
			c0.5,0,1-0.1,1.6-0.2c0.5-0.2,1-0.4,1.3-0.6c0,0,0-0.1,0-0.1c0-0.5-0.4-1.1-1.2-1.8c-0.8-0.7-2-1.4-3.5-2.1
			c-0.2-0.1-0.3-0.2-0.5-0.4c0.1,1.6,0.3,3.1,0.6,3.9C237,18.5,237.3,19.4,238.2,19.7z"/>
		<path class="st0" d="M257.9,29.4c0.2-0.2,0.2-0.2,0.3-0.1c0.5,0.5,1,1.1,1.5,1.4c0.2,0.1,0.2,0.2,0,0.3c-0.5,0.5-0.9,1-1.3,1.5
			c-0.1,0.1-0.2,0.1-0.3,0c-0.4-0.3-0.9-0.7-1.4-1.2c-0.3,0.3-0.9,1-1.1,1.2c-0.1,0.1-0.2,0.2-0.4,0c-0.5-0.3-1.1-0.9-1.5-1.4
			c-0.1-0.1-0.1-0.2,0-0.3c0.4-0.5,0.9-1,1.4-1.5c0.1-0.1,0.2-0.1,0.3,0.1c0.4,0.4,1,1,1.4,1.2C257.1,30.3,257.6,29.7,257.9,29.4z"
			/>
		<path class="st0" d="M263.5,6.6c0.1,0.1,0.1,0.1,0,0.2c-0.2,0.3-1.1,1.2-1.4,1.7c-0.1,0.1-0.1,0.1-0.2,0c-0.5-0.3-1.5-1-1.7-1.4
			c-0.1-0.1-0.1-0.1,0-0.2c0.3-0.5,0.9-1.2,1.3-1.6c0.2-0.2,0.2-0.2,0.3-0.1C262.1,5.5,262.8,6.2,263.5,6.6z"/>
		<path class="st0" d="M254.4,24.7c0.7,0.2,1.4,0.3,2.1,0.3c0.8,0,1.4-0.1,2.2-0.3c2.4-0.6,5.1-1.9,5.5-2.5
			c-0.7-0.6-2.7-1.4-4.4-1.5c-0.3,0-0.5-0.1-0.5-0.4c0-0.3,0.3-0.9,0.5-1.2c0.1-0.1,0.1-0.1,0.3-0.2c3.2-0.6,3.4-1.8,3.4-1.9
			c0-0.7-0.1-0.9-0.3-1.5c-0.4,0.5-1,1-1.8,1c-0.9,0-1.8-0.6-1.8-1.7c0-1.6,1.5-4.4,2.2-4.4c0.8,0,1.6,0.7,2.1,1.9
			c0.4,0.9,0.7,2.2,0.7,3c0,1.5-0.7,3-1.5,4.2c0.6,0.2,1.1,0.4,1.4,0.6c0.9,0.5,0.9,1.1,0.9,1.5c0,0.9-0.7,1.9-1.7,2.8
			c-2,1.7-5.4,2.9-7.6,2.9c-0.6,0-1.4-0.1-2.1-0.3c-1.7-0.5-3.2-1.7-3.2-4.5c0-1.6,0.7-3.8,1.5-5c0.2-0.4,0.5-0.6,0.7-0.6
			c0.2,0,0.1,0.4-0.1,0.8c-0.6,1.3-1,2.5-1,3.4C251.7,23.1,252.9,24.2,254.4,24.7z M261.3,12.6c-0.2,0-0.5,0.2-0.7,0.7
			c0,0.1-0.1,0.2-0.1,0.3c0,0.4,0.5,0.6,1,0.7c0.5,0,1-0.2,1-0.5C262.4,12.9,261.7,12.6,261.3,12.6z"/>
		<path class="st0" d="M278.5,6.2c0.1,0,0.4,0.4,0.4,0.5c-2.2,2-3.9,4.8-3.9,9.4c0,4.2,1.2,7.5,3.7,9.8c0,0.1-0.3,0.5-0.4,0.5
			c-1.4-0.6-5-4.3-5-10C273.3,11.6,275.7,8.1,278.5,6.2z"/>
		<path class="st0" d="M280.5,28c-0.3-0.2-0.4-0.3-0.4-0.4c0-0.1,0.2-0.2,0.4-0.2c0.3,0,1.1,0.2,1.8,0.2c0.6,0,1.2-0.2,2.1-0.6
			c2.4-1.2,3.9-3,3.9-4.2c0-0.2,0-0.3-0.1-0.7h-0.7c-0.5,0-1.5-0.1-2.2-0.5c-0.7-0.4-1-0.9-1-1.5c0-0.6,0.3-1.4,0.6-2.2
			c0.6-1.3,1.2-2.2,1.9-2.2c0.7,0,1.3,0.5,1.8,1.1c0.5,0.7,0.7,1.8,0.7,2.8h1c0.6,0,0.9,0.3,0.9,1c0,0.8-0.3,1.2-0.9,1.2l-1.1,0.1
			c-0.2,3.5-1.3,5.8-4.1,6.9c-0.2,0.1-0.4,0.1-0.6,0.1C283.5,29.1,281.9,28.6,280.5,28z M286.8,18.4c-0.1-0.1-0.3-0.2-0.6-0.2
			c-0.5,0-0.8,0.5-0.8,0.8c0,0.2,0.2,0.5,0.8,0.7c0.4,0.2,0.9,0.2,1.1,0.2c0.2,0,0.2,0,0.2-0.1C287.6,19.5,287.2,18.7,286.8,18.4z"
			/>
		<path class="st0" d="M290.2,22.1h-0.2c-0.6,0-0.9-0.4-0.9-1.1c0-0.8,0.3-1.2,1-1.2h0.2c1.6,0,2.7-0.8,3.5-1.6
			c0.8-0.8,1.4-1.6,1.9-1.6c0.2,0,0.4,0.1,0.6,0.3c0.9,1,2.9,2.9,3.8,2.9h0.1c0.7,0,1.1,0.4,1.1,1.1c0,0.8-0.4,1.2-1.1,1.2h-0.1
			c-0.9,0-1.8-0.6-1.9-0.8c-0.2,0.7-1,1.5-1.4,1.5c-0.4,0-3.3-0.9-4.2-2.2C292.3,21.5,291.2,22.1,290.2,22.1z M296,19.2
			c-0.3-0.3-0.7-0.6-1.1-0.6c-0.2,0-0.3,0.1-0.5,0.3c-0.2,0.2-0.3,0.3-0.3,0.4c0,0.2,0.3,0.3,1.2,0.8c0.4,0.2,1.3,0.6,1.5,0.6
			c0.1,0,0.1-0.1,0.1-0.1C297,20.2,296.4,19.5,296,19.2z"/>
		<path class="st0" d="M303.4,4.9c0.7,0,1.7,1,1.7,2.1c0,0.4-0.1,0.8-0.2,1.2c-0.3,0.8-0.9,1.3-1.8,1.3c-0.8,0-1.3-0.6-1.3-1.3
			C301.7,7.1,302.8,4.9,303.4,4.9z M303.1,6.5c-0.3,0-0.7,0.6-0.7,1c0,0.3,0.4,0.6,0.8,0.6c0.5,0,1.1-0.3,1.1-0.5
			C304.3,7.4,303.7,6.5,303.1,6.5z"/>
		<path class="st0" d="M304.9,18.4c0,0.6,0.6,1.2,1.4,1.4c0.2,0,0.3,0,0.5,0h0.1c0.9,0,0.9,0.7,0.9,1c0,0.3,0,1.3-0.8,1.3h-0.2
			c-0.2,0-0.3,0-0.6,0c-1.5-0.2-2.1-1.5-2.2-1.7c-0.2,0.6-1.5,1.7-3.7,1.7h-0.1c-0.6,0-1-0.6-1-1.1c0-0.6,0.3-1.1,1-1.1h0.7
			c1,0,2.4-0.2,3.3-1.6c0.3-0.5,0.4-0.5,0.5-0.5C304.8,17.7,304.9,17.9,304.9,18.4z M305.7,12.6c0.1,0.1,0.1,0.1,0,0.2
			c-0.2,0.3-1.1,1.2-1.4,1.7c-0.1,0.1-0.1,0.1-0.2,0c-0.5-0.3-1.5-1-1.7-1.4c-0.1-0.1-0.1-0.1,0-0.2c0.3-0.5,0.9-1.2,1.3-1.6
			c0.2-0.2,0.2-0.2,0.3-0.1C304.3,11.5,305,12.1,305.7,12.6z"/>
		<path class="st0" d="M311.6,9c0.1-0.1,0.1,0,0.1,0.1c0,0.6-0.2,1.1-0.5,1.3l-4.1,2.3c-0.1,0-0.1,0-0.1-0.1c0-0.3,0.1-0.8,0.2-1
			c0.1-0.2,0.3-0.3,0.7-0.5L311.6,9z"/>
		<path class="st0" d="M310.7,20.7c-0.4,0.6-1.2,1.1-2.6,1.3c-0.4,0.1-0.9,0.1-1.4,0.1c-0.6,0-1-0.6-1-1.1c0-0.6,0.3-1.1,1-1.1h0.5
			c1,0,2.6,0,3.2-0.6c-0.1-0.9-0.8-2-1.1-2.4c0,0,0,0,0-0.1c0-0.4,0.7-1.8,0.7-1.9c0-0.1,0.1-0.1,0.1-0.1c0.3,0,1.1,1.6,1.1,3.5
			C311.3,19,311.3,19.9,310.7,20.7z M311.2,23.2c0.2-0.2,0.2-0.2,0.3-0.1c0.5,0.5,1,1.1,1.5,1.4c0.2,0.1,0.2,0.2,0,0.3
			c-0.5,0.5-0.9,1-1.3,1.5c-0.1,0.1-0.2,0.1-0.3,0c-0.4-0.3-0.9-0.7-1.4-1.2c-0.3,0.3-0.9,1-1.1,1.2c-0.1,0.1-0.2,0.2-0.4,0
			c-0.5-0.3-1.1-0.9-1.5-1.4c-0.1-0.1-0.1-0.2,0-0.3c0.4-0.5,0.9-1,1.4-1.5c0.1-0.1,0.2-0.1,0.3,0.1c0.4,0.4,1,1,1.4,1.2
			C310.4,24.1,311,23.5,311.2,23.2z"/>
		<path class="st0" d="M319.1,26.4c-0.1,0-0.4-0.4-0.4-0.5c2.2-2.2,3.9-4.8,3.9-9.4c0-4.1-1.1-7.4-3.7-9.8c0-0.1,0.4-0.5,0.4-0.5
			c1.5,0.7,5,4.3,5,10C324.4,21,322,24.4,319.1,26.4z"/>
		<path class="st0" d="M337.7,23.1c0.1-0.1,0.1,0,0.1,0.1c0,0.6-0.2,1.1-0.5,1.3l-4.1,2.3c-0.1,0-0.1,0-0.1-0.1c0-0.3,0.1-0.8,0.2-1
			c0.1-0.2,0.3-0.3,0.7-0.5L337.7,23.1z"/>
		<path class="st0" d="M336.5,6.9c0.2-0.2,0.2-0.2,0.3-0.1c0.5,0.5,1,1.1,1.5,1.4c0.2,0.1,0.2,0.2,0,0.3c-0.5,0.5-0.9,1-1.3,1.5
			c-0.1,0.1-0.2,0.1-0.3,0c-0.4-0.3-0.9-0.7-1.4-1.2c-0.3,0.3-0.9,1-1.1,1.2c-0.1,0.1-0.2,0.2-0.4,0c-0.5-0.3-1.1-0.9-1.5-1.4
			c-0.1-0.1-0.1-0.2,0-0.3c0.4-0.5,0.9-1,1.4-1.5c0.1-0.1,0.2-0.1,0.3,0.1c0.4,0.4,1,1,1.4,1.2C335.7,7.8,336.3,7.2,336.5,6.9z
			 M339.5,19.3c0.5,0.3,0.9,0.5,1.2,0.5h0.3c0.7,0,1.1,0.4,1.1,1.1c0,0.8-0.4,1.2-1.1,1.2h-0.3c-0.8,0-1.5-0.3-2.3-0.9
			c-0.7-0.6-1.2-1.6-1.4-3c-0.2,0.4-0.4,0.7-0.8,1c-0.6,0.4-1.6,0.6-2.6,0.6c-0.7,0-1.4-0.1-1.4-0.7c0.3-2.2,0.6-2.6,1.7-3.4
			c0.5-0.4,1.8-1.2,2.3-1.6c0-0.2,0-0.4,0-0.5c0-0.5,0.1-0.8,0.4-1.2c0.2-0.3,0.3-0.5,0.4-0.5c0.1,0,0.2,0.2,0.2,0.5
			c0.3,2.1,0.5,3.8,0.8,4.8C338.2,18,338.7,18.8,339.5,19.3z M336.5,15.3c-0.9,0.6-2.5,1.6-2.6,1.9c0,0.2,0.3,0.2,0.7,0.2
			c0.6,0,1.5-0.2,2.2-0.5C336.7,16.3,336.6,16,336.5,15.3z"/>
		<path class="st0" d="M346.7,10.7c0.1-0.1,0.1,0,0.1,0.1c0,0.6-0.2,1.1-0.5,1.3l-4.1,2.3c-0.1,0-0.1,0-0.1-0.1c0-0.3,0.1-0.8,0.2-1
			c0.1-0.2,0.3-0.3,0.7-0.5L346.7,10.7z"/>
		<path class="st0" d="M352.3,23.6c0.1-0.1,0.1,0,0.1,0.1c0,0.6-0.2,1.1-0.5,1.3l-4.1,2.3c-0.1,0-0.1,0-0.1-0.1c0-0.3,0.1-0.8,0.2-1
			c0.1-0.2,0.3-0.3,0.7-0.5L352.3,23.6z"/>
		<path class="st0" d="M357.1,2.6c0.1-0.1,0.1,0,0.1,0.1c0,0.6-0.2,1.1-0.5,1.3l-4.1,2.3c-0.1,0-0.1,0-0.1-0.1c0-0.3,0.1-0.8,0.2-1
			c0.1-0.2,0.3-0.3,0.7-0.5L357.1,2.6z"/>
		<path class="st0" d="M351.8,21.7c-0.6-0.3-1-0.8-1.3-1.7c-0.1-0.3-0.2-0.8-0.3-1.4c-0.2-1.1-0.3-2.1-0.4-3.2
			c-0.5,1.4-1.1,2.4-1.6,2.8c0.2,0.4,0.3,0.9,0.3,1.4c0,0.4-0.2,0.9-0.5,1.5c-0.4,0.6-0.7,0.9-1.1,0.9c-0.5,0-1-0.2-1.6-0.5
			c-0.6-0.3-1.1-0.7-1.5-1.3c-0.7,1.3-1.7,1.8-2.9,1.8h-0.2c-0.6,0-0.9-0.4-0.9-1.2c0-0.7,0.3-1.1,0.9-1.1h0.3c1,0,1.8-0.1,2.3-0.3
			c0.5-0.2,0.8-0.6,1.2-1.2c0.4-0.6,0.7-1.1,1-1.3c0,0,0.1-0.1,0.2-0.1c1.1-0.2,2.2-0.6,3-1.4c0.8-0.7,1.2-1.4,1.2-2.2l-0.4-5.7
			c0-0.1,0-0.2,0-0.2c0.2-0.7,0.8-1.9,1.1-2c0.2,0,0.2,0.8,0.2,0.9c0.1,0.6,0.1,1.6,0.2,2.6c0.1,0.7,0.1,2,0.2,3.5l0.2-0.8
			c0.1-0.6,0.5-1.1,1.1-1.6c1-0.8,2.4-1.7,4.3-2.8c1.9-1.1,3.3-1.8,4.4-2.2c0.2-0.1,0.4-0.1,0.4,0c0,0.2-0.2,0.9-0.9,1.9
			c-0.1,0.1-0.1,0.2-0.3,0.2c-1,0.4-2.4,1.2-4.1,2.2c-1.9,1.1-3.2,2-4.1,2.7c3.6,1.4,5.5,3.3,5.5,5.5c0,1.1-0.2,2.1-0.7,2.9
			c-0.4,0.7-1.4,1.4-3.3,1.4C352.7,22.1,352.2,22,351.8,21.7z M344.9,18.6c0.2,0.3,0.5,0.5,1.1,0.8c0.5,0.3,0.9,0.4,1.2,0.4
			c-0.1-0.5-0.2-0.8-0.4-1.1c-0.3-0.3-0.6-0.5-0.9-0.5C345.3,18.2,345,18.4,344.9,18.6z M353,19.7c0.2,0,0.3,0.1,0.5,0.1
			c0.5,0,1-0.1,1.6-0.2c0.5-0.2,1-0.4,1.3-0.6c0,0,0-0.1,0-0.1c0-0.5-0.4-1.1-1.2-1.8c-0.8-0.7-2-1.4-3.5-2.1
			c-0.2-0.1-0.3-0.2-0.5-0.4c0.1,1.6,0.3,3.1,0.6,3.9C351.8,18.5,352.1,19.4,353,19.7z"/>
		<path class="st0" d="M379.7,23.9c0.1-0.1,0.1,0,0.1,0.1c0,0.6-0.2,1.1-0.5,1.3l-4.1,2.3c-0.1,0-0.1,0-0.1-0.1c0-0.3,0.1-0.8,0.2-1
			c0.1-0.2,0.3-0.3,0.7-0.5L379.7,23.9z"/>
		<path class="st0" d="M384.6,16.4c0,0.5-0.3,1.8-0.6,2.8c-0.3,0.7-0.4,0.8-1.2,1.2c-1.7,0.8-5.7,2-9.8,2c-5.3,0-7.4-1.8-7.4-4.3
			c0-0.9,0.4-2.4,1-3.3c0.2-0.3,0.4-0.6,0.6-0.6c0.1,0,0.1,0,0.1,0.1c0,0.1-0.1,0.3-0.1,0.5c-0.2,0.7-0.5,1.4-0.5,2
			c0,1.1,1.4,3.1,6.5,3.2c3.7,0,7.7-0.8,9.4-1.4c0.9-0.3,0.9-0.5,0.9-1.1c0-0.5-0.1-0.8-0.3-1.3c-0.2,0.5-0.9,1-1.8,1
			c-1.1,0-1.8-0.7-1.8-2c0-1.8,1.4-4.1,2-4.1C383.2,11,384.6,13.6,384.6,16.4z M379.6,8.3c0.1,0.1,0.1,0.1,0,0.2
			c-0.2,0.3-1.1,1.2-1.4,1.7c-0.1,0.1-0.1,0.1-0.2,0c-0.5-0.3-1.5-1-1.7-1.4c-0.1-0.1-0.1-0.1,0-0.2c0.3-0.5,0.9-1.2,1.3-1.6
			c0.2-0.2,0.2-0.2,0.3-0.1C378.2,7.2,378.9,7.8,379.6,8.3z M381.3,13.3c-0.3,0-0.6,0.4-0.7,0.8c0,0,0,0.1,0,0.1s0,0.1,0,0.1
			c0.1,0.3,0.5,0.5,1,0.5c0.4,0,0.8-0.2,0.9-0.3c0,0,0.1-0.1,0.1-0.1C382.6,14.2,382.2,13.3,381.3,13.3z"/>
		<path class="st0" d="M392.7,17.9c0.3,0.9,0.5,1.8,0.5,3.1c0,4-1.1,6.5-4.2,7.7c-0.2,0.1-0.4,0.1-0.6,0.1c-1,0-2.6-0.5-4-1.1
			c-0.3-0.2-0.4-0.3-0.4-0.4c0-0.1,0.1-0.2,0.4-0.2c0.2,0,1.1,0.2,1.8,0.2c0.9,0,1.9-0.4,3.3-1.3c1.5-1,2.8-2.3,2.8-3.8
			c0-0.5-0.1-1-0.4-1.5c-0.3,0.7-0.8,1.1-1.5,1.1c-1.3,0-2.1-0.7-2.1-2.1c0-0.5,0.3-1.3,0.6-2.1c0.5-1,1.2-1.9,1.8-1.9
			C391.3,15.7,392.2,16.6,392.7,17.9z M390.1,18c-0.3,0-0.5,0.2-0.7,0.5c-0.1,0.1-0.2,0.4-0.2,0.5c0,0.4,0.6,0.6,1.1,0.6
			c0.4,0,0.7-0.2,0.8-0.4C391.1,18.4,390.4,18,390.1,18z"/>
		<path class="st0" d="M403.7,19.8c0.7,0,1.1,0.4,1.1,1.1c0,0.8-0.4,1.2-1.1,1.2h-0.2c-0.6,0-1,0-1.3-0.1c0,0.1,0,0.2,0,0.3
			c0,0.7-0.1,1.5-0.4,2.1c-0.5,1.2-1.3,3.3-3.6,4.3c-0.4,0.2-0.8,0.3-1.2,0.3c-0.9,0-2.4-0.5-3.5-1c-0.3-0.2-0.4-0.3-0.4-0.4
			c0-0.1,0.1-0.2,0.4-0.2c0.3,0,0.8,0.1,1.3,0.1c3.1,0,6.2-2.7,6.6-5c0-0.5-1.1-1.6-1.3-1.9c0-0.1-0.1-0.2-0.1-0.3
			c0-0.5,0.4-1.5,0.6-1.8c0.1-0.2,0.2-0.2,0.3-0.2c0.2,0,0.3,0.2,0.6,0.7c0.4,0.6,0.9,0.9,1.8,0.9H403.7z"/>
		<path class="st0" d="M410.7,7.4c0,0.5-0.1,1-0.3,1.5c0.2,0.1,0.4,0.3,0.4,0.4c0,0.4-0.2,0.7-0.3,1c-0.1,0.1-0.1,0.1-0.1,0.1
			l-0.5-0.3c-0.5,0.8-1.3,1.8-2.5,2.3c-0.4,0.2-0.9,0.4-1.5,0.4c-0.3,0-0.4-0.1-0.4-0.1c0-0.1,0.2-0.2,0.6-0.4
			c0.9-0.5,2.5-1.8,3.1-2.5c-0.5-0.3-1.1-0.7-1.1-1.4c0-0.4,0.2-0.9,0.6-1.3c0.4-0.5,0.8-0.8,1.2-0.8C410.5,6.2,410.7,6.8,410.7,7.4
			z M408.9,7.8C408.9,7.9,408.9,7.9,408.9,7.8c0,0.2,0.4,0.5,0.8,0.7c0.1-0.2,0.1-0.4,0.1-0.7c0-0.3-0.1-0.4-0.3-0.4
			C409.3,7.4,409,7.6,408.9,7.8z"/>
		<path class="st0" d="M406.4,16.8c-0.2,0-0.5,0-0.6,0.1c-0.2,0.1-0.6,0.3-0.8,0.3c-0.2,0-0.2-0.1-0.2-0.2c0-0.4,0.6-1.3,1.2-1.8
			c0.5-0.4,1-0.6,1.4-0.6c0.2,0,0.3,0,0.5,0.1c1.8,0.4,4.1,1.4,6,1.8c1.3,0.3,2.6,0.4,3.4,0.4c0.2,0,0.3,0,0.5,0
			c0.1,0,0.1,0,0.1,0.1c0,0.4-0.7,1.5-1.1,1.9c-0.1,0.1-0.3,0.1-0.6,0.1c-0.5,0-1.6-0.1-1.9-0.1c-0.9,0-1.6,0.1-2.2,0.3
			c-0.4,0.2-1.2,0.5-2.3,1c-1.7,0.8-2.8,1.4-3.6,1.7c-0.8,0.3-1.6,0.5-2.5,0.5h-0.3c-0.7,0-1.1-0.4-1.1-1.2c0-0.7,0.4-1.1,1.1-1.1
			h0.3c1.4,0,2.5-0.1,3.4-0.4c0.9-0.3,2.3-0.7,4-1.4C409.1,17.4,407.4,16.8,406.4,16.8z"/>
		<path class="st0" d="M432.3,8.1c0.1-0.1,0.1,0,0.1,0.1c0,0.6-0.2,1.1-0.5,1.3l-4.1,2.3c-0.1,0-0.1,0-0.1-0.1c0-0.3,0.1-0.8,0.2-1
			c0.1-0.2,0.3-0.3,0.7-0.5L432.3,8.1z"/>
		<path class="st0" d="M434.8,19.9c0-0.3,0.3-1.4,0.6-2c0.1-0.1,0.1-0.2,0.2-0.2c0.1,0,0.2,0.1,0.2,0.2c0.6,1.2,1.1,1.8,1.9,1.8h0.3
			c0.7,0,1,0.4,1,1.1c0,0.8-0.3,1.2-1,1.2h-0.3c-0.4,0-0.7,0-0.9-0.1c-0.1,1.8-0.2,2.6-0.4,3c-0.3,0.9-0.8,1.7-2.1,2.6
			c-1.2,0.9-3,1.5-5.5,1.5c-2.5,0-4.4-1.7-4.4-4.5c0-1.4,0.7-3.1,1.3-3.8c0.2-0.3,0.5-0.6,0.6-0.6c0.1,0,0.1,0.1,0.1,0.2
			c0,0.2-0.1,0.4-0.2,0.7c-0.5,0.9-0.8,1.7-0.8,2.7c0,1.9,2.3,3,3.9,3c2.7,0,5.6-1,6.4-2.5c0-0.1,0.1-0.2,0.1-0.4
			c-0.1-1.9-0.3-2.6-0.9-3.7C434.8,20.1,434.8,20,434.8,19.9z M432.3,14.8c0.1,0.1,0.1,0.1,0,0.2c-0.2,0.3-1.1,1.2-1.4,1.7
			c-0.1,0.1-0.1,0.1-0.2,0c-0.5-0.3-1.5-1-1.7-1.4c-0.1-0.1-0.1-0.1,0-0.2c0.3-0.5,0.9-1.2,1.3-1.6c0.2-0.2,0.2-0.2,0.3-0.1
			C430.9,13.7,431.6,14.4,432.3,14.8z"/>
		<path class="st0" d="M445.7,24c0.1-0.1,0.1,0,0.1,0.1c0,0.6-0.2,1.1-0.5,1.3l-4.1,2.3c-0.1,0-0.1,0-0.1-0.1c0-0.3,0.1-0.8,0.2-1
			c0.1-0.2,0.3-0.3,0.7-0.5L445.7,24z"/>
		<path class="st0" d="M437.8,22.1h-0.1c-0.7,0-1-0.4-1-1.2c0-0.7,0.4-1.1,1-1.1h0.1c1.2,0,2.2-0.5,2.9-1.4l1.3-2
			c0.7-1.1,1.7-1.5,2.2-1.5c1.7,0,2.4,2.9,2.4,4.1c0,1-1.1,2.4-1.6,2.4c-0.8,0-2.8-1-3.8-1.9C440.1,21.3,439,22.1,437.8,22.1z
			 M443.1,16.9c-0.2,0-0.3,0.1-0.5,0.3c-0.1,0.1-0.2,0.3-0.3,0.5c0.5,0.3,1.9,1,2.5,1.4C444.7,18.3,443.8,16.9,443.1,16.9z"/>
		<path class="st0" d="M467.9,23.8c0.1-0.1,0.1,0,0.1,0.1c0,0.6-0.2,1.1-0.5,1.3l-4.2,2.4c-0.1,0-0.1,0-0.1-0.1c0-0.3,0.1-0.8,0.2-1
			c0.1-0.2,0.3-0.3,0.7-0.5L467.9,23.8z M467.9,25.8c0.1-0.1,0.1,0,0.1,0.1c0,0.6-0.2,1.1-0.5,1.3l-4.2,2.4c-0.1,0-0.1,0-0.1-0.1
			c0-0.3,0.1-0.8,0.2-1c0.1-0.2,0.3-0.3,0.7-0.5L467.9,25.8z"/>
		<path class="st0" d="M472.7,16.4c0,0.5-0.3,1.8-0.6,2.8c-0.3,0.7-0.4,0.8-1.2,1.2c-1.7,0.8-5.7,2-9.8,2c-5.3,0-7.4-1.8-7.4-4.3
			c0-0.9,0.4-2.4,1-3.3c0.2-0.3,0.4-0.6,0.6-0.6c0.1,0,0.1,0,0.1,0.1c0,0.1-0.1,0.3-0.1,0.5c-0.2,0.7-0.5,1.4-0.5,2
			c0,1.1,1.4,3.1,6.5,3.2c3.7,0,7.7-0.8,9.4-1.4c0.9-0.3,0.9-0.5,0.9-1.1c0-0.5-0.1-0.8-0.3-1.3c-0.2,0.5-0.9,1-1.8,1
			c-1.1,0-1.8-0.7-1.8-2c0-1.8,1.4-4.1,2-4.1C471.2,11,472.7,13.6,472.7,16.4z M467.6,8.3c0.1,0.1,0.1,0.1,0,0.2
			c-0.2,0.3-1.1,1.2-1.4,1.7c-0.1,0.1-0.1,0.1-0.2,0c-0.5-0.3-1.5-1-1.7-1.4c-0.1-0.1-0.1-0.1,0-0.2c0.3-0.5,0.9-1.2,1.3-1.6
			c0.2-0.2,0.2-0.2,0.3-0.1C466.2,7.2,466.9,7.8,467.6,8.3z M469.4,13.3c-0.3,0-0.6,0.4-0.7,0.8c0,0,0,0.1,0,0.1s0,0.1,0,0.1
			c0.1,0.3,0.5,0.5,1,0.5c0.4,0,0.8-0.2,0.9-0.3c0,0,0.1-0.1,0.1-0.1C470.6,14.2,470.2,13.3,469.4,13.3z"/>
		<path class="st0" d="M477.6,11.5c0.7,0,1.7,1,1.7,2.1c0,0.4-0.1,0.8-0.2,1.2c-0.3,0.8-0.9,1.3-1.8,1.3c-0.8,0-1.3-0.6-1.3-1.3
			C475.9,13.7,477.1,11.5,477.6,11.5z M477.3,13.1c-0.3,0-0.7,0.6-0.7,1c0,0.3,0.4,0.6,0.8,0.6c0.5,0,1.1-0.3,1.1-0.5
			C478.5,13.9,477.9,13.1,477.3,13.1z"/>
		<path class="st0" d="M481.2,19.8c0.7,0,1.1,0.4,1.1,1.1c0,0.8-0.4,1.2-1.1,1.2h-0.2c-0.6,0-1,0-1.3-0.1c0,0.1,0,0.2,0,0.3
			c0,0.7-0.1,1.5-0.4,2.1c-0.5,1.2-1.3,3.3-3.6,4.3c-0.4,0.2-0.8,0.3-1.2,0.3c-0.9,0-2.4-0.5-3.5-1c-0.3-0.2-0.4-0.3-0.4-0.4
			c0-0.1,0.1-0.2,0.4-0.2c0.3,0,0.8,0.1,1.3,0.1c3.1,0,6.2-2.7,6.6-5c0-0.5-1.1-1.6-1.3-1.9c0-0.1-0.1-0.2-0.1-0.3
			c0-0.5,0.4-1.5,0.6-1.8c0.1-0.2,0.2-0.2,0.3-0.2c0.2,0,0.3,0.2,0.6,0.7c0.4,0.6,0.9,0.9,1.8,0.9H481.2z"/>
		<path class="st0" d="M488.4,8.7c0.1-0.1,0.1,0,0.1,0.1c0,0.6-0.2,1.1-0.5,1.3l-4.1,2.3c-0.1,0-0.1,0-0.1-0.1c0-0.3,0.1-0.8,0.2-1
			c0.1-0.2,0.3-0.3,0.7-0.5L488.4,8.7z"/>
		<path class="st0" d="M483.9,16.8c-0.2,0-0.5,0-0.6,0.1c-0.2,0.1-0.6,0.3-0.8,0.3c-0.2,0-0.2-0.1-0.2-0.2c0-0.4,0.6-1.3,1.2-1.8
			c0.5-0.4,1-0.6,1.4-0.6c0.2,0,0.3,0,0.5,0.1c1.8,0.4,4.1,1.4,6,1.8c1.3,0.3,2.6,0.4,3.4,0.4c0.2,0,0.3,0,0.5,0
			c0.1,0,0.1,0,0.1,0.1c0,0.4-0.7,1.5-1.1,1.9c-0.1,0.1-0.3,0.1-0.6,0.1c-0.5,0-1.6-0.1-1.9-0.1c-0.9,0-1.6,0.1-2.2,0.3
			c-0.4,0.2-1.2,0.5-2.3,1c-1.7,0.8-2.8,1.4-3.6,1.7c-0.8,0.3-1.6,0.5-2.5,0.5h-0.3c-0.7,0-1.1-0.4-1.1-1.2c0-0.7,0.4-1.1,1.1-1.1
			h0.3c1.4,0,2.5-0.1,3.4-0.4c0.9-0.3,2.3-0.7,4-1.4C486.6,17.4,484.9,16.8,483.9,16.8z"/>
		<path class="st0" d="M509.1,8.8c0.1-0.1,0.1,0,0.1,0.1c0,0.6-0.2,1.1-0.5,1.3l-4.1,2.3c-0.1,0-0.1,0-0.1-0.1c0-0.3,0.1-0.8,0.2-1
			c0.1-0.2,0.3-0.3,0.7-0.5L509.1,8.8z"/>
		<path class="st0" d="M512,19.8c0.7,0,1,0.4,1,1.1c0,0.8-0.3,1.2-1,1.2h-0.4c-0.8,0-1.5-0.2-2.1-0.5c-0.5-0.3-1.2-0.9-2.1-1.8
			c-4,2.4-4.3,4.9-4.3,6.5c0,2.8,2,6,9.4,6c1,0,2.1-0.1,3.2-0.2c0.3,0,0.6-0.1,0.7-0.1c0.2,0,0.2,0.1,0.2,0.1c0,0.2-0.7,0.6-1,0.8
			c-1.5,0.7-3.6,1.4-6.2,1.4c-5.2,0-7.2-3.5-7.2-6.8c0-3.9,1.3-6.5,4.1-8.8c-0.5-0.7-1.7-1-2.3-1.1c-0.1,0-0.1-0.2-0.1-0.4
			c0-0.5,0.2-1.4,0.5-1.6c0.9-0.7,2-1,3-1c1.1,0,2.1,0.4,2.6,1c0.2,0.2,0.2,0.4,0.2,0.8c0,0.7-0.4,1.7-1.3,2.3
			c0.8,0.8,1.7,1.2,2.7,1.2H512z"/>
		<path class="st0" d="M519,9.1c0.1-0.1,0.1,0,0.1,0.1c0,0.6-0.2,1.1-0.5,1.3l-4.1,2.3c-0.1,0-0.1,0-0.1-0.1c0-0.3,0.1-0.8,0.2-1
			c0.1-0.2,0.3-0.3,0.7-0.5L519,9.1z"/>
		<path class="st0" d="M511.9,22.1h-0.1c-0.7,0-1-0.4-1-1.2c0-0.7,0.4-1.1,1-1.1h0.1c1.2,0,2.2-0.5,2.9-1.4l1.3-2
			c0.7-1.1,1.7-1.5,2.2-1.5c1.7,0,2.4,2.9,2.4,4.1c0,1-1.1,2.4-1.6,2.4c-0.8,0-2.8-1-3.8-1.9C514.2,21.3,513.1,22.1,511.9,22.1z
			 M517.2,16.9c-0.2,0-0.3,0.1-0.5,0.3c-0.1,0.1-0.2,0.3-0.3,0.5c0.5,0.3,1.9,1,2.5,1.4C518.8,18.3,517.9,16.9,517.2,16.9z"/>
		<path class="st0" d="M532.9,23.1c0.1-0.1,0.1,0,0.1,0.1c0,0.6-0.2,1.1-0.5,1.3l-4.1,2.3c-0.1,0-0.1,0-0.1-0.1c0-0.3,0.1-0.8,0.2-1
			c0.1-0.2,0.3-0.3,0.7-0.5L532.9,23.1z"/>
		<path class="st0" d="M531.8,6.9c0.2-0.2,0.2-0.2,0.3-0.1c0.5,0.5,1,1.1,1.5,1.4c0.2,0.1,0.2,0.2,0,0.3c-0.5,0.5-0.9,1-1.3,1.5
			c-0.1,0.1-0.2,0.1-0.3,0c-0.4-0.3-0.9-0.7-1.4-1.2c-0.3,0.3-0.9,1-1.1,1.2c-0.1,0.1-0.2,0.2-0.4,0c-0.5-0.3-1.1-0.9-1.5-1.4
			c-0.1-0.1-0.1-0.2,0-0.3c0.4-0.5,0.9-1,1.4-1.5c0.1-0.1,0.2-0.1,0.3,0.1c0.4,0.4,1,1,1.4,1.2C531,7.8,531.5,7.2,531.8,6.9z
			 M534.7,19.3c0.5,0.3,0.9,0.5,1.2,0.5h0.3c0.7,0,1.1,0.4,1.1,1.1c0,0.8-0.4,1.2-1.1,1.2h-0.3c-0.8,0-1.5-0.3-2.3-0.9
			c-0.7-0.6-1.2-1.6-1.4-3c-0.2,0.4-0.4,0.7-0.8,1c-0.6,0.4-1.6,0.6-2.6,0.6c-0.7,0-1.4-0.1-1.4-0.7c0.3-2.2,0.6-2.6,1.7-3.4
			c0.5-0.4,1.8-1.2,2.3-1.6c0-0.2,0-0.4,0-0.5c0-0.5,0.1-0.8,0.4-1.2c0.2-0.3,0.3-0.5,0.4-0.5c0.1,0,0.2,0.2,0.2,0.5
			c0.3,2.1,0.5,3.8,0.8,4.8C533.5,18,534,18.8,534.7,19.3z M531.7,15.3c-0.9,0.6-2.5,1.6-2.6,1.9c0,0.2,0.3,0.2,0.7,0.2
			c0.6,0,1.5-0.2,2.2-0.5C531.9,16.3,531.9,16,531.7,15.3z"/>
		<path class="st0" d="M541.3,6c0.1-0.1,0.1,0,0.1,0.1c0,0.6-0.2,1.1-0.5,1.3l-4.1,2.3c-0.1,0-0.1,0-0.1-0.1c0-0.3,0.1-0.8,0.2-1
			c0.1-0.2,0.3-0.3,0.7-0.5L541.3,6z"/>
		<path class="st0" d="M540.7,18.4c0,0.6,0.6,1.2,1.4,1.4c0.2,0,0.3,0,0.5,0h0.1c0.9,0,0.9,0.7,0.9,1c0,0.3,0,1.3-0.8,1.3h-0.2
			c-0.2,0-0.3,0-0.6,0c-1.5-0.2-2.1-1.5-2.2-1.7c-0.2,0.6-1.5,1.7-3.7,1.7H536c-0.6,0-1-0.6-1-1.1c0-0.6,0.3-1.1,1-1.1h0.7
			c1,0,2.4-0.2,3.3-1.6c0.3-0.5,0.4-0.5,0.5-0.5C540.6,17.7,540.7,17.9,540.7,18.4z M541.6,12.6c0.1,0.1,0.1,0.1,0,0.2
			c-0.2,0.3-1.1,1.2-1.4,1.7c-0.1,0.1-0.1,0.1-0.2,0c-0.5-0.3-1.5-1-1.7-1.4c-0.1-0.1-0.1-0.1,0-0.2c0.3-0.5,0.9-1.2,1.3-1.6
			c0.2-0.2,0.2-0.2,0.3-0.1C540.1,11.5,540.9,12.1,541.6,12.6z"/>
		<path class="st0" d="M549.1,23.9c0.1-0.1,0.1,0,0.1,0.1c0,0.6-0.2,1.1-0.5,1.3l-4.1,2.3c-0.1,0-0.1,0-0.1-0.1c0-0.3,0.1-0.8,0.2-1
			c0.1-0.2,0.3-0.3,0.7-0.5L549.1,23.9z"/>
		<path class="st0" d="M554.2,6.2c0.1,0,0.1,0,0.1,0.1c0,0.3-0.5,1.3-0.7,1.6c0,0.1-0.1,0.1-0.2,0.2c-0.7,0.2-5.9,2.3-8.2,3.8
			c2.2,1.2,4.4,3.8,4.4,5.4c0,1.6-0.5,2.7-1.3,3.5c-1.4,0.8-3.2,1.2-5.4,1.2h-0.3c-0.4,0-0.7-0.5-0.7-1.1c0-0.6,0.3-1.1,0.7-1.1h0.2
			c3,0,5.4-0.7,5.9-1.2c0-1.4-2.4-3.7-4.2-4.6c-0.3-0.1-0.5-0.3-0.7-0.5c-0.1-0.2-0.2-0.5-0.2-0.9c0-0.5,0.1-1.1,0.4-1.4
			c0.7-0.7,1.4-1.2,2.9-2c2.8-1.5,5.7-2.5,6.8-2.9C553.8,6.3,554.1,6.2,554.2,6.2z"/>
		<path class="st0" d="M559.6,22.1c-0.7,0-1.2-0.1-1.7-0.5c-0.7-0.6-1.1-1.7-1.3-3.1c-0.2-1.1-0.2-2.3-0.3-3.7
			c-0.1-2-0.2-5.1-0.5-6.9c0-0.1,0-0.2,0-0.2c0-0.1,0-0.2,0.2-0.4c0.3-0.5,0.5-0.8,0.7-1.2c0.2-0.3,0.2-0.3,0.3-0.3
			c0.1,0,0.2,0.2,0.3,0.7c0.4,3.5,0.1,8.4,0.6,11.1c0.1,0.7,0.2,0.9,0.4,1.3c0.3,0.6,0.7,0.9,1.4,1c0.8,0,1.2,0.4,1.2,1.1
			c0,0.9-0.4,1.2-1.1,1.2H559.6z"/>
		<path class="st0" d="M565.4,13.9c-0.7,0-1.1-0.7-1.1-1.5c0-0.2,0-0.5,0.1-0.8c0.1-0.2,0.2-0.8,0.5-0.8c0.1,0,0.2,0.2,0.2,0.6v0.3
			c0,0.3,0.2,0.5,0.6,0.5h0c0.5,0,0.8-0.3,0.9-1c0.1-0.3,0.2-1.1,0.6-1.1c0.1,0,0.2,0.2,0.2,0.5c0,0.2,0.1,0.3,0.4,0.3
			c0.5,0,0.8-0.3,0.9-0.8c0.1-0.7,0.2-0.8,0.4-0.8c0.2,0,0.3,0.7,0.3,1.1c0,0.3,0,0.6-0.2,1c-0.2,0.7-0.7,1.2-1.5,1.2
			c-0.2,0-0.4-0.1-0.5-0.1c-0.1-0.1-0.1,0-0.2,0.1C566.6,13.4,566.1,13.9,565.4,13.9z M569.3,7C569.4,7,569.4,7.1,569.3,7
			c0,0.5-0.2,0.9-0.4,1.2c-0.1,0.1-0.2,0.2-0.5,0.3l-4,1.9c0,0-0.1,0-0.1-0.1c0-0.2,0.1-0.5,0.2-0.7c0.2-0.3,0.2-0.4,0.3-0.5
			c0.1-0.1,0.2-0.1,0.3-0.2L569.3,7z"/>
		<path class="st0" d="M568.5,17.5c0.1,0,0.2,0.1,0.2,0.5c0,0.1,0,0.3,0,0.5c0,0.7,0.5,1.1,1.2,1.1c1,0,1.5-1,1.9-1.8
			c0-0.1,0.2-0.4,0.3-0.4c0.1,0,0.2,0.1,0.2,0.6c0.1,1.1,0.7,1.7,1.5,1.7h0.3c0.7,0,1.1,0.3,1.1,1c0,0.8-0.4,1.3-1.1,1.3h-0.3
			c-1.3,0-2-0.6-2.2-1.9c-0.3,0.9-1.2,2-2.3,2c-1.1,0-1.6-0.9-1.7-1.9c-0.4,1.1-1.5,1.9-2.7,1.9c-1.2,0-2-0.4-2.3-1.6
			c-0.2,0.4-0.4,0.8-0.8,1.1c-0.4,0.3-1.1,0.5-2.1,0.5h-0.2c-0.7,0-1-0.4-1-1.2c0-0.7,0.3-1.1,1-1.1h0.3c1.6,0,2.6-0.6,3.2-1.7
			c0-0.1,0.2-0.3,0.3-0.3c0.2,0,0.2,0.2,0.2,0.5c0,0.9,0.8,1.3,1.8,1.3c1.2,0,2.1-0.5,2.8-1.7C568.2,17.7,568.3,17.5,568.5,17.5z"/>
		<path class="st0" d="M576.3,21c-0.5,0.7-1.2,1-2.3,1h-0.2c-0.7,0-1-0.4-1-1.2c0-0.7,0.3-1.1,1-1.1h0.2c0.5,0,1-0.1,1.5-0.2
			c0.4-0.1,0.6-0.3,0.7-0.4c0-1.7-0.6-5.4-0.9-8.9c0-0.4-0.3-1.6-0.4-2.1c0-0.1,0-0.2,0-0.2c0-0.3,0.3-0.9,0.5-1.3
			c0.3-0.5,0.5-0.9,0.7-0.9c0.1,0,0.1,0.1,0.2,0.2c0.3,1,0.6,1.5,0.8,1.8c0.1,0.1,0.1,0.2,0.1,0.3c0,0,0,0.1,0,0.1
			c-0.1,0.2-0.4,0.8-0.6,1.1c0.2,3.4,0.7,6.2,0.7,7.8C577.3,18.7,577,20,576.3,21z"/>
		<path class="st0" d="M581.9,22.1c-0.1,0-0.2-0.2-0.2-0.7c0-3-1.1-11.3-1.1-12.7c0-0.7,0.5-1.7,0.9-2.5c0.1-0.2,0.3-0.5,0.5-0.5
			c0.1,0,0.2,0.2,0.2,0.8c0.1,2.2,0.7,7.3,0.7,11c0,1.5-0.1,2.7-0.4,3.5C582.3,21.7,582.1,22.1,581.9,22.1z"/>
		<path class="st0" d="M601.1,25.1c0.1-0.1,0.1,0,0.1,0.1c0,0.6-0.2,1.1-0.5,1.3l-4.1,2.3c-0.1,0-0.1,0-0.1-0.1c0-0.3,0.1-0.8,0.2-1
			c0.1-0.2,0.3-0.3,0.7-0.5L601.1,25.1z"/>
		<path class="st0" d="M592.5,22.8c-0.9-0.8-1.4-2.1-1.4-3.4c0-1.5,0.9-3.2,1.4-3.9c0.2-0.3,0.4-0.4,0.5-0.4c0.1,0,0.1,0.1,0.1,0.2
			c0,0.1-0.1,0.3-0.2,0.5c-0.4,0.9-0.9,1.8-0.9,2.9c0,0.8,0.6,1.6,1.4,2.1c0.8,0.5,1.7,0.8,2.7,0.8c2.4,0,5.7-1,6.4-2.7
			c0-0.2,0-0.3,0-0.4c0-1.1-0.3-2.3-0.9-3.1c-0.2-0.4-0.4-0.7-0.5-0.8c0,0,0-0.1,0-0.2c0-0.2,0.1-0.5,0.2-0.8
			c0.2-0.4,0.3-0.8,0.4-1.1c0.1-0.1,0.1-0.2,0.2-0.2c0.1,0,0.1,0,0.2,0.3c0.7,1.5,1.3,2.9,1.3,4.7c0,1.4-0.2,2.3-0.3,2.7
			c-0.4,0.9-0.6,1.3-1.1,1.8c-0.5,0.5-1.4,1.2-2.5,1.6c-1.1,0.5-2.4,0.7-4.1,0.7C594.4,23.8,593.3,23.6,592.5,22.8z M599,9
			c0.1,0.1,0.1,0.1,0,0.2c-0.2,0.3-1.1,1.2-1.4,1.7c-0.1,0.1-0.1,0.1-0.2,0c-0.5-0.3-1.5-1-1.7-1.4c-0.1-0.1-0.1-0.1,0-0.2
			c0.3-0.5,0.9-1.2,1.3-1.6c0.2-0.2,0.2-0.2,0.3-0.1C597.6,7.9,598.3,8.5,599,9z"/>
		<path class="st0" d="M602.5,28c-0.3-0.2-0.4-0.3-0.4-0.4c0-0.1,0.2-0.2,0.4-0.2c0.3,0,1.1,0.2,1.8,0.2c0.6,0,1.2-0.2,2.1-0.6
			c2.4-1.2,3.9-3,3.9-4.2c0-0.2,0-0.3-0.1-0.7h-0.7c-0.5,0-1.5-0.1-2.2-0.5c-0.7-0.4-1-0.9-1-1.5c0-0.6,0.3-1.4,0.6-2.2
			c0.6-1.3,1.2-2.2,1.9-2.2c0.7,0,1.3,0.5,1.8,1.1c0.5,0.7,0.7,1.8,0.7,2.8h1c0.6,0,0.9,0.3,0.9,1c0,0.8-0.3,1.2-0.9,1.2l-1.1,0.1
			c-0.2,3.5-1.3,5.8-4.1,6.9c-0.2,0.1-0.4,0.1-0.6,0.1C605.4,29.1,603.8,28.6,602.5,28z M608.7,18.4c-0.1-0.1-0.3-0.2-0.6-0.2
			c-0.5,0-0.8,0.5-0.8,0.8c0,0.2,0.2,0.5,0.8,0.7c0.4,0.2,0.9,0.2,1.1,0.2c0.2,0,0.2,0,0.2-0.1C609.5,19.5,609.1,18.7,608.7,18.4z"
			/>
		<path class="st0" d="M613.5,9.7c0,0-0.1,0-0.1,0c-0.3,0-0.6-0.2-0.8-0.4c-0.3-0.3-0.4-0.7-0.4-1.2c0-0.2,0-0.5,0.1-0.7
			c0.1-0.2,0.3-0.7,0.5-0.7c0.1,0,0.1,0.1,0.1,0.4c0,0.1,0,0.3,0,0.4c0,0.4,0.2,0.6,0.7,0.6h0c0.4,0,0.8-0.3,0.9-0.9
			c0.1-0.2,0.3-1,0.6-1c0.1,0,0.2,0.1,0.2,0.4v0.1c0,0.3,0.1,0.4,0.4,0.4c0,0,0.1,0,0.2,0c0.4-0.1,0.6-0.4,0.7-0.8
			c0.2-0.5,0.3-0.7,0.4-0.7c0.1,0,0.2,0.1,0.2,0.3c0,0.2,0,0.3,0,0.5c0,0.4-0.1,0.8-0.3,1.2c-0.3,0.6-0.7,1.1-1.4,1.1
			c-0.3,0-0.4-0.1-0.6-0.2c-0.1-0.1-0.1-0.1-0.2,0C614.4,9.3,613.9,9.6,613.5,9.7z M616.7,1.5c0,0.2,0,0.2,0,0.3
			c0,0.4-0.1,0.8-0.3,1.2c0.2,0.1,0.3,0.2,0.3,0.3c0,0.3-0.1,0.6-0.3,0.9L616,4c-0.5,0.8-1,1.3-1.3,1.6C614.3,5.8,613.8,6,613,6
			c-0.4,0-0.5-0.1-0.3-0.2c1.3-0.8,2.2-1.5,2.7-2.2c-0.4-0.3-0.9-0.6-0.9-1.1c0-0.3,0.2-0.7,0.5-1.1c0.3-0.5,0.7-0.7,1-0.7
			C616.4,0.8,616.6,1.2,616.7,1.5z M615.2,2.2c0.1,0.2,0.3,0.3,0.7,0.5c0.1-0.1,0.1-0.4,0.1-0.5c0-0.2-0.1-0.4-0.3-0.4
			C615.5,1.8,615.3,1.9,615.2,2.2z"/>
		<path class="st0" d="M616.7,18.4c0,0.6,0.6,1.2,1.4,1.4c0.2,0,0.3,0,0.5,0h0.1c0.9,0,0.9,0.7,0.9,1c0,0.3,0,1.3-0.8,1.3h-0.2
			c-0.2,0-0.3,0-0.6,0c-1.5-0.2-2.1-1.5-2.2-1.7c-0.2,0.6-1.5,1.7-3.7,1.7H612c-0.6,0-1-0.6-1-1.1c0-0.6,0.3-1.1,1-1.1h0.7
			c1,0,2.4-0.2,3.3-1.6c0.3-0.5,0.4-0.5,0.5-0.5C616.6,17.7,616.7,17.9,616.7,18.4z M617.5,12.6c0.1,0.1,0.1,0.1,0,0.2
			c-0.2,0.3-1.1,1.2-1.4,1.7c-0.1,0.1-0.1,0.1-0.2,0c-0.5-0.3-1.5-1-1.7-1.4c-0.1-0.1-0.1-0.1,0-0.2c0.3-0.5,0.9-1.2,1.3-1.6
			c0.2-0.2,0.2-0.2,0.3-0.1C616.1,11.5,616.8,12.1,617.5,12.6z"/>
		<path class="st0" d="M621,21c-0.5,0.7-1.2,1-2.3,1h-0.2c-0.7,0-1-0.4-1-1.2c0-0.7,0.3-1.1,1-1.1h0.2c0.5,0,1-0.1,1.5-0.2
			c0.4-0.1,0.6-0.3,0.7-0.4c0-1.7-0.6-5.4-0.9-8.9c0-0.4-0.3-1.6-0.4-2.1c0-0.1,0-0.2,0-0.2c0-0.3,0.3-0.9,0.5-1.3
			c0.3-0.5,0.5-0.9,0.7-0.9c0.1,0,0.1,0.1,0.2,0.2c0.3,1,0.6,1.5,0.8,1.8c0.1,0.1,0.1,0.2,0.1,0.3c0,0,0,0.1,0,0.1
			c-0.1,0.2-0.4,0.8-0.6,1.1c0.2,3.4,0.7,6.2,0.7,7.8C622,18.7,621.7,20,621,21z"/>
		<path class="st0" d="M626.6,22.1c-0.1,0-0.2-0.2-0.2-0.7c0-3-1.1-11.3-1.1-12.7c0-0.7,0.5-1.7,0.9-2.5c0.1-0.2,0.3-0.5,0.5-0.5
			c0.1,0,0.2,0.2,0.2,0.8c0.1,2.2,0.7,7.3,0.7,11c0,1.5-0.1,2.7-0.4,3.5C627,21.7,626.8,22.1,626.6,22.1z"/>
		<path class="st0" d="M640.9,4.7c0,0.5-0.1,1-0.3,1.5c0.2,0.1,0.4,0.3,0.4,0.4c0,0.4-0.2,0.7-0.3,1c-0.1,0.1-0.1,0.1-0.1,0.1
			L640,7.2c-0.5,0.8-1.3,1.8-2.5,2.3c-0.4,0.2-0.9,0.4-1.5,0.4c-0.3,0-0.4-0.1-0.4-0.1c0-0.1,0.2-0.2,0.6-0.4
			c0.9-0.5,2.5-1.8,3.1-2.5c-0.5-0.3-1.1-0.7-1.1-1.4c0-0.4,0.2-0.9,0.6-1.3c0.4-0.5,0.8-0.8,1.2-0.8C640.7,3.4,640.9,4.1,640.9,4.7
			z M639.1,5.1C639.1,5.1,639.1,5.2,639.1,5.1c0,0.2,0.4,0.5,0.8,0.7c0.1-0.2,0.1-0.4,0.1-0.7c0-0.3-0.1-0.4-0.3-0.4
			C639.5,4.7,639.3,4.8,639.1,5.1z"/>
		<path class="st0" d="M649.9,31.6c0.2,0,0.2,0,0.2,0.1c0,0.2-0.7,0.6-1,0.8c-1.4,0.6-3.6,1.4-6.2,1.4c-5.2,0-7.4-3.7-7.4-7
			c0-4.4,1.7-6.3,2.7-7.4c-1-0.6-2.1-1.3-2.1-2.6c0-0.7,0.3-1.9,0.8-2.7c0.7-1.3,1.8-1.9,2.8-1.9c0.9,0,2.2,0.5,2.8,1
			c0.2,0.2,0.3,0.4,0.3,0.5c0,0.1-0.1,0.1-0.2,0.1c-0.4,0-1-0.1-1.5-0.1c-1.3,0-3.8,1.1-3.8,1.7c0,0.4,1.1,2.1,3,2.1
			c0.1,0,0.1,0,0.2,0c1.2-0.5,2.8-1.2,3.8-1.7c0.4-0.2,0.7-0.3,0.9-0.3c0.1,0,0.1,0.1,0.1,0.1c0,0.2-0.7,1.5-0.8,1.7
			c-0.1,0.1-0.2,0.3-0.6,0.5c-1.2,0.6-2.1,1-3,1.5c-3.1,1.8-4.4,3.6-4.4,6.3c0,2.9,2.2,6.2,9.6,6.2
			C648.3,31.8,649.5,31.6,649.9,31.6z"/>
		<path class="st0" d="M658.1,25.4c0.1-0.1,0.1,0,0.1,0.1c0,0.6-0.2,1.1-0.5,1.3l-4.1,2.3c-0.1,0-0.1,0-0.1-0.1c0-0.3,0.1-0.8,0.2-1
			c0.1-0.2,0.3-0.3,0.7-0.5L658.1,25.4z"/>
		<path class="st0" d="M657.2,12.1c0.2-0.2,0.2-0.2,0.3-0.1c0.5,0.5,1,1.1,1.5,1.4c0.2,0.1,0.2,0.2,0,0.3c-0.5,0.5-0.9,1-1.3,1.5
			c-0.1,0.1-0.2,0.1-0.3,0c-0.4-0.3-0.9-0.7-1.4-1.2c-0.3,0.3-0.9,1-1.1,1.2c-0.1,0.1-0.2,0.2-0.4,0c-0.5-0.3-1.1-0.9-1.5-1.4
			c-0.1-0.1-0.1-0.2,0-0.3c0.4-0.5,0.9-1,1.4-1.5c0.1-0.1,0.2-0.1,0.3,0.1c0.4,0.4,1,1,1.4,1.2C656.4,12.9,656.9,12.3,657.2,12.1z"
			/>
		<path class="st0" d="M653.6,23.6c0.2,0.1,0.2,0.1,0.2,0.3c0,0.5-0.5,2.1-0.6,2.1c-0.4,0-1.1-0.4-2.2-1.1c-1.1-0.7-1.8-1.6-2.2-2.7
			c-0.3-1.1-0.5-2.2-0.6-3.4c-0.1-0.8-0.1-2.5-0.2-5.1c-0.1-3.4-0.2-5.3-0.5-6.2c0-0.1,0-0.1,0-0.2l1-1.4c0.1-0.2,0.2-0.2,0.3-0.2
			c0.1,0,0.1,0.1,0.2,0.3c0.1,0.5,0.2,1.3,0.3,2.5c0.1,1.4,0.2,2.9,0.2,4.4c0.1,1.5,0.1,3.3,0.2,5.2c0,0.9,0.2,2,0.8,2.8
			c0.8-1.2,1.5-1.8,2.1-2.3c0.9-0.7,1.8-1,2.7-1c0.8,0,1.1,0.2,1.5,0.9c0.2,0.3,0.5,0.7,0.7,0.9c0.3,0.3,0.5,0.4,0.8,0.4h0.4
			c0.6,0,0.9,0.4,0.9,1.1c0,0.8-0.3,1.2-1,1.2h-0.2c-0.3,0-0.6-0.1-0.9-0.2c-0.6-0.2-0.9-0.5-1.5-1.2c-0.3-0.3-0.5-0.5-0.6-0.7
			c-0.2-0.1-0.4-0.2-1-0.2c-0.6,0-1.2,0.2-1.9,0.5c-0.5,0.3-1,0.7-1.4,1.1C651.6,22.4,652.7,23.1,653.6,23.6z"/>
		<path class="st0" d="M665.1,7c0.7,0,1.7,1,1.7,2.1c0,0.4-0.1,0.8-0.2,1.2c-0.3,0.8-0.9,1.3-1.8,1.3c-0.8,0-1.3-0.6-1.3-1.3
			C663.5,9.2,664.6,7,665.1,7z M664.9,8.6c-0.3,0-0.7,0.6-0.7,1c0,0.3,0.4,0.6,0.8,0.6c0.5,0,1.1-0.3,1.1-0.5
			C666.1,9.4,665.5,8.6,664.9,8.6z"/>
		<path class="st0" d="M661.1,16.8c-0.2,0-0.5,0-0.6,0.1c-0.2,0.1-0.6,0.3-0.8,0.3c-0.2,0-0.2-0.1-0.2-0.2c0-0.4,0.6-1.3,1.2-1.8
			c0.5-0.4,1-0.6,1.4-0.6c0.2,0,0.3,0,0.5,0.1c1.8,0.4,4.1,1.4,6,1.8c1.3,0.3,2.6,0.4,3.4,0.4c0.2,0,0.3,0,0.5,0
			c0.1,0,0.1,0,0.1,0.1c0,0.4-0.7,1.5-1.1,1.9c-0.1,0.1-0.3,0.1-0.6,0.1c-0.5,0-1.6-0.1-1.9-0.1c-0.9,0-1.6,0.1-2.2,0.3
			c-0.4,0.2-1.2,0.5-2.3,1c-1.7,0.8-2.8,1.4-3.6,1.7c-0.8,0.3-1.6,0.5-2.5,0.5H658c-0.7,0-1.1-0.4-1.1-1.2c0-0.7,0.4-1.1,1.1-1.1
			h0.3c1.4,0,2.5-0.1,3.4-0.4c0.9-0.3,2.3-0.7,4-1.4C663.7,17.4,662.1,16.8,661.1,16.8z M667.9,23.5c0.1,0.1,0.1,0.1,0,0.2
			c-0.2,0.3-1.1,1.2-1.4,1.7c-0.1,0.1-0.1,0.1-0.2,0c-0.5-0.3-1.5-1-1.7-1.4c-0.1-0.1-0.1-0.1,0-0.2c0.3-0.5,0.9-1.2,1.3-1.6
			c0.2-0.2,0.2-0.2,0.3-0.1C666.5,22.4,667.2,23.1,667.9,23.5z"/>
		<path class="st0" d="M676.4,22.1c-0.1,0-0.2-0.2-0.2-0.7c0-3-1.1-11.3-1.1-12.7c0-0.7,0.5-1.7,0.9-2.5c0.1-0.2,0.3-0.5,0.5-0.5
			c0.1,0,0.2,0.2,0.2,0.8c0.1,2.2,0.7,7.3,0.7,11c0,1.5-0.1,2.7-0.4,3.5C676.8,21.7,676.6,22.1,676.4,22.1z"/>
		<path class="st0" d="M564.5,58.8c0.4,0.3,0.4,0.8,0.4,1.1c0,0.3-0.1,0.7-0.4,1c-0.3,0.3-0.7,0.4-1.1,0.4c-0.3,0-0.7-0.1-0.9-0.4
			c-0.3-0.3-0.4-0.7-0.4-1.1c0-0.4,0.2-0.7,0.4-1c0.3-0.2,0.6-0.4,1-0.4C563.9,58.4,564.2,58.6,564.5,58.8z"/>
		<path class="st0" d="M578.4,68.2c0.1-0.1,0.1,0,0.1,0.1c0,0.6-0.2,1.1-0.5,1.3l-4.1,2.3c-0.1,0-0.1,0-0.1-0.1c0-0.3,0.1-0.8,0.2-1
			c0.1-0.2,0.3-0.3,0.7-0.5L578.4,68.2z"/>
		<path class="st0" d="M567.5,60.1c0.2-0.4,0.5-0.7,0.7-0.7c0.1,0,0.1,0.1,0.1,0.2c0,0.2-0.1,0.4-0.2,0.6c-0.5,1.1-0.7,1.8-0.7,2.4
			c0,1.9,2.2,3.1,3.9,3.1c2.7,0,6.2-1.1,7-2.9c0.1-0.2,0.1-0.5,0.1-0.7c0-0.4-0.1-0.7-0.1-0.9c-0.2,0-0.3,0-0.6,0
			c-0.6,0-1.6-0.1-2.3-0.4c-0.7-0.4-1-0.9-1-1.5c0-0.6,0.3-1.5,0.6-2.2c0.5-1.1,1.2-2.2,1.8-2.2c1.5,0,2.4,1.9,2.5,4h0.9
			c0.6,0,0.9,0.3,0.9,1c0,0.8-0.3,1.2-0.9,1.2l-1,0c-0.2,1-0.3,1.7-0.5,2.4c-0.1,0.3-0.2,0.7-0.4,1c-0.9,1.8-3.9,3.5-7,3.5
			c-2.7,0-4.9-1.2-4.9-4.2C566.5,62.7,566.8,61.2,567.5,60.1z M577.8,49.3c0.2-0.2,0.2-0.2,0.3-0.1c0.5,0.5,1,1.1,1.5,1.4
			c0.2,0.1,0.2,0.2,0,0.3c-0.5,0.5-0.9,1-1.3,1.5c-0.1,0.1-0.2,0.1-0.3,0c-0.4-0.3-0.9-0.7-1.4-1.2c-0.3,0.3-0.9,1-1.1,1.2
			c-0.1,0.1-0.2,0.2-0.4,0c-0.5-0.3-1.1-0.9-1.5-1.4c-0.1-0.1-0.1-0.2,0-0.3c0.4-0.5,0.9-1,1.4-1.5c0.1-0.1,0.2-0.1,0.3,0.1
			c0.4,0.4,1,1,1.4,1.2C577,50.1,577.5,49.5,577.8,49.3z M576.8,57.3c-0.2-0.1-0.3-0.2-0.5-0.2c-0.4,0-0.7,0.5-0.7,0.8
			c0,0.2,0.3,0.5,0.8,0.7c0.4,0.2,0.9,0.2,1.2,0.2c0.2,0,0.2,0,0.2-0.1C577.7,58.5,577.3,57.7,576.8,57.3z"/>
		<path class="st0" d="M584.4,40.4c0.1-0.1,0.1,0,0.1,0.1c0,0.6-0.2,1.1-0.5,1.3l-4.1,2.3c-0.1,0-0.1,0-0.1-0.1c0-0.3,0.1-0.8,0.2-1
			c0.1-0.2,0.3-0.3,0.7-0.5L584.4,40.4z"/>
		<path class="st0" d="M579.9,58.8h0.2c0.6,0,1-0.2,1.3-0.5c0.5-0.5,0.5-1.1,0.5-1.8c0-1.5-0.1-4.6-0.3-9.2c0-0.5,0.2-1,0.5-1.7
			c0.2-0.3,0.3-0.6,0.5-0.6c0.1,0,0.2,0.2,0.3,0.7c0.2,3.4,0.4,8,0.7,11.3c0.1,0.6,0.4,1.1,0.8,1.4c0.3,0.2,0.6,0.3,0.9,0.3h0.3
			c0.6,0,1,0.4,1,1.1c0,0.8-0.3,1.2-1,1.2h-0.3c-1.4,0-2.4-1-2.8-2.4c-0.3,1.6-1.1,2.4-2.4,2.4h-0.2c-0.7,0-1-0.4-1-1.2
			C578.9,59.2,579.3,58.8,579.9,58.8z"/>
		<path class="st0" d="M588.2,38.9c0.7,0,1.7,1,1.7,2.1c0,0.4-0.1,0.8-0.2,1.2c-0.3,0.8-0.9,1.3-1.8,1.3c-0.8,0-1.3-0.6-1.3-1.3
			C586.5,41.1,587.7,38.9,588.2,38.9z M588,40.5c-0.3,0-0.7,0.6-0.7,1c0,0.3,0.4,0.6,0.8,0.6c0.5,0,1.1-0.3,1.1-0.5
			C589.2,41.3,588.5,40.5,588,40.5z"/>
		<path class="st0" d="M589.3,54.1c0,0.9-0.1,1.7-0.3,2.4c2.1-1.7,3.9-2.7,4.9-2.7c0.5,0,1.3,0.1,1.9,0.4c0.8,0.4,1.1,0.8,1.1,1.5
			c0,1.2-0.9,3-1.8,3.5c0.8-0.2,1.7-0.4,2.5-0.4h0.3c0.7,0,1,0.4,1,1.1c0,0.8-0.3,1.2-1,1.2h-0.4c-4.4,0.2-6.5,0.2-7.4,0.2
			c-1.2,0-2.7,0-4.6-0.2h-0.3c-0.7,0-1-0.4-1-1.1c0-0.8,0.3-1.1,1-1.1h1.1c0.4-0.4,1.1-1.1,1.9-1.8c0-0.4,0-0.9,0-1.2
			c0-2.9-0.5-5.5-0.7-7.1c-0.1-0.4-0.3-1.3-0.4-1.7c0-0.1,0-0.2,0-0.3c0-0.2,0.2-0.6,0.4-1c0.2-0.5,0.6-1.1,0.7-1.1
			c0.1,0,0.1,0.1,0.2,0.2c0.3,0.9,0.6,1.4,0.8,1.8c0,0.1,0.1,0.2,0.1,0.2s0,0.1,0,0.2c-0.1,0.2-0.4,0.8-0.6,1.1
			C588.9,50.3,589.3,52.3,589.3,54.1z M592.9,55.7c-1.9,0-3.7,1.4-5.4,3.1c3.4-0.2,6.7-0.8,8.1-1.8C595,56.2,593.9,55.7,592.9,55.7z
			"/>
		<path class="st0" d="M604.8,48.4c0,0.5-0.1,1-0.3,1.5c0.2,0.1,0.4,0.3,0.4,0.4c0,0.4-0.2,0.7-0.3,1c-0.1,0.1-0.1,0.1-0.1,0.1
			l-0.5-0.3c-0.5,0.8-1.3,1.8-2.5,2.3c-0.4,0.2-0.9,0.4-1.5,0.4c-0.3,0-0.4-0.1-0.4-0.1c0-0.1,0.2-0.2,0.6-0.4
			c0.9-0.5,2.5-1.8,3.1-2.5c-0.5-0.3-1.1-0.7-1.1-1.4c0-0.4,0.2-0.9,0.6-1.3c0.4-0.5,0.8-0.8,1.2-0.8
			C604.6,47.2,604.8,47.9,604.8,48.4z M603,48.9C603,48.9,603,48.9,603,48.9c0,0.2,0.4,0.5,0.8,0.7c0.1-0.2,0.1-0.4,0.1-0.7
			c0-0.3-0.1-0.4-0.3-0.4C603.4,48.5,603.1,48.6,603,48.9z"/>
		<path class="st0" d="M609.5,39.3c0.7,0,1.7,1,1.7,2.1c0,0.4-0.1,0.8-0.2,1.2c-0.3,0.8-0.9,1.3-1.8,1.3c-0.8,0-1.3-0.6-1.3-1.3
			C607.8,41.5,609,39.3,609.5,39.3z M609.3,40.9c-0.3,0-0.7,0.6-0.7,1c0,0.3,0.4,0.6,0.8,0.6c0.5,0,1.1-0.3,1.1-0.5
			C610.4,41.7,609.8,40.9,609.3,40.9z"/>
		<path class="st0" d="M611.3,56.1c0,1.7-0.4,3-1.1,4.1c-0.5,0.6-1.5,1-2.3,1c-0.8,0-1.5-0.2-2.1-0.8c-0.2,0.6-0.8,1.3-1.2,1.5
			c-0.1,0-0.2,0.1-0.2,0c-1.1-0.2-3.3-1-4.2-2.2c-0.5,1-1.3,1.4-2.4,1.4h-0.3c-0.6,0-0.9-0.4-0.9-1.1c0-0.8,0.3-1.2,0.9-1.2h0.3
			c2.1,0,3.2-1.2,4.1-2.1c0.5-0.6,0.9-1.1,1.4-1.1c0.2,0,0.5,0.1,0.7,0.4c0.9,1.1,2.6,2.8,4.1,2.8c0.5,0,1.7-0.2,2.1-0.7v0
			c0-1.7-0.7-6.1-1-9.5c-0.1-0.4-0.2-1-0.3-1.5c0-0.1,0-0.2,0-0.3c0,0,0-0.1,0-0.2c0-0.1,0.2-0.5,0.4-0.9c0.3-0.5,0.6-1.1,0.8-1.1
			c0.1,0,0.1,0.1,0.2,0.2c0.3,1,0.7,1.4,0.9,1.8c0,0.1,0.1,0.2,0.1,0.2s0,0.1,0,0.2c-0.1,0.2-0.4,0.9-0.6,1.2
			C610.7,51.8,611.3,54.4,611.3,56.1z M602.6,57.5c-0.2,0-0.5,0.2-0.7,0.4c-0.2,0.2-0.2,0.3,0.1,0.5c0.4,0.2,1.8,0.9,2.1,1
			c0.2,0.1,0.3,0.1,0.4,0.1c0.2,0,0.1-0.2,0-0.4C604.1,58.7,603.3,57.5,602.6,57.5z"/>
		<path class="st0" d="M615.2,61.1c-0.1,0-0.2-0.2-0.2-0.7c0-3-1.1-11.3-1.1-12.7c0-0.7,0.5-1.7,0.9-2.5c0.1-0.2,0.3-0.5,0.5-0.5
			c0.1,0,0.2,0.2,0.2,0.8c0.1,2.2,0.7,7.3,0.7,11c0,1.5-0.1,2.7-0.4,3.5C615.5,60.7,615.3,61.1,615.2,61.1z"/>
		<path class="st0" d="M631.3,68.2c0.1-0.1,0.1,0,0.1,0.1c0,0.6-0.2,1.1-0.5,1.3l-4.1,2.3c-0.1,0-0.1,0-0.1-0.1c0-0.3,0.1-0.8,0.2-1
			c0.1-0.2,0.3-0.3,0.7-0.5L631.3,68.2z"/>
		<path class="st0" d="M631.8,60.3c0,3.4-1.5,6-4.2,7.1c-0.2,0.1-0.4,0.1-0.6,0.1c-0.9,0-2.8-0.5-4.1-1.1c-0.3-0.2-0.4-0.3-0.4-0.4
			c0-0.1,0.2-0.2,0.3-0.2c0.3,0,1.1,0.2,1.8,0.2c0.7,0,1.2-0.2,2.2-0.6c1.1-0.5,3.3-2.3,3.8-3.8c0.1-0.2,0.1-0.6,0.1-0.7
			c0-0.1-0.1-1-1-2.4c-0.3-0.5-0.5-0.8-0.8-1.2c-0.1-0.1-0.1-0.1-0.1-0.2c0-0.3,0.4-1.3,0.6-1.7c0.1-0.1,0.1-0.2,0.2-0.2
			c0.5,0,1.4,1.7,1.8,3.1C631.8,59,631.8,59.6,631.8,60.3z"/>
		<path class="st0" d="M637.8,61.1c-0.7,0-1.2-0.1-1.7-0.5c-0.7-0.6-1.1-1.7-1.3-3.1c-0.2-1.1-0.2-2.3-0.3-3.7
			c-0.1-2-0.2-5.1-0.5-6.9c0-0.1,0-0.2,0-0.2c0-0.1,0-0.2,0.2-0.4c0.3-0.5,0.5-0.8,0.7-1.2c0.2-0.3,0.2-0.3,0.3-0.3
			c0.1,0,0.2,0.2,0.3,0.7c0.4,3.5,0.1,8.4,0.6,11.1c0.1,0.7,0.2,0.9,0.4,1.3c0.3,0.6,0.7,0.9,1.4,1c0.8,0,1.2,0.4,1.2,1.1
			c0,0.9-0.4,1.2-1.1,1.2H637.8z"/>
		<path class="st0" d="M652.9,40.4c0.7,0,1.7,1,1.7,2.1c0,0.4-0.1,0.8-0.2,1.2c-0.3,0.8-0.9,1.3-1.8,1.3c-0.8,0-1.3-0.6-1.3-1.3
			C651.2,42.6,652.4,40.4,652.9,40.4z M652.7,42c-0.3,0-0.7,0.6-0.7,1c0,0.3,0.4,0.6,0.8,0.6c0.5,0,1.1-0.3,1.1-0.5
			C653.9,42.8,653.3,42,652.7,42z"/>
		<path class="st0" d="M654.8,47.4c0.1,0.1,0.1,0.1,0,0.2c-0.2,0.3-1.1,1.2-1.4,1.7c-0.1,0.1-0.1,0.1-0.2,0c-0.5-0.3-1.5-1-1.7-1.4
			c-0.1-0.1-0.1-0.1,0-0.2c0.3-0.5,0.9-1.2,1.3-1.6c0.2-0.2,0.2-0.2,0.3-0.1C653.4,46.4,654.1,47,654.8,47.4z"/>
		<path class="st0" d="M648.9,53.5c0,0.8-0.1,1.4-0.2,2c1.1-0.9,2-1.5,2.8-1.9c0.8-0.5,1.5-0.7,2.1-0.7c0.8,0,2,0.3,2.6,0.9
			c0.3,0.2,0.4,0.6,0.4,1.1c0,1.1-0.5,2.1-1.2,3c-0.5,0.7-2.1,1.2-3.9,1.6c-0.6,0.1-1.2,0.2-4,0.5c-1.4,0.1-2,0.2-2.8,0.5
			c-0.6,0.3-1,0.7-1.2,1.1c-0.1,0.3-0.2,0.6-0.2,0.9c0,0.2,0,0.4,0.1,0.6c0.1,0.5,0.2,0.9,0.3,1.1c0.1,0.2,0.1,0.5,0.2,0.7v0.1
			c0,0.5-0.4,1.5-0.6,1.9c0,0.1-0.1,0.1-0.2,0.1c-0.4,0-0.8-0.4-1.1-0.7c-0.8-0.8-1.2-2.1-1.2-3.9c0-0.6,0-1.2,0.1-1.9
			c0-0.3,0.1-0.6,0.2-1c-0.7,0.8-1.6,1.4-2.8,1.4h-0.3c-0.6,0-0.9-0.4-0.9-1.1c0-0.8,0.3-1.1,1-1.1h0.3c0.6,0,1.1-0.1,1.6-0.3
			c1.1-0.5,1.7-1,2.4-2c0.1-0.2,0.3-0.5,0.5-0.5c0.1,0,0.2,0.1,0.2,0.3c0,0.3-0.2,0.7-0.4,1.3c-0.3,0.9-0.7,2.1-0.7,3.3
			c0,0.8,0.2,1.5,0.6,2.3c0-0.4,0-0.7,0-1.2c0.1-0.9,0.4-1.5,1-2.2c0.7-0.7,1.6-1.4,2.7-1.7c0.7-0.8,1.3-1.4,1.9-2
			c0-0.3,0-0.6,0-0.9c0-3.1-0.5-5.1-0.7-7.1c0-0.4-0.3-1.3-0.4-1.7c0-0.1,0-0.2,0-0.3c0,0,0-0.1,0-0.2c0-0.1,0.1-0.4,0.4-0.9
			c0.2-0.5,0.6-1.1,0.7-1.1c0.1,0,0.1,0.1,0.2,0.2c0.3,0.9,0.6,1.4,0.8,1.8c0,0.1,0.1,0.2,0.1,0.2c0,0.1,0,0.1,0,0.2
			c-0.1,0.2-0.4,0.8-0.6,1.1C648.6,49.9,648.9,51.8,648.9,53.5z M652.5,55c-1.9,0-3.7,1.4-5.5,3.1c3.4-0.2,6.7-0.8,8.1-1.8
			C654.6,55.5,653.5,55,652.5,55z"/>
		<path class="st0" d="M663.8,68.7c0.1-0.1,0.1,0,0.1,0.1c0,0.6-0.2,1.1-0.5,1.3l-4.1,2.3c-0.1,0-0.1,0-0.1-0.1c0-0.3,0.1-0.8,0.2-1
			c0.1-0.2,0.3-0.3,0.7-0.5L663.8,68.7z"/>
		<path class="st0" d="M662.9,66.6c-0.8,0.4-2.6,1.5-4,2.5c-0.1,0-0.1,0-0.1,0s-0.1,0-0.1-0.1c0-0.1,0.1-0.3,0.2-0.7
			c0.1-0.2,0.5-0.6,0.8-0.9c0,0,0.1-0.1,0.1-0.1c0,0,0-0.1-0.1-0.1c-0.6-0.2-0.9-0.4-0.9-0.9c0-0.1,0-0.1,0-0.2c0-0.9,1-2.2,1.8-2.9
			c0.3-0.3,0.7-0.4,1-0.4c0.5,0,0.8,0.3,0.8,0.7c0,0.3-0.1,0.6-0.2,1c-0.1,0.2-0.2,0.4-0.3,0.4c-0.1,0-0.2-0.1-0.3-0.2
			c-0.1-0.1-0.3-0.3-0.6-0.3c-0.8,0-1.3,0.5-1.3,0.7c0,0.3,1.3,0.8,1.8,0.8c0.1,0,0.1,0,0.1,0c0.2-0.1,1.1-0.4,1.5-0.6
			c0.2-0.1,0.3-0.2,0.3-0.2c0,0,0.1,0,0.1,0.1c0,0.1-0.1,0.2-0.1,0.4C663.3,66.4,663.1,66.5,662.9,66.6z"/>
		<path class="st0" d="M667.9,46.6c0.1,0.2,0.1,0.2,0.1,0.3c0,0.1,0,0.1-0.1,0.2c-0.2,0.4-0.5,1-0.8,1.3c-0.2,2.4-0.5,4.3-1.6,7
			c0.3,0.8,0.5,1.9,0.5,2.9c0,0.7-0.1,1.3-0.3,1.8c-0.2,0.4-2.7,0.8-4.4,0.8c-0.5,0-0.8,0-1.1-0.1c-0.1,0-0.2-0.3-0.2-0.7
			c0-0.6,0.1-1.5,0.3-1.8c0-0.1,0.1-0.1,0.1-0.1c0.1,0,0.1,0,0.2,0c1.4,0,2.8-1.3,3.7-2.9c-1.1-2.2-3.5-5.2-5.6-6.6
			c0,0.1-0.4,0.6-0.7,0.6c-0.3,0-2.2-1.8-2.2-2.2c0-0.2-0.1-0.4-0.1-0.6c0-0.6,0.1-1.1,0.2-1.4c0.1-0.3,0.3-0.4,0.4-0.4
			c0.2,0,0.5,0.2,0.8,0.4c1.6,1.1,3.2,2.4,4.5,4c1,1.3,2.3,3,3.3,5.1c0.6-1.3,0.7-2.2,0.9-3.9c0.1-1,0.1-1.7,0.1-2.2
			c0-1.1-0.1-1.5-0.1-1.8c0-0.2,0.1-0.4,0.2-0.7c0.4-0.7,0.7-1.2,0.8-1.2c0.1,0,0.1,0.1,0.2,0.2C667.4,45.4,667.6,46.1,667.9,46.6z
			 M664.8,56.6c-0.8,1.1-0.9,1.3-1.7,2.1c0.8,0,1.5-0.1,2.1-0.3C665.2,57.9,665.2,57.3,664.8,56.6z"/>
		<path class="st0" d="M679.4,67.6c0.1-0.1,0.1,0,0.1,0.1c0,0.6-0.2,1.1-0.5,1.3l-4.1,2.3c-0.1,0-0.1,0-0.1-0.1c0-0.3,0.1-0.8,0.2-1
			c0.1-0.2,0.3-0.3,0.7-0.5L679.4,67.6z"/>
		<path class="st0" d="M678.7,65.3c0.1,0.1,0.1,0.1,0,0.2c-0.2,0.3-1.1,1.2-1.4,1.7c-0.1,0.1-0.1,0.1-0.2,0c-0.5-0.3-1.5-1-1.7-1.4
			c-0.1-0.1-0.1-0.1,0-0.2c0.3-0.5,0.9-1.2,1.3-1.6c0.2-0.2,0.2-0.2,0.3-0.1C677.3,64.2,678,64.8,678.7,65.3z"/>
		<path class="st0" d="M670.7,53.8c-0.1-2-0.2-5.3-0.5-6.9c0,0,0-0.1,0-0.1c0-0.3,0.4-0.8,0.7-1.4c0.2-0.3,0.3-0.6,0.4-0.6
			c0.1,0,0.2,0.2,0.3,0.7c0.4,3.5,0.2,8.4,0.7,11.3c0.2,1,0.4,1.5,0.9,1.8c0.5,0.2,1.2,0.3,1.9,0.3c0.6,0,1.7,0,2.3-0.6
			c-0.1-0.9-0.7-2-1.1-2.4c0,0,0-0.1,0-0.1c0-0.2,0.5-1.4,0.7-1.8c0-0.1,0.1-0.1,0.1-0.1c0.1,0,0.3,0.2,0.4,0.5
			c0.5,0.8,0.7,1.9,0.7,3.1c0,0.9-0.1,2-0.8,2.7c-0.8,0.8-1.8,1.2-3.1,1.2c-0.8,0-1.7-0.2-2.2-0.8C671.2,59.4,670.9,58.3,670.7,53.8
			z"/>
	</g>
	<g>
		<g>
			<g>
				<g>
					<g>
						<g>
							<path class="st1" d="M708.5,5.6c-6.3,0-11.5,5.2-11.5,11.5s5.2,11.5,11.5,11.5h0.2c6.3,0,11.5-5.2,11.5-11.5
								S715,5.6,708.7,5.6H708.5z"/>
							<path class="st1" d="M708.5,5.6c-6.3,0-11.5,5.2-11.5,11.5s5.2,11.5,11.5,11.5h0.2c6.3,0,11.5-5.2,11.5-11.5
								S715,5.6,708.7,5.6H708.5z"/>
						</g>
					</g>
					<g>
						<g>
							<path class="st2" d="M708.5,5.6c-6.3,0-11.5,5.2-11.5,11.5s5.2,11.5,11.5,11.5h0.2c6.3,0,11.5-5.2,11.5-11.5
								S715,5.6,708.7,5.6H708.5z"/>
							<path class="st2" d="M708.5,5.6c-6.3,0-11.5,5.2-11.5,11.5s5.2,11.5,11.5,11.5h0.2c6.3,0,11.5-5.2,11.5-11.5
								S715,5.6,708.7,5.6H708.5z"/>
						</g>
					</g>
					<g>
						<g>
							<path class="st3" d="M708.5,4.9c-6.3,0-11.5,5.2-11.5,11.5s5.2,11.5,11.5,11.5h0.2c6.3,0,11.5-5.2,11.5-11.5
								S715,4.9,708.7,4.9H708.5z"/>
							<path class="st3" d="M708.5,4.9c-6.3,0-11.5,5.2-11.5,11.5s5.2,11.5,11.5,11.5h0.2c6.3,0,11.5-5.2,11.5-11.5
								S715,4.9,708.7,4.9H708.5z"/>
						</g>
					</g>
					<g>
						<g>
							<path class="st4" d="M708.5,4.5C702.2,4.5,697,9.7,697,16s5.2,11.5,11.5,11.5h0.2c6.3,0,11.5-5.2,11.5-11.5
								S715,4.5,708.7,4.5H708.5z"/>
							<path class="st4" d="M708.5,4.5C702.2,4.5,697,9.7,697,16s5.2,11.5,11.5,11.5h0.2c6.3,0,11.5-5.2,11.5-11.5
								S715,4.5,708.7,4.5H708.5z"/>
						</g>
					</g>
					<g>
						<g>
							<path class="st5" d="M708.5,5.3c-6.3,0-11.5,5.2-11.5,11.5s5.2,11.5,11.5,11.5h0.2c6.3,0,11.5-5.2,11.5-11.5
								S715,5.3,708.7,5.3H708.5z"/>
							<path class="st5" d="M708.5,5.3c-6.3,0-11.5,5.2-11.5,11.5s5.2,11.5,11.5,11.5h0.2c6.3,0,11.5-5.2,11.5-11.5
								S715,5.3,708.7,5.3H708.5z"/>
						</g>
					</g>
					<g>
						<g>
							<path class="st6" d="M708.5,5.6c-6.3,0-11.5,5.2-11.5,11.5s5.2,11.5,11.5,11.5h0.2c6.3,0,11.5-5.2,11.5-11.5
								S715,5.6,708.7,5.6H708.5z"/>
							<path class="st6" d="M708.5,5.6c-6.3,0-11.5,5.2-11.5,11.5s5.2,11.5,11.5,11.5h0.2c6.3,0,11.5-5.2,11.5-11.5
								S715,5.6,708.7,5.6H708.5z"/>
						</g>
					</g>
					<g class="st7">
						<g>
							
								<linearGradient id="SVGID_1_" gradientUnits="userSpaceOnUse" x1="708.5976" y1="28.333" x2="708.5976" y2="5.2617" gradientTransform="matrix(0.94 0 0 0.6 42.5159 3.2582)">
								<stop  offset="0" style="stop-color:#FFFFFF;stop-opacity:0"/>
								<stop  offset="1" style="stop-color:#FFFFFF"/>
							</linearGradient>
							<path class="st8" d="M708.5,6.4c-6,0-10.8,3.1-10.8,6.9s4.9,6.9,10.8,6.9h0.2c6,0,10.8-3.1,10.8-6.9s-4.9-6.9-10.8-6.9H708.5
								z"/>
							
								<linearGradient id="SVGID_2_" gradientUnits="userSpaceOnUse" x1="708.5976" y1="28.333" x2="708.5976" y2="5.2617" gradientTransform="matrix(0.94 0 0 0.6 42.5159 3.2582)">
								<stop  offset="0" style="stop-color:#FFFFFF;stop-opacity:0"/>
								<stop  offset="1" style="stop-color:#FFFFFF"/>
							</linearGradient>
							<path class="st9" d="M708.5,6.4c-6,0-10.8,3.1-10.8,6.9s4.9,6.9,10.8,6.9h0.2c6,0,10.8-3.1,10.8-6.9s-4.9-6.9-10.8-6.9H708.5
								z"/>
						</g>
					</g>
				</g>
				<linearGradient id="SVGID_3_" gradientUnits="userSpaceOnUse" x1="706.3808" y1="6.7997" x2="710.0449" y2="6.7997">
					<stop  offset="0" style="stop-color:#FFFFFF;stop-opacity:0"/>
					<stop  offset="0.5" style="stop-color:#FFFFFF"/>
					<stop  offset="1" style="stop-color:#FFFFFF;stop-opacity:0"/>
				</linearGradient>
				<polygon class="st10" points="706.4,7.2 710,7.2 710,6.4 706.4,6.4 				"/>
				<linearGradient id="SVGID_4_" gradientUnits="userSpaceOnUse" x1="706.7656" y1="28.3325" x2="710.4277" y2="28.3325">
					<stop  offset="0" style="stop-color:#FFFFFF;stop-opacity:0"/>
					<stop  offset="0.5" style="stop-color:#FFFFFF"/>
					<stop  offset="1" style="stop-color:#FFFFFF;stop-opacity:0"/>
				</linearGradient>
				<polygon class="st11" points="706.8,28.7 710.4,28.7 710.4,27.9 706.8,27.9 				"/>
			</g>
		</g>
		<g>
			<g>
				<g class="st12">
					<path d="M711.6,12c-0.7,0.3-2.1,1.2-3.2,2c0,0-0.1,0-0.1,0c0,0,0,0,0-0.1c0-0.1,0.1-0.3,0.2-0.5c0.1-0.1,0.4-0.5,0.7-0.7
						c0,0,0.1-0.1,0.1-0.1c0,0,0-0.1-0.1-0.1c-0.5-0.2-0.7-0.3-0.7-0.7c0,0,0-0.1,0-0.1c0-0.7,0.8-1.8,1.4-2.3
						c0.3-0.2,0.5-0.3,0.8-0.3c0.4,0,0.6,0.2,0.6,0.6c0,0.2-0.1,0.5-0.2,0.8c-0.1,0.2-0.1,0.3-0.2,0.3c-0.1,0-0.1,0-0.2-0.1
						c-0.1-0.1-0.2-0.2-0.5-0.2c-0.6,0-1,0.4-1,0.5c0,0.3,1,0.7,1.4,0.7c0,0,0.1,0,0.1,0c0.2-0.1,0.9-0.3,1.2-0.5
						c0.1-0.1,0.2-0.1,0.3-0.1c0,0,0.1,0,0.1,0.1c0,0.1,0,0.2-0.1,0.3C711.8,11.8,711.7,11.9,711.6,12z M710.4,26.5
						c-0.1,0-0.1-0.1-0.1-0.5c0-2.4-0.9-8.9-0.9-10c0-0.5,0.4-1.4,0.7-1.9c0.1-0.2,0.3-0.4,0.4-0.4c0.1,0,0.1,0.2,0.1,0.6
						c0.1,1.7,0.6,5.7,0.6,8.6c0,1.2-0.1,2.1-0.3,2.7C710.7,26.2,710.6,26.5,710.4,26.5z"/>
				</g>
				<g>
					<g>
						<path class="st0" d="M709.9,10.3c-0.7,0.3-2.1,1.2-3.2,2c0,0-0.1,0-0.1,0s0,0,0-0.1c0-0.1,0.1-0.3,0.2-0.5
							c0.1-0.1,0.4-0.5,0.7-0.7c0,0,0.1-0.1,0.1-0.1c0,0,0-0.1-0.1-0.1c-0.5-0.2-0.7-0.3-0.7-0.7c0,0,0-0.1,0-0.1
							c0-0.7,0.8-1.8,1.4-2.3c0.3-0.2,0.5-0.3,0.8-0.3c0.4,0,0.6,0.2,0.6,0.6c0,0.2-0.1,0.5-0.2,0.8c-0.1,0.2-0.1,0.3-0.2,0.3
							c-0.1,0-0.1,0-0.2-0.1c-0.1-0.1-0.2-0.2-0.5-0.2c-0.6,0-1,0.4-1,0.5c0,0.3,1,0.7,1.4,0.7c0,0,0.1,0,0.1,0
							c0.2-0.1,0.9-0.3,1.2-0.5c0.1-0.1,0.2-0.1,0.3-0.1c0,0,0.1,0,0.1,0.1c0,0.1,0,0.2-0.1,0.3C710.2,10.2,710.1,10.3,709.9,10.3z
							 M708.8,24.8c-0.1,0-0.1-0.1-0.1-0.5c0-2.4-0.9-8.9-0.9-10c0-0.5,0.4-1.4,0.7-1.9c0.1-0.2,0.3-0.4,0.4-0.4
							c0.1,0,0.1,0.2,0.1,0.6c0.1,1.7,0.6,5.7,0.6,8.6c0,1.2-0.1,2.1-0.3,2.7C709,24.5,708.9,24.8,708.8,24.8z"/>
					</g>
				</g>
			</g>
		</g>
	</g>
</g>
</svg>
