<?xml version="1.0" encoding="utf-8"?>
<!-- Generator: Adobe Illustrator 19.2.0, SVG Export Plug-In . SVG Version: 6.00 Build 0)  -->
<svg version="1.1" id="Layer_1" xmlns="http://www.w3.org/2000/svg" xmlns:xlink="http://www.w3.org/1999/xlink" x="0px" y="0px"
	 viewBox="0 0 130.6 35.1" style="enable-background:new 0 0 130.6 35.1;" xml:space="preserve">
<style type="text/css">
	.st0{fill:#CB9248;}
	.st1{fill:url(#SVGID_1_);}
	.st2{fill:#F4CE83;}
	.st3{opacity:0.5;fill:#FFFFFF;}
	.st4{fill:none;stroke:#003351;stroke-width:2.398;stroke-linecap:round;stroke-linejoin:round;stroke-miterlimit:10;}
	.st5{fill:url(#SVGID_2_);}
	.st6{fill:url(#SVGID_3_);}
	.st7{fill:url(#SVGID_4_);}
	.st8{fill:#FFFFFF;}
	.st9{fill:#F9A326;}
</style>
<g>
	<g>
		<g>
			<circle class="st0" cx="121.4" cy="18.7" r="9.1"/>
		</g>
		<g>
			<linearGradient id="SVGID_1_" gradientUnits="userSpaceOnUse" x1="121.4107" y1="27.8149" x2="121.4107" y2="15.0757">
				<stop  offset="0" style="stop-color:#BF780A;stop-opacity:0"/>
				<stop  offset="0.1413" style="stop-color:#BF780A;stop-opacity:0.1413"/>
				<stop  offset="1" style="stop-color:#BF780A"/>
			</linearGradient>
			<path class="st1" d="M121.4,21c-4.8,0-8.8-1.1-9.1-5.9c0,0.2,0,3.4,0,3.6c0,5,4.1,9.1,9.1,9.1c5.1,0,9.1-4.1,9.1-9.1
				c0-0.2,0-3.4,0-3.6C130.2,19.8,126.3,21,121.4,21z"/>
		</g>
		<g>
			<ellipse class="st2" cx="121.4" cy="14.5" rx="6.6" ry="4.7"/>
		</g>
		<ellipse class="st3" cx="121.1" cy="10.6" rx="1.3" ry="0.8"/>
		<g>
			<circle class="st4" cx="121.4" cy="18.8" r="5.6"/>
			<circle class="st4" cx="121.4" cy="17.6" r="5.6"/>
			<linearGradient id="SVGID_2_" gradientUnits="userSpaceOnUse" x1="121.4102" y1="23.1255" x2="121.4102" y2="12.0093">
				<stop  offset="0" style="stop-color:#509B7E"/>
				<stop  offset="0.2754" style="stop-color:#2F7F7A"/>
				<stop  offset="0.5528" style="stop-color:#156A77"/>
				<stop  offset="0.8029" style="stop-color:#055D76"/>
				<stop  offset="1" style="stop-color:#005875"/>
			</linearGradient>
			<circle class="st5" cx="121.4" cy="17.6" r="5.6"/>
			<linearGradient id="SVGID_3_" gradientUnits="userSpaceOnUse" x1="121.4102" y1="18.5479" x2="121.4102" y2="12.9898">
				<stop  offset="0" style="stop-color:#FFCC8B;stop-opacity:0"/>
				<stop  offset="1" style="stop-color:#FFCC8B"/>
			</linearGradient>
			<circle class="st6" cx="121.4" cy="15.8" r="2.8"/>
			<linearGradient id="SVGID_4_" gradientUnits="userSpaceOnUse" x1="121.4102" y1="18.5479" x2="121.4102" y2="12.9898">
				<stop  offset="0" style="stop-color:#FFCC8B;stop-opacity:0"/>
				<stop  offset="1" style="stop-color:#FFCC8B"/>
			</linearGradient>
			<circle class="st7" cx="121.4" cy="15.8" r="2.8"/>
		</g>
		<ellipse class="st8" cx="121.3" cy="14.2" rx="1.2" ry="0.8"/>
	</g>
	<path class="st9" d="M2.3,16.4c0.3,0.3,0.4,0.7,0.4,1.1c0,0.2-0.1,0.7-0.4,0.9c-0.3,0.3-0.7,0.4-1.1,0.4c-0.3,0-0.7-0.1-0.9-0.4
		c-0.3-0.3-0.4-0.6-0.4-1c0-0.4,0.2-0.8,0.4-1c0.3-0.2,0.6-0.4,1-0.4C1.7,16,2.1,16.2,2.3,16.4z M2.3,21.6c0.3,0.3,0.4,0.8,0.4,1.1
		c0,0.3-0.1,0.7-0.4,1c-0.3,0.3-0.7,0.4-1.1,0.4c-0.3,0-0.6-0.2-0.9-0.4c-0.3-0.3-0.4-0.6-0.4-1c0-0.3,0.2-0.7,0.4-1
		c0.3-0.3,0.6-0.4,1-0.4C1.7,21.3,2.1,21.4,2.3,21.6z"/>
	<path class="st9" d="M18.7,24.9c0.1-0.1,0.1,0,0.1,0.1c0,0.6-0.2,1.1-0.5,1.3l-4.1,2.3c-0.1,0-0.1,0-0.1-0.1c0-0.3,0.1-0.8,0.2-1
		c0.1-0.2,0.3-0.3,0.7-0.5L18.7,24.9z"/>
	<path class="st9" d="M18.5,19c-0.1,0.7-0.5,1.6-0.8,2.1c-0.1,0.1-0.1,0.1-0.2,0.1c0,0-0.1,0-0.1,0C17,21.1,16.6,21,15.8,21
		c-1.6,0-3.6,0.4-3.7,1c0,0.8,0.9,4,0.9,8c0,0.4,0,0.8,0,1.1c-0.1,1.7-0.6,2.7-0.8,2.7c-0.1,0-0.2-0.2-0.2-0.6c0-0.3,0-0.6,0-1
		c0-2.3-0.5-5-0.9-7.6C11,23.9,11,23.3,11,22.7c0-1.9,0.7-2.6,1.1-3c0-0.1,0-0.2,0-0.3c0-1.5,0.9-3.9,2.4-3.9c1.8,0,3.2,2.1,4,3.3
		C18.5,18.9,18.5,18.9,18.5,19z M14,18.1c-0.6,0-0.8,0.7-1,1.1c0.6-0.4,1.7-0.5,2.3-0.5C14.9,18.3,14.5,18.1,14,18.1z"/>
	<path class="st9" d="M24.6,23.8c-0.7,0-1.2-0.1-1.7-0.5c-0.7-0.6-1.1-1.7-1.3-3.1c-0.2-1.1-0.2-2.3-0.3-3.7c-0.1-2-0.2-5.1-0.5-6.9
		c0-0.1,0-0.2,0-0.2c0-0.1,0-0.2,0.2-0.4c0.3-0.5,0.5-0.8,0.7-1.2c0.2-0.3,0.2-0.3,0.3-0.3c0.1,0,0.2,0.2,0.3,0.7
		c0.4,3.5,0.1,8.4,0.6,11.1c0.1,0.7,0.2,0.9,0.4,1.3c0.3,0.6,0.7,0.9,1.4,1c0.8,0,1.2,0.4,1.2,1.1c0,0.9-0.4,1.2-1.1,1.2H24.6z"/>
	<path class="st9" d="M26.1,19.4c0-0.5,0.2-1.7,0.6-2.5c0.7-1.5,1.9-2.2,2.9-2.2c0.7,0,2.1,0.4,2.8,1c0.3,0.2,0.3,0.4,0.3,0.5
		c0,0.1-0.1,0.1-0.2,0.1c-0.4,0-1-0.1-1.6-0.1c-1.1,0-3.6,1-3.7,1.7c0.1,0.4,1.3,2.3,3.3,2.3h0.1c1.2-0.5,2.7-1.1,3.7-1.6
		c0.4-0.2,0.7-0.3,0.8-0.3c0.1,0,0.1,0,0.1,0.1c0,0.2-0.5,1.2-0.8,1.7c-0.1,0.1-0.2,0.3-0.4,0.4c-0.7,0.4-1.8,0.9-3.2,1.6
		c-1.5,0.7-4.6,1.8-5.9,1.8h-0.2c-0.7,0-1-0.4-1-1.1c0-0.8,0.4-1.1,1.1-1.1h0.2c0.2,0,1.2-0.1,2.1-0.3
		C26.4,20.7,26.1,20.1,26.1,19.4z M30.9,9.7c0.1,0.1,0.1,0.1,0,0.2c-0.2,0.3-1.1,1.2-1.4,1.7c-0.1,0.1-0.1,0.1-0.2,0
		c-0.5-0.3-1.5-1-1.7-1.4c-0.1-0.1-0.1-0.1,0-0.2c0.3-0.5,0.9-1.2,1.3-1.6C29,8.1,29,8.1,29.1,8.2C29.5,8.6,30.2,9.2,30.9,9.7z"/>
	<path class="st9" d="M39.9,7.3c0.7,0,1.7,1,1.7,2.1c0,0.4-0.1,0.8-0.2,1.2c-0.3,0.8-0.9,1.3-1.8,1.3c-0.8,0-1.3-0.6-1.3-1.3
		C38.3,9.5,39.4,7.3,39.9,7.3z M39.7,8.9c-0.3,0-0.7,0.6-0.7,1c0,0.3,0.4,0.6,0.8,0.6c0.5,0,1.1-0.3,1.1-0.5
		C40.9,9.8,40.3,8.9,39.7,8.9z"/>
	<path class="st9" d="M43.9,19.8c0,0.9-0.2,1.7-0.3,2c-0.4,1.5-2,2.1-4.9,2.1c-0.7,0-1-0.1-1.2-0.3c-0.2-0.2-0.3-0.7-0.3-1.2
		c0-0.4,0.1-0.7,0.1-0.8c0.1-0.3,0.2-0.5,0.2-0.5c0.1,0,0.1,0.1,0.2,0.2c0.3,0.2,0.9,0.3,1.7,0.3c1.2,0,2.7-0.2,3.3-0.6
		c0.1,0,0.1-0.1,0.1-0.1c0,0,0-0.1,0-0.1c-0.4-1.4-2.2-3.9-3.6-3.9c-0.2,0-0.4,0.2-0.6,0.2c-0.1,0-0.1,0-0.1-0.2
		c0-0.5,0.4-1.8,0.8-2.2c0.1-0.1,0.3-0.1,0.5-0.1c0.3,0,0.8,0.1,1.1,0.3c0.6,0.2,1.5,1.2,2.2,2.4C43.6,17.9,43.9,18.8,43.9,19.8z"/>
	<path class="st9" d="M50.9,31.4c0.1-0.1,0.1,0,0.1,0.1c0,0.6-0.2,1.1-0.5,1.3l-4.1,2.3c-0.1,0-0.1,0-0.1-0.1c0-0.3,0.1-0.8,0.2-1
		c0.1-0.2,0.3-0.3,0.7-0.5L50.9,31.4z"/>
	<path class="st9" d="M50.1,29.3c-0.8,0.4-2.6,1.5-4,2.5c-0.1,0-0.1,0-0.1,0c0,0-0.1,0-0.1-0.1c0-0.1,0.1-0.3,0.2-0.7
		c0.1-0.2,0.5-0.6,0.8-0.9c0,0,0.1-0.1,0.1-0.1c0,0,0-0.1-0.1-0.1c-0.6-0.2-0.9-0.4-0.9-0.9c0-0.1,0-0.1,0-0.2c0-0.9,1-2.2,1.8-2.9
		c0.3-0.3,0.7-0.4,1-0.4c0.5,0,0.8,0.3,0.8,0.7c0,0.3-0.1,0.6-0.2,1c-0.1,0.2-0.2,0.4-0.3,0.4c-0.1,0-0.2-0.1-0.3-0.2
		c-0.1-0.1-0.3-0.3-0.6-0.3c-0.8,0-1.3,0.5-1.3,0.7c0,0.3,1.3,0.8,1.8,0.8c0.1,0,0.1,0,0.1,0c0.2-0.1,1.1-0.4,1.5-0.6
		c0.2-0.1,0.3-0.2,0.3-0.2c0,0,0.1,0,0.1,0.1c0,0.1-0.1,0.2-0.1,0.4C50.4,29.1,50.3,29.2,50.1,29.3z"/>
	<path class="st9" d="M55,9.4c0.1,0.2,0.1,0.2,0.1,0.3c0,0.1,0,0.1-0.1,0.2c-0.2,0.4-0.5,1-0.8,1.3c-0.2,2.4-0.5,4.3-1.6,7
		c0.3,0.8,0.5,1.9,0.5,2.9c0,0.7-0.1,1.3-0.3,1.8c-0.2,0.4-2.7,0.8-4.4,0.8c-0.5,0-0.8,0-1.1-0.1c-0.1,0-0.2-0.3-0.2-0.7
		c0-0.6,0.1-1.5,0.3-1.8c0-0.1,0.1-0.1,0.1-0.1c0.1,0,0.1,0,0.2,0c1.4,0,2.8-1.3,3.7-2.9c-1.1-2.2-3.5-5.2-5.6-6.6
		c0,0.1-0.4,0.6-0.7,0.6c-0.3,0-2.2-1.8-2.2-2.2C43,9.9,43,9.7,43,9.5c0-0.6,0.1-1.1,0.2-1.4c0.1-0.3,0.3-0.4,0.4-0.4
		c0.2,0,0.5,0.2,0.8,0.4c1.6,1.1,3.2,2.4,4.5,4c1,1.3,2.3,3,3.3,5.1c0.6-1.3,0.7-2.2,0.9-3.9c0.1-1,0.1-1.7,0.1-2.2
		c0-1.1-0.1-1.5-0.1-1.8c0-0.2,0.1-0.4,0.2-0.7c0.4-0.7,0.7-1.2,0.8-1.2c0.1,0,0.1,0.1,0.2,0.2C54.5,8.2,54.7,8.8,55,9.4z M52,19.3
		c-0.8,1.1-0.9,1.3-1.7,2.1c0.8,0,1.5-0.1,2.1-0.3C52.4,20.7,52.4,20.1,52,19.3z"/>
	<path class="st9" d="M59,23.8c-0.1,0-0.2-0.2-0.2-0.7c0-3-1.1-11.3-1.1-12.7c0-0.7,0.5-1.7,0.9-2.5c0.1-0.2,0.3-0.5,0.5-0.5
		c0.1,0,0.2,0.2,0.2,0.8c0.1,2.2,0.7,7.3,0.7,11c0,1.5-0.1,2.7-0.4,3.5C59.3,23.4,59.2,23.8,59,23.8z"/>
	<path class="st9" d="M72.7,4.8c0,0.5-0.1,1-0.3,1.5c0.2,0.1,0.4,0.3,0.4,0.4c0,0.4-0.2,0.7-0.3,1c-0.1,0.1-0.1,0.1-0.1,0.1
		l-0.5-0.3c-0.5,0.8-1.3,1.8-2.5,2.3c-0.4,0.2-0.9,0.4-1.5,0.4c-0.3,0-0.4-0.1-0.4-0.1c0-0.1,0.2-0.2,0.6-0.4
		C68.8,9,70.5,7.7,71.1,7C70.6,6.7,70,6.3,70,5.6c0-0.4,0.2-0.9,0.6-1.3c0.4-0.5,0.8-0.8,1.2-0.8C72.5,3.5,72.6,4.2,72.7,4.8z
		 M70.9,5.2C70.8,5.2,70.8,5.2,70.9,5.2c0,0.2,0.4,0.5,0.8,0.7c0.1-0.2,0.1-0.4,0.1-0.7c0-0.3-0.1-0.4-0.3-0.4
		C71.2,4.8,71,4.9,70.9,5.2z"/>
	<path class="st9" d="M71.9,10.8c0.2-0.2,0.2-0.2,0.3-0.1c0.5,0.5,1,1.1,1.5,1.4c0.2,0.1,0.2,0.2,0,0.3c-0.5,0.5-0.9,1-1.3,1.5
		c-0.1,0.1-0.2,0.1-0.3,0c-0.4-0.3-0.9-0.7-1.4-1.2c-0.3,0.3-0.9,1-1.1,1.2c-0.1,0.1-0.2,0.2-0.4,0c-0.5-0.3-1.1-0.9-1.5-1.4
		c-0.1-0.1-0.1-0.2,0-0.3c0.4-0.5,0.9-1,1.4-1.5c0.1-0.1,0.2-0.1,0.3,0.1c0.4,0.4,1,1,1.4,1.2C71.1,11.6,71.7,11,71.9,10.8z"/>
	<path class="st9" d="M75.4,6.9c-0.7,0-1.1-0.7-1.1-1.5c0-0.2,0-0.5,0.1-0.8c0.1-0.2,0.2-0.8,0.5-0.8c0.1,0,0.2,0.2,0.2,0.6v0.3
		c0,0.3,0.2,0.5,0.6,0.5h0c0.5,0,0.8-0.3,0.9-1c0.1-0.3,0.2-1.1,0.6-1.1c0.1,0,0.2,0.2,0.2,0.5c0,0.2,0.1,0.3,0.4,0.3
		c0.5,0,0.8-0.3,0.9-0.8c0.1-0.7,0.2-0.8,0.4-0.8c0.2,0,0.3,0.7,0.3,1.1c0,0.3,0,0.6-0.2,1c-0.2,0.7-0.7,1.2-1.5,1.2
		c-0.2,0-0.4-0.1-0.5-0.1c-0.1-0.1-0.1,0-0.2,0.1C76.6,6.4,76.2,6.9,75.4,6.9z M79.3,0C79.4,0,79.4,0.1,79.3,0
		c0,0.5-0.2,0.9-0.4,1.2c-0.1,0.1-0.2,0.2-0.5,0.3l-4,1.9c0,0-0.1,0-0.1-0.1c0-0.2,0.1-0.5,0.2-0.7c0.2-0.3,0.2-0.4,0.3-0.5
		C74.9,2.1,75,2,75.2,1.9L79.3,0z"/>
	<path class="st9" d="M76.8,21.2c0.3-0.2,0.5-0.4,0.5-0.6v-0.3c0-0.9-0.4-7.1-0.6-10c0-0.2,0-0.2,0.1-0.4c0.1-0.3,0.4-1.1,0.8-1.9
		c0.1-0.2,0.2-0.2,0.2-0.2C78,7.7,78,7.8,78,8c0.1,0.6,0.2,2.4,0.3,4.6l0.1,2.7c0.1,3,0.4,4.5,0.7,5.2c0.4,0.8,0.9,1.1,1.4,1.1h0.4
		c0.6,0,0.9,0.4,0.9,1.1c0,0.8-0.3,1.2-0.9,1.2h-0.3c-0.7,0-1.2-0.2-1.7-0.5c-0.4-0.4-0.8-0.9-1.1-1.8c-0.1,0.6-0.4,1.2-0.9,1.7
		c-0.4,0.5-1,0.7-1.6,0.7c-0.7,0-1.3-0.2-1.8-0.8c-0.4-0.5-0.8-1.4-1.1-2.8C72,21.4,71.3,22,70.2,22c-0.1,0-0.1,0-0.4,0
		c-0.7,0-1.1-0.1-1.4-0.2c-0.2-0.1-0.4-0.3-0.4-0.6c0-0.1,0-0.2,0.1-0.4c0.1-0.3,0.2-0.7,0.3-1c0.2-0.5,0.5-0.9,1-1.1
		c0.8-0.5,1.8-1,2.7-1.3c0-0.3,0.1-0.7,0.3-1.2c0.2-0.5,0.3-0.8,0.4-0.8c0.1,0,0.2,0.1,0.2,0.3c0.1,0.6,0.2,1.9,0.5,3.7
		c0.2,0.6,0.4,1.1,0.7,1.4c0.3,0.3,0.8,0.5,1.4,0.5C76.1,21.4,76.5,21.3,76.8,21.2z M70.9,19.7c0.7,0,1.1-0.2,1.4-0.5l-0.2-1.1
		c-1.2,0.6-2,1-2.3,1.4C70.1,19.7,70.4,19.7,70.9,19.7z"/>
	<path class="st9" d="M87.9,25.6c0.1-0.1,0.1,0,0.1,0.1c0,0.6-0.2,1.1-0.5,1.3l-4.1,2.3c-0.1,0-0.1,0-0.1-0.1c0-0.3,0.1-0.8,0.2-1
		c0.1-0.2,0.3-0.3,0.7-0.5L87.9,25.6z"/>
	<path class="st9" d="M82,19.4c0-0.5,0.2-1.7,0.6-2.5c0.7-1.5,1.9-2.2,2.9-2.2c0.7,0,2.1,0.4,2.8,1c0.3,0.2,0.3,0.4,0.3,0.5
		c0,0.1-0.1,0.1-0.2,0.1c-0.4,0-1-0.1-1.6-0.1c-1.1,0-3.6,1-3.7,1.7c0.1,0.4,1.3,2.3,3.3,2.3h0.1c1.2-0.5,2.7-1.1,3.7-1.6
		c0.4-0.2,0.7-0.3,0.8-0.3c0.1,0,0.1,0,0.1,0.1c0,0.2-0.5,1.2-0.8,1.7c-0.1,0.1-0.2,0.3-0.4,0.4c-0.7,0.4-1.8,0.9-3.2,1.6
		c-1.5,0.7-4.6,1.8-5.9,1.8h-0.2c-0.7,0-1-0.4-1-1.1c0-0.8,0.4-1.1,1.1-1.1h0.2c0.2,0,1.2-0.1,2.1-0.3C82.4,20.7,82,20.1,82,19.4z"
		/>
</g>
</svg>
