<?xml version="1.0" encoding="utf-8"?>
<!-- Generator: Adobe Illustrator 19.2.0, SVG Export Plug-In . SVG Version: 6.00 Build 0)  -->
<svg version="1.1" id="Layer_1" xmlns="http://www.w3.org/2000/svg" xmlns:xlink="http://www.w3.org/1999/xlink" x="0px" y="0px"
	 viewBox="0 0 563.7 53.7" style="enable-background:new 0 0 563.7 53.7;" xml:space="preserve">
<style type="text/css">
	.st0{fill:#003E4E;}
	.st1{fill:#F5712E;}
	.st2{fill:none;}
</style>
<g>
	<path d="M159.3,40.6c0,0.1-0.1,0.1-0.2,0.1c-0.4,0-1.1-0.4-1.9-1.1c-0.6-0.5-1.1-1.1-1.5-1.6c-0.9-1.1-1.5-2.4-2.1-3.8
		c-1.3,0-2-0.2-2.1-0.5c0.4-0.3,0.7-0.7,0.9-1c0.3-0.4,0.4-0.8,0.4-1.2c-0.3,0-0.7,0.2-1.2,0.6c-0.1,0.1-0.4,0.4-1,0.9
		c-0.1,0-0.2-0.1-0.3-0.4c-0.1-0.3-0.2-0.7-0.2-1.2c-0.3-0.2-0.6-0.3-0.8-0.5c-0.2-0.2-0.3-0.3-0.3-0.4c0-0.2,0.2-0.4,0.5-0.7
		c0.2-0.1,0.4-0.3,0.6-0.4c0-0.4,0-0.7,0.1-1.1c0.1-0.3,0.2-0.5,0.3-0.5c0.4,0.4,0.8,0.7,1,0.9c0.4,0.3,0.9,0.5,1.2,0.5
		c0-0.4-0.2-0.8-0.5-1.2c-0.3-0.3-0.6-0.7-1-1c0-0.2,0.3-0.3,1-0.5c0.5-0.1,0.9-0.2,1.2-0.2c0.9-2.7,2.3-4.7,4-6.1
		c0.6-0.5,1-0.7,1.2-0.7c0.1,0,0.2,0.1,0.2,0.2c0,0.1-0.2,0.4-0.7,0.9c-1.5,1.7-2.3,3.6-2.7,5.7c0.4,0.1,0.7,0.1,0.8,0.2
		c0.1,0.1,0.2,0.2,0.2,0.3c-0.4,0.3-0.7,0.7-0.9,1c-0.3,0.4-0.5,0.8-0.5,1.2c0.4,0,0.8-0.2,1.1-0.5c0.2-0.2,0.6-0.6,1-1
		c0.2,0,0.3,0.2,0.5,0.7c0.1,0.4,0.1,0.7,0.1,0.9c0.7,0.3,1.1,0.7,1.1,1c0,0.3-0.3,0.6-1,1c0,0.6-0.1,1.1-0.2,1.3
		c-0.1,0.2-0.2,0.2-0.4,0.3c-0.7-0.9-1.5-1.3-2.2-1.4c0,0.3,0.2,0.8,0.5,1.2c0.1,0.2,0.5,0.5,1,1c0,0.1-0.1,0.1-0.2,0.2
		c-0.1,0.1-0.4,0.1-0.9,0.3c0.2,1.1,0.6,2.2,1.3,3.3c0.7,1.1,1.4,2.1,2.2,2.8C159.2,40.4,159.3,40.5,159.3,40.6z M152.4,31
		c-0.2-0.1-0.5-0.2-0.8-0.3c0,0-0.2-0.1-0.5-0.2s-0.4-0.2-0.4-0.3c0,0,0.3-0.2,1-0.3c0.1-0.1,0.4-0.2,0.7-0.3
		c-0.4-0.1-0.7-0.3-1-0.5c-0.1-0.1-0.4-0.4-0.7-0.6c-0.1,0-0.1,0.1-0.1,0.3c0,0.2,0,0.4,0,0.8c-0.6,0.3-0.9,0.6-0.9,0.7
		c0,0.1,0.1,0.2,0.3,0.3c0.2,0.1,0.4,0.2,0.7,0.3c0,0.1,0,0.4,0.1,0.7c0.1,0.4,0.1,0.6,0.2,0.6l0.7-0.7
		C151.8,31.3,152.1,31.1,152.4,31z M158.1,20.3c-1.8,1.2-3.2,3.4-4.3,6.5c-0.7,0-1.2,0-1.4,0.1c-0.2,0-0.3,0.1-0.3,0.2
		c0.5,0.4,0.9,0.9,1.2,1.4c0.1-0.3,0.3-0.5,0.4-0.6c0.1-0.2,0.2-0.5,0.4-0.7c0,0,0.1,0.1,0.1,0.3c0,0.2,0.1,0.3,0.1,0.3
		c0.1,0.1,0.2,0.3,0.4,0.7c0.1-0.3,0.3-0.6,0.5-0.9c0.1-0.1,0.3-0.4,0.6-0.6c0-0.1-0.1-0.1-0.3-0.2c-0.1,0-0.3,0-0.5-0.1
		c0.3-1.2,0.5-2,0.6-2.4C156.1,23.1,156.9,21.7,158.1,20.3z M158.6,40.2c-0.7-0.7-1.4-1.5-2-2.6c-0.7-1.2-1.1-2.5-1.4-3.8
		c0.5,0,0.8-0.1,0.8-0.2c-0.5-0.5-1-1-1.2-1.5c-0.1,0.2-0.2,0.4-0.3,0.7c0,0-0.1,0.2-0.2,0.4c-0.1,0.2-0.1,0.3-0.2,0.3
		c-0.2,0-0.4-0.4-0.7-1.3c-0.2,0.4-0.4,0.7-0.6,0.9c-0.2,0.2-0.4,0.4-0.6,0.6c0,0,0.1,0.1,0.3,0.1c0.1,0,0.4,0.1,0.6,0.1
		c0.2,0,0.3,0,0.4,0c0.1,0,0.3,0,0.3,0C154.8,36.6,156.4,38.8,158.6,40.2z M155.4,30.3c0-0.4-0.1-0.7-0.4-0.9
		c-0.3-0.2-0.6-0.4-0.9-0.4c-0.4,0-0.7,0.1-0.9,0.4c-0.2,0.2-0.4,0.6-0.4,0.9c0,0.3,0.1,0.6,0.4,0.9c0.3,0.2,0.6,0.4,0.9,0.4
		c0.4,0,0.7-0.1,0.9-0.4C155.2,30.9,155.4,30.6,155.4,30.3z M158.4,30.2c0-0.2-0.3-0.3-0.9-0.6c0-0.4,0-0.7-0.1-0.9
		c-0.1-0.2-0.1-0.4-0.2-0.4c-0.1,0.1-0.3,0.3-0.7,0.7c-0.3,0.3-0.6,0.4-0.9,0.6c0.1,0,0.4,0.2,1.1,0.4c0.4,0.1,0.6,0.3,0.6,0.3
		c0,0.1-0.2,0.2-0.6,0.3c-0.3,0.1-0.7,0.2-1.1,0.3c0.3,0.1,0.6,0.3,1,0.5c0.1,0.1,0.4,0.3,0.6,0.6c0.1,0,0.2-0.4,0.2-1.2
		C158.1,30.6,158.4,30.3,158.4,30.2z"/>
	<path class="st0" d="M171.1,44.2c-0.8,0.3-1.6,0.5-2.5,0.8c-0.8,0.3-1.6,0.5-2.3,0.8c-0.1,0-0.2,0-0.1-0.1l0.5-1
		c0-0.1,0-0.1,0.1-0.1c0,0,0.1,0,0.1-0.1c0.2-0.1,0.5-0.2,0.9-0.3c0.4-0.1,0.8-0.3,1.2-0.4c0.4-0.1,0.9-0.3,1.3-0.4
		c0.5-0.1,0.9-0.3,1.3-0.4c0.1,0,0.1,0,0.1,0c0,0,0,0.1,0,0.1l-0.5,1C171.2,44,171.2,44.1,171.1,44.2
		C171.2,44.1,171.2,44.2,171.1,44.2z"/>
	<path class="st0" d="M171,29c0-0.1,0.1-0.1,0.3,0c0.3,0.3,0.6,0.7,0.9,1.1c0.3,0.4,0.5,0.9,0.7,1.4c0.2,0.5,0.3,1,0.4,1.5
		c0.1,0.5,0.1,1,0.1,1.5c-0.1,0.6-0.2,1.2-0.5,1.9c-0.2,0.7-0.6,1.3-1,1.9c-0.4,0.6-0.8,1.1-1.3,1.6c-0.5,0.5-1,0.8-1.6,1
		c-0.5,0.2-0.9,0.3-1.4,0.3c-0.5,0.1-1,0.1-1.5,0c-0.5,0-1-0.1-1.4-0.2c-0.5-0.1-0.9-0.2-1.3-0.3c-0.1,0-0.2-0.1-0.2-0.1
		c0-0.1,0-0.1,0-0.2c0-0.1,0.1-0.1,0.1-0.2c0.1,0,0.1-0.1,0.2-0.1c0.7,0,1.3,0,1.8,0c0.5,0,0.9-0.1,1.3-0.2c0.4-0.1,0.8-0.3,1.1-0.5
		c0.4-0.2,0.7-0.4,1.2-0.7c0.4-0.2,0.8-0.5,1.2-0.8c0.4-0.3,0.7-0.7,1-1c0.7-0.8,1.2-1.6,1.5-2.5c0-0.3-0.1-0.5-0.3-0.9
		c-0.2-0.3-0.4-0.7-0.6-1c-0.2-0.3-0.4-0.7-0.7-1c-0.2-0.3-0.4-0.5-0.6-0.7L171,29z"/>
	<path class="st0" d="M182.9,32.2c-0.1,0.4-0.3,0.7-0.6,0.9c-0.3,0.2-0.7,0.4-1.2,0.4c-0.2,0-0.4-0.1-0.7-0.2
		c-0.2-0.1-0.4-0.3-0.5-0.5c-0.2-0.2-0.3-0.4-0.3-0.7c-0.1-0.2-0.1-0.5-0.1-0.7c0-0.2,0.1-0.4,0.1-0.6c0.1-0.2,0.1-0.5,0.2-0.7
		c0.1-0.2,0.2-0.5,0.3-0.7c0.1-0.2,0.3-0.5,0.4-0.6c0.2-0.2,0.3-0.3,0.5-0.5c0.2-0.1,0.3-0.2,0.5-0.2c0.3,0,0.6,0.1,0.9,0.4
		c0.3,0.3,0.5,0.6,0.7,1c0.2,0.4,0.4,0.8,0.5,1.3c0.1,0.5,0.2,1,0.2,1.4c0,0.6-0.1,1.2-0.2,1.9c-0.1,0.7-0.3,1.3-0.6,1.9
		c-0.2,0.6-0.5,1.2-0.8,1.8c-0.3,0.6-0.7,1-1,1.4c-0.5,0.6-1.1,1-1.7,1.3c-0.6,0.3-1.2,0.5-1.8,0.6c-0.6,0.1-1.3,0.1-2,0
		c-0.7-0.1-1.4-0.3-2.2-0.5c-0.1,0-0.1-0.1-0.1-0.1c0-0.1,0-0.1,0-0.2c0-0.1,0.1-0.1,0.2-0.2c0.1,0,0.2-0.1,0.3-0.1
		c0.7,0.1,1.4,0,1.9,0c0.6-0.1,1.1-0.2,1.6-0.4c0.5-0.2,1-0.5,1.5-0.8c0.5-0.3,0.9-0.7,1.4-1.1c0.3-0.3,0.6-0.6,1-1
		c0.3-0.4,0.6-0.8,0.8-1.2c0.3-0.4,0.5-0.8,0.6-1.2c0.2-0.4,0.3-0.8,0.4-1.2c0-0.1,0-0.2,0-0.3c0-0.1,0-0.2,0-0.3
		c0-0.1,0-0.2-0.1-0.3C182.9,32.3,182.9,32.2,182.9,32.2z M181.2,29.9c-0.1,0-0.2,0.1-0.3,0.1c-0.1,0.1-0.2,0.2-0.3,0.3
		c-0.1,0.1-0.1,0.2-0.2,0.3c0,0.1-0.1,0.2-0.1,0.3c0.1,0.2,0.3,0.3,0.5,0.4c0.2,0.1,0.4,0.1,0.6,0.1c0.2,0,0.4-0.1,0.6-0.2
		c0.2-0.1,0.3-0.2,0.4-0.3c0-0.1,0-0.2-0.1-0.4c-0.1-0.1-0.2-0.3-0.3-0.4c-0.1-0.1-0.3-0.2-0.4-0.3C181.5,30,181.3,29.9,181.2,29.9z
		"/>
	<path class="st0" d="M187.9,24.3c0.3-0.2,0.6-0.3,0.8-0.5c0.3-0.2,0.5-0.3,0.8-0.5c0.3-0.2,0.5-0.4,0.8-0.6
		c0.3-0.2,0.5-0.5,0.7-0.7c-0.2-0.1-0.5-0.2-0.7-0.3c-0.3-0.2-0.5-0.3-0.6-0.5c-0.1-0.1-0.1-0.2-0.1-0.4c0-0.1,0-0.3,0-0.4
		c0.1-0.2,0.2-0.4,0.3-0.7c0.1-0.2,0.3-0.5,0.4-0.6c0.2-0.2,0.4-0.4,0.6-0.5c0.2-0.1,0.4-0.2,0.6-0.2c0.3,0,0.5,0.1,0.6,0.4
		c0.1,0.2,0.2,0.5,0.2,0.8c0,0.3,0,0.6,0,0.9c0,0.3-0.1,0.5-0.1,0.6c0,0,0,0.1,0,0.1c0.1,0.1,0.2,0.1,0.2,0.2c0,0.1,0.1,0.1,0.1,0.2
		c0.1,0.1,0.1,0.3,0,0.5c0,0.2-0.1,0.3-0.2,0.4c-0.1,0.1-0.1,0.1-0.2,0.1c-0.1,0-0.1,0-0.2-0.1c0-0.1-0.1-0.1-0.1-0.1
		c0,0-0.1-0.1-0.2-0.1c-0.2,0.3-0.5,0.6-0.8,0.8c-0.3,0.3-0.5,0.5-0.8,0.7c-0.3,0.2-0.6,0.4-1,0.6c-0.3,0.2-0.7,0.3-1,0.4
		c-0.1,0-0.3,0.1-0.4,0.1c-0.2,0-0.2,0-0.3,0c0-0.1,0-0.1,0.1-0.2C187.7,24.4,187.8,24.4,187.9,24.3z M190.3,20
		c0.2,0.2,0.4,0.4,0.6,0.6c0.2,0.1,0.5,0.2,0.7,0.3h0c0-0.1,0-0.2,0-0.3c0-0.1,0-0.2,0-0.3c0-0.1,0-0.2-0.1-0.3
		c0-0.1-0.1-0.2-0.2-0.3c-0.1-0.1-0.2-0.1-0.3-0.1c-0.1,0-0.2,0-0.4,0.1c-0.1,0-0.2,0.1-0.3,0.2C190.4,19.9,190.3,20,190.3,20z"/>
	<path class="st0" d="M191.8,31.1c0-0.1,0.1-0.1,0.2,0c0.3,0.3,0.5,0.6,0.8,0.7c0.3,0.2,0.5,0.3,0.8,0.4c0.1,0.1,0.3,0.1,0.4,0.1
		c0.1,0,0.3,0.1,0.4,0.1c0.1,0,0.3,0,0.5,0c0.2,0,0.4,0,0.6,0h0.2c0.3,0,0.5,0.1,0.6,0.3c0.1,0.2,0.2,0.4,0.2,0.7
		c0,0.3-0.1,0.5-0.2,0.7c-0.1,0.2-0.3,0.3-0.6,0.3h-0.2c-0.3,0-0.6,0-0.9,0c-0.3,0-0.6-0.1-0.9-0.1c-0.1,0.5-0.2,0.9-0.3,1.3
		c-0.1,0.4-0.2,0.8-0.4,1.1c-0.3,0.8-0.7,1.5-1.1,2.1c-0.4,0.6-1,1.1-1.8,1.5c-0.4,0.2-0.9,0.4-1.3,0.5c-0.5,0.1-0.9,0.2-1.4,0.2
		c-0.3,0-0.6,0-0.9,0c-0.3,0-0.6,0-0.9-0.1c-0.3,0-0.6-0.1-0.9-0.2c-0.3-0.1-0.7-0.2-1-0.3c-0.1,0-0.2-0.1-0.2-0.2
		c0-0.1,0-0.1,0-0.2c0-0.1,0.2-0.2,0.5-0.2c0.5,0,1,0,1.4,0c0.4,0,0.9-0.1,1.3-0.2c0.4-0.1,0.8-0.2,1.2-0.4c0.4-0.2,0.9-0.4,1.3-0.6
		c0.5-0.3,1-0.6,1.4-0.9c0.4-0.4,0.8-0.7,1.1-1.1c0.3-0.4,0.5-0.8,0.8-1.3c0.2-0.4,0.4-0.9,0.5-1.4c-0.3-0.1-0.6-0.3-0.9-0.6
		c-0.3-0.2-0.6-0.5-0.7-0.7L191.8,31.1z"/>
	<path class="st0" d="M197.2,19.9c0.3-0.2,0.6-0.3,0.8-0.5c0.3-0.2,0.5-0.3,0.8-0.5c0.3-0.2,0.5-0.4,0.8-0.6
		c0.3-0.2,0.5-0.5,0.7-0.7c-0.2-0.1-0.5-0.2-0.7-0.3c-0.3-0.2-0.5-0.3-0.6-0.5c-0.1-0.1-0.1-0.2-0.1-0.4c0-0.1,0-0.3,0-0.4
		c0.1-0.2,0.2-0.4,0.3-0.7c0.1-0.2,0.3-0.5,0.4-0.6c0.2-0.2,0.4-0.4,0.6-0.5c0.2-0.1,0.4-0.2,0.6-0.2c0.3,0,0.5,0.1,0.6,0.4
		c0.1,0.2,0.2,0.5,0.2,0.8c0,0.3,0,0.6,0,0.9c0,0.3-0.1,0.5-0.1,0.6c0,0,0,0.1,0,0.1c0.1,0.1,0.2,0.1,0.2,0.2c0,0.1,0.1,0.1,0.1,0.2
		c0.1,0.1,0.1,0.3,0,0.5c0,0.2-0.1,0.3-0.2,0.4c-0.1,0.1-0.1,0.1-0.2,0.1c-0.1,0-0.1,0-0.2-0.1c0-0.1-0.1-0.1-0.1-0.1
		c0,0-0.1-0.1-0.2-0.1c-0.2,0.3-0.5,0.6-0.8,0.8c-0.3,0.3-0.5,0.5-0.8,0.7c-0.3,0.2-0.6,0.4-1,0.6c-0.3,0.2-0.7,0.3-1,0.4
		c-0.1,0-0.3,0.1-0.4,0.1c-0.2,0-0.2,0-0.3,0c0-0.1,0-0.1,0.1-0.2C197,20,197.1,19.9,197.2,19.9z M199.6,15.6
		c0.2,0.2,0.4,0.4,0.6,0.6c0.2,0.1,0.5,0.2,0.7,0.3h0c0-0.1,0-0.2,0-0.3c0-0.1,0-0.2,0-0.3c0-0.1,0-0.2-0.1-0.3
		c0-0.1-0.1-0.2-0.2-0.3c-0.1-0.1-0.2-0.1-0.3-0.1c-0.1,0-0.2,0-0.4,0.1c-0.1,0-0.2,0.1-0.3,0.2C199.7,15.5,199.6,15.5,199.6,15.6z"
		/>
	<path class="st0" d="M195.3,34.5c-0.3,0-0.5-0.1-0.6-0.3c-0.1-0.2-0.2-0.4-0.2-0.7c0-0.2,0.1-0.5,0.2-0.7c0.1-0.2,0.3-0.3,0.6-0.3
		h0.2c0.3,0,0.5,0,0.9-0.1c0.3,0,0.6-0.1,1-0.2c0.3-0.1,0.7-0.2,1.1-0.4c0.4-0.2,0.7-0.3,1-0.6c-0.2-0.2-0.4-0.4-0.7-0.6
		c-0.3-0.2-0.5-0.3-0.8-0.3c-0.2,0-0.4,0-0.5,0c-0.2,0-0.3,0.1-0.5,0.2c-0.1,0.1-0.1,0.1-0.2,0s-0.1-0.1-0.1-0.2
		c0-0.1,0.1-0.3,0.1-0.5c0-0.2,0.1-0.4,0.2-0.6c0.1-0.2,0.2-0.4,0.3-0.6c0.1-0.2,0.3-0.4,0.4-0.5c0.8-0.7,1.7-1,2.7-1
		c0.3,0,0.6,0,1,0.1c0.4,0.1,0.7,0.1,1,0.3c0.3,0.1,0.6,0.3,0.8,0.5c0.2,0.2,0.3,0.5,0.3,0.9c0,0.5-0.1,0.9-0.3,1.3
		c-0.2,0.4-0.5,0.7-0.9,1c0.1,0.2,0.3,0.4,0.5,0.5c0.2,0.1,0.5,0.3,0.7,0.3c0.3,0.1,0.6,0.1,0.9,0.2c0.3,0,0.6,0.1,1,0.1h0.2
		c0.3,0,0.5,0.1,0.6,0.3c0.1,0.2,0.2,0.4,0.2,0.7c0,0.2-0.1,0.5-0.2,0.7c-0.1,0.2-0.3,0.3-0.6,0.3h-0.2c-0.5,0-1,0-1.4-0.1
		c-0.4-0.1-0.8-0.2-1.2-0.4c-0.7-0.3-1.4-0.9-2-1.6c-0.9,0.7-1.7,1.3-2.6,1.6c-0.4,0.2-0.9,0.3-1.3,0.4c-0.4,0.1-0.9,0.1-1.3,0.1
		H195.3z M199.9,21.7l1.6,1.3c0.1,0.1,0.1,0.1,0,0.2l-1,1.3c-0.1,0.1-0.1,0.1-0.2,0l-1.6-1.3c-0.1-0.1-0.1-0.1,0-0.2l1.1-1.3
		C199.7,21.7,199.8,21.6,199.9,21.7z"/>
	<path class="st0" d="M209.5,13.2c0,0.3,0,0.6-0.1,0.8c-0.1,0.3-0.2,0.5-0.4,0.7c-0.2,0.2-0.4,0.4-0.6,0.5c-0.3,0.1-0.5,0.2-0.9,0.2
		c-0.4,0-0.8-0.1-1.1-0.4s-0.5-0.7-0.5-1.1c0-0.2,0-0.5,0.1-0.9c0.1-0.3,0.2-0.7,0.3-1c0.2-0.3,0.3-0.6,0.6-0.8
		c0.2-0.2,0.5-0.4,0.9-0.4c0.3,0,0.6,0,0.8,0.2c0.2,0.2,0.4,0.4,0.5,0.6c0.1,0.3,0.2,0.5,0.3,0.8C209.4,12.7,209.5,13,209.5,13.2z
		 M206.5,13.5c0,0.1,0,0.3,0.1,0.3c0.1,0.1,0.2,0.1,0.3,0.2c0.1,0,0.2,0.1,0.4,0.1c0.1,0,0.2,0,0.3,0c0.2,0,0.5-0.1,0.7-0.2
		c0.2-0.1,0.4-0.2,0.6-0.4c0-0.2,0-0.3-0.1-0.5c-0.1-0.2-0.1-0.3-0.2-0.5c-0.1-0.1-0.2-0.2-0.4-0.3c-0.2-0.1-0.3-0.1-0.6-0.1
		c-0.1,0-0.3,0.1-0.4,0.2c-0.1,0.1-0.2,0.2-0.3,0.3c-0.1,0.1-0.2,0.2-0.3,0.4C206.5,13.2,206.5,13.4,206.5,13.5z"/>
	<path class="st0" d="M208.4,17.3c0-0.1,0.1-0.1,0.1-0.1c0,0,0.1,0,0.1,0.1c0.1,0.4,0.3,0.8,0.5,1.3c0.2,0.4,0.5,0.8,0.9,1
		c-0.2,0.4-0.4,0.7-0.5,0.9c-0.1,0.2-0.2,0.5-0.1,0.7l1.2,9.7c0,0.2,0,0.5-0.1,0.7c0,0.3-0.1,0.5-0.2,0.7c-0.1,0.2-0.2,0.5-0.3,0.7
		c-0.1,0.2-0.2,0.4-0.3,0.5c-0.2,0.2-0.6,0.4-0.9,0.5c-0.4,0.1-0.8,0.2-1.2,0.3c-0.4,0.1-0.8,0.1-1.2,0.1c-0.4,0-0.7,0-1,0h-0.2
		c-0.3,0-0.5-0.1-0.6-0.3c-0.1-0.2-0.2-0.4-0.2-0.7c0-0.2,0.1-0.5,0.2-0.7c0.1-0.2,0.3-0.3,0.6-0.3h0.2c0.2,0,0.4,0,0.9,0
		c0.4,0,0.9,0,1.4-0.1c0.5-0.1,0.9-0.1,1.3-0.2c0.4-0.1,0.7-0.2,0.7-0.4c-0.2-1.8-0.5-3.5-0.7-5.3c-0.2-1.8-0.5-3.5-0.7-5.3
		c-0.1-0.4-0.1-0.7-0.2-1c-0.1-0.3-0.2-0.7-0.4-1c-0.1-0.1-0.1-0.2-0.1-0.2c0,0,0-0.1,0.1-0.2c0.1-0.2,0.3-0.5,0.4-0.7
		C208.1,17.8,208.3,17.5,208.4,17.3z"/>
	<path class="st0" d="M213.8,18c0.1,0,0.2,0.2,0.2,0.5c0,0.3,0,0.6,0,0.9c0,0.3,0.1,0.6,0.1,0.9c0.1,0.8,0.2,1.5,0.3,2.3
		c0.1,0.8,0.2,1.6,0.4,2.4c0.1,0.8,0.2,1.6,0.3,2.4c0.1,0.8,0.2,1.6,0.3,2.3c0,0.3,0.1,0.6,0.1,1c0,0.4,0,0.8,0,1.2
		c0,0.4-0.1,0.8-0.1,1.2c-0.1,0.4-0.2,0.7-0.3,1c-0.1,0.1-0.1,0.2-0.2,0.3c-0.1,0-0.1,0-0.1-0.1c-0.1-0.7-0.1-1.5-0.2-2.2
		c-0.1-0.7-0.2-1.5-0.3-2.3c-0.1-0.8-0.2-1.6-0.3-2.4c-0.1-0.8-0.2-1.6-0.3-2.4c-0.1-0.8-0.2-1.6-0.3-2.4c-0.1-0.8-0.2-1.6-0.3-2.4
		c0-0.2,0.1-0.4,0.1-0.6c0.1-0.2,0.1-0.4,0.2-0.6c0.2-0.5,0.3-0.9,0.4-1C213.8,18.1,213.8,18,213.8,18z"/>
	<path class="st0" d="M224.9,19.2c0.3-0.2,0.6-0.3,0.8-0.5c0.3-0.2,0.5-0.3,0.8-0.5c0.3-0.2,0.5-0.4,0.8-0.6
		c0.3-0.2,0.5-0.5,0.7-0.7c-0.2-0.1-0.5-0.2-0.7-0.3c-0.3-0.2-0.5-0.3-0.6-0.5c-0.1-0.1-0.1-0.2-0.1-0.4c0-0.1,0-0.3,0-0.4
		c0.1-0.2,0.2-0.4,0.3-0.7c0.1-0.2,0.3-0.5,0.4-0.6c0.2-0.2,0.4-0.4,0.6-0.5c0.2-0.1,0.4-0.2,0.6-0.2c0.3,0,0.5,0.1,0.6,0.4
		c0.1,0.2,0.2,0.5,0.2,0.8c0,0.3,0,0.6,0,0.9c0,0.3-0.1,0.5-0.1,0.6c0,0,0,0.1,0,0.1c0.1,0.1,0.2,0.1,0.2,0.2c0,0.1,0.1,0.1,0.1,0.2
		c0.1,0.1,0.1,0.3,0,0.5c0,0.2-0.1,0.3-0.2,0.4c-0.1,0.1-0.1,0.1-0.2,0.1c-0.1,0-0.1,0-0.2-0.1c0-0.1-0.1-0.1-0.1-0.1
		c0,0-0.1-0.1-0.2-0.1c-0.2,0.3-0.5,0.6-0.8,0.8c-0.3,0.3-0.5,0.5-0.8,0.7c-0.3,0.2-0.6,0.4-1,0.6c-0.3,0.2-0.7,0.3-1,0.4
		c-0.1,0-0.3,0.1-0.4,0.1c-0.2,0-0.2,0-0.3,0c0-0.1,0-0.1,0.1-0.2C224.7,19.4,224.7,19.3,224.9,19.2z M227.2,15
		c0.2,0.2,0.4,0.4,0.6,0.6c0.2,0.1,0.5,0.2,0.7,0.3h0c0-0.1,0-0.2,0-0.3c0-0.1,0-0.2,0-0.3c0-0.1,0-0.2-0.1-0.3
		c0-0.1-0.1-0.2-0.2-0.3c-0.1-0.1-0.2-0.1-0.3-0.1c-0.1,0-0.2,0-0.4,0.1c-0.1,0-0.2,0.1-0.3,0.2C227.3,14.8,227.3,14.9,227.2,15z"/>
	<path class="st0" d="M226.5,29.8c-0.5-0.2-0.9-0.4-1.3-0.7c-0.4-0.2-0.8-0.5-1.1-0.8c-0.3-0.3-0.5-0.7-0.7-1.1
		c-0.2-0.4-0.2-0.9-0.2-1.4c0-0.5,0.1-1,0.3-1.4c0.2-0.4,0.4-0.8,0.7-1.1c0.3-0.3,0.6-0.6,0.9-0.8c0.3-0.2,0.7-0.4,1.1-0.6
		c0.4-0.1,0.7-0.2,1.1-0.2c0.4,0,0.8,0,1.2,0.1c0.4,0.1,0.8,0.2,1.1,0.4c0.4,0.2,0.7,0.4,1,0.6c0,0,0.1,0.1,0.1,0.1
		c0,0.1,0,0.1,0,0.1c0,0-0.1,0.1-0.1,0.1c0,0-0.1,0-0.2,0c-0.2-0.1-0.4-0.1-0.7-0.2c-0.3-0.1-0.5-0.1-0.7-0.1c-0.1,0-0.3,0-0.5,0
		c-0.2,0-0.4,0.1-0.7,0.2c-0.2,0.1-0.5,0.2-0.8,0.3c-0.3,0.1-0.5,0.2-0.8,0.3c-0.3,0.1-0.5,0.3-0.8,0.4c-0.2,0.1-0.5,0.3-0.6,0.4
		c-0.2,0.1-0.4,0.3-0.5,0.4c-0.1,0.1-0.2,0.3-0.3,0.4c0.1,0.3,0.3,0.6,0.5,0.9c0.3,0.3,0.6,0.6,1,0.8c0.4,0.3,0.8,0.5,1.2,0.6
		c0.4,0.2,0.8,0.3,1.2,0.3c0.3,0,0.7-0.1,1.1-0.3c0.4-0.2,0.9-0.4,1.3-0.7c0.5-0.3,0.9-0.5,1.4-0.8c0.5-0.3,0.9-0.5,1.3-0.7
		c0.1-0.1,0.2-0.1,0.3-0.1c0.1,0,0.1,0.1,0.1,0.1l-0.4,1.5c-0.5,0.3-1,0.6-1.5,0.9c-0.5,0.3-1,0.6-1.6,1c-0.5,0.3-1,0.7-1.5,1.1
		c-0.5,0.4-1,0.8-1.4,1.2c-0.5,0.4-0.9,0.9-1.3,1.3c-0.4,0.5-0.7,1-1,1.5c-0.3,0.5-0.5,1.1-0.6,1.7c-0.1,0.6-0.2,1.2-0.2,1.9
		c0,0.7,0.2,1.4,0.4,2c0.3,0.6,0.6,1.2,1,1.7c0.4,0.5,0.9,0.9,1.5,1.3c0.6,0.4,1.2,0.6,1.8,0.8c0.8,0.2,1.7,0.4,2.5,0.5
		c0.9,0.1,1.7,0.1,2.4,0.1c0.4,0,0.8,0,1.2,0c0.4,0,0.7,0,1.1-0.1c0.4,0,0.7,0,1.1-0.1c0.4,0,0.7,0,1.1,0c0.1,0,0.2,0,0.2,0.1
		c0,0.1,0,0.1-0.1,0.2c0,0.1-0.1,0.1-0.2,0.2c-0.1,0.1-0.2,0.1-0.2,0.1c-0.5,0.1-1,0.2-1.4,0.3c-0.4,0.2-0.8,0.3-1.2,0.5
		c-0.4,0.2-0.8,0.3-1.2,0.4c-0.4,0.1-0.9,0.2-1.4,0.2c-1.4,0.1-2.7,0-3.8-0.2c-1.2-0.3-2.2-0.7-3-1.3c-0.8-0.6-1.5-1.5-2-2.5
		c-0.5-1-0.7-2.2-0.7-3.7c0-0.8,0.1-1.5,0.2-2.3c0.1-0.8,0.4-1.5,0.6-2.2c0.3-0.7,0.6-1.4,1-2.1C225.5,30.9,226,30.3,226.5,29.8z"/>
	<path class="st0" d="M244.1,32.5c0.3,0,0.4,0.1,0.6,0.3c0.1,0.2,0.2,0.4,0.2,0.7c0,0.2-0.1,0.5-0.2,0.7c-0.1,0.2-0.3,0.3-0.6,0.3
		c0,0-0.1,0-0.1,0c0,0-0.1,0-0.1,0c-0.8,0-1.4-0.1-1.9-0.4c-0.5-0.3-0.9-0.7-1.2-1.1c-0.3-0.6-0.6-1.2-0.7-1.8
		c-0.1-0.6-0.2-1.3-0.3-1.9c-0.1-0.7-0.2-1.5-0.2-2.2c-0.1-0.7-0.2-1.5-0.3-2.2c-0.1-0.8-0.2-1.5-0.3-2.3c-0.1-0.8-0.3-1.6-0.6-2.5
		c0-0.1,0-0.1,0-0.2c0,0,0-0.1,0-0.1l0.7-1.7c0-0.1,0.1-0.1,0.1-0.1c0,0,0.1,0,0.1,0.1c0.1,0.5,0.2,1,0.3,1.5c0.1,0.5,0.2,1,0.3,1.6
		c0.1,0.6,0.2,1.2,0.2,1.8c0.1,0.7,0.2,1.4,0.3,2.3c0.1,0.6,0.1,1.2,0.2,1.8c0.1,0.6,0.1,1.2,0.2,1.7c0.1,0.5,0.1,0.9,0.2,1.4
		c0.1,0.5,0.2,0.9,0.4,1.3c0.2,0.3,0.5,0.6,0.8,0.8c0.4,0.2,0.9,0.3,1.6,0.3C243.9,32.5,243.9,32.5,244.1,32.5
		C244,32.5,244,32.5,244.1,32.5z"/>
	<path class="st0" d="M249.2,19.9c-0.4,0.2-0.9,0.4-1.3,0.6c-0.5,0.2-0.9,0.4-1.3,0.6c-0.4,0.2-0.8,0.4-1.2,0.5
		c-0.4,0.2-0.7,0.3-1,0.4c-0.1,0-0.1,0-0.1,0c0,0,0-0.1,0-0.1l0.6-1.2c0-0.1,0.1-0.1,0.1-0.1c0,0,0.1-0.1,0.1-0.1l4.6-2.1
		c0.1-0.1,0.2,0,0.1,0.1l-0.5,1.2C249.3,19.8,249.3,19.8,249.2,19.9z"/>
	<path class="st0" d="M243.9,34.5h-0.2c-0.3,0-0.4-0.1-0.6-0.3c-0.1-0.2-0.2-0.4-0.2-0.7c0-0.1,0-0.3,0-0.4c0-0.1,0.1-0.2,0.1-0.3
		c0.1-0.1,0.1-0.2,0.2-0.2c0.1-0.1,0.2-0.1,0.3-0.1h0.2c0.3,0,0.6,0,0.9,0c0.3,0,0.6-0.1,0.9-0.1c0.3-0.1,0.6-0.2,0.8-0.3
		c0.3-0.2,0.5-0.4,0.7-0.7c0.2-0.2,0.3-0.4,0.4-0.6c0.1-0.2,0.2-0.5,0.3-0.7c0-0.1,0.1-0.2,0.2-0.2c0.1,0,0.1,0,0.2,0.1
		c0,0.1,0,0.2,0,0.4c0,0.1,0,0.3,0,0.4c0,0.2,0.1,0.4,0.2,0.7c0.1,0.2,0.3,0.4,0.5,0.6c0.2,0.2,0.5,0.3,0.9,0.4
		c0.4,0.1,0.9,0.2,1.4,0.2h0.2c0.1,0,0.2,0,0.3,0.1c0.1,0.1,0.2,0.1,0.2,0.2c0.1,0.1,0.1,0.2,0.1,0.3c0,0.1,0,0.2,0,0.4
		c0,0.3-0.1,0.5-0.2,0.7c-0.1,0.2-0.3,0.3-0.6,0.3h-0.2c-0.5,0-0.9,0-1.3-0.1c-0.4-0.1-0.8-0.2-1-0.4c-0.6-0.3-1-0.8-1.3-1.5
		c-0.2,0.4-0.4,0.7-0.7,1c-0.3,0.3-0.5,0.5-0.8,0.6c-0.3,0.2-0.7,0.3-1.1,0.3C244.7,34.4,244.3,34.5,243.9,34.5z M249.3,27.1
		c0,0.1-0.1,0.1-0.1,0.1c0,0-0.1,0-0.1-0.1l-1.5-1.2l-1,1.4c-0.1,0.1-0.1,0.1-0.2,0l-1.6-1.2c-0.1,0-0.1-0.1,0-0.2l1-1.5
		c0-0.1,0.1-0.1,0.1-0.1c0,0,0.1,0,0.1,0.1l1.5,1.2l1-1.3c0.1-0.1,0.1-0.1,0.2,0l1.6,1.3c0.1,0,0.1,0.1,0,0.2L249.3,27.1z"/>
	<path class="st0" d="M258.2,20.2c-0.4,0.2-0.9,0.4-1.3,0.6c-0.5,0.2-0.9,0.4-1.3,0.6c-0.4,0.2-0.8,0.4-1.2,0.5
		c-0.4,0.2-0.7,0.3-1,0.4c-0.1,0-0.1,0-0.1,0s0-0.1,0-0.1l0.6-1.2c0-0.1,0.1-0.1,0.1-0.1c0,0,0.1-0.1,0.1-0.1l4.6-2.1
		c0.1-0.1,0.2,0,0.1,0.1l-0.5,1.2C258.3,20.1,258.3,20.2,258.2,20.2z"/>
	<path class="st0" d="M251.3,32.5c0.4,0,0.7,0,1.1,0c0.4,0,0.7-0.1,1-0.1c0.3-0.1,0.6-0.2,0.8-0.3c0.2-0.1,0.4-0.3,0.6-0.6
		c0.2-0.5,0.5-0.9,0.7-1.4c0.2-0.5,0.4-0.9,0.7-1.3c0.1-0.2,0.2-0.3,0.4-0.5c0.2-0.2,0.3-0.4,0.5-0.5c0.2-0.2,0.4-0.3,0.6-0.4
		c0.2-0.1,0.4-0.2,0.6-0.2c0.3,0,0.6,0.2,0.9,0.5c0.3,0.3,0.6,0.7,0.8,1.1c0.2,0.4,0.4,0.8,0.5,1.3c0.1,0.4,0.2,0.8,0.2,1.1
		c0,0.2,0,0.4-0.1,0.6c0,0.2-0.1,0.4-0.2,0.6c-0.1,0.2-0.2,0.3-0.3,0.5c-0.1,0.1-0.3,0.3-0.4,0.3c-0.3,0.1-0.7,0.1-1.2,0
		c-0.4-0.1-0.8-0.2-1.2-0.3c-0.3-0.1-0.7-0.2-1-0.4c-0.3-0.2-0.6-0.3-0.9-0.5c-0.3,1-0.8,1.7-1.5,2.1c-0.7,0.4-1.5,0.7-2.5,0.7h-0.2
		c-0.3,0-0.5-0.1-0.6-0.3c-0.1-0.2-0.2-0.4-0.2-0.7c0-0.2,0.1-0.5,0.2-0.7c0.1-0.2,0.3-0.3,0.6-0.3H251.3z M258.7,29.8
		c-0.1-0.2-0.3-0.4-0.5-0.6c-0.2-0.2-0.5-0.3-0.8-0.3c-0.3,0-0.5,0.2-0.8,0.4c-0.2,0.2-0.4,0.5-0.5,0.7c0.2,0.2,0.4,0.3,0.7,0.5
		c0.2,0.1,0.5,0.2,0.8,0.3c0.3,0.1,0.5,0.1,0.8,0.2c0.3,0,0.6,0.1,0.8,0.1c0,0,0-0.1,0-0.2c0-0.1-0.1-0.2-0.2-0.4
		c-0.1-0.1-0.1-0.3-0.2-0.4C258.8,29.9,258.7,29.8,258.7,29.8z"/>
	<path class="st0" d="M281.6,8.6c-0.4,0.2-0.9,0.4-1.3,0.6c-0.5,0.2-0.9,0.4-1.3,0.6c-0.4,0.2-0.8,0.4-1.2,0.5
		c-0.4,0.2-0.7,0.3-1,0.4c-0.1,0-0.1,0-0.1,0s0-0.1,0-0.1l0.6-1.2c0-0.1,0.1-0.1,0.1-0.1c0,0,0.1-0.1,0.1-0.1l4.6-2.1
		c0.1-0.1,0.2,0,0.1,0.1l-0.5,1.2C281.8,8.5,281.7,8.6,281.6,8.6z M279.3,13.7c-0.2,0.4-0.4,0.7-0.6,0.8c-0.3,0.2-0.6,0.3-0.9,0.3
		c-0.3,0-0.5-0.1-0.7-0.2c-0.2-0.2-0.3-0.4-0.4-0.8c0-0.2,0-0.3,0-0.5c0-0.2,0.1-0.4,0.2-0.5c0.1-0.2,0.1-0.3,0.2-0.4
		c0.1-0.1,0.2-0.2,0.3-0.2c0.1,0,0.1,0.1,0,0.2c-0.1,0.1-0.1,0.2-0.1,0.3c0,0.1,0,0.3-0.1,0.4c0,0.1,0,0.2,0,0.3
		c0,0.1,0.1,0.2,0.2,0.2c0.1,0.1,0.3,0.1,0.4,0.1c0.1,0,0.3,0,0.4-0.1c0.1-0.1,0.3-0.1,0.4-0.2c0.1-0.1,0.2-0.2,0.3-0.3
		c0.1-0.1,0.2-0.3,0.2-0.5c0.1-0.2,0.1-0.4,0.1-0.5c0-0.1,0-0.2,0.1-0.3c0.1-0.1,0.1-0.2,0.3-0.2c0,0,0,0,0.1,0.1c0,0,0,0.1,0,0.2
		c0,0.1,0,0.1,0,0.2c0,0.1,0,0.1,0,0.1c0,0.2,0,0.4,0.1,0.6c0.1,0.1,0.2,0.2,0.5,0.3c0.1,0,0.3,0,0.5,0c0.2-0.1,0.4-0.1,0.5-0.3
		c0,0,0-0.1,0-0.1c0-0.1,0-0.2,0-0.2c0-0.1-0.1-0.2-0.1-0.3c0-0.1-0.1-0.2-0.1-0.2l0.5-0.9c0.1,0,0.2,0.1,0.2,0.3
		c0,0.1,0.1,0.3,0.1,0.5c0,0.2,0,0.4,0,0.6c0,0.2,0,0.3-0.1,0.5c-0.1,0.3-0.2,0.6-0.4,0.9c-0.2,0.3-0.4,0.4-0.8,0.5
		c-0.3,0.1-0.6,0-0.8-0.1C279.6,14,279.4,13.9,279.3,13.7z"/>
	<path class="st0" d="M278.4,28.7c0.3-0.8,0.5-1.6,0.7-2.4c0.1-0.8,0.2-1.6,0.3-2.5c0.1-1.9,0-3.5-0.1-5c0-0.2-0.1-0.4-0.2-0.5
		c-0.1-0.1-0.2-0.3-0.3-0.5l1.1-1.6c0.1-0.1,0.1-0.1,0.2-0.1c0.1,0,0.1,0,0.1,0.1c0.1,0.4,0.2,0.9,0.4,1.4c0.2,0.5,0.5,0.8,0.7,1.1
		c-0.1,0.1-0.1,0.2-0.2,0.3c-0.1,0.1-0.2,0.2-0.3,0.3c-0.1,0.1-0.2,0.3-0.2,0.4c-0.1,0.1-0.1,0.3-0.1,0.5c0,0.8,0,1.7,0,2.5
		c-0.1,0.9-0.1,1.7-0.3,2.5c-0.1,0.8-0.3,1.6-0.5,2.4c-0.2,0.8-0.4,1.4-0.7,2c0.3,0.5,0.5,1,0.7,1.5c0.2,0.5,0.3,1,0.4,1.6
		c0,0.4,0,0.7-0.1,1c-0.1,0.3-0.2,0.7-0.4,1c-0.3,0.1-0.7,0.1-1.1,0.2c-0.4,0.1-0.9,0.1-1.4,0.2c-0.5,0.1-1,0.1-1.5,0.1
		c-0.5,0-0.9,0.1-1.3,0.1c-0.1,0-0.1-0.3,0-0.8c0.1-0.5,0.1-0.8,0.2-0.9c0-0.1,0.1-0.2,0.2-0.2c0.2,0,0.4,0,0.6-0.1
		c0.2-0.1,0.3-0.1,0.3-0.2c0.1-0.1,0.3-0.3,0.5-0.5c0.2-0.2,0.4-0.5,0.7-0.8c0.2-0.3,0.5-0.6,0.7-0.9c0.2-0.3,0.4-0.6,0.5-0.9
		c-0.4-0.6-0.8-1.3-1.3-2c-0.5-0.7-1-1.4-1.5-2.1c-0.5-0.7-1.1-1.3-1.6-2c-0.6-0.6-1.1-1.2-1.7-1.7c-0.2,0.1-0.5,0.2-0.8,0.2
		c-0.2-0.1-0.4-0.1-0.7-0.2c-0.3-0.1-0.5-0.2-0.7-0.4c-0.2-0.2-0.4-0.3-0.6-0.5c-0.2-0.2-0.3-0.4-0.3-0.6c0-0.4,0-0.8,0.1-1.2
		c0.1-0.4,0.1-0.7,0.2-0.9c0.1-0.2,0.1-0.3,0.2-0.3c0.1,0,0.2,0,0.4,0.1c0.9,0.6,1.7,1.3,2.5,2.2c0.8,0.9,1.6,1.8,2.4,2.7
		c0.8,1,1.5,1.9,2.2,2.9C277.3,27,277.9,27.9,278.4,28.7z M279.3,32.9c0-0.1,0-0.2-0.1-0.4c-0.1-0.2-0.2-0.4-0.2-0.6
		c-0.1-0.2-0.2-0.4-0.3-0.6c-0.1-0.2-0.2-0.3-0.2-0.4c-0.1,0.2-0.2,0.4-0.4,0.6c-0.1,0.2-0.3,0.4-0.4,0.6c-0.2,0.2-0.3,0.4-0.5,0.6
		c-0.2,0.2-0.3,0.4-0.5,0.6c0.2,0,0.4,0,0.6,0c0.2,0,0.5,0,0.7-0.1c0.2,0,0.5-0.1,0.7-0.1C278.9,33,279.1,33,279.3,32.9z"/>
	<path class="st0" d="M288,40.7c-0.8,0.3-1.6,0.5-2.5,0.8c-0.8,0.3-1.6,0.5-2.3,0.8c-0.1,0-0.2,0-0.1-0.1l0.5-1c0-0.1,0-0.1,0.1-0.1
		c0,0,0.1,0,0.1-0.1c0.2-0.1,0.5-0.2,0.9-0.3c0.4-0.1,0.8-0.3,1.2-0.4c0.4-0.1,0.9-0.3,1.3-0.4c0.5-0.1,0.9-0.3,1.3-0.4
		c0.1,0,0.1,0,0.1,0c0,0,0,0.1,0,0.1l-0.5,1C288.1,40.6,288.1,40.6,288,40.7C288,40.6,288,40.7,288,40.7z"/>
	<path class="st0" d="M283.7,38.2c0,0,0.1-0.1,0.2-0.1c0.1,0,0.2-0.1,0.3-0.1c0.1,0,0.2-0.1,0.3-0.1c0.1,0,0.2-0.1,0.2-0.1
		c-0.2-0.1-0.3-0.3-0.5-0.5c-0.2-0.2-0.3-0.4-0.4-0.6c-0.1-0.1-0.1-0.3,0-0.4c0-0.1,0.1-0.3,0.2-0.4c0.1-0.2,0.3-0.3,0.4-0.5
		c0.2-0.2,0.3-0.3,0.5-0.5c0.2-0.1,0.4-0.3,0.6-0.3c0.2-0.1,0.4-0.1,0.7-0.1c0.1,0,0.2,0,0.3,0.1c0.1,0.1,0.2,0.1,0.2,0.2
		c0.1,0.1,0.1,0.2,0.2,0.3c0.1,0.1,0.1,0.2,0.1,0.2c0.1,0.2,0.1,0.3,0,0.4c-0.1,0.3-0.2,0.4-0.3,0.5c-0.1,0.1-0.1,0.1-0.2,0.1
		c-0.1,0-0.1-0.1-0.1-0.1c0-0.1-0.1-0.2-0.1-0.3c-0.1-0.1-0.1-0.2-0.2-0.3c-0.1,0-0.2-0.1-0.3-0.1c-0.4,0-0.7,0.1-1,0.4
		c0.1,0.1,0.1,0.3,0.2,0.4c0.1,0.1,0.2,0.2,0.3,0.4c0.1,0.1,0.3,0.2,0.4,0.3c0.1,0.1,0.3,0.1,0.4,0.1c0.4,0,0.8,0,1.2,0
		c0.4-0.1,0.8-0.1,1.2-0.2c0,0,0,0.1,0,0.2c0,0.1-0.1,0.2-0.1,0.4c-0.1,0.1-0.1,0.2-0.2,0.4c-0.1,0.1-0.1,0.2-0.1,0.2
		c-0.3,0-0.7,0.1-1,0.1c-0.3,0.1-0.7,0.1-1.1,0.3c-0.4,0.1-0.8,0.2-1.2,0.4c-0.4,0.2-0.8,0.4-1.1,0.5c-0.1,0-0.1,0-0.1,0
		c0,0,0-0.1,0-0.1c0,0,0-0.1,0.1-0.2c0-0.1,0.1-0.2,0.1-0.3c0-0.1,0.1-0.2,0.1-0.3C283.6,38.4,283.6,38.3,283.7,38.2z M284.7,17.7
		c0,0,0.1,0,0.1,0.1c0,0,0,0.1,0.1,0.1c0,0,0,0.1,0,0.2c0,0.1,0,0.1,0,0.1c0,0.3,0,0.6,0,0.9c0,0.3,0.1,0.6,0.1,0.9
		c0.1,0.7,0.2,1.4,0.3,2.2c0.1,0.8,0.2,1.5,0.3,2.3c0.1,0.8,0.2,1.5,0.3,2.3c0.1,0.8,0.2,1.5,0.3,2.2c0,0.3,0.1,0.6,0.1,1
		c0,0.4,0,0.8,0,1.1c0,0.4-0.1,0.8-0.1,1.1c-0.1,0.4-0.2,0.6-0.3,0.9c0,0.1-0.1,0.1-0.1,0.2c0,0-0.1,0.1-0.1,0.1
		c-0.1,0-0.1,0-0.1-0.1c-0.1-0.7-0.1-1.4-0.2-2.1c-0.1-0.7-0.2-1.4-0.3-2.2c-0.2-1.5-0.4-3-0.6-4.5c-0.2-1.5-0.4-3-0.6-4.5
		c0-0.2,0.1-0.4,0.1-0.6c0.1-0.2,0.1-0.4,0.2-0.6c0-0.1,0.1-0.2,0.1-0.4c0.1-0.1,0.1-0.3,0.1-0.4c0-0.1,0.1-0.2,0.1-0.3
		S284.7,17.7,284.7,17.7z"/>
	<path class="st1" d="M299.6,32.5c0.3,0,0.4,0.1,0.6,0.3c0.1,0.2,0.2,0.4,0.2,0.7c0,0.2-0.1,0.5-0.2,0.7c-0.1,0.2-0.3,0.3-0.6,0.3
		c0,0-0.1,0-0.1,0c0,0-0.1,0-0.1,0c-0.8,0-1.4-0.1-1.9-0.4c-0.5-0.3-0.9-0.7-1.2-1.1c-0.3-0.6-0.6-1.2-0.7-1.8
		c-0.1-0.6-0.2-1.3-0.3-1.9c-0.1-0.7-0.2-1.5-0.2-2.2c-0.1-0.7-0.2-1.5-0.3-2.2c-0.1-0.8-0.2-1.5-0.3-2.3c-0.1-0.8-0.3-1.6-0.6-2.5
		c0-0.1,0-0.1,0-0.2c0,0,0-0.1,0-0.1l0.7-1.7c0-0.1,0.1-0.1,0.1-0.1c0,0,0.1,0,0.1,0.1c0.1,0.5,0.2,1,0.3,1.5c0.1,0.5,0.2,1,0.3,1.6
		c0.1,0.6,0.2,1.2,0.2,1.8c0.1,0.7,0.2,1.4,0.3,2.3c0.1,0.6,0.1,1.2,0.2,1.8c0.1,0.6,0.1,1.2,0.2,1.7c0.1,0.5,0.1,0.9,0.2,1.4
		c0.1,0.5,0.2,0.9,0.4,1.3c0.2,0.3,0.5,0.6,0.8,0.8c0.4,0.2,0.9,0.3,1.6,0.3C299.5,32.5,299.5,32.5,299.6,32.5
		C299.6,32.5,299.6,32.5,299.6,32.5z"/>
	<path class="st1" d="M304.8,21.5c-0.4,0.2-0.9,0.4-1.3,0.6c-0.5,0.2-0.9,0.4-1.3,0.6c-0.4,0.2-0.8,0.4-1.2,0.5
		c-0.4,0.2-0.7,0.3-1,0.4c-0.1,0-0.1,0-0.1,0s0-0.1,0-0.1l0.6-1.2c0-0.1,0.1-0.1,0.1-0.1c0,0,0.1-0.1,0.1-0.1l4.6-2.1
		c0.1-0.1,0.2,0,0.1,0.1l-0.5,1.2C304.9,21.4,304.8,21.4,304.8,21.5z"/>
	<path class="st1" d="M299.5,34.5h-0.2c-0.3,0-0.4-0.1-0.6-0.3c-0.1-0.2-0.2-0.4-0.2-0.7c0-0.1,0-0.3,0-0.4c0-0.1,0.1-0.2,0.1-0.3
		c0.1-0.1,0.1-0.2,0.2-0.2c0.1-0.1,0.2-0.1,0.3-0.1h0.2c0.3,0,0.6,0,0.9,0c0.3,0,0.6-0.1,0.9-0.1c0.3-0.1,0.6-0.2,0.8-0.3
		c0.3-0.2,0.5-0.4,0.7-0.7c0.2-0.2,0.3-0.4,0.4-0.6c0.1-0.2,0.2-0.5,0.3-0.7c0-0.1,0.1-0.2,0.2-0.2c0.1,0,0.1,0,0.2,0.1
		c0,0.1,0,0.2,0,0.4c0,0.1,0,0.3,0,0.4c0,0.2,0.1,0.4,0.2,0.7c0.1,0.2,0.3,0.4,0.5,0.6c0.2,0.2,0.5,0.3,0.9,0.4
		c0.4,0.1,0.9,0.2,1.4,0.2h0.2c0.1,0,0.2,0,0.3,0.1c0.1,0.1,0.2,0.1,0.2,0.2c0.1,0.1,0.1,0.2,0.1,0.3c0,0.1,0,0.2,0,0.4
		c0,0.3-0.1,0.5-0.2,0.7c-0.1,0.2-0.3,0.3-0.6,0.3h-0.2c-0.5,0-0.9,0-1.3-0.1c-0.4-0.1-0.8-0.2-1-0.4c-0.6-0.3-1-0.8-1.3-1.5
		c-0.2,0.4-0.4,0.7-0.7,1c-0.3,0.3-0.5,0.5-0.8,0.6c-0.3,0.2-0.7,0.3-1.1,0.3C300.3,34.4,299.9,34.5,299.5,34.5z M304.8,39.5
		c0,0.1-0.1,0.1-0.1,0.1c0,0-0.1,0-0.1-0.1l-1.5-1.2l-1,1.4c-0.1,0.1-0.1,0.1-0.2,0l-1.6-1.2c-0.1,0-0.1-0.1,0-0.2l1-1.5
		c0-0.1,0.1-0.1,0.1-0.1s0.1,0,0.1,0.1l1.5,1.2l1-1.3c0.1-0.1,0.1-0.1,0.2,0l1.6,1.3c0.1,0,0.1,0.1,0,0.2L304.8,39.5z"/>
	<path class="st1" d="M311.6,17c0,0.3,0,0.6-0.1,0.8c-0.1,0.3-0.2,0.5-0.4,0.7c-0.2,0.2-0.4,0.4-0.6,0.5c-0.3,0.1-0.5,0.2-0.9,0.2
		c-0.4,0-0.8-0.1-1.1-0.4c-0.3-0.3-0.5-0.7-0.5-1.1c0-0.2,0-0.5,0.1-0.9c0.1-0.3,0.2-0.7,0.3-1c0.2-0.3,0.3-0.6,0.6-0.8
		c0.2-0.2,0.5-0.4,0.9-0.4c0.3,0,0.6,0,0.8,0.2c0.2,0.2,0.4,0.4,0.5,0.6c0.1,0.3,0.2,0.5,0.3,0.8C311.6,16.5,311.6,16.8,311.6,17z
		 M308.6,17.3c0,0.1,0,0.3,0.1,0.3c0.1,0.1,0.2,0.1,0.3,0.2c0.1,0,0.2,0.1,0.4,0.1c0.1,0,0.2,0,0.3,0c0.2,0,0.5-0.1,0.7-0.2
		c0.2-0.1,0.4-0.2,0.6-0.4c0-0.2,0-0.3-0.1-0.5c-0.1-0.2-0.1-0.3-0.2-0.5c-0.1-0.1-0.2-0.2-0.4-0.3c-0.2-0.1-0.3-0.1-0.6-0.1
		c-0.1,0-0.3,0.1-0.4,0.2c-0.1,0.1-0.2,0.2-0.3,0.3c-0.1,0.1-0.2,0.2-0.3,0.4C308.7,17,308.6,17.2,308.6,17.3z"/>
	<path class="st1" d="M311.5,27.4c0-0.1,0.1-0.1,0.3,0c0.2,0.2,0.4,0.5,0.6,0.8c0.2,0.3,0.4,0.6,0.5,0.9c0.1,0.3,0.3,0.6,0.4,0.9
		c0.1,0.3,0.1,0.6,0.1,1c0,0.1,0,0.3,0,0.5c0,0.2-0.1,0.4-0.1,0.5c0,0.2-0.1,0.4-0.1,0.5c-0.1,0.2-0.1,0.3-0.2,0.4
		c-0.1,0.2-0.4,0.4-0.7,0.5c-0.3,0.2-0.6,0.3-1,0.4c-0.4,0.1-0.8,0.2-1.2,0.3c-0.4,0.1-0.9,0.1-1.3,0.2c-0.4,0-0.8,0.1-1.2,0.1
		c-0.4,0-0.7,0-0.9,0h-0.2c-0.3,0-0.5-0.1-0.6-0.3c-0.1-0.2-0.2-0.4-0.2-0.7c0-0.3,0.1-0.5,0.2-0.7c0.1-0.2,0.3-0.3,0.6-0.3h0.2
		c0.1,0,0.3,0,0.6,0c0.3,0,0.6,0,1,0c0.4,0,0.8,0,1.2-0.1c0.4,0,0.8-0.1,1.2-0.1c0.4,0,0.7-0.1,1-0.2c0.3-0.1,0.5-0.1,0.7-0.2
		c0.1-0.1,0.2-0.2,0.2-0.3c-0.1-0.5-0.4-0.9-0.6-1.2c-0.3-0.4-0.6-0.7-1-1.1c0.1-0.3,0.1-0.6,0.2-0.9
		C311.4,28,311.5,27.7,311.5,27.4z M310.4,21.7l1.6,1.3c0.1,0.1,0.1,0.1,0,0.2l-1,1.3c-0.1,0.1-0.1,0.1-0.2,0l-1.6-1.3
		c-0.1-0.1-0.1-0.1,0-0.2l1.1-1.3C310.2,21.7,310.3,21.6,310.4,21.7z"/>
	<path class="st1" d="M319.7,21.6c-0.2,0.4-0.4,0.7-0.6,0.8c-0.3,0.2-0.6,0.3-0.9,0.3c-0.3,0-0.5-0.1-0.7-0.2
		c-0.2-0.2-0.3-0.4-0.4-0.8c0-0.2,0-0.3,0-0.5c0-0.2,0.1-0.4,0.2-0.5c0.1-0.2,0.1-0.3,0.2-0.4c0.1-0.1,0.2-0.2,0.3-0.2
		c0.1,0,0.1,0.1,0,0.2c-0.1,0.1-0.1,0.2-0.1,0.3c0,0.1,0,0.3-0.1,0.4c0,0.1,0,0.2,0,0.3c0,0.1,0.1,0.2,0.2,0.2
		c0.1,0.1,0.3,0.1,0.4,0.1c0.1,0,0.3,0,0.4-0.1c0.1-0.1,0.3-0.1,0.4-0.2c0.1-0.1,0.2-0.2,0.3-0.3c0.1-0.1,0.2-0.3,0.2-0.5
		c0.1-0.2,0.1-0.4,0.1-0.5c0-0.1,0-0.2,0.1-0.3c0.1-0.1,0.1-0.2,0.3-0.2c0,0,0,0,0.1,0.1c0,0,0,0.1,0,0.2c0,0.1,0,0.1,0,0.2
		c0,0.1,0,0.1,0,0.1c0,0.2,0,0.4,0.1,0.6c0.1,0.1,0.2,0.2,0.5,0.3c0.1,0,0.3,0,0.5,0c0.2-0.1,0.4-0.1,0.5-0.3c0,0,0-0.1,0-0.1
		c0-0.1,0-0.2,0-0.2c0-0.1-0.1-0.2-0.1-0.3c0-0.1-0.1-0.2-0.1-0.2L322,19c0.1,0,0.2,0.1,0.2,0.3c0,0.1,0.1,0.3,0.1,0.5
		c0,0.2,0,0.4,0,0.6c0,0.2,0,0.3-0.1,0.5c-0.1,0.3-0.2,0.6-0.4,0.9c-0.2,0.3-0.4,0.4-0.8,0.5c-0.3,0.1-0.6,0-0.8-0.1
		C320,22,319.8,21.8,319.7,21.6z M317.5,18.5c0.3-0.1,0.6-0.3,0.9-0.4c0.3-0.1,0.6-0.3,0.8-0.5c0.3-0.2,0.6-0.4,0.8-0.6
		c0.3-0.2,0.5-0.4,0.8-0.7c-0.2-0.1-0.5-0.2-0.8-0.3c-0.3-0.1-0.5-0.3-0.6-0.5c-0.1-0.1-0.1-0.2-0.1-0.3c0-0.1,0-0.3,0-0.4
		c0.1-0.2,0.2-0.4,0.3-0.6c0.1-0.2,0.3-0.4,0.5-0.6c0.2-0.2,0.4-0.3,0.6-0.4c0.2-0.1,0.4-0.2,0.7-0.2c0.3,0,0.5,0.1,0.6,0.3
		c0.1,0.2,0.2,0.5,0.2,0.7c0,0.3,0,0.6,0,0.8c0,0.3-0.1,0.5-0.1,0.6c0,0,0,0.1,0,0.1c0.1,0.1,0.2,0.1,0.2,0.2c0,0,0.1,0.1,0.1,0.2
		c0.1,0.1,0.1,0.3,0,0.4c0,0.2-0.1,0.3-0.2,0.4c-0.1,0.1-0.1,0.1-0.2,0.1c-0.1,0-0.1,0-0.2-0.1c0,0-0.1-0.1-0.1-0.1
		c0,0-0.1-0.1-0.2-0.1c-0.3,0.3-0.5,0.5-0.8,0.8c-0.3,0.2-0.6,0.5-0.9,0.7c-0.3,0.2-0.7,0.4-1,0.5c-0.3,0.2-0.7,0.3-1.1,0.4
		c-0.2,0-0.3,0.1-0.5,0.1c-0.2,0-0.3,0-0.3,0c0,0,0-0.1,0.1-0.2C317.3,18.6,317.4,18.5,317.5,18.5z M320,14.5
		c0.2,0.2,0.4,0.4,0.7,0.5c0.3,0.1,0.5,0.2,0.7,0.3h0c0-0.1,0-0.1,0-0.3c0-0.1,0-0.2,0-0.3c0-0.1,0-0.2-0.1-0.3
		c0-0.1-0.1-0.2-0.2-0.3c-0.1-0.1-0.2-0.1-0.3-0.1c-0.1,0-0.3,0-0.4,0.1c-0.1,0-0.2,0.1-0.3,0.2C320.1,14.4,320,14.5,320,14.5z"/>
	<path class="st1" d="M327.6,31.7c-0.1-0.9-0.2-1.8-0.3-2.8c-0.1-1-0.3-2-0.4-3.1c-0.1-1-0.3-2-0.4-3c-0.2-1-0.3-1.9-0.4-2.7
		c-0.1-0.4-0.1-0.7-0.2-1c-0.1-0.3-0.2-0.7-0.4-1c-0.1-0.1-0.1-0.2-0.1-0.2c0,0,0-0.1,0.1-0.2c0.1-0.2,0.3-0.5,0.4-0.8
		c0.1-0.3,0.2-0.5,0.4-0.7c0-0.1,0.1-0.1,0.1-0.1c0,0,0.1,0,0.1,0.1c0.1,0.2,0.1,0.4,0.2,0.6c0.1,0.2,0.2,0.4,0.3,0.6
		c0.1,0.2,0.2,0.4,0.4,0.6c0.2,0.2,0.3,0.3,0.5,0.4c-0.1,0.2-0.2,0.4-0.3,0.5c-0.1,0.1-0.2,0.3-0.2,0.4c-0.1,0.1-0.1,0.2-0.1,0.4
		c0,0.1,0,0.2,0,0.4c0.1,0.7,0.2,1.4,0.3,2.2c0.1,0.8,0.2,1.5,0.3,2.3s0.2,1.6,0.3,2.4c0.1,0.8,0.2,1.6,0.3,2.3c0,0.3,0,0.7,0,1.1
		c0,0.4-0.1,0.8-0.1,1.3c-0.1,0.4-0.2,0.8-0.3,1.2c-0.1,0.4-0.3,0.7-0.5,0.9c-0.2,0.2-0.4,0.3-0.6,0.4c-0.3,0.1-0.5,0.2-0.8,0.2
		c-0.3,0-0.6,0-0.8,0c-0.3,0-0.5-0.1-0.7-0.2c-0.3-0.2-0.5-0.4-0.8-0.6c-0.2-0.2-0.4-0.5-0.6-0.8c-0.2-0.3-0.3-0.6-0.5-1
		c-0.1-0.3-0.2-0.7-0.3-1c-0.1,0.4-0.3,0.7-0.6,1.1c-0.3,0.3-0.6,0.6-1,0.8c-0.2,0.1-0.4,0.2-0.7,0.3c-0.3,0.1-0.5,0.2-0.8,0.2
		c-0.3,0.1-0.6,0.1-0.9,0.1c-0.3,0-0.6,0-0.9,0c-0.3,0-0.5-0.1-0.8-0.1c-0.2-0.1-0.4-0.2-0.6-0.3c-0.1-0.1-0.2-0.3-0.2-0.5
		c0-0.2-0.1-0.4-0.1-0.6s0-0.5,0.1-0.7c0-0.2,0.1-0.4,0.2-0.5c0-0.1,0.1-0.1,0.1-0.1c0,0,0.1,0,0.1,0.1c0.1,0.3,0.3,0.5,0.5,0.6
		c0.2,0.1,0.4,0.2,0.7,0.2c0.4,0.1,0.8,0.1,1.3,0c0.5,0,0.9-0.1,1.4-0.3c0.4-0.1,0.8-0.3,1.2-0.5c0.4-0.2,0.6-0.5,0.8-0.7
		c-0.1-0.6-0.3-1.3-0.4-1.9c-0.1-0.7-0.3-1.3-0.4-1.9c0-0.1,0-0.2,0-0.3c0-0.1,0.1-0.3,0.1-0.4c0.1-0.1,0.1-0.3,0.2-0.4
		c0.1-0.1,0.1-0.3,0.1-0.4c0-0.1,0.1-0.1,0.1-0.1c0.1,0,0.1,0.1,0.1,0.1c0.1,0.3,0.1,0.7,0.2,1.1c0.1,0.4,0.1,0.8,0.2,1.2
		c0.1,0.4,0.2,0.8,0.2,1.2c0.1,0.4,0.2,0.8,0.2,1.1c0.1,0.4,0.2,0.9,0.3,1.2c0.1,0.4,0.3,0.7,0.4,1c0.2,0.3,0.4,0.5,0.6,0.7
		c0.3,0.2,0.6,0.3,0.9,0.4c0.2,0,0.4,0.1,0.6,0c0.3,0,0.5,0,0.8-0.1s0.5-0.1,0.7-0.3C327.5,32.1,327.6,31.9,327.6,31.7z"/>
	<path class="st1" d="M331.5,18c0.1,0,0.2,0.2,0.2,0.5c0,0.3,0,0.6,0,0.9c0,0.3,0.1,0.6,0.1,0.9c0.1,0.8,0.2,1.5,0.3,2.3
		c0.1,0.8,0.2,1.6,0.4,2.4c0.1,0.8,0.2,1.6,0.3,2.4c0.1,0.8,0.2,1.6,0.3,2.3c0,0.3,0.1,0.6,0.1,1c0,0.4,0,0.8,0,1.2
		c0,0.4-0.1,0.8-0.1,1.2c-0.1,0.4-0.2,0.7-0.3,1c-0.1,0.1-0.1,0.2-0.2,0.3c-0.1,0-0.1,0-0.1-0.1c-0.1-0.7-0.1-1.5-0.2-2.2
		c-0.1-0.7-0.2-1.5-0.3-2.3c-0.1-0.8-0.2-1.6-0.3-2.4c-0.1-0.8-0.2-1.6-0.3-2.4c-0.1-0.8-0.2-1.6-0.3-2.4c-0.1-0.8-0.2-1.6-0.3-2.4
		c0-0.2,0.1-0.4,0.1-0.6c0.1-0.2,0.1-0.4,0.2-0.6c0.2-0.5,0.3-0.9,0.4-1C331.4,18.1,331.5,18,331.5,18z"/>
	<path class="st0" d="M340.3,21.1c0.3-0.2,0.6-0.3,0.8-0.5c0.3-0.2,0.5-0.3,0.8-0.5c0.3-0.2,0.5-0.4,0.8-0.6
		c0.3-0.2,0.5-0.5,0.7-0.7c-0.2-0.1-0.5-0.2-0.7-0.3c-0.3-0.2-0.5-0.3-0.6-0.5c-0.1-0.1-0.1-0.2-0.1-0.4c0-0.1,0-0.3,0-0.4
		c0.1-0.2,0.2-0.4,0.3-0.7c0.1-0.2,0.3-0.5,0.4-0.6c0.2-0.2,0.4-0.4,0.6-0.5c0.2-0.1,0.4-0.2,0.6-0.2c0.3,0,0.5,0.1,0.6,0.4
		c0.1,0.2,0.2,0.5,0.2,0.8c0,0.3,0,0.6,0,0.9c0,0.3-0.1,0.5-0.1,0.6c0,0,0,0.1,0,0.1c0.1,0.1,0.2,0.1,0.2,0.2c0,0.1,0.1,0.1,0.1,0.2
		c0.1,0.1,0.1,0.3,0,0.5c0,0.2-0.1,0.3-0.2,0.4c-0.1,0.1-0.1,0.1-0.2,0.1c-0.1,0-0.1,0-0.2-0.1c0-0.1-0.1-0.1-0.1-0.1
		c0,0-0.1-0.1-0.2-0.1c-0.2,0.3-0.5,0.6-0.8,0.8c-0.3,0.3-0.5,0.5-0.8,0.7c-0.3,0.2-0.6,0.4-1,0.6c-0.3,0.2-0.7,0.3-1,0.4
		c-0.1,0-0.3,0.1-0.4,0.1c-0.2,0-0.2,0-0.3,0c0-0.1,0-0.1,0.1-0.2C340.1,21.3,340.2,21.2,340.3,21.1z M342.7,16.9
		c0.2,0.2,0.4,0.4,0.6,0.6c0.2,0.1,0.5,0.2,0.7,0.3h0c0-0.1,0-0.2,0-0.3c0-0.1,0-0.2,0-0.3c0-0.1,0-0.2-0.1-0.3
		c0-0.1-0.1-0.2-0.2-0.3c-0.1-0.1-0.2-0.1-0.3-0.1c-0.1,0-0.2,0-0.4,0.1c-0.1,0-0.2,0.1-0.3,0.2C342.8,16.7,342.7,16.8,342.7,16.9z"
		/>
	<path class="st0" d="M344.8,25.3c0,0.1-0.1,0.1-0.1,0.1c0,0-0.1,0-0.1-0.1l-1.5-1.2l-1,1.4c-0.1,0.1-0.1,0.1-0.2,0l-1.6-1.2
		c-0.1,0-0.1-0.1,0-0.2l1-1.5c0-0.1,0.1-0.1,0.1-0.1c0,0,0.1,0,0.1,0.1l1.5,1.2l1-1.3c0.1-0.1,0.1-0.1,0.2,0l1.6,1.3
		c0.1,0,0.1,0.1,0,0.2L344.8,25.3z M341.7,29.3l0.6-1.6c0.6,0.1,1.1,0.2,1.5,0.4c0.4,0.2,0.8,0.4,1.1,0.7c0.3,0.3,0.5,0.6,0.7,0.9
		c0.2,0.4,0.2,0.7,0.2,1.2c0,0.3,0,0.6-0.1,0.9c-0.1,0.3-0.2,0.7-0.3,1c-0.1,0.2-0.2,0.4-0.4,0.6c-0.2,0.2-0.4,0.4-0.6,0.5
		c-0.2,0.1-0.4,0.2-0.7,0.3c-0.2,0.1-0.5,0.1-0.7,0.1c-0.4,0-0.8-0.1-1-0.2c-0.3-0.2-0.5-0.4-0.6-0.6c-0.2-0.3-0.3-0.6-0.3-0.9
		c0-0.3,0-0.7,0.1-1.1c0.1-0.4,0.2-0.8,0.3-1.1c0.1-0.4,0.3-0.7,0.4-1.1C341.7,29.3,341.7,29.3,341.7,29.3z M342.4,32.2
		c0.2,0.1,0.3,0.1,0.6,0.2c0.2,0,0.4,0,0.7,0c0.2,0,0.5-0.1,0.7-0.2c0.2-0.1,0.4-0.3,0.6-0.5c0-0.2-0.1-0.4-0.3-0.7
		c-0.2-0.2-0.5-0.4-0.7-0.6c-0.3-0.2-0.6-0.3-0.9-0.5c-0.3-0.1-0.5-0.2-0.7-0.2c-0.1,0.2-0.2,0.4-0.3,0.6c-0.1,0.2-0.1,0.5-0.2,0.7
		c0,0.2,0,0.5,0.1,0.7C342.1,32,342.2,32.1,342.4,32.2z"/>
	<path class="st0" d="M353.2,32.5c0.3,0,0.4,0.1,0.6,0.3c0.1,0.2,0.2,0.4,0.2,0.7c0,0.2-0.1,0.5-0.2,0.7c-0.1,0.2-0.3,0.3-0.6,0.3
		c0,0-0.1,0-0.1,0c0,0-0.1,0-0.1,0c-0.8,0-1.4-0.1-1.9-0.4c-0.5-0.3-0.9-0.7-1.2-1.1c-0.3-0.6-0.6-1.2-0.7-1.8
		c-0.1-0.6-0.2-1.3-0.3-1.9c-0.1-0.7-0.2-1.5-0.2-2.2c-0.1-0.7-0.2-1.5-0.3-2.2c-0.1-0.8-0.2-1.5-0.3-2.3c-0.1-0.8-0.3-1.6-0.6-2.5
		c0-0.1,0-0.1,0-0.2c0,0,0-0.1,0-0.1l0.7-1.7c0-0.1,0.1-0.1,0.1-0.1c0,0,0.1,0,0.1,0.1c0.1,0.5,0.2,1,0.3,1.5c0.1,0.5,0.2,1,0.3,1.6
		c0.1,0.6,0.2,1.2,0.2,1.8c0.1,0.7,0.2,1.4,0.3,2.3c0.1,0.6,0.1,1.2,0.2,1.8c0.1,0.6,0.1,1.2,0.2,1.7c0.1,0.5,0.1,0.9,0.2,1.4
		c0.1,0.5,0.2,0.9,0.4,1.3c0.2,0.3,0.5,0.6,0.8,0.8c0.4,0.2,0.9,0.3,1.6,0.3C353,32.5,353.1,32.5,353.2,32.5
		C353.1,32.5,353.2,32.5,353.2,32.5z"/>
	<path class="st0" d="M358.3,21.5c-0.4,0.2-0.9,0.4-1.3,0.6c-0.5,0.2-0.9,0.4-1.3,0.6c-0.4,0.2-0.8,0.4-1.2,0.5
		c-0.4,0.2-0.7,0.3-1,0.4c-0.1,0-0.1,0-0.1,0c0,0,0-0.1,0-0.1l0.6-1.2c0-0.1,0.1-0.1,0.1-0.1c0,0,0.1-0.1,0.1-0.1l4.6-2.1
		c0.1-0.1,0.2,0,0.1,0.1l-0.5,1.2C358.5,21.4,358.4,21.4,358.3,21.5z"/>
	<path class="st0" d="M353,34.5h-0.2c-0.3,0-0.4-0.1-0.6-0.3c-0.1-0.2-0.2-0.4-0.2-0.7c0-0.1,0-0.3,0-0.4c0-0.1,0.1-0.2,0.1-0.3
		c0.1-0.1,0.1-0.2,0.2-0.2c0.1-0.1,0.2-0.1,0.3-0.1h0.2c0.3,0,0.6,0,0.9,0c0.3,0,0.6-0.1,0.9-0.1c0.3-0.1,0.6-0.2,0.8-0.3
		c0.3-0.2,0.5-0.4,0.7-0.7c0.2-0.2,0.3-0.4,0.4-0.6c0.1-0.2,0.2-0.5,0.3-0.7c0-0.1,0.1-0.2,0.2-0.2c0.1,0,0.1,0,0.2,0.1
		c0,0.1,0,0.2,0,0.4c0,0.1,0,0.3,0,0.4c0,0.2,0.1,0.4,0.2,0.7c0.1,0.2,0.3,0.4,0.5,0.6c0.2,0.2,0.5,0.3,0.9,0.4
		c0.4,0.1,0.9,0.2,1.4,0.2h0.2c0.1,0,0.2,0,0.3,0.1c0.1,0.1,0.2,0.1,0.2,0.2c0.1,0.1,0.1,0.2,0.1,0.3c0,0.1,0,0.2,0,0.4
		c0,0.3-0.1,0.5-0.2,0.7c-0.1,0.2-0.3,0.3-0.6,0.3h-0.2c-0.5,0-0.9,0-1.3-0.1c-0.4-0.1-0.8-0.2-1-0.4c-0.6-0.3-1-0.8-1.3-1.5
		c-0.2,0.4-0.4,0.7-0.7,1c-0.3,0.3-0.5,0.5-0.8,0.6c-0.3,0.2-0.7,0.3-1.1,0.3C353.8,34.4,353.4,34.5,353,34.5z M358.3,39.5
		c0,0.1-0.1,0.1-0.1,0.1c0,0-0.1,0-0.1-0.1l-1.5-1.2l-1,1.4c-0.1,0.1-0.1,0.1-0.2,0l-1.6-1.2c-0.1,0-0.1-0.1,0-0.2l1-1.5
		c0-0.1,0.1-0.1,0.1-0.1c0,0,0.1,0,0.1,0.1l1.5,1.2l1-1.3c0.1-0.1,0.1-0.1,0.2,0l1.6,1.3c0.1,0,0.1,0.1,0,0.2L358.3,39.5z"/>
	<path class="st0" d="M366,23.4c-0.4,0.2-0.9,0.4-1.3,0.6c-0.5,0.2-0.9,0.4-1.3,0.6c-0.4,0.2-0.8,0.4-1.2,0.5
		c-0.4,0.2-0.7,0.3-1,0.4c-0.1,0-0.1,0-0.1,0c0,0,0-0.1,0-0.1l0.6-1.2c0-0.1,0.1-0.1,0.1-0.1c0,0,0.1-0.1,0.1-0.1l4.6-2.1
		c0.1-0.1,0.2,0,0.1,0.1l-0.5,1.2C366.2,23.3,366.1,23.3,366,23.4z"/>
	<path class="st0" d="M369.3,11.6c0,0.3,0,0.6-0.1,0.8c-0.1,0.3-0.2,0.5-0.4,0.7c-0.2,0.2-0.4,0.4-0.6,0.5c-0.3,0.1-0.5,0.2-0.9,0.2
		c-0.4,0-0.8-0.1-1.1-0.4s-0.5-0.7-0.5-1.1c0-0.2,0-0.5,0.1-0.9c0.1-0.3,0.2-0.7,0.3-1c0.2-0.3,0.3-0.6,0.6-0.8
		c0.2-0.2,0.5-0.4,0.9-0.4c0.3,0,0.6,0,0.8,0.2c0.2,0.2,0.4,0.4,0.5,0.6c0.1,0.3,0.2,0.5,0.3,0.8C369.3,11.1,369.3,11.4,369.3,11.6z
		 M366.3,11.9c0,0.1,0,0.3,0.1,0.3c0.1,0.1,0.2,0.1,0.3,0.2c0.1,0,0.2,0.1,0.4,0.1c0.1,0,0.2,0,0.3,0c0.2,0,0.5-0.1,0.7-0.2
		c0.2-0.1,0.4-0.2,0.6-0.4c0-0.2,0-0.3-0.1-0.5c-0.1-0.2-0.1-0.3-0.2-0.5c-0.1-0.1-0.2-0.2-0.4-0.3c-0.2-0.1-0.3-0.1-0.6-0.1
		c-0.1,0-0.3,0.1-0.4,0.2c-0.1,0.1-0.2,0.2-0.3,0.3c-0.1,0.1-0.2,0.2-0.3,0.4C366.3,11.6,366.3,11.8,366.3,11.9z"/>
	<path class="st0" d="M369.4,28.3c0.4,0.1,0.8,0.2,1.2,0.3c0.4,0.1,0.7,0.2,1.1,0.3c0.3,0.1,0.7,0.2,1,0.3c0.3,0.1,0.7,0.1,1.1,0.2
		c0.7,0.1,1.4,0.2,2.1,0.2c0.6,0,1.2,0,1.7,0.1c0,0,0.1,0,0.1,0.1c0,0,0,0.1,0,0.2c0,0.1-0.1,0.2-0.2,0.3c-0.1,0.1-0.2,0.3-0.3,0.4
		c-0.1,0.1-0.2,0.3-0.3,0.4c-0.1,0.1-0.2,0.3-0.2,0.4c0,0.1-0.1,0.1-0.2,0.1c-0.1,0-0.2,0-0.3,0c-0.7-0.1-1.4-0.2-2-0.1
		c-0.6,0-1.2,0.1-1.8,0.2c-0.6,0.1-1.1,0.3-1.7,0.5c-0.6,0.2-1.1,0.4-1.7,0.6c-0.7,0.3-1.4,0.5-2.1,0.7c-0.7,0.2-1.4,0.4-2.1,0.6
		c-0.7,0.2-1.5,0.3-2.2,0.4c-0.8,0.1-1.5,0.1-2.4,0.1h-0.2c-0.3,0-0.5-0.1-0.6-0.3c-0.1-0.2-0.2-0.4-0.2-0.7c0-0.3,0.1-0.5,0.2-0.7
		c0.1-0.2,0.4-0.3,0.6-0.3h0.2c0.6,0,1.2,0,1.9,0c0.7,0,1.5-0.1,2.3-0.2c0.8-0.1,1.7-0.3,2.6-0.5c0.9-0.2,1.9-0.6,3-1
		c-0.7-0.2-1.3-0.4-1.9-0.5c-0.6-0.1-1.2-0.3-1.9-0.3c-0.6-0.1-1.2-0.1-1.9-0.1c-0.6,0-1.3,0-2,0.1c-0.1,0-0.1,0-0.1-0.1
		c0.2-0.3,0.3-0.6,0.5-0.9c0.2-0.3,0.3-0.5,0.6-0.8c0,0,0.1-0.1,0.3-0.1c0.2,0,0.4-0.1,0.7-0.1c0.3,0,0.6-0.1,0.9-0.1
		c0.3,0,0.7-0.1,1-0.1c0.4,0,0.7-0.1,1-0.1c0.3,0,0.6-0.1,0.9-0.1c0.2,0,0.4-0.1,0.5-0.1c0.1,0,0.2-0.1,0.2-0.3c0-0.4-0.1-1-0.2-1.5
		c-0.1-0.6-0.2-1.2-0.3-1.9c-0.1-0.6-0.2-1.3-0.3-2c-0.1-0.7-0.2-1.3-0.4-1.8c0-0.2-0.1-0.4-0.1-0.6c0-0.2-0.1-0.4-0.1-0.6
		c-0.1-0.2-0.1-0.4-0.2-0.6c-0.1-0.2-0.2-0.3-0.3-0.4l0.8-1.7c0.1-0.1,0.2-0.1,0.3,0c0.1,0.2,0.2,0.4,0.2,0.6
		c0.1,0.2,0.2,0.4,0.3,0.6c0.1,0.2,0.2,0.4,0.4,0.6c0.2,0.2,0.3,0.3,0.5,0.4c-0.1,0.1-0.1,0.2-0.2,0.3c-0.1,0.1-0.2,0.3-0.3,0.4
		c-0.1,0.1-0.2,0.3-0.2,0.4c-0.1,0.1-0.1,0.3,0,0.5c0,0.1,0.1,0.4,0.2,0.8c0.1,0.4,0.2,0.9,0.3,1.4c0.1,0.5,0.2,1,0.3,1.6
		c0.1,0.6,0.2,1.1,0.2,1.5c0,0.2,0,0.5,0.1,0.8c0,0.3,0,0.6,0,0.8c0,0.3-0.1,0.6-0.2,0.9C369.7,27.8,369.6,28.1,369.4,28.3z"/>
	<path class="st0" d="M380.7,18c0.1,0,0.2,0.2,0.2,0.5c0,0.3,0,0.6,0,0.9c0,0.3,0.1,0.6,0.1,0.9c0.1,0.8,0.2,1.5,0.3,2.3
		c0.1,0.8,0.2,1.6,0.4,2.4c0.1,0.8,0.2,1.6,0.3,2.4c0.1,0.8,0.2,1.6,0.3,2.3c0,0.3,0.1,0.6,0.1,1c0,0.4,0,0.8,0,1.2
		c0,0.4-0.1,0.8-0.1,1.2c-0.1,0.4-0.2,0.7-0.3,1c-0.1,0.1-0.1,0.2-0.2,0.3c-0.1,0-0.1,0-0.1-0.1c-0.1-0.7-0.1-1.5-0.2-2.2
		c-0.1-0.7-0.2-1.5-0.3-2.3c-0.1-0.8-0.2-1.6-0.3-2.4c-0.1-0.8-0.2-1.6-0.3-2.4c-0.1-0.8-0.2-1.6-0.3-2.4c-0.1-0.8-0.2-1.6-0.3-2.4
		c0-0.2,0.1-0.4,0.1-0.6c0.1-0.2,0.1-0.4,0.2-0.6c0.2-0.5,0.3-0.9,0.4-1C380.6,18.1,380.7,18,380.7,18z"/>
	<path class="st0" d="M395.4,32.5c0.3,0,0.4,0.1,0.6,0.3c0.1,0.2,0.2,0.4,0.2,0.7c0,0.2-0.1,0.5-0.2,0.7c-0.1,0.2-0.3,0.3-0.6,0.3
		c0,0-0.1,0-0.1,0c0,0-0.1,0-0.1,0c-0.8,0-1.4-0.1-1.9-0.4c-0.5-0.3-0.9-0.7-1.2-1.1c-0.3-0.6-0.6-1.2-0.7-1.8
		c-0.1-0.6-0.2-1.3-0.3-1.9c-0.1-0.7-0.2-1.5-0.2-2.2c-0.1-0.7-0.2-1.5-0.3-2.2c-0.1-0.8-0.2-1.5-0.3-2.3c-0.1-0.8-0.3-1.6-0.6-2.5
		c0-0.1,0-0.1,0-0.2c0,0,0-0.1,0-0.1l0.7-1.7c0-0.1,0.1-0.1,0.1-0.1c0,0,0.1,0,0.1,0.1c0.1,0.5,0.2,1,0.3,1.5c0.1,0.5,0.2,1,0.3,1.6
		c0.1,0.6,0.2,1.2,0.2,1.8c0.1,0.7,0.2,1.4,0.3,2.3c0.1,0.6,0.1,1.2,0.2,1.8c0.1,0.6,0.1,1.2,0.2,1.7c0.1,0.5,0.1,0.9,0.2,1.4
		c0.1,0.5,0.2,0.9,0.4,1.3c0.2,0.3,0.5,0.6,0.8,0.8c0.4,0.2,0.9,0.3,1.6,0.3C395.2,32.5,395.2,32.5,395.4,32.5
		C395.3,32.5,395.3,32.5,395.4,32.5z"/>
	<path class="st0" d="M402.1,20.2c-0.4,0.2-0.9,0.4-1.3,0.6c-0.5,0.2-0.9,0.4-1.3,0.6c-0.4,0.2-0.8,0.4-1.2,0.5
		c-0.4,0.2-0.7,0.3-1,0.4c-0.1,0-0.1,0-0.1,0s0-0.1,0-0.1l0.6-1.2c0-0.1,0.1-0.1,0.1-0.1c0,0,0.1-0.1,0.1-0.1l4.6-2.1
		c0.1-0.1,0.2,0,0.1,0.1l-0.5,1.2C402.2,20.1,402.2,20.2,402.1,20.2z"/>
	<path class="st0" d="M395.2,32.5c0.4,0,0.7,0,1.1,0c0.4,0,0.7-0.1,1-0.1c0.3-0.1,0.6-0.2,0.8-0.3c0.2-0.1,0.4-0.3,0.6-0.6
		c0.2-0.5,0.5-0.9,0.7-1.4c0.2-0.5,0.4-0.9,0.7-1.3c0.1-0.2,0.2-0.3,0.4-0.5c0.2-0.2,0.3-0.4,0.5-0.5c0.2-0.2,0.4-0.3,0.6-0.4
		c0.2-0.1,0.4-0.2,0.6-0.2c0.3,0,0.6,0.2,0.9,0.5c0.3,0.3,0.6,0.7,0.8,1.1c0.2,0.4,0.4,0.8,0.5,1.3c0.1,0.4,0.2,0.8,0.2,1.1
		c0,0.2,0,0.4-0.1,0.6c0,0.2-0.1,0.4-0.2,0.6c-0.1,0.2-0.2,0.3-0.3,0.5c-0.1,0.1-0.3,0.3-0.4,0.3c-0.3,0.1-0.7,0.1-1.2,0
		c-0.4-0.1-0.8-0.2-1.2-0.3c-0.3-0.1-0.7-0.2-1-0.4c-0.3-0.2-0.6-0.3-0.9-0.5c-0.3,1-0.8,1.7-1.5,2.1c-0.7,0.4-1.5,0.7-2.5,0.7H395
		c-0.3,0-0.5-0.1-0.6-0.3c-0.1-0.2-0.2-0.4-0.2-0.7c0-0.2,0.1-0.5,0.2-0.7c0.1-0.2,0.3-0.3,0.6-0.3H395.2z M402.6,29.8
		c-0.1-0.2-0.3-0.4-0.5-0.6c-0.2-0.2-0.5-0.3-0.8-0.3c-0.3,0-0.5,0.2-0.8,0.4c-0.2,0.2-0.4,0.5-0.5,0.7c0.2,0.2,0.4,0.3,0.7,0.5
		c0.2,0.1,0.5,0.2,0.8,0.3c0.3,0.1,0.5,0.1,0.8,0.2c0.3,0,0.6,0.1,0.8,0.1c0,0,0-0.1,0-0.2c0-0.1-0.1-0.2-0.2-0.4
		c-0.1-0.1-0.1-0.3-0.2-0.4C402.7,29.9,402.6,29.8,402.6,29.8z"/>
	<path class="st0" d="M411.3,21.5c-0.4,0.2-0.9,0.4-1.3,0.6c-0.5,0.2-0.9,0.4-1.3,0.6c-0.4,0.2-0.8,0.4-1.2,0.5
		c-0.4,0.2-0.7,0.3-1,0.4c-0.1,0-0.1,0-0.1,0s0-0.1,0-0.1l0.6-1.2c0-0.1,0.1-0.1,0.1-0.1c0,0,0.1-0.1,0.1-0.1l4.6-2.1
		c0.1-0.1,0.2,0,0.1,0.1l-0.5,1.2C411.4,21.4,411.4,21.4,411.3,21.5z"/>
	<path class="st0" d="M411.8,32.2c-0.1,0.4-0.3,0.7-0.6,0.9c-0.3,0.2-0.7,0.4-1.2,0.4c-0.2,0-0.4-0.1-0.7-0.2
		c-0.2-0.1-0.4-0.3-0.5-0.5c-0.2-0.2-0.3-0.4-0.3-0.7c-0.1-0.2-0.1-0.5-0.1-0.7c0-0.2,0.1-0.4,0.1-0.6c0.1-0.2,0.1-0.5,0.2-0.7
		s0.2-0.5,0.3-0.7c0.1-0.2,0.3-0.5,0.4-0.6c0.2-0.2,0.3-0.3,0.5-0.5c0.2-0.1,0.3-0.2,0.5-0.2c0.3,0,0.6,0.1,0.9,0.4
		c0.3,0.3,0.5,0.6,0.7,1c0.2,0.4,0.4,0.8,0.5,1.3c0.1,0.5,0.2,1,0.2,1.4c0,0.6-0.1,1.2-0.2,1.9c-0.1,0.7-0.3,1.3-0.6,1.9
		c-0.2,0.6-0.5,1.2-0.8,1.8c-0.3,0.6-0.7,1-1,1.4c-0.5,0.6-1.1,1-1.7,1.3c-0.6,0.3-1.2,0.5-1.8,0.6c-0.6,0.1-1.3,0.1-2,0
		c-0.7-0.1-1.4-0.3-2.2-0.5c-0.1,0-0.1-0.1-0.1-0.1c0-0.1,0-0.1,0-0.2c0-0.1,0.1-0.1,0.2-0.2c0.1,0,0.2-0.1,0.3-0.1
		c0.7,0.1,1.4,0,1.9,0c0.6-0.1,1.1-0.2,1.6-0.4c0.5-0.2,1-0.5,1.5-0.8c0.5-0.3,0.9-0.7,1.4-1.1c0.3-0.3,0.6-0.6,1-1
		c0.3-0.4,0.6-0.8,0.8-1.2c0.3-0.4,0.5-0.8,0.6-1.2c0.2-0.4,0.3-0.8,0.4-1.2c0-0.1,0-0.2,0-0.3c0-0.1,0-0.2,0-0.3
		c0-0.1,0-0.2-0.1-0.3C411.9,32.3,411.8,32.2,411.8,32.2z M410.2,29.9c-0.1,0-0.2,0.1-0.3,0.1c-0.1,0.1-0.2,0.2-0.3,0.3
		c-0.1,0.1-0.1,0.2-0.2,0.3c0,0.1-0.1,0.2-0.1,0.3c0.1,0.2,0.3,0.3,0.5,0.4c0.2,0.1,0.4,0.1,0.6,0.1c0.2,0,0.4-0.1,0.6-0.2
		c0.2-0.1,0.3-0.2,0.4-0.3c0-0.1,0-0.2-0.1-0.4c-0.1-0.1-0.2-0.3-0.3-0.4c-0.1-0.1-0.3-0.2-0.4-0.3C410.4,30,410.3,29.9,410.2,29.9z
		"/>
	<path d="M428.2,29.9c0,0.1-0.1,0.3-0.2,0.4c-0.2,0.2-0.4,0.4-0.8,0.6c0,0.4-0.1,0.7-0.2,1.1c-0.1,0.3-0.2,0.5-0.3,0.5
		c-0.4-0.4-0.7-0.7-1.1-1c-0.4-0.3-0.8-0.5-1.2-0.5c0,0.4,0.2,0.8,0.6,1.2c0.3,0.3,0.6,0.7,0.9,1c0,0.2-0.3,0.3-1,0.5
		c-0.5,0.1-0.9,0.1-1.2,0.1c-0.5,1.4-1.1,2.7-2,3.9c-0.4,0.5-0.9,1.1-1.5,1.7c-0.8,0.8-1.4,1.2-1.8,1.2c-0.1,0-0.2-0.1-0.2-0.2
		c0-0.1,0.2-0.4,0.7-0.9c0.7-0.8,1.2-1.4,1.5-2.1c0.6-1.1,1-2.3,1.2-3.7c-0.4-0.1-0.7-0.1-0.8-0.2c-0.1-0.1-0.2-0.1-0.2-0.3
		c0.9-0.8,1.4-1.5,1.4-2.2c-0.4,0-0.8,0.2-1.2,0.5c-0.2,0.2-0.6,0.6-1,1c-0.1,0-0.2-0.2-0.4-0.5c-0.1-0.4-0.2-0.7-0.2-1.1
		c-0.4-0.2-0.6-0.4-0.7-0.4c-0.3-0.2-0.4-0.4-0.4-0.6c0-0.1,0.1-0.3,0.2-0.4c0.1-0.1,0.4-0.3,0.8-0.5c0-1.1,0.2-1.6,0.6-1.6
		c0.8,0.9,1.5,1.3,2.2,1.4c0-0.3-0.2-0.8-0.5-1.2c0,0-0.3-0.4-0.9-1c0-0.1,0.1-0.2,0.2-0.2c0.2-0.1,0.4-0.1,0.9-0.2
		c-0.2-1.1-0.6-2.2-1.3-3.3c-0.6-1.1-1.4-2.1-2.2-2.8c-0.1-0.1-0.2-0.2-0.2-0.3c0-0.1,0.1-0.2,0.3-0.2c0.3,0,0.7,0.2,1.3,0.6
		c1.8,1.3,3.2,3.2,4.1,5.8c1.4,0,2.1,0.2,2.1,0.6c-0.4,0.3-0.7,0.7-0.9,1c-0.3,0.4-0.4,0.8-0.4,1.2c0.3,0,0.7-0.2,1-0.5l1.1-1
		c0.2,0,0.4,0.5,0.5,1.4c0,0.1,0,0.2,0,0.3C427.9,29.4,428.2,29.7,428.2,29.9z M425.1,26.7c0,0-0.1-0.1-0.4-0.1
		c-0.2,0-0.4-0.1-0.5-0.1h-0.4c-0.1,0-0.2,0-0.3,0.1c-0.4-1.2-0.9-2.4-1.7-3.5c-0.9-1.2-1.8-2.2-3-3c0.8,0.7,1.4,1.6,2,2.6
		c0.7,1.2,1.2,2.5,1.4,3.8c-0.5,0-0.8,0.1-0.8,0.2c0.6,0.5,1,1,1.3,1.5c0.1-0.2,0.2-0.5,0.3-0.7c0,0,0.1-0.1,0.1-0.3
		c0.1-0.2,0.1-0.3,0.2-0.3c0.2,0,0.4,0.5,0.7,1.4c0.2-0.3,0.3-0.7,0.6-0.9C424.6,27.2,424.8,27,425.1,26.7z M421.6,30.7
		c-0.1-0.1-0.5-0.2-1.1-0.4c-0.4-0.1-0.6-0.2-0.6-0.3c0,0,0.3-0.2,0.9-0.4c0.1-0.1,0.4-0.2,0.7-0.3c-0.3-0.1-0.7-0.3-1-0.5
		c-0.1-0.1-0.4-0.3-0.7-0.6c-0.1,0-0.2,0.4-0.2,1.2c-0.6,0.3-0.9,0.6-0.9,0.7c0,0.2,0.3,0.3,0.9,0.6c0,0.8,0.1,1.3,0.3,1.3
		c0,0,0.2-0.2,0.6-0.5C421.1,31,421.4,30.8,421.6,30.7z M425.2,33.3c-0.5-0.4-0.9-0.9-1.2-1.4c-0.1,0.2-0.2,0.4-0.3,0.7
		c0,0-0.1,0.2-0.2,0.4c-0.1,0.2-0.2,0.3-0.2,0.3c0,0-0.1-0.1-0.2-0.3c-0.1-0.2-0.1-0.3-0.2-0.3c0-0.1-0.1-0.3-0.3-0.7
		c-0.1,0.3-0.3,0.6-0.5,0.8c-0.2,0.2-0.4,0.4-0.6,0.6c0,0.1,0.3,0.1,0.8,0.3c-0.3,1.3-0.5,2.1-0.6,2.4c-0.5,1.4-1.3,2.8-2.4,4.1
		c1.9-1.3,3.3-3.4,4.3-6.5c0.7,0,1,0,0.9,0C424.9,33.5,425.2,33.4,425.2,33.3z M424.6,30c0-0.4-0.1-0.7-0.4-0.9
		c-0.2-0.2-0.6-0.3-0.9-0.3c-0.3,0-0.6,0.1-0.9,0.4c-0.3,0.2-0.4,0.5-0.4,0.9c0,0.4,0.1,0.7,0.4,0.9c0.3,0.2,0.6,0.4,0.9,0.4
		c0.4,0,0.7-0.1,0.9-0.4C424.4,30.7,424.6,30.4,424.6,30z M427.7,29.9c0-0.1-0.1-0.2-0.2-0.3c-0.2-0.1-0.4-0.2-0.7-0.3
		c0-0.4,0-0.7-0.1-0.9c-0.1-0.2-0.1-0.4-0.2-0.4c0,0-0.2,0.2-0.5,0.5c-0.3,0.3-0.7,0.6-1.1,0.7c0.2,0.1,0.4,0.2,0.8,0.4
		c0,0,0.2,0.1,0.6,0.2c0.3,0.1,0.4,0.2,0.4,0.2c0,0.1-0.2,0.2-0.6,0.3c-0.6,0.2-1,0.3-1.1,0.3c0.4,0.1,0.7,0.3,1,0.5
		c0.1,0.1,0.4,0.3,0.6,0.6c0.1,0,0.1-0.1,0.2-0.3c0-0.1,0-0.4,0-0.8C427.4,30.3,427.7,30.1,427.7,29.9z"/>
	<rect class="st2" width="563.7" height="53.7"/>
</g>
</svg>
