<?xml version="1.0" encoding="utf-8"?>
<!-- Generator: Adobe Illustrator 19.2.0, SVG Export Plug-In . SVG Version: 6.00 Build 0)  -->
<svg version="1.1" id="Layer_1" xmlns="http://www.w3.org/2000/svg" xmlns:xlink="http://www.w3.org/1999/xlink" x="0px" y="0px"
	 viewBox="0 0 372.5 36.8" style="enable-background:new 0 0 372.5 36.8;" xml:space="preserve">
<style type="text/css">
	.st0{opacity:0.75;}
	.st1{fill:#FFFFFF;}
	.st2{fill:none;stroke:#6D2400;stroke-width:7.6905;stroke-linecap:round;stroke-linejoin:round;stroke-miterlimit:10;}
	.st3{fill:none;stroke:#CB9248;stroke-width:5.3834;stroke-linecap:round;stroke-linejoin:round;stroke-miterlimit:10;}
	.st4{fill:none;stroke:#F4CE83;stroke-width:4.6143;stroke-linecap:round;stroke-linejoin:round;stroke-miterlimit:10;}
	.st5{fill:none;stroke:#CB9248;stroke-width:2.3072;stroke-linecap:round;stroke-linejoin:round;stroke-miterlimit:10;}
	.st6{fill:none;stroke:#6D2400;stroke-width:2.3072;stroke-linecap:round;stroke-linejoin:round;stroke-miterlimit:10;}
	.st7{fill:#003E4E;}
	.st8{opacity:0.2;}
	.st9{fill:url(#SVGID_1_);}
	.st10{fill:url(#SVGID_2_);}
	.st11{fill:url(#SVGID_3_);}
	.st12{opacity:0.5;fill:url(#SVGID_4_);}
</style>
<g>
	<g>
		<g>
			<g class="st0">
				<path d="M8.3,31.8c0.1-0.1,0.1,0,0.1,0.1c0,0.6-0.2,1.1-0.5,1.3l-4.1,2.3c-0.1,0-0.1,0-0.1-0.1c0-0.3,0.1-0.8,0.2-1
					c0.1-0.2,0.3-0.3,0.7-0.5L8.3,31.8z"/>
				<path d="M8.6,27.7c-1.1,0.6-3.5,2-5.4,3.4c-0.1,0.1-0.1,0.1-0.2,0.1c0,0-0.1,0-0.1-0.1c0-0.2,0.1-0.6,0.3-0.9
					c0.1-0.2,0.7-0.8,1.1-1.2c0.1-0.1,0.1-0.1,0.1-0.1c0,0,0-0.1-0.2-0.1c-0.8-0.3-1.3-0.6-1.3-1.4c0-1.2,1.2-3,2.4-3.9
					C6,23,6.4,22.8,6.9,22.8c0.7,0,1.1,0.3,1.1,1c0,0.3-0.1,0.9-0.3,1.4c-0.1,0.3-0.2,0.4-0.3,0.4c-0.1,0-0.1,0-0.3-0.2
					C6.8,25.2,6.5,25,6.2,25c-0.7,0-1.7,0.5-1.7,0.9c0,0.4,1.7,1.1,2.4,1.1C7,27,7,27,7.1,27c0.4-0.1,1.4-0.5,2-0.9
					c0.2-0.1,0.3-0.2,0.4-0.2c0.1,0,0.1,0,0.1,0.1c0,0.1-0.1,0.3-0.2,0.6C9,27.6,8.8,27.6,8.6,27.7z"/>
				<path d="M14.1,29.1C14,29.1,14,29,14,28.5c0-3-1.1-11.3-1.1-12.7c0-0.7,0.5-1.7,0.9-2.5c0.1-0.2,0.3-0.5,0.5-0.5
					c0.1,0,0.2,0.2,0.2,0.8c0.1,2.2,0.7,7.3,0.7,11c0,1.5-0.1,2.7-0.4,3.5C14.5,28.8,14.3,29.1,14.1,29.1z"/>
				<path d="M21,23.3c-0.7,0-1.1-0.7-1.1-1.5c0-0.2,0-0.5,0.1-0.8c0.1-0.2,0.2-0.8,0.5-0.8c0.1,0,0.2,0.2,0.2,0.6v0.3
					c0,0.3,0.2,0.5,0.6,0.5h0c0.5,0,0.8-0.3,0.9-1c0.1-0.3,0.2-1.1,0.6-1.1c0.1,0,0.2,0.2,0.2,0.5c0,0.2,0.1,0.3,0.4,0.3
					c0.5,0,0.8-0.3,0.9-0.8c0.1-0.7,0.2-0.8,0.4-0.8c0.2,0,0.3,0.7,0.3,1.1c0,0.3,0,0.6-0.2,1c-0.2,0.7-0.7,1.2-1.5,1.2
					c-0.2,0-0.4-0.1-0.5-0.1c-0.1-0.1-0.1,0-0.2,0.1C22.3,22.8,21.8,23.3,21,23.3z M24.9,16.4C25,16.4,25,16.4,24.9,16.4
					c0,0.5-0.2,0.9-0.4,1.2c-0.1,0.1-0.2,0.2-0.5,0.3l-4,1.9c0,0-0.1,0-0.1-0.1c0-0.2,0.1-0.5,0.2-0.7c0.2-0.3,0.2-0.4,0.3-0.5
					c0.1-0.1,0.2-0.1,0.3-0.2L24.9,16.4z"/>
				<path d="M26.5,26.8c0.7,0,1.1,0.4,1.1,1.1c0,0.8-0.4,1.2-1.1,1.2h-0.2c-0.6,0-1,0-1.3-0.1c0,0.1,0,0.2,0,0.3
					c0,0.7-0.1,1.5-0.4,2.1c-0.5,1.2-1.3,3.3-3.6,4.3c-0.4,0.2-0.8,0.3-1.2,0.3c-0.9,0-2.4-0.5-3.5-1c-0.3-0.2-0.4-0.3-0.4-0.4
					c0-0.1,0.1-0.2,0.4-0.2c0.3,0,0.8,0.1,1.3,0.1c3.1,0,6.2-2.7,6.6-5c0-0.5-1.1-1.6-1.3-1.9c0-0.1-0.1-0.2-0.1-0.3
					c0-0.5,0.4-1.5,0.6-1.8c0.1-0.2,0.2-0.2,0.3-0.2c0.2,0,0.3,0.2,0.6,0.7c0.4,0.6,0.9,0.9,1.8,0.9H26.5z"/>
				<path d="M28.7,28.1c-0.5,0.7-1.2,1-2.3,1h-0.2c-0.7,0-1-0.4-1-1.2c0-0.7,0.3-1.1,1-1.1h0.2c0.5,0,1-0.1,1.5-0.2
					c0.4-0.1,0.6-0.3,0.7-0.4c0-1.7-0.6-5.4-0.9-8.9c0-0.4-0.3-1.6-0.4-2.1c0-0.1,0-0.2,0-0.2c0-0.3,0.3-0.9,0.5-1.3
					c0.3-0.5,0.5-0.9,0.7-0.9c0.1,0,0.1,0.1,0.2,0.2c0.3,1,0.6,1.5,0.8,1.8c0.1,0.1,0.1,0.2,0.1,0.3c0,0,0,0.1,0,0.1
					c-0.1,0.2-0.4,0.8-0.6,1.1c0.2,3.4,0.7,6.2,0.7,7.8C29.7,25.8,29.4,27.1,28.7,28.1z"/>
				<path d="M34.3,29.1c-0.1,0-0.2-0.2-0.2-0.7c0-3-1.1-11.3-1.1-12.7c0-0.7,0.5-1.7,0.9-2.5c0.1-0.2,0.3-0.5,0.5-0.5
					c0.1,0,0.2,0.2,0.2,0.8c0.1,2.2,0.7,7.3,0.7,11c0,1.5-0.1,2.7-0.4,3.5C34.7,28.8,34.5,29.1,34.3,29.1z"/>
				<path d="M57.5,30.9c0.1-0.1,0.1,0,0.1,0.1c0,0.6-0.2,1.1-0.5,1.3L53,34.6c-0.1,0-0.1,0-0.1-0.1c0-0.3,0.1-0.8,0.2-1
					c0.1-0.2,0.3-0.3,0.7-0.5L57.5,30.9z"/>
				<path d="M62.4,23.5c0,0.5-0.3,1.8-0.6,2.8c-0.3,0.7-0.4,0.8-1.2,1.2c-1.7,0.8-5.7,2-9.8,2c-5.3,0-7.4-1.8-7.4-4.3
					c0-0.9,0.4-2.4,1-3.3c0.2-0.3,0.4-0.6,0.6-0.6c0.1,0,0.1,0,0.1,0.1c0,0.1-0.1,0.3-0.1,0.5c-0.2,0.7-0.5,1.4-0.5,2
					c0,1.1,1.4,3.1,6.5,3.2c3.7,0,7.7-0.8,9.4-1.4c0.9-0.3,0.9-0.5,0.9-1.1c0-0.5-0.1-0.8-0.3-1.3c-0.2,0.5-0.9,1-1.8,1
					c-1.1,0-1.8-0.7-1.8-2c0-1.8,1.4-4.1,2-4.1C61,18.1,62.4,20.7,62.4,23.5z M57.4,15.3c0.1,0.1,0.1,0.1,0,0.2
					c-0.2,0.3-1.1,1.2-1.4,1.7c-0.1,0.1-0.1,0.1-0.2,0c-0.5-0.3-1.5-1-1.7-1.4c-0.1-0.1-0.1-0.1,0-0.2c0.3-0.5,0.9-1.2,1.3-1.6
					c0.2-0.2,0.2-0.2,0.3-0.1C56,14.2,56.7,14.9,57.4,15.3z M59.2,20.3c-0.3,0-0.6,0.4-0.7,0.8c0,0,0,0.1,0,0.1s0,0.1,0,0.1
					c0.1,0.3,0.5,0.5,1,0.5c0.4,0,0.8-0.2,0.9-0.3c0,0,0.1-0.1,0.1-0.1C60.4,21.2,60,20.3,59.2,20.3z"/>
				<path d="M67.3,18.5c0.7,0,1.7,1,1.7,2.1c0,0.4-0.1,0.8-0.2,1.2c-0.3,0.8-0.9,1.3-1.8,1.3c-0.8,0-1.3-0.6-1.3-1.3
					C65.7,20.7,66.8,18.5,67.3,18.5z M67.1,20.1c-0.3,0-0.7,0.6-0.7,1c0,0.3,0.4,0.6,0.8,0.6c0.5,0,1.1-0.3,1.1-0.5
					C68.3,21,67.7,20.1,67.1,20.1z"/>
				<path d="M70.9,26.8c0.7,0,1.1,0.4,1.1,1.1c0,0.8-0.4,1.2-1.1,1.2h-0.2c-0.6,0-1,0-1.3-0.1c0,0.1,0,0.2,0,0.3
					c0,0.7-0.1,1.5-0.4,2.1c-0.5,1.2-1.3,3.3-3.6,4.3c-0.4,0.2-0.8,0.3-1.2,0.3c-0.9,0-2.4-0.5-3.5-1c-0.3-0.2-0.4-0.3-0.4-0.4
					c0-0.1,0.1-0.2,0.4-0.2c0.3,0,0.8,0.1,1.3,0.1c3.1,0,6.2-2.7,6.6-5c0-0.5-1.1-1.6-1.3-1.9c0-0.1-0.1-0.2-0.1-0.3
					c0-0.5,0.4-1.5,0.6-1.8c0.1-0.2,0.2-0.2,0.3-0.2c0.2,0,0.3,0.2,0.6,0.7c0.4,0.6,0.9,0.9,1.8,0.9H70.9z"/>
				<path d="M76.7,15.2c0.1-0.1,0.1,0,0.1,0.1c0,0.6-0.2,1.1-0.5,1.3l-4.1,2.3c-0.1,0-0.1,0-0.1-0.1c0-0.3,0.1-0.8,0.2-1
					c0.1-0.2,0.3-0.3,0.7-0.5L76.7,15.2z"/>
				<path d="M86.5,32.8c0.1-0.1,0.1,0,0.1,0.1c0,0.6-0.2,1.1-0.5,1.3L82,36.5c-0.1,0-0.1,0-0.1-0.1c0-0.3,0.1-0.8,0.2-1
					c0.1-0.2,0.3-0.3,0.7-0.5L86.5,32.8z"/>
				<path d="M85.8,30.5c0.1,0.1,0.1,0.1,0,0.2c-0.2,0.3-1.1,1.2-1.4,1.7c-0.1,0.1-0.1,0.1-0.2,0c-0.5-0.3-1.5-1-1.7-1.4
					c-0.1-0.1-0.1-0.1,0-0.2c0.3-0.5,0.9-1.2,1.3-1.6c0.2-0.2,0.2-0.2,0.3-0.1C84.3,29.4,85.1,30,85.8,30.5z"/>
				<path d="M82.2,20.3c-0.2,0-0.2-0.2-0.3-0.5c-0.1-0.6-0.4-1.2-0.8-1.2c-0.3,0-0.7,0.3-1.1,0.9c-1.1,1.7-2.3,2.8-3.3,3.5
					c-0.1,0,0,0.1,0.1,0.1c3.5,1.3,6.4,1.9,8.8,1.8c0.1,0,0.2,0,0.1,0.3c-0.2,0.3-0.6,0.9-1.3,1.7c-0.1,0.1-0.2,0.2-0.3,0.1
					c-0.9-0.1-1.8-0.2-2.5-0.3c-1,0-1.9,0.1-2.7,0.3c-0.7,0.2-1.7,0.5-2.8,0.9c-1.1,0.4-2.1,0.7-2.7,0.9c-0.6,0.2-1.5,0.3-2.5,0.3
					h-0.3c-0.6,0-0.9-0.4-0.9-1.2c0-0.7,0.3-1.1,0.9-1.1h0.3c2.1,0,4.3-0.3,6.6-1c0,0,0,0-0.2-0.1c-1.4-0.7-3.1-1.1-5.2-1.3
					c-0.2,0-0.1-0.1,0-0.3c0.2-0.3,0.6-0.8,1.3-1.5c0.3-0.3,1-0.7,2.2-1.1c1.9-0.8,3.9-2.1,5-4.2c0.3-0.6,0.9-1.1,1.4-1.1
					c0.8,0,1.1,1.2,1.1,1.8c0,0.6,0,0.9-0.1,1.3C82.7,19.8,82.5,20.3,82.2,20.3z"/>
				<path d="M97.9,30.1c0.1-0.1,0.1,0,0.1,0.1c0,0.6-0.2,1.1-0.5,1.3l-4.1,2.3c-0.1,0-0.1,0-0.1-0.1c0-0.3,0.1-0.8,0.2-1
					c0.1-0.2,0.3-0.3,0.7-0.5L97.9,30.1z"/>
				<path d="M96.8,14c0.2-0.2,0.2-0.2,0.3-0.1c0.5,0.5,1,1.1,1.5,1.4c0.2,0.1,0.2,0.2,0,0.3c-0.5,0.5-0.9,1-1.3,1.5
					c-0.1,0.1-0.2,0.1-0.3,0c-0.4-0.3-0.9-0.7-1.4-1.2c-0.3,0.3-0.9,1-1.1,1.2c-0.1,0.1-0.2,0.2-0.4,0c-0.5-0.3-1.1-0.9-1.5-1.4
					c-0.1-0.1-0.1-0.2,0-0.3c0.4-0.5,0.9-1,1.4-1.5c0.1-0.1,0.2-0.1,0.3,0.1c0.4,0.4,1,1,1.4,1.2C96,14.8,96.5,14.2,96.8,14z
					 M99.7,26.4c0.5,0.3,0.9,0.5,1.2,0.5h0.3c0.7,0,1.1,0.4,1.1,1.1c0,0.8-0.4,1.2-1.1,1.2h-0.3c-0.8,0-1.5-0.3-2.3-0.9
					c-0.7-0.6-1.2-1.6-1.4-3c-0.2,0.4-0.4,0.7-0.8,1c-0.6,0.4-1.6,0.6-2.6,0.6c-0.7,0-1.4-0.1-1.4-0.7c0.3-2.2,0.6-2.6,1.7-3.4
					c0.5-0.4,1.8-1.2,2.3-1.6c0-0.2,0-0.4,0-0.5c0-0.5,0.1-0.8,0.4-1.2c0.2-0.3,0.3-0.5,0.4-0.5c0.1,0,0.2,0.2,0.2,0.5
					c0.3,2.1,0.5,3.8,0.8,4.8C98.5,25.1,99,25.9,99.7,26.4z M96.7,22.3c-0.9,0.6-2.5,1.6-2.6,1.9c0,0.2,0.3,0.2,0.7,0.2
					c0.6,0,1.5-0.2,2.2-0.5C96.9,23.3,96.9,23.1,96.7,22.3z"/>
				<path d="M106.3,13c0.1-0.1,0.1,0,0.1,0.1c0,0.6-0.2,1.1-0.5,1.3l-4.1,2.3c-0.1,0-0.1,0-0.1-0.1c0-0.3,0.1-0.8,0.2-1
					c0.1-0.2,0.3-0.3,0.7-0.5L106.3,13z"/>
				<path d="M105.7,25.5c0,0.6,0.6,1.2,1.4,1.4c0.2,0,0.3,0,0.5,0h0.1c0.9,0,0.9,0.7,0.9,1c0,0.3,0,1.3-0.8,1.3h-0.2
					c-0.2,0-0.3,0-0.6,0c-1.5-0.2-2.1-1.5-2.2-1.7c-0.2,0.6-1.5,1.7-3.7,1.7H101c-0.6,0-1-0.6-1-1.1c0-0.6,0.3-1.1,1-1.1h0.7
					c1,0,2.4-0.2,3.3-1.6c0.3-0.5,0.4-0.5,0.5-0.5C105.6,24.7,105.7,24.9,105.7,25.5z M106.6,19.6c0.1,0.1,0.1,0.1,0,0.2
					c-0.2,0.3-1.1,1.2-1.4,1.7c-0.1,0.1-0.1,0.1-0.2,0c-0.5-0.3-1.5-1-1.7-1.4c-0.1-0.1-0.1-0.1,0-0.2c0.3-0.5,0.9-1.2,1.3-1.6
					c0.2-0.2,0.2-0.2,0.3-0.1C105.1,18.5,105.9,19.2,106.6,19.6z"/>
				<path d="M114.1,30.9c0.1-0.1,0.1,0,0.1,0.1c0,0.6-0.2,1.1-0.5,1.3l-4.1,2.3c-0.1,0-0.1,0-0.1-0.1c0-0.3,0.1-0.8,0.2-1
					c0.1-0.2,0.3-0.3,0.7-0.5L114.1,30.9z"/>
				<path d="M119.2,13.2c0.1,0,0.1,0,0.1,0.1c0,0.3-0.5,1.3-0.7,1.6c0,0.1-0.1,0.1-0.2,0.2c-0.7,0.2-5.9,2.3-8.2,3.8
					c2.2,1.2,4.4,3.8,4.4,5.4c0,1.6-0.5,2.7-1.3,3.5c-1.4,0.8-3.2,1.2-5.4,1.2h-0.3c-0.4,0-0.7-0.5-0.7-1.1c0-0.6,0.3-1.1,0.7-1.1
					h0.2c3,0,5.4-0.7,5.9-1.2c0-1.4-2.4-3.7-4.2-4.6c-0.3-0.1-0.5-0.3-0.7-0.5c-0.1-0.2-0.2-0.5-0.2-0.9c0-0.5,0.1-1.1,0.4-1.4
					c0.7-0.7,1.4-1.2,2.9-2c2.8-1.5,5.7-2.5,6.8-2.9C118.8,13.3,119,13.2,119.2,13.2z"/>
				<path d="M124.6,29.1c-0.7,0-1.2-0.1-1.7-0.5c-0.7-0.6-1.1-1.7-1.3-3.1c-0.2-1.1-0.2-2.3-0.3-3.7c-0.1-2-0.2-5.1-0.5-6.9
					c0-0.1,0-0.2,0-0.2c0-0.1,0-0.2,0.2-0.4c0.3-0.5,0.5-0.8,0.7-1.2c0.2-0.3,0.2-0.3,0.3-0.3c0.1,0,0.2,0.2,0.3,0.7
					c0.4,3.5,0.1,8.4,0.6,11.1c0.1,0.7,0.2,0.9,0.4,1.3c0.3,0.6,0.7,0.9,1.4,1c0.8,0,1.2,0.4,1.2,1.1c0,0.9-0.4,1.2-1.1,1.2H124.6z"
					/>
				<path d="M130.4,21c-0.7,0-1.1-0.7-1.1-1.5c0-0.2,0-0.5,0.1-0.8c0.1-0.2,0.2-0.8,0.5-0.8c0.1,0,0.2,0.2,0.2,0.6v0.3
					c0,0.3,0.2,0.5,0.6,0.5h0c0.5,0,0.8-0.3,0.9-1c0.1-0.3,0.2-1.1,0.6-1.1c0.1,0,0.2,0.2,0.2,0.5c0,0.2,0.1,0.3,0.4,0.3
					c0.5,0,0.8-0.3,0.9-0.8c0.1-0.7,0.2-0.8,0.4-0.8c0.2,0,0.3,0.7,0.3,1.1c0,0.3,0,0.6-0.2,1c-0.2,0.7-0.7,1.2-1.5,1.2
					c-0.2,0-0.4-0.1-0.5-0.1c-0.1-0.1-0.1,0-0.2,0.1C131.6,20.5,131.1,21,130.4,21z M134.3,14.1C134.4,14,134.3,14.1,134.3,14.1
					c0,0.5-0.2,0.9-0.4,1.2c-0.1,0.1-0.2,0.2-0.5,0.3l-4,1.9c0,0-0.1,0-0.1-0.1c0-0.2,0.1-0.5,0.2-0.7c0.2-0.3,0.2-0.4,0.3-0.5
					c0.1-0.1,0.2-0.1,0.3-0.2L134.3,14.1z"/>
				<path d="M133.5,24.6c0.1,0,0.2,0.1,0.2,0.5c0,0.1,0,0.3,0,0.5c0,0.7,0.5,1.1,1.2,1.1c1,0,1.5-1,1.9-1.8c0-0.1,0.2-0.4,0.3-0.4
					c0.1,0,0.2,0.1,0.2,0.6c0.1,1.1,0.7,1.7,1.5,1.7h0.3c0.7,0,1.1,0.3,1.1,1c0,0.8-0.4,1.3-1.1,1.3h-0.3c-1.3,0-2-0.6-2.2-1.9
					c-0.3,0.9-1.2,2-2.3,2c-1.1,0-1.6-0.9-1.7-1.9c-0.4,1.1-1.5,1.9-2.7,1.9c-1.2,0-2-0.4-2.3-1.6c-0.2,0.4-0.4,0.8-0.8,1.1
					c-0.4,0.3-1.1,0.5-2.1,0.5h-0.2c-0.7,0-1-0.4-1-1.2c0-0.7,0.3-1.1,1-1.1h0.3c1.6,0,2.6-0.6,3.2-1.7c0-0.1,0.2-0.3,0.3-0.3
					c0.2,0,0.2,0.2,0.2,0.5c0,0.9,0.8,1.3,1.8,1.3c1.2,0,2.1-0.5,2.8-1.7C133.2,24.8,133.3,24.6,133.5,24.6z"/>
				<path d="M141.3,28.1c-0.5,0.7-1.2,1-2.3,1h-0.2c-0.7,0-1-0.4-1-1.2c0-0.7,0.3-1.1,1-1.1h0.2c0.5,0,1-0.1,1.5-0.2
					c0.4-0.1,0.6-0.3,0.7-0.4c0-1.7-0.6-5.4-0.9-8.9c0-0.4-0.3-1.6-0.4-2.1c0-0.1,0-0.2,0-0.2c0-0.3,0.3-0.9,0.5-1.3
					c0.3-0.5,0.5-0.9,0.7-0.9c0.1,0,0.1,0.1,0.2,0.2c0.3,1,0.6,1.5,0.8,1.8c0.1,0.1,0.1,0.2,0.1,0.3c0,0,0,0.1,0,0.1
					c-0.1,0.2-0.4,0.8-0.6,1.1c0.2,3.4,0.7,6.2,0.7,7.8C142.3,25.8,142,27.1,141.3,28.1z"/>
				<path d="M146.9,29.1c-0.1,0-0.2-0.2-0.2-0.7c0-3-1.1-11.3-1.1-12.7c0-0.7,0.5-1.7,0.9-2.5c0.1-0.2,0.3-0.5,0.5-0.5
					c0.1,0,0.2,0.2,0.2,0.8c0.1,2.2,0.7,7.3,0.7,11c0,1.5-0.1,2.7-0.4,3.5C147.3,28.8,147.1,29.1,146.9,29.1z"/>
				<path d="M166.1,32.2c0.1-0.1,0.1,0,0.1,0.1c0,0.6-0.2,1.1-0.5,1.3l-4.1,2.3c-0.1,0-0.1,0-0.1-0.1c0-0.3,0.1-0.8,0.2-1
					c0.1-0.2,0.3-0.3,0.7-0.5L166.1,32.2z"/>
				<path d="M157.5,29.8c-0.9-0.8-1.4-2.1-1.4-3.4c0-1.5,0.9-3.2,1.4-3.9c0.2-0.3,0.4-0.4,0.5-0.4c0.1,0,0.1,0.1,0.1,0.2
					c0,0.1-0.1,0.3-0.2,0.5c-0.4,0.9-0.9,1.8-0.9,2.9c0,0.8,0.6,1.6,1.4,2.1c0.8,0.5,1.7,0.8,2.7,0.8c2.4,0,5.7-1,6.4-2.7
					c0-0.2,0-0.3,0-0.4c0-1.1-0.3-2.3-0.9-3.1c-0.2-0.4-0.4-0.7-0.5-0.8c0,0,0-0.1,0-0.2c0-0.2,0.1-0.5,0.2-0.8
					c0.2-0.4,0.3-0.8,0.4-1.1c0.1-0.1,0.1-0.2,0.2-0.2c0.1,0,0.1,0,0.2,0.3c0.7,1.5,1.3,2.9,1.3,4.7c0,1.4-0.2,2.3-0.3,2.7
					c-0.4,0.9-0.6,1.3-1.1,1.8c-0.5,0.5-1.4,1.2-2.5,1.6c-1.1,0.5-2.4,0.7-4.1,0.7C159.4,30.9,158.3,30.6,157.5,29.8z M164,16
					c0.1,0.1,0.1,0.1,0,0.2c-0.2,0.3-1.1,1.2-1.4,1.7c-0.1,0.1-0.1,0.1-0.2,0c-0.5-0.3-1.5-1-1.7-1.4c-0.1-0.1-0.1-0.1,0-0.2
					c0.3-0.5,0.9-1.2,1.3-1.6c0.2-0.2,0.2-0.2,0.3-0.1C162.6,14.9,163.3,15.6,164,16z"/>
				<path d="M167.4,35.1c-0.3-0.2-0.4-0.3-0.4-0.4c0-0.1,0.2-0.2,0.4-0.2c0.3,0,1.1,0.2,1.8,0.2c0.6,0,1.2-0.2,2.1-0.6
					c2.4-1.2,3.9-3,3.9-4.2c0-0.2,0-0.3-0.1-0.7h-0.7c-0.5,0-1.5-0.1-2.2-0.5c-0.7-0.4-1-0.9-1-1.5c0-0.6,0.3-1.4,0.6-2.2
					c0.6-1.3,1.2-2.2,1.9-2.2c0.7,0,1.3,0.5,1.8,1.1c0.5,0.7,0.7,1.8,0.7,2.8h1c0.6,0,0.9,0.3,0.9,1c0,0.8-0.3,1.2-0.9,1.2l-1.1,0.1
					c-0.2,3.5-1.3,5.8-4.1,6.9c-0.2,0.1-0.4,0.1-0.6,0.1C170.4,36.1,168.8,35.7,167.4,35.1z M173.7,25.4c-0.1-0.1-0.3-0.2-0.6-0.2
					c-0.5,0-0.8,0.5-0.8,0.8c0,0.2,0.2,0.5,0.8,0.7c0.4,0.2,0.9,0.2,1.1,0.2c0.2,0,0.2,0,0.2-0.1C174.5,26.5,174.1,25.8,173.7,25.4z
					"/>
				<path d="M178.5,16.7c0,0-0.1,0-0.1,0c-0.3,0-0.6-0.2-0.8-0.4c-0.3-0.3-0.4-0.7-0.4-1.2c0-0.2,0-0.5,0.1-0.7
					c0.1-0.2,0.3-0.7,0.5-0.7c0.1,0,0.1,0.1,0.1,0.4c0,0.1,0,0.3,0,0.4c0,0.4,0.2,0.6,0.7,0.6h0c0.4,0,0.8-0.3,0.9-0.9
					c0.1-0.2,0.3-1,0.6-1c0.1,0,0.2,0.1,0.2,0.4v0.1c0,0.3,0.1,0.4,0.4,0.4c0,0,0.1,0,0.2,0c0.4-0.1,0.6-0.4,0.7-0.8
					c0.2-0.5,0.3-0.7,0.4-0.7c0.1,0,0.2,0.1,0.2,0.3c0,0.2,0,0.3,0,0.5c0,0.4-0.1,0.8-0.3,1.2c-0.3,0.6-0.7,1.1-1.4,1.1
					c-0.3,0-0.4-0.1-0.6-0.2c-0.1-0.1-0.1-0.1-0.2,0C179.4,16.3,178.9,16.7,178.5,16.7z M181.7,8.5c0,0.2,0,0.2,0,0.3
					c0,0.4-0.1,0.8-0.3,1.2c0.2,0.1,0.3,0.2,0.3,0.3c0,0.3-0.1,0.6-0.3,0.9L181,11c-0.5,0.8-1,1.3-1.3,1.6c-0.3,0.2-0.9,0.4-1.6,0.4
					c-0.4,0-0.5-0.1-0.3-0.2c1.3-0.8,2.2-1.5,2.7-2.2c-0.4-0.3-0.9-0.6-0.9-1.1c0-0.3,0.2-0.7,0.5-1.1c0.3-0.5,0.7-0.7,1-0.7
					C181.4,7.8,181.6,8.2,181.7,8.5z M180.2,9.3c0.1,0.2,0.3,0.3,0.7,0.5c0.1-0.1,0.1-0.4,0.1-0.5c0-0.2-0.1-0.4-0.3-0.4
					C180.5,8.9,180.3,9,180.2,9.3z"/>
				<path d="M181.7,25.5c0,0.6,0.6,1.2,1.4,1.4c0.2,0,0.3,0,0.5,0h0.1c0.9,0,0.9,0.7,0.9,1c0,0.3,0,1.3-0.8,1.3h-0.2
					c-0.2,0-0.3,0-0.6,0c-1.5-0.2-2.1-1.5-2.2-1.7c-0.2,0.6-1.5,1.7-3.7,1.7H177c-0.6,0-1-0.6-1-1.1c0-0.6,0.3-1.1,1-1.1h0.7
					c1,0,2.4-0.2,3.3-1.6c0.3-0.5,0.4-0.5,0.5-0.5C181.6,24.7,181.7,24.9,181.7,25.5z M182.5,19.6c0.1,0.1,0.1,0.1,0,0.2
					c-0.2,0.3-1.1,1.2-1.4,1.7c-0.1,0.1-0.1,0.1-0.2,0c-0.5-0.3-1.5-1-1.7-1.4c-0.1-0.1-0.1-0.1,0-0.2c0.3-0.5,0.9-1.2,1.3-1.6
					c0.2-0.2,0.2-0.2,0.3-0.1C181.1,18.5,181.8,19.2,182.5,19.6z"/>
				<path d="M186,28.1c-0.5,0.7-1.2,1-2.3,1h-0.2c-0.7,0-1-0.4-1-1.2c0-0.7,0.3-1.1,1-1.1h0.2c0.5,0,1-0.1,1.5-0.2
					c0.4-0.1,0.6-0.3,0.7-0.4c0-1.7-0.6-5.4-0.9-8.9c0-0.4-0.3-1.6-0.4-2.1c0-0.1,0-0.2,0-0.2c0-0.3,0.3-0.9,0.5-1.3
					c0.3-0.5,0.5-0.9,0.7-0.9c0.1,0,0.1,0.1,0.2,0.2c0.3,1,0.6,1.5,0.8,1.8c0.1,0.1,0.1,0.2,0.1,0.3c0,0,0,0.1,0,0.1
					c-0.1,0.2-0.4,0.8-0.6,1.1c0.2,3.4,0.7,6.2,0.7,7.8C187,25.8,186.7,27.1,186,28.1z"/>
				<path d="M191.6,29.1c-0.1,0-0.2-0.2-0.2-0.7c0-3-1.1-11.3-1.1-12.7c0-0.7,0.5-1.7,0.9-2.5c0.1-0.2,0.3-0.5,0.5-0.5
					c0.1,0,0.2,0.2,0.2,0.8c0.1,2.2,0.7,7.3,0.7,11c0,1.5-0.1,2.7-0.4,3.5C192,28.8,191.8,29.1,191.6,29.1z"/>
				<path d="M205.7,13.6c0,0.5-0.1,1-0.3,1.5c0.2,0.1,0.4,0.3,0.4,0.4c0,0.4-0.2,0.7-0.3,1c-0.1,0.1-0.1,0.1-0.1,0.1l-0.5-0.3
					c-0.5,0.8-1.3,1.8-2.5,2.3c-0.4,0.2-0.9,0.4-1.5,0.4c-0.3,0-0.4-0.1-0.4-0.1c0-0.1,0.2-0.2,0.6-0.4c0.9-0.5,2.5-1.8,3.1-2.5
					c-0.5-0.3-1.1-0.7-1.1-1.4c0-0.4,0.2-0.9,0.6-1.3c0.4-0.5,0.8-0.8,1.2-0.8C205.5,12.4,205.6,13.1,205.7,13.6z M203.9,14.1
					C203.8,14.1,203.8,14.1,203.9,14.1c0,0.2,0.4,0.5,0.8,0.7c0.1-0.2,0.1-0.4,0.1-0.7c0-0.3-0.1-0.4-0.3-0.4
					C204.2,13.6,204,13.8,203.9,14.1z"/>
				<path d="M208.4,24.4c-0.1,0.7-0.5,1.6-0.8,2.1c-0.1,0.1-0.1,0.1-0.2,0.1c0,0-0.1,0-0.1,0c-0.3-0.1-0.7-0.2-1.5-0.2
					c-1.6,0-3.6,0.4-3.7,1c0,0.8,0.9,4,0.9,8c0,0.4,0,0.8,0,1.1c-0.1,1.7-0.6,2.7-0.8,2.7c-0.1,0-0.2-0.2-0.2-0.6c0-0.3,0-0.6,0-1
					c0-2.3-0.5-5-0.9-7.6c-0.1-0.7-0.2-1.3-0.2-1.8c0-1.9,0.7-2.6,1.1-3c0-0.1,0-0.2,0-0.3c0-1.5,0.9-3.9,2.4-3.9
					c1.8,0,3.2,2.1,4,3.3C208.4,24.2,208.4,24.3,208.4,24.4z M203.9,23.4c-0.6,0-0.8,0.7-1,1.1c0.6-0.4,1.7-0.5,2.3-0.5
					C204.8,23.6,204.4,23.4,203.9,23.4z"/>
				<path d="M214.5,29.1c-0.7,0-1.2-0.1-1.7-0.5c-0.7-0.6-1.1-1.7-1.3-3.1c-0.2-1.1-0.2-2.3-0.3-3.7c-0.1-2-0.2-5.1-0.5-6.9
					c0-0.1,0-0.2,0-0.2c0-0.1,0-0.2,0.2-0.4c0.3-0.5,0.5-0.8,0.7-1.2c0.2-0.3,0.2-0.3,0.3-0.3c0.1,0,0.2,0.2,0.3,0.7
					c0.4,3.5,0.1,8.4,0.6,11.1c0.1,0.7,0.2,0.9,0.4,1.3c0.3,0.6,0.7,0.9,1.4,1c0.8,0,1.2,0.4,1.2,1.1c0,0.9-0.4,1.2-1.1,1.2H214.5z"
					/>
				<path d="M216,24.7c0-0.5,0.2-1.7,0.6-2.5c0.7-1.5,1.9-2.2,2.9-2.2c0.7,0,2.1,0.4,2.8,1c0.3,0.2,0.3,0.4,0.3,0.5
					c0,0.1-0.1,0.1-0.2,0.1c-0.4,0-1-0.1-1.6-0.1c-1.1,0-3.6,1-3.7,1.7c0.1,0.4,1.3,2.3,3.3,2.3h0.1c1.2-0.5,2.7-1.1,3.7-1.6
					c0.4-0.2,0.7-0.3,0.8-0.3c0.1,0,0.1,0,0.1,0.1c0,0.2-0.5,1.2-0.8,1.7c-0.1,0.1-0.2,0.3-0.4,0.4c-0.7,0.4-1.8,0.9-3.2,1.6
					c-1.5,0.7-4.6,1.8-5.9,1.8h-0.2c-0.7,0-1-0.4-1-1.1c0-0.8,0.4-1.1,1.1-1.1h0.2c0.2,0,1.2-0.1,2.1-0.3
					C216.3,26.1,216,25.5,216,24.7z M220.8,15c0.1,0.1,0.1,0.1,0,0.2c-0.2,0.3-1.1,1.2-1.4,1.7c-0.1,0.1-0.1,0.1-0.2,0
					c-0.5-0.3-1.5-1-1.7-1.4c-0.1-0.1-0.1-0.1,0-0.2c0.3-0.5,0.9-1.2,1.3-1.6c0.2-0.2,0.2-0.2,0.3-0.1
					C219.4,13.9,220.1,14.5,220.8,15z"/>
				<path d="M229.9,12.7c0.7,0,1.7,1,1.7,2.1c0,0.4-0.1,0.8-0.2,1.2c-0.3,0.8-0.9,1.3-1.8,1.3c-0.8,0-1.3-0.6-1.3-1.3
					C228.2,14.8,229.4,12.7,229.9,12.7z M229.6,14.3c-0.3,0-0.7,0.6-0.7,1c0,0.3,0.4,0.6,0.8,0.6c0.5,0,1.1-0.3,1.1-0.5
					C230.8,15.1,230.2,14.3,229.6,14.3z"/>
				<path d="M233.8,25.1c0,0.9-0.2,1.7-0.3,2c-0.4,1.5-2,2.1-4.9,2.1c-0.7,0-1-0.1-1.2-0.3c-0.2-0.2-0.3-0.7-0.3-1.2
					c0-0.4,0.1-0.7,0.1-0.8c0.1-0.3,0.2-0.5,0.2-0.5c0.1,0,0.1,0.1,0.2,0.2c0.3,0.2,0.9,0.3,1.7,0.3c1.2,0,2.7-0.2,3.3-0.6
					c0.1,0,0.1-0.1,0.1-0.1c0,0,0-0.1,0-0.1c-0.4-1.4-2.2-3.9-3.6-3.9c-0.2,0-0.4,0.2-0.6,0.2c-0.1,0-0.1,0-0.1-0.2
					c0-0.5,0.4-1.8,0.8-2.2c0.1-0.1,0.3-0.1,0.5-0.1c0.3,0,0.8,0.1,1.1,0.3c0.6,0.2,1.5,1.2,2.2,2.4
					C233.5,23.3,233.8,24.1,233.8,25.1z"/>
				<path d="M240.1,35.6c0.1-0.1,0.1,0,0.1,0.1c0,0.6-0.2,1.1-0.5,1.3l-4.1,2.3c-0.1,0-0.1,0-0.1-0.1c0-0.3,0.1-0.8,0.2-1
					c0.1-0.2,0.3-0.3,0.7-0.5L240.1,35.6z"/>
				<path d="M239.9,33.6c-0.8,0.4-2.6,1.5-4,2.5c-0.1,0-0.1,0-0.1,0s-0.1,0-0.1-0.1c0-0.1,0.1-0.3,0.2-0.7c0.1-0.2,0.5-0.6,0.8-0.9
					c0,0,0.1-0.1,0.1-0.1c0,0,0-0.1-0.1-0.1c-0.6-0.2-0.9-0.4-0.9-0.9c0-0.1,0-0.1,0-0.2c0-0.9,1-2.2,1.8-2.9c0.3-0.3,0.7-0.4,1-0.4
					c0.5,0,0.8,0.3,0.8,0.7c0,0.3-0.1,0.6-0.2,1c-0.1,0.2-0.2,0.4-0.3,0.4c-0.1,0-0.2-0.1-0.3-0.2c-0.1-0.1-0.3-0.3-0.6-0.3
					c-0.8,0-1.3,0.5-1.3,0.7c0,0.3,1.3,0.8,1.8,0.8c0.1,0,0.1,0,0.1,0c0.2-0.1,1.1-0.4,1.5-0.6c0.2-0.1,0.3-0.2,0.3-0.2
					c0,0,0.1,0,0.1,0.1c0,0.1-0.1,0.2-0.1,0.4C240.2,33.4,240.1,33.5,239.9,33.6z M238.4,29.1c-0.1,0-0.2-0.2-0.2-0.7
					c0-3-1.1-11.3-1.1-12.7c0-0.7,0.5-1.7,0.9-2.5c0.1-0.2,0.3-0.5,0.5-0.5c0.1,0,0.2,0.2,0.2,0.8c0.1,2.2,0.7,7.3,0.7,11
					c0,1.5-0.1,2.7-0.4,3.5C238.8,28.8,238.6,29.1,238.4,29.1z"/>
				<path d="M251.6,6.9c0.1-0.1,0.1,0,0.1,0.1c0,0.6-0.2,1.1-0.5,1.3l-4,2.3c-0.1,0-0.1,0-0.1-0.1c0-0.3,0.1-0.8,0.2-1
					c0.1-0.2,0.3-0.3,0.7-0.5L251.6,6.9z M251.6,9c0.1-0.1,0.1,0,0.1,0.1c0,0.6-0.2,1.1-0.5,1.3l-4,2.3c-0.1,0-0.1,0-0.1-0.1
					c0-0.3,0.1-0.8,0.2-1c0.1-0.2,0.3-0.3,0.7-0.5L251.6,9z"/>
				<path d="M252.2,29.1c-0.7,0-1.2-0.1-1.7-0.5c-0.7-0.6-1.1-1.7-1.3-3.1c-0.2-1.1-0.2-2.3-0.3-3.7c-0.1-2-0.2-5.1-0.5-6.9
					c0-0.1,0-0.2,0-0.2c0-0.1,0-0.2,0.2-0.4c0.3-0.5,0.5-0.8,0.7-1.2c0.2-0.3,0.2-0.3,0.3-0.3c0.1,0,0.2,0.2,0.3,0.7
					c0.4,3.5,0.1,8.4,0.6,11.1c0.1,0.7,0.2,0.9,0.4,1.3c0.3,0.6,0.7,0.9,1.4,1c0.8,0,1.2,0.4,1.2,1.1c0,0.9-0.4,1.2-1.1,1.2H252.2z"
					/>
				<path d="M269,29.1c-1.5,0-2.9,0-4.4,0.3c-1.3,0.2-2.6,0.4-4.1,0.4c-1,0-2-0.1-2.9-0.3c-0.2,0.2-0.4,0.5-0.6,0.8
					c-0.2,0.3-0.3,0.5-0.5,0.5c-0.1,0-0.2-0.1-0.2-0.2c0-0.1,0-0.2,0.1-0.3c0.1-0.3,0.3-0.7,0.5-1.1c-1.1-0.4-1.8-1-2.2-2
					c-0.6,1.2-1.4,1.9-2.3,1.9h-0.2c-0.6,0-0.9-0.4-0.9-1.1c0-0.8,0.3-1.1,0.9-1.1h0.2c1.2-0.1,2-0.7,2.4-1.7
					c0.3-0.6,0.5-1.1,0.8-1.1c0.2,0,0.2,0.3,0.2,0.8c0,1.3,1.2,2.1,2.4,2.4c1.6-2,5.4-5.2,7-5.2c0.5,0,1.1,0.2,1.7,0.5
					c0.6,0.3,1.2,0.9,1.2,1.6c0,0.7-0.4,2.1-0.9,2.9c0.7-0.1,1.3-0.2,1.8-0.2h0.2c0.7,0,1.1,0.4,1.1,1.1c0,0.8-0.4,1.2-1.1,1.2H269z
					 M260.3,19.6c0.1,0.1,0.1,0.1,0,0.2c-0.2,0.3-1.1,1.2-1.4,1.7c-0.1,0.1-0.1,0.1-0.2,0c-0.5-0.3-1.5-1-1.7-1.4
					c-0.1-0.1-0.1-0.1,0-0.2c0.3-0.5,0.9-1.2,1.3-1.6c0.2-0.2,0.2-0.2,0.3-0.1C258.8,18.5,259.6,19.2,260.3,19.6z M266.8,26
					c0-0.3-0.4-0.8-0.8-1.1c-0.6-0.4-1.3-0.6-1.7-0.6c-1.6,0-4,1.8-5.2,3c0.5,0.1,1.2,0.2,1.6,0.2C263.4,27.5,265.5,26.7,266.8,26
					C266.8,26.1,266.8,26,266.8,26z"/>
				<path d="M271.7,15c0.7,0,1.7,1,1.7,2.1c0,0.4-0.1,0.8-0.2,1.2c-0.3,0.8-0.9,1.3-1.8,1.3c-0.8,0-1.3-0.6-1.3-1.3
					C270,17.2,271.2,15,271.7,15z M271.5,16.6c-0.3,0-0.7,0.6-0.7,1c0,0.3,0.4,0.6,0.8,0.6c0.5,0,1.1-0.3,1.1-0.5
					C272.7,17.4,272,16.6,271.5,16.6z"/>
				<path d="M272.9,27.7c-0.4,0.6-1.2,1.1-2.6,1.3c-0.4,0.1-0.9,0.1-1.4,0.1c-0.6,0-1-0.6-1-1.1c0-0.6,0.3-1.1,1-1.1h0.5
					c1,0,2.6,0,3.2-0.6c-0.1-0.9-0.8-2-1.1-2.4c0,0,0,0,0-0.1c0-0.4,0.7-1.8,0.7-1.9c0-0.1,0.1-0.1,0.1-0.1c0.3,0,1.1,1.6,1.1,3.5
					C273.5,26.1,273.5,27,272.9,27.7z M273.4,30.3c0.2-0.2,0.2-0.2,0.3-0.1c0.5,0.5,1,1.1,1.5,1.4c0.2,0.1,0.2,0.2,0,0.3
					c-0.5,0.5-0.9,1-1.3,1.5c-0.1,0.1-0.2,0.1-0.3,0c-0.4-0.3-0.9-0.7-1.4-1.2c-0.3,0.3-0.9,1-1.1,1.2c-0.1,0.1-0.2,0.2-0.4,0
					c-0.5-0.3-1.1-0.9-1.5-1.4c-0.1-0.1-0.1-0.2,0-0.3c0.4-0.5,0.9-1,1.4-1.5c0.1-0.1,0.2-0.1,0.3,0.1c0.4,0.4,1,1,1.4,1.2
					C272.7,31.2,273.2,30.5,273.4,30.3z"/>
				<path d="M279,3c0.1-0.1,0.1,0,0.1,0.1c0,0.6-0.2,1.1-0.5,1.3l-4.1,2.3c-0.1,0-0.1,0-0.1-0.1c0-0.3,0.1-0.8,0.2-1
					c0.1-0.2,0.3-0.3,0.7-0.5L279,3z"/>
				<path d="M278.8,10.7c-0.8,0.4-2.6,1.5-4,2.5c-0.1,0-0.1,0-0.1,0c0,0-0.1,0-0.1-0.1c0-0.1,0.1-0.3,0.2-0.7
					c0.1-0.2,0.5-0.6,0.8-0.9c0,0,0.1-0.1,0.1-0.1c0,0,0-0.1-0.1-0.1c-0.6-0.2-0.9-0.4-0.9-0.9c0-0.1,0-0.1,0-0.2
					c0-0.9,1-2.2,1.8-2.9c0.3-0.3,0.7-0.4,1-0.4c0.5,0,0.8,0.3,0.8,0.7c0,0.3-0.1,0.6-0.2,1c-0.1,0.2-0.2,0.4-0.3,0.4
					s-0.2-0.1-0.3-0.2c-0.1-0.1-0.3-0.3-0.6-0.3c-0.8,0-1.3,0.5-1.3,0.7c0,0.3,1.3,0.8,1.8,0.8c0.1,0,0.1,0,0.1,0
					c0.2-0.1,1.1-0.4,1.5-0.6c0.2-0.1,0.3-0.2,0.3-0.2c0,0,0.1,0,0.1,0.1c0,0.1-0.1,0.2-0.1,0.4C279.1,10.5,279,10.6,278.8,10.7z
					 M277.3,29.1c-0.1,0-0.2-0.2-0.2-0.7c0-3-1.1-11.3-1.1-12.7c0-0.7,0.5-1.7,0.9-2.5c0.1-0.2,0.3-0.5,0.5-0.5
					c0.1,0,0.2,0.2,0.2,0.8c0.1,2.2,0.7,7.3,0.7,11c0,1.5-0.1,2.7-0.4,3.5C277.7,28.8,277.5,29.1,277.3,29.1z"/>
				<path d="M300.8,20.6c0.1,0.1,0.1,0.1,0,0.2c-0.2,0.3-1.1,1.2-1.4,1.7c-0.1,0.1-0.1,0.1-0.2,0c-0.5-0.3-1.5-1-1.7-1.4
					c-0.1-0.1-0.1-0.1,0-0.2c0.3-0.5,0.9-1.2,1.3-1.6c0.2-0.2,0.2-0.2,0.3-0.1C299.3,19.5,300.1,20.2,300.8,20.6z"/>
				<path d="M287.3,27.6c0.2-0.4,0.5-0.6,0.7-0.6c0.2,0,0.1,0.4-0.1,0.8c-0.6,1.3-1,2.5-1,3.5c0,1.5,0.8,2.7,2.2,3.3
					c0.8,0.4,1.7,0.5,2.5,0.5c2.7,0,6.9-1.9,7.6-2.8c0,0,0,0,0-0.1c0-0.2-0.5-0.3-1.5-0.4c-2.2-0.2-3.3-0.6-3.3-1.4
					c0-1.7,1.3-3.5,2.7-4.6c1-0.8,2-1.2,2.9-1.2c0.8,0,1.1,0.2,1.4,0.9c0.4,0.6,0.9,1.3,1.4,1.3h0.4c0.6,0,0.9,0.4,0.9,1.1
					c0,0.8-0.3,1.2-0.9,1.2h-0.4c-0.3,0-0.7-0.1-1.1-0.4c-0.4-0.3-0.8-0.6-1-0.9c-0.3-0.4-0.5-0.6-0.7-0.7c-0.2-0.1-0.5-0.2-1-0.2
					c-0.6,0-1.3,0.2-2,0.6c-0.7,0.4-1.2,0.8-1.5,1.3c-0.1,0.1-0.1,0.2-0.1,0.3c0,0.5,0.7,0.8,2,1c1.3,0.1,2.1,0.2,2.5,0.4
					c0.3,0.1,0.5,0.5,0.5,0.9c0,0.2,0,0.5-0.1,0.8c-0.8,2.8-6.2,5.2-9.2,5.1c-0.8,0-2-0.2-2.9-0.6c-1.3-0.6-2.3-1.9-2.3-4
					C285.8,31,286.5,28.8,287.3,27.6z"/>
				<path d="M305.5,7.7c0.7,0,1.7,1,1.7,2.1c0,0.4-0.1,0.8-0.2,1.2c-0.3,0.8-0.9,1.3-1.8,1.3c-0.8,0-1.3-0.6-1.3-1.3
					C303.8,9.9,305,7.7,305.5,7.7z M305.3,9.3c-0.3,0-0.7,0.6-0.7,1c0,0.3,0.4,0.6,0.8,0.6c0.5,0,1.1-0.3,1.1-0.5
					C306.4,10.2,305.8,9.3,305.3,9.3z"/>
				<path d="M307.6,25.5c0,0.6,0.6,1.2,1.4,1.4c0.2,0,0.3,0,0.5,0h0.1c0.9,0,0.9,0.7,0.9,1c0,0.3,0,1.3-0.8,1.3h-0.2
					c-0.2,0-0.3,0-0.6,0c-1.5-0.2-2.1-1.5-2.2-1.7c-0.2,0.6-1.5,1.7-3.7,1.7h-0.1c-0.6,0-1-0.6-1-1.1c0-0.6,0.3-1.1,1-1.1h0.7
					c1,0,2.4-0.2,3.3-1.6c0.3-0.5,0.4-0.5,0.5-0.5C307.5,24.7,307.6,24.9,307.6,25.5z M307.3,19c0.2-0.2,0.2-0.2,0.3-0.1
					c0.5,0.5,1,1.1,1.5,1.4c0.2,0.1,0.2,0.2,0,0.3c-0.5,0.5-0.9,1-1.3,1.5c-0.1,0.1-0.2,0.1-0.3,0c-0.4-0.3-0.9-0.7-1.4-1.2
					c-0.3,0.3-0.9,1-1.1,1.2c-0.1,0.1-0.2,0.2-0.4,0c-0.5-0.3-1.1-0.9-1.5-1.4c-0.1-0.1-0.1-0.2,0-0.3c0.4-0.5,0.9-1,1.4-1.5
					c0.1-0.1,0.2-0.1,0.3,0.1c0.4,0.4,1,1,1.4,1.2C306.6,19.8,307.1,19.2,307.3,19z M307.7,15.7c0.1,0.1,0.1,0.1,0,0.2
					c-0.2,0.3-1.1,1.2-1.4,1.7c-0.1,0.1-0.1,0.1-0.2,0c-0.5-0.3-1.5-1-1.7-1.4c-0.1-0.1-0.1-0.1,0-0.2c0.3-0.5,0.9-1.2,1.3-1.6
					c0.2-0.2,0.2-0.2,0.3-0.1C306.3,14.6,307,15.2,307.7,15.7z"/>
				<path d="M314.3,9.6c0.1-0.1,0.1,0,0.1,0.1c0,0.6-0.2,1.1-0.5,1.3l-4.1,2.3c-0.1,0-0.1,0-0.1-0.1c0-0.3,0.1-0.8,0.2-1
					c0.1-0.2,0.3-0.3,0.7-0.5L314.3,9.6z"/>
				<path d="M315.1,26.8h0.1c0.6,0,0.9,0.6,0.9,1.1c0,0.6-0.3,1.1-0.9,1.1h-0.1c-0.6,0-1.2-0.1-1.8-0.5c-0.8-0.6-1.1-1.7-1.1-1.9
					c-0.1,0.7-1.1,2.4-2.6,2.4h-0.1c-0.6,0-0.9-0.6-0.9-1.1c0-0.6,0.3-1.1,0.9-1.1h0.1c1.2,0,2-0.5,2.1-0.8c0,0,0-0.1,0-0.1
					c0-0.2-0.4-2.6-0.4-2.8c0-0.1,0-0.2,0-0.3c0.1-0.4,0.4-1,0.5-1.4c0.1-0.2,0.2-0.3,0.2-0.3c0.1,0,0.2,0.2,0.2,0.4
					c0.3,1,0.5,3.1,0.8,3.8C313.7,26.3,314.7,26.8,315.1,26.8z M313.6,15c0.2-0.2,0.2-0.2,0.3-0.1c0.5,0.5,1,1.1,1.5,1.4
					c0.2,0.1,0.2,0.2,0,0.3c-0.5,0.5-0.9,1-1.3,1.5c-0.1,0.1-0.2,0.1-0.3,0c-0.4-0.3-0.9-0.7-1.4-1.2c-0.3,0.3-0.9,1-1.1,1.2
					c-0.1,0.1-0.2,0.2-0.4,0c-0.5-0.3-1.1-0.9-1.5-1.4c-0.1-0.1-0.1-0.2,0-0.3c0.4-0.5,0.9-1,1.4-1.5c0.1-0.1,0.2-0.1,0.3,0.1
					c0.4,0.4,1,1,1.4,1.2C312.8,15.9,313.3,15.3,313.6,15z"/>
				<path d="M322.8,16.2c0.7,0,1.7,1,1.7,2.1c0,0.4-0.1,0.8-0.2,1.2c-0.3,0.8-0.9,1.3-1.8,1.3c-0.8,0-1.3-0.6-1.3-1.3
					C321.1,18.4,322.3,16.2,322.8,16.2z M322.6,17.8c-0.3,0-0.7,0.6-0.7,1c0,0.3,0.4,0.6,0.8,0.6c0.5,0,1.1-0.3,1.1-0.5
					C323.7,18.7,323.1,17.8,322.6,17.8z"/>
				<path d="M324,24.6c0.1,0,0.2,0.1,0.2,0.5c0,0.1,0,0.3,0,0.5c0,0.7,0.5,1.1,1.2,1.1c1,0,1.5-1,1.9-1.8c0-0.1,0.2-0.4,0.3-0.4
					c0.1,0,0.2,0.1,0.2,0.6c0.1,1.1,0.7,1.7,1.5,1.7h0.3c0.7,0,1.1,0.3,1.1,1c0,0.8-0.4,1.3-1.1,1.3h-0.3c-1.3,0-2-0.6-2.2-1.9
					c-0.3,0.9-1.2,2-2.3,2c-1.1,0-1.6-0.9-1.7-1.9c-0.4,1.1-1.5,1.9-2.7,1.9c-1.2,0-2-0.4-2.3-1.6c-0.2,0.4-0.4,0.8-0.8,1.1
					c-0.4,0.3-1.1,0.5-2.1,0.5h-0.2c-0.7,0-1-0.4-1-1.2c0-0.7,0.3-1.1,1-1.1h0.3c1.6,0,2.6-0.6,3.2-1.7c0-0.1,0.2-0.3,0.3-0.3
					c0.2,0,0.2,0.2,0.2,0.5c0,0.9,0.8,1.3,1.8,1.3c1.2,0,2.1-0.5,2.8-1.7C323.7,24.8,323.8,24.6,324,24.6z"/>
				<path d="M332.4,12.5c0,0.5-0.1,1-0.3,1.5c0.2,0.1,0.4,0.3,0.4,0.4c0,0.4-0.2,0.7-0.3,1c-0.1,0.1-0.1,0.1-0.1,0.1l-0.5-0.3
					c-0.5,0.8-1.3,1.8-2.5,2.3c-0.4,0.2-0.9,0.4-1.5,0.4c-0.3,0-0.4-0.1-0.4-0.1c0-0.1,0.2-0.2,0.6-0.4c0.9-0.5,2.5-1.8,3.1-2.5
					c-0.5-0.3-1.1-0.7-1.1-1.4c0-0.4,0.2-0.9,0.6-1.3c0.4-0.5,0.8-0.8,1.2-0.8C332.2,11.3,332.4,12,332.4,12.5z M330.6,13
					C330.6,13,330.6,13,330.6,13c0,0.2,0.4,0.5,0.8,0.7c0.1-0.2,0.1-0.4,0.1-0.7c0-0.3-0.1-0.4-0.3-0.4
					C331,12.5,330.8,12.7,330.6,13z"/>
				<path d="M331.2,30.3c0.2-0.2,0.2-0.2,0.3-0.1c0.5,0.5,1,1.1,1.5,1.4c0.2,0.1,0.2,0.2,0,0.3c-0.5,0.5-0.9,1-1.3,1.5
					c-0.1,0.1-0.2,0.1-0.3,0c-0.4-0.3-0.9-0.7-1.4-1.2c-0.3,0.3-0.9,1-1.1,1.2c-0.1,0.1-0.2,0.2-0.4,0c-0.5-0.3-1.1-0.9-1.5-1.4
					c-0.1-0.1-0.1-0.2,0-0.3c0.4-0.5,0.9-1,1.4-1.5c0.1-0.1,0.2-0.1,0.3,0.1c0.4,0.4,1,1,1.4,1.2C330.4,31.2,331,30.6,331.2,30.3z
					 M332.1,27.3c-0.4,0.9-0.9,1.8-2.6,1.8c-0.9,0-1.2-0.5-1.2-1.1c0-0.5,0.4-1.1,1.2-1.1h0c0.5,0,1.8-0.8,1.8-1.6v-0.1
					c-0.1-1.8-0.7-2.3-1.6-3.8c-0.1-0.1-0.1-0.2-0.1-0.3c0-0.3,0.2-1.2,0.6-1.8c0.1-0.2,0.2-0.2,0.3-0.2c0.1,0,0.1,0,0.2,0.1
					c1.3,1.3,1.8,3.8,1.8,5.6C332.5,25.6,332.3,26.7,332.1,27.3z"/>
			</g>
			<g>
				<g>
					<path class="st1" d="M5.3,28.8c0.1-0.1,0.1,0,0.1,0.1c0,0.6-0.2,1.1-0.5,1.3l-4.1,2.3c-0.1,0-0.1,0-0.1-0.1
						c0-0.3,0.1-0.8,0.2-1c0.1-0.2,0.3-0.3,0.7-0.5L5.3,28.8z"/>
					<path class="st1" d="M5.6,24.7c-1.1,0.6-3.5,2-5.4,3.4c-0.1,0.1-0.1,0.1-0.2,0.1S0,28.2,0,28.1c0-0.2,0.1-0.6,0.3-0.9
						c0.1-0.2,0.7-0.8,1.1-1.2c0.1-0.1,0.1-0.1,0.1-0.1c0,0,0-0.1-0.2-0.1c-0.8-0.3-1.3-0.6-1.3-1.4c0-1.2,1.2-3,2.4-3.9
						C3,20,3.4,19.8,3.9,19.8c0.7,0,1.1,0.3,1.1,1c0,0.3-0.1,0.9-0.3,1.4c-0.1,0.3-0.2,0.4-0.3,0.4c-0.1,0-0.1,0-0.3-0.2
						C3.8,22.2,3.5,22,3.2,22c-0.7,0-1.7,0.5-1.7,0.9c0,0.4,1.7,1.1,2.4,1.1C4,24,4,24,4.1,24c0.4-0.1,1.4-0.5,2-0.9
						c0.2-0.1,0.3-0.2,0.4-0.2c0.1,0,0.1,0,0.1,0.1c0,0.1-0.1,0.3-0.2,0.6C6,24.6,5.8,24.6,5.6,24.7z"/>
					<path class="st1" d="M11.1,26.1C11,26.1,11,26,11,25.5c0-3-1.1-11.3-1.1-12.7c0-0.7,0.5-1.7,0.9-2.5c0.1-0.2,0.3-0.5,0.5-0.5
						c0.1,0,0.2,0.2,0.2,0.8c0.1,2.2,0.7,7.3,0.7,11c0,1.5-0.1,2.7-0.4,3.5C11.5,25.8,11.3,26.1,11.1,26.1z"/>
					<path class="st1" d="M18,20.3c-0.7,0-1.1-0.7-1.1-1.5c0-0.2,0-0.5,0.1-0.8c0.1-0.2,0.2-0.8,0.5-0.8c0.1,0,0.2,0.2,0.2,0.6v0.3
						c0,0.3,0.2,0.5,0.6,0.5h0c0.5,0,0.8-0.3,0.9-1c0.1-0.3,0.2-1.1,0.6-1.1c0.1,0,0.2,0.2,0.2,0.5c0,0.2,0.1,0.3,0.4,0.3
						c0.5,0,0.8-0.3,0.9-0.8c0.1-0.7,0.2-0.8,0.4-0.8c0.2,0,0.3,0.7,0.3,1.1c0,0.3,0,0.6-0.2,1c-0.2,0.7-0.7,1.2-1.5,1.2
						c-0.2,0-0.4-0.1-0.5-0.1c-0.1-0.1-0.1,0-0.2,0.1C19.3,19.8,18.8,20.3,18,20.3z M21.9,13.4C22,13.4,22,13.4,21.9,13.4
						c0,0.5-0.2,0.9-0.4,1.2c-0.1,0.1-0.2,0.2-0.5,0.3l-4,1.9c0,0-0.1,0-0.1-0.1c0-0.2,0.1-0.5,0.2-0.7c0.2-0.3,0.2-0.4,0.3-0.5
						c0.1-0.1,0.2-0.1,0.3-0.2L21.9,13.4z"/>
					<path class="st1" d="M23.5,23.8c0.7,0,1.1,0.4,1.1,1.1c0,0.8-0.4,1.2-1.1,1.2h-0.2c-0.6,0-1,0-1.3-0.1c0,0.1,0,0.2,0,0.3
						c0,0.7-0.1,1.5-0.4,2.1c-0.5,1.2-1.3,3.3-3.6,4.3c-0.4,0.2-0.8,0.3-1.2,0.3c-0.9,0-2.4-0.5-3.5-1c-0.3-0.2-0.4-0.3-0.4-0.4
						c0-0.1,0.1-0.2,0.4-0.2c0.3,0,0.8,0.1,1.3,0.1c3.1,0,6.2-2.7,6.6-5c0-0.5-1.1-1.6-1.3-1.9c0-0.1-0.1-0.2-0.1-0.3
						c0-0.5,0.4-1.5,0.6-1.8c0.1-0.2,0.2-0.2,0.3-0.2c0.2,0,0.3,0.2,0.6,0.7c0.4,0.6,0.9,0.9,1.8,0.9H23.5z"/>
					<path class="st1" d="M25.7,25.1c-0.5,0.7-1.2,1-2.3,1h-0.2c-0.7,0-1-0.4-1-1.2c0-0.7,0.3-1.1,1-1.1h0.2c0.5,0,1-0.1,1.5-0.2
						c0.4-0.1,0.6-0.3,0.7-0.4c0-1.7-0.6-5.4-0.9-8.9c0-0.4-0.3-1.6-0.4-2.1c0-0.1,0-0.2,0-0.2c0-0.3,0.3-0.9,0.5-1.3
						c0.3-0.5,0.5-0.9,0.7-0.9c0.1,0,0.1,0.1,0.2,0.2c0.3,1,0.6,1.5,0.8,1.8c0.1,0.1,0.1,0.2,0.1,0.3c0,0,0,0.1,0,0.1
						c-0.1,0.2-0.4,0.8-0.6,1.1c0.2,3.4,0.7,6.2,0.7,7.8C26.7,22.8,26.4,24.1,25.7,25.1z"/>
					<path class="st1" d="M31.3,26.1c-0.1,0-0.2-0.2-0.2-0.7c0-3-1.1-11.3-1.1-12.7c0-0.7,0.5-1.7,0.9-2.5c0.1-0.2,0.3-0.5,0.5-0.5
						c0.1,0,0.2,0.2,0.2,0.8c0.1,2.2,0.7,7.3,0.7,11c0,1.5-0.1,2.7-0.4,3.5C31.7,25.8,31.5,26.1,31.3,26.1z"/>
					<path class="st1" d="M54.5,27.9c0.1-0.1,0.1,0,0.1,0.1c0,0.6-0.2,1.1-0.5,1.3L50,31.6c-0.1,0-0.1,0-0.1-0.1
						c0-0.3,0.1-0.8,0.2-1c0.1-0.2,0.3-0.3,0.7-0.5L54.5,27.9z"/>
					<path class="st1" d="M59.4,20.5c0,0.5-0.3,1.8-0.6,2.8c-0.3,0.7-0.4,0.8-1.2,1.2c-1.7,0.8-5.7,2-9.8,2c-5.3,0-7.4-1.8-7.4-4.3
						c0-0.9,0.4-2.4,1-3.3c0.2-0.3,0.4-0.6,0.6-0.6c0.1,0,0.1,0,0.1,0.1c0,0.1-0.1,0.3-0.1,0.5c-0.2,0.7-0.5,1.4-0.5,2
						c0,1.1,1.4,3.1,6.5,3.2c3.7,0,7.7-0.8,9.4-1.4c0.9-0.3,0.9-0.5,0.9-1.1c0-0.5-0.1-0.8-0.3-1.3c-0.2,0.5-0.9,1-1.8,1
						c-1.1,0-1.8-0.7-1.8-2c0-1.8,1.4-4.1,2-4.1C58,15.1,59.4,17.7,59.4,20.5z M54.4,12.3c0.1,0.1,0.1,0.1,0,0.2
						c-0.2,0.3-1.1,1.2-1.4,1.7c-0.1,0.1-0.1,0.1-0.2,0c-0.5-0.3-1.5-1-1.7-1.4c-0.1-0.1-0.1-0.1,0-0.2c0.3-0.5,0.9-1.2,1.3-1.6
						c0.2-0.2,0.2-0.2,0.3-0.1C53,11.2,53.7,11.9,54.4,12.3z M56.2,17.3c-0.3,0-0.6,0.4-0.7,0.8c0,0,0,0.1,0,0.1s0,0.1,0,0.1
						c0.1,0.3,0.5,0.5,1,0.5c0.4,0,0.8-0.2,0.9-0.3c0,0,0.1-0.1,0.1-0.1C57.4,18.2,57,17.3,56.2,17.3z"/>
					<path class="st1" d="M64.3,15.5c0.7,0,1.7,1,1.7,2.1c0,0.4-0.1,0.8-0.2,1.2c-0.3,0.8-0.9,1.3-1.8,1.3c-0.8,0-1.3-0.6-1.3-1.3
						C62.7,17.7,63.8,15.5,64.3,15.5z M64.1,17.1c-0.3,0-0.7,0.6-0.7,1c0,0.3,0.4,0.6,0.8,0.6c0.5,0,1.1-0.3,1.1-0.5
						C65.3,18,64.7,17.1,64.1,17.1z"/>
					<path class="st1" d="M67.9,23.8c0.7,0,1.1,0.4,1.1,1.1c0,0.8-0.4,1.2-1.1,1.2h-0.2c-0.6,0-1,0-1.3-0.1c0,0.1,0,0.2,0,0.3
						c0,0.7-0.1,1.5-0.4,2.1c-0.5,1.2-1.3,3.3-3.6,4.3c-0.4,0.2-0.8,0.3-1.2,0.3c-0.9,0-2.4-0.5-3.5-1c-0.3-0.2-0.4-0.3-0.4-0.4
						c0-0.1,0.1-0.2,0.4-0.2c0.3,0,0.8,0.1,1.3,0.1c3.1,0,6.2-2.7,6.6-5c0-0.5-1.1-1.6-1.3-1.9c0-0.1-0.1-0.2-0.1-0.3
						c0-0.5,0.4-1.5,0.6-1.8c0.1-0.2,0.2-0.2,0.3-0.2c0.2,0,0.3,0.2,0.6,0.7c0.4,0.6,0.9,0.9,1.8,0.9H67.9z"/>
					<path class="st1" d="M73.7,12.2c0.1-0.1,0.1,0,0.1,0.1c0,0.6-0.2,1.1-0.5,1.3l-4.1,2.3c-0.1,0-0.1,0-0.1-0.1
						c0-0.3,0.1-0.8,0.2-1c0.1-0.2,0.3-0.3,0.7-0.5L73.7,12.2z"/>
					<path class="st1" d="M83.5,29.8c0.1-0.1,0.1,0,0.1,0.1c0,0.6-0.2,1.1-0.5,1.3L79,33.5c-0.1,0-0.1,0-0.1-0.1
						c0-0.3,0.1-0.8,0.2-1c0.1-0.2,0.3-0.3,0.7-0.5L83.5,29.8z"/>
					<path class="st1" d="M82.8,27.5c0.1,0.1,0.1,0.1,0,0.2c-0.2,0.3-1.1,1.2-1.4,1.7c-0.1,0.1-0.1,0.1-0.2,0
						c-0.5-0.3-1.5-1-1.7-1.4c-0.1-0.1-0.1-0.1,0-0.2c0.3-0.5,0.9-1.2,1.3-1.6c0.2-0.2,0.2-0.2,0.3-0.1C81.3,26.4,82.1,27,82.8,27.5
						z"/>
					<path class="st1" d="M79.2,17.3c-0.2,0-0.2-0.2-0.3-0.5c-0.1-0.6-0.4-1.2-0.8-1.2c-0.3,0-0.7,0.3-1.1,0.9
						c-1.1,1.7-2.3,2.8-3.3,3.5c-0.1,0,0,0.1,0.1,0.1c3.5,1.3,6.4,1.9,8.8,1.8c0.1,0,0.2,0,0.1,0.3c-0.2,0.3-0.6,0.9-1.3,1.7
						c-0.1,0.1-0.2,0.2-0.3,0.1c-0.9-0.1-1.8-0.2-2.5-0.3c-1,0-1.9,0.1-2.7,0.3c-0.7,0.2-1.7,0.5-2.8,0.9c-1.1,0.4-2.1,0.7-2.7,0.9
						c-0.6,0.2-1.5,0.3-2.5,0.3h-0.3c-0.6,0-0.9-0.4-0.9-1.2c0-0.7,0.3-1.1,0.9-1.1h0.3c2.1,0,4.3-0.3,6.6-1c0,0,0,0-0.2-0.1
						c-1.4-0.7-3.1-1.1-5.2-1.3c-0.2,0-0.1-0.1,0-0.3c0.2-0.3,0.6-0.8,1.3-1.5c0.3-0.3,1-0.7,2.2-1.1c1.9-0.8,3.9-2.1,5-4.2
						c0.3-0.6,0.9-1.1,1.4-1.1c0.8,0,1.1,1.2,1.1,1.8c0,0.6,0,0.9-0.1,1.3C79.7,16.8,79.5,17.3,79.2,17.3z"/>
					<path class="st1" d="M94.9,27.1c0.1-0.1,0.1,0,0.1,0.1c0,0.6-0.2,1.1-0.5,1.3l-4.1,2.3c-0.1,0-0.1,0-0.1-0.1
						c0-0.3,0.1-0.8,0.2-1c0.1-0.2,0.3-0.3,0.7-0.5L94.9,27.1z"/>
					<path class="st1" d="M93.8,11c0.2-0.2,0.2-0.2,0.3-0.1c0.5,0.5,1,1.1,1.5,1.4c0.2,0.1,0.2,0.2,0,0.3c-0.5,0.5-0.9,1-1.3,1.5
						c-0.1,0.1-0.2,0.1-0.3,0c-0.4-0.3-0.9-0.7-1.4-1.2c-0.3,0.3-0.9,1-1.1,1.2c-0.1,0.1-0.2,0.2-0.4,0c-0.5-0.3-1.1-0.9-1.5-1.4
						c-0.1-0.1-0.1-0.2,0-0.3c0.4-0.5,0.9-1,1.4-1.5c0.1-0.1,0.2-0.1,0.3,0.1c0.4,0.4,1,1,1.4,1.2C93,11.8,93.5,11.2,93.8,11z
						 M96.7,23.4c0.5,0.3,0.9,0.5,1.2,0.5h0.3c0.7,0,1.1,0.4,1.1,1.1c0,0.8-0.4,1.2-1.1,1.2h-0.3c-0.8,0-1.5-0.3-2.3-0.9
						c-0.7-0.6-1.2-1.6-1.4-3c-0.2,0.4-0.4,0.7-0.8,1c-0.6,0.4-1.6,0.6-2.6,0.6c-0.7,0-1.4-0.1-1.4-0.7c0.3-2.2,0.6-2.6,1.7-3.4
						c0.5-0.4,1.8-1.2,2.3-1.6c0-0.2,0-0.4,0-0.5c0-0.5,0.1-0.8,0.4-1.2c0.2-0.3,0.3-0.5,0.4-0.5c0.1,0,0.2,0.2,0.2,0.5
						c0.3,2.1,0.5,3.8,0.8,4.8C95.5,22.1,96,22.9,96.7,23.4z M93.7,19.3c-0.9,0.6-2.5,1.6-2.6,1.9c0,0.2,0.3,0.2,0.7,0.2
						c0.6,0,1.5-0.2,2.2-0.5C93.9,20.3,93.9,20.1,93.7,19.3z"/>
					<path class="st1" d="M103.3,10c0.1-0.1,0.1,0,0.1,0.1c0,0.6-0.2,1.1-0.5,1.3l-4.1,2.3c-0.1,0-0.1,0-0.1-0.1
						c0-0.3,0.1-0.8,0.2-1c0.1-0.2,0.3-0.3,0.7-0.5L103.3,10z"/>
					<path class="st1" d="M102.7,22.5c0,0.6,0.6,1.2,1.4,1.4c0.2,0,0.3,0,0.5,0h0.1c0.9,0,0.9,0.7,0.9,1c0,0.3,0,1.3-0.8,1.3h-0.2
						c-0.2,0-0.3,0-0.6,0c-1.5-0.2-2.1-1.5-2.2-1.7c-0.2,0.6-1.5,1.7-3.7,1.7H98c-0.6,0-1-0.6-1-1.1c0-0.6,0.3-1.1,1-1.1h0.7
						c1,0,2.4-0.2,3.3-1.6c0.3-0.5,0.4-0.5,0.5-0.5C102.6,21.7,102.7,21.9,102.7,22.5z M103.6,16.6c0.1,0.1,0.1,0.1,0,0.2
						c-0.2,0.3-1.1,1.2-1.4,1.7c-0.1,0.1-0.1,0.1-0.2,0c-0.5-0.3-1.5-1-1.7-1.4c-0.1-0.1-0.1-0.1,0-0.2c0.3-0.5,0.9-1.2,1.3-1.6
						c0.2-0.2,0.2-0.2,0.3-0.1C102.1,15.5,102.9,16.2,103.6,16.6z"/>
					<path class="st1" d="M111.1,27.9c0.1-0.1,0.1,0,0.1,0.1c0,0.6-0.2,1.1-0.5,1.3l-4.1,2.3c-0.1,0-0.1,0-0.1-0.1
						c0-0.3,0.1-0.8,0.2-1c0.1-0.2,0.3-0.3,0.7-0.5L111.1,27.9z"/>
					<path class="st1" d="M116.2,10.2c0.1,0,0.1,0,0.1,0.1c0,0.3-0.5,1.3-0.7,1.6c0,0.1-0.1,0.1-0.2,0.2c-0.7,0.2-5.9,2.3-8.2,3.8
						c2.2,1.2,4.4,3.8,4.4,5.4c0,1.6-0.5,2.7-1.3,3.5c-1.4,0.8-3.2,1.2-5.4,1.2h-0.3c-0.4,0-0.7-0.5-0.7-1.1c0-0.6,0.3-1.1,0.7-1.1
						h0.2c3,0,5.4-0.7,5.9-1.2c0-1.4-2.4-3.7-4.2-4.6c-0.3-0.1-0.5-0.3-0.7-0.5c-0.1-0.2-0.2-0.5-0.2-0.9c0-0.5,0.1-1.1,0.4-1.4
						c0.7-0.7,1.4-1.2,2.9-2c2.8-1.5,5.7-2.5,6.8-2.9C115.8,10.3,116,10.2,116.2,10.2z"/>
					<path class="st1" d="M121.6,26.1c-0.7,0-1.2-0.1-1.7-0.5c-0.7-0.6-1.1-1.7-1.3-3.1c-0.2-1.1-0.2-2.3-0.3-3.7
						c-0.1-2-0.2-5.1-0.5-6.9c0-0.1,0-0.2,0-0.2c0-0.1,0-0.2,0.2-0.4c0.3-0.5,0.5-0.8,0.7-1.2c0.2-0.3,0.2-0.3,0.3-0.3
						c0.1,0,0.2,0.2,0.3,0.7c0.4,3.5,0.1,8.4,0.6,11.1c0.1,0.7,0.2,0.9,0.4,1.3c0.3,0.6,0.7,0.9,1.4,1c0.8,0,1.2,0.4,1.2,1.1
						c0,0.9-0.4,1.2-1.1,1.2H121.6z"/>
					<path class="st1" d="M127.4,18c-0.7,0-1.1-0.7-1.1-1.5c0-0.2,0-0.5,0.1-0.8c0.1-0.2,0.2-0.8,0.5-0.8c0.1,0,0.2,0.2,0.2,0.6v0.3
						c0,0.3,0.2,0.5,0.6,0.5h0c0.5,0,0.8-0.3,0.9-1c0.1-0.3,0.2-1.1,0.6-1.1c0.1,0,0.2,0.2,0.2,0.5c0,0.2,0.1,0.3,0.4,0.3
						c0.5,0,0.8-0.3,0.9-0.8c0.1-0.7,0.2-0.8,0.4-0.8c0.2,0,0.3,0.7,0.3,1.1c0,0.3,0,0.6-0.2,1c-0.2,0.7-0.7,1.2-1.5,1.2
						c-0.2,0-0.4-0.1-0.5-0.1c-0.1-0.1-0.1,0-0.2,0.1C128.6,17.5,128.1,18,127.4,18z M131.3,11.1C131.4,11,131.3,11.1,131.3,11.1
						c0,0.5-0.2,0.9-0.4,1.2c-0.1,0.1-0.2,0.2-0.5,0.3l-4,1.9c0,0-0.1,0-0.1-0.1c0-0.2,0.1-0.5,0.2-0.7c0.2-0.3,0.2-0.4,0.3-0.5
						c0.1-0.1,0.2-0.1,0.3-0.2L131.3,11.1z"/>
					<path class="st1" d="M130.5,21.6c0.1,0,0.2,0.1,0.2,0.5c0,0.1,0,0.3,0,0.5c0,0.7,0.5,1.1,1.2,1.1c1,0,1.5-1,1.9-1.8
						c0-0.1,0.2-0.4,0.3-0.4c0.1,0,0.2,0.1,0.2,0.6c0.1,1.1,0.7,1.7,1.5,1.7h0.3c0.7,0,1.1,0.3,1.1,1c0,0.8-0.4,1.3-1.1,1.3h-0.3
						c-1.3,0-2-0.6-2.2-1.9c-0.3,0.9-1.2,2-2.3,2c-1.1,0-1.6-0.9-1.7-1.9c-0.4,1.1-1.5,1.9-2.7,1.9c-1.2,0-2-0.4-2.3-1.6
						c-0.2,0.4-0.4,0.8-0.8,1.1c-0.4,0.3-1.1,0.5-2.1,0.5h-0.2c-0.7,0-1-0.4-1-1.2c0-0.7,0.3-1.1,1-1.1h0.3c1.6,0,2.6-0.6,3.2-1.7
						c0-0.1,0.2-0.3,0.3-0.3c0.2,0,0.2,0.2,0.2,0.5c0,0.9,0.8,1.3,1.8,1.3c1.2,0,2.1-0.5,2.8-1.7C130.2,21.8,130.3,21.6,130.5,21.6z
						"/>
					<path class="st1" d="M138.3,25.1c-0.5,0.7-1.2,1-2.3,1h-0.2c-0.7,0-1-0.4-1-1.2c0-0.7,0.3-1.1,1-1.1h0.2c0.5,0,1-0.1,1.5-0.2
						c0.4-0.1,0.6-0.3,0.7-0.4c0-1.7-0.6-5.4-0.9-8.9c0-0.4-0.3-1.6-0.4-2.1c0-0.1,0-0.2,0-0.2c0-0.3,0.3-0.9,0.5-1.3
						c0.3-0.5,0.5-0.9,0.7-0.9c0.1,0,0.1,0.1,0.2,0.2c0.3,1,0.6,1.5,0.8,1.8c0.1,0.1,0.1,0.2,0.1,0.3c0,0,0,0.1,0,0.1
						c-0.1,0.2-0.4,0.8-0.6,1.1c0.2,3.4,0.7,6.2,0.7,7.8C139.3,22.8,139,24.1,138.3,25.1z"/>
					<path class="st1" d="M143.9,26.1c-0.1,0-0.2-0.2-0.2-0.7c0-3-1.1-11.3-1.1-12.7c0-0.7,0.5-1.7,0.9-2.5c0.1-0.2,0.3-0.5,0.5-0.5
						c0.1,0,0.2,0.2,0.2,0.8c0.1,2.2,0.7,7.3,0.7,11c0,1.5-0.1,2.7-0.4,3.5C144.3,25.8,144.1,26.1,143.9,26.1z"/>
					<path class="st1" d="M163.1,29.2c0.1-0.1,0.1,0,0.1,0.1c0,0.6-0.2,1.1-0.5,1.3l-4.1,2.3c-0.1,0-0.1,0-0.1-0.1
						c0-0.3,0.1-0.8,0.2-1c0.1-0.2,0.3-0.3,0.7-0.5L163.1,29.2z"/>
					<path class="st1" d="M154.5,26.8c-0.9-0.8-1.4-2.1-1.4-3.4c0-1.5,0.9-3.2,1.4-3.9c0.2-0.3,0.4-0.4,0.5-0.4
						c0.1,0,0.1,0.1,0.1,0.2c0,0.1-0.1,0.3-0.2,0.5c-0.4,0.9-0.9,1.8-0.9,2.9c0,0.8,0.6,1.6,1.4,2.1c0.8,0.5,1.7,0.8,2.7,0.8
						c2.4,0,5.7-1,6.4-2.7c0-0.2,0-0.3,0-0.4c0-1.1-0.3-2.3-0.9-3.1c-0.2-0.4-0.4-0.7-0.5-0.8c0,0,0-0.1,0-0.2
						c0-0.2,0.1-0.5,0.2-0.8c0.2-0.4,0.3-0.8,0.4-1.1c0.1-0.1,0.1-0.2,0.2-0.2c0.1,0,0.1,0,0.2,0.3c0.7,1.5,1.3,2.9,1.3,4.7
						c0,1.4-0.2,2.3-0.3,2.7c-0.4,0.9-0.6,1.3-1.1,1.8c-0.5,0.5-1.4,1.2-2.5,1.6c-1.1,0.5-2.4,0.7-4.1,0.7
						C156.4,27.9,155.3,27.6,154.5,26.8z M161,13c0.1,0.1,0.1,0.1,0,0.2c-0.2,0.3-1.1,1.2-1.4,1.7c-0.1,0.1-0.1,0.1-0.2,0
						c-0.5-0.3-1.5-1-1.7-1.4c-0.1-0.1-0.1-0.1,0-0.2c0.3-0.5,0.9-1.2,1.3-1.6c0.2-0.2,0.2-0.2,0.3-0.1
						C159.6,11.9,160.3,12.6,161,13z"/>
					<path class="st1" d="M164.4,32.1c-0.3-0.2-0.4-0.3-0.4-0.4c0-0.1,0.2-0.2,0.4-0.2c0.3,0,1.1,0.2,1.8,0.2c0.6,0,1.2-0.2,2.1-0.6
						c2.4-1.2,3.9-3,3.9-4.2c0-0.2,0-0.3-0.1-0.7h-0.7c-0.5,0-1.5-0.1-2.2-0.5c-0.7-0.4-1-0.9-1-1.5c0-0.6,0.3-1.4,0.6-2.2
						c0.6-1.3,1.2-2.2,1.9-2.2c0.7,0,1.3,0.5,1.8,1.1c0.5,0.7,0.7,1.8,0.7,2.8h1c0.6,0,0.9,0.3,0.9,1c0,0.8-0.3,1.2-0.9,1.2
						l-1.1,0.1c-0.2,3.5-1.3,5.8-4.1,6.9c-0.2,0.1-0.4,0.1-0.6,0.1C167.4,33.1,165.8,32.7,164.4,32.1z M170.7,22.4
						c-0.1-0.1-0.3-0.2-0.6-0.2c-0.5,0-0.8,0.5-0.8,0.8c0,0.2,0.2,0.5,0.8,0.7c0.4,0.2,0.9,0.2,1.1,0.2c0.2,0,0.2,0,0.2-0.1
						C171.5,23.5,171.1,22.8,170.7,22.4z"/>
					<path class="st1" d="M175.5,13.7c0,0-0.1,0-0.1,0c-0.3,0-0.6-0.2-0.8-0.4c-0.3-0.3-0.4-0.7-0.4-1.2c0-0.2,0-0.5,0.1-0.7
						c0.1-0.2,0.3-0.7,0.5-0.7c0.1,0,0.1,0.1,0.1,0.4c0,0.1,0,0.3,0,0.4c0,0.4,0.2,0.6,0.7,0.6h0c0.4,0,0.8-0.3,0.9-0.9
						c0.1-0.2,0.3-1,0.6-1c0.1,0,0.2,0.1,0.2,0.4v0.1c0,0.3,0.1,0.4,0.4,0.4c0,0,0.1,0,0.2,0c0.4-0.1,0.6-0.4,0.7-0.8
						c0.2-0.5,0.3-0.7,0.4-0.7c0.1,0,0.2,0.1,0.2,0.3c0,0.2,0,0.3,0,0.5c0,0.4-0.1,0.8-0.3,1.2c-0.3,0.6-0.7,1.1-1.4,1.1
						c-0.3,0-0.4-0.1-0.6-0.2c-0.1-0.1-0.1-0.1-0.2,0C176.4,13.3,175.9,13.7,175.5,13.7z M178.7,5.5c0,0.2,0,0.2,0,0.3
						c0,0.4-0.1,0.8-0.3,1.2c0.2,0.1,0.3,0.2,0.3,0.3c0,0.3-0.1,0.6-0.3,0.9L178,8c-0.5,0.8-1,1.3-1.3,1.6c-0.3,0.2-0.9,0.4-1.6,0.4
						c-0.4,0-0.5-0.1-0.3-0.2c1.3-0.8,2.2-1.5,2.7-2.2c-0.4-0.3-0.9-0.6-0.9-1.1c0-0.3,0.2-0.7,0.5-1.1c0.3-0.5,0.7-0.7,1-0.7
						C178.4,4.8,178.6,5.2,178.7,5.5z M177.2,6.3c0.1,0.2,0.3,0.3,0.7,0.5c0.1-0.1,0.1-0.4,0.1-0.5c0-0.2-0.1-0.4-0.3-0.4
						C177.5,5.9,177.3,6,177.2,6.3z"/>
					<path class="st1" d="M178.7,22.5c0,0.6,0.6,1.2,1.4,1.4c0.2,0,0.3,0,0.5,0h0.1c0.9,0,0.9,0.7,0.9,1c0,0.3,0,1.3-0.8,1.3h-0.2
						c-0.2,0-0.3,0-0.6,0c-1.5-0.2-2.1-1.5-2.2-1.7c-0.2,0.6-1.5,1.7-3.7,1.7H174c-0.6,0-1-0.6-1-1.1c0-0.6,0.3-1.1,1-1.1h0.7
						c1,0,2.4-0.2,3.3-1.6c0.3-0.5,0.4-0.5,0.5-0.5C178.6,21.7,178.7,21.9,178.7,22.5z M179.5,16.6c0.1,0.1,0.1,0.1,0,0.2
						c-0.2,0.3-1.1,1.2-1.4,1.7c-0.1,0.1-0.1,0.1-0.2,0c-0.5-0.3-1.5-1-1.7-1.4c-0.1-0.1-0.1-0.1,0-0.2c0.3-0.5,0.9-1.2,1.3-1.6
						c0.2-0.2,0.2-0.2,0.3-0.1C178.1,15.5,178.8,16.2,179.5,16.6z"/>
					<path class="st1" d="M183,25.1c-0.5,0.7-1.2,1-2.3,1h-0.2c-0.7,0-1-0.4-1-1.2c0-0.7,0.3-1.1,1-1.1h0.2c0.5,0,1-0.1,1.5-0.2
						c0.4-0.1,0.6-0.3,0.7-0.4c0-1.7-0.6-5.4-0.9-8.9c0-0.4-0.3-1.6-0.4-2.1c0-0.1,0-0.2,0-0.2c0-0.3,0.3-0.9,0.5-1.3
						c0.3-0.5,0.5-0.9,0.7-0.9c0.1,0,0.1,0.1,0.2,0.2c0.3,1,0.6,1.5,0.8,1.8c0.1,0.1,0.1,0.2,0.1,0.3c0,0,0,0.1,0,0.1
						c-0.1,0.2-0.4,0.8-0.6,1.1c0.2,3.4,0.7,6.2,0.7,7.8C184,22.8,183.7,24.1,183,25.1z"/>
					<path class="st1" d="M188.6,26.1c-0.1,0-0.2-0.2-0.2-0.7c0-3-1.1-11.3-1.1-12.7c0-0.7,0.5-1.7,0.9-2.5c0.1-0.2,0.3-0.5,0.5-0.5
						c0.1,0,0.2,0.2,0.2,0.8c0.1,2.2,0.7,7.3,0.7,11c0,1.5-0.1,2.7-0.4,3.5C189,25.8,188.8,26.1,188.6,26.1z"/>
					<path class="st1" d="M202.7,10.6c0,0.5-0.1,1-0.3,1.5c0.2,0.1,0.4,0.3,0.4,0.4c0,0.4-0.2,0.7-0.3,1c-0.1,0.1-0.1,0.1-0.1,0.1
						l-0.5-0.3c-0.5,0.8-1.3,1.8-2.5,2.3c-0.4,0.2-0.9,0.4-1.5,0.4c-0.3,0-0.4-0.1-0.4-0.1c0-0.1,0.2-0.2,0.6-0.4
						c0.9-0.5,2.5-1.8,3.1-2.5c-0.5-0.3-1.1-0.7-1.1-1.4c0-0.4,0.2-0.9,0.6-1.3c0.4-0.5,0.8-0.8,1.2-0.8
						C202.5,9.4,202.6,10.1,202.7,10.6z M200.9,11.1C200.8,11.1,200.8,11.1,200.9,11.1c0,0.2,0.4,0.5,0.8,0.7
						c0.1-0.2,0.1-0.4,0.1-0.7c0-0.3-0.1-0.4-0.3-0.4C201.2,10.6,201,10.8,200.9,11.1z"/>
					<path class="st1" d="M205.4,21.4c-0.1,0.7-0.5,1.6-0.8,2.1c-0.1,0.1-0.1,0.1-0.2,0.1c0,0-0.1,0-0.1,0c-0.3-0.1-0.7-0.2-1.5-0.2
						c-1.6,0-3.6,0.4-3.7,1c0,0.8,0.9,4,0.9,8c0,0.4,0,0.8,0,1.1c-0.1,1.7-0.6,2.7-0.8,2.7c-0.1,0-0.2-0.2-0.2-0.6c0-0.3,0-0.6,0-1
						c0-2.3-0.5-5-0.9-7.6c-0.1-0.7-0.2-1.3-0.2-1.8c0-1.9,0.7-2.6,1.1-3c0-0.1,0-0.2,0-0.3c0-1.5,0.9-3.9,2.4-3.9
						c1.8,0,3.2,2.1,4,3.3C205.4,21.2,205.4,21.3,205.4,21.4z M200.9,20.4c-0.6,0-0.8,0.7-1,1.1c0.6-0.4,1.7-0.5,2.3-0.5
						C201.8,20.6,201.4,20.4,200.9,20.4z"/>
					<path class="st1" d="M211.5,26.1c-0.7,0-1.2-0.1-1.7-0.5c-0.7-0.6-1.1-1.7-1.3-3.1c-0.2-1.1-0.2-2.3-0.3-3.7
						c-0.1-2-0.2-5.1-0.5-6.9c0-0.1,0-0.2,0-0.2c0-0.1,0-0.2,0.2-0.4c0.3-0.5,0.5-0.8,0.7-1.2c0.2-0.3,0.2-0.3,0.3-0.3
						c0.1,0,0.2,0.2,0.3,0.7c0.4,3.5,0.1,8.4,0.6,11.1c0.1,0.7,0.2,0.9,0.4,1.3c0.3,0.6,0.7,0.9,1.4,1c0.8,0,1.2,0.4,1.2,1.1
						c0,0.9-0.4,1.2-1.1,1.2H211.5z"/>
					<path class="st1" d="M213,21.7c0-0.5,0.2-1.7,0.6-2.5c0.7-1.5,1.9-2.2,2.9-2.2c0.7,0,2.1,0.4,2.8,1c0.3,0.2,0.3,0.4,0.3,0.5
						c0,0.1-0.1,0.1-0.2,0.1c-0.4,0-1-0.1-1.6-0.1c-1.1,0-3.6,1-3.7,1.7c0.1,0.4,1.3,2.3,3.3,2.3h0.1c1.2-0.5,2.7-1.1,3.7-1.6
						c0.4-0.2,0.7-0.3,0.8-0.3c0.1,0,0.1,0,0.1,0.1c0,0.2-0.5,1.2-0.8,1.7c-0.1,0.1-0.2,0.3-0.4,0.4c-0.7,0.4-1.8,0.9-3.2,1.6
						c-1.5,0.7-4.6,1.8-5.9,1.8h-0.2c-0.7,0-1-0.4-1-1.1c0-0.8,0.4-1.1,1.1-1.1h0.2c0.2,0,1.2-0.1,2.1-0.3
						C213.3,23.1,213,22.5,213,21.7z M217.8,12c0.1,0.1,0.1,0.1,0,0.2c-0.2,0.3-1.1,1.2-1.4,1.7c-0.1,0.1-0.1,0.1-0.2,0
						c-0.5-0.3-1.5-1-1.7-1.4c-0.1-0.1-0.1-0.1,0-0.2c0.3-0.5,0.9-1.2,1.3-1.6c0.2-0.2,0.2-0.2,0.3-0.1
						C216.4,10.9,217.1,11.5,217.8,12z"/>
					<path class="st1" d="M226.9,9.7c0.7,0,1.7,1,1.7,2.1c0,0.4-0.1,0.8-0.2,1.2c-0.3,0.8-0.9,1.3-1.8,1.3c-0.8,0-1.3-0.6-1.3-1.3
						C225.2,11.8,226.4,9.7,226.9,9.7z M226.6,11.3c-0.3,0-0.7,0.6-0.7,1c0,0.3,0.4,0.6,0.8,0.6c0.5,0,1.1-0.3,1.1-0.5
						C227.8,12.1,227.2,11.3,226.6,11.3z"/>
					<path class="st1" d="M230.8,22.1c0,0.9-0.2,1.7-0.3,2c-0.4,1.5-2,2.1-4.9,2.1c-0.7,0-1-0.1-1.2-0.3c-0.2-0.2-0.3-0.7-0.3-1.2
						c0-0.4,0.1-0.7,0.1-0.8c0.1-0.3,0.2-0.5,0.2-0.5c0.1,0,0.1,0.1,0.2,0.2c0.3,0.2,0.9,0.3,1.7,0.3c1.2,0,2.7-0.2,3.3-0.6
						c0.1,0,0.1-0.1,0.1-0.1c0,0,0-0.1,0-0.1c-0.4-1.4-2.2-3.9-3.6-3.9c-0.2,0-0.4,0.2-0.6,0.2c-0.1,0-0.1,0-0.1-0.2
						c0-0.5,0.4-1.8,0.8-2.2c0.1-0.1,0.3-0.1,0.5-0.1c0.3,0,0.8,0.1,1.1,0.3c0.6,0.2,1.5,1.2,2.2,2.4
						C230.5,20.3,230.8,21.1,230.8,22.1z"/>
					<path class="st1" d="M237.1,32.6c0.1-0.1,0.1,0,0.1,0.1c0,0.6-0.2,1.1-0.5,1.3l-4.1,2.3c-0.1,0-0.1,0-0.1-0.1
						c0-0.3,0.1-0.8,0.2-1c0.1-0.2,0.3-0.3,0.7-0.5L237.1,32.6z"/>
					<path class="st1" d="M236.9,30.6c-0.8,0.4-2.6,1.5-4,2.5c-0.1,0-0.1,0-0.1,0s-0.1,0-0.1-0.1c0-0.1,0.1-0.3,0.2-0.7
						c0.1-0.2,0.5-0.6,0.8-0.9c0,0,0.1-0.1,0.1-0.1c0,0,0-0.1-0.1-0.1c-0.6-0.2-0.9-0.4-0.9-0.9c0-0.1,0-0.1,0-0.2
						c0-0.9,1-2.2,1.8-2.9c0.3-0.3,0.7-0.4,1-0.4c0.5,0,0.8,0.3,0.8,0.7c0,0.3-0.1,0.6-0.2,1c-0.1,0.2-0.2,0.4-0.3,0.4
						c-0.1,0-0.2-0.1-0.3-0.2c-0.1-0.1-0.3-0.3-0.6-0.3c-0.8,0-1.3,0.5-1.3,0.7c0,0.3,1.3,0.8,1.8,0.8c0.1,0,0.1,0,0.1,0
						c0.2-0.1,1.1-0.4,1.5-0.6c0.2-0.1,0.3-0.2,0.3-0.2c0,0,0.1,0,0.1,0.1c0,0.1-0.1,0.2-0.1,0.4C237.2,30.4,237.1,30.5,236.9,30.6z
						 M235.4,26.1c-0.1,0-0.2-0.2-0.2-0.7c0-3-1.1-11.3-1.1-12.7c0-0.7,0.5-1.7,0.9-2.5c0.1-0.2,0.3-0.5,0.5-0.5
						c0.1,0,0.2,0.2,0.2,0.8c0.1,2.2,0.7,7.3,0.7,11c0,1.5-0.1,2.7-0.4,3.5C235.8,25.8,235.6,26.1,235.4,26.1z"/>
					<path class="st1" d="M248.6,3.9c0.1-0.1,0.1,0,0.1,0.1c0,0.6-0.2,1.1-0.5,1.3l-4,2.3c-0.1,0-0.1,0-0.1-0.1c0-0.3,0.1-0.8,0.2-1
						c0.1-0.2,0.3-0.3,0.7-0.5L248.6,3.9z M248.6,6c0.1-0.1,0.1,0,0.1,0.1c0,0.6-0.2,1.1-0.5,1.3l-4,2.3c-0.1,0-0.1,0-0.1-0.1
						c0-0.3,0.1-0.8,0.2-1c0.1-0.2,0.3-0.3,0.7-0.5L248.6,6z"/>
					<path class="st1" d="M249.2,26.1c-0.7,0-1.2-0.1-1.7-0.5c-0.7-0.6-1.1-1.7-1.3-3.1c-0.2-1.1-0.2-2.3-0.3-3.7
						c-0.1-2-0.2-5.1-0.5-6.9c0-0.1,0-0.2,0-0.2c0-0.1,0-0.2,0.2-0.4c0.3-0.5,0.5-0.8,0.7-1.2c0.2-0.3,0.2-0.3,0.3-0.3
						c0.1,0,0.2,0.2,0.3,0.7c0.4,3.5,0.1,8.4,0.6,11.1c0.1,0.7,0.2,0.9,0.4,1.3c0.3,0.6,0.7,0.9,1.4,1c0.8,0,1.2,0.4,1.2,1.1
						c0,0.9-0.4,1.2-1.1,1.2H249.2z"/>
					<path class="st1" d="M266,26.1c-1.5,0-2.9,0-4.4,0.3c-1.3,0.2-2.6,0.4-4.1,0.4c-1,0-2-0.1-2.9-0.3c-0.2,0.2-0.4,0.5-0.6,0.8
						c-0.2,0.3-0.3,0.5-0.5,0.5c-0.1,0-0.2-0.1-0.2-0.2c0-0.1,0-0.2,0.1-0.3c0.1-0.3,0.3-0.7,0.5-1.1c-1.1-0.4-1.8-1-2.2-2
						c-0.6,1.2-1.4,1.9-2.3,1.9h-0.2c-0.6,0-0.9-0.4-0.9-1.1c0-0.8,0.3-1.1,0.9-1.1h0.2c1.2-0.1,2-0.7,2.4-1.7
						c0.3-0.6,0.5-1.1,0.8-1.1c0.2,0,0.2,0.3,0.2,0.8c0,1.3,1.2,2.1,2.4,2.4c1.6-2,5.4-5.2,7-5.2c0.5,0,1.1,0.2,1.7,0.5
						c0.6,0.3,1.2,0.9,1.2,1.6c0,0.7-0.4,2.1-0.9,2.9c0.7-0.1,1.3-0.2,1.8-0.2h0.2c0.7,0,1.1,0.4,1.1,1.1c0,0.8-0.4,1.2-1.1,1.2H266
						z M257.3,16.6c0.1,0.1,0.1,0.1,0,0.2c-0.2,0.3-1.1,1.2-1.4,1.7c-0.1,0.1-0.1,0.1-0.2,0c-0.5-0.3-1.5-1-1.7-1.4
						c-0.1-0.1-0.1-0.1,0-0.2c0.3-0.5,0.9-1.2,1.3-1.6c0.2-0.2,0.2-0.2,0.3-0.1C255.8,15.5,256.6,16.2,257.3,16.6z M263.8,23
						c0-0.3-0.4-0.8-0.8-1.1c-0.6-0.4-1.3-0.6-1.7-0.6c-1.6,0-4,1.8-5.2,3c0.5,0.1,1.2,0.2,1.6,0.2C260.4,24.5,262.5,23.7,263.8,23
						C263.8,23.1,263.8,23,263.8,23z"/>
					<path class="st1" d="M268.7,12c0.7,0,1.7,1,1.7,2.1c0,0.4-0.1,0.8-0.2,1.2c-0.3,0.8-0.9,1.3-1.8,1.3c-0.8,0-1.3-0.6-1.3-1.3
						C267,14.2,268.2,12,268.7,12z M268.5,13.6c-0.3,0-0.7,0.6-0.7,1c0,0.3,0.4,0.6,0.8,0.6c0.5,0,1.1-0.3,1.1-0.5
						C269.7,14.4,269,13.6,268.5,13.6z"/>
					<path class="st1" d="M269.9,24.7c-0.4,0.6-1.2,1.1-2.6,1.3c-0.4,0.1-0.9,0.1-1.4,0.1c-0.6,0-1-0.6-1-1.1c0-0.6,0.3-1.1,1-1.1
						h0.5c1,0,2.6,0,3.2-0.6c-0.1-0.9-0.8-2-1.1-2.4c0,0,0,0,0-0.1c0-0.4,0.7-1.8,0.7-1.9c0-0.1,0.1-0.1,0.1-0.1
						c0.3,0,1.1,1.6,1.1,3.5C270.5,23.1,270.5,24,269.9,24.7z M270.4,27.3c0.2-0.2,0.2-0.2,0.3-0.1c0.5,0.5,1,1.1,1.5,1.4
						c0.2,0.1,0.2,0.2,0,0.3c-0.5,0.5-0.9,1-1.3,1.5c-0.1,0.1-0.2,0.1-0.3,0c-0.4-0.3-0.9-0.7-1.4-1.2c-0.3,0.3-0.9,1-1.1,1.2
						c-0.1,0.1-0.2,0.2-0.4,0c-0.5-0.3-1.1-0.9-1.5-1.4c-0.1-0.1-0.1-0.2,0-0.3c0.4-0.5,0.9-1,1.4-1.5c0.1-0.1,0.2-0.1,0.3,0.1
						c0.4,0.4,1,1,1.4,1.2C269.7,28.2,270.2,27.5,270.4,27.3z"/>
					<path class="st1" d="M276,0c0.1-0.1,0.1,0,0.1,0.1c0,0.6-0.2,1.1-0.5,1.3l-4.1,2.3c-0.1,0-0.1,0-0.1-0.1c0-0.3,0.1-0.8,0.2-1
						c0.1-0.2,0.3-0.3,0.7-0.5L276,0z"/>
					<path class="st1" d="M275.8,7.7c-0.8,0.4-2.6,1.5-4,2.5c-0.1,0-0.1,0-0.1,0c0,0-0.1,0-0.1-0.1c0-0.1,0.1-0.3,0.2-0.7
						c0.1-0.2,0.5-0.6,0.8-0.9c0,0,0.1-0.1,0.1-0.1c0,0,0-0.1-0.1-0.1c-0.6-0.2-0.9-0.4-0.9-0.9c0-0.1,0-0.1,0-0.2
						c0-0.9,1-2.2,1.8-2.9c0.3-0.3,0.7-0.4,1-0.4c0.5,0,0.8,0.3,0.8,0.7c0,0.3-0.1,0.6-0.2,1c-0.1,0.2-0.2,0.4-0.3,0.4
						s-0.2-0.1-0.3-0.2c-0.1-0.1-0.3-0.3-0.6-0.3c-0.8,0-1.3,0.5-1.3,0.7c0,0.3,1.3,0.8,1.8,0.8c0.1,0,0.1,0,0.1,0
						c0.2-0.1,1.1-0.4,1.5-0.6c0.2-0.1,0.3-0.2,0.3-0.2c0,0,0.1,0,0.1,0.1c0,0.1-0.1,0.2-0.1,0.4C276.1,7.5,276,7.6,275.8,7.7z
						 M274.3,26.1c-0.1,0-0.2-0.2-0.2-0.7c0-3-1.1-11.3-1.1-12.7c0-0.7,0.5-1.7,0.9-2.5c0.1-0.2,0.3-0.5,0.5-0.5
						c0.1,0,0.2,0.2,0.2,0.8c0.1,2.2,0.7,7.3,0.7,11c0,1.5-0.1,2.7-0.4,3.5C274.7,25.8,274.5,26.1,274.3,26.1z"/>
					<path class="st1" d="M297.8,17.6c0.1,0.1,0.1,0.1,0,0.2c-0.2,0.3-1.1,1.2-1.4,1.7c-0.1,0.1-0.1,0.1-0.2,0
						c-0.5-0.3-1.5-1-1.7-1.4c-0.1-0.1-0.1-0.1,0-0.2c0.3-0.5,0.9-1.2,1.3-1.6c0.2-0.2,0.2-0.2,0.3-0.1
						C296.3,16.5,297.1,17.2,297.8,17.6z"/>
					<path class="st1" d="M284.3,24.6c0.2-0.4,0.5-0.6,0.7-0.6c0.2,0,0.1,0.4-0.1,0.8c-0.6,1.3-1,2.5-1,3.5c0,1.5,0.8,2.7,2.2,3.3
						c0.8,0.4,1.7,0.5,2.5,0.5c2.7,0,6.9-1.9,7.6-2.8c0,0,0,0,0-0.1c0-0.2-0.5-0.3-1.5-0.4c-2.2-0.2-3.3-0.6-3.3-1.4
						c0-1.7,1.3-3.5,2.7-4.6c1-0.8,2-1.2,2.9-1.2c0.8,0,1.1,0.2,1.4,0.9c0.4,0.6,0.9,1.3,1.4,1.3h0.4c0.6,0,0.9,0.4,0.9,1.1
						c0,0.8-0.3,1.2-0.9,1.2h-0.4c-0.3,0-0.7-0.1-1.1-0.4c-0.4-0.3-0.8-0.6-1-0.9c-0.3-0.4-0.5-0.6-0.7-0.7c-0.2-0.1-0.5-0.2-1-0.2
						c-0.6,0-1.3,0.2-2,0.6c-0.7,0.4-1.2,0.8-1.5,1.3c-0.1,0.1-0.1,0.2-0.1,0.3c0,0.5,0.7,0.8,2,1c1.3,0.1,2.1,0.2,2.5,0.4
						c0.3,0.1,0.5,0.5,0.5,0.9c0,0.2,0,0.5-0.1,0.8c-0.8,2.8-6.2,5.2-9.2,5.1c-0.8,0-2-0.2-2.9-0.6c-1.3-0.6-2.3-1.9-2.3-4
						C282.8,28,283.5,25.8,284.3,24.6z"/>
					<path class="st1" d="M302.5,4.7c0.7,0,1.7,1,1.7,2.1c0,0.4-0.1,0.8-0.2,1.2c-0.3,0.8-0.9,1.3-1.8,1.3c-0.8,0-1.3-0.6-1.3-1.3
						C300.8,6.9,302,4.7,302.5,4.7z M302.3,6.3c-0.3,0-0.7,0.6-0.7,1c0,0.3,0.4,0.6,0.8,0.6c0.5,0,1.1-0.3,1.1-0.5
						C303.4,7.2,302.8,6.3,302.3,6.3z"/>
					<path class="st1" d="M304.6,22.5c0,0.6,0.6,1.2,1.4,1.4c0.2,0,0.3,0,0.5,0h0.1c0.9,0,0.9,0.7,0.9,1c0,0.3,0,1.3-0.8,1.3h-0.2
						c-0.2,0-0.3,0-0.6,0c-1.5-0.2-2.1-1.5-2.2-1.7c-0.2,0.6-1.5,1.7-3.7,1.7h-0.1c-0.6,0-1-0.6-1-1.1c0-0.6,0.3-1.1,1-1.1h0.7
						c1,0,2.4-0.2,3.3-1.6c0.3-0.5,0.4-0.5,0.5-0.5C304.5,21.7,304.6,21.9,304.6,22.5z M304.3,16c0.2-0.2,0.2-0.2,0.3-0.1
						c0.5,0.5,1,1.1,1.5,1.4c0.2,0.1,0.2,0.2,0,0.3c-0.5,0.5-0.9,1-1.3,1.5c-0.1,0.1-0.2,0.1-0.3,0c-0.4-0.3-0.9-0.7-1.4-1.2
						c-0.3,0.3-0.9,1-1.1,1.2c-0.1,0.1-0.2,0.2-0.4,0c-0.5-0.3-1.1-0.9-1.5-1.4c-0.1-0.1-0.1-0.2,0-0.3c0.4-0.5,0.9-1,1.4-1.5
						c0.1-0.1,0.2-0.1,0.3,0.1c0.4,0.4,1,1,1.4,1.2C303.6,16.8,304.1,16.2,304.3,16z M304.7,12.7c0.1,0.1,0.1,0.1,0,0.2
						c-0.2,0.3-1.1,1.2-1.4,1.7c-0.1,0.1-0.1,0.1-0.2,0c-0.5-0.3-1.5-1-1.7-1.4c-0.1-0.1-0.1-0.1,0-0.2c0.3-0.5,0.9-1.2,1.3-1.6
						c0.2-0.2,0.2-0.2,0.3-0.1C303.3,11.6,304,12.2,304.7,12.7z"/>
					<path class="st1" d="M311.3,6.6c0.1-0.1,0.1,0,0.1,0.1c0,0.6-0.2,1.1-0.5,1.3l-4.1,2.3c-0.1,0-0.1,0-0.1-0.1
						c0-0.3,0.1-0.8,0.2-1c0.1-0.2,0.3-0.3,0.7-0.5L311.3,6.6z"/>
					<path class="st1" d="M312.1,23.8h0.1c0.6,0,0.9,0.6,0.9,1.1c0,0.6-0.3,1.1-0.9,1.1h-0.1c-0.6,0-1.2-0.1-1.8-0.5
						c-0.8-0.6-1.1-1.7-1.1-1.9c-0.1,0.7-1.1,2.4-2.6,2.4h-0.1c-0.6,0-0.9-0.6-0.9-1.1c0-0.6,0.3-1.1,0.9-1.1h0.1
						c1.2,0,2-0.5,2.1-0.8c0,0,0-0.1,0-0.1c0-0.2-0.4-2.6-0.4-2.8c0-0.1,0-0.2,0-0.3c0.1-0.4,0.4-1,0.5-1.4c0.1-0.2,0.2-0.3,0.2-0.3
						c0.1,0,0.2,0.2,0.2,0.4c0.3,1,0.5,3.1,0.8,3.8C310.7,23.3,311.7,23.8,312.1,23.8z M310.6,12c0.2-0.2,0.2-0.2,0.3-0.1
						c0.5,0.5,1,1.1,1.5,1.4c0.2,0.1,0.2,0.2,0,0.3c-0.5,0.5-0.9,1-1.3,1.5c-0.1,0.1-0.2,0.1-0.3,0c-0.4-0.3-0.9-0.7-1.4-1.2
						c-0.3,0.3-0.9,1-1.1,1.2c-0.1,0.1-0.2,0.2-0.4,0c-0.5-0.3-1.1-0.9-1.5-1.4c-0.1-0.1-0.1-0.2,0-0.3c0.4-0.5,0.9-1,1.4-1.5
						c0.1-0.1,0.2-0.1,0.3,0.1c0.4,0.4,1,1,1.4,1.2C309.8,12.9,310.3,12.3,310.6,12z"/>
					<path class="st1" d="M319.8,13.2c0.7,0,1.7,1,1.7,2.1c0,0.4-0.1,0.8-0.2,1.2c-0.3,0.8-0.9,1.3-1.8,1.3c-0.8,0-1.3-0.6-1.3-1.3
						C318.1,15.4,319.3,13.2,319.8,13.2z M319.6,14.8c-0.3,0-0.7,0.6-0.7,1c0,0.3,0.4,0.6,0.8,0.6c0.5,0,1.1-0.3,1.1-0.5
						C320.7,15.7,320.1,14.8,319.6,14.8z"/>
					<path class="st1" d="M321,21.6c0.1,0,0.2,0.1,0.2,0.5c0,0.1,0,0.3,0,0.5c0,0.7,0.5,1.1,1.2,1.1c1,0,1.5-1,1.9-1.8
						c0-0.1,0.2-0.4,0.3-0.4c0.1,0,0.2,0.1,0.2,0.6c0.1,1.1,0.7,1.7,1.5,1.7h0.3c0.7,0,1.1,0.3,1.1,1c0,0.8-0.4,1.3-1.1,1.3h-0.3
						c-1.3,0-2-0.6-2.2-1.9c-0.3,0.9-1.2,2-2.3,2c-1.1,0-1.6-0.9-1.7-1.9c-0.4,1.1-1.5,1.9-2.7,1.9c-1.2,0-2-0.4-2.3-1.6
						c-0.2,0.4-0.4,0.8-0.8,1.1c-0.4,0.3-1.1,0.5-2.1,0.5h-0.2c-0.7,0-1-0.4-1-1.2c0-0.7,0.3-1.1,1-1.1h0.3c1.6,0,2.6-0.6,3.2-1.7
						c0-0.1,0.2-0.3,0.3-0.3c0.2,0,0.2,0.2,0.2,0.5c0,0.9,0.8,1.3,1.8,1.3c1.2,0,2.1-0.5,2.8-1.7C320.7,21.8,320.8,21.6,321,21.6z"
						/>
					<path class="st1" d="M329.4,9.5c0,0.5-0.1,1-0.3,1.5c0.2,0.1,0.4,0.3,0.4,0.4c0,0.4-0.2,0.7-0.3,1c-0.1,0.1-0.1,0.1-0.1,0.1
						l-0.5-0.3c-0.5,0.8-1.3,1.8-2.5,2.3c-0.4,0.2-0.9,0.4-1.5,0.4c-0.3,0-0.4-0.1-0.4-0.1c0-0.1,0.2-0.2,0.6-0.4
						c0.9-0.5,2.5-1.8,3.1-2.5c-0.5-0.3-1.1-0.7-1.1-1.4c0-0.4,0.2-0.9,0.6-1.3c0.4-0.5,0.8-0.8,1.2-0.8
						C329.2,8.3,329.4,9,329.4,9.5z M327.6,10C327.6,10,327.6,10,327.6,10c0,0.2,0.4,0.5,0.8,0.7c0.1-0.2,0.1-0.4,0.1-0.7
						c0-0.3-0.1-0.4-0.3-0.4C328,9.5,327.8,9.7,327.6,10z"/>
					<path class="st1" d="M328.2,27.3c0.2-0.2,0.2-0.2,0.3-0.1c0.5,0.5,1,1.1,1.5,1.4c0.2,0.1,0.2,0.2,0,0.3c-0.5,0.5-0.9,1-1.3,1.5
						c-0.1,0.1-0.2,0.1-0.3,0c-0.4-0.3-0.9-0.7-1.4-1.2c-0.3,0.3-0.9,1-1.1,1.2c-0.1,0.1-0.2,0.2-0.4,0c-0.5-0.3-1.1-0.9-1.5-1.4
						c-0.1-0.1-0.1-0.2,0-0.3c0.4-0.5,0.9-1,1.4-1.5c0.1-0.1,0.2-0.1,0.3,0.1c0.4,0.4,1,1,1.4,1.2C327.4,28.2,328,27.6,328.2,27.3z
						 M329.1,24.3c-0.4,0.9-0.9,1.8-2.6,1.8c-0.9,0-1.2-0.5-1.2-1.1c0-0.5,0.4-1.1,1.2-1.1h0c0.5,0,1.8-0.8,1.8-1.6v-0.1
						c-0.1-1.8-0.7-2.3-1.6-3.8c-0.1-0.1-0.1-0.2-0.1-0.3c0-0.3,0.2-1.2,0.6-1.8c0.1-0.2,0.2-0.2,0.3-0.2c0.1,0,0.1,0,0.2,0.1
						c1.3,1.3,1.8,3.8,1.8,5.6C329.5,22.6,329.3,23.7,329.1,24.3z"/>
				</g>
			</g>
		</g>
	</g>
	<g>
		<g>
			<g>
				<g>
					<g>
						<g>
							<path class="st2" d="M356.9,9.9c-6.3,0-11.5,5.2-11.5,11.5S350.6,33,356.9,33h0.2c6.3,0,11.5-5.2,11.5-11.5
								s-5.2-11.5-11.5-11.5H356.9z"/>
							<path class="st2" d="M356.9,9.9c-6.3,0-11.5,5.2-11.5,11.5S350.6,33,356.9,33h0.2c6.3,0,11.5-5.2,11.5-11.5
								s-5.2-11.5-11.5-11.5H356.9z"/>
						</g>
					</g>
					<g>
						<g>
							<path class="st3" d="M356.9,9.9c-6.3,0-11.5,5.2-11.5,11.5S350.6,33,356.9,33h0.2c6.3,0,11.5-5.2,11.5-11.5
								s-5.2-11.5-11.5-11.5H356.9z"/>
							<path class="st3" d="M356.9,9.9c-6.3,0-11.5,5.2-11.5,11.5S350.6,33,356.9,33h0.2c6.3,0,11.5-5.2,11.5-11.5
								s-5.2-11.5-11.5-11.5H356.9z"/>
						</g>
					</g>
					<g>
						<g>
							<path class="st4" d="M356.9,9.1c-6.3,0-11.5,5.2-11.5,11.5s5.2,11.5,11.5,11.5h0.2c6.3,0,11.5-5.2,11.5-11.5
								s-5.2-11.5-11.5-11.5H356.9z"/>
							<path class="st4" d="M356.9,9.1c-6.3,0-11.5,5.2-11.5,11.5s5.2,11.5,11.5,11.5h0.2c6.3,0,11.5-5.2,11.5-11.5
								s-5.2-11.5-11.5-11.5H356.9z"/>
						</g>
					</g>
					<g>
						<g>
							<path class="st5" d="M356.9,8.7c-6.3,0-11.5,5.2-11.5,11.5s5.2,11.5,11.5,11.5h0.2c6.3,0,11.5-5.2,11.5-11.5
								s-5.2-11.5-11.5-11.5H356.9z"/>
							<path class="st5" d="M356.9,8.7c-6.3,0-11.5,5.2-11.5,11.5s5.2,11.5,11.5,11.5h0.2c6.3,0,11.5-5.2,11.5-11.5
								s-5.2-11.5-11.5-11.5H356.9z"/>
						</g>
					</g>
					<g>
						<g>
							<path class="st6" d="M356.9,9.5c-6.3,0-11.5,5.2-11.5,11.5s5.2,11.5,11.5,11.5h0.2c6.3,0,11.5-5.2,11.5-11.5
								s-5.2-11.5-11.5-11.5H356.9z"/>
							<path class="st6" d="M356.9,9.5c-6.3,0-11.5,5.2-11.5,11.5s5.2,11.5,11.5,11.5h0.2c6.3,0,11.5-5.2,11.5-11.5
								s-5.2-11.5-11.5-11.5H356.9z"/>
						</g>
					</g>
					<g>
						<g>
							<path class="st7" d="M356.9,9.9c-6.3,0-11.5,5.2-11.5,11.5S350.6,33,356.9,33h0.2c6.3,0,11.5-5.2,11.5-11.5
								s-5.2-11.5-11.5-11.5H356.9z"/>
							<path class="st7" d="M356.9,9.9c-6.3,0-11.5,5.2-11.5,11.5S350.6,33,356.9,33h0.2c6.3,0,11.5-5.2,11.5-11.5
								s-5.2-11.5-11.5-11.5H356.9z"/>
						</g>
					</g>
					<g class="st8">
						<g>
							
								<linearGradient id="SVGID_1_" gradientUnits="userSpaceOnUse" x1="356.998" y1="32.5721" x2="356.998" y2="9.5008" gradientTransform="matrix(0.94 0 0 0.6 21.4199 4.9539)">
								<stop  offset="0" style="stop-color:#FFFFFF;stop-opacity:0"/>
								<stop  offset="1" style="stop-color:#FFFFFF"/>
							</linearGradient>
							<path class="st9" d="M356.9,10.7c-6,0-10.8,3.1-10.8,6.9s4.9,6.9,10.8,6.9h0.2c6,0,10.8-3.1,10.8-6.9s-4.9-6.9-10.8-6.9
								H356.9z"/>
							
								<linearGradient id="SVGID_2_" gradientUnits="userSpaceOnUse" x1="356.998" y1="32.5721" x2="356.998" y2="9.5008" gradientTransform="matrix(0.94 0 0 0.6 21.4199 4.9539)">
								<stop  offset="0" style="stop-color:#FFFFFF;stop-opacity:0"/>
								<stop  offset="1" style="stop-color:#FFFFFF"/>
							</linearGradient>
							<path class="st10" d="M356.9,10.7c-6,0-10.8,3.1-10.8,6.9s4.9,6.9,10.8,6.9h0.2c6,0,10.8-3.1,10.8-6.9s-4.9-6.9-10.8-6.9
								H356.9z"/>
						</g>
					</g>
				</g>
				<linearGradient id="SVGID_3_" gradientUnits="userSpaceOnUse" x1="354.7832" y1="11.0383" x2="358.4462" y2="11.0383">
					<stop  offset="0" style="stop-color:#FFFFFF;stop-opacity:0"/>
					<stop  offset="0.5" style="stop-color:#FFFFFF"/>
					<stop  offset="1" style="stop-color:#FFFFFF;stop-opacity:0"/>
				</linearGradient>
				<polygon class="st11" points="354.8,11.4 358.4,11.4 358.4,10.7 354.8,10.7 				"/>
				<linearGradient id="SVGID_4_" gradientUnits="userSpaceOnUse" x1="355.1679" y1="32.5715" x2="358.8291" y2="32.5715">
					<stop  offset="0" style="stop-color:#FFFFFF;stop-opacity:0"/>
					<stop  offset="0.5" style="stop-color:#FFFFFF"/>
					<stop  offset="1" style="stop-color:#FFFFFF;stop-opacity:0"/>
				</linearGradient>
				<polygon class="st12" points="355.2,33 358.8,33 358.8,32.2 355.2,32.2 				"/>
			</g>
		</g>
		<g>
			<g>
				<g class="st0">
					<path d="M365.1,28.7c0.2,0,0.3,0,0.3,0.1c0,0.1-0.4,0.4-0.7,0.5c-1.2,0.5-3.1,1.3-5,1.3c-3.5,0-6-1.8-6-5.5
						c0-3.4,1.8-6.5,4.2-7.4c-0.7-0.1-1.2-0.2-1.7-0.2c-0.9,0-1.4,0.2-1.9,0.4c-0.4,0.2-0.5,0.2-0.5,0.2c-0.1,0-0.1,0-0.1-0.1
						c0-0.2,0.4-1.1,0.7-1.4c0.6-0.5,1.4-0.7,2.2-0.7c1.6,0,3.3,0.6,5,0.6c0.7,0,1.3-0.1,1.6-0.1c0.3,0,0.3,0,0.3,0.1
						c0,0.4-0.7,1.5-1,1.5c-1.1,0-2.3,0.2-3.4,0.5c-3.5,1.2-4.7,4-4.7,5.6c0,2.5,1.3,4.8,7.4,4.8C363.7,28.8,364.8,28.7,365.1,28.7z
						 M361.1,23.2c0.1,0,0.1,0.1,0,0.2c-0.2,0.2-0.8,1-1.1,1.3c-0.1,0.1-0.1,0.1-0.2,0c-0.4-0.2-1.2-0.8-1.4-1.1
						c-0.1-0.1-0.1-0.1,0-0.2c0.3-0.4,0.7-0.9,1-1.2c0.2-0.2,0.2-0.2,0.2-0.1C360,22.4,360.6,22.9,361.1,23.2z"/>
				</g>
				<g>
					<g>
						<path class="st1" d="M363.5,27c0.2,0,0.3,0,0.3,0.1c0,0.1-0.4,0.4-0.7,0.5c-1.2,0.5-3.1,1.3-5,1.3c-3.5,0-6-1.8-6-5.5
							c0-3.4,1.8-6.5,4.2-7.4c-0.7-0.1-1.2-0.2-1.7-0.2c-0.9,0-1.4,0.2-1.9,0.4c-0.4,0.2-0.5,0.2-0.5,0.2c-0.1,0-0.1,0-0.1-0.1
							c0-0.2,0.4-1.1,0.7-1.4c0.6-0.5,1.4-0.7,2.2-0.7c1.6,0,3.3,0.6,5,0.6c0.7,0,1.3-0.1,1.6-0.1c0.3,0,0.3,0,0.3,0.1
							c0,0.4-0.7,1.5-1,1.5c-1.1,0-2.3,0.2-3.4,0.5c-3.5,1.2-4.7,4-4.7,5.6c0,2.5,1.3,4.8,7.4,4.8C362,27.2,363.1,27,363.5,27z
							 M359.5,21.6c0.1,0,0.1,0.1,0,0.2c-0.2,0.2-0.8,1-1.1,1.3c-0.1,0.1-0.1,0.1-0.2,0c-0.4-0.2-1.2-0.8-1.4-1.1
							c-0.1-0.1-0.1-0.1,0-0.2c0.3-0.4,0.7-0.9,1-1.2c0.2-0.2,0.2-0.2,0.2-0.1C358.3,20.7,358.9,21.2,359.5,21.6z"/>
					</g>
				</g>
			</g>
		</g>
	</g>
</g>
</svg>
