<?xml version="1.0" encoding="utf-8"?>
<!-- Generator: Adobe Illustrator 19.2.0, SVG Export Plug-In . SVG Version: 6.00 Build 0)  -->
<svg version="1.1" id="Layer_1" xmlns="http://www.w3.org/2000/svg" xmlns:xlink="http://www.w3.org/1999/xlink" x="0px" y="0px"
	 viewBox="0 0 233.7 54.2" style="enable-background:new 0 0 233.7 54.2;" xml:space="preserve">
<style type="text/css">
	.st0{fill:#003E4E;}
	.st1{fill:none;}
</style>
<g>
	<path class="st0" d="M113.1,32.4c-0.1,0.8-0.4,1.5-0.9,2.1c-0.5,0.6-1,1.1-1.7,1.5c-0.7,0.4-1.4,0.7-2.1,0.9
		c-0.8,0.2-1.5,0.3-2.2,0.3c-0.7,0-1.3-0.1-1.9-0.3c-0.6-0.2-1.1-0.5-1.5-0.9c-0.4-0.4-0.8-0.9-1-1.5s-0.4-1.2-0.4-2
		c0-0.8,0.1-1.6,0.4-2.3c0.3-0.7,0.6-1.4,1-2.1c0.1-0.1,0.1-0.1,0.1-0.1c0,0,0.1,0,0.1,0.1c0,0,0,0.1,0.1,0.1c0,0.1,0,0.1,0,0.1
		c-0.4,0.8-0.7,1.6-0.8,2.4c-0.1,0.8,0,1.5,0.2,2.2c0.3,0.7,0.7,1.2,1.3,1.6c0.6,0.4,1.5,0.6,2.5,0.6c0.5,0,1.1-0.1,1.7-0.2
		c0.6-0.1,1.1-0.3,1.6-0.5c0.5-0.2,1-0.5,1.5-0.8c0.5-0.3,0.9-0.7,1.2-1.1c0-0.5,0-1-0.2-1.6c-0.1-0.6-0.3-1.1-0.5-1.6
		c-0.2-0.5-0.4-1.1-0.7-1.6c-0.3-0.5-0.5-1-0.8-1.4c0.1-0.3,0.2-0.6,0.3-0.9c0.1-0.3,0.2-0.6,0.3-0.9c0-0.1,0.1-0.1,0.1-0.1
		c0,0,0.1,0.1,0.1,0.1c0.4,0.5,0.7,1.1,1,1.7c0.3,0.6,0.6,1.2,0.7,1.9c0.2,0.7,0.3,1.3,0.4,2C113.2,31.1,113.2,31.8,113.1,32.4z
		 M107.3,21.3l1.6,1.3c0,0,0.1,0.1,0.1,0.1c0,0,0,0.1,0,0.1l-1.1,1.3c-0.1,0.1-0.1,0.1-0.2,0l-1.6-1.3c-0.1-0.1-0.1-0.1,0-0.2
		l1.1-1.3C107.2,21.3,107.3,21.3,107.3,21.3z"/>
	<path class="st0" d="M120.5,31.8c0.3,0,0.4,0.1,0.6,0.3c0.1,0.2,0.2,0.4,0.2,0.7c0,0.2-0.1,0.5-0.2,0.7c-0.1,0.2-0.3,0.3-0.6,0.3
		c0,0-0.1,0-0.1,0c0,0-0.1,0-0.1,0c-0.8,0-1.4-0.1-1.9-0.4c-0.5-0.3-0.9-0.7-1.2-1.1c-0.3-0.6-0.6-1.2-0.7-1.8
		c-0.1-0.6-0.2-1.3-0.3-1.9c-0.1-0.7-0.2-1.5-0.2-2.2c-0.1-0.7-0.2-1.5-0.3-2.2c-0.1-0.8-0.2-1.5-0.3-2.3c-0.1-0.8-0.3-1.6-0.6-2.5
		c0-0.1,0-0.1,0-0.2c0,0,0-0.1,0-0.1l0.7-1.7c0-0.1,0.1-0.1,0.1-0.1c0,0,0.1,0,0.1,0.1c0.1,0.5,0.2,1,0.3,1.5c0.1,0.5,0.2,1,0.3,1.6
		c0.1,0.6,0.2,1.2,0.2,1.8c0.1,0.7,0.2,1.4,0.3,2.3c0.1,0.6,0.1,1.2,0.2,1.8c0.1,0.6,0.1,1.2,0.2,1.7c0.1,0.5,0.1,0.9,0.2,1.4
		c0.1,0.5,0.2,0.9,0.4,1.3c0.2,0.3,0.5,0.6,0.8,0.8c0.4,0.2,0.9,0.3,1.6,0.3C120.4,31.8,120.4,31.8,120.5,31.8
		C120.5,31.8,120.5,31.8,120.5,31.8z"/>
	<path class="st0" d="M120.4,33.8h-0.2c-0.3,0-0.4-0.1-0.6-0.3c-0.1-0.2-0.2-0.4-0.2-0.7c0-0.1,0-0.3,0-0.4c0-0.1,0.1-0.2,0.1-0.3
		c0.1-0.1,0.1-0.2,0.2-0.2c0.1-0.1,0.2-0.1,0.3-0.1h0.2c0.3,0,0.6,0,0.9,0c0.3,0,0.6-0.1,0.9-0.1c0.3-0.1,0.6-0.2,0.8-0.3
		c0.3-0.2,0.5-0.4,0.7-0.7c0.2-0.2,0.3-0.4,0.4-0.6c0.1-0.2,0.2-0.5,0.3-0.7c0-0.1,0.1-0.2,0.2-0.2c0.1,0,0.1,0,0.2,0.1
		c0,0.1,0,0.2,0,0.4c0,0.1,0,0.3,0,0.4c0,0.2,0.1,0.4,0.2,0.7c0.1,0.2,0.3,0.4,0.5,0.6c0.2,0.2,0.5,0.3,0.9,0.4
		c0.4,0.1,0.9,0.2,1.4,0.2h0.2c0.1,0,0.2,0,0.3,0.1c0.1,0.1,0.2,0.1,0.2,0.2c0.1,0.1,0.1,0.2,0.1,0.3c0,0.1,0,0.2,0,0.4
		c0,0.3-0.1,0.5-0.2,0.7c-0.1,0.2-0.3,0.3-0.6,0.3h-0.2c-0.5,0-0.9,0-1.3-0.1c-0.4-0.1-0.8-0.2-1-0.4c-0.6-0.3-1-0.8-1.3-1.5
		c-0.2,0.4-0.4,0.7-0.7,1c-0.3,0.3-0.5,0.5-0.8,0.6c-0.3,0.2-0.7,0.3-1.1,0.3C121.2,33.8,120.8,33.8,120.4,33.8z M125.7,38.9
		c0,0.1-0.1,0.1-0.1,0.1c0,0-0.1,0-0.1-0.1l-1.5-1.2l-1,1.4c-0.1,0.1-0.1,0.1-0.2,0l-1.6-1.2c-0.1,0-0.1-0.1,0-0.2l1-1.5
		c0-0.1,0.1-0.1,0.1-0.1c0,0,0.1,0,0.1,0.1l1.5,1.2l1-1.3c0.1-0.1,0.1-0.1,0.2,0l1.6,1.3c0.1,0,0.1,0.1,0,0.2L125.7,38.9z"/>
	<path class="st0" d="M131.8,16c0,0.3,0,0.6-0.1,0.8c-0.1,0.3-0.2,0.5-0.4,0.7c-0.2,0.2-0.4,0.4-0.6,0.5c-0.3,0.1-0.5,0.2-0.9,0.2
		c-0.4,0-0.8-0.1-1.1-0.4s-0.5-0.7-0.5-1.1c0-0.2,0-0.5,0.1-0.9c0.1-0.3,0.2-0.7,0.3-1c0.2-0.3,0.3-0.6,0.6-0.8
		c0.2-0.2,0.5-0.4,0.9-0.4c0.3,0,0.6,0,0.8,0.2c0.2,0.2,0.4,0.4,0.5,0.6c0.1,0.3,0.2,0.5,0.3,0.8C131.8,15.5,131.8,15.8,131.8,16z
		 M128.8,16.3c0,0.1,0,0.3,0.1,0.3c0.1,0.1,0.2,0.1,0.3,0.2c0.1,0,0.2,0.1,0.4,0.1c0.1,0,0.2,0,0.3,0c0.2,0,0.5-0.1,0.7-0.2
		c0.2-0.1,0.4-0.2,0.6-0.4c0-0.2,0-0.3-0.1-0.5c-0.1-0.2-0.1-0.3-0.2-0.5c-0.1-0.1-0.2-0.2-0.4-0.3c-0.2-0.1-0.3-0.1-0.6-0.1
		c-0.1,0-0.3,0.1-0.4,0.2c-0.1,0.1-0.2,0.2-0.3,0.3c-0.1,0.1-0.2,0.2-0.3,0.4C128.9,16,128.8,16.2,128.8,16.3z"/>
	<path class="st0" d="M130.5,28.3c0-0.1,0.1-0.2,0.1-0.4c0.1-0.2,0.1-0.3,0.2-0.5c0.1-0.2,0.1-0.3,0.2-0.4c0.1-0.1,0.1-0.1,0.1-0.1
		c0.3,0.8,0.5,1.5,0.8,2.1c0.2,0.6,0.5,1.1,0.7,1.5c0.2,0.3,0.4,0.5,0.6,0.7c0.2,0.2,0.4,0.3,0.7,0.4c0.2,0.1,0.5,0.2,0.7,0.2
		c0.3,0,0.5,0,0.8,0h0.2c0.3,0,0.5,0.1,0.6,0.3c0.1,0.2,0.2,0.4,0.2,0.7c0,0.2-0.1,0.5-0.2,0.7c-0.1,0.2-0.3,0.3-0.6,0.3h-0.2
		c-0.8,0-1.6-0.2-2.2-0.6c-0.6-0.4-1.2-0.9-1.5-1.5c-0.1,0.4-0.3,0.7-0.6,1c-0.3,0.3-0.6,0.5-0.9,0.6c-0.3,0.2-0.7,0.3-1.1,0.4
		c-0.4,0.1-0.8,0.1-1.3,0.1h-0.2c-0.3,0-0.4-0.1-0.6-0.3c-0.1-0.2-0.2-0.4-0.2-0.7c0-0.3,0.1-0.5,0.2-0.7c0.1-0.2,0.3-0.3,0.6-0.3
		h0.2c0.2,0,0.5,0,0.8,0c0.3,0,0.6,0,1-0.1c0.3-0.1,0.7-0.1,1-0.3c0.3-0.1,0.6-0.3,0.8-0.5c-0.1-0.1-0.1-0.3-0.2-0.5
		c-0.1-0.2-0.2-0.4-0.2-0.6c-0.1-0.2-0.1-0.4-0.2-0.6s-0.1-0.4-0.2-0.5C130.5,28.5,130.5,28.4,130.5,28.3z M130.1,21.4l1.6,1.3
		c0.1,0.1,0.1,0.1,0,0.2l-1,1.3c-0.1,0.1-0.1,0.1-0.2,0l-1.6-1.3c-0.1-0.1-0.1-0.1,0-0.2l1.1-1.3C130,21.4,130.1,21.3,130.1,21.4z"
		/>
	<path class="st0" d="M135.4,21.7c0.3-0.2,0.6-0.3,0.8-0.5c0.3-0.2,0.5-0.3,0.8-0.5c0.3-0.2,0.5-0.4,0.8-0.6
		c0.3-0.2,0.5-0.5,0.7-0.7c-0.2-0.1-0.5-0.2-0.7-0.3c-0.3-0.2-0.5-0.3-0.6-0.5c-0.1-0.1-0.1-0.2-0.1-0.4c0-0.1,0-0.3,0-0.4
		c0.1-0.2,0.2-0.4,0.3-0.7c0.1-0.2,0.3-0.5,0.4-0.6c0.2-0.2,0.4-0.4,0.6-0.5c0.2-0.1,0.4-0.2,0.6-0.2c0.3,0,0.5,0.1,0.6,0.4
		c0.1,0.2,0.2,0.5,0.2,0.8c0,0.3,0,0.6,0,0.9c0,0.3-0.1,0.5-0.1,0.6c0,0,0,0.1,0,0.1c0.1,0.1,0.2,0.1,0.2,0.2c0,0.1,0.1,0.1,0.1,0.2
		c0.1,0.1,0.1,0.3,0,0.5c0,0.2-0.1,0.3-0.2,0.4c-0.1,0.1-0.1,0.1-0.2,0.1c-0.1,0-0.1,0-0.2-0.1c0-0.1-0.1-0.1-0.1-0.1
		c0,0-0.1-0.1-0.2-0.1c-0.2,0.3-0.5,0.6-0.8,0.8c-0.3,0.3-0.5,0.5-0.8,0.7c-0.3,0.2-0.6,0.4-1,0.6c-0.3,0.2-0.7,0.3-1,0.4
		c-0.1,0-0.3,0.1-0.4,0.1c-0.2,0-0.2,0-0.3,0c0-0.1,0-0.1,0.1-0.2C135.2,21.9,135.3,21.8,135.4,21.7z M137.7,17.5
		c0.2,0.2,0.4,0.4,0.6,0.6c0.2,0.1,0.5,0.2,0.7,0.3h0c0-0.1,0-0.2,0-0.3c0-0.1,0-0.2,0-0.3c0-0.1,0-0.2-0.1-0.3
		c0-0.1-0.1-0.2-0.2-0.3c-0.1-0.1-0.2-0.1-0.3-0.1c-0.1,0-0.2,0-0.4,0.1c-0.1,0-0.2,0.1-0.3,0.2C137.8,17.3,137.8,17.4,137.7,17.5z"
		/>
	<path class="st0" d="M138.8,26.9c0.2,0.2,0.5,0.5,0.7,0.8c0.2,0.3,0.4,0.6,0.5,0.9c0.2,0.3,0.3,0.6,0.4,0.9c0.1,0.3,0.1,0.6,0.1,1
		c0,0.1,0,0.3,0,0.5c0,0.2,0,0.4-0.1,0.5c0,0.2-0.1,0.4-0.1,0.5c-0.1,0.2-0.1,0.3-0.2,0.4c-0.2,0.3-0.5,0.5-0.8,0.7
		c-0.4,0.2-0.8,0.3-1.2,0.4c-0.4,0.1-0.9,0.2-1.3,0.2c-0.4,0-0.8,0-1.2,0h-0.2c-0.3,0-0.5-0.1-0.6-0.3c-0.1-0.2-0.2-0.4-0.2-0.7
		c0-0.3,0.1-0.5,0.2-0.7c0.1-0.2,0.3-0.3,0.6-0.3h0.2c0.4,0,0.8,0,1.2,0c0.4,0,0.8,0,1.1-0.1c0.4,0,0.7-0.1,1-0.1
		c0.3-0.1,0.5-0.2,0.7-0.3c0.1-0.1,0.1-0.1,0.1-0.2c0-0.1,0-0.2-0.1-0.3c-0.1-0.2-0.2-0.4-0.3-0.6c-0.1-0.2-0.2-0.4-0.3-0.5
		c-0.1-0.2-0.3-0.3-0.4-0.5c-0.1-0.2-0.3-0.3-0.5-0.5l0.4-1.8c0-0.1,0.1-0.1,0.1-0.1C138.6,26.8,138.7,26.8,138.8,26.9z M137.4,36.3
		l1.6,1.3c0.1,0.1,0.1,0.1,0,0.2l-1,1.3c-0.1,0.1-0.1,0.1-0.2,0l-1.6-1.3c-0.1-0.1-0.1-0.1,0-0.2l1.1-1.3
		C137.3,36.2,137.4,36.2,137.4,36.3z"/>
	<rect class="st1" width="233.7" height="54.2"/>
</g>
</svg>
