<?xml version="1.0" encoding="utf-8"?>
<!-- Generator: Adobe Illustrator 19.2.0, SVG Export Plug-In . SVG Version: 6.00 Build 0)  -->
<svg version="1.1" id="Layer_1" xmlns="http://www.w3.org/2000/svg" xmlns:xlink="http://www.w3.org/1999/xlink" x="0px" y="0px"
	 viewBox="0 0 374 47.3" style="enable-background:new 0 0 374 47.3;" xml:space="preserve">
<style type="text/css">
	.st0{fill:#F9A326;}
	.st1{fill:none;}
</style>
<g>
	<g>
		<g>
			<path class="st0" d="M171.8,13.2c0,0.5-0.1,1-0.3,1.5c0.2,0.1,0.4,0.3,0.4,0.4c0,0.4-0.2,0.7-0.3,1c-0.1,0.1-0.1,0.1-0.1,0.1
				l-0.5-0.3c-0.5,0.8-1.3,1.8-2.5,2.3c-0.4,0.2-0.9,0.4-1.5,0.4c-0.3,0-0.4-0.1-0.4-0.1c0-0.1,0.2-0.2,0.6-0.4
				c0.9-0.5,2.5-1.8,3.1-2.5c-0.5-0.3-1.1-0.7-1.1-1.4c0-0.4,0.2-0.9,0.6-1.3c0.4-0.5,0.8-0.8,1.2-0.8
				C171.6,12,171.7,12.7,171.8,13.2z M170,13.7C169.9,13.7,169.9,13.7,170,13.7c0,0.2,0.4,0.5,0.8,0.7c0.1-0.2,0.1-0.4,0.1-0.7
				c0-0.3-0.1-0.4-0.3-0.4C170.3,13.2,170.1,13.4,170,13.7z"/>
			<path class="st0" d="M171.8,20.5c0.1,0.1,0.1,0.1,0,0.2c-0.2,0.3-1.1,1.2-1.4,1.7c-0.1,0.1-0.1,0.1-0.2,0c-0.5-0.3-1.5-1-1.7-1.4
				c-0.1-0.1-0.1-0.1,0-0.2c0.3-0.5,0.9-1.2,1.3-1.6C169.9,19,170,19,170,19C170.4,19.5,171.1,20.1,171.8,20.5z"/>
			<path class="st0" d="M178.7,34.7c0.2-0.2,0.2-0.2,0.3-0.1c0.5,0.5,1,1.1,1.5,1.4c0.2,0.1,0.2,0.2,0,0.3c-0.5,0.5-0.9,1-1.3,1.5
				c-0.1,0.1-0.2,0.1-0.3,0c-0.4-0.3-0.9-0.7-1.4-1.2c-0.3,0.3-0.9,1-1.1,1.2c-0.1,0.1-0.2,0.2-0.4,0c-0.5-0.3-1.1-0.9-1.5-1.4
				c-0.1-0.1-0.1-0.2,0-0.3c0.4-0.5,0.9-1,1.4-1.5c0.1-0.1,0.2-0.1,0.3,0.1c0.4,0.4,1,1,1.4,1.2C177.9,35.5,178.5,34.9,178.7,34.7z"
				/>
			<path class="st0" d="M179.2,25.2c0,2-1.5,3.2-2.9,3.2h-0.2c0,0.1,0,0.4,0,0.7c0,0.3,0,0.6,0,1c0,0.8-0.2,1.4-0.4,1.9
				c-0.4,1-0.7,1.4-1.2,1.9c-1.7,1.7-4,2.3-6.4,2.3c-1.4,0-2.6-0.4-3.5-1.5c-0.5-0.6-0.9-1.7-0.9-2.9c0-1.4,0.5-2.7,1.2-3.8
				c0.3-0.4,0.5-0.6,0.7-0.6c0.1,0,0.1,0.1,0.1,0.2s-0.1,0.4-0.3,0.7c-0.7,1.3-0.8,2.1-0.8,2.7c0,0.9,0.6,1.6,1.4,2.1
				c0.8,0.5,1.8,0.8,2.7,0.8c2.4,0,5.7-1,6.4-2.7c-0.1-1.7-0.4-2.3-1-3.8c0,0,0-0.1,0-0.2c0-0.5,0.3-1.3,0.6-1.9
				c0-0.1,0.1-0.2,0.2-0.2c0.1,0,0.1,0.1,0.2,0.1c0.5,0.6,0.9,0.9,1.4,1c0.1,0,0.1,0,0.2,0c0.8,0,1.5-0.6,1.7-1.6
				c0.1-0.5,0.2-0.7,0.3-0.7c0.2,0,0.4,0.4,0.5,1C179.2,24.9,179.2,25,179.2,25.2z"/>
			<path class="st0" d="M180.4,34.4c-0.3-0.2-0.4-0.3-0.4-0.4c0-0.1,0.2-0.2,0.4-0.2c0.3,0,1.1,0.2,1.8,0.2c0.6,0,1.2-0.2,2.1-0.6
				c2.4-1.2,3.9-3,3.9-4.2c0-0.2,0-0.3-0.1-0.7h-0.7c-0.5,0-1.5-0.1-2.2-0.5c-0.7-0.4-1-0.9-1-1.5c0-0.6,0.3-1.4,0.6-2.2
				c0.6-1.3,1.2-2.2,1.9-2.2c0.7,0,1.3,0.5,1.8,1.1c0.5,0.7,0.7,1.8,0.7,2.8h1c0.6,0,0.9,0.3,0.9,1c0,0.8-0.3,1.2-0.9,1.2l-1.1,0.1
				c-0.2,3.5-1.3,5.8-4.1,6.9c-0.2,0.1-0.4,0.1-0.6,0.1C183.4,35.5,181.8,35,180.4,34.4z M186.6,24.8c-0.1-0.1-0.3-0.2-0.6-0.2
				c-0.5,0-0.8,0.5-0.8,0.8c0,0.2,0.2,0.5,0.8,0.7c0.4,0.2,0.9,0.2,1.1,0.2c0.2,0,0.2,0,0.2-0.1C187.5,25.9,187.1,25.1,186.6,24.8z"
				/>
			<path class="st0" d="M194.7,24.8c0,0.6,0.6,1.2,1.4,1.4c0.2,0,0.3,0,0.5,0h0.1c0.9,0,0.9,0.7,0.9,1c0,0.3,0,1.3-0.8,1.3h-0.2
				c-0.2,0-0.3,0-0.6,0c-1.5-0.2-2.1-1.5-2.2-1.7c-0.2,0.6-1.5,1.7-3.7,1.7H190c-0.6,0-1-0.6-1-1.1c0-0.6,0.3-1.1,1-1.1h0.7
				c1,0,2.4-0.2,3.3-1.6c0.3-0.5,0.4-0.5,0.5-0.5C194.6,24.1,194.7,24.3,194.7,24.8z M195.5,18.9c0.1,0.1,0.1,0.1,0,0.2
				c-0.2,0.3-1.1,1.2-1.4,1.7c-0.1,0.1-0.1,0.1-0.2,0c-0.5-0.3-1.5-1-1.7-1.4c-0.1-0.1-0.1-0.1,0-0.2c0.3-0.5,0.9-1.2,1.3-1.6
				c0.2-0.2,0.2-0.2,0.3-0.1C194.1,17.8,194.8,18.5,195.5,18.9z"/>
			<path class="st0" d="M198,16.2c-0.7,0-1.1-0.7-1.1-1.5c0-0.2,0-0.5,0.1-0.8c0.1-0.2,0.2-0.8,0.5-0.8c0.1,0,0.2,0.2,0.2,0.6V14
				c0,0.3,0.2,0.5,0.6,0.5h0c0.5,0,0.8-0.3,0.9-1c0.1-0.3,0.2-1.1,0.6-1.1c0.1,0,0.2,0.2,0.2,0.5c0,0.2,0.1,0.3,0.4,0.3
				c0.5,0,0.8-0.3,0.9-0.8c0.1-0.7,0.2-0.8,0.4-0.8c0.2,0,0.3,0.7,0.3,1.1c0,0.3,0,0.6-0.2,1c-0.2,0.7-0.7,1.2-1.5,1.2
				c-0.2,0-0.4-0.1-0.5-0.1c-0.1-0.1-0.1,0-0.2,0.1C199.3,15.7,198.8,16.2,198,16.2z M201.9,9.3C202,9.3,202,9.4,201.9,9.3
				c0,0.5-0.2,0.9-0.4,1.2c-0.1,0.1-0.2,0.2-0.5,0.3l-4,1.9c0,0-0.1,0-0.1-0.1c0-0.2,0.1-0.5,0.2-0.7c0.2-0.3,0.2-0.4,0.3-0.5
				c0.1-0.1,0.2-0.1,0.3-0.2L201.9,9.3z"/>
			<path class="st0" d="M201.3,24.8c0,0.6,0.6,1.2,1.4,1.4c0.2,0,0.3,0,0.5,0h0.1c0.9,0,0.9,0.7,0.9,1c0,0.3,0,1.3-0.8,1.3h-0.2
				c-0.2,0-0.3,0-0.6,0c-1.5-0.2-2.1-1.5-2.2-1.7c-0.2,0.6-1.5,1.7-3.7,1.7h-0.1c-0.6,0-1-0.6-1-1.1c0-0.6,0.3-1.1,1-1.1h0.7
				c1,0,2.4-0.2,3.3-1.6c0.3-0.5,0.4-0.5,0.5-0.5C201.2,24.1,201.3,24.3,201.3,24.8z M201.1,18c0.2-0.2,0.2-0.2,0.3-0.1
				c0.5,0.5,1,1.1,1.5,1.4c0.2,0.1,0.2,0.2,0,0.3c-0.5,0.5-0.9,1-1.3,1.5c-0.1,0.1-0.2,0.1-0.3,0c-0.4-0.3-0.9-0.7-1.4-1.2
				c-0.3,0.3-0.9,1-1.1,1.2c-0.1,0.1-0.2,0.2-0.4,0c-0.5-0.3-1.1-0.9-1.5-1.4c-0.1-0.1-0.1-0.2,0-0.3c0.4-0.5,0.9-1,1.4-1.5
				c0.1-0.1,0.2-0.1,0.3,0.1c0.4,0.4,1,1,1.4,1.2C200.3,18.8,200.9,18.2,201.1,18z"/>
			<path class="st0" d="M205.7,27.4c-0.5,0.7-1.2,1-2.3,1h-0.2c-0.7,0-1-0.4-1-1.2c0-0.7,0.3-1.1,1-1.1h0.2c0.5,0,1-0.1,1.5-0.2
				c0.4-0.1,0.6-0.3,0.7-0.4c0-1.7-0.6-5.4-0.9-8.9c0-0.4-0.3-1.6-0.4-2.1c0-0.1,0-0.2,0-0.2c0-0.3,0.3-0.9,0.5-1.3
				c0.3-0.5,0.5-0.9,0.7-0.9c0.1,0,0.1,0.1,0.2,0.2c0.3,1,0.6,1.5,0.8,1.8c0.1,0.1,0.1,0.2,0.1,0.3c0,0,0,0.1,0,0.1
				c-0.1,0.2-0.4,0.8-0.6,1.1c0.2,3.4,0.7,6.2,0.7,7.8C206.7,25.1,206.3,26.4,205.7,27.4z"/>
			<path class="st0" d="M211.3,28.5c-0.1,0-0.2-0.2-0.2-0.7c0-3-1.1-11.3-1.1-12.7c0-0.7,0.5-1.7,0.9-2.5c0.1-0.2,0.3-0.5,0.5-0.5
				c0.1,0,0.2,0.2,0.2,0.8c0.1,2.2,0.7,7.3,0.7,11c0,1.5-0.1,2.7-0.4,3.5C211.6,28.1,211.4,28.5,211.3,28.5z"/>
		</g>
	</g>
	<rect class="st1" width="374" height="47.3"/>
</g>
</svg>
