<?xml version="1.0" encoding="utf-8"?>
<!-- Generator: Adobe Illustrator 19.2.0, SVG Export Plug-In . SVG Version: 6.00 Build 0)  -->
<svg version="1.1" id="Layer_1" xmlns="http://www.w3.org/2000/svg" xmlns:xlink="http://www.w3.org/1999/xlink" x="0px" y="0px"
	 viewBox="0 0 371.8 65.6" style="enable-background:new 0 0 371.8 65.6;" xml:space="preserve">
<style type="text/css">
	.st0{opacity:0.75;}
	.st1{fill:#FFFFFF;}
	.st2{fill:#CB9248;}
	.st3{fill:#F4CE83;fill-opacity:0.5;}
	.st4{opacity:0.5;}
	.st5{fill:#F4CE83;}
</style>
<g>
	<g>
		<g>
			<g class="st0">
				<path d="M55.3,47.3c0.2-0.1,0.2-0.1,0.2,0.1c0,1-0.4,2-0.9,2.3l-7.4,4.1c-0.1,0.1-0.2,0-0.2-0.1c0-0.5,0.2-1.4,0.4-1.8
					c0.2-0.3,0.5-0.6,1.2-1L55.3,47.3z"/>
				<path d="M53.3,18.5c0.3-0.3,0.4-0.4,0.6-0.2c0.9,0.9,1.8,1.9,2.8,2.5c0.3,0.2,0.3,0.3,0,0.6c-0.8,0.9-1.6,1.8-2.4,2.7
					c-0.2,0.2-0.3,0.2-0.5,0C53,23.6,52,22.8,51.1,22c-0.5,0.6-1.6,1.8-2,2.1c-0.2,0.1-0.3,0.3-0.7,0.1c-0.9-0.6-2.1-1.5-2.8-2.5
					c-0.2-0.2-0.2-0.3,0-0.6c0.7-0.8,1.6-1.9,2.5-2.7c0.2-0.2,0.3-0.2,0.6,0.1c0.7,0.7,1.9,1.8,2.6,2.2C51.8,20,52.8,18.9,53.3,18.5
					z M58.6,40.6c0.9,0.6,1.6,0.8,2.1,0.8h0.6c1.2,0,1.9,0.6,1.9,1.9c0,1.5-0.7,2.2-2,2.2h-0.6c-1.4,0-2.7-0.5-4-1.6
					c-1.3-1.1-2.1-2.9-2.4-5.4c-0.4,0.6-0.7,1.3-1.5,1.8c-1.1,0.8-2.9,1.1-4.7,1.1c-1.3,0-2.5-0.2-2.5-1.2c0.6-4,1.1-4.6,3-6.2
					c0.8-0.7,3.2-2.1,4.2-2.8c0-0.4-0.1-0.7-0.1-1c0-0.9,0.2-1.4,0.7-2.2c0.3-0.5,0.5-0.9,0.7-0.9c0.2,0,0.3,0.3,0.4,1
					c0.6,3.7,0.9,6.7,1.4,8.5C56.3,38.3,57.2,39.7,58.6,40.6z M53.2,33.3c-1.7,1.1-4.5,2.8-4.6,3.3c0,0.3,0.5,0.4,1.3,0.4
					c1.1,0,2.7-0.3,3.9-0.9C53.6,35.1,53.5,34.7,53.2,33.3z"/>
				<path d="M63.1,23.4c-1.3,0-2-1.3-2-2.7c0-0.4,0.1-0.9,0.2-1.4c0.1-0.4,0.4-1.4,0.9-1.4c0.2,0,0.4,0.4,0.4,1v0.5
					c0,0.6,0.4,1,1.1,1h0.1c0.8,0,1.4-0.6,1.6-1.7c0.1-0.5,0.4-1.9,1.1-1.9c0.2,0,0.4,0.3,0.4,1c0,0.3,0.2,0.6,0.7,0.6
					c0.8,0,1.5-0.6,1.6-1.5c0.2-1.2,0.4-1.5,0.7-1.5c0.4,0,0.6,1.2,0.6,1.9c0,0.5-0.1,1.1-0.3,1.8c-0.4,1.2-1.2,2.1-2.7,2.1
					c-0.3,0-0.6-0.1-0.8-0.2c-0.1-0.1-0.2-0.1-0.4,0.2C65.3,22.5,64.5,23.4,63.1,23.4z M70.1,11.1c0.2-0.1,0.1,0.1,0.1,0.1
					c-0.1,0.7-0.4,1.5-0.9,2.1c-0.1,0.2-0.4,0.3-0.9,0.6l-7.1,3.3c-0.1,0-0.1,0-0.1-0.1c0-0.3,0.1-0.8,0.3-1.3
					c0.3-0.6,0.4-0.8,0.5-0.9c0.1-0.1,0.3-0.2,0.6-0.4L70.1,11.1z"/>
				<path d="M69.3,39c0,1,1.1,2.2,2.4,2.4c0.3,0,0.6,0,0.9,0h0.2c1.5,0,1.5,1.2,1.5,1.8c0,0.5,0,2.2-1.5,2.2h-0.3c-0.3,0-0.5,0-1,0
					c-2.7-0.3-3.7-2.7-3.9-3c-0.4,1.1-2.6,3-6.6,3h-0.2c-1.1,0-1.7-1-1.7-2c0-1,0.6-2.1,1.7-2.1h1.2c1.8,0,4.3-0.3,5.8-2.9
					c0.5-0.8,0.7-0.9,0.9-0.9C69.1,37.7,69.3,38.1,69.3,39z M70.7,28.5c0.2,0.1,0.1,0.2,0,0.3c-0.4,0.6-1.9,2.2-2.5,3
					C68,32,68,32,67.8,31.9c-0.8-0.5-2.6-1.9-3.1-2.6c-0.1-0.2-0.1-0.2,0-0.4c0.6-0.9,1.6-2.1,2.3-2.8c0.3-0.3,0.4-0.4,0.5-0.2
					C68.2,26.6,69.5,27.7,70.7,28.5z"/>
				<path d="M84.2,8.1c0,0.9-0.2,1.8-0.5,2.6c0.4,0.2,0.6,0.5,0.6,0.7c0,0.7-0.3,1.3-0.6,1.8c-0.1,0.1-0.1,0.1-0.2,0.1l-0.9-0.6
					c-0.9,1.4-2.3,3.1-4.4,4.1c-0.8,0.4-1.7,0.7-2.6,0.7c-0.5,0-0.7-0.1-0.7-0.2c0-0.2,0.4-0.3,1-0.7c1.5-0.9,4.5-3.1,5.5-4.5
					c-0.8-0.6-1.9-1.3-1.9-2.4c0-0.8,0.4-1.5,1-2.3c0.7-1,1.5-1.4,2.2-1.4C83.9,5.9,84.2,7.1,84.2,8.1z M81,8.9c0,0,0,0.1,0,0.1
					c0,0.2,0.8,0.8,1.4,1c0.2-0.3,0.2-0.6,0.2-1.2c0-0.5-0.2-0.8-0.6-0.8C81.7,8.1,81.2,8.4,81,8.9z"/>
				<path d="M90.9,41.4c1.1,0,1.7,0.6,1.7,1.9c0,1.4-0.6,2.2-1.8,2.2h-0.4c-1.8-0.1-3.5-0.6-4.9-1.4c-1.4-0.9-2-1.6-2.9-3
					c-2.1,1.9-3.8,3.1-5.1,3.6c-1.4,0.6-3.1,0.9-4.9,0.9c-1.3,0-2-0.7-2-2.1c0-1.3,0.7-2,2-2H73c3.2,0,5.3-0.6,8-2.1
					c-0.9-1.2-3-1.7-4.1-1.9c-0.1,0-0.2-0.3-0.2-0.7c0-0.9,0.3-2.5,0.8-2.9c1.7-1.3,3.7-2,5.5-2c1.8,0,3.4,0.6,4.7,1.9
					c0.3,0.3,0.4,0.8,0.4,1.3c0,1.3-0.7,3-2.3,4.2c1.5,1.5,3,2.2,4.7,2.2H90.9z M84.8,23.3c0.2,0.1,0.1,0.2,0,0.3
					c-0.4,0.6-1.9,2.2-2.5,3c-0.1,0.2-0.2,0.2-0.4,0c-0.8-0.5-2.6-1.9-3.1-2.6c-0.1-0.2-0.1-0.2,0-0.4c0.6-0.9,1.6-2.1,2.3-2.8
					c0.3-0.3,0.4-0.4,0.5-0.2C82.2,21.3,83.5,22.5,84.8,23.3z"/>
				<path d="M94.3,5.9c1.2,0,3,1.7,3,3.7c0,0.7-0.1,1.4-0.3,2.1c-0.5,1.4-1.7,2.2-3.2,2.2c-1.4,0-2.4-1.1-2.4-2.4
					C91.3,9.8,93.3,5.9,94.3,5.9z M93.9,8.7c-0.5,0-1.3,1.1-1.3,1.7c0,0.5,0.7,1,1.4,1c0.9,0,2-0.5,2-0.9C96,10.2,94.9,8.7,93.9,8.7
					z"/>
				<path d="M94.8,43.7c-1,1.2-2.1,1.9-4.1,1.9h-0.4c-1.2,0-1.8-0.7-1.8-2.2c0-1.3,0.6-1.9,1.8-1.9h0.4c1,0,1.8-0.1,2.6-0.4
					c0.7-0.2,1.1-0.5,1.2-0.8c0-3.1-1.1-9.6-1.7-15.9c0-0.7-0.5-2.9-0.7-3.8c0-0.1,0-0.3,0-0.4c0-0.5,0.6-1.7,1-2.4
					c0.5-0.9,0.9-1.6,1.3-1.6c0.1,0,0.2,0.1,0.3,0.4c0.5,1.8,1,2.6,1.5,3.3c0.1,0.2,0.2,0.3,0.2,0.5c0,0.1,0,0.1,0,0.2
					c-0.1,0.4-0.7,1.5-1,1.9c0.3,6.1,1.3,11,1.3,14C96.6,39.5,96,41.9,94.8,43.7z"/>
				<path d="M104.8,45.5c-0.2,0-0.3-0.3-0.3-1.2c0-5.4-2-20.3-2-22.7c0-1.2,0.8-3.1,1.5-4.4c0.2-0.4,0.6-0.9,0.8-0.9
					c0.2,0,0.3,0.3,0.3,1.4c0.2,3.9,1.3,13,1.3,19.6c0,2.6-0.2,4.9-0.6,6.2C105.4,44.9,105.1,45.5,104.8,45.5z"/>
				<path d="M129.2,11.5c0,0.9-0.2,1.8-0.5,2.6c0.4,0.2,0.6,0.5,0.6,0.7c0,0.7-0.3,1.3-0.6,1.8c-0.1,0.1-0.1,0.1-0.2,0.1l-0.9-0.6
					c-0.9,1.4-2.3,3.1-4.4,4.1c-0.8,0.4-1.7,0.7-2.6,0.7c-0.5,0-0.7-0.1-0.7-0.2c0-0.2,0.4-0.3,1-0.7c1.5-0.9,4.5-3.1,5.5-4.5
					c-0.8-0.6-1.9-1.3-1.9-2.4c0-0.8,0.4-1.5,1-2.3c0.7-1,1.5-1.4,2.2-1.4C128.8,9.3,129.1,10.5,129.2,11.5z M126,12.3
					c0,0,0,0.1,0,0.1c0,0.2,0.8,0.8,1.4,1c0.2-0.3,0.2-0.6,0.2-1.2c0-0.5-0.2-0.8-0.6-0.8C126.6,11.5,126.2,11.8,126,12.3z"/>
				<path d="M127.9,22.2c0.3-0.3,0.4-0.4,0.6-0.2c0.9,0.9,1.8,1.9,2.8,2.5c0.3,0.2,0.3,0.3,0,0.6c-0.8,0.9-1.6,1.8-2.4,2.7
					c-0.2,0.2-0.3,0.2-0.5,0c-0.7-0.5-1.7-1.3-2.6-2.2c-0.5,0.6-1.6,1.8-2,2.1c-0.2,0.1-0.3,0.3-0.7,0.1c-0.9-0.6-2.1-1.5-2.8-2.5
					c-0.2-0.2-0.2-0.3,0-0.6c0.7-0.8,1.6-1.9,2.5-2.7c0.2-0.2,0.3-0.2,0.6,0.1c0.7,0.7,1.9,1.8,2.6,2.2
					C126.5,23.7,127.4,22.6,127.9,22.2z"/>
				<path d="M134.1,15.3c-1.3,0-2-1.3-2-2.7c0-0.4,0.1-0.9,0.2-1.4c0.1-0.4,0.4-1.4,0.9-1.4c0.2,0,0.4,0.4,0.4,1v0.5
					c0,0.6,0.4,1,1.1,1h0.1c0.8,0,1.4-0.6,1.6-1.7c0.1-0.5,0.4-1.9,1.1-1.9c0.2,0,0.4,0.3,0.4,1c0,0.3,0.2,0.6,0.7,0.6
					c0.8,0,1.5-0.6,1.6-1.5c0.2-1.2,0.4-1.5,0.7-1.5c0.4,0,0.6,1.2,0.6,1.9c0,0.5-0.1,1.1-0.3,1.8c-0.4,1.2-1.2,2.1-2.7,2.1
					c-0.3,0-0.6-0.1-0.8-0.2c-0.1-0.1-0.2-0.1-0.4,0.2C136.3,14.4,135.4,15.3,134.1,15.3z M141,3c0.2-0.1,0.1,0.1,0.1,0.1
					c-0.1,0.7-0.4,1.5-0.9,2.1c-0.1,0.2-0.4,0.3-0.9,0.6l-7.1,3.3c-0.1,0-0.1,0-0.1-0.1c0-0.3,0.1-0.8,0.3-1.3
					c0.3-0.6,0.4-0.8,0.5-0.9c0.1-0.1,0.3-0.2,0.6-0.4L141,3z"/>
				<path d="M136.7,40.8c0.5-0.3,0.8-0.7,0.9-1.1v-0.6c0-1.6-0.7-12.7-1-17.9c0-0.3,0-0.4,0.1-0.6c0.2-0.5,0.7-1.9,1.5-3.3
					c0.2-0.3,0.3-0.4,0.4-0.4s0.3,0.2,0.3,0.5c0.2,1.1,0.4,4.3,0.5,8.2l0.2,4.9c0.2,5.4,0.7,8.1,1.3,9.3c0.7,1.3,1.5,1.9,2.5,1.9
					h0.6c1.1,0,1.6,0.7,1.6,2c0,1.4-0.5,2.1-1.6,2.1h-0.6c-1.2,0-2.2-0.3-3-1c-0.8-0.7-1.4-1.6-2.1-3.3c-0.2,1.1-0.7,2.1-1.5,3
					c-0.7,0.8-1.7,1.2-2.9,1.2c-1.2,0-2.3-0.4-3.1-1.4c-0.8-0.9-1.4-2.5-2-5.1c-0.9,2.2-2.1,3.3-4,3.3c-0.2,0-0.2,0-0.6,0
					c-1.2-0.1-2-0.2-2.5-0.3c-0.4-0.1-0.7-0.5-0.7-1.1c0-0.2,0-0.4,0.1-0.7c0.1-0.6,0.3-1.2,0.5-1.8c0.3-0.9,0.9-1.5,1.8-2.1
					c1.5-0.9,3.3-1.8,4.7-2.2c0-0.5,0.2-1.2,0.6-2.2c0.3-1,0.6-1.4,0.8-1.4c0.2,0,0.3,0.2,0.4,0.6c0.1,1.1,0.4,3.3,0.9,6.6
					c0.3,1.1,0.7,2,1.2,2.5c0.5,0.6,1.4,1,2.5,1C135.3,41.3,136,41.1,136.7,40.8z M126,38.3c1.2,0,2-0.3,2.5-0.8l-0.3-1.9
					c-2.1,1-3.5,1.9-4.2,2.5C124.6,38.2,125.2,38.3,126,38.3z"/>
				<path d="M156.4,48.7c0.2-0.1,0.2-0.1,0.2,0.1c0,1-0.4,2-0.9,2.3l-7.4,4.1c-0.1,0.1-0.2,0-0.2-0.1c0-0.5,0.2-1.4,0.4-1.8
					c0.2-0.3,0.5-0.6,1.2-1L156.4,48.7z"/>
				<path d="M145.9,37.6c0-1,0.4-3,1.1-4.4c1.3-2.6,3.3-3.9,5.2-3.9c1.3,0,3.7,0.7,5,1.8c0.5,0.4,0.6,0.7,0.6,0.8
					c0,0.1-0.1,0.2-0.4,0.2c-0.7,0-1.8-0.2-2.8-0.2c-2,0-6.5,1.8-6.7,3c0.1,0.8,2.4,4.1,5.9,4.1h0.2c2.2-0.9,4.9-2,6.5-2.9
					c0.7-0.4,1.2-0.5,1.5-0.5c0.1,0,0.2,0.1,0.2,0.2c0,0.4-1,2.1-1.5,3c-0.1,0.2-0.4,0.5-0.8,0.7c-1.2,0.8-3.2,1.6-5.7,2.8
					c-2.7,1.2-8.2,3.1-10.6,3.1h-0.3c-1.2,0-1.8-0.7-1.8-2c0-1.4,0.6-2.1,1.9-2.1h0.3c0.4,0,2.1-0.1,3.7-0.5
					C146.5,40,145.9,39,145.9,37.6z"/>
				<path d="M172.3,23.3c0.2-0.1,0.2-0.1,0.2,0.1c0,1-0.4,2-0.9,2.3l-7.4,4.1c-0.1,0.1-0.2,0-0.2-0.1c0-0.5,0.2-1.4,0.4-1.8
					c0.2-0.3,0.5-0.6,1.2-1L172.3,23.3z"/>
				<path d="M173.6,38.1c0.6,1.6,0.8,3.1,0.8,5.5c0,7.1-2,11.6-7.4,13.7c-0.3,0.1-0.7,0.2-1.1,0.2c-1.8,0-4.7-0.8-7.1-1.9
					c-0.6-0.3-0.8-0.5-0.8-0.7c0-0.2,0.2-0.3,0.7-0.3c0.3,0,2,0.3,3.2,0.3c1.7,0,3.4-0.8,5.9-2.4c2.8-1.8,5-4.2,5-6.9
					c0-0.9-0.2-1.7-0.7-2.6c-0.5,1.3-1.4,2.1-2.8,2.1c-2.2,0-3.7-1.3-3.7-3.8c0-1,0.5-2.4,1.1-3.7c0.9-1.8,2.2-3.4,3.2-3.4
					C171.2,34.2,172.7,35.8,173.6,38.1z M169.1,38.2c-0.5,0-0.9,0.4-1.2,0.8c-0.2,0.2-0.4,0.7-0.4,0.9c0,0.6,1.1,1.1,2.1,1.1
					c0.7,0,1.2-0.3,1.3-0.7C170.9,39,169.7,38.2,169.1,38.2z"/>
				<path d="M201.4,47.5c0.2-0.1,0.2-0.1,0.2,0.1c0,1-0.4,2-0.9,2.3l-7.4,4.1c-0.1,0.1-0.2,0-0.2-0.1c0-0.5,0.2-1.4,0.4-1.8
					c0.2-0.3,0.5-0.6,1.2-1L201.4,47.5z"/>
				<path d="M201,37c-0.2,1.2-0.8,2.9-1.5,3.7c-0.1,0.1-0.2,0.2-0.3,0.2c0,0-0.2,0-0.2,0c-0.5-0.1-1.3-0.3-2.7-0.3
					c-2.9,0-6.4,0.7-6.6,1.8c0,1.5,1.7,7.1,1.7,14.2c0,0.6,0,1.3,0,2c-0.2,3-1,4.8-1.5,4.8c-0.2,0-0.3-0.3-0.3-1.1
					c0-0.5,0-1.1,0-1.9c0-4.1-0.9-9-1.7-13.5c-0.2-1.3-0.3-2.4-0.3-3.3c0-3.4,1.3-4.6,2-5.3c0-0.2,0-0.4,0-0.6c0-2.7,1.7-7,4.2-7
					c3.1,0,5.6,3.7,7.2,5.9C201,36.7,201,36.8,201,37z M192.9,35.3c-1.1,0-1.5,1.2-1.7,2.1c1.1-0.7,3.1-0.9,4.1-1
					C194.6,35.7,193.9,35.3,192.9,35.3z"/>
				<path d="M211.9,45.5c-1.2,0-2.2-0.2-3-0.9c-1.3-1-2-3-2.3-5.5c-0.3-1.9-0.4-4.2-0.5-6.6c-0.1-3.6-0.4-9.1-0.9-12.3
					c0-0.1,0-0.3,0-0.4c0-0.2,0-0.3,0.3-0.7c0.6-0.8,0.9-1.4,1.3-2.1c0.3-0.5,0.4-0.6,0.5-0.6c0.2,0,0.3,0.3,0.5,1.2
					c0.8,6.3,0.1,15,1.1,19.8c0.2,1.2,0.4,1.6,0.7,2.4c0.5,1.1,1.3,1.6,2.6,1.7c1.4,0,2.1,0.7,2.1,2c0,1.6-0.8,2.1-1.9,2.1H211.9z"
					/>
				<path d="M214.5,37.6c0-1,0.4-3,1.1-4.4c1.3-2.6,3.3-3.9,5.2-3.9c1.3,0,3.7,0.7,5,1.8c0.5,0.4,0.6,0.7,0.6,0.8
					c0,0.1-0.1,0.2-0.4,0.2c-0.7,0-1.8-0.2-2.8-0.2c-2,0-6.5,1.8-6.7,3c0.1,0.8,2.4,4.1,5.9,4.1h0.2c2.2-0.9,4.9-2,6.5-2.9
					c0.7-0.4,1.2-0.5,1.5-0.5c0.1,0,0.2,0.1,0.2,0.2c0,0.4-1,2.1-1.5,3c-0.1,0.2-0.4,0.5-0.8,0.7c-1.2,0.8-3.2,1.6-5.7,2.8
					c-2.7,1.2-8.2,3.1-10.6,3.1H212c-1.2,0-1.8-0.7-1.8-2c0-1.4,0.6-2.1,1.9-2.1h0.3c0.4,0,2.1-0.1,3.7-0.5
					C215.2,40,214.5,39,214.5,37.6z M223.1,20.3c0.2,0.1,0.1,0.2,0,0.3c-0.4,0.6-1.9,2.2-2.5,3c-0.1,0.2-0.2,0.2-0.4,0
					c-0.8-0.5-2.6-1.9-3.1-2.6c-0.1-0.2-0.1-0.2,0-0.4c0.6-0.9,1.6-2.1,2.3-2.8c0.3-0.3,0.4-0.4,0.5-0.2
					C220.6,18.3,221.9,19.5,223.1,20.3z"/>
				<path d="M239.3,16.1c1.2,0,3,1.7,3,3.7c0,0.7-0.1,1.4-0.3,2.1c-0.5,1.4-1.7,2.2-3.2,2.2c-1.4,0-2.4-1.1-2.4-2.4
					C236.4,20,238.4,16.1,239.3,16.1z M238.9,19c-0.5,0-1.3,1.1-1.3,1.7c0,0.5,0.7,1,1.4,1c0.9,0,2-0.5,2-0.9
					C241.1,20.5,240,19,238.9,19z"/>
				<path d="M246.3,38.3c0,1.5-0.3,3.1-0.5,3.6c-0.8,2.7-3.6,3.7-8.8,3.7c-1.2,0-1.8-0.2-2.1-0.5c-0.4-0.4-0.5-1.2-0.5-2.1
					c0-0.7,0.1-1.2,0.1-1.5c0.1-0.6,0.3-0.8,0.4-0.8c0.1,0,0.2,0.1,0.4,0.3c0.5,0.4,1.7,0.6,3.1,0.6c2.2,0,4.9-0.4,5.9-1
					c0.1-0.1,0.2-0.1,0.2-0.2c0,0,0-0.2,0-0.2c-0.8-2.5-4-7-6.4-7c-0.3,0-0.8,0.4-1,0.4c-0.1,0-0.2-0.1-0.2-0.3
					c0-0.9,0.7-3.3,1.4-3.9c0.2-0.2,0.5-0.2,0.9-0.2c0.6,0,1.4,0.2,1.9,0.5c1,0.4,2.7,2.1,3.9,4.2C245.8,35.1,246.3,36.6,246.3,38.3
					z"/>
				<path d="M258.9,59.1c0.2-0.1,0.2-0.1,0.2,0.1c0,1-0.4,2-0.9,2.3l-7.4,4.1c-0.1,0.1-0.2,0-0.2-0.1c0-0.5,0.2-1.4,0.4-1.8
					c0.2-0.3,0.5-0.6,1.2-1L258.9,59.1z"/>
				<path d="M257.4,55.3c-1.5,0.8-4.7,2.7-7.2,4.5c-0.1,0-0.1,0.1-0.2,0.1c0,0-0.1,0-0.1-0.1c0-0.2,0.1-0.6,0.4-1.2
					c0.1-0.3,0.9-1.1,1.5-1.6c0.1-0.1,0.2-0.1,0.2-0.2s-0.1-0.1-0.2-0.2c-1-0.4-1.5-0.7-1.7-1.7c0-0.1,0-0.2,0-0.3
					c0-1.7,1.7-4,3.3-5.2c0.6-0.5,1.2-0.7,1.8-0.7c1,0,1.4,0.5,1.4,1.3c0,0.5-0.1,1-0.4,1.7c-0.2,0.4-0.3,0.7-0.5,0.7
					c-0.1,0-0.3-0.1-0.5-0.3c-0.2-0.2-0.5-0.5-1-0.5c-1.4,0-2.3,0.8-2.3,1.2c0,0.6,2.3,1.5,3.2,1.5c0.1,0,0.2,0,0.2,0
					c0.4-0.1,2-0.7,2.6-1.1c0.3-0.2,0.5-0.3,0.6-0.3c0.1,0,0.1,0,0.1,0.2c0,0.1-0.1,0.4-0.2,0.8C258,54.9,257.7,55.1,257.4,55.3z"/>
				<path d="M266.3,19.7c0.1,0.3,0.2,0.4,0.2,0.5c0,0.1,0,0.2-0.1,0.4c-0.3,0.8-1,1.7-1.5,2.4c-0.3,4.3-0.9,7.7-2.8,12.6
					c0.6,1.4,0.9,3.4,0.9,5.2c0,1.2-0.2,2.4-0.5,3.3c-0.3,0.7-4.8,1.5-7.8,1.5c-0.8,0-1.5,0-2-0.2c-0.2,0-0.3-0.5-0.3-1.2
					c0-1.1,0.2-2.7,0.5-3.2c0-0.1,0.1-0.1,0.2-0.1c0.2,0,0.2,0,0.4,0c2.5,0,5-2.3,6.6-5.2c-2-4-6.3-9.3-10-11.8
					c-0.1,0.1-0.8,1.1-1.3,1.1c-0.6,0-3.9-3.2-4-3.9c-0.1-0.4-0.1-0.8-0.1-1.1c0-1,0.2-2,0.4-2.5c0.2-0.5,0.5-0.7,0.8-0.7
					c0.4,0,0.9,0.3,1.4,0.7c2.8,2,5.8,4.2,8.1,7.2c1.8,2.3,4.1,5.4,5.8,9.2c1-2.3,1.3-3.9,1.5-6.9c0.1-1.7,0.2-3,0.2-3.9
					c0-2.1-0.2-2.8-0.2-3.3c0-0.3,0.1-0.7,0.4-1.3c0.7-1.2,1.2-2.1,1.5-2.1c0.1,0,0.2,0.1,0.3,0.4C265.3,17.6,265.7,18.7,266.3,19.7
					z M260.8,37.5c-1.4,2-1.6,2.4-3,3.7c1.3,0,2.7-0.1,3.8-0.6C261.5,39.9,261.5,38.8,260.8,37.5z"/>
				<path d="M273.3,45.5c-0.2,0-0.3-0.3-0.3-1.2c0-5.4-2-20.3-2-22.7c0-1.2,0.8-3.1,1.5-4.4c0.2-0.4,0.6-0.9,0.8-0.9
					c0.2,0,0.3,0.3,0.3,1.4c0.2,3.9,1.3,13,1.3,19.6c0,2.6-0.2,4.9-0.6,6.2C274,44.9,273.6,45.5,273.3,45.5z"/>
				<path d="M297.7,11.5c0,0.9-0.2,1.8-0.5,2.6c0.4,0.2,0.6,0.5,0.6,0.7c0,0.7-0.3,1.3-0.6,1.8c-0.1,0.1-0.1,0.1-0.2,0.1l-0.9-0.6
					c-0.9,1.4-2.3,3.1-4.4,4.1c-0.8,0.4-1.7,0.7-2.6,0.7c-0.5,0-0.7-0.1-0.7-0.2c0-0.2,0.4-0.3,1-0.7c1.5-0.9,4.5-3.1,5.5-4.5
					c-0.8-0.6-1.9-1.3-1.9-2.4c0-0.8,0.4-1.5,1-2.3c0.7-1,1.5-1.4,2.2-1.4C297.4,9.3,297.7,10.5,297.7,11.5z M294.5,12.3
					c0,0,0,0.1,0,0.1c0,0.2,0.8,0.8,1.4,1c0.2-0.3,0.2-0.6,0.2-1.2c0-0.5-0.2-0.8-0.6-0.8C295.2,11.5,294.8,11.8,294.5,12.3z"/>
				<path d="M296.4,22.2c0.3-0.3,0.4-0.4,0.6-0.2c0.9,0.9,1.8,1.9,2.8,2.5c0.3,0.2,0.3,0.3,0,0.6c-0.8,0.9-1.6,1.8-2.4,2.7
					c-0.2,0.2-0.3,0.2-0.5,0c-0.7-0.5-1.7-1.3-2.6-2.2c-0.5,0.6-1.6,1.8-2,2.1c-0.2,0.1-0.3,0.3-0.7,0.1c-0.9-0.6-2.1-1.5-2.8-2.5
					c-0.2-0.2-0.2-0.3,0-0.6c0.7-0.8,1.6-1.9,2.5-2.7c0.2-0.2,0.3-0.2,0.6,0.1c0.7,0.7,1.9,1.8,2.6,2.2
					C295,23.7,296,22.6,296.4,22.2z"/>
				<path d="M302.6,15.3c-1.3,0-2-1.3-2-2.7c0-0.4,0.1-0.9,0.2-1.4c0.1-0.4,0.4-1.4,0.9-1.4c0.2,0,0.4,0.4,0.4,1v0.5
					c0,0.6,0.4,1,1.1,1h0.1c0.8,0,1.4-0.6,1.6-1.7c0.1-0.5,0.4-1.9,1.1-1.9c0.2,0,0.4,0.3,0.4,1c0,0.3,0.2,0.6,0.7,0.6
					c0.8,0,1.5-0.6,1.6-1.5c0.2-1.2,0.4-1.5,0.7-1.5c0.4,0,0.6,1.2,0.6,1.9c0,0.5-0.1,1.1-0.3,1.8c-0.4,1.2-1.2,2.1-2.7,2.1
					c-0.3,0-0.6-0.1-0.8-0.2c-0.1-0.1-0.2-0.1-0.4,0.2C304.8,14.4,304,15.3,302.6,15.3z M309.6,3c0.2-0.1,0.1,0.1,0.1,0.1
					c-0.1,0.7-0.4,1.5-0.9,2.1c-0.1,0.2-0.4,0.3-0.9,0.6l-7.1,3.3c-0.1,0-0.1,0-0.1-0.1c0-0.3,0.1-0.8,0.3-1.3
					c0.3-0.6,0.4-0.8,0.5-0.9c0.1-0.1,0.3-0.2,0.6-0.4L309.6,3z"/>
				<path d="M305.2,40.8c0.5-0.3,0.8-0.7,0.9-1.1v-0.6c0-1.6-0.7-12.7-1-17.9c0-0.3,0-0.4,0.1-0.6c0.2-0.5,0.7-1.9,1.5-3.3
					c0.2-0.3,0.3-0.4,0.4-0.4c0.1,0,0.3,0.2,0.3,0.5c0.2,1.1,0.4,4.3,0.5,8.2l0.2,4.9c0.2,5.4,0.7,8.1,1.3,9.3
					c0.7,1.3,1.5,1.9,2.5,1.9h0.6c1.1,0,1.6,0.7,1.6,2c0,1.4-0.5,2.1-1.6,2.1h-0.6c-1.2,0-2.2-0.3-3-1c-0.8-0.7-1.4-1.6-2.1-3.3
					c-0.2,1.1-0.7,2.1-1.5,3c-0.7,0.8-1.7,1.2-2.9,1.2c-1.2,0-2.3-0.4-3.1-1.4c-0.8-0.9-1.4-2.5-2-5.1c-0.9,2.2-2.1,3.3-4,3.3
					c-0.2,0-0.2,0-0.6,0c-1.2-0.1-2-0.2-2.5-0.3c-0.4-0.1-0.7-0.5-0.7-1.1c0-0.2,0-0.4,0.1-0.7c0.1-0.6,0.3-1.2,0.5-1.8
					c0.3-0.9,0.9-1.5,1.8-2.1c1.5-0.9,3.3-1.8,4.7-2.2c0-0.5,0.2-1.2,0.6-2.2c0.3-1,0.6-1.4,0.8-1.4c0.2,0,0.3,0.2,0.4,0.6
					c0.1,1.1,0.4,3.3,0.9,6.6c0.3,1.1,0.7,2,1.2,2.5c0.5,0.6,1.4,1,2.5,1C303.8,41.3,304.5,41.1,305.2,40.8z M294.6,38.3
					c1.2,0,2-0.3,2.5-0.8l-0.3-1.9c-2.1,1-3.5,1.9-4.2,2.5C293.1,38.2,293.8,38.3,294.6,38.3z"/>
				<path d="M325,48.7c0.2-0.1,0.2-0.1,0.2,0.1c0,1-0.4,2-0.9,2.3l-7.4,4.1c-0.1,0.1-0.2,0-0.2-0.1c0-0.5,0.2-1.4,0.4-1.8
					c0.2-0.3,0.5-0.6,1.2-1L325,48.7z"/>
				<path d="M314.4,37.6c0-1,0.4-3,1.1-4.4c1.3-2.6,3.3-3.9,5.2-3.9c1.3,0,3.7,0.7,5,1.8c0.5,0.4,0.6,0.7,0.6,0.8
					c0,0.1-0.1,0.2-0.4,0.2c-0.7,0-1.8-0.2-2.8-0.2c-2,0-6.5,1.8-6.7,3c0.1,0.8,2.4,4.1,5.9,4.1h0.2c2.2-0.9,4.9-2,6.5-2.9
					c0.7-0.4,1.2-0.5,1.5-0.5c0.1,0,0.2,0.1,0.2,0.2c0,0.4-1,2.1-1.5,3c-0.1,0.2-0.4,0.5-0.8,0.7c-1.2,0.8-3.2,1.6-5.7,2.8
					c-2.7,1.2-8.2,3.1-10.6,3.1h-0.3c-1.2,0-1.8-0.7-1.8-2c0-1.4,0.6-2.1,1.9-2.1h0.3c0.4,0,2.1-0.1,3.7-0.5
					C315.1,40,314.4,39,314.4,37.6z"/>
			</g>
			<g>
				<g>
					<path class="st1" d="M52.3,44.3c0.2-0.1,0.2-0.1,0.2,0.1c0,1-0.4,2-0.9,2.3l-7.4,4.1c-0.1,0.1-0.2,0-0.2-0.1
						c0-0.5,0.2-1.4,0.4-1.8c0.2-0.3,0.5-0.6,1.2-1L52.3,44.3z"/>
					<path class="st1" d="M50.3,15.5c0.3-0.3,0.4-0.4,0.6-0.2c0.9,0.9,1.8,1.9,2.8,2.5c0.3,0.2,0.3,0.3,0,0.6
						c-0.8,0.9-1.6,1.8-2.4,2.7c-0.2,0.2-0.3,0.2-0.5,0C50,20.6,49,19.8,48.1,19c-0.5,0.6-1.6,1.8-2,2.1c-0.2,0.1-0.3,0.3-0.7,0.1
						c-0.9-0.6-2.1-1.5-2.8-2.5c-0.2-0.2-0.2-0.3,0-0.6c0.7-0.8,1.6-1.9,2.5-2.7c0.2-0.2,0.3-0.2,0.6,0.1c0.7,0.7,1.9,1.8,2.6,2.2
						C48.8,17,49.8,15.9,50.3,15.5z M55.6,37.6c0.9,0.6,1.6,0.8,2.1,0.8h0.6c1.2,0,1.9,0.6,1.9,1.9c0,1.5-0.7,2.2-2,2.2h-0.6
						c-1.4,0-2.7-0.5-4-1.6c-1.3-1.1-2.1-2.9-2.4-5.4c-0.4,0.6-0.7,1.3-1.5,1.8c-1.1,0.8-2.9,1.1-4.7,1.1c-1.3,0-2.5-0.2-2.5-1.2
						c0.6-4,1.1-4.6,3-6.2c0.8-0.7,3.2-2.1,4.2-2.8c0-0.4-0.1-0.7-0.1-1c0-0.9,0.2-1.4,0.7-2.2c0.3-0.5,0.5-0.9,0.7-0.9
						c0.2,0,0.3,0.3,0.4,1c0.6,3.7,0.9,6.7,1.4,8.5C53.3,35.3,54.2,36.7,55.6,37.6z M50.2,30.3c-1.7,1.1-4.5,2.8-4.6,3.3
						c0,0.3,0.5,0.4,1.3,0.4c1.1,0,2.7-0.3,3.9-0.9C50.6,32.1,50.5,31.7,50.2,30.3z"/>
					<path class="st1" d="M60.1,20.4c-1.3,0-2-1.3-2-2.7c0-0.4,0.1-0.9,0.2-1.4c0.1-0.4,0.4-1.4,0.9-1.4c0.2,0,0.4,0.4,0.4,1v0.5
						c0,0.6,0.4,1,1.1,1h0.1c0.8,0,1.4-0.6,1.6-1.7c0.1-0.5,0.4-1.9,1.1-1.9c0.2,0,0.4,0.3,0.4,1c0,0.3,0.2,0.6,0.7,0.6
						c0.8,0,1.5-0.6,1.6-1.5c0.2-1.2,0.4-1.5,0.7-1.5c0.4,0,0.6,1.2,0.6,1.9c0,0.5-0.1,1.1-0.3,1.8c-0.4,1.2-1.2,2.1-2.7,2.1
						c-0.3,0-0.6-0.1-0.8-0.2c-0.1-0.1-0.2-0.1-0.4,0.2C62.3,19.5,61.5,20.4,60.1,20.4z M67.1,8.1c0.2-0.1,0.1,0.1,0.1,0.1
						c-0.1,0.7-0.4,1.5-0.9,2.1c-0.1,0.2-0.4,0.3-0.9,0.6l-7.1,3.3c-0.1,0-0.1,0-0.1-0.1c0-0.3,0.1-0.8,0.3-1.3
						c0.3-0.6,0.4-0.8,0.5-0.9c0.1-0.1,0.3-0.2,0.6-0.4L67.1,8.1z"/>
					<path class="st1" d="M66.3,36c0,1,1.1,2.2,2.4,2.4c0.3,0,0.6,0,0.9,0h0.2c1.5,0,1.5,1.2,1.5,1.8c0,0.5,0,2.2-1.5,2.2h-0.3
						c-0.3,0-0.5,0-1,0c-2.7-0.3-3.7-2.7-3.9-3c-0.4,1.1-2.6,3-6.6,3h-0.2c-1.1,0-1.7-1-1.7-2c0-1,0.6-2.1,1.7-2.1h1.2
						c1.8,0,4.3-0.3,5.8-2.9c0.5-0.8,0.7-0.9,0.9-0.9C66.1,34.7,66.3,35.1,66.3,36z M67.7,25.5c0.2,0.1,0.1,0.2,0,0.3
						c-0.4,0.6-1.9,2.2-2.5,3C65,29,65,29,64.8,28.9c-0.8-0.5-2.6-1.9-3.1-2.6c-0.1-0.2-0.1-0.2,0-0.4c0.6-0.9,1.6-2.1,2.3-2.8
						c0.3-0.3,0.4-0.4,0.5-0.2C65.2,23.6,66.5,24.7,67.7,25.5z"/>
					<path class="st1" d="M81.2,5.1c0,0.9-0.2,1.8-0.5,2.6c0.4,0.2,0.6,0.5,0.6,0.7c0,0.7-0.3,1.3-0.6,1.8c-0.1,0.1-0.1,0.1-0.2,0.1
						l-0.9-0.6c-0.9,1.4-2.3,3.1-4.4,4.1c-0.8,0.4-1.7,0.7-2.6,0.7c-0.5,0-0.7-0.1-0.7-0.2c0-0.2,0.4-0.3,1-0.7
						c1.5-0.9,4.5-3.1,5.5-4.5c-0.8-0.6-1.9-1.3-1.9-2.4c0-0.8,0.4-1.5,1-2.3c0.7-1,1.5-1.4,2.2-1.4C80.9,2.9,81.2,4.1,81.2,5.1z
						 M78,5.9c0,0,0,0.1,0,0.1c0,0.2,0.8,0.8,1.4,1c0.2-0.3,0.2-0.6,0.2-1.2c0-0.5-0.2-0.8-0.6-0.8C78.7,5.1,78.2,5.4,78,5.9z"/>
					<path class="st1" d="M87.9,38.4c1.1,0,1.7,0.6,1.7,1.9c0,1.4-0.6,2.2-1.8,2.2h-0.4c-1.8-0.1-3.5-0.6-4.9-1.4
						c-1.4-0.9-2-1.6-2.9-3c-2.1,1.9-3.8,3.1-5.1,3.6c-1.4,0.6-3.1,0.9-4.9,0.9c-1.3,0-2-0.7-2-2.1c0-1.3,0.7-2,2-2H70
						c3.2,0,5.3-0.6,8-2.1c-0.9-1.2-3-1.7-4.1-1.9c-0.1,0-0.2-0.3-0.2-0.7c0-0.9,0.3-2.5,0.8-2.9c1.7-1.3,3.7-2,5.5-2
						c1.8,0,3.4,0.6,4.7,1.9c0.3,0.3,0.4,0.8,0.4,1.3c0,1.3-0.7,3-2.3,4.2c1.5,1.5,3,2.2,4.7,2.2H87.9z M81.8,20.3
						c0.2,0.1,0.1,0.2,0,0.3c-0.4,0.6-1.9,2.2-2.5,3c-0.1,0.2-0.2,0.2-0.4,0c-0.8-0.5-2.6-1.9-3.1-2.6c-0.1-0.2-0.1-0.2,0-0.4
						c0.6-0.9,1.6-2.1,2.3-2.8c0.3-0.3,0.4-0.4,0.5-0.2C79.2,18.3,80.5,19.5,81.8,20.3z"/>
					<path class="st1" d="M91.3,2.9c1.2,0,3,1.7,3,3.7c0,0.7-0.1,1.4-0.3,2.1c-0.5,1.4-1.7,2.2-3.2,2.2c-1.4,0-2.4-1.1-2.4-2.4
						C88.3,6.8,90.3,2.9,91.3,2.9z M90.9,5.7c-0.5,0-1.3,1.1-1.3,1.7c0,0.5,0.7,1,1.4,1c0.9,0,2-0.5,2-0.9C93,7.2,91.9,5.7,90.9,5.7
						z"/>
					<path class="st1" d="M91.8,40.7c-1,1.2-2.1,1.9-4.1,1.9h-0.4c-1.2,0-1.8-0.7-1.8-2.2c0-1.3,0.6-1.9,1.8-1.9h0.4
						c1,0,1.8-0.1,2.6-0.4c0.7-0.2,1.1-0.5,1.2-0.8c0-3.1-1.1-9.6-1.7-15.9c0-0.7-0.5-2.9-0.7-3.8c0-0.1,0-0.3,0-0.4
						c0-0.5,0.6-1.7,1-2.4c0.5-0.9,0.9-1.6,1.3-1.6c0.1,0,0.2,0.1,0.3,0.4c0.5,1.8,1,2.6,1.5,3.3c0.1,0.2,0.2,0.3,0.2,0.5
						c0,0.1,0,0.1,0,0.2c-0.1,0.4-0.7,1.5-1,1.9c0.3,6.1,1.3,11,1.3,14C93.6,36.5,93,38.9,91.8,40.7z"/>
					<path class="st1" d="M101.8,42.5c-0.2,0-0.3-0.3-0.3-1.2c0-5.4-2-20.3-2-22.7c0-1.2,0.8-3.1,1.5-4.4c0.2-0.4,0.6-0.9,0.8-0.9
						c0.2,0,0.3,0.3,0.3,1.4c0.2,3.9,1.3,13,1.3,19.6c0,2.6-0.2,4.9-0.6,6.2C102.4,41.9,102.1,42.5,101.8,42.5z"/>
					<path class="st1" d="M126.2,8.5c0,0.9-0.2,1.8-0.5,2.6c0.4,0.2,0.6,0.5,0.6,0.7c0,0.7-0.3,1.3-0.6,1.8
						c-0.1,0.1-0.1,0.1-0.2,0.1l-0.9-0.6c-0.9,1.4-2.3,3.1-4.4,4.1c-0.8,0.4-1.7,0.7-2.6,0.7c-0.5,0-0.7-0.1-0.7-0.2
						c0-0.2,0.4-0.3,1-0.7c1.5-0.9,4.5-3.1,5.5-4.5c-0.8-0.6-1.9-1.3-1.9-2.4c0-0.8,0.4-1.5,1-2.3c0.7-1,1.5-1.4,2.2-1.4
						C125.8,6.3,126.1,7.5,126.2,8.5z M123,9.3c0,0,0,0.1,0,0.1c0,0.2,0.8,0.8,1.4,1c0.2-0.3,0.2-0.6,0.2-1.2c0-0.5-0.2-0.8-0.6-0.8
						C123.6,8.5,123.2,8.8,123,9.3z"/>
					<path class="st1" d="M124.9,19.2c0.3-0.3,0.4-0.4,0.6-0.2c0.9,0.9,1.8,1.9,2.8,2.5c0.3,0.2,0.3,0.3,0,0.6
						c-0.8,0.9-1.6,1.8-2.4,2.7c-0.2,0.2-0.3,0.2-0.5,0c-0.7-0.5-1.7-1.3-2.6-2.2c-0.5,0.6-1.6,1.8-2,2.1c-0.2,0.1-0.3,0.3-0.7,0.1
						c-0.9-0.6-2.1-1.5-2.8-2.5c-0.2-0.2-0.2-0.3,0-0.6c0.7-0.8,1.6-1.9,2.5-2.7c0.2-0.2,0.3-0.2,0.6,0.1c0.7,0.7,1.9,1.8,2.6,2.2
						C123.5,20.7,124.4,19.6,124.9,19.2z"/>
					<path class="st1" d="M131.1,12.3c-1.3,0-2-1.3-2-2.7c0-0.4,0.1-0.9,0.2-1.4c0.1-0.4,0.4-1.4,0.9-1.4c0.2,0,0.4,0.4,0.4,1v0.5
						c0,0.6,0.4,1,1.1,1h0.1c0.8,0,1.4-0.6,1.6-1.7c0.1-0.5,0.4-1.9,1.1-1.9c0.2,0,0.4,0.3,0.4,1c0,0.3,0.2,0.6,0.7,0.6
						c0.8,0,1.5-0.6,1.6-1.5c0.2-1.2,0.4-1.5,0.7-1.5c0.4,0,0.6,1.2,0.6,1.9c0,0.5-0.1,1.1-0.3,1.8c-0.4,1.2-1.2,2.1-2.7,2.1
						c-0.3,0-0.6-0.1-0.8-0.2c-0.1-0.1-0.2-0.1-0.4,0.2C133.3,11.4,132.4,12.3,131.1,12.3z M138,0c0.2-0.1,0.1,0.1,0.1,0.1
						c-0.1,0.7-0.4,1.5-0.9,2.1c-0.1,0.2-0.4,0.3-0.9,0.6l-7.1,3.3c-0.1,0-0.1,0-0.1-0.1c0-0.3,0.1-0.8,0.3-1.3
						c0.3-0.6,0.4-0.8,0.5-0.9c0.1-0.1,0.3-0.2,0.6-0.4L138,0z"/>
					<path class="st1" d="M133.7,37.8c0.5-0.3,0.8-0.7,0.9-1.1v-0.6c0-1.6-0.7-12.7-1-17.9c0-0.3,0-0.4,0.1-0.6
						c0.2-0.5,0.7-1.9,1.5-3.3c0.2-0.3,0.3-0.4,0.4-0.4s0.3,0.2,0.3,0.5c0.2,1.1,0.4,4.3,0.5,8.2l0.2,4.9c0.2,5.4,0.7,8.1,1.3,9.3
						c0.7,1.3,1.5,1.9,2.5,1.9h0.6c1.1,0,1.6,0.7,1.6,2c0,1.4-0.5,2.1-1.6,2.1h-0.6c-1.2,0-2.2-0.3-3-1c-0.8-0.7-1.4-1.6-2.1-3.3
						c-0.2,1.1-0.7,2.1-1.5,3c-0.7,0.8-1.7,1.2-2.9,1.2c-1.2,0-2.3-0.4-3.1-1.4c-0.8-0.9-1.4-2.5-2-5.1c-0.9,2.2-2.1,3.3-4,3.3
						c-0.2,0-0.2,0-0.6,0c-1.2-0.1-2-0.2-2.5-0.3c-0.4-0.1-0.7-0.5-0.7-1.1c0-0.2,0-0.4,0.1-0.7c0.1-0.6,0.3-1.2,0.5-1.8
						c0.3-0.9,0.9-1.5,1.8-2.1c1.5-0.9,3.3-1.8,4.7-2.2c0-0.5,0.2-1.2,0.6-2.2c0.3-1,0.6-1.4,0.8-1.4c0.2,0,0.3,0.2,0.4,0.6
						c0.1,1.1,0.4,3.3,0.9,6.6c0.3,1.1,0.7,2,1.2,2.5c0.5,0.6,1.4,1,2.5,1C132.3,38.3,133,38.1,133.7,37.8z M123,35.3
						c1.2,0,2-0.3,2.5-0.8l-0.3-1.9c-2.1,1-3.5,1.9-4.2,2.5C121.6,35.2,122.2,35.3,123,35.3z"/>
					<path class="st1" d="M153.4,45.7c0.2-0.1,0.2-0.1,0.2,0.1c0,1-0.4,2-0.9,2.3l-7.4,4.1c-0.1,0.1-0.2,0-0.2-0.1
						c0-0.5,0.2-1.4,0.4-1.8c0.2-0.3,0.5-0.6,1.2-1L153.4,45.7z"/>
					<path class="st1" d="M142.9,34.6c0-1,0.4-3,1.1-4.4c1.3-2.6,3.3-3.9,5.2-3.9c1.3,0,3.7,0.7,5,1.8c0.5,0.4,0.6,0.7,0.6,0.8
						c0,0.1-0.1,0.2-0.4,0.2c-0.7,0-1.8-0.2-2.8-0.2c-2,0-6.5,1.8-6.7,3c0.1,0.8,2.4,4.1,5.9,4.1h0.2c2.2-0.9,4.9-2,6.5-2.9
						c0.7-0.4,1.2-0.5,1.5-0.5c0.1,0,0.2,0.1,0.2,0.2c0,0.4-1,2.1-1.5,3c-0.1,0.2-0.4,0.5-0.8,0.7c-1.2,0.8-3.2,1.6-5.7,2.8
						c-2.7,1.2-8.2,3.1-10.6,3.1h-0.3c-1.2,0-1.8-0.7-1.8-2c0-1.4,0.6-2.1,1.9-2.1h0.3c0.4,0,2.1-0.1,3.7-0.5
						C143.5,37,142.9,36,142.9,34.6z"/>
					<path class="st1" d="M169.3,20.3c0.2-0.1,0.2-0.1,0.2,0.1c0,1-0.4,2-0.9,2.3l-7.4,4.1c-0.1,0.1-0.2,0-0.2-0.1
						c0-0.5,0.2-1.4,0.4-1.8c0.2-0.3,0.5-0.6,1.2-1L169.3,20.3z"/>
					<path class="st1" d="M170.6,35.1c0.6,1.6,0.8,3.1,0.8,5.5c0,7.1-2,11.6-7.4,13.7c-0.3,0.1-0.7,0.2-1.1,0.2
						c-1.8,0-4.7-0.8-7.1-1.9c-0.6-0.3-0.8-0.5-0.8-0.7c0-0.2,0.2-0.3,0.7-0.3c0.3,0,2,0.3,3.2,0.3c1.7,0,3.4-0.8,5.9-2.4
						c2.8-1.8,5-4.2,5-6.9c0-0.9-0.2-1.7-0.7-2.6c-0.5,1.3-1.4,2.1-2.8,2.1c-2.2,0-3.7-1.3-3.7-3.8c0-1,0.5-2.4,1.1-3.7
						c0.9-1.8,2.2-3.4,3.2-3.4C168.2,31.2,169.7,32.8,170.6,35.1z M166.1,35.2c-0.5,0-0.9,0.4-1.2,0.8c-0.2,0.2-0.4,0.7-0.4,0.9
						c0,0.6,1.1,1.1,2.1,1.1c0.7,0,1.2-0.3,1.3-0.7C167.9,36,166.7,35.2,166.1,35.2z"/>
					<path class="st1" d="M198.4,44.5c0.2-0.1,0.2-0.1,0.2,0.1c0,1-0.4,2-0.9,2.3l-7.4,4.1c-0.1,0.1-0.2,0-0.2-0.1
						c0-0.5,0.2-1.4,0.4-1.8c0.2-0.3,0.5-0.6,1.2-1L198.4,44.5z"/>
					<path class="st1" d="M198,34c-0.2,1.2-0.8,2.9-1.5,3.7c-0.1,0.1-0.2,0.2-0.3,0.2c0,0-0.2,0-0.2,0c-0.5-0.1-1.3-0.3-2.7-0.3
						c-2.9,0-6.4,0.7-6.6,1.8c0,1.5,1.7,7.1,1.7,14.2c0,0.6,0,1.3,0,2c-0.2,3-1,4.8-1.5,4.8c-0.2,0-0.3-0.3-0.3-1.1
						c0-0.5,0-1.1,0-1.9c0-4.1-0.9-9-1.7-13.5c-0.2-1.3-0.3-2.4-0.3-3.3c0-3.4,1.3-4.6,2-5.3c0-0.2,0-0.4,0-0.6c0-2.7,1.7-7,4.2-7
						c3.1,0,5.6,3.7,7.2,5.9C198,33.7,198,33.8,198,34z M189.9,32.3c-1.1,0-1.5,1.2-1.7,2.1c1.1-0.7,3.1-0.9,4.1-1
						C191.6,32.7,190.9,32.3,189.9,32.3z"/>
					<path class="st1" d="M208.9,42.5c-1.2,0-2.2-0.2-3-0.9c-1.3-1-2-3-2.3-5.5c-0.3-1.9-0.4-4.2-0.5-6.6c-0.1-3.6-0.4-9.1-0.9-12.3
						c0-0.1,0-0.3,0-0.4c0-0.2,0-0.3,0.3-0.7c0.6-0.8,0.9-1.4,1.3-2.1c0.3-0.5,0.4-0.6,0.5-0.6c0.2,0,0.3,0.3,0.5,1.2
						c0.8,6.3,0.1,15,1.1,19.8c0.2,1.2,0.4,1.6,0.7,2.4c0.5,1.1,1.3,1.6,2.6,1.7c1.4,0,2.1,0.7,2.1,2c0,1.6-0.8,2.1-1.9,2.1H208.9z"
						/>
					<path class="st1" d="M211.5,34.6c0-1,0.4-3,1.1-4.4c1.3-2.6,3.3-3.9,5.2-3.9c1.3,0,3.7,0.7,5,1.8c0.5,0.4,0.6,0.7,0.6,0.8
						c0,0.1-0.1,0.2-0.4,0.2c-0.7,0-1.8-0.2-2.8-0.2c-2,0-6.5,1.8-6.7,3c0.1,0.8,2.4,4.1,5.9,4.1h0.2c2.2-0.9,4.9-2,6.5-2.9
						c0.7-0.4,1.2-0.5,1.5-0.5c0.1,0,0.2,0.1,0.2,0.2c0,0.4-1,2.1-1.5,3c-0.1,0.2-0.4,0.5-0.8,0.7c-1.2,0.8-3.2,1.6-5.7,2.8
						c-2.7,1.2-8.2,3.1-10.6,3.1H209c-1.2,0-1.8-0.7-1.8-2c0-1.4,0.6-2.1,1.9-2.1h0.3c0.4,0,2.1-0.1,3.7-0.5
						C212.2,37,211.5,36,211.5,34.6z M220.1,17.3c0.2,0.1,0.1,0.2,0,0.3c-0.4,0.6-1.9,2.2-2.5,3c-0.1,0.2-0.2,0.2-0.4,0
						c-0.8-0.5-2.6-1.9-3.1-2.6c-0.1-0.2-0.1-0.2,0-0.4c0.6-0.9,1.6-2.1,2.3-2.8c0.3-0.3,0.4-0.4,0.5-0.2
						C217.6,15.3,218.9,16.5,220.1,17.3z"/>
					<path class="st1" d="M236.3,13.1c1.2,0,3,1.7,3,3.7c0,0.7-0.1,1.4-0.3,2.1c-0.5,1.4-1.7,2.2-3.2,2.2c-1.4,0-2.4-1.1-2.4-2.4
						C233.4,17,235.4,13.1,236.3,13.1z M235.9,16c-0.5,0-1.3,1.1-1.3,1.7c0,0.5,0.7,1,1.4,1c0.9,0,2-0.5,2-0.9
						C238.1,17.5,237,16,235.9,16z"/>
					<path class="st1" d="M243.3,35.3c0,1.5-0.3,3.1-0.5,3.6c-0.8,2.7-3.6,3.7-8.8,3.7c-1.2,0-1.8-0.2-2.1-0.5
						c-0.4-0.4-0.5-1.2-0.5-2.1c0-0.7,0.1-1.2,0.1-1.5c0.1-0.6,0.3-0.8,0.4-0.8c0.1,0,0.2,0.1,0.4,0.3c0.5,0.4,1.7,0.6,3.1,0.6
						c2.2,0,4.9-0.4,5.9-1c0.1-0.1,0.2-0.1,0.2-0.2c0,0,0-0.2,0-0.2c-0.8-2.5-4-7-6.4-7c-0.3,0-0.8,0.4-1,0.4
						c-0.1,0-0.2-0.1-0.2-0.3c0-0.9,0.7-3.3,1.4-3.9c0.2-0.2,0.5-0.2,0.9-0.2c0.6,0,1.4,0.2,1.9,0.5c1,0.4,2.7,2.1,3.9,4.2
						C242.8,32.1,243.3,33.6,243.3,35.3z"/>
					<path class="st1" d="M255.9,56.1c0.2-0.1,0.2-0.1,0.2,0.1c0,1-0.4,2-0.9,2.3l-7.4,4.1c-0.1,0.1-0.2,0-0.2-0.1
						c0-0.5,0.2-1.4,0.4-1.8c0.2-0.3,0.5-0.6,1.2-1L255.9,56.1z"/>
					<path class="st1" d="M254.4,52.3c-1.5,0.8-4.7,2.7-7.2,4.5c-0.1,0-0.1,0.1-0.2,0.1c0,0-0.1,0-0.1-0.1c0-0.2,0.1-0.6,0.4-1.2
						c0.1-0.3,0.9-1.1,1.5-1.6c0.1-0.1,0.2-0.1,0.2-0.2s-0.1-0.1-0.2-0.2c-1-0.4-1.5-0.7-1.7-1.7c0-0.1,0-0.2,0-0.3
						c0-1.7,1.7-4,3.3-5.2c0.6-0.5,1.2-0.7,1.8-0.7c1,0,1.4,0.5,1.4,1.3c0,0.5-0.1,1-0.4,1.7c-0.2,0.4-0.3,0.7-0.5,0.7
						c-0.1,0-0.3-0.1-0.5-0.3c-0.2-0.2-0.5-0.5-1-0.5c-1.4,0-2.3,0.8-2.3,1.2c0,0.6,2.3,1.5,3.2,1.5c0.1,0,0.2,0,0.2,0
						c0.4-0.1,2-0.7,2.6-1.1c0.3-0.2,0.5-0.3,0.6-0.3c0.1,0,0.1,0,0.1,0.2c0,0.1-0.1,0.4-0.2,0.8C255,51.9,254.7,52.1,254.4,52.3z"
						/>
					<path class="st1" d="M263.3,16.7c0.1,0.3,0.2,0.4,0.2,0.5c0,0.1,0,0.2-0.1,0.4c-0.3,0.8-1,1.7-1.5,2.4
						c-0.3,4.3-0.9,7.7-2.8,12.6c0.6,1.4,0.9,3.4,0.9,5.2c0,1.2-0.2,2.4-0.5,3.3c-0.3,0.7-4.8,1.5-7.8,1.5c-0.8,0-1.5,0-2-0.2
						c-0.2,0-0.3-0.5-0.3-1.2c0-1.1,0.2-2.7,0.5-3.2c0-0.1,0.1-0.1,0.2-0.1c0.2,0,0.2,0,0.4,0c2.5,0,5-2.3,6.6-5.2
						c-2-4-6.3-9.3-10-11.8c-0.1,0.1-0.8,1.1-1.3,1.1c-0.6,0-3.9-3.2-4-3.9c-0.1-0.4-0.1-0.8-0.1-1.1c0-1,0.2-2,0.4-2.5
						c0.2-0.5,0.5-0.7,0.8-0.7c0.4,0,0.9,0.3,1.4,0.7c2.8,2,5.8,4.2,8.1,7.2c1.8,2.3,4.1,5.4,5.8,9.2c1-2.3,1.3-3.9,1.5-6.9
						c0.1-1.7,0.2-3,0.2-3.9c0-2.1-0.2-2.8-0.2-3.3c0-0.3,0.1-0.7,0.4-1.3c0.7-1.2,1.2-2.1,1.5-2.1c0.1,0,0.2,0.1,0.3,0.4
						C262.3,14.6,262.7,15.7,263.3,16.7z M257.8,34.5c-1.4,2-1.6,2.4-3,3.7c1.3,0,2.7-0.1,3.8-0.6C258.5,36.9,258.5,35.8,257.8,34.5
						z"/>
					<path class="st1" d="M270.3,42.5c-0.2,0-0.3-0.3-0.3-1.2c0-5.4-2-20.3-2-22.7c0-1.2,0.8-3.1,1.5-4.4c0.2-0.4,0.6-0.9,0.8-0.9
						c0.2,0,0.3,0.3,0.3,1.4c0.2,3.9,1.3,13,1.3,19.6c0,2.6-0.2,4.9-0.6,6.2C271,41.9,270.6,42.5,270.3,42.5z"/>
					<path class="st1" d="M294.7,8.5c0,0.9-0.2,1.8-0.5,2.6c0.4,0.2,0.6,0.5,0.6,0.7c0,0.7-0.3,1.3-0.6,1.8
						c-0.1,0.1-0.1,0.1-0.2,0.1l-0.9-0.6c-0.9,1.4-2.3,3.1-4.4,4.1c-0.8,0.4-1.7,0.7-2.6,0.7c-0.5,0-0.7-0.1-0.7-0.2
						c0-0.2,0.4-0.3,1-0.7c1.5-0.9,4.5-3.1,5.5-4.5c-0.8-0.6-1.9-1.3-1.9-2.4c0-0.8,0.4-1.5,1-2.3c0.7-1,1.5-1.4,2.2-1.4
						C294.4,6.3,294.7,7.5,294.7,8.5z M291.5,9.3c0,0,0,0.1,0,0.1c0,0.2,0.8,0.8,1.4,1c0.2-0.3,0.2-0.6,0.2-1.2
						c0-0.5-0.2-0.8-0.6-0.8C292.2,8.5,291.8,8.8,291.5,9.3z"/>
					<path class="st1" d="M293.4,19.2c0.3-0.3,0.4-0.4,0.6-0.2c0.9,0.9,1.8,1.9,2.8,2.5c0.3,0.2,0.3,0.3,0,0.6
						c-0.8,0.9-1.6,1.8-2.4,2.7c-0.2,0.2-0.3,0.2-0.5,0c-0.7-0.5-1.7-1.3-2.6-2.2c-0.5,0.6-1.6,1.8-2,2.1c-0.2,0.1-0.3,0.3-0.7,0.1
						c-0.9-0.6-2.1-1.5-2.8-2.5c-0.2-0.2-0.2-0.3,0-0.6c0.7-0.8,1.6-1.9,2.5-2.7c0.2-0.2,0.3-0.2,0.6,0.1c0.7,0.7,1.9,1.8,2.6,2.2
						C292,20.7,293,19.6,293.4,19.2z"/>
					<path class="st1" d="M299.6,12.3c-1.3,0-2-1.3-2-2.7c0-0.4,0.1-0.9,0.2-1.4c0.1-0.4,0.4-1.4,0.9-1.4c0.2,0,0.4,0.4,0.4,1v0.5
						c0,0.6,0.4,1,1.1,1h0.1c0.8,0,1.4-0.6,1.6-1.7c0.1-0.5,0.4-1.9,1.1-1.9c0.2,0,0.4,0.3,0.4,1c0,0.3,0.2,0.6,0.7,0.6
						c0.8,0,1.5-0.6,1.6-1.5c0.2-1.2,0.4-1.5,0.7-1.5c0.4,0,0.6,1.2,0.6,1.9c0,0.5-0.1,1.1-0.3,1.8c-0.4,1.2-1.2,2.1-2.7,2.1
						c-0.3,0-0.6-0.1-0.8-0.2c-0.1-0.1-0.2-0.1-0.4,0.2C301.8,11.4,301,12.3,299.6,12.3z M306.6,0c0.2-0.1,0.1,0.1,0.1,0.1
						c-0.1,0.7-0.4,1.5-0.9,2.1c-0.1,0.2-0.4,0.3-0.9,0.6l-7.1,3.3c-0.1,0-0.1,0-0.1-0.1c0-0.3,0.1-0.8,0.3-1.3
						c0.3-0.6,0.4-0.8,0.5-0.9c0.1-0.1,0.3-0.2,0.6-0.4L306.6,0z"/>
					<path class="st1" d="M302.2,37.8c0.5-0.3,0.8-0.7,0.9-1.1v-0.6c0-1.6-0.7-12.7-1-17.9c0-0.3,0-0.4,0.1-0.6
						c0.2-0.5,0.7-1.9,1.5-3.3c0.2-0.3,0.3-0.4,0.4-0.4c0.1,0,0.3,0.2,0.3,0.5c0.2,1.1,0.4,4.3,0.5,8.2l0.2,4.9
						c0.2,5.4,0.7,8.1,1.3,9.3c0.7,1.3,1.5,1.9,2.5,1.9h0.6c1.1,0,1.6,0.7,1.6,2c0,1.4-0.5,2.1-1.6,2.1h-0.6c-1.2,0-2.2-0.3-3-1
						c-0.8-0.7-1.4-1.6-2.1-3.3c-0.2,1.1-0.7,2.1-1.5,3c-0.7,0.8-1.7,1.2-2.9,1.2c-1.2,0-2.3-0.4-3.1-1.4c-0.8-0.9-1.4-2.5-2-5.1
						c-0.9,2.2-2.1,3.3-4,3.3c-0.2,0-0.2,0-0.6,0c-1.2-0.1-2-0.2-2.5-0.3c-0.4-0.1-0.7-0.5-0.7-1.1c0-0.2,0-0.4,0.1-0.7
						c0.1-0.6,0.3-1.2,0.5-1.8c0.3-0.9,0.9-1.5,1.8-2.1c1.5-0.9,3.3-1.8,4.7-2.2c0-0.5,0.2-1.2,0.6-2.2c0.3-1,0.6-1.4,0.8-1.4
						c0.2,0,0.3,0.2,0.4,0.6c0.1,1.1,0.4,3.3,0.9,6.6c0.3,1.1,0.7,2,1.2,2.5c0.5,0.6,1.4,1,2.5,1C300.8,38.3,301.5,38.1,302.2,37.8z
						 M291.6,35.3c1.2,0,2-0.3,2.5-0.8l-0.3-1.9c-2.1,1-3.5,1.9-4.2,2.5C290.1,35.2,290.8,35.3,291.6,35.3z"/>
					<path class="st1" d="M322,45.7c0.2-0.1,0.2-0.1,0.2,0.1c0,1-0.4,2-0.9,2.3l-7.4,4.1c-0.1,0.1-0.2,0-0.2-0.1
						c0-0.5,0.2-1.4,0.4-1.8c0.2-0.3,0.5-0.6,1.2-1L322,45.7z"/>
					<path class="st1" d="M311.4,34.6c0-1,0.4-3,1.1-4.4c1.3-2.6,3.3-3.9,5.2-3.9c1.3,0,3.7,0.7,5,1.8c0.5,0.4,0.6,0.7,0.6,0.8
						c0,0.1-0.1,0.2-0.4,0.2c-0.7,0-1.8-0.2-2.8-0.2c-2,0-6.5,1.8-6.7,3c0.1,0.8,2.4,4.1,5.9,4.1h0.2c2.2-0.9,4.9-2,6.5-2.9
						c0.7-0.4,1.2-0.5,1.5-0.5c0.1,0,0.2,0.1,0.2,0.2c0,0.4-1,2.1-1.5,3c-0.1,0.2-0.4,0.5-0.8,0.7c-1.2,0.8-3.2,1.6-5.7,2.8
						c-2.7,1.2-8.2,3.1-10.6,3.1h-0.3c-1.2,0-1.8-0.7-1.8-2c0-1.4,0.6-2.1,1.9-2.1h0.3c0.4,0,2.1-0.1,3.7-0.5
						C312.1,37,311.4,36,311.4,34.6z"/>
				</g>
			</g>
		</g>
	</g>
	<g>
		<g>
			<g>
				<g>
					<path class="st2" d="M8.7,32.2c0,0,1.5-3,4.6-1.4c-1.3-2.1-0.6-4.8,0-5.6c1,3.4,2.8,6.3,6.9,7h2.4l-1,0c3,0,5.8-2.2,5.8-6
						s-2.3-5-3.6-5.1c-0.6,0-1.2,0.1-1.7,0.3c-1.3,0.3-2.2,1.5-2.2,2.8c0,1.6,1.4,2.9,3.1,2.9c0.6,0,1.2-0.2,1.7-0.5
						c-0.1,1.6-1.4,3-3.4,3c-2.5,0-5.5-2.5-4.3-7.5c-1.1-0.9-4.6-1.2-5.4,1.8c0,0,0,0,0,0c-0.3-0.2-0.6-0.3-1-0.3
						c-1.1,0-2.1,1.2-2.1,2.6c0,0.8,0.3,1.4,0.7,1.9c-5-0.9-9.1,4.2-9.1,4.2s0,0,0,0H8.7z M21.5,32.4l1,0h-2.4c-4,0.7-5.9,3.6-6.9,7
						c-0.6-0.8-1.3-3.5,0-5.6c-3.1,1.6-4.6-1.4-4.6-1.4H0c0,0,0,0,0,0s4,5,9,4.2c-0.4,0.5-0.6,1.1-0.6,1.8c0,1.4,0.9,2.6,2.1,2.6
						c0.4,0,0.7-0.1,1-0.4c0,0.1,0,0.1,0,0.1c0.8,3,4.2,2.8,5.4,1.8c-1.2-5,1.8-7.5,4.3-7.5c2,0,3.3,1.4,3.4,3
						c-0.5-0.3-1.1-0.5-1.7-0.5c-1.7,0-3.1,1.3-3.1,2.9c0,1.3,0.9,2.4,2.2,2.8c0.5,0.2,1.1,0.3,1.7,0.3c1.3-0.1,3.6-1.3,3.6-5.1
						C27.4,34.6,24.6,32.4,21.5,32.4z"/>
				</g>
			</g>
			<path class="st3" d="M11.7,34.8c0,0-0.1,2.2-0.2,2.7c0,0.8-0.6,1.3-1.2,1.3c-0.7,0-1.1-0.7-1.1-1.4c0-0.5,0.2-0.9,0.6-1.1
				C9.9,36.2,10.8,35.4,11.7,34.8z"/>
			<path class="st3" d="M11.4,35.2c0,0-0.1,1.3-0.1,1.5c0,0.4-0.3,0.8-0.7,0.7c-0.4,0-0.6-0.4-0.6-0.8c0-0.3,0.1-0.5,0.3-0.6
				C10.4,36,10.9,35.5,11.4,35.2z"/>
			<g>
				<g class="st4">
					<path class="st5" d="M10.1,28.6c-1.1-0.5-2.5-1.2-5.8,0.1c-1.1,0.5-2.3,1.4-2.9,2.1c-1,1,0.3,1.7,2.5,1.7
						c2.2,0,2.6-0.6,3.9-1.9C9.2,29.1,10.9,29,10.1,28.6z"/>
				</g>
			</g>
			<g class="st4">
				<g>
					<path class="st5" d="M24.7,21.5c-0.4-0.3-0.9-0.4-1.5-0.4c-0.1,0-0.2,0-0.2,0c0,0,0,0,0,0c0,0,0,0,0,0c-0.1,0-0.2,0-0.3,0
						c-0.1,0-0.3,0-0.4,0c0,0,0,0,0,0.1c-1,0.3-1.8,1-1.7,1.8c0,1,1.2,1.7,2.6,1.6c0.9,0,1.7-0.4,2.1-0.9c0.2,0.5,0.4,1.2,0.4,1.8
						c0.1,2.1-1.5,4.2-4,4.2c-1.7,0-2.6-0.1-3.9-1.2c-1.3-1.1-0.3,2.4,4.1,2.4c3.2,0,5.3-2.9,5.3-5.1C27.1,24,26.2,22.3,24.7,21.5z"
						/>
				</g>
			</g>
			<g>
				
					<ellipse transform="matrix(0.9999 -1.339453e-002 1.339453e-002 0.9999 -0.2953 0.3103)" class="st5" cx="23" cy="22.2" rx="1.8" ry="1.2"/>
			</g>
			
				<ellipse transform="matrix(0.9999 -1.348834e-002 1.348834e-002 0.9999 -0.2886 0.3108)" class="st1" cx="22.9" cy="21.5" rx="1" ry="0.5"/>
			<g>
				<path class="st5" d="M4.7,28.4c-1.2,0.4-2,1.2-1.8,1.8c0.2,0.6,1.4,0.7,2.6,0.3c1.2-0.4,2-1.2,1.8-1.8C7.1,28.1,5.9,28,4.7,28.4
					z"/>
			</g>
			<path class="st1" d="M4.9,29.4c0.7-0.2,1.1-0.6,1-0.9c-0.1-0.3-0.7-0.3-1.4-0.1c-0.7,0.2-1.1,0.6-1,0.9
				C3.7,29.6,4.3,29.6,4.9,29.4z"/>
			<g>
				<g class="st4">
					<path class="st5" d="M26.9,37.5c0-2.1-2.1-4.9-5.3-4.9c-4.1,0-5.6,2.2-4.2,2.2c1.4,0,1.3-0.9,3.7-0.9c2.3,0,4.5,2.1,4.4,4.1
						c0,0.3-0.1,0.5-0.1,0.8c-0.3-0.7-1.1-1.2-2.2-1.2c-1.3-0.1-2.4,0.6-2.5,1.5c0,0.8,0.7,1.4,1.7,1.7c0,0,0,0,0,0
						c0.1,0,0.3,0,0.4,0c0,0,0.1,0,0.1,0c0,0,0.1,0,0.1,0c0.2,0,0.4,0,0.6,0C25.8,40.7,26.9,39.4,26.9,37.5z"/>
				</g>
			</g>
			<g>
				
					<ellipse transform="matrix(0.9999 -1.340028e-002 1.340028e-002 0.9999 -0.5153 0.3119)" class="st5" cx="23" cy="38.6" rx="1.8" ry="1.2"/>
			</g>
			<g>
				<path class="st5" d="M21.5,32.6c-0.9,0-1.6,0.3-1.6,0.6c0,0.3,0.7,0.6,1.6,0.6c0.9,0,1.6-0.3,1.6-0.6
					C23.1,32.8,22.4,32.6,21.5,32.6z"/>
			</g>
			<path class="st1" d="M21.4,33.1c0.5,0,0.9-0.1,0.9-0.2s-0.4-0.2-0.9-0.2c-0.5,0-0.9,0.1-0.9,0.3C20.5,33,20.9,33.1,21.4,33.1z"/>
			
				<ellipse transform="matrix(0.9999 -1.348701e-002 1.348701e-002 0.9999 -0.5098 0.3122)" class="st1" cx="22.9" cy="38" rx="1" ry="0.5"/>
			<path class="st3" d="M16.9,22c0,0-2-1.1-3.6-0.2c-1.6,0.8-1.4,1.6-1.4,2.1c0,0.6,0.3-0.4,1.6-0.3c0.6,0,0.9,1.9,1.8,1.9
				C16.6,25.3,15.1,23.7,16.9,22z"/>
			<g>
				<path class="st5" d="M14.5,21.5c-0.9,0-1.6,0.3-1.6,0.7c0,0.4,0.7,0.6,1.6,0.6c0.9,0,1.6-0.3,1.6-0.7
					C16.1,21.8,15.4,21.5,14.5,21.5z"/>
			</g>
			<path class="st1" d="M14.4,22c0.5,0,0.9-0.1,0.9-0.3c0-0.2-0.4-0.3-0.9-0.3c-0.5,0-0.9,0.1-0.9,0.3C13.5,21.9,13.9,22.1,14.4,22z
				"/>
			
				<ellipse transform="matrix(4.954097e-002 -0.9988 0.9988 4.954097e-002 -15.5972 34.1085)" class="st3" cx="10.1" cy="25.2" rx="1.8" ry="1.5"/>
			<g>
				<path class="st5" d="M10.1,23.5c-0.6,0-1,0.5-1,1.1c0,0.6,0.5,1.1,1.1,1c0.6,0,1-0.5,1-1.1C11.2,24,10.7,23.5,10.1,23.5z"/>
			</g>
			
				<ellipse transform="matrix(1 -9.864655e-003 9.864655e-003 1 -0.2352 0.1006)" class="st1" cx="10.1" cy="23.9" rx="0.5" ry="0.4"/>
		</g>
		<g>
			<g>
				<g>
					<path class="st2" d="M350.3,32.1l-1,0h2.4c4-0.7,5.9-3.6,6.9-7c0.6,0.8,1.3,3.5,0,5.6c3.1-1.6,4.6,1.4,4.6,1.4h8.7c0,0,0,0,0,0
						s-4.1-5.1-9.1-4.2c0.4-0.5,0.7-1.1,0.7-1.9c0-1.4-0.9-2.6-2.1-2.6c-0.4,0-0.7,0.1-1,0.3c0,0,0,0,0,0c-0.8-3-4.2-2.8-5.4-1.8
						c1.2,5-1.8,7.5-4.3,7.5c-2,0-3.3-1.4-3.4-3c0.5,0.3,1.1,0.5,1.7,0.5c1.7,0,3.1-1.3,3.1-2.9c0-1.3-1-2.4-2.2-2.8
						c-0.5-0.2-1.1-0.3-1.7-0.3c-1.3,0.1-3.6,1.3-3.6,5.1S347.2,32.1,350.3,32.1z M363.1,32.4c0,0-1.5,3-4.6,1.4
						c1.3,2.1,0.6,4.8,0,5.6c-1-3.4-2.8-6.3-6.9-7h-2.4l1,0c-3,0-5.8,2.2-5.8,6c0,3.8,2.3,5,3.6,5.1c0.6,0,1.2-0.1,1.7-0.3
						c1.3-0.3,2.2-1.5,2.2-2.8c0-1.6-1.4-2.9-3.1-2.9c-0.6,0-1.2,0.2-1.7,0.5c0.1-1.6,1.4-3,3.4-3c2.5,0,5.5,2.5,4.3,7.5
						c1.1,0.9,4.6,1.2,5.4-1.8c0,0,0,0,0-0.1c0.3,0.2,0.7,0.4,1,0.4c1.1,0,2.1-1.2,2.1-2.6c0-0.7-0.2-1.3-0.6-1.8c5,0.8,9-4.2,9-4.2
						s0,0,0,0H363.1z"/>
				</g>
			</g>
			<path class="st3" d="M360.2,34.8c0,0,0.1,2.2,0.2,2.7c0,0.8,0.6,1.3,1.2,1.3c0.6,0,1.1-0.7,1.1-1.4c0-0.5-0.2-0.9-0.6-1.1
				C361.9,36.2,361,35.4,360.2,34.8z"/>
			<path class="st3" d="M360.4,35.2c0,0,0.1,1.3,0.1,1.5c0,0.4,0.3,0.8,0.7,0.7c0.4,0,0.6-0.4,0.6-0.8c0-0.3-0.1-0.5-0.3-0.6
				C361.4,36,360.9,35.5,360.4,35.2z"/>
			<g>
				<g class="st4">
					<path class="st5" d="M370.5,30.7c-0.7-0.7-1.8-1.6-2.9-2.1c-3.3-1.3-4.7-0.6-5.8-0.1c-0.8,0.4,0.9,0.5,2.4,2
						c1.3,1.3,1.8,1.9,3.9,1.9C370.1,32.5,371.4,31.7,370.5,30.7z"/>
				</g>
			</g>
			<g class="st4">
				<g>
					<path class="st5" d="M354.2,28.4c-1.3,1.1-2.2,1.2-3.9,1.2c-2.5,0-4.1-2.1-4-4.2c0-0.7,0.2-1.3,0.4-1.8
						c0.4,0.5,1.2,0.9,2.1,0.9c1.4,0.1,2.5-0.7,2.6-1.6c0-0.8-0.7-1.5-1.7-1.8c0,0,0,0,0-0.1c-0.1,0-0.3,0-0.4,0c-0.1,0-0.2,0-0.3,0
						c0,0,0,0,0,0c0,0,0,0,0,0c-0.1,0-0.2,0-0.2,0c-0.6,0-1.1,0.2-1.5,0.4c-1.5,0.8-2.3,2.5-2.3,4.1c0,2.2,2.1,5.1,5.3,5.1
						C354.5,30.8,355.5,27.3,354.2,28.4z"/>
				</g>
			</g>
			<g>
				
					<ellipse transform="matrix(1.382376e-002 -0.9999 0.9999 1.382376e-002 321.7735 370.6556)" class="st5" cx="348.8" cy="22.2" rx="1.2" ry="1.8"/>
			</g>
			
				<ellipse transform="matrix(1.348834e-002 -0.9999 0.9999 1.348834e-002 322.6694 370.1456)" class="st1" cx="348.9" cy="21.5" rx="0.5" ry="1"/>
			<g>
				<path class="st5" d="M367.1,28.4c1.2,0.4,2,1.2,1.8,1.8c-0.2,0.6-1.4,0.7-2.6,0.3c-1.2-0.4-2-1.2-1.8-1.8
					C364.7,28.1,365.9,28,367.1,28.4z"/>
			</g>
			<path class="st1" d="M366.9,29.4c-0.7-0.2-1.1-0.6-1-0.9c0.1-0.3,0.7-0.3,1.4-0.1c0.7,0.2,1.1,0.6,1,0.9
				C368.2,29.6,367.5,29.6,366.9,29.4z"/>
			<g>
				<g class="st4">
					<path class="st5" d="M350.2,32.6c-3.2,0-5.3,2.8-5.3,4.9c0,1.9,1.1,3.1,3.4,3.3c0.2,0,0.4,0,0.6,0c0,0,0.1,0,0.1,0
						c0,0,0.1,0,0.1,0c0.1,0,0.3,0,0.4,0c0,0,0,0,0,0c1-0.2,1.7-0.9,1.7-1.7c0-0.9-1.2-1.6-2.5-1.5c-1,0.1-1.9,0.6-2.2,1.2
						c0-0.2-0.1-0.5-0.1-0.8c-0.1-2,2.1-4.1,4.4-4.1c2.4,0,2.4,0.9,3.7,0.9C355.8,34.8,354.3,32.6,350.2,32.6z"/>
				</g>
			</g>
			<g>
				
					<ellipse transform="matrix(1.382970e-002 -0.9999 0.9999 1.382970e-002 305.365 386.8365)" class="st5" cx="348.8" cy="38.6" rx="1.2" ry="1.8"/>
			</g>
			<g>
				<path class="st5" d="M350.3,32.6c0.9,0,1.6,0.3,1.6,0.6s-0.7,0.6-1.6,0.6c-0.9,0-1.6-0.3-1.6-0.6
					C348.7,32.8,349.4,32.6,350.3,32.6z"/>
			</g>
			<path class="st1" d="M350.4,33.1c-0.5,0-0.9-0.1-0.9-0.2c0-0.1,0.4-0.2,0.9-0.2c0.5,0,0.9,0.1,0.9,0.3
				C351.3,33,350.9,33.1,350.4,33.1z"/>
			
				<ellipse transform="matrix(1.348701e-002 -0.9999 0.9999 1.348701e-002 306.2641 386.3316)" class="st1" cx="348.9" cy="38" rx="0.5" ry="1"/>
			<path class="st3" d="M354.9,22c0,0,2-1.1,3.6-0.2c1.6,0.8,1.4,1.6,1.4,2.1c0,0.6-0.3-0.4-1.6-0.3c-0.6,0-0.9,1.9-1.8,1.9
				C355.2,25.3,356.8,23.7,354.9,22z"/>
			<g>
				<path class="st5" d="M357.4,21.5c0.9,0,1.6,0.3,1.6,0.7c0,0.4-0.7,0.6-1.6,0.6c-0.9,0-1.6-0.3-1.6-0.7
					C355.7,21.8,356.5,21.5,357.4,21.5z"/>
			</g>
			<path class="st1" d="M357.5,22c-0.5,0-0.9-0.1-0.9-0.3c0-0.2,0.4-0.3,0.9-0.3c0.5,0,0.9,0.1,0.9,0.3
				C358.3,21.9,357.9,22.1,357.5,22z"/>
			
				<ellipse transform="matrix(0.9988 -4.982531e-002 4.982531e-002 0.9988 -0.8088 18.0527)" class="st3" cx="361.7" cy="25.2" rx="1.5" ry="1.8"/>
			<g>
				<path class="st5" d="M361.7,23.5c0.6,0,1,0.5,1,1.1c0,0.6-0.5,1.1-1.1,1c-0.6,0-1-0.5-1-1.1C360.6,24,361.1,23.5,361.7,23.5z"/>
			</g>
			
				<ellipse transform="matrix(8.491202e-003 -1 1 8.491202e-003 334.7656 385.4059)" class="st1" cx="361.7" cy="23.9" rx="0.4" ry="0.5"/>
		</g>
	</g>
</g>
</svg>
