<?xml version="1.0" encoding="utf-8"?>
<!-- Generator: Adobe Illustrator 16.0.0, SVG Export Plug-In . SVG Version: 6.00 Build 0)  -->
<!DOCTYPE svg PUBLIC "-//W3C//DTD SVG 1.1//EN" "http://www.w3.org/Graphics/SVG/1.1/DTD/svg11.dtd">
<svg version="1.1" id="Layer_1" xmlns="http://www.w3.org/2000/svg" xmlns:xlink="http://www.w3.org/1999/xlink" x="0px" y="0px"
	 width="669.14px" height="175.114px" viewBox="-95.241 444.012 669.14 175.114"
	 enable-background="new -95.241 444.012 669.14 175.114" xml:space="preserve">
<g>
	<g opacity="0.6">
		<g>
			<path fill="#EFE6E2" d="M-23.506,619.126c-39.579,0-71.735-32.158-71.735-71.735v-31.645c0-39.578,32.157-71.734,71.735-71.734
				h525.669c39.577,0,71.735,32.156,71.735,71.734v31.233c0,39.577-32.158,71.733-71.735,71.733H-23.506V619.126z"/>
		</g>
	</g>
	<g>
		<path fill="#235958" d="M92.827,549.068l-2.418,15.718H40.836c-3.591,0-6.613-1.355-9.067-4.066
			c-2.456-2.711-3.683-5.826-3.683-9.343c0-2.271,0.513-5.313,1.539-9.123c1.245-4.396,2.528-7.07,3.848-8.023
			c0.805,0,1.209,0.367,1.209,1.099c0,0.879-0.221,2.217-0.66,4.012c-0.439,1.797-0.659,3.133-0.659,4.012
			c0,2.492,0.86,4.672,2.583,6.54c1.721,1.869,3.864,2.803,6.43,2.803h43.087c0.072-0.072,0.109-0.22,0.109-0.439
			c0-0.879-0.22-2.088-0.659-3.627c-0.514-1.831-1.063-2.894-1.648-3.188c-2.347,3.517-5.716,5.275-10.112,5.275
			c-2.566,0-4.874-0.621-6.925-1.868c-2.492-1.392-3.737-3.26-3.737-5.605c0-3.518,2.089-7.565,6.266-12.146
			c4.177-4.579,7.985-6.87,11.431-6.87c3.298,0,6.411,3.371,9.343,10.112C92.313,540.569,93.412,545.479,92.827,549.068z
			 M73.921,518.732c0,1.318-2.712,3.444-8.134,6.375c-5.276-3.224-7.914-5.313-7.914-6.266c0-0.512,1.171-1.904,3.518-4.177
			c2.344-2.271,3.809-3.407,4.396-3.407c0.292,0,1.721,1.192,4.286,3.572C72.638,517.211,73.921,518.512,73.921,518.732z
			 M80.077,538.955c-0.514-0.879-1.319-1.868-2.419-2.968c-1.318-1.171-2.382-1.758-3.188-1.758c-1.246,0-2.455,0.917-3.627,2.747
			c1.905,1.833,3.663,2.748,5.276,2.748C75.9,539.725,77.218,539.469,80.077,538.955z"/>
		<path fill="#235958" d="M122.668,504.965c0,2.126-0.843,4.141-2.528,6.045c-1.687,1.907-3.555,2.858-5.605,2.858
			c-1.173,0-2.088-0.512-2.747-1.539c-0.66-1.025-0.989-2.124-0.989-3.297c0-2.051,0.621-4.14,1.868-6.266
			c1.391-2.418,3.004-3.627,4.836-3.627c0.586,0,1.136,0.073,1.648,0.22C121.496,501.558,122.668,503.426,122.668,504.965z
			 M120.031,506.065c0-0.586-0.403-1.154-1.209-1.704c-0.808-0.55-1.503-0.824-2.089-0.824c-0.879,0-1.758,0.423-2.638,1.264
			c-0.879,0.844-1.319,1.704-1.319,2.583c0,1.394,0.88,2.089,2.639,2.089c0.806,0,1.775-0.385,2.912-1.154
			C119.462,507.548,120.031,506.798,120.031,506.065z"/>
		<path fill="#235958" d="M140.639,564.785h-8.024c-1.026,0-2.456-0.439-4.286-1.319l-0.55,0.66
			c-2.272,3.957-4.544,7.949-6.814,11.98c-3.371,4.763-7.072,7.145-11.102,7.145c-2.712,0-6.649-1.283-11.815-3.848
			c-5.166-2.565-8.738-4.945-10.717-7.144v-1.43c0-0.147,0.184-0.22,0.55-0.22c-0.221,0,0.989,0.731,3.627,2.198
			c2.638,1.465,4.982,2.198,7.034,2.198c3.149,0,7.767-2.033,13.85-6.1c6.081-4.067,9.123-7.382,9.123-9.947
			c0-1.245-1.063-3.243-3.188-5.99c-2.126-2.748-3.188-4.194-3.188-4.342c0-0.439,0.896-2.125,2.693-5.057
			c1.795-2.93,2.985-4.762,3.572-5.495c2.198,3.297,4.396,6.595,6.595,9.893c2.49,3.151,6.008,4.726,10.552,4.726h2.089V564.785z"/>
		<path fill="#235958" d="M167.595,479.823c-0.22,2.126-2.712,4.909-7.475,8.353c-3.445,2.272-6.853,4.545-10.222,6.815
			c0-1.831,0.585-3.26,1.759-4.287c1.83-1.61,4.433-3.479,7.804-5.605C164.15,482.095,166.862,480.336,167.595,479.823z"/>
		<path fill="#235958" d="M217.468,524.117c-0.294,0.587-1.907,2.565-4.837,5.936c-2.565,3.151-3.847,4.983-3.847,5.495
			l1.319,14.179c0.071,0.588-0.148,1.906-0.66,3.957c-2.346,8.793-4.435,14.399-6.265,16.817c-0.953,1.245-4.396,2.674-10.332,4.286
			c-5.496,1.392-9.381,2.089-11.651,2.089c-5.203,0-7.804-2.492-7.804-7.475c0-1.612,0.292-3.517,0.88-5.716
			c0.585-1.83,1.171-3.663,1.758-5.495c-0.879-0.292-1.723-0.439-2.527-0.439c-3.518,0-7.694,1.173-12.53,3.517
			c-4.837,2.347-7.658,3.518-8.464,3.518h-17.036v-12.091h20.334c2.344,0,4.542-0.476,6.595-1.429
			c-6.01-3.737-10.59-5.605-13.739-5.605c-2.492,0-5.094,0.879-7.804,2.638l-0.22-0.329c4.542-9.159,9.524-13.739,14.948-13.739
			c3.004,0,6.301,0.879,9.892,2.638c3.078,1.687,6.118,3.335,9.123,4.946c8.134,4.03,15.131,6.412,20.994,7.144
			c-1.613,2.272-4.067,5.606-7.364,10.003l-0.44,0.109l-7.034-0.879c-0.073,0.22-0.109,0.478-0.109,0.77
			c0,2.857,1.648,4.286,4.945,4.286c4.763,0,10.515-1.574,17.257-4.726v-0.66c0.072-3.149-0.367-8.279-1.319-15.388
			c-0.953-7.106-1.832-12.091-2.638-14.948c-1.099-0.806-2.271-1.904-3.517-3.298c3.956-7.985,6.814-12.236,8.573-12.75
			c0,1.1,0.329,2.676,0.989,4.727C206.109,517.89,210.286,520.528,217.468,524.117z"/>
		<path fill="#235958" d="M237.691,546.98c0,7.474-2.126,13.703-6.375,18.685l-4.946-35.392c1.392-4.029,4.103-8.829,8.134-14.399
			C236.627,530.162,237.691,540.532,237.691,546.98z"/>
		<path fill="#235958" d="M296.383,481.91c0,0.147-0.403,0.989-1.209,2.528c-0.514-0.292-1.393-0.659-2.638-1.1
			c-1.467,2.492-3.556,4.801-6.266,6.925c-3.077,2.418-5.789,3.627-8.134,3.627c2.711-2.27,6.596-5.897,11.651-10.881
			c-1.1-0.22-2.144-0.476-3.133-0.77c-0.989-0.292-1.483-1.281-1.483-2.968c0-1.685,0.714-3.479,2.144-5.386
			c1.429-1.904,2.948-2.857,4.561-2.857c1.905,0,2.858,1.502,2.858,4.506c0,0.808-0.258,2.162-0.77,4.067
			c0.806,0.293,1.429,0.549,1.868,0.77C296.2,481.031,296.383,481.545,296.383,481.91z M292.207,479.383v-2.748
			c0-0.366-0.238-0.77-0.714-1.209c-0.478-0.44-0.862-0.66-1.154-0.66c-0.514,0-1.1,0.294-1.759,0.88
			c-0.659,0.587-0.989,1.137-0.989,1.648C287.59,478.247,289.129,478.943,292.207,479.383z"/>
		<path fill="#235958" d="M295.174,515.324c-0.514,0.879-1.576,2.271-3.188,4.177c-1.832,2.126-2.968,3.188-3.407,3.188
			c-0.953,0-3.957-1.539-9.013-4.617c-0.733,0.514-2.418,1.979-5.057,4.396c-2.198-0.659-5.239-2.234-9.122-4.726
			c0.659-0.88,2.819-3.334,6.484-7.364c4.249,3.077,6.997,4.616,8.244,4.616c-0.074,0,1.868-1.539,5.825-4.616L295.174,515.324z
			 M314.959,564.785h-11.321c-2.346,0-4.141-1.391-5.386-4.177c-0.733-2.345-1.467-4.688-2.198-7.034
			c-0.514,0.367-1.613,2.088-3.298,5.166c-1.539,2.638-2.785,3.847-3.737,3.627l-19.895-3.518c1.611-6.447,3.078-10.881,4.397-13.3
			c1.318-2.418,3.369-4.506,6.154-6.265c3.957-2.271,7.95-4.543,11.981-6.814c-0.514-1.172-0.88-2.271-1.1-3.298l6.595-11.321
			l0.55,0.33c0.659,2.565,1.685,8.062,3.077,16.487c1.245,7.254,2.381,12.42,3.408,15.498c0.585,1.687,2.308,2.527,5.166,2.527
			h5.605V564.785z M294.845,548.078l-1.979-9.673c-0.953,1.394-2.603,3.188-4.946,5.387c-1.173,0.513-2.566,1.466-4.177,2.857
			L294.845,548.078z"/>
		<path fill="#235958" d="M341.998,479.162c-0.22,2.126-2.712,4.909-7.475,8.353c-3.445,2.272-6.853,4.545-10.222,6.815
			c0-1.831,0.585-3.26,1.759-4.287c1.83-1.61,4.433-3.479,7.804-5.605C338.552,481.434,341.264,479.675,341.998,479.162z"/>
		<path fill="#235958" d="M350.9,510.818c-0.807,3.665-1.868,7.694-3.188,12.091c-5.204,1.538-13.008,3.885-23.411,7.034
			c4.248,3.445,8.535,6.889,12.859,10.332c6.375,5.495,9.563,9.343,9.563,11.541c0,1.099-1.173,5.424-3.518,12.97h-34.293v-12.091
			h27.479l-12.311-9.452c-0.367,0.879-0.989,1.318-1.868,1.318c-0.733,0-2.418-1.373-5.056-4.121
			c-2.639-2.748-3.957-4.452-3.957-5.111c0-1.759,0.401-4.139,1.209-7.145c0.586-2.344,1.171-4.727,1.759-7.145L350.9,510.818z"/>
		<path fill="#235958" d="M384.093,499.658c-0.22,2.126-2.712,4.909-7.475,8.353c-3.445,2.272-6.853,4.545-10.222,6.815
			c0-1.831,0.585-3.26,1.759-4.287c1.83-1.61,4.433-3.479,7.804-5.605C380.648,501.93,383.36,500.171,384.093,499.658z"/>
		<path fill="#235958" d="M399.151,564.785h-8.024c-1.026,0-2.456-0.439-4.286-1.319l-0.55,0.66
			c-2.272,3.957-4.544,7.949-6.814,11.98c-3.371,4.763-7.072,7.145-11.102,7.145c-2.712,0-6.649-1.283-11.815-3.848
			c-5.166-2.565-8.738-4.945-10.717-7.144v-1.43c0-0.147,0.184-0.22,0.55-0.22c-0.221,0,0.989,0.731,3.627,2.198
			c2.638,1.465,4.982,2.198,7.034,2.198c3.149,0,7.767-2.033,13.85-6.1c6.081-4.067,9.123-7.382,9.123-9.947
			c0-1.245-1.063-3.243-3.188-5.99c-2.126-2.748-3.188-4.194-3.188-4.342c0-0.439,0.896-2.125,2.693-5.057
			c1.795-2.93,2.985-4.762,3.572-5.495c2.198,3.297,4.396,6.595,6.595,9.893c2.49,3.151,6.008,4.726,10.552,4.726h2.089V564.785z"/>
		<path fill="#235958" d="M438.555,497.073c-0.22,2.126-2.712,4.909-7.475,8.353c-3.445,2.272-6.853,4.545-10.222,6.815
			c0-1.831,0.585-3.26,1.759-4.287c1.83-1.61,4.433-3.479,7.804-5.605C435.11,499.344,437.822,497.585,438.555,497.073z"/>
		<path fill="#235958" d="M457.294,548.518l-7.364,10.552c-10.406-0.731-15.938-1.099-16.598-1.099
			c-2.932,0-6.504,1.137-10.717,3.407c-4.214,2.272-7.163,3.407-8.848,3.407h-18.575v-12.091h19.564
			c2.418,0,5.422-0.585,9.013-1.759l-0.109-0.329c-6.669-3.59-11.102-5.386-13.3-5.386c-1.612,0-3.061,0.293-4.342,0.879
			c-1.283,0.588-2.547,1.247-3.792,1.979c5.128-9.379,10.038-14.069,14.729-14.069c3.663,0,8.354,1.503,14.069,4.507
			c7.326,3.811,11.942,6.009,13.849,6.595C447.583,545.99,451.724,547.127,457.294,548.518z"/>
	</g>
</g>
</svg>
