<?xml version="1.0" encoding="utf-8"?>
<!-- Generator: Adobe Illustrator 23.0.2, SVG Export Plug-In . SVG Version: 6.00 Build 0)  -->
<svg version="1.1" id="Layer_1" xmlns="http://www.w3.org/2000/svg" xmlns:xlink="http://www.w3.org/1999/xlink" x="0px" y="0px"
	 viewBox="0 0 36.6 28.6" style="enable-background:new 0 0 36.6 28.6;" xml:space="preserve">
<style type="text/css">
	.st0{fill:#FFFFFF;}
</style>
<g>
	<g>
		<g>
			<g>
				<path class="st0" d="M16.3,22H9.4c-0.4,0-0.6-0.3-0.6-0.6s0.3-0.6,0.6-0.6h6.9c0.5,0,0.9-0.1,1.1-0.4c0.2-0.2,0.3-0.5,0.3-0.9
					v-5.2c0-0.4,0.3-0.6,0.6-0.6s0.6,0.3,0.6,0.6v5.2c0,0.7-0.3,1.4-0.7,1.9C18,21.5,17.3,22,16.3,22z"/>
			</g>
		</g>
	</g>
	<g>
		<g>
			<g>
				<path class="st0" d="M18.4,21.4c-0.4-0.5-0.7-1.2-0.7-1.9v-5.2c0-0.3,0.3-0.6,0.6-0.6s0.6,0.2,0.6,0.6v5.2
					c0,0.4,0.1,0.7,0.3,0.9c0.2,0.3,0.6,0.4,1.1,0.4h6.9c0.3,0,0.6,0.3,0.6,0.6S27.6,22,27.2,22h-6.9C19.3,22,18.6,21.5,18.4,21.4z"
					/>
			</g>
		</g>
	</g>
	<g>
		<circle class="st0" cx="18.4" cy="7.6" r="1"/>
		<g>
			<path class="st0" d="M17.1,11.4c0.6,0,1-0.5,1-1c0-0.6-0.5-1-1-1s-1,0.5-1,1C16.1,11,16.5,11.4,17.1,11.4"/>
			<path class="st0" d="M19.6,11.4c0.6,0,1-0.5,1-1c0-0.6-0.5-1-1-1s-1,0.5-1,1C18.6,11,19,11.4,19.6,11.4"/>
		</g>
	</g>
</g>
</svg>
