<?xml version="1.0" encoding="utf-8"?>
<!-- Generator: Adobe Illustrator 23.0.2, SVG Export Plug-In . SVG Version: 6.00 Build 0)  -->
<svg version="1.1" id="Layer_1" xmlns="http://www.w3.org/2000/svg" xmlns:xlink="http://www.w3.org/1999/xlink" x="0px" y="0px"
	 viewBox="0 0 36.6 28.6" style="enable-background:new 0 0 36.6 28.6;" xml:space="preserve">
<style type="text/css">
	.st0{fill:#FFFFFF;}
</style>
<g>
	<g>
		<g>
			<g>
				<path class="st0" d="M20.8,22h-6.9c-0.4,0-0.6-0.3-0.6-0.6c0-0.4,0.3-0.6,0.6-0.6h6.9c0.1,0,0.7,0,1-0.4
					c0.2-0.2,0.3-0.5,0.3-0.9v-5.2c0-0.4,0.3-0.6,0.6-0.6s0.6,0.3,0.6,0.6v5.2c0,0.7-0.3,1.4-0.7,1.9C22.1,22,21.1,22,20.8,22z"/>
			</g>
		</g>
	</g>
	<path class="st0" d="M20.6,8.6c0.6,0,1-0.5,1-1c0-0.6-0.5-1-1-1s-1,0.5-1,1C19.6,8.2,20,8.6,20.6,8.6"/>
	<g>
		<path class="st0" d="M19.4,11.5c0.6,0,1-0.5,1-1c0-0.6-0.5-1-1-1s-1,0.5-1,1C18.4,11.1,18.8,11.5,19.4,11.5"/>
		<path class="st0" d="M21.9,11.5c0.6,0,1-0.5,1-1c0-0.6-0.5-1-1-1s-1,0.5-1,1C20.9,11.1,21.3,11.5,21.9,11.5"/>
	</g>
</g>
</svg>
