<?xml version="1.0" encoding="utf-8"?>
<!-- Generator: Adobe Illustrator 22.1.0, SVG Export Plug-In . SVG Version: 6.00 Build 0)  -->
<svg version="1.1" id="Layer_1" xmlns="http://www.w3.org/2000/svg" xmlns:xlink="http://www.w3.org/1999/xlink" x="0px" y="0px"
	 viewBox="0 0 1024 459.3" style="enable-background:new 0 0 1024 459.3;" xml:space="preserve">
<style type="text/css">
	.st0{fill:#429DA0;}
</style>
<g>
	<path class="st0" d="M310.1,297l-10.2,68.8H48.3c-2.9,0-8.8-1.5-17.6-4.4c-10.2-2.9-17.6-10.2-23.4-21.9c-4.4-10.2-7.3-19-7.3-27.8
		c0-16.1,4.4-35.1,13.2-60c1.5-2.9,4.4-5.9,8.8-8.8c1.5,0,4.4,1.5,5.9,2.9c0,1.5-1.5,7.3-4.4,14.6c-1.5,5.9-2.9,11.7-2.9,17.6
		c0,5.9,1.5,11.7,2.9,16.1c1.5,2.9,5.9,8.8,11.7,14.6c7.3,5.9,13.2,8.8,17.6,8.8h229.7c0,0,0-1.5,0-4.4c0-7.3-2.9-17.6-7.3-30.7
		c-1.5-2.9-2.9-5.9-5.9-8.8c-11.7,13.2-20.5,20.5-26.3,23.4c-2.9,1.5-10.2,1.5-20.5,1.5c-10.2,0-20.5-2.9-29.3-7.3
		c-11.7-5.9-17.6-14.6-17.6-24.9c0-14.6,8.8-30.7,27.8-49.7c19-19,35.1-29.3,49.7-29.3c13.2,0,24.9,11.7,35.1,32.2
		c7.3,14.6,13.2,27.8,16.1,41C307.2,273.6,308.7,285.3,310.1,297z M235.5,149.2c-4.4,4.4-14.6,14.6-29.3,27.8
		c-14.6-10.2-24.9-19-32.2-26.3l29.3-29.3L235.5,149.2z M258.9,254.5c-13.2-17.6-23.4-26.3-32.2-26.3c-7.3,0-14.6,5.9-20.5,16.1
		c13.2,8.8,23.4,13.2,30.7,13.2C241.4,257.5,250.1,256,258.9,254.5z"/>
	<path class="st0" d="M447.6,118.5c0,8.8-1.5,16.1-5.9,21.9c-7.3,10.2-16.1,16.1-26.3,19c-1.5,0-2.9,0-5.9,0
		c-5.9,0-10.2-1.5-13.2-4.4s-4.4-5.9-5.9-10.2c0-1.5,0-4.4,0-7.3c0-16.1,5.9-29.3,16.1-41c0,0,4.4-2.9,11.7-5.9c0,0,1.5,0,4.4,0
		s4.4,0,5.9,0c2.9,0,7.3,2.9,10.2,7.3c4.4,4.4,5.9,8.8,7.3,13.2C446.2,112.6,447.6,115.6,447.6,118.5z M428.6,115.6
		c-4.4-2.9-7.3-4.4-10.2-4.4s-4.4,1.5-7.3,2.9c-7.3,4.4-10.2,10.2-10.2,16.1c0,2.9,1.5,5.9,4.4,7.3s5.9,2.9,7.3,2.9s2.9,0,5.9-1.5
		c5.9-1.5,10.2-5.9,14.6-10.2l1.5-4.4C434.5,121.4,433,118.5,428.6,115.6z"/>
	<path class="st0" d="M525.2,365.7h-39.5c-2.9,0-7.3-2.9-11.7-8.8c-2.9,16.1-11.7,36.6-27.8,58.5c-19,29.3-39.5,43.9-58.5,43.9
		c-10.2,0-27.8-5.9-51.2-16.1c-23.4-10.2-38-19-42.4-24.9V414c1.5-1.5,1.5-1.5,4.4-1.5c1.5,0,7.3,2.9,19,7.3
		c11.7,4.4,20.5,7.3,26.3,7.3c16.1,0,36.6-10.2,62.9-32.2c26.3-21.9,39.5-38,39.5-49.7c0-8.8-10.2-23.4-29.3-45.3l24.9-41
		c24.9,30.7,46.8,51.2,70.2,60h13.2L525.2,365.7L525.2,365.7z"/>
	<path class="st0" d="M665.6,0c0,10.2-5.9,19-16.1,26.3c-8.8,5.9-19,11.7-27.8,17.6c-8.8,5.9-21.9,14.6-39.5,26.3
		c1.5-4.4,2.9-11.7,7.3-20.5C605.6,41,632,23.4,665.6,0z"/>
	<path class="st0" d="M912.8,185.8c0,1.5-5.9,7.3-16.1,21.9c-10.2,13.2-16.1,21.9-16.1,26.3l8.8,76.1c0,2.9-1.5,10.2-4.4,23.4
		c-1.5,11.7-4.4,20.5-7.3,27.8c-1.5,2.9-2.9,4.4-5.9,4.4H744.6c-1.5-8.8-4.4-20.5-7.3-35.1c-4.4-1.5-16.1-1.5-33.6-1.5
		c-14.6,0-24.9,0-30.7,1.5c-4.4,1.5-13.2,5.9-26.3,13.2c-16.1,10.2-26.3,16.1-32.2,17.6c-4.4,4.4-7.3,4.4-10.2,4.4h-96.5v-46.8
		h106.8c2.9,0,7.3-1.5,14.6-2.9c7.3-2.9,17.6-7.3,30.7-14.6c-4.4-1.5-11.7-4.4-21.9-8.8c-5.9-1.5-19-5.9-38-11.7c-1.5,0-4.4,0-8.8,0
		c-5.9,0-11.7,1.5-17.6,2.9c-2.9,1.5-8.8,4.4-17.6,8.8v-4.4c0-1.5,2.9-5.9,8.8-17.6c2.9-5.9,7.3-11.7,14.6-19
		c8.8-8.8,16.1-14.6,21.9-16.1s11.7-2.9,16.1-2.9c8.8,0,16.1,1.5,20.5,2.9c16.1,7.3,42.4,19,76.1,32.2c24.9,7.3,48.3,11.7,68.8,11.7
		c0,1.5-2.9,13.2-10.2,36.6h84.8c1.5-2.9,2.9-5.9,2.9-10.2s-1.5-16.1-5.9-38c-2.9-14.6-8.8-38-14.6-68.8c0-2.9-2.9-7.3-5.9-10.2
		l-10.2-8.8c5.9-11.7,16.1-29.3,30.7-52.7c-1.5,10.2,2.9,19,10.2,24.9c2.9,2.9,13.2,8.8,29.3,17.6
		C905.5,179.9,912.8,184.3,912.8,185.8z"/>
	<path class="st0" d="M1024,279.4c0,35.1-7.3,62.9-23.4,87.8l-21.9-181.4c0-2.9,4.4-13.2,14.6-29.3c8.8-13.2,14.6-23.4,19-29.3
		L1024,279.4z"/>
</g>
</svg>
