<?xml version="1.0" encoding="utf-8"?>
<!-- Generator: Adobe Illustrator 19.2.0, SVG Export Plug-In . SVG Version: 6.00 Build 0)  -->
<svg version="1.1" id="Layer_1" xmlns="http://www.w3.org/2000/svg" xmlns:xlink="http://www.w3.org/1999/xlink" x="0px" y="0px"
	 viewBox="0 0 66.5 62" style="enable-background:new 0 0 66.5 62;" xml:space="preserve">
<style type="text/css">
	.st0{fill:none;}
</style>
<g>
	<g>
		<g>
			<path d="M38.1,38.8c0.2,0,0.3,0,0.3,0.1c0,0.2-0.4,0.4-0.8,0.5c-1.3,0.6-3.3,1.4-5.5,1.4c-3.8,0-6.5-2-6.5-6c0-3.8,2-7.1,4.6-8.1
				c-0.7-0.2-1.3-0.2-1.8-0.2c-0.9,0-1.5,0.2-2,0.4c-0.4,0.2-0.5,0.2-0.6,0.2c-0.1,0-0.1,0-0.1-0.1c0-0.2,0.4-1.2,0.8-1.5
				c0.6-0.6,1.5-0.8,2.4-0.8c1.8,0,3.6,0.6,5.4,0.6c0.8,0,1.4-0.1,1.8-0.1c0.3,0,0.3,0,0.3,0.1c0,0.4-0.8,1.7-1.1,1.7
				c-1.2,0-2.5,0.2-3.8,0.6c-3.8,1.3-5.1,4.4-5.1,6.1c0,2.8,1.4,5.3,8,5.3C36.5,39,37.7,38.8,38.1,38.8z M33.7,32.9
				c0.1,0,0.1,0.1,0,0.2c-0.2,0.3-0.9,1.1-1.2,1.4c-0.1,0.1-0.1,0.1-0.2,0c-0.4-0.2-1.3-0.9-1.5-1.2c-0.1-0.1-0.1-0.1,0-0.2
				c0.3-0.4,0.8-1,1.1-1.3c0.2-0.2,0.2-0.2,0.3-0.1C32.4,32,33.1,32.5,33.7,32.9z"/>
		</g>
	</g>
	<rect class="st0" width="66.5" height="62"/>
</g>
</svg>
