<?xml version="1.0" encoding="utf-8"?>
<!-- Generator: Adobe Illustrator 19.2.0, SVG Export Plug-In . SVG Version: 6.00 Build 0)  -->
<svg version="1.1" id="Layer_1" xmlns="http://www.w3.org/2000/svg" xmlns:xlink="http://www.w3.org/1999/xlink" x="0px" y="0px"
	 viewBox="0 0 243.3 62.3" style="enable-background:new 0 0 243.3 62.3;" xml:space="preserve">
<style type="text/css">
	.st0{fill:#F5712E;}
	.st1{fill:none;}
</style>
<g>
	<g>
		<g>
			<path d="M50.7,42.6c0,0.1-0.1,0.1-0.2,0.1c-0.4,0-1.1-0.4-1.9-1.1c-0.6-0.5-1.1-1.1-1.5-1.6c-0.9-1.1-1.5-2.4-2.1-3.8
				c-1.3,0-2-0.2-2.1-0.5c0.4-0.3,0.7-0.7,0.9-1c0.3-0.4,0.4-0.8,0.4-1.2c-0.3,0-0.7,0.2-1.2,0.6c-0.1,0.1-0.4,0.4-1,0.9
				c-0.1,0-0.2-0.1-0.3-0.4c-0.1-0.3-0.2-0.7-0.2-1.2c-0.3-0.2-0.6-0.3-0.8-0.5c-0.2-0.2-0.3-0.3-0.3-0.4c0-0.2,0.2-0.4,0.5-0.7
				c0.2-0.1,0.4-0.3,0.6-0.4c0-0.4,0-0.7,0.1-1.1c0.1-0.3,0.2-0.5,0.3-0.5c0.4,0.4,0.8,0.7,1,0.9c0.4,0.3,0.9,0.5,1.2,0.5
				c0-0.4-0.2-0.8-0.5-1.2c-0.3-0.3-0.6-0.7-1-1c0-0.2,0.3-0.3,1-0.5c0.5-0.1,0.9-0.2,1.2-0.2c0.9-2.7,2.3-4.7,4-6.1
				c0.6-0.5,1-0.7,1.2-0.7c0.1,0,0.2,0.1,0.2,0.2c0,0.1-0.2,0.4-0.7,0.9c-1.5,1.7-2.3,3.6-2.7,5.7c0.4,0.1,0.7,0.1,0.8,0.2
				c0.1,0.1,0.2,0.2,0.2,0.3c-0.4,0.3-0.7,0.7-0.9,1c-0.3,0.4-0.5,0.8-0.5,1.2c0.4,0,0.8-0.2,1.1-0.5c0.2-0.2,0.6-0.6,1-1
				c0.2,0,0.3,0.2,0.5,0.7c0.1,0.4,0.1,0.7,0.1,0.9c0.7,0.3,1.1,0.7,1.1,1c0,0.3-0.3,0.6-1,1c0,0.6-0.1,1.1-0.2,1.3
				c-0.1,0.2-0.2,0.2-0.4,0.3c-0.7-0.9-1.5-1.3-2.2-1.4c0,0.3,0.2,0.8,0.5,1.2c0.1,0.2,0.5,0.5,1,1c0,0.1-0.1,0.1-0.2,0.2
				c-0.1,0.1-0.4,0.1-0.9,0.3c0.2,1.1,0.6,2.2,1.3,3.3c0.7,1.1,1.4,2.1,2.2,2.8C50.7,42.4,50.7,42.5,50.7,42.6z M43.9,33
				c-0.2-0.1-0.5-0.2-0.8-0.3c0,0-0.2-0.1-0.5-0.2c-0.3-0.1-0.4-0.2-0.4-0.3c0,0,0.3-0.2,1-0.3c0.1-0.1,0.4-0.2,0.7-0.3
				c-0.4-0.1-0.7-0.3-1-0.5c-0.1-0.1-0.4-0.4-0.7-0.6c-0.1,0-0.1,0.1-0.1,0.3c0,0.2,0,0.4,0,0.8c-0.6,0.3-0.9,0.6-0.9,0.7
				c0,0.1,0.1,0.2,0.3,0.3c0.2,0.1,0.4,0.2,0.7,0.3c0,0.1,0,0.4,0.1,0.7c0.1,0.4,0.1,0.6,0.2,0.6l0.7-0.7
				C43.3,33.3,43.6,33.1,43.9,33z M49.6,22.3c-1.8,1.2-3.2,3.4-4.3,6.5c-0.7,0-1.2,0-1.4,0.1c-0.2,0-0.3,0.1-0.3,0.2
				c0.5,0.4,0.9,0.9,1.2,1.4c0.1-0.3,0.3-0.5,0.4-0.6c0.1-0.2,0.2-0.5,0.4-0.7c0,0,0.1,0.1,0.1,0.3c0,0.2,0.1,0.3,0.1,0.3
				c0.1,0.1,0.2,0.3,0.4,0.7c0.1-0.3,0.3-0.6,0.5-0.9c0.1-0.1,0.3-0.4,0.6-0.6c0-0.1-0.1-0.1-0.3-0.2c-0.1,0-0.3,0-0.5-0.1
				c0.3-1.2,0.5-2,0.6-2.4C47.6,25.1,48.4,23.7,49.6,22.3z M50,42.2c-0.7-0.7-1.4-1.5-2-2.6c-0.7-1.2-1.1-2.5-1.4-3.8
				c0.5,0,0.8-0.1,0.8-0.2c-0.5-0.5-1-1-1.2-1.5c-0.1,0.2-0.2,0.4-0.3,0.7c0,0-0.1,0.2-0.2,0.4c-0.1,0.2-0.1,0.3-0.2,0.3
				c-0.2,0-0.4-0.4-0.7-1.3c-0.2,0.4-0.4,0.7-0.6,0.9c-0.2,0.2-0.4,0.4-0.6,0.6c0,0,0.1,0.1,0.3,0.1c0.1,0,0.4,0.1,0.6,0.1
				c0.2,0,0.3,0,0.4,0c0.1,0,0.3,0,0.3,0C46.3,38.6,47.8,40.8,50,42.2z M46.8,32.3c0-0.4-0.1-0.7-0.4-0.9c-0.3-0.2-0.6-0.4-0.9-0.4
				c-0.4,0-0.7,0.1-0.9,0.4c-0.2,0.2-0.4,0.6-0.4,0.9c0,0.3,0.1,0.6,0.4,0.9c0.3,0.2,0.6,0.4,0.9,0.4c0.4,0,0.7-0.1,0.9-0.4
				C46.7,32.9,46.8,32.7,46.8,32.3z M49.9,32.2c0-0.2-0.3-0.3-0.9-0.6c0-0.4,0-0.7-0.1-0.9c-0.1-0.2-0.1-0.4-0.2-0.4
				c-0.1,0.1-0.3,0.3-0.7,0.7c-0.3,0.3-0.6,0.4-0.9,0.6c0.1,0,0.4,0.2,1.1,0.4c0.4,0.1,0.6,0.3,0.6,0.3c0,0.1-0.2,0.2-0.6,0.3
				c-0.3,0.1-0.7,0.2-1.1,0.3c0.3,0.1,0.6,0.3,1,0.5c0.1,0.1,0.4,0.3,0.6,0.6c0.1,0,0.2-0.4,0.2-1.2C49.6,32.6,49.9,32.3,49.9,32.2z
				"/>
			<path d="M62.6,22.6c-0.3,0.1-0.6,0.3-1,0.4c-0.3,0.1-0.7,0.3-1,0.4c-0.3,0.1-0.6,0.3-0.9,0.4c-0.3,0.1-0.5,0.2-0.7,0.3
				c0,0-0.1,0-0.1,0c0,0,0,0,0-0.1c0,0,0-0.1,0.1-0.2c0-0.1,0.1-0.2,0.1-0.3c0-0.1,0.1-0.2,0.1-0.2c0-0.1,0.1-0.1,0.1-0.1
				c0.1-0.1,0.1-0.1,0.2-0.2l3.4-1.4c0.1,0,0.1,0,0.1,0.1c0,0.1-0.1,0.1-0.1,0.2c0,0.1-0.1,0.1-0.1,0.2c0,0.1-0.1,0.1-0.1,0.2
				c0,0.1-0.1,0.1-0.1,0.2C62.8,22.5,62.7,22.6,62.6,22.6z"/>
			<path d="M62.4,35.8c-0.1-0.7-0.2-1.5-0.3-2.2c-0.1-0.7-0.2-1.4-0.3-2.1c-0.1-0.7-0.2-1.4-0.3-2.1c-0.1-0.7-0.2-1.4-0.3-2.2
				c0-0.2-0.1-0.5-0.1-0.7c0-0.2-0.1-0.5-0.3-0.7c0-0.1-0.1-0.1-0.1-0.1c0,0,0-0.1,0.1-0.1c0.1-0.2,0.2-0.3,0.3-0.5
				c0.1-0.2,0.2-0.3,0.3-0.5c0,0,0.1-0.1,0.1-0.1c0,0,0,0,0.1,0.1c0,0.1,0.1,0.3,0.2,0.4c0.1,0.1,0.1,0.3,0.2,0.4
				c0.1,0.1,0.2,0.3,0.3,0.4c0.1,0.1,0.2,0.2,0.4,0.3c-0.1,0.1-0.2,0.3-0.2,0.4c-0.1,0.1-0.1,0.2-0.2,0.3c0,0.1-0.1,0.2-0.1,0.2
				c0,0.1,0,0.2,0,0.3c0,0.2,0,0.5,0.1,0.9c0,0.2,0.1,0.4,0.1,0.6c0,0.2,0,0.3,0.1,0.4c0,0.3,0.1,0.7,0.2,1.1
				c0.1,0.4,0.1,0.8,0.2,1.3c0,0.2,0.1,0.5,0.1,0.9c0,0.4,0.1,0.8,0.2,1.4c0.1,1.1,0.2,1.6,0.2,1.7c0,0.5-0.2,1-0.4,1.4
				c-0.2,0.4-0.5,0.8-0.9,1.1c-0.4,0.3-0.8,0.5-1.3,0.7c-0.5,0.2-1,0.3-1.5,0.3c-0.5,0-1-0.1-1.4-0.2c-0.4-0.2-0.8-0.4-1.1-0.7
				c-0.3-0.3-0.5-0.6-0.7-1c-0.2-0.4-0.2-0.9-0.2-1.4c0-0.5,0.1-1.1,0.3-1.6c0.2-0.5,0.4-1,0.7-1.4c0-0.1,0.1-0.1,0.1-0.1
				c0,0,0.1,0,0.1,0c0,0,0,0.1,0,0.1c0,0,0,0.1,0,0.1c-0.3,0.6-0.5,1.1-0.5,1.7c-0.1,0.6,0,1.1,0.1,1.5c0.1,0.2,0.2,0.4,0.4,0.6
				c0.2,0.2,0.3,0.4,0.5,0.5c0.2,0.1,0.5,0.2,0.8,0.3c0.3,0.1,0.6,0.1,1,0.1c0.3,0,0.7,0,1-0.1c0.3-0.1,0.6-0.2,0.9-0.3
				c0.3-0.1,0.6-0.3,0.8-0.5C61.9,36.3,62.2,36.1,62.4,35.8z"/>
			<path d="M68.8,27.7c-0.3,0.1-0.6,0.3-1,0.4c-0.3,0.1-0.7,0.3-1,0.4c-0.3,0.1-0.6,0.3-0.9,0.4c-0.3,0.1-0.5,0.2-0.7,0.3
				c0,0-0.1,0-0.1,0c0,0,0,0,0-0.1c0,0,0-0.1,0.1-0.2c0-0.1,0.1-0.2,0.1-0.3c0-0.1,0.1-0.2,0.1-0.2c0-0.1,0.1-0.1,0.1-0.1
				c0.1-0.1,0.1-0.1,0.2-0.2l3.4-1.4c0.1,0,0.1,0,0.1,0.1c0,0.1-0.1,0.1-0.1,0.2c0,0.1-0.1,0.1-0.1,0.2c0,0.1-0.1,0.1-0.1,0.2
				c0,0.1-0.1,0.1-0.1,0.2C68.9,27.6,68.9,27.6,68.8,27.7z"/>
			<path d="M68.2,34.1C68.2,34.1,68.2,34,68.2,34.1c0.1,0,0.1,0,0.2,0.1c0.2,0.2,0.4,0.4,0.6,0.5c0.2,0.1,0.4,0.2,0.6,0.3
				c0.2,0.1,0.4,0.1,0.6,0.1c0.2,0,0.4,0,0.6,0h0.2c0.2,0,0.3,0.1,0.4,0.2c0.1,0.1,0.1,0.3,0.1,0.5c0,0.2,0,0.3-0.1,0.5
				c-0.1,0.1-0.2,0.2-0.4,0.2h-0.2c-0.1,0-0.1,0-0.2,0c-0.1,0-0.2,0-0.3,0c-0.1,0-0.2,0-0.3,0c-0.1,0-0.2,0-0.3,0
				c-0.1,0.4-0.2,0.8-0.3,1.2c-0.1,0.4-0.2,0.7-0.3,0.9c-0.1,0.3-0.2,0.5-0.3,0.7c-0.1,0.2-0.2,0.3-0.2,0.4
				c-0.2,0.3-0.4,0.5-0.7,0.7c-0.2,0.2-0.5,0.4-0.8,0.5s-0.5,0.2-0.8,0.3c-0.3,0.1-0.6,0.1-0.9,0.1c-0.4,0-0.9,0-1.4,0
				c-0.5-0.1-1-0.2-1.5-0.4c-0.1,0-0.1-0.1-0.2-0.1c0,0,0-0.1,0-0.1c0,0,0.1-0.1,0.2-0.1c0.1,0,0.2,0,0.3,0c0.7,0.1,1.4,0.1,2-0.1
				c0.6-0.1,1.2-0.4,1.8-0.7c0.7-0.4,1.3-0.9,1.7-1.4c0.4-0.6,0.7-1.2,0.9-1.9c-0.2-0.1-0.4-0.2-0.7-0.4c-0.2-0.2-0.4-0.3-0.5-0.5
				c0-0.2,0.1-0.4,0.1-0.6S68.1,34.3,68.2,34.1z M67.3,30.4l1.1,0.9c0,0,0,0.1,0,0.1l-0.7,0.9c0,0.1-0.1,0.1-0.1,0l-1.1-0.9
				c0,0,0-0.1,0-0.1l0.7-0.9C67.2,30.4,67.3,30.4,67.3,30.4z"/>
			<path d="M74,25.5c-0.3,0.1-0.6,0.3-1,0.4c-0.3,0.1-0.7,0.3-1,0.4c-0.3,0.1-0.6,0.3-0.9,0.4c-0.3,0.1-0.5,0.2-0.7,0.3
				c0,0-0.1,0-0.1,0c0,0,0,0,0-0.1c0,0,0-0.1,0.1-0.2c0-0.1,0.1-0.2,0.1-0.3c0-0.1,0.1-0.2,0.1-0.2c0-0.1,0.1-0.1,0.1-0.1
				c0.1-0.1,0.1-0.1,0.2-0.2l3.4-1.4c0.1,0,0.1,0,0.1,0.1c0,0.1-0.1,0.1-0.1,0.2c0,0.1-0.1,0.1-0.1,0.2c0,0.1-0.1,0.1-0.1,0.2
				c0,0.1-0.1,0.1-0.1,0.2C74.1,25.4,74.1,25.4,74,25.5z"/>
			<path d="M72.8,31.7C72.9,31.6,72.9,31.6,72.8,31.7c0.1-0.1,0.1,0,0.2,0c0.2,0.2,0.3,0.3,0.4,0.5c0.1,0.2,0.3,0.4,0.4,0.6
				c0.1,0.2,0.2,0.4,0.3,0.7c0.1,0.2,0.1,0.4,0.1,0.7c0,0.1,0,0.2,0,0.3c0,0.1,0,0.3-0.1,0.4c0,0.1-0.1,0.2-0.1,0.4
				c0,0.1-0.1,0.2-0.1,0.3c-0.1,0.2-0.3,0.4-0.6,0.5c-0.3,0.1-0.5,0.2-0.8,0.3c-0.3,0.1-0.6,0.1-0.9,0.1c-0.3,0-0.6,0-0.8,0h-0.2
				c-0.2,0-0.3-0.1-0.4-0.2C70.1,36.1,70,36,70,35.8c0-0.2,0-0.3,0.1-0.5c0.1-0.1,0.2-0.2,0.4-0.2h0.2c0.1,0,0.3,0,0.6,0
				c0.2,0,0.5,0,0.8,0c0.3,0,0.5-0.1,0.8-0.1c0.3,0,0.5-0.1,0.6-0.2c0.1-0.1,0.1-0.1,0.1-0.2c-0.1-0.3-0.2-0.6-0.4-0.9
				c-0.2-0.2-0.4-0.5-0.7-0.7c0-0.2,0.1-0.4,0.2-0.6C72.7,32.1,72.8,31.9,72.8,31.7z M72.4,27.8l1.1,0.9c0,0,0,0.1,0,0.1l-0.7,0.9
				c0,0.1-0.1,0.1-0.1,0l-1.1-0.9c0,0,0-0.1,0-0.1l0.7-0.9C72.3,27.7,72.3,27.7,72.4,27.8z"/>
			<path d="M84.3,27.3c-0.1,0.3-0.3,0.5-0.4,0.6c-0.2,0.1-0.4,0.2-0.6,0.2c-0.2,0-0.4,0-0.5-0.1c-0.1-0.1-0.2-0.3-0.3-0.5
				c0-0.1,0-0.2,0-0.4c0-0.1,0.1-0.2,0.1-0.4c0-0.1,0.1-0.2,0.2-0.3c0.1-0.1,0.1-0.1,0.2-0.2c0.1,0,0.1,0,0,0.2c0,0.1,0,0.1-0.1,0.2
				c0,0.1,0,0.2,0,0.3c0,0.1,0,0.2,0,0.2c0,0.1,0.1,0.1,0.1,0.1c0.1,0.1,0.2,0.1,0.3,0.1c0.1,0,0.2,0,0.3-0.1c0.1,0,0.2-0.1,0.3-0.2
				C83.9,27,84,27,84,26.9c0.1-0.1,0.1-0.2,0.1-0.3s0.1-0.2,0.1-0.3c0,0,0-0.1,0-0.1c0,0,0-0.1,0-0.1c0,0,0-0.1,0.1-0.1
				c0,0,0.1,0,0.1-0.1c0,0,0,0,0.1,0c0,0,0,0.1,0,0.1c0,0,0,0.1,0,0.1c0,0,0,0.1,0,0.1c0,0.2,0,0.3,0.1,0.4c0.1,0.1,0.2,0.2,0.3,0.2
				c0.1,0,0.2,0,0.3,0c0.1,0,0.2-0.1,0.3-0.2c0,0,0-0.1,0-0.1c0-0.1,0-0.1,0-0.2c0-0.1,0-0.1,0-0.2c0,0,0-0.1,0-0.1c0,0,0-0.1,0-0.1
				c0-0.1,0-0.2,0.1-0.2c0-0.1,0.1-0.2,0.1-0.2c0-0.1,0.1-0.1,0.1-0.1c0.1,0,0.1,0,0.1,0.1c0,0.1,0.1,0.2,0.1,0.3c0,0.1,0,0.3,0,0.4
				c0,0.1,0,0.3,0,0.4c0,0.1-0.1,0.2-0.1,0.3c0,0.1-0.1,0.2-0.2,0.3c-0.1,0.1-0.1,0.2-0.2,0.2c-0.1,0.1-0.2,0.1-0.3,0.1
				c-0.2,0-0.4,0-0.5,0C84.5,27.5,84.4,27.4,84.3,27.3z"/>
			<path d="M86.2,42.6c-0.6,0.2-1.2,0.4-1.7,0.6c-0.5,0.2-1.1,0.4-1.6,0.6c-0.1,0-0.1,0-0.1-0.1c0-0.1,0.1-0.2,0.2-0.4
				c0.1-0.1,0.1-0.2,0.2-0.3c0,0,0.1-0.1,0.1-0.1c0.1-0.1,0.3-0.1,0.6-0.2c0.3-0.1,0.5-0.2,0.8-0.3c0.3-0.1,0.6-0.2,1-0.3
				c0.3-0.1,0.7-0.2,1-0.3c0.1,0,0.1,0,0.1,0.1c0,0.1-0.1,0.1-0.1,0.2c0,0.1-0.1,0.1-0.1,0.2c0,0.1-0.1,0.1-0.1,0.2
				c0,0.1-0.1,0.1-0.1,0.1C86.3,42.6,86.3,42.6,86.2,42.6C86.3,42.6,86.2,42.6,86.2,42.6z"/>
			<path d="M86.8,36.5c-0.1,0-0.2,0-0.3,0c-0.1,0-0.3,0-0.5,0c-0.2,0-0.3,0-0.5,0c-0.2,0-0.3,0-0.5,0c-0.2,0-0.4-0.1-0.5-0.2
				c-0.1-0.1-0.3-0.2-0.3-0.3c-0.1-0.1-0.1-0.3-0.2-0.4c0-0.2-0.1-0.3-0.1-0.5c0-0.2,0-0.4,0.1-0.7c0.1-0.2,0.1-0.5,0.2-0.7
				c0.1-0.2,0.3-0.4,0.4-0.6c0.2-0.2,0.4-0.2,0.6-0.2c0.2,0,0.5,0.1,0.7,0.2c0.2,0.2,0.4,0.4,0.6,0.6c0.2,0.2,0.3,0.5,0.4,0.7
				c0.1,0.3,0.2,0.5,0.3,0.7h1h0.2c0.2,0,0.3,0.1,0.4,0.2c0.1,0.1,0.1,0.3,0.1,0.5c0,0.2,0,0.3-0.1,0.5c-0.1,0.1-0.2,0.2-0.4,0.2h-1
				c0,0.2,0,0.3,0,0.6c0,0.2,0,0.4-0.1,0.6c-0.1,0.5-0.3,1-0.7,1.4c-0.3,0.4-0.7,0.7-1.2,1c-0.5,0.3-1,0.5-1.5,0.6
				c-0.5,0.1-1,0.2-1.5,0.2c-0.5,0-1-0.1-1.4-0.2c-0.4-0.2-0.8-0.4-1.1-0.6c-0.3-0.3-0.5-0.6-0.7-1c-0.2-0.4-0.2-0.9-0.2-1.4
				c0-0.6,0.1-1.1,0.3-1.6c0.2-0.5,0.4-1,0.7-1.5c0-0.1,0.1-0.1,0.1-0.1c0,0,0,0,0.1,0c0,0,0,0.1,0,0.1c0,0,0,0.1,0,0.1
				c-0.1,0.3-0.3,0.6-0.3,0.8c-0.1,0.3-0.2,0.6-0.2,0.8c0,0.3,0,0.5,0,0.8c0,0.3,0.1,0.5,0.2,0.7s0.2,0.4,0.4,0.6
				c0.1,0.2,0.3,0.4,0.5,0.5c0.2,0.1,0.5,0.3,0.8,0.3c0.3,0.1,0.6,0.1,1,0.1c0.4,0,0.8-0.1,1.2-0.1c0.4-0.1,0.8-0.2,1.2-0.4
				c0.4-0.2,0.7-0.4,1.1-0.6c0.3-0.2,0.6-0.5,0.9-0.9c0-0.1,0-0.1,0-0.2c0-0.1,0-0.2,0-0.3c0-0.1,0-0.2-0.1-0.3
				C86.8,36.6,86.8,36.5,86.8,36.5z M86,31.2c-0.1,0-0.1,0-0.2,0l-1.1-0.8l-0.6,0.9c0,0,0,0-0.1,0c0,0-0.1,0-0.1,0l-1.1-0.8
				c0,0,0,0,0,0c0,0,0,0,0-0.1l0.7-0.9c0,0,0,0,0.1-0.1c0,0,0,0,0.1,0l1.1,0.8l0.7-0.9c0,0,0,0,0,0c0,0,0,0,0.1,0l1.1,0.8
				c0,0,0,0.1,0,0.1L86,31.2z M84.5,34.8c0,0.1,0.1,0.2,0.3,0.2c0.1,0.1,0.3,0.1,0.4,0.1c0.2,0,0.3,0,0.5,0c0.2,0,0.4,0,0.5,0
				c0-0.1-0.1-0.2-0.1-0.3c-0.1-0.1-0.2-0.2-0.3-0.3c-0.1-0.1-0.2-0.2-0.3-0.2c-0.1-0.1-0.2-0.1-0.3-0.1c-0.1,0-0.1,0-0.2,0.1
				c-0.1,0-0.2,0.1-0.2,0.1c-0.1,0.1-0.1,0.1-0.2,0.2C84.5,34.6,84.5,34.7,84.5,34.8z"/>
			<path d="M91.2,29.2c-0.3,0.1-0.6,0.3-1,0.4c-0.3,0.1-0.7,0.3-1,0.4c-0.3,0.1-0.6,0.3-0.9,0.4c-0.3,0.1-0.5,0.2-0.7,0.3
				c0,0-0.1,0-0.1,0c0,0,0,0,0-0.1c0,0,0-0.1,0.1-0.2c0-0.1,0.1-0.2,0.1-0.3c0-0.1,0.1-0.2,0.1-0.2c0-0.1,0.1-0.1,0.1-0.1
				c0.1-0.1,0.1-0.1,0.2-0.2l3.4-1.4c0.1,0,0.1,0,0.1,0.1c0,0.1-0.1,0.1-0.1,0.2c0,0.1-0.1,0.1-0.1,0.2c0,0.1-0.1,0.1-0.1,0.2
				c0,0.1-0.1,0.1-0.1,0.2C91.3,29.1,91.3,29.2,91.2,29.2z"/>
			<path d="M93.1,20.8c0,0.2,0,0.4-0.1,0.6c-0.1,0.2-0.1,0.4-0.2,0.5c-0.1,0.1-0.3,0.3-0.4,0.3c-0.2,0.1-0.4,0.1-0.6,0.1
				c-0.3,0-0.6-0.1-0.8-0.3c-0.2-0.2-0.3-0.4-0.3-0.8c0-0.2,0-0.4,0.1-0.6c0-0.2,0.1-0.5,0.2-0.7c0.1-0.2,0.2-0.4,0.4-0.6
				c0.2-0.2,0.4-0.3,0.6-0.3c0.2,0,0.4,0,0.6,0.1s0.3,0.3,0.3,0.4c0.1,0.2,0.1,0.4,0.2,0.5C93.1,20.5,93.1,20.7,93.1,20.8z
				 M91.8,20.2c-0.1,0-0.2,0.1-0.3,0.1c-0.1,0.1-0.2,0.1-0.2,0.2c-0.1,0.1-0.1,0.2-0.2,0.3c0,0.1-0.1,0.2-0.1,0.3
				c0,0.1,0,0.2,0.1,0.2c0.1,0.1,0.1,0.1,0.2,0.1c0.1,0,0.2,0,0.3,0.1c0.1,0,0.2,0,0.2,0c0.3,0,0.6-0.2,0.8-0.4c0-0.1,0-0.2,0-0.3
				c0-0.1-0.1-0.2-0.2-0.3c-0.1-0.1-0.2-0.2-0.3-0.2C92.1,20.2,92,20.2,91.8,20.2z"/>
			<path d="M93.1,32.2c0.3,0.1,0.6,0.2,0.9,0.2c0.3,0.1,0.5,0.1,0.8,0.2c0.3,0.1,0.5,0.1,0.8,0.2c0.2,0.1,0.5,0.1,0.8,0.1
				c0.4,0.1,0.8,0.1,1.2,0.1c0.4,0,0.8,0,1.3,0.1c0.1,0,0.1,0.1,0.1,0.1c0,0.1-0.1,0.1-0.1,0.2c0,0.1-0.1,0.2-0.2,0.3
				c-0.1,0.1-0.1,0.2-0.2,0.3c-0.1,0.1-0.1,0.2-0.1,0.2c0,0-0.1,0.1-0.1,0.1c0,0-0.1,0-0.2,0c-0.5-0.1-0.9-0.1-1.3-0.1
				c-0.4,0-0.8,0.1-1.2,0.1c-0.4,0.1-0.8,0.2-1.1,0.3c-0.4,0.1-0.8,0.3-1.1,0.4c-0.4,0.2-0.8,0.3-1.2,0.5c-0.4,0.2-0.8,0.3-1.1,0.4
				c-0.4,0.1-0.8,0.2-1.2,0.3c-0.4,0.1-0.9,0.1-1.3,0.1h-0.2c-0.2,0-0.3-0.1-0.4-0.2c-0.1-0.1-0.1-0.3-0.1-0.5c0-0.2,0-0.3,0.1-0.5
				c0.1-0.1,0.2-0.2,0.4-0.2h0.2c0.3,0,0.7,0,1,0c0.4,0,0.8-0.1,1.2-0.2c0.5-0.1,1-0.2,1.5-0.4c0.6-0.2,1.2-0.4,1.8-0.7
				c-0.4-0.1-0.9-0.3-1.3-0.4c-0.4-0.1-0.8-0.2-1.2-0.2c-0.4-0.1-0.8-0.1-1.3-0.1c-0.4,0-0.9,0-1.3,0.1c-0.1,0-0.1,0,0-0.1
				c0.1-0.2,0.2-0.4,0.3-0.6c0.1-0.2,0.2-0.4,0.4-0.5c0,0,0.2-0.1,0.4-0.1c0.2,0,0.5-0.1,0.8-0.1c0.3,0,0.6-0.1,0.9-0.1
				c0.3,0,0.6-0.1,0.9-0.1c0.1,0,0.2,0,0.3-0.1c0.1,0,0.1-0.1,0.1-0.2c0-0.3-0.1-0.7-0.1-1.1c-0.1-0.4-0.1-0.8-0.2-1.3
				c-0.1-0.4-0.1-0.9-0.2-1.4c-0.1-0.5-0.2-0.9-0.2-1.3c0-0.1-0.1-0.3-0.1-0.4c0-0.1,0-0.3-0.1-0.4c0-0.1-0.1-0.3-0.1-0.4
				c-0.1-0.1-0.1-0.2-0.2-0.3c0.1-0.2,0.2-0.4,0.3-0.6c0.1-0.2,0.2-0.4,0.3-0.6c0-0.1,0.1-0.1,0.1-0.1c0,0,0.1,0,0.1,0.1
				c0.1,0.1,0.1,0.3,0.2,0.4c0.1,0.1,0.1,0.3,0.2,0.4c0.1,0.1,0.2,0.3,0.3,0.4c0.1,0.1,0.2,0.2,0.4,0.3c0,0.1-0.1,0.2-0.1,0.3
				c-0.1,0.1-0.1,0.2-0.2,0.3c-0.1,0.1-0.1,0.2-0.1,0.3c0,0.1,0,0.2,0,0.3c0,0.1,0.1,0.3,0.1,0.5c0,0.3,0.1,0.6,0.2,0.9
				c0.1,0.4,0.1,0.7,0.2,1.1c0.1,0.4,0.1,0.7,0.1,1c0,0.2,0,0.3,0,0.5c0,0.2,0,0.4,0,0.6c0,0.2-0.1,0.4-0.1,0.6
				C93.3,31.9,93.2,32.1,93.1,32.2z"/>
			<path d="M100,26.2c0-0.2,0.1-0.4,0.2-0.6c0.1-0.2,0.2-0.4,0.3-0.6c0,0,0,0,0.1,0c0,0,0.1,0,0.1,0c0.1,0.3,0.1,0.7,0.2,1
				c0.1,0.3,0.1,0.7,0.2,1.1c0.1,0.4,0.1,0.8,0.2,1.3c0.1,0.5,0.1,1,0.2,1.6c0,0.4,0.1,0.8,0.1,1.2c0,0.3,0.1,0.6,0.1,0.9
				c0,0.3,0.1,0.5,0.1,0.7c0,0.2,0.1,0.4,0.1,0.7c0.1,0.3,0.1,0.6,0.2,0.8c0.1,0.2,0.2,0.4,0.4,0.5c0.2,0.1,0.3,0.2,0.6,0.3
				c0.2,0.1,0.5,0.1,0.8,0.1h0.1c0.2,0,0.3,0.1,0.4,0.2c0.1,0.1,0.1,0.3,0.1,0.5c0,0.2,0,0.3-0.1,0.5c-0.1,0.1-0.2,0.2-0.4,0.2h-0.1
				c-0.5,0-0.8-0.1-1.1-0.2c-0.3-0.1-0.6-0.3-0.8-0.6s-0.4-0.5-0.5-0.9c-0.1-0.3-0.2-0.7-0.2-1.1c0-0.3-0.1-0.7-0.1-1
				c0-0.4-0.1-0.7-0.1-1.1c0-0.3-0.1-0.7-0.1-1c0-0.3-0.1-0.6-0.1-0.9c-0.1-0.5-0.1-1.1-0.2-1.6c-0.1-0.5-0.2-1.1-0.4-1.7
				C100,26.3,100,26.3,100,26.2C100,26.2,100,26.2,100,26.2z"/>
			<path d="M106.9,43.1c-0.6,0.2-1.2,0.4-1.7,0.6c-0.5,0.2-1.1,0.4-1.6,0.6c-0.1,0-0.1,0-0.1-0.1c0-0.1,0.1-0.2,0.2-0.4
				c0.1-0.1,0.1-0.2,0.2-0.3c0,0,0.1-0.1,0.1-0.1c0.1-0.1,0.3-0.1,0.6-0.2c0.3-0.1,0.5-0.2,0.8-0.3c0.3-0.1,0.6-0.2,1-0.3
				c0.3-0.1,0.7-0.2,1-0.3c0.1,0,0.1,0,0.1,0.1c0,0.1-0.1,0.1-0.1,0.2c0,0.1-0.1,0.1-0.1,0.2c0,0.1-0.1,0.1-0.1,0.2
				c0,0.1-0.1,0.1-0.1,0.1C107,43,107,43,106.9,43.1C107,43.1,107,43.1,106.9,43.1z"/>
			<path d="M106.4,31.6C106.4,31.6,106.4,31.6,106.4,31.6c0.1-0.1,0.1,0,0.2,0c0.2,0.2,0.3,0.3,0.4,0.5c0.1,0.2,0.3,0.4,0.4,0.6
				c0.1,0.2,0.2,0.4,0.3,0.7c0.1,0.2,0.1,0.4,0.1,0.7c0,0.1,0,0.2,0,0.3c0,0.1,0,0.3-0.1,0.4c0,0.1-0.1,0.2-0.1,0.4
				c0,0.1-0.1,0.2-0.1,0.3c-0.1,0.1-0.2,0.3-0.4,0.4c-0.2,0.1-0.4,0.2-0.6,0.3c-0.2,0.1-0.5,0.1-0.7,0.2c-0.3,0-0.5,0.1-0.7,0.1
				c-0.2,0-0.5,0-0.7,0.1c-0.2,0-0.4,0-0.6,0h-0.2c-0.2,0-0.3-0.1-0.4-0.2c-0.1-0.1-0.1-0.3-0.1-0.5c0-0.2,0-0.3,0.1-0.5
				c0.1-0.1,0.2-0.2,0.4-0.2h0.2c0.1,0,0.2,0,0.4,0c0.2,0,0.4,0,0.6,0c0.2,0,0.4,0,0.7,0c0.2,0,0.5,0,0.7-0.1c0.2,0,0.4-0.1,0.6-0.1
				c0.2,0,0.3-0.1,0.4-0.1c0.1-0.1,0.1-0.1,0.1-0.2c-0.1-0.3-0.2-0.6-0.4-0.9c-0.2-0.2-0.4-0.5-0.7-0.7c0-0.2,0.1-0.4,0.2-0.6
				C106.3,32,106.3,31.8,106.4,31.6z M104.9,38.3l1.1,0.9c0,0,0,0,0,0.1c0,0,0,0,0,0.1l-0.7,0.9c0,0-0.1,0-0.1,0l-1.1-0.9
				c0,0,0-0.1,0-0.1l0.7-0.9C104.8,38.3,104.9,38.3,104.9,38.3z"/>
			<path d="M113.1,27.9c-0.3,0.1-0.6,0.3-1,0.4c-0.3,0.1-0.7,0.3-1,0.4c-0.3,0.1-0.6,0.3-0.9,0.4c-0.3,0.1-0.5,0.2-0.7,0.3
				c0,0-0.1,0-0.1,0c0,0,0,0,0-0.1c0,0,0-0.1,0.1-0.2c0-0.1,0.1-0.2,0.1-0.3c0-0.1,0.1-0.2,0.1-0.2c0-0.1,0.1-0.1,0.1-0.1
				c0.1-0.1,0.1-0.1,0.2-0.2l3.4-1.4c0.1,0,0.1,0,0.1,0.1c0,0.1-0.1,0.1-0.1,0.2c0,0.1-0.1,0.1-0.1,0.2c0,0.1-0.1,0.1-0.1,0.2
				c0,0.1-0.1,0.1-0.1,0.2C113.2,27.8,113.1,27.8,113.1,27.9z"/>
			<path d="M113.7,34.9c-0.1,0.2-0.2,0.5-0.4,0.6c-0.2,0.2-0.5,0.3-0.8,0.3c-0.2,0-0.3,0-0.5-0.1c-0.1-0.1-0.3-0.2-0.4-0.3
				c-0.1-0.1-0.2-0.3-0.2-0.5c-0.1-0.2-0.1-0.3-0.1-0.5c0-0.1,0-0.3,0.1-0.4s0.1-0.3,0.2-0.5c0.1-0.2,0.1-0.3,0.2-0.5
				c0.1-0.2,0.2-0.3,0.3-0.4c0.1-0.1,0.2-0.2,0.3-0.3s0.2-0.1,0.4-0.1c0.2,0,0.4,0.1,0.6,0.3c0.2,0.2,0.4,0.4,0.5,0.7
				c0.1,0.3,0.3,0.6,0.3,0.9c0.1,0.3,0.1,0.7,0.1,1c0,0.4-0.1,0.9-0.2,1.3c-0.1,0.5-0.2,0.9-0.4,1.3c-0.2,0.4-0.4,0.9-0.6,1.2
				c-0.2,0.4-0.5,0.7-0.7,1c-0.2,0.3-0.5,0.5-0.8,0.6c-0.3,0.2-0.6,0.3-0.9,0.4c-0.3,0.1-0.6,0.2-1,0.2c-0.3,0-0.7,0-1,0
				c-0.4,0-0.7-0.1-1.1-0.1c-0.3-0.1-0.7-0.1-1-0.2c0,0-0.1,0-0.1-0.1c0,0,0-0.1,0-0.1c0,0,0.1-0.1,0.1-0.1c0,0,0.1,0,0.2,0
				c0.5,0.1,0.9,0,1.4,0c0.5-0.1,0.9-0.2,1.3-0.3c0.4-0.1,0.7-0.3,1-0.5c0.3-0.2,0.7-0.5,1-0.7c0.2-0.2,0.4-0.4,0.7-0.7
				c0.2-0.3,0.4-0.5,0.6-0.8c0.2-0.3,0.3-0.6,0.4-0.9c0.1-0.3,0.2-0.6,0.3-0.8c0-0.1,0-0.1,0-0.2c0-0.1,0-0.1,0-0.2
				c0-0.1,0-0.1,0-0.2C113.8,34.9,113.7,34.9,113.7,34.9z M113.4,34.1c0,0,0-0.1-0.1-0.2c0-0.1-0.1-0.2-0.2-0.3
				c-0.1-0.1-0.2-0.2-0.3-0.2c-0.1-0.1-0.2-0.1-0.3-0.1c-0.1,0-0.2,0-0.2,0.1c-0.1,0.1-0.1,0.1-0.2,0.2c0,0.1-0.1,0.2-0.1,0.2
				c0,0.1,0,0.1,0,0.2c0.1,0.1,0.2,0.2,0.3,0.2c0.1,0,0.3,0.1,0.4,0.1c0.2,0,0.3,0,0.4-0.1C113.3,34.2,113.4,34.1,113.4,34.1z"/>
			<path d="M119.2,28.8c-0.1,0-0.1,0,0-0.1c0-0.1,0.1-0.1,0.2-0.2c0.2-0.1,0.4-0.3,0.6-0.4c0.2-0.1,0.4-0.2,0.5-0.4
				c0.2-0.1,0.4-0.3,0.5-0.4c0.2-0.1,0.3-0.3,0.5-0.5c-0.2,0-0.3-0.1-0.5-0.2c-0.2-0.1-0.3-0.2-0.4-0.4c-0.1-0.1-0.1-0.2-0.1-0.3
				c0-0.1,0-0.2,0-0.3c0.1-0.1,0.1-0.3,0.2-0.5c0.1-0.2,0.2-0.3,0.3-0.4c0.1-0.1,0.2-0.2,0.4-0.3s0.3-0.1,0.4-0.1
				c0.1,0,0.2,0,0.3,0.1c0.1,0.1,0.1,0.2,0.2,0.3c0,0.1,0.1,0.2,0.1,0.4c0,0.1,0,0.3,0,0.4c0,0.1,0,0.3,0,0.4c0,0.1,0,0.2,0,0.3
				c0,0,0,0,0,0.1c0.1,0,0.1,0.1,0.1,0.1s0,0.1,0.1,0.1c0,0.1,0,0.2,0,0.3c0,0.1-0.1,0.2-0.1,0.3c0,0.1-0.1,0.1-0.1,0.1
				c0,0-0.1,0-0.1-0.1c0,0-0.1-0.1-0.1-0.1c0,0-0.1-0.1-0.1-0.1c-0.2,0.2-0.4,0.4-0.5,0.6s-0.3,0.3-0.5,0.4
				c-0.2,0.1-0.4,0.2-0.6,0.3c-0.2,0.1-0.4,0.2-0.7,0.3c-0.1,0-0.2,0.1-0.3,0.1C119.3,28.9,119.2,28.9,119.2,28.8z M121,25.6
				c0.1,0.2,0.3,0.3,0.4,0.4c0.2,0.1,0.3,0.2,0.5,0.2h0c0-0.1,0-0.1,0-0.2c0-0.1,0-0.2,0-0.2c0-0.1,0-0.2,0-0.2
				c0-0.1-0.1-0.1-0.1-0.2c0,0-0.1-0.1-0.2-0.1c-0.1,0-0.2,0-0.3,0c-0.1,0-0.2,0.1-0.2,0.1C121.1,25.5,121,25.6,121,25.6z"/>
			<path d="M120.1,32.9C120,32.9,120,32.9,120.1,32.9c-0.1,0,0-0.1,0-0.3c0-0.1,0.1-0.2,0.1-0.4c0-0.1,0.1-0.2,0.1-0.3
				c0-0.1,0.1-0.2,0.1-0.2c0.8,0.1,1.5,0.4,1.9,0.7c0.4,0.4,0.6,0.9,0.6,1.5c0,0.4-0.1,0.8-0.3,1.3c-0.1,0.2-0.2,0.3-0.3,0.4
				c-0.1,0.1-0.2,0.3-0.4,0.3c-0.2,0.1-0.3,0.2-0.5,0.2c-0.2,0.1-0.3,0.1-0.5,0.1c-0.3,0-0.5-0.1-0.7-0.2c-0.2-0.1-0.3-0.3-0.4-0.4
				s-0.2-0.4-0.2-0.6c0-0.2,0-0.5,0-0.7c0.1-0.3,0.1-0.6,0.2-0.8C119.8,33.4,119.9,33.2,120.1,32.9z M120.4,33.2
				c-0.1,0.2-0.2,0.4-0.2,0.5c0,0.2-0.1,0.3-0.1,0.5c0,0.2,0,0.3,0.1,0.4c0.1,0.1,0.2,0.2,0.3,0.3c0.1,0.1,0.2,0.1,0.4,0.1
				c0.1,0,0.3,0,0.5,0c0.2,0,0.3-0.1,0.5-0.2c0.2-0.1,0.3-0.2,0.4-0.3c0-0.1-0.1-0.3-0.2-0.5c-0.1-0.2-0.3-0.3-0.5-0.4
				c-0.2-0.1-0.4-0.2-0.6-0.3C120.7,33.2,120.6,33.2,120.4,33.2z"/>
			<path d="M124.1,26.2c0-0.2,0.1-0.4,0.2-0.6c0.1-0.2,0.2-0.4,0.3-0.6c0,0,0,0,0.1,0c0,0,0.1,0,0.1,0c0.1,0.3,0.1,0.7,0.2,1
				c0.1,0.3,0.1,0.7,0.2,1.1c0.1,0.4,0.1,0.8,0.2,1.3c0.1,0.5,0.1,1,0.2,1.6c0,0.4,0.1,0.8,0.1,1.2c0,0.3,0.1,0.6,0.1,0.9
				c0,0.3,0.1,0.5,0.1,0.7c0,0.2,0.1,0.4,0.1,0.7c0.1,0.3,0.1,0.6,0.2,0.8c0.1,0.2,0.2,0.4,0.4,0.5c0.2,0.1,0.3,0.2,0.6,0.3
				c0.2,0.1,0.5,0.1,0.8,0.1h0.1c0.2,0,0.3,0.1,0.4,0.2c0.1,0.1,0.1,0.3,0.1,0.5c0,0.2,0,0.3-0.1,0.5c-0.1,0.1-0.2,0.2-0.4,0.2h-0.1
				c-0.5,0-0.8-0.1-1.1-0.2c-0.3-0.1-0.6-0.3-0.8-0.6s-0.4-0.5-0.5-0.9c-0.1-0.3-0.2-0.7-0.2-1.1c0-0.3-0.1-0.7-0.1-1
				c0-0.4-0.1-0.7-0.1-1.1c0-0.3-0.1-0.7-0.1-1c0-0.3-0.1-0.6-0.1-0.9c-0.1-0.5-0.1-1.1-0.2-1.6c-0.1-0.5-0.2-1.1-0.4-1.7
				C124.1,26.3,124.1,26.3,124.1,26.2C124.1,26.2,124.1,26.2,124.1,26.2z"/>
			<path d="M131.4,28.1c-0.3,0.1-0.6,0.3-1,0.4c-0.3,0.1-0.7,0.3-1,0.4c-0.3,0.1-0.6,0.3-0.9,0.4c-0.3,0.1-0.5,0.2-0.7,0.3
				c0,0-0.1,0-0.1,0c0,0,0,0,0-0.1c0,0,0-0.1,0.1-0.2c0-0.1,0.1-0.2,0.1-0.3c0-0.1,0.1-0.2,0.1-0.2c0-0.1,0.1-0.1,0.1-0.1
				c0.1-0.1,0.1-0.1,0.2-0.2l3.4-1.4c0.1,0,0.1,0,0.1,0.1c0,0.1-0.1,0.1-0.1,0.2c0,0.1-0.1,0.1-0.1,0.2c0,0.1-0.1,0.1-0.1,0.2
				c0,0.1-0.1,0.1-0.1,0.2C131.5,28,131.5,28.1,131.4,28.1z"/>
			<path d="M135.5,21.3c0,0.2,0,0.4-0.1,0.6c-0.1,0.2-0.1,0.4-0.2,0.5c-0.1,0.1-0.3,0.3-0.4,0.3c-0.2,0.1-0.4,0.1-0.6,0.1
				c-0.3,0-0.6-0.1-0.8-0.3c-0.2-0.2-0.3-0.4-0.3-0.8c0-0.2,0-0.4,0.1-0.6c0-0.2,0.1-0.5,0.2-0.7c0.1-0.2,0.2-0.4,0.4-0.6
				c0.2-0.2,0.4-0.3,0.6-0.3c0.2,0,0.4,0,0.6,0.1c0.1,0.1,0.3,0.3,0.3,0.4c0.1,0.2,0.1,0.4,0.2,0.5C135.4,21,135.5,21.1,135.5,21.3z
				 M134.2,20.6c-0.1,0-0.2,0.1-0.3,0.1c-0.1,0.1-0.2,0.1-0.2,0.2c-0.1,0.1-0.1,0.2-0.2,0.3c0,0.1-0.1,0.2-0.1,0.3s0,0.2,0.1,0.2
				c0.1,0.1,0.1,0.1,0.2,0.1c0.1,0,0.2,0,0.3,0.1c0.1,0,0.2,0,0.2,0c0.3,0,0.6-0.2,0.8-0.4c0-0.1,0-0.2,0-0.3c0-0.1-0.1-0.2-0.2-0.3
				c-0.1-0.1-0.2-0.2-0.3-0.2C134.4,20.6,134.3,20.6,134.2,20.6z"/>
			<path d="M127.8,35.1c0.2,0,0.4,0,0.7,0c0.3,0,0.6-0.1,0.9-0.1c0.3-0.1,0.7-0.2,1.1-0.4c0.4-0.2,0.8-0.4,1.2-0.7
				c0.1-0.1,0.2-0.1,0.3-0.1c0.1,0,0.2,0,0.3,0.1c0.1,0.1,0.3,0.2,0.5,0.2c0.2,0.1,0.4,0.2,0.6,0.2c0.2,0.1,0.4,0.1,0.6,0.2
				c0.2,0.1,0.4,0.1,0.5,0.1c0.2,0,0.4,0.1,0.5,0c0.1,0,0.2-0.1,0.2-0.3c-0.1-0.6-0.1-1.2-0.2-1.8c-0.1-0.6-0.1-1.1-0.2-1.7
				c-0.1-0.6-0.1-1.1-0.2-1.7c-0.1-0.6-0.1-1.3-0.2-2c0-0.2-0.1-0.5-0.1-0.7c0-0.2-0.1-0.5-0.3-0.7c-0.1-0.1-0.1-0.1-0.1-0.1
				c0,0,0-0.1,0.1-0.1l0.5-1c0,0,0-0.1,0.1-0.1c0,0,0.1,0,0.1,0.1c0,0.1,0.1,0.3,0.2,0.4c0.1,0.1,0.1,0.3,0.2,0.4
				c0.1,0.1,0.2,0.3,0.3,0.4c0.1,0.1,0.2,0.2,0.4,0.3c-0.1,0.1-0.2,0.3-0.2,0.4c-0.1,0.1-0.1,0.2-0.2,0.3c0,0.1-0.1,0.2-0.1,0.2
				c0,0.1,0,0.2,0,0.3c0.1,0.5,0.1,1.1,0.2,1.6c0.1,0.6,0.1,1.1,0.2,1.7c0.1,0.5,0.1,1,0.2,1.5c0,0.5,0.1,0.8,0.1,1.1
				c0,0.3,0,0.6,0,0.9c0,0.3-0.1,0.7-0.2,1c-0.1,0.3-0.2,0.6-0.4,0.8c-0.2,0.2-0.4,0.3-0.6,0.3c-0.1,0-0.3,0-0.5-0.1
				c-0.2-0.1-0.5-0.1-0.7-0.2c-0.2-0.1-0.5-0.2-0.7-0.3c-0.2-0.1-0.4-0.2-0.5-0.3c-0.1-0.1-0.2-0.1-0.3-0.1c-0.1,0-0.1,0-0.3,0.1
				c-0.3,0.2-0.6,0.3-0.9,0.5c-0.3,0.1-0.6,0.3-0.9,0.4c-0.3,0.1-0.6,0.2-1,0.3c-0.3,0.1-0.7,0.1-1.1,0.1h-0.1
				c-0.2,0-0.3-0.1-0.4-0.2c-0.1-0.1-0.1-0.3-0.1-0.5c0-0.2,0-0.3,0.1-0.5C127.4,35.2,127.6,35.1,127.8,35.1L127.8,35.1z
				 M129.8,30.6l1.1,0.9c0,0,0,0.1,0,0.1l-0.7,0.9c0,0.1-0.1,0.1-0.1,0l-1.1-0.9c0,0,0-0.1,0-0.1l0.7-0.9
				C129.7,30.5,129.8,30.5,129.8,30.6z"/>
			<path class="st0" d="M142,27.7c-0.3,0.1-0.6,0.3-1,0.4c-0.3,0.1-0.7,0.3-1,0.4c-0.3,0.1-0.6,0.3-0.9,0.4
				c-0.3,0.1-0.5,0.2-0.7,0.3c0,0-0.1,0-0.1,0c0,0,0,0,0-0.1c0,0,0-0.1,0.1-0.2c0-0.1,0.1-0.2,0.1-0.3c0-0.1,0.1-0.2,0.1-0.2
				c0-0.1,0.1-0.1,0.1-0.1c0.1-0.1,0.1-0.1,0.2-0.2l3.4-1.4c0.1,0,0.1,0,0.1,0.1c0,0.1-0.1,0.1-0.1,0.2c0,0.1-0.1,0.1-0.1,0.2
				c0,0.1-0.1,0.1-0.1,0.2c0,0.1-0.1,0.1-0.1,0.2C142.1,27.6,142.1,27.6,142,27.7z"/>
			<path class="st0" d="M141.4,34.1C141.4,34.1,141.4,34,141.4,34.1c0.1,0,0.1,0,0.2,0.1c0.2,0.2,0.4,0.4,0.6,0.5
				c0.2,0.1,0.4,0.2,0.6,0.3c0.2,0.1,0.4,0.1,0.6,0.1c0.2,0,0.4,0,0.6,0h0.2c0.2,0,0.3,0.1,0.4,0.2c0.1,0.1,0.1,0.3,0.1,0.5
				c0,0.2,0,0.3-0.1,0.5c-0.1,0.1-0.2,0.2-0.4,0.2H144c-0.1,0-0.1,0-0.2,0c-0.1,0-0.2,0-0.3,0c-0.1,0-0.2,0-0.3,0
				c-0.1,0-0.2,0-0.3,0c-0.1,0.4-0.2,0.8-0.3,1.2c-0.1,0.4-0.2,0.7-0.3,0.9c-0.1,0.3-0.2,0.5-0.3,0.7c-0.1,0.2-0.2,0.3-0.2,0.4
				c-0.2,0.3-0.4,0.5-0.7,0.7c-0.2,0.2-0.5,0.4-0.8,0.5s-0.5,0.2-0.8,0.3c-0.3,0.1-0.6,0.1-0.9,0.1c-0.4,0-0.9,0-1.4,0
				c-0.5-0.1-1-0.2-1.5-0.4c-0.1,0-0.1-0.1-0.2-0.1c0,0,0-0.1,0-0.1c0,0,0.1-0.1,0.2-0.1s0.2,0,0.3,0c0.7,0.1,1.4,0.1,2-0.1
				c0.6-0.1,1.2-0.4,1.8-0.7c0.7-0.4,1.3-0.9,1.7-1.4c0.4-0.6,0.7-1.2,0.9-1.9c-0.2-0.1-0.4-0.2-0.7-0.4c-0.2-0.2-0.4-0.3-0.5-0.5
				c0-0.2,0.1-0.4,0.1-0.6C141.3,34.6,141.3,34.3,141.4,34.1z M140.6,30.4l1.1,0.9c0,0,0,0.1,0,0.1l-0.7,0.9c0,0.1-0.1,0.1-0.1,0
				l-1.1-0.9c0,0,0-0.1,0-0.1l0.7-0.9C140.5,30.4,140.5,30.4,140.6,30.4z"/>
			<path class="st0" d="M146.1,31.7C146.1,31.6,146.1,31.6,146.1,31.7c0.1-0.1,0.1,0,0.2,0c0.2,0.2,0.3,0.3,0.4,0.5
				c0.1,0.2,0.3,0.4,0.4,0.6c0.1,0.2,0.2,0.4,0.3,0.7c0.1,0.2,0.1,0.4,0.1,0.7c0,0.1,0,0.2,0,0.3c0,0.1,0,0.3-0.1,0.4
				c0,0.1-0.1,0.2-0.1,0.4c0,0.1-0.1,0.2-0.1,0.3c-0.1,0.2-0.3,0.4-0.6,0.5c-0.3,0.1-0.5,0.2-0.8,0.3c-0.3,0.1-0.6,0.1-0.9,0.1
				c-0.3,0-0.6,0-0.8,0h-0.2c-0.2,0-0.3-0.1-0.4-0.2c-0.1-0.1-0.1-0.3-0.1-0.5c0-0.2,0-0.3,0.1-0.5c0.1-0.1,0.2-0.2,0.4-0.2h0.2
				c0.1,0,0.3,0,0.6,0c0.2,0,0.5,0,0.8,0c0.3,0,0.5-0.1,0.8-0.1c0.3,0,0.5-0.1,0.6-0.2c0.1-0.1,0.1-0.1,0.1-0.2
				c-0.1-0.3-0.2-0.6-0.4-0.9c-0.2-0.2-0.4-0.5-0.7-0.7c0-0.2,0.1-0.4,0.2-0.6C146,32.1,146,31.9,146.1,31.7z M145.6,27.8l1.1,0.9
				c0,0,0,0.1,0,0.1l-0.7,0.9c0,0.1-0.1,0.1-0.1,0l-1.1-0.9c0,0,0-0.1,0-0.1l0.7-0.9C145.5,27.7,145.6,27.7,145.6,27.8z"/>
			<path d="M151.7,18.9c-0.3,0.1-0.6,0.3-1,0.4c-0.3,0.1-0.7,0.3-1,0.4c-0.3,0.1-0.6,0.3-0.9,0.4c-0.3,0.1-0.5,0.2-0.7,0.3
				c0,0-0.1,0-0.1,0c0,0,0,0,0-0.1c0,0,0-0.1,0.1-0.2c0-0.1,0.1-0.2,0.1-0.3c0-0.1,0.1-0.2,0.1-0.2c0-0.1,0.1-0.1,0.1-0.1
				c0.1-0.1,0.1-0.1,0.2-0.2l3.4-1.4c0.1,0,0.1,0,0.1,0.1c0,0.1-0.1,0.1-0.1,0.2c0,0.1-0.1,0.1-0.1,0.2c0,0.1-0.1,0.1-0.1,0.2
				c0,0.1-0.1,0.1-0.1,0.2C151.8,18.8,151.7,18.8,151.7,18.9z"/>
			<path d="M148.7,23.9c0,0,0.1-0.1,0.2-0.1c0.1,0,0.1-0.1,0.2-0.1c0.1,0,0.1-0.1,0.2-0.1c0.1,0,0.1-0.1,0.2-0.1
				c-0.1-0.1-0.3-0.2-0.4-0.3c-0.1-0.1-0.2-0.3-0.3-0.5c0-0.1,0-0.2,0-0.2c0-0.1,0-0.2,0.1-0.2c0.1-0.1,0.2-0.3,0.3-0.4
				c0.1-0.1,0.3-0.3,0.4-0.4c0.1-0.1,0.3-0.2,0.5-0.3c0.2-0.1,0.3-0.1,0.5-0.1c0.1,0,0.1,0,0.2,0.1c0.1,0,0.1,0.1,0.2,0.2
				c0,0.1,0.1,0.1,0.1,0.2c0,0.1,0.1,0.1,0.1,0.2c0,0.1,0,0.2,0,0.3l-0.2,0.3c-0.1,0.1-0.1,0.2-0.2,0.2c-0.1,0-0.1,0-0.1-0.1
				c0-0.1,0-0.2-0.1-0.2c-0.1-0.1-0.1-0.2-0.2-0.2c-0.1,0-0.1-0.1-0.2-0.1c-0.3,0-0.5,0.1-0.8,0.3c0.1,0.2,0.2,0.4,0.4,0.6
				c0.2,0.2,0.4,0.3,0.6,0.3c0.3,0,0.6,0,0.9,0c0.3-0.1,0.6-0.1,0.9-0.2c0,0,0,0.1,0,0.1c0,0.1-0.1,0.2-0.1,0.3
				c0,0.1-0.1,0.2-0.1,0.3c0,0.1-0.1,0.1-0.1,0.1c-0.2,0-0.5,0.1-0.8,0.1c-0.3,0.1-0.5,0.1-0.8,0.2c-0.3,0.1-0.6,0.2-0.9,0.3
				s-0.6,0.3-0.9,0.4c-0.1,0-0.1,0-0.1-0.1c0-0.1,0.1-0.2,0.1-0.4C148.6,24.1,148.6,24,148.7,23.9z M149.9,25.2
				C150,25.2,150,25.2,149.9,25.2c0.1,0.1,0.1,0.1,0.1,0.1c0,0,0,0.1,0,0.1c0,0,0,0.1,0,0.1c0,0.2,0,0.4,0,0.6c0,0.2,0,0.4,0.1,0.6
				c0.1,0.5,0.1,1,0.2,1.6c0.1,0.5,0.2,1.1,0.2,1.7c0.1,0.6,0.2,1.1,0.2,1.7c0.1,0.5,0.1,1.1,0.2,1.6c0,0.2,0,0.4,0,0.7
				c0,0.3,0,0.5,0,0.8c0,0.3,0,0.5-0.1,0.8c0,0.3-0.1,0.5-0.2,0.7c0,0.1-0.1,0.2-0.2,0.2c0,0-0.1,0-0.1-0.1c-0.1-1-0.2-2-0.3-3.1
				c-0.2-1.1-0.3-2.2-0.5-3.2c-0.2-1.1-0.3-2.2-0.4-3.2c0-0.3,0.1-0.5,0.2-0.8c0.1-0.2,0.1-0.3,0.2-0.4
				C149.8,25.4,149.9,25.3,149.9,25.2z"/>
			<path d="M161.5,27.3c-0.1,0.3-0.3,0.5-0.4,0.6c-0.2,0.1-0.4,0.2-0.6,0.2c-0.2,0-0.4,0-0.5-0.1c-0.1-0.1-0.2-0.3-0.3-0.5
				c0-0.1,0-0.2,0-0.4c0-0.1,0.1-0.2,0.1-0.4c0-0.1,0.1-0.2,0.2-0.3c0.1-0.1,0.1-0.1,0.2-0.2c0.1,0,0.1,0,0,0.2c0,0.1,0,0.1-0.1,0.2
				c0,0.1,0,0.2,0,0.3c0,0.1,0,0.2,0,0.2c0,0.1,0.1,0.1,0.1,0.1c0.1,0.1,0.2,0.1,0.3,0.1c0.1,0,0.2,0,0.3-0.1c0.1,0,0.2-0.1,0.3-0.2
				c0.1-0.1,0.2-0.1,0.2-0.2c0.1-0.1,0.1-0.2,0.1-0.3c0-0.1,0.1-0.2,0.1-0.3c0,0,0-0.1,0-0.1c0,0,0-0.1,0-0.1c0,0,0-0.1,0.1-0.1
				c0,0,0.1,0,0.1-0.1c0,0,0,0,0.1,0c0,0,0,0.1,0,0.1c0,0,0,0.1,0,0.1s0,0.1,0,0.1c0,0.2,0,0.3,0.1,0.4c0.1,0.1,0.2,0.2,0.3,0.2
				c0.1,0,0.2,0,0.3,0c0.1,0,0.2-0.1,0.3-0.2c0,0,0-0.1,0-0.1c0-0.1,0-0.1,0-0.2c0-0.1,0-0.1,0-0.2c0,0,0-0.1,0-0.1c0,0,0-0.1,0-0.1
				c0-0.1,0-0.2,0.1-0.2c0-0.1,0.1-0.2,0.1-0.2c0-0.1,0.1-0.1,0.1-0.1c0.1,0,0.1,0,0.1,0.1c0,0.1,0.1,0.2,0.1,0.3c0,0.1,0,0.3,0,0.4
				c0,0.1,0,0.3,0,0.4c0,0.1-0.1,0.2-0.1,0.3c0,0.1-0.1,0.2-0.2,0.3c-0.1,0.1-0.1,0.2-0.2,0.2c-0.1,0.1-0.2,0.1-0.3,0.1
				c-0.2,0-0.4,0-0.5,0C161.8,27.5,161.6,27.4,161.5,27.3z"/>
			<path d="M163.5,42.6c-0.6,0.2-1.2,0.4-1.7,0.6c-0.5,0.2-1.1,0.4-1.6,0.6c-0.1,0-0.1,0-0.1-0.1c0-0.1,0.1-0.2,0.2-0.4
				c0.1-0.1,0.1-0.2,0.2-0.3c0,0,0.1-0.1,0.1-0.1c0.1-0.1,0.3-0.1,0.6-0.2c0.3-0.1,0.5-0.2,0.8-0.3c0.3-0.1,0.6-0.2,1-0.3
				c0.3-0.1,0.7-0.2,1-0.3c0.1,0,0.1,0,0.1,0.1c0,0.1-0.1,0.1-0.1,0.2c0,0.1-0.1,0.1-0.1,0.2c0,0.1-0.1,0.1-0.1,0.2
				c0,0.1-0.1,0.1-0.1,0.1C163.6,42.6,163.6,42.6,163.5,42.6C163.5,42.6,163.5,42.6,163.5,42.6z"/>
			<path d="M164,36.5c-0.1,0-0.2,0-0.3,0c-0.1,0-0.3,0-0.5,0c-0.2,0-0.3,0-0.5,0c-0.2,0-0.3,0-0.5,0c-0.2,0-0.4-0.1-0.5-0.2
				c-0.1-0.1-0.3-0.2-0.3-0.3c-0.1-0.1-0.1-0.3-0.2-0.4c0-0.2-0.1-0.3-0.1-0.5c0-0.2,0-0.4,0.1-0.7c0.1-0.2,0.1-0.5,0.2-0.7
				c0.1-0.2,0.3-0.4,0.4-0.6c0.2-0.2,0.4-0.2,0.6-0.2c0.2,0,0.5,0.1,0.7,0.2c0.2,0.2,0.4,0.4,0.6,0.6s0.3,0.5,0.4,0.7
				c0.1,0.3,0.2,0.5,0.3,0.7h1h0.2c0.2,0,0.3,0.1,0.4,0.2c0.1,0.1,0.1,0.3,0.1,0.5c0,0.2,0,0.3-0.1,0.5c-0.1,0.1-0.2,0.2-0.4,0.2h-1
				c0,0.2,0,0.3,0,0.6c0,0.2,0,0.4-0.1,0.6c-0.1,0.5-0.3,1-0.7,1.4c-0.3,0.4-0.7,0.7-1.2,1c-0.5,0.3-1,0.5-1.5,0.6
				c-0.5,0.1-1,0.2-1.5,0.2c-0.5,0-1-0.1-1.4-0.2c-0.4-0.2-0.8-0.4-1.1-0.6c-0.3-0.3-0.5-0.6-0.7-1c-0.2-0.4-0.2-0.9-0.2-1.4
				c0-0.6,0.1-1.1,0.3-1.6c0.2-0.5,0.4-1,0.7-1.5c0-0.1,0.1-0.1,0.1-0.1c0,0,0,0,0.1,0c0,0,0,0.1,0,0.1c0,0,0,0.1,0,0.1
				c-0.1,0.3-0.3,0.6-0.3,0.8c-0.1,0.3-0.2,0.6-0.2,0.8c0,0.3,0,0.5,0,0.8c0,0.3,0.1,0.5,0.2,0.7c0.1,0.2,0.2,0.4,0.4,0.6
				c0.1,0.2,0.3,0.4,0.5,0.5c0.2,0.1,0.5,0.3,0.8,0.3c0.3,0.1,0.6,0.1,1,0.1c0.4,0,0.8-0.1,1.2-0.1c0.4-0.1,0.8-0.2,1.2-0.4
				c0.4-0.2,0.7-0.4,1.1-0.6c0.3-0.2,0.6-0.5,0.9-0.9c0-0.1,0-0.1,0-0.2c0-0.1,0-0.2,0-0.3c0-0.1,0-0.2-0.1-0.3
				C164.1,36.6,164.1,36.5,164,36.5z M163.3,31.2c-0.1,0-0.1,0-0.2,0l-1.1-0.8l-0.6,0.9c0,0,0,0-0.1,0c0,0-0.1,0-0.1,0l-1.1-0.8
				c0,0,0,0,0,0c0,0,0,0,0-0.1l0.7-0.9c0,0,0,0,0.1-0.1c0,0,0,0,0.1,0l1.1,0.8l0.7-0.9c0,0,0,0,0,0c0,0,0,0,0.1,0l1.1,0.8
				c0,0,0,0.1,0,0.1L163.3,31.2z M161.8,34.8c0,0.1,0.1,0.2,0.3,0.2c0.1,0.1,0.3,0.1,0.4,0.1c0.2,0,0.3,0,0.5,0c0.2,0,0.4,0,0.5,0
				c0-0.1-0.1-0.2-0.1-0.3c-0.1-0.1-0.2-0.2-0.3-0.3c-0.1-0.1-0.2-0.2-0.3-0.2c-0.1-0.1-0.2-0.1-0.3-0.1c-0.1,0-0.1,0-0.2,0.1
				c-0.1,0-0.2,0.1-0.2,0.1c-0.1,0.1-0.1,0.1-0.2,0.2C161.8,34.6,161.8,34.7,161.8,34.8z"/>
			<path d="M168.5,29.2c-0.3,0.1-0.6,0.3-1,0.4c-0.3,0.1-0.7,0.3-1,0.4c-0.3,0.1-0.6,0.3-0.9,0.4c-0.3,0.1-0.5,0.2-0.7,0.3
				c0,0-0.1,0-0.1,0c0,0,0,0,0-0.1c0,0,0-0.1,0.1-0.2c0-0.1,0.1-0.2,0.1-0.3c0-0.1,0.1-0.2,0.1-0.2c0-0.1,0.1-0.1,0.1-0.1
				c0.1-0.1,0.1-0.1,0.2-0.2l3.4-1.4c0.1,0,0.1,0,0.1,0.1c0,0.1-0.1,0.1-0.1,0.2c0,0.1-0.1,0.1-0.1,0.2c0,0.1-0.1,0.1-0.1,0.2
				c0,0.1-0.1,0.1-0.1,0.2C168.6,29.1,168.6,29.2,168.5,29.2z"/>
			<path d="M170.4,20.8c0,0.2,0,0.4-0.1,0.6c-0.1,0.2-0.1,0.4-0.2,0.5c-0.1,0.1-0.3,0.3-0.4,0.3c-0.2,0.1-0.4,0.1-0.6,0.1
				c-0.3,0-0.6-0.1-0.8-0.3c-0.2-0.2-0.3-0.4-0.3-0.8c0-0.2,0-0.4,0.1-0.6c0-0.2,0.1-0.5,0.2-0.7s0.2-0.4,0.4-0.6
				c0.2-0.2,0.4-0.3,0.6-0.3c0.2,0,0.4,0,0.6,0.1c0.1,0.1,0.3,0.3,0.3,0.4c0.1,0.2,0.1,0.4,0.2,0.5
				C170.4,20.5,170.4,20.7,170.4,20.8z M169.1,20.2c-0.1,0-0.2,0.1-0.3,0.1c-0.1,0.1-0.2,0.1-0.2,0.2c-0.1,0.1-0.1,0.2-0.2,0.3
				c0,0.1-0.1,0.2-0.1,0.3c0,0.1,0,0.2,0.1,0.2c0.1,0.1,0.1,0.1,0.2,0.1c0.1,0,0.2,0,0.3,0.1c0.1,0,0.2,0,0.2,0
				c0.3,0,0.6-0.2,0.8-0.4c0-0.1,0-0.2,0-0.3c0-0.1-0.1-0.2-0.2-0.3c-0.1-0.1-0.2-0.2-0.3-0.2C169.4,20.2,169.2,20.2,169.1,20.2z"/>
			<path d="M170.3,32.2c0.3,0.1,0.6,0.2,0.9,0.2c0.3,0.1,0.5,0.1,0.8,0.2c0.3,0.1,0.5,0.1,0.8,0.2c0.2,0.1,0.5,0.1,0.8,0.1
				c0.4,0.1,0.8,0.1,1.2,0.1s0.8,0,1.3,0.1c0.1,0,0.1,0.1,0.1,0.1c0,0.1-0.1,0.1-0.1,0.2c0,0.1-0.1,0.2-0.2,0.3
				c-0.1,0.1-0.1,0.2-0.2,0.3c-0.1,0.1-0.1,0.2-0.1,0.2c0,0-0.1,0.1-0.1,0.1c0,0-0.1,0-0.2,0c-0.5-0.1-0.9-0.1-1.3-0.1
				c-0.4,0-0.8,0.1-1.2,0.1c-0.4,0.1-0.8,0.2-1.1,0.3c-0.4,0.1-0.8,0.3-1.1,0.4c-0.4,0.2-0.8,0.3-1.2,0.5c-0.4,0.2-0.8,0.3-1.1,0.4
				c-0.4,0.1-0.8,0.2-1.2,0.3c-0.4,0.1-0.9,0.1-1.3,0.1h-0.2c-0.2,0-0.3-0.1-0.4-0.2c-0.1-0.1-0.1-0.3-0.1-0.5c0-0.2,0-0.3,0.1-0.5
				c0.1-0.1,0.2-0.2,0.4-0.2h0.2c0.3,0,0.7,0,1,0c0.4,0,0.8-0.1,1.2-0.2c0.5-0.1,1-0.2,1.5-0.4c0.6-0.2,1.2-0.4,1.8-0.7
				c-0.4-0.1-0.9-0.3-1.3-0.4c-0.4-0.1-0.8-0.2-1.2-0.2c-0.4-0.1-0.8-0.1-1.3-0.1c-0.4,0-0.9,0-1.3,0.1c-0.1,0-0.1,0,0-0.1
				c0.1-0.2,0.2-0.4,0.3-0.6s0.2-0.4,0.4-0.5c0,0,0.2-0.1,0.4-0.1c0.2,0,0.5-0.1,0.8-0.1c0.3,0,0.6-0.1,0.9-0.1
				c0.3,0,0.6-0.1,0.9-0.1c0.1,0,0.2,0,0.3-0.1c0.1,0,0.1-0.1,0.1-0.2c0-0.3-0.1-0.7-0.1-1.1c-0.1-0.4-0.1-0.8-0.2-1.3
				c-0.1-0.4-0.1-0.9-0.2-1.4s-0.2-0.9-0.2-1.3c0-0.1-0.1-0.3-0.1-0.4c0-0.1,0-0.3-0.1-0.4c0-0.1-0.1-0.3-0.1-0.4
				c-0.1-0.1-0.1-0.2-0.2-0.3c0.1-0.2,0.2-0.4,0.3-0.6c0.1-0.2,0.2-0.4,0.3-0.6c0-0.1,0.1-0.1,0.1-0.1c0,0,0.1,0,0.1,0.1
				c0.1,0.1,0.1,0.3,0.2,0.4c0.1,0.1,0.1,0.3,0.2,0.4c0.1,0.1,0.2,0.3,0.3,0.4c0.1,0.1,0.2,0.2,0.4,0.3c0,0.1-0.1,0.2-0.1,0.3
				c-0.1,0.1-0.1,0.2-0.2,0.3c-0.1,0.1-0.1,0.2-0.1,0.3c0,0.1,0,0.2,0,0.3c0,0.1,0.1,0.3,0.1,0.5c0,0.3,0.1,0.6,0.2,0.9
				c0.1,0.4,0.1,0.7,0.2,1.1c0.1,0.4,0.1,0.7,0.1,1c0,0.2,0,0.3,0,0.5c0,0.2,0,0.4,0,0.6c0,0.2-0.1,0.4-0.1,0.6
				C170.5,31.9,170.4,32.1,170.3,32.2z"/>
			<path d="M177.2,26.2c0-0.2,0.1-0.4,0.2-0.6c0.1-0.2,0.2-0.4,0.3-0.6c0,0,0,0,0.1,0c0,0,0.1,0,0.1,0c0.1,0.3,0.1,0.7,0.2,1
				c0.1,0.3,0.1,0.7,0.2,1.1c0.1,0.4,0.1,0.8,0.2,1.3c0.1,0.5,0.1,1,0.2,1.6c0,0.4,0.1,0.8,0.1,1.2c0,0.3,0.1,0.6,0.1,0.9
				c0,0.3,0.1,0.5,0.1,0.7c0,0.2,0.1,0.4,0.1,0.7c0.1,0.3,0.1,0.6,0.2,0.8c0.1,0.2,0.2,0.4,0.4,0.5c0.2,0.1,0.3,0.2,0.6,0.3
				c0.2,0.1,0.5,0.1,0.8,0.1h0.1c0.2,0,0.3,0.1,0.4,0.2c0.1,0.1,0.1,0.3,0.1,0.5c0,0.2,0,0.3-0.1,0.5c-0.1,0.1-0.2,0.2-0.4,0.2h-0.1
				c-0.5,0-0.8-0.1-1.1-0.2c-0.3-0.1-0.6-0.3-0.8-0.6c-0.2-0.2-0.4-0.5-0.5-0.9s-0.2-0.7-0.2-1.1c0-0.3-0.1-0.7-0.1-1
				c0-0.4-0.1-0.7-0.1-1.1c0-0.3-0.1-0.7-0.1-1c0-0.3-0.1-0.6-0.1-0.9c-0.1-0.5-0.1-1.1-0.2-1.6c-0.1-0.5-0.2-1.1-0.4-1.7
				C177.3,26.3,177.2,26.3,177.2,26.2C177.2,26.2,177.2,26.2,177.2,26.2z"/>
			<path d="M184.2,43.1c-0.6,0.2-1.2,0.4-1.7,0.6c-0.5,0.2-1.1,0.4-1.6,0.6c-0.1,0-0.1,0-0.1-0.1c0-0.1,0.1-0.2,0.2-0.4
				c0.1-0.1,0.1-0.2,0.2-0.3c0,0,0.1-0.1,0.1-0.1c0.1-0.1,0.3-0.1,0.6-0.2c0.3-0.1,0.5-0.2,0.8-0.3c0.3-0.1,0.6-0.2,1-0.3
				c0.3-0.1,0.7-0.2,1-0.3c0.1,0,0.1,0,0.1,0.1c0,0.1-0.1,0.1-0.1,0.2s-0.1,0.1-0.1,0.2c0,0.1-0.1,0.1-0.1,0.2
				c0,0.1-0.1,0.1-0.1,0.1C184.3,43,184.3,43,184.2,43.1C184.2,43.1,184.2,43.1,184.2,43.1z"/>
			<path d="M183.7,31.6C183.7,31.6,183.7,31.6,183.7,31.6c0.1-0.1,0.1,0,0.2,0c0.2,0.2,0.3,0.3,0.4,0.5c0.1,0.2,0.3,0.4,0.4,0.6
				c0.1,0.2,0.2,0.4,0.3,0.7c0.1,0.2,0.1,0.4,0.1,0.7c0,0.1,0,0.2,0,0.3c0,0.1,0,0.3-0.1,0.4c0,0.1-0.1,0.2-0.1,0.4
				c0,0.1-0.1,0.2-0.1,0.3c-0.1,0.1-0.2,0.3-0.4,0.4c-0.2,0.1-0.4,0.2-0.6,0.3c-0.2,0.1-0.5,0.1-0.7,0.2c-0.3,0-0.5,0.1-0.7,0.1
				c-0.2,0-0.5,0-0.7,0.1c-0.2,0-0.4,0-0.6,0h-0.2c-0.2,0-0.3-0.1-0.4-0.2c-0.1-0.1-0.1-0.3-0.1-0.5c0-0.2,0-0.3,0.1-0.5
				c0.1-0.1,0.2-0.2,0.4-0.2h0.2c0.1,0,0.2,0,0.4,0c0.2,0,0.4,0,0.6,0c0.2,0,0.4,0,0.7,0c0.2,0,0.5,0,0.7-0.1c0.2,0,0.4-0.1,0.6-0.1
				c0.2,0,0.3-0.1,0.4-0.1c0.1-0.1,0.1-0.1,0.1-0.2c-0.1-0.3-0.2-0.6-0.4-0.9c-0.2-0.2-0.4-0.5-0.7-0.7c0-0.2,0.1-0.4,0.2-0.6
				C183.6,32,183.6,31.8,183.7,31.6z M182.2,38.3l1.1,0.9c0,0,0,0,0,0.1c0,0,0,0,0,0.1l-0.7,0.9c0,0-0.1,0-0.1,0l-1.1-0.9
				c0,0,0-0.1,0-0.1l0.7-0.9C182.1,38.3,182.1,38.3,182.2,38.3z"/>
			<path d="M190.3,27.9c-0.3,0.1-0.6,0.3-1,0.4c-0.3,0.1-0.7,0.3-1,0.4c-0.3,0.1-0.6,0.3-0.9,0.4c-0.3,0.1-0.5,0.2-0.7,0.3
				c0,0-0.1,0-0.1,0c0,0,0,0,0-0.1c0,0,0-0.1,0.1-0.2c0-0.1,0.1-0.2,0.1-0.3c0-0.1,0.1-0.2,0.1-0.2c0-0.1,0.1-0.1,0.1-0.1
				c0.1-0.1,0.1-0.1,0.2-0.2l3.4-1.4c0.1,0,0.1,0,0.1,0.1c0,0.1-0.1,0.1-0.1,0.2c0,0.1-0.1,0.1-0.1,0.2c0,0.1-0.1,0.1-0.1,0.2
				c0,0.1-0.1,0.1-0.1,0.2C190.4,27.8,190.4,27.8,190.3,27.9z"/>
			<path d="M191,34.9c-0.1,0.2-0.2,0.5-0.4,0.6c-0.2,0.2-0.5,0.3-0.8,0.3c-0.2,0-0.3,0-0.5-0.1c-0.1-0.1-0.3-0.2-0.4-0.3
				c-0.1-0.1-0.2-0.3-0.2-0.5c-0.1-0.2-0.1-0.3-0.1-0.5c0-0.1,0-0.3,0.1-0.4s0.1-0.3,0.2-0.5c0.1-0.2,0.1-0.3,0.2-0.5
				c0.1-0.2,0.2-0.3,0.3-0.4c0.1-0.1,0.2-0.2,0.3-0.3s0.2-0.1,0.4-0.1c0.2,0,0.4,0.1,0.6,0.3c0.2,0.2,0.4,0.4,0.5,0.7
				c0.1,0.3,0.3,0.6,0.3,0.9c0.1,0.3,0.1,0.7,0.1,1c0,0.4-0.1,0.9-0.2,1.3c-0.1,0.5-0.2,0.9-0.4,1.3c-0.2,0.4-0.4,0.9-0.6,1.2
				c-0.2,0.4-0.5,0.7-0.7,1c-0.2,0.3-0.5,0.5-0.8,0.6c-0.3,0.2-0.6,0.3-0.9,0.4c-0.3,0.1-0.6,0.2-1,0.2s-0.7,0-1,0
				c-0.4,0-0.7-0.1-1.1-0.1c-0.3-0.1-0.7-0.1-1-0.2c0,0-0.1,0-0.1-0.1c0,0,0-0.1,0-0.1c0,0,0.1-0.1,0.1-0.1c0,0,0.1,0,0.2,0
				c0.5,0.1,0.9,0,1.4,0c0.5-0.1,0.9-0.2,1.3-0.3c0.4-0.1,0.7-0.3,1-0.5c0.3-0.2,0.7-0.5,1-0.7c0.2-0.2,0.4-0.4,0.7-0.7
				c0.2-0.3,0.4-0.5,0.6-0.8c0.2-0.3,0.3-0.6,0.4-0.9c0.1-0.3,0.2-0.6,0.3-0.8c0-0.1,0-0.1,0-0.2c0-0.1,0-0.1,0-0.2
				c0-0.1,0-0.1,0-0.2C191,34.9,191,34.9,191,34.9z M190.7,34.1c0,0,0-0.1-0.1-0.2c0-0.1-0.1-0.2-0.2-0.3c-0.1-0.1-0.2-0.2-0.3-0.2
				c-0.1-0.1-0.2-0.1-0.3-0.1c-0.1,0-0.2,0-0.2,0.1c-0.1,0.1-0.1,0.1-0.2,0.2c0,0.1-0.1,0.2-0.1,0.2c0,0.1,0,0.1,0,0.2
				c0.1,0.1,0.2,0.2,0.3,0.2c0.1,0,0.3,0.1,0.4,0.1c0.2,0,0.3,0,0.4-0.1C190.5,34.2,190.6,34.1,190.7,34.1z"/>
			<path d="M206.9,32c0,0.1-0.1,0.3-0.2,0.4c-0.2,0.2-0.4,0.4-0.8,0.6c0,0.4-0.1,0.7-0.2,1.1c-0.1,0.3-0.2,0.5-0.3,0.5
				c-0.4-0.4-0.7-0.7-1.1-1c-0.4-0.3-0.8-0.5-1.2-0.5c0,0.4,0.2,0.8,0.6,1.2c0.3,0.3,0.6,0.7,0.9,1c0,0.2-0.3,0.3-1,0.5
				c-0.5,0.1-0.9,0.1-1.2,0.1c-0.5,1.4-1.1,2.7-2,3.9c-0.4,0.5-0.9,1.1-1.5,1.7c-0.8,0.8-1.4,1.2-1.8,1.2c-0.1,0-0.2-0.1-0.2-0.2
				c0-0.1,0.2-0.4,0.7-0.9c0.7-0.8,1.2-1.4,1.5-2.1c0.6-1.1,1-2.3,1.2-3.7c-0.4-0.1-0.7-0.1-0.8-0.2c-0.1-0.1-0.2-0.1-0.2-0.3
				c0.9-0.8,1.4-1.5,1.4-2.2c-0.4,0-0.8,0.2-1.2,0.5c-0.2,0.2-0.6,0.6-1,1c-0.1,0-0.2-0.2-0.4-0.5c-0.1-0.4-0.2-0.7-0.2-1.1
				c-0.4-0.2-0.6-0.4-0.7-0.4c-0.3-0.2-0.4-0.4-0.4-0.6c0-0.1,0.1-0.3,0.2-0.4c0.1-0.1,0.4-0.3,0.8-0.5c0-1.1,0.2-1.6,0.6-1.6
				c0.8,0.9,1.5,1.3,2.2,1.4c0-0.3-0.2-0.8-0.5-1.2c0,0-0.3-0.4-0.9-1c0-0.1,0.1-0.2,0.2-0.2c0.2-0.1,0.4-0.1,0.9-0.2
				c-0.2-1.1-0.6-2.2-1.3-3.3c-0.6-1.1-1.4-2.1-2.2-2.8c-0.1-0.1-0.2-0.2-0.2-0.3s0.1-0.2,0.3-0.2c0.3,0,0.7,0.2,1.3,0.6
				c1.8,1.3,3.2,3.2,4.1,5.8c1.4,0,2.1,0.2,2.1,0.6c-0.4,0.3-0.7,0.7-0.9,1c-0.3,0.4-0.4,0.8-0.4,1.2c0.3,0,0.7-0.2,1-0.5l1.1-1
				c0.2,0,0.4,0.5,0.5,1.4c0,0.1,0,0.2,0,0.3C206.5,31.4,206.9,31.7,206.9,32z M203.7,28.7c0,0-0.1-0.1-0.4-0.1
				c-0.2,0-0.4-0.1-0.5-0.1h-0.4c-0.1,0-0.2,0-0.3,0.1c-0.4-1.2-0.9-2.4-1.7-3.5c-0.9-1.2-1.8-2.2-3-3c0.8,0.7,1.4,1.6,2,2.6
				c0.7,1.2,1.2,2.5,1.4,3.8c-0.5,0-0.8,0.1-0.8,0.2c0.6,0.5,1,1,1.3,1.5c0.1-0.2,0.2-0.5,0.3-0.7c0,0,0.1-0.1,0.1-0.3
				c0.1-0.2,0.1-0.3,0.2-0.3c0.2,0,0.4,0.5,0.7,1.4c0.2-0.3,0.3-0.7,0.6-0.9C203.3,29.2,203.5,29,203.7,28.7z M200.3,32.7
				c-0.1-0.1-0.5-0.2-1.1-0.4c-0.4-0.1-0.6-0.2-0.6-0.3c0,0,0.3-0.2,0.9-0.4c0.1-0.1,0.4-0.2,0.7-0.3c-0.3-0.1-0.7-0.3-1-0.5
				c-0.1-0.1-0.4-0.3-0.7-0.6c-0.1,0-0.2,0.4-0.2,1.2c-0.6,0.3-0.9,0.6-0.9,0.7c0,0.2,0.3,0.3,0.9,0.6c0,0.8,0.1,1.3,0.3,1.3
				c0,0,0.2-0.2,0.6-0.5C199.8,33,200.1,32.8,200.3,32.7z M203.9,35.3c-0.5-0.4-0.9-0.9-1.2-1.4c-0.1,0.2-0.2,0.4-0.3,0.7
				c0,0-0.1,0.2-0.2,0.4c-0.1,0.2-0.2,0.3-0.2,0.3c0,0-0.1-0.1-0.2-0.3c-0.1-0.2-0.1-0.3-0.2-0.3c0-0.1-0.1-0.3-0.3-0.7
				c-0.1,0.3-0.3,0.6-0.5,0.8c-0.2,0.2-0.4,0.4-0.6,0.6c0,0.1,0.3,0.1,0.8,0.3c-0.3,1.3-0.5,2.1-0.6,2.4c-0.5,1.4-1.3,2.8-2.4,4.1
				c1.9-1.3,3.3-3.4,4.3-6.5c0.7,0,1,0,0.9,0C203.6,35.5,203.8,35.4,203.9,35.3z M203.2,32c0-0.4-0.1-0.7-0.4-0.9
				c-0.2-0.2-0.6-0.3-0.9-0.3c-0.3,0-0.6,0.1-0.9,0.4c-0.3,0.2-0.4,0.5-0.4,0.9c0,0.4,0.1,0.7,0.4,0.9c0.3,0.2,0.6,0.4,0.9,0.4
				c0.4,0,0.7-0.1,0.9-0.4C203.1,32.7,203.2,32.4,203.2,32z M206.4,32c0-0.1-0.1-0.2-0.2-0.3c-0.2-0.1-0.4-0.2-0.7-0.3
				c0-0.4,0-0.7-0.1-0.9c-0.1-0.2-0.1-0.4-0.2-0.4c0,0-0.2,0.2-0.5,0.5c-0.3,0.3-0.7,0.6-1.1,0.7c0.2,0.1,0.4,0.2,0.8,0.4
				c0,0,0.2,0.1,0.6,0.2c0.3,0.1,0.4,0.2,0.4,0.2c0,0.1-0.2,0.2-0.6,0.3c-0.6,0.2-1,0.3-1.1,0.3c0.4,0.1,0.7,0.3,1,0.5
				c0.1,0.1,0.4,0.3,0.6,0.6c0.1,0,0.1-0.1,0.2-0.3c0-0.1,0-0.4,0-0.8C206.1,32.3,206.4,32.1,206.4,32z"/>
		</g>
	</g>
	<rect class="st1" width="243.3" height="62.3"/>
</g>
</svg>
