<?xml version="1.0" encoding="utf-8"?>
<!-- Generator: Adobe Illustrator 19.2.0, SVG Export Plug-In . SVG Version: 6.00 Build 0)  -->
<svg version="1.1" id="Layer_1" xmlns="http://www.w3.org/2000/svg" xmlns:xlink="http://www.w3.org/1999/xlink" x="0px" y="0px"
	 viewBox="0 0 66.3 61.9" style="enable-background:new 0 0 66.3 61.9;" xml:space="preserve">
<style type="text/css">
	.st0{fill:none;}
</style>
<g>
	<g>
		<g>
			<path d="M33.5,31.9c0,0.7-0.2,1.5-0.2,1.7c-0.4,1.3-1.7,1.8-4.2,1.8c-0.6,0-0.9-0.1-1-0.2c-0.2-0.2-0.3-0.6-0.3-1
				c0-0.3,0-0.6,0.1-0.7c0.1-0.3,0.1-0.4,0.2-0.4c0.1,0,0.1,0.1,0.2,0.1c0.2,0.2,0.8,0.3,1.5,0.3c1.1,0,2.3-0.2,2.8-0.5
				c0.1,0,0.1-0.1,0.1-0.1c0,0,0-0.1,0-0.1c-0.4-1.2-1.9-3.4-3.1-3.4c-0.2,0-0.4,0.2-0.5,0.2c0,0-0.1,0-0.1-0.1
				c0-0.4,0.3-1.6,0.7-1.9c0.1-0.1,0.2-0.1,0.4-0.1c0.3,0,0.7,0.1,0.9,0.2c0.5,0.2,1.3,1,1.9,2C33.3,30.3,33.5,31,33.5,31.9z
				 M31.6,22.9c0.1,0,0.1,0.1,0,0.2c-0.2,0.3-0.9,1.1-1.2,1.4c-0.1,0.1-0.1,0.1-0.2,0c-0.4-0.2-1.3-0.9-1.5-1.2
				c-0.1-0.1-0.1-0.1,0-0.2c0.3-0.4,0.8-1,1.1-1.3c0.2-0.2,0.2-0.2,0.3-0.1C30.4,21.9,31,22.5,31.6,22.9z"/>
		</g>
	</g>
	<rect class="st0" width="66.3" height="61.9"/>
</g>
</svg>
