<?xml version="1.0" encoding="utf-8"?>
<!-- Generator: Adobe Illustrator 19.2.0, SVG Export Plug-In . SVG Version: 6.00 Build 0)  -->
<svg version="1.1" id="Layer_1" xmlns="http://www.w3.org/2000/svg" xmlns:xlink="http://www.w3.org/1999/xlink" x="0px" y="0px"
	 viewBox="0 0 383 34.7" style="enable-background:new 0 0 383 34.7;" xml:space="preserve">
<style type="text/css">
	.st0{fill:#FFFFFF;}
	.st1{fill:#F9A326;}
</style>
<g>
	<g>
		<path class="st0" d="M2.3,14.8c0.3,0.3,0.4,0.7,0.4,1.1c0,0.2-0.1,0.7-0.4,0.9c-0.3,0.3-0.7,0.4-1.1,0.4c-0.3,0-0.7-0.1-0.9-0.4
			c-0.3-0.3-0.4-0.6-0.4-1c0-0.4,0.2-0.8,0.4-1c0.3-0.2,0.6-0.4,1-0.4C1.7,14.4,2.1,14.6,2.3,14.8z M2.3,20c0.3,0.3,0.4,0.8,0.4,1.1
			c0,0.3-0.1,0.7-0.4,1c-0.3,0.3-0.7,0.4-1.1,0.4c-0.3,0-0.6-0.2-0.9-0.4c-0.3-0.3-0.4-0.6-0.4-1c0-0.3,0.2-0.7,0.4-1
			c0.3-0.3,0.6-0.4,1-0.4C1.7,19.7,2.1,19.8,2.3,20z"/>
		<path class="st0" d="M16.1,31.4c0.2-0.2,0.2-0.2,0.3-0.1c0.5,0.5,1,1.1,1.5,1.4c0.2,0.1,0.2,0.2,0,0.3c-0.5,0.5-0.9,1-1.3,1.5
			c-0.1,0.1-0.2,0.1-0.3,0c-0.4-0.3-0.9-0.7-1.4-1.2c-0.3,0.3-0.9,1-1.1,1.2c-0.1,0.1-0.2,0.2-0.4,0c-0.5-0.3-1.1-0.9-1.5-1.4
			c-0.1-0.1-0.1-0.2,0-0.3c0.4-0.5,0.9-1,1.4-1.5c0.1-0.1,0.2-0.1,0.3,0.1c0.4,0.4,1,1,1.4,1.2C15.3,32.3,15.8,31.7,16.1,31.4z"/>
		<path class="st0" d="M22.9,8.5c0.2-0.2,0.2-0.2,0.3-0.1c0.5,0.5,1,1.1,1.5,1.4c0.2,0.1,0.2,0.2,0,0.3c-0.5,0.5-0.9,1-1.3,1.5
			c-0.1,0.1-0.2,0.1-0.3,0c-0.4-0.3-0.9-0.7-1.4-1.2c-0.3,0.3-0.9,1-1.1,1.2c-0.1,0.1-0.2,0.2-0.4,0c-0.5-0.3-1.1-0.9-1.5-1.4
			c-0.1-0.1-0.1-0.2,0-0.3c0.4-0.5,0.9-1,1.4-1.5c0.1-0.1,0.2-0.1,0.3,0.1c0.4,0.4,1,1,1.4,1.2C22.1,9.4,22.7,8.8,22.9,8.5z"/>
		<path class="st0" d="M16.8,26.2c2.7,0,7.1-2.1,7.6-2.8c-0.7-0.6-2.8-1.5-4.4-1.5c-0.3,0-0.5-0.1-0.5-0.4c0-0.3,0.3-0.9,0.5-1.2
			c0-0.1,0.1-0.1,0.2-0.1c0.7-0.1,1.1-0.2,1.4-0.3c0.5-0.1,1.2-0.4,1.5-0.8c-0.1-1.3-0.7-2.5-1.8-3.4c-0.1-0.1-0.1-0.1-0.1-0.2
			c0-0.2,0.1-0.6,0.2-1.1c0.1-0.4,0.2-0.7,0.3-0.9c0.1-0.1,0.1-0.2,0.3-0.1c0.5,0.4,1.3,1.3,1.8,2.6c0.3,0.7,0.4,1.4,0.4,2.3
			c0,0.8-0.4,1.6-1.1,2.4c0.8,0.2,1.5,0.6,2,1c0.4,0.4,0.5,0.6,0.5,1.2c0,1.1-1.1,2.4-2.5,3.4c-2,1.3-4.7,2.3-6.7,2.3
			c-2.4,0-5.3-1-5.3-4.7c0-1.7,0.7-3.9,1.5-5.1c0.2-0.4,0.5-0.6,0.7-0.6c0.2,0,0.1,0.4-0.1,0.8c-0.6,1.3-1,2.5-1,3.5
			C11.9,24.8,14,26.2,16.8,26.2z"/>
		<path class="st0" d="M24.5,5.3c-0.1,0.1-0.2,0.2-0.2,0.2c-0.1,0-0.1-0.2-0.1-0.3c0.2-0.7,0.5-1.3,1-1.8c0.5-0.5,1.1-0.8,1.7-0.8
			c0.4,0,0.9,0.1,1.5,0.3c0.8,0.2,1,0.2,1.2,0.2c0.3,0,0.7-0.1,1-0.4s0.4-0.4,0.6-0.6C31.3,2.1,31.4,2,31.4,2c0.2,0,0.1,0.2,0.1,0.3
			c-0.7,1.5-1.6,2.3-2.8,2.3c-0.3,0-0.7-0.1-1.3-0.2c-0.5-0.1-0.7-0.2-1.1-0.2C25.9,4.2,25.2,4.4,24.5,5.3z"/>
		<path class="st0" d="M37.1,7.8c0.1,0.2,0.1,0.2,0.1,0.3c0,0.1,0,0.1-0.1,0.2c-0.2,0.4-0.5,1-0.8,1.3c-0.2,2.4-0.5,4.3-1.6,7
			c0.3,0.8,0.5,1.9,0.5,2.9c0,0.7-0.1,1.3-0.3,1.8c-0.2,0.4-2.7,0.8-4.4,0.8c-0.5,0-0.8,0-1.1-0.1c-0.1,0-0.2-0.3-0.2-0.7
			c0-0.6,0.1-1.5,0.3-1.8c0-0.1,0.1-0.1,0.1-0.1c0.1,0,0.1,0,0.2,0c1.4,0,2.8-1.3,3.7-2.9c-1.1-2.2-3.5-5.2-5.6-6.6
			c0,0.1-0.4,0.6-0.7,0.6c-0.3,0-2.2-1.8-2.2-2.2C25,8.3,25,8.1,25,7.9c0-0.6,0.1-1.1,0.2-1.4c0.1-0.3,0.3-0.4,0.4-0.4
			c0.2,0,0.5,0.2,0.8,0.4c1.6,1.1,3.2,2.4,4.5,4c1,1.3,2.3,3,3.3,5.1c0.6-1.3,0.7-2.2,0.9-3.9c0.1-1,0.1-1.7,0.1-2.2
			c0-1.1-0.1-1.5-0.1-1.8c0-0.2,0.1-0.4,0.2-0.7c0.4-0.7,0.7-1.2,0.8-1.2c0.1,0,0.1,0.1,0.2,0.2C36.5,6.6,36.8,7.2,37.1,7.8z
			 M34,17.7c-0.8,1.1-0.9,1.3-1.7,2.1c0.8,0,1.5-0.1,2.1-0.3C34.4,19.1,34.4,18.5,34,17.7z"/>
		<path class="st0" d="M41,22.2c-0.1,0-0.2-0.2-0.2-0.7c0-3-1.1-11.3-1.1-12.7c0-0.7,0.5-1.7,0.9-2.5c0.1-0.2,0.3-0.5,0.5-0.5
			c0.1,0,0.2,0.2,0.2,0.8c0.1,2.2,0.7,7.3,0.7,11c0,1.5-0.1,2.7-0.4,3.5C41.4,21.9,41.2,22.2,41,22.2z"/>
		<path class="st0" d="M56.8,29.9c0.1-0.1,0.1,0,0.1,0.1c0,0.6-0.2,1.1-0.5,1.3l-4.1,2.3c-0.1,0-0.1,0-0.1-0.1c0-0.3,0.1-0.8,0.2-1
			c0.1-0.2,0.3-0.3,0.7-0.5L56.8,29.9z"/>
		<path class="st0" d="M59.1,20c0.7,0,1.1,0.4,1.1,1.1c0,0.8-0.4,1.2-1.1,1.2h-0.2c-0.6,0-1,0-1.3-0.1c0,0.1,0,0.2,0,0.3
			c0,0.7-0.1,1.5-0.4,2.1c-0.5,1.2-1.3,3.3-3.6,4.3c-0.4,0.2-0.8,0.3-1.2,0.3c-0.9,0-2.4-0.5-3.5-1c-0.3-0.2-0.4-0.3-0.4-0.4
			c0-0.1,0.1-0.2,0.4-0.2c0.3,0,0.8,0.1,1.3,0.1c3.1,0,6.2-2.7,6.6-5c0-0.5-1.1-1.6-1.3-1.9c0-0.1-0.1-0.2-0.1-0.3
			c0-0.5,0.4-1.5,0.6-1.8c0.1-0.2,0.2-0.2,0.3-0.2c0.2,0,0.3,0.2,0.6,0.7c0.4,0.6,0.9,0.9,1.8,0.9H59.1z"/>
		<path class="st0" d="M64,7.3c0.7,0,1.7,1,1.7,2.1c0,0.4-0.1,0.8-0.2,1.2c-0.3,0.8-0.9,1.3-1.8,1.3c-0.8,0-1.3-0.6-1.3-1.3
			C62.3,9.5,63.5,7.3,64,7.3z M63.8,8.9c-0.3,0-0.7,0.6-0.7,1c0,0.3,0.4,0.6,0.8,0.6c0.5,0,1.1-0.3,1.1-0.5
			C64.9,9.7,64.3,8.9,63.8,8.9z"/>
		<path class="st0" d="M69.1,20c0.6,0,1,0.4,1,1.1c0,0.8-0.3,1.2-1,1.2h-0.2c-1-0.1-1.9-0.3-2.7-0.8c-0.8-0.5-1.1-0.9-1.6-1.7
			c-1.2,1.1-2.1,1.7-2.9,2c-0.8,0.3-1.7,0.5-2.7,0.5c-0.8,0-1.1-0.4-1.1-1.2c0-0.7,0.4-1.1,1.1-1.1H59c1.8,0,3-0.3,4.5-1.2
			c-0.5-0.7-1.7-1-2.3-1.1c-0.1,0-0.1-0.2-0.1-0.4c0-0.5,0.2-1.4,0.5-1.6c1-0.7,2.1-1.1,3.1-1.1c1,0,1.9,0.4,2.6,1.1
			c0.2,0.2,0.2,0.4,0.2,0.7c0,0.7-0.4,1.7-1.3,2.3c0.8,0.8,1.7,1.2,2.6,1.2H69.1z"/>
		<path class="st0" d="M75.2,5.2c-0.4,0-0.7-0.2-0.8-0.4C74.1,4.4,74,4,74,3.6c0-0.4,0-0.7,0.2-1c0.2-0.4,0.4-0.7,0.7-0.7
			C75,1.9,75,2,75,2.1c0,0.2-0.1,0.4-0.1,0.6c0,0.5,0.3,0.7,0.7,0.7s0.7-0.4,0.9-0.8c0.3-0.7,0.6-1,0.9-1c0.1,0,0.2,0.1,0.2,0.3
			c0,0.1,0,0.2,0,0.4c0,0.3,0.1,0.5,0.5,0.5c0.3,0,0.6-0.2,0.9-0.7c0.3-0.5,0.4-0.7,0.5-0.7c0.2,0,0.2,0.3,0.2,0.5
			c0,0.6-0.2,1.1-0.5,1.6c-0.3,0.4-0.7,0.9-1.4,0.9c-0.4,0-0.6-0.1-0.8-0.3c-0.1-0.1-0.2,0-0.3,0.2C76.2,4.9,75.7,5.2,75.2,5.2z"/>
		<path class="st0" d="M79.7,24.3c0.1-0.1,0.1,0,0.1,0.1c0,0.6-0.2,1.1-0.5,1.3L75.2,28c-0.1,0-0.1,0-0.1-0.1c0-0.3,0.1-0.8,0.2-1
			c0.1-0.2,0.3-0.3,0.7-0.5L79.7,24.3z"/>
		<path class="st0" d="M77.6,17.7c0.1,0,0.2,0.1,0.2,0.5c0,0.1,0,0.3,0,0.5c0,0.7,0.5,1.1,1.2,1.1c1,0,1.5-1,1.9-1.8
			c0-0.1,0.2-0.4,0.3-0.4c0.1,0,0.2,0.1,0.2,0.6c0.1,1.1,0.7,1.7,1.5,1.7h0.3c0.7,0,1.1,0.3,1.1,1c0,0.8-0.4,1.3-1.1,1.3H83
			c-1.3,0-2-0.6-2.2-1.9c-0.3,0.9-1.2,2-2.3,2c-1.1,0-1.6-0.9-1.7-1.9c-0.4,1.1-1.5,1.9-2.7,1.9c-1.2,0-2-0.4-2.3-1.6
			c-0.2,0.4-0.4,0.8-0.8,1.1c-0.4,0.3-1.1,0.5-2.1,0.5h-0.2c-0.7,0-1-0.4-1-1.2c0-0.7,0.3-1.1,1-1.1H69c1.6,0,2.6-0.6,3.2-1.7
			c0-0.1,0.2-0.3,0.3-0.3c0.2,0,0.2,0.2,0.2,0.5c0,0.9,0.8,1.3,1.8,1.3c1.2,0,2.1-0.5,2.8-1.7C77.3,17.9,77.4,17.7,77.6,17.7z
			 M78.4,12.1c0.2-0.2,0.2-0.2,0.3-0.1c0.5,0.5,1,1.1,1.5,1.4c0.2,0.1,0.2,0.2,0,0.3c-0.5,0.5-0.9,1-1.3,1.5c-0.1,0.1-0.2,0.1-0.3,0
			c-0.4-0.3-0.9-0.7-1.4-1.2c-0.3,0.3-0.9,1-1.1,1.2c-0.1,0.1-0.2,0.2-0.4,0c-0.5-0.3-1.1-0.9-1.5-1.4c-0.1-0.1-0.1-0.2,0-0.3
			c0.4-0.5,0.9-1,1.4-1.5c0.1-0.1,0.2-0.1,0.3,0.1c0.4,0.4,1,1,1.4,1.2C77.6,13,78.1,12.4,78.4,12.1z M78.7,8.8
			c0.1,0.1,0.1,0.1,0,0.2c-0.2,0.3-1.1,1.2-1.4,1.7c-0.1,0.1-0.1,0.1-0.2,0c-0.5-0.3-1.5-1-1.7-1.4c-0.1-0.1-0.1-0.1,0-0.2
			c0.3-0.5,0.9-1.2,1.3-1.6c0.2-0.2,0.2-0.2,0.3-0.1C77.3,7.7,78,8.4,78.7,8.8z"/>
		<path class="st0" d="M85.4,21.2c-0.5,0.7-1.2,1-2.3,1h-0.2c-0.7,0-1-0.4-1-1.2c0-0.7,0.3-1.1,1-1.1h0.2c0.5,0,1-0.1,1.5-0.2
			c0.4-0.1,0.6-0.3,0.7-0.4c0-1.7-0.6-5.4-0.9-8.9c0-0.4-0.3-1.6-0.4-2.1c0-0.1,0-0.2,0-0.2c0-0.3,0.3-0.9,0.5-1.3
			c0.3-0.5,0.5-0.9,0.7-0.9c0.1,0,0.1,0.1,0.2,0.2c0.3,1,0.6,1.5,0.8,1.8c0.1,0.1,0.1,0.2,0.1,0.3c0,0,0,0.1,0,0.1
			c-0.1,0.2-0.4,0.8-0.6,1.1c0.2,3.4,0.7,6.2,0.7,7.8C86.4,18.9,86.1,20.2,85.4,21.2z"/>
		<path class="st0" d="M91,22.2c-0.1,0-0.2-0.2-0.2-0.7c0-3-1.1-11.3-1.1-12.7c0-0.7,0.5-1.7,0.9-2.5c0.1-0.2,0.3-0.5,0.5-0.5
			c0.1,0,0.2,0.2,0.2,0.8c0.1,2.2,0.7,7.3,0.7,11c0,1.5-0.1,2.7-0.4,3.5C91.4,21.9,91.2,22.2,91,22.2z"/>
		<path class="st0" d="M111.5,5.1c0,0.5-0.1,1-0.3,1.5c0.2,0.1,0.4,0.3,0.4,0.4c0,0.4-0.2,0.7-0.3,1C111.2,8,111.1,8,111.1,8
			l-0.5-0.3c-0.5,0.8-1.3,1.7-2.5,2.3c-0.4,0.2-0.9,0.4-1.5,0.4c-0.3,0-0.4-0.1-0.4-0.1c0-0.1,0.2-0.2,0.6-0.4
			c0.9-0.5,2.5-1.8,3.1-2.5c-0.5-0.3-1.1-0.7-1.1-1.4c0-0.4,0.2-0.9,0.6-1.3c0.4-0.5,0.8-0.8,1.2-0.8C111.3,3.8,111.5,4.5,111.5,5.1
			z M109.7,5.5C109.7,5.6,109.6,5.6,109.7,5.5c0,0.2,0.4,0.5,0.8,0.7c0.1-0.2,0.1-0.4,0.1-0.7c0-0.3-0.1-0.4-0.3-0.4
			C110.1,5.1,109.8,5.3,109.7,5.5z"/>
		<path class="st0" d="M103.1,19.6c1,0.5,2.5,0.7,4.6,0.7c2.9,0,5.2-0.4,6.7-0.9c2.1-0.6,3-0.9,4.1-1.8c0.1,0,0.2-0.2,0.3-0.2
			c0.1,0,0.2,0.1,0.2,0.5c0,1.2,0.7,2,1.4,2h0.3c0.6,0,0.9,0.4,0.9,1.1c0,0.8-0.3,1.2-0.9,1.2h-0.4c-1.4,0-2.3-0.8-2.6-2.3
			c-1.1,0.5-2.4,1.2-3.7,1.6c-2,0.6-4.1,1.1-6.7,1.1c-2.1,0-3.8-0.3-4.9-0.8c-1.4-0.6-2.2-1.5-2.2-3c0-1.3,0.5-2.6,0.8-3.1
			c0.2-0.3,0.4-0.6,0.6-0.6c0.1,0,0.1,0.1,0.1,0.2c0,0.1-0.1,0.4-0.2,0.6c-0.2,0.5-0.4,1.1-0.4,1.5
			C101.3,18.1,101.7,18.9,103.1,19.6z M110.9,11.9c0.2-0.2,0.2-0.2,0.3-0.1c0.5,0.5,1,1.1,1.5,1.4c0.2,0.1,0.2,0.2,0,0.3
			c-0.5,0.5-0.9,1-1.3,1.5c-0.1,0.1-0.2,0.1-0.3,0c-0.4-0.3-0.9-0.7-1.4-1.2c-0.3,0.3-0.9,1-1.1,1.2c-0.1,0.1-0.2,0.2-0.4,0
			c-0.5-0.3-1.1-0.9-1.5-1.4c-0.1-0.1-0.1-0.2,0-0.3c0.4-0.5,0.9-1,1.4-1.5c0.1-0.1,0.2-0.1,0.3,0.1c0.4,0.4,1,1,1.4,1.2
			C110.1,12.8,110.6,12.1,110.9,11.9z"/>
		<path class="st0" d="M122.7,7.3c0.7,0,1.7,1,1.7,2.1c0,0.4-0.1,0.8-0.2,1.2c-0.3,0.8-0.9,1.3-1.8,1.3c-0.8,0-1.3-0.6-1.3-1.3
			C121,9.5,122.2,7.3,122.7,7.3z M122.5,8.9c-0.3,0-0.7,0.6-0.7,1c0,0.3,0.4,0.6,0.8,0.6c0.5,0,1.1-0.3,1.1-0.5
			C123.6,9.7,123,8.9,122.5,8.9z"/>
		<path class="st0" d="M126.1,20h0.1c0.6,0,0.9,0.6,0.9,1.1c0,0.6-0.3,1.1-0.9,1.1h-0.1c-0.6,0-1.2-0.1-1.8-0.5
			c-0.8-0.6-1.1-1.7-1.1-1.9c-0.1,0.7-1.1,2.4-2.6,2.4h-0.1c-0.6,0-0.9-0.6-0.9-1.1c0-0.6,0.3-1.1,0.9-1.1h0.1c1.2,0,2-0.5,2.1-0.8
			c0,0,0-0.1,0-0.1c0-0.2-0.4-2.6-0.4-2.8c0-0.1,0-0.2,0-0.3c0.1-0.4,0.4-1,0.5-1.4c0.1-0.2,0.2-0.3,0.2-0.3c0.1,0,0.2,0.2,0.2,0.4
			c0.3,1,0.5,3.1,0.8,3.8C124.6,19.4,125.6,20,126.1,20z M124.5,23.8c0.2-0.2,0.2-0.2,0.3-0.1c0.5,0.5,1,1.1,1.5,1.4
			c0.2,0.1,0.2,0.2,0,0.3c-0.5,0.5-0.9,1-1.3,1.5c-0.1,0.1-0.2,0.1-0.3,0c-0.4-0.3-0.9-0.7-1.4-1.2c-0.3,0.3-0.9,1-1.1,1.2
			c-0.1,0.1-0.2,0.2-0.4,0c-0.5-0.3-1.1-0.9-1.5-1.4c-0.1-0.1-0.1-0.2,0-0.3c0.4-0.5,0.9-1,1.4-1.5c0.1-0.1,0.2-0.1,0.3,0.1
			c0.4,0.4,1,1,1.4,1.2C123.7,24.7,124.3,24,124.5,23.8z"/>
		<path class="st0" d="M131.6,9c0.1-0.1,0.1,0,0.1,0.1c0,0.6-0.2,1.1-0.5,1.3l-4.1,2.3c-0.1,0-0.1,0-0.1-0.1c0-0.3,0.1-0.8,0.2-1
			c0.1-0.2,0.3-0.3,0.7-0.5L131.6,9z"/>
		<path class="st0" d="M130,20.8c-0.4,0.6-1.2,1.1-2.6,1.3c-0.4,0.1-0.9,0.1-1.4,0.1c-0.6,0-1-0.6-1-1.1c0-0.6,0.3-1.1,1-1.1h0.5
			c1,0,2.6,0,3.2-0.6c-0.1-0.9-0.8-2-1.1-2.4c0,0,0,0,0-0.1c0-0.4,0.7-1.8,0.7-1.9c0-0.1,0.1-0.1,0.1-0.1c0.3,0,1.1,1.6,1.1,3.5
			C130.6,19.2,130.6,20.1,130,20.8z M131.2,24.8c0.1,0.1,0.1,0.1,0,0.2c-0.2,0.3-1.1,1.2-1.4,1.7c-0.1,0.1-0.1,0.1-0.2,0
			c-0.5-0.3-1.5-1-1.7-1.4c-0.1-0.1-0.1-0.1,0-0.2c0.3-0.5,0.9-1.2,1.3-1.6c0.2-0.2,0.2-0.2,0.3-0.1
			C129.7,23.7,130.5,24.3,131.2,24.8z"/>
		<path class="st0" d="M142.3,22.2c-0.7,0-1.2-0.1-1.7-0.5c-0.7-0.6-1.1-1.7-1.3-3.1c-0.2-1.1-0.2-2.3-0.3-3.7
			c-0.1-2-0.2-5.1-0.5-6.9c0-0.1,0-0.2,0-0.2c0-0.1,0-0.2,0.2-0.4c0.3-0.5,0.5-0.8,0.7-1.2c0.2-0.3,0.2-0.3,0.3-0.3
			c0.1,0,0.2,0.2,0.3,0.7c0.4,3.5,0.1,8.4,0.6,11.1c0.1,0.7,0.2,0.9,0.4,1.3c0.3,0.6,0.7,0.9,1.4,1c0.8,0,1.2,0.4,1.2,1.1
			c0,0.9-0.4,1.2-1.1,1.2H142.3z"/>
		<path class="st0" d="M154.8,6.7c0,0.5-0.1,1-0.3,1.5c0.2,0.1,0.4,0.3,0.4,0.4c0,0.4-0.2,0.7-0.3,1c-0.1,0.1-0.1,0.1-0.1,0.1
			l-0.5-0.3c-0.5,0.8-1.3,1.8-2.5,2.3c-0.4,0.2-0.9,0.4-1.5,0.4c-0.3,0-0.4-0.1-0.4-0.1c0-0.1,0.2-0.2,0.6-0.4
			c0.9-0.5,2.5-1.8,3.1-2.5c-0.5-0.3-1.1-0.7-1.1-1.4c0-0.4,0.2-0.9,0.6-1.3c0.4-0.5,0.8-0.8,1.2-0.8C154.6,5.4,154.7,6.1,154.8,6.7
			z M153,7.1C152.9,7.2,152.9,7.2,153,7.1c0,0.2,0.4,0.5,0.8,0.7c0.1-0.2,0.1-0.4,0.1-0.7c0-0.3-0.1-0.4-0.3-0.4
			C153.3,6.7,153.1,6.9,153,7.1z"/>
		<path class="st0" d="M147.7,23.7c0,0.2,0,0.4,0.1,0.6c0.3,1.1,0.4,1.4,0.5,1.9c0,0.5-0.4,1.5-0.6,2c0,0.1-0.1,0.1-0.2,0.1
			c-0.1,0-0.3,0-0.3-0.1c-1.4-0.7-2-2.4-2-4.5c0-1.5,0.1-2,0.3-2.9c-0.7,0.9-1.6,1.4-2.8,1.4h-0.2c-0.7,0-1.1-0.4-1.1-1.1
			c0-0.8,0.4-1.1,1.1-1.1h0.2c1.6,0,3.1-1,3.9-2.2c0.2-0.4,0.4-0.6,0.6-0.6c0.1,0,0.2,0.1,0.2,0.3c0,0.7-1.1,2.6-1.1,4.8
			c0,0.5,0.2,1.2,0.6,2.2c0-1.3,0.4-2.6,1.1-3.7c0.7-1,2.3-1.8,3.7-2.4c-0.1-0.2-0.3-0.3-0.5-0.4c-0.4-0.2-0.9-0.2-1.2-0.4
			c-0.1,0-0.2-0.1-0.2-0.2c0-0.5,0.2-1.3,0.4-1.8c0.4-0.5,1.8-1.2,2.8-1.2c1.7,0,3.2,0.7,3.2,1.8c0,0.4-0.1,0.7-0.2,1
			c-0.2,0.5-0.9,1.2-1.1,1.3c0.9,0.9,1.8,1.3,2.7,1.3h0.3c0.6,0,1,0.4,1,1.1c0,0.8-0.3,1.2-1,1.2h-0.3c-1.6,0-2.8-0.8-4.4-2.5
			c-3.5,1.5-4.9,2.4-5.2,3C147.7,23,147.7,23.4,147.7,23.7z"/>
		<path class="st0" d="M164.7,11c0.1-0.1,0.1,0,0.1,0.1c0,0.6-0.2,1.1-0.5,1.3l-4.1,2.3c-0.1,0-0.1,0-0.1-0.1c0-0.3,0.1-0.8,0.2-1
			c0.1-0.2,0.3-0.3,0.7-0.5L164.7,11z"/>
		<path class="st0" d="M157.7,22.2h-0.2c-0.6,0-0.9-0.4-0.9-1.1c0-0.8,0.3-1.2,1-1.2h0.2c1.6,0,2.7-0.8,3.5-1.6
			c0.8-0.8,1.4-1.6,1.9-1.6c0.2,0,0.4,0.1,0.6,0.3c0.9,1,2.9,2.9,3.8,2.9h0.1c0.7,0,1.1,0.4,1.1,1.1c0,0.8-0.4,1.2-1.1,1.2h-0.1
			c-0.9,0-1.8-0.6-1.9-0.8c-0.2,0.7-1,1.5-1.4,1.5c-0.4,0-3.3-0.9-4.2-2.2C159.7,21.7,158.6,22.2,157.7,22.2z M163.5,19.3
			c-0.3-0.3-0.7-0.6-1.1-0.6c-0.2,0-0.3,0.1-0.5,0.3c-0.2,0.2-0.3,0.3-0.3,0.4c0,0.2,0.3,0.3,1.2,0.8c0.4,0.2,1.3,0.6,1.5,0.6
			c0.1,0,0.1-0.1,0.1-0.1C164.5,20.4,163.8,19.6,163.5,19.3z"/>
		<path class="st0" d="M171.5,7.3c0.7,0,1.7,1,1.7,2.1c0,0.4-0.1,0.8-0.2,1.2c-0.3,0.8-0.9,1.3-1.8,1.3c-0.8,0-1.3-0.6-1.3-1.3
			C169.8,9.5,171,7.3,171.5,7.3z M171.3,8.9c-0.3,0-0.7,0.6-0.7,1c0,0.3,0.4,0.6,0.8,0.6c0.5,0,1.1-0.3,1.1-0.5
			C172.5,9.7,171.9,8.9,171.3,8.9z"/>
		<path class="st0" d="M175.8,25.1c0.1,0.1,0.1,0.1,0,0.2c-0.2,0.3-1.1,1.2-1.4,1.7c-0.1,0.1-0.1,0.1-0.2,0c-0.5-0.3-1.5-1-1.7-1.4
			c-0.1-0.1-0.1-0.1,0-0.2c0.3-0.5,0.9-1.2,1.3-1.6c0.2-0.2,0.2-0.2,0.3-0.1C174.4,24,175.1,24.6,175.8,25.1z"/>
		<path class="st0" d="M180.7,3.8c0.1-0.1,0.1,0,0.1,0.1c0,0.6-0.2,1.1-0.5,1.3l-4.1,2.3c-0.1,0-0.1,0-0.1-0.1c0-0.3,0.1-0.8,0.2-1
			c0.1-0.2,0.3-0.3,0.7-0.5L180.7,3.8z"/>
		<path class="st0" d="M182,22.2c0.2-0.2,0.2-0.2,0.3-0.1c0.5,0.5,1,1.1,1.5,1.4c0.2,0.1,0.2,0.2,0,0.3c-0.5,0.5-0.9,1-1.3,1.5
			c-0.1,0.1-0.2,0.1-0.3,0c-0.4-0.3-0.9-0.7-1.4-1.2c-0.3,0.3-0.9,1-1.1,1.2c-0.1,0.1-0.2,0.2-0.4,0c-0.5-0.3-1.1-0.9-1.5-1.4
			c-0.1-0.1-0.1-0.2,0-0.3c0.4-0.5,0.9-1,1.4-1.5c0.1-0.1,0.2-0.1,0.3,0.1c0.4,0.4,1,1,1.4,1.2C181.2,23,181.7,22.4,182,22.2z"/>
		<path class="st0" d="M179.2,13.4c-0.2,0-0.2-0.2-0.3-0.5c-0.1-0.6-0.4-1.2-0.8-1.2c-0.3,0-0.7,0.3-1.1,0.9
			c-1.1,1.7-2.3,2.8-3.3,3.5c-0.1,0,0,0.1,0.1,0.1c3.5,1.3,6.4,1.9,8.8,1.8c0.1,0,0.2,0,0.1,0.3c-0.2,0.3-0.6,0.9-1.3,1.7
			c-0.1,0.1-0.2,0.2-0.3,0.1c-0.9-0.1-1.8-0.2-2.5-0.3c-1,0-1.9,0.1-2.7,0.3c-0.7,0.2-1.7,0.5-2.8,0.9c-1.1,0.4-2.1,0.7-2.7,0.9
			c-0.6,0.2-1.5,0.3-2.5,0.3h-0.3c-0.6,0-0.9-0.4-0.9-1.2c0-0.7,0.3-1.1,0.9-1.1h0.3c2.1,0,4.3-0.3,6.6-1c0,0,0,0-0.2-0.1
			c-1.4-0.7-3.1-1.1-5.2-1.3c-0.2,0-0.1-0.1,0-0.3c0.2-0.3,0.6-0.8,1.3-1.5c0.3-0.3,1-0.7,2.2-1.1c1.9-0.8,3.9-2.1,5-4.2
			c0.3-0.6,0.9-1.1,1.4-1.1c0.8,0,1.1,1.2,1.1,1.8c0,0.6,0,0.9-0.1,1.3C179.6,13,179.4,13.4,179.2,13.4z"/>
		<path class="st0" d="M188.6,9.8c0.1-0.1,0.1,0,0.1,0.1c0,0.6-0.2,1.1-0.5,1.3l-4.1,2.3c-0.1,0-0.1,0-0.1-0.1c0-0.3,0.1-0.8,0.2-1
			c0.1-0.2,0.3-0.3,0.7-0.5L188.6,9.8z"/>
		<path class="st0" d="M189.4,18.1c0.3,0.9,0.5,1.8,0.5,3.1c0,4-1.1,6.5-4.2,7.7c-0.2,0.1-0.4,0.1-0.6,0.1c-1,0-2.6-0.5-4-1.1
			c-0.3-0.2-0.4-0.3-0.4-0.4c0-0.1,0.1-0.2,0.4-0.2c0.2,0,1.1,0.2,1.8,0.2c0.9,0,1.9-0.4,3.3-1.3c1.5-1,2.8-2.3,2.8-3.8
			c0-0.5-0.1-1-0.4-1.5c-0.3,0.7-0.8,1.1-1.5,1.1c-1.3,0-2.1-0.7-2.1-2.1c0-0.5,0.3-1.3,0.6-2.1c0.5-1,1.2-1.9,1.8-1.9
			C188.1,15.9,188.9,16.8,189.4,18.1z M186.9,18.1c-0.3,0-0.5,0.2-0.7,0.5c-0.1,0.1-0.2,0.4-0.2,0.5c0,0.4,0.6,0.6,1.1,0.6
			c0.4,0,0.7-0.2,0.8-0.4C187.9,18.6,187.2,18.1,186.9,18.1z"/>
		<path class="st0" d="M201.3,21c0.2,0.3,0.3,0.6,0.3,1.1c0,0.5-0.2,0.9-0.5,1.1c-0.3,0.2-0.6,0.3-1,0.3c-0.6,0-1.2-0.4-1.5-1.1
			c-0.3-0.7-0.4-1.3-0.4-2c0-0.8,0.2-1.6,0.5-2.3c0.3-0.7,0.6-1.2,1-1.7c0.4-0.4,0.6-0.7,0.8-0.7c0.3,0,0.1,0.4-0.2,0.8
			c-0.8,1.1-1.1,2.1-1.1,3.2c0,0.6,0.1,0.7,0.2,1c0.3-0.1,0.6-0.2,0.8-0.2C200.7,20.5,201.1,20.7,201.3,21z"/>
		<path class="st0" d="M208.2,0c0.1-0.1,0.1,0,0.1,0.1c0,0.6-0.2,1.1-0.5,1.3l-4,2.3c-0.1,0-0.1,0-0.1-0.1c0-0.3,0.1-0.8,0.2-1
			c0.1-0.2,0.3-0.3,0.7-0.5L208.2,0z M208.2,2.1c0.1-0.1,0.1,0,0.1,0.1c0,0.6-0.2,1.1-0.5,1.3l-4,2.3c-0.1,0-0.1,0-0.1-0.1
			c0-0.3,0.1-0.8,0.2-1c0.1-0.2,0.3-0.3,0.7-0.5L208.2,2.1z"/>
		<path class="st0" d="M208.7,22.2c-0.7,0-1.2-0.1-1.7-0.5c-0.7-0.6-1.1-1.7-1.3-3.1c-0.2-1.1-0.2-2.3-0.3-3.7
			c-0.1-2-0.2-5.1-0.5-6.9c0-0.1,0-0.2,0-0.2c0-0.1,0-0.2,0.2-0.4c0.3-0.5,0.5-0.8,0.7-1.2c0.2-0.3,0.2-0.3,0.3-0.3
			c0.1,0,0.2,0.2,0.3,0.7c0.4,3.5,0.1,8.4,0.6,11.1c0.1,0.7,0.2,0.9,0.4,1.3c0.3,0.6,0.7,0.9,1.4,1c0.8,0,1.2,0.4,1.2,1.1
			c0,0.9-0.4,1.2-1.1,1.2H208.7z"/>
		<path class="st0" d="M214.6,17c0,1.2-0.4,2.9-0.9,3.7c-0.2,0.3-0.9,0.7-1.4,0.8c-1.4,0.4-2.5,0.6-3.3,0.6h-0.2c-0.6,0-1-0.4-1-1.2
			c0-0.7,0.3-1.1,1-1.1h0.2c1.3,0,2.8-0.2,3.7-0.5c0.8-0.3,0.9-0.3,0.9-1.1c0-0.5-0.1-0.8-0.3-1.3c-0.2,0.5-0.9,1-1.8,1
			c-1.1,0-1.8-0.7-1.8-2c0-1.8,1.4-4.1,2-4.1C213.5,12,214.6,15.4,214.6,17z M213.1,7.1c0.1,0.1,0.1,0.1,0,0.2
			c-0.2,0.3-1.1,1.2-1.4,1.7c-0.1,0.1-0.1,0.1-0.2,0c-0.5-0.3-1.5-1-1.7-1.4c-0.1-0.1-0.1-0.1,0-0.2c0.3-0.5,0.9-1.2,1.3-1.6
			c0.2-0.2,0.2-0.2,0.3-0.1C211.7,6,212.4,6.6,213.1,7.1z M212.1,14.5c-0.2-0.2-0.5-0.3-0.7-0.3c-0.2,0-0.4,0.1-0.5,0.4
			c-0.1,0.2-0.2,0.4-0.2,0.5c0,0.5,0.5,0.6,1,0.6c0.5,0,0.9-0.2,0.9-0.5C212.5,15.2,212.4,14.7,212.1,14.5z"/>
		<path class="st0" d="M219.5,11.6c0.7,0,1.7,1,1.7,2.1c0,0.4-0.1,0.8-0.2,1.2c-0.3,0.8-0.9,1.3-1.8,1.3c-0.8,0-1.3-0.6-1.3-1.3
			C217.9,13.8,219,11.6,219.5,11.6z M219.3,13.2c-0.3,0-0.7,0.6-0.7,1c0,0.3,0.4,0.6,0.8,0.6c0.5,0,1.1-0.3,1.1-0.5
			C220.5,14.1,219.9,13.2,219.3,13.2z"/>
		<path class="st0" d="M223.1,20c0.7,0,1.1,0.4,1.1,1.1c0,0.8-0.4,1.2-1.1,1.2h-0.2c-0.6,0-1,0-1.3-0.1c0,0.1,0,0.2,0,0.3
			c0,0.7-0.1,1.5-0.4,2.1c-0.5,1.2-1.3,3.3-3.6,4.3c-0.4,0.2-0.8,0.3-1.2,0.3c-0.9,0-2.4-0.5-3.5-1c-0.3-0.2-0.4-0.3-0.4-0.4
			c0-0.1,0.1-0.2,0.4-0.2c0.3,0,0.8,0.1,1.3,0.1c3.1,0,6.2-2.7,6.6-5c0-0.5-1.1-1.6-1.3-1.9c0-0.1-0.1-0.2-0.1-0.3
			c0-0.5,0.4-1.5,0.6-1.8c0.1-0.2,0.2-0.2,0.3-0.2c0.2,0,0.3,0.2,0.6,0.7c0.4,0.6,0.9,0.9,1.8,0.9H223.1z"/>
		<path class="st0" d="M230.4,8.9c0.1-0.1,0.1,0,0.1,0.1c0,0.6-0.2,1.1-0.5,1.3l-4.1,2.3c-0.1,0-0.1,0-0.1-0.1c0-0.3,0.1-0.8,0.2-1
			c0.1-0.2,0.3-0.3,0.7-0.5L230.4,8.9z"/>
		<path class="st0" d="M225.9,16.9c-0.2,0-0.5,0-0.6,0.1c-0.2,0.1-0.6,0.3-0.8,0.3c-0.2,0-0.2-0.1-0.2-0.2c0-0.4,0.6-1.3,1.2-1.8
			c0.5-0.4,1-0.6,1.4-0.6c0.2,0,0.3,0,0.5,0.1c1.8,0.4,4.1,1.4,6,1.8c1.3,0.3,2.6,0.4,3.4,0.4c0.2,0,0.3,0,0.5,0
			c0.1,0,0.1,0,0.1,0.1c0,0.4-0.7,1.5-1.1,1.9c-0.1,0.1-0.3,0.1-0.6,0.1c-0.5,0-1.6-0.1-1.9-0.1c-0.9,0-1.6,0.1-2.2,0.3
			c-0.4,0.2-1.2,0.5-2.3,1c-1.7,0.8-2.8,1.4-3.6,1.7c-0.8,0.3-1.6,0.5-2.5,0.5h-0.3c-0.7,0-1.1-0.4-1.1-1.2c0-0.7,0.4-1.1,1.1-1.1
			h0.3c1.4,0,2.5-0.1,3.4-0.4c0.9-0.3,2.3-0.7,4-1.4C228.5,17.5,226.9,16.9,225.9,16.9z"/>
		<path class="st1" d="M251.8,12.5c0.1-0.1,0.1,0,0.1,0.1c0,0.6-0.2,1.1-0.5,1.3l-4.1,2.3c-0.1,0-0.1,0-0.1-0.1c0-0.3,0.1-0.8,0.2-1
			c0.1-0.2,0.3-0.3,0.7-0.5L251.8,12.5z"/>
		<path class="st1" d="M261.2,1.8c0.1-0.1,0.1,0,0.1,0.1c0,0.6-0.2,1.1-0.5,1.3l-4.1,2.3c-0.1,0-0.1,0-0.1-0.1c0-0.3,0.1-0.8,0.2-1
			c0.1-0.2,0.3-0.3,0.7-0.5L261.2,1.8z"/>
		<path class="st1" d="M260.6,11.3c0.2-0.2,0.2-0.2,0.3-0.1c0.5,0.5,1,1.1,1.5,1.4c0.2,0.1,0.2,0.2,0,0.3c-0.5,0.5-0.9,1-1.3,1.5
			c-0.1,0.1-0.2,0.1-0.3,0c-0.4-0.3-0.9-0.7-1.4-1.2c-0.3,0.3-0.9,1-1.1,1.2c-0.1,0.1-0.2,0.2-0.4,0c-0.5-0.3-1.1-0.9-1.5-1.4
			c-0.1-0.1-0.1-0.2,0-0.3c0.4-0.5,0.9-1,1.4-1.5c0.1-0.1,0.2-0.1,0.3,0.1c0.4,0.4,1,1,1.4,1.2C259.8,12.2,260.4,11.5,260.6,11.3z
			 M261,8c0.1,0.1,0.1,0.1,0,0.2c-0.2,0.3-1.1,1.2-1.4,1.7c-0.1,0.1-0.1,0.1-0.2,0c-0.5-0.3-1.5-1-1.7-1.4c-0.1-0.1-0.1-0.1,0-0.2
			c0.3-0.5,0.9-1.2,1.3-1.6c0.2-0.2,0.2-0.2,0.3-0.1C259.6,6.9,260.3,7.6,261,8z"/>
		<path class="st1" d="M259.7,18c0.1-0.2,0.2-0.3,0.3-0.3s0.2,0.2,0.2,0.4c0,0.3,0,0.4,0,0.6c0,0.8,0.6,1.2,1.2,1.2
			c0.9,0,1.4-0.8,1.8-1.5c0.3-0.6,0.3-0.6,0.5-0.6c0.1,0,0.2,0.1,0.2,0.6c0.1,1.1,0.6,1.7,1.4,1.7h0.4c0.7,0,1.1,0.4,1.1,1.1
			c0,0.8-0.4,1.1-1.1,1.1h-0.4c-1,0-1.7-0.6-2-1.9c-0.2,0.7-1,2-2.3,2c-0.8,0-1.5-0.7-1.7-1.9c-0.4,1-1.4,1.9-2.7,1.9
			c-1.4,0-2.1-0.7-2.4-2.1c-0.8,0.2-2.3,0.8-3,1.1c0.1,0.5,0.2,0.8,0.2,1.2c0,0.5-0.1,1.1-0.2,1.8c-0.4,2.2-1.8,4.3-3.9,5.1
			c-0.2,0.1-0.4,0.1-0.6,0.1c-1,0-2.5-0.4-3.9-1c-0.3-0.2-0.5-0.3-0.5-0.4c0-0.1,0.1-0.2,0.4-0.2c0.5,0,1.3,0.2,1.8,0.2
			c0.1,0,0.2,0,0.4,0c0.8-0.1,1.7-0.4,2.5-1c1.3-0.8,3.2-2.7,3.2-3.9c0,0,0-0.1,0-0.1c0-0.2-0.2-0.6-0.4-1c-0.2-0.3-0.4-0.5-0.5-0.7
			c-0.1-0.1-0.1-0.1,0-0.2c0.1-0.4,0.3-1.3,0.5-1.6c0.1-0.1,0.1-0.2,0.2-0.3c1.1-0.5,3-1.1,4.5-1.7c0.1,0,0.2,0,0.2,0.1
			c0,0.5,0.1,1,0.3,1.3c0.2,0.4,0.5,0.7,1.6,0.7C258.1,19.8,259.1,19.2,259.7,18z"/>
		<path class="st1" d="M271.6,6.9c0.1-0.1,0.1,0,0.1,0.1c0,0.6-0.2,1.1-0.5,1.3l-4.1,2.3c-0.1,0-0.1,0-0.1-0.1c0-0.3,0.1-0.8,0.2-1
			c0.1-0.2,0.3-0.3,0.7-0.5L271.6,6.9z"/>
		<path class="st1" d="M266.8,17.8c0-0.5,0.2-1.7,0.6-2.5c0.7-1.5,1.9-2.2,2.9-2.2c0.7,0,2.1,0.4,2.8,1c0.3,0.2,0.3,0.4,0.3,0.5
			c0,0.1-0.1,0.1-0.2,0.1c-0.4,0-1-0.1-1.6-0.1c-1.1,0-3.6,1-3.7,1.7c0.1,0.4,1.3,2.3,3.3,2.3h0.1c1.2-0.5,2.7-1.1,3.7-1.6
			c0.4-0.2,0.7-0.3,0.8-0.3c0.1,0,0.1,0,0.1,0.1c0,0.2-0.5,1.2-0.8,1.7c-0.1,0.1-0.2,0.3-0.4,0.4c-0.7,0.4-1.8,0.9-3.2,1.6
			c-1.5,0.7-4.6,1.8-5.9,1.8h-0.2c-0.7,0-1-0.4-1-1.1c0-0.8,0.4-1.1,1.1-1.1h0.2c0.2,0,1.2-0.1,2.1-0.3
			C267.1,19.2,266.8,18.6,266.8,17.8z"/>
		<path class="st1" d="M287.7,1.1c0.1-0.1,0.1,0,0.1,0.1c0,0.6-0.2,1.1-0.5,1.3l-4.1,2.3c-0.1,0-0.1,0-0.1-0.1c0-0.3,0.1-0.8,0.2-1
			c0.1-0.2,0.3-0.3,0.7-0.5L287.7,1.1z"/>
		<path class="st1" d="M287,7.1c0.2-0.2,0.2-0.2,0.3-0.1c0.5,0.5,1,1.1,1.5,1.4c0.2,0.1,0.2,0.2,0,0.3c-0.5,0.5-0.9,1-1.3,1.5
			c-0.1,0.1-0.2,0.1-0.3,0c-0.4-0.3-0.9-0.7-1.4-1.2c-0.3,0.3-0.9,1-1.1,1.2c-0.1,0.1-0.2,0.2-0.4,0c-0.5-0.3-1.1-0.9-1.5-1.4
			c-0.1-0.1-0.1-0.2,0-0.3c0.4-0.5,0.9-1,1.4-1.5c0.1-0.1,0.2-0.1,0.3,0.1c0.4,0.4,1,1,1.4,1.2C286.2,7.9,286.8,7.3,287,7.1z
			 M290,19.5c0.5,0.3,0.9,0.5,1.2,0.5h0.3c0.7,0,1.1,0.4,1.1,1.1c0,0.8-0.4,1.2-1.1,1.2h-0.3c-0.8,0-1.5-0.3-2.3-0.9
			c-0.7-0.6-1.2-1.6-1.4-3c-0.2,0.4-0.4,0.7-0.8,1c-0.6,0.4-1.6,0.6-2.6,0.6c-0.7,0-1.4-0.1-1.4-0.7c0.3-2.2,0.6-2.6,1.7-3.4
			c0.5-0.4,1.8-1.2,2.3-1.6c0-0.2,0-0.4,0-0.5c0-0.5,0.1-0.8,0.4-1.2c0.2-0.3,0.3-0.5,0.4-0.5c0.1,0,0.2,0.2,0.2,0.5
			c0.3,2.1,0.5,3.8,0.8,4.8C288.7,18.2,289.2,19,290,19.5z M287,15.4c-0.9,0.6-2.5,1.6-2.6,1.9c0,0.2,0.3,0.2,0.7,0.2
			c0.6,0,1.5-0.2,2.2-0.5C287.2,16.4,287.1,16.2,287,15.4z"/>
		<path class="st1" d="M300.9,10.4c0.1-0.1,0.1,0,0.1,0.1c0,0.6-0.2,1.1-0.5,1.3l-4.1,2.3c-0.1,0-0.1,0-0.1-0.1c0-0.3,0.1-0.8,0.2-1
			c0.1-0.2,0.3-0.3,0.7-0.5L300.9,10.4z"/>
		<path class="st1" d="M300,17.7c0.1,0,0.2,0.1,0.2,0.5c0,0.1,0,0.3,0,0.5c0,0.7,0.5,1.1,1.2,1.1c1,0,1.5-1,1.9-1.8
			c0-0.1,0.2-0.4,0.3-0.4c0.1,0,0.2,0.1,0.2,0.6c0.1,1.1,0.7,1.7,1.5,1.7h0.3c0.7,0,1.1,0.3,1.1,1c0,0.8-0.4,1.3-1.1,1.3h-0.3
			c-1.3,0-2-0.6-2.2-1.9c-0.3,0.9-1.2,2-2.3,2c-1.1,0-1.6-0.9-1.7-1.9c-0.4,1.1-1.5,1.9-2.7,1.9c-1.2,0-2-0.4-2.3-1.6
			c-0.2,0.4-0.4,0.8-0.8,1.1c-0.4,0.3-1.1,0.5-2.1,0.5h-0.2c-0.7,0-1-0.4-1-1.2c0-0.7,0.3-1.1,1-1.1h0.3c1.6,0,2.6-0.6,3.2-1.7
			c0-0.1,0.2-0.3,0.3-0.3c0.2,0,0.2,0.2,0.2,0.5c0,0.9,0.8,1.3,1.8,1.3c1.2,0,2.1-0.5,2.8-1.7C299.7,17.9,299.9,17.7,300,17.7z"/>
		<path class="st1" d="M308,9.4c0.7,0,1.7,1,1.7,2.1c0,0.4-0.1,0.8-0.2,1.2c-0.3,0.8-0.9,1.3-1.8,1.3c-0.8,0-1.3-0.6-1.3-1.3
			C306.4,11.6,307.5,9.4,308,9.4z M307.8,11c-0.3,0-0.7,0.6-0.7,1c0,0.3,0.4,0.6,0.8,0.6c0.5,0,1.1-0.3,1.1-0.5
			C309,11.9,308.4,11,307.8,11z"/>
		<path class="st1" d="M318.8,4.1c0.1-0.1,0.1,0,0.1,0.1c0,0.6-0.2,1.1-0.5,1.3l-4.1,2.3c-0.1,0-0.1,0-0.1-0.1c0-0.3,0.1-0.8,0.2-1
			c0.1-0.2,0.3-0.3,0.7-0.5L318.8,4.1z"/>
		<path class="st1" d="M318.6,10.2c0.1,0.1,0.1,0.1,0,0.2c-0.2,0.3-1.1,1.2-1.4,1.7c-0.1,0.1-0.1,0.1-0.2,0c-0.5-0.3-1.5-1-1.7-1.4
			c-0.1-0.1-0.1-0.1,0-0.2c0.3-0.5,0.9-1.2,1.3-1.6c0.2-0.2,0.2-0.2,0.3-0.1C317.2,9.1,317.9,9.7,318.6,10.2z"/>
		<path class="st1" d="M310.6,15.1c-0.4,0.1-0.5,0.1-0.6,0.1c-0.1,0-0.2-0.1-0.2-0.2c0-0.1,0-0.2,0.1-0.3c0.3-0.5,0.7-1.1,1.4-1.5
			c0.4-0.3,0.8-0.4,1.2-0.4c0.3,0,0.6,0,1.1,0.2c1.5,0.7,3.7,2,5.5,2.7c1.5,0.5,3,0.9,3.8,1c0.1,0,0.1,0,0.1,0.1
			c0,0.2-0.2,0.5-0.5,0.9c-0.2,0.2-0.4,0.4-0.6,0.7c-0.2,0.2-0.3,0.3-0.4,0.3h0c-1.6-0.5-3-0.7-4.3-0.8c-0.3,0-0.6,0-0.9,0
			c-1,0-2.1,0-3.4,0.2c0.3,0.3,0.5,0.8,0.5,1.7c0,0.4-0.2,0.9-0.5,1.5c-0.4,0.6-0.7,0.9-1.1,0.9c-0.5,0-1-0.2-1.6-0.5
			c-0.6-0.3-1.1-0.7-1.5-1.3c-0.6,1.2-1.5,1.8-2.8,1.8h-0.3c-0.6,0-0.9-0.4-0.9-1.2c0-0.7,0.3-1.1,0.9-1.1h0.3c1,0,1.7-0.1,2.2-0.4
			c0.5-0.3,0.9-0.6,1.2-1.1c0.3-0.5,0.6-0.9,0.9-1.2c0.3-0.3,1-0.5,2-0.7c0.7-0.1,1.4-0.2,2.1-0.2c0.4,0,0.9,0,1.3,0.1
			c-1.4-0.8-2.4-1.2-3-1.3c-0.4-0.1-0.7-0.1-1-0.1C311,15,310.8,15.1,310.6,15.1z M310.7,19.6c0.5,0.3,0.9,0.4,1.2,0.4
			c-0.1-0.5-0.2-0.8-0.5-1.1c-0.2-0.3-0.7-0.5-1.1-0.5c-0.4,0-0.6,0.1-0.7,0.4C309.8,19,310.1,19.3,310.7,19.6z"/>
		<path class="st0" d="M334.3,22.2c-0.7,0-1.2-0.1-1.7-0.5c-0.7-0.6-1.1-1.7-1.3-3.1c-0.2-1.1-0.2-2.3-0.3-3.7
			c-0.1-2-0.2-5.1-0.5-6.9c0-0.1,0-0.2,0-0.2c0-0.1,0-0.2,0.2-0.4c0.3-0.5,0.5-0.8,0.7-1.2c0.2-0.3,0.2-0.3,0.3-0.3
			c0.1,0,0.2,0.2,0.3,0.7c0.4,3.5,0.1,8.4,0.6,11.1c0.1,0.7,0.2,0.9,0.4,1.3c0.3,0.6,0.7,0.9,1.4,1c0.8,0,1.2,0.4,1.2,1.1
			c0,0.9-0.4,1.2-1.1,1.2H334.3z"/>
		<path class="st0" d="M344.5,18.7c0,1.6-0.8,2.6-1.7,2.6c-0.3,0-1-0.1-1.6-0.3c-0.8-0.2-1.5-0.5-2.4-0.6c-1.7,1.2-3.1,1.9-4.4,1.9
			h-0.2c-0.7,0-1-0.4-1-1.1c0-0.8,0.3-1.1,1-1.1h0.2c0.6,0,1.3-0.2,2.2-0.5c-0.2-0.3-0.3-0.7-0.3-1.2c0-1.2,0.6-2.7,1.1-3.4
			c-0.1-0.1-0.2-0.4-0.2-0.6c0-0.3,0.1-1.1,0.4-1.6c0.1-0.3,0.3-0.5,0.6-0.5C339.9,12.1,344.5,15.4,344.5,18.7z M340.4,17.3
			c0-0.9-1.2-1.9-1.5-1.9c-0.2,0-0.5,0.2-0.9,0.5c-0.4,0.4-0.7,0.8-0.7,1c0.1,1,1,1.2,1.7,1.3C339.2,18.2,340.4,17.6,340.4,17.3z
			 M343.7,19.5C343.8,19.5,343.8,19.5,343.7,19.5c-0.1-1.1-1.2-2.6-2.6-3.3c0,1.4-0.7,2.3-0.7,2.3C341.8,18.9,342.8,19.5,343.7,19.5
			z"/>
		<path class="st0" d="M351.2,5.5c0,0.5-0.1,1-0.3,1.5c0.2,0.1,0.4,0.3,0.4,0.4c0,0.4-0.2,0.7-0.3,1c-0.1,0.1-0.1,0.1-0.1,0.1
			l-0.5-0.3c-0.5,0.8-1.3,1.8-2.5,2.3c-0.4,0.2-0.9,0.4-1.5,0.4c-0.3,0-0.4-0.1-0.4-0.1c0-0.1,0.2-0.2,0.6-0.4
			c0.9-0.5,2.5-1.8,3.1-2.5c-0.5-0.3-1.1-0.7-1.1-1.4c0-0.4,0.2-0.9,0.6-1.3c0.4-0.5,0.8-0.8,1.2-0.8C351,4.3,351.2,5,351.2,5.5z
			 M349.4,6C349.4,6,349.4,6,349.4,6c0,0.2,0.4,0.5,0.8,0.7c0.1-0.2,0.1-0.4,0.1-0.7c0-0.3-0.1-0.4-0.3-0.4
			C349.8,5.5,349.5,5.7,349.4,6z"/>
		<path class="st0" d="M353.3,18.2c0,0.9-0.2,1.7-0.3,2c-0.4,1.5-2,2.1-4.9,2.1c-0.7,0-1-0.1-1.2-0.3c-0.2-0.2-0.3-0.7-0.3-1.2
			c0-0.4,0.1-0.7,0.1-0.8c0.1-0.3,0.2-0.5,0.2-0.5c0.1,0,0.1,0.1,0.2,0.2c0.3,0.2,0.9,0.3,1.7,0.3c1.2,0,2.7-0.2,3.3-0.6
			c0.1,0,0.1-0.1,0.1-0.1c0,0,0-0.1,0-0.1c-0.4-1.4-2.2-3.9-3.6-3.9c-0.2,0-0.4,0.2-0.6,0.2c-0.1,0-0.1,0-0.1-0.2
			c0-0.5,0.4-1.8,0.8-2.2c0.1-0.1,0.3-0.1,0.5-0.1c0.3,0,0.8,0.1,1.1,0.3c0.6,0.2,1.5,1.2,2.2,2.4C352.9,16.4,353.3,17.2,353.3,18.2
			z"/>
		<path class="st0" d="M363.9,4.9c0.1-0.1,0.1,0,0.1,0.1c0,0.6-0.2,1.1-0.5,1.3l-4.1,2.3c-0.1,0-0.1,0-0.1-0.1c0-0.3,0.1-0.8,0.2-1
			c0.1-0.2,0.3-0.3,0.7-0.5L363.9,4.9z"/>
		<path class="st0" d="M365.6,20h0.3c0.7,0,1,0.4,1,1.1c0,0.8-0.4,1.2-1,1.2h-0.3c-0.8,0-1.4-0.3-1.8-0.7c-0.5-0.4-0.8-1-1.1-1.9
			c-0.3,1.6-2.2,2.6-4.6,2.6c-0.7,0-1.5-0.1-2.1-0.5c-0.4-0.3-0.7-0.6-0.7-1.1c0-0.5,0.1-1.3,0.4-1.9c0.1-0.2,0.2-0.3,0.3-0.3
			c0.1,0,0.2,0.1,0.3,0.3c0.2,0.7,1.2,1,2.3,1c2.1,0,3.1-0.5,3.6-1.3c0-0.2,0.1-0.4,0.1-0.7c0-1.3-0.4-2.9-0.7-4.4
			c0-0.2-0.1-0.3-0.1-0.5c0-0.1,0.1-0.4,0.5-1.4c0.2-0.4,0.3-0.6,0.4-0.6c0.1,0,0.2,0.2,0.3,0.6c0.8,3.3,0.8,5.6,1.2,7
			c0.1,0.4,0.2,0.6,0.5,0.9C364.8,19.7,365.2,19.9,365.6,20z"/>
		<path class="st0" d="M371.8,6.9c0.1-0.1,0.1,0,0.1,0.1c0,0.6-0.2,1.1-0.5,1.3l-4.1,2.3c-0.1,0-0.1,0-0.1-0.1c0-0.3,0.1-0.8,0.2-1
			c0.1-0.2,0.3-0.3,0.7-0.5L371.8,6.9z"/>
		<path class="st0" d="M367,17.8c0-0.5,0.2-1.7,0.6-2.5c0.7-1.5,1.9-2.2,2.9-2.2c0.7,0,2.1,0.4,2.8,1c0.3,0.2,0.3,0.4,0.3,0.5
			c0,0.1-0.1,0.1-0.2,0.1c-0.4,0-1-0.1-1.6-0.1c-1.1,0-3.6,1-3.7,1.7c0.1,0.4,1.3,2.3,3.3,2.3h0.1c1.2-0.5,2.7-1.1,3.7-1.6
			c0.4-0.2,0.7-0.3,0.8-0.3c0.1,0,0.1,0,0.1,0.1c0,0.2-0.5,1.2-0.8,1.7c-0.1,0.1-0.2,0.3-0.4,0.4c-0.7,0.4-1.8,0.9-3.2,1.6
			c-1.5,0.7-4.6,1.8-5.9,1.8h-0.2c-0.7,0-1-0.4-1-1.1c0-0.8,0.4-1.1,1.1-1.1h0.2c0.2,0,1.2-0.1,2.1-0.3
			C367.4,19.2,367,18.6,367,17.8z"/>
		<path class="st0" d="M382.6,18.1c0.3,0.9,0.5,1.8,0.5,3.1c0,4-1.1,6.5-4.2,7.7c-0.2,0.1-0.4,0.1-0.6,0.1c-1,0-2.6-0.5-4-1.1
			c-0.3-0.2-0.4-0.3-0.4-0.4c0-0.1,0.1-0.2,0.4-0.2c0.2,0,1.1,0.2,1.8,0.2c0.9,0,1.9-0.4,3.3-1.3c1.5-1,2.8-2.3,2.8-3.8
			c0-0.5-0.1-1-0.4-1.5c-0.3,0.7-0.8,1.1-1.5,1.1c-1.3,0-2.1-0.7-2.1-2.1c0-0.5,0.3-1.3,0.6-2.1c0.5-1,1.2-1.9,1.8-1.9
			C381.2,15.9,382.1,16.8,382.6,18.1z M380.1,18.1c-0.3,0-0.5,0.2-0.7,0.5c-0.1,0.1-0.2,0.4-0.2,0.5c0,0.4,0.6,0.6,1.1,0.6
			c0.4,0,0.7-0.2,0.8-0.4C381.1,18.6,380.4,18.1,380.1,18.1z"/>
	</g>
</g>
</svg>
