<?xml version="1.0" encoding="utf-8"?>
<!-- Generator: Adobe Illustrator 19.2.0, SVG Export Plug-In . SVG Version: 6.00 Build 0)  -->
<svg version="1.1" id="Layer_1" xmlns="http://www.w3.org/2000/svg" xmlns:xlink="http://www.w3.org/1999/xlink" x="0px" y="0px"
	 viewBox="0 0 243.3 62.3" style="enable-background:new 0 0 243.3 62.3;" xml:space="preserve">
<style type="text/css">
	.st0{fill:#F5712E;}
	.st1{fill:none;}
</style>
<g>
	<g>
		<g>
			<path d="M33.5,42.3c0,0.1-0.1,0.1-0.2,0.1c-0.4,0-1.1-0.4-1.9-1.1c-0.6-0.5-1.1-1.1-1.5-1.6c-0.9-1.1-1.5-2.4-2.1-3.8
				c-1.3,0-2-0.2-2.1-0.5c0.4-0.3,0.7-0.7,0.9-1c0.3-0.4,0.4-0.8,0.4-1.2c-0.3,0-0.7,0.2-1.2,0.6c-0.1,0.1-0.4,0.4-1,0.9
				c-0.1,0-0.2-0.1-0.3-0.4c-0.1-0.3-0.2-0.7-0.2-1.2c-0.3-0.2-0.6-0.3-0.8-0.5c-0.2-0.2-0.3-0.3-0.3-0.4c0-0.2,0.2-0.4,0.5-0.7
				c0.2-0.1,0.4-0.3,0.6-0.4c0-0.4,0-0.7,0.1-1.1c0.1-0.3,0.2-0.5,0.3-0.5c0.4,0.4,0.8,0.7,1,0.9c0.4,0.3,0.9,0.5,1.2,0.5
				c0-0.4-0.2-0.8-0.5-1.2c-0.3-0.3-0.6-0.7-1-1c0-0.2,0.3-0.3,1-0.5C27,28,27.4,28,27.8,28c0.9-2.7,2.3-4.7,4-6.1
				c0.6-0.5,1-0.7,1.2-0.7c0.1,0,0.2,0.1,0.2,0.2c0,0.1-0.2,0.4-0.7,0.9c-1.5,1.7-2.3,3.6-2.7,5.7c0.4,0.1,0.7,0.1,0.8,0.2
				c0.1,0.1,0.2,0.2,0.2,0.3c-0.4,0.3-0.7,0.7-0.9,1c-0.3,0.4-0.5,0.8-0.5,1.2c0.4,0,0.8-0.2,1.1-0.5c0.2-0.2,0.6-0.6,1-1
				c0.2,0,0.3,0.2,0.5,0.7c0.1,0.4,0.1,0.7,0.1,0.9c0.7,0.3,1.1,0.7,1.1,1c0,0.3-0.3,0.6-1,1c0,0.6-0.1,1.1-0.2,1.3
				c-0.1,0.2-0.2,0.2-0.4,0.3c-0.7-0.9-1.5-1.3-2.2-1.4c0,0.3,0.2,0.8,0.5,1.2c0.1,0.2,0.5,0.5,1,1c0,0.1-0.1,0.1-0.2,0.2
				c-0.1,0.1-0.4,0.1-0.9,0.3c0.2,1.1,0.6,2.2,1.3,3.3c0.7,1.1,1.4,2.1,2.2,2.8C33.4,42,33.5,42.1,33.5,42.3z M26.6,32.7
				c-0.2-0.1-0.5-0.2-0.8-0.3c0,0-0.2-0.1-0.5-0.2c-0.3-0.1-0.4-0.2-0.4-0.3s0.3-0.2,1-0.3c0.1-0.1,0.4-0.2,0.7-0.3
				c-0.4-0.1-0.7-0.3-1-0.5c-0.1-0.1-0.4-0.4-0.7-0.6c-0.1,0-0.1,0.1-0.1,0.3c0,0.2,0,0.4,0,0.8c-0.6,0.3-0.9,0.6-0.9,0.7
				c0,0.1,0.1,0.2,0.3,0.3c0.2,0.1,0.4,0.2,0.7,0.3c0,0.1,0,0.4,0.1,0.7c0.1,0.4,0.1,0.6,0.2,0.6l0.7-0.7
				C26,32.9,26.3,32.8,26.6,32.7z M32.3,22c-1.8,1.2-3.2,3.4-4.3,6.5c-0.7,0-1.2,0-1.4,0.1c-0.2,0-0.3,0.1-0.3,0.2
				c0.5,0.4,0.9,0.9,1.2,1.4c0.1-0.3,0.3-0.5,0.4-0.6c0.1-0.2,0.2-0.5,0.4-0.7c0,0,0.1,0.1,0.1,0.3c0,0.2,0.1,0.3,0.1,0.3
				c0.1,0.1,0.2,0.3,0.4,0.7c0.1-0.3,0.3-0.6,0.5-0.9c0.1-0.1,0.3-0.4,0.6-0.6c0-0.1-0.1-0.1-0.3-0.2c-0.1,0-0.3,0-0.5-0.1
				c0.3-1.2,0.5-2,0.6-2.4C30.3,24.7,31.1,23.4,32.3,22z M32.8,41.8c-0.7-0.7-1.4-1.5-2-2.6c-0.7-1.2-1.1-2.5-1.4-3.8
				c0.5,0,0.8-0.1,0.8-0.2c-0.5-0.5-1-1-1.2-1.5c-0.1,0.2-0.2,0.4-0.3,0.7c0,0-0.1,0.2-0.2,0.4c-0.1,0.2-0.1,0.3-0.2,0.3
				c-0.2,0-0.4-0.4-0.7-1.3c-0.2,0.4-0.4,0.7-0.6,0.9c-0.2,0.2-0.4,0.4-0.6,0.6c0,0,0.1,0.1,0.3,0.1c0.1,0,0.4,0.1,0.6,0.1
				c0.2,0,0.3,0,0.4,0c0.1,0,0.3,0,0.3,0C29,38.3,30.6,40.4,32.8,41.8z M29.6,32c0-0.4-0.1-0.7-0.4-0.9c-0.3-0.2-0.6-0.4-0.9-0.4
				c-0.4,0-0.7,0.1-0.9,0.4C27.1,31.3,27,31.6,27,32c0,0.3,0.1,0.6,0.4,0.9c0.3,0.2,0.6,0.4,0.9,0.4c0.4,0,0.7-0.1,0.9-0.4
				C29.4,32.6,29.6,32.3,29.6,32z M32.6,31.9c0-0.2-0.3-0.3-0.9-0.6c0-0.4,0-0.7-0.1-0.9c-0.1-0.2-0.1-0.4-0.2-0.4
				c-0.1,0.1-0.3,0.3-0.7,0.7c-0.3,0.3-0.6,0.4-0.9,0.6c0.1,0,0.4,0.2,1.1,0.4c0.4,0.1,0.6,0.3,0.6,0.3c0,0.1-0.2,0.2-0.6,0.3
				c-0.3,0.1-0.7,0.2-1.1,0.3c0.3,0.1,0.6,0.3,1,0.5c0.1,0.1,0.4,0.3,0.6,0.6c0.1,0,0.2-0.4,0.2-1.2C32.3,32.2,32.6,32,32.6,31.9z"
				/>
			<path d="M40.9,21.6c0.1-0.2,0.2-0.5,0.2-0.7c0-0.2,0.1-0.5,0.1-0.7s0-0.5,0-0.7s0-0.5,0-0.7c0,0,0,0,0-0.1c0,0,0-0.1-0.1-0.1
				s0-0.1-0.1-0.2c0-0.1,0-0.1-0.1-0.1c0-0.1,0.1-0.2,0.2-0.3c0.1-0.1,0.1-0.2,0.2-0.2c0,0,0.1,0,0.1,0c0,0.1,0.1,0.3,0.2,0.4
				c0.1,0.1,0.2,0.3,0.3,0.4c0,0.1-0.1,0.1-0.1,0.2c-0.1,0.1-0.1,0.2-0.1,0.2c0,0.5,0,1-0.1,1.5c-0.1,0.5-0.2,1-0.4,1.4
				c0.1,0.2,0.2,0.4,0.3,0.5c0,0.1,0.1,0.2,0.1,0.3c0,0.1,0,0.2-0.1,0.3c0,0.1-0.1,0.2-0.1,0.3c-0.1,0-0.2,0-0.4,0.1s-0.3,0-0.5,0
				c-0.2,0-0.3,0-0.5,0c-0.2,0-0.3,0-0.4,0c0,0,0,0,0-0.1c0,0,0-0.1,0-0.2c0-0.1,0-0.1,0-0.2c0-0.1,0-0.1,0-0.1c0,0,0-0.1,0.1-0.1
				c0.1,0,0.1,0,0.1,0c0,0,0.1,0,0.1,0c0.1-0.2,0.2-0.3,0.3-0.4c0.1-0.1,0.2-0.3,0.3-0.5c-0.3-0.4-0.5-0.8-0.8-1.2
				c-0.3-0.4-0.6-0.7-1-1.1c0,0-0.1,0-0.1,0c0,0-0.1,0-0.1,0c-0.1,0-0.1,0-0.2-0.1c-0.1,0-0.2-0.1-0.3-0.2c-0.1-0.1-0.1-0.1-0.2-0.2
				c-0.1-0.1-0.1-0.2-0.1-0.2c0,0,0-0.1,0-0.3c0-0.1,0-0.3,0.1-0.4c0,0,0-0.1,0.1-0.1c0,0,0.1,0,0.1,0.1c0.3,0.2,0.5,0.4,0.8,0.6
				c0.3,0.3,0.5,0.5,0.7,0.8c0.2,0.3,0.5,0.6,0.7,0.9C40.5,21.1,40.7,21.4,40.9,21.6z M41.2,22.8c0-0.1-0.1-0.2-0.1-0.3
				c0-0.1-0.1-0.2-0.1-0.2c-0.1,0.1-0.1,0.2-0.2,0.3c-0.1,0.1-0.1,0.2-0.2,0.3c0.1,0,0.2,0,0.3,0C41,22.8,41.1,22.8,41.2,22.8z"/>
			<path d="M45.7,27.1C45.8,27.1,45.8,27.1,45.7,27.1c0.4,0.5,0.6,1,0.8,1.5s0.2,1,0.1,1.6c0,0.1,0,0.3-0.1,0.5
				c0,0.2-0.1,0.3-0.2,0.5c-0.1,0.1-0.1,0.3-0.2,0.4c-0.1,0.1-0.1,0.1-0.2,0.1c0,0-0.1,0-0.1-0.1c0,0,0-0.1,0-0.2c0-0.1,0-0.1,0-0.2
				c0-0.1,0-0.1,0-0.2c0-0.2,0.1-0.5,0.1-0.8c0-0.3,0-0.5-0.1-0.8c-0.1-0.3-0.1-0.5-0.3-0.8c-0.1-0.3-0.3-0.5-0.4-0.7
				c0,0,0-0.1,0.1-0.2c0-0.1,0.1-0.2,0.2-0.3c0.1-0.1,0.1-0.2,0.2-0.2C45.7,27.2,45.7,27.1,45.7,27.1z"/>
			<path d="M56.8,23.4c-0.3,0.1-0.6,0.3-1,0.4c-0.3,0.1-0.7,0.3-1,0.4c-0.3,0.1-0.6,0.3-0.9,0.4c-0.3,0.1-0.5,0.2-0.7,0.3
				c0,0-0.1,0-0.1,0c0,0,0,0,0-0.1c0,0,0-0.1,0.1-0.2c0-0.1,0.1-0.2,0.1-0.3c0-0.1,0.1-0.2,0.1-0.2c0-0.1,0.1-0.1,0.1-0.1
				c0.1-0.1,0.1-0.1,0.2-0.2l3.4-1.4c0.1,0,0.1,0,0.1,0.1c0,0.1-0.1,0.1-0.1,0.2c0,0.1-0.1,0.1-0.1,0.2c0,0.1-0.1,0.1-0.1,0.2
				c0,0.1-0.1,0.1-0.1,0.2C56.9,23.3,56.9,23.3,56.8,23.4z"/>
			<path d="M52.1,35.3c0,0.4-0.1,0.8-0.3,1.1c-0.2,0.3-0.5,0.6-0.8,0.9c-0.4,0.3-0.8,0.6-1.2,0.8c-0.4,0.2-0.9,0.4-1.4,0.6
				c-0.5,0.2-0.9,0.3-1.4,0.4c-0.5,0.1-0.9,0.1-1.3,0.1c-0.5,0-1.1-0.1-1.5-0.3c-0.5-0.2-0.9-0.4-1.3-0.7c-0.4-0.3-0.7-0.7-0.9-1.1
				c-0.2-0.4-0.3-1-0.3-1.6c0-0.6,0.1-1.2,0.3-1.7c0.2-0.5,0.5-1.1,0.8-1.6c0,0,0-0.1,0.1-0.1c0,0,0.1,0,0.1,0c0,0,0,0.1,0.1,0.1
				c0,0,0,0.1,0,0.1c-0.1,0.3-0.2,0.5-0.3,0.8c-0.1,0.3-0.2,0.5-0.3,0.8c-0.1,0.3-0.1,0.5-0.1,0.8c0,0.3,0,0.6,0.1,0.8
				c0.1,0.4,0.3,0.7,0.5,1c0.2,0.3,0.5,0.5,0.8,0.7c0.3,0.2,0.7,0.3,1,0.4c0.4,0.1,0.7,0.1,1.1,0.1c0.9,0,1.8-0.1,2.6-0.4
				c0.8-0.3,1.6-0.7,2.4-1.2c0,0,0.1,0,0.1-0.1c0,0,0.1-0.1,0.1-0.1c0,0,0.1-0.1,0.1-0.1c0,0,0-0.1,0-0.1c0,0-0.1-0.1-0.2-0.1
				s-0.3-0.1-0.5-0.1c-0.2,0-0.4-0.1-0.6-0.1c-0.2,0-0.4-0.1-0.6-0.1c-0.2,0-0.4-0.1-0.6-0.1c-0.2-0.1-0.4-0.2-0.6-0.3
				c-0.2-0.1-0.3-0.3-0.4-0.5c-0.1-0.2-0.2-0.4-0.2-0.7c0-0.2,0-0.4,0.1-0.7c0.1-0.2,0.2-0.5,0.4-0.7c0.2-0.3,0.3-0.5,0.5-0.7
				c0.2-0.2,0.4-0.4,0.7-0.6c0.2-0.2,0.5-0.3,0.8-0.4c0.3-0.1,0.5-0.2,0.8-0.2c0.1,0,0.2,0,0.4,0.1c0.1,0.1,0.2,0.2,0.3,0.3
				c0.1,0.1,0.2,0.2,0.3,0.4c0.1,0.1,0.2,0.3,0.3,0.4c0.2,0.3,0.4,0.5,0.7,0.6c0.2,0.2,0.4,0.3,0.6,0.3c0.3-0.4,0.6-0.7,0.9-1
				c0.3-0.3,0.6-0.7,0.9-1c0.3-0.3,0.7-0.6,1-0.9c0.4-0.3,0.7-0.5,1.1-0.7c0.2-0.1,0.4-0.2,0.7-0.2c0.2,0,0.5,0,0.8,0
				c0.3,0,0.5,0.1,0.8,0.2c0.2,0.1,0.5,0.2,0.7,0.4c0.2,0.1,0.4,0.3,0.5,0.5c0.1,0.2,0.2,0.4,0.2,0.6c0,0.4-0.1,0.8-0.2,1.1
				c-0.1,0.3-0.3,0.6-0.5,0.9c-0.2,0.3-0.5,0.5-0.8,0.7c-0.3,0.2-0.6,0.3-0.9,0.5c-0.3,0.1-0.7,0.2-1,0.3c-0.3,0.1-0.7,0.1-1,0.2
				c-0.3,0-0.5,0.1-0.8,0.1c-0.3,0-0.5,0-0.8,0c-0.3,0-0.5,0-0.8-0.1c-0.3,0-0.5-0.1-0.8-0.2c-0.1,0.1-0.1,0.2-0.2,0.3
				c-0.1,0.1-0.1,0.2-0.2,0.3c-0.1,0.2-0.1,0.2-0.3,0.2c-0.1,0-0.1-0.1-0.1-0.3c0-0.1,0.1-0.2,0.1-0.3c0-0.1,0.1-0.2,0.1-0.4
				c-0.2-0.1-0.4-0.2-0.6-0.4s-0.4-0.3-0.6-0.5c-0.1-0.1-0.2-0.2-0.3-0.3c-0.1-0.1-0.2-0.2-0.3-0.3c-0.1-0.1-0.2-0.2-0.3-0.2
				c-0.1-0.1-0.2-0.1-0.3-0.1c-0.2,0-0.4,0.1-0.6,0.2c-0.2,0.1-0.4,0.3-0.6,0.4c-0.2,0.2-0.4,0.3-0.6,0.5c-0.2,0.2-0.3,0.4-0.3,0.5
				c0,0.2,0.1,0.4,0.3,0.5c0.2,0.1,0.4,0.2,0.7,0.3c0.3,0.1,0.5,0.1,0.8,0.2c0.3,0,0.5,0.1,0.8,0.1c0.1,0,0.3,0,0.4,0.1
				c0.1,0,0.3,0.1,0.4,0.2c0.1,0.1,0.2,0.2,0.3,0.3C52,35,52.1,35.1,52.1,35.3z M60.2,31.1c-0.1-0.3-0.3-0.5-0.5-0.6
				c-0.2-0.2-0.5-0.3-0.7-0.4c-0.3-0.1-0.5-0.1-0.8-0.1c-0.3,0-0.5,0-0.8,0.1c-0.3,0.1-0.6,0.3-0.9,0.5c-0.3,0.2-0.6,0.4-0.8,0.6
				c-0.3,0.2-0.5,0.5-0.7,0.7c-0.2,0.3-0.5,0.5-0.7,0.7c0.2,0,0.5,0,0.8,0c0.3,0,0.7,0,1.1-0.1c0.4,0,0.8-0.1,1.2-0.2
				c0.4-0.1,0.8-0.2,1.2-0.3c0.4-0.1,0.7-0.3,1-0.4C59.7,31.4,60,31.3,60.2,31.1z M55.5,25.8l1.1,0.9c0,0,0,0.1,0,0.1l-0.7,0.9
				c0,0.1-0.1,0.1-0.1,0l-1.1-0.9c0,0,0-0.1,0-0.1l0.7-0.9C55.4,25.8,55.4,25.8,55.5,25.8z"/>
			<path d="M65.1,26.9c0,0.2,0,0.4-0.1,0.6c-0.1,0.2-0.1,0.4-0.2,0.5c-0.1,0.1-0.3,0.3-0.4,0.3c-0.2,0.1-0.4,0.1-0.6,0.1
				c-0.3,0-0.6-0.1-0.8-0.3c-0.2-0.2-0.3-0.4-0.3-0.8c0-0.2,0-0.4,0.1-0.6c0-0.2,0.1-0.5,0.2-0.7c0.1-0.2,0.2-0.4,0.4-0.6
				c0.2-0.2,0.4-0.3,0.6-0.3c0.2,0,0.4,0,0.6,0.1c0.1,0.1,0.3,0.3,0.3,0.4c0.1,0.2,0.1,0.4,0.2,0.5C65.1,26.6,65.1,26.7,65.1,26.9z
				 M63.8,26.2c-0.1,0-0.2,0.1-0.3,0.1c-0.1,0.1-0.2,0.1-0.2,0.2c-0.1,0.1-0.1,0.2-0.2,0.3c0,0.1-0.1,0.2-0.1,0.3
				c0,0.1,0,0.2,0.1,0.2c0.1,0.1,0.1,0.1,0.2,0.1c0.1,0,0.2,0,0.3,0.1c0.1,0,0.2,0,0.2,0c0.3,0,0.6-0.2,0.8-0.4c0-0.1,0-0.2,0-0.3
				c0-0.1-0.1-0.2-0.2-0.3c-0.1-0.1-0.2-0.2-0.3-0.2C64.1,26.2,63.9,26.2,63.8,26.2z"/>
			<path d="M65,33.8C65,33.7,65,33.7,65,33.8c0.1,0,0.1,0,0.2,0.1c0.2,0.2,0.4,0.4,0.6,0.5s0.4,0.2,0.6,0.3c0.2,0.1,0.4,0.1,0.6,0.1
				c0.2,0,0.4,0,0.6,0h0.2c0.2,0,0.3,0.1,0.4,0.2c0.1,0.1,0.1,0.3,0.1,0.5c0,0.2,0,0.3-0.1,0.5c-0.1,0.1-0.2,0.2-0.4,0.2h-0.2
				c-0.1,0-0.1,0-0.2,0c-0.1,0-0.2,0-0.3,0c-0.1,0-0.2,0-0.3,0c-0.1,0-0.2,0-0.3,0c-0.1,0.4-0.2,0.8-0.3,1.2
				c-0.1,0.4-0.2,0.7-0.3,0.9c-0.1,0.3-0.2,0.5-0.3,0.7c-0.1,0.2-0.2,0.3-0.2,0.4c-0.2,0.3-0.4,0.5-0.7,0.7
				c-0.2,0.2-0.5,0.4-0.8,0.5c-0.3,0.1-0.5,0.2-0.8,0.3c-0.3,0.1-0.6,0.1-0.9,0.1c-0.4,0-0.9,0-1.4,0s-1-0.2-1.5-0.4
				c-0.1,0-0.1-0.1-0.2-0.1c0,0,0-0.1,0-0.1c0,0,0.1-0.1,0.2-0.1s0.2,0,0.3,0c0.7,0.1,1.4,0.1,2-0.1c0.6-0.1,1.2-0.4,1.8-0.7
				c0.7-0.4,1.3-0.9,1.7-1.4c0.4-0.6,0.7-1.2,0.9-1.9c-0.2-0.1-0.4-0.2-0.7-0.4c-0.2-0.2-0.4-0.3-0.5-0.5c0-0.2,0.1-0.4,0.1-0.6
				C64.8,34.2,64.9,34,65,33.8z"/>
			<path d="M72.6,23c-0.3,0.1-0.6,0.3-1,0.4c-0.3,0.1-0.7,0.3-1,0.4c-0.3,0.1-0.6,0.3-0.9,0.4c-0.3,0.1-0.5,0.2-0.7,0.3
				c0,0-0.1,0-0.1,0c0,0,0,0,0-0.1c0,0,0-0.1,0.1-0.2c0-0.1,0.1-0.2,0.1-0.3c0-0.1,0.1-0.2,0.1-0.2c0-0.1,0.1-0.1,0.1-0.1
				c0.1-0.1,0.1-0.1,0.2-0.2L73,22c0.1,0,0.1,0,0.1,0.1c0,0.1-0.1,0.1-0.1,0.2c0,0.1-0.1,0.1-0.1,0.2c0,0.1-0.1,0.1-0.1,0.2
				c0,0.1-0.1,0.1-0.1,0.2C72.7,22.9,72.7,22.9,72.6,23z M70.9,26.3c-0.1,0.3-0.3,0.5-0.4,0.6c-0.2,0.1-0.4,0.2-0.6,0.2
				c-0.2,0-0.4,0-0.5-0.1c-0.1-0.1-0.2-0.3-0.3-0.5c0-0.1,0-0.2,0-0.4c0-0.1,0.1-0.2,0.1-0.4c0-0.1,0.1-0.2,0.2-0.3
				c0.1-0.1,0.1-0.1,0.2-0.2c0.1,0,0.1,0,0,0.2c0,0.1,0,0.1-0.1,0.2c0,0.1,0,0.2,0,0.3c0,0.1,0,0.2,0,0.2c0,0.1,0.1,0.1,0.1,0.1
				c0.1,0.1,0.2,0.1,0.3,0.1c0.1,0,0.2,0,0.3-0.1c0.1,0,0.2-0.1,0.3-0.2c0.1-0.1,0.2-0.1,0.2-0.2c0.1-0.1,0.1-0.2,0.1-0.3
				s0.1-0.2,0.1-0.3c0,0,0-0.1,0-0.1c0,0,0-0.1,0-0.1c0,0,0-0.1,0.1-0.1c0,0,0.1,0,0.1-0.1c0,0,0,0,0.1,0c0,0,0,0.1,0,0.1
				c0,0,0,0.1,0,0.1c0,0,0,0.1,0,0.1c0,0.2,0,0.3,0.1,0.4c0.1,0.1,0.2,0.2,0.3,0.2c0.1,0,0.2,0,0.3,0c0.1,0,0.2-0.1,0.3-0.2
				c0,0,0-0.1,0-0.1c0-0.1,0-0.1,0-0.2c0-0.1,0-0.1,0-0.2c0,0,0-0.1,0-0.1c0,0,0-0.1,0-0.1c0-0.1,0-0.2,0.1-0.2
				c0-0.1,0.1-0.2,0.1-0.2c0-0.1,0.1-0.1,0.1-0.1c0.1,0,0.1,0,0.1,0.1c0,0.1,0.1,0.2,0.1,0.3c0,0.1,0,0.3,0,0.4c0,0.1,0,0.3,0,0.4
				c0,0.1-0.1,0.2-0.1,0.3c0,0.1-0.1,0.2-0.2,0.3c-0.1,0.1-0.1,0.2-0.2,0.2c-0.1,0.1-0.2,0.1-0.3,0.1c-0.2,0-0.4,0-0.5,0
				C71.1,26.5,71,26.4,70.9,26.3z"/>
			<path d="M67.6,34.8c0.2,0,0.5,0,0.7,0c0.2,0,0.5,0,0.7-0.1c0.2-0.1,0.4-0.1,0.6-0.2c0.2-0.1,0.3-0.2,0.4-0.4
				c0.2-0.3,0.3-0.6,0.4-0.9c0.1-0.3,0.3-0.6,0.5-0.9c0.1-0.1,0.2-0.2,0.3-0.4s0.2-0.3,0.4-0.4c0.1-0.1,0.3-0.2,0.4-0.3
				c0.1-0.1,0.3-0.1,0.4-0.1c0.1,0,0.3,0.1,0.4,0.2c0.1,0.1,0.3,0.2,0.4,0.4c0.1,0.2,0.2,0.3,0.3,0.5c0.1,0.2,0.2,0.4,0.3,0.6
				c0.1,0.2,0.1,0.4,0.2,0.6c0,0.2,0.1,0.3,0,0.5c0,0.1,0,0.3-0.1,0.4c0,0.1-0.1,0.3-0.1,0.4c-0.1,0.1-0.1,0.2-0.2,0.3
				c-0.1,0.1-0.2,0.2-0.3,0.2c-0.1,0-0.3,0.1-0.6,0c-0.2,0-0.5-0.1-0.8-0.1c-0.3-0.1-0.6-0.2-0.8-0.3c-0.3-0.1-0.6-0.3-0.8-0.4
				c-0.2,0.7-0.6,1.2-1,1.5c-0.5,0.3-1,0.5-1.7,0.5h-0.2c-0.2,0-0.3-0.1-0.4-0.2c-0.1-0.1-0.1-0.3-0.1-0.5c0-0.2,0-0.3,0.1-0.5
				c0.1-0.1,0.2-0.2,0.4-0.2H67.6z M73.1,33.7c0,0,0-0.1,0-0.1c0-0.1-0.1-0.2-0.1-0.3c0-0.1-0.1-0.2-0.1-0.3c0-0.1-0.1-0.1-0.1-0.2
				c-0.1-0.1-0.1-0.1-0.2-0.2c-0.1-0.1-0.1-0.1-0.2-0.2c-0.1-0.1-0.1-0.1-0.2-0.1c-0.1,0-0.2,0-0.3,0c-0.1,0-0.2,0-0.3,0.1
				c-0.1,0-0.2,0.1-0.3,0.2c-0.1,0.1-0.1,0.1-0.2,0.2C71,32.9,71,32.9,70.9,33c0.3,0.3,0.6,0.4,1,0.5C72.3,33.7,72.7,33.7,73.1,33.7
				z"/>
			<path d="M82.1,33.1c0.1,0,0.2,0,0.3,0.1c0.1,0.1,0.2,0.1,0.3,0.2c0.1,0.1,0.2,0.2,0.3,0.3c0.1,0.1,0.2,0.2,0.3,0.3
				c0.2,0.1,0.3,0.3,0.5,0.3c0.2,0.1,0.4,0.2,0.6,0.2c0.2,0,0.4,0.1,0.7,0.1c0.2,0,0.4,0,0.7,0H86c0.2,0,0.3,0.1,0.4,0.2
				c0.1,0.1,0.1,0.3,0.1,0.5c0,0.2,0,0.3-0.1,0.5c-0.1,0.1-0.2,0.2-0.4,0.2h-0.2c-0.3,0-0.6,0-0.9,0c-0.4,0-0.8-0.1-1.2-0.2
				c0,0.2,0,0.3-0.1,0.4c0,0.1-0.1,0.2-0.1,0.2c-0.2,0-0.5,0-0.8,0c-0.3-0.1-0.6-0.1-0.9-0.2c-0.3-0.1-0.6-0.2-0.8-0.4
				s-0.4-0.3-0.5-0.4c-0.1,0-0.2,0.1-0.4,0.2c-0.1,0.1-0.2,0.2-0.4,0.3c-0.1,0.1-0.2,0.2-0.3,0.4c-0.1,0.1-0.1,0.3-0.1,0.4
				c0,0.2,0,0.5,0.1,0.9c0,0.4,0.1,0.7,0.2,1.1c0.1,0.4,0.1,0.8,0.2,1.2c0.1,0.4,0.1,0.7,0.2,1c0,0.2,0.1,0.5,0.1,0.8
				c0,0.3,0.1,0.6,0.1,0.9c0,0.3,0,0.6,0,0.8c0,0.3,0,0.5-0.1,0.6c0,0.1-0.1,0.1-0.1,0.1c0,0-0.1,0-0.1-0.1c0-0.1-0.1-0.2-0.1-0.4
				c0-0.1,0-0.2-0.1-0.4c0-0.1-0.1-0.3-0.1-0.7c0-0.3-0.1-0.8-0.2-1.4c-0.2-1.1-0.3-2-0.4-2.7c-0.1-0.7-0.2-1.2-0.2-1.6
				c0-0.5,0-1,0.2-1.4c0.1-0.4,0.4-0.7,0.6-1c0.1-0.1,0.2-0.2,0.3-0.3c0.1-0.1,0.3-0.2,0.4-0.4c0.2-0.1,0.3-0.3,0.5-0.4
				c0.2-0.1,0.3-0.2,0.5-0.4c0.2-0.1,0.3-0.2,0.5-0.3C81.9,33.1,82,33.1,82.1,33.1z M81.9,34.1c-0.1,0-0.3,0-0.5,0.1
				c-0.2,0.1-0.3,0.2-0.4,0.3c0,0,0,0,0,0.1c0,0,0,0,0,0.1c0.1,0.1,0.3,0.2,0.5,0.2c0.2,0.1,0.4,0.1,0.6,0.2
				c0.2,0.1,0.4,0.1,0.5,0.1c0.2,0,0.3,0,0.4,0c-0.1-0.1-0.2-0.3-0.3-0.4c-0.1-0.1-0.2-0.2-0.3-0.3c-0.1-0.1-0.2-0.2-0.3-0.2
				C82,34.1,82,34.1,81.9,34.1z"/>
			<path d="M87.7,27c-0.1,0-0.1,0,0-0.1c0-0.1,0.1-0.1,0.2-0.2c0.2-0.1,0.4-0.3,0.6-0.4c0.2-0.1,0.4-0.2,0.5-0.4
				c0.2-0.1,0.4-0.3,0.5-0.4c0.2-0.1,0.3-0.3,0.5-0.5c-0.2,0-0.3-0.1-0.5-0.2c-0.2-0.1-0.3-0.2-0.4-0.4c-0.1-0.1-0.1-0.2-0.1-0.3
				c0-0.1,0-0.2,0-0.3c0.1-0.1,0.1-0.3,0.2-0.5c0.1-0.2,0.2-0.3,0.3-0.4c0.1-0.1,0.2-0.2,0.4-0.3c0.1-0.1,0.3-0.1,0.4-0.1
				c0.1,0,0.2,0,0.3,0.1c0.1,0.1,0.1,0.2,0.2,0.3c0,0.1,0.1,0.2,0.1,0.4c0,0.1,0,0.3,0,0.4c0,0.1,0,0.3,0,0.4c0,0.1,0,0.2,0,0.3
				c0,0,0,0,0,0.1c0.1,0,0.1,0.1,0.1,0.1c0,0,0,0.1,0.1,0.1c0,0.1,0,0.2,0,0.3c0,0.1-0.1,0.2-0.1,0.3c0,0.1-0.1,0.1-0.1,0.1
				c0,0-0.1,0-0.1-0.1c0,0-0.1-0.1-0.1-0.1c0,0-0.1-0.1-0.1-0.1c-0.2,0.2-0.4,0.4-0.5,0.6c-0.2,0.2-0.3,0.3-0.5,0.4
				c-0.2,0.1-0.4,0.2-0.6,0.3c-0.2,0.1-0.4,0.2-0.7,0.3c-0.1,0-0.2,0.1-0.3,0.1S87.7,27,87.7,27z M89.5,23.7
				c0.1,0.2,0.3,0.3,0.4,0.4c0.2,0.1,0.3,0.2,0.5,0.2h0c0-0.1,0-0.1,0-0.2c0-0.1,0-0.2,0-0.2c0-0.1,0-0.2,0-0.2
				c0-0.1-0.1-0.1-0.1-0.2c0,0-0.1-0.1-0.2-0.1c-0.1,0-0.2,0-0.3,0c-0.1,0-0.2,0.1-0.2,0.1C89.6,23.6,89.6,23.7,89.5,23.7z"/>
			<path d="M85.8,34.8c0.6,0,1.3,0,2,0c0.8,0,1.6,0,2.4,0c0.9,0,1.8-0.1,2.7-0.1c1,0,1.9-0.1,2.9-0.2c1-0.1,2-0.2,3-0.3
				c1-0.1,2-0.2,3-0.4c0-0.2-0.1-0.4-0.1-0.5c-0.1-0.2-0.2-0.3-0.3-0.4c-0.1-0.1-0.3-0.2-0.5-0.2c-0.2-0.1-0.4-0.1-0.6-0.1
				c-0.9,0-1.8,0.1-2.8,0.1c-1,0.1-2,0.2-3,0.2c-1,0.1-2,0.1-3,0.2c-1,0-1.9,0-2.8,0c-0.1,0-0.2,0-0.3,0c-0.1,0-0.3,0-0.5-0.1
				c-0.2,0-0.4-0.1-0.6-0.1c-0.2,0-0.4-0.1-0.5-0.1c-0.2-0.1-0.3-0.1-0.4-0.2c-0.1-0.1-0.2-0.2-0.2-0.3c0-0.2,0-0.4,0.1-0.7
				c0.1-0.3,0.2-0.5,0.3-0.7c0.1-0.2,0.3-0.5,0.4-0.7c0.2-0.2,0.3-0.4,0.5-0.5c1.2-1,2.6-1.8,4.2-2.2c0.1,0,0.1,0,0.2,0
				c0,0,0.1,0,0.1,0.1c0,0,0,0.1,0,0.1c0,0,0,0.1,0,0.1c-0.1,0.2-0.1,0.3-0.2,0.5c-0.1,0.2-0.2,0.3-0.2,0.5c-0.1,0-0.3,0-0.5,0.1
				c-0.2,0.1-0.4,0.1-0.7,0.2c-0.2,0.1-0.5,0.2-0.8,0.3c-0.3,0.1-0.5,0.2-0.8,0.4c-0.2,0.1-0.4,0.2-0.6,0.4
				c-0.2,0.1-0.4,0.3-0.5,0.4c-0.2,0.1-0.3,0.3-0.4,0.4c-0.1,0.1-0.1,0.2-0.1,0.3c0,0.1,0.1,0.2,0.3,0.3c0.2,0.1,0.3,0.1,0.5,0.2
				c0.2,0,0.4,0.1,0.6,0.1c0.2,0,0.3,0,0.4,0c0.6,0.1,1.3,0.1,2.1,0.1c0.8,0,1.5,0,2.3-0.1c0.8,0,1.6-0.1,2.4-0.2
				c0.8-0.1,1.5-0.1,2.2-0.2c0.2,0,0.5,0,0.8,0c0.3,0,0.6,0,0.9,0c0.3,0,0.6,0,1,0.1c0.3,0,0.6,0.1,0.9,0.2c0.3,0.1,0.5,0.3,0.6,0.5
				c0.2,0.2,0.3,0.5,0.3,0.8c0,0.2,0,0.3,0,0.5c0,0.2-0.1,0.3-0.1,0.5c-0.1,0.2-0.1,0.3-0.2,0.5c-0.1,0.1-0.1,0.3-0.2,0.4
				c0,0,0.1,0.1,0.1,0.1c0.1,0,0.1,0,0.2,0c0.1,0,0.2,0,0.4,0c0.1,0,0.3,0,0.5,0h0.2c0.2,0,0.3,0.1,0.4,0.2c0.1,0.1,0.1,0.3,0.1,0.5
				c0,0.2,0,0.3-0.1,0.5c-0.1,0.1-0.2,0.2-0.4,0.2h-0.2c-0.3,0-0.6,0-0.8-0.1c-0.2,0-0.4-0.1-0.5-0.2c-0.1-0.1-0.2-0.2-0.3-0.4
				c-0.1-0.2-0.1-0.4-0.1-0.6c-0.9,0.2-1.9,0.3-3,0.4c-1,0.1-2.1,0.2-3.1,0.3c-1,0.1-2,0.2-3,0.2C91.8,36,90.8,36,90,36
				c-0.9,0-1.7,0.1-2.4,0.1c-0.7,0-1.3,0-1.8,0h-0.2c-0.2,0-0.3-0.1-0.4-0.2c-0.1-0.1-0.1-0.3-0.1-0.5c0-0.2,0-0.3,0.1-0.5
				c0.1-0.1,0.2-0.2,0.4-0.2H85.8z"/>
			<path d="M106.5,32.9c0,0.1,0,0.1,0,0.2c0,0.1,0,0.2,0,0.3c0,0.2,0,0.3,0.1,0.5c0.1,0.2,0.2,0.3,0.4,0.4c0.2,0.1,0.4,0.2,0.6,0.3
				c0.2,0.1,0.5,0.1,0.9,0.1h0.2c0.2,0,0.3,0.1,0.4,0.2c0.1,0.1,0.1,0.3,0.1,0.5c0,0.2,0,0.3-0.1,0.5c-0.1,0.1-0.2,0.2-0.4,0.2h-0.2
				c-0.6,0-1.2-0.1-1.5-0.4c-0.4-0.2-0.7-0.6-0.9-1c-0.1,0.3-0.3,0.6-0.5,0.7c-0.2,0.2-0.4,0.3-0.7,0.4c-0.2,0.1-0.5,0.2-0.7,0.2
				s-0.4,0-0.6,0h-0.2c-0.2,0-0.3-0.1-0.4-0.2c-0.1-0.1-0.1-0.3-0.1-0.5c0-0.2,0-0.3,0.1-0.5c0.1-0.1,0.2-0.2,0.4-0.2h0.2
				c0.2,0,0.4,0,0.6,0c0.2,0,0.4,0,0.6-0.1c0.2-0.1,0.4-0.1,0.6-0.2c0.2-0.1,0.4-0.3,0.5-0.4c0.1-0.2,0.2-0.3,0.3-0.4
				c0.1-0.1,0.1-0.3,0.2-0.5c0,0,0-0.1,0-0.1c0,0,0.1,0,0.1,0C106.4,32.9,106.5,32.9,106.5,32.9C106.5,32.9,106.5,32.9,106.5,32.9z
				 M105.7,28.9l1.1,0.9c0,0,0,0.1,0,0.1l-0.7,0.9c0,0.1-0.1,0.1-0.1,0l-1.1-0.9c0,0,0-0.1,0-0.1l0.7-0.9
				C105.6,28.9,105.6,28.9,105.7,28.9z"/>
			<path d="M113.2,38.1c-0.6,0.2-1.2,0.4-1.7,0.6c-0.5,0.2-1.1,0.4-1.6,0.6c-0.1,0-0.1,0-0.1-0.1c0-0.1,0.1-0.2,0.2-0.4
				c0.1-0.1,0.1-0.2,0.2-0.3c0,0,0.1-0.1,0.1-0.1c0.1-0.1,0.3-0.1,0.6-0.2c0.3-0.1,0.5-0.2,0.8-0.3c0.3-0.1,0.6-0.2,1-0.3
				c0.3-0.1,0.7-0.2,1-0.3c0.1,0,0.1,0,0.1,0.1c0,0.1-0.1,0.1-0.1,0.2c0,0.1-0.1,0.1-0.1,0.2c0,0.1-0.1,0.1-0.1,0.2
				c0,0.1-0.1,0.1-0.1,0.1C113.4,38,113.3,38.1,113.2,38.1C113.3,38.1,113.3,38.1,113.2,38.1z"/>
			<path d="M108.5,34.8c0.2,0,0.5,0,0.7,0c0.2,0,0.5,0,0.7-0.1c0.2-0.1,0.4-0.1,0.6-0.2c0.2-0.1,0.3-0.2,0.4-0.4
				c0.2-0.3,0.3-0.6,0.4-0.9c0.1-0.3,0.3-0.6,0.5-0.9c0.1-0.1,0.2-0.2,0.3-0.4c0.1-0.1,0.2-0.3,0.4-0.4c0.1-0.1,0.3-0.2,0.4-0.3
				c0.1-0.1,0.3-0.1,0.4-0.1c0.1,0,0.3,0.1,0.4,0.2c0.1,0.1,0.3,0.2,0.4,0.4c0.1,0.2,0.2,0.3,0.3,0.5c0.1,0.2,0.2,0.4,0.3,0.6
				c0.1,0.2,0.1,0.4,0.2,0.6c0,0.2,0.1,0.3,0,0.5c0,0.1,0,0.3-0.1,0.4c0,0.1-0.1,0.3-0.1,0.4c-0.1,0.1-0.1,0.2-0.2,0.3
				c-0.1,0.1-0.2,0.2-0.3,0.2c-0.1,0-0.3,0.1-0.6,0c-0.2,0-0.5-0.1-0.8-0.1c-0.3-0.1-0.6-0.2-0.8-0.3c-0.3-0.1-0.6-0.3-0.8-0.4
				c-0.2,0.7-0.6,1.2-1,1.5s-1,0.5-1.7,0.5h-0.2c-0.2,0-0.3-0.1-0.4-0.2c-0.1-0.1-0.1-0.3-0.1-0.5c0-0.2,0-0.3,0.1-0.5
				c0.1-0.1,0.2-0.2,0.4-0.2H108.5z M114,33.7c0,0,0-0.1,0-0.1c0-0.1-0.1-0.2-0.1-0.3c0-0.1-0.1-0.2-0.1-0.3c0-0.1-0.1-0.1-0.1-0.2
				c-0.1-0.1-0.1-0.1-0.2-0.2c-0.1-0.1-0.1-0.1-0.2-0.2c-0.1-0.1-0.1-0.1-0.2-0.1c-0.1,0-0.2,0-0.3,0c-0.1,0-0.2,0-0.3,0.1
				s-0.2,0.1-0.3,0.2c-0.1,0.1-0.1,0.1-0.2,0.2c-0.1,0.1-0.1,0.2-0.1,0.3c0.3,0.3,0.6,0.4,1,0.5C113.2,33.7,113.6,33.7,114,33.7z"/>
			<path d="M121.6,26.8c-0.1,0-0.1,0,0-0.1c0-0.1,0.1-0.1,0.2-0.2c0.2-0.1,0.4-0.3,0.6-0.4c0.2-0.1,0.4-0.2,0.5-0.4
				c0.2-0.1,0.4-0.3,0.5-0.4c0.2-0.1,0.3-0.3,0.5-0.5c-0.2,0-0.3-0.1-0.5-0.2c-0.2-0.1-0.3-0.2-0.4-0.4c-0.1-0.1-0.1-0.2-0.1-0.3
				c0-0.1,0-0.2,0-0.3c0.1-0.1,0.1-0.3,0.2-0.5c0.1-0.2,0.2-0.3,0.3-0.4c0.1-0.1,0.2-0.2,0.4-0.3c0.1-0.1,0.3-0.1,0.4-0.1
				c0.1,0,0.2,0,0.3,0.1c0.1,0.1,0.1,0.2,0.2,0.3c0,0.1,0.1,0.2,0.1,0.4c0,0.1,0,0.3,0,0.4c0,0.1,0,0.3,0,0.4c0,0.1,0,0.2,0,0.3
				c0,0,0,0,0,0.1c0.1,0,0.1,0.1,0.1,0.1c0,0,0,0.1,0.1,0.1c0,0.1,0,0.2,0,0.3c0,0.1-0.1,0.2-0.1,0.3c0,0.1-0.1,0.1-0.1,0.1
				c0,0-0.1,0-0.1-0.1c0,0-0.1-0.1-0.1-0.1c0,0-0.1-0.1-0.1-0.1c-0.2,0.2-0.4,0.4-0.5,0.6c-0.2,0.2-0.3,0.3-0.5,0.4
				c-0.2,0.1-0.4,0.2-0.6,0.3c-0.2,0.1-0.4,0.2-0.7,0.3c-0.1,0-0.2,0.1-0.3,0.1S121.6,26.8,121.6,26.8z M123.5,23.5
				c0.1,0.2,0.3,0.3,0.4,0.4c0.2,0.1,0.3,0.2,0.5,0.2h0c0-0.1,0-0.1,0-0.2c0-0.1,0-0.2,0-0.2c0-0.1,0-0.2,0-0.2
				c0-0.1-0.1-0.1-0.1-0.2c0,0-0.1-0.1-0.2-0.1c-0.1,0-0.2,0-0.3,0c-0.1,0-0.2,0.1-0.2,0.1C123.5,23.4,123.5,23.5,123.5,23.5z"/>
			<path d="M126.4,29.9c0.3,0.4,0.5,0.8,0.7,1.2c0.2,0.4,0.4,0.9,0.5,1.3c0.1,0.5,0.2,0.9,0.3,1.4c0,0.5,0,0.9,0,1.4
				c-0.1,0.4-0.2,0.7-0.3,1c-0.2,0.3-0.4,0.6-0.6,0.8c-0.2,0.2-0.5,0.5-0.8,0.7c-0.3,0.2-0.6,0.3-1,0.5c-0.3,0.1-0.7,0.2-1,0.3
				c-0.4,0.1-0.7,0.1-1,0.1c-0.5,0-0.9-0.1-1.3-0.2c-0.4-0.1-0.8-0.4-1.1-0.6c-0.3-0.3-0.5-0.6-0.7-1c-0.2-0.4-0.3-0.8-0.3-1.4
				c0-0.6,0.1-1.1,0.3-1.6c0.2-0.5,0.4-1,0.7-1.5c0-0.1,0.1-0.1,0.1-0.1c0,0,0.1,0,0.1,0c0,0,0,0.1,0,0.1c0,0,0,0.1,0,0.1
				c-0.3,0.6-0.5,1.1-0.5,1.7c-0.1,0.6,0,1.1,0.1,1.5c0.1,0.2,0.2,0.4,0.4,0.6c0.2,0.2,0.3,0.4,0.5,0.5c0.2,0.1,0.5,0.2,0.8,0.3
				c0.3,0.1,0.6,0.1,1,0.1c0.4,0,0.8,0,1.1-0.1c0.4-0.1,0.8-0.2,1.1-0.3c0.4-0.1,0.7-0.3,1-0.6c0.3-0.2,0.6-0.5,0.9-0.8
				c0-0.3,0-0.7-0.1-1.1s-0.2-0.8-0.3-1.1c-0.1-0.4-0.3-0.7-0.5-1.1c-0.2-0.4-0.4-0.7-0.5-0.9c0.1-0.2,0.1-0.4,0.2-0.6
				c0.1-0.2,0.1-0.4,0.2-0.6C126.3,29.8,126.3,29.8,126.4,29.9C126.4,29.8,126.4,29.8,126.4,29.9z M123.9,27.6l1.1,0.9
				c0,0,0,0.1,0,0.1l-0.7,0.9c0,0.1-0.1,0.1-0.1,0l-1.1-0.9c0,0,0-0.1,0-0.1l0.7-0.9C123.8,27.5,123.8,27.5,123.9,27.6z"/>
			<path d="M134,36.1l-0.9,0c-0.2,0-0.5,0-0.7-0.1c-0.2-0.1-0.4-0.2-0.6-0.3c-0.2-0.1-0.3-0.3-0.4-0.5c-0.1-0.2-0.1-0.4-0.1-0.7
				c0-0.1,0-0.2,0.1-0.4c0-0.2,0.1-0.3,0.2-0.5c0.1-0.2,0.2-0.3,0.3-0.5c0.1-0.2,0.2-0.3,0.3-0.4c0.1-0.1,0.2-0.2,0.4-0.3
				c0.1-0.1,0.3-0.1,0.4-0.1c0.2,0,0.4,0.1,0.6,0.2c0.2,0.2,0.3,0.4,0.5,0.6c0.1,0.2,0.3,0.5,0.3,0.7c0.1,0.3,0.1,0.5,0.2,0.7l0.7,0
				h0.2c0.2,0,0.3,0.1,0.4,0.2c0.1,0.1,0.1,0.3,0.1,0.5c0,0.2,0,0.3-0.1,0.5c-0.1,0.1-0.2,0.2-0.4,0.2h-0.2l-0.7,0
				c-0.1,0.5-0.2,1-0.4,1.4c-0.1,0.5-0.3,0.9-0.5,1.3c-0.2,0.4-0.5,0.7-0.8,1c-0.3,0.3-0.7,0.5-1.1,0.7c-0.3,0.1-0.7,0.1-1,0.2
				c-0.4,0-0.8,0-1.2,0c-0.4,0-0.8-0.1-1.2-0.1c-0.4-0.1-0.7-0.1-1.1-0.2c-0.1,0-0.1-0.1-0.1-0.1c0,0,0-0.1,0-0.1
				c0-0.1,0.1-0.1,0.1-0.1c0.1,0,0.1,0,0.2,0c0.3,0,0.7,0,1,0c0.4,0,0.7,0,1.1-0.1c0.4,0,0.7-0.1,1-0.2c0.3-0.1,0.6-0.2,0.9-0.4
				c0.3-0.2,0.6-0.4,0.9-0.6c0.3-0.2,0.5-0.5,0.7-0.8c0.2-0.3,0.4-0.6,0.5-0.9C133.8,36.8,133.9,36.4,134,36.1z M132.7,33.9
				c-0.1,0-0.2,0-0.2,0.1c-0.1,0.1-0.1,0.1-0.2,0.2c-0.1,0.1-0.1,0.1-0.2,0.2c0,0.1-0.1,0.1-0.1,0.2c0,0.1,0.1,0.1,0.3,0.2
				c0.1,0,0.3,0.1,0.5,0.1c0.2,0,0.3,0,0.5,0c0.2,0,0.3,0,0.4,0c0,0,0-0.1-0.1-0.2c-0.1-0.1-0.1-0.2-0.2-0.3
				c-0.1-0.1-0.2-0.2-0.3-0.3C132.9,34,132.8,33.9,132.7,33.9z"/>
			<path d="M136.9,24.1c-0.1,0-0.1,0,0-0.1c0-0.1,0.1-0.1,0.2-0.2c0.2-0.1,0.4-0.3,0.6-0.4c0.2-0.1,0.4-0.2,0.5-0.4
				c0.2-0.1,0.4-0.3,0.5-0.4c0.2-0.1,0.3-0.3,0.5-0.5c-0.2,0-0.3-0.1-0.5-0.2c-0.2-0.1-0.3-0.2-0.4-0.4c-0.1-0.1-0.1-0.2-0.1-0.3
				c0-0.1,0-0.2,0-0.3c0.1-0.1,0.1-0.3,0.2-0.5c0.1-0.2,0.2-0.3,0.3-0.4c0.1-0.1,0.2-0.2,0.4-0.3s0.3-0.1,0.4-0.1
				c0.1,0,0.2,0,0.3,0.1c0.1,0.1,0.1,0.2,0.2,0.3c0,0.1,0.1,0.2,0.1,0.4c0,0.1,0,0.3,0,0.4c0,0.1,0,0.3,0,0.4c0,0.1,0,0.2,0,0.3
				c0,0,0,0,0,0.1c0.1,0,0.1,0.1,0.1,0.1c0,0,0,0.1,0.1,0.1c0,0.1,0,0.2,0,0.3c0,0.1-0.1,0.2-0.1,0.3c0,0.1-0.1,0.1-0.1,0.1
				c0,0-0.1,0-0.1-0.1c0,0-0.1-0.1-0.1-0.1c0,0-0.1-0.1-0.1-0.1c-0.2,0.2-0.4,0.4-0.5,0.6c-0.2,0.2-0.3,0.3-0.5,0.4
				c-0.2,0.1-0.4,0.2-0.6,0.3c-0.2,0.1-0.4,0.2-0.7,0.3c-0.1,0-0.2,0.1-0.3,0.1C137.1,24.1,137,24.1,136.9,24.1z M138.8,20.9
				c0.1,0.2,0.3,0.3,0.4,0.4c0.2,0.1,0.3,0.2,0.5,0.2h0c0-0.1,0-0.1,0-0.2c0-0.1,0-0.2,0-0.2c0-0.1,0-0.2,0-0.2
				c0-0.1-0.1-0.1-0.1-0.2c0,0-0.1-0.1-0.2-0.1c-0.1,0-0.2,0-0.3,0c-0.1,0-0.2,0.1-0.2,0.1C138.8,20.8,138.8,20.8,138.8,20.9z"/>
			<path d="M135.1,34.8h0.2c0.2,0,0.4,0,0.6,0c0.2,0,0.5,0,0.8,0c0.3,0,0.6,0,0.9-0.1c0.3,0,0.6-0.1,0.9-0.1
				c0.3-0.1,0.6-0.1,0.8-0.2c0.3-0.1,0.5-0.2,0.7-0.4c-0.1-0.3-0.2-0.5-0.4-0.8c-0.2-0.3-0.4-0.5-0.6-0.8c-0.2-0.2-0.5-0.5-0.7-0.7
				c-0.2-0.2-0.5-0.4-0.7-0.6c-0.2-0.2-0.4-0.3-0.6-0.5c-0.2-0.2-0.4-0.3-0.6-0.5c-0.2-0.2-0.4-0.3-0.6-0.5
				c-0.2-0.2-0.4-0.3-0.5-0.4c-0.1-0.1-0.1-0.2-0.1-0.3c0-0.2,0-0.3,0.1-0.5s0.1-0.4,0.2-0.6c0.1-0.2,0.1-0.4,0.2-0.5
				c0.1-0.2,0.4-0.5,0.7-0.7c0.3-0.2,0.6-0.5,1-0.7c0.4-0.2,0.7-0.4,1.1-0.6c0.4-0.2,0.7-0.4,0.9-0.5c0.5-0.3,1-0.5,1.5-0.7
				c0.4-0.2,0.9-0.4,1.3-0.6c0.4-0.2,0.9-0.4,1.3-0.6c0.4-0.2,0.9-0.4,1.5-0.7c0,0,0,0,0,0c0,0,0,0,0,0.1c-0.1,0.2-0.1,0.5-0.2,0.7
				c-0.1,0.2-0.2,0.5-0.3,0.7c-0.5,0.2-0.9,0.4-1.2,0.6c-0.4,0.2-0.7,0.3-1.1,0.5c-0.3,0.2-0.7,0.3-1.1,0.5
				c-0.4,0.2-0.8,0.4-1.2,0.6c-0.5,0.3-1,0.5-1.4,0.7c-0.4,0.2-0.7,0.4-1,0.5c-0.3,0.2-0.5,0.3-0.7,0.4c-0.2,0.1-0.4,0.3-0.5,0.4
				c-0.1,0.1-0.2,0.2-0.3,0.3c-0.1,0.1-0.1,0.2-0.1,0.3c0.7,0.5,1.4,0.9,2.1,1.3c0.7,0.4,1.3,0.9,2,1.4c0.2,0.2,0.4,0.3,0.7,0.6
				c0.3,0.2,0.5,0.4,0.8,0.7c0.3,0.2,0.6,0.5,0.9,0.7c0.3,0.2,0.6,0.5,0.8,0.6c0.3,0.2,0.5,0.4,0.7,0.5c0.2,0.1,0.4,0.3,0.6,0.4
				c0.2,0.1,0.5,0.2,0.7,0.2c0.3,0,0.6,0.1,0.9,0.1h0.2c0.2,0,0.3,0.1,0.4,0.2c0.1,0.1,0.1,0.3,0.1,0.5c0,0.2,0,0.3-0.1,0.5
				c-0.1,0.1-0.2,0.2-0.4,0.2h-0.2c-0.3,0-0.6,0-0.9-0.1c-0.3,0-0.6-0.1-0.8-0.2c-0.3-0.1-0.5-0.2-0.8-0.4c-0.2-0.1-0.5-0.3-0.8-0.5
				c-0.3-0.2-0.6-0.4-0.8-0.7c-0.3-0.2-0.5-0.5-0.8-0.7c-0.2-0.2-0.5-0.5-0.7-0.7c-0.2-0.2-0.4-0.4-0.6-0.5c0.1,0.1,0.2,0.3,0.3,0.5
				c0.1,0.2,0.1,0.5,0.2,0.8c0,0.3,0,0.5-0.1,0.8c-0.1,0.3-0.2,0.5-0.4,0.7c-0.2,0.2-0.4,0.3-0.7,0.4c-0.3,0.1-0.5,0.2-0.8,0.3
				c-0.3,0.1-0.6,0.1-0.9,0.2c-0.3,0-0.6,0.1-0.9,0.1c-0.3,0-0.5,0-0.8,0c-0.2,0-0.4,0-0.6,0h-0.2c-0.2,0-0.3-0.1-0.4-0.2
				c-0.1-0.1-0.1-0.3-0.1-0.5c0-0.2,0-0.3,0.1-0.5C134.8,34.8,134.9,34.8,135.1,34.8z"/>
			<path d="M149.7,26.2c-0.3,0.1-0.6,0.3-1,0.4c-0.3,0.1-0.7,0.3-1,0.4c-0.3,0.1-0.6,0.3-0.9,0.4c-0.3,0.1-0.5,0.2-0.7,0.3
				c0,0-0.1,0-0.1,0c0,0,0,0,0-0.1c0,0,0-0.1,0.1-0.2c0-0.1,0.1-0.2,0.1-0.3c0-0.1,0.1-0.2,0.1-0.2c0-0.1,0.1-0.1,0.1-0.1
				c0.1-0.1,0.1-0.1,0.2-0.2l3.4-1.4c0.1,0,0.1,0,0.1,0.1c0,0.1-0.1,0.1-0.1,0.2c0,0.1-0.1,0.1-0.1,0.2c0,0.1-0.1,0.1-0.1,0.2
				c0,0.1-0.1,0.1-0.1,0.2C149.8,26.1,149.8,26.2,149.7,26.2z"/>
			<path d="M149.2,32.9c0,0.1,0,0.1,0,0.2c0,0.1,0,0.2,0,0.3c0,0.2,0,0.3,0.1,0.5c0.1,0.2,0.2,0.3,0.4,0.4c0.2,0.1,0.4,0.2,0.6,0.3
				c0.2,0.1,0.5,0.1,0.9,0.1h0.2c0.2,0,0.3,0.1,0.4,0.2c0.1,0.1,0.1,0.3,0.1,0.5c0,0.2,0,0.3-0.1,0.5c-0.1,0.1-0.2,0.2-0.4,0.2h-0.2
				c-0.6,0-1.2-0.1-1.5-0.4c-0.4-0.2-0.7-0.6-0.9-1c-0.1,0.3-0.3,0.6-0.5,0.7c-0.2,0.2-0.4,0.3-0.7,0.4c-0.2,0.1-0.5,0.2-0.7,0.2
				c-0.2,0-0.4,0-0.6,0H146c-0.2,0-0.3-0.1-0.4-0.2c-0.1-0.1-0.1-0.3-0.1-0.5c0-0.2,0-0.3,0.1-0.5c0.1-0.1,0.2-0.2,0.4-0.2h0.2
				c0.2,0,0.4,0,0.6,0c0.2,0,0.4,0,0.6-0.1c0.2-0.1,0.4-0.1,0.6-0.2c0.2-0.1,0.4-0.3,0.5-0.4c0.1-0.2,0.2-0.3,0.3-0.4
				c0.1-0.1,0.1-0.3,0.2-0.5c0,0,0-0.1,0-0.1c0,0,0.1,0,0.1,0C149.1,32.9,149.1,32.9,149.2,32.9C149.1,32.9,149.2,32.9,149.2,32.9z
				 M149.8,39.6C149.7,39.7,149.7,39.7,149.8,39.6c-0.1,0.1-0.1,0-0.2,0l-1-0.8l-0.7,0.9c0,0.1-0.1,0.1-0.1,0l-1.1-0.9
				c0,0,0-0.1,0-0.1l0.7-1c0,0,0-0.1,0.1-0.1c0,0,0,0,0.1,0l1.1,0.8l0.7-0.9c0,0,0.1-0.1,0.1,0l1.1,0.9c0,0,0,0.1,0,0.1L149.8,39.6z
				"/>
			<path class="st0" d="M157.1,26.2c-0.3,0.1-0.6,0.3-1,0.4c-0.3,0.1-0.7,0.3-1,0.4c-0.3,0.1-0.6,0.3-0.9,0.4
				c-0.3,0.1-0.5,0.2-0.7,0.3c0,0-0.1,0-0.1,0c0,0,0,0,0-0.1c0,0,0-0.1,0.1-0.2c0-0.1,0.1-0.2,0.1-0.3c0-0.1,0.1-0.2,0.1-0.2
				c0-0.1,0.1-0.1,0.1-0.1c0.1-0.1,0.1-0.1,0.2-0.2l3.4-1.4c0.1,0,0.1,0,0.1,0.1c0,0.1-0.1,0.1-0.1,0.2c0,0.1-0.1,0.1-0.1,0.2
				c0,0.1-0.1,0.1-0.1,0.2c0,0.1-0.1,0.1-0.1,0.2C157.2,26.1,157.2,26.2,157.1,26.2z"/>
			<path class="st0" d="M157.3,33c0-0.1,0.1-0.1,0.1-0.2c0,0,0.1-0.1,0.1-0.1c0,0,0.1,0,0.1,0.1c0,0,0,0.1,0,0.2
				c0,0.1-0.1,0.2-0.1,0.4c0,0.1-0.1,0.3-0.2,0.4c0,0.1,0.1,0.2,0.3,0.3c0.2,0.1,0.3,0.2,0.5,0.3c0.2,0.1,0.4,0.1,0.6,0.1
				c0.2,0,0.4,0,0.5,0c0-0.2,0-0.4,0-0.6c0-0.2-0.1-0.4-0.2-0.6c0.1-0.1,0.1-0.2,0.1-0.3c0-0.1,0.1-0.2,0.1-0.2s0.1-0.1,0.1-0.2
				c0-0.1,0.1-0.1,0.1-0.2c0,0,0.1,0,0.1,0c0.1,0.2,0.1,0.4,0.2,0.6c0,0.2,0,0.4,0.1,0.5c0,0.2,0,0.4,0,0.5c0,0.2-0.1,0.4-0.1,0.5
				c0,0.1-0.1,0.2-0.1,0.4c-0.1,0.1-0.1,0.3-0.2,0.4c-0.1,0.1-0.2,0.3-0.3,0.4c-0.1,0.1-0.2,0.2-0.4,0.2c-0.1,0-0.3,0-0.5,0
				c-0.2,0-0.4-0.1-0.6-0.2c-0.2-0.1-0.4-0.2-0.6-0.3c-0.2-0.1-0.3-0.3-0.5-0.4c-0.2,0.3-0.4,0.5-0.7,0.6c-0.3,0.2-0.6,0.3-0.9,0.3
				c-0.3,0.1-0.7,0.1-1,0c-0.4,0-0.7-0.1-1-0.3c-0.2,0.1-0.4,0.2-0.6,0.3c-0.2,0.1-0.4,0.1-0.5,0.2c-0.2,0-0.3,0.1-0.5,0.1
				c-0.1,0-0.3,0-0.4,0h-0.2c-0.2,0-0.3-0.1-0.4-0.2c-0.1-0.1-0.1-0.3-0.1-0.5c0-0.2,0-0.3,0.1-0.5c0.1-0.1,0.2-0.2,0.4-0.2h0.2
				c0.4,0,0.7,0,1,0c0.3,0,0.6-0.1,0.9-0.2c0.3-0.1,0.5-0.3,0.7-0.5c0.2-0.2,0.4-0.5,0.6-0.8c0-0.1,0.1-0.1,0.1-0.1c0,0,0.1,0,0.1,0
				c0,0,0.1,0,0.1,0c0,0,0,0.1,0,0.1c0,0.1,0,0.2-0.1,0.3c0,0.1-0.1,0.3-0.1,0.4c-0.1,0.1-0.1,0.3-0.2,0.4c-0.1,0.1-0.1,0.2-0.2,0.3
				c0.3,0.1,0.7,0.1,1.1,0.1c0.4,0,0.8-0.1,1.1-0.3c0.3-0.1,0.5-0.3,0.6-0.6C157,33.6,157.1,33.3,157.3,33z"/>
			<path class="st0" d="M171.5,29.9c0.3,0.4,0.5,0.8,0.7,1.2s0.4,0.9,0.5,1.3c0.1,0.5,0.2,0.9,0.3,1.4c0,0.5,0,0.9,0,1.4
				c-0.1,0.4-0.2,0.7-0.3,1c-0.2,0.3-0.4,0.6-0.6,0.8c-0.2,0.2-0.5,0.5-0.8,0.7s-0.6,0.3-1,0.5s-0.7,0.2-1,0.3
				c-0.4,0.1-0.7,0.1-1,0.1c-0.5,0-0.9-0.1-1.3-0.2c-0.4-0.1-0.8-0.4-1.1-0.6c-0.3-0.3-0.5-0.6-0.7-1c-0.2-0.4-0.3-0.8-0.3-1.4
				c0-0.6,0.1-1.1,0.3-1.6c0.2-0.5,0.4-1,0.7-1.5c0-0.1,0.1-0.1,0.1-0.1c0,0,0.1,0,0.1,0c0,0,0,0.1,0,0.1c0,0,0,0.1,0,0.1
				c-0.3,0.6-0.5,1.1-0.5,1.7s0,1.1,0.1,1.5c0.1,0.2,0.2,0.4,0.4,0.6c0.2,0.2,0.3,0.4,0.5,0.5c0.2,0.1,0.5,0.2,0.8,0.3
				c0.3,0.1,0.6,0.1,1,0.1c0.4,0,0.8,0,1.1-0.1c0.4-0.1,0.8-0.2,1.1-0.3c0.4-0.1,0.7-0.3,1-0.6c0.3-0.2,0.6-0.5,0.9-0.8
				c0-0.3,0-0.7-0.1-1.1c-0.1-0.4-0.2-0.8-0.3-1.1c-0.1-0.4-0.3-0.7-0.5-1.1c-0.2-0.4-0.4-0.7-0.5-0.9c0.1-0.2,0.1-0.4,0.2-0.6
				c0.1-0.2,0.1-0.4,0.2-0.6C171.3,29.8,171.4,29.8,171.5,29.9C171.4,29.8,171.4,29.8,171.5,29.9z M168.9,27.6l1.1,0.9
				c0,0,0,0.1,0,0.1l-0.7,0.9c0,0.1-0.1,0.1-0.1,0l-1.1-0.9c0,0,0-0.1,0-0.1l0.7-0.9C168.8,27.5,168.9,27.5,168.9,27.6z"/>
			<path d="M177.1,18.5c-0.3,0.1-0.6,0.3-1,0.4c-0.3,0.1-0.7,0.3-1,0.4c-0.3,0.1-0.6,0.3-0.9,0.4c-0.3,0.1-0.5,0.2-0.7,0.3
				c0,0-0.1,0-0.1,0c0,0,0,0,0-0.1c0,0,0-0.1,0.1-0.2c0-0.1,0.1-0.2,0.1-0.3c0-0.1,0.1-0.2,0.1-0.2c0-0.1,0.1-0.1,0.1-0.1
				c0.1-0.1,0.1-0.1,0.2-0.2l3.4-1.4c0.1,0,0.1,0,0.1,0.1c0,0.1-0.1,0.1-0.1,0.2c0,0.1-0.1,0.1-0.1,0.2c0,0.1-0.1,0.1-0.1,0.2
				c0,0.1-0.1,0.1-0.1,0.2C177.2,18.5,177.1,18.5,177.1,18.5z"/>
			<path d="M174.1,23.5c0,0,0.1-0.1,0.2-0.1c0.1,0,0.1-0.1,0.2-0.1c0.1,0,0.1-0.1,0.2-0.1c0.1,0,0.1-0.1,0.2-0.1
				c-0.1-0.1-0.3-0.2-0.4-0.3c-0.1-0.1-0.2-0.3-0.3-0.5c0-0.1,0-0.2,0-0.2c0-0.1,0-0.2,0.1-0.2c0.1-0.1,0.2-0.3,0.3-0.4
				c0.1-0.1,0.3-0.3,0.4-0.4c0.1-0.1,0.3-0.2,0.5-0.3c0.2-0.1,0.3-0.1,0.5-0.1c0.1,0,0.1,0,0.2,0.1c0.1,0,0.1,0.1,0.2,0.2
				c0,0.1,0.1,0.1,0.1,0.2c0,0.1,0.1,0.1,0.1,0.2c0,0.1,0,0.2,0,0.3l-0.2,0.3c-0.1,0.1-0.1,0.2-0.2,0.2c-0.1,0-0.1,0-0.1-0.1
				c0-0.1,0-0.2-0.1-0.2c-0.1-0.1-0.1-0.2-0.2-0.2c-0.1,0-0.1-0.1-0.2-0.1c-0.3,0-0.5,0.1-0.8,0.3c0.1,0.2,0.2,0.4,0.4,0.6
				c0.2,0.2,0.4,0.3,0.6,0.3c0.3,0,0.6,0,0.9,0c0.3-0.1,0.6-0.1,0.9-0.2c0,0,0,0.1,0,0.1c0,0.1-0.1,0.2-0.1,0.3
				c0,0.1-0.1,0.2-0.1,0.3c0,0.1-0.1,0.1-0.1,0.1c-0.2,0-0.5,0.1-0.8,0.1c-0.3,0.1-0.5,0.1-0.8,0.2c-0.3,0.1-0.6,0.2-0.9,0.3
				c-0.3,0.1-0.6,0.3-0.9,0.4c-0.1,0-0.1,0-0.1-0.1c0-0.1,0.1-0.2,0.1-0.4C174,23.8,174.1,23.6,174.1,23.5z M175.4,24.9
				C175.4,24.9,175.4,24.9,175.4,24.9c0.1,0.1,0.1,0.1,0.1,0.1c0,0,0,0.1,0,0.1c0,0,0,0.1,0,0.1c0,0.2,0,0.4,0,0.6
				c0,0.2,0,0.4,0.1,0.6c0.1,0.5,0.1,1,0.2,1.6c0.1,0.5,0.2,1.1,0.2,1.7c0.1,0.6,0.2,1.1,0.2,1.7c0.1,0.5,0.1,1.1,0.2,1.6
				c0,0.2,0,0.4,0,0.7c0,0.3,0,0.5,0,0.8c0,0.3,0,0.5-0.1,0.8c0,0.3-0.1,0.5-0.2,0.7c0,0.1-0.1,0.2-0.2,0.2c0,0-0.1,0-0.1-0.1
				c-0.1-1-0.2-2-0.3-3.1c-0.2-1.1-0.3-2.2-0.5-3.2c-0.2-1.1-0.3-2.2-0.4-3.2c0-0.3,0.1-0.5,0.2-0.8c0.1-0.2,0.1-0.3,0.2-0.4
				S175.3,25,175.4,24.9z"/>
			<path d="M186.2,27.1c-0.3,0.1-0.6,0.3-1,0.4c-0.3,0.1-0.7,0.3-1,0.4c-0.3,0.1-0.6,0.3-0.9,0.4c-0.3,0.1-0.5,0.2-0.7,0.3
				c0,0-0.1,0-0.1,0c0,0,0,0,0-0.1c0,0,0-0.1,0.1-0.2c0-0.1,0.1-0.2,0.1-0.3c0-0.1,0.1-0.2,0.1-0.2c0-0.1,0.1-0.1,0.1-0.1
				c0.1-0.1,0.1-0.1,0.2-0.2l3.4-1.4c0.1,0,0.1,0,0.1,0.1c0,0.1-0.1,0.1-0.1,0.2c0,0.1-0.1,0.1-0.1,0.2c0,0.1-0.1,0.1-0.1,0.2
				c0,0.1-0.1,0.1-0.1,0.2C186.3,27,186.2,27.1,186.2,27.1z"/>
			<path d="M185.2,33.1c0.1,0,0.2,0,0.3,0.1c0.1,0.1,0.2,0.1,0.3,0.2c0.1,0.1,0.2,0.2,0.3,0.3c0.1,0.1,0.2,0.2,0.3,0.3
				c0.2,0.1,0.3,0.3,0.5,0.3c0.2,0.1,0.4,0.2,0.6,0.2c0.2,0,0.4,0.1,0.7,0.1c0.2,0,0.4,0,0.7,0h0.2c0.2,0,0.3,0.1,0.4,0.2
				c0.1,0.1,0.1,0.3,0.1,0.5c0,0.2,0,0.3-0.1,0.5c-0.1,0.1-0.2,0.2-0.4,0.2h-0.2c-0.3,0-0.6,0-0.9,0c-0.4,0-0.8-0.1-1.2-0.2
				c0,0.2,0,0.3-0.1,0.4c0,0.1-0.1,0.2-0.1,0.2c-0.2,0-0.5,0-0.8,0c-0.3-0.1-0.6-0.1-0.9-0.2c-0.3-0.1-0.6-0.2-0.8-0.4
				c-0.2-0.1-0.4-0.3-0.5-0.4c-0.1,0-0.2,0.1-0.4,0.2c-0.1,0.1-0.2,0.2-0.4,0.3c-0.1,0.1-0.2,0.2-0.3,0.4c-0.1,0.1-0.1,0.3-0.1,0.4
				c0,0.2,0,0.5,0.1,0.9c0,0.4,0.1,0.7,0.2,1.1c0.1,0.4,0.1,0.8,0.2,1.2c0.1,0.4,0.1,0.7,0.2,1c0,0.2,0.1,0.5,0.1,0.8
				c0,0.3,0.1,0.6,0.1,0.9c0,0.3,0,0.6,0,0.8c0,0.3,0,0.5-0.1,0.6c0,0.1-0.1,0.1-0.1,0.1c0,0-0.1,0-0.1-0.1c0-0.1-0.1-0.2-0.1-0.4
				c0-0.1,0-0.2-0.1-0.4c0-0.1-0.1-0.3-0.1-0.7c0-0.3-0.1-0.8-0.2-1.4c-0.2-1.1-0.3-2-0.4-2.7c-0.1-0.7-0.2-1.2-0.2-1.6
				c0-0.5,0-1,0.2-1.4c0.1-0.4,0.4-0.7,0.6-1c0.1-0.1,0.2-0.2,0.3-0.3c0.1-0.1,0.3-0.2,0.4-0.4c0.2-0.1,0.3-0.3,0.5-0.4
				c0.2-0.1,0.3-0.2,0.5-0.4c0.2-0.1,0.3-0.2,0.5-0.3C185,33.1,185.1,33.1,185.2,33.1z M185,34.1c-0.1,0-0.3,0-0.5,0.1
				c-0.2,0.1-0.3,0.2-0.4,0.3c0,0,0,0,0,0.1c0,0,0,0,0,0.1c0.1,0.1,0.3,0.2,0.5,0.2c0.2,0.1,0.4,0.1,0.6,0.2
				c0.2,0.1,0.4,0.1,0.5,0.1c0.2,0,0.3,0,0.4,0c-0.1-0.1-0.2-0.3-0.3-0.4c-0.1-0.1-0.2-0.2-0.3-0.3c-0.1-0.1-0.2-0.2-0.3-0.2
				C185.1,34.1,185.1,34.1,185,34.1z"/>
			<path d="M192.8,38.8c-0.6,0.2-1.2,0.4-1.7,0.6c-0.5,0.2-1.1,0.4-1.6,0.6c-0.1,0-0.1,0-0.1-0.1c0-0.1,0.1-0.2,0.2-0.4
				s0.1-0.2,0.2-0.3c0,0,0.1-0.1,0.1-0.1c0.1-0.1,0.3-0.1,0.6-0.2c0.3-0.1,0.5-0.2,0.8-0.3c0.3-0.1,0.6-0.2,1-0.3
				c0.3-0.1,0.7-0.2,1-0.3c0.1,0,0.1,0,0.1,0.1c0,0.1-0.1,0.1-0.1,0.2c0,0.1-0.1,0.1-0.1,0.2c0,0.1-0.1,0.1-0.1,0.2
				c0,0.1-0.1,0.1-0.1,0.1C192.9,38.7,192.9,38.7,192.8,38.8C192.9,38.8,192.9,38.8,192.8,38.8z"/>
			<path d="M188.8,34.8h0.2c0.4,0,0.7,0,1-0.1c0.3,0,0.6-0.1,0.8-0.2c0.2-0.1,0.4-0.3,0.6-0.5c0.1-0.2,0.2-0.4,0.2-0.7
				c0-0.1,0-0.3,0-0.6c0-0.3-0.1-0.6-0.1-0.9c0-0.3-0.1-0.6-0.1-1c0-0.3-0.1-0.6-0.1-0.9l-0.2-1.4l-0.4-2.8c0-0.1,0-0.2,0-0.2
				c0.1-0.2,0.1-0.3,0.2-0.5c0.1-0.1,0.2-0.3,0.3-0.5c0.1-0.1,0.1-0.1,0.1,0c0,0.1,0,0.2,0.1,0.4c0,0.2,0.1,0.4,0.1,0.7
				c0.1,1,0.2,1.8,0.3,2.5c0.1,0.7,0.2,1.3,0.2,1.8c0.1,0.7,0.2,1.3,0.3,1.8c0.1,0.5,0.1,0.9,0.2,1.2c0.1,0.3,0.2,0.6,0.3,0.9
				c0.1,0.2,0.3,0.4,0.4,0.6c0.2,0.1,0.4,0.2,0.6,0.3c0.2,0.1,0.5,0.1,0.9,0.1h0.2c0.2,0,0.3,0.1,0.4,0.2c0.1,0.1,0.1,0.3,0.1,0.5
				c0,0.2,0,0.3-0.1,0.5c-0.1,0.1-0.2,0.2-0.4,0.2h-0.2c-0.2,0-0.5,0-0.8-0.1c-0.3,0-0.5-0.1-0.8-0.3c-0.2-0.2-0.5-0.4-0.7-0.6
				c-0.2-0.3-0.4-0.6-0.5-1.1c-0.1,0.5-0.3,0.9-0.5,1.2c-0.2,0.3-0.5,0.5-0.8,0.6c-0.3,0.1-0.6,0.2-0.9,0.3c-0.3,0-0.6,0.1-0.8,0.1
				h-0.2c-0.2,0-0.3-0.1-0.4-0.2c-0.1-0.1-0.1-0.3-0.1-0.5c0-0.2,0-0.3,0.1-0.5C188.4,34.8,188.6,34.8,188.8,34.8z"/>
			<path d="M199.4,25.8c-0.3,0.1-0.6,0.3-1,0.4c-0.3,0.1-0.7,0.3-1,0.4c-0.3,0.1-0.6,0.3-0.9,0.4c-0.3,0.1-0.5,0.2-0.7,0.3
				c0,0-0.1,0-0.1,0c0,0,0,0,0-0.1c0,0,0-0.1,0.1-0.2c0-0.1,0.1-0.2,0.1-0.3c0-0.1,0.1-0.2,0.1-0.2c0-0.1,0.1-0.1,0.1-0.1
				c0.1-0.1,0.1-0.1,0.2-0.2l3.4-1.4c0.1,0,0.1,0,0.1,0.1c0,0.1-0.1,0.1-0.1,0.2c0,0.1-0.1,0.1-0.1,0.2c0,0.1-0.1,0.1-0.1,0.2
				c0,0.1-0.1,0.1-0.1,0.2C199.5,25.7,199.4,25.8,199.4,25.8z"/>
			<path d="M202.3,34.4c-0.4,0.1-0.8,0.2-1.2,0.3c-0.4,0.1-0.9,0.3-1.4,0.4c-0.5,0.1-1,0.3-1.4,0.4c-0.5,0.1-0.9,0.2-1.4,0.3
				c-0.4,0.1-0.9,0.2-1.2,0.2c-0.4,0.1-0.7,0.1-1,0.1h-0.2c-0.2,0-0.3-0.1-0.4-0.2c-0.1-0.1-0.1-0.3-0.1-0.5c0-0.2,0-0.3,0.1-0.5
				c0.1-0.1,0.2-0.2,0.4-0.2h0.2c0.1,0,0.3,0,0.5,0c0.2,0,0.4,0,0.6,0c0.2,0,0.4,0,0.6-0.1c0.2,0,0.4-0.1,0.5-0.1
				c-0.1-0.1-0.3-0.2-0.4-0.3c-0.1-0.1-0.3-0.3-0.4-0.5c-0.1-0.2-0.2-0.4-0.3-0.5c-0.1-0.2-0.1-0.4-0.2-0.6c-0.1-0.4,0-0.7,0.1-1.1
				c0.1-0.4,0.3-0.7,0.5-1.1c0.2-0.3,0.5-0.6,0.8-0.8c0.3-0.2,0.7-0.4,1-0.4c0.4-0.1,0.8-0.1,1.2,0c0.4,0.1,0.7,0.2,1,0.3
				c0.3,0.2,0.5,0.3,0.7,0.5c0.2,0.2,0.4,0.4,0.5,0.6c0,0,0,0.1,0,0.1c0,0,0,0.1-0.1,0.1c0,0-0.1,0-0.1,0c0,0-0.1,0-0.1,0
				c-0.2-0.1-0.4-0.2-0.6-0.3c-0.2-0.1-0.4-0.1-0.6-0.2c-0.2,0-0.4-0.1-0.6-0.1c-0.2,0-0.4,0-0.7,0c-0.2,0-0.5,0.1-0.7,0.1
				c-0.2,0.1-0.5,0.1-0.7,0.2c-0.2,0.1-0.4,0.2-0.6,0.3c-0.2,0.1-0.3,0.2-0.4,0.3c0,0.1,0,0.2,0.1,0.4c0,0.1,0.1,0.3,0.2,0.4
				c0.1,0.2,0.2,0.3,0.3,0.5c0.1,0.1,0.2,0.3,0.3,0.4c0.1,0.1,0.3,0.2,0.4,0.4c0.1,0.1,0.3,0.2,0.4,0.3c0.1,0.1,0.3,0.2,0.4,0.2
				c0.1,0.1,0.2,0.1,0.3,0.1c0.7-0.1,1.5-0.3,2.2-0.5c0.7-0.2,1.5-0.4,2.2-0.6c0.1,0,0.1,0,0.1,0c-0.2,0.3-0.4,0.6-0.5,0.8
				C202.6,34,202.5,34.2,202.3,34.4z"/>
			<path d="M218.4,31.6c0,0.1-0.1,0.3-0.2,0.4c-0.2,0.2-0.4,0.4-0.8,0.6c0,0.4-0.1,0.7-0.2,1.1c-0.1,0.3-0.2,0.5-0.3,0.5
				c-0.4-0.4-0.7-0.7-1.1-1c-0.4-0.3-0.8-0.5-1.2-0.5c0,0.4,0.2,0.8,0.6,1.2c0.3,0.3,0.6,0.7,0.9,1c0,0.2-0.3,0.3-1,0.5
				c-0.5,0.1-0.9,0.1-1.2,0.1c-0.5,1.4-1.1,2.7-2,3.9c-0.4,0.5-0.9,1.1-1.5,1.7c-0.8,0.8-1.4,1.2-1.8,1.2c-0.1,0-0.2-0.1-0.2-0.2
				c0-0.1,0.2-0.4,0.7-0.9c0.7-0.8,1.2-1.4,1.5-2.1c0.6-1.1,1-2.3,1.2-3.7c-0.4-0.1-0.7-0.1-0.8-0.2c-0.1-0.1-0.2-0.1-0.2-0.3
				c0.9-0.8,1.4-1.5,1.4-2.2c-0.4,0-0.8,0.2-1.2,0.5c-0.2,0.2-0.6,0.6-1,1c-0.1,0-0.2-0.2-0.4-0.5c-0.1-0.4-0.2-0.7-0.2-1.1
				c-0.4-0.2-0.6-0.4-0.7-0.4c-0.3-0.2-0.4-0.4-0.4-0.6c0-0.1,0.1-0.3,0.2-0.4c0.1-0.1,0.4-0.3,0.8-0.5c0-1.1,0.2-1.6,0.6-1.6
				c0.8,0.9,1.5,1.3,2.2,1.4c0-0.3-0.2-0.8-0.5-1.2c0,0-0.3-0.4-0.9-1c0-0.1,0.1-0.2,0.2-0.2c0.2-0.1,0.4-0.1,0.9-0.2
				c-0.2-1.1-0.6-2.2-1.3-3.3c-0.6-1.1-1.4-2.1-2.2-2.8c-0.1-0.1-0.2-0.2-0.2-0.3c0-0.1,0.1-0.2,0.3-0.2c0.3,0,0.7,0.2,1.3,0.6
				c1.8,1.3,3.2,3.2,4.1,5.8c1.4,0,2.1,0.2,2.1,0.6c-0.4,0.3-0.7,0.7-0.9,1c-0.3,0.4-0.4,0.8-0.4,1.2c0.3,0,0.7-0.2,1-0.5l1.1-1
				c0.2,0,0.4,0.5,0.5,1.4c0,0.1,0,0.2,0,0.3C218,31,218.4,31.3,218.4,31.6z M215.2,28.4c0,0-0.1-0.1-0.4-0.1
				c-0.2,0-0.4-0.1-0.5-0.1h-0.4c-0.1,0-0.2,0-0.3,0.1c-0.4-1.2-0.9-2.4-1.7-3.5c-0.9-1.2-1.8-2.2-3-3c0.8,0.7,1.4,1.6,2,2.6
				c0.7,1.2,1.2,2.5,1.4,3.8c-0.5,0-0.8,0.1-0.8,0.2c0.6,0.5,1,1,1.3,1.5c0.1-0.2,0.2-0.5,0.3-0.7c0,0,0.1-0.1,0.1-0.3
				c0.1-0.2,0.1-0.3,0.2-0.3c0.2,0,0.4,0.5,0.7,1.4c0.2-0.3,0.3-0.7,0.6-0.9C214.8,28.8,214.9,28.6,215.2,28.4z M211.8,32.4
				c-0.1-0.1-0.5-0.2-1.1-0.4c-0.4-0.1-0.6-0.2-0.6-0.3c0,0,0.3-0.2,0.9-0.4c0.1-0.1,0.4-0.2,0.7-0.3c-0.3-0.1-0.7-0.3-1-0.5
				c-0.1-0.1-0.4-0.3-0.7-0.6c-0.1,0-0.2,0.4-0.2,1.2c-0.6,0.3-0.9,0.6-0.9,0.7c0,0.2,0.3,0.3,0.9,0.6c0,0.8,0.1,1.3,0.3,1.3
				c0,0,0.2-0.2,0.6-0.5C211.2,32.7,211.6,32.5,211.8,32.4z M215.3,34.9c-0.5-0.4-0.9-0.9-1.2-1.4c-0.1,0.2-0.2,0.4-0.3,0.7
				c0,0-0.1,0.2-0.2,0.4c-0.1,0.2-0.2,0.3-0.2,0.3c0,0-0.1-0.1-0.2-0.3c-0.1-0.2-0.1-0.3-0.2-0.3c0-0.1-0.1-0.3-0.3-0.7
				c-0.1,0.3-0.3,0.6-0.5,0.8c-0.2,0.2-0.4,0.4-0.6,0.6c0,0.1,0.3,0.1,0.8,0.3c-0.3,1.3-0.5,2.1-0.6,2.4c-0.5,1.4-1.3,2.8-2.4,4.1
				c1.9-1.3,3.3-3.4,4.3-6.5c0.7,0,1,0,0.9,0C215,35.2,215.3,35.1,215.3,34.9z M214.7,31.7c0-0.4-0.1-0.7-0.4-0.9
				c-0.2-0.2-0.6-0.3-0.9-0.3c-0.3,0-0.6,0.1-0.9,0.4c-0.3,0.2-0.4,0.5-0.4,0.9c0,0.4,0.1,0.7,0.4,0.9c0.3,0.2,0.6,0.4,0.9,0.4
				c0.4,0,0.7-0.1,0.9-0.4C214.6,32.4,214.7,32,214.7,31.7z M217.8,31.6c0-0.1-0.1-0.2-0.2-0.3c-0.2-0.1-0.4-0.2-0.7-0.3
				c0-0.4,0-0.7-0.1-0.9c-0.1-0.2-0.1-0.4-0.2-0.4c0,0-0.2,0.2-0.5,0.5c-0.3,0.3-0.7,0.6-1.1,0.7c0.2,0.1,0.4,0.2,0.8,0.4
				c0,0,0.2,0.1,0.6,0.2c0.3,0.1,0.4,0.2,0.4,0.2c0,0.1-0.2,0.2-0.6,0.3c-0.6,0.2-1,0.3-1.1,0.3c0.4,0.1,0.7,0.3,1,0.5
				c0.1,0.1,0.4,0.3,0.6,0.6c0.1,0,0.1-0.1,0.2-0.3c0-0.1,0-0.4,0-0.8C217.5,32,217.8,31.7,217.8,31.6z"/>
		</g>
	</g>
	<rect class="st1" width="243.3" height="62.3"/>
</g>
</svg>
