<?xml version="1.0" encoding="utf-8"?>
<!-- Generator: Adobe Illustrator 19.2.0, SVG Export Plug-In . SVG Version: 6.00 Build 0)  -->
<svg version="1.1" id="Layer_1" xmlns="http://www.w3.org/2000/svg" xmlns:xlink="http://www.w3.org/1999/xlink" x="0px" y="0px"
	 viewBox="0 0 66.3 62" style="enable-background:new 0 0 66.3 62;" xml:space="preserve">
<style type="text/css">
	.st0{fill:none;}
</style>
<g>
	<g>
		<g>
			<path d="M20.5,36c0-1.2,0.6-2.7,1.1-3.3c0.2-0.3,0.4-0.5,0.6-0.5c0.1,0,0.1,0,0.1,0.1c0,0.1-0.1,0.3-0.2,0.6
				c-0.4,0.7-0.7,1.5-0.7,2.3c0,1.6,2,2.5,3.4,2.5c2.3,0,4.8-0.8,5.5-2.1c0.1-0.1,0.1-0.2,0.1-0.4c0-0.9-0.3-2.2-0.8-3.2
				c0-0.1-0.1-0.2-0.1-0.3c0-0.7,0.5-1.7,0.6-1.9c0,0,0.1-0.1,0.1-0.1c0.1,0,0.1,0.1,0.2,0.2c0.1,0.2,0.3,0.7,0.7,1
				c0.2,0.1,0.8,0.6,1.4,0.7c1.6-2.1,4.8-4.7,6.1-4.7c0.5,0,1.1,0.2,1.6,0.5c0.5,0.3,0.8,0.7,0.8,1.3c0,0.6-0.4,1.9-0.9,2.7
				c-1,1.3-4.2,2.3-6.7,2.3c-0.8,0-1.6-0.1-2.3-0.4c0,2-0.1,2.2-0.3,2.9c-0.3,0.9-0.7,1.5-1.8,2.3c-1.1,0.8-2.6,1.3-4.7,1.3
				C22.1,39.8,20.5,38.3,20.5,36z M34,24.8c0.1,0,0.1,0.1,0,0.2c-0.2,0.3-0.9,1.1-1.2,1.4c-0.1,0.1-0.1,0.1-0.2,0
				c-0.4-0.2-1.3-0.9-1.5-1.2c-0.1-0.1-0.1-0.1,0-0.2c0.3-0.4,0.8-1,1.1-1.3c0.2-0.2,0.2-0.2,0.3-0.1C32.8,23.9,33.4,24.4,34,24.8z
				 M39.8,30.3c0-0.5-1.3-1.3-2.1-1.3c-1.3,0-3.3,1.5-4.6,2.8c0.2,0,0.4,0,0.6,0C36.1,31.8,39.1,30.8,39.8,30.3
				C39.8,30.3,39.8,30.3,39.8,30.3z"/>
		</g>
	</g>
	<rect class="st0" width="66.3" height="62"/>
</g>
</svg>
