<?xml version="1.0" encoding="utf-8"?>
<!-- Generator: Adobe Illustrator 19.2.0, SVG Export Plug-In . SVG Version: 6.00 Build 0)  -->
<svg version="1.1" id="Layer_1" xmlns="http://www.w3.org/2000/svg" xmlns:xlink="http://www.w3.org/1999/xlink" x="0px" y="0px"
	 viewBox="0 0 66.3 61.9" style="enable-background:new 0 0 66.3 61.9;" xml:space="preserve">
<style type="text/css">
	.st0{fill:none;}
</style>
<g>
	<g>
		<g>
			<path d="M24.7,33.4c-1.2-0.5-1.9-1.2-1.9-2.7c0-1,0.5-2.1,0.7-2.5c0.2-0.3,0.4-0.5,0.6-0.5c0.1,0,0.1,0,0.1,0.1
				c0,0.1-0.1,0.3-0.2,0.6c-0.2,0.4-0.3,0.9-0.3,1.3c0,0.4,0.3,1.2,1.6,1.8c0.8,0.4,2.2,0.6,3.9,0.6c4.1,0,8.5-1.2,8.6-1.7
				c0-0.1,0-0.2,0-0.4c0-0.9-0.7-1.8-1-2.2c0,0,0,0,0,0c0-0.3,0.6-1.6,0.8-1.6c0.2,0,1.1,1.4,1.1,3c0,1.3-0.4,2.4-0.7,2.8
				C37.5,32.6,33,34,29,34C27.2,34,25.7,33.8,24.7,33.4z M32,23.8c0.2-0.2,0.2-0.2,0.3-0.1c0.4,0.4,0.9,0.9,1.3,1.2
				c0.1,0.1,0.1,0.1,0,0.3c-0.4,0.4-0.8,0.8-1.1,1.3c-0.1,0.1-0.1,0.1-0.3,0c-0.3-0.2-0.8-0.6-1.2-1c-0.3,0.3-0.8,0.9-1,1
				c-0.1,0.1-0.2,0.1-0.3,0c-0.4-0.3-1-0.7-1.3-1.2c-0.1-0.1-0.1-0.2,0-0.3c0.3-0.4,0.8-0.9,1.2-1.3c0.1-0.1,0.2-0.1,0.3,0
				c0.3,0.4,0.9,0.9,1.2,1.1C31.3,24.5,31.8,24,32,23.8z M32.3,21c0.1,0,0.1,0.1,0,0.2c-0.2,0.3-0.9,1.1-1.2,1.4
				c-0.1,0.1-0.1,0.1-0.2,0c-0.4-0.2-1.3-0.9-1.5-1.2c-0.1-0.1-0.1-0.1,0-0.2c0.3-0.4,0.8-1,1.1-1.3c0.2-0.2,0.2-0.2,0.3-0.1
				C31.1,20,31.7,20.6,32.3,21z"/>
		</g>
	</g>
	<rect class="st0" width="66.3" height="61.9"/>
</g>
</svg>
