<?xml version="1.0" encoding="utf-8"?>
<!-- Generator: Adobe Illustrator 19.2.0, SVG Export Plug-In . SVG Version: 6.00 Build 0)  -->
<svg version="1.1" id="Layer_1" xmlns="http://www.w3.org/2000/svg" xmlns:xlink="http://www.w3.org/1999/xlink" x="0px" y="0px"
	 viewBox="0 0 519.7 42.6" style="enable-background:new 0 0 519.7 42.6;" xml:space="preserve">
<style type="text/css">
	.st0{fill:#FFFFFF;}
	.st1{fill:#CB9248;}
	.st2{fill:url(#SVGID_1_);}
	.st3{fill:#F4CE83;}
	.st4{opacity:0.5;fill:#FFFFFF;}
	.st5{fill:none;stroke:#003351;stroke-width:2.398;stroke-linecap:round;stroke-linejoin:round;stroke-miterlimit:10;}
	.st6{fill:url(#SVGID_2_);}
	.st7{fill:url(#SVGID_3_);}
	.st8{fill:url(#SVGID_4_);}
</style>
<g>
	<path class="st0" d="M2.4,23.9c0.4,0.3,0.4,0.8,0.4,1.1c0,0.3-0.1,0.7-0.4,1c-0.3,0.3-0.7,0.4-1.1,0.4c-0.3,0-0.7-0.1-0.9-0.4
		C0.1,25.7,0,25.4,0,24.9c0-0.4,0.2-0.7,0.4-1c0.3-0.2,0.6-0.4,1-0.4S2.1,23.7,2.4,23.9z"/>
	<path class="st0" d="M24.2,27.9c0.1-0.1,0.1,0,0.1,0.1c0,0.6-0.2,1.1-0.5,1.3l-4.1,2.3c-0.1,0-0.1,0-0.1-0.1c0-0.3,0.1-0.8,0.2-1
		c0.1-0.2,0.3-0.3,0.7-0.5L24.2,27.9z"/>
	<path class="st0" d="M29.1,20.5c0,0.5-0.3,1.8-0.6,2.8c-0.3,0.7-0.4,0.8-1.2,1.2c-1.7,0.8-5.7,2-9.8,2c-5.3,0-7.4-1.8-7.4-4.3
		c0-0.9,0.4-2.4,1-3.3c0.2-0.3,0.4-0.6,0.6-0.6c0.1,0,0.1,0,0.1,0.1c0,0.1-0.1,0.3-0.1,0.5c-0.2,0.7-0.5,1.4-0.5,2
		c0,1.1,1.4,3.1,6.5,3.2c3.7,0,7.7-0.8,9.4-1.4c0.9-0.3,0.9-0.5,0.9-1.1c0-0.5-0.1-0.8-0.3-1.3c-0.2,0.5-0.9,1-1.8,1
		c-1.1,0-1.8-0.7-1.8-2c0-1.8,1.4-4.1,2-4.1C27.7,15.1,29.1,17.7,29.1,20.5z M24.1,12.3c0.1,0.1,0.1,0.1,0,0.2
		c-0.2,0.3-1.1,1.2-1.4,1.7c-0.1,0.1-0.1,0.1-0.2,0c-0.5-0.3-1.5-1-1.7-1.4c-0.1-0.1-0.1-0.1,0-0.2C21,12,21.6,11.4,22,11
		c0.2-0.2,0.2-0.2,0.3-0.1C22.7,11.2,23.4,11.9,24.1,12.3z M25.9,17.3c-0.3,0-0.6,0.4-0.7,0.8c0,0,0,0.1,0,0.1c0,0,0,0.1,0,0.1
		c0.1,0.3,0.5,0.5,1,0.5c0.4,0,0.8-0.2,0.9-0.3c0,0,0.1-0.1,0.1-0.1C27.1,18.2,26.7,17.3,25.9,17.3z"/>
	<path class="st0" d="M33.9,25.6c-0.6-0.4-0.9-0.9-1.2-1.9c-0.3-1.1-0.7-4.3-1-9.8c0-0.9-0.1-1.5-0.2-2.1c0-0.1,0-0.1,0-0.2
		c0.2-0.7,0.9-2,1.1-2c0.2,0,0.2,0.4,0.2,0.6c0.1,0.6,0.1,1.7,0.2,2.9c0.1,0.7,0.1,2,0.2,3.5l0.2-0.8c0.1-0.6,0.5-1.1,1.1-1.6
		c1-0.8,2.4-1.7,4.3-2.8c1.9-1.1,3.3-1.8,4.3-2.2c0.4-0.2,0.5-0.1,0.3,0.4c-0.1,0.4-0.4,0.9-0.9,1.6c-0.1,0.1-0.1,0.1-0.2,0.2
		c-1,0.4-2.4,1.2-4.1,2.2c-1.9,1.1-3.3,2-4.2,2.7c2.6,1.3,5,3.1,7.2,5.4c0.8,0.8,1.4,1.4,1.8,1.7c0.4,0.3,0.8,0.4,1.2,0.4h0.3
		c0.1,0,0.8,0,0.8,1.2c0,1.1-0.7,1.1-0.8,1.1h-0.3c-0.8,0-1.5-0.3-2.2-0.8c-0.7-0.5-1.5-1.4-2.6-2.5c-0.1,0.7-0.3,1.3-0.6,1.9
		c-0.5,0.8-1.6,1.4-3.3,1.4C34.8,26.1,34.4,25.9,33.9,25.6z M35.1,23.7c0.2,0.1,0.4,0.1,0.8,0.1c0.9,0,1.9-0.3,2.6-0.9
		c0.1-0.1,0.1-0.2,0-0.4c-0.1-0.5-0.5-1-1.2-1.5c-0.8-0.7-2-1.4-3.5-2.1c-0.2-0.1-0.3-0.2-0.5-0.4c0.2,1.6,0.3,3.1,0.6,4
		C34.2,23.1,34.6,23.5,35.1,23.7z"/>
	<path class="st0" d="M46.9,25.1c-0.5,0.7-1.2,1-2.3,1h-0.2c-0.7,0-1-0.4-1-1.2c0-0.7,0.3-1.1,1-1.1h0.2c0.5,0,1-0.1,1.5-0.2
		c0.4-0.1,0.6-0.3,0.7-0.4c0-1.7-0.6-5.4-0.9-8.9c0-0.4-0.3-1.6-0.4-2.1c0-0.1,0-0.2,0-0.2c0-0.3,0.3-0.9,0.5-1.3
		c0.3-0.5,0.5-0.9,0.7-0.9c0.1,0,0.1,0.1,0.2,0.2c0.3,1,0.6,1.5,0.8,1.8c0.1,0.1,0.1,0.2,0.1,0.3c0,0,0,0.1,0,0.1
		c-0.1,0.2-0.4,0.8-0.6,1.1c0.2,3.4,0.7,6.2,0.7,7.8C47.9,22.8,47.6,24.1,46.9,25.1z"/>
	<path class="st0" d="M52.5,26.1c-0.1,0-0.2-0.2-0.2-0.7c0-3-1.1-11.3-1.1-12.7c0-0.7,0.5-1.7,0.9-2.5c0.1-0.2,0.3-0.5,0.5-0.5
		c0.1,0,0.2,0.2,0.2,0.8c0.1,2.2,0.7,7.3,0.7,11c0,1.5-0.1,2.7-0.4,3.5C52.8,25.8,52.7,26.1,52.5,26.1z"/>
	<path class="st0" d="M60.8,13.7c0.1-0.1,0.1,0,0.1,0.1c0,0.6-0.2,1.1-0.5,1.3l-4.1,2.3c-0.1,0-0.1,0-0.1-0.1c0-0.3,0.1-0.8,0.2-1
		c0.1-0.2,0.3-0.3,0.7-0.5L60.8,13.7z"/>
	<path class="st0" d="M61.6,22c0.3,0.9,0.5,1.8,0.5,3.1c0,4-1.1,6.5-4.2,7.7c-0.2,0.1-0.4,0.1-0.6,0.1c-1,0-2.6-0.5-4-1.1
		c-0.3-0.2-0.4-0.3-0.4-0.4c0-0.1,0.1-0.2,0.4-0.2c0.2,0,1.1,0.2,1.8,0.2c0.9,0,1.9-0.4,3.3-1.3c1.5-1,2.8-2.3,2.8-3.8
		c0-0.5-0.1-1-0.4-1.5c-0.3,0.7-0.8,1.1-1.5,1.1c-1.3,0-2.1-0.7-2.1-2.1c0-0.5,0.3-1.3,0.6-2.1c0.5-1,1.2-1.9,1.8-1.9
		C60.3,19.8,61.1,20.7,61.6,22z M59.1,22c-0.3,0-0.5,0.2-0.7,0.5c-0.1,0.1-0.2,0.4-0.2,0.5c0,0.4,0.6,0.6,1.1,0.6
		c0.4,0,0.7-0.2,0.8-0.4C60.1,22.5,59.4,22,59.1,22z"/>
	<path class="st0" d="M73.5,24.9c0.2,0.3,0.3,0.6,0.3,1.1c0,0.5-0.2,0.9-0.5,1.1c-0.3,0.2-0.6,0.3-1,0.3c-0.6,0-1.2-0.4-1.5-1.1
		c-0.3-0.7-0.4-1.3-0.4-2c0-0.8,0.2-1.6,0.5-2.3c0.3-0.7,0.6-1.2,1-1.7c0.4-0.4,0.6-0.7,0.8-0.7c0.3,0,0.1,0.4-0.2,0.8
		c-0.8,1.1-1.1,2.1-1.1,3.2c0,0.6,0.1,0.7,0.2,1c0.3-0.1,0.6-0.2,0.8-0.2C72.9,24.4,73.3,24.6,73.5,24.9z"/>
	<path class="st0" d="M90.4,27.9c0.1-0.1,0.1,0,0.1,0.1c0,0.6-0.2,1.1-0.5,1.3l-4.1,2.3c-0.1,0-0.1,0-0.1-0.1c0-0.3,0.1-0.8,0.2-1
		c0.1-0.2,0.3-0.3,0.7-0.5L90.4,27.9z"/>
	<path class="st0" d="M95.4,20.5c0,0.5-0.3,1.8-0.6,2.8c-0.3,0.7-0.4,0.8-1.2,1.2c-1.7,0.8-5.7,2-9.8,2c-5.3,0-7.4-1.8-7.4-4.3
		c0-0.9,0.4-2.4,1-3.3c0.2-0.3,0.4-0.6,0.6-0.6c0.1,0,0.1,0,0.1,0.1c0,0.1-0.1,0.3-0.1,0.5c-0.2,0.7-0.5,1.4-0.5,2
		c0,1.1,1.4,3.1,6.5,3.2c3.7,0,7.7-0.8,9.4-1.4c0.9-0.3,0.9-0.5,0.9-1.1c0-0.5-0.1-0.8-0.3-1.3c-0.2,0.5-0.9,1-1.8,1
		c-1.1,0-1.8-0.7-1.8-2c0-1.8,1.4-4.1,2-4.1C94,15.1,95.4,17.7,95.4,20.5z M90.3,12.3c0.1,0.1,0.1,0.1,0,0.2
		c-0.2,0.3-1.1,1.2-1.4,1.7c-0.1,0.1-0.1,0.1-0.2,0c-0.5-0.3-1.5-1-1.7-1.4c-0.1-0.1-0.1-0.1,0-0.2c0.3-0.5,0.9-1.2,1.3-1.6
		c0.2-0.2,0.2-0.2,0.3-0.1C88.9,11.2,89.6,11.9,90.3,12.3z M92.1,17.3c-0.3,0-0.6,0.4-0.7,0.8c0,0,0,0.1,0,0.1c0,0,0,0.1,0,0.1
		c0.1,0.3,0.5,0.5,1,0.5c0.4,0,0.8-0.2,0.9-0.3c0,0,0.1-0.1,0.1-0.1C93.4,18.2,92.9,17.3,92.1,17.3z"/>
	<path class="st0" d="M101.5,26.1c-0.7,0-1.2-0.1-1.7-0.5c-0.7-0.6-1.1-1.7-1.3-3.1c-0.2-1.1-0.2-2.3-0.3-3.7
		c-0.1-2-0.2-5.1-0.5-6.9c0-0.1,0-0.2,0-0.2c0-0.1,0-0.2,0.2-0.4c0.3-0.5,0.5-0.8,0.7-1.2c0.2-0.3,0.2-0.3,0.3-0.3
		c0.1,0,0.2,0.2,0.3,0.7c0.4,3.5,0.1,8.4,0.6,11.1c0.1,0.7,0.2,0.9,0.4,1.3c0.3,0.6,0.7,0.9,1.4,1c0.8,0,1.2,0.4,1.2,1.1
		c0,0.9-0.4,1.2-1.1,1.2H101.5z"/>
	<path class="st0" d="M109.6,23.8c0.7,0,1,0.4,1,1.1c0,0.8-0.3,1.2-1,1.2h-0.3c-2.1,0-3.4-0.4-4.3-1c-0.8,0.5-1.9,1-3.2,1h-0.2
		c-0.6,0-0.9-0.4-0.9-1.2c0-0.7,0.3-1.1,1-1.1h0.2c0.9,0,1.4-0.1,1.7-0.4c-0.1-0.2-0.1-0.5-0.1-0.8c0-2.3,2.6-5.1,4-5.1
		c0.8,0,1.3,1,1.3,2.2c0,1.3-0.5,2.8-1.5,3.7c0.5,0.2,1.2,0.4,2.1,0.4H109.6z M107,11.9c0.2-0.2,0.2-0.2,0.3-0.1
		c0.5,0.5,1,1.1,1.5,1.4c0.2,0.1,0.2,0.2,0,0.3c-0.5,0.5-0.9,1-1.3,1.5c-0.1,0.1-0.2,0.1-0.3,0c-0.4-0.3-0.9-0.7-1.4-1.2
		c-0.3,0.3-0.9,1-1.1,1.2c-0.1,0.1-0.2,0.2-0.4,0c-0.5-0.3-1.1-0.9-1.5-1.4c-0.1-0.1-0.1-0.2,0-0.3c0.4-0.5,0.9-1,1.4-1.5
		c0.1-0.1,0.2-0.1,0.3,0.1c0.4,0.4,1,1,1.4,1.2C106.2,12.8,106.7,12.1,107,11.9z M106.4,19.9c-0.8,0-1.6,0.9-1.6,1.2
		c0,0.5,0.4,0.9,1.2,1.4c0.3-0.1,1.4-1,1.4-1.3C107.4,20.4,107.1,19.9,106.4,19.9z"/>
	<path class="st0" d="M111.7,25.1c-0.5,0.7-1.2,1-2.3,1h-0.2c-0.7,0-1-0.4-1-1.2c0-0.7,0.3-1.1,1-1.1h0.2c0.5,0,1-0.1,1.5-0.2
		c0.4-0.1,0.6-0.3,0.7-0.4c0-1.7-0.6-5.4-0.9-8.9c0-0.4-0.3-1.6-0.4-2.1c0-0.1,0-0.2,0-0.2c0-0.3,0.3-0.9,0.5-1.3
		c0.3-0.5,0.5-0.9,0.7-0.9c0.1,0,0.1,0.1,0.2,0.2c0.3,1,0.6,1.5,0.8,1.8c0.1,0.1,0.1,0.2,0.1,0.3c0,0,0,0.1,0,0.1
		c-0.1,0.2-0.4,0.8-0.6,1.1c0.2,3.4,0.7,6.2,0.7,7.8C112.7,22.8,112.4,24.1,111.7,25.1z"/>
	<path class="st0" d="M117.3,26.1c-0.1,0-0.2-0.2-0.2-0.7c0-3-1.1-11.3-1.1-12.7c0-0.7,0.5-1.7,0.9-2.5c0.1-0.2,0.3-0.5,0.5-0.5
		c0.1,0,0.2,0.2,0.2,0.8c0.1,2.2,0.7,7.3,0.7,11c0,1.5-0.1,2.7-0.4,3.5C117.7,25.8,117.5,26.1,117.3,26.1z"/>
	<path class="st0" d="M139.8,4.3c0,0.5-0.1,1-0.3,1.5c0.2,0.1,0.4,0.3,0.4,0.4c0,0.4-0.2,0.7-0.3,1c-0.1,0.1-0.1,0.1-0.1,0.1
		l-0.5-0.3c-0.5,0.8-1.3,1.8-2.5,2.3c-0.4,0.2-0.9,0.4-1.5,0.4c-0.3,0-0.4-0.1-0.4-0.1c0-0.1,0.2-0.2,0.6-0.4
		c0.9-0.5,2.5-1.8,3.1-2.5c-0.5-0.3-1.1-0.7-1.1-1.4c0-0.4,0.2-0.9,0.6-1.3c0.4-0.5,0.8-0.8,1.2-0.8C139.6,3.1,139.8,3.8,139.8,4.3z
		 M138,4.8C138,4.8,138,4.8,138,4.8c0,0.2,0.4,0.5,0.8,0.7c0.1-0.2,0.1-0.4,0.1-0.7c0-0.3-0.1-0.4-0.3-0.4
		C138.4,4.4,138.2,4.5,138,4.8z"/>
	<path class="st0" d="M145.4,20.5c0,0.5-0.3,1.8-0.6,2.8c-0.3,0.7-0.4,0.8-1.2,1.2c-1.7,0.8-5.7,2-9.8,2c-5.3,0-7.4-1.8-7.4-4.3
		c0-0.9,0.4-2.4,1-3.3c0.2-0.3,0.4-0.6,0.6-0.6c0.1,0,0.1,0,0.1,0.1c0,0.1-0.1,0.3-0.1,0.5c-0.2,0.7-0.5,1.4-0.5,2
		c0,1.1,1.4,3.1,6.5,3.2c3.7,0,7.7-0.8,9.4-1.4c0.9-0.3,0.9-0.5,0.9-1.1c0-0.5-0.1-0.8-0.3-1.3c-0.2,0.5-0.9,1-1.8,1
		c-1.1,0-1.8-0.7-1.8-2c0-1.8,1.4-4.1,2-4.1C144,15.1,145.4,17.7,145.4,20.5z M140.4,12.3c0.1,0.1,0.1,0.1,0,0.2
		c-0.2,0.3-1.1,1.2-1.4,1.7c-0.1,0.1-0.1,0.1-0.2,0c-0.5-0.3-1.5-1-1.7-1.4c-0.1-0.1-0.1-0.1,0-0.2c0.3-0.5,0.9-1.2,1.3-1.6
		c0.2-0.2,0.2-0.2,0.3-0.1C139,11.2,139.7,11.9,140.4,12.3z M142.2,17.3c-0.3,0-0.6,0.4-0.7,0.8c0,0,0,0.1,0,0.1c0,0,0,0.1,0,0.1
		c0.1,0.3,0.5,0.5,1,0.5c0.4,0,0.8-0.2,0.9-0.3c0,0,0.1-0.1,0.1-0.1C143.4,18.2,143,17.3,142.2,17.3z"/>
	<path class="st0" d="M153.9,23.8c0.7,0,1.1,0.4,1.1,1.1c0,0.8-0.4,1.2-1.1,1.2h-0.2c-0.6,0-1,0-1.3-0.1c0,0.1,0,0.2,0,0.3
		c0,0.7-0.1,1.5-0.4,2.1c-0.5,1.2-1.3,3.3-3.6,4.3c-0.4,0.2-0.8,0.3-1.2,0.3c-0.9,0-2.4-0.5-3.5-1c-0.3-0.2-0.4-0.3-0.4-0.4
		c0-0.1,0.1-0.2,0.4-0.2c0.3,0,0.8,0.1,1.3,0.1c3.1,0,6.2-2.7,6.6-5c0-0.5-1.1-1.6-1.3-1.9c0-0.1-0.1-0.2-0.1-0.3
		c0-0.5,0.4-1.5,0.6-1.8c0.1-0.2,0.2-0.2,0.3-0.2c0.2,0,0.3,0.2,0.6,0.7c0.4,0.6,0.9,0.9,1.8,0.9H153.9z"/>
	<path class="st0" d="M161.2,12.7c0.1-0.1,0.1,0,0.1,0.1c0,0.6-0.2,1.1-0.5,1.3l-4.1,2.3c-0.1,0-0.1,0-0.1-0.1c0-0.3,0.1-0.8,0.2-1
		c0.1-0.2,0.3-0.3,0.7-0.5L161.2,12.7z"/>
	<path class="st0" d="M156.7,20.8c-0.2,0-0.5,0-0.6,0.1c-0.2,0.1-0.6,0.3-0.8,0.3c-0.2,0-0.2-0.1-0.2-0.2c0-0.4,0.6-1.3,1.2-1.8
		c0.5-0.4,1-0.6,1.4-0.6c0.2,0,0.3,0,0.5,0.1c1.8,0.4,4.1,1.4,6,1.8c1.3,0.3,2.6,0.4,3.4,0.4c0.2,0,0.3,0,0.5,0c0.1,0,0.1,0,0.1,0.1
		c0,0.4-0.7,1.5-1.1,1.9c-0.1,0.1-0.3,0.1-0.6,0.1c-0.5,0-1.6-0.1-1.9-0.1c-0.9,0-1.6,0.1-2.2,0.3c-0.4,0.2-1.2,0.5-2.3,1
		c-1.7,0.8-2.8,1.4-3.6,1.7c-0.8,0.3-1.6,0.5-2.5,0.5h-0.3c-0.7,0-1.1-0.4-1.1-1.2c0-0.7,0.4-1.1,1.1-1.1h0.3c1.4,0,2.5-0.1,3.4-0.4
		c0.9-0.3,2.3-0.7,4-1.4C159.3,21.4,157.7,20.8,156.7,20.8z"/>
	<path class="st0" d="M185,38.9c0.1-0.1,0.1,0,0.1,0.1c0,0.6-0.2,1.1-0.5,1.3l-4.1,2.3c-0.1,0-0.1,0-0.1-0.1c0-0.3,0.1-0.8,0.2-1
		c0.1-0.2,0.3-0.3,0.7-0.5L185,38.9z"/>
	<path class="st0" d="M189.7,35.6c0.3,0,0.4,0.1,0.4,0.1c0,0.2-0.5,0.5-0.9,0.6c-1.5,0.6-3.9,1.6-6.4,1.6c-4.4,0-7.6-2.3-7.6-7.1
		c0-4.4,2.3-8.3,5.4-9.4c-0.8-0.2-1.5-0.2-2.1-0.2c-1.1,0-1.8,0.3-2.4,0.5c-0.5,0.2-0.6,0.2-0.7,0.2c-0.1,0-0.2,0-0.2-0.2
		c0-0.3,0.5-1.4,0.9-1.8c0.7-0.7,1.7-0.9,2.9-0.9c2.1,0,4.2,0.7,6.4,0.7c0.9,0,1.6-0.1,2.1-0.1c0.4,0,0.4,0,0.4,0.1
		c0,0.5-0.9,1.9-1.3,2c-1.4,0-2.9,0.2-4.4,0.7c-4.5,1.5-6,5.1-6,7.1c0,3.2,1.7,6.2,9.4,6.2C187.9,35.8,189.3,35.6,189.7,35.6z
		 M184.6,28.7c0.1,0.1,0.1,0.1,0,0.2c-0.2,0.3-1.1,1.2-1.4,1.7c-0.1,0.1-0.1,0.1-0.2,0c-0.5-0.3-1.5-1-1.7-1.4
		c-0.1-0.1-0.1-0.1,0-0.2c0.3-0.5,0.9-1.2,1.3-1.6c0.2-0.2,0.2-0.2,0.3-0.1C183.2,27.6,183.9,28.3,184.6,28.7z"/>
	<path class="st0" d="M194,16.6c0.1-0.1,0.1,0,0.1,0.1c0,0.6-0.2,1.1-0.5,1.3l-4.1,2.3c-0.1,0-0.1,0-0.1-0.1c0-0.3,0.1-0.8,0.2-1
		c0.1-0.2,0.3-0.3,0.7-0.5L194,16.6z"/>
	<path class="st0" d="M195.5,23.8c0.7,0,1.1,0.4,1.1,1.1c0,0.8-0.4,1.2-1.1,1.2h-0.2c-0.6,0-1,0-1.3-0.1c0,0.1,0,0.2,0,0.3
		c0,0.7-0.1,1.5-0.4,2.1c-0.5,1.2-1.3,3.3-3.6,4.3c-0.4,0.2-0.8,0.3-1.2,0.3c-0.9,0-2.4-0.5-3.5-1c-0.3-0.2-0.4-0.3-0.4-0.4
		c0-0.1,0.1-0.2,0.4-0.2c0.3,0,0.8,0.1,1.3,0.1c3.1,0,6.2-2.7,6.6-5c0-0.5-1.1-1.6-1.3-1.9c0-0.1-0.1-0.2-0.1-0.3
		c0-0.5,0.4-1.5,0.6-1.8c0.1-0.2,0.2-0.2,0.3-0.2c0.2,0,0.3,0.2,0.6,0.7c0.4,0.6,0.9,0.9,1.8,0.9H195.5z"/>
	<path class="st0" d="M201.1,8.2c0.7,0,1.7,1,1.7,2.1c0,0.4-0.1,0.8-0.2,1.2c-0.3,0.8-0.9,1.3-1.8,1.3c-0.8,0-1.3-0.6-1.3-1.3
		C199.4,10.4,200.6,8.2,201.1,8.2z M200.9,9.8c-0.3,0-0.7,0.6-0.7,1c0,0.3,0.4,0.6,0.8,0.6c0.5,0,1.1-0.3,1.1-0.5
		C202.1,10.7,201.4,9.8,200.9,9.8z"/>
	<path class="st0" d="M203,15.3c0.1,0.1,0.1,0.1,0,0.2c-0.2,0.3-1.1,1.2-1.4,1.7c-0.1,0.1-0.1,0.1-0.2,0c-0.5-0.3-1.5-1-1.7-1.4
		c-0.1-0.1-0.1-0.1,0-0.2c0.3-0.5,0.9-1.2,1.3-1.6c0.2-0.2,0.2-0.2,0.3-0.1C201.6,14.2,202.3,14.9,203,15.3z"/>
	<path class="st0" d="M208.5,22.7c0,0-0.1,0.1-0.1,0.1c-0.2,0-0.3,0-0.4,0c-0.5,0-0.8,0-1.5-0.1c0,0.4,0.3,0.6,0.9,0.8
		c0.6,0.2,1.2,0.3,1.9,0.3h1.1c0.8,0,1.1,0.4,1.1,1.1c0,0.8-0.4,1.2-1.1,1.2h-1c-1.3,0-2.3-0.3-2.7-0.8c-0.5-0.5-0.7-1.4-0.7-2.6
		c-1.3,0-1.8,0.1-2.4,0.4c-0.4,0.2-0.9,0.3-2,0.9c-1.6,0.8-2.8,1.4-3.5,1.6c-0.8,0.3-1.7,0.5-2.6,0.5h-0.3c-0.7,0-1.1-0.4-1.1-1.2
		c0-0.7,0.4-1.1,1.1-1.1h0.3c1.4,0,2.5-0.1,3.4-0.4c1-0.3,2.3-0.7,3.9-1.4c-1.9-0.5-3.5-1.2-4.5-1.2c-0.2,0-0.4,0-0.6,0.1
		c-0.2,0.1-0.6,0.3-0.8,0.3c-0.1,0-0.2-0.1-0.2-0.2c0-0.4,0.4-1.1,1.2-1.8c0.5-0.4,1-0.6,1.4-0.6c0.2,0,0.3,0,0.5,0.1
		c1.8,0.4,4.1,1.4,6,1.8c1.3,0.3,2.6,0.4,3.4,0.4c0.2,0,0.3,0,0.5,0c0.1,0,0.1,0.1,0.1,0.1C209.6,21.2,208.9,22.4,208.5,22.7z"/>
	<path class="st0" d="M217.5,14.8c0.1-0.1,0.1,0,0.1,0.1c0,0.6-0.2,1.1-0.5,1.3l-4.1,2.3c-0.1,0-0.1,0-0.1-0.1c0-0.3,0.1-0.8,0.2-1
		c0.1-0.2,0.3-0.3,0.7-0.5L217.5,14.8z"/>
	<path class="st0" d="M221.9,4.3c0.7,0,1.7,1,1.7,2.1c0,0.4-0.1,0.8-0.2,1.2c-0.3,0.8-0.9,1.3-1.8,1.3c-0.8,0-1.3-0.6-1.3-1.3
		C220.3,6.5,221.4,4.3,221.9,4.3z M221.7,5.9c-0.3,0-0.7,0.6-0.7,1c0,0.3,0.4,0.6,0.8,0.6c0.5,0,1.1-0.3,1.1-0.5
		C222.9,6.8,222.3,5.9,221.7,5.9z"/>
	<path class="st0" d="M223.7,21.1c0,1.7-0.4,3-1.1,4.1c-0.5,0.6-1.5,1-2.3,1c-0.8,0-1.5-0.2-2.1-0.8c-0.2,0.6-0.8,1.3-1.2,1.5
		c-0.1,0-0.2,0.1-0.2,0c-1.1-0.2-3.3-1-4.2-2.2c-0.5,1-1.3,1.4-2.4,1.4H210c-0.6,0-0.9-0.4-0.9-1.1c0-0.8,0.3-1.2,0.9-1.2h0.3
		c2.1,0,3.2-1.2,4.1-2.1c0.5-0.6,0.9-1.1,1.4-1.1c0.2,0,0.5,0.1,0.7,0.4c0.9,1.1,2.6,2.8,4.1,2.8c0.5,0,1.7-0.2,2.1-0.7v0
		c0-1.7-0.7-6.1-1-9.5c-0.1-0.4-0.2-1-0.3-1.5c0-0.1,0-0.2,0-0.3c0,0,0-0.1,0-0.2c0-0.1,0.2-0.5,0.4-0.9c0.3-0.5,0.6-1.1,0.8-1.1
		c0.1,0,0.1,0.1,0.2,0.2c0.3,1,0.7,1.4,0.9,1.8c0,0.1,0.1,0.2,0.1,0.2s0,0.1,0,0.2c-0.1,0.2-0.4,0.9-0.6,1.2
		C223.2,16.8,223.7,19.5,223.7,21.1z M215,22.6c-0.2,0-0.5,0.2-0.7,0.4c-0.2,0.2-0.2,0.3,0.1,0.5c0.4,0.2,1.8,0.9,2.1,1
		c0.2,0.1,0.3,0.1,0.4,0.1c0.2,0,0.1-0.2,0-0.4C216.6,23.8,215.7,22.6,215,22.6z"/>
	<path class="st0" d="M227.6,26.1c-0.1,0-0.2-0.2-0.2-0.7c0-3-1.1-11.3-1.1-12.7c0-0.7,0.5-1.7,0.9-2.5c0.1-0.2,0.3-0.5,0.5-0.5
		c0.1,0,0.2,0.2,0.2,0.8c0.1,2.2,0.7,7.3,0.7,11c0,1.5-0.1,2.7-0.4,3.5C228,25.8,227.8,26.1,227.6,26.1z"/>
	<path class="st0" d="M247.9,4.3c0,0.5-0.1,1-0.3,1.5c0.2,0.1,0.4,0.3,0.4,0.4c0,0.4-0.2,0.7-0.3,1c-0.1,0.1-0.1,0.1-0.1,0.1
		l-0.5-0.3c-0.5,0.8-1.3,1.8-2.5,2.3c-0.4,0.2-0.9,0.4-1.5,0.4c-0.3,0-0.4-0.1-0.4-0.1c0-0.1,0.2-0.2,0.6-0.4
		c0.9-0.5,2.5-1.8,3.1-2.5c-0.5-0.3-1.1-0.7-1.1-1.4c0-0.4,0.2-0.9,0.6-1.3c0.4-0.5,0.8-0.8,1.2-0.8C247.7,3.1,247.9,3.8,247.9,4.3z
		 M246.1,4.8C246.1,4.8,246.1,4.8,246.1,4.8c0,0.2,0.4,0.5,0.8,0.7c0.1-0.2,0.1-0.4,0.1-0.7c0-0.3-0.1-0.4-0.3-0.4
		C246.5,4.4,246.3,4.5,246.1,4.8z"/>
	<path class="st0" d="M239.7,23.5c1,0.5,2.5,0.7,4.6,0.7c2.9,0,5.2-0.4,6.7-0.9c2.1-0.6,3-0.9,4.1-1.8c0.1,0,0.2-0.2,0.3-0.2
		c0.1,0,0.2,0.1,0.2,0.5c0,1.2,0.7,2,1.4,2h0.3c0.6,0,0.9,0.4,0.9,1.1c0,0.8-0.3,1.2-0.9,1.2h-0.4c-1.4,0-2.3-0.8-2.6-2.3
		c-1.1,0.5-2.4,1.2-3.7,1.6c-2,0.6-4.1,1.1-6.7,1.1c-2.1,0-3.8-0.3-4.9-0.8c-1.4-0.6-2.2-1.5-2.2-3c0-1.3,0.5-2.6,0.8-3.1
		c0.2-0.3,0.4-0.6,0.6-0.6c0.1,0,0.1,0.1,0.1,0.2c0,0.1-0.1,0.4-0.2,0.6c-0.2,0.5-0.4,1.1-0.4,1.5C237.9,22,238.3,22.8,239.7,23.5z
		 M247.8,15.5c0.2-0.2,0.2-0.2,0.3-0.1c0.5,0.5,1,1.1,1.5,1.4c0.2,0.1,0.2,0.2,0,0.3c-0.5,0.5-0.9,1-1.3,1.5c-0.1,0.1-0.2,0.1-0.3,0
		c-0.4-0.3-0.9-0.7-1.4-1.2c-0.3,0.3-0.9,1-1.1,1.2c-0.1,0.1-0.2,0.2-0.4,0c-0.5-0.3-1.1-0.9-1.5-1.4c-0.1-0.1-0.1-0.2,0-0.3
		c0.4-0.5,0.9-1,1.4-1.5c0.1-0.1,0.2-0.1,0.3,0.1c0.4,0.4,1,1,1.4,1.2C247,16.4,247.5,15.8,247.8,15.5z M248.1,12.3
		c0.1,0.1,0.1,0.1,0,0.2c-0.2,0.3-1.1,1.2-1.4,1.7c-0.1,0.1-0.1,0.1-0.2,0c-0.5-0.3-1.5-1-1.7-1.4c-0.1-0.1-0.1-0.1,0-0.2
		c0.3-0.5,0.9-1.2,1.3-1.6c0.2-0.2,0.2-0.2,0.3-0.1C246.7,11.2,247.4,11.8,248.1,12.3z"/>
	<path class="st0" d="M260.7,13.6c0.7,0,1.7,1,1.7,2.1c0,0.4-0.1,0.8-0.2,1.2c-0.3,0.8-0.9,1.3-1.8,1.3c-0.8,0-1.3-0.6-1.3-1.3
		C259,15.8,260.2,13.6,260.7,13.6z M260.4,15.2c-0.3,0-0.7,0.6-0.7,1c0,0.3,0.4,0.6,0.8,0.6c0.5,0,1.1-0.3,1.1-0.5
		C261.6,16,261,15.2,260.4,15.2z"/>
	<path class="st0" d="M261.8,22.5c0,0.6,0.6,1.2,1.4,1.4c0.2,0,0.3,0,0.5,0h0.1c0.9,0,0.9,0.7,0.9,1c0,0.3,0,1.3-0.8,1.3h-0.2
		c-0.2,0-0.3,0-0.6,0c-1.5-0.2-2.1-1.5-2.2-1.7c-0.2,0.6-1.5,1.7-3.7,1.7h-0.1c-0.6,0-1-0.6-1-1.1s0.3-1.1,1-1.1h0.7
		c1,0,2.4-0.2,3.3-1.6c0.3-0.5,0.4-0.5,0.5-0.5C261.7,21.7,261.8,21.9,261.8,22.5z M261.6,29.2c0.2-0.2,0.2-0.2,0.3-0.1
		c0.5,0.5,1,1.1,1.5,1.4c0.2,0.1,0.2,0.2,0,0.3c-0.5,0.5-0.9,1-1.3,1.5c-0.1,0.1-0.2,0.1-0.3,0c-0.4-0.3-0.9-0.7-1.4-1.2
		c-0.3,0.3-0.9,1-1.1,1.2c-0.1,0.1-0.2,0.2-0.4,0c-0.5-0.3-1.1-0.9-1.5-1.4c-0.1-0.1-0.1-0.2,0-0.3c0.4-0.5,0.9-1,1.4-1.5
		c0.1-0.1,0.2-0.1,0.3,0.1c0.4,0.4,1,1,1.4,1.2C260.8,30.1,261.4,29.4,261.6,29.2z"/>
	<path class="st0" d="M271.2,12.7c0.1-0.1,0.1,0,0.1,0.1c0,0.6-0.2,1.1-0.5,1.3l-4.1,2.3c-0.1,0-0.1,0-0.1-0.1c0-0.3,0.1-0.8,0.2-1
		c0.1-0.2,0.3-0.3,0.7-0.5L271.2,12.7z"/>
	<path class="st0" d="M266.7,20.8c-0.2,0-0.5,0-0.6,0.1c-0.2,0.1-0.6,0.3-0.8,0.3c-0.2,0-0.2-0.1-0.2-0.2c0-0.4,0.6-1.3,1.2-1.8
		c0.5-0.4,1-0.6,1.4-0.6c0.2,0,0.3,0,0.5,0.1c1.8,0.4,4.1,1.4,6,1.8c1.3,0.3,2.6,0.4,3.4,0.4c0.2,0,0.3,0,0.5,0c0.1,0,0.1,0,0.1,0.1
		c0,0.4-0.7,1.5-1.1,1.9c-0.1,0.1-0.3,0.1-0.6,0.1c-0.5,0-1.6-0.1-1.9-0.1c-0.9,0-1.6,0.1-2.2,0.3c-0.4,0.2-1.2,0.5-2.3,1
		c-1.7,0.8-2.8,1.4-3.6,1.7c-0.8,0.3-1.6,0.5-2.5,0.5h-0.3c-0.7,0-1.1-0.4-1.1-1.2c0-0.7,0.4-1.1,1.1-1.1h0.3c1.4,0,2.5-0.1,3.4-0.4
		c0.9-0.3,2.3-0.7,4-1.4C269.3,21.4,267.7,20.8,266.7,20.8z"/>
	<path class="st0" d="M290.5,11.2c0.7,0,1.7,1,1.7,2.1c0,0.4-0.1,0.8-0.2,1.2c-0.3,0.8-0.9,1.3-1.8,1.3c-0.8,0-1.3-0.6-1.3-1.3
		C288.8,13.3,290,11.2,290.5,11.2z M290.2,12.8c-0.3,0-0.7,0.6-0.7,1c0,0.3,0.4,0.6,0.8,0.6c0.5,0,1.1-0.3,1.1-0.5
		C291.4,13.6,290.8,12.8,290.2,12.8z"/>
	<path class="st0" d="M295,24c0-0.3,0.3-1.4,0.6-2c0.1-0.1,0.1-0.2,0.2-0.2c0.1,0,0.2,0.1,0.2,0.2c0.6,1.2,1.1,1.8,1.9,1.8h0.3
		c0.7,0,1,0.4,1,1.1c0,0.8-0.3,1.2-1,1.2h-0.3c-0.4,0-0.7,0-0.9-0.1c-0.1,1.8-0.2,2.6-0.4,3c-0.3,0.9-0.8,1.7-2.1,2.6
		c-1.2,0.9-3,1.5-5.5,1.5c-2.5,0-4.4-1.7-4.4-4.5c0-1.4,0.7-3.1,1.3-3.8c0.2-0.3,0.5-0.6,0.6-0.6c0.1,0,0.1,0.1,0.1,0.2
		c0,0.2-0.1,0.4-0.2,0.7c-0.5,0.9-0.8,1.7-0.8,2.7c0,1.9,2.3,3,3.9,3c2.7,0,5.6-1,6.4-2.5c0-0.1,0.1-0.2,0.1-0.4
		c-0.1-1.9-0.3-2.6-0.9-3.7C295,24.1,295,24.1,295,24z M292.6,18.9c0.1,0.1,0.1,0.1,0,0.2c-0.2,0.3-1.1,1.2-1.4,1.7
		c-0.1,0.1-0.1,0.1-0.2,0c-0.5-0.3-1.5-1-1.7-1.4c-0.1-0.1-0.1-0.1,0-0.2c0.3-0.5,0.9-1.2,1.3-1.6c0.2-0.2,0.2-0.2,0.3-0.1
		C291.2,17.8,291.9,18.4,292.6,18.9z"/>
	<path class="st0" d="M306,28.1c0.1-0.1,0.1,0,0.1,0.1c0,0.6-0.2,1.1-0.5,1.3l-4.1,2.3c-0.1,0-0.1,0-0.1-0.1c0-0.3,0.1-0.8,0.2-1
		c0.1-0.2,0.3-0.3,0.7-0.5L306,28.1z"/>
	<path class="st0" d="M298.1,26.1H298c-0.7,0-1-0.4-1-1.2c0-0.7,0.4-1.1,1-1.1h0.1c1.2,0,2.2-0.5,2.9-1.4l1.3-2
		c0.7-1.1,1.7-1.5,2.2-1.5c1.7,0,2.4,2.9,2.4,4.1c0,1-1.1,2.4-1.6,2.4c-0.8,0-2.8-1-3.8-1.9C300.4,25.3,299.3,26.1,298.1,26.1z
		 M303.4,20.9c-0.2,0-0.3,0.1-0.5,0.3c-0.1,0.1-0.2,0.3-0.3,0.5c0.5,0.3,1.9,1,2.5,1.4C305,22.3,304,20.9,303.4,20.9z"/>
	<path class="st0" d="M324,29.2c0.1-0.1,0.1,0,0.1,0.1c0,0.6-0.2,1.1-0.5,1.3l-4.1,2.3c-0.1,0-0.1,0-0.1-0.1c0-0.3,0.1-0.8,0.2-1
		c0.1-0.2,0.3-0.3,0.7-0.5L324,29.2z"/>
	<path class="st0" d="M315.4,26.8c-0.9-0.8-1.4-2.1-1.4-3.4c0-1.5,0.9-3.2,1.4-3.9c0.2-0.3,0.4-0.4,0.5-0.4c0.1,0,0.1,0.1,0.1,0.2
		c0,0.1-0.1,0.3-0.2,0.5c-0.4,0.9-0.9,1.8-0.9,2.9c0,0.8,0.6,1.6,1.4,2.1c0.8,0.5,1.7,0.8,2.7,0.8c2.4,0,5.7-1,6.4-2.7
		c0-0.2,0-0.3,0-0.4c0-1.1-0.3-2.3-0.9-3.1c-0.2-0.4-0.4-0.7-0.5-0.8c0,0,0-0.1,0-0.2c0-0.2,0.1-0.5,0.2-0.8
		c0.2-0.4,0.3-0.8,0.4-1.1c0.1-0.1,0.1-0.2,0.2-0.2c0.1,0,0.1,0,0.2,0.3c0.7,1.5,1.3,2.9,1.3,4.7c0,1.4-0.2,2.3-0.3,2.7
		c-0.4,0.9-0.6,1.3-1.1,1.8c-0.5,0.5-1.4,1.2-2.5,1.6c-1.1,0.5-2.4,0.7-4.1,0.7C317.3,27.9,316.2,27.6,315.4,26.8z M321.9,13
		c0.1,0.1,0.1,0.1,0,0.2c-0.2,0.3-1.1,1.2-1.4,1.7c-0.1,0.1-0.1,0.1-0.2,0c-0.5-0.3-1.5-1-1.7-1.4c-0.1-0.1-0.1-0.1,0-0.2
		c0.3-0.5,0.9-1.2,1.3-1.6c0.2-0.2,0.2-0.2,0.3-0.1C320.5,11.9,321.2,12.6,321.9,13z"/>
	<path class="st0" d="M325.3,32.1c-0.3-0.2-0.4-0.3-0.4-0.4c0-0.1,0.2-0.2,0.4-0.2c0.3,0,1.1,0.2,1.8,0.2c0.6,0,1.2-0.2,2.1-0.6
		c2.4-1.2,3.9-3,3.9-4.2c0-0.2,0-0.3-0.1-0.7h-0.7c-0.5,0-1.5-0.1-2.2-0.5c-0.7-0.4-1-0.9-1-1.5c0-0.6,0.3-1.4,0.6-2.2
		c0.6-1.3,1.2-2.2,1.9-2.2c0.7,0,1.3,0.5,1.8,1.1c0.5,0.7,0.7,1.8,0.7,2.8h1c0.6,0,0.9,0.3,0.9,1c0,0.8-0.3,1.2-0.9,1.2l-1.1,0.1
		c-0.2,3.5-1.3,5.8-4.1,6.9c-0.2,0.1-0.4,0.1-0.6,0.1C328.3,33.1,326.7,32.7,325.3,32.1z M331.6,22.4c-0.1-0.1-0.3-0.2-0.6-0.2
		c-0.5,0-0.8,0.5-0.8,0.8c0,0.2,0.2,0.5,0.8,0.7c0.4,0.2,0.9,0.2,1.1,0.2c0.2,0,0.2,0,0.2-0.1C332.4,23.5,332,22.8,331.6,22.4z"/>
	<path class="st0" d="M336.4,13.7c0,0-0.1,0-0.1,0c-0.3,0-0.6-0.2-0.8-0.4c-0.3-0.3-0.4-0.7-0.4-1.2c0-0.2,0-0.5,0.1-0.7
		c0.1-0.2,0.3-0.7,0.5-0.7c0.1,0,0.1,0.1,0.1,0.4c0,0.1,0,0.3,0,0.4c0,0.4,0.2,0.6,0.7,0.6h0c0.4,0,0.8-0.3,0.9-0.9
		c0.1-0.2,0.3-1,0.6-1c0.1,0,0.2,0.1,0.2,0.4v0.1c0,0.3,0.1,0.4,0.4,0.4c0,0,0.1,0,0.2,0c0.4-0.1,0.6-0.4,0.7-0.8
		c0.2-0.5,0.3-0.7,0.4-0.7c0.1,0,0.2,0.1,0.2,0.3c0,0.2,0,0.3,0,0.5c0,0.4-0.1,0.8-0.3,1.2c-0.3,0.6-0.7,1.1-1.4,1.1
		c-0.3,0-0.4-0.1-0.6-0.2c-0.1-0.1-0.1-0.1-0.2,0C337.3,13.3,336.8,13.7,336.4,13.7z M339.6,5.5c0,0.2,0,0.2,0,0.3
		c0,0.4-0.1,0.8-0.3,1.2c0.2,0.1,0.3,0.2,0.3,0.3c0,0.3-0.1,0.6-0.3,0.9L338.9,8c-0.5,0.8-1,1.3-1.3,1.6c-0.3,0.2-0.9,0.4-1.6,0.4
		c-0.4,0-0.5-0.1-0.3-0.2c1.3-0.8,2.2-1.5,2.7-2.2c-0.4-0.3-0.9-0.6-0.9-1.1c0-0.3,0.2-0.7,0.5-1.1c0.3-0.5,0.7-0.7,1-0.7
		C339.3,4.8,339.5,5.2,339.6,5.5z M338.1,6.3c0.1,0.2,0.3,0.3,0.7,0.5c0.1-0.1,0.1-0.4,0.1-0.5c0-0.2-0.1-0.4-0.3-0.4
		C338.4,5.9,338.2,6,338.1,6.3z"/>
	<path class="st0" d="M339.6,22.5c0,0.6,0.6,1.2,1.4,1.4c0.2,0,0.3,0,0.5,0h0.1c0.9,0,0.9,0.7,0.9,1c0,0.3,0,1.3-0.8,1.3h-0.2
		c-0.2,0-0.3,0-0.6,0c-1.5-0.2-2.1-1.5-2.2-1.7c-0.2,0.6-1.5,1.7-3.7,1.7h-0.1c-0.6,0-1-0.6-1-1.1s0.3-1.1,1-1.1h0.7
		c1,0,2.4-0.2,3.3-1.6c0.3-0.5,0.4-0.5,0.5-0.5C339.5,21.7,339.6,21.9,339.6,22.5z M340.4,16.6c0.1,0.1,0.1,0.1,0,0.2
		c-0.2,0.3-1.1,1.2-1.4,1.7c-0.1,0.1-0.1,0.1-0.2,0c-0.5-0.3-1.5-1-1.7-1.4c-0.1-0.1-0.1-0.1,0-0.2c0.3-0.5,0.9-1.2,1.3-1.6
		c0.2-0.2,0.2-0.2,0.3-0.1C339,15.5,339.7,16.2,340.4,16.6z"/>
	<path class="st0" d="M343.9,25.1c-0.5,0.7-1.2,1-2.3,1h-0.2c-0.7,0-1-0.4-1-1.2c0-0.7,0.3-1.1,1-1.1h0.2c0.5,0,1-0.1,1.5-0.2
		c0.4-0.1,0.6-0.3,0.7-0.4c0-1.7-0.6-5.4-0.9-8.9c0-0.4-0.3-1.6-0.4-2.1c0-0.1,0-0.2,0-0.2c0-0.3,0.3-0.9,0.5-1.3
		c0.3-0.5,0.5-0.9,0.7-0.9c0.1,0,0.1,0.1,0.2,0.2c0.3,1,0.6,1.5,0.8,1.8c0.1,0.1,0.1,0.2,0.1,0.3c0,0,0,0.1,0,0.1
		c-0.1,0.2-0.4,0.8-0.6,1.1c0.2,3.4,0.7,6.2,0.7,7.8C344.9,22.8,344.6,24.1,343.9,25.1z"/>
	<path class="st0" d="M349.5,26.1c-0.1,0-0.2-0.2-0.2-0.7c0-3-1.1-11.3-1.1-12.7c0-0.7,0.5-1.7,0.9-2.5c0.1-0.2,0.3-0.5,0.5-0.5
		c0.1,0,0.2,0.2,0.2,0.8c0.1,2.2,0.7,7.3,0.7,11c0,1.5-0.1,2.7-0.4,3.5C349.9,25.8,349.7,26.1,349.5,26.1z"/>
	<path class="st0" d="M371.7,20.3c0,2.2,0,2.9-1,3.9c1,0.3,2.8,0.9,2.8,2.3c0,2.7-5.8,5.7-9.3,5.7c-2.1,0-5.3-0.8-5.3-4.8
		c0-1.7,0.7-3.8,1.5-5c0.2-0.4,0.5-0.6,0.7-0.6c0.2,0,0.1,0.4-0.1,0.8c-0.6,1.3-1,2.5-1,3.4c0,2.7,2.4,3.8,4.8,3.8
		c2.7,0,7.1-2.1,7.6-2.8c-0.7-0.6-2.7-1.5-4.4-1.5c-0.3,0-0.4-0.1-0.4-0.3c0-0.3,0.3-0.9,0.5-1.3c0.1-0.1,0.1-0.2,0.2-0.2l1-0.3
		c0.8-0.3,1.4-0.7,1.4-1c-0.3-2.7-0.7-7-0.9-8.6c-0.1-0.4-0.2-0.7-0.2-1.1c0-0.1,0-0.2,0-0.3c0,0,0-0.1,0-0.2c0-0.1,0.2-0.6,0.5-1.1
		c0.3-0.5,0.5-0.9,0.7-0.9c0.1,0,0.1,0.1,0.2,0.2c0.2,0.8,0.6,1.4,0.8,1.8c0,0.1,0.1,0.1,0.1,0.2c0,0.1,0,0.1,0,0.2
		c-0.1,0.2-0.4,0.8-0.6,1.2C371.5,16.5,371.7,18.6,371.7,20.3z"/>
	<path class="st0" d="M379.3,32.6c0.1-0.1,0.1,0,0.1,0.1c0,0.6-0.2,1.1-0.5,1.3l-4.1,2.3c-0.1,0-0.1,0-0.1-0.1c0-0.3,0.1-0.8,0.2-1
		c0.1-0.2,0.3-0.3,0.7-0.5L379.3,32.6z"/>
	<path class="st0" d="M379.1,30.6c-0.8,0.4-2.6,1.5-4,2.5c-0.1,0-0.1,0-0.1,0c0,0-0.1,0-0.1-0.1c0-0.1,0.1-0.3,0.2-0.7
		c0.1-0.2,0.5-0.6,0.8-0.9c0,0,0.1-0.1,0.1-0.1c0,0,0-0.1-0.1-0.1c-0.6-0.2-0.9-0.4-0.9-0.9c0-0.1,0-0.1,0-0.2c0-0.9,1-2.2,1.8-2.9
		c0.3-0.3,0.7-0.4,1-0.4c0.5,0,0.8,0.3,0.8,0.7c0,0.3-0.1,0.6-0.2,1c-0.1,0.2-0.2,0.4-0.3,0.4c-0.1,0-0.2-0.1-0.3-0.2
		c-0.1-0.1-0.3-0.3-0.6-0.3c-0.8,0-1.3,0.5-1.3,0.7c0,0.3,1.3,0.8,1.8,0.8c0.1,0,0.1,0,0.1,0c0.2-0.1,1.1-0.4,1.5-0.6
		c0.2-0.1,0.3-0.2,0.3-0.2c0,0,0.1,0,0.1,0.1c0,0.1-0.1,0.2-0.1,0.4C379.5,30.4,379.3,30.5,379.1,30.6z M377.6,26.1
		c-0.1,0-0.2-0.2-0.2-0.7c0-3-1.1-11.3-1.1-12.7c0-0.7,0.5-1.7,0.9-2.5c0.1-0.2,0.3-0.5,0.5-0.5c0.1,0,0.2,0.2,0.2,0.8
		c0.1,2.2,0.7,7.3,0.7,11c0,1.5-0.1,2.7-0.4,3.5C378,25.8,377.8,26.1,377.6,26.1z"/>
	<path class="st0" d="M400.9,27.9c0.1-0.1,0.1,0,0.1,0.1c0,0.6-0.2,1.1-0.5,1.3l-4.1,2.3c-0.1,0-0.1,0-0.1-0.1c0-0.3,0.1-0.8,0.2-1
		c0.1-0.2,0.3-0.3,0.7-0.5L400.9,27.9z"/>
	<path class="st0" d="M405.9,20.5c0,0.5-0.3,1.8-0.6,2.8c-0.3,0.7-0.4,0.8-1.2,1.2c-1.7,0.8-5.7,2-9.8,2c-5.3,0-7.4-1.8-7.4-4.3
		c0-0.9,0.4-2.4,1-3.3c0.2-0.3,0.4-0.6,0.6-0.6c0.1,0,0.1,0,0.1,0.1c0,0.1-0.1,0.3-0.1,0.5c-0.2,0.7-0.5,1.4-0.5,2
		c0,1.1,1.4,3.1,6.5,3.2c3.7,0,7.7-0.8,9.4-1.4c0.9-0.3,0.9-0.5,0.9-1.1c0-0.5-0.1-0.8-0.3-1.3c-0.2,0.5-0.9,1-1.8,1
		c-1.1,0-1.8-0.7-1.8-2c0-1.8,1.4-4.1,2-4.1C404.5,15.1,405.9,17.7,405.9,20.5z M400.8,12.3c0.1,0.1,0.1,0.1,0,0.2
		c-0.2,0.3-1.1,1.2-1.4,1.7c-0.1,0.1-0.1,0.1-0.2,0c-0.5-0.3-1.5-1-1.7-1.4c-0.1-0.1-0.1-0.1,0-0.2c0.3-0.5,0.9-1.2,1.3-1.6
		c0.2-0.2,0.2-0.2,0.3-0.1C399.4,11.2,400.1,11.9,400.8,12.3z M402.6,17.3c-0.3,0-0.6,0.4-0.7,0.8c0,0,0,0.1,0,0.1c0,0,0,0.1,0,0.1
		c0.1,0.3,0.5,0.5,1,0.5c0.4,0,0.8-0.2,0.9-0.3c0,0,0.1-0.1,0.1-0.1C403.9,18.2,403.4,17.3,402.6,17.3z"/>
	<path class="st0" d="M413.9,22c0.3,0.9,0.5,1.8,0.5,3.1c0,4-1.1,6.5-4.2,7.7c-0.2,0.1-0.4,0.1-0.6,0.1c-1,0-2.6-0.5-4-1.1
		c-0.3-0.2-0.4-0.3-0.4-0.4c0-0.1,0.1-0.2,0.4-0.2c0.2,0,1.1,0.2,1.8,0.2c0.9,0,1.9-0.4,3.3-1.3c1.5-1,2.8-2.3,2.8-3.8
		c0-0.5-0.1-1-0.4-1.5c-0.3,0.7-0.8,1.1-1.5,1.1c-1.3,0-2.1-0.7-2.1-2.1c0-0.5,0.3-1.3,0.6-2.1c0.5-1,1.2-1.9,1.8-1.9
		C412.6,19.8,413.4,20.7,413.9,22z M411.4,22c-0.3,0-0.5,0.2-0.7,0.5c-0.1,0.1-0.2,0.4-0.2,0.5c0,0.4,0.6,0.6,1.1,0.6
		c0.4,0,0.7-0.2,0.8-0.4C412.4,22.5,411.7,22,411.4,22z"/>
	<path class="st0" d="M424.9,23.8c0.7,0,1.1,0.4,1.1,1.1c0,0.8-0.4,1.2-1.1,1.2h-0.2c-0.6,0-1,0-1.3-0.1c0,0.1,0,0.2,0,0.3
		c0,0.7-0.1,1.5-0.4,2.1c-0.5,1.2-1.3,3.3-3.6,4.3c-0.4,0.2-0.8,0.3-1.2,0.3c-0.9,0-2.4-0.5-3.5-1c-0.3-0.2-0.4-0.3-0.4-0.4
		c0-0.1,0.1-0.2,0.4-0.2c0.3,0,0.8,0.1,1.3,0.1c3.1,0,6.2-2.7,6.6-5c0-0.5-1.1-1.6-1.3-1.9c0-0.1-0.1-0.2-0.1-0.3
		c0-0.5,0.4-1.5,0.6-1.8c0.1-0.2,0.2-0.2,0.3-0.2c0.2,0,0.3,0.2,0.6,0.7c0.4,0.6,0.9,0.9,1.8,0.9H424.9z"/>
	<path class="st0" d="M428.3,12.7c0,0.5-0.1,1-0.3,1.5c0.2,0.1,0.4,0.3,0.4,0.4c0,0.4-0.2,0.7-0.3,1c-0.1,0.1-0.1,0.1-0.1,0.1
		l-0.5-0.3c-0.5,0.8-1.3,1.7-2.5,2.3c-0.4,0.2-0.9,0.4-1.5,0.4c-0.3,0-0.4-0.1-0.4-0.1c0-0.1,0.2-0.2,0.6-0.4
		c0.9-0.5,2.5-1.8,3.1-2.5c-0.5-0.3-1.1-0.7-1.1-1.4c0-0.4,0.2-0.9,0.6-1.3c0.4-0.5,0.8-0.8,1.2-0.8
		C428.1,11.5,428.3,12.2,428.3,12.7z M426.5,13.2C426.5,13.2,426.5,13.2,426.5,13.2c0,0.2,0.4,0.5,0.8,0.7c0.1-0.2,0.1-0.4,0.1-0.7
		c0-0.3-0.1-0.4-0.3-0.4C426.9,12.7,426.7,12.9,426.5,13.2z"/>
	<path class="st0" d="M430.7,4.1c0.7,0,1.7,1,1.7,2.1c0,0.4-0.1,0.8-0.2,1.2c-0.3,0.8-0.9,1.3-1.8,1.3c-0.8,0-1.3-0.6-1.3-1.3
		C429,6.2,430.1,4.1,430.7,4.1z M430.4,5.7c-0.3,0-0.7,0.6-0.7,1c0,0.3,0.4,0.6,0.8,0.6c0.5,0,1.1-0.3,1.1-0.5
		C431.6,6.5,431,5.7,430.4,5.7z"/>
	<path class="st0" d="M431.5,16.7c0,0.6-0.1,1.1-0.2,1.4c-0.1,0.4-0.2,0.7-0.3,1c-0.1,0.3-0.4,0.6-0.9,1c0.9,0.2,1.8,0.5,2.8,0.8
		c1.1,0.3,2,0.6,2.6,0.7c0.6,0.2,1.4,0.2,2.4,0.3l1.7,0.1c0.2,0,0.2,0.1,0.2,0.2c-0.3,0.4-0.7,0.9-1.3,1.6c-0.1,0.2-0.2,0.2-0.4,0.2
		c-0.2,0-1.3-0.2-2.9-0.2c-0.8,0-1.5,0.1-2.3,0.3c-0.7,0.2-1.7,0.5-2.8,0.9c-1.1,0.4-2.1,0.7-2.7,0.9c-0.6,0.2-1.5,0.3-2.4,0.3h-0.2
		c-0.7,0-1-0.4-1-1.2c0-0.8,0.3-1.1,1-1.1h0.3c2.5,0,4.7-0.4,6.7-1c-0.2-0.2-0.9-0.4-2.3-0.8c-1.3-0.4-2.4-0.6-3.1-0.6
		c-0.2,0-0.2,0-0.2-0.1c0-0.3,0.4-0.8,1.3-1.6c0.1-0.1,0.2-0.2,0.3-0.2c0.2-0.1,0.5-0.2,0.9-0.3c0.3-0.1,0.7-0.2,1.3-0.5
		c0.6-0.2,0.8-0.5,0.8-0.8l-0.7-4.2c-0.1-0.4-0.3-1.3-0.4-1.7c0-0.1,0-0.2,0-0.3c0,0,0-0.1,0-0.2c0-0.1,0.1-0.4,0.4-0.9
		c0.2-0.5,0.6-1,0.8-1c0.1,0,0.1,0.1,0.2,0.2c0.3,0.9,0.6,1.4,0.8,1.8c0,0.1,0.1,0.2,0.1,0.2c0,0.1,0,0.1,0,0.2
		c-0.1,0.2-0.3,0.7-0.5,1C431.4,14.3,431.6,15.7,431.5,16.7z"/>
	<path class="st0" d="M443.4,26.1c-0.1,0-0.2-0.2-0.2-0.7c0-3-1.1-11.3-1.1-12.7c0-0.7,0.5-1.7,0.9-2.5c0.1-0.2,0.3-0.5,0.5-0.5
		c0.1,0,0.2,0.2,0.2,0.8c0.1,2.2,0.7,7.3,0.7,11c0,1.5-0.1,2.7-0.4,3.5C443.7,25.8,443.6,26.1,443.4,26.1z"/>
	<path class="st0" d="M460.8,7.5c0,0.5-0.1,1-0.3,1.5c0.2,0.1,0.4,0.3,0.4,0.4c0,0.4-0.2,0.7-0.3,1c-0.1,0.1-0.1,0.1-0.1,0.1
		l-0.5-0.3c-0.5,0.8-1.3,1.8-2.5,2.3c-0.4,0.2-0.9,0.4-1.5,0.4c-0.3,0-0.4-0.1-0.4-0.1c0-0.1,0.2-0.2,0.6-0.4
		c0.9-0.5,2.5-1.8,3.1-2.5c-0.5-0.3-1.1-0.7-1.1-1.4c0-0.4,0.2-0.9,0.6-1.3c0.4-0.5,0.8-0.8,1.2-0.8C460.6,6.2,460.8,6.9,460.8,7.5z
		 M459,7.9C459,8,459,8,459,7.9c0,0.2,0.4,0.5,0.8,0.7c0.1-0.2,0.1-0.4,0.1-0.7c0-0.3-0.1-0.4-0.3-0.4C459.4,7.5,459.2,7.7,459,7.9z
		"/>
	<path class="st0" d="M462.8,23.8h0.3c0.7,0,1,0.4,1,1.1c0,0.8-0.4,1.2-1,1.2h-0.3c-0.8,0-1.4-0.3-1.8-0.7c-0.5-0.4-0.8-1-1.1-1.9
		c-0.3,1.6-2.2,2.6-4.6,2.6c-0.7,0-1.5-0.1-2.1-0.5c-0.4-0.3-0.7-0.6-0.7-1.1c0-0.5,0.1-1.3,0.4-1.9c0.1-0.2,0.2-0.3,0.3-0.3
		c0.1,0,0.2,0.1,0.3,0.3c0.2,0.7,1.2,1,2.3,1c2.1,0,3.1-0.5,3.6-1.3c0-0.2,0.1-0.4,0.1-0.7c0-1.3-0.4-2.9-0.7-4.4
		c0-0.2-0.1-0.3-0.1-0.5c0-0.1,0.1-0.4,0.5-1.4c0.2-0.4,0.3-0.6,0.4-0.6c0.1,0,0.2,0.2,0.3,0.6c0.8,3.3,0.8,5.6,1.2,7
		c0.1,0.4,0.2,0.6,0.5,0.9C461.9,23.6,462.3,23.8,462.8,23.8z"/>
	<path class="st0" d="M473,23.8c0.6,0,1,0.4,1,1.1c0,0.8-0.3,1.2-1,1.2h-0.2c-1-0.1-1.9-0.3-2.7-0.8c-0.8-0.5-1.1-0.9-1.6-1.7
		c-1.2,1.1-2.1,1.7-2.9,2c-0.8,0.3-1.7,0.5-2.7,0.5c-0.8,0-1.1-0.4-1.1-1.2c0-0.7,0.4-1.1,1.1-1.1h0.2c1.8,0,3-0.3,4.5-1.2
		c-0.5-0.7-1.7-1-2.3-1.1c-0.1,0-0.1-0.2-0.1-0.4c0-0.5,0.2-1.4,0.5-1.6c1-0.7,2.1-1.1,3.1-1.1c1,0,1.9,0.4,2.6,1.1
		c0.2,0.2,0.2,0.4,0.2,0.7c0,0.7-0.4,1.7-1.3,2.3c0.8,0.8,1.7,1.2,2.6,1.2H473z"/>
	<path class="st0" d="M476.1,11.8c0.7,0,1.7,1,1.7,2.1c0,0.4-0.1,0.8-0.2,1.2c-0.3,0.8-0.9,1.3-1.8,1.3c-0.8,0-1.3-0.6-1.3-1.3
		C474.5,14,475.6,11.8,476.1,11.8z M475.9,13.4c-0.3,0-0.7,0.6-0.7,1c0,0.3,0.4,0.6,0.8,0.6c0.5,0,1.1-0.3,1.1-0.5
		C477.1,14.3,476.5,13.4,475.9,13.4z"/>
	<path class="st0" d="M476.7,24.7c-0.4,0.6-1.2,1.1-2.6,1.3c-0.4,0.1-0.9,0.1-1.4,0.1c-0.6,0-1-0.6-1-1.1s0.3-1.1,1-1.1h0.5
		c1,0,2.6,0,3.2-0.6c-0.1-0.9-0.8-2-1.1-2.4c0,0,0,0,0-0.1c0-0.4,0.7-1.8,0.7-1.9c0-0.1,0.1-0.1,0.1-0.1c0.3,0,1.1,1.6,1.1,3.5
		C477.3,23.1,477.2,24,476.7,24.7z M477.8,28.6c0.1,0.1,0.1,0.1,0,0.2c-0.2,0.3-1.1,1.2-1.4,1.7c-0.1,0.1-0.1,0.1-0.2,0
		c-0.5-0.3-1.5-1-1.7-1.4c-0.1-0.1-0.1-0.1,0-0.2c0.3-0.5,0.9-1.2,1.3-1.6c0.2-0.2,0.2-0.2,0.3-0.1
		C476.4,27.6,477.1,28.2,477.8,28.6z"/>
	<path class="st0" d="M482.8,0c0.1-0.1,0.1,0,0.1,0.1c0,0.6-0.2,1.1-0.5,1.3l-4.1,2.3c-0.1,0-0.1,0-0.1-0.1c0-0.3,0.1-0.8,0.2-1
		c0.1-0.2,0.3-0.3,0.7-0.5L482.8,0z"/>
	<path class="st0" d="M482.5,7.7c-0.8,0.4-2.6,1.5-4,2.5c-0.1,0-0.1,0-0.1,0c0,0-0.1,0-0.1-0.1c0-0.1,0.1-0.3,0.2-0.7
		c0.1-0.2,0.5-0.6,0.8-0.9c0,0,0.1-0.1,0.1-0.1c0,0,0-0.1-0.1-0.1c-0.6-0.2-0.9-0.4-0.9-0.9c0-0.1,0-0.1,0-0.2c0-0.9,1-2.2,1.8-2.9
		c0.3-0.3,0.7-0.4,1-0.4c0.5,0,0.8,0.3,0.8,0.7c0,0.3-0.1,0.6-0.2,1c-0.1,0.2-0.2,0.4-0.3,0.4c-0.1,0-0.2-0.1-0.3-0.2
		c-0.1-0.1-0.3-0.3-0.6-0.3c-0.8,0-1.3,0.5-1.3,0.7c0,0.3,1.3,0.8,1.8,0.8c0.1,0,0.1,0,0.1,0c0.2-0.1,1.1-0.4,1.5-0.6
		c0.2-0.1,0.3-0.2,0.3-0.2c0,0,0.1,0,0.1,0.1c0,0.1-0.1,0.2-0.1,0.4C482.9,7.5,482.7,7.6,482.5,7.7z M481.1,26.1
		c-0.1,0-0.2-0.2-0.2-0.7c0-3-1.1-11.3-1.1-12.7c0-0.7,0.5-1.7,0.9-2.5c0.1-0.2,0.3-0.5,0.5-0.5c0.1,0,0.2,0.2,0.2,0.8
		c0.1,2.2,0.7,7.3,0.7,11c0,1.5-0.1,2.7-0.4,3.5C481.4,25.8,481.2,26.1,481.1,26.1z"/>
	<g>
		<g>
			<circle class="st1" cx="510.6" cy="18.6" r="9.1"/>
		</g>
		<g>
			<linearGradient id="SVGID_1_" gradientUnits="userSpaceOnUse" x1="510.5967" y1="27.7121" x2="510.5967" y2="14.9729">
				<stop  offset="0" style="stop-color:#BF780A;stop-opacity:0"/>
				<stop  offset="0.1413" style="stop-color:#BF780A;stop-opacity:0.1413"/>
				<stop  offset="1" style="stop-color:#BF780A"/>
			</linearGradient>
			<path class="st2" d="M510.6,20.9c-4.8,0-8.8-1.1-9.1-5.9c0,0.2,0,3.4,0,3.6c0,5,4.1,9.1,9.1,9.1c5.1,0,9.1-4.1,9.1-9.1
				c0-0.2,0-3.4,0-3.6C519.4,19.7,515.4,20.9,510.6,20.9z"/>
		</g>
		<g>
			<ellipse class="st3" cx="510.6" cy="14.4" rx="6.6" ry="4.7"/>
		</g>
		<ellipse class="st4" cx="510.3" cy="10.5" rx="1.3" ry="0.8"/>
		<g>
			<circle class="st5" cx="510.6" cy="18.7" r="5.6"/>
			<circle class="st5" cx="510.6" cy="17.5" r="5.6"/>
			<linearGradient id="SVGID_2_" gradientUnits="userSpaceOnUse" x1="510.5967" y1="23.0227" x2="510.5967" y2="11.9065">
				<stop  offset="0" style="stop-color:#509B7E"/>
				<stop  offset="0.2754" style="stop-color:#2F7F7A"/>
				<stop  offset="0.5528" style="stop-color:#156A77"/>
				<stop  offset="0.8029" style="stop-color:#055D76"/>
				<stop  offset="1" style="stop-color:#005875"/>
			</linearGradient>
			<circle class="st6" cx="510.6" cy="17.5" r="5.6"/>
			<linearGradient id="SVGID_3_" gradientUnits="userSpaceOnUse" x1="510.5967" y1="18.4452" x2="510.5967" y2="12.8871">
				<stop  offset="0" style="stop-color:#FFCC8B;stop-opacity:0"/>
				<stop  offset="1" style="stop-color:#FFCC8B"/>
			</linearGradient>
			<circle class="st7" cx="510.6" cy="15.7" r="2.8"/>
			<linearGradient id="SVGID_4_" gradientUnits="userSpaceOnUse" x1="510.5967" y1="18.4452" x2="510.5967" y2="12.8871">
				<stop  offset="0" style="stop-color:#FFCC8B;stop-opacity:0"/>
				<stop  offset="1" style="stop-color:#FFCC8B"/>
			</linearGradient>
			<circle class="st8" cx="510.6" cy="15.7" r="2.8"/>
		</g>
		<ellipse class="st0" cx="510.4" cy="14.1" rx="1.2" ry="0.8"/>
	</g>
</g>
</svg>
