<?xml version="1.0" encoding="utf-8"?>
<!-- Generator: Adobe Illustrator 19.2.0, SVG Export Plug-In . SVG Version: 6.00 Build 0)  -->
<svg version="1.1" id="Layer_1" xmlns="http://www.w3.org/2000/svg" xmlns:xlink="http://www.w3.org/1999/xlink" x="0px" y="0px"
	 viewBox="0 0 242.6 62.3" style="enable-background:new 0 0 242.6 62.3;" xml:space="preserve">
<style type="text/css">
	.st0{fill:#F5712E;}
	.st1{fill:none;}
</style>
<g>
	<g>
		<g>
			<path d="M39.5,39.6c0,0.1-0.1,0.1-0.2,0.1c-0.4,0-1.1-0.4-1.9-1.1c-0.6-0.5-1.1-1.1-1.5-1.6c-0.9-1.1-1.5-2.4-2.1-3.8
				c-1.3,0-2-0.2-2.1-0.5c0.4-0.3,0.7-0.7,0.9-1c0.3-0.4,0.4-0.8,0.4-1.2c-0.3,0-0.7,0.2-1.2,0.6c-0.1,0.1-0.4,0.4-1,0.9
				c-0.1,0-0.2-0.1-0.3-0.4c-0.1-0.3-0.2-0.7-0.2-1.2c-0.3-0.2-0.6-0.3-0.8-0.5c-0.2-0.2-0.3-0.3-0.3-0.4c0-0.2,0.2-0.4,0.5-0.7
				c0.2-0.1,0.4-0.3,0.6-0.4c0-0.4,0-0.7,0.1-1.1c0.1-0.3,0.2-0.5,0.3-0.5c0.4,0.4,0.8,0.7,1,0.9c0.4,0.3,0.9,0.5,1.2,0.5
				c0-0.4-0.2-0.8-0.5-1.2c-0.3-0.3-0.6-0.7-1-1c0-0.2,0.3-0.3,1-0.5c0.5-0.1,0.9-0.2,1.2-0.2c0.9-2.7,2.3-4.7,4-6.1
				c0.6-0.5,1-0.7,1.2-0.7c0.1,0,0.2,0.1,0.2,0.2c0,0.1-0.2,0.4-0.7,0.9c-1.5,1.7-2.3,3.6-2.7,5.7c0.4,0.1,0.7,0.1,0.8,0.2
				c0.1,0.1,0.2,0.2,0.2,0.3c-0.4,0.3-0.7,0.7-0.9,1c-0.3,0.4-0.5,0.8-0.5,1.2c0.4,0,0.8-0.2,1.1-0.5c0.2-0.2,0.6-0.6,1-1
				c0.2,0,0.3,0.2,0.5,0.7c0.1,0.4,0.1,0.7,0.1,0.9c0.7,0.3,1.1,0.7,1.1,1c0,0.3-0.3,0.6-1,1c0,0.6-0.1,1.1-0.2,1.3
				c-0.1,0.2-0.2,0.2-0.4,0.3c-0.7-0.9-1.5-1.3-2.2-1.4c0,0.3,0.2,0.8,0.5,1.2c0.1,0.2,0.5,0.5,1,1c0,0.1-0.1,0.1-0.2,0.2
				c-0.1,0.1-0.4,0.1-0.9,0.3c0.2,1.1,0.6,2.2,1.3,3.3c0.7,1.1,1.4,2.1,2.2,2.8C39.5,39.4,39.5,39.5,39.5,39.6z M32.7,30
				c-0.2-0.1-0.5-0.2-0.8-0.3c0,0-0.2-0.1-0.5-0.2c-0.3-0.1-0.4-0.2-0.4-0.3c0,0,0.3-0.2,1-0.3c0.1-0.1,0.4-0.2,0.7-0.3
				c-0.4-0.1-0.7-0.3-1-0.5c-0.1-0.1-0.4-0.4-0.7-0.6c-0.1,0-0.1,0.1-0.1,0.3c0,0.2,0,0.4,0,0.8c-0.6,0.3-0.9,0.6-0.9,0.7
				c0,0.1,0.1,0.2,0.3,0.3c0.2,0.1,0.4,0.2,0.7,0.3c0,0.1,0,0.4,0.1,0.7c0.1,0.4,0.1,0.6,0.2,0.6l0.7-0.7
				C32.1,30.3,32.4,30.1,32.7,30z M38.3,19.3c-1.8,1.2-3.2,3.4-4.3,6.5c-0.7,0-1.2,0-1.4,0.1c-0.2,0-0.3,0.1-0.3,0.2
				c0.5,0.4,0.9,0.9,1.2,1.4c0.1-0.3,0.3-0.5,0.4-0.6c0.1-0.2,0.2-0.5,0.4-0.7c0,0,0.1,0.1,0.1,0.3c0,0.2,0.1,0.3,0.1,0.3
				c0.1,0.1,0.2,0.3,0.4,0.7c0.1-0.3,0.3-0.6,0.5-0.9c0.1-0.1,0.3-0.4,0.6-0.6c0-0.1-0.1-0.1-0.3-0.2c-0.1,0-0.3,0-0.5-0.1
				c0.3-1.2,0.5-2,0.6-2.4C36.4,22.1,37.2,20.8,38.3,19.3z M38.8,39.2c-0.7-0.7-1.4-1.5-2-2.6c-0.7-1.2-1.1-2.5-1.4-3.8
				c0.5,0,0.8-0.1,0.8-0.2c-0.5-0.5-1-1-1.2-1.5c-0.1,0.2-0.2,0.4-0.3,0.7c0,0-0.1,0.2-0.2,0.4c-0.1,0.2-0.1,0.3-0.2,0.3
				c-0.2,0-0.4-0.4-0.7-1.3c-0.2,0.4-0.4,0.7-0.6,0.9c-0.2,0.2-0.4,0.4-0.6,0.6c0,0,0.1,0.1,0.3,0.1c0.1,0,0.4,0.1,0.6,0.1
				c0.2,0,0.3,0,0.4,0c0.1,0,0.3,0,0.3,0C35.1,35.7,36.6,37.8,38.8,39.2z M35.6,29.3c0-0.4-0.1-0.7-0.4-0.9C35,28.2,34.7,28,34.3,28
				c-0.4,0-0.7,0.1-0.9,0.4C33.1,28.7,33,29,33,29.3c0,0.3,0.1,0.6,0.4,0.9c0.3,0.2,0.6,0.4,0.9,0.4c0.4,0,0.7-0.1,0.9-0.4
				C35.5,30,35.6,29.7,35.6,29.3z M38.7,29.2c0-0.2-0.3-0.3-0.9-0.6c0-0.4,0-0.7-0.1-0.9s-0.1-0.4-0.2-0.4c-0.1,0.1-0.3,0.3-0.7,0.7
				c-0.3,0.3-0.6,0.4-0.9,0.6c0.1,0,0.4,0.2,1.1,0.4c0.4,0.1,0.6,0.3,0.6,0.3c0,0.1-0.2,0.2-0.6,0.3c-0.3,0.1-0.7,0.2-1.1,0.3
				c0.3,0.1,0.6,0.3,1,0.5c0.1,0.1,0.4,0.3,0.6,0.6c0.1,0,0.2-0.4,0.2-1.2C38.4,29.6,38.7,29.4,38.7,29.2z"/>
			<path d="M45.3,22.1C45.3,22.1,45.4,22.1,45.3,22.1c0.1,0.1,0.1,0.1,0.1,0.1c0,0,0,0.1,0,0.1c0,0,0,0.1,0,0.1c0,0.2,0,0.4,0,0.7
				c0,0.2,0,0.4,0.1,0.6c0.1,0.5,0.1,1.1,0.2,1.6c0.1,0.6,0.2,1.1,0.2,1.7c0.1,0.6,0.2,1.1,0.2,1.7c0.1,0.6,0.1,1.1,0.2,1.6
				c0,0.2,0,0.4,0,0.7c0,0.3,0,0.6,0,0.8c0,0.3,0,0.6-0.1,0.8c0,0.3-0.1,0.5-0.2,0.7c0,0.1-0.1,0.2-0.2,0.2c0,0-0.1,0-0.1-0.1
				c-0.1-1-0.2-2.1-0.3-3.1c-0.2-1.1-0.3-2.2-0.5-3.3c-0.2-1.1-0.3-2.2-0.4-3.3c0-0.3,0.1-0.6,0.2-0.9c0.1-0.2,0.1-0.3,0.2-0.5
				C45.2,22.3,45.2,22.2,45.3,22.1z"/>
			<path d="M52,24.9c-0.3,0.1-0.6,0.3-0.9,0.4c-0.3,0.1-0.6,0.3-0.9,0.4c-0.3,0.1-0.6,0.3-0.8,0.4c-0.3,0.1-0.5,0.2-0.6,0.3
				c-0.1,0-0.1,0-0.1-0.1c0-0.1,0-0.1,0.1-0.2c0-0.1,0.1-0.2,0.1-0.2c0-0.1,0.1-0.1,0.1-0.2c0-0.1,0.1-0.1,0.1-0.1
				c0-0.1,0.1-0.1,0.2-0.2l3.3-1.5c0.1,0,0.1,0,0.1,0.1c0,0.1-0.1,0.2-0.2,0.4c-0.1,0.1-0.1,0.3-0.2,0.3C52.1,24.8,52,24.9,52,24.9z
				 M52.1,23.3c-0.3,0.1-0.6,0.3-0.9,0.4c-0.3,0.1-0.6,0.3-0.9,0.4s-0.6,0.3-0.8,0.4c-0.3,0.1-0.5,0.2-0.6,0.3c-0.1,0-0.1,0-0.1-0.1
				c0-0.1,0-0.1,0.1-0.2c0-0.1,0.1-0.2,0.1-0.2c0-0.1,0.1-0.1,0.1-0.2c0-0.1,0.1-0.1,0.1-0.1c0-0.1,0.1-0.1,0.2-0.2l3.3-1.5
				c0.1,0,0.1,0,0.1,0.1c0,0.1-0.1,0.2-0.2,0.4c-0.1,0.1-0.1,0.3-0.2,0.3C52.2,23.3,52.1,23.3,52.1,23.3z"/>
			<path d="M51.4,31.2C51.5,31.1,51.5,31.1,51.4,31.2c0.1,0,0.1,0,0.2,0.1c0.2,0.2,0.4,0.4,0.6,0.5c0.2,0.1,0.4,0.2,0.6,0.3
				c0.2,0.1,0.4,0.1,0.6,0.1c0.2,0,0.4,0,0.6,0h0.2c0.2,0,0.3,0.1,0.4,0.2c0.1,0.1,0.1,0.3,0.1,0.5c0,0.2,0,0.3-0.1,0.5
				c-0.1,0.1-0.2,0.2-0.4,0.2H54c-0.1,0-0.1,0-0.2,0c-0.1,0-0.2,0-0.3,0c-0.1,0-0.2,0-0.3,0c-0.1,0-0.2,0-0.3,0
				c-0.1,0.4-0.2,0.8-0.3,1.2c-0.1,0.4-0.2,0.7-0.3,0.9c-0.1,0.3-0.2,0.5-0.3,0.7c-0.1,0.2-0.2,0.3-0.2,0.4
				c-0.2,0.3-0.4,0.5-0.7,0.7s-0.5,0.4-0.8,0.5c-0.3,0.1-0.5,0.2-0.8,0.3c-0.3,0.1-0.6,0.1-0.9,0.1c-0.4,0-0.9,0-1.4,0
				c-0.5-0.1-1-0.2-1.5-0.4c-0.1,0-0.1-0.1-0.2-0.1c0,0,0-0.1,0-0.1c0,0,0.1-0.1,0.2-0.1c0.1,0,0.2,0,0.3,0c0.7,0.1,1.4,0.1,2-0.1
				c0.6-0.1,1.2-0.4,1.8-0.7c0.7-0.4,1.3-0.9,1.7-1.4c0.4-0.6,0.7-1.2,0.9-1.9c-0.2-0.1-0.4-0.2-0.7-0.4c-0.2-0.2-0.4-0.3-0.5-0.5
				c0-0.2,0.1-0.4,0.1-0.6C51.3,31.6,51.4,31.4,51.4,31.2z"/>
			<path d="M58.4,36c-0.6,0.2-1.2,0.4-1.7,0.6c-0.5,0.2-1.1,0.4-1.6,0.6c-0.1,0-0.1,0-0.1-0.1c0-0.1,0.1-0.2,0.2-0.4
				c0.1-0.1,0.1-0.2,0.2-0.3c0,0,0.1-0.1,0.1-0.1c0.1-0.1,0.3-0.1,0.6-0.2c0.3-0.1,0.5-0.2,0.8-0.3c0.3-0.1,0.6-0.2,1-0.3
				c0.3-0.1,0.7-0.2,1-0.3c0.1,0,0.1,0,0.1,0.1c0,0.1-0.1,0.1-0.1,0.2s-0.1,0.1-0.1,0.2c0,0.1-0.1,0.1-0.1,0.2
				c0,0.1-0.1,0.1-0.1,0.1C58.5,35.9,58.5,35.9,58.4,36C58.4,35.9,58.4,35.9,58.4,36z"/>
			<path d="M56.5,28.2c-0.1,0-0.1-0.1-0.1-0.1c0,0-0.1-0.1-0.1-0.1c0,0,0,0-0.1-0.1c0,0,0,0,0-0.1c0-0.1,0-0.2,0-0.4
				c0-0.1,0-0.2,0-0.3c0-0.1,0-0.2,0-0.3c0-0.1,0-0.2,0.1-0.3c0-0.1,0.1-0.2,0.2-0.2c0.1,0,0.2,0,0.3,0c0.2,0.1,0.5,0.3,0.8,0.4
				c0.3,0.2,0.6,0.3,0.9,0.5c0.3,0.2,0.6,0.4,1,0.6c0.3,0.2,0.6,0.5,0.9,0.7c0.3,0.3,0.5,0.5,0.7,0.8c0.2,0.3,0.3,0.6,0.3,0.9
				c0,0.2,0,0.4,0,0.6c0,0.2,0,0.4-0.1,0.6c-0.1,0.2-0.1,0.4-0.3,0.5c-0.1,0.2-0.3,0.3-0.4,0.4c-0.1,0.1-0.2,0.1-0.3,0.2
				c-0.1,0-0.2,0-0.3,0c-0.2,0-0.4-0.1-0.6-0.1c-0.2,0-0.5-0.1-0.7-0.1c-0.2,0-0.5-0.1-0.7-0.2c-0.2-0.1-0.5-0.1-0.7-0.2
				c-0.5,0.4-0.9,0.8-1.5,1c-0.5,0.2-1.1,0.4-1.6,0.4h-0.2c-0.2,0-0.3-0.1-0.4-0.2c-0.1-0.1-0.1-0.3-0.1-0.5c0-0.2,0-0.3,0.1-0.5
				c0.1-0.1,0.2-0.2,0.4-0.2H54c0.1,0,0.2,0,0.4,0c0.2,0,0.3,0,0.5-0.1c0.2,0,0.3-0.1,0.5-0.1c0.2,0,0.3-0.1,0.4-0.2
				c-0.1-0.1-0.2-0.3-0.3-0.5c0-0.2-0.1-0.4,0-0.6c0-0.2,0.1-0.4,0.1-0.7c0.1-0.2,0.1-0.5,0.2-0.7c0.1-0.2,0.2-0.4,0.3-0.6
				C56.3,28.5,56.4,28.3,56.5,28.2z M57.3,30.9c0.1,0,0.2,0,0.3-0.1c0.1-0.1,0.2-0.1,0.3-0.2s0.2-0.2,0.3-0.2
				c0.1-0.1,0.1-0.1,0.1-0.2c0-0.1,0-0.3-0.1-0.4c-0.1-0.1-0.2-0.3-0.3-0.4c-0.1-0.1-0.2-0.2-0.4-0.3c-0.1-0.1-0.3-0.1-0.4-0.1
				c-0.1,0-0.2,0.1-0.3,0.2c-0.1,0.1-0.2,0.2-0.3,0.3c-0.1,0.1-0.2,0.3-0.3,0.4c-0.1,0.2-0.1,0.3-0.1,0.5c0,0.1,0,0.2,0.1,0.3
				c0.1,0.1,0.2,0.2,0.3,0.2c0.1,0.1,0.3,0.1,0.4,0.1C57.1,30.9,57.2,30.9,57.3,30.9z M60.8,31.2c0-0.1,0-0.2-0.1-0.3
				c-0.1-0.1-0.2-0.3-0.3-0.4c-0.1-0.1-0.2-0.3-0.4-0.4c-0.1-0.1-0.3-0.3-0.4-0.4c-0.1-0.1-0.3-0.2-0.4-0.3
				c-0.1-0.1-0.2-0.2-0.3-0.2c0,0-0.1,0-0.1,0c0,0,0,0,0,0.1c0.1,0.3,0.1,0.6,0.1,0.9c0,0.3-0.1,0.6-0.2,0.8c0,0,0,0.1,0,0.1
				c0.1,0,0.3,0.1,0.5,0.1c0.2,0,0.4,0.1,0.6,0.1c0.2,0,0.4,0.1,0.6,0.1c0.2,0,0.3,0,0.5,0C60.7,31.3,60.8,31.3,60.8,31.2z"/>
			<path d="M62.7,23.2c0-0.2,0.1-0.4,0.2-0.6c0.1-0.2,0.2-0.4,0.3-0.6c0,0,0,0,0.1,0c0,0,0.1,0,0.1,0c0.1,0.3,0.1,0.7,0.2,1
				c0.1,0.3,0.1,0.7,0.2,1.1c0.1,0.4,0.1,0.8,0.2,1.3c0.1,0.5,0.1,1,0.2,1.6c0,0.4,0.1,0.8,0.1,1.2c0,0.3,0.1,0.6,0.1,0.9
				c0,0.3,0.1,0.5,0.1,0.7c0,0.2,0.1,0.4,0.1,0.7c0.1,0.3,0.1,0.6,0.2,0.8c0.1,0.2,0.2,0.4,0.4,0.5c0.2,0.1,0.3,0.2,0.6,0.3
				c0.2,0.1,0.5,0.1,0.8,0.1h0.1c0.2,0,0.3,0.1,0.4,0.2c0.1,0.1,0.1,0.3,0.1,0.5c0,0.2,0,0.3-0.1,0.5c-0.1,0.1-0.2,0.2-0.4,0.2h-0.1
				c-0.5,0-0.8-0.1-1.1-0.2c-0.3-0.1-0.6-0.3-0.8-0.6s-0.4-0.5-0.5-0.9c-0.1-0.3-0.2-0.7-0.2-1.1c0-0.3-0.1-0.7-0.1-1
				c0-0.4-0.1-0.7-0.1-1.1c0-0.3-0.1-0.7-0.1-1c0-0.3-0.1-0.6-0.1-0.9c-0.1-0.5-0.1-1.1-0.2-1.6c-0.1-0.5-0.2-1.1-0.4-1.7
				C62.7,23.3,62.7,23.3,62.7,23.2C62.7,23.3,62.7,23.2,62.7,23.2z"/>
			<path class="st0" d="M73.5,22.7c-0.3,0.1-0.6,0.3-1,0.4c-0.3,0.1-0.7,0.3-1,0.4c-0.3,0.1-0.6,0.3-0.9,0.4
				c-0.3,0.1-0.5,0.2-0.7,0.3c0,0-0.1,0-0.1,0c0,0,0,0,0-0.1c0,0,0-0.1,0.1-0.2c0-0.1,0.1-0.2,0.1-0.3c0-0.1,0.1-0.2,0.1-0.2
				c0-0.1,0.1-0.1,0.1-0.1c0.1-0.1,0.1-0.1,0.2-0.2l3.4-1.4c0.1,0,0.1,0,0.1,0.1c0,0.1-0.1,0.1-0.1,0.2c0,0.1-0.1,0.1-0.1,0.2
				c0,0.1-0.1,0.1-0.1,0.2c0,0.1-0.1,0.1-0.1,0.2C73.6,22.6,73.6,22.7,73.5,22.7z"/>
			<path class="st0" d="M69,30.4c0.2-0.1,0.3-0.3,0.5-0.5c0.2-0.2,0.4-0.3,0.6-0.5c0.2-0.2,0.4-0.3,0.6-0.4c0.2-0.1,0.4-0.3,0.6-0.4
				c0.3-0.1,0.7-0.2,1-0.2c0.4,0,0.7,0.1,1.1,0.2c0.3,0.1,0.6,0.3,0.9,0.5c0.2,0.2,0.4,0.5,0.5,0.7c0,0.5-0.1,0.9-0.3,1.3
				c-0.2,0.4-0.5,0.7-0.8,0.9c-0.4,0.3-0.9,0.5-1.5,0.7c-0.6,0.2-1.2,0.3-1.9,0.5c-0.6,0.1-1.3,0.2-2,0.3c-0.7,0.1-1.3,0.1-1.9,0.1
				h-0.2c-0.2,0-0.3-0.1-0.4-0.2c-0.1-0.1-0.1-0.3-0.1-0.5c0-0.2,0-0.3,0.1-0.5c0.1-0.1,0.2-0.2,0.4-0.2h0.2c0.1,0,0.2,0,0.3,0
				c0.1,0,0.3,0,0.4,0l1.4-1.2c0.1-0.2,0.2-0.4,0.2-0.7c0-0.3,0-0.7,0-1c0-0.4,0-0.8-0.1-1.2c-0.1-0.4-0.1-0.9-0.2-1.3
				c-0.1-0.4-0.1-0.8-0.2-1.2c-0.1-0.4-0.1-0.8-0.2-1.1c0-0.2-0.1-0.4-0.1-0.7c-0.1-0.2-0.1-0.4-0.3-0.6c0,0,0-0.1,0-0.1
				c0,0,0,0,0,0c0,0,0,0,0,0c0,0,0,0,0-0.1c0.1-0.2,0.2-0.3,0.3-0.5c0.1-0.2,0.2-0.3,0.3-0.5c0,0,0-0.1,0.1-0.1c0,0,0,0,0.1,0.1
				c0.1,0.1,0.1,0.3,0.2,0.4c0.1,0.1,0.1,0.3,0.2,0.4c0.1,0.1,0.2,0.3,0.3,0.4c0.1,0.1,0.2,0.2,0.4,0.3c-0.1,0.1-0.2,0.3-0.2,0.4
				c-0.1,0.1-0.1,0.2-0.2,0.3c0,0.1-0.1,0.2-0.1,0.2c0,0.1,0,0.2,0,0.3c0.1,0.5,0.2,1,0.3,1.5c0.1,0.5,0.1,1,0.2,1.5
				c0,0.5,0,1,0,1.6C69.2,29.4,69.1,29.9,69,30.4z M74,30.7c-0.1-0.2-0.3-0.4-0.5-0.5c-0.2-0.1-0.4-0.2-0.7-0.3
				c-0.2-0.1-0.5-0.1-0.8-0.1c-0.3,0-0.5,0-0.7,0.1c-0.3,0.1-0.6,0.2-0.8,0.3c-0.3,0.2-0.5,0.3-0.8,0.5c-0.3,0.2-0.5,0.4-0.8,0.7
				c-0.3,0.3-0.6,0.5-0.9,0.8c0.5,0,1-0.1,1.6-0.1c0.6-0.1,1.1-0.1,1.7-0.3c0.6-0.1,1.1-0.3,1.6-0.4C73.2,31.1,73.6,30.9,74,30.7z
				 M71.6,25.1l1.1,0.9c0,0,0,0.1,0,0.1L72,27c0,0.1-0.1,0.1-0.1,0l-1.1-0.9c0,0,0-0.1,0-0.1l0.7-0.9C71.5,25,71.5,25,71.6,25.1z"/>
			<path class="st0" d="M83.4,24.9c-0.3,0.1-0.6,0.3-0.9,0.4c-0.3,0.1-0.6,0.3-0.9,0.4c-0.3,0.1-0.6,0.3-0.8,0.4
				c-0.3,0.1-0.5,0.2-0.6,0.3c-0.1,0-0.1,0-0.1-0.1c0-0.1,0-0.1,0.1-0.2c0-0.1,0.1-0.2,0.1-0.2c0-0.1,0.1-0.1,0.1-0.2
				c0-0.1,0.1-0.1,0.1-0.1c0-0.1,0.1-0.1,0.2-0.2l3.3-1.5c0.1,0,0.1,0,0.1,0.1c0,0.1-0.1,0.2-0.2,0.4c-0.1,0.1-0.1,0.3-0.2,0.3
				C83.5,24.8,83.5,24.9,83.4,24.9z M83.5,23.3c-0.3,0.1-0.6,0.3-0.9,0.4c-0.3,0.1-0.6,0.3-0.9,0.4c-0.3,0.1-0.6,0.3-0.8,0.4
				c-0.3,0.1-0.5,0.2-0.6,0.3c-0.1,0-0.1,0-0.1-0.1c0-0.1,0-0.1,0.1-0.2c0-0.1,0.1-0.2,0.1-0.2c0-0.1,0.1-0.1,0.1-0.2
				c0-0.1,0.1-0.1,0.1-0.1c0-0.1,0.1-0.1,0.2-0.2l3.3-1.5c0.1,0,0.1,0,0.1,0.1c0,0.1-0.1,0.2-0.2,0.4c-0.1,0.1-0.1,0.3-0.2,0.3
				C83.6,23.3,83.6,23.3,83.5,23.3z"/>
			<path class="st0" d="M80.4,32.6c0.1-0.1,0.2-0.2,0.4-0.3c0.1,0,0.2-0.1,0.3-0.1c0.1,0,0.2-0.1,0.2-0.1c-0.2-0.2-0.4-0.3-0.5-0.5
				c-0.1-0.2-0.3-0.4-0.3-0.6c-0.1-0.2-0.1-0.5,0.1-0.7c0.1-0.2,0.2-0.4,0.4-0.6c0.2-0.2,0.3-0.4,0.5-0.5c0.2-0.2,0.4-0.3,0.6-0.4
				c0.2-0.1,0.5-0.2,0.7-0.2c0.1,0,0.2,0,0.3,0.1c0.1,0.1,0.2,0.1,0.2,0.2c0.1,0.1,0.1,0.2,0.2,0.3c0,0.1,0.1,0.2,0.1,0.3
				c0.1,0.2,0.1,0.3,0,0.4c0,0,0,0.1-0.1,0.2c0,0.1-0.1,0.2-0.1,0.2c0,0.1-0.1,0.1-0.1,0.2c-0.1,0.1-0.1,0.1-0.2,0.1
				c0,0-0.1,0-0.1,0c0,0,0-0.1-0.1-0.1c0,0,0-0.1,0-0.2c0-0.1,0-0.1,0-0.2c0-0.1-0.1-0.2-0.2-0.3c-0.1-0.1-0.2-0.1-0.3-0.1
				c-0.4,0-0.7,0.1-1,0.4c0.1,0.3,0.3,0.5,0.5,0.8c0.2,0.2,0.5,0.4,0.8,0.4c0.4,0.1,0.8,0.1,1.2,0c0.4-0.1,0.8-0.1,1.2-0.2
				c0,0,0,0.1,0,0.2c0,0.1-0.1,0.2-0.1,0.4c-0.1,0.1-0.1,0.3-0.2,0.4c-0.1,0.1-0.1,0.2-0.1,0.2c-0.4,0-0.7,0.1-1,0.2
				c-0.3,0.1-0.7,0.2-1,0.3c-0.2,0.1-0.4,0.1-0.6,0.2c-0.2,0.1-0.4,0.2-0.6,0.3c-0.2,0.1-0.4,0.2-0.6,0.3c-0.2,0.1-0.4,0.2-0.5,0.3
				c-0.1,0-0.1,0-0.1-0.1c0-0.2,0.1-0.3,0.1-0.5C80.2,32.9,80.3,32.8,80.4,32.6z"/>
			<path d="M87.4,22.1C87.4,22.1,87.4,22.1,87.4,22.1c0.1,0.1,0.1,0.1,0.1,0.1c0,0,0,0.1,0,0.1c0,0,0,0.1,0,0.1c0,0.2,0,0.4,0,0.7
				c0,0.2,0,0.4,0.1,0.6c0.1,0.5,0.1,1.1,0.2,1.6c0.1,0.6,0.2,1.1,0.2,1.7s0.2,1.1,0.2,1.7c0.1,0.6,0.1,1.1,0.2,1.6
				c0,0.2,0,0.4,0,0.7c0,0.3,0,0.6,0,0.8c0,0.3,0,0.6-0.1,0.8c0,0.3-0.1,0.5-0.2,0.7c0,0.1-0.1,0.2-0.2,0.2c0,0-0.1,0-0.1-0.1
				c-0.1-1-0.2-2.1-0.3-3.1c-0.2-1.1-0.3-2.2-0.5-3.3c-0.2-1.1-0.3-2.2-0.4-3.3c0-0.3,0.1-0.6,0.2-0.9c0.1-0.2,0.1-0.3,0.2-0.5
				C87.2,22.3,87.3,22.2,87.4,22.1z"/>
			<path d="M94.1,24.9c-0.3,0.1-0.6,0.3-1,0.4c-0.3,0.1-0.7,0.3-1,0.4c-0.3,0.1-0.6,0.3-0.9,0.4c-0.3,0.1-0.5,0.2-0.7,0.3
				c0,0-0.1,0-0.1,0c0,0,0,0,0-0.1c0,0,0-0.1,0.1-0.2c0-0.1,0.1-0.2,0.1-0.3c0-0.1,0.1-0.2,0.1-0.2c0-0.1,0.1-0.1,0.1-0.1
				c0.1-0.1,0.1-0.1,0.2-0.2l3.4-1.4c0.1,0,0.1,0,0.1,0.1c0,0.1-0.1,0.1-0.1,0.2c0,0.1-0.1,0.1-0.1,0.2s-0.1,0.1-0.1,0.2
				c0,0.1-0.1,0.1-0.1,0.2C94.2,24.8,94.2,24.9,94.1,24.9z"/>
			<path d="M93.5,31.2C93.5,31.1,93.5,31.1,93.5,31.2c0.1,0,0.1,0,0.2,0.1c0.2,0.2,0.4,0.4,0.6,0.5c0.2,0.1,0.4,0.2,0.6,0.3
				c0.2,0.1,0.4,0.1,0.6,0.1c0.2,0,0.4,0,0.6,0h0.2c0.2,0,0.3,0.1,0.4,0.2c0.1,0.1,0.1,0.3,0.1,0.5c0,0.2,0,0.3-0.1,0.5
				c-0.1,0.1-0.2,0.2-0.4,0.2h-0.2c-0.1,0-0.1,0-0.2,0c-0.1,0-0.2,0-0.3,0c-0.1,0-0.2,0-0.3,0c-0.1,0-0.2,0-0.3,0
				c-0.1,0.4-0.2,0.8-0.3,1.2c-0.1,0.4-0.2,0.7-0.3,0.9c-0.1,0.3-0.2,0.5-0.3,0.7c-0.1,0.2-0.2,0.3-0.2,0.4
				c-0.2,0.3-0.4,0.5-0.7,0.7c-0.2,0.2-0.5,0.4-0.8,0.5c-0.3,0.1-0.5,0.2-0.8,0.3c-0.3,0.1-0.6,0.1-0.9,0.1c-0.4,0-0.9,0-1.4,0
				c-0.5-0.1-1-0.2-1.5-0.4c-0.1,0-0.1-0.1-0.2-0.1c0,0,0-0.1,0-0.1c0,0,0.1-0.1,0.2-0.1c0.1,0,0.2,0,0.3,0c0.7,0.1,1.4,0.1,2-0.1
				c0.6-0.1,1.2-0.4,1.8-0.7c0.7-0.4,1.3-0.9,1.7-1.4c0.4-0.6,0.7-1.2,0.9-1.9c-0.2-0.1-0.4-0.2-0.7-0.4c-0.2-0.2-0.4-0.3-0.5-0.5
				c0-0.2,0.1-0.4,0.1-0.6C93.4,31.6,93.4,31.4,93.5,31.2z"/>
			<path d="M100.9,35.5c-0.6,0.2-1.2,0.4-1.7,0.6c-0.5,0.2-1.1,0.4-1.6,0.6c-0.1,0-0.1,0-0.1-0.1c0-0.1,0.1-0.2,0.2-0.4
				s0.1-0.2,0.2-0.3c0,0,0.1-0.1,0.1-0.1c0.1-0.1,0.3-0.1,0.6-0.2c0.3-0.1,0.5-0.2,0.8-0.3c0.3-0.1,0.6-0.2,1-0.3
				c0.3-0.1,0.7-0.2,1-0.3c0.1,0,0.1,0,0.1,0.1c0,0.1-0.1,0.1-0.1,0.2c0,0.1-0.1,0.1-0.1,0.2c0,0.1-0.1,0.1-0.1,0.2
				c0,0.1-0.1,0.1-0.1,0.1C101,35.4,100.9,35.4,100.9,35.5C100.9,35.5,100.9,35.5,100.9,35.5z"/>
			<path d="M96.1,32.1c0.2,0,0.5,0,0.7,0c0.2,0,0.5,0,0.7-0.1c0.2-0.1,0.4-0.1,0.6-0.2c0.2-0.1,0.3-0.2,0.4-0.4
				c0.2-0.3,0.3-0.6,0.4-0.9c0.1-0.3,0.3-0.6,0.5-0.9c0.1-0.1,0.2-0.2,0.3-0.4c0.1-0.1,0.2-0.3,0.4-0.4c0.1-0.1,0.3-0.2,0.4-0.3
				c0.1-0.1,0.3-0.1,0.4-0.1c0.1,0,0.3,0.1,0.4,0.2s0.3,0.2,0.4,0.4c0.1,0.2,0.2,0.3,0.3,0.5c0.1,0.2,0.2,0.4,0.3,0.6
				c0.1,0.2,0.1,0.4,0.2,0.6c0,0.2,0.1,0.3,0,0.5c0,0.1,0,0.3-0.1,0.4c0,0.1-0.1,0.3-0.1,0.4c-0.1,0.1-0.1,0.2-0.2,0.3
				c-0.1,0.1-0.2,0.2-0.3,0.2c-0.1,0-0.3,0.1-0.6,0c-0.2,0-0.5-0.1-0.8-0.1c-0.3-0.1-0.6-0.2-0.8-0.3c-0.3-0.1-0.6-0.3-0.8-0.4
				c-0.2,0.7-0.6,1.2-1,1.5c-0.5,0.3-1,0.5-1.7,0.5h-0.2c-0.2,0-0.3-0.1-0.4-0.2c-0.1-0.1-0.1-0.3-0.1-0.5c0-0.2,0-0.3,0.1-0.5
				c0.1-0.1,0.2-0.2,0.4-0.2H96.1z M101.6,31.1c0,0,0-0.1,0-0.1c0-0.1-0.1-0.2-0.1-0.3c0-0.1-0.1-0.2-0.1-0.3c0-0.1-0.1-0.1-0.1-0.2
				c-0.1-0.1-0.1-0.1-0.2-0.2c-0.1-0.1-0.1-0.1-0.2-0.2c-0.1-0.1-0.1-0.1-0.2-0.1c-0.1,0-0.2,0-0.3,0c-0.1,0-0.2,0-0.3,0.1
				c-0.1,0-0.2,0.1-0.3,0.2c-0.1,0.1-0.1,0.1-0.2,0.2c-0.1,0.1-0.1,0.2-0.1,0.3c0.3,0.3,0.6,0.4,1,0.5
				C100.8,31,101.2,31.1,101.6,31.1z"/>
			<path d="M116.8,16c-0.3,0.1-0.6,0.3-1,0.4c-0.3,0.1-0.7,0.3-1,0.4c-0.3,0.1-0.6,0.3-0.9,0.4c-0.3,0.1-0.5,0.2-0.7,0.3
				c0,0-0.1,0-0.1,0c0,0,0,0,0-0.1c0,0,0-0.1,0.1-0.2c0-0.1,0.1-0.2,0.1-0.3c0-0.1,0.1-0.2,0.1-0.2c0-0.1,0.1-0.1,0.1-0.1
				c0.1-0.1,0.1-0.1,0.2-0.2l3.4-1.4c0.1,0,0.1,0,0.1,0.1c0,0.1-0.1,0.1-0.1,0.2c0,0.1-0.1,0.1-0.1,0.2c0,0.1-0.1,0.1-0.1,0.2
				c0,0.1-0.1,0.1-0.1,0.2C116.9,15.9,116.9,15.9,116.8,16z M115.1,19.3c-0.1,0.3-0.3,0.5-0.4,0.6c-0.2,0.1-0.4,0.2-0.6,0.2
				c-0.2,0-0.4,0-0.5-0.1c-0.1-0.1-0.2-0.3-0.3-0.5c0-0.1,0-0.2,0-0.4c0-0.1,0.1-0.2,0.1-0.4c0-0.1,0.1-0.2,0.2-0.3
				c0.1-0.1,0.1-0.1,0.2-0.2c0.1,0,0.1,0,0,0.2c0,0.1,0,0.1-0.1,0.2c0,0.1,0,0.2,0,0.3c0,0.1,0,0.2,0,0.2c0,0.1,0.1,0.1,0.1,0.1
				c0.1,0.1,0.2,0.1,0.3,0.1c0.1,0,0.2,0,0.3-0.1c0.1,0,0.2-0.1,0.3-0.2c0.1-0.1,0.2-0.1,0.2-0.2c0.1-0.1,0.1-0.2,0.1-0.3
				c0-0.1,0.1-0.2,0.1-0.3c0,0,0-0.1,0-0.1c0,0,0-0.1,0-0.1c0,0,0-0.1,0.1-0.1c0,0,0.1,0,0.1-0.1c0,0,0,0,0.1,0c0,0,0,0.1,0,0.1
				c0,0,0,0.1,0,0.1c0,0,0,0.1,0,0.1c0,0.2,0,0.3,0.1,0.4c0.1,0.1,0.2,0.2,0.3,0.2c0.1,0,0.2,0,0.3,0c0.1,0,0.2-0.1,0.3-0.2
				c0,0,0-0.1,0-0.1c0-0.1,0-0.1,0-0.2c0-0.1,0-0.1,0-0.2c0,0,0-0.1,0-0.1c0,0,0-0.1,0-0.1c0-0.1,0-0.2,0.1-0.2
				c0-0.1,0.1-0.2,0.1-0.2c0-0.1,0.1-0.1,0.1-0.1c0.1,0,0.1,0,0.1,0.1c0,0.1,0.1,0.2,0.1,0.3c0,0.1,0,0.3,0,0.4c0,0.1,0,0.3,0,0.4
				c0,0.1-0.1,0.2-0.1,0.3c0,0.1-0.1,0.2-0.2,0.3c-0.1,0.1-0.1,0.2-0.2,0.2c-0.1,0.1-0.2,0.1-0.3,0.1c-0.2,0-0.4,0-0.5,0
				C115.3,19.5,115.2,19.4,115.1,19.3z"/>
			<path d="M114.4,29.5c0.2-0.6,0.4-1.1,0.5-1.7c0.1-0.6,0.2-1.1,0.2-1.7c0-0.6,0-1.1,0-1.7c0-0.6,0-1.2-0.1-1.7
				c0-0.1-0.1-0.3-0.1-0.4c-0.1-0.1-0.1-0.2-0.2-0.4c0.1-0.2,0.2-0.4,0.4-0.6c0.1-0.2,0.3-0.4,0.4-0.5c0.1-0.1,0.1-0.1,0.2,0
				c0,0.2,0.1,0.3,0.1,0.5c0,0.2,0.1,0.3,0.2,0.5c0.1,0.2,0.1,0.3,0.2,0.4c0.1,0.1,0.2,0.2,0.3,0.3c0,0.1-0.1,0.1-0.1,0.2
				c-0.1,0.1-0.1,0.2-0.2,0.2s-0.1,0.2-0.1,0.3c0,0.1-0.1,0.2-0.1,0.3c0,0.6,0,1.1,0,1.7c0,0.6-0.1,1.2-0.2,1.8
				c-0.1,0.6-0.2,1.1-0.3,1.6c-0.1,0.5-0.3,1-0.5,1.4c0.2,0.3,0.3,0.7,0.5,1c0.1,0.3,0.2,0.7,0.3,1.1c0,0.2,0,0.5-0.1,0.7
				c-0.1,0.2-0.2,0.5-0.3,0.7c-0.2,0-0.5,0.1-0.8,0.1c-0.3,0-0.6,0.1-0.9,0.1c-0.3,0-0.6,0.1-1,0.1c-0.3,0-0.6,0-0.8,0
				c0,0,0-0.1,0-0.2c0-0.1,0-0.2,0-0.3c0-0.1,0-0.3,0.1-0.4c0-0.1,0.1-0.2,0.1-0.3c0-0.1,0.1-0.1,0.2-0.1c0.2,0,0.3,0,0.4-0.1
				c0.1,0,0.2-0.1,0.2-0.1c0.1-0.1,0.2-0.2,0.3-0.4c0.1-0.2,0.3-0.3,0.4-0.6c0.1-0.2,0.3-0.4,0.4-0.6c0.1-0.2,0.2-0.4,0.3-0.6
				c-0.3-0.4-0.6-0.9-0.9-1.4c-0.3-0.5-0.7-1-1-1.5c-0.4-0.5-0.7-0.9-1.1-1.4c-0.4-0.4-0.8-0.8-1.2-1.2c-0.2,0.1-0.4,0.1-0.5,0.1
				c-0.1,0-0.3-0.1-0.5-0.2c-0.2-0.1-0.4-0.2-0.5-0.3c-0.2-0.1-0.3-0.2-0.4-0.4c-0.1-0.1-0.2-0.3-0.2-0.4c0,0,0-0.1,0-0.2
				c0-0.1,0-0.2,0-0.4c0-0.1,0-0.3,0-0.4c0-0.2,0-0.3,0.1-0.4c0-0.1,0.1-0.2,0.1-0.2c0,0,0.1,0,0.3,0.1c0.4,0.3,0.8,0.6,1.2,0.9
				c0.4,0.4,0.8,0.7,1.1,1.2c0.4,0.4,0.7,0.8,1.1,1.3c0.4,0.4,0.7,0.9,1,1.4c0.3,0.5,0.6,0.9,0.9,1.3
				C113.9,28.7,114.2,29.1,114.4,29.5z M113.4,32.7c0.3,0,0.6,0,0.9-0.1c0.3,0,0.5-0.1,0.8-0.1c0-0.1,0-0.2-0.1-0.3
				c0-0.1-0.1-0.3-0.2-0.4c-0.1-0.1-0.1-0.3-0.2-0.4c-0.1-0.1-0.1-0.2-0.2-0.3c-0.2,0.3-0.3,0.6-0.5,0.8
				C113.8,32.1,113.6,32.4,113.4,32.7z"/>
			<path d="M120.7,37.9c-0.6,0.2-1.2,0.4-1.7,0.6c-0.5,0.2-1.1,0.4-1.6,0.6c-0.1,0-0.1,0-0.1-0.1c0-0.1,0.1-0.2,0.2-0.4
				c0.1-0.1,0.1-0.2,0.2-0.3c0,0,0.1-0.1,0.1-0.1c0.1-0.1,0.3-0.1,0.6-0.2c0.3-0.1,0.5-0.2,0.8-0.3c0.3-0.1,0.6-0.2,1-0.3
				c0.3-0.1,0.7-0.2,1-0.3c0.1,0,0.1,0,0.1,0.1c0,0.1-0.1,0.1-0.1,0.2c0,0.1-0.1,0.1-0.1,0.2c0,0.1-0.1,0.1-0.1,0.2
				c0,0.1-0.1,0.1-0.1,0.1C120.8,37.8,120.8,37.9,120.7,37.9C120.7,37.9,120.7,37.9,120.7,37.9z"/>
			<path d="M117.7,35.9c0,0,0.1-0.1,0.1-0.1c0.1,0,0.1-0.1,0.2-0.1c0.1,0,0.1-0.1,0.2-0.1c0.1,0,0.1-0.1,0.2-0.1
				c-0.1-0.1-0.2-0.2-0.3-0.3c-0.1-0.1-0.2-0.3-0.3-0.4c0-0.1,0-0.1,0-0.2s0-0.1,0.1-0.2c0.1-0.1,0.2-0.3,0.3-0.4
				c0.1-0.1,0.2-0.2,0.4-0.4c0.1-0.1,0.3-0.2,0.4-0.3c0.2-0.1,0.3-0.1,0.5-0.1c0.1,0,0.1,0,0.2,0.1c0.1,0,0.1,0.1,0.2,0.1
				c0,0.1,0.1,0.1,0.1,0.2c0,0.1,0.1,0.1,0.1,0.2c0,0.1,0,0.2,0,0.3l-0.1,0.3c-0.1,0.1-0.1,0.2-0.2,0.2c-0.1,0-0.1,0-0.1-0.1
				c0-0.1,0-0.1-0.1-0.2c0-0.1-0.1-0.1-0.2-0.2c-0.1,0-0.1,0-0.2,0c-0.3,0-0.5,0.1-0.7,0.3c0.1,0.2,0.2,0.4,0.4,0.5
				c0.2,0.2,0.4,0.2,0.6,0.3c0.3,0,0.6,0,0.8,0c0.3,0,0.5-0.1,0.8-0.2c0,0,0,0.1,0,0.1c0,0.1-0.1,0.2-0.1,0.3c0,0.1-0.1,0.2-0.1,0.2
				c0,0.1-0.1,0.1-0.1,0.1c-0.2,0-0.5,0.1-0.7,0.1c-0.2,0-0.5,0.1-0.8,0.2c-0.3,0.1-0.5,0.2-0.8,0.3c-0.3,0.1-0.6,0.2-0.8,0.4
				c0,0-0.1,0-0.1-0.1c0-0.1,0.1-0.2,0.1-0.3C117.6,36.1,117.6,36,117.7,35.9z M118.8,21.9C118.8,21.9,118.9,21.9,118.8,21.9
				c0.1,0.1,0.1,0.1,0.1,0.1c0,0,0,0.1,0,0.1s0,0.1,0,0.1c0,0.2,0,0.4,0,0.6c0,0.2,0,0.4,0.1,0.6c0.1,0.5,0.1,1,0.2,1.5
				c0.1,0.5,0.1,1,0.2,1.5c0.1,0.5,0.1,1,0.2,1.5c0.1,0.5,0.1,1,0.2,1.5c0,0.2,0,0.4,0,0.7c0,0.3,0,0.5,0,0.8c0,0.3,0,0.5-0.1,0.7
				c0,0.2-0.1,0.4-0.2,0.6c0,0.1-0.1,0.2-0.2,0.2c0,0-0.1,0-0.1-0.1c-0.1-0.9-0.2-1.9-0.3-2.8c-0.1-1-0.3-2-0.4-3
				c-0.1-1-0.3-2-0.4-3c0-0.2,0.1-0.5,0.2-0.8c0.1-0.2,0.1-0.3,0.2-0.4C118.7,22.1,118.7,22,118.8,21.9z"/>
			<path d="M129,23.8c0,0.2,0,0.4-0.1,0.6c-0.1,0.2-0.1,0.4-0.2,0.5c-0.1,0.1-0.3,0.3-0.4,0.3c-0.2,0.1-0.4,0.1-0.6,0.1
				c-0.3,0-0.6-0.1-0.8-0.3c-0.2-0.2-0.3-0.4-0.3-0.8c0-0.2,0-0.4,0.1-0.6c0-0.2,0.1-0.5,0.2-0.7c0.1-0.2,0.2-0.4,0.4-0.6
				c0.2-0.2,0.4-0.3,0.6-0.3c0.2,0,0.4,0,0.6,0.1c0.1,0.1,0.3,0.3,0.3,0.4c0.1,0.2,0.1,0.4,0.2,0.5C129,23.5,129,23.7,129,23.8z
				 M127.7,23.2c-0.1,0-0.2,0.1-0.3,0.1c-0.1,0.1-0.2,0.1-0.2,0.2c-0.1,0.1-0.1,0.2-0.2,0.3c0,0.1-0.1,0.2-0.1,0.3
				c0,0.1,0,0.2,0.1,0.2c0.1,0.1,0.1,0.1,0.2,0.1c0.1,0,0.2,0,0.3,0.1c0.1,0,0.2,0,0.2,0c0.3,0,0.6-0.2,0.8-0.4c0-0.1,0-0.2,0-0.3
				c0-0.1-0.1-0.2-0.2-0.3c-0.1-0.1-0.2-0.2-0.3-0.2C128,23.2,127.9,23.1,127.7,23.2z"/>
			<path d="M128.6,30.5c0.1,0,0.2,0,0.3,0.1c0.1,0.1,0.2,0.1,0.3,0.2c0.1,0.1,0.2,0.2,0.3,0.3c0.1,0.1,0.2,0.2,0.3,0.3
				c0.2,0.1,0.3,0.3,0.5,0.3c0.2,0.1,0.4,0.2,0.6,0.2c0.2,0,0.4,0.1,0.7,0.1c0.2,0,0.4,0,0.7,0h0.2c0.2,0,0.3,0.1,0.4,0.2
				c0.1,0.1,0.1,0.3,0.1,0.5c0,0.2,0,0.3-0.1,0.5c-0.1,0.1-0.2,0.2-0.4,0.2h-0.2c-0.3,0-0.6,0-0.9,0c-0.4,0-0.8-0.1-1.2-0.2
				c0,0.2,0,0.3-0.1,0.4c0,0.1-0.1,0.2-0.1,0.2c-0.2,0-0.5,0-0.8,0c-0.3-0.1-0.6-0.1-0.9-0.2c-0.3-0.1-0.6-0.2-0.8-0.4
				c-0.2-0.1-0.4-0.3-0.5-0.4c-0.1,0-0.2,0.1-0.4,0.2c-0.1,0.1-0.2,0.2-0.4,0.3c-0.1,0.1-0.2,0.2-0.3,0.4c-0.1,0.1-0.1,0.3-0.1,0.4
				c0,0.2,0,0.5,0.1,0.9c0,0.4,0.1,0.7,0.2,1.1c0.1,0.4,0.1,0.8,0.2,1.2c0.1,0.4,0.1,0.7,0.2,1c0,0.2,0.1,0.5,0.1,0.8
				c0,0.3,0.1,0.6,0.1,0.9c0,0.3,0,0.6,0,0.8c0,0.3,0,0.5-0.1,0.6c0,0.1-0.1,0.1-0.1,0.1c0,0-0.1,0-0.1-0.1c0-0.1-0.1-0.2-0.1-0.4
				c0-0.1,0-0.2-0.1-0.4c0-0.1-0.1-0.3-0.1-0.7c0-0.3-0.1-0.8-0.2-1.4c-0.2-1.1-0.3-2-0.4-2.7c-0.1-0.7-0.2-1.2-0.2-1.6
				c0-0.5,0-1,0.2-1.4c0.1-0.4,0.4-0.7,0.6-1c0.1-0.1,0.2-0.2,0.3-0.3c0.1-0.1,0.3-0.2,0.4-0.4c0.2-0.1,0.3-0.3,0.5-0.4
				c0.2-0.1,0.3-0.2,0.5-0.4c0.2-0.1,0.3-0.2,0.5-0.3C128.4,30.5,128.5,30.5,128.6,30.5z M128.4,31.4c-0.1,0-0.3,0-0.5,0.1
				c-0.2,0.1-0.3,0.2-0.4,0.3c0,0,0,0,0,0.1c0,0,0,0,0,0.1c0.1,0.1,0.3,0.2,0.5,0.2c0.2,0.1,0.4,0.1,0.6,0.2
				c0.2,0.1,0.4,0.1,0.5,0.1c0.2,0,0.3,0,0.4,0c-0.1-0.1-0.2-0.3-0.3-0.4c-0.1-0.1-0.2-0.2-0.3-0.3c-0.1-0.1-0.2-0.2-0.3-0.2
				C128.5,31.5,128.4,31.4,128.4,31.4z"/>
			<path d="M137.3,38.8c-0.6,0.2-1.2,0.4-1.7,0.6c-0.5,0.2-1.1,0.4-1.6,0.6c-0.1,0-0.1,0-0.1-0.1c0-0.1,0.1-0.2,0.2-0.4
				s0.1-0.2,0.2-0.3c0,0,0.1-0.1,0.1-0.1c0.1-0.1,0.3-0.1,0.6-0.2c0.3-0.1,0.5-0.2,0.8-0.3c0.3-0.1,0.6-0.2,1-0.3
				c0.3-0.1,0.7-0.2,1-0.3c0.1,0,0.1,0,0.1,0.1c0,0.1-0.1,0.1-0.1,0.2c0,0.1-0.1,0.1-0.1,0.2c0,0.1-0.1,0.1-0.1,0.2
				c0,0.1-0.1,0.1-0.1,0.1C137.4,38.7,137.4,38.7,137.3,38.8C137.4,38.8,137.3,38.8,137.3,38.8z"/>
			<path d="M136.6,28c0.1,0,0.1,0,0.2,0.1c0.1,0.1,0.1,0.2,0.2,0.3c0,0.1,0.1,0.2,0.1,0.4c0,0.1,0.1,0.3,0.1,0.4c0,0.1,0,0.3,0,0.4
				c0,0.1,0,0.2,0,0.3c0,0.5-0.1,0.9-0.3,1.3c-0.2,0.4-0.4,0.7-0.8,1c0.2,0,0.5-0.1,0.7-0.1c0.3,0,0.5,0,0.8,0c0.3,0,0.5,0,0.7,0
				c0.2,0,0.5,0,0.7,0h0.1c0.2,0,0.3,0.1,0.4,0.2c0.1,0.1,0.1,0.3,0.1,0.5c0,0.2,0,0.3-0.1,0.5c-0.1,0.1-0.2,0.2-0.4,0.2H139l-1.7,0
				c0.2,0.2,0.3,0.4,0.4,0.7c0.1,0.2,0.1,0.5,0.1,0.7c0,0.2,0,0.3-0.1,0.5c0,0.2-0.1,0.4-0.2,0.5c-0.1,0.2-0.2,0.3-0.3,0.4
				c-0.1,0.1-0.3,0.2-0.4,0.2c-0.4,0.1-0.7,0-1.1-0.1c-0.3-0.2-0.6-0.4-0.8-0.6c-0.1-0.1-0.2-0.3-0.3-0.4c-0.1-0.2-0.2-0.3-0.3-0.5
				c-0.1-0.2-0.2-0.4-0.2-0.5c-0.1-0.2-0.1-0.4-0.1-0.6c-0.1,0-0.2,0-0.3,0c-0.1,0-0.2,0-0.2,0.1c-0.1,0-0.2,0-0.2,0
				c-0.1,0-0.1,0-0.1,0c0-0.1,0-0.1,0-0.2c0-0.1,0.1-0.1,0.1-0.2l-0.9,0h-0.2c-0.2,0-0.4-0.1-0.5-0.2c-0.1-0.1-0.1-0.3-0.1-0.5
				c0-0.2,0.1-0.3,0.2-0.5c0.1-0.1,0.2-0.2,0.4-0.2h0.2c0.3,0,0.6,0,0.9,0c0.3,0,0.6,0,0.8-0.1c0.1-0.4,0.2-0.9,0.4-1.3
				c0.2-0.5,0.4-0.9,0.6-1.2c0.1-0.1,0.2-0.3,0.3-0.4c0.1-0.2,0.3-0.3,0.4-0.5c0.1-0.2,0.3-0.3,0.5-0.4S136.5,28,136.6,28z
				 M134.5,32c0.2-0.1,0.3-0.1,0.5-0.2c0.2-0.1,0.4-0.2,0.6-0.3c0.2-0.1,0.4-0.2,0.5-0.4c0.2-0.1,0.3-0.2,0.3-0.4
				c0-0.2,0-0.4-0.1-0.6c0-0.2-0.1-0.4-0.2-0.5c0,0-0.1-0.1-0.1-0.1c0,0-0.1,0-0.1,0c-0.2,0-0.3,0.1-0.5,0.3
				c-0.2,0.2-0.3,0.4-0.5,0.7c-0.1,0.3-0.3,0.5-0.4,0.8C134.6,31.6,134.6,31.8,134.5,32z M134.6,33.7c0.1,0.2,0.2,0.4,0.3,0.6
				c0.1,0.2,0.2,0.3,0.3,0.5c0.1,0.1,0.3,0.3,0.4,0.4c0.2,0.1,0.4,0.2,0.6,0.2c0.1,0,0.2,0,0.3,0c0.1,0,0.2,0,0.3-0.1
				c0.1,0,0.2-0.1,0.3-0.1c0.1-0.1,0.1-0.1,0.1-0.2c0-0.1,0-0.2-0.1-0.3c-0.1-0.1-0.2-0.2-0.4-0.3c-0.2-0.1-0.3-0.2-0.5-0.3
				c-0.2-0.1-0.4-0.1-0.6-0.2c-0.2-0.1-0.4-0.1-0.6-0.1C134.9,33.7,134.7,33.7,134.6,33.7z"/>
			<path d="M142,30.3c0,0.1,0,0.1,0,0.2c0,0.1,0,0.2,0,0.3c0,0.2,0,0.3,0.1,0.5c0.1,0.2,0.2,0.3,0.4,0.4c0.2,0.1,0.4,0.2,0.6,0.3
				c0.2,0.1,0.5,0.1,0.9,0.1h0.2c0.2,0,0.3,0.1,0.4,0.2c0.1,0.1,0.1,0.3,0.1,0.5c0,0.2,0,0.3-0.1,0.5c-0.1,0.1-0.2,0.2-0.4,0.2h-0.2
				c-0.6,0-1.2-0.1-1.5-0.4c-0.4-0.2-0.7-0.6-0.9-1c-0.1,0.3-0.3,0.6-0.5,0.7c-0.2,0.2-0.4,0.3-0.7,0.4c-0.2,0.1-0.5,0.2-0.7,0.2
				s-0.4,0-0.6,0h-0.2c-0.2,0-0.3-0.1-0.4-0.2c-0.1-0.1-0.1-0.3-0.1-0.5c0-0.2,0-0.3,0.1-0.5c0.1-0.1,0.2-0.2,0.4-0.2h0.2
				c0.2,0,0.4,0,0.6,0c0.2,0,0.4,0,0.6-0.1c0.2-0.1,0.4-0.1,0.6-0.2c0.2-0.1,0.4-0.3,0.5-0.4c0.1-0.2,0.2-0.3,0.3-0.4
				c0.1-0.1,0.1-0.3,0.2-0.5c0,0,0-0.1,0-0.1c0,0,0.1,0,0.1,0C141.9,30.3,141.9,30.3,142,30.3C142,30.3,142,30.3,142,30.3z
				 M142.6,37C142.6,37,142.6,37.1,142.6,37c-0.1,0.1-0.1,0-0.2,0l-1-0.8l-0.7,0.9c0,0.1-0.1,0.1-0.1,0l-1.1-0.9c0,0,0-0.1,0-0.1
				l0.7-1c0,0,0-0.1,0.1-0.1c0,0,0,0,0.1,0l1.1,0.8l0.7-0.9c0,0,0.1-0.1,0.1,0l1.1,0.9c0,0,0,0.1,0,0.1L142.6,37z"/>
			<path d="M148.1,35.8c-0.6,0.2-1.2,0.4-1.7,0.6c-0.5,0.2-1.1,0.4-1.6,0.6c-0.1,0-0.1,0-0.1-0.1c0-0.1,0.1-0.2,0.2-0.4
				c0.1-0.1,0.1-0.2,0.2-0.3c0,0,0.1-0.1,0.1-0.1c0.1-0.1,0.3-0.1,0.6-0.2c0.3-0.1,0.5-0.2,0.8-0.3c0.3-0.1,0.6-0.2,1-0.3
				c0.3-0.1,0.7-0.2,1-0.3c0.1,0,0.1,0,0.1,0.1c0,0.1-0.1,0.1-0.1,0.2c0,0.1-0.1,0.1-0.1,0.2c0,0.1-0.1,0.1-0.1,0.2
				c0,0.1-0.1,0.1-0.1,0.1C148.2,35.7,148.2,35.7,148.1,35.8C148.1,35.8,148.1,35.8,148.1,35.8z"/>
			<path d="M144,32.1c0.1,0,0.3,0,0.5,0c0.3,0,0.5,0,0.9-0.1c0.3,0,0.7-0.1,1-0.1c0.4,0,0.7-0.1,1-0.2c0.3-0.1,0.6-0.2,0.9-0.3
				c0.3-0.1,0.4-0.3,0.5-0.4c0-0.1,0-0.2,0-0.3c0-0.1,0-0.2-0.1-0.3c0-0.1-0.1-0.2-0.1-0.3c0-0.1-0.1-0.2-0.1-0.3
				c-0.1,0.1-0.1,0.2-0.2,0.3c-0.1,0.1-0.2,0.2-0.3,0.3c-0.1,0.1-0.2,0.2-0.3,0.2c-0.1,0.1-0.3,0.1-0.4,0.1c-0.2,0-0.3,0-0.5-0.1
				c-0.1,0-0.3-0.1-0.4-0.2c-0.1-0.1-0.2-0.2-0.3-0.3c-0.1-0.1-0.1-0.3-0.2-0.4c0-0.2,0-0.3,0-0.5c0-0.2,0-0.4,0.1-0.6
				c0.1-0.2,0.1-0.4,0.2-0.6c0.1-0.2,0.2-0.4,0.3-0.5c0.1-0.2,0.3-0.3,0.4-0.4c0.2-0.1,0.3-0.1,0.5-0.1c0.2,0,0.3,0.1,0.4,0.2
				c0.1,0.1,0.3,0.2,0.4,0.4c0.1,0.2,0.3,0.3,0.4,0.5c0.1,0.2,0.2,0.4,0.3,0.6c0.1,0.2,0.1,0.4,0.2,0.6c0.1,0.2,0.1,0.4,0.1,0.5
				c0,0.6,0,1.1-0.1,1.6c-0.1,0.5-0.4,0.9-0.7,1.2c-0.2,0.2-0.5,0.3-0.9,0.4c-0.4,0.1-0.8,0.2-1.2,0.3c-0.4,0.1-0.9,0.1-1.3,0.1
				c-0.4,0-0.8,0-1.1,0h-0.2c-0.2,0-0.3-0.1-0.4-0.2c-0.1-0.1-0.1-0.3-0.1-0.5c0-0.2,0-0.3,0.1-0.5c0.1-0.1,0.2-0.2,0.4-0.2H144z
				 M146.6,23.6c0-0.1,0.1-0.1,0.1,0l1,0.9c0,0,0,0,0,0.1c0,0,0,0,0,0.1l-0.7,0.9c0,0-0.1,0.1-0.1,0l-1-0.9c0,0,0,0,0-0.1
				c0,0,0-0.1,0-0.1L146.6,23.6z M148.1,29.1c0-0.1,0-0.1-0.1-0.2c-0.1-0.1-0.1-0.2-0.2-0.2c-0.1-0.1-0.2-0.1-0.3-0.2
				c-0.1,0-0.2-0.1-0.2-0.1c-0.1,0-0.2,0-0.2,0.1c-0.1,0-0.2,0.1-0.2,0.2c-0.1,0.1-0.1,0.2-0.2,0.2c0,0.1-0.1,0.2-0.1,0.2
				c0.1,0.1,0.2,0.2,0.3,0.3c0.1,0.1,0.3,0.1,0.4,0.1c0.2,0,0.3,0,0.4-0.1C148,29.4,148.1,29.3,148.1,29.1z"/>
			<path d="M158.2,39.9c-0.6,0.2-1.2,0.4-1.7,0.6c-0.5,0.2-1.1,0.4-1.6,0.6c-0.1,0-0.1,0-0.1-0.1c0-0.1,0.1-0.2,0.2-0.4
				c0.1-0.1,0.1-0.2,0.2-0.3c0,0,0.1-0.1,0.1-0.1c0.1-0.1,0.3-0.1,0.6-0.2c0.3-0.1,0.5-0.2,0.8-0.3c0.3-0.1,0.6-0.2,1-0.3
				c0.3-0.1,0.7-0.2,1-0.3c0.1,0,0.1,0,0.1,0.1c0,0.1-0.1,0.1-0.1,0.2c0,0.1-0.1,0.1-0.1,0.2c0,0.1-0.1,0.1-0.1,0.2
				c0,0.1-0.1,0.1-0.1,0.1C158.3,39.8,158.3,39.8,158.2,39.9C158.3,39.9,158.2,39.9,158.2,39.9z"/>
			<path d="M158,29.7c0-0.1,0.1-0.1,0.2,0c0.2,0.2,0.4,0.5,0.6,0.8c0.2,0.3,0.4,0.6,0.5,1c0.1,0.3,0.2,0.7,0.3,1
				c0.1,0.4,0.1,0.7,0,1c0,0.3-0.1,0.6-0.2,0.9c-0.1,0.3-0.2,0.6-0.3,0.9c-0.1,0.3-0.3,0.6-0.5,0.9c-0.2,0.3-0.4,0.5-0.6,0.8
				c-0.2,0.2-0.4,0.4-0.7,0.6c-0.2,0.2-0.5,0.3-0.7,0.4c-0.3,0.1-0.7,0.2-1,0.2c-0.4,0-0.7,0-1.1,0c-0.4,0-0.7-0.1-1.1-0.1
				c-0.4-0.1-0.7-0.1-1-0.2c-0.1,0-0.1,0-0.1-0.1c0,0,0-0.1,0-0.1c0,0,0-0.1,0.1-0.1c0,0,0.1,0,0.2,0c0.3,0,0.7,0,1,0
				c0.4,0,0.7-0.1,1-0.2c0.3-0.1,0.7-0.2,1-0.3c0.3-0.1,0.6-0.3,0.9-0.5c0.3-0.2,0.5-0.3,0.8-0.6c0.3-0.2,0.5-0.5,0.7-0.7
				c0.2-0.3,0.4-0.5,0.6-0.8c0.2-0.3,0.3-0.6,0.4-0.9c0-0.2-0.1-0.4-0.2-0.6c-0.1-0.2-0.2-0.5-0.4-0.7c-0.2-0.2-0.3-0.5-0.5-0.7
				c-0.2-0.2-0.3-0.4-0.4-0.5c0-0.2,0.1-0.5,0.1-0.7C157.9,30.1,158,29.9,158,29.7z"/>
			<path d="M161.3,23.2c0-0.2,0.1-0.4,0.2-0.6c0.1-0.2,0.2-0.4,0.3-0.6c0,0,0,0,0.1,0c0,0,0.1,0,0.1,0c0.1,0.3,0.1,0.7,0.2,1
				c0.1,0.3,0.1,0.7,0.2,1.1c0.1,0.4,0.1,0.8,0.2,1.3c0.1,0.5,0.1,1,0.2,1.6c0,0.4,0.1,0.8,0.1,1.2c0,0.3,0.1,0.6,0.1,0.9
				c0,0.3,0.1,0.5,0.1,0.7c0,0.2,0.1,0.4,0.1,0.7c0.1,0.3,0.1,0.6,0.2,0.8c0.1,0.2,0.2,0.4,0.4,0.5s0.3,0.2,0.6,0.3
				c0.2,0.1,0.5,0.1,0.8,0.1h0.1c0.2,0,0.3,0.1,0.4,0.2c0.1,0.1,0.1,0.3,0.1,0.5c0,0.2,0,0.3-0.1,0.5c-0.1,0.1-0.2,0.2-0.4,0.2H165
				c-0.5,0-0.8-0.1-1.1-0.2c-0.3-0.1-0.6-0.3-0.8-0.6c-0.2-0.2-0.4-0.5-0.5-0.9c-0.1-0.3-0.2-0.7-0.2-1.1c0-0.3-0.1-0.7-0.1-1
				c0-0.4-0.1-0.7-0.1-1.1c0-0.3-0.1-0.7-0.1-1c0-0.3-0.1-0.6-0.1-0.9c-0.1-0.5-0.1-1.1-0.2-1.6c-0.1-0.5-0.2-1.1-0.4-1.7
				C161.3,23.3,161.3,23.3,161.3,23.2C161.3,23.3,161.3,23.2,161.3,23.2z"/>
			<path d="M169.7,23.6c-0.3,0.1-0.6,0.3-1,0.4c-0.3,0.1-0.7,0.3-1,0.4c-0.3,0.1-0.6,0.3-0.9,0.4c-0.3,0.1-0.5,0.2-0.7,0.3
				c0,0-0.1,0-0.1,0c0,0,0,0,0-0.1c0,0,0-0.1,0.1-0.2c0-0.1,0.1-0.2,0.1-0.3c0-0.1,0.1-0.2,0.1-0.2c0-0.1,0.1-0.1,0.1-0.1
				c0.1-0.1,0.1-0.1,0.2-0.2l3.4-1.4c0.1,0,0.1,0,0.1,0.1c0,0.1-0.1,0.1-0.1,0.2c0,0.1-0.1,0.1-0.1,0.2c0,0.1-0.1,0.1-0.1,0.2
				c0,0.1-0.1,0.1-0.1,0.2C169.8,23.5,169.8,23.6,169.7,23.6z"/>
			<path d="M170.3,33.1c0,0.1,0,0.1-0.1,0.2c0,0.1-0.1,0.1-0.1,0.2c0,0.1-0.1,0.1-0.1,0.2c0,0-0.1,0.1-0.1,0.1c-0.1,0-0.3,0-0.5,0
				c-0.2,0-0.4-0.1-0.6-0.1c-0.2-0.1-0.4-0.1-0.6-0.2c-0.2-0.1-0.4-0.2-0.6-0.3c-0.2-0.1-0.3-0.2-0.4-0.3c-0.1-0.1-0.2-0.2-0.2-0.4
				c-0.2,0.2-0.3,0.4-0.5,0.5c-0.2,0.1-0.4,0.2-0.5,0.3c-0.2,0.1-0.4,0.1-0.5,0.2s-0.4,0-0.5,0h-0.2c-0.2,0-0.3-0.1-0.4-0.2
				c-0.1-0.1-0.1-0.3-0.1-0.5c0-0.2,0-0.3,0.1-0.5c0.1-0.1,0.2-0.2,0.4-0.2h0.2c0.2,0,0.4,0,0.7,0c0.2,0,0.4,0,0.6-0.1
				c0.2-0.1,0.4-0.2,0.6-0.3c0.2-0.1,0.4-0.3,0.5-0.5c0.1-0.1,0.2-0.2,0.3-0.4c0.1-0.1,0.2-0.2,0.3-0.3c0.1-0.1,0.2-0.2,0.3-0.2
				c0.1-0.1,0.2-0.1,0.3-0.1c0.1,0,0.2,0,0.3,0.1c0.1,0.1,0.3,0.2,0.4,0.3c0.1,0.1,0.2,0.3,0.4,0.4c0.1,0.1,0.2,0.2,0.3,0.3
				c0.3,0.3,0.6,0.5,0.9,0.6c0.3,0.1,0.7,0.2,1.1,0.2h0.2c0.2,0,0.3,0.1,0.4,0.2c0.1,0.1,0.1,0.3,0.1,0.5c0,0.2,0,0.3-0.1,0.5
				c-0.1,0.1-0.2,0.2-0.4,0.2h-0.2c-0.3,0-0.7,0-1-0.1C170.9,33.4,170.6,33.3,170.3,33.1z M167.8,31.6c0.1,0.1,0.3,0.2,0.4,0.3
				c0.2,0.1,0.3,0.1,0.4,0.2c0.1,0.1,0.3,0.1,0.4,0.1c0.1,0,0.2,0.1,0.3,0.1c0,0,0,0,0.1,0c0,0,0,0,0-0.1c-0.1-0.1-0.2-0.2-0.3-0.3
				c-0.1-0.1-0.1-0.2-0.2-0.3c-0.1-0.1-0.1-0.2-0.1-0.3c0-0.1-0.1-0.1-0.1-0.2c-0.1-0.1-0.1-0.1-0.2-0.1c-0.1,0-0.2,0.1-0.4,0.2
				c-0.2,0.1-0.3,0.2-0.4,0.4C167.8,31.5,167.8,31.5,167.8,31.6C167.8,31.6,167.8,31.6,167.8,31.6z"/>
			<path d="M172.8,23.9c-0.1,0-0.1,0,0-0.1c0-0.1,0.1-0.1,0.2-0.2c0.2-0.1,0.4-0.3,0.6-0.4c0.2-0.1,0.4-0.2,0.5-0.4s0.4-0.3,0.5-0.4
				c0.2-0.1,0.3-0.3,0.5-0.5c-0.2,0-0.3-0.1-0.5-0.2c-0.2-0.1-0.3-0.2-0.4-0.4c-0.1-0.1-0.1-0.2-0.1-0.3c0-0.1,0-0.2,0-0.3
				c0.1-0.1,0.1-0.3,0.2-0.5c0.1-0.2,0.2-0.3,0.3-0.4c0.1-0.1,0.2-0.2,0.4-0.3c0.1-0.1,0.3-0.1,0.4-0.1c0.1,0,0.2,0,0.3,0.1
				c0.1,0.1,0.1,0.2,0.2,0.3c0,0.1,0.1,0.2,0.1,0.4c0,0.1,0,0.3,0,0.4c0,0.1,0,0.3,0,0.4c0,0.1,0,0.2,0,0.3c0,0,0,0,0,0.1
				c0.1,0,0.1,0.1,0.1,0.1c0,0,0,0.1,0.1,0.1c0,0.1,0,0.2,0,0.3c0,0.1-0.1,0.2-0.1,0.3c0,0.1-0.1,0.1-0.1,0.1c0,0-0.1,0-0.1-0.1
				c0,0-0.1-0.1-0.1-0.1c0,0-0.1-0.1-0.1-0.1c-0.2,0.2-0.4,0.4-0.5,0.6c-0.2,0.2-0.3,0.3-0.5,0.4c-0.2,0.1-0.4,0.2-0.6,0.3
				c-0.2,0.1-0.4,0.2-0.7,0.3c-0.1,0-0.2,0.1-0.3,0.1C172.9,23.9,172.8,23.9,172.8,23.9z M174.6,20.7c0.1,0.2,0.3,0.3,0.4,0.4
				c0.2,0.1,0.3,0.2,0.5,0.2h0c0-0.1,0-0.1,0-0.2c0-0.1,0-0.2,0-0.2c0-0.1,0-0.2,0-0.2c0-0.1-0.1-0.1-0.1-0.2c0,0-0.1-0.1-0.2-0.1
				c-0.1,0-0.2,0-0.3,0c-0.1,0-0.2,0.1-0.2,0.1C174.7,20.6,174.6,20.6,174.6,20.7z"/>
			<path d="M175.5,28.6C175.5,28.6,175.5,28.6,175.5,28.6c0.1-0.1,0.1,0,0.2,0c0.2,0.2,0.3,0.3,0.4,0.5c0.1,0.2,0.3,0.4,0.4,0.6
				c0.1,0.2,0.2,0.4,0.3,0.7c0.1,0.2,0.1,0.4,0.1,0.7c0,0.1,0,0.2,0,0.3c0,0.1,0,0.3-0.1,0.4c0,0.1-0.1,0.2-0.1,0.4
				c0,0.1-0.1,0.2-0.1,0.3c-0.1,0.1-0.2,0.3-0.4,0.4c-0.2,0.1-0.4,0.2-0.7,0.3c-0.3,0.1-0.5,0.1-0.8,0.2c-0.3,0.1-0.6,0.1-0.9,0.1
				c-0.3,0-0.6,0-0.8,0.1c-0.2,0-0.5,0-0.6,0h-0.2c-0.2,0-0.3-0.1-0.4-0.2c-0.1-0.1-0.1-0.3-0.1-0.5c0-0.2,0-0.3,0.1-0.5
				c0.1-0.1,0.2-0.2,0.4-0.2h0.2c0.1,0,0.2,0,0.4,0c0.2,0,0.4,0,0.7,0c0.3,0,0.5,0,0.8,0c0.3,0,0.6,0,0.8-0.1c0.3,0,0.5-0.1,0.7-0.1
				c0.2,0,0.4-0.1,0.5-0.2c0.1-0.1,0.1-0.1,0.1-0.2c-0.1-0.3-0.2-0.6-0.4-0.9c-0.2-0.2-0.4-0.5-0.7-0.7c0-0.2,0.1-0.4,0.2-0.6
				C175.4,29,175.4,28.8,175.5,28.6z M176.1,26.8C176,26.8,176,26.8,176.1,26.8c-0.1,0.1-0.1,0-0.2,0l-1-0.8l-0.7,0.9
				c0,0.1-0.1,0.1-0.1,0l-1.1-0.9c0,0,0-0.1,0-0.1l0.7-1c0,0,0-0.1,0.1-0.1c0,0,0,0,0.1,0l1.1,0.8l0.7-0.9c0,0,0.1-0.1,0.1,0
				l1.1,0.9c0,0,0,0.1,0,0.1L176.1,26.8z"/>
			<path d="M191.5,19.2c-0.3,0.1-0.6,0.3-1,0.4c-0.3,0.1-0.7,0.3-1,0.4c-0.3,0.1-0.6,0.3-0.9,0.4c-0.3,0.1-0.5,0.2-0.7,0.3
				c0,0-0.1,0-0.1,0c0,0,0,0,0-0.1c0,0,0-0.1,0.1-0.2c0-0.1,0.1-0.2,0.1-0.3c0-0.1,0.1-0.2,0.1-0.2c0-0.1,0.1-0.1,0.1-0.1
				c0.1-0.1,0.1-0.1,0.2-0.2l3.4-1.4c0.1,0,0.1,0,0.1,0.1c0,0.1-0.1,0.1-0.1,0.2c0,0.1-0.1,0.1-0.1,0.2c0,0.1-0.1,0.1-0.1,0.2
				c0,0.1-0.1,0.1-0.1,0.2C191.6,19.1,191.6,19.2,191.5,19.2z"/>
			<path d="M190.2,21.3c0.1,0.6,0.1,1.1,0.2,1.6c0.1,0.5,0.1,1,0.2,1.4c0,0.5,0.1,0.9,0.1,1.3s0.1,0.9,0.1,1.3
				c0.1,0.9,0.2,1.6,0.3,2.1c0.1,0.6,0.2,1,0.3,1.3c0.1,0.3,0.2,0.5,0.3,0.8c0.1,0.2,0.2,0.4,0.4,0.5s0.4,0.2,0.6,0.3
				c0.2,0.1,0.5,0.1,0.9,0.1h0.2c0.2,0,0.3,0.1,0.4,0.2c0.1,0.1,0.1,0.3,0.1,0.5c0,0.2,0,0.3-0.1,0.5c-0.1,0.1-0.2,0.2-0.4,0.2h-0.2
				c-0.3,0-0.6,0-0.9-0.1c-0.3,0-0.5-0.1-0.8-0.3c-0.2-0.1-0.5-0.3-0.7-0.6c-0.2-0.3-0.4-0.6-0.5-1.1c-0.1-0.3-0.1-0.6-0.2-0.8
				c-0.1-0.2-0.1-0.5-0.1-0.7c0-0.2-0.1-0.5-0.1-0.8c0-0.3-0.1-0.6-0.1-1c-0.1,0.4-0.1,0.9-0.3,1.3c-0.1,0.5-0.3,0.9-0.5,1.4
				c-0.2,0.5-0.5,0.9-0.8,1.3c-0.3,0.4-0.7,0.7-1.1,1c-0.6,0.4-1.2,0.7-1.9,0.9c-0.6,0.2-1.3,0.4-2,0.5c-0.1,0-0.2,0-0.3,0
				c-0.1,0-0.1,0-0.1-0.1c0,0,0-0.1,0-0.1c0,0,0.1-0.1,0.1-0.1c1-0.4,1.9-0.9,2.8-1.5c0.9-0.6,1.7-1.2,2.4-2c-0.1-0.3-0.2-0.7-0.3-1
				c-0.2-0.4-0.3-0.7-0.5-1c-0.2-0.3-0.5-0.7-0.7-1c-0.3-0.3-0.5-0.6-0.8-0.9c-0.3-0.3-0.6-0.5-0.9-0.8c-0.3-0.2-0.6-0.4-0.9-0.6
				c-0.1,0.1-0.1,0.2-0.2,0.2c-0.1,0-0.1,0-0.2,0.1c-0.1,0-0.3,0-0.5-0.1c-0.2-0.1-0.4-0.2-0.6-0.3c-0.2-0.1-0.4-0.3-0.5-0.4
				c-0.1-0.2-0.2-0.3-0.2-0.5c0,0,0-0.1,0-0.3c0-0.1,0-0.3,0-0.4c0-0.2,0-0.3,0.1-0.5c0-0.2,0.1-0.3,0.1-0.4c0-0.1,0.1-0.2,0.1-0.2
				c0,0,0.1,0,0.3,0.1c0.4,0.2,0.9,0.5,1.4,0.9c0.5,0.3,0.9,0.7,1.4,1.1c0.5,0.4,0.9,0.9,1.3,1.3c0.4,0.5,0.8,1,1.1,1.4
				c0.3,0.5,0.6,1,0.7,1.5c0.2,0.5,0.3,1,0.3,1.5c0.2-0.3,0.4-0.7,0.5-0.9c0.1-0.3,0.2-0.6,0.3-0.9c0.1-0.3,0.1-0.6,0.1-0.9
				c0-0.3,0-0.6,0-1c0-0.6,0-1.3-0.1-2c-0.1-0.7-0.1-1.3-0.2-2c0-0.1,0-0.2,0-0.4c0-0.1,0.1-0.3,0.1-0.4c0.1-0.1,0.1-0.3,0.2-0.4
				c0.1-0.1,0.1-0.2,0.2-0.3C190.2,21.2,190.2,21.2,190.2,21.3C190.2,21.3,190.2,21.3,190.2,21.3z"/>
			<path d="M197.2,21.2c-0.3,0.1-0.6,0.3-1,0.4c-0.3,0.1-0.7,0.3-1,0.4c-0.3,0.1-0.6,0.3-0.9,0.4c-0.3,0.1-0.5,0.2-0.7,0.3
				c0,0-0.1,0-0.1,0c0,0,0,0,0-0.1c0,0,0-0.1,0.1-0.2c0-0.1,0.1-0.2,0.1-0.3c0-0.1,0.1-0.2,0.1-0.2c0-0.1,0.1-0.1,0.1-0.1
				c0.1-0.1,0.1-0.1,0.2-0.2l3.4-1.4c0.1,0,0.1,0,0.1,0.1c0,0.1-0.1,0.1-0.1,0.2c0,0.1-0.1,0.1-0.1,0.2c0,0.1-0.1,0.1-0.1,0.2
				c0,0.1-0.1,0.1-0.1,0.2C197.4,21.1,197.3,21.2,197.2,21.2z"/>
			<path d="M193.7,32.1c0.1,0,0.3,0,0.5,0c0.2,0,0.4,0,0.7,0c0.3,0,0.5,0,0.8-0.1c0.3,0,0.5-0.1,0.8-0.1c0.3-0.1,0.5-0.1,0.7-0.3
				c0.2-0.1,0.4-0.2,0.5-0.4c0-0.1,0-0.2,0-0.3c0-0.1,0-0.2-0.1-0.3c0-0.1-0.1-0.2-0.1-0.3c0-0.1-0.1-0.2-0.1-0.3
				c-0.1,0.1-0.1,0.2-0.2,0.3c-0.1,0.1-0.2,0.2-0.3,0.3c-0.1,0.1-0.2,0.2-0.3,0.2c-0.1,0.1-0.3,0.1-0.4,0.1c-0.2,0-0.3,0-0.5-0.1
				c-0.1,0-0.3-0.1-0.4-0.2c-0.1-0.1-0.2-0.2-0.3-0.3c-0.1-0.1-0.1-0.3-0.2-0.4c0-0.2,0-0.3,0-0.5c0-0.2,0-0.4,0.1-0.6
				c0.1-0.2,0.1-0.4,0.2-0.6c0.1-0.2,0.2-0.4,0.3-0.5c0.1-0.2,0.3-0.3,0.4-0.4c0.2-0.1,0.3-0.1,0.5-0.1c0.2,0,0.3,0.1,0.4,0.2
				s0.3,0.2,0.4,0.4c0.1,0.2,0.3,0.3,0.4,0.5c0.1,0.2,0.2,0.4,0.3,0.6c0.1,0.2,0.1,0.4,0.2,0.6c0.1,0.2,0.1,0.4,0.1,0.5
				c0,0.3,0,0.6,0,0.8c0,0.3-0.1,0.5-0.1,0.7c-0.1,0.2-0.2,0.5-0.3,0.7s-0.3,0.4-0.4,0.5c-0.2,0.2-0.5,0.3-0.8,0.4
				c-0.3,0.1-0.6,0.2-0.9,0.2c-0.3,0-0.7,0.1-1,0.1c-0.3,0-0.7,0-0.9,0h-0.1c-0.2,0-0.3-0.1-0.4-0.2c-0.1-0.1-0.1-0.3-0.1-0.5
				c0-0.2,0-0.3,0.1-0.5C193.3,32.2,193.4,32.1,193.7,32.1L193.7,32.1z M195.5,23.6c0-0.1,0.1-0.1,0.1,0l1,0.9c0,0,0,0,0,0.1
				c0,0,0,0,0,0.1l-0.7,0.9c0,0-0.1,0.1-0.1,0l-1-0.9c0,0,0,0,0-0.1c0,0,0-0.1,0-0.1L195.5,23.6z M196.9,29.3c0-0.1,0-0.1-0.1-0.2
				c-0.1-0.1-0.1-0.2-0.2-0.2c-0.1-0.1-0.2-0.1-0.3-0.2c-0.1,0-0.2-0.1-0.2-0.1c-0.1,0-0.2,0-0.2,0.1c-0.1,0-0.2,0.1-0.2,0.2
				c-0.1,0.1-0.1,0.2-0.2,0.2c0,0.1-0.1,0.2-0.1,0.2c0.1,0.1,0.2,0.2,0.3,0.3s0.3,0.1,0.4,0.1c0.2,0,0.3,0,0.4-0.1
				C196.7,29.5,196.8,29.4,196.9,29.3z"/>
			<path d="M213.4,29c0,0.1-0.1,0.3-0.2,0.4c-0.2,0.2-0.4,0.4-0.8,0.6c0,0.4-0.1,0.7-0.2,1.1c-0.1,0.3-0.2,0.5-0.3,0.5
				c-0.4-0.4-0.7-0.7-1.1-1c-0.4-0.3-0.8-0.5-1.2-0.5c0,0.4,0.2,0.8,0.6,1.2c0.3,0.3,0.6,0.7,0.9,1c0,0.2-0.3,0.3-1,0.5
				c-0.5,0.1-0.9,0.1-1.2,0.1c-0.5,1.4-1.1,2.7-2,3.9c-0.4,0.5-0.9,1.1-1.5,1.7c-0.8,0.8-1.4,1.2-1.8,1.2c-0.1,0-0.2-0.1-0.2-0.2
				c0-0.1,0.2-0.4,0.7-0.9c0.7-0.8,1.2-1.4,1.5-2.1c0.6-1.1,1-2.3,1.2-3.7c-0.4-0.1-0.7-0.1-0.8-0.2c-0.1-0.1-0.2-0.1-0.2-0.3
				c0.9-0.8,1.4-1.5,1.4-2.2c-0.4,0-0.8,0.2-1.2,0.5c-0.2,0.2-0.6,0.6-1,1c-0.1,0-0.2-0.2-0.4-0.5c-0.1-0.4-0.2-0.7-0.2-1.1
				c-0.4-0.2-0.6-0.4-0.7-0.4c-0.3-0.2-0.4-0.4-0.4-0.6c0-0.1,0.1-0.3,0.2-0.4c0.1-0.1,0.4-0.3,0.8-0.5c0-1.1,0.2-1.6,0.6-1.6
				c0.8,0.9,1.5,1.3,2.2,1.4c0-0.3-0.2-0.8-0.5-1.2c0,0-0.3-0.4-0.9-1c0-0.1,0.1-0.2,0.2-0.2c0.2-0.1,0.4-0.1,0.9-0.2
				c-0.2-1.1-0.6-2.2-1.3-3.3c-0.6-1.1-1.4-2.1-2.2-2.8c-0.1-0.1-0.2-0.2-0.2-0.3c0-0.1,0.1-0.2,0.3-0.2c0.3,0,0.7,0.2,1.3,0.6
				c1.8,1.3,3.2,3.2,4.1,5.8c1.4,0,2.1,0.2,2.1,0.6c-0.4,0.3-0.7,0.7-0.9,1c-0.3,0.4-0.4,0.8-0.4,1.2c0.3,0,0.7-0.2,1-0.5l1.1-1
				c0.2,0,0.4,0.5,0.5,1.4c0,0.1,0,0.2,0,0.3C213,28.4,213.4,28.7,213.4,29z M210.2,25.7c0,0-0.1-0.1-0.4-0.1
				c-0.2,0-0.4-0.1-0.5-0.1h-0.4c-0.1,0-0.2,0-0.3,0.1c-0.4-1.2-0.9-2.4-1.7-3.5c-0.9-1.2-1.8-2.2-3-3c0.8,0.7,1.4,1.6,2,2.6
				c0.7,1.2,1.2,2.5,1.4,3.8c-0.5,0-0.8,0.1-0.8,0.2c0.6,0.5,1,1,1.3,1.5c0.1-0.2,0.2-0.5,0.3-0.7c0,0,0.1-0.1,0.1-0.3
				c0.1-0.2,0.1-0.3,0.2-0.3c0.2,0,0.4,0.5,0.7,1.4c0.2-0.3,0.3-0.7,0.6-0.9C209.8,26.2,209.9,26,210.2,25.7z M206.8,29.8
				c-0.1-0.1-0.5-0.2-1.1-0.4c-0.4-0.1-0.6-0.2-0.6-0.3c0,0,0.3-0.2,0.9-0.4c0.1-0.1,0.4-0.2,0.7-0.3c-0.3-0.1-0.7-0.3-1-0.5
				c-0.1-0.1-0.4-0.3-0.7-0.6c-0.1,0-0.2,0.4-0.2,1.2c-0.6,0.3-0.9,0.6-0.9,0.7c0,0.2,0.3,0.3,0.9,0.6c0,0.8,0.1,1.3,0.3,1.3
				c0,0,0.2-0.2,0.6-0.5C206.2,30.1,206.6,29.9,206.8,29.8z M210.3,32.3c-0.5-0.4-0.9-0.9-1.2-1.4c-0.1,0.2-0.2,0.4-0.3,0.7
				c0,0-0.1,0.2-0.2,0.4c-0.1,0.2-0.2,0.3-0.2,0.3c0,0-0.1-0.1-0.2-0.3c-0.1-0.2-0.1-0.3-0.2-0.3c0-0.1-0.1-0.3-0.3-0.7
				c-0.1,0.3-0.3,0.6-0.5,0.8c-0.2,0.2-0.4,0.4-0.6,0.6c0,0.1,0.3,0.1,0.8,0.3c-0.3,1.3-0.5,2.1-0.6,2.4c-0.5,1.4-1.3,2.8-2.4,4.1
				c1.9-1.3,3.3-3.4,4.3-6.5c0.7,0,1,0,0.9,0C210,32.5,210.3,32.4,210.3,32.3z M209.7,29c0-0.4-0.1-0.7-0.4-0.9
				c-0.2-0.2-0.6-0.3-0.9-0.3c-0.3,0-0.6,0.1-0.9,0.4c-0.3,0.2-0.4,0.5-0.4,0.9c0,0.4,0.1,0.7,0.4,0.9c0.3,0.2,0.6,0.4,0.9,0.4
				c0.4,0,0.7-0.1,0.9-0.4C209.6,29.7,209.7,29.4,209.7,29z M212.8,29c0-0.1-0.1-0.2-0.2-0.3c-0.2-0.1-0.4-0.2-0.7-0.3
				c0-0.4,0-0.7-0.1-0.9c-0.1-0.2-0.1-0.4-0.2-0.4c0,0-0.2,0.2-0.5,0.5c-0.3,0.3-0.7,0.6-1.1,0.7c0.2,0.1,0.4,0.2,0.8,0.4
				c0,0,0.2,0.1,0.6,0.2c0.3,0.1,0.4,0.2,0.4,0.2c0,0.1-0.2,0.2-0.6,0.3c-0.6,0.2-1,0.3-1.1,0.3c0.4,0.1,0.7,0.3,1,0.5
				c0.1,0.1,0.4,0.3,0.6,0.6c0.1,0,0.1-0.1,0.2-0.3c0-0.1,0-0.4,0-0.8C212.5,29.4,212.8,29.1,212.8,29z"/>
		</g>
	</g>
	<rect class="st1" width="242.6" height="62.3"/>
</g>
</svg>
