<?xml version="1.0" encoding="utf-8"?>
<!-- Generator: Adobe Illustrator 19.2.0, SVG Export Plug-In . SVG Version: 6.00 Build 0)  -->
<svg version="1.1" id="Layer_1" xmlns="http://www.w3.org/2000/svg" xmlns:xlink="http://www.w3.org/1999/xlink" x="0px" y="0px"
	 viewBox="0 0 66.3 62" style="enable-background:new 0 0 66.3 62;" xml:space="preserve">
<style type="text/css">
	.st0{fill:none;}
</style>
<g>
	<g>
		<g>
			<path d="M29.3,23.4c0-0.1,0-0.1,0-0.2c0,0,0-0.1,0-0.1c0-0.1,0.1-0.3,0.3-0.7c0.2-0.4,0.5-0.9,0.6-0.9c0.1,0,0.1,0.1,0.2,0.2
				c0.2,0.8,0.5,1.2,0.7,1.5c0,0.1,0.1,0.1,0.1,0.2c0,0,0,0.1,0,0.2c-0.1,0.2-0.3,0.7-0.5,0.9c0.2,1.7,0.4,3.3,0.4,4.6
				c0,0.9-0.1,1.7-0.3,2.3c1.8-1.4,3.5-2.5,4.4-2.5c1.1,0,2.5,0.7,2.5,1.6c0,0.5-0.4,1.8-1,2.6c-1.3,1.6-5.8,2.3-8.1,2.3
				c-0.2,0-0.4,0-0.6,0c-0.5,0-2.6-0.8-3.4-1.6c-0.1-0.1-0.2-0.2-0.2-0.3c0-0.1,0.1-0.1,0.2-0.1c0.3,0,1.9,0.3,3.1,0.3
				c0.3,0,0.5,0,0.8,0c0.4-0.4,0.8-0.8,2-1.7c0-0.4,0-0.7,0-1c0-2.4-0.3-3.9-0.6-5.9C29.6,24.5,29.3,23.8,29.3,23.4z M36.3,31.7
				C36.3,31.7,36.3,31.6,36.3,31.7c-0.4-0.5-1.7-1-2.4-1c-1.2,0-3.1,1.3-4.7,2.7C32.8,33.1,35.7,32.2,36.3,31.7
				C36.3,31.7,36.3,31.7,36.3,31.7z M36.1,24.5c0.1,0,0.1,0.1,0,0.2c-0.2,0.3-0.9,1.1-1.2,1.4c-0.1,0.1-0.1,0.1-0.2,0
				c-0.4-0.2-1.3-0.9-1.5-1.2c-0.1-0.1-0.1-0.1,0-0.2c0.3-0.4,0.8-1,1.1-1.3c0.2-0.2,0.2-0.2,0.3-0.1C34.9,23.6,35.5,24.1,36.1,24.5
				z"/>
		</g>
	</g>
	<rect class="st0" width="66.3" height="62"/>
</g>
</svg>
