<?xml version="1.0" encoding="utf-8"?>
<!-- Generator: Adobe Illustrator 19.2.0, SVG Export Plug-In . SVG Version: 6.00 Build 0)  -->
<svg version="1.1" id="Layer_1" xmlns="http://www.w3.org/2000/svg" xmlns:xlink="http://www.w3.org/1999/xlink" x="0px" y="0px"
	 viewBox="0 0 242.6 62.3" style="enable-background:new 0 0 242.6 62.3;" xml:space="preserve">
<style type="text/css">
	.st0{fill:#F5712E;}
	.st1{fill:none;}
</style>
<g>
	<g>
		<g>
			<path d="M11.5,41c0,0.1-0.1,0.1-0.2,0.1c-0.4,0-1-0.4-1.8-1.1c-0.6-0.5-1-1.1-1.5-1.6c-0.8-1.1-1.5-2.4-2-3.8
				c-1.3,0-1.9-0.2-2-0.5c0.4-0.3,0.6-0.7,0.9-1c0.3-0.4,0.4-0.8,0.4-1.2c-0.3,0-0.7,0.2-1.1,0.6c-0.1,0.1-0.4,0.4-0.9,0.9
				c-0.1,0-0.2-0.1-0.3-0.4c-0.1-0.3-0.2-0.7-0.2-1.2c-0.3-0.2-0.6-0.3-0.8-0.5c-0.2-0.2-0.3-0.3-0.3-0.4c0-0.2,0.1-0.4,0.4-0.7
				c0.1-0.1,0.3-0.3,0.6-0.4c0-0.4,0-0.7,0.1-1.1c0.1-0.3,0.2-0.5,0.3-0.5c0.4,0.4,0.7,0.7,1,0.9c0.4,0.3,0.8,0.5,1.2,0.5
				c0-0.4-0.2-0.8-0.5-1.2c-0.3-0.3-0.6-0.7-0.9-1c0-0.2,0.3-0.3,0.9-0.5c0.4-0.1,0.8-0.2,1.1-0.2C6.9,24,8.2,22,9.8,20.6
				c0.6-0.5,0.9-0.7,1.2-0.7c0.1,0,0.2,0.1,0.2,0.2c0,0.1-0.2,0.4-0.7,0.9c-1.4,1.7-2.2,3.6-2.5,5.7c0.4,0.1,0.7,0.1,0.8,0.2
				c0.1,0.1,0.2,0.2,0.2,0.3c-0.4,0.3-0.7,0.7-0.9,1c-0.3,0.4-0.4,0.8-0.4,1.2c0.4,0,0.7-0.2,1.1-0.5c0.2-0.2,0.5-0.6,1-1
				c0.2,0,0.3,0.2,0.4,0.7c0.1,0.4,0.1,0.7,0.1,0.9c0.7,0.3,1,0.7,1,1c0,0.3-0.3,0.6-0.9,1c0,0.6-0.1,1.1-0.2,1.3
				c-0.1,0.2-0.2,0.2-0.3,0.3c-0.7-0.9-1.4-1.3-2.1-1.4c0,0.3,0.2,0.8,0.5,1.2c0.1,0.2,0.4,0.5,0.9,1c0,0.1-0.1,0.1-0.2,0.2
				c-0.1,0.1-0.4,0.1-0.9,0.3c0.2,1.1,0.6,2.2,1.2,3.3c0.6,1.1,1.3,2.1,2.1,2.8C11.4,40.7,11.5,40.8,11.5,41z M5,31.4
				c-0.2-0.1-0.4-0.2-0.8-0.3c0,0-0.2-0.1-0.5-0.2c-0.3-0.1-0.4-0.2-0.4-0.3c0,0,0.3-0.2,1-0.3c0.1-0.1,0.3-0.2,0.7-0.3
				c-0.4-0.1-0.7-0.3-0.9-0.5c-0.1-0.1-0.3-0.4-0.6-0.6c-0.1,0-0.1,0.1-0.1,0.3c0,0.2,0,0.4,0,0.8c-0.6,0.3-0.9,0.6-0.9,0.7
				c0,0.1,0.1,0.2,0.3,0.3c0.2,0.1,0.4,0.2,0.6,0.3c0,0.1,0,0.4,0.1,0.7c0.1,0.4,0.1,0.6,0.2,0.6l0.7-0.7C4.4,31.6,4.7,31.5,5,31.4z
				 M10.4,20.7c-1.7,1.2-3.1,3.4-4.1,6.5c-0.7,0-1.1,0-1.3,0.1c-0.2,0-0.3,0.1-0.3,0.2c0.5,0.4,0.9,0.9,1.1,1.4
				c0.1-0.3,0.3-0.5,0.4-0.6c0.1-0.2,0.2-0.5,0.3-0.7c0,0,0.1,0.1,0.1,0.3c0,0.2,0.1,0.3,0.1,0.3c0.1,0.1,0.2,0.3,0.4,0.7
				c0.1-0.3,0.3-0.6,0.5-0.9c0.1-0.1,0.3-0.4,0.6-0.6c0-0.1-0.1-0.1-0.3-0.2c-0.1,0-0.3,0-0.5-0.1c0.3-1.2,0.5-2,0.6-2.4
				C8.5,23.4,9.2,22.1,10.4,20.7z M10.8,40.5C10.1,39.9,9.4,39,8.9,38c-0.6-1.2-1.1-2.5-1.3-3.8c0.5,0,0.8-0.1,0.8-0.2
				c-0.5-0.5-0.9-1-1.2-1.5c-0.1,0.2-0.2,0.4-0.3,0.7c0,0-0.1,0.2-0.2,0.4c-0.1,0.2-0.1,0.3-0.2,0.3c-0.2,0-0.4-0.4-0.6-1.3
				c-0.2,0.4-0.4,0.7-0.5,0.9C5.2,33.6,5,33.8,4.8,34c0,0,0.1,0.1,0.3,0.1c0.1,0,0.3,0.1,0.6,0.1c0.1,0,0.3,0,0.3,0
				c0.1,0,0.2,0,0.3,0C7.2,37,8.7,39.1,10.8,40.5z M7.8,30.7c0-0.4-0.1-0.7-0.4-0.9c-0.2-0.2-0.5-0.4-0.9-0.4
				c-0.4,0-0.6,0.1-0.9,0.4c-0.2,0.2-0.4,0.6-0.4,0.9c0,0.3,0.1,0.6,0.4,0.9c0.3,0.2,0.5,0.4,0.9,0.4c0.4,0,0.7-0.1,0.9-0.4
				C7.6,31.3,7.8,31,7.8,30.7z M10.7,30.6c0-0.2-0.3-0.3-0.9-0.6c0-0.4,0-0.7-0.1-0.9c-0.1-0.2-0.1-0.4-0.1-0.4
				c-0.1,0.1-0.3,0.3-0.7,0.7c-0.3,0.3-0.5,0.4-0.8,0.6c0.1,0,0.4,0.2,1,0.4c0.4,0.1,0.6,0.3,0.6,0.3c0,0.1-0.2,0.2-0.6,0.3
				c-0.3,0.1-0.7,0.2-1,0.3c0.3,0.1,0.6,0.3,0.9,0.5c0.1,0.1,0.3,0.3,0.6,0.6c0.1,0,0.2-0.4,0.2-1.2C10.4,30.9,10.7,30.7,10.7,30.6z
				"/>
			<path d="M19.5,41.2c-0.6,0.2-1.1,0.4-1.7,0.6c-0.5,0.2-1,0.4-1.6,0.6c-0.1,0-0.1,0-0.1-0.1c0-0.1,0.1-0.2,0.2-0.4
				c0.1-0.1,0.1-0.2,0.2-0.3c0,0,0.1-0.1,0.1-0.1c0.1-0.1,0.3-0.1,0.6-0.2c0.2-0.1,0.5-0.2,0.8-0.3c0.3-0.1,0.6-0.2,0.9-0.3
				c0.3-0.1,0.6-0.2,0.9-0.3c0.1,0,0.1,0,0.1,0.1c0,0.1-0.1,0.1-0.1,0.2c0,0.1-0.1,0.1-0.1,0.2c0,0.1-0.1,0.1-0.1,0.2
				c0,0.1-0.1,0.1-0.1,0.1C19.6,41.1,19.6,41.2,19.5,41.2C19.6,41.2,19.6,41.2,19.5,41.2z"/>
			<path d="M19.4,31.1c0-0.1,0.1-0.1,0.2,0c0.2,0.2,0.4,0.5,0.6,0.8c0.2,0.3,0.3,0.6,0.5,1c0.1,0.3,0.2,0.7,0.3,1
				c0.1,0.4,0.1,0.7,0,1c0,0.3-0.1,0.6-0.2,0.9c-0.1,0.3-0.2,0.6-0.3,0.9c-0.1,0.3-0.3,0.6-0.5,0.9c-0.2,0.3-0.4,0.5-0.6,0.8
				c-0.2,0.2-0.4,0.4-0.6,0.6c-0.2,0.2-0.5,0.3-0.7,0.4c-0.3,0.1-0.6,0.2-1,0.2c-0.3,0-0.7,0-1,0c-0.4,0-0.7-0.1-1-0.1
				c-0.3-0.1-0.6-0.1-0.9-0.2c-0.1,0-0.1,0-0.1-0.1c0,0,0-0.1,0-0.1c0,0,0-0.1,0.1-0.1c0,0,0.1,0,0.1,0c0.3,0,0.7,0,1,0
				c0.3,0,0.7-0.1,1-0.2c0.3-0.1,0.6-0.2,1-0.3c0.3-0.1,0.6-0.3,0.9-0.5c0.3-0.2,0.5-0.3,0.8-0.6c0.2-0.2,0.5-0.5,0.7-0.7
				c0.2-0.3,0.4-0.5,0.6-0.8c0.2-0.3,0.3-0.6,0.4-0.9c0-0.2-0.1-0.4-0.2-0.6c-0.1-0.2-0.2-0.5-0.4-0.7c-0.1-0.2-0.3-0.5-0.4-0.7
				s-0.3-0.4-0.4-0.5c0-0.2,0.1-0.5,0.1-0.7C19.3,31.5,19.3,31.3,19.4,31.1z"/>
			<path d="M26.7,34.9l-0.8,0c-0.2,0-0.5,0-0.7-0.1c-0.2-0.1-0.4-0.2-0.5-0.3c-0.2-0.1-0.3-0.3-0.4-0.5c-0.1-0.2-0.1-0.4-0.1-0.7
				c0-0.1,0-0.2,0.1-0.4c0-0.2,0.1-0.3,0.2-0.5c0.1-0.2,0.2-0.3,0.3-0.5c0.1-0.2,0.2-0.3,0.3-0.4c0.1-0.1,0.2-0.2,0.4-0.3
				c0.1-0.1,0.2-0.1,0.4-0.1c0.2,0,0.4,0.1,0.5,0.2c0.2,0.2,0.3,0.4,0.5,0.6c0.1,0.2,0.2,0.5,0.3,0.7c0.1,0.3,0.1,0.5,0.2,0.7l0.7,0
				h0.2c0.2,0,0.3,0.1,0.4,0.2c0.1,0.1,0.1,0.3,0.1,0.5c0,0.2,0,0.3-0.1,0.5c-0.1,0.1-0.2,0.2-0.4,0.2H28l-0.7,0
				c-0.1,0.5-0.2,1-0.4,1.4c-0.1,0.5-0.3,0.9-0.5,1.3c-0.2,0.4-0.5,0.7-0.7,1c-0.3,0.3-0.6,0.5-1.1,0.7c-0.3,0.1-0.6,0.1-1,0.2
				c-0.4,0-0.7,0-1.1,0c-0.4,0-0.7-0.1-1.1-0.1c-0.4-0.1-0.7-0.1-1-0.2c-0.1,0-0.1-0.1-0.1-0.1c0,0,0-0.1,0-0.1
				c0-0.1,0.1-0.1,0.1-0.1c0.1,0,0.1,0,0.2,0c0.3,0,0.6,0,1,0c0.3,0,0.7,0,1-0.1c0.3,0,0.7-0.1,1-0.2c0.3-0.1,0.6-0.2,0.9-0.4
				c0.3-0.2,0.6-0.4,0.8-0.6c0.2-0.2,0.5-0.5,0.7-0.8c0.2-0.3,0.4-0.6,0.5-0.9C26.5,35.5,26.6,35.2,26.7,34.9z M25.5,32.6
				c-0.1,0-0.1,0-0.2,0.1c-0.1,0.1-0.1,0.1-0.2,0.2C25,32.9,25,33,25,33.1c0,0.1-0.1,0.1-0.1,0.2c0,0.1,0.1,0.1,0.3,0.2
				c0.1,0,0.3,0.1,0.5,0.1c0.2,0,0.3,0,0.5,0c0.2,0,0.3,0,0.4,0c0,0,0-0.1-0.1-0.2c-0.1-0.1-0.1-0.2-0.2-0.3
				c-0.1-0.1-0.2-0.2-0.3-0.3C25.7,32.7,25.6,32.6,25.5,32.6z"/>
			<path d="M29.3,26.1c-0.1,0-0.1,0,0-0.1c0-0.1,0.1-0.1,0.2-0.2c0.2-0.1,0.4-0.3,0.5-0.4c0.2-0.1,0.3-0.2,0.5-0.4
				c0.2-0.1,0.3-0.3,0.5-0.4c0.2-0.1,0.3-0.3,0.5-0.5c-0.1,0-0.3-0.1-0.5-0.2c-0.2-0.1-0.3-0.2-0.4-0.4c-0.1-0.1-0.1-0.2-0.1-0.3
				c0-0.1,0-0.2,0-0.3c0.1-0.1,0.1-0.3,0.2-0.5c0.1-0.2,0.2-0.3,0.3-0.4s0.2-0.2,0.4-0.3c0.1-0.1,0.3-0.1,0.4-0.1
				c0.1,0,0.2,0,0.3,0.1c0.1,0.1,0.1,0.2,0.2,0.3c0,0.1,0.1,0.2,0.1,0.4c0,0.1,0,0.3,0,0.4c0,0.1,0,0.3,0,0.4c0,0.1,0,0.2,0,0.3
				c0,0,0,0,0,0.1c0.1,0,0.1,0.1,0.1,0.1c0,0,0,0.1,0.1,0.1c0,0.1,0,0.2,0,0.3c0,0.1-0.1,0.2-0.1,0.3c0,0.1-0.1,0.1-0.1,0.1
				c0,0-0.1,0-0.1-0.1c0,0,0-0.1-0.1-0.1c0,0-0.1-0.1-0.1-0.1c-0.2,0.2-0.3,0.4-0.5,0.6c-0.2,0.2-0.3,0.3-0.5,0.4
				c-0.2,0.1-0.4,0.2-0.5,0.3c-0.2,0.1-0.4,0.2-0.7,0.3c-0.1,0-0.2,0.1-0.3,0.1C29.4,26.1,29.4,26.1,29.3,26.1z M31.1,22.9
				c0.1,0.2,0.2,0.3,0.4,0.4c0.2,0.1,0.3,0.2,0.4,0.2h0c0-0.1,0-0.1,0-0.2c0-0.1,0-0.2,0-0.2c0-0.1,0-0.2,0-0.2
				c0-0.1-0.1-0.1-0.1-0.2c0,0-0.1-0.1-0.2-0.1c-0.1,0-0.2,0-0.2,0c-0.1,0-0.2,0.1-0.2,0.1C31.1,22.8,31.1,22.8,31.1,22.9z"/>
			<path d="M28,33.5c0.2,0,0.5,0,0.7,0c0.2,0,0.4,0,0.6-0.1c0.2-0.1,0.4-0.1,0.5-0.2c0.2-0.1,0.3-0.2,0.4-0.4
				c0.2-0.3,0.3-0.6,0.4-0.9c0.1-0.3,0.3-0.6,0.5-0.9c0.1-0.1,0.2-0.2,0.3-0.4c0.1-0.1,0.2-0.3,0.3-0.4c0.1-0.1,0.2-0.2,0.4-0.3
				c0.1-0.1,0.3-0.1,0.4-0.1c0.1,0,0.3,0.1,0.4,0.2c0.1,0.1,0.3,0.2,0.4,0.4c0.1,0.2,0.2,0.3,0.3,0.5c0.1,0.2,0.2,0.4,0.3,0.6
				s0.1,0.4,0.2,0.6c0,0.2,0.1,0.3,0,0.5c0,0.1,0,0.3,0,0.4c0,0.1-0.1,0.3-0.1,0.4c0,0.1-0.1,0.2-0.2,0.3c-0.1,0.1-0.2,0.2-0.3,0.2
				c-0.1,0-0.3,0.1-0.5,0c-0.2,0-0.5-0.1-0.7-0.1c-0.3-0.1-0.5-0.2-0.8-0.3c-0.3-0.1-0.5-0.3-0.8-0.4c-0.2,0.7-0.5,1.2-1,1.5
				c-0.4,0.3-1,0.5-1.7,0.5h-0.2c-0.2,0-0.3-0.1-0.4-0.2c-0.1-0.1-0.1-0.3-0.1-0.5c0-0.2,0-0.3,0.1-0.5c0.1-0.1,0.2-0.2,0.4-0.2H28z
				 M33.2,32.4c0,0,0-0.1,0-0.1c0-0.1-0.1-0.2-0.1-0.3c0-0.1-0.1-0.2-0.1-0.3c0-0.1-0.1-0.1-0.1-0.2c0-0.1-0.1-0.1-0.2-0.2
				c-0.1-0.1-0.1-0.1-0.2-0.2c-0.1-0.1-0.1-0.1-0.2-0.1c-0.1,0-0.2,0-0.3,0c-0.1,0-0.2,0-0.3,0.1c-0.1,0-0.2,0.1-0.2,0.2
				c-0.1,0.1-0.1,0.1-0.2,0.2c-0.1,0.1-0.1,0.2-0.1,0.3c0.3,0.3,0.6,0.4,1,0.5C32.5,32.4,32.8,32.4,33.2,32.4z"/>
			<path d="M35.1,18.9c-0.1,0-0.1,0,0-0.1c0-0.1,0.1-0.1,0.2-0.2c0.2-0.1,0.4-0.3,0.5-0.4c0.2-0.1,0.3-0.2,0.5-0.4
				c0.2-0.1,0.3-0.3,0.5-0.4c0.2-0.1,0.3-0.3,0.5-0.5c-0.1,0-0.3-0.1-0.5-0.2c-0.2-0.1-0.3-0.2-0.4-0.4c-0.1-0.1-0.1-0.2-0.1-0.3
				c0-0.1,0-0.2,0-0.3c0.1-0.1,0.1-0.3,0.2-0.5c0.1-0.2,0.2-0.3,0.3-0.4c0.1-0.1,0.2-0.2,0.4-0.3c0.1-0.1,0.3-0.1,0.4-0.1
				c0.1,0,0.2,0,0.3,0.1c0.1,0.1,0.1,0.2,0.2,0.3c0,0.1,0.1,0.2,0.1,0.4c0,0.1,0,0.3,0,0.4c0,0.1,0,0.3,0,0.4c0,0.1,0,0.2,0,0.3
				c0,0,0,0,0,0.1c0.1,0,0.1,0.1,0.1,0.1c0,0,0,0.1,0.1,0.1c0,0.1,0,0.2,0,0.3c0,0.1-0.1,0.2-0.1,0.3c0,0.1-0.1,0.1-0.1,0.1
				c0,0-0.1,0-0.1-0.1c0,0,0-0.1-0.1-0.1c0,0-0.1-0.1-0.1-0.1c-0.2,0.2-0.3,0.4-0.5,0.6c-0.2,0.2-0.3,0.3-0.5,0.4
				c-0.2,0.1-0.4,0.2-0.5,0.3c-0.2,0.1-0.4,0.2-0.7,0.3c-0.1,0-0.2,0.1-0.3,0.1C35.2,18.9,35.1,18.9,35.1,18.9z M36.9,15.6
				c0.1,0.2,0.2,0.3,0.4,0.4c0.2,0.1,0.3,0.2,0.4,0.2h0c0-0.1,0-0.1,0-0.2c0-0.1,0-0.2,0-0.2c0-0.1,0-0.2,0-0.2
				c0-0.1-0.1-0.1-0.1-0.2c0,0-0.1-0.1-0.2-0.1c-0.1,0-0.2,0-0.2,0c-0.1,0-0.2,0.1-0.2,0.1S36.9,15.6,36.9,15.6z"/>
			<path d="M43.7,19.4c0,0.2,0,0.4-0.1,0.6c0,0.2-0.1,0.4-0.2,0.5c-0.1,0.1-0.2,0.3-0.4,0.3c-0.2,0.1-0.4,0.1-0.6,0.1
				c-0.3,0-0.5-0.1-0.7-0.3c-0.2-0.2-0.3-0.4-0.3-0.8c0-0.2,0-0.4,0.1-0.6c0-0.2,0.1-0.5,0.2-0.7c0.1-0.2,0.2-0.4,0.4-0.6
				c0.2-0.2,0.3-0.3,0.6-0.3c0.2,0,0.4,0,0.5,0.1c0.1,0.1,0.2,0.3,0.3,0.4c0.1,0.2,0.1,0.4,0.2,0.5C43.6,19.1,43.7,19.3,43.7,19.4z
				 M42.4,18.8c-0.1,0-0.2,0.1-0.3,0.1C42.1,19,42,19,41.9,19.1c-0.1,0.1-0.1,0.2-0.2,0.3c0,0.1-0.1,0.2-0.1,0.3s0,0.2,0.1,0.2
				c0,0.1,0.1,0.1,0.2,0.1c0.1,0,0.2,0,0.2,0.1c0.1,0,0.2,0,0.2,0c0.3,0,0.6-0.2,0.8-0.4c0-0.1,0-0.2,0-0.3c0-0.1-0.1-0.2-0.2-0.3
				c-0.1-0.1-0.2-0.2-0.3-0.2C42.7,18.8,42.6,18.8,42.4,18.8z"/>
			<path d="M35.4,21.9c0,0,0.1-0.1,0.1-0.1c0.1,0,0.1-0.1,0.2-0.1c0.1,0,0.1-0.1,0.2-0.1c0.1,0,0.1-0.1,0.2-0.1
				c-0.1-0.1-0.2-0.2-0.3-0.3c-0.1-0.1-0.2-0.3-0.2-0.4c0-0.1,0-0.1,0-0.2c0-0.1,0-0.2,0.1-0.2c0.1-0.1,0.2-0.3,0.3-0.4
				c0.1-0.1,0.2-0.3,0.4-0.4c0.1-0.1,0.3-0.2,0.4-0.3c0.1-0.1,0.3-0.1,0.5-0.1c0.1,0,0.1,0,0.2,0.1c0.1,0,0.1,0.1,0.1,0.1
				c0,0.1,0.1,0.1,0.1,0.2c0,0.1,0.1,0.1,0.1,0.2c0,0.1,0,0.2,0,0.3l-0.1,0.3c-0.1,0.1-0.1,0.2-0.2,0.2c-0.1,0-0.1,0-0.1-0.1
				c0-0.1,0-0.1-0.1-0.2c0-0.1-0.1-0.1-0.2-0.2c-0.1,0-0.1,0-0.2,0c-0.3,0-0.5,0.1-0.7,0.3c0.1,0.2,0.2,0.4,0.4,0.5
				c0.2,0.2,0.3,0.3,0.6,0.3c0.3,0,0.5,0,0.8,0c0.2,0,0.5-0.1,0.8-0.2c0,0,0,0.1,0,0.1c0,0.1-0.1,0.2-0.1,0.3c0,0.1-0.1,0.2-0.1,0.3
				c0,0.1-0.1,0.1-0.1,0.1c-0.2,0-0.4,0.1-0.7,0.1c-0.2,0-0.5,0.1-0.7,0.2c-0.3,0.1-0.5,0.2-0.8,0.3c-0.3,0.1-0.5,0.2-0.8,0.4
				c0,0-0.1,0-0.1-0.1c0-0.1,0.1-0.2,0.1-0.3C35.3,22.1,35.3,22,35.4,21.9z M42.1,30.9c0.2-0.6,0.3-1.1,0.4-1.7
				c0.1-0.6,0.1-1.1,0.2-1.7c0-0.6,0-1.1,0-1.7c0-0.6,0-1.2-0.1-1.7c0-0.1-0.1-0.3-0.1-0.4c-0.1-0.1-0.1-0.2-0.2-0.4
				c0.1-0.2,0.2-0.4,0.4-0.6c0.1-0.2,0.2-0.4,0.4-0.5c0.1-0.1,0.1-0.1,0.2,0c0,0.2,0.1,0.3,0.1,0.5c0,0.2,0.1,0.3,0.2,0.5
				c0.1,0.2,0.1,0.3,0.2,0.4c0.1,0.1,0.2,0.2,0.3,0.3c0,0.1-0.1,0.1-0.1,0.2c-0.1,0.1-0.1,0.2-0.2,0.2c-0.1,0.1-0.1,0.2-0.1,0.3
				c0,0.1-0.1,0.2-0.1,0.3c0,0.6,0,1.1,0,1.7c0,0.6-0.1,1.2-0.2,1.8c-0.1,0.6-0.2,1.1-0.3,1.6c-0.1,0.5-0.3,1-0.5,1.4
				c0.2,0.3,0.3,0.7,0.4,1c0.1,0.3,0.2,0.7,0.3,1.1c0,0.2,0,0.5-0.1,0.7c-0.1,0.2-0.1,0.5-0.3,0.7c-0.2,0-0.4,0.1-0.7,0.1
				c-0.3,0-0.6,0.1-0.9,0.1c-0.3,0-0.6,0.1-0.9,0.1c-0.3,0-0.6,0-0.8,0c0,0,0-0.1,0-0.2c0-0.1,0-0.2,0-0.3c0-0.1,0-0.3,0.1-0.4
				c0-0.1,0.1-0.2,0.1-0.3c0-0.1,0.1-0.1,0.2-0.1c0.2,0,0.3,0,0.4-0.1c0.1,0,0.2-0.1,0.2-0.1c0.1-0.1,0.2-0.2,0.3-0.4
				c0.1-0.2,0.2-0.3,0.4-0.6s0.3-0.4,0.4-0.6c0.1-0.2,0.2-0.4,0.3-0.6c-0.3-0.4-0.5-0.9-0.9-1.4c-0.3-0.5-0.6-1-1-1.5
				c-0.3-0.5-0.7-0.9-1.1-1.4c-0.4-0.4-0.7-0.8-1.1-1.2c-0.2,0.1-0.3,0.1-0.5,0.1c-0.1,0-0.3-0.1-0.4-0.2c-0.2-0.1-0.3-0.2-0.5-0.3
				c-0.2-0.1-0.3-0.2-0.4-0.4c-0.1-0.1-0.2-0.3-0.2-0.4c0,0,0-0.1,0-0.2c0-0.1,0-0.2,0-0.4c0-0.1,0-0.3,0-0.4c0-0.2,0-0.3,0.1-0.4
				c0-0.1,0.1-0.2,0.1-0.2c0,0,0.1,0,0.3,0.1c0.4,0.3,0.8,0.6,1.1,0.9c0.4,0.4,0.7,0.7,1.1,1.2c0.4,0.4,0.7,0.8,1,1.3
				c0.3,0.4,0.7,0.9,1,1.4c0.3,0.5,0.6,0.9,0.9,1.3C41.6,30.1,41.8,30.5,42.1,30.9z M41,34c0.3,0,0.6,0,0.8-0.1s0.5-0.1,0.7-0.1
				c0-0.1,0-0.2,0-0.3c0-0.1-0.1-0.3-0.2-0.4c-0.1-0.1-0.1-0.3-0.2-0.4c-0.1-0.1-0.1-0.2-0.2-0.3c-0.1,0.3-0.3,0.6-0.5,0.8
				C41.4,33.5,41.2,33.7,41,34z"/>
			<path d="M46.3,23.4C46.3,23.4,46.3,23.4,46.3,23.4c0.1,0.1,0.1,0.1,0.1,0.1c0,0,0,0.1,0,0.1c0,0,0,0.1,0,0.1c0,0.2,0,0.4,0,0.7
				c0,0.2,0,0.4,0.1,0.6c0.1,0.5,0.1,1.1,0.2,1.6c0.1,0.6,0.1,1.1,0.2,1.7c0.1,0.6,0.1,1.1,0.2,1.7c0.1,0.6,0.1,1.1,0.2,1.6
				c0,0.2,0,0.4,0,0.7c0,0.3,0,0.6,0,0.8c0,0.3,0,0.6-0.1,0.8c0,0.3-0.1,0.5-0.2,0.7c0,0.1-0.1,0.2-0.2,0.2c0,0-0.1,0-0.1-0.1
				c-0.1-1-0.2-2.1-0.3-3.1c-0.1-1.1-0.3-2.2-0.4-3.3c-0.1-1.1-0.3-2.2-0.4-3.3c0-0.3,0.1-0.6,0.2-0.9c0.1-0.2,0.1-0.3,0.2-0.5
				C46.1,23.7,46.2,23.5,46.3,23.4z"/>
			<path d="M57.4,36c-0.6,0.2-1.1,0.4-1.7,0.6c-0.5,0.2-1,0.4-1.6,0.6c-0.1,0-0.1,0-0.1-0.1c0-0.1,0.1-0.2,0.2-0.4
				c0.1-0.1,0.1-0.2,0.2-0.3c0,0,0.1-0.1,0.1-0.1c0.1-0.1,0.3-0.1,0.6-0.2c0.2-0.1,0.5-0.2,0.8-0.3c0.3-0.1,0.6-0.2,0.9-0.3
				c0.3-0.1,0.6-0.2,0.9-0.3c0.1,0,0.1,0,0.1,0.1c0,0.1-0.1,0.1-0.1,0.2c0,0.1-0.1,0.1-0.1,0.2c0,0.1-0.1,0.1-0.1,0.2
				c0,0.1-0.1,0.1-0.1,0.1C57.5,35.9,57.5,35.9,57.4,36C57.5,35.9,57.5,36,57.4,36z"/>
			<path d="M55,29.1c0.1,0,0.2,0.1,0.4,0.1c0.1,0.1,0.3,0.2,0.4,0.3c0.2,0.1,0.3,0.3,0.4,0.4c0.1,0.2,0.3,0.3,0.4,0.4
				c0.1,0.1,0.2,0.3,0.4,0.4c0.1,0.1,0.2,0.3,0.2,0.4c0,0.2-0.1,0.5-0.2,0.7c-0.1,0.2-0.1,0.4-0.2,0.7c-0.2,0-0.4,0-0.6,0
				c-0.3,0-0.5,0-0.9,0.1c-0.3,0-0.6,0.1-0.9,0.1c-0.3,0.1-0.6,0.1-0.9,0.3c-0.3,0.1-0.5,0.2-0.6,0.4c-0.2,0.2-0.2,0.4-0.2,0.6
				c0.2,1.5,0.3,2.6,0.4,3.4c0.1,0.8,0.2,1.3,0.2,1.4c0,0.2,0.1,0.5,0.1,0.8c0,0.3,0,0.6,0,0.9c0,0.3,0,0.6,0,0.9
				c0,0.3-0.1,0.5-0.1,0.8c0,0.1-0.1,0.1-0.1,0.1c0,0-0.1,0-0.1-0.1c-0.1-0.5-0.1-1-0.2-1.4c-0.1-0.5-0.1-1-0.2-1.4
				c0-0.4-0.1-0.8-0.2-1.2c-0.1-0.4-0.1-0.8-0.2-1.2c-0.1-0.4-0.1-0.8-0.2-1.2c0-0.4-0.1-0.8-0.1-1.2c0-0.5,0.1-1,0.3-1.4
				c0.2-0.4,0.5-0.7,0.8-1c0.3-0.3,0.7-0.5,1.1-0.6c0.4-0.1,0.8-0.2,1.3-0.2c0-0.1-0.1-0.1-0.2-0.2c-0.1-0.1-0.2-0.2-0.3-0.2
				c-0.1-0.1-0.2-0.1-0.3-0.2c-0.1-0.1-0.2-0.1-0.2-0.1c-0.1,0-0.3,0-0.4,0.1c-0.1,0.1-0.2,0.1-0.4,0.2c-0.1,0.1-0.2,0.2-0.3,0.3
				c-0.1,0.1-0.2,0.2-0.2,0.3c0,0.1,0,0.1-0.1,0.1c-0.1,0-0.1-0.1-0.1-0.1c0-0.3,0.1-0.6,0.1-0.8c0.1-0.3,0.2-0.5,0.3-0.8
				c0.1-0.2,0.3-0.4,0.5-0.6C54.5,29.2,54.7,29.1,55,29.1z"/>
			<path d="M62.4,25.4c0,0.2,0,0.4-0.1,0.6c0,0.2-0.1,0.4-0.2,0.5c-0.1,0.1-0.2,0.3-0.4,0.3c-0.2,0.1-0.4,0.1-0.6,0.1
				c-0.3,0-0.5-0.1-0.7-0.3c-0.2-0.2-0.3-0.4-0.3-0.8c0-0.2,0-0.4,0.1-0.6c0-0.2,0.1-0.5,0.2-0.7c0.1-0.2,0.2-0.4,0.4-0.6
				c0.2-0.2,0.3-0.3,0.6-0.3c0.2,0,0.4,0,0.5,0.1c0.1,0.1,0.2,0.3,0.3,0.4c0.1,0.2,0.1,0.4,0.2,0.5C62.4,25.1,62.4,25.2,62.4,25.4z
				 M61.2,24.7c-0.1,0-0.2,0.1-0.3,0.1c-0.1,0.1-0.2,0.1-0.2,0.2c-0.1,0.1-0.1,0.2-0.2,0.3c0,0.1-0.1,0.2-0.1,0.3s0,0.2,0.1,0.2
				c0,0.1,0.1,0.1,0.2,0.1c0.1,0,0.2,0,0.2,0.1c0.1,0,0.2,0,0.2,0c0.3,0,0.6-0.2,0.8-0.4c0-0.1,0-0.2,0-0.3c0-0.1-0.1-0.2-0.2-0.3
				c-0.1-0.1-0.2-0.2-0.3-0.2C61.4,24.7,61.3,24.7,61.2,24.7z"/>
			<path d="M62.3,32.5C62.3,32.4,62.3,32.4,62.3,32.5c0.1,0,0.1,0,0.2,0.1c0.2,0.2,0.3,0.4,0.5,0.5c0.2,0.1,0.4,0.2,0.6,0.3
				c0.2,0.1,0.4,0.1,0.6,0.1c0.2,0,0.4,0,0.5,0h0.2c0.2,0,0.3,0.1,0.4,0.2c0.1,0.1,0.1,0.3,0.1,0.5c0,0.2,0,0.3-0.1,0.5
				c-0.1,0.1-0.2,0.2-0.4,0.2h-0.2c-0.1,0-0.1,0-0.2,0c-0.1,0-0.2,0-0.3,0c-0.1,0-0.2,0-0.3,0c-0.1,0-0.2,0-0.3,0
				c-0.1,0.4-0.2,0.8-0.3,1.2c-0.1,0.4-0.2,0.7-0.3,0.9c-0.1,0.3-0.2,0.5-0.3,0.7c-0.1,0.2-0.2,0.3-0.2,0.4
				c-0.2,0.3-0.4,0.5-0.7,0.7c-0.2,0.2-0.5,0.4-0.7,0.5c-0.3,0.1-0.5,0.2-0.8,0.3c-0.3,0.1-0.5,0.1-0.8,0.1c-0.4,0-0.8,0-1.3,0
				c-0.5-0.1-1-0.2-1.5-0.4c-0.1,0-0.1-0.1-0.1-0.1c0,0,0-0.1,0-0.1c0,0,0.1-0.1,0.2-0.1c0.1,0,0.2,0,0.3,0c0.7,0.1,1.3,0.1,1.9-0.1
				c0.6-0.1,1.2-0.4,1.7-0.7c0.7-0.4,1.2-0.9,1.6-1.4c0.4-0.6,0.7-1.2,0.8-1.9c-0.2-0.1-0.4-0.2-0.6-0.4c-0.2-0.2-0.4-0.3-0.5-0.5
				c0-0.2,0.1-0.4,0.1-0.6C62.1,32.9,62.2,32.7,62.3,32.5z M61.5,28.8l1,0.9c0,0,0,0.1,0,0.1l-0.7,0.9c0,0.1-0.1,0.1-0.1,0l-1-0.9
				c0,0,0-0.1,0-0.1l0.7-0.9C61.4,28.8,61.4,28.7,61.5,28.8z"/>
			<path d="M69.2,24.5c-0.3,0.1-0.6,0.3-0.9,0.4c-0.3,0.1-0.6,0.3-0.9,0.4c-0.3,0.1-0.6,0.3-0.8,0.4c-0.3,0.1-0.5,0.2-0.6,0.3
				c0,0-0.1,0-0.1,0c0,0,0,0,0-0.1c0,0,0-0.1,0.1-0.2c0-0.1,0.1-0.2,0.1-0.3c0-0.1,0.1-0.2,0.1-0.2c0-0.1,0.1-0.1,0.1-0.1
				c0-0.1,0.1-0.1,0.2-0.2l3.2-1.4c0.1,0,0.1,0,0.1,0.1c0,0.1,0,0.1-0.1,0.2c0,0.1-0.1,0.1-0.1,0.2c0,0.1-0.1,0.1-0.1,0.2
				c0,0.1-0.1,0.1-0.1,0.2C69.3,24.4,69.2,24.5,69.2,24.5z"/>
			<path d="M72,33.1c-0.3,0.1-0.7,0.2-1.1,0.3c-0.4,0.1-0.9,0.3-1.3,0.4c-0.5,0.1-0.9,0.3-1.4,0.4c-0.5,0.1-0.9,0.2-1.3,0.3
				c-0.4,0.1-0.8,0.2-1.2,0.2c-0.4,0.1-0.7,0.1-0.9,0.1h-0.2c-0.2,0-0.3-0.1-0.4-0.2c-0.1-0.1-0.1-0.3-0.1-0.5c0-0.2,0-0.3,0.1-0.5
				c0.1-0.1,0.2-0.2,0.4-0.2h0.2c0.1,0,0.3,0,0.5,0c0.2,0,0.4,0,0.5,0c0.2,0,0.4,0,0.5-0.1c0.2,0,0.3-0.1,0.5-0.1
				c-0.1-0.1-0.3-0.2-0.4-0.3c-0.1-0.1-0.2-0.3-0.3-0.5c-0.1-0.2-0.2-0.4-0.3-0.5c-0.1-0.2-0.1-0.4-0.2-0.6c-0.1-0.4,0-0.7,0.1-1.1
				c0.1-0.4,0.3-0.7,0.5-1.1c0.2-0.3,0.5-0.6,0.8-0.8c0.3-0.2,0.6-0.4,1-0.4c0.4-0.1,0.8-0.1,1.1,0c0.3,0.1,0.6,0.2,0.9,0.3
				c0.3,0.2,0.5,0.3,0.7,0.5c0.2,0.2,0.4,0.4,0.5,0.6c0,0,0,0.1,0,0.1c0,0,0,0.1-0.1,0.1c0,0-0.1,0-0.1,0c0,0-0.1,0-0.1,0
				c-0.2-0.1-0.4-0.2-0.5-0.3c-0.2-0.1-0.4-0.1-0.5-0.2c-0.2,0-0.4-0.1-0.6-0.1c-0.2,0-0.4,0-0.6,0c-0.2,0-0.4,0.1-0.7,0.1
				c-0.2,0.1-0.4,0.1-0.6,0.2c-0.2,0.1-0.4,0.2-0.6,0.3c-0.2,0.1-0.3,0.2-0.4,0.3c0,0.1,0,0.2,0.1,0.4c0,0.1,0.1,0.3,0.2,0.4
				c0.1,0.2,0.2,0.3,0.3,0.5c0.1,0.1,0.2,0.3,0.3,0.4c0.1,0.1,0.2,0.2,0.4,0.4c0.1,0.1,0.3,0.2,0.4,0.3c0.1,0.1,0.3,0.2,0.4,0.2
				c0.1,0.1,0.2,0.1,0.3,0.1c0.7-0.1,1.4-0.3,2.1-0.5c0.7-0.2,1.4-0.4,2.1-0.6c0.1,0,0.1,0,0,0c-0.2,0.3-0.3,0.6-0.5,0.8
				C72.3,32.7,72.1,32.9,72,33.1z"/>
			<path d="M82.6,25.1c0,0.2,0,0.4-0.1,0.6c0,0.2-0.1,0.4-0.2,0.5c-0.1,0.1-0.2,0.3-0.4,0.3c-0.2,0.1-0.4,0.1-0.6,0.1
				c-0.3,0-0.5-0.1-0.7-0.3c-0.2-0.2-0.3-0.4-0.3-0.8c0-0.2,0-0.4,0.1-0.6c0-0.2,0.1-0.5,0.2-0.7c0.1-0.2,0.2-0.4,0.4-0.6
				c0.2-0.2,0.3-0.3,0.6-0.3c0.2,0,0.4,0,0.5,0.1c0.1,0.1,0.2,0.3,0.3,0.4c0.1,0.2,0.1,0.4,0.2,0.5C82.6,24.8,82.6,25,82.6,25.1z
				 M81.4,24.5c-0.1,0-0.2,0.1-0.3,0.1c-0.1,0.1-0.2,0.1-0.2,0.2c-0.1,0.1-0.1,0.2-0.2,0.3c0,0.1-0.1,0.2-0.1,0.3s0,0.2,0.1,0.2
				c0,0.1,0.1,0.1,0.2,0.1c0.1,0,0.2,0,0.2,0.1c0.1,0,0.2,0,0.2,0c0.3,0,0.6-0.2,0.8-0.4c0-0.1,0-0.2,0-0.3c0-0.1-0.1-0.2-0.2-0.3
				c-0.1-0.1-0.2-0.2-0.3-0.2C81.6,24.5,81.5,24.5,81.4,24.5z"/>
			<path d="M84,33.3c0.1-0.3,0.1-0.5,0.2-0.7c0.1-0.2,0.1-0.4,0.2-0.6c0-0.1,0-0.1,0.1-0.1c0,0,0.1,0,0.1,0.1
				c0.1,0.2,0.2,0.4,0.3,0.6c0.1,0.2,0.2,0.4,0.3,0.6c0.1,0.1,0.1,0.1,0.3,0.1c0.1,0,0.2,0.1,0.3,0.1c0.1,0,0.2,0,0.3,0
				c0.1,0,0.2,0,0.2,0h0.2c0.2,0,0.3,0.1,0.4,0.2c0.1,0.1,0.1,0.3,0.1,0.5c0,0.2,0,0.3-0.1,0.5c-0.1,0.1-0.2,0.2-0.4,0.2h-0.2
				c-0.3,0-0.6,0-0.8-0.1c0,0.3,0.1,0.7,0.1,1.1c0,0.4,0,0.7-0.1,1.1c-0.1,0.6-0.3,1.1-0.6,1.5c-0.3,0.4-0.7,0.8-1.1,1
				c-0.4,0.3-0.9,0.5-1.5,0.6c-0.5,0.1-1,0.2-1.6,0.2c-0.5,0-0.9-0.1-1.3-0.2c-0.4-0.1-0.7-0.4-1-0.6c-0.3-0.3-0.5-0.6-0.7-1
				c-0.2-0.4-0.2-0.8-0.2-1.3c0-0.6,0.1-1.1,0.3-1.6c0.2-0.5,0.4-1,0.7-1.5c0-0.1,0.1-0.1,0.1-0.1c0,0,0,0,0.1,0c0,0,0,0.1,0,0.1
				c0,0,0,0.1,0,0.1c-0.3,0.5-0.4,1.1-0.5,1.6c-0.1,0.6,0,1.1,0.1,1.5c0.1,0.2,0.2,0.4,0.3,0.6c0.1,0.2,0.3,0.3,0.5,0.5
				c0.2,0.1,0.4,0.2,0.7,0.3c0.3,0.1,0.6,0.1,0.9,0.1c0.4,0,0.8,0,1.2-0.1c0.4-0.1,0.8-0.2,1.1-0.3c0.4-0.1,0.7-0.3,1-0.6
				c0.3-0.2,0.6-0.5,0.9-0.8c0-0.3,0-0.6-0.1-0.9c0-0.3-0.1-0.6-0.2-1c-0.1-0.3-0.2-0.6-0.3-1S84.1,33.6,84,33.3z M82.3,29.5l1,0.9
				c0,0,0,0.1,0,0.1l-0.7,0.9c0,0.1-0.1,0.1-0.1,0l-1-0.9c0,0,0-0.1,0-0.1l0.7-0.9C82.2,29.5,82.2,29.5,82.3,29.5z"/>
			<path d="M91.1,37.7c-0.6,0.2-1.1,0.4-1.7,0.6c-0.5,0.2-1,0.4-1.6,0.6c-0.1,0-0.1,0-0.1-0.1c0-0.1,0.1-0.2,0.2-0.4
				c0.1-0.1,0.1-0.2,0.2-0.3c0,0,0.1-0.1,0.1-0.1c0.1-0.1,0.3-0.1,0.6-0.2c0.2-0.1,0.5-0.2,0.8-0.3c0.3-0.1,0.6-0.2,0.9-0.3
				c0.3-0.1,0.6-0.2,0.9-0.3c0.1,0,0.1,0,0.1,0.1c0,0.1-0.1,0.1-0.1,0.2c0,0.1-0.1,0.1-0.1,0.2c0,0.1-0.1,0.1-0.1,0.2
				c0,0.1-0.1,0.1-0.1,0.1C91.2,37.6,91.1,37.6,91.1,37.7C91.1,37.7,91.1,37.7,91.1,37.7z"/>
			<path d="M91.3,34.5c0,0.1,0,0.1-0.1,0.2c0,0.1-0.1,0.1-0.1,0.2c0,0.1-0.1,0.1-0.1,0.2c0,0-0.1,0.1-0.1,0.1c-0.1,0-0.3,0-0.4,0
				c-0.2,0-0.4-0.1-0.5-0.1c-0.2-0.1-0.4-0.1-0.6-0.2c-0.2-0.1-0.4-0.2-0.5-0.3c-0.2-0.1-0.3-0.2-0.4-0.3c-0.1-0.1-0.2-0.2-0.2-0.4
				c-0.1,0.2-0.3,0.4-0.5,0.5s-0.3,0.2-0.5,0.3c-0.2,0.1-0.3,0.1-0.5,0.2c-0.2,0-0.3,0-0.5,0h-0.2c-0.2,0-0.3-0.1-0.4-0.2
				c-0.1-0.1-0.1-0.3-0.1-0.5c0-0.2,0-0.3,0.1-0.5c0.1-0.1,0.2-0.2,0.4-0.2h0.2c0.2,0,0.4,0,0.6,0c0.2,0,0.4,0,0.6-0.1
				c0.2-0.1,0.4-0.2,0.6-0.3c0.2-0.1,0.4-0.3,0.5-0.5c0.1-0.1,0.2-0.2,0.3-0.4c0.1-0.1,0.2-0.2,0.3-0.3c0.1-0.1,0.2-0.2,0.3-0.2
				c0.1-0.1,0.2-0.1,0.3-0.1c0.1,0,0.2,0,0.3,0.1c0.1,0.1,0.2,0.2,0.4,0.3c0.1,0.1,0.2,0.3,0.3,0.4c0.1,0.1,0.2,0.2,0.3,0.3
				c0.3,0.3,0.6,0.5,0.9,0.6c0.3,0.1,0.7,0.2,1.1,0.2h0.2c0.2,0,0.3,0.1,0.4,0.2c0.1,0.1,0.1,0.3,0.1,0.5c0,0.2,0,0.3-0.1,0.5
				c-0.1,0.1-0.2,0.2-0.4,0.2h-0.2c-0.3,0-0.6,0-1-0.1C91.9,34.7,91.6,34.6,91.3,34.5z M89,33c0.1,0.1,0.3,0.2,0.4,0.3
				c0.1,0.1,0.3,0.1,0.4,0.2c0.1,0.1,0.3,0.1,0.4,0.1c0.1,0,0.2,0.1,0.3,0.1c0,0,0,0,0.1,0c0,0,0,0,0-0.1c-0.1-0.1-0.2-0.2-0.2-0.3
				c-0.1-0.1-0.1-0.2-0.2-0.3c0-0.1-0.1-0.2-0.1-0.3c0-0.1-0.1-0.1-0.1-0.2c-0.1-0.1-0.1-0.1-0.2-0.1c-0.1,0-0.2,0.1-0.4,0.2
				c-0.1,0.1-0.3,0.2-0.4,0.4C88.9,32.8,88.9,32.9,89,33C88.9,32.9,88.9,32.9,89,33z"/>
			<path d="M95.4,21c-0.3,0.1-0.6,0.3-0.9,0.4c-0.3,0.1-0.6,0.3-0.9,0.4c-0.3,0.1-0.6,0.3-0.8,0.4c-0.3,0.1-0.5,0.2-0.6,0.3
				c0,0-0.1,0-0.1,0c0,0,0,0,0-0.1c0,0,0-0.1,0.1-0.2s0.1-0.2,0.1-0.3c0-0.1,0.1-0.2,0.1-0.2c0-0.1,0.1-0.1,0.1-0.1
				c0-0.1,0.1-0.1,0.2-0.2l3.2-1.4c0.1,0,0.1,0,0.1,0.1c0,0.1,0,0.1-0.1,0.2c0,0.1-0.1,0.1-0.1,0.2c0,0.1-0.1,0.1-0.1,0.2
				c0,0.1-0.1,0.1-0.1,0.2C95.5,20.9,95.5,20.9,95.4,21z"/>
			<path d="M93.9,23C93.9,22.9,94,22.9,93.9,23c0.1-0.1,0.1-0.1,0.1,0c0,0.1,0.1,0.3,0.2,0.4c0.1,0.1,0.1,0.3,0.2,0.4
				c0.1,0.1,0.2,0.3,0.3,0.4c0.1,0.1,0.2,0.2,0.3,0.3c-0.1,0.1-0.1,0.3-0.2,0.4c-0.1,0.1-0.1,0.2-0.1,0.3c0,0.1-0.1,0.2-0.1,0.2
				c0,0.1,0,0.2,0,0.3c0.1,0.6,0.1,1.1,0.2,1.7c0.1,0.6,0.2,1.1,0.2,1.7c0.1,0.6,0.1,1.1,0.2,1.7c0.1,0.6,0.1,1.1,0.1,1.7
				c0,0.2,0,0.4,0,0.6c0,0.2-0.1,0.4-0.1,0.6c-0.1,0.2-0.1,0.3-0.2,0.5c-0.1,0.2-0.2,0.3-0.3,0.4c-0.2,0.1-0.4,0.3-0.6,0.3
				c-0.2,0.1-0.5,0.1-0.9,0.1H93c-0.2,0-0.3-0.1-0.4-0.2c-0.1-0.1-0.1-0.3-0.1-0.5c0-0.2,0-0.3,0.1-0.5c0.1-0.1,0.2-0.2,0.4-0.2h0.2
				c0.2,0,0.4,0,0.5,0c0.2,0,0.3,0,0.5-0.1c0.1,0,0.3-0.1,0.4-0.2c0.1-0.1,0.2-0.2,0.2-0.3c-0.1-1.2-0.3-2.5-0.4-3.7
				c-0.2-1.2-0.3-2.4-0.5-3.6c0-0.2-0.1-0.5-0.1-0.7c0-0.2-0.1-0.5-0.2-0.7c0-0.1-0.1-0.1-0.1-0.1c0,0,0-0.1,0-0.1
				c0.1-0.2,0.2-0.3,0.3-0.5C93.8,23.3,93.8,23.1,93.9,23z"/>
			<path d="M106.8,23.2c-0.3,0.1-0.6,0.3-0.9,0.4c-0.3,0.1-0.6,0.3-0.9,0.4c-0.3,0.1-0.6,0.3-0.8,0.4c-0.3,0.1-0.5,0.2-0.6,0.3
				c0,0-0.1,0-0.1,0c0,0,0,0,0-0.1c0,0,0-0.1,0.1-0.2s0.1-0.2,0.1-0.3c0-0.1,0.1-0.2,0.1-0.2c0-0.1,0.1-0.1,0.1-0.1
				c0-0.1,0.1-0.1,0.2-0.2l3.2-1.4c0.1,0,0.1,0,0.1,0.1c0,0.1,0,0.1-0.1,0.2c0,0.1-0.1,0.1-0.1,0.2c0,0.1-0.1,0.1-0.1,0.2
				c0,0.1-0.1,0.1-0.1,0.2C106.9,23.1,106.8,23.1,106.8,23.2z"/>
			<path d="M112.7,33.5c0.2,0,0.3,0.1,0.4,0.2c0.1,0.1,0.1,0.3,0.1,0.5c0,0.2,0,0.3-0.1,0.5c-0.1,0.1-0.2,0.2-0.4,0.2h-0.2
				c-0.3,0-0.6-0.1-0.8-0.2c-0.3-0.1-0.5-0.3-0.7-0.5c-0.2-0.2-0.4-0.5-0.5-0.8c-0.1-0.3-0.2-0.6-0.3-1c-0.1,0.3-0.3,0.6-0.6,0.8
				c-0.2,0.3-0.5,0.5-0.8,0.7c-0.3,0.2-0.6,0.4-1,0.6c-0.4,0.2-0.7,0.3-1.1,0.5c-0.4,0.1-0.8,0.3-1.2,0.4c-0.4,0.1-0.8,0.2-1.3,0.2
				c-0.4,0-0.8,0-1.3,0c-0.4-0.1-0.8-0.2-1.2-0.4c-0.5-0.3-0.9-0.6-1.2-1.1c-0.3-0.5-0.4-1-0.4-1.7c0-0.5,0.1-1,0.3-1.6
				c0.2-0.5,0.4-1,0.8-1.4c0,0,0.1,0,0.1,0c0,0,0.1,0,0.1,0c0,0,0,0,0.1,0.1c0,0,0,0.1,0,0.1c-0.1,0.2-0.2,0.4-0.3,0.6
				c-0.1,0.2-0.2,0.4-0.2,0.6c-0.1,0.2-0.1,0.4-0.1,0.7c0,0.2,0,0.5,0.1,0.7c0.1,0.3,0.2,0.6,0.4,0.8c0.2,0.2,0.4,0.4,0.6,0.6
				c0.2,0.2,0.5,0.3,0.8,0.4c0.3,0.1,0.6,0.1,0.9,0.2c0.6,0.1,1.2,0,1.7-0.1c0.6-0.1,1.2-0.3,1.8-0.5c0.6-0.2,1.2-0.5,1.7-0.8
				c0.5-0.3,1-0.7,1.3-1.1c-0.1-0.5-0.1-1-0.2-1.6c-0.1-0.5-0.1-1.1-0.2-1.6c0-0.3-0.1-0.7-0.1-0.9c0-0.3-0.1-0.6-0.1-0.9
				c0-0.3-0.1-0.7-0.1-1c0-0.4-0.1-0.8-0.1-1.4c0-0.1,0-0.2,0-0.2c0.1-0.2,0.1-0.3,0.2-0.5c0.1-0.1,0.1-0.3,0.2-0.5
				c0-0.1,0.1-0.1,0.1,0c0,0.1,0,0.2,0.1,0.4c0,0.2,0,0.4,0.1,0.7c0.1,0.9,0.2,1.8,0.3,2.5c0.1,0.7,0.2,1.3,0.2,1.8
				c0.1,0.5,0.1,1,0.2,1.6c0.1,0.5,0.2,1.1,0.3,1.6c0,0.2,0.1,0.4,0.2,0.6c0.1,0.2,0.2,0.4,0.4,0.5c0.1,0.1,0.3,0.3,0.5,0.4
				c0.2,0.1,0.4,0.1,0.6,0.1H112.7z M106.7,29.2c0,0.2,0,0.4,0,0.6c0,0.2-0.1,0.4-0.2,0.6c-0.1,0.2-0.2,0.4-0.3,0.6
				c-0.1,0.2-0.2,0.3-0.4,0.4c-0.1,0.1-0.3,0.2-0.5,0.2c-0.2,0-0.4,0-0.6,0c-0.2,0-0.4,0-0.6-0.1c-0.2-0.1-0.4-0.1-0.5-0.2
				c0,0,0,0,0-0.1c0,0,0-0.1,0-0.1c0,0,0,0,0.1-0.1c0,0,0.1,0,0.2,0c0.3,0,0.5,0,0.8,0c0.3-0.1,0.5-0.1,0.7-0.2
				c0.2-0.1,0.4-0.2,0.5-0.3c0.1-0.1,0.2-0.2,0.2-0.2c0-0.1,0-0.1-0.1-0.1c-0.1,0-0.1,0-0.2,0c-0.1,0-0.2,0-0.2,0
				c-0.1,0-0.1,0-0.1,0c-0.1,0-0.3,0-0.4-0.1c-0.1,0-0.2-0.1-0.3-0.3c0-0.1-0.1-0.3,0-0.5c0-0.2,0-0.3,0.1-0.5
				c0-0.2,0.1-0.3,0.2-0.5c0.1-0.2,0.1-0.3,0.2-0.4c0.2-0.3,0.4-0.5,0.6-0.7c0.2-0.2,0.5-0.3,0.7-0.3c0,0,0,0,0,0.1
				c-0.1,0.2-0.1,0.4-0.2,0.6c-0.1,0.2-0.1,0.3-0.2,0.5c-0.1,0-0.2,0-0.3,0c-0.1,0-0.2,0.1-0.3,0.1c-0.1,0.1-0.2,0.1-0.3,0.2
				c-0.1,0.1-0.1,0.2-0.1,0.2c0,0.1,0,0.2,0.1,0.2c0.1,0,0.2,0.1,0.3,0.1c0.1,0,0.2,0,0.4,0c0.1,0,0.2,0,0.3,0c0.1,0,0.2,0,0.2,0.1
				C106.6,29.1,106.7,29.1,106.7,29.2z"/>
			<path d="M115,37.1c-0.6,0.2-1.1,0.4-1.7,0.6s-1,0.4-1.6,0.6c-0.1,0-0.1,0-0.1-0.1c0-0.1,0.1-0.2,0.2-0.4c0.1-0.1,0.1-0.2,0.2-0.3
				c0,0,0.1-0.1,0.1-0.1c0.1-0.1,0.3-0.1,0.6-0.2c0.2-0.1,0.5-0.2,0.8-0.3c0.3-0.1,0.6-0.2,0.9-0.3c0.3-0.1,0.6-0.2,0.9-0.3
				c0.1,0,0.1,0,0.1,0.1c0,0.1-0.1,0.1-0.1,0.2c0,0.1-0.1,0.1-0.1,0.2c0,0.1-0.1,0.1-0.1,0.2c0,0.1-0.1,0.1-0.1,0.1
				C115.1,37,115.1,37,115,37.1C115.1,37,115.1,37.1,115,37.1z"/>
			<path d="M113.4,23C113.4,22.9,113.4,22.9,113.4,23c0.1-0.1,0.1-0.1,0.1,0c0,0.1,0.1,0.3,0.2,0.4c0.1,0.1,0.1,0.3,0.2,0.4
				c0.1,0.1,0.2,0.3,0.3,0.4c0.1,0.1,0.2,0.2,0.3,0.3c-0.1,0.1-0.1,0.3-0.2,0.4c-0.1,0.1-0.1,0.2-0.1,0.3c0,0.1-0.1,0.2-0.1,0.2
				c0,0.1,0,0.2,0,0.3c0.1,0.6,0.1,1.1,0.2,1.7c0.1,0.6,0.2,1.1,0.2,1.7c0.1,0.6,0.1,1.1,0.2,1.7c0.1,0.6,0.1,1.1,0.1,1.7
				c0,0.2,0,0.4,0,0.6c0,0.2-0.1,0.4-0.1,0.6c-0.1,0.2-0.1,0.3-0.2,0.5c-0.1,0.2-0.2,0.3-0.3,0.4c-0.2,0.1-0.4,0.3-0.6,0.3
				c-0.2,0.1-0.5,0.1-0.9,0.1h-0.2c-0.2,0-0.3-0.1-0.4-0.2c-0.1-0.1-0.1-0.3-0.1-0.5c0-0.2,0-0.3,0.1-0.5c0.1-0.1,0.2-0.2,0.4-0.2
				h0.2c0.2,0,0.4,0,0.5,0c0.2,0,0.3,0,0.5-0.1c0.1,0,0.3-0.1,0.4-0.2c0.1-0.1,0.2-0.2,0.2-0.3c-0.1-1.2-0.3-2.5-0.4-3.7
				c-0.2-1.2-0.3-2.4-0.5-3.6c0-0.2-0.1-0.5-0.1-0.7c0-0.2-0.1-0.5-0.2-0.7c0-0.1-0.1-0.1-0.1-0.1c0,0,0-0.1,0-0.1
				c0.1-0.2,0.2-0.3,0.3-0.5C113.2,23.3,113.3,23.1,113.4,23z"/>
			<path d="M117.1,16.3C117.1,16.3,117.2,16.3,117.1,16.3c0.4,0.5,0.6,1,0.7,1.5c0.1,0.5,0.2,1,0.1,1.6c0,0.1,0,0.3-0.1,0.5
				c0,0.2-0.1,0.3-0.1,0.5c-0.1,0.1-0.1,0.3-0.2,0.4c-0.1,0.1-0.1,0.1-0.2,0.1c0,0-0.1,0-0.1-0.1c0,0,0-0.1,0-0.2c0-0.1,0-0.1,0-0.2
				c0-0.1,0-0.1,0-0.2c0-0.2,0.1-0.5,0.1-0.8c0-0.3,0-0.5-0.1-0.8c-0.1-0.3-0.1-0.5-0.3-0.8c-0.1-0.3-0.3-0.5-0.4-0.7
				c0,0,0-0.1,0.1-0.2c0-0.1,0.1-0.2,0.1-0.3c0.1-0.1,0.1-0.2,0.2-0.2C117.1,16.3,117.1,16.3,117.1,16.3z"/>
			<path d="M119.5,22.2c-0.3,0.1-0.6,0.3-0.9,0.4c-0.3,0.1-0.6,0.3-0.9,0.4c-0.3,0.1-0.6,0.3-0.8,0.4c-0.3,0.1-0.5,0.2-0.6,0.3
				c0,0-0.1,0-0.1,0c0,0,0,0,0-0.1c0,0,0-0.1,0.1-0.2s0.1-0.2,0.1-0.3c0-0.1,0.1-0.2,0.1-0.2c0-0.1,0.1-0.1,0.1-0.1
				c0-0.1,0.1-0.1,0.2-0.2l3.2-1.4c0.1,0,0.1,0,0.1,0.1c0,0.1,0,0.1-0.1,0.2c0,0.1-0.1,0.1-0.1,0.2c0,0.1-0.1,0.1-0.1,0.2
				c0,0.1-0.1,0.1-0.1,0.2C119.6,22.1,119.6,22.2,119.5,22.2z"/>
			<path d="M118,29.6c0-0.2,0-0.4,0-0.6c0-0.2,0-0.4,0-0.6c0-0.1,0.1-0.1,0.1-0.2c0.1,0,0.1,0,0.2,0c0.4,0.1,0.7,0.3,1.1,0.6
				c0.3,0.3,0.6,0.6,0.9,1c0.3,0.4,0.5,0.8,0.6,1.2c0.2,0.4,0.3,0.8,0.3,1.2c0,0.1,0,0.3,0,0.5c0,0.2,0,0.4-0.1,0.5
				c0,0.2-0.1,0.3-0.1,0.5c-0.1,0.1-0.1,0.2-0.2,0.3c-0.2,0.2-0.4,0.3-0.7,0.4c-0.3,0.1-0.6,0.2-0.9,0.3c-0.3,0.1-0.6,0.1-1,0.2
				c-0.3,0-0.6,0-0.9,0c-0.1,0-0.2,0-0.3,0c-0.1,0-0.2,0-0.3-0.1c-0.1,0-0.2-0.1-0.2-0.1c-0.1-0.1-0.1-0.1-0.1-0.2c0,0,0-0.1,0-0.3
				c0-0.1,0-0.3,0-0.4c0-0.1,0-0.3,0-0.4c0-0.1,0-0.2,0.1-0.2c0,0,0,0,0,0c0,0,0,0,0.1,0.1c0.1,0.1,0.2,0.1,0.3,0.2
				c0.1,0,0.3,0.1,0.4,0.1c0.2,0,0.3,0,0.4,0c0.1,0,0.3,0,0.4,0c0.2,0,0.4,0,0.6-0.1c0.2,0,0.4-0.1,0.6-0.1c0.2,0,0.4-0.1,0.6-0.2
				c0.2-0.1,0.3-0.1,0.5-0.2c0.1,0,0.1-0.1,0.2-0.1c0.1,0,0.1-0.1,0.1-0.1c0-0.3-0.2-0.6-0.3-1c-0.2-0.3-0.4-0.7-0.7-1
				c-0.3-0.3-0.5-0.6-0.9-0.8C118.6,29.8,118.3,29.7,118,29.6z M117.7,24.6l1,0.9c0,0,0,0.1,0,0.1l-0.7,0.9c0,0.1-0.1,0.1-0.1,0
				l-1-0.9c0,0,0-0.1,0-0.1l0.7-0.9C117.6,24.5,117.6,24.5,117.7,24.6z"/>
			<path d="M131.1,21c-0.3,0.1-0.6,0.3-0.9,0.4c-0.3,0.1-0.6,0.3-0.9,0.4c-0.3,0.1-0.6,0.3-0.8,0.4s-0.5,0.2-0.6,0.3
				c0,0-0.1,0-0.1,0c0,0,0,0,0-0.1c0,0,0-0.1,0.1-0.2c0-0.1,0.1-0.2,0.1-0.3c0-0.1,0.1-0.2,0.1-0.2c0-0.1,0.1-0.1,0.1-0.1
				c0-0.1,0.1-0.1,0.2-0.2l3.2-1.4c0.1,0,0.1,0,0.1,0.1c0,0.1,0,0.1-0.1,0.2c0,0.1-0.1,0.1-0.1,0.2c0,0.1-0.1,0.1-0.1,0.2
				c0,0.1-0.1,0.1-0.1,0.2C131.2,21,131.2,21,131.1,21z M129.5,24.3c-0.1,0.3-0.2,0.5-0.4,0.6c-0.1,0.1-0.3,0.2-0.6,0.2
				c-0.2,0-0.4,0-0.5-0.1c-0.1-0.1-0.2-0.3-0.2-0.5c0-0.1,0-0.2,0-0.4c0-0.1,0-0.2,0.1-0.4c0-0.1,0.1-0.2,0.1-0.3
				c0.1-0.1,0.1-0.1,0.2-0.2c0.1,0,0.1,0,0,0.2c0,0.1,0,0.1-0.1,0.2c0,0.1,0,0.2,0,0.3c0,0.1,0,0.2,0,0.2c0,0.1,0.1,0.1,0.1,0.1
				c0.1,0.1,0.2,0.1,0.3,0.1c0.1,0,0.2,0,0.3-0.1c0.1,0,0.2-0.1,0.3-0.2c0.1-0.1,0.2-0.1,0.2-0.2c0.1-0.1,0.1-0.2,0.1-0.3
				c0-0.1,0-0.2,0.1-0.3c0,0,0-0.1,0-0.1c0,0,0-0.1,0-0.1c0,0,0-0.1,0.1-0.1c0,0,0.1,0,0.1-0.1c0,0,0,0,0.1,0c0,0,0,0.1,0,0.1
				c0,0,0,0.1,0,0.1c0,0,0,0.1,0,0.1c0,0.2,0,0.3,0.1,0.4c0.1,0.1,0.2,0.2,0.3,0.2c0.1,0,0.2,0,0.3,0c0.1,0,0.2-0.1,0.3-0.2
				c0,0,0-0.1,0-0.1c0-0.1,0-0.1,0-0.2c0-0.1,0-0.1,0-0.2c0,0,0-0.1,0-0.1c0,0,0-0.1,0-0.1c0-0.1,0-0.2,0.1-0.2
				c0-0.1,0.1-0.2,0.1-0.2c0-0.1,0.1-0.1,0.1-0.1c0.1,0,0.1,0,0.1,0.1c0,0.1,0.1,0.2,0.1,0.3c0,0.1,0,0.3,0,0.4c0,0.1,0,0.3,0,0.4
				c0,0.1-0.1,0.2-0.1,0.3c0,0.1-0.1,0.2-0.2,0.3c-0.1,0.1-0.1,0.2-0.2,0.2c-0.1,0.1-0.2,0.1-0.3,0.1c-0.2,0-0.4,0-0.5,0
				C129.7,24.6,129.6,24.5,129.5,24.3z"/>
			<path d="M132.2,28.6c0.3,0.4,0.5,0.8,0.7,1.2s0.4,0.9,0.5,1.3c0.1,0.5,0.2,0.9,0.2,1.4c0,0.5,0,0.9,0,1.4c-0.1,0.4-0.2,0.7-0.3,1
				c-0.2,0.3-0.3,0.6-0.6,0.8c-0.2,0.2-0.5,0.5-0.8,0.7c-0.3,0.2-0.6,0.3-0.9,0.5c-0.3,0.1-0.6,0.2-1,0.3c-0.3,0.1-0.7,0.1-1,0.1
				c-0.4,0-0.9-0.1-1.2-0.2c-0.4-0.1-0.7-0.4-1-0.6c-0.3-0.3-0.5-0.6-0.7-1c-0.2-0.4-0.3-0.8-0.3-1.4c0-0.6,0.1-1.1,0.3-1.6
				c0.2-0.5,0.4-1,0.7-1.5c0-0.1,0.1-0.1,0.1-0.1c0,0,0.1,0,0.1,0c0,0,0,0.1,0,0.1c0,0,0,0.1,0,0.1c-0.3,0.6-0.4,1.1-0.5,1.7
				c-0.1,0.6,0,1.1,0.1,1.5c0.1,0.2,0.2,0.4,0.3,0.6c0.1,0.2,0.3,0.4,0.5,0.5c0.2,0.1,0.4,0.2,0.7,0.3c0.3,0.1,0.6,0.1,0.9,0.1
				c0.4,0,0.7,0,1.1-0.1c0.4-0.1,0.7-0.2,1.1-0.3c0.3-0.1,0.7-0.3,1-0.6c0.3-0.2,0.6-0.5,0.8-0.8c0-0.3,0-0.7-0.1-1.1
				c-0.1-0.4-0.2-0.8-0.3-1.1c-0.1-0.4-0.3-0.7-0.5-1.1c-0.2-0.4-0.3-0.7-0.5-0.9c0-0.2,0.1-0.4,0.2-0.6c0.1-0.2,0.1-0.4,0.2-0.6
				C132.1,28.5,132.1,28.5,132.2,28.6C132.2,28.5,132.2,28.6,132.2,28.6z M129.8,26.3l1,0.9c0,0,0,0.1,0,0.1l-0.7,0.9
				c0,0.1-0.1,0.1-0.1,0l-1-0.9c0,0,0-0.1,0-0.1l0.7-0.9C129.7,26.3,129.8,26.2,129.8,26.3z"/>
			<path d="M137.7,39.3c-0.6,0.2-1.1,0.4-1.7,0.6c-0.5,0.2-1,0.4-1.6,0.6c-0.1,0-0.1,0-0.1-0.1c0-0.1,0.1-0.2,0.2-0.4
				c0.1-0.1,0.1-0.2,0.2-0.3c0,0,0.1-0.1,0.1-0.1c0.1-0.1,0.3-0.1,0.6-0.2c0.2-0.1,0.5-0.2,0.8-0.3c0.3-0.1,0.6-0.2,0.9-0.3
				c0.3-0.1,0.6-0.2,0.9-0.3c0.1,0,0.1,0,0.1,0.1c0,0.1-0.1,0.1-0.1,0.2c0,0.1-0.1,0.1-0.1,0.2c0,0.1-0.1,0.1-0.1,0.2
				c0,0.1-0.1,0.1-0.1,0.1C137.8,39.2,137.7,39.2,137.7,39.3C137.7,39.2,137.7,39.3,137.7,39.3z"/>
			<path d="M134.8,37.2c0,0,0.1-0.1,0.1-0.1c0.1,0,0.1-0.1,0.2-0.1c0.1,0,0.1-0.1,0.2-0.1c0.1,0,0.1-0.1,0.2-0.1
				c-0.1-0.1-0.2-0.2-0.3-0.3c-0.1-0.1-0.2-0.3-0.2-0.4c0-0.1,0-0.1,0-0.2c0-0.1,0-0.1,0.1-0.2c0.1-0.1,0.2-0.3,0.3-0.4
				c0.1-0.1,0.2-0.2,0.4-0.4c0.1-0.1,0.3-0.2,0.4-0.3c0.1-0.1,0.3-0.1,0.5-0.1c0.1,0,0.1,0,0.2,0.1c0.1,0,0.1,0.1,0.1,0.1
				c0,0.1,0.1,0.1,0.1,0.2c0,0.1,0.1,0.1,0.1,0.2c0,0.1,0,0.2,0,0.3l-0.1,0.3c-0.1,0.1-0.1,0.2-0.2,0.2c-0.1,0-0.1,0-0.1-0.1
				c0-0.1,0-0.1-0.1-0.2c0-0.1-0.1-0.1-0.2-0.2c-0.1,0-0.1,0-0.2,0c-0.3,0-0.5,0.1-0.7,0.3c0.1,0.2,0.2,0.4,0.3,0.5
				c0.2,0.2,0.3,0.2,0.6,0.3c0.3,0,0.5,0,0.8,0c0.2,0,0.5-0.1,0.8-0.2c0,0,0,0.1,0,0.1c0,0.1-0.1,0.2-0.1,0.3c0,0.1-0.1,0.2-0.1,0.2
				c0,0.1-0.1,0.1-0.1,0.1c-0.2,0-0.4,0.1-0.7,0.1c-0.2,0-0.5,0.1-0.7,0.2c-0.3,0.1-0.5,0.2-0.8,0.3c-0.3,0.1-0.5,0.2-0.8,0.4
				c0,0-0.1,0-0.1-0.1c0-0.1,0.1-0.2,0.1-0.3C134.7,37.4,134.8,37.3,134.8,37.2z M135.9,23.3C135.9,23.3,135.9,23.3,135.9,23.3
				c0.1,0.1,0.1,0.1,0.1,0.1c0,0,0,0.1,0,0.1c0,0,0,0.1,0,0.1c0,0.2,0,0.4,0,0.6c0,0.2,0,0.4,0.1,0.6c0.1,0.5,0.1,1,0.2,1.5
				c0.1,0.5,0.1,1,0.2,1.5c0.1,0.5,0.1,1,0.2,1.5c0.1,0.5,0.1,1,0.2,1.5c0,0.2,0,0.4,0,0.7c0,0.3,0,0.5,0,0.8c0,0.3,0,0.5-0.1,0.7
				c0,0.2-0.1,0.4-0.2,0.6c0,0.1-0.1,0.2-0.1,0.2c0,0-0.1,0-0.1-0.1c-0.1-0.9-0.2-1.9-0.3-2.8c-0.1-1-0.3-2-0.4-3
				c-0.1-1-0.3-2-0.4-3c0-0.2,0.1-0.5,0.2-0.8c0.1-0.2,0.1-0.3,0.2-0.4C135.7,23.5,135.8,23.4,135.9,23.3z"/>
			<path d="M146.3,26.3c-0.3,0.1-0.6,0.3-0.9,0.4c-0.3,0.1-0.6,0.3-0.9,0.4c-0.3,0.1-0.6,0.3-0.8,0.4s-0.5,0.2-0.6,0.3
				c0,0-0.1,0-0.1,0c0,0,0,0,0-0.1c0,0,0-0.1,0.1-0.2c0-0.1,0.1-0.2,0.1-0.3c0-0.1,0.1-0.2,0.1-0.2c0-0.1,0.1-0.1,0.1-0.1
				c0-0.1,0.1-0.1,0.2-0.2l3.2-1.4c0.1,0,0.1,0,0.1,0.1c0,0.1,0,0.1-0.1,0.2c0,0.1-0.1,0.1-0.1,0.2c0,0.1-0.1,0.1-0.1,0.2
				c0,0.1-0.1,0.1-0.1,0.2C146.4,26.2,146.4,26.2,146.3,26.3z"/>
			<path d="M145.7,32.5C145.7,32.4,145.7,32.4,145.7,32.5c0.1,0,0.1,0,0.2,0.1c0.2,0.2,0.3,0.4,0.5,0.5c0.2,0.1,0.4,0.2,0.6,0.3
				c0.2,0.1,0.4,0.1,0.6,0.1c0.2,0,0.4,0,0.5,0h0.2c0.2,0,0.3,0.1,0.4,0.2c0.1,0.1,0.1,0.3,0.1,0.5c0,0.2,0,0.3-0.1,0.5
				c-0.1,0.1-0.2,0.2-0.4,0.2h-0.2c-0.1,0-0.1,0-0.2,0c-0.1,0-0.2,0-0.3,0c-0.1,0-0.2,0-0.3,0c-0.1,0-0.2,0-0.3,0
				c-0.1,0.4-0.2,0.8-0.3,1.2c-0.1,0.4-0.2,0.7-0.3,0.9c-0.1,0.3-0.2,0.5-0.3,0.7c-0.1,0.2-0.2,0.3-0.2,0.4
				c-0.2,0.3-0.4,0.5-0.7,0.7c-0.2,0.2-0.5,0.4-0.7,0.5c-0.3,0.1-0.5,0.2-0.8,0.3c-0.3,0.1-0.5,0.1-0.8,0.1c-0.4,0-0.8,0-1.3,0
				c-0.5-0.1-1-0.2-1.5-0.4c-0.1,0-0.1-0.1-0.1-0.1c0,0,0-0.1,0-0.1c0,0,0.1-0.1,0.2-0.1c0.1,0,0.2,0,0.3,0c0.7,0.1,1.3,0.1,1.9-0.1
				c0.6-0.1,1.2-0.4,1.7-0.7c0.7-0.4,1.2-0.9,1.6-1.4c0.4-0.6,0.7-1.2,0.8-1.9c-0.2-0.1-0.4-0.2-0.6-0.4c-0.2-0.2-0.4-0.3-0.5-0.5
				c0-0.2,0.1-0.4,0.1-0.6C145.6,32.9,145.6,32.7,145.7,32.5z"/>
			<path d="M152.8,23c-0.3,0.1-0.6,0.3-0.9,0.4c-0.3,0.1-0.6,0.3-0.9,0.4c-0.3,0.1-0.6,0.3-0.8,0.4c-0.3,0.1-0.5,0.2-0.6,0.3
				c0,0-0.1,0-0.1,0c0,0,0,0,0-0.1c0,0,0-0.1,0.1-0.2c0-0.1,0.1-0.2,0.1-0.3c0-0.1,0.1-0.2,0.1-0.2c0-0.1,0.1-0.1,0.1-0.1
				c0-0.1,0.1-0.1,0.2-0.2l3.2-1.4c0.1,0,0.1,0,0.1,0.1c0,0.1,0,0.1-0.1,0.2c0,0.1-0.1,0.1-0.1,0.2c0,0.1-0.1,0.1-0.1,0.2
				c0,0.1-0.1,0.1-0.1,0.2C152.9,22.9,152.9,22.9,152.8,23z"/>
			<path d="M152.6,29.2c0.2,0,0.4,0.1,0.6,0.3c0.1,0.2,0.3,0.4,0.3,0.7c0.1,0.3,0.1,0.6,0.1,0.9c0,0.3,0,0.6-0.1,0.8
				c-0.1,0.3-0.2,0.5-0.3,0.7c-0.1,0.2-0.3,0.4-0.4,0.6c0.1,0.1,0.2,0.1,0.3,0.1c0.1,0,0.3,0.1,0.4,0.1c0.2,0,0.3,0,0.5,0
				c0.2,0,0.3,0,0.4,0h0.2c0.1,0,0.2,0,0.3,0.1c0.1,0.1,0.1,0.2,0.2,0.3c0,0.1,0.1,0.2,0.1,0.3s0,0.2-0.1,0.3c0,0.1-0.1,0.2-0.2,0.3
				c-0.1,0.1-0.2,0.1-0.3,0.1h-0.2c-0.6,0-1.2-0.1-1.8-0.2c-0.6-0.1-1-0.3-1.5-0.6c-0.2,0.1-0.5,0.2-0.7,0.3
				c-0.2,0.1-0.5,0.2-0.7,0.3c-0.2,0.1-0.5,0.1-0.8,0.2c-0.3,0-0.6,0.1-0.9,0.1H148c-0.1,0-0.2,0-0.3-0.1c-0.1-0.1-0.1-0.2-0.2-0.3
				c0-0.1-0.1-0.2-0.1-0.3c0-0.1,0-0.2,0.1-0.3c0-0.1,0.1-0.2,0.2-0.3c0.1-0.1,0.2-0.1,0.3-0.1h0.2c0.2,0,0.4,0,0.5,0
				c0.2,0,0.3,0,0.5,0c0.2,0,0.3-0.1,0.5-0.1c0.2,0,0.4-0.1,0.6-0.2c-0.1-0.1-0.1-0.2-0.1-0.4c0-0.1,0-0.3,0-0.5
				c0-0.4,0.1-0.8,0.3-1.2c0.2-0.4,0.4-0.7,0.7-1c0.3-0.3,0.5-0.5,0.8-0.7C152.1,29.3,152.4,29.2,152.6,29.2z M151.3,25.6
				c0-0.1,0.1-0.1,0.1,0l1,0.9c0,0,0,0,0,0.1c0,0,0,0,0,0.1l-0.7,0.9c0,0-0.1,0.1-0.1,0l-1-0.9c0,0,0,0,0-0.1c0,0,0-0.1,0-0.1
				L151.3,25.6z M153,31.8c0-0.2,0-0.3-0.1-0.5c-0.1-0.2-0.2-0.3-0.3-0.5c-0.1-0.1-0.1-0.1-0.2-0.2c-0.1,0-0.2,0-0.3,0
				c-0.1,0-0.2,0-0.4,0.1c-0.1,0.1-0.3,0.1-0.4,0.2c-0.1,0.1-0.3,0.2-0.4,0.3c-0.1,0.1-0.2,0.3-0.2,0.4c0,0.1,0,0.3,0.1,0.4
				c0.1,0.1,0.1,0.2,0.2,0.3c0.1,0.1,0.2,0.2,0.3,0.2c0.1,0.1,0.2,0.1,0.2,0.1c0.1,0,0.2,0,0.3-0.1c0.1-0.1,0.3-0.1,0.4-0.2
				c0.1-0.1,0.3-0.2,0.4-0.3C152.8,32,152.9,31.9,153,31.8z"/>
			<path d="M159.6,22.1c-0.3,0.1-0.6,0.3-0.9,0.4c-0.3,0.1-0.6,0.3-0.9,0.4c-0.3,0.1-0.6,0.3-0.8,0.4c-0.3,0.1-0.5,0.2-0.6,0.3
				c0,0-0.1,0-0.1,0c0,0,0,0,0-0.1c0,0,0-0.1,0.1-0.2c0-0.1,0.1-0.2,0.1-0.3c0-0.1,0.1-0.2,0.1-0.2c0-0.1,0.1-0.1,0.1-0.1
				c0-0.1,0.1-0.1,0.2-0.2l3.2-1.4c0.1,0,0.1,0,0.1,0.1c0,0.1,0,0.1-0.1,0.2c0,0.1-0.1,0.1-0.1,0.2c0,0.1-0.1,0.1-0.1,0.2
				c0,0.1-0.1,0.1-0.1,0.2C159.7,22,159.7,22,159.6,22.1z"/>
			<path d="M162.6,33c-0.4,0.1-0.8,0.3-1.3,0.4c-0.5,0.1-0.9,0.3-1.4,0.4c-0.5,0.1-1,0.3-1.5,0.4c-0.5,0.1-1,0.2-1.5,0.3
				c-0.5,0.1-0.9,0.2-1.3,0.2c-0.4,0.1-0.8,0.1-1.1,0.1h-0.2c-0.2,0-0.3-0.1-0.4-0.2c-0.1-0.1-0.1-0.3-0.1-0.5c0-0.2,0-0.3,0.1-0.5
				c0.1-0.1,0.2-0.2,0.4-0.2h0.2c0.1,0,0.2,0,0.3,0c0.1,0,0.3,0,0.5,0c0.2,0,0.4,0,0.6,0c0.2,0,0.4,0,0.6-0.1c0.2,0,0.4,0,0.5-0.1
				c0.2,0,0.3,0,0.4-0.1c-0.1-0.1-0.3-0.2-0.4-0.3s-0.2-0.3-0.3-0.5c-0.1-0.2-0.2-0.4-0.3-0.5c-0.1-0.2-0.1-0.4-0.2-0.6
				c-0.1-0.4,0-0.7,0.1-1.1c0.1-0.4,0.3-0.7,0.5-1.1c0.2-0.3,0.5-0.6,0.8-0.8c0.3-0.2,0.6-0.4,1-0.4c0.4-0.1,0.8-0.1,1.1,0
				c0.3,0.1,0.6,0.2,0.9,0.3c0.3,0.2,0.5,0.3,0.7,0.5c0.2,0.2,0.4,0.4,0.5,0.6c0,0,0,0.1,0,0.1c0,0,0,0.1-0.1,0.1c0,0-0.1,0-0.1,0
				c0,0-0.1,0-0.1,0c-0.2-0.1-0.4-0.2-0.5-0.3s-0.4-0.1-0.5-0.2c-0.2,0-0.4-0.1-0.6-0.1c-0.2,0-0.4,0-0.6,0c-0.2,0-0.4,0.1-0.7,0.1
				c-0.2,0.1-0.4,0.1-0.6,0.2c-0.2,0.1-0.4,0.2-0.6,0.3c-0.2,0.1-0.3,0.2-0.4,0.3c0,0.1,0,0.2,0.1,0.4c0,0.1,0.1,0.3,0.2,0.4
				c0.1,0.2,0.2,0.3,0.3,0.5c0.1,0.1,0.2,0.3,0.3,0.4c0.1,0.1,0.2,0.2,0.4,0.4c0.1,0.1,0.3,0.2,0.4,0.3c0.1,0.1,0.3,0.2,0.4,0.2
				c0.1,0.1,0.2,0.1,0.3,0.1c0.7-0.1,1.4-0.3,2.1-0.5c0.7-0.2,1.4-0.4,2.1-0.6c0.1,0,0.1,0,0,0c-0.2,0.3-0.3,0.6-0.5,0.8
				C162.9,32.6,162.7,32.8,162.6,33z M158.2,24.2l1,0.9c0,0,0,0.1,0,0.1l-0.7,0.9c0,0.1-0.1,0.1-0.1,0l-1-0.9c0,0,0-0.1,0-0.1
				l0.7-0.9C158.2,24.2,158.2,24.2,158.2,24.2z"/>
			<path d="M168.7,26.3c-0.3,0.1-0.6,0.3-0.9,0.4c-0.3,0.1-0.6,0.3-0.9,0.4c-0.3,0.1-0.6,0.3-0.8,0.4s-0.5,0.2-0.6,0.3
				c0,0-0.1,0-0.1,0c0,0,0,0,0-0.1c0,0,0-0.1,0.1-0.2c0-0.1,0.1-0.2,0.1-0.3c0-0.1,0.1-0.2,0.1-0.2c0-0.1,0.1-0.1,0.1-0.1
				c0-0.1,0.1-0.1,0.2-0.2l3.2-1.4c0.1,0,0.1,0,0.1,0.1c0,0.1,0,0.1-0.1,0.2c0,0.1-0.1,0.1-0.1,0.2c0,0.1-0.1,0.1-0.1,0.2
				c0,0.1-0.1,0.1-0.1,0.2C168.8,26.2,168.8,26.2,168.7,26.3z"/>
			<path d="M169.3,33.2c-0.1,0.2-0.2,0.5-0.4,0.6c-0.2,0.2-0.5,0.3-0.8,0.3c-0.2,0-0.3,0-0.4-0.1c-0.1-0.1-0.3-0.2-0.4-0.3
				c-0.1-0.1-0.2-0.3-0.2-0.5c-0.1-0.2-0.1-0.3-0.1-0.5c0-0.1,0-0.3,0.1-0.4c0-0.2,0.1-0.3,0.2-0.5c0.1-0.2,0.1-0.3,0.2-0.5
				c0.1-0.2,0.2-0.3,0.3-0.4c0.1-0.1,0.2-0.2,0.3-0.3c0.1-0.1,0.2-0.1,0.4-0.1c0.2,0,0.4,0.1,0.6,0.3c0.2,0.2,0.4,0.4,0.5,0.7
				c0.1,0.3,0.2,0.6,0.3,0.9c0.1,0.3,0.1,0.7,0.1,1c0,0.4-0.1,0.9-0.2,1.3c-0.1,0.5-0.2,0.9-0.4,1.3c-0.2,0.4-0.3,0.9-0.6,1.2
				c-0.2,0.4-0.4,0.7-0.7,1c-0.2,0.3-0.5,0.5-0.7,0.6c-0.3,0.2-0.5,0.3-0.8,0.4c-0.3,0.1-0.6,0.2-0.9,0.2c-0.3,0-0.6,0-0.9,0
				c-0.3,0-0.7-0.1-1-0.1c-0.3-0.1-0.6-0.1-0.9-0.2c0,0-0.1,0-0.1-0.1c0,0,0-0.1,0-0.1c0,0,0-0.1,0.1-0.1c0,0,0.1,0,0.2,0
				c0.5,0.1,0.9,0,1.3,0c0.4-0.1,0.9-0.2,1.3-0.3c0.4-0.1,0.7-0.3,1-0.5c0.3-0.2,0.6-0.5,0.9-0.7c0.2-0.2,0.4-0.4,0.6-0.7
				c0.2-0.3,0.4-0.5,0.5-0.8c0.2-0.3,0.3-0.6,0.4-0.9c0.1-0.3,0.2-0.6,0.2-0.8c0-0.1,0-0.1,0-0.2c0-0.1,0-0.1,0-0.2
				c0-0.1,0-0.1,0-0.2C169.4,33.3,169.3,33.3,169.3,33.2z M169,32.5c0,0,0-0.1-0.1-0.2c0-0.1-0.1-0.2-0.2-0.3
				c-0.1-0.1-0.2-0.2-0.3-0.2c-0.1-0.1-0.2-0.1-0.3-0.1c-0.1,0-0.2,0-0.2,0.1c-0.1,0.1-0.1,0.1-0.2,0.2c0,0.1-0.1,0.2-0.1,0.2
				c0,0.1,0,0.1,0,0.2c0.1,0.1,0.2,0.2,0.3,0.2c0.1,0,0.3,0.1,0.4,0.1c0.1,0,0.3,0,0.4-0.1C168.9,32.6,169,32.5,169,32.5z"/>
			<path d="M178.6,25.6c-0.3,0.1-0.6,0.3-0.9,0.4c-0.3,0.1-0.6,0.3-0.9,0.4c-0.3,0.1-0.6,0.3-0.8,0.4c-0.3,0.1-0.5,0.2-0.6,0.3
				c0,0-0.1,0-0.1,0c0,0,0,0,0-0.1c0,0,0-0.1,0.1-0.2c0-0.1,0.1-0.2,0.1-0.3c0-0.1,0.1-0.2,0.1-0.2c0-0.1,0.1-0.1,0.1-0.1
				c0-0.1,0.1-0.1,0.2-0.2l3.2-1.4c0.1,0,0.1,0,0.1,0.1c0,0.1,0,0.1-0.1,0.2c0,0.1-0.1,0.1-0.1,0.2s-0.1,0.1-0.1,0.2
				c0,0.1-0.1,0.1-0.1,0.2C178.7,25.5,178.7,25.6,178.6,25.6z"/>
			<path d="M183.4,24.9c-0.3,0.1-0.6,0.3-0.9,0.4c-0.3,0.1-0.6,0.3-0.9,0.4c-0.3,0.1-0.6,0.3-0.8,0.4c-0.3,0.1-0.5,0.2-0.6,0.3
				c0,0-0.1,0-0.1,0c0,0,0,0,0-0.1c0,0,0-0.1,0.1-0.2c0-0.1,0.1-0.2,0.1-0.3c0-0.1,0.1-0.2,0.1-0.2c0-0.1,0.1-0.1,0.1-0.1
				c0-0.1,0.1-0.1,0.2-0.2l3.2-1.4c0.1,0,0.1,0,0.1,0.1c0,0.1,0,0.1-0.1,0.2c0,0.1-0.1,0.1-0.1,0.2c0,0.1-0.1,0.1-0.1,0.2
				c0,0.1-0.1,0.1-0.1,0.2C183.5,24.9,183.5,24.9,183.4,24.9z"/>
			<path d="M178.5,31.9C178.5,31.8,178.5,31.8,178.5,31.9c0.1-0.1,0.1-0.1,0.2,0c0.1,0.1,0.3,0.2,0.4,0.3c0.1,0.1,0.3,0.1,0.5,0.1
				c0.3,0,0.6-0.1,0.9-0.2c0.3-0.1,0.5-0.3,0.7-0.5c0.2-0.2,0.4-0.5,0.6-0.8c0.2-0.3,0.3-0.7,0.3-1.1c0-0.1,0.1-0.2,0.1-0.2
				c0.1,0,0.1,0,0.1,0.2c0.1,0.3,0.1,0.7,0.2,1.1c0.1,0.4,0.1,0.8,0.2,1.1c0.1,0.3,0.2,0.5,0.3,0.7c0.1,0.2,0.2,0.4,0.4,0.5
				c0.2,0.1,0.3,0.3,0.5,0.3c0.2,0.1,0.4,0.1,0.7,0.1h0.2c0.2,0,0.3,0.1,0.4,0.2c0.1,0.1,0.1,0.3,0.1,0.5c0,0.2,0,0.3-0.1,0.5
				c-0.1,0.1-0.2,0.2-0.4,0.2h-0.2c-0.7,0-1.3-0.3-1.8-0.9c-0.4-0.6-0.8-1.4-0.9-2.5c-0.1,0.3-0.2,0.5-0.3,0.8
				c-0.1,0.2-0.3,0.5-0.5,0.6c-0.2,0.2-0.4,0.3-0.6,0.4c-0.2,0.1-0.4,0.2-0.6,0.2c0,0.4-0.1,0.8-0.1,1.2c-0.1,0.4-0.1,0.7-0.2,1.1
				c-0.1,0.3-0.2,0.6-0.3,0.9c-0.1,0.3-0.2,0.5-0.3,0.7c-0.1,0.3-0.3,0.5-0.5,0.7c-0.2,0.2-0.4,0.5-0.7,0.7
				c-0.3,0.2-0.5,0.4-0.8,0.5c-0.3,0.1-0.6,0.2-0.9,0.3c-0.7,0.1-1.3,0.1-1.8,0c-0.5-0.1-1-0.2-1.3-0.4c-0.1,0-0.2-0.1-0.2-0.1
				c0,0,0-0.1,0-0.1c0,0,0.1-0.1,0.1-0.1c0.1,0,0.1,0,0.2,0c0.3,0,0.5,0.1,0.8,0c0.3,0,0.6-0.1,0.9-0.1c0.3-0.1,0.6-0.1,0.9-0.2
				c0.3-0.1,0.5-0.2,0.8-0.3c0.4-0.2,0.7-0.5,1.1-0.8c0.3-0.3,0.6-0.7,0.9-1.1c0.2-0.4,0.5-0.8,0.6-1.3c0.2-0.5,0.3-0.9,0.4-1.4
				c-0.2,0-0.3-0.1-0.5-0.1c-0.1,0-0.3-0.1-0.4-0.2c-0.1,0-0.1-0.1-0.1-0.1c0,0,0-0.1,0-0.2c0-0.2,0-0.4,0-0.6
				C178.4,32.2,178.4,32,178.5,31.9z M181.8,35.6l1,0.9c0,0,0,0.1,0,0.1l-0.7,0.9c0,0.1-0.1,0.1-0.1,0l-1-0.9c0,0,0-0.1,0-0.1
				l0.7-0.9C181.7,35.6,181.7,35.6,181.8,35.6z"/>
			<path class="st0" d="M192,24.9c-0.3,0.1-0.6,0.3-0.9,0.4c-0.3,0.1-0.6,0.3-0.9,0.4c-0.3,0.1-0.6,0.3-0.8,0.4
				c-0.3,0.1-0.5,0.2-0.6,0.3c0,0-0.1,0-0.1,0c0,0,0,0,0-0.1c0,0,0-0.1,0.1-0.2c0-0.1,0.1-0.2,0.1-0.3c0-0.1,0.1-0.2,0.1-0.2
				c0-0.1,0.1-0.1,0.1-0.1c0-0.1,0.1-0.1,0.2-0.2l3.2-1.4c0.1,0,0.1,0,0.1,0.1c0,0.1,0,0.1-0.1,0.2c0,0.1-0.1,0.1-0.1,0.2
				c0,0.1-0.1,0.1-0.1,0.2c0,0.1-0.1,0.1-0.1,0.2C192.1,24.9,192,24.9,192,24.9z"/>
			<path class="st0" d="M189,33.4c0.3-0.3,0.5-0.7,0.8-1c0.3-0.3,0.6-0.7,0.9-1c0.3-0.3,0.6-0.6,1-0.9c0.3-0.3,0.7-0.5,1.1-0.8
				c0.2-0.1,0.4-0.2,0.6-0.2c0.2,0,0.5,0,0.7,0c0.2,0,0.5,0.1,0.7,0.2c0.2,0.1,0.5,0.2,0.7,0.3c0.2,0.1,0.3,0.3,0.5,0.5
				c0.1,0.2,0.2,0.4,0.2,0.7c0,0.5-0.1,1-0.4,1.4c-0.2,0.4-0.5,0.7-0.9,1c-0.4,0.3-0.8,0.5-1.2,0.7c-0.5,0.2-0.9,0.3-1.4,0.4
				c-0.3,0.1-0.6,0.1-0.9,0.1c-0.3,0-0.6,0-0.9,0c-0.3,0-0.6,0-0.9-0.1c-0.3,0-0.5-0.1-0.8-0.1c0,0.1-0.1,0.2-0.2,0.3
				c-0.1,0.1-0.1,0.2-0.1,0.3c-0.1,0.2-0.1,0.2-0.2,0.2c-0.1,0-0.1,0-0.1-0.1c0-0.1,0-0.1,0-0.2c0-0.1,0-0.2,0.1-0.3
				c0-0.1,0.1-0.2,0.1-0.3c-0.2-0.1-0.3-0.1-0.4-0.2c-0.1-0.1-0.2-0.1-0.3-0.2c-0.1-0.1-0.2-0.2-0.3-0.3c-0.1-0.1-0.2-0.2-0.3-0.4
				c-0.3,0.4-0.6,0.7-1,0.9c-0.4,0.2-0.8,0.3-1.4,0.3h-0.2c-0.2,0-0.3-0.1-0.4-0.2c-0.1-0.1-0.1-0.3-0.1-0.5c0-0.2,0-0.3,0.1-0.5
				c0.1-0.1,0.2-0.2,0.4-0.2h0.2c0.3,0,0.5,0,0.8,0c0.2,0,0.5-0.1,0.7-0.3c0.1-0.1,0.2-0.2,0.3-0.3c0.1-0.1,0.2-0.2,0.3-0.4
				c0.1-0.1,0.2-0.3,0.2-0.4c0.1-0.1,0.1-0.3,0.2-0.4c0-0.1,0.1-0.1,0.2-0.2c0.1,0,0.1,0,0.1,0.1c0,0.2,0.1,0.4,0.2,0.6
				c0.1,0.2,0.2,0.4,0.4,0.5c0.2,0.2,0.3,0.3,0.5,0.4C188.6,33.3,188.8,33.4,189,33.4z M189.7,33.4c0.3,0,0.6,0.1,0.9,0.1
				s0.7,0,1-0.1c0.4,0,0.7-0.1,1.1-0.2c0.4-0.1,0.7-0.2,1-0.3c0.3-0.1,0.6-0.3,0.9-0.4c0.3-0.2,0.5-0.3,0.7-0.5
				c-0.1-0.3-0.3-0.5-0.5-0.6c-0.2-0.2-0.5-0.3-0.7-0.4c-0.3-0.1-0.5-0.1-0.8-0.1c-0.3,0-0.5,0-0.7,0.1c-0.3,0.1-0.6,0.3-0.8,0.4
				c-0.3,0.2-0.5,0.4-0.8,0.6c-0.2,0.2-0.5,0.5-0.7,0.7C190.1,32.9,189.9,33.2,189.7,33.4z"/>
			<path class="st0" d="M207.2,33.3c0.1-0.3,0.1-0.5,0.2-0.7c0.1-0.2,0.1-0.4,0.2-0.6c0-0.1,0-0.1,0.1-0.1c0,0,0.1,0,0.1,0.1
				c0.1,0.2,0.2,0.4,0.3,0.6c0.1,0.2,0.2,0.4,0.3,0.6c0.1,0.1,0.1,0.1,0.3,0.1c0.1,0,0.2,0.1,0.3,0.1c0.1,0,0.2,0,0.3,0
				c0.1,0,0.2,0,0.2,0h0.2c0.2,0,0.3,0.1,0.4,0.2c0.1,0.1,0.1,0.3,0.1,0.5c0,0.2,0,0.3-0.1,0.5c-0.1,0.1-0.2,0.2-0.4,0.2h-0.2
				c-0.3,0-0.6,0-0.8-0.1c0,0.3,0.1,0.7,0.1,1.1c0,0.4,0,0.7-0.1,1.1c-0.1,0.6-0.3,1.1-0.6,1.5c-0.3,0.4-0.7,0.8-1.1,1
				c-0.4,0.3-0.9,0.5-1.5,0.6c-0.5,0.1-1,0.2-1.6,0.2c-0.5,0-0.9-0.1-1.3-0.2c-0.4-0.1-0.7-0.4-1-0.6c-0.3-0.3-0.5-0.6-0.7-1
				c-0.2-0.4-0.2-0.8-0.2-1.3c0-0.6,0.1-1.1,0.3-1.6c0.2-0.5,0.4-1,0.7-1.5c0-0.1,0.1-0.1,0.1-0.1c0,0,0,0,0.1,0c0,0,0,0.1,0,0.1
				c0,0,0,0.1,0,0.1c-0.3,0.5-0.4,1.1-0.5,1.6c-0.1,0.6,0,1.1,0.1,1.5c0.1,0.2,0.2,0.4,0.3,0.6c0.1,0.2,0.3,0.3,0.5,0.5
				c0.2,0.1,0.4,0.2,0.7,0.3c0.3,0.1,0.6,0.1,0.9,0.1c0.4,0,0.8,0,1.2-0.1c0.4-0.1,0.8-0.2,1.1-0.3c0.4-0.1,0.7-0.3,1-0.6
				c0.3-0.2,0.6-0.5,0.9-0.8c0-0.3,0-0.6-0.1-0.9c0-0.3-0.1-0.6-0.2-1c-0.1-0.3-0.2-0.6-0.3-1S207.3,33.6,207.2,33.3z M205.4,29.5
				l1,0.9c0,0,0,0.1,0,0.1l-0.7,0.9c0,0.1-0.1,0.1-0.1,0l-1-0.9c0,0,0-0.1,0-0.1l0.7-0.9C205.3,29.5,205.4,29.5,205.4,29.5z"/>
			<path d="M213.9,24.9c-0.3,0.1-0.6,0.3-0.9,0.4c-0.3,0.1-0.6,0.3-0.9,0.4c-0.3,0.1-0.6,0.3-0.8,0.4c-0.3,0.1-0.5,0.2-0.6,0.3
				c0,0-0.1,0-0.1,0c0,0,0,0,0-0.1c0,0,0-0.1,0.1-0.2c0-0.1,0.1-0.2,0.1-0.3c0-0.1,0.1-0.2,0.1-0.2c0-0.1,0.1-0.1,0.1-0.1
				c0-0.1,0.1-0.1,0.2-0.2l3.2-1.4c0.1,0,0.1,0,0.1,0.1c0,0.1,0,0.1-0.1,0.2c0,0.1-0.1,0.1-0.1,0.2c0,0.1-0.1,0.1-0.1,0.2
				c0,0.1-0.1,0.1-0.1,0.2C214,24.9,214,24.9,213.9,24.9z"/>
			<path d="M214.5,34.5c0,0.1,0,0.1-0.1,0.2c0,0.1-0.1,0.1-0.1,0.2c0,0.1-0.1,0.1-0.1,0.2c0,0-0.1,0.1-0.1,0.1c-0.1,0-0.3,0-0.4,0
				c-0.2,0-0.4-0.1-0.5-0.1c-0.2-0.1-0.4-0.1-0.6-0.2c-0.2-0.1-0.4-0.2-0.5-0.3c-0.2-0.1-0.3-0.2-0.4-0.3c-0.1-0.1-0.2-0.2-0.2-0.4
				c-0.1,0.2-0.3,0.4-0.5,0.5c-0.2,0.1-0.3,0.2-0.5,0.3c-0.2,0.1-0.3,0.1-0.5,0.2c-0.2,0-0.3,0-0.5,0h-0.2c-0.2,0-0.3-0.1-0.4-0.2
				c-0.1-0.1-0.1-0.3-0.1-0.5c0-0.2,0-0.3,0.1-0.5c0.1-0.1,0.2-0.2,0.4-0.2h0.2c0.2,0,0.4,0,0.6,0c0.2,0,0.4,0,0.6-0.1
				c0.2-0.1,0.4-0.2,0.6-0.3c0.2-0.1,0.4-0.3,0.5-0.5c0.1-0.1,0.2-0.2,0.3-0.4c0.1-0.1,0.2-0.2,0.3-0.3c0.1-0.1,0.2-0.2,0.3-0.2
				c0.1-0.1,0.2-0.1,0.3-0.1c0.1,0,0.2,0,0.3,0.1c0.1,0.1,0.2,0.2,0.4,0.3c0.1,0.1,0.2,0.3,0.3,0.4c0.1,0.1,0.2,0.2,0.3,0.3
				c0.3,0.3,0.6,0.5,0.9,0.6c0.3,0.1,0.7,0.2,1.1,0.2h0.2c0.2,0,0.3,0.1,0.4,0.2c0.1,0.1,0.1,0.3,0.1,0.5c0,0.2,0,0.3-0.1,0.5
				c-0.1,0.1-0.2,0.2-0.4,0.2h-0.2c-0.3,0-0.6,0-1-0.1C215,34.7,214.7,34.6,214.5,34.5z M212.1,33c0.1,0.1,0.3,0.2,0.4,0.3
				c0.1,0.1,0.3,0.1,0.4,0.2c0.1,0.1,0.3,0.1,0.4,0.1c0.1,0,0.2,0.1,0.3,0.1c0,0,0,0,0.1,0c0,0,0,0,0-0.1c-0.1-0.1-0.2-0.2-0.2-0.3
				c-0.1-0.1-0.1-0.2-0.2-0.3c0-0.1-0.1-0.2-0.1-0.3c0-0.1-0.1-0.1-0.1-0.2c-0.1-0.1-0.1-0.1-0.2-0.1c-0.1,0-0.2,0.1-0.4,0.2
				c-0.1,0.1-0.3,0.2-0.4,0.4C212.1,32.8,212.1,32.9,212.1,33C212.1,32.9,212.1,32.9,212.1,33z"/>
			<path d="M218.6,21c-0.3,0.1-0.6,0.3-0.9,0.4c-0.3,0.1-0.6,0.3-0.9,0.4c-0.3,0.1-0.6,0.3-0.8,0.4c-0.3,0.1-0.5,0.2-0.6,0.3
				c0,0-0.1,0-0.1,0c0,0,0,0,0-0.1c0,0,0-0.1,0.1-0.2c0-0.1,0.1-0.2,0.1-0.3c0-0.1,0.1-0.2,0.1-0.2c0-0.1,0.1-0.1,0.1-0.1
				c0-0.1,0.1-0.1,0.2-0.2L219,20c0.1,0,0.1,0,0.1,0.1c0,0.1,0,0.1-0.1,0.2c0,0.1-0.1,0.1-0.1,0.2c0,0.1-0.1,0.1-0.1,0.2
				c0,0.1-0.1,0.1-0.1,0.2C218.7,20.9,218.7,20.9,218.6,21z"/>
			<path d="M217.1,23C217.1,22.9,217.1,22.9,217.1,23c0.1-0.1,0.1-0.1,0.1,0c0,0.1,0.1,0.3,0.2,0.4c0.1,0.1,0.1,0.3,0.2,0.4
				c0.1,0.1,0.2,0.3,0.3,0.4c0.1,0.1,0.2,0.2,0.3,0.3c-0.1,0.1-0.1,0.3-0.2,0.4c-0.1,0.1-0.1,0.2-0.1,0.3c0,0.1-0.1,0.2-0.1,0.2
				c0,0.1,0,0.2,0,0.3c0.1,0.6,0.1,1.1,0.2,1.7c0.1,0.6,0.2,1.1,0.2,1.7c0.1,0.6,0.1,1.1,0.2,1.7c0.1,0.6,0.1,1.1,0.1,1.7
				c0,0.2,0,0.4,0,0.6c0,0.2-0.1,0.4-0.1,0.6c-0.1,0.2-0.1,0.3-0.2,0.5s-0.2,0.3-0.3,0.4c-0.2,0.1-0.4,0.3-0.6,0.3
				c-0.2,0.1-0.5,0.1-0.9,0.1h-0.2c-0.2,0-0.3-0.1-0.4-0.2c-0.1-0.1-0.1-0.3-0.1-0.5c0-0.2,0-0.3,0.1-0.5c0.1-0.1,0.2-0.2,0.4-0.2
				h0.2c0.2,0,0.4,0,0.5,0c0.2,0,0.3,0,0.5-0.1c0.1,0,0.3-0.1,0.4-0.2c0.1-0.1,0.2-0.2,0.2-0.3c-0.1-1.2-0.3-2.5-0.4-3.7
				c-0.2-1.2-0.3-2.4-0.5-3.6c0-0.2-0.1-0.5-0.1-0.7c0-0.2-0.1-0.5-0.2-0.7c0-0.1-0.1-0.1-0.1-0.1c0,0,0-0.1,0-0.1
				c0.1-0.2,0.2-0.3,0.3-0.5C216.9,23.3,217,23.1,217.1,23z"/>
			<path d="M223.9,26.3c-0.3,0.1-0.6,0.3-0.9,0.4c-0.3,0.1-0.6,0.3-0.9,0.4c-0.3,0.1-0.6,0.3-0.8,0.4c-0.3,0.1-0.5,0.2-0.6,0.3
				c0,0-0.1,0-0.1,0c0,0,0,0,0-0.1c0,0,0-0.1,0.1-0.2c0-0.1,0.1-0.2,0.1-0.3c0-0.1,0.1-0.2,0.1-0.2c0-0.1,0.1-0.1,0.1-0.1
				c0-0.1,0.1-0.1,0.2-0.2l3.2-1.4c0.1,0,0.1,0,0.1,0.1c0,0.1,0,0.1-0.1,0.2c0,0.1-0.1,0.1-0.1,0.2c0,0.1-0.1,0.1-0.1,0.2
				c0,0.1-0.1,0.1-0.1,0.2C224,26.2,223.9,26.2,223.9,26.3z"/>
			<path d="M224.5,33.2c-0.1,0.2-0.2,0.5-0.4,0.6c-0.2,0.2-0.5,0.3-0.8,0.3c-0.2,0-0.3,0-0.4-0.1s-0.3-0.2-0.4-0.3
				c-0.1-0.1-0.2-0.3-0.2-0.5c-0.1-0.2-0.1-0.3-0.1-0.5c0-0.1,0-0.3,0.1-0.4c0-0.2,0.1-0.3,0.2-0.5c0.1-0.2,0.1-0.3,0.2-0.5
				c0.1-0.2,0.2-0.3,0.3-0.4c0.1-0.1,0.2-0.2,0.3-0.3c0.1-0.1,0.2-0.1,0.4-0.1c0.2,0,0.4,0.1,0.6,0.3c0.2,0.2,0.4,0.4,0.5,0.7
				c0.1,0.3,0.2,0.6,0.3,0.9c0.1,0.3,0.1,0.7,0.1,1c0,0.4-0.1,0.9-0.2,1.3c-0.1,0.5-0.2,0.9-0.4,1.3c-0.2,0.4-0.3,0.9-0.6,1.2
				c-0.2,0.4-0.4,0.7-0.7,1c-0.2,0.3-0.5,0.5-0.7,0.6c-0.3,0.2-0.5,0.3-0.8,0.4c-0.3,0.1-0.6,0.2-0.9,0.2c-0.3,0-0.6,0-0.9,0
				c-0.3,0-0.7-0.1-1-0.1c-0.3-0.1-0.6-0.1-0.9-0.2c0,0-0.1,0-0.1-0.1c0,0,0-0.1,0-0.1c0,0,0-0.1,0.1-0.1c0,0,0.1,0,0.2,0
				c0.5,0.1,0.9,0,1.3,0c0.4-0.1,0.9-0.2,1.3-0.3c0.4-0.1,0.7-0.3,1-0.5c0.3-0.2,0.6-0.5,0.9-0.7c0.2-0.2,0.4-0.4,0.6-0.7
				c0.2-0.3,0.4-0.5,0.5-0.8c0.2-0.3,0.3-0.6,0.4-0.9c0.1-0.3,0.2-0.6,0.2-0.8c0-0.1,0-0.1,0-0.2c0-0.1,0-0.1,0-0.2
				c0-0.1,0-0.1,0-0.2C224.5,33.3,224.5,33.3,224.5,33.2z M224.2,32.5c0,0,0-0.1-0.1-0.2c0-0.1-0.1-0.2-0.2-0.3
				c-0.1-0.1-0.2-0.2-0.3-0.2c-0.1-0.1-0.2-0.1-0.3-0.1c-0.1,0-0.2,0-0.2,0.1c-0.1,0.1-0.1,0.1-0.2,0.2c0,0.1-0.1,0.2-0.1,0.2
				c0,0.1,0,0.1,0,0.2c0.1,0.1,0.2,0.2,0.3,0.2c0.1,0,0.3,0.1,0.4,0.1c0.1,0,0.3,0,0.4-0.1C224.1,32.6,224.1,32.5,224.2,32.5z"/>
			<path d="M239.6,30.3c0,0.1-0.1,0.3-0.2,0.4c-0.2,0.2-0.4,0.4-0.8,0.6c0,0.4-0.1,0.7-0.2,1.1c-0.1,0.3-0.2,0.5-0.3,0.5
				c-0.4-0.4-0.7-0.7-1-1c-0.4-0.3-0.7-0.5-1.1-0.5c0,0.4,0.2,0.8,0.5,1.2c0.3,0.3,0.6,0.7,0.9,1c0,0.2-0.3,0.3-0.9,0.5
				c-0.5,0.1-0.8,0.1-1.1,0.1c-0.4,1.4-1.1,2.7-1.9,3.9c-0.3,0.5-0.8,1.1-1.4,1.7c-0.8,0.8-1.3,1.2-1.7,1.2c-0.1,0-0.2-0.1-0.2-0.2
				c0-0.1,0.2-0.4,0.7-0.9c0.6-0.8,1.1-1.4,1.4-2.1c0.6-1.1,0.9-2.3,1.1-3.7c-0.4-0.1-0.7-0.1-0.8-0.2c-0.1-0.1-0.2-0.1-0.2-0.3
				c0.9-0.8,1.4-1.5,1.4-2.2c-0.4,0-0.8,0.2-1.1,0.5c-0.2,0.2-0.5,0.6-1,1c-0.1,0-0.2-0.2-0.4-0.5c-0.1-0.4-0.2-0.7-0.2-1.1
				c-0.4-0.2-0.6-0.4-0.7-0.4c-0.2-0.2-0.4-0.4-0.4-0.6c0-0.1,0.1-0.3,0.2-0.4c0.1-0.1,0.3-0.3,0.8-0.5c0-1.1,0.2-1.6,0.5-1.6
				c0.8,0.9,1.4,1.3,2.1,1.4c0-0.3-0.2-0.8-0.5-1.2c0,0-0.3-0.4-0.9-1c0-0.1,0.1-0.2,0.2-0.2c0.1-0.1,0.4-0.1,0.8-0.2
				c-0.2-1.1-0.6-2.2-1.2-3.3c-0.6-1.1-1.3-2.1-2.1-2.8c-0.1-0.1-0.2-0.2-0.2-0.3c0-0.1,0.1-0.2,0.2-0.2c0.2,0,0.6,0.2,1.2,0.6
				c1.7,1.3,3,3.2,3.9,5.8c1.3,0,2,0.2,2,0.6c-0.4,0.3-0.7,0.7-0.9,1c-0.3,0.4-0.4,0.8-0.4,1.2c0.3,0,0.6-0.2,1-0.5l1-1
				c0.2,0,0.4,0.5,0.5,1.4c0,0.1,0,0.2,0,0.3C239.3,29.7,239.6,30,239.6,30.3z M236.6,27.1c0,0-0.1-0.1-0.4-0.1s-0.4-0.1-0.5-0.1
				h-0.4c-0.1,0-0.2,0-0.3,0.1c-0.4-1.2-0.9-2.4-1.6-3.5c-0.8-1.2-1.8-2.2-2.8-3c0.7,0.7,1.4,1.6,1.9,2.6c0.7,1.2,1.1,2.5,1.3,3.8
				c-0.5,0-0.7,0.1-0.8,0.2c0.6,0.5,1,1,1.2,1.5c0.1-0.2,0.2-0.5,0.3-0.7c0,0,0.1-0.1,0.1-0.3c0.1-0.2,0.1-0.3,0.2-0.3
				c0.2,0,0.4,0.5,0.7,1.4c0.1-0.3,0.3-0.7,0.5-0.9C236.2,27.5,236.4,27.3,236.6,27.1z M233.4,31.1c-0.1-0.1-0.5-0.2-1-0.4
				c-0.4-0.1-0.6-0.2-0.6-0.3c0,0,0.3-0.2,0.9-0.4c0.1-0.1,0.4-0.2,0.7-0.3c-0.3-0.1-0.6-0.3-0.9-0.5c-0.1-0.1-0.3-0.3-0.6-0.6
				c-0.1,0-0.2,0.4-0.2,1.2c-0.6,0.3-0.8,0.6-0.9,0.7c0,0.2,0.3,0.3,0.9,0.6c0,0.8,0.1,1.3,0.2,1.3c0,0,0.2-0.2,0.6-0.5
				C232.9,31.4,233.2,31.2,233.4,31.1z M236.7,33.6c-0.5-0.4-0.8-0.9-1.1-1.4c-0.1,0.2-0.2,0.4-0.3,0.7c0,0-0.1,0.2-0.2,0.4
				c-0.1,0.2-0.2,0.3-0.2,0.3c0,0-0.1-0.1-0.2-0.3c-0.1-0.2-0.1-0.3-0.1-0.3c0-0.1-0.1-0.3-0.3-0.7c-0.1,0.3-0.3,0.6-0.5,0.8
				c-0.2,0.2-0.4,0.4-0.6,0.6c0,0.1,0.2,0.1,0.7,0.3c-0.3,1.3-0.5,2.1-0.6,2.4c-0.4,1.4-1.2,2.8-2.3,4.1c1.8-1.3,3.1-3.4,4.1-6.5
				c0.7,0,1,0,0.8,0C236.4,33.9,236.7,33.8,236.7,33.6z M236.1,30.4c0-0.4-0.1-0.7-0.4-0.9c-0.2-0.2-0.5-0.3-0.9-0.3
				c-0.3,0-0.6,0.1-0.9,0.4c-0.2,0.2-0.4,0.5-0.4,0.9c0,0.4,0.1,0.7,0.3,0.9c0.2,0.2,0.5,0.4,0.9,0.4c0.4,0,0.6-0.1,0.9-0.4
				C236,31.1,236.1,30.8,236.1,30.4z M239.1,30.3c0-0.1-0.1-0.2-0.2-0.3c-0.2-0.1-0.4-0.2-0.6-0.3c0-0.4,0-0.7-0.1-0.9
				c-0.1-0.2-0.1-0.4-0.2-0.4c0,0-0.2,0.2-0.5,0.5c-0.3,0.3-0.6,0.6-1,0.7c0.2,0.1,0.4,0.2,0.7,0.4c0,0,0.2,0.1,0.5,0.2
				c0.3,0.1,0.4,0.2,0.4,0.2c0,0.1-0.2,0.2-0.6,0.3c-0.6,0.2-1,0.3-1,0.3c0.4,0.1,0.7,0.3,0.9,0.5c0.1,0.1,0.3,0.3,0.6,0.6
				c0.1,0,0.1-0.1,0.2-0.3c0-0.1,0-0.4,0-0.8C238.8,30.7,239.1,30.4,239.1,30.3z"/>
		</g>
	</g>
	<rect class="st1" width="242.6" height="62.3"/>
</g>
</svg>
