<?xml version="1.0" encoding="utf-8"?>
<!-- Generator: Adobe Illustrator 19.2.0, SVG Export Plug-In . SVG Version: 6.00 Build 0)  -->
<svg version="1.1" id="Layer_1" xmlns="http://www.w3.org/2000/svg" xmlns:xlink="http://www.w3.org/1999/xlink" x="0px" y="0px"
	 viewBox="0 0 242.6 62.3" style="enable-background:new 0 0 242.6 62.3;" xml:space="preserve">
<style type="text/css">
	.st0{fill:#F5712E;}
	.st1{fill:none;}
</style>
<g>
	<g>
		<g>
			<path d="M22.7,5.4c-0.3,0.1-0.5,0.2-0.8,0.3c-0.3,0.1-0.6,0.1-0.8,0.1c-0.2,0-0.4-0.1-0.6-0.1c-0.2-0.1-0.3-0.2-0.5-0.4
				c-0.1,0.2-0.2,0.3-0.3,0.4c-0.1,0.1-0.3,0.2-0.5,0.2c-0.2,0-0.3,0-0.5-0.1c-0.1-0.1-0.2-0.3-0.3-0.5c0,0,0,0.1-0.1,0.1
				c0,0.1-0.1,0.2-0.1,0.2C18.1,5.8,18,5.9,18,6c-0.1,0.1-0.2,0.1-0.3,0.2c-0.1,0.1-0.2,0.1-0.3,0.2c-0.1,0.1-0.2,0.1-0.3,0.2
				c-0.1,0-0.1,0.1-0.1,0.2c0,0,0,0.1,0.1,0.1c0,0,0.1,0.1,0.1,0.1C17.5,6.9,17.7,7,17.9,7c0.2,0,0.4,0,0.7,0c0.2,0,0.4,0,0.6-0.1
				c0.2,0,0.4,0,0.7-0.1c0.3,0,0.5,0,0.7-0.1c0.2,0,0.4,0,0.6-0.1c0.2,0,0.4,0,0.6-0.1c0.2,0,0.5,0,0.8,0c0,0,0.1,0,0,0.1
				c-0.1,0.1-0.1,0.2-0.2,0.3c0,0.1-0.1,0.1-0.1,0.2c-0.3,0-0.5,0-0.7,0.1c-0.2,0-0.4,0-0.6,0.1c-0.2,0-0.4,0-0.6,0.1
				c-0.2,0-0.4,0-0.7,0.1c-0.4,0.1-0.8,0.1-1.2,0.1c-0.4,0-0.7,0.1-1,0c-0.3,0-0.5-0.1-0.7-0.2c-0.2-0.1-0.3-0.3-0.3-0.5
				c0-0.2,0.1-0.4,0.1-0.5C16.9,6.3,17,6.1,17.1,6c0.1-0.1,0.2-0.2,0.4-0.3c0.1-0.1,0.3-0.2,0.4-0.3c0.1-0.1,0.2-0.1,0.2-0.2
				c0-0.1,0.1-0.1,0.1-0.2c0-0.3-0.1-0.7-0.1-1.1C18,3.4,18,3,17.9,2.4c0,0,0,0,0,0c0,0,0,0,0-0.1c0-0.1,0.1-0.1,0.1-0.2
				c0,0,0.1-0.1,0.1-0.2c0,0,0,0,0,0c0,0,0,0,0,0c0,0.2,0,0.5,0.1,0.7c0,0.3,0.1,0.5,0.1,0.8c0,0.3,0.1,0.5,0.1,0.7
				c0,0.2,0.1,0.4,0.1,0.5c0.1,0.4,0.3,0.6,0.6,0.6c0.1,0,0.3-0.1,0.4-0.2C19.7,5,19.9,4.9,20,4.6c0,0,0-0.1,0.1-0.1
				c0,0,0.1,0,0.1,0.1c0.1,0.3,0.3,0.4,0.5,0.5c0.1-0.2,0.2-0.3,0.3-0.5c0.1-0.2,0.2-0.3,0.4-0.5c0.1-0.2,0.3-0.3,0.4-0.4
				c0.2-0.1,0.3-0.2,0.5-0.3c0.1,0,0.3,0,0.4,0c0.1,0,0.3,0.1,0.4,0.1c0.1,0.1,0.2,0.2,0.3,0.3c0.1,0.1,0.1,0.2,0.1,0.4
				c0,0.3-0.1,0.5-0.2,0.7C23.1,5.1,22.9,5.3,22.7,5.4z M20.9,5.1c0.2,0,0.4,0,0.5,0c0.2,0,0.4,0,0.5-0.1c0.2-0.1,0.5-0.1,0.7-0.2
				c0.2-0.1,0.3-0.2,0.5-0.4C23,4.2,22.8,4.1,22.6,4c-0.2,0-0.4,0-0.6,0.1c-0.1,0.1-0.2,0.1-0.3,0.2c-0.1,0.1-0.2,0.1-0.3,0.2
				c-0.1,0.1-0.2,0.2-0.2,0.3C21.1,4.9,21,5,20.9,5.1z"/>
			<path d="M24.3,12.8c0,0.2,0,0.4-0.1,0.6c0,0.2-0.1,0.4-0.2,0.5c-0.1,0.1-0.2,0.3-0.4,0.3c-0.2,0.1-0.4,0.1-0.6,0.1
				c-0.3,0-0.5-0.1-0.7-0.3S22,13.6,22,13.3c0-0.2,0-0.4,0.1-0.6c0-0.2,0.1-0.5,0.2-0.7c0.1-0.2,0.2-0.4,0.4-0.6
				c0.2-0.2,0.4-0.3,0.6-0.3c0.2,0,0.4,0,0.5,0.1c0.1,0.1,0.3,0.3,0.3,0.4c0.1,0.2,0.1,0.4,0.2,0.5C24.3,12.5,24.3,12.7,24.3,12.8z
				 M23.1,12.2c-0.1,0-0.2,0.1-0.3,0.1c-0.1,0.1-0.2,0.1-0.2,0.2c-0.1,0.1-0.1,0.2-0.2,0.3c0,0.1-0.1,0.2-0.1,0.3
				c0,0.1,0,0.2,0.1,0.2c0.1,0.1,0.1,0.1,0.2,0.1c0.1,0,0.2,0,0.2,0.1c0.1,0,0.2,0,0.2,0c0.3,0,0.6-0.2,0.8-0.4c0-0.1,0-0.2,0-0.3
				c0-0.1-0.1-0.2-0.2-0.3c-0.1-0.1-0.2-0.2-0.3-0.2C23.3,12.2,23.2,12.1,23.1,12.2z"/>
			<path d="M23.9,19.5c0.1,0,0.2,0,0.3,0.1c0.1,0.1,0.2,0.1,0.3,0.2c0.1,0.1,0.2,0.2,0.3,0.3c0.1,0.1,0.2,0.2,0.3,0.3
				c0.2,0.1,0.3,0.3,0.5,0.3c0.2,0.1,0.4,0.2,0.6,0.2c0.2,0,0.4,0.1,0.6,0.1c0.2,0,0.4,0,0.6,0h0.2c0.2,0,0.3,0.1,0.4,0.2
				c0.1,0.1,0.1,0.3,0.1,0.5c0,0.2,0,0.3-0.1,0.5c-0.1,0.1-0.2,0.2-0.4,0.2h-0.2c-0.3,0-0.6,0-0.9,0c-0.4,0-0.7-0.1-1.1-0.2
				c0,0.2,0,0.3-0.1,0.4c0,0.1-0.1,0.2-0.1,0.2c-0.2,0-0.5,0-0.8,0c-0.3-0.1-0.6-0.1-0.9-0.2c-0.3-0.1-0.6-0.2-0.8-0.4
				c-0.2-0.1-0.4-0.3-0.5-0.4c-0.1,0-0.2,0.1-0.4,0.2s-0.2,0.2-0.3,0.3c-0.1,0.1-0.2,0.2-0.3,0.4c-0.1,0.1-0.1,0.3-0.1,0.4
				c0,0.2,0,0.5,0.1,0.9c0,0.4,0.1,0.7,0.2,1.1c0.1,0.4,0.1,0.8,0.2,1.2s0.1,0.7,0.2,1c0,0.2,0.1,0.5,0.1,0.8c0,0.3,0.1,0.6,0.1,0.9
				c0,0.3,0,0.6,0,0.8c0,0.3,0,0.5-0.1,0.6c0,0.1-0.1,0.1-0.1,0.1c0,0-0.1,0-0.1-0.1c0-0.1-0.1-0.2-0.1-0.4c0-0.1,0-0.2-0.1-0.4
				c0-0.1-0.1-0.3-0.1-0.7c0-0.3-0.1-0.8-0.2-1.4c-0.2-1.1-0.3-2-0.4-2.7c-0.1-0.7-0.2-1.2-0.2-1.6c0-0.5,0-1,0.2-1.4
				c0.1-0.4,0.3-0.7,0.6-1c0.1-0.1,0.2-0.2,0.3-0.3c0.1-0.1,0.3-0.2,0.4-0.4c0.2-0.1,0.3-0.3,0.5-0.4c0.2-0.1,0.3-0.2,0.5-0.4
				c0.2-0.1,0.3-0.2,0.5-0.3C23.7,19.5,23.8,19.5,23.9,19.5z M23.7,20.4c-0.1,0-0.3,0-0.5,0.1c-0.2,0.1-0.3,0.2-0.4,0.3
				c0,0,0,0,0,0.1c0,0,0,0,0,0.1c0.1,0.1,0.3,0.2,0.5,0.2c0.2,0.1,0.4,0.1,0.6,0.2c0.2,0.1,0.4,0.1,0.5,0.1c0.2,0,0.3,0,0.3,0
				c-0.1-0.1-0.2-0.3-0.3-0.4c-0.1-0.1-0.2-0.2-0.3-0.3c-0.1-0.1-0.2-0.2-0.3-0.2C23.8,20.5,23.8,20.4,23.7,20.4z"/>
			<path d="M29.3,13.4c-0.1,0-0.1,0,0-0.1c0-0.1,0.1-0.1,0.2-0.2c0.2-0.1,0.4-0.3,0.5-0.4c0.2-0.1,0.4-0.2,0.5-0.4
				c0.2-0.1,0.3-0.3,0.5-0.4c0.2-0.1,0.3-0.3,0.5-0.5c-0.1,0-0.3-0.1-0.5-0.2c-0.2-0.1-0.3-0.2-0.4-0.4c-0.1-0.1-0.1-0.2-0.1-0.3
				c0-0.1,0-0.2,0-0.3c0.1-0.1,0.1-0.3,0.2-0.5c0.1-0.2,0.2-0.3,0.3-0.4c0.1-0.1,0.2-0.2,0.4-0.3s0.3-0.1,0.4-0.1
				c0.1,0,0.2,0,0.3,0.1c0.1,0.1,0.1,0.2,0.2,0.3c0,0.1,0.1,0.2,0.1,0.4c0,0.1,0,0.3,0,0.4c0,0.1,0,0.3,0,0.4c0,0.1,0,0.2,0,0.3
				c0,0,0,0,0,0.1c0.1,0,0.1,0.1,0.1,0.1c0,0,0,0.1,0.1,0.1c0,0.1,0,0.2,0,0.3c0,0.1-0.1,0.2-0.1,0.3c0,0.1-0.1,0.1-0.1,0.1
				c0,0-0.1,0-0.1-0.1c0,0,0-0.1-0.1-0.1c0,0-0.1-0.1-0.1-0.1c-0.2,0.2-0.3,0.4-0.5,0.6c-0.2,0.2-0.3,0.3-0.5,0.4
				c-0.2,0.1-0.4,0.2-0.6,0.3c-0.2,0.1-0.4,0.2-0.7,0.3c-0.1,0-0.2,0.1-0.3,0.1S29.4,13.4,29.3,13.4z M31.1,10.1
				c0.1,0.2,0.3,0.3,0.4,0.4c0.2,0.1,0.3,0.2,0.4,0.2h0c0-0.1,0-0.1,0-0.2c0-0.1,0-0.2,0-0.2c0-0.1,0-0.2,0-0.2
				c0-0.1-0.1-0.1-0.1-0.2c0,0-0.1-0.1-0.2-0.1c-0.1,0-0.2,0-0.2,0c-0.1,0-0.2,0.1-0.2,0.1C31.2,10,31.1,10.1,31.1,10.1z"/>
			<path d="M27.5,21.1c0.6,0,1.2,0,2,0c0.7,0,1.5,0,2.3,0c0.8,0,1.7-0.1,2.6-0.1c0.9,0,1.9-0.1,2.8-0.2c1-0.1,1.9-0.2,2.9-0.3
				c1-0.1,2-0.2,2.9-0.4c0-0.2-0.1-0.4-0.1-0.5c-0.1-0.2-0.2-0.3-0.3-0.4c-0.1-0.1-0.3-0.2-0.5-0.2c-0.2-0.1-0.4-0.1-0.6-0.1
				c-0.8,0-1.7,0.1-2.7,0.1c-0.9,0.1-1.9,0.2-2.9,0.2c-1,0.1-1.9,0.1-2.9,0.2c-1,0-1.9,0-2.7,0c-0.1,0-0.2,0-0.3,0
				c-0.1,0-0.3,0-0.5-0.1c-0.2,0-0.4-0.1-0.5-0.1s-0.4-0.1-0.5-0.1c-0.2-0.1-0.3-0.1-0.4-0.2c-0.1-0.1-0.2-0.2-0.2-0.3
				c0-0.2,0-0.4,0.1-0.7c0.1-0.3,0.2-0.5,0.3-0.7c0.1-0.2,0.3-0.5,0.4-0.7c0.2-0.2,0.3-0.4,0.5-0.5c1.2-1,2.5-1.8,4-2.2
				c0.1,0,0.1,0,0.2,0c0,0,0.1,0,0.1,0.1c0,0,0,0.1,0,0.1c0,0,0,0.1,0,0.1c-0.1,0.2-0.1,0.3-0.2,0.5c-0.1,0.2-0.2,0.3-0.2,0.5
				c-0.1,0-0.2,0-0.4,0.1c-0.2,0.1-0.4,0.1-0.6,0.2c-0.2,0.1-0.5,0.2-0.8,0.3c-0.3,0.1-0.5,0.2-0.8,0.4c-0.2,0.1-0.4,0.2-0.6,0.4
				c-0.2,0.1-0.4,0.3-0.5,0.4c-0.2,0.1-0.3,0.3-0.4,0.4c-0.1,0.1-0.1,0.2-0.1,0.3c0,0.1,0.1,0.2,0.3,0.3c0.2,0.1,0.3,0.1,0.5,0.2
				c0.2,0,0.4,0.1,0.6,0.1c0.2,0,0.3,0,0.4,0c0.6,0.1,1.3,0.1,2,0.1c0.7,0,1.5,0,2.3-0.1c0.8,0,1.5-0.1,2.3-0.2
				c0.8-0.1,1.5-0.1,2.2-0.2c0.2,0,0.5,0,0.8,0c0.3,0,0.6,0,0.9,0c0.3,0,0.6,0,0.9,0.1c0.3,0,0.6,0.1,0.8,0.2
				c0.2,0.1,0.5,0.3,0.6,0.5c0.2,0.2,0.3,0.5,0.3,0.8c0,0.2,0,0.3,0,0.5c0,0.2-0.1,0.3-0.1,0.5c-0.1,0.2-0.1,0.3-0.2,0.5
				c-0.1,0.1-0.1,0.3-0.2,0.4c0,0,0.1,0.1,0.1,0.1c0.1,0,0.1,0,0.2,0c0.1,0,0.2,0,0.3,0c0.1,0,0.3,0,0.5,0h0.2
				c0.2,0,0.3,0.1,0.4,0.2c0.1,0.1,0.1,0.3,0.1,0.5c0,0.2,0,0.3-0.1,0.5c-0.1,0.1-0.2,0.2-0.4,0.2h-0.2c-0.3,0-0.6,0-0.8-0.1
				c-0.2,0-0.4-0.1-0.5-0.2c-0.1-0.1-0.2-0.2-0.3-0.4c0-0.2-0.1-0.4-0.1-0.6c-0.9,0.2-1.9,0.3-2.9,0.4c-1,0.1-2,0.2-3,0.3
				c-1,0.1-2,0.2-2.9,0.2c-1,0.1-1.9,0.1-2.7,0.1c-0.8,0-1.6,0.1-2.3,0.1c-0.7,0-1.3,0-1.7,0h-0.2c-0.2,0-0.3-0.1-0.4-0.2
				c-0.1-0.1-0.1-0.3-0.1-0.5c0-0.2,0-0.3,0.1-0.5c0.1-0.1,0.2-0.2,0.4-0.2H27.5z"/>
			<path d="M50.9,13.1c-0.3,0.1-0.6,0.3-0.9,0.4c-0.3,0.1-0.6,0.3-1,0.4c-0.3,0.1-0.6,0.3-0.9,0.4c-0.3,0.1-0.5,0.2-0.6,0.3
				c0,0-0.1,0-0.1,0c0,0,0,0,0-0.1c0,0,0-0.1,0.1-0.2c0-0.1,0.1-0.2,0.1-0.3c0-0.1,0.1-0.2,0.1-0.2c0-0.1,0.1-0.1,0.1-0.1
				c0.1-0.1,0.1-0.1,0.2-0.2l3.3-1.4c0.1,0,0.1,0,0.1,0.1c0,0.1,0,0.1-0.1,0.2c0,0.1-0.1,0.1-0.1,0.2c0,0.1-0.1,0.1-0.1,0.2
				c0,0.1-0.1,0.1-0.1,0.2C51,13,51,13,50.9,13.1z"/>
			<path d="M50.6,19.6c0.1-0.1,0.1-0.2,0.2-0.2c0.1,0,0.1,0.1,0.1,0.2c0,0.1-0.1,0.2-0.1,0.4c-0.1,0.1-0.1,0.3-0.2,0.4
				c0,0.1,0.1,0.2,0.3,0.3c0.1,0.1,0.3,0.2,0.5,0.2c0.2,0.1,0.4,0.1,0.5,0.1s0.3,0,0.4,0c0.1,0,0.2-0.1,0.3-0.2
				c0.1-0.1,0.2-0.2,0.2-0.3c0.1-0.1,0.1-0.3,0.2-0.4c0.1-0.2,0.1-0.3,0.1-0.5c0-0.2,0.1-0.3,0.2-0.3c0.1,0,0.1,0,0.1,0.2
				c0,0.3,0.1,0.5,0.1,0.8c0.1,0.2,0.2,0.4,0.4,0.5c0.2,0.1,0.4,0.2,0.6,0.3c0.2,0.1,0.5,0.1,0.9,0.1h0.2c0.2,0,0.3,0.1,0.4,0.2
				c0.1,0.1,0.1,0.3,0.1,0.5c0,0.2,0,0.3-0.1,0.5c-0.1,0.1-0.2,0.2-0.4,0.2h-0.2c-0.4,0-0.7,0-1-0.1c-0.3-0.1-0.5-0.2-0.7-0.3
				c-0.2-0.1-0.3-0.3-0.5-0.4c-0.1-0.2-0.2-0.3-0.3-0.4c0,0.1-0.1,0.2-0.2,0.3c-0.1,0.1-0.1,0.3-0.2,0.4c-0.1,0.1-0.2,0.2-0.3,0.3
				c-0.1,0.1-0.2,0.1-0.3,0.1c-0.1,0-0.3,0-0.5-0.1c-0.2,0-0.4-0.1-0.6-0.2c-0.2-0.1-0.4-0.2-0.5-0.3c-0.2-0.1-0.3-0.3-0.4-0.4
				c-0.2,0.2-0.4,0.4-0.7,0.6c-0.2,0.2-0.5,0.3-0.8,0.3c-0.3,0.1-0.6,0.1-0.9,0c-0.3-0.1-0.6-0.2-1-0.3c-0.1,0.1-0.3,0.2-0.5,0.3
				c-0.2,0.1-0.4,0.1-0.5,0.2c-0.2,0-0.3,0.1-0.5,0.1c-0.2,0-0.3,0-0.4,0h-0.2c-0.2,0-0.3-0.1-0.4-0.2C44.1,22.2,44,22,44,21.8
				c0-0.2,0-0.3,0.1-0.5c0.1-0.1,0.2-0.2,0.4-0.2h0.2c0.3,0,0.7,0,0.9,0c0.3,0,0.6-0.1,0.8-0.2s0.5-0.2,0.7-0.4
				c0.2-0.2,0.4-0.5,0.6-0.8c0.1-0.1,0.1-0.2,0.2-0.2c0.1,0,0.1,0.1,0.1,0.2c0,0.2-0.1,0.4-0.2,0.7c-0.1,0.2-0.2,0.4-0.3,0.6
				c0.1,0,0.2,0.1,0.4,0.1c0.2,0,0.3,0,0.5,0c0.2,0,0.3,0,0.5-0.1c0.2,0,0.4-0.1,0.5-0.2c0.2-0.1,0.4-0.3,0.6-0.5
				C50.2,20.1,50.4,19.9,50.6,19.6z"/>
			<path d="M56.7,12.3c-0.1,0-0.1,0,0-0.1c0-0.1,0.1-0.1,0.2-0.2c0.2-0.1,0.4-0.3,0.5-0.4c0.2-0.1,0.4-0.2,0.5-0.4
				c0.2-0.1,0.3-0.3,0.5-0.4c0.2-0.1,0.3-0.3,0.5-0.5c-0.1,0-0.3-0.1-0.5-0.2c-0.2-0.1-0.3-0.2-0.4-0.4c-0.1-0.1-0.1-0.2-0.1-0.3
				c0-0.1,0-0.2,0-0.3c0.1-0.1,0.1-0.3,0.2-0.5c0.1-0.2,0.2-0.3,0.3-0.4C58.7,8.2,58.8,8,58.9,8c0.1-0.1,0.3-0.1,0.4-0.1
				c0.1,0,0.2,0,0.3,0.1c0.1,0.1,0.1,0.2,0.2,0.3c0,0.1,0.1,0.2,0.1,0.4c0,0.1,0,0.3,0,0.4c0,0.1,0,0.3,0,0.4c0,0.1,0,0.2,0,0.3
				c0,0,0,0,0,0.1C60,9.8,60,9.9,60,9.9c0,0,0,0.1,0.1,0.1c0,0.1,0,0.2,0,0.3c0,0.1-0.1,0.2-0.1,0.3c0,0.1-0.1,0.1-0.1,0.1
				c0,0-0.1,0-0.1-0.1c0,0,0-0.1-0.1-0.1c0,0-0.1-0.1-0.1-0.1c-0.2,0.2-0.3,0.4-0.5,0.6c-0.2,0.2-0.3,0.3-0.5,0.4
				c-0.2,0.1-0.4,0.2-0.6,0.3c-0.2,0.1-0.4,0.2-0.7,0.3c-0.1,0-0.2,0.1-0.3,0.1C56.9,12.3,56.8,12.3,56.7,12.3z M58.6,9
				c0.1,0.2,0.3,0.3,0.4,0.4c0.2,0.1,0.3,0.2,0.4,0.2h0c0-0.1,0-0.1,0-0.2c0-0.1,0-0.2,0-0.2c0-0.1,0-0.2,0-0.2
				c0-0.1-0.1-0.1-0.1-0.2c0,0-0.1-0.1-0.2-0.1c-0.1,0-0.2,0-0.2,0c-0.1,0-0.2,0.1-0.2,0.1C58.6,8.9,58.6,9,58.6,9z"/>
			<path d="M60,16.9c0.2,0,0.4,0.1,0.6,0.3c0.1,0.2,0.3,0.4,0.3,0.7c0.1,0.3,0.1,0.6,0.1,0.9c0,0.3,0,0.6-0.1,0.8
				c-0.1,0.3-0.2,0.5-0.3,0.7c-0.1,0.2-0.3,0.4-0.4,0.6c0.1,0.1,0.2,0.1,0.4,0.1c0.1,0,0.3,0.1,0.4,0.1c0.2,0,0.3,0,0.5,0
				s0.3,0,0.4,0H62c0.1,0,0.2,0,0.3,0.1c0.1,0.1,0.1,0.2,0.2,0.3c0,0.1,0.1,0.2,0.1,0.3c0,0.1,0,0.2-0.1,0.3s-0.1,0.2-0.2,0.3
				c-0.1,0.1-0.2,0.1-0.3,0.1h-0.2c-0.6,0-1.2-0.1-1.8-0.2c-0.6-0.1-1.1-0.3-1.5-0.6c-0.2,0.1-0.5,0.2-0.7,0.3
				c-0.2,0.1-0.5,0.2-0.7,0.3c-0.3,0.1-0.5,0.1-0.8,0.2c-0.3,0-0.6,0.1-0.9,0.1h-0.2c-0.1,0-0.2,0-0.3-0.1c-0.1-0.1-0.1-0.2-0.2-0.3
				c0-0.1-0.1-0.2-0.1-0.3c0-0.1,0-0.2,0.1-0.3c0-0.1,0.1-0.2,0.2-0.3s0.2-0.1,0.3-0.1h0.2c0.2,0,0.4,0,0.5,0c0.2,0,0.3,0,0.5,0
				c0.2,0,0.3-0.1,0.5-0.1c0.2,0,0.4-0.1,0.6-0.2c-0.1-0.1-0.1-0.2-0.1-0.4c0-0.1,0-0.3,0-0.5c0-0.4,0.1-0.8,0.3-1.2
				c0.2-0.4,0.4-0.7,0.7-1c0.3-0.3,0.5-0.5,0.8-0.7C59.5,16.9,59.7,16.9,60,16.9z M58.6,13.2c0-0.1,0.1-0.1,0.1,0l1,0.9
				c0,0,0,0,0,0.1c0,0,0,0,0,0.1l-0.7,0.9c0,0-0.1,0.1-0.1,0l-1-0.9c0,0,0,0,0-0.1c0,0,0-0.1,0-0.1L58.6,13.2z M60.3,19.5
				c0-0.2,0-0.3-0.1-0.5c-0.1-0.2-0.2-0.3-0.3-0.5c-0.1-0.1-0.1-0.1-0.2-0.2c-0.1,0-0.2,0-0.3,0c-0.1,0-0.2,0-0.4,0.1
				c-0.1,0.1-0.3,0.1-0.4,0.2c-0.1,0.1-0.3,0.2-0.4,0.3c-0.1,0.1-0.2,0.3-0.2,0.4c0,0.1,0,0.3,0.1,0.4c0.1,0.1,0.1,0.2,0.2,0.3
				c0.1,0.1,0.2,0.2,0.3,0.2c0.1,0.1,0.2,0.1,0.2,0.1c0.1,0,0.2,0,0.3-0.1c0.1-0.1,0.3-0.1,0.4-0.2c0.1-0.1,0.3-0.2,0.4-0.3
				C60.2,19.7,60.3,19.6,60.3,19.5z"/>
			<path d="M63.9,17.7C63.9,17.7,64,17.6,63.9,17.7c0.1-0.1,0.1,0,0.2,0c0.2,0.2,0.3,0.3,0.4,0.5c0.1,0.2,0.3,0.4,0.4,0.6
				c0.1,0.2,0.2,0.4,0.2,0.7c0.1,0.2,0.1,0.4,0.1,0.7c0,0.1,0,0.2,0,0.3c0,0.1,0,0.3-0.1,0.4c0,0.1-0.1,0.2-0.1,0.4
				c0,0.1-0.1,0.2-0.1,0.3c-0.1,0.2-0.3,0.4-0.6,0.5c-0.2,0.1-0.5,0.2-0.8,0.3c-0.3,0.1-0.6,0.1-0.9,0.1c-0.3,0-0.6,0-0.8,0h-0.2
				c-0.2,0-0.3-0.1-0.4-0.2c-0.1-0.1-0.1-0.3-0.1-0.5c0-0.2,0-0.3,0.1-0.5c0.1-0.1,0.2-0.2,0.4-0.2h0.2c0.1,0,0.3,0,0.6,0
				c0.2,0,0.5,0,0.8,0c0.3,0,0.5-0.1,0.8-0.1c0.3,0,0.5-0.1,0.6-0.2c0.1-0.1,0.1-0.1,0.1-0.2c-0.1-0.3-0.2-0.6-0.4-0.9
				c-0.2-0.2-0.4-0.5-0.6-0.7c0-0.2,0.1-0.4,0.1-0.6C63.8,18.1,63.9,17.9,63.9,17.7z M63.5,13.8l1,0.9c0,0,0,0.1,0,0.1l-0.7,0.9
				c0,0.1-0.1,0.1-0.1,0l-1.1-0.9c0,0,0-0.1,0-0.1l0.7-0.9C63.4,13.8,63.4,13.8,63.5,13.8z"/>
			<path d="M69.3,4.9c-0.3,0.1-0.6,0.3-0.9,0.4c-0.3,0.1-0.6,0.3-1,0.4c-0.3,0.1-0.6,0.3-0.9,0.4c-0.3,0.1-0.5,0.2-0.6,0.3
				c0,0-0.1,0-0.1,0c0,0,0,0,0-0.1c0,0,0-0.1,0.1-0.2C66,6.1,66,6,66.1,5.9c0-0.1,0.1-0.2,0.1-0.2c0-0.1,0.1-0.1,0.1-0.1
				c0.1-0.1,0.1-0.1,0.2-0.2l3.3-1.4c0.1,0,0.1,0,0.1,0.1c0,0.1,0,0.1-0.1,0.2c0,0.1-0.1,0.1-0.1,0.2c0,0.1-0.1,0.1-0.1,0.2
				c0,0.1-0.1,0.1-0.1,0.2C69.4,4.8,69.4,4.9,69.3,4.9z"/>
			<path d="M66.5,9.9c0,0,0.1-0.1,0.2-0.1c0.1,0,0.1-0.1,0.2-0.1c0.1,0,0.1-0.1,0.2-0.1c0.1,0,0.1-0.1,0.2-0.1
				c-0.1-0.1-0.3-0.2-0.4-0.3c-0.1-0.1-0.2-0.3-0.3-0.5c0-0.1,0-0.2,0-0.2c0-0.1,0-0.2,0.1-0.2c0.1-0.1,0.2-0.3,0.3-0.4
				c0.1-0.1,0.2-0.3,0.4-0.4c0.1-0.1,0.3-0.2,0.4-0.3C67.9,7,68.1,7,68.3,7c0.1,0,0.1,0,0.2,0.1c0.1,0,0.1,0.1,0.2,0.2
				c0,0.1,0.1,0.1,0.1,0.2c0,0.1,0.1,0.1,0.1,0.2c0,0.1,0,0.2,0,0.3l-0.2,0.3c-0.1,0.1-0.1,0.2-0.2,0.2c-0.1,0-0.1,0-0.1-0.1
				c0-0.1,0-0.2-0.1-0.2c-0.1-0.1-0.1-0.2-0.2-0.2c-0.1,0-0.1-0.1-0.2-0.1c-0.3,0-0.5,0.1-0.7,0.3c0.1,0.2,0.2,0.4,0.4,0.6
				C67.7,8.9,67.9,9,68.1,9c0.3,0,0.6,0,0.8,0c0.3-0.1,0.5-0.1,0.8-0.2c0,0,0,0.1,0,0.1s-0.1,0.2-0.1,0.3c0,0.1-0.1,0.2-0.1,0.3
				c0,0.1-0.1,0.1-0.1,0.1c-0.2,0-0.5,0.1-0.7,0.1c-0.3,0.1-0.5,0.1-0.8,0.2c-0.3,0.1-0.6,0.2-0.9,0.3c-0.3,0.1-0.6,0.3-0.8,0.4
				c-0.1,0-0.1,0-0.1-0.1c0-0.1,0.1-0.2,0.1-0.4C66.3,10.1,66.4,10,66.5,9.9z M67.7,11.3C67.7,11.3,67.7,11.3,67.7,11.3
				c0.1,0.1,0.1,0.1,0.1,0.1c0,0,0,0.1,0,0.1c0,0,0,0.1,0,0.1c0,0.2,0,0.4,0,0.6c0,0.2,0,0.4,0.1,0.6c0.1,0.5,0.1,1,0.2,1.6
				c0.1,0.5,0.1,1.1,0.2,1.7c0.1,0.6,0.1,1.1,0.2,1.7c0.1,0.5,0.1,1.1,0.2,1.6c0,0.2,0,0.4,0,0.7c0,0.3,0,0.5,0,0.8
				c0,0.3,0,0.5-0.1,0.8c0,0.3-0.1,0.5-0.2,0.7c0,0.1-0.1,0.2-0.2,0.2c0,0-0.1,0-0.1-0.1c-0.1-1-0.2-2-0.3-3.1
				c-0.1-1.1-0.3-2.2-0.4-3.2c-0.1-1.1-0.3-2.2-0.4-3.2c0-0.3,0.1-0.5,0.2-0.8c0.1-0.2,0.1-0.3,0.2-0.4
				C67.5,11.5,67.6,11.4,67.7,11.3z"/>
			<path d="M77.6,12.8c0,0.2,0,0.4-0.1,0.6c0,0.2-0.1,0.4-0.2,0.5c-0.1,0.1-0.2,0.3-0.4,0.3c-0.2,0.1-0.4,0.1-0.6,0.1
				c-0.3,0-0.5-0.1-0.7-0.3c-0.2-0.2-0.3-0.4-0.3-0.8c0-0.2,0-0.4,0.1-0.6c0-0.2,0.1-0.5,0.2-0.7c0.1-0.2,0.2-0.4,0.4-0.6
				c0.2-0.2,0.4-0.3,0.6-0.3c0.2,0,0.4,0,0.5,0.1c0.1,0.1,0.3,0.3,0.3,0.4c0.1,0.2,0.1,0.4,0.2,0.5C77.6,12.5,77.6,12.7,77.6,12.8z
				 M76.4,12.2c-0.1,0-0.2,0.1-0.3,0.1c-0.1,0.1-0.2,0.1-0.2,0.2c-0.1,0.1-0.1,0.2-0.2,0.3c0,0.1-0.1,0.2-0.1,0.3
				c0,0.1,0,0.2,0.1,0.2c0.1,0.1,0.1,0.1,0.2,0.1c0.1,0,0.2,0,0.2,0.1c0.1,0,0.2,0,0.2,0c0.3,0,0.6-0.2,0.8-0.4c0-0.1,0-0.2,0-0.3
				c0-0.1-0.1-0.2-0.2-0.3c-0.1-0.1-0.2-0.2-0.3-0.2C76.6,12.2,76.5,12.1,76.4,12.2z"/>
			<path d="M77.2,19.5c0.1,0,0.2,0,0.3,0.1c0.1,0.1,0.2,0.1,0.3,0.2c0.1,0.1,0.2,0.2,0.3,0.3c0.1,0.1,0.2,0.2,0.3,0.3
				c0.2,0.1,0.3,0.3,0.5,0.3c0.2,0.1,0.4,0.2,0.6,0.2c0.2,0,0.4,0.1,0.6,0.1c0.2,0,0.4,0,0.6,0H81c0.2,0,0.3,0.1,0.4,0.2
				c0.1,0.1,0.1,0.3,0.1,0.5c0,0.2,0,0.3-0.1,0.5c-0.1,0.1-0.2,0.2-0.4,0.2h-0.2c-0.3,0-0.6,0-0.9,0c-0.4,0-0.7-0.1-1.1-0.2
				c0,0.2,0,0.3-0.1,0.4c0,0.1-0.1,0.2-0.1,0.2c-0.2,0-0.5,0-0.8,0c-0.3-0.1-0.6-0.1-0.9-0.2c-0.3-0.1-0.6-0.2-0.8-0.4
				c-0.2-0.1-0.4-0.3-0.5-0.4c-0.1,0-0.2,0.1-0.4,0.2s-0.2,0.2-0.3,0.3c-0.1,0.1-0.2,0.2-0.3,0.4c-0.1,0.1-0.1,0.3-0.1,0.4
				c0,0.2,0,0.5,0.1,0.9c0,0.4,0.1,0.7,0.2,1.1c0.1,0.4,0.1,0.8,0.2,1.2s0.1,0.7,0.2,1c0,0.2,0.1,0.5,0.1,0.8c0,0.3,0.1,0.6,0.1,0.9
				c0,0.3,0,0.6,0,0.8c0,0.3,0,0.5-0.1,0.6c0,0.1-0.1,0.1-0.1,0.1c0,0-0.1,0-0.1-0.1c0-0.1-0.1-0.2-0.1-0.4c0-0.1,0-0.2-0.1-0.4
				c0-0.1-0.1-0.3-0.1-0.7c0-0.3-0.1-0.8-0.2-1.4c-0.2-1.1-0.3-2-0.4-2.7c-0.1-0.7-0.2-1.2-0.2-1.6c0-0.5,0-1,0.2-1.4
				c0.1-0.4,0.3-0.7,0.6-1c0.1-0.1,0.2-0.2,0.3-0.3c0.1-0.1,0.3-0.2,0.4-0.4c0.2-0.1,0.3-0.3,0.5-0.4c0.2-0.1,0.3-0.2,0.5-0.4
				c0.2-0.1,0.3-0.2,0.5-0.3C77,19.5,77.1,19.5,77.2,19.5z M77,20.4c-0.1,0-0.3,0-0.5,0.1c-0.2,0.1-0.3,0.2-0.4,0.3c0,0,0,0,0,0.1
				c0,0,0,0,0,0.1c0.1,0.1,0.3,0.2,0.5,0.2c0.2,0.1,0.4,0.1,0.6,0.2c0.2,0.1,0.4,0.1,0.5,0.1c0.2,0,0.3,0,0.3,0
				c-0.1-0.1-0.2-0.3-0.3-0.4c-0.1-0.1-0.2-0.2-0.3-0.3c-0.1-0.1-0.2-0.2-0.3-0.2C77.1,20.5,77.1,20.4,77,20.4z"/>
			<path d="M82.6,13.4c-0.1,0-0.1,0,0-0.1c0-0.1,0.1-0.1,0.2-0.2c0.2-0.1,0.4-0.3,0.5-0.4c0.2-0.1,0.4-0.2,0.5-0.4
				c0.2-0.1,0.3-0.3,0.5-0.4c0.2-0.1,0.3-0.3,0.5-0.5c-0.1,0-0.3-0.1-0.5-0.2c-0.2-0.1-0.3-0.2-0.4-0.4c-0.1-0.1-0.1-0.2-0.1-0.3
				c0-0.1,0-0.2,0-0.3c0.1-0.1,0.1-0.3,0.2-0.5c0.1-0.2,0.2-0.3,0.3-0.4c0.1-0.1,0.2-0.2,0.4-0.3c0.1-0.1,0.3-0.1,0.4-0.1
				c0.1,0,0.2,0,0.3,0.1c0.1,0.1,0.1,0.2,0.2,0.3c0,0.1,0.1,0.2,0.1,0.4c0,0.1,0,0.3,0,0.4c0,0.1,0,0.3,0,0.4c0,0.1,0,0.2,0,0.3
				c0,0,0,0,0,0.1c0.1,0,0.1,0.1,0.1,0.1c0,0,0,0.1,0.1,0.1c0,0.1,0,0.2,0,0.3c0,0.1-0.1,0.2-0.1,0.3c0,0.1-0.1,0.1-0.1,0.1
				c0,0-0.1,0-0.1-0.1c0,0,0-0.1-0.1-0.1c0,0-0.1-0.1-0.1-0.1c-0.2,0.2-0.3,0.4-0.5,0.6c-0.2,0.2-0.3,0.3-0.5,0.4
				c-0.2,0.1-0.4,0.2-0.6,0.3c-0.2,0.1-0.4,0.2-0.7,0.3c-0.1,0-0.2,0.1-0.3,0.1S82.7,13.4,82.6,13.4z M84.4,10.1
				c0.1,0.2,0.3,0.3,0.4,0.4c0.2,0.1,0.3,0.2,0.4,0.2h0c0-0.1,0-0.1,0-0.2c0-0.1,0-0.2,0-0.2c0-0.1,0-0.2,0-0.2
				c0-0.1-0.1-0.1-0.1-0.2c0,0-0.1-0.1-0.2-0.1c-0.1,0-0.2,0-0.2,0c-0.1,0-0.2,0.1-0.2,0.1C84.5,10,84.4,10.1,84.4,10.1z"/>
			<path d="M80.8,21.1c0.6,0,1.2,0,2,0c0.7,0,1.5,0,2.3,0c0.8,0,1.7-0.1,2.6-0.1c0.9,0,1.9-0.1,2.8-0.2c1-0.1,1.9-0.2,2.9-0.3
				c1-0.1,2-0.2,2.9-0.4c0-0.2-0.1-0.4-0.1-0.5c-0.1-0.2-0.2-0.3-0.3-0.4c-0.1-0.1-0.3-0.2-0.5-0.2c-0.2-0.1-0.4-0.1-0.6-0.1
				c-0.8,0-1.7,0.1-2.7,0.1c-0.9,0.1-1.9,0.2-2.9,0.2c-1,0.1-1.9,0.1-2.9,0.2c-1,0-1.9,0-2.7,0c-0.1,0-0.2,0-0.3,0
				c-0.1,0-0.3,0-0.5-0.1c-0.2,0-0.4-0.1-0.5-0.1S82.1,19.1,82,19c-0.2-0.1-0.3-0.1-0.4-0.2c-0.1-0.1-0.2-0.2-0.2-0.3
				c0-0.2,0-0.4,0.1-0.7c0.1-0.3,0.2-0.5,0.3-0.7c0.1-0.2,0.3-0.5,0.4-0.7c0.2-0.2,0.3-0.4,0.5-0.5c1.2-1,2.5-1.8,4-2.2
				c0.1,0,0.1,0,0.2,0c0,0,0.1,0,0.1,0.1c0,0,0,0.1,0,0.1c0,0,0,0.1,0,0.1c-0.1,0.2-0.1,0.3-0.2,0.5c-0.1,0.2-0.2,0.3-0.2,0.5
				c-0.1,0-0.2,0-0.4,0.1c-0.2,0.1-0.4,0.1-0.6,0.2c-0.2,0.1-0.5,0.2-0.8,0.3c-0.3,0.1-0.5,0.2-0.8,0.4c-0.2,0.1-0.4,0.2-0.6,0.4
				c-0.2,0.1-0.4,0.3-0.5,0.4c-0.2,0.1-0.3,0.3-0.4,0.4c-0.1,0.1-0.1,0.2-0.1,0.3c0,0.1,0.1,0.2,0.3,0.3c0.2,0.1,0.3,0.1,0.5,0.2
				c0.2,0,0.4,0.1,0.6,0.1c0.2,0,0.3,0,0.4,0c0.6,0.1,1.3,0.1,2,0.1c0.7,0,1.5,0,2.3-0.1c0.8,0,1.5-0.1,2.3-0.2
				c0.8-0.1,1.5-0.1,2.2-0.2c0.2,0,0.5,0,0.8,0c0.3,0,0.6,0,0.9,0c0.3,0,0.6,0,0.9,0.1c0.3,0,0.6,0.1,0.8,0.2
				c0.2,0.1,0.5,0.3,0.6,0.5c0.2,0.2,0.3,0.5,0.3,0.8c0,0.2,0,0.3,0,0.5c0,0.2-0.1,0.3-0.1,0.5c-0.1,0.2-0.1,0.3-0.2,0.5
				c-0.1,0.1-0.1,0.3-0.2,0.4c0,0,0.1,0.1,0.1,0.1c0.1,0,0.1,0,0.2,0c0.1,0,0.2,0,0.3,0c0.1,0,0.3,0,0.5,0h0.2
				c0.2,0,0.3,0.1,0.4,0.2c0.1,0.1,0.1,0.3,0.1,0.5c0,0.2,0,0.3-0.1,0.5c-0.1,0.1-0.2,0.2-0.4,0.2H98c-0.3,0-0.6,0-0.8-0.1
				s-0.4-0.1-0.5-0.2c-0.1-0.1-0.2-0.2-0.3-0.4c0-0.2-0.1-0.4-0.1-0.6c-0.9,0.2-1.9,0.3-2.9,0.4c-1,0.1-2,0.2-3,0.3
				c-1,0.1-2,0.2-2.9,0.2c-1,0.1-1.9,0.1-2.7,0.1c-0.8,0-1.6,0.1-2.3,0.1c-0.7,0-1.3,0-1.7,0h-0.2c-0.2,0-0.3-0.1-0.4-0.2
				c-0.1-0.1-0.1-0.3-0.1-0.5c0-0.2,0-0.3,0.1-0.5c0.1-0.1,0.2-0.2,0.4-0.2H80.8z"/>
			<path d="M100.9,11.9c0,0.2,0,0.4-0.1,0.6c0,0.2-0.1,0.4-0.2,0.5c-0.1,0.1-0.2,0.3-0.4,0.3c-0.2,0.1-0.4,0.1-0.6,0.1
				c-0.3,0-0.5-0.1-0.7-0.3c-0.2-0.2-0.3-0.4-0.3-0.8c0-0.2,0-0.4,0.1-0.6c0-0.2,0.1-0.5,0.2-0.7c0.1-0.2,0.2-0.4,0.4-0.6
				c0.2-0.2,0.4-0.3,0.6-0.3c0.2,0,0.4,0,0.5,0.1c0.1,0.1,0.3,0.3,0.3,0.4c0.1,0.2,0.1,0.4,0.2,0.5
				C100.9,11.6,100.9,11.8,100.9,11.9z M99.7,11.3c-0.1,0-0.2,0.1-0.3,0.1c-0.1,0.1-0.2,0.1-0.2,0.2c-0.1,0.1-0.1,0.2-0.2,0.3
				c0,0.1-0.1,0.2-0.1,0.3s0,0.2,0.1,0.2c0.1,0.1,0.1,0.1,0.2,0.1c0.1,0,0.2,0,0.2,0.1c0.1,0,0.2,0,0.2,0c0.3,0,0.6-0.2,0.8-0.4
				c0-0.1,0-0.2,0-0.3c0-0.1-0.1-0.2-0.2-0.3c-0.1-0.1-0.2-0.2-0.3-0.2C99.9,11.3,99.8,11.3,99.7,11.3z"/>
			<path d="M100.9,19.3c0,0.1,0,0.1,0,0.2c0,0.1,0,0.2,0,0.3c0,0.2,0,0.3,0.1,0.5c0.1,0.2,0.2,0.3,0.3,0.4c0.2,0.1,0.4,0.2,0.6,0.3
				c0.2,0.1,0.5,0.1,0.9,0.1h0.2c0.2,0,0.3,0.1,0.4,0.2c0.1,0.1,0.1,0.3,0.1,0.5c0,0.2,0,0.3-0.1,0.5c-0.1,0.1-0.2,0.2-0.4,0.2h-0.2
				c-0.6,0-1.1-0.1-1.5-0.4c-0.4-0.2-0.7-0.6-0.9-1c-0.1,0.3-0.3,0.6-0.5,0.7c-0.2,0.2-0.4,0.3-0.6,0.4c-0.2,0.1-0.4,0.2-0.7,0.2
				c-0.2,0-0.4,0-0.6,0h-0.2c-0.2,0-0.3-0.1-0.4-0.2c-0.1-0.1-0.1-0.3-0.1-0.5c0-0.2,0-0.3,0.1-0.5c0.1-0.1,0.2-0.2,0.4-0.2H98
				c0.2,0,0.4,0,0.6,0c0.2,0,0.4,0,0.6-0.1c0.2-0.1,0.4-0.1,0.6-0.2c0.2-0.1,0.3-0.3,0.5-0.4c0.1-0.2,0.2-0.3,0.3-0.4
				c0.1-0.1,0.1-0.3,0.2-0.5c0,0,0-0.1,0-0.1c0,0,0.1,0,0.1,0C100.8,19.3,100.8,19.3,100.9,19.3C100.9,19.3,100.9,19.3,100.9,19.3z
				 M101.5,26C101.5,26,101.4,26.1,101.5,26c-0.1,0.1-0.1,0-0.2,0l-1-0.8l-0.7,0.9c0,0.1-0.1,0.1-0.1,0l-1.1-0.9c0,0,0-0.1,0-0.1
				l0.7-1c0,0,0-0.1,0.1-0.1c0,0,0,0,0.1,0l1,0.8L101,24c0,0,0.1-0.1,0.1,0l1.1,0.9c0,0,0,0.1,0,0.1L101.5,26z"/>
			<path d="M106.1,8.7c-0.3,0.1-0.6,0.3-0.9,0.4c-0.3,0.1-0.6,0.3-1,0.4c-0.3,0.1-0.6,0.3-0.9,0.4c-0.3,0.1-0.5,0.2-0.6,0.3
				c0,0-0.1,0-0.1,0c0,0,0,0,0-0.1c0,0,0-0.1,0.1-0.2c0-0.1,0.1-0.2,0.1-0.3c0-0.1,0.1-0.2,0.1-0.2c0-0.1,0.1-0.1,0.1-0.1
				c0.1-0.1,0.1-0.1,0.2-0.2l3.3-1.4c0.1,0,0.1,0,0.1,0.1c0,0.1,0,0.1-0.1,0.2c0,0.1-0.1,0.1-0.1,0.2c0,0.1-0.1,0.1-0.1,0.2
				c0,0.1-0.1,0.1-0.1,0.2C106.2,8.6,106.2,8.6,106.1,8.7z"/>
			<path d="M102.6,21.1h0.2c0.3,0,0.7,0,1-0.1c0.3,0,0.6-0.1,0.8-0.2c0.2-0.1,0.4-0.3,0.5-0.5c0.1-0.2,0.2-0.4,0.2-0.7
				c0-0.1,0-0.3,0-0.6c0-0.3-0.1-0.6-0.1-0.9c0-0.3-0.1-0.6-0.1-1c0-0.3-0.1-0.6-0.1-0.9l-0.2-1.4l-0.3-2.8c0-0.1,0-0.2,0-0.2
				c0.1-0.2,0.1-0.3,0.2-0.5c0.1-0.1,0.2-0.3,0.3-0.5c0.1-0.1,0.1-0.1,0.1,0c0,0.1,0,0.2,0.1,0.4c0,0.2,0,0.4,0.1,0.7
				c0.1,1,0.2,1.8,0.3,2.5c0.1,0.7,0.2,1.3,0.2,1.8c0.1,0.7,0.2,1.3,0.3,1.8c0.1,0.5,0.1,0.9,0.2,1.2c0.1,0.3,0.2,0.6,0.3,0.9
				c0.1,0.2,0.3,0.4,0.4,0.6c0.2,0.1,0.4,0.2,0.6,0.3c0.2,0.1,0.5,0.1,0.9,0.1h0.2c0.2,0,0.3,0.1,0.4,0.2c0.1,0.1,0.1,0.3,0.1,0.5
				c0,0.2,0,0.3-0.1,0.5c-0.1,0.1-0.2,0.2-0.4,0.2h-0.2c-0.2,0-0.5,0-0.7-0.1c-0.3,0-0.5-0.1-0.7-0.3c-0.2-0.2-0.5-0.4-0.6-0.6
				c-0.2-0.3-0.4-0.6-0.5-1.1c-0.1,0.5-0.3,0.9-0.5,1.2c-0.2,0.3-0.5,0.5-0.8,0.6c-0.3,0.1-0.6,0.2-0.9,0.3c-0.3,0-0.6,0.1-0.8,0.1
				h-0.2c-0.2,0-0.3-0.1-0.4-0.2c-0.1-0.1-0.1-0.3-0.1-0.5c0-0.2,0-0.3,0.1-0.5C102.3,21.2,102.5,21.1,102.6,21.1z"/>
			<path d="M112.9,12.2c-0.3,0.1-0.6,0.3-0.9,0.4c-0.3,0.1-0.6,0.3-1,0.4c-0.3,0.1-0.6,0.3-0.9,0.4c-0.3,0.1-0.5,0.2-0.6,0.3
				c0,0-0.1,0-0.1,0c0,0,0,0,0-0.1c0,0,0-0.1,0.1-0.2s0.1-0.2,0.1-0.3c0-0.1,0.1-0.2,0.1-0.2c0-0.1,0.1-0.1,0.1-0.1
				c0.1-0.1,0.1-0.1,0.2-0.2l3.3-1.4c0.1,0,0.1,0,0.1,0.1c0,0.1,0,0.1-0.1,0.2c0,0.1-0.1,0.1-0.1,0.2c0,0.1-0.1,0.1-0.1,0.2
				c0,0.1-0.1,0.1-0.1,0.2C113,12.1,113,12.1,112.9,12.2z"/>
			<path d="M115.8,20.8c-0.4,0.1-0.7,0.2-1.2,0.3c-0.4,0.1-0.9,0.3-1.3,0.4c-0.5,0.1-0.9,0.3-1.4,0.4c-0.5,0.1-0.9,0.2-1.4,0.3
				c-0.4,0.1-0.8,0.2-1.2,0.2c-0.4,0.1-0.7,0.1-1,0.1h-0.2c-0.2,0-0.3-0.1-0.4-0.2c-0.1-0.1-0.1-0.3-0.1-0.5c0-0.2,0-0.3,0.1-0.5
				c0.1-0.1,0.2-0.2,0.4-0.2h0.2c0.1,0,0.3,0,0.5,0c0.2,0,0.4,0,0.5,0c0.2,0,0.4,0,0.6-0.1c0.2,0,0.4-0.1,0.5-0.1
				c-0.1-0.1-0.3-0.2-0.4-0.3c-0.1-0.1-0.2-0.3-0.4-0.5c-0.1-0.2-0.2-0.4-0.3-0.5c-0.1-0.2-0.1-0.4-0.2-0.6c-0.1-0.4,0-0.7,0.1-1.1
				c0.1-0.4,0.3-0.7,0.5-1.1c0.2-0.3,0.5-0.6,0.8-0.8c0.3-0.2,0.6-0.4,1-0.4c0.4-0.1,0.8-0.1,1.2,0c0.3,0.1,0.7,0.2,0.9,0.3
				c0.3,0.2,0.5,0.3,0.7,0.5c0.2,0.2,0.4,0.4,0.5,0.6c0,0,0,0.1,0,0.1c0,0,0,0.1-0.1,0.1c0,0-0.1,0-0.1,0c0,0-0.1,0-0.1,0
				c-0.2-0.1-0.4-0.2-0.5-0.3c-0.2-0.1-0.4-0.1-0.6-0.2c-0.2,0-0.4-0.1-0.6-0.1c-0.2,0-0.4,0-0.6,0c-0.2,0-0.4,0.1-0.7,0.1
				c-0.2,0.1-0.5,0.1-0.7,0.2c-0.2,0.1-0.4,0.2-0.6,0.3c-0.2,0.1-0.3,0.2-0.4,0.3c0,0.1,0,0.2,0.1,0.4c0,0.1,0.1,0.3,0.2,0.4
				c0.1,0.2,0.2,0.3,0.3,0.5c0.1,0.1,0.2,0.3,0.3,0.4c0.1,0.1,0.3,0.2,0.4,0.4c0.1,0.1,0.3,0.2,0.4,0.3c0.1,0.1,0.3,0.2,0.4,0.2
				c0.1,0.1,0.2,0.1,0.3,0.1c0.7-0.1,1.4-0.3,2.2-0.5c0.7-0.2,1.4-0.4,2.1-0.6c0.1,0,0.1,0,0.1,0c-0.2,0.3-0.3,0.6-0.5,0.8
				C116.1,20.4,115.9,20.6,115.8,20.8z"/>
			<path d="M122.5,11.1C122.5,11.1,122.5,11.1,122.5,11.1c0.1,0.1,0.1,0.1,0.1,0.1c0,0,0,0.1,0,0.1c0,0,0,0.1,0,0.1
				c0,0.2,0,0.4,0,0.7c0,0.2,0,0.4,0.1,0.6c0.1,0.5,0.1,1.1,0.2,1.6c0.1,0.6,0.1,1.1,0.2,1.7c0.1,0.6,0.1,1.1,0.2,1.7
				c0.1,0.6,0.1,1.1,0.2,1.6c0,0.2,0,0.4,0,0.7c0,0.3,0,0.6,0,0.8c0,0.3,0,0.6-0.1,0.8c0,0.3-0.1,0.5-0.2,0.7c0,0.1-0.1,0.2-0.2,0.2
				c0,0-0.1,0-0.1-0.1c-0.1-1-0.2-2.1-0.3-3.1c-0.1-1.1-0.3-2.2-0.4-3.3c-0.1-1.1-0.3-2.2-0.4-3.3c0-0.3,0.1-0.6,0.2-0.9
				c0.1-0.2,0.1-0.3,0.2-0.5C122.3,11.3,122.4,11.2,122.5,11.1z"/>
			<path d="M129.2,22.5l-0.9,0c-0.2,0-0.5,0-0.7-0.1c-0.2-0.1-0.4-0.2-0.6-0.3c-0.2-0.1-0.3-0.3-0.4-0.5c-0.1-0.2-0.1-0.4-0.1-0.7
				c0-0.1,0-0.2,0.1-0.4c0-0.2,0.1-0.3,0.2-0.5c0.1-0.2,0.2-0.3,0.3-0.5c0.1-0.2,0.2-0.3,0.3-0.4c0.1-0.1,0.2-0.2,0.4-0.3
				c0.1-0.1,0.3-0.1,0.4-0.1c0.2,0,0.4,0.1,0.6,0.2c0.2,0.2,0.3,0.4,0.5,0.6c0.1,0.2,0.2,0.5,0.3,0.7c0.1,0.3,0.1,0.5,0.2,0.7l0.7,0
				h0.2c0.2,0,0.3,0.1,0.4,0.2c0.1,0.1,0.1,0.3,0.1,0.5c0,0.2,0,0.3-0.1,0.5c-0.1,0.1-0.2,0.2-0.4,0.2h-0.2l-0.7,0
				c-0.1,0.5-0.2,1-0.4,1.4c-0.1,0.5-0.3,0.9-0.5,1.3c-0.2,0.4-0.5,0.7-0.8,1c-0.3,0.3-0.7,0.5-1.1,0.7c-0.3,0.1-0.6,0.1-1,0.2
				c-0.4,0-0.8,0-1.1,0c-0.4,0-0.8-0.1-1.1-0.1c-0.4-0.1-0.7-0.1-1-0.2c-0.1,0-0.1-0.1-0.1-0.1c0,0,0-0.1,0-0.1
				c0-0.1,0.1-0.1,0.1-0.1c0.1,0,0.1,0,0.2,0c0.3,0,0.6,0,1,0c0.3,0,0.7,0,1-0.1c0.3,0,0.7-0.1,1-0.2c0.3-0.1,0.6-0.2,0.9-0.4
				c0.3-0.2,0.6-0.4,0.9-0.6c0.3-0.2,0.5-0.5,0.7-0.8c0.2-0.3,0.4-0.6,0.5-0.9C129,23.1,129.1,22.8,129.2,22.5z M128,20.3
				c-0.1,0-0.1,0-0.2,0.1c-0.1,0.1-0.1,0.1-0.2,0.2c-0.1,0.1-0.1,0.1-0.1,0.2c0,0.1-0.1,0.1-0.1,0.2c0,0.1,0.1,0.1,0.3,0.2
				c0.1,0,0.3,0.1,0.5,0.1c0.2,0,0.3,0,0.5,0c0.2,0,0.3,0,0.4,0c0,0,0-0.1-0.1-0.2c-0.1-0.1-0.1-0.2-0.2-0.3
				c-0.1-0.1-0.2-0.2-0.3-0.3C128.2,20.3,128.1,20.3,128,20.3z"/>
			<path d="M130.6,13.6c-0.1,0-0.1,0,0-0.1c0-0.1,0.1-0.1,0.2-0.2c0.2-0.1,0.4-0.3,0.5-0.4c0.2-0.1,0.4-0.2,0.5-0.4
				c0.2-0.1,0.3-0.3,0.5-0.4c0.2-0.1,0.3-0.3,0.5-0.5c-0.1,0-0.3-0.1-0.5-0.2c-0.2-0.1-0.3-0.2-0.4-0.4c-0.1-0.1-0.1-0.2-0.1-0.3
				c0-0.1,0-0.2,0-0.3c0.1-0.1,0.1-0.3,0.2-0.5c0.1-0.2,0.2-0.3,0.3-0.4c0.1-0.1,0.2-0.2,0.4-0.3c0.1-0.1,0.3-0.1,0.4-0.1
				c0.1,0,0.2,0,0.3,0.1c0.1,0.1,0.1,0.2,0.2,0.3c0,0.1,0.1,0.2,0.1,0.4c0,0.1,0,0.3,0,0.4c0,0.1,0,0.3,0,0.4c0,0.1,0,0.2,0,0.3
				c0,0,0,0,0,0.1c0.1,0,0.1,0.1,0.1,0.1c0,0,0,0.1,0.1,0.1c0,0.1,0,0.2,0,0.3c0,0.1-0.1,0.2-0.1,0.3c0,0.1-0.1,0.1-0.1,0.1
				c0,0-0.1,0-0.1-0.1c0,0,0-0.1-0.1-0.1c0,0-0.1-0.1-0.1-0.1c-0.2,0.2-0.3,0.4-0.5,0.6c-0.2,0.2-0.3,0.3-0.5,0.4
				c-0.2,0.1-0.4,0.2-0.6,0.3c-0.2,0.1-0.4,0.2-0.7,0.3c-0.1,0-0.2,0.1-0.3,0.1S130.6,13.6,130.6,13.6z M132.4,10.3
				c0.1,0.2,0.3,0.3,0.4,0.4c0.2,0.1,0.3,0.2,0.4,0.2h0c0-0.1,0-0.1,0-0.2c0-0.1,0-0.2,0-0.2c0-0.1,0-0.2,0-0.2s-0.1-0.1-0.1-0.2
				c0,0-0.1-0.1-0.2-0.1c-0.1,0-0.2,0-0.2,0c-0.1,0-0.2,0.1-0.2,0.1C132.4,10.2,132.4,10.3,132.4,10.3z"/>
			<path d="M133.4,19.3c0,0.1,0,0.1,0,0.2c0,0.1,0,0.2,0,0.3c0,0.2,0,0.3,0.1,0.5c0.1,0.2,0.2,0.3,0.3,0.4c0.2,0.1,0.4,0.2,0.6,0.3
				c0.2,0.1,0.5,0.1,0.9,0.1h0.2c0.2,0,0.3,0.1,0.4,0.2c0.1,0.1,0.1,0.3,0.1,0.5c0,0.2,0,0.3-0.1,0.5c-0.1,0.1-0.2,0.2-0.4,0.2h-0.2
				c-0.6,0-1.1-0.1-1.5-0.4s-0.7-0.6-0.9-1c-0.1,0.3-0.3,0.6-0.5,0.7c-0.2,0.2-0.4,0.3-0.6,0.4c-0.2,0.1-0.4,0.2-0.7,0.2
				c-0.2,0-0.4,0-0.6,0h-0.2c-0.2,0-0.3-0.1-0.4-0.2c-0.1-0.1-0.1-0.3-0.1-0.5c0-0.2,0-0.3,0.1-0.5c0.1-0.1,0.2-0.2,0.4-0.2h0.2
				c0.2,0,0.4,0,0.6,0c0.2,0,0.4,0,0.6-0.1c0.2-0.1,0.4-0.1,0.6-0.2c0.2-0.1,0.3-0.3,0.5-0.4c0.1-0.2,0.2-0.3,0.3-0.4
				c0.1-0.1,0.1-0.3,0.2-0.5c0,0,0-0.1,0-0.1c0,0,0.1,0,0.1,0C133.3,19.3,133.4,19.3,133.4,19.3C133.4,19.3,133.4,19.3,133.4,19.3z
				 M132.6,15.3l1,0.9c0,0,0,0.1,0,0.1l-0.7,0.9c0,0.1-0.1,0.1-0.1,0l-1.1-0.9c0,0,0-0.1,0-0.1l0.7-0.9
				C132.5,15.3,132.5,15.3,132.6,15.3z"/>
			<path d="M140.1,12.2c-0.3,0.1-0.6,0.3-0.9,0.4c-0.3,0.1-0.6,0.3-1,0.4c-0.3,0.1-0.6,0.3-0.9,0.4c-0.3,0.1-0.5,0.2-0.6,0.3
				c0,0-0.1,0-0.1,0c0,0,0,0,0-0.1c0,0,0-0.1,0.1-0.2c0-0.1,0.1-0.2,0.1-0.3c0-0.1,0.1-0.2,0.1-0.2c0-0.1,0.1-0.1,0.1-0.1
				c0.1-0.1,0.1-0.1,0.2-0.2l3.3-1.4c0.1,0,0.1,0,0.1,0.1c0,0.1,0,0.1-0.1,0.2c0,0.1-0.1,0.1-0.1,0.2c0,0.1-0.1,0.1-0.1,0.2
				c0,0.1-0.1,0.1-0.1,0.2C140.2,12.1,140.1,12.1,140.1,12.2z"/>
			<path d="M135.3,21.1c0.2,0,0.5,0,0.7,0c0.2,0,0.5,0,0.7-0.1c0.2-0.1,0.4-0.1,0.5-0.2c0.2-0.1,0.3-0.2,0.4-0.4
				c0.2-0.3,0.3-0.6,0.4-0.9c0.1-0.3,0.3-0.6,0.5-0.9c0.1-0.1,0.2-0.2,0.3-0.4c0.1-0.1,0.2-0.3,0.3-0.4c0.1-0.1,0.3-0.2,0.4-0.3
				c0.1-0.1,0.3-0.1,0.4-0.1c0.1,0,0.3,0.1,0.4,0.2c0.1,0.1,0.3,0.2,0.4,0.4c0.1,0.2,0.2,0.3,0.3,0.5c0.1,0.2,0.2,0.4,0.3,0.6
				s0.1,0.4,0.2,0.6c0,0.2,0.1,0.3,0,0.5c0,0.1,0,0.3-0.1,0.4c0,0.1-0.1,0.3-0.1,0.4c0,0.1-0.1,0.2-0.2,0.3
				c-0.1,0.1-0.2,0.2-0.3,0.2c-0.1,0-0.3,0.1-0.5,0c-0.2,0-0.5-0.1-0.7-0.1c-0.3-0.1-0.5-0.2-0.8-0.3c-0.3-0.1-0.5-0.3-0.8-0.4
				c-0.2,0.7-0.6,1.2-1,1.5c-0.4,0.3-1,0.5-1.7,0.5h-0.2c-0.2,0-0.3-0.1-0.4-0.2c-0.1-0.1-0.1-0.3-0.1-0.5c0-0.2,0-0.3,0.1-0.5
				c0.1-0.1,0.2-0.2,0.4-0.2H135.3z M140.7,20.1c0,0,0-0.1,0-0.1c0-0.1-0.1-0.2-0.1-0.3c0-0.1-0.1-0.2-0.1-0.3
				c0-0.1-0.1-0.1-0.1-0.2c-0.1-0.1-0.1-0.1-0.2-0.2c-0.1-0.1-0.1-0.1-0.2-0.2c-0.1-0.1-0.1-0.1-0.2-0.1c-0.1,0-0.2,0-0.3,0
				c-0.1,0-0.2,0-0.3,0.1s-0.2,0.1-0.2,0.2c-0.1,0.1-0.1,0.1-0.2,0.2c-0.1,0.1-0.1,0.2-0.1,0.3c0.3,0.3,0.6,0.4,1,0.5
				C139.9,20,140.3,20.1,140.7,20.1z"/>
			<path d="M146.6,8.1c0,0,0,0.1,0,0.1c0,0.1,0,0.1,0,0.2c0,0.1,0,0.1-0.1,0.2c0,0.1-0.1,0.1-0.1,0.1c-0.1,0.2-0.3,0.4-0.5,0.6
				c-0.2,0.2-0.4,0.3-0.6,0.4c-0.2,0.1-0.4,0.2-0.7,0.2c-0.2,0.1-0.5,0.1-0.7,0.1c-0.3,0-0.6,0-1-0.1c-0.3-0.1-0.6-0.2-0.8-0.3
				c-0.1-0.1-0.1,0-0.1,0c0,0,0,0.1-0.1,0.2c0,0.1-0.1,0.1-0.2,0.2c-0.1,0.1-0.1,0.1-0.2,0.2c-0.1,0.1-0.1,0.1-0.1,0.1
				c-0.1,0-0.1,0-0.1-0.1c0-0.1,0-0.1,0-0.2c0-0.1,0-0.2,0.1-0.3c0-0.1,0.1-0.3,0.1-0.4c0-0.1,0.1-0.3,0.2-0.4
				c0.1-0.1,0.1-0.2,0.2-0.3c0.1-0.1,0.1-0.1,0.2,0c0.3,0.1,0.6,0.3,1,0.3c0.3,0.1,0.7,0.1,1,0.1c0.4,0,0.8-0.1,1.2-0.2
				c0.4-0.1,0.7-0.3,1-0.6C146.5,8.1,146.6,8.1,146.6,8.1z M143.8,10.9C143.8,10.9,143.8,10.9,143.8,10.9c0.1,0.1,0.1,0.1,0.1,0.1
				c0,0,0,0.1,0,0.1c0,0,0,0.1,0,0.1c0,0.2,0,0.5,0,0.7c0,0.2,0,0.4,0.1,0.7c0.1,0.5,0.1,1.1,0.2,1.6c0.1,0.6,0.2,1.1,0.2,1.7
				c0.1,0.6,0.2,1.1,0.2,1.7c0.1,0.6,0.1,1.1,0.2,1.7c0,0.2,0,0.5,0,0.7c0,0.3,0,0.6,0,0.8c0,0.3,0,0.6-0.1,0.8
				c0,0.3-0.1,0.5-0.2,0.7c0,0.1-0.1,0.2-0.2,0.2c0,0-0.1,0-0.1-0.1c-0.1-1-0.2-2.1-0.3-3.2c-0.2-1.1-0.3-2.2-0.5-3.4
				c-0.1-1.1-0.3-2.2-0.4-3.3c0-0.3,0.1-0.6,0.2-0.9c0.1-0.2,0.1-0.3,0.2-0.5C143.6,11.1,143.7,11,143.8,10.9z"/>
			<path d="M155.4,13.5c-0.3,0.1-0.6,0.3-0.9,0.4c-0.3,0.1-0.6,0.3-1,0.4c-0.3,0.1-0.6,0.3-0.9,0.4c-0.3,0.1-0.5,0.2-0.6,0.3
				c0,0-0.1,0-0.1,0c0,0,0,0,0-0.1c0,0,0-0.1,0.1-0.2c0-0.1,0.1-0.2,0.1-0.3c0-0.1,0.1-0.2,0.1-0.2c0-0.1,0.1-0.1,0.1-0.1
				c0.1-0.1,0.1-0.1,0.2-0.2l3.3-1.4c0.1,0,0.1,0,0.1,0.1c0,0.1,0,0.1-0.1,0.2c0,0.1-0.1,0.1-0.1,0.2c0,0.1-0.1,0.1-0.1,0.2
				c0,0.1-0.1,0.1-0.1,0.2C155.5,13.4,155.4,13.4,155.4,13.5z"/>
			<path d="M156.3,21c0.1-0.3,0.1-0.5,0.2-0.7c0.1-0.2,0.1-0.4,0.2-0.6c0-0.1,0-0.1,0.1-0.1c0,0,0.1,0,0.1,0.1
				c0.1,0.2,0.2,0.4,0.4,0.6c0.1,0.2,0.2,0.4,0.3,0.6c0.1,0.1,0.1,0.1,0.3,0.1c0.1,0,0.2,0.1,0.3,0.1c0.1,0,0.2,0,0.3,0
				c0.1,0,0.2,0,0.2,0h0.2c0.2,0,0.3,0.1,0.4,0.2c0.1,0.1,0.1,0.3,0.1,0.5c0,0.2,0,0.3-0.1,0.5c-0.1,0.1-0.2,0.2-0.4,0.2h-0.2
				c-0.3,0-0.6,0-0.8-0.1c0,0.3,0.1,0.7,0.1,1.1c0,0.4,0,0.7-0.1,1.1c-0.1,0.6-0.3,1.1-0.6,1.5c-0.3,0.4-0.7,0.8-1.2,1
				c-0.5,0.3-1,0.5-1.5,0.6c-0.5,0.1-1.1,0.2-1.6,0.2c-0.5,0-0.9-0.1-1.3-0.2c-0.4-0.1-0.7-0.4-1-0.6c-0.3-0.3-0.5-0.6-0.7-1
				c-0.2-0.4-0.3-0.8-0.3-1.3c0-0.6,0.1-1.1,0.3-1.6c0.2-0.5,0.4-1,0.7-1.5c0-0.1,0.1-0.1,0.1-0.1c0,0,0,0,0.1,0c0,0,0,0.1,0,0.1
				c0,0,0,0.1,0,0.1c-0.3,0.5-0.4,1.1-0.5,1.6c-0.1,0.6,0,1.1,0.1,1.5c0.1,0.2,0.2,0.4,0.3,0.6c0.1,0.2,0.3,0.3,0.5,0.5
				c0.2,0.1,0.5,0.2,0.7,0.3c0.3,0.1,0.6,0.1,0.9,0.1c0.4,0,0.8,0,1.2-0.1c0.4-0.1,0.8-0.2,1.1-0.3c0.4-0.1,0.7-0.3,1-0.6
				c0.3-0.2,0.6-0.5,0.9-0.8c0-0.3,0-0.6-0.1-0.9c-0.1-0.3-0.1-0.6-0.2-1c-0.1-0.3-0.2-0.6-0.3-1C156.5,21.6,156.4,21.3,156.3,21z
				 M154.5,17.2l1,0.9c0,0,0,0.1,0,0.1l-0.7,0.9c0,0.1-0.1,0.1-0.1,0l-1.1-0.9c0,0,0-0.1,0-0.1l0.7-0.9
				C154.4,17.1,154.5,17.1,154.5,17.2z"/>
			<path d="M160.7,17.7C160.7,17.7,160.7,17.6,160.7,17.7c0.1-0.1,0.1,0,0.2,0c0.2,0.2,0.3,0.3,0.4,0.5s0.3,0.4,0.4,0.6
				c0.1,0.2,0.2,0.4,0.2,0.7c0.1,0.2,0.1,0.4,0.1,0.7c0,0.1,0,0.2,0,0.3c0,0.1,0,0.3-0.1,0.4c0,0.1-0.1,0.2-0.1,0.4
				c0,0.1-0.1,0.2-0.1,0.3c-0.1,0.2-0.3,0.4-0.6,0.5s-0.5,0.2-0.8,0.3c-0.3,0.1-0.6,0.1-0.9,0.1c-0.3,0-0.6,0-0.8,0h-0.2
				c-0.2,0-0.3-0.1-0.4-0.2c-0.1-0.1-0.1-0.3-0.1-0.5c0-0.2,0-0.3,0.1-0.5c0.1-0.1,0.2-0.2,0.4-0.2h0.2c0.1,0,0.3,0,0.6,0
				c0.2,0,0.5,0,0.8,0c0.3,0,0.5-0.1,0.8-0.1s0.5-0.1,0.6-0.2c0.1-0.1,0.1-0.1,0.1-0.2c-0.1-0.3-0.2-0.6-0.4-0.9
				c-0.2-0.2-0.4-0.5-0.6-0.7c0-0.2,0.1-0.4,0.1-0.6C160.6,18.1,160.6,17.9,160.7,17.7z M161.7,25.9C161.7,26,161.7,26,161.7,25.9
				c-0.1,0.1-0.1,0-0.2,0l-1-0.8l-0.6,0.9c0,0.1-0.1,0.1-0.1,0l-1-0.9c0,0,0-0.1,0-0.1l0.7-1c0,0,0-0.1,0.1-0.1c0,0,0,0,0.1,0l1,0.8
				l0.7-0.9c0,0,0.1-0.1,0.1,0l1,0.9c0,0,0,0.1,0,0.1L161.7,25.9z"/>
			<path d="M167.6,24.5c-0.6,0.2-1.2,0.4-1.7,0.6c-0.5,0.2-1.1,0.4-1.6,0.6c-0.1,0-0.1,0-0.1-0.1c0-0.1,0.1-0.2,0.2-0.4
				c0.1-0.1,0.1-0.2,0.2-0.3c0,0,0.1-0.1,0.1-0.1c0.1-0.1,0.3-0.1,0.6-0.2c0.2-0.1,0.5-0.2,0.8-0.3c0.3-0.1,0.6-0.2,0.9-0.3
				c0.3-0.1,0.6-0.2,1-0.3c0.1,0,0.1,0,0.1,0.1c0,0.1-0.1,0.1-0.1,0.2c0,0.1-0.1,0.1-0.1,0.2c0,0.1-0.1,0.1-0.1,0.2
				c0,0.1-0.1,0.1-0.1,0.1C167.7,24.4,167.6,24.4,167.6,24.5C167.6,24.5,167.6,24.5,167.6,24.5z"/>
			<path d="M172.3,4.5c-0.3,0.1-0.6,0.3-0.9,0.4c-0.3,0.1-0.6,0.3-1,0.4c-0.3,0.1-0.6,0.3-0.9,0.4c-0.3,0.1-0.5,0.2-0.6,0.3
				c0,0-0.1,0-0.1,0c0,0,0,0,0-0.1c0,0,0-0.1,0.1-0.2c0-0.1,0.1-0.2,0.1-0.3c0-0.1,0.1-0.2,0.1-0.2c0-0.1,0.1-0.1,0.1-0.1
				c0.1-0.1,0.1-0.1,0.2-0.2l3.3-1.4c0.1,0,0.1,0,0.1,0.1c0,0.1,0,0.1-0.1,0.2c0,0.1-0.1,0.1-0.1,0.2c0,0.1-0.1,0.1-0.1,0.2
				c0,0.1-0.1,0.1-0.1,0.2C172.4,4.4,172.4,4.5,172.3,4.5z M170.6,7.8c-0.1,0.3-0.2,0.5-0.4,0.6c-0.2,0.1-0.4,0.2-0.6,0.2
				c-0.2,0-0.4,0-0.5-0.1c-0.1-0.1-0.2-0.3-0.2-0.5c0-0.1,0-0.2,0-0.4c0-0.1,0.1-0.2,0.1-0.4c0-0.1,0.1-0.2,0.1-0.3
				c0.1-0.1,0.1-0.1,0.2-0.2c0.1,0,0.1,0,0,0.2c0,0.1,0,0.1-0.1,0.2c0,0.1,0,0.2,0,0.3c0,0.1,0,0.2,0,0.2s0.1,0.1,0.1,0.1
				c0.1,0.1,0.2,0.1,0.3,0.1c0.1,0,0.2,0,0.3-0.1c0.1,0,0.2-0.1,0.3-0.2c0.1-0.1,0.2-0.1,0.2-0.2c0.1-0.1,0.1-0.2,0.1-0.3
				c0-0.1,0.1-0.2,0.1-0.3c0,0,0-0.1,0-0.1c0,0,0-0.1,0-0.1c0,0,0-0.1,0.1-0.1c0,0,0.1,0,0.1-0.1c0,0,0,0,0.1,0c0,0,0,0.1,0,0.1
				c0,0,0,0.1,0,0.1c0,0,0,0.1,0,0.1c0,0.2,0,0.3,0.1,0.4c0.1,0.1,0.2,0.2,0.3,0.2c0.1,0,0.2,0,0.3,0c0.1,0,0.2-0.1,0.3-0.2
				c0,0,0-0.1,0-0.1c0-0.1,0-0.1,0-0.2c0-0.1,0-0.1,0-0.2c0,0,0-0.1,0-0.1c0,0,0-0.1,0-0.1c0-0.1,0-0.2,0.1-0.2
				c0-0.1,0.1-0.2,0.1-0.2c0-0.1,0.1-0.1,0.1-0.1c0.1,0,0.1,0,0.1,0.1c0,0.1,0.1,0.2,0.1,0.3c0,0.1,0,0.3,0,0.4c0,0.1,0,0.3,0,0.4
				c0,0.1-0.1,0.2-0.1,0.3c0,0.1-0.1,0.2-0.2,0.3S171.9,8,171.8,8c-0.1,0.1-0.2,0.1-0.3,0.1c-0.2,0-0.4,0-0.5,0
				C170.8,8.1,170.7,8,170.6,7.8z"/>
			<path d="M171.7,20.6c-0.1-0.6-0.1-1.2-0.2-1.9c-0.1-0.7-0.2-1.4-0.3-2.1c-0.1-0.7-0.2-1.4-0.3-2.1c-0.1-0.7-0.2-1.3-0.3-1.9
				c0-0.1,0-0.2-0.1-0.4c0-0.1,0-0.2-0.1-0.4c0-0.1-0.1-0.2-0.1-0.4c0-0.1-0.1-0.2-0.1-0.3c0-0.1-0.1-0.1-0.1-0.1c0,0,0-0.1,0.1-0.1
				c0.1-0.2,0.2-0.3,0.3-0.5c0.1-0.2,0.2-0.3,0.2-0.5c0-0.1,0-0.1,0.1-0.1c0,0,0.1,0,0.1,0.1c0,0.1,0.1,0.3,0.2,0.4
				c0.1,0.1,0.1,0.3,0.2,0.4c0.1,0.1,0.2,0.3,0.3,0.4c0.1,0.1,0.2,0.2,0.3,0.3c-0.1,0.1-0.1,0.3-0.2,0.4c-0.1,0.1-0.1,0.2-0.1,0.3
				c0,0.1-0.1,0.2-0.1,0.2c0,0.1,0,0.2,0,0.3c0,0.5,0.1,1,0.2,1.5c0.1,0.5,0.2,1.1,0.2,1.6c0.1,0.6,0.2,1.1,0.2,1.7
				c0.1,0.6,0.1,1.1,0.2,1.6c0,0.2,0,0.5,0,0.8c0,0.3,0,0.6-0.1,0.9c0,0.3-0.1,0.6-0.2,0.8c-0.1,0.3-0.2,0.5-0.3,0.6
				c-0.1,0.1-0.3,0.2-0.4,0.3c-0.2,0.1-0.3,0.1-0.5,0.1s-0.4,0-0.6,0c-0.2,0-0.3-0.1-0.5-0.2c-0.2-0.1-0.4-0.3-0.5-0.4
				c-0.2-0.2-0.3-0.4-0.4-0.6c-0.1-0.2-0.2-0.4-0.3-0.7c-0.1-0.2-0.2-0.5-0.2-0.7c-0.1,0.3-0.2,0.5-0.4,0.7
				c-0.2,0.2-0.4,0.4-0.6,0.5c-0.1,0.1-0.3,0.1-0.5,0.2c-0.2,0.1-0.4,0.1-0.6,0.2c-0.2,0-0.4,0.1-0.6,0.1c-0.2,0-0.4,0-0.6,0
				c-0.2,0-0.4,0-0.5-0.1c-0.2-0.1-0.3-0.1-0.4-0.2c-0.1-0.1-0.1-0.2-0.1-0.3c0-0.1,0-0.3,0-0.4s0-0.3,0-0.5c0-0.2,0.1-0.3,0.1-0.4
				c0,0,0-0.1,0.1-0.1c0,0,0.1,0,0.1,0.1c0.1,0.2,0.2,0.3,0.3,0.4c0.1,0.1,0.3,0.1,0.5,0.2c0.3,0,0.5,0,0.9,0c0.3,0,0.6-0.1,0.9-0.2
				c0.3-0.1,0.6-0.2,0.8-0.3c0.2-0.1,0.4-0.3,0.5-0.5c-0.1-0.4-0.2-0.9-0.3-1.3c-0.1-0.5-0.2-0.9-0.3-1.3c0-0.1,0-0.1,0-0.2
				c0-0.1,0.1-0.2,0.1-0.3c0-0.1,0.1-0.2,0.1-0.3c0-0.1,0.1-0.2,0.1-0.3c0-0.1,0-0.1,0.1-0.1c0,0,0.1,0,0.1,0.1
				c0,0.2,0.1,0.5,0.1,0.8c0,0.3,0.1,0.5,0.1,0.8c0.1,0.3,0.1,0.5,0.2,0.8c0.1,0.3,0.1,0.5,0.2,0.8c0.1,0.3,0.1,0.6,0.2,0.9
				c0.1,0.3,0.2,0.5,0.3,0.7c0.1,0.2,0.3,0.4,0.4,0.5c0.2,0.1,0.4,0.2,0.6,0.3c0.1,0,0.3,0,0.4,0c0.2,0,0.4,0,0.5-0.1
				c0.2,0,0.3-0.1,0.4-0.2C171.6,20.9,171.7,20.8,171.7,20.6z M166.6,12.4l1,0.9c0,0,0,0.1,0,0.1l-0.7,0.9c0,0.1-0.1,0.1-0.1,0
				l-1.1-0.9c0,0,0-0.1,0-0.1l0.7-0.9C166.5,12.3,166.6,12.3,166.6,12.4z"/>
			<path d="M174.6,11.1C174.6,11.1,174.7,11.1,174.6,11.1c0.1,0.1,0.1,0.1,0.1,0.1c0,0,0,0.1,0,0.1c0,0,0,0.1,0,0.1
				c0,0.2,0,0.4,0,0.7c0,0.2,0,0.4,0.1,0.6c0.1,0.5,0.1,1.1,0.2,1.6c0.1,0.6,0.1,1.1,0.2,1.7c0.1,0.6,0.1,1.1,0.2,1.7
				c0.1,0.6,0.1,1.1,0.2,1.6c0,0.2,0,0.4,0,0.7c0,0.3,0,0.6,0,0.8c0,0.3,0,0.6-0.1,0.8c0,0.3-0.1,0.5-0.2,0.7c0,0.1-0.1,0.2-0.2,0.2
				c0,0-0.1,0-0.1-0.1c-0.1-1-0.2-2.1-0.3-3.1c-0.1-1.1-0.3-2.2-0.4-3.3c-0.1-1.1-0.3-2.2-0.4-3.3c0-0.3,0.1-0.6,0.2-0.9
				c0.1-0.2,0.1-0.3,0.2-0.5C174.5,11.3,174.5,11.2,174.6,11.1z"/>
			<path d="M180.6,12.2c0-0.2,0.1-0.4,0.2-0.6c0.1-0.2,0.2-0.4,0.3-0.6c0,0,0,0,0.1,0c0,0,0.1,0,0.1,0c0.1,0.3,0.1,0.7,0.2,1
				c0.1,0.3,0.1,0.7,0.2,1.1c0.1,0.4,0.1,0.8,0.2,1.3c0.1,0.5,0.1,1,0.2,1.6c0,0.4,0.1,0.8,0.1,1.2c0,0.3,0.1,0.6,0.1,0.9
				c0,0.3,0.1,0.5,0.1,0.7c0,0.2,0.1,0.4,0.1,0.7c0.1,0.3,0.1,0.6,0.2,0.8c0.1,0.2,0.2,0.4,0.4,0.5c0.2,0.1,0.3,0.2,0.5,0.3
				c0.2,0.1,0.5,0.1,0.8,0.1h0.1c0.2,0,0.3,0.1,0.4,0.2c0.1,0.1,0.1,0.3,0.1,0.5c0,0.2,0,0.3-0.1,0.5c-0.1,0.1-0.2,0.2-0.4,0.2h-0.1
				c-0.4,0-0.8-0.1-1.1-0.2c-0.3-0.1-0.6-0.3-0.8-0.6c-0.2-0.2-0.4-0.5-0.5-0.9c-0.1-0.3-0.2-0.7-0.2-1.1c0-0.3-0.1-0.7-0.1-1
				c0-0.4-0.1-0.7-0.1-1.1c0-0.3-0.1-0.7-0.1-1c0-0.3-0.1-0.6-0.1-0.9c-0.1-0.5-0.1-1.1-0.2-1.6c-0.1-0.5-0.2-1.1-0.4-1.7
				C180.6,12.3,180.6,12.3,180.6,12.2C180.6,12.3,180.6,12.2,180.6,12.2z"/>
			<path d="M188.7,12.2c-0.3,0.1-0.6,0.3-0.9,0.4c-0.3,0.1-0.6,0.3-1,0.4c-0.3,0.1-0.6,0.3-0.9,0.4c-0.3,0.1-0.5,0.2-0.6,0.3
				c0,0-0.1,0-0.1,0c0,0,0,0,0-0.1c0,0,0-0.1,0.1-0.2s0.1-0.2,0.1-0.3c0-0.1,0.1-0.2,0.1-0.2c0-0.1,0.1-0.1,0.1-0.1
				c0.1-0.1,0.1-0.1,0.2-0.2l3.3-1.4c0.1,0,0.1,0,0.1,0.1c0,0.1,0,0.1-0.1,0.2c0,0.1-0.1,0.1-0.1,0.2c0,0.1-0.1,0.1-0.1,0.2
				c0,0.1-0.1,0.1-0.1,0.2C188.8,12.1,188.8,12.1,188.7,12.2z"/>
			<path d="M188.3,17c0.1,0,0.1,0,0.2,0.1c0.1,0.1,0.1,0.2,0.1,0.3c0,0.1,0.1,0.2,0.1,0.4c0,0.1,0,0.3,0.1,0.4c0,0.1,0,0.3,0,0.4
				c0,0.1,0,0.2,0,0.3c0,0.5-0.1,0.9-0.3,1.3c-0.2,0.4-0.4,0.7-0.7,1c0.2,0,0.5-0.1,0.7-0.1c0.2,0,0.5,0,0.7,0c0.2,0,0.5,0,0.7,0
				c0.2,0,0.4,0,0.6,0h0.1c0.2,0,0.3,0.1,0.4,0.2c0.1,0.1,0.1,0.3,0.1,0.5c0,0.2,0,0.3-0.1,0.5c-0.1,0.1-0.2,0.2-0.4,0.2h-0.1
				l-1.6,0c0.2,0.2,0.3,0.4,0.4,0.7c0.1,0.2,0.1,0.5,0.1,0.7c0,0.2,0,0.3-0.1,0.5c0,0.2-0.1,0.4-0.2,0.5c-0.1,0.2-0.2,0.3-0.3,0.4
				c-0.1,0.1-0.3,0.2-0.4,0.2c-0.4,0.1-0.7,0-1-0.1c-0.3-0.2-0.6-0.4-0.8-0.6c-0.1-0.1-0.2-0.3-0.3-0.4c-0.1-0.2-0.2-0.3-0.3-0.5
				c-0.1-0.2-0.1-0.4-0.2-0.5c-0.1-0.2-0.1-0.4-0.1-0.6c-0.1,0-0.2,0-0.2,0c-0.1,0-0.2,0-0.2,0.1c-0.1,0-0.1,0-0.2,0
				c-0.1,0-0.1,0-0.1,0c0-0.1,0-0.1,0-0.2c0-0.1,0.1-0.1,0.1-0.2l-0.9,0H184c-0.2,0-0.3-0.1-0.4-0.2c-0.1-0.1-0.1-0.3-0.1-0.5
				c0-0.2,0.1-0.3,0.2-0.5c0.1-0.1,0.2-0.2,0.4-0.2h0.2c0.3,0,0.6,0,0.9,0c0.3,0,0.5,0,0.8-0.1c0.1-0.4,0.2-0.9,0.4-1.3
				c0.2-0.5,0.4-0.9,0.6-1.2c0.1-0.1,0.2-0.3,0.3-0.4c0.1-0.2,0.2-0.3,0.4-0.5c0.1-0.2,0.3-0.3,0.4-0.4
				C188.1,17.1,188.2,17,188.3,17z M186.3,21c0.2-0.1,0.3-0.1,0.5-0.2c0.2-0.1,0.4-0.2,0.6-0.3c0.2-0.1,0.4-0.2,0.5-0.4
				c0.2-0.1,0.3-0.2,0.3-0.4c0-0.2,0-0.4-0.1-0.6c0-0.2-0.1-0.4-0.2-0.5c0,0-0.1-0.1-0.1-0.1c0,0-0.1,0-0.1,0
				c-0.2,0-0.3,0.1-0.5,0.3c-0.2,0.2-0.3,0.4-0.4,0.7c-0.1,0.3-0.3,0.5-0.4,0.8C186.4,20.6,186.4,20.8,186.3,21z M186.4,22.7
				c0.1,0.2,0.2,0.4,0.3,0.6c0.1,0.2,0.2,0.3,0.3,0.5c0.1,0.1,0.3,0.3,0.4,0.4c0.2,0.1,0.4,0.2,0.6,0.2c0.1,0,0.2,0,0.3,0
				c0.1,0,0.2,0,0.3-0.1c0.1,0,0.2-0.1,0.3-0.1c0.1-0.1,0.1-0.1,0.1-0.2c0-0.1,0-0.2-0.1-0.3c-0.1-0.1-0.2-0.2-0.4-0.3
				c-0.2-0.1-0.3-0.2-0.5-0.3c-0.2-0.1-0.4-0.1-0.6-0.2c-0.2-0.1-0.4-0.1-0.5-0.1C186.7,22.7,186.5,22.7,186.4,22.7z"/>
			<path d="M191.6,9.2c-0.1,0-0.1-0.1,0-0.1c0.1,0,0.1-0.1,0.2-0.2c0.2-0.1,0.4-0.2,0.6-0.3c0.2-0.1,0.4-0.2,0.6-0.3
				c0.2-0.1,0.4-0.2,0.6-0.4c0.2-0.1,0.4-0.3,0.5-0.4c-0.1-0.1-0.3-0.2-0.4-0.3c-0.2-0.1-0.3-0.2-0.3-0.4c0-0.1-0.1-0.2-0.1-0.3
				c0-0.1,0-0.2,0.1-0.3c0.1-0.1,0.1-0.3,0.2-0.4c0.1-0.2,0.2-0.3,0.3-0.4c0.1-0.1,0.2-0.2,0.4-0.3c0.1-0.1,0.3-0.1,0.4-0.1
				c0.1,0,0.2,0.1,0.2,0.1c0.1,0.1,0.1,0.2,0.1,0.3c0,0.1,0,0.2,0,0.4c0,0.1,0,0.3,0,0.4c0,0.1,0,0.3-0.1,0.4c0,0.1,0,0.2-0.1,0.3
				c0,0,0,0,0,0.1c0.1,0,0.1,0.1,0.1,0.1c0,0,0,0.1,0.1,0.1c0,0.1,0,0.2,0,0.3c0,0.1-0.1,0.2-0.1,0.3c0,0-0.1,0.1-0.1,0.1
				c0,0-0.1,0-0.1-0.1c0-0.1-0.1-0.1-0.1-0.2c-0.2,0.2-0.4,0.4-0.6,0.5c-0.2,0.2-0.4,0.3-0.6,0.4c-0.2,0.1-0.4,0.2-0.6,0.3
				c-0.2,0.1-0.4,0.2-0.7,0.2c0,0-0.1,0-0.1,0c-0.1,0-0.1,0-0.2,0c-0.1,0-0.1,0-0.1,0C191.7,9.2,191.6,9.2,191.6,9.2z M193.4,10.9
				c-0.1,0.3-0.2,0.4-0.4,0.6c-0.2,0.1-0.4,0.2-0.6,0.2c-0.2,0-0.4,0-0.5-0.1c-0.1-0.1-0.2-0.3-0.2-0.6c0-0.1,0-0.2,0-0.4
				c0-0.1,0.1-0.2,0.1-0.4c0-0.1,0.1-0.2,0.2-0.3c0.1-0.1,0.1-0.1,0.2-0.2c0.1,0,0.1,0,0,0.2c0,0.1-0.1,0.1-0.1,0.2
				c0,0.1,0,0.2,0,0.3c0,0.1,0,0.2,0,0.2c0,0.1,0,0.1,0.1,0.1c0.1,0.1,0.2,0.1,0.3,0.1c0.1,0,0.2,0,0.3-0.1c0.1,0,0.2-0.1,0.3-0.2
				c0.1-0.1,0.2-0.1,0.2-0.2c0.1-0.1,0.1-0.2,0.1-0.3c0-0.1,0.1-0.2,0.1-0.3c0,0,0-0.1,0-0.1c0,0,0-0.1,0-0.1c0,0,0-0.1,0.1-0.1
				c0,0,0.1,0,0.1-0.1c0,0,0,0,0.1,0c0,0,0,0.1,0,0.1c0,0,0,0.1,0,0.1c0,0,0,0.1,0,0.1c0,0.2,0,0.3,0.1,0.4c0,0.1,0.2,0.2,0.3,0.2
				c0.1,0,0.2,0,0.3,0c0.1,0,0.2-0.1,0.3-0.2c0,0,0-0.1,0-0.1c0-0.1,0-0.1,0-0.2c0-0.1,0-0.1,0-0.2c0,0,0-0.1,0-0.1c0,0,0-0.1,0-0.1
				c0-0.1,0.1-0.1,0.1-0.2c0-0.1,0.1-0.1,0.1-0.2c0-0.1,0.1-0.1,0.1-0.1c0.1,0,0.1,0,0.1,0.1c0,0.1,0.1,0.2,0.1,0.3
				c0,0.1,0,0.3,0,0.4c0,0.1,0,0.3-0.1,0.4c0,0.1-0.1,0.2-0.1,0.3c0,0.1-0.1,0.2-0.2,0.3c-0.1,0.1-0.1,0.2-0.2,0.2
				c-0.1,0.1-0.2,0.1-0.3,0.1c-0.2,0-0.4,0-0.5,0C193.7,11.2,193.5,11.1,193.4,10.9z M193.7,6.1c0.1,0.2,0.2,0.3,0.4,0.4
				c0.1,0.1,0.3,0.2,0.4,0.2h0c0,0,0-0.1,0-0.2c0-0.1,0-0.2,0-0.2c0-0.1,0-0.2,0-0.2c0-0.1,0-0.1-0.1-0.2c0,0-0.1-0.1-0.2-0.1
				c-0.1,0-0.2,0-0.2,0c-0.1,0-0.2,0.1-0.2,0.1S193.8,6.1,193.7,6.1z"/>
			<path d="M193.8,17.6C193.8,17.6,193.8,17.6,193.8,17.6c0.1-0.1,0.1,0,0.2,0c0.2,0.2,0.3,0.3,0.4,0.5c0.1,0.2,0.3,0.4,0.4,0.6
				c0.1,0.2,0.2,0.4,0.2,0.7c0.1,0.2,0.1,0.4,0.1,0.7c0,0.1,0,0.2,0,0.3c0,0.1,0,0.3-0.1,0.4c0,0.1-0.1,0.2-0.1,0.4
				c0,0.1-0.1,0.2-0.1,0.3c-0.1,0.1-0.2,0.3-0.4,0.4c-0.2,0.1-0.4,0.2-0.7,0.3c-0.3,0.1-0.5,0.1-0.8,0.2c-0.3,0.1-0.6,0.1-0.9,0.1
				c-0.3,0-0.5,0-0.8,0.1c-0.2,0-0.4,0-0.6,0h-0.2c-0.2,0-0.3-0.1-0.4-0.2c-0.1-0.1-0.1-0.3-0.1-0.5c0-0.2,0-0.3,0.1-0.5
				c0.1-0.1,0.2-0.2,0.4-0.2h0.2c0.1,0,0.2,0,0.4,0c0.2,0,0.4,0,0.7,0c0.2,0,0.5,0,0.8,0c0.3,0,0.5,0,0.8-0.1c0.3,0,0.5-0.1,0.7-0.1
				c0.2,0,0.4-0.1,0.5-0.2c0.1-0.1,0.1-0.1,0.1-0.2c-0.1-0.3-0.2-0.6-0.4-0.9c-0.2-0.2-0.4-0.5-0.6-0.7c0-0.2,0.1-0.4,0.1-0.6
				C193.7,18,193.7,17.8,193.8,17.6z M193.9,25.9C193.8,26,193.8,26,193.9,25.9c-0.1,0.1-0.1,0-0.2,0l-1-0.8l-0.6,0.9
				c0,0.1-0.1,0.1-0.1,0l-1-0.9c0,0,0-0.1,0-0.1l0.7-1c0,0,0-0.1,0.1-0.1s0,0,0.1,0l1,0.8l0.7-0.9c0,0,0.1-0.1,0.1,0l1,0.9
				c0,0,0,0.1,0,0.1L193.9,25.9z"/>
			<path d="M200.2,4.9c-0.3,0.1-0.6,0.3-0.9,0.4c-0.3,0.1-0.6,0.3-1,0.4c-0.3,0.1-0.6,0.3-0.9,0.4c-0.3,0.1-0.5,0.2-0.6,0.3
				c0,0-0.1,0-0.1,0c0,0,0,0,0-0.1c0,0,0-0.1,0.1-0.2c0-0.1,0.1-0.2,0.1-0.3c0-0.1,0.1-0.2,0.1-0.2c0-0.1,0.1-0.1,0.1-0.1
				c0.1-0.1,0.1-0.1,0.2-0.2l3.3-1.4c0.1,0,0.1,0,0.1,0.1c0,0.1,0,0.1-0.1,0.2c0,0.1-0.1,0.1-0.1,0.2c0,0.1-0.1,0.1-0.1,0.2
				c0,0.1-0.1,0.1-0.1,0.2C200.3,4.8,200.3,4.9,200.2,4.9z"/>
			<path d="M197,9.9c0,0,0.1-0.1,0.2-0.1s0.1-0.1,0.2-0.1c0.1,0,0.1-0.1,0.2-0.1c0.1,0,0.1-0.1,0.2-0.1c-0.1-0.1-0.3-0.2-0.4-0.3
				c-0.1-0.1-0.2-0.3-0.3-0.5c0-0.1,0-0.2,0-0.2c0-0.1,0-0.2,0.1-0.2c0.1-0.1,0.2-0.3,0.3-0.4c0.1-0.1,0.2-0.3,0.4-0.4
				c0.1-0.1,0.3-0.2,0.4-0.3c0.2-0.1,0.3-0.1,0.5-0.1c0.1,0,0.1,0,0.2,0.1c0.1,0,0.1,0.1,0.2,0.2c0,0.1,0.1,0.1,0.1,0.2
				c0,0.1,0.1,0.1,0.1,0.2c0,0.1,0,0.2,0,0.3l-0.2,0.3c-0.1,0.1-0.1,0.2-0.2,0.2c-0.1,0-0.1,0-0.1-0.1c0-0.1,0-0.2-0.1-0.2
				c-0.1-0.1-0.1-0.2-0.2-0.2c-0.1,0-0.1-0.1-0.2-0.1c-0.3,0-0.5,0.1-0.7,0.3c0.1,0.2,0.2,0.4,0.4,0.6c0.2,0.2,0.4,0.3,0.6,0.3
				c0.3,0,0.6,0,0.8,0c0.3-0.1,0.5-0.1,0.8-0.2c0,0,0,0.1,0,0.1c0,0.1-0.1,0.2-0.1,0.3c0,0.1-0.1,0.2-0.1,0.3c0,0.1-0.1,0.1-0.1,0.1
				c-0.2,0-0.5,0.1-0.7,0.1s-0.5,0.1-0.8,0.2c-0.3,0.1-0.6,0.2-0.9,0.3c-0.3,0.1-0.6,0.3-0.8,0.4c-0.1,0-0.1,0-0.1-0.1
				c0-0.1,0.1-0.2,0.1-0.4C196.9,10.1,196.9,10,197,9.9z M198.4,11.3C198.5,11.3,198.5,11.3,198.4,11.3c0.1,0.1,0.1,0.1,0.1,0.1
				c0,0,0,0.1,0,0.1c0,0,0,0.1,0,0.1c0,0.2,0,0.4,0,0.6c0,0.2,0,0.4,0,0.6c0,0.5,0.1,1,0.1,1.6c0.1,0.5,0.1,1.1,0.2,1.6
				c0.1,0.6,0.1,1.1,0.2,1.7c0.1,0.6,0.1,1.1,0.1,1.6c0,0.2,0,0.4,0,0.7c0,0.3,0,0.5,0,0.8c0,0.3-0.1,0.6-0.1,0.8
				c-0.1,0.3-0.1,0.5-0.2,0.7c0,0.1-0.1,0.2-0.2,0.2c0,0-0.1,0-0.1-0.1c0-1-0.1-2-0.2-3.1c-0.1-1.1-0.2-2.2-0.3-3.2
				c-0.1-1.1-0.2-2.2-0.3-3.2c0-0.1,0-0.3,0.1-0.4c0-0.1,0.1-0.3,0.2-0.4c0.1-0.2,0.1-0.3,0.2-0.4C198.3,11.5,198.4,11.4,198.4,11.3
				z"/>
			<path d="M204.5,12.2c0-0.2,0.1-0.4,0.2-0.6c0.1-0.2,0.2-0.4,0.3-0.6c0,0,0,0,0.1,0c0,0,0.1,0,0.1,0c0.1,0.3,0.1,0.7,0.2,1
				c0.1,0.3,0.1,0.7,0.2,1.1c0.1,0.4,0.1,0.8,0.2,1.3c0.1,0.5,0.1,1,0.2,1.6c0,0.4,0.1,0.8,0.1,1.2c0,0.3,0.1,0.6,0.1,0.9
				c0,0.3,0.1,0.5,0.1,0.7c0,0.2,0.1,0.4,0.1,0.7c0.1,0.3,0.1,0.6,0.2,0.8c0.1,0.2,0.2,0.4,0.4,0.5c0.2,0.1,0.3,0.2,0.5,0.3
				c0.2,0.1,0.5,0.1,0.8,0.1h0.1c0.2,0,0.3,0.1,0.4,0.2c0.1,0.1,0.1,0.3,0.1,0.5c0,0.2,0,0.3-0.1,0.5c-0.1,0.1-0.2,0.2-0.4,0.2H208
				c-0.4,0-0.8-0.1-1.1-0.2c-0.3-0.1-0.6-0.3-0.8-0.6c-0.2-0.2-0.4-0.5-0.5-0.9c-0.1-0.3-0.2-0.7-0.2-1.1c0-0.3-0.1-0.7-0.1-1
				c0-0.4-0.1-0.7-0.1-1.1c0-0.3-0.1-0.7-0.1-1c0-0.3-0.1-0.6-0.1-0.9c-0.1-0.5-0.1-1.1-0.2-1.6c-0.1-0.5-0.2-1.1-0.4-1.7
				C204.5,12.3,204.4,12.3,204.5,12.2C204.4,12.3,204.4,12.2,204.5,12.2z"/>
			<path d="M211.2,12.8c-0.3,0.1-0.6,0.3-0.9,0.4c-0.3,0.1-0.6,0.3-1,0.4c-0.3,0.1-0.6,0.3-0.9,0.4c-0.3,0.1-0.5,0.2-0.6,0.3
				c0,0-0.1,0-0.1,0c0,0,0,0,0-0.1c0,0,0-0.1,0.1-0.2c0-0.1,0.1-0.2,0.1-0.3c0-0.1,0.1-0.2,0.1-0.2c0-0.1,0.1-0.1,0.1-0.1
				c0.1-0.1,0.1-0.1,0.2-0.2l3.3-1.4c0.1,0,0.1,0,0.1,0.1c0,0.1,0,0.1-0.1,0.2c0,0.1-0.1,0.1-0.1,0.2c0,0.1-0.1,0.1-0.1,0.2
				c0,0.1-0.1,0.1-0.1,0.2C211.3,12.7,211.3,12.8,211.2,12.8z"/>
			<path d="M210.1,17.7C210.1,17.7,210.1,17.6,210.1,17.7c0.1-0.1,0.1,0,0.2,0c0.2,0.2,0.3,0.3,0.4,0.5s0.3,0.4,0.4,0.6
				c0.1,0.2,0.2,0.4,0.2,0.7c0.1,0.2,0.1,0.4,0.1,0.7c0,0.1,0,0.2,0,0.3c0,0.1,0,0.3-0.1,0.4c0,0.1-0.1,0.2-0.1,0.4
				c0,0.1-0.1,0.2-0.1,0.3c-0.1,0.2-0.3,0.4-0.6,0.5c-0.2,0.1-0.5,0.2-0.8,0.3c-0.3,0.1-0.6,0.1-0.9,0.1c-0.3,0-0.6,0-0.8,0h-0.2
				c-0.2,0-0.3-0.1-0.4-0.2c-0.1-0.1-0.1-0.3-0.1-0.5c0-0.2,0-0.3,0.1-0.5c0.1-0.1,0.2-0.2,0.4-0.2h0.2c0.1,0,0.3,0,0.6,0
				c0.2,0,0.5,0,0.8,0c0.3,0,0.5-0.1,0.8-0.1s0.5-0.1,0.6-0.2c0.1-0.1,0.1-0.1,0.1-0.2c-0.1-0.3-0.2-0.6-0.4-0.9
				c-0.2-0.2-0.4-0.5-0.6-0.7c0-0.2,0.1-0.4,0.1-0.6C210,18.1,210,17.9,210.1,17.7z M211.1,25.9C211.1,26,211.1,26,211.1,25.9
				c-0.1,0.1-0.1,0-0.2,0l-1-0.8l-0.6,0.9c0,0.1-0.1,0.1-0.1,0l-1-0.9c0,0,0-0.1,0-0.1l0.7-1c0,0,0-0.1,0.1-0.1c0,0,0,0,0.1,0l1,0.8
				l0.7-0.9c0,0,0.1-0.1,0.1,0l1,0.9c0,0,0,0.1,0,0.1L211.1,25.9z"/>
			<path d="M226.2,18c0,0.1-0.1,0.3-0.2,0.4c-0.2,0.2-0.4,0.4-0.8,0.6c0,0.4-0.1,0.7-0.2,1.1c-0.1,0.3-0.2,0.5-0.3,0.5
				c-0.4-0.4-0.7-0.7-1-1c-0.4-0.3-0.8-0.5-1.2-0.5c0,0.4,0.2,0.8,0.6,1.2c0.3,0.3,0.6,0.7,0.9,1c0,0.2-0.3,0.3-0.9,0.5
				c-0.5,0.1-0.9,0.1-1.2,0.1c-0.5,1.4-1.1,2.7-1.9,3.9c-0.3,0.5-0.8,1.1-1.4,1.7c-0.8,0.8-1.4,1.2-1.7,1.2c-0.1,0-0.2-0.1-0.2-0.2
				c0-0.1,0.2-0.4,0.7-0.9c0.6-0.8,1.1-1.4,1.4-2.1c0.6-1.1,1-2.3,1.2-3.7c-0.4-0.1-0.7-0.1-0.8-0.2c-0.1-0.1-0.2-0.1-0.2-0.3
				c0.9-0.8,1.4-1.5,1.4-2.2c-0.4,0-0.8,0.2-1.1,0.5c-0.2,0.2-0.5,0.6-1,1c-0.1,0-0.2-0.2-0.4-0.5c-0.1-0.4-0.2-0.7-0.2-1.1
				c-0.4-0.2-0.6-0.4-0.7-0.4c-0.2-0.2-0.4-0.4-0.4-0.6c0-0.1,0.1-0.3,0.2-0.4c0.1-0.1,0.3-0.3,0.8-0.5c0-1.1,0.2-1.6,0.5-1.6
				c0.8,0.9,1.5,1.3,2.1,1.4c0-0.3-0.2-0.8-0.5-1.2c0,0-0.3-0.4-0.9-1c0-0.1,0.1-0.2,0.2-0.2c0.2-0.1,0.4-0.1,0.8-0.2
				c-0.2-1.1-0.6-2.2-1.2-3.3c-0.6-1.1-1.3-2.1-2.1-2.8c-0.1-0.1-0.2-0.2-0.2-0.3c0-0.1,0.1-0.2,0.2-0.2c0.2,0,0.7,0.2,1.2,0.6
				c1.7,1.3,3.1,3.2,4,5.8c1.3,0,2,0.2,2,0.6c-0.4,0.3-0.7,0.7-0.9,1c-0.3,0.4-0.4,0.8-0.4,1.2c0.3,0,0.7-0.2,1-0.5l1.1-1
				c0.2,0,0.4,0.5,0.5,1.4c0,0.1,0,0.2,0,0.3C225.9,17.4,226.2,17.7,226.2,18z M223.1,14.7c0,0-0.1-0.1-0.4-0.1
				c-0.2,0-0.4-0.1-0.5-0.1h-0.4c-0.1,0-0.2,0-0.3,0.1c-0.4-1.2-0.9-2.4-1.6-3.5c-0.8-1.2-1.8-2.2-2.9-3c0.7,0.7,1.4,1.6,1.9,2.6
				c0.7,1.2,1.1,2.5,1.3,3.8c-0.5,0-0.8,0.1-0.8,0.2c0.6,0.5,1,1,1.2,1.5c0.1-0.2,0.2-0.5,0.3-0.7c0,0,0.1-0.1,0.1-0.3
				c0.1-0.2,0.1-0.3,0.2-0.3c0.2,0,0.4,0.5,0.7,1.4c0.2-0.3,0.3-0.7,0.5-0.9C222.7,15.2,222.9,15,223.1,14.7z M219.8,18.8
				c-0.1-0.1-0.5-0.2-1.1-0.4c-0.4-0.1-0.6-0.2-0.6-0.3c0,0,0.3-0.2,0.9-0.4c0.1-0.1,0.4-0.2,0.7-0.3c-0.3-0.1-0.6-0.3-0.9-0.5
				c-0.1-0.1-0.4-0.3-0.6-0.6c-0.1,0-0.2,0.4-0.2,1.2c-0.6,0.3-0.9,0.6-0.9,0.7c0,0.2,0.3,0.3,0.9,0.6c0,0.8,0.1,1.3,0.2,1.3
				c0,0,0.2-0.2,0.6-0.5C219.3,19.1,219.6,18.9,219.8,18.8z M223.2,21.3c-0.5-0.4-0.8-0.9-1.2-1.4c-0.1,0.2-0.2,0.4-0.3,0.7
				c0,0-0.1,0.2-0.2,0.4c-0.1,0.2-0.2,0.3-0.2,0.3c0,0-0.1-0.1-0.2-0.3c-0.1-0.2-0.1-0.3-0.1-0.3c0-0.1-0.1-0.3-0.3-0.7
				c-0.1,0.3-0.3,0.6-0.5,0.8c-0.2,0.2-0.4,0.4-0.6,0.6c0,0.1,0.3,0.1,0.8,0.3c-0.3,1.3-0.5,2.1-0.6,2.4c-0.5,1.4-1.2,2.8-2.3,4.1
				c1.8-1.3,3.2-3.4,4.2-6.5c0.7,0,1,0,0.9,0C223,21.5,223.2,21.4,223.2,21.3z M222.6,18c0-0.4-0.1-0.7-0.4-0.9
				c-0.2-0.2-0.5-0.3-0.9-0.3c-0.3,0-0.6,0.1-0.9,0.4c-0.2,0.2-0.4,0.5-0.4,0.9c0,0.4,0.1,0.7,0.3,0.9c0.2,0.2,0.5,0.4,0.9,0.4
				c0.4,0,0.7-0.1,0.9-0.4C222.5,18.7,222.6,18.4,222.6,18z M225.7,18c0-0.1-0.1-0.2-0.2-0.3c-0.2-0.1-0.4-0.2-0.7-0.3
				c0-0.4,0-0.7-0.1-0.9c-0.1-0.2-0.1-0.4-0.2-0.4c0,0-0.2,0.2-0.5,0.5c-0.3,0.3-0.7,0.6-1,0.7c0.2,0.1,0.4,0.2,0.7,0.4
				c0,0,0.2,0.1,0.6,0.2c0.3,0.1,0.4,0.2,0.4,0.2c0,0.1-0.2,0.2-0.6,0.3c-0.6,0.2-1,0.3-1.1,0.3c0.4,0.1,0.7,0.3,1,0.5
				c0.1,0.1,0.3,0.3,0.6,0.6c0.1,0,0.1-0.1,0.2-0.3c0-0.1,0-0.4,0-0.8C225.4,18.4,225.7,18.1,225.7,18z"/>
			<path d="M39,56.6c0,0.1-0.1,0.1-0.2,0.1c-0.4,0-1-0.4-1.8-1.1c-0.6-0.5-1.1-1.1-1.5-1.6c-0.8-1.1-1.5-2.4-2-3.8
				c-1.3,0-2-0.2-2-0.5c0.4-0.3,0.7-0.7,0.9-1c0.3-0.4,0.4-0.8,0.4-1.2c-0.3,0-0.7,0.2-1.1,0.6c-0.1,0.1-0.4,0.4-1,0.9
				c-0.1,0-0.2-0.1-0.3-0.4c-0.1-0.3-0.2-0.7-0.2-1.2c-0.3-0.2-0.6-0.3-0.8-0.5c-0.2-0.2-0.3-0.3-0.3-0.4c0-0.2,0.1-0.4,0.4-0.7
				c0.2-0.1,0.3-0.3,0.6-0.4c0-0.4,0-0.7,0.1-1.1c0.1-0.3,0.2-0.5,0.3-0.5c0.4,0.4,0.8,0.7,1,0.9c0.4,0.3,0.8,0.5,1.2,0.5
				c0-0.4-0.2-0.8-0.5-1.2c-0.3-0.3-0.6-0.7-0.9-1c0-0.2,0.3-0.3,0.9-0.5c0.5-0.1,0.8-0.2,1.2-0.2c0.9-2.7,2.2-4.7,3.9-6.1
				c0.6-0.5,1-0.7,1.2-0.7c0.1,0,0.2,0.1,0.2,0.2c0,0.1-0.2,0.4-0.7,0.9c-1.4,1.7-2.3,3.6-2.6,5.7c0.4,0.1,0.7,0.1,0.8,0.2
				c0.1,0.1,0.2,0.2,0.2,0.3c-0.4,0.3-0.7,0.7-0.9,1c-0.3,0.4-0.4,0.8-0.5,1.2c0.4,0,0.7-0.2,1.1-0.5c0.2-0.2,0.5-0.6,1-1
				c0.2,0,0.3,0.2,0.4,0.7c0.1,0.4,0.1,0.7,0.1,0.9c0.7,0.3,1,0.7,1,1c0,0.3-0.3,0.6-1,1c0,0.6-0.1,1.1-0.2,1.3
				c-0.1,0.2-0.2,0.2-0.3,0.3c-0.7-0.9-1.4-1.3-2.1-1.4c0,0.3,0.2,0.8,0.5,1.2c0.1,0.2,0.4,0.5,0.9,1c0,0.1-0.1,0.1-0.2,0.2
				c-0.1,0.1-0.4,0.1-0.9,0.3c0.2,1.1,0.6,2.2,1.2,3.3c0.6,1.1,1.4,2.1,2.2,2.8C38.9,56.4,39,56.5,39,56.6z M32.3,47
				c-0.2-0.1-0.5-0.2-0.8-0.3c0,0-0.2-0.1-0.5-0.2c-0.3-0.1-0.4-0.2-0.4-0.3c0,0,0.3-0.2,1-0.3c0.1-0.1,0.3-0.2,0.7-0.3
				c-0.4-0.1-0.7-0.3-0.9-0.5c-0.1-0.1-0.4-0.4-0.6-0.6c-0.1,0-0.1,0.1-0.1,0.3c0,0.2,0,0.4,0,0.8c-0.6,0.3-0.9,0.6-0.9,0.7
				c0,0.1,0.1,0.2,0.3,0.3c0.2,0.1,0.4,0.2,0.6,0.3c0,0.1,0,0.4,0.1,0.7c0.1,0.4,0.1,0.6,0.2,0.6l0.7-0.7C31.7,47.3,32,47.1,32.3,47
				z M37.8,36.3c-1.7,1.2-3.1,3.4-4.1,6.5c-0.7,0-1.2,0-1.3,0.1c-0.2,0-0.3,0.1-0.3,0.2c0.5,0.4,0.9,0.9,1.2,1.4
				c0.1-0.3,0.3-0.5,0.4-0.6c0.1-0.2,0.2-0.5,0.3-0.7c0,0,0.1,0.1,0.1,0.3c0,0.2,0.1,0.3,0.1,0.3c0.1,0.1,0.2,0.3,0.4,0.7
				c0.1-0.3,0.3-0.6,0.5-0.9c0.1-0.1,0.3-0.4,0.6-0.6c0-0.1-0.1-0.1-0.3-0.2c-0.1,0-0.3,0-0.5-0.1c0.3-1.2,0.5-2,0.6-2.4
				C35.9,39.1,36.6,37.8,37.8,36.3z M38.2,56.2c-0.7-0.7-1.4-1.5-1.9-2.6c-0.7-1.2-1.1-2.5-1.3-3.8c0.5,0,0.8-0.1,0.8-0.2
				c-0.5-0.5-0.9-1-1.2-1.5c-0.1,0.2-0.2,0.4-0.3,0.7c0,0-0.1,0.2-0.2,0.4c-0.1,0.2-0.1,0.3-0.2,0.3c-0.2,0-0.4-0.4-0.7-1.3
				c-0.2,0.4-0.4,0.7-0.5,0.9c-0.2,0.2-0.3,0.4-0.6,0.6c0,0,0.1,0.1,0.3,0.1c0.1,0,0.3,0.1,0.6,0.1c0.2,0,0.3,0,0.3,0
				c0.1,0,0.3,0,0.3,0C34.6,52.7,36.1,54.8,38.2,56.2z M35.1,46.3c0-0.4-0.1-0.7-0.4-0.9c-0.3-0.2-0.5-0.4-0.9-0.4
				c-0.4,0-0.7,0.1-0.9,0.4c-0.2,0.2-0.4,0.6-0.4,0.9c0,0.3,0.1,0.6,0.4,0.9c0.3,0.2,0.5,0.4,0.9,0.4c0.4,0,0.7-0.1,0.9-0.4
				C35,47,35.1,46.7,35.1,46.3z M38.1,46.2c0-0.2-0.3-0.3-0.9-0.6c0-0.4,0-0.7-0.1-0.9c-0.1-0.2-0.1-0.4-0.1-0.4
				c-0.1,0.1-0.3,0.3-0.7,0.7c-0.3,0.3-0.6,0.4-0.8,0.6c0.1,0,0.4,0.2,1,0.4c0.4,0.1,0.6,0.3,0.6,0.3c0,0.1-0.2,0.2-0.6,0.3
				c-0.3,0.1-0.7,0.2-1,0.3c0.3,0.1,0.6,0.3,0.9,0.5c0.1,0.1,0.3,0.3,0.6,0.6c0.1,0,0.2-0.4,0.2-1.2C37.8,46.6,38.1,46.4,38.1,46.2z
				"/>
			<path d="M47.3,34.2C47.3,34.2,47.3,34.2,47.3,34.2C47.3,34.2,47.3,34.3,47.3,34.2c0,0.1,0,0.1,0,0.1c0,0,0,0-0.1,0
				c-0.1,0-0.2,0.1-0.3,0.1c-0.1,0.1-0.2,0.1-0.3,0.2c-0.1,0.1-0.2,0.1-0.4,0.2c-0.1,0-0.2,0.1-0.3,0.1c-0.2,0-0.3,0-0.5,0
				c-0.2,0-0.3,0-0.4,0c-0.1,0-0.3-0.1-0.4-0.1c-0.1,0-0.3-0.1-0.4-0.2c-0.3-0.2-0.5-0.4-0.6-0.6c-0.1-0.3-0.2-0.6-0.2-0.9
				c0-0.2,0-0.5,0.1-0.7c0.1-0.2,0.1-0.5,0.3-0.7c0.1-0.2,0.3-0.4,0.4-0.6c0.2-0.2,0.3-0.3,0.6-0.4l0,0c-0.1,0-0.2,0-0.3,0
				c-0.1,0-0.2,0-0.3,0c-0.1,0-0.2,0-0.3,0c-0.1,0-0.2,0.1-0.3,0.2c0,0-0.1,0-0.1,0c0,0,0,0,0-0.1c0-0.1,0-0.2,0-0.2
				c0-0.1,0.1-0.2,0.1-0.2c0-0.1,0.1-0.2,0.2-0.2c0.1-0.1,0.1-0.1,0.2-0.1c0.1,0,0.2-0.1,0.3,0c0.1,0,0.2,0,0.3,0
				c0.1,0,0.2,0,0.4,0.1c0.1,0,0.3,0,0.4,0.1c0.1,0,0.2,0,0.3,0c0.1,0,0.3,0,0.4,0c0.1,0,0.3,0,0.4,0c0.1,0,0.3,0,0.4,0
				c0,0,0,0.1,0,0.2c0,0.1,0,0.1-0.1,0.2c0,0.1-0.1,0.1-0.1,0.2c0,0.1-0.1,0.1-0.1,0.1c-0.3,0-0.7,0.1-1,0.2
				c-0.3,0.1-0.6,0.2-0.9,0.4c-0.3,0.2-0.5,0.4-0.6,0.6c-0.2,0.3-0.2,0.6-0.2,1c0,0.2,0.1,0.4,0.2,0.6c0.1,0.2,0.2,0.3,0.4,0.4
				c0.2,0.1,0.4,0.2,0.6,0.2c0.2,0.1,0.4,0.1,0.6,0.1c0.4,0,0.7,0,1,0C46.6,34.2,46.9,34.2,47.3,34.2z M45.7,32.9
				C45.7,32.9,45.7,32.9,45.7,32.9l-0.6-0.4v-0.1l0.3-0.5c0,0,0,0,0.1,0l0.5,0.4c0,0,0,0.1,0,0.1L45.7,32.9z"/>
			<path d="M50.6,40.8c0,0.2,0,0.4-0.1,0.6c0,0.2-0.1,0.4-0.2,0.5c-0.1,0.1-0.2,0.3-0.4,0.3c-0.2,0.1-0.4,0.1-0.6,0.1
				c-0.3,0-0.5-0.1-0.7-0.3s-0.3-0.4-0.3-0.8c0-0.2,0-0.4,0.1-0.6c0-0.2,0.1-0.5,0.2-0.7c0.1-0.2,0.2-0.4,0.4-0.6
				c0.2-0.2,0.4-0.3,0.6-0.3c0.2,0,0.4,0,0.5,0.1c0.1,0.1,0.3,0.3,0.3,0.4c0.1,0.2,0.1,0.4,0.2,0.5C50.6,40.5,50.6,40.7,50.6,40.8z
				 M49.4,40.2c-0.1,0-0.2,0.1-0.3,0.1c-0.1,0.1-0.2,0.1-0.2,0.2c-0.1,0.1-0.1,0.2-0.2,0.3c0,0.1-0.1,0.2-0.1,0.3
				c0,0.1,0,0.2,0.1,0.2c0.1,0.1,0.1,0.1,0.2,0.1c0.1,0,0.2,0,0.2,0.1c0.1,0,0.2,0,0.2,0c0.3,0,0.6-0.2,0.8-0.4c0-0.1,0-0.2,0-0.3
				c0-0.1-0.1-0.2-0.2-0.3c-0.1-0.1-0.2-0.2-0.3-0.2C49.6,40.2,49.5,40.1,49.4,40.2z"/>
			<path d="M50.2,47.5c0.1,0,0.2,0,0.3,0.1c0.1,0.1,0.2,0.1,0.3,0.2c0.1,0.1,0.2,0.2,0.3,0.3c0.1,0.1,0.2,0.2,0.3,0.3
				c0.2,0.1,0.3,0.3,0.5,0.3c0.2,0.1,0.4,0.2,0.6,0.2c0.2,0,0.4,0.1,0.6,0.1c0.2,0,0.4,0,0.6,0H54c0.2,0,0.3,0.1,0.4,0.2
				c0.1,0.1,0.1,0.3,0.1,0.5c0,0.2,0,0.3-0.1,0.5c-0.1,0.1-0.2,0.2-0.4,0.2h-0.2c-0.3,0-0.6,0-0.9,0c-0.4,0-0.7-0.1-1.1-0.2
				c0,0.2,0,0.3-0.1,0.4c0,0.1-0.1,0.2-0.1,0.2c-0.2,0-0.5,0-0.8,0c-0.3-0.1-0.6-0.1-0.9-0.2c-0.3-0.1-0.6-0.2-0.8-0.4
				c-0.2-0.1-0.4-0.3-0.5-0.4c-0.1,0-0.2,0.1-0.4,0.2c-0.1,0.1-0.2,0.2-0.3,0.3c-0.1,0.1-0.2,0.2-0.3,0.4c-0.1,0.1-0.1,0.3-0.1,0.4
				c0,0.2,0,0.5,0.1,0.9c0,0.4,0.1,0.7,0.2,1.1c0.1,0.4,0.1,0.8,0.2,1.2s0.1,0.7,0.2,1c0,0.2,0.1,0.5,0.1,0.8c0,0.3,0.1,0.6,0.1,0.9
				c0,0.3,0,0.6,0,0.8c0,0.3,0,0.5-0.1,0.6c0,0.1-0.1,0.1-0.1,0.1c0,0-0.1,0-0.1-0.1c0-0.1-0.1-0.2-0.1-0.4c0-0.1,0-0.2-0.1-0.4
				c0-0.1-0.1-0.3-0.1-0.7c0-0.3-0.1-0.8-0.2-1.4c-0.2-1.1-0.3-2-0.4-2.7c-0.1-0.7-0.2-1.2-0.2-1.6c0-0.5,0-1,0.2-1.4
				c0.1-0.4,0.3-0.7,0.6-1c0.1-0.1,0.2-0.2,0.3-0.3c0.1-0.1,0.3-0.2,0.4-0.4c0.2-0.1,0.3-0.3,0.5-0.4c0.2-0.1,0.3-0.2,0.5-0.4
				c0.2-0.1,0.3-0.2,0.5-0.3C50,47.5,50.1,47.5,50.2,47.5z M50,48.4c-0.1,0-0.3,0-0.5,0.1c-0.2,0.1-0.3,0.2-0.4,0.3c0,0,0,0,0,0.1
				c0,0,0,0,0,0.1c0.1,0.1,0.3,0.2,0.5,0.2c0.2,0.1,0.4,0.1,0.6,0.2c0.2,0.1,0.4,0.1,0.5,0.1c0.2,0,0.3,0,0.3,0
				c-0.1-0.1-0.2-0.3-0.3-0.4c-0.1-0.1-0.2-0.2-0.3-0.3c-0.1-0.1-0.2-0.2-0.3-0.2C50.1,48.5,50.1,48.4,50,48.4z"/>
			<path d="M53.9,41.8c-0.1,0-0.1,0,0-0.1c0-0.1,0.1-0.1,0.2-0.2c0.2-0.1,0.4-0.3,0.5-0.4c0.2-0.1,0.4-0.2,0.5-0.4
				c0.2-0.1,0.3-0.3,0.5-0.4c0.2-0.1,0.3-0.3,0.5-0.5c-0.1,0-0.3-0.1-0.5-0.2c-0.2-0.1-0.3-0.2-0.4-0.4c-0.1-0.1-0.1-0.2-0.1-0.3
				c0-0.1,0-0.2,0-0.3c0.1-0.1,0.1-0.3,0.2-0.5c0.1-0.2,0.2-0.3,0.3-0.4c0.1-0.1,0.2-0.2,0.4-0.3c0.1-0.1,0.3-0.1,0.4-0.1
				c0.1,0,0.2,0,0.3,0.1c0.1,0.1,0.1,0.2,0.2,0.3c0,0.1,0.1,0.2,0.1,0.4c0,0.1,0,0.3,0,0.4c0,0.1,0,0.3,0,0.4c0,0.1,0,0.2,0,0.3
				c0,0,0,0,0,0.1c0.1,0,0.1,0.1,0.1,0.1c0,0,0,0.1,0.1,0.1c0,0.1,0,0.2,0,0.3c0,0.1-0.1,0.2-0.1,0.3c0,0.1-0.1,0.1-0.1,0.1
				c0,0-0.1,0-0.1-0.1c0,0,0-0.1-0.1-0.1c0,0-0.1-0.1-0.1-0.1c-0.2,0.2-0.3,0.4-0.5,0.6c-0.2,0.2-0.3,0.3-0.5,0.4
				c-0.2,0.1-0.4,0.2-0.6,0.3c-0.2,0.1-0.4,0.2-0.7,0.3c-0.1,0-0.2,0.1-0.3,0.1S54,41.8,53.9,41.8z M55.7,38.5
				c0.1,0.2,0.3,0.3,0.4,0.4c0.2,0.1,0.3,0.2,0.4,0.2h0c0-0.1,0-0.1,0-0.2c0-0.1,0-0.2,0-0.2c0-0.1,0-0.2,0-0.2
				c0-0.1-0.1-0.1-0.1-0.2c0,0-0.1-0.1-0.2-0.1c-0.1,0-0.2,0-0.2,0c-0.1,0-0.2,0.1-0.2,0.1C55.8,38.4,55.7,38.5,55.7,38.5z"/>
			<path d="M56.7,47.3c0,0.1,0,0.1,0,0.2c0,0.1,0,0.2,0,0.3c0,0.2,0,0.3,0.1,0.5c0.1,0.2,0.2,0.3,0.3,0.4c0.2,0.1,0.4,0.2,0.6,0.3
				c0.2,0.1,0.5,0.1,0.9,0.1h0.2c0.2,0,0.3,0.1,0.4,0.2c0.1,0.1,0.1,0.3,0.1,0.5c0,0.2,0,0.3-0.1,0.5c-0.1,0.1-0.2,0.2-0.4,0.2h-0.2
				c-0.6,0-1.1-0.1-1.5-0.4c-0.4-0.2-0.7-0.6-0.9-1c-0.1,0.3-0.3,0.6-0.5,0.7c-0.2,0.2-0.4,0.3-0.6,0.4c-0.2,0.1-0.4,0.2-0.7,0.2
				c-0.2,0-0.4,0-0.6,0h-0.2c-0.2,0-0.3-0.1-0.4-0.2c-0.1-0.1-0.1-0.3-0.1-0.5c0-0.2,0-0.3,0.1-0.5c0.1-0.1,0.2-0.2,0.4-0.2h0.2
				c0.2,0,0.4,0,0.6,0c0.2,0,0.4,0,0.6-0.1c0.2-0.1,0.4-0.1,0.6-0.2c0.2-0.1,0.3-0.3,0.5-0.4c0.1-0.2,0.2-0.3,0.3-0.4
				c0.1-0.1,0.1-0.3,0.2-0.5c0,0,0-0.1,0-0.1c0,0,0.1,0,0.1,0C56.7,47.3,56.7,47.3,56.7,47.3C56.7,47.3,56.7,47.3,56.7,47.3z
				 M57.1,45.5C57,45.6,57,45.6,57.1,45.5c-0.1,0.1-0.1,0-0.2,0l-1-0.8l-0.7,0.9c0,0.1-0.1,0.1-0.1,0L54,44.8c0,0,0-0.1,0-0.1l0.7-1
				c0,0,0-0.1,0.1-0.1c0,0,0,0,0.1,0l1,0.8l0.7-0.9c0,0,0.1-0.1,0.1,0l1.1,0.9c0,0,0,0.1,0,0.1L57.1,45.5z"/>
			<path d="M62.4,37.7c0,0.2,0,0.4-0.1,0.6c0,0.2-0.1,0.4-0.2,0.5c-0.1,0.1-0.2,0.3-0.4,0.3c-0.2,0.1-0.4,0.1-0.6,0.1
				c-0.3,0-0.5-0.1-0.7-0.3s-0.3-0.4-0.3-0.8c0-0.2,0-0.4,0.1-0.6c0-0.2,0.1-0.5,0.2-0.7c0.1-0.2,0.2-0.4,0.4-0.6
				c0.2-0.2,0.4-0.3,0.6-0.3c0.2,0,0.4,0,0.5,0.1c0.1,0.1,0.3,0.3,0.3,0.4c0.1,0.2,0.1,0.4,0.2,0.5C62.4,37.4,62.4,37.6,62.4,37.7z
				 M61.2,37.1c-0.1,0-0.2,0.1-0.3,0.1c-0.1,0.1-0.2,0.1-0.2,0.2c-0.1,0.1-0.1,0.2-0.2,0.3c0,0.1-0.1,0.2-0.1,0.3
				c0,0.1,0,0.2,0.1,0.2c0.1,0.1,0.1,0.1,0.2,0.1c0.1,0,0.2,0,0.2,0.1c0.1,0,0.2,0,0.2,0c0.3,0,0.6-0.2,0.8-0.4c0-0.1,0-0.2,0-0.3
				c0-0.1-0.1-0.2-0.2-0.3c-0.1-0.1-0.2-0.2-0.3-0.2C61.5,37.1,61.3,37.1,61.2,37.1z"/>
			<path d="M61.8,45.6C61.8,45.6,61.8,45.6,61.8,45.6c0.1-0.1,0.1,0,0.2,0c0.2,0.2,0.3,0.3,0.4,0.5c0.1,0.2,0.3,0.4,0.4,0.6
				c0.1,0.2,0.2,0.4,0.2,0.7c0.1,0.2,0.1,0.4,0.1,0.7c0,0.1,0,0.2,0,0.3c0,0.1,0,0.3-0.1,0.4c0,0.1-0.1,0.2-0.1,0.4
				c0,0.1-0.1,0.2-0.1,0.3c-0.1,0.1-0.2,0.3-0.4,0.4c-0.2,0.1-0.4,0.2-0.7,0.3c-0.3,0.1-0.5,0.1-0.8,0.2c-0.3,0.1-0.6,0.1-0.9,0.1
				c-0.3,0-0.5,0-0.8,0.1c-0.2,0-0.4,0-0.6,0h-0.2c-0.2,0-0.3-0.1-0.4-0.2c-0.1-0.1-0.1-0.3-0.1-0.5c0-0.2,0-0.3,0.1-0.5
				c0.1-0.1,0.2-0.2,0.4-0.2h0.2c0.1,0,0.2,0,0.4,0c0.2,0,0.4,0,0.7,0c0.2,0,0.5,0,0.8,0c0.3,0,0.5,0,0.8-0.1c0.3,0,0.5-0.1,0.7-0.1
				c0.2,0,0.4-0.1,0.5-0.2c0.1-0.1,0.1-0.1,0.1-0.2c-0.1-0.3-0.2-0.6-0.4-0.9c-0.2-0.2-0.4-0.5-0.6-0.7c0-0.2,0.1-0.4,0.1-0.6
				C61.7,46,61.7,45.8,61.8,45.6z M61.8,53.9C61.8,54,61.8,54,61.8,53.9c-0.1,0.1-0.1,0-0.2,0l-1-0.8l-0.6,0.9c0,0.1-0.1,0.1-0.1,0
				l-1-0.9c0,0,0-0.1,0-0.1l0.7-1c0,0,0-0.1,0.1-0.1c0,0,0,0,0.1,0l1,0.8l0.7-0.9c0,0,0.1-0.1,0.1,0l1,0.9c0,0,0,0.1,0,0.1
				L61.8,53.9z"/>
			<path d="M69.2,40c-0.3,0.1-0.6,0.3-0.9,0.4c-0.3,0.1-0.6,0.3-1,0.4c-0.3,0.1-0.6,0.3-0.9,0.4c-0.3,0.1-0.5,0.2-0.6,0.3
				c0,0-0.1,0-0.1,0c0,0,0,0,0-0.1c0,0,0-0.1,0.1-0.2c0-0.1,0.1-0.2,0.1-0.3c0-0.1,0.1-0.2,0.1-0.2c0-0.1,0.1-0.1,0.1-0.1
				c0.1-0.1,0.1-0.1,0.2-0.2l3.3-1.4c0.1,0,0.1,0,0.1,0.1c0,0.1,0,0.1-0.1,0.2c0,0.1-0.1,0.1-0.1,0.2s-0.1,0.1-0.1,0.2
				c0,0.1-0.1,0.1-0.1,0.2C69.3,39.9,69.3,39.9,69.2,40z"/>
			<path d="M68.3,44.8c0-0.2,0.1-0.4,0.1-0.5c0-0.2,0.1-0.3,0.1-0.5c0-0.1,0-0.1,0.1-0.1c0,0,0.1,0,0.1,0.1c0,0.1,0,0.2,0.1,0.3
				c0,0.1,0.1,0.2,0.1,0.4c0,0.1,0.1,0.3,0.1,0.4c0,0.1,0.1,0.2,0.1,0.4c0.1,0.4,0.2,0.9,0.4,1.3c0.1,0.4,0.3,0.8,0.4,1.2
				c0.2,0.5,0.5,0.9,0.9,1.1c0.3,0.2,0.8,0.4,1.4,0.4h0.2c0.2,0,0.3,0.1,0.4,0.2c0.1,0.1,0.1,0.3,0.1,0.5c0,0.2,0,0.3-0.1,0.5
				c-0.1,0.1-0.2,0.2-0.4,0.2h-0.2c-0.3,0-0.6,0-0.9-0.1c-0.3-0.1-0.5-0.2-0.7-0.3c-0.2-0.2-0.4-0.4-0.6-0.7
				c-0.2-0.3-0.4-0.6-0.5-1.1c-0.1,0.4-0.3,0.7-0.5,0.9c-0.3,0.2-0.5,0.4-0.8,0.6c-0.2,0.1-0.4,0.2-0.7,0.2
				c-0.3,0.1-0.6,0.1-0.9,0.2c-0.3,0-0.6,0-0.9,0c-0.3,0-0.5-0.1-0.6-0.3c-0.1-0.1-0.1-0.2-0.2-0.3c0-0.1-0.1-0.3-0.1-0.4
				c0-0.2,0-0.3,0-0.5c0-0.1,0.1-0.3,0.1-0.4c0,0,0-0.1,0.1-0.1c0,0,0.1,0,0.1,0.1c0.1,0.2,0.2,0.3,0.3,0.4c0.1,0.1,0.3,0.1,0.5,0.1
				c0.2,0,0.4,0,0.6,0c0.2,0,0.4,0,0.7-0.1c0.2,0,0.5-0.1,0.7-0.2c0.2-0.1,0.4-0.1,0.6-0.2c0.2-0.1,0.4-0.2,0.5-0.3
				c0.1-0.1,0.2-0.2,0.3-0.4c-0.1-0.5-0.3-1-0.4-1.5C68.6,45.8,68.4,45.3,68.3,44.8z"/>
			<path d="M75.6,40.2c-0.3,0.1-0.6,0.3-0.9,0.4c-0.3,0.1-0.6,0.3-1,0.4c-0.3,0.1-0.6,0.3-0.9,0.4c-0.3,0.1-0.5,0.2-0.6,0.3
				c0,0-0.1,0-0.1,0c0,0,0,0,0-0.1c0,0,0-0.1,0.1-0.2c0-0.1,0.1-0.2,0.1-0.3c0-0.1,0.1-0.2,0.1-0.2c0-0.1,0.1-0.1,0.1-0.1
				c0.1-0.1,0.1-0.1,0.2-0.2l3.3-1.4c0.1,0,0.1,0,0.1,0.1c0,0.1,0,0.1-0.1,0.2c0,0.1-0.1,0.1-0.1,0.2c0,0.1-0.1,0.1-0.1,0.2
				c0,0.1-0.1,0.1-0.1,0.2C75.7,40.1,75.7,40.1,75.6,40.2z"/>
			<path d="M75.1,47.3c0,0.1,0,0.1,0,0.2c0,0.1,0,0.2,0,0.3c0,0.2,0,0.3,0.1,0.5c0.1,0.2,0.2,0.3,0.3,0.4c0.2,0.1,0.4,0.2,0.6,0.3
				c0.2,0.1,0.5,0.1,0.9,0.1h0.2c0.2,0,0.3,0.1,0.4,0.2c0.1,0.1,0.1,0.3,0.1,0.5c0,0.2,0,0.3-0.1,0.5c-0.1,0.1-0.2,0.2-0.4,0.2h-0.2
				c-0.6,0-1.1-0.1-1.5-0.4c-0.4-0.2-0.7-0.6-0.9-1c-0.1,0.3-0.3,0.6-0.5,0.7c-0.2,0.2-0.4,0.3-0.6,0.4c-0.2,0.1-0.4,0.2-0.7,0.2
				c-0.2,0-0.4,0-0.6,0H72c-0.2,0-0.3-0.1-0.4-0.2c-0.1-0.1-0.1-0.3-0.1-0.5c0-0.2,0-0.3,0.1-0.5c0.1-0.1,0.2-0.2,0.4-0.2h0.2
				c0.2,0,0.4,0,0.6,0c0.2,0,0.4,0,0.6-0.1c0.2-0.1,0.4-0.1,0.6-0.2c0.2-0.1,0.3-0.3,0.5-0.4c0.1-0.2,0.2-0.3,0.3-0.4
				c0.1-0.1,0.1-0.3,0.2-0.5c0,0,0-0.1,0-0.1s0.1,0,0.1,0C75,47.3,75,47.3,75.1,47.3C75,47.3,75.1,47.3,75.1,47.3z M75.4,45.5
				C75.4,45.6,75.3,45.6,75.4,45.5c-0.1,0.1-0.1,0-0.2,0l-1-0.8l-0.7,0.9c0,0.1-0.1,0.1-0.1,0l-1.1-0.9c0,0,0-0.1,0-0.1l0.7-1
				c0,0,0-0.1,0.1-0.1c0,0,0,0,0.1,0l1,0.8l0.7-0.9c0,0,0.1-0.1,0.1,0l1.1,0.9c0,0,0,0.1,0,0.1L75.4,45.5z"/>
			<path d="M81.2,39.1c0,0.2,0,0.4-0.1,0.6c0,0.2-0.1,0.4-0.2,0.5c-0.1,0.1-0.2,0.3-0.4,0.3c-0.2,0.1-0.4,0.1-0.6,0.1
				c-0.3,0-0.5-0.1-0.7-0.3c-0.2-0.2-0.3-0.4-0.3-0.8c0-0.2,0-0.4,0.1-0.6c0-0.2,0.1-0.5,0.2-0.7c0.1-0.2,0.2-0.4,0.4-0.6
				c0.2-0.2,0.4-0.3,0.6-0.3c0.2,0,0.4,0,0.5,0.1c0.1,0.1,0.3,0.3,0.3,0.4c0.1,0.2,0.1,0.4,0.2,0.5C81.2,38.7,81.2,38.9,81.2,39.1z
				 M79.9,38.4c-0.1,0-0.2,0.1-0.3,0.1c-0.1,0.1-0.2,0.1-0.2,0.2c-0.1,0.1-0.1,0.2-0.2,0.3c0,0.1-0.1,0.2-0.1,0.3
				c0,0.1,0,0.2,0.1,0.2c0.1,0.1,0.1,0.1,0.2,0.1c0.1,0,0.2,0,0.2,0.1c0.1,0,0.2,0,0.2,0c0.3,0,0.6-0.2,0.8-0.4c0-0.1,0-0.2,0-0.3
				c0-0.1-0.1-0.2-0.2-0.3c-0.1-0.1-0.2-0.2-0.3-0.2C80.2,38.4,80.1,38.4,79.9,38.4z"/>
			<path d="M79.4,45.2c-0.1,0-0.1-0.1-0.1-0.1c0,0-0.1-0.1-0.1-0.1c0,0,0,0-0.1-0.1c0,0,0,0,0-0.1c0-0.1,0-0.2,0-0.4
				c0-0.1,0-0.2,0-0.3c0-0.1,0-0.2,0-0.3c0-0.1,0-0.2,0.1-0.3c0-0.1,0.1-0.2,0.2-0.2c0.1,0,0.2,0,0.3,0c0.2,0.1,0.5,0.3,0.8,0.4
				c0.3,0.2,0.6,0.3,0.9,0.5s0.6,0.4,0.9,0.6c0.3,0.2,0.6,0.5,0.8,0.7c0.3,0.3,0.5,0.5,0.6,0.8c0.2,0.3,0.3,0.6,0.3,0.9
				c0,0.2,0,0.4,0,0.6c0,0.2,0,0.4-0.1,0.6s-0.1,0.4-0.2,0.5s-0.2,0.3-0.4,0.4c-0.1,0.1-0.2,0.1-0.3,0.2c-0.1,0-0.2,0-0.3,0
				c-0.2,0-0.4-0.1-0.6-0.1c-0.2,0-0.5-0.1-0.7-0.1c-0.2,0-0.5-0.1-0.7-0.2c-0.2-0.1-0.5-0.1-0.7-0.2c-0.4,0.4-0.9,0.8-1.4,1
				c-0.5,0.2-1,0.4-1.6,0.4h-0.2c-0.2,0-0.3-0.1-0.4-0.2c-0.1-0.1-0.1-0.3-0.1-0.5c0-0.2,0-0.3,0.1-0.5c0.1-0.1,0.2-0.2,0.4-0.2h0.2
				c0.1,0,0.2,0,0.4,0c0.1,0,0.3,0,0.5-0.1c0.2,0,0.3-0.1,0.5-0.1c0.2,0,0.3-0.1,0.4-0.2c-0.1-0.1-0.2-0.3-0.2-0.5
				c0-0.2-0.1-0.4,0-0.6c0-0.2,0.1-0.4,0.1-0.7c0.1-0.2,0.1-0.5,0.2-0.7c0.1-0.2,0.2-0.4,0.3-0.6C79.1,45.5,79.3,45.3,79.4,45.2z
				 M80.1,47.9c0.1,0,0.2,0,0.3-0.1c0.1-0.1,0.2-0.1,0.3-0.2c0.1-0.1,0.2-0.2,0.3-0.2c0.1-0.1,0.1-0.1,0.1-0.2c0-0.1,0-0.3-0.1-0.4
				c-0.1-0.1-0.2-0.3-0.3-0.4c-0.1-0.1-0.2-0.2-0.4-0.3c-0.1-0.1-0.2-0.1-0.4-0.1c-0.1,0-0.2,0.1-0.3,0.2c-0.1,0.1-0.2,0.2-0.3,0.3
				c-0.1,0.1-0.2,0.3-0.3,0.4C79,46.9,79,47.1,79,47.2c0,0.1,0,0.2,0.1,0.3c0.1,0.1,0.2,0.2,0.3,0.2c0.1,0.1,0.2,0.1,0.4,0.1
				C79.9,47.9,80,47.9,80.1,47.9z M83.5,48.2c0-0.1,0-0.2-0.1-0.3c-0.1-0.1-0.2-0.3-0.3-0.4c-0.1-0.1-0.2-0.3-0.4-0.4
				c-0.1-0.1-0.3-0.3-0.4-0.4c-0.1-0.1-0.3-0.2-0.4-0.3c-0.1-0.1-0.2-0.2-0.3-0.2c0,0-0.1,0-0.1,0c0,0,0,0,0,0.1
				c0.1,0.3,0.1,0.6,0.1,0.9c0,0.3-0.1,0.6-0.2,0.8c0,0,0,0.1,0,0.1c0.1,0,0.3,0.1,0.5,0.1c0.2,0,0.4,0.1,0.5,0.1
				c0.2,0,0.4,0.1,0.5,0.1c0.2,0,0.3,0,0.5,0C83.5,48.3,83.5,48.3,83.5,48.2z"/>
			<path d="M86.4,39.1C86.5,39.1,86.5,39.1,86.4,39.1c0.1,0.1,0.1,0.1,0.1,0.1c0,0,0,0.1,0,0.1c0,0,0,0.1,0,0.1c0,0.2,0,0.4,0,0.7
				c0,0.2,0,0.4,0.1,0.6c0.1,0.5,0.1,1.1,0.2,1.6c0.1,0.6,0.1,1.1,0.2,1.7c0.1,0.6,0.1,1.1,0.2,1.7c0.1,0.6,0.1,1.1,0.2,1.6
				c0,0.2,0,0.4,0,0.7c0,0.3,0,0.6,0,0.8c0,0.3,0,0.6-0.1,0.8c0,0.3-0.1,0.5-0.2,0.7c0,0.1-0.1,0.2-0.2,0.2c0,0-0.1,0-0.1-0.1
				c-0.1-1-0.2-2.1-0.3-3.1c-0.1-1.1-0.3-2.2-0.4-3.3c-0.1-1.1-0.3-2.2-0.4-3.3c0-0.3,0.1-0.6,0.2-0.9c0.1-0.2,0.1-0.3,0.2-0.5
				C86.3,39.3,86.4,39.2,86.4,39.1z"/>
			<path d="M93.5,39.1C93.6,39.1,93.6,39.1,93.5,39.1c0.1,0.1,0.1,0.1,0.1,0.1c0,0,0,0.1,0,0.1c0,0,0,0.1,0,0.1c0,0.2,0,0.4,0,0.7
				c0,0.2,0,0.4,0.1,0.6c0.1,0.5,0.1,1.1,0.2,1.6c0.1,0.6,0.1,1.1,0.2,1.7c0.1,0.6,0.1,1.1,0.2,1.7c0.1,0.6,0.1,1.1,0.2,1.6
				c0,0.2,0,0.4,0,0.7c0,0.3,0,0.6,0,0.8c0,0.3,0,0.6-0.1,0.8c0,0.3-0.1,0.5-0.2,0.7c0,0.1-0.1,0.2-0.2,0.2c0,0-0.1,0-0.1-0.1
				c-0.1-1-0.2-2.1-0.3-3.1c-0.1-1.1-0.3-2.2-0.4-3.3c-0.1-1.1-0.3-2.2-0.4-3.3c0-0.3,0.1-0.6,0.2-0.9c0.1-0.2,0.1-0.3,0.2-0.5
				C93.4,39.3,93.5,39.2,93.5,39.1z"/>
			<path d="M99.5,37.9c-0.3,0.1-0.6,0.3-0.9,0.4c-0.3,0.1-0.6,0.3-1,0.4c-0.3,0.1-0.6,0.3-0.9,0.4c-0.3,0.1-0.5,0.2-0.6,0.3
				c0,0-0.1,0-0.1,0c0,0,0,0,0-0.1c0,0,0-0.1,0.1-0.2c0-0.1,0.1-0.2,0.1-0.3c0-0.1,0.1-0.2,0.1-0.2c0-0.1,0.1-0.1,0.1-0.1
				c0.1-0.1,0.1-0.1,0.2-0.2l3.3-1.4c0.1,0,0.1,0,0.1,0.1c0,0.1,0,0.1-0.1,0.2c0,0.1-0.1,0.1-0.1,0.2c0,0.1-0.1,0.1-0.1,0.2
				c0,0.1-0.1,0.1-0.1,0.2C99.6,37.8,99.6,37.8,99.5,37.9z"/>
			<path d="M97.9,45.3c0-0.2,0-0.4,0-0.6c0-0.2,0-0.4,0-0.6c0-0.1,0.1-0.1,0.1-0.2c0.1,0,0.1,0,0.2,0c0.4,0.1,0.7,0.3,1.1,0.6
				c0.3,0.3,0.6,0.6,0.9,1c0.3,0.4,0.5,0.8,0.6,1.2c0.2,0.4,0.3,0.8,0.3,1.2c0,0.1,0,0.3,0,0.5c0,0.2,0,0.4-0.1,0.5
				c0,0.2-0.1,0.3-0.1,0.5c-0.1,0.1-0.1,0.2-0.2,0.3c-0.2,0.2-0.4,0.3-0.7,0.4c-0.3,0.1-0.6,0.2-0.9,0.3c-0.3,0.1-0.7,0.1-1,0.2
				c-0.3,0-0.6,0-0.9,0c-0.1,0-0.2,0-0.3,0c-0.1,0-0.2,0-0.3-0.1c-0.1,0-0.2-0.1-0.3-0.1c-0.1-0.1-0.1-0.1-0.1-0.2c0,0,0-0.1,0-0.3
				c0-0.1,0-0.3,0-0.4c0-0.1,0-0.3,0-0.4c0-0.1,0-0.2,0.1-0.2c0,0,0,0,0,0c0,0,0,0,0.1,0.1c0.1,0.1,0.2,0.1,0.3,0.2
				c0.1,0,0.3,0.1,0.4,0.1c0.2,0,0.3,0,0.5,0c0.1,0,0.3,0,0.4,0c0.2,0,0.4,0,0.6-0.1c0.2,0,0.4-0.1,0.6-0.1c0.2,0,0.4-0.1,0.6-0.2
				c0.2-0.1,0.3-0.1,0.5-0.2c0.1,0,0.1-0.1,0.2-0.1c0.1,0,0.1-0.1,0.1-0.1c-0.1-0.3-0.2-0.6-0.4-1c-0.2-0.3-0.4-0.7-0.7-1
				c-0.3-0.3-0.6-0.6-0.9-0.8C98.6,45.5,98.2,45.3,97.9,45.3z M97.6,40.2l1,0.9c0,0,0,0.1,0,0.1L98,42.2c0,0.1-0.1,0.1-0.1,0
				l-1.1-0.9c0,0,0-0.1,0-0.1l0.7-0.9C97.6,40.2,97.6,40.2,97.6,40.2z"/>
			<path d="M105.3,54.9c-0.6,0.2-1.2,0.4-1.7,0.6c-0.5,0.2-1.1,0.4-1.6,0.6c-0.1,0-0.1,0-0.1-0.1c0-0.1,0.1-0.2,0.2-0.4
				c0.1-0.1,0.1-0.2,0.2-0.3c0,0,0.1-0.1,0.1-0.1c0.1-0.1,0.3-0.1,0.6-0.2c0.2-0.1,0.5-0.2,0.8-0.3c0.3-0.1,0.6-0.2,0.9-0.3
				c0.3-0.1,0.6-0.2,1-0.3c0.1,0,0.1,0,0.1,0.1c0,0.1-0.1,0.1-0.1,0.2c0,0.1-0.1,0.1-0.1,0.2c0,0.1-0.1,0.1-0.1,0.2
				c0,0.1-0.1,0.1-0.1,0.1C105.4,54.8,105.4,54.9,105.3,54.9C105.4,54.9,105.4,54.9,105.3,54.9z"/>
			<path d="M102.4,52.9c0,0,0.1-0.1,0.1-0.1c0.1,0,0.1-0.1,0.2-0.1c0.1,0,0.1-0.1,0.2-0.1c0.1,0,0.1-0.1,0.2-0.1
				c-0.1-0.1-0.2-0.2-0.3-0.3c-0.1-0.1-0.2-0.3-0.2-0.4c0-0.1,0-0.1,0-0.2c0-0.1,0-0.1,0.1-0.2c0.1-0.1,0.2-0.3,0.3-0.4
				c0.1-0.1,0.2-0.2,0.4-0.4c0.1-0.1,0.3-0.2,0.4-0.3c0.2-0.1,0.3-0.1,0.5-0.1c0.1,0,0.1,0,0.2,0.1c0.1,0,0.1,0.1,0.1,0.1
				c0,0.1,0.1,0.1,0.1,0.2c0,0.1,0.1,0.1,0.1,0.2c0,0.1,0,0.2,0,0.3l-0.1,0.3c-0.1,0.1-0.1,0.2-0.2,0.2c-0.1,0-0.1,0-0.1-0.1
				c0-0.1,0-0.1-0.1-0.2c0-0.1-0.1-0.1-0.2-0.2c-0.1,0-0.1,0-0.2,0c-0.3,0-0.5,0.1-0.7,0.3c0.1,0.2,0.2,0.4,0.4,0.5
				c0.2,0.2,0.4,0.2,0.6,0.3c0.3,0,0.5,0,0.8,0s0.5-0.1,0.8-0.2c0,0,0,0.1,0,0.1c0,0.1-0.1,0.2-0.1,0.3c0,0.1-0.1,0.2-0.1,0.2
				c0,0.1-0.1,0.1-0.1,0.1c-0.2,0-0.5,0.1-0.7,0.1c-0.2,0-0.5,0.1-0.7,0.2c-0.3,0.1-0.5,0.2-0.8,0.3c-0.3,0.1-0.5,0.2-0.8,0.4
				c0,0-0.1,0-0.1-0.1c0-0.1,0.1-0.2,0.1-0.3C102.3,53.1,102.4,53,102.4,52.9z M103.5,38.9C103.5,38.9,103.6,38.9,103.5,38.9
				c0.1,0.1,0.1,0.1,0.1,0.1c0,0,0,0.1,0,0.1c0,0,0,0.1,0,0.1c0,0.2,0,0.4,0,0.6c0,0.2,0,0.4,0.1,0.6c0.1,0.5,0.1,1,0.2,1.5
				c0.1,0.5,0.1,1,0.2,1.5c0.1,0.5,0.1,1,0.2,1.5c0.1,0.5,0.1,1,0.2,1.5c0,0.2,0,0.4,0,0.7c0,0.3,0,0.5,0,0.8c0,0.3,0,0.5-0.1,0.7
				c0,0.2-0.1,0.4-0.2,0.6c0,0.1-0.1,0.2-0.1,0.2c0,0-0.1,0-0.1-0.1c-0.1-0.9-0.2-1.9-0.3-2.8c-0.1-1-0.3-2-0.4-3
				c-0.1-1-0.3-2-0.4-3c0-0.2,0.1-0.5,0.2-0.8c0.1-0.2,0.1-0.3,0.2-0.4C103.4,39.1,103.4,39,103.5,38.9z"/>
			<path d="M116.9,35.2c-0.3,0.1-0.6,0.3-0.9,0.4c-0.3,0.1-0.6,0.3-1,0.4c-0.3,0.1-0.6,0.3-0.9,0.4c-0.3,0.1-0.5,0.2-0.6,0.3
				c0,0-0.1,0-0.1,0c0,0,0,0,0-0.1c0,0,0-0.1,0.1-0.2c0-0.1,0.1-0.2,0.1-0.3c0-0.1,0.1-0.2,0.1-0.2c0-0.1,0.1-0.1,0.1-0.1
				c0.1-0.1,0.1-0.1,0.2-0.2l3.3-1.4c0.1,0,0.1,0,0.1,0.1c0,0.1,0,0.1-0.1,0.2c0,0.1-0.1,0.1-0.1,0.2c0,0.1-0.1,0.1-0.1,0.2
				c0,0.1-0.1,0.1-0.1,0.2C117,35.1,116.9,35.1,116.9,35.2z M115.2,38.5c-0.1,0.3-0.2,0.5-0.4,0.6c-0.2,0.1-0.4,0.2-0.6,0.2
				c-0.2,0-0.4,0-0.5-0.1c-0.1-0.1-0.2-0.3-0.2-0.5c0-0.1,0-0.2,0-0.4c0-0.1,0.1-0.2,0.1-0.4c0-0.1,0.1-0.2,0.1-0.3
				c0.1-0.1,0.1-0.1,0.2-0.2c0.1,0,0.1,0,0,0.2c0,0.1,0,0.1-0.1,0.2c0,0.1,0,0.2,0,0.3c0,0.1,0,0.2,0,0.2c0,0.1,0.1,0.1,0.1,0.1
				c0.1,0.1,0.2,0.1,0.3,0.1c0.1,0,0.2,0,0.3-0.1c0.1,0,0.2-0.1,0.3-0.2c0.1-0.1,0.2-0.1,0.2-0.2c0.1-0.1,0.1-0.2,0.1-0.3
				c0-0.1,0.1-0.2,0.1-0.3c0,0,0-0.1,0-0.1c0,0,0-0.1,0-0.1c0,0,0-0.1,0.1-0.1c0,0,0.1,0,0.1-0.1c0,0,0,0,0.1,0c0,0,0,0.1,0,0.1
				c0,0,0,0.1,0,0.1c0,0,0,0.1,0,0.1c0,0.2,0,0.3,0.1,0.4c0.1,0.1,0.2,0.2,0.3,0.2c0.1,0,0.2,0,0.3,0c0.1,0,0.2-0.1,0.3-0.2
				c0,0,0-0.1,0-0.1c0-0.1,0-0.1,0-0.2c0-0.1,0-0.1,0-0.2c0,0,0-0.1,0-0.1c0,0,0-0.1,0-0.1c0-0.1,0-0.2,0.1-0.2
				c0-0.1,0.1-0.2,0.1-0.2c0-0.1,0.1-0.1,0.1-0.1c0.1,0,0.1,0,0.1,0.1c0,0.1,0.1,0.2,0.1,0.3c0,0.1,0,0.3,0,0.4c0,0.1,0,0.3,0,0.4
				c0,0.1-0.1,0.2-0.1,0.3c0,0.1-0.1,0.2-0.2,0.3c-0.1,0.1-0.1,0.2-0.2,0.2c-0.1,0.1-0.2,0.1-0.3,0.1c-0.2,0-0.4,0-0.5,0
				C115.4,38.7,115.3,38.6,115.2,38.5z"/>
			<path d="M115.7,40C115.7,39.9,115.7,39.9,115.7,40c0.1-0.1,0.2,0,0.2,0.1l0.4,4l0.3,2.7c0,0.3,0.1,0.6,0.2,0.8
				c0.1,0.3,0.2,0.5,0.3,0.8c0.1,0.2,0.3,0.4,0.6,0.5c0.2,0.1,0.5,0.2,0.8,0.2h0.2c0.2,0,0.3,0.1,0.4,0.2c0.1,0.1,0.1,0.3,0.1,0.5
				c0,0.2,0,0.3-0.1,0.5c-0.1,0.1-0.2,0.2-0.4,0.2h-0.2c-0.3,0-0.6-0.1-0.9-0.2c-0.3-0.1-0.5-0.3-0.8-0.6l0.2,2.4
				c0,0.6-0.2,1.1-0.4,1.5c-0.2,0.5-0.5,0.9-0.9,1.2c-0.4,0.3-0.8,0.6-1.2,0.7c-0.5,0.2-1,0.3-1.5,0.3c-0.5,0-0.9-0.1-1.3-0.2
				c-0.4-0.1-0.7-0.4-1-0.6c-0.3-0.3-0.5-0.6-0.7-1c-0.2-0.4-0.2-0.9-0.2-1.4c0-0.6,0.1-1.1,0.3-1.6c0.2-0.5,0.4-1,0.7-1.4
				c0-0.1,0.1-0.1,0.1-0.1c0,0,0,0,0.1,0c0,0,0,0.1,0,0.1c0,0,0,0.1,0,0.1c-0.3,0.6-0.4,1.1-0.5,1.7c-0.1,0.6,0,1.1,0.2,1.5
				c0.1,0.2,0.2,0.4,0.3,0.6c0.1,0.2,0.3,0.4,0.5,0.5c0.2,0.1,0.5,0.2,0.7,0.3c0.3,0.1,0.6,0.1,0.9,0.1c0.7,0,1.3-0.1,1.9-0.4
				c0.6-0.3,1.1-0.7,1.5-1.3l-1.2-11.6c0.1-0.2,0.1-0.4,0.2-0.6C115.5,40.4,115.6,40.2,115.7,40z"/>
			<path class="st0" d="M126,40c-0.3,0.1-0.6,0.3-0.9,0.4c-0.3,0.1-0.6,0.3-1,0.4c-0.3,0.1-0.6,0.3-0.9,0.4
				c-0.3,0.1-0.5,0.2-0.6,0.3c0,0-0.1,0-0.1,0c0,0,0,0,0-0.1c0,0,0-0.1,0.1-0.2c0-0.1,0.1-0.2,0.1-0.3c0-0.1,0.1-0.2,0.1-0.2
				c0-0.1,0.1-0.1,0.1-0.1c0.1-0.1,0.1-0.1,0.2-0.2l3.3-1.4c0.1,0,0.1,0,0.1,0.1c0,0.1,0,0.1-0.1,0.2c0,0.1-0.1,0.1-0.1,0.2
				c0,0.1-0.1,0.1-0.1,0.2c0,0.1-0.1,0.1-0.1,0.2C126.1,39.9,126.1,39.9,126,40z"/>
			<path class="st0" d="M123,49c0.3-0.3,0.5-0.7,0.8-1c0.3-0.3,0.6-0.7,0.9-1c0.3-0.3,0.6-0.6,1-0.9c0.4-0.3,0.7-0.5,1.1-0.8
				c0.2-0.1,0.4-0.2,0.6-0.2c0.2,0,0.5,0,0.7,0s0.5,0.1,0.7,0.2c0.2,0.1,0.5,0.2,0.7,0.3c0.2,0.1,0.4,0.3,0.5,0.5
				c0.1,0.2,0.2,0.4,0.2,0.7c0,0.5-0.1,1-0.4,1.4c-0.2,0.4-0.5,0.7-0.9,1c-0.4,0.3-0.8,0.5-1.2,0.7c-0.5,0.2-1,0.3-1.5,0.4
				c-0.3,0.1-0.6,0.1-1,0.1c-0.3,0-0.6,0-0.9,0c-0.3,0-0.6,0-0.9-0.1s-0.6-0.1-0.8-0.1c0,0.1-0.1,0.2-0.2,0.3
				c-0.1,0.1-0.1,0.2-0.1,0.3c-0.1,0.2-0.1,0.2-0.2,0.2c-0.1,0-0.1,0-0.1-0.1c0-0.1,0-0.1,0-0.2c0-0.1,0-0.2,0.1-0.3
				c0-0.1,0.1-0.2,0.1-0.3c-0.2-0.1-0.3-0.1-0.4-0.2c-0.1-0.1-0.2-0.1-0.3-0.2c-0.1-0.1-0.2-0.2-0.3-0.3c-0.1-0.1-0.2-0.2-0.3-0.4
				c-0.3,0.4-0.6,0.7-1,0.9c-0.4,0.2-0.8,0.3-1.4,0.3h-0.2c-0.2,0-0.3-0.1-0.4-0.2c-0.1-0.1-0.1-0.3-0.1-0.5c0-0.2,0-0.3,0.1-0.5
				c0.1-0.1,0.2-0.2,0.4-0.2h0.2c0.3,0,0.6,0,0.8,0c0.3,0,0.5-0.1,0.7-0.3c0.1-0.1,0.2-0.2,0.3-0.3c0.1-0.1,0.2-0.2,0.3-0.4
				c0.1-0.1,0.2-0.3,0.2-0.4s0.1-0.3,0.2-0.4c0-0.1,0.1-0.1,0.2-0.2c0.1,0,0.1,0,0.1,0.1c0,0.2,0.1,0.4,0.2,0.6
				c0.1,0.2,0.2,0.4,0.4,0.5c0.2,0.2,0.3,0.3,0.5,0.4C122.6,49,122.8,49,123,49z M124.6,42.5l1,0.9c0,0,0,0.1,0,0.1l-0.7,0.9
				c0,0.1-0.1,0.1-0.1,0l-1.1-0.9c0,0,0-0.1,0-0.1l0.7-0.9C124.5,42.4,124.5,42.4,124.6,42.5z M123.7,49.1c0.3,0,0.6,0.1,0.9,0.1
				c0.3,0,0.7,0,1.1-0.1c0.4,0,0.7-0.1,1.1-0.2s0.7-0.2,1.1-0.3c0.3-0.1,0.6-0.3,0.9-0.4c0.3-0.2,0.5-0.3,0.7-0.5
				c-0.1-0.3-0.3-0.5-0.5-0.6c-0.2-0.2-0.5-0.3-0.7-0.4c-0.3-0.1-0.5-0.1-0.8-0.1c-0.3,0-0.5,0-0.7,0.1c-0.3,0.1-0.6,0.3-0.8,0.4
				c-0.3,0.2-0.5,0.4-0.8,0.6c-0.2,0.2-0.5,0.5-0.7,0.7C124.2,48.6,123.9,48.8,123.7,49.1z"/>
			<path class="st0" d="M141.5,49c0.1-0.3,0.1-0.5,0.2-0.7c0.1-0.2,0.1-0.4,0.2-0.6c0-0.1,0-0.1,0.1-0.1c0,0,0.1,0,0.1,0.1
				c0.1,0.2,0.2,0.4,0.4,0.6c0.1,0.2,0.2,0.4,0.3,0.6c0.1,0.1,0.1,0.1,0.3,0.1c0.1,0,0.2,0.1,0.3,0.1c0.1,0,0.2,0,0.3,0
				c0.1,0,0.2,0,0.2,0h0.2c0.2,0,0.3,0.1,0.4,0.2c0.1,0.1,0.1,0.3,0.1,0.5c0,0.2,0,0.3-0.1,0.5c-0.1,0.1-0.2,0.2-0.4,0.2h-0.2
				c-0.3,0-0.6,0-0.8-0.1c0,0.3,0.1,0.7,0.1,1.1c0,0.4,0,0.7-0.1,1.1c-0.1,0.6-0.3,1.1-0.6,1.5c-0.3,0.4-0.7,0.8-1.2,1
				c-0.5,0.3-1,0.5-1.5,0.6c-0.5,0.1-1.1,0.2-1.6,0.2c-0.5,0-0.9-0.1-1.3-0.2c-0.4-0.1-0.7-0.4-1-0.6c-0.3-0.3-0.5-0.6-0.7-1
				c-0.2-0.4-0.3-0.8-0.3-1.3c0-0.6,0.1-1.1,0.3-1.6c0.2-0.5,0.4-1,0.7-1.5c0-0.1,0.1-0.1,0.1-0.1c0,0,0,0,0.1,0c0,0,0,0.1,0,0.1
				c0,0,0,0.1,0,0.1c-0.3,0.5-0.4,1.1-0.5,1.6c-0.1,0.6,0,1.1,0.1,1.5c0.1,0.2,0.2,0.4,0.3,0.6c0.1,0.2,0.3,0.3,0.5,0.5
				c0.2,0.1,0.5,0.2,0.7,0.3c0.3,0.1,0.6,0.1,0.9,0.1c0.4,0,0.8,0,1.2-0.1c0.4-0.1,0.8-0.2,1.1-0.3s0.7-0.3,1-0.6
				c0.3-0.2,0.6-0.5,0.9-0.8c0-0.3,0-0.6-0.1-0.9c-0.1-0.3-0.1-0.6-0.2-1c-0.1-0.3-0.2-0.6-0.3-1C141.8,49.6,141.7,49.3,141.5,49z
				 M139.8,45.2l1,0.9c0,0,0,0.1,0,0.1l-0.7,0.9c0,0.1-0.1,0.1-0.1,0l-1.1-0.9c0,0,0-0.1,0-0.1l0.7-0.9
				C139.7,45.1,139.7,45.1,139.8,45.2z"/>
			<path d="M148.8,37.4c-0.3,0.1-0.6,0.3-0.9,0.4c-0.3,0.1-0.6,0.3-1,0.4c-0.3,0.1-0.6,0.3-0.9,0.4c-0.3,0.1-0.5,0.2-0.6,0.3
				c0,0-0.1,0-0.1,0c0,0,0,0,0-0.1c0,0,0-0.1,0.1-0.2c0-0.1,0.1-0.2,0.1-0.3c0-0.1,0.1-0.2,0.1-0.2c0-0.1,0.1-0.1,0.1-0.1
				c0.1-0.1,0.1-0.1,0.2-0.2l3.3-1.4c0.1,0,0.1,0,0.1,0.1c0,0.1,0,0.1-0.1,0.2c0,0.1-0.1,0.1-0.1,0.2c0,0.1-0.1,0.1-0.1,0.2
				c0,0.1-0.1,0.1-0.1,0.2C148.9,37.3,148.9,37.3,148.8,37.4z M147.1,40.7c-0.1,0.3-0.2,0.5-0.4,0.6c-0.2,0.1-0.4,0.2-0.6,0.2
				c-0.2,0-0.4,0-0.5-0.1c-0.1-0.1-0.2-0.3-0.2-0.5c0-0.1,0-0.2,0-0.4c0-0.1,0.1-0.2,0.1-0.4c0-0.1,0.1-0.2,0.1-0.3
				c0.1-0.1,0.1-0.1,0.2-0.2c0.1,0,0.1,0,0,0.2c0,0.1,0,0.1-0.1,0.2c0,0.1,0,0.2,0,0.3c0,0.1,0,0.2,0,0.2c0,0.1,0.1,0.1,0.1,0.1
				c0.1,0.1,0.2,0.1,0.3,0.1c0.1,0,0.2,0,0.3-0.1c0.1,0,0.2-0.1,0.3-0.2c0.1-0.1,0.2-0.1,0.2-0.2c0.1-0.1,0.1-0.2,0.1-0.3
				s0.1-0.2,0.1-0.3c0,0,0-0.1,0-0.1c0,0,0-0.1,0-0.1c0,0,0-0.1,0.1-0.1c0,0,0.1,0,0.1-0.1c0,0,0,0,0.1,0c0,0,0,0.1,0,0.1
				c0,0,0,0.1,0,0.1c0,0,0,0.1,0,0.1c0,0.2,0,0.3,0.1,0.4c0.1,0.1,0.2,0.2,0.3,0.2c0.1,0,0.2,0,0.3,0c0.1,0,0.2-0.1,0.3-0.2
				c0,0,0-0.1,0-0.1c0-0.1,0-0.1,0-0.2c0-0.1,0-0.1,0-0.2c0,0,0-0.1,0-0.1c0,0,0-0.1,0-0.1c0-0.1,0-0.2,0.1-0.2
				c0-0.1,0.1-0.2,0.1-0.2c0-0.1,0.1-0.1,0.1-0.1c0.1,0,0.1,0,0.1,0.1c0,0.1,0.1,0.2,0.1,0.3c0,0.1,0,0.3,0,0.4c0,0.1,0,0.3,0,0.4
				c0,0.1-0.1,0.2-0.1,0.3c0,0.1-0.1,0.2-0.2,0.3c-0.1,0.1-0.1,0.2-0.2,0.2c-0.1,0.1-0.2,0.1-0.3,0.1c-0.2,0-0.4,0-0.5,0
				C147.4,40.9,147.2,40.8,147.1,40.7z"/>
			<path d="M143.9,49.1c0.2,0,0.5,0,0.7,0c0.2,0,0.5,0,0.7-0.1c0.2-0.1,0.4-0.1,0.5-0.2c0.2-0.1,0.3-0.2,0.4-0.4
				c0.2-0.3,0.3-0.6,0.4-0.9c0.1-0.3,0.3-0.6,0.5-0.9c0.1-0.1,0.2-0.2,0.3-0.4c0.1-0.1,0.2-0.3,0.3-0.4c0.1-0.1,0.3-0.2,0.4-0.3
				c0.1-0.1,0.3-0.1,0.4-0.1c0.1,0,0.3,0.1,0.4,0.2c0.1,0.1,0.3,0.2,0.4,0.4c0.1,0.2,0.2,0.3,0.3,0.5c0.1,0.2,0.2,0.4,0.3,0.6
				c0.1,0.2,0.1,0.4,0.2,0.6c0,0.2,0.1,0.3,0,0.5c0,0.1,0,0.3-0.1,0.4c0,0.1-0.1,0.3-0.1,0.4c0,0.1-0.1,0.2-0.2,0.3
				c-0.1,0.1-0.2,0.2-0.3,0.2c-0.1,0-0.3,0.1-0.5,0c-0.2,0-0.5-0.1-0.7-0.1c-0.3-0.1-0.5-0.2-0.8-0.3c-0.3-0.1-0.5-0.3-0.8-0.4
				c-0.2,0.7-0.6,1.2-1,1.5c-0.4,0.3-1,0.5-1.7,0.5h-0.2c-0.2,0-0.3-0.1-0.4-0.2c-0.1-0.1-0.1-0.3-0.1-0.5c0-0.2,0-0.3,0.1-0.5
				c0.1-0.1,0.2-0.2,0.4-0.2H143.9z M149.3,48.1c0,0,0-0.1,0-0.1c0-0.1-0.1-0.2-0.1-0.3c0-0.1-0.1-0.2-0.1-0.3
				c0-0.1-0.1-0.1-0.1-0.2c-0.1-0.1-0.1-0.1-0.2-0.2c-0.1-0.1-0.1-0.1-0.2-0.2c-0.1-0.1-0.1-0.1-0.2-0.1c-0.1,0-0.2,0-0.3,0
				c-0.1,0-0.2,0-0.3,0.1s-0.2,0.1-0.2,0.2c-0.1,0.1-0.1,0.1-0.2,0.2c-0.1,0.1-0.1,0.2-0.1,0.3c0.3,0.3,0.6,0.4,1,0.5
				C148.5,48,148.9,48.1,149.3,48.1z"/>
			<path d="M158,47.5c0.1,0,0.2,0,0.3,0.1c0.1,0.1,0.2,0.1,0.3,0.2c0.1,0.1,0.2,0.2,0.3,0.3c0.1,0.1,0.2,0.2,0.3,0.3
				c0.2,0.1,0.3,0.3,0.5,0.3c0.2,0.1,0.4,0.2,0.6,0.2c0.2,0,0.4,0.1,0.6,0.1c0.2,0,0.4,0,0.6,0h0.2c0.2,0,0.3,0.1,0.4,0.2
				c0.1,0.1,0.1,0.3,0.1,0.5c0,0.2,0,0.3-0.1,0.5c-0.1,0.1-0.2,0.2-0.4,0.2h-0.2c-0.3,0-0.6,0-0.9,0c-0.4,0-0.7-0.1-1.1-0.2
				c0,0.2,0,0.3-0.1,0.4c0,0.1-0.1,0.2-0.1,0.2c-0.2,0-0.5,0-0.8,0c-0.3-0.1-0.6-0.1-0.9-0.2c-0.3-0.1-0.6-0.2-0.8-0.4
				s-0.4-0.3-0.5-0.4c-0.1,0-0.2,0.1-0.4,0.2c-0.1,0.1-0.2,0.2-0.3,0.3c-0.1,0.1-0.2,0.2-0.3,0.4c-0.1,0.1-0.1,0.3-0.1,0.4
				c0,0.2,0,0.5,0.1,0.9c0,0.4,0.1,0.7,0.2,1.1c0.1,0.4,0.1,0.8,0.2,1.2s0.1,0.7,0.2,1c0,0.2,0.1,0.5,0.1,0.8c0,0.3,0.1,0.6,0.1,0.9
				c0,0.3,0,0.6,0,0.8c0,0.3,0,0.5-0.1,0.6c0,0.1-0.1,0.1-0.1,0.1c0,0-0.1,0-0.1-0.1c0-0.1-0.1-0.2-0.1-0.4c0-0.1,0-0.2-0.1-0.4
				c0-0.1-0.1-0.3-0.1-0.7c0-0.3-0.1-0.8-0.2-1.4c-0.2-1.1-0.3-2-0.4-2.7c-0.1-0.7-0.2-1.2-0.2-1.6c0-0.5,0-1,0.2-1.4
				c0.1-0.4,0.3-0.7,0.6-1c0.1-0.1,0.2-0.2,0.3-0.3c0.1-0.1,0.3-0.2,0.4-0.4c0.2-0.1,0.3-0.3,0.5-0.4c0.2-0.1,0.3-0.2,0.5-0.4
				c0.2-0.1,0.3-0.2,0.5-0.3C157.8,47.5,157.9,47.5,158,47.5z M157.9,48.4c-0.1,0-0.3,0-0.5,0.1c-0.2,0.1-0.3,0.2-0.4,0.3
				c0,0,0,0,0,0.1c0,0,0,0,0,0.1c0.1,0.1,0.3,0.2,0.5,0.2c0.2,0.1,0.4,0.1,0.6,0.2c0.2,0.1,0.4,0.1,0.5,0.1c0.2,0,0.3,0,0.3,0
				c-0.1-0.1-0.2-0.3-0.3-0.4c-0.1-0.1-0.2-0.2-0.3-0.3c-0.1-0.1-0.2-0.2-0.3-0.2C157.9,48.5,157.9,48.4,157.9,48.4z"/>
			<path d="M163.4,41.4c-0.1,0-0.1,0,0-0.1c0-0.1,0.1-0.1,0.2-0.2c0.2-0.1,0.4-0.3,0.5-0.4c0.2-0.1,0.4-0.2,0.5-0.4
				c0.2-0.1,0.3-0.3,0.5-0.4c0.2-0.1,0.3-0.3,0.5-0.5c-0.1,0-0.3-0.1-0.5-0.2c-0.2-0.1-0.3-0.2-0.4-0.4c-0.1-0.1-0.1-0.2-0.1-0.3
				c0-0.1,0-0.2,0-0.3c0.1-0.1,0.1-0.3,0.2-0.5c0.1-0.2,0.2-0.3,0.3-0.4c0.1-0.1,0.2-0.2,0.4-0.3c0.1-0.1,0.3-0.1,0.4-0.1
				c0.1,0,0.2,0,0.3,0.1c0.1,0.1,0.1,0.2,0.2,0.3c0,0.1,0.1,0.2,0.1,0.4c0,0.1,0,0.3,0,0.4c0,0.1,0,0.3,0,0.4c0,0.1,0,0.2,0,0.3
				c0,0,0,0,0,0.1c0.1,0,0.1,0.1,0.1,0.1c0,0,0,0.1,0.1,0.1c0,0.1,0,0.2,0,0.3c0,0.1-0.1,0.2-0.1,0.3c0,0.1-0.1,0.1-0.1,0.1
				c0,0-0.1,0-0.1-0.1c0,0,0-0.1-0.1-0.1c0,0-0.1-0.1-0.1-0.1c-0.2,0.2-0.3,0.4-0.5,0.6c-0.2,0.2-0.3,0.3-0.5,0.4
				c-0.2,0.1-0.4,0.2-0.6,0.3c-0.2,0.1-0.4,0.2-0.7,0.3c-0.1,0-0.2,0.1-0.3,0.1S163.5,41.4,163.4,41.4z M165.2,38.1
				c0.1,0.2,0.3,0.3,0.4,0.4c0.2,0.1,0.3,0.2,0.4,0.2h0c0-0.1,0-0.1,0-0.2c0-0.1,0-0.2,0-0.2c0-0.1,0-0.2,0-0.2
				c0-0.1-0.1-0.1-0.1-0.2c0,0-0.1-0.1-0.2-0.1c-0.1,0-0.2,0-0.2,0c-0.1,0-0.2,0.1-0.2,0.1C165.3,38,165.2,38.1,165.2,38.1z"/>
			<path d="M161.6,49.1c0.6,0,1.2,0,2,0c0.7,0,1.5,0,2.3,0c0.8,0,1.7-0.1,2.6-0.1c0.9,0,1.9-0.1,2.8-0.2c1-0.1,1.9-0.2,2.9-0.3
				c1-0.1,2-0.2,2.9-0.4c0-0.2-0.1-0.4-0.1-0.5c-0.1-0.2-0.2-0.3-0.3-0.4c-0.1-0.1-0.3-0.2-0.5-0.2c-0.2-0.1-0.4-0.1-0.6-0.1
				c-0.8,0-1.7,0.1-2.7,0.1c-0.9,0.1-1.9,0.2-2.9,0.2c-1,0.1-1.9,0.1-2.9,0.2c-1,0-1.9,0-2.7,0c-0.1,0-0.2,0-0.3,0
				c-0.1,0-0.3,0-0.5-0.1c-0.2,0-0.4-0.1-0.5-0.1s-0.4-0.1-0.5-0.1c-0.2-0.1-0.3-0.1-0.4-0.2c-0.1-0.1-0.2-0.2-0.2-0.3
				c0-0.2,0-0.4,0.1-0.7c0.1-0.3,0.2-0.5,0.3-0.7c0.1-0.2,0.3-0.5,0.4-0.7c0.2-0.2,0.3-0.4,0.5-0.5c1.2-1,2.5-1.8,4-2.2
				c0.1,0,0.1,0,0.2,0c0,0,0.1,0,0.1,0.1c0,0,0,0.1,0,0.1s0,0.1,0,0.1c-0.1,0.2-0.1,0.3-0.2,0.5c-0.1,0.2-0.2,0.3-0.2,0.5
				c-0.1,0-0.2,0-0.4,0.1c-0.2,0.1-0.4,0.1-0.6,0.2c-0.2,0.1-0.5,0.2-0.8,0.3c-0.3,0.1-0.5,0.2-0.8,0.4c-0.2,0.1-0.4,0.2-0.6,0.4
				c-0.2,0.1-0.4,0.3-0.5,0.4c-0.2,0.1-0.3,0.3-0.4,0.4c-0.1,0.1-0.1,0.2-0.1,0.3c0,0.1,0.1,0.2,0.3,0.3c0.2,0.1,0.3,0.1,0.5,0.2
				c0.2,0,0.4,0.1,0.6,0.1c0.2,0,0.3,0,0.4,0c0.6,0.1,1.3,0.1,2,0.1c0.7,0,1.5,0,2.3-0.1c0.8,0,1.5-0.1,2.3-0.2
				c0.8-0.1,1.5-0.1,2.2-0.2c0.2,0,0.5,0,0.8,0c0.3,0,0.6,0,0.9,0c0.3,0,0.6,0,0.9,0.1c0.3,0,0.6,0.1,0.8,0.2
				c0.2,0.1,0.5,0.3,0.6,0.5c0.2,0.2,0.3,0.5,0.3,0.8c0,0.2,0,0.4,0,0.6c0,0.2-0.1,0.4-0.2,0.6c-0.1,0.2-0.1,0.4-0.2,0.5
				c-0.1,0.1-0.2,0.3-0.2,0.3c0,0-0.1,0.1-0.1,0.1c0,0-0.1,0.1-0.1,0.1c-0.9,0.2-1.9,0.3-2.9,0.4c-1,0.1-2,0.2-3,0.3
				c-1,0.1-2,0.2-3,0.2c-1,0.1-1.9,0.1-2.7,0.1c-0.8,0-1.6,0.1-2.3,0.1c-0.7,0-1.3,0-1.7,0h-0.2c-0.2,0-0.3-0.1-0.4-0.2
				c-0.1-0.1-0.1-0.3-0.1-0.5c0-0.2,0-0.3,0.1-0.5c0.1-0.1,0.2-0.2,0.4-0.2H161.6z"/>
			<path d="M180.7,40.5c-0.1,0-0.1-0.1,0-0.1c0.1,0,0.1-0.1,0.2-0.2c0.2-0.1,0.4-0.2,0.6-0.3c0.2-0.1,0.4-0.2,0.6-0.3
				c0.2-0.1,0.4-0.2,0.6-0.4c0.2-0.1,0.4-0.3,0.5-0.4c-0.1-0.1-0.3-0.2-0.4-0.3c-0.2-0.1-0.3-0.2-0.3-0.4c0-0.1-0.1-0.2-0.1-0.3
				c0-0.1,0-0.2,0.1-0.3c0.1-0.1,0.1-0.3,0.2-0.4c0.1-0.2,0.2-0.3,0.3-0.4c0.1-0.1,0.2-0.2,0.4-0.3c0.1-0.1,0.3-0.1,0.4-0.1
				c0.1,0,0.2,0.1,0.2,0.1c0.1,0.1,0.1,0.2,0.1,0.3c0,0.1,0,0.2,0,0.4s0,0.3,0,0.4c0,0.1,0,0.3-0.1,0.4c0,0.1,0,0.2-0.1,0.3
				c0,0,0,0,0,0.1c0.1,0,0.1,0.1,0.1,0.1c0,0,0,0.1,0.1,0.1c0,0.1,0,0.2,0,0.3c0,0.1-0.1,0.2-0.1,0.3c0,0-0.1,0.1-0.1,0.1
				c0,0-0.1,0-0.1-0.1c0-0.1-0.1-0.1-0.1-0.2c-0.2,0.2-0.4,0.4-0.6,0.5c-0.2,0.2-0.4,0.3-0.6,0.4c-0.2,0.1-0.4,0.2-0.6,0.3
				c-0.2,0.1-0.4,0.2-0.7,0.2c0,0-0.1,0-0.1,0c-0.1,0-0.1,0-0.2,0c-0.1,0-0.1,0-0.1,0C180.8,40.5,180.7,40.5,180.7,40.5z
				 M182.5,42.2c-0.1,0.3-0.2,0.4-0.4,0.6c-0.2,0.1-0.4,0.2-0.6,0.2c-0.2,0-0.4,0-0.5-0.1c-0.1-0.1-0.2-0.3-0.2-0.6
				c0-0.1,0-0.2,0-0.4c0-0.1,0.1-0.2,0.1-0.4c0-0.1,0.1-0.2,0.2-0.3c0.1-0.1,0.1-0.1,0.2-0.2c0.1,0,0.1,0,0,0.2
				c0,0.1-0.1,0.1-0.1,0.2c0,0.1,0,0.2,0,0.3c0,0.1,0,0.2,0,0.2c0,0.1,0,0.1,0.1,0.1c0.1,0.1,0.2,0.1,0.3,0.1c0.1,0,0.2,0,0.3-0.1
				c0.1,0,0.2-0.1,0.3-0.2c0.1-0.1,0.2-0.1,0.2-0.2c0.1-0.1,0.1-0.2,0.1-0.3c0-0.1,0.1-0.2,0.1-0.3c0,0,0-0.1,0-0.1c0,0,0-0.1,0-0.1
				c0,0,0-0.1,0.1-0.1c0,0,0.1,0,0.1-0.1c0,0,0,0,0.1,0c0,0,0,0.1,0,0.1c0,0,0,0.1,0,0.1c0,0,0,0.1,0,0.1c0,0.2,0,0.3,0.1,0.4
				c0,0.1,0.2,0.2,0.3,0.2c0.1,0,0.2,0,0.3,0c0.1,0,0.2-0.1,0.3-0.2c0,0,0-0.1,0-0.1c0-0.1,0-0.1,0-0.2s0-0.1,0-0.2c0,0,0-0.1,0-0.1
				c0,0,0-0.1,0-0.1c0-0.1,0.1-0.1,0.1-0.2c0-0.1,0.1-0.1,0.1-0.2c0-0.1,0.1-0.1,0.1-0.1c0.1,0,0.1,0,0.1,0.1c0,0.1,0.1,0.2,0.1,0.3
				c0,0.1,0,0.3,0,0.4c0,0.1,0,0.3-0.1,0.4c0,0.1-0.1,0.2-0.1,0.3c0,0.1-0.1,0.2-0.2,0.3c-0.1,0.1-0.1,0.2-0.2,0.2
				c-0.1,0.1-0.2,0.1-0.3,0.1c-0.2,0-0.4,0-0.5,0C182.7,42.5,182.6,42.4,182.5,42.2z M182.8,37.4c0.1,0.2,0.2,0.3,0.4,0.4
				c0.1,0.1,0.3,0.2,0.4,0.2h0c0,0,0-0.1,0-0.2c0-0.1,0-0.2,0-0.2c0-0.1,0-0.2,0-0.2c0-0.1,0-0.1-0.1-0.2c0,0-0.1-0.1-0.2-0.1
				c-0.1,0-0.2,0-0.2,0c-0.1,0-0.2,0.1-0.2,0.1C182.9,37.3,182.8,37.4,182.8,37.4z"/>
			<path d="M188.6,41.8c-0.1,0-0.1,0,0-0.1c0-0.1,0.1-0.1,0.2-0.2c0.2-0.1,0.4-0.3,0.5-0.4c0.2-0.1,0.4-0.2,0.5-0.4
				c0.2-0.1,0.3-0.3,0.5-0.4c0.2-0.1,0.3-0.3,0.5-0.5c-0.1,0-0.3-0.1-0.5-0.2c-0.2-0.1-0.3-0.2-0.4-0.4c-0.1-0.1-0.1-0.2-0.1-0.3
				c0-0.1,0-0.2,0-0.3c0.1-0.1,0.1-0.3,0.2-0.5c0.1-0.2,0.2-0.3,0.3-0.4c0.1-0.1,0.2-0.2,0.4-0.3c0.1-0.1,0.3-0.1,0.4-0.1
				c0.1,0,0.2,0,0.3,0.1c0.1,0.1,0.1,0.2,0.2,0.3c0,0.1,0.1,0.2,0.1,0.4c0,0.1,0,0.3,0,0.4c0,0.1,0,0.3,0,0.4c0,0.1,0,0.2,0,0.3
				c0,0,0,0,0,0.1c0.1,0,0.1,0.1,0.1,0.1c0,0,0,0.1,0.1,0.1c0,0.1,0,0.2,0,0.3c0,0.1-0.1,0.2-0.1,0.3c0,0.1-0.1,0.1-0.1,0.1
				c0,0-0.1,0-0.1-0.1c0,0,0-0.1-0.1-0.1c0,0-0.1-0.1-0.1-0.1c-0.2,0.2-0.3,0.4-0.5,0.6c-0.2,0.2-0.3,0.3-0.5,0.4
				c-0.2,0.1-0.4,0.2-0.6,0.3c-0.2,0.1-0.4,0.2-0.7,0.3c-0.1,0-0.2,0.1-0.3,0.1S188.6,41.8,188.6,41.8z M190.4,38.5
				c0.1,0.2,0.3,0.3,0.4,0.4c0.2,0.1,0.3,0.2,0.4,0.2h0c0-0.1,0-0.1,0-0.2c0-0.1,0-0.2,0-0.2c0-0.1,0-0.2,0-0.2s-0.1-0.1-0.1-0.2
				c0,0-0.1-0.1-0.2-0.1c-0.1,0-0.2,0-0.2,0c-0.1,0-0.2,0.1-0.2,0.1C190.4,38.4,190.4,38.5,190.4,38.5z"/>
			<path d="M183.7,48.5c0.7-0.1,1.3-0.3,1.9-0.5c0.6-0.2,1.2-0.4,1.9-0.7c0,0,0.1,0,0.1,0.1c-0.1,0.3-0.1,0.6,0,0.8
				c0,0.2,0.1,0.4,0.3,0.5c0.1,0.1,0.3,0.3,0.5,0.3c0.2,0.1,0.4,0.1,0.7,0.2c0.3-0.4,0.6-0.7,0.8-1.1c0.3-0.3,0.6-0.7,0.9-1
				c0.3-0.3,0.7-0.6,1-0.9c0.3-0.3,0.7-0.5,1.1-0.7c0.2-0.1,0.4-0.2,0.6-0.2c0.2,0,0.5,0,0.7,0c0.3,0,0.5,0.1,0.7,0.2
				c0.2,0.1,0.5,0.2,0.6,0.4c0.2,0.1,0.3,0.3,0.5,0.5c0.1,0.2,0.2,0.4,0.2,0.6c0,0.5-0.1,0.9-0.3,1.3c-0.2,0.4-0.4,0.7-0.7,0.9
				c0.3,0,0.6,0,0.9,0c0.3,0,0.5,0,0.8,0h0.2c0.1,0,0.2,0,0.3,0.1c0.1,0.1,0.1,0.2,0.2,0.3c0,0.1,0.1,0.2,0.1,0.3
				c0,0.1,0,0.2-0.1,0.3c0,0.1-0.1,0.2-0.2,0.3c-0.1,0.1-0.2,0.1-0.3,0.1H197c-0.3,0-0.6,0-1,0c-0.4,0-0.8,0-1.2,0
				c-0.4,0-0.9,0-1.3,0c-0.5,0-0.9,0-1.4,0c-0.3,0-0.6,0.1-1,0.1c-0.3,0-0.7,0-1,0c-0.3,0-0.6,0-0.8-0.1c-0.3,0-0.5-0.1-0.6-0.1
				c-0.1,0.1-0.1,0.2-0.2,0.3c-0.1,0.1-0.1,0.2-0.2,0.3c-0.1,0.2-0.1,0.2-0.2,0.2c-0.1,0-0.1-0.2-0.1-0.3c0-0.1,0-0.2,0.1-0.3
				c0-0.1,0.1-0.2,0.1-0.4c-0.2-0.1-0.3-0.1-0.5-0.2c-0.2-0.1-0.3-0.2-0.4-0.3c-0.1-0.1-0.2-0.3-0.3-0.4c-0.1-0.2-0.1-0.4-0.2-0.6
				c-0.4,0.2-0.8,0.4-1.3,0.5c-0.4,0.2-0.9,0.3-1.4,0.4c-0.1,0.7-0.2,1.4-0.4,2.1c-0.2,0.6-0.4,1.2-0.6,1.6c-0.3,0.6-0.7,1-1.1,1.3
				c-0.5,0.3-1,0.5-1.6,0.6c-0.3,0-0.5,0-0.8,0c-0.3,0-0.6,0-0.8-0.1c-0.3,0-0.5-0.1-0.8-0.1c-0.2-0.1-0.5-0.1-0.6-0.2
				c-0.1,0-0.2-0.1-0.2-0.1c0-0.1,0-0.1,0-0.1c0,0,0.1-0.1,0.2-0.1c0.1,0,0.1,0,0.2,0c1,0.1,2,0,2.8-0.4c0.4-0.2,0.7-0.4,1.1-0.7
				c0.3-0.3,0.7-0.7,0.9-1c0.3-0.4,0.5-0.8,0.7-1.2c0.2-0.4,0.4-0.9,0.5-1.3c-0.1,0-0.1,0-0.2,0c-0.1,0-0.1,0-0.2,0c0,0,0,0,0,0
				c0,0,0,0,0-0.1c0-0.2,0.1-0.4,0.1-0.6c0-0.2,0.1-0.4,0.1-0.6C183.7,48.6,183.7,48.5,183.7,48.5C183.7,48.5,183.7,48.5,183.7,48.5
				z M190.5,42.8l1,0.9c0,0,0,0.1,0,0.1l-0.7,0.9c0,0.1-0.1,0.1-0.1,0l-1.1-0.9c0,0,0-0.1,0-0.1l0.7-0.9
				C190.4,42.7,190.5,42.7,190.5,42.8z M189.7,49.2c0.3,0.1,0.5,0.1,0.9,0.1c0.3,0,0.7,0,1-0.1c0.4,0,0.7-0.1,1.1-0.2
				c0.4-0.1,0.7-0.2,1.1-0.3c0.3-0.1,0.7-0.3,1-0.4c0.3-0.2,0.5-0.4,0.7-0.6c-0.1-0.3-0.3-0.5-0.5-0.6c-0.2-0.2-0.5-0.3-0.7-0.4
				c-0.3-0.1-0.5-0.1-0.8-0.1c-0.3,0-0.5,0-0.7,0.1c-0.3,0.1-0.6,0.3-0.9,0.5c-0.3,0.2-0.5,0.4-0.8,0.6c-0.3,0.2-0.5,0.5-0.7,0.7
				C190.2,48.7,189.9,49,189.7,49.2z"/>
			<path d="M200.1,40.8c-0.3,0.1-0.6,0.3-0.9,0.4c-0.3,0.1-0.6,0.3-1,0.4c-0.3,0.1-0.6,0.3-0.9,0.4c-0.3,0.1-0.5,0.2-0.6,0.3
				c0,0-0.1,0-0.1,0c0,0,0,0,0-0.1c0,0,0-0.1,0.1-0.2c0-0.1,0.1-0.2,0.1-0.3c0-0.1,0.1-0.2,0.1-0.2c0-0.1,0.1-0.1,0.1-0.1
				c0.1-0.1,0.1-0.1,0.2-0.2l3.3-1.4c0.1,0,0.1,0,0.1,0.1c0,0.1,0,0.1-0.1,0.2c0,0.1-0.1,0.1-0.1,0.2c0,0.1-0.1,0.1-0.1,0.2
				c0,0.1-0.1,0.1-0.1,0.2C200.2,40.7,200.2,40.8,200.1,40.8z"/>
			<path d="M199,45.7C199.1,45.7,199.1,45.6,199,45.7c0.1-0.1,0.1,0,0.2,0c0.2,0.2,0.3,0.3,0.4,0.5c0.1,0.2,0.3,0.4,0.4,0.6
				c0.1,0.2,0.2,0.4,0.2,0.7c0.1,0.2,0.1,0.4,0.1,0.7c0,0.1,0,0.2,0,0.3c0,0.1,0,0.3-0.1,0.4c0,0.1-0.1,0.2-0.1,0.4
				c0,0.1-0.1,0.2-0.1,0.3c-0.1,0.2-0.3,0.4-0.6,0.5c-0.2,0.1-0.5,0.2-0.8,0.3c-0.3,0.1-0.6,0.1-0.9,0.1c-0.3,0-0.6,0-0.8,0h-0.2
				c-0.2,0-0.3-0.1-0.4-0.2c-0.1-0.1-0.1-0.3-0.1-0.5c0-0.2,0-0.3,0.1-0.5c0.1-0.1,0.2-0.2,0.4-0.2h0.2c0.1,0,0.3,0,0.6,0
				c0.2,0,0.5,0,0.8,0c0.3,0,0.5-0.1,0.8-0.1s0.5-0.1,0.6-0.2c0.1-0.1,0.1-0.1,0.1-0.2c-0.1-0.3-0.2-0.6-0.4-0.9
				c-0.2-0.2-0.4-0.5-0.6-0.7c0-0.2,0.1-0.4,0.1-0.6C198.9,46.1,199,45.9,199,45.7z M200.1,53.9C200,54,200,54,200.1,53.9
				c-0.1,0.1-0.1,0-0.2,0l-1-0.8l-0.6,0.9c0,0.1-0.1,0.1-0.1,0l-1-0.9c0,0,0-0.1,0-0.1l0.7-1c0,0,0-0.1,0.1-0.1c0,0,0,0,0.1,0l1,0.8
				l0.7-0.9c0,0,0.1-0.1,0.1,0l1,0.9c0,0,0,0.1,0,0.1L200.1,53.9z"/>
			<path d="M214.3,35.8c-0.3,0.1-0.6,0.3-0.9,0.4c-0.3,0.1-0.6,0.3-1,0.4c-0.3,0.1-0.6,0.3-0.9,0.4c-0.3,0.1-0.5,0.2-0.6,0.3
				c0,0-0.1,0-0.1,0c0,0,0,0,0-0.1c0,0,0-0.1,0.1-0.2c0-0.1,0.1-0.2,0.1-0.3c0-0.1,0.1-0.2,0.1-0.2c0-0.1,0.1-0.1,0.1-0.1
				c0.1-0.1,0.1-0.1,0.2-0.2l3.3-1.4c0.1,0,0.1,0,0.1,0.1c0,0.1,0,0.1-0.1,0.2c0,0.1-0.1,0.1-0.1,0.2c0,0.1-0.1,0.1-0.1,0.2
				c0,0.1-0.1,0.1-0.1,0.2C214.4,35.7,214.4,35.7,214.3,35.8z"/>
			<path d="M212.2,46.5c0.2-0.6,0.4-1.1,0.4-1.7c0.1-0.6,0.1-1.1,0.2-1.7c0-0.6,0-1.1,0-1.7c0-0.6,0-1.2-0.1-1.7
				c0-0.1-0.1-0.3-0.1-0.4c-0.1-0.1-0.1-0.2-0.2-0.4c0.1-0.2,0.2-0.4,0.4-0.6c0.1-0.2,0.3-0.4,0.4-0.5c0.1-0.1,0.1-0.1,0.2,0
				c0,0.2,0.1,0.3,0.1,0.5c0,0.2,0.1,0.3,0.2,0.5c0.1,0.2,0.1,0.3,0.2,0.4c0.1,0.1,0.2,0.2,0.3,0.3c0,0.1-0.1,0.1-0.1,0.2
				c-0.1,0.1-0.1,0.2-0.2,0.2c-0.1,0.1-0.1,0.2-0.1,0.3c0,0.1-0.1,0.2-0.1,0.3c0,0.6,0,1.1,0,1.7c0,0.6-0.1,1.2-0.2,1.8
				c-0.1,0.6-0.2,1.1-0.3,1.6c-0.1,0.5-0.3,1-0.5,1.4c0.2,0.3,0.3,0.7,0.4,1c0.1,0.3,0.2,0.7,0.3,1.1c0,0.2,0,0.5-0.1,0.7
				c-0.1,0.2-0.2,0.5-0.3,0.7c-0.2,0-0.4,0.1-0.7,0.1c-0.3,0-0.6,0.1-0.9,0.1c-0.3,0-0.6,0.1-0.9,0.1c-0.3,0-0.6,0-0.8,0
				c0,0,0-0.1,0-0.2c0-0.1,0-0.2,0-0.3c0-0.1,0-0.3,0.1-0.4c0-0.1,0.1-0.2,0.1-0.3c0-0.1,0.1-0.1,0.2-0.1c0.2,0,0.3,0,0.4-0.1
				c0.1,0,0.2-0.1,0.2-0.1c0.1-0.1,0.2-0.2,0.3-0.4c0.1-0.2,0.3-0.3,0.4-0.6c0.1-0.2,0.3-0.4,0.4-0.6c0.1-0.2,0.2-0.4,0.3-0.6
				c-0.3-0.4-0.6-0.9-0.9-1.4c-0.3-0.5-0.7-1-1-1.5c-0.3-0.5-0.7-0.9-1.1-1.4c-0.4-0.4-0.8-0.8-1.1-1.2c-0.2,0.1-0.3,0.1-0.5,0.1
				c-0.1,0-0.3-0.1-0.5-0.2c-0.2-0.1-0.3-0.2-0.5-0.3c-0.2-0.1-0.3-0.2-0.4-0.4c-0.1-0.1-0.2-0.3-0.2-0.4c0,0,0-0.1,0-0.2
				c0-0.1,0-0.2,0-0.4c0-0.1,0-0.3,0-0.4c0-0.2,0-0.3,0.1-0.4c0-0.1,0.1-0.2,0.1-0.2c0,0,0.1,0,0.3,0.1c0.4,0.3,0.8,0.6,1.1,0.9
				c0.4,0.4,0.7,0.7,1.1,1.2c0.4,0.4,0.7,0.8,1.1,1.3c0.3,0.4,0.7,0.9,1,1.4c0.3,0.5,0.6,0.9,0.9,1.3
				C211.7,45.7,211.9,46.1,212.2,46.5z M211.2,49.7c0.3,0,0.6,0,0.8-0.1c0.3,0,0.5-0.1,0.8-0.1c0-0.1,0-0.2-0.1-0.3
				c0-0.1-0.1-0.3-0.2-0.4c-0.1-0.1-0.1-0.3-0.2-0.4c-0.1-0.1-0.1-0.2-0.2-0.3c-0.1,0.3-0.3,0.6-0.5,0.8
				C211.5,49.1,211.4,49.4,211.2,49.7z"/>
		</g>
	</g>
	<rect class="st1" width="242.6" height="62.3"/>
</g>
</svg>
