<?xml version="1.0" encoding="utf-8"?>
<!-- Generator: Adobe Illustrator 19.2.0, SVG Export Plug-In . SVG Version: 6.00 Build 0)  -->
<svg version="1.1" id="Layer_1" xmlns="http://www.w3.org/2000/svg" xmlns:xlink="http://www.w3.org/1999/xlink" x="0px" y="0px"
	 viewBox="0 0 151.5 46" style="enable-background:new 0 0 151.5 46;" xml:space="preserve">
<style type="text/css">
	.st0{fill:#FFFFFF;}
</style>
<g>
	<path class="st0" d="M14.8,38.7c0.1-0.1,0.2-0.1,0.2,0.1c0,0.7-0.3,1.4-0.6,1.6l-5.3,3c-0.1,0.1-0.1,0-0.1-0.1c0-0.4,0.1-1,0.3-1.2
		c0.1-0.2,0.4-0.4,0.9-0.7L14.8,38.7z M14.8,41.3c0.1-0.1,0.2-0.1,0.2,0.1c0,0.7-0.3,1.4-0.6,1.6L9,46c-0.1,0.1-0.1,0-0.1-0.1
		c0-0.4,0.1-1,0.3-1.2c0.1-0.2,0.4-0.4,0.9-0.7L14.8,41.3z"/>
	<path class="st0" d="M3.6,26.5c1.2,0.6,3.2,0.9,5.7,0.9c3.6,0,6.4-0.5,8.4-1.1c2.6-0.8,3.7-1.2,5.1-2.2c0.1-0.1,0.2-0.2,0.3-0.2
		c0.1,0,0.2,0.1,0.2,0.6c0,1.6,0.9,2.4,1.8,2.4h0.4c0.8,0,1.2,0.5,1.2,1.4c0,1-0.4,1.5-1.1,1.5H25c-1.8,0-2.9-0.9-3.2-2.8
		c-1.3,0.7-3,1.5-4.6,2c-2.5,0.7-5.2,1.3-8.3,1.3c-2.6,0-4.8-0.4-6.2-0.9C0.9,28.6,0,27.5,0,25.6c0-1.6,0.7-3.2,1.1-3.9
		C1.3,21.3,1.6,21,1.9,21C2,21,2,21,2,21.1c0,0.2-0.1,0.5-0.2,0.8c-0.3,0.6-0.5,1.3-0.5,1.9C1.3,24.6,1.8,25.6,3.6,26.5z M13.4,35.7
		c0.1,0.1,0.1,0.1,0,0.2c-0.3,0.4-1.3,1.6-1.8,2.1c-0.1,0.1-0.2,0.1-0.3,0c-0.6-0.3-1.8-1.3-2.2-1.8c-0.1-0.1-0.1-0.2,0-0.3
		c0.4-0.6,1.1-1.5,1.6-1.9c0.2-0.2,0.3-0.3,0.4-0.2C11.6,34.3,12.5,35.1,13.4,35.7z"/>
	<path class="st0" d="M31.5,32.7c0.1-0.1,0.2-0.1,0.2,0.1c0,0.7-0.3,1.4-0.6,1.6l-5.2,2.9c-0.1,0.1-0.1,0-0.1-0.1
		c0-0.4,0.1-1,0.3-1.2c0.1-0.2,0.4-0.4,0.9-0.7L31.5,32.7z"/>
	<path class="st0" d="M30,28c-0.5,0.8-1.5,1.4-3.2,1.7c-0.5,0.1-1.2,0.1-1.8,0.1c-0.8,0-1.2-0.7-1.2-1.4c0-0.7,0.4-1.4,1.2-1.4h0.7
		c1.3,0,3.3-0.1,4-0.8c-0.1-1.1-0.9-2.5-1.3-3.1c0,0,0-0.1,0-0.1c0-0.5,0.8-2.3,0.9-2.4c0-0.1,0.1-0.2,0.2-0.2c0.4,0,1.4,2,1.4,4.4
		C30.8,25.9,30.7,27.1,30,28z M29.9,13.7c0.2-0.2,0.3-0.3,0.4-0.1c0.6,0.6,1.3,1.3,1.9,1.8c0.2,0.1,0.2,0.2,0,0.4
		c-0.6,0.6-1.1,1.2-1.7,1.9c-0.1,0.2-0.2,0.2-0.4,0c-0.5-0.4-1.2-0.9-1.8-1.5c-0.4,0.4-1.1,1.2-1.4,1.5c-0.2,0.1-0.2,0.2-0.5,0.1
		c-0.6-0.4-1.4-1.1-1.9-1.7c-0.1-0.2-0.1-0.2,0-0.4c0.5-0.6,1.1-1.3,1.7-1.9c0.1-0.1,0.2-0.1,0.4,0.1c0.5,0.5,1.3,1.3,1.8,1.5
		C28.9,14.8,29.6,14,29.9,13.7z"/>
	<path class="st0" d="M35.7,29.8c-0.1,0-0.2-0.2-0.2-0.8c0-3.8-1.4-14.2-1.4-15.9c0-0.9,0.6-2.2,1.1-3.1c0.2-0.3,0.4-0.7,0.6-0.7
		c0.2,0,0.2,0.2,0.2,1c0.1,2.7,0.9,9.1,0.9,13.7c0,1.8-0.1,3.4-0.4,4.3C36.1,29.3,35.9,29.8,35.7,29.8z"/>
	<path class="st0" d="M47.1,26.9c0.9,0,1.4,0.5,1.4,1.4c0,1-0.5,1.5-1.4,1.5h-0.3c-0.8,0-1.3,0-1.6-0.1c0,0.1,0,0.3,0,0.4
		c0,0.9-0.2,1.8-0.5,2.6c-0.7,1.6-1.6,4.1-4.5,5.4c-0.5,0.2-1,0.3-1.5,0.3c-1.1,0-2.9-0.6-4.4-1.3c-0.4-0.2-0.5-0.4-0.5-0.5
		c0-0.2,0.2-0.3,0.5-0.3c0.4,0,1,0.1,1.6,0.1c3.9,0,7.8-3.4,8.3-6.2c0-0.7-1.3-2-1.6-2.4c-0.1-0.1-0.1-0.2-0.1-0.3
		c0-0.7,0.5-1.9,0.7-2.3c0.1-0.2,0.3-0.3,0.3-0.3c0.2,0,0.4,0.2,0.7,0.8c0.4,0.8,1.1,1.1,2.3,1.1H47.1z"/>
	<path class="st0" d="M55.9,13.5c0.1-0.1,0.2-0.1,0.2,0.1c0,0.7-0.3,1.4-0.6,1.6l-5.2,2.9c-0.1,0.1-0.1,0-0.1-0.1
		c0-0.4,0.1-1,0.3-1.2c0.1-0.2,0.4-0.4,0.9-0.7L55.9,13.5z"/>
	<path class="st0" d="M47,29.8h-0.1c-0.8,0-1.2-0.5-1.2-1.5c0.1-0.9,0.5-1.4,1.2-1.4H47c1.6,0,2.8-0.6,3.7-1.8l1.6-2.4
		c0.9-1.4,2.1-1.9,2.8-1.9c2.1,0,3,3.6,3,5.1c0,1.3-1.3,3-2,3c-0.9,0-3.5-1.2-4.7-2.4C49.9,28.8,48.6,29.8,47,29.8z M53.6,23.3
		c-0.2,0-0.4,0.1-0.6,0.4c-0.1,0.2-0.2,0.4-0.4,0.6c0.6,0.3,2.4,1.3,3.1,1.7C55.7,25,54.5,23.3,53.6,23.3z"/>
	<path class="st0" d="M72.5,1.7c0,0.6-0.1,1.2-0.4,1.8c0.3,0.2,0.4,0.3,0.4,0.5c0,0.5-0.2,0.9-0.4,1.2C72.1,5.3,72,5.3,72,5.3
		l-0.6-0.4c-0.6,1-1.6,2.2-3.1,2.9c-0.5,0.3-1.2,0.5-1.8,0.5c-0.3,0-0.5-0.1-0.5-0.2c0-0.2,0.3-0.2,0.7-0.5c1.1-0.6,3.2-2.2,3.8-3.1
		c-0.6-0.4-1.3-0.9-1.3-1.7c0-0.5,0.3-1.1,0.7-1.6c0.5-0.7,1-1,1.6-1C72.2,0.1,72.4,1,72.5,1.7z M70.2,2.2
		C70.2,2.3,70.2,2.3,70.2,2.2c0,0.2,0.5,0.6,1,0.8c0.1-0.2,0.2-0.4,0.2-0.8c0-0.4-0.2-0.5-0.4-0.5C70.7,1.7,70.4,1.9,70.2,2.2z"/>
	<path class="st0" d="M71.9,10.8c0.2-0.2,0.3-0.3,0.4-0.1c0.6,0.6,1.3,1.3,1.9,1.8c0.2,0.1,0.2,0.2,0,0.4c-0.6,0.6-1.1,1.2-1.7,1.9
		c-0.1,0.2-0.2,0.2-0.4,0c-0.5-0.4-1.2-0.9-1.8-1.5c-0.4,0.4-1.1,1.2-1.4,1.5c-0.2,0.1-0.2,0.2-0.5,0.1c-0.6-0.4-1.4-1.1-1.9-1.7
		c-0.1-0.2-0.1-0.2,0-0.4c0.5-0.6,1.1-1.3,1.7-1.9c0.1-0.1,0.2-0.1,0.4,0.1c0.5,0.5,1.3,1.3,1.8,1.5C70.9,11.9,71.6,11.1,71.9,10.8z
		 M75.6,26.3c0.6,0.4,1.1,0.6,1.5,0.6h0.4c0.9,0,1.3,0.4,1.3,1.3c0,1-0.5,1.5-1.4,1.5H77c-1,0-1.9-0.4-2.8-1.1
		c-0.9-0.8-1.5-2-1.7-3.8c-0.3,0.4-0.5,0.9-1,1.3c-0.8,0.5-2,0.8-3.3,0.8c-0.9,0-1.7-0.2-1.7-0.8c0.4-2.8,0.8-3.2,2.1-4.3
		c0.6-0.5,2.3-1.5,2.9-2c0-0.3-0.1-0.5-0.1-0.7c0-0.7,0.2-1,0.5-1.5c0.2-0.3,0.4-0.6,0.5-0.6c0.1,0,0.2,0.2,0.3,0.7
		c0.4,2.6,0.7,4.7,1,6C74,24.7,74.6,25.7,75.6,26.3z M71.8,21.2c-1.2,0.8-3.1,2-3.2,2.3c0,0.2,0.4,0.3,0.9,0.3
		c0.8,0,1.9-0.2,2.7-0.6C72.1,22.5,72,22.2,71.8,21.2z"/>
	<path class="st0" d="M82.6,0C82.7,0,82.8,0,82.8,0.1c0,0.7-0.3,1.4-0.6,1.6L77,4.6c-0.1,0.1-0.1,0-0.1-0.1c0-0.4,0.1-1,0.3-1.2
		c0.1-0.2,0.4-0.4,0.9-0.7L82.6,0z"/>
	<path class="st0" d="M82,28c-0.5,0.8-1.5,1.4-3.2,1.7c-0.5,0.1-1.2,0.1-1.8,0.1c-0.8,0-1.2-0.7-1.2-1.4c0-0.7,0.4-1.4,1.2-1.4h0.7
		c1.3,0,3.3-0.1,4-0.8c-0.1-1.1-0.9-2.5-1.3-3.1c0,0,0-0.1,0-0.1c0-0.5,0.8-2.3,0.9-2.4c0-0.1,0.1-0.2,0.2-0.2c0.4,0,1.4,2,1.4,4.4
		C82.8,25.9,82.7,27.1,82,28z M82,12.6c0.2-0.2,0.3-0.3,0.4-0.1c0.6,0.6,1.3,1.3,1.9,1.8c0.2,0.1,0.2,0.2,0,0.4
		c-0.6,0.6-1.1,1.2-1.7,1.9c-0.1,0.2-0.2,0.2-0.4,0c-0.5-0.4-1.2-0.9-1.8-1.5c-0.4,0.4-1.1,1.2-1.4,1.5c-0.2,0.1-0.2,0.2-0.5,0.1
		c-0.6-0.4-1.4-1.1-1.9-1.7c-0.1-0.2-0.1-0.2,0-0.4c0.5-0.6,1.1-1.3,1.7-1.9c0.1-0.1,0.2-0.1,0.4,0.1c0.5,0.5,1.3,1.3,1.8,1.5
		C81,13.7,81.7,12.9,82,12.6z M82.5,8.5c0.1,0.1,0.1,0.1,0,0.2c-0.3,0.4-1.3,1.6-1.8,2.1c-0.1,0.1-0.2,0.1-0.3,0
		c-0.6-0.3-1.8-1.3-2.2-1.8c-0.1-0.1-0.1-0.2,0-0.3c0.4-0.6,1.1-1.5,1.6-1.9c0.2-0.2,0.3-0.3,0.4-0.2C80.7,7.1,81.6,8,82.5,8.5z"/>
	<path class="st0" d="M100.4,26.5c0.3,0.2,0.7,0.4,1.2,0.4h0.3c0.8,0,1.2,0.5,1.2,1.4c0,1-0.4,1.4-1.2,1.4h-0.3
		c-0.7,0-1.3-0.2-1.8-0.5c-1-0.6-1.4-1.6-1.7-3.8c-0.2-1.5-0.3-2.9-0.4-3.7c0-0.3-0.1-0.5-0.1-0.5c0,0-0.1,0.1-0.1,0.4
		c-0.3,3.2-0.8,5.1-2.5,7.6c-0.5,0.7-1.6,1.1-2.7,1.4c-1.1,0.2-3,0.5-4.2,0.5c-0.4,0-0.6,0-0.6-0.1c0-0.1,0.4-0.4,1.3-0.9
		c2-1,5.6-3.7,6.7-5.8c0-1.4-0.9-3-1.3-3.7c-1.3-2.4-3.4-4.3-5-5c-0.2,0.3-0.5,0.6-1,0.6c-0.7,0-1.9-0.6-3-1.9
		c-0.3-0.3-0.4-1.1-0.4-1.9c0-0.9,0.2-1.8,0.6-1.8c0.3,0,1.1,0.2,1.6,0.5c3,1.2,7.2,4.6,8.4,8.5c0.3,1.1,0.6,2.4,0.6,3.5
		c0.7-1.7,0.9-3.7,0.9-5.6c0-2.3-0.3-4.4-0.3-6c0.2-0.8,1-2.6,1.4-2.6C97.9,9,98,9.8,98,9.9c0.1,0.8,0.2,2.1,0.3,3.5
		c0.1,1.5,0.3,5.8,0.6,8.9C99.2,24.9,99.4,25.8,100.4,26.5z"/>
	<path class="st0" d="M107,0c0.1-0.1,0.2-0.1,0.2,0.1c0,0.7-0.3,1.4-0.6,1.6l-5.2,2.9c-0.1,0.1-0.1,0-0.1-0.1c0-0.4,0.1-1,0.3-1.2
		c0.1-0.2,0.4-0.4,0.9-0.7L107,0z"/>
	<path class="st0" d="M106.4,28c-0.5,0.8-1.5,1.4-3.2,1.7c-0.5,0.1-1.2,0.1-1.8,0.1c-0.8,0-1.2-0.7-1.2-1.4c0-0.7,0.4-1.4,1.2-1.4
		h0.7c1.3,0,3.3-0.1,4-0.8c-0.1-1.1-0.9-2.5-1.3-3.1c0,0,0-0.1,0-0.1c0-0.5,0.8-2.3,0.9-2.4c0-0.1,0.1-0.2,0.2-0.2
		c0.4,0,1.4,2,1.4,4.4C107.2,25.9,107.1,27.1,106.4,28z M106.5,12.6c0.2-0.2,0.3-0.3,0.4-0.1c0.6,0.6,1.3,1.3,1.9,1.8
		c0.2,0.1,0.2,0.2,0,0.4c-0.6,0.6-1.1,1.2-1.7,1.9c-0.1,0.2-0.2,0.2-0.4,0c-0.5-0.4-1.2-0.9-1.8-1.5c-0.4,0.4-1.1,1.2-1.4,1.5
		c-0.2,0.1-0.2,0.2-0.5,0.1c-0.6-0.4-1.4-1.1-1.9-1.7c-0.1-0.2-0.1-0.2,0-0.4c0.5-0.6,1.1-1.3,1.7-1.9c0.1-0.1,0.2-0.1,0.4,0.1
		c0.5,0.5,1.3,1.3,1.8,1.5C105.5,13.7,106.2,12.9,106.5,12.6z M106.9,8.5c0.1,0.1,0.1,0.1,0,0.2c-0.3,0.4-1.3,1.6-1.8,2.1
		c-0.1,0.1-0.2,0.1-0.3,0c-0.6-0.3-1.8-1.3-2.2-1.8c-0.1-0.1-0.1-0.2,0-0.3c0.4-0.6,1.1-1.5,1.6-1.9c0.2-0.2,0.3-0.3,0.4-0.2
		C105.1,7.1,106,8,106.9,8.5z"/>
	<path class="st0" d="M126.1,19.5c0.1-0.1,0.2-0.1,0.2,0.1c0,0.7-0.3,1.4-0.6,1.6l-5.2,2.9c-0.1,0.1-0.1,0-0.1-0.1
		c0-0.4,0.1-1,0.3-1.2c0.1-0.2,0.4-0.4,0.9-0.7L126.1,19.5z"/>
	<path class="st0" d="M127.4,40.8c0.2-0.2,0.3-0.3,0.4-0.1c0.6,0.6,1.3,1.3,1.9,1.8c0.2,0.1,0.2,0.2,0,0.4c-0.6,0.6-1.1,1.2-1.7,1.9
		c-0.1,0.2-0.2,0.2-0.4,0c-0.5-0.4-1.2-0.9-1.8-1.5c-0.4,0.4-1.1,1.2-1.4,1.5c-0.2,0.1-0.2,0.2-0.5,0.1c-0.6-0.4-1.4-1.1-1.9-1.7
		c-0.1-0.2-0.1-0.2,0-0.4c0.5-0.6,1.1-1.3,1.7-1.9c0.1-0.1,0.2-0.1,0.4,0.1c0.5,0.5,1.3,1.3,1.8,1.5
		C126.4,41.8,127.1,41.1,127.4,40.8z"/>
	<path class="st0" d="M140.8,32.4c0.1-0.1,0.2-0.1,0.2,0.1c0,0.7-0.3,1.4-0.6,1.6l-5.2,2.9c-0.1,0.1-0.1,0-0.1-0.1
		c0-0.4,0.1-1,0.3-1.2c0.1-0.2,0.4-0.4,0.9-0.7L140.8,32.4z"/>
	<path class="st0" d="M118.3,26.3c0.4-0.8,0.7-1,0.9-1c0.4,0-0.1,1.1-0.2,1.2c-0.4,0.9-1.2,2.6-1.2,4.1c0,2.9,2.4,4.7,5.8,4.8
		c3.5,0,8.7-2.4,9.6-3.5c0.1-0.3-0.6-0.4-1.9-0.5c-2.8-0.2-4.2-0.8-4.2-1.8c0-0.5,0.2-1.2,0.4-2c0.6-1.3,1.7-2.2,3.1-2.8
		c-0.2-0.4-0.3-0.9-0.3-1.4c0-1.5,0.7-3.3,1.4-4.3c-0.1-0.2-0.2-0.4-0.2-0.7c0-0.5,0.3-2.8,1.1-2.8c2.1,0,7.8,4.1,7.8,8.2
		c0,2.1-0.9,3.3-2.1,3.3c-0.5,0-1-0.1-1.5-0.2c-1.3-0.3-2.3-0.7-3.6-1c-0.4,0-1.2,0.2-2.5,0.7c-1.1,0.4-1.7,0.7-2,1
		c-0.1,0.1-0.2,0.2-0.2,0.4c0,0.6,0.7,1,2.2,1.2c1.6,0.2,2.7,0.3,3.2,0.5c0.4,0.2,0.7,0.6,0.7,1.3c0,0.9-0.4,1.6-0.6,1.9
		c-1.9,3-7.6,5.4-11.1,5.4c-2.8,0-6.5-1.2-6.5-5.9C116.6,30,117.5,27.7,118.3,26.3z M133.4,19.8c-0.5,0-1.8,1.4-1.8,1.9
		c0,0.6,0.5,1.4,1.9,1.7c0.6-0.3,1.4-0.7,1.7-1.2C135.3,21.1,133.8,19.8,133.4,19.8z M136.3,20.8c0,0.2,0,0.4,0,0.5
		c0,1.3-0.8,2.3-1,2.4c1.8,0.4,3,1.3,4.2,1.2C139.4,23.6,138.1,21.8,136.3,20.8z"/>
	<path class="st0" d="M150,14.2c0.1-0.1,0.2-0.1,0.2,0.1c0,0.7-0.3,1.4-0.6,1.6l-5.2,2.9c-0.1,0.1-0.1,0-0.1-0.1
		c0-0.4,0.1-1,0.3-1.2c0.1-0.2,0.4-0.4,0.9-0.7L150,14.2z"/>
	<path class="st0" d="M151,24.5c0.4,1.1,0.6,2.2,0.6,3.8c0,5-1.4,8.2-5.2,9.6c-0.2,0.1-0.5,0.1-0.8,0.1c-1.2,0-3.3-0.6-5-1.3
		c-0.4-0.2-0.5-0.3-0.5-0.5c0-0.1,0.2-0.2,0.5-0.2c0.2,0,1.4,0.2,2.3,0.2c1.2,0,2.4-0.5,4.1-1.7c1.9-1.2,3.5-2.9,3.5-4.8
		c0-0.6-0.2-1.2-0.5-1.8c-0.3,0.9-1,1.4-1.9,1.4c-1.6,0-2.6-0.9-2.6-2.7c0-0.7,0.3-1.7,0.8-2.6c0.6-1.2,1.5-2.4,2.2-2.4
		C149.3,21.8,150.3,23,151,24.5z M147.8,24.6c-0.3,0-0.6,0.3-0.8,0.6c-0.1,0.2-0.3,0.5-0.3,0.6c0,0.4,0.8,0.8,1.4,0.8
		c0.5,0,0.9-0.2,0.9-0.5C149.1,25.2,148.2,24.6,147.8,24.6z"/>
</g>
</svg>
