<?xml version="1.0" encoding="utf-8"?>
<!-- Generator: Adobe Illustrator 19.2.0, SVG Export Plug-In . SVG Version: 6.00 Build 0)  -->
<svg version="1.1" id="Layer_1" xmlns="http://www.w3.org/2000/svg" xmlns:xlink="http://www.w3.org/1999/xlink" x="0px" y="0px"
	 viewBox="0 0 231.8 34.6" style="enable-background:new 0 0 231.8 34.6;" xml:space="preserve">
<style type="text/css">
	.st0{opacity:0.75;}
	.st1{fill:#FFFFFF;}
	.st2{fill:#CB9248;}
	.st3{fill:#F4CE83;fill-opacity:0.5;}
	.st4{opacity:0.5;}
	.st5{fill:#F4CE83;}
</style>
<g>
	<g>
		<g>
			<g class="st0">
				<path d="M58.7,31.4c-2.6-1-3.9-2.5-3.9-5.6c0-2.1,1-4.4,1.5-5.3c0.4-0.6,0.8-1.1,1.1-1.1c0.1,0,0.2,0.1,0.2,0.3
					c0,0.2-0.1,0.7-0.3,1.1c-0.4,0.9-0.7,1.8-0.7,2.8c0,0.9,0.7,2.5,3.2,3.7c1.7,0.8,4.5,1.2,8.2,1.2c8.5,0,17.7-2.5,17.9-3.5
					c0-0.2,0.1-0.5,0.1-0.7c0-1.8-1.5-3.7-2-4.6c0,0,0,0,0-0.1c0-0.6,1.2-3.4,1.8-3.4c0.5,0,2.2,2.9,2.2,6.2c0,2.8-0.9,4.9-1.5,5.8
					c-1.1,1.5-10.5,4.5-18.9,4.5C63.9,32.7,60.7,32.2,58.7,31.4z M73.7,11.7c0.3-0.3,0.4-0.4,0.6-0.2c0.9,0.9,1.8,1.9,2.8,2.5
					c0.3,0.2,0.3,0.3,0,0.6c-0.8,0.9-1.6,1.8-2.4,2.7c-0.2,0.2-0.3,0.2-0.5,0c-0.7-0.5-1.7-1.3-2.6-2.2c-0.5,0.6-1.6,1.8-2,2.1
					c-0.2,0.1-0.3,0.3-0.7,0.1c-0.9-0.6-2.1-1.5-2.8-2.5c-0.2-0.2-0.2-0.3,0-0.6c0.7-0.8,1.6-1.9,2.5-2.7c0.2-0.2,0.3-0.2,0.6,0.1
					c0.7,0.7,1.9,1.8,2.6,2.2C72.3,13.3,73.3,12.1,73.7,11.7z"/>
				<path d="M99.1,32.6c-1.2,0-2.2-0.2-3-0.9c-1.3-1-2-3-2.3-5.5c-0.3-1.9-0.4-4.2-0.5-6.6c-0.1-3.6-0.4-9.1-0.9-12.3
					c0-0.1,0-0.3,0-0.4c0-0.2,0-0.3,0.3-0.7c0.6-0.8,0.9-1.4,1.3-2.1c0.3-0.5,0.4-0.6,0.5-0.6c0.2,0,0.3,0.3,0.5,1.2
					c0.8,6.3,0.1,15,1.1,19.8c0.2,1.2,0.4,1.6,0.7,2.4c0.5,1.1,1.3,1.6,2.6,1.7c1.4,0,2.1,0.7,2.1,2c0,1.6-0.8,2.1-1.9,2.1H99.1z"/>
				<path d="M106.2,20.1c0,1.6-0.2,3.1-0.6,4.2c3.8-3.1,7-4.9,8.8-4.9c1,0,2.2,0.2,3.3,0.7c1.5,0.7,2.1,1.4,2.1,2.8
					c0,2.1-1.5,5.3-3.1,6.3c1.5-0.4,3-0.6,4.4-0.6h0.5c1.2,0,1.8,0.7,1.8,2c0,1.4-0.6,2.1-1.8,2.1h-0.7c-7.9,0.3-11.6,0.3-13.1,0.3
					c-2.1,0-4.7-0.1-8.2-0.3h-0.5c-1.2,0-1.9-0.7-1.9-2.1c0-1.3,0.6-2,1.9-2h2c0.8-0.7,2.1-2,3.3-3.2c0-0.7,0-1.5,0-2.1
					c0-5.1-0.9-9.8-1.3-12.6c-0.1-0.7-0.6-2.3-0.7-3.1c0-0.1-0.1-0.3-0.1-0.5c0-0.3,0.4-1.1,0.7-1.8c0.4-0.9,1-1.9,1.3-1.9
					c0.1,0,0.2,0.1,0.3,0.4c0.5,1.7,1,2.6,1.4,3.2c0.1,0.1,0.1,0.3,0.1,0.4c0,0.1,0,0.2-0.1,0.4c-0.1,0.4-0.7,1.5-1,1.9
					C105.6,13.4,106.2,17,106.2,20.1z M112.6,23c-3.4,0-6.6,2.6-9.7,5.6c6.1-0.4,12-1.5,14.4-3.2C116.4,24,114.4,23,112.6,23z
					 M117.1,11.1c0.2,0.1,0.1,0.2,0,0.3c-0.4,0.6-1.9,2.2-2.5,3c-0.1,0.2-0.2,0.2-0.4,0c-0.8-0.5-2.6-1.9-3.1-2.6
					c-0.1-0.2-0.1-0.2,0-0.4c0.6-0.9,1.6-2.1,2.3-2.8c0.3-0.3,0.4-0.4,0.5-0.2C114.6,9.2,115.9,10.3,117.1,11.1z"/>
				<path d="M134.6,8.7c0.2-0.1,0.2-0.1,0.2,0.1c0,1-0.4,2-0.9,2.3l-7.4,4.1c-0.1,0.1-0.2,0-0.2-0.1c0-0.5,0.2-1.4,0.4-1.8
					c0.2-0.3,0.5-0.6,1.2-1L134.6,8.7z"/>
				<path d="M126.5,23.2c-0.4,0-0.8,0-1.1,0.2c-0.3,0.1-1,0.5-1.4,0.5c-0.3,0-0.3-0.2-0.3-0.4c0-0.8,1.1-2.3,2.1-3.2
					c0.9-0.8,1.7-1,2.5-1c0.3,0,0.6,0,0.8,0.1c3.2,0.7,7.4,2.5,10.6,3.1c2.2,0.5,4.6,0.7,6.1,0.7c0.3,0,0.6,0,0.8,0
					c0.1,0,0.1,0,0.1,0.1c0,0.7-1.2,2.7-2,3.4c-0.1,0.1-0.5,0.1-1,0.1c-0.9,0-2.9-0.1-3.4-0.1c-1.6,0-2.9,0.1-4,0.5
					c-0.8,0.3-2.1,0.8-4.1,1.7c-3,1.5-5.1,2.5-6.4,3c-1.3,0.5-2.8,0.8-4.4,0.9H121c-1.3,0-2-0.7-2-2.1c0-1.3,0.7-1.9,2-1.9h0.5
					c2.4,0,4.5-0.2,6.2-0.8c1.7-0.5,4.1-1.3,7.1-2.6C131.3,24.2,128.3,23.2,126.5,23.2z"/>
				<path d="M165.3,28c0.4,0.3,1,0.6,1.7,0.6h0.4c1.1,0,1.7,0.7,1.7,2c0,1.4-0.6,2.1-1.7,2.1h-0.5c-1,0-1.8-0.2-2.6-0.7
					c-1.4-0.8-2.1-2.3-2.5-5.4c-0.3-2.1-0.5-4.2-0.6-5.2c0-0.4-0.1-0.7-0.2-0.7c0,0-0.1,0.2-0.1,0.6c-0.4,4.6-1.1,7.3-3.6,10.8
					c-0.8,1-2.2,1.6-3.9,2c-1.5,0.3-4.2,0.7-5.9,0.7c-0.6,0-0.9,0-0.9-0.2c0-0.2,0.6-0.6,1.9-1.2c2.9-1.5,8-5.3,9.6-8.3
					c0-2-1.3-4.2-1.9-5.2c-1.9-3.4-4.9-6.1-7.2-7.1c-0.3,0.4-0.8,0.9-1.4,0.9c-1,0-2.7-0.8-4.3-2.8c-0.4-0.5-0.6-1.6-0.6-2.7
					c0-1.3,0.3-2.5,0.9-2.5c0.5,0,1.6,0.3,2.3,0.7c4.2,1.8,10.2,6.6,12,12.2c0.5,1.6,0.9,3.4,0.9,5c1-2.5,1.3-5.3,1.3-8
					c0-3.2-0.4-6.3-0.4-8.5c0.3-1.1,1.4-3.8,2-3.8c0.3,0,0.3,1.1,0.4,1.2c0.1,1.1,0.2,3,0.4,5c0.2,2.1,0.4,8.2,0.9,12.7
					C163.6,25.7,163.9,26.9,165.3,28z"/>
				<path d="M179.5,7.2c0,0.9-0.2,1.8-0.5,2.6c0.4,0.2,0.6,0.5,0.6,0.7c0,0.7-0.3,1.3-0.6,1.8c-0.1,0.1-0.1,0.1-0.2,0.1l-0.9-0.6
					c-0.9,1.4-2.3,3.1-4.4,4.1c-0.8,0.4-1.7,0.7-2.6,0.7c-0.5,0-0.7-0.1-0.7-0.2c0-0.2,0.4-0.3,1-0.7c1.5-0.9,4.5-3.1,5.5-4.5
					c-0.8-0.6-1.9-1.3-1.9-2.4c0-0.8,0.4-1.5,1.1-2.3c0.7-1,1.5-1.4,2.2-1.4C179.1,4.9,179.4,6.2,179.5,7.2z M176.2,8
					c0,0,0,0.1,0,0.1c0,0.2,0.8,0.8,1.4,1c0.2-0.3,0.2-0.6,0.2-1.2c0-0.5-0.2-0.8-0.6-0.8C176.9,7.2,176.5,7.5,176.2,8z"/>
				<path d="M167.2,32.6H167c-1.2,0-1.8-0.7-1.8-2.1c0.1-1.3,0.7-2,1.8-2h0.1c2.2,0,4-0.9,5.3-2.6l2.2-3.5c1.3-2,3-2.7,3.9-2.7
					c3,0,4.2,5.2,4.2,7.3c0,1.9-1.9,4.3-2.9,4.3c-1.3,0-5-1.7-6.8-3.4C171.4,31.2,169.5,32.6,167.2,32.6z M176.7,23.4
					c-0.3,0-0.6,0.1-0.9,0.6c-0.2,0.2-0.3,0.5-0.5,0.9c0.8,0.5,3.4,1.9,4.4,2.5C179.6,25.8,177.9,23.4,176.7,23.4z"/>
			</g>
			<g>
				<g>
					<path class="st1" d="M55.7,28.4c-2.6-1-3.9-2.5-3.9-5.6c0-2.1,1-4.4,1.5-5.3c0.4-0.6,0.8-1.1,1.1-1.1c0.1,0,0.2,0.1,0.2,0.3
						c0,0.2-0.1,0.7-0.3,1.1c-0.4,0.9-0.7,1.8-0.7,2.8c0,0.9,0.7,2.5,3.2,3.7c1.7,0.8,4.5,1.2,8.2,1.2c8.5,0,17.7-2.5,17.9-3.5
						c0-0.2,0.1-0.5,0.1-0.7c0-1.8-1.5-3.7-2-4.6c0,0,0,0,0-0.1c0-0.6,1.2-3.4,1.8-3.4c0.5,0,2.2,2.9,2.2,6.2c0,2.8-0.9,4.9-1.5,5.8
						c-1.1,1.5-10.5,4.5-18.9,4.5C60.9,29.7,57.7,29.2,55.7,28.4z M70.7,8.7c0.3-0.3,0.4-0.4,0.6-0.2c0.9,0.9,1.8,1.9,2.8,2.5
						c0.3,0.2,0.3,0.3,0,0.6c-0.8,0.9-1.6,1.8-2.4,2.7c-0.2,0.2-0.3,0.2-0.5,0c-0.7-0.5-1.7-1.3-2.6-2.2c-0.5,0.6-1.6,1.8-2,2.1
						c-0.2,0.1-0.3,0.3-0.7,0.1c-0.9-0.6-2.1-1.5-2.8-2.5c-0.2-0.2-0.2-0.3,0-0.6c0.7-0.8,1.6-1.9,2.5-2.7c0.2-0.2,0.3-0.2,0.6,0.1
						c0.7,0.7,1.9,1.8,2.6,2.2C69.3,10.3,70.3,9.1,70.7,8.7z"/>
					<path class="st1" d="M96.1,29.6c-1.2,0-2.2-0.2-3-0.9c-1.3-1-2-3-2.3-5.5c-0.3-1.9-0.4-4.2-0.5-6.6c-0.1-3.6-0.4-9.1-0.9-12.3
						c0-0.1,0-0.3,0-0.4c0-0.2,0-0.3,0.3-0.7c0.6-0.8,0.9-1.4,1.3-2.1c0.3-0.5,0.4-0.6,0.5-0.6c0.2,0,0.3,0.3,0.5,1.2
						c0.8,6.3,0.1,15,1.1,19.8c0.2,1.2,0.4,1.6,0.7,2.4c0.5,1.1,1.3,1.6,2.6,1.7c1.4,0,2.1,0.7,2.1,2c0,1.6-0.8,2.1-1.9,2.1H96.1z"
						/>
					<path class="st1" d="M103.2,17.1c0,1.6-0.2,3.1-0.6,4.2c3.8-3.1,7-4.9,8.8-4.9c1,0,2.2,0.2,3.3,0.7c1.5,0.7,2.1,1.4,2.1,2.8
						c0,2.1-1.5,5.3-3.1,6.3c1.5-0.4,3-0.6,4.4-0.6h0.5c1.2,0,1.8,0.7,1.8,2c0,1.4-0.6,2.1-1.8,2.1h-0.7c-7.9,0.3-11.6,0.3-13.1,0.3
						c-2.1,0-4.7-0.1-8.2-0.3h-0.5c-1.2,0-1.9-0.7-1.9-2.1c0-1.3,0.6-2,1.9-2h2c0.8-0.7,2.1-2,3.3-3.2c0-0.7,0-1.5,0-2.1
						c0-5.1-0.9-9.8-1.3-12.6c-0.1-0.7-0.6-2.3-0.7-3.1c0-0.1-0.1-0.3-0.1-0.5c0-0.3,0.4-1.1,0.7-1.8c0.4-0.9,1-1.9,1.3-1.9
						c0.1,0,0.2,0.1,0.3,0.4c0.5,1.7,1,2.6,1.4,3.2c0.1,0.1,0.1,0.3,0.1,0.4c0,0.1,0,0.2-0.1,0.4c-0.1,0.4-0.7,1.5-1,1.9
						C102.6,10.4,103.2,14,103.2,17.1z M109.6,20c-3.4,0-6.6,2.6-9.7,5.6c6.1-0.4,12-1.5,14.4-3.2C113.4,21,111.4,20,109.6,20z
						 M114.1,8.1c0.2,0.1,0.1,0.2,0,0.3c-0.4,0.6-1.9,2.2-2.5,3c-0.1,0.2-0.2,0.2-0.4,0c-0.8-0.5-2.6-1.9-3.1-2.6
						c-0.1-0.2-0.1-0.2,0-0.4c0.6-0.9,1.6-2.1,2.3-2.8c0.3-0.3,0.4-0.4,0.5-0.2C111.6,6.2,112.9,7.3,114.1,8.1z"/>
					<path class="st1" d="M131.6,5.7c0.2-0.1,0.2-0.1,0.2,0.1c0,1-0.4,2-0.9,2.3l-7.4,4.1c-0.1,0.1-0.2,0-0.2-0.1
						c0-0.5,0.2-1.4,0.4-1.8c0.2-0.3,0.5-0.6,1.2-1L131.6,5.7z"/>
					<path class="st1" d="M123.5,20.2c-0.4,0-0.8,0-1.1,0.2c-0.3,0.1-1,0.5-1.4,0.5c-0.3,0-0.3-0.2-0.3-0.4c0-0.8,1.1-2.3,2.1-3.2
						c0.9-0.8,1.7-1,2.5-1c0.3,0,0.6,0,0.8,0.1c3.2,0.7,7.4,2.5,10.6,3.1c2.2,0.5,4.6,0.7,6.1,0.7c0.3,0,0.6,0,0.8,0
						c0.1,0,0.1,0,0.1,0.1c0,0.7-1.2,2.7-2,3.4c-0.1,0.1-0.5,0.1-1,0.1c-0.9,0-2.9-0.1-3.4-0.1c-1.6,0-2.9,0.1-4,0.5
						c-0.8,0.3-2.1,0.8-4.1,1.7c-3,1.5-5.1,2.5-6.4,3c-1.3,0.5-2.8,0.8-4.4,0.9H118c-1.3,0-2-0.7-2-2.1c0-1.3,0.7-1.9,2-1.9h0.5
						c2.4,0,4.5-0.2,6.2-0.8c1.7-0.5,4.1-1.3,7.1-2.6C128.3,21.2,125.3,20.2,123.5,20.2z"/>
					<path class="st1" d="M162.3,25c0.4,0.3,1,0.6,1.7,0.6h0.4c1.1,0,1.7,0.7,1.7,2c0,1.4-0.6,2.1-1.7,2.1h-0.5
						c-1,0-1.8-0.2-2.6-0.7c-1.4-0.8-2.1-2.3-2.5-5.4c-0.3-2.1-0.5-4.2-0.6-5.2c0-0.4-0.1-0.7-0.2-0.7c0,0-0.1,0.2-0.1,0.6
						c-0.4,4.6-1.1,7.3-3.6,10.8c-0.8,1-2.2,1.6-3.9,2c-1.5,0.3-4.2,0.7-5.9,0.7c-0.6,0-0.9,0-0.9-0.2c0-0.2,0.6-0.6,1.9-1.2
						c2.9-1.5,8-5.3,9.6-8.3c0-2-1.3-4.2-1.9-5.2c-1.9-3.4-4.9-6.1-7.2-7.1c-0.3,0.4-0.8,0.9-1.4,0.9c-1,0-2.7-0.8-4.3-2.8
						c-0.4-0.5-0.6-1.6-0.6-2.7c0-1.3,0.3-2.5,0.9-2.5c0.5,0,1.6,0.3,2.3,0.7c4.2,1.8,10.2,6.6,12,12.2c0.5,1.6,0.9,3.4,0.9,5
						c1-2.5,1.3-5.3,1.3-8c0-3.2-0.4-6.3-0.4-8.5c0.3-1.1,1.4-3.8,2-3.8c0.3,0,0.3,1.1,0.4,1.2c0.1,1.1,0.2,3,0.4,5
						c0.2,2.1,0.4,8.2,0.9,12.7C160.6,22.7,160.9,23.9,162.3,25z"/>
					<path class="st1" d="M176.5,4.2c0,0.9-0.2,1.8-0.5,2.6c0.4,0.2,0.6,0.5,0.6,0.7c0,0.7-0.3,1.3-0.6,1.8
						c-0.1,0.1-0.1,0.1-0.2,0.1l-0.9-0.6c-0.9,1.4-2.3,3.1-4.4,4.1c-0.8,0.4-1.7,0.7-2.6,0.7c-0.5,0-0.7-0.1-0.7-0.2
						c0-0.2,0.4-0.3,1-0.7c1.5-0.9,4.5-3.1,5.5-4.5c-0.8-0.6-1.9-1.3-1.9-2.4c0-0.8,0.4-1.5,1.1-2.3c0.7-1,1.5-1.4,2.2-1.4
						C176.1,1.9,176.4,3.2,176.5,4.2z M173.2,5c0,0,0,0.1,0,0.1c0,0.2,0.8,0.8,1.4,1c0.2-0.3,0.2-0.6,0.2-1.2c0-0.5-0.2-0.8-0.6-0.8
						C173.9,4.2,173.5,4.5,173.2,5z"/>
					<path class="st1" d="M164.2,29.6H164c-1.2,0-1.8-0.7-1.8-2.1c0.1-1.3,0.7-2,1.8-2h0.1c2.2,0,4-0.9,5.3-2.6l2.2-3.5
						c1.3-2,3-2.7,3.9-2.7c3,0,4.2,5.2,4.2,7.3c0,1.9-1.9,4.3-2.9,4.3c-1.3,0-5-1.7-6.8-3.4C168.4,28.2,166.5,29.6,164.2,29.6z
						 M173.7,20.4c-0.3,0-0.6,0.1-0.9,0.6c-0.2,0.2-0.3,0.5-0.5,0.9c0.8,0.5,3.4,1.9,4.4,2.5C176.6,22.8,174.9,20.4,173.7,20.4z"/>
				</g>
			</g>
		</g>
	</g>
	<g>
		<g>
			<g>
				<g>
					<path class="st2" d="M8.7,19.3c0,0,1.5-3,4.6-1.4c-1.3-2.1-0.6-4.8,0-5.6c1,3.4,2.8,6.3,6.9,7h2.4l-1,0c3,0,5.8-2.2,5.8-6
						c0-3.8-2.3-5-3.6-5.1c-0.6,0-1.2,0.1-1.7,0.3c-1.3,0.3-2.2,1.5-2.2,2.8c0,1.6,1.4,2.9,3.1,2.9c0.6,0,1.2-0.2,1.7-0.5
						c-0.1,1.6-1.4,3-3.4,3c-2.5,0-5.5-2.5-4.3-7.5c-1.1-0.9-4.6-1.2-5.4,1.8c0,0,0,0,0,0c-0.3-0.2-0.6-0.3-1-0.3
						c-1.1,0-2.1,1.2-2.1,2.6c0,0.8,0.3,1.4,0.7,1.9c-5-0.9-9.1,4.2-9.1,4.2s0,0,0,0H8.7z M21.5,19.5l1,0h-2.4c-4,0.7-5.9,3.6-6.9,7
						c-0.6-0.8-1.3-3.5,0-5.6c-3.1,1.6-4.6-1.4-4.6-1.4H0c0,0,0,0,0,0s4,5,9,4.2c-0.4,0.5-0.6,1.1-0.6,1.8c0,1.4,0.9,2.6,2.1,2.6
						c0.4,0,0.7-0.1,1-0.4c0,0.1,0,0.1,0,0.1c0.8,3,4.2,2.8,5.4,1.8c-1.2-5,1.8-7.5,4.3-7.5c2,0,3.3,1.4,3.4,3
						c-0.5-0.3-1.1-0.5-1.7-0.5c-1.7,0-3.1,1.3-3.1,2.9c0,1.3,1,2.4,2.2,2.8c0.5,0.2,1.1,0.3,1.7,0.3c1.3-0.1,3.6-1.3,3.6-5.1
						C27.4,21.7,24.6,19.5,21.5,19.5z"/>
				</g>
			</g>
			<path class="st3" d="M11.7,21.9c0,0-0.1,2.2-0.2,2.7c0,0.8-0.6,1.3-1.2,1.3c-0.7,0-1.1-0.7-1.1-1.4c0-0.5,0.2-0.9,0.6-1.1
				C9.9,23.3,10.8,22.5,11.7,21.9z"/>
			<path class="st3" d="M11.4,22.3c0,0-0.1,1.3-0.1,1.5c0,0.4-0.3,0.8-0.7,0.7c-0.4,0-0.6-0.4-0.6-0.8c0-0.3,0.1-0.5,0.3-0.6
				C10.4,23.1,10.9,22.6,11.4,22.3z"/>
			<g>
				<g class="st4">
					<path class="st5" d="M10.1,15.7c-1.1-0.5-2.5-1.2-5.8,0.1c-1.1,0.5-2.3,1.4-2.9,2.1c-1,1,0.3,1.7,2.5,1.7
						c2.2,0,2.6-0.6,3.9-1.9C9.2,16.2,10.9,16.1,10.1,15.7z"/>
				</g>
			</g>
			<g class="st4">
				<g>
					<path class="st5" d="M24.7,8.6c-0.4-0.3-0.9-0.4-1.5-0.4c-0.1,0-0.2,0-0.2,0c0,0,0,0,0,0c0,0,0,0,0,0c-0.1,0-0.2,0-0.3,0
						c-0.1,0-0.3,0-0.4,0c0,0,0,0,0,0.1c-1,0.3-1.8,1-1.7,1.8c0,1,1.2,1.7,2.6,1.6c0.9,0,1.7-0.4,2.1-0.9c0.2,0.5,0.4,1.2,0.4,1.8
						c0.1,2.1-1.5,4.2-4,4.2c-1.7,0-2.6-0.1-3.9-1.2c-1.3-1.1-0.3,2.4,4.1,2.4c3.2,0,5.3-2.9,5.3-5.1C27.1,11.1,26.2,9.4,24.7,8.6z"
						/>
				</g>
			</g>
			<g>
				
					<ellipse transform="matrix(0.9999 -1.343745e-002 1.343745e-002 0.9999 -0.1231 0.3102)" class="st5" cx="23" cy="9.3" rx="1.8" ry="1.2"/>
			</g>
			
				<ellipse transform="matrix(0.9999 -1.348701e-002 1.348701e-002 0.9999 -0.1147 0.3096)" class="st1" cx="22.9" cy="8.7" rx="1" ry="0.5"/>
			<g>
				<path class="st5" d="M4.7,15.5c-1.2,0.4-2,1.2-1.8,1.8c0.2,0.6,1.4,0.7,2.6,0.3c1.2-0.4,2-1.2,1.8-1.8
					C7.1,15.3,5.9,15.1,4.7,15.5z"/>
			</g>
			<path class="st1" d="M4.9,16.5c0.7-0.2,1.1-0.6,1-0.9c-0.1-0.3-0.7-0.3-1.4-0.1c-0.7,0.2-1.1,0.6-1,0.9
				C3.7,16.7,4.3,16.7,4.9,16.5z"/>
			<g>
				<g class="st4">
					<path class="st5" d="M26.9,24.6c0-2.1-2.1-4.9-5.3-4.9c-4.1,0-5.6,2.2-4.2,2.2c1.3,0,1.3-0.9,3.7-0.9c2.3,0,4.5,2.1,4.4,4.1
						c0,0.3-0.1,0.6-0.1,0.8c-0.3-0.7-1.1-1.2-2.2-1.2c-1.3-0.1-2.4,0.6-2.5,1.5c0,0.8,0.7,1.4,1.7,1.7c0,0,0,0,0,0
						c0.1,0,0.3,0,0.4,0c0,0,0.1,0,0.1,0c0,0,0.1,0,0.1,0c0.2,0,0.4,0,0.6,0C25.8,27.8,26.9,26.5,26.9,24.6z"/>
				</g>
			</g>
			<g>
				
					<ellipse transform="matrix(0.9999 -1.344323e-002 1.344323e-002 0.9999 -0.3437 0.3118)" class="st5" cx="23" cy="25.7" rx="1.8" ry="1.2"/>
			</g>
			<g>
				<path class="st5" d="M21.5,19.7c-0.9,0-1.6,0.3-1.6,0.6c0,0.3,0.7,0.6,1.6,0.6c0.9,0,1.6-0.3,1.6-0.6
					C23.1,19.9,22.4,19.7,21.5,19.7z"/>
			</g>
			<path class="st1" d="M21.4,20.2c0.5,0,0.9-0.1,0.9-0.2c0-0.1-0.4-0.2-0.9-0.2c-0.5,0-0.9,0.1-0.9,0.3
				C20.5,20.1,20.9,20.2,21.4,20.2z"/>
			
				<ellipse transform="matrix(0.9999 -1.348834e-002 1.348834e-002 0.9999 -0.3361 0.3111)" class="st1" cx="22.9" cy="25.1" rx="1" ry="0.5"/>
			<path class="st3" d="M16.9,9.1c0,0-2-1.1-3.6-0.2c-1.6,0.8-1.4,1.6-1.4,2.1c0,0.6,0.3-0.4,1.6-0.3c0.6,0,0.9,1.9,1.8,1.9
				C16.6,12.4,15.1,10.8,16.9,9.1z"/>
			<g>
				<path class="st5" d="M14.5,8.6c-0.9,0-1.6,0.3-1.6,0.7c0,0.4,0.7,0.6,1.6,0.6c0.9,0,1.6-0.3,1.6-0.7C16.1,8.9,15.4,8.6,14.5,8.6
					z"/>
			</g>
			<path class="st1" d="M14.4,9.2c0.5,0,0.9-0.1,0.9-0.3c0-0.2-0.4-0.3-0.9-0.3c-0.5,0-0.9,0.1-0.9,0.3C13.5,9,13.9,9.2,14.4,9.2z"
				/>
			
				<ellipse transform="matrix(4.954097e-002 -0.9988 0.9988 4.954097e-002 -2.7278 21.8607)" class="st3" cx="10.1" cy="12.4" rx="1.8" ry="1.5"/>
			<g>
				<path class="st5" d="M10.1,10.6c-0.6,0-1,0.5-1,1.1c0,0.6,0.5,1.1,1.1,1c0.6,0,1-0.5,1-1.1C11.2,11.1,10.7,10.6,10.1,10.6z"/>
			</g>
			
				<ellipse transform="matrix(1 -9.739798e-003 9.739798e-003 1 -0.1067 9.873824e-002)" class="st1" cx="10.1" cy="11" rx="0.5" ry="0.4"/>
		</g>
		<g>
			<g>
				<g>
					<path class="st2" d="M210.2,19.2l-1,0h2.4c4-0.7,5.9-3.6,6.9-7c0.6,0.8,1.3,3.5,0,5.6c3.1-1.6,4.6,1.4,4.6,1.4h8.7c0,0,0,0,0,0
						s-4.1-5.1-9.1-4.2c0.4-0.5,0.7-1.1,0.7-1.9c0-1.4-0.9-2.6-2.1-2.6c-0.4,0-0.7,0.1-1,0.3c0,0,0,0,0,0c-0.8-3-4.2-2.8-5.4-1.8
						c1.2,5-1.8,7.5-4.3,7.5c-2,0-3.3-1.4-3.4-3c0.5,0.3,1.1,0.5,1.7,0.5c1.7,0,3.1-1.3,3.1-2.9c0-1.3-0.9-2.4-2.2-2.8
						c-0.5-0.2-1.1-0.3-1.7-0.3c-1.3,0.1-3.6,1.3-3.6,5.1C204.4,17,207.2,19.2,210.2,19.2z M223.1,19.5c0,0-1.5,3-4.6,1.4
						c1.3,2.1,0.6,4.8,0,5.6c-1-3.4-2.8-6.3-6.9-7h-2.4l1,0c-3,0-5.8,2.2-5.8,6c0,3.8,2.3,5,3.6,5.1c0.6,0,1.2-0.1,1.7-0.3
						c1.3-0.3,2.2-1.5,2.2-2.8c0-1.6-1.4-2.9-3.1-2.9c-0.6,0-1.2,0.2-1.7,0.5c0.1-1.6,1.4-3,3.4-3c2.5,0,5.5,2.5,4.3,7.5
						c1.1,0.9,4.6,1.2,5.4-1.8c0,0,0,0,0-0.1c0.3,0.2,0.7,0.4,1,0.4c1.1,0,2.1-1.2,2.1-2.6c0-0.7-0.2-1.3-0.6-1.8c5,0.8,9-4.2,9-4.2
						s0,0,0,0H223.1z"/>
				</g>
			</g>
			<path class="st3" d="M220.1,21.9c0,0,0.1,2.2,0.2,2.7c0,0.8,0.6,1.3,1.2,1.3c0.7,0,1.1-0.7,1.1-1.4c0-0.5-0.2-0.9-0.6-1.1
				C221.9,23.3,221,22.5,220.1,21.9z"/>
			<path class="st3" d="M220.4,22.3c0,0,0.1,1.3,0.1,1.5c0,0.4,0.3,0.8,0.7,0.7c0.4,0,0.6-0.4,0.6-0.8c0-0.3-0.1-0.5-0.3-0.6
				C221.4,23.1,220.9,22.6,220.4,22.3z"/>
			<g>
				<g class="st4">
					<path class="st5" d="M230.5,17.9c-0.7-0.7-1.8-1.6-2.9-2.1c-3.3-1.3-4.7-0.6-5.8-0.1c-0.8,0.4,0.9,0.5,2.4,2
						c1.3,1.3,1.8,1.9,3.9,1.9C230.1,19.6,231.4,18.8,230.5,17.9z"/>
				</g>
			</g>
			<g class="st4">
				<g>
					<path class="st5" d="M214.2,15.5c-1.3,1.1-2.2,1.2-3.9,1.2c-2.5,0-4.1-2.1-4-4.2c0-0.7,0.2-1.3,0.4-1.8
						c0.4,0.5,1.2,0.9,2.1,0.9c1.4,0.1,2.5-0.7,2.6-1.6c0-0.8-0.7-1.5-1.7-1.8c0,0,0,0,0-0.1c-0.1,0-0.3,0-0.4,0c-0.1,0-0.2,0-0.3,0
						c0,0,0,0,0,0c0,0,0,0,0,0c-0.1,0-0.2,0-0.2,0c-0.6,0-1.1,0.2-1.5,0.4c-1.5,0.8-2.3,2.5-2.3,4.1c0,2.2,2.1,5.1,5.3,5.1
						C214.5,17.9,215.5,14.4,214.2,15.5z"/>
				</g>
			</g>
			<g>
				
					<ellipse transform="matrix(1.339453e-002 -0.9999 0.9999 1.339453e-002 196.6689 217.9525)" class="st5" cx="208.8" cy="9.3" rx="1.2" ry="1.8"/>
			</g>
			
				<ellipse transform="matrix(1.348701e-002 -0.9999 0.9999 1.348701e-002 197.4281 217.4318)" class="st1" cx="208.9" cy="8.7" rx="0.5" ry="1"/>
			<g>
				<path class="st5" d="M227.1,15.5c1.2,0.4,2,1.2,1.8,1.8c-0.2,0.6-1.4,0.7-2.6,0.3c-1.2-0.4-2-1.2-1.8-1.8
					C224.7,15.3,225.9,15.1,227.1,15.5z"/>
			</g>
			<path class="st1" d="M226.9,16.5c-0.7-0.2-1.1-0.6-1-0.9c0.1-0.3,0.7-0.3,1.4-0.1c0.7,0.2,1.1,0.6,1,0.9
				C228.1,16.7,227.5,16.7,226.9,16.5z"/>
			<g>
				<g class="st4">
					<path class="st5" d="M210.2,19.7c-3.2,0-5.3,2.8-5.3,4.9c0,1.9,1.1,3.1,3.4,3.3c0.2,0,0.4,0,0.6,0c0,0,0.1,0,0.1,0
						c0,0,0.1,0,0.1,0c0.1,0,0.3,0,0.4,0c0,0,0,0,0,0c1-0.2,1.7-0.9,1.7-1.7c0-0.9-1.2-1.6-2.5-1.5c-1,0.1-1.9,0.6-2.2,1.2
						c0-0.2-0.1-0.5-0.1-0.8c-0.1-2,2.1-4.1,4.4-4.1c2.4,0,2.4,0.9,3.7,0.9C215.8,21.9,214.3,19.7,210.2,19.7z"/>
				</g>
			</g>
			<g>
				
					<ellipse transform="matrix(1.340028e-002 -0.9999 0.9999 1.340028e-002 180.2612 234.1405)" class="st5" cx="208.8" cy="25.7" rx="1.2" ry="1.8"/>
			</g>
			<g>
				<path class="st5" d="M210.3,19.7c0.9,0,1.6,0.3,1.6,0.6c0,0.3-0.7,0.6-1.6,0.6c-0.9,0-1.6-0.3-1.6-0.6
					C208.7,19.9,209.4,19.7,210.3,19.7z"/>
			</g>
			<path class="st1" d="M210.4,20.2c-0.5,0-0.9-0.1-0.9-0.2c0-0.1,0.4-0.2,0.9-0.2c0.5,0,0.9,0.1,0.9,0.3
				C211.3,20.1,210.9,20.2,210.4,20.2z"/>
			
				<ellipse transform="matrix(1.348834e-002 -0.9999 0.9999 1.348834e-002 181.0221 233.6177)" class="st1" cx="208.9" cy="25.1" rx="0.5" ry="1"/>
			<path class="st3" d="M214.9,9.1c0,0,2-1.1,3.6-0.2c1.6,0.8,1.4,1.6,1.4,2.1c0,0.6-0.3-0.4-1.6-0.3c-0.6,0-0.9,1.9-1.8,1.9
				C215.2,12.4,216.7,10.8,214.9,9.1z"/>
			<g>
				<path class="st5" d="M217.3,8.6c0.9,0,1.6,0.3,1.6,0.7c0,0.4-0.7,0.6-1.6,0.6c-0.9,0-1.6-0.3-1.6-0.7
					C215.7,8.9,216.4,8.6,217.3,8.6z"/>
			</g>
			<path class="st1" d="M217.4,9.2c-0.5,0-0.9-0.1-0.9-0.3c0-0.2,0.4-0.3,0.9-0.3c0.5,0,0.9,0.1,0.9,0.3
				C218.3,9,217.9,9.2,217.4,9.2z"/>
			
				<ellipse transform="matrix(0.9987 -5.010963e-002 5.010963e-002 0.9987 -0.341 11.1237)" class="st3" cx="221.7" cy="12.4" rx="1.5" ry="1.8"/>
			<g>
				<path class="st5" d="M221.7,10.6c0.6,0,1,0.5,1,1.1c0,0.6-0.5,1.1-1.1,1c-0.6,0-1-0.5-1-1.1C220.6,11.1,221.1,10.6,221.7,10.6z"
					/>
			</g>
			
				<ellipse transform="matrix(7.367433e-003 -1 1 7.367433e-003 209.0746 232.6349)" class="st1" cx="221.7" cy="11" rx="0.4" ry="0.5"/>
		</g>
	</g>
</g>
</svg>
