<?xml version="1.0" encoding="utf-8"?>
<!-- Generator: Adobe Illustrator 22.0.1, SVG Export Plug-In . SVG Version: 6.00 Build 0)  -->
<svg version="1.1" id="Layer_1" xmlns="http://www.w3.org/2000/svg" xmlns:xlink="http://www.w3.org/1999/xlink" x="0px" y="0px"
	 viewBox="0 0 119.8 89.1" style="enable-background:new 0 0 119.8 89.1;" xml:space="preserve">
<style type="text/css">
	.st0{fill:#235958;}
	.st1{fill:#EF5316;}
</style>
<g>
	<path class="st0" d="M49.4,50.9c0,1.3-0.3,3.2-1,5.7c-0.6,2.7-1.3,4.5-1.9,5.4c-1.7,2.5-6,4.5-13.1,6.1C27.7,69.4,22.7,70,18.2,70
		c-4.8,0-8.7-0.8-11.9-2.3c-4.2-2-6.3-5.1-6.3-9.3c0-1.9,0.5-3.9,1.4-5.8c0.5-1,1.5-2.7,3.1-5.1l0.8,0.6c-1,1.9-1.5,3.7-1.5,5.5
		c0,5,5.1,7.5,15.2,7.5c6.6,0,12.6-0.6,17.9-1.9c6.3-1.5,9.5-3.2,9.5-5.2c0-0.5-0.5-1.3-1.4-2.3c-0.6-0.7-1.3-1.4-1.8-2.2
		c1.3-3.3,2.2-6.1,2.8-8.4C48.2,44.2,49.4,47.5,49.4,50.9z M30.9,77.6l-3,4.9L23,78.8l3-5L30.9,77.6z"/>
	<path class="st0" d="M62.8,58.6c0,2.9-0.6,5.9-1.8,9h-1.4c0-4.6-0.5-9.5-1.4-14.7c-1.5-8.5-2.3-13.3-2.3-14.6
		c0-1.4,0.5-2.8,1.4-4.1c0.4-0.6,1.3-1.7,2.9-3.5c0,3.1,0.4,7.7,1.3,13.9C62.4,50.8,62.8,55.5,62.8,58.6z"/>
	<path class="st0" d="M92.2,69.2h-3.9c-0.7,5-1.9,9.2-3.6,12.6C82.2,86.6,79,89,74.9,89c-2.9,0-6.5-1.4-10.7-4.3l0.6-1
		c1.7,0.3,2.9,0.5,3.7,0.5c2.8,0,5.8-1.2,8.8-3.5c1.3-1,2.8-2.8,4.6-5.6c1.3-2.1,2.6-4.3,3.9-6.4c-2.4-0.8-4.1-2.8-5.3-5.9l4.5-6.6
		c1.5,3,3.2,4.5,5.1,4.5h2.1L92.2,69.2L92.2,69.2z"/>
	<path class="st1" d="M103.1,17.1l-0.3,3.7c-0.6-0.4-1.6-1-3-1.9c-2.9,3.6-5.4,5.4-7.5,5.4c-0.5,0-1.2-0.1-2.3-0.4
		c2.4-1.3,5-3.2,8-5.9c-1.6-1.3-2.3-2.4-2.3-3.5c0-1.3,0.5-2.7,1.4-4.2c0.9-1.5,2-2.3,3.2-2.3c1.6,0,2.4,1.1,2.4,3.3
		c0,1.6-0.4,3.1-1.1,4.5C102.1,16.4,102.6,16.8,103.1,17.1z M100.4,13.7c0-0.5-0.2-1-0.6-1.6c-0.4-0.6-0.8-0.8-1.3-0.8
		s-0.8,0.3-0.8,1c0,0.5,0.9,1.3,2.6,2.6C100.3,14.3,100.4,13.9,100.4,13.7z"/>
	<path class="st1" d="M119.8,51.7c-0.4,4.2-1.1,6.7-2.1,7.6c-0.8,0.8-4.7,2.6-11.7,5.5c-7,2.9-11,4.4-12.1,4.4h-2.7v-8.4h2.9
		c1.7,0,3-0.5,3.9-1.4c-2.5-2-3.7-3.7-3.7-4.9c0-2.5,1.5-5.6,4.5-9.3s5.7-5.6,8.2-5.6c2.6,0,5.5,2.7,8.8,8c-2-0.8-3.7-1.2-5.1-1.2
		c-2,0-4.1,0.2-6.3,0.7c-3.2,0.8-4.7,1.8-4.7,3.1c0,1,1,2.2,3.1,3.5c2,1.3,3.6,2,4.8,2C109.9,55.8,114,54.4,119.8,51.7z M106.9,31.9
		l-2.8,5l-4.9-3.6l3-5.1L106.9,31.9z"/>
</g>
</svg>
