<?xml version="1.0" encoding="utf-8"?>
<!-- Generator: Adobe Illustrator 22.0.1, SVG Export Plug-In . SVG Version: 6.00 Build 0)  -->
<svg version="1.1" id="Layer_1" xmlns="http://www.w3.org/2000/svg" xmlns:xlink="http://www.w3.org/1999/xlink" x="0px" y="0px"
	 viewBox="0 0 86.2 86.2" style="enable-background:new 0 0 86.2 86.2;" xml:space="preserve">
<style type="text/css">
	.st0{fill:#235958;}
</style>
<path class="st0" d="M34.9,42.5c2.8,2.7,4.7,4.3,5.5,4.8c2.1,1.5,4.4,2.2,6.8,2.2h4.4h1.9h12.6v-8.4H53.5h-1.9h-0.3
	c-6.1,0-10.1-0.4-12-1.2c1.5-0.9,2.5-1.6,3.1-2.3c0.8-0.9,1.1-2,1.1-3.5c0-2.3-0.8-4-2.4-5.4c-1.6-1.3-3.5-2-5.8-2
	c-3.1,0-5.5,0.7-7,2.1c-1.6,1.4-2.7,3.6-3.4,6.7c1.7,0.2,2.9,0.5,3.8,1s1.9,1.5,3,2.9c-4.2,3.5-7.1,6.3-8.6,8.5
	c-2.3,3.3-3.4,7.1-3.4,11.5c0,6.5,2.3,11.3,7,14.5c4,2.8,9.4,4.2,16.2,4.2l14.8-7.5l-0.1-1c-3,0.3-5.9,0.5-8.5,0.5
	c-6.6,0-12.1-0.9-16.5-2.6c-6.3-2.5-9.4-6.6-9.4-12.2c0-3,1.3-5.7,3.8-8.2C29,45.3,31.7,43.7,34.9,42.5z"/>
</svg>
