<?xml version="1.0" encoding="utf-8"?>
<!-- Generator: Adobe Illustrator 19.2.0, SVG Export Plug-In . SVG Version: 6.00 Build 0)  -->
<svg version="1.1" id="Layer_1" xmlns="http://www.w3.org/2000/svg" xmlns:xlink="http://www.w3.org/1999/xlink" x="0px" y="0px"
	 viewBox="0 0 218.5 44.9" style="enable-background:new 0 0 218.5 44.9;" xml:space="preserve">
<style type="text/css">
	.st0{fill:#BA0017;}
	.st1{fill:none;}
</style>
<g>
	<g>
		<g>
			<g>
				<path d="M63.6,19.6c0,0.3-0.1,0.6-0.3,0.8c-0.2,0.3-0.5,0.4-0.8,0.4c-0.3,0-0.5-0.1-0.6-0.2c-0.2-0.2-0.3-0.4-0.3-0.6
					c0-0.3,0.1-0.6,0.4-0.7c0.3-0.2,0.4-0.3,0.4-0.4c0-0.2-0.1-0.3-0.2-0.4c-0.2-0.1-0.4-0.2-0.6-0.2c-0.3,0-0.6,0.1-0.8,0.3
					c-0.2,0.2-0.3,0.4-0.3,0.7c0,0.2,0.1,0.5,0.3,0.9c0.3,0.6,0.5,0.9,0.6,1.1c0.2,0.5,0.3,1.1,0.3,1.7c0,0.3,0,0.7-0.1,1.1l-0.5,0
					c0-0.1,0-0.2,0-0.2l0-0.4c0-0.3-0.2-0.6-0.6-0.9c-0.6-0.5-1-0.9-1-0.9c-0.4-0.4-0.6-0.9-0.6-1.5c0-0.7,0.2-1.2,0.7-1.6
					c0.5-0.4,1-0.7,1.7-0.7c0.6,0,1.1,0.2,1.5,0.5C63.4,18.6,63.6,19,63.6,19.6z M62.2,25.5c0,0.3-0.1,0.5-0.3,0.6
					c-0.2,0.2-0.4,0.3-0.7,0.3c-0.2,0-0.5-0.1-0.6-0.3c-0.2-0.2-0.3-0.4-0.3-0.6c0-0.3,0.1-0.5,0.3-0.6s0.4-0.3,0.7-0.3
					c0.3,0,0.5,0.1,0.7,0.3C62.1,25,62.2,25.2,62.2,25.5z"/>
				<path d="M73.8,14.6c0,0.2-0.1,0.4-0.4,0.7c-0.5,0.2-1.2,0.5-2.2,0.9c0-0.2,0.1-0.4,0.3-0.6C72,15.4,72.7,15.1,73.8,14.6z"/>
				<path d="M79.4,26.3h-7.2c-1,0-1.7-0.2-2.3-0.5c-0.7-0.4-1.1-1.1-1.1-1.9c0-0.5,0.1-0.9,0.3-1.4c0.1-0.2,0.3-0.5,0.5-1l0.2,0.1
					c-0.1,0.2-0.2,0.5-0.3,0.7c-0.1,0.3-0.2,0.7-0.2,0.9c0,0.6,0.3,1,0.9,1.3c0.6,0.3,1.3,0.4,2.1,0.4h6.4v-0.2c0-0.5-0.1-1-0.2-1.3
					c-0.1-0.3-0.4-0.6-0.7-0.9l0.6-1.2c0.2,0.3,0.4,0.4,0.4,0.5c0.3,0.5,0.5,1.3,0.5,2.4V26.3z M74.1,20.3l-0.6,1.1l-1.2-0.6
					l0.6-1.1L74.1,20.3z M74.4,18.3l-0.6,1.1l-1.2-0.6l0.6-1.1L74.4,18.3z M75.9,19.6l-0.6,1.1L74.1,20l0.6-1.1L75.9,19.6z"/>
				<path d="M84.1,16.8c0,0.2-0.1,0.4-0.4,0.7c-0.5,0.2-1.2,0.5-2.2,0.9c0-0.2,0.1-0.4,0.3-0.6C82.3,17.6,83,17.3,84.1,16.8z"/>
				<path d="M84.7,26.3h-3.4c-0.3,0-0.5-0.1-0.8-0.2c-0.2-0.2-0.3-0.4-0.3-0.6c0-0.2,0-0.4,0-0.5c0-0.2,0.1-0.3,0.1-0.5h0.2
					c0.1,0.2,0.2,0.3,0.3,0.4c0.1,0.1,0.3,0.1,0.5,0.1h2.9c0-0.9-0.1-1.6-0.4-2.1c-0.3-0.7-0.8-1.1-1.6-1.3l0.1-1.4
					c0.9,0.4,1.5,1.1,1.9,2c0.3,0.7,0.4,1.7,0.4,2.9V26.3z"/>
				<path d="M89.7,17.6c0,0.2-0.1,0.4-0.4,0.7c-0.5,0.2-1.2,0.5-2.2,0.9c0-0.2,0.1-0.4,0.3-0.6C87.9,18.3,88.7,18,89.7,17.6z"/>
				<path d="M92.9,26.3h-8.7V25h6.2c-0.5-0.4-0.9-0.7-1.3-0.9c-0.4-0.3-0.8-0.5-1.2-0.6c-0.4-0.1-0.8-0.2-1.2-0.2
					c-0.3,0-0.5,0-0.8,0.1c0.1-0.4,0.3-0.7,0.6-0.9c0.3-0.3,0.8-0.5,1.3-0.5c0.5,0,1.1,0.2,1.8,0.7c0.3,0.2,0.9,0.7,1.7,1.4
					c0.6,0.5,1,0.8,1.2,0.9h0.5V26.3z"/>
				<path d="M100.8,26.3h-1.1c-0.3,0-0.6-0.1-0.8-0.4c-0.2-0.2-0.3-0.6-0.4-1c-0.1-0.5-0.2-1-0.2-1.7c0-0.6-0.1-1.1-0.1-1.7
					s-0.1-1-0.1-1.3c-0.1-0.3-0.1-0.5-0.2-0.7c-0.1-0.2-0.3-0.4-0.5-0.6l0.9-1.4c0.2,0.6,0.3,1.3,0.4,2.1c0,0.5,0.1,1.7,0.2,3.6
					c0.1,0.9,0.2,1.4,0.4,1.7c0.1,0.2,0.3,0.3,0.5,0.3h1.1V26.3z"/>
				<path d="M106.9,26.3h-0.8c-0.3,0-0.7-0.1-1.1-0.2c-0.5-0.2-0.9-0.4-1.3-0.7c-0.3,0.3-0.6,0.6-0.9,0.7c-0.3,0.1-0.8,0.2-1.3,0.2
					h-1.2V25h1.2c0.5,0,0.9-0.1,1.2-0.3c0.3-0.2,0.5-0.4,0.8-0.7c0.3-0.4,0.7-0.8,1.1-1.1c0.4-0.3,0.8-0.5,1.1-0.5
					c0.3,0.5,0.6,1,0.8,1.4c0.3,0.6,0.4,1,0.4,1.4V26.3z M106,24.8c-0.1-0.3-0.2-0.6-0.3-0.8c-0.1-0.2-0.3-0.5-0.5-0.7
					c-0.2,0.1-0.4,0.2-0.6,0.3c-0.1,0.1-0.2,0.3-0.4,0.5c0.2,0.2,0.4,0.4,0.8,0.5C105.3,24.8,105.6,24.9,106,24.8L106,24.8z"/>
				<path class="st0" d="M120.3,26.3H119c-0.8,0-1.4,0-1.8,0.1c-0.4,0-0.6,0.1-0.6,0.2c0,0.2,0.2,0.2,0.7,0.2c0.2,0,0.4,0,0.5,0
					s0.4,0,0.8,0.1c0.2,0,0.4,0.1,0.5,0.1c0.1,0.1,0.2,0.2,0.2,0.4c0,0.9-0.3,1.6-0.9,2c-0.7,0.5-1.8,0.7-3.4,0.7
					c-1.1,0-1.9-0.2-2.6-0.5c-0.7-0.4-1-0.9-1-1.6c0-0.6,0.2-1.2,0.5-1.8c0.1-0.2,0.4-0.7,0.9-1.5l0.3,0.1c-0.2,0.3-0.4,0.6-0.6,0.9
					c-0.3,0.5-0.4,1-0.4,1.3c0,0.6,0.3,1.1,1,1.4c0.6,0.3,1.5,0.4,2.5,0.4c0.7,0,1.4-0.1,1.9-0.2c0.7-0.1,1-0.3,1-0.5
					c0-0.1,0-0.1-0.1-0.2c-0.1,0-0.2-0.1-0.4-0.1c-0.1,0-0.3,0-0.6,0c-0.3,0-0.5,0-0.6,0c-0.3,0-0.5,0-0.7-0.1
					c-0.1-0.1-0.2-0.2-0.2-0.4c0-0.6,0.2-1.1,0.6-1.5c0.3-0.3,0.7-0.5,1.2-0.7c0.4-0.1,0.8-0.2,1.2-0.2h1.3V26.3z"/>
				<path class="st0" d="M128.5,26.3H128c-0.3,0-0.6,0-0.8-0.1c-0.2-0.1-0.4-0.2-0.6-0.4c-0.2,0.2-0.4,0.3-0.6,0.4
					c-0.3,0.1-0.6,0.1-1.1,0.1h-0.5c-0.3,0-0.5,0-0.8-0.1c-0.2-0.1-0.4-0.2-0.6-0.3c-0.2,0.2-0.5,0.3-0.7,0.4
					c-0.2,0.1-0.5,0.1-1,0.1h-1.5V25h1.5c0.4,0,0.7,0,0.9-0.1c0.3-0.1,0.4-0.3,0.4-0.7c0-0.1,0-0.3,0-0.4c0-0.1,0-0.3-0.1-0.5
					l0.3-0.4c0.1,0.5,0.3,0.8,0.3,1c0.2,0.4,0.3,0.6,0.5,0.8c0.2,0.2,0.5,0.3,0.8,0.3h0.5c0.4,0,0.7-0.1,0.8-0.2
					c0.2-0.1,0.3-0.3,0.3-0.6c0-0.2,0-0.3,0-0.4c0-0.1,0-0.3-0.1-0.5l0.3-0.4l0.2,0.7c0.1,0.5,0.3,0.9,0.5,1.1
					c0.2,0.2,0.4,0.3,0.7,0.3c0.1,0,0.2,0,0.3-0.1c0.1-0.1,0.1-0.2,0.1-0.3c0-0.3-0.1-0.6-0.3-0.9c0,0-0.2-0.2-0.4-0.5l0.5-0.8
					c0.2,0.3,0.3,0.6,0.4,0.8c0.1,0.3,0.2,0.8,0.2,1.3V26.3z"/>
				<path class="st0" d="M132.3,15.8c0,0.3-0.1,0.6-0.3,0.8c-0.2,0.2-0.5,0.4-0.9,0.4c-0.3,0-0.5-0.1-0.6-0.2
					c-0.1-0.1-0.2-0.4-0.2-0.6c0-0.4,0.1-0.7,0.3-1c0.2-0.3,0.5-0.4,0.8-0.4c0.3,0,0.5,0.1,0.7,0.3
					C132.2,15.3,132.3,15.5,132.3,15.8z M131.8,16c0-0.1-0.1-0.3-0.3-0.5c-0.2-0.2-0.4-0.3-0.5-0.3c-0.1,0-0.2,0.1-0.3,0.2
					c-0.1,0.1-0.1,0.2-0.1,0.3c0,0.2,0.1,0.3,0.3,0.4c0.1,0.1,0.3,0.1,0.6,0.1c0.1,0,0.2,0,0.3-0.1S131.8,16.1,131.8,16z"/>
				<path class="st0" d="M132.3,26.3H128V25h3.8c0-0.6-0.1-1-0.2-1.3c-0.1-0.2-0.3-0.5-0.7-0.9l0.6-1.2c0.4,0.4,0.6,0.8,0.7,1
					c0.1,0.4,0.2,1,0.2,1.9V26.3z M131.7,19.5l-0.6,1.1l-1.2-0.6l0.6-1.1L131.7,19.5z"/>
				<path class="st0" d="M136.3,15.4c0,0.2-0.1,0.4-0.4,0.7c-0.5,0.2-1.2,0.5-2.2,0.9c0-0.2,0.1-0.4,0.3-0.6
					C134.4,16.1,135.2,15.8,136.3,15.4z"/>
				<path class="st0" d="M136.1,26.3h-4.3V25h3.8c0-0.6-0.1-1-0.2-1.3c-0.1-0.2-0.3-0.5-0.7-0.9l0.6-1.2c0.4,0.4,0.6,0.8,0.7,1
					c0.1,0.4,0.2,1,0.2,1.9V26.3z M134.3,19.7l-0.6,1.1l-1.2-0.6l0.6-1.1L134.3,19.7z M136.1,19l-0.6,1.1l-1.2-0.6l0.6-1.1L136.1,19
					z"/>
				<path d="M149.5,26.3h-1.3c-0.8,0-1.4,0-1.8,0.1c-0.4,0-0.6,0.1-0.6,0.2c0,0.2,0.2,0.2,0.7,0.2c0.2,0,0.4,0,0.5,0s0.4,0,0.8,0.1
					c0.2,0,0.4,0.1,0.5,0.1c0.1,0.1,0.2,0.2,0.2,0.4c0,0.9-0.3,1.6-0.9,2c-0.7,0.5-1.8,0.7-3.4,0.7c-1.1,0-1.9-0.2-2.6-0.5
					c-0.7-0.4-1-0.9-1-1.6c0-0.6,0.2-1.2,0.5-1.8c0.1-0.2,0.4-0.7,0.9-1.5l0.3,0.1c-0.2,0.3-0.4,0.6-0.6,0.9c-0.3,0.5-0.4,1-0.4,1.3
					c0,0.6,0.3,1.1,1,1.4c0.6,0.3,1.5,0.4,2.5,0.4c0.7,0,1.4-0.1,1.9-0.2c0.7-0.1,1-0.3,1-0.5c0-0.1,0-0.1-0.1-0.2
					c-0.1,0-0.2-0.1-0.4-0.1c-0.1,0-0.3,0-0.6,0c-0.3,0-0.5,0-0.6,0c-0.3,0-0.5,0-0.7-0.1c-0.1-0.1-0.2-0.2-0.2-0.4
					c0-0.6,0.2-1.1,0.6-1.5c0.3-0.3,0.7-0.5,1.2-0.7c0.4-0.1,0.8-0.2,1.2-0.2h1.3V26.3z"/>
				<path d="M153.3,26.3H149V25h3.8c0-0.6-0.1-1-0.2-1.3c-0.1-0.2-0.3-0.5-0.7-0.9l0.6-1.2c0.4,0.4,0.6,0.8,0.7,1
					c0.1,0.4,0.2,1,0.2,1.9V26.3z M151.6,19.7l-0.6,1.1l-1.2-0.6l0.6-1.1L151.6,19.7z M153.3,19l-0.6,1.1l-1.2-0.6l0.6-1.1L153.3,19
					z"/>
				<path d="M157.6,17.6c0,0.2-0.1,0.4-0.4,0.7c-0.5,0.2-1.2,0.5-2.2,0.9c0-0.2,0.1-0.4,0.3-0.6C155.8,18.3,156.6,18,157.6,17.6z"/>
				<path d="M159.4,26.3h-0.8c-0.3,0-0.7-0.1-1.1-0.2c-0.5-0.2-0.9-0.4-1.3-0.7c-0.3,0.3-0.6,0.6-0.9,0.7c-0.3,0.1-0.8,0.2-1.3,0.2
					h-1.2V25h1.2c0.5,0,0.9-0.1,1.2-0.3c0.3-0.2,0.5-0.4,0.8-0.7c0.3-0.4,0.7-0.8,1.1-1.1c0.4-0.3,0.8-0.5,1.1-0.5
					c0.3,0.5,0.6,1,0.8,1.4c0.3,0.6,0.4,1,0.4,1.4V26.3z M158.6,24.8c-0.1-0.3-0.2-0.6-0.3-0.8c-0.1-0.2-0.3-0.5-0.5-0.7
					c-0.2,0.1-0.4,0.2-0.6,0.3c-0.1,0.1-0.2,0.3-0.4,0.5c0.2,0.2,0.4,0.4,0.8,0.5C157.9,24.8,158.2,24.9,158.6,24.8L158.6,24.8z"/>
			</g>
		</g>
	</g>
	<rect class="st1" width="218.5" height="44.9"/>
</g>
</svg>
