<?xml version="1.0" encoding="utf-8"?>
<!-- Generator: Adobe Illustrator 19.2.0, SVG Export Plug-In . SVG Version: 6.00 Build 0)  -->
<svg version="1.1" id="Layer_1" xmlns="http://www.w3.org/2000/svg" xmlns:xlink="http://www.w3.org/1999/xlink" x="0px" y="0px"
	 viewBox="0 0 186.8 45" style="enable-background:new 0 0 186.8 45;" xml:space="preserve">
<style type="text/css">
	.st0{fill:none;}
</style>
<g>
	<g>
		<g>
			<g>
				<path d="M29.9,26.3l-0.4,1.2c-0.8,0.2-1.4,0.4-1.9,0.6c-0.6,0.3-1.1,0.6-1.6,1l-0.2-0.1c0.1-0.2,0.2-0.4,0.3-0.6
					c0.1-0.2,0.2-0.3,0.3-0.4l-0.9-0.5c-0.3-0.2-0.4-0.3-0.4-0.5c0-0.2,0.1-0.4,0.3-0.9c0.2-0.5,0.5-0.9,0.8-1.2
					c0.4-0.4,0.8-0.6,1.2-0.6c0.4,0,0.7,0.1,0.9,0.3c0.1,0,0.2,0.2,0.4,0.4l-0.4,1c-0.2-0.1-0.3-0.2-0.3-0.2
					c-0.3-0.2-0.6-0.3-0.8-0.3c-0.2,0-0.5,0.1-0.8,0.2c-0.3,0.1-0.4,0.3-0.4,0.4c0,0.2,0.2,0.4,0.5,0.6c0.2,0.1,0.6,0.3,1.1,0.5
					C28.5,26.8,29.2,26.5,29.9,26.3z"/>
				<path d="M34.2,28.1h-1.1c-0.3,0-0.6-0.1-0.8-0.4c-0.2-0.2-0.3-0.6-0.4-1c-0.1-0.5-0.2-1-0.2-1.7c0-0.6-0.1-1.1-0.1-1.7
					s-0.1-1-0.1-1.3c-0.1-0.3-0.1-0.5-0.2-0.7c-0.1-0.2-0.3-0.4-0.5-0.6l0.9-1.4c0.2,0.6,0.3,1.3,0.4,2.1c0,0.5,0.1,1.7,0.2,3.6
					c0.1,0.9,0.2,1.4,0.4,1.7c0.1,0.2,0.3,0.3,0.5,0.3h1.1V28.1z"/>
				<path d="M38,28.1h-4.3v-1.3h3.8c0-0.6-0.1-1-0.2-1.3c-0.1-0.2-0.3-0.5-0.7-0.9l0.6-1.2c0.4,0.4,0.6,0.8,0.7,1
					c0.1,0.4,0.2,1,0.2,1.9V28.1z M36.2,30.3l-0.6,1.1l-1.2-0.6l0.6-1.1L36.2,30.3z M38,29.6l-0.6,1.1L36.2,30l0.6-1.1L38,29.6z"/>
				<path d="M41.2,28.1h-3.7v-1.3h3l-0.9-6.2l-0.4-0.2c0-0.3,0-0.7,0.1-1c0.1-0.3,0.2-0.6,0.3-0.9l0.1,0.1c0,0.3,0.2,0.5,0.5,0.6
					c0.3,0.1,0.5,0.2,0.8,0.3c0,0.2,0,0.5-0.1,0.8c0,0.3-0.1,0.5-0.1,0.6l-0.4-0.1l0.9,5.8V28.1z"/>
				<path d="M43.8,26.3c0,0.4-0.1,0.8-0.2,1.1c-0.1,0.2-0.2,0.5-0.5,0.9l-0.1-0.1c0-0.1,0-0.3,0-0.5c0-0.2,0-0.3,0-0.4
					c0-0.5,0-1.2-0.1-2.1c-0.1-0.9-0.2-1.9-0.3-2.9c-0.1-0.6-0.1-1.2-0.2-1.8c0.1-0.2,0.2-0.4,0.3-0.7s0.3-0.5,0.4-0.7
					c0.1,0.6,0.2,1.3,0.3,2.3c0.1,1,0.2,1.8,0.3,2.6C43.7,25,43.8,25.8,43.8,26.3z"/>
				<path d="M52,28.1h-3.7v-1.3H52V28.1z"/>
				<path d="M55.7,28.1h-4.3v-1.3h3.8c0-0.6-0.1-1-0.2-1.3c-0.1-0.2-0.3-0.5-0.7-0.9l0.6-1.2c0.4,0.4,0.6,0.8,0.7,1
					c0.1,0.4,0.2,1,0.2,1.9V28.1z M55,29.9L54.4,31l-1.2-0.6l0.6-1.1L55,29.9z"/>
				<path d="M67.9,27.2c0,0.8-0.2,1.4-0.6,1.9c-0.3,0.4-0.8,0.7-1.5,0.9c-0.6,0.1-1.3,0.2-2.1,0.2c-1,0-1.7-0.2-2.3-0.5
					c-0.6-0.4-0.9-1-0.9-1.7c0-0.4,0.1-0.9,0.2-1.3c0.1-0.4,0.3-0.8,0.5-1.3c0.2-0.3,0.4-0.7,0.6-1.2l0.2,0.1
					c-0.2,0.3-0.3,0.6-0.5,0.9c-0.2,0.3-0.3,0.7-0.4,0.9c-0.1,0.3-0.1,0.7-0.1,1c0,0.6,0.2,1.1,0.7,1.4c0.5,0.3,1.1,0.5,1.9,0.5
					c0.9,0,1.6-0.1,2.4-0.4c0.8-0.3,1.2-0.7,1.2-1.1c0-0.5-0.1-1.3-0.2-2.4c-0.1-0.9-0.3-1.8-0.4-2.9l-0.3-1.4L66,20.4
					c0-0.7,0.1-1.3,0.4-1.8h0.1c0,0.2,0.1,0.3,0.1,0.4c0,0.1,0.1,0.2,0.3,0.2c0.2,0.1,0.3,0.1,0.5,0.2c0.1,0.1,0.3,0.1,0.4,0.2
					c0,0.3,0,0.6,0,0.7c0,0.2-0.1,0.4-0.2,0.7l-0.4-0.1c0,0.1,0.1,0.6,0.2,1.5c0.2,1,0.3,1.9,0.3,2.5C67.8,25.9,67.9,26.7,67.9,27.2
					z"/>
				<path d="M71.7,28.1h-4.3v-1.3h3.8c0-0.6-0.1-1-0.2-1.3c-0.1-0.2-0.3-0.5-0.7-0.9l0.6-1.2c0.4,0.4,0.6,0.8,0.7,1
					c0.1,0.4,0.2,1,0.2,1.9V28.1z M69.9,21.5l-0.6,1.1L68.1,22l0.6-1.1L69.9,21.5z M71.6,20.9l-0.6,1.1l-1.2-0.6l0.6-1.1L71.6,20.9z
					"/>
				<path d="M77.8,28.1h-1.1c-0.3,0-0.7-0.1-1-0.2c-0.4-0.2-0.7-0.4-0.9-0.8c-0.3,0.3-0.7,0.5-1.2,0.7c-0.5,0.2-1.1,0.3-1.8,0.3
					h-0.7v-1.3h0.7c0.4,0,0.8,0,1.2-0.1c0.4-0.1,0.8-0.3,1.2-0.5l-0.3-0.4c-0.2-0.2-0.3-0.3-0.5-0.3c-0.1,0-0.2,0-0.2,0
					s-0.1,0.1-0.2,0.2h-0.2v-0.4c0-0.5,0.1-0.9,0.4-1.1c0.3-0.2,0.7-0.3,1.4-0.3c0.6,0,1,0.1,1.4,0.2c0.5,0.2,0.7,0.5,0.7,0.9
					c0,0.2-0.1,0.4-0.3,0.7c-0.1,0.2-0.4,0.4-0.7,0.7c0.1,0.1,0.2,0.2,0.5,0.3c0.2,0.1,0.4,0.1,0.6,0.1h1.1V28.1z"/>
				<path d="M83.9,28.1h-0.8c-0.3,0-0.7-0.1-1.1-0.2c-0.5-0.2-0.9-0.4-1.3-0.7c-0.3,0.3-0.6,0.6-0.9,0.7c-0.3,0.1-0.8,0.2-1.3,0.2
					h-1.2v-1.3h1.2c0.5,0,0.9-0.1,1.2-0.3c0.3-0.2,0.5-0.4,0.8-0.7c0.3-0.4,0.7-0.8,1.1-1.1c0.4-0.3,0.8-0.5,1.1-0.5
					c0.3,0.5,0.6,1,0.8,1.4c0.3,0.6,0.4,1,0.4,1.4V28.1z M83,26.7c-0.1-0.3-0.2-0.6-0.3-0.8c-0.1-0.2-0.3-0.5-0.5-0.7
					c-0.2,0.1-0.4,0.2-0.6,0.3c-0.1,0.1-0.2,0.3-0.4,0.5c0.2,0.2,0.4,0.4,0.8,0.5C82.4,26.7,82.7,26.7,83,26.7L83,26.7z"/>
				<path d="M87.1,28.1h-3.7v-1.3h3l-0.9-6.2l-0.4-0.2c0-0.3,0-0.7,0.1-1c0.1-0.3,0.2-0.6,0.3-0.9l0.1,0.1c0,0.3,0.2,0.5,0.5,0.6
					c0.3,0.1,0.5,0.2,0.8,0.3c0,0.2,0,0.5-0.1,0.8c0,0.3-0.1,0.5-0.1,0.6l-0.4-0.1l0.9,5.8V28.1z"/>
				<path d="M89.7,26.3c0,0.4-0.1,0.8-0.2,1.1c-0.1,0.2-0.2,0.5-0.5,0.9l-0.1-0.1c0-0.1,0-0.3,0-0.5c0-0.2,0-0.3,0-0.4
					c0-0.5,0-1.2-0.1-2.1c-0.1-0.9-0.2-1.9-0.3-2.9c-0.1-0.6-0.1-1.2-0.2-1.8c0.1-0.2,0.2-0.4,0.3-0.7s0.3-0.5,0.4-0.7
					c0.1,0.6,0.2,1.3,0.3,2.3c0.1,1,0.2,1.8,0.3,2.6C89.6,25,89.7,25.8,89.7,26.3z"/>
				<path d="M102.6,32.2l-1.9,1.2c-1.1,0-1.9,0-2.4-0.1c-1-0.1-1.8-0.4-2.3-0.9c-0.7-0.5-1-1.3-1-2.3c0-0.6,0.1-1.2,0.3-1.6
					c0.2-0.4,0.4-0.8,0.7-1.1c0.1-0.2,0.4-0.4,0.7-0.8c-0.5-0.2-0.8-0.4-1-0.6c-0.4-0.4-0.6-0.9-0.6-1.4c0-0.5,0.2-1,0.7-1.5
					c0.5-0.6,1.1-0.9,1.9-0.9c0.3,0,0.7,0.1,1,0.3c0.2,0.1,0.6,0.3,0.9,0.6c-0.5,0-1,0-1.5,0.1c-0.7,0.1-1.2,0.2-1.6,0.4
					c-0.5,0.2-0.8,0.4-0.8,0.7c0,0.3,0.3,0.6,0.9,0.9c0.5,0.2,1,0.4,1.7,0.5c0.5-0.3,1-0.5,1.5-0.7c0.5-0.2,1.1-0.4,1.7-0.5
					l-0.3,1.1c-1,0.4-1.8,0.7-2.3,0.9c-0.9,0.4-1.7,0.9-2.2,1.3c-0.6,0.6-1,1.2-1,1.9c0,0.7,0.3,1.2,0.8,1.6
					c0.5,0.3,1.1,0.6,2.1,0.7c0.7,0.1,1.6,0.2,2.7,0.2c0.2,0,0.5,0,0.7,0S102.4,32.2,102.6,32.2L102.6,32.2z"/>
				<path d="M110.7,28.1c0,0.5-0.2,1.1-0.7,1.7c-0.4,0.5-0.9,0.9-1.5,1.3c-0.6,0.4-1.1,0.5-1.4,0.5c-0.3,0-0.7,0-1.1-0.1
					c-0.3-0.1-0.7-0.2-1.1-0.3c-0.4-0.1-0.7-0.3-1.1-0.4l0.1-0.3c0.3,0.1,0.7,0.1,1,0.2c0.4,0.1,0.7,0.1,1,0.1c0.6,0,1.3-0.2,2-0.6
					c0.6-0.4,1.2-0.8,1.6-1.4c0.4-0.6,0.7-1.1,0.7-1.5c0-0.4-0.1-0.8-0.3-1.2c-0.2-0.3-0.4-0.7-0.8-1.1l0.4-1.2
					c0.4,0.4,0.7,0.7,0.9,1.1c0.2,0.4,0.3,0.9,0.3,1.4V28.1z"/>
				<path d="M114.2,28.1h-1.1c-0.3,0-0.6-0.1-0.8-0.4c-0.2-0.2-0.3-0.6-0.4-1c-0.1-0.5-0.2-1-0.2-1.7c0-0.6-0.1-1.1-0.1-1.7
					s-0.1-1-0.1-1.3c-0.1-0.3-0.1-0.5-0.2-0.7c-0.1-0.2-0.3-0.4-0.5-0.6l0.9-1.4c0.2,0.6,0.3,1.3,0.4,2.1c0,0.5,0.1,1.7,0.2,3.6
					c0.1,0.9,0.2,1.4,0.4,1.7c0.1,0.2,0.3,0.3,0.5,0.3h1.1V28.1z"/>
				<path d="M127.3,28.1h-9.1c-0.3,0-0.5,0-0.8-0.1c-0.2-0.1-0.4-0.2-0.7-0.3c-0.2,0.2-0.4,0.3-0.6,0.4c-0.2,0.1-0.6,0.1-1,0.1h-1.5
					v-1.3h1.5c0.4,0,0.7,0,0.9-0.1c0.3-0.1,0.4-0.3,0.4-0.7c0-0.1,0-0.3,0-0.4s0-0.3-0.1-0.5l0.3-0.4c0.2,0.7,0.4,1.2,0.7,1.5
					c0.3,0.4,0.7,0.6,1.2,0.6c0.4,0,0.9-0.1,1.5-0.3c0.6-0.2,1.1-0.5,1.6-0.8c0.7-0.5,1.2-0.8,1.3-0.9c0.4-0.3,0.8-0.4,1.1-0.5
					c0.4-0.1,0.8-0.2,1.2-0.2c0.7,0,1.2,0.2,1.6,0.6c0.3,0.4,0.5,0.9,0.5,1.5V28.1z M122.5,22l-0.6,1.1l-1.2-0.6l0.6-1.1L122.5,22z
					 M126.1,26.3c0-0.2-0.2-0.4-0.5-0.6c-0.3-0.1-0.7-0.2-1.1-0.2c-0.5,0-1.1,0.2-1.8,0.5c-0.6,0.3-1.1,0.6-1.7,0.8h3.5
					c0.5,0,1,0,1.2-0.1C126,26.6,126.1,26.5,126.1,26.3z"/>
				<path d="M133.4,28.1h-0.8c-0.3,0-0.7-0.1-1.1-0.2c-0.5-0.2-0.9-0.4-1.3-0.7c-0.3,0.3-0.6,0.6-0.9,0.7c-0.3,0.1-0.8,0.2-1.3,0.2
					h-1.2v-1.3h1.2c0.5,0,0.9-0.1,1.2-0.3c0.3-0.2,0.5-0.4,0.8-0.7c0.3-0.4,0.7-0.8,1.1-1.1c0.4-0.3,0.8-0.5,1.1-0.5
					c0.3,0.5,0.6,1,0.8,1.4c0.3,0.6,0.4,1,0.4,1.4V28.1z M132.6,26.7c-0.1-0.3-0.2-0.6-0.3-0.8c-0.1-0.2-0.3-0.5-0.5-0.7
					c-0.2,0.1-0.4,0.2-0.6,0.3c-0.1,0.1-0.2,0.3-0.4,0.5c0.2,0.2,0.4,0.4,0.8,0.5C131.9,26.7,132.2,26.7,132.6,26.7L132.6,26.7z"/>
				<path d="M145.6,27.2c0,0.8-0.2,1.4-0.6,1.9c-0.3,0.4-0.8,0.7-1.5,0.9c-0.6,0.1-1.3,0.2-2.1,0.2c-1,0-1.7-0.2-2.3-0.5
					c-0.6-0.4-0.9-1-0.9-1.7c0-0.4,0.1-0.9,0.2-1.3c0.1-0.4,0.3-0.8,0.5-1.3c0.2-0.3,0.4-0.7,0.6-1.2l0.2,0.1
					c-0.2,0.3-0.3,0.6-0.5,0.9c-0.2,0.3-0.3,0.7-0.4,0.9c-0.1,0.3-0.1,0.7-0.1,1c0,0.6,0.2,1.1,0.7,1.4c0.5,0.3,1.1,0.5,1.9,0.5
					c0.9,0,1.6-0.1,2.4-0.4c0.8-0.3,1.2-0.7,1.2-1.1c0-0.5-0.1-1.3-0.2-2.4c-0.1-0.9-0.3-1.8-0.4-2.9l-0.3-1.4l-0.3-0.2
					c0-0.7,0.1-1.3,0.4-1.8h0.1c0,0.2,0.1,0.3,0.1,0.4c0,0.1,0.1,0.2,0.3,0.2c0.2,0.1,0.3,0.1,0.5,0.2c0.1,0.1,0.3,0.1,0.4,0.2
					c0,0.3,0,0.6,0,0.7c0,0.2-0.1,0.4-0.2,0.7l-0.4-0.1c0,0.1,0.1,0.6,0.2,1.5c0.2,1,0.3,1.9,0.3,2.5
					C145.6,25.9,145.6,26.7,145.6,27.2z"/>
				<path d="M151.7,28.1h-1.1c-0.3,0-0.7-0.1-1-0.2c-0.4-0.2-0.7-0.4-0.9-0.8c-0.3,0.3-0.7,0.5-1.2,0.7c-0.5,0.2-1.1,0.3-1.8,0.3
					h-0.7v-1.3h0.7c0.4,0,0.8,0,1.2-0.1c0.4-0.1,0.8-0.3,1.2-0.5l-0.3-0.4c-0.2-0.2-0.3-0.3-0.5-0.3c-0.1,0-0.2,0-0.2,0
					s-0.1,0.1-0.2,0.2h-0.2v-0.4c0-0.5,0.1-0.9,0.4-1.1c0.3-0.2,0.7-0.3,1.4-0.3c0.6,0,1,0.1,1.4,0.2c0.5,0.2,0.7,0.5,0.7,0.9
					c0,0.2-0.1,0.4-0.3,0.7c-0.1,0.2-0.4,0.4-0.7,0.7c0.1,0.1,0.2,0.2,0.5,0.3c0.2,0.1,0.4,0.1,0.6,0.1h1.1V28.1z"/>
				<path d="M155.8,28.1h-4.6v-1.3h2.6c0.3,0,0.6,0,0.8,0c0.2,0,0.5-0.1,0.7-0.1c-0.9-0.1-1.4-0.2-1.7-0.3c-0.6-0.2-0.9-0.7-0.9-1.2
					c0-0.5,0.1-1,0.4-1.5c0.3-0.5,0.7-0.8,1.1-0.8c0.5,0,0.9,0.3,1.2,1c0.2,0.5,0.3,1.1,0.3,1.8V28.1z M155.1,20.3l-0.7,1.1
					l-1.1-0.7l0.6-1L155.1,20.3z M155.1,25.6c-0.1-0.4-0.2-0.7-0.3-0.9c-0.2-0.4-0.5-0.6-0.8-0.6c-0.1,0-0.3,0.1-0.4,0.2
					c-0.1,0.1-0.2,0.2-0.2,0.4c0,0.4,0.2,0.6,0.6,0.8C154.3,25.5,154.6,25.5,155.1,25.6z"/>
				<path d="M159,28.1h-3.7v-1.3h3l-0.9-6.2l-0.4-0.2c0-0.3,0-0.7,0.1-1c0.1-0.3,0.2-0.6,0.3-0.9l0.1,0.1c0,0.3,0.2,0.5,0.5,0.6
					c0.3,0.1,0.5,0.2,0.8,0.3c0,0.2,0,0.5-0.1,0.8c0,0.3-0.1,0.5-0.1,0.6l-0.4-0.1l0.9,5.8V28.1z"/>
				<path d="M161.6,26.3c0,0.4-0.1,0.8-0.2,1.1c-0.1,0.2-0.2,0.5-0.5,0.9l-0.1-0.1c0-0.1,0-0.3,0-0.5c0-0.2,0-0.3,0-0.4
					c0-0.5,0-1.2-0.1-2.1c-0.1-0.9-0.2-1.9-0.3-2.9c-0.1-0.6-0.1-1.2-0.2-1.8c0.1-0.2,0.2-0.4,0.3-0.7s0.3-0.5,0.4-0.7
					c0.1,0.6,0.2,1.3,0.3,2.3c0.1,1,0.2,1.8,0.3,2.6C161.5,25,161.6,25.8,161.6,26.3z"/>
			</g>
		</g>
	</g>
	<rect class="st0" width="186.8" height="45"/>
</g>
</svg>
