<?xml version="1.0" encoding="utf-8"?>
<!-- Generator: Adobe Illustrator 19.2.0, SVG Export Plug-In . SVG Version: 6.00 Build 0)  -->
<svg version="1.1" id="Layer_1" xmlns="http://www.w3.org/2000/svg" xmlns:xlink="http://www.w3.org/1999/xlink" x="0px" y="0px"
	 viewBox="0 0 218.5 44.9" style="enable-background:new 0 0 218.5 44.9;" xml:space="preserve">
<style type="text/css">
	.st0{fill:#BA0017;}
	.st1{fill:none;}
</style>
<g>
	<g>
		<g>
			<g>
				<path d="M38.5,32.7c0,0.2-0.1,0.5-0.4,0.7c-0.5,0.2-1.2,0.5-2.2,0.8c0-0.2,0.1-0.4,0.3-0.6C36.7,33.4,37.4,33.1,38.5,32.7z"/>
				<path d="M42.4,28.5c0,1-0.5,1.7-1.4,2.2c-0.9,0.5-2,0.7-3.4,0.7c-1.1,0-2-0.2-2.6-0.6c-0.7-0.4-1-1.1-1-1.9
					c0-0.6,0.1-1.2,0.3-1.8c0.2-0.6,0.4-1.2,0.8-1.8l0.3,0.1c-0.1,0.3-0.3,0.6-0.4,0.9c-0.1,0.4-0.2,0.7-0.3,0.9
					c-0.1,0.3-0.1,0.6-0.1,1c0,0.6,0.3,1.1,0.8,1.4c0.5,0.3,1.3,0.4,2.3,0.4c1.1,0,2-0.2,2.8-0.5c0.9-0.4,1.4-0.9,1.4-1.6
					c0-0.3,0-0.4,0-0.5c0-0.1,0-0.2-0.1-0.3c-0.2,0.1-0.4,0.2-0.6,0.2c-0.2,0.1-0.4,0.1-0.6,0.1c-0.4,0-0.8-0.1-1.1-0.3
					C39.1,26.9,39,26.5,39,26c0-0.6,0.1-1.1,0.4-1.6c0.3-0.6,0.7-0.9,1.2-0.9c0.6,0,1.1,0.4,1.4,1.2c0.3,0.7,0.4,1.4,0.4,2.3V28.5z
					 M39.8,21.3l-0.6,1.1L38,21.7l0.6-1.1L39.8,21.3z M41.2,25.8c-0.1-0.3-0.2-0.5-0.3-0.6c-0.1-0.2-0.3-0.3-0.5-0.3
					c-0.2,0-0.4,0.1-0.5,0.2c-0.1,0.1-0.2,0.3-0.2,0.4c0,0.2,0.1,0.3,0.2,0.4C40,26,40.2,26,40.4,26c0.1,0,0.3,0,0.4-0.1
					C40.9,25.9,41,25.9,41.2,25.8z M41.5,20.6l-0.6,1.1l-1.2-0.6l0.6-1.1L41.5,20.6z"/>
				<path d="M51.7,28.1h-0.5c-0.4,0-0.8-0.2-1-0.7c-0.3-0.5-0.5-1.4-0.5-2.4c0-0.1,0-0.2,0-0.3c0-0.1,0-0.2,0-0.2
					c-0.5,1.3-0.9,2.2-1.3,2.7c-0.4,0.6-1.1,0.9-1.9,1.1c-0.7,0.2-1.9,0.2-3.6,0.2v-0.2c1.4-0.4,2.4-0.7,3-1c1.1-0.5,1.9-1,2.4-1.6
					c0.7-0.7,1-1.6,1-2.6c0-0.5,0-0.9-0.1-1.3c-0.1-0.4-0.1-0.8-0.3-1.3l0.3-0.6c0.1-0.2,0.2-0.4,0.3-0.6c0.1,0.7,0.3,1.5,0.4,2.3
					c0.1,0.6,0.2,1.2,0.2,1.8c0.1,0.8,0.2,1.4,0.3,1.9c0.1,0.6,0.2,1.1,0.4,1.3c0.1,0.2,0.2,0.3,0.4,0.3h0.5V28.1z M48.6,24.3
					c0,0.1,0,0.2,0,0.3s0,0.2-0.1,0.3c-0.3-0.6-0.7-1.2-1.3-1.9c-0.6-0.7-1.1-1.1-1.5-1.1c-0.1,0-0.2,0.1-0.2,0.2
					c-0.1,0.1-0.2,0.2-0.3,0.2c-0.1,0-0.4-0.1-0.6-0.3c-0.4-0.2-0.7-0.5-0.9-0.7c-0.3-0.4-0.4-0.8-0.4-1.2c0-0.3,0.1-0.5,0.3-0.5
					c0.4,0,0.9,0.2,1.7,0.7c0.9,0.5,1.6,1.1,2.2,1.7C48.2,22.7,48.6,23.5,48.6,24.3z"/>
				<path d="M59.9,28.1h-8.7v-1.3h6.2c-0.5-0.4-0.9-0.7-1.3-0.9c-0.4-0.3-0.8-0.5-1.2-0.6c-0.4-0.1-0.8-0.2-1.2-0.2
					c-0.3,0-0.5,0-0.8,0.1c0.1-0.4,0.3-0.7,0.6-0.9c0.3-0.3,0.8-0.5,1.3-0.5c0.5,0,1.1,0.2,1.8,0.7c0.3,0.2,0.9,0.7,1.7,1.4
					c0.6,0.5,1,0.8,1.2,0.9h0.5V28.1z M56.3,21.3l-0.6,1.1l-1.2-0.6l0.6-1.1L56.3,21.3z"/>
				<path d="M62.3,18.3c0,0.1-0.1,0.2-0.2,0.3c-0.1,0.1-0.3,0.1-0.5,0.2l-1.4,0.5c0-0.2,0.3-0.4,0.8-0.6c-0.2-0.1-0.3-0.2-0.4-0.2
					c-0.1-0.1-0.2-0.2-0.2-0.3c0-0.2,0.1-0.4,0.4-0.6c0.3-0.3,0.6-0.5,0.8-0.5c0.1,0,0.2,0,0.3,0.1c0.1,0.1,0.1,0.2,0.1,0.3
					c0,0.1,0,0.1,0,0.2s-0.1,0.2-0.1,0.2c-0.2-0.1-0.3-0.2-0.5-0.2c-0.1,0-0.2,0-0.3,0.1s-0.2,0.1-0.2,0.2c0,0.1,0.1,0.2,0.4,0.3
					c0.2,0.1,0.4,0.2,0.6,0.2c0.1,0,0.2,0,0.2,0C62.1,18.3,62.2,18.3,62.3,18.3z M67.8,20.4l-0.4,1.3L67,21.5l0,0.7
					c0,0.7-0.1,1.3-0.3,1.9c-0.2,0.7-0.5,1.3-0.9,2c0.2,0.3,0.3,0.6,0.4,0.8c0.1,0.3,0.2,0.6,0.2,0.9c0,0.2,0,0.3,0,0.5
					c0,0.1,0,0.3-0.1,0.4c-0.5,0.1-1.1,0.2-1.7,0.3c-0.6,0.1-1.2,0.1-1.8,0.1c0-0.1,0-0.2,0-0.2c0-0.4,0.1-0.7,0.2-1
					c0.9-0.4,1.6-1,2.2-1.7c-0.4-0.6-0.6-1.1-0.8-1.4c-0.2-0.3-0.5-0.8-0.9-1.4c-0.2-0.2-0.3-0.4-0.4-0.5c-0.2-0.2-0.3-0.3-0.4-0.3
					c-0.1,0-0.2,0-0.3,0.1c-0.1,0-0.1,0.1-0.2,0.1c-0.1,0-0.3-0.1-0.5-0.3c-0.2-0.2-0.4-0.4-0.7-0.7c-0.2-0.2-0.3-0.4-0.4-0.6
					c-0.1-0.1-0.1-0.3-0.1-0.5c0-0.3,0-0.5,0.1-0.7c0.1-0.3,0.2-0.4,0.3-0.4c0.2,0,0.5,0.2,0.9,0.6c0.3,0.3,0.7,0.8,1.2,1.4
					c0.4,0.5,0.8,1,1.1,1.6l0.8,1.2c0.2,0.4,0.5,0.8,0.7,1.2c0.3-0.7,0.6-1.3,0.7-2c0.1-0.6,0.2-1.3,0.2-2.2L66,21
					c0-0.3,0-0.6,0.1-0.9c0.1-0.3,0.1-0.5,0.2-0.7l0.2,0c0,0.2,0.1,0.4,0.4,0.5c0.1,0.1,0.3,0.1,0.5,0.2S67.7,20.3,67.8,20.4z
					 M65.8,27.5c0-0.1,0-0.2-0.1-0.3s-0.1-0.3-0.3-0.6c-0.2,0.2-0.4,0.4-0.7,0.7c-0.3,0.3-0.6,0.5-0.9,0.6c0.6,0,1,0,1.3-0.1
					C65.6,27.8,65.8,27.7,65.8,27.5z"/>
				<path d="M70.9,26.3c0,0.4-0.1,0.8-0.2,1.1c-0.1,0.2-0.2,0.5-0.5,0.9l-0.1-0.1c0-0.1,0-0.3,0-0.5c0-0.2,0-0.3,0-0.4
					c0-0.5,0-1.2-0.1-2.1c-0.1-0.9-0.2-1.9-0.3-2.9c-0.1-0.6-0.1-1.2-0.2-1.8c0.1-0.2,0.2-0.4,0.3-0.7s0.3-0.5,0.4-0.7
					c0.1,0.6,0.2,1.3,0.3,2.3c0.1,1,0.2,1.8,0.3,2.6C70.9,25,70.9,25.8,70.9,26.3z"/>
				<path d="M85,28.1h-1.3c-0.8,0-1.4,0-1.8,0.1c-0.4,0-0.6,0.1-0.6,0.2c0,0.2,0.2,0.2,0.7,0.2c0.2,0,0.4,0,0.5,0s0.4,0,0.8,0.1
					c0.2,0,0.4,0.1,0.5,0.1c0.1,0.1,0.2,0.2,0.2,0.4c0,0.9-0.3,1.6-0.9,2c-0.7,0.5-1.8,0.7-3.4,0.7c-1.1,0-1.9-0.2-2.6-0.5
					c-0.7-0.4-1-0.9-1-1.6c0-0.6,0.2-1.2,0.5-1.8c0.1-0.2,0.4-0.7,0.9-1.5l0.3,0.1c-0.2,0.3-0.4,0.6-0.6,0.9c-0.3,0.5-0.4,1-0.4,1.3
					c0,0.6,0.3,1.1,1,1.4c0.6,0.3,1.5,0.4,2.5,0.4c0.7,0,1.4-0.1,1.9-0.2c0.7-0.1,1-0.3,1-0.5c0-0.1,0-0.1-0.1-0.2
					c-0.1,0-0.2-0.1-0.4-0.1c-0.1,0-0.3,0-0.6,0c-0.3,0-0.5,0-0.6,0c-0.3,0-0.5,0-0.7-0.1c-0.1-0.1-0.2-0.2-0.2-0.4
					c0-0.6,0.2-1.1,0.6-1.5c0.3-0.3,0.7-0.5,1.2-0.7c0.4-0.1,0.8-0.2,1.2-0.2H85V28.1z"/>
				<path d="M88.2,28.1h-3.7v-1.3h3l-0.9-6.2l-0.4-0.2c0-0.3,0-0.7,0.1-1c0.1-0.3,0.2-0.6,0.3-0.9l0.1,0.1c0,0.3,0.2,0.5,0.5,0.6
					c0.3,0.1,0.5,0.2,0.8,0.3c0,0.2,0,0.5-0.1,0.8c0,0.3-0.1,0.5-0.1,0.6l-0.4-0.1l0.9,5.8V28.1z"/>
				<path d="M95.5,25.8L95,27.2c-0.8,0.3-1.6,0.5-2.6,0.7s-1.9,0.3-2.8,0.3h-1.9v-1.3h1.8c-0.1-0.2-0.3-0.5-0.4-0.8
					c-0.1-0.3-0.1-0.6-0.1-0.8c0-0.6,0.2-1.1,0.7-1.5s1.1-0.6,1.9-0.6c0.6,0,1.1,0.1,1.5,0.4c0.2,0.1,0.5,0.4,0.9,0.9l-0.1,0.1
					c-0.3-0.1-0.7-0.2-0.9-0.2c-0.3,0-0.6-0.1-0.9-0.1c-0.7,0-1.2,0.1-1.6,0.2c-0.4,0.1-0.6,0.3-0.6,0.6c0,0.2,0.1,0.5,0.4,0.8
					c0.3,0.3,0.6,0.6,1,0.8c0.8-0.1,1.5-0.2,2-0.4C93.8,26.3,94.6,26.1,95.5,25.8z"/>
				<path d="M104.2,28.1h-1.1c-0.3,0-0.6-0.1-0.8-0.4c-0.2-0.2-0.3-0.6-0.4-1c-0.1-0.5-0.2-1-0.2-1.7c0-0.6-0.1-1.1-0.1-1.7
					s-0.1-1-0.1-1.3c-0.1-0.3-0.1-0.5-0.2-0.7c-0.1-0.2-0.3-0.4-0.5-0.6l0.9-1.4c0.2,0.6,0.3,1.3,0.4,2.1c0,0.5,0.1,1.7,0.2,3.6
					c0.1,0.9,0.2,1.4,0.4,1.7c0.1,0.2,0.3,0.3,0.5,0.3h1.1V28.1z"/>
				<path d="M110.2,26.9c0,0.3-0.1,0.6-0.3,0.9c-0.2,0.4-0.4,0.6-0.6,0.6c-0.2,0-0.6-0.1-1.2-0.4c-0.5-0.2-1-0.5-1.3-0.7
					c-0.6,0.3-1,0.5-1.3,0.6c-0.3,0.1-0.7,0.2-1.2,0.2h-0.7v-1.3h0.7c0.2,0,0.4,0,0.6,0c0.2,0,0.5-0.1,0.8-0.2
					c-0.1-0.1-0.3-0.2-0.4-0.3c-0.1-0.1-0.2-0.2-0.2-0.4c0-0.1,0-0.1,0-0.2c0,0,0-0.1,0.1-0.2l0.8-1.3c0.1-0.2,0.2-0.3,0.3-0.4
					s0.2-0.1,0.3-0.2c-0.3-0.2-0.5-0.4-0.5-0.5c0-0.1,0.1-0.3,0.3-0.8c0.1-0.1,0.2-0.3,0.3-0.6c0.3,0.3,0.7,0.7,1.2,1.3
					c0.6,0.7,1.1,1.4,1.5,1.9C110,25.9,110.2,26.5,110.2,26.9z M107.5,25.3c0-0.2,0-0.4-0.1-0.5c-0.1-0.1-0.3-0.2-0.5-0.2
					s-0.4,0.1-0.7,0.2s-0.3,0.3-0.3,0.5c0,0.2,0.3,0.5,0.9,0.8c0.2-0.1,0.4-0.3,0.5-0.4C107.5,25.6,107.5,25.4,107.5,25.3z
					 M109.4,27c0-0.2-0.1-0.4-0.4-0.8c-0.2-0.2-0.4-0.5-0.7-0.7c0,0.2-0.1,0.5-0.2,0.7c-0.1,0.2-0.2,0.4-0.4,0.5
					c0.3,0.2,0.6,0.3,0.9,0.4c0.3,0.1,0.4,0.2,0.5,0.2c0.1,0,0.1,0,0.2-0.1C109.4,27.1,109.4,27,109.4,27z"/>
				<path d="M115.9,18.7c0,0.2-0.1,0.4-0.4,0.7c-0.5,0.2-1.2,0.5-2.2,0.9c0-0.2,0.1-0.4,0.3-0.6C114.1,19.4,114.8,19.1,115.9,18.7z"
					/>
				<path d="M116.5,28.1h-3.4c-0.3,0-0.5-0.1-0.8-0.2c-0.2-0.2-0.3-0.4-0.3-0.6c0-0.2,0-0.4,0-0.5c0-0.2,0.1-0.3,0.1-0.5h0.2
					c0.1,0.2,0.2,0.3,0.3,0.4c0.1,0.1,0.3,0.1,0.5,0.1h2.9c0-0.9-0.1-1.6-0.4-2.1c-0.3-0.7-0.8-1.1-1.6-1.3l0.1-1.4
					c0.9,0.4,1.5,1.1,1.9,2c0.3,0.7,0.4,1.7,0.4,2.9V28.1z"/>
				<path d="M124.3,20.4l-0.4,1.3l-0.4-0.2l0,0.7c0,0.7-0.1,1.3-0.3,1.9c-0.2,0.7-0.5,1.3-0.9,2c0.2,0.3,0.3,0.6,0.4,0.8
					c0.1,0.3,0.2,0.6,0.2,0.9c0,0.2,0,0.3,0,0.5c0,0.1,0,0.3-0.1,0.4c-0.5,0.1-1.1,0.2-1.7,0.3c-0.6,0.1-1.2,0.1-1.8,0.1
					c0-0.1,0-0.2,0-0.2c0-0.4,0.1-0.7,0.2-1c0.9-0.4,1.6-1,2.2-1.7c-0.4-0.6-0.6-1.1-0.8-1.4c-0.2-0.3-0.5-0.8-0.9-1.4
					c-0.2-0.2-0.3-0.4-0.4-0.5c-0.2-0.2-0.3-0.3-0.4-0.3c-0.1,0-0.2,0-0.3,0.1c-0.1,0-0.1,0.1-0.2,0.1c-0.1,0-0.3-0.1-0.5-0.3
					c-0.2-0.2-0.4-0.4-0.7-0.7c-0.2-0.2-0.3-0.4-0.4-0.6c-0.1-0.1-0.1-0.3-0.1-0.5c0-0.3,0-0.5,0.1-0.7c0.1-0.3,0.2-0.4,0.3-0.4
					c0.2,0,0.5,0.2,0.9,0.6c0.3,0.3,0.7,0.8,1.2,1.4c0.4,0.5,0.8,1,1.1,1.6l0.8,1.2c0.2,0.4,0.5,0.8,0.7,1.2c0.3-0.7,0.6-1.3,0.7-2
					c0.1-0.6,0.2-1.3,0.2-2.2l-0.4-0.2c0-0.3,0-0.6,0.1-0.9c0.1-0.3,0.1-0.5,0.2-0.7l0.2,0c0,0.2,0.1,0.4,0.4,0.5
					c0.1,0.1,0.3,0.1,0.5,0.2S124.2,20.3,124.3,20.4z M122.4,27.5c0-0.1,0-0.2-0.1-0.3s-0.1-0.3-0.3-0.6c-0.2,0.2-0.4,0.4-0.7,0.7
					c-0.3,0.3-0.6,0.5-0.9,0.6c0.6,0,1,0,1.3-0.1C122.1,27.8,122.4,27.7,122.4,27.5z"/>
				<path d="M131.6,27.7c0,0.8-0.3,1.6-0.9,2.4c-0.7,0.9-1.5,1.3-2.4,1.3c-0.3,0-0.7,0-1-0.1c-0.3-0.1-0.6-0.1-1-0.3
					c-0.3-0.1-0.7-0.2-1-0.3l0.1-0.3c0.3,0.1,0.6,0.1,0.9,0.2c0.3,0.1,0.6,0.1,0.8,0.1c0.6,0,1.2-0.2,1.7-0.5c0.4-0.2,0.9-0.6,1.3-1
					c0.2-0.2,0.5-0.6,0.9-1.1c-0.7,0-1.2-0.1-1.5-0.3c-0.4-0.2-0.6-0.6-0.6-1.2c0-0.5,0.1-1,0.4-1.4c0.3-0.5,0.6-0.7,1.1-0.7
					c0.4,0,0.8,0.2,0.9,0.7c0.2,0.4,0.2,0.9,0.2,1.6V27.7z M131.1,26.9c-0.1-0.5-0.2-0.8-0.4-1c-0.1-0.2-0.3-0.2-0.5-0.2
					c-0.1,0-0.3,0-0.4,0.1s-0.2,0.2-0.2,0.3c0,0.2,0.1,0.4,0.3,0.5C130.3,26.8,130.6,26.9,131.1,26.9z"/>
				<path d="M134.4,18.3c0,0.1-0.1,0.2-0.2,0.3c-0.1,0.1-0.3,0.1-0.5,0.2l-1.4,0.5c0-0.2,0.3-0.4,0.8-0.6c-0.2-0.1-0.3-0.2-0.4-0.2
					c-0.1-0.1-0.2-0.2-0.2-0.3c0-0.2,0.1-0.4,0.4-0.6c0.3-0.3,0.6-0.5,0.8-0.5c0.1,0,0.2,0,0.3,0.1c0.1,0.1,0.1,0.2,0.1,0.3
					c0,0.1,0,0.1,0,0.2s-0.1,0.2-0.1,0.2c-0.2-0.1-0.3-0.2-0.5-0.2c-0.1,0-0.2,0-0.3,0.1s-0.2,0.1-0.2,0.2c0,0.1,0.1,0.2,0.4,0.3
					c0.2,0.1,0.4,0.2,0.6,0.2c0.1,0,0.2,0,0.2,0C134.1,18.3,134.2,18.3,134.4,18.3z M134.2,26.3c0,0.4-0.1,0.8-0.2,1.1
					c-0.1,0.2-0.2,0.5-0.5,0.9l-0.1-0.1c0-0.1,0-0.3,0-0.5c0-0.2,0-0.3,0-0.4c0-0.5,0-1.2-0.1-2.1c-0.1-0.9-0.2-1.9-0.3-2.9
					c-0.1-0.6-0.1-1.2-0.2-1.8c0.1-0.2,0.2-0.4,0.3-0.7s0.3-0.5,0.4-0.7c0.1,0.6,0.2,1.3,0.3,2.3c0.1,1,0.2,1.8,0.3,2.6
					C134.1,25,134.2,25.8,134.2,26.3z"/>
				<path d="M143,20.2c-0.2,0-0.4,0-0.6-0.1c0,0-0.1,0-0.3-0.1c-0.3,0.2-0.5,0.4-0.6,0.5c-0.3,0.2-0.6,0.3-0.9,0.3
					c-0.1,0-0.1,0-0.2,0s-0.1-0.1-0.2-0.1c0.4-0.2,0.7-0.3,0.8-0.4c0.2-0.1,0.5-0.2,0.8-0.4c-0.1-0.1-0.2-0.2-0.3-0.3
					c-0.1-0.1-0.1-0.2-0.1-0.3c0-0.2,0.1-0.4,0.3-0.6c0.2-0.2,0.4-0.3,0.6-0.3c0.1,0,0.3,0.1,0.4,0.2c0.1,0.1,0.2,0.2,0.2,0.4
					c0,0.1,0,0.2-0.1,0.3c0,0-0.1,0.1-0.2,0.3c0.2,0.1,0.3,0.1,0.3,0.2C143,19.8,143,19.9,143,20.2z M143,21c0,0.4-0.1,0.7-0.2,0.9
					c-0.1,0.3-0.3,0.4-0.6,0.4c-0.1,0-0.2,0-0.3,0c-0.1,0-0.2-0.1-0.3-0.1c-0.1,0.2-0.2,0.3-0.3,0.4c-0.2,0.2-0.3,0.2-0.5,0.2
					c-0.2,0-0.4-0.1-0.5-0.2c-0.1-0.1-0.2-0.3-0.2-0.6c0-0.1,0-0.3,0.1-0.4c0-0.1,0.1-0.2,0.1-0.4l0.2-0.1c0,0,0,0.1,0,0.2
					c0,0.1,0,0.2,0,0.2c0,0.1,0,0.2,0.1,0.3c0,0.1,0.1,0.1,0.2,0.1c0.2,0,0.4-0.1,0.5-0.4c0.1-0.1,0.1-0.4,0.2-0.7l0.2-0.1
					c0,0.2,0.1,0.4,0.1,0.4c0.1,0.2,0.2,0.2,0.3,0.2c0.2,0,0.3-0.1,0.5-0.4c0.1-0.2,0.1-0.4,0.1-0.6l0.2,0c0,0.1,0,0.2,0.1,0.3
					C143,20.8,143,20.9,143,21z M142.4,19.1c0-0.1,0-0.2-0.1-0.3c-0.1-0.1-0.2-0.1-0.3-0.1c0,0-0.1,0-0.1,0.1c0,0,0,0.1,0,0.1
					c0,0.1,0,0.2,0.1,0.3s0.2,0.2,0.3,0.2c0,0,0-0.1,0-0.1C142.4,19.2,142.4,19.1,142.4,19.1z"/>
				<path d="M144.4,28.1h-0.9c-0.8,0-1.6,0.1-2.2,0.2c-0.8,0.2-1.2,0.5-1.2,0.8c0,0.3,0.1,0.7,0.2,1c0.1,0.4,0.2,0.7,0.3,1.1
					c0.1,0.4,0.2,0.7,0.2,1c0,0.2,0,0.4,0,0.5c0,0.2-0.1,0.4-0.1,0.6c-0.1-0.4-0.3-0.8-0.4-1.2c-0.2-0.8-0.4-1.4-0.5-1.8
					c-0.2-0.6-0.3-1-0.3-1.1c0-0.6,0.1-1.1,0.4-1.4c0.3-0.3,0.7-0.6,1.2-0.7c0.4-0.1,1.1-0.2,2-0.3c-0.3-0.3-0.5-0.5-0.6-0.6
					c-0.3-0.2-0.5-0.3-0.8-0.3c-0.2,0-0.3,0-0.5,0.1c-0.1,0.1-0.3,0.2-0.4,0.4l-0.3-0.2c0.2-0.4,0.3-0.7,0.5-0.9
					c0.3-0.4,0.7-0.5,1.1-0.5c0.3,0,0.6,0.1,0.9,0.3c0.3,0.2,0.5,0.4,0.8,0.8c0.1,0.2,0.3,0.4,0.6,0.8V28.1z"/>
				<path d="M147,15.2c0,0.1,0,0.2,0,0.3c0,0.1,0,0.2,0,0.3l-0.6-0.4c-0.3,0.3-0.4,0.4-0.5,0.5c-0.4,0.4-0.7,0.5-0.9,0.5h-0.6
					c0.3-0.1,0.6-0.3,0.9-0.6c0.3-0.2,0.6-0.5,0.7-0.7c-0.2-0.1-0.3-0.2-0.4-0.3c-0.1-0.1-0.2-0.3-0.2-0.4c0-0.3,0.1-0.6,0.3-0.9
					c0.2-0.2,0.4-0.4,0.6-0.4c0.1,0,0.2,0.1,0.4,0.2c0.1,0.1,0.2,0.3,0.2,0.5c0,0.1,0,0.2,0,0.3c0,0.1-0.1,0.3-0.2,0.6
					c0.1,0.1,0.2,0.1,0.3,0.2C147,15,147,15.1,147,15.2z M146.5,14.3c0-0.1,0-0.3-0.1-0.4c-0.1-0.1-0.2-0.2-0.3-0.2
					c-0.1,0-0.1,0-0.1,0.1c0,0,0,0.1,0,0.1c0,0.1,0.1,0.2,0.2,0.3l0.3,0.3C146.4,14.5,146.5,14.4,146.5,14.3z"/>
				<path d="M146.8,18.3c0,0.1-0.1,0.2-0.2,0.3c-0.1,0.1-0.3,0.1-0.5,0.2l-1.4,0.5c0-0.2,0.3-0.4,0.8-0.6c-0.2-0.1-0.3-0.2-0.4-0.2
					c-0.1-0.1-0.2-0.2-0.2-0.3c0-0.2,0.1-0.4,0.4-0.6c0.3-0.3,0.6-0.5,0.8-0.5c0.1,0,0.2,0,0.3,0.1c0.1,0.1,0.1,0.2,0.1,0.3
					c0,0.1,0,0.1,0,0.2s-0.1,0.2-0.1,0.2c-0.2-0.1-0.3-0.2-0.5-0.2c-0.1,0-0.2,0-0.3,0.1s-0.2,0.1-0.2,0.2c0,0.1,0.1,0.2,0.4,0.3
					c0.2,0.1,0.4,0.2,0.6,0.2c0.1,0,0.2,0,0.2,0C146.5,18.3,146.6,18.3,146.8,18.3z M152.2,20.4l-0.4,1.3l-0.4-0.2l0,0.7
					c0,0.7-0.1,1.3-0.3,1.9c-0.2,0.7-0.5,1.3-0.9,2c0.2,0.3,0.3,0.6,0.4,0.8c0.1,0.3,0.2,0.6,0.2,0.9c0,0.2,0,0.3,0,0.5
					c0,0.1,0,0.3-0.1,0.4c-0.5,0.1-1.1,0.2-1.7,0.3c-0.6,0.1-1.2,0.1-1.8,0.1c0-0.1,0-0.2,0-0.2c0-0.4,0.1-0.7,0.2-1
					c0.9-0.4,1.6-1,2.2-1.7c-0.4-0.6-0.6-1.1-0.8-1.4c-0.2-0.3-0.5-0.8-0.9-1.4c-0.2-0.2-0.3-0.4-0.4-0.5c-0.2-0.2-0.3-0.3-0.4-0.3
					c-0.1,0-0.2,0-0.3,0.1c-0.1,0-0.1,0.1-0.2,0.1c-0.1,0-0.3-0.1-0.5-0.3c-0.2-0.2-0.4-0.4-0.7-0.7c-0.2-0.2-0.3-0.4-0.4-0.6
					c-0.1-0.1-0.1-0.3-0.1-0.5c0-0.3,0-0.5,0.1-0.7c0.1-0.3,0.2-0.4,0.3-0.4c0.2,0,0.5,0.2,0.9,0.6c0.3,0.3,0.7,0.8,1.2,1.4
					c0.4,0.5,0.8,1,1.1,1.6l0.8,1.2c0.2,0.4,0.5,0.8,0.7,1.2c0.3-0.7,0.6-1.3,0.7-2c0.1-0.6,0.2-1.3,0.2-2.2l-0.4-0.2
					c0-0.3,0-0.6,0.1-0.9c0.1-0.3,0.1-0.5,0.2-0.7l0.2,0c0,0.2,0.1,0.4,0.4,0.5c0.1,0.1,0.3,0.1,0.5,0.2S152.1,20.3,152.2,20.4z
					 M150.2,27.5c0-0.1,0-0.2-0.1-0.3s-0.1-0.3-0.3-0.6c-0.2,0.2-0.4,0.4-0.7,0.7c-0.3,0.3-0.6,0.5-0.9,0.6c0.6,0,1,0,1.3-0.1
					C150,27.8,150.2,27.7,150.2,27.5z"/>
				<path d="M155.4,26.3c0,0.4-0.1,0.8-0.2,1.1c-0.1,0.2-0.2,0.5-0.5,0.9l-0.1-0.1c0-0.1,0-0.3,0-0.5c0-0.2,0-0.3,0-0.4
					c0-0.5,0-1.2-0.1-2.1c-0.1-0.9-0.2-1.9-0.3-2.9c-0.1-0.6-0.1-1.2-0.2-1.8c0.1-0.2,0.2-0.4,0.3-0.7s0.3-0.5,0.4-0.7
					c0.1,0.6,0.2,1.3,0.3,2.3c0.1,1,0.2,1.8,0.3,2.6C155.3,25,155.4,25.8,155.4,26.3z"/>
				<path class="st0" d="M169.4,28.1h-1.3c-0.8,0-1.4,0-1.8,0.1c-0.4,0-0.6,0.1-0.6,0.2c0,0.2,0.2,0.2,0.7,0.2c0.2,0,0.4,0,0.5,0
					s0.4,0,0.8,0.1c0.2,0,0.4,0.1,0.5,0.1c0.1,0.1,0.2,0.2,0.2,0.4c0,0.9-0.3,1.6-0.9,2c-0.7,0.5-1.8,0.7-3.4,0.7
					c-1.1,0-1.9-0.2-2.6-0.5c-0.7-0.4-1-0.9-1-1.6c0-0.6,0.2-1.2,0.5-1.8c0.1-0.2,0.4-0.7,0.9-1.5l0.3,0.1c-0.2,0.3-0.4,0.6-0.6,0.9
					c-0.3,0.5-0.4,1-0.4,1.3c0,0.6,0.3,1.1,1,1.4c0.6,0.3,1.5,0.4,2.5,0.4c0.7,0,1.4-0.1,1.9-0.2c0.7-0.1,1-0.3,1-0.5
					c0-0.1,0-0.1-0.1-0.2c-0.1,0-0.2-0.1-0.4-0.1c-0.1,0-0.3,0-0.6,0c-0.3,0-0.5,0-0.6,0c-0.3,0-0.5,0-0.7-0.1
					c-0.1-0.1-0.2-0.2-0.2-0.4c0-0.6,0.2-1.1,0.6-1.5c0.3-0.3,0.7-0.5,1.2-0.7c0.4-0.1,0.8-0.2,1.2-0.2h1.3V28.1z M164.7,32.8
					l-0.7,0.6l-0.9-0.5l0.7-0.7L164.7,32.8z M166.3,32.8l-0.7,0.6l-0.8-0.5l0.7-0.7L166.3,32.8z"/>
				<path class="st0" d="M173.3,18c0,0.4-0.1,0.7-0.2,0.9c-0.1,0.3-0.3,0.4-0.6,0.4c-0.1,0-0.2,0-0.3,0c-0.1,0-0.2-0.1-0.3-0.1
					c-0.1,0.2-0.2,0.3-0.3,0.4c-0.2,0.2-0.3,0.2-0.5,0.2c-0.2,0-0.4-0.1-0.5-0.2c-0.1-0.1-0.2-0.3-0.2-0.6c0-0.1,0-0.3,0.1-0.4
					c0-0.1,0.1-0.2,0.1-0.4l0.2-0.1c0,0,0,0.1,0,0.2c0,0.1,0,0.2,0,0.2c0,0.1,0,0.2,0.1,0.3c0,0.1,0.1,0.1,0.2,0.1
					c0.2,0,0.4-0.1,0.5-0.4c0.1-0.1,0.1-0.4,0.2-0.7l0.2,0c0,0.2,0.1,0.4,0.1,0.4c0.1,0.2,0.2,0.2,0.3,0.2c0.2,0,0.3-0.1,0.5-0.4
					c0.1-0.2,0.1-0.4,0.1-0.6l0.2,0c0,0.1,0,0.2,0.1,0.3C173.3,17.9,173.3,18,173.3,18z M173.2,19.6c0,0.2-0.1,0.5-0.4,0.7
					c-0.5,0.2-1.2,0.5-2.2,0.9c0-0.2,0.1-0.4,0.3-0.6C171.3,20.4,172.1,20.1,173.2,19.6z"/>
				<path class="st0" d="M173.2,28.1h-4.3v-1.3h3.8c0-0.6-0.1-1-0.2-1.3c-0.1-0.2-0.3-0.5-0.7-0.9l0.6-1.2c0.4,0.4,0.6,0.8,0.7,1
					c0.1,0.4,0.2,1,0.2,1.9V28.1z M172.5,29.9l-0.6,1.1l-1.2-0.6l0.6-1.1L172.5,29.9z"/>
				<path class="st0" d="M178.3,19.4c0,0.2-0.1,0.4-0.4,0.7c-0.5,0.2-1.2,0.5-2.2,0.9c0-0.2,0.1-0.4,0.3-0.6
					C176.5,20.2,177.2,19.9,178.3,19.4z"/>
				<path class="st0" d="M180.8,28.1c0,0.5-0.2,1.1-0.7,1.7c-0.4,0.5-0.9,0.9-1.5,1.3c-0.6,0.4-1.1,0.5-1.4,0.5
					c-0.3,0-0.7,0-1.1-0.1c-0.3-0.1-0.7-0.2-1.1-0.3c-0.4-0.1-0.7-0.3-1.1-0.4l0.1-0.3c0.3,0.1,0.7,0.1,1,0.2c0.4,0.1,0.7,0.1,1,0.1
					c0.6,0,1.3-0.2,2-0.6c0.6-0.4,1.2-0.8,1.6-1.4c0.4-0.6,0.7-1.1,0.7-1.5c0-0.4-0.1-0.8-0.3-1.2c-0.2-0.3-0.4-0.7-0.8-1.1l0.4-1.2
					c0.4,0.4,0.7,0.7,0.9,1.1c0.2,0.4,0.3,0.9,0.3,1.4V28.1z"/>
				<path class="st0" d="M184.4,17.7c0,0.1,0,0.2,0,0.3c0,0.1,0,0.2,0,0.3l-0.6-0.4c-0.3,0.3-0.4,0.4-0.5,0.5
					c-0.4,0.4-0.7,0.5-0.9,0.5h-0.6c0.3-0.1,0.6-0.3,0.9-0.6c0.3-0.2,0.6-0.5,0.7-0.7c-0.2-0.1-0.3-0.2-0.4-0.3
					c-0.1-0.1-0.2-0.3-0.2-0.4c0-0.3,0.1-0.6,0.3-0.9c0.2-0.2,0.4-0.4,0.6-0.4c0.1,0,0.2,0.1,0.4,0.2c0.1,0.1,0.2,0.3,0.2,0.5
					c0,0.1,0,0.2,0,0.3c0,0.1-0.1,0.3-0.2,0.6c0.1,0.1,0.2,0.1,0.3,0.2C184.4,17.6,184.4,17.7,184.4,17.7z M183.8,16.9
					c0-0.1,0-0.3-0.1-0.4c-0.1-0.1-0.2-0.2-0.3-0.2c-0.1,0-0.1,0-0.1,0.1c0,0,0,0.1,0,0.1c0,0.1,0.1,0.2,0.2,0.3l0.3,0.3
					C183.8,17,183.8,17,183.8,16.9z"/>
				<path class="st0" d="M184.6,28.1h-4.3v-1.3h3.8c0-0.6-0.1-1-0.2-1.3c-0.1-0.2-0.3-0.5-0.7-0.9l0.6-1.2c0.4,0.4,0.6,0.8,0.7,1
					c0.1,0.4,0.2,1,0.2,1.9V28.1z M182.8,21.5l-0.6,1.1L181,22l0.6-1.1L182.8,21.5z M184.6,20.9l-0.6,1.1l-1.2-0.6l0.6-1.1
					L184.6,20.9z"/>
			</g>
		</g>
	</g>
	<rect class="st1" width="218.5" height="44.9"/>
</g>
</svg>
