<?xml version="1.0" encoding="utf-8"?>
<!-- Generator: Adobe Illustrator 19.2.0, SVG Export Plug-In . SVG Version: 6.00 Build 0)  -->
<svg version="1.1" id="Layer_1" xmlns="http://www.w3.org/2000/svg" xmlns:xlink="http://www.w3.org/1999/xlink" x="0px" y="0px"
	 viewBox="0 0 218.5 44.9" style="enable-background:new 0 0 218.5 44.9;" xml:space="preserve">
<style type="text/css">
	.st0{fill:#BA0017;}
	.st1{fill:none;}
</style>
<g>
	<g>
		<g>
			<g>
				<path d="M68.7,28.6c0,0.2-0.1,0.5-0.4,0.7c-0.5,0.2-1.2,0.5-2.2,0.8c0-0.2,0.1-0.4,0.3-0.6C66.9,29.4,67.6,29.1,68.7,28.6z"/>
				<path d="M70.9,27.3h-1.1c-0.4,0-0.7-0.3-1-0.9c-0.2-0.5-0.4-1-0.5-1.7c-0.2,0.3-0.3,0.5-0.6,0.6c-0.2,0.2-0.5,0.2-0.7,0.2
					c-0.6,0-1.1,0-1.5-0.1c-0.4-0.1-0.6-0.2-0.6-0.3c0-0.4,0.3-0.9,0.8-1.4s1.3-1,2.1-1.3c0,0,0-0.1-0.1-0.3c0-0.2,0-0.3,0-0.3
					c0-0.2,0.1-0.4,0.2-0.6c0.1-0.2,0.2-0.3,0.4-0.5c0,0.3,0.1,0.6,0.2,0.9c0.1,0.3,0.1,0.6,0.2,0.9l0.2,1.3
					c0.1,0.7,0.2,1.2,0.3,1.5c0.2,0.5,0.3,0.8,0.5,0.8h1.1V27.3z M68.3,24l-0.1-0.8c-0.4,0.2-0.8,0.3-1,0.5
					c-0.3,0.2-0.5,0.4-0.6,0.7c0.1,0,0.2,0.1,0.4,0.1s0.3,0,0.6,0C67.7,24.5,68,24.3,68.3,24z"/>
				<path d="M74.1,31.8c0,0.2-0.1,0.5-0.4,0.7c-0.5,0.2-1.2,0.5-2.2,0.8c0-0.2,0.1-0.4,0.3-0.6C72.3,32.6,73.1,32.3,74.1,31.8z"/>
				<path d="M74.7,27.3h-4.3V26h3.8c0-0.6-0.1-1-0.2-1.3c-0.1-0.2-0.3-0.5-0.7-0.9l0.6-1.2c0.4,0.4,0.6,0.8,0.7,1
					c0.1,0.4,0.2,1,0.2,1.9V27.3z M73.9,29.1l-0.6,1.1l-1.2-0.6l0.6-1.1L73.9,29.1z"/>
				<path d="M78.2,27.3h-1.1c-0.3,0-0.6-0.1-0.8-0.4c-0.2-0.2-0.3-0.6-0.4-1c-0.1-0.5-0.2-1-0.2-1.7c0-0.6-0.1-1.1-0.1-1.7
					s-0.1-1-0.1-1.3c-0.1-0.3-0.1-0.5-0.2-0.7c-0.1-0.2-0.3-0.4-0.5-0.6l0.9-1.4c0.2,0.6,0.3,1.3,0.4,2.1c0,0.5,0.1,1.7,0.2,3.6
					c0.1,0.9,0.2,1.4,0.4,1.7c0.1,0.2,0.3,0.3,0.5,0.3h1.1V27.3z"/>
				<path d="M82,27.3h-4.3V26h3.8c0-0.6-0.1-1-0.2-1.3c-0.1-0.2-0.3-0.5-0.7-0.9l0.6-1.2c0.4,0.4,0.6,0.8,0.7,1
					c0.1,0.4,0.2,1,0.2,1.9V27.3z M81.3,29.1l-0.6,1.1l-1.2-0.6l0.6-1.1L81.3,29.1z"/>
				<path d="M86,16.4c0,0.2-0.1,0.4-0.4,0.7c-0.5,0.2-1.2,0.5-2.2,0.9c0-0.2,0.1-0.4,0.3-0.6C84.1,17.1,84.9,16.8,86,16.4z"/>
				<path d="M90.3,27.3h-0.6c-0.3,0-0.6,0-0.8-0.1c-0.2-0.1-0.4-0.2-0.6-0.4c-0.2,0.2-0.4,0.3-0.6,0.4c-0.3,0.1-0.6,0.1-1.1,0.1H86
					c-0.3,0-0.5,0-0.8-0.1c-0.2-0.1-0.4-0.2-0.6-0.3c-0.2,0.2-0.5,0.3-0.7,0.4c-0.2,0.1-0.5,0.1-1,0.1h-1.5V26H83
					c0.4,0,0.7,0,0.9-0.1c0.3-0.1,0.4-0.3,0.4-0.7c0-0.1,0-0.3,0-0.4c0-0.1,0-0.3-0.1-0.5l0.3-0.4c0.1,0.5,0.3,0.8,0.3,1
					c0.2,0.4,0.3,0.6,0.5,0.8c0.2,0.2,0.5,0.3,0.8,0.3h0.5c0.4,0,0.7-0.1,0.8-0.2c0.2-0.1,0.3-0.3,0.3-0.6c0-0.2,0-0.3,0-0.4
					c0-0.1,0-0.3-0.1-0.5l0.3-0.4l0.2,0.7c0.1,0.5,0.3,0.9,0.5,1.1c0.2,0.2,0.4,0.3,0.7,0.3c0.1,0,0.2,0,0.3-0.1
					c0.1-0.1,0.1-0.2,0.1-0.3c0-0.3-0.1-0.6-0.3-0.9c0,0-0.2-0.2-0.4-0.5l0.5-0.8c0.2,0.3,0.3,0.6,0.4,0.8c0.1,0.3,0.2,0.8,0.2,1.3
					V27.3z M87.8,21.3l-0.6,1.1L86,21.7l0.6-1.1L87.8,21.3z M88.1,19.3l-0.6,1.1l-1.2-0.6l0.6-1.1L88.1,19.3z M89.6,20.6L89,21.7
					l-1.2-0.6l0.6-1.1L89.6,20.6z"/>
				<path d="M93.5,31.8c0,0.2-0.1,0.5-0.4,0.7c-0.5,0.2-1.2,0.5-2.2,0.8c0-0.2,0.1-0.4,0.3-0.6C91.7,32.6,92.4,32.3,93.5,31.8z"/>
				<path d="M94,27.3h-4.3V26h3.8c0-0.6-0.1-1-0.2-1.3c-0.1-0.2-0.3-0.5-0.7-0.9l0.6-1.2c0.4,0.4,0.6,0.8,0.7,1
					c0.1,0.4,0.2,1,0.2,1.9V27.3z M93.3,29.1l-0.6,1.1l-1.2-0.6l0.6-1.1L93.3,29.1z"/>
				<path d="M103.6,19.1c0,0.1,0,0.2,0,0.3c0,0.1,0,0.2,0,0.3l-0.6-0.4c-0.3,0.3-0.4,0.4-0.5,0.5c-0.4,0.4-0.7,0.5-0.9,0.5h-0.6
					c0.3-0.1,0.6-0.3,0.9-0.6c0.3-0.2,0.6-0.5,0.7-0.7c-0.2-0.1-0.3-0.2-0.4-0.3c-0.1-0.1-0.2-0.3-0.2-0.4c0-0.3,0.1-0.6,0.3-0.9
					c0.2-0.2,0.4-0.4,0.6-0.4c0.1,0,0.2,0.1,0.4,0.2c0.1,0.1,0.2,0.3,0.2,0.5c0,0.1,0,0.2,0,0.3c0,0.1-0.1,0.3-0.2,0.6
					c0.1,0.1,0.2,0.1,0.3,0.2C103.6,18.9,103.6,19,103.6,19.1z M103.1,18.3c0-0.1,0-0.3-0.1-0.4c-0.1-0.1-0.2-0.2-0.3-0.2
					c-0.1,0-0.1,0-0.1,0.1c0,0,0,0.1,0,0.1c0,0.1,0.1,0.2,0.2,0.3l0.3,0.3C103.1,18.4,103.1,18.3,103.1,18.3z"/>
				<path d="M106.5,27.3c0,1.1-0.3,1.9-1,2.4c-0.7,0.6-1.9,0.8-3.4,0.8c-1,0-1.8-0.2-2.3-0.5c-0.6-0.4-0.9-1-0.9-1.7
					c0-0.4,0.1-0.8,0.2-1.3c0.1-0.4,0.3-0.9,0.4-1.3c0.1-0.3,0.3-0.7,0.6-1.2l0.3,0.1c-0.4,0.7-0.6,1.3-0.7,1.7
					c-0.1,0.4-0.2,0.8-0.2,1.1c0,0.6,0.2,1.1,0.7,1.4c0.4,0.3,1.1,0.5,1.9,0.5c1,0,1.8-0.2,2.5-0.5c0.9-0.4,1.4-1,1.4-1.7
					c0-0.5-0.1-1-0.2-1.4c-0.1-0.4-0.3-0.7-0.6-1l0.6-1.5c0.3,0.4,0.5,0.8,0.6,1.2c0.1,0.4,0.2,1,0.2,1.6V27.3z M103.7,21.7
					l-0.6,1.1l-1.2-0.6l0.5-1L103.7,21.7z"/>
				<path d="M111.2,14.9c0,0.2-0.1,0.4-0.4,0.7c-0.5,0.2-1.2,0.5-2.2,0.9c0-0.2,0.1-0.4,0.3-0.6C109.4,15.6,110.1,15.3,111.2,14.9z"
					/>
				<path d="M115.5,27.3H106V26l1.2,0c0.3,0,0.7,0,1-0.1c0.3-0.1,0.7-0.3,1.2-0.5c0.1-0.2,0.2-0.4,0.2-0.7c0.1-0.2,0.1-0.5,0.1-0.7
					c0-0.5-0.1-1.1-0.2-1.7c-0.1-0.5-0.2-1-0.3-1.6c-0.1-0.3-0.2-0.7-0.3-1.2l-0.5-0.2c0-0.3,0.1-0.6,0.2-0.9
					c0.1-0.3,0.2-0.5,0.3-0.8c0.1,0.2,0.3,0.4,0.6,0.5c0.2,0.1,0.5,0.2,0.9,0.2c-0.1,0.5-0.1,0.8-0.1,1c0,0.1-0.1,0.3-0.1,0.5
					c0,0-0.1,0-0.3-0.1l-0.1,0c0.2,0.6,0.3,1.2,0.4,1.8s0.2,1.1,0.2,1.5c0,0.3,0,0.7-0.1,1.2c0,0.2-0.1,0.4-0.1,0.7
					c0.9-0.5,1.4-0.8,1.7-0.9c0.7-0.3,1.4-0.5,1.9-0.5c0.7,0,1.2,0.2,1.5,0.6c0.3,0.4,0.5,0.9,0.5,1.5V27.3z M114.3,25.5
					c0-0.3-0.1-0.4-0.4-0.6c-0.3-0.1-0.6-0.2-1.1-0.2c-0.4,0-0.8,0.1-1.3,0.2c-0.4,0.1-0.8,0.3-1.3,0.5c-0.3,0.2-0.7,0.4-1,0.6h3.3
					C113.7,26,114.3,25.8,114.3,25.5z"/>
				<path d="M121.9,18.6c0,0.2-0.1,0.4-0.4,0.7c-0.5,0.2-1.2,0.5-2.2,0.9c0-0.2,0.1-0.4,0.3-0.6C120.1,19.3,120.8,19,121.9,18.6z"/>
				<path d="M122.2,26.9c0,0.8-0.3,1.6-0.9,2.4c-0.7,0.9-1.5,1.3-2.4,1.3c-0.3,0-0.7,0-1-0.1c-0.3-0.1-0.6-0.1-1-0.3
					c-0.3-0.1-0.7-0.2-1-0.3l0.1-0.3c0.3,0.1,0.6,0.1,0.9,0.2c0.3,0.1,0.6,0.1,0.8,0.1c0.6,0,1.2-0.2,1.7-0.5c0.4-0.2,0.9-0.6,1.3-1
					c0.2-0.2,0.5-0.6,0.9-1.1c-0.7,0-1.2-0.1-1.5-0.3c-0.4-0.2-0.6-0.6-0.6-1.2c0-0.5,0.1-1,0.4-1.4c0.3-0.5,0.6-0.7,1.1-0.7
					c0.4,0,0.8,0.2,0.9,0.7c0.2,0.4,0.2,0.9,0.2,1.6V26.9z M121.8,26.1c-0.1-0.5-0.2-0.8-0.4-1c-0.1-0.2-0.3-0.2-0.5-0.2
					c-0.1,0-0.3,0-0.4,0.1s-0.2,0.2-0.2,0.3c0,0.2,0.1,0.4,0.3,0.5C120.9,26,121.2,26.1,121.8,26.1z"/>
				<path d="M125.4,27.3h-3.7V26h3l-0.9-6.2l-0.4-0.2c0-0.3,0-0.7,0.1-1c0.1-0.3,0.2-0.6,0.3-0.9l0.1,0.1c0,0.3,0.2,0.5,0.5,0.6
					c0.3,0.1,0.5,0.2,0.8,0.3c0,0.2,0,0.5-0.1,0.8c0,0.3-0.1,0.5-0.1,0.6l-0.4-0.1l0.9,5.8V27.3z"/>
				<path d="M128,25.4c0,0.4-0.1,0.8-0.2,1.1c-0.1,0.2-0.2,0.5-0.5,0.9l-0.1-0.1c0-0.1,0-0.3,0-0.5c0-0.2,0-0.3,0-0.4
					c0-0.5,0-1.2-0.1-2.1c-0.1-0.9-0.2-1.9-0.3-2.9c-0.1-0.6-0.1-1.2-0.2-1.8c0.1-0.2,0.2-0.4,0.3-0.7s0.3-0.5,0.4-0.7
					c0.1,0.6,0.2,1.3,0.3,2.3c0.1,1,0.2,1.8,0.3,2.6C128,24.2,128,24.9,128,25.4z"/>
				<path class="st0" d="M139.7,26.9c0,0.8-0.3,1.6-0.9,2.4c-0.7,0.9-1.5,1.3-2.4,1.3c-0.3,0-0.7,0-1-0.1c-0.3-0.1-0.6-0.1-1-0.3
					c-0.3-0.1-0.7-0.2-1-0.3l0.1-0.3c0.3,0.1,0.6,0.1,0.9,0.2c0.3,0.1,0.6,0.1,0.8,0.1c0.6,0,1.2-0.2,1.7-0.5c0.4-0.2,0.9-0.6,1.3-1
					c0.2-0.2,0.5-0.6,0.9-1.1c-0.7,0-1.2-0.1-1.5-0.3c-0.4-0.2-0.6-0.6-0.6-1.2c0-0.5,0.1-1,0.4-1.4c0.3-0.5,0.6-0.7,1.1-0.7
					c0.4,0,0.8,0.2,0.9,0.7c0.2,0.4,0.2,0.9,0.2,1.6V26.9z M139.2,26.1c-0.1-0.5-0.2-0.8-0.4-1c-0.1-0.2-0.3-0.2-0.5-0.2
					c-0.1,0-0.3,0-0.4,0.1s-0.2,0.2-0.2,0.3c0,0.2,0.1,0.4,0.3,0.5C138.3,26,138.7,26.1,139.2,26.1z"/>
				<path class="st0" d="M145.8,27.3H145c-0.3,0-0.7-0.1-1.1-0.2c-0.5-0.2-0.9-0.4-1.3-0.7c-0.3,0.3-0.6,0.6-0.9,0.7
					c-0.3,0.1-0.8,0.2-1.3,0.2h-1.2V26h1.2c0.5,0,0.9-0.1,1.2-0.3c0.3-0.2,0.5-0.4,0.8-0.7c0.3-0.4,0.7-0.8,1.1-1.1
					c0.4-0.3,0.8-0.5,1.1-0.5c0.3,0.5,0.6,1,0.8,1.4c0.3,0.6,0.4,1,0.4,1.4V27.3z M144.9,25.9c-0.1-0.3-0.2-0.6-0.3-0.8
					c-0.1-0.2-0.3-0.5-0.5-0.7c-0.2,0.1-0.4,0.2-0.6,0.3c-0.1,0.1-0.2,0.3-0.4,0.5c0.2,0.2,0.4,0.4,0.8,0.5
					C144.2,25.8,144.5,25.9,144.9,25.9L144.9,25.9z"/>
				<path class="st0" d="M149.5,16.8c0,0.3-0.1,0.6-0.3,0.8c-0.2,0.2-0.5,0.4-0.9,0.4c-0.3,0-0.5-0.1-0.6-0.2
					c-0.1-0.1-0.2-0.4-0.2-0.6c0-0.4,0.1-0.7,0.3-1c0.2-0.3,0.5-0.4,0.8-0.4c0.3,0,0.5,0.1,0.7,0.3
					C149.4,16.3,149.5,16.5,149.5,16.8z M149,17c0-0.1-0.1-0.3-0.3-0.5c-0.2-0.2-0.4-0.3-0.5-0.3c-0.1,0-0.2,0.1-0.3,0.2
					c-0.1,0.1-0.1,0.2-0.1,0.3c0,0.2,0.1,0.3,0.3,0.4c0.1,0.1,0.3,0.1,0.6,0.1c0.1,0,0.2,0,0.3-0.1S149,17.1,149,17z"/>
				<path class="st0" d="M149.6,27.3h-4.3V26h3.8c0-0.6-0.1-1-0.2-1.3c-0.1-0.2-0.3-0.5-0.7-0.9l0.6-1.2c0.4,0.4,0.6,0.8,0.7,1
					c0.1,0.4,0.2,1,0.2,1.9V27.3z M149,20.5l-0.6,1.1l-1.2-0.6l0.6-1.1L149,20.5z"/>
				<path class="st0" d="M153.5,18.6c0,0.2-0.1,0.4-0.4,0.7c-0.5,0.2-1.2,0.5-2.2,0.9c0-0.2,0.1-0.4,0.3-0.6
					C151.7,19.3,152.4,19,153.5,18.6z"/>
				<path class="st0" d="M153.3,27.3H149V26h3.8c0-0.6-0.1-1-0.2-1.3c-0.1-0.2-0.3-0.5-0.7-0.9l0.6-1.2c0.4,0.4,0.6,0.8,0.7,1
					c0.1,0.4,0.2,1,0.2,1.9V27.3z M151.6,29.4l-0.6,1.1l-1.2-0.6l0.6-1.1L151.6,29.4z M153.3,28.8l-0.6,1.1l-1.2-0.6l0.6-1.1
					L153.3,28.8z"/>
			</g>
		</g>
	</g>
	<rect class="st1" width="218.5" height="44.9"/>
</g>
</svg>
