<?xml version="1.0" encoding="utf-8"?>
<!-- Generator: Adobe Illustrator 19.2.0, SVG Export Plug-In . SVG Version: 6.00 Build 0)  -->
<svg version="1.1" id="Layer_1" xmlns="http://www.w3.org/2000/svg" xmlns:xlink="http://www.w3.org/1999/xlink" x="0px" y="0px"
	 viewBox="0 0 186.8 45" style="enable-background:new 0 0 186.8 45;" xml:space="preserve">
<style type="text/css">
	.st0{fill:none;}
</style>
<g>
	<g>
		<g>
			<path d="M37.6,27h-6.9c-1.1,0-1.9-0.1-2.6-0.2c-0.8-0.2-1.4-0.4-1.8-0.8c-0.4-0.4-0.7-0.9-0.7-1.6c0-0.4,0.1-0.9,0.4-1.5
				c0.2-0.4,0.3-0.7,0.4-0.9l0.3,0.2c-0.2,0.4-0.4,0.8-0.4,1c-0.1,0.2-0.1,0.4-0.1,0.6c0,0.6,0.4,1.1,1.1,1.4
				c0.7,0.3,1.9,0.5,3.5,0.5h5.6c-0.6-0.2-1-0.3-1.3-0.5c-0.3-0.2-0.5-0.5-0.5-0.9c0-0.5,0.2-0.9,0.5-1.5c0.4-0.6,0.7-0.9,1.2-0.9
				c0.5,0,0.9,0.3,1.1,0.9c0.2,0.5,0.3,1.2,0.3,2V27z M36.1,19.5l-0.6,1.1L34.2,20l0.6-1.1L36.1,19.5z M36.8,24.8c0-0.4,0-0.8-0.1-1
				c-0.1-0.3-0.3-0.4-0.5-0.4c-0.2,0-0.3,0-0.4,0.2s-0.1,0.2-0.1,0.4c0,0.2,0.1,0.4,0.3,0.5C36.1,24.6,36.3,24.7,36.8,24.8z"/>
			<path d="M40.8,27H37v-1.3h3l-0.9-6.2l-0.4-0.2c0-0.3,0-0.7,0.1-1c0.1-0.3,0.2-0.6,0.3-0.9l0.1,0.1c0,0.3,0.2,0.5,0.5,0.6
				c0.3,0.1,0.5,0.2,0.8,0.3c0,0.2,0,0.5-0.1,0.8c0,0.3-0.1,0.5-0.1,0.6l-0.4-0.1l0.9,5.8V27z"/>
			<path d="M43.5,17.1c0,0.1-0.1,0.2-0.2,0.3c-0.1,0.1-0.3,0.1-0.5,0.2l-1.4,0.5c0-0.2,0.3-0.4,0.8-0.6c-0.2-0.1-0.3-0.2-0.4-0.2
				c-0.1-0.1-0.2-0.2-0.2-0.3c0-0.2,0.1-0.4,0.4-0.6c0.3-0.3,0.6-0.5,0.8-0.5c0.1,0,0.2,0,0.3,0.1c0.1,0.1,0.1,0.2,0.1,0.3
				c0,0.1,0,0.1,0,0.2s-0.1,0.2-0.1,0.2c-0.2-0.1-0.3-0.2-0.5-0.2c-0.1,0-0.2,0-0.3,0.1s-0.2,0.1-0.2,0.2c0,0.1,0.1,0.2,0.4,0.3
				c0.2,0.1,0.4,0.2,0.6,0.2c0.1,0,0.2,0,0.2,0C43.3,17.2,43.4,17.2,43.5,17.1z M43.3,25.1c0,0.4-0.1,0.8-0.2,1.1
				c-0.1,0.2-0.2,0.5-0.5,0.9l-0.1-0.1c0-0.1,0-0.3,0-0.5c0-0.2,0-0.3,0-0.4c0-0.5,0-1.2-0.1-2.1c-0.1-0.9-0.2-1.9-0.3-2.9
				c-0.1-0.6-0.1-1.2-0.2-1.8c0.1-0.2,0.2-0.4,0.3-0.7c0.1-0.3,0.3-0.5,0.4-0.7c0.1,0.6,0.2,1.3,0.3,2.3c0.1,1,0.2,1.8,0.3,2.6
				C43.3,23.9,43.3,24.6,43.3,25.1z"/>
			<path d="M51.5,27h-3.7v-1.3h3.7V27z"/>
			<path d="M55.3,27H51v-1.3h3.8c0-0.6-0.1-1-0.2-1.3c-0.1-0.2-0.3-0.5-0.7-0.9l0.6-1.2c0.4,0.4,0.6,0.8,0.7,1
				c0.1,0.4,0.2,1,0.2,1.9V27z M54.5,28.8l-0.6,1.1l-1.2-0.6l0.6-1.1L54.5,28.8z"/>
			<path d="M67.5,26.1c0,0.8-0.2,1.4-0.6,1.9c-0.3,0.4-0.8,0.7-1.5,0.9c-0.6,0.1-1.3,0.2-2.1,0.2c-1,0-1.7-0.2-2.3-0.5
				c-0.6-0.4-0.9-1-0.9-1.7c0-0.4,0.1-0.9,0.2-1.3c0.1-0.4,0.3-0.8,0.5-1.3c0.2-0.3,0.4-0.7,0.6-1.2l0.2,0.1
				c-0.2,0.3-0.3,0.6-0.5,0.9c-0.2,0.3-0.3,0.7-0.4,0.9c-0.1,0.3-0.1,0.7-0.1,1c0,0.6,0.2,1.1,0.7,1.4c0.5,0.3,1.1,0.5,1.9,0.5
				c0.9,0,1.6-0.1,2.4-0.4c0.8-0.3,1.2-0.7,1.2-1.1c0-0.5-0.1-1.3-0.2-2.4c-0.1-0.9-0.3-1.8-0.4-2.9l-0.3-1.4l-0.3-0.2
				c0-0.7,0.1-1.3,0.4-1.8h0.1c0,0.2,0.1,0.3,0.1,0.4c0,0.1,0.1,0.2,0.3,0.2c0.2,0.1,0.3,0.1,0.5,0.2c0.1,0.1,0.3,0.1,0.4,0.2
				c0,0.3,0,0.6,0,0.7c0,0.2-0.1,0.4-0.2,0.7l-0.4-0.1c0,0.1,0.1,0.6,0.2,1.5c0.2,1,0.3,1.9,0.3,2.5C67.4,24.8,67.5,25.6,67.5,26.1z
				"/>
			<path d="M71.2,27h-4.3v-1.3h3.8c0-0.6-0.1-1-0.2-1.3c-0.1-0.2-0.3-0.5-0.7-0.9l0.6-1.2c0.4,0.4,0.6,0.8,0.7,1
				c0.1,0.4,0.2,1,0.2,1.9V27z M69.5,20.4l-0.6,1.1l-1.2-0.6l0.6-1.1L69.5,20.4z M71.2,19.8l-0.6,1.1l-1.2-0.6l0.6-1.1L71.2,19.8z"
				/>
			<path d="M77.4,27h-1.1c-0.3,0-0.7-0.1-1-0.2c-0.4-0.2-0.7-0.4-0.9-0.8c-0.3,0.3-0.7,0.5-1.2,0.7c-0.5,0.2-1.1,0.3-1.8,0.3h-0.7
				v-1.3h0.7c0.4,0,0.8,0,1.2-0.1c0.4-0.1,0.8-0.3,1.2-0.5l-0.3-0.4c-0.2-0.2-0.3-0.3-0.5-0.3c-0.1,0-0.2,0-0.2,0s-0.1,0.1-0.2,0.2
				h-0.2v-0.4c0-0.5,0.1-0.9,0.4-1.1c0.3-0.2,0.7-0.3,1.4-0.3c0.6,0,1,0.1,1.4,0.2c0.5,0.2,0.7,0.5,0.7,0.9c0,0.2-0.1,0.4-0.3,0.7
				c-0.1,0.2-0.4,0.4-0.7,0.7c0.1,0.1,0.2,0.2,0.5,0.3c0.2,0.1,0.4,0.1,0.6,0.1h1.1V27z"/>
			<path d="M83.5,27h-0.8c-0.3,0-0.7-0.1-1.1-0.2c-0.5-0.2-0.9-0.4-1.3-0.7c-0.3,0.3-0.6,0.6-0.9,0.7C79,26.9,78.6,27,78,27h-1.2
				v-1.3H78c0.5,0,0.9-0.1,1.2-0.3c0.3-0.2,0.5-0.4,0.8-0.7c0.3-0.4,0.7-0.8,1.1-1.1c0.4-0.3,0.8-0.5,1.1-0.5c0.3,0.5,0.6,1,0.8,1.4
				c0.3,0.6,0.4,1,0.4,1.4V27z M82.6,25.6c-0.1-0.3-0.2-0.6-0.3-0.8c-0.1-0.2-0.3-0.5-0.5-0.7c-0.2,0.1-0.4,0.2-0.6,0.3
				c-0.1,0.1-0.2,0.3-0.4,0.5c0.2,0.2,0.4,0.4,0.8,0.5C81.9,25.5,82.2,25.6,82.6,25.6L82.6,25.6z"/>
			<path d="M86.7,27h-3.7v-1.3h3L85,19.5l-0.4-0.2c0-0.3,0-0.7,0.1-1c0.1-0.3,0.2-0.6,0.3-0.9l0.1,0.1c0,0.3,0.2,0.5,0.5,0.6
				c0.3,0.1,0.5,0.2,0.8,0.3c0,0.2,0,0.5-0.1,0.8c0,0.3-0.1,0.5-0.1,0.6l-0.4-0.1l0.9,5.8V27z"/>
			<path d="M89.2,25.1c0,0.4-0.1,0.8-0.2,1.1c-0.1,0.2-0.2,0.5-0.5,0.9l-0.1-0.1c0-0.1,0-0.3,0-0.5c0-0.2,0-0.3,0-0.4
				c0-0.5,0-1.2-0.1-2.1c-0.1-0.9-0.2-1.9-0.3-2.9c-0.1-0.6-0.1-1.2-0.2-1.8c0.1-0.2,0.2-0.4,0.3-0.7s0.3-0.5,0.4-0.7
				c0.1,0.6,0.2,1.3,0.3,2.3c0.1,1,0.2,1.8,0.3,2.6C89.2,23.9,89.2,24.6,89.2,25.1z"/>
			<path d="M102.2,31.1l-1.9,1.2c-1.1,0-1.9,0-2.4-0.1c-1-0.1-1.8-0.4-2.3-0.9c-0.7-0.5-1-1.3-1-2.3c0-0.6,0.1-1.2,0.3-1.6
				c0.2-0.4,0.4-0.8,0.7-1.1c0.1-0.2,0.4-0.4,0.7-0.8c-0.5-0.2-0.8-0.4-1-0.6c-0.4-0.4-0.6-0.9-0.6-1.4c0-0.5,0.2-1,0.7-1.5
				c0.5-0.6,1.1-0.9,1.9-0.9c0.3,0,0.7,0.1,1,0.3c0.2,0.1,0.6,0.3,0.9,0.6c-0.5,0-1,0-1.5,0.1c-0.7,0.1-1.2,0.2-1.6,0.4
				c-0.5,0.2-0.8,0.4-0.8,0.7c0,0.3,0.3,0.6,0.9,0.9c0.5,0.2,1,0.4,1.7,0.5c0.5-0.3,1-0.5,1.5-0.7c0.5-0.2,1.1-0.4,1.7-0.5l-0.3,1.1
				c-1,0.4-1.8,0.7-2.3,0.9c-0.9,0.4-1.7,0.9-2.2,1.3c-0.6,0.6-1,1.2-1,1.9c0,0.7,0.3,1.2,0.8,1.6c0.5,0.3,1.1,0.6,2.1,0.7
				c0.7,0.1,1.6,0.2,2.7,0.2c0.2,0,0.5,0,0.7,0S102,31.1,102.2,31.1L102.2,31.1z"/>
			<path d="M110.2,27c0,0.5-0.2,1.1-0.7,1.7c-0.4,0.5-0.9,0.9-1.5,1.3c-0.6,0.4-1.1,0.5-1.4,0.5c-0.3,0-0.7,0-1.1-0.1
				c-0.3-0.1-0.7-0.2-1.1-0.3c-0.4-0.1-0.7-0.3-1.1-0.4l0.1-0.3c0.3,0.1,0.7,0.1,1,0.2c0.4,0.1,0.7,0.1,1,0.1c0.6,0,1.3-0.2,2-0.6
				c0.6-0.4,1.2-0.8,1.6-1.4c0.4-0.6,0.7-1.1,0.7-1.5c0-0.4-0.1-0.8-0.3-1.2c-0.2-0.3-0.4-0.7-0.8-1.1l0.4-1.2
				c0.4,0.4,0.7,0.7,0.9,1.1c0.2,0.4,0.3,0.9,0.3,1.4V27z"/>
			<path d="M113.8,27h-1.1c-0.3,0-0.6-0.1-0.8-0.4c-0.2-0.2-0.3-0.6-0.4-1c-0.1-0.5-0.2-1-0.2-1.7c0-0.6-0.1-1.1-0.1-1.7
				s-0.1-1-0.1-1.3c-0.1-0.3-0.1-0.5-0.2-0.7c-0.1-0.2-0.3-0.4-0.5-0.6l0.9-1.4c0.2,0.6,0.3,1.3,0.4,2.1c0,0.5,0.1,1.7,0.2,3.6
				c0.1,0.9,0.2,1.4,0.4,1.7c0.1,0.2,0.3,0.3,0.5,0.3h1.1V27z"/>
			<path d="M126.9,27h-9.1c-0.3,0-0.5,0-0.8-0.1c-0.2-0.1-0.4-0.2-0.7-0.3c-0.2,0.2-0.4,0.3-0.6,0.4c-0.2,0.1-0.6,0.1-1,0.1h-1.5
				v-1.3h1.5c0.4,0,0.7,0,0.9-0.1c0.3-0.1,0.4-0.3,0.4-0.7c0-0.1,0-0.3,0-0.4s0-0.3-0.1-0.5l0.3-0.4c0.2,0.7,0.4,1.2,0.7,1.5
				c0.3,0.4,0.7,0.6,1.2,0.6c0.4,0,0.9-0.1,1.5-0.3c0.6-0.2,1.1-0.5,1.6-0.8c0.7-0.5,1.2-0.8,1.3-0.9c0.4-0.3,0.8-0.4,1.1-0.5
				c0.4-0.1,0.8-0.2,1.2-0.2c0.7,0,1.2,0.2,1.6,0.6c0.3,0.4,0.5,0.9,0.5,1.5V27z M122.1,20.9l-0.6,1.1l-1.2-0.6l0.6-1.1L122.1,20.9z
				 M125.7,25.2c0-0.2-0.2-0.4-0.5-0.6c-0.3-0.1-0.7-0.2-1.1-0.2c-0.5,0-1.1,0.2-1.8,0.5c-0.6,0.3-1.1,0.6-1.7,0.8h3.5
				c0.5,0,1,0,1.2-0.1C125.5,25.5,125.7,25.4,125.7,25.2z"/>
			<path d="M133,27h-0.8c-0.3,0-0.7-0.1-1.1-0.2c-0.5-0.2-0.9-0.4-1.3-0.7c-0.3,0.3-0.6,0.6-0.9,0.7c-0.3,0.1-0.8,0.2-1.3,0.2h-1.2
				v-1.3h1.2c0.5,0,0.9-0.1,1.2-0.3c0.3-0.2,0.5-0.4,0.8-0.7c0.3-0.4,0.7-0.8,1.1-1.1c0.4-0.3,0.8-0.5,1.1-0.5
				c0.3,0.5,0.6,1,0.8,1.4c0.3,0.6,0.4,1,0.4,1.4V27z M132.1,25.6c-0.1-0.3-0.2-0.6-0.3-0.8c-0.1-0.2-0.3-0.5-0.5-0.7
				c-0.2,0.1-0.4,0.2-0.6,0.3c-0.1,0.1-0.2,0.3-0.4,0.5c0.2,0.2,0.4,0.4,0.8,0.5C131.5,25.5,131.8,25.6,132.1,25.6L132.1,25.6z"/>
			<path d="M145.2,26.1c0,0.8-0.2,1.4-0.6,1.9c-0.3,0.4-0.8,0.7-1.5,0.9c-0.6,0.1-1.3,0.2-2.1,0.2c-1,0-1.7-0.2-2.3-0.5
				c-0.6-0.4-0.9-1-0.9-1.7c0-0.4,0.1-0.9,0.2-1.3c0.1-0.4,0.3-0.8,0.5-1.3c0.2-0.3,0.4-0.7,0.6-1.2l0.2,0.1
				c-0.2,0.3-0.3,0.6-0.5,0.9c-0.2,0.3-0.3,0.7-0.4,0.9c-0.1,0.3-0.1,0.7-0.1,1c0,0.6,0.2,1.1,0.7,1.4c0.5,0.3,1.1,0.5,1.9,0.5
				c0.9,0,1.6-0.1,2.4-0.4c0.8-0.3,1.2-0.7,1.2-1.1c0-0.5-0.1-1.3-0.2-2.4c-0.1-0.9-0.3-1.8-0.4-2.9l-0.3-1.4l-0.3-0.2
				c0-0.7,0.1-1.3,0.4-1.8h0.1c0,0.2,0.1,0.3,0.1,0.4c0,0.1,0.1,0.2,0.3,0.2c0.2,0.1,0.3,0.1,0.5,0.2c0.1,0.1,0.3,0.1,0.4,0.2
				c0,0.3,0,0.6,0,0.7c0,0.2-0.1,0.4-0.2,0.7l-0.4-0.1c0,0.1,0.1,0.6,0.2,1.5c0.2,1,0.3,1.9,0.3,2.5
				C145.1,24.8,145.2,25.6,145.2,26.1z"/>
			<path d="M151.3,27h-1.1c-0.3,0-0.7-0.1-1-0.2c-0.4-0.2-0.7-0.4-0.9-0.8c-0.3,0.3-0.7,0.5-1.2,0.7c-0.5,0.2-1.1,0.3-1.8,0.3h-0.7
				v-1.3h0.7c0.4,0,0.8,0,1.2-0.1c0.4-0.1,0.8-0.3,1.2-0.5l-0.3-0.4c-0.2-0.2-0.3-0.3-0.5-0.3c-0.1,0-0.2,0-0.2,0s-0.1,0.1-0.2,0.2
				h-0.2v-0.4c0-0.5,0.1-0.9,0.4-1.1c0.3-0.2,0.7-0.3,1.4-0.3c0.6,0,1,0.1,1.4,0.2c0.5,0.2,0.7,0.5,0.7,0.9c0,0.2-0.1,0.4-0.3,0.7
				c-0.1,0.2-0.4,0.4-0.7,0.7c0.1,0.1,0.2,0.2,0.5,0.3c0.2,0.1,0.4,0.1,0.6,0.1h1.1V27z"/>
			<path d="M155.3,27h-4.6v-1.3h2.6c0.3,0,0.6,0,0.8,0c0.2,0,0.5-0.1,0.7-0.1c-0.9-0.1-1.4-0.2-1.7-0.3c-0.6-0.2-0.9-0.7-0.9-1.2
				c0-0.5,0.1-1,0.4-1.5c0.3-0.5,0.7-0.8,1.1-0.8c0.5,0,0.9,0.3,1.2,1c0.2,0.5,0.3,1.1,0.3,1.8V27z M154.7,19.2l-0.7,1.1l-1.1-0.7
				l0.6-1L154.7,19.2z M154.7,24.4c-0.1-0.4-0.2-0.7-0.3-0.9c-0.2-0.4-0.5-0.6-0.8-0.6c-0.1,0-0.3,0.1-0.4,0.2
				c-0.1,0.1-0.2,0.2-0.2,0.4c0,0.4,0.2,0.6,0.6,0.8C153.8,24.4,154.1,24.4,154.7,24.4z"/>
			<path d="M158.6,27h-3.7v-1.3h3l-0.9-6.2l-0.4-0.2c0-0.3,0-0.7,0.1-1c0.1-0.3,0.2-0.6,0.3-0.9l0.1,0.1c0,0.3,0.2,0.5,0.5,0.6
				c0.3,0.1,0.5,0.2,0.8,0.3c0,0.2,0,0.5-0.1,0.8c0,0.3-0.1,0.5-0.1,0.6l-0.4-0.1l0.9,5.8V27z"/>
			<path d="M161.1,25.1c0,0.4-0.1,0.8-0.2,1.1c-0.1,0.2-0.2,0.5-0.5,0.9l-0.1-0.1c0-0.1,0-0.3,0-0.5c0-0.2,0-0.3,0-0.4
				c0-0.5,0-1.2-0.1-2.1c-0.1-0.9-0.2-1.9-0.3-2.9c-0.1-0.6-0.1-1.2-0.2-1.8c0.1-0.2,0.2-0.4,0.3-0.7s0.3-0.5,0.4-0.7
				c0.1,0.6,0.2,1.3,0.3,2.3c0.1,1,0.2,1.8,0.3,2.6C161.1,23.9,161.1,24.6,161.1,25.1z"/>
		</g>
	</g>
	<rect class="st0" width="186.8" height="45"/>
</g>
</svg>
