<?xml version="1.0" encoding="utf-8"?>
<!-- Generator: Adobe Illustrator 22.0.1, SVG Export Plug-In . SVG Version: 6.00 Build 0)  -->
<svg version="1.1" id="Layer_1" xmlns="http://www.w3.org/2000/svg" xmlns:xlink="http://www.w3.org/1999/xlink" x="0px" y="0px"
	 viewBox="0 0 102.4 83.2" style="enable-background:new 0 0 102.4 83.2;" xml:space="preserve">
<style type="text/css">
	.st0{fill:#235958;}
	.st1{fill:#EF5316;}
</style>
<g>
	<path class="st0" d="M32.5,23.2L29,29.3L28.2,29c0.1,1.7,0.3,3.5,0.6,5.5c1.2,9.4,1.9,17,1.9,22.8c0,5.3-1.5,9.4-4.6,12.3
		c-3.1,3-7.3,4.4-12.7,4.4c-3.8,0-6.9-0.8-9.2-2.4C1.4,69.8,0,67.1,0,63.4c0-4.9,2.2-10.3,6.7-16.2l0.9,0.9
		c-1.3,2.1-2.1,3.5-2.4,4.2C4.4,53.8,4,55.4,4,57.1c0,2.5,1.2,4.5,3.7,5.8c2,1.1,4.3,1.7,7.1,1.7c2.1,0,4.4-0.4,7-1.1
		c3.1-0.9,5-2.1,5.9-3.5c0.4-0.7,0.6-1.8,0.6-3.3c0-5.4-0.5-10.6-1.5-15.6c-1-3.6-2.4-9.2-4.1-16.6l-1-1.7c0.8-3.2,2-5.2,3.6-6
		c0.1,1.9,0.9,3.6,2.3,4.9C29,23,30.6,23.5,32.5,23.2z"/>
	<path class="st0" d="M45.4,52.7c0,2.9-0.6,5.9-1.8,9h-1.4c0-4.6-0.5-9.5-1.4-14.7c-1.5-8.5-2.3-13.3-2.3-14.6
		c0-1.4,0.5-2.8,1.4-4.1c0.4-0.6,1.3-1.7,2.9-3.5c0,3.1,0.4,7.7,1.3,13.9C44.9,44.9,45.4,49.6,45.4,52.7z"/>
	<path class="st0" d="M74.8,63.4h-3.9c-0.7,5-1.9,9.2-3.6,12.6c-2.5,4.8-5.7,7.2-9.8,7.2c-2.9,0-6.5-1.4-10.7-4.3l0.6-1
		c1.7,0.3,2.9,0.5,3.7,0.5c2.8,0,5.8-1.2,8.8-3.5c1.3-1,2.8-2.8,4.6-5.6c1.3-2.1,2.6-4.3,3.9-6.4c-2.4-0.8-4.1-2.8-5.3-5.9l4.5-6.6
		c1.5,3,3.2,4.5,5.1,4.5h2.1V63.4L74.8,63.4z M70.8,39.2L68,44.3l-4.8-3.7l2.9-5.1L70.8,39.2z"/>
	<path class="st1" d="M95.2,0c0,1.9-0.6,3.3-1.8,4l-10.9,6.2c0-1.1,0.2-2,0.5-2.4s1-1,2-1.6L95.2,0z"/>
	<path class="st1" d="M102.4,45.8c-0.4,4.2-1.1,6.7-2.1,7.6c-0.8,0.8-4.7,2.6-11.7,5.5s-11,4.4-12.1,4.4h-2.7V55h2.9
		c1.7,0,3-0.5,3.9-1.4c-2.5-2-3.7-3.7-3.7-4.9c0-2.5,1.5-5.6,4.5-9.3s5.7-5.6,8.2-5.6c2.6,0,5.5,2.7,8.8,8c-2-0.8-3.7-1.2-5.1-1.2
		c-2,0-4.1,0.2-6.3,0.7c-3.2,0.8-4.7,1.8-4.7,3.1c0,1,1,2.2,3.1,3.5c2,1.3,3.6,2,4.8,2C92.5,49.9,96.5,48.6,102.4,45.8z M89.4,26
		l-2.8,5l-4.9-3.6l3-5.1L89.4,26z"/>
</g>
</svg>
