<?xml version="1.0" encoding="utf-8"?>
<!-- Generator: Adobe Illustrator 22.0.1, SVG Export Plug-In . SVG Version: 6.00 Build 0)  -->
<svg version="1.1" id="Layer_1" xmlns="http://www.w3.org/2000/svg" xmlns:xlink="http://www.w3.org/1999/xlink" x="0px" y="0px"
	 viewBox="0 0 86.2 86.2" style="enable-background:new 0 0 86.2 86.2;" xml:space="preserve">
<style type="text/css">
	.st0{fill:#235958;}
</style>
<g>
	<g>
		<path class="st0" d="M35.9,10.4c0,1.9-0.6,3.3-1.8,4l-10.9,6.2c0-1.1,0.2-2,0.5-2.4s1-1,2-1.6L35.9,10.4z"/>
	</g>
</g>
<g>
	<path class="st0" d="M61.3,47.8c0,4.7-2.7,8.7-8.1,12s-11.9,5-19.4,5c-2.5,0-4.6-0.9-6.4-2.8c-1.4-2-2.8-3.9-4.3-5.9
		c1.8,0.4,4.4,0.6,7.7,0.6c-0.1,0,1.6-0.2,5.2-0.6c0.8-2.1,1.1-4,1.1-5.5c0-2.7-0.6-6.8-1.6-12.1c-1.1-5.4-1.6-9.4-1.6-12.2l-1-1.5
		c0.8-3.2,2-5.2,3.7-6.1c0.1,1.9,0.8,3.5,2.2,4.9s3.1,1.9,4.9,1.6l-3.5,6.1L39,30.7c-0.2,0.6-0.2,1.2-0.2,1.8c0,1.1,0.2,3,0.6,5.6
		c0.4,2.6,0.6,4.7,0.6,6.1c0,2.5-0.3,5.1-0.9,8c5.7-7.9,10.6-11.8,14.6-11.8c2.3,0,4.1,0.7,5.4,2.1C60.6,43.8,61.3,45.6,61.3,47.8z
		 M57.6,51.3c0-0.9-0.6-1.7-1.9-2.2c-1-0.5-2-0.7-3-0.7c-3.9,0-8,2.6-12.4,7.7h0.9c2.3,0,5.4-0.4,9.2-1.2
		C55.1,53.9,57.6,52.7,57.6,51.3z M52.2,31.3l-2.8,5l-4.9-3.6l2.9-5.1L52.2,31.3z"/>
</g>
</svg>
