<?xml version="1.0" encoding="utf-8"?>
<!-- Generator: Adobe Illustrator 22.0.1, SVG Export Plug-In . SVG Version: 6.00 Build 0)  -->
<svg version="1.1" id="Layer_1" xmlns="http://www.w3.org/2000/svg" xmlns:xlink="http://www.w3.org/1999/xlink" x="0px" y="0px"
	 viewBox="0 0 86.2 86.2" style="enable-background:new 0 0 86.2 86.2;" xml:space="preserve">
<style type="text/css">
	.st0{fill:#235958;}
</style>
<g>
	<path class="st0" d="M54.3,38.7c-1.5-5.6-3.5-8.4-6-8.4c-3,0-5.3,4.4-6.8,13.3c-0.3,1.8-0.5,3-0.5,3.6c0,2.8,1.5,4.2,4.6,4.2
		c1.7,0,3-0.4,3.9-1.2c0.8-0.6,1.5-1.8,2.3-3.5c1.1,2.4,1.6,3.9,1.6,4.5c0,2.6-3.5,3.9-10.5,3.9h-1.7h-2H26.7v8.4h12.5h2h0.6
		c9.4,0,14.2-4.4,14.2-13.1C56,46.7,55.4,42.8,54.3,38.7z M46.4,43.2c-1.4,0-2.1-0.8-2.1-2.4c0-1.3,0.5-2,1.6-2c1,0,2,0.8,3,2.4
		C48.1,42.5,47.3,43.2,46.4,43.2z"/>
	<polygon class="st0" points="47.1,24.1 51.8,27.3 54.8,22.1 50.1,18.4 47.4,23 42.8,19.4 39.9,24.5 44.9,28.2 	"/>
</g>
<g>
	<path class="st0" d="M37.2,17.8l-0.3,3.7c-0.6-0.4-1.6-1-3-1.9C31,23.2,28.5,25,26.4,25c-0.5,0-1.2-0.1-2.3-0.4
		c2.4-1.3,5-3.2,8-5.9c-1.6-1.3-2.3-2.4-2.3-3.5c0-1.3,0.5-2.7,1.4-4.2s2-2.3,3.2-2.3c1.6,0,2.4,1.1,2.4,3.3c0,1.6-0.4,3.1-1.1,4.5
		C36.3,17.1,36.7,17.5,37.2,17.8z M34.6,14.4c0-0.5-0.2-1-0.6-1.6c-0.4-0.6-0.8-0.8-1.3-0.8s-0.8,0.3-0.8,1c0,0.5,0.9,1.3,2.6,2.6
		C34.5,15,34.6,14.6,34.6,14.4z"/>
</g>
</svg>
