<?xml version="1.0" encoding="utf-8"?>
<!-- Generator: Adobe Illustrator 22.0.1, SVG Export Plug-In . SVG Version: 6.00 Build 0)  -->
<svg version="1.1" id="Layer_1" xmlns="http://www.w3.org/2000/svg" xmlns:xlink="http://www.w3.org/1999/xlink" x="0px" y="0px"
	 viewBox="0 0 86.2 86.2" style="enable-background:new 0 0 86.2 86.2;" xml:space="preserve">
<style type="text/css">
	.st0{fill:#235958;}
</style>
<g>
	<polygon class="st0" points="56.4,27.6 61,30.9 64.1,25.9 59.4,22.3 56.5,26.8 52,23.1 49,28.1 54,31.9 	"/>
	<polygon class="st0" points="58.6,18.3 53.9,14.6 50.8,19.6 55.8,23.4 	"/>
	<path class="st0" d="M66.3,29.7c-0.8,2.9-1.4,5.1-1.9,6.5c0.6,0.9,1.3,1.7,1.8,2.6c0.8,1.2,1.2,2.2,1.2,2.9c0,0.4-0.4,0.8-1.1,1.1
		c-0.8,0.4-1.3,0.6-1.8,0.6c-2,0-3.8-0.8-5.2-2.3c-1.3-1.4-2.3-3.2-2.7-5.3l-1,0.1c0.1,0.3,0.1,0.8,0.2,1.6c0.1,0.8,0.1,1.5,0.1,1.9
		c0,2.4-2.2,3.7-6.5,3.8c-1.3,0-2.3-0.5-2.9-1.3c-0.7-0.9-1.3-1.8-2-2.8c-1.6,3.2-2.8,5.6-3.5,7.2c0.2,0.4,0.9,1.4,2.2,3.2
		c1,1.3,1.4,2.4,1.4,3.3c0,0.5-0.1,1.4-0.4,2.9c-0.6,2.9-1.8,4.9-3.5,6c-2.4,1.4-5.8,2.1-10.1,2.1c-4.1,0-7.1-0.6-8.8-1.9
		c-1.3-1-2-3.1-2-6.2c0-1.9,0.8-4.6,2.5-7.9l-1-0.5c-3.5,6.6-5.3,11.6-5.3,15c0,3.2,1.2,5.7,3.7,7.4c2.2,1.6,5,2.3,8.4,2.3
		c6.3,0,11-1.8,14-5.5c2.5-3.1,4.2-7.9,5.1-14.6h2.5l0,0c3.2-0.2,5.6-2.2,7.4-5.9c1.4,3.1,3.4,4.6,5.9,4.6c2.5,0,4.3-1.3,5.6-3.9
		c1.1-2.1,1.6-4.5,1.6-7.2C70.1,35.2,68.8,32,66.3,29.7z"/>
</g>
</svg>
