<?xml version="1.0" encoding="utf-8"?>
<!-- Generator: Adobe Illustrator 23.0.2, SVG Export Plug-In . SVG Version: 6.00 Build 0)  -->
<svg version="1.1" id="Layer_1" xmlns="http://www.w3.org/2000/svg" xmlns:xlink="http://www.w3.org/1999/xlink" x="0px" y="0px"
	 viewBox="0 0 36.6 28.5" style="enable-background:new 0 0 36.6 28.5;" xml:space="preserve">
<g>
	<g>
		<g>
			<g>
				<path d="M20.8,21.9h-6.9c-0.4,0-0.6-0.3-0.6-0.6c0-0.4,0.3-0.6,0.6-0.6h6.9c0.1,0,0.7,0,1-0.4c0.2-0.2,0.3-0.5,0.3-0.9v-5.2
					c0-0.4,0.3-0.6,0.6-0.6s0.6,0.3,0.6,0.6v5.2c0,0.7-0.3,1.4-0.7,1.9C22.1,21.9,21.1,21.9,20.8,21.9z"/>
			</g>
		</g>
	</g>
	<path d="M20.6,8.6c0.6,0,1-0.5,1-1c0-0.6-0.5-1-1-1s-1,0.5-1,1C19.6,8.2,20,8.6,20.6,8.6"/>
	<g>
		<path d="M19.4,11.4c0.6,0,1-0.5,1-1c0-0.6-0.5-1-1-1s-1,0.5-1,1C18.4,11,18.8,11.4,19.4,11.4"/>
		<path d="M21.9,11.4c0.6,0,1-0.5,1-1c0-0.6-0.5-1-1-1s-1,0.5-1,1C20.9,11,21.3,11.4,21.9,11.4"/>
	</g>
</g>
</svg>
