<?xml version="1.0" encoding="utf-8"?>
<!-- Generator: Adobe Illustrator 23.0.2, SVG Export Plug-In . SVG Version: 6.00 Build 0)  -->
<svg version="1.1" id="Layer_1" xmlns="http://www.w3.org/2000/svg" xmlns:xlink="http://www.w3.org/1999/xlink" x="0px" y="0px"
	 viewBox="0 0 36.6 28.6" style="enable-background:new 0 0 36.6 28.6;" xml:space="preserve">
<style type="text/css">
	.st0{fill:#FFFFFF;}
</style>
<g>
	<g>
		<g>
			<g>
				<path class="st0" d="M20.5,21.7H8.2c-3.6,0-4.5-2.8-4.5-4.5c0-1.8,0.2-3.1,0.2-3.3l0,0c0.1-0.4,0.4-0.6,0.8-0.6
					c0.3,0.1,0.6,0.5,0.5,0.8l0,0l0,0c0,0.2-0.2,1.4-0.2,3.1c0,0.1,0,1,0.4,1.7c0.5,0.9,1.4,1.4,2.7,1.4h12.4c1.3,0,2.2-0.5,2.7-1.5
					c0.4-0.8,0.5-1.6,0.5-1.7c0-1.1,0-2.9,0-3.1c0-0.4,0.2-0.7,0.6-0.7c0.4,0,0.7,0.2,0.8,0.6c0,0.1,0,0.2,0,3.2l0,0
					c0,0,0,1.1-0.6,2.2C24,20.5,22.8,21.7,20.5,21.7z M23.7,14.1C23.7,14.2,23.7,14.2,23.7,14.1C23.7,14.2,23.7,14.2,23.7,14.1z"/>
			</g>
			<g>
				<path class="st0" d="M32.1,21.7h-4c-2.3,0-3.4-1.2-3.9-2.3c-0.6-1.1-0.6-2.2-0.6-2.2l0,0c0-3.1,0-3.2,0-3.2
					c0-0.4,0.4-0.6,0.8-0.6c0.4,0,0.6,0.4,0.6,0.7c0,0.2,0,2,0,3.1c0,0.1,0.1,0.9,0.5,1.7c0.5,1,1.4,1.5,2.7,1.5h4
					c0.4,0,0.7,0.3,0.7,0.7C32.8,21.4,32.5,21.7,32.1,21.7z M25,14.1C25,14.2,25,14.2,25,14.1C25,14.2,25,14.2,25,14.1z"/>
			</g>
		</g>
	</g>
	<g>
		<g>
			<circle class="st0" cx="14.5" cy="8" r="1.1"/>
			<g>
				<path class="st0" d="M13.1,12.3c0.7,0,1.1-0.6,1.1-1.1c0-0.7-0.6-1.1-1.1-1.1s-1.1,0.6-1.1,1.1C11.9,11.8,12.4,12.3,13.1,12.3"
					/>
				<path class="st0" d="M15.8,12.3c0.7,0,1.1-0.6,1.1-1.1c0-0.7-0.6-1.1-1.1-1.1s-1.1,0.6-1.1,1.1C14.7,11.8,15.2,12.3,15.8,12.3"
					/>
			</g>
		</g>
	</g>
</g>
</svg>
