<?xml version="1.0" encoding="utf-8"?>
<!-- Generator: Adobe Illustrator 23.0.2, SVG Export Plug-In . SVG Version: 6.00 Build 0)  -->
<svg version="1.1" id="Layer_1" xmlns="http://www.w3.org/2000/svg" xmlns:xlink="http://www.w3.org/1999/xlink" x="0px" y="0px"
	 viewBox="0 0 36.6 28.6" style="enable-background:new 0 0 36.6 28.6;" xml:space="preserve">
<style type="text/css">
	.st0{fill:#FFFFFF;}
</style>
<g>
	<path class="st0" d="M13.6,20.7c0,0-0.1,0-0.1,0c-0.5-0.1-0.9-0.5-0.9-0.9L11.9,10H4.8c-0.6,0-1-0.5-1-1s0.5-1,1-1h8.1
		c0.5,0,1,0.4,1,1l0.5,8.2l7.1-8.7c0.2-0.2,0.5-0.4,0.8-0.4h9.4c0.6,0,1,0.5,1,1s-0.5,1-1,1l-9,0l-8.4,10.3
		C14.2,20.6,13.9,20.7,13.6,20.7z"/>
</g>
</svg>
