<?xml version="1.0" encoding="utf-8"?>
<!-- Generator: Adobe Illustrator 22.0.1, SVG Export Plug-In . SVG Version: 6.00 Build 0)  -->
<svg version="1.1" id="Layer_1" xmlns="http://www.w3.org/2000/svg" xmlns:xlink="http://www.w3.org/1999/xlink" x="0px" y="0px"
	 viewBox="0 0 86.2 86.2" style="enable-background:new 0 0 86.2 86.2;" xml:space="preserve">
<style type="text/css">
	.st0{fill:#235958;}
</style>
<path class="st0" d="M44.8,39.3h-1h-1c-1.9,0-3.7-1.5-5.2-4.5l-4.5,6.6c1.2,3.1,3,5.1,5.3,5.9c-1.3,2.1-2.7,4.3-3.9,6.4
	c-1.8,2.8-3.3,4.7-4.6,5.6c-3,2.3-5.9,3.5-8.8,3.5c-0.8,0-2-0.2-3.7-0.5l-0.6,1c4.2,2.8,7.8,4.3,10.7,4.3c4.1,0,7.4-2.4,9.8-7.3
	c1.7-3.4,2.9-7.6,3.6-12.6h2.8h1h13.5v-8.4C58.2,39.3,44.8,39.3,44.8,39.3z"/>
</svg>
