<?xml version="1.0" encoding="utf-8"?>
<!-- Generator: Adobe Illustrator 21.0.0, SVG Export Plug-In . SVG Version: 6.00 Build 0)  -->
<svg version="1.1" id="Layer_1" xmlns="http://www.w3.org/2000/svg" xmlns:xlink="http://www.w3.org/1999/xlink" x="0px" y="0px"
	 viewBox="0 0 51 48" style="enable-background:new 0 0 51 48;" xml:space="preserve">
<style type="text/css">
	.st0{display:none;fill:#C9720A;}
	.st1{fill:#FFFFFF;}
</style>
<rect class="st0" width="51" height="48"/>
<path class="st1" d="M35.1,15.9l-0.5,2.6c-0.5-0.4-1-0.6-1.5-0.6c-1.1,0-2.3,0.4-3.5,1.2c-1.4,0.9-2.1,1.9-2.1,2.8
	c0,0.7,0.6,1.2,1.7,1.5c1.1,0.2,2.2,0.4,3.3,0.6c1.1,0.2,1.7,0.6,1.7,1.2c0,1-0.2,1.8-0.6,2.3c-0.9,1.2-2.5,2.2-5,3.1
	c-2.3,0.8-4.3,1.2-6,1.2c-1.8,0-3.3-0.4-4.5-1.1c-1.4-0.9-2.1-2.1-2.1-3.8c0-1.2,0.3-2.5,0.9-3.9c0.4-0.8,1-2,1.9-3.6l0.4,0.3
	c-0.7,1.3-1.2,2.2-1.3,2.7c-0.4,1-0.7,2-0.7,2.8c0,1.4,0.7,2.4,2,3.2c1.1,0.6,2.4,0.9,4,0.9c2.6,0,5.3-0.6,8-1.9
	c1.1-0.5,1.7-0.9,1.7-1.2c0-0.4-0.6-0.6-1.7-0.7c-1.7-0.2-2.8-0.4-3.3-0.5c-1.2-0.4-1.7-1.1-1.7-2.1c0-1,0.7-2.2,2-3.7
	c1.2-1.3,2.3-2.3,3.4-2.9c0.8-0.4,1.6-0.6,2.4-0.6C34.2,15.7,34.6,15.8,35.1,15.9z"/>
</svg>
