<?xml version="1.0" encoding="utf-8"?>
<!-- Generator: Adobe Illustrator 16.0.0, SVG Export Plug-In . SVG Version: 6.00 Build 0)  -->
<!DOCTYPE svg PUBLIC "-//W3C//DTD SVG 1.1//EN" "http://www.w3.org/Graphics/SVG/1.1/DTD/svg11.dtd">
<svg version="1.1" id="Layer_1" xmlns="http://www.w3.org/2000/svg" xmlns:xlink="http://www.w3.org/1999/xlink" x="0px" y="0px"
	 width="51px" height="48px" viewBox="0 0 51 48" enable-background="new 0 0 51 48" xml:space="preserve">
<rect display="none" fill="#C9720A" width="51" height="48"/>
<path fill="#FFFFFF" d="M36.355,21.41c0,2.133-0.996,3.659-2.988,4.576c-3.404,1.515-7.232,2.271-11.486,2.271
	c-2.127,0-3.895-0.234-5.305-0.704c-2.084-0.704-3.125-1.877-3.125-3.52c0-0.747,0.538-2.145,1.613-4.192l0.436,0.16
	c-0.537,1.387-0.806,2.208-0.806,2.464c0,2.262,2.552,3.393,7.657,3.393c3.111,0,6.201-0.47,9.268-1.408
	c2.486-0.769,3.729-1.419,3.729-1.952c0-0.256-0.225-0.778-0.672-1.568c-0.381-0.725-0.537-1.141-0.471-1.248l0.908-1.76
	C35.941,19.415,36.355,20.578,36.355,21.41z M27.422,31.17l-1.176,1.952L24.4,31.874l1.141-1.856L27.422,31.17z"/>
</svg>
