<?xml version="1.0" encoding="utf-8"?>
<!-- Generator: Adobe Illustrator 16.0.0, SVG Export Plug-In . SVG Version: 6.00 Build 0)  -->
<!DOCTYPE svg PUBLIC "-//W3C//DTD SVG 1.1//EN" "http://www.w3.org/Graphics/SVG/1.1/DTD/svg11.dtd">
<svg version="1.1" id="Layer_1" xmlns="http://www.w3.org/2000/svg" xmlns:xlink="http://www.w3.org/1999/xlink" x="0px" y="0px"
	 width="51px" height="48px" viewBox="0 0 51 48" enable-background="new 0 0 51 48" xml:space="preserve">
<rect display="none" fill="#C9720A" width="51" height="48"/>
<path fill="#FFFFFF" d="M26.972,27.49c-0.046,1.131-0.214,2.197-0.504,3.2c-0.627,2.239-1.646,3.828-3.056,4.768
	c-1.344,0.853-3.28,1.28-5.811,1.28c-1.5,0-2.742-0.396-3.727-1.185c-1.053-0.854-1.578-1.983-1.578-3.392
	c0-0.726,0.201-1.611,0.604-2.656c0.336-0.853,0.684-1.706,1.041-2.56l0.403,0.159c-0.671,1.686-1.007,3.019-1.007,4
	c0,2.305,1.925,3.456,5.775,3.456c1.209,0,2.485-0.256,3.828-0.768c1.143-0.427,1.926-0.992,2.352-1.696
	c0.313-0.533,0.548-1.451,0.705-2.752c0.089-0.832,0.134-1.354,0.134-1.567c0-0.235-0.168-0.555-0.503-0.96
	c-0.27-0.32-0.527-0.63-0.773-0.929l0.975-2.111c0.514,1.088,1.209,1.61,2.082,1.567v2.145H26.972z"/>
<path fill="#FFFFFF" d="M33.352,17.442l-1.142,1.983l-1.981-1.312l-1.142,1.695L27.24,18.53l1.141-1.889l1.948,1.248l1.075-1.664
	L33.352,17.442z M27.24,25.346c0.918,0,1.746-0.341,2.484-1.023c0.357-0.32,0.571-0.769,0.639-1.345
	c0.021-0.512,0.055-1.023,0.1-1.535h0.27c0.223,0.683,0.699,1.274,1.428,1.775c0.727,0.502,1.46,0.752,2.199,0.752
	c0.111,0,0.291-0.059,0.537-0.176s0.369-0.229,0.369-0.336c0-0.448-0.28-0.906-0.84-1.376l0.639-1.952
	c0.672,0.363,1.008,1.035,1.008,2.016c0,0.96-0.191,1.835-0.571,2.624c-0.493,1.024-1.187,1.536-2.082,1.536
	c-0.762,0-1.635-0.501-2.62-1.504c-0.357,0.684-0.851,1.28-1.477,1.792c-0.717,0.598-1.41,0.896-2.082,0.896V25.346z M31.035,14.274
	l-1.243,1.855l-1.813-1.12l1.142-1.952L31.035,14.274z"/>
</svg>
