<?xml version="1.0" encoding="utf-8"?>
<!-- Generator: Adobe Illustrator 22.0.1, SVG Export Plug-In . SVG Version: 6.00 Build 0)  -->
<svg version="1.1" id="Layer_1" xmlns="http://www.w3.org/2000/svg" xmlns:xlink="http://www.w3.org/1999/xlink" x="0px" y="0px"
	 viewBox="0 0 103.3 84.9" style="enable-background:new 0 0 103.3 84.9;" xml:space="preserve">
<style type="text/css">
	.st0{fill:#235958;}
	.st1{fill:#EF5316;}
</style>
<g>
	<path class="st0" d="M53.6,68.4h-3.8c-2.8,0-4.6-1.3-5.2-3.9c-6.6,4.6-14.8,6.9-24.5,6.9c-5.4,0-9.9-0.9-13.4-2.8
		C2.2,66.3,0,62.7,0,57.8c0-3.1,1.2-7,3.5-11.9l1,0.5c-1,2.4-1.4,4.6-1.4,6.6c0,3.6,2.3,6.3,6.8,8c3.2,1.2,7,1.8,11.4,1.8
		c8.1,0,14.2-0.7,18.1-2.2c1.2-0.4,1.9-0.7,2.1-0.7c0.9-0.4,1.4-0.9,1.6-1.4c0.2-0.5,0.3-1.5,0.2-2.9h0.8c0.8,3,2.9,4.5,6.4,4.5h3
		L53.6,68.4L53.6,68.4z M29.6,79.8l-2.9,5.1l-4.9-3.7l3-4.9L29.6,79.8z"/>
	<path class="st0" d="M72.5,68.4h-3.7c-3.6,0-6-3-7.1-9c-1.7,6-3.9,9-6.6,9h-2.7V60h2.7c3.4,0,5.1-3.2,5.1-9.7
		c0-2.6-0.2-6.6-0.7-11.9s-0.7-9.2-0.7-11.9c0-0.1,1.3-1.3,3.9-3.5c0.5,3.7,0.8,6.9,0.8,9.5c0,5.6,0.2,10.7,0.7,15.1
		c0.9,8.1,2.4,12.2,4.5,12.2h3.7L72.5,68.4L72.5,68.4z"/>
	<path class="st1" d="M87.3,8.5c0,1.9-0.6,3.3-1.8,4l-10.9,6.2c0-1.1,0.2-2,0.5-2.4c0.3-0.4,1-1,2-1.6L87.3,8.5z"/>
	<path class="st1" d="M103.3,22.3c-1.5,3.3-2.8,5.7-3.9,7.2c-0.5,0.8-1.5,1.5-3,2s-3.9,1.4-7.2,2.5C79.8,37,75,38.9,75,40
		c0,0.6,1.3,1.7,4,3.1c7.3,3.8,10.9,8.9,10.9,15.4c0,4-1.5,6.7-4.4,8.3c-2.1,1.1-5.4,1.7-9.8,1.7h-4.4v-8.4H75
		c8.6,0,12.9-0.9,12.9-2.8c0-1.2-2.4-3.6-7.3-7.2c-1.1-0.8-2.2-1.2-3.3-1.2c-0.5,0-1.2-0.3-2.1-1c-0.8-0.6-1.4-1.2-1.6-1.8
		C73.2,45.3,73,43.9,73,42c0-3.2,0.3-5.3,0.8-6.1c1-1.7,5.5-4.2,13.6-7.6C94.1,25.4,99.4,23.5,103.3,22.3z"/>
</g>
<g>
	<path class="st0" d="M60.6,12c0,1.6-0.6,3-1.6,4.3c-1.1,1.2-2.5,1.8-4.1,1.8c-2.7,0-4-1.5-4-4.5c0-1.9,0.4-3.5,1.1-4.8
		c1-1.6,2.3-2.3,4.1-2.3c1.3,0,2.4,0.6,3.3,1.8C60.2,9.4,60.6,10.7,60.6,12z M58.5,13c0-0.6-0.5-1.4-1.6-2.1c-1.1-0.8-2-1.2-2.7-1.2
		c-0.6,0-1.1,0.3-1.6,0.8c-0.5,0.6-0.7,1.1-0.7,1.7c0,1.5,1.1,2.3,3.3,2.3C57.5,14.5,58.5,14,58.5,13z"/>
</g>
</svg>
