<?xml version="1.0" encoding="utf-8"?>
<!-- Generator: Adobe Illustrator 22.0.1, SVG Export Plug-In . SVG Version: 6.00 Build 0)  -->
<svg version="1.1" id="Layer_1" xmlns="http://www.w3.org/2000/svg" xmlns:xlink="http://www.w3.org/1999/xlink" x="0px" y="0px"
	 viewBox="0 0 86.2 86.2" style="enable-background:new 0 0 86.2 86.2;" xml:space="preserve">
<style type="text/css">
	.st0{fill:#235958;}
</style>
<path class="st0" d="M51.7,48.6c-1.2,0-2.8-0.7-4.8-2s-3.1-2.5-3.1-3.5c0-1.3,1.6-2.3,4.7-3.1c2.2-0.5,4.3-0.7,6.3-0.7
	c1.4,0,3.2,0.4,5.1,1.2c-3.2-5.4-6.1-8-8.8-8c-2.5,0-5.2,1.9-8.2,5.6c-3,3.7-4.5,6.8-4.5,9.3c0,1.2,1.2,2.9,3.7,4.9
	c-0.9,0.9-2.4,1.4-4.3,1.4h-0.5h-2H23v8.4h12.5h2h0.6c1,0,5-1.5,12.1-4.4c7-2.9,10.9-4.8,11.7-5.5c1-0.9,1.7-3.5,2.1-7.6
	C58.1,47.3,54,48.6,51.7,48.6z"/>
<g>
	<path class="st0" d="M48.6,22.9l-0.3,3.7c-0.6-0.4-1.6-1-3-1.9c-2.9,3.6-5.4,5.4-7.5,5.4c-0.5,0-1.2-0.1-2.3-0.4
		c2.4-1.3,5-3.2,8-5.9c-1.6-1.3-2.3-2.4-2.3-3.5c0-1.3,0.5-2.7,1.4-4.2s2-2.3,3.2-2.3c1.6,0,2.4,1.1,2.4,3.3c0,1.6-0.4,3.1-1.1,4.5
		C47.7,22.2,48.2,22.6,48.6,22.9z M46,19.5c0-0.5-0.2-1-0.6-1.6c-0.4-0.6-0.8-0.8-1.3-0.8s-0.8,0.3-0.8,1c0,0.5,0.9,1.3,2.6,2.6
		C46,20.1,46,19.7,46,19.5z"/>
</g>
</svg>
