<?xml version="1.0" encoding="utf-8"?>
<!-- Generator: Adobe Illustrator 22.0.1, SVG Export Plug-In . SVG Version: 6.00 Build 0)  -->
<svg version="1.1" id="Layer_1" xmlns="http://www.w3.org/2000/svg" xmlns:xlink="http://www.w3.org/1999/xlink" x="0px" y="0px"
	 viewBox="0 0 86.2 86.2" style="enable-background:new 0 0 86.2 86.2;" xml:space="preserve">
<style type="text/css">
	.st0{fill:#235958;}
</style>
<path class="st0" d="M65.2,40.7c-0.9,0.1-1.7,0.1-2.2,0.1c-4,0-8.5-1-13.7-3C46.1,36.6,43.7,36,42,36c-2.6,0-4.7,1.1-6.1,3.2
	c-0.9,1.4-1.7,3.7-2.5,6.9h5.1c0.6-1,1.5-1.6,2.6-1.6c1.7,0,4.2,0.8,7.4,2.5c-3.6,1.9-5.8,3-6.6,3.3c-2,0.8-4.1,1.2-6.2,1.2h-2.2
	h-2.1H18.8v8.6h12.8h2.1h1.9c0.3,0,1-0.3,2.2-0.9c1.5-0.8,3.7-2.3,6.6-4.6c2.8-2.3,5.1-3.8,6.7-4.7c3.3-1.7,6.9-2.5,10.8-2.5
	c1.9,0,3.4-0.1,4.6-0.2l0.9-6.7C66.9,40.6,66.2,40.6,65.2,40.7z"/>
<path class="st0" d="M41.6,19.5l-0.4,3.6c-0.6-0.4-1.7-1-2.9-1.8c-2.9,3.4-5.3,5.1-7.5,5.1c-0.5,0-1.3-0.1-2.3-0.4
	c2.3-1.3,5-3.1,8-5.6c-1.5-1.3-2.3-2.3-2.3-3.3c0-1.3,0.5-2.5,1.4-3.9s2-2.2,3.2-2.2c1.7,0,2.4,1,2.4,3.2c0,1.5-0.4,2.9-1.1,4.3
	C40.7,18.9,41.2,19.2,41.6,19.5z M39.1,16.3c0-0.5-0.3-1-0.6-1.5c-0.4-0.5-0.9-0.8-1.3-0.8c-0.5,0-0.8,0.4-0.8,1
	c0,0.5,0.9,1.3,2.5,2.4C39.1,16.8,39.1,16.4,39.1,16.3z"/>
</svg>
