<?xml version="1.0" encoding="utf-8"?>
<!-- Generator: Adobe Illustrator 22.0.1, SVG Export Plug-In . SVG Version: 6.00 Build 0)  -->
<svg version="1.1" id="Layer_1" xmlns="http://www.w3.org/2000/svg" xmlns:xlink="http://www.w3.org/1999/xlink" x="0px" y="0px"
	 viewBox="0 0 86.2 86.2" style="enable-background:new 0 0 86.2 86.2;" xml:space="preserve">
<style type="text/css">
	.st0{fill:#235958;}
</style>
<g>
	<path class="st0" d="M68.5,44.9c0,1.3-0.3,3.3-1,5.9c-0.7,2.8-1.3,4.6-2,5.5c-1.7,2.5-6.2,4.6-13.5,6.3c-5.8,1.3-11,1.9-15.6,1.9
		c-4.9,0-9-0.8-12.2-2.4c-4.3-2-6.5-5.2-6.5-9.6c0-2,0.5-4,1.4-6c0.5-1,1.6-2.8,3.2-5.2l0.8,0.7c-1,1.9-1.6,3.8-1.6,5.7
		c0,5.1,5.2,7.7,15.6,7.7c6.8,0,13-0.7,18.4-2c6.5-1.5,9.8-3.3,9.8-5.4c0-0.6-0.5-1.4-1.4-2.4c-0.7-0.7-1.3-1.5-1.9-2.2
		c1.3-3.4,2.3-6.3,2.9-8.7C67.3,38,68.5,41.4,68.5,44.9z M50.1,33.5l-3.1,5l-4.8-3.3l-2.4,4.5l-5.2-3.9l3.2-5.2l4.6,3.6l3-4.6
		L50.1,33.5z"/>
</g>
</svg>
