<?xml version="1.0" encoding="utf-8"?>
<!-- Generator: Adobe Illustrator 22.0.1, SVG Export Plug-In . SVG Version: 6.00 Build 0)  -->
<svg version="1.1" id="Layer_1" xmlns="http://www.w3.org/2000/svg" xmlns:xlink="http://www.w3.org/1999/xlink" x="0px" y="0px"
	 viewBox="0 0 111.5 75" style="enable-background:new 0 0 111.5 75;" xml:space="preserve">
<style type="text/css">
	.st0{fill:#235958;}
	.st1{fill:#EF5316;}
</style>
<path class="st0" d="M49.4,37.8c0,1.3-0.3,3.2-1,5.7c-0.6,2.7-1.3,4.5-1.9,5.4c-1.7,2.5-6,4.5-13.1,6.1c-5.6,1.2-10.7,1.9-15.2,1.9
	c-4.8,0-8.7-0.8-11.9-2.3c-4.2-2-6.3-5.1-6.3-9.3c0-1.9,0.5-3.9,1.4-5.8c0.5-1,1.5-2.7,3.1-5.1L5.3,35c-1,1.9-1.5,3.7-1.5,5.5
	c0,5,5.1,7.5,15.2,7.5c6.6,0,12.6-0.6,17.9-1.9c6.3-1.5,9.5-3.2,9.5-5.2c0-0.5-0.5-1.3-1.4-2.3c-0.6-0.7-1.3-1.4-1.8-2.2
	c1.3-3.3,2.2-6.1,2.8-8.4C48.2,31,49.4,34.3,49.4,37.8z M31.5,26.7l-3,4.9l-4.7-3.2l-2.4,4.3l-5.1-3.8l3.1-5l4.4,3.5l2.9-4.4
	L31.5,26.7z"/>
<path class="st0" d="M78.2,56.1h-4.9C70.7,68.7,66,75,59.1,75c-3.2,0-6.9-1.4-10.9-4.3l0.6-0.9c1.3,0.4,2.7,0.6,4.2,0.6
	c4.5,0,8.3-1.4,11.4-4.2c2.4-2.1,4.8-5.5,7.2-10.2c-2.9,0-4.8-0.2-5.8-0.5c-1.8-0.7-2.7-2.2-2.7-4.6c0-2.2,0.7-5.1,2.2-8.8
	c1.7-4.1,3.3-6.2,5.1-6.2c1.9,0,3.2,3.9,3.9,11.7h3.9C78.2,47.6,78.2,56.1,78.2,56.1z M71.9,47.7c-1.3-2.5-2.7-3.8-4.2-3.8
	c-1.3,0-1.9,0.6-1.9,1.7c0,1.4,1.2,2.1,3.5,2.1H71.9z"/>
<path class="st1" d="M111.5,37l-0.9,6.5c-1.1,0.2-2.5,0.2-4.4,0.2c-3.8,0-7.3,0.8-10.5,2.4c-1.6,0.8-3.8,2.3-6.6,4.5
	c-2.8,2.2-4.9,3.7-6.4,4.5c-1.1,0.6-1.8,0.9-2.1,0.9h-3.9v-8.4h4.1c2,0,4-0.4,6-1.2c0.8-0.3,2.9-1.4,6.4-3.2
	c-3.1-1.6-5.5-2.4-7.2-2.4c-1.1,0-2,0.5-2.6,1.5h-5c0.8-3.1,1.6-5.3,2.4-6.7c1.4-2.1,3.4-3.1,6-3.1c1.6,0,4,0.6,7.1,1.8
	c5,1.9,9.4,2.9,13.3,2.9c0.5,0,1.2,0,2.1-0.1C110.3,37.1,111,37,111.5,37z"/>
<path class="st1" d="M89.8,15.9l-0.4,3.6c-0.6-0.4-1.7-1-2.9-1.8c-2.9,3.4-5.3,5.1-7.5,5.1c-0.5,0-1.3-0.1-2.3-0.4
	c2.3-1.3,5-3.1,8-5.6c-1.5-1.3-2.3-2.3-2.3-3.3c0-1.3,0.5-2.5,1.4-3.9c0.9-1.4,2-2.2,3.2-2.2c1.7,0,2.4,1,2.4,3.2
	c0,1.5-0.4,2.9-1.1,4.3C88.9,15.3,89.4,15.6,89.8,15.9z M87.3,12.7c0-0.5-0.3-1-0.6-1.5c-0.4-0.5-0.9-0.8-1.3-0.8
	c-0.5,0-0.8,0.4-0.8,1c0,0.5,0.9,1.3,2.5,2.4C87.3,13.2,87.3,12.8,87.3,12.7z"/>
</svg>
