<?xml version="1.0" encoding="utf-8"?>
<!-- Generator: Adobe Illustrator 22.0.1, SVG Export Plug-In . SVG Version: 6.00 Build 0)  -->
<svg version="1.1" id="Layer_1" xmlns="http://www.w3.org/2000/svg" xmlns:xlink="http://www.w3.org/1999/xlink" x="0px" y="0px"
	 viewBox="0 0 86.2 86.2" style="enable-background:new 0 0 86.2 86.2;" xml:space="preserve">
<style type="text/css">
	.st0{fill:#235958;}
</style>
<g>
	<polygon class="st0" points="32.5,26.2 37.1,29.5 40.1,24.3 35.5,20.7 32.6,25.2 28.1,21.8 25.1,26.7 30.2,30.3 	"/>
	<path class="st0" d="M46.2,53.5H45h-1c-1.8,0-2.9-0.3-3.3-0.8c-0.5-0.6-1.1-3.8-2-9.9c-1.1-7.5-1.6-11.2-1.6-11.3
		c-2.5,2.5-3.8,4.2-3.8,5.2c0,0.6,0.2,2,0.7,4.1c-2.8,1.6-4.5,2.5-5,2.9c-1.7,1.2-2.8,2.7-3.5,4.3c-1.4,3.1-2.1,5.2-2.1,6.4
		c0,1.1,0.7,2.1,2,2.8c1.2,0.6,2.4,1,3.5,1c1.8,0,4.1-2,7-6c0.3,2.9,0.8,5.1,1.4,6.4c1,2.1,2.7,3.2,5,3.2H45h1.1h13.3v-8.4
		L46.2,53.5L46.2,53.5z M34.1,50.3c-3.6,0-5.5-0.5-5.5-1.5c0-1.1,2-2.7,6-4.8c0.5,2.3,0.8,4,0.8,5.1C35.4,49.9,35,50.3,34.1,50.3z"
		/>
</g>
</svg>
