<?xml version="1.0" encoding="utf-8"?>
<!-- Generator: Adobe Illustrator 22.0.1, SVG Export Plug-In . SVG Version: 6.00 Build 0)  -->
<svg version="1.1" id="Layer_1" xmlns="http://www.w3.org/2000/svg" xmlns:xlink="http://www.w3.org/1999/xlink" x="0px" y="0px"
	 viewBox="0 0 86.2 86.2" style="enable-background:new 0 0 86.2 86.2;" xml:space="preserve">
<style type="text/css">
	.st0{fill:#235958;}
</style>
<path class="st0" d="M66.2,38.7c-0.9,0.1-1.7,0.1-2.2,0.1c-4,0-8.5-1-13.7-3C47.1,34.6,44.7,34,43,34c-2.6,0-4.7,1.1-6.1,3.2
	c-0.9,1.4-1.7,3.7-2.5,6.9h5.1c0.6-1,1.5-1.6,2.6-1.6c1.7,0,4.2,0.8,7.4,2.5c-3.6,1.9-5.8,3-6.6,3.3c-2,0.8-4.1,1.2-6.2,1.2h-2.2
	h-2.1H19.8v8.6h12.8h2.1h1.9c0.3,0,1-0.3,2.2-0.9c1.5-0.8,3.7-2.3,6.6-4.6c2.8-2.3,5.1-3.8,6.7-4.7c3.3-1.7,6.9-2.5,10.8-2.5
	c1.9,0,3.4-0.1,4.6-0.2l0.9-6.7C67.9,38.6,67.2,38.6,66.2,38.7z"/>
<g>
	<path class="st0" d="M41.4,22.9c0,1.7-0.6,3.1-1.7,4.4c-1.1,1.3-2.6,1.9-4.3,1.9c-2.8,0-4.1-1.5-4.1-4.6c0-1.9,0.4-3.6,1.2-5
		c1-1.6,2.4-2.4,4.2-2.4c1.3,0,2.4,0.6,3.4,1.8C41,20.2,41.4,21.5,41.4,22.9z M39.3,23.9c0-0.7-0.6-1.4-1.7-2.2
		c-1.1-0.8-2-1.2-2.7-1.2c-0.6,0-1.1,0.3-1.6,0.9s-0.7,1.2-0.7,1.8c0,1.5,1.1,2.3,3.4,2.3C38.2,25.5,39.3,24.9,39.3,23.9z"/>
</g>
</svg>
