<?xml version="1.0" encoding="utf-8"?>
<!-- Generator: Adobe Illustrator 23.0.2, SVG Export Plug-In . SVG Version: 6.00 Build 0)  -->
<svg version="1.1" id="Layer_1" xmlns="http://www.w3.org/2000/svg" xmlns:xlink="http://www.w3.org/1999/xlink" x="0px" y="0px"
	 viewBox="0 0 36.6 28.6" style="enable-background:new 0 0 36.6 28.6;" xml:space="preserve">
<style type="text/css">
	.st0{fill:#FFFFFF;}
</style>
<g>
	<g>
		<g>
			<g>
				<path class="st0" d="M15.6,18.2c0.4,0,0.8-0.3,0.8-0.8c0-0.4-0.3-0.8-0.8-0.8c-0.4,0-0.8,0.3-0.8,0.8
					C14.8,17.9,15.1,18.2,15.6,18.2"/>
			</g>
		</g>
	</g>
	<g>
		<g>
			<g>
				<path class="st0" d="M10.4,22.1c-1.3-1.2-2-2.8-2-4.7c0-5.8,6.7-6.9,7-6.9c0.6-0.1,2.1-0.1,4.1-0.1c-0.9-0.6-1.5-1.3-1.9-1.8
					l-0.4-0.5c-1.8-2.4-2.4-2.4-3.3-2.5h-0.1c-1.9,0-3.2,2.1-3.3,2.4C10.3,8.3,10,8.3,9.7,8.2C9.5,8.1,9.4,7.7,9.5,7.5
					c0.2-0.3,1.8-3,4.4-2.9C15.3,4.7,16.1,5,18,7.4l0.4,0.5c0.3,0.4,0.9,1.1,1.7,1.6c0.3,0.2,1.5,0.7,2.2,0.9
					c0.2,0.1,0.4,0.3,0.3,0.6c0,0.3-0.3,0.4-0.5,0.4h-2.6c-0.6,0-1.2,0-1.7,0c-1.5,0-2.1,0-2.3,0.1c-0.2,0-6.1,0.9-6.1,5.9
					c0,1.6,0.6,2.9,1.6,3.9c1.7,1.6,4,1.9,4.9,1.8h0.2c1.3-0.1,2.9-0.2,4.4-2.9c0.1-0.2,0.5-0.3,0.7-0.2c0.2,0.1,0.3,0.5,0.2,0.7
					c-1.8,3.1-3.9,3.3-5.2,3.4H16C13.8,24,12.2,23.8,10.4,22.1z"/>
			</g>
		</g>
		<g>
			<path class="st0" d="M27.6,12.7h-5.1c-2.1,0-2.3-1.1-2.3-1.2c0-0.3,0.2-0.6,0.5-0.6s0.5,0.2,0.6,0.4c0,0,0.2,0.3,1.2,0.3h5.1
				c0.3,0,0.5,0.2,0.5,0.5S27.9,12.7,27.6,12.7z M21.3,11.3L21.3,11.3L21.3,11.3z M21.3,11.3L21.3,11.3L21.3,11.3z"/>
		</g>
	</g>
</g>
</svg>
