<?xml version="1.0" encoding="utf-8"?>
<!-- Generator: Adobe Illustrator 23.0.2, SVG Export Plug-In . SVG Version: 6.00 Build 0)  -->
<svg version="1.1" id="Layer_1" xmlns="http://www.w3.org/2000/svg" xmlns:xlink="http://www.w3.org/1999/xlink" x="0px" y="0px"
	 viewBox="0 0 36.6 28.6" style="enable-background:new 0 0 36.6 28.6;" xml:space="preserve">
<style type="text/css">
	.st0{fill:#FFFFFF;}
</style>
<g>
	<path class="st0" d="M20.8,20.8c0.5,0,1-0.4,1-1c0-0.5-0.4-1-1-1c-0.5,0-1,0.4-1,1C19.8,20.3,20.2,20.8,20.8,20.8L20.8,20.8z"/>
	<g>
		<path class="st0" d="M6.4,16.5c-0.4,0-0.7-0.3-0.7-0.7c0-0.4,0.3-0.7,0.7-0.7l20.5,0c-1.5-1.1-2.6-2.5-3-3c-2.3-3-3-3.1-4.2-3.1
			l-0.2,0c-1,0-2,0.5-2.9,1.4c-0.8,0.8-1.2,1.6-1.2,1.6c-0.2,0.3-0.6,0.4-0.9,0.3c-0.3-0.2-0.4-0.6-0.3-0.9c0.1-0.1,0.6-1,1.5-1.9
			c1.3-1.3,2.6-1.9,4.1-1.8c1.7,0.1,2.8,0.5,5.2,3.6c1.1,1.5,3.4,3.8,5.2,3.8c0.4,0,0.7,0.3,0.7,0.7s-0.3,0.7-0.7,0.7L6.4,16.5z"/>
	</g>
</g>
</svg>
