<?xml version="1.0" encoding="utf-8"?>
<!-- Generator: Adobe Illustrator 19.2.0, SVG Export Plug-In . SVG Version: 6.00 Build 0)  -->
<svg version="1.1" id="Layer_1" xmlns="http://www.w3.org/2000/svg" xmlns:xlink="http://www.w3.org/1999/xlink" x="0px" y="0px"
	 viewBox="0 0 201.8 33.9" style="enable-background:new 0 0 201.8 33.9;" xml:space="preserve">
<style type="text/css">
	.st0{fill:#097B70;}
	.st1{fill:none;}
</style>
<g>
	<g>
		<path class="st0" d="M90,23.9h-1.4c-0.3,0-0.5-0.1-0.7-0.2c-0.4-0.2-0.8-0.6-1-1.1c-0.4-0.8-0.6-1.8-0.7-3.1
			c-0.5,0.6-0.9,1-1.1,1.3c-0.4,0.4-0.7,0.5-1,0.5c-0.1,0-0.3,0-0.5-0.1L82.2,21c-0.6-0.1-0.9-0.2-1-0.2C81,20.7,81,20.6,81,20.5
			c0-0.2,0.2-0.8,0.7-1.8c0.5-1,0.9-1.7,1.1-1.9c0.2-0.2,0.5-0.4,0.9-0.7c0.3-0.2,0.7-0.4,1.2-0.7l0.6-0.3c0-0.1,0-0.2,0-0.3
			c0-0.1,0-0.2,0-0.3c0-0.3,0.1-0.6,0.2-1c0.1-0.4,0.3-0.9,0.7-1.5l1,6.7c0.2,1,0.4,1.8,0.6,2.1c0.2,0.2,0.4,0.4,0.7,0.4H90V23.9z
			 M87.6,8.9l-1.2,2L84.9,10L84,11.7l-2-1.1l1.1-1.9l1.6,0.8l0.9-1.6L87.6,8.9z M85.9,17.8l-0.2-1.3c-0.2,0.1-0.4,0.2-0.5,0.3
			c-0.4,0.2-0.7,0.4-0.9,0.6c-0.2,0.1-0.3,0.3-0.4,0.4c-0.1,0.2-0.2,0.3-0.2,0.4c0,0.1,0.1,0.2,0.4,0.2s0.5,0.1,0.7,0.1
			c0.2,0,0.3,0,0.5-0.1C85.3,18.2,85.6,18.1,85.9,17.8z"/>
		<path class="st0" d="M95.1,23.9h-5.9V21h4.6l-1.3-7.2l-0.7-0.4c0-0.4,0.1-0.8,0.2-1.3c0.2-0.5,0.4-1.2,0.8-1.9l0.5,0.3
			c0,0,0,0.2,0,0.3c0,0.2,0.2,0.5,0.4,0.7c0.3,0.2,0.7,0.4,1.3,0.7c-0.1,0.5-0.2,0.9-0.3,1.3c-0.1,0.4-0.3,0.8-0.4,1.2L94,14.4
			l1.2,6.6V23.9z"/>
		<path class="st0" d="M100.3,23.9h-1.5c-0.8,0-1.4-0.3-1.8-1c-0.4-0.8-0.6-2-0.6-3.8v-3c0-0.7-0.1-1.2-0.3-1.6
			c-0.1-0.2-0.3-0.5-0.6-0.8l1.2-2.7c0.4,0.6,0.7,1.1,0.9,1.7c0.2,0.6,0.3,1.5,0.3,2.5v2.1c0,1.5,0.1,2.5,0.3,3.1
			c0.2,0.5,0.4,0.7,0.7,0.7h1.5V23.9z"/>
		<path class="st0" d="M111.7,23.9H99.5V21h7.6c-0.9-0.9-1.7-1.5-2.4-1.9c-0.6-0.3-1.3-0.5-1.9-0.5c-0.2,0-0.4,0-0.5,0
			c-0.2,0-0.4,0.1-0.7,0.1c0.4-0.9,0.8-1.6,1.3-2c0.5-0.4,1-0.6,1.6-0.6c0.5,0,0.9,0.1,1.4,0.3c0.4,0.2,0.9,0.6,1.5,1.1
			c0.4,0.4,1,1,1.8,1.9c0.5,0.6,0.9,1,1.2,1.2c0.3,0.2,0.7,0.3,1.3,0.4V23.9z"/>
		<path class="st0" d="M116.8,23.9H111V21h4.6l-1.3-7.2l-0.7-0.4c0-0.4,0.1-0.8,0.2-1.3c0.2-0.5,0.4-1.2,0.8-1.9l0.5,0.3
			c0,0,0,0.2,0,0.3c0,0.2,0.2,0.5,0.4,0.7c0.3,0.2,0.7,0.4,1.3,0.7c-0.1,0.5-0.2,0.9-0.3,1.3c-0.1,0.4-0.3,0.8-0.4,1.2l-0.4-0.1
			l1.2,6.6V23.9z"/>
		<path class="st0" d="M120.8,20.8c0,0.6-0.1,1.2-0.2,1.7c-0.1,0.5-0.4,1.2-0.9,2.1l-0.6-0.3c0.2-0.9,0.3-1.7,0.3-2.2
			c0-0.4,0-1.1-0.1-1.9c-0.1-0.8-0.2-1.7-0.3-2.5c-0.1-0.8-0.3-1.8-0.5-2.9c-0.1-0.4-0.1-0.7-0.1-0.8c0-0.2,0.1-0.6,0.3-1.1
			c0.2-0.5,0.5-1.2,0.9-1.9l0.6,3.8c0.2,1.4,0.4,2.7,0.5,3.7C120.7,19.2,120.8,20,120.8,20.8z"/>
	</g>
	<rect class="st1" width="201.8" height="33.9"/>
</g>
</svg>
