<?xml version="1.0" encoding="utf-8"?>
<!-- Generator: Adobe Illustrator 22.0.1, SVG Export Plug-In . SVG Version: 6.00 Build 0)  -->
<svg version="1.1" id="Layer_1" xmlns="http://www.w3.org/2000/svg" xmlns:xlink="http://www.w3.org/1999/xlink" x="0px" y="0px"
	 viewBox="0 0 86.2 86.2" style="enable-background:new 0 0 86.2 86.2;" xml:space="preserve">
<style type="text/css">
	.st0{fill:#235958;}
</style>
<path class="st0" d="M37.6,31.3c1.7,0,3.1-0.6,4.2-1.9c1.1-1.2,1.7-2.7,1.7-4.3c0-1.3-0.4-2.6-1.3-3.8c-0.9-1.2-2-1.8-3.3-1.8
	c-1.8,0-3.2,0.8-4.1,2.3c-0.8,1.3-1.1,3-1.1,4.9C33.5,29.8,34.9,31.3,37.6,31.3z M35.4,23.6c0.5-0.6,1-0.8,1.6-0.8
	c0.7,0,1.6,0.4,2.7,1.2c1.1,0.8,1.6,1.5,1.6,2.1c0,1-1.1,1.5-3.2,1.5c-2.2,0-3.3-0.8-3.3-2.3C34.7,24.8,34.9,24.2,35.4,23.6z"/>
<g>
	<path class="st0" d="M52.2,51.5c1.4-2.3,2-5.1,2-8.6c0-3-0.9-6.6-2.8-10.8c-2.4,4.6-3.6,7.4-3.6,8.4c0,0.7,0.5,1.6,1.4,2.7
		s1.4,1.8,1.4,2c0,1.3-2.8,2-8.5,2H29.6v8.5h12.5h2.7h1.1v-0.1C48.6,55.2,50.7,53.9,52.2,51.5z"/>
	<polygon class="st0" points="46.1,63.6 51.1,67.2 54.1,62.1 49.2,58.5 	"/>
</g>
</svg>
