<?xml version="1.0" encoding="utf-8"?>
<!-- Generator: Adobe Illustrator 22.0.1, SVG Export Plug-In . SVG Version: 6.00 Build 0)  -->
<svg version="1.1" id="Layer_1" xmlns="http://www.w3.org/2000/svg" xmlns:xlink="http://www.w3.org/1999/xlink" x="0px" y="0px"
	 viewBox="0 0 86.2 86.2" style="enable-background:new 0 0 86.2 86.2;" xml:space="preserve">
<style type="text/css">
	.st0{fill:#235958;}
</style>
<g>
	<polygon class="st0" points="53.5,56 50.6,60.7 45.9,56.9 42.6,62.2 47.9,66.1 50.3,61.7 55.3,65.1 58.5,59.8 	"/>
	<path class="st0" d="M45.4,52.9c3.4,0,5.9-1.4,7.6-4.2c1.4-2.4,2.1-5.4,2.1-9c0-3.2-1-6.9-3-11.3c-2.5,4.8-3.7,7.7-3.7,8.7
		c0,0.7,0.5,1.7,1.5,2.8s1.5,1.8,1.5,2.1c0,1.4-1.7,2-5.2,2h-1.4h-2.2h-13v8.8h13h2.2h0.6C45.4,52.8,45.4,52.9,45.4,52.9z"/>
</g>
</svg>
