<?xml version="1.0" encoding="utf-8"?>
<!-- Generator: Adobe Illustrator 22.0.1, SVG Export Plug-In . SVG Version: 6.00 Build 0)  -->
<svg version="1.1" id="Layer_1" xmlns="http://www.w3.org/2000/svg" xmlns:xlink="http://www.w3.org/1999/xlink" x="0px" y="0px"
	 viewBox="0 0 86.2 86.2" style="enable-background:new 0 0 86.2 86.2;" xml:space="preserve">
<style type="text/css">
	.st0{fill:#235958;}
</style>
<g>
	<polygon class="st0" points="44.5,26.2 49.4,29.6 52.5,24.4 47.7,20.5 44.7,25.2 39.8,21.4 36.8,26.7 42.1,30.6 	"/>
	<path class="st0" d="M57.5,44.6h-2.9h-2.5c-0.7-3.4-1.2-5.5-1.4-6.4c-1-2.8-2.4-4.2-4.1-4.2c-1,0-1.9,0.3-2.6,0.9
		c-1,0.7-2.1,2.9-3.4,6.4c-1.3,3.5-2,6-2,7.5c0,2.4,1.4,3.8,4.2,4.3c0.8,0.2,3.1,0.3,7,0.3c0,7.4-5.6,11.1-16.9,11.1
		c-3.2,0-5.9-0.7-8-2.1c-2.4-1.6-3.6-3.9-3.6-7c0-2.5,1.3-5.9,4-10.2l-0.9-0.9c-2.1,3-3.6,5.6-4.5,7.7c-1.1,2.7-1.7,5.6-1.7,8.8
		c0,8.9,4.2,13.3,12.5,13.3c5.9,0,10.9-2,14.9-5.9c3.8-3.8,6-8.7,6.6-14.7h2.5h2.9H70v-8.8L57.5,44.6L57.5,44.6z M46.7,44.6
		c-2.6,0-3.9-0.8-3.9-2.3c0-1.1,0.6-1.6,1.7-1.6c2.1,0,3.6,1.3,4.3,3.9C48.8,44.6,46.7,44.6,46.7,44.6z"/>
</g>
</svg>
