<?xml version="1.0" encoding="utf-8"?>
<!-- Generator: Adobe Illustrator 19.2.0, SVG Export Plug-In . SVG Version: 6.00 Build 0)  -->
<svg version="1.1" id="Layer_1" xmlns="http://www.w3.org/2000/svg" xmlns:xlink="http://www.w3.org/1999/xlink" x="0px" y="0px"
	 viewBox="0 0 242.6 39.4" style="enable-background:new 0 0 242.6 39.4;" xml:space="preserve">
<style type="text/css">
	.st0{fill:#CC4A6C;}
	.st1{fill:none;}
</style>
<g>
	<g>
		<g>
			<g>
				<path class="st0" d="M44.9,32h-1.8c-0.9-1.4-1.7-2.9-2.2-4.4c-0.5-1.5-0.7-3-0.7-4.5c0-1.8,0.3-3.5,0.9-5.1
					c0.5-1.4,1.2-2.7,2-3.8h1.8c-0.8,1.9-1.4,3.5-1.7,4.8s-0.5,2.7-0.5,4.2c0,1,0.1,2.1,0.3,3.1c0.2,1.1,0.4,2.1,0.8,3
					C43.9,29.9,44.3,30.8,44.9,32z"/>
				<path class="st0" d="M55.8,24.8c0,0.9-0.1,1.5-0.3,2.1c-0.2,0.5-0.4,0.9-0.8,1.2c-0.4,0.3-0.9,0.6-1.7,0.8
					c-0.7,0.2-1.5,0.3-2.3,0.3c-1.5,0-2.7-0.3-3.5-0.8S46.1,27,46.1,26c0-0.9,0.1-1.6,0.4-2.4c0.3-0.8,0.8-1.8,1.7-3.1l0.6,0.4
					c-0.6,1-1,1.8-1.2,2.3s-0.3,1-0.3,1.5c0,0.6,0.3,1.2,1,1.6c0.7,0.4,1.6,0.6,2.7,0.6c1.1,0,2-0.2,2.8-0.6
					c0.8-0.4,1.1-0.9,1.1-1.6c0-0.4-0.1-0.8-0.2-1.1c-0.1-0.4-0.4-1-0.9-1.8l0.8-2.5c0.4,0.8,0.7,1.3,0.8,1.6c0.2,0.5,0.3,1.2,0.3,2
					V24.8z M52.7,17.5l-1.1,2.1l-2.2-1.1l1.1-2.1L52.7,17.5z"/>
				<path class="st0" d="M60.9,25.2h-5.8v-2.5H60c-0.1-0.4-0.2-0.8-0.4-1.1c-0.1-0.2-0.3-0.4-0.6-0.8l0.7-2.2
					c0.5,0.5,0.8,1.1,0.9,1.6c0.2,0.6,0.3,1.4,0.3,2.6V25.2z M60.8,26.9l-1,1.9L58.4,28l-0.7,1.5L56,28.5l1-1.8l1.4,0.7l0.8-1.5
					L60.8,26.9z"/>
				<path class="st0" d="M66.1,25.2h-5.8v-2.5h4.9c-0.1-0.4-0.2-0.8-0.4-1.1c-0.1-0.2-0.3-0.4-0.6-0.8l0.7-2.2
					c0.5,0.5,0.8,1.1,0.9,1.6c0.2,0.6,0.3,1.4,0.3,2.6V25.2z M66.1,15.2L65,17.2l-2.2-1.1L64,14L66.1,15.2z"/>
				<path class="st0" d="M71.2,25.2h-5.8v-2.5h4.9c-0.1-0.4-0.2-0.8-0.4-1.1c-0.1-0.2-0.3-0.4-0.6-0.8l0.7-2.2
					c0.5,0.5,0.8,1.1,0.9,1.6c0.2,0.6,0.3,1.4,0.3,2.6V25.2z M71.1,15.3l-1,1.9l-1.3-0.7L68,18L66.3,17l1-1.8l1.4,0.7l0.8-1.5
					L71.1,15.3z M69.3,13.1l-0.9,1.9l-1.7-0.9l0.9-1.9L69.3,13.1z"/>
				<path class="st0" d="M80.2,15.4c0,0.4,0,0.9-0.1,1.3c0,0.2-0.1,0.5-0.3,1l-0.7-0.3c0,0.7-0.1,1.5-0.3,2.2s-0.5,1.4-0.8,2.1
					c0.3,0.6,0.5,1,0.6,1.1c0.1,0.3,0.2,0.5,0.2,0.8v0.3c0,0.2,0,0.8-0.1,1.9c-0.7,0.3-1.3,0.6-1.9,0.6c-0.6,0.1-1.4,0.1-2.5,0.1
					v-2.7c0.6-0.3,1.1-0.6,1.3-0.8c0.3-0.2,0.6-0.6,1.1-1.1C76,21,75.5,20.4,75.2,20c-0.3-0.3-0.6-0.6-1-1c-0.1,0.2-0.2,0.3-0.2,0.4
					c0,0.1-0.1,0.1-0.1,0.1c-0.1,0-0.4-0.1-0.8-0.4c-0.4-0.2-0.6-0.4-0.8-0.6c-0.2-0.2-0.3-0.5-0.4-1c-0.1-0.5-0.2-1.1-0.2-1.9
					c0-0.3,0-0.6,0.1-0.7s0.1-0.2,0.3-0.2c0.2,0,0.7,0.3,1.5,1c0.6,0.6,1.2,1.2,1.7,1.8c0.4,0.4,0.7,0.9,1.1,1.3
					c0.3,0.4,0.7,1,1.3,1.9c0.3-0.5,0.5-1.2,0.6-2c0.1-0.5,0.1-1.1,0.1-1.8c-0.2-0.1-0.4-0.2-0.5-0.3c-0.1-0.1-0.1-0.2-0.1-0.4
					c0-0.4,0-0.7,0.1-1.1c0.1-0.4,0.2-0.8,0.4-1.2l0.4,0.1c0,0.4,0.1,0.7,0.3,0.8C78.8,15,79.3,15.1,80.2,15.4z M74.3,12.8
					c-0.1,0.2-0.1,0.3-0.2,0.4c-0.1,0.1-0.2,0.1-0.3,0.2l-2,0.6c0.1-0.2,0.2-0.4,0.3-0.5s0.3-0.2,0.5-0.3c-0.2-0.1-0.3-0.2-0.4-0.3
					s-0.1-0.2-0.1-0.3c0-0.1,0-0.2,0.1-0.3c0-0.1,0.1-0.2,0.2-0.3c0.4-0.5,0.8-0.8,1.2-0.8c0.1,0,0.2,0,0.3,0.1
					c0.1,0.1,0.1,0.2,0.1,0.3c0,0.1,0,0.2,0,0.3c0,0.1-0.1,0.2-0.2,0.3c-0.3-0.2-0.5-0.2-0.6-0.2s-0.2,0-0.3,0.1
					c-0.1,0-0.1,0.1-0.2,0.1c0,0.1,0.1,0.2,0.4,0.4s0.5,0.3,0.6,0.3C73.8,13,74,12.9,74.3,12.8z M77.7,23.5l-0.4-0.7
					c-0.3,0.3-0.5,0.5-0.6,0.6c-0.1,0.1-0.4,0.3-0.8,0.6c0.5,0,0.8-0.1,1-0.2C77.1,23.8,77.4,23.7,77.7,23.5z"/>
				<path class="st0" d="M83.9,22.6c0,0.5-0.1,1.1-0.2,1.5s-0.4,1.1-0.8,1.8l-0.6-0.2c0.1-0.8,0.2-1.4,0.2-1.9c0-0.4,0-0.9-0.1-1.7
					c-0.1-0.7-0.1-1.5-0.2-2.2c-0.1-0.7-0.2-1.6-0.5-2.6c-0.1-0.3-0.1-0.6-0.1-0.7c0-0.2,0.1-0.5,0.3-1c0.2-0.5,0.5-1,0.8-1.7
					l0.6,3.3c0.2,1.2,0.3,2.3,0.4,3.2C83.9,21.2,83.9,21.9,83.9,22.6z"/>
				<path class="st0" d="M104.2,25.2H103c-1.1,0-2.3,0-3.7,0.1c-0.8,0-1.9,0.1-3.2,0.1c-1.3,0.1-2,0.1-2.1,0.1
					c-1.3,0-2.3-0.2-2.9-0.7c-0.5-0.4-0.8-1.1-0.8-2c0-0.7,0.1-1.3,0.2-1.8c0.1-0.5,0.5-1.4,0.9-2.5l0.6,0.3
					c-0.4,1.1-0.7,1.8-0.7,2.3c0,0.6,0.3,1.1,0.8,1.4c0.6,0.3,1.5,0.5,2.9,0.5c0.9-0.1,1.9-0.1,2.8-0.1c0.9,0,1.8-0.1,2.6-0.1
					c-0.3-0.1-0.4-0.3-0.5-0.4s-0.1-0.4-0.1-0.7c0-0.9,0.3-1.8,0.8-2.6c0.6-0.9,1.2-1.4,1.9-1.4c0.7,0,1.1,0.5,1.4,1.4
					c0.3,0.8,0.4,2.1,0.4,3.8V25.2z M103.5,14.3l-1.1,2.1l-2.2-1.1l1.1-2.1L103.5,14.3z M102.8,21.6c-0.2-0.6-0.4-1-0.5-1.2
					c-0.1-0.2-0.3-0.3-0.6-0.3c-0.1,0-0.2,0-0.3,0.1c-0.1,0.1-0.1,0.2-0.1,0.3c0,0.2,0.1,0.4,0.4,0.5S102.3,21.4,102.8,21.6z"/>
				<path class="st0" d="M108.7,25.2h-5.1v-2.5h4l-1.1-6.3l-0.6-0.4c0-0.4,0.1-0.7,0.2-1.1c0.1-0.5,0.4-1,0.7-1.7l0.4,0.2
					c0,0,0,0.1,0,0.3c0,0.2,0.1,0.4,0.4,0.6c0.2,0.2,0.6,0.4,1.1,0.6c-0.1,0.4-0.1,0.8-0.2,1.2s-0.2,0.7-0.4,1l-0.3-0.1l1,5.7V25.2z
					"/>
				<path class="st0" d="M112.1,12.8c-0.1,0.2-0.1,0.3-0.2,0.4c-0.1,0.1-0.2,0.1-0.3,0.2l-2,0.6c0.1-0.2,0.2-0.4,0.3-0.5
					c0.1-0.1,0.3-0.2,0.5-0.2c-0.2-0.1-0.3-0.2-0.4-0.3s-0.1-0.2-0.1-0.3c0-0.1,0-0.2,0.1-0.3c0-0.1,0.1-0.2,0.2-0.3
					c0.4-0.5,0.8-0.8,1.2-0.8c0.1,0,0.2,0,0.3,0.1c0.1,0.1,0.1,0.2,0.1,0.3c0,0.1,0,0.2,0,0.3c0,0.1-0.1,0.2-0.2,0.3
					c-0.3-0.2-0.5-0.2-0.6-0.2s-0.2,0-0.3,0.1c-0.1,0-0.1,0.1-0.2,0.1c0,0.1,0.1,0.2,0.4,0.4s0.5,0.3,0.6,0.3
					C111.5,13,111.7,12.9,112.1,12.8z M112.1,22.6c0,0.5-0.1,1.1-0.2,1.5s-0.4,1.1-0.8,1.8l-0.6-0.2c0.1-0.8,0.2-1.4,0.2-1.9
					c0-0.4,0-0.9-0.1-1.7c-0.1-0.7-0.1-1.5-0.2-2.2c-0.1-0.7-0.2-1.6-0.5-2.6c-0.1-0.3-0.1-0.6-0.1-0.7c0-0.2,0.1-0.5,0.3-1
					c0.2-0.5,0.5-1,0.8-1.7l0.6,3.3c0.2,1.2,0.3,2.3,0.4,3.2C112.1,21.2,112.1,21.9,112.1,22.6z"/>
				<path class="st0" d="M125.9,25.2h-1.2c-0.2,0-0.4,0-0.6-0.1c-0.4-0.2-0.7-0.5-0.9-1c-0.3-0.7-0.5-1.6-0.6-2.7
					c-0.4,0.5-0.7,0.9-1,1.1c-0.3,0.3-0.6,0.5-0.9,0.5c-0.1,0-0.3,0-0.4-0.1l-1.1-0.2c-0.5-0.1-0.8-0.2-0.9-0.2
					c-0.1,0-0.2-0.1-0.2-0.2c0-0.2,0.2-0.7,0.6-1.6c0.4-0.9,0.7-1.4,0.9-1.6c0.2-0.2,0.4-0.4,0.8-0.6c0.2-0.2,0.6-0.4,1-0.6l0.5-0.3
					c0-0.1,0-0.2,0-0.3c0-0.1,0-0.2,0-0.3c0-0.2,0.1-0.5,0.2-0.9s0.3-0.8,0.6-1.3l0.9,5.8c0.1,0.9,0.3,1.5,0.6,1.8
					c0.1,0.2,0.4,0.3,0.6,0.3h1.2V25.2z M122.3,20l-0.2-1.1c-0.2,0.1-0.4,0.2-0.5,0.2c-0.3,0.2-0.6,0.3-0.8,0.5
					c-0.1,0.1-0.3,0.2-0.4,0.3c-0.1,0.1-0.2,0.2-0.2,0.3c0,0.1,0.1,0.2,0.3,0.2c0.2,0,0.4,0.1,0.6,0.1c0.1,0,0.3,0,0.4-0.1
					C121.9,20.4,122.1,20.2,122.3,20z"/>
				<path class="st0" d="M131.1,25.2h-5.8v-2.5h4.9c-0.1-0.4-0.2-0.8-0.4-1.1c-0.1-0.2-0.3-0.4-0.6-0.8l0.7-2.2
					c0.5,0.5,0.8,1.1,0.9,1.6c0.2,0.6,0.3,1.4,0.3,2.6V25.2z M130.2,27.2l-1.1,2.1l-2.1-1.2L128,26L130.2,27.2z"/>
				<path class="st0" d="M148.7,25.2h-7.8c-0.7,0-1.2,0-1.5,0c-0.2,0-0.5-0.1-0.8-0.2c-0.5-0.2-0.9-0.5-1.3-1.1
					c-0.3-0.5-0.5-1.1-0.5-1.8c0-0.3,0-0.5,0-0.7c0-0.2,0.1-0.4,0.1-0.7c0.1-0.4,0.2-0.7,0.4-1c0.1-0.3,0.4-0.6,0.7-1.1l0.5,0.4
					c-0.3,0.5-0.4,0.9-0.5,1.2s-0.1,0.6-0.1,0.8c0,0.4,0.1,0.7,0.3,1c0.2,0.3,0.5,0.5,0.9,0.6c0.2,0.1,0.5,0.1,0.8,0.1
					c0.3,0,0.7,0,1.1,0h6.7c-0.2-0.5-0.3-0.8-0.4-1c-0.1-0.2-0.3-0.5-0.6-0.9l0.8-2.1c0.5,0.7,0.8,1.3,0.9,1.8
					c0.1,0.5,0.2,1.2,0.2,2.1V25.2z M145.4,16.5l-1,1.9l-1.3-0.7l-0.7,1.5l-1.7-0.9l1-1.8L143,17l0.8-1.5L145.4,16.5z"/>
				<path class="st0" d="M153.1,25.2h-5.1v-2.5h4l-1.1-6.3l-0.6-0.4c0-0.4,0.1-0.7,0.2-1.1c0.1-0.5,0.4-1,0.7-1.7l0.4,0.2
					c0,0,0,0.1,0,0.3c0,0.2,0.1,0.4,0.4,0.6c0.2,0.2,0.6,0.4,1.1,0.6c-0.1,0.4-0.1,0.8-0.2,1.2s-0.2,0.7-0.4,1l-0.3-0.1l1,5.7V25.2z
					"/>
				<path class="st0" d="M167.8,25.2H158c-0.4,0-0.8-0.1-1.1-0.3c-0.3-0.2-0.5-0.6-0.7-1.1c-0.4,0.5-0.8,0.9-1.1,1.1
					c-0.3,0.2-0.8,0.3-1.3,0.3l-1.3,0v-2.5l1.3,0c0.7,0,1.3-0.2,1.6-0.5c0.4-0.4,0.7-1.1,0.8-2.2l0.6,0.1c0,0.2,0,0.4,0,0.5
					c0,0.4,0,0.7,0,1c0,0.4,0.1,0.6,0.3,0.8s0.4,0.3,0.7,0.3s0.6-0.1,0.8-0.2c0.3-0.1,0.7-0.4,1.2-0.8l3.3-2.4
					c0.4-0.3,0.7-0.5,0.9-0.6c0.5-0.3,0.9-0.4,1.3-0.4c0.7,0,1.2,0.2,1.7,0.7c0.5,0.6,0.7,1.4,0.7,2.6V25.2z M166.5,21.8
					c0-0.3-0.2-0.5-0.7-0.7c-0.4-0.1-0.8-0.2-1.2-0.2c-0.4,0-0.9,0.1-1.4,0.4S162,22,161,22.7h2.4C165.5,22.7,166.5,22.4,166.5,21.8
					z"/>
				<path class="st0" d="M172.9,25.2h-5.8v-2.5h4.9c-0.1-0.4-0.2-0.8-0.4-1.1c-0.1-0.2-0.3-0.4-0.6-0.8l0.7-2.2
					c0.5,0.5,0.8,1.1,0.9,1.6c0.2,0.6,0.3,1.4,0.3,2.6V25.2z M172.8,15.3l-1,1.9l-1.3-0.7l-0.7,1.5L168,17l1-1.8l1.4,0.7l0.8-1.5
					L172.8,15.3z"/>
				<path class="st0" d="M176.4,22.6c0,0.5-0.1,1.1-0.2,1.5s-0.4,1.1-0.8,1.8l-0.6-0.2c0.1-0.8,0.2-1.4,0.2-1.9c0-0.4,0-0.9-0.1-1.7
					c-0.1-0.7-0.1-1.5-0.2-2.2c-0.1-0.7-0.2-1.6-0.5-2.6c-0.1-0.3-0.1-0.6-0.1-0.7c0-0.2,0.1-0.5,0.3-1c0.2-0.5,0.5-1,0.8-1.7
					l0.6,3.3c0.2,1.2,0.3,2.3,0.4,3.2C176.3,21.2,176.4,21.9,176.4,22.6z"/>
				<path class="st0" d="M185.8,22.6c0,0.5-0.1,1.1-0.2,1.5s-0.4,1.1-0.8,1.8l-0.6-0.2c0.1-0.8,0.2-1.4,0.2-1.9c0-0.4,0-0.9-0.1-1.7
					c-0.1-0.7-0.1-1.5-0.2-2.2c-0.1-0.7-0.2-1.6-0.5-2.6c-0.1-0.3-0.1-0.6-0.1-0.7c0-0.2,0.1-0.5,0.3-1c0.2-0.5,0.5-1,0.8-1.7
					l0.6,3.3c0.2,1.2,0.3,2.3,0.4,3.2C185.7,21.2,185.8,21.9,185.8,22.6z"/>
				<path class="st0" d="M192.9,25.2h-4.2c-0.4,0-0.7-0.1-0.9-0.3c-0.3-0.2-0.4-0.6-0.4-1c0-0.3,0-0.6,0-0.9c0-0.3,0.1-0.6,0.1-1
					l0.4,0c0,0.2,0.2,0.4,0.3,0.5c0.2,0.1,0.4,0.1,0.6,0.1h3.2c-0.1-0.9-0.4-1.6-0.7-2.2c-0.3-0.5-0.7-0.8-1.2-1.2l0.7-2.9
					c0.8,0.6,1.4,1.4,1.7,2.3c0.3,0.9,0.5,2,0.5,3.5V25.2z M191.4,13.1l-1.1,2.1l-2.2-1.1l1.2-2.1L191.4,13.1z"/>
				<path class="st0" d="M196.4,28.4c-0.1,0.2-0.1,0.3-0.2,0.4c-0.1,0.1-0.2,0.1-0.3,0.2l-2,0.6c0.1-0.2,0.2-0.4,0.3-0.5
					c0.1-0.1,0.3-0.2,0.5-0.3c-0.2-0.1-0.3-0.2-0.4-0.3s-0.1-0.2-0.1-0.3c0-0.1,0-0.2,0.1-0.3c0-0.1,0.1-0.2,0.2-0.3
					c0.4-0.5,0.8-0.8,1.2-0.8c0.1,0,0.2,0,0.3,0.1c0.1,0.1,0.1,0.2,0.1,0.3c0,0.1,0,0.2,0,0.3c0,0.1-0.1,0.2-0.2,0.3
					c-0.3-0.2-0.5-0.2-0.6-0.2s-0.2,0-0.3,0.1c-0.1,0-0.1,0.1-0.2,0.1c0,0.1,0.1,0.2,0.4,0.4c0.3,0.2,0.5,0.3,0.6,0.3
					C195.8,28.6,196,28.5,196.4,28.4z M196.4,22.6c0,0.5-0.1,1.1-0.2,1.5s-0.4,1.1-0.8,1.8l-0.6-0.2c0.1-0.8,0.2-1.4,0.2-1.9
					c0-0.4,0-0.9-0.1-1.7c-0.1-0.7-0.1-1.5-0.2-2.2c-0.1-0.7-0.2-1.6-0.5-2.6c-0.1-0.3-0.1-0.6-0.1-0.7c0-0.2,0.1-0.5,0.3-1
					c0.2-0.5,0.5-1,0.8-1.7l0.6,3.3c0.2,1.2,0.3,2.3,0.4,3.2C196.3,21.2,196.4,21.9,196.4,22.6z"/>
				<path class="st0" d="M197.7,32c0.5-1.1,0.9-1.9,1.1-2.5s0.4-1.3,0.6-2c0.2-0.8,0.3-1.5,0.4-2.2c0.1-0.7,0.1-1.4,0.1-2.1
					c0-1.5-0.2-2.9-0.5-4.2c-0.3-1.3-0.9-2.9-1.7-4.8h1.8c0.9,1.3,1.7,2.7,2.2,4.2c0.5,1.5,0.8,3,0.8,4.5c0,1.3-0.2,2.7-0.6,4.2
					c-0.5,1.7-1.2,3.3-2.3,4.9H197.7z"/>
			</g>
		</g>
	</g>
	<rect class="st1" width="242.6" height="39.4"/>
</g>
</svg>
