<?xml version="1.0" encoding="utf-8"?>
<!-- Generator: Adobe Illustrator 19.2.0, SVG Export Plug-In . SVG Version: 6.00 Build 0)  -->
<svg version="1.1" id="Layer_1" xmlns="http://www.w3.org/2000/svg" xmlns:xlink="http://www.w3.org/1999/xlink" x="0px" y="0px"
	 viewBox="0 0 242.6 39.4" style="enable-background:new 0 0 242.6 39.4;" xml:space="preserve">
<style type="text/css">
	.st0{fill:#BA0017;}
	.st1{fill:none;}
</style>
<g>
	<g>
		<g>
			<path d="M57.9,17.7C58,17.7,58,17.8,57.9,17.7c0.4,0.5,0.7,1,0.8,1.5s0.2,1.1,0.1,1.7c0,0.1,0,0.3-0.1,0.5s-0.1,0.3-0.2,0.5
				s-0.1,0.3-0.2,0.4c-0.1,0.1-0.1,0.2-0.2,0.2c0,0-0.1,0-0.1-0.1c0,0,0-0.1,0-0.2c0-0.1,0-0.1,0-0.2c0-0.1,0-0.2,0-0.2
				c0-0.3,0.1-0.5,0.1-0.8c0-0.3,0-0.5-0.1-0.8c-0.1-0.3-0.2-0.5-0.3-0.8c-0.1-0.3-0.3-0.5-0.5-0.8c0,0,0-0.1,0.1-0.2
				c0-0.1,0.1-0.2,0.2-0.3c0.1-0.1,0.1-0.2,0.2-0.3C57.9,17.8,57.9,17.7,57.9,17.7z"/>
			<path d="M65.5,14.6c-0.3,0.1-0.6,0.3-1,0.4c-0.3,0.1-0.7,0.3-1,0.4s-0.6,0.3-0.9,0.4s-0.5,0.2-0.7,0.3c0,0-0.1,0-0.1,0
				c0,0,0,0,0-0.1c0,0,0-0.1,0.1-0.2c0-0.1,0.1-0.2,0.1-0.3c0-0.1,0.1-0.2,0.1-0.3c0-0.1,0.1-0.1,0.1-0.1c0.1-0.1,0.1-0.1,0.2-0.2
				l3.5-1.5c0.1,0,0.1,0,0.1,0.1c0,0.1-0.1,0.1-0.1,0.2s-0.1,0.2-0.1,0.2s-0.1,0.2-0.1,0.2c0,0.1-0.1,0.1-0.1,0.2
				C65.6,14.5,65.6,14.5,65.5,14.6z"/>
			<path d="M64.6,27.4c0,0.4-0.2,0.8-0.4,1.1c-0.2,0.3-0.5,0.7-0.9,1s-0.8,0.6-1.2,0.8c-0.5,0.2-0.9,0.4-1.4,0.6s-1,0.3-1.5,0.4
				s-0.9,0.1-1.3,0.1c-0.5,0-1-0.1-1.5-0.2c-0.5-0.1-0.9-0.4-1.2-0.6s-0.6-0.6-0.8-1.1s-0.3-1-0.3-1.6c0-0.3,0-0.6,0.1-0.9
				c0.1-0.3,0.1-0.6,0.3-0.8c0.1-0.3,0.2-0.5,0.4-0.8s0.3-0.5,0.4-0.7c0,0,0-0.1,0.1,0c0,0,0.1,0,0.1,0c0,0,0,0.1,0,0.1
				c0,0,0,0.1,0,0.1c-0.2,0.4-0.4,0.9-0.5,1.3s-0.2,0.9-0.2,1.4c0,0.4,0.1,0.8,0.3,1.1c0.2,0.3,0.4,0.6,0.7,0.7
				c0.3,0.2,0.6,0.3,1,0.4c0.4,0.1,0.7,0.1,1.1,0.1c0.4,0,0.8,0,1.2-0.1s0.8-0.1,1.2-0.2s0.8-0.2,1.2-0.4s0.7-0.3,1.1-0.5
				c0.1-0.1,0.2-0.1,0.4-0.2s0.3-0.2,0.4-0.3c0.1-0.1,0.3-0.2,0.4-0.3c0.1-0.1,0.2-0.2,0.2-0.2c0-0.1-0.1-0.1-0.3-0.2
				c-0.2-0.1-0.4-0.2-0.6-0.2c-0.2-0.1-0.5-0.2-0.8-0.2c-0.3-0.1-0.6-0.1-0.9-0.2s-0.6-0.1-0.8-0.1s-0.5,0-0.6,0
				c0-0.1,0-0.2,0.1-0.3c0-0.1,0.1-0.2,0.1-0.3c0.1-0.1,0.1-0.2,0.2-0.3c0.1-0.1,0.1-0.2,0.1-0.2c0.5-0.4,1-0.7,1.6-1.1
				c0.6-0.3,1.2-0.7,2-1c-0.1-0.1-0.2-0.2-0.2-0.2c-0.1-0.1-0.2-0.1-0.3-0.2c-0.1-0.1-0.2-0.1-0.3-0.2c-0.1,0-0.2-0.1-0.3-0.1
				c-0.3,0-0.5,0-0.7,0.2C62.1,23,62,23,62,23s-0.1-0.1,0-0.2c0-0.1,0-0.2,0.1-0.3c0-0.1,0.1-0.3,0.1-0.4c0.1-0.1,0.1-0.3,0.2-0.4
				s0.2-0.3,0.3-0.4c0.5-0.5,1.1-0.7,1.9-0.7c0.2,0,0.4,0,0.7,0.1c0.3,0,0.5,0.1,0.7,0.2s0.4,0.2,0.6,0.4c0.2,0.2,0.2,0.4,0.2,0.6
				c0,0.4-0.1,0.7-0.2,0.9c-0.2,0.3-0.4,0.5-0.7,0.7c0.3,0.3,0.6,0.5,0.9,0.6c0.3,0.1,0.7,0.1,1.1,0.1h0.2c0.2,0,0.3,0.1,0.4,0.2
				c0.1,0.1,0.1,0.3,0.1,0.5s0,0.3-0.1,0.5c-0.1,0.1-0.2,0.2-0.4,0.2h-0.2c-0.6,0-1.2-0.1-1.7-0.3s-1-0.6-1.4-1.1
				c-0.6,0.2-1.1,0.5-1.5,0.7c-0.4,0.3-0.9,0.5-1.2,0.7c0.3,0,0.6,0.1,0.9,0.2c0.3,0.1,0.6,0.2,0.9,0.3c0.3,0.1,0.5,0.3,0.6,0.5
				C64.5,26.9,64.6,27.1,64.6,27.4z M64,17l1.1,0.9c0,0,0.1,0.1,0,0.1L64.4,19c0,0.1-0.1,0.1-0.1,0l-1.1-0.9c0,0,0-0.1,0-0.2
				l0.7-0.9C63.9,17,64,17,64,17z"/>
			<path d="M75.2,15.9c-0.3,0.1-0.6,0.3-1,0.4c-0.3,0.1-0.7,0.3-1,0.4s-0.6,0.3-0.9,0.4s-0.5,0.2-0.7,0.3c0,0-0.1,0-0.1,0
				c0,0,0,0,0-0.1c0,0,0-0.1,0.1-0.2c0-0.1,0.1-0.2,0.1-0.3c0-0.1,0.1-0.2,0.1-0.3c0-0.1,0.1-0.1,0.1-0.1c0.1-0.1,0.1-0.1,0.2-0.2
				l3.5-1.5c0.1,0,0.1,0,0.1,0.1c0,0.1-0.1,0.1-0.1,0.2s-0.1,0.2-0.1,0.2s-0.1,0.2-0.1,0.2c0,0.1-0.1,0.1-0.1,0.2
				C75.3,15.8,75.3,15.9,75.2,15.9z"/>
			<path d="M70.6,22.5c0.2-0.2,0.4-0.3,0.6-0.5c0.2-0.2,0.4-0.3,0.6-0.5c0.2-0.2,0.4-0.3,0.6-0.5c0.2-0.1,0.4-0.3,0.6-0.4
				c0.3-0.2,0.7-0.2,1.1-0.2c0.4,0,0.7,0.1,1.1,0.2s0.6,0.3,0.9,0.5c0.3,0.2,0.4,0.5,0.5,0.8c0,0.5-0.1,0.9-0.4,1.3
				c-0.2,0.4-0.5,0.7-0.8,0.9c-0.4,0.3-1,0.5-1.6,0.7c-0.6,0.2-1.2,0.4-1.9,0.5c-0.7,0.1-1.3,0.2-2,0.3c-0.7,0.1-1.3,0.1-2,0.1h-0.2
				c-0.2,0-0.3-0.1-0.4-0.2c-0.1-0.1-0.1-0.3-0.1-0.5s0-0.3,0.1-0.5c0.1-0.1,0.2-0.2,0.4-0.2h0.2c0.1,0,0.2,0,0.4,0s0.3,0,0.4,0
				l1.4-1.3c0.1-0.2,0.2-0.4,0.2-0.7c0-0.3,0-0.7,0-1.1c0-0.4,0-0.8-0.1-1.3c-0.1-0.4-0.1-0.9-0.2-1.3c-0.1-0.4-0.1-0.9-0.2-1.3
				c-0.1-0.4-0.1-0.8-0.2-1.1c0-0.2-0.1-0.5-0.1-0.7c-0.1-0.2-0.2-0.4-0.3-0.6c0,0,0-0.1,0-0.1c0,0,0,0,0,0c0,0,0,0,0,0
				c0,0,0,0,0-0.1c0.1-0.2,0.2-0.4,0.3-0.5c0.1-0.2,0.2-0.4,0.3-0.5c0,0,0.1-0.1,0.1-0.1c0,0,0.1,0,0.1,0.1c0.1,0.1,0.1,0.3,0.2,0.4
				c0.1,0.1,0.1,0.3,0.2,0.4s0.2,0.3,0.3,0.4c0.1,0.1,0.2,0.2,0.4,0.3c-0.1,0.1-0.2,0.3-0.2,0.4s-0.1,0.2-0.2,0.3
				c0,0.1-0.1,0.2-0.1,0.3c0,0.1,0,0.2,0,0.3c0.1,0.5,0.2,1,0.3,1.5s0.1,1.1,0.2,1.6c0,0.5,0,1.1,0,1.6C70.7,21.4,70.7,22,70.6,22.5
				z M75.7,22.7c-0.2-0.2-0.3-0.4-0.6-0.5c-0.2-0.1-0.5-0.3-0.7-0.3c-0.3-0.1-0.5-0.1-0.8-0.1c-0.3,0-0.5,0-0.7,0.1
				c-0.3,0.1-0.6,0.2-0.9,0.3c-0.3,0.2-0.6,0.3-0.8,0.5c-0.3,0.2-0.6,0.4-0.8,0.7c-0.3,0.3-0.6,0.5-0.9,0.8c0.5,0,1-0.1,1.6-0.1
				c0.6-0.1,1.1-0.2,1.7-0.3c0.6-0.1,1.1-0.3,1.6-0.4S75.3,23,75.7,22.7z"/>
			<path d="M82.1,16.2c-0.1,0-0.1,0,0-0.1c0.1-0.1,0.1-0.1,0.2-0.2c0.2-0.1,0.4-0.3,0.6-0.4s0.4-0.2,0.6-0.4
				c0.2-0.1,0.4-0.3,0.5-0.4c0.2-0.1,0.4-0.3,0.5-0.5c-0.2,0-0.3-0.1-0.5-0.2s-0.3-0.2-0.4-0.4c-0.1-0.1-0.1-0.2-0.1-0.3
				c0-0.1,0-0.2,0-0.3c0.1-0.1,0.1-0.3,0.2-0.5c0.1-0.2,0.2-0.3,0.3-0.5c0.1-0.1,0.2-0.3,0.4-0.3c0.1-0.1,0.3-0.1,0.5-0.1
				c0.1,0,0.2,0,0.3,0.1c0.1,0.1,0.1,0.2,0.2,0.3s0.1,0.3,0.1,0.4c0,0.1,0,0.3,0,0.4s0,0.3,0,0.4c0,0.1,0,0.2,0,0.3c0,0,0,0,0,0.1
				c0.1,0,0.1,0.1,0.2,0.1s0,0.1,0.1,0.1c0,0.1,0,0.2,0,0.3c0,0.1-0.1,0.2-0.1,0.3c0,0.1-0.1,0.1-0.1,0.1c0,0-0.1,0-0.1-0.1
				c0,0-0.1-0.1-0.1-0.1c0,0-0.1-0.1-0.1-0.1c-0.2,0.2-0.4,0.4-0.5,0.6c-0.2,0.2-0.3,0.3-0.5,0.4c-0.2,0.1-0.4,0.2-0.6,0.4
				c-0.2,0.1-0.5,0.2-0.7,0.3c-0.1,0-0.2,0.1-0.3,0.1S82.2,16.2,82.1,16.2z M84.1,12.9c0.1,0.2,0.3,0.3,0.4,0.4
				c0.2,0.1,0.3,0.2,0.5,0.2h0c0-0.1,0-0.1,0-0.2s0-0.2,0-0.2c0-0.1,0-0.2,0-0.2c0-0.1-0.1-0.1-0.1-0.2c0,0-0.1-0.1-0.2-0.1
				s-0.2,0-0.3,0c-0.1,0-0.2,0.1-0.2,0.1S84.1,12.8,84.1,12.9z"/>
			<path d="M84.6,18.3C84.6,18.2,84.7,18.2,84.6,18.3c0.1-0.1,0.2,0,0.2,0c0,0.2,0.1,0.6,0.2,1.3c0.1,0.4,0.1,0.7,0.2,1
				c0.1,0.3,0.1,0.5,0.1,0.6c0.1,0.3,0.1,0.6,0.2,0.9c0.1,0.3,0.1,0.5,0.2,0.7c0.1,0.3,0.2,0.5,0.4,0.7s0.3,0.3,0.5,0.4
				c0.2,0.1,0.4,0.2,0.6,0.2c0.2,0,0.4,0.1,0.7,0.1h0.2c0.2,0,0.3,0.1,0.4,0.2c0.1,0.1,0.1,0.3,0.1,0.5s0,0.3-0.1,0.5
				c-0.1,0.1-0.2,0.2-0.4,0.2h-0.2c-0.4,0-0.7,0-1-0.1c-0.3-0.1-0.5-0.2-0.7-0.4c-0.2-0.2-0.4-0.3-0.5-0.6c-0.1-0.2-0.3-0.4-0.4-0.6
				c-0.1-0.3-0.2-0.5-0.2-0.7c-0.1-0.2-0.1-0.3-0.1-0.4c-0.2,0.3-0.5,0.5-0.7,0.7c-0.2,0.2-0.4,0.3-0.6,0.4S83.3,24,83,24
				s-0.5,0-0.7,0c-0.1,0-0.2,0-0.3-0.1c-0.1,0-0.2-0.1-0.2-0.1s-0.1-0.1-0.2-0.2c0-0.1-0.1-0.2,0-0.3c0.1-0.3,0.1-0.7,0.3-1
				c0.1-0.3,0.3-0.6,0.4-0.8c0.3-0.4,0.6-0.7,0.9-0.9c0.4-0.2,0.8-0.5,1.3-0.7c0-0.1,0-0.2,0-0.3c0-0.1,0-0.2-0.1-0.3
				c0,0,0-0.1,0-0.2s0-0.2,0.1-0.3c0-0.1,0.1-0.2,0.1-0.3S84.6,18.4,84.6,18.3z M84.6,20.9c-0.5,0.1-0.9,0.3-1.2,0.5
				s-0.6,0.5-0.9,0.9c-0.1,0.1-0.1,0.2,0,0.2c0.2,0.1,0.4,0.1,0.6,0.1c0.2,0,0.5,0,0.7-0.1c0.2-0.1,0.4-0.1,0.6-0.2
				c0.2-0.1,0.3-0.2,0.4-0.2c0-0.2-0.1-0.4-0.1-0.6C84.7,21.3,84.6,21.1,84.6,20.9z"/>
			<path d="M89.5,14.8c-0.1,0.3-0.3,0.5-0.4,0.6c-0.2,0.1-0.4,0.2-0.6,0.2c-0.2,0-0.4,0-0.5-0.1c-0.1-0.1-0.2-0.3-0.3-0.6
				c0-0.1,0-0.3,0-0.4c0-0.1,0.1-0.3,0.1-0.4S87.9,14,88,14c0.1-0.1,0.1-0.1,0.2-0.2c0.1,0,0.1,0,0,0.2c0,0.1,0,0.1-0.1,0.2
				c0,0.1,0,0.2,0,0.3c0,0.1,0,0.2,0,0.2c0,0.1,0.1,0.1,0.1,0.1c0.1,0.1,0.2,0.1,0.3,0.1c0.1,0,0.2,0,0.3-0.1c0.1,0,0.2-0.1,0.3-0.2
				c0.1-0.1,0.2-0.1,0.2-0.2c0.1-0.1,0.1-0.2,0.1-0.3s0.1-0.2,0.1-0.3c0,0,0-0.1,0-0.1c0,0,0-0.1,0-0.1c0,0,0-0.1,0.1-0.1
				s0.1-0.1,0.1-0.1c0,0,0,0,0.1,0c0,0,0,0.1,0,0.1c0,0,0,0.1,0,0.1c0,0,0,0.1,0,0.1c0,0.2,0,0.3,0.1,0.4c0.1,0.1,0.2,0.2,0.3,0.2
				c0.1,0,0.2,0,0.3,0s0.2-0.1,0.3-0.2c0,0,0-0.1,0-0.1c0-0.1,0-0.1,0-0.2c0-0.1,0-0.1,0-0.2c0-0.1,0-0.1,0-0.1c0,0,0-0.1,0-0.1
				c0-0.1,0-0.2,0.1-0.2c0-0.1,0.1-0.2,0.1-0.2s0.1-0.1,0.1-0.1c0.1,0,0.1,0,0.1,0.1c0,0.1,0.1,0.2,0.1,0.3c0,0.1,0,0.3,0,0.4
				s0,0.3,0,0.4c0,0.1-0.1,0.2-0.1,0.3s-0.1,0.2-0.2,0.3C91,14.9,90.9,15,90.8,15c-0.1,0.1-0.2,0.1-0.3,0.1c-0.2,0-0.4,0-0.6,0
				C89.8,15.1,89.7,15,89.5,14.8z"/>
			<path d="M91.2,14.3c-0.3,0.1-0.6,0.3-1,0.4c-0.3,0.1-0.7,0.3-1,0.4s-0.6,0.3-0.9,0.4s-0.5,0.2-0.7,0.3c0,0-0.1,0-0.1,0
				c0,0,0,0,0-0.1c0,0,0-0.1,0.1-0.2c0-0.1,0.1-0.2,0.1-0.3c0-0.1,0.1-0.2,0.1-0.3C88,15,88,15,88,14.9c0.1-0.1,0.1-0.1,0.2-0.2
				l3.5-1.5c0.1,0,0.1,0,0.1,0.1c0,0.1-0.1,0.1-0.1,0.2s-0.1,0.2-0.1,0.2s-0.1,0.2-0.1,0.2c0,0.1-0.1,0.1-0.1,0.2
				C91.3,14.2,91.3,14.3,91.2,14.3z"/>
			<path d="M90,20.7C90.1,20.7,90.1,20.6,90,20.7c0.1-0.1,0.1,0,0.2,0c0.2,0.2,0.3,0.4,0.5,0.6c0.1,0.2,0.3,0.4,0.4,0.6
				s0.2,0.4,0.3,0.7c0.1,0.2,0.1,0.5,0.1,0.7c0,0.1,0,0.2,0,0.3c0,0.1,0,0.3-0.1,0.4c0,0.1-0.1,0.3-0.1,0.4c0,0.1-0.1,0.2-0.1,0.3
				c-0.1,0.2-0.3,0.4-0.6,0.5c-0.3,0.1-0.5,0.2-0.8,0.3c-0.3,0.1-0.6,0.1-0.9,0.1c-0.3,0-0.6,0-0.9,0h-0.2c-0.2,0-0.3-0.1-0.4-0.2
				c-0.1-0.1-0.1-0.3-0.1-0.5s0-0.3,0.1-0.5c0.1-0.1,0.2-0.2,0.4-0.2h0.2c0.1,0,0.3,0,0.6,0s0.5,0,0.8,0c0.3,0,0.6-0.1,0.8-0.1
				c0.3,0,0.5-0.1,0.6-0.2c0.1-0.1,0.1-0.1,0.1-0.2c-0.1-0.3-0.3-0.6-0.5-0.9c-0.2-0.3-0.4-0.5-0.7-0.8c0-0.2,0.1-0.4,0.2-0.6
				C89.9,21.1,90,20.9,90,20.7z M89.6,16.7l1.1,0.9c0,0,0.1,0.1,0,0.1L90,18.7c0,0.1-0.1,0.1-0.1,0l-1.1-0.9c0,0,0-0.1,0-0.2
				l0.7-0.9C89.5,16.7,89.5,16.7,89.6,16.7z"/>
			<path d="M95.9,30.2c-0.6,0.2-1.2,0.4-1.8,0.7c-0.6,0.2-1.1,0.4-1.7,0.6c-0.1,0-0.1,0-0.1-0.1c0-0.1,0.1-0.2,0.2-0.4
				c0.1-0.1,0.1-0.3,0.2-0.3c0,0,0.1-0.1,0.1-0.1c0.2-0.1,0.4-0.1,0.6-0.2c0.3-0.1,0.5-0.2,0.9-0.3c0.3-0.1,0.6-0.2,1-0.4
				c0.3-0.1,0.7-0.2,1-0.3c0.1,0,0.1,0,0.1,0.1c0,0.1-0.1,0.1-0.1,0.2s-0.1,0.1-0.1,0.2c0,0.1-0.1,0.1-0.1,0.2C96,30,96,30,96,30.1
				C96,30.1,96,30.1,95.9,30.2C95.9,30.1,95.9,30.2,95.9,30.2z"/>
			<path d="M92.8,28.1c0,0,0.1-0.1,0.2-0.1s0.1-0.1,0.2-0.1c0.1,0,0.1-0.1,0.2-0.1c0.1,0,0.1-0.1,0.2-0.1c-0.1-0.1-0.3-0.2-0.4-0.3
				c-0.1-0.1-0.2-0.3-0.3-0.4c0-0.1,0-0.1,0-0.2s0-0.2,0.1-0.2c0.1-0.1,0.2-0.3,0.3-0.4s0.2-0.3,0.4-0.4c0.1-0.1,0.3-0.2,0.4-0.3
				c0.2-0.1,0.3-0.1,0.5-0.1c0.1,0,0.1,0,0.2,0.1s0.1,0.1,0.2,0.1s0.1,0.1,0.1,0.2c0,0.1,0.1,0.1,0.1,0.2c0,0.1,0,0.2,0,0.3L95,26.5
				c-0.1,0.1-0.1,0.2-0.2,0.2c-0.1,0-0.1,0-0.1-0.1c0-0.1,0-0.1-0.1-0.2c-0.1-0.1-0.1-0.1-0.2-0.2s-0.1,0-0.2,0
				c-0.3,0-0.5,0.1-0.7,0.3c0.1,0.2,0.2,0.4,0.4,0.5c0.2,0.2,0.4,0.3,0.6,0.3c0.3,0,0.6,0,0.8,0c0.3,0,0.5-0.1,0.8-0.2
				c0,0,0,0.1,0,0.1S96,27.4,96,27.5s-0.1,0.2-0.1,0.3c0,0.1-0.1,0.1-0.1,0.1c-0.2,0-0.5,0.1-0.7,0.1c-0.3,0-0.5,0.1-0.8,0.2
				c-0.3,0.1-0.6,0.2-0.8,0.3c-0.3,0.1-0.6,0.2-0.8,0.4c-0.1,0-0.1,0-0.1-0.1c0-0.1,0.1-0.2,0.1-0.3C92.7,28.3,92.7,28.2,92.8,28.1z
				 M93.9,13.7C94,13.7,94,13.7,93.9,13.7c0.1,0.1,0.1,0.1,0.1,0.1c0,0,0,0.1,0,0.1c0,0,0,0.1,0,0.1c0,0.2,0,0.4,0,0.6
				c0,0.2,0,0.4,0.1,0.6c0.1,0.5,0.1,1,0.2,1.5c0.1,0.5,0.1,1,0.2,1.6c0.1,0.5,0.1,1.1,0.2,1.6c0.1,0.5,0.1,1,0.2,1.5
				c0,0.2,0,0.4,0,0.7c0,0.3,0,0.5,0,0.8c0,0.3,0,0.5-0.1,0.8c0,0.2-0.1,0.5-0.2,0.6c0,0.1-0.1,0.2-0.2,0.2c0,0-0.1,0-0.1-0.1
				c-0.1-1-0.2-1.9-0.3-2.9c-0.1-1-0.3-2.1-0.4-3.1c-0.1-1-0.3-2.1-0.4-3.1c0-0.3,0.1-0.5,0.2-0.8c0.1-0.2,0.1-0.3,0.2-0.4
				C93.8,13.9,93.9,13.8,93.9,13.7z"/>
			<path d="M106.1,14.3c-0.3,0.1-0.6,0.3-1,0.4c-0.3,0.1-0.7,0.3-1,0.4s-0.6,0.3-0.9,0.4s-0.5,0.2-0.7,0.3c0,0-0.1,0-0.1,0
				c0,0,0,0,0-0.1c0,0,0-0.1,0.1-0.2c0-0.1,0.1-0.2,0.1-0.3c0-0.1,0.1-0.2,0.1-0.3c0-0.1,0.1-0.1,0.1-0.1c0.1-0.1,0.1-0.1,0.2-0.2
				l3.5-1.5c0.1,0,0.1,0,0.1,0.1c0,0.1-0.1,0.1-0.1,0.2s-0.1,0.2-0.1,0.2s-0.1,0.2-0.1,0.2c0,0.1-0.1,0.1-0.1,0.2
				C106.2,14.2,106.2,14.3,106.1,14.3z"/>
			<path d="M107.5,19.2c0.3,0.4,0.5,0.8,0.8,1.3s0.4,0.9,0.5,1.4s0.2,0.9,0.3,1.4c0,0.5,0,1,0,1.4c-0.1,0.4-0.2,0.7-0.3,1
				c-0.2,0.3-0.4,0.6-0.6,0.9c-0.2,0.3-0.5,0.5-0.8,0.7c-0.3,0.2-0.6,0.4-1,0.5c-0.3,0.1-0.7,0.2-1.1,0.3s-0.7,0.1-1.1,0.1
				c-0.5,0-0.9-0.1-1.3-0.2c-0.4-0.2-0.8-0.4-1.1-0.7c-0.3-0.3-0.6-0.6-0.7-1s-0.3-0.9-0.3-1.4c0-0.6,0.1-1.1,0.3-1.6
				c0.2-0.5,0.4-1,0.8-1.5c0-0.1,0.1-0.1,0.1-0.1c0,0,0.1,0,0.1,0c0,0,0,0.1,0,0.1c0,0,0,0.1,0,0.1c-0.3,0.6-0.5,1.1-0.5,1.7
				c-0.1,0.6,0,1.1,0.2,1.6c0.1,0.2,0.2,0.5,0.4,0.6c0.2,0.2,0.3,0.4,0.6,0.5c0.2,0.1,0.5,0.3,0.8,0.3s0.6,0.1,1,0.1
				c0.4,0,0.8,0,1.2-0.1s0.8-0.2,1.2-0.3s0.7-0.3,1.1-0.6s0.6-0.5,0.9-0.8c0-0.3,0-0.7-0.1-1.1c-0.1-0.4-0.2-0.8-0.4-1.2
				c-0.1-0.4-0.3-0.8-0.5-1.1c-0.2-0.4-0.4-0.7-0.6-1c0.1-0.2,0.1-0.4,0.2-0.6c0.1-0.2,0.1-0.4,0.2-0.6
				C107.3,19.1,107.4,19.1,107.5,19.2C107.4,19.1,107.5,19.2,107.5,19.2z M104.9,16.8l1.1,0.9c0,0,0.1,0.1,0,0.1l-0.7,0.9
				c0,0.1-0.1,0.1-0.1,0l-1.1-0.9c0,0,0-0.1,0-0.2l0.7-0.9C104.8,16.8,104.8,16.8,104.9,16.8z"/>
			<path d="M114.1,15.7c0,0.2,0,0.4-0.1,0.6c-0.1,0.2-0.1,0.4-0.2,0.5s-0.3,0.3-0.4,0.4c-0.2,0.1-0.4,0.1-0.6,0.1
				c-0.3,0-0.6-0.1-0.8-0.3c-0.2-0.2-0.3-0.5-0.3-0.8c0-0.2,0-0.4,0.1-0.6c0.1-0.2,0.1-0.5,0.2-0.7s0.2-0.4,0.4-0.6
				c0.2-0.2,0.4-0.3,0.6-0.3c0.2,0,0.4,0,0.6,0.2c0.2,0.1,0.3,0.3,0.4,0.4c0.1,0.2,0.1,0.4,0.2,0.6C114,15.4,114.1,15.5,114.1,15.7z
				 M112.7,15c-0.1,0-0.2,0.1-0.3,0.1c-0.1,0.1-0.2,0.1-0.2,0.2c-0.1,0.1-0.1,0.2-0.2,0.3s-0.1,0.2-0.1,0.3c0,0.1,0,0.2,0.1,0.2
				c0.1,0.1,0.1,0.1,0.2,0.1c0.1,0,0.2,0,0.3,0.1c0.1,0,0.2,0,0.3,0c0.3,0,0.6-0.2,0.9-0.4c0-0.1,0-0.2,0-0.3s-0.1-0.2-0.2-0.3
				c-0.1-0.1-0.2-0.2-0.3-0.2C113,15,112.9,15,112.7,15z"/>
			<path d="M115.3,25.6l-0.9,0c-0.3,0-0.5,0-0.7-0.1c-0.2-0.1-0.4-0.2-0.6-0.3c-0.2-0.1-0.3-0.3-0.4-0.5s-0.1-0.4-0.1-0.7
				c0-0.1,0-0.2,0.1-0.4c0.1-0.2,0.1-0.3,0.2-0.5s0.2-0.3,0.3-0.5c0.1-0.2,0.2-0.3,0.3-0.4c0.1-0.1,0.2-0.2,0.4-0.3
				c0.1-0.1,0.3-0.1,0.4-0.1c0.2,0,0.4,0.1,0.6,0.3c0.2,0.2,0.3,0.4,0.5,0.6c0.1,0.2,0.3,0.5,0.3,0.8s0.1,0.5,0.2,0.7l0.7,0h0.2
				c0.2,0,0.3,0.1,0.4,0.2c0.1,0.1,0.1,0.3,0.1,0.5s0,0.3-0.1,0.5c-0.1,0.1-0.2,0.2-0.4,0.2h-0.2l-0.8,0c-0.1,0.5-0.2,1-0.4,1.5
				c-0.1,0.5-0.3,0.9-0.5,1.3s-0.5,0.8-0.8,1.1c-0.3,0.3-0.7,0.5-1.2,0.7c-0.3,0.1-0.7,0.2-1.1,0.2c-0.4,0-0.8,0-1.2,0
				c-0.4,0-0.8-0.1-1.2-0.1c-0.4-0.1-0.8-0.1-1.1-0.2c-0.1,0-0.1-0.1-0.2-0.1c0-0.1,0-0.1,0-0.2c0-0.1,0.1-0.1,0.1-0.1
				c0.1,0,0.1-0.1,0.2,0c0.3,0,0.7,0,1,0s0.7,0,1.1-0.1s0.7-0.1,1.1-0.2c0.3-0.1,0.7-0.2,0.9-0.4c0.3-0.2,0.6-0.4,0.9-0.7
				c0.3-0.3,0.5-0.5,0.7-0.8c0.2-0.3,0.4-0.6,0.5-0.9C115,26.3,115.2,26,115.3,25.6z M113.9,23.3c-0.1,0-0.2,0-0.2,0.1
				c-0.1,0.1-0.1,0.1-0.2,0.2c-0.1,0.1-0.1,0.1-0.2,0.2s-0.1,0.1-0.1,0.2c0,0.1,0.1,0.1,0.3,0.2s0.3,0.1,0.5,0.1c0.2,0,0.4,0,0.5,0
				s0.3,0,0.4,0c0,0,0-0.1-0.1-0.2c-0.1-0.1-0.1-0.2-0.2-0.3c-0.1-0.1-0.2-0.2-0.3-0.3C114.2,23.4,114.1,23.4,113.9,23.3z"/>
			<path d="M121.4,15c-0.3,0.1-0.6,0.3-1,0.4c-0.3,0.1-0.7,0.3-1,0.4s-0.6,0.3-0.9,0.4s-0.5,0.2-0.7,0.3c0,0-0.1,0-0.1,0
				c0,0,0,0,0-0.1c0,0,0-0.1,0.1-0.2c0-0.1,0.1-0.2,0.1-0.3c0-0.1,0.1-0.2,0.1-0.3c0-0.1,0.1-0.1,0.1-0.1c0.1-0.1,0.1-0.1,0.2-0.2
				l3.5-1.5c0.1,0,0.1,0,0.1,0.1c0,0.1-0.1,0.1-0.1,0.2s-0.1,0.2-0.1,0.2s-0.1,0.2-0.1,0.2c0,0.1-0.1,0.1-0.1,0.2
				C121.5,14.9,121.5,15,121.4,15z"/>
			<path d="M124.4,23.8c-0.4,0.1-0.8,0.2-1.2,0.4c-0.5,0.1-0.9,0.3-1.4,0.4c-0.5,0.1-1,0.3-1.5,0.4c-0.5,0.1-1,0.2-1.4,0.3
				c-0.5,0.1-0.9,0.2-1.3,0.2c-0.4,0.1-0.7,0.1-1,0.1h-0.2c-0.2,0-0.3-0.1-0.4-0.2c-0.1-0.1-0.1-0.3-0.1-0.5s0-0.3,0.1-0.5
				c0.1-0.1,0.2-0.2,0.4-0.2h0.2c0.1,0,0.3,0,0.5,0s0.4,0,0.6,0c0.2,0,0.4,0,0.6-0.1c0.2,0,0.4-0.1,0.5-0.1
				c-0.1-0.1-0.3-0.2-0.4-0.3s-0.3-0.3-0.4-0.5c-0.1-0.2-0.2-0.4-0.3-0.6s-0.1-0.4-0.2-0.6c-0.1-0.4,0-0.8,0.1-1.2
				c0.1-0.4,0.3-0.8,0.6-1.1c0.2-0.3,0.5-0.6,0.9-0.8s0.7-0.4,1-0.4c0.5-0.1,0.9-0.1,1.2,0c0.4,0.1,0.7,0.2,1,0.3
				c0.3,0.2,0.5,0.3,0.7,0.5s0.4,0.4,0.5,0.6c0,0,0,0.1,0,0.1s0,0.1-0.1,0.1c0,0-0.1,0-0.1,0c0,0-0.1,0-0.1,0
				c-0.2-0.1-0.4-0.2-0.6-0.3s-0.4-0.1-0.6-0.2c-0.2,0-0.4-0.1-0.6-0.1s-0.4,0-0.7,0c-0.2,0-0.5,0.1-0.7,0.1
				c-0.2,0.1-0.5,0.1-0.7,0.2c-0.2,0.1-0.4,0.2-0.6,0.3s-0.3,0.2-0.4,0.3c0,0.1,0,0.2,0.1,0.4s0.1,0.3,0.2,0.5
				c0.1,0.2,0.2,0.3,0.3,0.5c0.1,0.2,0.2,0.3,0.3,0.4c0.1,0.1,0.3,0.3,0.4,0.4s0.3,0.2,0.4,0.3c0.1,0.1,0.3,0.2,0.4,0.2
				s0.2,0.1,0.3,0.1c0.8-0.1,1.5-0.3,2.3-0.5c0.8-0.2,1.5-0.4,2.2-0.6c0.1,0,0.1,0,0.1,0c-0.2,0.3-0.4,0.6-0.5,0.8
				C124.7,23.4,124.6,23.7,124.4,23.8z"/>
			<path d="M129.2,16.1c0,0.2,0,0.4-0.1,0.6c-0.1,0.2-0.1,0.4-0.2,0.5s-0.3,0.3-0.4,0.4c-0.2,0.1-0.4,0.1-0.6,0.1
				c-0.3,0-0.6-0.1-0.8-0.3c-0.2-0.2-0.3-0.5-0.3-0.8c0-0.2,0-0.4,0.1-0.6c0.1-0.2,0.1-0.5,0.2-0.7s0.2-0.4,0.4-0.6
				c0.2-0.2,0.4-0.3,0.6-0.3c0.2,0,0.4,0,0.6,0.2c0.2,0.1,0.3,0.3,0.4,0.4c0.1,0.2,0.1,0.4,0.2,0.6C129.2,15.8,129.2,16,129.2,16.1z
				 M127.9,15.4c-0.1,0-0.2,0.1-0.3,0.1c-0.1,0.1-0.2,0.1-0.2,0.2c-0.1,0.1-0.1,0.2-0.2,0.3s-0.1,0.2-0.1,0.3c0,0.1,0,0.2,0.1,0.2
				c0.1,0.1,0.1,0.1,0.2,0.1c0.1,0,0.2,0,0.3,0.1c0.1,0,0.2,0,0.3,0c0.3,0,0.6-0.2,0.9-0.4c0-0.1,0-0.2,0-0.3s-0.1-0.2-0.2-0.3
				c-0.1-0.1-0.2-0.2-0.3-0.2C128.2,15.5,128,15.4,127.9,15.4z"/>
			<path d="M129.1,23.2C129.1,23.2,129.2,23.1,129.1,23.2c0.1,0,0.1,0,0.2,0.1c0.2,0.2,0.4,0.4,0.6,0.5c0.2,0.1,0.4,0.2,0.6,0.3
				c0.2,0.1,0.4,0.1,0.6,0.1c0.2,0,0.4,0,0.6,0h0.2c0.2,0,0.3,0.1,0.4,0.2c0.1,0.1,0.1,0.3,0.1,0.5s0,0.3-0.1,0.5
				c-0.1,0.1-0.2,0.2-0.4,0.2h-0.2c-0.1,0-0.1,0-0.2,0c-0.1,0-0.2,0-0.3,0c-0.1,0-0.2,0-0.4,0c-0.1,0-0.2,0-0.3,0
				c-0.1,0.4-0.2,0.8-0.3,1.2c-0.1,0.4-0.2,0.7-0.3,1c-0.1,0.3-0.2,0.5-0.3,0.7s-0.2,0.3-0.2,0.4c-0.2,0.3-0.5,0.5-0.7,0.8
				c-0.3,0.2-0.5,0.4-0.8,0.5c-0.3,0.1-0.6,0.2-0.9,0.3s-0.6,0.1-0.9,0.1c-0.4,0-0.9,0-1.4,0c-0.5-0.1-1-0.2-1.6-0.4
				c-0.1,0-0.1-0.1-0.2-0.1s0-0.1,0-0.1s0.1-0.1,0.2-0.1c0.1,0,0.2,0,0.3,0c0.7,0.1,1.4,0.1,2-0.1c0.6-0.1,1.2-0.4,1.9-0.7
				c0.7-0.4,1.3-0.9,1.7-1.5s0.7-1.2,0.9-1.9c-0.2-0.1-0.5-0.2-0.7-0.4c-0.2-0.2-0.4-0.3-0.5-0.5c0-0.2,0.1-0.4,0.1-0.6
				C129,23.7,129,23.4,129.1,23.2z"/>
			<path d="M135.3,28.1c-0.6,0.2-1.2,0.4-1.8,0.7c-0.6,0.2-1.1,0.4-1.7,0.6c-0.1,0-0.1,0-0.1-0.1c0-0.1,0.1-0.2,0.2-0.4
				c0.1-0.1,0.1-0.3,0.2-0.3c0,0,0.1-0.1,0.1-0.1c0.2-0.1,0.4-0.1,0.6-0.2c0.3-0.1,0.5-0.2,0.9-0.3c0.3-0.1,0.6-0.2,1-0.4
				c0.3-0.1,0.7-0.2,1-0.3c0.1,0,0.1,0,0.1,0.1c0,0.1-0.1,0.1-0.1,0.2s-0.1,0.1-0.1,0.2c0,0.1-0.1,0.1-0.1,0.2
				c0,0.1-0.1,0.1-0.1,0.1C135.4,28,135.4,28,135.3,28.1C135.4,28,135.3,28,135.3,28.1z"/>
			<path d="M131.8,24.2c0.1,0,0.3,0,0.5,0s0.4,0,0.7,0s0.5,0,0.8-0.1c0.3,0,0.6-0.1,0.8-0.2s0.5-0.2,0.7-0.3s0.4-0.2,0.5-0.4
				c0-0.1,0-0.2,0-0.3c0-0.1,0-0.2-0.1-0.3c0-0.1-0.1-0.2-0.1-0.3s-0.1-0.2-0.1-0.3c-0.1,0.1-0.1,0.2-0.2,0.3s-0.2,0.2-0.3,0.3
				c-0.1,0.1-0.2,0.2-0.4,0.2c-0.1,0.1-0.3,0.1-0.4,0.1c-0.2,0-0.3,0-0.5-0.1c-0.2-0.1-0.3-0.1-0.4-0.2c-0.1-0.1-0.2-0.2-0.3-0.3
				c-0.1-0.1-0.1-0.3-0.2-0.4c0-0.2,0-0.4,0-0.6c0-0.2,0-0.4,0.1-0.6c0.1-0.2,0.1-0.4,0.2-0.6c0.1-0.2,0.2-0.4,0.3-0.5
				c0.1-0.2,0.3-0.3,0.4-0.4c0.2-0.1,0.3-0.1,0.5-0.1c0.2,0,0.3,0.1,0.5,0.2s0.3,0.2,0.4,0.4c0.1,0.2,0.3,0.4,0.4,0.6
				c0.1,0.2,0.2,0.4,0.3,0.6c0.1,0.2,0.2,0.4,0.2,0.6c0.1,0.2,0.1,0.4,0.1,0.5c0,0.3,0,0.6,0,0.8c0,0.3-0.1,0.5-0.1,0.8
				c-0.1,0.2-0.2,0.5-0.3,0.7c-0.1,0.2-0.3,0.4-0.5,0.5c-0.2,0.2-0.5,0.3-0.8,0.4c-0.3,0.1-0.6,0.2-0.9,0.2c-0.3,0-0.7,0.1-1,0.1
				c-0.3,0-0.7,0-1,0h-0.1c-0.2,0-0.3-0.1-0.4-0.2c-0.1-0.1-0.1-0.3-0.1-0.5s0-0.3,0.1-0.5S131.5,24.2,131.8,24.2L131.8,24.2z
				 M133.7,15.5c0-0.1,0.1-0.1,0.1,0l1.1,0.9c0,0,0,0,0,0.1c0,0,0,0,0,0.1l-0.7,0.9c0,0-0.1,0.1-0.2,0l-1.1-0.9c0,0,0,0,0-0.1
				c0,0,0-0.1,0-0.1L133.7,15.5z M135.1,21.3c0-0.1,0-0.2-0.1-0.2c-0.1-0.1-0.1-0.2-0.2-0.2c-0.1-0.1-0.2-0.1-0.3-0.2
				c-0.1,0-0.2-0.1-0.2-0.1c-0.1,0-0.2,0-0.2,0.1c-0.1,0-0.2,0.1-0.2,0.2s-0.1,0.2-0.2,0.2c0,0.1-0.1,0.2-0.1,0.2
				c0.1,0.1,0.2,0.2,0.3,0.3s0.3,0.1,0.5,0.1s0.3,0,0.5-0.1S135,21.4,135.1,21.3z"/>
			<path d="M144.9,17C145,17,145,17.1,144.9,17c0.4,0.5,0.7,1,0.8,1.5s0.2,1.1,0.1,1.7c0,0.1,0,0.3-0.1,0.5s-0.1,0.3-0.2,0.5
				s-0.1,0.3-0.2,0.4c-0.1,0.1-0.1,0.2-0.2,0.2c0,0-0.1,0-0.1-0.1c0,0,0-0.1,0-0.2c0-0.1,0-0.1,0-0.2c0-0.1,0-0.2,0-0.2
				c0-0.3,0.1-0.5,0.1-0.8c0-0.3,0-0.5-0.1-0.8c-0.1-0.3-0.2-0.5-0.3-0.8c-0.1-0.3-0.3-0.5-0.5-0.8c0,0,0-0.1,0.1-0.2
				c0-0.1,0.1-0.2,0.2-0.3c0.1-0.1,0.1-0.2,0.2-0.3C144.9,17.1,144.9,17,144.9,17z"/>
			<path d="M150.5,10.5c-0.3,0.1-0.6,0.3-1,0.4c-0.3,0.1-0.7,0.3-1,0.4s-0.6,0.3-0.9,0.4s-0.5,0.2-0.7,0.3c0,0-0.1,0-0.1,0
				c0,0,0,0,0-0.1c0,0,0-0.1,0.1-0.2c0-0.1,0.1-0.2,0.1-0.3c0-0.1,0.1-0.2,0.1-0.3c0-0.1,0.1-0.1,0.1-0.1c0.1-0.1,0.1-0.1,0.2-0.2
				l3.5-1.5c0.1,0,0.1,0,0.1,0.1c0,0.1-0.1,0.1-0.1,0.2s-0.1,0.2-0.1,0.2s-0.1,0.2-0.1,0.2c0,0.1-0.1,0.1-0.1,0.2
				C150.6,10.4,150.5,10.5,150.5,10.5z"/>
			<path d="M150,23.3c0.5,0.1,0.9,0.3,1.2,0.6s0.3,0.6,0.3,1c0,0.4-0.1,0.7-0.3,1.1c-0.2,0.3-0.5,0.7-0.8,0.9s-0.7,0.6-1.1,0.8
				c-0.4,0.2-0.9,0.4-1.3,0.6s-0.9,0.3-1.4,0.4c-0.5,0.1-0.9,0.1-1.3,0.1c-0.5,0-1-0.1-1.5-0.2c-0.5-0.1-0.9-0.4-1.2-0.6
				s-0.6-0.6-0.8-1.1c-0.2-0.4-0.3-1-0.3-1.6c0-0.6,0.1-1.2,0.3-1.7c0.2-0.6,0.5-1.1,0.8-1.5c0,0,0-0.1,0.1,0s0.1,0,0.1,0
				c0,0,0,0.1,0,0.1c0,0,0,0.1,0,0.1c-0.2,0.4-0.4,0.9-0.5,1.3c-0.1,0.5-0.2,0.9-0.2,1.4c0,0.4,0.1,0.8,0.3,1.1
				c0.2,0.3,0.4,0.6,0.7,0.7c0.3,0.2,0.6,0.3,1,0.4s0.7,0.1,1.1,0.1c0.4,0,0.7,0,1.1-0.1c0.3-0.1,0.7-0.1,1-0.2s0.7-0.2,1-0.4
				s0.6-0.3,1-0.5c0.1,0,0.2-0.1,0.4-0.2s0.3-0.2,0.4-0.3c0.1-0.1,0.3-0.2,0.4-0.3c0.1-0.1,0.2-0.2,0.2-0.3c0-0.1-0.1-0.1-0.1-0.2
				c-0.1-0.1-0.2-0.1-0.3-0.2c-0.1,0-0.2-0.1-0.4-0.1c-0.2,0-0.4-0.1-0.6-0.1c-0.2,0-0.4-0.1-0.6-0.1c-0.2,0-0.4-0.1-0.6-0.1
				s-0.4,0-0.5-0.1c-0.1,0-0.2,0-0.3,0c0-0.1,0-0.2,0.1-0.3c0-0.1,0.1-0.2,0.1-0.3c0-0.1,0.1-0.2,0.2-0.3c0.1-0.1,0.1-0.2,0.2-0.2
				c0.1,0,0.3-0.1,0.5-0.2s0.4-0.2,0.6-0.2c0.2-0.1,0.4-0.2,0.5-0.3c0.2-0.1,0.2-0.1,0.2-0.2c0-0.1,0-0.3,0-0.5
				c0-0.2-0.1-0.5-0.1-0.8c0-0.3-0.1-0.6-0.1-0.9c0-0.3-0.1-0.6-0.1-0.8c-0.1-0.7-0.2-1.3-0.3-2c-0.1-0.6-0.2-1.3-0.3-2
				c0-0.3-0.1-0.5-0.1-0.7s-0.1-0.5-0.3-0.7c0,0,0-0.1-0.1-0.1c0,0,0,0,0,0c0,0,0,0,0-0.1c0,0,0,0,0-0.1c0.1-0.2,0.2-0.4,0.3-0.5
				c0.1-0.2,0.2-0.4,0.3-0.5c0-0.1,0.1-0.1,0.1-0.1c0,0,0.1,0,0.1,0.1c0,0.1,0.1,0.3,0.2,0.4s0.1,0.3,0.2,0.4s0.2,0.3,0.3,0.4
				c0.1,0.1,0.2,0.2,0.4,0.3c-0.1,0.1-0.2,0.3-0.2,0.4s-0.1,0.2-0.2,0.3c0,0.1-0.1,0.2-0.1,0.3c0,0.1,0,0.2,0,0.3
				c0.1,0.9,0.2,1.9,0.4,2.8c0.2,0.9,0.3,1.9,0.4,2.8c0,0.2,0,0.4,0,0.7c0,0.2,0,0.5-0.1,0.7s-0.1,0.4-0.1,0.6
				C150.2,23.1,150.1,23.2,150,23.3z"/>
			<path d="M155.8,30.2c-0.6,0.2-1.2,0.4-1.8,0.7c-0.6,0.2-1.1,0.4-1.7,0.6c-0.1,0-0.1,0-0.1-0.1c0-0.1,0.1-0.2,0.2-0.4
				c0.1-0.1,0.1-0.3,0.2-0.3c0,0,0.1-0.1,0.1-0.1c0.2-0.1,0.4-0.1,0.6-0.2c0.3-0.1,0.5-0.2,0.9-0.3c0.3-0.1,0.6-0.2,1-0.4
				c0.3-0.1,0.7-0.2,1-0.3c0.1,0,0.1,0,0.1,0.1c0,0.1-0.1,0.1-0.1,0.2s-0.1,0.1-0.1,0.2c0,0.1-0.1,0.1-0.1,0.2
				c0,0.1-0.1,0.1-0.1,0.1C155.9,30.1,155.9,30.1,155.8,30.2C155.8,30.1,155.8,30.2,155.8,30.2z"/>
			<path d="M152.7,28.1c0,0,0.1-0.1,0.2-0.1s0.1-0.1,0.2-0.1c0.1,0,0.1-0.1,0.2-0.1c0.1,0,0.1-0.1,0.2-0.1c-0.1-0.1-0.3-0.2-0.4-0.3
				c-0.1-0.1-0.2-0.3-0.3-0.4c0-0.1,0-0.1,0-0.2s0-0.2,0.1-0.2c0.1-0.1,0.2-0.3,0.3-0.4s0.2-0.3,0.4-0.4s0.3-0.2,0.4-0.3
				c0.2-0.1,0.3-0.1,0.5-0.1c0.1,0,0.1,0,0.2,0.1s0.1,0.1,0.2,0.1s0.1,0.1,0.1,0.2c0,0.1,0.1,0.1,0.1,0.2c0,0.1,0,0.2,0,0.3
				l-0.2,0.3c-0.1,0.1-0.1,0.2-0.2,0.2c-0.1,0-0.1,0-0.1-0.1c0-0.1,0-0.1-0.1-0.2c-0.1-0.1-0.1-0.1-0.2-0.2s-0.1,0-0.2,0
				c-0.3,0-0.5,0.1-0.7,0.3c0.1,0.2,0.2,0.4,0.4,0.5c0.2,0.2,0.4,0.3,0.6,0.3c0.3,0,0.6,0,0.8,0c0.3,0,0.5-0.1,0.8-0.2
				c0,0,0,0.1,0,0.1s-0.1,0.2-0.1,0.3s-0.1,0.2-0.1,0.3c0,0.1-0.1,0.1-0.1,0.1c-0.2,0-0.5,0.1-0.7,0.1c-0.3,0-0.5,0.1-0.8,0.2
				c-0.3,0.1-0.6,0.2-0.8,0.3c-0.3,0.1-0.6,0.2-0.8,0.4c-0.1,0-0.1,0-0.1-0.1c0-0.1,0.1-0.2,0.1-0.3
				C152.6,28.3,152.7,28.2,152.7,28.1z M153.8,13.7C153.9,13.7,153.9,13.7,153.8,13.7c0.1,0.1,0.1,0.1,0.1,0.1c0,0,0,0.1,0,0.1
				c0,0,0,0.1,0,0.1c0,0.2,0,0.4,0,0.6c0,0.2,0,0.4,0.1,0.6c0.1,0.5,0.1,1,0.2,1.5c0.1,0.5,0.1,1,0.2,1.6c0.1,0.5,0.1,1.1,0.2,1.6
				c0.1,0.5,0.1,1,0.2,1.5c0,0.2,0,0.4,0,0.7c0,0.3,0,0.5,0,0.8c0,0.3,0,0.5-0.1,0.8c0,0.2-0.1,0.5-0.2,0.6c0,0.1-0.1,0.2-0.2,0.2
				c0,0-0.1,0-0.1-0.1c-0.1-1-0.2-1.9-0.3-2.9c-0.1-1-0.3-2.1-0.4-3.1c-0.1-1-0.3-2.1-0.4-3.1c0-0.3,0.1-0.5,0.2-0.8
				c0.1-0.2,0.1-0.3,0.2-0.4C153.7,13.9,153.8,13.8,153.8,13.7z"/>
			<path class="st0" d="M160.4,15c0-0.2,0.1-0.4,0.2-0.6c0.1-0.2,0.2-0.4,0.3-0.6c0,0,0,0,0.1,0s0.1,0,0.1,0c0.1,0.3,0.2,0.7,0.2,1
				s0.1,0.7,0.2,1.1c0.1,0.4,0.1,0.9,0.2,1.3s0.1,1,0.2,1.6c0,0.5,0.1,0.9,0.1,1.2c0,0.3,0.1,0.6,0.1,0.9c0,0.3,0.1,0.5,0.1,0.7
				s0.1,0.4,0.1,0.7c0.1,0.3,0.1,0.6,0.2,0.8c0.1,0.2,0.2,0.4,0.4,0.5c0.2,0.1,0.4,0.3,0.6,0.3s0.5,0.1,0.8,0.1h0.1
				c0.2,0,0.3,0.1,0.4,0.2c0.1,0.1,0.1,0.3,0.1,0.5s0,0.3-0.1,0.5c-0.1,0.1-0.2,0.2-0.4,0.2h-0.1c-0.5,0-0.9-0.1-1.2-0.2
				c-0.3-0.2-0.6-0.4-0.8-0.6c-0.2-0.3-0.4-0.6-0.5-0.9c-0.1-0.3-0.2-0.7-0.3-1.1c0-0.3-0.1-0.7-0.1-1.1s-0.1-0.7-0.1-1.1
				c0-0.4-0.1-0.7-0.1-1s-0.1-0.6-0.1-0.9c-0.1-0.5-0.1-1.1-0.2-1.7c-0.1-0.6-0.2-1.2-0.4-1.8C160.4,15.2,160.4,15.1,160.4,15
				C160.4,15.1,160.4,15.1,160.4,15z"/>
			<path class="st0" d="M167.9,15.5c-0.3,0.1-0.6,0.3-1,0.4c-0.3,0.1-0.7,0.3-1,0.4s-0.6,0.3-0.9,0.4s-0.5,0.2-0.7,0.3
				c0,0-0.1,0-0.1,0c0,0,0,0,0-0.1c0,0,0-0.1,0.1-0.2c0-0.1,0.1-0.2,0.1-0.3c0-0.1,0.1-0.2,0.1-0.3c0-0.1,0.1-0.1,0.1-0.1
				c0.1-0.1,0.1-0.1,0.2-0.2l3.5-1.5c0.1,0,0.1,0,0.1,0.1c0,0.1-0.1,0.1-0.1,0.2s-0.1,0.2-0.1,0.2s-0.1,0.2-0.1,0.2
				c0,0.1-0.1,0.1-0.1,0.2C168,15.4,168,15.4,167.9,15.5z"/>
			<path class="st0" d="M167.3,22.3c0,0.1,0,0.1,0,0.2c0,0.1,0,0.2,0,0.3c0,0.2,0,0.3,0.1,0.5c0.1,0.2,0.2,0.3,0.4,0.4
				c0.2,0.1,0.4,0.2,0.6,0.3c0.3,0.1,0.6,0.1,0.9,0.1h0.2c0.2,0,0.3,0.1,0.4,0.2c0.1,0.1,0.1,0.3,0.1,0.5s0,0.3-0.1,0.5
				c-0.1,0.1-0.2,0.2-0.4,0.2h-0.2c-0.7,0-1.2-0.1-1.6-0.4c-0.4-0.3-0.7-0.6-0.9-1.1c-0.2,0.3-0.3,0.6-0.6,0.8s-0.4,0.3-0.7,0.4
				c-0.2,0.1-0.5,0.2-0.7,0.2c-0.2,0-0.4,0-0.6,0h-0.2c-0.2,0-0.3-0.1-0.4-0.2c-0.1-0.1-0.1-0.3-0.1-0.5s0-0.3,0.1-0.5
				c0.1-0.1,0.2-0.2,0.4-0.2h0.2c0.2,0,0.4,0,0.6,0c0.2,0,0.4,0,0.6-0.1c0.2-0.1,0.4-0.1,0.6-0.2c0.2-0.1,0.4-0.3,0.5-0.5
				c0.1-0.2,0.2-0.3,0.3-0.5s0.2-0.3,0.2-0.5c0,0,0-0.1,0-0.1c0,0,0.1,0,0.1,0C167.2,22.3,167.3,22.3,167.3,22.3
				C167.3,22.3,167.3,22.3,167.3,22.3z M166.5,26.9l1.1,0.9c0,0,0.1,0.1,0,0.1l-0.7,0.9c0,0.1-0.1,0.1-0.1,0l-1.1-0.9
				c0,0,0-0.1,0-0.2l0.7-0.9C166.4,26.9,166.5,26.9,166.5,26.9z"/>
			<path class="st0" d="M174.4,14.6c-0.3,0.1-0.6,0.3-1,0.4c-0.3,0.1-0.7,0.3-1,0.4s-0.6,0.3-0.9,0.4s-0.5,0.2-0.7,0.3
				c0,0-0.1,0-0.1,0c0,0,0,0,0-0.1c0,0,0-0.1,0.1-0.2c0-0.1,0.1-0.2,0.1-0.3c0-0.1,0.1-0.2,0.1-0.3c0-0.1,0.1-0.1,0.1-0.1
				c0.1-0.1,0.1-0.1,0.2-0.2l3.5-1.5c0.1,0,0.1,0,0.1,0.1c0,0.1-0.1,0.1-0.1,0.2s-0.1,0.2-0.1,0.2s-0.1,0.2-0.1,0.2
				c0,0.1-0.1,0.1-0.1,0.2C174.5,14.5,174.4,14.5,174.4,14.6z"/>
			<path class="st0" d="M171.9,20.2c-0.1,0-0.1-0.1-0.1-0.1s-0.1-0.1-0.1-0.1c0,0,0,0-0.1-0.1c0,0,0,0,0-0.1c0-0.1,0-0.3,0-0.4
				c0-0.1,0-0.2,0-0.3c0-0.1,0-0.2,0-0.3c0-0.1,0-0.2,0.1-0.3c0-0.1,0.1-0.2,0.2-0.2c0.1,0,0.2,0,0.3,0c0.2,0.1,0.5,0.3,0.8,0.4
				c0.3,0.2,0.6,0.4,1,0.6s0.7,0.4,1,0.7c0.3,0.2,0.6,0.5,0.9,0.7c0.3,0.3,0.5,0.5,0.7,0.8c0.2,0.3,0.3,0.6,0.3,0.9
				c0,0.2,0,0.4,0,0.6c0,0.2,0,0.4-0.1,0.6c-0.1,0.2-0.1,0.4-0.3,0.5c-0.1,0.2-0.3,0.3-0.4,0.4c-0.1,0.1-0.3,0.1-0.4,0.2
				c-0.1,0-0.2,0-0.4,0c-0.2,0-0.4-0.1-0.6-0.1c-0.2,0-0.5-0.1-0.7-0.1c-0.3-0.1-0.5-0.1-0.8-0.2c-0.3-0.1-0.5-0.1-0.7-0.2
				c-0.5,0.4-1,0.8-1.5,1c-0.5,0.2-1.1,0.4-1.7,0.4h-0.2c-0.2,0-0.3-0.1-0.4-0.2c-0.1-0.1-0.1-0.3-0.1-0.5s0-0.3,0.1-0.5
				c0.1-0.1,0.2-0.2,0.4-0.2h0.2c0.1,0,0.2,0,0.4,0c0.2,0,0.3,0,0.5-0.1s0.3-0.1,0.5-0.1c0.2-0.1,0.3-0.1,0.5-0.2
				c-0.1-0.1-0.2-0.3-0.3-0.5s-0.1-0.4,0-0.6c0-0.2,0.1-0.5,0.1-0.7c0.1-0.2,0.1-0.5,0.2-0.7c0.1-0.2,0.2-0.4,0.3-0.6
				C171.7,20.5,171.8,20.3,171.9,20.2z M172.7,23c0.1,0,0.2,0,0.3-0.1c0.1-0.1,0.2-0.1,0.3-0.2c0.1-0.1,0.2-0.2,0.3-0.2
				s0.1-0.1,0.1-0.2c0-0.1,0-0.3-0.1-0.4s-0.2-0.3-0.3-0.4c-0.1-0.1-0.2-0.3-0.4-0.3c-0.1-0.1-0.3-0.1-0.4-0.1
				c-0.1,0-0.2,0.1-0.3,0.2c-0.1,0.1-0.2,0.2-0.3,0.3c-0.1,0.1-0.2,0.3-0.3,0.4s-0.1,0.3-0.1,0.5c0,0.1,0,0.2,0.1,0.3
				c0.1,0.1,0.2,0.2,0.3,0.2c0.1,0.1,0.3,0.1,0.4,0.1S172.6,23,172.7,23z M176.3,23.3c0-0.1,0-0.2-0.1-0.4c-0.1-0.1-0.2-0.3-0.3-0.4
				c-0.1-0.1-0.3-0.3-0.4-0.4c-0.1-0.1-0.3-0.3-0.4-0.4s-0.3-0.2-0.4-0.3c-0.1-0.1-0.3-0.2-0.3-0.2c0,0-0.1,0-0.1,0c0,0,0,0,0,0.1
				c0.1,0.3,0.1,0.6,0.1,1c0,0.3-0.1,0.6-0.2,0.9c0,0,0,0.1,0,0.1c0.1,0,0.3,0.1,0.5,0.1s0.4,0.1,0.6,0.1c0.2,0,0.4,0.1,0.6,0.1
				c0.2,0,0.3,0,0.5,0C176.2,23.4,176.3,23.4,176.3,23.3z"/>
			<path class="st0" d="M181.3,12c0,0.2,0,0.4-0.1,0.6c-0.1,0.2-0.1,0.4-0.2,0.5s-0.3,0.3-0.4,0.4c-0.2,0.1-0.4,0.1-0.6,0.1
				c-0.3,0-0.6-0.1-0.8-0.3c-0.2-0.2-0.3-0.5-0.3-0.8c0-0.2,0-0.4,0.1-0.6c0.1-0.2,0.1-0.5,0.2-0.7s0.2-0.4,0.4-0.6
				c0.2-0.2,0.4-0.3,0.6-0.3c0.2,0,0.4,0,0.6,0.2c0.2,0.1,0.3,0.3,0.4,0.4c0.1,0.2,0.1,0.4,0.2,0.6C181.3,11.6,181.3,11.8,181.3,12z
				 M180,11.3c-0.1,0-0.2,0.1-0.3,0.1c-0.1,0.1-0.2,0.1-0.2,0.2c-0.1,0.1-0.1,0.2-0.2,0.3s-0.1,0.2-0.1,0.3c0,0.1,0,0.2,0.1,0.2
				c0.1,0.1,0.1,0.1,0.2,0.1c0.1,0,0.2,0,0.3,0.1c0.1,0,0.2,0,0.3,0c0.3,0,0.6-0.2,0.9-0.4c0-0.1,0-0.2,0-0.3s-0.1-0.2-0.2-0.3
				c-0.1-0.1-0.2-0.2-0.3-0.2C180.2,11.3,180.1,11.3,180,11.3z"/>
			<path class="st0" d="M180.1,20.2c0-0.2,0-0.4,0-0.6s0-0.4,0-0.6c0-0.1,0.1-0.2,0.1-0.2c0.1,0,0.1,0,0.2,0
				c0.4,0.1,0.8,0.3,1.2,0.6s0.7,0.6,1,1c0.3,0.4,0.5,0.8,0.7,1.2s0.3,0.8,0.3,1.2c0,0.1,0,0.3,0,0.5c0,0.2,0,0.4-0.1,0.6
				s-0.1,0.3-0.1,0.5c-0.1,0.1-0.1,0.3-0.2,0.3c-0.2,0.2-0.5,0.3-0.8,0.4c-0.3,0.1-0.6,0.2-1,0.3c-0.3,0.1-0.7,0.1-1.1,0.2
				c-0.4,0-0.7,0-1,0c-0.1,0-0.2,0-0.3,0s-0.2,0-0.3-0.1c-0.1,0-0.2-0.1-0.3-0.1c-0.1-0.1-0.1-0.1-0.1-0.2c0,0,0-0.1,0-0.3
				s0-0.3,0-0.4c0-0.2,0-0.3,0-0.4c0-0.1,0-0.2,0.1-0.2c0,0,0,0,0,0s0,0,0.1,0.1c0.1,0.1,0.2,0.1,0.4,0.2c0.1,0,0.3,0.1,0.5,0.1
				c0.2,0,0.3,0,0.5,0s0.3,0,0.4,0c0.2,0,0.4,0,0.7-0.1s0.4-0.1,0.7-0.1c0.2,0,0.4-0.1,0.6-0.2s0.4-0.1,0.5-0.2
				c0.1,0,0.1-0.1,0.2-0.1c0.1,0,0.1-0.1,0.1-0.1c-0.1-0.3-0.2-0.6-0.4-1c-0.2-0.4-0.4-0.7-0.7-1c-0.3-0.3-0.6-0.6-0.9-0.8
				S180.5,20.3,180.1,20.2z M179.8,15.1L181,16c0,0,0.1,0.1,0,0.1l-0.7,0.9c0,0.1-0.1,0.1-0.1,0l-1.1-0.9c0,0,0-0.1,0-0.2l0.7-0.9
				C179.8,15,179.8,15,179.8,15.1z"/>
			<path class="st0" d="M186.1,13.9C186.2,13.9,186.2,13.9,186.1,13.9c0.1,0.1,0.1,0.1,0.1,0.1s0,0.1,0,0.1s0,0.1,0,0.1
				c0,0.2,0,0.5,0,0.7c0,0.2,0,0.4,0.1,0.7c0.1,0.5,0.1,1.1,0.2,1.7c0.1,0.6,0.2,1.1,0.2,1.7c0.1,0.6,0.2,1.2,0.2,1.7
				s0.2,1.1,0.2,1.7c0,0.2,0,0.5,0,0.7c0,0.3,0,0.6,0,0.9c0,0.3,0,0.6-0.1,0.8c0,0.3-0.1,0.5-0.2,0.7c0,0.1-0.1,0.2-0.2,0.2
				c0,0-0.1,0-0.1-0.1c-0.1-1-0.2-2.1-0.3-3.2c-0.2-1.1-0.3-2.3-0.5-3.4s-0.3-2.3-0.4-3.4c0-0.3,0.1-0.6,0.2-0.9
				c0.1-0.2,0.1-0.3,0.2-0.5C186,14.1,186.1,14,186.1,13.9z"/>
		</g>
		<g>
			<path d="M202.7,21.7c0,0.1-0.1,0.2-0.2,0.4c-0.1,0.2-0.4,0.3-0.7,0.5c0,0.3,0,0.6-0.1,0.9c-0.1,0.2-0.2,0.4-0.3,0.4
				c-0.3-0.3-0.6-0.6-0.9-0.8c-0.3-0.2-0.6-0.4-1-0.4c0,0.3,0.2,0.7,0.5,1c0.3,0.3,0.5,0.6,0.8,0.8c0,0.1-0.3,0.3-0.8,0.4
				c-0.4,0.1-0.7,0.1-1,0.1c-0.4,1.2-0.9,2.2-1.6,3.2c-0.3,0.4-0.7,0.9-1.2,1.4c-0.7,0.7-1.2,1-1.5,1c-0.1,0-0.2-0.1-0.2-0.2
				c0-0.1,0.2-0.3,0.6-0.8c0.5-0.6,1-1.2,1.2-1.7c0.5-0.9,0.8-1.9,1-3c-0.4,0-0.6-0.1-0.7-0.1c-0.1,0-0.1-0.1-0.1-0.2
				c0.8-0.6,1.2-1.3,1.2-1.8c-0.3,0-0.7,0.1-0.9,0.4c-0.2,0.2-0.5,0.5-0.8,0.8c-0.1,0-0.2-0.1-0.3-0.4c-0.1-0.3-0.2-0.6-0.2-0.9
				c-0.3-0.2-0.5-0.3-0.6-0.3c-0.2-0.2-0.3-0.3-0.3-0.5c0-0.1,0.1-0.2,0.2-0.3c0.1-0.1,0.3-0.2,0.7-0.4c0-0.9,0.2-1.3,0.5-1.3
				c0.7,0.7,1.3,1.1,1.8,1.2c0-0.3-0.1-0.6-0.4-1c0,0-0.3-0.3-0.8-0.9c0-0.1,0.1-0.1,0.2-0.2c0.1-0.1,0.4-0.1,0.7-0.2
				c-0.2-0.9-0.5-1.8-1.1-2.7c-0.5-0.9-1.1-1.7-1.8-2.3c-0.1-0.1-0.2-0.2-0.2-0.3s0.1-0.1,0.2-0.1c0.2,0,0.6,0.2,1.1,0.5
				c1.5,1.1,2.6,2.7,3.4,4.8c1.1,0,1.7,0.2,1.7,0.5c-0.3,0.3-0.6,0.5-0.8,0.8c-0.2,0.3-0.4,0.7-0.4,1c0.3,0,0.6-0.1,0.9-0.4l0.9-0.8
				c0.2,0,0.3,0.4,0.4,1.1c0,0.1,0,0.1,0,0.2C202.4,21.2,202.7,21.5,202.7,21.7z M200.1,19c0,0-0.1-0.1-0.3-0.1s-0.4-0.1-0.5-0.1
				H199c-0.1,0-0.1,0-0.2,0c-0.3-1-0.8-2-1.4-2.9c-0.7-1-1.5-1.8-2.4-2.4c0.6,0.6,1.2,1.3,1.6,2.1c0.6,1,1,2.1,1.1,3.1
				c-0.4,0-0.6,0.1-0.7,0.2c0.5,0.4,0.8,0.8,1,1.2c0.1-0.2,0.1-0.4,0.3-0.6c0,0,0.1-0.1,0.1-0.3c0.1-0.2,0.1-0.2,0.1-0.2
				c0.1,0,0.3,0.4,0.6,1.1c0.1-0.3,0.3-0.5,0.5-0.8C199.7,19.4,199.9,19.2,200.1,19z M197.2,22.3c-0.1,0-0.4-0.2-0.9-0.3
				c-0.3-0.1-0.5-0.2-0.5-0.3c0,0,0.3-0.1,0.8-0.4c0.1,0,0.3-0.1,0.6-0.2c-0.3-0.1-0.5-0.2-0.8-0.4c-0.1-0.1-0.3-0.3-0.5-0.5
				c-0.1,0-0.1,0.3-0.1,1c-0.5,0.3-0.7,0.5-0.8,0.6c0,0.1,0.3,0.3,0.8,0.5c0,0.7,0.1,1,0.2,1c0,0,0.2-0.1,0.5-0.4
				C196.8,22.6,197.1,22.4,197.2,22.3z M200.2,24.4c-0.4-0.3-0.7-0.7-1-1.2c0,0.1-0.1,0.3-0.3,0.5c0,0-0.1,0.1-0.2,0.3
				c-0.1,0.2-0.1,0.2-0.2,0.2c0,0-0.1-0.1-0.2-0.3c-0.1-0.2-0.1-0.3-0.1-0.3c0-0.1-0.1-0.3-0.3-0.6c-0.1,0.2-0.2,0.5-0.4,0.7
				c-0.1,0.2-0.3,0.3-0.5,0.5c0,0,0.2,0.1,0.6,0.2c-0.3,1-0.4,1.7-0.5,2c-0.4,1.2-1,2.3-2,3.3c1.5-1,2.7-2.8,3.5-5.3
				c0.6,0,0.8,0,0.7,0C199.9,24.6,200.1,24.5,200.2,24.4z M199.6,21.7c0-0.3-0.1-0.6-0.3-0.7c-0.2-0.2-0.5-0.3-0.8-0.3
				c-0.3,0-0.5,0.1-0.7,0.3c-0.2,0.2-0.3,0.4-0.3,0.7c0,0.3,0.1,0.5,0.3,0.7c0.2,0.2,0.5,0.3,0.8,0.3c0.3,0,0.6-0.1,0.8-0.3
				C199.5,22.3,199.6,22,199.6,21.7z M202.2,21.7c0-0.1-0.1-0.1-0.2-0.2s-0.3-0.2-0.6-0.3c0-0.3,0-0.5-0.1-0.7
				c0-0.2-0.1-0.3-0.1-0.3c0,0-0.2,0.1-0.4,0.4c-0.3,0.3-0.6,0.5-0.9,0.6c0.1,0.1,0.4,0.2,0.6,0.3c0,0,0.2,0.1,0.5,0.2
				c0.2,0.1,0.3,0.1,0.3,0.2c0,0.1-0.2,0.2-0.5,0.3c-0.5,0.1-0.8,0.2-0.9,0.3c0.3,0.1,0.6,0.2,0.8,0.4c0.1,0.1,0.3,0.3,0.5,0.5
				c0.1,0,0.1-0.1,0.1-0.3c0-0.1,0-0.3,0-0.7C202,22,202.2,21.8,202.2,21.7z"/>
		</g>
		<g>
			<path d="M39.9,22c0-0.1,0.1-0.2,0.2-0.4c0.1-0.2,0.4-0.3,0.7-0.5c0-0.3,0-0.6,0.1-0.9c0.1-0.2,0.2-0.4,0.3-0.4
				c0.3,0.3,0.6,0.6,0.9,0.8c0.3,0.2,0.6,0.4,1,0.4c0-0.3-0.2-0.7-0.5-1c-0.3-0.3-0.5-0.6-0.8-0.8c0-0.1,0.3-0.3,0.8-0.4
				c0.4-0.1,0.7-0.1,1-0.1c0.4-1.2,0.9-2.2,1.6-3.2c0.3-0.4,0.7-0.9,1.2-1.4c0.7-0.7,1.2-1,1.5-1c0.1,0,0.2,0.1,0.2,0.2
				c0,0.1-0.2,0.3-0.6,0.8c-0.5,0.6-1,1.2-1.2,1.7c-0.5,0.9-0.8,1.9-1,3c0.4,0,0.6,0.1,0.7,0.1c0.1,0,0.1,0.1,0.1,0.2
				c-0.8,0.6-1.2,1.3-1.2,1.8c0.3,0,0.7-0.1,0.9-0.4c0.2-0.2,0.5-0.5,0.8-0.8c0.1,0,0.2,0.1,0.3,0.4c0.1,0.3,0.2,0.6,0.2,0.9
				c0.3,0.2,0.5,0.3,0.6,0.3c0.2,0.2,0.3,0.3,0.3,0.5c0,0.1-0.1,0.2-0.2,0.3c-0.1,0.1-0.3,0.2-0.7,0.4c0,0.9-0.2,1.3-0.5,1.3
				c-0.7-0.7-1.3-1.1-1.8-1.2c0,0.3,0.1,0.6,0.4,1c0,0,0.3,0.3,0.8,0.9c0,0.1-0.1,0.1-0.2,0.2c-0.1,0.1-0.4,0.1-0.7,0.2
				c0.2,0.9,0.5,1.8,1.1,2.7c0.5,0.9,1.1,1.7,1.8,2.3c0.1,0.1,0.2,0.2,0.2,0.3c0,0.1-0.1,0.1-0.2,0.1c-0.2,0-0.6-0.2-1.1-0.5
				c-1.5-1.1-2.6-2.7-3.4-4.8c-1.1,0-1.7-0.2-1.7-0.5c0.3-0.3,0.6-0.5,0.8-0.8c0.2-0.3,0.4-0.7,0.4-1c-0.3,0-0.6,0.1-0.9,0.4
				l-0.9,0.8c-0.2,0-0.3-0.4-0.4-1.1c0-0.1,0-0.1,0-0.2C40.2,22.5,39.9,22.2,39.9,22z M42.5,24.7c0,0,0.1,0.1,0.3,0.1
				c0.2,0,0.4,0.1,0.5,0.1h0.3c0.1,0,0.1,0,0.2,0c0.3,1,0.8,2,1.4,2.9c0.7,1,1.5,1.8,2.4,2.4c-0.6-0.6-1.2-1.3-1.6-2.1
				c-0.6-1-1-2.1-1.1-3.1c0.4,0,0.6-0.1,0.7-0.2c-0.5-0.4-0.8-0.8-1-1.2c-0.1,0.2-0.1,0.4-0.3,0.6c0,0-0.1,0.1-0.1,0.3
				c-0.1,0.2-0.1,0.2-0.1,0.2c-0.1,0-0.3-0.4-0.6-1.1c-0.1,0.3-0.3,0.5-0.5,0.8C42.9,24.3,42.7,24.5,42.5,24.7z M45.3,21.3
				c0.1,0,0.4,0.2,0.9,0.3c0.3,0.1,0.5,0.2,0.5,0.3c0,0-0.3,0.1-0.8,0.4c-0.1,0-0.3,0.1-0.6,0.2c0.3,0.1,0.5,0.2,0.8,0.4
				c0.1,0.1,0.3,0.3,0.5,0.5c0.1,0,0.1-0.3,0.1-1c0.5-0.3,0.7-0.5,0.8-0.6c0-0.1-0.3-0.3-0.8-0.5c0-0.7-0.1-1-0.2-1
				c0,0-0.2,0.1-0.5,0.4C45.8,21.1,45.5,21.3,45.3,21.3z M42.4,19.3c0.4,0.3,0.7,0.7,1,1.2c0-0.1,0.1-0.3,0.3-0.5
				c0,0,0.1-0.1,0.2-0.3c0.1-0.2,0.1-0.2,0.2-0.2c0,0,0.1,0.1,0.2,0.3c0.1,0.2,0.1,0.3,0.1,0.3c0,0.1,0.1,0.3,0.3,0.6
				c0.1-0.2,0.2-0.5,0.4-0.7c0.1-0.2,0.3-0.3,0.5-0.5c0,0-0.2-0.1-0.6-0.2c0.3-1,0.4-1.7,0.5-2c0.4-1.2,1-2.3,2-3.3
				c-1.5,1-2.7,2.8-3.5,5.3c-0.6,0-0.8,0-0.7,0C42.7,19.1,42.4,19.1,42.4,19.3z M42.9,21.9c0,0.3,0.1,0.6,0.3,0.7
				c0.2,0.2,0.5,0.3,0.8,0.3c0.3,0,0.5-0.1,0.7-0.3c0.2-0.2,0.3-0.4,0.3-0.7c0-0.3-0.1-0.5-0.3-0.7c-0.2-0.2-0.5-0.3-0.8-0.3
				c-0.3,0-0.6,0.1-0.8,0.3C43,21.4,42.9,21.6,42.9,21.9z M40.4,22c0,0.1,0.1,0.1,0.2,0.2s0.3,0.2,0.6,0.3c0,0.3,0,0.5,0.1,0.7
				c0,0.2,0.1,0.3,0.1,0.3c0,0,0.2-0.1,0.4-0.4c0.3-0.3,0.6-0.5,0.9-0.6c-0.1-0.1-0.4-0.2-0.6-0.3c0,0-0.2-0.1-0.5-0.2
				c-0.2-0.1-0.3-0.1-0.3-0.2c0-0.1,0.2-0.2,0.5-0.3c0.5-0.1,0.8-0.2,0.9-0.3c-0.3-0.1-0.6-0.2-0.8-0.4c-0.1-0.1-0.3-0.3-0.5-0.5
				c-0.1,0-0.1,0.1-0.1,0.3c0,0.1,0,0.3,0,0.7C40.6,21.7,40.4,21.9,40.4,22z"/>
		</g>
	</g>
	<rect class="st1" width="242.6" height="39.4"/>
</g>
</svg>
