<?xml version="1.0" encoding="utf-8"?>
<!-- Generator: Adobe Illustrator 19.2.0, SVG Export Plug-In . SVG Version: 6.00 Build 0)  -->
<svg version="1.1" id="Layer_1" xmlns="http://www.w3.org/2000/svg" xmlns:xlink="http://www.w3.org/1999/xlink" x="0px" y="0px"
	 viewBox="0 0 242.6 39.4" style="enable-background:new 0 0 242.6 39.4;" xml:space="preserve">
<style type="text/css">
	.st0{fill:#CC4A6C;}
	.st1{fill:none;}
</style>
<g>
	<g>
		<g>
			<g>
				<path class="st0" d="M40.8,30.7H39c-0.9-1.4-1.7-2.9-2.2-4.4c-0.5-1.5-0.7-3-0.7-4.5c0-1.8,0.3-3.5,0.9-5.1
					c0.5-1.4,1.2-2.7,2-3.8h1.8c-0.8,1.9-1.4,3.5-1.7,4.8s-0.5,2.7-0.5,4.2c0,1,0.1,2.1,0.3,3.1c0.2,1.1,0.4,2.1,0.8,3
					C39.9,28.6,40.2,29.5,40.8,30.7z"/>
				<path class="st0" d="M49.3,23.9h-1.2c-0.2,0-0.4,0-0.6-0.1c-0.4-0.2-0.7-0.5-0.9-1c-0.3-0.7-0.5-1.6-0.6-2.7
					c-0.4,0.5-0.7,0.9-1,1.1c-0.3,0.3-0.6,0.5-0.9,0.5c-0.1,0-0.3,0-0.4-0.1l-1.1-0.2c-0.5-0.1-0.8-0.2-0.9-0.2
					c-0.1,0-0.2-0.1-0.2-0.2c0-0.2,0.2-0.7,0.6-1.6c0.4-0.9,0.7-1.4,0.9-1.6c0.2-0.2,0.4-0.4,0.8-0.6c0.2-0.2,0.6-0.4,1-0.6l0.5-0.3
					c0-0.1,0-0.2,0-0.3c0-0.1,0-0.2,0-0.3c0-0.2,0.1-0.5,0.2-0.9s0.3-0.8,0.6-1.3l0.9,5.8c0.1,0.9,0.3,1.5,0.6,1.8
					c0.1,0.2,0.4,0.3,0.6,0.3h1.2V23.9z M47.2,10.9l-1,1.7l-1.3-0.7l-0.7,1.5l-1.7-0.9l1-1.6l1.4,0.7l0.8-1.4L47.2,10.9z M45.7,18.7
					l-0.2-1.1c-0.2,0.1-0.4,0.2-0.5,0.2c-0.3,0.2-0.6,0.3-0.8,0.5c-0.1,0.1-0.3,0.2-0.4,0.3c-0.1,0.1-0.2,0.2-0.2,0.3
					c0,0.1,0.1,0.2,0.3,0.2c0.2,0,0.4,0.1,0.6,0.1c0.1,0,0.3,0,0.4-0.1C45.2,19.1,45.4,18.9,45.7,18.7z"/>
				<path class="st0" d="M58.5,19.5l-1,2.6c-1.7,0.5-3,0.9-4.1,1.2c-0.9,0.2-1.7,0.4-2.4,0.5c-0.5,0.1-1,0.1-1.4,0.1h-0.8v-2.5h1
					c0.2,0,0.3,0,0.4,0c0.2,0,0.4,0,0.5-0.1c-0.3-0.5-0.5-0.8-0.6-1.1c-0.1-0.3-0.2-0.6-0.2-1c0-0.9,0.4-1.7,1.1-2.4
					c0.8-0.7,1.7-1,2.7-1c0.7,0,1.3,0.2,2,0.7c0.6,0.4,1,0.9,1.3,1.5l-0.4,0.3C56,18.2,55.6,18,55.3,18s-0.6-0.1-1.1-0.1
					c-0.8,0-1.4,0.1-2,0.2c-0.7,0.2-1.1,0.4-1.1,0.7c0,0.4,0.9,1.1,2.6,2.1L58.5,19.5z"/>
				<path class="st0" d="M64,23.9h-1.3c-0.7,0-1.2-0.3-1.6-0.9c-0.4-0.7-0.5-1.8-0.5-3.3v-2.6c0-0.6-0.1-1.1-0.3-1.4
					c-0.1-0.2-0.3-0.4-0.6-0.7l1-2.3c0.4,0.5,0.6,1,0.8,1.5c0.2,0.6,0.3,1.3,0.3,2.1v1.8c0,1.3,0.1,2.2,0.3,2.7
					c0.1,0.4,0.4,0.6,0.6,0.6H64V23.9z"/>
				<path class="st0" d="M71.9,23.9c-0.6,0-1.4-0.1-2.3-0.4c-0.8-0.2-1.5-0.5-2-0.8c-0.4,0.5-0.8,0.9-1.3,1.1
					c-0.3,0.1-0.6,0.1-1,0.1h-1.8v-2.5h1.8c0.6,0,1-0.1,1.3-0.2c0.4-0.2,0.7-0.5,0.9-0.9c0.4-0.8,0.8-1.4,1.4-1.9
					c0.5-0.5,0.9-0.7,1.2-0.7c0.3,0,0.7,0.5,1.2,1.4c0.5,1,0.7,1.9,0.7,2.8V23.9z M70.2,21.1c0-0.1-0.1-0.4-0.4-0.7
					c-0.3-0.4-0.6-0.6-0.8-0.6c-0.2,0-0.4,0.3-0.6,0.8c0.3,0.1,0.6,0.2,0.7,0.3c0.5,0.2,0.8,0.3,0.8,0.3
					C70.1,21.3,70.2,21.2,70.2,21.1z"/>
				<path class="st0" d="M81.8,23.9H71.2v-2.5h6.6c-0.7-0.8-1.4-1.3-2.1-1.7c-0.6-0.3-1.1-0.5-1.6-0.5c-0.2,0-0.3,0-0.4,0
					s-0.3,0.1-0.6,0.1c0.3-0.8,0.7-1.4,1.1-1.7c0.4-0.4,0.9-0.6,1.4-0.6c0.4,0,0.8,0.1,1.2,0.3c0.4,0.2,0.8,0.5,1.3,1
					c0.4,0.3,0.9,0.9,1.6,1.6c0.5,0.5,0.8,0.9,1.1,1s0.6,0.3,1.1,0.4V23.9z M78.4,26l-1.2,2.1l-2.1-1.1l1.1-2.1L78.4,26z"/>
				<path class="st0" d="M86.3,23.9h-5.1v-2.5h4L84,15.1l-0.6-0.4c0-0.4,0.1-0.7,0.2-1.1c0.1-0.5,0.4-1,0.7-1.7l0.4,0.2
					c0,0,0,0.1,0,0.3c0,0.2,0.1,0.4,0.4,0.6c0.2,0.2,0.6,0.4,1.1,0.6c-0.1,0.4-0.1,0.8-0.2,1.2s-0.2,0.7-0.4,1l-0.3-0.1l1,5.7V23.9z
					"/>
				<path class="st0" d="M89.7,21.2c0,0.5-0.1,1.1-0.2,1.5s-0.4,1.1-0.8,1.8l-0.6-0.2c0.1-0.8,0.2-1.4,0.2-1.9c0-0.4,0-0.9-0.1-1.7
					c-0.1-0.7-0.1-1.5-0.2-2.2c-0.1-0.7-0.2-1.6-0.5-2.6c-0.1-0.3-0.1-0.6-0.1-0.7c0-0.2,0.1-0.5,0.3-1c0.2-0.5,0.5-1,0.8-1.7
					l0.6,3.3c0.2,1.2,0.3,2.3,0.4,3.2C89.7,19.9,89.7,20.6,89.7,21.2z"/>
				<path class="st0" d="M104.2,23.3c0,1.1-0.5,2.1-1.4,3.2c-0.9,1-1.8,1.6-2.7,1.6c-0.5,0-1.1-0.2-1.7-0.5c-0.6-0.3-1.5-1-2.8-1.9
					l0.4-0.5c0.7,0.4,1.2,0.7,1.6,0.9c0.4,0.1,0.8,0.2,1.2,0.2c0.6,0,1.2-0.2,1.8-0.5c0.7-0.4,1.4-1,2.2-1.9c-0.3,0-0.5,0.1-0.6,0.1
					c-0.6,0-1.1-0.2-1.5-0.6s-0.5-0.9-0.5-1.6c0-0.9,0.2-1.8,0.6-2.7c0.5-0.9,1-1.4,1.6-1.4c0.5,0,0.9,0.3,1.3,1
					c0.3,0.7,0.5,1.5,0.5,2.4V23.3z M103.1,21.4c-0.2-1-0.5-1.5-1.1-1.5c-0.2,0-0.3,0.1-0.5,0.2s-0.2,0.3-0.2,0.5
					c0,0.2,0.1,0.4,0.4,0.6c0.2,0.1,0.6,0.2,1,0.2H103.1z"/>
				<path class="st0" d="M107.6,21.2c0,0.5-0.1,1.1-0.2,1.5s-0.4,1.1-0.8,1.8l-0.6-0.2c0.1-0.8,0.2-1.4,0.2-1.9c0-0.4,0-0.9-0.1-1.7
					c-0.1-0.7-0.1-1.5-0.2-2.2c-0.1-0.7-0.2-1.6-0.5-2.6c-0.1-0.3-0.1-0.6-0.1-0.7c0-0.2,0.1-0.5,0.3-1c0.2-0.5,0.5-1,0.8-1.7
					l0.6,3.3c0.2,1.2,0.3,2.3,0.4,3.2C107.6,19.9,107.6,20.6,107.6,21.2z"/>
				<path class="st0" d="M116.9,23.3c0,1.1-0.5,2.1-1.4,3.2c-0.9,1-1.8,1.6-2.7,1.6c-0.5,0-1.1-0.2-1.7-0.5c-0.6-0.3-1.5-1-2.8-1.9
					l0.4-0.5c0.7,0.4,1.2,0.7,1.6,0.9c0.4,0.1,0.8,0.2,1.2,0.2c0.6,0,1.2-0.2,1.8-0.5c0.7-0.4,1.4-1,2.2-1.9c-0.3,0-0.5,0.1-0.6,0.1
					c-0.6,0-1.1-0.2-1.5-0.6s-0.5-0.9-0.5-1.6c0-0.9,0.2-1.8,0.6-2.7c0.5-0.9,1-1.4,1.6-1.4c0.5,0,0.9,0.3,1.3,1
					c0.3,0.7,0.5,1.5,0.5,2.4V23.3z M115.8,21.4c-0.2-1-0.5-1.5-1.1-1.5c-0.2,0-0.3,0.1-0.5,0.2s-0.2,0.3-0.2,0.5
					c0,0.2,0.1,0.4,0.4,0.6c0.2,0.1,0.6,0.2,1,0.2H115.8z"/>
				<path class="st0" d="M130,23.9h-1.2c-0.2,0-0.4,0-0.6-0.1c-0.4-0.2-0.7-0.5-0.9-1c-0.3-0.7-0.5-1.6-0.6-2.7
					c-0.4,0.5-0.7,0.9-1,1.1c-0.3,0.3-0.6,0.5-0.9,0.5c-0.1,0-0.3,0-0.4-0.1l-1.1-0.2c-0.5-0.1-0.8-0.2-0.9-0.2
					c-0.1,0-0.2-0.1-0.2-0.2c0-0.2,0.2-0.7,0.6-1.6c0.4-0.9,0.7-1.4,0.9-1.6c0.2-0.2,0.4-0.4,0.8-0.6c0.2-0.2,0.6-0.4,1-0.6l0.5-0.3
					c0-0.1,0-0.2,0-0.3c0-0.1,0-0.2,0-0.3c0-0.2,0.1-0.5,0.2-0.9s0.3-0.8,0.6-1.3l0.9,5.8c0.1,0.9,0.3,1.5,0.6,1.8
					c0.1,0.2,0.4,0.3,0.6,0.3h1.2V23.9z M126.4,18.7l-0.2-1.1c-0.2,0.1-0.4,0.2-0.5,0.2c-0.3,0.2-0.6,0.3-0.8,0.5
					c-0.1,0.1-0.3,0.2-0.4,0.3c-0.1,0.1-0.2,0.2-0.2,0.3c0,0.1,0.1,0.2,0.3,0.2c0.2,0,0.4,0.1,0.6,0.1c0.1,0,0.3,0,0.4-0.1
					C126,19.1,126.2,18.9,126.4,18.7z"/>
				<path class="st0" d="M135.2,23.9h-5.8v-2.5h4.9c-0.1-0.4-0.2-0.8-0.4-1.1c-0.1-0.2-0.3-0.4-0.6-0.8l0.7-2.2
					c0.5,0.5,0.8,1.1,0.9,1.6c0.2,0.6,0.3,1.4,0.3,2.6V23.9z M134.3,25.9l-1.1,2.1l-2.1-1.2l1.1-2.1L134.3,25.9z"/>
				<path class="st0" d="M152.8,23.9H145c-0.7,0-1.2,0-1.5,0c-0.2,0-0.5-0.1-0.8-0.2c-0.5-0.2-0.9-0.5-1.3-1.1
					c-0.3-0.5-0.5-1.1-0.5-1.8c0-0.3,0-0.5,0-0.7c0-0.2,0.1-0.4,0.1-0.7c0.1-0.4,0.2-0.7,0.4-1c0.1-0.3,0.4-0.6,0.7-1.1l0.5,0.4
					c-0.3,0.5-0.4,0.9-0.5,1.2s-0.1,0.6-0.1,0.8c0,0.4,0.1,0.7,0.3,1c0.2,0.3,0.5,0.5,0.9,0.6c0.2,0.1,0.5,0.1,0.8,0.1
					c0.3,0,0.7,0,1.1,0h6.7c-0.2-0.5-0.3-0.8-0.4-1c-0.1-0.2-0.3-0.5-0.6-0.9l0.8-2.1c0.5,0.7,0.8,1.3,0.9,1.8
					c0.1,0.5,0.2,1.2,0.2,2.1V23.9z M149.5,15.1l-1,1.9l-1.3-0.7l-0.7,1.5l-1.7-0.9l1-1.8l1.4,0.7l0.8-1.5L149.5,15.1z"/>
				<path class="st0" d="M157.2,23.9h-5.1v-2.5h4l-1.1-6.3l-0.6-0.4c0-0.4,0.1-0.7,0.2-1.1c0.1-0.5,0.4-1,0.7-1.7l0.4,0.2
					c0,0,0,0.1,0,0.3c0,0.2,0.1,0.4,0.4,0.6c0.2,0.2,0.6,0.4,1.1,0.6c-0.1,0.4-0.1,0.8-0.2,1.2s-0.2,0.7-0.4,1l-0.3-0.1l1,5.7V23.9z
					"/>
				<path class="st0" d="M171.9,23.9h-9.8c-0.4,0-0.8-0.1-1.1-0.3c-0.3-0.2-0.5-0.6-0.7-1.1c-0.4,0.5-0.8,0.9-1.1,1.1
					c-0.3,0.2-0.8,0.3-1.3,0.3l-1.3,0v-2.5l1.3,0c0.7,0,1.3-0.2,1.6-0.5c0.4-0.4,0.7-1.1,0.8-2.2l0.6,0.1c0,0.2,0,0.4,0,0.5
					c0,0.4,0,0.7,0,1c0,0.4,0.1,0.6,0.3,0.8s0.4,0.3,0.7,0.3s0.6-0.1,0.8-0.2c0.3-0.1,0.7-0.4,1.2-0.8l3.3-2.4
					c0.4-0.3,0.7-0.5,0.9-0.6c0.5-0.3,0.9-0.4,1.3-0.4c0.7,0,1.2,0.2,1.7,0.7c0.5,0.6,0.7,1.4,0.7,2.6V23.9z M170.6,20.5
					c0-0.3-0.2-0.5-0.7-0.7c-0.4-0.1-0.8-0.2-1.2-0.2c-0.4,0-0.9,0.1-1.4,0.4s-1.2,0.7-2.2,1.4h2.4
					C169.6,21.4,170.6,21.1,170.6,20.5z"/>
				<path class="st0" d="M177,23.9h-5.8v-2.5h4.9c-0.1-0.4-0.2-0.8-0.4-1.1c-0.1-0.2-0.3-0.4-0.6-0.8l0.7-2.2
					c0.5,0.5,0.8,1.1,0.9,1.6c0.2,0.6,0.3,1.4,0.3,2.6V23.9z M176.9,14l-1,1.9l-1.3-0.7l-0.7,1.5l-1.7-0.9l1-1.8l1.4,0.7l0.8-1.5
					L176.9,14z"/>
				<path class="st0" d="M180.5,21.2c0,0.5-0.1,1.1-0.2,1.5s-0.4,1.1-0.8,1.8l-0.6-0.2c0.1-0.8,0.2-1.4,0.2-1.9c0-0.4,0-0.9-0.1-1.7
					c-0.1-0.7-0.1-1.5-0.2-2.2c-0.1-0.7-0.2-1.6-0.5-2.6c-0.1-0.3-0.1-0.6-0.1-0.7c0-0.2,0.1-0.5,0.3-1c0.2-0.5,0.5-1,0.8-1.7
					l0.6,3.3c0.2,1.2,0.3,2.3,0.4,3.2C180.4,19.9,180.5,20.6,180.5,21.2z"/>
				<path class="st0" d="M189.9,21.2c0,0.5-0.1,1.1-0.2,1.5s-0.4,1.1-0.8,1.8l-0.6-0.2c0.1-0.8,0.2-1.4,0.2-1.9c0-0.4,0-0.9-0.1-1.7
					c-0.1-0.7-0.1-1.5-0.2-2.2c-0.1-0.7-0.2-1.6-0.5-2.6c-0.1-0.3-0.1-0.6-0.1-0.7c0-0.2,0.1-0.5,0.3-1c0.2-0.5,0.5-1,0.8-1.7
					l0.6,3.3c0.2,1.2,0.3,2.3,0.4,3.2C189.8,19.9,189.9,20.6,189.9,21.2z"/>
				<path class="st0" d="M197,23.9h-4.2c-0.4,0-0.7-0.1-0.9-0.3c-0.3-0.2-0.4-0.6-0.4-1c0-0.3,0-0.6,0-0.9c0-0.3,0.1-0.6,0.1-1
					l0.4,0c0,0.2,0.2,0.4,0.3,0.5c0.2,0.1,0.4,0.1,0.6,0.1h3.2c-0.1-0.9-0.4-1.6-0.7-2.2c-0.3-0.5-0.7-0.8-1.2-1.2l0.7-2.9
					c0.8,0.6,1.4,1.4,1.7,2.3c0.3,0.9,0.5,2,0.5,3.5V23.9z M195.5,11.8l-1.1,2.1l-2.2-1.1l1.2-2.1L195.5,11.8z"/>
				<path class="st0" d="M200.5,27.1c-0.1,0.2-0.1,0.3-0.2,0.4c-0.1,0.1-0.2,0.1-0.3,0.2l-2,0.6c0.1-0.2,0.2-0.4,0.3-0.5
					c0.1-0.1,0.3-0.2,0.5-0.3c-0.2-0.1-0.3-0.2-0.4-0.3s-0.1-0.2-0.1-0.3c0-0.1,0-0.2,0.1-0.3c0-0.1,0.1-0.2,0.2-0.3
					c0.4-0.5,0.8-0.8,1.2-0.8c0.1,0,0.2,0,0.3,0.1c0.1,0.1,0.1,0.2,0.1,0.3c0,0.1,0,0.2,0,0.3c0,0.1-0.1,0.2-0.2,0.3
					c-0.3-0.2-0.5-0.2-0.6-0.2s-0.2,0-0.3,0.1c-0.1,0-0.1,0.1-0.2,0.1c0,0.1,0.1,0.2,0.4,0.4c0.3,0.2,0.5,0.3,0.6,0.3
					C199.9,27.3,200.1,27.2,200.5,27.1z M200.5,21.2c0,0.5-0.1,1.1-0.2,1.5s-0.4,1.1-0.8,1.8l-0.6-0.2c0.1-0.8,0.2-1.4,0.2-1.9
					c0-0.4,0-0.9-0.1-1.7c-0.1-0.7-0.1-1.5-0.2-2.2c-0.1-0.7-0.2-1.6-0.5-2.6c-0.1-0.3-0.1-0.6-0.1-0.7c0-0.2,0.1-0.5,0.3-1
					c0.2-0.5,0.5-1,0.8-1.7L200,16c0.2,1.2,0.3,2.3,0.4,3.2C200.4,19.9,200.5,20.6,200.5,21.2z"/>
				<path class="st0" d="M201.8,30.7c0.5-1.1,0.9-1.9,1.1-2.5s0.4-1.3,0.6-2c0.2-0.8,0.3-1.5,0.4-2.2c0.1-0.7,0.1-1.4,0.1-2.1
					c0-1.5-0.2-2.9-0.5-4.2c-0.3-1.3-0.9-2.9-1.7-4.8h1.8c0.9,1.3,1.7,2.7,2.2,4.2c0.5,1.5,0.8,3,0.8,4.5c0,1.3-0.2,2.7-0.6,4.2
					c-0.5,1.7-1.2,3.3-2.3,4.9H201.8z"/>
			</g>
		</g>
	</g>
	<rect class="st1" width="242.6" height="39.4"/>
</g>
</svg>
