<?xml version="1.0" encoding="utf-8"?>
<!-- Generator: Adobe Illustrator 19.2.0, SVG Export Plug-In . SVG Version: 6.00 Build 0)  -->
<svg version="1.1" id="Layer_1" xmlns="http://www.w3.org/2000/svg" xmlns:xlink="http://www.w3.org/1999/xlink" x="0px" y="0px"
	 viewBox="0 0 242.6 39.4" style="enable-background:new 0 0 242.6 39.4;" xml:space="preserve">
<style type="text/css">
	.st0{fill:#BA0017;}
	.st1{fill:none;}
</style>
<g>
	<g>
		<g>
			<path d="M28.6,22.4c0-0.1,0.1-0.2,0.2-0.4c0.1-0.2,0.4-0.3,0.7-0.5c0-0.3,0-0.6,0.1-0.9c0.1-0.2,0.2-0.4,0.3-0.4
				c0.3,0.3,0.6,0.6,0.9,0.8c0.3,0.2,0.6,0.4,1,0.4c0-0.3-0.2-0.7-0.5-1c-0.3-0.3-0.5-0.6-0.8-0.8c0-0.1,0.3-0.3,0.8-0.4
				c0.4-0.1,0.7-0.1,1-0.1c0.4-1.2,0.9-2.2,1.6-3.2c0.3-0.4,0.7-0.9,1.2-1.4c0.7-0.7,1.2-1,1.5-1c0.1,0,0.2,0.1,0.2,0.2
				c0,0.1-0.2,0.3-0.6,0.8c-0.5,0.6-1,1.2-1.2,1.7c-0.5,0.9-0.8,1.9-1,3c0.4,0,0.6,0.1,0.7,0.1c0.1,0,0.1,0.1,0.1,0.2
				c-0.8,0.6-1.2,1.3-1.2,1.8c0.3,0,0.7-0.1,0.9-0.4c0.2-0.2,0.5-0.5,0.8-0.8c0.1,0,0.2,0.1,0.3,0.4c0.1,0.3,0.2,0.6,0.2,0.9
				c0.3,0.2,0.5,0.3,0.6,0.3c0.2,0.2,0.3,0.3,0.3,0.5c0,0.1-0.1,0.2-0.2,0.3c-0.1,0.1-0.3,0.2-0.7,0.4c0,0.9-0.2,1.3-0.5,1.3
				c-0.7-0.7-1.3-1.1-1.8-1.2c0,0.3,0.1,0.6,0.4,1c0,0,0.3,0.3,0.8,0.9c0,0.1-0.1,0.1-0.2,0.2c-0.1,0.1-0.4,0.1-0.7,0.2
				c0.2,0.9,0.5,1.8,1.1,2.7c0.5,0.9,1.1,1.7,1.8,2.3c0.1,0.1,0.2,0.2,0.2,0.3c0,0.1-0.1,0.1-0.2,0.1c-0.2,0-0.6-0.2-1.1-0.5
				c-1.5-1.1-2.6-2.7-3.4-4.8c-1.1,0-1.7-0.2-1.7-0.5c0.3-0.3,0.6-0.5,0.8-0.8c0.2-0.3,0.4-0.7,0.4-1c-0.3,0-0.6,0.1-0.9,0.4
				L30,24.5c-0.2,0-0.3-0.4-0.4-1.1c0-0.1,0-0.1,0-0.2C28.9,22.9,28.6,22.6,28.6,22.4z M31.3,25.1c0,0,0.1,0.1,0.3,0.1
				c0.2,0,0.4,0.1,0.5,0.1h0.3c0.1,0,0.1,0,0.2,0c0.3,1,0.8,2,1.4,2.9c0.7,1,1.5,1.8,2.4,2.4c-0.6-0.6-1.2-1.3-1.6-2.1
				c-0.6-1-1-2.1-1.1-3.1c0.4,0,0.6-0.1,0.7-0.2c-0.5-0.4-0.8-0.8-1-1.2c-0.1,0.2-0.1,0.4-0.3,0.6c0,0-0.1,0.1-0.1,0.3
				c-0.1,0.2-0.1,0.2-0.1,0.2c-0.1,0-0.3-0.4-0.6-1.1c-0.1,0.3-0.3,0.5-0.5,0.8C31.6,24.7,31.5,24.9,31.3,25.1z M34.1,21.7
				c0.1,0,0.4,0.2,0.9,0.3c0.3,0.1,0.5,0.2,0.5,0.3c0,0-0.3,0.1-0.8,0.4c-0.1,0-0.3,0.1-0.6,0.2c0.3,0.1,0.5,0.2,0.8,0.4
				c0.1,0.1,0.3,0.3,0.5,0.5c0.1,0,0.1-0.3,0.1-1c0.5-0.3,0.7-0.5,0.8-0.6c0-0.1-0.3-0.3-0.8-0.5c0-0.7-0.1-1-0.2-1
				c0,0-0.2,0.1-0.5,0.4C34.5,21.5,34.2,21.7,34.1,21.7z M31.2,19.7c0.4,0.3,0.7,0.7,1,1.2c0-0.1,0.1-0.3,0.3-0.5
				c0,0,0.1-0.1,0.2-0.3c0.1-0.2,0.1-0.2,0.2-0.2c0,0,0.1,0.1,0.2,0.3c0.1,0.2,0.1,0.3,0.1,0.3c0,0.1,0.1,0.3,0.3,0.6
				c0.1-0.2,0.2-0.5,0.4-0.7c0.1-0.2,0.3-0.3,0.5-0.5c0,0-0.2-0.1-0.6-0.2c0.3-1,0.4-1.7,0.5-2c0.4-1.2,1-2.3,2-3.3
				c-1.5,1-2.7,2.8-3.5,5.3c-0.6,0-0.8,0-0.7,0C31.4,19.5,31.2,19.5,31.2,19.7z M31.7,22.3c0,0.3,0.1,0.6,0.3,0.7
				c0.2,0.2,0.5,0.3,0.8,0.3c0.3,0,0.5-0.1,0.7-0.3c0.2-0.2,0.3-0.4,0.3-0.7c0-0.3-0.1-0.5-0.3-0.7c-0.2-0.2-0.5-0.3-0.8-0.3
				c-0.3,0-0.6,0.1-0.8,0.3C31.8,21.8,31.7,22,31.7,22.3z M29.1,22.4c0,0.1,0.1,0.1,0.2,0.2s0.3,0.2,0.6,0.3c0,0.3,0,0.5,0.1,0.7
				c0,0.2,0.1,0.3,0.1,0.3c0,0,0.2-0.1,0.4-0.4c0.3-0.3,0.6-0.5,0.9-0.6c-0.1-0.1-0.4-0.2-0.6-0.3c0,0-0.2-0.1-0.5-0.2
				c-0.2-0.1-0.3-0.1-0.3-0.2c0-0.1,0.2-0.2,0.5-0.3c0.5-0.1,0.8-0.2,0.9-0.3c-0.3-0.1-0.6-0.2-0.8-0.4c-0.1-0.1-0.3-0.3-0.5-0.5
				c-0.1,0-0.1,0.1-0.1,0.3c0,0.1,0,0.3,0,0.7C29.3,22.1,29.1,22.3,29.1,22.4z"/>
		</g>
		<g>
			<path d="M46.3,16.1c0,0.2,0,0.4-0.1,0.6c-0.1,0.2-0.1,0.4-0.2,0.5s-0.3,0.3-0.4,0.4c-0.2,0.1-0.4,0.1-0.6,0.1
				c-0.3,0-0.6-0.1-0.8-0.3c-0.2-0.2-0.3-0.5-0.3-0.8c0-0.2,0-0.4,0.1-0.6c0.1-0.2,0.1-0.5,0.2-0.7s0.2-0.4,0.4-0.6
				c0.2-0.2,0.4-0.3,0.6-0.3c0.2,0,0.4,0,0.6,0.2c0.2,0.1,0.3,0.3,0.4,0.4c0.1,0.2,0.1,0.4,0.2,0.6C46.3,15.8,46.3,16,46.3,16.1z
				 M45,15.4c-0.1,0-0.2,0.1-0.3,0.1c-0.1,0.1-0.2,0.1-0.2,0.2c-0.1,0.1-0.1,0.2-0.2,0.3s-0.1,0.2-0.1,0.3c0,0.1,0,0.2,0.1,0.2
				c0.1,0.1,0.1,0.1,0.2,0.1c0.1,0,0.2,0,0.3,0.1c0.1,0,0.2,0,0.3,0c0.3,0,0.6-0.2,0.9-0.4c0-0.1,0-0.2,0-0.3s-0.1-0.2-0.2-0.3
				c-0.1-0.1-0.2-0.2-0.3-0.2C45.3,15.4,45.2,15.4,45,15.4z"/>
			<path d="M45.9,23c0.1,0,0.2,0,0.3,0.1c0.1,0.1,0.2,0.2,0.3,0.3s0.2,0.2,0.3,0.3c0.1,0.1,0.2,0.2,0.4,0.3c0.2,0.1,0.4,0.3,0.5,0.3
				c0.2,0.1,0.4,0.2,0.6,0.2c0.2,0,0.4,0.1,0.7,0.1c0.2,0,0.5,0,0.7,0h0.2c0.2,0,0.3,0.1,0.4,0.2c0.1,0.1,0.1,0.3,0.1,0.5
				s0,0.3-0.1,0.5c-0.1,0.1-0.2,0.2-0.4,0.2h-0.2c-0.3,0-0.6,0-1,0c-0.4,0-0.8-0.1-1.2-0.2c0,0.2,0,0.3-0.1,0.5s-0.1,0.2-0.1,0.3
				c-0.2,0-0.5,0-0.8,0c-0.3-0.1-0.7-0.1-1-0.3c-0.3-0.1-0.6-0.2-0.9-0.4s-0.4-0.3-0.5-0.5c-0.1,0-0.2,0.1-0.4,0.2
				c-0.1,0.1-0.3,0.2-0.4,0.3c-0.1,0.1-0.2,0.2-0.3,0.4S43,26.7,43,26.8c0,0.2,0,0.5,0.1,0.9c0,0.4,0.1,0.8,0.2,1.2
				c0.1,0.4,0.1,0.8,0.2,1.2c0.1,0.4,0.1,0.7,0.2,1c0,0.3,0.1,0.5,0.1,0.8s0.1,0.6,0.1,0.9s0,0.6,0,0.8c0,0.3,0,0.5-0.1,0.6
				c0,0.1-0.1,0.1-0.1,0.1s-0.1,0-0.1-0.1c0-0.1-0.1-0.2-0.1-0.4c0-0.1,0-0.2-0.1-0.4c0-0.1-0.1-0.3-0.1-0.7c0-0.3-0.1-0.8-0.2-1.4
				c-0.2-1.1-0.3-2-0.4-2.7c-0.1-0.7-0.2-1.3-0.2-1.6c0-0.5,0-1,0.2-1.4c0.1-0.4,0.4-0.7,0.7-1c0.1-0.1,0.2-0.2,0.3-0.3
				c0.1-0.1,0.3-0.2,0.4-0.4c0.2-0.1,0.3-0.3,0.5-0.4c0.2-0.1,0.4-0.3,0.5-0.4c0.2-0.1,0.3-0.2,0.5-0.3S45.8,23,45.9,23z M45.7,23.9
				c-0.2,0-0.3,0-0.5,0.1c-0.2,0.1-0.3,0.2-0.5,0.3c0,0,0,0,0,0.1c0,0,0,0,0,0.1c0.1,0.1,0.3,0.2,0.5,0.2c0.2,0.1,0.4,0.2,0.6,0.2
				c0.2,0.1,0.4,0.1,0.6,0.1c0.2,0,0.3,0,0.4,0c-0.1-0.1-0.2-0.3-0.3-0.4c-0.1-0.1-0.2-0.3-0.3-0.4c-0.1-0.1-0.2-0.2-0.3-0.2
				C45.8,24,45.7,23.9,45.7,23.9z"/>
			<path d="M51.6,16.7c-0.1,0-0.1,0,0-0.1c0.1-0.1,0.1-0.1,0.2-0.2c0.2-0.1,0.4-0.3,0.6-0.4s0.4-0.2,0.6-0.4
				c0.2-0.1,0.4-0.3,0.5-0.4c0.2-0.1,0.4-0.3,0.5-0.5c-0.2,0-0.3-0.1-0.5-0.2s-0.3-0.2-0.4-0.4C53,14,53,13.9,53,13.8
				c0-0.1,0-0.2,0-0.3c0.1-0.1,0.1-0.3,0.2-0.5c0.1-0.2,0.2-0.3,0.3-0.5c0.1-0.1,0.2-0.3,0.4-0.3c0.1-0.1,0.3-0.1,0.5-0.1
				c0.1,0,0.2,0,0.3,0.1c0.1,0.1,0.1,0.2,0.2,0.3s0.1,0.3,0.1,0.4c0,0.1,0,0.3,0,0.4s0,0.3,0,0.4c0,0.1,0,0.2,0,0.3c0,0,0,0,0,0.1
				c0.1,0,0.1,0.1,0.2,0.1s0,0.1,0.1,0.1c0,0.1,0,0.2,0,0.3c0,0.1-0.1,0.2-0.1,0.3c0,0.1-0.1,0.1-0.1,0.1c0,0-0.1,0-0.1-0.1
				c0,0-0.1-0.1-0.1-0.1s-0.1-0.1-0.1-0.1c-0.2,0.2-0.4,0.4-0.5,0.6c-0.2,0.2-0.3,0.3-0.5,0.4c-0.2,0.1-0.4,0.2-0.6,0.4
				c-0.2,0.1-0.5,0.2-0.7,0.3c-0.1,0-0.2,0.1-0.3,0.1S51.7,16.7,51.6,16.7z M53.5,13.3c0.1,0.2,0.3,0.3,0.4,0.4
				c0.2,0.1,0.3,0.2,0.5,0.2h0c0-0.1,0-0.1,0-0.2s0-0.2,0-0.2c0-0.1,0-0.2,0-0.2c0-0.1-0.1-0.1-0.1-0.2c0,0-0.1-0.1-0.2-0.1
				s-0.2,0-0.3,0c-0.1,0-0.2,0.1-0.2,0.1S53.5,13.3,53.5,13.3z"/>
			<path d="M49.7,24.7c0.6,0,1.3,0,2.1,0c0.8,0,1.6,0,2.5,0c0.9,0,1.8-0.1,2.8-0.1c1-0.1,2-0.1,3-0.2s2.1-0.2,3.1-0.3
				c1-0.1,2.1-0.2,3.1-0.4c0-0.2-0.1-0.4-0.1-0.6c-0.1-0.2-0.2-0.3-0.3-0.4s-0.3-0.2-0.5-0.3c-0.2-0.1-0.4-0.1-0.6-0.1
				c-0.9,0-1.8,0.1-2.8,0.2c-1,0.1-2,0.2-3,0.2c-1,0.1-2,0.1-3.1,0.2c-1,0-2,0-2.9,0c-0.1,0-0.2,0-0.3,0s-0.3,0-0.5-0.1
				s-0.4-0.1-0.6-0.1c-0.2,0-0.4-0.1-0.5-0.1c-0.2-0.1-0.3-0.1-0.4-0.2s-0.2-0.2-0.2-0.3c0-0.2,0-0.5,0.1-0.7
				c0.1-0.3,0.2-0.5,0.3-0.8s0.3-0.5,0.5-0.7c0.2-0.2,0.3-0.4,0.5-0.5c1.2-1.1,2.7-1.8,4.3-2.2c0.1,0,0.1,0,0.2,0c0,0,0.1,0,0.1,0.1
				c0,0,0,0.1,0,0.1s0,0.1,0,0.1c-0.1,0.2-0.1,0.3-0.2,0.5c-0.1,0.2-0.2,0.3-0.3,0.5c-0.1,0-0.3,0-0.5,0.1c-0.2,0.1-0.4,0.1-0.7,0.2
				c-0.3,0.1-0.5,0.2-0.8,0.3s-0.6,0.2-0.8,0.4c-0.2,0.1-0.4,0.2-0.7,0.4c-0.2,0.1-0.4,0.3-0.6,0.4c-0.2,0.1-0.3,0.3-0.4,0.4
				c-0.1,0.1-0.1,0.3-0.2,0.4c0,0.1,0.1,0.2,0.3,0.3c0.2,0.1,0.4,0.1,0.6,0.2c0.2,0,0.4,0.1,0.6,0.1c0.2,0,0.3,0,0.4,0
				c0.7,0.1,1.4,0.1,2.2,0.1c0.8,0,1.6,0,2.4-0.1c0.8,0,1.6-0.1,2.4-0.2c0.8-0.1,1.6-0.1,2.3-0.2c0.2,0,0.5,0,0.8,0c0.3,0,0.6,0,1,0
				s0.7,0,1,0.1c0.3,0,0.6,0.1,0.9,0.2s0.5,0.3,0.7,0.5c0.2,0.2,0.3,0.5,0.3,0.8c0,0.2,0,0.4,0,0.6c0,0.2-0.1,0.4-0.2,0.6
				c-0.1,0.2-0.2,0.4-0.2,0.5c-0.1,0.2-0.2,0.3-0.2,0.3c0,0-0.1,0.1-0.1,0.1s-0.1,0.1-0.1,0.1c-1,0.2-2,0.3-3.1,0.4
				c-1.1,0.1-2.1,0.2-3.2,0.3c-1.1,0.1-2.1,0.2-3.1,0.2c-1,0.1-2,0.1-2.9,0.1c-0.9,0-1.7,0.1-2.4,0.1c-0.7,0-1.3,0-1.8,0h-0.2
				c-0.2,0-0.3-0.1-0.4-0.2C49,25.7,49,25.5,49,25.4s0-0.3,0.1-0.5c0.1-0.1,0.2-0.2,0.4-0.2H49.7z"/>
			<path d="M68.5,15.5c0-0.2,0.1-0.4,0.2-0.6c0.1-0.2,0.2-0.4,0.3-0.6c0,0,0,0,0.1,0s0.1,0,0.1,0c0.1,0.3,0.2,0.7,0.2,1
				s0.1,0.7,0.2,1.1c0.1,0.4,0.1,0.9,0.2,1.3s0.1,1,0.2,1.6c0,0.5,0.1,0.9,0.1,1.2c0,0.3,0.1,0.6,0.1,0.9c0,0.3,0.1,0.5,0.1,0.7
				s0.1,0.4,0.1,0.7c0.1,0.3,0.1,0.6,0.2,0.8c0.1,0.2,0.2,0.4,0.4,0.5c0.2,0.1,0.4,0.3,0.6,0.3s0.5,0.1,0.8,0.1h0.1
				c0.2,0,0.3,0.1,0.4,0.2C73,25,73,25.2,73,25.4s0,0.3-0.1,0.5c-0.1,0.1-0.2,0.2-0.4,0.2h-0.1c-0.5,0-0.9-0.1-1.2-0.2
				c-0.3-0.2-0.6-0.4-0.8-0.6c-0.2-0.3-0.4-0.6-0.5-0.9c-0.1-0.3-0.2-0.7-0.3-1.1c0-0.3-0.1-0.7-0.1-1.1s-0.1-0.7-0.1-1.1
				c0-0.4-0.1-0.7-0.1-1s-0.1-0.6-0.1-0.9c-0.1-0.5-0.1-1.1-0.2-1.7c-0.1-0.6-0.2-1.2-0.4-1.8C68.5,15.6,68.5,15.6,68.5,15.5
				C68.5,15.5,68.5,15.5,68.5,15.5z"/>
			<path d="M76,15.2c-0.3,0.1-0.6,0.3-1,0.4c-0.3,0.1-0.7,0.3-1,0.4s-0.6,0.3-0.9,0.4s-0.5,0.2-0.7,0.3c0,0-0.1,0-0.1,0
				c0,0,0,0,0-0.1c0,0,0-0.1,0.1-0.2c0-0.1,0.1-0.2,0.1-0.3c0-0.1,0.1-0.2,0.1-0.3c0-0.1,0.1-0.1,0.1-0.1c0.1-0.1,0.1-0.1,0.2-0.2
				l3.5-1.5c0.1,0,0.1,0,0.1,0.1c0,0.1-0.1,0.1-0.1,0.2s-0.1,0.2-0.1,0.2s-0.1,0.2-0.1,0.2c0,0.1-0.1,0.1-0.1,0.2
				C76.1,15.1,76.1,15.2,76,15.2z"/>
			<path d="M75.4,22.8c0,0.1,0,0.1,0,0.2c0,0.1,0,0.2,0,0.3c0,0.2,0,0.3,0.1,0.5c0.1,0.2,0.2,0.3,0.4,0.4c0.2,0.1,0.4,0.2,0.6,0.3
				c0.3,0.1,0.6,0.1,0.9,0.1h0.2c0.2,0,0.3,0.1,0.4,0.2c0.1,0.1,0.1,0.3,0.1,0.5s0,0.3-0.1,0.5c-0.1,0.1-0.2,0.2-0.4,0.2h-0.2
				c-0.7,0-1.2-0.1-1.6-0.4c-0.4-0.3-0.7-0.6-0.9-1.1c-0.2,0.3-0.3,0.6-0.6,0.8s-0.4,0.3-0.7,0.4C73.4,25.9,73.2,26,73,26
				c-0.2,0-0.4,0-0.6,0h-0.2c-0.2,0-0.3-0.1-0.4-0.2c-0.1-0.1-0.1-0.3-0.1-0.5s0-0.3,0.1-0.5c0.1-0.1,0.2-0.2,0.4-0.2h0.2
				c0.2,0,0.4,0,0.6,0c0.2,0,0.4,0,0.6-0.1c0.2-0.1,0.4-0.1,0.6-0.2c0.2-0.1,0.4-0.3,0.5-0.5c0.1-0.2,0.2-0.3,0.3-0.5
				s0.2-0.3,0.2-0.5c0,0,0-0.1,0-0.1c0,0,0.1,0,0.1,0C75.3,22.7,75.4,22.7,75.4,22.8C75.4,22.8,75.4,22.8,75.4,22.8z M74.5,18.7
				l1.1,0.9c0,0,0.1,0.1,0,0.1l-0.7,0.9c0,0.1-0.1,0.1-0.1,0l-1.1-0.9c0,0,0-0.1,0-0.2l0.8-0.9C74.4,18.6,74.5,18.6,74.5,18.7z"/>
			<path d="M81.5,12.7c0,0.2,0,0.4-0.1,0.6c-0.1,0.2-0.1,0.4-0.2,0.5s-0.3,0.3-0.4,0.4c-0.2,0.1-0.4,0.1-0.6,0.1
				c-0.3,0-0.6-0.1-0.8-0.3c-0.2-0.2-0.3-0.5-0.3-0.8c0-0.2,0-0.4,0.1-0.6c0.1-0.2,0.1-0.5,0.2-0.7s0.2-0.4,0.4-0.6
				c0.2-0.2,0.4-0.3,0.6-0.3c0.2,0,0.4,0,0.6,0.2c0.2,0.1,0.3,0.3,0.4,0.4c0.1,0.2,0.1,0.4,0.2,0.6C81.4,12.4,81.5,12.6,81.5,12.7z
				 M80.1,12c-0.1,0-0.2,0.1-0.3,0.1c-0.1,0.1-0.2,0.1-0.2,0.2c-0.1,0.1-0.1,0.2-0.2,0.3s-0.1,0.2-0.1,0.3c0,0.1,0,0.2,0.1,0.2
				c0.1,0.1,0.1,0.1,0.2,0.1c0.1,0,0.2,0,0.3,0.1c0.1,0,0.2,0,0.3,0c0.3,0,0.6-0.2,0.9-0.4c0-0.1,0-0.2,0-0.3s-0.1-0.2-0.2-0.3
				c-0.1-0.1-0.2-0.2-0.3-0.2C80.4,12.1,80.3,12,80.1,12z"/>
			<path d="M77.4,24.7c0.1,0,0.3,0,0.6,0c0.3,0,0.6,0,0.9-0.1s0.7-0.1,1.1-0.1c0.4,0,0.7-0.1,1.1-0.2c0.3-0.1,0.6-0.2,0.9-0.3
				c0.3-0.1,0.4-0.3,0.6-0.4c0-0.1,0-0.2,0-0.3c0-0.1,0-0.2-0.1-0.3c0-0.1-0.1-0.2-0.1-0.3s-0.1-0.2-0.1-0.3
				c-0.1,0.1-0.1,0.2-0.2,0.3c-0.1,0.1-0.2,0.2-0.3,0.3c-0.1,0.1-0.2,0.2-0.4,0.2c-0.1,0.1-0.3,0.1-0.4,0.1c-0.2,0-0.3,0-0.5-0.1
				c-0.2-0.1-0.3-0.1-0.4-0.2c-0.1-0.1-0.2-0.2-0.3-0.3c-0.1-0.1-0.1-0.3-0.2-0.4c0-0.2,0-0.4,0-0.6c0-0.2,0-0.4,0.1-0.6
				c0.1-0.2,0.1-0.4,0.2-0.6c0.1-0.2,0.2-0.4,0.3-0.5c0.1-0.2,0.3-0.3,0.4-0.4c0.2-0.1,0.3-0.1,0.5-0.1c0.2,0,0.3,0.1,0.5,0.2
				s0.3,0.2,0.4,0.4c0.1,0.2,0.3,0.4,0.4,0.6c0.1,0.2,0.2,0.4,0.3,0.6c0.1,0.2,0.2,0.4,0.2,0.6C83,22,83,22.2,83,22.3
				c0,0.6,0,1.1-0.1,1.6c-0.1,0.5-0.4,0.9-0.8,1.2c-0.2,0.2-0.5,0.3-0.9,0.4c-0.4,0.1-0.8,0.2-1.3,0.3S79,26,78.6,26
				c-0.4,0-0.8,0-1.2,0h-0.2c-0.2,0-0.3-0.1-0.4-0.2c-0.1-0.1-0.1-0.3-0.1-0.5s0-0.3,0.1-0.5c0.1-0.1,0.2-0.2,0.4-0.2H77.4z
				 M81.8,17.8c-0.1,0-0.1,0-0.2,0L80.6,17l-0.7,1c0,0,0,0-0.1,0c0,0-0.1,0-0.1,0l-1.2-0.8c0,0,0,0,0,0s0,0,0-0.1l0.7-0.9
				c0,0,0,0,0.1-0.1c0,0,0,0,0.1,0l1.1,0.8l0.7-0.9c0,0,0,0,0,0c0,0,0,0,0.1,0l1.2,0.8c0,0,0,0.1,0,0.1L81.8,17.8z M81.7,21.6
				c0-0.1,0-0.2-0.1-0.2c-0.1-0.1-0.1-0.2-0.2-0.2c-0.1-0.1-0.2-0.1-0.3-0.2c-0.1,0-0.2-0.1-0.2-0.1c-0.1,0-0.2,0-0.2,0.1
				c-0.1,0-0.2,0.1-0.2,0.2c-0.1,0.1-0.1,0.2-0.2,0.2c0,0.1-0.1,0.2-0.1,0.2c0.1,0.1,0.2,0.2,0.3,0.3s0.3,0.1,0.5,0.1s0.3,0,0.5-0.1
				S81.6,21.7,81.7,21.6z"/>
			<path d="M88.5,16.1c-0.3,0.1-0.6,0.3-1,0.4c-0.3,0.1-0.7,0.3-1,0.4s-0.6,0.3-0.9,0.4s-0.5,0.2-0.7,0.3c0,0-0.1,0-0.1,0
				c0,0,0,0,0-0.1c0,0,0-0.1,0.1-0.2c0-0.1,0.1-0.2,0.1-0.3c0-0.1,0.1-0.2,0.1-0.3c0-0.1,0.1-0.1,0.1-0.1c0.1-0.1,0.1-0.1,0.2-0.2
				l3.5-1.5c0.1,0,0.1,0,0.1,0.1c0,0.1-0.1,0.1-0.1,0.2s-0.1,0.2-0.1,0.2s-0.1,0.2-0.1,0.2c0,0.1-0.1,0.1-0.1,0.2
				C88.7,16,88.6,16.1,88.5,16.1z"/>
			<path d="M88.2,22.2c0-0.1,0.1-0.1,0.2,0c0.2,0.2,0.5,0.5,0.7,0.8c0.2,0.3,0.4,0.6,0.5,1c0.1,0.3,0.2,0.7,0.3,1.1s0.1,0.7,0,1
				c0,0.3-0.1,0.6-0.2,0.9c-0.1,0.3-0.2,0.6-0.4,0.9c-0.1,0.3-0.3,0.6-0.5,0.9c-0.2,0.3-0.4,0.5-0.6,0.8c-0.2,0.2-0.4,0.5-0.7,0.6
				s-0.5,0.3-0.8,0.4c-0.3,0.1-0.7,0.2-1,0.2c-0.4,0-0.8,0-1.1,0s-0.8-0.1-1.1-0.1s-0.7-0.2-1-0.2c-0.1,0-0.1,0-0.1-0.1
				c0,0,0-0.1,0-0.1c0,0,0-0.1,0.1-0.1s0.1,0,0.2,0c0.4,0,0.7,0.1,1.1,0s0.7-0.1,1.1-0.2s0.7-0.2,1-0.3c0.3-0.1,0.7-0.3,1-0.5
				c0.3-0.2,0.5-0.4,0.8-0.6s0.5-0.5,0.7-0.7c0.2-0.3,0.4-0.5,0.6-0.8c0.2-0.3,0.3-0.6,0.5-0.9c0-0.2-0.1-0.4-0.2-0.6
				c-0.1-0.2-0.3-0.5-0.4-0.7c-0.2-0.2-0.3-0.5-0.5-0.7c-0.2-0.2-0.3-0.4-0.4-0.5c0-0.3,0.1-0.5,0.1-0.7
				C88.1,22.6,88.2,22.4,88.2,22.2z M87.2,18.5l1.1,0.9c0,0,0.1,0.1,0,0.1l-0.7,0.9c0,0.1-0.1,0.1-0.1,0l-1.1-0.9c0,0,0-0.1,0-0.2
				l0.7-0.9C87.1,18.5,87.1,18.5,87.2,18.5z"/>
			<path d="M95.3,16.4c-0.3,0.1-0.6,0.3-1,0.4c-0.3,0.1-0.7,0.3-1,0.4s-0.6,0.3-0.9,0.4s-0.5,0.2-0.7,0.3c0,0-0.1,0-0.1,0
				c0,0,0,0,0-0.1c0,0,0-0.1,0.1-0.2c0-0.1,0.1-0.2,0.1-0.3c0-0.1,0.1-0.2,0.1-0.3c0-0.1,0.1-0.1,0.1-0.1c0.1-0.1,0.1-0.1,0.2-0.2
				l3.5-1.5c0.1,0,0.1,0,0.1,0.1c0,0.1-0.1,0.1-0.1,0.2s-0.1,0.2-0.1,0.2S95.6,16,95.5,16c0,0.1-0.1,0.1-0.1,0.2
				C95.4,16.3,95.4,16.3,95.3,16.4z"/>
			<path d="M95,22.2c0-0.1,0.1-0.1,0.2,0c0.2,0.2,0.5,0.5,0.7,0.8c0.2,0.3,0.4,0.6,0.5,1c0.1,0.3,0.2,0.7,0.3,1.1s0.1,0.7,0,1
				c0,0.3-0.1,0.6-0.2,0.9c-0.1,0.3-0.2,0.6-0.4,0.9c-0.1,0.3-0.3,0.6-0.5,0.9c-0.2,0.3-0.4,0.5-0.6,0.8c-0.2,0.2-0.4,0.5-0.7,0.6
				s-0.5,0.3-0.8,0.4c-0.3,0.1-0.7,0.2-1,0.2c-0.4,0-0.8,0-1.1,0s-0.8-0.1-1.1-0.1s-0.7-0.2-1-0.2c-0.1,0-0.1,0-0.1-0.1
				c0,0,0-0.1,0-0.1c0,0,0-0.1,0.1-0.1s0.1,0,0.2,0c0.4,0,0.7,0.1,1.1,0s0.7-0.1,1.1-0.2s0.7-0.2,1-0.3c0.3-0.1,0.7-0.3,1-0.5
				c0.3-0.2,0.5-0.4,0.8-0.6s0.5-0.5,0.7-0.7c0.2-0.3,0.4-0.5,0.6-0.8c0.2-0.3,0.3-0.6,0.5-0.9c0-0.2-0.1-0.4-0.2-0.6
				c-0.1-0.2-0.3-0.5-0.4-0.7c-0.2-0.2-0.3-0.5-0.5-0.7c-0.2-0.2-0.3-0.4-0.4-0.5c0-0.3,0.1-0.5,0.1-0.7C94.9,22.6,95,22.4,95,22.2z
				"/>
			<path d="M102,15.5c0-0.2,0.1-0.4,0.2-0.6c0.1-0.2,0.2-0.4,0.3-0.6c0,0,0,0,0.1,0s0.1,0,0.1,0c0.1,0.3,0.2,0.7,0.2,1
				s0.1,0.7,0.2,1.1c0.1,0.4,0.1,0.9,0.2,1.3s0.1,1,0.2,1.6c0,0.5,0.1,0.9,0.1,1.2c0,0.3,0.1,0.6,0.1,0.9c0,0.3,0.1,0.5,0.1,0.7
				s0.1,0.4,0.1,0.7c0.1,0.3,0.1,0.6,0.2,0.8c0.1,0.2,0.2,0.4,0.4,0.5c0.2,0.1,0.4,0.3,0.6,0.3s0.5,0.1,0.8,0.1h0.1
				c0.2,0,0.3,0.1,0.4,0.2c0.1,0.1,0.1,0.3,0.1,0.5s0,0.3-0.1,0.5c-0.1,0.1-0.2,0.2-0.4,0.2h-0.1c-0.5,0-0.9-0.1-1.2-0.2
				c-0.3-0.2-0.6-0.4-0.8-0.6c-0.2-0.3-0.4-0.6-0.5-0.9c-0.1-0.3-0.2-0.7-0.3-1.1c0-0.3-0.1-0.7-0.1-1.1s-0.1-0.7-0.1-1.1
				c0-0.4-0.1-0.7-0.1-1s-0.1-0.6-0.1-0.9c-0.1-0.5-0.1-1.1-0.2-1.7c-0.1-0.6-0.2-1.2-0.4-1.8C102,15.6,102,15.6,102,15.5
				C102,15.5,102,15.5,102,15.5z"/>
			<path d="M110.9,15.5c-0.3,0.1-0.6,0.3-1,0.4c-0.3,0.1-0.7,0.3-1,0.4s-0.6,0.3-0.9,0.4s-0.5,0.2-0.7,0.3c0,0-0.1,0-0.1,0
				c0,0,0,0,0-0.1c0,0,0-0.1,0.1-0.2c0-0.1,0.1-0.2,0.1-0.3c0-0.1,0.1-0.2,0.1-0.3c0-0.1,0.1-0.1,0.1-0.1c0.1-0.1,0.1-0.1,0.2-0.2
				l3.5-1.5c0.1,0,0.1,0,0.1,0.1c0,0.1-0.1,0.1-0.1,0.2s-0.1,0.2-0.1,0.2s-0.1,0.2-0.1,0.2c0,0.1-0.1,0.1-0.1,0.2
				C111,15.4,110.9,15.4,110.9,15.5z"/>
			<path d="M105.8,24.7c0.3,0,0.5,0,0.8,0c0.3,0,0.5,0,0.7-0.1c0.2-0.1,0.4-0.1,0.6-0.2s0.3-0.2,0.4-0.4c0.2-0.3,0.3-0.7,0.5-1
				c0.1-0.3,0.3-0.6,0.5-1c0.1-0.1,0.2-0.2,0.3-0.4c0.1-0.1,0.2-0.3,0.4-0.4c0.1-0.1,0.3-0.2,0.4-0.3c0.1-0.1,0.3-0.1,0.4-0.1
				c0.2,0,0.3,0.1,0.4,0.2s0.3,0.2,0.4,0.4c0.1,0.2,0.2,0.3,0.4,0.5c0.1,0.2,0.2,0.4,0.3,0.6c0.1,0.2,0.1,0.4,0.2,0.6s0.1,0.4,0,0.5
				c0,0.1,0,0.3-0.1,0.4c0,0.1-0.1,0.3-0.1,0.4s-0.1,0.2-0.2,0.3s-0.2,0.2-0.3,0.2c-0.1,0-0.3,0.1-0.6,0c-0.2,0-0.5-0.1-0.8-0.1
				c-0.3-0.1-0.6-0.2-0.9-0.3c-0.3-0.1-0.6-0.3-0.8-0.5c-0.2,0.7-0.6,1.2-1.1,1.5c-0.5,0.3-1.1,0.5-1.8,0.5h-0.2
				c-0.2,0-0.3-0.1-0.4-0.2c-0.1-0.1-0.1-0.3-0.1-0.5s0-0.3,0.1-0.5c0.1-0.1,0.2-0.2,0.4-0.2H105.8z M111.5,23.6c0,0,0-0.1,0-0.1
				s-0.1-0.2-0.1-0.3c0-0.1-0.1-0.2-0.1-0.3c0-0.1-0.1-0.1-0.1-0.2c-0.1-0.1-0.1-0.1-0.2-0.2c-0.1-0.1-0.1-0.1-0.2-0.2
				c-0.1-0.1-0.2-0.1-0.2-0.1c-0.1,0-0.2-0.1-0.3,0c-0.1,0-0.2,0-0.3,0.1c-0.1,0-0.2,0.1-0.3,0.2s-0.1,0.2-0.2,0.2
				c-0.1,0.1-0.1,0.2-0.1,0.3c0.3,0.3,0.6,0.4,1,0.5C110.7,23.5,111.1,23.6,111.5,23.6z"/>
			<path d="M125,29c-0.6,0.2-1.2,0.4-1.8,0.7c-0.6,0.2-1.1,0.4-1.7,0.6c-0.1,0-0.1,0-0.1-0.1c0-0.1,0.1-0.2,0.2-0.4
				c0.1-0.1,0.1-0.3,0.2-0.3c0,0,0.1-0.1,0.1-0.1c0.2-0.1,0.4-0.1,0.6-0.2c0.3-0.1,0.5-0.2,0.9-0.3c0.3-0.1,0.6-0.2,1-0.4
				c0.3-0.1,0.7-0.2,1-0.3c0.1,0,0.1,0,0.1,0.1c0,0.1-0.1,0.1-0.1,0.2s-0.1,0.1-0.1,0.2c0,0.1-0.1,0.1-0.1,0.2
				c0,0.1-0.1,0.1-0.1,0.1C125.1,28.9,125.1,29,125,29C125.1,29,125.1,29,125,29z"/>
			<path d="M127.9,21c0.1-0.2,0.2-0.4,0.2-0.6c0.1-0.2,0.1-0.4,0.2-0.6c0,0,0-0.1,0.1-0.1c0,0,0.1,0,0.1,0.1
				c0.3,0.3,0.6,0.7,0.8,1.2c0.2,0.4,0.4,0.9,0.4,1.3c0,0.1,0,0.3,0,0.5c0,0.2,0,0.4-0.1,0.6c0,0.2-0.1,0.4-0.2,0.5
				c-0.1,0.2-0.2,0.3-0.3,0.3c-0.7,0.4-1.4,0.7-2.1,0.9c-0.7,0.2-1.5,0.4-2.2,0.6c-0.8,0.1-1.5,0.2-2.3,0.3c-0.7,0.1-1.5,0.1-2.3,0
				c-0.4,0-0.8-0.1-1.2-0.3s-0.7-0.3-1-0.6s-0.5-0.5-0.7-0.9c-0.2-0.4-0.2-0.8-0.2-1.2c0-0.8,0.3-1.5,0.8-2.2c0.1-0.1,0.2-0.1,0.2,0
				c0.1,0.1,0.1,0.2,0,0.2c-0.1,0.2-0.2,0.4-0.2,0.6c-0.1,0.2-0.1,0.4-0.1,0.6c0,0.2,0,0.4,0,0.6c0,0.2,0.1,0.4,0.2,0.6
				c0.2,0.3,0.4,0.5,0.6,0.7c0.3,0.2,0.6,0.3,0.9,0.4c0.3,0.1,0.7,0.1,1,0.1c0.4,0,0.7,0,1,0c0.6,0,1.2,0,1.8-0.1
				c0.6-0.1,1.2-0.1,1.8-0.3c0.6-0.1,1.2-0.3,1.7-0.4c0.6-0.2,1.2-0.4,1.7-0.6c0.2-0.1,0.3-0.2,0.2-0.4c-0.1-0.4-0.3-0.7-0.5-1
				S128.2,21.3,127.9,21z M124.5,20C124.5,20.1,124.5,20.1,124.5,20c-0.1,0.1-0.1,0-0.2,0l-1.1-0.8l-0.7,1c0,0.1-0.1,0.1-0.1,0
				l-1.1-0.9c0,0,0-0.1,0-0.1l0.7-1c0,0,0-0.1,0.1-0.1c0,0,0,0,0.1,0l1.1,0.8L124,18c0,0,0.1-0.1,0.1,0l1.1,1c0,0,0,0.1,0,0.1
				L124.5,20z"/>
			<path d="M131.1,15.5c0-0.2,0.1-0.4,0.2-0.6c0.1-0.2,0.2-0.4,0.3-0.6c0,0,0,0,0.1,0s0.1,0,0.1,0c0.1,0.3,0.2,0.7,0.2,1
				s0.1,0.7,0.2,1.1c0.1,0.4,0.1,0.9,0.2,1.3s0.1,1,0.2,1.6c0,0.5,0.1,0.9,0.1,1.2c0,0.3,0.1,0.6,0.1,0.9c0,0.3,0.1,0.5,0.1,0.7
				s0.1,0.4,0.1,0.7c0.1,0.3,0.1,0.6,0.2,0.8c0.1,0.2,0.2,0.4,0.4,0.5c0.2,0.1,0.4,0.3,0.6,0.3s0.5,0.1,0.8,0.1h0.1
				c0.2,0,0.3,0.1,0.4,0.2c0.1,0.1,0.1,0.3,0.1,0.5s0,0.3-0.1,0.5c-0.1,0.1-0.2,0.2-0.4,0.2h-0.1c-0.5,0-0.9-0.1-1.2-0.2
				c-0.3-0.2-0.6-0.4-0.8-0.6c-0.2-0.3-0.4-0.6-0.5-0.9c-0.1-0.3-0.2-0.7-0.3-1.1c0-0.3-0.1-0.7-0.1-1.1s-0.1-0.7-0.1-1.1
				c0-0.4-0.1-0.7-0.1-1s-0.1-0.6-0.1-0.9c-0.1-0.5-0.1-1.1-0.2-1.7c-0.1-0.6-0.2-1.2-0.4-1.8C131.1,15.6,131.1,15.6,131.1,15.5
				C131.1,15.5,131.1,15.5,131.1,15.5z"/>
			<path d="M138.6,15.9c-0.3,0.1-0.6,0.3-1,0.4c-0.3,0.1-0.7,0.3-1,0.4s-0.6,0.3-0.9,0.4s-0.5,0.2-0.7,0.3c0,0-0.1,0-0.1,0
				c0,0,0,0,0-0.1c0,0,0-0.1,0.1-0.2c0-0.1,0.1-0.2,0.1-0.3c0-0.1,0.1-0.2,0.1-0.3c0-0.1,0.1-0.1,0.1-0.1c0.1-0.1,0.1-0.1,0.2-0.2
				l3.5-1.5c0.1,0,0.1,0,0.1,0.1c0,0.1-0.1,0.1-0.1,0.2s-0.1,0.2-0.1,0.2s-0.1,0.2-0.1,0.2c0,0.1-0.1,0.1-0.1,0.2
				C138.7,15.8,138.7,15.9,138.6,15.9z"/>
			<path d="M138,22.8c0,0.1,0,0.1,0,0.2c0,0.1,0,0.2,0,0.3c0,0.2,0,0.3,0.1,0.5c0.1,0.2,0.2,0.3,0.4,0.4c0.2,0.1,0.4,0.2,0.6,0.3
				c0.3,0.1,0.6,0.1,0.9,0.1h0.2c0.2,0,0.3,0.1,0.4,0.2c0.1,0.1,0.1,0.3,0.1,0.5s0,0.3-0.1,0.5c-0.1,0.1-0.2,0.2-0.4,0.2H140
				c-0.7,0-1.2-0.1-1.6-0.4c-0.4-0.3-0.7-0.6-0.9-1.1c-0.2,0.3-0.3,0.6-0.6,0.8s-0.4,0.3-0.7,0.4c-0.2,0.1-0.5,0.2-0.7,0.2
				c-0.2,0-0.4,0-0.6,0h-0.2c-0.2,0-0.3-0.1-0.4-0.2c-0.1-0.1-0.1-0.3-0.1-0.5s0-0.3,0.1-0.5c0.1-0.1,0.2-0.2,0.4-0.2h0.2
				c0.2,0,0.4,0,0.6,0c0.2,0,0.4,0,0.6-0.1c0.2-0.1,0.4-0.1,0.6-0.2c0.2-0.1,0.4-0.3,0.5-0.5c0.1-0.2,0.2-0.3,0.3-0.5
				s0.2-0.3,0.2-0.5c0,0,0-0.1,0-0.1c0,0,0.1,0,0.1,0C137.9,22.7,138,22.7,138,22.8C138,22.8,138,22.8,138,22.8z M137.2,27.3
				l1.1,0.9c0,0,0.1,0.1,0,0.1l-0.7,0.9c0,0.1-0.1,0.1-0.1,0l-1.1-0.9c0,0,0-0.1,0-0.2l0.7-0.9C137.2,27.3,137.2,27.3,137.2,27.3z"
				/>
			<path d="M142.1,16.4c-0.1,0.3-0.3,0.5-0.4,0.6c-0.2,0.1-0.4,0.2-0.6,0.2c-0.2,0-0.4,0-0.5-0.1c-0.1-0.1-0.2-0.3-0.3-0.6
				c0-0.1,0-0.3,0-0.4c0-0.1,0.1-0.3,0.1-0.4s0.1-0.2,0.2-0.3c0.1-0.1,0.1-0.1,0.2-0.2c0.1,0,0.1,0,0,0.2c0,0.1,0,0.1-0.1,0.2
				c0,0.1,0,0.2,0,0.3c0,0.1,0,0.2,0,0.2c0,0.1,0.1,0.1,0.1,0.1c0.1,0.1,0.2,0.1,0.3,0.1c0.1,0,0.2,0,0.3-0.1c0.1,0,0.2-0.1,0.3-0.2
				c0.1-0.1,0.2-0.1,0.2-0.2c0.1-0.1,0.1-0.2,0.1-0.3s0.1-0.2,0.1-0.3c0,0,0-0.1,0-0.1c0,0,0-0.1,0-0.1c0,0,0-0.1,0.1-0.1
				s0.1-0.1,0.1-0.1c0,0,0,0,0.1,0c0,0,0,0.1,0,0.1c0,0,0,0.1,0,0.1c0,0,0,0.1,0,0.1c0,0.2,0,0.3,0.1,0.4c0.1,0.1,0.2,0.2,0.3,0.2
				c0.1,0,0.2,0,0.3,0s0.2-0.1,0.3-0.2c0,0,0-0.1,0-0.1c0-0.1,0-0.1,0-0.2c0-0.1,0-0.1,0-0.2c0-0.1,0-0.1,0-0.1c0,0,0-0.1,0-0.1
				c0-0.1,0-0.2,0.1-0.2c0-0.1,0.1-0.2,0.1-0.2s0.1-0.1,0.1-0.1c0.1,0,0.1,0,0.1,0.1c0,0.1,0.1,0.2,0.1,0.3c0,0.1,0,0.3,0,0.4
				s0,0.3,0,0.4c0,0.1-0.1,0.2-0.1,0.3s-0.1,0.2-0.2,0.3c-0.1,0.1-0.1,0.2-0.2,0.2c-0.1,0.1-0.2,0.1-0.3,0.1c-0.2,0-0.4,0-0.6,0
				C142.3,16.6,142.2,16.5,142.1,16.4z"/>
			<path d="M143.8,31.7c-0.6,0.2-1.2,0.4-1.8,0.7c-0.6,0.2-1.1,0.4-1.7,0.6c-0.1,0-0.1,0-0.1-0.1c0-0.1,0.1-0.2,0.2-0.4
				c0.1-0.1,0.1-0.3,0.2-0.3c0,0,0.1-0.1,0.1-0.1c0.2-0.1,0.4-0.1,0.6-0.2c0.3-0.1,0.5-0.2,0.9-0.3c0.3-0.1,0.6-0.2,1-0.4
				c0.3-0.1,0.7-0.2,1-0.3c0.1,0,0.1,0,0.1,0.1c0,0.1-0.1,0.1-0.1,0.2s-0.1,0.1-0.1,0.2c0,0.1-0.1,0.1-0.1,0.2
				c0,0.1-0.1,0.1-0.1,0.1C143.9,31.6,143.9,31.7,143.8,31.7C143.9,31.7,143.8,31.7,143.8,31.7z"/>
			<path d="M143.1,22.8c0,0.1,0,0.1,0,0.2c0,0.1,0,0.2,0,0.3c0,0.2,0,0.3,0.1,0.5c0.1,0.2,0.2,0.3,0.4,0.4c0.2,0.1,0.4,0.2,0.6,0.3
				c0.3,0.1,0.6,0.1,0.9,0.1h0.2c0.2,0,0.3,0.1,0.4,0.2c0.1,0.1,0.1,0.3,0.1,0.5s0,0.3-0.1,0.5c-0.1,0.1-0.2,0.2-0.4,0.2h-0.2
				c-0.7,0-1.2-0.1-1.6-0.4c-0.4-0.3-0.7-0.6-0.9-1.1c-0.2,0.3-0.3,0.6-0.6,0.8s-0.4,0.3-0.7,0.4c-0.2,0.1-0.5,0.2-0.7,0.2
				c-0.2,0-0.4,0-0.6,0h-0.2c-0.2,0-0.3-0.1-0.4-0.2c-0.1-0.1-0.1-0.3-0.1-0.5s0-0.3,0.1-0.5c0.1-0.1,0.2-0.2,0.4-0.2h0.2
				c0.2,0,0.4,0,0.6,0c0.2,0,0.4,0,0.6-0.1c0.2-0.1,0.4-0.1,0.6-0.2c0.2-0.1,0.4-0.3,0.5-0.5c0.1-0.2,0.2-0.3,0.3-0.5
				s0.2-0.3,0.2-0.5c0,0,0-0.1,0-0.1c0,0,0.1,0,0.1,0C143.1,22.7,143.1,22.7,143.1,22.8C143.1,22.8,143.1,22.8,143.1,22.8z
				 M143.8,29.7C143.8,29.7,143.7,29.7,143.8,29.7c-0.1,0.1-0.1,0-0.2,0l-1.1-0.8l-0.7,1c0,0.1-0.1,0.1-0.1,0l-1.1-0.9
				c0,0,0-0.1,0-0.1l0.7-1c0,0,0-0.1,0.1-0.1c0,0,0,0,0.1,0l1.1,0.8l0.7-0.9c0,0,0.1-0.1,0.1,0l1.1,1c0,0,0,0.1,0,0.1L143.8,29.7z"
				/>
			<path d="M152.4,16.4c-0.3,0.1-0.6,0.3-1,0.4c-0.3,0.1-0.7,0.3-1,0.4s-0.6,0.3-0.9,0.4s-0.5,0.2-0.7,0.3c0,0-0.1,0-0.1,0
				c0,0,0,0,0-0.1c0,0,0-0.1,0.1-0.2c0-0.1,0.1-0.2,0.1-0.3c0-0.1,0.1-0.2,0.1-0.3c0-0.1,0.1-0.1,0.1-0.1c0.1-0.1,0.1-0.1,0.2-0.2
				l3.5-1.5c0.1,0,0.1,0,0.1,0.1c0,0.1-0.1,0.1-0.1,0.2s-0.1,0.2-0.1,0.2s-0.1,0.2-0.1,0.2c0,0.1-0.1,0.1-0.1,0.2
				C152.6,16.3,152.5,16.3,152.4,16.4z"/>
			<path d="M147.8,22.9c0.2-0.2,0.4-0.3,0.6-0.5c0.2-0.2,0.4-0.3,0.6-0.5c0.2-0.2,0.4-0.3,0.6-0.5c0.2-0.1,0.4-0.3,0.6-0.4
				c0.3-0.2,0.7-0.2,1.1-0.2c0.4,0,0.7,0.1,1.1,0.2s0.6,0.3,0.9,0.5c0.3,0.2,0.4,0.5,0.5,0.8c0,0.5-0.1,0.9-0.4,1.3
				c-0.2,0.4-0.5,0.7-0.8,0.9c-0.4,0.3-1,0.5-1.6,0.7c-0.6,0.2-1.2,0.4-1.9,0.5c-0.7,0.1-1.3,0.2-2,0.3c-0.7,0.1-1.3,0.1-2,0.1H145
				c-0.2,0-0.3-0.1-0.4-0.2c-0.1-0.1-0.1-0.3-0.1-0.5s0-0.3,0.1-0.5c0.1-0.1,0.2-0.2,0.4-0.2h0.2c0.1,0,0.2,0,0.4,0s0.3,0,0.4,0
				l1.4-1.3c0.1-0.2,0.2-0.4,0.2-0.7c0-0.3,0-0.7,0-1.1c0-0.4,0-0.8-0.1-1.3c-0.1-0.4-0.1-0.9-0.2-1.3c-0.1-0.4-0.1-0.9-0.2-1.3
				s-0.1-0.8-0.2-1.1c0-0.2-0.1-0.5-0.1-0.7c-0.1-0.2-0.2-0.4-0.3-0.6c0,0,0-0.1,0-0.1c0,0,0,0,0,0c0,0,0,0,0,0c0,0,0,0,0-0.1
				c0.1-0.2,0.2-0.4,0.3-0.5c0.1-0.2,0.2-0.4,0.3-0.5c0,0,0.1-0.1,0.1-0.1c0,0,0.1,0,0.1,0.1c0.1,0.1,0.1,0.3,0.2,0.4
				c0.1,0.1,0.1,0.3,0.2,0.4s0.2,0.3,0.3,0.4c0.1,0.1,0.2,0.2,0.4,0.3c-0.1,0.1-0.2,0.3-0.2,0.4s-0.1,0.2-0.2,0.3
				c0,0.1-0.1,0.2-0.1,0.3c0,0.1,0,0.2,0,0.3c0.1,0.5,0.2,1,0.3,1.5s0.1,1.1,0.2,1.6c0,0.5,0,1.1,0,1.6
				C148,21.9,147.9,22.4,147.8,22.9z M152.9,23.2c-0.2-0.2-0.3-0.4-0.6-0.5c-0.2-0.1-0.5-0.3-0.7-0.3c-0.3-0.1-0.5-0.1-0.8-0.1
				c-0.3,0-0.5,0-0.7,0.1c-0.3,0.1-0.6,0.2-0.9,0.3c-0.3,0.2-0.6,0.3-0.8,0.5c-0.3,0.2-0.6,0.4-0.8,0.7c-0.3,0.3-0.6,0.5-0.9,0.8
				c0.5,0,1-0.1,1.6-0.1c0.6-0.1,1.1-0.2,1.7-0.3c0.6-0.1,1.1-0.3,1.6-0.4S152.6,23.4,152.9,23.2z"/>
			<path d="M165.8,24.5c0.1-0.3,0.1-0.5,0.2-0.7c0.1-0.2,0.1-0.4,0.2-0.6c0-0.1,0-0.1,0.1-0.1c0,0,0.1,0,0.1,0.1
				c0.1,0.2,0.3,0.4,0.4,0.6s0.2,0.4,0.4,0.6c0.1,0.1,0.2,0.1,0.3,0.1s0.2,0.1,0.4,0.1c0.1,0,0.2,0,0.3,0s0.2,0,0.2,0h0.2
				c0.2,0,0.3,0.1,0.4,0.2c0.1,0.1,0.1,0.3,0.1,0.5s0,0.3-0.1,0.5c-0.1,0.1-0.2,0.2-0.4,0.2h-0.2c-0.3,0-0.6,0-0.9-0.1
				c0,0.3,0.1,0.7,0.1,1.1s0,0.8-0.1,1.1c-0.1,0.6-0.3,1.1-0.7,1.6c-0.3,0.4-0.8,0.8-1.2,1.1c-0.5,0.3-1,0.5-1.6,0.6
				c-0.6,0.1-1.1,0.2-1.7,0.2c-0.5,0-0.9-0.1-1.4-0.2c-0.4-0.2-0.8-0.4-1.1-0.7c-0.3-0.3-0.5-0.6-0.7-1s-0.3-0.9-0.3-1.4
				c0-0.6,0.1-1.1,0.3-1.6c0.2-0.5,0.4-1,0.8-1.5c0-0.1,0.1-0.1,0.1-0.1s0,0,0.1,0c0,0,0,0.1,0,0.1c0,0,0,0.1,0,0.1
				c-0.3,0.5-0.5,1.1-0.5,1.7s0,1.1,0.2,1.6c0.1,0.2,0.2,0.4,0.4,0.6c0.2,0.2,0.3,0.4,0.6,0.5s0.5,0.3,0.8,0.3
				c0.3,0.1,0.6,0.1,1,0.1c0.4,0,0.8,0,1.3-0.1c0.4-0.1,0.8-0.2,1.2-0.3c0.4-0.2,0.8-0.3,1.1-0.6c0.3-0.2,0.7-0.5,0.9-0.9
				c0-0.3,0-0.6-0.1-0.9c-0.1-0.3-0.1-0.7-0.2-1s-0.2-0.7-0.4-1C166,25.1,165.9,24.8,165.8,24.5z M163.9,20.6l1.1,0.9
				c0,0,0.1,0.1,0,0.1l-0.7,0.9c0,0.1-0.1,0.1-0.1,0l-1.1-0.9c0,0,0-0.1,0-0.2l0.7-0.9C163.8,20.6,163.8,20.5,163.9,20.6z"/>
			<path d="M173.2,28.1c-0.6,0.2-1.2,0.4-1.8,0.7c-0.6,0.2-1.1,0.4-1.7,0.6c-0.1,0-0.1,0-0.1-0.1c0-0.1,0.1-0.2,0.2-0.4
				c0.1-0.1,0.1-0.3,0.2-0.3c0,0,0.1-0.1,0.1-0.1c0.2-0.1,0.4-0.1,0.6-0.2c0.3-0.1,0.5-0.2,0.9-0.3c0.3-0.1,0.6-0.2,1-0.4
				c0.3-0.1,0.7-0.2,1-0.3c0.1,0,0.1,0,0.1,0.1c0,0.1-0.1,0.1-0.1,0.2s-0.1,0.1-0.1,0.2c0,0.1-0.1,0.1-0.1,0.2
				c0,0.1-0.1,0.1-0.1,0.1C173.3,28,173.3,28.1,173.2,28.1C173.2,28.1,173.2,28.1,173.2,28.1z"/>
			<path d="M168.3,24.7c0.3,0,0.5,0,0.8,0c0.3,0,0.5,0,0.7-0.1c0.2-0.1,0.4-0.1,0.6-0.2s0.3-0.2,0.4-0.4c0.2-0.3,0.3-0.7,0.5-1
				c0.1-0.3,0.3-0.6,0.5-1c0.1-0.1,0.2-0.2,0.3-0.4c0.1-0.1,0.2-0.3,0.4-0.4c0.1-0.1,0.3-0.2,0.4-0.3c0.1-0.1,0.3-0.1,0.4-0.1
				c0.2,0,0.3,0.1,0.4,0.2s0.3,0.2,0.4,0.4c0.1,0.2,0.2,0.3,0.4,0.5c0.1,0.2,0.2,0.4,0.3,0.6c0.1,0.2,0.1,0.4,0.2,0.6s0.1,0.4,0,0.5
				c0,0.1,0,0.3-0.1,0.4c0,0.1-0.1,0.3-0.1,0.4s-0.1,0.2-0.2,0.3s-0.2,0.2-0.3,0.2c-0.1,0-0.3,0.1-0.6,0c-0.2,0-0.5-0.1-0.8-0.1
				c-0.3-0.1-0.6-0.2-0.9-0.3c-0.3-0.1-0.6-0.3-0.8-0.5c-0.2,0.7-0.6,1.2-1.1,1.5c-0.5,0.3-1.1,0.5-1.8,0.5h-0.2
				c-0.2,0-0.3-0.1-0.4-0.2c-0.1-0.1-0.1-0.3-0.1-0.5s0-0.3,0.1-0.5c0.1-0.1,0.2-0.2,0.4-0.2H168.3z M173.9,23.6c0,0,0-0.1,0-0.1
				s-0.1-0.2-0.1-0.3c0-0.1-0.1-0.2-0.1-0.3c0-0.1-0.1-0.1-0.1-0.2c-0.1-0.1-0.1-0.1-0.2-0.2c-0.1-0.1-0.1-0.1-0.2-0.2
				c-0.1-0.1-0.2-0.1-0.2-0.1c-0.1,0-0.2-0.1-0.3,0c-0.1,0-0.2,0-0.3,0.1c-0.1,0-0.2,0.1-0.3,0.2s-0.1,0.2-0.2,0.2
				c-0.1,0.1-0.1,0.2-0.1,0.3c0.3,0.3,0.6,0.4,1,0.5C173.2,23.5,173.5,23.6,173.9,23.6z"/>
			<path class="st0" d="M180.9,14.4C180.9,14.4,180.9,14.4,180.9,14.4c0.1,0.1,0.1,0.1,0.1,0.1s0,0.1,0,0.1s0,0.1,0,0.1
				c0,0.2,0,0.5,0,0.7c0,0.2,0,0.4,0.1,0.7c0.1,0.5,0.1,1.1,0.2,1.7c0.1,0.6,0.2,1.1,0.2,1.7c0.1,0.6,0.2,1.2,0.2,1.7
				s0.2,1.1,0.2,1.7c0,0.2,0,0.5,0,0.7c0,0.3,0,0.6,0,0.9c0,0.3,0,0.6-0.1,0.8c0,0.3-0.1,0.5-0.2,0.7c0,0.1-0.1,0.2-0.2,0.2
				c0,0-0.1,0-0.1-0.1c-0.1-1-0.2-2.1-0.3-3.2c-0.2-1.1-0.3-2.3-0.5-3.4s-0.3-2.3-0.4-3.4c0-0.3,0.1-0.6,0.2-0.9
				c0.1-0.2,0.1-0.3,0.2-0.5C180.7,14.6,180.8,14.5,180.9,14.4z"/>
			<path class="st0" d="M188,26.1l-0.9,0c-0.3,0-0.5,0-0.7-0.1c-0.2-0.1-0.4-0.2-0.6-0.3c-0.2-0.1-0.3-0.3-0.4-0.5s-0.1-0.4-0.1-0.7
				c0-0.1,0-0.2,0.1-0.4c0.1-0.2,0.1-0.3,0.2-0.5s0.2-0.3,0.3-0.5c0.1-0.2,0.2-0.3,0.3-0.4c0.1-0.1,0.2-0.2,0.4-0.3
				c0.1-0.1,0.3-0.1,0.4-0.1c0.2,0,0.4,0.1,0.6,0.3c0.2,0.2,0.3,0.4,0.5,0.6c0.1,0.2,0.3,0.5,0.3,0.8s0.1,0.5,0.2,0.7l0.7,0h0.2
				c0.2,0,0.3,0.1,0.4,0.2c0.1,0.1,0.1,0.3,0.1,0.5s0,0.3-0.1,0.5c-0.1,0.1-0.2,0.2-0.4,0.2h-0.2l-0.8,0c-0.1,0.5-0.2,1-0.4,1.5
				c-0.1,0.5-0.3,0.9-0.5,1.3s-0.5,0.8-0.8,1.1c-0.3,0.3-0.7,0.5-1.2,0.7c-0.3,0.1-0.7,0.2-1.1,0.2c-0.4,0-0.8,0-1.2,0
				c-0.4,0-0.8-0.1-1.2-0.1c-0.4-0.1-0.8-0.1-1.1-0.2c-0.1,0-0.1-0.1-0.2-0.1c0-0.1,0-0.1,0-0.2c0-0.1,0.1-0.1,0.1-0.1
				c0.1,0,0.1-0.1,0.2,0c0.3,0,0.7,0,1,0s0.7,0,1.1-0.1s0.7-0.1,1.1-0.2c0.3-0.1,0.7-0.2,0.9-0.4c0.3-0.2,0.6-0.4,0.9-0.7
				c0.3-0.3,0.5-0.5,0.7-0.8c0.2-0.3,0.4-0.6,0.5-0.9C187.8,26.7,187.9,26.4,188,26.1z M186.7,23.8c-0.1,0-0.2,0-0.2,0.1
				c-0.1,0.1-0.1,0.1-0.2,0.2c-0.1,0.1-0.1,0.1-0.2,0.2s-0.1,0.1-0.1,0.2c0,0.1,0.1,0.1,0.3,0.2s0.3,0.1,0.5,0.1c0.2,0,0.4,0,0.5,0
				s0.3,0,0.4,0c0,0,0-0.1-0.1-0.2c-0.1-0.1-0.1-0.2-0.2-0.3s-0.2-0.2-0.3-0.3C187,23.8,186.8,23.8,186.7,23.8z"/>
			<path class="st0" d="M189,13.3c-0.1,0-0.1,0,0-0.1c0.1-0.1,0.1-0.1,0.2-0.2c0.2-0.1,0.4-0.3,0.6-0.4s0.4-0.2,0.6-0.4
				c0.2-0.1,0.4-0.3,0.5-0.4c0.2-0.1,0.4-0.3,0.5-0.5c-0.2,0-0.3-0.1-0.5-0.2s-0.3-0.2-0.4-0.4c-0.1-0.1-0.1-0.2-0.1-0.3
				c0-0.1,0-0.2,0-0.3c0.1-0.1,0.1-0.3,0.2-0.5c0.1-0.2,0.2-0.3,0.3-0.5c0.1-0.1,0.2-0.3,0.4-0.3c0.1-0.1,0.3-0.1,0.5-0.1
				c0.1,0,0.2,0,0.3,0.1c0.1,0.1,0.1,0.2,0.2,0.3s0.1,0.3,0.1,0.4c0,0.1,0,0.3,0,0.4s0,0.3,0,0.4c0,0.1,0,0.2,0,0.3c0,0,0,0,0,0.1
				c0.1,0,0.1,0.1,0.2,0.1s0,0.1,0.1,0.1c0,0.1,0,0.2,0,0.3c0,0.1-0.1,0.2-0.1,0.3c0,0.1-0.1,0.1-0.1,0.1c0,0-0.1,0-0.1-0.1
				c0,0-0.1-0.1-0.1-0.1s-0.1-0.1-0.1-0.1c-0.2,0.2-0.4,0.4-0.5,0.6c-0.2,0.2-0.3,0.3-0.5,0.4c-0.2,0.1-0.4,0.2-0.6,0.4
				c-0.2,0.1-0.5,0.2-0.7,0.3c-0.1,0-0.2,0.1-0.3,0.1S189.1,13.3,189,13.3z M191,9.9c0.1,0.2,0.3,0.3,0.4,0.4
				c0.2,0.1,0.3,0.2,0.5,0.2h0c0-0.1,0-0.1,0-0.2s0-0.2,0-0.2c0-0.1,0-0.2,0-0.2c0-0.1-0.1-0.1-0.1-0.2c0,0-0.1-0.1-0.2-0.1
				s-0.2,0-0.3,0c-0.1,0-0.2,0.1-0.2,0.1S191,9.9,191,9.9z"/>
			<path class="st0" d="M193.7,14.9c-0.1,0-0.1,0,0-0.1c0.1-0.1,0.1-0.1,0.2-0.2c0.2-0.1,0.4-0.3,0.6-0.4s0.4-0.2,0.6-0.4
				c0.2-0.1,0.4-0.3,0.5-0.4c0.2-0.1,0.4-0.3,0.5-0.5c-0.2,0-0.3-0.1-0.5-0.2s-0.3-0.2-0.4-0.4c-0.1-0.1-0.1-0.2-0.1-0.3
				c0-0.1,0-0.2,0-0.3c0.1-0.1,0.1-0.3,0.2-0.5c0.1-0.2,0.2-0.3,0.3-0.5c0.1-0.1,0.2-0.3,0.4-0.3c0.1-0.1,0.3-0.1,0.5-0.1
				c0.1,0,0.2,0,0.3,0.1c0.1,0.1,0.1,0.2,0.2,0.3s0.1,0.3,0.1,0.4c0,0.1,0,0.3,0,0.4s0,0.3,0,0.4c0,0.1,0,0.2,0,0.3c0,0,0,0,0,0.1
				c0.1,0,0.1,0.1,0.2,0.1s0,0.1,0.1,0.1c0,0.1,0,0.2,0,0.3c0,0.1-0.1,0.2-0.1,0.3c0,0.1-0.1,0.1-0.1,0.1c0,0-0.1,0-0.1-0.1
				c0,0-0.1-0.1-0.1-0.1s-0.1-0.1-0.1-0.1c-0.2,0.2-0.4,0.4-0.5,0.6c-0.2,0.2-0.3,0.3-0.5,0.4c-0.2,0.1-0.4,0.2-0.6,0.4
				c-0.2,0.1-0.5,0.2-0.7,0.3c-0.1,0-0.2,0.1-0.3,0.1S193.8,14.9,193.7,14.9z M195.7,11.5c0.1,0.2,0.3,0.3,0.4,0.4
				c0.2,0.1,0.3,0.2,0.5,0.2h0c0-0.1,0-0.1,0-0.2s0-0.2,0-0.2c0-0.1,0-0.2,0-0.2c0-0.1-0.1-0.1-0.1-0.2c0,0-0.1-0.1-0.2-0.1
				s-0.2,0-0.3,0c-0.1,0-0.2,0.1-0.2,0.1S195.7,11.5,195.7,11.5z"/>
			<path class="st0" d="M191.6,18c0-0.2,0.1-0.5,0.3-0.7c0.2-0.2,0.4-0.4,0.6-0.6c0.2-0.2,0.5-0.3,0.7-0.4c0.2-0.1,0.4-0.2,0.6-0.3
				c1.1-0.6,2.1-1.1,3.2-1.6c1.1-0.5,2.2-0.9,3.3-1.4c0,0,0.1,0,0.1,0c0,0,0,0,0,0.1c-0.1,0.2-0.1,0.4-0.2,0.6s-0.1,0.4-0.2,0.6
				c-0.4,0.2-0.8,0.3-1.3,0.6c-0.5,0.2-1,0.4-1.5,0.6c-0.5,0.2-1,0.5-1.5,0.7c-0.5,0.2-0.9,0.5-1.4,0.7c-0.4,0.2-0.8,0.4-1.1,0.6
				c-0.3,0.2-0.6,0.4-0.7,0.5c0,0-0.1,0.1,0,0.1c0,0,0.1,0,0.1,0.1c0.2,0.1,0.5,0.3,0.8,0.5c0.3,0.2,0.5,0.4,0.8,0.6
				c0.3,0.2,0.5,0.4,0.8,0.6s0.5,0.4,0.7,0.6s0.4,0.4,0.6,0.6c0.2,0.2,0.3,0.4,0.5,0.6c0.1,0.2,0.2,0.4,0.3,0.7
				c0.1,0.2,0.2,0.5,0.2,0.7c0,0.2,0,0.5,0,0.7c0,0.2-0.1,0.5-0.2,0.7c-0.2,0.3-0.4,0.6-0.6,0.8c-0.3,0.2-0.5,0.4-0.8,0.5
				c-0.3,0.1-0.6,0.2-1,0.3c-0.3,0.1-0.7,0.1-1,0.1c-0.3,0-0.5,0-0.8-0.1c-0.2-0.1-0.4-0.2-0.6-0.4s-0.3-0.3-0.4-0.6
				s-0.2-0.4-0.3-0.7c-0.2,0.6-0.5,1-0.9,1.3c-0.4,0.3-0.8,0.4-1.3,0.4h-0.2c-0.2,0-0.3-0.1-0.4-0.2c-0.1-0.1-0.1-0.3-0.1-0.5
				c0-0.2,0-0.3,0.1-0.5c0.1-0.1,0.2-0.2,0.4-0.2h0.2c0.2,0,0.4,0,0.6-0.1c0.2,0,0.4-0.1,0.6-0.2c0.2-0.1,0.3-0.2,0.5-0.4
				c0.1-0.1,0.2-0.3,0.3-0.5c0-0.1,0-0.3-0.1-0.6c0-0.3-0.1-0.8-0.1-1.4c0-0.6-0.1-1.2-0.1-1.8c0-0.6-0.1-1.1-0.1-1.7
				c-0.1-1.1-0.2-2.3-0.3-3.5c0-0.1,0-0.2,0-0.3c0-0.1,0.1-0.2,0.1-0.2c0-0.1,0.1-0.1,0.1-0.2c0-0.1,0.1-0.1,0.1-0.2
				s0.1-0.2,0.1-0.3c0,0,0.1-0.1,0.1-0.1c0,0,0.1,0,0.1,0.1c0,0.1,0,0.3,0,0.5c0,0.2,0,0.4,0.1,0.7c0,0.3,0,0.5,0.1,0.9
				c0,0.3,0.1,0.6,0.1,0.9c0,0.3,0,0.6,0.1,0.9S191.6,17.7,191.6,18z M193.6,24.7c0.3,0,0.6,0,0.9,0s0.6-0.1,0.9-0.2
				c0.3-0.1,0.5-0.2,0.8-0.3c0.2-0.1,0.4-0.3,0.6-0.5c0-0.3-0.2-0.6-0.4-0.9c-0.2-0.3-0.5-0.6-0.8-1c-0.3-0.3-0.6-0.6-1-1
				c-0.4-0.3-0.7-0.6-1.1-0.9c-0.4-0.3-0.7-0.5-1-0.7c-0.3-0.2-0.6-0.3-0.8-0.4c0,0.1,0,0.4,0.1,0.7c0,0.3,0.1,0.8,0.1,1.3l0.2,1.9
				c0,0.2,0.1,0.4,0.1,0.7c0.1,0.2,0.2,0.4,0.3,0.6c0.1,0.2,0.3,0.3,0.5,0.4C193.1,24.7,193.4,24.7,193.6,24.7z"/>
		</g>
		<g>
			<path d="M214,22.1c0,0.1-0.1,0.2-0.2,0.4c-0.1,0.2-0.4,0.3-0.7,0.5c0,0.3,0,0.6-0.1,0.9c-0.1,0.2-0.2,0.4-0.3,0.4
				c-0.3-0.3-0.6-0.6-0.9-0.8c-0.3-0.2-0.6-0.4-1-0.4c0,0.3,0.2,0.7,0.5,1c0.3,0.3,0.5,0.6,0.8,0.8c0,0.1-0.3,0.3-0.8,0.4
				c-0.4,0.1-0.7,0.1-1,0.1c-0.4,1.2-0.9,2.2-1.6,3.2c-0.3,0.4-0.7,0.9-1.2,1.4c-0.7,0.7-1.2,1-1.5,1c-0.1,0-0.2-0.1-0.2-0.2
				c0-0.1,0.2-0.3,0.6-0.8c0.5-0.6,1-1.2,1.2-1.7c0.5-0.9,0.8-1.9,1-3c-0.4,0-0.6-0.1-0.7-0.1c-0.1,0-0.1-0.1-0.1-0.2
				c0.8-0.6,1.2-1.3,1.2-1.8c-0.3,0-0.7,0.1-0.9,0.4c-0.2,0.2-0.5,0.5-0.8,0.8c-0.1,0-0.2-0.1-0.3-0.4c-0.1-0.3-0.2-0.6-0.2-0.9
				c-0.3-0.2-0.5-0.3-0.6-0.3c-0.2-0.2-0.3-0.3-0.3-0.5c0-0.1,0.1-0.2,0.2-0.3c0.1-0.1,0.3-0.2,0.7-0.4c0-0.9,0.2-1.3,0.5-1.3
				c0.7,0.7,1.3,1.1,1.8,1.2c0-0.3-0.1-0.6-0.4-1c0,0-0.3-0.3-0.8-0.9c0-0.1,0.1-0.1,0.2-0.2c0.1-0.1,0.4-0.1,0.7-0.2
				c-0.2-0.9-0.5-1.8-1.1-2.7c-0.5-0.9-1.1-1.7-1.8-2.3c-0.1-0.1-0.2-0.2-0.2-0.3s0.1-0.1,0.2-0.1c0.2,0,0.6,0.2,1.1,0.5
				c1.5,1.1,2.6,2.7,3.4,4.8c1.1,0,1.7,0.2,1.7,0.5c-0.3,0.3-0.6,0.5-0.8,0.8c-0.2,0.3-0.4,0.7-0.4,1c0.3,0,0.6-0.1,0.9-0.4l0.9-0.8
				c0.2,0,0.3,0.4,0.4,1.1c0,0.1,0,0.1,0,0.2C213.6,21.6,214,21.8,214,22.1z M211.3,19.4c0,0-0.1-0.1-0.3-0.1s-0.4-0.1-0.5-0.1h-0.3
				c-0.1,0-0.1,0-0.2,0c-0.3-1-0.8-2-1.4-2.9c-0.7-1-1.5-1.8-2.4-2.4c0.6,0.6,1.2,1.3,1.6,2.1c0.6,1,1,2.1,1.1,3.1
				c-0.4,0-0.6,0.1-0.7,0.2c0.5,0.4,0.8,0.8,1,1.2c0.1-0.2,0.1-0.4,0.3-0.6c0,0,0.1-0.1,0.1-0.3c0.1-0.2,0.1-0.2,0.1-0.2
				c0.1,0,0.3,0.4,0.6,1.1c0.1-0.3,0.3-0.5,0.5-0.8C211,19.8,211.1,19.6,211.3,19.4z M208.5,22.7c-0.1,0-0.4-0.2-0.9-0.3
				c-0.3-0.1-0.5-0.2-0.5-0.3c0,0,0.3-0.1,0.8-0.4c0.1,0,0.3-0.1,0.6-0.2c-0.3-0.1-0.5-0.2-0.8-0.4c-0.1-0.1-0.3-0.3-0.5-0.5
				c-0.1,0-0.1,0.3-0.1,1c-0.5,0.3-0.7,0.5-0.8,0.6c0,0.1,0.3,0.3,0.8,0.5c0,0.7,0.1,1,0.2,1c0,0,0.2-0.1,0.5-0.4
				C208.1,23,208.3,22.8,208.5,22.7z M211.4,24.8c-0.4-0.3-0.7-0.7-1-1.2c0,0.1-0.1,0.3-0.3,0.5c0,0-0.1,0.1-0.2,0.3
				c-0.1,0.2-0.1,0.2-0.2,0.2c0,0-0.1-0.1-0.2-0.3c-0.1-0.2-0.1-0.3-0.1-0.3c0-0.1-0.1-0.3-0.3-0.6c-0.1,0.2-0.2,0.5-0.4,0.7
				c-0.1,0.2-0.3,0.3-0.5,0.5c0,0,0.2,0.1,0.6,0.2c-0.3,1-0.4,1.7-0.5,2c-0.4,1.2-1,2.3-2,3.3c1.5-1,2.7-2.8,3.5-5.3
				c0.6,0,0.8,0,0.7,0C211.2,25,211.4,24.9,211.4,24.8z M210.9,22.1c0-0.3-0.1-0.6-0.3-0.7c-0.2-0.2-0.5-0.3-0.8-0.3
				c-0.3,0-0.5,0.1-0.7,0.3c-0.2,0.2-0.3,0.4-0.3,0.7c0,0.3,0.1,0.5,0.3,0.7c0.2,0.2,0.5,0.3,0.8,0.3c0.3,0,0.6-0.1,0.8-0.3
				C210.8,22.7,210.9,22.4,210.9,22.1z M213.5,22.1c0-0.1-0.1-0.1-0.2-0.2c-0.1-0.1-0.3-0.2-0.6-0.3c0-0.3,0-0.5-0.1-0.7
				c0-0.2-0.1-0.3-0.1-0.3c0,0-0.2,0.1-0.4,0.4c-0.3,0.3-0.6,0.5-0.9,0.6c0.1,0.1,0.4,0.2,0.6,0.3c0,0,0.2,0.1,0.5,0.2
				c0.2,0.1,0.3,0.1,0.3,0.2c0,0.1-0.2,0.2-0.5,0.3c-0.5,0.1-0.8,0.2-0.9,0.3c0.3,0.1,0.6,0.2,0.8,0.4c0.1,0.1,0.3,0.3,0.5,0.5
				c0.1,0,0.1-0.1,0.1-0.3c0-0.1,0-0.3,0-0.7C213.2,22.4,213.5,22.2,213.5,22.1z"/>
		</g>
	</g>
	<rect class="st1" width="242.6" height="39.4"/>
</g>
</svg>
