<?xml version="1.0" encoding="utf-8"?>
<!-- Generator: Adobe Illustrator 22.0.1, SVG Export Plug-In . SVG Version: 6.00 Build 0)  -->
<svg version="1.1" id="Layer_1" xmlns="http://www.w3.org/2000/svg" xmlns:xlink="http://www.w3.org/1999/xlink" x="0px" y="0px"
	 viewBox="0 0 86.2 86.2" style="enable-background:new 0 0 86.2 86.2;" xml:space="preserve">
<style type="text/css">
	.st0{fill:#235958;}
</style>
<g>
	<path class="st0" d="M64.7,72.9l-15.6,6.3c-6.3,0-11.5-1.6-15.8-4.8c-4.7-3.5-7.1-8.3-7.1-14.3c0-3.7,0.8-7.1,2.4-10.4
		c1-2.1,3-5.1,5.9-8.9c-3.7-0.9-5.5-2.6-5.5-5.2c0-2,1.4-5.6,4.2-10.8c1.6-3,3.5-4.5,5.8-4.5c2.4,0,5.1,1.7,8.2,5
		c-3,0.3-5.2,0.6-6.7,0.9c-2.5,0.6-4.4,1.5-5.9,2.6c-1.5,1.2-2.2,2.2-2.2,3.1c0,1.9,2.5,3.4,7.4,4.5c4.9-2.9,9.2-4.9,12.9-6.1
		c-1.3,2.5-2,3.9-2.2,4.2c-0.9,1.7-1.8,3-2.7,3.9c-1,1.2-2.9,2.3-5.5,3.3c-7.9,2.9-11.9,7.6-11.9,14c0,5.8,3.4,10.2,10.3,13.1
		c5.1,2.1,11,3.2,17.7,3.2c1.9,0,4.1-0.1,6.4-0.3L64.7,72.9z"/>
</g>
</svg>
