<?xml version="1.0" encoding="utf-8"?>
<!-- Generator: Adobe Illustrator 22.0.1, SVG Export Plug-In . SVG Version: 6.00 Build 0)  -->
<svg version="1.1" id="Layer_1" xmlns="http://www.w3.org/2000/svg" xmlns:xlink="http://www.w3.org/1999/xlink" x="0px" y="0px"
	 viewBox="0 0 123.8 78.4" style="enable-background:new 0 0 123.8 78.4;" xml:space="preserve">
<style type="text/css">
	.st0{fill:#235958;}
	.st1{fill:#EF5316;}
</style>
<g>
	<path class="st0" d="M38.5,60.8l-15.6,6.4c-6.3,0-11.6-1.6-15.8-4.8C2.4,58.8,0,54,0,47.9c0-3.7,0.8-7.2,2.4-10.5c1-2.1,3-5.1,6-9
		c-3.7-0.9-5.5-2.7-5.5-5.2c0-2,1.4-5.6,4.2-10.9c1.6-3,3.5-4.5,5.8-4.5c2.4,0,5.1,1.7,8.2,5c-3,0.3-5.3,0.6-6.8,0.9
		c-2.5,0.6-4.4,1.5-5.9,2.7s-2.2,2.2-2.2,3.1c0,1.9,2.5,3.4,7.4,4.5c4.9-2.9,9.2-4.9,12.9-6.1c-1.3,2.5-2,3.9-2.2,4.3
		c-0.9,1.7-1.8,3-2.7,3.9c-1,1.2-2.9,2.3-5.5,3.3C8,32.4,4,37.1,4,43.5c0,5.8,3.4,10.2,10.3,13.2c5.1,2.1,11,3.2,17.7,3.2
		c1.9,0,4.1-0.1,6.4-0.3L38.5,60.8z"/>
	<path class="st0" d="M47.2,27.8c0,2.9-0.6,5.9-1.8,9H44c0-4.6-0.5-9.5-1.4-14.7C41,13.6,40.3,8.8,40.3,7.6c0-1.4,0.5-2.8,1.4-4.1
		C42.1,2.9,43,1.8,44.6,0c0,3.1,0.4,7.7,1.3,13.9C46.8,20,47.2,24.7,47.2,27.8z"/>
	<path class="st0" d="M76.6,38.4h-3.9c-0.7,5-1.9,9.2-3.6,12.6c-2.5,4.8-5.7,7.2-9.8,7.2c-2.9,0-6.5-1.4-10.7-4.3l0.6-1
		c1.7,0.3,2.9,0.5,3.7,0.5c2.8,0,5.8-1.2,8.8-3.5c1.3-1,2.8-2.8,4.6-5.6c1.3-2.1,2.6-4.3,3.9-6.4c-2.4-0.8-4.1-2.8-5.3-5.9l4.5-6.6
		c1.5,3,3.2,4.5,5.1,4.5h2.1L76.6,38.4L76.6,38.4z"/>
	<path class="st1" d="M90.1,38.4H75.6V30h14.5V38.4z"/>
	<path class="st1" d="M114.1,48.3c0,1.8-0.6,3.1-1.9,3.8l-10.9,6.3c0-1.2,0.1-2,0.4-2.4c0.3-0.5,1-1,2.1-1.6L114.1,48.3z"/>
	<path class="st1" d="M103.3,38.4h-0.6c-3.4,0-5.6-1.6-6.8-4.7c-1.4,3.1-3.1,4.7-5.2,4.7H88V30c4,0,6.4-0.3,7.2-1
		c0.3-0.3,0.5-1.4,0.6-3.5h0.4c0.6,1.7,1.5,2.9,2.7,3.5c0.9,0.4,2.4,0.6,4.4,0.6C103.3,29.7,103.3,38.4,103.3,38.4z"/>
	<path class="st1" d="M123.8,25.9c0,2.7-0.5,5.1-1.6,7.2c-1.3,2.6-3.2,3.9-5.6,3.9c-2.5,0-4.4-1.5-5.9-4.6c-1.9,4-4.5,6-8,6v-8.8
		c4.6,0,6.9-1.3,6.9-3.8c0-0.4,0-1.1-0.1-1.9s-0.1-1.4-0.2-1.6l1-0.1c0.5,2.1,1.4,3.9,2.7,5.3c1.4,1.6,3.2,2.3,5.2,2.3
		c0.4,0,1-0.2,1.8-0.6s1.1-0.8,1.1-1.1c0-0.7-0.4-1.7-1.2-2.9c-0.6-0.9-1.2-1.7-1.8-2.6c0.5-1.4,1.1-3.6,1.9-6.5
		C122.5,18.6,123.8,21.8,123.8,25.9z M117.8,12.5l-3.1,5l-4.6-3.3l-2.4,4.3l-5-3.7l3-5l4.5,3.7L113,9L117.8,12.5z M112.3,4.8
		l-2.9,5.1l-4.9-3.7l3.1-5.1L112.3,4.8z"/>
</g>
</svg>
