<?xml version="1.0" encoding="utf-8"?>
<!-- Generator: Adobe Illustrator 23.0.2, SVG Export Plug-In . SVG Version: 6.00 Build 0)  -->
<svg version="1.1" id="Layer_1" xmlns="http://www.w3.org/2000/svg" xmlns:xlink="http://www.w3.org/1999/xlink" x="0px" y="0px"
	 viewBox="0 0 36.6 28.6" style="enable-background:new 0 0 36.6 28.6;" xml:space="preserve">
<path d="M22.1,25.7c-1,0-1.8-0.4-2.3-1.1c-0.4-0.5-0.6-1.2-0.7-1.7c0-0.1,0-0.2,0-0.3l0-20.5c0-0.4-0.3-0.7-0.7-0.7
	s-0.7,0.3-0.7,0.7l0,20.5c0,0.1,0,0.2,0,0.3c-0.1,0.5-0.3,1.2-0.7,1.7c-0.6,0.8-1.3,1.1-2.3,1.1c-2.6,0-6.1,0-6.1,0l0,1.4h0
	c0,0,3.5,0,6.1,0c1.5,0,2.6-0.6,3.5-1.7c0.1-0.2,0.2-0.3,0.3-0.5c0.1,0.2,0.2,0.3,0.3,0.5c0.8,1.1,2,1.7,3.5,1.7c2.6,0,6.1,0,6.1,0
	h0l0-1.4C28.2,25.7,24.7,25.7,22.1,25.7z"/>
</svg>
