<?xml version="1.0" encoding="utf-8"?>
<!-- Generator: Adobe Illustrator 22.1.0, SVG Export Plug-In . SVG Version: 6.00 Build 0)  -->
<svg version="1.1" id="Layer_1" xmlns="http://www.w3.org/2000/svg" xmlns:xlink="http://www.w3.org/1999/xlink" x="0px" y="0px"
	 viewBox="0 0 84.1 127" style="enable-background:new 0 0 84.1 127;" xml:space="preserve">
<style type="text/css">
	.st0{opacity:0.19;}
	.st1{fill:#010101;}
	.st2{fill:#F47421;}
	.st3{fill:#F15E22;}
	.st4{fill:#F68B29;}
	.st5{fill:#F9A55E;}
	.st6{fill:#E41E26;}
	.st7{fill:#C32026;}
	.st8{fill:#ED2224;}
	.st9{fill:#EF4645;}
	.st10{fill:#FDC20F;}
	.st11{fill:#F99D1C;}
	.st12{fill:#FFD215;}
	.st13{fill:#FFE36F;}
	.st14{fill:#FFFFFF;}
	.st15{fill:#2A3C90;}
</style>
<g>
	<g class="st0">
		<polygon class="st1" points="55.3,44.5 29.5,44.5 21.9,24.8 62.9,24.8 		"/>
		<path class="st1" d="M42.4,39.4c-12.6-1.8-15.8-11-16.5-14.6h-3.9l7.6,19.7h25.8l2.1-5.6C53.6,39.5,48.2,39.9,42.4,39.4z"/>
		<path class="st1" d="M35,27.7h21.3c0,0,3.5-0.5,2.4,3.6c-1.1,4.1-2.7,6.4-8.4,6.3c-5.7-0.1-13.7-0.3-17.9-5.5
			C29.8,29.1,30.1,27.7,35,27.7z"/>
		<path class="st1" d="M57.7,32.4c-0.5,1.7-1.4,2.8-2,2.7c-0.6-0.2-0.6-1.7,0-3.3c0.5-1.7,1.4-2.8,2-2.7
			C58.3,29.3,58.3,30.8,57.7,32.4z"/>
		<path class="st1" d="M67.2,23.5c0,1.6-1.3,2.9-2.9,2.9H20.5c-1.6,0-2.9-1.3-2.9-2.9V9.9c0-1.6,1.3-2.9,2.9-2.9h43.8
			c1.6,0,2.9,1.3,2.9,2.9V23.5z"/>
		<path class="st1" d="M67.1,24.5c-5.7,1-24.4,0.2-32.1,0c-9-0.3-14.4-4.2-14.4-10.3c0-4.1,1.3-6.2,2.2-7.2h-2.3
			c-1.6,0-2.9,1.3-2.9,2.9v13.6c0,1.6,1.3,2.9,2.9,2.9h43.8C65.6,26.5,66.7,25.6,67.1,24.5z"/>
		<path class="st1" d="M30.3,8.5h30c0,0,5.3,1.1,5.3,5.2c0,4.1-1.3,8.7-3.9,8.9c-2.6,0.2-30.5,1.6-34.7-3.3
			C23.9,16.3,21.5,8.5,30.3,8.5z"/>
		<path class="st1" d="M62.6,11.3c0,0.7-0.6,1.4-1.4,1.4H35.7c-0.7,0-1.3-0.6-1.3-1.4l0,0c0-0.7,0.6-1.4,1.3-1.4h25.6
			C62,10,62.6,10.6,62.6,11.3L62.6,11.3z"/>
		<path class="st1" d="M32.9,16.7c0,2.7-2.2,4.9-4.9,4.9c-2.7,0-4.9-2.2-4.9-4.9c0-2.7,2.2-4.9,4.9-4.9C30.7,11.9,32.9,14,32.9,16.7
			z"/>
		<path class="st1" d="M29,20.4c-2.7,0-4.9-2.2-4.9-4.9c0-0.9,0.3-1.7,0.7-2.4c-1,0.9-1.7,2.2-1.7,3.6c0,2.7,2.2,4.9,4.9,4.9
			c1.8,0,3.4-1,4.2-2.5C31.3,19.9,30.2,20.4,29,20.4z"/>
		<path class="st1" d="M26.4,12.9c0,0,2.6-1.1,4.6,0.9c1.3,1.4,1.8,4,0.4,5c-1.4,1-4.5,0-5.2-1.6C25.5,15.5,25.4,13.7,26.4,12.9z"/>
		<path class="st1" d="M31.1,15.7c-0.3,0.3-1,0.1-1.6-0.5S28.7,14,29,13.7c0.3-0.3,1-0.1,1.6,0.5C31.2,14.7,31.4,15.4,31.1,15.7z"/>
		<path class="st1" d="M47.3,16.7c0,2.7-2.2,4.9-4.9,4.9c-2.7,0-4.9-2.2-4.9-4.9c0-2.7,2.2-4.9,4.9-4.9C45.1,11.9,47.3,14,47.3,16.7
			z"/>
		<path class="st1" d="M43.4,20.4c-2.7,0-4.9-2.2-4.9-4.9c0-0.9,0.2-1.7,0.7-2.4c-1,0.9-1.7,2.2-1.7,3.6c0,2.7,2.2,4.9,4.9,4.9
			c1.8,0,3.4-1,4.2-2.5C45.7,19.9,44.6,20.4,43.4,20.4z"/>
		<path class="st1" d="M40.8,12.9c0,0,2.6-1.1,4.6,0.9c1.3,1.4,1.8,4,0.4,5c-1.4,1-4.5,0-5.2-1.6C39.9,15.5,39.8,13.7,40.8,12.9z"/>
		<path class="st1" d="M45.5,15.7c-0.3,0.3-1,0.1-1.6-0.5c-0.6-0.6-0.8-1.3-0.5-1.6c0.3-0.3,1-0.1,1.6,0.5
			C45.6,14.7,45.8,15.4,45.5,15.7z"/>
		<path class="st1" d="M61.7,16.7c0,2.7-2.2,4.9-4.9,4.9c-2.7,0-4.9-2.2-4.9-4.9c0-2.7,2.2-4.9,4.9-4.9C59.5,11.9,61.7,14,61.7,16.7
			z"/>
		<path class="st1" d="M57.8,20.4c-2.7,0-4.9-2.2-4.9-4.9c0-0.9,0.2-1.7,0.7-2.4c-1,0.9-1.7,2.2-1.7,3.6c0,2.7,2.2,4.9,4.9,4.9
			c1.8,0,3.4-1,4.2-2.5C60.2,19.9,59,20.4,57.8,20.4z"/>
		<path class="st1" d="M55.2,12.9c0,0,2.6-1.1,4.6,0.9c1.3,1.4,1.8,4,0.4,5c-1.4,1-4.5,0-5.2-1.6C54.3,15.5,54.2,13.7,55.2,12.9z"/>
		<path class="st1" d="M59.9,15.7c-0.3,0.3-1,0.1-1.6-0.5c-0.6-0.6-0.8-1.3-0.5-1.6c0.3-0.3,1-0.1,1.6,0.5
			C60,14.7,60.2,15.4,59.9,15.7z"/>
		<path class="st1" d="M84.1,84.9c0,23.2-18.8,42.1-42.1,42.1C18.8,126.9,0,108.1,0,84.9c0-23.2,18.8-42.1,42.1-42.1
			C65.3,42.8,84.1,61.6,84.1,84.9z"/>
		<path class="st1" d="M54.7,115c-23.2,0-42.1-18.8-42.1-42.1c0-8.9,2.8-17.1,7.4-23.9C8.1,56.4,0,69.7,0,84.9
			c0,23.2,18.8,42.1,42.1,42.1c14.4,0,27-7.2,34.6-18.2C70.3,112.7,62.8,115,54.7,115z"/>
		<path class="st1" d="M33.8,48.9c0,0,20.9-3.6,36.4,13.1c10.9,12.8,7.8,30.3,5.3,37c-2.5,6.7-21.1,11.4-35.6,3.9
			C25.5,95.3,9.1,57.5,33.8,48.9z"/>
		<path class="st1" d="M71.2,76c-2.4,2.3-8.5-0.2-13.6-5.6c-5.1-5.4-7.4-11.6-5-13.9c2.4-2.3,8.5,0.3,13.6,5.6
			C71.3,67.5,73.6,73.7,71.2,76z"/>
		<path class="st1" d="M5.1,121c-0.2,0-0.4,0.4-0.2,0.4C5.1,121.4,5.3,121,5.1,121z"/>
		<path class="st1" d="M79.9,121c0.2,0,0.4,0.4,0.2,0.4C79.9,121.4,79.7,121,79.9,121z"/>
	</g>
	<g>
		<g>
			<g>
				<g>
					<polygon class="st2" points="55.3,37.5 29.5,37.5 21.9,17.8 62.9,17.8 					"/>
					<path class="st3" d="M42.4,32.4c-12.6-1.8-15.8-11-16.5-14.6h-3.9l7.6,19.7h25.8l2.1-5.6C53.6,32.5,48.2,32.9,42.4,32.4z"/>
					<path class="st4" d="M35,20.7h21.3c0,0,3.5-0.5,2.4,3.6c-1.1,4.1-2.7,6.4-8.4,6.3c-5.7-0.1-13.7-0.3-17.9-5.5
						C29.8,22.1,30.1,20.7,35,20.7z"/>
					<path class="st5" d="M57.7,25.4c-0.5,1.7-1.4,2.8-2,2.7c-0.6-0.2-0.6-1.7,0-3.3c0.5-1.7,1.4-2.8,2-2.7
						C58.3,22.3,58.3,23.8,57.7,25.4z"/>
				</g>
				<g>
					<path class="st6" d="M67.2,16.5c0,1.6-1.3,2.9-2.9,2.9H20.5c-1.6,0-2.9-1.3-2.9-2.9V2.9c0-1.6,1.3-2.9,2.9-2.9h43.8
						c1.6,0,2.9,1.3,2.9,2.9V16.5z"/>
					<path class="st7" d="M67.1,17.5c-5.7,1-24.4,0.2-32.1,0c-9-0.3-14.4-4.2-14.4-10.3c0-4.1,1.3-6.2,2.2-7.2h-2.3
						c-1.6,0-2.9,1.3-2.9,2.9v13.6c0,1.6,1.3,2.9,2.9,2.9h43.8C65.6,19.5,66.7,18.6,67.1,17.5z"/>
					<path class="st8" d="M30.3,1.5h30c0,0,5.3,1.1,5.3,5.2c0,4.1-1.3,8.7-3.9,8.9c-2.6,0.2-30.5,1.6-34.7-3.3
						C23.9,9.3,21.5,1.5,30.3,1.5z"/>
					<path class="st9" d="M62.6,4.3c0,0.7-0.6,1.4-1.4,1.4H35.7c-0.7,0-1.3-0.6-1.3-1.4l0,0c0-0.7,0.6-1.4,1.3-1.4h25.6
						C62,3,62.6,3.6,62.6,4.3L62.6,4.3z"/>
					<g>
						<g>
							<path class="st10" d="M32.9,9.7c0,2.7-2.2,4.9-4.9,4.9c-2.7,0-4.9-2.2-4.9-4.9c0-2.7,2.2-4.9,4.9-4.9
								C30.7,4.9,32.9,7,32.9,9.7z"/>
							<path class="st11" d="M29,13.4c-2.7,0-4.9-2.2-4.9-4.9c0-0.9,0.3-1.7,0.7-2.4c-1,0.9-1.7,2.2-1.7,3.6c0,2.7,2.2,4.9,4.9,4.9
								c1.8,0,3.4-1,4.2-2.5C31.3,12.9,30.2,13.4,29,13.4z"/>
							<path class="st12" d="M26.4,5.9c0,0,2.6-1.1,4.6,0.9c1.3,1.4,1.8,4,0.4,5c-1.4,1-4.5,0-5.2-1.6C25.5,8.5,25.4,6.7,26.4,5.9z"
								/>
							<path class="st13" d="M31.1,8.7c-0.3,0.3-1,0.1-1.6-0.5S28.7,7,29,6.7c0.3-0.3,1-0.1,1.6,0.5C31.2,7.7,31.4,8.4,31.1,8.7z"/>
						</g>
						<g>
							<path class="st10" d="M47.3,9.7c0,2.7-2.2,4.9-4.9,4.9c-2.7,0-4.9-2.2-4.9-4.9c0-2.7,2.2-4.9,4.9-4.9
								C45.1,4.9,47.3,7,47.3,9.7z"/>
							<path class="st11" d="M43.4,13.4c-2.7,0-4.9-2.2-4.9-4.9c0-0.9,0.2-1.7,0.7-2.4c-1,0.9-1.7,2.2-1.7,3.6
								c0,2.7,2.2,4.9,4.9,4.9c1.8,0,3.4-1,4.2-2.5C45.7,12.9,44.6,13.4,43.4,13.4z"/>
							<path class="st12" d="M40.8,5.9c0,0,2.6-1.1,4.6,0.9c1.3,1.4,1.8,4,0.4,5c-1.4,1-4.5,0-5.2-1.6C39.9,8.5,39.8,6.7,40.8,5.9z"
								/>
							<path class="st13" d="M45.5,8.7c-0.3,0.3-1,0.1-1.6-0.5c-0.6-0.6-0.8-1.3-0.5-1.6c0.3-0.3,1-0.1,1.6,0.5
								C45.6,7.7,45.8,8.4,45.5,8.7z"/>
						</g>
						<g>
							<path class="st10" d="M61.7,9.7c0,2.7-2.2,4.9-4.9,4.9c-2.7,0-4.9-2.2-4.9-4.9c0-2.7,2.2-4.9,4.9-4.9
								C59.5,4.9,61.7,7,61.7,9.7z"/>
							<path class="st11" d="M57.8,13.4c-2.7,0-4.9-2.2-4.9-4.9c0-0.9,0.2-1.7,0.7-2.4c-1,0.9-1.7,2.2-1.7,3.6
								c0,2.7,2.2,4.9,4.9,4.9c1.8,0,3.4-1,4.2-2.5C60.2,12.9,59,13.4,57.8,13.4z"/>
							<path class="st12" d="M55.2,5.9c0,0,2.6-1.1,4.6,0.9c1.3,1.4,1.8,4,0.4,5c-1.4,1-4.5,0-5.2-1.6C54.3,8.5,54.2,6.7,55.2,5.9z"
								/>
							<path class="st13" d="M59.9,8.7c-0.3,0.3-1,0.1-1.6-0.5c-0.6-0.6-0.8-1.3-0.5-1.6c0.3-0.3,1-0.1,1.6,0.5
								C60,7.7,60.2,8.4,59.9,8.7z"/>
						</g>
					</g>
				</g>
				<path class="st10" d="M84.1,77.9c0,23.2-18.8,42.1-42.1,42.1C18.8,119.9,0,101.1,0,77.9c0-23.2,18.8-42.1,42.1-42.1
					C65.3,35.8,84.1,54.6,84.1,77.9z"/>
				<path class="st11" d="M54.7,108c-23.2,0-42.1-18.8-42.1-42.1c0-8.9,2.8-17.1,7.4-23.9C8.1,49.4,0,62.7,0,77.9
					c0,23.2,18.8,42.1,42.1,42.1c14.4,0,27-7.2,34.6-18.2C70.3,105.7,62.8,108,54.7,108z"/>
				<path class="st12" d="M33.8,41.9c0,0,20.9-3.6,36.4,13.1c10.9,12.8,7.8,30.3,5.3,37c-2.5,6.7-21.1,11.4-35.6,3.9
					C25.5,88.3,9.1,50.5,33.8,41.9z"/>
				<path class="st13" d="M71.2,69c-2.4,2.3-8.5-0.2-13.6-5.6c-5.1-5.4-7.4-11.6-5-13.9c2.4-2.3,8.5,0.3,13.6,5.6
					C71.3,60.5,73.6,66.7,71.2,69z"/>
			</g>
			<g>
				<g>
					<g>
						<path class="st14" d="M5.1,114c-0.2,0-0.4,0.4-0.2,0.4C5.1,114.4,5.3,114,5.1,114z"/>
					</g>
				</g>
				<g>
					<g>
						<path class="st14" d="M79.9,114c0.2,0,0.4,0.4,0.2,0.4C79.9,114.4,79.7,114,79.9,114z"/>
					</g>
				</g>
			</g>
		</g>
	</g>
</g>
<g>
	<g>
		<path class="st15" d="M28.1,64.4c0,1.4-0.4,2.9-1.2,4.5c-0.9,1.9-2,2.9-3.3,2.9c-0.6,0-1.7-0.3-3.3-0.9c-1.7-0.7-2.6-1.2-2.6-1.7
			c0-0.1,0-0.2,0.1-0.3h0.4c1.3,0.6,2.3,0.9,2.9,0.9c0.8,0,1.9-0.6,3.3-1.8c1.4-1.2,2.1-2.2,2.1-2.9c0-0.4-0.9-1.5-2.6-3.2
			c0.2-0.7,0.6-1.7,1.2-3.1c1,0.9,1.8,1.8,2.2,2.5C27.8,62.2,28.1,63.2,28.1,64.4z"/>
		<path class="st15" d="M36,66.9h-4.6l-1-11.8c0-0.1,0.3-0.6,0.9-1.4c0.6-0.7,0.9-1.2,1.1-1.4c0.1,1.8,0.2,3.6,0.4,5.5
			c0.2,2.4,0.4,4.2,0.7,5.3c0.1,0.3,0.4,0.5,1,0.5H36V66.9z"/>
		<path class="st15" d="M51.9,66.9H34.7v-3.3h1.5c0.8,0,1.3-0.3,1.3-0.8c0-0.8-0.3-2.9-0.8-6.3c0-0.3-0.2-0.5-0.4-0.8
			c-0.2-0.2-0.3-0.5-0.3-0.7c0-0.5,0.6-1.5,1.8-2.9c0.1,0.2,0.3,0.5,0.5,0.9c0.6,0.9,1.5,1.6,2.9,2.1c-0.2,0.5-0.5,1.1-0.7,1.6
			c-0.4,0.6-0.8,1-1.3,1c0,0.1,0,0.3,0,0.4c0,0.2,0.1,0.3,0.1,0.4v1.5c0,0.2-0.1,0.5-0.3,1c-0.2,0.5-0.3,0.8-0.3,1v0.1
			c1.2-0.7,2.6-1.5,4.2-2.2c2.1-1,3.5-1.5,4.3-1.5c0.6,0,1.4,0.5,2.4,1.4c1,0.9,1.5,1.7,1.5,2.3c0,0-0.2,0.4-0.5,1.1h1.3V66.9z
			 M48.2,63.7c-0.2-0.5-0.6-1-1.2-1.4c-0.6-0.4-1.2-0.6-1.8-0.6c-1.3,0-3,0.7-5.2,2.1H48.2z"/>
		<path class="st15" d="M62.5,62.5c0,0.5-0.1,1.2-0.2,2.3c-0.2,1.2-0.4,1.9-0.5,2.1H51.1v-3.3h9.5c0,0,0,0,0,0v-0.1
			c0-0.3-0.1-0.7-0.2-1.1c-0.1-0.5-0.3-0.9-0.5-1c-0.7,1-1.6,1.4-2.8,1.4c-0.7,0-1.3-0.2-1.9-0.5c-0.7-0.4-1-0.9-1-1.6
			c0-0.9,0.6-2,1.7-3.3c1.1-1.3,2.2-1.9,3.1-1.9c1,0,1.9,0.9,2.6,2.8C62.3,59.9,62.5,61.2,62.5,62.5z M60.3,52.8
			c-0.4,0.5-1,1.2-1.9,2l-2.6-1.3c-0.3,0.2-0.7,0.7-1.4,1.3c-0.4,0-1.2-0.5-2.6-1.4c0.5-0.6,1.1-1.3,1.9-2c1.2,0.9,2,1.3,2.3,1.3
			c1-0.9,1.5-1.3,1.6-1.3c0.1,0,0.5,0.2,1.3,0.7C59.9,52.4,60.3,52.7,60.3,52.8z M59,59.7c0-0.2-0.2-0.4-0.6-0.8
			c-0.4-0.4-0.7-0.5-0.9-0.5c-0.3,0-0.7,0.3-1,0.8c0.5,0.5,1,0.8,1.5,0.8C58.3,59.9,58.6,59.8,59,59.7z"/>
		<path class="st15" d="M21.8,84.4c-0.1,0.2-0.4,0.6-0.9,1.1c-0.5,0.6-0.8,0.9-0.9,0.9c-0.3,0-1.1-0.4-2.5-1.3
			c-0.2,0.1-0.7,0.5-1.4,1.2c-0.6-0.2-1.4-0.6-2.5-1.3c0.2-0.2,0.8-0.9,1.8-2c1.2,0.8,1.9,1.3,2.3,1.3c0,0,0.5-0.4,1.6-1.3
			L21.8,84.4z M27.2,97.9h-3.1c-0.6,0-1.1-0.4-1.5-1.1c-0.2-0.6-0.4-1.3-0.6-1.9c-0.1,0.1-0.4,0.6-0.9,1.4c-0.4,0.7-0.8,1.1-1,1
			l-5.4-1c0.4-1.8,0.8-3,1.2-3.6c0.4-0.7,0.9-1.2,1.7-1.7c1.1-0.6,2.2-1.2,3.3-1.9c-0.1-0.3-0.2-0.6-0.3-0.9l1.8-3.1l0.1,0.1
			c0.2,0.7,0.5,2.2,0.8,4.5c0.3,2,0.6,3.4,0.9,4.2c0.2,0.5,0.6,0.7,1.4,0.7h1.5V97.9z M21.7,93.3l-0.5-2.6c-0.3,0.4-0.7,0.9-1.4,1.5
			c-0.3,0.1-0.7,0.4-1.1,0.8L21.7,93.3z"/>
		<path class="st15" d="M38.5,97.9h-2.2c-0.1,0.1-0.3,0.4-0.4,0.8c-0.2,0.4-0.4,0.6-0.6,0.7l-5.8-3.2c-0.1,0.1-0.3,0.4-0.5,1
			c-0.2,0.5-0.5,0.7-0.8,0.7H26v-3.3h3.1c0.1-0.1,0.4-0.5,0.7-1.1c0.3-0.6,0.6-1,0.8-1.2c0.5-0.5,1.2-1,2-1.4
			c0.8-0.4,1.5-0.6,2.2-0.6c0.3,0,0.5,0,0.6,0.1c0.1,0.1,0.2,0.3,0.2,0.5c0,0.7,0.1,1.4,0.5,2.2c0.4,1,0.9,1.4,1.6,1.4h0.8V97.9z
			 M33.8,94.5v-0.6c0-0.5-0.3-0.7-0.9-0.7c-0.4,0-0.8,0.1-1.1,0.3c0.3,0.2,0.6,0.4,0.9,0.6C33.3,94.4,33.6,94.5,33.8,94.5z"/>
		<path class="st15" d="M44.2,97.9h-2.6c0-0.3-0.1-0.5-0.3-0.8c-0.1,0.1-0.3,0.2-0.5,0.5c-0.2,0.3-0.4,0.4-0.6,0.4h-2.6v-3.3h3.4
			c0.3-0.5,0.4-1,0.4-1.6c0-0.3,0.3-0.8,0.9-1.4c0.6-0.7,1-1.1,1.3-1.2l0.1,0.8c0,0.5-0.3,1.7-0.9,3.4h1.5V97.9z"/>
		<path class="st15" d="M56.8,97.9H43.1v-3.3h0.7c4.3-2.9,7.3-4.3,9-4.3c0.8,0,1.6,0.3,2.3,1c0.7,0.7,1.1,1.4,1.1,2.2
			c0,0.1-0.1,0.5-0.3,1.1c0.1,0,0.4,0,1.1,0V97.9z M53.2,94.6c-0.2-0.5-0.6-0.9-1.2-1.2c-0.5-0.3-1.1-0.5-1.6-0.5
			c-0.6,0-1.3,0.2-2.2,0.6c-0.7,0.4-1.3,0.7-2,1H53.2z M51.6,85.3c-1.4,1.5-2.2,2.3-2.3,2.3c-0.1,0-0.5-0.2-1.2-0.7
			c-0.7-0.4-1.1-0.8-1.4-0.9c0.1-0.2,0.5-0.6,1.2-1.3c0.7-0.7,1-1,1.1-1C49,83.7,49.9,84.2,51.6,85.3z"/>
		<path class="st15" d="M62.9,86.8l-2.3,3l0.4,4.1c0,0.3,0,0.9-0.3,1.9c-0.2,1-0.4,1.6-0.5,1.8c0,0.1-0.2,0.2-0.5,0.3h-4v-3.3h3.1
			c0.1-0.1,0.1-0.2,0.1-0.3c0-0.6-0.1-1.7-0.4-3.3c-0.3-1.7-0.5-2.7-0.7-3.2c-0.3-0.2-0.6-0.5-0.9-0.9c0.8-1.6,1.5-2.8,2.1-3.5
			l0.2,0.1c0,0.4,0.1,0.7,0.2,1c0.1,0.3,0.6,0.7,1.6,1.3C61.7,86.2,62.3,86.6,62.9,86.8z"/>
		<path class="st15" d="M68.5,93c0,2-0.6,3.7-1.7,5.1l-1.3-9.7c0.4-1.1,1.1-2.4,2.2-3.9C68.2,88.5,68.5,91.3,68.5,93z"/>
	</g>
</g>
</svg>
