<?xml version="1.0" encoding="utf-8"?>
<!-- Generator: Adobe Illustrator 22.1.0, SVG Export Plug-In . SVG Version: 6.00 Build 0)  -->
<svg version="1.1" id="Layer_1" xmlns="http://www.w3.org/2000/svg" xmlns:xlink="http://www.w3.org/1999/xlink" x="0px" y="0px"
	 viewBox="0 0 98.9 46" style="enable-background:new 0 0 98.9 46;" xml:space="preserve">
<style type="text/css">
	.st0{fill:#BCE6F5;}
	.st1{fill:#9FDBE8;}
	.st2{fill:#D6EFF7;}
	.st3{fill:#F3FAFD;}
</style>
<g>
	<path class="st0" d="M91.1,46H17.9c0,0-15.5,0.7-17.8-13.3c-2.2-14,17.5-15.5,23.6-10.1C21.5,11.1,31.8,0,46.2,0
		s24.4,10.1,24.4,19.9c6.4-5.2,13.9-3.2,15.8-1.2c1.9,2,4.2,6.6-0.3,12.5c4.7,0,13-1.5,12.8,9.1C98.4,43.8,95,46,91.1,46z"/>
	<path class="st1" d="M62.5,5.2C58.3,2.1,52.7,0,46.2,0C31.8,0,21.5,11.1,23.7,22.6C23.7,22.6,33.8-4.4,62.5,5.2z"/>
	<path class="st1" d="M98.2,42.3c-11.2,4.3-55.5,1.2-69.6,0.6c-16.5-0.7-23.5-5.4-24-12.8c-0.4-7.1,6.8-9.6,10-10.4
		c-7.5-0.2-15.9,3.6-14.4,13C2.4,46.7,17.9,46,17.9,46h73.2C94.2,46,96.9,44.6,98.2,42.3z"/>
	<path class="st2" d="M78.8,41.9c0,0-50.5-1.3-56.2-2.6c-5.7-1.3-13.7-3.1-14.1-11.1c-0.4-6.6,11.3-8.1,16.6-2.3
		c3.1-5.3,11.6-20,26.1-18.7C64.3,8.6,68.6,16.8,69,25.5c2.2-2.4,7.4-7.1,12.6-5.8c5.2,1.3,3.9,10,0.4,14.2c0,0,10.9-3.2,13.5,3.2
		C96.1,39.9,90.4,42.4,78.8,41.9z"/>
	<path class="st3" d="M63.8,15.6c1.7,2.6,2.2,5.3,0.9,5.9c-1.2,0.6-3.6-1-5.4-3.6c-1.7-2.6-2.2-5.3-0.9-5.9
		C59.7,11.3,62.1,12.9,63.8,15.6z"/>
	<path class="st3" d="M83.6,25.3c0,1.9-0.9,3.5-2,3.5c-1.1,0-1.9-1.6-1.9-3.5c0-1.9,0.9-3.5,2-3.5C82.8,21.8,83.6,23.4,83.6,25.3z"
		/>
	<path class="st3" d="M20.9,24.4c1.7,0.8,2.8,1.9,2.5,2.4c-0.3,0.5-1.9,0.2-3.6-0.6c-1.7-0.8-2.8-1.9-2.5-2.4
		C17.6,23.3,19.3,23.6,20.9,24.4z"/>
	<path class="st3" d="M92.6,35.4c1.1,0.8,1.7,1.8,1.3,2.2c-0.4,0.4-1.6,0.2-2.7-0.6c-1.1-0.8-1.7-1.8-1.3-2.2
		C90.3,34.4,91.5,34.6,92.6,35.4z"/>
</g>
</svg>
