<?xml version="1.0" encoding="utf-8"?>
<!-- Generator: Adobe Illustrator 22.1.0, SVG Export Plug-In . SVG Version: 6.00 Build 0)  -->
<svg version="1.1" id="Layer_1" xmlns="http://www.w3.org/2000/svg" xmlns:xlink="http://www.w3.org/1999/xlink" x="0px" y="0px"
	 viewBox="0 0 76 39.9" style="enable-background:new 0 0 76 39.9;" xml:space="preserve">
<style type="text/css">
	.st0{fill:#BCE6F5;}
	.st1{fill:#9FDBE8;}
	.st2{fill:#D6EFF7;}
	.st3{fill:#F3FAFD;}
</style>
<g>
	<path class="st0" d="M70,39.8H13.8c0,0-11.9,0.6-13.6-11.5c-1.7-12.1,13.4-13.4,18.1-8.7C16.5,9.6,24.4,0,35.5,0
		c11.1,0,18.8,8.7,18.8,17.3c4.9-4.5,10.7-2.8,12.1-1.1c1.5,1.7,3.2,5.8-0.2,10.9c3.6,0,10-1.3,9.8,7.9C75.6,37.9,73,39.8,70,39.8z"
		/>
	<path class="st1" d="M48,4.5C44.8,1.8,40.5,0,35.5,0c-11.1,0-19,9.6-17.3,19.6C18.2,19.6,26-3.8,48,4.5z"/>
	<path class="st1" d="M75.5,36.6c-8.6,3.8-42.7,1-53.5,0.5C9.4,36.6,4,32.5,3.5,26.1c-0.3-6.1,5.2-8.3,7.7-9
		C5.4,16.9-1,20.2,0.1,28.3c1.7,12.1,13.6,11.5,13.6,11.5H70C72.4,39.8,74.5,38.6,75.5,36.6z"/>
	<path class="st2" d="M60.5,36.3c0,0-38.8-1.1-43.2-2.2C12.9,33,6.8,31.4,6.5,24.5c-0.3-5.7,8.7-7,12.8-2c2.4-4.6,9-17.3,20-16.2
		C49.4,7.4,52.7,14.6,53,22.1c1.7-2.1,5.7-6.1,9.7-5c4,1.1,3,8.7,0.3,12.3c0,0,8.4-2.8,10.4,2.8C73.9,34.5,69.5,36.8,60.5,36.3z"/>
	<path class="st3" d="M49,13.5c1.3,2.3,1.7,4.6,0.7,5.1c-0.9,0.6-2.8-0.9-4.1-3.1c-1.3-2.3-1.7-4.6-0.7-5.1
		C45.8,9.8,47.7,11.2,49,13.5z"/>
	<path class="st3" d="M64.2,21.9c0,1.7-0.7,3-1.5,3c-0.8,0-1.5-1.4-1.4-3c0-1.7,0.7-3,1.5-3C63.6,18.9,64.2,20.3,64.2,21.9z"/>
	<path class="st3" d="M16.1,21.1c1.3,0.7,2.1,1.6,1.9,2c-0.2,0.4-1.5,0.2-2.8-0.5c-1.3-0.7-2.1-1.6-1.9-2
		C13.6,20.2,14.8,20.4,16.1,21.1z"/>
	<path class="st3" d="M71.2,30.7c0.8,0.7,1.3,1.5,1,1.9c-0.3,0.4-1.2,0.2-2.1-0.5c-0.8-0.7-1.3-1.5-1-1.9
		C69.4,29.8,70.3,30,71.2,30.7z"/>
</g>
</svg>
