<?xml version="1.0" encoding="utf-8"?>
<!-- Generator: Adobe Illustrator 21.0.0, SVG Export Plug-In . SVG Version: 6.00 Build 0)  -->
<svg version="1.1" id="Isolation_Mode" xmlns="http://www.w3.org/2000/svg" xmlns:xlink="http://www.w3.org/1999/xlink" x="0px"
	 y="0px" viewBox="0 0 93.5 93.6" style="enable-background:new 0 0 93.5 93.6;" xml:space="preserve">
<style type="text/css">
	.st0{opacity:0.19;}
	.st1{fill:#010101;}
	.st2{opacity:0.6;fill:#FF6700;}
	.st3{fill:#FDC20F;}
	.st4{fill:#F99D1C;}
	.st5{fill:#FFD215;}
	.st6{fill:#FFE36F;}
	.st7{fill:#FFFFFF;}
</style>
<g id="Layer_1">
	<g>
		<g>
			<g class="st0">
				<path class="st1" d="M76.9,44.6c-2.4,2.3-8.5-0.2-13.6-5.6s-7.4-11.6-5-13.9c2.4-2.3,8.5,0.3,13.6,5.6
					C77.1,36.1,79.3,42.3,76.9,44.6z"/>
				<path class="st1" d="M10.9,89.6c-0.2,0-0.4,0.4-0.2,0.4C10.9,90,11.1,89.6,10.9,89.6z"/>
				<path class="st1" d="M85.7,89.6c0.2,0,0.4,0.4,0.2,0.4C85.7,90,85.4,89.6,85.7,89.6z"/>
			</g>
			<g>
				<g>
					<g>
						<path class="st2" d="M93.5,46.8c0,25.8-20.9,46.8-46.8,46.8C20.9,93.5,0,72.6,0,46.8S20.9,0,46.8,0
							C72.6,0,93.5,20.9,93.5,46.8z"/>
						<path class="st3" d="M89.8,46.5c0,23.2-18.8,42.1-42.1,42.1c-23.2-0.1-42-18.9-42-42.1S24.5,4.4,47.8,4.4
							C71.1,4.4,89.8,23.2,89.8,46.5z"/>
						<path class="st4" d="M60.5,76.6c-23.2,0-42.1-18.8-42.1-42.1c0-8.9,2.8-17.1,7.4-23.9c-11.9,7.4-20,20.7-20,35.9
							c0,23.2,18.8,42.1,42.1,42.1c14.4,0,27-7.2,34.6-18.2C76.1,74.3,68.6,76.6,60.5,76.6z"/>
						<path class="st5" d="M39.5,10.5c0,0,20.9-3.6,36.4,13.1c10.9,12.8,7.8,30.3,5.3,37S60.2,72,45.7,64.5
							C31.3,56.9,14.9,19.1,39.5,10.5z"/>
						<path class="st6" d="M76.9,37.6c-2.4,2.3-8.5-0.2-13.6-5.6s-7.4-11.6-5-13.9c2.4-2.3,8.5,0.3,13.6,5.6
							C77.1,29.1,79.3,35.3,76.9,37.6z"/>
					</g>
					<g>
						<g>
							<g>
								<path class="st7" d="M10.9,82.6c-0.2,0-0.4,0.4-0.2,0.4C10.9,83,11.1,82.6,10.9,82.6z"/>
							</g>
						</g>
						<g>
							<g>
								<path class="st7" d="M85.7,82.6c0.2,0,0.4,0.4,0.2,0.4C85.7,83,85.4,82.6,85.7,82.6z"/>
							</g>
						</g>
					</g>
				</g>
			</g>
		</g>
	</g>
	<g>
		<path class="st7" d="M25.4,47.3h4.8l1.8,17.2c0.1,0.7,0.7,1.3,1.4,1.3H41c0.7,0,1.3-0.6,1.2-1.3l-0.4-7c-0.2-2.5,1.5-4.7,4-5.1
			l2.7-0.5c3-0.6,5.9,1.7,5.9,4.8v8c0,0.7,0.5,1.2,1.2,1.2h6.5c0.7,0,1.4-0.6,1.4-1.3l1.8-17.2h4.8c2.4,0,3.6-2.9,1.9-4.6L52.7,23.2
			c-2.7-2.7-7-2.7-9.7,0L23.5,42.6C21.8,44.4,23,47.3,25.4,47.3z"/>
	</g>
</g>
</svg>
