<?xml version="1.0" encoding="utf-8"?>
<!-- Generator: Adobe Illustrator 22.1.0, SVG Export Plug-In . SVG Version: 6.00 Build 0)  -->
<svg version="1.1" id="Layer_1" xmlns="http://www.w3.org/2000/svg" xmlns:xlink="http://www.w3.org/1999/xlink" x="0px" y="0px"
	 viewBox="0 0 1024 5" style="enable-background:new 0 0 1024 5;" xml:space="preserve">
<style type="text/css">
	.st0{fill:#A54F24;}
	.st1{fill:#7D3124;}
	.st2{fill:#231F20;}
</style>
<g>
	<g>
		<g>
			<g>
				<rect class="st0" width="1024" height="2.5"/>
				<rect y="1.8" class="st1" width="1024" height="0.7"/>
			</g>
		</g>
	</g>
	<g>
		<g>
			<g>
				<g>
					<rect x="77.1" y="2.5" class="st2" width="10.7" height="2.5"/>
				</g>
			</g>
		</g>
		<g>
			<g>
				<g>
					<rect x="104.9" y="2.5" class="st2" width="10.7" height="2.5"/>
				</g>
			</g>
		</g>
		<g>
			<g>
				<g>
					<rect x="132.6" y="2.5" class="st2" width="10.7" height="2.5"/>
				</g>
			</g>
		</g>
		<g>
			<g>
				<g>
					<rect x="160.4" y="2.5" class="st2" width="10.7" height="2.5"/>
				</g>
			</g>
		</g>
		<g>
			<g>
				<g>
					<rect x="188.2" y="2.5" class="st2" width="10.7" height="2.5"/>
				</g>
			</g>
		</g>
		<g>
			<g>
				<g>
					<rect x="216" y="2.5" class="st2" width="10.7" height="2.5"/>
				</g>
			</g>
		</g>
		<g>
			<g>
				<g>
					<rect x="243.8" y="2.5" class="st2" width="10.7" height="2.5"/>
				</g>
			</g>
		</g>
		<g>
			<g>
				<g>
					<rect x="271.6" y="2.5" class="st2" width="10.7" height="2.5"/>
				</g>
			</g>
		</g>
		<g>
			<g>
				<g>
					<rect x="299.4" y="2.5" class="st2" width="10.7" height="2.5"/>
				</g>
			</g>
		</g>
		<g>
			<g>
				<g>
					<rect x="327.1" y="2.5" class="st2" width="10.7" height="2.5"/>
				</g>
			</g>
		</g>
		<g>
			<g>
				<g>
					<rect x="354.9" y="2.5" class="st2" width="10.7" height="2.5"/>
				</g>
			</g>
		</g>
		<g>
			<g>
				<g>
					<rect x="382.7" y="2.5" class="st2" width="10.7" height="2.5"/>
				</g>
			</g>
		</g>
		<g>
			<g>
				<g>
					<rect x="410.5" y="2.5" class="st2" width="10.7" height="2.5"/>
				</g>
			</g>
		</g>
		<g>
			<g>
				<g>
					<rect x="439.3" y="2.5" class="st2" width="10.7" height="2.5"/>
				</g>
			</g>
		</g>
		<g>
			<g>
				<g>
					<rect x="468.2" y="2.5" class="st2" width="10.7" height="2.5"/>
				</g>
			</g>
		</g>
		<g>
			<g>
				<g>
					<rect x="497" y="2.5" class="st2" width="10.7" height="2.5"/>
				</g>
			</g>
		</g>
		<g>
			<g>
				<g>
					<rect x="525.8" y="2.5" class="st2" width="10.7" height="2.5"/>
				</g>
			</g>
		</g>
		<g>
			<g>
				<g>
					<rect x="554.7" y="2.5" class="st2" width="10.7" height="2.5"/>
				</g>
			</g>
		</g>
		<g>
			<g>
				<g>
					<rect x="583.5" y="2.5" class="st2" width="10.7" height="2.5"/>
				</g>
			</g>
		</g>
		<g>
			<g>
				<g>
					<rect x="612.3" y="2.5" class="st2" width="10.7" height="2.5"/>
				</g>
			</g>
		</g>
		<g>
			<g>
				<g>
					<rect x="641.2" y="2.5" class="st2" width="10.7" height="2.5"/>
				</g>
			</g>
		</g>
		<g>
			<g>
				<g>
					<rect x="670" y="2.5" class="st2" width="10.7" height="2.5"/>
				</g>
			</g>
		</g>
		<g>
			<g>
				<g>
					<rect x="698.8" y="2.5" class="st2" width="10.7" height="2.5"/>
				</g>
			</g>
		</g>
		<g>
			<g>
				<g>
					<rect x="727.7" y="2.5" class="st2" width="10.7" height="2.5"/>
				</g>
			</g>
		</g>
		<g>
			<g>
				<g>
					<rect x="756.5" y="2.5" class="st2" width="10.7" height="2.5"/>
				</g>
			</g>
		</g>
		<g>
			<g>
				<g>
					<rect x="785.3" y="2.5" class="st2" width="10.7" height="2.5"/>
				</g>
			</g>
		</g>
		<g>
			<g>
				<g>
					<rect x="814.2" y="2.5" class="st2" width="10.7" height="2.5"/>
				</g>
			</g>
		</g>
		<g>
			<g>
				<g>
					<rect x="843" y="2.5" class="st2" width="10.7" height="2.5"/>
				</g>
			</g>
		</g>
		<g>
			<g>
				<g>
					<rect x="871.8" y="2.5" class="st2" width="10.7" height="2.5"/>
				</g>
			</g>
		</g>
		<g>
			<g>
				<g>
					<rect x="900.7" y="2.5" class="st2" width="10.7" height="2.5"/>
				</g>
			</g>
		</g>
		<g>
			<g>
				<g>
					<rect x="929.5" y="2.5" class="st2" width="10.7" height="2.5"/>
				</g>
			</g>
		</g>
		<g>
			<g>
				<g>
					<rect x="49.8" y="2.5" class="st2" width="10.7" height="2.5"/>
				</g>
			</g>
		</g>
		<g>
			<g>
				<g>
					<rect y="2.5" class="st2" width="5.2" height="2.5"/>
				</g>
			</g>
		</g>
		<g>
			<g>
				<g>
					<rect x="22.3" y="2.5" class="st2" width="10.7" height="2.5"/>
				</g>
			</g>
		</g>
		<g>
			<g>
				<g>
					<rect x="957.3" y="2.5" class="st2" width="10.7" height="2.5"/>
				</g>
			</g>
		</g>
		<g>
			<g>
				<g>
					<rect x="985.1" y="2.5" class="st2" width="10.7" height="2.5"/>
				</g>
			</g>
		</g>
		<g>
			<g>
				<g>
					<rect x="1012.8" y="2.5" class="st2" width="10.7" height="2.5"/>
				</g>
			</g>
		</g>
	</g>
</g>
</svg>
