<?xml version="1.0" encoding="utf-8"?>
<!-- Generator: Adobe Illustrator 22.1.0, SVG Export Plug-In . SVG Version: 6.00 Build 0)  -->
<svg version="1.1" id="Layer_1" xmlns="http://www.w3.org/2000/svg" xmlns:xlink="http://www.w3.org/1999/xlink" x="0px" y="0px"
	 viewBox="0 0 387.8 30.2" style="enable-background:new 0 0 387.8 30.2;" xml:space="preserve">
<style type="text/css">
	.st0{fill:#292562;}
</style>
<g>
	<g>
		<path class="st0" d="M3.4,18.3l-1.2,1.8L0,18.5l1.3-1.7C1.8,17.1,2.5,17.6,3.4,18.3z"/>
		<path class="st0" d="M14,17.8c0,0.8-0.1,1.6-0.4,2.1c-0.8,2.1-1.9,3.5-3.3,4.1c-0.4,0.2-0.7,0.3-1,0.3c-0.3,0-0.7-0.1-1.1-0.2
			c-1-0.3-1.6-0.5-1.7-0.6c-0.8-0.3-1.4-0.7-1.9-1.1v-0.3c0-0.1,0.1-0.1,0.2-0.1c0,0,0.4,0.1,1,0.4c0.6,0.2,1,0.4,1.3,0.5
			C7.3,23,7.5,23,7.7,23c0.5,0,1.2-0.3,2.1-0.8c0.5-0.3,1.2-0.9,1.8-1.6c0.7-0.7,1.1-1.3,1.3-1.8c0.2-0.5,0.3-0.8,0.3-1
			c0-0.2,0-0.2,0-0.3c0-0.3-0.4-0.8-0.9-1.4c-0.1-0.1-0.6-0.4-1.5-1.1c0.1-0.5,0.3-1.3,0.5-2.2c0.7,0.4,1.3,1,1.8,1.8
			c0.5,0.7,0.8,1.4,0.8,2.1C14,17.1,14,17.5,14,17.8z"/>
		<path class="st0" d="M21.7,20h-3.9L16.7,6.5c0-0.3,0-0.4,0-0.4c0.2-0.3,0.6-0.8,1.3-1.7c0.1,0.5,0.2,2.7,0.5,6.5
			c0.2,2.1,0.4,4.2,0.7,6.3c0.1,0.6,0.8,0.9,2,0.9h0.4V20z"/>
		<path class="st0" d="M37.1,20H20.8v-1.9h2.7c0.3,0,0.7-0.1,1.1-0.2c0.5-0.2,0.8-0.5,0.8-0.8c0,0,0-0.3-0.1-0.9
			c-0.1-0.6-0.1-1-0.1-1.3c0-0.3-0.1-0.7-0.1-1.3c-0.1-1.2-0.2-2.9-0.5-5C24.4,8.5,24.2,8.3,24,8c0,0,0-0.1,0-0.3
			c0-0.2,0.1-0.4,0.2-0.6c0.2-0.5,0.7-1.2,1.3-2.1c0.1,0,0.2,0.1,0.3,0.2c-0.1,0.5-0.2,0.7-0.2,0.7c0,0.2,0.1,0.3,0.3,0.4
			c0.4,0.2,0.9,0.5,1.7,1l-1.1,2.3c0,0-0.1,0-0.1,0c-0.1,0-0.1,0-0.1,0l0.2,4c0,0,0,0.2,0,0.5c0,0.3,0,0.5,0,0.7
			c0,0.5-0.1,1-0.2,1.5c-0.1,0.6-0.2,1.1-0.2,1.2c0.6-0.2,1.6-0.9,3-2c1.3-1,2.4-1.7,3.3-2c0,0,0.2,0,0.5,0c0.7,0,1.4,0.4,2.3,1.1
			c0.9,0.7,1.3,1.5,1.3,2.2c0,0.1-0.2,0.6-0.5,1.5h1.4V20z M34.7,17.7c0-0.3-0.2-0.7-0.7-1.3c-0.5-0.4-0.9-0.7-1.3-0.9
			c-0.4-0.2-0.7-0.2-1.1-0.2c-0.3,0-0.6,0.1-0.9,0.2c-0.5,0.1-1.1,0.6-2.1,1.4c-0.9,0.8-1.5,1.2-1.9,1.3H33c0.2,0,0.6,0,1.1-0.1
			C34.3,18,34.5,17.9,34.7,17.7z"/>
		<path class="st0" d="M46.9,20H36.3v-1.9h3.6c0-0.3,0.1-0.8,0.2-1.3c0.4-0.7,1.1-1.5,2.2-2.3c1.1-0.9,2-1.3,2.7-1.3
			c0.4,0,0.7,0.4,1,1.2c0.2,0.6,0.3,1.1,0.3,1.4c0,0.5-0.4,1.3-1.1,2.4h1.6V20z M45.8,9.1c-0.2,0.3-0.5,0.9-0.8,1.6l-2.2-1.2
			c-0.2,0.3-0.5,0.7-0.7,1.1c-0.5-0.3-1.3-0.7-2.3-1.3c0.2-0.3,0.5-0.9,0.9-1.7L43,9l0.7-1.2L45.8,9.1z M44.9,17.1
			c0-0.4-0.1-0.8-0.4-1.2c-0.3-0.4-0.6-0.6-1.1-0.6c-0.2,0-0.4,0-0.4,0c-0.3,0.1-0.6,0.2-0.9,0.4c-0.5,0.3-0.8,0.6-0.8,0.9
			c0,0.2,0.1,0.4,0.4,0.8c0.3,0.3,0.5,0.5,0.8,0.6c0.5,0.1,0.8,0.1,0.8,0.1c0.3,0,0.6-0.1,0.9-0.2C44.7,17.6,44.9,17.4,44.9,17.1z"
			/>
		<path class="st0" d="M52.7,8c-0.3,0.8-0.7,1.5-1.1,2.2l-0.1-0.1l0.6,6.3c0,0.3,0,0.6-0.1,1c-0.1,0.4-0.1,0.9-0.2,1.3
			c-0.1,0.5-0.3,0.9-0.5,1.3h-5v-1.9c3.6,0,5.1,0,4.6,0c0,0,0-0.1,0-0.2c0-0.1,0-0.3,0-0.5c0-0.2-0.1-0.8-0.2-1.9
			c-0.1-0.6-0.1-1.1-0.2-1.5c-0.1-1.1-0.3-2.6-0.7-4.6c-0.1-0.1-0.3-0.2-0.4-0.5c-0.1-0.1-0.1-0.2-0.1-0.4c0-0.2,0-0.3,0.1-0.5
			c0.2-0.5,0.6-1.2,1.2-2.1H51c0,0.1,0,0.2,0,0.4l-0.1,0.3c0,0.2,0.1,0.3,0.2,0.4C51.5,7.4,52,7.7,52.7,8z"/>
		<path class="st0" d="M57.4,16.6c0,1-0.3,2.1-0.9,3.3L55.3,7.9c0-0.6,0.5-1.6,1.5-3.2L57.4,16.6z"/>
		<path class="st0" d="M83.7,18c-0.2,0.5-0.5,1.1-1,2H64.5c0.2-0.9,0.3-1.6,0.6-2.3c0.2-0.5,0.6-1.1,1.2-1.7c0.6-0.6,1.1-1,1.6-1.1
			c0.4-0.1,0.9-0.1,1.6-0.2c0.7-0.1,1.5-0.2,2.2-0.2c1-0.2,1.7-0.5,2.1-1.1c0.2-0.2,0.3-0.6,0.3-1c0-0.2,0-0.4,0-0.5
			c0,0-0.1-0.2-0.3-0.6c0,0,0-0.1-0.1-0.2c0,0-0.2,0.3-0.6,0.9c-0.2,0.3-0.5,0.6-0.8,0.7C71.9,12.9,71.4,13,71,13
			c-1.1,0-1.8-0.4-2.2-1.1c-0.1-0.1-0.1-0.2-0.1-0.3c0-0.3,0.1-0.6,0.3-1.1c0.6-1.7,1.5-2.8,2.7-3.4c0.2-0.1,0.4-0.2,0.6-0.2
			c0.3,0,0.6,0.1,0.8,0.3c0.8,0.7,1.4,1.8,1.8,3.3c0.1,0.4,0.1,0.9,0.1,1.4c0,0.4,0,0.8-0.1,1.1c-0.1,0.2-0.2,0.5-0.3,0.8
			c-0.2,0.8-0.8,1.4-1.7,2c-0.7,0.5-1.5,0.7-2.4,0.8c-0.9,0.1-1.7,0.2-2.6,0.3c-0.9,0.2-1.6,0.6-1.9,1.2H83.7z M68,6.7l-0.9,1.7
			l-2.2-1.3l0.9-1.6L68,6.7z M73.3,10.5c-0.4-0.7-0.7-1.1-0.7-1.2c-0.3-0.4-0.7-0.6-1.1-0.6c0,0-0.2,0-0.3,0.1c-0.5,0.2-0.9,0.5-1,1
			C70,10,70,10.1,70,10.1c0,0.1,0,0.1,0,0.1c0.2,0.3,0.4,0.5,0.8,0.6c0.3,0.1,0.6,0.1,0.9,0.1c0.2,0,0.5,0,0.9-0.1
			C72.8,10.8,73,10.7,73.3,10.5z M77.9,22.9c-0.1,0.1-0.3,0.7-0.8,1.8l-2.2-1.2l-0.7,1.2l-2.4-1.4c0.1-0.3,0.4-0.9,0.9-1.8
			c0.3,0.2,1,0.5,2,1.2c0.2-0.2,0.4-0.6,0.8-1.2C76,21.9,76.8,22.3,77.9,22.9z"/>
		<path class="st0" d="M94.4,20h-3.9L89.4,6.5c0-0.3,0-0.4,0-0.4c0.2-0.3,0.6-0.8,1.3-1.7c0.1,0.5,0.2,2.7,0.5,6.5
			c0.2,2.1,0.4,4.2,0.7,6.3c0.1,0.6,0.8,0.9,1.9,0.9h0.4V20z"/>
		<path class="st0" d="M104.5,20h-0.8c0,0-0.1,0.4-0.3,1.2c-0.4,2.1-1.4,3.2-2.9,3.2c-1.1,0-2-0.4-2.7-1.2c-0.7-0.8-1-1.9-1-3.3
			h-2.9v-1.9h3.8c1.8-3.9,3.6-6,5.5-6.3c0.2,0.2,0.4,0.6,0.4,1.3c0,0.7-0.1,1.6-0.3,2.5c-0.3,1.2-0.6,2.1-1,2.5h2.4V20z M102.1,22.5
			c0.1-0.7-0.2-1.4-1.1-1.9c-0.7-0.5-1.5-0.7-2.4-0.7c-0.2,0-0.5,0.1-0.8,0.2c0.2,0.8,0.7,1.5,1.5,2c0.7,0.5,1.3,0.7,2,0.7
			C101.7,22.7,101.9,22.6,102.1,22.5z M102.3,14.9c0-0.1,0-0.2,0-0.5c0-0.2,0-0.4,0-0.5l0.1-0.1h-0.4c-1.1,0.7-2.2,2-3.2,3.8
			c0.3,0,0.7-0.1,1.2-0.3c0.7-0.2,1.3-0.5,1.8-0.9c0.1-0.1,0.3-0.2,0.4-0.3C102.2,15.8,102.3,15.4,102.3,14.9z"/>
		<path class="st0" d="M113.4,20h-1.7c-0.3,0-0.7-0.2-1.2-0.6c-0.2-0.1-0.3-0.3-0.5-0.6c-0.2,0.2-0.7,0.5-1.5,0.7
			c-0.9,0.3-1.5,0.4-2,0.4h-2.5v-1.9h2.8c0.2,0,0.8-0.1,1.7-0.2c0.1,0,0.3-0.1,0.7-0.3c-0.3-0.6-0.6-0.9-1-0.9c0,0-0.1,0-0.2,0
			c-0.1,0-0.2,0-0.3,0c-0.4,0-0.6-0.1-0.6-0.4c0-0.2,0.2-0.7,0.7-1.6c0.5-0.8,0.7-1.2,0.8-1.2c0.3-0.2,0.6-0.3,0.9-0.3
			c0.2,0,0.5,0.1,1,0.2c0.2,0,0.5,0.3,1.1,0.7c0.7,0.5,1,0.9,1,1.2c0,0.3-0.1,0.7-0.4,1.2c-0.3,0.5-0.6,0.9-0.9,1v0
			c0,0.3,0.4,0.4,1.1,0.4h1.1V20z"/>
		<path class="st0" d="M120.7,18.1h-0.6V20c-0.1,0,0,0,0.3,0c-0.3,0-0.8,0-1.4,0c-0.7,0-1.2,0-1.5,0c-0.1-0.2-0.3-0.4-0.5-0.6
			c-0.4,0.4-0.7,0.6-0.9,0.6h-3.7v-1.9h4.1c0.4,0,0.6-0.3,0.7-1c0-0.3,0-0.7,0-1c0.5-0.6,1.1-1.2,1.8-1.8c0,0.6-0.1,1.1-0.2,1.7
			c-0.1,0.8-0.3,1.5-0.6,1.8c0.1,0.2,0.5,0.3,1.1,0.3C119.8,18.1,120.2,18.1,120.7,18.1z"/>
		<path class="st0" d="M132.9,16.7c0,0.2,0,0.4-0.1,0.5c-0.2,0.4-0.6,1.2-1.2,2.3c0,0.1-0.2,0.2-0.3,0.3c-0.2,0.1-0.3,0.2-0.4,0.2
			h-11.4v-1.9h0.6c1.4-0.6,3.2-1.5,5.4-2.7c0.5-0.4,1.4-0.9,2.5-1.6c0.5-0.3,1-0.4,1.5-0.4c0.2,0,0.5,0.1,0.9,0.3
			c0.4,0.2,0.9,0.5,1.3,0.9c0.6,0.5,0.9,1,1,1.4C132.8,16.3,132.9,16.5,132.9,16.7z M125.2,9.8l-0.9,1.6l-2.1-1.3
			c0.1-0.2,0.2-0.4,0.4-0.8s0.4-0.7,0.5-0.8L125.2,9.8z M131.3,17.9v-0.4c0,0.1-0.1,0-0.2-0.3c-0.5-0.6-0.9-1-1.2-1.3
			c-0.2-0.1-0.4-0.2-0.7-0.3c-0.3-0.1-0.6-0.1-0.9-0.1c-0.4,0-0.8,0.1-1.2,0.2c-0.4,0.2-1,0.5-1.9,1.2c-0.9,0.6-1.5,1.1-2,1.3h7.3
			C130.7,18.1,130.9,18,131.3,17.9z"/>
		<path class="st0" d="M141.1,17.4c0,0.2,0,0.4-0.1,0.7c0,0.5-0.2,1.3-0.4,2.3c-0.4,1.2-0.9,2.3-1.6,3.2c-0.9,1.1-1.8,1.7-2.8,1.7
			c-0.3,0-0.6,0-0.9,0c-0.6-0.2-1.2-0.3-1.7-0.4c-1.2-0.3-1.9-0.6-2.2-0.8c0.1-0.2,0.2-0.3,0.3-0.3c0.1,0,0.5,0.1,1.2,0.2
			c0.8,0.2,1.2,0.2,1.2,0.2c0.6,0,1.3-0.3,2.1-0.8c2.6-1.7,3.9-3.3,3.9-4.8c0,0,0-0.1,0-0.3c0-0.2,0-0.4,0-0.5l-0.1-0.1
			c-0.6,1.2-1.3,1.8-2.2,1.8c-0.7,0-1.2-0.3-1.5-0.9c-0.3-0.5-0.4-1-0.4-1.6c0-0.6,0.4-1.4,1.1-2.6c0.7-1.1,1.3-1.7,1.8-1.7
			c0.3,0,0.6,0.3,1,0.8c0.3,0.5,0.5,0.8,0.6,1.1c0.1,0.2,0.2,0.6,0.4,1.1C141,16.4,141.1,17,141.1,17.4z M139.6,17
			c0-0.3-0.2-0.7-0.4-1.1c-0.3-0.6-0.6-0.9-1-0.9c-0.2,0-0.5,0.2-0.9,0.6c-0.4,0.4-0.6,0.7-0.6,0.9c0,0.3,0.2,0.6,0.7,0.8
			c0.3,0.1,0.6,0.2,1,0.2C138.9,17.4,139.3,17.2,139.6,17z"/>
		<path class="st0" d="M159.3,20h-1.6c-0.2,0.3-0.4,0.6-0.7,1.1c-0.5-0.3-1.2-0.6-2.1-1.1c-0.3-0.1-0.7-0.3-1.3-0.5
			c-0.2-0.1-0.7-0.4-1.2-0.7c-0.7-0.5-1-0.8-1-0.9c0,0,0.1-0.3,0.2-0.6c0.1-0.4,0.2-0.7,0.3-0.9v-0.1c-1.6,0.5-2.7,1.2-3.4,2
			l1.9,8.2c-0.1,0.8-0.2,1.5-0.3,1.8c-0.1,0.7-0.3,1.3-0.6,1.8c-0.1-0.7-0.2-1.8-0.5-3.2c-0.3-1.3-0.7-2.6-1-3.8
			c-0.5-1.9-0.7-3.2-0.7-4c0-0.3,0.1-0.8,0.3-1.4c0.5-1.2,1.4-2.2,2.8-3c1.2-0.5,2.4-1.1,3.5-1.6c0.2-0.1,0.5-0.2,0.9-0.3
			c0.2-0.1,0.4-0.1,0.8-0.1c0.3,0.5,0.6,1.4,1.1,2.7c0.3,1.1,0.8,1.9,1.3,2.3c0.1,0,0.2,0.2,0.3,0.3h0.8V20z M156.6,18.5
			c-0.3-0.6-0.5-1.2-0.8-1.8c-0.4-0.8-0.5-1.3-0.5-1.7h-0.3c-0.3,0-1,0.3-2.1,1.1c0.1,0.4,0.6,0.8,1.5,1.3
			C155,17.9,155.8,18.2,156.6,18.5z"/>
		<path class="st0" d="M166.5,18.1h-0.6V20c-0.1,0,0,0,0.3,0c-0.3,0-0.8,0-1.4,0c-0.7,0-1.2,0-1.5,0c-0.1-0.2-0.3-0.4-0.5-0.6
			c-0.4,0.4-0.7,0.6-0.9,0.6h-3.7v-1.9h4.1c0.4,0,0.6-0.3,0.7-1c0-0.3,0-0.7,0-1c0.5-0.6,1.1-1.2,1.8-1.8c0,0.6-0.1,1.1-0.2,1.7
			c-0.1,0.8-0.3,1.5-0.6,1.8c0.1,0.2,0.5,0.3,1.1,0.3C165.6,18.1,166.1,18.1,166.5,18.1z"/>
		<path class="st0" d="M179.4,20h-14.5v-1.9h1c1.2-1,2.7-2,4.7-3.1c2.1-1.1,3.6-1.7,4.5-1.7c0.7,0,1.4,0.4,2.3,1.1
			c0.9,0.7,1.3,1.5,1.3,2.2c0,0.1-0.2,0.6-0.7,1.5h1.3V20z M171.7,9.6c-0.4,0.7-0.7,1.2-0.9,1.6l-2.2-1.3c0.2-0.4,0.5-0.9,1-1.6
			L171.7,9.6z M177.1,17.8c0-0.5-0.3-1-1-1.6c-0.6-0.6-1.3-1-1.9-1c-0.7,0-1.6,0.4-2.8,1.2c-0.8,0.5-1.7,1.1-2.5,1.7h7.6
			C176.7,18.1,176.9,18,177.1,17.8z"/>
		<path class="st0" d="M184.8,8c-0.3,0.8-0.7,1.5-1.1,2.2l-0.1-0.1l0.6,6.3c0,0.3,0,0.6-0.1,1c-0.1,0.4-0.1,0.9-0.2,1.3
			c-0.1,0.5-0.3,0.9-0.5,1.3h-5v-1.9c3.6,0,5.1,0,4.6,0c0,0,0-0.1,0-0.2c0-0.1,0-0.3,0-0.5c0-0.2-0.1-0.8-0.2-1.9
			c-0.1-0.6-0.1-1.1-0.2-1.5c-0.1-1.1-0.3-2.6-0.7-4.6c-0.1-0.1-0.2-0.2-0.4-0.5c-0.1-0.1-0.1-0.2-0.1-0.4c0-0.2,0-0.3,0.1-0.5
			c0.2-0.5,0.6-1.2,1.2-2.1h0.3c0,0.1,0,0.2,0,0.4l-0.1,0.3c0,0.2,0.1,0.3,0.2,0.4C183.7,7.4,184.2,7.7,184.8,8z"/>
		<path class="st0" d="M192.3,20h-3.9l-1.1-13.5c0-0.3,0-0.4,0-0.4c0.2-0.3,0.6-0.8,1.3-1.7c0.1,0.5,0.2,2.7,0.5,6.5
			c0.2,2.1,0.4,4.2,0.7,6.3c0.1,0.6,0.8,0.9,1.9,0.9h0.4V20z"/>
		<path class="st0" d="M198,16.9c0,0.5-0.2,1.5-0.6,3.1h-6v-1.9h5.4c0,0,0-0.1,0-0.2c0-0.4-0.4-1.4-1.2-3.2c0,0,0.3-0.7,0.9-1.9
			c0.3,0.3,0.6,0.9,1,1.9C197.8,15.7,198,16.4,198,16.9z M196.2,23.6c-0.1,0.2-0.4,0.7-0.9,1.6l-2.1-1.3c0.4-0.6,0.7-1.1,0.9-1.5
			C194,22.4,194.7,22.8,196.2,23.6z"/>
		<path class="st0" d="M208.9,2.3c-0.1,0.3-0.3,0.5-0.6,0.8c-0.8,0-2.1,0.4-3.7,1.4V4.3c0-0.1,0.5-0.5,1.5-1.1
			c-0.4-0.1-1-0.2-1.6-0.5c-0.1-0.1-0.1-0.2-0.1-0.3c0-0.6,0.3-1.1,0.8-1.6c0.6-0.5,1.1-0.7,1.7-0.7c0.3,0,0.5,0,0.6,0.1
			c0,0,0.1,0.1,0.2,0.2c0,0.2-0.1,0.5-0.3,0.9c0,0-0.1-0.1-0.3-0.2c-0.2-0.1-0.4-0.2-0.6-0.2c-0.3,0-0.5,0.1-0.8,0.2
			c-0.4,0.2-0.6,0.4-0.6,0.6c0,0,0,0.1,0,0.1c0.2,0.2,0.4,0.3,0.6,0.3C206.4,2.1,207.4,2.2,208.9,2.3z"/>
		<path class="st0" d="M208.4,16.6c0,1-0.3,2.1-0.9,3.3l-1.2-12.1c0-0.6,0.5-1.6,1.5-3.2L208.4,16.6z"/>
		<path class="st0" d="M222.2,20h-1c-0.1,0-0.3-0.1-0.5-0.2c-0.2-0.1-0.4-0.4-0.6-0.8c-0.2-0.5-0.4-0.8-0.4-0.8
			c-0.2,0.4-0.5,1-1.1,1.7c-0.1,0.1-0.7,0.2-1.6,0.4c-1.1,0.1-2,0.2-2.8,0.2c-0.5,0-1-0.1-1.5-0.2c-0.1,0-0.2-0.1-0.3-0.2
			c-0.1-0.3-0.2-0.5-0.2-0.6c0-0.5,0.2-1.5,0.7-2.8c0.1,0,0.2,0.4,0.2,0.9c0,0.2,0.1,0.4,0.1,0.5c0.1,0.1,0.2,0.2,0.3,0.3
			c0.5,0.1,1.1,0.2,1.7,0.2c0.9,0,1.9-0.1,3-0.4c0.4-0.1,0.7-0.5,0.8-1.2l-1-4c0.1-0.2,0.3-0.6,0.5-1c0.3-0.5,0.4-0.8,0.5-1
			c0.3,0.7,0.6,1.9,0.9,3.8c0.3,1.6,0.6,2.8,1,3.5h1V20z"/>
		<path class="st0" d="M229.7,20h-2c0-0.1-0.2-0.5-0.4-1.1c-0.2,0.2-0.5,0.6-0.8,1.1h-5v-1.9h5.8c0-0.3-0.1-0.8-0.2-1.4
			c-0.1-0.6-0.1-0.9-0.1-0.9c0-0.2,0-0.3,0.1-0.4c0.2-0.3,0.3-0.6,0.5-0.9c0.2-0.4,0.5-0.7,0.9-1c0.1,0.2,0.2,0.5,0.2,0.9
			c0.1,0.7,0.1,1.1,0.1,1.1v1.9c0,0.2,0.1,0.3,0.3,0.4l0.5,0.3h0.3V20z M228.1,23.8l-1,1.9c-1.1-0.6-2-1-2.6-1.4
			c0.4-0.7,0.7-1.3,1-1.8L228.1,23.8z"/>
		<path class="st0" d="M235.5,17c0,0.3-0.2,1.3-0.5,3h-6.1v-1.9h5.4c0,0,0-0.1,0-0.2c0-0.3-0.2-1-0.6-1.9c-0.4-0.9-0.6-1.3-0.6-1.3
			c0-0.2,0.3-0.8,1-1.9c0.4,0.5,0.6,1,0.8,1.5c0,0.1,0.1,0.3,0.2,0.5C235.4,15.5,235.5,16.2,235.5,17z M235.3,9.7l-0.9,1.5
			c-0.4-0.2-1.1-0.6-2.1-1.2c-0.2,0.2-0.4,0.6-0.7,1.1l-2.2-1.3c0.3-0.6,0.6-1.2,0.9-1.6l2,1.2c0.2-0.2,0.4-0.6,0.7-1.1L235.3,9.7z"
			/>
		<path class="st0" d="M255.1,20h-0.8c-0.3,0.7-1,1.8-1.9,3.3c0,0.1-0.1,0.2-0.3,0.4c-1.1,0.6-2.4,1.1-3.9,1.5
			c-0.9,0.2-1.8,0.4-2.6,0.4c-1.1,0-2.1-0.3-2.8-0.8c-0.8-0.6-1.3-1.5-1.3-2.7c0-0.9,0.3-2,0.8-3.2c0.5-1.2,1-2,1.6-2.6
			c0.1,0,0.1,0.1,0.2,0.1v0.3c0,0-0.2,0.6-0.7,1.7c-0.5,1.1-0.7,1.9-0.7,2.3c0,1.8,1.3,2.7,3.8,2.7c0,0,0.4,0,1.4,0
			c1.2-0.1,2.1-0.3,2.9-0.6c0.7-0.3,1.3-0.6,1.7-0.9c0-0.7-0.3-1.1-0.9-1.4c-0.3-0.1-0.9-0.2-1.7-0.3c-0.8,0-1.3-0.1-1.5-0.2
			c0.3-0.4,0.6-1.1,1-2h5.8V20z M250.1,28.5c0,0.1-0.1,0.2-0.3,0.6c-0.2,0.4-0.4,0.6-0.5,0.7c-0.4-0.2-1-0.5-1.9-1
			c0,0-0.2,0.4-0.6,1c-0.5-0.2-1.2-0.6-2.1-1.2c0.1-0.3,0.4-0.8,0.9-1.6l2,1.2c0.1-0.2,0.3-0.6,0.6-1l1.9,1V28.5z"/>
		<path class="st0" d="M261.5,20H260c-0.2,0-0.4-0.1-0.6-0.4c-0.1-0.2-0.2-0.4-0.4-0.7c-0.1,0.1-0.4,0.5-0.8,1.1h-3.9v-1.9h4.9v-2.2
			c0-0.2,0-0.3,0.1-0.4c0.3-0.5,0.9-1.1,1.7-2v0.9l-0.5,3.4c0.1,0.2,0.3,0.3,0.6,0.3h0.4V20z M260.8,9.9c-0.3,0.5-0.6,1.1-0.9,1.6
			l-2-1.2c-0.3,0.4-0.5,0.7-0.7,1.1l-2.2-1.3c0.3-0.7,0.6-1.2,0.9-1.6c0.5,0.3,1.1,0.6,2.1,1.2c0.1-0.1,0.3-0.5,0.7-1
			c0.2,0.1,0.6,0.3,1.1,0.6C260.2,9.6,260.6,9.8,260.8,9.9z"/>
		<path class="st0" d="M267.4,8c-0.3,0.8-0.7,1.5-1.1,2.2l-0.1-0.1l0.6,6.3c0,0.3,0,0.6-0.1,1c-0.1,0.4-0.1,0.9-0.2,1.3
			c-0.1,0.5-0.3,0.9-0.5,1.3h-5v-1.9c3.6,0,5.1,0,4.6,0c0,0,0-0.1,0-0.2c0-0.1,0-0.3,0-0.5c0-0.2-0.1-0.8-0.2-1.9
			c-0.1-0.6-0.1-1.1-0.2-1.5c-0.1-1.1-0.3-2.6-0.7-4.6c-0.1-0.1-0.2-0.2-0.4-0.5c-0.1-0.1-0.1-0.2-0.1-0.4c0-0.2,0-0.3,0.1-0.5
			c0.2-0.5,0.6-1.2,1.2-2.1h0.3c0,0.1,0,0.2,0,0.4l-0.1,0.3c0,0.2,0.1,0.3,0.2,0.4C266.2,7.4,266.8,7.7,267.4,8z"/>
		<path class="st0" d="M272.1,16.6c0,1-0.3,2.1-0.9,3.3L270,7.9c0-0.6,0.5-1.6,1.5-3.2L272.1,16.6z"/>
		<path class="st0" d="M287.5,17.8c0,0.8-0.1,1.6-0.4,2.1c-0.8,2.1-1.9,3.5-3.3,4.1c-0.4,0.2-0.7,0.3-1,0.3c-0.3,0-0.7-0.1-1.1-0.2
			c-1-0.3-1.6-0.5-1.7-0.6c-0.8-0.3-1.4-0.7-1.9-1.1v-0.3c0-0.1,0.1-0.1,0.2-0.1c0,0,0.4,0.1,1,0.4c0.6,0.2,1,0.4,1.3,0.5
			c0.2,0,0.4,0.1,0.5,0.1c0.5,0,1.2-0.3,2.1-0.8c0.5-0.3,1.2-0.9,1.8-1.6c0.7-0.7,1.1-1.3,1.3-1.8c0.2-0.5,0.3-0.8,0.3-1
			c0-0.2,0-0.2,0-0.3c0-0.3-0.4-0.8-0.9-1.4c-0.1-0.1-0.6-0.4-1.5-1.1c0.1-0.5,0.3-1.3,0.5-2.2c0.7,0.4,1.3,1,1.8,1.8
			c0.5,0.7,0.8,1.4,0.8,2.1C287.5,17.1,287.5,17.5,287.5,17.8z"/>
		<path class="st0" d="M296.7,20h-1.2c0,0.1-0.1,0.3-0.2,0.6c-0.6,2-1.5,3.5-2.6,4.5c-0.2,0.2-0.6,0.4-1.1,0.6
			c-0.2,0.1-0.5,0.2-0.9,0.2c0,0-0.4-0.1-1.1-0.3c-0.8-0.2-1.4-0.3-1.9-0.4c-1-0.2-1.7-0.5-2.1-0.9c0.1-0.2,0.2-0.3,0.3-0.3
			c0.1,0,0.3,0,0.5,0.1c0.5,0.2,1.1,0.3,1.9,0.5c0.1,0,0.2,0,0.5,0c0.4,0,0.8-0.1,1.2-0.2c0.8-0.3,1.7-0.9,2.6-1.8
			c0.9-0.9,1.6-1.8,1.9-2.6c-0.7,0-1.5-0.1-2.2-0.1c-0.9-0.1-1.5-0.4-1.8-1.1c-0.1-0.2-0.2-0.5-0.2-1c0-0.3,0-0.5,0-0.6
			c0.1-0.6,0.2-1.1,0.4-1.5c0.2-0.5,0.5-1,0.8-1.5c0.3-0.5,0.7-0.8,1.1-1.1c0.1-0.1,0.2-0.1,0.4-0.1c0.2,0,0.4,0.1,0.6,0.2
			c1,0.7,1.5,2.2,1.8,4.4c0,0.3,0.3,0.5,0.7,0.5h0.4V20z M294.4,17.7c0-0.8-0.2-1.4-0.8-2c-0.2-0.2-0.4-0.3-0.6-0.4c0,0-0.1,0-0.3,0
			c-0.1,0-0.2,0-0.3,0c-0.1,0-0.3,0.2-0.7,0.6s-0.6,0.7-0.6,0.9c0,0.2,0.2,0.3,0.5,0.5c0.3,0.2,0.7,0.3,1.3,0.4c0,0,0.2,0,0.6,0
			C294.1,17.8,294.3,17.8,294.4,17.7z"/>
		<path class="st0" d="M304.1,18.1h-0.6V20c-0.1,0,0,0,0.3,0c-0.3,0-0.8,0-1.4,0c-0.7,0-1.2,0-1.5,0c-0.1-0.2-0.3-0.4-0.5-0.6
			c-0.4,0.4-0.7,0.6-0.9,0.6h-3.7v-1.9h4.1c0.4,0,0.6-0.3,0.7-1c0-0.3,0-0.7,0-1c0.5-0.6,1.1-1.2,1.8-1.8c0,0.6-0.1,1.1-0.2,1.7
			c-0.1,0.8-0.3,1.5-0.6,1.8c0.1,0.2,0.5,0.3,1.1,0.3C303.2,18.1,303.6,18.1,304.1,18.1z"/>
		<path class="st0" d="M319.5,20h-16.9v-1.9h1.2c1-0.3,2.8-1.3,5.4-2.8c2.1-1.3,3.8-1.9,4.9-1.9c0.8,0,1.7,0.3,2.8,1
			c1.2,0.7,1.8,1.5,1.8,2.3c0,0.1-0.1,0.3-0.3,0.6c-0.3,0.5-0.5,0.7-0.5,0.8h1.7V20z M316.6,17.6c0-0.3-0.4-0.7-1.1-1.3
			c-0.6-0.5-1-0.7-1.2-0.8c-0.4-0.1-0.8-0.2-1.3-0.2c-1,0-2.1,0.3-3.4,1c-1.1,0.6-2.1,1.1-3.2,1.7h9.7c0.1,0,0.2-0.1,0.4-0.2
			C316.5,17.8,316.6,17.7,316.6,17.6z"/>
		<path class="st0" d="M325.1,8c-0.3,0.8-0.7,1.5-1.1,2.2l-0.1-0.1l0.6,6.3c0,0.3,0,0.6-0.1,1c-0.1,0.4-0.1,0.9-0.2,1.3
			c-0.1,0.5-0.3,0.9-0.5,1.3h-5v-1.9c3.6,0,5.1,0,4.6,0c0,0,0-0.1,0-0.2c0-0.1,0-0.3,0-0.5c0-0.2-0.1-0.8-0.2-1.9
			c-0.1-0.6-0.1-1.1-0.2-1.5c-0.1-1.1-0.3-2.6-0.7-4.6c-0.1-0.1-0.2-0.2-0.4-0.5c-0.1-0.1-0.1-0.2-0.1-0.4c0-0.2,0-0.3,0.1-0.5
			c0.2-0.5,0.6-1.2,1.2-2.1h0.3c0,0.1,0,0.2,0,0.4l-0.1,0.3c0,0.2,0.1,0.3,0.2,0.4C323.9,7.4,324.4,7.7,325.1,8z"/>
		<path class="st0" d="M329.8,16.6c0,1-0.3,2.1-0.9,3.3l-1.2-12.1c0-0.6,0.5-1.6,1.5-3.2L329.8,16.6z"/>
		<path class="st0" d="M353.4,20h-0.9c-0.5,0-1.1-0.3-1.5-1c-0.1,0.2-0.3,0.4-0.6,0.7c-0.5,0.2-1,0.3-1.5,0.3h-6
			c-1.9,0-3.1-0.1-3.6-0.2c-1.5-0.4-2.2-1.3-2.2-2.7c0-0.6,0.2-1.3,0.5-2c0.3-0.8,0.8-1.4,1.3-1.9h0.3v0.4c0,0-0.1,0.2-0.4,0.8
			c-0.3,0.5-0.4,1-0.4,1.5c0,1.6,1.5,2.5,4.6,2.5h3.4c1,0,2.4-0.2,4.3-0.4c0.1-0.2,0.2-0.5,0.3-1c0.1-0.5,0.2-0.8,0.3-1
			c0.1-0.2,0.3-0.4,0.7-0.6c0.3-0.2,0.6-0.4,0.8-0.6c0,0,0,0,0,0.1c0,0,0,0.1,0,0.1c0,0.5-0.2,1.1-0.5,1.8c-0.3,0.7-0.5,1-0.5,1
			c0,0.3,0.4,0.5,1.2,0.5h0.4V20z M346.5,23.5c-0.4,0.5-0.7,1-0.9,1.5l-2.1-1.2c0.2-0.3,0.5-0.9,1-1.6h0.2L346.5,23.5z"/>
		<path class="st0" d="M368.2,20h-5.3c-0.2,0-0.4-0.2-0.6-0.6c-0.1-0.2-0.2-0.8-0.5-1.8c-0.4,0.3-0.9,0.6-1.6,1.1
			c-0.3,0.3-0.9,0.6-1.6,1.1c-0.2,0.1-0.4,0.1-0.5,0.1h-5.3v-1.9h4.7c0.5,0,1.1-0.1,1.7-0.3c0.8-0.3,1.7-0.9,2.7-1.6
			c-2.2-0.6-3.6-0.9-4.1-0.9c-0.1,0-0.1,0-0.2,0c-0.1,0-0.2,0-0.2,0.1c-0.3,0-0.6,0.1-0.9,0.3c-0.4,0.3-0.7,0.5-0.8,0.6v-0.4
			c0-0.1,0.1-0.3,0.2-0.6c0.3-0.8,0.8-1.4,1.3-1.7c0.2-0.1,0.5-0.2,0.8-0.3c0,0,0.2,0,0.6,0c0.5,0,0.9,0.1,1.3,0.2
			c1.1,0.3,2.7,0.7,4.8,1.2c0.3,0.1,0.8,0.1,1.4,0.1c0,0,0.2,0,0.4,0c0.3,0,0.5,0,0.7,0l-0.8,2h-1.7c-0.1,0-0.3,0-0.6,0.1
			c-0.5,0.1-1,0.2-1.4,0.4c0,0.1,0,0.2,0,0.2c0,0,0,0.1,0.1,0.2c0.2,0.3,0.4,0.5,0.6,0.5h4.7V20z"/>
		<path class="st0" d="M375.6,18.1H375V20c-0.1,0,0,0,0.3,0c-0.3,0-0.8,0-1.4,0c-0.7,0-1.2,0-1.5,0c-0.1-0.2-0.3-0.4-0.5-0.6
			c-0.4,0.4-0.7,0.6-0.9,0.6h-3.7v-1.9h4.1c0.4,0,0.6-0.3,0.7-1c0-0.3,0-0.7,0-1c0.5-0.6,1.1-1.2,1.8-1.8c0,0.6-0.1,1.1-0.2,1.7
			c-0.1,0.8-0.3,1.5-0.6,1.8c0.1,0.2,0.5,0.3,1.1,0.3C374.7,18.1,375.1,18.1,375.6,18.1z"/>
		<path class="st0" d="M382.6,17.7c0,0.7-0.2,1.4-0.7,2.3h-1.7c-0.7,0-1.2-0.1-1.7-0.2c-0.5-0.2-0.7-0.2-0.7-0.2
			c0,0-0.2,0.1-0.4,0.2c-0.2,0.2-0.4,0.2-0.4,0.2h-2.9v-1.9h3.5c0.1-0.2,0.1-0.4,0.1-0.7v-0.7c0-0.2,0.3-0.6,0.7-1.1
			c0.4-0.4,0.8-0.7,1.1-1l-0.8,3.1c0.1,0.1,0.3,0.2,0.6,0.2c0.4,0,0.6,0.1,0.6,0.1c0.9,0.1,1.4,0.1,1.5,0c-0.3-1.3-0.4-1.9-0.4-1.8
			c0-0.2,0.2-0.4,0.5-0.7c0.5-0.6,0.9-1,1-1.2V17.7z"/>
		<path class="st0" d="M387.8,16.6c0,1-0.3,2.1-0.9,3.3l-1.2-12.1c0-0.6,0.5-1.6,1.5-3.2L387.8,16.6z"/>
	</g>
</g>
</svg>
