<?xml version="1.0" encoding="utf-8"?>
<!-- Generator: Adobe Illustrator 22.1.0, SVG Export Plug-In . SVG Version: 6.00 Build 0)  -->
<svg version="1.1" id="Layer_1" xmlns="http://www.w3.org/2000/svg" xmlns:xlink="http://www.w3.org/1999/xlink" x="0px" y="0px"
	 viewBox="0 0 109.9 109.9" style="enable-background:new 0 0 109.9 109.9;" xml:space="preserve">
<style type="text/css">
	.st0{fill:#FDC20F;}
	.st1{fill:#F99D1C;}
	.st2{fill:#FFD215;}
	.st3{fill:#FFE36F;}
</style>
<g>
	<g>
		<path class="st0" d="M10.5,46.4c1.9,0.1,3.4,1.7,3.3,3.6l-0.1,1.7c-0.1,1.9-1.7,3.4-3.6,3.3l-6.8,1.1C1.4,56-0.1,54.4,0,52.5
			l0.2-4.2c0.1-1.9,1.7-3.4,3.6-3.3L10.5,46.4z"/>
		<path class="st1" d="M3.4,54.5c-2.1,0-3-1.4-3.4-2.3l0,0.3c-0.1,1.9,1.4,3.5,3.3,3.6l6.8-1.1c1.9,0.1,3.5-1.4,3.6-3.3l0.1-1.7
			c0-0.5-0.1-0.9-0.2-1.3C12.3,53.5,5.8,54.5,3.4,54.5z"/>
		<path class="st2" d="M1,51.2l0.1-2.4c0,0,0.8-3.3,4.3-2.6c3.5,0.7,6.8,1.6,6.7,3.1c-0.1,1.4-3.9,3.4-6.4,3.8
			C3.3,53.5,0.9,53.1,1,51.2z"/>
		<path class="st3" d="M5.1,46.8c1.1,0,2,0.4,2,0.9c0,0.4-0.9,0.8-2.1,0.7c-1.1,0-2-0.4-2-0.9C3,47.1,3.9,46.7,5.1,46.8z"/>
	</g>
	<g>
		<path class="st0" d="M15.4,27.8c1.7,0.8,2.4,2.9,1.5,4.6L16.1,34c-0.8,1.7-2.9,2.4-4.6,1.5l-6.6-1.8c-1.7-0.8-2.4-2.9-1.5-4.6
			l1.9-3.7c0.8-1.7,2.9-2.4,4.6-1.5L15.4,27.8z"/>
		<path class="st1" d="M5.6,32.3c-1.9-0.8-2.2-2.6-2.2-3.5l-0.1,0.3c-0.8,1.7-0.2,3.8,1.5,4.6l6.6,1.8c1.7,0.8,3.8,0.2,4.6-1.5
			l0.8-1.6c0.2-0.4,0.3-0.9,0.4-1.3C14.2,35,7.9,33.3,5.6,32.3z"/>
		<path class="st2" d="M4.8,28.3l1.1-2.1c0,0,2.1-2.7,5-0.6c2.9,2.1,5.5,4.3,4.9,5.5c-0.6,1.3-4.9,1.5-7.4,0.9
			C5.9,31.4,4,30,4.8,28.3z"/>
		<path class="st3" d="M10.3,25.9c1,0.5,1.7,1.2,1.5,1.6c-0.2,0.4-1.2,0.3-2.2-0.2c-1-0.5-1.7-1.2-1.5-1.6
			C8.3,25.3,9.3,25.4,10.3,25.9z"/>
	</g>
	<g>
		<path class="st0" d="M28.7,15.7c0.9,1.7,0.3,3.8-1.4,4.6l-1.5,0.8c-1.7,0.9-3.8,0.3-4.6-1.4l-4.4-5.3c-0.9-1.7-0.3-3.8,1.4-4.6
			l3.7-2c1.7-0.9,3.8-0.3,4.6,1.4L28.7,15.7z"/>
		<path class="st1" d="M18.2,13.7c-1.1-1.8-0.3-3.3,0.3-4.1l-0.3,0.1c-1.7,0.9-2.3,3-1.4,4.6l4.4,5.3c0.9,1.7,3,2.3,4.6,1.4l1.5-0.8
			c0.4-0.2,0.8-0.5,1-0.9C23.6,20.8,19.5,15.8,18.2,13.7z"/>
		<path class="st2" d="M19.9,10L22,8.9c0,0,3.3-0.9,4.4,2.4c1.1,3.4,2,6.7,0.8,7.4c-1.2,0.7-4.9-1.6-6.5-3.6
			C19,13.1,18.2,10.9,19.9,10z"/>
		<path class="st3" d="M25.7,11.2c0.5,1,0.6,2,0.2,2.2c-0.4,0.2-1.1-0.4-1.7-1.4c-0.5-1-0.6-2-0.3-2.2C24.4,9.6,25.2,10.3,25.7,11.2
			z"/>
	</g>
	<g>
		<path class="st0" d="M47.3,10.1c0.1,1.9-1.3,3.5-3.2,3.7L42.4,14c-1.9,0.1-3.5-1.3-3.7-3.2l-1.8-6.6c-0.1-1.9,1.3-3.5,3.2-3.7
			l4.2-0.3c1.9-0.1,3.5,1.3,3.7,3.2L47.3,10.1z"/>
		<path class="st1" d="M38.5,4.1c-0.3-2.1,1.1-3.2,1.9-3.6l-0.3,0c-1.9,0.1-3.3,1.8-3.2,3.7l1.8,6.6c0.1,1.9,1.8,3.3,3.7,3.2
			l1.7-0.1c0.5,0,0.9-0.2,1.3-0.4C40.5,12.8,38.8,6.5,38.5,4.1z"/>
		<path class="st2" d="M41.5,1.3l2.4-0.2c0,0,3.4,0.5,3,4c-0.3,3.5-0.9,6.9-2.3,7c-1.4,0.1-3.8-3.5-4.5-5.9
			C39.4,3.8,39.6,1.5,41.5,1.3z"/>
		<path class="st3" d="M46.3,4.8c0.1,1.1-0.2,2.1-0.7,2.1c-0.4,0-0.9-0.9-1-2c-0.1-1.1,0.2-2.1,0.7-2.1C45.8,2.8,46.3,3.7,46.3,4.8z
			"/>
	</g>
	<g>
		<path class="st0" d="M66.3,11.7c-0.5,1.8-2.4,2.9-4.2,2.4l-1.7-0.5c-1.8-0.5-2.9-2.4-2.4-4.2l0.5-6.9c0.5-1.8,2.4-2.9,4.2-2.4
			l4,1.1c1.8,0.5,2.9,2.4,2.4,4.2L66.3,11.7z"/>
		<path class="st1" d="M60,3c0.5-2.1,2.1-2.6,3-2.8l-0.3-0.1c-1.8-0.5-3.7,0.6-4.2,2.4L58,9.4c-0.5,1.8,0.6,3.7,2.4,4.2l1.7,0.5
			c0.5,0.1,0.9,0.2,1.4,0.1C59,11.8,59.5,5.3,60,3z"/>
		<path class="st2" d="M63.9,1.4l2.3,0.6c0,0,3,1.6,1.5,4.8c-1.5,3.2-3.2,6.2-4.5,5.9c-1.4-0.4-2.4-4.6-2.3-7.1
			C61,3.1,62,0.9,63.9,1.4z"/>
		<path class="st3" d="M67.2,6.4c-0.3,1.1-0.9,1.9-1.3,1.8C65.4,8,65.3,7,65.6,5.9c0.3-1.1,0.9-1.9,1.3-1.8
			C67.4,4.3,67.5,5.3,67.2,6.4z"/>
	</g>
	<g>
		<path class="st0" d="M83.8,18.7c-0.9,1.7-3,2.3-4.7,1.3l-1.5-0.8c-1.7-0.9-2.3-3-1.3-4.7L78.4,8c0.9-1.7,3-2.3,4.7-1.3l3.7,2
			c1.7,0.9,2.3,3,1.3,4.7L83.8,18.7z"/>
		<path class="st1" d="M79.7,8.8c0.9-1.9,2.6-2.1,3.6-2L83,6.6c-1.7-0.9-3.7-0.3-4.7,1.3l-2.1,6.6c-0.9,1.7-0.3,3.7,1.3,4.7l1.5,0.8
			c0.4,0.2,0.9,0.4,1.3,0.4C76.7,17.2,78.7,11,79.7,8.8z"/>
		<path class="st2" d="M83.8,8.2l2.1,1.1c0,0,2.6,2.2,0.4,5C84,17,81.7,19.6,80.5,19c-1.2-0.7-1.3-5-0.6-7.4
			C80.7,9.1,82.1,7.2,83.8,8.2z"/>
		<path class="st3" d="M85.9,13.7c-0.5,1-1.3,1.6-1.7,1.4c-0.4-0.2-0.3-1.2,0.3-2.2c0.5-1,1.3-1.6,1.7-1.4
			C86.6,11.8,86.4,12.7,85.9,13.7z"/>
	</g>
	<g>
		<path class="st0" d="M94.4,32.5c-1.5,1.1-3.7,0.7-4.8-0.8l-1-1.4c-1.1-1.5-0.7-3.7,0.8-4.8l4.7-5c1.5-1.1,3.7-0.7,4.8,0.8l2.4,3.4
			c1.1,1.5,0.7,3.7-0.8,4.8L94.4,32.5z"/>
		<path class="st1" d="M95,21.8c1.7-1.3,3.3-0.7,4.1-0.3l-0.2-0.2c-1.1-1.5-3.2-1.9-4.8-0.8l-4.7,5c-1.5,1.1-1.9,3.2-0.8,4.8l1,1.4
			c0.3,0.4,0.6,0.7,1,0.9C88.7,28.1,93.1,23.3,95,21.8z"/>
		<path class="st2" d="M99,23l1.4,1.9c0,0,1.4,3.1-1.8,4.6c-3.2,1.5-6.4,2.9-7.2,1.7c-0.8-1.2,1-5.1,2.7-6.9
			C95.7,22.5,97.9,21.4,99,23z"/>
		<path class="st3" d="M98.4,28.9c-0.9,0.7-1.9,0.9-2.1,0.5c-0.3-0.4,0.3-1.2,1.2-1.8c0.9-0.7,1.9-0.9,2.1-0.5
			C99.9,27.5,99.4,28.3,98.4,28.9z"/>
	</g>
	<g>
		<path class="st0" d="M100.1,48.5c-1.9,0.4-3.7-0.8-4.1-2.7l-0.4-1.7c-0.4-1.9,0.8-3.7,2.7-4.1l6.3-2.7c1.9-0.4,3.7,0.8,4.1,2.7
			l0.9,4.1c0.4,1.9-0.8,3.7-2.7,4.1L100.1,48.5z"/>
		<path class="st1" d="M104.9,38.9c2-0.5,3.3,0.6,3.9,1.4l-0.1-0.3c-0.4-1.9-2.2-3-4.1-2.7L98.3,40c-1.9,0.4-3,2.2-2.7,4.1l0.4,1.7
			c0.1,0.5,0.3,0.9,0.5,1.3C96.6,42.1,102.6,39.5,104.9,38.9z"/>
		<path class="st2" d="M108,41.6l0.5,2.3c0,0,0,3.4-3.5,3.5c-3.5,0.1-7,0.1-7.3-1.3c-0.3-1.4,2.9-4.3,5.2-5.3
			C105.3,39.8,107.7,39.7,108,41.6z"/>
		<path class="st3" d="M105.2,46.8c-1.1,0.2-2.1,0.1-2.2-0.4c-0.1-0.4,0.7-1,1.8-1.2c1.1-0.2,2.1-0.1,2.2,0.4
			C107.1,46,106.3,46.6,105.2,46.8z"/>
	</g>
	<g>
		<path class="st0" d="M98.6,66.2c-1.9-0.4-3.1-2.2-2.7-4.1l0.3-1.7c0.4-1.9,2.2-3.1,4.1-2.7l6.9,0c1.9,0.4,3.1,2.2,2.7,4.1
			l-0.8,4.1c-0.4,1.9-2.2,3.1-4,2.7L98.6,66.2z"/>
		<path class="st1" d="M106.8,59.3c2.1,0.3,2.8,1.9,3,2.8l0.1-0.3c0.4-1.9-0.8-3.7-2.7-4.1l-6.9,0c-1.9-0.4-3.7,0.8-4.1,2.7
			l-0.3,1.7c-0.1,0.5-0.1,0.9,0,1.4C97.9,59,104.4,59,106.8,59.3z"/>
		<path class="st2" d="M108.6,63l-0.5,2.3c0,0-1.4,3.1-4.7,1.8c-3.3-1.3-6.5-2.7-6.2-4.1c0.3-1.4,4.4-2.8,6.9-2.8
			C106.8,60.3,109,61.2,108.6,63z"/>
		<path class="st3" d="M103.9,66.7c-1.1-0.2-1.9-0.8-1.8-1.2c0.1-0.4,1.1-0.6,2.2-0.4c1.1,0.2,1.9,0.8,1.8,1.2
			C106,66.8,105,66.9,103.9,66.7z"/>
	</g>
	<g>
		<path class="st0" d="M91.7,81c-1.6-1-2-3.2-1-4.8l1-1.5c1-1.6,3.2-2,4.8-1l6.4,2.6c1.6,1,2,3.2,1,4.8l-2.3,3.5c-1,1.6-3.2,2-4.8,1
			L91.7,81z"/>
		<path class="st1" d="M102,77.7c1.8,1.1,1.8,2.8,1.7,3.7l0.2-0.3c1-1.6,0.6-3.7-1-4.8l-6.4-2.6c-1.6-1-3.7-0.6-4.8,1l-1,1.5
			c-0.3,0.4-0.4,0.8-0.5,1.3C93.8,74.1,99.9,76.5,102,77.7z"/>
		<path class="st2" d="M102.3,81.8l-1.3,2c0,0-2.4,2.4-5,0c-2.6-2.4-5-4.9-4.2-6.1c0.8-1.2,5.1-0.9,7.4,0
			C101.5,78.6,103.3,80.3,102.3,81.8z"/>
		<path class="st3" d="M96.5,83.5c-0.9-0.6-1.5-1.4-1.3-1.8c0.2-0.4,1.2-0.2,2.2,0.5c0.9,0.6,1.5,1.4,1.3,1.8
			C98.4,84.3,97.5,84.1,96.5,83.5z"/>
	</g>
	<g>
		<g>
			<path class="st0" d="M78.6,92.4c-1-1.6-0.5-3.7,1.1-4.7l1.5-0.9c1.6-1,3.7-0.5,4.7,1.1l4.7,5.1c1,1.6,0.5,3.7-1.1,4.7l-3.6,2.2
				c-1.6,1-3.7,0.5-4.7-1.1L78.6,92.4z"/>
			<path class="st1" d="M89.2,93.8c1.2,1.7,0.5,3.3,0,4.1l0.3-0.2c1.6-1,2.1-3.1,1.1-4.7l-4.7-5.1c-1-1.6-3.1-2.1-4.7-1.1l-1.5,0.9
				c-0.4,0.2-0.7,0.6-1,0.9C83.4,87,87.8,91.8,89.2,93.8z"/>
			<path class="st2" d="M87.8,97.6l-2,1.2c0,0-3.2,1.1-4.5-2.1c-1.3-3.3-2.4-6.6-1.2-7.3c1.2-0.7,5,1.3,6.7,3.1
				C88.4,94.4,89.4,96.6,87.8,97.6z"/>
			<path class="st3" d="M81.9,96.7c-0.6-1-0.8-1.9-0.4-2.2c0.4-0.2,1.2,0.4,1.8,1.3c0.6,1,0.8,1.9,0.4,2.2
				C83.2,98.3,82.5,97.7,81.9,96.7z"/>
		</g>
		<g>
			<path class="st0" d="M61.5,100.5c-0.6-1.8,0.4-3.7,2.2-4.3l1.7-0.5c1.8-0.6,3.7,0.4,4.3,2.2l3.4,6c0.6,1.8-0.4,3.7-2.2,4.3
				l-4,1.3c-1.8,0.6-3.7-0.4-4.3-2.2L61.5,100.5z"/>
			<path class="st1" d="M71.6,104.3c0.8,2-0.3,3.3-0.9,4l0.3-0.1c1.8-0.6,2.8-2.5,2.2-4.3l-3.4-6c-0.6-1.8-2.5-2.8-4.3-2.2l-1.7,0.5
				c-0.4,0.1-0.8,0.4-1.2,0.7C67.5,96.4,70.7,102,71.6,104.3z"/>
			<path class="st2" d="M69.3,107.7l-2.3,0.7c0,0-3.4,0.4-3.9-3.1c-0.5-3.5-0.9-6.9,0.5-7.4c1.3-0.4,4.6,2.4,5.8,4.6
				C70.7,104.7,71.1,107.1,69.3,107.7z"/>
			<path class="st3" d="M63.7,105.5c-0.4-1.1-0.3-2.1,0.1-2.2c0.4-0.1,1.1,0.6,1.4,1.7c0.4,1.1,0.3,2.1-0.1,2.2
				C64.7,107.3,64.1,106.5,63.7,105.5z"/>
		</g>
		<g>
			<path class="st0" d="M44.2,98.9c0.2-1.9,2-3.2,3.8-3l1.7,0.2c1.9,0.2,3.2,2,3,3.8l0.5,6.9c-0.2,1.9-2,3.2-3.9,3l-4.2-0.5
				c-1.9-0.2-3.2-2-3-3.8L44.2,98.9z"/>
			<path class="st1" d="M51.6,106.7c-0.2,2.1-1.7,2.9-2.6,3.2l0.3,0c1.9,0.2,3.6-1.1,3.9-3l-0.5-6.9c0.2-1.9-1.1-3.6-3-3.8L48.1,96
				c-0.5-0.1-0.9,0-1.4,0.1C51.4,97.7,51.8,104.3,51.6,106.7z"/>
			<path class="st2" d="M48.1,108.7l-2.4-0.3c0,0-3.2-1.1-2.2-4.5c1-3.4,2.2-6.6,3.6-6.4c1.4,0.2,3.1,4.2,3.3,6.7
				C50.6,106.7,50,109,48.1,108.7z"/>
			<path class="st3" d="M44.1,104.3c0.1-1.1,0.6-2,1.1-1.9c0.4,0.1,0.7,1,0.5,2.1c-0.1,1.1-0.6,2-1.1,1.9
				C44.2,106.4,43.9,105.4,44.1,104.3z"/>
		</g>
		<g>
			<path class="st0" d="M28.6,92.2c1-1.6,3.1-2.2,4.7-1.2l1.5,0.9c1.6,1,2.2,3.1,1.2,4.7l-2.3,6.5c-1,1.6-3.1,2.2-4.7,1.2l-3.6-2.2
				c-1.6-1-2.2-3.1-1.2-4.7L28.6,92.2z"/>
			<path class="st1" d="M32.4,102.3c-1,1.9-2.7,2-3.6,1.9l0.3,0.2c1.6,1,3.7,0.4,4.7-1.2l2.3-6.5c1-1.6,0.4-3.7-1.2-4.7l-1.5-0.9
				c-0.4-0.2-0.8-0.4-1.3-0.5C35.7,94,33.5,100.2,32.4,102.3z"/>
			<path class="st2" d="M28.3,102.8l-2-1.2c0,0-2.5-2.3-0.2-5c2.3-2.7,4.7-5.2,5.9-4.5c1.2,0.7,1.2,5,0.3,7.4
				C31.4,101.9,29.9,103.8,28.3,102.8z"/>
			<path class="st3" d="M26.4,97.1c0.6-1,1.4-1.6,1.7-1.3c0.4,0.2,0.2,1.2-0.4,2.2c-0.6,1-1.4,1.6-1.7,1.3
				C25.6,99.1,25.8,98.1,26.4,97.1z"/>
		</g>
		<g>
			<path class="st0" d="M16.7,79.1c1.5-1.1,3.7-0.8,4.8,0.8l1,1.4c1.1,1.5,0.8,3.7-0.8,4.8l-4.7,5c-1.5,1.1-3.7,0.7-4.8-0.8
				l-2.4-3.4c-1.1-1.5-0.8-3.7,0.8-4.8L16.7,79.1z"/>
			<path class="st1" d="M16.1,89.8c-1.6,1.3-3.3,0.7-4.1,0.3l0.2,0.2c1.1,1.5,3.2,1.9,4.8,0.8l4.7-5c1.5-1.1,1.9-3.3,0.8-4.8l-1-1.4
				c-0.3-0.4-0.6-0.7-1-0.9C22.4,83.5,18,88.3,16.1,89.8z"/>
			<path class="st2" d="M12.1,88.6l-1.4-1.9c0,0-1.4-3.1,1.8-4.7c3.2-1.5,6.4-2.9,7.2-1.7c0.8,1.2-1,5.1-2.7,6.9
				C15.4,89.1,13.3,90.2,12.1,88.6z"/>
			<path class="st3" d="M12.6,82.7c0.9-0.7,1.9-0.9,2.1-0.5c0.3,0.4-0.3,1.2-1.2,1.8c-0.9,0.7-1.9,0.9-2.1,0.5
				C11.2,84.2,11.7,83.3,12.6,82.7z"/>
		</g>
		<g>
			<path class="st0" d="M10.4,64c1.8-0.4,3.7,0.7,4.1,2.5l0.4,1.7c0.5,1.8-0.7,3.7-2.5,4.1l-6.3,2.9c-1.8,0.4-3.7-0.7-4.1-2.5
				l-1-4.1c-0.5-1.8,0.7-3.7,2.5-4.1L10.4,64z"/>
			<path class="st1" d="M5.9,73.7c-2,0.6-3.3-0.5-3.9-1.3l0.1,0.3c0.4,1.8,2.3,3,4.1,2.5l6.3-2.9c1.8-0.4,3-2.3,2.5-4.1l-0.4-1.7
				c-0.1-0.5-0.3-0.9-0.6-1.2C14.1,70.3,8.2,73,5.9,73.7z"/>
			<path class="st2" d="M2.7,71.2l-0.6-2.3c0,0-0.1-3.4,3.4-3.6c3.5-0.2,7-0.3,7.3,1.1c0.3,1.4-2.8,4.4-5.1,5.4
				C5.5,72.8,3.1,73,2.7,71.2z"/>
			<path class="st3" d="M5.3,65.8c1.1-0.3,2.1-0.1,2.2,0.3c0.1,0.4-0.7,1-1.8,1.3c-1.1,0.3-2.1,0.1-2.2-0.3
				C3.4,66.7,4.2,66.1,5.3,65.8z"/>
		</g>
	</g>
</g>
</svg>
