<?xml version="1.0" encoding="utf-8"?>
<!-- Generator: Adobe Illustrator 22.1.0, SVG Export Plug-In . SVG Version: 6.00 Build 0)  -->
<svg version="1.1" id="Layer_1" xmlns="http://www.w3.org/2000/svg" xmlns:xlink="http://www.w3.org/1999/xlink" x="0px" y="0px"
	 viewBox="0 0 72.7 72.7" style="enable-background:new 0 0 72.7 72.7;" xml:space="preserve">
<style type="text/css">
	.st0{fill:#FDC20F;}
	.st1{fill:#F99D1C;}
	.st2{fill:#FFD215;}
	.st3{fill:#FFE36F;}
	.st4{fill:#010101;}
	.st5{fill:#FFFFFF;}
	.st6{fill:#2B140E;}
	.st7{fill:#F496AF;}
</style>
<g>
	<g>
		<path class="st0" d="M72.7,36.3c0,20.1-16.3,36.3-36.3,36.3C16.3,72.7,0,56.4,0,36.3C0,16.3,16.3,0,36.3,0
			C56.4,0,72.7,16.3,72.7,36.3z"/>
		<path class="st1" d="M42.2,72.1c-20.1,0-36.3-16.3-36.3-36.3C5.9,18,18.6,3.2,35.5,0C15.8,0.5,0,16.6,0,36.3
			c0,20.1,16.3,36.3,36.3,36.3c2.3,0,4.5-0.2,6.7-0.6C42.8,72.1,42.5,72.1,42.2,72.1z"/>
		<path class="st2" d="M37.4,4.8c0,0,21.6,2.2,29.1,20c5.3,14.9-2.2,37.2-17.4,39.8c-14.3,2.8-33.3-2.8-37.2-20.2
			C8.1,27.1,19.6,4.4,37.4,4.8z"/>
		<path class="st3" d="M61.3,22c3.2,5,4.6,9.9,3.1,10.9c-1.5,1-5.3-2.3-8.6-7.4c-3.2-5-4.6-9.9-3.1-10.9
			C54.3,13.6,58.1,16.9,61.3,22z"/>
	</g>
	<g>
		<g>
			<path class="st4" d="M24.4,26.8c-0.2,1.1-1.3,1.8-2.4,1.6c-1.1-0.2-1.8-1.3-1.6-2.4c0.2-1.1,1.3-1.8,2.4-1.6
				C23.9,24.6,24.6,25.7,24.4,26.8z"/>
			<path class="st5" d="M24,25.9c-0.1,0.5-0.6,0.8-1.1,0.7c-0.5-0.1-0.8-0.6-0.7-1.1c0.1-0.5,0.6-0.8,1.1-0.7
				C23.8,24.9,24.2,25.4,24,25.9z"/>
		</g>
		<g>
			<path class="st4" d="M56.7,36.8c-0.2,1.1-1.3,1.8-2.4,1.6c-1.1-0.2-1.8-1.3-1.6-2.4c0.2-1.1,1.3-1.8,2.4-1.6
				C56.3,34.6,57,35.7,56.7,36.8z"/>
			<path class="st5" d="M56.4,35.8c-0.1,0.5-0.6,0.8-1.1,0.7c-0.5-0.1-0.8-0.6-0.7-1.1c0.1-0.5,0.6-0.8,1.1-0.7
				C56.2,34.9,56.5,35.4,56.4,35.8z"/>
		</g>
		<g>
			<path class="st6" d="M45,51.6c-3.6,0-7.7-0.5-12.3-1.9c-14.3-4.3-20-15-20.2-15.4l1.1-0.6c0.1,0.1,5.7,10.7,19.5,14.8
				c11.8,3.5,21.4,1.1,24.2-0.7l0.6,1C56.3,49.9,51.7,51.6,45,51.6z"/>
		</g>
		<path class="st7" d="M16.2,33.3c0,2-1.6,3.6-3.6,3.6c-2,0-3.6-1.6-3.6-3.6c0-2,1.6-3.6,3.6-3.6C14.6,29.8,16.2,31.4,16.2,33.3z"/>
		<path class="st7" d="M62.3,48c0,2-1.6,3.6-3.6,3.6c-2,0-3.6-1.6-3.6-3.6c0-2,1.6-3.6,3.6-3.6C60.7,44.4,62.3,46,62.3,48z"/>
	</g>
</g>
</svg>
