<?xml version="1.0" encoding="utf-8"?>
<!-- Generator: Adobe Illustrator 22.1.0, SVG Export Plug-In . SVG Version: 6.00 Build 0)  -->
<svg version="1.1" id="Layer_1" xmlns="http://www.w3.org/2000/svg" xmlns:xlink="http://www.w3.org/1999/xlink" x="0px" y="0px"
	 viewBox="0 0 193.1 35.8" style="enable-background:new 0 0 193.1 35.8;" xml:space="preserve">
<style type="text/css">
	.st0{fill:#EC2227;}
</style>
<g>
	<g>
		<path class="st0" d="M11.5,4.4c-0.1,0.1-0.6,0.7-1.6,1.7c-0.6,0.7-1,1.1-1.1,1.1c-0.3,0-1.5-0.6-3.5-1.9C4.2,6.5,3.5,7.1,3.3,7.1
			C3,7.1,1.9,6.4,0,5.2c0.5-0.6,1.3-1.6,2.5-2.9c1.7,1.3,2.7,1.9,3.1,1.9c-0.1,0,0.6-0.6,2.2-1.9L11.5,4.4z M17.9,26.9h-3.4
			c-0.2,0-0.4-0.1-0.6-0.3c-0.5-0.4-0.8-0.8-1-1.2c-0.2-0.8-0.4-2.1-0.8-3.7c-0.5,0.2-1,0.9-1.5,2c-0.5,1.1-1.2,1.8-1.8,1.8
			l-7.3-1.4v-0.7c0,0.2,0.6-1.5,1.8-5.2c0.3-0.8,1.4-1.9,3.4-3c1.3-0.7,2.6-1.5,3.7-2.3c0-0.2-0.1-0.4-0.3-0.8
			c-0.1-0.3-0.2-0.6-0.2-0.7c0,0.1,0.9-1.3,2.6-4.3c0.4,3.2,1.2,7.9,2.4,14.2c0.1,0.5,0.7,0.8,1.8,0.8h1.3V26.9z M11.8,20.2v-0.9
			c0-0.6-0.3-2.2-0.8-4.5c-0.5,0.2-0.8,0.4-0.9,0.8c-0.4,1-1.1,1.9-2.2,2.5c-0.8,0.4-1.7,0.8-2.5,1.1c2,0.6,3.2,0.9,3.7,0.9H11.8z"
			/>
		<path class="st0" d="M48,26.9h-6.5L41,23.1h-6.5c-0.2,0-0.6,0.1-1.2,0.4c-1.2,0.7-2.9,1.6-5.2,2.9c-0.7,0.3-1.3,0.5-1.6,0.5H16.2
			v-4.8h11.2c0.2,0,0.6-0.1,1.2-0.2c1.5-0.5,2.8-1,3.9-1.7c-0.3-0.1-1.8-0.7-4.5-1.6c-1.3-0.5-2.2-0.7-2.6-0.7
			c-0.8,0-1.6,0.2-2.4,0.5c-0.4,0.2-0.9,0.5-1.6,0.9c0.5-1.3,1-2.3,1.5-3c1.4-1.9,2.7-2.9,3.9-3c0.3,0,0.7,0,1.2,0
			c0.8,0,1.4,0,1.8,0.1c0.3,0.1,0.7,0.2,1.3,0.4c4.8,2.6,9.7,4.1,14.7,4.3c-0.2,0.6-0.6,1.9-1.2,3.9H48V26.9z"/>
		<path class="st0" d="M62.3,26.9h-3c-0.7,0-1.4-0.4-2.2-1.3c-0.2-0.2-0.5-0.8-0.8-1.7l-1.7,3h-8.8v-4.8h9.8
			c0.3-0.5,0.4-1.3,0.4-2.4c0-1.1,0-1.8,0.2-2.2c0.2-0.6,0.7-1.3,1.4-2c0.6-0.5,1.1-1.1,1.7-1.7l-0.5,5.7c0,0.3,0,0.5,0.1,0.6
			c0.1,0.5,0.4,0.9,0.9,1.3c0.5,0.4,0.9,0.6,1.3,0.6h1.1V26.9z M60.1,6.4C59.7,7,58.9,8,57.8,9.2c-0.5,0.2-0.6,0.3-0.5,0.3
			c-0.4,0-1.7-0.6-3.7-1.9c-1.5,1.3-2.2,1.9-2.1,1.9c-0.1,0-0.4-0.1-0.8-0.3c-0.8-0.3-1.9-0.9-3-1.8c0.2-0.4,0.7-1,1.5-1.8
			c0.8-0.8,1.2-1.2,1.3-1.2c0.1,0,0.5,0.2,1.2,0.7c0.7,0.5,1.2,0.8,1.5,0.9c0.3,0.1,0.5,0.2,0.6,0.2c0.1,0,0.5-0.2,1-0.7
			c0.8-0.6,1.2-1,1.4-1.2L60.1,6.4z"/>
		<path class="st0" d="M82,26.9H60.5v-4.8h6.6c0-0.6,0.1-1.3,0.3-2.2c1.3-1.7,2.8-3.2,4.6-4.7c2.3-1.8,4.1-2.7,5.5-2.7
			c1,0,1.7,0.6,2.2,1.8c0.4,1,0.6,2,0.6,3.1c0,0.6,0,1.1-0.1,1.3c-0.4,0.7-1.1,1.8-1.9,3.3H82V26.9z M76.4,6.8
			c-1.1,1-2.2,1.9-3.3,2.6l-3-2.5C72,5,73,4,73.2,4C73.3,4,74.4,4.9,76.4,6.8z M76.9,21c0-0.7-0.1-1.2-0.2-1.4
			c-0.4-0.9-0.8-1.6-1.3-1.9c-0.4-0.3-0.9-0.4-1.3-0.4c-0.4,0-1.1,0.2-2.2,0.7c-1.2,0.6-1.9,1.1-1.9,1.6c0,0.7,0.5,1.3,1.6,1.8
			c0.9,0.5,1.6,0.7,2.1,0.7c0.7,0,1.5-0.2,2.4-0.6C76.5,21.4,76.7,21.2,76.9,21z"/>
		<path class="st0" d="M94.8,7.1c-0.2,0.4-0.5,0.9-1.1,1.6c-0.1,0.1-0.9,1.1-2.4,3c-0.1,0.1-0.1,0.3-0.1,0.5l1,8.4l-1.1,6.1
			c-0.1,0-0.2,0-0.4,0.1c-0.2,0.1-0.3,0.1-0.5,0.1H80v-4.8h8.9c0.1-0.6,0.2-1.1,0.2-1.5c0-0.7-0.2-2.1-0.5-4.1
			c-0.3-1.8-0.8-4.5-1.6-8.1l-1.8-1.4c1.1-2.3,2.3-4.3,3.4-5.8c0,0.8,0.1,1.5,0.4,1.9c0.2,0.2,1,0.8,2.5,1.8
			C92.6,5.8,93.7,6.4,94.8,7.1z"/>
		<path class="st0" d="M105.8,17.9c0,3.5-0.8,6.6-2.5,9l-2.2-18.7c0-0.3,0.5-1.3,1.5-3c0.9-1.4,1.5-2.4,2-3L105.8,17.9z"/>
		<path class="st0" d="M132.4,22.6c0,2.3-0.7,4.9-2.2,7.8c-1.8,3.5-3.9,5.3-6.3,5.3c-1,0-2.9-0.5-5.6-1.6c-2.7-1.1-4.2-1.8-4.6-2.3
			v-0.5c0.1-0.1,0.3-0.2,0.5-0.2c0.1,0,0.9,0.2,2.4,0.7c1.5,0.5,2.5,0.7,3.1,0.7c1.2,0,3.2-1.1,6-3.3c2.9-2.4,4.3-4.3,4.3-5.9
			c0-0.6-0.7-1.6-2.2-3c-1.2-1.2-2.1-1.9-2.5-2.1l1.7-4.9c1.6,1,3,2.4,4,4.2C131.9,19.3,132.4,20.9,132.4,22.6z"/>
		<path class="st0" d="M144.4,26.9h-6.8l-2.1-22.4c0-0.2,0.2-0.5,0.7-1c0.7-0.9,1.6-2,2.8-3.1c0.1,1,0.3,2.4,0.4,4.3
			c0.7,7.9,1.3,13.4,1.8,16.4c0,0.2,0.2,0.3,0.5,0.4c0.2,0,0.4,0.2,0.8,0.3c0.4,0.2,0.7,0.3,0.9,0.3h1V26.9z"/>
		<path class="st0" d="M176.2,26.9h-33.6v-4.8h6.9c0.4,0,0.8-0.3,1.2-0.9c0.4-0.6,0.5-1.1,0.5-1.5c-0.5-3.6-0.8-6.4-1-8.2
			c-0.3-2.1-0.7-3.9-1.2-5.3c0,0-0.2-0.2-0.5-0.6c-0.3-0.4-0.5-0.7-0.5-1c0-0.2,0.1-0.6,0.4-1.2c0.3-0.5,1.1-1.7,2.4-3.4
			c0.1,0,0.2,0,0.3,0.1c0,0.4,0.2,0.8,0.6,1.4c0.5,0.8,1.3,1.5,2.4,2.2c0.8,0.5,1.7,1,2.6,1.4c-0.4,0.9-0.9,1.8-1.3,2.7
			c-0.6,1.1-1.4,1.7-2.4,1.7c0.5,2.2,0.8,4,0.8,5.6c0,0.1-0.1,0.8-0.4,2c-0.3,1.4-0.5,2.4-0.5,3c1-0.7,2.6-1.7,4.6-3
			c1-0.6,2.6-1.4,5-2.5c1.7-0.8,3-1.3,4-1.6c0.5-0.1,0.8-0.2,1-0.2c0.3,0,0.9,0.2,1.8,0.5c1,0.4,2.1,1.2,3.2,2.4
			c1.3,1.3,2,2.5,2.1,3.6l-1.1,2.9h2.6V26.9z M169.6,21.4v-0.6c-1-1.8-2.3-2.9-3.8-3.2c-0.2,0-0.5-0.1-1.1-0.1
			c-0.7,0-1.6,0.1-2.8,0.4c-0.7,0.2-1.8,0.7-3.2,1.6c-1.2,0.7-2.4,1.4-3.6,2.1H169c0.1,0,0.2,0,0.4-0.1
			C169.5,21.4,169.6,21.4,169.6,21.4z"/>
		<path class="st0" d="M193.1,19.8l-1.1,7.1h-17.7v-4.8h15.9c0.1-0.2,0.1-0.3,0.1-0.6c0-0.6-0.2-1.5-0.5-2.6c-0.4-1.3-0.7-2-1.1-2.2
			c-1.3,1.9-3,2.8-5.1,2.8c-1,0-2-0.3-3-0.8c-1.3-0.7-2-1.6-2-2.7c0-1.5,1-3.4,3.1-5.5c2.1-2.1,3.9-3.2,5.5-3.2c1.4,0,2.7,1.4,4,4.1
			c0.6,1.4,1.1,2.8,1.5,4.3C192.8,16.5,193,17.9,193.1,19.8z M191.4,3.4c-1.7,2-2.7,3-3.1,3c-0.1,0-0.7-0.3-1.8-0.9
			c-1.1-0.6-1.8-0.9-1.9-0.9c-0.2,0-0.9,0.6-2,1.8c-1.1-0.2-2.4-0.8-4-2c0.7-1,1.6-2,2.7-3.1c2,1.3,3.2,2,3.6,2c0.1,0,0.5-0.3,1-0.8
			c0.8-0.7,1.3-1.1,1.4-1.2L191.4,3.4z M187.6,14.7c-0.4-0.6-0.9-1.3-1.6-1.9c-0.7-0.6-1.3-1-1.8-1c-0.8,0-1.6,0.6-2.4,1.7
			c1.7,1.1,2.8,1.6,3.2,1.6L187.6,14.7z"/>
	</g>
</g>
</svg>
