<?xml version="1.0" encoding="utf-8"?>
<!-- Generator: Adobe Illustrator 22.1.0, SVG Export Plug-In . SVG Version: 6.00 Build 0)  -->
<svg version="1.1" id="Layer_1" xmlns="http://www.w3.org/2000/svg" xmlns:xlink="http://www.w3.org/1999/xlink" x="0px" y="0px"
	 viewBox="0 0 59 59" style="enable-background:new 0 0 59 59;" xml:space="preserve">
<style type="text/css">
	.st0{fill:#131313;}
	.st1{fill:#010101;}
	.st2{fill:#1E1E1E;}
	.st3{fill:#2D2E2D;}
	.st4{fill:#FDC20F;}
	.st5{fill:#F99D1C;}
	.st6{fill:#FFD215;}
	.st7{fill:#FFE36F;}
</style>
<g>
	<g>
		<path class="st0" d="M59,29.5C59,45.8,45.8,59,29.5,59C13.2,59,0,45.8,0,29.5C0,13.2,13.2,0,29.5,0C45.8,0,59,13.2,59,29.5z"/>
		<path class="st1" d="M33,54.8c-16.3,0-29.5-13.2-29.5-29.5c0-6.1,1.9-11.8,5.1-16.5C3.3,14.1,0,21.4,0,29.5
			C0,45.8,13.2,59,29.5,59c10.2,0,19.1-5.1,24.4-13C48.6,51.4,41.2,54.8,33,54.8z"/>
		<path class="st2" d="M15.4,7.5c0,0,14.7-11,30,0.6c7.2,5.2,14.5,17.8,9.2,32.1c-5.6,9.8-14.1,10-17.8,8.7
			c-3.7-1.4,0.3-3.1,3.7-5.5c5.2-3.6,10.2-16.9,3.3-24.2c-7.4-7.9-15.4-9-23.4-4.7c-7.4,5.6-6.4,11.4-9.4,9.3
			C8,21.7,9,11.4,15.4,7.5z"/>
		<path class="st3" d="M53.2,22.9c-0.7,0.4-2.7-1.6-4.3-4.5c-1.6-2.9-2.3-5.6-1.6-6c0.7-0.4,2.7,1.6,4.3,4.5
			C53.3,19.8,54,22.5,53.2,22.9z"/>
	</g>
	<path class="st4" d="M44.3,29.5c0,8.2-6.6,14.8-14.8,14.8c-8.2,0-14.8-6.6-14.8-14.8s6.6-14.8,14.8-14.8
		C37.7,14.7,44.3,21.3,44.3,29.5z"/>
	<path class="st5" d="M33.9,40.1c-8.2,0-14.8-6.6-14.8-14.8c0-3.1,1-6,2.6-8.4c-4.2,2.6-7.1,7.3-7.1,12.6c0,8.2,6.6,14.8,14.8,14.8
		c5.1,0,9.5-2.5,12.2-6.4C39.4,39.3,36.8,40.1,33.9,40.1z"/>
	<path class="st6" d="M26.6,16.8c0,0,7.3-1.3,12.8,4.6c3.8,4.5,2.7,10.7,1.9,13c-0.9,2.4-7.4,4-12.5,1.4
		C23.7,33.2,17.9,19.9,26.6,16.8z"/>
	<path class="st7" d="M39.7,26.4c-0.8,0.8-3-0.1-4.8-2c-1.8-1.9-2.6-4.1-1.8-4.9c0.8-0.8,3,0.1,4.8,2C39.8,23.4,40.6,25.6,39.7,26.4
		z"/>
</g>
</svg>
