<?xml version="1.0" encoding="utf-8"?>
<!-- Generator: Adobe Illustrator 22.1.0, SVG Export Plug-In . SVG Version: 6.00 Build 0)  -->
<svg version="1.1" id="Layer_1" xmlns="http://www.w3.org/2000/svg" xmlns:xlink="http://www.w3.org/1999/xlink" x="0px" y="0px"
	 viewBox="0 0 58.6 58.6" style="enable-background:new 0 0 58.6 58.6;" xml:space="preserve">
<style type="text/css">
	.st0{fill:#131313;}
	.st1{fill:#010101;}
	.st2{fill:#1E1E1E;}
	.st3{fill:#2D2E2D;}
	.st4{fill:#2CA3DC;}
	.st5{fill:#1495C6;}
	.st6{fill:#25B4E8;}
	.st7{fill:#434343;}
</style>
<g>
	<g>
		<path class="st0" d="M58.6,29.3c0,16.2-13.1,29.3-29.3,29.3C13.1,58.6,0,45.5,0,29.3C0,13.1,13.1,0,29.3,0
			C45.5,0,58.6,13.1,58.6,29.3z"/>
		<path class="st1" d="M32.7,54.4c-16.2,0-29.3-13.1-29.3-29.3c0-6.1,1.9-11.7,5-16.4C3.2,14,0,21.3,0,29.3
			c0,16.2,13.1,29.3,29.3,29.3c10.1,0,19-5.1,24.3-12.9C48.2,51.1,40.9,54.4,32.7,54.4z"/>
		<path class="st2" d="M15.3,7.4c0,0,14.6-10.9,29.8,0.6c7.1,5.2,14.4,17.7,9.1,31.9c-5.5,9.7-14,10-17.7,8.6
			c-3.7-1.4,0.3-3.1,3.7-5.4c5.2-3.6,10.1-16.7,3.3-24c-7.4-7.9-15.3-9-23.3-4.7c-7.4,5.5-6.4,11.3-9.4,9.2
			C7.9,21.5,8.9,11.3,15.3,7.4z"/>
		<path class="st3" d="M52.9,22.8c-0.7,0.4-2.7-1.6-4.3-4.5c-1.6-2.9-2.3-5.6-1.6-6c0.7-0.4,2.7,1.6,4.3,4.5
			C52.9,19.7,53.6,22.3,52.9,22.8z"/>
	</g>
	<g>
		<path class="st4" d="M44,29.3C44,37.4,37.4,44,29.3,44c-8.1,0-14.7-6.6-14.7-14.7c0-8.1,6.6-14.7,14.7-14.7
			C37.4,14.6,44,21.2,44,29.3z"/>
		<path class="st5" d="M33.7,39.8c-8.1,0-14.7-6.6-14.7-14.7c0-3.1,1-6,2.6-8.3c-4.2,2.6-7,7.2-7,12.5c0,8.1,6.6,14.7,14.7,14.7
			c5,0,9.4-2.5,12.1-6.4C39.1,39,36.5,39.8,33.7,39.8z"/>
		<path class="st6" d="M26.4,16.7c0,0,7.3-1.3,12.7,4.6c3.8,4.5,2.7,10.6,1.8,12.9c-0.9,2.3-7.4,4-12.4,1.4
			C23.5,32.9,17.8,19.7,26.4,16.7z"/>
		<ellipse transform="matrix(0.2663 -0.9639 0.9639 0.2663 -6.7416 49.714)" class="st2" cx="29.3" cy="29.3" rx="10.8" ry="10.8"/>
		<path class="st3" d="M29.3,18.5c-2.7,0-5.1,1-7,2.6c-1.4,5.1,2.6,12.6,6.3,14.5c2.9,1.5,6.3,1.6,8.8,1c1.7-1.9,2.8-4.5,2.8-7.2
			C40.1,23.3,35.3,18.5,29.3,18.5z"/>
		<path class="st7" d="M37.6,27.8c-0.8,0.8-3-0.1-4.8-2c-1.8-1.9-2.6-4.1-1.7-4.8c0.8-0.8,3,0.1,4.8,2C37.6,24.8,38.4,27,37.6,27.8z
			"/>
		<path class="st0" d="M29.3,40.1c1,0,1.9-0.1,2.9-0.4C25,39,19.4,33.1,19,25.8c-0.4,1.1-0.6,2.3-0.6,3.5
			C18.5,35.3,23.3,40.1,29.3,40.1z"/>
	</g>
</g>
</svg>
