<?xml version="1.0" encoding="utf-8"?>
<!-- Generator: Adobe Illustrator 22.1.0, SVG Export Plug-In . SVG Version: 6.00 Build 0)  -->
<svg version="1.1" id="Layer_1" xmlns="http://www.w3.org/2000/svg" xmlns:xlink="http://www.w3.org/1999/xlink" x="0px" y="0px"
	 viewBox="0 0 75.3 75.3" style="enable-background:new 0 0 75.3 75.3;" xml:space="preserve">
<style type="text/css">
	.st0{fill:#131313;}
	.st1{fill:#010101;}
	.st2{fill:#1E1E1E;}
	.st3{fill:#2D2E2D;}
	.st4{fill:#FDC20F;}
	.st5{fill:#F99D1C;}
	.st6{fill:#FFD215;}
	.st7{fill:#434343;}
</style>
<g>
	<g>
		<path class="st0" d="M75.3,37.7c0,20.8-16.9,37.7-37.7,37.7C16.9,75.3,0,58.5,0,37.7C0,16.9,16.9,0,37.7,0
			C58.5,0,75.3,16.9,75.3,37.7z"/>
		<path class="st1" d="M42.1,69.9c-20.8,0-37.7-16.9-37.7-37.7c0-7.8,2.4-15.1,6.5-21.1C4.2,18,0,27.3,0,37.7
			c0,20.8,16.9,37.7,37.7,37.7c13,0,24.4-6.6,31.2-16.6C62,65.7,52.6,69.9,42.1,69.9z"/>
		<path class="st2" d="M19.7,9.5c0,0,18.8-14.1,38.3,0.8c9.2,6.6,18.5,22.8,11.7,41c-7.1,12.5-18,12.8-22.8,11.1
			c-4.7-1.7,0.4-3.9,4.7-7c6.6-4.6,13-21.5,4.3-30.9C46.5,14.4,36.3,13,26,18.5c-9.5,7.1-8.2,14.6-12,11.9
			C10.2,27.7,11.5,14.6,19.7,9.5z"/>
		<path class="st3" d="M68,29.3c-1,0.5-3.4-2-5.5-5.7c-2.1-3.7-3-7.2-2-7.7c1-0.5,3.4,2,5.5,5.7C68,25.3,69,28.7,68,29.3z"/>
	</g>
	<g>
		<path class="st4" d="M56.6,37.7c0,10.4-8.5,18.9-18.9,18.9c-10.4,0-18.9-8.5-18.9-18.9c0-10.4,8.5-18.9,18.9-18.9
			C48.1,18.8,56.6,27.2,56.6,37.7z"/>
		<path class="st5" d="M43.4,51.2c-10.4,0-18.9-8.5-18.9-18.9c0-4,1.2-7.7,3.3-10.7c-5.4,3.3-9,9.3-9,16.1
			c0,10.4,8.5,18.9,18.9,18.9c6.5,0,12.2-3.2,15.6-8.2C50.3,50.2,47,51.2,43.4,51.2z"/>
		<path class="st6" d="M34,21.5c0,0,9.4-1.6,16.4,5.9c4.9,5.8,3.5,13.6,2.4,16.6c-1.1,3-9.5,5.1-16,1.7C30.2,42.4,22.8,25.4,34,21.5
			z"/>
		<path class="st2" d="M51.6,37.7c0,7.7-6.2,13.9-13.9,13.9c-7.7,0-13.9-6.2-13.9-13.9c0-7.7,6.2-13.9,13.9-13.9
			C45.3,23.7,51.6,30,51.6,37.7z"/>
		<path class="st0" d="M37.7,51.6c1.3,0,2.5-0.2,3.7-0.5c-9.2-1-16.4-8.6-16.8-17.9c-0.5,1.4-0.8,2.9-0.8,4.5
			C23.7,45.3,30,51.6,37.7,51.6z"/>
		<path class="st3" d="M37.7,23.7c-3.4,0-6.6,1.3-9,3.3c-1.8,6.6,3.4,16.2,8.1,18.6c3.7,1.9,8,2.1,11.3,1.3c2.2-2.5,3.6-5.7,3.6-9.3
			C51.6,30,45.3,23.7,37.7,23.7z"/>
		<path class="st7" d="M48.3,35.7c-1.1,1-3.8-0.1-6.1-2.5c-2.3-2.4-3.3-5.2-2.2-6.2c1.1-1,3.8,0.1,6.1,2.5
			C48.4,31.9,49.4,34.7,48.3,35.7z"/>
	</g>
</g>
</svg>
