<?xml version="1.0" encoding="utf-8"?>
<!-- Generator: Adobe Illustrator 22.0.1, SVG Export Plug-In . SVG Version: 6.00 Build 0)  -->
<svg version="1.1" id="Layer_1" xmlns="http://www.w3.org/2000/svg" xmlns:xlink="http://www.w3.org/1999/xlink" x="0px" y="0px"
	 viewBox="0 0 86.2 86.2" style="enable-background:new 0 0 86.2 86.2;" xml:space="preserve">
<style type="text/css">
	.st0{fill:#235958;}
</style>
<g>
	<path class="st0" d="M67.1,68.2l-16,7.7h-1.9c-6.9,0-12.4-1.3-16.5-3.9c-4.9-3.1-7.4-8-7.4-14.5c0-9,4.5-16.5,13.6-22.4l-4.9-1
		c-1.7,0-2.8,0.5-3.3,1.6h-5c0.8-3.1,1.6-5.3,2.4-6.7c1.4-2.1,3.4-3.2,6-3.2c1.9,0,4.5,0.3,7.7,0.9c4,0.7,6.6,1.1,7.6,1.2
		c1.7,0,4.2,0.1,7.5,0.4l-1.3,6.5c-3,0-5.8,0.2-8.4,0.7c-4.7,0.9-8.8,2.8-12.2,5.7c-4,3.4-6,7.4-6,11.9c0,5.4,3.2,9.5,9.5,12.1
		C43.1,67.1,48.6,68,55,68c1.7,0,5.6-0.2,11.9-0.7L67.1,68.2z M47.9,50.9L45.1,56l-4.9-3.7l2.9-5.1L47.9,50.9z"/>
</g>
</svg>
