<?xml version="1.0" encoding="utf-8"?>
<!-- Generator: Adobe Illustrator 22.0.1, SVG Export Plug-In . SVG Version: 6.00 Build 0)  -->
<svg version="1.1" id="Layer_1" xmlns="http://www.w3.org/2000/svg" xmlns:xlink="http://www.w3.org/1999/xlink" x="0px" y="0px"
	 viewBox="0 0 86.2 86.2" style="enable-background:new 0 0 86.2 86.2;" xml:space="preserve">
<style type="text/css">
	.st0{fill:#235958;}
</style>
<path class="st0" d="M65.4,40.2L65.4,40.2c-0.9,0.1-1.6,0.1-2.1,0.1c-2-0.1-3.4-0.6-4.3-1.4c-1.4-1.3-2.3-2.9-2.8-5h-0.9
	c-0.1,1.8-0.2,3-0.6,3.6c-0.5,1-1.6,1.5-3.1,1.5c-1.9,0-3.2-0.2-3.9-0.7c-2-1.4-3-2.7-3-3.9l-1-0.1c-0.3,2.6-0.5,4-0.6,4.2
	c-0.4,0.9-1.7,1.3-3.9,1.3h-2c-1.4,0-2.4-0.4-3.1-1.3c-0.7-0.9-1.3-1.8-2-2.8c-1.6,3.2-2.8,5.6-3.5,7.2c0.2,0.4,0.9,1.4,2.2,3.2
	c1,1.3,1.4,2.4,1.4,3.3c0,0.5-0.1,1.4-0.4,2.9c-0.6,2.9-1.8,4.9-3.5,6c-2.4,1.4-5.8,2.1-10.1,2.1c-4.1,0-7.1-0.6-8.8-1.9
	c-1.3-1-2-3.1-2-6.2c0-1.9,0.8-4.6,2.5-7.9l-1-0.5c-3.5,6.6-5.3,11.6-5.3,15c0,3.2,1.2,5.7,3.7,7.4c2.2,1.6,5,2.3,8.4,2.3
	c6.3,0,11-1.8,14-5.5c2.5-3.1,4.2-7.9,5.1-14.6h2.5l0,0c3.6-0.2,6.1-2,7.6-5.3c1,2.9,2.5,4.4,4.7,4.4c2.6,0,4.6-2.3,6.1-6.8
	c0.8,2.4,1.5,4.2,2.3,5.2c1.2,1.7,2.8,2.5,4.7,2.5h2.7h2.7h11.8v-8.4L65.4,40.2L65.4,40.2z"/>
</svg>
