<?xml version="1.0" encoding="utf-8"?>
<!-- Generator: Adobe Illustrator 19.2.0, SVG Export Plug-In . SVG Version: 6.00 Build 0)  -->
<svg version="1.1" id="Layer_1" xmlns="http://www.w3.org/2000/svg" xmlns:xlink="http://www.w3.org/1999/xlink" x="0px" y="0px"
	 viewBox="0 0 171.2 46" style="enable-background:new 0 0 171.2 46;" xml:space="preserve">
<style type="text/css">
	.st0{fill:#097B70;}
	.st1{fill:none;stroke:#D5D5D5;stroke-width:0.6708;stroke-miterlimit:10;}
</style>
<g>
	<g>
		<path class="st0" d="M73.5,33.8h-1.6c-0.3,0-0.5-0.1-0.8-0.2c-0.5-0.2-0.8-0.7-1.2-1.3c-0.4-0.8-0.7-2-0.8-3.5
			c-0.5,0.7-1,1.1-1.3,1.4c-0.4,0.4-0.8,0.6-1.1,0.6c-0.2,0-0.3,0-0.6-0.1l-1.5-0.3c-0.6-0.1-1-0.2-1.1-0.3
			c-0.1-0.1-0.2-0.2-0.2-0.3c0-0.2,0.3-0.9,0.8-2c0.6-1.1,1-1.8,1.2-2.1c0.2-0.2,0.6-0.5,1.1-0.8c0.3-0.2,0.7-0.5,1.3-0.8l0.6-0.4
			c0-0.1,0-0.2-0.1-0.3c0-0.1,0-0.2,0-0.3c0-0.3,0.1-0.7,0.2-1.1c0.1-0.5,0.4-1,0.7-1.7l1.1,7.4c0.2,1.2,0.4,2,0.7,2.4
			c0.2,0.3,0.5,0.4,0.8,0.4h1.6V33.8z M70.7,17.1l-1.3,2.2l-1.7-1l-1,1.9L64.5,19l1.2-2.1l1.8,0.9l1-1.8L70.7,17.1z M68.8,27.1
			l-0.2-1.4c-0.3,0.1-0.5,0.2-0.6,0.3c-0.4,0.2-0.8,0.4-1,0.6c-0.2,0.2-0.4,0.3-0.5,0.4c-0.2,0.2-0.2,0.3-0.2,0.4
			c0,0.1,0.1,0.2,0.4,0.3s0.6,0.1,0.8,0.1c0.2,0,0.4-0.1,0.5-0.1C68.2,27.5,68.5,27.3,68.8,27.1z"/>
		<path class="st0" d="M79.2,33.8h-6.6v-3.2h5.1l-1.4-8.1L75.6,22c0-0.5,0.1-0.9,0.2-1.4c0.2-0.6,0.5-1.3,0.9-2.2l0.5,0.3
			c0,0,0,0.2,0,0.4c0,0.3,0.2,0.5,0.5,0.8c0.3,0.2,0.8,0.5,1.4,0.7c-0.1,0.5-0.2,1-0.3,1.5c-0.1,0.5-0.3,0.9-0.5,1.3l-0.4-0.2
			l1.3,7.4V33.8z"/>
		<path class="st0" d="M84.9,33.8h-1.7c-0.9,0-1.6-0.4-2-1.1c-0.5-0.8-0.7-2.3-0.7-4.3V25c0-0.8-0.1-1.4-0.3-1.8
			c-0.1-0.2-0.3-0.5-0.7-0.9l1.3-3c0.5,0.6,0.8,1.3,1,1.9c0.2,0.7,0.3,1.6,0.3,2.8v2.3c0,1.7,0.1,2.8,0.3,3.5
			c0.2,0.5,0.5,0.8,0.8,0.8h1.7V33.8z"/>
		<path class="st0" d="M97.7,33.8H84.1v-3.2h8.5c-1-1-1.9-1.7-2.7-2.1c-0.7-0.4-1.4-0.6-2.1-0.6c-0.2,0-0.4,0-0.6,0
			c-0.2,0-0.4,0.1-0.7,0.1c0.4-1,0.9-1.7,1.5-2.2c0.5-0.5,1.1-0.7,1.8-0.7c0.5,0,1,0.1,1.5,0.4c0.5,0.3,1,0.7,1.6,1.2
			c0.5,0.4,1.2,1.1,2,2.1c0.6,0.7,1.1,1.1,1.4,1.3c0.3,0.2,0.8,0.4,1.4,0.5V33.8z"/>
		<path class="st0" d="M103.4,33.8h-6.6v-3.2h5.1l-1.4-8.1L99.8,22c0-0.5,0.1-0.9,0.2-1.4c0.2-0.6,0.5-1.3,0.9-2.2l0.5,0.3
			c0,0,0,0.2,0,0.4c0,0.3,0.2,0.5,0.5,0.8c0.3,0.2,0.8,0.5,1.4,0.7c-0.1,0.5-0.2,1-0.3,1.5c-0.1,0.5-0.3,0.9-0.5,1.3l-0.4-0.2
			l1.3,7.4V33.8z"/>
		<path class="st0" d="M107.8,30.3c0,0.7-0.1,1.4-0.3,1.9c-0.2,0.6-0.5,1.4-1,2.4l-0.7-0.3c0.2-1,0.3-1.8,0.3-2.5
			c0-0.5,0-1.2-0.1-2.1c-0.1-0.9-0.2-1.9-0.3-2.8c-0.1-0.9-0.3-2-0.6-3.3c-0.1-0.4-0.1-0.8-0.1-0.9c0-0.2,0.1-0.7,0.4-1.3
			c0.2-0.6,0.6-1.3,1-2.2l0.7,4.2c0.3,1.6,0.4,3,0.5,4.2C107.8,28.6,107.8,29.5,107.8,30.3z"/>
	</g>
	<rect x="0.3" y="0.3" class="st1" width="170.5" height="45.4"/>
</g>
</svg>
