<?xml version="1.0" encoding="utf-8"?>
<!-- Generator: Adobe Illustrator 22.0.1, SVG Export Plug-In . SVG Version: 6.00 Build 0)  -->
<svg version="1.1" id="Layer_1" xmlns="http://www.w3.org/2000/svg" xmlns:xlink="http://www.w3.org/1999/xlink" x="0px" y="0px"
	 viewBox="0 0 171.2 46" style="enable-background:new 0 0 171.2 46;" xml:space="preserve">
<style type="text/css">
	.st0{fill:#542C0B;}
</style>
<g>
	<path class="st0" d="M29.6,16.9h-1.8c-0.8,1.2-1.5,2.4-2,3.8c-0.6,1.6-0.9,3.3-0.9,5.1c0,1.4,0.2,2.9,0.7,4.5
		c0.5,1.5,1.2,3,2.2,4.5h1.8c-0.5-1.2-0.9-2.1-1.1-2.7c-0.3-1-0.6-2-0.8-3C27.5,28,27.4,27,27.4,26c0-1.5,0.2-2.9,0.5-4.2
		C28.1,20.4,28.7,18.8,29.6,16.9z"/>
	<polygon class="st0" points="51.2,17.9 49,16.8 47.9,18.9 50.1,20 	"/>
	<polygon class="st0" points="53.8,19.3 55.1,20 56.2,18.1 54.5,17.2 53.7,18.7 52.3,18 51.3,19.8 53.1,20.7 	"/>
	<polygon class="st0" points="54.4,15.9 52.6,15 51.7,16.9 53.4,17.8 	"/>
	<path class="st0" d="M68,19.9c0.1-0.3,0.3-0.6,0.4-1s0.2-0.8,0.2-1.2c-0.5-0.2-0.9-0.4-1.1-0.6c-0.3-0.2-0.4-0.4-0.4-0.6
		s0-0.3,0-0.3L66.7,16c-0.3,0.6-0.6,1.2-0.7,1.7c-0.1,0.4-0.2,0.7-0.2,1.1l0.6,0.4l1.1,6.3h-3.4c-0.1-0.7-0.3-1.5-0.7-2.3
		c-0.5-1-0.9-1.4-1.2-1.4S61.4,22,61,22.5c-0.5,0.5-1,1.2-1.4,1.9c-0.2,0.4-0.5,0.7-0.9,0.9c-0.3,0.1-0.8,0.2-1.3,0.2h-1.2
		c0-1.1-0.1-1.9-0.3-2.5s-0.5-1.1-1-1.7l-0.7,2.2c0.3,0.4,0.6,0.7,0.6,0.8c0.2,0.3,0.3,0.6,0.4,1.1H51c0-1.1-0.1-1.9-0.3-2.5
		s-0.5-1.1-1-1.7L49,23.4c0.3,0.4,0.6,0.7,0.6,0.8c0.2,0.3,0.3,0.6,0.4,1.1h-4h-0.6H45c-0.5,0-1.1,0.2-1.7,0.6
		c-0.6,0.3-1,0.8-1.4,1.3c-0.2,0.2-0.3,0.5-0.4,0.9c-0.1,0.4-0.2,0.7-0.2,1.1c0,0.2,0.1,0.3,0.3,0.3s0.6,0.1,1.3,0.1
		c0.3,0,0.6,0,0.9,0s0.5,0,0.5,0.1c0,0.2-0.3,0.4-0.9,0.8c-0.6,0.3-1.3,0.6-2.1,0.8c-0.9,0.2-1.7,0.4-2.5,0.4
		c-0.6,0-1.1-0.2-1.5-0.5s-0.5-0.8-0.5-1.3c0-0.6,0.1-1.1,0.3-1.7s0.6-1.4,1.2-2.4l-0.5-0.4c-0.9,1.4-1.5,2.5-1.7,3.4
		c-0.2,0.7-0.4,1.6-0.4,2.5c0,0.9,0.3,1.6,0.8,2c0.5,0.5,1.3,0.7,2.3,0.7c0.9,0,1.8-0.2,2.8-0.5c0.8-0.3,1.6-0.6,2.3-1
		c0.6-0.4,1-0.7,1.1-1c0.2-0.4,0.3-0.8,0.4-1.3c0.1-0.5,0.2-0.9,0.2-1.2c0-0.2-0.2-0.4-0.5-0.5s-0.5-0.2-0.5-0.2
		c0-0.1,0.1-0.1,0.2-0.2c0.1,0,0.3-0.1,0.6-0.1h0.1H46h4.5h0.6h4.5h0.6h1.2c0.4,0,0.8,0,1-0.1c0.5-0.2,1-0.5,1.3-1.1
		c0.6,0.3,1.3,0.6,2,0.8c0.6,0.2,1.1,0.3,1.6,0.3V28h5.1v-2.5l-1-5.7L68,19.9z M62.3,25.3c-0.1,0-0.3-0.1-0.8-0.3
		c-0.2-0.1-0.4-0.2-0.7-0.3c0.2-0.6,0.4-0.8,0.6-0.8c0.2,0,0.5,0.2,0.8,0.6c0.3,0.3,0.4,0.6,0.4,0.7C62.5,25.3,62.4,25.3,62.3,25.3z
		"/>
	<polygon class="st0" points="74,30.9 76.2,32.1 77.3,30 75.2,28.8 	"/>
	<path class="st0" d="M77,21.4l-0.7,2.2c0.3,0.4,0.6,0.7,0.6,0.8c0.2,0.3,0.3,0.6,0.4,1.1h-4.2h-0.6h-0.6c-0.3,0-0.5-0.2-0.6-0.6
		c-0.2-0.5-0.3-1.4-0.3-2.7v-1.8c0-0.9-0.1-1.6-0.3-2.2c-0.1-0.5-0.4-1-0.8-1.5l-1,2.3c0.3,0.3,0.5,0.5,0.6,0.7
		c0.2,0.3,0.3,0.8,0.3,1.4v2.6c0,1.6,0.2,2.7,0.5,3.3c0.3,0.6,0.8,0.9,1.6,0.9h0.6h0.6h5.2v-2.4c0-1.1-0.1-2-0.3-2.6
		C77.8,22.5,77.5,21.9,77,21.4z"/>
	<polygon class="st0" points="92.4,20.3 93.8,21.1 94.8,19.2 93.1,18.2 92.3,19.7 90.9,19.1 90,20.9 91.7,21.8 	"/>
	<path class="st0" d="M121.2,19.9c0.1-0.3,0.3-0.6,0.4-1s0.2-0.8,0.2-1.2c-0.5-0.2-0.9-0.4-1.1-0.6c-0.3-0.2-0.4-0.4-0.4-0.6
		s0-0.3,0-0.3L120,16c-0.3,0.6-0.6,1.2-0.7,1.7c-0.1,0.4-0.2,0.7-0.2,1.1l0.6,0.4l1.1,6.3h-3.4c-0.1-0.7-0.3-1.5-0.7-2.3
		c-0.5-1-0.9-1.4-1.2-1.4c-0.3,0-0.8,0.2-1.2,0.7c-0.5,0.5-1,1.2-1.4,1.9c-0.2,0.4-0.5,0.7-0.9,0.9c-0.3,0.1-0.8,0.2-1.3,0.2h-1.2
		l-1-5.7l0.3,0.1c0.1-0.3,0.3-0.6,0.4-1s0.2-0.8,0.2-1.2c-0.5-0.2-0.9-0.4-1.1-0.6c-0.3-0.2-0.4-0.4-0.4-0.6s0-0.3,0-0.3l-0.4-0.2
		c-0.3,0.6-0.6,1.2-0.7,1.7c-0.1,0.4-0.2,0.7-0.2,1.1l0.6,0.4l1.1,6.3H105c-0.5-0.1-0.9-0.2-1.1-0.4c-0.2-0.2-0.6-0.5-1.1-1
		c-0.7-0.7-1.2-1.3-1.6-1.6c-0.5-0.4-0.9-0.8-1.3-1s-0.8-0.3-1.2-0.3c-0.5,0-1,0.2-1.4,0.6s-0.8,0.9-1.1,1.7
		c0.3-0.1,0.4-0.1,0.6-0.1c0.1,0,0.3,0,0.4,0c0.5,0,1.1,0.2,1.7,0.5s1.3,0.9,2.1,1.7h-6c-0.1-0.8-0.2-1.5-0.5-2.1
		c-0.4-1-0.9-1.4-1.6-1.4c-0.6,0-1.2,0.5-1.7,1.5c-0.5,0.9-0.7,1.8-0.7,2.7c0,0.6,0.2,1.1,0.6,1.4s0.9,0.5,1.6,0.5
		c0.3,0,0.8,0,1.4-0.1c0,0.1,0,0.2,0.1,0.3c0,0.1,0,0.2,0,0.3c0,0.6-0.5,1.2-1.5,1.7s-2.1,0.7-3.4,0.7c-1.4,0-2.5-0.2-3.3-0.6
		s-1.2-1-1.2-1.8c0-0.5,0.1-1.1,0.4-1.6s0.6-1.3,1.2-2.1l-0.6-0.4c-0.9,1.2-1.4,2.2-1.8,3c-0.3,0.7-0.4,1.6-0.4,2.5
		c0,1.1,0.5,1.9,1.4,2.4c0.9,0.6,2.2,0.8,4,0.8c2,0,3.6-0.4,4.8-1.3c0.5-0.4,0.8-0.8,1-1.2s0.2-1.2,0.2-2.4V28h9.3h0.6h3.8h0.6h1.2
		c0.4,0,0.8,0,1-0.1c0.5-0.2,1-0.5,1.3-1.1c0.6,0.3,1.3,0.6,2,0.8c0.6,0.2,1.1,0.3,1.6,0.3V28h5.1v-2.5l-1-5.7L121.2,19.9z M93,25.6
		c-0.1,0-0.2,0-0.4,0c-0.5,0-0.8-0.2-0.8-0.6c0-0.2,0-0.3,0.1-0.4s0.2-0.1,0.4-0.1c0.2,0,0.4,0.1,0.6,0.2c0.2,0.2,0.3,0.4,0.5,0.8
		C93.3,25.5,93.1,25.5,93,25.6z M115.5,25.3c-0.1,0-0.3-0.1-0.8-0.3c-0.2-0.1-0.4-0.2-0.7-0.3c0.2-0.6,0.4-0.8,0.6-0.8
		s0.5,0.2,0.8,0.6c0.3,0.3,0.4,0.6,0.4,0.7C115.7,25.3,115.6,25.3,115.5,25.3z"/>
	<path class="st0" d="M124.8,20l-0.6-3.3c-0.3,0.7-0.6,1.2-0.8,1.7c-0.2,0.5-0.3,0.8-0.3,1c0,0.1,0,0.4,0.1,0.7
		c0.2,1,0.4,1.8,0.5,2.6c0.1,0.7,0.2,1.4,0.2,2.2c0.1,0.7,0.1,1.3,0.1,1.7c0,0.5-0.1,1.1-0.2,1.9l0.6,0.2c0.4-0.8,0.6-1.4,0.8-1.8
		c0.1-0.5,0.2-1,0.2-1.5c0-0.6,0-1.3-0.1-2C125.2,22.4,125,21.3,124.8,20z"/>
	<path class="st0" d="M132.8,21.5c-0.6,0-1.1,0.5-1.6,1.4c-0.4,0.9-0.6,1.8-0.6,2.7c0,0.7,0.2,1.2,0.5,1.6c0.4,0.4,0.8,0.6,1.5,0.6
		c0.2,0,0.4,0,0.6-0.1c-0.7,0.9-1.5,1.5-2.2,1.9c-0.6,0.3-1.2,0.5-1.8,0.5c-0.4,0-0.8-0.1-1.2-0.2c-0.4-0.1-1-0.4-1.6-0.9l-0.4,0.5
		c1.3,1,2.2,1.6,2.8,1.9s1.2,0.5,1.7,0.5c0.9,0,1.8-0.5,2.7-1.6s1.4-2.1,1.4-3.2V25c0-1-0.2-1.8-0.5-2.4
		C133.7,21.9,133.3,21.5,132.8,21.5z M133.1,25.5c-0.4,0-0.7-0.1-1-0.2c-0.2-0.1-0.4-0.3-0.4-0.6c0-0.2,0.1-0.3,0.2-0.5
		c0.1-0.2,0.3-0.2,0.5-0.2c0.5,0,0.9,0.5,1.1,1.5C133.5,25.5,133.1,25.5,133.1,25.5z"/>
	<path class="st0" d="M144.4,21.1c-0.5-1.5-1.2-2.9-2.2-4.2h-1.8c0.8,1.9,1.4,3.5,1.7,4.8s0.5,2.7,0.5,4.2c0,0.7,0,1.4-0.1,2.1
		s-0.2,1.4-0.4,2.2c-0.2,0.8-0.4,1.4-0.6,2s-0.6,1.4-1.1,2.5h1.8c1.1-1.6,1.8-3.3,2.3-4.9c0.4-1.5,0.6-2.9,0.6-4.2
		C145.2,24.1,145,22.6,144.4,21.1z"/>
</g>
</svg>
