<?xml version="1.0" encoding="utf-8"?>
<!-- Generator: Adobe Illustrator 22.0.1, SVG Export Plug-In . SVG Version: 6.00 Build 0)  -->
<svg version="1.1" id="Layer_1" xmlns="http://www.w3.org/2000/svg" xmlns:xlink="http://www.w3.org/1999/xlink" x="0px" y="0px"
	 viewBox="0 0 100.2 81.4" style="enable-background:new 0 0 100.2 81.4;" xml:space="preserve">
<style type="text/css">
	.st0{fill:#235958;}
	.st1{fill:#EF5316;}
</style>
<g>
	<path class="st0" d="M23.2,60.6c0,4.5-1.1,8.7-3.3,12.7c-2.6,4.8-6,7.2-10.2,7.2c-2.5,0-5.7-1.3-9.7-3.9l0.5-1
		C1.7,75.9,2.6,76,3.4,76c3.4,0,7.1-1.6,11.1-4.9c4-3.2,6-6.5,6-9.7c0-1.2-0.8-2.9-2.5-5.2c-1.2-1.6-2.5-3.1-3.7-4.7
		c0.8-3.6,1.4-6.5,1.8-8.6C20.8,48,23.2,53.9,23.2,60.6z"/>
	<path class="st0" d="M52.8,62.5h-4.9c-2.5,12.6-7.2,18.9-14.2,18.9c-3.2,0-6.9-1.4-10.9-4.3l0.6-0.9c1.3,0.4,2.7,0.6,4.2,0.6
		c4.5,0,8.3-1.4,11.4-4.2c2.4-2.1,4.8-5.5,7.2-10.2c-2.9,0-4.8-0.2-5.8-0.5c-1.8-0.7-2.7-2.2-2.7-4.6c0-2.2,0.7-5.1,2.2-8.8
		c1.7-4.1,3.3-6.2,5.1-6.2c1.9,0,3.2,3.9,3.9,11.7h3.9C52.8,54,52.8,62.5,52.8,62.5z M46.5,54.1c-1.3-2.5-2.7-3.8-4.2-3.8
		c-1.3,0-1.9,0.6-1.9,1.7c0,1.4,1.2,2.1,3.5,2.1H46.5z"/>
	<path class="st0" d="M78.7,52.4c0,1.7-0.3,3.5-1,5.2c-0.9,2.3-2,3.5-3.5,3.5c-2,0-5.7-1.3-11.1-3.8c-1.2,1.1-2.7,2.2-4.3,3.2
		c-2.1,1.3-3.7,1.9-4.9,1.9h-2.7V54h2.6c0.8,0,2-0.2,3.6-0.7c-0.6-0.9-0.9-1.7-0.9-2.6c0-1.8,1.8-4.8,5.3-9c-1.7-0.7-3.1-1-4.1-0.9
		c0.9-4.7,2.1-7,3.7-7c2.2,0,4.7,0.9,7.5,2.7C75.5,40.9,78.7,46.2,78.7,52.4z M66.7,47.5c0-1.7-0.9-2.5-2.7-2.5
		c-0.9,0-1.8,0.3-2.8,0.9c-1,0.6-1.4,1.4-1.4,2.2c0,1.1,1.3,2.1,3.8,3C65.7,49.7,66.7,48.5,66.7,47.5z M76.2,53.7c0-1.7-2.1-4-6.4-7
		c-0.3,1.9-0.4,2.9-0.5,3c-0.2,0.9-0.7,1.8-1.4,2.7c4.5,1.4,6.8,2.2,7.2,2.2C75.8,54.6,76.2,54.3,76.2,53.7z"/>
	<path class="st1" d="M98.2,9l-0.3,3.7c-0.6-0.4-1.6-1-3-1.9c-2.9,3.6-5.4,5.4-7.5,5.4c-0.5,0-1.2-0.1-2.3-0.4c2.4-1.3,5-3.2,8-5.9
		c-1.6-1.3-2.3-2.4-2.3-3.5c0-1.3,0.5-2.7,1.4-4.2s2-2.3,3.2-2.3c1.6,0,2.4,1.1,2.4,3.3c0,1.6-0.4,3.1-1.1,4.5
		C97.2,8.3,97.7,8.7,98.2,9z M95.6,5.6c0-0.5-0.2-1-0.6-1.6s-0.8-0.8-1.3-0.8s-0.8,0.3-0.8,1c0,0.5,0.9,1.3,2.6,2.6
		C95.5,6.2,95.6,5.8,95.6,5.6z"/>
	<path class="st1" d="M100.2,60.6c0,4.5-1.1,8.7-3.3,12.7c-2.6,4.8-6,7.2-10.2,7.2c-2.5,0-5.7-1.3-9.7-3.9l0.5-1
		c1.2,0.3,2.1,0.4,2.9,0.4c3.4,0,7.1-1.6,11.1-4.9c4-3.2,6-6.5,6-9.7c0-1.2-0.8-2.9-2.5-5.2c-1.2-1.6-2.5-3.1-3.7-4.7
		c0.8-3.6,1.4-6.5,1.8-8.6C97.8,48,100.2,53.9,100.2,60.6z M94.8,33.8L92,38.9l-5-3.7l3-5L94.8,33.8z"/>
</g>
</svg>
