<?xml version="1.0" encoding="utf-8"?>
<!-- Generator: Adobe Illustrator 22.0.1, SVG Export Plug-In . SVG Version: 6.00 Build 0)  -->
<svg version="1.1" id="Layer_1" xmlns="http://www.w3.org/2000/svg" xmlns:xlink="http://www.w3.org/1999/xlink" x="0px" y="0px"
	 viewBox="0 0 118.6 99.3" style="enable-background:new 0 0 118.6 99.3;" xml:space="preserve">
<style type="text/css">
	.st0{fill:#235958;}
	.st1{fill:#EF5316;}
</style>
<g>
	<path class="st0" d="M41.7,80.5l-15.9,7.6h-1.9c-6.9,0-12.4-1.3-16.5-3.9C2.5,81.2,0,76.4,0,69.9c0-9,4.5-16.5,13.6-22.4
		c-2.9-0.6-4.8-1-5.7-1c-0.8,0-1.3,0.1-1.6,0.2c-0.2,0.2-0.5,0.6-0.8,1.3h-5c0.8-3.2,1.6-5.4,2.4-6.7c1.4-2.1,3.4-3.2,6-3.2
		c1.9,0,4.4,0.3,7.6,0.9c4,0.7,6.5,1.1,7.6,1.2c1.7,0,4.2,0.1,7.5,0.4l-1.3,6.5c-3,0-5.8,0.2-8.4,0.7c-4.7,0.9-8.8,2.8-12.2,5.7
		c-3.9,3.4-5.8,7.3-5.8,11.8c0,5.4,3.2,9.4,9.5,12.1c4.6,1.9,10.1,2.8,16.5,2.8c1.7,0,5.6-0.2,11.9-0.7L41.7,80.5z"/>
	<path class="st0" d="M59.1,59.3h-3.8c-2.5,0-4.4-1.1-5.5-3.2c-1-1.7-1.6-4.9-1.8-9.7c-0.1-2-0.4-5.4-1-10.1c-0.6-4.3-1-7.6-1-10.1
		c0-0.8,0-1.3,0.1-1.7s1.4-1.7,4-3.9c0,0.2,0.3,4.5,1,12.9C51.7,41,52,45,52,45.6c0,1.8,0.3,3.2,0.9,4c0.6,0.9,1.8,1.3,3.6,1.3H59
		L59.1,59.3L59.1,59.3z"/>
	<path class="st0" d="M75,59.3h-3.7c-2.5,0-4.3-1.5-5.4-4.6c-1.5,3.1-3.2,4.6-5.2,4.6H58v-8.4h3.5c1.8,0,2.9-0.3,3.5-1
		c0.2-0.2,0.2-1.4,0.2-3.8l0.5,0.1c0.4,3.1,2.8,4.7,7.2,4.7h2L75,59.3L75,59.3z M73.3,38.1l-2.8,5l-4.7-3.3l-2.3,4.3l-5-3.8l3-5
		l4.5,3.6l2.7-4.5L73.3,38.1z"/>
	<path class="st0" d="M98,59.3h-3.8c-4,0-7-1-9-3.1c-3.5,2-6.4,3.1-8.7,3.1h-2.7v-8.4c2.6,0,4.4-0.3,5.5-1c-0.6-0.6-0.9-1.2-0.9-1.9
		c0-2.5,0.8-5.3,2.5-8.3c1.6-2.8,3.4-5.1,5.5-6.8c1.3-1.1,2.5-1.6,3.5-1.6c1.7,0,3,1.3,3.8,4c0.6,1.9,0.9,4,0.9,6.3
		c0,3.1-1,5.8-2.9,8.1c0.9,0.8,2.5,1.1,4.8,1.1H98V59.3L98,59.3z M91.7,44.2c0-1.2-0.5-2.3-1.4-3.1c-0.9-0.8-2.1-1.2-3.3-1.2
		c-1,0-2,0.3-3,0.9c-1.1,0.6-1.7,1.4-1.7,2.4c0,1.2,1.3,2.8,4,4.8C89.9,47,91.7,45.8,91.7,44.2z M93,22l-3,5l-4.9-3.6l3-5.1L93,22z"
		/>
	<path class="st1" d="M114.2,65c0,1.8-0.6,3.1-1.9,3.8l-10.9,6.3c0-1.2,0.1-2,0.4-2.4c0.3-0.5,1-1,2.1-1.6L114.2,65z"/>
	<path class="st1" d="M118.6,49.3c0,1.8-0.4,3.4-1.2,4.7c-0.9,1.7-2.2,2.5-3.8,2.5c-1.7,0-4.6-1-8.7-3.1c-0.3,1-1,2.2-2.2,3.5
		c-1.2,1.5-2.2,2.3-3.1,2.3H97v-8.4h2.6c2.3,0,4-1.3,5.1-4c0.8-2,1.6-4,2.3-6c1.3-2.5,2.9-3.8,4.8-3.8c2,0,3.8,1.6,5.1,4.7
		C118.1,44.5,118.6,47,118.6,49.3z M114.1,47.7c0-1-0.4-1.8-1.2-2.5c-0.8-0.7-1.8-1-2.8-1c-1.2,0-2.1,0.8-2.9,2.3
		c2.8,1.6,4.7,2.4,5.7,2.4C113.7,48.9,114.1,48.5,114.1,47.7z"/>
</g>
<g>
	<path class="st0" d="M87.1,7.4c0,1.6-0.6,3-1.6,4.3c-1.1,1.2-2.5,1.8-4.1,1.8c-2.7,0-4-1.5-4-4.5c0-1.9,0.4-3.5,1.1-4.8
		c1-1.6,2.3-2.3,4.1-2.3c1.3,0,2.4,0.6,3.3,1.8C86.8,4.8,87.1,6.1,87.1,7.4z M85,8.4c0-0.6-0.5-1.4-1.6-2.1c-1.1-0.8-2-1.2-2.7-1.2
		c-0.6,0-1.1,0.3-1.6,0.8c-0.5,0.6-0.7,1.1-0.7,1.7c0,1.5,1.1,2.3,3.3,2.3C84,9.9,85,9.4,85,8.4z"/>
</g>
</svg>
