<?xml version="1.0" encoding="utf-8"?>
<!-- Generator: Adobe Illustrator 22.0.1, SVG Export Plug-In . SVG Version: 6.00 Build 0)  -->
<svg version="1.1" id="Layer_1" xmlns="http://www.w3.org/2000/svg" xmlns:xlink="http://www.w3.org/1999/xlink" x="0px" y="0px"
	 viewBox="0 0 86.2 86.2" style="enable-background:new 0 0 86.2 86.2;" xml:space="preserve">
<style type="text/css">
	.st0{fill:#235958;}
</style>
<path class="st0" d="M41.4,19.4l-10.3,6.2c-1,0.6-1.7,1.1-2,1.6s-0.5,1.3-0.5,2.4l10.9-6.2C40.8,22.7,41.4,21.4,41.4,19.4z"/>
<polygon class="st0" points="55,22.8 50.2,19.1 47.2,24.1 52.1,27.9 "/>
<path class="st0" d="M62.6,34.2c-0.8,2.9-1.4,5.1-1.9,6.5c0.6,0.9,1.3,1.7,1.8,2.6c0.8,1.2,1.2,2.2,1.2,2.9c0,0.4-0.4,0.8-1.1,1.1
	c-0.8,0.4-1.3,0.6-1.8,0.6c-2,0-3.8-0.8-5.2-2.3c-1.3-1.4-2.3-3.2-2.7-5.3l-1,0.1c0.1,0.3,0.1,0.8,0.2,1.6c0.1,0.8,0.1,1.5,0.1,1.9
	c0,2.5-2.2,3.7-6.7,3.8c-1.9,0-3.2-0.2-4.1-0.6c-1.2-0.6-2.1-1.7-2.7-3.5h-0.4c-0.1,2.1-0.3,3.3-0.6,3.5c-0.8,0.6-3.2,1-7.2,1H18.2
	v8.4h12.4h2.1h0.6c2.1,0,3.8-1.6,5.2-4.7c1.1,3.1,3.4,4.7,6.8,4.7h0.6l0,0c3.2-0.2,5.6-2.2,7.4-5.9c1.4,3.1,3.4,4.6,5.9,4.6
	s4.3-1.3,5.6-3.9c1.1-2.1,1.6-4.5,1.6-7.2C66.4,39.7,65.1,36.5,62.6,34.2z"/>
<polygon class="st0" points="52.7,32.1 57.4,35.4 60.5,30.4 55.7,26.8 52.9,31.3 48.4,27.6 45.3,32.6 50.3,36.4 "/>
</svg>
