<?xml version="1.0" encoding="utf-8"?>
<!-- Generator: Adobe Illustrator 22.0.1, SVG Export Plug-In . SVG Version: 6.00 Build 0)  -->
<svg version="1.1" id="Layer_1" xmlns="http://www.w3.org/2000/svg" xmlns:xlink="http://www.w3.org/1999/xlink" x="0px" y="0px"
	 viewBox="0 0 117.5 86.3" style="enable-background:new 0 0 117.5 86.3;" xml:space="preserve">
<style type="text/css">
	.st0{fill:#235958;}
	.st1{fill:#EF5316;}
</style>
<g>
	<path class="st0" d="M22.8,66.4H19c-2.3,0-4-1.1-5-3.2c-0.6-1.3-1.1-3.4-1.4-6.4c-2.9,4-5.2,6-7,6c-1.2,0-2.4-0.3-3.5-1
		c-1.3-0.7-2-1.7-2-2.8c0-1.2,0.7-3.3,2.1-6.4C2.8,51,4,49.5,5.6,48.3c0.5-0.4,2.2-1.3,5-2.9c-0.5-2.1-0.7-3.5-0.7-4.1
		c0-1,1.3-2.8,3.8-5.2c0,0.1,0.5,3.8,1.6,11.3c0.9,6,1.5,9.3,2,9.9s1.6,0.8,3.3,0.8h2.2L22.8,66.4L22.8,66.4z M16.7,28.9l-3,5.1
		l-4.6-3.3l-2.2,4.2l-5.2-3.7l3-4.9l4.6,3.5l2.8-4.5L16.7,28.9z M12,53.6c0-1.2-0.3-2.9-0.8-5.1c-4,2.1-6,3.8-6,4.8s1.8,1.5,5.5,1.5
		C11.6,54.8,12,54.4,12,53.6z"/>
	<path class="st0" d="M36.9,66.4h-0.6c-3.4,0-5.6-1.6-6.8-4.7c-1.4,3.1-3.1,4.7-5.2,4.7h-2.7V58c4,0,6.4-0.3,7.2-1
		c0.3-0.3,0.5-1.4,0.6-3.5h0.4c0.6,1.7,1.5,2.9,2.7,3.5c0.9,0.4,2.4,0.6,4.4,0.6C36.9,57.6,36.9,66.4,36.9,66.4z"/>
	<path class="st0" d="M57.4,53.9c0,2.7-0.5,5.1-1.6,7.2c-1.3,2.6-3.2,3.9-5.6,3.9c-2.5,0-4.4-1.5-5.9-4.6c-1.9,4-4.5,6-8,6v-8.8
		c4.6,0,6.9-1.3,6.9-3.8c0-0.4,0-1.1-0.1-1.9c-0.1-0.8-0.1-1.4-0.2-1.6l1-0.1c0.5,2.1,1.4,3.9,2.7,5.3c1.4,1.6,3.2,2.3,5.2,2.3
		c0.4,0,1-0.2,1.8-0.6c0.8-0.4,1.1-0.8,1.1-1.1c0-0.7-0.4-1.7-1.2-2.9c-0.6-0.9-1.2-1.7-1.8-2.6c0.5-1.4,1.1-3.6,1.9-6.5
		C56.2,46.5,57.4,49.7,57.4,53.9z M51.5,40.5l-3.1,5l-4.6-3.3l-2.4,4.3l-5-3.7l3-5l4.5,3.7l2.8-4.5L51.5,40.5z M46,32.8l-2.9,5.1
		l-4.9-3.7l3.1-5.1L46,32.8z"/>
	<path class="st0" d="M72.2,55.8c0,2.9-0.6,5.9-1.8,9H69c0-4.6-0.5-9.5-1.4-14.7c-1.5-8.5-2.3-13.3-2.3-14.6c0-1.4,0.5-2.8,1.4-4.1
		c0.4-0.6,1.3-1.7,2.9-3.5c0,3.1,0.4,7.7,1.3,13.9S72.2,52.6,72.2,55.8z"/>
	<path class="st0" d="M101.7,66.4h-3.9c-0.7,5-1.9,9.3-3.6,12.6c-2.5,4.8-5.7,7.2-9.8,7.2c-2.9,0-6.5-1.4-10.7-4.3l0.6-1
		c1.7,0.3,2.9,0.5,3.7,0.5c2.8,0,5.8-1.2,8.8-3.5c1.3-1,2.8-2.8,4.6-5.6c1.3-2.1,2.6-4.3,3.9-6.4c-2.4-0.8-4.1-2.8-5.3-5.9l4.5-6.6
		c1.5,3,3.2,4.5,5.1,4.5h2.1C101.7,58,101.7,66.4,101.7,66.4z"/>
	<path class="st1" d="M116.3,0c0,1.9-0.6,3.3-1.8,4l-10.9,6.2c0-1.1,0.2-2,0.5-2.4s1-1,2-1.6L116.3,0z"/>
	<path class="st1" d="M117.5,53.3c0,8.7-4.7,13.1-14.2,13.1h-2.7V58h3.6c7.1,0,10.6-1.3,10.6-3.9c0-0.6-0.5-2.1-1.6-4.5
		c-0.8,1.7-1.5,2.9-2.3,3.5c-0.9,0.8-2.2,1.2-3.9,1.2c-3.1,0-4.6-1.4-4.6-4.2c0-0.6,0.2-1.8,0.5-3.6c1.5-8.8,3.8-13.3,6.8-13.3
		c2.5,0,4.5,2.8,6,8.4C116.9,45.8,117.5,49.7,117.5,53.3z M112.1,26.1l-2.8,5l-4.8-3.7l3-5L112.1,26.1z M110.4,44.1
		c-1-1.6-2-2.4-3-2.4c-1.1,0-1.6,0.7-1.6,2c0,1.6,0.7,2.4,2.1,2.4C108.8,46.1,109.6,45.5,110.4,44.1z"/>
</g>
<path class="st0" d="M44.6,10.2l-10.3,6.2c-1,0.6-1.7,1.1-2,1.6c-0.3,0.5-0.5,1.3-0.5,2.4l10.9-6.2C44,13.5,44.6,12.2,44.6,10.2z"/>
</svg>
