<?xml version="1.0" encoding="utf-8"?>
<!-- Generator: Adobe Illustrator 22.0.1, SVG Export Plug-In . SVG Version: 6.00 Build 0)  -->
<svg version="1.1" id="Layer_1" xmlns="http://www.w3.org/2000/svg" xmlns:xlink="http://www.w3.org/1999/xlink" x="0px" y="0px"
	 viewBox="0 0 86.2 86.2" style="enable-background:new 0 0 86.2 86.2;" xml:space="preserve">
<style type="text/css">
	.st0{fill:#235958;}
</style>
<g>
	<path class="st0" d="M44.7,54.6c3.2,0,5.6-1.3,7.2-4c1.3-2.2,2-5.1,2-8.5c0-3-0.9-6.5-2.8-10.6c-2.4,4.5-3.5,7.3-3.5,8.2
		c0,0.7,0.5,1.6,1.4,2.6c0.9,1.1,1.4,1.7,1.4,2c0,1.3-1.6,1.9-4.9,1.9h-1.4H42H29.7v8.3H42h2.1h0.6C44.7,54.5,44.7,54.6,44.7,54.6z"
		/>
	<polygon class="st0" points="52.4,57.5 49.6,61.9 45.2,58.4 42,63.3 47.1,67.1 49.4,62.9 54,66.1 57.1,61.1 	"/>
</g>
</svg>
