<?xml version="1.0" encoding="utf-8"?>
<!-- Generator: Adobe Illustrator 22.0.1, SVG Export Plug-In . SVG Version: 6.00 Build 0)  -->
<svg version="1.1" id="Layer_1" xmlns="http://www.w3.org/2000/svg" xmlns:xlink="http://www.w3.org/1999/xlink" x="0px" y="0px"
	 viewBox="0 0 86.2 86.2" style="enable-background:new 0 0 86.2 86.2;" xml:space="preserve">
<style type="text/css">
	.st0{fill:#235958;}
</style>
<g>
	<path class="st0" d="M24.1,14.6c0,1.6-0.6,3-1.6,4.3c-1.1,1.2-2.5,1.8-4.1,1.8c-2.7,0-4-1.5-4-4.5c0-1.9,0.4-3.5,1.1-4.8
		c1-1.6,2.3-2.3,4.1-2.3c1.3,0,2.4,0.6,3.3,1.8C23.7,12,24.1,13.3,24.1,14.6z M22,15.6c0-0.6-0.5-1.4-1.6-2.1
		c-1.1-0.8-2-1.2-2.7-1.2c-0.6,0-1.1,0.3-1.6,0.8c-0.5,0.6-0.7,1.1-0.7,1.7c0,1.5,1.1,2.3,3.3,2.3C21,17.1,22,16.6,22,15.6z"/>
</g>
<g>
	<polygon class="st0" points="45.9,29.6 41.1,25.9 38.3,30.9 43.2,34.7 	"/>
	<path class="st0" d="M58.2,54.9L58.2,54.9c-3,0.1-5.4,0.2-7.2,0.3c1.5-1.7,2.5-3,3-4c0.7-1.4,1-3,1-4.9c0-2.2-0.7-4-2.1-5.4
		c-1.4-1.4-3.2-2.1-5.3-2.1c-4.2,0-9.1,3.9-14.7,11.8c0.6-3.2,0.9-6.1,0.9-8.8c0-1.2-0.2-3.1-0.6-5.6c-0.4-2.5-0.6-4.3-0.6-5.6
		c0-0.8,0.1-1.4,0.2-1.7l1.4,0.7l3.5-6.1c-1.9,0.3-3.5-0.2-4.9-1.6c-1.4-1.4-2.1-3-2.3-4.9c-1.8,0.9-3,2.9-3.7,6l0.8,1.4
		c0,2.8,0.6,6.9,1.7,12.3C30.5,42.1,31,46.2,31,49c0,1.4-0.5,3.2-1.4,5.5c-1.5,0.2-2.7,0.3-3.5,0.3c-1.6,0-5-0.3-10.1-1
		c3.8,5.3,6.2,8.2,7.4,8.7c0.9,0.4,2.2,0.6,4,0.6c6.4,0,11.4-0.8,15.1-2.3c1.1,1.6,4.5,2.3,10.1,2.3h5.6h2.3h12.2v-8.4H58.2V54.9z
		 M43.7,53.2c-3.9,0.8-7.1,1.2-9.7,1.2c2.5-2.5,4.4-4.2,5.8-5.1c2.4-1.7,4.8-2.5,7.2-2.5c1,0,1.9,0.2,2.7,0.6
		c1.1,0.6,1.6,1.3,1.6,2.3C51.3,51.1,48.8,52.3,43.7,53.2z"/>
</g>
</svg>
