<?xml version="1.0" encoding="utf-8"?>
<!-- Generator: Adobe Illustrator 22.0.1, SVG Export Plug-In . SVG Version: 6.00 Build 0)  -->
<svg version="1.1" id="Layer_1" xmlns="http://www.w3.org/2000/svg" xmlns:xlink="http://www.w3.org/1999/xlink" x="0px" y="0px"
	 viewBox="0 0 86.2 86.2" style="enable-background:new 0 0 86.2 86.2;" xml:space="preserve">
<style type="text/css">
	.st0{fill:#235958;}
</style>
<g>
	<g>
		<path class="st0" d="M40,63.9c0,1.9-0.6,3.3-1.8,4l-10.9,6.2c0-1.1,0.2-2,0.5-2.4s1-1,2-1.6L40,63.9z"/>
	</g>
</g>
<path class="st0" d="M52.4,50.4h-1h-2.7c-2.1,0-3.6-4.1-4.5-12.2c-0.5-4.5-0.7-9.5-0.7-15.1c0-2.6-0.3-5.8-0.8-9.5
	c-2.6,2.2-3.9,3.4-3.9,3.5c0,2.6,0.2,6.6,0.7,11.9s0.7,9.2,0.7,11.9c0,6.4-1.7,9.7-5.1,9.7h-0.6h-2.1H20V59h12.4h2.1H35
	c2.7,0,4.9-3,6.6-9c1.1,6,3.5,9,7.1,9h2.7h1h13.4v-8.4H52.4V50.4z"/>
</svg>
