<?xml version="1.0" encoding="utf-8"?>
<!-- Generator: Adobe Illustrator 22.0.1, SVG Export Plug-In . SVG Version: 6.00 Build 0)  -->
<svg version="1.1" id="Layer_1" xmlns="http://www.w3.org/2000/svg" xmlns:xlink="http://www.w3.org/1999/xlink" x="0px" y="0px"
	 viewBox="0 0 156.4 71.6" style="enable-background:new 0 0 156.4 71.6;" xml:space="preserve">
<style type="text/css">
	.st0{fill:#235958;}
	.st1{fill:#EF5316;}
</style>
<g>
	<path class="st0" d="M33.6,51.6h-2.5c-0.9,6.6-2.6,11.5-5.1,14.6c-3,3.6-7.7,5.5-14,5.5c-3.4,0-6.2-0.8-8.4-2.3
		C1.2,67.6,0,65.1,0,61.9c0-3.3,1.8-8.3,5.3-15l1,0.5c-1.7,3.3-2.5,6-2.5,7.9c0,3.1,0.7,5.2,2,6.2c1.8,1.3,4.7,1.9,8.8,1.9
		c4.3,0,7.6-0.7,10.1-2.1c1.8-1,2.9-3,3.5-6c0.3-1.4,0.4-2.4,0.4-2.9c0-0.9-0.5-2-1.4-3.3c-1.3-1.8-2-2.8-2.2-3.2
		c0.8-1.6,1.9-4,3.5-7.2c0.6,1,1.3,1.9,2,2.8c0.7,0.9,1.7,1.3,3.1,1.3V51.6z"/>
	<path class="st0" d="M64.3,51.6H59c-2,0-3.6-0.8-4.7-2.5c-0.8-1.1-1.5-2.8-2.3-5.2c-1.5,4.5-3.5,6.8-6.1,6.8
		c-2.2,0-3.8-1.5-4.7-4.4c-1.5,3.6-4.2,5.4-8.2,5.4v-8.8h2.7c2.2,0,3.5-0.4,3.9-1.3c0.1-0.2,0.3-1.6,0.6-4.2l1,0.1
		c0,1.1,1,2.4,3,3.9c0.6,0.5,1.9,0.7,3.9,0.7c1.5,0,2.5-0.5,3.1-1.5c0.3-0.6,0.5-1.8,0.6-3.6h0.9c0.5,2,1.4,3.7,2.8,5
		c0.9,0.9,2.4,1.3,4.3,1.4c-1.7,0-0.1,0,4.7,0v8.2C64.5,51.6,64.3,51.6,64.3,51.6z"/>
	<path class="st0" d="M81.7,51.6H78c-3.6,0-6-3-7.1-9c-1.7,6-3.9,9-6.6,9h-2.7v-8.4h2.7c3.4,0,5.1-3.2,5.1-9.7
		c0-2.6-0.2-6.6-0.7-11.9C68.3,16.4,68,12.5,68,9.9c0-0.1,1.3-1.3,3.9-3.5c0.5,3.7,0.8,6.9,0.8,9.5c0,5.6,0.2,10.7,0.7,15.1
		c0.9,8.2,2.4,12.2,4.5,12.2h3.7L81.7,51.6L81.7,51.6z"/>
	<path class="st1" d="M100.1,11.3c0,1.6-0.6,3-1.6,4.3c-1.1,1.2-2.5,1.8-4.1,1.8c-2.7,0-4-1.5-4-4.5c0-1.9,0.4-3.5,1.1-4.8
		c1-1.6,2.3-2.3,4.1-2.3c1.3,0,2.4,0.6,3.3,1.8C99.7,8.8,100.1,10,100.1,11.3z M98,12.3c0-0.6-0.5-1.4-1.6-2.1
		c-1.1-0.8-2-1.2-2.7-1.2c-0.6,0-1.1,0.3-1.6,0.8c-0.5,0.6-0.7,1.1-0.7,1.7c0,1.5,1.1,2.3,3.3,2.3C96.9,13.8,98,13.3,98,12.3z"/>
	<path class="st1" d="M123.4,51.6h-7.2c-6.8,0-10.2-2-10.2-6c0-1.3,0.5-3.3,1.4-6.1c-3.4,0.5-6.3,1.4-8.5,2.6
		c-1.4,0.8-3.8,2.4-7.2,5.1c-1.1,0.9-2.8,2-5.1,3.5c-1.1,0.6-1.9,0.9-2.3,0.9h-3.7v-8.4h2.6c4.1-0.2,8.7-1.7,14-4.4
		c-3.1-1.6-5.5-2.3-7.2-2.3c-1.1,0-1.9,0.5-2.5,1.4h-5c0.8-3.1,1.6-5.3,2.4-6.7c1.4-2.1,3.4-3.1,6-3.1c1.6,0,4,0.6,7.1,1.8
		c5,1.9,9.4,2.9,13.3,2.9c0.6,0,1.6-0.1,2.8-0.2c1.2-0.1,2.2-0.2,2.8-0.2l-1,6.5c-2.5,0.2-4.3,0.4-5.6,0.6c0.8,1.6,1.7,2.7,2.9,3.1
		c0.9,0.4,2.4,0.6,4.3,0.6h6v8.4C123.5,51.6,123.4,51.6,123.4,51.6z M104,54.9l-2.9,5.1l-4.9-3.9l3.1-5L104,54.9z"/>
	<path class="st0" d="M136.8,51.6h-14.5v-8.4h14.5V51.6z"/>
	<path class="st0" d="M156.4,41.6c0,1.8-0.4,3.4-1.2,4.7c-0.9,1.7-2.2,2.5-3.8,2.5c-1.7,0-4.6-1-8.7-3.1c-0.3,1-1,2.2-2.2,3.5
		c-1.2,1.5-2.2,2.3-3.1,2.3h-2.7v-8.4h2.6c2.3,0,4-1.3,5.1-4c0.8-2,1.6-4,2.3-6c1.3-2.5,2.9-3.8,4.8-3.8c2,0,3.8,1.6,5.1,4.7
		C155.9,36.8,156.4,39.3,156.4,41.6z M151.9,40c0-1-0.4-1.8-1.2-2.5s-1.8-1-2.8-1c-1.2,0-2.1,0.8-2.9,2.3c2.8,1.6,4.7,2.4,5.7,2.4
		C151.5,41.1,151.9,40.8,151.9,40z"/>
</g>
<path class="st0" d="M145.5,14.9c0,2-0.6,3.3-1.8,4.1l-11,6.3c0-1.1,0.2-2,0.5-2.5c0.3-0.5,1-1,2-1.6L145.5,14.9z"/>
<path class="st0" d="M70.9,55.5c0,2-0.6,3.3-1.8,4.1l-11,6.3c0-1.1,0.2-2,0.5-2.5c0.3-0.5,1-1,2-1.6L70.9,55.5z"/>
</svg>
