<?xml version="1.0" encoding="utf-8"?>
<!-- Generator: Adobe Illustrator 22.0.1, SVG Export Plug-In . SVG Version: 6.00 Build 0)  -->
<svg version="1.1" id="Layer_1" xmlns="http://www.w3.org/2000/svg" xmlns:xlink="http://www.w3.org/1999/xlink" x="0px" y="0px"
	 viewBox="0 0 86.2 86.2" style="enable-background:new 0 0 86.2 86.2;" xml:space="preserve">
<style type="text/css">
	.st0{fill:#235958;}
</style>
<g>
	<path class="st0" d="M43.5,22L43.2,26c-0.7-0.4-1.7-1.1-3.1-2c-3,3.8-5.7,5.7-7.9,5.7c-0.5,0-1.3-0.1-2.4-0.4
		c2.5-1.5,5.3-3.5,8.5-6.3c-1.6-1.4-2.5-2.6-2.5-3.6c0-1.4,0.5-2.8,1.4-4.4c1-1.6,2.1-2.4,3.4-2.4c1.7,0,2.5,1.2,2.5,3.5
		c0,1.6-0.4,3.2-1.2,4.7C42.6,21.2,43.1,21.7,43.5,22z M40.8,18.5c0-0.5-0.2-1.1-0.6-1.7c-0.4-0.6-0.9-0.9-1.4-0.9
		c-0.6,0-0.8,0.4-0.8,1.1c0,0.5,0.9,1.4,2.7,2.7C40.8,19,40.8,18.7,40.8,18.5z"/>
</g>
<g>
	<polygon class="st0" points="48.2,66.3 53.4,70.4 56.4,65.1 51.4,61 	"/>
	<path class="st0" d="M66.2,41.6c-1,0.1-1.7,0.1-2.2,0.1c-4.1,0-8.7-1-14-3c-3.3-1.2-5.8-1.9-7.5-1.9c-2.7,0-4.8,1.1-6.3,3.3
		c-0.9,1.4-1.8,3.8-2.5,7H39c0.6-1.1,1.5-1.6,2.7-1.6c1.7,0,4.3,0.8,7.5,2.5c-3.7,1.9-6,3-6.8,3.4c-2.1,0.8-4.2,1.3-6.4,1.3h-2h-2.1
		H18.7v8.8h13.1H34h1.9c0.3,0,1.1-0.3,2.2-0.9c1.6-0.8,3.8-2.4,6.7-4.7s5.2-3.9,6.9-4.8c3.4-1.7,7.1-2.5,11.1-2.5
		c2,0,3.5-0.1,4.7-0.3l0.9-6.9C67.9,41.5,67.2,41.6,66.2,41.6z"/>
</g>
</svg>
