<?xml version="1.0" encoding="utf-8"?>
<!-- Generator: Adobe Illustrator 22.0.1, SVG Export Plug-In . SVG Version: 6.00 Build 0)  -->
<svg version="1.1" id="Layer_1" xmlns="http://www.w3.org/2000/svg" xmlns:xlink="http://www.w3.org/1999/xlink" x="0px" y="0px"
	 viewBox="0 0 86.2 86.2" style="enable-background:new 0 0 86.2 86.2;" xml:space="preserve">
<style type="text/css">
	.st0{fill:#235958;}
</style>
<g>
	<g>
		<g>
			<g>
				<path class="st0" d="M38.3,10.1c0,1.9-0.6,3.3-1.8,4.1l-11,6.2c0-1.1,0.2-2,0.5-2.4c0.3-0.5,1-1,2-1.6L38.3,10.1z"/>
			</g>
		</g>
	</g>
	<g>
		<path class="st0" d="M62.2,48.3c0,4.7-2.7,8.7-8.1,12s-11.9,5-19.5,5c-2.4,0-4.5-1-6.4-2.9c-0.1-0.1-1.5-2-4.3-5.9
			c2,0.4,3.8,0.6,5.4,0.6c1.5,0,4-0.2,7.6-0.5c0.8-2.1,1.1-4,1.1-5.6c0-2.7-0.6-6.8-1.7-12.2c-1.1-5.4-1.7-9.5-1.7-12.2l-1-1.6
			c0.7-3.2,1.9-5.2,3.7-6c0.1,1.9,0.8,3.5,2.2,4.9s3.1,1.9,5,1.6L41,31.6L39.8,31c-0.2,0.6-0.2,1.2-0.2,1.8c0,1.1,0.2,2.9,0.6,5.5
			c0.4,2.6,0.6,4.7,0.6,6.2c0,2.5-0.3,5.1-0.9,8c5.6-7.9,10.5-11.8,14.7-11.8c2.3,0,4.1,0.7,5.4,2.1C61.5,44.3,62.2,46.1,62.2,48.3z
			 M58.4,51.8c0-0.9-0.6-1.7-1.8-2.3c-1-0.4-2-0.6-3-0.6c-4,0-8.2,2.6-12.6,7.7c2.6,0,5.9-0.4,9.7-1.1
			C55.9,54.4,58.4,53.2,58.4,51.8z"/>
	</g>
</g>
</svg>
