<?xml version="1.0" encoding="utf-8"?>
<!-- Generator: Adobe Illustrator 19.2.0, SVG Export Plug-In . SVG Version: 6.00 Build 0)  -->
<svg version="1.1" id="Layer_1" xmlns="http://www.w3.org/2000/svg" xmlns:xlink="http://www.w3.org/1999/xlink" x="0px" y="0px"
	 viewBox="0 0 458.2 49.9" style="enable-background:new 0 0 458.2 49.9;" xml:space="preserve">
<style type="text/css">
	.st0{fill:#FFFFFF;}
	.st1{fill:#F7931E;}
</style>
<g>
	<g>
		<path class="st0" d="M277,5.1c0.1-0.1,0.2-0.1,0.2,0.1c0,0.7-0.3,1.5-0.7,1.7l-5.2,2.9c-0.1,0.1-0.1,0-0.1-0.1
			c0-0.4,0.1-1,0.3-1.3c0.1-0.2,0.4-0.4,0.9-0.7L277,5.1z M277,7.7c0.1-0.1,0.2-0.1,0.2,0.1c0,0.7-0.3,1.5-0.7,1.7l-5.2,2.9
			c-0.1,0.1-0.1,0-0.1-0.1c0-0.4,0.1-1,0.3-1.3c0.1-0.2,0.4-0.4,0.9-0.7L277,7.7z"/>
		<path class="st0" d="M277.7,33.6c-0.8,0-1.6-0.1-2.2-0.6c-0.9-0.8-1.4-2.2-1.7-4c-0.2-1.4-0.3-3-0.4-4.8c-0.1-2.6-0.3-6.6-0.7-8.9
			c0-0.1,0-0.2,0-0.3c0-0.1,0-0.2,0.2-0.5c0.4-0.6,0.7-1,0.9-1.5c0.2-0.4,0.3-0.4,0.4-0.4c0.1,0,0.2,0.2,0.4,0.8
			c0.6,4.5,0.1,10.8,0.8,14.3c0.2,0.9,0.3,1.2,0.5,1.7c0.3,0.8,0.9,1.2,1.8,1.2c1,0,1.5,0.5,1.5,1.4c0,1.2-0.5,1.5-1.4,1.5H277.7z"
			/>
		<path class="st0" d="M277.8,33.6c-0.7,0-1-0.5-1-1.5c0-0.9,0.3-1.4,1-1.4h6c0.7,0,1.1,0.5,1.1,1.4c0,1-0.4,1.5-1,1.5H277.8z"/>
		<path class="st0" d="M283.8,33.6c-0.7,0-1-0.5-1-1.5c0-0.9,0.3-1.4,1-1.4h6c0.7,0,1.1,0.5,1.1,1.4c0,1-0.4,1.5-1,1.5H283.8z"/>
		<path class="st0" d="M289.8,33.6c-0.7,0-1-0.5-1-1.5c0-0.9,0.3-1.4,1-1.4h6c0.7,0,1.1,0.5,1.1,1.4c0,1-0.4,1.5-1,1.5H289.8z"/>
		<path class="st0" d="M304.1,19.6c0.1-0.1,0.2-0.1,0.2,0.1c0,0.7-0.3,1.5-0.7,1.7l-5.3,3c-0.1,0.1-0.1,0-0.1-0.1
			c0-0.4,0.1-1,0.3-1.3c0.1-0.2,0.4-0.4,0.9-0.7L304.1,19.6z"/>
		<path class="st0" d="M307.9,5.9c0.8,0,2.1,1.2,2.1,2.7c0,0.5-0.1,1-0.2,1.5c-0.4,1-1.2,1.6-2.3,1.6c-1,0-1.7-0.8-1.7-1.7
			C305.8,8.7,307.3,5.9,307.9,5.9z M307.7,8c-0.3,0-0.9,0.8-0.9,1.2c0,0.3,0.5,0.7,1,0.7c0.7,0,1.4-0.4,1.4-0.6
			C309.2,9.1,308.4,8,307.7,8z"/>
		<path class="st0" d="M305.1,32.3c-0.5,0.8-0.9,1.1-1.5,1.1c-0.6,0-1.3-0.2-2.1-0.6c-0.8-0.4-1.4-0.9-1.9-1.7
			c-0.8,1.5-2.1,2.4-3.7,2.4h-0.4c-0.8,0-1.2-0.5-1.2-1.5c0-1,0.4-1.4,1.1-1.4h0.4c1.2,0,2.3-0.1,2.9-0.4c0.6-0.3,1.2-0.9,1.7-1.7
			c0.5-0.8,1-1.4,1.3-1.6c1.6-0.2,2.9-0.8,4-1.8c1.1-0.9,1.6-1.9,1.6-3c0-1.5-0.1-2.5-0.2-3.7c-0.1-1.5-0.2-2.8-0.2-3.3
			c0-0.1,0-0.2,0.1-0.3c0.2-0.4,0.4-0.8,0.6-1.4c0.3-0.6,0.5-0.9,0.6-0.9c0.1,0,0.2,0.1,0.3,1.3l0.6,10.1c0.2,2.3,0.4,3.7,0.7,4.3
			c0.5,1.4,1.4,2.1,2.6,2.1h0.4c0.8,0,1.2,0.5,1.2,1.4c0,1-0.4,1.5-1.2,1.5h-0.4c-2.9,0-4.5-2.9-4.7-8.6c-0.7,2-1.4,3.2-2.1,3.7
			c0.3,0.5,0.4,1.1,0.4,1.8C305.8,30.9,305.6,31.5,305.1,32.3z M301.1,29.1c0.3,0.4,0.7,0.7,1.4,1.1c0.7,0.3,1.1,0.5,1.5,0.5
			c-0.2-1.1-0.8-2.1-1.8-2.1C301.7,28.6,301.3,28.8,301.1,29.1z"/>
		<path class="st1" d="M321.7,35.9c0.1-0.1,0.2-0.1,0.2,0.1c0,0.7-0.3,1.5-0.7,1.7l-5.3,3c-0.1,0.1-0.1,0-0.1-0.1
			c0-0.4,0.1-1,0.3-1.3c0.1-0.2,0.4-0.4,0.9-0.7L321.7,35.9z"/>
		<path class="st1" d="M314.1,27.9c0-0.7,0.3-2.2,0.8-3.2c0.9-1.9,2.4-2.8,3.7-2.8c0.9,0,2.6,0.5,3.6,1.3c0.4,0.3,0.4,0.5,0.4,0.6
			c0,0.1-0.1,0.1-0.3,0.1c-0.5,0-1.3-0.1-2-0.1c-1.4,0-4.7,1.3-4.8,2.2c0.1,0.5,1.7,2.9,4.2,2.9h0.2c1.6-0.6,3.5-1.5,4.7-2.1
			c0.5-0.3,0.9-0.4,1.1-0.4c0.1,0,0.2,0.1,0.2,0.2c0,0.3-0.7,1.5-1.1,2.2c-0.1,0.2-0.3,0.3-0.6,0.5c-0.8,0.5-2.3,1.2-4.1,2
			c-1.9,0.9-5.9,2.3-7.6,2.3h-0.2c-0.9,0-1.3-0.5-1.3-1.5c0-1,0.5-1.5,1.4-1.5h0.2c0.3,0,1.5-0.1,2.6-0.4
			C314.6,29.6,314.1,28.9,314.1,27.9z"/>
		<path class="st0" d="M356.7,7.2c0.1-0.1,0.2-0.1,0.2,0.1c0,0.7-0.3,1.5-0.7,1.7l-5.3,3c-0.1,0.1-0.1,0-0.1-0.1
			c0-0.4,0.1-1,0.3-1.3c0.1-0.2,0.4-0.4,0.9-0.7L356.7,7.2z"/>
		<path class="st0" d="M360.7,28.3c0,0.8,0,1.4-0.1,1.9c-0.1,1-0.9,2.5-1.4,2.7c-1.3,0.5-4.1,0.7-6.6,0.7c-2.6,0-5-0.2-5.7-0.5
			c-0.7-0.3-1-1.3-1-2.3c0-0.4,0-0.7,0.1-1c0.1-0.2,0.1-0.3,0.2-0.3c0.3,0,0.9,0.8,2.7,1.1c1.5,0.2,3.1,0.3,4.7,0.3
			c2.7,0,5.2-0.3,6.3-0.7c-0.1-2.5-0.5-6.6-1.2-12.3c0-0.5-0.4-1.7-0.5-2.2c0-0.1-0.1-0.2-0.1-0.3c0-0.1,0-0.1,0-0.2
			c0.1-0.2,0.2-0.5,0.5-1.1c0.3-0.7,0.7-1.4,0.9-1.4c0.1,0,0.2,0.1,0.2,0.3c0.3,1.2,0.7,1.8,1,2.3c0.1,0.1,0.1,0.2,0.1,0.3
			s0,0.2-0.1,0.3c-0.1,0.3-0.6,1.2-0.8,1.6C360.4,20.2,360.7,25.4,360.7,28.3z M353,27c-0.6,0.2-1.3,0.4-2.1,0.4c-0.3,0-0.7,0-1-0.1
			c-0.4-0.1-0.8-0.2-0.8-0.4c0-0.1,0.3-0.3,0.8-0.5c0.8-0.3,3.6-1.2,4.2-1.9c0.1-0.1,0.1-0.1,0.1-0.2c0,0,0-0.1-0.1-0.1
			c-0.2-0.1-0.5-0.2-1-0.2c-0.9-0.1-1.8-0.3-1.8-1.2c0-1.2,2.2-4.1,3.4-4.9c0.2-0.1,0.5-0.2,0.6-0.2c0.2,0,0.2,0.1,0.2,0.3
			c0,0.5-0.5,1.5-0.7,1.9c-0.1,0.2-0.2,0.2-0.3,0.3c-0.2,0.1-0.4,0.1-0.6,0.2c-0.4,0.2-0.7,0.6-0.8,0.7c0,0.4,0.4,0.6,0.8,0.7
			c0.8,0.1,1.7,0,1.7,1.3C355.6,24.2,354,26.6,353,27z"/>
		<path class="st0" d="M369.5,33.6c-0.8,0-1.6-0.1-2.2-0.6c-0.9-0.8-1.4-2.2-1.7-4c-0.2-1.4-0.3-3-0.4-4.8c-0.1-2.6-0.3-6.6-0.7-8.9
			c0-0.1,0-0.2,0-0.3c0-0.1,0-0.2,0.2-0.5c0.4-0.6,0.7-1,0.9-1.5c0.2-0.4,0.3-0.4,0.4-0.4c0.1,0,0.2,0.2,0.4,0.8
			c0.6,4.5,0.1,10.8,0.8,14.3c0.2,0.9,0.3,1.2,0.5,1.7c0.3,0.8,0.9,1.2,1.8,1.2c1,0,1.5,0.5,1.5,1.4c0,1.2-0.5,1.5-1.4,1.5H369.5z"
			/>
		<path class="st0" d="M369.7,33.6c-0.7,0-1-0.5-1-1.5c0-0.9,0.3-1.4,1-1.4h6c0.7,0,1.1,0.5,1.1,1.4c0,1-0.4,1.5-1,1.5H369.7z"/>
		<path class="st0" d="M375.7,33.6c-0.7,0-1-0.5-1-1.5c0-0.9,0.3-1.4,1-1.4h6c0.7,0,1.1,0.5,1.1,1.4c0,1-0.4,1.5-1,1.5H375.7z"/>
		<path class="st0" d="M381.7,33.6c-0.7,0-1-0.5-1-1.5c0-0.9,0.3-1.4,1-1.4h6c0.7,0,1.1,0.5,1.1,1.4c0,1-0.4,1.5-1,1.5H381.7z"/>
		<path class="st1" d="M395.3,12.7c0.1-0.1,0.2-0.1,0.2,0.1c0,0.7-0.3,1.5-0.7,1.7l-5.3,3c-0.1,0.1-0.1,0-0.1-0.1
			c0-0.4,0.1-1,0.3-1.3c0.1-0.2,0.4-0.4,0.9-0.7L395.3,12.7z"/>
		<path class="st1" d="M400.6,29.1c0,2.1-1,3.3-2.2,3.3c-0.4,0-1.3-0.2-2-0.4c-1.1-0.3-1.9-0.6-3-0.8c-2.1,1.6-4,2.4-5.6,2.4h-0.3
			c-0.9,0-1.3-0.5-1.3-1.5c0-1,0.4-1.5,1.3-1.5h0.3c0.7,0,1.7-0.2,2.8-0.6c-0.2-0.4-0.4-0.9-0.4-1.5c0-1.5,0.7-3.4,1.4-4.4
			c-0.1-0.2-0.2-0.5-0.2-0.8c0-0.3,0.1-1.4,0.5-2.1c0.2-0.4,0.4-0.7,0.7-0.7C394.7,20.6,400.5,24.8,400.6,29.1z M395.3,27.2
			c0-1.1-1.6-2.4-2-2.4c-0.2,0-0.7,0.3-1.1,0.7c-0.5,0.5-0.9,1.1-0.9,1.3c0.1,1.2,1.2,1.5,2.2,1.7C393.8,28.4,395.3,27.7,395.3,27.2
			z M399.6,30.1C399.6,30.1,399.7,30.1,399.6,30.1c-0.2-1.4-1.5-3.3-3.3-4.3c-0.1,1.8-0.9,2.9-0.9,3
			C397.1,29.3,398.4,30.1,399.6,30.1z"/>
		<path class="st0" d="M430.4,44.7c0.2-0.2,0.3-0.3,0.4-0.1c0.6,0.7,1.3,1.4,2,1.8c0.2,0.1,0.2,0.2,0,0.4c-0.6,0.6-1.2,1.3-1.7,2
			c-0.1,0.2-0.2,0.2-0.4,0c-0.5-0.4-1.2-0.9-1.8-1.6c-0.4,0.4-1.1,1.3-1.5,1.5c-0.2,0.1-0.2,0.2-0.5,0.1c-0.7-0.4-1.5-1.1-2-1.8
			c-0.1-0.2-0.1-0.2,0-0.4c0.5-0.6,1.1-1.3,1.8-2c0.1-0.1,0.2-0.1,0.4,0.1c0.5,0.5,1.3,1.3,1.8,1.6C429.4,45.8,430.1,45,430.4,44.7z
			"/>
		<path class="st0" d="M444.3,20.2c0.1,0.1,0.1,0.1,0,0.2c-0.3,0.4-1.4,1.6-1.8,2.1c-0.1,0.1-0.2,0.1-0.3,0
			c-0.6-0.4-1.9-1.3-2.2-1.9c-0.1-0.1-0.1-0.2,0-0.3c0.4-0.7,1.2-1.5,1.7-2c0.2-0.2,0.3-0.3,0.4-0.2
			C442.5,18.8,443.4,19.6,444.3,20.2z"/>
		<path class="st0" d="M427.5,39.6c3.6,0,9.2-2.7,9.8-3.7c-0.7-0.7-3.7-1.9-5.6-1.9c-0.4,0-0.7-0.1-0.7-0.5c0-0.4,0.4-1.3,0.7-1.7
			c0.5-1,1.7-2,4.1-2.8c0.9-0.3,1.9-0.6,3.3-0.8c-0.1-0.1-0.8-0.4-1.9-0.8c-0.9-0.3-1.6-0.5-2.2-0.5c-0.2,0-0.4,0-0.5,0.1
			c-0.2,0.1-0.7,0.3-1,0.3c-0.2,0-0.3-0.1-0.3-0.3c0-0.5,0.8-1.5,1.9-2.3c0.6-0.4,1-0.5,1.6-0.5c0.3,0,0.7,0.1,0.9,0.1
			c2.3,0.8,5.1,2.5,7.5,3.2c1.9,0.7,3.9,1,5,1.1c0.1,0,0.1,0,0.1,0.1c0,0.3-1.1,1.8-1.7,2.2c-0.1,0.1-0.2,0.1-0.3,0.1
			c-1.3-0.2-2.4-0.5-3.7-0.7c-0.4-0.1-0.8-0.1-1.4-0.1c-0.7,0-1.5,0-2.3,0.1c-3.5,0.2-5.9,0.9-7.3,1.8c2.3,0.3,3.6,0.8,4.2,1.3
			c0.8,0.5,1.1,1.1,1.1,2c0,3.6-7.5,7.3-11.8,7.3c-2.9,0-6.8-1.1-6.9-6c0-2.3,0.9-5,1.9-6.6c0.3-0.5,0.6-0.8,0.8-0.8
			c0.3,0,0.1,0.6-0.1,1c-0.8,1.7-1.3,3-1.3,4.5C421.3,37.8,424,39.5,427.5,39.6z"/>
		<path class="st1" d="M457.6,0c0.1-0.1,0.2-0.1,0.2,0.1c0,0.7-0.3,1.5-0.7,1.7l-5.3,3c-0.1,0.1-0.1,0-0.1-0.1c0-0.4,0.1-1,0.3-1.3
			c0.1-0.2,0.4-0.4,0.9-0.7L457.6,0z"/>
		<path class="st1" d="M457.3,9.9c-1.1,0.6-3.4,1.9-5.2,3.3c-0.1,0-0.1,0.1-0.1,0.1c0,0-0.1,0-0.1-0.1c0-0.1,0.1-0.4,0.3-0.9
			c0.1-0.2,0.6-0.8,1.1-1.1c0.1-0.1,0.1-0.1,0.1-0.1c0,0-0.1-0.1-0.2-0.1c-0.8-0.3-1.1-0.5-1.2-1.2c0-0.1,0-0.1,0-0.2
			c0-1.2,1.2-2.9,2.4-3.8c0.4-0.3,0.8-0.5,1.3-0.5c0.7,0,1,0.3,1,0.9c0,0.3-0.1,0.7-0.3,1.2c-0.1,0.3-0.2,0.5-0.3,0.5
			c-0.1,0-0.2-0.1-0.4-0.2c-0.2-0.2-0.4-0.3-0.7-0.3c-1,0-1.7,0.6-1.7,0.9c0,0.4,1.7,1.1,2.3,1.1c0.1,0,0.1,0,0.2,0
			c0.3-0.1,1.4-0.5,1.9-0.8c0.2-0.1,0.3-0.2,0.4-0.2c0.1,0,0.1,0,0.1,0.1c0,0.1-0.1,0.3-0.2,0.5C457.7,9.6,457.5,9.8,457.3,9.9z
			 M455.4,33.6c-0.1,0-0.2-0.2-0.2-0.9c0-3.9-1.4-14.6-1.4-16.4c0-0.9,0.6-2.2,1.1-3.2c0.2-0.3,0.4-0.7,0.6-0.7c0.2,0,0.2,0.2,0.2,1
			c0.1,2.8,0.9,9.4,0.9,14.1c0,1.9-0.1,3.5-0.5,4.4C455.8,33.1,455.6,33.6,455.4,33.6z"/>
	</g>
	<g>
		<path class="st0" d="M13,42.4c0.1-0.1,0.2-0.1,0.2,0.1c0,0.7-0.3,1.5-0.7,1.7l-5.4,3.1C7,47.3,7,47.2,7,47.2c0-0.4,0.1-1,0.3-1.3
			c0.1-0.2,0.4-0.4,0.9-0.7L13,42.4z M13,45.1c0.1-0.1,0.2-0.1,0.2,0.1c0,0.7-0.3,1.5-0.7,1.7l-5.4,3.1C7,50,7,49.9,7,49.9
			c0-0.4,0.1-1,0.3-1.3c0.1-0.2,0.4-0.4,0.9-0.7L13,45.1z"/>
		<path class="st0" d="M24.2,35.6c0.1-0.1,0.2-0.1,0.2,0.1c0,0.7-0.3,1.5-0.7,1.7l-5.3,3c-0.1,0.1-0.1,0-0.1-0.1
			c0-0.4,0.1-1,0.3-1.3c0.1-0.2,0.4-0.4,0.9-0.7L24.2,35.6z"/>
		<path class="st0" d="M11.4,32.1c0.2,0.6,0.2,1.1,0.2,1.7c0,0.7-0.1,1.4-0.3,2.4c-0.4,2.7-2.3,5.5-5,6.5c-0.2,0.1-0.5,0.1-0.8,0.1
			c-1.2,0-3.3-0.6-5-1.3C0.2,41.3,0,41.1,0,40.9c0-0.2,0.2-0.2,0.5-0.2c0.6,0,1.6,0.2,2.3,0.2c0.2,0,0.3,0,0.5,0
			c1-0.1,2.2-0.5,3.3-1.2c1.7-1.1,4.1-3.4,4.1-5c0-0.1,0-0.1,0-0.2c-0.1-0.3-0.2-0.7-0.6-1.2l-0.6-0.9c0-0.1-0.1-0.1,0-0.3
			c0.1-0.5,0.4-1.6,0.6-2.1c0-0.1,0.1-0.2,0.2-0.3c1.5-0.6,4-1.5,6-2.1c0.2-0.1,0.2,0,0.2,0.1c0,0.5,0.2,1.3,0.5,1.7
			c0.3,0.5,0.8,0.7,1.5,0.8c0.6,0,1.2-0.2,1.9-0.7c0.7-0.5,1.2-1.2,1.5-1.9c0.2-0.8,0.5-1.1,0.8-1.1c0.1,0,0.2,0.1,0.2,0.4
			c0,0.1,0,0.2,0,0.3c0,0.2-0.1,0.4-0.1,0.5c0,1.5,1.2,2.3,2.4,2.3c0.4,0,0.7-0.2,0.8-0.4c0-0.1,0.1-0.1,0.1-0.2
			c0-0.3-0.3-0.8-0.5-1.2c0,0-0.1-0.1-0.1-0.2c0-0.2,0.2-0.6,0.6-1.3c0.3-0.5,0.5-0.8,0.7-1c0.1-0.1,0.2-0.2,0.3-0.2
			c0.2,0,0.7,1.2,0.7,2c0,0.4-0.1,0.9-0.2,1.4c-0.4,1.9-1.1,3-2.1,3.6c-0.3,0.2-0.7,0.3-1,0.3c-0.3,0-0.7-0.1-1-0.2
			c-1-0.4-1.4-0.9-1.7-1.9c0,0.1-0.2,0.3-0.5,0.8c-0.7,0.9-1.8,1.6-2.9,1.6c-1.6,0-2.2-1.1-2.6-2.5C14.3,30.9,12.3,31.6,11.4,32.1z"
			/>
		<path class="st0" d="M35.1,33.6c-0.8,0-1.6-0.1-2.2-0.6c-0.9-0.8-1.4-2.2-1.7-4c-0.2-1.4-0.3-3-0.4-4.8c-0.1-2.6-0.3-6.6-0.7-8.9
			c0-0.1,0-0.2,0-0.3c0-0.1,0-0.2,0.2-0.5c0.4-0.6,0.7-1,0.9-1.5c0.2-0.4,0.3-0.4,0.4-0.4c0.1,0,0.2,0.2,0.4,0.8
			c0.6,4.5,0.1,10.8,0.8,14.3c0.2,0.9,0.3,1.2,0.5,1.7c0.3,0.8,0.9,1.2,1.8,1.2c1,0,1.5,0.5,1.5,1.4c0,1.2-0.5,1.5-1.4,1.5H35.1z"/>
		<path class="st1" d="M47.9,10.6c0.1-0.1,0.2-0.1,0.2,0.1c0,0.7-0.3,1.5-0.7,1.7l-5.3,3c-0.1,0.1-0.1,0-0.1-0.1
			c0-0.4,0.1-1,0.3-1.3c0.1-0.2,0.4-0.4,0.9-0.7L47.9,10.6z"/>
		<path class="st1" d="M39.1,26.8c-0.3,0-0.6,0-0.8,0.1c-0.2,0.1-0.7,0.4-1,0.4C37,27.3,37,27.2,37,27c0-0.6,0.8-1.7,1.5-2.3
			c0.6-0.5,1.2-0.7,1.8-0.7c0.2,0,0.4,0,0.6,0.1c2.3,0.5,5.3,1.8,7.7,2.3c1.6,0.4,3.3,0.5,4.4,0.5c0.2,0,0.4,0,0.6,0
			c0.1,0,0.1,0,0.1,0.1c0,0.5-0.9,1.9-1.4,2.4c-0.1,0.1-0.4,0.1-0.7,0.1c-0.6,0-2.1-0.1-2.4-0.1c-1.1,0-2.1,0.1-2.9,0.4
			c-0.5,0.2-1.5,0.6-3,1.2c-2.1,1.1-3.7,1.8-4.6,2.1c-1,0.4-2,0.6-3.2,0.6h-0.3c-0.9,0-1.4-0.5-1.4-1.5c0-0.9,0.5-1.4,1.4-1.4h0.4
			c1.8,0,3.2-0.2,4.4-0.5c1.2-0.3,2.9-0.9,5.1-1.9C42.5,27.6,40.4,26.8,39.1,26.8z M47.8,19.1c0.1,0.1,0.1,0.1,0,0.2
			c-0.3,0.4-1.4,1.6-1.8,2.1c-0.1,0.1-0.2,0.1-0.3,0c-0.6-0.4-1.9-1.3-2.2-1.9c-0.1-0.1-0.1-0.2,0-0.3c0.4-0.7,1.2-1.5,1.7-2
			c0.2-0.2,0.3-0.3,0.4-0.2C45.9,17.7,46.9,18.5,47.8,19.1z"/>
		<path class="st0" d="M89.9,16.7c0,0.7-0.1,1.3-0.4,1.9c0.3,0.2,0.5,0.3,0.5,0.5c0,0.5-0.2,0.9-0.4,1.3c-0.1,0.1-0.1,0.1-0.1,0.1
			L88.7,20c-0.6,1-1.6,2.3-3.2,3c-0.6,0.3-1.2,0.5-1.9,0.5c-0.3,0-0.5-0.1-0.5-0.2c0-0.2,0.3-0.2,0.7-0.5c1.1-0.6,3.3-2.3,4-3.2
			c-0.6-0.4-1.4-0.9-1.4-1.8c0-0.6,0.3-1.1,0.8-1.7c0.5-0.7,1.1-1,1.6-1C89.6,15.1,89.8,16,89.9,16.7z M87.6,17.3
			C87.5,17.3,87.5,17.4,87.6,17.3c0,0.2,0.5,0.6,1,0.8c0.1-0.2,0.2-0.5,0.2-0.8c0-0.4-0.2-0.6-0.4-0.6C88,16.7,87.7,17,87.6,17.3z"
			/>
		<path class="st0" d="M96.4,14.7c0.8,0,2.1,1.2,2.1,2.7c0,0.5-0.1,1-0.2,1.5c-0.4,1-1.2,1.6-2.3,1.6c-1,0-1.7-0.8-1.7-1.7
			C94.2,17.5,95.7,14.7,96.4,14.7z M96.1,16.7c-0.3,0-0.9,0.8-0.9,1.2c0,0.3,0.5,0.7,1,0.7c0.7,0,1.4-0.4,1.4-0.6
			C97.6,17.8,96.8,16.7,96.1,16.7z"/>
		<path class="st0" d="M97.8,37.4c0.2-0.2,0.3-0.3,0.4-0.1c0.6,0.7,1.3,1.4,2,1.8c0.2,0.1,0.2,0.2,0,0.4c-0.6,0.6-1.2,1.3-1.7,2
			c-0.1,0.2-0.2,0.2-0.4,0c-0.5-0.4-1.2-0.9-1.8-1.6c-0.4,0.4-1.1,1.3-1.5,1.5c-0.2,0.1-0.2,0.2-0.5,0.1c-0.7-0.4-1.5-1.1-2-1.8
			c-0.1-0.2-0.1-0.2,0-0.4c0.5-0.6,1.1-1.3,1.8-2c0.1-0.1,0.2-0.1,0.4,0.1c0.5,0.5,1.3,1.3,1.8,1.6C96.8,38.5,97.5,37.7,97.8,37.4z"
			/>
		<path class="st0" d="M92.3,30.7c0.1,0.9,0.1,1.3,0.1,1.7c0,4.4-2,7.8-5.3,9.2c-0.2,0.1-0.4,0.1-0.7,0.1c-1.3,0-3.5-0.5-5.3-1.3
			c-0.5-0.2-0.5-0.4-0.5-0.5c0-0.2,0.3-0.3,0.8-0.2c2.1,0.3,2.8,0.3,4.7-0.6c1.6-0.7,5.1-3.6,5.1-5.7c0-0.5-0.1-1-0.4-1.7
			c-0.3-0.6-1.1-1.9-1.9-3.1c0,0-0.1-0.2,0-0.4c0.1-0.2,0.2-0.7,0.4-1.1c0.3-0.9,0.5-1.3,0.7-1.3c0.1,0,0.4,0.3,0.8,0.9
			c0.2,0.4,0.4,0.6,0.6,0.8c0.3,0.2,0.6,0.3,1,0.3c0.7,0,1.8-0.3,2.4-1c0.5-0.7,0.9-1.5,1.2-1.8c0.1-0.2,0.2-0.4,0.4-0.4
			c0.1,0,0.3,0.2,0.4,0.6c0.1,0.3,0.3,1,0.4,2c0.2,1,0.5,1.8,0.9,2.5c0.4,0.7,0.9,1,1.5,1h0.5c0.8,0,1.2,0.5,1.2,1.4
			c0,1-0.4,1.5-1.2,1.5h-0.5c-1.1,0-2.3-0.7-2.8-1.8c-0.3-0.5-0.5-1.3-0.7-2.4c-0.2-1.1-0.3-1.6-0.3-1.6
			C95.2,29.7,94.1,30.7,92.3,30.7z"/>
		<path class="st1" d="M107.3,6.4c0.1-0.1,0.2-0.1,0.2,0.1c0,0.7-0.3,1.5-0.7,1.7l-5.3,3c-0.1,0.1-0.1,0-0.1-0.1
			c0-0.4,0.1-1,0.3-1.3c0.1-0.2,0.4-0.4,0.9-0.7L107.3,6.4z"/>
		<path class="st1" d="M101.5,27.9c0-0.7,0.3-2.2,0.8-3.2c0.9-1.9,2.4-2.8,3.7-2.8c0.9,0,2.6,0.5,3.6,1.3c0.4,0.3,0.4,0.5,0.4,0.6
			c0,0.1-0.1,0.1-0.3,0.1c-0.5,0-1.3-0.1-2-0.1c-1.4,0-4.7,1.3-4.8,2.2c0.1,0.5,1.7,2.9,4.2,2.9h0.2c1.6-0.6,3.5-1.5,4.7-2.1
			c0.5-0.3,0.9-0.4,1.1-0.4c0.1,0,0.2,0.1,0.2,0.2c0,0.3-0.7,1.5-1.1,2.2c-0.1,0.2-0.3,0.3-0.6,0.5c-0.8,0.5-2.3,1.2-4.1,2
			c-1.9,0.9-5.9,2.3-7.6,2.3h-0.2c-0.9,0-1.3-0.5-1.3-1.5c0-1,0.5-1.5,1.4-1.5h0.2c0.3,0,1.5-0.1,2.6-0.4
			C101.9,29.6,101.5,28.9,101.5,27.9z M107.7,15.4c0.1,0.1,0.1,0.1,0,0.2c-0.3,0.4-1.4,1.6-1.8,2.1c-0.1,0.1-0.2,0.1-0.3,0
			c-0.6-0.4-1.9-1.3-2.2-1.9c-0.1-0.1-0.1-0.2,0-0.3c0.4-0.7,1.2-1.5,1.7-2c0.2-0.2,0.3-0.3,0.4-0.2C105.9,14,106.8,14.8,107.7,15.4
			z"/>
		<path class="st0" d="M148.8,13.8c0,0.7-0.1,1.3-0.4,1.9c0.3,0.2,0.5,0.3,0.5,0.5c0,0.5-0.2,0.9-0.4,1.3c-0.1,0.1-0.1,0.1-0.1,0.1
			l-0.7-0.4c-0.6,1-1.6,2.3-3.2,3c-0.6,0.3-1.2,0.5-1.9,0.5c-0.3,0-0.5-0.1-0.5-0.2c0-0.2,0.3-0.2,0.7-0.5c1.1-0.6,3.3-2.3,4-3.2
			c-0.6-0.4-1.4-0.9-1.4-1.8c0-0.6,0.3-1.1,0.8-1.7c0.5-0.7,1.1-1,1.6-1C148.5,12.2,148.7,13.1,148.8,13.8z M146.5,14.4
			C146.4,14.5,146.4,14.5,146.5,14.4c0,0.2,0.5,0.6,1,0.8c0.1-0.2,0.2-0.5,0.2-0.8c0-0.4-0.2-0.6-0.4-0.6
			C147,13.9,146.6,14.1,146.5,14.4z"/>
		<path class="st0" d="M146.7,23.6c0.4,0,1.2,0.3,1.8,0.8c1,0.8,1.9,2.2,1.9,3.8c0,0.9-0.1,1.8-0.5,2.7c-0.6,1.8-2.1,2.8-4,2.8
			c-1.8,0-3-1.4-3-3C142.9,28.4,145.5,23.6,146.7,23.6z M148.9,29.3c-0.5-1.1-1.6-2.3-2.8-2.3c-0.1,0-0.2,0.1-0.3,0.1
			c-0.9,0.6-1.5,1.7-1.5,2.2c0,0.6,0.9,1.3,2,1.3c0.6,0,2.1-0.3,2.6-0.9c0.1-0.1,0.1-0.1,0.1-0.2S149,29.4,148.9,29.3z"/>
		<path class="st0" d="M162,10.5c0.1-0.1,0.2-0.1,0.2,0.1c0,0.7-0.3,1.5-0.7,1.7l-5.3,3c-0.1,0.1-0.1,0-0.1-0.1c0-0.4,0.1-1,0.3-1.3
			c0.1-0.2,0.4-0.4,0.9-0.7L162,10.5z"/>
		<path class="st0" d="M162.4,32.6c0,4.4-2,7.7-5.3,9.1c-0.2,0.1-0.5,0.1-0.8,0.1c-1.1,0-3.7-0.6-5.2-1.4c-0.4-0.2-0.5-0.4-0.5-0.5
			c0-0.1,0.2-0.2,0.4-0.2c0.4,0,1.4,0.2,2.4,0.2c0.8,0,1.6-0.2,2.8-0.8c1.4-0.6,4.2-2.9,4.9-4.8c0.1-0.3,0.2-0.7,0.2-0.9
			c0-0.2-0.1-1.3-1.3-3c-0.4-0.6-0.7-1-1-1.6c-0.1-0.1-0.1-0.2-0.1-0.3c0-0.4,0.5-1.7,0.8-2.2c0.1-0.2,0.2-0.2,0.3-0.2
			c0.6,0,1.8,2.2,2.3,4C162.3,30.9,162.4,31.7,162.4,32.6z M161.5,19.2c0.1,0.1,0.1,0.1,0,0.2c-0.3,0.4-1.4,1.6-1.8,2.1
			c-0.1,0.1-0.2,0.1-0.3,0c-0.6-0.4-1.9-1.3-2.2-1.9c-0.1-0.1-0.1-0.2,0-0.3c0.4-0.7,1.2-1.5,1.7-2c0.2-0.2,0.3-0.3,0.4-0.2
			C159.6,17.8,160.6,18.6,161.5,19.2z"/>
		<path class="st0" d="M170,33.6c-0.8,0-1.6-0.1-2.2-0.6c-0.9-0.8-1.4-2.2-1.7-4c-0.2-1.4-0.3-3-0.4-4.8c-0.1-2.6-0.3-6.6-0.7-8.9
			c0-0.1,0-0.2,0-0.3c0-0.1,0-0.2,0.2-0.5c0.4-0.6,0.7-1,0.9-1.5c0.2-0.4,0.3-0.4,0.4-0.4c0.1,0,0.2,0.2,0.4,0.8
			c0.6,4.5,0.1,10.8,0.8,14.3c0.2,0.9,0.3,1.2,0.5,1.7c0.3,0.8,0.9,1.2,1.8,1.2c1,0,1.5,0.5,1.5,1.4c0,1.2-0.5,1.5-1.4,1.5H170z"/>
		<path class="st1" d="M179.8,16.4c0.1-0.1,0.2-0.1,0.2,0.1c0,0.7-0.3,1.5-0.7,1.7l-5.3,3c-0.1,0.1-0.1,0-0.1-0.1
			c0-0.4,0.1-1,0.3-1.3c0.1-0.2,0.4-0.4,0.9-0.7L179.8,16.4z"/>
		<path class="st1" d="M174,26.8c-0.3,0-0.6,0-0.8,0.1c-0.2,0.1-0.7,0.4-1,0.4c-0.2,0-0.2-0.1-0.2-0.3c0-0.6,0.8-1.7,1.5-2.3
			c0.6-0.5,1.2-0.7,1.8-0.7c0.2,0,0.4,0,0.6,0.1c2.3,0.5,5.3,1.8,7.7,2.3c1.6,0.4,3.3,0.5,4.4,0.5c0.2,0,0.4,0,0.6,0
			c0.1,0,0.1,0,0.1,0.1c0,0.5-0.9,1.9-1.4,2.4c-0.1,0.1-0.4,0.1-0.7,0.1c-0.6,0-2.1-0.1-2.4-0.1c-1.1,0-2.1,0.1-2.9,0.4
			c-0.5,0.2-1.5,0.6-3,1.2c-2.1,1.1-3.7,1.8-4.6,2.1c-1,0.4-2,0.6-3.2,0.6H170c-0.9,0-1.4-0.5-1.4-1.5c0-0.9,0.5-1.4,1.4-1.4h0.4
			c1.8,0,3.2-0.2,4.4-0.5c1.2-0.3,2.9-0.9,5.1-1.9C177.4,27.6,175.3,26.8,174,26.8z"/>
	</g>
</g>
</svg>
