<?xml version="1.0" encoding="utf-8"?>
<!-- Generator: Adobe Illustrator 19.2.0, SVG Export Plug-In . SVG Version: 6.00 Build 0)  -->
<svg version="1.1" id="Layer_1" xmlns="http://www.w3.org/2000/svg" xmlns:xlink="http://www.w3.org/1999/xlink" x="0px" y="0px"
	 viewBox="0 0 226.2 40.2" style="enable-background:new 0 0 226.2 40.2;" xml:space="preserve">
<style type="text/css">
	.st0{fill:#FFFFFF;}
</style>
<g>
	<path class="st0" d="M2.6,22.5c0.4,0.4,0.5,0.8,0.5,1.2c0,0.3-0.1,0.8-0.4,1.1c-0.3,0.3-0.7,0.4-1.2,0.4c-0.3,0-0.7-0.1-1-0.4
		C0.1,24.5,0,24.1,0,23.7c0-0.4,0.2-0.8,0.5-1.1c0.3-0.3,0.7-0.4,1.1-0.4C1.9,22.1,2.3,22.3,2.6,22.5z M2.6,28.4
		c0.4,0.4,0.5,0.8,0.5,1.2c0,0.3-0.1,0.8-0.4,1.1c-0.3,0.3-0.8,0.5-1.2,0.5c-0.3,0-0.7-0.2-1-0.4C0.1,30.4,0,30,0,29.5
		c0-0.4,0.2-0.8,0.5-1.1C0.8,28.1,1.2,28,1.6,28C1.9,28,2.3,28.1,2.6,28.4z"/>
	<path class="st0" d="M24.7,36.1c0.1-0.1,0.2,0,0.2,0.1c0,0.6-0.2,1.3-0.6,1.5l-4.6,2.6c-0.1,0-0.1,0-0.1-0.1c0-0.3,0.1-0.9,0.3-1.1
		c0.1-0.2,0.3-0.4,0.8-0.6L24.7,36.1z"/>
	<path class="st0" d="M25.9,28.5c0,2.6-0.4,3.2-1.1,4.1c-1.4,2.2-4,3.3-6.6,3.3c-4.4,0-5.7-2.3-5.7-4.6c0-1.6,0.5-3.4,1.2-4.7
		c0.4-0.7,0.7-1,0.8-1c0.1,0,0.1,0.1,0.1,0.2c0,0.2-0.1,0.5-0.3,0.9c-0.4,0.8-0.8,1.9-0.8,2.8c0,2,1.6,3.7,4.9,3.7
		c2.4,0,5.5-1.6,6.1-2.9c0.1-0.1,0.1-0.2,0.1-0.4c-0.1-2.1-0.3-3.6-0.6-5.4c-0.5-3.4-0.5-4.2-0.9-7.5c0-0.4-0.4-1.5-0.4-1.9
		c0-0.1,0-0.2,0-0.3c0,0,0-0.1,0-0.2c0-0.1,0.1-0.4,0.4-1c0.3-0.6,0.8-1.2,1-1.2c0.1,0,0.1,0.1,0.2,0.2c0.3,1.1,0.6,1.6,0.9,2
		c0,0.1,0.1,0.2,0.1,0.2c0,0.1,0,0.1,0,0.2c-0.1,0.3-0.3,0.9-0.6,1.2C25.3,20.3,25.9,25.8,25.9,28.5z"/>
	<path class="st0" d="M33.9,30.8c-0.7,0-1.4-0.1-1.9-0.5c-0.8-0.7-1.2-1.9-1.4-3.5c-0.2-1.2-0.3-2.6-0.3-4.2
		c-0.1-2.3-0.2-5.7-0.6-7.7c0-0.1,0-0.2,0-0.3c0-0.1,0-0.2,0.2-0.4c0.4-0.5,0.6-0.9,0.8-1.3c0.2-0.3,0.2-0.4,0.3-0.4
		c0.1,0,0.2,0.2,0.3,0.7c0.5,3.9,0.1,9.4,0.7,12.5c0.2,0.8,0.2,1,0.4,1.5c0.3,0.7,0.8,1,1.6,1.1c0.9,0,1.3,0.4,1.4,1.2
		c0,1-0.5,1.3-1.2,1.3H33.9z"/>
	<path class="st0" d="M43,28.3c0.8,0,1.1,0.4,1.1,1.3c0,0.9-0.4,1.3-1.1,1.3h-0.3c-2.4,0-3.9-0.5-4.9-1.1c-0.9,0.6-2.1,1.1-3.6,1.1
		h-0.2c-0.7,0-1.1-0.4-1.1-1.3c0-0.8,0.4-1.2,1.1-1.2h0.2c1,0,1.6-0.1,1.9-0.4C36,27.6,36,27.3,36,27c0-2.6,2.9-5.8,4.5-5.8
		c0.9,0,1.4,1.1,1.4,2.4c0,1.4-0.5,3.1-1.7,4.2c0.5,0.3,1.3,0.4,2.4,0.4H43z M40.1,15.7c0.1,0.1,0.1,0.1,0,0.2
		c-0.3,0.4-1.2,1.4-1.6,1.9c-0.1,0.1-0.1,0.1-0.3,0c-0.5-0.3-1.7-1.2-1.9-1.6c-0.1-0.1-0.1-0.1,0-0.3c0.4-0.6,1-1.3,1.5-1.8
		C38,14,38,14,38.1,14.1C38.5,14.5,39.3,15.2,40.1,15.7z M39.4,23.8c-0.9,0-1.8,1-1.8,1.4c0,0.6,0.4,1,1.4,1.6
		c0.3-0.1,1.6-1.1,1.6-1.5C40.5,24.4,40.2,23.8,39.4,23.8z"/>
	<path class="st0" d="M45.7,6c0.7,0,1.9,1.1,1.9,2.3c0,0.5-0.1,0.9-0.2,1.4c-0.3,0.9-1,1.4-2,1.4c-0.9,0-1.5-0.7-1.5-1.5
		C43.8,8.5,45.1,6,45.7,6z M45.5,7.8c-0.3,0-0.8,0.7-0.8,1.1c0,0.3,0.4,0.6,0.9,0.6c0.6,0,1.2-0.3,1.2-0.5
		C46.8,8.8,46.1,7.8,45.5,7.8z"/>
	<path class="st0" d="M47.1,22.9c0,1-0.1,1.9-0.4,2.6c2.5-2,4.3-3,5.5-3c0.6,0,1.4,0.1,2,0.4c0.9,0.4,1.4,0.9,1.4,1.8
		c0,1.3-0.6,2.4-1.3,3.4c-1.1,1.5-6.8,2.7-11.4,2.7h-0.3c-0.8,0-1.2-0.4-1.2-1.3c0-0.8,0.4-1.3,1.2-1.3c0.5,0,1.1,0,1.2,0
		c0.5-0.4,1.5-1.5,2.2-2c0-0.4,0-0.8,0-1.3c0-2.8-0.4-5.2-0.8-8c0-0.4-0.4-1.5-0.4-1.9c0-0.1,0-0.2,0-0.3c0,0,0-0.1,0-0.2
		c0-0.1,0.1-0.4,0.4-1c0.3-0.6,0.6-1.2,0.8-1.2c0.1,0,0.1,0.1,0.2,0.2c0.3,1.1,0.6,1.6,0.9,2c0,0.1,0.1,0.2,0.1,0.2
		c0,0.1,0,0.1,0,0.2c-0.1,0.3-0.4,0.9-0.6,1.2C46.8,18.7,47.1,21,47.1,22.9z M51.1,24.8c-2.1,0-4.1,1.6-6.1,3.5
		c3.8-0.3,7.5-0.9,9.1-2C53.5,25.4,52.2,24.8,51.1,24.8z"/>
	<path class="st0" d="M59.6,0c0.1-0.1,0.2,0,0.2,0.1c0,0.6-0.2,1.3-0.6,1.5l-4.6,2.6c-0.1,0-0.1,0-0.1-0.1c0-0.3,0.1-0.9,0.3-1.1
		c0.1-0.2,0.3-0.4,0.8-0.6L59.6,0z"/>
	<path class="st0" d="M59.5,9.2c-0.2,0.3-0.3,0.3-0.4,0.4c-1,0.5-2.9,1.7-4.5,2.9c-0.2,0.1-0.2,0.1-0.2-0.2c0-0.1,0.1-0.4,0.2-0.7
		c0.1-0.2,0.6-0.7,1-1c0.1-0.1,0.2-0.1-0.1-0.2c-0.8-0.3-1.1-0.6-1.1-1.2c0-1,1-2.5,1.9-3.2c0.3-0.3,0.7-0.5,1.2-0.5
		c0.6,0,0.9,0.3,0.9,0.8c0,0.3-0.1,0.7-0.3,1.1c-0.2,0.5-0.3,0.5-0.6,0.2c-0.2-0.2-0.4-0.3-0.6-0.3c-0.9,0-1.5,0.5-1.5,0.8
		c0,0.4,1.4,1,2,1c0.1,0,0.2,0,0.3-0.1c0.5-0.1,1.4-0.6,1.6-0.7C59.9,7.9,60,8,59.9,8.4C59.8,8.6,59.6,8.9,59.5,9.2z"/>
	<path class="st0" d="M68.2,14.6c0.1,0.2,0.1,0.3,0.1,0.3c0,0.1,0,0.2-0.1,0.2c-0.2,0.5-0.6,1.1-1,1.5c-0.2,2.7-0.5,4.8-1.8,7.9
		c0.4,0.9,0.6,2.1,0.6,3.3c0,0.8-0.1,1.5-0.3,2.1c-0.2,0.5-3,0.9-4.9,0.9c-0.5,0-1,0-1.3-0.1c-0.1,0-0.2-0.3-0.2-0.7
		c0-0.7,0.2-1.7,0.3-2c0-0.1,0.1-0.1,0.1-0.1c0.1,0,0.2,0,0.2,0c1.6,0,3.1-1.4,4.2-3.3c-1.3-2.5-4-5.8-6.3-7.4
		c0,0.1-0.5,0.7-0.8,0.7c-0.4,0-2.4-2-2.5-2.5c0-0.2-0.1-0.5-0.1-0.7c0-0.6,0.1-1.2,0.3-1.6c0.1-0.3,0.3-0.5,0.5-0.5
		c0.2,0,0.5,0.2,0.9,0.4c1.8,1.2,3.6,2.7,5.1,4.5c1.1,1.4,2.6,3.4,3.7,5.8c0.7-1.4,0.8-2.5,1-4.4c0.1-1.1,0.1-1.9,0.1-2.5
		c0-1.3-0.1-1.7-0.1-2.1c0-0.2,0.1-0.4,0.3-0.8c0.4-0.8,0.8-1.4,1-1.4c0.1,0,0.2,0.1,0.2,0.2C67.6,13.3,67.9,14,68.2,14.6z
		 M64.8,25.8c-0.9,1.3-1,1.5-1.9,2.3c0.8,0,1.7-0.1,2.4-0.4C65.2,27.3,65.2,26.6,64.8,25.8z"/>
	<path class="st0" d="M72.7,30.9c-0.1,0-0.2-0.2-0.2-0.8c0-3.4-1.2-12.7-1.2-14.3c0-0.8,0.5-1.9,1-2.8c0.1-0.2,0.4-0.6,0.5-0.6
		c0.1,0,0.2,0.2,0.2,0.9c0.1,2.4,0.8,8.2,0.8,12.3c0,1.7-0.1,3.1-0.4,3.9C73.1,30.4,72.9,30.9,72.7,30.9z"/>
	<path class="st0" d="M88.4,31.9c0.1-0.1,0.2,0,0.2,0.1c0,0.6-0.2,1.3-0.6,1.5l-4.6,2.6c-0.1,0-0.1,0-0.1-0.1c0-0.3,0.1-0.9,0.3-1.1
		c0.1-0.2,0.3-0.4,0.8-0.6L88.4,31.9z"/>
	<path class="st0" d="M87.1,13.8c0.2-0.2,0.3-0.2,0.4-0.1c0.5,0.6,1.2,1.2,1.7,1.6c0.2,0.1,0.2,0.2,0,0.4c-0.5,0.6-1,1.1-1.5,1.7
		c-0.1,0.2-0.2,0.2-0.3,0c-0.4-0.3-1.1-0.8-1.6-1.4c-0.3,0.4-1,1.1-1.3,1.3c-0.1,0.1-0.2,0.2-0.4,0c-0.6-0.4-1.3-1-1.7-1.5
		c-0.1-0.1-0.1-0.2,0-0.4c0.4-0.5,1-1.2,1.5-1.7c0.1-0.1,0.2-0.1,0.4,0.1c0.4,0.5,1.2,1.1,1.6,1.4C86.2,14.8,86.8,14.1,87.1,13.8z
		 M90.4,27.8c0.5,0.4,1,0.5,1.3,0.5h0.4c0.8,0,1.2,0.4,1.2,1.2c0,0.9-0.4,1.4-1.2,1.4h-0.4c-0.9,0-1.7-0.3-2.5-1
		c-0.8-0.7-1.3-1.8-1.5-3.4c-0.2,0.4-0.4,0.8-0.9,1.1c-0.7,0.5-1.8,0.7-2.9,0.7c-0.8,0-1.6-0.1-1.6-0.7c0.4-2.5,0.7-2.9,1.9-3.9
		c0.5-0.4,2-1.3,2.6-1.8c0-0.2,0-0.4,0-0.6c0-0.6,0.2-0.9,0.4-1.4c0.2-0.3,0.3-0.6,0.5-0.6c0.1,0,0.2,0.2,0.3,0.6
		c0.4,2.3,0.6,4.2,0.9,5.4C89,26.3,89.6,27.2,90.4,27.8z M87.1,23.2c-1.1,0.7-2.8,1.8-2.9,2.1c0,0.2,0.3,0.3,0.8,0.3
		c0.7,0,1.7-0.2,2.4-0.6C87.3,24.3,87.2,24,87.1,23.2z"/>
	<path class="st0" d="M97.7,8c0.1-0.1,0.2,0,0.2,0.1c0,0.6-0.2,1.3-0.6,1.5l-4.6,2.6c-0.1,0-0.1,0-0.1-0.1c0-0.3,0.1-0.9,0.3-1.1
		c0.1-0.2,0.3-0.4,0.8-0.6L97.7,8z"/>
	<path class="st0" d="M100.8,28.3c0.8,0,1.1,0.4,1.1,1.3c0,0.9-0.4,1.3-1.1,1.3h-0.3c-2.4,0-3.9-0.5-4.9-1.1
		c-0.9,0.6-2.1,1.1-3.6,1.1h-0.2c-0.7,0-1.1-0.4-1.1-1.3c0-0.8,0.4-1.2,1.1-1.2H92c1,0,1.6-0.1,1.9-0.4c-0.1-0.3-0.1-0.6-0.1-0.8
		c0-2.6,2.9-5.8,4.5-5.8c0.9,0,1.4,1.1,1.4,2.4c0,1.4-0.5,3.1-1.7,4.2c0.5,0.3,1.3,0.4,2.4,0.4H100.8z M97.9,15.7
		c0.1,0.1,0.1,0.1,0,0.2c-0.3,0.4-1.2,1.4-1.6,1.9c-0.1,0.1-0.1,0.1-0.3,0c-0.5-0.3-1.7-1.2-2-1.6c-0.1-0.1-0.1-0.1,0-0.3
		c0.4-0.6,1-1.3,1.5-1.8c0.2-0.2,0.3-0.2,0.3-0.2C96.3,14.5,97.1,15.2,97.9,15.7z M97.2,23.8c-0.9,0-1.8,1-1.8,1.4
		c0,0.6,0.4,1,1.4,1.6c0.3-0.1,1.6-1.1,1.6-1.5C98.3,24.4,98,23.8,97.2,23.8z"/>
	<path class="st0" d="M104.9,14c0.7,0,1.9,1.1,1.9,2.3c0,0.5-0.1,0.9-0.2,1.4c-0.3,0.9-1,1.4-2,1.4c-0.9,0-1.5-0.7-1.5-1.5
		C103,16.5,104.3,14,104.9,14z M104.6,15.8c-0.3,0-0.8,0.7-0.8,1.1c0,0.3,0.4,0.6,0.9,0.6c0.6,0,1.2-0.3,1.2-0.5
		C106,16.8,105.3,15.8,104.6,15.8z"/>
	<path class="st0" d="M115,4.4c0,0.6-0.1,1.1-0.3,1.7c0.2,0.2,0.4,0.3,0.4,0.4c0,0.4-0.2,0.8-0.4,1.1c-0.1,0.1-0.1,0.1-0.1,0.1
		L114,7.3c-0.6,0.9-1.4,2-2.8,2.6c-0.5,0.2-1.1,0.4-1.7,0.4c-0.3,0-0.5-0.1-0.5-0.2c0-0.2,0.2-0.2,0.6-0.4c1-0.5,2.8-2,3.5-2.8
		c-0.5-0.4-1.2-0.8-1.2-1.5c0-0.5,0.3-1,0.7-1.5c0.5-0.6,0.9-0.9,1.4-0.9C114.8,3,115,3.8,115,4.4z M113,4.9
		C112.9,5,112.9,5,113,4.9c0,0.2,0.5,0.6,0.9,0.7c0.1-0.2,0.1-0.4,0.1-0.7c0-0.3-0.1-0.5-0.4-0.5C113.4,4.5,113.1,4.6,113,4.9z"/>
	<path class="st0" d="M114.2,11.2c0.2-0.2,0.3-0.2,0.4-0.1c0.5,0.6,1.2,1.2,1.7,1.6c0.2,0.1,0.2,0.2,0,0.4c-0.5,0.6-1,1.1-1.5,1.7
		c-0.1,0.2-0.2,0.2-0.3,0c-0.4-0.3-1.1-0.8-1.6-1.4c-0.3,0.4-1,1.1-1.3,1.3c-0.1,0.1-0.2,0.2-0.4,0c-0.6-0.4-1.3-1-1.7-1.5
		c-0.1-0.1-0.1-0.2,0-0.4c0.4-0.5,1-1.2,1.6-1.7c0.1-0.1,0.2-0.1,0.4,0.1c0.4,0.5,1.2,1.1,1.6,1.4C113.3,12.2,113.9,11.4,114.2,11.2
		z"/>
	<path class="st0" d="M113.5,20.9c-0.2,0-0.2-0.2-0.3-0.6c-0.1-0.7-0.4-1.4-1-1.4c-0.4,0-0.7,0.3-1.2,1c-1.2,2-2.6,3.2-3.7,4
		c-0.1,0,0,0.1,0.1,0.1c4,1.4,7.2,2.1,9.8,2c0.1,0,0.2,0,0.1,0.4c-0.2,0.4-0.7,1-1.5,1.9c-0.1,0.1-0.2,0.2-0.4,0.1
		c-1-0.2-2-0.2-2.9-0.3c-1.1,0-2.1,0.1-3,0.3c-0.8,0.2-1.9,0.6-3.2,1c-1.3,0.4-2.3,0.8-3,1c-0.7,0.2-1.7,0.3-2.8,0.3h-0.3
		c-0.7,0-1-0.4-1-1.3c0-0.8,0.3-1.2,1-1.2h0.3c2.4,0,4.9-0.4,7.4-1.1c0,0,0,0-0.2-0.1c-1.6-0.8-3.5-1.3-5.9-1.5
		c-0.2,0-0.2-0.1,0-0.3c0.2-0.3,0.7-0.9,1.5-1.7c0.3-0.3,1.1-0.8,2.4-1.3c2.1-0.9,4.3-2.4,5.6-4.8c0.4-0.7,1-1.2,1.5-1.2
		c0.9,0,1.2,1.3,1.2,2c0,0.6,0,1-0.1,1.4C114,20.4,113.8,20.9,113.5,20.9z"/>
	<path class="st0" d="M137.1,14.5c0,0.6-0.1,1.1-0.3,1.7c0.2,0.2,0.4,0.3,0.4,0.4c0,0.4-0.2,0.8-0.4,1.1c-0.1,0.1-0.1,0.1-0.1,0.1
		l-0.6-0.4c-0.6,0.9-1.4,2-2.8,2.6c-0.5,0.2-1.1,0.4-1.7,0.4c-0.3,0-0.5-0.1-0.5-0.2c0-0.2,0.2-0.2,0.6-0.4c1-0.5,2.8-2,3.5-2.8
		c-0.5-0.4-1.2-0.8-1.2-1.5c0-0.5,0.3-1,0.7-1.5c0.5-0.6,0.9-0.9,1.4-0.9C136.9,13.1,137.1,13.9,137.1,14.5z M135.1,15
		C135.1,15,135.1,15.1,135.1,15c0,0.2,0.5,0.6,0.9,0.7c0.1-0.2,0.1-0.4,0.1-0.7c0-0.3-0.1-0.5-0.4-0.5
		C135.5,14.5,135.3,14.7,135.1,15z"/>
	<path class="st0" d="M128.4,27.9c1.1,0.5,2.8,0.8,5.1,0.8c3.2,0,5.8-0.5,7.5-1c2.3-0.7,3.4-1.1,4.6-2c0.1,0,0.2-0.2,0.3-0.2
		c0.1,0,0.2,0.1,0.2,0.5c0,1.4,0.8,2.2,1.6,2.2h0.4c0.7,0,1,0.4,1,1.2c0,0.9-0.3,1.3-1,1.3h-0.5c-1.6,0-2.6-0.8-2.9-2.5
		c-1.2,0.6-2.7,1.4-4.1,1.8c-2.2,0.7-4.6,1.2-7.5,1.2c-2.3,0-4.3-0.3-5.5-0.8c-1.6-0.7-2.4-1.7-2.4-3.4c0-1.5,0.6-2.9,1-3.5
		c0.2-0.4,0.5-0.7,0.7-0.7c0.1,0,0.1,0.1,0.1,0.2c0,0.2-0.1,0.4-0.2,0.7c-0.2,0.5-0.4,1.2-0.4,1.7C126.3,26.2,126.8,27.1,128.4,27.9
		z M137.2,36.2c0.1,0.1,0.1,0.1,0,0.2c-0.3,0.4-1.2,1.4-1.6,1.9c-0.1,0.1-0.1,0.1-0.3,0c-0.5-0.3-1.7-1.2-1.9-1.6
		c-0.1-0.1-0.1-0.1,0-0.3c0.4-0.6,1-1.3,1.5-1.7c0.2-0.2,0.3-0.2,0.3-0.2C135.6,34.9,136.4,35.7,137.2,36.2z"/>
	<path class="st0" d="M158.2,31.6c0.1-0.1,0.2,0,0.2,0.1c0,0.6-0.2,1.3-0.6,1.5l-4.6,2.6c-0.1,0-0.1,0-0.1-0.1
		c0-0.3,0.1-0.9,0.3-1.1c0.1-0.2,0.3-0.4,0.8-0.6L158.2,31.6z"/>
	<path class="st0" d="M151.1,24.9c-0.3,0-0.5,0-0.7,0.1c-0.2,0.1-0.6,0.3-0.9,0.3c-0.2,0-0.2-0.1-0.2-0.3c0-0.5,0.7-1.5,1.4-2
		c0.6-0.5,1.1-0.6,1.6-0.6c0.2,0,0.4,0,0.5,0.1c2,0.5,4.7,1.6,6.7,2c1.4,0.3,2.9,0.4,3.8,0.4c0.2,0,0.4,0,0.5,0c0.1,0,0.1,0,0.1,0.1
		c0,0.4-0.8,1.7-1.2,2.1c-0.1,0.1-0.3,0.1-0.6,0.1c-0.5,0-1.8-0.1-2.1-0.1c-1,0-1.8,0.1-2.5,0.3c-0.5,0.2-1.3,0.5-2.6,1.1
		c-1.9,1-3.2,1.6-4,1.9c-0.8,0.3-1.8,0.5-2.8,0.5h-0.3c-0.8,0-1.2-0.4-1.2-1.4c0-0.8,0.4-1.2,1.2-1.2h0.3c1.5,0,2.8-0.2,3.9-0.5
		c1.1-0.3,2.6-0.8,4.5-1.6C154.1,25.6,152.3,24.9,151.1,24.9z"/>
	<path class="st0" d="M170.7,30.8c-0.7,0-1.4-0.1-1.9-0.5c-0.8-0.7-1.2-1.9-1.4-3.5c-0.2-1.2-0.3-2.6-0.3-4.2
		c-0.1-2.3-0.2-5.7-0.6-7.7c0-0.1,0-0.2,0-0.3c0-0.1,0-0.2,0.2-0.4c0.4-0.5,0.6-0.9,0.8-1.3c0.2-0.3,0.2-0.4,0.3-0.4
		c0.1,0,0.2,0.2,0.3,0.7c0.5,3.9,0.1,9.4,0.7,12.5c0.2,0.8,0.2,1,0.4,1.5c0.3,0.7,0.8,1,1.6,1.1c0.9,0,1.3,0.4,1.4,1.2
		c0,1-0.5,1.3-1.2,1.3H170.7z"/>
	<path class="st0" d="M180.2,16.3c0.1-0.1,0.2,0,0.2,0.1c0,0.6-0.2,1.3-0.6,1.5l-4.6,2.6c-0.1,0-0.1,0-0.1-0.1
		c0-0.3,0.1-0.9,0.3-1.1c0.1-0.2,0.3-0.4,0.8-0.6L180.2,16.3z"/>
	<path class="st0" d="M175.8,32.2c-0.1,0-0.2-0.1-0.2-0.2c0-0.1,0-0.2,0.1-0.3c0.1-0.4,0.3-0.8,0.5-1.2c-1.2-0.4-1.9-1.1-2.3-2.1
		c-0.8,1.7-1.8,2.6-2.9,2.6h-0.2c-0.7,0-1.1-0.4-1.1-1.3c0-0.9,0.4-1.3,1.1-1.3h0.3c1.4,0,2.5-0.9,3.1-2.6c0.3-0.7,0.5-1,0.7-1
		c0.2,0,0.4,0.3,0.4,0.8c0,0.9,0.5,2.2,2.5,2.5c2.2-2.8,6.3-6.1,8.1-6.1c0.6,0,1.5,0.3,2.2,0.7c0.8,0.5,1,1.1,1,1.7
		c0,0.8-0.5,2.5-1.2,3.5c-0.9,1-2.9,2-5.1,2.5c-1.3,0.3-2.6,0.5-3.7,0.5c-0.8,0-1.5-0.1-2-0.2c-0.2,0.3-0.5,0.8-0.6,1.1
		C176.2,31.9,176,32.2,175.8,32.2z M187.5,26.2c0-0.6-1.8-1.7-2.8-1.7c-1.7,0-4.3,2-6,3.7c0.2,0,0.5,0,0.7,0
		C182.6,28.2,186.5,26.9,187.5,26.2C187.5,26.2,187.5,26.2,187.5,26.2z"/>
	<path class="st0" d="M210.2,7.5c0.1-0.1,0.2,0,0.2,0.1c0,0.6-0.2,1.3-0.6,1.5l-4.6,2.6c-0.1,0-0.1,0-0.1-0.1c0-0.3,0.1-0.9,0.3-1.1
		c0.1-0.2,0.3-0.4,0.8-0.6L210.2,7.5z"/>
	<path class="st0" d="M211,28.5c0,2.6-0.4,3.2-1.1,4.1c-1.4,2.2-4,3.3-6.6,3.3c-4.4,0-5.7-2.3-5.7-4.6c0-1.6,0.5-3.4,1.2-4.7
		c0.4-0.7,0.7-1,0.8-1c0.1,0,0.1,0.1,0.1,0.2c0,0.2-0.1,0.5-0.3,0.9c-0.4,0.8-0.8,1.9-0.8,2.8c0,2,1.6,3.7,4.9,3.7
		c2.4,0,5.5-1.6,6.1-2.9c0.1-0.1,0.1-0.2,0.1-0.4c-0.1-2.1-0.3-3.6-0.6-5.4c-0.5-3.4-0.5-4.2-0.9-7.5c0-0.4-0.4-1.5-0.4-1.9
		c0-0.1,0-0.2,0-0.3c0,0,0-0.1,0-0.2c0-0.1,0.1-0.4,0.4-1c0.3-0.6,0.8-1.2,1-1.2c0.1,0,0.1,0.1,0.2,0.2c0.3,1.1,0.6,1.6,0.9,2
		c0,0.1,0.1,0.2,0.1,0.2c0,0.1,0,0.1,0,0.2c-0.1,0.3-0.3,0.9-0.6,1.2C210.3,20.3,211,25.8,211,28.5z"/>
	<path class="st0" d="M218.9,30.8c-0.7,0-1.4-0.1-1.9-0.5c-0.8-0.7-1.2-1.9-1.4-3.5c-0.2-1.2-0.3-2.6-0.3-4.2
		c-0.1-2.3-0.2-5.7-0.6-7.7c0-0.1,0-0.2,0-0.3c0-0.1,0-0.2,0.2-0.4c0.4-0.5,0.6-0.9,0.8-1.3c0.2-0.3,0.2-0.4,0.3-0.4
		c0.1,0,0.2,0.2,0.3,0.7c0.5,3.9,0.1,9.4,0.7,12.5c0.2,0.8,0.2,1,0.4,1.5c0.3,0.7,0.8,1,1.6,1.1c0.9,0,1.3,0.4,1.4,1.2
		c0,1-0.5,1.3-1.2,1.3H218.9z"/>
	<path class="st0" d="M225.5,25c0,1.3-0.4,3.2-1,4.2c-0.2,0.4-1.1,0.8-1.6,0.9c-1.5,0.5-2.8,0.7-3.7,0.7H219c-0.7,0-1.1-0.4-1.1-1.3
		c0-0.8,0.4-1.2,1.1-1.2h0.2c1.5,0,3.2-0.2,4.1-0.6c0.8-0.3,1-0.4,1-1.2c0-0.5-0.1-1-0.4-1.4c-0.2,0.6-1.1,1.1-2,1.1
		c-1.2,0-2-0.7-2-2.2c0-2,1.5-4.7,2.3-4.7C224.3,19.3,225.5,23.2,225.5,25z M223.9,13.2c0.2-0.2,0.3-0.2,0.4-0.1
		c0.5,0.6,1.2,1.2,1.7,1.6c0.2,0.1,0.2,0.2,0,0.4c-0.5,0.6-1,1.1-1.5,1.7c-0.1,0.2-0.2,0.2-0.3,0c-0.4-0.3-1.1-0.8-1.6-1.4
		c-0.3,0.4-1,1.1-1.3,1.3c-0.1,0.1-0.2,0.2-0.4,0c-0.6-0.4-1.3-1-1.7-1.6c-0.1-0.1-0.1-0.2,0-0.4c0.4-0.5,1-1.2,1.6-1.7
		c0.1-0.1,0.2-0.1,0.4,0.1c0.4,0.5,1.2,1.1,1.6,1.4C223,14.1,223.6,13.4,223.9,13.2z M222.7,22.1c-0.2-0.2-0.6-0.3-0.8-0.3
		c-0.2,0-0.4,0.2-0.6,0.5c-0.2,0.3-0.2,0.5-0.2,0.6c0,0.5,0.6,0.7,1.1,0.7c0.5,0,1.1-0.2,1.1-0.6C223.2,22.9,223,22.4,222.7,22.1z"
		/>
</g>
</svg>
