<?xml version="1.0" encoding="utf-8"?>
<!-- Generator: Adobe Illustrator 19.2.0, SVG Export Plug-In . SVG Version: 6.00 Build 0)  -->
<svg version="1.1" id="Layer_1" xmlns="http://www.w3.org/2000/svg" xmlns:xlink="http://www.w3.org/1999/xlink" x="0px" y="0px"
	 viewBox="0 0 403.5 50.8" style="enable-background:new 0 0 403.5 50.8;" xml:space="preserve">
<style type="text/css">
	.st0{fill:#002F3D;}
	.st1{fill:#F15A24;}
	.st2{fill:none;}
</style>
<g>
	<path d="M31.5,37.4c0,0.1-0.1,0.1-0.2,0.1c-0.4,0-1.1-0.4-1.9-1.1c-0.6-0.5-1.1-1.1-1.5-1.6c-0.9-1.1-1.5-2.4-2.1-3.8
		c-1.3,0-2-0.2-2.1-0.5c0.4-0.3,0.7-0.7,0.9-1c0.3-0.4,0.4-0.8,0.4-1.2c-0.3,0-0.7,0.2-1.2,0.6c-0.1,0.1-0.4,0.4-1,0.9
		c-0.1,0-0.2-0.1-0.3-0.4c-0.1-0.3-0.2-0.7-0.2-1.2c-0.3-0.2-0.6-0.3-0.8-0.5c-0.2-0.2-0.3-0.3-0.3-0.4c0-0.2,0.2-0.4,0.5-0.7
		c0.2-0.1,0.4-0.3,0.6-0.4c0-0.4,0-0.7,0.1-1.1c0.1-0.3,0.2-0.5,0.3-0.5c0.4,0.4,0.8,0.7,1,0.9c0.4,0.3,0.9,0.5,1.2,0.5
		c0-0.4-0.2-0.8-0.5-1.2c-0.3-0.3-0.6-0.7-1-1c0-0.2,0.3-0.3,1-0.5c0.5-0.1,0.9-0.2,1.2-0.2c0.9-2.7,2.3-4.7,4-6.1
		c0.6-0.5,1-0.7,1.2-0.7c0.1,0,0.2,0.1,0.2,0.2c0,0.1-0.2,0.4-0.7,0.9c-1.5,1.7-2.3,3.6-2.7,5.7c0.4,0.1,0.7,0.1,0.8,0.2
		c0.1,0.1,0.2,0.2,0.2,0.3c-0.4,0.3-0.7,0.7-0.9,1c-0.3,0.4-0.5,0.8-0.5,1.2c0.4,0,0.8-0.2,1.1-0.5c0.2-0.2,0.6-0.6,1-1
		c0.2,0,0.3,0.2,0.5,0.7c0.1,0.4,0.1,0.7,0.1,0.9c0.7,0.3,1.1,0.7,1.1,1c0,0.3-0.3,0.6-1,1c0,0.6-0.1,1.1-0.2,1.3
		c-0.1,0.2-0.2,0.2-0.4,0.3c-0.7-0.9-1.5-1.3-2.2-1.4c0,0.3,0.2,0.8,0.5,1.2c0.1,0.2,0.5,0.5,1,1c0,0.1-0.1,0.1-0.2,0.2
		c-0.1,0.1-0.4,0.1-0.9,0.3c0.2,1.1,0.6,2.2,1.3,3.3c0.7,1.1,1.4,2.1,2.2,2.8C31.4,37.1,31.5,37.3,31.5,37.4z M24.6,27.8
		c-0.2-0.1-0.5-0.2-0.8-0.3c0,0-0.2-0.1-0.5-0.2C23,27.1,22.9,27,22.9,27c0,0,0.3-0.2,1-0.3c0.1-0.1,0.4-0.2,0.7-0.3
		c-0.4-0.1-0.7-0.3-1-0.5c-0.1-0.1-0.4-0.4-0.7-0.6c-0.1,0-0.1,0.1-0.1,0.3c0,0.2,0,0.4,0,0.8c-0.6,0.3-0.9,0.6-0.9,0.7
		c0,0.1,0.1,0.2,0.3,0.3s0.4,0.2,0.7,0.3c0,0.1,0,0.4,0.1,0.7c0.1,0.4,0.1,0.6,0.2,0.6l0.7-0.7C24,28,24.3,27.9,24.6,27.8z
		 M30.3,17.1c-1.8,1.2-3.2,3.4-4.3,6.5c-0.7,0-1.2,0-1.4,0.1c-0.2,0-0.3,0.1-0.3,0.2c0.5,0.4,0.9,0.9,1.2,1.4
		c0.1-0.3,0.3-0.5,0.4-0.6c0.1-0.2,0.2-0.5,0.4-0.7c0,0,0.1,0.1,0.1,0.3c0,0.2,0.1,0.3,0.1,0.3c0.1,0.1,0.2,0.3,0.4,0.7
		c0.1-0.3,0.3-0.6,0.5-0.9c0.1-0.1,0.3-0.4,0.6-0.6c0-0.1-0.1-0.1-0.3-0.2c-0.1,0-0.3,0-0.5-0.1c0.3-1.2,0.5-2,0.6-2.4
		C28.3,19.8,29.1,18.5,30.3,17.1z M30.8,37c-0.7-0.7-1.4-1.5-2-2.6c-0.7-1.2-1.1-2.5-1.4-3.8c0.5,0,0.8-0.1,0.8-0.2
		c-0.5-0.5-1-1-1.2-1.5c-0.1,0.2-0.2,0.4-0.3,0.7c0,0-0.1,0.2-0.2,0.4c-0.1,0.2-0.1,0.3-0.2,0.3c-0.2,0-0.4-0.4-0.7-1.3
		c-0.2,0.4-0.4,0.7-0.6,0.9c-0.2,0.2-0.4,0.4-0.6,0.6c0,0,0.1,0.1,0.3,0.1c0.1,0,0.4,0.1,0.6,0.1c0.2,0,0.3,0,0.4,0
		c0.1,0,0.3,0,0.3,0C27,33.4,28.6,35.5,30.8,37z M27.6,27.1c0-0.4-0.1-0.7-0.4-0.9c-0.3-0.2-0.6-0.4-0.9-0.4c-0.4,0-0.7,0.1-0.9,0.4
		c-0.2,0.2-0.4,0.6-0.4,0.9c0,0.3,0.1,0.6,0.4,0.9c0.3,0.2,0.6,0.4,0.9,0.4c0.4,0,0.7-0.1,0.9-0.4C27.4,27.7,27.6,27.4,27.6,27.1z
		 M30.6,27c0-0.2-0.3-0.3-0.9-0.6c0-0.4,0-0.7-0.1-0.9c-0.1-0.2-0.1-0.4-0.2-0.4c-0.1,0.1-0.3,0.3-0.7,0.7c-0.3,0.3-0.6,0.4-0.9,0.6
		c0.1,0,0.4,0.2,1.1,0.4c0.4,0.1,0.6,0.3,0.6,0.3c0,0.1-0.2,0.2-0.6,0.3c-0.3,0.1-0.7,0.2-1.1,0.3c0.3,0.1,0.6,0.3,1,0.5
		c0.1,0.1,0.4,0.3,0.6,0.6c0.1,0,0.2-0.4,0.2-1.2C30.3,27.4,30.6,27.1,30.6,27z"/>
	<path class="st0" d="M42.3,19.7c0,0.2,0,0.5-0.1,0.7c-0.1,0.2-0.2,0.4-0.3,0.6c-0.1,0.2-0.3,0.3-0.5,0.4c-0.2,0.1-0.5,0.2-0.8,0.2
		c-0.4,0-0.7-0.1-0.9-0.4c-0.3-0.2-0.4-0.6-0.4-0.9c0-0.2,0-0.4,0.1-0.7c0.1-0.3,0.2-0.6,0.3-0.8c0.1-0.3,0.3-0.5,0.5-0.7
		c0.2-0.2,0.5-0.3,0.7-0.3c0.3,0,0.5,0,0.7,0.2c0.2,0.1,0.3,0.3,0.4,0.5c0.1,0.2,0.2,0.4,0.2,0.7C42.3,19.3,42.3,19.5,42.3,19.7z
		 M39.8,19.9c0,0.1,0,0.2,0.1,0.3c0.1,0.1,0.1,0.1,0.2,0.2c0.1,0,0.2,0.1,0.3,0.1c0.1,0,0.2,0,0.3,0c0.2,0,0.4,0,0.6-0.1
		c0.2-0.1,0.3-0.2,0.5-0.3c0-0.1,0-0.3,0-0.4c0-0.1-0.1-0.3-0.2-0.4s-0.2-0.2-0.3-0.3c-0.1-0.1-0.3-0.1-0.5-0.1
		c-0.1,0-0.2,0.1-0.3,0.2c-0.1,0.1-0.2,0.2-0.3,0.3c-0.1,0.1-0.2,0.2-0.2,0.3C39.8,19.7,39.8,19.8,39.8,19.9z"/>
	<path class="st0" d="M42,27.5c0.1,0,0.3,0,0.4,0.1c0.1,0.1,0.2,0.2,0.4,0.3c0.1,0.1,0.2,0.3,0.4,0.4c0.1,0.1,0.3,0.3,0.4,0.4
		c0.2,0.2,0.4,0.3,0.6,0.4c0.2,0.1,0.5,0.2,0.7,0.2c0.3,0,0.5,0.1,0.8,0.1c0.3,0,0.5,0,0.8,0h0.2c0.2,0,0.4,0.1,0.5,0.3
		c0.1,0.2,0.2,0.4,0.2,0.6c0,0.2-0.1,0.4-0.2,0.6c-0.1,0.2-0.3,0.3-0.5,0.3h-0.2c-0.2,0-0.3,0-0.5,0c-0.2,0-0.4,0-0.6,0
		c-0.2,0-0.5,0-0.7-0.1c-0.2,0-0.5-0.1-0.7-0.1c0,0.2,0,0.4-0.1,0.5c0,0.2-0.1,0.2-0.2,0.3c-0.3,0.1-0.6,0.1-1,0
		c-0.4,0-0.8-0.1-1.2-0.3c-0.4-0.1-0.7-0.3-1-0.5c-0.3-0.2-0.5-0.4-0.6-0.5c-0.1,0.1-0.3,0.1-0.5,0.2c-0.2,0.1-0.3,0.2-0.4,0.4
		c-0.1,0.1-0.2,0.3-0.3,0.5c-0.1,0.2-0.1,0.3-0.1,0.5c0,0.3,0,0.6,0.1,1.1c0.1,0.4,0.1,0.9,0.2,1.4c0.1,0.5,0.1,1,0.2,1.4
		c0.1,0.5,0.1,0.9,0.2,1.2c0,0.3,0.1,0.6,0.1,1c0,0.4,0.1,0.7,0.1,1.1c0,0.4,0,0.7,0,1c0,0.3,0,0.6-0.1,0.8c0,0.1-0.1,0.1-0.1,0.1
		c-0.1,0-0.1,0-0.1-0.1c0-0.1-0.1-0.3-0.1-0.4c0-0.1,0-0.3-0.1-0.4c0-0.1-0.1-0.4-0.1-0.8c-0.1-0.4-0.1-1-0.2-1.7
		c-0.1-0.7-0.2-1.3-0.3-1.8c-0.1-0.5-0.2-1-0.2-1.5C38.1,34,38,33.6,38,33.3c0-0.3-0.1-0.6-0.1-0.8c0-0.7,0-1.2,0.2-1.7
		c0.2-0.5,0.4-0.9,0.8-1.2c0.1-0.1,0.3-0.3,0.6-0.5c0.3-0.2,0.6-0.5,0.9-0.7c0.3-0.2,0.6-0.4,0.9-0.6C41.6,27.6,41.9,27.5,42,27.5z
		 M41.8,28.7c-0.2,0-0.4,0-0.6,0.1c-0.2,0.1-0.4,0.2-0.5,0.3c-0.1,0.1-0.1,0.1,0,0.2c0.2,0.1,0.4,0.2,0.6,0.3
		c0.2,0.1,0.5,0.2,0.7,0.2c0.2,0.1,0.5,0.1,0.7,0.2s0.3,0,0.4,0c-0.1-0.2-0.2-0.3-0.3-0.5c-0.1-0.2-0.3-0.3-0.4-0.4
		c-0.1-0.1-0.2-0.2-0.3-0.3C41.9,28.8,41.8,28.7,41.8,28.7z"/>
	<path class="st0" d="M52.3,38.1c-0.7,0.2-1.4,0.4-2.1,0.7c-0.7,0.2-1.3,0.4-2,0.6c-0.1,0-0.1,0-0.1-0.1l0.4-0.8c0,0,0-0.1,0.1-0.1
		c0,0,0,0,0.1-0.1c0.2-0.1,0.4-0.2,0.8-0.3c0.3-0.1,0.7-0.2,1-0.3c0.4-0.1,0.7-0.2,1.1-0.4c0.4-0.1,0.8-0.2,1.1-0.3
		c0.1,0,0.1,0,0.1,0c0,0,0,0,0,0.1L52.4,38C52.4,38,52.4,38,52.3,38.1C52.3,38.1,52.3,38.1,52.3,38.1z"/>
	<path class="st0" d="M52.5,26.8c0,0.3-0.1,0.6-0.1,0.9c-0.1,0.3-0.1,0.5-0.2,0.8c-0.1,0.2-0.2,0.5-0.4,0.7
		c-0.1,0.2-0.3,0.4-0.5,0.6c0.3,0,0.6-0.1,0.9-0.1c0.3,0,0.6,0,0.9,0c0.3,0,0.6,0,0.9,0c0.3,0,0.6,0,0.8,0h0.2
		c0.2,0,0.4,0.1,0.5,0.3c0.1,0.2,0.2,0.4,0.2,0.6c0,0.2-0.1,0.4-0.2,0.6c-0.1,0.2-0.3,0.3-0.5,0.3h-0.2h-1l-1,0
		c0.5,0.5,0.7,1.1,0.7,1.7c0,0.2,0,0.4-0.1,0.7c-0.1,0.2-0.1,0.4-0.2,0.6c-0.1,0.2-0.2,0.4-0.4,0.5c-0.2,0.1-0.3,0.2-0.5,0.3
		c-0.5,0.1-0.9,0-1.3-0.2c-0.4-0.2-0.7-0.4-1-0.8c-0.3-0.3-0.5-0.7-0.8-1.2c-0.2-0.5-0.3-0.9-0.4-1.3c-0.2,0-0.4,0.1-0.6,0.1
		c-0.2,0.1-0.4,0.1-0.4,0c0-0.1,0-0.2,0.1-0.3c0-0.1,0.1-0.2,0.1-0.2l-1.1,0h-0.2c-0.3,0-0.4-0.1-0.6-0.3c-0.1-0.2-0.2-0.4-0.2-0.6
		c0-0.2,0.1-0.4,0.2-0.6c0.1-0.2,0.3-0.3,0.5-0.3h0.2c0.4,0,0.8,0,1.1,0c0.4,0,0.7,0,1-0.1c0-0.3,0.1-0.5,0.2-0.8
		c0.1-0.3,0.2-0.5,0.3-0.8c0.1-0.3,0.2-0.5,0.3-0.8c0.1-0.3,0.3-0.5,0.4-0.7c0.1-0.1,0.2-0.3,0.4-0.5c0.2-0.2,0.3-0.4,0.5-0.6
		c0.2-0.2,0.4-0.4,0.6-0.5c0.2-0.1,0.4-0.2,0.6-0.2c0.2,0,0.3,0.1,0.4,0.3c0.1,0.2,0.2,0.4,0.2,0.7c0,0.3,0.1,0.5,0.1,0.8
		C52.5,26.5,52.5,26.7,52.5,26.8z M51.7,27.9c0-0.3,0-0.5-0.1-0.8c-0.1-0.3-0.1-0.5-0.2-0.6c0-0.1-0.1-0.1-0.1-0.1
		c0,0-0.1-0.1-0.2,0c-0.2,0-0.4,0.2-0.6,0.4c-0.2,0.2-0.4,0.5-0.6,0.8c-0.2,0.3-0.3,0.6-0.4,1c-0.1,0.3-0.2,0.6-0.3,0.8
		c0.2-0.1,0.4-0.1,0.6-0.2c0.2-0.1,0.5-0.2,0.7-0.4c0.2-0.1,0.5-0.3,0.7-0.4C51.5,28.2,51.6,28,51.7,27.9z M49.4,31.5
		c0.1,0.2,0.2,0.5,0.4,0.7c0.1,0.2,0.2,0.4,0.4,0.6c0.1,0.2,0.3,0.3,0.5,0.4c0.2,0.1,0.5,0.2,0.8,0.3c0.1,0,0.2,0,0.3,0
		c0.1,0,0.3,0,0.4-0.1c0.1,0,0.2-0.1,0.3-0.2c0.1-0.1,0.1-0.2,0.1-0.3c0-0.2-0.1-0.4-0.4-0.5s-0.6-0.3-0.9-0.5
		c-0.4-0.1-0.7-0.3-1.1-0.3C49.8,31.5,49.6,31.5,49.4,31.5z"/>
	<path class="st0" d="M58.4,19.4c0,0.2,0,0.5-0.1,0.7c-0.1,0.2-0.2,0.4-0.3,0.6c-0.1,0.2-0.3,0.3-0.5,0.4c-0.2,0.1-0.5,0.2-0.8,0.2
		c-0.4,0-0.7-0.1-0.9-0.4c-0.3-0.2-0.4-0.6-0.4-0.9c0-0.2,0-0.4,0.1-0.7c0.1-0.3,0.2-0.6,0.3-0.8c0.1-0.3,0.3-0.5,0.5-0.7
		c0.2-0.2,0.5-0.3,0.7-0.3c0.3,0,0.5,0,0.7,0.2c0.2,0.1,0.3,0.3,0.4,0.5c0.1,0.2,0.2,0.4,0.2,0.7C58.4,19,58.4,19.2,58.4,19.4z
		 M55.9,19.7c0,0.1,0,0.2,0.1,0.3c0.1,0.1,0.1,0.1,0.2,0.2c0.1,0,0.2,0.1,0.3,0.1c0.1,0,0.2,0,0.3,0c0.2,0,0.4,0,0.6-0.1
		c0.2-0.1,0.3-0.2,0.5-0.3c0-0.1,0-0.3,0-0.4c0-0.1-0.1-0.3-0.2-0.4c-0.1-0.1-0.2-0.2-0.3-0.3c-0.1-0.1-0.3-0.1-0.5-0.1
		c-0.1,0-0.2,0.1-0.3,0.2c-0.1,0.1-0.2,0.2-0.3,0.3c-0.1,0.1-0.2,0.2-0.2,0.3C56,19.4,55.9,19.6,55.9,19.7z"/>
	<path class="st0" d="M54.7,31.2h-0.2c-0.2,0-0.4-0.1-0.5-0.3c-0.1-0.2-0.2-0.4-0.2-0.6c0-0.1,0-0.2,0-0.3c0-0.1,0.1-0.2,0.1-0.3
		c0.1-0.1,0.1-0.1,0.2-0.2c0.1,0,0.2-0.1,0.3-0.1h0.2c0.2,0,0.5,0,0.7,0c0.3,0,0.5-0.1,0.8-0.1c0.2-0.1,0.5-0.2,0.7-0.3
		c0.2-0.1,0.4-0.3,0.6-0.6c0.1-0.2,0.3-0.3,0.3-0.5c0.1-0.2,0.2-0.4,0.3-0.6c0-0.1,0.1-0.1,0.2-0.2c0.1,0,0.1,0,0.1,0.1
		c0,0.1,0,0.2,0,0.3c0,0.1,0,0.2,0,0.3c0,0.2,0,0.4,0.1,0.6s0.2,0.4,0.4,0.5c0.2,0.2,0.5,0.3,0.8,0.4c0.3,0.1,0.7,0.1,1.2,0.1h0.2
		c0.1,0,0.2,0,0.3,0.1c0.1,0,0.1,0.1,0.2,0.2c0.1,0.1,0.1,0.2,0.1,0.3c0,0.1,0,0.2,0,0.3c0,0.2-0.1,0.4-0.2,0.6
		c-0.1,0.2-0.3,0.3-0.5,0.3H61c-0.4,0-0.8,0-1.1-0.1c-0.3-0.1-0.6-0.2-0.9-0.3c-0.5-0.3-0.8-0.7-1.1-1.3c-0.2,0.3-0.3,0.6-0.6,0.8
		c-0.2,0.2-0.5,0.4-0.7,0.5c-0.3,0.1-0.6,0.2-0.9,0.3C55.4,31.2,55,31.2,54.7,31.2z M59.2,35.5C59.2,35.6,59.1,35.6,59.2,35.5
		c-0.1,0.1-0.1,0.1-0.2,0l-1.3-1l-0.8,1.1c0,0.1-0.1,0.1-0.2,0l-1.4-1.1c0,0-0.1-0.1,0-0.1l0.9-1.2c0,0,0.1-0.1,0.1-0.1s0,0,0.1,0
		l1.3,1l0.9-1.1c0-0.1,0.1-0.1,0.1,0l1.4,1.1c0,0,0,0.1,0,0.2L59.2,35.5z"/>
	<path class="st0" d="M65.2,14.1c-0.4,0.2-0.7,0.3-1.1,0.5c-0.4,0.2-0.8,0.4-1.1,0.5c-0.4,0.2-0.7,0.3-1,0.5
		c-0.3,0.1-0.6,0.3-0.8,0.4c0,0-0.1,0-0.1,0c0,0,0-0.1,0-0.1l0.5-1.1c0-0.1,0.1-0.1,0.1-0.1c0,0,0.1,0,0.1-0.1l3.9-1.7
		c0.1,0,0.2,0,0.1,0.1l-0.4,1C65.3,14,65.2,14,65.2,14.1z"/>
	<path class="st0" d="M60.8,29.6H61c0.4,0,0.8,0,1.3-0.1c0.4-0.1,0.8-0.2,1.1-0.3c0.3-0.2,0.5-0.4,0.7-0.7c0.2-0.3,0.2-0.7,0.1-1.2
		l-1.1-8.8c0-0.1,0-0.2,0.1-0.3l0.5-1.1c0,0,0-0.1,0.1-0.1c0,0,0.1,0,0.1,0.1l1.2,9.8c0.1,0.5,0.1,0.9,0.3,1.2
		c0.1,0.3,0.3,0.6,0.5,0.9c0.2,0.2,0.5,0.4,0.9,0.5c0.3,0.1,0.8,0.2,1.3,0.2h0.2c0.2,0,0.4,0.1,0.5,0.3c0.1,0.2,0.2,0.4,0.2,0.6
		c0,0.2-0.1,0.4-0.2,0.6c-0.1,0.2-0.3,0.3-0.5,0.3H68c-0.3,0-0.6,0-0.9-0.1c-0.3-0.1-0.6-0.2-0.9-0.3c-0.3-0.2-0.6-0.4-0.8-0.8
		c-0.3-0.3-0.5-0.8-0.6-1.4c-0.2,0.6-0.4,1.1-0.7,1.4c-0.3,0.3-0.6,0.6-1,0.8c-0.4,0.2-0.7,0.3-1.1,0.3c-0.4,0-0.7,0.1-1,0.1h-0.2
		c-0.2,0-0.4-0.1-0.5-0.3c-0.1-0.2-0.2-0.4-0.2-0.6c0-0.2,0.1-0.4,0.2-0.6C60.4,29.6,60.5,29.6,60.8,29.6z"/>
	<path class="st0" d="M73.8,18.4c-0.4,0.2-0.7,0.3-1.1,0.5c-0.4,0.2-0.8,0.4-1.1,0.5c-0.4,0.2-0.7,0.3-1,0.5
		c-0.3,0.1-0.6,0.3-0.8,0.4c0,0-0.1,0-0.1,0s0-0.1,0-0.1l0.5-1.1c0-0.1,0.1-0.1,0.1-0.1c0,0,0.1,0,0.1-0.1l3.9-1.7
		c0.1,0,0.2,0,0.1,0.1l-0.4,1C73.9,18.3,73.9,18.3,73.8,18.4z"/>
	<path class="st0" d="M77.3,29.1c-0.7,0.2-1.4,0.4-2.3,0.6c-0.9,0.2-1.7,0.5-2.6,0.7c-0.9,0.2-1.7,0.4-2.5,0.6
		c-0.8,0.2-1.4,0.2-1.9,0.2h-0.2c-0.2,0-0.4-0.1-0.5-0.3c-0.1-0.2-0.2-0.4-0.2-0.6s0.1-0.4,0.2-0.6c0.1-0.2,0.3-0.3,0.5-0.3H68
		c0.2,0,0.4,0,0.6,0c0.2,0,0.5,0,0.7,0c0.2,0,0.5,0,0.7-0.1c0.2,0,0.4-0.1,0.6-0.1c-0.2-0.1-0.3-0.2-0.5-0.4
		c-0.2-0.2-0.3-0.4-0.4-0.6c-0.1-0.2-0.2-0.4-0.3-0.7c-0.1-0.2-0.2-0.5-0.2-0.7c-0.1-0.4,0-0.9,0.1-1.4c0.2-0.5,0.4-0.9,0.7-1.3
		c0.3-0.4,0.6-0.7,1-1c0.4-0.3,0.8-0.5,1.2-0.5c0.5-0.1,1-0.1,1.5,0c0.4,0.1,0.8,0.2,1.2,0.4c0.3,0.2,0.6,0.4,0.9,0.6
		c0.3,0.2,0.5,0.5,0.6,0.7c0.1,0.1,0,0.2-0.1,0.2c-0.1,0-0.2,0-0.3,0c-0.5-0.3-0.9-0.4-1.4-0.5c-0.5-0.1-1-0.1-1.6,0
		c-0.3,0-0.6,0.1-0.9,0.1c-0.3,0.1-0.6,0.2-0.8,0.2c-0.3,0.1-0.5,0.2-0.7,0.3c-0.2,0.1-0.4,0.3-0.5,0.4c0,0.1,0,0.3,0.1,0.5
		c0,0.2,0.1,0.4,0.2,0.5c0.1,0.2,0.2,0.4,0.3,0.6c0.1,0.2,0.3,0.3,0.4,0.5c0.2,0.2,0.3,0.3,0.5,0.5c0.2,0.1,0.4,0.3,0.5,0.4
		c0.2,0.1,0.3,0.2,0.5,0.3c0.2,0.1,0.3,0.1,0.4,0.1c0.5-0.1,0.9-0.2,1.4-0.3c0.5-0.1,0.9-0.2,1.4-0.3c0.5-0.1,0.9-0.2,1.3-0.4
		c0.4-0.1,0.9-0.3,1.3-0.4c0,0,0.1,0,0.1,0c-0.2,0.4-0.4,0.7-0.6,1C77.7,28.6,77.5,28.9,77.3,29.1z"/>
	<path class="st0" d="M94.7,19.1c-0.2,0.3-0.3,0.6-0.5,0.7C94,19.9,93.7,20,93.4,20c-0.2,0-0.4-0.1-0.6-0.2
		c-0.2-0.1-0.3-0.4-0.3-0.7c0-0.1,0-0.3,0-0.4c0-0.2,0.1-0.3,0.1-0.4c0.1-0.1,0.1-0.2,0.2-0.3c0.1-0.1,0.2-0.2,0.2-0.2
		c0.1,0,0.1,0.1,0,0.2c0,0.1-0.1,0.2-0.1,0.3c0,0.1,0,0.2,0,0.3c0,0.1,0,0.2,0,0.3c0,0.1,0.1,0.1,0.1,0.2c0.1,0.1,0.2,0.1,0.3,0.1
		c0.1,0,0.2,0,0.4-0.1c0.1,0,0.2-0.1,0.3-0.2c0.1-0.1,0.2-0.2,0.3-0.3c0.1-0.1,0.2-0.2,0.2-0.4c0-0.2,0.1-0.3,0.1-0.4
		c0-0.1,0-0.2,0.1-0.3c0-0.1,0.1-0.1,0.2-0.1c0,0,0,0,0,0.1c0,0,0,0.1,0,0.1c0,0,0,0.1,0,0.1c0,0,0,0.1,0,0.1c0,0.2,0,0.4,0.1,0.5
		c0.1,0.1,0.2,0.2,0.4,0.2c0.1,0,0.2,0,0.4,0c0.2,0,0.3-0.1,0.4-0.2c0,0,0-0.1,0-0.1c0-0.1,0-0.1,0-0.2c0-0.1,0-0.1-0.1-0.2
		c0-0.1-0.1-0.1-0.1-0.1l0.4-0.8c0.1,0,0.1,0.1,0.2,0.2c0,0.1,0.1,0.3,0.1,0.4c0,0.2,0,0.3,0,0.5c0,0.2,0,0.3-0.1,0.4
		c-0.1,0.3-0.2,0.5-0.3,0.7c-0.1,0.2-0.4,0.4-0.7,0.4c-0.3,0-0.5,0-0.7-0.1C95,19.3,94.8,19.2,94.7,19.1z M92.8,16.4
		c0.3-0.1,0.5-0.3,0.7-0.4c0.2-0.1,0.5-0.3,0.7-0.4c0.2-0.1,0.5-0.3,0.7-0.5c0.2-0.2,0.4-0.4,0.7-0.6c-0.2-0.1-0.4-0.1-0.6-0.3
		c-0.2-0.1-0.4-0.3-0.5-0.4c-0.1-0.1-0.1-0.2-0.1-0.3c0-0.1,0-0.2,0-0.3c0.1-0.2,0.1-0.3,0.3-0.5c0.1-0.2,0.2-0.4,0.4-0.5
		c0.2-0.2,0.3-0.3,0.5-0.4c0.2-0.1,0.4-0.1,0.6-0.1c0.2,0,0.4,0.1,0.5,0.3c0.1,0.2,0.2,0.4,0.2,0.6c0,0.2,0,0.5,0,0.7
		c0,0.2,0,0.4-0.1,0.5c0,0,0,0.1,0,0.1c0.1,0,0.2,0.1,0.2,0.1c0,0,0.1,0.1,0.1,0.1c0,0.1,0.1,0.2,0,0.4c0,0.1-0.1,0.2-0.1,0.3
		c-0.1,0.1-0.1,0.1-0.2,0.1c0,0-0.1,0-0.1-0.1c0,0-0.1-0.1-0.1-0.1c0,0-0.1-0.1-0.2-0.1c-0.2,0.2-0.4,0.4-0.7,0.6
		c-0.2,0.2-0.5,0.4-0.8,0.6c-0.3,0.2-0.6,0.3-0.9,0.4c-0.3,0.1-0.6,0.2-0.9,0.3c-0.1,0-0.3,0.1-0.4,0.1c-0.1,0-0.2,0-0.2,0
		c0,0,0-0.1,0.1-0.1C92.6,16.5,92.7,16.4,92.8,16.4z M95,13c0.2,0.2,0.3,0.3,0.6,0.4c0.2,0.1,0.4,0.2,0.6,0.2h0c0-0.1,0-0.1,0-0.2
		c0-0.1,0-0.2,0-0.3c0-0.1,0-0.2,0-0.3c0-0.1-0.1-0.2-0.1-0.2c-0.1,0-0.1-0.1-0.3-0.1c-0.1,0-0.2,0-0.3,0.1c-0.1,0-0.2,0.1-0.3,0.1
		C95,12.9,95,13,95,13z"/>
	<path class="st0" d="M96.5,18.4c-0.4,0.2-0.7,0.3-1.1,0.5c-0.4,0.2-0.8,0.4-1.1,0.5c-0.4,0.2-0.7,0.3-1,0.5
		c-0.3,0.1-0.6,0.3-0.8,0.4c0,0-0.1,0-0.1,0s0-0.1,0-0.1l0.5-1.1c0-0.1,0.1-0.1,0.1-0.1c0,0,0.1,0,0.1-0.1l3.9-1.7
		c0.1,0,0.2,0,0.1,0.1l-0.4,1C96.6,18.3,96.6,18.3,96.5,18.4z"/>
	<path class="st0" d="M90.2,22.6c0.1-0.1,0.1-0.1,0.2-0.1c0,0.5,0,1.1,0,1.8c0,0.6,0,1.2,0.1,1.8c0,0.6,0.1,1.1,0.1,1.5
		c0,0.4,0.1,0.7,0.1,0.9c0.1,0.5,0.4,0.9,0.8,1.1c0.4,0.2,0.9,0.3,1.6,0.2c0.3-0.1,0.5-0.2,0.8-0.3c0.3-0.1,0.5-0.3,0.8-0.5
		c0.2-0.2,0.4-0.4,0.6-0.6c0.1-0.2,0.2-0.5,0.2-0.7l-0.7-5.2c0-0.1,0-0.2,0.1-0.3c0-0.1,0.1-0.3,0.2-0.5c0.1-0.2,0.1-0.3,0.2-0.5
		c0.1-0.2,0.1-0.3,0.2-0.3c0.1-0.1,0.1-0.1,0.2-0.2c0,0,0.1,0,0.1,0.1l0.8,5.6c0.1,0.8,0.4,1.5,0.9,2c0.5,0.5,1.1,0.8,1.8,1
		c0.2,0,0.4,0.1,0.6,0.1c0.2,0,0.4,0,0.6-0.1c0.2,0,0.3-0.1,0.5-0.2c0.1-0.1,0.2-0.2,0.2-0.3c-0.1-0.5-0.2-1-0.3-1.5
		c-0.2-0.6-0.3-1.1-0.5-1.7c-0.1-0.2-0.1-0.4-0.2-0.7c-0.1-0.3-0.2-0.6-0.2-0.9c-0.1-0.3-0.1-0.6-0.2-1c-0.1-0.3-0.1-0.6-0.1-0.8
		c0-0.1,0-0.2,0.1-0.3c0-0.1,0.1-0.3,0.2-0.5c0.1-0.2,0.1-0.3,0.2-0.5c0.1-0.2,0.1-0.3,0.2-0.4c0-0.1,0.1-0.1,0.2-0.1
		c0.1,0,0.1,0.1,0.1,0.2c0.1,0.6,0.2,1.3,0.3,1.9c0.1,0.6,0.3,1.2,0.5,1.9c0.2,0.6,0.4,1.2,0.5,1.7c0.2,0.5,0.3,1,0.4,1.4
		c0.1,0.4,0.1,0.9,0,1.3c-0.1,0.4-0.2,0.9-0.4,1.2c-0.2,0.4-0.5,0.7-0.8,0.9c-0.3,0.2-0.8,0.3-1.3,0.3c-0.7,0-1.4-0.2-2-0.5
		c-0.6-0.4-1.1-1-1.5-1.8c-0.3,0.8-0.7,1.5-1.3,2c-0.5,0.5-1.2,0.8-1.9,0.9c-0.5,0-1,0-1.3-0.2c-0.4-0.2-0.7-0.4-0.9-0.7
		c-0.2-0.3-0.4-0.7-0.5-1.1c-0.1-0.4-0.2-0.8-0.2-1.3c-0.2,0.3-0.4,0.6-0.6,0.9c-0.2,0.3-0.4,0.4-0.7,0.5c-0.2,0.1-0.5,0.1-0.7,0.2
		c-0.3,0-0.6,0-0.8,0c-0.3,0-0.5-0.1-0.8-0.1c-0.3-0.1-0.5-0.2-0.7-0.3c0-0.3,0-0.6,0.1-0.9c0.1-0.3,0.3-0.6,0.5-0.9
		c0.2-0.3,0.4-0.6,0.7-0.8c0.3-0.2,0.5-0.4,0.7-0.6c0.3-0.2,0.7-0.4,1.1-0.6c0.4-0.2,0.8-0.3,1.2-0.4c0-0.2,0-0.4,0-0.6
		c0-0.2,0-0.4,0-0.6c0.1-0.3,0.2-0.6,0.4-0.8C89.9,23.1,90.1,22.9,90.2,22.6z M89.5,26.4c-0.2,0.1-0.5,0.2-0.8,0.3
		c-0.3,0.1-0.5,0.2-0.8,0.3c-0.3,0.1-0.5,0.3-0.8,0.4c-0.2,0.1-0.5,0.3-0.6,0.5c0,0,0,0,0,0c0,0,0,0,0,0c0.2,0.1,0.4,0.1,0.7,0.2
		c0.3,0,0.6,0.1,0.9,0c0.3,0,0.6,0,0.8-0.1c0.3-0.1,0.5-0.2,0.7-0.3L89.5,26.4z"/>
	<path class="st0" d="M104.6,17.3c0.1,0,0.2,0.1,0.2,0.4c0,0.3,0,0.5,0,0.8c0,0.3,0,0.5,0.1,0.8c0.1,0.6,0.2,1.3,0.3,2
		c0.1,0.7,0.2,1.4,0.3,2c0.1,0.7,0.2,1.4,0.3,2c0.1,0.7,0.2,1.3,0.2,2c0,0.3,0,0.5,0.1,0.9c0,0.3,0,0.7,0,1c0,0.3-0.1,0.7-0.1,1
		c-0.1,0.3-0.1,0.6-0.3,0.8c-0.1,0.1-0.1,0.2-0.2,0.2c-0.1,0-0.1,0-0.1-0.1c0-0.6-0.1-1.3-0.2-1.9c-0.1-0.6-0.1-1.3-0.2-1.9
		c-0.1-0.7-0.2-1.4-0.3-2c-0.1-0.7-0.2-1.3-0.3-2c-0.1-0.7-0.2-1.3-0.3-2c-0.1-0.7-0.2-1.3-0.3-2c0-0.2,0.1-0.3,0.1-0.5
		c0-0.2,0.1-0.4,0.2-0.5c0.2-0.5,0.3-0.7,0.3-0.8C104.6,17.4,104.6,17.3,104.6,17.3z"/>
	<path class="st0" d="M121.8,19.7c-0.4,0.2-0.7,0.3-1.1,0.5c-0.4,0.2-0.8,0.4-1.1,0.5c-0.4,0.2-0.7,0.3-1,0.5
		c-0.3,0.1-0.6,0.3-0.8,0.4c0,0-0.1,0-0.1,0c0,0,0-0.1,0-0.1l0.5-1.1c0-0.1,0.1-0.1,0.1-0.1c0,0,0.1,0,0.1-0.1l3.9-1.7
		c0.1,0,0.2,0,0.1,0.1l-0.4,1C122,19.6,121.9,19.7,121.8,19.7z"/>
	<path class="st0" d="M114,24.6c-0.2,0.4-0.4,0.8-0.5,1.2c-0.1,0.4-0.2,0.8-0.1,1.3c0.1,0.5,0.3,1,0.6,1.3c0.3,0.3,0.7,0.6,1.2,0.8
		c0.5,0.2,1,0.3,1.5,0.4c0.5,0.1,1.1,0.1,1.6,0.1c0.8,0,1.5,0,2.3-0.1c0.7-0.1,1.5-0.2,2.2-0.4c0.7-0.2,1.4-0.4,2.2-0.7
		c0.7-0.3,1.4-0.6,2.1-0.9c0.1,0,0.1,0,0.1,0c0,0,0,0.1,0,0.1c-0.1,0.2-0.1,0.5,0,0.7c0,0.2,0.1,0.4,0.2,0.6
		c0.2,0.2,0.4,0.4,0.7,0.5c0.3,0.1,0.6,0.1,1,0.1h0.2c0.2,0,0.4,0.1,0.5,0.3c0.1,0.2,0.2,0.4,0.2,0.6c0,0.2-0.1,0.4-0.2,0.6
		c-0.1,0.2-0.3,0.3-0.5,0.3h-0.2c-0.8,0-1.4-0.2-1.9-0.5c-0.5-0.3-0.8-0.8-0.9-1.4c-0.7,0.3-1.3,0.6-1.9,0.9c-0.6,0.3-1.3,0.5-2,0.6
		c-0.7,0.2-1.4,0.3-2.1,0.4c-0.7,0.1-1.4,0.1-2.2,0.1c-0.6,0-1.2-0.1-1.9-0.2c-0.7-0.1-1.3-0.3-1.8-0.6c-0.6-0.3-1-0.7-1.4-1.1
		c-0.4-0.5-0.5-1.1-0.5-1.8c0-0.7,0.1-1.3,0.4-1.9c0.3-0.5,0.6-1,0.9-1.4c0,0,0.1-0.1,0.1-0.1c0,0,0.1,0,0.1,0c0,0,0,0.1,0,0.1
		C114,24.5,114,24.6,114,24.6z M119.6,33.6l1.3,1.1c0.1,0,0.1,0.1,0,0.2L120,36c0,0.1-0.1,0.1-0.2,0l-1.3-1.1c-0.1,0-0.1-0.1,0-0.2
		l0.9-1.1C119.4,33.5,119.5,33.5,119.6,33.6z"/>
	<path class="st0" d="M139.1,35.2c-0.7,0.2-1.4,0.4-2.1,0.7c-0.7,0.2-1.3,0.4-2,0.6c-0.1,0-0.1,0-0.1-0.1l0.4-0.8c0,0,0-0.1,0.1-0.1
		c0,0,0,0,0.1-0.1c0.2-0.1,0.4-0.2,0.8-0.3c0.3-0.1,0.7-0.2,1-0.3c0.4-0.1,0.7-0.2,1.1-0.4c0.4-0.1,0.8-0.2,1.1-0.3
		c0.1,0,0.1,0,0.1,0c0,0,0,0,0,0.1l-0.5,0.8C139.2,35.1,139.2,35.1,139.1,35.2C139.2,35.1,139.1,35.1,139.1,35.2z"/>
	<path class="st0" d="M142.7,29.5c0.4,0,0.7,0,1.1,0c0.4,0,0.7,0,1,0h0.2c0.2,0,0.4,0.1,0.5,0.3c0.1,0.2,0.2,0.4,0.2,0.6
		c0,0.2-0.1,0.4-0.2,0.6c-0.1,0.2-0.3,0.3-0.5,0.3h-0.2c-0.4,0-0.8,0-1.2,0c-0.5,0-1,0-1.5,0c-0.5,0-1.1,0-1.6,0c-0.6,0-1.1,0-1.7,0
		c-0.9,0.1-1.7,0.1-2.4,0.1c-0.7,0-1.4-0.1-2-0.2c-0.1,0.1-0.1,0.2-0.2,0.4c-0.1,0.2-0.1,0.3-0.2,0.4c-0.1,0.2-0.2,0.3-0.3,0.2
		c-0.1,0-0.1-0.1-0.1-0.1c0-0.1,0-0.2,0-0.3c0-0.1,0.1-0.3,0.1-0.4c0-0.1,0.1-0.3,0.1-0.4c-0.4-0.1-0.7-0.3-1-0.5
		c-0.2-0.2-0.5-0.4-0.8-0.8c-0.2,0.3-0.4,0.5-0.6,0.7c-0.2,0.2-0.4,0.4-0.7,0.5c-0.5,0.3-1.1,0.4-1.8,0.4h-0.2
		c-0.2,0-0.4-0.1-0.5-0.3c-0.1-0.2-0.2-0.4-0.2-0.6c0-0.2,0.1-0.4,0.2-0.6c0.1-0.2,0.3-0.3,0.5-0.3h0.2c0.4,0,0.7,0,1-0.1
		c0.3,0,0.6-0.1,0.9-0.3c0.3-0.2,0.6-0.4,0.8-0.8c0.2-0.3,0.4-0.6,0.5-1c0-0.1,0.1-0.2,0.2-0.2c0.1,0,0.1,0,0.1,0.1
		c0,0.3,0.1,0.5,0.2,0.8c0.1,0.2,0.3,0.5,0.5,0.6c0.2,0.2,0.4,0.3,0.7,0.4c0.2,0.1,0.5,0.2,0.7,0.2c0.4-0.4,0.7-0.9,1.2-1.3
		c0.4-0.4,0.8-0.9,1.3-1.3c0.4-0.4,0.9-0.8,1.3-1.1c0.4-0.3,0.8-0.6,1.2-0.8c0.3-0.2,0.7-0.3,1.2-0.2c0.5,0,0.9,0.1,1.3,0.3
		c0.4,0.2,0.8,0.4,1.1,0.7c0.3,0.3,0.5,0.7,0.5,1.1c0,0.6-0.1,1.1-0.3,1.5C143.4,28.8,143.1,29.2,142.7,29.5z M136.7,21.3l1.3,1.1
		c0.1,0,0.1,0.1,0,0.2l-0.9,1.1c0,0.1-0.1,0.1-0.2,0l-1.3-1.1c-0.1,0-0.1-0.1,0-0.2l0.9-1.1C136.6,21.3,136.7,21.3,136.7,21.3z
		 M143,27.7c-0.2-0.3-0.4-0.6-0.7-0.8c-0.3-0.2-0.6-0.4-0.9-0.5c-0.3-0.1-0.7-0.2-1-0.2c-0.3,0-0.6,0-0.9,0.1
		c-0.3,0.1-0.7,0.3-1,0.6c-0.4,0.2-0.7,0.5-1,0.8c-0.3,0.3-0.7,0.6-1,0.9c-0.3,0.3-0.6,0.6-0.8,0.9c0.6,0.1,1.2,0.1,1.8,0
		c0.6,0,1.3-0.1,2-0.3c0.7-0.1,1.4-0.3,2-0.6C142.1,28.4,142.6,28.1,143,27.7z"/>
	<path class="st1" d="M150.1,15.1c-0.4,0.2-0.7,0.3-1.1,0.5c-0.4,0.2-0.8,0.4-1.1,0.5c-0.4,0.2-0.7,0.3-1,0.5
		c-0.3,0.1-0.6,0.3-0.8,0.4c0,0-0.1,0-0.1,0s0-0.1,0-0.1l0.5-1.1c0-0.1,0.1-0.1,0.1-0.1c0,0,0.1,0,0.1-0.1l3.9-1.7
		c0.1,0,0.2,0,0.1,0.1l-0.4,1C150.3,15.1,150.2,15.1,150.1,15.1z"/>
	<path class="st1" d="M154.2,29.1c-0.7,0.2-1.4,0.4-2.3,0.6c-0.9,0.2-1.7,0.5-2.6,0.7c-0.9,0.2-1.7,0.4-2.5,0.6
		c-0.8,0.2-1.4,0.2-1.9,0.2h-0.2c-0.2,0-0.4-0.1-0.5-0.3c-0.1-0.2-0.2-0.4-0.2-0.6s0.1-0.4,0.2-0.6c0.1-0.2,0.3-0.3,0.5-0.3h0.2
		c0.2,0,0.4,0,0.6,0c0.2,0,0.5,0,0.7,0c0.2,0,0.5,0,0.7-0.1c0.2,0,0.4-0.1,0.6-0.1c-0.2-0.1-0.3-0.2-0.5-0.4
		c-0.2-0.2-0.3-0.4-0.4-0.6c-0.1-0.2-0.2-0.4-0.3-0.7c-0.1-0.2-0.2-0.5-0.2-0.7c-0.1-0.4,0-0.9,0.1-1.4c0.2-0.5,0.4-0.9,0.7-1.3
		c0.3-0.4,0.6-0.7,1-1c0.4-0.3,0.8-0.5,1.2-0.5c0.5-0.1,1-0.1,1.5,0c0.4,0.1,0.8,0.2,1.2,0.4c0.3,0.2,0.6,0.4,0.9,0.6
		c0.3,0.2,0.5,0.5,0.6,0.7c0.1,0.1,0,0.2-0.1,0.2c-0.1,0-0.2,0-0.3,0c-0.5-0.3-0.9-0.4-1.4-0.5c-0.5-0.1-1-0.1-1.6,0
		c-0.3,0-0.6,0.1-0.9,0.1c-0.3,0.1-0.6,0.2-0.8,0.2c-0.3,0.1-0.5,0.2-0.7,0.3c-0.2,0.1-0.4,0.3-0.5,0.4c0,0.1,0,0.3,0.1,0.5
		c0,0.2,0.1,0.4,0.2,0.5c0.1,0.2,0.2,0.4,0.3,0.6c0.1,0.2,0.3,0.3,0.4,0.5c0.2,0.2,0.3,0.3,0.5,0.5c0.2,0.1,0.4,0.3,0.5,0.4
		c0.2,0.1,0.3,0.2,0.5,0.3c0.2,0.1,0.3,0.1,0.4,0.1c0.5-0.1,0.9-0.2,1.4-0.3c0.5-0.1,0.9-0.2,1.4-0.3c0.5-0.1,0.9-0.2,1.3-0.4
		c0.4-0.1,0.9-0.3,1.3-0.4c0,0,0.1,0,0.1,0c-0.2,0.4-0.4,0.7-0.6,1C154.5,28.6,154.4,28.9,154.2,29.1z M148.7,18.2l1.3,1.1
		c0.1,0,0.1,0.1,0,0.2l-0.9,1.1c0,0.1-0.1,0.1-0.2,0l-1.3-1.1c-0.1,0-0.1-0.1,0-0.2l0.9-1.1C148.5,18.2,148.6,18.2,148.7,18.2z"/>
	<path class="st1" d="M166.4,29.5c0.2,0,0.4,0.1,0.5,0.3c0.1,0.2,0.2,0.4,0.2,0.6c0,0.2,0,0.4-0.2,0.6c-0.1,0.2-0.3,0.3-0.5,0.3
		c0,0,0,0-0.1,0c0,0-0.1,0-0.1,0c-0.6,0-1.2-0.1-1.6-0.4c-0.4-0.2-0.7-0.6-1-0.9c-0.3-0.5-0.5-1-0.6-1.5c-0.1-0.5-0.2-1.1-0.2-1.6
		c-0.1-0.6-0.1-1.2-0.2-1.9c-0.1-0.6-0.1-1.2-0.2-1.9c-0.1-0.6-0.2-1.3-0.3-1.9c-0.1-0.7-0.3-1.4-0.5-2.1c0-0.1,0-0.1,0-0.1
		c0,0,0-0.1,0-0.1l0.6-1.4c0,0,0.1-0.1,0.1-0.1c0,0,0.1,0,0.1,0.1c0.1,0.4,0.2,0.8,0.3,1.2c0.1,0.4,0.2,0.9,0.2,1.3
		c0.1,0.5,0.1,1,0.2,1.6c0.1,0.6,0.1,1.2,0.2,1.9c0.1,0.5,0.1,1,0.2,1.5c0,0.5,0.1,1,0.2,1.5c0,0.4,0.1,0.8,0.2,1.2
		c0.1,0.4,0.2,0.8,0.4,1.1c0.2,0.3,0.4,0.5,0.7,0.7c0.3,0.2,0.8,0.2,1.3,0.2C166.3,29.5,166.3,29.5,166.4,29.5
		C166.4,29.5,166.4,29.5,166.4,29.5z"/>
	<path class="st0" d="M168,21c-0.1,0-0.2,0-0.1-0.1c0-0.1,0.1-0.2,0.1-0.2s0.1-0.2,0.2-0.3c0.1-0.1,0.1-0.2,0.2-0.2
		c0-0.1,0.1-0.1,0.1-0.2c0,0,0.1-0.1,0.1-0.1c0,0,0.1-0.1,0.1-0.1l4-1.8c0,0,0.1,0,0.1,0c0,0,0,0.1,0,0.1c0,0.1-0.1,0.2-0.2,0.4
		c-0.1,0.2-0.2,0.4-0.2,0.4c0,0,0,0.1,0,0.1c0,0-0.1,0.1-0.1,0.1c-0.7,0.3-1.4,0.6-2.1,0.9C169.4,20.3,168.7,20.7,168,21z M168.1,19
		c-0.1,0-0.2,0-0.1-0.1c0-0.1,0.1-0.2,0.1-0.2c0-0.1,0.1-0.2,0.2-0.3c0.1-0.1,0.1-0.2,0.2-0.2c0-0.1,0.1-0.1,0.1-0.2
		c0,0,0.1-0.1,0.1-0.1c0,0,0.1-0.1,0.1-0.1l4-1.8c0,0,0.1,0,0.1,0c0,0,0,0.1,0,0.1c0,0.1-0.1,0.2-0.2,0.4s-0.2,0.4-0.2,0.4
		c0,0,0,0.1,0,0.1c0,0-0.1,0.1-0.1,0.1c-0.7,0.3-1.4,0.6-2.1,0.9C169.5,18.3,168.8,18.6,168.1,19z"/>
	<path class="st0" d="M166.3,29.6c0.3,0,0.6,0,0.9,0c0.3,0,0.6-0.1,0.8-0.1c0.3-0.1,0.5-0.2,0.7-0.3c0.2-0.1,0.4-0.3,0.5-0.5
		c0.2-0.4,0.4-0.8,0.6-1.2c0.2-0.4,0.4-0.8,0.6-1.1c0.1-0.1,0.2-0.3,0.3-0.5c0.1-0.2,0.3-0.3,0.4-0.5c0.2-0.1,0.3-0.3,0.5-0.4
		c0.2-0.1,0.3-0.1,0.5-0.1c0.3,0,0.5,0.2,0.8,0.4c0.3,0.3,0.5,0.6,0.7,0.9c0.2,0.4,0.3,0.7,0.5,1.1c0.1,0.4,0.2,0.7,0.1,0.9
		c0,0.2,0,0.3-0.1,0.5c0,0.2-0.1,0.3-0.1,0.5c-0.1,0.2-0.1,0.3-0.2,0.4c-0.1,0.1-0.2,0.2-0.4,0.3c-0.3,0.1-0.6,0.1-1,0
		c-0.4-0.1-0.7-0.2-1-0.3c-0.3-0.1-0.6-0.2-0.8-0.3s-0.5-0.3-0.8-0.5c-0.3,0.8-0.7,1.4-1.3,1.8c-0.6,0.4-1.3,0.6-2.1,0.6h-0.2
		c-0.2,0-0.4-0.1-0.5-0.3c-0.1-0.2-0.2-0.4-0.2-0.6s0.1-0.4,0.2-0.6c0.1-0.2,0.3-0.3,0.5-0.3H166.3z M172.6,27.3
		c-0.1-0.2-0.3-0.3-0.4-0.5c-0.2-0.2-0.4-0.2-0.7-0.2c-0.2,0-0.4,0.1-0.6,0.3c-0.2,0.2-0.3,0.4-0.4,0.6c0.2,0.2,0.4,0.3,0.6,0.4
		c0.2,0.1,0.4,0.2,0.6,0.3c0.2,0.1,0.5,0.1,0.7,0.1c0.2,0,0.5,0,0.7,0c0,0,0-0.1,0-0.2c0-0.1-0.1-0.2-0.1-0.3
		c-0.1-0.1-0.1-0.2-0.2-0.3C172.6,27.4,172.6,27.3,172.6,27.3z"/>
	<path class="st0" d="M178.6,19.9c0,0.2,0,0.5-0.1,0.7c-0.1,0.2-0.2,0.4-0.3,0.6c-0.1,0.2-0.3,0.3-0.5,0.4c-0.2,0.1-0.5,0.2-0.8,0.2
		c-0.4,0-0.7-0.1-0.9-0.4c-0.3-0.2-0.4-0.6-0.4-0.9c0-0.2,0-0.4,0.1-0.7c0.1-0.3,0.2-0.6,0.3-0.8c0.1-0.3,0.3-0.5,0.5-0.7
		c0.2-0.2,0.5-0.3,0.7-0.3c0.3,0,0.5,0,0.7,0.2c0.2,0.1,0.3,0.3,0.4,0.5c0.1,0.2,0.2,0.4,0.2,0.7C178.6,19.6,178.6,19.8,178.6,19.9z
		 M176.1,20.2c0,0.1,0,0.2,0.1,0.3c0.1,0.1,0.1,0.1,0.2,0.2c0.1,0,0.2,0.1,0.3,0.1c0.1,0,0.2,0,0.3,0c0.2,0,0.4,0,0.6-0.1
		c0.2-0.1,0.3-0.2,0.5-0.3c0-0.1,0-0.3,0-0.4c0-0.1-0.1-0.3-0.2-0.4c-0.1-0.1-0.2-0.2-0.3-0.3c-0.1-0.1-0.3-0.1-0.5-0.1
		c-0.1,0-0.2,0.1-0.3,0.2c-0.1,0.1-0.2,0.2-0.3,0.3c-0.1,0.1-0.2,0.2-0.2,0.3C176.1,20,176.1,20.1,176.1,20.2z"/>
	<path class="st0" d="M180.3,31.3l-1.1,0c-0.3,0-0.6,0-0.9-0.1c-0.3-0.1-0.5-0.2-0.7-0.3c-0.2-0.2-0.3-0.3-0.5-0.6
		c-0.1-0.2-0.1-0.5-0.1-0.8c0-0.2,0.1-0.4,0.2-0.7c0.1-0.3,0.3-0.6,0.5-0.9c0.2-0.3,0.4-0.5,0.6-0.7c0.2-0.2,0.5-0.3,0.7-0.3
		c0.3,0,0.5,0.1,0.7,0.3c0.2,0.2,0.4,0.4,0.6,0.7c0.2,0.3,0.3,0.6,0.4,0.9c0.1,0.3,0.2,0.6,0.2,0.8l0.9,0h0.2c0.1,0,0.2,0,0.3,0.1
		c0.1,0,0.2,0.1,0.2,0.2c0.1,0.1,0.1,0.2,0.1,0.3c0,0.1,0,0.2,0,0.3c0,0.2,0,0.4-0.2,0.6c-0.1,0.2-0.3,0.3-0.5,0.3h-0.2l-0.9,0
		c-0.1,0.6-0.3,1.2-0.4,1.8c-0.2,0.6-0.4,1.1-0.6,1.6c-0.3,0.5-0.6,0.9-1,1.3c-0.4,0.4-0.8,0.6-1.4,0.8c-0.4,0.1-0.8,0.2-1.2,0.2
		c-0.4,0-0.9,0-1.3,0c-0.4,0-0.9-0.1-1.3-0.2c-0.4-0.1-0.8-0.2-1.2-0.3c-0.1,0-0.2-0.1-0.2-0.1c0-0.1,0-0.1,0-0.2
		c0,0,0.1-0.1,0.1-0.1c0.1,0,0.2,0,0.3,0c0.3,0,0.7,0,1.1,0c0.4,0,0.8-0.1,1.2-0.2c0.4-0.1,0.8-0.2,1.2-0.3c0.4-0.1,0.7-0.3,1-0.4
		c0.4-0.2,0.8-0.5,1.1-0.8c0.3-0.3,0.6-0.6,0.8-1c0.3-0.4,0.5-0.7,0.7-1.1C180,32,180.2,31.6,180.3,31.3z M178,29.3
		c0,0.1,0.2,0.2,0.3,0.2c0.2,0,0.4,0.1,0.6,0.1c0.2,0,0.4,0,0.6,0c0.2,0,0.4,0,0.5,0c0,0,0-0.1-0.1-0.2c-0.1-0.1-0.2-0.2-0.3-0.4
		c-0.1-0.1-0.3-0.2-0.4-0.3c-0.1-0.1-0.3-0.2-0.4-0.2c-0.1,0-0.2,0-0.3,0.1c-0.1,0.1-0.2,0.1-0.3,0.2c-0.1,0.1-0.1,0.2-0.2,0.3
		C178,29.2,178,29.2,178,29.3z"/>
	<path class="st0" d="M186.1,15.9c-0.4,0.2-0.7,0.3-1.1,0.5c-0.4,0.2-0.8,0.4-1.1,0.5c-0.4,0.2-0.7,0.3-1,0.5
		c-0.3,0.1-0.6,0.3-0.8,0.4c0,0-0.1,0-0.1,0c0,0,0-0.1,0-0.1l0.5-1.1c0-0.1,0.1-0.1,0.1-0.1c0,0,0.1,0,0.1-0.1l3.9-1.7
		c0.1,0,0.2,0,0.1,0.1l-0.4,1C186.2,15.9,186.2,15.9,186.1,15.9z"/>
	<path class="st0" d="M181.9,29.6c0.1,0,0.3,0,0.6,0c0.3,0,0.5,0,0.8,0c0.3,0,0.6,0,1-0.1c0.3,0,0.7-0.1,1-0.2
		c0.3-0.1,0.6-0.2,0.8-0.3c0.3-0.1,0.4-0.3,0.6-0.5c0-0.1,0-0.2,0-0.3c0-0.1,0-0.3-0.1-0.4c0-0.1-0.1-0.3-0.1-0.4
		c0-0.1-0.1-0.2-0.1-0.3c-0.1,0.1-0.1,0.3-0.2,0.4s-0.2,0.3-0.3,0.4c-0.1,0.1-0.3,0.2-0.4,0.3c-0.2,0.1-0.3,0.1-0.5,0.1
		c-0.2,0-0.4,0-0.6-0.1c-0.2-0.1-0.3-0.2-0.5-0.3c-0.1-0.1-0.3-0.2-0.4-0.4c-0.1-0.2-0.2-0.3-0.2-0.5c0-0.2-0.1-0.4,0-0.7
		c0-0.2,0.1-0.5,0.1-0.8c0.1-0.3,0.2-0.5,0.3-0.7c0.1-0.2,0.2-0.5,0.4-0.6c0.2-0.2,0.3-0.3,0.5-0.4c0.2-0.1,0.4-0.2,0.6-0.2
		c0.2,0,0.4,0.1,0.5,0.2c0.2,0.1,0.3,0.3,0.5,0.5c0.2,0.2,0.3,0.4,0.4,0.7c0.1,0.3,0.3,0.5,0.4,0.8c0.1,0.3,0.2,0.5,0.2,0.7
		c0.1,0.2,0.1,0.4,0.1,0.6c0,0.7,0,1.3-0.1,1.9c-0.1,0.6-0.4,1-0.9,1.4c-0.3,0.2-0.6,0.4-0.9,0.5c-0.4,0.1-0.7,0.2-1.1,0.3
		c-0.4,0.1-0.8,0.1-1.2,0.1c-0.4,0-0.8,0-1.2,0h-0.1c-0.2,0-0.4-0.1-0.5-0.3c-0.1-0.2-0.2-0.4-0.2-0.6c0-0.2,0.1-0.4,0.2-0.6
		C181.4,29.6,181.6,29.6,181.9,29.6L181.9,29.6z M186.2,21.4C186.1,21.4,186.1,21.5,186.2,21.4c-0.1,0.1-0.1,0.1-0.2,0l-1.2-1
		l-0.8,1.1c0,0.1-0.1,0.1-0.2,0l-1.3-1c0,0-0.1-0.1,0-0.1l0.8-1.2c0,0,0.1-0.1,0.1-0.1s0,0,0.1,0l1.3,1l0.9-1.1c0-0.1,0.1-0.1,0.1,0
		l1.3,1.1c0,0,0,0.1,0,0.2L186.2,21.4z M185.8,26.1c0-0.1,0-0.2-0.1-0.3c-0.1-0.1-0.2-0.2-0.3-0.3c-0.1-0.1-0.2-0.2-0.3-0.2
		c-0.1-0.1-0.2-0.1-0.3-0.1c-0.1,0-0.2,0-0.3,0.1s-0.2,0.1-0.3,0.2c-0.1,0.1-0.2,0.2-0.2,0.3c-0.1,0.1-0.1,0.2-0.1,0.3
		c0.1,0.2,0.2,0.3,0.4,0.4c0.2,0.1,0.3,0.1,0.5,0.1c0.2,0,0.4,0,0.5-0.1C185.6,26.4,185.7,26.3,185.8,26.1z"/>
	<path class="st0" d="M194.9,17.3c0.1,0,0.2,0.1,0.2,0.4c0,0.3,0,0.5,0,0.8c0,0.3,0,0.5,0.1,0.8c0.1,0.6,0.2,1.3,0.3,2
		c0.1,0.7,0.2,1.4,0.3,2c0.1,0.7,0.2,1.4,0.3,2c0.1,0.7,0.2,1.3,0.2,2c0,0.3,0,0.5,0.1,0.9c0,0.3,0,0.7,0,1c0,0.3-0.1,0.7-0.1,1
		c-0.1,0.3-0.1,0.6-0.3,0.8c-0.1,0.1-0.1,0.2-0.2,0.2c-0.1,0-0.1,0-0.1-0.1c0-0.6-0.1-1.3-0.2-1.9c-0.1-0.6-0.1-1.3-0.2-1.9
		c-0.1-0.7-0.2-1.4-0.3-2c-0.1-0.7-0.2-1.3-0.3-2c-0.1-0.7-0.2-1.3-0.3-2c-0.1-0.7-0.2-1.3-0.3-2c0-0.2,0.1-0.3,0.1-0.5
		c0-0.2,0.1-0.4,0.2-0.5c0.2-0.5,0.3-0.7,0.3-0.8C194.8,17.4,194.9,17.3,194.9,17.3z"/>
	<path class="st0" d="M201.3,19.9c0,0.2,0,0.5-0.1,0.7c-0.1,0.2-0.2,0.4-0.3,0.6c-0.1,0.2-0.3,0.3-0.5,0.4c-0.2,0.1-0.5,0.2-0.8,0.2
		c-0.4,0-0.7-0.1-0.9-0.4c-0.3-0.2-0.4-0.6-0.4-0.9c0-0.2,0-0.4,0.1-0.7c0.1-0.3,0.2-0.6,0.3-0.8c0.1-0.3,0.3-0.5,0.5-0.7
		c0.2-0.2,0.5-0.3,0.7-0.3c0.3,0,0.5,0,0.7,0.2c0.2,0.1,0.3,0.3,0.4,0.5c0.1,0.2,0.2,0.4,0.2,0.7C201.3,19.6,201.3,19.8,201.3,19.9z
		 M198.8,20.2c0,0.1,0,0.2,0.1,0.3c0.1,0.1,0.1,0.1,0.2,0.2c0.1,0,0.2,0.1,0.3,0.1c0.1,0,0.2,0,0.3,0c0.2,0,0.4,0,0.6-0.1
		c0.2-0.1,0.3-0.2,0.5-0.3c0-0.1,0-0.3,0-0.4c0-0.1-0.1-0.3-0.2-0.4c-0.1-0.1-0.2-0.2-0.3-0.3c-0.1-0.1-0.3-0.1-0.5-0.1
		c-0.1,0-0.2,0.1-0.3,0.2c-0.1,0.1-0.2,0.2-0.3,0.3c-0.1,0.1-0.2,0.2-0.2,0.3C198.9,20,198.8,20.1,198.8,20.2z"/>
	<path class="st0" d="M203,31.3l-1.1,0c-0.3,0-0.6,0-0.9-0.1c-0.3-0.1-0.5-0.2-0.7-0.3c-0.2-0.2-0.3-0.3-0.5-0.6
		c-0.1-0.2-0.1-0.5-0.1-0.8c0-0.2,0.1-0.4,0.2-0.7c0.1-0.3,0.3-0.6,0.5-0.9c0.2-0.3,0.4-0.5,0.6-0.7c0.2-0.2,0.5-0.3,0.7-0.3
		c0.3,0,0.5,0.1,0.7,0.3c0.2,0.2,0.4,0.4,0.6,0.7c0.2,0.3,0.3,0.6,0.4,0.9c0.1,0.3,0.2,0.6,0.2,0.8l0.9,0h0.2c0.1,0,0.2,0,0.3,0.1
		c0.1,0,0.2,0.1,0.2,0.2c0.1,0.1,0.1,0.2,0.1,0.3c0,0.1,0,0.2,0,0.3c0,0.2,0,0.4-0.2,0.6c-0.1,0.2-0.3,0.3-0.5,0.3h-0.2l-0.9,0
		c-0.1,0.6-0.3,1.2-0.4,1.8c-0.2,0.6-0.4,1.1-0.6,1.6c-0.3,0.5-0.6,0.9-1,1.3c-0.4,0.4-0.8,0.6-1.4,0.8c-0.4,0.1-0.8,0.2-1.2,0.2
		c-0.4,0-0.9,0-1.3,0c-0.4,0-0.9-0.1-1.3-0.2c-0.4-0.1-0.8-0.2-1.2-0.3c-0.1,0-0.2-0.1-0.2-0.1c0-0.1,0-0.1,0-0.2
		c0,0,0.1-0.1,0.1-0.1c0.1,0,0.2,0,0.3,0c0.3,0,0.7,0,1.1,0c0.4,0,0.8-0.1,1.2-0.2c0.4-0.1,0.8-0.2,1.2-0.3c0.4-0.1,0.7-0.3,1-0.4
		c0.4-0.2,0.8-0.5,1.1-0.8c0.3-0.3,0.6-0.6,0.8-1c0.3-0.4,0.5-0.7,0.7-1.1C202.8,32,202.9,31.6,203,31.3z M200.7,29.3
		c0,0.1,0.2,0.2,0.3,0.2c0.2,0,0.4,0.1,0.6,0.1c0.2,0,0.4,0,0.6,0c0.2,0,0.4,0,0.5,0c0,0,0-0.1-0.1-0.2c-0.1-0.1-0.2-0.2-0.3-0.4
		c-0.1-0.1-0.3-0.2-0.4-0.3c-0.1-0.1-0.3-0.2-0.4-0.2c-0.1,0-0.2,0-0.3,0.1c-0.1,0.1-0.2,0.1-0.3,0.2c-0.1,0.1-0.1,0.2-0.2,0.3
		C200.7,29.2,200.7,29.2,200.7,29.3z"/>
	<path class="st0" d="M207.5,10.2c-0.4,0.2-0.7,0.3-1.1,0.5c-0.4,0.2-0.8,0.4-1.1,0.5c-0.4,0.2-0.7,0.3-1,0.5
		c-0.3,0.1-0.6,0.3-0.8,0.4c0,0-0.1,0-0.1,0c0,0,0-0.1,0-0.1l0.5-1.1c0-0.1,0.1-0.1,0.1-0.1c0,0,0.1,0,0.1-0.1l3.9-1.7
		c0.1,0,0.2,0,0.1,0.1l-0.4,1C207.7,10.1,207.6,10.1,207.5,10.2z M205.6,14.5c-0.2,0.3-0.3,0.6-0.5,0.7c-0.2,0.2-0.5,0.3-0.8,0.3
		c-0.2,0-0.4-0.1-0.6-0.2c-0.2-0.1-0.3-0.4-0.3-0.7c0-0.1,0-0.3,0-0.4c0-0.2,0.1-0.3,0.1-0.4c0.1-0.1,0.1-0.2,0.2-0.3
		c0.1-0.1,0.2-0.2,0.2-0.2c0.1,0,0.1,0.1,0,0.2c0,0.1-0.1,0.2-0.1,0.3c0,0.1,0,0.2,0,0.3c0,0.1,0,0.2,0,0.3c0,0.1,0.1,0.1,0.1,0.2
		c0.1,0.1,0.2,0.1,0.3,0.1c0.1,0,0.2,0,0.4-0.1c0.1,0,0.2-0.1,0.3-0.2c0.1-0.1,0.2-0.2,0.3-0.3c0.1-0.1,0.2-0.2,0.2-0.4
		c0-0.2,0.1-0.3,0.1-0.4c0-0.1,0-0.2,0.1-0.3c0-0.1,0.1-0.1,0.2-0.1c0,0,0,0,0,0.1c0,0,0,0.1,0,0.1c0,0,0,0.1,0,0.1c0,0,0,0.1,0,0.1
		c0,0.2,0,0.4,0.1,0.5c0.1,0.1,0.2,0.2,0.4,0.2c0.1,0,0.2,0,0.4,0c0.2,0,0.3-0.1,0.4-0.2c0,0,0-0.1,0-0.1c0-0.1,0-0.1,0-0.2
		c0-0.1,0-0.1-0.1-0.2c0-0.1-0.1-0.1-0.1-0.1l0.4-0.8c0.1,0,0.1,0.1,0.2,0.2c0,0.1,0.1,0.3,0.1,0.4c0,0.2,0,0.3,0,0.5
		c0,0.2,0,0.3-0.1,0.4c-0.1,0.3-0.2,0.5-0.3,0.7c-0.1,0.2-0.4,0.4-0.7,0.4c-0.3,0-0.5,0-0.7-0.1C205.8,14.8,205.7,14.6,205.6,14.5z"
		/>
	<path class="st0" d="M205.6,16.7c0-0.1,0-0.1,0.1-0.1c0,0,0.1,0,0.1,0.1c0.1,0.2,0.1,0.3,0.2,0.5c0.1,0.2,0.2,0.4,0.3,0.5
		c0.1,0.2,0.2,0.3,0.3,0.5c0.1,0.1,0.3,0.3,0.4,0.4c-0.1,0.2-0.2,0.3-0.3,0.4c-0.1,0.1-0.1,0.2-0.2,0.3c0,0.1-0.1,0.2-0.1,0.3
		c0,0.1,0,0.2,0,0.3c0.1,0.7,0.2,1.4,0.3,2.1c0.1,0.7,0.2,1.4,0.3,2.1c0.1,0.7,0.2,1.4,0.3,2.1c0.1,0.7,0.1,1.4,0.1,2.1
		c0,0.2,0,0.5,0,0.7c0,0.2-0.1,0.5-0.2,0.7c-0.1,0.2-0.2,0.4-0.3,0.6c-0.1,0.2-0.3,0.3-0.4,0.5c-0.2,0.2-0.5,0.3-0.8,0.4
		c-0.3,0.1-0.7,0.1-1.1,0.1h-0.2c-0.2,0-0.4-0.1-0.5-0.3c-0.1-0.2-0.2-0.4-0.2-0.6c0-0.2,0.1-0.4,0.2-0.6c0.1-0.2,0.3-0.3,0.5-0.3
		h0.2c0.2,0,0.5,0,0.7,0c0.2,0,0.4-0.1,0.6-0.1c0.2,0,0.3-0.1,0.5-0.2c0.1-0.1,0.2-0.2,0.3-0.3c-0.1-1.5-0.3-3-0.6-4.5
		c-0.2-1.5-0.5-3-0.7-4.4c0-0.3-0.1-0.6-0.1-0.9c0-0.3-0.2-0.6-0.3-0.8c-0.1-0.1-0.1-0.1-0.1-0.2c0,0,0-0.1,0.1-0.2
		c0.1-0.2,0.2-0.4,0.3-0.6C205.4,17.1,205.5,16.9,205.6,16.7z"/>
	<path class="st0" d="M214.2,20.8c-0.4,0.2-0.7,0.3-1.1,0.5c-0.4,0.2-0.8,0.4-1.1,0.5c-0.4,0.2-0.7,0.3-1,0.5
		c-0.3,0.1-0.6,0.3-0.8,0.4c0,0-0.1,0-0.1,0c0,0,0-0.1,0-0.1l0.5-1.1c0-0.1,0.1-0.1,0.1-0.1c0,0,0.1,0,0.1-0.1l3.9-1.7
		c0.1,0,0.2,0,0.1,0.1l-0.4,1C214.3,20.7,214.2,20.7,214.2,20.8z"/>
	<path class="st0" d="M215.1,31.3l-1.1,0c-0.3,0-0.6,0-0.9-0.1c-0.3-0.1-0.5-0.2-0.7-0.3c-0.2-0.2-0.3-0.3-0.5-0.6
		c-0.1-0.2-0.1-0.5-0.1-0.8c0-0.2,0.1-0.4,0.2-0.7c0.1-0.3,0.3-0.6,0.5-0.9c0.2-0.3,0.4-0.5,0.6-0.7c0.2-0.2,0.5-0.3,0.7-0.3
		c0.3,0,0.5,0.1,0.7,0.3c0.2,0.2,0.4,0.4,0.6,0.7c0.2,0.3,0.3,0.6,0.4,0.9c0.1,0.3,0.2,0.6,0.2,0.8l0.9,0h0.2c0.1,0,0.2,0,0.3,0.1
		c0.1,0,0.2,0.1,0.2,0.2c0.1,0.1,0.1,0.2,0.1,0.3c0,0.1,0,0.2,0,0.3c0,0.2,0,0.4-0.2,0.6c-0.1,0.2-0.3,0.3-0.5,0.3h-0.2l-0.9,0
		c-0.1,0.6-0.3,1.2-0.4,1.8c-0.2,0.6-0.4,1.1-0.6,1.6c-0.3,0.5-0.6,0.9-1,1.3c-0.4,0.4-0.8,0.6-1.4,0.8c-0.4,0.1-0.8,0.2-1.2,0.2
		c-0.4,0-0.9,0-1.3,0c-0.4,0-0.9-0.1-1.3-0.2c-0.4-0.1-0.8-0.2-1.2-0.3c-0.1,0-0.2-0.1-0.2-0.1c0-0.1,0-0.1,0-0.2
		c0,0,0.1-0.1,0.1-0.1c0.1,0,0.2,0,0.3,0c0.3,0,0.7,0,1.1,0c0.4,0,0.8-0.1,1.2-0.2c0.4-0.1,0.8-0.2,1.2-0.3c0.4-0.1,0.7-0.3,1-0.4
		c0.4-0.2,0.8-0.5,1.1-0.8c0.3-0.3,0.6-0.6,0.8-1c0.3-0.4,0.5-0.7,0.7-1.1C214.8,32,215,31.6,215.1,31.3z M212.8,29.3
		c0,0.1,0.2,0.2,0.3,0.2c0.2,0,0.4,0.1,0.6,0.1c0.2,0,0.4,0,0.6,0c0.2,0,0.4,0,0.5,0c0,0,0-0.1-0.1-0.2c-0.1-0.1-0.2-0.2-0.3-0.4
		c-0.1-0.1-0.3-0.2-0.4-0.3c-0.1-0.1-0.3-0.2-0.4-0.2c-0.1,0-0.2,0-0.3,0.1c-0.1,0.1-0.2,0.1-0.3,0.2c-0.1,0.1-0.1,0.2-0.2,0.3
		C212.8,29.2,212.8,29.2,212.8,29.3z"/>
	<path class="st0" d="M221.2,18.9c-0.4,0.2-0.7,0.3-1.1,0.5c-0.4,0.2-0.8,0.4-1.1,0.5c-0.4,0.2-0.7,0.3-1,0.5
		c-0.3,0.1-0.6,0.3-0.8,0.4c0,0-0.1,0-0.1,0s0-0.1,0-0.1l0.5-1.1c0-0.1,0.1-0.1,0.1-0.1c0,0,0.1,0,0.1-0.1l3.9-1.7
		c0.1,0,0.2,0,0.1,0.1l-0.4,1C221.3,18.8,221.3,18.9,221.2,18.9z"/>
	<path class="st0" d="M216.7,31.2h-0.2c-0.2,0-0.4-0.1-0.5-0.3c-0.1-0.2-0.2-0.4-0.2-0.6c0-0.1,0-0.2,0-0.3c0-0.1,0.1-0.2,0.1-0.3
		c0.1-0.1,0.1-0.1,0.2-0.2c0.1,0,0.2-0.1,0.3-0.1h0.2c0.2,0,0.5,0,0.7,0c0.3,0,0.5-0.1,0.8-0.1c0.2-0.1,0.5-0.2,0.7-0.3
		c0.2-0.1,0.4-0.3,0.6-0.6c0.1-0.2,0.3-0.3,0.3-0.5c0.1-0.2,0.2-0.4,0.3-0.6c0-0.1,0.1-0.1,0.2-0.2c0.1,0,0.1,0,0.1,0.1
		c0,0.1,0,0.2,0,0.3c0,0.1,0,0.2,0,0.3c0,0.2,0,0.4,0.1,0.6c0.1,0.2,0.2,0.4,0.4,0.5c0.2,0.2,0.5,0.3,0.8,0.4
		c0.3,0.1,0.7,0.1,1.2,0.1h0.2c0.1,0,0.2,0,0.3,0.1c0.1,0,0.1,0.1,0.2,0.2c0.1,0.1,0.1,0.2,0.1,0.3c0,0.1,0,0.2,0,0.3
		c0,0.2-0.1,0.4-0.2,0.6c-0.1,0.2-0.3,0.3-0.5,0.3H223c-0.4,0-0.8,0-1.1-0.1c-0.3-0.1-0.6-0.2-0.9-0.3c-0.5-0.3-0.8-0.7-1.1-1.3
		c-0.2,0.3-0.3,0.6-0.6,0.8c-0.2,0.2-0.5,0.4-0.7,0.5c-0.3,0.1-0.6,0.2-0.9,0.3C217.4,31.2,217,31.2,216.7,31.2z M221.3,25
		C221.2,25,221.2,25.1,221.3,25c-0.1,0.1-0.1,0.1-0.2,0l-1.3-1l-0.8,1.1c0,0.1-0.1,0.1-0.2,0l-1.4-1.1c0,0-0.1-0.1,0-0.1l0.9-1.2
		c0,0,0.1-0.1,0.1-0.1s0,0,0.1,0l1.3,1l0.9-1.1c0-0.1,0.1-0.1,0.1,0l1.4,1.1c0,0,0,0.1,0,0.2L221.3,25z"/>
	<path class="st0" d="M227.7,17.3c-0.4,0.2-0.7,0.3-1.1,0.5c-0.4,0.2-0.8,0.4-1.1,0.5c-0.4,0.2-0.7,0.3-1,0.5
		c-0.3,0.1-0.6,0.3-0.8,0.4c0,0-0.1,0-0.1,0c0,0,0-0.1,0-0.1L224,18c0-0.1,0.1-0.1,0.1-0.1c0,0,0.1,0,0.1-0.1l3.9-1.7
		c0.1,0,0.2,0,0.1,0.1l-0.4,1C227.8,17.2,227.8,17.3,227.7,17.3z"/>
	<path class="st0" d="M226.9,25.3c0-0.1,0.1-0.1,0.3,0c0.2,0.2,0.4,0.4,0.5,0.7c0.2,0.2,0.3,0.5,0.4,0.7c0.1,0.3,0.2,0.5,0.3,0.8
		c0.1,0.3,0.1,0.5,0.1,0.8c0,0.1,0,0.3,0,0.4c0,0.2,0,0.3-0.1,0.5c0,0.2-0.1,0.3-0.1,0.4c0,0.1-0.1,0.3-0.2,0.3
		c-0.1,0.2-0.3,0.3-0.6,0.5c-0.3,0.1-0.5,0.2-0.9,0.3c-0.3,0.1-0.7,0.2-1,0.2c-0.4,0.1-0.7,0.1-1.1,0.1c-0.3,0-0.7,0.1-1,0.1
		c-0.3,0-0.6,0-0.8,0h-0.2c-0.2,0-0.4-0.1-0.5-0.3c-0.1-0.2-0.2-0.4-0.2-0.6c0-0.2,0.1-0.4,0.2-0.6c0.1-0.2,0.3-0.3,0.5-0.3h0.2
		c0.1,0,0.3,0,0.5,0c0.2,0,0.5,0,0.8,0c0.3,0,0.6,0,1-0.1c0.3,0,0.7,0,1-0.1c0.3,0,0.6-0.1,0.9-0.1c0.3-0.1,0.4-0.1,0.6-0.2
		c0.1-0.1,0.2-0.2,0.1-0.3c-0.1-0.4-0.3-0.7-0.5-1c-0.2-0.3-0.5-0.6-0.8-0.9c0.1-0.3,0.1-0.5,0.2-0.8
		C226.8,25.8,226.9,25.6,226.9,25.3z M227.9,23.1C227.8,23.1,227.8,23.1,227.9,23.1c-0.1,0.1-0.1,0.1-0.2,0l-1.3-1l-0.8,1.1
		c0,0.1-0.1,0.1-0.2,0l-1.4-1.1c0,0-0.1-0.1,0-0.1l0.9-1.2c0,0,0.1-0.1,0.1-0.1c0,0,0,0,0.1,0l1.3,1l0.9-1.1c0-0.1,0.1-0.1,0.1,0
		l1.4,1.1c0,0,0,0.1,0,0.2L227.9,23.1z"/>
	<path class="st0" d="M246.3,13c-0.4,0.2-0.7,0.3-1.1,0.5c-0.4,0.2-0.8,0.4-1.1,0.5c-0.4,0.2-0.7,0.3-1,0.5
		c-0.3,0.1-0.6,0.3-0.8,0.4c0,0-0.1,0-0.1,0c0,0,0-0.1,0-0.1l0.5-1.1c0-0.1,0.1-0.1,0.1-0.1c0,0,0.1,0,0.1-0.1l3.9-1.7
		c0.1,0,0.2,0,0.1,0.1l-0.4,1C246.5,12.9,246.4,13,246.3,13z"/>
	<path class="st0" d="M243.8,26.4c0.3-0.7,0.4-1.3,0.6-2c0.1-0.7,0.2-1.4,0.2-2.1c0.1-1.6,0-3-0.1-4.2c0-0.2-0.1-0.3-0.2-0.5
		c-0.1-0.1-0.2-0.3-0.2-0.4l0.9-1.4c0-0.1,0.1-0.1,0.1-0.1c0,0,0.1,0,0.1,0.1c0.1,0.4,0.2,0.8,0.4,1.2c0.2,0.4,0.4,0.7,0.6,0.9
		c0,0.1-0.1,0.1-0.2,0.2c-0.1,0.1-0.1,0.2-0.2,0.3c-0.1,0.1-0.1,0.2-0.2,0.3c0,0.1-0.1,0.3-0.1,0.4c0,0.7,0,1.4,0,2.1
		c0,0.7-0.1,1.4-0.2,2.1c-0.1,0.7-0.2,1.4-0.4,2c-0.2,0.6-0.4,1.2-0.6,1.7c0.2,0.4,0.4,0.8,0.6,1.2c0.2,0.4,0.3,0.9,0.4,1.4
		c0,0.3,0,0.6-0.1,0.9c-0.1,0.3-0.2,0.6-0.3,0.8c-0.3,0.1-0.6,0.1-0.9,0.2c-0.4,0-0.8,0.1-1.2,0.1c-0.4,0-0.8,0.1-1.2,0.1
		c-0.4,0-0.8,0-1.1,0.1c0,0,0-0.2,0-0.7c0.1-0.4,0.1-0.7,0.2-0.8c0-0.1,0.1-0.2,0.2-0.2c0.2,0,0.4,0,0.5-0.1c0.1,0,0.2-0.1,0.3-0.2
		c0.1-0.1,0.2-0.2,0.4-0.4c0.2-0.2,0.4-0.4,0.6-0.7c0.2-0.3,0.4-0.5,0.6-0.8c0.2-0.3,0.3-0.5,0.4-0.8c-0.3-0.5-0.7-1.1-1.1-1.7
		c-0.4-0.6-0.8-1.2-1.3-1.8c-0.4-0.6-0.9-1.1-1.4-1.7c-0.5-0.5-0.9-1-1.4-1.5c-0.2,0.1-0.4,0.1-0.7,0.1c-0.2,0-0.4-0.1-0.6-0.2
		c-0.2-0.1-0.4-0.2-0.6-0.3c-0.2-0.1-0.4-0.3-0.5-0.5c-0.1-0.2-0.2-0.3-0.2-0.5c0-0.3,0-0.7,0.1-1c0-0.4,0.1-0.6,0.1-0.8
		c0-0.2,0.1-0.2,0.2-0.3c0.1,0,0.2,0,0.3,0.1c0.7,0.5,1.4,1.1,2.1,1.8c0.7,0.7,1.4,1.5,2,2.3c0.6,0.8,1.3,1.6,1.8,2.5
		C242.8,24.9,243.3,25.7,243.8,26.4z M244.5,30c0-0.1,0-0.2-0.1-0.3c-0.1-0.2-0.1-0.3-0.2-0.5c-0.1-0.2-0.2-0.4-0.3-0.5
		c-0.1-0.2-0.2-0.3-0.2-0.4c-0.1,0.2-0.2,0.3-0.3,0.5c-0.1,0.2-0.2,0.3-0.4,0.5c-0.1,0.2-0.3,0.3-0.4,0.5c-0.1,0.2-0.3,0.3-0.4,0.5
		c0.2,0,0.4,0,0.5,0c0.2,0,0.4,0,0.6-0.1c0.2,0,0.4,0,0.6-0.1C244.2,30,244.3,30,244.5,30z"/>
	<path class="st0" d="M253.7,17.3c0.1,0,0.2,0.1,0.2,0.4c0,0.3,0,0.5,0,0.8c0,0.3,0,0.5,0.1,0.8c0.1,0.6,0.2,1.3,0.3,2
		c0.1,0.7,0.2,1.4,0.3,2c0.1,0.7,0.2,1.4,0.3,2c0.1,0.7,0.2,1.3,0.2,2c0,0.3,0,0.5,0.1,0.9c0,0.3,0,0.7,0,1c0,0.3-0.1,0.7-0.1,1
		c-0.1,0.3-0.1,0.6-0.3,0.8c-0.1,0.1-0.1,0.2-0.2,0.2c-0.1,0-0.1,0-0.1-0.1c0-0.6-0.1-1.3-0.2-1.9c-0.1-0.6-0.1-1.3-0.2-1.9
		c-0.1-0.7-0.2-1.4-0.3-2c-0.1-0.7-0.2-1.3-0.3-2c-0.1-0.7-0.2-1.3-0.3-2c-0.1-0.7-0.2-1.3-0.3-2c0-0.2,0.1-0.3,0.1-0.5
		c0-0.2,0.1-0.4,0.2-0.5c0.2-0.5,0.3-0.7,0.3-0.8C253.6,17.4,253.6,17.3,253.7,17.3z"/>
	<path class="st0" d="M261.8,31.3l-1.1,0c-0.3,0-0.6,0-0.9-0.1c-0.3-0.1-0.5-0.2-0.7-0.3c-0.2-0.2-0.3-0.3-0.5-0.6
		c-0.1-0.2-0.1-0.5-0.1-0.8c0-0.2,0.1-0.4,0.2-0.7c0.1-0.3,0.3-0.6,0.5-0.9c0.2-0.3,0.4-0.5,0.6-0.7c0.2-0.2,0.5-0.3,0.7-0.3
		c0.3,0,0.5,0.1,0.7,0.3c0.2,0.2,0.4,0.4,0.6,0.7c0.2,0.3,0.3,0.6,0.4,0.9c0.1,0.3,0.2,0.6,0.2,0.8l0.9,0h0.2c0.1,0,0.2,0,0.3,0.1
		c0.1,0,0.2,0.1,0.2,0.2c0.1,0.1,0.1,0.2,0.1,0.3c0,0.1,0,0.2,0,0.3c0,0.2,0,0.4-0.2,0.6c-0.1,0.2-0.3,0.3-0.5,0.3h-0.2l-0.9,0
		c-0.1,0.6-0.3,1.2-0.4,1.8c-0.2,0.6-0.4,1.1-0.6,1.6c-0.3,0.5-0.6,0.9-1,1.3c-0.4,0.4-0.8,0.6-1.4,0.8c-0.4,0.1-0.8,0.2-1.2,0.2
		c-0.4,0-0.9,0-1.3,0c-0.4,0-0.9-0.1-1.3-0.2c-0.4-0.1-0.8-0.2-1.2-0.3c-0.1,0-0.2-0.1-0.2-0.1c0-0.1,0-0.1,0-0.2
		c0,0,0.1-0.1,0.1-0.1c0.1,0,0.2,0,0.3,0c0.3,0,0.7,0,1.1,0c0.4,0,0.8-0.1,1.2-0.2c0.4-0.1,0.8-0.2,1.2-0.3c0.4-0.1,0.7-0.3,1-0.4
		c0.4-0.2,0.8-0.5,1.1-0.8c0.3-0.3,0.6-0.6,0.8-1c0.3-0.4,0.5-0.7,0.7-1.1C261.5,32,261.7,31.6,261.8,31.3z M259.4,29.3
		c0,0.1,0.2,0.2,0.3,0.2c0.2,0,0.4,0.1,0.6,0.1c0.2,0,0.4,0,0.6,0c0.2,0,0.4,0,0.5,0c0,0,0-0.1-0.1-0.2c-0.1-0.1-0.2-0.2-0.3-0.4
		c-0.1-0.1-0.3-0.2-0.4-0.3c-0.1-0.1-0.3-0.2-0.4-0.2c-0.1,0-0.2,0-0.3,0.1c-0.1,0.1-0.2,0.1-0.3,0.2c-0.1,0.1-0.1,0.2-0.2,0.3
		C259.5,29.2,259.4,29.2,259.4,29.3z"/>
	<path class="st0" d="M264,20.5c0.2-0.1,0.5-0.3,0.7-0.4c0.2-0.1,0.5-0.3,0.7-0.4c0.2-0.2,0.4-0.3,0.7-0.5c0.2-0.2,0.4-0.4,0.6-0.6
		c-0.2-0.1-0.4-0.2-0.6-0.3c-0.2-0.1-0.4-0.3-0.5-0.4c-0.1-0.1-0.1-0.2-0.1-0.3c0-0.1,0-0.2,0-0.3c0.1-0.2,0.1-0.4,0.2-0.6
		c0.1-0.2,0.2-0.4,0.4-0.5c0.1-0.2,0.3-0.3,0.5-0.4c0.2-0.1,0.4-0.2,0.5-0.1c0.2,0,0.4,0.1,0.5,0.3c0.1,0.2,0.2,0.4,0.2,0.7
		c0,0.3,0,0.5,0,0.8c0,0.3,0,0.4-0.1,0.5c0,0,0,0.1,0,0.1c0.1,0,0.1,0.1,0.2,0.1c0,0,0.1,0.1,0.1,0.2c0,0.1,0.1,0.2,0,0.4
		c0,0.2-0.1,0.3-0.1,0.3c-0.1,0.1-0.1,0.1-0.2,0.1c0,0-0.1,0-0.1-0.1c0,0-0.1-0.1-0.1-0.1c0,0-0.1-0.1-0.1-0.1
		c-0.2,0.2-0.4,0.5-0.6,0.7c-0.2,0.2-0.5,0.4-0.7,0.6c-0.3,0.2-0.5,0.3-0.8,0.5s-0.6,0.3-0.9,0.4c-0.1,0-0.2,0.1-0.4,0.1
		c-0.1,0-0.2,0-0.2,0c0,0,0-0.1,0.1-0.2C263.8,20.6,263.9,20.6,264,20.5z M266,16.9c0.2,0.2,0.3,0.4,0.5,0.5
		c0.2,0.1,0.4,0.2,0.6,0.2h0c0-0.1,0-0.1,0-0.2c0-0.1,0-0.2,0-0.3c0-0.1,0-0.2,0-0.3c0-0.1-0.1-0.2-0.1-0.2c-0.1,0-0.1-0.1-0.2-0.1
		c-0.1,0-0.2,0-0.3,0.1c-0.1,0-0.2,0.1-0.3,0.1C266.1,16.8,266,16.8,266,16.9z"/>
	<path class="st0" d="M263.4,31.2h-0.2c-0.2,0-0.4-0.1-0.5-0.3c-0.1-0.2-0.2-0.4-0.2-0.6c0-0.1,0-0.2,0-0.3c0-0.1,0.1-0.2,0.1-0.3
		c0.1-0.1,0.1-0.1,0.2-0.2c0.1,0,0.2-0.1,0.3-0.1h0.2c0.2,0,0.5,0,0.7,0c0.3,0,0.5-0.1,0.8-0.1c0.2-0.1,0.5-0.2,0.7-0.3
		c0.2-0.1,0.4-0.3,0.6-0.6c0.1-0.2,0.3-0.3,0.3-0.5c0.1-0.2,0.2-0.4,0.3-0.6c0-0.1,0.1-0.1,0.2-0.2c0.1,0,0.1,0,0.1,0.1
		c0,0.1,0,0.2,0,0.3c0,0.1,0,0.2,0,0.3c0,0.2,0,0.4,0.1,0.6c0.1,0.2,0.2,0.4,0.4,0.5c0.2,0.2,0.5,0.3,0.8,0.4
		c0.3,0.1,0.7,0.1,1.2,0.1h0.2c0.1,0,0.2,0,0.3,0.1c0.1,0,0.1,0.1,0.2,0.2c0.1,0.1,0.1,0.2,0.1,0.3c0,0.1,0,0.2,0,0.3
		c0,0.2-0.1,0.4-0.2,0.6c-0.1,0.2-0.3,0.3-0.5,0.3h-0.2c-0.4,0-0.8,0-1.1-0.1c-0.3-0.1-0.6-0.2-0.9-0.3c-0.5-0.3-0.8-0.7-1.1-1.3
		c-0.2,0.3-0.3,0.6-0.6,0.8c-0.2,0.2-0.5,0.4-0.7,0.5c-0.3,0.1-0.6,0.2-0.9,0.3C264,31.2,263.7,31.2,263.4,31.2z M266.2,22.4
		l1.3,1.1c0.1,0,0.1,0.1,0,0.2l-0.9,1.1c0,0.1-0.1,0.1-0.2,0l-1.3-1.1c-0.1,0-0.1-0.1,0-0.2l0.9-1.1
		C266.1,22.4,266.2,22.4,266.2,22.4z"/>
	<path class="st0" d="M275.4,19.2c-0.4,0.2-0.7,0.3-1.1,0.5c-0.4,0.2-0.8,0.4-1.1,0.5c-0.4,0.2-0.7,0.3-1,0.5
		c-0.3,0.1-0.6,0.3-0.8,0.4c0,0-0.1,0-0.1,0c0,0,0-0.1,0-0.1l0.5-1.1c0-0.1,0.1-0.1,0.1-0.1c0,0,0.1,0,0.1-0.1l3.9-1.7
		c0.1,0,0.2,0,0.1,0.1l-0.4,1C275.6,19.1,275.5,19.1,275.4,19.2z"/>
	<path class="st0" d="M269.6,29.6c0.3,0,0.6,0,0.9,0c0.3,0,0.6-0.1,0.8-0.1c0.3-0.1,0.5-0.2,0.7-0.3c0.2-0.1,0.4-0.3,0.5-0.5
		c0.2-0.4,0.4-0.8,0.6-1.2c0.2-0.4,0.4-0.8,0.6-1.1c0.1-0.1,0.2-0.3,0.3-0.5c0.1-0.2,0.3-0.3,0.4-0.5c0.2-0.1,0.3-0.3,0.5-0.4
		c0.2-0.1,0.3-0.1,0.5-0.1c0.3,0,0.5,0.2,0.8,0.4c0.3,0.3,0.5,0.6,0.7,0.9c0.2,0.4,0.3,0.7,0.5,1.1c0.1,0.4,0.2,0.7,0.1,0.9
		c0,0.2,0,0.3-0.1,0.5c0,0.2-0.1,0.3-0.1,0.5c-0.1,0.2-0.1,0.3-0.2,0.4c-0.1,0.1-0.2,0.2-0.4,0.3c-0.3,0.1-0.6,0.1-1,0
		c-0.4-0.1-0.7-0.2-1-0.3c-0.3-0.1-0.6-0.2-0.8-0.3s-0.5-0.3-0.8-0.5c-0.3,0.8-0.7,1.4-1.3,1.8c-0.6,0.4-1.3,0.6-2.1,0.6h-0.2
		c-0.2,0-0.4-0.1-0.5-0.3c-0.1-0.2-0.2-0.4-0.2-0.6s0.1-0.4,0.2-0.6c0.1-0.2,0.3-0.3,0.5-0.3H269.6z M275.9,27.3
		c-0.1-0.2-0.3-0.3-0.4-0.5c-0.2-0.2-0.4-0.2-0.7-0.2c-0.2,0-0.4,0.1-0.6,0.3c-0.2,0.2-0.3,0.4-0.4,0.6c0.2,0.2,0.4,0.3,0.6,0.4
		c0.2,0.1,0.4,0.2,0.6,0.3c0.2,0.1,0.5,0.1,0.7,0.1c0.2,0,0.5,0,0.7,0c0,0,0-0.1,0-0.2c0-0.1-0.1-0.2-0.1-0.3
		c-0.1-0.1-0.1-0.2-0.2-0.3C276,27.4,275.9,27.3,275.9,27.3z"/>
	<path class="st0" d="M284,13.5c0,0,0,0.1,0,0.1c0,0.1,0,0.1,0,0.2c0,0.1-0.1,0.2-0.1,0.2c0,0.1-0.1,0.2-0.1,0.2
		c-0.2,0.3-0.4,0.5-0.6,0.8c-0.2,0.2-0.5,0.4-0.8,0.5c-0.3,0.1-0.5,0.2-0.8,0.3c-0.3,0.1-0.6,0.1-0.9,0.1c-0.4,0-0.8,0-1.2-0.1
		c-0.4-0.1-0.7-0.2-1-0.4c-0.1-0.1-0.2-0.1-0.2,0c0,0.1-0.1,0.1-0.1,0.2c-0.1,0.1-0.1,0.2-0.2,0.3c-0.1,0.1-0.1,0.2-0.2,0.2
		c-0.1,0.1-0.1,0.1-0.2,0.1c-0.1,0-0.1,0-0.1-0.1c0-0.1,0-0.2,0-0.2c0-0.1,0-0.2,0.1-0.4c0-0.2,0.1-0.3,0.2-0.5
		c0.1-0.2,0.1-0.4,0.2-0.5c0.1-0.2,0.1-0.3,0.2-0.4c0-0.1,0.1-0.1,0.3,0c0.4,0.2,0.8,0.3,1.2,0.4c0.4,0.1,0.8,0.2,1.2,0.1
		c0.3,0,0.5,0,0.8-0.1c0.3,0,0.5-0.1,0.7-0.2c0.2-0.1,0.5-0.2,0.7-0.3c0.2-0.1,0.4-0.3,0.6-0.5C284,13.5,284,13.5,284,13.5z
		 M280.3,17.2c0.1,0,0.2,0.1,0.2,0.4c0,0.3,0,0.5,0,0.8c0,0.3,0,0.5,0.1,0.8c0.1,0.6,0.2,1.3,0.3,2c0.1,0.7,0.2,1.4,0.3,2
		c0.1,0.7,0.2,1.4,0.3,2c0.1,0.7,0.2,1.3,0.2,2c0,0.3,0,0.5,0.1,0.9c0,0.3,0,0.7,0,1c0,0.3-0.1,0.7-0.1,1c-0.1,0.3-0.1,0.6-0.3,0.8
		c-0.1,0.1-0.1,0.2-0.2,0.2c-0.1,0-0.1,0-0.1-0.1c0-0.6-0.1-1.3-0.2-1.9c-0.1-0.6-0.1-1.3-0.2-1.9c-0.1-0.7-0.2-1.4-0.3-2
		c-0.1-0.7-0.2-1.3-0.3-2c-0.1-0.7-0.2-1.3-0.3-2c-0.1-0.7-0.2-1.3-0.3-2c0-0.2,0.1-0.3,0.1-0.5c0-0.2,0.1-0.4,0.2-0.5
		c0.2-0.5,0.3-0.7,0.3-0.8C280.3,17.3,280.3,17.2,280.3,17.2z"/>
	<path class="st0" d="M295.3,20.5c-0.4,0.2-0.7,0.3-1.1,0.5c-0.4,0.2-0.8,0.4-1.1,0.5c-0.4,0.2-0.7,0.3-1,0.5
		c-0.3,0.1-0.6,0.3-0.8,0.4c0,0-0.1,0-0.1,0c0,0,0-0.1,0-0.1l0.5-1.1c0-0.1,0.1-0.1,0.1-0.1c0,0,0.1,0,0.1-0.1l3.9-1.7
		c0.1,0,0.2,0,0.1,0.1l-0.4,1C295.4,20.4,295.3,20.5,295.3,20.5z"/>
	<path class="st0" d="M296.6,29.4l0.5-1.6c0-0.1,0.1-0.1,0.1-0.1c0,0,0.1,0,0.1,0.1c0.1,0.2,0.3,0.5,0.4,0.8
		c0.2,0.3,0.3,0.5,0.4,0.7c0.1,0.1,0.2,0.1,0.3,0.2c0.1,0,0.3,0.1,0.4,0.1c0.1,0,0.3,0,0.4,0c0.1,0,0.2,0,0.3,0h0.2
		c0.2,0,0.4,0.1,0.5,0.3c0.1,0.2,0.2,0.4,0.2,0.6c0,0.2-0.1,0.4-0.2,0.6c-0.1,0.2-0.3,0.3-0.5,0.3h-0.2c-0.4,0-0.7,0-1.1-0.1
		c0,0.4,0.1,0.8,0.1,1.3c0,0.5,0,0.9-0.1,1.3c-0.1,0.7-0.4,1.3-0.8,1.8c-0.4,0.5-0.9,0.9-1.5,1.3c-0.6,0.3-1.2,0.6-1.9,0.7
		c-0.7,0.2-1.3,0.2-2,0.2c-0.6,0-1.1-0.1-1.6-0.3c-0.5-0.2-0.9-0.4-1.3-0.8c-0.4-0.3-0.7-0.7-0.9-1.2c-0.2-0.5-0.3-1-0.3-1.6
		c0-0.7,0.1-1.3,0.3-2c0.2-0.6,0.5-1.2,0.9-1.8c0-0.1,0.1-0.1,0.1-0.1c0,0,0.1,0,0.1,0.1c0,0.1,0,0.1,0,0.2c-0.3,0.6-0.5,1.3-0.6,2
		c-0.1,0.7,0,1.3,0.2,1.9c0.2,0.6,0.6,1,1.1,1.4c0.5,0.4,1.2,0.5,2.1,0.5c0.5,0,1,0,1.5-0.1c0.5-0.1,1-0.2,1.4-0.4
		c0.5-0.2,0.9-0.4,1.3-0.7c0.4-0.3,0.8-0.6,1.1-1c0-0.4,0-0.8-0.1-1.2c-0.1-0.4-0.1-0.8-0.3-1.2c-0.1-0.4-0.2-0.8-0.4-1.1
		C297,30.1,296.8,29.7,296.6,29.4z M294,24.8l1.3,1.1c0.1,0,0.1,0.1,0,0.2l-0.9,1.1c0,0.1-0.1,0.1-0.2,0l-1.3-1.1
		c-0.1,0-0.1-0.1,0-0.2l0.9-1.1C293.9,24.8,294,24.8,294,24.8z"/>
	<path class="st0" d="M302.4,25.4c0.2,0.2,0.4,0.4,0.6,0.7c0.2,0.2,0.3,0.5,0.4,0.7c0.1,0.3,0.2,0.5,0.3,0.8
		c0.1,0.3,0.1,0.5,0.1,0.8c0,0.1,0,0.3,0,0.4c0,0.2,0,0.3-0.1,0.5c0,0.2-0.1,0.3-0.1,0.4c0,0.1-0.1,0.3-0.2,0.4
		c-0.2,0.3-0.4,0.5-0.7,0.6c-0.3,0.2-0.6,0.3-1,0.4c-0.4,0.1-0.7,0.1-1.1,0.2c-0.4,0-0.7,0-1,0h-0.2c-0.2,0-0.4-0.1-0.5-0.3
		c-0.1-0.2-0.2-0.4-0.2-0.6c0-0.2,0.1-0.4,0.2-0.6c0.1-0.2,0.3-0.3,0.5-0.3h0.2c0.3,0,0.7,0,1,0c0.3,0,0.7,0,1-0.1
		c0.3,0,0.6-0.1,0.8-0.1c0.2-0.1,0.4-0.1,0.6-0.2c0.1,0,0.1-0.1,0.1-0.2c0-0.1,0-0.1,0-0.2c-0.1-0.2-0.2-0.4-0.2-0.5
		c-0.1-0.2-0.2-0.3-0.3-0.5c-0.1-0.2-0.2-0.3-0.4-0.4s-0.3-0.3-0.4-0.4l0.4-1.5c0-0.1,0.1-0.1,0.1-0.1S302.3,25.3,302.4,25.4z
		 M303.5,35.5C303.5,35.5,303.4,35.5,303.5,35.5c-0.1,0.1-0.1,0.1-0.2,0l-1.3-1l-0.8,1.1c0,0.1-0.1,0.1-0.2,0l-1.4-1.1
		c0,0-0.1-0.1,0-0.1l0.9-1.2c0,0,0.1-0.1,0.1-0.1c0,0,0,0,0.1,0l1.3,1l0.9-1.1c0-0.1,0.1-0.1,0.1,0l1.4,1.1c0,0,0,0.1,0,0.2
		L303.5,35.5z"/>
	<path class="st0" d="M310.7,34.1c-0.7,0.2-1.4,0.4-2.1,0.7c-0.7,0.2-1.3,0.4-2,0.6c-0.1,0-0.1,0-0.1-0.1l0.4-0.8c0,0,0-0.1,0.1-0.1
		c0,0,0,0,0.1-0.1c0.2-0.1,0.4-0.2,0.8-0.3c0.3-0.1,0.7-0.2,1-0.3c0.4-0.1,0.7-0.2,1.1-0.4c0.4-0.1,0.8-0.2,1.1-0.3
		c0.1,0,0.1,0,0.1,0c0,0,0,0,0,0.1l-0.5,0.8C310.8,34,310.8,34,310.7,34.1C310.7,34.1,310.7,34.1,310.7,34.1z"/>
	<path class="st0" d="M316.7,9.4c-0.4,0.2-0.7,0.3-1.1,0.5c-0.4,0.2-0.8,0.4-1.1,0.5c-0.4,0.2-0.7,0.3-1,0.5
		c-0.3,0.1-0.6,0.3-0.8,0.4c0,0-0.1,0-0.1,0c0,0,0-0.1,0-0.1l0.5-1.1c0-0.1,0.1-0.1,0.1-0.1c0,0,0.1,0,0.1-0.1l3.9-1.7
		c0.1,0,0.2,0,0.1,0.1l-0.4,1C316.9,9.3,316.8,9.3,316.7,9.4z M314.8,13.7c-0.2,0.3-0.3,0.6-0.5,0.7c-0.2,0.2-0.5,0.3-0.8,0.3
		c-0.2,0-0.4-0.1-0.6-0.2c-0.2-0.1-0.3-0.4-0.3-0.7c0-0.1,0-0.3,0-0.4c0-0.2,0.1-0.3,0.1-0.4c0.1-0.1,0.1-0.2,0.2-0.3
		c0.1-0.1,0.2-0.2,0.2-0.2c0.1,0,0.1,0.1,0,0.2c0,0.1-0.1,0.2-0.1,0.3c0,0.1,0,0.2,0,0.3c0,0.1,0,0.2,0,0.3c0,0.1,0.1,0.1,0.1,0.2
		c0.1,0.1,0.2,0.1,0.3,0.1c0.1,0,0.2,0,0.4-0.1c0.1,0,0.2-0.1,0.3-0.2c0.1-0.1,0.2-0.2,0.3-0.3c0.1-0.1,0.2-0.2,0.2-0.4
		s0.1-0.3,0.1-0.4c0-0.1,0-0.2,0.1-0.3c0-0.1,0.1-0.1,0.2-0.1c0,0,0,0,0,0.1c0,0,0,0.1,0,0.1c0,0,0,0.1,0,0.1c0,0,0,0.1,0,0.1
		c0,0.2,0,0.4,0.1,0.5c0.1,0.1,0.2,0.2,0.4,0.2c0.1,0,0.2,0,0.4,0c0.2,0,0.3-0.1,0.4-0.2c0,0,0-0.1,0-0.1c0-0.1,0-0.1,0-0.2
		c0-0.1,0-0.1-0.1-0.2c0-0.1-0.1-0.1-0.1-0.1l0.4-0.8c0.1,0,0.1,0.1,0.2,0.2c0,0.1,0.1,0.3,0.1,0.4c0,0.2,0,0.3,0,0.5
		c0,0.2,0,0.3-0.1,0.4c-0.1,0.3-0.2,0.5-0.3,0.7c-0.1,0.2-0.4,0.4-0.7,0.4c-0.3,0-0.5,0-0.7-0.1C315.1,14,314.9,13.8,314.8,13.7z"/>
	<path class="st0" d="M316,28.9c-0.1-0.7-0.2-1.5-0.3-2.4c-0.1-0.9-0.2-1.7-0.3-2.6c-0.1-0.9-0.2-1.7-0.4-2.5
		c-0.1-0.8-0.3-1.6-0.4-2.3c-0.1-0.3-0.1-0.6-0.2-0.9c0-0.3-0.2-0.6-0.3-0.8c-0.1-0.1-0.1-0.1-0.1-0.2c0,0,0-0.1,0.1-0.2
		c0.1-0.2,0.2-0.4,0.3-0.6c0.1-0.2,0.2-0.4,0.3-0.6c0-0.1,0-0.1,0.1-0.1c0,0,0.1,0,0.1,0.1c0.1,0.2,0.1,0.3,0.2,0.5
		c0.1,0.2,0.2,0.4,0.3,0.5c0.1,0.2,0.2,0.3,0.3,0.5c0.1,0.1,0.3,0.3,0.4,0.4c-0.1,0.2-0.2,0.3-0.3,0.4c-0.1,0.1-0.1,0.2-0.2,0.3
		c0,0.1-0.1,0.2-0.1,0.3c0,0.1,0,0.2,0,0.3c0.1,0.6,0.1,1.2,0.2,1.8c0.1,0.6,0.2,1.3,0.3,2c0.1,0.7,0.2,1.3,0.3,2
		c0.1,0.7,0.2,1.3,0.2,2c0,0.3,0,0.6,0,1c0,0.4,0,0.7-0.1,1.1c-0.1,0.4-0.1,0.7-0.2,1c-0.1,0.3-0.2,0.6-0.4,0.7
		c-0.1,0.2-0.3,0.3-0.5,0.4c-0.2,0.1-0.4,0.1-0.7,0.2s-0.5,0-0.7,0c-0.2,0-0.4-0.1-0.6-0.2c-0.2-0.1-0.5-0.3-0.6-0.5
		c-0.2-0.2-0.4-0.4-0.5-0.7c-0.2-0.3-0.3-0.5-0.4-0.8c-0.1-0.3-0.2-0.6-0.3-0.8c-0.1,0.3-0.2,0.6-0.5,0.9c-0.2,0.3-0.5,0.5-0.8,0.7
		c-0.2,0.1-0.3,0.2-0.6,0.2c-0.2,0.1-0.5,0.1-0.7,0.2c-0.3,0-0.5,0.1-0.8,0.1c-0.3,0-0.5,0-0.8,0c-0.2,0-0.5-0.1-0.7-0.1
		c-0.2-0.1-0.4-0.2-0.5-0.3c-0.1-0.1-0.1-0.2-0.2-0.4c0-0.2,0-0.3,0-0.5c0-0.2,0-0.4,0.1-0.6c0-0.2,0.1-0.3,0.1-0.5
		c0-0.1,0.1-0.1,0.1-0.1c0,0,0.1,0,0.1,0.1c0.1,0.2,0.3,0.4,0.4,0.5c0.2,0.1,0.4,0.2,0.6,0.2c0.3,0,0.7,0.1,1.1,0
		c0.4,0,0.8-0.1,1.1-0.2c0.4-0.1,0.7-0.2,1-0.4c0.3-0.2,0.5-0.4,0.7-0.6c-0.1-0.5-0.2-1.1-0.3-1.6c-0.1-0.6-0.2-1.1-0.3-1.6
		c0-0.1,0-0.1,0-0.3c0-0.1,0.1-0.2,0.1-0.3c0-0.1,0.1-0.2,0.1-0.4c0-0.1,0.1-0.2,0.1-0.3c0-0.1,0.1-0.1,0.1-0.1c0.1,0,0.1,0,0.1,0.1
		c0,0.3,0.1,0.6,0.1,0.9c0.1,0.3,0.1,0.7,0.2,1c0.1,0.3,0.1,0.7,0.2,1c0.1,0.3,0.1,0.7,0.2,1c0.1,0.4,0.2,0.7,0.3,1
		c0.1,0.3,0.2,0.6,0.4,0.8c0.1,0.2,0.3,0.4,0.5,0.6c0.2,0.2,0.5,0.3,0.8,0.4c0.1,0,0.3,0,0.5,0c0.2,0,0.5,0,0.7-0.1
		c0.2,0,0.4-0.1,0.6-0.2C315.9,29.2,316,29.1,316,28.9z M309.6,18.8l1.3,1.1c0.1,0,0.1,0.1,0,0.2l-0.9,1.1c0,0.1-0.1,0.1-0.2,0
		l-1.3-1.1c-0.1,0-0.1-0.1,0-0.2l0.9-1.1C309.5,18.8,309.6,18.8,309.6,18.8z"/>
	<path class="st0" d="M319.3,17.3c0.1,0,0.2,0.1,0.2,0.4c0,0.3,0,0.5,0,0.8c0,0.3,0,0.5,0.1,0.8c0.1,0.6,0.2,1.3,0.3,2
		c0.1,0.7,0.2,1.4,0.3,2c0.1,0.7,0.2,1.4,0.3,2c0.1,0.7,0.2,1.3,0.2,2c0,0.3,0,0.5,0.1,0.9c0,0.3,0,0.7,0,1c0,0.3-0.1,0.7-0.1,1
		c-0.1,0.3-0.1,0.6-0.3,0.8c-0.1,0.1-0.1,0.2-0.2,0.2c-0.1,0-0.1,0-0.1-0.1c0-0.6-0.1-1.3-0.2-1.9c-0.1-0.6-0.1-1.3-0.2-1.9
		c-0.1-0.7-0.2-1.4-0.3-2c-0.1-0.7-0.2-1.3-0.3-2c-0.1-0.7-0.2-1.3-0.3-2c-0.1-0.7-0.2-1.3-0.3-2c0-0.2,0.1-0.3,0.1-0.5
		c0-0.2,0.1-0.4,0.2-0.5c0.2-0.5,0.3-0.7,0.3-0.8C319.2,17.4,319.2,17.3,319.3,17.3z"/>
	<path class="st0" d="M331.7,29.5c0.2,0,0.4,0.1,0.5,0.3c0.1,0.2,0.2,0.4,0.2,0.6c0,0.2,0,0.4-0.2,0.6c-0.1,0.2-0.3,0.3-0.5,0.3
		c0,0,0,0-0.1,0c0,0-0.1,0-0.1,0c-0.6,0-1.2-0.1-1.6-0.4c-0.4-0.2-0.7-0.6-1-0.9c-0.3-0.5-0.5-1-0.6-1.5c-0.1-0.5-0.2-1.1-0.2-1.6
		c-0.1-0.6-0.1-1.2-0.2-1.9c-0.1-0.6-0.1-1.2-0.2-1.9c-0.1-0.6-0.2-1.3-0.3-1.9c-0.1-0.7-0.3-1.4-0.5-2.1c0-0.1,0-0.1,0-0.1
		c0,0,0-0.1,0-0.1l0.6-1.4c0,0,0.1-0.1,0.1-0.1c0,0,0.1,0,0.1,0.1c0.1,0.4,0.2,0.8,0.3,1.2c0.1,0.4,0.2,0.9,0.2,1.3
		c0.1,0.5,0.1,1,0.2,1.6c0.1,0.6,0.1,1.2,0.2,1.9c0.1,0.5,0.1,1,0.2,1.5s0.1,1,0.2,1.5c0,0.4,0.1,0.8,0.2,1.2
		c0.1,0.4,0.2,0.8,0.4,1.1c0.2,0.3,0.4,0.5,0.7,0.7c0.3,0.2,0.8,0.2,1.3,0.2C331.5,29.5,331.6,29.5,331.7,29.5
		C331.6,29.5,331.6,29.5,331.7,29.5z"/>
	<path class="st0" d="M337.1,19.7c-0.4,0.2-0.7,0.3-1.1,0.5c-0.4,0.2-0.8,0.4-1.1,0.5c-0.4,0.2-0.7,0.3-1,0.5
		c-0.3,0.1-0.6,0.3-0.8,0.4c0,0-0.1,0-0.1,0c0,0,0-0.1,0-0.1l0.5-1.1c0-0.1,0.1-0.1,0.1-0.1c0,0,0.1,0,0.1-0.1l3.9-1.7
		c0.1,0,0.2,0,0.1,0.1l-0.4,1C337.2,19.6,337.1,19.7,337.1,19.7z"/>
	<path class="st0" d="M337.4,26.8c0,0.3-0.1,0.6-0.1,0.9c-0.1,0.3-0.1,0.5-0.2,0.8c-0.1,0.2-0.2,0.5-0.4,0.7
		c-0.1,0.2-0.3,0.4-0.5,0.6c0.3,0,0.6-0.1,0.9-0.1c0.3,0,0.6,0,0.9,0c0.3,0,0.6,0,0.9,0c0.3,0,0.6,0,0.8,0h0.2
		c0.2,0,0.4,0.1,0.5,0.3c0.1,0.2,0.2,0.4,0.2,0.6c0,0.2-0.1,0.4-0.2,0.6c-0.1,0.2-0.3,0.3-0.5,0.3h-0.2h-1l-1,0
		c0.5,0.5,0.7,1.1,0.7,1.7c0,0.2,0,0.4-0.1,0.7c-0.1,0.2-0.1,0.4-0.2,0.6c-0.1,0.2-0.2,0.4-0.4,0.5c-0.2,0.1-0.3,0.2-0.5,0.3
		c-0.5,0.1-0.9,0-1.3-0.2c-0.4-0.2-0.7-0.4-1-0.8c-0.3-0.3-0.5-0.7-0.8-1.2c-0.2-0.5-0.3-0.9-0.4-1.3c-0.2,0-0.4,0.1-0.6,0.1
		c-0.2,0.1-0.4,0.1-0.4,0c0-0.1,0-0.2,0.1-0.3c0-0.1,0.1-0.2,0.1-0.2l-1.1,0h-0.2c-0.3,0-0.4-0.1-0.6-0.3c-0.1-0.2-0.2-0.4-0.2-0.6
		c0-0.2,0.1-0.4,0.2-0.6c0.1-0.2,0.3-0.3,0.5-0.3h0.2c0.4,0,0.8,0,1.1,0c0.4,0,0.7,0,1-0.1c0-0.3,0.1-0.5,0.2-0.8
		c0.1-0.3,0.2-0.5,0.3-0.8c0.1-0.3,0.2-0.5,0.3-0.8c0.1-0.3,0.3-0.5,0.4-0.7c0.1-0.1,0.2-0.3,0.4-0.5c0.2-0.2,0.3-0.4,0.5-0.6
		c0.2-0.2,0.4-0.4,0.6-0.5c0.2-0.1,0.4-0.2,0.6-0.2c0.2,0,0.3,0.1,0.4,0.3c0.1,0.2,0.2,0.4,0.2,0.7c0,0.3,0.1,0.5,0.1,0.8
		C337.4,26.5,337.4,26.7,337.4,26.8z M336.7,27.9c0-0.3,0-0.5-0.1-0.8c-0.1-0.3-0.1-0.5-0.2-0.6c0-0.1-0.1-0.1-0.1-0.1
		c0,0-0.1-0.1-0.2,0c-0.2,0-0.4,0.2-0.6,0.4c-0.2,0.2-0.4,0.5-0.6,0.8c-0.2,0.3-0.3,0.6-0.4,1c-0.1,0.3-0.2,0.6-0.3,0.8
		c0.2-0.1,0.4-0.1,0.6-0.2c0.2-0.1,0.5-0.2,0.7-0.4c0.2-0.1,0.5-0.3,0.7-0.4C336.5,28.2,336.6,28,336.7,27.9z M334.3,31.5
		c0.1,0.2,0.2,0.5,0.4,0.7c0.1,0.2,0.2,0.4,0.4,0.6c0.1,0.2,0.3,0.3,0.5,0.4c0.2,0.1,0.5,0.2,0.8,0.3c0.1,0,0.2,0,0.3,0
		c0.1,0,0.3,0,0.4-0.1c0.1,0,0.2-0.1,0.3-0.2c0.1-0.1,0.1-0.2,0.1-0.3c0-0.2-0.1-0.4-0.4-0.5c-0.3-0.2-0.6-0.3-0.9-0.5
		c-0.4-0.1-0.7-0.3-1.1-0.3C334.8,31.5,334.5,31.5,334.3,31.5z"/>
	<path class="st0" d="M343.2,20.4c-0.2,0.3-0.3,0.6-0.5,0.7c-0.2,0.2-0.5,0.3-0.8,0.3c-0.2,0-0.4-0.1-0.6-0.2
		c-0.2-0.1-0.3-0.4-0.3-0.7c0-0.1,0-0.3,0-0.4c0-0.2,0.1-0.3,0.1-0.4c0.1-0.1,0.1-0.2,0.2-0.3c0.1-0.1,0.2-0.2,0.2-0.2
		c0.1,0,0.1,0.1,0,0.2c0,0.1-0.1,0.2-0.1,0.3c0,0.1,0,0.2,0,0.3c0,0.1,0,0.2,0,0.3c0,0.1,0.1,0.1,0.1,0.2c0.1,0.1,0.2,0.1,0.3,0.1
		c0.1,0,0.2,0,0.4-0.1c0.1,0,0.2-0.1,0.3-0.2c0.1-0.1,0.2-0.2,0.3-0.3c0.1-0.1,0.2-0.2,0.2-0.4c0-0.2,0.1-0.3,0.1-0.4
		c0-0.1,0-0.2,0.1-0.3c0-0.1,0.1-0.1,0.2-0.1c0,0,0,0,0,0.1c0,0,0,0.1,0,0.1c0,0,0,0.1,0,0.1c0,0,0,0.1,0,0.1c0,0.2,0,0.4,0.1,0.5
		c0.1,0.1,0.2,0.2,0.4,0.2c0.1,0,0.2,0,0.4,0c0.2,0,0.3-0.1,0.4-0.2c0,0,0-0.1,0-0.1c0-0.1,0-0.1,0-0.2c0-0.1,0-0.1-0.1-0.2
		c0-0.1-0.1-0.1-0.1-0.1l0.4-0.8c0.1,0,0.1,0.1,0.2,0.2c0,0.1,0.1,0.3,0.1,0.4c0,0.2,0,0.3,0,0.5c0,0.2,0,0.3-0.1,0.4
		c-0.1,0.3-0.2,0.5-0.3,0.7c-0.1,0.2-0.4,0.4-0.7,0.4c-0.3,0-0.5,0-0.7-0.1C343.4,20.7,343.3,20.6,343.2,20.4z M341.3,17.7
		c0.3-0.1,0.5-0.3,0.7-0.4c0.2-0.1,0.5-0.3,0.7-0.4c0.2-0.1,0.5-0.3,0.7-0.5c0.2-0.2,0.4-0.4,0.7-0.6c-0.2-0.1-0.4-0.1-0.6-0.3
		c-0.2-0.1-0.4-0.3-0.5-0.4c-0.1-0.1-0.1-0.2-0.1-0.3c0-0.1,0-0.2,0-0.3c0.1-0.2,0.1-0.3,0.3-0.5c0.1-0.2,0.2-0.4,0.4-0.5
		c0.2-0.2,0.3-0.3,0.5-0.4c0.2-0.1,0.4-0.1,0.6-0.1c0.2,0,0.4,0.1,0.5,0.3c0.1,0.2,0.2,0.4,0.2,0.6c0,0.2,0,0.5,0,0.7
		c0,0.2,0,0.4-0.1,0.5c0,0,0,0.1,0,0.1c0.1,0,0.2,0.1,0.2,0.1c0,0,0.1,0.1,0.1,0.1c0,0.1,0.1,0.2,0,0.4c0,0.1-0.1,0.2-0.1,0.3
		c-0.1,0.1-0.1,0.1-0.2,0.1c0,0-0.1,0-0.1-0.1c0,0-0.1-0.1-0.1-0.1c0,0-0.1-0.1-0.2-0.1c-0.2,0.2-0.4,0.4-0.7,0.6
		c-0.2,0.2-0.5,0.4-0.8,0.6c-0.3,0.2-0.6,0.3-0.9,0.4c-0.3,0.1-0.6,0.2-0.9,0.3c-0.1,0-0.3,0.1-0.4,0.1c-0.1,0-0.2,0-0.2,0
		c0,0,0-0.1,0.1-0.1C341.1,17.8,341.2,17.8,341.3,17.7z M343.4,14.4c0.2,0.2,0.3,0.3,0.6,0.4c0.2,0.1,0.4,0.2,0.6,0.2h0
		c0-0.1,0-0.1,0-0.2c0-0.1,0-0.2,0-0.3c0-0.1,0-0.2,0-0.3c0-0.1-0.1-0.2-0.1-0.2c-0.1,0-0.1-0.1-0.3-0.1c-0.1,0-0.2,0-0.3,0.1
		c-0.1,0-0.2,0.1-0.3,0.1C343.5,14.3,343.4,14.3,343.4,14.4z"/>
	<path class="st0" d="M343.6,25.3c0-0.1,0.1-0.1,0.3,0c0.2,0.2,0.4,0.4,0.5,0.7c0.2,0.2,0.3,0.5,0.4,0.7c0.1,0.3,0.2,0.5,0.3,0.8
		c0.1,0.3,0.1,0.5,0.1,0.8c0,0.1,0,0.3,0,0.4c0,0.2,0,0.3-0.1,0.5c0,0.2-0.1,0.3-0.1,0.4c0,0.1-0.1,0.3-0.2,0.3
		c-0.1,0.2-0.3,0.3-0.6,0.5c-0.3,0.1-0.5,0.2-0.9,0.3c-0.3,0.1-0.7,0.2-1,0.2c-0.4,0.1-0.7,0.1-1.1,0.1c-0.3,0-0.7,0.1-1,0.1
		c-0.3,0-0.6,0-0.8,0h-0.2c-0.2,0-0.4-0.1-0.5-0.3c-0.1-0.2-0.2-0.4-0.2-0.6c0-0.2,0.1-0.4,0.2-0.6c0.1-0.2,0.3-0.3,0.5-0.3h0.2
		c0.1,0,0.3,0,0.5,0c0.2,0,0.5,0,0.8,0c0.3,0,0.6,0,1-0.1c0.3,0,0.7,0,1-0.1c0.3,0,0.6-0.1,0.9-0.1c0.3-0.1,0.4-0.1,0.6-0.2
		c0.1-0.1,0.2-0.2,0.1-0.3c-0.1-0.4-0.3-0.7-0.5-1c-0.2-0.3-0.5-0.6-0.8-0.9c0.1-0.3,0.1-0.5,0.2-0.8
		C343.5,25.8,343.6,25.6,343.6,25.3z M344,35.5C344,35.6,343.9,35.6,344,35.5c-0.1,0.1-0.1,0.1-0.2,0l-1.3-1l-0.8,1.1
		c0,0.1-0.1,0.1-0.2,0l-1.4-1.1c0,0-0.1-0.1,0-0.1l0.9-1.2c0,0,0.1-0.1,0.1-0.1c0,0,0,0,0.1,0l1.3,1l0.9-1.1c0-0.1,0.1-0.1,0.1,0
		l1.4,1.1c0,0,0,0.1,0,0.2L344,35.5z"/>
	<path class="st0" d="M351,9.5c-0.4,0.2-0.7,0.3-1.1,0.5c-0.4,0.2-0.8,0.4-1.1,0.5c-0.4,0.2-0.7,0.3-1,0.5c-0.3,0.1-0.6,0.3-0.8,0.4
		c0,0-0.1,0-0.1,0c0,0,0-0.1,0-0.1l0.5-1.1c0-0.1,0.1-0.1,0.1-0.1c0,0,0.1,0,0.1-0.1l3.9-1.7c0.1,0,0.2,0,0.1,0.1l-0.4,1
		C351.1,9.4,351.1,9.5,351,9.5z"/>
	<path class="st0" d="M347.3,15.8c0.1-0.1,0.2-0.2,0.4-0.2c0.2-0.1,0.3-0.2,0.5-0.3c-0.2-0.1-0.3-0.3-0.4-0.4
		c-0.1-0.2-0.3-0.4-0.3-0.6c0-0.1,0-0.2,0-0.3c0-0.1,0.1-0.2,0.1-0.3c0.1-0.2,0.2-0.3,0.4-0.5c0.1-0.2,0.3-0.3,0.5-0.5
		c0.2-0.1,0.4-0.3,0.6-0.4c0.2-0.1,0.4-0.1,0.6-0.1c0.1,0,0.2,0,0.2,0.1c0.1,0.1,0.1,0.1,0.2,0.2c0.1,0.1,0.1,0.2,0.2,0.2
		c0,0.1,0.1,0.2,0.1,0.2c0,0.2,0,0.3,0,0.4c-0.1,0.3-0.2,0.4-0.3,0.5c-0.1,0.1-0.1,0.1-0.2,0.1c-0.1,0-0.1-0.1-0.1-0.1
		c0-0.1,0-0.2-0.1-0.3c0-0.1-0.1-0.2-0.2-0.2c-0.1,0-0.2-0.1-0.3-0.1c-0.4,0-0.7,0.1-0.9,0.4c0,0.1,0.1,0.3,0.2,0.4
		c0.1,0.1,0.2,0.2,0.3,0.3c0.1,0.1,0.2,0.2,0.4,0.3c0.1,0.1,0.3,0.1,0.4,0.1c0.4,0,0.7,0,1.1,0c0.3-0.1,0.7-0.1,1.1-0.2
		c0,0,0,0.1,0,0.2c0,0.1-0.1,0.2-0.1,0.3c0,0.1-0.1,0.2-0.1,0.3c0,0.1-0.1,0.2-0.1,0.2c-0.3,0-0.6,0.1-0.9,0.1
		c-0.3,0.1-0.6,0.1-1,0.2c-0.4,0.1-0.7,0.2-1.1,0.4c-0.4,0.2-0.7,0.4-1,0.5c0,0-0.1,0-0.1,0c0,0,0-0.1,0-0.1c0-0.1,0.1-0.3,0.2-0.5
		C347.2,16.1,347.3,16,347.3,15.8z M349.1,17.5C349.2,17.5,349.2,17.5,349.1,17.5c0.1,0.1,0.1,0.1,0.1,0.2c0,0,0,0.1,0,0.1
		c0,0,0,0.1,0,0.1c0,0.3,0,0.5,0,0.8c0,0.3,0,0.5,0.1,0.8c0,0.6,0.1,1.3,0.2,1.9c0.1,0.7,0.1,1.3,0.2,2c0.1,0.7,0.1,1.4,0.2,2
		c0.1,0.7,0.1,1.3,0.2,2c0,0.3,0,0.5,0,0.9c0,0.3,0,0.7-0.1,1c0,0.3-0.1,0.7-0.2,1c-0.1,0.3-0.2,0.6-0.3,0.8c0,0.1-0.1,0.1-0.1,0.2
		c0,0-0.1,0.1-0.1,0.1c-0.1,0-0.1,0-0.1-0.1c0-0.6-0.1-1.2-0.1-1.8c0-0.6-0.1-1.3-0.2-1.9c-0.1-1.3-0.3-2.7-0.4-4
		c-0.1-1.3-0.3-2.6-0.4-4c0-0.3,0.1-0.7,0.3-1c0-0.1,0.1-0.2,0.1-0.3c0-0.1,0.1-0.2,0.1-0.3C349,17.7,349,17.7,349.1,17.5
		C349.1,17.5,349.1,17.5,349.1,17.5z"/>
	<path class="st0" d="M361.9,29.5c0.2,0,0.4,0.1,0.5,0.3c0.1,0.2,0.2,0.4,0.2,0.6c0,0.2,0,0.4-0.2,0.6c-0.1,0.2-0.3,0.3-0.5,0.3
		c0,0,0,0-0.1,0c0,0-0.1,0-0.1,0c-0.6,0-1.2-0.1-1.6-0.4c-0.4-0.2-0.7-0.6-1-0.9c-0.3-0.5-0.5-1-0.6-1.5c-0.1-0.5-0.2-1.1-0.2-1.6
		c-0.1-0.6-0.1-1.2-0.2-1.9c-0.1-0.6-0.1-1.2-0.2-1.9c-0.1-0.6-0.2-1.3-0.3-1.9c-0.1-0.7-0.3-1.4-0.5-2.1c0-0.1,0-0.1,0-0.1
		c0,0,0-0.1,0-0.1l0.6-1.4c0,0,0.1-0.1,0.1-0.1c0,0,0.1,0,0.1,0.1c0.1,0.4,0.2,0.8,0.3,1.2c0.1,0.4,0.2,0.9,0.2,1.3
		c0.1,0.5,0.1,1,0.2,1.6c0.1,0.6,0.1,1.2,0.2,1.9c0.1,0.5,0.1,1,0.2,1.5s0.1,1,0.2,1.5c0,0.4,0.1,0.8,0.2,1.2
		c0.1,0.4,0.2,0.8,0.4,1.1c0.2,0.3,0.4,0.5,0.7,0.7c0.3,0.2,0.8,0.2,1.3,0.2C361.8,29.5,361.8,29.5,361.9,29.5
		C361.9,29.5,361.9,29.5,361.9,29.5z"/>
	<path class="st0" d="M365.5,19.4c-0.4,0.2-0.7,0.3-1.1,0.5c-0.4,0.2-0.8,0.4-1.1,0.5c-0.4,0.2-0.7,0.3-1,0.5
		c-0.3,0.1-0.6,0.3-0.8,0.4c0,0-0.1,0-0.1,0c0,0,0-0.1,0-0.1l0.5-1.1c0-0.1,0.1-0.1,0.1-0.1c0,0,0.1,0,0.1-0.1l3.9-1.7
		c0.1,0,0.2,0,0.1,0.1l-0.4,1C365.7,19.4,365.6,19.4,365.5,19.4z"/>
	<path class="st0" d="M364.6,25.4c0.2,0.2,0.4,0.4,0.6,0.7c0.2,0.2,0.3,0.5,0.4,0.7c0.1,0.3,0.2,0.5,0.3,0.8
		c0.1,0.3,0.1,0.5,0.1,0.8c0,0.1,0,0.3,0,0.4c0,0.2,0,0.3-0.1,0.5c0,0.2-0.1,0.3-0.1,0.4c0,0.1-0.1,0.3-0.2,0.4
		c-0.2,0.3-0.4,0.5-0.7,0.6c-0.3,0.2-0.6,0.3-1,0.4s-0.7,0.1-1.1,0.2c-0.4,0-0.7,0-1,0h-0.2c-0.2,0-0.4-0.1-0.5-0.3
		c-0.1-0.2-0.2-0.4-0.2-0.6c0-0.2,0.1-0.4,0.2-0.6c0.1-0.2,0.3-0.3,0.5-0.3h0.2c0.3,0,0.7,0,1,0c0.3,0,0.7,0,1-0.1
		c0.3,0,0.6-0.1,0.8-0.1c0.2-0.1,0.4-0.1,0.6-0.2c0.1,0,0.1-0.1,0.1-0.2c0-0.1,0-0.1,0-0.2c-0.1-0.2-0.2-0.4-0.2-0.5
		c-0.1-0.2-0.2-0.3-0.3-0.5c-0.1-0.2-0.2-0.3-0.4-0.4c-0.1-0.1-0.3-0.3-0.4-0.4l0.4-1.5c0-0.1,0.1-0.1,0.1-0.1
		C364.5,25.3,364.5,25.3,364.6,25.4z M365.7,35.5C365.6,35.5,365.6,35.5,365.7,35.5c-0.1,0.1-0.1,0.1-0.2,0l-1.3-1l-0.8,1.1
		c0,0.1-0.1,0.1-0.2,0l-1.4-1.1c0,0-0.1-0.1,0-0.1l0.9-1.2c0,0,0.1-0.1,0.1-0.1c0,0,0,0,0.1,0l1.3,1l0.9-1.1c0-0.1,0.1-0.1,0.1,0
		l1.4,1.1c0,0,0,0.1,0,0.2L365.7,35.5z"/>
	<path d="M381.3,26.7c0,0.1-0.1,0.3-0.2,0.4c-0.2,0.2-0.4,0.4-0.8,0.6c0,0.4-0.1,0.7-0.2,1.1c-0.1,0.3-0.2,0.5-0.3,0.5
		c-0.4-0.4-0.7-0.7-1.1-1c-0.4-0.3-0.8-0.5-1.2-0.5c0,0.4,0.2,0.8,0.6,1.2c0.3,0.3,0.6,0.7,0.9,1c0,0.2-0.3,0.3-1,0.5
		c-0.5,0.1-0.9,0.1-1.2,0.1c-0.5,1.4-1.1,2.7-2,3.9c-0.4,0.5-0.9,1.1-1.5,1.7c-0.8,0.8-1.4,1.2-1.8,1.2c-0.1,0-0.2-0.1-0.2-0.2
		c0-0.1,0.2-0.4,0.7-0.9c0.7-0.8,1.2-1.4,1.5-2.1c0.6-1.1,1-2.3,1.2-3.7c-0.4-0.1-0.7-0.1-0.8-0.2c-0.1-0.1-0.2-0.1-0.2-0.3
		c0.9-0.8,1.4-1.5,1.4-2.2c-0.4,0-0.8,0.2-1.2,0.5c-0.2,0.2-0.6,0.6-1,1c-0.1,0-0.2-0.2-0.4-0.5c-0.1-0.4-0.2-0.7-0.2-1.1
		c-0.4-0.2-0.6-0.4-0.7-0.4c-0.3-0.2-0.4-0.4-0.4-0.6c0-0.1,0.1-0.3,0.2-0.4c0.1-0.1,0.4-0.3,0.8-0.5c0-1.1,0.2-1.6,0.6-1.6
		c0.8,0.9,1.5,1.3,2.2,1.4c0-0.3-0.2-0.8-0.5-1.2c0,0-0.3-0.4-0.9-1c0-0.1,0.1-0.2,0.2-0.2c0.2-0.1,0.4-0.1,0.9-0.2
		c-0.2-1.1-0.6-2.2-1.3-3.3c-0.6-1.1-1.4-2.1-2.2-2.8c-0.1-0.1-0.2-0.2-0.2-0.3s0.1-0.2,0.3-0.2c0.3,0,0.7,0.2,1.3,0.6
		c1.8,1.3,3.2,3.2,4.1,5.8c1.4,0,2.1,0.2,2.1,0.6c-0.4,0.3-0.7,0.7-0.9,1c-0.3,0.4-0.4,0.8-0.4,1.2c0.3,0,0.7-0.2,1-0.5l1.1-1
		c0.2,0,0.4,0.5,0.5,1.4c0,0.1,0,0.2,0,0.3C380.9,26.1,381.3,26.5,381.3,26.7z M378.1,23.5c0,0-0.1-0.1-0.4-0.1s-0.4-0.1-0.5-0.1
		h-0.4c-0.1,0-0.2,0-0.3,0.1c-0.4-1.2-0.9-2.4-1.7-3.5c-0.9-1.2-1.8-2.2-3-3c0.8,0.7,1.4,1.6,2,2.6c0.7,1.2,1.2,2.5,1.4,3.8
		c-0.5,0-0.8,0.1-0.8,0.2c0.6,0.5,1,1,1.3,1.5c0.1-0.2,0.2-0.5,0.3-0.7c0,0,0.1-0.1,0.1-0.3c0.1-0.2,0.1-0.3,0.2-0.3
		c0.2,0,0.4,0.5,0.7,1.4c0.2-0.3,0.3-0.7,0.6-0.9C377.7,23.9,377.9,23.7,378.1,23.5z M374.7,27.5c-0.1-0.1-0.5-0.2-1.1-0.4
		c-0.4-0.1-0.6-0.2-0.6-0.3c0,0,0.3-0.2,0.9-0.4c0.1-0.1,0.4-0.2,0.7-0.3c-0.3-0.1-0.7-0.3-1-0.5c-0.1-0.1-0.4-0.3-0.7-0.6
		c-0.1,0-0.2,0.4-0.2,1.2c-0.6,0.3-0.9,0.6-0.9,0.7c0,0.2,0.3,0.3,0.9,0.6c0,0.8,0.1,1.3,0.3,1.3c0,0,0.2-0.2,0.6-0.5
		C374.2,27.8,374.5,27.6,374.7,27.5z M378.2,30c-0.5-0.4-0.9-0.9-1.2-1.4c-0.1,0.2-0.2,0.4-0.3,0.7c0,0-0.1,0.2-0.2,0.4
		c-0.1,0.2-0.2,0.3-0.2,0.3c0,0-0.1-0.1-0.2-0.3c-0.1-0.2-0.1-0.3-0.2-0.3c0-0.1-0.1-0.3-0.3-0.7c-0.1,0.3-0.3,0.6-0.5,0.8
		c-0.2,0.2-0.4,0.4-0.6,0.6c0,0.1,0.3,0.1,0.8,0.3c-0.3,1.3-0.5,2.1-0.6,2.4c-0.5,1.4-1.3,2.8-2.4,4.1c1.9-1.3,3.3-3.4,4.3-6.5
		c0.7,0,1,0,0.9,0C377.9,30.3,378.2,30.2,378.2,30z M377.6,26.8c0-0.4-0.1-0.7-0.4-0.9c-0.2-0.2-0.6-0.3-0.9-0.3
		c-0.3,0-0.6,0.1-0.9,0.4c-0.3,0.2-0.4,0.5-0.4,0.9c0,0.4,0.1,0.7,0.4,0.9c0.3,0.2,0.6,0.4,0.9,0.4c0.4,0,0.7-0.1,0.9-0.4
		C377.5,27.5,377.6,27.2,377.6,26.8z M380.7,26.7c0-0.1-0.1-0.2-0.2-0.3c-0.2-0.1-0.4-0.2-0.7-0.3c0-0.4,0-0.7-0.1-0.9
		c-0.1-0.2-0.1-0.4-0.2-0.4c0,0-0.2,0.2-0.5,0.5c-0.3,0.3-0.7,0.6-1.1,0.7c0.2,0.1,0.4,0.2,0.8,0.4c0,0,0.2,0.1,0.6,0.2
		c0.3,0.1,0.4,0.2,0.4,0.2c0,0.1-0.2,0.2-0.6,0.3c-0.6,0.2-1,0.3-1.1,0.3c0.4,0.1,0.7,0.3,1,0.5c0.1,0.1,0.4,0.3,0.6,0.6
		c0.1,0,0.1-0.1,0.2-0.3c0-0.1,0-0.4,0-0.8C380.4,27.1,380.7,26.8,380.7,26.7z"/>
	<rect class="st2" width="403.5" height="50.8"/>
</g>
</svg>
