<?xml version="1.0" encoding="utf-8"?>
<!-- Generator: Adobe Illustrator 19.2.0, SVG Export Plug-In . SVG Version: 6.00 Build 0)  -->
<svg version="1.1" id="Layer_1" xmlns="http://www.w3.org/2000/svg" xmlns:xlink="http://www.w3.org/1999/xlink" x="0px" y="0px"
	 viewBox="0 0 435.8 76.1" style="enable-background:new 0 0 435.8 76.1;" xml:space="preserve">
<style type="text/css">
	.st0{opacity:0.75;}
	.st1{fill:#FFFFFF;}
	.st2{fill:#BF8138;}
	.st3{fill:#F2C671;fill-opacity:0.5;}
	.st4{opacity:0.5;}
	.st5{fill:#F2C671;}
</style>
<g>
	<g>
		<g class="st0">
			<path d="M45.5,38.3c-0.7,0-1.2-0.3-1.5-0.8c-0.4-0.5-0.6-1.3-0.6-2c0-0.7,0.1-1.2,0.3-1.9c0.3-0.7,0.7-1.3,1.2-1.3
				c0.2,0,0.2,0.2,0.2,0.5C45,33.2,45,33.4,45,33.9c0,0.8,0.6,1.2,1.3,1.2c0.7,0,1.2-0.7,1.6-1.5c0.5-1.3,1.1-1.8,1.6-1.8
				c0.2,0,0.3,0.1,0.3,0.5c0,0.2,0,0.3,0,0.6c0,0.5,0.2,0.9,1,0.9c0.6,0,1.1-0.4,1.6-1.3c0.5-0.9,0.6-1.3,1-1.3
				c0.3,0,0.3,0.5,0.3,0.9c0,1-0.3,2-0.8,2.9c-0.5,0.8-1.2,1.7-2.5,1.7c-0.7,0-1.1-0.2-1.4-0.5c-0.2-0.2-0.3,0-0.6,0.3
				C47.3,37.7,46.4,38.3,45.5,38.3z"/>
			<path d="M54.4,69.6c0.2-0.1,0.2-0.1,0.2,0.1c0,1-0.4,2-0.9,2.3l-7.4,4.1c-0.1,0.1-0.2,0-0.2-0.1c0-0.5,0.2-1.4,0.4-1.8
				c0.2-0.3,0.5-0.6,1.2-1L54.4,69.6z"/>
			<path d="M51.8,62c0.3-0.3,0.4-0.4,0.6-0.2c0.9,0.9,1.8,1.9,2.8,2.5c0.3,0.2,0.3,0.3,0,0.6c-0.8,0.9-1.6,1.8-2.4,2.7
				c-0.2,0.2-0.3,0.2-0.5,0c-0.7-0.5-1.7-1.3-2.6-2.2c-0.5,0.6-1.6,1.8-2,2.1c-0.2,0.1-0.3,0.3-0.7,0.1c-0.9-0.6-2.1-1.5-2.8-2.5
				c-0.2-0.2-0.2-0.3,0-0.6c0.7-0.8,1.6-1.9,2.5-2.7c0.2-0.2,0.3-0.2,0.6,0.1c0.7,0.7,1.9,1.8,2.6,2.2C50.4,63.5,51.4,62.4,51.8,62z
				"/>
			<path d="M69.3,52.9c0.2-0.1,0.2-0.1,0.2,0.1c0,1-0.4,2-0.9,2.3l-7.4,4.1c-0.1,0.1-0.2,0-0.2-0.1c0-0.5,0.2-1.4,0.4-1.8
				c0.2-0.3,0.5-0.6,1.2-1L69.3,52.9z"/>
			<path d="M66.3,19.4c0.3-0.3,0.4-0.4,0.6-0.2c0.9,0.9,1.8,1.9,2.8,2.5c0.3,0.2,0.3,0.3,0,0.6c-0.8,0.9-1.6,1.8-2.4,2.7
				c-0.2,0.2-0.3,0.2-0.5,0c-0.7-0.5-1.7-1.3-2.6-2.2c-0.5,0.6-1.6,1.8-2,2.1c-0.2,0.1-0.3,0.3-0.7,0.1c-0.9-0.6-2.1-1.5-2.8-2.5
				c-0.2-0.2-0.2-0.3,0-0.6c0.7-0.8,1.6-1.9,2.5-2.7c0.2-0.2,0.3-0.2,0.6,0.1c0.7,0.7,1.9,1.8,2.6,2.2
				C64.9,20.9,65.9,19.8,66.3,19.4z"/>
			<path d="M40.4,41.5c0.6-1.1,1-1.4,1.3-1.4c0.5,0-0.2,1.6-0.3,1.7c-0.6,1.3-1.7,3.7-1.7,5.9c0,4.8,4.3,6.8,8.8,6.9
				c4.7,0,12.5-3.7,13.4-5.1c-1.2-1-4.9-2.2-8.1-2.2c-0.6,0-0.8-0.2-0.8-0.7c0-0.5,0.3-1.6,0.5-2.2c0.2-0.7,0.5-1.3,0.9-1.8
				c0.6-0.9,2.1-2,4.6-3.4h0c-0.2-0.5-0.3-1-0.3-1.6c0-3.8,4.5-9.1,7.1-9.1c1.5,0,2.3,1.7,2.3,3.8c0,2.2-0.8,5-2.7,6.7
				c0.8,0.4,2,0.7,3.6,0.7h0.7c1,0,1.5,0.7,1.5,2c0,1.4-0.5,2.1-1.6,2.1h-0.6c-3.7,0-6-0.8-7.6-1.7c-2.9,0.9-4.5,1.6-4.8,2.1
				c3.3,0.5,4.8,1.1,5.6,1.6c1.3,0.8,1.6,1.7,1.6,2.4c0,5.5-10.3,10.4-16.6,10.5c-4.2,0-9.4-1.7-9.4-8.6
				C37.9,46.6,39.3,43.4,40.4,41.5z M64.1,32.7c-1.3,0-2.9,1.3-2.9,2.2c0,0.9,0.7,1.7,2.2,2.5c0.5-0.2,2.6-1.7,2.6-2.4
				C65.9,33.6,65.3,32.7,64.1,32.7z"/>
			<path d="M73.3,5.1c1.2,0,3,1.7,3,3.7c0,0.7-0.1,1.4-0.3,2.1c-0.5,1.4-1.7,2.2-3.2,2.2c-1.4,0-2.4-1.1-2.4-2.4
				C70.4,9,72.4,5.1,73.3,5.1z M72.9,8c-0.5,0-1.3,1.1-1.3,1.7c0,0.5,0.7,1,1.4,1c0.9,0,2-0.5,2-0.9C75.1,9.5,74,8,72.9,8z"/>
			<path d="M69.2,39.7h0.4c1,0,1.8-0.3,2.3-0.8c0.8-0.8,0.9-1.9,0.9-3.2c0-2.6-0.2-8.1-0.6-16.4c0-0.9,0.3-1.9,1-3.1
				c0.3-0.6,0.6-1.1,0.9-1.1c0.2,0,0.4,0.3,0.5,1.3c0.4,6.2,0.6,14.4,1.3,20.1c0.1,1.1,0.6,2,1.4,2.6c0.5,0.4,1.1,0.6,1.7,0.6h0.5
				c1.1,0,1.7,0.7,1.7,2c0,1.4-0.6,2.1-1.7,2.1h-0.5c-2.5,0-4.4-1.8-5-4.2c-0.6,2.8-2,4.2-4.3,4.2h-0.4c-1.2,0-1.8-0.7-1.8-2.1
				C67.3,40.4,67.9,39.7,69.2,39.7z"/>
			<path d="M85.8,22.2c0.2-0.1,0.2-0.1,0.2,0.1c0,1-0.4,2-0.9,2.3l-7.4,4.1c-0.1,0.1-0.2,0-0.2-0.1c0-0.5,0.2-1.4,0.4-1.8
				c0.2-0.3,0.5-0.6,1.2-1L85.8,22.2z"/>
			<path d="M89.5,4.4c1.2,0,3,1.7,3,3.7c0,0.7-0.1,1.4-0.3,2.1c-0.5,1.4-1.7,2.2-3.2,2.2c-1.4,0-2.4-1.1-2.4-2.4
				C86.6,8.3,88.6,4.4,89.5,4.4z M89.1,7.2c-0.5,0-1.3,1.1-1.3,1.7c0,0.5,0.7,1,1.4,1c0.9,0,2-0.5,2-0.9C91.3,8.8,90.2,7.2,89.1,7.2
				z"/>
			<path d="M91.1,26.9c-0.1,1-0.2,1.9-0.4,2.6c-0.2,0.7-0.4,1.3-0.6,1.9c-0.2,0.5-0.8,1.1-1.6,1.8c1.6,0.4,3.2,0.9,4.9,1.5
				c1.9,0.6,3.5,1,4.7,1.3c1.1,0.3,2.5,0.4,4.2,0.6l3,0.1c0.3,0,0.4,0.1,0.3,0.3c-0.5,0.7-1.3,1.6-2.3,2.8c-0.2,0.3-0.3,0.3-0.7,0.3
				c-0.4-0.1-2.3-0.3-5.1-0.4c-1.3,0-2.7,0.2-4.2,0.6c-1.3,0.4-3,0.9-5,1.6c-2.1,0.7-3.7,1.2-4.8,1.5c-1.1,0.3-2.6,0.5-4.4,0.5h-0.4
				c-1.2,0-1.8-0.7-1.8-2.1c0-1.3,0.6-2,1.8-2h0.5c4.4,0,8.3-0.6,11.9-1.9c-0.3-0.3-1.7-0.8-4.1-1.4c-2.4-0.7-4.2-1-5.5-1
				c-0.3,0-0.4-0.1-0.4-0.2c0-0.5,0.8-1.4,2.4-2.9c0.2-0.2,0.3-0.3,0.6-0.3c0.3-0.1,0.9-0.3,1.6-0.5c0.5-0.1,1.3-0.4,2.3-0.8
				c1-0.4,1.5-0.9,1.5-1.5l-1.2-7.5c-0.1-0.7-0.6-2.3-0.7-3.1c0-0.1-0.1-0.3-0.1-0.5c0-0.1,0-0.2,0-0.3c0.1-0.2,0.2-0.7,0.7-1.6
				c0.4-0.8,1.1-1.9,1.4-1.9c0.1,0,0.2,0.1,0.3,0.4c0.5,1.7,1,2.6,1.5,3.2c0.1,0.1,0.1,0.3,0.1,0.4c0,0.1,0,0.2-0.1,0.4
				c-0.1,0.4-0.6,1.3-0.9,1.8C90.9,22.8,91.1,25.1,91.1,26.9z"/>
			<path d="M125.7,55.5c0.2-0.1,0.2-0.1,0.2,0.1c0,1-0.4,2-0.9,2.3l-7.4,4.1c-0.1,0.1-0.2,0-0.2-0.1c0-0.5,0.2-1.4,0.4-1.8
				c0.2-0.3,0.5-0.6,1.2-1L125.7,55.5z"/>
			<path d="M124.5,51.3c0.2,0.1,0.1,0.2,0,0.3c-0.4,0.6-1.9,2.2-2.5,3c-0.1,0.2-0.2,0.2-0.4,0c-0.8-0.5-2.6-1.9-3.1-2.6
				c-0.1-0.2-0.1-0.2,0-0.4c0.6-0.9,1.6-2.1,2.3-2.8c0.3-0.3,0.4-0.4,0.5-0.2C121.9,49.3,123.2,50.5,124.5,51.3z"/>
			<path d="M110.2,30.8c-0.1-3.6-0.4-9.4-1-12.4c0-0.1,0-0.2,0-0.2c0-0.6,0.7-1.5,1.3-2.5c0.3-0.5,0.5-1,0.7-1
				c0.2,0,0.4,0.3,0.5,1.2c0.8,6.3,0.3,15,1.2,20.2c0.4,1.7,0.7,2.6,1.7,3.2c0.8,0.4,2.2,0.5,3.3,0.5c1.1,0,3.1-0.1,4.1-1.1
				c-0.1-1.6-1.3-3.5-1.9-4.3c0,0-0.1-0.1-0.1-0.2c0-0.4,0.9-2.5,1.3-3.3c0.1-0.1,0.1-0.2,0.2-0.2c0.2,0,0.5,0.3,0.8,0.8
				c0.9,1.5,1.3,3.4,1.3,5.5c0,1.7-0.2,3.5-1.5,4.9c-1.4,1.5-3.3,2.1-5.5,2.1c-1.4,0-3-0.3-4-1.4C111,40.8,110.5,38.8,110.2,30.8z"
				/>
			<path d="M149.3,56.6c0.2-0.1,0.2-0.1,0.2,0.1c0,1-0.4,2-0.9,2.3l-7.4,4.1c-0.1,0.1-0.2,0-0.2-0.1c0-0.5,0.2-1.4,0.4-1.8
				c0.2-0.3,0.5-0.6,1.2-1L149.3,56.6z"/>
			<path d="M150.2,42.4c0,6.1-2.8,10.7-7.4,12.6c-0.3,0.1-0.7,0.2-1.1,0.2c-1.6,0-5.1-0.9-7.3-2c-0.6-0.3-0.6-0.5-0.6-0.7
				c0-0.2,0.3-0.3,0.5-0.3c0.5,0,1.9,0.3,3.3,0.3c1.2,0,2.2-0.3,3.9-1c2-0.9,5.8-4.1,6.8-6.7c0.1-0.4,0.2-1,0.2-1.3
				c0-0.2-0.1-1.8-1.8-4.2c-0.6-0.9-0.9-1.4-1.4-2.2c-0.1-0.1-0.1-0.2-0.1-0.4c0-0.5,0.7-2.4,1.1-3c0.1-0.2,0.2-0.3,0.4-0.3
				c0.8,0,2.5,3.1,3.2,5.6C150.1,40.1,150.2,41.2,150.2,42.4z"/>
			<path d="M160.8,43.8c-1.2,0-2.2-0.2-3-0.9c-1.3-1-2-3-2.3-5.5c-0.3-1.9-0.4-4.2-0.5-6.6c-0.1-3.6-0.4-9.1-0.9-12.3
				c0-0.1,0-0.3,0-0.4c0-0.2,0-0.3,0.3-0.7c0.6-0.8,0.9-1.4,1.3-2.1c0.3-0.5,0.4-0.6,0.5-0.6c0.2,0,0.3,0.3,0.5,1.2
				c0.8,6.3,0.1,15,1.1,19.8c0.2,1.2,0.4,1.6,0.7,2.4c0.5,1.1,1.3,1.6,2.6,1.7c1.4,0,2.1,0.7,2.1,2c0,1.6-0.8,2.1-1.9,2.1H160.8z"/>
			<path d="M187.8,6.9c1.2,0,3,1.7,3,3.7c0,0.7-0.1,1.4-0.3,2.1c-0.5,1.4-1.7,2.2-3.2,2.2c-1.4,0-2.4-1.1-2.4-2.4
				C184.9,10.8,186.9,6.9,187.8,6.9z M187.4,9.7c-0.5,0-1.3,1.1-1.3,1.7c0,0.5,0.7,1,1.4,1c0.9,0,2-0.5,2-0.9
				C189.6,11.2,188.5,9.7,187.4,9.7z"/>
			<path d="M191.3,19.5c0.2,0.1,0.1,0.2,0,0.3c-0.4,0.6-1.9,2.2-2.5,3c-0.1,0.2-0.2,0.2-0.4,0c-0.8-0.5-2.6-1.9-3.1-2.6
				c-0.1-0.2-0.1-0.2,0-0.4c0.6-0.9,1.6-2.1,2.3-2.8c0.3-0.3,0.4-0.4,0.5-0.2C188.8,17.5,190.1,18.7,191.3,19.5z"/>
			<path d="M180.7,30.3c0,1.4-0.1,2.6-0.4,3.6c1.9-1.5,3.5-2.7,4.9-3.5c1.5-0.8,2.7-1.2,3.7-1.2c1.4,0,3.5,0.5,4.6,1.6
				c0.5,0.4,0.7,1,0.7,1.9c0,2-0.9,3.8-2.1,5.4c-0.9,1.2-3.7,2.1-7,2.8c-1.1,0.2-2.2,0.4-7.2,1c-2.4,0.2-3.6,0.3-5,0.9
				c-1.1,0.5-1.8,1.2-2.2,2c-0.2,0.6-0.3,1-0.3,1.6c0,0.4,0,0.7,0.1,1.1c0.2,1,0.4,1.6,0.5,2.1c0.1,0.4,0.2,0.9,0.3,1.3V51
				c0,0.9-0.7,2.6-1.1,3.4c0,0.1-0.2,0.2-0.3,0.2c-0.7,0-1.5-0.6-2-1.2c-1.5-1.5-2.2-3.8-2.2-7c0-1.1,0.1-2.1,0.2-3.3
				c0.1-0.6,0.2-1.1,0.3-1.8c-1.2,1.5-2.8,2.5-5.1,2.5h-0.5c-1.1,0-1.7-0.7-1.7-2.1c0-1.3,0.6-2,1.7-2h0.5c1,0,2-0.2,2.8-0.5
				c1.9-0.8,3-1.8,4.3-3.6c0.2-0.3,0.5-0.9,1-0.9c0.2,0,0.4,0.2,0.4,0.5c0,0.5-0.3,1.3-0.7,2.4c-0.6,1.6-1.3,3.8-1.3,6
				c0,1.4,0.4,2.7,1.1,4.1c0-0.7,0-1.3,0-2.1c0.1-1.6,0.6-2.7,1.8-3.9c1.2-1.3,2.8-2.4,4.8-3c1.3-1.4,2.3-2.5,3.4-3.6
				c0-0.5,0-1.1,0-1.6c0-5.5-0.8-9.1-1.3-12.7c0-0.7-0.6-2.3-0.7-3.1c0-0.1-0.1-0.3-0.1-0.5c0-0.1,0-0.2,0-0.3
				c0.1-0.2,0.2-0.7,0.7-1.5c0.4-0.9,1-1.9,1.3-1.9c0.1,0,0.2,0.1,0.3,0.4c0.5,1.7,1,2.6,1.4,3.2c0.1,0.1,0.1,0.3,0.1,0.4
				c0,0.1,0,0.2-0.1,0.4c-0.1,0.4-0.7,1.5-1.1,1.9C180.1,23.8,180.7,27.3,180.7,30.3z M187.1,32.9c-3.4,0-6.6,2.6-9.8,5.6
				c6.1-0.4,12-1.5,14.4-3.2C190.9,33.9,189,32.9,187.1,32.9z"/>
			<path d="M207.3,57.4c0.2-0.1,0.2-0.1,0.2,0.1c0,1-0.4,2-0.9,2.3l-7.4,4.1c-0.1,0.1-0.2,0-0.2-0.1c0-0.5,0.2-1.4,0.4-1.8
				c0.2-0.3,0.5-0.6,1.2-1L207.3,57.4z"/>
			<path d="M205.8,53.6c-1.5,0.8-4.7,2.7-7.2,4.5c-0.1,0-0.1,0.1-0.2,0.1c0,0-0.1,0-0.1-0.1c0-0.2,0.1-0.6,0.4-1.2
				c0.1-0.3,0.9-1.1,1.5-1.6c0.1-0.1,0.2-0.1,0.2-0.2c0,0-0.1-0.1-0.2-0.2c-1.1-0.4-1.5-0.7-1.7-1.7c0-0.1,0-0.2,0-0.3
				c0-1.7,1.7-4,3.3-5.2c0.6-0.5,1.2-0.7,1.8-0.7c1,0,1.4,0.5,1.4,1.3c0,0.5-0.1,1-0.4,1.7c-0.2,0.4-0.3,0.7-0.5,0.7
				c-0.1,0-0.3-0.1-0.5-0.3c-0.2-0.2-0.5-0.5-1-0.5c-1.4,0-2.3,0.8-2.3,1.2c0,0.6,2.3,1.5,3.2,1.5c0.1,0,0.2,0,0.2,0
				c0.4-0.1,2-0.7,2.6-1.1c0.3-0.2,0.5-0.3,0.6-0.3c0.1,0,0.1,0,0.1,0.2c0,0.1-0.1,0.4-0.2,0.8C206.4,53.2,206.1,53.4,205.8,53.6z"
				/>
			<path d="M214.6,18c0.1,0.3,0.2,0.4,0.2,0.5c0,0.1,0,0.2-0.1,0.4c-0.3,0.8-1,1.7-1.5,2.4c-0.3,4.3-0.9,7.7-2.8,12.6
				c0.6,1.4,0.9,3.4,0.9,5.2c0,1.2-0.2,2.4-0.5,3.3c-0.3,0.7-4.8,1.5-7.8,1.5c-0.8,0-1.5,0-2-0.2c-0.2,0-0.3-0.5-0.3-1.2
				c0-1.1,0.2-2.7,0.5-3.2c0-0.1,0.1-0.1,0.2-0.1c0.2,0,0.2,0,0.4,0c2.5,0,5-2.3,6.6-5.2c-2-4-6.3-9.3-10-11.8c-0.1,0.1-0.8,1-1.3,1
				c-0.6,0-3.9-3.2-4-3.9c-0.1-0.4-0.1-0.8-0.1-1.1c0-1,0.2-2,0.4-2.5c0.2-0.5,0.5-0.7,0.8-0.7c0.4,0,0.9,0.3,1.4,0.7
				c2.8,2,5.8,4.2,8.1,7.2c1.8,2.3,4.1,5.4,5.8,9.2c1.1-2.3,1.3-3.9,1.5-6.9c0.1-1.7,0.2-3,0.2-3.9c0-2.1-0.2-2.8-0.2-3.3
				c0-0.3,0.1-0.7,0.4-1.3c0.7-1.2,1.2-2.1,1.5-2.1c0.1,0,0.2,0.1,0.3,0.4C213.7,15.9,214.1,17,214.6,18z M209.1,35.8
				c-1.4,2-1.6,2.4-3,3.7c1.3,0,2.7-0.1,3.8-0.6C209.9,38.2,209.9,37.1,209.1,35.8z"/>
			<path d="M221.7,43.8c-0.2,0-0.3-0.3-0.3-1.2c0-5.4-2-20.3-2-22.7c0-1.2,0.8-3.1,1.5-4.4c0.2-0.4,0.6-0.9,0.8-0.9
				c0.2,0,0.3,0.3,0.3,1.4c0.2,3.9,1.3,13,1.3,19.6c0,2.6-0.2,4.9-0.6,6.2C222.3,43.2,222,43.8,221.7,43.8z"/>
			<path d="M246,3.7c0,0.9-0.2,1.8-0.5,2.6c0.4,0.2,0.6,0.5,0.6,0.7c0,0.7-0.3,1.3-0.6,1.8c-0.1,0.1-0.1,0.1-0.2,0.1l-0.9-0.6
				c-0.9,1.4-2.3,3.1-4.4,4.1c-0.8,0.4-1.7,0.7-2.6,0.7c-0.5,0-0.7-0.1-0.7-0.2c0-0.2,0.4-0.3,1-0.7c1.5-0.9,4.5-3.1,5.5-4.5
				c-0.8-0.6-1.9-1.3-1.9-2.4c0-0.8,0.4-1.5,1-2.3c0.7-1,1.5-1.4,2.2-1.4C245.6,1.5,246,2.7,246,3.7z M242.8,4.5c0,0,0,0.1,0,0.1
				c0,0.2,0.8,0.8,1.4,1c0.2-0.3,0.2-0.6,0.2-1.2c0-0.5-0.2-0.8-0.6-0.8C243.5,3.7,243,4,242.8,4.5z"/>
			<path d="M245.1,16.8c0.3-0.3,0.4-0.4,0.6-0.2c0.9,0.9,1.8,1.9,2.8,2.5c0.3,0.2,0.3,0.3,0,0.6c-0.8,0.9-1.6,1.8-2.4,2.7
				c-0.2,0.2-0.3,0.2-0.5,0c-0.7-0.5-1.7-1.3-2.6-2.2c-0.5,0.6-1.6,1.8-2,2.1c-0.2,0.1-0.3,0.3-0.7,0.1c-0.9-0.6-2.1-1.5-2.8-2.5
				c-0.2-0.2-0.2-0.3,0-0.6c0.7-0.8,1.6-1.9,2.5-2.7c0.2-0.2,0.3-0.2,0.6,0.1c0.7,0.7,1.9,1.8,2.6,2.2
				C243.7,18.3,244.7,17.2,245.1,16.8z M250.4,38.9c0.9,0.6,1.6,0.8,2.1,0.8h0.6c1.2,0,1.9,0.6,1.9,1.9c0,1.5-0.7,2.2-2,2.2h-0.6
				c-1.4,0-2.7-0.5-4-1.6c-1.3-1.1-2.1-2.9-2.4-5.4c-0.4,0.6-0.7,1.3-1.5,1.8c-1.1,0.8-2.9,1.1-4.7,1.1c-1.3,0-2.5-0.2-2.5-1.2
				c0.6-4,1.1-4.6,3-6.2c0.8-0.7,3.2-2.1,4.2-2.8c0-0.4-0.1-0.7-0.1-1c0-0.9,0.2-1.4,0.7-2.2c0.3-0.5,0.5-0.9,0.7-0.9
				c0.2,0,0.3,0.3,0.4,1c0.6,3.7,0.9,6.7,1.4,8.5C248.1,36.6,249.1,38,250.4,38.9z M245.1,31.6c-1.7,1.1-4.5,2.8-4.6,3.3
				c0,0.3,0.5,0.4,1.3,0.4c1.1,0,2.7-0.3,3.9-0.9C245.4,33.4,245.3,33,245.1,31.6z"/>
			<path d="M262.9,23.3c0.2-0.1,0.2-0.1,0.2,0.1c0,1-0.4,2-0.9,2.3l-7.4,4.1c-0.1,0.1-0.2,0-0.2-0.1c0-0.5,0.2-1.4,0.4-1.8
				c0.2-0.3,0.5-0.6,1.2-1L262.9,23.3z"/>
			<path d="M261.1,37.3c0,1,1.1,2.2,2.4,2.4c0.3,0,0.6,0,0.9,0h0.2c1.5,0,1.5,1.2,1.5,1.8c0,0.5,0,2.2-1.5,2.2h-0.3
				c-0.3,0-0.5,0-1,0c-2.7-0.3-3.7-2.7-3.9-3c-0.4,1.1-2.6,3-6.6,3h-0.2c-1.1,0-1.7-1-1.7-2c0-1,0.6-2.1,1.7-2.1h1.2
				c1.8,0,4.3-0.3,5.8-2.9c0.5-0.8,0.7-0.9,0.9-0.9C261,36,261.1,36.3,261.1,37.3z M260.9,49.3c0.3-0.3,0.4-0.4,0.6-0.2
				c0.9,0.9,1.8,1.9,2.8,2.5c0.3,0.2,0.3,0.3,0,0.6c-0.8,0.9-1.6,1.8-2.4,2.7c-0.2,0.2-0.3,0.2-0.5,0c-0.7-0.5-1.7-1.3-2.6-2.2
				c-0.5,0.6-1.6,1.8-2,2.1c-0.2,0.1-0.3,0.3-0.7,0.1c-0.9-0.6-2.1-1.5-2.8-2.5c-0.2-0.2-0.2-0.3,0-0.6c0.7-0.8,1.6-1.9,2.5-2.7
				c0.2-0.2,0.3-0.2,0.6,0.1c0.7,0.7,1.9,1.8,2.6,2.2C259.4,50.8,260.4,49.7,260.9,49.3z"/>
			<path d="M278.5,49.2c0.2-0.1,0.2-0.1,0.2,0.1c0,1-0.4,2-0.9,2.3l-7.4,4.1c-0.1,0.1-0.2,0-0.2-0.1c0-0.5,0.2-1.4,0.4-1.8
				c0.2-0.3,0.5-0.6,1.2-1L278.5,49.2z"/>
			<path d="M264.9,43.8h-0.3c-1.1,0-1.7-0.7-1.7-2c0-1.4,0.6-2.1,1.7-2.1h0.3c2.9,0,4.8-1.4,6.2-2.8c1.4-1.4,2.4-2.9,3.4-2.9
				c0.3,0,0.7,0.1,1,0.5c1.7,1.7,5.1,5.2,6.8,5.2h0.2c1.2,0,1.9,0.6,1.9,1.9c0,1.4-0.6,2.2-1.9,2.2h-0.2c-1.6,0-3.2-1.1-3.5-1.4
				c-0.3,1.2-1.7,2.7-2.4,2.7c-0.6,0-5.9-1.6-7.5-3.9C268.6,42.8,266.6,43.8,264.9,43.8z M275.3,38.6c-0.6-0.6-1.3-1.1-1.9-1.1
				c-0.4,0-0.5,0.1-1,0.5c-0.3,0.3-0.5,0.5-0.5,0.7c0,0.3,0.5,0.6,2.1,1.3c0.7,0.3,2.3,1,2.7,1c0.2,0,0.2-0.1,0.2-0.2
				C277,40.5,275.8,39.2,275.3,38.6z"/>
			<path d="M296.2,20.7c1.2,0,3,1.7,3,3.7c0,0.7-0.1,1.4-0.3,2.1c-0.5,1.4-1.7,2.2-3.2,2.2c-1.4,0-2.4-1.1-2.4-2.4
				C293.2,24.7,295.3,20.7,296.2,20.7z M295.8,23.6c-0.5,0-1.3,1.1-1.3,1.7c0,0.5,0.7,1,1.4,1c0.9,0,2-0.5,2-0.9
				C297.9,25.1,296.8,23.6,295.8,23.6z"/>
			<path d="M298.3,35.7c0.2,0,0.3,0.2,0.3,0.9c0,0.2,0,0.5,0,0.8c0,1.3,1,2,2.1,2c1.8,0,2.7-1.7,3.5-3.2c0.1-0.2,0.3-0.6,0.6-0.6
				c0.2,0,0.3,0.2,0.4,1.1c0.1,1.9,1.2,3,2.8,3.1h0.5c1.3,0,1.9,0.6,1.9,1.8c0,1.5-0.6,2.2-1.9,2.2h-0.5c-2.3,0-3.5-1.1-3.9-3.5
				c-0.6,1.7-2.1,3.5-4,3.5c-1.9,0-2.9-1.6-3.1-3.5c-0.7,2-2.8,3.4-4.8,3.4c-2.2,0-3.5-0.8-4.1-2.8c-0.3,0.8-0.8,1.4-1.5,2
				c-0.7,0.6-1.9,0.9-3.8,0.9h-0.4c-1.2,0-1.9-0.7-1.9-2.1c0-1.3,0.6-2,1.8-2h0.5c2.8,0,4.7-1,5.7-3.1c0.1-0.2,0.3-0.6,0.6-0.6
				c0.3,0,0.4,0.3,0.4,1c0.1,1.6,1.4,2.4,3.2,2.4c2.2,0,3.8-1,4.9-3.1C297.8,36.1,298,35.7,298.3,35.7z"/>
			<path d="M313.5,8.9c0.2-0.1,0.2-0.1,0.2,0.1c0,1-0.4,2-0.9,2.3l-7.4,4.1c-0.1,0.1-0.2,0-0.2-0.1c0-0.5,0.2-1.4,0.4-1.8
				c0.2-0.3,0.5-0.6,1.2-1L313.5,8.9z"/>
			<path d="M311.6,17.6c0.3-0.3,0.4-0.4,0.6-0.2c0.9,0.9,1.8,1.9,2.8,2.5c0.3,0.2,0.3,0.3,0,0.6c-0.8,0.9-1.6,1.8-2.4,2.7
				c-0.2,0.2-0.3,0.2-0.5,0c-0.7-0.5-1.7-1.3-2.6-2.2c-0.5,0.6-1.6,1.8-2,2.1c-0.2,0.1-0.3,0.3-0.7,0.1c-0.9-0.6-2.1-1.5-2.8-2.5
				c-0.2-0.2-0.2-0.3,0-0.6c0.7-0.8,1.6-1.9,2.5-2.7c0.2-0.2,0.3-0.2,0.6,0.1c0.7,0.7,1.9,1.8,2.6,2.2
				C310.2,19.1,311.1,18,311.6,17.6z M312.8,40.5c-0.7,1.6-1.5,3.3-4.7,3.3c-1.5,0-2.2-0.9-2.2-2.1c0-1,0.6-2,2.2-2h0
				c0.9,0,3.3-1.4,3.3-2.9v-0.1c-0.2-3.1-1.3-4.2-2.8-6.8c-0.1-0.1-0.1-0.3-0.1-0.5c0-0.5,0.4-2.1,1-3.2c0.2-0.3,0.3-0.4,0.5-0.4
				c0.1,0,0.2,0,0.3,0.1c2.4,2.3,3.2,6.9,3.2,10.1C313.5,37.6,313.2,39.5,312.8,40.5z"/>
			<path d="M345.2,17.8c0,0.9-0.2,1.8-0.5,2.6c0.4,0.2,0.6,0.5,0.6,0.7c0,0.7-0.3,1.3-0.6,1.8c-0.1,0.1-0.1,0.1-0.2,0.1l-0.9-0.6
				c-0.9,1.4-2.3,3.1-4.4,4.1c-0.8,0.4-1.7,0.7-2.6,0.7c-0.5,0-0.7-0.1-0.7-0.2c0-0.2,0.4-0.3,1-0.7c1.5-0.9,4.5-3.1,5.5-4.5
				c-0.8-0.6-1.9-1.3-1.9-2.4c0-0.8,0.4-1.5,1-2.3c0.7-1,1.5-1.4,2.2-1.4C344.8,15.6,345.2,16.9,345.2,17.8z M342,18.6
				c0,0,0,0.1,0,0.1c0,0.2,0.8,0.8,1.4,1c0.2-0.3,0.2-0.6,0.2-1.2c0-0.5-0.2-0.8-0.6-0.8C342.7,17.9,342.2,18.2,342,18.6z"/>
			<path d="M331.3,39.2c1.7,0.8,4.5,1.2,8.2,1.2c5.1,0,9.2-0.7,11.9-1.5c3.7-1.1,5.3-1.7,7.3-3.1c0.1-0.1,0.3-0.3,0.5-0.3
				c0.1,0,0.3,0.2,0.3,0.8c0,2.2,1.2,3.5,2.6,3.5h0.6c1.1,0,1.7,0.7,1.7,2c0,1.4-0.5,2.1-1.6,2.1H362c-2.5,0-4.1-1.3-4.6-4
				c-1.9,1-4.3,2.2-6.6,2.9c-3.5,1-7.4,1.9-11.9,1.9c-3.7,0-6.8-0.5-8.8-1.3c-2.6-1-3.9-2.6-3.9-5.3c0-2.3,1-4.6,1.5-5.5
				c0.4-0.6,0.8-1.1,1.1-1.1c0.1,0,0.2,0.1,0.2,0.3c0,0.2-0.1,0.7-0.3,1.1c-0.4,0.9-0.7,1.9-0.7,2.8C328,36.4,328.7,37.9,331.3,39.2
				z M345.3,52.3c0.2,0.1,0.1,0.2,0,0.3c-0.4,0.6-1.9,2.2-2.5,3c-0.1,0.2-0.2,0.2-0.4,0c-0.8-0.5-2.6-1.9-3.1-2.6
				c-0.1-0.2-0.1-0.2,0-0.4c0.6-0.9,1.6-2.1,2.3-2.8c0.3-0.3,0.4-0.4,0.5-0.2C342.8,50.3,344.1,51.5,345.3,52.3z"/>
			<path d="M370.4,18.9c0.2-0.1,0.2-0.1,0.2,0.1c0,1-0.4,2-0.9,2.3l-7.4,4.1c-0.1,0.1-0.2,0-0.2-0.1c0-0.5,0.2-1.4,0.4-1.8
				c0.2-0.3,0.5-0.6,1.2-1L370.4,18.9z"/>
			<path d="M372.2,39.7h0.2c1,0,1.6,1,1.6,2.1c0,1-0.5,2-1.6,2h-0.2c-1.1,0-2.2-0.1-3.2-0.9c-1.4-1.1-1.9-3.1-2-3.4
				c-0.1,1.2-1.9,4.3-4.6,4.3h-0.2c-1.1,0-1.6-1-1.6-2c0-1,0.5-2.1,1.7-2.1h0.1c2.2,0,3.5-0.9,3.8-1.4c0,0,0.1-0.2,0.1-0.2
				c0-0.3-0.7-4.6-0.7-5c0-0.2,0-0.4,0.1-0.6c0.2-0.7,0.6-1.7,1-2.4c0.2-0.4,0.3-0.6,0.4-0.6c0.1,0,0.3,0.3,0.4,0.7
				c0.5,1.9,1,5.6,1.4,6.8C369.6,38.7,371.4,39.7,372.2,39.7z M370.8,50.5c0.2,0.1,0.1,0.2,0,0.3c-0.4,0.6-1.9,2.2-2.5,3
				c-0.1,0.2-0.2,0.2-0.4,0c-0.8-0.5-2.6-1.9-3.1-2.6c-0.1-0.2-0.1-0.2,0-0.4c0.6-0.9,1.6-2.1,2.3-2.8c0.3-0.3,0.4-0.4,0.5-0.2
				C368.3,48.5,369.5,49.7,370.8,50.5z"/>
			<path d="M390.1,20.2c0.2-0.1,0.2-0.1,0.2,0.1c0,1-0.4,2-0.9,2.3l-7.4,4.1c-0.1,0.1-0.2,0-0.2-0.1c0-0.5,0.2-1.4,0.4-1.8
				c0.2-0.3,0.5-0.6,1.2-1L390.1,20.2z"/>
			<path d="M376.7,42c-1.1,1-2.2,1.8-4.2,1.8h-0.5c-1.2,0-1.8-0.7-1.8-2.1c0-1.3,0.6-2,1.9-2h0.4c1.6,0,2.8-0.3,3.8-0.8
				c1.3-0.7,2.1-1.8,3.1-3.3c0.1-0.2,0.4-0.4,0.6-0.4c0.3,0,0.4,0.4,0.5,1.3c0.2,1.5,0.8,2.7,2.7,2.7c2,0,3.9-1.7,4.7-3.6
				c0.4-1.1,0.8-1.6,1.1-1.6c0.2,0,0.3,0.1,0.3,0.5c0,0.4-0.1,0.8-0.1,1.3c0,2.2,2,3.2,3.3,3.2c0.4,0,1.2-0.1,1.2-0.8
				c0-0.5-0.3-1-0.8-1.8c0-0.1-0.1-0.1-0.1-0.2c0-0.5,1.3-2.5,1.8-3.2c0.1-0.1,0.2-0.3,0.4-0.3c0.1,0,0.2,0.1,0.4,0.4
				c0.4,0.7,0.5,1.6,0.5,2.8c0,2.2-1.5,6.9-4.7,6.9c-1.9,0-3.3-1-3.8-2.9c-1.4,2.5-3.3,3.4-4.7,3.4c-1.9,0-3.2-1.1-3.6-3.9
				C378.2,40.4,377.6,41.2,376.7,42z"/>
		</g>
		<g>
			<g>
				<path class="st1" d="M44,36.8c-0.7,0-1.2-0.3-1.5-0.8c-0.4-0.5-0.6-1.3-0.6-2c0-0.7,0.1-1.2,0.3-1.9c0.3-0.7,0.7-1.3,1.2-1.3
					c0.2,0,0.2,0.2,0.2,0.5c-0.1,0.4-0.1,0.7-0.1,1.1c0,0.8,0.6,1.2,1.3,1.2c0.7,0,1.2-0.7,1.6-1.5c0.5-1.3,1.1-1.8,1.6-1.8
					c0.2,0,0.3,0.1,0.3,0.5c0,0.2,0,0.3,0,0.6c0,0.5,0.2,0.9,1,0.9c0.6,0,1.1-0.4,1.6-1.3c0.5-0.9,0.6-1.3,1-1.3
					c0.3,0,0.3,0.5,0.3,0.9c0,1-0.3,2-0.8,2.9c-0.5,0.8-1.2,1.7-2.5,1.7c-0.7,0-1.1-0.2-1.4-0.5c-0.2-0.2-0.3,0-0.6,0.3
					C45.8,36.2,44.9,36.8,44,36.8z"/>
				<path class="st1" d="M52.9,68.1c0.2-0.1,0.2-0.1,0.2,0.1c0,1-0.4,2-0.9,2.3l-7.4,4.1c-0.1,0.1-0.2,0-0.2-0.1
					c0-0.5,0.2-1.4,0.4-1.8c0.2-0.3,0.5-0.6,1.2-1L52.9,68.1z"/>
				<path class="st1" d="M50.4,60.5c0.3-0.3,0.4-0.4,0.6-0.2c0.9,0.9,1.8,1.9,2.8,2.5c0.3,0.2,0.3,0.3,0,0.6
					c-0.8,0.9-1.6,1.8-2.4,2.7c-0.2,0.2-0.3,0.2-0.5,0c-0.7-0.5-1.7-1.3-2.6-2.2c-0.5,0.6-1.6,1.8-2,2.1c-0.2,0.1-0.3,0.3-0.7,0.1
					c-0.9-0.6-2.1-1.5-2.8-2.5c-0.2-0.2-0.2-0.3,0-0.6c0.7-0.8,1.6-1.9,2.5-2.7c0.2-0.2,0.3-0.2,0.6,0.1c0.7,0.7,1.9,1.8,2.6,2.2
					C48.9,62.1,49.9,60.9,50.4,60.5z"/>
				<path class="st1" d="M67.8,51.4c0.2-0.1,0.2-0.1,0.2,0.1c0,1-0.4,2-0.9,2.3L59.8,58c-0.1,0.1-0.2,0-0.2-0.1
					c0-0.5,0.2-1.4,0.4-1.8c0.2-0.3,0.5-0.6,1.2-1L67.8,51.4z"/>
				<path class="st1" d="M64.9,17.9c0.3-0.3,0.4-0.4,0.6-0.2c0.9,0.9,1.8,1.9,2.8,2.5c0.3,0.2,0.3,0.3,0,0.6
					c-0.8,0.9-1.6,1.8-2.4,2.7c-0.2,0.2-0.3,0.2-0.5,0c-0.7-0.5-1.7-1.3-2.6-2.2c-0.5,0.6-1.6,1.8-2,2.1c-0.2,0.1-0.3,0.3-0.7,0.1
					C59.2,23,58,22,57.3,21.1c-0.2-0.2-0.2-0.3,0-0.6c0.7-0.8,1.6-1.9,2.5-2.7c0.2-0.2,0.3-0.2,0.6,0.1c0.7,0.7,1.9,1.8,2.6,2.2
					C63.5,19.5,64.4,18.3,64.9,17.9z"/>
				<path class="st1" d="M38.9,40c0.6-1.1,1-1.4,1.3-1.4c0.5,0-0.2,1.6-0.3,1.7c-0.6,1.3-1.7,3.7-1.7,5.9c0,4.8,4.3,6.8,8.8,6.9
					c4.7,0,12.5-3.7,13.4-5.1c-1.2-1-4.9-2.2-8.1-2.2c-0.6,0-0.8-0.2-0.8-0.7c0-0.5,0.3-1.6,0.5-2.2c0.2-0.7,0.5-1.3,0.9-1.8
					c0.6-0.9,2.1-2,4.6-3.4h0c-0.2-0.5-0.3-1-0.3-1.6c0-3.8,4.5-9.1,7.1-9.1c1.5,0,2.3,1.7,2.3,3.8c0,2.2-0.8,5-2.7,6.7
					c0.8,0.4,2,0.7,3.6,0.7h0.7c1,0,1.5,0.7,1.5,2c0,1.4-0.5,2.1-1.6,2.1h-0.6c-3.7,0-6-0.8-7.6-1.7c-2.9,0.9-4.5,1.6-4.8,2.1
					c3.3,0.5,4.8,1.1,5.6,1.6c1.3,0.8,1.6,1.7,1.6,2.4c0,5.5-10.3,10.4-16.6,10.5c-4.2,0-9.4-1.7-9.4-8.6
					C36.4,45.1,37.8,41.9,38.9,40z M62.6,31.2c-1.3,0-2.9,1.3-2.9,2.2c0,0.9,0.7,1.7,2.2,2.5c0.5-0.2,2.6-1.7,2.6-2.4
					C64.4,32.1,63.9,31.2,62.6,31.2z"/>
				<path class="st1" d="M71.9,3.7c1.2,0,3,1.7,3,3.7c0,0.7-0.1,1.4-0.3,2.1c-0.5,1.4-1.7,2.2-3.2,2.2c-1.4,0-2.4-1.1-2.4-2.4
					C68.9,7.6,71,3.7,71.9,3.7z M71.5,6.5c-0.5,0-1.3,1.1-1.3,1.7c0,0.5,0.7,1,1.4,1c0.9,0,2-0.5,2-0.9C73.6,8,72.5,6.5,71.5,6.5z"
					/>
				<path class="st1" d="M67.7,38.3h0.4c1,0,1.8-0.3,2.3-0.8c0.8-0.8,0.9-1.9,0.9-3.2c0-2.6-0.2-8.1-0.6-16.4c0-0.9,0.3-1.9,1-3.1
					c0.3-0.6,0.6-1.1,0.9-1.1c0.2,0,0.4,0.3,0.5,1.3c0.4,6.2,0.6,14.4,1.3,20.1c0.1,1.1,0.6,2,1.4,2.6c0.5,0.4,1.1,0.6,1.7,0.6h0.5
					c1.1,0,1.7,0.7,1.7,2c0,1.4-0.6,2.1-1.7,2.1h-0.5c-2.5,0-4.4-1.8-5-4.2c-0.6,2.8-2,4.2-4.3,4.2h-0.4c-1.2,0-1.8-0.7-1.8-2.1
					C65.9,38.9,66.5,38.3,67.7,38.3z"/>
				<path class="st1" d="M84.3,20.7c0.2-0.1,0.2-0.1,0.2,0.1c0,1-0.4,2-0.9,2.3l-7.4,4.1c-0.1,0.1-0.2,0-0.2-0.1
					c0-0.5,0.2-1.4,0.4-1.8c0.2-0.3,0.5-0.6,1.2-1L84.3,20.7z"/>
				<path class="st1" d="M88.1,2.9c1.2,0,3,1.7,3,3.7c0,0.7-0.1,1.4-0.3,2.1C90.2,10.2,89,11,87.5,11c-1.4,0-2.4-1.1-2.4-2.4
					C85.1,6.8,87.2,2.9,88.1,2.9z M87.7,5.8c-0.5,0-1.3,1.1-1.3,1.7c0,0.5,0.7,1,1.4,1c0.9,0,2-0.5,2-0.9
					C89.8,7.3,88.7,5.8,87.7,5.8z"/>
				<path class="st1" d="M89.6,25.5c-0.1,1-0.2,1.9-0.4,2.6c-0.2,0.7-0.4,1.3-0.6,1.9c-0.2,0.5-0.8,1.1-1.6,1.8
					c1.6,0.4,3.2,0.9,4.9,1.5c1.9,0.6,3.5,1,4.7,1.3c1.1,0.3,2.5,0.4,4.2,0.6l3,0.1c0.3,0,0.4,0.1,0.3,0.3c-0.5,0.7-1.3,1.6-2.3,2.8
					c-0.2,0.3-0.3,0.3-0.7,0.3c-0.4-0.1-2.3-0.3-5.1-0.4c-1.3,0-2.7,0.2-4.2,0.6c-1.3,0.4-3,0.9-5,1.6c-2.1,0.7-3.7,1.2-4.8,1.5
					c-1.1,0.3-2.6,0.5-4.4,0.5h-0.4c-1.2,0-1.8-0.7-1.8-2.1c0-1.3,0.6-2,1.8-2h0.5c4.4,0,8.3-0.6,11.9-1.9c-0.3-0.3-1.7-0.8-4.1-1.4
					c-2.4-0.7-4.2-1-5.5-1c-0.3,0-0.4-0.1-0.4-0.2c0-0.5,0.8-1.4,2.4-2.9c0.2-0.2,0.3-0.3,0.6-0.3c0.3-0.1,0.9-0.3,1.6-0.5
					c0.5-0.1,1.3-0.4,2.3-0.8c1-0.4,1.5-0.9,1.5-1.5l-1.2-7.5c-0.1-0.7-0.6-2.3-0.7-3.1c0-0.1-0.1-0.3-0.1-0.5c0-0.1,0-0.2,0-0.3
					c0.1-0.2,0.2-0.7,0.7-1.6c0.4-0.8,1.1-1.9,1.4-1.9c0.1,0,0.2,0.1,0.3,0.4c0.5,1.7,1,2.6,1.5,3.2c0.1,0.1,0.1,0.3,0.1,0.4
					c0,0.1,0,0.2-0.1,0.4c-0.1,0.4-0.6,1.3-0.9,1.8C89.4,21.3,89.7,23.7,89.6,25.5z"/>
				<path class="st1" d="M124.3,54c0.2-0.1,0.2-0.1,0.2,0.1c0,1-0.4,2-0.9,2.3l-7.4,4.1c-0.1,0.1-0.2,0-0.2-0.1
					c0-0.5,0.2-1.4,0.4-1.8c0.2-0.3,0.5-0.6,1.2-1L124.3,54z"/>
				<path class="st1" d="M123,49.8c0.2,0.1,0.1,0.2,0,0.3c-0.4,0.6-1.9,2.2-2.5,3c-0.1,0.2-0.2,0.2-0.4,0c-0.8-0.5-2.6-1.9-3.1-2.6
					c-0.1-0.2-0.1-0.2,0-0.4c0.6-0.9,1.6-2.1,2.3-2.8c0.3-0.3,0.4-0.4,0.5-0.2C120.5,47.9,121.8,49,123,49.8z"/>
				<path class="st1" d="M108.7,29.3c-0.1-3.6-0.4-9.4-1-12.4c0-0.1,0-0.2,0-0.2c0-0.6,0.7-1.5,1.3-2.5c0.3-0.5,0.5-1,0.7-1
					c0.2,0,0.4,0.3,0.5,1.2c0.8,6.3,0.3,15,1.2,20.2c0.4,1.7,0.7,2.6,1.7,3.2c0.8,0.4,2.2,0.5,3.3,0.5c1.1,0,3.1-0.1,4.1-1.1
					c-0.1-1.6-1.3-3.5-1.9-4.3c0,0-0.1-0.1-0.1-0.2c0-0.4,0.9-2.5,1.3-3.3c0.1-0.1,0.1-0.2,0.2-0.2c0.2,0,0.5,0.3,0.8,0.8
					c0.9,1.5,1.3,3.4,1.3,5.5c0,1.7-0.2,3.5-1.5,4.9c-1.4,1.5-3.3,2.1-5.5,2.1c-1.4,0-3-0.3-4-1.4C109.5,39.3,109.1,37.3,108.7,29.3
					z"/>
				<path class="st1" d="M147.9,55.1c0.2-0.1,0.2-0.1,0.2,0.1c0,1-0.4,2-0.9,2.3l-7.4,4.1c-0.1,0.1-0.2,0-0.2-0.1
					c0-0.5,0.2-1.4,0.4-1.8c0.2-0.3,0.5-0.6,1.2-1L147.9,55.1z"/>
				<path class="st1" d="M148.7,41c0,6.1-2.8,10.7-7.4,12.6c-0.3,0.1-0.7,0.2-1.1,0.2c-1.6,0-5.1-0.9-7.3-2
					c-0.6-0.3-0.6-0.5-0.6-0.7c0-0.2,0.3-0.3,0.5-0.3c0.5,0,1.9,0.3,3.3,0.3c1.2,0,2.2-0.3,3.9-1c2-0.9,5.8-4.1,6.8-6.7
					c0.1-0.4,0.2-1,0.2-1.3c0-0.2-0.1-1.8-1.8-4.2c-0.6-0.9-0.9-1.4-1.4-2.2c-0.1-0.1-0.1-0.2-0.1-0.4c0-0.5,0.7-2.4,1.1-3
					c0.1-0.2,0.2-0.3,0.4-0.3c0.8,0,2.5,3.1,3.2,5.6C148.7,38.6,148.7,39.7,148.7,41z"/>
				<path class="st1" d="M159.3,42.4c-1.2,0-2.2-0.2-3-0.9c-1.3-1-2-3-2.3-5.5c-0.3-1.9-0.4-4.2-0.5-6.6c-0.1-3.6-0.4-9.1-0.9-12.3
					c0-0.1,0-0.3,0-0.4c0-0.2,0-0.3,0.3-0.7c0.6-0.8,0.9-1.4,1.3-2.1c0.3-0.5,0.4-0.6,0.5-0.6c0.2,0,0.3,0.3,0.5,1.2
					c0.8,6.3,0.1,15,1.1,19.8c0.2,1.2,0.4,1.6,0.7,2.4c0.5,1.1,1.3,1.6,2.6,1.7c1.4,0,2.1,0.7,2.1,2c0,1.6-0.8,2.1-1.9,2.1H159.3z"
					/>
				<path class="st1" d="M186.4,5.4c1.2,0,3,1.7,3,3.7c0,0.7-0.1,1.4-0.3,2.1c-0.5,1.4-1.7,2.2-3.2,2.2c-1.4,0-2.4-1.1-2.4-2.4
					C183.4,9.3,185.5,5.4,186.4,5.4z M186,8.3c-0.5,0-1.3,1.1-1.3,1.7c0,0.5,0.7,1,1.4,1c0.9,0,2-0.5,2-0.9
					C188.1,9.8,187,8.3,186,8.3z"/>
				<path class="st1" d="M189.8,18c0.2,0.1,0.1,0.2,0,0.3c-0.4,0.6-1.9,2.2-2.5,3c-0.1,0.2-0.2,0.2-0.4,0c-0.8-0.5-2.6-1.9-3.1-2.6
					c-0.1-0.2-0.1-0.2,0-0.4c0.6-0.9,1.6-2.1,2.3-2.8c0.3-0.3,0.4-0.4,0.5-0.2C187.3,16.1,188.6,17.2,189.8,18z"/>
				<path class="st1" d="M179.2,28.8c0,1.4-0.1,2.6-0.4,3.6c1.9-1.5,3.5-2.7,4.9-3.5c1.5-0.8,2.7-1.2,3.7-1.2c1.4,0,3.5,0.5,4.6,1.6
					c0.5,0.4,0.7,1,0.7,1.9c0,2-0.9,3.8-2.1,5.4c-0.9,1.2-3.7,2.1-7,2.8c-1.1,0.2-2.2,0.4-7.2,1c-2.4,0.2-3.6,0.3-5,0.9
					c-1.1,0.5-1.8,1.2-2.2,2c-0.2,0.6-0.3,1-0.3,1.6c0,0.4,0,0.7,0.1,1.1c0.2,1,0.4,1.6,0.5,2.1c0.1,0.4,0.2,0.9,0.3,1.3v0.1
					c0,0.9-0.7,2.6-1.1,3.4c0,0.1-0.2,0.2-0.3,0.2c-0.7,0-1.5-0.6-2-1.2c-1.5-1.5-2.2-3.8-2.2-7c0-1.1,0.1-2.1,0.2-3.3
					c0.1-0.6,0.2-1.1,0.3-1.8c-1.2,1.5-2.8,2.5-5.1,2.5h-0.5c-1.1,0-1.7-0.7-1.7-2.1c0-1.3,0.6-2,1.7-2h0.5c1,0,2-0.2,2.8-0.5
					c1.9-0.8,3-1.8,4.3-3.6c0.2-0.3,0.5-0.9,1-0.9c0.2,0,0.4,0.2,0.4,0.5c0,0.5-0.3,1.3-0.7,2.4c-0.6,1.6-1.3,3.8-1.3,6
					c0,1.4,0.4,2.7,1.1,4.1c0-0.7,0-1.3,0-2.1c0.1-1.6,0.6-2.7,1.8-3.9c1.2-1.3,2.8-2.4,4.8-3c1.3-1.4,2.3-2.5,3.4-3.6
					c0-0.5,0-1.1,0-1.6c0-5.5-0.8-9.1-1.3-12.7c0-0.7-0.6-2.3-0.7-3.1c0-0.1-0.1-0.3-0.1-0.5c0-0.1,0-0.2,0-0.3
					c0.1-0.2,0.2-0.7,0.7-1.5c0.4-0.9,1-1.9,1.3-1.9c0.1,0,0.2,0.1,0.3,0.4c0.5,1.7,1,2.6,1.4,3.2c0.1,0.1,0.1,0.3,0.1,0.4
					c0,0.1,0,0.2-0.1,0.4c-0.1,0.4-0.7,1.5-1.1,1.9C178.7,22.3,179.2,25.8,179.2,28.8z M185.7,31.4c-3.4,0-6.6,2.6-9.8,5.6
					c6.1-0.4,12-1.5,14.4-3.2C189.4,32.5,187.5,31.4,185.7,31.4z"/>
				<path class="st1" d="M205.9,55.9c0.2-0.1,0.2-0.1,0.2,0.1c0,1-0.4,2-0.9,2.3l-7.4,4.1c-0.1,0.1-0.2,0-0.2-0.1
					c0-0.5,0.2-1.4,0.4-1.8c0.2-0.3,0.5-0.6,1.2-1L205.9,55.9z"/>
				<path class="st1" d="M204.3,52.2c-1.5,0.8-4.7,2.7-7.2,4.5c-0.1,0-0.1,0.1-0.2,0.1s-0.1,0-0.1-0.1c0-0.2,0.1-0.6,0.4-1.2
					c0.1-0.3,0.9-1.1,1.5-1.6c0.1-0.1,0.2-0.1,0.2-0.2c0,0-0.1-0.1-0.2-0.2c-1.1-0.4-1.5-0.7-1.7-1.7c0-0.1,0-0.2,0-0.3
					c0-1.7,1.7-4,3.3-5.2c0.6-0.5,1.2-0.7,1.8-0.7c1,0,1.4,0.5,1.4,1.3c0,0.5-0.1,1-0.4,1.7c-0.2,0.4-0.3,0.7-0.5,0.7
					c-0.1,0-0.3-0.1-0.5-0.3c-0.2-0.2-0.5-0.5-1-0.5c-1.4,0-2.3,0.8-2.3,1.2c0,0.6,2.3,1.5,3.2,1.5c0.1,0,0.2,0,0.2,0
					c0.4-0.1,2-0.7,2.6-1.1c0.3-0.2,0.5-0.3,0.6-0.3c0.1,0,0.1,0,0.1,0.2c0,0.1-0.1,0.4-0.2,0.8C204.9,51.8,204.6,52,204.3,52.2z"/>
				<path class="st1" d="M213.2,16.6c0.1,0.3,0.2,0.4,0.2,0.5c0,0.1,0,0.2-0.1,0.4c-0.3,0.8-1,1.7-1.5,2.4
					c-0.3,4.3-0.9,7.7-2.8,12.6c0.6,1.4,0.9,3.4,0.9,5.2c0,1.2-0.2,2.4-0.5,3.3c-0.3,0.7-4.8,1.5-7.8,1.5c-0.8,0-1.5,0-2-0.2
					c-0.2,0-0.3-0.5-0.3-1.2c0-1.1,0.2-2.7,0.5-3.2c0-0.1,0.1-0.1,0.2-0.1c0.2,0,0.2,0,0.4,0c2.5,0,5-2.3,6.6-5.2
					c-2-4-6.3-9.3-10-11.8c-0.1,0.1-0.8,1-1.3,1c-0.6,0-3.9-3.2-4-3.9c-0.1-0.4-0.1-0.8-0.1-1.1c0-1,0.2-2,0.4-2.5
					c0.2-0.5,0.5-0.7,0.8-0.7c0.4,0,0.9,0.3,1.4,0.7c2.8,2,5.8,4.2,8.1,7.2c1.8,2.3,4.1,5.4,5.8,9.2c1.1-2.3,1.3-3.9,1.5-6.9
					c0.1-1.7,0.2-3,0.2-3.9c0-2.1-0.2-2.8-0.2-3.3c0-0.3,0.1-0.7,0.4-1.3c0.7-1.2,1.2-2.1,1.5-2.1c0.1,0,0.2,0.1,0.3,0.4
					C212.2,14.4,212.6,15.5,213.2,16.6z M207.7,34.3c-1.4,2-1.6,2.4-3,3.7c1.3,0,2.7-0.1,3.8-0.6C208.4,36.7,208.4,35.6,207.7,34.3z
					"/>
				<path class="st1" d="M220.2,42.4c-0.2,0-0.3-0.3-0.3-1.2c0-5.4-2-20.3-2-22.7c0-1.2,0.8-3.1,1.5-4.4c0.2-0.4,0.6-0.9,0.8-0.9
					c0.2,0,0.3,0.3,0.3,1.4c0.2,3.9,1.3,13,1.3,19.6c0,2.6-0.2,4.9-0.6,6.2C220.9,41.7,220.6,42.4,220.2,42.4z"/>
				<path class="st1" d="M244.6,2.2c0,0.9-0.2,1.8-0.5,2.6c0.4,0.2,0.6,0.5,0.6,0.7c0,0.7-0.3,1.3-0.6,1.8c-0.1,0.1-0.1,0.1-0.2,0.1
					L243,6.8c-0.9,1.4-2.3,3.1-4.4,4.1c-0.8,0.4-1.7,0.7-2.6,0.7c-0.5,0-0.7-0.1-0.7-0.2c0-0.2,0.4-0.3,1-0.7
					c1.5-0.9,4.5-3.1,5.5-4.5c-0.8-0.6-1.9-1.3-1.9-2.4c0-0.8,0.4-1.5,1-2.3c0.7-1,1.5-1.4,2.2-1.4C244.2,0,244.5,1.2,244.6,2.2z
					 M241.3,3c0,0,0,0.1,0,0.1c0,0.2,0.8,0.8,1.4,1c0.2-0.3,0.2-0.6,0.2-1.2c0-0.5-0.2-0.8-0.6-0.8C242,2.2,241.6,2.5,241.3,3z"/>
				<path class="st1" d="M243.7,15.3c0.3-0.3,0.4-0.4,0.6-0.2c0.9,0.9,1.8,1.9,2.8,2.5c0.3,0.2,0.3,0.3,0,0.6
					c-0.8,0.9-1.6,1.8-2.4,2.7c-0.2,0.2-0.3,0.2-0.5,0c-0.7-0.5-1.7-1.3-2.6-2.2c-0.5,0.6-1.6,1.8-2,2.1c-0.2,0.1-0.3,0.3-0.7,0.1
					c-0.9-0.6-2.1-1.5-2.8-2.5c-0.2-0.2-0.2-0.3,0-0.6c0.7-0.8,1.6-1.9,2.5-2.7c0.2-0.2,0.3-0.2,0.6,0.1c0.7,0.7,1.9,1.8,2.6,2.2
					C242.3,16.8,243.2,15.7,243.7,15.3z M249,37.5c0.9,0.6,1.6,0.8,2.1,0.8h0.6c1.2,0,1.9,0.6,1.9,1.9c0,1.5-0.7,2.2-2,2.2h-0.6
					c-1.4,0-2.7-0.5-4-1.6c-1.3-1.1-2.1-2.9-2.4-5.4c-0.4,0.6-0.7,1.3-1.5,1.8c-1.1,0.8-2.9,1.1-4.7,1.1c-1.3,0-2.5-0.2-2.5-1.2
					c0.6-4,1.1-4.6,3-6.2c0.8-0.7,3.2-2.1,4.2-2.8c0-0.4-0.1-0.7-0.1-1c0-0.9,0.2-1.4,0.7-2.2c0.3-0.5,0.5-0.9,0.7-0.9
					c0.2,0,0.3,0.3,0.4,1c0.6,3.7,0.9,6.7,1.4,8.5C246.7,35.2,247.6,36.5,249,37.5z M243.6,30.2c-1.7,1.1-4.5,2.8-4.6,3.3
					c0,0.3,0.5,0.4,1.3,0.4c1.1,0,2.7-0.3,3.9-0.9C244,32,243.9,31.5,243.6,30.2z"/>
				<path class="st1" d="M261.5,21.8c0.2-0.1,0.2-0.1,0.2,0.1c0,1-0.4,2-0.9,2.3l-7.4,4.1c-0.1,0.1-0.2,0-0.2-0.1
					c0-0.5,0.2-1.4,0.4-1.8c0.2-0.3,0.5-0.6,1.2-1L261.5,21.8z"/>
				<path class="st1" d="M259.7,35.8c0,1,1.1,2.2,2.4,2.4c0.3,0,0.6,0,0.9,0h0.2c1.5,0,1.5,1.2,1.5,1.8c0,0.5,0,2.2-1.5,2.2h-0.3
					c-0.3,0-0.5,0-1,0c-2.7-0.3-3.7-2.7-3.9-3c-0.4,1.1-2.6,3-6.6,3h-0.2c-1.1,0-1.7-1-1.7-2c0-1,0.6-2.1,1.7-2.1h1.2
					c1.8,0,4.3-0.3,5.8-2.9c0.5-0.8,0.7-0.9,0.9-0.9C259.5,34.5,259.7,34.9,259.7,35.8z M259.4,47.8c0.3-0.3,0.4-0.4,0.6-0.2
					c0.9,0.9,1.8,1.9,2.8,2.5c0.3,0.2,0.3,0.3,0,0.6c-0.8,0.9-1.6,1.8-2.4,2.7c-0.2,0.2-0.3,0.2-0.5,0c-0.7-0.5-1.7-1.3-2.6-2.2
					c-0.5,0.6-1.6,1.8-2,2.1c-0.2,0.1-0.3,0.3-0.7,0.1c-0.9-0.6-2.1-1.5-2.8-2.5c-0.2-0.2-0.2-0.3,0-0.6c0.7-0.8,1.6-1.9,2.5-2.7
					c0.2-0.2,0.3-0.2,0.6,0.1c0.7,0.7,1.9,1.8,2.6,2.2C258,49.4,259,48.2,259.4,47.8z"/>
				<path class="st1" d="M277,47.8c0.2-0.1,0.2-0.1,0.2,0.1c0,1-0.4,2-0.9,2.3l-7.4,4.1c-0.1,0.1-0.2,0-0.2-0.1
					c0-0.5,0.2-1.4,0.4-1.8c0.2-0.3,0.5-0.6,1.2-1L277,47.8z"/>
				<path class="st1" d="M263.5,42.4h-0.3c-1.1,0-1.7-0.7-1.7-2c0-1.4,0.6-2.1,1.7-2.1h0.3c2.9,0,4.8-1.4,6.2-2.8
					c1.4-1.4,2.4-2.9,3.4-2.9c0.3,0,0.7,0.1,1,0.5c1.7,1.7,5.1,5.2,6.8,5.2h0.2c1.2,0,1.9,0.6,1.9,1.9c0,1.4-0.6,2.2-1.9,2.2h-0.2
					c-1.6,0-3.2-1.1-3.5-1.4c-0.3,1.2-1.7,2.7-2.4,2.7c-0.6,0-5.9-1.6-7.5-3.9C267.1,41.4,265.1,42.4,263.5,42.4z M273.8,37.1
					c-0.6-0.6-1.3-1.1-1.9-1.1c-0.4,0-0.5,0.1-1,0.5c-0.3,0.3-0.5,0.5-0.5,0.7c0,0.3,0.5,0.6,2.1,1.3c0.7,0.3,2.3,1,2.7,1
					c0.2,0,0.2-0.1,0.2-0.2C275.5,39.1,274.4,37.7,273.8,37.1z"/>
				<path class="st1" d="M294.7,19.3c1.2,0,3,1.7,3,3.7c0,0.7-0.1,1.4-0.3,2.1c-0.5,1.4-1.7,2.2-3.2,2.2c-1.4,0-2.4-1.1-2.4-2.4
					C291.7,23.2,293.8,19.3,294.7,19.3z M294.3,22.1c-0.5,0-1.3,1.1-1.3,1.7c0,0.5,0.7,1,1.4,1c0.9,0,2-0.5,2-0.9
					C296.4,23.7,295.3,22.1,294.3,22.1z"/>
				<path class="st1" d="M296.8,34.2c0.2,0,0.3,0.2,0.3,0.9c0,0.2,0,0.5,0,0.8c0,1.3,1,2,2.1,2c1.8,0,2.7-1.7,3.5-3.2
					c0.1-0.2,0.3-0.6,0.6-0.6c0.2,0,0.3,0.2,0.4,1.1c0.1,1.9,1.2,3,2.8,3.1h0.5c1.3,0,1.9,0.6,1.9,1.8c0,1.5-0.6,2.2-1.9,2.2h-0.5
					c-2.3,0-3.5-1.1-3.9-3.5c-0.6,1.7-2.1,3.5-4,3.5c-1.9,0-2.9-1.6-3.1-3.5c-0.7,2-2.8,3.4-4.8,3.4c-2.2,0-3.5-0.8-4.1-2.8
					c-0.3,0.8-0.8,1.4-1.5,2c-0.7,0.6-1.9,0.9-3.8,0.9H281c-1.2,0-1.9-0.7-1.9-2.1c0-1.3,0.6-2,1.8-2h0.5c2.8,0,4.7-1,5.7-3.1
					c0.1-0.2,0.3-0.6,0.6-0.6c0.3,0,0.4,0.3,0.4,1c0.1,1.6,1.4,2.4,3.2,2.4c2.2,0,3.8-1,4.9-3.1C296.3,34.6,296.6,34.2,296.8,34.2z"
					/>
				<path class="st1" d="M312,7.5c0.2-0.1,0.2-0.1,0.2,0.1c0,1-0.4,2-0.9,2.3L304,14c-0.1,0.1-0.2,0-0.2-0.1c0-0.5,0.2-1.4,0.4-1.8
					c0.2-0.3,0.5-0.6,1.2-1L312,7.5z"/>
				<path class="st1" d="M310.1,16.1c0.3-0.3,0.4-0.4,0.6-0.2c0.9,0.9,1.8,1.9,2.8,2.5c0.3,0.2,0.3,0.3,0,0.6
					c-0.8,0.9-1.6,1.8-2.4,2.7c-0.2,0.2-0.3,0.2-0.5,0c-0.7-0.5-1.7-1.3-2.6-2.2c-0.5,0.6-1.6,1.8-2,2.1c-0.2,0.1-0.3,0.3-0.7,0.1
					c-0.9-0.6-2.1-1.5-2.8-2.5c-0.2-0.2-0.2-0.3,0-0.6c0.7-0.8,1.6-1.9,2.5-2.7c0.2-0.2,0.3-0.2,0.6,0.1c0.7,0.7,1.9,1.8,2.6,2.2
					C308.7,17.7,309.7,16.5,310.1,16.1z M311.3,39.1c-0.7,1.6-1.5,3.3-4.7,3.3c-1.5,0-2.2-0.9-2.2-2.1c0-1,0.6-2,2.2-2h0
					c0.9,0,3.3-1.4,3.3-2.9v-0.1c-0.2-3.1-1.3-4.2-2.8-6.8c-0.1-0.1-0.1-0.3-0.1-0.5c0-0.5,0.4-2.1,1-3.2c0.2-0.3,0.3-0.4,0.5-0.4
					c0.1,0,0.2,0,0.3,0.1c2.4,2.3,3.2,6.9,3.2,10.1C312,36.1,311.7,38.1,311.3,39.1z"/>
				<path class="st1" d="M343.7,16.4c0,0.9-0.2,1.8-0.5,2.6c0.4,0.2,0.6,0.5,0.6,0.7c0,0.7-0.3,1.3-0.6,1.8
					c-0.1,0.1-0.1,0.1-0.2,0.1l-0.9-0.6c-0.9,1.4-2.3,3.1-4.4,4.1c-0.8,0.4-1.7,0.7-2.6,0.7c-0.5,0-0.7-0.1-0.7-0.2
					c0-0.2,0.4-0.3,1-0.7c1.5-0.9,4.5-3.1,5.5-4.5c-0.8-0.6-1.9-1.3-1.9-2.4c0-0.8,0.4-1.5,1-2.3c0.7-1,1.5-1.4,2.2-1.4
					C343.4,14.2,343.7,15.4,343.7,16.4z M340.5,17.2c0,0,0,0.1,0,0.1c0,0.2,0.8,0.8,1.4,1c0.2-0.3,0.2-0.6,0.2-1.2
					c0-0.5-0.2-0.8-0.6-0.8C341.2,16.4,340.8,16.7,340.5,17.2z"/>
				<path class="st1" d="M329.8,37.7c1.7,0.8,4.5,1.2,8.2,1.2c5.1,0,9.2-0.7,11.9-1.5c3.7-1.1,5.3-1.7,7.3-3.1
					c0.1-0.1,0.3-0.3,0.5-0.3c0.1,0,0.3,0.2,0.3,0.8c0,2.2,1.2,3.5,2.6,3.5h0.6c1.1,0,1.7,0.7,1.7,2c0,1.4-0.5,2.1-1.6,2.1h-0.7
					c-2.5,0-4.1-1.3-4.6-4c-1.9,1-4.3,2.2-6.6,2.9c-3.5,1-7.4,1.9-11.9,1.9c-3.7,0-6.8-0.5-8.8-1.3c-2.6-1-3.9-2.6-3.9-5.3
					c0-2.3,1-4.6,1.5-5.5c0.4-0.6,0.8-1.1,1.1-1.1c0.1,0,0.2,0.1,0.2,0.3c0,0.2-0.1,0.7-0.3,1.1c-0.4,0.9-0.7,1.9-0.7,2.8
					C326.6,35,327.3,36.5,329.8,37.7z M343.9,50.8c0.2,0.1,0.1,0.2,0,0.3c-0.4,0.6-1.9,2.2-2.5,3c-0.1,0.2-0.2,0.2-0.4,0
					c-0.8-0.5-2.6-1.9-3.1-2.6c-0.1-0.2-0.1-0.2,0-0.4c0.6-0.9,1.6-2.1,2.3-2.8c0.3-0.3,0.4-0.4,0.5-0.2
					C341.3,48.9,342.6,50,343.9,50.8z"/>
				<path class="st1" d="M369,17.5c0.2-0.1,0.2-0.1,0.2,0.1c0,1-0.4,2-0.9,2.3l-7.4,4.1c-0.1,0.1-0.2,0-0.2-0.1
					c0-0.5,0.2-1.4,0.4-1.8c0.2-0.3,0.5-0.6,1.2-1L369,17.5z"/>
				<path class="st1" d="M370.7,38.3h0.2c1,0,1.6,1,1.6,2.1c0,1-0.5,2-1.6,2h-0.2c-1.1,0-2.2-0.1-3.2-0.9c-1.4-1.1-1.9-3.1-2-3.4
					c-0.1,1.2-1.9,4.3-4.6,4.3h-0.2c-1.1,0-1.6-1-1.6-2c0-1,0.5-2.1,1.7-2.1h0.1c2.2,0,3.5-0.9,3.8-1.4c0,0,0.1-0.2,0.1-0.2
					c0-0.3-0.7-4.6-0.7-5c0-0.2,0-0.4,0.1-0.6c0.2-0.7,0.6-1.7,1-2.4c0.2-0.4,0.3-0.6,0.4-0.6c0.1,0,0.3,0.3,0.4,0.7
					c0.5,1.9,1,5.6,1.4,6.8C368.2,37.2,369.9,38.3,370.7,38.3z M369.3,49c0.2,0.1,0.1,0.2,0,0.3c-0.4,0.6-1.9,2.2-2.5,3
					c-0.1,0.2-0.2,0.2-0.4,0c-0.8-0.5-2.6-1.9-3.1-2.6c-0.1-0.2-0.1-0.2,0-0.4c0.6-0.9,1.6-2.1,2.3-2.8c0.3-0.3,0.4-0.4,0.5-0.2
					C366.8,47.1,368.1,48.2,369.3,49z"/>
				<path class="st1" d="M388.7,18.7c0.2-0.1,0.2-0.1,0.2,0.1c0,1-0.4,2-0.9,2.3l-7.4,4.1c-0.1,0.1-0.2,0-0.2-0.1
					c0-0.5,0.2-1.4,0.4-1.8c0.2-0.3,0.5-0.6,1.2-1L388.7,18.7z"/>
				<path class="st1" d="M375.3,40.6c-1.1,1-2.2,1.8-4.2,1.8h-0.5c-1.2,0-1.8-0.7-1.8-2.1c0-1.3,0.6-2,1.9-2h0.4
					c1.6,0,2.8-0.3,3.8-0.8c1.3-0.7,2.1-1.8,3.1-3.3c0.1-0.2,0.4-0.4,0.6-0.4c0.3,0,0.4,0.4,0.5,1.3c0.2,1.5,0.8,2.7,2.7,2.7
					c2,0,3.9-1.7,4.7-3.6c0.4-1.1,0.8-1.6,1.1-1.6c0.2,0,0.3,0.1,0.3,0.5c0,0.4-0.1,0.8-0.1,1.3c0,2.2,2,3.2,3.3,3.2
					c0.4,0,1.2-0.1,1.2-0.8c0-0.5-0.3-1-0.8-1.8c0-0.1-0.1-0.1-0.1-0.2c0-0.5,1.3-2.5,1.8-3.2c0.1-0.1,0.2-0.3,0.4-0.3
					c0.1,0,0.2,0.1,0.4,0.4c0.4,0.7,0.5,1.6,0.5,2.8c0,2.2-1.5,6.9-4.7,6.9c-1.9,0-3.3-1-3.8-2.9c-1.4,2.5-3.3,3.4-4.7,3.4
					c-1.9,0-3.2-1.1-3.6-3.9C376.8,39,376.2,39.8,375.3,40.6z"/>
			</g>
		</g>
	</g>
	<g>
		<g>
			<g>
				<g>
					<path class="st2" d="M8.7,33.8c0,0,1.5-3,4.6-1.4c-1.3-2.1-0.6-4.8,0-5.6c1,3.4,2.8,6.3,6.9,7h2.4l-1,0c3,0,5.8-2.2,5.8-6
						s-2.3-5-3.6-5.1c-0.6,0-1.2,0.1-1.7,0.3c-1.3,0.3-2.2,1.5-2.2,2.8c0,1.6,1.4,2.9,3.1,2.9c0.6,0,1.2-0.2,1.7-0.5
						c-0.1,1.6-1.4,3-3.4,3c-2.5,0-5.5-2.5-4.3-7.5c-1.1-0.9-4.6-1.2-5.4,1.8c0,0,0,0,0,0c-0.3-0.2-0.6-0.3-1-0.3
						c-1.1,0-2.1,1.2-2.1,2.6c0,0.8,0.3,1.4,0.7,1.9c-5-0.9-9.1,4.2-9.1,4.2s0,0,0,0H8.7z M21.5,34l1,0h-2.4c-4,0.7-5.9,3.6-6.9,7
						c-0.6-0.8-1.3-3.5,0-5.6C10.2,36.9,8.7,34,8.7,34H0c0,0,0,0,0,0s4,5,9,4.2c-0.4,0.5-0.6,1.1-0.6,1.8c0,1.4,0.9,2.6,2.1,2.6
						c0.4,0,0.7-0.1,1-0.4c0,0.1,0,0.1,0,0.1c0.8,3,4.2,2.8,5.4,1.8c-1.2-5,1.8-7.5,4.3-7.5c2,0,3.3,1.4,3.4,3
						c-0.5-0.3-1.1-0.5-1.7-0.5c-1.7,0-3.1,1.3-3.1,2.9c0,1.3,0.9,2.4,2.2,2.8c0.5,0.2,1.1,0.3,1.7,0.3c1.3-0.1,3.6-1.3,3.6-5.1
						C27.4,36.2,24.6,34,21.5,34z"/>
				</g>
			</g>
			<path class="st3" d="M11.7,36.4c0,0-0.1,2.2-0.2,2.7c0,0.8-0.6,1.3-1.2,1.3c-0.7,0-1.1-0.7-1.1-1.4c0-0.5,0.2-0.9,0.6-1.1
				C9.9,37.8,10.8,37,11.7,36.4z"/>
			<path class="st3" d="M11.4,36.8c0,0-0.1,1.3-0.1,1.5c0,0.4-0.3,0.8-0.7,0.7c-0.4,0-0.6-0.4-0.6-0.8c0-0.3,0.1-0.5,0.3-0.6
				C10.4,37.6,10.9,37.1,11.4,36.8z"/>
			<g>
				<g class="st4">
					<path class="st5" d="M10.1,30.2C9,29.7,7.6,29,4.3,30.3c-1.1,0.5-2.3,1.4-2.9,2.1c-1,1,0.3,1.7,2.5,1.7c2.2,0,2.6-0.6,3.9-1.9
						C9.2,30.7,10.9,30.6,10.1,30.2z"/>
				</g>
			</g>
			<g class="st4">
				<g>
					<path class="st5" d="M24.7,23.1c-0.4-0.3-0.9-0.4-1.5-0.4c-0.1,0-0.2,0-0.2,0c0,0,0,0,0,0c0,0,0,0,0,0c-0.1,0-0.2,0-0.3,0
						c-0.1,0-0.3,0-0.4,0c0,0,0,0,0,0.1c-1,0.3-1.8,1-1.7,1.8c0,1,1.2,1.7,2.6,1.6c0.9,0,1.7-0.4,2.1-0.9c0.2,0.5,0.4,1.2,0.4,1.8
						c0.1,2.1-1.5,4.2-4,4.2c-1.7,0-2.6-0.1-3.9-1.2c-1.3-1.1-0.3,2.4,4.1,2.4c3.2,0,5.3-2.9,5.3-5.1C27.1,25.6,26.2,23.9,24.7,23.1
						z"/>
				</g>
			</g>
			<g>
				
					<ellipse transform="matrix(0.9999 -1.343745e-002 1.343745e-002 0.9999 -0.3178 0.3115)" class="st5" cx="23" cy="23.8" rx="1.8" ry="1.2"/>
			</g>
			
				<ellipse transform="matrix(0.9999 -1.348834e-002 1.348834e-002 0.9999 -0.3102 0.3109)" class="st1" cx="22.9" cy="23.2" rx="1" ry="0.5"/>
			<g>
				<path class="st5" d="M4.7,30c-1.2,0.4-2,1.2-1.8,1.8c0.2,0.6,1.4,0.7,2.6,0.3c1.2-0.4,2-1.2,1.8-1.8C7.1,29.7,5.9,29.6,4.7,30z"
					/>
			</g>
			<path class="st1" d="M4.9,31c0.7-0.2,1.1-0.6,1-0.9c-0.1-0.3-0.7-0.3-1.4-0.1c-0.7,0.2-1.1,0.6-1,0.9C3.7,31.2,4.3,31.2,4.9,31z"
				/>
			<g>
				<g class="st4">
					<path class="st5" d="M26.9,39.1c0-2.1-2.1-4.9-5.3-4.9c-4.1,0-5.6,2.2-4.2,2.2c1.4,0,1.3-0.9,3.7-0.9c2.3,0,4.5,2.1,4.4,4.1
						c0,0.3-0.1,0.5-0.1,0.8c-0.3-0.7-1.1-1.2-2.2-1.2c-1.3-0.1-2.4,0.6-2.5,1.5c0,0.8,0.7,1.4,1.7,1.7c0,0,0,0,0,0
						c0.1,0,0.3,0,0.4,0c0,0,0.1,0,0.1,0c0,0,0.1,0,0.1,0c0.2,0,0.4,0,0.6,0C25.8,42.3,26.9,41,26.9,39.1z"/>
				</g>
			</g>
			<g>
				
					<ellipse transform="matrix(0.9999 -1.344323e-002 1.344323e-002 0.9999 -0.5385 0.3131)" class="st5" cx="23" cy="40.2" rx="1.8" ry="1.2"/>
			</g>
			<g>
				<path class="st5" d="M21.5,34.2c-0.9,0-1.6,0.3-1.6,0.6c0,0.3,0.7,0.6,1.6,0.6c0.9,0,1.6-0.3,1.6-0.6
					C23.1,34.4,22.4,34.2,21.5,34.2z"/>
			</g>
			<path class="st1" d="M21.4,34.7c0.5,0,0.9-0.1,0.9-0.2s-0.4-0.2-0.9-0.2c-0.5,0-0.9,0.1-0.9,0.3C20.5,34.6,20.9,34.7,21.4,34.7z"
				/>
			
				<ellipse transform="matrix(0.9999 -1.348701e-002 1.348701e-002 0.9999 -0.5314 0.3124)" class="st1" cx="22.9" cy="39.6" rx="1" ry="0.5"/>
			<path class="st3" d="M16.9,23.6c0,0-2-1.1-3.6-0.2c-1.6,0.8-1.4,1.6-1.4,2.1c0,0.6,0.3-0.4,1.6-0.3c0.6,0,0.9,1.9,1.8,1.9
				C16.6,26.9,15.1,25.3,16.9,23.6z"/>
			<g>
				<path class="st5" d="M14.5,23.1c-0.9,0-1.6,0.3-1.6,0.7c0,0.4,0.7,0.6,1.6,0.6c0.9,0,1.6-0.3,1.6-0.7
					C16.1,23.4,15.4,23.1,14.5,23.1z"/>
			</g>
			<path class="st1" d="M14.4,23.7c0.5,0,0.9-0.1,0.9-0.3c0-0.2-0.4-0.3-0.9-0.3c-0.5,0-0.9,0.1-0.9,0.3
				C13.5,23.5,13.9,23.7,14.4,23.7z"/>
			
				<ellipse transform="matrix(4.954097e-002 -0.9988 0.9988 4.954097e-002 -17.1996 35.6335)" class="st3" cx="10.1" cy="26.9" rx="1.8" ry="1.5"/>
			<g>
				<path class="st5" d="M10.1,25.1c-0.6,0-1,0.5-1,1.1c0,0.6,0.5,1.1,1.1,1c0.6,0,1-0.5,1-1.1C11.2,25.6,10.7,25.1,10.1,25.1z"/>
			</g>
			
				<ellipse transform="matrix(1 -9.739798e-003 9.739798e-003 1 -0.2479 9.943531e-002)" class="st1" cx="10.1" cy="25.5" rx="0.5" ry="0.4"/>
		</g>
		<g>
			<g>
				<g>
					<path class="st2" d="M414.3,33.7l-1,0h2.4c4-0.7,5.9-3.6,6.9-7c0.6,0.8,1.3,3.5,0,5.6c3.1-1.6,4.6,1.4,4.6,1.4h8.7c0,0,0,0,0,0
						s-4.1-5.1-9.1-4.2c0.4-0.5,0.7-1.1,0.7-1.9c0-1.4-0.9-2.6-2.1-2.6c-0.4,0-0.7,0.1-1,0.3c0,0,0,0,0,0c-0.8-3-4.2-2.8-5.4-1.8
						c1.2,5-1.8,7.5-4.3,7.5c-2,0-3.3-1.4-3.4-3c0.5,0.3,1.1,0.5,1.7,0.5c1.7,0,3.1-1.3,3.1-2.9c0-1.3-1-2.4-2.2-2.8
						c-0.5-0.2-1.1-0.3-1.7-0.3c-1.3,0.1-3.6,1.3-3.6,5.1S411.2,33.7,414.3,33.7z M427.1,34c0,0-1.5,3-4.6,1.4
						c1.3,2.1,0.6,4.8,0,5.6c-1-3.4-2.8-6.3-6.9-7h-2.4l1,0c-3,0-5.8,2.2-5.8,6c0,3.8,2.3,5,3.6,5.1c0.6,0,1.2-0.1,1.7-0.3
						c1.3-0.3,2.2-1.5,2.2-2.8c0-1.6-1.4-2.9-3.1-2.9c-0.6,0-1.2,0.2-1.7,0.5c0.1-1.6,1.4-3,3.4-3c2.5,0,5.5,2.5,4.3,7.5
						c1.1,0.9,4.6,1.2,5.4-1.8c0,0,0,0,0-0.1c0.3,0.2,0.7,0.4,1,0.4c1.1,0,2.1-1.2,2.1-2.6c0-0.7-0.2-1.3-0.6-1.8c5,0.8,9-4.2,9-4.2
						s0,0,0,0H427.1z"/>
				</g>
			</g>
			<path class="st3" d="M424.2,36.4c0,0,0.1,2.2,0.2,2.7c0,0.8,0.6,1.3,1.2,1.3c0.6,0,1.1-0.7,1.1-1.4c0-0.5-0.2-0.9-0.6-1.1
				C425.9,37.8,425,37,424.2,36.4z"/>
			<path class="st3" d="M424.4,36.8c0,0,0.1,1.3,0.1,1.5c0,0.4,0.3,0.8,0.7,0.7c0.4,0,0.6-0.4,0.6-0.8c0-0.3-0.1-0.5-0.3-0.6
				C425.4,37.6,424.9,37.1,424.4,36.8z"/>
			<g>
				<g class="st4">
					<path class="st5" d="M434.5,32.4c-0.7-0.7-1.8-1.6-2.9-2.1c-3.3-1.3-4.7-0.6-5.8-0.1c-0.8,0.4,0.9,0.5,2.4,2
						c1.3,1.3,1.8,1.9,3.9,1.9C434.1,34.1,435.4,33.3,434.5,32.4z"/>
				</g>
			</g>
			<g class="st4">
				<g>
					<path class="st5" d="M418.2,30c-1.3,1.1-2.2,1.2-3.9,1.2c-2.5,0-4.1-2.1-4-4.2c0-0.7,0.2-1.3,0.4-1.8c0.4,0.5,1.2,0.9,2.1,0.9
						c1.4,0.1,2.5-0.7,2.6-1.6c0-0.8-0.7-1.5-1.7-1.8c0,0,0,0,0-0.1c-0.1,0-0.3,0-0.4,0c-0.1,0-0.2,0-0.3,0c0,0,0,0,0,0c0,0,0,0,0,0
						c-0.1,0-0.2,0-0.2,0c-0.6,0-1.1,0.2-1.5,0.4c-1.5,0.8-2.3,2.5-2.3,4.1c0,2.2,2.1,5.1,5.3,5.1C418.5,32.4,419.5,28.9,418.2,30z"
						/>
				</g>
			</g>
			<g>
				
					<ellipse transform="matrix(1.382376e-002 -0.9999 0.9999 1.382376e-002 383.29 436.2374)" class="st5" cx="412.8" cy="23.8" rx="1.2" ry="1.8"/>
			</g>
			
				<ellipse transform="matrix(1.338990e-002 -0.9999 0.9999 1.338990e-002 384.2482 435.7314)" class="st1" cx="412.9" cy="23.2" rx="0.5" ry="1"/>
			<g>
				<path class="st5" d="M431.1,30c1.2,0.4,2,1.2,1.8,1.8c-0.2,0.6-1.4,0.7-2.6,0.3c-1.2-0.4-2-1.2-1.8-1.8
					C428.7,29.7,429.9,29.6,431.1,30z"/>
			</g>
			<path class="st1" d="M430.9,31c-0.7-0.2-1.1-0.6-1-0.9c0.1-0.3,0.7-0.3,1.4-0.1c0.7,0.2,1.1,0.6,1,0.9
				C432.2,31.2,431.5,31.2,430.9,31z"/>
			<g>
				<g class="st4">
					<path class="st5" d="M414.2,34.2c-3.2,0-5.3,2.8-5.3,4.9c0,1.9,1.1,3.1,3.4,3.3c0.2,0,0.4,0,0.6,0c0,0,0.1,0,0.1,0
						c0,0,0.1,0,0.1,0c0.1,0,0.3,0,0.4,0c0,0,0,0,0,0c1-0.2,1.7-0.9,1.7-1.7c0-0.9-1.2-1.6-2.5-1.5c-1,0.1-1.9,0.6-2.2,1.2
						c0-0.2-0.1-0.5-0.1-0.8c-0.1-2,2.1-4.1,4.4-4.1c2.4,0,2.4,0.9,3.7,0.9C419.8,36.4,418.3,34.2,414.2,34.2z"/>
				</g>
			</g>
			<g>
				
					<ellipse transform="matrix(1.382970e-002 -0.9999 0.9999 1.382970e-002 366.8812 452.4183)" class="st5" cx="412.8" cy="40.2" rx="1.2" ry="1.8"/>
			</g>
			<g>
				<path class="st5" d="M414.3,34.2c0.9,0,1.6,0.3,1.6,0.6c0,0.3-0.7,0.6-1.6,0.6c-0.9,0-1.6-0.3-1.6-0.6
					C412.7,34.4,413.4,34.2,414.3,34.2z"/>
			</g>
			<path class="st1" d="M414.4,34.7c-0.5,0-0.9-0.1-0.9-0.2c0-0.1,0.4-0.2,0.9-0.2c0.5,0,0.9,0.1,0.9,0.3
				C415.3,34.6,414.9,34.7,414.4,34.7z"/>
			
				<ellipse transform="matrix(1.338858e-002 -0.9999 0.9999 1.338858e-002 367.843 451.9189)" class="st1" cx="412.9" cy="39.6" rx="0.5" ry="1"/>
			<path class="st3" d="M419,23.6c0,0,2-1.1,3.6-0.2c1.6,0.8,1.4,1.6,1.4,2.1c0,0.6-0.3-0.4-1.6-0.3c-0.6,0-0.9,1.9-1.8,1.9
				C419.2,26.9,420.8,25.3,419,23.6z"/>
			<g>
				<path class="st5" d="M421.4,23.1c0.9,0,1.6,0.3,1.6,0.7c0,0.4-0.7,0.6-1.6,0.6c-0.9,0-1.6-0.3-1.6-0.7
					C419.7,23.4,420.5,23.1,421.4,23.1z"/>
			</g>
			<path class="st1" d="M421.5,23.7c-0.5,0-0.9-0.1-0.9-0.3c0-0.2,0.4-0.3,0.9-0.3c0.5,0,0.9,0.1,0.9,0.3
				C422.3,23.5,421.9,23.7,421.5,23.7z"/>
			
				<ellipse transform="matrix(0.9988 -4.982531e-002 4.982531e-002 0.9988 -0.8093 21.2438)" class="st3" cx="425.7" cy="26.9" rx="1.5" ry="1.8"/>
			<g>
				<path class="st5" d="M425.7,25.1c0.6,0,1,0.5,1,1.1c0,0.6-0.5,1.1-1.1,1c-0.6,0-1-0.5-1-1.1C424.6,25.6,425.1,25.1,425.7,25.1z"
					/>
			</g>
			
				<ellipse transform="matrix(9.739798e-003 -1 1 9.739798e-003 396.092 450.9634)" class="st1" cx="425.7" cy="25.5" rx="0.4" ry="0.5"/>
		</g>
	</g>
</g>
</svg>
