<?xml version="1.0" encoding="utf-8"?>
<!-- Generator: Adobe Illustrator 19.2.0, SVG Export Plug-In . SVG Version: 6.00 Build 0)  -->
<svg version="1.1" id="Layer_1" xmlns="http://www.w3.org/2000/svg" xmlns:xlink="http://www.w3.org/1999/xlink" x="0px" y="0px"
	 viewBox="0 0 255.8 53.1" style="enable-background:new 0 0 255.8 53.1;" xml:space="preserve">
<style type="text/css">
	.st0{opacity:0.75;}
	.st1{fill:#FFFFFF;}
	.st2{fill:#BF8138;}
	.st3{fill:#F2C671;fill-opacity:0.5;}
	.st4{opacity:0.5;}
	.st5{fill:#F2C671;}
</style>
<g>
	<g>
		<g>
			<g class="st0">
				<path d="M58.2,31.7c0,6.1-2.8,10.7-7.4,12.6c-0.3,0.1-0.7,0.2-1.1,0.2c-1.6,0-5.1-0.9-7.3-2c-0.6-0.3-0.6-0.5-0.6-0.7
					c0-0.2,0.3-0.3,0.5-0.3c0.5,0,1.9,0.3,3.3,0.3c1.2,0,2.2-0.3,3.9-1c2-0.9,5.8-4.1,6.8-6.7c0.1-0.4,0.2-1,0.2-1.3
					c0-0.2-0.1-1.8-1.8-4.2c-0.6-0.9-0.9-1.4-1.4-2.2c-0.1-0.1-0.1-0.2-0.1-0.4c0-0.5,0.7-2.4,1.1-3c0.1-0.2,0.2-0.3,0.4-0.3
					c0.8,0,2.5,3.1,3.2,5.6C58.1,29.4,58.2,30.5,58.2,31.7z"/>
				<path d="M68.8,33.1c-1.2,0-2.2-0.2-3-0.9c-1.3-1-2-3-2.3-5.5c-0.3-1.9-0.4-4.2-0.5-6.6c-0.1-3.6-0.4-9.1-0.9-12.3
					c0-0.1,0-0.3,0-0.4c0-0.2,0-0.3,0.3-0.7c0.6-0.8,0.9-1.4,1.3-2.1C63.8,4,63.9,4,64.1,4c0.2,0,0.3,0.3,0.5,1.2
					c0.8,6.3,0.1,15,1.1,19.8c0.2,1.2,0.4,1.6,0.7,2.4c0.5,1.1,1.3,1.6,2.6,1.7c1.4,0,2.1,0.7,2.1,2c0,1.6-0.8,2.1-1.9,2.1H68.8z"/>
				<path d="M99.3,8.8c0.2,0.1,0.1,0.2,0,0.3c-0.4,0.6-1.9,2.2-2.5,3c-0.1,0.2-0.2,0.2-0.4,0c-0.8-0.5-2.6-1.9-3.1-2.6
					c-0.1-0.2-0.1-0.2,0-0.4c0.6-0.9,1.6-2.1,2.3-2.8C95.9,6,95.9,6,96.1,6.1C96.7,6.8,98,8,99.3,8.8z"/>
				<path d="M88.6,19.6c0,1.4-0.1,2.6-0.4,3.6c1.9-1.5,3.5-2.7,4.9-3.5c1.5-0.8,2.7-1.2,3.7-1.2c1.4,0,3.5,0.5,4.6,1.6
					c0.5,0.4,0.7,1,0.7,1.9c0,2-0.9,3.8-2.1,5.4c-0.9,1.2-3.7,2.1-7,2.8c-1.1,0.2-2.2,0.4-7.2,1c-2.4,0.2-3.6,0.3-5,0.9
					c-1.1,0.5-1.8,1.2-2.2,2c-0.2,0.6-0.3,1-0.3,1.6c0,0.4,0,0.7,0.1,1.1c0.2,1,0.4,1.6,0.5,2.1c0.1,0.4,0.2,0.9,0.3,1.3v0.1
					c0,0.9-0.7,2.6-1.1,3.4c0,0.1-0.2,0.2-0.3,0.2c-0.7,0-1.5-0.6-2-1.2c-1.5-1.5-2.2-3.8-2.2-7c0-1.1,0.1-2.1,0.2-3.3
					c0.1-0.6,0.2-1.1,0.3-1.8c-1.2,1.5-2.8,2.5-5.1,2.5h-0.5c-1.1,0-1.7-0.7-1.7-2.1c0-1.3,0.6-2,1.7-2h0.5c1,0,2-0.2,2.8-0.5
					c1.9-0.8,3-1.8,4.3-3.6c0.2-0.3,0.5-0.9,1-0.9c0.2,0,0.4,0.2,0.4,0.5c0,0.5-0.3,1.3-0.7,2.4c-0.6,1.6-1.3,3.8-1.3,6
					c0,1.4,0.4,2.7,1.1,4.1c0-0.7,0-1.3,0-2.1c0.1-1.6,0.6-2.7,1.8-3.9c1.2-1.3,2.8-2.4,4.8-3c1.3-1.4,2.3-2.5,3.4-3.6
					c0-0.5,0-1.1,0-1.6c0-5.5-0.8-9.1-1.3-12.7c0-0.7-0.6-2.3-0.7-3.1c0-0.1-0.1-0.3-0.1-0.5c0-0.1,0-0.2,0-0.3
					c0.1-0.2,0.2-0.7,0.7-1.5C86,4,86.6,3,86.9,3c0.1,0,0.2,0.1,0.3,0.4c0.5,1.7,1,2.6,1.4,3.2c0.1,0.1,0.1,0.3,0.1,0.4
					c0,0.1,0,0.2-0.1,0.4c-0.1,0.4-0.7,1.5-1,1.9C88.1,13.1,88.6,16.6,88.6,19.6z M95.1,22.2c-3.4,0-6.6,2.6-9.8,5.6
					c6.1-0.4,12-1.5,14.4-3.2C98.9,23.2,96.9,22.2,95.1,22.2z"/>
				<path d="M115.3,46.7c0.2-0.1,0.2-0.1,0.2,0.1c0,1-0.4,2-0.9,2.3l-7.4,4.1c-0.1,0.1-0.2,0-0.2-0.1c0-0.5,0.2-1.4,0.4-1.8
					c0.2-0.3,0.5-0.6,1.2-1L115.3,46.7z"/>
				<path d="M113.8,42.9c-1.5,0.8-4.7,2.7-7.2,4.5c-0.1,0-0.1,0.1-0.2,0.1c0,0-0.1,0-0.1-0.1c0-0.2,0.1-0.6,0.4-1.2
					c0.1-0.3,0.9-1.1,1.5-1.6c0.1-0.1,0.2-0.1,0.2-0.2c0,0-0.1-0.1-0.2-0.2c-1-0.4-1.5-0.7-1.7-1.7c0-0.1,0-0.2,0-0.3
					c0-1.7,1.7-4,3.3-5.2c0.6-0.5,1.2-0.7,1.8-0.7c1,0,1.4,0.5,1.4,1.3c0,0.5-0.1,1-0.4,1.7c-0.2,0.4-0.3,0.7-0.5,0.7
					c-0.1,0-0.3-0.1-0.5-0.3c-0.2-0.2-0.5-0.5-1-0.5c-1.4,0-2.3,0.8-2.3,1.2c0,0.6,2.3,1.5,3.2,1.5c0.1,0,0.2,0,0.2,0
					c0.4-0.1,2-0.7,2.6-1.1c0.3-0.2,0.5-0.3,0.6-0.3c0.1,0,0.1,0,0.1,0.2c0,0.1-0.1,0.4-0.2,0.8C114.4,42.6,114.1,42.7,113.8,42.9z"
					/>
				<path d="M122.6,7.3c0.1,0.3,0.2,0.4,0.2,0.5c0,0.1,0,0.2-0.1,0.4c-0.3,0.8-1,1.7-1.5,2.4c-0.3,4.3-0.9,7.7-2.8,12.6
					c0.6,1.4,0.9,3.4,0.9,5.2c0,1.2-0.2,2.4-0.5,3.3c-0.3,0.7-4.8,1.5-7.8,1.5c-0.8,0-1.5,0-2-0.2c-0.2,0-0.3-0.5-0.3-1.2
					c0-1.1,0.2-2.7,0.5-3.2c0-0.1,0.1-0.1,0.2-0.1c0.2,0,0.2,0,0.4,0c2.5,0,5-2.3,6.6-5.2c-2-4-6.3-9.3-10-11.8
					c-0.1,0.1-0.8,1-1.3,1c-0.6,0-3.9-3.2-4-3.9c-0.1-0.4-0.1-0.8-0.1-1.1c0-1,0.2-2,0.4-2.5c0.2-0.5,0.5-0.7,0.8-0.7
					c0.4,0,0.9,0.3,1.4,0.7c2.8,2,5.8,4.2,8.1,7.2c1.8,2.3,4.1,5.4,5.8,9.2c1-2.3,1.3-3.9,1.5-6.9c0.1-1.7,0.2-3,0.2-3.9
					c0-2.1-0.2-2.8-0.2-3.3c0-0.3,0.1-0.7,0.4-1.3c0.7-1.2,1.2-2.1,1.5-2.1c0.1,0,0.2,0.1,0.3,0.4C121.6,5.2,122.1,6.3,122.6,7.3z
					 M117.1,25.1c-1.4,2-1.6,2.4-3,3.7c1.3,0,2.7-0.1,3.8-0.6C117.9,27.5,117.9,26.4,117.1,25.1z"/>
				<path d="M129.7,33.2c-0.2,0-0.3-0.3-0.3-1.2c0-5.4-2-20.3-2-22.7c0-1.2,0.8-3.1,1.5-4.4c0.2-0.4,0.6-0.9,0.8-0.9
					c0.2,0,0.3,0.3,0.3,1.4c0.2,3.9,1.3,13,1.3,19.6c0,2.6-0.2,4.9-0.6,6.2C130.3,32.5,130,33.2,129.7,33.2z"/>
				<path d="M165.2,7.2c0,0.9-0.2,1.8-0.5,2.6c0.4,0.2,0.6,0.5,0.6,0.7c0,0.7-0.3,1.3-0.6,1.8c-0.1,0.1-0.1,0.1-0.2,0.1l-0.9-0.6
					c-0.9,1.4-2.3,3.1-4.4,4.1c-0.8,0.4-1.7,0.7-2.6,0.7c-0.5,0-0.7-0.1-0.7-0.2c0-0.2,0.4-0.3,1-0.7c1.5-0.9,4.5-3.1,5.5-4.5
					c-0.8-0.6-1.9-1.3-1.9-2.4c0-0.8,0.4-1.5,1-2.3c0.7-1,1.5-1.4,2.2-1.4C164.9,4.9,165.2,6.2,165.2,7.2z M162,8c0,0,0,0.1,0,0.1
					c0,0.2,0.8,0.8,1.4,1c0.2-0.3,0.2-0.6,0.2-1.2c0-0.5-0.2-0.8-0.6-0.8C162.7,7.2,162.2,7.5,162,8z"/>
				<path d="M151.3,28.5c1.7,0.8,4.5,1.2,8.2,1.2c5.1,0,9.2-0.7,11.9-1.5c3.7-1.1,5.3-1.7,7.3-3.1c0.1-0.1,0.3-0.3,0.5-0.3
					c0.1,0,0.3,0.2,0.3,0.8c0,2.2,1.2,3.5,2.6,3.5h0.6c1.1,0,1.7,0.7,1.7,2c0,1.4-0.5,2.1-1.6,2.1H182c-2.5,0-4.1-1.3-4.6-4
					c-1.9,1-4.3,2.2-6.6,2.9c-3.5,1-7.4,1.9-11.9,1.9c-3.7,0-6.8-0.5-8.8-1.3c-2.6-1-3.9-2.6-3.9-5.3c0-2.3,1-4.6,1.5-5.5
					c0.4-0.6,0.8-1.1,1.1-1.1c0.1,0,0.2,0.1,0.2,0.3c0,0.2-0.1,0.7-0.3,1.1c-0.4,0.9-0.7,1.9-0.7,2.8
					C148.1,25.7,148.7,27.2,151.3,28.5z M165.3,41.6c0.2,0.1,0.1,0.2,0,0.3c-0.4,0.6-1.9,2.2-2.5,3c-0.1,0.2-0.2,0.2-0.4,0
					c-0.8-0.5-2.6-1.9-3.1-2.6c-0.1-0.2-0.1-0.2,0-0.4c0.6-0.9,1.6-2.1,2.3-2.8c0.3-0.3,0.4-0.4,0.5-0.2
					C162.8,39.6,164.1,40.8,165.3,41.6z"/>
				<path d="M190.4,8.2c0.2-0.1,0.2-0.1,0.2,0.1c0,1-0.4,2-0.9,2.3l-7.4,4.1c-0.1,0.1-0.2,0-0.2-0.1c0-0.5,0.2-1.4,0.4-1.8
					c0.2-0.3,0.5-0.6,1.2-1L190.4,8.2z"/>
				<path d="M192.2,29h0.2c1,0,1.6,1,1.6,2.1s-0.5,2-1.6,2h-0.2c-1.1,0-2.2-0.1-3.2-0.9c-1.4-1.1-1.9-3.1-2-3.4
					c-0.1,1.2-1.9,4.3-4.6,4.3h-0.2c-1.1,0-1.6-1-1.6-2s0.5-2.1,1.7-2.1h0.1c2.2,0,3.5-0.9,3.8-1.4c0,0,0.1-0.2,0.1-0.2
					c0-0.3-0.7-4.6-0.7-5c0-0.2,0-0.4,0.1-0.6c0.2-0.7,0.6-1.7,1-2.4c0.2-0.4,0.3-0.6,0.4-0.6s0.3,0.3,0.4,0.7
					c0.5,1.9,1,5.6,1.4,6.8C189.6,28,191.4,29,192.2,29z M190.8,39.8c0.2,0.1,0.1,0.2,0,0.3c-0.4,0.6-1.9,2.2-2.5,3
					c-0.1,0.2-0.2,0.2-0.4,0c-0.8-0.5-2.6-1.9-3.1-2.6c-0.1-0.2-0.1-0.2,0-0.4c0.6-0.9,1.6-2.1,2.3-2.8c0.3-0.3,0.4-0.4,0.5-0.2
					C188.3,37.8,189.6,39,190.8,39.8z"/>
				<path d="M210.1,9.5c0.2-0.1,0.2-0.1,0.2,0.1c0,1-0.4,2-0.9,2.3l-7.4,4.1c-0.1,0.1-0.2,0-0.2-0.1c0-0.5,0.2-1.4,0.4-1.8
					c0.2-0.3,0.5-0.6,1.2-1L210.1,9.5z"/>
				<path d="M196.8,31.3c-1.1,1-2.2,1.8-4.2,1.8h-0.5c-1.2,0-1.8-0.7-1.8-2.1c0-1.3,0.6-2,1.9-2h0.4c1.6,0,2.8-0.3,3.8-0.8
					c1.3-0.7,2.1-1.8,3.1-3.3c0.1-0.2,0.4-0.4,0.6-0.4c0.3,0,0.4,0.4,0.5,1.3c0.2,1.5,0.8,2.7,2.7,2.7c2,0,3.9-1.7,4.7-3.6
					c0.4-1.1,0.8-1.6,1.1-1.6c0.2,0,0.3,0.1,0.3,0.5c0,0.4-0.1,0.8-0.1,1.3c0,2.2,2,3.2,3.3,3.2c0.4,0,1.2-0.1,1.2-0.8
					c0-0.5-0.3-1-0.8-1.8c0-0.1-0.1-0.1-0.1-0.2c0-0.5,1.3-2.5,1.8-3.2c0.1-0.1,0.2-0.3,0.4-0.3c0.1,0,0.2,0.1,0.4,0.4
					c0.4,0.7,0.5,1.6,0.5,2.8c0,2.2-1.5,6.9-4.7,6.9c-1.9,0-3.3-1-3.8-2.9c-1.4,2.5-3.3,3.4-4.7,3.4c-1.9,0-3.2-1.1-3.6-3.9
					C198.3,29.8,197.6,30.5,196.8,31.3z"/>
			</g>
			<g>
				<g>
					<path class="st1" d="M55.2,28.7c0,6.1-2.8,10.7-7.4,12.6c-0.3,0.1-0.7,0.2-1.1,0.2c-1.6,0-5.1-0.9-7.3-2
						c-0.6-0.3-0.6-0.5-0.6-0.7c0-0.2,0.3-0.3,0.5-0.3c0.5,0,1.9,0.3,3.3,0.3c1.2,0,2.2-0.3,3.9-1c2-0.9,5.8-4.1,6.8-6.7
						c0.1-0.4,0.2-1,0.2-1.3c0-0.2-0.1-1.8-1.8-4.2c-0.6-0.9-0.9-1.4-1.4-2.2c-0.1-0.1-0.1-0.2-0.1-0.4c0-0.5,0.7-2.4,1.1-3
						c0.1-0.2,0.2-0.3,0.4-0.3c0.8,0,2.5,3.1,3.2,5.6C55.1,26.4,55.2,27.5,55.2,28.7z"/>
					<path class="st1" d="M65.8,30.1c-1.2,0-2.2-0.2-3-0.9c-1.3-1-2-3-2.3-5.5c-0.3-1.9-0.4-4.2-0.5-6.6c-0.1-3.6-0.4-9.1-0.9-12.3
						c0-0.1,0-0.3,0-0.4c0-0.2,0-0.3,0.3-0.7c0.6-0.8,0.9-1.4,1.3-2.1C60.8,1,60.9,1,61.1,1c0.2,0,0.3,0.3,0.5,1.2
						c0.8,6.3,0.1,15,1.1,19.8c0.2,1.2,0.4,1.6,0.7,2.4c0.5,1.1,1.3,1.6,2.6,1.7c1.4,0,2.1,0.7,2.1,2c0,1.6-0.8,2.1-1.9,2.1H65.8z"
						/>
					<path class="st1" d="M96.3,5.8c0.2,0.1,0.1,0.2,0,0.3c-0.4,0.6-1.9,2.2-2.5,3c-0.1,0.2-0.2,0.2-0.4,0c-0.8-0.5-2.6-1.9-3.1-2.6
						c-0.1-0.2-0.1-0.2,0-0.4c0.6-0.9,1.6-2.1,2.3-2.8C92.9,3,92.9,3,93.1,3.1C93.7,3.8,95,5,96.3,5.8z"/>
					<path class="st1" d="M85.6,16.6c0,1.4-0.1,2.6-0.4,3.6c1.9-1.5,3.5-2.7,4.9-3.5c1.5-0.8,2.7-1.2,3.7-1.2c1.4,0,3.5,0.5,4.6,1.6
						c0.5,0.4,0.7,1,0.7,1.9c0,2-0.9,3.8-2.1,5.4c-0.9,1.2-3.7,2.1-7,2.8c-1.1,0.2-2.2,0.4-7.2,1c-2.4,0.2-3.6,0.3-5,0.9
						c-1.1,0.5-1.8,1.2-2.2,2c-0.2,0.6-0.3,1-0.3,1.6c0,0.4,0,0.7,0.1,1.1c0.2,1,0.4,1.6,0.5,2.1c0.1,0.4,0.2,0.9,0.3,1.3v0.1
						c0,0.9-0.7,2.6-1.1,3.4c0,0.1-0.2,0.2-0.3,0.2c-0.7,0-1.5-0.6-2-1.2c-1.5-1.5-2.2-3.8-2.2-7c0-1.1,0.1-2.1,0.2-3.3
						c0.1-0.6,0.2-1.1,0.3-1.8c-1.2,1.5-2.8,2.5-5.1,2.5h-0.5c-1.1,0-1.7-0.7-1.7-2.1c0-1.3,0.6-2,1.7-2h0.5c1,0,2-0.2,2.8-0.5
						c1.9-0.8,3-1.8,4.3-3.6c0.2-0.3,0.5-0.9,1-0.9c0.2,0,0.4,0.2,0.4,0.5c0,0.5-0.3,1.3-0.7,2.4c-0.6,1.6-1.3,3.8-1.3,6
						c0,1.4,0.4,2.7,1.1,4.1c0-0.7,0-1.3,0-2.1c0.1-1.6,0.6-2.7,1.8-3.9c1.2-1.3,2.8-2.4,4.8-3c1.3-1.4,2.3-2.5,3.4-3.6
						c0-0.5,0-1.1,0-1.6c0-5.5-0.8-9.1-1.3-12.7c0-0.7-0.6-2.3-0.7-3.1c0-0.1-0.1-0.3-0.1-0.5c0-0.1,0-0.2,0-0.3
						c0.1-0.2,0.2-0.7,0.7-1.5C83,1,83.6,0,83.9,0c0.1,0,0.2,0.1,0.3,0.4c0.5,1.7,1,2.6,1.4,3.2c0.1,0.1,0.1,0.3,0.1,0.4
						c0,0.1,0,0.2-0.1,0.4c-0.1,0.4-0.7,1.5-1,1.9C85.1,10.1,85.6,13.6,85.6,16.6z M92.1,19.2c-3.4,0-6.6,2.6-9.8,5.6
						c6.1-0.4,12-1.5,14.4-3.2C95.9,20.2,93.9,19.2,92.1,19.2z"/>
					<path class="st1" d="M112.3,43.7c0.2-0.1,0.2-0.1,0.2,0.1c0,1-0.4,2-0.9,2.3l-7.4,4.1c-0.1,0.1-0.2,0-0.2-0.1
						c0-0.5,0.2-1.4,0.4-1.8c0.2-0.3,0.5-0.6,1.2-1L112.3,43.7z"/>
					<path class="st1" d="M110.8,39.9c-1.5,0.8-4.7,2.7-7.2,4.5c-0.1,0-0.1,0.1-0.2,0.1c0,0-0.1,0-0.1-0.1c0-0.2,0.1-0.6,0.4-1.2
						c0.1-0.3,0.9-1.1,1.5-1.6c0.1-0.1,0.2-0.1,0.2-0.2c0,0-0.1-0.1-0.2-0.2c-1-0.4-1.5-0.7-1.7-1.7c0-0.1,0-0.2,0-0.3
						c0-1.7,1.7-4,3.3-5.2c0.6-0.5,1.2-0.7,1.8-0.7c1,0,1.4,0.5,1.4,1.3c0,0.5-0.1,1-0.4,1.7c-0.2,0.4-0.3,0.7-0.5,0.7
						c-0.1,0-0.3-0.1-0.5-0.3c-0.2-0.2-0.5-0.5-1-0.5c-1.4,0-2.3,0.8-2.3,1.2c0,0.6,2.3,1.5,3.2,1.5c0.1,0,0.2,0,0.2,0
						c0.4-0.1,2-0.7,2.6-1.1c0.3-0.2,0.5-0.3,0.6-0.3c0.1,0,0.1,0,0.1,0.2c0,0.1-0.1,0.4-0.2,0.8C111.4,39.6,111.1,39.7,110.8,39.9z
						"/>
					<path class="st1" d="M119.6,4.3c0.1,0.3,0.2,0.4,0.2,0.5c0,0.1,0,0.2-0.1,0.4c-0.3,0.8-1,1.7-1.5,2.4
						c-0.3,4.3-0.9,7.7-2.8,12.6c0.6,1.4,0.9,3.4,0.9,5.2c0,1.2-0.2,2.4-0.5,3.3c-0.3,0.7-4.8,1.5-7.8,1.5c-0.8,0-1.5,0-2-0.2
						c-0.2,0-0.3-0.5-0.3-1.2c0-1.1,0.2-2.7,0.5-3.2c0-0.1,0.1-0.1,0.2-0.1c0.2,0,0.2,0,0.4,0c2.5,0,5-2.3,6.6-5.2
						c-2-4-6.3-9.3-10-11.8c-0.1,0.1-0.8,1-1.3,1c-0.6,0-3.9-3.2-4-3.9C98.1,5.3,98,4.9,98,4.5c0-1,0.2-2,0.4-2.5
						c0.2-0.5,0.5-0.7,0.8-0.7c0.4,0,0.9,0.3,1.4,0.7c2.8,2,5.8,4.2,8.1,7.2c1.8,2.3,4.1,5.4,5.8,9.2c1-2.3,1.3-3.9,1.5-6.9
						c0.1-1.7,0.2-3,0.2-3.9c0-2.1-0.2-2.8-0.2-3.3c0-0.3,0.1-0.7,0.4-1.3c0.7-1.2,1.2-2.1,1.5-2.1c0.1,0,0.2,0.1,0.3,0.4
						C118.6,2.2,119.1,3.3,119.6,4.3z M114.1,22.1c-1.4,2-1.6,2.4-3,3.7c1.3,0,2.7-0.1,3.8-0.6C114.9,24.5,114.9,23.4,114.1,22.1z"
						/>
					<path class="st1" d="M126.7,30.2c-0.2,0-0.3-0.3-0.3-1.2c0-5.4-2-20.3-2-22.7c0-1.2,0.8-3.1,1.5-4.4c0.2-0.4,0.6-0.9,0.8-0.9
						c0.2,0,0.3,0.3,0.3,1.4c0.2,3.9,1.3,13,1.3,19.6c0,2.6-0.2,4.9-0.6,6.2C127.3,29.5,127,30.2,126.7,30.2z"/>
					<path class="st1" d="M162.2,4.2c0,0.9-0.2,1.8-0.5,2.6c0.4,0.2,0.6,0.5,0.6,0.7c0,0.7-0.3,1.3-0.6,1.8
						c-0.1,0.1-0.1,0.1-0.2,0.1l-0.9-0.6c-0.9,1.4-2.3,3.1-4.4,4.1c-0.8,0.4-1.7,0.7-2.6,0.7c-0.5,0-0.7-0.1-0.7-0.2
						c0-0.2,0.4-0.3,1-0.7c1.5-0.9,4.5-3.1,5.5-4.5c-0.8-0.6-1.9-1.3-1.9-2.4c0-0.8,0.4-1.5,1-2.3c0.7-1,1.5-1.4,2.2-1.4
						C161.9,1.9,162.2,3.2,162.2,4.2z M159,5c0,0,0,0.1,0,0.1c0,0.2,0.8,0.8,1.4,1c0.2-0.3,0.2-0.6,0.2-1.2c0-0.5-0.2-0.8-0.6-0.8
						C159.7,4.2,159.2,4.5,159,5z"/>
					<path class="st1" d="M148.3,25.5c1.7,0.8,4.5,1.2,8.2,1.2c5.1,0,9.2-0.7,11.9-1.5c3.7-1.1,5.3-1.7,7.3-3.1
						c0.1-0.1,0.3-0.3,0.5-0.3c0.1,0,0.3,0.2,0.3,0.8c0,2.2,1.2,3.5,2.6,3.5h0.6c1.1,0,1.7,0.7,1.7,2c0,1.4-0.5,2.1-1.6,2.1H179
						c-2.5,0-4.1-1.3-4.6-4c-1.9,1-4.3,2.2-6.6,2.9c-3.5,1-7.4,1.9-11.9,1.9c-3.7,0-6.8-0.5-8.8-1.3c-2.6-1-3.9-2.6-3.9-5.3
						c0-2.3,1-4.6,1.5-5.5c0.4-0.6,0.8-1.1,1.1-1.1c0.1,0,0.2,0.1,0.2,0.3c0,0.2-0.1,0.7-0.3,1.1c-0.4,0.9-0.7,1.9-0.7,2.8
						C145.1,22.7,145.7,24.2,148.3,25.5z M162.3,38.6c0.2,0.1,0.1,0.2,0,0.3c-0.4,0.6-1.9,2.2-2.5,3c-0.1,0.2-0.2,0.2-0.4,0
						c-0.8-0.5-2.6-1.9-3.1-2.6c-0.1-0.2-0.1-0.2,0-0.4c0.6-0.9,1.6-2.1,2.3-2.8c0.3-0.3,0.4-0.4,0.5-0.2
						C159.8,36.6,161.1,37.8,162.3,38.6z"/>
					<path class="st1" d="M187.4,5.2c0.2-0.1,0.2-0.1,0.2,0.1c0,1-0.4,2-0.9,2.3l-7.4,4.1c-0.1,0.1-0.2,0-0.2-0.1
						c0-0.5,0.2-1.4,0.4-1.8c0.2-0.3,0.5-0.6,1.2-1L187.4,5.2z"/>
					<path class="st1" d="M189.2,26h0.2c1,0,1.6,1,1.6,2.1s-0.5,2-1.6,2h-0.2c-1.1,0-2.2-0.1-3.2-0.9c-1.4-1.1-1.9-3.1-2-3.4
						c-0.1,1.2-1.9,4.3-4.6,4.3h-0.2c-1.1,0-1.6-1-1.6-2s0.5-2.1,1.7-2.1h0.1c2.2,0,3.5-0.9,3.8-1.4c0,0,0.1-0.2,0.1-0.2
						c0-0.3-0.7-4.6-0.7-5c0-0.2,0-0.4,0.1-0.6c0.2-0.7,0.6-1.7,1-2.4c0.2-0.4,0.3-0.6,0.4-0.6s0.3,0.3,0.4,0.7
						c0.5,1.9,1,5.6,1.4,6.8C186.6,25,188.4,26,189.2,26z M187.8,36.8c0.2,0.1,0.1,0.2,0,0.3c-0.4,0.6-1.9,2.2-2.5,3
						c-0.1,0.2-0.2,0.2-0.4,0c-0.8-0.5-2.6-1.9-3.1-2.6c-0.1-0.2-0.1-0.2,0-0.4c0.6-0.9,1.6-2.1,2.3-2.8c0.3-0.3,0.4-0.4,0.5-0.2
						C185.3,34.8,186.6,36,187.8,36.8z"/>
					<path class="st1" d="M207.1,6.5c0.2-0.1,0.2-0.1,0.2,0.1c0,1-0.4,2-0.9,2.3l-7.4,4.1c-0.1,0.1-0.2,0-0.2-0.1
						c0-0.5,0.2-1.4,0.4-1.8c0.2-0.3,0.5-0.6,1.2-1L207.1,6.5z"/>
					<path class="st1" d="M193.8,28.3c-1.1,1-2.2,1.8-4.2,1.8h-0.5c-1.2,0-1.8-0.7-1.8-2.1c0-1.3,0.6-2,1.9-2h0.4
						c1.6,0,2.8-0.3,3.8-0.8c1.3-0.7,2.1-1.8,3.1-3.3c0.1-0.2,0.4-0.4,0.6-0.4c0.3,0,0.4,0.4,0.5,1.3c0.2,1.5,0.8,2.7,2.7,2.7
						c2,0,3.9-1.7,4.7-3.6c0.4-1.1,0.8-1.6,1.1-1.6c0.2,0,0.3,0.1,0.3,0.5c0,0.4-0.1,0.8-0.1,1.3c0,2.2,2,3.2,3.3,3.2
						c0.4,0,1.2-0.1,1.2-0.8c0-0.5-0.3-1-0.8-1.8c0-0.1-0.1-0.1-0.1-0.2c0-0.5,1.3-2.5,1.8-3.2c0.1-0.1,0.2-0.3,0.4-0.3
						c0.1,0,0.2,0.1,0.4,0.4c0.4,0.7,0.5,1.6,0.5,2.8c0,2.2-1.5,6.9-4.7,6.9c-1.9,0-3.3-1-3.8-2.9c-1.4,2.5-3.3,3.4-4.7,3.4
						c-1.9,0-3.2-1.1-3.6-3.9C195.3,26.8,194.6,27.5,193.8,28.3z"/>
				</g>
			</g>
		</g>
	</g>
	<g>
		<g>
			<g>
				<g>
					<path class="st2" d="M8.7,19.8c0,0,1.5-3,4.6-1.4c-1.3-2.1-0.6-4.8,0-5.6c1,3.4,2.8,6.3,6.9,7h2.4l-1,0c3,0,5.8-2.2,5.8-6
						s-2.3-5-3.6-5.1c-0.6,0-1.2,0.1-1.7,0.3c-1.3,0.3-2.2,1.5-2.2,2.8c0,1.6,1.4,2.9,3.1,2.9c0.6,0,1.2-0.2,1.7-0.5
						c-0.1,1.6-1.4,3-3.4,3c-2.5,0-5.5-2.5-4.3-7.5c-1.1-0.9-4.6-1.2-5.4,1.8c0,0,0,0,0,0c-0.3-0.2-0.6-0.3-1-0.3
						c-1.1,0-2.1,1.2-2.1,2.6c0,0.8,0.3,1.4,0.7,1.9c-5-0.9-9.1,4.2-9.1,4.2s0,0,0,0H8.7z M21.5,20l1,0h-2.4c-4,0.7-5.9,3.6-6.9,7
						c-0.6-0.8-1.3-3.5,0-5.6C10.2,22.9,8.7,20,8.7,20H0c0,0,0,0,0,0s4,5,9,4.2c-0.4,0.5-0.6,1.1-0.6,1.8c0,1.4,0.9,2.6,2.1,2.6
						c0.4,0,0.7-0.1,1-0.4c0,0.1,0,0.1,0,0.1c0.8,3,4.2,2.8,5.4,1.8c-1.2-5,1.8-7.5,4.3-7.5c2,0,3.3,1.4,3.4,3
						c-0.5-0.3-1.1-0.5-1.7-0.5c-1.7,0-3.1,1.3-3.1,2.9c0,1.3,0.9,2.4,2.2,2.8c0.5,0.2,1.1,0.3,1.7,0.3c1.3-0.1,3.6-1.3,3.6-5.1
						C27.4,22.2,24.6,20,21.5,20z"/>
				</g>
			</g>
			<path class="st3" d="M11.7,22.4c0,0-0.1,2.2-0.2,2.7c0,0.8-0.6,1.3-1.2,1.3c-0.7,0-1.1-0.7-1.1-1.4c0-0.5,0.2-0.9,0.6-1.1
				C9.9,23.8,10.8,23,11.7,22.4z"/>
			<path class="st3" d="M11.4,22.8c0,0-0.1,1.3-0.1,1.5c0,0.4-0.3,0.8-0.7,0.7c-0.4,0-0.6-0.4-0.6-0.8c0-0.3,0.1-0.5,0.3-0.6
				C10.4,23.6,10.9,23.1,11.4,22.8z"/>
			<g>
				<g class="st4">
					<path class="st5" d="M10.1,16.2C9,15.7,7.6,15,4.3,16.3c-1.1,0.5-2.3,1.4-2.9,2.1c-1,1,0.3,1.7,2.5,1.7c2.2,0,2.6-0.6,3.9-1.9
						C9.2,16.7,10.9,16.6,10.1,16.2z"/>
				</g>
			</g>
			<g class="st4">
				<g>
					<path class="st5" d="M24.7,9.1c-0.4-0.3-0.9-0.4-1.5-0.4c-0.1,0-0.2,0-0.2,0c0,0,0,0,0,0c0,0,0,0,0,0c-0.1,0-0.2,0-0.3,0
						c-0.1,0-0.3,0-0.4,0c0,0,0,0,0,0.1c-1,0.3-1.8,1-1.7,1.8c0,1,1.2,1.7,2.6,1.6c0.9,0,1.7-0.4,2.1-0.9c0.2,0.5,0.4,1.2,0.4,1.8
						c0.1,2.1-1.5,4.2-4,4.2c-1.7,0-2.6-0.1-3.9-1.2c-1.3-1.1-0.3,2.4,4.1,2.4c3.2,0,5.3-2.9,5.3-5.1C27.1,11.6,26.2,9.9,24.7,9.1z"
						/>
				</g>
			</g>
			<g>
				
					<ellipse transform="matrix(0.9999 -1.343745e-002 1.343745e-002 0.9999 -0.1297 0.3102)" class="st5" cx="23" cy="9.8" rx="1.8" ry="1.2"/>
			</g>
			
				<ellipse transform="matrix(0.9999 -1.348834e-002 1.348834e-002 0.9999 -0.1213 0.3096)" class="st1" cx="22.9" cy="9.2" rx="1" ry="0.5"/>
			<g>
				<path class="st5" d="M4.7,16c-1.2,0.4-2,1.2-1.8,1.8c0.2,0.6,1.4,0.7,2.6,0.3c1.2-0.4,2-1.2,1.8-1.8C7.1,15.7,5.9,15.6,4.7,16z"
					/>
			</g>
			<path class="st1" d="M4.9,17c0.7-0.2,1.1-0.6,1-0.9c-0.1-0.3-0.7-0.3-1.4-0.1c-0.7,0.2-1.1,0.6-1,0.9C3.7,17.2,4.3,17.2,4.9,17z"
				/>
			<g>
				<g class="st4">
					<path class="st5" d="M26.9,25.1c0-2.1-2.1-4.9-5.3-4.9c-4.1,0-5.6,2.2-4.2,2.2c1.4,0,1.3-0.9,3.7-0.9c2.3,0,4.5,2.1,4.4,4.1
						c0,0.3-0.1,0.5-0.1,0.8c-0.3-0.7-1.1-1.2-2.2-1.2c-1.3-0.1-2.4,0.6-2.5,1.5c0,0.8,0.7,1.4,1.7,1.7c0,0,0,0,0,0
						c0.1,0,0.3,0,0.4,0c0,0,0.1,0,0.1,0c0,0,0.1,0,0.1,0c0.2,0,0.4,0,0.6,0C25.8,28.3,26.9,27,26.9,25.1z"/>
				</g>
			</g>
			<g>
				
					<ellipse transform="matrix(0.9999 -1.344265e-002 1.344265e-002 0.9999 -0.3503 0.3118)" class="st5" cx="23" cy="26.2" rx="1.8" ry="1.2"/>
			</g>
			<g>
				<path class="st5" d="M21.5,20.2c-0.9,0-1.6,0.3-1.6,0.6c0,0.3,0.7,0.6,1.6,0.6c0.9,0,1.6-0.3,1.6-0.6
					C23.1,20.4,22.4,20.2,21.5,20.2z"/>
			</g>
			<path class="st1" d="M21.4,20.7c0.5,0,0.9-0.1,0.9-0.2c0-0.1-0.4-0.2-0.9-0.2c-0.5,0-0.9,0.1-0.9,0.3
				C20.5,20.6,20.9,20.7,21.4,20.7z"/>
			
				<ellipse transform="matrix(0.9999 -1.348834e-002 1.348834e-002 0.9999 -0.3427 0.3111)" class="st1" cx="22.9" cy="25.6" rx="1" ry="0.5"/>
			<path class="st3" d="M16.9,9.6c0,0-2-1.1-3.6-0.2c-1.6,0.8-1.4,1.6-1.4,2.1c0,0.6,0.3-0.4,1.6-0.3c0.6,0,0.9,1.9,1.8,1.9
				C16.6,12.9,15.1,11.3,16.9,9.6z"/>
			<g>
				<path class="st5" d="M14.5,9.1c-0.9,0-1.6,0.3-1.6,0.7c0,0.4,0.7,0.6,1.6,0.6c0.9,0,1.6-0.3,1.6-0.7C16.1,9.4,15.4,9.1,14.5,9.1
					z"/>
			</g>
			<path class="st1" d="M14.4,9.7c0.5,0,0.9-0.1,0.9-0.3c0-0.2-0.4-0.3-0.9-0.3c-0.5,0-0.9,0.1-0.9,0.3C13.5,9.5,13.9,9.7,14.4,9.7z
				"/>
			
				<ellipse transform="matrix(4.954097e-002 -0.9988 0.9988 4.954097e-002 -3.2159 22.3262)" class="st3" cx="10.1" cy="12.9" rx="1.8" ry="1.5"/>
			<g>
				<path class="st5" d="M10.1,11.1c-0.6,0-1,0.5-1,1.1c0,0.6,0.5,1.1,1.1,1c0.6,0,1-0.5,1-1.1C11.2,11.6,10.7,11.1,10.1,11.1z"/>
			</g>
			
				<ellipse transform="matrix(1 -9.739798e-003 9.739798e-003 1 -0.1115 9.877132e-002)" class="st1" cx="10.1" cy="11.5" rx="0.5" ry="0.4"/>
		</g>
		<g>
			<g>
				<g>
					<path class="st2" d="M234.3,19.7l-1,0h2.4c4-0.7,5.9-3.6,6.9-7c0.6,0.8,1.3,3.5,0,5.6c3.1-1.6,4.6,1.4,4.6,1.4h8.7c0,0,0,0,0,0
						s-4.1-5.1-9.1-4.2c0.4-0.5,0.7-1.1,0.7-1.9c0-1.4-0.9-2.6-2.1-2.6c-0.4,0-0.7,0.1-1,0.3c0,0,0,0,0,0c-0.8-3-4.2-2.8-5.4-1.8
						c1.2,5-1.8,7.5-4.3,7.5c-2,0-3.3-1.4-3.4-3c0.5,0.3,1.1,0.5,1.7,0.5c1.7,0,3.1-1.3,3.1-2.9c0-1.3-1-2.4-2.2-2.8
						c-0.5-0.2-1.1-0.3-1.7-0.3c-1.3,0.1-3.6,1.3-3.6,5.1S231.2,19.7,234.3,19.7z M247.1,20c0,0-1.5,3-4.6,1.4
						c1.3,2.1,0.6,4.8,0,5.6c-1-3.4-2.8-6.3-6.9-7h-2.4l1,0c-3,0-5.8,2.2-5.8,6c0,3.8,2.3,5,3.6,5.1c0.6,0,1.2-0.1,1.7-0.3
						c1.3-0.3,2.2-1.5,2.2-2.8c0-1.6-1.4-2.9-3.1-2.9c-0.6,0-1.2,0.2-1.7,0.5c0.1-1.6,1.4-3,3.4-3c2.5,0,5.5,2.5,4.3,7.5
						c1.1,0.9,4.6,1.2,5.4-1.8c0,0,0,0,0-0.1c0.3,0.2,0.7,0.4,1,0.4c1.1,0,2.1-1.2,2.1-2.6c0-0.7-0.2-1.3-0.6-1.8c5,0.8,9-4.2,9-4.2
						s0,0,0,0H247.1z"/>
				</g>
			</g>
			<path class="st3" d="M244.2,22.4c0,0,0.1,2.2,0.2,2.7c0,0.8,0.6,1.3,1.2,1.3s1.1-0.7,1.1-1.4c0-0.5-0.2-0.9-0.6-1.1
				C245.9,23.8,245,23,244.2,22.4z"/>
			<path class="st3" d="M244.4,22.8c0,0,0.1,1.3,0.1,1.5c0,0.4,0.3,0.8,0.7,0.7c0.4,0,0.6-0.4,0.6-0.8c0-0.3-0.1-0.5-0.3-0.6
				C245.4,23.6,244.9,23.1,244.4,22.8z"/>
			<g>
				<g class="st4">
					<path class="st5" d="M254.5,18.4c-0.7-0.7-1.8-1.6-2.9-2.1c-3.3-1.3-4.7-0.6-5.8-0.1c-0.8,0.4,0.9,0.5,2.4,2
						c1.3,1.3,1.8,1.9,3.9,1.9C254.1,20.1,255.4,19.3,254.5,18.4z"/>
				</g>
			</g>
			<g class="st4">
				<g>
					<path class="st5" d="M238.2,16c-1.3,1.1-2.2,1.2-3.9,1.2c-2.5,0-4.1-2.1-4-4.2c0-0.7,0.2-1.3,0.4-1.8c0.4,0.5,1.2,0.9,2.1,0.9
						c1.4,0.1,2.5-0.7,2.6-1.6c0-0.8-0.7-1.5-1.7-1.8c0,0,0,0,0-0.1c-0.1,0-0.3,0-0.4,0c-0.1,0-0.2,0-0.3,0c0,0,0,0,0,0c0,0,0,0,0,0
						c-0.1,0-0.2,0-0.2,0c-0.6,0-1.1,0.2-1.5,0.4c-1.5,0.8-2.3,2.5-2.3,4.1c0,2.2,2.1,5.1,5.3,5.1C238.5,18.4,239.5,14.9,238.2,16z"
						/>
				</g>
			</g>
			<g>
				
					<ellipse transform="matrix(1.382376e-002 -0.9999 0.9999 1.382376e-002 219.7606 242.4296)" class="st5" cx="232.8" cy="9.8" rx="1.2" ry="1.8"/>
			</g>
			
				<ellipse transform="matrix(1.338990e-002 -0.9999 0.9999 1.338990e-002 220.6405 241.9162)" class="st1" cx="232.9" cy="9.2" rx="0.5" ry="1"/>
			<g>
				<path class="st5" d="M251.1,16c1.2,0.4,2,1.2,1.8,1.8c-0.2,0.6-1.4,0.7-2.6,0.3c-1.2-0.4-2-1.2-1.8-1.8S249.9,15.6,251.1,16z"/>
			</g>
			<path class="st1" d="M250.9,17c-0.7-0.2-1.1-0.6-1-0.9c0.1-0.3,0.7-0.3,1.4-0.1c0.7,0.2,1.1,0.6,1,0.9
				C252.1,17.2,251.5,17.2,250.9,17z"/>
			<g>
				<g class="st4">
					<path class="st5" d="M234.2,20.2c-3.2,0-5.3,2.8-5.3,4.9c0,1.9,1.1,3.1,3.4,3.3c0.2,0,0.4,0,0.6,0c0,0,0.1,0,0.1,0
						c0,0,0.1,0,0.1,0c0.1,0,0.3,0,0.4,0c0,0,0,0,0,0c1-0.2,1.7-0.9,1.7-1.7c0-0.9-1.2-1.6-2.5-1.5c-1,0.1-1.9,0.6-2.2,1.2
						c0-0.2-0.1-0.5-0.1-0.8c-0.1-2,2.1-4.1,4.4-4.1c2.4,0,2.4,0.9,3.7,0.9C239.8,22.4,238.3,20.2,234.2,20.2z"/>
				</g>
			</g>
			<g>
				
					<ellipse transform="matrix(1.382910e-002 -0.9999 0.9999 1.382910e-002 203.353 258.6106)" class="st5" cx="232.8" cy="26.2" rx="1.2" ry="1.8"/>
			</g>
			<g>
				<path class="st5" d="M234.3,20.2c0.9,0,1.6,0.3,1.6,0.6c0,0.3-0.7,0.6-1.6,0.6c-0.9,0-1.6-0.3-1.6-0.6
					C232.7,20.4,233.4,20.2,234.3,20.2z"/>
			</g>
			<path class="st1" d="M234.4,20.7c-0.5,0-0.9-0.1-0.9-0.2c0-0.1,0.4-0.2,0.9-0.2c0.5,0,0.9,0.1,0.9,0.3
				C235.3,20.6,234.9,20.7,234.4,20.7z"/>
			
				<ellipse transform="matrix(1.338990e-002 -0.9999 0.9999 1.338990e-002 204.2348 258.1037)" class="st1" cx="232.9" cy="25.6" rx="0.5" ry="1"/>
			<path class="st3" d="M238.9,9.6c0,0,2-1.1,3.6-0.2c1.6,0.8,1.4,1.6,1.4,2.1c0,0.6-0.3-0.4-1.6-0.3c-0.6,0-0.9,1.9-1.8,1.9
				C239.2,12.9,240.7,11.3,238.9,9.6z"/>
			<g>
				<path class="st5" d="M241.3,9.1c0.9,0,1.6,0.3,1.6,0.7c0,0.4-0.7,0.6-1.6,0.6c-0.9,0-1.6-0.3-1.6-0.7
					C239.7,9.4,240.4,9.1,241.3,9.1z"/>
			</g>
			<path class="st1" d="M241.4,9.7c-0.5,0-0.9-0.1-0.9-0.3c0-0.2,0.4-0.3,0.9-0.3c0.5,0,0.9,0.1,0.9,0.3
				C242.3,9.5,241.9,9.7,241.4,9.7z"/>
			
				<ellipse transform="matrix(0.9988 -4.982531e-002 4.982531e-002 0.9988 -0.3352 12.257)" class="st3" cx="245.7" cy="12.9" rx="1.5" ry="1.8"/>
			<g>
				<path class="st5" d="M245.7,11.1c0.6,0,1,0.5,1,1.1c0,0.6-0.5,1.1-1.1,1c-0.6,0-1-0.5-1-1.1C244.6,11.6,245.1,11.1,245.7,11.1z"
					/>
			</g>
			
				<ellipse transform="matrix(8.491202e-003 -1 1 8.491202e-003 232.1347 257.1069)" class="st1" cx="245.7" cy="11.5" rx="0.4" ry="0.5"/>
		</g>
	</g>
</g>
</svg>
