<?xml version="1.0" encoding="utf-8"?>
<!-- Generator: Adobe Illustrator 19.2.0, SVG Export Plug-In . SVG Version: 6.00 Build 0)  -->
<svg version="1.1" id="Layer_1" xmlns="http://www.w3.org/2000/svg" xmlns:xlink="http://www.w3.org/1999/xlink" x="0px" y="0px"
	 viewBox="0 0 310.7 51.2" style="enable-background:new 0 0 310.7 51.2;" xml:space="preserve">
<style type="text/css">
	.st0{fill:#F7931E;}
	.st1{fill:none;}
</style>
<g>
	<path class="st0" d="M111,34.6c0.1-0.1,0.1,0,0.1,0.1c0,0.6-0.2,1.1-0.5,1.3l-4.1,2.3c-0.1,0-0.1,0-0.1-0.1c0-0.3,0.1-0.8,0.2-1
		c0.1-0.2,0.3-0.3,0.7-0.5L111,34.6z"/>
	<path class="st0" d="M109.9,18.4c0.2-0.2,0.2-0.2,0.3-0.1c0.5,0.5,1,1.1,1.5,1.4c0.2,0.1,0.2,0.2,0,0.3c-0.5,0.5-0.9,1-1.3,1.5
		c-0.1,0.1-0.2,0.1-0.3,0c-0.4-0.3-0.9-0.7-1.4-1.2c-0.3,0.3-0.9,1-1.1,1.2c-0.1,0.1-0.2,0.2-0.4,0c-0.5-0.3-1.1-0.9-1.5-1.4
		c-0.1-0.1-0.1-0.2,0-0.3c0.4-0.5,0.9-1,1.4-1.5c0.1-0.1,0.2-0.1,0.3,0.1c0.4,0.4,1,1,1.4,1.2C109.1,19.3,109.7,18.7,109.9,18.4z
		 M112.9,30.8c0.5,0.3,0.9,0.5,1.2,0.5h0.3c0.7,0,1.1,0.4,1.1,1.1c0,0.8-0.4,1.2-1.1,1.2H114c-0.8,0-1.5-0.3-2.3-0.9
		c-0.7-0.6-1.2-1.6-1.4-3c-0.2,0.4-0.4,0.7-0.8,1c-0.6,0.4-1.6,0.6-2.6,0.6c-0.7,0-1.4-0.1-1.4-0.7c0.3-2.2,0.6-2.6,1.7-3.4
		c0.5-0.4,1.8-1.2,2.3-1.6c0-0.2,0-0.4,0-0.5c0-0.5,0.1-0.8,0.4-1.2c0.2-0.3,0.3-0.5,0.4-0.5c0.1,0,0.2,0.2,0.2,0.5
		c0.3,2.1,0.5,3.8,0.8,4.8C111.6,29.5,112.1,30.3,112.9,30.8z M109.9,26.8c-0.9,0.6-2.5,1.6-2.6,1.9c0,0.2,0.3,0.2,0.7,0.2
		c0.6,0,1.5-0.2,2.2-0.5C110.1,27.8,110,27.5,109.9,26.8z"/>
	<path class="st0" d="M118.9,29.9c0,0.6,0.6,1.2,1.4,1.4c0.2,0,0.3,0,0.5,0h0.1c0.9,0,0.9,0.7,0.9,1c0,0.3,0,1.3-0.8,1.3h-0.2
		c-0.2,0-0.3,0-0.6,0c-1.5-0.2-2.1-1.5-2.2-1.7c-0.2,0.6-1.5,1.7-3.7,1.7h-0.1c-0.6,0-1-0.6-1-1.1c0-0.6,0.3-1.1,1-1.1h0.7
		c1,0,2.4-0.2,3.3-1.6c0.3-0.5,0.4-0.5,0.5-0.5C118.8,29.2,118.9,29.4,118.9,29.9z M119.7,24c0.1,0.1,0.1,0.1,0,0.2
		c-0.2,0.3-1.1,1.2-1.4,1.7c-0.1,0.1-0.1,0.1-0.2,0c-0.5-0.3-1.5-1-1.7-1.4c-0.1-0.1-0.1-0.1,0-0.2c0.3-0.5,0.9-1.2,1.3-1.6
		c0.2-0.2,0.2-0.2,0.3-0.1C118.3,23,119,23.6,119.7,24z"/>
	<path class="st0" d="M132.3,17.7c0.1,0,0.1,0,0.1,0.1c0,0.3-0.5,1.3-0.7,1.6c0,0.1-0.1,0.1-0.2,0.2c-0.7,0.2-5.9,2.3-8.2,3.8
		c2.2,1.2,4.4,3.8,4.4,5.4c0,1.6-0.5,2.7-1.3,3.5c-1.4,0.8-3.2,1.2-5.4,1.2h-0.3c-0.4,0-0.7-0.5-0.7-1.1c0-0.6,0.3-1.1,0.7-1.1h0.2
		c3,0,5.4-0.7,5.9-1.2c0-1.4-2.4-3.7-4.2-4.6c-0.3-0.1-0.5-0.3-0.7-0.5c-0.1-0.2-0.2-0.5-0.2-0.9c0-0.5,0.1-1.1,0.4-1.4
		c0.7-0.7,1.4-1.2,2.9-2c2.8-1.5,5.7-2.5,6.8-2.9C131.9,17.8,132.2,17.7,132.3,17.7z"/>
	<path class="st0" d="M137.7,33.6c-0.7,0-1.2-0.1-1.7-0.5c-0.7-0.6-1.1-1.7-1.3-3.1c-0.2-1.1-0.2-2.3-0.3-3.7
		c-0.1-2-0.2-5.1-0.5-6.9c0-0.1,0-0.2,0-0.2c0-0.1,0-0.2,0.2-0.4c0.3-0.5,0.5-0.8,0.7-1.2c0.2-0.3,0.2-0.3,0.3-0.3
		c0.1,0,0.2,0.2,0.3,0.7c0.4,3.5,0.1,8.4,0.6,11.1c0.1,0.7,0.2,0.9,0.4,1.3c0.3,0.6,0.7,0.9,1.4,1c0.8,0,1.2,0.4,1.2,1.1
		c0,0.9-0.4,1.2-1.1,1.2H137.7z"/>
	<path class="st0" d="M143.5,25.4c-0.7,0-1.1-0.7-1.1-1.5c0-0.2,0-0.5,0.1-0.8c0.1-0.2,0.2-0.8,0.5-0.8c0.1,0,0.2,0.2,0.2,0.6v0.3
		c0,0.3,0.2,0.5,0.6,0.5h0c0.5,0,0.8-0.3,0.9-1c0.1-0.3,0.2-1.1,0.6-1.1c0.1,0,0.2,0.2,0.2,0.5c0,0.2,0.1,0.3,0.4,0.3
		c0.5,0,0.8-0.3,0.9-0.8c0.1-0.7,0.2-0.8,0.4-0.8c0.2,0,0.3,0.7,0.3,1.1c0,0.3,0,0.6-0.2,1c-0.2,0.7-0.7,1.2-1.5,1.2
		c-0.2,0-0.4-0.1-0.5-0.1c-0.1-0.1-0.1,0-0.2,0.1C144.7,24.9,144.2,25.4,143.5,25.4z M147.4,18.5C147.5,18.5,147.5,18.6,147.4,18.5
		c0,0.5-0.2,0.9-0.4,1.2c-0.1,0.1-0.2,0.2-0.5,0.3l-4,1.9c0,0-0.1,0-0.1-0.1c0-0.2,0.1-0.5,0.2-0.7c0.2-0.3,0.2-0.4,0.3-0.5
		c0.1-0.1,0.2-0.1,0.3-0.2L147.4,18.5z"/>
	<path class="st0" d="M146.6,29c0.1,0,0.2,0.1,0.2,0.5c0,0.1,0,0.3,0,0.5c0,0.7,0.5,1.1,1.2,1.1c1,0,1.5-1,1.9-1.8
		c0-0.1,0.2-0.4,0.3-0.4c0.1,0,0.2,0.1,0.2,0.6c0.1,1.1,0.7,1.7,1.5,1.7h0.3c0.7,0,1.1,0.3,1.1,1c0,0.8-0.4,1.3-1.1,1.3H152
		c-1.3,0-2-0.6-2.2-1.9c-0.3,0.9-1.2,2-2.3,2c-1.1,0-1.6-0.9-1.7-1.9c-0.4,1.1-1.5,1.9-2.7,1.9c-1.2,0-2-0.4-2.3-1.6
		c-0.2,0.4-0.4,0.8-0.8,1.1c-0.4,0.3-1.1,0.5-2.1,0.5h-0.2c-0.7,0-1-0.4-1-1.2c0-0.7,0.3-1.1,1-1.1h0.3c1.6,0,2.6-0.6,3.2-1.7
		c0-0.1,0.2-0.3,0.3-0.3c0.2,0,0.2,0.2,0.2,0.5c0,0.9,0.8,1.3,1.8,1.3c1.2,0,2.1-0.5,2.8-1.7C146.3,29.2,146.4,29,146.6,29z"/>
	<path class="st0" d="M154.4,32.5c-0.5,0.7-1.2,1-2.3,1h-0.2c-0.7,0-1-0.4-1-1.2c0-0.7,0.3-1.1,1-1.1h0.2c0.5,0,1-0.1,1.5-0.2
		c0.4-0.1,0.6-0.3,0.7-0.4c0-1.7-0.6-5.4-0.9-8.9c0-0.4-0.3-1.6-0.4-2.1c0-0.1,0-0.2,0-0.2c0-0.3,0.3-0.9,0.5-1.3
		c0.3-0.5,0.5-0.9,0.7-0.9c0.1,0,0.1,0.1,0.2,0.2c0.3,1,0.6,1.5,0.8,1.8c0.1,0.1,0.1,0.2,0.1,0.3c0,0,0,0.1,0,0.1
		c-0.1,0.2-0.4,0.8-0.6,1.1c0.2,3.4,0.7,6.2,0.7,7.8C155.4,30.2,155.1,31.5,154.4,32.5z"/>
	<path class="st0" d="M160,33.6c-0.1,0-0.2-0.2-0.2-0.7c0-3-1.1-11.3-1.1-12.7c0-0.7,0.5-1.7,0.9-2.5c0.1-0.2,0.3-0.5,0.5-0.5
		c0.1,0,0.2,0.2,0.2,0.8c0.1,2.2,0.7,7.3,0.7,11c0,1.5-0.1,2.7-0.4,3.5C160.4,33.2,160.2,33.6,160,33.6z"/>
	<path class="st0" d="M176.9,12.3c0,0.5-0.1,1-0.3,1.5c0.2,0.1,0.4,0.3,0.4,0.4c0,0.4-0.2,0.7-0.3,1c-0.1,0.1-0.1,0.1-0.1,0.1
		l-0.5-0.3c-0.5,0.8-1.3,1.8-2.5,2.3c-0.4,0.2-0.9,0.4-1.5,0.4c-0.3,0-0.4-0.1-0.4-0.1c0-0.1,0.2-0.2,0.6-0.4
		c0.9-0.5,2.5-1.8,3.1-2.5c-0.5-0.3-1.1-0.7-1.1-1.4c0-0.4,0.2-0.9,0.6-1.3c0.4-0.5,0.8-0.8,1.2-0.8
		C176.7,11.1,176.9,11.8,176.9,12.3z M175.1,12.8C175.1,12.8,175.1,12.8,175.1,12.8c0,0.2,0.4,0.5,0.8,0.7c0.1-0.2,0.1-0.4,0.1-0.7
		c0-0.3-0.1-0.4-0.3-0.4C175.5,12.3,175.3,12.5,175.1,12.8z"/>
	<path class="st0" d="M170.6,34.3c-0.9-0.8-1.4-2.1-1.4-3.4c0-1.5,0.9-3.2,1.4-3.9c0.2-0.3,0.4-0.4,0.5-0.4c0.1,0,0.1,0.1,0.1,0.2
		c0,0.1-0.1,0.3-0.2,0.5c-0.4,0.9-0.9,1.8-0.9,2.9c0,0.8,0.6,1.6,1.4,2.1c0.8,0.5,1.7,0.8,2.7,0.8c2.4,0,5.7-1,6.4-2.7
		c0-0.2,0-0.3,0-0.4c0-1.1-0.3-2.3-0.9-3.1c-0.2-0.4-0.4-0.7-0.5-0.8c0,0,0-0.1,0-0.2c0-0.2,0.1-0.5,0.2-0.8
		c0.2-0.4,0.3-0.8,0.4-1.1c0.1-0.1,0.1-0.2,0.2-0.2c0.1,0,0.1,0,0.2,0.3c0.7,1.5,1.3,2.9,1.3,4.7c0,1.4-0.2,2.3-0.3,2.7
		c-0.4,0.9-0.6,1.3-1.1,1.8c-0.5,0.5-1.4,1.2-2.5,1.6c-1.1,0.5-2.4,0.7-4.1,0.7C172.5,35.3,171.4,35.1,170.6,34.3z M177.1,20.5
		c0.1,0.1,0.1,0.1,0,0.2c-0.2,0.3-1.1,1.2-1.4,1.7c-0.1,0.1-0.1,0.1-0.2,0c-0.5-0.3-1.5-1-1.7-1.4c-0.1-0.1-0.1-0.1,0-0.2
		c0.3-0.5,0.9-1.2,1.3-1.6c0.2-0.2,0.2-0.2,0.3-0.1C175.7,19.4,176.4,20,177.1,20.5z"/>
	<path class="st0" d="M180.6,39.5c-0.3-0.2-0.4-0.3-0.4-0.4c0-0.1,0.2-0.2,0.4-0.2c0.3,0,1.1,0.2,1.8,0.2c0.6,0,1.2-0.2,2.1-0.6
		c2.4-1.2,3.9-3,3.9-4.2c0-0.2,0-0.3-0.1-0.7h-0.7c-0.5,0-1.5-0.1-2.2-0.5c-0.7-0.4-1-0.9-1-1.5c0-0.6,0.3-1.4,0.6-2.2
		c0.6-1.3,1.2-2.2,1.9-2.2c0.7,0,1.3,0.5,1.8,1.1c0.5,0.7,0.7,1.8,0.7,2.8h1c0.6,0,0.9,0.3,0.9,1c0,0.8-0.3,1.2-0.9,1.2l-1.1,0.1
		c-0.2,3.5-1.3,5.8-4.1,6.9c-0.2,0.1-0.4,0.1-0.6,0.1C183.6,40.6,181.9,40.1,180.6,39.5z M186.8,29.9c-0.1-0.1-0.3-0.2-0.6-0.2
		c-0.5,0-0.8,0.5-0.8,0.8c0,0.2,0.2,0.5,0.8,0.7c0.4,0.2,0.9,0.2,1.1,0.2c0.2,0,0.2,0,0.2-0.1C187.7,31,187.3,30.2,186.8,29.9z"/>
	<path class="st0" d="M191.6,21.2c0,0-0.1,0-0.1,0c-0.3,0-0.6-0.2-0.8-0.4c-0.3-0.3-0.4-0.7-0.4-1.2c0-0.2,0-0.5,0.1-0.7
		c0.1-0.2,0.3-0.7,0.5-0.7c0.1,0,0.1,0.1,0.1,0.4c0,0.1,0,0.3,0,0.4c0,0.4,0.2,0.6,0.7,0.6h0c0.4,0,0.8-0.3,0.9-0.9
		c0.1-0.2,0.3-1,0.6-1c0.1,0,0.2,0.1,0.2,0.4v0.1c0,0.3,0.1,0.4,0.4,0.4c0,0,0.1,0,0.2,0c0.4-0.1,0.6-0.4,0.7-0.8
		c0.2-0.5,0.3-0.7,0.4-0.7c0.1,0,0.2,0.1,0.2,0.3c0,0.2,0,0.3,0,0.5c0,0.4-0.1,0.8-0.3,1.2c-0.3,0.6-0.7,1.1-1.4,1.1
		c-0.3,0-0.4-0.1-0.6-0.2c-0.1-0.1-0.1-0.1-0.2,0C192.5,20.8,192.1,21.1,191.6,21.2z M194.8,13c0,0.2,0,0.2,0,0.3
		c0,0.4-0.1,0.8-0.3,1.2c0.2,0.1,0.3,0.2,0.3,0.3c0,0.3-0.1,0.6-0.3,0.9l-0.5-0.3c-0.5,0.8-1,1.3-1.3,1.6c-0.3,0.2-0.9,0.4-1.6,0.4
		c-0.4,0-0.5-0.1-0.3-0.2c1.3-0.8,2.2-1.5,2.7-2.2c-0.4-0.3-0.9-0.6-0.9-1.1c0-0.3,0.2-0.7,0.5-1.1c0.3-0.5,0.7-0.7,1-0.7
		C194.6,12.3,194.7,12.7,194.8,13z M193.3,13.7c0.1,0.2,0.3,0.3,0.7,0.5c0.1-0.1,0.1-0.4,0.1-0.5c0-0.2-0.1-0.4-0.3-0.4
		C193.6,13.3,193.4,13.4,193.3,13.7z"/>
	<path class="st0" d="M194.8,29.9c0,0.6,0.6,1.2,1.4,1.4c0.2,0,0.3,0,0.5,0h0.1c0.9,0,0.9,0.7,0.9,1c0,0.3,0,1.3-0.8,1.3h-0.2
		c-0.2,0-0.3,0-0.6,0c-1.5-0.2-2.1-1.5-2.2-1.7c-0.2,0.6-1.5,1.7-3.7,1.7h-0.1c-0.6,0-1-0.6-1-1.1c0-0.6,0.3-1.1,1-1.1h0.7
		c1,0,2.4-0.2,3.3-1.6c0.3-0.5,0.4-0.5,0.5-0.5C194.7,29.2,194.8,29.4,194.8,29.9z M195.7,24c0.1,0.1,0.1,0.1,0,0.2
		c-0.2,0.3-1.1,1.2-1.4,1.7c-0.1,0.1-0.1,0.1-0.2,0c-0.5-0.3-1.5-1-1.7-1.4c-0.1-0.1-0.1-0.1,0-0.2c0.3-0.5,0.9-1.2,1.3-1.6
		c0.2-0.2,0.2-0.2,0.3-0.1C194.2,23,195,23.6,195.7,24z"/>
	<path class="st0" d="M199.2,32.5c-0.5,0.7-1.2,1-2.3,1h-0.2c-0.7,0-1-0.4-1-1.2c0-0.7,0.3-1.1,1-1.1h0.2c0.5,0,1-0.1,1.5-0.2
		c0.4-0.1,0.6-0.3,0.7-0.4c0-1.7-0.6-5.4-0.9-8.9c0-0.4-0.3-1.6-0.4-2.1c0-0.1,0-0.2,0-0.2c0-0.3,0.3-0.9,0.5-1.3
		c0.3-0.5,0.5-0.9,0.7-0.9c0.1,0,0.1,0.1,0.2,0.2c0.3,1,0.6,1.5,0.8,1.8c0.1,0.1,0.1,0.2,0.1,0.3c0,0,0,0.1,0,0.1
		c-0.1,0.2-0.4,0.8-0.6,1.1c0.2,3.4,0.7,6.2,0.7,7.8C200.2,30.2,199.8,31.5,199.2,32.5z"/>
	<path class="st0" d="M204.8,33.6c-0.1,0-0.2-0.2-0.2-0.7c0-3-1.1-11.3-1.1-12.7c0-0.7,0.5-1.7,0.9-2.5c0.1-0.2,0.3-0.5,0.5-0.5
		c0.1,0,0.2,0.2,0.2,0.8c0.1,2.2,0.7,7.3,0.7,11c0,1.5-0.1,2.7-0.4,3.5C205.1,33.2,204.9,33.6,204.8,33.6z"/>
	<rect class="st1" width="310.7" height="51.2"/>
</g>
</svg>
