<?xml version="1.0" encoding="utf-8"?>
<!-- Generator: Adobe Illustrator 21.0.0, SVG Export Plug-In . SVG Version: 6.00 Build 0)  -->
<svg version="1.1" id="Layer_1" xmlns="http://www.w3.org/2000/svg" xmlns:xlink="http://www.w3.org/1999/xlink" x="0px" y="0px"
	 viewBox="0 0 120.4 42.1" style="enable-background:new 0 0 120.4 42.1;" xml:space="preserve">
<style type="text/css">
	.st0{fill:#429DA0;}
</style>
<g>
	<path class="st0" d="M11.1,23.3c0,0.2-0.3,1.3-0.9,3.2c-0.2,0.5-0.3,0.8-0.4,1c-0.2,0.5-0.5,0.8-0.8,1C7.2,29.5,5.6,30,4.3,30
		C1.4,30,0,29.3,0,27.9c0-1.3,0.8-3.1,2.4-5.5c1.1-1.8,2.4-3.5,3.7-5c1.2,1,2.4,1.9,3.6,2.9C10.6,21.2,11.1,22.1,11.1,23.3z
		 M10.5,12.8c-0.9,1.3-1.7,2.1-2.3,2.4l-3.1-1.5c-0.8,1-1.4,1.4-1.6,1.4c-0.3,0-0.9-0.2-1.7-0.7c-0.8-0.5-1.3-0.8-1.4-0.9
		c0.7-0.9,1.5-1.6,2.3-2.3c1.7,1,2.6,1.4,2.8,1.4c0.1,0,0.4-0.2,0.9-0.7c0.6-0.5,0.9-0.7,1-0.7C7.6,11.2,8.6,11.7,10.5,12.8z
		 M9,25.8v-0.3c-0.7-1.4-1.9-2.8-3.8-4.1C4.8,22,4.3,22.5,3.9,23C3.3,23.9,3,24.5,3,24.8c0,0.9,0.7,1.4,2.1,1.4
		C6.1,26.2,7.4,26.1,9,25.8z"/>
	<path class="st0" d="M29.9,30h-3.4c-0.3,0-0.7-0.2-1.1-0.7c-0.2,1.3-1,3-2.4,4.8c-1.7,2.4-3.3,3.6-5,3.6c-0.9,0-2.4-0.4-4.4-1.3
		c-2-0.8-3.2-1.5-3.7-2v-0.3c0.1-0.1,0.2-0.1,0.4-0.1c0.1,0,0.6,0.2,1.6,0.6c1,0.4,1.8,0.6,2.3,0.6c1.3,0,3.2-0.9,5.4-2.7
		c2.3-1.8,3.4-3.2,3.4-4.1c0-0.7-0.8-1.9-2.5-3.7l2.2-3.4c2.1,2.6,4.1,4.2,6,4.9h1.1V30z"/>
	<path class="st0" d="M41.8,23.9c0,0.4-0.1,1.1-0.2,1.9c-0.3,1.8-0.5,3.2-0.8,4.2h-12v-3.8h10.5c-0.1,0-0.3-0.3-0.5-0.9
		c-0.2-0.7-0.4-1.2-0.5-1.3c-0.1-0.3-0.5-0.8-1.1-1.6c-0.5-0.6-0.8-1-0.8-1.1c0,0.1,0.7-1.1,2.2-3.5c0.6,0.6,1.2,1.4,1.8,2.4
		c0.6,1.1,1,2,1.1,2.7C41.7,23.4,41.8,23.8,41.8,23.9z M41.1,14.1c-0.2,0.4-0.6,0.9-1.1,1.6c-1.2,0.1-3.2,0.9-6,2.4v-0.3
		c0-0.4,0.4-0.9,1.4-1.6c0.2-0.1,0.4-0.2,0.8-0.4c-0.5-0.2-1-0.3-1.5-0.4c-0.6-0.2-1-0.6-1-1.1c0-0.3,0.1-0.7,0.4-1.2
		c0.5-1.2,1.4-2.1,2.6-2.5c0.4-0.2,0.8-0.2,1.2-0.2l0.8,0.1c0.1,0.1,0.2,0.1,0.2,0.2c0.1,0.1,0.1,0.2,0.1,0.3c0,0.1,0.1,0.2,0.1,0.3
		c0,0.1-0.2,0.5-0.6,1.4c-0.3-0.4-0.6-0.6-0.9-0.7c-0.4-0.1-0.6-0.2-0.8-0.2c-0.3,0-0.6,0.1-1,0.3c-0.2,0.1-0.4,0.3-0.7,0.5
		c-0.1,0-0.1,0.1-0.1,0.2c0,0.3,0.2,0.5,0.6,0.7c0.7,0.4,2,0.6,3.8,0.6C39.9,14.1,40.4,14.1,41.1,14.1z"/>
	<path class="st0" d="M50.1,22.8c0,2.8-0.7,5.2-2.1,7.2l-1.9-14.9c0-0.3,0.4-1,1.3-2.4c0.7-1.1,1.3-1.9,1.7-2.4L50.1,22.8z"/>
	<path class="st0" d="M63.3,25.4c0,1.1-0.1,2.2-0.4,3.3c-0.1,0.4-0.3,0.9-0.7,1.3h-9.9l0.4-3.8h8.1c0,0,0.1-0.1,0.1-0.3
		c0-0.2-0.1-0.6-0.4-1.2c-0.5-1.3-1.9-2.6-4.3-3.7l1-4.1c1.4,0.5,2.6,1.4,3.7,2.7c1.1,1.3,1.8,2.6,2,3.9
		C63.2,24.4,63.3,25,63.3,25.4z"/>
	<path class="st0" d="M91.7,38.9c-0.2,0.6-0.9,1.2-2.3,1.9c-1.2,0.6-2.5,1-4,1.2c-0.6,0.1-1.5,0.1-2.7,0.1c-6.3,0-9.4-2.3-9.4-6.9
		c0-0.2,0-0.7,0.1-1.4c0.1-1.4,0.4-2.8,1-4.2c0.5-1.2,1-2.2,1.6-3c0,0,0.7-0.7,2.1-2c-0.7-0.8-1.8-1.1-3.2-0.9
		c0.3-1,0.5-1.8,0.6-2.4c0.1-0.5,0.5-1.1,1.2-1.6c0.7-0.5,1.3-0.8,1.8-0.8c0.3,0,0.7,0,1.2,0c1.2,0,2.4,0.3,3.5,0.9
		c1.2,0.6,1.9,1.4,1.9,2.3c0,0.4-0.1,0.8-0.3,1.2c-0.2,0.4-0.5,1-0.8,1.6c-0.6,0.2-1.1,0.4-1.5,0.6c0.5,0.5,0.8,0.7,0.9,0.7h7.6V30
		h-9c-0.6-0.9-1.3-2.1-2.1-3.6c-0.7,0.3-1.5,0.9-2.3,1.8c-0.8,0.9-1.4,1.7-1.7,2.4c-0.3,0.7-0.5,1.5-0.5,2.2c0,0.7,0.1,1.4,0.4,1.9
		c1.1,2,3.5,3.2,7.3,3.8c0.2,0,1.7,0.1,4.5,0.3L91.7,38.9z"/>
	<path class="st0" d="M109,0c0,0.8-0.5,1.6-1.4,2.2c-0.8,0.5-1.6,1-2.4,1.5c-0.8,0.5-1.9,1.2-3.5,2.2c0.1-0.4,0.3-1,0.7-1.6
		C103.9,3.3,106.1,1.9,109,0z"/>
	<path class="st0" d="M100.6,25.8c0,0-0.1,0.1-0.2,0.2c-0.1,0.1-0.1,0.2-0.2,0.2V30h-2.9c-0.3,0-0.6-0.2-0.9-0.5
		c-0.3-0.3-0.5-0.6-0.6-0.9C95,29.5,94.4,30,94,30h-5.1v-3.8l6.5-0.1c0.4,0,0.6-0.4,0.8-1.2c0-0.4,0.1-0.9,0.1-1.3
		c0.6-0.8,1.7-1.9,3.3-3.4c0,0.5-0.1,1.3-0.5,2.4c-0.6,1.8-0.9,2.7-0.9,2.8c0.6,0.5,1.1,0.8,1.6,0.8c0.1,0,0.2-0.1,0.4-0.2
		C100.4,25.8,100.5,25.8,100.6,25.8z"/>
	<path class="st0" d="M120.4,23.5c0,0.3-0.5,1.4-1.4,3.3c-1,2.2-1.8,3.2-2.3,3.2H98.5v-3.9h2.3c2.5-1.5,5.1-3.1,7.6-4.6
		c3.2-1.8,5.3-2.8,6.3-2.8c0.9,0,2.1,0.6,3.6,1.7S120.4,22.6,120.4,23.5z M110,14.3c0,0.2-0.4,0.6-1.2,1.2c-0.8,0.6-1.3,0.9-1.4,0.9
		c-0.2,0-0.7-0.3-1.4-1c-0.7-0.6-1.1-1-1.2-1.2c0.1-0.2,0.6-0.6,1.3-1.3c0.7-0.7,1.1-1,1.3-1c0.1,0,0.6,0.3,1.4,1
		C109.5,13.7,110,14.1,110,14.3z M116.6,25.5c0.1-0.6-0.4-1.3-1.6-1.9c-1-0.6-1.8-0.9-2.4-0.9c-0.8,0-2.1,0.5-3.7,1.4
		c-1.2,0.6-2.3,1.3-3.5,2h9.9C115.7,26.1,116.1,25.9,116.6,25.5z"/>
</g>
</svg>
