<?xml version="1.0" encoding="utf-8"?>
<!-- Generator: Adobe Illustrator 19.2.0, SVG Export Plug-In . SVG Version: 6.00 Build 0)  -->
<svg version="1.1" id="Layer_1" xmlns="http://www.w3.org/2000/svg" xmlns:xlink="http://www.w3.org/1999/xlink" x="0px" y="0px"
	 viewBox="0 0 282.4 45.8" style="enable-background:new 0 0 282.4 45.8;" xml:space="preserve">
<style type="text/css">
	.st0{fill:#BA0017;}
	.st1{fill:none;}
</style>
<g>
	<g>
		<g>
			<g>
				<g>
					<path d="M76.9,34.2c0,0.3-0.2,0.7-0.5,1c-0.6,0.2-1.6,0.6-3,1.2c0-0.3,0.2-0.6,0.5-0.9C74.3,35.2,75.3,34.8,76.9,34.2z"/>
					<path d="M79.7,27.1c0,0.8-0.3,1.6-1,2.4c-0.6,0.7-1.3,1.4-2.1,1.9c-0.8,0.5-1.5,0.8-2,0.8c-0.5,0-1-0.1-1.6-0.2
						c-0.4-0.1-0.9-0.3-1.5-0.5c-0.5-0.2-1-0.4-1.5-0.6l0.2-0.4c0.5,0.1,0.9,0.2,1.4,0.3s1,0.1,1.4,0.1c0.9,0,1.8-0.3,2.8-0.9
						c0.9-0.5,1.6-1.2,2.3-2c0.6-0.8,0.9-1.5,0.9-2.2c0-0.6-0.2-1.1-0.5-1.7c-0.3-0.5-0.6-1-1.1-1.5L78,21c0.6,0.5,1,1.1,1.3,1.6
						c0.3,0.6,0.5,1.3,0.5,2V27.1z"/>
					<path d="M84.9,15.3c0,0.4-0.2,0.8-0.5,1.2c-0.3,0.3-0.7,0.5-1.2,0.5c-0.4,0-0.7-0.1-0.9-0.3c-0.2-0.2-0.3-0.5-0.3-0.9
						c0-0.5,0.1-1,0.4-1.4c0.3-0.4,0.6-0.6,1-0.6c0.4,0,0.7,0.2,1,0.5C84.8,14.5,84.9,14.9,84.9,15.3z M84.3,15.6
						c0-0.2-0.1-0.4-0.4-0.7s-0.5-0.4-0.7-0.4c-0.2,0-0.3,0.1-0.5,0.2s-0.2,0.3-0.2,0.5c0,0.2,0.1,0.4,0.3,0.5
						c0.2,0.1,0.4,0.1,0.8,0.1c0.2,0,0.3,0,0.4-0.1S84.3,15.7,84.3,15.6z"/>
					<path d="M85,27.1h-6v-1.8h5.2c0-0.8-0.1-1.5-0.3-1.9c-0.1-0.3-0.5-0.7-1-1.3l0.8-1.7c0.5,0.6,0.8,1.1,0.9,1.5
						c0.2,0.5,0.3,1.4,0.3,2.7V27.1z M82.5,30.2l-0.8,1.5L80,30.8l0.8-1.5L82.5,30.2z M84.9,29.2l-0.8,1.5l-1.7-0.9l0.8-1.5
						L84.9,29.2z"/>
					<path d="M92,11.5c0,0.3-0.2,0.6-0.5,1c-0.6,0.2-1.6,0.7-3,1.2c0-0.3,0.2-0.6,0.5-0.9C89.5,12.6,90.5,12.1,92,11.5z"/>
					<path d="M96.4,27.1H84.2v-1.8h8.6c-0.7-0.6-1.3-1-1.8-1.3c-0.6-0.4-1.2-0.7-1.7-0.8c-0.6-0.2-1.1-0.3-1.7-0.3
						c-0.4,0-0.7,0-1.1,0.1c0.2-0.5,0.5-0.9,0.8-1.3c0.5-0.5,1.1-0.7,1.8-0.7c0.7,0,1.6,0.4,2.5,1.1c0.5,0.4,1.3,1,2.4,2
						c0.8,0.8,1.4,1.2,1.7,1.2h0.6V27.1z M91.3,17.4l-0.8,1.5L88.8,18l0.8-1.5L91.3,17.4z"/>
					<path d="M100.8,27.1h-5.2v-1.8h4.1l-1.3-8.9L98,16.1c0-0.5,0-0.9,0.1-1.4s0.2-0.8,0.4-1.2l0.2,0.1c0,0.4,0.2,0.7,0.7,0.9
						c0.4,0.1,0.7,0.3,1.1,0.4c0,0.4,0,0.7-0.1,1.1c-0.1,0.4-0.1,0.7-0.2,0.9l-0.5-0.2l1.2,8.2V27.1z"/>
					<path d="M104.4,24.5c0,0.6-0.1,1.1-0.3,1.6c-0.1,0.3-0.3,0.7-0.7,1.3l-0.2-0.1c0-0.2,0-0.4,0.1-0.7c0-0.3,0-0.4,0-0.5
						c0-0.7-0.1-1.7-0.2-3.1c-0.1-1.3-0.3-2.7-0.4-4.1c-0.1-0.9-0.2-1.7-0.3-2.6c0.1-0.3,0.3-0.6,0.5-1c0.2-0.4,0.3-0.7,0.5-1
						c0.1,0.8,0.3,1.9,0.4,3.3s0.3,2.6,0.4,3.8C104.3,22.7,104.4,23.8,104.4,24.5z"/>
					<path d="M118.1,31.5c0,0.3-0.2,0.7-0.5,1c-0.6,0.2-1.6,0.6-3,1.2c0-0.3,0.2-0.6,0.5-0.9C115.6,32.6,116.6,32.2,118.1,31.5z"/>
					<path d="M122.2,25.8c0,1.1-0.3,2-0.8,2.7c-0.5,0.6-1.2,1-2.1,1.3c-0.8,0.2-1.7,0.3-2.9,0.3c-1.4,0-2.4-0.2-3.1-0.7
						c-0.8-0.5-1.2-1.4-1.2-2.4c0-0.6,0.1-1.2,0.3-1.9c0.1-0.6,0.4-1.2,0.7-1.8c0.2-0.5,0.5-1.1,0.9-1.7l0.3,0.2
						c-0.3,0.5-0.5,0.9-0.7,1.3c-0.2,0.5-0.4,0.9-0.5,1.3c-0.1,0.5-0.2,0.9-0.2,1.4c0,0.9,0.3,1.5,0.9,2s1.5,0.7,2.6,0.7
						c1.2,0,2.3-0.2,3.3-0.6c1.1-0.4,1.7-1,1.7-1.6c0-0.7-0.1-1.8-0.3-3.5c-0.2-1.2-0.4-2.6-0.6-4.2l-0.3-2l-0.5-0.3
						c0-0.9,0.2-1.8,0.6-2.6h0.2c0,0.3,0.1,0.5,0.1,0.6c0.1,0.1,0.2,0.2,0.3,0.3c0.2,0.1,0.5,0.2,0.7,0.3c0.2,0.1,0.4,0.2,0.5,0.2
						c0,0.5,0,0.8-0.1,1.1c0,0.2-0.1,0.5-0.2,0.9l-0.6-0.2c0,0.2,0.1,0.9,0.3,2.1c0.2,1.5,0.4,2.7,0.5,3.6
						C122.1,24,122.2,25.1,122.2,25.8z"/>
					<path d="M128.2,14.7c0,0.3-0.2,0.6-0.5,1c-0.6,0.2-1.6,0.7-3,1.2c0-0.3,0.2-0.6,0.5-0.9C125.6,15.7,126.6,15.3,128.2,14.7z"/>
					<path d="M130.7,27.1h-1.1c-0.5,0-1-0.1-1.6-0.3c-0.7-0.2-1.3-0.6-1.8-1c-0.4,0.5-0.8,0.8-1.2,1c-0.4,0.2-1,0.3-1.9,0.3h-1.6
						v-1.8h1.6c0.6,0,1.2-0.2,1.7-0.5c0.4-0.3,0.7-0.6,1.1-1.1c0.4-0.6,1-1.2,1.6-1.6c0.6-0.4,1.1-0.7,1.5-0.8
						c0.5,0.7,0.9,1.4,1.2,2c0.4,0.8,0.6,1.4,0.6,1.9V27.1z M129.4,25.1c-0.1-0.4-0.2-0.8-0.4-1.2c-0.2-0.3-0.4-0.7-0.6-1
						c-0.3,0.1-0.6,0.2-0.9,0.5c-0.2,0.1-0.3,0.4-0.5,0.7c0.3,0.3,0.6,0.5,1.1,0.7c0.5,0.2,0.9,0.4,1.3,0.4L129.4,25.1z"/>
					<path d="M137.2,14.7c0,0.3-0.2,0.6-0.5,1c-0.6,0.2-1.6,0.7-3,1.2c0-0.3,0.2-0.6,0.5-0.9C134.6,15.7,135.7,15.3,137.2,14.7z"/>
					<path d="M140.8,23.9l-0.7,1.9c-1.1,0.4-2.3,0.7-3.7,1c-1.4,0.3-2.7,0.4-3.8,0.4h-2.6v-1.8h2.5c-0.2-0.3-0.4-0.7-0.5-1.1
						c-0.1-0.4-0.2-0.8-0.2-1.2c0-0.8,0.3-1.5,1-2.1c0.7-0.6,1.6-0.8,2.7-0.8c0.9,0,1.6,0.2,2.1,0.6c0.2,0.2,0.6,0.6,1.2,1.3
						l-0.2,0.2c-0.5-0.1-0.9-0.2-1.3-0.3c-0.4-0.1-0.8-0.1-1.2-0.1c-1,0-1.7,0.1-2.3,0.3c-0.6,0.2-0.8,0.5-0.8,0.8
						c0,0.3,0.2,0.7,0.5,1.2c0.3,0.4,0.8,0.8,1.3,1.1c1.1-0.2,2.1-0.3,2.8-0.5C138.4,24.5,139.5,24.3,140.8,23.9z"/>
					<path d="M160.6,27.1h-1.8c-1.1,0-1.9,0-2.4,0.1c-0.5,0.1-0.8,0.2-0.8,0.3c0,0.2,0.3,0.3,1,0.3c0.3,0,0.5,0,0.7,0
						c0.2,0,0.5,0.1,1.1,0.1c0.3,0,0.6,0.1,0.7,0.2c0.2,0.1,0.3,0.3,0.3,0.5c0,1.3-0.4,2.3-1.3,2.9c-0.9,0.7-2.5,1-4.7,1
						c-1.5,0-2.7-0.3-3.6-0.8c-0.9-0.5-1.4-1.3-1.4-2.3c0-0.8,0.2-1.7,0.7-2.6c0.2-0.3,0.6-1,1.3-2.1l0.4,0.2
						c-0.3,0.5-0.5,0.9-0.8,1.4c-0.4,0.8-0.6,1.4-0.6,1.9c0,0.9,0.4,1.5,1.3,2c0.9,0.4,2,0.6,3.5,0.6c1,0,1.9-0.1,2.6-0.2
						c0.9-0.2,1.4-0.4,1.4-0.8c0-0.1-0.1-0.2-0.2-0.3c-0.1-0.1-0.3-0.1-0.5-0.1c-0.2,0-0.5,0-0.9-0.1s-0.7,0-0.8,0
						c-0.4,0-0.8-0.1-0.9-0.2c-0.2-0.1-0.3-0.3-0.3-0.5c0-0.9,0.3-1.6,0.8-2.1c0.4-0.4,1-0.8,1.7-1c0.5-0.2,1.1-0.2,1.7-0.2h1.8
						V27.1z M154.1,33.9l-1,0.9l-1.2-0.7l1-1L154.1,33.9z M156.3,33.9l-1,0.9l-1.2-0.7l0.9-1L156.3,33.9z"/>
					<path d="M166.4,27.1h-6.5v-1.8h5.6c0-0.6-0.1-1.2-0.2-1.8c-0.4,0.1-0.6,0.2-0.8,0.3c-0.3,0.1-0.6,0.1-0.9,0.1
						c-0.5,0-0.9-0.1-1.3-0.4c-0.4-0.3-0.6-0.7-0.6-1.3c0-1,0.2-1.8,0.5-2.6c0.4-0.8,0.9-1.2,1.5-1.2c0.9,0,1.5,0.7,2,2
						c0.4,1.1,0.6,2.4,0.6,3.9V27.1z M165,15.5l-0.8,1.5l-1.7-0.9l0.8-1.5L165,15.5z M164.7,21.7c-0.1-0.3-0.3-0.5-0.5-0.8
						c-0.3-0.4-0.6-0.5-0.8-0.5c-0.2,0-0.3,0.1-0.5,0.2c-0.1,0.2-0.2,0.3-0.2,0.6c0,0.6,0.3,0.8,0.9,0.8c0.2,0,0.3,0,0.5-0.1
						C164.3,21.9,164.5,21.8,164.7,21.7z"/>
					<path class="st0" d="M180.2,14.7c0,0.3-0.2,0.6-0.5,1c-0.6,0.2-1.6,0.7-3,1.2c0-0.3,0.2-0.6,0.5-0.9
						C177.6,15.7,178.7,15.3,180.2,14.7z"/>
					<path class="st0" d="M183.7,27.1c0,1.6-0.5,2.7-1.4,3.4c-1,0.8-2.6,1.2-4.8,1.2c-1.4,0-2.5-0.2-3.2-0.7
						c-0.8-0.5-1.2-1.4-1.2-2.5c0-0.6,0.1-1.2,0.2-1.8c0.1-0.6,0.3-1.2,0.6-1.9c0.2-0.4,0.4-1,0.8-1.7l0.4,0.2c-0.5,1-0.8,1.8-1,2.4
						c-0.2,0.6-0.2,1.1-0.2,1.6c0,0.9,0.3,1.5,0.9,2s1.5,0.7,2.7,0.7c1.3,0,2.5-0.2,3.5-0.7c1.3-0.6,1.9-1.4,1.9-2.4
						c0-0.7-0.1-1.4-0.3-2c-0.2-0.5-0.4-1-0.8-1.4l0.9-2.2c0.4,0.6,0.6,1.1,0.8,1.7c0.1,0.6,0.2,1.4,0.2,2.3V27.1z M179.8,19.1
						l-0.8,1.5l-1.6-0.9l0.8-1.5L179.8,19.1z"/>
					<path class="st0" d="M188.9,15.3c0,0.4-0.2,0.8-0.5,1.2c-0.3,0.3-0.7,0.5-1.2,0.5c-0.4,0-0.7-0.1-0.9-0.3
						c-0.2-0.2-0.3-0.5-0.3-0.9c0-0.5,0.1-1,0.4-1.4c0.3-0.4,0.6-0.6,1-0.6c0.4,0,0.7,0.2,1,0.5C188.7,14.5,188.9,14.9,188.9,15.3z
						 M188.2,15.6c0-0.2-0.1-0.4-0.4-0.7s-0.5-0.4-0.7-0.4c-0.2,0-0.3,0.1-0.5,0.2s-0.2,0.3-0.2,0.5c0,0.2,0.1,0.4,0.3,0.5
						c0.2,0.1,0.4,0.1,0.8,0.1c0.2,0,0.3,0,0.4-0.1S188.2,15.7,188.2,15.6z"/>
					<path class="st0" d="M188.9,27.1h-6v-1.8h5.2c0-0.8-0.1-1.5-0.3-1.9c-0.1-0.3-0.5-0.7-1-1.3l0.8-1.7c0.5,0.6,0.8,1.1,0.9,1.5
						c0.2,0.5,0.3,1.4,0.3,2.7V27.1z M186.5,30.2l-0.8,1.5l-1.7-0.9l0.8-1.5L186.5,30.2z M188.9,29.2l-0.8,1.5l-1.7-0.9l0.8-1.5
						L188.9,29.2z"/>
					<path class="st0" d="M195.4,14.7c0,0.3-0.2,0.6-0.5,1c-0.6,0.2-1.6,0.7-3,1.2c0-0.3,0.2-0.6,0.5-0.9
						C192.9,15.7,193.9,15.3,195.4,14.7z"/>
					<path class="st0" d="M197.4,27.1h-1.5c-0.5,0-0.9-0.1-1.4-0.3c-0.6-0.3-1-0.6-1.2-1.1c-0.5,0.4-1,0.7-1.6,1
						c-0.7,0.3-1.6,0.4-2.5,0.4h-0.9v-1.8h0.9c0.6,0,1.1-0.1,1.6-0.2c0.6-0.1,1.1-0.4,1.7-0.7l-0.4-0.6c-0.2-0.3-0.5-0.4-0.8-0.4
						c-0.1,0-0.2,0-0.3,0.1s-0.2,0.1-0.3,0.3h-0.2v-0.6c0-0.8,0.2-1.3,0.6-1.6c0.4-0.3,1-0.4,1.9-0.4c0.8,0,1.4,0.1,1.9,0.3
						c0.7,0.3,1,0.7,1,1.3c0,0.3-0.1,0.6-0.4,0.9c-0.2,0.2-0.5,0.6-1,1c0.1,0.2,0.3,0.3,0.6,0.4c0.3,0.1,0.6,0.2,0.8,0.2h1.5V27.1z"
						/>
					<path class="st0" d="M203.6,15.3c0,0.4-0.2,0.8-0.5,1.2c-0.3,0.3-0.7,0.5-1.2,0.5c-0.4,0-0.7-0.1-0.9-0.3
						c-0.2-0.2-0.3-0.5-0.3-0.9c0-0.5,0.1-1,0.4-1.4c0.3-0.4,0.6-0.6,1-0.6c0.4,0,0.7,0.2,1,0.5C203.5,14.5,203.6,14.9,203.6,15.3z
						 M203,15.6c0-0.2-0.1-0.4-0.4-0.7s-0.5-0.4-0.7-0.4c-0.2,0-0.3,0.1-0.5,0.2s-0.2,0.3-0.2,0.5c0,0.2,0.1,0.4,0.3,0.5
						c0.2,0.1,0.4,0.1,0.8,0.1c0.2,0,0.3,0,0.4-0.1S203,15.7,203,15.6z"/>
					<path class="st0" d="M208.8,27.1H208c-0.4,0-0.8-0.1-1.2-0.2c-0.3-0.1-0.6-0.3-0.9-0.5c-0.3,0.3-0.6,0.4-0.9,0.5
						c-0.4,0.1-0.8,0.2-1.5,0.2H203c-0.4,0-0.7-0.1-1.1-0.2c-0.2-0.1-0.5-0.2-0.9-0.5c-0.3,0.3-0.6,0.4-0.9,0.5s-0.7,0.1-1.4,0.1h-2
						v-1.8h2c0.6,0,1,0,1.2-0.1c0.4-0.2,0.6-0.5,0.6-1c0-0.2,0-0.4,0-0.6s-0.1-0.4-0.1-0.7l0.4-0.6c0.2,0.6,0.4,1.1,0.5,1.4
						c0.2,0.5,0.5,0.9,0.7,1.2c0.3,0.3,0.7,0.5,1.2,0.5h0.7c0.5,0,0.9-0.1,1.2-0.2c0.3-0.2,0.4-0.5,0.4-0.9c0-0.2,0-0.4,0-0.6
						c0-0.2-0.1-0.4-0.1-0.7l0.4-0.6l0.2,1c0.2,0.8,0.4,1.3,0.7,1.6c0.2,0.3,0.6,0.4,1,0.4c0.2,0,0.3-0.1,0.5-0.2
						c0.1-0.1,0.2-0.3,0.2-0.4c0-0.4-0.1-0.8-0.4-1.2c0-0.1-0.2-0.3-0.5-0.7l0.7-1.1c0.3,0.4,0.5,0.8,0.6,1.1
						c0.2,0.5,0.2,1.1,0.2,1.9V27.1z"/>
					<path class="st0" d="M212.4,24.5c0,0.6-0.1,1.1-0.3,1.6c-0.1,0.3-0.3,0.7-0.7,1.3l-0.2-0.1c0-0.2,0-0.4,0.1-0.7
						c0-0.3,0-0.4,0-0.5c0-0.7-0.1-1.7-0.2-3.1c-0.1-1.3-0.3-2.7-0.4-4.1c-0.1-0.9-0.2-1.7-0.3-2.6c0.1-0.3,0.3-0.6,0.5-1
						c0.2-0.4,0.3-0.7,0.5-1c0.1,0.8,0.3,1.9,0.4,3.3s0.3,2.6,0.4,3.8C212.3,22.7,212.4,23.8,212.4,24.5z"/>
				</g>
			</g>
		</g>
	</g>
	<rect class="st1" width="282.4" height="45.8"/>
</g>
</svg>
