<?xml version="1.0" encoding="utf-8"?>
<!-- Generator: Adobe Illustrator 19.2.0, SVG Export Plug-In . SVG Version: 6.00 Build 0)  -->
<svg version="1.1" id="Layer_1" xmlns="http://www.w3.org/2000/svg" xmlns:xlink="http://www.w3.org/1999/xlink" x="0px" y="0px"
	 viewBox="0 0 282.4 45.8" style="enable-background:new 0 0 282.4 45.8;" xml:space="preserve">
<style type="text/css">
	.st0{fill:#BA0017;}
	.st1{fill:none;}
</style>
<g>
	<g>
		<g>
			<g>
				<g>
					<path d="M102.2,16.6c0,0.3-0.2,0.6-0.5,1c-0.6,0.2-1.6,0.7-3,1.2c0-0.3,0.2-0.6,0.5-0.9C99.7,17.7,100.7,17.3,102.2,16.6z"/>
					<path d="M107.7,27.8c0,1.1-0.3,2-0.8,2.7c-0.5,0.6-1.2,1-2.1,1.3c-0.8,0.2-1.7,0.3-2.9,0.3c-1.4,0-2.4-0.2-3.1-0.7
						c-0.8-0.5-1.2-1.4-1.2-2.4c0-0.6,0.1-1.2,0.3-1.9c0.1-0.6,0.4-1.2,0.7-1.8c0.2-0.5,0.5-1.1,0.9-1.7l0.3,0.2
						c-0.3,0.5-0.5,0.9-0.7,1.3c-0.2,0.5-0.4,0.9-0.5,1.3c-0.1,0.5-0.2,0.9-0.2,1.4c0,0.9,0.3,1.5,0.9,2s1.5,0.7,2.6,0.7
						c1.2,0,2.3-0.2,3.3-0.6c1.1-0.4,1.7-1,1.7-1.6c0-0.7-0.1-1.8-0.3-3.5c-0.2-1.2-0.4-2.6-0.6-4.2l-0.3-2l-0.5-0.3
						c0-0.9,0.2-1.8,0.6-2.6h0.2c0,0.3,0.1,0.5,0.1,0.6c0.1,0.1,0.2,0.2,0.3,0.3c0.2,0.1,0.5,0.2,0.7,0.3c0.2,0.1,0.4,0.2,0.5,0.2
						c0,0.5,0,0.8-0.1,1.1c0,0.2-0.1,0.5-0.2,0.9l-0.6-0.2c0,0.2,0.1,0.9,0.3,2.1c0.2,1.5,0.4,2.7,0.5,3.6
						C107.6,25.9,107.7,27,107.7,27.8z"/>
					<path d="M111.2,26.4c0,0.6-0.1,1.1-0.3,1.6c-0.1,0.3-0.3,0.7-0.7,1.3l-0.2-0.1c0-0.2,0-0.4,0.1-0.7c0-0.3,0-0.4,0-0.5
						c0-0.7-0.1-1.7-0.2-3.1c-0.1-1.3-0.3-2.7-0.4-4.1c-0.1-0.9-0.2-1.7-0.3-2.6c0.1-0.3,0.3-0.6,0.5-1c0.2-0.4,0.3-0.7,0.5-1
						c0.1,0.8,0.3,1.9,0.4,3.3s0.3,2.6,0.4,3.8C111.2,24.7,111.2,25.7,111.2,26.4z"/>
					<path d="M119.4,29.1h-4.7c-0.4,0-0.8-0.1-1.1-0.3c-0.3-0.2-0.5-0.5-0.5-0.8c0-0.3,0-0.5,0-0.7c0-0.2,0.1-0.5,0.2-0.7h0.2
						c0.1,0.3,0.2,0.5,0.4,0.6c0.2,0.1,0.4,0.2,0.7,0.2h4.1c0-1.3-0.2-2.3-0.5-3c-0.4-1-1.2-1.6-2.2-1.9l0.2-2
						c1.2,0.6,2.1,1.5,2.6,2.8c0.4,1.1,0.6,2.4,0.6,4.1V29.1z"/>
					<path d="M124.4,34.6c0,0.3-0.2,0.7-0.5,1c-0.6,0.2-1.6,0.6-3,1.2c0-0.3,0.2-0.6,0.5-0.9C121.9,35.6,122.9,35.2,124.4,34.6z"/>
					<path d="M130.8,29.1h-12.1v-1.8h8.6c-0.7-0.6-1.3-1-1.8-1.3c-0.6-0.4-1.2-0.7-1.7-0.8c-0.6-0.2-1.1-0.3-1.7-0.3
						c-0.4,0-0.7,0-1.1,0.1c0.2-0.5,0.5-0.9,0.8-1.3c0.5-0.5,1.1-0.7,1.8-0.7c0.7,0,1.6,0.4,2.5,1.1c0.5,0.4,1.3,1,2.4,2
						c0.8,0.8,1.4,1.2,1.7,1.2h0.6V29.1z M125.5,31.4l-0.8,1.5L123,32l0.8-1.5L125.5,31.4z"/>
					<path d="M135.3,29.1h-5.2v-1.8h4.1l-1.3-8.9l-0.5-0.3c0-0.5,0-0.9,0.1-1.4s0.2-0.8,0.4-1.2l0.2,0.1c0,0.4,0.2,0.7,0.7,0.9
						c0.4,0.1,0.7,0.3,1.1,0.4c0,0.4,0,0.7-0.1,1.1c-0.1,0.4-0.1,0.7-0.2,0.9l-0.5-0.2l1.2,8.2V29.1z"/>
					<path d="M138.8,26.4c0,0.6-0.1,1.1-0.3,1.6c-0.1,0.3-0.3,0.7-0.7,1.3l-0.2-0.1c0-0.2,0-0.4,0.1-0.7c0-0.3,0-0.4,0-0.5
						c0-0.7-0.1-1.7-0.2-3.1c-0.1-1.3-0.3-2.7-0.4-4.1c-0.1-0.9-0.2-1.7-0.3-2.6c0.1-0.3,0.3-0.6,0.5-1c0.2-0.4,0.3-0.7,0.5-1
						c0.1,0.8,0.3,1.9,0.4,3.3s0.3,2.6,0.4,3.8C138.8,24.7,138.8,25.7,138.8,26.4z"/>
					<path class="st0" d="M153.5,16.8c0,0.5-0.1,1-0.3,1.3c-0.2,0.4-0.5,0.6-0.8,0.6c-0.1,0-0.2,0-0.4-0.1c-0.1,0-0.2-0.1-0.4-0.2
						c-0.1,0.2-0.3,0.4-0.4,0.6c-0.2,0.2-0.5,0.3-0.7,0.3c-0.3,0-0.5-0.1-0.7-0.3c-0.1-0.2-0.2-0.5-0.2-0.8c0-0.2,0-0.4,0.1-0.6
						c0-0.1,0.1-0.3,0.2-0.6l0.2-0.1c0,0.1,0,0.1,0,0.3c0,0.1,0,0.2,0,0.3c0,0.2,0,0.3,0.1,0.4c0.1,0.1,0.2,0.2,0.3,0.2
						c0.3,0,0.5-0.2,0.7-0.6c0.1-0.2,0.2-0.5,0.3-1.1l0.2-0.1c0.1,0.3,0.1,0.6,0.1,0.6c0.1,0.2,0.2,0.3,0.4,0.3
						c0.3,0,0.5-0.2,0.6-0.5c0.1-0.3,0.2-0.6,0.2-0.9l0.2-0.1c0,0.1,0.1,0.3,0.1,0.5C153.5,16.5,153.5,16.7,153.5,16.8z M153.3,14.2
						c0,0.3-0.2,0.6-0.5,1c-0.6,0.2-1.6,0.6-3,1.2c0-0.3,0.2-0.6,0.5-0.9C150.8,15.3,151.8,14.9,153.3,14.2z"/>
					<path class="st0" d="M157,29.1c0,1.6-0.5,2.7-1.4,3.4c-1,0.8-2.6,1.2-4.8,1.2c-1.4,0-2.5-0.2-3.2-0.7c-0.8-0.5-1.2-1.4-1.2-2.5
						c0-0.6,0.1-1.2,0.2-1.8c0.1-0.6,0.3-1.2,0.6-1.9c0.2-0.4,0.4-1,0.8-1.7l0.4,0.2c-0.5,1-0.8,1.8-1,2.4c-0.2,0.6-0.2,1.1-0.2,1.6
						c0,0.9,0.3,1.5,0.9,2s1.5,0.7,2.7,0.7c1.3,0,2.5-0.2,3.5-0.7c1.3-0.6,1.9-1.4,1.9-2.4c0-0.7-0.1-1.4-0.3-2
						c-0.2-0.5-0.4-1-0.8-1.4l0.9-2.2c0.4,0.6,0.6,1.1,0.8,1.7c0.1,0.6,0.2,1.4,0.2,2.3V29.1z M153.1,21l-0.8,1.5l-1.6-0.9l0.8-1.5
						L153.1,21z"/>
					<path class="st0" d="M162.5,14.3c0,0.1,0,0.2,0,0.4c0,0.1,0,0.3-0.1,0.4l-0.9-0.5c-0.4,0.4-0.6,0.6-0.7,0.8
						c-0.5,0.5-1,0.8-1.3,0.8h-0.8c0.4-0.2,0.8-0.5,1.3-0.9c0.4-0.4,0.8-0.7,1-0.9c-0.2-0.1-0.4-0.3-0.5-0.4
						c-0.1-0.2-0.2-0.4-0.2-0.6c0-0.5,0.1-0.9,0.4-1.2c0.3-0.4,0.6-0.5,0.9-0.5c0.2,0,0.3,0.1,0.5,0.3c0.1,0.2,0.2,0.4,0.2,0.7
						c0,0.1,0,0.3-0.1,0.4s-0.1,0.4-0.3,0.8c0.1,0.1,0.2,0.2,0.3,0.3C162.5,14,162.5,14.1,162.5,14.3z M161.7,13.1
						c0-0.2-0.1-0.4-0.2-0.5c-0.1-0.2-0.3-0.2-0.4-0.2c-0.1,0-0.1,0-0.2,0.1c0,0-0.1,0.1-0.1,0.1c0,0.2,0.1,0.3,0.3,0.5l0.5,0.4
						C161.7,13.2,161.7,13.1,161.7,13.1z"/>
					<path class="st0" d="M165.5,29.1h-9.2v-1.8h8c-0.5-0.7-1.1-1.4-1.7-1.9c-0.6-0.5-1.5-1.1-2.6-1.8l-0.3,0.3l-1.2-0.9
						c-0.4-0.4-0.7-0.6-0.7-0.9c0-1.2,0.3-2.2,0.9-2.8c0.5-0.6,1.5-1.2,2.8-1.7l3-1.2v1.8l-2.2,0.7c-0.9,0.3-1.6,0.6-2.1,0.8
						c-0.7,0.3-1,0.5-1,0.7s0.2,0.4,0.7,0.7c0.3,0.2,0.6,0.4,0.9,0.6c1.1,0.8,2,1.6,2.8,2.5c0.9,0.9,1.5,1.9,2.1,2.9V29.1z"/>
					<path class="st0" d="M172.1,17.4c0,0.1,0,0.2,0,0.4c0,0.1,0,0.3-0.1,0.4l-0.9-0.5c-0.4,0.4-0.6,0.6-0.7,0.8
						c-0.5,0.5-1,0.8-1.3,0.8h-0.8c0.4-0.2,0.8-0.5,1.3-0.9c0.4-0.4,0.8-0.7,1-0.9c-0.2-0.1-0.4-0.3-0.5-0.4
						c-0.1-0.2-0.2-0.4-0.2-0.6c0-0.5,0.1-0.9,0.4-1.2c0.3-0.4,0.6-0.5,0.9-0.5c0.2,0,0.3,0.1,0.5,0.3c0.1,0.2,0.2,0.4,0.2,0.7
						c0,0.1,0,0.3-0.1,0.4s-0.1,0.4-0.3,0.8c0.1,0.1,0.2,0.2,0.3,0.3C172,17.2,172.1,17.3,172.1,17.4z M171.3,16.2
						c0-0.2-0.1-0.4-0.2-0.5c-0.1-0.2-0.3-0.2-0.4-0.2c-0.1,0-0.1,0-0.2,0.1c0,0-0.1,0.1-0.1,0.1c0,0.2,0.1,0.3,0.3,0.5l0.5,0.4
						C171.2,16.4,171.3,16.3,171.3,16.2z"/>
					<path class="st0" d="M176,29.1c0,0.8-0.3,1.6-1,2.4c-0.6,0.7-1.3,1.4-2.1,1.9c-0.8,0.5-1.5,0.8-2,0.8c-0.5,0-1-0.1-1.6-0.2
						c-0.4-0.1-0.9-0.3-1.5-0.5c-0.5-0.2-1-0.4-1.5-0.6l0.2-0.4c0.5,0.1,0.9,0.2,1.4,0.3s1,0.1,1.4,0.1c0.9,0,1.8-0.3,2.8-0.9
						c0.9-0.5,1.6-1.2,2.3-2c0.6-0.8,0.9-1.5,0.9-2.2c0-0.6-0.2-1.1-0.5-1.7c-0.3-0.5-0.6-1-1.1-1.5l0.6-1.7c0.6,0.5,1,1.1,1.3,1.6
						c0.3,0.6,0.5,1.3,0.5,2V29.1z"/>
					<path class="st0" d="M181.2,14.1c0,0.4-0.2,0.8-0.5,1.2c-0.3,0.3-0.7,0.5-1.2,0.5c-0.4,0-0.7-0.1-0.9-0.3
						c-0.2-0.2-0.3-0.5-0.3-0.9c0-0.5,0.1-1,0.4-1.4c0.3-0.4,0.6-0.6,1-0.6c0.4,0,0.7,0.2,1,0.5C181.1,13.3,181.2,13.7,181.2,14.1z
						 M180.6,14.4c0-0.2-0.1-0.4-0.4-0.7s-0.5-0.4-0.7-0.4c-0.2,0-0.3,0.1-0.5,0.2s-0.2,0.3-0.2,0.5c0,0.2,0.1,0.4,0.3,0.5
						c0.2,0.1,0.4,0.1,0.8,0.1c0.2,0,0.3,0,0.4-0.1S180.6,14.5,180.6,14.4z"/>
					<path class="st0" d="M181.3,29.1h-6v-1.8h5.2c0-0.8-0.1-1.5-0.3-1.9c-0.1-0.3-0.5-0.7-1-1.3l0.8-1.7c0.5,0.6,0.8,1.1,0.9,1.5
						c0.2,0.5,0.3,1.4,0.3,2.7V29.1z M178.8,19.7l-0.8,1.5l-1.7-0.9l0.8-1.5L178.8,19.7z M181.2,18.7l-0.8,1.5l-1.7-0.9l0.8-1.5
						L181.2,18.7z"/>
					<path class="st0" d="M184.8,26.4c0,0.6-0.1,1.1-0.3,1.6c-0.1,0.3-0.3,0.7-0.7,1.3l-0.2-0.1c0-0.2,0-0.4,0.1-0.7
						c0-0.3,0-0.4,0-0.5c0-0.7-0.1-1.7-0.2-3.1c-0.1-1.3-0.3-2.7-0.4-4.1c-0.1-0.9-0.2-1.7-0.3-2.6c0.1-0.3,0.3-0.6,0.5-1
						c0.2-0.4,0.3-0.7,0.5-1c0.1,0.8,0.3,1.9,0.4,3.3s0.3,2.6,0.4,3.8C184.8,24.7,184.8,25.7,184.8,26.4z"/>
				</g>
			</g>
		</g>
	</g>
	<rect class="st1" width="282.4" height="45.8"/>
</g>
</svg>
