<?xml version="1.0" encoding="utf-8"?>
<!-- Generator: Adobe Illustrator 19.2.0, SVG Export Plug-In . SVG Version: 6.00 Build 0)  -->
<svg version="1.1" id="Layer_1" xmlns="http://www.w3.org/2000/svg" xmlns:xlink="http://www.w3.org/1999/xlink" x="0px" y="0px"
	 viewBox="0 0 282.4 45.8" style="enable-background:new 0 0 282.4 45.8;" xml:space="preserve">
<style type="text/css">
	.st0{fill:#CC4A6C;}
	.st1{fill:none;}
</style>
<g>
	<g>
		<g>
			<g>
				<path class="st0" d="M30.8,36.8h-2.1c-1.1-1.7-1.9-3.4-2.5-5.2c-0.6-1.8-0.9-3.5-0.9-5.2c0-2.1,0.4-4,1.1-5.9
					c0.6-1.6,1.4-3.1,2.4-4.5h2.1c-1,2.2-1.7,4-2,5.6s-0.6,3.1-0.6,4.9c0,1.2,0.1,2.4,0.3,3.6c0.2,1.2,0.5,2.4,0.9,3.5
					C29.7,34.4,30.2,35.4,30.8,36.8z"/>
				<path class="st0" d="M40.7,29h-1.4c-0.3,0-0.5-0.1-0.7-0.2c-0.4-0.2-0.8-0.6-1.1-1.1c-0.4-0.8-0.6-1.8-0.8-3.1
					c-0.5,0.6-0.9,1-1.1,1.3c-0.4,0.4-0.7,0.6-1,0.6c-0.1,0-0.3,0-0.5-0.1l-1.3-0.3c-0.6-0.1-0.9-0.2-1-0.2c-0.1,0-0.2-0.1-0.2-0.3
					c0-0.2,0.3-0.8,0.8-1.8s0.9-1.7,1.1-1.9c0.2-0.2,0.5-0.4,1-0.8c0.3-0.2,0.7-0.4,1.2-0.7l0.6-0.3c0-0.1,0-0.2,0-0.3s0-0.2,0-0.3
					c0-0.3,0.1-0.6,0.2-1c0.1-0.4,0.4-0.9,0.7-1.5l1,6.7c0.2,1.1,0.4,1.8,0.6,2.1c0.2,0.2,0.4,0.4,0.7,0.4h1.4V29z M38.2,13.9
					l-1.2,2L35.5,15l-0.9,1.7l-2-1.1l1.1-1.9l1.6,0.8l0.9-1.7L38.2,13.9z M36.5,22.9l-0.2-1.3c-0.2,0.1-0.4,0.2-0.5,0.3
					c-0.4,0.2-0.7,0.4-0.9,0.6c-0.2,0.1-0.3,0.3-0.4,0.4c-0.1,0.2-0.2,0.3-0.2,0.4c0,0.1,0.1,0.2,0.4,0.2c0.3,0.1,0.5,0.1,0.7,0.1
					c0.2,0,0.3,0,0.5-0.1C36,23.3,36.2,23.1,36.5,22.9z"/>
				<path class="st0" d="M45.9,29H40V26h4.6l-1.3-7.3l-0.7-0.5c0-0.4,0.1-0.9,0.2-1.3c0.2-0.5,0.4-1.2,0.8-2l0.5,0.3
					c0,0,0,0.2,0,0.3c0,0.2,0.2,0.5,0.5,0.7c0.3,0.2,0.7,0.4,1.3,0.7c-0.1,0.5-0.2,0.9-0.3,1.3s-0.3,0.8-0.4,1.2l-0.4-0.2l1.2,6.7
					V29z"/>
				<path class="st0" d="M51.9,29h-6.8V26h5.7c-0.1-0.5-0.2-0.9-0.4-1.2c-0.1-0.2-0.4-0.5-0.8-1l0.9-2.6c0.5,0.6,0.9,1.3,1.1,1.9
					c0.2,0.7,0.3,1.7,0.3,3V29z M51.7,30.9l-1.2,2.2L49,32.2l-0.9,1.7l-2-1.1l1.1-2.1l1.6,0.8l0.9-1.7L51.7,30.9z"/>
				<path class="st0" d="M59.1,29h-7.9V26h1.9c0.3,0,0.6,0,0.9,0c0.8,0.1,1.7,0.2,2.7,0.3c-1.1-0.2-1.8-0.6-2.2-0.9
					c-0.4-0.4-0.6-1-0.6-1.7c0-1.1,0.3-2.1,0.8-3c0.5-0.9,1.1-1.3,1.7-1.3c0.7,0,1.4,0.6,1.9,1.9c0.5,1.3,0.8,2.8,0.8,4.5V29z
					 M57.7,16l-1.2,2.2L55,17.3L54.1,19l-2-1.1l1.1-2.1l1.6,0.8l0.9-1.7L57.7,16z M57.6,24.5c-0.3-0.6-0.5-1.1-0.9-1.4
					c-0.3-0.3-0.6-0.5-0.9-0.5c-0.1,0-0.3,0-0.4,0.1c-0.1,0.1-0.2,0.2-0.2,0.3c0,0.3,0.2,0.6,0.7,0.9S57,24.4,57.6,24.5z"/>
				<path class="st0" d="M65.1,29h-6.8V26H64c-0.1-0.5-0.2-0.9-0.4-1.2c-0.1-0.2-0.4-0.5-0.8-1l0.9-2.6c0.5,0.6,0.9,1.3,1.1,1.9
					c0.2,0.7,0.3,1.7,0.3,3V29z M64.9,17.4l-1.2,2.2l-1.5-0.9l-0.9,1.7l-2-1.1l1.1-2.1l1.6,0.8l0.9-1.7L64.9,17.4z M62.8,14.9
					l-1.1,2.2l-2-1.1l1.1-2.2L62.8,14.9z"/>
				<path class="st0" d="M78.8,29h-4.9c-0.5,0-0.8-0.1-1.1-0.3c-0.3-0.2-0.5-0.6-0.5-1.2c0-0.3,0-0.7,0-1c0-0.4,0.1-0.7,0.1-1.1
					l0.4,0c0.1,0.3,0.2,0.4,0.4,0.6C73.5,26,73.8,26,74,26h3.7c-0.2-1.1-0.5-1.9-0.9-2.5c-0.3-0.5-0.8-1-1.4-1.4l0.8-3.4
					c0.9,0.7,1.6,1.6,2,2.7c0.4,1,0.5,2.4,0.5,4V29z"/>
				<path class="st0" d="M84.8,29H78V26h5.7c-0.1-0.5-0.2-0.9-0.4-1.2c-0.1-0.2-0.4-0.5-0.8-1l0.9-2.6c0.5,0.6,0.9,1.3,1.1,1.9
					c0.2,0.7,0.3,1.7,0.3,3V29z M84.6,30.9l-1.2,2.2l-1.5-0.9L81,33.9l-2-1.1l1.1-2.1l1.6,0.8l0.9-1.7L84.6,30.9z"/>
				<path class="st0" d="M92.7,29H84V26h7c-0.3-0.3-0.6-0.6-0.8-0.9c-0.2-0.2-0.5-0.4-0.9-0.7c-0.4-0.3-0.8-0.6-1.2-0.9l-0.3,0.4
					c-0.6-0.6-1-1-1.1-1.2c-0.4-0.4-0.5-0.9-0.5-1.4c0-0.7,0-1.2,0.2-1.5c0.1-0.4,0.4-0.8,0.9-1.1c0.4-0.3,0.9-0.5,1.3-0.8
					c0.4-0.2,0.9-0.4,1.5-0.7c0.3-0.1,0.9-0.4,1.8-0.7v2.6c0,0-0.3,0.1-0.9,0.3c-0.7,0.2-1.3,0.4-1.7,0.6c-0.6,0.2-0.9,0.4-0.9,0.6
					c0,0.1,0.3,0.3,0.8,0.8c0.7,0.7,1.3,1.3,1.8,1.9c0.8,0.9,1.4,1.9,1.9,2.8V29z"/>
				<path class="st0" d="M102.7,28.2c0,1.2-0.5,2.5-1.6,3.7c-1,1.2-2.1,1.8-3.1,1.8c-0.6,0-1.2-0.2-2-0.6c-0.7-0.4-1.8-1.1-3.3-2.3
					l0.5-0.6c0.8,0.5,1.4,0.9,1.9,1c0.4,0.1,0.9,0.2,1.4,0.2c0.7,0,1.4-0.2,2.1-0.6c0.8-0.5,1.6-1.2,2.5-2.2c-0.3,0-0.6,0.1-0.8,0.1
					c-0.7,0-1.3-0.2-1.7-0.7C98.3,27.6,98,27,98,26.2c0-1.1,0.2-2.1,0.7-3.1c0.5-1.1,1.2-1.6,1.8-1.6c0.6,0,1.1,0.4,1.5,1.2
					c0.4,0.8,0.6,1.7,0.6,2.8V28.2z M101.4,26c-0.2-1.2-0.6-1.7-1.2-1.7c-0.2,0-0.4,0.1-0.5,0.3c-0.1,0.2-0.2,0.4-0.2,0.6
					c0,0.3,0.1,0.5,0.4,0.6c0.3,0.2,0.7,0.3,1.1,0.3H101.4z"/>
				<path class="st0" d="M108.7,29h-6.8V26h5.7c-0.1-0.5-0.2-0.9-0.4-1.2c-0.1-0.2-0.4-0.5-0.8-1l0.9-2.6c0.5,0.6,0.9,1.3,1.1,1.9
					c0.2,0.7,0.3,1.7,0.3,3V29z M108.5,17.4l-1.2,2.2l-1.5-0.9l-0.9,1.7l-2-1.1l1.1-2.1l1.6,0.8l0.9-1.7L108.5,17.4z"/>
				<path class="st0" d="M113.9,29h-5.9V26h4.6l-1.3-7.3l-0.7-0.5c0-0.4,0.1-0.9,0.2-1.3c0.2-0.5,0.4-1.2,0.8-2l0.5,0.3
					c0,0,0,0.2,0,0.3c0,0.2,0.2,0.5,0.5,0.7c0.3,0.2,0.7,0.4,1.3,0.7c-0.1,0.5-0.2,0.9-0.3,1.3s-0.3,0.8-0.4,1.2l-0.4-0.2l1.2,6.7
					V29z"/>
				<path class="st0" d="M117.9,25.8c0,0.6-0.1,1.2-0.2,1.8c-0.2,0.5-0.4,1.2-0.9,2.1l-0.6-0.3c0.2-0.9,0.3-1.7,0.3-2.2
					c0-0.4,0-1.1-0.1-1.9s-0.2-1.7-0.3-2.5c-0.1-0.8-0.3-1.8-0.5-3c-0.1-0.4-0.1-0.7-0.1-0.8c0-0.2,0.1-0.6,0.3-1.1
					c0.2-0.5,0.5-1.2,0.9-1.9l0.6,3.8c0.2,1.5,0.4,2.7,0.5,3.8C117.8,24.3,117.9,25.1,117.9,25.8z"/>
				<path class="st0" d="M136.8,28.4c0,1-0.1,1.8-0.3,2.4s-0.5,1.1-1,1.5c-0.4,0.4-1.1,0.7-1.9,0.9c-0.9,0.2-1.7,0.4-2.6,0.4
					c-1.7,0-3.1-0.3-4-1c-0.9-0.6-1.4-1.5-1.4-2.7c0-1,0.2-1.9,0.5-2.7c0.3-0.9,1-2.1,1.9-3.6l0.6,0.5c-0.7,1.2-1.2,2.1-1.4,2.6
					c-0.2,0.5-0.3,1.1-0.3,1.7c0,0.8,0.4,1.4,1.2,1.8c0.8,0.5,1.9,0.7,3.2,0.7c1.3,0,2.4-0.2,3.3-0.7s1.3-1.1,1.3-1.8
					c0-0.4-0.1-0.9-0.2-1.3c-0.2-0.4-0.5-1.1-1-2.1l0.9-2.9c0.5,0.9,0.8,1.5,0.9,1.9c0.2,0.6,0.3,1.4,0.3,2.4V28.4z M133.2,20
					l-1.3,2.4l-2.5-1.3l1.3-2.4L133.2,20z"/>
				<path class="st0" d="M146.7,28.2c0,1.2-0.5,2.5-1.6,3.7c-1,1.2-2.1,1.8-3.1,1.8c-0.6,0-1.2-0.2-2-0.6c-0.7-0.4-1.8-1.1-3.3-2.3
					l0.5-0.6c0.8,0.5,1.4,0.9,1.9,1c0.4,0.1,0.9,0.2,1.4,0.2c0.7,0,1.4-0.2,2.1-0.6c0.8-0.5,1.6-1.2,2.5-2.2c-0.3,0-0.6,0.1-0.8,0.1
					c-0.7,0-1.3-0.2-1.7-0.7c-0.4-0.5-0.6-1.1-0.6-1.9c0-1.1,0.2-2.1,0.7-3.1c0.5-1.1,1.2-1.6,1.8-1.6c0.6,0,1.1,0.4,1.5,1.2
					c0.4,0.8,0.6,1.7,0.6,2.8V28.2z M145.4,26c-0.2-1.2-0.6-1.7-1.2-1.7c-0.2,0-0.4,0.1-0.5,0.3c-0.1,0.2-0.2,0.4-0.2,0.6
					c0,0.3,0.1,0.5,0.4,0.6c0.3,0.2,0.7,0.3,1.1,0.3H145.4z"/>
				<path class="st0" d="M152.7,29H146V26h5.7c-0.1-0.5-0.2-0.9-0.4-1.2c-0.1-0.2-0.4-0.5-0.8-1l0.9-2.6c0.5,0.6,0.9,1.3,1.1,1.9
					c0.2,0.7,0.3,1.7,0.3,3V29z M152.8,17.2l-1.3,2.4l-2.5-1.3l1.3-2.4L152.8,17.2z"/>
				<path class="st0" d="M168,29h-1.4c-0.3,0-0.5-0.1-0.7-0.2c-0.4-0.2-0.8-0.6-1.1-1.1c-0.4-0.8-0.6-1.8-0.8-3.1
					c-0.5,0.6-0.9,1-1.1,1.3c-0.4,0.4-0.7,0.6-1,0.6c-0.1,0-0.3,0-0.5-0.1l-1.3-0.3c-0.6-0.1-0.9-0.2-1-0.2c-0.1,0-0.2-0.1-0.2-0.3
					c0-0.2,0.3-0.8,0.8-1.8s0.9-1.7,1.1-1.9c0.2-0.2,0.5-0.4,1-0.8c0.3-0.2,0.7-0.4,1.2-0.7l0.6-0.3c0-0.1,0-0.2,0-0.3s0-0.2,0-0.3
					c0-0.3,0.1-0.6,0.2-1c0.1-0.4,0.4-0.9,0.7-1.5l1,6.7c0.2,1.1,0.4,1.8,0.6,2.1c0.2,0.2,0.4,0.4,0.7,0.4h1.4V29z M163.8,22.9
					l-0.2-1.3c-0.2,0.1-0.4,0.2-0.5,0.3c-0.4,0.2-0.7,0.4-0.9,0.6c-0.2,0.1-0.3,0.3-0.4,0.4c-0.1,0.2-0.2,0.3-0.2,0.4
					c0,0.1,0.1,0.2,0.4,0.2c0.3,0.1,0.5,0.1,0.7,0.1c0.2,0,0.3,0,0.5-0.1C163.3,23.3,163.5,23.1,163.8,22.9z"/>
				<path class="st0" d="M174,29h-6.8V26h5.7c-0.1-0.5-0.2-0.9-0.4-1.2c-0.1-0.2-0.4-0.5-0.8-1l0.9-2.6c0.5,0.6,0.9,1.3,1.1,1.9
					c0.2,0.7,0.3,1.7,0.3,3V29z M172.9,31.3l-1.3,2.4l-2.5-1.4l1.3-2.5L172.9,31.3z"/>
				<path class="st0" d="M194.5,29h-9.1c-0.9,0-1.4,0-1.7,0c-0.3,0-0.6-0.1-0.9-0.2c-0.6-0.2-1.1-0.6-1.5-1.2
					c-0.4-0.6-0.6-1.3-0.6-2.1c0-0.3,0-0.6,0-0.8c0-0.2,0.1-0.5,0.2-0.8c0.1-0.5,0.3-0.9,0.4-1.2c0.2-0.3,0.4-0.7,0.8-1.3l0.6,0.4
					c-0.3,0.6-0.5,1-0.6,1.3s-0.2,0.7-0.2,1c0,0.4,0.1,0.8,0.4,1.1s0.6,0.5,1,0.6c0.3,0.1,0.6,0.1,1,0.2s0.8,0.1,1.3,0.1h7.8
					c-0.2-0.5-0.4-0.9-0.5-1.2c-0.2-0.3-0.4-0.6-0.7-1l1-2.5c0.5,0.8,0.9,1.5,1.1,2.1c0.1,0.6,0.2,1.4,0.2,2.5V29z M190.7,18.7
					l-1.2,2.2l-1.5-0.9l-0.9,1.7l-2-1.1l1.1-2.1l1.6,0.8l0.9-1.7L190.7,18.7z"/>
				<path class="st0" d="M199.7,29h-5.9V26h4.6l-1.3-7.3l-0.7-0.5c0-0.4,0.1-0.9,0.2-1.3c0.2-0.5,0.4-1.2,0.8-2l0.5,0.3
					c0,0,0,0.2,0,0.3c0,0.2,0.2,0.5,0.5,0.7c0.3,0.2,0.7,0.4,1.3,0.7c-0.1,0.5-0.2,0.9-0.3,1.3s-0.3,0.8-0.4,1.2l-0.4-0.2l1.2,6.7
					V29z"/>
				<path class="st0" d="M216.7,29h-11.4c-0.5,0-0.9-0.1-1.2-0.4c-0.3-0.3-0.6-0.7-0.8-1.2c-0.5,0.6-0.9,1.1-1.3,1.3
					c-0.4,0.2-0.9,0.3-1.5,0.3l-1.5,0V26l1.5,0c0.8,0,1.5-0.2,1.9-0.6c0.5-0.5,0.8-1.3,1-2.5l0.7,0.1c0,0.3,0,0.5,0,0.6
					c0,0.5,0,0.9,0,1.1c0,0.4,0.1,0.7,0.3,0.9c0.2,0.2,0.5,0.3,0.9,0.3s0.7-0.1,1-0.2c0.3-0.1,0.8-0.4,1.4-0.9l3.9-2.8
					c0.5-0.3,0.8-0.6,1-0.7c0.5-0.3,1-0.5,1.5-0.5c0.8,0,1.4,0.3,1.9,0.9c0.6,0.7,0.8,1.7,0.8,3V29z M215.2,24.9
					c0-0.3-0.3-0.6-0.8-0.8c-0.4-0.2-0.9-0.2-1.4-0.2c-0.5,0-1,0.2-1.6,0.5c-0.6,0.3-1.5,0.9-2.6,1.7h2.8
					C214,26,215.2,25.7,215.2,24.9z"/>
				<path class="st0" d="M222.7,29H216V26h5.7c-0.1-0.5-0.2-0.9-0.4-1.2c-0.1-0.2-0.4-0.5-0.8-1l0.9-2.6c0.5,0.6,0.9,1.3,1.1,1.9
					c0.2,0.7,0.3,1.7,0.3,3V29z M222.6,17.4l-1.2,2.2l-1.5-0.9l-0.9,1.7l-2-1.1l1.1-2.1l1.6,0.8l0.9-1.7L222.6,17.4z"/>
				<path class="st0" d="M226.7,25.8c0,0.6-0.1,1.2-0.2,1.8c-0.2,0.5-0.4,1.2-0.9,2.1l-0.6-0.3c0.2-0.9,0.3-1.7,0.3-2.2
					c0-0.4,0-1.1-0.1-1.9s-0.2-1.7-0.3-2.5c-0.1-0.8-0.3-1.8-0.5-3c-0.1-0.4-0.1-0.7-0.1-0.8c0-0.2,0.1-0.6,0.3-1.1
					c0.2-0.5,0.5-1.2,0.9-1.9l0.6,3.8c0.2,1.5,0.4,2.7,0.5,3.8C226.7,24.3,226.7,25.1,226.7,25.8z"/>
				<path class="st0" d="M237.6,25.8c0,0.6-0.1,1.2-0.2,1.8c-0.2,0.5-0.4,1.2-0.9,2.1l-0.6-0.3c0.2-0.9,0.3-1.7,0.3-2.2
					c0-0.4,0-1.1-0.1-1.9s-0.2-1.7-0.3-2.5c-0.1-0.8-0.3-1.8-0.5-3c-0.1-0.4-0.1-0.7-0.1-0.8c0-0.2,0.1-0.6,0.3-1.1
					c0.2-0.5,0.5-1.2,0.9-1.9l0.6,3.8c0.2,1.5,0.4,2.7,0.5,3.8C237.6,24.3,237.6,25.1,237.6,25.8z"/>
				<path class="st0" d="M246,29h-4.9c-0.5,0-0.8-0.1-1.1-0.3c-0.3-0.2-0.5-0.6-0.5-1.2c0-0.3,0-0.7,0-1c0-0.4,0.1-0.7,0.1-1.1
					l0.4,0c0.1,0.3,0.2,0.4,0.4,0.6c0.2,0.1,0.4,0.2,0.7,0.2h3.7c-0.2-1.1-0.5-1.9-0.9-2.5c-0.3-0.5-0.8-1-1.4-1.4l0.8-3.4
					c0.9,0.7,1.6,1.6,2,2.7c0.4,1,0.5,2.4,0.5,4V29z M244.2,14.8l-1.3,2.4l-2.5-1.3l1.3-2.4L244.2,14.8z"/>
				<path class="st0" d="M250,32.7c-0.1,0.2-0.2,0.4-0.3,0.5c-0.1,0.1-0.2,0.1-0.4,0.2l-2.3,0.7c0.1-0.3,0.3-0.4,0.4-0.5
					c0.1-0.1,0.3-0.2,0.6-0.3c-0.2-0.1-0.3-0.3-0.4-0.4c-0.1-0.1-0.1-0.2-0.1-0.3c0-0.1,0-0.2,0.1-0.3c0.1-0.1,0.1-0.2,0.2-0.4
					c0.5-0.6,0.9-0.9,1.4-0.9c0.1,0,0.2,0,0.3,0.1c0.1,0.1,0.1,0.2,0.1,0.4c0,0.1,0,0.2,0,0.3s-0.1,0.2-0.2,0.4
					c-0.4-0.2-0.6-0.3-0.7-0.3c-0.1,0-0.3,0-0.4,0.1c-0.1,0-0.2,0.1-0.2,0.2c0,0.1,0.2,0.2,0.5,0.4c0.3,0.2,0.6,0.3,0.7,0.3
					C249.3,32.8,249.6,32.8,250,32.7z M250,25.8c0,0.6-0.1,1.2-0.2,1.8c-0.2,0.5-0.4,1.2-0.9,2.1l-0.6-0.3c0.2-0.9,0.3-1.7,0.3-2.2
					c0-0.4,0-1.1-0.1-1.9s-0.2-1.7-0.3-2.5c-0.1-0.8-0.3-1.8-0.5-3c-0.1-0.4-0.1-0.7-0.1-0.8c0-0.2,0.1-0.6,0.3-1.1
					c0.2-0.5,0.5-1.2,0.9-1.9l0.6,3.8c0.2,1.5,0.4,2.7,0.5,3.8C250,24.3,250,25.1,250,25.8z"/>
				<path class="st0" d="M251.5,36.8c0.6-1.3,1-2.3,1.3-2.9c0.2-0.7,0.5-1.5,0.7-2.4c0.2-0.9,0.4-1.7,0.5-2.5s0.2-1.6,0.2-2.5
					c0-1.7-0.2-3.3-0.5-4.9c-0.4-1.5-1-3.4-2-5.6h2.1c1.1,1.5,1.9,3.2,2.5,4.9s0.9,3.5,0.9,5.3c0,1.5-0.2,3.1-0.7,4.8
					c-0.5,1.9-1.4,3.8-2.7,5.7H251.5z"/>
			</g>
		</g>
	</g>
	<rect class="st1" width="282.4" height="45.8"/>
</g>
</svg>
