<?xml version="1.0" encoding="utf-8"?>
<!-- Generator: Adobe Illustrator 19.2.0, SVG Export Plug-In . SVG Version: 6.00 Build 0)  -->
<svg version="1.1" id="Layer_1" xmlns="http://www.w3.org/2000/svg" xmlns:xlink="http://www.w3.org/1999/xlink" x="0px" y="0px"
	 viewBox="0 0 282.4 45.8" style="enable-background:new 0 0 282.4 45.8;" xml:space="preserve">
<style type="text/css">
	.st0{fill:#097B70;}
	.st1{fill:none;}
</style>
<g>
	<g>
		<path class="st0" d="M135,32.2c0,1.3-0.7,2.4-2,3.4c-1.3,1-2.9,1.5-4.6,1.5c-1.4,0-2.5-0.4-3.3-1.1s-1.2-1.7-1.2-3
			c0-1.2,0.1-2.3,0.4-3.2c0.3-1,1-2.3,2-3.7l0.8,0.5c-0.6,1-1.1,1.8-1.4,2.5c-0.3,0.7-0.4,1.4-0.4,2.1c0,0.8,0.3,1.3,0.8,1.8
			c0.6,0.4,1.4,0.6,2.4,0.6c1.5,0,2.7-0.3,3.6-0.8c0.9-0.6,1.4-1.3,1.4-2.2c0-0.2,0-0.3,0-0.4c0-0.1,0-0.2,0-0.2
			c0-0.3,0-0.7-0.1-1.1c-0.1-0.4-0.2-1.2-0.4-2.4c-0.4-2-0.7-4-1.1-5.9l-0.6-0.4c0-0.8,0.4-2.1,1.1-3.7l0.6,0.3c0,0.1,0,0.2,0,0.4
			c0,0.3,0.2,0.6,0.5,0.8c0.5,0.3,1,0.6,1.4,0.8c-0.1,0.7-0.2,1.2-0.3,1.5c-0.1,0.3-0.3,0.8-0.6,1.4l-0.4-0.1c0,0.1,0.1,0.8,0.4,2.1
			c0.2,1.3,0.4,2.4,0.6,3.4c0.2,1.3,0.3,2.2,0.3,2.5V32.2z"/>
		<path class="st0" d="M141,32.5h-1.7c-1,0-1.7-0.4-2.1-1.2c-0.5-0.9-0.7-2.4-0.7-4.5v-3.6c0-0.8-0.1-1.4-0.3-1.9
			c-0.1-0.2-0.4-0.5-0.7-0.9l1.3-3.1c0.5,0.7,0.8,1.3,1,2c0.2,0.8,0.3,1.7,0.3,2.9v2.5c0,1.7,0.1,2.9,0.3,3.6
			c0.2,0.5,0.5,0.8,0.9,0.8h1.7V32.5z"/>
		<path class="st0" d="M147.9,32.5h-7.8v-3.4h6.6c-0.1-0.6-0.3-1-0.5-1.4c-0.1-0.2-0.4-0.6-0.9-1.1l1-3c0.6,0.7,1.1,1.4,1.3,2.2
			c0.2,0.8,0.3,1.9,0.3,3.4V32.5z M147.7,19.1l-1.4,2.5l-1.8-1l-1,2l-2.3-1.3l1.3-2.4l1.8,0.9l1-2L147.7,19.1z M145.3,16.2l-1.2,2.6
			l-2.3-1.2L143,15L145.3,16.2z"/>
		<path class="st0" d="M158.5,32.5c-0.9,0-1.9-0.2-3.1-0.5c-1-0.3-2-0.7-2.7-1.1c-0.5,0.7-1.1,1.2-1.8,1.4c-0.3,0.1-0.8,0.2-1.4,0.2
			H147v-3.4h2.5c0.7,0,1.3-0.1,1.8-0.3c0.6-0.2,1-0.6,1.2-1.2c0.5-1.1,1.1-1.9,1.8-2.6c0.7-0.6,1.2-0.9,1.7-0.9
			c0.4,0,0.9,0.6,1.6,1.9c0.7,1.4,1,2.6,1,3.7V32.5z M156.2,28.7c0-0.2-0.2-0.5-0.5-0.9c-0.4-0.5-0.7-0.7-1-0.7
			c-0.3,0-0.6,0.4-0.8,1.1c0.4,0.2,0.8,0.3,1,0.4c0.7,0.2,1.1,0.4,1.1,0.4C156.1,28.9,156.2,28.8,156.2,28.7z"/>
	</g>
	<rect class="st1" width="282.4" height="45.8"/>
</g>
</svg>
