<?xml version="1.0" encoding="utf-8"?>
<!-- Generator: Adobe Illustrator 22.0.1, SVG Export Plug-In . SVG Version: 6.00 Build 0)  -->
<svg version="1.1" id="Layer_1" xmlns="http://www.w3.org/2000/svg" xmlns:xlink="http://www.w3.org/1999/xlink" x="0px" y="0px"
	 viewBox="0 0 283.5 46.1" style="enable-background:new 0 0 283.5 46.1;" xml:space="preserve">
<style type="text/css">
	.st0{fill:#BA0017;}
</style>
<g>
	<g>
		<g>
			<path d="M31.7,18.5c-0.3,0.1-0.7,0.3-1.1,0.4s-0.7,0.3-1.1,0.5s-0.7,0.3-1,0.4c-0.3,0.1-0.5,0.2-0.7,0.3c0,0-0.1,0-0.1,0
				c0,0,0,0,0-0.1c0,0,0.1-0.1,0.1-0.2c0-0.1,0.1-0.2,0.2-0.3c0.1-0.1,0.1-0.2,0.1-0.3c0-0.1,0.1-0.1,0.1-0.2
				c0.1-0.1,0.1-0.2,0.2-0.2l3.7-1.6c0.1,0,0.1,0,0.1,0.1c0,0.1-0.1,0.1-0.1,0.2c0,0.1-0.1,0.2-0.1,0.2c0,0.1-0.1,0.2-0.1,0.2
				c0,0.1-0.1,0.1-0.1,0.2C31.8,18.4,31.8,18.4,31.7,18.5z M29.8,22.1c-0.1,0.3-0.3,0.5-0.5,0.6c-0.2,0.1-0.4,0.2-0.7,0.3
				c-0.2,0-0.4,0-0.6-0.1c-0.1-0.1-0.2-0.3-0.3-0.6c0-0.1,0-0.3,0-0.4c0-0.1,0.1-0.3,0.1-0.4c0-0.1,0.1-0.2,0.2-0.3s0.1-0.1,0.2-0.2
				c0.1,0,0.1,0,0,0.2c0,0.1,0,0.2-0.1,0.2c0,0.1,0,0.2,0,0.3s0,0.2,0,0.3c0,0.1,0.1,0.1,0.1,0.2c0.1,0.1,0.2,0.1,0.3,0.1
				s0.2,0,0.3-0.1s0.2-0.1,0.3-0.2c0.1-0.1,0.2-0.2,0.2-0.2c0.1-0.1,0.1-0.2,0.2-0.3c0-0.1,0.1-0.2,0.1-0.3c0,0,0-0.1,0-0.1
				c0,0,0-0.1,0-0.1c0,0,0-0.1,0.1-0.1c0,0,0.1-0.1,0.1-0.1c0,0,0,0,0.1,0.1c0,0,0,0.1,0,0.1c0,0,0,0.1,0,0.1c0,0,0,0.1,0,0.1
				c0,0.2,0,0.3,0.1,0.4c0.1,0.1,0.2,0.2,0.4,0.2c0.1,0,0.2,0,0.4,0s0.3-0.1,0.4-0.2c0,0,0-0.1,0-0.1s0-0.1,0-0.2c0-0.1,0-0.1,0-0.2
				c0-0.1,0-0.1,0-0.1c0,0,0-0.1,0-0.2c0-0.1,0.1-0.2,0.1-0.3s0.1-0.2,0.1-0.2c0-0.1,0.1-0.1,0.1-0.1c0.1,0,0.1,0.1,0.2,0.2
				c0,0.1,0.1,0.2,0.1,0.4c0,0.1,0,0.3,0,0.5c0,0.2,0,0.3,0,0.4c0,0.1-0.1,0.2-0.1,0.3c0,0.1-0.1,0.2-0.2,0.3
				c-0.1,0.1-0.2,0.2-0.3,0.2c-0.1,0.1-0.2,0.1-0.3,0.1c-0.2,0.1-0.4,0-0.6,0C30,22.4,29.9,22.3,29.8,22.1z"/>
			<path d="M32.6,29.9c0.1-0.3,0.1-0.5,0.2-0.8c0.1-0.2,0.1-0.4,0.2-0.7c0-0.1,0.1-0.1,0.1-0.1s0.1,0,0.1,0.1
				c0.1,0.2,0.3,0.4,0.4,0.7c0.1,0.3,0.3,0.5,0.4,0.7c0.1,0.1,0.2,0.1,0.3,0.2c0.1,0,0.3,0.1,0.4,0.1c0.1,0,0.3,0,0.4,0
				c0.1,0,0.2,0,0.2,0h0.2c0.2,0,0.4,0.1,0.5,0.2s0.2,0.3,0.2,0.5s-0.1,0.4-0.2,0.5s-0.3,0.2-0.5,0.2h-0.2c-0.4,0-0.7,0-1-0.1
				c0,0.4,0.1,0.8,0.1,1.2c0,0.4,0,0.8-0.1,1.2c-0.1,0.7-0.3,1.2-0.7,1.7c-0.4,0.5-0.8,0.8-1.3,1.1c-0.5,0.3-1.1,0.5-1.7,0.7
				s-1.2,0.2-1.8,0.2c-0.5,0-1-0.1-1.5-0.2c-0.5-0.2-0.8-0.4-1.2-0.7c-0.3-0.3-0.6-0.7-0.8-1.1C25.1,35.1,25,34.6,25,34
				c0-0.6,0.1-1.2,0.3-1.8c0.2-0.6,0.5-1.1,0.8-1.6c0-0.1,0.1-0.1,0.1-0.1c0,0,0.1,0,0.1,0.1c0,0,0,0.1,0,0.1c0,0,0,0.1,0,0.1
				c-0.3,0.6-0.5,1.2-0.6,1.8c-0.1,0.6,0,1.2,0.2,1.7c0.1,0.3,0.2,0.5,0.4,0.7c0.2,0.2,0.4,0.4,0.6,0.5c0.2,0.2,0.5,0.3,0.8,0.4
				c0.3,0.1,0.7,0.1,1.1,0.1c0.4,0,0.9,0,1.3-0.1c0.5-0.1,0.9-0.2,1.3-0.4s0.8-0.4,1.2-0.6c0.4-0.3,0.7-0.6,1-0.9c0-0.3,0-0.6-0.1-1
				c-0.1-0.4-0.1-0.7-0.2-1.1c-0.1-0.4-0.2-0.7-0.4-1.1C32.9,30.5,32.7,30.2,32.6,29.9z M30.6,25.7l1.2,1c0.1,0,0.1,0.1,0,0.2
				l-0.8,1c0,0.1-0.1,0.1-0.2,0l-1.2-1c-0.1,0-0.1-0.1,0-0.2l0.8-1C30.5,25.6,30.5,25.6,30.6,25.7z"/>
			<path d="M36.6,21.9c-0.1,0-0.1-0.1,0-0.1c0.1-0.1,0.1-0.1,0.2-0.2c0.2-0.1,0.4-0.3,0.6-0.4s0.4-0.3,0.6-0.4s0.4-0.3,0.6-0.4
				c0.2-0.2,0.4-0.3,0.6-0.6c-0.2-0.1-0.4-0.1-0.6-0.3c-0.2-0.1-0.4-0.3-0.5-0.4c-0.1-0.1-0.1-0.2-0.1-0.3s0-0.2,0-0.3
				c0.1-0.2,0.1-0.3,0.2-0.5c0.1-0.2,0.2-0.3,0.3-0.5c0.1-0.1,0.3-0.3,0.4-0.4c0.2-0.1,0.3-0.1,0.5-0.1c0.1,0,0.2,0.1,0.3,0.1
				c0.1,0.1,0.1,0.2,0.2,0.3s0.1,0.3,0.1,0.4c0,0.2,0,0.3,0,0.5c0,0.2,0,0.3,0,0.4c0,0.1,0,0.2-0.1,0.3c0,0,0,0,0,0.1
				c0.1,0,0.1,0.1,0.2,0.1s0.1,0.1,0.1,0.1c0,0.1,0,0.2,0,0.3c0,0.1-0.1,0.2-0.1,0.3c0,0.1-0.1,0.1-0.1,0.1c0,0-0.1,0-0.1-0.1
				c0,0-0.1-0.1-0.1-0.1s-0.1-0.1-0.1-0.1c-0.2,0.3-0.4,0.5-0.6,0.7c-0.2,0.2-0.4,0.3-0.6,0.5s-0.4,0.3-0.6,0.4
				c-0.2,0.1-0.5,0.2-0.8,0.3c-0.1,0-0.2,0.1-0.4,0.1S36.7,21.9,36.6,21.9z M38.7,18.3c0.1,0.2,0.3,0.3,0.5,0.4s0.4,0.2,0.5,0.2h0
				c0-0.1,0-0.1,0-0.2s0-0.2,0-0.3c0-0.1,0-0.2,0-0.3c0-0.1-0.1-0.2-0.1-0.2c-0.1,0-0.1-0.1-0.2-0.1c-0.1,0-0.2,0-0.3,0.1
				c-0.1,0-0.2,0.1-0.2,0.1C38.7,18.2,38.7,18.3,38.7,18.3z"/>
			<path d="M40,25.5c0.1,0,0.2,0.1,0.2,0.1c0.1,0.1,0.1,0.2,0.2,0.3c0,0.1,0.1,0.3,0.1,0.4c0,0.2,0.1,0.3,0.1,0.5c0,0.2,0,0.3,0,0.4
				c0,0.1,0,0.2,0,0.3c-0.1,0.6-0.2,1.1-0.3,1.5c-0.2,0.4-0.5,0.8-0.8,1.1c0.3,0,0.5-0.1,0.8-0.1c0.3,0,0.6,0,0.8,0
				c0.3,0,0.6,0,0.8,0c0.3,0,0.5,0,0.7,0h0.2c0.2,0,0.4,0.1,0.5,0.2c0.1,0.2,0.2,0.3,0.2,0.5c0,0.2-0.1,0.4-0.2,0.5
				c-0.1,0.2-0.3,0.2-0.5,0.2h-0.2l-1.8,0c0.2,0.2,0.4,0.5,0.5,0.7c0.1,0.3,0.1,0.5,0.1,0.8c0,0.2,0,0.4-0.1,0.6
				c-0.1,0.2-0.1,0.4-0.2,0.6c-0.1,0.2-0.2,0.3-0.4,0.5c-0.1,0.1-0.3,0.2-0.5,0.2c-0.4,0.1-0.8,0-1.2-0.1c-0.4-0.2-0.7-0.4-0.9-0.7
				c-0.1-0.1-0.3-0.3-0.4-0.5c-0.1-0.2-0.2-0.4-0.3-0.6c-0.1-0.2-0.2-0.4-0.2-0.6c-0.1-0.2-0.1-0.4-0.1-0.6c-0.1,0-0.2,0-0.3,0
				s-0.2,0-0.3,0.1c-0.1,0-0.2,0-0.2,0c-0.1,0-0.1,0-0.2,0c0-0.1,0-0.1,0-0.2c0-0.1,0.1-0.1,0.1-0.2l-1,0h-0.2
				c-0.2,0-0.4-0.1-0.5-0.2c-0.1-0.2-0.2-0.3-0.2-0.5s0.1-0.4,0.2-0.5c0.1-0.2,0.3-0.2,0.5-0.2h0.2c0.4,0,0.7,0,1,0
				c0.3,0,0.6,0,0.9-0.1c0.1-0.5,0.2-1,0.4-1.5c0.2-0.5,0.4-1,0.6-1.4c0.1-0.1,0.2-0.3,0.3-0.5c0.1-0.2,0.3-0.4,0.4-0.6
				c0.2-0.2,0.3-0.3,0.5-0.5C39.7,25.5,39.9,25.5,40,25.5z M37.7,29.9c0.2-0.1,0.4-0.1,0.6-0.2c0.2-0.1,0.5-0.2,0.7-0.3
				s0.4-0.3,0.6-0.4s0.3-0.3,0.4-0.4c0-0.2,0-0.5-0.1-0.7c-0.1-0.2-0.1-0.4-0.2-0.6c0,0-0.1-0.1-0.1-0.1s-0.1-0.1-0.2,0
				c-0.2,0-0.4,0.1-0.6,0.4s-0.4,0.5-0.5,0.8c-0.2,0.3-0.3,0.6-0.4,0.9C37.9,29.4,37.8,29.7,37.7,29.9z M37.8,31.8
				c0.1,0.2,0.2,0.4,0.3,0.6s0.2,0.4,0.4,0.5c0.1,0.2,0.3,0.3,0.5,0.4c0.2,0.1,0.4,0.2,0.7,0.3c0.1,0,0.2,0,0.3,0s0.2,0,0.4-0.1
				c0.1,0,0.2-0.1,0.3-0.1c0.1-0.1,0.1-0.1,0.1-0.2c0-0.1-0.1-0.2-0.2-0.3c-0.1-0.1-0.3-0.2-0.4-0.3c-0.2-0.1-0.4-0.2-0.6-0.3
				c-0.2-0.1-0.4-0.2-0.6-0.2c-0.2-0.1-0.4-0.1-0.6-0.1C38.1,31.8,38,31.8,37.8,31.8z"/>
			<path d="M46.5,16.2c-0.3,0.1-0.7,0.3-1.1,0.4c-0.4,0.2-0.7,0.3-1.1,0.5s-0.7,0.3-1,0.4c-0.3,0.1-0.5,0.2-0.7,0.3c0,0-0.1,0-0.1,0
				c0,0,0,0,0-0.1c0,0,0.1-0.1,0.1-0.2c0-0.1,0.1-0.2,0.2-0.3c0.1-0.1,0.1-0.2,0.1-0.3s0.1-0.1,0.1-0.2c0.1-0.1,0.1-0.2,0.2-0.2
				l3.7-1.6c0.1,0,0.1,0,0.1,0.1c0,0.1-0.1,0.1-0.1,0.2c0,0.1-0.1,0.2-0.1,0.2c0,0.1-0.1,0.2-0.1,0.2c0,0.1-0.1,0.1-0.1,0.2
				C46.6,16.1,46.6,16.2,46.5,16.2z"/>
			<path d="M42.5,30h0.2c0.4,0,0.8,0,1.1-0.1c0.4-0.1,0.7-0.1,0.9-0.3s0.5-0.3,0.6-0.5c0.2-0.2,0.2-0.5,0.2-0.8c0-0.2,0-0.4,0-0.7
				c0-0.3-0.1-0.6-0.1-1c0-0.4-0.1-0.7-0.1-1.1c0-0.4-0.1-0.7-0.1-1L45,23.1l-0.4-3.1c0-0.1,0-0.2,0-0.2c0.1-0.2,0.1-0.3,0.2-0.5
				c0.1-0.2,0.2-0.3,0.3-0.5c0.1-0.1,0.1-0.1,0.1,0c0,0.1,0,0.3,0.1,0.5c0,0.2,0.1,0.5,0.1,0.8c0.1,1.1,0.2,2,0.3,2.8
				c0.1,0.8,0.2,1.5,0.3,2c0.1,0.8,0.2,1.5,0.3,2c0.1,0.5,0.2,0.9,0.2,1.3c0.1,0.4,0.2,0.7,0.3,0.9c0.1,0.3,0.3,0.5,0.5,0.6
				c0.2,0.2,0.4,0.3,0.7,0.3c0.3,0.1,0.6,0.1,1,0.1h0.2c0.2,0,0.4,0.1,0.5,0.2s0.2,0.3,0.2,0.5s-0.1,0.4-0.2,0.5s-0.3,0.2-0.5,0.2
				h-0.2c-0.3,0-0.6,0-0.8-0.1c-0.3,0-0.6-0.2-0.8-0.3s-0.5-0.4-0.7-0.7c-0.2-0.3-0.4-0.7-0.6-1.2c-0.1,0.5-0.3,1-0.6,1.3
				c-0.3,0.3-0.6,0.5-0.9,0.7c-0.3,0.2-0.6,0.3-1,0.3c-0.3,0-0.7,0.1-0.9,0.1h-0.2c-0.2,0-0.4-0.1-0.5-0.2s-0.2-0.3-0.2-0.5
				s0.1-0.4,0.2-0.5S42.3,30,42.5,30z"/>
			<path d="M59.6,19.1c-0.3,0.1-0.7,0.3-1.1,0.4c-0.4,0.2-0.7,0.3-1.1,0.5s-0.7,0.3-1,0.4c-0.3,0.1-0.5,0.2-0.7,0.3c0,0-0.1,0-0.1,0
				c0,0,0,0,0-0.1c0,0,0.1-0.1,0.1-0.2c0-0.1,0.1-0.2,0.2-0.3C56,20.1,56,20,56.1,20s0.1-0.1,0.1-0.2c0.1-0.1,0.1-0.2,0.2-0.2
				l3.7-1.6c0.1,0,0.1,0,0.1,0.1c0,0.1-0.1,0.1-0.1,0.2c0,0.1-0.1,0.2-0.1,0.2c0,0.1-0.1,0.2-0.1,0.2c0,0.1-0.1,0.1-0.1,0.2
				C59.7,19,59.7,19.1,59.6,19.1z"/>
			<path d="M61.8,27.3c-0.3-0.1-0.6-0.1-0.8-0.2c-0.2-0.1-0.5-0.1-0.7-0.1c-0.2,0-0.5-0.1-0.7-0.1c-0.2,0-0.5,0-0.8-0.1
				c-0.4,0-0.8,0-1.3,0c-0.4,0-0.9,0.1-1.3,0.1C55.8,27,55.4,27,55,27.1s-0.7,0.1-1,0.2c0,0,0,0,0,0c0.5,0.1,0.9,0.4,1.2,0.7
				s0.3,0.7,0.3,1.3c0,0.3-0.1,0.5-0.2,0.8c-0.1,0.2-0.3,0.4-0.4,0.5c-0.2,0.1-0.4,0.2-0.7,0.2c-0.3,0-0.6,0-0.9-0.1
				c-0.3-0.1-0.6-0.2-0.9-0.4c-0.3-0.2-0.5-0.4-0.6-0.6c-0.1,0.3-0.3,0.6-0.5,0.9c-0.2,0.2-0.4,0.5-0.6,0.6
				c-0.2,0.2-0.5,0.3-0.7,0.4c-0.3,0.1-0.6,0.1-0.9,0.1h-0.2c-0.2,0-0.4-0.1-0.5-0.2c-0.1-0.2-0.2-0.3-0.2-0.5
				c0-0.2,0.1-0.4,0.2-0.5c0.1-0.2,0.3-0.2,0.5-0.2h0.2c0.2,0,0.4,0,0.6,0c0.2,0,0.5-0.1,0.7-0.2c0.2-0.1,0.4-0.2,0.6-0.4
				c0.2-0.2,0.4-0.4,0.5-0.7c0.1-0.2,0.2-0.4,0.3-0.6c0.1-0.2,0.2-0.4,0.3-0.6c0.1-0.2,0.2-0.4,0.4-0.5c0.1-0.2,0.3-0.3,0.5-0.4
				c0.3-0.2,0.6-0.3,1-0.5s0.8-0.2,1.2-0.3c0.4-0.1,0.8-0.1,1.2-0.2s0.7-0.1,1-0.1c-0.1-0.1-0.3-0.2-0.4-0.3
				c-0.2-0.1-0.4-0.2-0.6-0.3c-0.2-0.1-0.5-0.2-0.7-0.3c-0.2-0.1-0.5-0.2-0.7-0.2c-0.4-0.1-0.7-0.1-1,0c-0.3,0.1-0.6,0.2-0.8,0.3
				c0,0-0.1,0-0.2,0.1c-0.1,0-0.1,0-0.1-0.1c0-0.2,0.1-0.4,0.2-0.6c0.1-0.2,0.3-0.4,0.4-0.6c0.2-0.2,0.4-0.3,0.6-0.4
				c0.2-0.1,0.4-0.2,0.6-0.2c0.3,0,0.6,0,1,0.2c0.3,0.1,0.7,0.3,1,0.5c0.3,0.2,0.7,0.4,1,0.6c0.3,0.2,0.7,0.4,1,0.5
				c0.1,0.1,0.3,0.2,0.6,0.3c0.2,0.1,0.5,0.2,0.8,0.3s0.7,0.2,1.1,0.4s0.9,0.2,1.4,0.3c-0.2,0.2-0.3,0.5-0.5,0.7S62,27,61.8,27.3z
				 M54.7,29.2c0,0,0-0.1,0-0.2c-0.1-0.1-0.1-0.2-0.2-0.2c-0.1-0.1-0.2-0.2-0.4-0.2s-0.3-0.1-0.4-0.2c-0.1,0-0.2-0.1-0.3-0.1
				c-0.1,0-0.2,0-0.3-0.1c-0.1,0-0.2,0-0.3,0c-0.1,0-0.2,0.1-0.2,0.2c0,0.1,0,0.2,0,0.3c0.1,0.1,0.2,0.2,0.3,0.3
				c0.1,0.1,0.3,0.2,0.5,0.2c0.2,0.1,0.4,0.1,0.5,0.1s0.3,0,0.5,0S54.6,29.3,54.7,29.2z"/>
			<path d="M74.7,21.6c-0.3,0.1-0.7,0.3-1.1,0.4c-0.4,0.2-0.7,0.3-1.1,0.5s-0.7,0.3-1,0.4c-0.3,0.1-0.5,0.2-0.7,0.3c0,0-0.1,0-0.1,0
				c0,0,0,0,0-0.1c0,0,0.1-0.1,0.1-0.2c0-0.1,0.1-0.2,0.2-0.3c0.1-0.1,0.1-0.2,0.1-0.3s0.1-0.1,0.1-0.2c0.1-0.1,0.1-0.2,0.2-0.2
				l3.7-1.6c0.1,0,0.1,0,0.1,0.1c0,0.1-0.1,0.1-0.1,0.2c0,0.1-0.1,0.2-0.1,0.2c0,0.1-0.1,0.2-0.1,0.2c0,0.1-0.1,0.1-0.1,0.2
				C74.9,21.5,74.8,21.5,74.7,21.6z"/>
			<path d="M75.8,29.9c0.1-0.3,0.1-0.5,0.2-0.8c0.1-0.2,0.1-0.4,0.2-0.7c0-0.1,0.1-0.1,0.1-0.1s0.1,0,0.1,0.1
				c0.1,0.2,0.3,0.4,0.4,0.7c0.1,0.3,0.3,0.5,0.4,0.7c0.1,0.1,0.2,0.1,0.3,0.2c0.1,0,0.3,0.1,0.4,0.1c0.1,0,0.3,0,0.4,0
				c0.1,0,0.2,0,0.2,0h0.2c0.2,0,0.4,0.1,0.5,0.2s0.2,0.3,0.2,0.5s-0.1,0.4-0.2,0.5s-0.3,0.2-0.5,0.2h-0.2c-0.4,0-0.7,0-1-0.1
				c0,0.4,0.1,0.8,0.1,1.2c0,0.4,0,0.8-0.1,1.2c-0.1,0.7-0.3,1.2-0.7,1.7c-0.4,0.5-0.8,0.8-1.3,1.1c-0.5,0.3-1.1,0.5-1.7,0.7
				s-1.2,0.2-1.8,0.2c-0.5,0-1-0.1-1.5-0.2c-0.5-0.2-0.8-0.4-1.2-0.7c-0.3-0.3-0.6-0.7-0.8-1.1c-0.2-0.4-0.3-0.9-0.3-1.5
				c0-0.6,0.1-1.2,0.3-1.8c0.2-0.6,0.5-1.1,0.8-1.6c0-0.1,0.1-0.1,0.1-0.1c0,0,0.1,0,0.1,0.1c0,0,0,0.1,0,0.1c0,0,0,0.1,0,0.1
				C69.2,31.4,69,32,69,32.6c-0.1,0.6,0,1.2,0.2,1.7c0.1,0.3,0.2,0.5,0.4,0.7c0.2,0.2,0.4,0.4,0.6,0.5c0.2,0.2,0.5,0.3,0.8,0.4
				c0.3,0.1,0.7,0.1,1.1,0.1c0.4,0,0.9,0,1.3-0.1c0.5-0.1,0.9-0.2,1.3-0.4s0.8-0.4,1.2-0.6c0.4-0.3,0.7-0.6,1-0.9c0-0.3,0-0.6-0.1-1
				c-0.1-0.4-0.1-0.7-0.2-1.1c-0.1-0.4-0.2-0.7-0.4-1.1C76.1,30.5,75.9,30.2,75.8,29.9z M73.8,25.7l1.2,1c0.1,0,0.1,0.1,0,0.2
				l-0.8,1c0,0.1-0.1,0.1-0.2,0l-1.2-1c-0.1,0-0.1-0.1,0-0.2l0.8-1C73.7,25.6,73.7,25.6,73.8,25.7z"/>
			<path d="M78.3,31.6c-0.2,0-0.4-0.1-0.5-0.2c-0.1-0.2-0.2-0.3-0.2-0.5s0.1-0.4,0.2-0.5c0.1-0.2,0.3-0.2,0.5-0.2h0.2
				c0.2,0,0.4,0,0.7,0c0.2,0,0.5-0.1,0.8-0.2c0.3-0.1,0.5-0.2,0.8-0.3c0.3-0.1,0.5-0.3,0.8-0.4c-0.1-0.2-0.3-0.3-0.5-0.5
				c-0.2-0.1-0.4-0.2-0.6-0.2c-0.1,0-0.3,0-0.4,0c-0.1,0-0.3,0.1-0.4,0.2c-0.1,0.1-0.1,0.1-0.2,0c-0.1,0-0.1-0.1-0.1-0.2
				c0-0.1,0-0.2,0.1-0.4c0-0.1,0.1-0.3,0.1-0.4c0.1-0.1,0.1-0.3,0.2-0.4c0.1-0.1,0.2-0.3,0.3-0.4c0.6-0.5,1.2-0.8,2.1-0.8
				c0.2,0,0.5,0,0.7,0.1s0.5,0.1,0.8,0.2c0.2,0.1,0.4,0.2,0.6,0.4c0.2,0.2,0.3,0.4,0.3,0.7c0,0.4-0.1,0.7-0.3,1
				c-0.2,0.3-0.4,0.5-0.7,0.8c0.1,0.2,0.2,0.3,0.4,0.4c0.2,0.1,0.4,0.2,0.6,0.3c0.2,0.1,0.4,0.1,0.7,0.1c0.2,0,0.5,0,0.7,0h0.2
				c0.2,0,0.4,0.1,0.5,0.2s0.2,0.3,0.2,0.5s-0.1,0.4-0.2,0.5s-0.3,0.2-0.5,0.2h-0.2c-0.8,0-1.4-0.1-2-0.4c-0.6-0.3-1.1-0.7-1.6-1.2
				c-0.3,0.3-0.7,0.5-1,0.7c-0.3,0.2-0.7,0.4-1,0.5s-0.7,0.2-1,0.3c-0.3,0.1-0.7,0.1-1,0.1H78.3z"/>
			<path d="M94.7,19.9c-0.3,0.1-0.7,0.3-1.1,0.4c-0.4,0.2-0.7,0.3-1.1,0.5s-0.7,0.3-1,0.4c-0.3,0.1-0.5,0.2-0.7,0.3c0,0-0.1,0-0.1,0
				c0,0,0,0,0-0.1c0,0,0.1-0.1,0.1-0.2s0.1-0.2,0.2-0.3c0.1-0.1,0.1-0.2,0.1-0.3c0-0.1,0.1-0.1,0.1-0.2c0.1-0.1,0.1-0.2,0.2-0.2
				l3.7-1.6c0.1,0,0.1,0,0.1,0.1c0,0.1-0.1,0.1-0.1,0.2c0,0.1-0.1,0.2-0.1,0.2c0,0.1-0.1,0.2-0.1,0.2c0,0.1-0.1,0.1-0.1,0.2
				C94.8,19.8,94.7,19.8,94.7,19.9z"/>
			<path d="M91.2,29.9c0.3-0.4,0.6-0.8,0.9-1.1c0.3-0.4,0.7-0.7,1-1.1c0.4-0.3,0.7-0.7,1.1-1c0.4-0.3,0.8-0.6,1.3-0.8
				c0.2-0.1,0.4-0.2,0.7-0.2s0.5,0,0.8,0s0.6,0.1,0.8,0.2c0.3,0.1,0.5,0.2,0.8,0.4s0.4,0.3,0.6,0.6c0.1,0.2,0.2,0.5,0.2,0.7
				c0,0.5-0.1,1-0.3,1.4c-0.2,0.4-0.5,0.8-0.8,1.1c0.3,0,0.7,0,1,0c0.3,0,0.6,0,0.9,0h0.2c0.2,0,0.4,0.1,0.5,0.2
				c0.1,0.2,0.2,0.3,0.2,0.5s-0.1,0.4-0.2,0.5c-0.1,0.2-0.3,0.2-0.5,0.2h-0.2c-0.3,0-0.7,0-1.1,0s-0.9,0-1.3,0c-0.5,0-1,0-1.5,0
				c-0.5,0-1,0-1.6,0c-0.7,0.1-1.4,0.1-2.1,0.1c-0.7,0-1.3-0.1-1.9-0.2c-0.1,0.1-0.1,0.2-0.2,0.3c-0.1,0.1-0.1,0.3-0.1,0.4
				c-0.1,0.2-0.2,0.3-0.3,0.2c-0.1,0-0.1-0.1-0.1-0.1c0-0.1,0-0.1,0-0.2c0-0.1,0.1-0.2,0.1-0.3s0.1-0.2,0.1-0.4
				c-0.2-0.1-0.3-0.1-0.5-0.2c-0.1-0.1-0.3-0.2-0.4-0.2c-0.1-0.1-0.2-0.2-0.3-0.3c-0.1-0.1-0.2-0.2-0.4-0.4
				c-0.4,0.5-0.8,0.9-1.2,1.1c-0.5,0.2-1,0.3-1.5,0.3h-0.2c-0.2,0-0.4-0.1-0.5-0.2s-0.2-0.3-0.2-0.5s0.1-0.4,0.2-0.5
				s0.3-0.2,0.5-0.2h0.2c0.4,0,0.7,0,1-0.1c0.3,0,0.5-0.1,0.7-0.3c0.3-0.1,0.5-0.3,0.7-0.6c0.2-0.3,0.4-0.6,0.5-1
				c0-0.1,0.1-0.2,0.2-0.2c0.1,0,0.1,0,0.1,0.1c0,0.3,0.1,0.5,0.2,0.7c0.1,0.2,0.3,0.4,0.5,0.6c0.2,0.2,0.4,0.3,0.6,0.4
				S91,29.9,91.2,29.9z M93,22.7l1.2,1c0.1,0,0.1,0.1,0,0.2l-0.8,1c0,0.1-0.1,0.1-0.2,0l-1.2-1c-0.1,0-0.1-0.1,0-0.2l0.8-1
				C92.9,22.6,93,22.6,93,22.7z M92.1,30c0.3,0,0.7,0.1,1.1,0.1s0.8,0,1.2-0.1c0.4,0,0.8-0.1,1.3-0.2s0.8-0.2,1.2-0.3
				c0.4-0.1,0.7-0.3,1.1-0.5c0.3-0.2,0.6-0.4,0.8-0.6c-0.1-0.3-0.3-0.5-0.6-0.7c-0.3-0.2-0.5-0.3-0.8-0.4c-0.3-0.1-0.6-0.2-0.9-0.2
				c-0.3,0-0.6,0.1-0.9,0.2c-0.3,0.1-0.7,0.3-1,0.5c-0.3,0.2-0.6,0.4-0.9,0.7c-0.3,0.2-0.6,0.5-0.8,0.8C92.5,29.4,92.3,29.7,92.1,30
				z"/>
			<path d="M103.9,20.8c-0.3,0.1-0.7,0.3-1.1,0.4c-0.4,0.2-0.7,0.3-1.1,0.5s-0.7,0.3-1,0.4c-0.3,0.1-0.5,0.2-0.7,0.3
				c0,0-0.1,0-0.1,0c0,0,0,0,0-0.1c0,0,0.1-0.1,0.1-0.2s0.1-0.2,0.2-0.3c0.1-0.1,0.1-0.2,0.1-0.3c0-0.1,0.1-0.1,0.1-0.2
				c0.1-0.1,0.1-0.2,0.2-0.2l3.7-1.6c0.1,0,0.1,0,0.1,0.1c0,0.1-0.1,0.1-0.1,0.2c0,0.1-0.1,0.2-0.1,0.2c0,0.1-0.1,0.2-0.1,0.2
				c0,0.1-0.1,0.1-0.1,0.2C104.1,20.7,104,20.8,103.9,20.8z"/>
			<path d="M102.7,26.3C102.7,26.2,102.7,26.2,102.7,26.3c0.1-0.1,0.2-0.1,0.2,0c0.2,0.2,0.3,0.4,0.5,0.6c0.2,0.2,0.3,0.4,0.4,0.7
				c0.1,0.2,0.2,0.5,0.3,0.7c0.1,0.2,0.1,0.5,0.1,0.7c0,0.1,0,0.2,0,0.4c0,0.1,0,0.3-0.1,0.4s-0.1,0.3-0.1,0.4s-0.1,0.2-0.2,0.3
				c-0.2,0.2-0.4,0.4-0.6,0.6s-0.6,0.3-0.9,0.3c-0.3,0.1-0.7,0.1-1,0.1s-0.6,0-0.9,0h-0.2c-0.2,0-0.4-0.1-0.5-0.2s-0.2-0.3-0.2-0.5
				s0.1-0.4,0.2-0.5s0.3-0.2,0.5-0.2h0.2c0.2,0,0.4,0,0.6,0c0.3,0,0.6,0,0.9,0c0.3,0,0.6-0.1,0.9-0.1s0.5-0.1,0.7-0.2
				c0.1-0.1,0.1-0.1,0.1-0.3c-0.1-0.4-0.3-0.7-0.5-1s-0.5-0.6-0.7-0.8c0.1-0.2,0.1-0.5,0.2-0.7C102.6,26.7,102.6,26.5,102.7,26.3z
				 M103.9,35.4C103.8,35.4,103.8,35.4,103.9,35.4c-0.1,0.1-0.1,0-0.2,0l-1.1-0.9l-0.7,1c0,0.1-0.1,0.1-0.1,0l-1.2-0.9
				c0,0,0-0.1,0-0.1l0.8-1.1c0,0,0-0.1,0.1-0.1c0,0,0,0,0.1,0l1.1,0.9l0.8-1c0-0.1,0.1-0.1,0.1,0l1.2,1c0,0,0,0.1,0,0.1L103.9,35.4z
				"/>
			<path d="M117.3,24.6c0.3,0.4,0.6,0.9,0.8,1.4c0.2,0.5,0.4,1,0.6,1.5s0.2,1,0.3,1.5s0,1-0.1,1.5c-0.1,0.4-0.2,0.8-0.4,1.1
				c-0.2,0.3-0.4,0.7-0.7,0.9c-0.3,0.3-0.6,0.5-0.9,0.7s-0.7,0.4-1.1,0.5s-0.8,0.2-1.1,0.3c-0.4,0.1-0.8,0.1-1.2,0.1
				c-0.5,0-1-0.1-1.4-0.2c-0.5-0.2-0.8-0.4-1.2-0.7s-0.6-0.7-0.8-1.1c-0.2-0.4-0.3-0.9-0.3-1.5c0-0.6,0.1-1.2,0.3-1.8
				c0.2-0.6,0.5-1.1,0.8-1.6c0-0.1,0.1-0.1,0.1-0.1c0,0,0.1,0,0.1,0c0,0,0,0.1,0,0.1c0,0,0,0.1,0,0.1c-0.3,0.6-0.5,1.2-0.6,1.8
				c-0.1,0.6,0,1.2,0.2,1.7c0.1,0.3,0.2,0.5,0.4,0.7c0.2,0.2,0.4,0.4,0.6,0.5c0.2,0.2,0.5,0.3,0.8,0.4c0.3,0.1,0.7,0.1,1.1,0.1
				c0.4,0,0.8,0,1.3-0.1c0.4-0.1,0.9-0.2,1.3-0.4c0.4-0.2,0.8-0.4,1.2-0.6s0.7-0.5,1-0.9c0-0.4,0-0.8-0.1-1.2
				c-0.1-0.4-0.2-0.8-0.4-1.3s-0.3-0.8-0.5-1.2s-0.4-0.7-0.6-1.1c0.1-0.2,0.1-0.5,0.2-0.7s0.1-0.4,0.2-0.7
				C117.1,24.5,117.1,24.5,117.3,24.6C117.2,24.6,117.2,24.6,117.3,24.6z M114.4,22.1l1.2,1c0.1,0,0.1,0.1,0,0.2l-0.8,1
				c0,0.1-0.1,0.1-0.2,0l-1.2-1c-0.1,0-0.1-0.1,0-0.2l0.8-1C114.3,22.1,114.4,22,114.4,22.1z"/>
			<path d="M123.5,12.1c-0.3,0.1-0.7,0.3-1.1,0.4c-0.4,0.2-0.7,0.3-1.1,0.5s-0.7,0.3-1,0.4c-0.3,0.1-0.5,0.2-0.7,0.3
				c0,0-0.1,0-0.1,0c0,0,0,0,0-0.1c0,0,0.1-0.1,0.1-0.2s0.1-0.2,0.2-0.3c0.1-0.1,0.1-0.2,0.1-0.3c0-0.1,0.1-0.1,0.1-0.2
				c0.1-0.1,0.1-0.2,0.2-0.2l3.7-1.6c0.1,0,0.1,0,0.1,0.1c0,0.1-0.1,0.1-0.1,0.2c0,0.1-0.1,0.2-0.1,0.2c0,0.1-0.1,0.2-0.1,0.2
				c0,0.1-0.1,0.1-0.1,0.2C123.6,12,123.6,12,123.5,12.1z"/>
			<path d="M120.2,17.6c0,0,0.1-0.1,0.2-0.1c0.1,0,0.1-0.1,0.2-0.1c0.1,0,0.1-0.1,0.2-0.1c0.1,0,0.1-0.1,0.2-0.1
				c-0.2-0.1-0.3-0.2-0.4-0.4c-0.1-0.1-0.2-0.3-0.3-0.5c0-0.1,0-0.2,0-0.3c0-0.1,0.1-0.2,0.1-0.3c0.1-0.2,0.2-0.3,0.4-0.5
				c0.1-0.2,0.3-0.3,0.4-0.4s0.3-0.2,0.5-0.3c0.2-0.1,0.4-0.1,0.6-0.1c0.1,0,0.2,0,0.2,0.1s0.1,0.1,0.2,0.2c0.1,0.1,0.1,0.1,0.1,0.2
				s0.1,0.1,0.1,0.2c0,0.1,0,0.3,0,0.4l-0.2,0.3c-0.1,0.1-0.2,0.2-0.3,0.2c-0.1,0-0.1,0-0.1-0.1c0-0.1,0-0.2-0.1-0.3
				c-0.1-0.1-0.1-0.2-0.2-0.2c-0.1,0-0.2-0.1-0.3-0.1c-0.3,0-0.6,0.1-0.8,0.3c0.1,0.2,0.2,0.5,0.4,0.7s0.4,0.3,0.7,0.3
				c0.3,0,0.6,0,1,0c0.3-0.1,0.6-0.1,1-0.2c0,0,0,0.1,0,0.2c0,0.1-0.1,0.2-0.1,0.3c0,0.1-0.1,0.2-0.1,0.3s-0.1,0.1-0.1,0.1
				c-0.3,0-0.6,0.1-0.8,0.1s-0.6,0.1-0.9,0.2c-0.3,0.1-0.6,0.2-1,0.4s-0.7,0.3-0.9,0.4c-0.1,0-0.1,0-0.1-0.1c0-0.1,0.1-0.3,0.1-0.4
				S120.1,17.7,120.2,17.6z M121.6,19.1C121.6,19.1,121.6,19.1,121.6,19.1c0.1,0.1,0.1,0.1,0.1,0.1s0,0.1,0,0.1s0,0.1,0,0.1
				c0,0.2,0,0.5,0,0.7c0,0.2,0,0.5,0.1,0.7c0.1,0.6,0.1,1.2,0.2,1.8c0.1,0.6,0.2,1.2,0.3,1.8c0.1,0.6,0.2,1.2,0.3,1.8
				c0.1,0.6,0.2,1.2,0.2,1.8c0,0.2,0,0.5,0,0.8c0,0.3,0,0.6,0,0.9c0,0.3-0.1,0.6-0.1,0.9s-0.1,0.5-0.2,0.7c0,0.1-0.1,0.2-0.2,0.2
				c0,0-0.1,0-0.1-0.1c-0.1-1.1-0.2-2.2-0.4-3.4c-0.2-1.2-0.3-2.4-0.5-3.6c-0.2-1.2-0.3-2.4-0.5-3.6c0-0.3,0.1-0.6,0.2-0.9
				c0.1-0.2,0.1-0.4,0.2-0.5C121.4,19.4,121.5,19.2,121.6,19.1z"/>
			<path d="M135.4,18.5c-0.3,0.1-0.7,0.3-1.1,0.4c-0.4,0.2-0.7,0.3-1.1,0.5s-0.7,0.3-1,0.4c-0.3,0.1-0.5,0.2-0.7,0.3
				c0,0-0.1,0-0.1,0c0,0,0,0,0-0.1c0,0,0.1-0.1,0.1-0.2c0-0.1,0.1-0.2,0.2-0.3s0.1-0.2,0.1-0.3c0-0.1,0.1-0.1,0.1-0.2
				c0.1-0.1,0.1-0.2,0.2-0.2l3.7-1.6c0.1,0,0.1,0,0.1,0.1c0,0.1-0.1,0.1-0.1,0.2s-0.1,0.2-0.1,0.2c0,0.1-0.1,0.2-0.1,0.2
				c0,0.1-0.1,0.1-0.1,0.2C135.5,18.4,135.5,18.4,135.4,18.5z M133.5,22.1c-0.1,0.3-0.3,0.5-0.5,0.6s-0.4,0.2-0.7,0.3
				c-0.2,0-0.4,0-0.6-0.1c-0.1-0.1-0.2-0.3-0.3-0.6c0-0.1,0-0.3,0-0.4c0-0.1,0.1-0.3,0.1-0.4c0-0.1,0.1-0.2,0.2-0.3
				c0.1-0.1,0.1-0.1,0.2-0.2c0.1,0,0.1,0,0,0.2c0,0.1,0,0.2-0.1,0.2c0,0.1,0,0.2,0,0.3s0,0.2,0,0.3c0,0.1,0.1,0.1,0.1,0.2
				c0.1,0.1,0.2,0.1,0.3,0.1c0.1,0,0.2,0,0.3-0.1c0.1,0,0.2-0.1,0.3-0.2c0.1-0.1,0.2-0.2,0.2-0.2c0.1-0.1,0.1-0.2,0.2-0.3
				c0-0.1,0.1-0.2,0.1-0.3c0,0,0-0.1,0-0.1s0-0.1,0-0.1c0,0,0-0.1,0.1-0.1c0,0,0.1-0.1,0.1-0.1c0,0,0,0,0.1,0.1c0,0,0,0.1,0,0.1
				c0,0,0,0.1,0,0.1c0,0,0,0.1,0,0.1c0,0.2,0,0.3,0.1,0.4c0.1,0.1,0.2,0.2,0.4,0.2c0.1,0,0.2,0,0.4,0s0.3-0.1,0.4-0.2
				c0,0,0-0.1,0-0.1c0-0.1,0-0.1,0-0.2c0-0.1,0-0.1,0-0.2c0-0.1,0-0.1,0-0.1c0,0,0-0.1,0-0.2c0-0.1,0.1-0.2,0.1-0.3s0.1-0.2,0.1-0.2
				c0-0.1,0.1-0.1,0.1-0.1c0.1,0,0.1,0.1,0.2,0.2c0,0.1,0.1,0.2,0.1,0.4c0,0.1,0,0.3,0,0.5c0,0.2,0,0.3,0,0.4c0,0.1-0.1,0.2-0.1,0.3
				c0,0.1-0.1,0.2-0.2,0.3c-0.1,0.1-0.2,0.2-0.3,0.2c-0.1,0.1-0.2,0.1-0.3,0.1c-0.2,0.1-0.4,0-0.6,0
				C133.8,22.4,133.6,22.3,133.5,22.1z"/>
			<path d="M136.3,29.9c0.1-0.3,0.1-0.5,0.2-0.8c0.1-0.2,0.1-0.4,0.2-0.7c0-0.1,0.1-0.1,0.1-0.1s0.1,0,0.1,0.1
				c0.1,0.2,0.3,0.4,0.4,0.7c0.1,0.3,0.3,0.5,0.4,0.7c0.1,0.1,0.2,0.1,0.3,0.2c0.1,0,0.3,0.1,0.4,0.1c0.1,0,0.3,0,0.4,0
				c0.1,0,0.2,0,0.2,0h0.2c0.2,0,0.4,0.1,0.5,0.2c0.1,0.2,0.2,0.3,0.2,0.5s-0.1,0.4-0.2,0.5c-0.1,0.2-0.3,0.2-0.5,0.2H139
				c-0.4,0-0.7,0-1-0.1c0,0.4,0.1,0.8,0.1,1.2c0,0.4,0,0.8-0.1,1.2c-0.1,0.7-0.3,1.2-0.7,1.7c-0.4,0.5-0.8,0.8-1.3,1.1
				s-1.1,0.5-1.7,0.7c-0.6,0.1-1.2,0.2-1.8,0.2c-0.5,0-1-0.1-1.5-0.2c-0.5-0.2-0.8-0.4-1.2-0.7c-0.3-0.3-0.6-0.7-0.8-1.1
				s-0.3-0.9-0.3-1.5c0-0.6,0.1-1.2,0.3-1.8c0.2-0.6,0.5-1.1,0.8-1.6c0-0.1,0.1-0.1,0.1-0.1c0,0,0.1,0,0.1,0.1s0,0.1,0,0.1
				s0,0.1,0,0.1c-0.3,0.6-0.5,1.2-0.6,1.8c-0.1,0.6,0,1.2,0.2,1.7c0.1,0.3,0.2,0.5,0.4,0.7s0.4,0.4,0.6,0.5c0.2,0.2,0.5,0.3,0.8,0.4
				c0.3,0.1,0.7,0.1,1.1,0.1c0.4,0,0.9,0,1.3-0.1c0.5-0.1,0.9-0.2,1.3-0.4s0.8-0.4,1.2-0.6c0.4-0.3,0.7-0.6,1-0.9c0-0.3,0-0.6-0.1-1
				s-0.1-0.7-0.2-1.1c-0.1-0.4-0.2-0.7-0.4-1.1C136.6,30.5,136.5,30.2,136.3,29.9z M134.3,25.7l1.2,1c0.1,0,0.1,0.1,0,0.2l-0.8,1
				c0,0.1-0.1,0.1-0.2,0l-1.2-1c-0.1,0-0.1-0.1,0-0.2l0.8-1C134.2,25.6,134.2,25.6,134.3,25.7z"/>
			<path d="M140.3,21.9c-0.1,0-0.1-0.1,0-0.1c0.1-0.1,0.1-0.1,0.2-0.2c0.2-0.1,0.4-0.3,0.6-0.4c0.2-0.1,0.4-0.3,0.6-0.4
				s0.4-0.3,0.6-0.4s0.4-0.3,0.6-0.6c-0.2-0.1-0.4-0.1-0.6-0.3c-0.2-0.1-0.4-0.3-0.5-0.4c-0.1-0.1-0.1-0.2-0.1-0.3s0-0.2,0-0.3
				c0.1-0.2,0.1-0.3,0.2-0.5c0.1-0.2,0.2-0.3,0.3-0.5s0.3-0.3,0.4-0.4c0.2-0.1,0.3-0.1,0.5-0.1c0.1,0,0.2,0.1,0.3,0.1
				c0.1,0.1,0.1,0.2,0.2,0.3c0,0.1,0.1,0.3,0.1,0.4c0,0.2,0,0.3,0,0.5c0,0.2,0,0.3,0,0.4c0,0.1,0,0.2-0.1,0.3c0,0,0,0,0,0.1
				c0.1,0,0.1,0.1,0.2,0.1c0,0,0.1,0.1,0.1,0.1c0,0.1,0,0.2,0,0.3c0,0.1-0.1,0.2-0.1,0.3c0,0.1-0.1,0.1-0.1,0.1c0,0-0.1,0-0.1-0.1
				c0,0-0.1-0.1-0.1-0.1c0,0-0.1-0.1-0.1-0.1c-0.2,0.3-0.4,0.5-0.6,0.7c-0.2,0.2-0.4,0.3-0.6,0.5s-0.4,0.3-0.6,0.4
				c-0.2,0.1-0.5,0.2-0.8,0.3c-0.1,0-0.2,0.1-0.4,0.1C140.5,21.9,140.4,21.9,140.3,21.9z M142.4,18.3c0.1,0.2,0.3,0.3,0.5,0.4
				s0.4,0.2,0.5,0.2h0c0-0.1,0-0.1,0-0.2c0-0.1,0-0.2,0-0.3c0-0.1,0-0.2,0-0.3c0-0.1-0.1-0.2-0.1-0.2c-0.1,0-0.1-0.1-0.2-0.1
				c-0.1,0-0.2,0-0.3,0.1c-0.1,0-0.2,0.1-0.2,0.1C142.5,18.2,142.4,18.3,142.4,18.3z"/>
			<path d="M143.8,25.5c0.1,0,0.2,0.1,0.2,0.1c0.1,0.1,0.1,0.2,0.2,0.3c0,0.1,0.1,0.3,0.1,0.4c0,0.2,0.1,0.3,0.1,0.5
				c0,0.2,0,0.3,0,0.4c0,0.1,0,0.2,0,0.3c-0.1,0.6-0.2,1.1-0.3,1.5s-0.5,0.8-0.8,1.1c0.3,0,0.5-0.1,0.8-0.1c0.3,0,0.6,0,0.8,0
				c0.3,0,0.6,0,0.8,0c0.3,0,0.5,0,0.7,0h0.2c0.2,0,0.4,0.1,0.5,0.2c0.1,0.2,0.2,0.3,0.2,0.5c0,0.2-0.1,0.4-0.2,0.5
				c-0.1,0.2-0.3,0.2-0.5,0.2h-0.2l-1.8,0c0.2,0.2,0.4,0.5,0.5,0.7c0.1,0.3,0.1,0.5,0.1,0.8c0,0.2,0,0.4-0.1,0.6
				c-0.1,0.2-0.1,0.4-0.2,0.6c-0.1,0.2-0.2,0.3-0.4,0.5S144.2,35,144,35c-0.4,0.1-0.8,0-1.2-0.1c-0.4-0.2-0.7-0.4-0.9-0.7
				c-0.1-0.1-0.3-0.3-0.4-0.5c-0.1-0.2-0.2-0.4-0.3-0.6c-0.1-0.2-0.2-0.4-0.2-0.6s-0.1-0.4-0.1-0.6c-0.1,0-0.2,0-0.3,0
				c-0.1,0-0.2,0-0.3,0.1c-0.1,0-0.2,0-0.2,0c-0.1,0-0.1,0-0.2,0c0-0.1,0-0.1,0-0.2c0-0.1,0.1-0.1,0.1-0.2l-1,0h-0.2
				c-0.2,0-0.4-0.1-0.5-0.2c-0.1-0.2-0.2-0.3-0.2-0.5c0-0.2,0.1-0.4,0.2-0.5c0.1-0.2,0.3-0.2,0.5-0.2h0.2c0.4,0,0.7,0,1,0
				c0.3,0,0.6,0,0.9-0.1c0.1-0.5,0.2-1,0.4-1.5c0.2-0.5,0.4-1,0.6-1.4c0.1-0.1,0.2-0.3,0.3-0.5c0.1-0.2,0.3-0.4,0.4-0.6
				s0.3-0.3,0.5-0.5S143.6,25.5,143.8,25.5z M141.5,29.9c0.2-0.1,0.4-0.1,0.6-0.2c0.2-0.1,0.5-0.2,0.7-0.3c0.2-0.1,0.4-0.3,0.6-0.4
				s0.3-0.3,0.4-0.4c0-0.2,0-0.5-0.1-0.7s-0.1-0.4-0.2-0.6c0,0-0.1-0.1-0.1-0.1c0,0-0.1-0.1-0.2,0c-0.2,0-0.4,0.1-0.6,0.4
				c-0.2,0.2-0.4,0.5-0.5,0.8c-0.2,0.3-0.3,0.6-0.4,0.9C141.6,29.4,141.5,29.7,141.5,29.9z M141.6,31.8c0.1,0.2,0.2,0.4,0.3,0.6
				c0.1,0.2,0.2,0.4,0.4,0.5s0.3,0.3,0.5,0.4s0.4,0.2,0.7,0.3c0.1,0,0.2,0,0.3,0s0.2,0,0.4-0.1c0.1,0,0.2-0.1,0.3-0.1
				c0.1-0.1,0.1-0.1,0.1-0.2c0-0.1-0.1-0.2-0.2-0.3c-0.1-0.1-0.3-0.2-0.4-0.3c-0.2-0.1-0.4-0.2-0.6-0.3c-0.2-0.1-0.4-0.2-0.6-0.2
				c-0.2-0.1-0.4-0.1-0.6-0.1C141.8,31.8,141.7,31.8,141.6,31.8z"/>
			<path d="M146.4,18c-0.1,0-0.1-0.1,0-0.1c0.1-0.1,0.1-0.1,0.2-0.2c0.2-0.1,0.4-0.3,0.6-0.4c0.2-0.1,0.4-0.3,0.6-0.4
				s0.4-0.3,0.6-0.4s0.4-0.3,0.6-0.6c-0.2-0.1-0.4-0.1-0.6-0.3c-0.2-0.1-0.4-0.3-0.5-0.4c-0.1-0.1-0.1-0.2-0.1-0.3s0-0.2,0-0.3
				c0.1-0.2,0.1-0.3,0.2-0.5c0.1-0.2,0.2-0.3,0.3-0.5s0.3-0.3,0.4-0.4c0.2-0.1,0.3-0.1,0.5-0.1c0.1,0,0.2,0.1,0.3,0.1
				c0.1,0.1,0.1,0.2,0.2,0.3c0,0.1,0.1,0.3,0.1,0.4c0,0.2,0,0.3,0,0.5c0,0.2,0,0.3,0,0.4c0,0.1,0,0.2-0.1,0.3c0,0,0,0,0,0.1
				c0.1,0,0.1,0.1,0.2,0.1c0,0,0.1,0.1,0.1,0.1c0,0.1,0,0.2,0,0.3c0,0.1-0.1,0.2-0.1,0.3c0,0.1-0.1,0.1-0.1,0.1c0,0-0.1,0-0.1-0.1
				c0,0-0.1-0.1-0.1-0.1c0,0-0.1-0.1-0.1-0.1c-0.2,0.3-0.4,0.5-0.6,0.7c-0.2,0.2-0.4,0.3-0.6,0.5s-0.4,0.3-0.6,0.4
				c-0.2,0.1-0.5,0.2-0.8,0.3c-0.1,0-0.2,0.1-0.4,0.1C146.5,18,146.4,18,146.4,18z M148.4,14.4c0.1,0.2,0.3,0.3,0.5,0.4
				s0.4,0.2,0.5,0.2h0c0-0.1,0-0.1,0-0.2c0-0.1,0-0.2,0-0.3c0-0.1,0-0.2,0-0.3c0-0.1-0.1-0.2-0.1-0.2c-0.1,0-0.1-0.1-0.2-0.1
				c-0.1,0-0.2,0-0.3,0.1c-0.1,0-0.2,0.1-0.2,0.1C148.5,14.3,148.4,14.4,148.4,14.4z"/>
			<path d="M146.2,30h0.2c0.4,0,0.8,0,1.1-0.1c0.4-0.1,0.7-0.1,0.9-0.3c0.3-0.1,0.5-0.3,0.6-0.5c0.2-0.2,0.2-0.5,0.2-0.8
				c0-0.2,0-0.4,0-0.7c0-0.3-0.1-0.6-0.1-1c0-0.4-0.1-0.7-0.1-1.1c0-0.4-0.1-0.7-0.1-1l-0.2-1.6l-0.4-3.1c0-0.1,0-0.2,0-0.2
				c0.1-0.2,0.1-0.3,0.2-0.5c0.1-0.2,0.2-0.3,0.3-0.5c0.1-0.1,0.1-0.1,0.1,0c0,0.1,0,0.3,0.1,0.5c0,0.2,0.1,0.5,0.1,0.8
				c0.1,1.1,0.2,2,0.3,2.8c0.1,0.8,0.2,1.5,0.3,2c0.1,0.8,0.2,1.5,0.3,2c0.1,0.5,0.2,0.9,0.2,1.3c0.1,0.4,0.2,0.7,0.3,0.9
				s0.3,0.5,0.5,0.6s0.4,0.3,0.7,0.3c0.3,0.1,0.6,0.1,1,0.1h0.2c0.2,0,0.4,0.1,0.5,0.2c0.1,0.2,0.2,0.3,0.2,0.5s-0.1,0.4-0.2,0.5
				c-0.1,0.2-0.3,0.2-0.5,0.2h-0.2c-0.3,0-0.6,0-0.8-0.1s-0.6-0.2-0.8-0.3s-0.5-0.4-0.7-0.7c-0.2-0.3-0.4-0.7-0.6-1.2
				c-0.1,0.5-0.3,1-0.6,1.3c-0.3,0.3-0.6,0.5-0.9,0.7c-0.3,0.2-0.6,0.3-1,0.3s-0.7,0.1-0.9,0.1h-0.2c-0.2,0-0.4-0.1-0.5-0.2
				c-0.1-0.2-0.2-0.3-0.2-0.5s0.1-0.4,0.2-0.5C145.9,30.1,146,30,146.2,30z"/>
			<path d="M158.7,20.1c-0.3,0.1-0.7,0.3-1.1,0.4c-0.4,0.2-0.7,0.3-1.1,0.5s-0.7,0.3-1,0.4s-0.5,0.2-0.7,0.3c0,0-0.1,0-0.1,0
				c0,0,0,0,0-0.1c0,0,0.1-0.1,0.1-0.2c0-0.1,0.1-0.2,0.2-0.3c0.1-0.1,0.1-0.2,0.1-0.3c0-0.1,0.1-0.1,0.1-0.2
				c0.1-0.1,0.1-0.2,0.2-0.2l3.7-1.6c0.1,0,0.1,0,0.1,0.1c0,0.1-0.1,0.1-0.1,0.2c0,0.1-0.1,0.2-0.1,0.2c0,0.1-0.1,0.2-0.1,0.2
				c0,0.1-0.1,0.1-0.1,0.2C158.8,20,158.8,20.1,158.7,20.1z"/>
			<path d="M158.5,28.9c-0.2-0.1-0.4-0.2-0.6-0.3c-0.2-0.1-0.5-0.2-0.8-0.3c-0.3-0.1-0.5-0.2-0.8-0.3c-0.3-0.1-0.5-0.1-0.8-0.2
				c-0.4-0.1-0.7,0-1.1,0c-0.4,0.1-0.7,0.2-1,0.4c0,0-0.1,0-0.1,0c0,0-0.1,0-0.1-0.1c0-0.1,0-0.1,0-0.2c0-0.1,0.1-0.2,0.1-0.3
				s0.1-0.2,0.1-0.3c0-0.1,0.1-0.2,0.1-0.2c0.1-0.2,0.3-0.3,0.4-0.4c0.2-0.1,0.3-0.2,0.5-0.3s0.4-0.1,0.6-0.2c0.2,0,0.4,0,0.6,0
				c0.3,0.1,0.7,0.2,1,0.3c0.3,0.1,0.7,0.3,1,0.4s0.7,0.3,1.1,0.5c0.4,0.2,0.7,0.3,1.1,0.4c0.5,0.2,1.1,0.3,1.8,0.4
				c0.6,0.1,1.2,0.1,1.8,0.1c0.1,0,0.1,0,0.1,0.1c-0.1,0.2-0.2,0.4-0.3,0.7s-0.3,0.5-0.4,0.7c-0.3-0.1-0.7-0.2-1.1-0.2s-0.8,0-1.3,0
				c-0.4,0-0.9,0.1-1.4,0.3c-0.5,0.2-1.1,0.4-1.7,0.6c-0.3,0.1-0.7,0.2-1,0.3c-0.3,0.1-0.7,0.2-1.1,0.3c-0.4,0.1-0.8,0.2-1.2,0.2
				c-0.4,0-0.9,0.1-1.4,0.1h-0.2c-0.2,0-0.4-0.1-0.5-0.2S152,31,152,30.8s0.1-0.4,0.2-0.5s0.3-0.2,0.5-0.2h0.2c0.3,0,0.6,0,1,0
				s0.8-0.1,1.3-0.2s1-0.2,1.6-0.4C157.3,29.4,157.9,29.2,158.5,28.9z M157.6,32.8l1.2,1c0.1,0,0.1,0.1,0,0.2l-0.8,1
				c0,0.1-0.1,0.1-0.2,0l-1.2-1c-0.1,0-0.1-0.1,0-0.2l0.8-1C157.5,32.8,157.6,32.8,157.6,32.8z"/>
			<path d="M168.3,12.1c-0.3,0.1-0.7,0.3-1.1,0.4c-0.4,0.2-0.7,0.3-1.1,0.5s-0.7,0.3-1,0.4s-0.5,0.2-0.7,0.3c0,0-0.1,0-0.1,0
				c0,0,0,0,0-0.1c0,0,0.1-0.1,0.1-0.2c0-0.1,0.1-0.2,0.2-0.3c0.1-0.1,0.1-0.2,0.1-0.3c0-0.1,0.1-0.1,0.1-0.2
				c0.1-0.1,0.1-0.2,0.2-0.2l3.7-1.6c0.1,0,0.1,0,0.1,0.1c0,0.1-0.1,0.1-0.1,0.2c0,0.1-0.1,0.2-0.1,0.2c0,0.1-0.1,0.2-0.1,0.2
				c0,0.1-0.1,0.1-0.1,0.2C168.4,12,168.4,12,168.3,12.1z"/>
			<path d="M165,17.6c0,0,0.1-0.1,0.2-0.1c0.1,0,0.1-0.1,0.2-0.1c0.1,0,0.1-0.1,0.2-0.1c0.1,0,0.1-0.1,0.2-0.1
				c-0.2-0.1-0.3-0.2-0.4-0.4c-0.1-0.1-0.2-0.3-0.3-0.5c0-0.1,0-0.2,0-0.3c0-0.1,0.1-0.2,0.1-0.3c0.1-0.2,0.2-0.3,0.4-0.5
				s0.3-0.3,0.4-0.4s0.3-0.2,0.5-0.3c0.2-0.1,0.4-0.1,0.6-0.1c0.1,0,0.2,0,0.2,0.1s0.1,0.1,0.2,0.2s0.1,0.1,0.1,0.2
				c0,0.1,0.1,0.1,0.1,0.2c0,0.1,0,0.3,0,0.4l-0.2,0.3c-0.1,0.1-0.2,0.2-0.3,0.2c-0.1,0-0.1,0-0.1-0.1c0-0.1,0-0.2-0.1-0.3
				c-0.1-0.1-0.1-0.2-0.2-0.2s-0.2-0.1-0.3-0.1c-0.3,0-0.6,0.1-0.8,0.3c0.1,0.2,0.2,0.5,0.4,0.7c0.2,0.2,0.4,0.3,0.7,0.3
				c0.3,0,0.6,0,1,0s0.6-0.1,1-0.2c0,0,0,0.1,0,0.2s-0.1,0.2-0.1,0.3c0,0.1-0.1,0.2-0.1,0.3c0,0.1-0.1,0.1-0.1,0.1
				c-0.3,0-0.6,0.1-0.8,0.1c-0.3,0.1-0.6,0.1-0.9,0.2c-0.3,0.1-0.6,0.2-1,0.4c-0.3,0.1-0.7,0.3-0.9,0.4c-0.1,0-0.1,0-0.1-0.1
				c0-0.1,0.1-0.3,0.1-0.4S164.9,17.7,165,17.6z M166.4,19.1C166.4,19.1,166.5,19.1,166.4,19.1c0.1,0.1,0.1,0.1,0.1,0.1s0,0.1,0,0.1
				s0,0.1,0,0.1c0,0.2,0,0.5,0,0.7c0,0.2,0,0.5,0.1,0.7c0.1,0.6,0.1,1.2,0.2,1.8c0.1,0.6,0.2,1.2,0.3,1.8c0.1,0.6,0.2,1.2,0.3,1.8
				c0.1,0.6,0.2,1.2,0.2,1.8c0,0.2,0,0.5,0,0.8c0,0.3,0,0.6,0,0.9c0,0.3-0.1,0.6-0.1,0.9s-0.1,0.5-0.2,0.7c0,0.1-0.1,0.2-0.2,0.2
				c0,0-0.1,0-0.1-0.1c-0.1-1.1-0.2-2.2-0.4-3.4c-0.2-1.2-0.3-2.4-0.5-3.6c-0.2-1.2-0.3-2.4-0.5-3.6c0-0.3,0.1-0.6,0.2-0.9
				c0.1-0.2,0.1-0.4,0.2-0.5C166.2,19.4,166.3,19.2,166.4,19.1z"/>
			<path d="M179.4,36.5c-0.7,0.2-1.3,0.5-1.9,0.7c-0.6,0.2-1.2,0.5-1.8,0.7c-0.1,0-0.1,0-0.1-0.1c0.1-0.1,0.1-0.3,0.2-0.4
				c0.1-0.1,0.1-0.3,0.2-0.4c0-0.1,0.1-0.1,0.2-0.1c0.2-0.1,0.4-0.2,0.7-0.3c0.3-0.1,0.6-0.2,0.9-0.4c0.3-0.1,0.7-0.3,1.1-0.4
				c0.4-0.1,0.7-0.3,1.1-0.4c0.1,0,0.1,0,0.1,0.1c0,0.1-0.1,0.1-0.1,0.2c0,0.1-0.1,0.2-0.1,0.2c0,0.1-0.1,0.1-0.1,0.2
				c0,0.1-0.1,0.1-0.1,0.2C179.6,36.4,179.5,36.4,179.4,36.5C179.5,36.4,179.5,36.5,179.4,36.5z"/>
			<path d="M181.2,30.8c-0.1-0.8-0.2-1.6-0.3-2.4c-0.1-0.8-0.2-1.6-0.3-2.3s-0.2-1.6-0.4-2.4s-0.2-1.6-0.4-2.4
				c0-0.3-0.1-0.5-0.1-0.8s-0.1-0.5-0.3-0.8c-0.1-0.1-0.1-0.1-0.1-0.1s0-0.1,0.1-0.1c0.1-0.2,0.2-0.4,0.3-0.6
				c0.1-0.2,0.2-0.4,0.3-0.6c0-0.1,0.1-0.1,0.1-0.1c0,0,0.1,0,0.1,0.1c0.1,0.2,0.1,0.3,0.2,0.5c0.1,0.2,0.1,0.3,0.2,0.5
				s0.2,0.3,0.3,0.4c0.1,0.1,0.2,0.2,0.4,0.3c-0.1,0.2-0.2,0.3-0.2,0.4c-0.1,0.1-0.1,0.2-0.2,0.3c0,0.1-0.1,0.2-0.1,0.3s0,0.2,0,0.3
				c0,0.2,0,0.5,0.1,1c0,0.3,0.1,0.5,0.1,0.7c0,0.2,0,0.3,0.1,0.5c0.1,0.3,0.1,0.7,0.2,1.2c0.1,0.4,0.1,0.9,0.2,1.4
				c0,0.2,0.1,0.6,0.1,1c0,0.4,0.1,0.9,0.2,1.5c0.1,1.2,0.2,1.8,0.2,1.8c0,0.6-0.2,1.1-0.4,1.6c-0.3,0.5-0.6,0.9-1,1.2
				c-0.4,0.3-0.9,0.6-1.4,0.8c-0.5,0.2-1.1,0.3-1.7,0.3c-0.6,0-1.1-0.1-1.5-0.3c-0.5-0.2-0.8-0.4-1.2-0.7c-0.3-0.3-0.6-0.7-0.8-1.1
				c-0.2-0.4-0.3-0.9-0.3-1.5c0-0.6,0.1-1.2,0.3-1.7c0.2-0.6,0.5-1.1,0.8-1.6c0-0.1,0.1-0.1,0.1-0.1c0,0,0.1,0,0.1,0
				c0,0,0,0.1,0,0.1c0,0,0,0.1,0,0.1c-0.3,0.6-0.5,1.2-0.6,1.8s0,1.2,0.2,1.7c0.1,0.3,0.2,0.5,0.4,0.7c0.2,0.2,0.4,0.4,0.6,0.5
				c0.2,0.2,0.5,0.3,0.8,0.4c0.3,0.1,0.7,0.1,1.1,0.1c0.4,0,0.7,0,1.1-0.1c0.4-0.1,0.7-0.2,1-0.4c0.3-0.2,0.6-0.4,0.9-0.6
				C180.8,31.4,181,31.1,181.2,30.8z"/>
			<path d="M183.3,20.1c0-0.2,0.1-0.5,0.2-0.7c0.1-0.2,0.2-0.4,0.3-0.7c0,0,0,0,0.1-0.1c0,0,0.1,0,0.1,0.1c0.1,0.4,0.2,0.7,0.2,1.1
				c0.1,0.4,0.1,0.8,0.2,1.2c0.1,0.4,0.1,0.9,0.2,1.4c0.1,0.5,0.1,1.1,0.2,1.8c0,0.5,0.1,0.9,0.1,1.3c0,0.4,0.1,0.7,0.1,1
				s0.1,0.5,0.1,0.8c0,0.2,0.1,0.5,0.1,0.7c0.1,0.3,0.1,0.6,0.2,0.9s0.2,0.4,0.4,0.6c0.2,0.2,0.4,0.3,0.6,0.3
				c0.2,0.1,0.5,0.1,0.9,0.1h0.1c0.2,0,0.4,0.1,0.5,0.2c0.1,0.2,0.2,0.3,0.2,0.5s-0.1,0.4-0.2,0.5c-0.1,0.2-0.3,0.2-0.5,0.2h-0.1
				c-0.5,0-0.9-0.1-1.3-0.2c-0.3-0.2-0.6-0.4-0.9-0.7c-0.2-0.3-0.4-0.6-0.5-1c-0.1-0.4-0.2-0.8-0.3-1.2c-0.1-0.4-0.1-0.8-0.1-1.2
				c0-0.4-0.1-0.8-0.1-1.2s-0.1-0.8-0.1-1.1s-0.1-0.7-0.1-1c-0.1-0.6-0.2-1.2-0.2-1.8c-0.1-0.6-0.2-1.2-0.4-1.9
				C183.3,20.3,183.3,20.3,183.3,20.1C183.2,20.2,183.3,20.2,183.3,20.1z"/>
			<path d="M191.6,20.6c-0.3,0.1-0.7,0.3-1.1,0.4c-0.4,0.2-0.7,0.3-1.1,0.5s-0.7,0.3-1,0.4s-0.5,0.2-0.7,0.3c0,0-0.1,0-0.1,0
				c0,0,0,0,0-0.1c0,0,0.1-0.1,0.1-0.2c0-0.1,0.1-0.2,0.2-0.3c0.1-0.1,0.1-0.2,0.1-0.3c0-0.1,0.1-0.1,0.1-0.2
				c0.1-0.1,0.1-0.2,0.2-0.2l3.7-1.6c0.1,0,0.1,0,0.1,0.1c0,0.1-0.1,0.1-0.1,0.2c0,0.1-0.1,0.2-0.1,0.2c0,0.1-0.1,0.2-0.1,0.2
				c0,0.1-0.1,0.1-0.1,0.2C191.7,20.5,191.7,20.5,191.6,20.6z"/>
			<path d="M200.1,27.3c-0.3-0.1-0.6-0.1-0.8-0.2c-0.2-0.1-0.5-0.1-0.7-0.1c-0.2,0-0.5-0.1-0.7-0.1c-0.2,0-0.5,0-0.8-0.1
				c-0.4,0-0.8,0-1.3,0c-0.4,0-0.9,0.1-1.3,0.1c-0.4,0.1-0.8,0.1-1.2,0.2s-0.7,0.1-1,0.2c0,0,0,0,0,0c0.5,0.1,0.9,0.4,1.2,0.7
				c0.2,0.3,0.3,0.7,0.3,1.3c0,0.3-0.1,0.5-0.2,0.8c-0.1,0.2-0.3,0.4-0.4,0.5c-0.2,0.1-0.4,0.2-0.7,0.2s-0.6,0-0.9-0.1
				s-0.6-0.2-0.9-0.4s-0.5-0.4-0.6-0.6c-0.1,0.3-0.3,0.6-0.5,0.9c-0.2,0.2-0.4,0.5-0.6,0.6c-0.2,0.2-0.5,0.3-0.7,0.4
				c-0.3,0.1-0.6,0.1-0.9,0.1h-0.2c-0.2,0-0.4-0.1-0.5-0.2c-0.1-0.2-0.2-0.3-0.2-0.5c0-0.2,0.1-0.4,0.2-0.5c0.1-0.2,0.3-0.2,0.5-0.2
				h0.2c0.2,0,0.4,0,0.6,0c0.2,0,0.5-0.1,0.7-0.2c0.2-0.1,0.4-0.2,0.6-0.4c0.2-0.2,0.4-0.4,0.5-0.7c0.1-0.2,0.2-0.4,0.3-0.6
				c0.1-0.2,0.2-0.4,0.3-0.6c0.1-0.2,0.2-0.4,0.4-0.5c0.1-0.2,0.3-0.3,0.5-0.4c0.3-0.2,0.6-0.3,1-0.5c0.4-0.1,0.8-0.2,1.2-0.3
				c0.4-0.1,0.8-0.1,1.2-0.2c0.4,0,0.7-0.1,1-0.1c-0.1-0.1-0.3-0.2-0.4-0.3c-0.2-0.1-0.4-0.2-0.6-0.3s-0.5-0.2-0.7-0.3
				c-0.2-0.1-0.5-0.2-0.7-0.2c-0.4-0.1-0.7-0.1-1,0c-0.3,0.1-0.6,0.2-0.8,0.3c0,0-0.1,0-0.2,0.1c-0.1,0-0.1,0-0.1-0.1
				c0-0.2,0.1-0.4,0.2-0.6s0.3-0.4,0.4-0.6c0.2-0.2,0.4-0.3,0.6-0.4c0.2-0.1,0.4-0.2,0.6-0.2c0.3,0,0.6,0,1,0.2
				c0.3,0.1,0.7,0.3,1,0.5c0.3,0.2,0.7,0.4,1,0.6c0.3,0.2,0.7,0.4,1,0.5c0.1,0.1,0.3,0.2,0.5,0.3c0.2,0.1,0.5,0.2,0.8,0.3
				s0.7,0.2,1.1,0.4s0.9,0.2,1.4,0.3c-0.2,0.2-0.3,0.5-0.5,0.7S200.3,27,200.1,27.3z M193,29.2c0,0,0-0.1,0-0.2
				c-0.1-0.1-0.1-0.2-0.2-0.2c-0.1-0.1-0.2-0.2-0.4-0.2s-0.3-0.1-0.4-0.2c-0.1,0-0.2-0.1-0.3-0.1s-0.2,0-0.3-0.1c-0.1,0-0.2,0-0.3,0
				c-0.1,0-0.2,0.1-0.2,0.2c0,0.1,0,0.2,0,0.3c0.1,0.1,0.2,0.2,0.3,0.3s0.3,0.2,0.5,0.2c0.2,0.1,0.4,0.1,0.5,0.1c0.2,0,0.3,0,0.5,0
				C192.8,29.3,192.9,29.3,193,29.2z"/>
			<path d="M206.3,12.1c-0.3,0.1-0.7,0.3-1.1,0.4c-0.4,0.2-0.7,0.3-1.1,0.5s-0.7,0.3-1,0.4s-0.5,0.2-0.7,0.3c0,0-0.1,0-0.1,0
				c0,0,0,0,0-0.1c0,0,0.1-0.1,0.1-0.2c0-0.1,0.1-0.2,0.2-0.3c0.1-0.1,0.1-0.2,0.1-0.3c0-0.1,0.1-0.1,0.1-0.2
				c0.1-0.1,0.1-0.2,0.2-0.2l3.7-1.6c0.1,0,0.1,0,0.1,0.1c0,0.1-0.1,0.1-0.1,0.2c0,0.1-0.1,0.2-0.1,0.2c0,0.1-0.1,0.2-0.1,0.2
				c0,0.1-0.1,0.1-0.1,0.2C206.4,12,206.4,12,206.3,12.1z"/>
			<path d="M202.8,17.2c0,0,0.1-0.1,0.2-0.1s0.1-0.1,0.2-0.1s0.1-0.1,0.2-0.1c0.1,0,0.1-0.1,0.2-0.1c-0.1-0.1-0.3-0.2-0.4-0.4
				c-0.1-0.1-0.2-0.3-0.3-0.5c0-0.1,0-0.2,0-0.3s0.1-0.2,0.1-0.2c0.1-0.1,0.2-0.3,0.3-0.4c0.1-0.2,0.3-0.3,0.4-0.4
				c0.2-0.1,0.3-0.2,0.5-0.3c0.2-0.1,0.4-0.1,0.5-0.1c0.1,0,0.1,0,0.2,0.1c0.1,0,0.1,0.1,0.2,0.2c0,0.1,0.1,0.1,0.1,0.2
				c0,0.1,0.1,0.1,0.1,0.2c0,0.1,0,0.3,0,0.3l-0.2,0.3c-0.1,0.1-0.1,0.2-0.3,0.2c-0.1,0-0.1,0-0.1-0.1c0-0.1,0-0.2-0.1-0.2
				c-0.1-0.1-0.1-0.2-0.2-0.2c-0.1,0-0.1-0.1-0.2-0.1c-0.3,0-0.6,0.1-0.8,0.3c0.1,0.2,0.2,0.4,0.4,0.6c0.2,0.2,0.4,0.3,0.7,0.3
				c0.3,0,0.6,0,0.9,0c0.3-0.1,0.6-0.1,0.9-0.2c0,0,0,0.1,0,0.2c0,0.1-0.1,0.2-0.1,0.3c0,0.1-0.1,0.2-0.1,0.3c0,0.1-0.1,0.1-0.1,0.1
				c-0.3,0-0.5,0.1-0.8,0.1c-0.3,0.1-0.6,0.1-0.8,0.2c-0.3,0.1-0.6,0.2-0.9,0.4c-0.3,0.1-0.6,0.3-0.9,0.4c-0.1,0-0.1,0-0.1-0.1
				c0-0.1,0.1-0.2,0.1-0.4S202.7,17.3,202.8,17.2z M210.6,27.2c0.2-0.6,0.4-1.2,0.5-1.9c0.1-0.6,0.2-1.3,0.2-1.9c0-0.6,0-1.3,0-1.9
				c0-0.6-0.1-1.3-0.1-1.9c0-0.2-0.1-0.3-0.1-0.4c-0.1-0.1-0.1-0.2-0.2-0.4c0.1-0.2,0.3-0.4,0.4-0.6c0.1-0.2,0.3-0.4,0.4-0.6
				c0.1-0.1,0.1-0.1,0.2,0c0,0.2,0.1,0.3,0.1,0.5c0.1,0.2,0.1,0.4,0.2,0.5c0.1,0.2,0.2,0.3,0.3,0.5c0.1,0.2,0.2,0.3,0.3,0.4
				c0,0.1-0.1,0.1-0.2,0.2c-0.1,0.1-0.1,0.2-0.2,0.3c-0.1,0.1-0.1,0.2-0.2,0.3c0,0.1-0.1,0.2-0.1,0.4c0,0.6,0,1.3,0,1.9
				c0,0.7-0.1,1.3-0.2,1.9c-0.1,0.6-0.2,1.2-0.4,1.8c-0.2,0.6-0.3,1.1-0.6,1.6c0.2,0.4,0.4,0.7,0.5,1.1c0.1,0.4,0.3,0.8,0.3,1.2
				c0,0.3,0,0.5-0.1,0.8s-0.2,0.5-0.3,0.8c-0.2,0-0.5,0.1-0.8,0.1s-0.7,0.1-1,0.1c-0.4,0-0.7,0.1-1.1,0.1c-0.3,0-0.7,0-0.9,0
				c0,0,0-0.1,0-0.2c0-0.1,0-0.2,0-0.4s0.1-0.3,0.1-0.4s0.1-0.2,0.1-0.3c0-0.1,0.1-0.1,0.2-0.1c0.2,0,0.4,0,0.5-0.1s0.2-0.1,0.2-0.1
				c0.1-0.1,0.2-0.2,0.3-0.4s0.3-0.4,0.4-0.6c0.2-0.2,0.3-0.5,0.5-0.7c0.1-0.2,0.3-0.5,0.4-0.7c-0.3-0.5-0.6-1-1-1.6
				c-0.4-0.5-0.8-1.1-1.1-1.6c-0.4-0.5-0.8-1-1.2-1.5s-0.9-0.9-1.3-1.3c-0.2,0.1-0.4,0.1-0.6,0.1c-0.1,0-0.3-0.1-0.5-0.2
				s-0.4-0.2-0.6-0.3c-0.2-0.1-0.3-0.3-0.5-0.4c-0.1-0.2-0.2-0.3-0.2-0.5c0,0,0-0.1,0-0.3c0-0.1,0-0.3,0-0.4s0-0.3,0-0.5
				c0-0.2,0.1-0.3,0.1-0.5c0-0.1,0.1-0.2,0.1-0.3c0.1,0,0.2,0,0.3,0.1c0.4,0.3,0.9,0.6,1.3,1c0.4,0.4,0.9,0.8,1.3,1.3
				c0.4,0.5,0.8,0.9,1.2,1.4s0.8,1,1.1,1.5c0.4,0.5,0.7,1,1,1.5C210,26.3,210.3,26.7,210.6,27.2z M209.4,30.6c0.3,0,0.6-0.1,1-0.1
				c0.3,0,0.6-0.1,0.9-0.2c0-0.1,0-0.2-0.1-0.3s-0.1-0.3-0.2-0.5c-0.1-0.2-0.2-0.3-0.2-0.5c-0.1-0.2-0.1-0.3-0.2-0.3
				c-0.2,0.3-0.3,0.6-0.5,0.9S209.6,30.3,209.4,30.6z"/>
			<path d="M215.5,18.9C215.5,18.9,215.6,18.9,215.5,18.9c0.1,0.1,0.1,0.1,0.1,0.1c0,0,0,0.1,0,0.1s0,0.1,0,0.1c0,0.2,0,0.5,0,0.7
				c0,0.2,0,0.5,0.1,0.7c0.1,0.6,0.1,1.2,0.2,1.8c0.1,0.6,0.2,1.2,0.3,1.9c0.1,0.6,0.2,1.2,0.3,1.9c0.1,0.6,0.2,1.2,0.2,1.8
				c0,0.2,0,0.5,0,0.8s0,0.6,0,0.9s-0.1,0.6-0.1,0.9s-0.1,0.5-0.2,0.7c0,0.1-0.1,0.2-0.2,0.2c0,0-0.1,0-0.1-0.1
				c-0.1-1.1-0.2-2.3-0.4-3.5c-0.2-1.2-0.3-2.4-0.5-3.7c-0.2-1.2-0.3-2.4-0.5-3.6c0-0.3,0.1-0.6,0.2-1c0.1-0.2,0.1-0.4,0.2-0.5
				C215.3,19.2,215.4,19,215.5,18.9z"/>
			<path class="st0" d="M227,22.4c-0.1,0-0.1-0.1,0-0.1c0.1-0.1,0.1-0.1,0.2-0.2c0.2-0.1,0.4-0.3,0.6-0.4c0.2-0.1,0.4-0.3,0.6-0.4
				s0.4-0.3,0.6-0.4s0.4-0.3,0.6-0.6c-0.2-0.1-0.4-0.1-0.6-0.3c-0.2-0.1-0.4-0.3-0.5-0.4c-0.1-0.1-0.1-0.2-0.1-0.3s0-0.2,0-0.3
				c0.1-0.2,0.1-0.3,0.2-0.5c0.1-0.2,0.2-0.3,0.3-0.5s0.3-0.3,0.4-0.4c0.2-0.1,0.3-0.1,0.5-0.1c0.1,0,0.2,0.1,0.3,0.1
				c0.1,0.1,0.1,0.2,0.2,0.3c0,0.1,0.1,0.3,0.1,0.4c0,0.2,0,0.3,0,0.5c0,0.2,0,0.3,0,0.4c0,0.1,0,0.2-0.1,0.3c0,0,0,0,0,0.1
				c0.1,0,0.1,0.1,0.2,0.1c0,0,0.1,0.1,0.1,0.1c0,0.1,0,0.2,0,0.3c0,0.1-0.1,0.2-0.1,0.3c0,0.1-0.1,0.1-0.1,0.1c0,0-0.1,0-0.1-0.1
				c0,0-0.1-0.1-0.1-0.1c0,0-0.1-0.1-0.1-0.1c-0.2,0.3-0.4,0.5-0.6,0.7c-0.2,0.2-0.4,0.3-0.6,0.5s-0.4,0.3-0.6,0.4
				c-0.2,0.1-0.5,0.2-0.8,0.3c-0.1,0-0.2,0.1-0.4,0.1C227.1,22.4,227,22.4,227,22.4z M229.1,18.8c0.1,0.2,0.3,0.3,0.5,0.4
				s0.4,0.2,0.5,0.2h0c0-0.1,0-0.1,0-0.2c0-0.1,0-0.2,0-0.3c0-0.1,0-0.2,0-0.3c0-0.1-0.1-0.2-0.1-0.2c-0.1,0-0.1-0.1-0.2-0.1
				c-0.1,0-0.2,0-0.3,0.1c-0.1,0-0.2,0.1-0.2,0.1C229.1,18.7,229.1,18.7,229.1,18.8z"/>
			<path class="st0" d="M223.6,25.4c0,0,0.1-0.1,0.1,0c0,0,0.1,0,0.1,0c0,0,0,0.1,0,0.1c0,0,0,0.1,0,0.1c-0.2,0.3-0.4,0.7-0.5,1.1
				c-0.1,0.4-0.2,0.8-0.1,1.1c0.1,0.5,0.2,0.9,0.5,1.2c0.3,0.3,0.6,0.6,1.1,0.7c0.4,0.2,0.9,0.3,1.4,0.4c0.5,0.1,1,0.1,1.5,0.1
				c1.4,0,2.8-0.1,4.1-0.5c1.3-0.4,2.6-0.8,3.9-1.5c0,0,0.1,0,0.1,0c0,0,0,0,0,0.1c-0.1,0.4-0.1,0.8,0.2,1.2
				c0.1,0.2,0.3,0.3,0.6,0.4c0.3,0.1,0.6,0.1,1,0.1h0.2c0.2,0,0.4,0.1,0.5,0.2s0.2,0.3,0.2,0.5s-0.1,0.4-0.2,0.5s-0.3,0.2-0.5,0.2
				h-0.2c-0.7,0-1.3-0.1-1.7-0.4c-0.4-0.3-0.7-0.7-0.9-1.3c-0.6,0.3-1.2,0.6-1.8,0.8c-0.6,0.2-1.2,0.4-1.8,0.6
				c-0.6,0.1-1.2,0.3-1.9,0.3s-1.3,0.1-2,0.2c-0.3,0-0.7,0-1.1,0c-0.4,0-0.8-0.1-1.1-0.2c-0.4-0.1-0.7-0.2-1.1-0.4
				c-0.3-0.2-0.6-0.4-0.9-0.6c-0.3-0.3-0.5-0.6-0.6-0.9c-0.2-0.3-0.2-0.7-0.2-1.2c0-0.6,0.1-1.2,0.3-1.7
				C223,26.2,223.3,25.8,223.6,25.4z M230.7,26.6C230.6,26.6,230.6,26.6,230.7,26.6c-0.1,0.1-0.1,0-0.2,0l-1.2-0.9l-0.8,1
				c0,0.1-0.1,0.1-0.1,0l-1.2-1c0,0-0.1-0.1,0-0.1l0.8-1.1c0,0,0-0.1,0.1-0.1s0,0,0.1,0l1.2,0.9l0.8-1c0-0.1,0.1-0.1,0.1,0l1.2,1
				c0,0,0,0.1,0,0.1L230.7,26.6z"/>
			<path class="st0" d="M241.3,16c-0.3,0.1-0.7,0.3-1.1,0.4c-0.4,0.2-0.7,0.3-1.1,0.5s-0.7,0.3-1,0.4c-0.3,0.1-0.5,0.2-0.7,0.3
				c0,0-0.1,0-0.1,0c0,0,0,0,0-0.1c0,0,0.1-0.1,0.1-0.2s0.1-0.2,0.2-0.3c0.1-0.1,0.1-0.2,0.1-0.3c0-0.1,0.1-0.1,0.1-0.2
				c0.1-0.1,0.1-0.2,0.2-0.2l3.7-1.6c0.1,0,0.1,0,0.1,0.1c0,0.1-0.1,0.1-0.1,0.2c0,0.1-0.1,0.2-0.1,0.2c0,0.1-0.1,0.2-0.1,0.2
				c0,0.1-0.1,0.1-0.1,0.2C241.4,15.9,241.3,15.9,241.3,16z"/>
			<path class="st0" d="M239.9,18.4c0-0.1,0-0.1,0.1-0.1c0,0,0.1,0,0.1,0.1c0.1,0.2,0.1,0.3,0.2,0.5c0.1,0.2,0.1,0.3,0.2,0.5
				c0.1,0.2,0.2,0.3,0.3,0.4c0.1,0.1,0.3,0.2,0.4,0.3c-0.1,0.2-0.2,0.3-0.2,0.4c-0.1,0.1-0.1,0.2-0.2,0.3c0,0.1-0.1,0.2-0.1,0.3
				s0,0.2,0,0.3c0.1,0.6,0.1,1.2,0.2,1.9c0.1,0.6,0.2,1.2,0.3,1.9s0.2,1.2,0.2,1.9s0.1,1.2,0.1,1.9c0,0.1,0,0.3,0,0.5
				c0,0.2-0.1,0.4-0.1,0.6c-0.1,0.2-0.1,0.4-0.2,0.5c-0.1,0.2-0.2,0.3-0.3,0.4c-0.2,0.2-0.4,0.3-0.7,0.4s-0.6,0.2-0.9,0.2
				s-0.6,0.1-0.9,0.1s-0.6,0-0.8,0h-0.2c-0.2,0-0.4-0.1-0.5-0.2s-0.2-0.3-0.2-0.5s0.1-0.4,0.2-0.5s0.3-0.2,0.5-0.2h0.2
				c0.1,0,0.2,0,0.4,0c0.2,0,0.4,0,0.6,0c0.2,0,0.5,0,0.7-0.1c0.3,0,0.5-0.1,0.7-0.1s0.4-0.1,0.6-0.2c0.2-0.1,0.3-0.1,0.3-0.2
				c-0.1-1.4-0.3-2.7-0.5-4.1c-0.2-1.3-0.4-2.7-0.6-4c0-0.3-0.1-0.5-0.2-0.8c-0.1-0.3-0.2-0.5-0.3-0.8c-0.1-0.1-0.1-0.1-0.1-0.1
				s0-0.1,0-0.2c0.1-0.2,0.2-0.4,0.3-0.6C239.7,18.7,239.8,18.6,239.9,18.4z"/>
			<path class="st0" d="M247.2,21.3c0,0.2,0,0.4-0.1,0.7c-0.1,0.2-0.1,0.4-0.3,0.6c-0.1,0.2-0.3,0.3-0.5,0.4
				c-0.2,0.1-0.4,0.1-0.7,0.1c-0.3,0-0.6-0.1-0.8-0.3c-0.2-0.2-0.3-0.5-0.4-0.8c0-0.2,0-0.4,0.1-0.7c0.1-0.3,0.1-0.5,0.3-0.7
				s0.3-0.5,0.5-0.6s0.4-0.3,0.7-0.3c0.2,0,0.5,0,0.6,0.2c0.2,0.1,0.3,0.3,0.4,0.5c0.1,0.2,0.2,0.4,0.2,0.6
				C247.2,21,247.2,21.2,247.2,21.3z M245.7,20.6c-0.1,0-0.2,0.1-0.3,0.1c-0.1,0.1-0.2,0.1-0.3,0.2c-0.1,0.1-0.1,0.2-0.2,0.3
				c0,0.1-0.1,0.2-0.1,0.3s0,0.2,0.1,0.2c0.1,0.1,0.1,0.1,0.2,0.1c0.1,0,0.2,0.1,0.3,0.1c0.1,0,0.2,0,0.3,0c0.4,0,0.7-0.2,0.9-0.4
				c0-0.1,0-0.2,0-0.4s-0.1-0.2-0.2-0.3c-0.1-0.1-0.2-0.2-0.3-0.2C246,20.6,245.9,20.6,245.7,20.6z"/>
			<path class="st0" d="M248.5,29.8c-0.1,0.3-0.3,0.5-0.5,0.7c-0.2,0.2-0.5,0.3-0.9,0.3c-0.2,0-0.3,0-0.5-0.1s-0.3-0.2-0.4-0.4
				s-0.2-0.3-0.3-0.5c-0.1-0.2-0.1-0.4-0.1-0.6c0-0.1,0-0.3,0.1-0.5c0-0.2,0.1-0.4,0.2-0.6c0.1-0.2,0.2-0.4,0.2-0.6
				c0.1-0.2,0.2-0.4,0.3-0.5c0.1-0.1,0.2-0.3,0.4-0.4c0.1-0.1,0.3-0.1,0.4-0.1c0.3,0,0.5,0.1,0.7,0.3c0.2,0.2,0.4,0.5,0.6,0.8
				c0.2,0.3,0.3,0.7,0.4,1c0.1,0.4,0.1,0.7,0.1,1.1c0,0.5-0.1,0.9-0.2,1.5c-0.1,0.5-0.3,1-0.4,1.5c-0.2,0.5-0.4,0.9-0.6,1.4
				s-0.5,0.8-0.8,1.1c-0.3,0.3-0.5,0.5-0.8,0.7c-0.3,0.2-0.6,0.3-1,0.5c-0.3,0.1-0.7,0.2-1.1,0.2c-0.4,0-0.7,0.1-1.1,0
				c-0.4,0-0.8-0.1-1.2-0.1c-0.4-0.1-0.8-0.1-1.1-0.3c-0.1,0-0.1-0.1-0.1-0.1c0,0,0-0.1,0-0.1s0.1-0.1,0.1-0.1c0.1,0,0.1,0,0.2,0
				c0.5,0.1,1,0.1,1.6,0c0.5-0.1,1-0.2,1.5-0.4c0.4-0.1,0.8-0.3,1.2-0.6c0.4-0.2,0.7-0.5,1.1-0.8c0.3-0.2,0.5-0.5,0.7-0.8
				c0.2-0.3,0.4-0.6,0.6-0.9s0.4-0.6,0.5-0.9c0.1-0.3,0.2-0.6,0.3-0.9c0-0.1,0-0.1,0-0.2c0-0.1,0-0.1,0-0.2c0-0.1,0-0.1-0.1-0.2
				C248.5,29.9,248.5,29.8,248.5,29.8z M248.1,28.9c0,0,0-0.1-0.1-0.2c0-0.1-0.1-0.2-0.2-0.3s-0.2-0.2-0.3-0.2
				c-0.1-0.1-0.2-0.1-0.4-0.1c-0.1,0-0.2,0-0.3,0.1c-0.1,0.1-0.1,0.1-0.2,0.2c-0.1,0.1-0.1,0.2-0.1,0.3c0,0.1,0,0.2,0,0.2
				c0.1,0.1,0.2,0.2,0.4,0.3c0.1,0.1,0.3,0.1,0.4,0.1c0.2,0,0.3-0.1,0.5-0.1C248,29.1,248.1,29,248.1,28.9z"/>
			<path class="st0" d="M250.1,13.9c-0.1,0-0.1-0.1,0-0.1c0.1-0.1,0.1-0.1,0.2-0.2c0.2-0.1,0.4-0.3,0.6-0.4c0.2-0.1,0.4-0.3,0.6-0.4
				s0.4-0.3,0.6-0.4c0.2-0.2,0.4-0.3,0.6-0.6c-0.2-0.1-0.4-0.1-0.5-0.3c-0.2-0.1-0.4-0.3-0.5-0.4c-0.1-0.1-0.1-0.2-0.1-0.3
				s0-0.2,0-0.3c0.1-0.2,0.1-0.3,0.2-0.5c0.1-0.2,0.2-0.3,0.3-0.5c0.1-0.1,0.3-0.3,0.4-0.4c0.2-0.1,0.3-0.1,0.5-0.1
				c0.1,0,0.2,0.1,0.3,0.1c0.1,0.1,0.1,0.2,0.2,0.3c0,0.1,0.1,0.3,0.1,0.4s0,0.3,0,0.5c0,0.2,0,0.3,0,0.4s0,0.2-0.1,0.3
				c0,0,0,0,0,0.1c0.1,0,0.1,0.1,0.2,0.1c0,0,0.1,0.1,0.1,0.1c0,0.1,0,0.2,0,0.3c0,0.1-0.1,0.2-0.1,0.3c0,0.1-0.1,0.1-0.1,0.1
				c0,0-0.1,0-0.1-0.1c0,0-0.1-0.1-0.1-0.1c0,0-0.1-0.1-0.1-0.1c-0.2,0.3-0.4,0.5-0.6,0.7s-0.4,0.3-0.6,0.5s-0.4,0.3-0.6,0.4
				c-0.2,0.1-0.5,0.2-0.8,0.3c-0.1,0-0.2,0.1-0.4,0.1C250.3,13.9,250.2,13.9,250.1,13.9z M252.2,10.3c0.1,0.2,0.3,0.3,0.5,0.4
				s0.4,0.2,0.5,0.2h0c0-0.1,0-0.1,0-0.2c0-0.1,0-0.2,0-0.3c0-0.1,0-0.2,0-0.3c0-0.1-0.1-0.2-0.1-0.2c-0.1,0-0.1-0.1-0.2-0.1
				c-0.1,0-0.2,0-0.3,0.1c-0.1,0-0.2,0.1-0.2,0.1C252.2,10.2,252.2,10.2,252.2,10.3z"/>
			<path class="st0" d="M250.7,17.6c0,0,0.1-0.1,0.2-0.1c0.1,0,0.1-0.1,0.2-0.1c0.1,0,0.1-0.1,0.2-0.1c0.1,0,0.1-0.1,0.2-0.1
				c-0.2-0.1-0.3-0.2-0.4-0.4c-0.1-0.1-0.2-0.3-0.3-0.5c0-0.1,0-0.2,0-0.3c0-0.1,0.1-0.2,0.1-0.3c0.1-0.2,0.2-0.3,0.4-0.5
				c0.1-0.2,0.3-0.3,0.4-0.4s0.3-0.2,0.5-0.3c0.2-0.1,0.4-0.1,0.6-0.1c0.1,0,0.2,0,0.2,0.1s0.1,0.1,0.2,0.2c0.1,0.1,0.1,0.1,0.1,0.2
				s0.1,0.1,0.1,0.2c0,0.1,0,0.3,0,0.4l-0.2,0.3c-0.1,0.1-0.2,0.2-0.3,0.2c-0.1,0-0.1,0-0.1-0.1c0-0.1,0-0.2-0.1-0.3
				c-0.1-0.1-0.1-0.2-0.2-0.2c-0.1,0-0.2-0.1-0.3-0.1c-0.3,0-0.6,0.1-0.8,0.3c0.1,0.2,0.2,0.5,0.4,0.7s0.4,0.3,0.7,0.3
				c0.3,0,0.6,0,1,0c0.3-0.1,0.6-0.1,1-0.2c0,0,0,0.1,0,0.2c0,0.1-0.1,0.2-0.1,0.3c0,0.1-0.1,0.2-0.1,0.3s-0.1,0.1-0.1,0.1
				c-0.3,0-0.6,0.1-0.8,0.1s-0.6,0.1-0.9,0.2c-0.3,0.1-0.6,0.2-1,0.4s-0.7,0.3-0.9,0.4c-0.1,0-0.1,0-0.1-0.1c0-0.1,0.1-0.3,0.1-0.4
				S250.7,17.7,250.7,17.6z M252.1,19.1C252.1,19.1,252.2,19.1,252.1,19.1c0.1,0.1,0.1,0.1,0.1,0.1s0,0.1,0,0.1s0,0.1,0,0.1
				c0,0.2,0,0.5,0,0.7c0,0.2,0,0.5,0.1,0.7c0.1,0.6,0.1,1.2,0.2,1.8c0.1,0.6,0.2,1.2,0.3,1.8c0.1,0.6,0.2,1.2,0.3,1.8
				c0.1,0.6,0.2,1.2,0.2,1.8c0,0.2,0,0.5,0,0.8c0,0.3,0,0.6,0,0.9c0,0.3-0.1,0.6-0.1,0.9s-0.1,0.5-0.2,0.7c0,0.1-0.1,0.2-0.2,0.2
				c0,0-0.1,0-0.1-0.1c-0.1-1.1-0.2-2.2-0.4-3.4c-0.2-1.2-0.3-2.4-0.5-3.6c-0.2-1.2-0.3-2.4-0.5-3.6c0-0.3,0.1-0.6,0.2-0.9
				c0.1-0.2,0.1-0.4,0.2-0.5C252,19.4,252,19.2,252.1,19.1z"/>
			<path d="M259.1,22.1c-0.3,0.1-0.7,0.3-1.1,0.4c-0.4,0.2-0.7,0.3-1.1,0.5s-0.7,0.3-1,0.4c-0.3,0.1-0.5,0.2-0.7,0.3
				c0,0-0.1,0-0.1,0c0,0,0,0,0-0.1c0,0,0.1-0.1,0.1-0.2s0.1-0.2,0.2-0.3c0.1-0.1,0.1-0.2,0.1-0.3c0-0.1,0.1-0.1,0.1-0.2
				c0.1-0.1,0.1-0.2,0.2-0.2l3.7-1.6c0.1,0,0.1,0,0.1,0.1c0,0.1-0.1,0.1-0.1,0.2c0,0.1-0.1,0.2-0.1,0.2c0,0.1-0.1,0.2-0.1,0.2
				c0,0.1-0.1,0.1-0.1,0.2C259.2,22,259.2,22,259.1,22.1z"/>
			<path d="M259.8,29.8c-0.1,0.3-0.3,0.5-0.5,0.7c-0.2,0.2-0.5,0.3-0.9,0.3c-0.2,0-0.3,0-0.5-0.1s-0.3-0.2-0.4-0.4
				c-0.1-0.1-0.2-0.3-0.3-0.5s-0.1-0.4-0.1-0.6c0-0.1,0-0.3,0.1-0.5c0-0.2,0.1-0.4,0.2-0.6c0.1-0.2,0.2-0.4,0.2-0.6
				c0.1-0.2,0.2-0.4,0.3-0.5s0.2-0.3,0.4-0.4c0.1-0.1,0.3-0.1,0.4-0.1c0.3,0,0.5,0.1,0.7,0.3s0.4,0.5,0.6,0.8c0.2,0.3,0.3,0.7,0.4,1
				c0.1,0.4,0.1,0.7,0.1,1.1c0,0.5-0.1,0.9-0.2,1.5c-0.1,0.5-0.3,1-0.4,1.5c-0.2,0.5-0.4,0.9-0.6,1.4s-0.5,0.8-0.8,1.1
				c-0.3,0.3-0.5,0.5-0.8,0.7c-0.3,0.2-0.6,0.3-1,0.5c-0.3,0.1-0.7,0.2-1.1,0.2c-0.4,0-0.7,0.1-1.1,0c-0.4,0-0.8-0.1-1.2-0.1
				c-0.4-0.1-0.8-0.1-1.1-0.3c-0.1,0-0.1-0.1-0.1-0.1s0-0.1,0-0.1s0.1-0.1,0.1-0.1c0.1,0,0.1,0,0.2,0c0.5,0.1,1,0.1,1.6,0
				c0.5-0.1,1-0.2,1.5-0.4c0.4-0.1,0.8-0.3,1.2-0.6c0.4-0.2,0.7-0.5,1.1-0.8c0.3-0.2,0.5-0.5,0.7-0.8c0.2-0.3,0.4-0.6,0.6-0.9
				c0.2-0.3,0.4-0.6,0.5-0.9c0.1-0.3,0.2-0.6,0.3-0.9c0-0.1,0-0.1,0-0.2s0-0.1,0-0.2c0-0.1,0-0.1-0.1-0.2
				C259.9,29.9,259.9,29.8,259.8,29.8z M259.5,28.9c0,0,0-0.1-0.1-0.2c0-0.1-0.1-0.2-0.2-0.3c-0.1-0.1-0.2-0.2-0.3-0.2
				c-0.1-0.1-0.2-0.1-0.4-0.1c-0.1,0-0.2,0-0.3,0.1c-0.1,0.1-0.1,0.1-0.2,0.2c-0.1,0.1-0.1,0.2-0.1,0.3c0,0.1,0,0.2,0,0.2
				c0.1,0.1,0.2,0.2,0.4,0.3c0.1,0.1,0.3,0.1,0.4,0.1c0.2,0,0.3-0.1,0.5-0.1C259.3,29.1,259.4,29,259.5,28.9z"/>
		</g>
	</g>
	<g>
		<path d="M276.9,27.2c0,0.1-0.1,0.3-0.2,0.4c-0.1,0.2-0.4,0.4-0.7,0.6c0,0.3,0,0.7-0.1,1c-0.1,0.3-0.2,0.4-0.3,0.4
			c-0.3-0.3-0.7-0.6-1-0.8c-0.3-0.3-0.7-0.4-1.1-0.4c0,0.4,0.2,0.7,0.5,1.1c0.3,0.3,0.6,0.6,0.8,0.9c0,0.2-0.3,0.3-0.9,0.4
			c-0.4,0.1-0.8,0.1-1.1,0.1c-0.4,1.3-1,2.4-1.7,3.5c-0.3,0.4-0.8,0.9-1.3,1.5c-0.7,0.7-1.3,1.1-1.6,1.1c-0.1,0-0.2-0.1-0.2-0.2
			c0-0.1,0.2-0.3,0.6-0.8c0.6-0.7,1-1.3,1.3-1.8c0.5-1,0.9-2.1,1.1-3.3c-0.4-0.1-0.6-0.1-0.7-0.2c-0.1-0.1-0.2-0.1-0.2-0.2
			c0.8-0.7,1.3-1.4,1.3-2c-0.4,0-0.7,0.1-1,0.4c-0.2,0.2-0.5,0.5-0.9,0.9c-0.1,0-0.2-0.2-0.3-0.5c-0.1-0.3-0.2-0.6-0.2-1
			c-0.4-0.2-0.6-0.3-0.6-0.3c-0.2-0.2-0.3-0.4-0.3-0.6c0-0.1,0.1-0.2,0.2-0.4c0.1-0.1,0.3-0.2,0.7-0.5c0-1,0.2-1.4,0.5-1.4
			c0.7,0.8,1.4,1.2,2,1.3c0-0.3-0.2-0.7-0.5-1.1c0,0-0.3-0.3-0.8-0.9c0-0.1,0.1-0.1,0.2-0.2c0.1-0.1,0.4-0.1,0.8-0.2
			c-0.2-1-0.6-1.9-1.1-3c-0.6-1-1.2-1.9-2-2.5c-0.1-0.1-0.2-0.2-0.2-0.3c0-0.1,0.1-0.1,0.2-0.1c0.2,0,0.6,0.2,1.1,0.6
			c1.6,1.1,2.8,2.9,3.7,5.2c1.2,0,1.9,0.2,1.9,0.5c-0.3,0.3-0.6,0.6-0.8,0.9c-0.2,0.3-0.4,0.7-0.4,1.1c0.3,0,0.6-0.1,0.9-0.4l1-0.9
			c0.2,0,0.4,0.4,0.5,1.2c0,0.1,0,0.1,0,0.2C276.6,26.6,276.9,26.9,276.9,27.2z M274.1,24.3c0,0-0.1-0.1-0.3-0.1
			c-0.2,0-0.4-0.1-0.5-0.1h-0.4c-0.1,0-0.2,0-0.3,0c-0.3-1.1-0.8-2.1-1.5-3.1c-0.8-1.1-1.6-2-2.6-2.6c0.7,0.6,1.3,1.4,1.8,2.3
			c0.6,1.1,1.1,2.2,1.2,3.4c-0.5,0-0.7,0.1-0.7,0.2c0.5,0.4,0.9,0.9,1.1,1.3c0.1-0.2,0.2-0.4,0.3-0.7c0,0,0.1-0.1,0.1-0.3
			c0.1-0.2,0.1-0.3,0.2-0.3c0.1,0,0.4,0.4,0.6,1.2c0.1-0.3,0.3-0.6,0.5-0.8C273.7,24.7,273.9,24.5,274.1,24.3z M271.1,27.9
			c-0.1-0.1-0.4-0.2-1-0.3c-0.4-0.1-0.5-0.2-0.5-0.3c0,0,0.3-0.2,0.8-0.4c0.1-0.1,0.3-0.1,0.7-0.3c-0.3-0.1-0.6-0.3-0.8-0.4
			c-0.1-0.1-0.3-0.3-0.6-0.5c-0.1,0-0.2,0.3-0.2,1c-0.5,0.3-0.8,0.5-0.8,0.7c0,0.1,0.3,0.3,0.8,0.5c0,0.7,0.1,1.1,0.2,1.1
			c0,0,0.2-0.2,0.6-0.5C270.6,28.1,270.9,27.9,271.1,27.9z M274.2,30.1c-0.4-0.3-0.8-0.8-1.1-1.3c-0.1,0.1-0.1,0.3-0.3,0.6
			c0,0-0.1,0.2-0.2,0.4c-0.1,0.2-0.1,0.3-0.2,0.3c0,0-0.1-0.1-0.2-0.3c-0.1-0.2-0.1-0.3-0.1-0.3c0-0.1-0.1-0.3-0.3-0.6
			c-0.1,0.2-0.2,0.5-0.5,0.8c-0.2,0.2-0.3,0.4-0.5,0.6c0,0.1,0.2,0.1,0.7,0.2c-0.3,1.1-0.5,1.8-0.6,2.1c-0.4,1.3-1.1,2.5-2.1,3.6
			c1.7-1.1,2.9-3,3.8-5.8c0.6,0,0.9,0,0.8,0C274,30.3,274.2,30.2,274.2,30.1z M273.7,27.2c0-0.3-0.1-0.6-0.3-0.8
			c-0.2-0.2-0.5-0.3-0.8-0.3c-0.3,0-0.6,0.1-0.8,0.3c-0.2,0.2-0.3,0.5-0.3,0.8c0,0.3,0.1,0.6,0.3,0.8c0.2,0.2,0.5,0.3,0.8,0.3
			c0.3,0,0.6-0.1,0.8-0.3C273.6,27.8,273.7,27.5,273.7,27.2z M276.4,27.2c0-0.1-0.1-0.1-0.2-0.2c-0.1-0.1-0.3-0.2-0.6-0.3
			c0-0.3,0-0.6-0.1-0.8c-0.1-0.2-0.1-0.3-0.1-0.4c0,0-0.2,0.1-0.5,0.4c-0.3,0.3-0.6,0.5-1,0.6c0.2,0.1,0.4,0.2,0.7,0.3
			c0,0,0.2,0.1,0.5,0.2c0.2,0.1,0.4,0.1,0.4,0.2c0,0.1-0.2,0.2-0.6,0.3c-0.6,0.2-0.9,0.3-1,0.3c0.3,0.1,0.6,0.3,0.9,0.4
			c0.1,0.1,0.3,0.3,0.6,0.5c0.1,0,0.1-0.1,0.2-0.3c0-0.1,0-0.4,0-0.8C276.2,27.5,276.4,27.3,276.4,27.2z"/>
	</g>
	<g>
		<path d="M8,27.5c0-0.1,0.1-0.3,0.2-0.4c0.1-0.2,0.4-0.4,0.7-0.6c0-0.3,0-0.7,0.1-1c0.1-0.3,0.2-0.4,0.3-0.4c0.3,0.3,0.7,0.6,1,0.8
			c0.3,0.3,0.7,0.4,1.1,0.4c0-0.4-0.2-0.7-0.5-1.1c-0.3-0.3-0.6-0.6-0.8-0.9c0-0.2,0.3-0.3,0.9-0.4c0.4-0.1,0.8-0.1,1.1-0.1
			c0.4-1.3,1-2.4,1.7-3.5c0.3-0.4,0.8-0.9,1.3-1.5c0.7-0.7,1.3-1.1,1.6-1.1c0.1,0,0.2,0.1,0.2,0.2c0,0.1-0.2,0.3-0.6,0.8
			c-0.6,0.7-1,1.3-1.3,1.8c-0.5,1-0.9,2.1-1.1,3.3c0.4,0.1,0.6,0.1,0.7,0.2c0.1,0.1,0.2,0.1,0.2,0.2c-0.8,0.7-1.3,1.4-1.3,2
			c0.4,0,0.7-0.1,1-0.4c0.2-0.2,0.5-0.5,0.9-0.9c0.1,0,0.2,0.2,0.3,0.5c0.1,0.3,0.2,0.6,0.2,1c0.4,0.2,0.6,0.3,0.6,0.3
			c0.2,0.2,0.3,0.4,0.3,0.6c0,0.1-0.1,0.2-0.2,0.4c-0.1,0.1-0.3,0.2-0.7,0.5c0,1-0.2,1.4-0.5,1.4c-0.7-0.8-1.4-1.2-2-1.3
			c0,0.3,0.2,0.7,0.5,1.1c0,0,0.3,0.3,0.8,0.9c0,0.1-0.1,0.1-0.2,0.2c-0.1,0.1-0.4,0.1-0.8,0.2c0.2,1,0.6,1.9,1.1,3
			c0.6,1,1.2,1.9,2,2.5c0.1,0.1,0.2,0.2,0.2,0.3s-0.1,0.1-0.2,0.1c-0.2,0-0.6-0.2-1.1-0.6c-1.6-1.1-2.8-2.9-3.7-5.2
			c-1.2,0-1.9-0.2-1.9-0.5c0.3-0.3,0.6-0.6,0.8-0.9c0.2-0.3,0.4-0.7,0.4-1.1c-0.3,0-0.6,0.1-0.9,0.4l-1,0.9c-0.2,0-0.4-0.4-0.5-1.2
			c0-0.1,0-0.1,0-0.2C8.4,28,8,27.7,8,27.5z M10.9,30.4c0,0,0.1,0.1,0.3,0.1c0.2,0,0.4,0.1,0.5,0.1h0.4c0.1,0,0.2,0,0.3,0
			c0.3,1.1,0.8,2.1,1.5,3.1c0.8,1.1,1.6,2,2.6,2.6c-0.7-0.6-1.3-1.4-1.8-2.3c-0.6-1.1-1.1-2.2-1.2-3.4c0.5,0,0.7-0.1,0.7-0.2
			c-0.5-0.4-0.9-0.9-1.1-1.3c-0.1,0.2-0.2,0.4-0.3,0.7c0,0-0.1,0.1-0.1,0.3c-0.1,0.2-0.1,0.3-0.2,0.3c-0.1,0-0.4-0.4-0.6-1.2
			c-0.1,0.3-0.3,0.6-0.5,0.8C11.2,30,11.1,30.2,10.9,30.4z M13.9,26.8c0.1,0.1,0.4,0.2,1,0.3c0.4,0.1,0.5,0.2,0.5,0.3
			c0,0-0.3,0.2-0.8,0.4c-0.1,0.1-0.3,0.1-0.7,0.3c0.3,0.1,0.6,0.3,0.8,0.4c0.1,0.1,0.3,0.3,0.6,0.5c0.1,0,0.2-0.3,0.2-1
			c0.5-0.3,0.8-0.5,0.8-0.7c0-0.1-0.3-0.3-0.8-0.5c0-0.7-0.1-1.1-0.2-1.1c0,0-0.2,0.2-0.6,0.5C14.4,26.5,14.1,26.7,13.9,26.8z
			 M10.8,24.5c0.4,0.3,0.8,0.8,1.1,1.3c0.1-0.1,0.1-0.3,0.3-0.6c0,0,0.1-0.2,0.2-0.4c0.1-0.2,0.1-0.3,0.2-0.3c0,0,0.1,0.1,0.2,0.3
			c0.1,0.2,0.1,0.3,0.1,0.3c0,0.1,0.1,0.3,0.3,0.6c0.1-0.2,0.2-0.5,0.5-0.8c0.2-0.2,0.3-0.4,0.5-0.6c0-0.1-0.2-0.1-0.7-0.2
			c0.3-1.1,0.5-1.8,0.6-2.1c0.4-1.3,1.1-2.5,2.1-3.6c-1.7,1.1-2.9,3-3.8,5.8c-0.6,0-0.9,0-0.8,0C11,24.3,10.8,24.4,10.8,24.5z
			 M11.3,27.4c0,0.3,0.1,0.6,0.3,0.8c0.2,0.2,0.5,0.3,0.8,0.3c0.3,0,0.6-0.1,0.8-0.3c0.2-0.2,0.3-0.5,0.3-0.8c0-0.3-0.1-0.6-0.3-0.8
			c-0.2-0.2-0.5-0.3-0.8-0.3c-0.3,0-0.6,0.1-0.8,0.3C11.4,26.8,11.3,27.1,11.3,27.4z M8.5,27.5c0,0.1,0.1,0.1,0.2,0.2
			s0.3,0.2,0.6,0.3c0,0.3,0,0.6,0.1,0.8c0.1,0.2,0.1,0.3,0.1,0.4c0,0,0.2-0.1,0.5-0.4c0.3-0.3,0.6-0.5,1-0.6
			c-0.2-0.1-0.4-0.2-0.7-0.3c0,0-0.2-0.1-0.5-0.2c-0.2-0.1-0.4-0.1-0.4-0.2c0-0.1,0.2-0.2,0.6-0.3c0.6-0.2,0.9-0.3,1-0.3
			c-0.3-0.1-0.6-0.3-0.9-0.4c-0.1-0.1-0.3-0.3-0.6-0.5c-0.1,0-0.1,0.1-0.2,0.3c0,0.1,0,0.4,0,0.8C8.8,27.2,8.5,27.4,8.5,27.5z"/>
	</g>
</g>
</svg>
