<?xml version="1.0" encoding="utf-8"?>
<!-- Generator: Adobe Illustrator 22.0.1, SVG Export Plug-In . SVG Version: 6.00 Build 0)  -->
<svg version="1.1" id="Layer_1" xmlns="http://www.w3.org/2000/svg" xmlns:xlink="http://www.w3.org/1999/xlink" x="0px" y="0px"
	 viewBox="0 0 170 46.1" style="enable-background:new 0 0 170 46.1;" xml:space="preserve">
<style type="text/css">
	.st0{fill:#542C0B;}
</style>
<g>
	<path class="st0" d="M24.5,18.5h-1.8c-0.8,1.2-1.5,2.4-2,3.8c-0.6,1.6-0.9,3.3-0.9,5.1c0,1.4,0.2,2.9,0.7,4.5
		c0.5,1.5,1.2,3,2.2,4.5h1.8c-0.5-1.2-0.9-2.1-1.1-2.7c-0.3-1-0.6-2-0.8-3c-0.2-1.1-0.3-2.1-0.3-3.1c0-1.5,0.2-2.9,0.5-4.2
		S23.6,20.4,24.5,18.5z"/>
	<path class="st0" d="M47.4,23l-0.7,2.2c0.3,0.4,0.6,0.7,0.6,0.8c0.2,0.3,0.3,0.6,0.4,1.1h-4.2h-0.6h-1.2c-0.3,0-0.7,0-1,0
		s-0.8,0.1-1.2,0.1c0.6-0.3,1.1-0.7,1.4-1.2c0.3-0.5,0.4-1.1,0.4-1.8c0-0.5-0.1-1-0.3-1.6s-0.5-0.9-0.8-0.9c-0.4,0-0.8,0.4-1.3,1.1
		c-0.5,0.8-1.1,2.2-1.8,4c-0.2,0-0.4,0.1-0.8,0.2c-0.3,0.1-0.7,0.1-1,0.1h-0.2h-0.6h-0.6c-0.3,0-0.5-0.2-0.6-0.6
		C33.1,26,33,25.1,33,23.8V22c0-0.9-0.1-1.6-0.3-2.2c-0.1-0.5-0.4-1-0.8-1.5l-1,2.3c0.3,0.3,0.5,0.5,0.6,0.7
		c0.2,0.3,0.3,0.8,0.3,1.4v2.6c0,1.6,0.2,2.7,0.5,3.3c0.3,0.6,0.8,0.9,1.6,0.9h0.6h0.6h1.5c0,1.3,0.3,2.4,0.9,3.3
		c0.6,0.9,1.4,1.4,2.2,1.4c0.3,0,0.6-0.1,0.9-0.4c0.2-0.3,0.5-0.8,0.7-1.6c0.1-0.4,0.2-0.7,0.3-0.8c0.1-0.3,0.1-0.5,0.1-0.8
		s-0.1-0.5-0.3-0.6s-0.4-0.3-0.7-0.4c0.3,0,0.5,0,0.7,0c0.1,0,0.3,0,0.4,0H43h0.6h5.2v-2.4c0-1.1-0.1-2-0.3-2.6
		C48.1,24.1,47.8,23.5,47.4,23z M38.5,25c0.2-0.3,0.4-0.5,0.6-0.5c0.1,0,0.2,0.1,0.4,0.4c0.1,0.2,0.2,0.4,0.2,0.6s-0.1,0.4-0.4,0.6
		c-0.3,0.2-0.8,0.4-1.5,0.6C38.1,25.9,38.3,25.3,38.5,25z M39.7,31.8c-0.5,0-1.1-0.2-1.5-0.6s-0.8-0.9-0.9-1.4
		c0.9,0.2,1.6,0.5,2.1,0.8c0.4,0.3,0.6,0.6,0.6,1C40,31.7,39.9,31.8,39.7,31.8z"/>
	<polygon class="st0" points="46.1,20.8 47.4,21.6 48.4,19.7 46.7,18.8 46,20.3 44.6,19.6 43.6,21.4 45.3,22.3 	"/>
	<path class="st0" d="M51.5,21.6l-0.6-3.3c-0.3,0.7-0.6,1.2-0.8,1.7s-0.3,0.8-0.3,1c0,0.1,0,0.4,0.1,0.7c0.2,1,0.4,1.8,0.5,2.6
		c0.1,0.7,0.2,1.4,0.2,2.2s0.1,1.3,0.1,1.7c0,0.5-0.1,1.1-0.2,1.9l0.6,0.2c0.4-0.8,0.6-1.4,0.8-1.8c0.1-0.5,0.2-1,0.2-1.5
		c0-0.6,0-1.3-0.1-2C51.8,24,51.7,22.9,51.5,21.6z"/>
	<path class="st0" d="M69,25.7c-0.7-0.7-1.2-1.3-1.6-1.6c-0.5-0.4-0.9-0.8-1.3-1s-0.8-0.3-1.2-0.3c-0.5,0-1,0.2-1.4,0.6
		s-0.8,0.9-1.1,1.7C62.7,25,62.9,25,63,25s0.3,0,0.4,0c0.5,0,1.1,0.2,1.7,0.5s1.3,0.9,2.1,1.7h-5.9v-0.5c0-1-0.2-1.8-0.5-2.4
		s-0.8-1-1.3-1c-0.6,0-1.1,0.5-1.6,1.4c-0.4,0.9-0.6,1.8-0.6,2.7c0,0.7,0.2,1.2,0.5,1.6c0.4,0.4,0.8,0.6,1.5,0.6
		c0.2,0,0.4,0,0.6-0.1c-0.7,0.9-1.5,1.5-2.2,1.9c-0.6,0.3-1.2,0.5-1.8,0.5c-0.4,0-0.8-0.1-1.2-0.2s-1-0.4-1.6-0.9l-0.4,0.5
		c1.3,1,2.2,1.6,2.8,1.9s1.2,0.5,1.7,0.5c0.9,0,1.8-0.5,2.7-1.6c0.7-0.8,1.1-1.7,1.3-2.5h10v-2.5c-0.5-0.1-0.9-0.2-1.1-0.4
		S69.5,26.2,69,25.7z M59.8,27.1c-0.4,0-0.7-0.1-1-0.2c-0.2-0.1-0.4-0.3-0.4-0.6c0-0.2,0.1-0.3,0.2-0.5c0.1-0.2,0.3-0.2,0.5-0.2
		c0.5,0,0.9,0.5,1.1,1.5C60.2,27.1,59.8,27.1,59.8,27.1z"/>
	<polygon class="st0" points="67.5,19.7 65.3,18.6 64.2,20.7 66.4,21.8 	"/>
	<path class="st0" d="M74.1,21.6l-0.6-3.3C73.2,19,73,19.6,72.8,20c-0.2,0.5-0.3,0.8-0.3,1c0,0.1,0,0.4,0.1,0.7
		c0.2,1,0.4,1.8,0.5,2.6c0.1,0.7,0.2,1.4,0.2,2.2s0.1,1.3,0.1,1.7c0,0.5-0.1,1.1-0.2,1.9l0.6,0.2c0.4-0.8,0.6-1.4,0.8-1.8
		c0.1-0.5,0.2-1,0.2-1.5c0-0.6,0-1.3-0.1-2C74.5,24,74.3,22.9,74.1,21.6z"/>
	<path class="st0" d="M74.4,17.6c0.1-0.1,0.2-0.2,0.2-0.4c-0.4,0.1-0.6,0.1-0.7,0.1s-0.3-0.1-0.6-0.3s-0.4-0.3-0.4-0.4
		c0.1-0.1,0.1-0.1,0.2-0.1c0.1-0.1,0.2-0.1,0.3-0.1s0.3,0.1,0.6,0.2c0.1-0.1,0.1-0.2,0.2-0.3c0-0.1,0-0.2,0-0.3c0-0.1,0-0.2-0.1-0.3
		s-0.2-0.1-0.3-0.1c-0.4,0-0.8,0.3-1.2,0.8c-0.1,0.1-0.1,0.2-0.2,0.3c0,0.1-0.1,0.2-0.1,0.3c0,0.1,0,0.2,0.1,0.3
		c0.1,0.1,0.2,0.2,0.4,0.3c-0.2,0.1-0.4,0.1-0.5,0.2S72.1,18,72,18.3l2-0.6C74.2,17.7,74.3,17.6,74.4,17.6z"/>
	<path class="st0" d="M82.1,23.1c-0.6,0-1.1,0.5-1.6,1.4c-0.4,0.9-0.6,1.8-0.6,2.7c0,0.7,0.2,1.2,0.5,1.6c0.4,0.4,0.8,0.6,1.5,0.6
		c0.2,0,0.4,0,0.6-0.1c-0.7,0.9-1.5,1.5-2.2,1.9c-0.6,0.3-1.2,0.5-1.8,0.5c-0.4,0-0.8-0.1-1.2-0.2c-0.4-0.1-1-0.4-1.6-0.9l-0.4,0.5
		c1.3,1,2.2,1.6,2.8,1.9c0.6,0.3,1.2,0.5,1.7,0.5c0.9,0,1.8-0.5,2.7-1.6c0.9-1,1.4-2.1,1.4-3.2v-2.4c0-1-0.2-1.8-0.5-2.4
		S82.6,23.1,82.1,23.1z M82.4,27.1c-0.4,0-0.7-0.1-1-0.2c-0.2-0.1-0.4-0.3-0.4-0.6c0-0.2,0.1-0.3,0.2-0.5s0.3-0.2,0.5-0.2
		c0.5,0,0.9,0.5,1.1,1.5C82.8,27.1,82.4,27.1,82.4,27.1z"/>
	<polygon class="st0" points="96.4,21.9 94.2,20.7 93.1,22.8 95.3,23.9 	"/>
	<path class="st0" d="M98.4,23.6l-0.8,2.5c0.4,0.8,0.7,1.4,0.9,1.8c0.1,0.4,0.2,0.8,0.2,1.1c0,0.6-0.4,1.1-1.1,1.6
		c-0.8,0.4-1.7,0.6-2.8,0.6c-1.1,0-2-0.2-2.7-0.6s-1-0.9-1-1.6c0-0.5,0.1-1,0.3-1.5c0.2-0.5,0.6-1.2,1.2-2.3L91.8,25
		c-0.8,1.3-1.4,2.3-1.7,3.1c-0.3,0.7-0.4,1.5-0.4,2.4c0,1,0.4,1.8,1.2,2.3c0.8,0.5,2,0.8,3.5,0.8c0.8,0,1.5-0.1,2.3-0.3
		c0.7-0.2,1.3-0.5,1.7-0.8c0.4-0.3,0.7-0.7,0.8-1.2c0.2-0.5,0.3-1.2,0.3-2.1v-1.9c0-0.8-0.1-1.5-0.3-2C99.1,25,98.8,24.4,98.4,23.6z
		"/>
	<path class="st0" d="M107.6,23c-0.4-0.4-0.7-0.7-0.7-0.7c0-0.1,0.3-0.3,0.8-0.5c0.4-0.1,0.8-0.3,1.4-0.5c0.5-0.2,0.7-0.2,0.8-0.2
		v-2.2c-0.8,0.3-1.3,0.5-1.6,0.6c-0.5,0.2-1,0.4-1.3,0.6c-0.4,0.2-0.8,0.4-1.2,0.7c-0.4,0.3-0.7,0.6-0.8,1c-0.1,0.3-0.1,0.7-0.1,1.3
		c0,0.5,0.2,0.9,0.5,1.2c0.1,0.1,0.4,0.4,1,1l0.3-0.3c0.3,0.3,0.7,0.5,1,0.8c0.3,0.2,0.6,0.5,0.8,0.6c0.2,0.2,0.5,0.5,0.7,0.8h-5.4
		h-0.6h-0.6c-0.3,0-0.5-0.2-0.6-0.6c-0.2-0.5-0.3-1.4-0.3-2.7V22c0-0.9-0.1-1.6-0.3-2.2c-0.1-0.5-0.4-1-0.8-1.5l-1,2.3
		c0.3,0.3,0.5,0.5,0.6,0.7c0.2,0.3,0.3,0.8,0.3,1.4v2.6c0,1.6,0.2,2.7,0.5,3.3c0.3,0.6,0.8,0.9,1.6,0.9h0.6h0.6h6.8V27
		c-0.4-0.8-1-1.6-1.6-2.4C108.7,24.2,108.2,23.6,107.6,23z"/>
	<path class="st0" d="M134,23.9l-0.8,1.1c-0.1,0.2-0.2,0.3-0.2,0.3c0,0.1-0.1,0.2-0.1,0.4c0,0.1,0.1,0.3,0.2,0.7
		c0.2,0.3,0.2,0.6,0.2,0.8c-0.3,0-0.6-0.1-0.9-0.2c-0.3-0.1-0.5-0.2-0.8-0.3c0.1-0.6,0.1-1,0.1-1.4c0-0.1,0-0.2,0-0.4
		c0-0.2,0-0.4,0-0.5l-0.4,0.3c-0.2,0.1-0.3,0.2-0.3,0.3c-0.1,0.1-0.1,0.3-0.1,0.4c0,0.7-0.2,1.2-0.6,1.4c-0.3,0.2-0.9,0.3-1.6,0.3
		h-1.1c-0.3,0-0.5-0.1-0.7-0.3s-0.3-0.5-0.3-0.8s0-0.6,0-0.8c0-0.3,0-0.5,0-0.7l-0.6-0.1c0,1-0.3,1.7-0.8,2.2
		c-0.4,0.4-1,0.5-1.6,0.5h-0.7c-0.7-1-1.3-1.8-1.8-2.2s-1-0.7-1.4-0.7c-0.5,0-0.9,0.3-1.3,0.8s-0.7,1.2-1,2.2l0.4,0.2
		c0.3-0.4,0.6-0.7,0.7-0.8c0.1-0.1,0.3-0.2,0.5-0.2c0.4,0,0.8,0.3,1.3,1c-1,0.1-1.8,0.3-2.3,0.4c-0.5,0.2-0.8,0.4-1,0.7
		c-0.2,0.3-0.3,0.6-0.4,0.9c-0.2,0.4-0.2,0.8-0.2,1.1c0,0.2,0.1,0.6,0.3,1.2c0.3,1,0.5,1.7,0.6,2c0.2,0.9,0.4,1.8,0.5,2.6
		c0.2-0.3,0.4-0.6,0.5-0.9c0.1-0.3,0.1-0.6,0.1-1c0-0.6-0.1-1.2-0.3-1.8c-0.2-0.6-0.4-1.3-0.6-2.1c0-0.2,0.4-0.5,1.3-0.7
		s1.9-0.3,3-0.3h0.6l0,0h1.3c0.5,0,0.9-0.1,1.3-0.3c0.4-0.2,0.8-0.6,1.1-1.1c0.2,0.5,0.4,0.9,0.7,1.1c0.2,0.2,0.6,0.3,1,0.3h1.5
		c0.6,0,1,0,1.3-0.1s0.6-0.2,1-0.5c0.4,0.2,0.9,0.4,1.4,0.5s1,0.1,1.7,0.1V26c0-0.5,0-0.9-0.1-1.2C134.3,24.6,134.1,24.2,134,23.9z"
		/>
	<path class="st0" d="M137.4,21.6l-0.6-3.3c-0.3,0.7-0.6,1.2-0.8,1.7s-0.3,0.8-0.3,1c0,0.1,0,0.4,0.1,0.7c0.2,1,0.4,1.8,0.5,2.6
		c0.1,0.7,0.2,1.4,0.2,2.2s0.1,1.3,0.1,1.7c0,0.5-0.1,1.1-0.2,1.9l0.6,0.2c0.4-0.8,0.6-1.4,0.8-1.8c0.1-0.5,0.2-1,0.2-1.5
		c0-0.6,0-1.3-0.1-2C137.7,24,137.6,22.9,137.4,21.6z"/>
	<path class="st0" d="M148.4,22.7c-0.5-1.5-1.2-2.9-2.2-4.2h-1.8c0.8,1.9,1.4,3.5,1.7,4.8s0.5,2.7,0.5,4.2c0,0.7,0,1.4-0.1,2.1
		s-0.2,1.4-0.4,2.2s-0.4,1.4-0.6,2s-0.6,1.4-1.1,2.5h1.8c1.1-1.6,1.8-3.3,2.3-4.9c0.4-1.5,0.6-2.9,0.6-4.2
		C149.2,25.7,148.9,24.2,148.4,22.7z"/>
</g>
</svg>
