<?xml version="1.0" encoding="utf-8"?>
<!-- Generator: Adobe Illustrator 22.0.1, SVG Export Plug-In . SVG Version: 6.00 Build 0)  -->
<svg version="1.1" id="Layer_1" xmlns="http://www.w3.org/2000/svg" xmlns:xlink="http://www.w3.org/1999/xlink" x="0px" y="0px"
	 viewBox="0 0 185.8 39.2" style="enable-background:new 0 0 185.8 39.2;" xml:space="preserve">
<style type="text/css">
	.st0{fill:#097B70;}
</style>
<g>
	<polygon class="st0" points="75.2,12.9 76.9,13.9 78.2,11.6 76,10.5 75,12.4 73.2,11.5 72,13.6 74.2,14.8 	"/>
	<path class="st0" d="M85.8,17.9c0.2-0.4,0.3-0.8,0.5-1.3c0.1-0.5,0.2-1,0.3-1.5c-0.6-0.3-1.1-0.5-1.4-0.7c-0.3-0.2-0.5-0.5-0.5-0.8
		c0-0.2,0-0.3,0-0.4l-0.5-0.3c-0.4,0.8-0.7,1.6-0.9,2.2C83.1,15.6,83,16,83,16.5l0.8,0.5l1.4,8.1h-4.3h-0.8h-0.7
		c-0.3,0-0.6-0.1-0.8-0.4c-0.3-0.4-0.5-1.2-0.7-2.4l-1.1-7.4c-0.4,0.7-0.6,1.2-0.7,1.7s-0.2,0.8-0.2,1.1c0,0.1,0,0.2,0,0.3
		c0,0.1,0,0.2,0.1,0.3l-0.6,0.4c-0.6,0.3-1,0.6-1.3,0.8c-0.5,0.3-0.9,0.6-1.1,0.8c-0.2,0.3-0.6,1-1.2,2.1c-0.6,1.1-0.8,1.8-0.8,2
		c0,0.1,0.1,0.2,0.2,0.3c0.1,0.1,0.5,0.1,1.1,0.3l1.5,0.3c0.2,0,0.4,0.1,0.6,0.1c0.3,0,0.7-0.2,1.1-0.6c0.3-0.3,0.7-0.8,1.3-1.4
		c0.1,1.5,0.4,2.6,0.8,3.5c0.3,0.6,0.7,1,1.2,1.3c0.2,0.1,0.5,0.2,0.8,0.2h0.7h0.8h5.7v-3.2l-1.3-7.4L85.8,17.9z M75.5,22.2
		c-0.2,0.1-0.4,0.1-0.5,0.1c-0.3,0-0.5,0-0.8-0.1c-0.3-0.1-0.4-0.2-0.4-0.3c0-0.1,0.1-0.2,0.2-0.4c0.1-0.1,0.3-0.3,0.5-0.4
		c0.3-0.2,0.6-0.4,1-0.6c0.1-0.1,0.3-0.2,0.6-0.3l0.2,1.4C75.9,21.9,75.7,22.1,75.5,22.2z"/>
	<path class="st0" d="M110,17.9c0.2-0.4,0.3-0.8,0.5-1.3c0.1-0.5,0.2-1,0.3-1.5c-0.6-0.3-1.1-0.5-1.4-0.7c-0.3-0.2-0.5-0.5-0.5-0.8
		c0-0.2,0-0.3,0-0.4l-0.5-0.3c-0.4,0.8-0.7,1.6-0.9,2.2c-0.1,0.5-0.2,0.9-0.2,1.4L108,17l1.4,8.1h-4.3c-0.6-0.1-1.1-0.3-1.4-0.5
		c-0.3-0.2-0.8-0.6-1.4-1.3c-0.9-0.9-1.5-1.6-2-2.1c-0.6-0.6-1.1-1-1.6-1.2c-0.5-0.3-1-0.4-1.5-0.4c-0.7,0-1.3,0.2-1.8,0.7
		c-0.5,0.5-1,1.2-1.5,2.2c0.3-0.1,0.6-0.1,0.7-0.1c0.2,0,0.4,0,0.6,0c0.7,0,1.4,0.2,2.1,0.6c0.8,0.4,1.7,1.2,2.7,2.1h-7.6h-0.8h-0.8
		c-0.4,0-0.7-0.3-0.8-0.8c-0.2-0.6-0.3-1.8-0.3-3.5v-2.3c0-1.1-0.1-2-0.3-2.8c-0.2-0.6-0.5-1.2-1-1.9l-1.3,3
		c0.4,0.4,0.6,0.7,0.7,0.9c0.2,0.4,0.3,1,0.3,1.8v3.4c0,2,0.2,3.4,0.7,4.3c0.4,0.8,1.1,1.1,2,1.1h0.8h0.8h11.9h0.8h5.7v-3.2
		l-1.3-7.4L110,17.9z"/>
	<path class="st0" d="M115.1,22.3c-0.1-1.2-0.3-2.6-0.5-4.2l-0.7-4.2c-0.4,0.8-0.8,1.6-1,2.2c-0.2,0.6-0.4,1-0.4,1.3
		c0,0.2,0,0.5,0.1,0.9c0.3,1.3,0.5,2.4,0.6,3.3c0.1,0.9,0.2,1.8,0.3,2.8c0.1,0.9,0.1,1.6,0.1,2.1c0,0.6-0.1,1.5-0.3,2.5l0.7,0.3
		c0.5-1,0.8-1.8,1-2.4c0.2-0.6,0.3-1.2,0.3-1.9C115.3,24,115.2,23.2,115.1,22.3z"/>
</g>
</svg>
