<?xml version="1.0" encoding="utf-8"?>
<!-- Generator: Adobe Illustrator 22.0.1, SVG Export Plug-In . SVG Version: 6.00 Build 0)  -->
<svg version="1.1" id="Layer_1" xmlns="http://www.w3.org/2000/svg" xmlns:xlink="http://www.w3.org/1999/xlink" x="0px" y="0px"
	 viewBox="0 0 283.5 46.1" style="enable-background:new 0 0 283.5 46.1;" xml:space="preserve">
<style type="text/css">
	.st0{fill:none;}
	.st1{fill:#BA0017;}
</style>
<g>
	<rect class="st0" width="283.5" height="46.1"/>
</g>
<g>
	<g>
		<g>
			<g>
				<g>
					<path d="M65.1,31.2c0,0.3-0.2,0.6-0.5,0.9c-0.6,0.2-1.5,0.6-2.8,1.1c0-0.3,0.1-0.5,0.4-0.8C62.7,32.2,63.7,31.8,65.1,31.2z"/>
					<path d="M67.9,29.4h-1.4c-0.5,0-0.9-0.4-1.2-1.2c-0.3-0.6-0.5-1.4-0.6-2.3c-0.2,0.4-0.4,0.6-0.7,0.8c-0.3,0.2-0.6,0.3-0.9,0.3
						c-0.8,0-1.4-0.1-1.9-0.2s-0.7-0.2-0.7-0.4c0-0.6,0.4-1.2,1.1-1.9c0.7-0.7,1.6-1.3,2.7-1.8c0-0.1,0-0.2-0.1-0.4
						c0-0.2-0.1-0.4-0.1-0.4c0-0.2,0.1-0.5,0.2-0.7c0.1-0.2,0.3-0.4,0.5-0.7c0.1,0.4,0.1,0.8,0.2,1.2s0.1,0.8,0.2,1.2l0.3,1.7
						c0.2,0.9,0.3,1.6,0.4,2.1c0.2,0.7,0.4,1,0.6,1h1.4V29.4z M63.2,18.6L62.5,20l-1.6-0.8l0.7-1.4L63.2,18.6z M64.5,25.1L64.3,24
						c-0.6,0.2-1,0.4-1.3,0.6c-0.3,0.2-0.6,0.5-0.8,0.9c0.1,0.1,0.3,0.1,0.5,0.1c0.2,0,0.4,0,0.8,0C63.8,25.7,64.2,25.5,64.5,25.1z
						 M65.4,17.8l-0.8,1.4l-1.6-0.8l0.7-1.4L65.4,17.8z"/>
					<path d="M73.5,17.8c0,0.3-0.2,0.6-0.5,0.9c-0.6,0.2-1.5,0.6-2.8,1.1c0-0.3,0.1-0.6,0.4-0.8C71.1,18.8,72.1,18.4,73.5,17.8z"/>
					<path d="M75.8,29.4h-1c-0.4,0-0.9-0.1-1.5-0.3c-0.6-0.2-1.2-0.5-1.7-0.9c-0.4,0.5-0.8,0.8-1.2,1c-0.4,0.2-1,0.3-1.7,0.3h-1.5
						v-1.7h1.5c0.6,0,1.1-0.1,1.6-0.4c0.4-0.2,0.7-0.6,1-1c0.4-0.6,0.9-1.1,1.5-1.5c0.5-0.4,1-0.6,1.4-0.7c0.4,0.7,0.8,1.3,1.1,1.8
						c0.4,0.7,0.5,1.3,0.5,1.8V29.4z M74.7,27.5c-0.1-0.4-0.2-0.7-0.4-1.1c-0.2-0.3-0.3-0.6-0.6-0.9c-0.3,0.1-0.6,0.2-0.8,0.4
						c-0.1,0.1-0.3,0.4-0.5,0.7c0.2,0.3,0.6,0.5,1,0.7c0.4,0.2,0.8,0.3,1.2,0.4L74.7,27.5z"/>
					<path d="M82.3,17.8c0,0.3-0.2,0.6-0.5,0.9c-0.6,0.2-1.5,0.6-2.8,1.1c0-0.3,0.1-0.6,0.4-0.8C80,18.8,80.9,18.4,82.3,17.8z"/>
					<path d="M86.4,29.4H75.1v-1.7h8c-0.7-0.5-1.2-0.9-1.7-1.2c-0.6-0.4-1.1-0.6-1.6-0.8c-0.5-0.2-1.1-0.3-1.6-0.3
						c-0.3,0-0.7,0-1,0.1c0.2-0.5,0.4-0.9,0.7-1.2c0.4-0.4,1-0.6,1.7-0.6c0.7,0,1.4,0.3,2.4,1c0.4,0.3,1.2,0.9,2.2,1.9
						c0.8,0.7,1.3,1.1,1.6,1.2h0.6V29.4z"/>
					<path d="M92.9,18c0,0.5-0.1,0.9-0.3,1.2c-0.2,0.4-0.4,0.5-0.8,0.5c-0.1,0-0.2,0-0.3-0.1s-0.2-0.1-0.3-0.2
						c-0.1,0.2-0.3,0.4-0.4,0.5c-0.2,0.2-0.4,0.3-0.7,0.3c-0.3,0-0.5-0.1-0.6-0.3s-0.2-0.4-0.2-0.8c0-0.2,0-0.3,0.1-0.5
						c0-0.1,0.1-0.3,0.2-0.5l0.2-0.1c0,0.1,0,0.1,0,0.3c0,0.1,0,0.2,0,0.3c0,0.1,0,0.3,0.1,0.4s0.1,0.2,0.3,0.2
						c0.3,0,0.5-0.2,0.7-0.5c0.1-0.2,0.2-0.5,0.3-1l0.2-0.1c0.1,0.3,0.1,0.5,0.1,0.6c0.1,0.2,0.2,0.3,0.4,0.3c0.2,0,0.4-0.2,0.6-0.5
						c0.1-0.3,0.2-0.5,0.2-0.8l0.2-0.1c0,0.1,0.1,0.3,0.1,0.4C92.9,17.7,92.9,17.9,92.9,18z M92.7,15.6c0,0.3-0.2,0.6-0.5,0.9
						c-0.6,0.2-1.5,0.6-2.8,1.1c0-0.3,0.1-0.5,0.4-0.8C90.4,16.6,91.3,16.2,92.7,15.6z"/>
					<path d="M96.2,29.4c0,0.7-0.3,1.5-0.9,2.2c-0.5,0.7-1.2,1.3-2,1.7c-0.8,0.5-1.4,0.7-1.9,0.7c-0.4,0-0.9-0.1-1.5-0.2
						c-0.4-0.1-0.9-0.3-1.4-0.5c-0.5-0.2-0.9-0.4-1.4-0.5l0.2-0.4c0.4,0.1,0.9,0.2,1.3,0.3c0.5,0.1,0.9,0.1,1.3,0.1
						c0.8,0,1.7-0.3,2.6-0.8c0.8-0.5,1.5-1.1,2.1-1.9c0.6-0.7,0.9-1.4,0.9-2c0-0.5-0.2-1.1-0.4-1.6c-0.2-0.5-0.6-0.9-1-1.4l0.6-1.5
						c0.5,0.5,0.9,1,1.2,1.5c0.3,0.6,0.4,1.2,0.4,1.9V29.4z"/>
					<path d="M100.3,29.4h-4.8v-1.7h3.8l-1.2-8.3l-0.5-0.2c0-0.4,0-0.9,0.1-1.3s0.2-0.8,0.4-1.1l0.1,0.1c0,0.4,0.2,0.7,0.6,0.8
						c0.3,0.1,0.7,0.3,1,0.4c0,0.3,0,0.7-0.1,1c-0.1,0.4-0.1,0.6-0.2,0.8l-0.5-0.2l1.2,7.7V29.4z"/>
					<path d="M103.6,26.9c0,0.5-0.1,1-0.3,1.5c-0.1,0.3-0.3,0.7-0.6,1.2l-0.2-0.1c0-0.2,0-0.4,0.1-0.7c0-0.2,0-0.4,0-0.5
						c0-0.7-0.1-1.6-0.2-2.8s-0.2-2.5-0.4-3.8c-0.1-0.8-0.2-1.6-0.3-2.5c0.1-0.3,0.3-0.6,0.4-0.9s0.3-0.6,0.5-0.9
						c0.1,0.7,0.2,1.8,0.4,3c0.2,1.3,0.3,2.5,0.4,3.5C103.5,25.3,103.6,26.3,103.6,26.9z"/>
					<path d="M115.1,14.6c0,0.1,0,0.2,0,0.3s0,0.2-0.1,0.4l-0.8-0.5c-0.3,0.4-0.5,0.6-0.7,0.7c-0.5,0.5-0.9,0.7-1.2,0.7h-0.7
						c0.3-0.2,0.7-0.4,1.2-0.8c0.4-0.3,0.7-0.6,0.9-0.9c-0.2-0.1-0.4-0.3-0.5-0.4c-0.1-0.2-0.2-0.4-0.2-0.6c0-0.4,0.1-0.8,0.4-1.1
						c0.3-0.3,0.5-0.5,0.8-0.5c0.2,0,0.3,0.1,0.5,0.3s0.2,0.4,0.2,0.7c0,0.1,0,0.3-0.1,0.4c0,0.1-0.1,0.4-0.2,0.7
						c0.1,0.1,0.2,0.2,0.3,0.3C115.1,14.4,115.1,14.5,115.1,14.6z M114.4,13.5c0-0.2-0.1-0.3-0.2-0.5c-0.1-0.1-0.2-0.2-0.4-0.2
						c-0.1,0-0.1,0-0.2,0.1c0,0-0.1,0.1-0.1,0.1c0,0.1,0.1,0.3,0.2,0.4l0.4,0.3C114.3,13.7,114.4,13.6,114.4,13.5z"/>
					<path d="M117.5,29.4h-1.4c-0.5,0-0.9-0.4-1.2-1.2c-0.3-0.6-0.5-1.4-0.6-2.3c-0.2,0.4-0.4,0.6-0.7,0.8c-0.3,0.2-0.6,0.3-0.9,0.3
						c-0.8,0-1.4-0.1-1.9-0.2s-0.7-0.2-0.7-0.4c0-0.6,0.4-1.2,1.1-1.9c0.7-0.7,1.6-1.3,2.7-1.8c0-0.1,0-0.2-0.1-0.4
						c0-0.2-0.1-0.4-0.1-0.4c0-0.2,0.1-0.5,0.2-0.7c0.1-0.2,0.3-0.4,0.5-0.7c0.1,0.4,0.1,0.8,0.2,1.2s0.1,0.8,0.2,1.2l0.3,1.7
						c0.2,0.9,0.3,1.6,0.4,2.1c0.2,0.7,0.4,1,0.6,1h1.4V29.4z M112.8,18.6L112,20l-1.6-0.8l0.7-1.4L112.8,18.6z M114.1,25.1
						l-0.2-1.1c-0.6,0.2-1,0.4-1.3,0.6c-0.3,0.2-0.6,0.5-0.8,0.9c0.1,0.1,0.3,0.1,0.5,0.1c0.2,0,0.4,0,0.8,0
						C113.4,25.7,113.7,25.5,114.1,25.1z M115,17.8l-0.8,1.4l-1.6-0.8l0.7-1.4L115,17.8z"/>
					<path d="M123.1,14.9c0,0.3-0.2,0.6-0.5,0.9c-0.6,0.2-1.5,0.6-2.8,1.1c0-0.3,0.1-0.6,0.4-0.8C120.7,15.9,121.7,15.5,123.1,14.9z
						"/>
					<path d="M125.4,29.4h-8.6v-1.7h7.4c-0.5-0.7-1-1.3-1.6-1.8s-1.4-1.1-2.4-1.7l-0.3,0.3l-1.2-0.9c-0.4-0.3-0.6-0.6-0.6-0.8
						c0-1.1,0.3-2,0.8-2.6c0.5-0.6,1.4-1.1,2.6-1.6l2.8-1.1v1.7l-2,0.7c-0.8,0.3-1.5,0.5-2,0.7c-0.6,0.3-1,0.5-1,0.6
						s0.2,0.4,0.6,0.7c0.3,0.2,0.5,0.4,0.8,0.6c1,0.7,1.9,1.5,2.6,2.4c0.8,0.9,1.4,1.8,1.9,2.7V29.4z"/>
					<path d="M129.6,31.2c0,0.3-0.2,0.6-0.5,0.9c-0.6,0.2-1.5,0.6-2.8,1.1c0-0.3,0.1-0.5,0.4-0.8C127.2,32.2,128.2,31.8,129.6,31.2z
						"/>
					<path d="M130.3,29.4h-5.6v-1.7h4.9c0-0.8-0.1-1.4-0.3-1.8c-0.1-0.3-0.4-0.7-0.9-1.2l0.8-1.6c0.5,0.6,0.8,1.1,0.9,1.4
						c0.2,0.5,0.3,1.3,0.3,2.5V29.4z M129.2,20.5c0,0.2-0.1,0.3-0.3,0.4c-0.1,0.1-0.3,0.2-0.6,0.3l-1.8,0.6c0-0.3,0.3-0.6,1-0.8
						c-0.2-0.1-0.4-0.2-0.5-0.3c-0.1-0.1-0.2-0.3-0.2-0.4c0-0.2,0.2-0.5,0.5-0.8c0.4-0.4,0.7-0.6,1-0.6c0.1,0,0.2,0,0.3,0.1
						c0.1,0.1,0.1,0.2,0.1,0.3c0,0.1,0,0.2-0.1,0.3s-0.1,0.2-0.2,0.3c-0.2-0.2-0.4-0.3-0.7-0.3c-0.1,0-0.3,0-0.4,0.1
						c-0.1,0.1-0.2,0.1-0.2,0.2c0,0.1,0.2,0.2,0.5,0.4s0.6,0.3,0.8,0.3c0.1,0,0.2,0,0.3,0C128.9,20.6,129,20.6,129.2,20.5z"/>
					<path d="M142.3,29.4h-0.6c-0.5,0-1-0.3-1.3-0.9c-0.4-0.7-0.6-1.8-0.6-3.3c0-0.1,0-0.2,0-0.4c0-0.2,0-0.3,0-0.3
						c-0.6,1.7-1.2,2.9-1.7,3.6c-0.6,0.8-1.4,1.3-2.5,1.5c-0.9,0.2-2.4,0.3-4.6,0.3v-0.3c1.8-0.5,3.1-1,3.9-1.4
						c1.4-0.6,2.4-1.3,3.2-2.1c0.9-1,1.3-2.1,1.3-3.4c0-0.6,0-1.2-0.1-1.8c-0.1-0.6-0.2-1.1-0.3-1.7l0.3-0.8
						c0.1-0.3,0.3-0.6,0.4-0.8c0.2,0.9,0.3,2,0.5,3c0.1,0.7,0.2,1.6,0.3,2.4c0.1,1.1,0.2,1.9,0.3,2.5c0.1,0.8,0.3,1.4,0.5,1.8
						c0.2,0.2,0.3,0.4,0.5,0.4h0.6V29.4z M138.2,24.3c0,0.1,0,0.2,0,0.3c0,0.1,0,0.2-0.1,0.3c-0.4-0.8-0.9-1.7-1.6-2.5
						c-0.8-1-1.4-1.4-1.9-1.4c-0.1,0-0.2,0.1-0.3,0.3s-0.2,0.3-0.3,0.3c-0.2,0-0.5-0.1-0.8-0.3c-0.5-0.3-0.9-0.6-1.1-1
						c-0.4-0.5-0.6-1-0.6-1.6c0-0.4,0.1-0.6,0.4-0.6c0.5,0,1.2,0.3,2.2,0.9c1.1,0.7,2,1.4,2.8,2.3C137.8,22.2,138.2,23.3,138.2,24.3
						z"/>
					<path d="M147.8,17.8c0,0.3-0.2,0.6-0.5,0.9c-0.6,0.2-1.5,0.6-2.8,1.1c0-0.3,0.1-0.6,0.4-0.8C145.5,18.8,146.4,18.4,147.8,17.8z
						"/>
					<path d="M150.2,29.4h-1c-0.4,0-0.9-0.1-1.5-0.3c-0.6-0.2-1.2-0.5-1.7-0.9c-0.4,0.5-0.8,0.8-1.2,1c-0.4,0.2-1,0.3-1.7,0.3h-1.5
						v-1.7h1.5c0.6,0,1.1-0.1,1.6-0.4c0.4-0.2,0.7-0.6,1-1c0.4-0.6,0.9-1.1,1.5-1.5c0.5-0.4,1-0.6,1.4-0.7c0.4,0.7,0.8,1.3,1.1,1.8
						c0.4,0.7,0.5,1.3,0.5,1.8V29.4z M149,27.5c-0.1-0.4-0.2-0.7-0.4-1.1c-0.2-0.3-0.3-0.6-0.6-0.9c-0.3,0.1-0.6,0.2-0.8,0.4
						c-0.1,0.1-0.3,0.4-0.5,0.7c0.2,0.3,0.6,0.5,1,0.7c0.4,0.2,0.8,0.3,1.2,0.4L149,27.5z"/>
					<path class="st1" d="M162.3,16.6c0,0.1,0,0.2,0,0.3s0,0.2-0.1,0.4l-0.8-0.5c-0.3,0.4-0.5,0.6-0.7,0.7c-0.5,0.5-0.9,0.7-1.2,0.7
						h-0.7c0.3-0.2,0.7-0.4,1.2-0.8c0.4-0.3,0.7-0.6,0.9-0.9c-0.2-0.1-0.4-0.3-0.5-0.4c-0.1-0.2-0.2-0.4-0.2-0.6
						c0-0.4,0.1-0.8,0.4-1.1c0.3-0.3,0.5-0.5,0.8-0.5c0.2,0,0.3,0.1,0.5,0.3s0.2,0.4,0.2,0.7c0,0.1,0,0.3-0.1,0.4
						c0,0.1-0.1,0.4-0.2,0.7c0.1,0.1,0.2,0.2,0.3,0.3C162.3,16.4,162.3,16.5,162.3,16.6z M161.6,15.5c0-0.2-0.1-0.3-0.2-0.5
						c-0.1-0.1-0.2-0.2-0.4-0.2c-0.1,0-0.1,0-0.2,0.1c0,0-0.1,0.1-0.1,0.1c0,0.1,0.1,0.3,0.2,0.4l0.4,0.3
						C161.5,15.6,161.6,15.5,161.6,15.5z"/>
					<path class="st1" d="M170,29.4h-9.3c-1.3,0-2.2-0.2-3-0.7c-0.9-0.5-1.4-1.4-1.4-2.6c0-0.6,0.1-1.2,0.4-1.9
						c0.1-0.2,0.3-0.7,0.7-1.3l0.3,0.2c-0.1,0.3-0.3,0.6-0.4,0.9c-0.2,0.5-0.3,0.9-0.3,1.2c0,0.8,0.4,1.4,1.2,1.8
						c0.7,0.4,1.6,0.6,2.7,0.6h8.3v-0.3c0-0.7-0.1-1.3-0.3-1.8s-0.5-0.9-0.9-1.2l0.8-1.6c0.3,0.4,0.5,0.6,0.5,0.7
						c0.4,0.7,0.7,1.8,0.7,3.2V29.4z M163.1,21.4l-0.7,1.4l-1.6-0.8l0.7-1.4L163.1,21.4z M165.4,20.6l-0.8,1.4l-1.6-0.8l0.7-1.4
						L165.4,20.6z"/>
					<path class="st1" d="M174.6,29.4h-1.4c-0.4,0-0.8-0.2-1.1-0.5c-0.2-0.3-0.4-0.8-0.5-1.4c-0.1-0.6-0.2-1.4-0.3-2.3
						c0-0.7-0.1-1.5-0.1-2.3c0-0.8-0.1-1.4-0.2-1.8s-0.2-0.7-0.3-1c-0.1-0.3-0.3-0.6-0.6-0.8l1.2-1.9c0.3,0.8,0.4,1.7,0.5,2.8
						c0.1,0.7,0.1,2.3,0.2,4.8c0.1,1.2,0.3,1.9,0.5,2.2c0.2,0.3,0.4,0.4,0.6,0.4h1.4V29.4z"/>
					<path class="st1" d="M180.6,17.8c0,0.3-0.2,0.6-0.5,0.9c-0.6,0.2-1.5,0.6-2.8,1.1c0-0.3,0.1-0.6,0.4-0.8
						C178.2,18.8,179.2,18.4,180.6,17.8z"/>
					<path class="st1" d="M191.5,29.4h-11.7c-0.4,0-0.7-0.1-1-0.2c-0.2-0.1-0.5-0.2-0.8-0.4c-0.3,0.2-0.5,0.4-0.8,0.5
						s-0.7,0.1-1.3,0.1h-1.9v-1.7h1.9c0.5,0,0.9,0,1.1-0.1c0.4-0.1,0.6-0.4,0.6-0.9c0-0.2,0-0.4,0-0.6c0-0.2-0.1-0.4-0.1-0.6
						l0.4-0.6c0.2,0.9,0.5,1.6,0.9,2.1c0.4,0.5,0.9,0.8,1.5,0.8c0.5,0,1.2-0.1,1.9-0.4c0.8-0.3,1.5-0.6,2.1-1
						c0.9-0.7,1.5-1.1,1.7-1.2c0.5-0.3,1-0.6,1.4-0.7c0.5-0.2,1-0.2,1.6-0.2c0.9,0,1.6,0.3,2,0.8c0.4,0.5,0.6,1.1,0.6,2V29.4z
						 M185.3,21.3l-0.7,1.4l-1.6-0.8l0.7-1.4L185.3,21.3z M189.9,27c0-0.3-0.2-0.6-0.6-0.7c-0.4-0.2-0.9-0.3-1.4-0.3
						c-0.7,0-1.4,0.2-2.4,0.7c-0.7,0.4-1.5,0.7-2.2,1.1h4.5c0.7,0,1.2-0.1,1.6-0.2C189.7,27.4,189.9,27.2,189.9,27z"/>
					<path class="st1" d="M197.9,16c0,0.5-0.1,0.9-0.3,1.2c-0.2,0.3-0.4,0.5-0.8,0.5c-0.1,0-0.2,0-0.3-0.1s-0.2-0.1-0.3-0.2
						c-0.1,0.2-0.3,0.4-0.4,0.5c-0.2,0.2-0.4,0.3-0.7,0.3c-0.3,0-0.5-0.1-0.6-0.3s-0.2-0.4-0.2-0.8c0-0.2,0-0.3,0.1-0.5
						c0-0.1,0.1-0.3,0.2-0.5l0.2-0.1c0,0.1,0,0.1,0,0.3c0,0.1,0,0.2,0,0.3c0,0.1,0,0.3,0.1,0.4s0.1,0.2,0.3,0.2
						c0.3,0,0.5-0.2,0.7-0.5c0.1-0.2,0.2-0.5,0.3-1l0.2-0.1c0.1,0.3,0.1,0.5,0.1,0.6c0.1,0.2,0.2,0.3,0.4,0.3c0.2,0,0.4-0.2,0.6-0.5
						c0.1-0.3,0.2-0.5,0.2-0.8l0.2-0.1c0,0.1,0.1,0.3,0.1,0.4C197.9,15.7,197.9,15.9,197.9,16z M197.8,18.1c0,0.3-0.2,0.6-0.5,0.9
						c-0.6,0.2-1.5,0.6-2.8,1.1c0-0.3,0.1-0.5,0.4-0.8C195.4,19.1,196.4,18.7,197.8,18.1z"/>
					<path class="st1" d="M201.3,29.4c0,0.7-0.3,1.5-0.9,2.2c-0.5,0.7-1.2,1.3-2,1.7c-0.8,0.5-1.4,0.7-1.9,0.7
						c-0.4,0-0.9-0.1-1.5-0.2c-0.4-0.1-0.9-0.3-1.4-0.5c-0.5-0.2-0.9-0.4-1.4-0.5l0.2-0.4c0.4,0.1,0.9,0.2,1.3,0.3
						c0.5,0.1,0.9,0.1,1.3,0.1c0.8,0,1.7-0.3,2.6-0.8c0.8-0.5,1.5-1.1,2.1-1.9c0.6-0.7,0.9-1.4,0.9-2c0-0.5-0.2-1.1-0.4-1.6
						c-0.2-0.5-0.6-0.9-1-1.4l0.6-1.5c0.5,0.5,0.9,1,1.2,1.5c0.3,0.6,0.4,1.2,0.4,1.9V29.4z"/>
					<path class="st1" d="M206.8,17.8c0,0.3-0.2,0.6-0.5,0.9c-0.6,0.2-1.5,0.6-2.8,1.1c0-0.3,0.1-0.6,0.4-0.8
						C204.5,18.8,205.4,18.4,206.8,17.8z"/>
					<path class="st1" d="M209.2,29.4h-1c-0.4,0-0.9-0.1-1.5-0.3c-0.6-0.2-1.2-0.5-1.7-0.9c-0.4,0.5-0.8,0.8-1.2,1
						c-0.4,0.2-1,0.3-1.7,0.3h-1.5v-1.7h1.5c0.6,0,1.1-0.1,1.6-0.4c0.4-0.2,0.7-0.6,1-1c0.4-0.6,0.9-1.1,1.5-1.5
						c0.5-0.4,1-0.6,1.4-0.7c0.4,0.7,0.8,1.3,1.1,1.8c0.4,0.7,0.5,1.3,0.5,1.8V29.4z M208,27.5c-0.1-0.4-0.2-0.7-0.4-1.1
						c-0.2-0.3-0.3-0.6-0.6-0.9c-0.3,0.1-0.6,0.2-0.8,0.4c-0.1,0.1-0.3,0.4-0.5,0.7c0.2,0.3,0.6,0.5,1,0.7c0.4,0.2,0.8,0.3,1.2,0.4
						L208,27.5z"/>
					<path class="st1" d="M214.3,18.5c0,0.1,0,0.2,0,0.3s0,0.2-0.1,0.4l-0.8-0.5c-0.3,0.4-0.5,0.6-0.7,0.7c-0.5,0.5-0.9,0.7-1.2,0.7
						h-0.7c0.3-0.2,0.7-0.4,1.2-0.8c0.4-0.3,0.7-0.6,0.9-0.9c-0.2-0.1-0.4-0.3-0.5-0.4c-0.1-0.2-0.2-0.4-0.2-0.6
						c0-0.4,0.1-0.8,0.4-1.1c0.3-0.3,0.5-0.5,0.8-0.5c0.2,0,0.3,0.1,0.5,0.3s0.2,0.4,0.2,0.7c0,0.1,0,0.3-0.1,0.4
						c0,0.1-0.1,0.4-0.2,0.7c0.1,0.1,0.2,0.2,0.3,0.3C214.2,18.3,214.3,18.4,214.3,18.5z M213.5,17.4c0-0.2-0.1-0.3-0.2-0.5
						c-0.1-0.1-0.2-0.2-0.4-0.2c-0.1,0-0.1,0-0.2,0.1c0,0-0.1,0.1-0.1,0.1c0,0.1,0.1,0.3,0.2,0.4l0.4,0.3
						C213.5,17.6,213.5,17.5,213.5,17.4z"/>
					<path class="st1" d="M217,29.4h-1c-0.4,0-0.9-0.1-1.5-0.3c-0.6-0.2-1.2-0.5-1.7-0.9c-0.4,0.5-0.8,0.8-1.2,1
						c-0.4,0.2-1,0.3-1.7,0.3h-1.5v-1.7h1.5c0.6,0,1.1-0.1,1.6-0.4c0.4-0.2,0.7-0.6,1-1c0.4-0.6,0.9-1.1,1.5-1.5
						c0.5-0.4,1-0.6,1.4-0.7c0.4,0.7,0.8,1.3,1.1,1.8c0.4,0.7,0.5,1.3,0.5,1.8V29.4z M215.9,27.5c-0.1-0.4-0.2-0.7-0.4-1.1
						c-0.2-0.3-0.3-0.6-0.6-0.9c-0.3,0.1-0.6,0.2-0.8,0.4c-0.1,0.1-0.3,0.4-0.5,0.7c0.2,0.3,0.6,0.5,1,0.7c0.4,0.2,0.8,0.3,1.2,0.4
						L215.9,27.5z"/>
					<path class="st1" d="M221.2,29.4h-4.8v-1.7h3.8l-1.2-8.3l-0.5-0.2c0-0.4,0-0.9,0.1-1.3s0.2-0.8,0.4-1.1l0.1,0.1
						c0,0.4,0.2,0.7,0.6,0.8c0.3,0.1,0.7,0.3,1,0.4c0,0.3,0,0.7-0.1,1c-0.1,0.4-0.1,0.6-0.2,0.8l-0.5-0.2l1.2,7.7V29.4z"/>
					<path class="st1" d="M224.5,26.9c0,0.5-0.1,1-0.3,1.5c-0.1,0.3-0.3,0.7-0.6,1.2l-0.2-0.1c0-0.2,0-0.4,0.1-0.7
						c0-0.2,0-0.4,0-0.5c0-0.7-0.1-1.6-0.2-2.8s-0.2-2.5-0.4-3.8c-0.1-0.8-0.2-1.6-0.3-2.5c0.1-0.3,0.3-0.6,0.4-0.9s0.3-0.6,0.5-0.9
						c0.1,0.7,0.2,1.8,0.4,3c0.2,1.3,0.3,2.5,0.4,3.5C224.4,25.3,224.5,26.3,224.5,26.9z"/>
				</g>
			</g>
		</g>
	</g>
</g>
</svg>
