<?xml version="1.0" encoding="utf-8"?>
<!-- Generator: Adobe Illustrator 22.0.1, SVG Export Plug-In . SVG Version: 6.00 Build 0)  -->
<svg version="1.1" id="Layer_1" xmlns="http://www.w3.org/2000/svg" xmlns:xlink="http://www.w3.org/1999/xlink" x="0px" y="0px"
	 viewBox="0 0 202.9 44.7" style="enable-background:new 0 0 202.9 44.7;" xml:space="preserve">
<style type="text/css">
	.st0{fill:#BA0017;}
</style>
<g>
	<g>
		<g>
			<g>
				<g>
					<path class="st0" d="M72.1,15.3c0,0.2,0,0.5-0.1,0.7s-0.2,0.4-0.3,0.6c0.1,0.1,0.2,0.1,0.2,0.2S72,17,72,17.1
						c0,0.3,0,0.6-0.1,0.9L71,17.3c-0.3,0.4-0.6,0.6-1,0.8c-0.5,0.2-1,0.4-1.5,0.4c0.3-0.4,0.4-0.7,0.4-0.7c0.1-0.2,0.1-0.3,0.1-0.5
						s0-0.3-0.1-0.4s-0.2-0.2-0.3-0.2c-0.1,0-0.3,0.1-0.4,0.2c0,0.1-0.1,0.2-0.3,0.4c0-0.5,0.1-0.8,0.2-1c0.1-0.4,0.3-0.5,0.6-0.5
						c0.2,0,0.4,0.1,0.5,0.3s0.2,0.5,0.2,0.7c0,0.1,0,0.3,0,0.4c0,0.2-0.1,0.3-0.1,0.4c0.4-0.1,0.9-0.3,1.3-0.7
						c-0.1-0.1-0.2-0.2-0.3-0.3c-0.2-0.2-0.3-0.4-0.3-0.6c0-0.3,0.1-0.6,0.4-0.9c0.3-0.3,0.6-0.5,0.9-0.5c0.2,0,0.3,0.1,0.4,0.2
						S72.1,15.2,72.1,15.3z M71.4,15.9c0-0.1,0-0.3-0.1-0.4s-0.2-0.2-0.3-0.2c-0.1,0-0.2,0.1-0.2,0.3c0,0.1,0.1,0.2,0.2,0.4
						c0,0,0.1,0.1,0.3,0.3C71.3,16.2,71.4,16,71.4,15.9z"/>
					<path class="st0" d="M75.2,33.7l-2,1.6c-1.2,0-2.2-0.1-2.9-0.2c-1.3-0.2-2.3-0.6-3-1.2c-0.9-0.7-1.4-1.8-1.4-3.1
						c0-0.9,0.2-1.7,0.5-2.5c0.3-0.6,0.7-1.2,1.2-1.8c0.3-0.3,0.7-0.8,1.4-1.4c-0.1-0.2-0.2-0.4-0.3-0.5s-0.2-0.2-0.4-0.2
						c-0.2,0-0.3,0.1-0.5,0.3h-0.2c0.1-0.7,0.3-1.2,0.4-1.4c0.4-0.6,1-0.9,1.8-0.9c0.6,0,1,0.1,1.4,0.4c0.4,0.3,0.7,0.7,0.7,1.2
						c0,0.3-0.1,0.6-0.4,0.8c-0.2,0.2-0.4,0.3-0.6,0.4c0.4,0.4,0.7,0.7,1,0.9s0.8,0.3,1.3,0.3h0.9v1.7h-0.9c-1,0-1.8-0.1-2.3-0.4
						s-1-0.8-1.3-1.5c-0.5,0.3-0.9,0.6-1.3,0.9c-0.5,0.4-0.9,0.9-1.2,1.3c-0.4,0.5-0.5,1-0.5,1.5c0,1.1,0.5,2,1.7,2.6
						c0.8,0.5,2,0.8,3.5,0.9C72.8,33.6,73.8,33.7,75.2,33.7L75.2,33.7z"/>
					<path class="st0" d="M79.8,28.2h-6v-1.7H79c0-0.6-0.1-1.1-0.2-1.6c-0.3,0.1-0.6,0.2-0.8,0.2c-0.3,0.1-0.6,0.1-0.8,0.1
						c-0.5,0-0.9-0.1-1.2-0.4c-0.3-0.3-0.5-0.7-0.5-1.2c0-0.9,0.2-1.7,0.5-2.4c0.4-0.8,0.8-1.1,1.4-1.1c0.8,0,1.4,0.6,1.8,1.9
						c0.4,1,0.5,2.2,0.5,3.6V28.2z M78.5,17.4l-0.8,1.4L76.2,18l0.7-1.4L78.5,17.4z M78.2,23.1c-0.1-0.2-0.2-0.5-0.4-0.7
						c-0.3-0.3-0.5-0.5-0.8-0.5c-0.2,0-0.3,0.1-0.4,0.2s-0.2,0.3-0.2,0.5c0,0.5,0.3,0.8,0.9,0.8c0.1,0,0.3,0,0.5-0.1
						S78,23.2,78.2,23.1z"/>
					<path class="st0" d="M84.4,28.2H83c-0.4,0-0.8-0.2-1.1-0.5c-0.2-0.3-0.4-0.8-0.5-1.4s-0.2-1.4-0.3-2.3c0-0.7-0.1-1.5-0.1-2.3
						s-0.1-1.4-0.2-1.8s-0.2-0.7-0.3-1c-0.1-0.3-0.3-0.6-0.6-0.8l1.2-1.9c0.3,0.8,0.4,1.7,0.5,2.8c0.1,0.7,0.1,2.3,0.2,4.8
						c0.1,1.2,0.3,1.9,0.5,2.2c0.2,0.3,0.4,0.4,0.6,0.4h1.4V28.2z"/>
					<path class="st0" d="M89.5,13.7c0,0.3-0.2,0.6-0.5,0.9c-0.6,0.2-1.5,0.6-2.8,1.1c0-0.3,0.1-0.6,0.4-0.8
						C87.1,14.7,88.1,14.3,89.5,13.7z"/>
					<path class="st0" d="M89.3,28.2h-5.6v-1.7h4.9c0-0.8-0.1-1.4-0.3-1.8c-0.1-0.3-0.4-0.7-0.9-1.2l0.8-1.6
						c0.5,0.6,0.8,1.1,0.9,1.4c0.2,0.5,0.3,1.3,0.3,2.5V28.2z M88.5,19.2l-0.7,1.4l-1.6-0.8l0.7-1.4L88.5,19.2z"/>
					<path d="M102.3,16.6c0,0.3-0.2,0.6-0.5,0.9c-0.6,0.2-1.5,0.6-2.8,1.1c0-0.3,0.1-0.6,0.4-0.8C100,17.6,100.9,17.2,102.3,16.6z"
						/>
					<path d="M111.3,28.2h-0.8c-0.4,0-0.7-0.1-1-0.2s-0.6-0.3-0.9-0.5c-0.3,0.2-0.5,0.4-0.7,0.5c-0.3,0.1-0.8,0.2-1.3,0.2h-1.2
						c0,0.6-0.1,1.2-0.4,1.7c-0.4,0.7-0.9,1.3-1.7,1.7c-1,0.5-2.2,0.8-3.6,0.8c-1.3,0-2.3-0.2-3-0.7c-0.8-0.5-1.1-1.3-1.1-2.3
						c0-0.6,0.1-1.1,0.2-1.7s0.3-1.1,0.6-1.7c0.1-0.4,0.4-0.9,0.7-1.6l0.4,0.2c-0.5,0.9-0.8,1.7-0.9,2.2s-0.2,1-0.2,1.5
						c0,0.8,0.3,1.4,0.9,1.8s1.4,0.6,2.5,0.6c1.3,0,2.4-0.2,3.3-0.7c1.2-0.5,1.8-1.3,1.8-2.3c0-0.7-0.1-1.3-0.4-1.9
						c-0.2-0.5-0.5-0.9-0.8-1.3l0.8-2c0.3,0.5,0.5,1,0.7,1.4c0.2,0.6,0.2,1.4,0.2,2.4h1.2c0.6,0,1.1-0.1,1.3-0.3
						c0.2-0.2,0.3-0.4,0.3-0.8c0-0.2,0-0.4,0-0.6s-0.1-0.4-0.1-0.6l0.4-0.6l0.2,0.9c0.1,0.6,0.3,1.1,0.6,1.4
						c0.3,0.3,0.6,0.5,1.1,0.5c0.1,0,0.3,0,0.3-0.1s0.1-0.2,0.1-0.4c0-0.3-0.1-0.7-0.3-1c-0.1-0.3-0.3-0.5-0.6-0.8l0.7-1.1
						c0.3,0.5,0.5,0.8,0.6,1c0.1,0.4,0.2,1,0.2,1.8V28.2z"/>
					<path d="M114.2,11.1c0,0.4-0.1,0.8-0.4,1.1s-0.7,0.5-1.1,0.5c-0.4,0-0.6-0.1-0.8-0.3s-0.3-0.5-0.3-0.8c0-0.5,0.1-0.9,0.4-1.3
						s0.6-0.6,1-0.6c0.4,0,0.6,0.1,0.9,0.4S114.2,10.7,114.2,11.1z M113.6,11.4c0-0.2-0.1-0.4-0.4-0.6s-0.5-0.3-0.6-0.3
						c-0.2,0-0.3,0.1-0.4,0.2S112,11,112,11.1c0,0.2,0.1,0.4,0.3,0.5c0.2,0.1,0.4,0.1,0.7,0.1c0.2,0,0.3,0,0.4-0.1
						S113.6,11.5,113.6,11.4z"/>
					<path d="M114.1,15.1c0,0.2-0.1,0.3-0.3,0.4c-0.1,0.1-0.3,0.2-0.6,0.3l-1.8,0.6c0-0.3,0.3-0.6,1-0.8c-0.2-0.1-0.4-0.2-0.5-0.3
						c-0.1-0.1-0.2-0.3-0.2-0.4c0-0.2,0.2-0.5,0.5-0.8c0.4-0.4,0.7-0.6,1-0.6c0.1,0,0.2,0,0.3,0.1s0.1,0.2,0.1,0.3
						c0,0.1,0,0.2-0.1,0.3s-0.1,0.2-0.2,0.3c-0.2-0.2-0.4-0.3-0.7-0.3c-0.1,0-0.3,0-0.4,0.1s-0.2,0.1-0.2,0.2c0,0.1,0.2,0.2,0.5,0.4
						s0.6,0.3,0.8,0.3c0.1,0,0.2,0,0.3,0S113.9,15.1,114.1,15.1z M115.8,28.2h-1.4c-0.4,0-0.8-0.2-1.1-0.5c-0.2-0.3-0.4-0.8-0.5-1.4
						s-0.2-1.4-0.3-2.3c0-0.7-0.1-1.5-0.1-2.3s-0.1-1.4-0.2-1.8s-0.2-0.7-0.3-1c-0.1-0.3-0.3-0.6-0.6-0.8l1.2-1.9
						c0.3,0.8,0.4,1.7,0.5,2.8c0.1,0.7,0.1,2.3,0.2,4.8c0.1,1.2,0.3,1.9,0.5,2.2c0.2,0.3,0.4,0.4,0.6,0.4h1.4V28.2z"/>
					<path d="M120.9,16.6c0,0.3-0.2,0.6-0.5,0.9c-0.6,0.2-1.5,0.6-2.8,1.1c0-0.3,0.1-0.6,0.4-0.8C118.5,17.6,119.5,17.2,120.9,16.6z
						"/>
					<path d="M120.7,28.2h-5.6v-1.7h4.9c0-0.8-0.1-1.4-0.3-1.8c-0.1-0.3-0.4-0.7-0.9-1.2l0.8-1.6c0.5,0.6,0.8,1.1,0.9,1.4
						c0.2,0.5,0.3,1.3,0.3,2.5V28.2z M118.4,31l-0.7,1.4l-1.6-0.8l0.7-1.4L118.4,31z M120.7,30.1l-0.8,1.4l-1.6-0.8l0.7-1.4
						L120.7,30.1z"/>
					<path d="M136.4,17.9l-0.5,1.8l-0.6-0.3l0,0.9c0,0.9-0.1,1.7-0.3,2.5c-0.2,0.9-0.6,1.8-1.1,2.7c0.2,0.5,0.4,0.8,0.5,1.1
						c0.1,0.4,0.2,0.8,0.2,1.3c0,0.2,0,0.4,0,0.6s0,0.4-0.1,0.6c-0.7,0.2-1.4,0.3-2.2,0.4s-1.5,0.1-2.3,0.1c0-0.1,0-0.2,0-0.3
						c0-0.5,0.1-1,0.2-1.4c1.1-0.6,2-1.4,2.8-2.3c-0.5-0.9-0.8-1.5-1-1.8c-0.2-0.4-0.6-1-1.2-1.8c-0.2-0.3-0.4-0.5-0.5-0.7
						c-0.2-0.2-0.4-0.3-0.5-0.3c-0.1,0-0.2,0-0.4,0.1c-0.1,0.1-0.2,0.1-0.3,0.1c-0.1,0-0.4-0.1-0.7-0.4c-0.3-0.3-0.5-0.6-0.8-0.9
						c-0.2-0.3-0.4-0.5-0.5-0.7s-0.1-0.4-0.1-0.7c0-0.4,0-0.7,0.1-0.9c0.1-0.3,0.2-0.5,0.4-0.5c0.3,0,0.7,0.3,1.2,0.8
						c0.4,0.5,1,1.1,1.5,1.8c0.5,0.7,1,1.4,1.4,2.1l1,1.6c0.3,0.5,0.6,1,0.9,1.6c0.4-0.9,0.7-1.8,0.9-2.7c0.1-0.8,0.2-1.8,0.2-3
						l-0.6-0.3c0-0.4,0-0.8,0.1-1.2s0.2-0.7,0.3-1l0.2,0.1c0,0.3,0.2,0.5,0.5,0.7c0.2,0.1,0.4,0.2,0.6,0.3S136.3,17.8,136.4,17.9z
						 M133.9,27.4c0-0.1,0-0.3-0.1-0.4s-0.2-0.4-0.4-0.8c-0.2,0.3-0.5,0.5-0.9,0.9s-0.8,0.6-1.1,0.8c0.8,0,1.3,0,1.6-0.1
						C133.6,27.8,133.9,27.6,133.9,27.4z"/>
				</g>
			</g>
		</g>
	</g>
</g>
</svg>
