<?xml version="1.0" encoding="utf-8"?>
<!-- Generator: Adobe Illustrator 22.0.1, SVG Export Plug-In . SVG Version: 6.00 Build 0)  -->
<svg version="1.1" id="Layer_1" xmlns="http://www.w3.org/2000/svg" xmlns:xlink="http://www.w3.org/1999/xlink" x="0px" y="0px"
	 viewBox="0 0 170 46.1" style="enable-background:new 0 0 170 46.1;" xml:space="preserve">
<style type="text/css">
	.st0{fill:#542C0B;}
</style>
<g>
	<path class="st0" d="M21.6,16.4h-1.8c-0.8,1.2-1.5,2.4-2,3.8c-0.6,1.6-0.9,3.3-0.9,5.1c0,1.4,0.2,2.9,0.7,4.5
		c0.5,1.5,1.2,3,2.2,4.5h1.8c-0.5-1.2-0.9-2.1-1.1-2.7c-0.3-1-0.6-2-0.8-3c-0.2-1.1-0.3-2.1-0.3-3.1c0-1.5,0.2-2.9,0.5-4.2
		C20.2,19.9,20.8,18.3,21.6,16.4z"/>
	<path class="st0" d="M38.1,19.4c0.1-0.3,0.3-0.6,0.4-1c0.1-0.4,0.2-0.8,0.2-1.2c-0.5-0.2-0.9-0.4-1.1-0.6c-0.3-0.2-0.4-0.4-0.4-0.6
		c0-0.2,0-0.3,0-0.3l-0.4-0.2c-0.3,0.6-0.6,1.2-0.7,1.7C36,17.6,36,18,36,18.4l0.6,0.4l1.1,6.3h-3.3c-0.7-1-1.3-1.8-1.8-2.2
		c-0.5-0.5-1-0.7-1.4-0.7c-0.5,0-0.9,0.3-1.3,0.8s-0.7,1.2-1,2.2l0.4,0.2c0.3-0.4,0.6-0.7,0.7-0.8s0.3-0.2,0.5-0.2
		c0.4,0,0.8,0.3,1.3,1c-1,0.1-1.8,0.3-2.3,0.4c-0.5,0.2-0.8,0.4-1,0.7c-0.2,0.3-0.3,0.6-0.4,0.9c-0.2,0.4-0.2,0.8-0.2,1.1
		c0,0.2,0.1,0.6,0.3,1.2c0.3,1,0.5,1.7,0.6,2c0.2,0.9,0.4,1.8,0.5,2.6c0.2-0.3,0.4-0.6,0.5-0.9c0.1-0.3,0.1-0.6,0.1-1
		c0-0.6-0.1-1.2-0.3-1.8c-0.2-0.6-0.4-1.3-0.6-2.1c0-0.2,0.4-0.5,1.3-0.7s1.9-0.3,3-0.3h0.6l0,0H39V25l-1-5.7L38.1,19.4z"/>
	<path class="st0" d="M58.6,19.4c0.1-0.3,0.3-0.6,0.4-1c0.1-0.4,0.2-0.8,0.2-1.2c-0.5-0.2-0.9-0.4-1.1-0.6c-0.3-0.2-0.4-0.4-0.4-0.6
		c0-0.2,0-0.3,0-0.3l-0.4-0.2c-0.3,0.6-0.6,1.2-0.7,1.7c-0.1,0.4-0.2,0.7-0.2,1.1l0.6,0.4l1.1,6.3h-3.3v-1c0-0.5,0-0.9-0.1-1.2
		c-0.1-0.3-0.2-0.7-0.4-1.1l-0.8,1.1c-0.1,0.2-0.2,0.3-0.2,0.3c0,0.1-0.1,0.2-0.1,0.4c0,0.1,0.1,0.3,0.2,0.7
		c0.2,0.3,0.2,0.6,0.2,0.8c-0.3,0-0.6-0.1-0.9-0.2c-0.3-0.1-0.5-0.2-0.8-0.3c0.1-0.6,0.1-1,0.1-1.4c0-0.1,0-0.2,0-0.4
		c0-0.2,0-0.4,0-0.5l-0.4,0.3c-0.2,0.1-0.3,0.2-0.3,0.3c-0.1,0.1-0.1,0.3-0.1,0.4c0,0.7-0.2,1.2-0.6,1.4c-0.3,0.2-0.9,0.3-1.6,0.3
		h-1c-0.3,0-0.5-0.1-0.7-0.3c-0.2-0.2-0.3-0.5-0.3-0.8s0-0.6,0-0.8c0-0.3,0-0.5,0-0.7l-0.6-0.1c0,1-0.3,1.7-0.8,2.2
		c-0.4,0.4-1,0.5-1.6,0.5h-0.7h-0.6h-0.6c-0.3,0-0.5-0.2-0.6-0.6C41.1,23.9,41,23,41,21.7v-1.8c0-0.9-0.1-1.6-0.3-2.2
		c-0.1-0.5-0.4-1-0.8-1.5l-1,2.3c0.3,0.3,0.5,0.5,0.6,0.7c0.2,0.3,0.3,0.8,0.3,1.4v2.6c0,1.6,0.2,2.7,0.5,3.3
		c0.3,0.6,0.8,0.9,1.6,0.9h0.6h0.6h0.7c0.5,0,0.9-0.1,1.3-0.3c0.4-0.2,0.8-0.6,1.1-1.1c0.2,0.5,0.4,0.9,0.7,1.1
		c0.2,0.2,0.6,0.3,1,0.3h1.5c0.6,0,1,0,1.3-0.1s0.6-0.2,1-0.5c0.4,0.2,0.9,0.4,1.4,0.5c0.3,0.1,0.7,0.1,1.1,0.1l0,0h5.1V25l-1-5.7
		L58.6,19.4z"/>
	<path class="st0" d="M62.2,19.6l-0.6-3.3C61.3,17,61,17.5,60.8,18s-0.3,0.8-0.3,1c0,0.1,0,0.4,0.1,0.7c0.2,1,0.4,1.8,0.5,2.6
		c0.1,0.7,0.2,1.4,0.2,2.2c0.1,0.7,0.1,1.3,0.1,1.7c0,0.5-0.1,1.1-0.2,1.9l0.6,0.2c0.4-0.8,0.6-1.4,0.8-1.8c0.1-0.5,0.2-1,0.2-1.5
		c0-0.6,0-1.3-0.1-2C62.5,21.9,62.4,20.8,62.2,19.6z"/>
	<polygon class="st0" points="75.4,20 76.7,20.7 77.7,18.8 76,17.9 75.2,19.4 73.9,18.7 72.9,20.5 74.6,21.4 	"/>
	<polygon class="st0" points="75.9,16.6 74.2,15.7 73.2,17.6 75,18.5 	"/>
	<polygon class="st0" points="86.2,17.5 84,16.3 82.9,18.4 85.1,19.5 	"/>
	<path class="st0" d="M84.9,20.9l-0.7,2.2c0.3,0.4,0.6,0.7,0.6,0.8c0.2,0.3,0.3,0.6,0.4,1.1H81c0-0.6,0-1.1-0.1-1.4
		c0-0.3-0.1-0.7-0.2-1c-0.1-0.4-0.2-0.6-0.3-0.8c-0.1-0.2-0.3-0.5-0.5-0.8l-0.8,2.1c0.3,0.4,0.5,0.7,0.7,0.9s0.2,0.5,0.4,1h-6.7
		c-1.1,0-1.9-0.1-2.4-0.4s-0.7-0.7-0.7-1.3c0-0.3,0-0.5,0.1-0.8s0.3-0.7,0.5-1.2L70.4,21c-0.5,0.7-0.8,1.3-0.9,1.8
		c-0.2,0.5-0.3,1-0.3,1.6c0,0.5,0.1,1,0.3,1.4s0.4,0.8,0.7,1c0.3,0.3,0.7,0.4,1.1,0.5s1,0.1,1.9,0.1h7.2l0,0h5.8V25
		c0-1.1-0.1-2-0.3-2.6C85.7,22,85.4,21.5,84.9,20.9z"/>
	<path class="st0" d="M88.7,20.4l2-0.6c0.1,0,0.2-0.1,0.3-0.2c0.1-0.1,0.2-0.2,0.2-0.4c-0.4,0.1-0.6,0.1-0.7,0.1s-0.3-0.1-0.6-0.3
		s-0.4-0.3-0.4-0.4c0.1-0.1,0.1-0.1,0.2-0.1c0.1-0.1,0.2-0.1,0.3-0.1s0.3,0.1,0.6,0.2c0.1-0.1,0.1-0.2,0.2-0.3c0-0.1,0-0.2,0-0.3
		c0-0.1,0-0.2-0.1-0.3c-0.1-0.1-0.2-0.1-0.3-0.1c-0.4,0-0.8,0.3-1.2,0.8c-0.1,0.1-0.1,0.2-0.2,0.3c0,0.1-0.1,0.2-0.1,0.3
		c0,0.1,0,0.2,0.1,0.3c0.1,0.1,0.2,0.2,0.4,0.3c-0.2,0.1-0.4,0.2-0.5,0.3C88.9,20,88.8,20.2,88.7,20.4z"/>
	<path class="st0" d="M106.4,19.4c0.1-0.3,0.3-0.6,0.4-1s0.2-0.8,0.2-1.2c-0.5-0.2-0.9-0.4-1.1-0.6c-0.3-0.2-0.4-0.4-0.4-0.6
		c0-0.2,0-0.3,0-0.3l-0.4-0.2c-0.3,0.6-0.6,1.2-0.7,1.7c-0.1,0.4-0.2,0.7-0.2,1.1l0.6,0.4L106,25h-3.4c-0.1-0.7-0.3-1.5-0.7-2.3
		c-0.5-1-0.9-1.4-1.2-1.4c-0.3,0-0.8,0.2-1.2,0.7c-0.5,0.5-1,1.2-1.4,1.9c-0.2,0.4-0.5,0.7-0.9,0.9C96.9,25,96.5,25,95.9,25h-1.2
		v-0.5c0-1-0.2-1.8-0.5-2.4c-0.3-0.7-0.8-1-1.3-1c-0.6,0-1.1,0.5-1.6,1.4c-0.4,0.9-0.6,1.8-0.6,2.7c0,0.7,0.2,1.2,0.5,1.6
		c0.4,0.4,0.8,0.6,1.5,0.6c0.2,0,0.4,0,0.6-0.1c-0.7,0.9-1.5,1.5-2.2,1.9c-0.6,0.3-1.2,0.5-1.8,0.5c-0.4,0-0.8-0.1-1.2-0.2
		c-0.4-0.1-1-0.4-1.6-0.9l-0.4,0.5c1.3,1,2.2,1.6,2.8,1.9c0.6,0.3,1.2,0.5,1.7,0.5c0.9,0,1.8-0.5,2.7-1.6c0.7-0.8,1.1-1.7,1.3-2.5
		h1.3c0.4,0,0.8,0,1-0.1c0.5-0.2,1-0.5,1.3-1.1c0.6,0.3,1.3,0.6,2,0.8c0.6,0.2,1.1,0.3,1.6,0.3v0.1h5.1V25l-1-5.7L106.4,19.4z
		 M93.3,25c-0.4,0-0.7-0.1-1-0.2s-0.4-0.3-0.4-0.6c0-0.2,0.1-0.3,0.2-0.5s0.3-0.2,0.5-0.2c0.5,0,0.9,0.5,1.1,1.5
		C93.7,25,93.3,25,93.3,25z M100.7,24.9c-0.1,0-0.3-0.1-0.8-0.3c-0.2-0.1-0.4-0.2-0.7-0.3c0.2-0.6,0.4-0.8,0.6-0.8s0.5,0.2,0.8,0.6
		c0.3,0.3,0.4,0.6,0.4,0.7C100.9,24.8,100.8,24.9,100.7,24.9z"/>
	<path class="st0" d="M110,19.6l-0.6-3.3c-0.3,0.7-0.6,1.2-0.8,1.7c-0.2,0.5-0.3,0.8-0.3,1c0,0.1,0,0.4,0.1,0.7
		c0.2,1,0.4,1.8,0.5,2.6c0.1,0.7,0.2,1.4,0.2,2.2c0.1,0.7,0.1,1.3,0.1,1.7c0,0.5-0.1,1.1-0.2,1.9l0.6,0.2c0.4-0.8,0.6-1.4,0.8-1.8
		c0.1-0.5,0.2-1,0.2-1.5c0-0.6,0-1.3-0.1-2C110.3,21.9,110.2,20.8,110,19.6z"/>
	<path class="st0" d="M141,23.6c-0.7-0.7-1.2-1.3-1.6-1.6c-0.5-0.4-0.9-0.8-1.3-1s-0.8-0.3-1.2-0.3c-0.5,0-1,0.2-1.4,0.6
		s-0.8,0.9-1.1,1.7c0.3-0.1,0.4-0.1,0.6-0.1c0.1,0,0.3,0,0.4,0c0.5,0,1.1,0.2,1.7,0.5c0.6,0.3,1.3,0.9,2.1,1.7h-6
		c-0.1-0.7-0.3-1.5-0.7-2.3c-0.5-1-0.9-1.4-1.2-1.4s-0.8,0.2-1.2,0.7c-0.5,0.5-1,1.2-1.4,1.9c-0.2,0.4-0.5,0.7-0.9,0.9
		c-0.3,0.1-0.8,0.2-1.3,0.2h-1.2h-0.6h-0.6c-0.3,0-0.6-0.1-0.9-0.2c-0.4-0.2-0.8-0.4-1.1-0.8c0.4-0.2,0.6-0.4,0.8-0.8
		c0.2-0.3,0.3-0.7,0.3-1c0-0.6-0.2-1.1-0.7-1.5s-1-0.6-1.7-0.6c-0.8,0-1.4,0.3-1.8,0.9s-0.6,1.3-0.6,2.1l0.4,0.1
		c0.1-0.1,0.1-0.2,0.2-0.3c0.1-0.1,0.1-0.1,0.2-0.1c0.3,0,0.4,0.2,0.5,0.7c-0.9,0.8-1.6,1.7-2,2.6s-0.6,1.9-0.6,3.1
		c0,1.6,0.5,2.8,1.4,3.6s2.4,1.1,4.4,1.1l3.4-2.1l-0.1-0.4c-0.3,0-0.6,0-1,0s-0.7,0-1,0c-2.1,0-3.6-0.3-4.6-0.8s-1.5-1.3-1.5-2.4
		c0-0.6,0.2-1.2,0.6-1.8c0.4-0.6,0.9-1.1,1.6-1.6c0.5,1,1,1.7,1.6,2c0.5,0.3,1.2,0.5,2.1,0.5h0.6h0.6h1.2c0.4,0,0.8,0,1-0.1
		c0.5-0.2,1-0.5,1.3-1.1c0.6,0.3,1.3,0.6,2,0.8c0.6,0.2,1.1,0.3,1.6,0.3v0.1h10.6V25c-0.5-0.1-0.9-0.2-1.1-0.4
		C141.9,24.5,141.5,24.2,141,23.6z M131.3,24.9c-0.1,0-0.3-0.1-0.8-0.3c-0.2-0.1-0.4-0.2-0.7-0.3c0.2-0.6,0.4-0.8,0.6-0.8
		c0.2,0,0.5,0.2,0.8,0.6c0.3,0.3,0.4,0.6,0.4,0.7C131.5,24.8,131.5,24.9,131.3,24.9z"/>
	<polygon class="st0" points="136.5,30.5 138.6,31.7 139.8,29.6 137.6,28.4 	"/>
	<path class="st0" d="M153.1,20.7c-0.5-1.5-1.2-2.9-2.2-4.2h-1.8c0.8,1.9,1.4,3.5,1.7,4.8s0.5,2.7,0.5,4.2c0,0.7,0,1.4-0.1,2.1
		s-0.2,1.4-0.4,2.2c-0.2,0.8-0.4,1.4-0.6,2c-0.2,0.6-0.6,1.4-1.1,2.5h1.8c1.1-1.6,1.8-3.3,2.3-4.9c0.4-1.5,0.6-2.9,0.6-4.2
		C153.8,23.7,153.6,22.2,153.1,20.7z"/>
</g>
</svg>
