<?xml version="1.0" encoding="utf-8"?>
<!-- Generator: Adobe Illustrator 22.0.1, SVG Export Plug-In . SVG Version: 6.00 Build 0)  -->
<svg version="1.1" id="Layer_1" xmlns="http://www.w3.org/2000/svg" xmlns:xlink="http://www.w3.org/1999/xlink" x="0px" y="0px"
	 viewBox="0 0 283.5 46.1" style="enable-background:new 0 0 283.5 46.1;" xml:space="preserve">
<style type="text/css">
	.st0{fill:#BA0017;}
</style>
<g>
	<path d="M78.7,35.8c0,0.3-0.2,0.6-0.5,0.9c-0.6,0.2-1.5,0.6-2.8,1.1c0-0.3,0.1-0.6,0.4-0.8C76.4,36.8,77.3,36.4,78.7,35.8z"/>
	<path d="M79.4,28.3h-1.2c-1.1,0-2,0.1-2.8,0.3c-1,0.3-1.5,0.6-1.5,1.1c0,0.4,0.1,0.9,0.2,1.4s0.3,1,0.4,1.5c0.2,0.5,0.2,1,0.2,1.4
		c0,0.2,0,0.5-0.1,0.7c0,0.2-0.1,0.5-0.2,0.8c-0.2-0.5-0.3-1.1-0.5-1.6c-0.3-1-0.5-1.8-0.7-2.3c-0.2-0.8-0.4-1.3-0.4-1.5
		c0-0.8,0.2-1.5,0.5-1.9c0.3-0.4,0.9-0.8,1.6-1c0.6-0.2,1.4-0.3,2.6-0.4c-0.4-0.4-0.7-0.7-0.8-0.7c-0.3-0.3-0.7-0.4-1-0.4
		c-0.2,0-0.4,0.1-0.6,0.2c-0.2,0.1-0.3,0.3-0.6,0.5l-0.4-0.3c0.2-0.5,0.4-0.9,0.7-1.2c0.4-0.5,0.9-0.7,1.5-0.7
		c0.4,0,0.8,0.1,1.2,0.4c0.3,0.2,0.7,0.6,1,1c0.2,0.2,0.4,0.6,0.8,1.1V28.3z"/>
	<path d="M83.2,13.3c0,0.4-0.1,0.8-0.4,1.1c-0.3,0.3-0.7,0.5-1.1,0.5c-0.4,0-0.6-0.1-0.8-0.3s-0.3-0.5-0.3-0.8
		c0-0.5,0.1-0.9,0.4-1.3c0.3-0.4,0.6-0.6,1-0.6c0.4,0,0.6,0.1,0.9,0.4S83.2,13,83.2,13.3z M82.6,13.6c0-0.2-0.1-0.4-0.4-0.6
		c-0.3-0.2-0.5-0.3-0.6-0.3c-0.2,0-0.3,0.1-0.4,0.2S81,13.2,81,13.3c0,0.2,0.1,0.4,0.3,0.5c0.2,0.1,0.4,0.1,0.7,0.1
		c0.2,0,0.3,0,0.4-0.1C82.6,13.8,82.6,13.7,82.6,13.6z"/>
	<path d="M83.5,28.3h-4.8v-1.7h3.8l-1.2-8.3L80.9,18c0-0.4,0-0.9,0.1-1.3c0.1-0.4,0.2-0.8,0.4-1.1l0.1,0.1c0,0.4,0.2,0.7,0.6,0.8
		c0.3,0.1,0.7,0.3,1,0.4c0,0.3,0,0.7-0.1,1s-0.1,0.6-0.2,0.8l-0.5-0.2l1.2,7.7V28.3z"/>
	<path d="M91.4,28.3H90c-0.4,0-0.9-0.1-1.3-0.3c-0.5-0.2-0.9-0.6-1.1-1c-0.4,0.4-0.9,0.7-1.5,0.9c-0.7,0.3-1.5,0.4-2.3,0.4h-0.9
		v-1.7h0.9c0.5,0,1.1-0.1,1.5-0.2c0.5-0.1,1.1-0.4,1.6-0.7l-0.4-0.5c-0.2-0.2-0.4-0.4-0.7-0.4c-0.1,0-0.2,0-0.3,0.1
		c-0.1,0-0.2,0.1-0.3,0.3h-0.2v-0.6c0-0.7,0.2-1.2,0.6-1.5c0.3-0.2,0.9-0.4,1.8-0.4c0.7,0,1.3,0.1,1.8,0.3c0.6,0.3,0.9,0.6,0.9,1.2
		c0,0.3-0.1,0.6-0.4,0.9c-0.2,0.2-0.5,0.5-1,0.9c0.1,0.2,0.3,0.3,0.6,0.4c0.3,0.1,0.5,0.2,0.7,0.2h1.4V28.3z"/>
	<path d="M95.3,30c0,0.3-0.2,0.6-0.5,0.9c-0.6,0.2-1.5,0.6-2.8,1.1c0-0.3,0.1-0.6,0.4-0.8C93,31,93.9,30.6,95.3,30z"/>
	<path d="M95.5,28.3h-4.8v-1.7h3.8l-1.2-8.3L92.9,18c0-0.4,0-0.9,0.1-1.3c0.1-0.4,0.2-0.8,0.4-1.1l0.1,0.1c0,0.4,0.2,0.7,0.6,0.8
		c0.3,0.1,0.7,0.3,1,0.4c0,0.3,0,0.7-0.1,1s-0.1,0.6-0.2,0.8l-0.5-0.2l1.2,7.7V28.3z"/>
	<path d="M98.8,25.8c0,0.5-0.1,1-0.3,1.5c-0.1,0.3-0.3,0.7-0.6,1.2l-0.2-0.1c0-0.2,0-0.4,0.1-0.7c0-0.2,0-0.4,0-0.5
		c0-0.7-0.1-1.6-0.2-2.8c-0.1-1.2-0.2-2.5-0.4-3.8c-0.1-0.8-0.2-1.6-0.3-2.5c0.1-0.3,0.3-0.6,0.4-0.9s0.3-0.6,0.5-0.9
		c0.1,0.7,0.2,1.8,0.4,3s0.3,2.5,0.4,3.5C98.8,24.1,98.8,25.1,98.8,25.8z"/>
	<path d="M117,28.3h-1.7c-1,0-1.8,0-2.3,0.1c-0.5,0.1-0.8,0.2-0.8,0.3c0,0.2,0.3,0.3,0.9,0.3c0.3,0,0.5,0,0.6,0c0.2,0,0.5,0,1,0.1
		c0.3,0,0.5,0.1,0.6,0.1c0.2,0.1,0.3,0.3,0.3,0.5c0,1.2-0.4,2.1-1.2,2.7c-0.9,0.6-2.3,0.9-4.3,0.9c-1.4,0-2.5-0.2-3.3-0.7
		c-0.9-0.5-1.3-1.2-1.3-2.2c0-0.8,0.2-1.6,0.6-2.4c0.1-0.3,0.5-1,1.2-2l0.4,0.2c-0.2,0.4-0.5,0.8-0.7,1.3c-0.4,0.7-0.6,1.3-0.6,1.8
		c0,0.8,0.4,1.4,1.3,1.8c0.8,0.4,1.9,0.6,3.3,0.6c0.9,0,1.8-0.1,2.5-0.2c0.9-0.2,1.3-0.4,1.3-0.7c0-0.1,0-0.2-0.1-0.3
		c-0.1-0.1-0.3-0.1-0.5-0.1c-0.2,0-0.5,0-0.8-0.1c-0.4,0-0.6,0-0.7,0c-0.4,0-0.7-0.1-0.9-0.2s-0.3-0.3-0.3-0.5c0-0.8,0.2-1.5,0.7-2
		c0.4-0.4,0.9-0.7,1.6-0.9c0.5-0.2,1-0.2,1.6-0.2h1.7V28.3z"/>
	<path d="M121.1,12.8c0,0.3-0.2,0.6-0.5,0.9c-0.6,0.2-1.5,0.6-2.8,1.1c0-0.3,0.1-0.6,0.4-0.8C118.7,13.7,119.7,13.3,121.1,12.8z"/>
	<path d="M121.1,28.3h-4.8v-1.7h3.8l-1.2-8.3l-0.5-0.2c0-0.4,0-0.9,0.1-1.3c0.1-0.4,0.2-0.8,0.4-1.1l0.1,0.1c0,0.4,0.2,0.7,0.6,0.8
		c0.3,0.1,0.7,0.3,1,0.4c0,0.3,0,0.7-0.1,1s-0.1,0.6-0.2,0.8l-0.5-0.2l1.2,7.7V28.3z"/>
	<path d="M127.2,16.7c0,0.3-0.2,0.6-0.5,0.9c-0.6,0.2-1.5,0.6-2.8,1.1c0-0.3,0.1-0.6,0.4-0.8C124.8,17.7,125.8,17.2,127.2,16.7z"/>
	<path d="M130.5,25.2l-0.7,1.8c-1,0.4-2.1,0.7-3.4,0.9s-2.5,0.4-3.6,0.4h-2.4v-1.7h2.3c-0.2-0.3-0.3-0.7-0.5-1
		c-0.1-0.4-0.2-0.8-0.2-1.1c0-0.8,0.3-1.4,1-1.9c0.6-0.5,1.5-0.8,2.5-0.8c0.8,0,1.5,0.2,2,0.6c0.2,0.2,0.6,0.6,1.1,1.2l-0.2,0.2
		c-0.4-0.1-0.9-0.2-1.2-0.3c-0.4-0.1-0.7-0.1-1.1-0.1c-0.9,0-1.6,0.1-2.1,0.3c-0.5,0.2-0.8,0.5-0.8,0.8c0,0.3,0.2,0.7,0.5,1.1
		c0.3,0.4,0.7,0.7,1.2,1.1c1.1-0.2,1.9-0.3,2.6-0.5C128.4,25.8,129.3,25.6,130.5,25.2z"/>
	<path d="M142.3,17.4c0,0.1,0,0.2,0,0.3s0,0.2-0.1,0.4l-0.8-0.5c-0.3,0.4-0.5,0.6-0.7,0.7c-0.5,0.5-0.9,0.7-1.2,0.7h-0.7
		c0.3-0.2,0.7-0.4,1.2-0.8c0.4-0.3,0.7-0.6,0.9-0.9c-0.2-0.1-0.4-0.3-0.5-0.4c-0.1-0.2-0.2-0.4-0.2-0.6c0-0.4,0.1-0.8,0.4-1.1
		c0.3-0.3,0.5-0.5,0.8-0.5c0.2,0,0.3,0.1,0.5,0.3c0.1,0.2,0.2,0.4,0.2,0.7c0,0.1,0,0.3-0.1,0.4c0,0.1-0.1,0.4-0.2,0.7
		c0.1,0.1,0.2,0.2,0.3,0.3C142.3,17.1,142.3,17.2,142.3,17.4z M141.6,16.3c0-0.2-0.1-0.3-0.2-0.5c-0.1-0.2-0.2-0.2-0.4-0.2
		c-0.1,0-0.1,0-0.2,0.1c0,0-0.1,0.1-0.1,0.1c0,0.1,0.1,0.3,0.2,0.4l0.4,0.3C141.6,16.4,141.6,16.3,141.6,16.3z"/>
	<path d="M144.5,25.9l-0.5,1.6c-1,0.2-1.8,0.5-2.4,0.8c-0.7,0.4-1.4,0.8-2,1.4l-0.3-0.2c0.1-0.3,0.2-0.6,0.3-0.8
		c0.1-0.2,0.3-0.4,0.4-0.6l-1.1-0.6c-0.3-0.2-0.5-0.5-0.5-0.7c0-0.2,0.1-0.6,0.4-1.1c0.3-0.7,0.7-1.2,1.1-1.6c0.5-0.6,1-0.8,1.6-0.8
		c0.5,0,0.9,0.1,1.2,0.4c0.1,0.1,0.2,0.2,0.5,0.5l-0.5,1.3c-0.2-0.2-0.4-0.3-0.4-0.3c-0.4-0.3-0.7-0.4-1-0.4c-0.3,0-0.6,0.1-1,0.3
		s-0.5,0.4-0.5,0.6c0,0.3,0.2,0.5,0.6,0.8c0.3,0.2,0.8,0.4,1.4,0.6C142.6,26.5,143.5,26.1,144.5,25.9z"/>
	<path d="M150,28.3h-1.4c-0.4,0-0.8-0.2-1.1-0.5c-0.2-0.3-0.4-0.8-0.5-1.4c-0.1-0.6-0.2-1.4-0.3-2.3c0-0.7-0.1-1.5-0.1-2.3
		c0-0.8-0.1-1.4-0.2-1.8s-0.2-0.7-0.3-1c-0.1-0.3-0.3-0.6-0.6-0.8l1.2-1.9c0.3,0.8,0.4,1.7,0.5,2.8c0.1,0.7,0.1,2.3,0.2,4.8
		c0.1,1.2,0.3,1.9,0.5,2.2c0.2,0.3,0.4,0.4,0.6,0.4h1.4V28.3z"/>
	<path d="M154.9,28.3h-5.6v-1.7h4.9c0-0.8-0.1-1.4-0.3-1.8c-0.1-0.3-0.4-0.7-0.9-1.2l0.8-1.6c0.5,0.6,0.8,1.1,0.9,1.4
		c0.2,0.5,0.3,1.3,0.3,2.5V28.3z M154.2,19.2l-0.7,1.4l-1.6-0.8l0.7-1.4L154.2,19.2z"/>
	<path d="M162.8,28.3h-1c-0.4,0-0.9-0.1-1.5-0.3c-0.6-0.2-1.2-0.5-1.7-0.9c-0.4,0.5-0.8,0.8-1.2,1c-0.4,0.2-1,0.3-1.7,0.3h-1.5v-1.7
		h1.5c0.6,0,1.1-0.2,1.6-0.4c0.4-0.2,0.7-0.6,1-1c0.4-0.6,0.9-1.1,1.5-1.5c0.5-0.4,1-0.6,1.4-0.7c0.4,0.7,0.8,1.3,1.1,1.8
		c0.4,0.7,0.5,1.3,0.5,1.8V28.3z M161.7,26.3c-0.1-0.4-0.2-0.8-0.4-1.1c-0.1-0.3-0.3-0.6-0.6-0.9c-0.3,0.1-0.6,0.2-0.8,0.4
		c-0.1,0.1-0.3,0.4-0.5,0.7c0.2,0.3,0.6,0.5,1,0.7c0.4,0.2,0.8,0.3,1.2,0.4L161.7,26.3z"/>
	<path d="M166.2,11.3c0,0.1,0,0.2,0,0.3s0,0.2-0.1,0.4l-0.8-0.5c-0.3,0.4-0.5,0.6-0.7,0.7c-0.5,0.5-0.9,0.7-1.2,0.7h-0.7
		c0.3-0.2,0.7-0.4,1.2-0.8c0.4-0.3,0.7-0.6,0.9-0.9c-0.2-0.1-0.4-0.3-0.5-0.4c-0.1-0.2-0.2-0.4-0.2-0.6c0-0.4,0.1-0.8,0.4-1.1
		c0.3-0.3,0.5-0.5,0.8-0.5c0.2,0,0.3,0.1,0.5,0.3c0.1,0.2,0.2,0.4,0.2,0.7c0,0.1,0,0.3-0.1,0.4c0,0.1-0.1,0.4-0.2,0.7
		c0.1,0.1,0.2,0.2,0.3,0.3C166.2,11.1,166.2,11.2,166.2,11.3z M165.5,10.2c0-0.2-0.1-0.3-0.2-0.5c-0.1-0.2-0.2-0.2-0.4-0.2
		c-0.1,0-0.1,0-0.2,0.1c0,0-0.1,0.1-0.1,0.1c0,0.1,0.1,0.3,0.2,0.4l0.4,0.3C165.5,10.4,165.5,10.3,165.5,10.2z"/>
	<path d="M166.4,15.1c0,0.2-0.1,0.3-0.3,0.4c-0.1,0.1-0.3,0.2-0.6,0.3l-1.8,0.6c0-0.3,0.3-0.6,1-0.8c-0.2-0.1-0.4-0.2-0.5-0.3
		c-0.1-0.1-0.2-0.3-0.2-0.4c0-0.2,0.2-0.5,0.5-0.8c0.4-0.4,0.7-0.6,1-0.6c0.1,0,0.2,0,0.3,0.1s0.1,0.2,0.1,0.3c0,0.1,0,0.2-0.1,0.3
		c0,0.1-0.1,0.2-0.2,0.3c-0.2-0.2-0.4-0.3-0.7-0.3c-0.1,0-0.3,0-0.4,0.1s-0.2,0.1-0.2,0.2c0,0.1,0.2,0.2,0.5,0.4
		c0.3,0.2,0.6,0.3,0.8,0.3c0.1,0,0.2,0,0.3,0S166.2,15.2,166.4,15.1z M166.1,25.8c0,0.5-0.1,1-0.3,1.5c-0.1,0.3-0.3,0.7-0.6,1.2
		l-0.2-0.1c0-0.2,0-0.4,0.1-0.7c0-0.2,0-0.4,0-0.5c0-0.7-0.1-1.6-0.2-2.8c-0.1-1.2-0.2-2.5-0.4-3.8c-0.1-0.8-0.2-1.6-0.3-2.5
		c0.1-0.3,0.3-0.6,0.4-0.9s0.3-0.6,0.5-0.9c0.1,0.7,0.2,1.8,0.4,3s0.3,2.5,0.4,3.5C166.1,24.1,166.1,25.1,166.1,25.8z"/>
	<path class="st0" d="M177.6,17.4c0,0.1,0,0.2,0,0.3s0,0.2-0.1,0.4l-0.8-0.5c-0.3,0.4-0.5,0.6-0.7,0.7c-0.5,0.5-0.9,0.7-1.2,0.7
		h-0.7c0.3-0.2,0.7-0.4,1.2-0.8c0.4-0.3,0.7-0.6,0.9-0.9c-0.2-0.1-0.4-0.3-0.5-0.4c-0.1-0.2-0.2-0.4-0.2-0.6c0-0.4,0.1-0.8,0.4-1.1
		c0.3-0.3,0.5-0.5,0.8-0.5c0.2,0,0.3,0.1,0.5,0.3c0.1,0.2,0.2,0.4,0.2,0.7c0,0.1,0,0.3-0.1,0.4c0,0.1-0.1,0.4-0.2,0.7
		c0.1,0.1,0.2,0.2,0.3,0.3C177.6,17.1,177.6,17.2,177.6,17.4z M176.9,16.3c0-0.2-0.1-0.3-0.2-0.5c-0.1-0.2-0.2-0.2-0.4-0.2
		c-0.1,0-0.1,0-0.2,0.1c0,0-0.1,0.1-0.1,0.1c0,0.1,0.1,0.3,0.2,0.4l0.4,0.3C176.9,16.4,176.9,16.3,176.9,16.3z"/>
	<path class="st0" d="M179.8,25.9l-0.5,1.6c-1,0.2-1.8,0.5-2.4,0.8c-0.7,0.4-1.4,0.8-2,1.4l-0.3-0.2c0.1-0.3,0.2-0.6,0.3-0.8
		c0.1-0.2,0.3-0.4,0.4-0.6l-1.1-0.6c-0.3-0.2-0.5-0.5-0.5-0.7c0-0.2,0.1-0.6,0.4-1.1c0.3-0.7,0.7-1.2,1.1-1.6c0.5-0.6,1-0.8,1.6-0.8
		c0.5,0,0.9,0.1,1.2,0.4c0.1,0.1,0.2,0.2,0.5,0.5l-0.5,1.3c-0.2-0.2-0.4-0.3-0.4-0.3c-0.4-0.3-0.7-0.4-1-0.4c-0.3,0-0.6,0.1-1,0.3
		s-0.5,0.4-0.5,0.6c0,0.3,0.2,0.5,0.6,0.8c0.3,0.2,0.8,0.4,1.4,0.6C177.9,26.5,178.8,26.1,179.8,25.9z"/>
	<path class="st0" d="M185.4,28.3H184c-0.4,0-0.8-0.2-1.1-0.5c-0.2-0.3-0.4-0.8-0.5-1.4c-0.1-0.6-0.2-1.4-0.3-2.3
		c0-0.7-0.1-1.5-0.1-2.3c0-0.8-0.1-1.4-0.2-1.8s-0.2-0.7-0.3-1c-0.1-0.3-0.3-0.6-0.6-0.8l1.2-1.9c0.3,0.8,0.4,1.7,0.5,2.8
		c0.1,0.7,0.1,2.3,0.2,4.8c0.1,1.2,0.3,1.9,0.5,2.2c0.2,0.3,0.4,0.4,0.6,0.4h1.4V28.3z"/>
	<path class="st0" d="M190.9,16.7c0,0.3-0.2,0.6-0.5,0.9c-0.6,0.2-1.5,0.6-2.8,1.1c0-0.3,0.1-0.6,0.4-0.8
		C188.5,17.7,189.5,17.2,190.9,16.7z"/>
	<path class="st0" d="M193.2,28.3h-1c-0.4,0-0.9-0.1-1.5-0.3c-0.6-0.2-1.2-0.5-1.7-0.9c-0.4,0.5-0.8,0.8-1.2,1
		c-0.4,0.2-1,0.3-1.7,0.3h-1.5v-1.7h1.5c0.6,0,1.1-0.2,1.6-0.4c0.4-0.2,0.7-0.6,1-1c0.4-0.6,0.9-1.1,1.5-1.5c0.5-0.4,1-0.6,1.4-0.7
		c0.4,0.7,0.8,1.3,1.1,1.8c0.4,0.7,0.5,1.3,0.5,1.8V28.3z M192.1,26.3c-0.1-0.4-0.2-0.8-0.4-1.1c-0.1-0.3-0.3-0.6-0.6-0.9
		c-0.3,0.1-0.6,0.2-0.8,0.4c-0.1,0.1-0.3,0.4-0.5,0.7c0.2,0.3,0.6,0.5,1,0.7c0.4,0.2,0.8,0.3,1.2,0.4L192.1,26.3z"/>
	<path class="st0" d="M197.3,12.8c0,0.3-0.2,0.6-0.5,0.9c-0.6,0.2-1.5,0.6-2.8,1.1c0-0.3,0.1-0.6,0.4-0.8
		C195,13.7,195.9,13.3,197.3,12.8z"/>
	<path class="st0" d="M197.4,28.3h-4.8v-1.7h3.8l-1.2-8.3l-0.5-0.2c0-0.4,0-0.9,0.1-1.3c0.1-0.4,0.2-0.8,0.4-1.1l0.1,0.1
		c0,0.4,0.2,0.7,0.6,0.8c0.3,0.1,0.7,0.3,1,0.4c0,0.3,0,0.7-0.1,1s-0.1,0.6-0.2,0.8l-0.5-0.2l1.2,7.7V28.3z"/>
	<path class="st0" d="M203,17.4c0,0.1,0,0.2,0,0.3s0,0.2-0.1,0.4l-0.8-0.5c-0.3,0.4-0.5,0.6-0.7,0.7c-0.5,0.5-0.9,0.7-1.2,0.7h-0.7
		c0.3-0.2,0.7-0.4,1.2-0.8c0.4-0.3,0.7-0.6,0.9-0.9c-0.2-0.1-0.4-0.3-0.5-0.4c-0.1-0.2-0.2-0.4-0.2-0.6c0-0.4,0.1-0.8,0.4-1.1
		c0.3-0.3,0.5-0.5,0.8-0.5c0.2,0,0.3,0.1,0.5,0.3c0.1,0.2,0.2,0.4,0.2,0.7c0,0.1,0,0.3-0.1,0.4c0,0.1-0.1,0.4-0.2,0.7
		c0.1,0.1,0.2,0.2,0.3,0.3C202.9,17.1,203,17.2,203,17.4z M202.2,16.3c0-0.2-0.1-0.3-0.2-0.5c-0.1-0.2-0.2-0.2-0.4-0.2
		c-0.1,0-0.1,0-0.2,0.1c0,0-0.1,0.1-0.1,0.1c0,0.1,0.1,0.3,0.2,0.4l0.4,0.3C202.2,16.4,202.2,16.3,202.2,16.3z"/>
	<path class="st0" d="M205.3,28.3h-1.4c-0.4,0-0.9-0.1-1.3-0.3c-0.5-0.2-0.9-0.6-1.1-1c-0.4,0.4-0.9,0.7-1.5,0.9
		c-0.7,0.3-1.5,0.4-2.3,0.4h-0.9v-1.7h0.9c0.5,0,1.1-0.1,1.5-0.2c0.5-0.1,1.1-0.4,1.6-0.7l-0.4-0.5c-0.2-0.2-0.4-0.4-0.7-0.4
		c-0.1,0-0.2,0-0.3,0.1c-0.1,0-0.2,0.1-0.3,0.3h-0.2v-0.6c0-0.7,0.2-1.2,0.6-1.5c0.3-0.2,0.9-0.4,1.8-0.4c0.7,0,1.3,0.1,1.8,0.3
		c0.6,0.3,0.9,0.6,0.9,1.2c0,0.3-0.1,0.6-0.4,0.9c-0.2,0.2-0.5,0.5-1,0.9c0.1,0.2,0.3,0.3,0.6,0.4c0.3,0.1,0.5,0.2,0.7,0.2h1.4V28.3
		z"/>
	<path class="st0" d="M209.4,28.3h-4.8v-1.7h3.8l-1.2-8.3l-0.5-0.2c0-0.4,0-0.9,0.1-1.3c0.1-0.4,0.2-0.8,0.4-1.1l0.1,0.1
		c0,0.4,0.2,0.7,0.6,0.8c0.3,0.1,0.7,0.3,1,0.4c0,0.3,0,0.7-0.1,1s-0.1,0.6-0.2,0.8l-0.5-0.2l1.2,7.7V28.3z"/>
	<path class="st0" d="M212.7,25.8c0,0.5-0.1,1-0.3,1.5c-0.1,0.3-0.3,0.7-0.6,1.2l-0.2-0.1c0-0.2,0-0.4,0.1-0.7c0-0.2,0-0.4,0-0.5
		c0-0.7-0.1-1.6-0.2-2.8c-0.1-1.2-0.2-2.5-0.4-3.8c-0.1-0.8-0.2-1.6-0.3-2.5c0.1-0.3,0.3-0.6,0.4-0.9s0.3-0.6,0.5-0.9
		c0.1,0.7,0.2,1.8,0.4,3s0.3,2.5,0.4,3.5C212.6,24.1,212.7,25.1,212.7,25.8z"/>
</g>
</svg>
