<?xml version="1.0" encoding="utf-8"?>
<!-- Generator: Adobe Illustrator 22.0.1, SVG Export Plug-In . SVG Version: 6.00 Build 0)  -->
<svg version="1.1" id="Layer_1" xmlns="http://www.w3.org/2000/svg" xmlns:xlink="http://www.w3.org/1999/xlink" x="0px" y="0px"
	 viewBox="0 0 170 46.1" style="enable-background:new 0 0 170 46.1;" xml:space="preserve">
<style type="text/css">
	.st0{fill:#542C0B;}
</style>
<g>
	<path class="st0" d="M44.8,15.1H43c-0.8,1.2-1.5,2.4-2,3.8c-0.7,1.6-1,3.3-1,5.1c0,1.4,0.2,2.9,0.7,4.5s1.2,3,2.2,4.5h1.8
		c-0.5-1.2-0.9-2.1-1.1-2.7c-0.3-1-0.6-2-0.8-3c-0.2-1.1-0.3-2.1-0.3-3.1c0-1.5,0.2-2.9,0.5-4.2S43.9,17,44.8,15.1z"/>
	<path class="st0" d="M62.5,19.6l-0.7,2.2c0.3,0.4,0.6,0.7,0.6,0.8c0.2,0.3,0.3,0.6,0.4,1.1h-4.2H58h-0.6c-0.3,0-0.5-0.1-0.6-0.3
		c-0.2-0.3-0.4-0.9-0.6-1.8l-0.9-5.8c-0.3,0.5-0.5,1-0.6,1.3c-0.1,0.4-0.2,0.7-0.2,0.9c0,0.1,0,0.2,0,0.3c0,0.1,0,0.2,0,0.3L54,18.9
		c-0.4,0.3-0.8,0.5-1,0.6c-0.4,0.3-0.7,0.5-0.8,0.6c-0.2,0.2-0.5,0.8-0.9,1.6c-0.4,0.9-0.6,1.4-0.6,1.6c0,0.1,0.1,0.2,0.2,0.2
		s0.4,0.1,0.9,0.2l1.1,0.2c0.2,0,0.3,0.1,0.4,0.1c0.2,0,0.5-0.2,0.9-0.5c0.2-0.2,0.6-0.6,1-1.1c0.1,1.1,0.3,2,0.6,2.7
		c0.2,0.5,0.6,0.8,0.9,1c0.2,0.1,0.4,0.1,0.6,0.1h0.6h0.6h5.2v-2.4c0-1.1-0.1-2-0.3-2.6C63.3,20.7,63,20.1,62.5,19.6z M54.3,21.4
		c-0.1,0.1-0.3,0.1-0.4,0.1c-0.2,0-0.4,0-0.6-0.1c-0.2,0-0.3-0.1-0.3-0.2s0.1-0.2,0.2-0.3c0.1-0.1,0.2-0.2,0.4-0.3
		c0.2-0.2,0.5-0.3,0.8-0.5c0.1-0.1,0.3-0.1,0.5-0.2l0.2,1.1C54.7,21.2,54.5,21.3,54.3,21.4z"/>
	<polygon class="st0" points="59.5,29.1 61.6,30.3 62.8,28.2 60.6,27 	"/>
	<polygon class="st0" points="77.9,18.5 79.2,19.3 80.2,17.4 78.5,16.4 77.8,17.9 76.4,17.3 75.4,19.1 77.1,20 	"/>
	<path class="st0" d="M106.7,18.1c0.1-0.3,0.3-0.6,0.4-1s0.2-0.8,0.2-1.2c-0.5-0.2-0.9-0.4-1.1-0.6c-0.3-0.2-0.4-0.4-0.4-0.6
		c0-0.2,0-0.3,0-0.3l-0.4-0.2c-0.3,0.6-0.6,1.2-0.7,1.7c-0.1,0.4-0.2,0.7-0.2,1.1l0.6,0.4l1.1,6.3h-3.4c-0.1-0.7-0.3-1.5-0.7-2.3
		c-0.5-1-0.9-1.4-1.2-1.4c-0.3,0-0.8,0.2-1.2,0.7c-0.6,0.5-1,1.2-1.4,1.9c-0.2,0.4-0.5,0.7-0.9,0.9c-0.3,0.1-0.8,0.2-1.3,0.2H95
		L94,18l0.3,0.1c0.1-0.3,0.3-0.6,0.4-1s0.2-0.8,0.2-1.2c-0.5-0.2-0.9-0.4-1.1-0.6c-0.3-0.2-0.4-0.4-0.4-0.6c0-0.2,0-0.3,0-0.3
		L93,14.2c-0.3,0.6-0.6,1.2-0.7,1.7c-0.1,0.4-0.2,0.7-0.2,1.1l0.6,0.4l1.1,6.3h-3.3c-0.5-0.1-0.9-0.2-1.1-0.4s-0.6-0.5-1.1-1
		c-0.7-0.7-1.2-1.3-1.6-1.6c-0.5-0.4-0.9-0.8-1.3-1s-0.8-0.3-1.2-0.3c-0.5,0-1,0.2-1.4,0.6s-0.8,0.9-1.1,1.7
		c0.3-0.1,0.4-0.1,0.6-0.1s0.3,0,0.4,0c0.5,0,1.1,0.2,1.7,0.5s1.3,0.9,2.1,1.7h-6c-0.1-0.8-0.2-1.5-0.5-2.1c-0.4-1-0.9-1.4-1.6-1.4
		c-0.6,0-1.2,0.5-1.7,1.5c-0.5,0.9-0.7,1.8-0.7,2.7c0,0.6,0.2,1.1,0.6,1.4s0.9,0.5,1.6,0.5c0.3,0,0.8,0,1.4-0.1c0,0.1,0,0.2,0.1,0.3
		s0,0.2,0,0.3c0,0.6-0.5,1.2-1.5,1.7s-2.1,0.7-3.4,0.7c-1.4,0-2.5-0.2-3.3-0.6s-1.2-1-1.2-1.8c0-0.5,0.1-1.1,0.4-1.6
		s0.6-1.3,1.2-2.1l-0.6-0.4c-0.9,1.2-1.4,2.2-1.8,3c-0.3,0.7-0.4,1.6-0.4,2.5c0,1.1,0.5,1.9,1.4,2.4c0.9,0.6,2.2,0.8,4,0.8
		c2,0,3.6-0.4,4.8-1.3c0.5-0.4,0.8-0.8,1-1.2c0.1-0.4,0.2-1.2,0.2-2.4v-0.3h9.3h0.7h3.8H95h1.2c0.4,0,0.8,0,1-0.1
		c0.5-0.2,1-0.5,1.3-1.1c0.6,0.3,1.3,0.6,2,0.8c0.6,0.2,1.1,0.3,1.6,0.3v0.1h5.1v-2.5l-1-5.7L106.7,18.1z M78.5,23.7
		c-0.1,0-0.2,0-0.4,0c-0.5,0-0.8-0.2-0.8-0.6c0-0.2,0-0.3,0.1-0.4s0.2-0.1,0.4-0.1c0.2,0,0.4,0.1,0.6,0.2c0.2,0.2,0.3,0.4,0.5,0.8
		C78.7,23.7,78.6,23.7,78.5,23.7z M101,23.5c-0.1,0-0.3-0.1-0.8-0.3c-0.2-0.1-0.4-0.2-0.7-0.3c0.2-0.6,0.4-0.8,0.6-0.8
		s0.5,0.2,0.8,0.6c0.3,0.3,0.4,0.6,0.4,0.7C101.2,23.5,101.1,23.5,101,23.5z"/>
	<path class="st0" d="M110.3,18.2l-0.6-3.3c-0.3,0.7-0.6,1.2-0.8,1.7c-0.2,0.5-0.3,0.8-0.3,1c0,0.1,0,0.4,0.1,0.7
		c0.2,1,0.4,1.8,0.5,2.6c0.1,0.7,0.2,1.4,0.2,2.2c0.1,0.7,0.1,1.3,0.1,1.7c0,0.5-0.1,1.1-0.2,1.9l0.6,0.2c0.4-0.8,0.6-1.4,0.8-1.8
		c0.1-0.5,0.2-1,0.2-1.5c0-0.6,0-1.3-0.1-2C110.6,20.6,110.5,19.5,110.3,18.2z"/>
	<path class="st0" d="M118.3,19.7c-0.6,0-1.1,0.5-1.6,1.4c-0.4,0.9-0.6,1.8-0.6,2.7c0,0.7,0.2,1.2,0.5,1.6c0.4,0.4,0.8,0.6,1.5,0.6
		c0.2,0,0.4,0,0.6-0.1c-0.7,0.9-1.5,1.5-2.2,1.9c-0.6,0.3-1.2,0.5-1.8,0.5c-0.4,0-0.8-0.1-1.2-0.2c-0.4-0.1-1-0.4-1.6-0.9l-0.4,0.5
		c1.3,1,2.2,1.6,2.8,1.9c0.6,0.3,1.2,0.5,1.7,0.5c0.9,0,1.8-0.5,2.7-1.6c0.9-1,1.4-2.1,1.4-3.2v-2.4c0-1-0.2-1.8-0.5-2.4
		C119.2,20.1,118.8,19.7,118.3,19.7z M118.6,23.7c-0.4,0-0.7-0.1-1-0.2c-0.2-0.1-0.4-0.3-0.4-0.6c0-0.2,0.1-0.3,0.2-0.5
		s0.3-0.2,0.5-0.2c0.5,0,0.9,0.5,1.1,1.5C119,23.7,118.6,23.7,118.6,23.7z"/>
	<path class="st0" d="M129.9,19.3c-0.5-1.5-1.2-2.9-2.2-4.2h-1.8c0.8,1.9,1.4,3.5,1.7,4.8c0.3,1.3,0.5,2.7,0.5,4.2
		c0,0.7,0,1.4-0.1,2.1s-0.2,1.4-0.4,2.2c-0.2,0.8-0.4,1.4-0.6,2s-0.6,1.4-1.1,2.5h1.8c1.1-1.6,1.8-3.3,2.3-4.9
		c0.4-1.5,0.6-2.9,0.6-4.2C130.7,22.3,130.4,20.8,129.9,19.3z"/>
</g>
</svg>
