<?xml version="1.0" encoding="utf-8"?>
<!-- Generator: Adobe Illustrator 22.0.1, SVG Export Plug-In . SVG Version: 6.00 Build 0)  -->
<svg version="1.1" id="Layer_1" xmlns="http://www.w3.org/2000/svg" xmlns:xlink="http://www.w3.org/1999/xlink" x="0px" y="0px"
	 viewBox="0 0 185.8 46.1" style="enable-background:new 0 0 185.8 46.1;" xml:space="preserve">
<style type="text/css">
	.st0{fill:none;}
	.st1{fill:#542C0B;}
</style>
<rect class="st0" width="185.8" height="46.1"/>
<path class="st1" d="M34.7,17.8h-1.8c-0.8,1.2-1.5,2.4-2,3.8c-0.6,1.6-0.9,3.3-0.9,5.1c0,1.4,0.2,2.9,0.7,4.5c0.5,1.5,1.2,3,2.2,4.5
	h1.8c-0.5-1.2-0.9-2.1-1.1-2.7c-0.3-1-0.6-2-0.8-3c-0.2-1.1-0.3-2.1-0.3-3.1c0-1.5,0.2-2.9,0.5-4.2S33.8,19.7,34.7,17.8z"/>
<path class="st1" d="M57.5,22.3l-0.7,2.2c0.3,0.4,0.6,0.7,0.6,0.8c0.2,0.3,0.3,0.6,0.4,1.1h-4.2H53h-1.2c-0.3,0-0.7,0-1,0
	s-0.8,0.1-1.2,0.1c0.6-0.3,1.1-0.7,1.4-1.2c0.3-0.5,0.4-1.1,0.4-1.8c0-0.5-0.1-1-0.3-1.6S50.6,21,50.3,21c-0.4,0-0.8,0.4-1.3,1.1
	c-0.5,0.8-1.1,2.2-1.8,4c-0.2,0-0.4,0.1-0.8,0.2c-0.3,0.1-0.7,0.1-1,0.1H45h-0.6h-0.6c-0.3,0-0.5-0.2-0.6-0.6
	c-0.2-0.5-0.3-1.4-0.3-2.7v-1.8c0-0.9-0.1-1.6-0.3-2.2c-0.1-0.5-0.4-1-0.8-1.5l-1,2.3c0.3,0.3,0.5,0.5,0.6,0.7
	c0.2,0.3,0.3,0.8,0.3,1.4v2.6c0,1.6,0.2,2.7,0.5,3.3c0.3,0.6,0.8,0.9,1.6,0.9h0.6H45h1.5c0,1.3,0.3,2.4,0.9,3.3
	c0.6,0.9,1.4,1.4,2.2,1.4c0.3,0,0.6-0.1,0.9-0.4c0.2-0.3,0.5-0.8,0.7-1.6c0.1-0.4,0.2-0.7,0.3-0.8c0.1-0.3,0.1-0.5,0.1-0.8
	s-0.1-0.5-0.3-0.6s-0.4-0.3-0.7-0.4c0.3,0,0.5,0,0.7,0c0.1,0,0.3,0,0.4,0h1.2h0.6h5.2v-2.4c0-1.1-0.1-2-0.3-2.6
	C58.3,23.4,58,22.8,57.5,22.3z M48.7,24.3c0.2-0.3,0.4-0.5,0.6-0.5c0.1,0,0.2,0.1,0.4,0.4c0.1,0.2,0.2,0.4,0.2,0.6s-0.1,0.4-0.4,0.6
	c-0.3,0.2-0.8,0.4-1.5,0.6C48.2,25.2,48.5,24.6,48.7,24.3z M49.9,31.1c-0.5,0-1.1-0.2-1.5-0.6s-0.8-0.9-0.9-1.4
	c0.9,0.2,1.6,0.5,2.1,0.8c0.4,0.3,0.6,0.6,0.6,1C50.2,31,50.1,31.1,49.9,31.1z"/>
<polygon class="st1" points="56.3,20.1 57.6,20.9 58.6,19 56.9,18.1 56.1,19.6 54.7,18.9 53.8,20.7 55.5,21.6 "/>
<path class="st1" d="M61.7,20.9l-0.6-3.3c-0.3,0.7-0.6,1.2-0.8,1.7s-0.3,0.8-0.3,1c0,0.1,0,0.4,0.1,0.7c0.2,1,0.4,1.8,0.5,2.6
	c0.1,0.7,0.2,1.4,0.2,2.2s0.1,1.3,0.1,1.7c0,0.5-0.1,1.1-0.2,1.9l0.6,0.2c0.4-0.8,0.6-1.4,0.8-1.8c0.1-0.5,0.2-1,0.2-1.5
	c0-0.6,0-1.3-0.1-2C62,23.3,61.9,22.2,61.7,20.9z"/>
<path class="st1" d="M79.2,25c-0.7-0.7-1.2-1.3-1.6-1.6c-0.5-0.4-0.9-0.8-1.3-1s-0.8-0.3-1.2-0.3c-0.5,0-1,0.2-1.4,0.6
	s-0.8,0.9-1.1,1.7c0.3-0.1,0.4-0.1,0.6-0.1s0.3,0,0.4,0c0.5,0,1.1,0.2,1.7,0.5s1.3,0.9,2.1,1.7h-5.9V26c0-1-0.2-1.8-0.5-2.4
	s-0.8-1-1.3-1c-0.6,0-1.1,0.5-1.6,1.4c-0.4,0.9-0.6,1.8-0.6,2.7c0,0.7,0.2,1.2,0.5,1.6c0.4,0.4,0.8,0.6,1.5,0.6c0.2,0,0.4,0,0.6-0.1
	c-0.7,0.9-1.5,1.5-2.2,1.9c-0.6,0.3-1.2,0.5-1.8,0.5c-0.4,0-0.8-0.1-1.2-0.2c-0.4-0.1-1-0.4-1.6-0.9l-0.4,0.5c1.3,1,2.2,1.6,2.8,1.9
	c0.6,0.3,1.2,0.5,1.7,0.5c0.9,0,1.8-0.5,2.7-1.6c0.7-0.8,1.1-1.7,1.3-2.5h10v-2.5c-0.5-0.1-0.9-0.2-1.1-0.4S79.7,25.5,79.2,25z
	 M70,26.4c-0.4,0-0.7-0.1-1-0.2c-0.2-0.1-0.4-0.3-0.4-0.6c0-0.2,0.1-0.3,0.2-0.5s0.3-0.2,0.5-0.2c0.5,0,0.9,0.5,1.1,1.5
	C70.4,26.4,70,26.4,70,26.4z"/>
<polygon class="st1" points="77.6,19 75.5,17.9 74.4,20 76.5,21.1 "/>
<path class="st1" d="M84.6,16.9c0.1-0.1,0.2-0.2,0.2-0.4c-0.4,0.1-0.6,0.1-0.7,0.1s-0.3-0.1-0.6-0.3s-0.4-0.3-0.4-0.4
	c0.1-0.1,0.1-0.1,0.2-0.1c0.1-0.1,0.2-0.1,0.3-0.1s0.3,0.1,0.6,0.2c0.1-0.1,0.1-0.2,0.2-0.3c0-0.1,0-0.2,0-0.3s0-0.2-0.1-0.3
	c0,0-0.1,0-0.3,0c-0.4,0-0.8,0.3-1.2,0.8c-0.1,0.1-0.1,0.2-0.2,0.3c0,0.1-0.1,0.2-0.1,0.3c0,0.1,0,0.2,0.1,0.3
	c0.1,0.1,0.2,0.2,0.4,0.3c-0.2,0.1-0.4,0.1-0.5,0.2s-0.2,0.2-0.3,0.5l2-0.6C84.4,17,84.5,16.9,84.6,16.9z"/>
<path class="st1" d="M84.3,20.9l-0.6-3.3c-0.3,0.7-0.6,1.2-0.8,1.7c-0.2,0.5-0.3,0.8-0.3,1c0,0.1,0,0.4,0.1,0.7
	c0.2,1,0.4,1.8,0.5,2.6c0.1,0.7,0.2,1.4,0.2,2.2s0.1,1.3,0.1,1.7c0,0.5-0.1,1.1-0.2,1.9l0.6,0.2c0.4-0.8,0.6-1.4,0.8-1.8
	c0.1-0.5,0.2-1,0.2-1.5c0-0.6,0-1.3-0.1-2C84.7,23.3,84.5,22.2,84.3,20.9z"/>
<path class="st1" d="M92.3,22.4c-0.6,0-1.1,0.5-1.6,1.4c-0.4,0.9-0.6,1.8-0.6,2.7c0,0.7,0.2,1.2,0.5,1.6c0.4,0.4,0.8,0.6,1.5,0.6
	c0.2,0,0.4,0,0.6-0.1c-0.7,0.9-1.5,1.5-2.2,1.9c-0.6,0.3-1.2,0.5-1.8,0.5c-0.4,0-0.8-0.1-1.2-0.2c-0.4-0.1-1-0.4-1.6-0.9l-0.4,0.5
	c1.3,1,2.2,1.6,2.8,1.9C89,32.8,89.5,33,90,33c0.9,0,1.8-0.5,2.7-1.6c0.9-1,1.4-2.1,1.4-3.2v-2.4c0-1-0.2-1.8-0.5-2.4
	S92.8,22.4,92.3,22.4z M92.6,26.4c-0.4,0-0.7-0.1-1-0.2c-0.2-0.1-0.4-0.3-0.4-0.6c0-0.2,0.1-0.3,0.2-0.5s0.3-0.2,0.5-0.2
	c0.5,0,0.9,0.5,1.1,1.5C93,26.4,92.6,26.4,92.6,26.4z"/>
<path class="st1" d="M103.7,20.1L103,23c0.5,0.3,0.9,0.7,1.2,1.2c0.4,0.5,0.6,1.3,0.7,2.2h-3.2c-0.2,0-0.4,0-0.6-0.1
	s-0.3-0.3-0.3-0.5h-0.4c-0.1,0.3-0.1,0.6-0.1,1c0,0.3,0,0.6,0,0.9c0,0.5,0.1,0.8,0.4,1c0.2,0.2,0.5,0.3,0.9,0.3h4.2v-3
	c0-1.4-0.2-2.6-0.5-3.5C105.1,21.5,104.5,20.7,103.7,20.1z"/>
<path class="st1" d="M114,22.3c-0.4-0.4-0.7-0.7-0.7-0.7c0-0.1,0.3-0.3,0.8-0.5c0.4-0.1,0.8-0.3,1.4-0.5c0.5-0.2,0.7-0.2,0.8-0.2
	v-2.2c-0.8,0.3-1.3,0.5-1.6,0.6c-0.5,0.2-1,0.4-1.3,0.6c-0.4,0.2-0.8,0.4-1.2,0.7c-0.4,0.3-0.7,0.6-0.8,1c-0.1,0.3-0.1,0.7-0.1,1.3
	c0,0.5,0.2,0.9,0.5,1.2c0.1,0.1,0.4,0.4,1,1l0.3-0.3c0.3,0.3,0.7,0.5,1,0.8c0.3,0.2,0.6,0.5,0.8,0.6c0.2,0.2,0.5,0.5,0.7,0.8h-5.4
	h-0.6H109c-0.3,0-0.5-0.2-0.6-0.6c-0.2-0.5-0.3-1.4-0.3-2.7v-1.8c0-0.9-0.1-1.6-0.3-2.2c-0.1-0.5-0.4-1-0.8-1.5l-1,2.3
	c0.3,0.3,0.5,0.5,0.6,0.7c0.2,0.3,0.3,0.8,0.3,1.4v2.6c0,1.6,0.2,2.7,0.5,3.3c0.3,0.6,0.8,0.9,1.6,0.9h0.6h0.6h6.8v-2.6
	c-0.4-0.8-1-1.6-1.6-2.4C115.1,23.5,114.6,22.9,114,22.3z"/>
<path class="st1" d="M140.4,23.2l-0.8,1.1c-0.1,0.2-0.2,0.3-0.2,0.3c0,0.1-0.1,0.2-0.1,0.4c0,0.1,0.1,0.3,0.2,0.7
	c0.2,0.3,0.2,0.6,0.2,0.8c-0.3,0-0.6-0.1-0.9-0.2c-0.3-0.1-0.5-0.2-0.8-0.3c0.1-0.6,0.1-1,0.1-1.4c0-0.1,0-0.2,0-0.4
	c0-0.2,0-0.4,0-0.5l-0.4,0.3c-0.2,0.1-0.3,0.2-0.3,0.3c-0.1,0.1-0.1,0.3-0.1,0.4c0,0.7-0.2,1.2-0.6,1.4c-0.3,0.2-0.9,0.3-1.6,0.3
	H134c-0.3,0-0.5-0.1-0.7-0.3s-0.3-0.5-0.3-0.8s0-0.6,0-0.8c0-0.3,0-0.5,0-0.7l-0.6-0.1c0,1-0.3,1.7-0.8,2.2c-0.4,0.4-1,0.5-1.6,0.5
	h-0.7c-0.7-1-1.3-1.8-1.8-2.2s-1-0.7-1.4-0.7c-0.5,0-0.9,0.3-1.3,0.8s-0.7,1.2-1,2.2l0.4,0.2c0.3-0.4,0.6-0.7,0.7-0.8
	c0.1-0.1,0.3-0.2,0.5-0.2c0.4,0,0.8,0.3,1.3,1c-1,0.1-1.8,0.3-2.3,0.4c-0.5,0.2-0.8,0.4-1,0.7c-0.2,0.3-0.3,0.6-0.4,0.9
	c-0.2,0.4-0.2,0.8-0.2,1.1c0,0.2,0.1,0.6,0.3,1.2c0.3,1,0.5,1.7,0.6,2c0.2,0.9,0.4,1.8,0.5,2.6c0.2-0.3,0.4-0.6,0.5-0.9
	c0.1-0.3,0.1-0.6,0.1-1c0-0.6-0.1-1.2-0.3-1.8c-0.2-0.6-0.4-1.3-0.6-2.1c0-0.2,0.4-0.5,1.3-0.7s1.9-0.3,3-0.3h0.6l0,0h1.3
	c0.5,0,0.9-0.1,1.3-0.3c0.4-0.2,0.8-0.6,1.1-1.1c0.2,0.5,0.4,0.9,0.7,1.1c0.2,0.2,0.6,0.3,1,0.3h1.5c0.6,0,1,0,1.3-0.1
	s0.6-0.2,1-0.5c0.4,0.2,0.9,0.4,1.4,0.5s1,0.1,1.7,0.1v-3.5c0-0.5,0-0.9-0.1-1.2C140.7,23.9,140.5,23.5,140.4,23.2z"/>
<path class="st1" d="M143.8,20.9l-0.6-3.3c-0.3,0.7-0.6,1.2-0.8,1.7s-0.3,0.8-0.3,1c0,0.1,0,0.4,0.1,0.7c0.2,1,0.4,1.8,0.5,2.6
	c0.1,0.7,0.2,1.4,0.2,2.2s0.1,1.3,0.1,1.7c0,0.5-0.1,1.1-0.2,1.9l0.6,0.2c0.4-0.8,0.6-1.4,0.8-1.8c0.1-0.5,0.2-1,0.2-1.5
	c0-0.6,0-1.3-0.1-2C144.1,23.3,144,22.2,143.8,20.9z"/>
<path class="st1" d="M154.8,22c-0.5-1.5-1.2-2.9-2.2-4.2h-1.8c0.8,1.9,1.4,3.5,1.7,4.8s0.5,2.7,0.5,4.2c0,0.7,0,1.4-0.1,2.1
	s-0.2,1.4-0.4,2.2c-0.2,0.8-0.4,1.4-0.6,2s-0.6,1.4-1.1,2.5h1.8c1.1-1.6,1.8-3.3,2.3-4.9c0.4-1.5,0.6-2.9,0.6-4.2
	C155.6,25,155.3,23.5,154.8,22z"/>
</svg>
