<?xml version="1.0" encoding="utf-8"?>
<!-- Generator: Adobe Illustrator 22.0.1, SVG Export Plug-In . SVG Version: 6.00 Build 0)  -->
<svg version="1.1" id="Layer_1" xmlns="http://www.w3.org/2000/svg" xmlns:xlink="http://www.w3.org/1999/xlink" x="0px" y="0px"
	 viewBox="0 0 202.9 44.7" style="enable-background:new 0 0 202.9 44.7;" xml:space="preserve">
<style type="text/css">
	.st0{fill:#BA0017;}
</style>
<g>
	<path d="M18.8,14c0,0.3-0.2,0.6-0.5,0.9c-0.6,0.2-1.5,0.6-2.8,1.1c0-0.3,0.1-0.6,0.4-0.8C16.4,14.9,17.4,14.5,18.8,14z"/>
	<path d="M33.7,25.5H22.1c-0.2,1.4-0.7,2.4-1.4,3c-0.9,0.8-2.3,1.3-4.2,1.3c-1.3,0-2.3-0.2-3-0.7c-0.8-0.5-1.1-1.3-1.1-2.3
		c0-0.6,0.1-1.1,0.2-1.7s0.3-1.1,0.6-1.7c0.1-0.4,0.4-0.9,0.7-1.6l0.4,0.2c-0.5,0.9-0.8,1.7-0.9,2.2s-0.2,1-0.2,1.5
		c0,0.8,0.3,1.4,0.9,1.8s1.4,0.6,2.5,0.6c1.3,0,2.4-0.2,3.3-0.7c1.2-0.5,1.8-1.3,1.8-2.3c0-0.7-0.1-1.3-0.4-1.9
		c-0.2-0.5-0.5-0.9-0.8-1.3l0.8-2c0.3,0.5,0.5,1,0.7,1.4c0.2,0.6,0.2,1.4,0.2,2.4h0.2c0.8,0,1.5-0.1,2.2-0.4c0.6-0.2,1.2-0.6,1.8-1
		c1-0.7,1.5-1.1,1.7-1.2c0.5-0.3,1-0.6,1.4-0.7c0.5-0.2,1-0.2,1.6-0.2c0.9,0,1.6,0.3,2,0.8c0.4,0.5,0.6,1.1,0.6,2V25.5z M27.2,17.4
		l-0.7,1.4L24.9,18l0.7-1.4L27.2,17.4z M32.1,23.1c0-0.3-0.2-0.6-0.6-0.7s-0.9-0.3-1.4-0.3c-0.5,0-1,0.1-1.6,0.3
		c-0.4,0.1-0.9,0.4-1.6,0.7c-0.5,0.2-0.9,0.5-1.4,0.7h4.5c0.6,0,1.1-0.1,1.5-0.2S32.1,23.3,32.1,23.1z"/>
	<path d="M40.8,32.1c0,0.3-0.2,0.6-0.5,0.9c-0.6,0.2-1.5,0.6-2.8,1.1c0-0.3,0.1-0.5,0.4-0.8C38.5,33.1,39.4,32.7,40.8,32.1z"/>
	<path d="M43.5,25.5c0,0.7-0.3,1.5-0.9,2.2c-0.5,0.7-1.2,1.3-2,1.7c-0.8,0.5-1.4,0.7-1.9,0.7c-0.4,0-0.9-0.1-1.5-0.2
		c-0.4-0.1-0.9-0.3-1.4-0.5c-0.5-0.2-0.9-0.4-1.4-0.5l0.2-0.4c0.4,0.1,0.9,0.2,1.3,0.3s0.9,0.1,1.3,0.1c0.8,0,1.7-0.3,2.6-0.8
		c0.8-0.5,1.5-1.1,2.1-1.9s0.9-1.4,0.9-2c0-0.5-0.1-1.1-0.4-1.6c-0.2-0.5-0.6-0.9-1-1.4l0.6-1.5c0.5,0.5,0.9,1,1.2,1.5
		c0.3,0.6,0.4,1.2,0.4,1.9V25.5z"/>
	<path d="M49.3,14.5c0,0.4-0.1,0.8-0.4,1.1s-0.7,0.5-1.1,0.5c-0.4,0-0.6-0.1-0.8-0.3c-0.2-0.2-0.3-0.5-0.3-0.8
		c0-0.5,0.1-0.9,0.4-1.3s0.6-0.6,1-0.6c0.4,0,0.6,0.1,0.9,0.4S49.3,14.1,49.3,14.5z M48.7,14.8c0-0.2-0.1-0.4-0.4-0.6
		s-0.5-0.3-0.6-0.3c-0.2,0-0.3,0.1-0.4,0.2s-0.2,0.3-0.2,0.5c0,0.2,0.1,0.4,0.3,0.5c0.2,0.1,0.4,0.1,0.7,0.1c0.2,0,0.3,0,0.4-0.1
		S48.7,14.9,48.7,14.8z"/>
	<path d="M51.4,25.5h-1.4c-0.4,0-0.9-0.1-1.3-0.3c-0.5-0.2-0.9-0.6-1.1-1c-0.4,0.4-0.9,0.7-1.5,0.9c-0.7,0.3-1.5,0.4-2.3,0.4h-0.9
		v-1.7h0.9c0.5,0,1.1-0.1,1.5-0.2c0.5-0.1,1.1-0.4,1.6-0.7l-0.4-0.5c-0.2-0.2-0.4-0.4-0.7-0.4c-0.1,0-0.2,0-0.3,0.1
		s-0.2,0.1-0.3,0.3h-0.2v-0.6c0-0.7,0.2-1.2,0.6-1.5c0.3-0.2,0.9-0.4,1.8-0.4c0.7,0,1.3,0.1,1.8,0.3c0.6,0.3,0.9,0.6,0.9,1.2
		c0,0.3-0.1,0.6-0.4,0.9c-0.2,0.2-0.5,0.5-1,0.9c0.1,0.2,0.3,0.3,0.6,0.4s0.5,0.2,0.7,0.2h1.4V25.5z"/>
	<path d="M56.9,14c0,0.3-0.2,0.6-0.5,0.9c-0.6,0.2-1.5,0.6-2.8,1.1c0-0.3,0.1-0.6,0.4-0.8C54.6,14.9,55.5,14.5,56.9,14z"/>
	<path d="M59.3,25.5h-1c-0.4,0-0.9-0.1-1.5-0.3c-0.6-0.2-1.2-0.5-1.7-0.9c-0.4,0.5-0.8,0.8-1.2,1s-1,0.3-1.7,0.3h-1.5v-1.7h1.5
		c0.6,0,1.1-0.1,1.6-0.4c0.4-0.2,0.7-0.6,1-1c0.4-0.6,0.9-1.1,1.5-1.5c0.5-0.4,1-0.6,1.4-0.7c0.4,0.7,0.8,1.3,1.1,1.8
		c0.4,0.7,0.5,1.3,0.5,1.8V25.5z M58.1,23.6c-0.1-0.4-0.2-0.7-0.4-1.1c-0.1-0.3-0.3-0.6-0.6-0.9c-0.3,0.1-0.6,0.2-0.8,0.4
		c-0.1,0.1-0.3,0.4-0.5,0.7c0.2,0.3,0.6,0.5,1,0.7s0.8,0.3,1.2,0.4L58.1,23.6z"/>
	<path d="M63.4,25.5h-4.8v-1.7h3.8l-1.2-8.3l-0.5-0.2c0-0.4,0-0.9,0.1-1.3s0.2-0.8,0.4-1.1l0.1,0.1c0,0.4,0.2,0.7,0.6,0.8
		c0.3,0.1,0.7,0.3,1,0.4c0,0.3,0,0.7-0.1,1s-0.1,0.6-0.2,0.8L62.3,16l1.2,7.7V25.5z"/>
	<path d="M66.7,23.1c0,0.5-0.1,1-0.3,1.5c-0.1,0.3-0.3,0.7-0.6,1.2l-0.2-0.1c0-0.2,0-0.4,0.1-0.7s0-0.4,0-0.5c0-0.7-0.1-1.6-0.2-2.8
		s-0.2-2.5-0.4-3.8c-0.1-0.8-0.2-1.6-0.3-2.5c0.1-0.3,0.3-0.6,0.4-0.9s0.3-0.6,0.5-0.9c0.1,0.7,0.2,1.8,0.4,3s0.3,2.5,0.4,3.5
		C66.6,21.4,66.7,22.4,66.7,23.1z"/>
	<path class="st0" d="M79.2,14.7c0,0.1,0,0.2,0,0.3s0,0.2-0.1,0.4l-0.8-0.5c-0.3,0.4-0.5,0.6-0.7,0.7c-0.5,0.5-0.9,0.7-1.2,0.7h-0.7
		c0.3-0.2,0.7-0.4,1.2-0.8c0.4-0.3,0.7-0.6,0.9-0.9c-0.2-0.1-0.4-0.3-0.5-0.4c-0.1-0.2-0.2-0.4-0.2-0.6c0-0.4,0.1-0.8,0.4-1.1
		s0.5-0.5,0.8-0.5c0.2,0,0.3,0.1,0.5,0.3s0.2,0.4,0.2,0.7c0,0.1,0,0.3-0.1,0.4s-0.1,0.4-0.2,0.7c0.1,0.1,0.2,0.2,0.3,0.3
		C79.1,14.4,79.2,14.5,79.2,14.7z M78.5,13.6c0-0.2-0.1-0.3-0.2-0.5s-0.2-0.2-0.4-0.2c-0.1,0-0.1,0-0.2,0.1s-0.1,0.1-0.1,0.1
		c0,0.1,0.1,0.3,0.2,0.4l0.4,0.3C78.4,13.7,78.5,13.6,78.5,13.6z"/>
	<path class="st0" d="M82.9,25.5c0,0.7-0.3,1.5-0.9,2.2c-0.5,0.7-1.2,1.3-2,1.7c-0.8,0.5-1.4,0.7-1.9,0.7c-0.4,0-0.9-0.1-1.5-0.2
		c-0.4-0.1-0.9-0.3-1.4-0.5c-0.5-0.2-0.9-0.4-1.4-0.5l0.2-0.4c0.4,0.1,0.9,0.2,1.3,0.3s0.9,0.1,1.3,0.1c0.8,0,1.7-0.3,2.6-0.8
		c0.8-0.5,1.5-1.1,2.1-1.9s0.9-1.4,0.9-2c0-0.5-0.1-1.1-0.4-1.6c-0.2-0.5-0.6-0.9-1-1.4l0.6-1.5c0.5,0.5,0.9,1,1.2,1.5
		c0.3,0.6,0.4,1.2,0.4,1.9V25.5z"/>
	<path class="st0" d="M87.7,14.5c0,0.4-0.1,0.8-0.4,1.1s-0.7,0.5-1.1,0.5c-0.4,0-0.6-0.1-0.8-0.3c-0.2-0.2-0.3-0.5-0.3-0.8
		c0-0.5,0.1-0.9,0.4-1.3s0.6-0.6,1-0.6c0.4,0,0.6,0.1,0.9,0.4S87.7,14.1,87.7,14.5z M87.1,14.8c0-0.2-0.1-0.4-0.4-0.6
		s-0.5-0.3-0.6-0.3c-0.2,0-0.3,0.1-0.4,0.2s-0.2,0.3-0.2,0.5c0,0.2,0.1,0.4,0.3,0.5c0.2,0.1,0.4,0.1,0.7,0.1c0.2,0,0.3,0,0.4-0.1
		S87.1,14.9,87.1,14.8z"/>
	<path class="st0" d="M87.8,25.5h-5.6v-1.7H87c0-0.8-0.1-1.4-0.3-1.8c-0.1-0.3-0.4-0.7-0.9-1.2l0.8-1.6c0.5,0.6,0.8,1.1,0.9,1.4
		c0.2,0.5,0.3,1.3,0.3,2.5V25.5z M85.5,28.4l-0.7,1.4L83.1,29l0.7-1.4L85.5,28.4z M87.7,27.5l-0.8,1.4l-1.6-0.8l0.7-1.4L87.7,27.5z"
		/>
	<path class="st0" d="M94.9,32.1c0,0.3-0.2,0.6-0.5,0.9c-0.6,0.2-1.5,0.6-2.8,1.1c0-0.3,0.1-0.5,0.4-0.8
		C92.5,33.1,93.5,32.7,94.9,32.1z"/>
	<path class="st0" d="M97.5,25.5c0,0.7-0.3,1.5-0.9,2.2c-0.5,0.7-1.2,1.3-2,1.7c-0.8,0.5-1.4,0.7-1.9,0.7c-0.4,0-0.9-0.1-1.5-0.2
		c-0.4-0.1-0.9-0.3-1.4-0.5c-0.5-0.2-0.9-0.4-1.4-0.5l0.2-0.4c0.4,0.1,0.9,0.2,1.3,0.3s0.9,0.1,1.3,0.1c0.8,0,1.7-0.3,2.6-0.8
		c0.8-0.5,1.5-1.1,2.1-1.9s0.9-1.4,0.9-2c0-0.5-0.1-1.1-0.4-1.6c-0.2-0.5-0.6-0.9-1-1.4l0.6-1.5c0.5,0.5,0.9,1,1.2,1.5
		c0.3,0.6,0.4,1.2,0.4,1.9V25.5z M96.1,16.5l-0.8,1.4L93.7,17l0.7-1.4L96.1,16.5z"/>
	<path class="st0" d="M105.8,14c0,0.3-0.2,0.6-0.5,0.9c-0.6,0.2-1.5,0.6-2.8,1.1c0-0.3,0.1-0.6,0.4-0.8
		C103.4,14.9,104.4,14.5,105.8,14z"/>
	<path class="st0" d="M106.2,25c0,1.1-0.4,2.1-1.2,3.2c-0.9,1.2-1.9,1.8-3.1,1.8c-0.4,0-0.9,0-1.3-0.1c-0.3-0.1-0.8-0.2-1.3-0.4
		c-0.4-0.1-0.8-0.3-1.3-0.4l0.2-0.3c0.4,0.1,0.7,0.2,1.1,0.3s0.8,0.1,1.1,0.1c0.8,0,1.5-0.2,2.3-0.6c0.6-0.3,1.1-0.8,1.7-1.4
		c0.3-0.3,0.7-0.8,1.2-1.5c-0.9,0-1.5-0.1-2-0.4c-0.5-0.3-0.7-0.8-0.7-1.6c0-0.7,0.2-1.3,0.5-1.9c0.4-0.7,0.8-1,1.4-1
		c0.6,0,1,0.3,1.2,1c0.2,0.5,0.3,1.2,0.3,2.1V25z M105.6,23.9c-0.1-0.6-0.3-1.1-0.5-1.3c-0.2-0.2-0.4-0.3-0.6-0.3
		c-0.2,0-0.3,0.1-0.5,0.2s-0.2,0.3-0.2,0.5c0,0.3,0.1,0.6,0.4,0.7S104.9,23.9,105.6,23.9z"/>
	<path class="st0" d="M110.3,25.5h-4.8v-1.7h3.8l-1.2-8.3l-0.5-0.2c0-0.4,0-0.9,0.1-1.3s0.2-0.8,0.4-1.1l0.1,0.1
		c0,0.4,0.2,0.7,0.6,0.8c0.3,0.1,0.7,0.3,1,0.4c0,0.3,0,0.7-0.1,1s-0.1,0.6-0.2,0.8l-0.5-0.2l1.2,7.7V25.5z"/>
	<path class="st0" d="M113.6,23.1c0,0.5-0.1,1-0.3,1.5c-0.1,0.3-0.3,0.7-0.6,1.2l-0.2-0.1c0-0.2,0-0.4,0.1-0.7s0-0.4,0-0.5
		c0-0.7-0.1-1.6-0.2-2.8s-0.2-2.5-0.4-3.8c-0.1-0.8-0.2-1.6-0.3-2.5c0.1-0.3,0.3-0.6,0.4-0.9s0.3-0.6,0.5-0.9c0.1,0.7,0.2,1.8,0.4,3
		s0.3,2.5,0.4,3.5C113.6,21.4,113.6,22.4,113.6,23.1z"/>
	<path d="M123.1,25c0,1.1-0.4,2.1-1.2,3.2c-0.9,1.2-1.9,1.8-3.1,1.8c-0.4,0-0.9,0-1.3-0.1c-0.3-0.1-0.8-0.2-1.3-0.4
		c-0.4-0.1-0.8-0.3-1.3-0.4l0.2-0.3c0.4,0.1,0.7,0.2,1.1,0.3s0.8,0.1,1.1,0.1c0.8,0,1.5-0.2,2.3-0.6c0.6-0.3,1.1-0.8,1.7-1.4
		c0.3-0.3,0.7-0.8,1.2-1.5c-0.9,0-1.5-0.1-2-0.4c-0.5-0.3-0.7-0.8-0.7-1.6c0-0.7,0.2-1.3,0.5-1.9c0.4-0.7,0.8-1,1.4-1
		c0.6,0,1,0.3,1.2,1c0.2,0.5,0.3,1.2,0.3,2.1V25z M122.5,23.9c-0.1-0.6-0.3-1.1-0.5-1.3c-0.2-0.2-0.4-0.3-0.6-0.3
		c-0.2,0-0.3,0.1-0.5,0.2s-0.2,0.3-0.2,0.5c0,0.3,0.1,0.6,0.4,0.7S121.8,23.9,122.5,23.9z"/>
	<path d="M134.3,14.7c0,0.1,0,0.2,0,0.3s0,0.2-0.1,0.4l-0.8-0.5c-0.3,0.4-0.5,0.6-0.7,0.7c-0.5,0.5-0.9,0.7-1.2,0.7h-0.7
		c0.3-0.2,0.7-0.4,1.2-0.8c0.4-0.3,0.7-0.6,0.9-0.9c-0.2-0.1-0.4-0.3-0.5-0.4c-0.1-0.2-0.2-0.4-0.2-0.6c0-0.4,0.1-0.8,0.4-1.1
		s0.5-0.5,0.8-0.5c0.2,0,0.3,0.1,0.5,0.3s0.2,0.4,0.2,0.7c0,0.1,0,0.3-0.1,0.4s-0.1,0.4-0.2,0.7c0.1,0.1,0.2,0.2,0.3,0.3
		C134.2,14.4,134.3,14.5,134.3,14.7z M133.5,13.6c0-0.2-0.1-0.3-0.2-0.5s-0.2-0.2-0.4-0.2c-0.1,0-0.1,0-0.2,0.1s-0.1,0.1-0.1,0.1
		c0,0.1,0.1,0.3,0.2,0.4l0.4,0.3C133.5,13.7,133.5,13.6,133.5,13.6z"/>
	<path d="M140.7,25.5h-7.2c-1.6,0-2.7-0.2-3.3-0.6c-0.7-0.4-1.1-1.1-1.1-2c0-0.6,0.2-1.2,0.5-2c0.1-0.2,0.3-0.6,0.5-1.1l0.3,0.2
		c-0.2,0.5-0.4,0.9-0.4,1.2s-0.1,0.5-0.1,0.8c0,0.7,0.4,1.2,1.1,1.5c0.6,0.2,1.4,0.3,2.5,0.3h6.2l-1.2-8.3l-0.5-0.2
		c0-0.4,0-0.9,0.1-1.3s0.2-0.8,0.4-1.1l0.1,0.1c0,0.4,0.2,0.7,0.7,0.8l1.1,0.4c0,0.3,0,0.6-0.1,1s-0.2,0.7-0.2,0.9l-0.5-0.2l1.2,7.7
		V25.5z M137.1,19.6c0,0.7-0.2,1.3-0.7,1.7s-1.1,0.6-2,0.6c-0.4,0-0.8-0.1-1.3-0.2c-0.3-0.1-0.7-0.2-1.3-0.4l0.2-0.2
		c0.2,0,0.3,0,0.6,0c0.5,0,0.8,0.1,1,0.1c0.7,0,1.4-0.1,1.9-0.3s0.8-0.5,0.8-0.8c0-0.1-0.1-0.3-0.2-0.4s-0.2-0.1-0.4-0.1
		c-0.2,0-0.3,0-0.4,0l-0.7,0c-0.2,0-0.3,0-0.4-0.1s-0.2-0.2-0.2-0.4c0-0.5,0.3-1.2,0.9-2s1.2-1.2,1.8-1.5l-0.2,1.3
		c-0.4,0.1-0.8,0.3-1,0.4c-0.4,0.2-0.6,0.5-0.6,0.8c0,0.1,0.1,0.2,0.2,0.2s0.2,0.1,0.4,0.1c0.1,0,0.2,0,0.3,0l0.5-0.1
		c0.3,0,0.6,0.1,0.7,0.3S137.1,19.1,137.1,19.6z"/>
	<path d="M144.6,27.3c0,0.3-0.2,0.6-0.5,0.9c-0.6,0.2-1.5,0.6-2.8,1.1c0-0.3,0.1-0.5,0.4-0.8C142.2,28.3,143.2,27.9,144.6,27.3z"/>
	<path d="M144.8,25.5H140v-1.7h3.8l-1.2-8.3l-0.5-0.2c0-0.4,0-0.9,0.1-1.3s0.2-0.8,0.4-1.1l0.1,0.1c0,0.4,0.2,0.7,0.6,0.8
		c0.3,0.1,0.7,0.3,1,0.4c0,0.3,0,0.7-0.1,1s-0.1,0.6-0.2,0.8l-0.5-0.2l1.2,7.7V25.5z"/>
	<path d="M150.4,14c0,0.3-0.2,0.6-0.5,0.9c-0.6,0.2-1.5,0.6-2.8,1.1c0-0.3,0.1-0.6,0.4-0.8C148,14.9,149,14.5,150.4,14z"/>
	<path d="M152.7,25.5h-1c-0.4,0-0.9-0.1-1.5-0.3c-0.6-0.2-1.2-0.5-1.7-0.9c-0.4,0.5-0.8,0.8-1.2,1s-1,0.3-1.7,0.3h-1.5v-1.7h1.5
		c0.6,0,1.1-0.1,1.6-0.4c0.4-0.2,0.7-0.6,1-1c0.4-0.6,0.9-1.1,1.5-1.5c0.5-0.4,1-0.6,1.4-0.7c0.4,0.7,0.8,1.3,1.1,1.8
		c0.4,0.7,0.5,1.3,0.5,1.8V25.5z M151.6,23.6c-0.1-0.4-0.2-0.7-0.4-1.1c-0.1-0.3-0.3-0.6-0.6-0.9c-0.3,0.1-0.6,0.2-0.8,0.4
		c-0.1,0.1-0.3,0.4-0.5,0.7c0.2,0.3,0.6,0.5,1,0.7s0.8,0.3,1.2,0.4L151.6,23.6z"/>
	<path d="M156.8,25.5H152v-1.7h3.8l-1.2-8.3l-0.5-0.2c0-0.4,0-0.9,0.1-1.3s0.2-0.8,0.4-1.1l0.1,0.1c0,0.4,0.2,0.7,0.6,0.8
		c0.3,0.1,0.7,0.3,1,0.4c0,0.3,0,0.7-0.1,1s-0.1,0.6-0.2,0.8l-0.5-0.2l1.2,7.7V25.5z"/>
	<path d="M160.1,23.1c0,0.5-0.1,1-0.3,1.5c-0.1,0.3-0.3,0.7-0.6,1.2l-0.2-0.1c0-0.2,0-0.4,0.1-0.7s0-0.4,0-0.5
		c0-0.7-0.1-1.6-0.2-2.8s-0.2-2.5-0.4-3.8c-0.1-0.8-0.2-1.6-0.3-2.5c0.1-0.3,0.3-0.6,0.4-0.9s0.3-0.6,0.5-0.9c0.1,0.7,0.2,1.8,0.4,3
		s0.3,2.5,0.4,3.5C160.1,21.4,160.1,22.4,160.1,23.1z"/>
	<path d="M173.1,14c0,0.3-0.2,0.6-0.5,0.9c-0.6,0.2-1.5,0.6-2.8,1.1c0-0.3,0.1-0.6,0.4-0.8C170.7,14.9,171.7,14.5,173.1,14z"/>
	<path d="M176.3,25.5c0,0.7-0.3,1.5-0.9,2.2c-0.5,0.7-1.2,1.3-2,1.7c-0.8,0.5-1.4,0.7-1.9,0.7c-0.4,0-0.9-0.1-1.5-0.2
		c-0.4-0.1-0.9-0.3-1.4-0.5c-0.5-0.2-0.9-0.4-1.4-0.5l0.2-0.4c0.4,0.1,0.9,0.2,1.3,0.3s0.9,0.1,1.3,0.1c0.8,0,1.7-0.3,2.6-0.8
		c0.8-0.5,1.5-1.1,2.1-1.9s0.9-1.4,0.9-2c0-0.5-0.1-1.1-0.4-1.6c-0.2-0.5-0.6-0.9-1-1.4l0.6-1.5c0.5,0.5,0.9,1,1.2,1.5
		c0.3,0.6,0.4,1.2,0.4,1.9V25.5z"/>
	<path d="M179.6,23.1c0,0.5-0.1,1-0.3,1.5c-0.1,0.3-0.3,0.7-0.6,1.2l-0.2-0.1c0-0.2,0-0.4,0.1-0.7s0-0.4,0-0.5
		c0-0.7-0.1-1.6-0.2-2.8s-0.2-2.5-0.4-3.8c-0.1-0.8-0.2-1.6-0.3-2.5c0.1-0.3,0.3-0.6,0.4-0.9s0.3-0.6,0.5-0.9c0.1,0.7,0.2,1.8,0.4,3
		s0.3,2.5,0.4,3.5C179.6,21.4,179.6,22.4,179.6,23.1z"/>
	<path d="M187,11c0,0.3-0.2,0.6-0.5,0.9c-0.6,0.2-1.5,0.6-2.8,1.1c0-0.3,0.1-0.6,0.4-0.8C184.6,12,185.6,11.6,187,11z"/>
	<path d="M190.2,25.5c0,0.7-0.3,1.5-0.9,2.2c-0.5,0.7-1.2,1.3-2,1.7c-0.8,0.5-1.4,0.7-1.9,0.7c-0.4,0-0.9-0.1-1.5-0.2
		c-0.4-0.1-0.9-0.3-1.4-0.5c-0.5-0.2-0.9-0.4-1.4-0.5l0.2-0.4c0.4,0.1,0.9,0.2,1.3,0.3s0.9,0.1,1.3,0.1c0.8,0,1.7-0.3,2.6-0.8
		c0.8-0.5,1.5-1.1,2.1-1.9s0.9-1.4,0.9-2c0-0.5-0.1-1.1-0.4-1.6c-0.2-0.5-0.6-0.9-1-1.4l0.6-1.5c0.5,0.5,0.9,1,1.2,1.5
		c0.3,0.6,0.4,1.2,0.4,1.9V25.5z M188.8,16.5l-0.8,1.4l-1.6-0.8l0.7-1.4L188.8,16.5z"/>
</g>
</svg>
