<?xml version="1.0" encoding="utf-8"?>
<!-- Generator: Adobe Illustrator 22.0.1, SVG Export Plug-In . SVG Version: 6.00 Build 0)  -->
<svg version="1.1" id="Layer_1" xmlns="http://www.w3.org/2000/svg" xmlns:xlink="http://www.w3.org/1999/xlink" x="0px" y="0px"
	 viewBox="0 0 185.8 46.1" style="enable-background:new 0 0 185.8 46.1;" xml:space="preserve">
<style type="text/css">
	.st0{fill:#542C0B;}
</style>
<g>
	<path class="st0" d="M22.6,17.2h-1.8c-0.8,1.2-1.5,2.4-2,3.8c-0.6,1.6-0.9,3.3-0.9,5.1c0,1.4,0.2,2.9,0.7,4.5
		c0.5,1.5,1.2,3,2.2,4.5h1.8c-0.5-1.2-0.9-2.1-1.1-2.7c-0.3-1-0.6-2-0.8-3c-0.2-1.1-0.3-2.1-0.3-3.1c0-1.5,0.2-2.9,0.5-4.2
		C21.2,20.7,21.8,19.1,22.6,17.2z"/>
	<polygon class="st0" points="50.8,18.2 48.6,17.1 47.5,19.2 49.7,20.3 	"/>
	<polygon class="st0" points="54,31.3 56.1,32.5 57.3,30.4 55.1,29.2 	"/>
	<path class="st0" d="M68.9,20.2c0.1-0.3,0.3-0.6,0.4-1s0.2-0.8,0.2-1.2c-0.5-0.2-0.9-0.4-1.1-0.6C68.1,17.2,68,17,68,16.8
		s0-0.3,0-0.3l-0.4-0.2c-0.3,0.6-0.6,1.2-0.7,1.7c-0.1,0.4-0.2,0.7-0.2,1.1l0.6,0.4l1.1,6.3h-3.3l-1-5.7l0.3,0.1
		c0.1-0.3,0.3-0.6,0.4-1S65,18.4,65,18c-0.5-0.2-0.9-0.4-1.1-0.6c-0.3-0.2-0.4-0.4-0.4-0.6s0-0.3,0-0.3l-0.4-0.2
		c-0.3,0.6-0.6,1.2-0.7,1.7c-0.1,0.4-0.2,0.7-0.2,1.1l0.6,0.4l1.1,6.3h-3.3c-0.5-0.1-0.9-0.2-1.1-0.4c-0.2-0.2-0.6-0.5-1.1-1
		c-0.7-0.7-1.2-1.3-1.6-1.6c-0.5-0.4-0.9-0.8-1.3-1s-0.8-0.3-1.2-0.3c-0.5,0-1,0.2-1.4,0.6s-0.8,0.9-1.1,1.7
		c0.3-0.1,0.4-0.1,0.6-0.1c0.1,0,0.3,0,0.4,0c0.5,0,1.1,0.2,1.7,0.5c0.6,0.3,1.3,0.9,2.1,1.7h-5.9c0-1.1-0.1-1.9-0.3-2.5
		s-0.5-1.1-1-1.7l-0.7,2.2c0.3,0.4,0.6,0.7,0.6,0.8c0.2,0.3,0.3,0.6,0.4,1.1h-4.2v-1c0-0.5,0-0.9-0.1-1.2c-0.1-0.3-0.2-0.7-0.4-1.1
		l-0.9,1.2C44,23.8,44,23.9,43.9,24c0,0.1,0,0.1,0,0.2s0.1,0.3,0.2,0.6c0.2,0.3,0.2,0.6,0.2,0.8c-0.3,0-0.5-0.1-0.8-0.2
		s-0.6-0.2-0.9-0.3c0.1-0.6,0.1-1,0.1-1.4c0-0.1,0-0.2,0-0.4c0-0.2,0-0.4,0-0.5l-0.4,0.3c-0.2,0.1-0.3,0.2-0.3,0.4
		c0,0.1-0.1,0.3-0.1,0.5c0,0.6-0.2,1-0.6,1.2c-0.4,0.2-1,0.3-2,0.3h-0.9c0-0.7-0.1-1.2-0.2-1.6c-0.1-0.5-0.4-1.1-0.9-1.8l-0.8,2.5
		c0.4,0.8,0.7,1.4,0.9,1.8c0.1,0.4,0.2,0.8,0.2,1.1c0,0.6-0.4,1.1-1.1,1.6C36.1,29.8,35.1,30,34,30s-2-0.2-2.7-0.6s-1-0.9-1-1.6
		c0-0.5,0.1-1,0.3-1.5c0.2-0.5,0.6-1.2,1.2-2.3l-0.6-0.4c-0.8,1.3-1.4,2.3-1.7,3.1c-0.3,0.7-0.4,1.5-0.4,2.4c0,1,0.4,1.8,1.2,2.3
		c0.8,0.5,2,0.8,3.5,0.8c1.6,0,2.8-0.3,3.6-0.8c0.9-0.6,1.4-1.7,1.4-3.1h1.5c0.6,0,1,0,1.3-0.1s0.6-0.2,1-0.5
		c0.8,0.3,1.3,0.5,1.6,0.5c0.2,0,0.5,0.1,0.8,0.1l0,0h5.2h0.6H60h0.6h3.8H65h4.5v-2.5l-1-5.7L68.9,20.2z"/>
	<polygon class="st0" points="78.3,16.3 79.6,17.1 80.6,15.3 79,14.5 78.2,15.9 76.8,15.2 75.8,16.8 77.5,17.8 	"/>
	<polygon class="st0" points="85.3,30.5 83.9,29.8 83,31.6 84.7,32.6 85.4,31.1 86.8,31.9 87.8,30 86.1,29 	"/>
	<path class="st0" d="M91,19c-0.5,0-1,0.6-1.5,1.7c-0.4,1-0.7,1.9-0.7,2.6c0,0.5,0.2,0.9,0.5,1.2c0.3,0.3,0.8,0.5,1.3,0.5
		c0.4,0,0.7-0.1,1.1-0.3s0.6-0.5,0.8-0.9c0.2,0.3,0.3,0.6,0.3,0.9c0,0.2,0,0.6,0,1.2h-4.9c0-1.1-0.1-1.9-0.3-2.5
		c-0.2-0.6-0.5-1.1-1-1.7L86,23.9c0.3,0.4,0.6,0.7,0.6,0.8c0.2,0.3,0.3,0.6,0.4,1.1h-4.2h-0.6h-0.6c-0.3,0-0.5-0.1-0.6-0.3
		c-0.2-0.3-0.4-0.9-0.6-1.8l-0.9-5.8c-0.3,0.5-0.5,1-0.6,1.3c-0.1,0.4-0.2,0.7-0.2,0.9c0,0.1,0,0.2,0,0.3c0,0.1,0,0.2,0,0.3L78.2,21
		c-0.4,0.3-0.8,0.5-1,0.6c-0.4,0.3-0.7,0.5-0.8,0.6c-0.2,0.2-0.5,0.8-0.9,1.6c-0.4,0.9-0.6,1.4-0.6,1.6c0,0.1,0.1,0.2,0.2,0.2
		s0.4,0.1,0.9,0.2l1.1,0.2c0.2,0,0.3,0.1,0.4,0.1c0.2,0,0.5-0.2,0.9-0.5c0.2-0.2,0.6-0.6,1-1.1c0.1,1.1,0.3,2,0.6,2.7
		c0.2,0.5,0.6,0.8,0.9,1c0.2,0.1,0.4,0.1,0.6,0.1h0.6h0.6h4.5h0.6h5.8v-4.1c0-1.3-0.3-2.5-0.9-3.6C92.3,19.5,91.7,19,91,19z
		 M91.2,22.5c-0.1,0.1-0.3,0.1-0.4,0.1c-0.2,0-0.3,0-0.4-0.1s-0.2-0.2-0.2-0.4c0-0.2,0.1-0.4,0.2-0.6s0.3-0.3,0.5-0.3
		c0.1,0,0.3,0.1,0.4,0.2s0.3,0.3,0.4,0.6C91.5,22.3,91.3,22.4,91.2,22.5z M78.5,23.5c-0.1,0.1-0.3,0.1-0.4,0.1c-0.2,0-0.4,0-0.6-0.1
		s-0.3-0.1-0.3-0.2s0.1-0.2,0.2-0.3c0.1-0.1,0.2-0.2,0.4-0.3c0.2-0.2,0.5-0.3,0.8-0.5c0.1-0.1,0.3-0.1,0.5-0.2l0.2,1.1
		C78.9,23.3,78.7,23.4,78.5,23.5z"/>
	<polygon class="st0" points="92.4,16.1 90.3,14.9 89.1,17 91.3,18.1 	"/>
	<polygon class="st0" points="103.4,18.2 101.2,17.1 100.1,19.2 102.3,20.3 	"/>
	<path class="st0" d="M107.1,20.2c0.1-0.3,0.3-0.6,0.4-1s0.2-0.8,0.2-1.2c-0.5-0.2-0.9-0.4-1.1-0.6c-0.3-0.2-0.4-0.4-0.4-0.6
		s0-0.3,0-0.3l-0.4-0.2c-0.3,0.6-0.6,1.2-0.7,1.7c-0.1,0.4-0.2,0.7-0.2,1.1l0.6,0.4l1.1,6.3h-3.3c0-1.1-0.1-1.9-0.3-2.5
		c-0.2-0.6-0.5-1.1-1-1.7l-0.7,2.2c0.3,0.4,0.6,0.7,0.6,0.8c0.2,0.3,0.3,0.6,0.4,1.1h-4.2h-0.6h-0.6c-0.3,0-0.5-0.2-0.6-0.6
		C96,24.7,96,23.8,96,22.5v-1.8c0-0.9-0.1-1.6-0.3-2.2c-0.1-0.5-0.4-1-0.8-1.5l-1,2.3c0.3,0.3,0.5,0.5,0.6,0.7
		c0.2,0.3,0.3,0.8,0.3,1.4V24c0,1.6,0.2,2.7,0.5,3.3c0.3,0.6,0.8,0.9,1.6,0.9h0.6h0.6h4.5h0.6h4.5v-2.5l-1-5.7L107.1,20.2z"/>
	<path class="st0" d="M110.7,20.4l-0.6-3.3c-0.3,0.7-0.6,1.2-0.8,1.7c-0.2,0.5-0.3,0.8-0.3,1c0,0.1,0,0.4,0.1,0.7
		c0.2,1,0.4,1.8,0.5,2.6c0.1,0.7,0.2,1.4,0.2,2.2c0.1,0.7,0.1,1.3,0.1,1.7c0,0.5-0.1,1.1-0.2,1.9l0.6,0.2c0.4-0.8,0.6-1.4,0.8-1.8
		c0.1-0.5,0.2-1,0.2-1.5c0-0.6,0-1.3-0.1-2C111,22.7,110.9,21.6,110.7,20.4z"/>
	<path class="st0" d="M124.4,17.1L124,17c-0.2,0.4-0.3,0.8-0.4,1.2c-0.1,0.4-0.1,0.8-0.1,1.1c0,0.2,0,0.3,0.1,0.4s0.2,0.2,0.5,0.3
		c0,0.7,0,1.3-0.1,1.8c-0.1,0.8-0.3,1.5-0.6,2c-0.6-0.9-1.1-1.6-1.3-1.9c-0.3-0.4-0.7-0.9-1.1-1.3c-0.5-0.6-1.1-1.2-1.7-1.8
		c-0.7-0.7-1.2-1-1.5-1c-0.1,0-0.2,0.1-0.3,0.2c0,0.1-0.1,0.4-0.1,0.7c0,0.8,0.1,1.4,0.2,1.9s0.3,0.8,0.4,1c0.2,0.2,0.5,0.4,0.8,0.6
		c0.4,0.3,0.7,0.4,0.8,0.4c0,0,0.1,0,0.1-0.1s0.1-0.2,0.2-0.4c0.4,0.4,0.7,0.7,1,1c0.3,0.4,0.8,1,1.5,1.9c-0.4,0.5-0.8,0.9-1.1,1.1
		c-0.3,0.2-0.7,0.5-1.3,0.8v2.7c1.1,0,1.9,0,2.5-0.1s1.2-0.3,1.9-0.6c0.1-1.1,0.1-1.7,0.1-1.9v-0.3c0-0.2-0.1-0.5-0.2-0.8
		c-0.1-0.1-0.3-0.5-0.6-1.1c0.4-0.7,0.7-1.4,0.8-2.1s0.3-1.5,0.3-2.2l0.7,0.3c0.1-0.5,0.2-0.8,0.3-1c0.1-0.4,0.1-0.9,0.1-1.3
		c-0.8-0.3-1.3-0.4-1.5-0.5C124.4,17.8,124.4,17.5,124.4,17.1z M122.9,26.9c-0.2,0.1-0.5,0.1-1,0.2c0.4-0.3,0.6-0.5,0.8-0.6
		c0.1-0.1,0.4-0.3,0.6-0.6l0.4,0.7C123.3,26.7,123.1,26.9,122.9,26.9z"/>
	<polygon class="st0" points="140.9,31.2 143,32.4 144.1,30.3 142,29.1 	"/>
	<path class="st0" d="M152.9,24.4c-0.7-0.7-1.2-1.3-1.6-1.6c-0.5-0.4-0.9-0.8-1.3-1s-0.8-0.3-1.2-0.3c-0.5,0-1,0.2-1.4,0.6
		s-0.8,0.9-1.1,1.7c0.3-0.1,0.4-0.1,0.6-0.1c0.1,0,0.3,0,0.4,0c0.5,0,1.1,0.2,1.7,0.5c0.6,0.3,1.3,0.9,2.1,1.7h-5.9
		c0-1.1-0.1-1.9-0.3-2.5s-0.5-1.1-1-1.7l-0.7,2.2c0.3,0.4,0.6,0.7,0.6,0.8c0.2,0.3,0.3,0.6,0.4,1.1H140v-0.1c0-0.7-0.1-1.4-0.3-1.9
		c-0.2-0.6-0.6-1.1-1-1.5l-0.5,2.5c0.3,0.3,0.6,0.7,0.8,1.1s0.3,0.7,0.3,1c0,0.5-0.5,1.2-1.5,2.1c-0.7,0.7-1.3,1.1-1.7,1.3
		s-0.9,0.4-1.3,0.4c-0.4,0-0.8-0.1-1.1-0.2s-0.8-0.4-1.3-0.8l-0.4,0.6c1.2,0.8,2,1.3,2.6,1.6c0.6,0.3,1.2,0.5,1.8,0.5
		c0.5,0,1-0.3,1.7-0.8c0.6-0.5,1.1-1,1.5-1.6s0.6-1.1,0.6-1.5v-0.2h4.5h0.6h9.9v-2.5c-0.5-0.1-0.9-0.2-1.1-0.4
		C153.7,25.3,153.3,24.9,152.9,24.4z"/>
	<polygon class="st0" points="151.3,18.5 149.1,17.3 148,19.4 150.2,20.5 	"/>
	<path class="st0" d="M164.9,21.5c-0.5-1.5-1.2-2.9-2.2-4.2h-1.8c0.8,1.9,1.4,3.5,1.7,4.8s0.5,2.7,0.5,4.2c0,0.7,0,1.4-0.1,2.1
		s-0.2,1.4-0.4,2.2c-0.2,0.8-0.4,1.4-0.6,2c-0.2,0.6-0.6,1.4-1.1,2.5h1.8c1.1-1.6,1.8-3.3,2.3-4.9c0.4-1.5,0.6-2.9,0.6-4.2
		C165.6,24.5,165.4,22.9,164.9,21.5z"/>
</g>
</svg>
