<?xml version="1.0" encoding="utf-8"?>
<!-- Generator: Adobe Illustrator 22.0.1, SVG Export Plug-In . SVG Version: 6.00 Build 0)  -->
<svg version="1.1" id="Layer_1" xmlns="http://www.w3.org/2000/svg" xmlns:xlink="http://www.w3.org/1999/xlink" x="0px" y="0px"
	 viewBox="0 0 202.9 44.7" style="enable-background:new 0 0 202.9 44.7;" xml:space="preserve">
<style type="text/css">
	.st0{fill:#BA0017;}
</style>
<g>
	<g>
		<g>
			<g>
				<g>
					<path class="st0" d="M56.6,14.9c0,0.2,0,0.5-0.1,0.7s-0.2,0.4-0.3,0.6c0.1,0.1,0.2,0.1,0.2,0.2s0.1,0.2,0.1,0.2
						c0,0.3,0,0.6-0.1,0.9l-0.8-0.7c-0.3,0.4-0.6,0.6-1,0.8c-0.5,0.2-1,0.4-1.5,0.4c0.3-0.4,0.4-0.7,0.4-0.7
						c0.1-0.2,0.1-0.3,0.1-0.5s0-0.3-0.1-0.4s-0.2-0.2-0.3-0.2c-0.1,0-0.3,0.1-0.4,0.2c0,0.1-0.1,0.2-0.3,0.4c0-0.5,0.1-0.8,0.2-1
						c0.1-0.4,0.3-0.5,0.6-0.5c0.2,0,0.4,0.1,0.5,0.3s0.2,0.5,0.2,0.7c0,0.1,0,0.3,0,0.4c0,0.2-0.1,0.3-0.1,0.4
						c0.4-0.1,0.9-0.3,1.3-0.7c-0.1-0.1-0.2-0.2-0.3-0.3c-0.2-0.2-0.3-0.4-0.3-0.6c0-0.3,0.1-0.6,0.4-0.9c0.3-0.3,0.6-0.5,0.9-0.5
						c0.2,0,0.3,0.1,0.4,0.2S56.6,14.8,56.6,14.9z M55.9,15.5c0-0.1,0-0.3-0.1-0.4s-0.2-0.2-0.3-0.2c-0.1,0-0.2,0.1-0.2,0.3
						c0,0.1,0.1,0.2,0.2,0.4c0,0,0.1,0.1,0.3,0.3C55.8,15.8,55.9,15.6,55.9,15.5z"/>
					<path class="st0" d="M63.7,27.8h-9.3c-1.3,0-2.2-0.2-3-0.7c-0.9-0.5-1.4-1.4-1.4-2.6c0-0.6,0.1-1.2,0.4-1.9
						c0.1-0.2,0.3-0.7,0.7-1.3l0.3,0.2c-0.1,0.3-0.3,0.6-0.4,0.9c-0.2,0.5-0.3,0.9-0.3,1.2c0,0.8,0.4,1.4,1.2,1.8
						c0.7,0.4,1.6,0.6,2.7,0.6h8.3v-0.3c0-0.7-0.1-1.3-0.3-1.8s-0.5-0.9-0.9-1.2l0.8-1.6c0.3,0.4,0.5,0.6,0.5,0.7
						c0.4,0.7,0.7,1.8,0.7,3.2V27.8z M58.1,30.2l-0.8,1.4l-1.6-0.8l0.7-1.4L58.1,30.2z"/>
					<path class="st0" d="M70,16.8c0,0.4-0.1,0.8-0.4,1.1s-0.7,0.5-1.1,0.5c-0.4,0-0.6-0.1-0.8-0.3s-0.3-0.5-0.3-0.8
						c0-0.5,0.1-0.9,0.4-1.3s0.6-0.6,1-0.6c0.4,0,0.6,0.1,0.9,0.4S70,16.4,70,16.8z M69.4,17.1c0-0.2-0.1-0.4-0.4-0.6
						s-0.5-0.3-0.6-0.3c-0.2,0-0.3,0.1-0.4,0.2s-0.2,0.3-0.2,0.5c0,0.2,0.1,0.4,0.3,0.5c0.2,0.1,0.4,0.1,0.7,0.1
						c0.2,0,0.3,0,0.4-0.1S69.4,17.2,69.4,17.1z"/>
					<path class="st0" d="M74.3,27.8H63v-1.7h8c-0.7-0.5-1.2-0.9-1.7-1.2c-0.6-0.4-1.1-0.6-1.6-0.8c-0.5-0.2-1.1-0.3-1.6-0.3
						c-0.3,0-0.7,0-1,0.1c0.2-0.5,0.4-0.9,0.7-1.2c0.4-0.4,1-0.6,1.7-0.6c0.7,0,1.4,0.3,2.4,1c0.4,0.3,1.2,0.9,2.2,1.9
						c0.8,0.7,1.3,1.1,1.6,1.2h0.6V27.8z"/>
					<path class="st0" d="M80.8,16.2c0,0.3-0.2,0.6-0.5,0.9c-0.6,0.2-1.5,0.6-2.8,1.1c0-0.3,0.1-0.6,0.4-0.8
						C78.5,17.2,79.4,16.8,80.8,16.2z"/>
					<path class="st0" d="M84.1,27.8c0,0.7-0.3,1.5-0.9,2.2c-0.5,0.7-1.2,1.3-2,1.7c-0.8,0.5-1.4,0.7-1.9,0.7
						c-0.4,0-0.9-0.1-1.5-0.2c-0.4-0.1-0.9-0.3-1.4-0.5c-0.5-0.2-0.9-0.4-1.4-0.5l0.2-0.4c0.4,0.1,0.9,0.2,1.3,0.3s0.9,0.1,1.3,0.1
						c0.8,0,1.7-0.3,2.6-0.8c0.8-0.5,1.5-1.1,2.1-1.9s0.9-1.4,0.9-2c0-0.5-0.1-1.1-0.4-1.6c-0.2-0.5-0.6-0.9-1-1.4l0.6-1.5
						c0.5,0.5,0.9,1,1.2,1.5c0.3,0.6,0.4,1.2,0.4,1.9V27.8z"/>
					<path d="M95.2,16.2c0,0.3-0.2,0.6-0.5,0.9c-0.6,0.2-1.5,0.6-2.8,1.1c0-0.3,0.1-0.6,0.4-0.8C92.8,17.2,93.8,16.8,95.2,16.2z"/>
					<path d="M96.9,25.4L96.4,27c-1,0.2-1.8,0.5-2.4,0.8c-0.7,0.4-1.4,0.8-2,1.4l-0.3-0.2c0.1-0.3,0.2-0.6,0.3-0.8
						c0.1-0.2,0.3-0.4,0.4-0.6L91.3,27c-0.3-0.2-0.5-0.5-0.5-0.7c0-0.2,0.1-0.6,0.4-1.1c0.3-0.7,0.7-1.2,1.1-1.6
						c0.5-0.6,1-0.8,1.6-0.8c0.5,0,0.9,0.1,1.2,0.4c0.1,0.1,0.2,0.2,0.5,0.5l-0.5,1.3c-0.2-0.2-0.4-0.3-0.4-0.3
						c-0.4-0.3-0.7-0.4-1-0.4c-0.3,0-0.6,0.1-1,0.3s-0.5,0.4-0.5,0.6c0,0.3,0.2,0.5,0.6,0.8c0.3,0.2,0.8,0.4,1.4,0.6
						C95,26,96,25.7,96.9,25.4z"/>
					<path d="M102.5,27.8h-1.4c-0.4,0-0.8-0.2-1.1-0.5c-0.2-0.3-0.4-0.8-0.5-1.4s-0.2-1.4-0.3-2.3c0-0.7-0.1-1.5-0.1-2.3
						S99,19.9,99,19.5s-0.2-0.7-0.3-1c-0.1-0.3-0.3-0.6-0.6-0.8l1.2-1.9c0.3,0.8,0.4,1.7,0.5,2.8c0.1,0.7,0.1,2.3,0.2,4.8
						c0.1,1.2,0.3,1.9,0.5,2.2c0.2,0.3,0.4,0.4,0.6,0.4h1.4V27.8z"/>
					<path d="M108.5,16.2c0,0.3-0.2,0.6-0.5,0.9c-0.6,0.2-1.5,0.6-2.8,1.1c0-0.3,0.1-0.6,0.4-0.8C106.2,17.2,107.1,16.8,108.5,16.2z
						"/>
					<path d="M119.4,27.8h-11.7c-0.4,0-0.7-0.1-1-0.2c-0.2-0.1-0.5-0.2-0.8-0.4c-0.3,0.2-0.5,0.4-0.8,0.5s-0.7,0.1-1.3,0.1h-1.9
						v-1.7h1.9c0.5,0,0.9,0,1.1-0.1c0.4-0.1,0.6-0.4,0.6-0.9c0-0.2,0-0.4,0-0.6s-0.1-0.4-0.1-0.6l0.4-0.6c0.2,0.9,0.5,1.6,0.9,2.1
						c0.4,0.5,0.9,0.8,1.5,0.8c0.5,0,1.2-0.1,1.9-0.4c0.8-0.3,1.5-0.6,2.1-1c0.9-0.7,1.5-1.1,1.7-1.2c0.5-0.3,1-0.6,1.4-0.7
						c0.5-0.2,1-0.2,1.6-0.2c0.9,0,1.6,0.3,2,0.8c0.4,0.5,0.6,1.1,0.6,2V27.8z M113.2,19.7l-0.7,1.4l-1.6-0.8l0.7-1.4L113.2,19.7z
						 M117.8,25.3c0-0.3-0.2-0.6-0.6-0.7s-0.9-0.3-1.4-0.3c-0.7,0-1.4,0.2-2.4,0.7c-0.7,0.4-1.5,0.7-2.2,1.1h4.5
						c0.7,0,1.2-0.1,1.6-0.2S117.8,25.6,117.8,25.3z"/>
					<path d="M124,13.3c0,0.3-0.2,0.6-0.5,0.9c-0.6,0.2-1.5,0.6-2.8,1.1c0-0.3,0.1-0.6,0.4-0.8C121.6,14.3,122.6,13.9,124,13.3z"/>
					<path d="M124.7,27.8h-5.9v-1.7h3.3c0.4,0,0.7,0,1,0s0.6-0.1,0.9-0.2c-1.1-0.2-1.8-0.3-2.2-0.5c-0.7-0.3-1.1-0.9-1.1-1.7
						c0-0.7,0.2-1.3,0.5-1.9c0.4-0.7,0.9-1,1.5-1c0.7,0,1.2,0.4,1.5,1.3c0.3,0.7,0.4,1.5,0.4,2.4V27.8z M123.8,17.4l-0.9,1.4
						l-1.4-0.9l0.8-1.4L123.8,17.4z M123.8,24.4c-0.1-0.5-0.3-0.9-0.4-1.2c-0.3-0.5-0.6-0.7-1-0.7c-0.2,0-0.3,0.1-0.5,0.2
						s-0.2,0.3-0.2,0.5c0,0.5,0.3,0.8,0.8,1C122.7,24.3,123.1,24.3,123.8,24.4z"/>
					<path d="M128.8,27.8H124v-1.7h3.8l-1.2-8.3l-0.5-0.2c0-0.4,0-0.9,0.1-1.3s0.2-0.8,0.4-1.1l0.1,0.1c0,0.4,0.2,0.7,0.6,0.8
						c0.3,0.1,0.7,0.3,1,0.4c0,0.3,0,0.7-0.1,1s-0.1,0.6-0.2,0.8l-0.5-0.2l1.2,7.7V27.8z"/>
					<path d="M132.1,25.3c0,0.5-0.1,1-0.3,1.5c-0.1,0.3-0.3,0.7-0.6,1.2L131,28c0-0.2,0-0.4,0.1-0.7s0-0.4,0-0.5
						c0-0.7-0.1-1.6-0.2-2.8s-0.2-2.5-0.4-3.8c-0.1-0.8-0.2-1.6-0.3-2.5c0.1-0.3,0.3-0.6,0.4-0.9s0.3-0.6,0.5-0.9
						c0.1,0.7,0.2,1.8,0.4,3s0.3,2.5,0.4,3.5C132,23.7,132.1,24.6,132.1,25.3z"/>
					<path d="M145.7,16.4c0,0.5-0.1,0.9-0.3,1.2c-0.2,0.4-0.4,0.5-0.8,0.5c-0.1,0-0.2,0-0.3-0.1s-0.2-0.1-0.3-0.2
						c-0.1,0.2-0.3,0.4-0.4,0.5c-0.2,0.2-0.4,0.3-0.7,0.3c-0.3,0-0.5-0.1-0.6-0.3s-0.2-0.4-0.2-0.8c0-0.2,0-0.3,0.1-0.5
						c0-0.1,0.1-0.3,0.2-0.5l0.2-0.1c0,0.1,0,0.1,0,0.3s0,0.2,0,0.3c0,0.1,0,0.3,0.1,0.4s0.1,0.2,0.3,0.2c0.3,0,0.5-0.2,0.7-0.5
						c0.1-0.2,0.2-0.5,0.3-1l0.2-0.1c0.1,0.3,0.1,0.5,0.1,0.6c0.1,0.2,0.2,0.3,0.4,0.3c0.2,0,0.4-0.2,0.6-0.5
						c0.1-0.3,0.2-0.5,0.2-0.8l0.2-0.1c0,0.1,0.1,0.3,0.1,0.4S145.7,16.2,145.7,16.4z M145.6,14c0,0.3-0.2,0.6-0.5,0.9
						c-0.6,0.2-1.5,0.6-2.8,1.1c0-0.3,0.1-0.5,0.4-0.8C143.2,15,144.2,14.6,145.6,14z"/>
					<path d="M149,27.8c0,1.5-0.4,2.5-1.3,3.2c-0.9,0.7-2.4,1.1-4.4,1.1c-1.3,0-2.3-0.2-3-0.7c-0.8-0.5-1.1-1.3-1.1-2.3
						c0-0.6,0.1-1.1,0.2-1.7s0.3-1.1,0.6-1.7c0.1-0.4,0.4-0.9,0.7-1.6l0.4,0.2c-0.5,0.9-0.8,1.7-0.9,2.2s-0.2,1-0.2,1.5
						c0,0.8,0.3,1.4,0.9,1.8s1.4,0.6,2.5,0.6c1.2,0,2.3-0.2,3.3-0.7c1.2-0.5,1.8-1.3,1.8-2.3c0-0.7-0.1-1.3-0.3-1.9
						c-0.2-0.5-0.4-1-0.7-1.3l0.8-2c0.3,0.5,0.6,1.1,0.7,1.6s0.2,1.3,0.2,2.2V27.8z M145.4,20.3l-0.7,1.4l-1.5-0.8l0.7-1.4
						L145.4,20.3z"/>
					<path d="M152.2,31.2c0,0.2-0.1,0.3-0.3,0.4c-0.1,0.1-0.3,0.2-0.6,0.3l-1.8,0.6c0-0.3,0.3-0.6,1-0.8c-0.2-0.1-0.4-0.2-0.5-0.3
						c-0.1-0.1-0.2-0.3-0.2-0.4c0-0.2,0.2-0.5,0.5-0.8c0.4-0.4,0.7-0.6,1-0.6c0.1,0,0.2,0,0.3,0.1s0.1,0.2,0.1,0.3
						c0,0.1,0,0.2-0.1,0.3s-0.1,0.2-0.2,0.3c-0.2-0.2-0.4-0.3-0.7-0.3c-0.1,0-0.3,0-0.4,0.1s-0.2,0.1-0.2,0.2c0,0.1,0.2,0.2,0.5,0.4
						s0.6,0.3,0.8,0.3c0.1,0,0.2,0,0.3,0S152,31.3,152.2,31.2z M152.3,25.3c0,0.5-0.1,1-0.3,1.5c-0.1,0.3-0.3,0.7-0.6,1.2l-0.2-0.1
						c0-0.2,0-0.4,0.1-0.7s0-0.4,0-0.5c0-0.7-0.1-1.6-0.2-2.8s-0.2-2.5-0.4-3.8c-0.1-0.8-0.2-1.6-0.3-2.5c0.1-0.3,0.3-0.6,0.4-0.9
						s0.3-0.6,0.5-0.9c0.1,0.7,0.2,1.8,0.4,3s0.3,2.5,0.4,3.5C152.3,23.7,152.3,24.6,152.3,25.3z"/>
				</g>
			</g>
		</g>
	</g>
</g>
</svg>
