<?xml version="1.0" encoding="utf-8"?>
<!-- Generator: Adobe Illustrator 22.0.1, SVG Export Plug-In . SVG Version: 6.00 Build 0)  -->
<svg version="1.1" id="Layer_1" xmlns="http://www.w3.org/2000/svg" xmlns:xlink="http://www.w3.org/1999/xlink" x="0px" y="0px"
	 viewBox="0 0 185.8 46.1" style="enable-background:new 0 0 185.8 46.1;" xml:space="preserve">
<style type="text/css">
	.st0{fill:#542C0B;}
</style>
<g>
	<path class="st0" d="M70.4,15.9h-1.8c-0.8,1.2-1.5,2.4-2,3.8c-0.6,1.6-0.9,3.3-0.9,5.1c0,1.4,0.2,2.9,0.7,4.5
		c0.5,1.5,1.2,3,2.2,4.5h1.8c-0.5-1.2-0.9-2.1-1.1-2.7c-0.3-1-0.6-2-0.8-3C68.3,27,68.2,26,68.2,25c0-1.5,0.2-2.9,0.5-4.2
		C69,19.4,69.6,17.8,70.4,15.9z"/>
	<polygon class="st0" points="83,19.4 84.3,20.1 85.4,18.2 83.7,17.3 82.9,18.8 81.5,18.1 80.6,19.9 82.3,20.8 	"/>
	<polygon class="st0" points="100.7,16.9 98.5,15.8 97.4,17.8 99.6,19 	"/>
	<path class="st0" d="M104.4,18.9c0.1-0.3,0.3-0.6,0.4-1s0.2-0.8,0.2-1.2c-0.5-0.2-0.9-0.4-1.1-0.6c-0.3-0.2-0.4-0.4-0.4-0.6
		c0-0.2,0-0.3,0-0.3l-0.4-0.2c-0.3,0.6-0.6,1.2-0.7,1.7c-0.1,0.4-0.2,0.7-0.2,1.1l0.6,0.4l1.1,6.3h-3.3c0-1.1-0.1-1.9-0.3-2.5
		c-0.2-0.6-0.5-1.1-1-1.7l-0.7,2.2c0.3,0.4,0.6,0.7,0.6,0.8c0.2,0.3,0.3,0.6,0.4,1.1h-4.2h-0.6h-0.7c-0.1,0-0.3,0-0.4-0.1
		s-0.3-0.2-0.4-0.3c0.4-0.5,0.6-0.9,0.7-1.2c0.1-0.3,0.2-0.6,0.2-0.9c0-0.6-0.2-1-0.7-1.4c-0.5-0.3-1.2-0.5-2-0.5s-1.4,0.2-1.8,0.7
		s-0.6,1.3-0.6,2.4l0.4,0.1c0.1-0.1,0.1-0.2,0.2-0.3c0.1,0,0.1-0.1,0.2-0.1c0.2,0,0.4,0.1,0.5,0.3c0.1,0.2,0.3,0.4,0.5,0.8
		c-0.4,0.2-0.6,0.3-0.8,0.4c-0.2,0.1-0.6,0.1-1.1,0.1h-0.3v-0.1c0-0.9-0.1-1.7-0.2-2.1c-0.1-0.6-0.4-1.2-0.9-1.8l-0.8,2.2
		c0.3,0.4,0.5,0.7,0.6,0.9c0.1,0.2,0.3,0.5,0.4,1h-6.7c-0.4,0-0.8,0-1.1,0c-0.3,0-0.6-0.1-0.8-0.1c-0.4-0.1-0.7-0.3-0.9-0.6
		c-0.2-0.3-0.3-0.6-0.3-1c0-0.3,0-0.6,0.1-0.8c0.1-0.3,0.3-0.7,0.5-1.2l-0.5-0.4c-0.3,0.5-0.6,0.8-0.7,1.1c-0.1,0.3-0.2,0.6-0.4,1
		c-0.1,0.3-0.1,0.5-0.1,0.7s0,0.4,0,0.7c0,0.7,0.2,1.2,0.5,1.8s0.7,0.9,1.3,1.1c0.3,0.1,0.5,0.2,0.8,0.2c0.2,0,0.7,0,1.5,0h7h0.6H89
		c0.5,0,1-0.1,1.4-0.2c0.6-0.2,1.2-0.6,1.6-1c0.2,0.4,0.5,0.8,0.9,1s0.8,0.3,1.3,0.3h0.7h0.6h4.5h0.6h4.5v-2.5l-1-5.7L104.4,18.9z"
		/>
	<path class="st0" d="M108,19l-0.6-3.3c-0.3,0.7-0.6,1.2-0.8,1.7c-0.2,0.5-0.3,0.8-0.3,1c0,0.1,0,0.4,0.1,0.7c0.2,1,0.4,1.8,0.5,2.6
		c0.1,0.7,0.2,1.4,0.2,2.2c0.1,0.7,0.1,1.3,0.1,1.7c0,0.5-0.1,1.1-0.2,1.9l0.6,0.2c0.4-0.8,0.6-1.4,0.8-1.8c0.1-0.5,0.2-1,0.2-1.5
		c0-0.6,0-1.3-0.1-2C108.4,21.4,108.2,20.3,108,19z"/>
	<path class="st0" d="M119.1,20.1c-0.5-1.5-1.2-2.9-2.2-4.2h-1.8c0.8,1.9,1.4,3.5,1.7,4.8c0.3,1.3,0.5,2.7,0.5,4.2
		c0,0.7,0,1.4-0.1,2.1s-0.2,1.4-0.4,2.2c-0.2,0.8-0.4,1.4-0.6,2s-0.6,1.4-1.1,2.5h1.8c1.1-1.6,1.8-3.3,2.3-4.9
		c0.4-1.5,0.6-2.9,0.6-4.2C119.8,23.1,119.6,21.6,119.1,20.1z"/>
</g>
</svg>
