<?xml version="1.0" encoding="utf-8"?>
<!-- Generator: Adobe Illustrator 22.0.1, SVG Export Plug-In . SVG Version: 6.00 Build 0)  -->
<svg version="1.1" id="Layer_1" xmlns="http://www.w3.org/2000/svg" xmlns:xlink="http://www.w3.org/1999/xlink" x="0px" y="0px"
	 viewBox="0 0 283.5 46.1" style="enable-background:new 0 0 283.5 46.1;" xml:space="preserve">
<style type="text/css">
	.st0{fill:#BA0017;}
</style>
<g>
	<path d="M92.2,15c0,0.2,0,0.5-0.1,0.7s-0.2,0.4-0.3,0.6c0.1,0.1,0.2,0.1,0.2,0.2s0.1,0.2,0.1,0.2c0,0.3,0,0.6-0.1,0.9L91.2,17
		c-0.3,0.4-0.6,0.6-1,0.8c-0.5,0.2-1,0.4-1.5,0.4c0.3-0.4,0.4-0.7,0.4-0.7c0.1-0.2,0.1-0.3,0.1-0.5s0-0.3-0.1-0.4s-0.2-0.2-0.3-0.2
		c-0.1,0-0.3,0.1-0.4,0.2c0,0.1-0.1,0.2-0.3,0.4c0-0.5,0.1-0.8,0.2-1c0.1-0.4,0.3-0.5,0.6-0.5c0.2,0,0.4,0.1,0.5,0.3
		c0.1,0.2,0.2,0.5,0.2,0.7c0,0.1,0,0.3,0,0.4c0,0.2-0.1,0.3-0.1,0.4c0.4-0.1,0.9-0.3,1.3-0.7c-0.1-0.1-0.2-0.2-0.3-0.3
		c-0.2-0.2-0.3-0.4-0.3-0.6c0-0.3,0.1-0.6,0.4-0.9c0.3-0.3,0.6-0.5,0.9-0.5c0.2,0,0.3,0.1,0.4,0.2S92.2,14.8,92.2,15z M91.5,15.6
		c0-0.1,0-0.3-0.1-0.4S91.2,15,91.1,15c-0.1,0-0.2,0.1-0.2,0.3c0,0.1,0.1,0.2,0.2,0.4c0,0,0.1,0.1,0.3,0.3
		C91.4,15.8,91.5,15.7,91.5,15.6z"/>
	<path d="M95.9,33.3L93.4,35c-1.4,0-2.4-0.1-3.1-0.2c-1.3-0.2-2.3-0.6-3-1.1C86.4,33,86,31.9,86,30.6c0-0.8,0.1-1.5,0.4-2.2
		c0.2-0.5,0.5-1,0.9-1.5c0.2-0.2,0.5-0.6,1-1c-0.6-0.3-1.1-0.6-1.3-0.8c-0.5-0.5-0.8-1.1-0.8-1.9c0-0.7,0.3-1.4,0.9-2
		c0.7-0.8,1.5-1.1,2.4-1.1c0.4,0,0.9,0.1,1.3,0.4c0.3,0.2,0.7,0.4,1.2,0.8c-0.6,0-1.3,0-2,0.1c-0.9,0.1-1.6,0.3-2.1,0.5
		c-0.7,0.3-1,0.6-1,0.9c0,0.4,0.4,0.8,1.1,1.1c0.6,0.3,1.3,0.5,2.1,0.6c0.7-0.4,1.3-0.7,1.9-0.9c0.7-0.3,1.4-0.5,2.1-0.7l-0.4,1.5
		c-1.4,0.5-2.3,0.9-2.9,1.2c-1.2,0.6-2.1,1.2-2.8,1.8c-0.8,0.8-1.2,1.6-1.2,2.5c0,0.9,0.3,1.6,1,2.2c0.6,0.5,1.5,0.8,2.6,1
		c0.9,0.1,2.1,0.2,3.5,0.2c0.3,0,0.6,0,0.9,0S95.6,33.3,95.9,33.3L95.9,33.3z"/>
	<path d="M103.5,34.4c0,0.3-0.2,0.6-0.5,0.9c-0.6,0.2-1.5,0.6-2.8,1.1c0-0.3,0.1-0.5,0.4-0.8C101.2,35.4,102.1,35,103.5,34.4z"/>
	<path d="M106.2,27.9c0,0.7-0.3,1.5-0.9,2.2c-0.5,0.7-1.2,1.3-2,1.7c-0.8,0.5-1.4,0.7-1.9,0.7c-0.4,0-0.9-0.1-1.5-0.2
		c-0.4-0.1-0.9-0.3-1.4-0.5c-0.5-0.2-0.9-0.4-1.4-0.5l0.2-0.4c0.4,0.1,0.9,0.2,1.3,0.3s0.9,0.1,1.3,0.1c0.8,0,1.7-0.3,2.6-0.8
		c0.8-0.5,1.5-1.1,2.1-1.9s0.9-1.4,0.9-2c0-0.5-0.1-1.1-0.4-1.6c-0.2-0.5-0.6-0.9-1-1.4l0.6-1.5c0.5,0.5,0.9,1,1.2,1.5
		c0.3,0.6,0.4,1.2,0.4,1.9V27.9z"/>
	<path d="M110.8,27.9h-1.4c-0.4,0-0.8-0.2-1.1-0.5c-0.2-0.3-0.4-0.8-0.5-1.4s-0.2-1.4-0.3-2.3c0-0.7-0.1-1.5-0.1-2.3
		s-0.1-1.4-0.2-1.8s-0.2-0.7-0.3-1c-0.1-0.3-0.3-0.6-0.6-0.8l1.2-1.9c0.3,0.8,0.4,1.7,0.5,2.8c0.1,0.7,0.1,2.3,0.2,4.8
		c0.1,1.2,0.3,1.9,0.5,2.2c0.2,0.3,0.4,0.4,0.6,0.4h1.4V27.9z"/>
	<path d="M115.9,16.3c0,0.3-0.2,0.6-0.5,0.9c-0.6,0.2-1.5,0.6-2.8,1.1c0-0.3,0.1-0.6,0.4-0.8C113.5,17.3,114.5,16.9,115.9,16.3z"/>
	<path d="M115.7,27.9h-5.6v-1.7h4.9c0-0.8-0.1-1.4-0.3-1.8c-0.1-0.3-0.4-0.7-0.9-1.2l0.8-1.6c0.5,0.6,0.8,1.1,0.9,1.4
		c0.2,0.5,0.3,1.3,0.3,2.5V27.9z M114.7,30.2l-0.8,1.4l-1.6-0.8l0.7-1.4L114.7,30.2z"/>
	<path d="M128.8,15c0,0.2,0,0.5-0.1,0.7s-0.2,0.4-0.3,0.6c0.1,0.1,0.2,0.1,0.2,0.2s0.1,0.2,0.1,0.2c0,0.3,0,0.6-0.1,0.9l-0.8-0.7
		c-0.3,0.4-0.6,0.6-1,0.8c-0.5,0.2-1,0.4-1.5,0.4c0.3-0.4,0.4-0.7,0.4-0.7c0.1-0.2,0.1-0.3,0.1-0.5s0-0.3-0.1-0.4s-0.2-0.2-0.3-0.2
		c-0.1,0-0.3,0.1-0.4,0.2c0,0.1-0.1,0.2-0.3,0.4c0-0.5,0.1-0.8,0.2-1c0.1-0.4,0.3-0.5,0.6-0.5c0.2,0,0.4,0.1,0.5,0.3
		c0.1,0.2,0.2,0.5,0.2,0.7c0,0.1,0,0.3,0,0.4c0,0.2-0.1,0.3-0.1,0.4c0.4-0.1,0.9-0.3,1.3-0.7c-0.1-0.1-0.2-0.2-0.3-0.3
		c-0.2-0.2-0.3-0.4-0.3-0.6c0-0.3,0.1-0.6,0.4-0.9c0.3-0.3,0.6-0.5,0.9-0.5c0.2,0,0.3,0.1,0.4,0.2S128.8,14.8,128.8,15z M128.2,15.6
		c0-0.1,0-0.3-0.1-0.4c-0.1-0.1-0.2-0.2-0.3-0.2c-0.1,0-0.2,0.1-0.2,0.3c0,0.1,0.1,0.2,0.2,0.4c0,0,0.1,0.1,0.3,0.3
		C128.1,15.8,128.2,15.7,128.2,15.6z"/>
	<path d="M137.7,27.9h-0.8c-0.4,0-0.7-0.1-1-0.2s-0.6-0.3-0.9-0.5c-0.3,0.2-0.5,0.4-0.7,0.5c-0.3,0.1-0.8,0.2-1.3,0.2h-1.2
		c0,0.6-0.1,1.2-0.4,1.7c-0.4,0.7-0.9,1.3-1.7,1.7c-1,0.5-2.2,0.8-3.6,0.8c-1.3,0-2.3-0.2-3-0.7c-0.8-0.5-1.1-1.3-1.1-2.3
		c0-0.6,0.1-1.1,0.2-1.7s0.3-1.1,0.6-1.7c0.1-0.4,0.4-0.9,0.7-1.6l0.4,0.2c-0.5,0.9-0.8,1.7-0.9,2.2s-0.2,1-0.2,1.5
		c0,0.8,0.3,1.4,0.9,1.8s1.4,0.6,2.5,0.6c1.3,0,2.4-0.2,3.3-0.7c1.2-0.5,1.8-1.3,1.8-2.3c0-0.7-0.1-1.3-0.4-1.9
		c-0.2-0.5-0.5-0.9-0.8-1.3l0.8-2c0.3,0.5,0.5,1,0.7,1.4c0.2,0.6,0.2,1.4,0.2,2.4h1.2c0.6,0,1.1-0.1,1.3-0.3
		c0.2-0.2,0.3-0.4,0.3-0.8c0-0.2,0-0.4,0-0.6s-0.1-0.4-0.1-0.6l0.4-0.6l0.2,0.9c0.1,0.6,0.3,1.1,0.6,1.4c0.3,0.3,0.6,0.5,1.1,0.5
		c0.1,0,0.3,0,0.3-0.1s0.1-0.2,0.1-0.4c0-0.3-0.1-0.7-0.3-1c-0.1-0.3-0.3-0.5-0.6-0.8l0.7-1.1c0.3,0.5,0.5,0.8,0.6,1
		c0.1,0.4,0.2,1,0.2,1.8V27.9z"/>
	<path d="M143.3,29.6c0,0.3-0.2,0.6-0.5,0.9c-0.6,0.2-1.5,0.6-2.8,1.1c0-0.3,0.1-0.5,0.4-0.8C140.9,30.6,141.9,30.2,143.3,29.6z"/>
	<path d="M144.4,27.9H140c-0.4,0-0.7-0.1-1-0.3s-0.4-0.5-0.4-0.8c0-0.2,0-0.5,0-0.7s0.1-0.4,0.1-0.7h0.2c0.1,0.3,0.2,0.5,0.4,0.6
		c0.2,0.1,0.4,0.1,0.6,0.1h3.8c0-1.2-0.2-2.1-0.5-2.8c-0.4-0.9-1.1-1.5-2-1.8l0.1-1.9c1.1,0.6,1.9,1.4,2.4,2.6
		c0.4,1,0.6,2.3,0.6,3.8V27.9z"/>
	<path d="M149.2,13.9c0,0.4-0.1,0.8-0.4,1.1s-0.7,0.5-1.1,0.5c-0.4,0-0.6-0.1-0.8-0.3s-0.3-0.5-0.3-0.8c0-0.5,0.1-0.9,0.4-1.3
		s0.6-0.6,1-0.6c0.4,0,0.6,0.1,0.9,0.4S149.2,13.5,149.2,13.9z M148.6,14.2c0-0.2-0.1-0.4-0.4-0.6s-0.5-0.3-0.6-0.3
		c-0.2,0-0.3,0.1-0.4,0.2s-0.2,0.3-0.2,0.5c0,0.2,0.1,0.4,0.3,0.5c0.2,0.1,0.4,0.1,0.7,0.1c0.2,0,0.3,0,0.4-0.1
		S148.6,14.3,148.6,14.2z"/>
	<path d="M149.3,27.9h-5.6v-1.7h4.9c0-0.8-0.1-1.4-0.3-1.8c-0.1-0.3-0.4-0.7-0.9-1.2l0.8-1.6c0.5,0.6,0.8,1.1,0.9,1.4
		c0.2,0.5,0.3,1.3,0.3,2.5V27.9z M148.5,18.8l-0.7,1.4l-1.6-0.8l0.7-1.4L148.5,18.8z"/>
	<path d="M154.3,16.3c0,0.3-0.2,0.6-0.5,0.9c-0.6,0.2-1.5,0.6-2.8,1.1c0-0.3,0.1-0.6,0.4-0.8C151.9,17.3,152.9,16.9,154.3,16.3z"/>
	<path d="M157.2,27.9h-3.6c0.4,0.2,0.8,0.5,1.1,0.8c0.4,0.4,0.6,0.9,0.6,1.5c0,0.5-0.1,0.9-0.2,1.2c-0.2,0.4-0.5,0.6-0.9,0.6
		c-0.8,0-1.5-0.3-2.1-0.8c-0.8-0.7-1.2-1.5-1.2-2.6l0-0.7h-2.2v-1.7h2.5c0.2-0.6,0.5-1.2,0.8-1.7c0.3-0.7,0.7-1.2,1.1-1.6
		c0.4-0.5,0.8-0.7,1.2-0.7c0.2,0,0.4,0.2,0.5,0.5s0.2,0.7,0.2,1.1c0,0.6-0.1,1-0.4,1.4c-0.2,0.2-0.7,0.5-1.6,1h4.3V27.9z M154.3,30
		c0-0.5-0.4-1-1.1-1.5c-0.6-0.4-1.2-0.6-1.8-0.7c0,0.7,0.2,1.3,0.5,1.8c0.4,0.6,1,0.8,1.9,0.8c0.2,0,0.3,0,0.4-0.1
		S154.3,30.1,154.3,30z M153.9,24.5c0-0.6-0.1-0.9-0.4-0.9c-0.3,0-0.6,0.3-1,0.9c-0.2,0.3-0.5,0.8-0.8,1.5c0.6-0.2,1.1-0.4,1.5-0.6
		C153.7,25.1,153.9,24.8,153.9,24.5z"/>
	<path d="M162.3,17c0,0.1,0,0.2,0,0.3s0,0.2-0.1,0.4l-0.8-0.5c-0.3,0.4-0.5,0.6-0.7,0.7c-0.5,0.5-0.9,0.7-1.2,0.7h-0.7
		c0.3-0.2,0.7-0.4,1.2-0.8c0.4-0.3,0.7-0.6,0.9-0.9c-0.2-0.1-0.4-0.3-0.5-0.4c-0.1-0.2-0.2-0.4-0.2-0.6c0-0.4,0.1-0.8,0.4-1.1
		s0.5-0.5,0.8-0.5c0.2,0,0.3,0.1,0.5,0.3s0.2,0.4,0.2,0.7c0,0.1,0,0.3-0.1,0.4s-0.1,0.4-0.2,0.7c0.1,0.1,0.2,0.2,0.3,0.3
		C162.2,16.8,162.3,16.9,162.3,17z M161.5,15.9c0-0.2-0.1-0.3-0.2-0.5s-0.2-0.2-0.4-0.2c-0.1,0-0.1,0-0.2,0.1s-0.1,0.1-0.1,0.1
		c0,0.1,0.1,0.3,0.2,0.4l0.4,0.3C161.5,16,161.5,15.9,161.5,15.9z"/>
	<path d="M165.1,27.9h-1c-0.4,0-0.9-0.1-1.5-0.3c-0.6-0.2-1.2-0.5-1.7-0.9c-0.4,0.5-0.8,0.8-1.2,1s-1,0.3-1.7,0.3h-1.5v-1.7h1.5
		c0.6,0,1.1-0.1,1.6-0.4c0.4-0.2,0.7-0.6,1-1c0.4-0.6,0.9-1.1,1.5-1.5c0.5-0.4,1-0.6,1.4-0.7c0.4,0.7,0.8,1.3,1.1,1.8
		c0.4,0.7,0.5,1.3,0.5,1.8V27.9z M163.9,25.9c-0.1-0.4-0.2-0.7-0.4-1.1c-0.1-0.3-0.3-0.6-0.6-0.9c-0.3,0.1-0.6,0.2-0.8,0.4
		c-0.1,0.1-0.3,0.4-0.5,0.7c0.2,0.3,0.6,0.5,1,0.7s0.8,0.3,1.2,0.4L163.9,25.9z"/>
	<path class="st0" d="M176.2,16c0,0.1,0,0.2,0,0.3s0,0.2-0.1,0.4l-0.8-0.5c-0.3,0.4-0.5,0.6-0.7,0.7c-0.5,0.5-0.9,0.7-1.2,0.7h-0.7
		c0.3-0.2,0.7-0.4,1.2-0.8c0.4-0.3,0.7-0.6,0.9-0.9c-0.2-0.1-0.4-0.3-0.5-0.4c-0.1-0.2-0.2-0.4-0.2-0.6c0-0.4,0.1-0.8,0.4-1.1
		s0.5-0.5,0.8-0.5c0.2,0,0.3,0.1,0.5,0.3s0.2,0.4,0.2,0.7c0,0.1,0,0.3-0.1,0.4s-0.1,0.4-0.2,0.7c0.1,0.1,0.2,0.2,0.3,0.3
		C176.2,15.8,176.2,15.9,176.2,16z M175.5,14.9c0-0.2-0.1-0.3-0.2-0.5s-0.2-0.2-0.4-0.2c-0.1,0-0.1,0-0.2,0.1s-0.1,0.1-0.1,0.1
		c0,0.1,0.1,0.3,0.2,0.4l0.4,0.3C175.4,15,175.5,15,175.5,14.9z"/>
	<path class="st0" d="M177.4,27.9H173c-0.4,0-0.7-0.1-1-0.3s-0.4-0.5-0.4-0.8c0-0.2,0-0.5,0-0.7s0.1-0.4,0.1-0.7h0.2
		c0.1,0.3,0.2,0.5,0.4,0.6c0.2,0.1,0.4,0.1,0.6,0.1h3.8c0-1.2-0.2-2.1-0.5-2.8c-0.4-0.9-1.1-1.5-2-1.8l0.1-1.9
		c1.1,0.6,1.9,1.4,2.4,2.6c0.4,1,0.6,2.3,0.6,3.8V27.9z"/>
	<path class="st0" d="M185.2,27.9h-1c-0.4,0-0.9-0.1-1.5-0.3c-0.6-0.2-1.2-0.5-1.7-0.9c-0.4,0.5-0.8,0.8-1.2,1s-1,0.3-1.7,0.3h-1.5
		v-1.7h1.5c0.6,0,1.1-0.1,1.6-0.4c0.4-0.2,0.7-0.6,1-1c0.4-0.6,0.9-1.1,1.5-1.5c0.5-0.4,1-0.6,1.4-0.7c0.4,0.7,0.8,1.3,1.1,1.8
		c0.4,0.7,0.5,1.3,0.5,1.8V27.9z M184.1,25.9c-0.1-0.4-0.2-0.7-0.4-1.1c-0.1-0.3-0.3-0.6-0.6-0.9c-0.3,0.1-0.6,0.2-0.8,0.4
		c-0.1,0.1-0.3,0.4-0.5,0.7c0.2,0.3,0.6,0.5,1,0.7s0.8,0.3,1.2,0.4L184.1,25.9z"/>
	<path class="st0" d="M192,12.5c0,0.3-0.2,0.6-0.5,0.9c-0.6,0.2-1.5,0.6-2.8,1.1c0-0.3,0.1-0.6,0.4-0.8
		C189.6,13.4,190.6,13,192,12.5z"/>
	<path class="st0" d="M191.5,16.9c0,0.4-0.1,0.8-0.4,1.1s-0.7,0.5-1.1,0.5c-0.4,0-0.6-0.1-0.8-0.3s-0.3-0.5-0.3-0.8
		c0-0.5,0.1-0.9,0.4-1.3c0.3-0.4,0.6-0.6,1-0.6c0.4,0,0.6,0.1,0.9,0.4C191.4,16.1,191.5,16.5,191.5,16.9z M190.9,17.1
		c0-0.2-0.1-0.4-0.4-0.6s-0.5-0.3-0.6-0.3c-0.2,0-0.3,0.1-0.4,0.2s-0.2,0.3-0.2,0.5c0,0.2,0.1,0.4,0.3,0.5c0.2,0.1,0.4,0.1,0.7,0.1
		c0.2,0,0.3,0,0.4-0.1S190.9,17.2,190.9,17.1z"/>
	<path class="st0" d="M195.8,27.9h-11.3v-1.7h8c-0.7-0.5-1.2-0.9-1.7-1.2c-0.6-0.4-1.1-0.6-1.6-0.8c-0.5-0.2-1.1-0.3-1.6-0.3
		c-0.3,0-0.7,0-1,0.1c0.2-0.5,0.4-0.9,0.7-1.2c0.4-0.4,1-0.6,1.7-0.6c0.7,0,1.4,0.3,2.4,1c0.4,0.3,1.2,0.9,2.2,1.9
		c0.8,0.7,1.3,1.1,1.6,1.2h0.6V27.9z"/>
	<path class="st0" d="M199.7,10.2c0,0.3-0.2,0.6-0.5,0.9c-0.6,0.2-1.5,0.6-2.8,1.1c0-0.3,0.1-0.6,0.4-0.8
		C197.3,11.2,198.3,10.8,199.7,10.2z"/>
	<path class="st0" d="M199.4,14.7c0,0.2-0.1,0.3-0.3,0.4c-0.1,0.1-0.3,0.2-0.6,0.3l-1.8,0.6c0-0.3,0.3-0.6,1-0.8
		c-0.2-0.1-0.4-0.2-0.5-0.3c-0.1-0.1-0.2-0.3-0.2-0.4c0-0.2,0.2-0.5,0.5-0.8c0.4-0.4,0.7-0.6,1-0.6c0.1,0,0.2,0,0.3,0.1
		s0.1,0.2,0.1,0.3c0,0.1,0,0.2-0.1,0.3s-0.1,0.2-0.2,0.3c-0.2-0.2-0.4-0.3-0.7-0.3c-0.1,0-0.3,0-0.4,0.1s-0.2,0.1-0.2,0.2
		c0,0.1,0.2,0.2,0.5,0.4s0.6,0.3,0.8,0.3c0.1,0,0.2,0,0.3,0S199.2,14.8,199.4,14.7z M199.1,25.4c0,0.5-0.1,1-0.3,1.5
		c-0.1,0.3-0.3,0.7-0.6,1.2L198,28c0-0.2,0-0.4,0.1-0.7s0-0.4,0-0.5c0-0.7-0.1-1.6-0.2-2.8s-0.2-2.5-0.4-3.8
		c-0.1-0.8-0.2-1.6-0.3-2.5c0.1-0.3,0.3-0.6,0.4-0.9s0.3-0.6,0.5-0.9c0.1,0.7,0.2,1.8,0.4,3s0.3,2.5,0.4,3.5
		C199.1,23.7,199.1,24.7,199.1,25.4z"/>
</g>
</svg>
