<?xml version="1.0" encoding="utf-8"?>
<!-- Generator: Adobe Illustrator 22.0.1, SVG Export Plug-In . SVG Version: 6.00 Build 0)  -->
<svg version="1.1" id="Layer_1" xmlns="http://www.w3.org/2000/svg" xmlns:xlink="http://www.w3.org/1999/xlink" x="0px" y="0px"
	 viewBox="0 0 185.8 46.1" style="enable-background:new 0 0 185.8 46.1;" xml:space="preserve">
<style type="text/css">
	.st0{fill:#542C0B;}
</style>
<g>
	<path class="st0" d="M72.5,16.6h-1.8c-0.8,1.2-1.5,2.4-2,3.8c-0.6,1.6-0.9,3.3-0.9,5.1c0,1.4,0.2,2.9,0.7,4.5
		c0.5,1.5,1.2,3,2.2,4.5h1.8c-0.5-1.2-0.9-2.1-1.1-2.7c-0.3-1-0.6-2-0.8-3c-0.2-1.1-0.3-2.1-0.3-3.1c0-1.5,0.2-2.9,0.5-4.2
		S71.6,18.4,72.5,16.6z"/>
	<path class="st0" d="M86.2,21c-0.2-1-0.3-1.5-0.3-1.6l0.3,0.1c0.2-0.5,0.4-0.8,0.4-1c0.1-0.2,0.1-0.6,0.2-1.1
		c-0.3-0.2-0.7-0.4-1.1-0.6c-0.3-0.2-0.4-0.4-0.4-0.6c0-0.1,0-0.2,0-0.3L85,15.7c-0.6,1.2-0.9,2.2-0.9,2.8l0.5,0.3
		c0.3,1.5,0.5,2.9,0.8,4.4c0.2,0.9,0.3,1.5,0.3,1.8s0.1,0.6,0.1,0.8c0,0,0,0.1,0,0.2s0,0.2,0,0.3c0,0.7-0.3,1.2-1,1.7
		c-0.7,0.4-1.6,0.6-2.7,0.6c-0.8,0-1.3-0.2-1.8-0.5c-0.4-0.3-0.6-0.7-0.6-1.3c0-0.5,0.1-1.1,0.3-1.6s0.5-1.2,1-1.9l-0.6-0.4
		c-0.7,1.1-1.2,2-1.5,2.8c-0.2,0.7-0.3,1.5-0.3,2.3c0,1,0.3,1.7,0.9,2.2S80.9,31,82,31c1.3,0,2.4-0.4,3.4-1.1s1.5-1.6,1.5-2.5v-2.1
		c0-0.2-0.1-0.8-0.3-1.8C86.5,22.8,86.4,22,86.2,21z"/>
	<polygon class="st0" points="94.4,30.5 96.5,31.7 97.6,29.6 95.5,28.4 	"/>
	<path class="st0" d="M102.4,19.5c0.1-0.3,0.3-0.6,0.4-1s0.2-0.8,0.2-1.2c-0.5-0.2-0.9-0.4-1.1-0.6c-0.3-0.2-0.4-0.4-0.4-0.6
		c0-0.2,0-0.3,0-0.3l-0.4-0.2c-0.3,0.6-0.6,1.2-0.7,1.7c-0.1,0.4-0.2,0.7-0.2,1.1l0.6,0.4l1.1,6.3h-3.3c0-1.1-0.1-1.9-0.3-2.5
		c-0.2-0.6-0.5-1.1-1-1.7l-0.7,2.2c0.3,0.4,0.6,0.7,0.6,0.8c0.2,0.3,0.3,0.6,0.4,1.1h-4.2v-0.5c0-1.4-0.2-2.6-0.5-3.5
		s-0.9-1.7-1.7-2.3l-0.7,2.9c0.5,0.3,0.9,0.7,1.2,1.2c0.4,0.5,0.6,1.3,0.7,2.2h-3.2c-0.2,0-0.4,0-0.6-0.1s-0.3-0.3-0.3-0.5h-0.4
		c-0.1,0.3-0.1,0.6-0.1,1c0,0.3,0,0.6,0,0.9c0,0.5,0.1,0.8,0.4,1c0.2,0.2,0.5,0.3,0.9,0.3h3.6h0.6h4.5h0.6h4.5v-2.5l-1-5.7
		L102.4,19.5z"/>
	<path class="st0" d="M106,19.7l-0.6-3.3c-0.3,0.7-0.6,1.2-0.8,1.7c-0.2,0.5-0.3,0.8-0.3,1c0,0.1,0,0.4,0.1,0.7
		c0.2,1,0.4,1.8,0.5,2.6c0.1,0.7,0.2,1.4,0.2,2.2s0.1,1.3,0.1,1.7c0,0.5-0.1,1.1-0.2,1.9l0.6,0.2c0.4-0.8,0.6-1.4,0.8-1.8
		c0.1-0.5,0.2-1,0.2-1.5c0-0.6,0-1.3-0.1-2C106.3,22,106.2,20.9,106,19.7z"/>
	<path class="st0" d="M117,20.8c-0.5-1.5-1.2-2.9-2.2-4.2H113c0.8,1.9,1.4,3.5,1.7,4.8c0.3,1.3,0.5,2.7,0.5,4.2c0,0.7,0,1.4-0.1,2.1
		s-0.2,1.4-0.4,2.2c-0.2,0.8-0.4,1.4-0.6,2s-0.6,1.4-1.1,2.5h1.8c1.1-1.6,1.8-3.3,2.3-4.9c0.4-1.5,0.6-2.9,0.6-4.2
		C117.8,23.8,117.5,22.3,117,20.8z"/>
</g>
</svg>
