<?xml version="1.0" encoding="utf-8"?>
<!-- Generator: Adobe Illustrator 22.0.1, SVG Export Plug-In . SVG Version: 6.00 Build 0)  -->
<svg version="1.1" id="Layer_1" xmlns="http://www.w3.org/2000/svg" xmlns:xlink="http://www.w3.org/1999/xlink" x="0px" y="0px"
	 viewBox="0 0 185.8 46.1" style="enable-background:new 0 0 185.8 46.1;" xml:space="preserve">
<style type="text/css">
	.st0{fill:#CC4A6C;}
</style>
<g>
	<path class="st0" d="M36,15.5h-1.8c-0.8,1.2-1.5,2.4-2,3.8c-0.6,1.6-0.9,3.3-0.9,5.1c0,1.4,0.2,2.9,0.7,4.5c0.5,1.5,1.2,3,2.2,4.5
		h1.8c-0.5-1.2-0.9-2.1-1.1-2.7c-0.3-1-0.6-2-0.8-3c-0.2-1.1-0.3-2.1-0.3-3.1c0-1.5,0.2-2.9,0.5-4.2C34.5,18.9,35.1,17.3,36,15.5z"
		/>
	<polygon class="st0" points="57.6,17.8 58.9,18.6 59.9,16.7 58.2,15.7 57.4,17.2 56.1,16.5 55.1,18.3 56.8,19.3 	"/>
	<path class="st0" d="M58.8,19.9l-0.7,2.2c0.3,0.4,0.6,0.7,0.6,0.8c0.2,0.3,0.3,0.6,0.4,1.1h-4.2h-0.6H53c-0.3,0-0.7,0-1,0
		c-0.4,0-0.8,0.1-1.2,0.1c0.6-0.3,1.1-0.7,1.4-1.2c0.3-0.5,0.4-1.1,0.4-1.8c0-0.5-0.1-1-0.3-1.6c-0.2-0.6-0.5-0.9-0.8-0.9
		c-0.4,0-0.8,0.4-1.3,1.1c-0.5,0.8-1.1,2.2-1.8,4c-0.2,0-0.4,0.1-0.8,0.2c-0.3,0.1-0.7,0.1-1,0.1h-0.2h-0.6H45
		c-0.3,0-0.5-0.2-0.6-0.6c-0.2-0.5-0.3-1.4-0.3-2.7v-1.8c0-0.9-0.1-1.6-0.3-2.2c-0.1-0.5-0.4-1-0.8-1.5l-1,2.3
		c0.3,0.3,0.5,0.5,0.6,0.7c0.2,0.3,0.3,0.8,0.3,1.4v2.6c0,1.6,0.2,2.7,0.5,3.3c0.3,0.6,0.8,0.9,1.6,0.9h0.6h0.6h1.5
		c0,1.3,0.3,2.4,0.9,3.3c0.6,0.9,1.4,1.4,2.2,1.4c0.3,0,0.6-0.1,0.9-0.4s0.5-0.8,0.7-1.6c0.1-0.4,0.2-0.7,0.3-0.8
		c0.1-0.3,0.1-0.5,0.1-0.8c0-0.3-0.1-0.5-0.3-0.6c-0.2-0.1-0.4-0.3-0.7-0.4c0.3,0,0.5,0,0.7,0s0.3,0,0.4,0h1.2h0.6H60v-2.4
		c0-1.1-0.1-2-0.3-2.6C59.6,21,59.3,20.5,58.8,19.9z M50,21.9c0.2-0.3,0.4-0.5,0.6-0.5c0.1,0,0.2,0.1,0.4,0.4
		c0.1,0.2,0.2,0.4,0.2,0.6c0,0.2-0.1,0.4-0.4,0.6c-0.3,0.2-0.8,0.4-1.5,0.6C49.5,22.8,49.8,22.3,50,21.9z M51.2,28.8
		c-0.5,0-1.1-0.2-1.5-0.6c-0.5-0.4-0.8-0.9-0.9-1.4c0.9,0.2,1.6,0.5,2.1,0.8c0.4,0.3,0.6,0.6,0.6,1C51.5,28.7,51.4,28.8,51.2,28.8z"
		/>
	<path class="st0" d="M63,18.6l-0.6-3.3c-0.3,0.7-0.6,1.2-0.8,1.7c-0.2,0.5-0.3,0.8-0.3,1c0,0.1,0,0.4,0.1,0.7
		c0.2,1,0.4,1.8,0.5,2.6c0.1,0.7,0.2,1.4,0.2,2.2c0.1,0.7,0.1,1.3,0.1,1.7c0,0.5-0.1,1.1-0.2,1.9l0.6,0.2c0.4-0.8,0.6-1.4,0.8-1.8
		c0.1-0.5,0.2-1,0.2-1.5c0-0.6,0-1.3-0.1-2C63.3,20.9,63.2,19.8,63,18.6z"/>
	<path class="st0" d="M80.5,22.7c-0.7-0.7-1.2-1.3-1.6-1.6c-0.5-0.4-0.9-0.8-1.3-1s-0.8-0.3-1.2-0.3c-0.5,0-1,0.2-1.4,0.6
		c-0.4,0.4-0.8,0.9-1.1,1.7c0.3-0.1,0.4-0.1,0.6-0.1c0.1,0,0.3,0,0.4,0c0.5,0,1.1,0.2,1.7,0.5c0.6,0.3,1.3,0.9,2.1,1.7h-5.9v-0.5
		c0-1-0.2-1.8-0.5-2.4c-0.3-0.7-0.8-1-1.3-1c-0.6,0-1.1,0.5-1.6,1.4c-0.4,0.9-0.6,1.8-0.6,2.7c0,0.7,0.2,1.2,0.5,1.6
		c0.4,0.4,0.8,0.6,1.5,0.6c0.2,0,0.4,0,0.6-0.1c-0.7,0.9-1.5,1.5-2.2,1.9c-0.6,0.3-1.2,0.5-1.8,0.5c-0.4,0-0.8-0.1-1.2-0.2
		c-0.4-0.1-1-0.4-1.6-0.9l-0.4,0.5c1.3,1,2.2,1.6,2.8,1.9c0.6,0.3,1.2,0.5,1.7,0.5c0.9,0,1.8-0.5,2.7-1.6c0.7-0.8,1.1-1.7,1.3-2.5
		h10v-2.5c-0.5-0.1-0.9-0.2-1.1-0.4C81.3,23.5,81,23.2,80.5,22.7z M71.3,24.1c-0.4,0-0.7-0.1-1-0.2s-0.4-0.3-0.4-0.6
		c0-0.2,0.1-0.3,0.2-0.5c0.1-0.2,0.3-0.2,0.5-0.2c0.5,0,0.9,0.5,1.1,1.5H71.3z"/>
	<polygon class="st0" points="79,16.7 76.8,15.5 75.7,17.6 77.8,18.8 	"/>
	<path class="st0" d="M85.9,14.5c0.1-0.1,0.2-0.2,0.2-0.4c-0.4,0.1-0.6,0.1-0.7,0.1c-0.1,0-0.3-0.1-0.6-0.3s-0.4-0.3-0.4-0.4
		c0.1-0.1,0.1-0.1,0.2-0.1c0.1-0.1,0.2-0.1,0.3-0.1s0.3,0.1,0.6,0.2c0.1-0.1,0.1-0.2,0.2-0.3c0-0.1,0-0.2,0-0.3c0-0.1,0-0.2-0.1-0.3
		c-0.1-0.1-0.2-0.1-0.3-0.1c-0.4,0-0.8,0.3-1.2,0.8c-0.1,0.1-0.1,0.2-0.2,0.3c0,0.1-0.1,0.2-0.1,0.3c0,0.1,0,0.2,0.1,0.3
		c0.1,0.1,0.2,0.2,0.4,0.3c-0.2,0.1-0.4,0.1-0.5,0.2c-0.1,0.1-0.2,0.2-0.3,0.5l2-0.6C85.7,14.7,85.8,14.6,85.9,14.5z"/>
	<path class="st0" d="M85.6,18.6l-0.6-3.3c-0.3,0.7-0.6,1.2-0.8,1.7c-0.2,0.5-0.3,0.8-0.3,1c0,0.1,0,0.4,0.1,0.7
		c0.2,1,0.4,1.8,0.5,2.6c0.1,0.7,0.2,1.4,0.2,2.2c0.1,0.7,0.1,1.3,0.1,1.7c0,0.5-0.1,1.1-0.2,1.9l0.6,0.2c0.4-0.8,0.6-1.4,0.8-1.8
		c0.1-0.5,0.2-1,0.2-1.5c0-0.6,0-1.3-0.1-2C86,20.9,85.8,19.8,85.6,18.6z"/>
	<path class="st0" d="M93.6,20.1c-0.6,0-1.1,0.5-1.6,1.4c-0.4,0.9-0.6,1.8-0.6,2.7c0,0.7,0.2,1.2,0.5,1.6c0.4,0.4,0.8,0.6,1.5,0.6
		c0.2,0,0.4,0,0.6-0.1c-0.7,0.9-1.5,1.5-2.2,1.9c-0.6,0.3-1.2,0.5-1.8,0.5c-0.4,0-0.8-0.1-1.2-0.2c-0.4-0.1-1-0.4-1.6-0.9l-0.4,0.5
		c1.3,1,2.2,1.6,2.8,1.9c0.6,0.3,1.2,0.5,1.7,0.5c0.9,0,1.8-0.5,2.7-1.6s1.4-2.1,1.4-3.2v-2.4c0-1-0.2-1.8-0.5-2.4
		C94.5,20.4,94.1,20.1,93.6,20.1z M93.9,24.1c-0.4,0-0.7-0.1-1-0.2s-0.4-0.3-0.4-0.6c0-0.2,0.1-0.3,0.2-0.5c0.1-0.2,0.3-0.2,0.5-0.2
		c0.5,0,0.9,0.5,1.1,1.5H93.9z"/>
	<path class="st0" d="M109.9,20.6l-0.8,2.5c0.4,0.8,0.7,1.4,0.9,1.8c0.1,0.4,0.2,0.8,0.2,1.1c0,0.6-0.4,1.1-1.1,1.6
		c-0.8,0.4-1.7,0.6-2.8,0.6c-1.1,0-2-0.2-2.7-0.6c-0.7-0.4-1-0.9-1-1.6c0-0.5,0.1-1,0.3-1.5c0.2-0.5,0.6-1.2,1.2-2.3l-0.6-0.4
		c-0.8,1.3-1.4,2.3-1.7,3.1c-0.3,0.7-0.4,1.5-0.4,2.4c0,1,0.4,1.8,1.2,2.3c0.8,0.5,2,0.8,3.5,0.8c0.8,0,1.5-0.1,2.3-0.3
		c0.7-0.2,1.3-0.5,1.7-0.8c0.4-0.3,0.7-0.7,0.8-1.2c0.2-0.5,0.3-1.2,0.3-2.1v-1.9c0-0.8-0.1-1.5-0.3-2.1
		C110.6,21.9,110.3,21.4,109.9,20.6z"/>
	<polygon class="st0" points="107.9,18.8 105.7,17.7 104.6,19.8 106.8,20.9 	"/>
	<path class="st0" d="M113.8,18.6l-0.6-3.3c-0.3,0.7-0.6,1.2-0.8,1.7c-0.2,0.5-0.3,0.8-0.3,1c0,0.1,0,0.4,0.1,0.7
		c0.2,1,0.4,1.8,0.5,2.6c0.1,0.7,0.2,1.4,0.2,2.2c0.1,0.7,0.1,1.3,0.1,1.7c0,0.5-0.1,1.1-0.2,1.9l0.6,0.2c0.4-0.8,0.6-1.4,0.8-1.8
		c0.1-0.5,0.2-1,0.2-1.5c0-0.6,0-1.3-0.1-2C114.2,20.9,114,19.8,113.8,18.6z"/>
	<path class="st0" d="M113,29.6c-0.3-0.2-0.4-0.3-0.4-0.4c0.1-0.1,0.1-0.1,0.2-0.1c0.1-0.1,0.2-0.1,0.3-0.1s0.3,0.1,0.6,0.2
		c0.1-0.1,0.1-0.2,0.2-0.3c0-0.1,0-0.2,0-0.3c0-0.1,0-0.2-0.1-0.3c-0.1-0.1-0.2-0.1-0.3-0.1c-0.4,0-0.8,0.3-1.2,0.8
		c-0.1,0.1-0.1,0.2-0.2,0.3c0,0.1-0.1,0.2-0.1,0.3c0,0.1,0,0.2,0.1,0.3c0.1,0.1,0.2,0.2,0.4,0.3c-0.2,0.1-0.4,0.2-0.5,0.3
		c-0.1,0.1-0.2,0.2-0.3,0.5l2-0.6c0.1,0,0.2-0.1,0.3-0.2c0.1-0.1,0.2-0.2,0.2-0.4c-0.4,0.1-0.6,0.1-0.7,0.1
		C113.5,29.9,113.3,29.8,113,29.6z"/>
	<polygon class="st0" points="129.5,29.4 131.6,30.6 132.8,28.5 130.6,27.3 	"/>
	<polygon class="st0" points="139.9,16.7 137.8,15.5 136.6,17.6 138.8,18.8 	"/>
	<path class="st0" d="M141.5,22.7c-0.7-0.7-1.2-1.3-1.6-1.6c-0.5-0.4-0.9-0.8-1.3-1s-0.8-0.3-1.2-0.3c-0.5,0-1,0.2-1.4,0.6
		c-0.4,0.4-0.8,0.9-1.1,1.7c0.3-0.1,0.4-0.1,0.6-0.1c0.1,0,0.3,0,0.4,0c0.5,0,1.1,0.2,1.7,0.5c0.6,0.3,1.3,0.9,2.1,1.7h-5.9
		c0-1.1-0.1-1.9-0.3-2.5c-0.2-0.6-0.5-1.1-1-1.7l-0.7,2.2c0.3,0.4,0.6,0.7,0.6,0.8c0.2,0.3,0.3,0.6,0.4,1.1h-4.2V24
		c0-0.7-0.1-1.4-0.3-1.9c-0.2-0.6-0.6-1.1-1-1.5l-0.5,2.5c0.3,0.3,0.6,0.7,0.8,1.1c0.2,0.4,0.3,0.7,0.3,1c0,0.5-0.5,1.2-1.5,2.1
		c-0.7,0.7-1.3,1.1-1.7,1.3s-0.9,0.4-1.3,0.4c-0.4,0-0.8-0.1-1.1-0.2c-0.3-0.1-0.8-0.4-1.3-0.8l-0.4,0.6c1.2,0.8,2,1.3,2.6,1.6
		c0.6,0.3,1.2,0.5,1.8,0.5c0.5,0,1-0.3,1.7-0.8c0.6-0.5,1.1-1,1.5-1.6c0.4-0.6,0.6-1.1,0.6-1.5v-0.2h4.5h0.6h9.9v-2.5
		c-0.5-0.1-0.9-0.2-1.1-0.4C142.3,23.5,142,23.2,141.5,22.7z"/>
	<path class="st0" d="M153.5,19.7c-0.5-1.5-1.2-2.9-2.2-4.2h-1.8c0.8,1.9,1.4,3.5,1.7,4.8c0.3,1.3,0.5,2.7,0.5,4.2
		c0,0.7,0,1.4-0.1,2.1s-0.2,1.4-0.4,2.2c-0.2,0.8-0.4,1.4-0.6,2c-0.2,0.6-0.6,1.4-1.1,2.5h1.8c1.1-1.6,1.8-3.3,2.3-4.9
		c0.4-1.5,0.6-2.9,0.6-4.2C154.3,22.7,154,21.2,153.5,19.7z"/>
</g>
</svg>
