<?xml version="1.0" encoding="utf-8"?>
<!-- Generator: Adobe Illustrator 22.0.1, SVG Export Plug-In . SVG Version: 6.00 Build 0)  -->
<svg version="1.1" id="Layer_1" xmlns="http://www.w3.org/2000/svg" xmlns:xlink="http://www.w3.org/1999/xlink" x="0px" y="0px"
	 viewBox="0 0 170.8 46.9" style="enable-background:new 0 0 170.8 46.9;" xml:space="preserve">
<style type="text/css">
	.st0{fill:#542C0B;}
	.st1{fill:none;}
</style>
<g>
	<path class="st0" d="M18,35h-1.8c-0.9-1.4-1.7-2.9-2.2-4.5c-0.5-1.5-0.7-3-0.7-4.5c0-1.8,0.3-3.5,0.9-5.1c0.5-1.4,1.2-2.7,2-3.8H18
		c-0.8,1.9-1.4,3.5-1.7,4.8c-0.3,1.3-0.5,2.7-0.5,4.2c0,1,0.1,2.1,0.3,3.1c0.2,1.1,0.4,2.1,0.8,3C17.1,32.9,17.5,33.8,18,35z"/>
	<path class="st0" d="M38.3,28.3h-1.2c-1.1,0-2.3,0-3.7,0.1c-0.8,0-1.9,0.1-3.2,0.1c-1.3,0.1-2,0.1-2.1,0.1c-1.3,0-2.3-0.2-2.9-0.7
		c-0.5-0.4-0.8-1.1-0.8-2c0-0.7,0.1-1.3,0.2-1.8s0.5-1.4,0.9-2.6l0.6,0.3c-0.4,1.1-0.7,1.8-0.7,2.3c0,0.6,0.3,1.1,0.8,1.4
		c0.6,0.3,1.5,0.5,2.9,0.5c0.9-0.1,1.9-0.1,2.8-0.1s1.8-0.1,2.6-0.1c-0.3-0.1-0.4-0.3-0.5-0.4c-0.1-0.2-0.1-0.4-0.1-0.7
		c0-0.9,0.3-1.8,0.8-2.6c0.6-0.9,1.2-1.4,1.9-1.4s1.1,0.5,1.4,1.4c0.3,0.8,0.4,2.1,0.4,3.8v2.4H38.3z M37.6,17.4l-1.1,2.1l-2.2-1.1
		l1.1-2.1L37.6,17.4z M36.9,24.6c-0.2-0.6-0.4-1-0.5-1.2s-0.3-0.3-0.6-0.3c-0.1,0-0.2,0-0.3,0.1s-0.1,0.2-0.1,0.3
		c0,0.2,0.1,0.4,0.4,0.5C36,24.3,36.4,24.5,36.9,24.6z"/>
	<path class="st0" d="M46.5,28.5c0,0.4-0.2,0.9-0.6,1.5c-0.4,0.6-0.9,1.2-1.5,1.6c-0.6,0.5-1.2,0.8-1.7,0.8s-1.1-0.2-1.8-0.5
		c-0.5-0.3-1.4-0.8-2.6-1.6l0.4-0.6c0.6,0.4,1,0.6,1.3,0.8c0.3,0.1,0.7,0.2,1.1,0.2c0.4,0,0.9-0.1,1.3-0.4s1-0.7,1.7-1.3
		c1-0.9,1.5-1.6,1.5-2.1c0-0.2-0.1-0.6-0.3-1c-0.2-0.5-0.5-0.8-0.8-1.1l0.5-2.5c0.4,0.4,0.7,0.9,1,1.5c0.2,0.6,0.3,1.2,0.3,1.9v2.8
		H46.5z"/>
	<path class="st0" d="M61.2,28.3h-9.8c-0.4,0-0.8-0.1-1.1-0.3s-0.5-0.6-0.7-1.1c-0.4,0.6-0.8,0.9-1.1,1.1s-0.8,0.3-1.3,0.3h-1.3
		v-2.5h1.3c0.7,0,1.3-0.2,1.6-0.5c0.4-0.4,0.7-1.1,0.8-2.2l0.6,0.1c0,0.2,0,0.4,0,0.5c0,0.4,0,0.7,0,1c0,0.4,0.1,0.6,0.3,0.8
		s0.4,0.3,0.7,0.3s0.6-0.1,0.8-0.2c0.3-0.1,0.7-0.4,1.2-0.8l3.3-2.4c0.4-0.3,0.7-0.5,0.9-0.6c0.5-0.3,0.9-0.4,1.3-0.4
		c0.7,0,1.2,0.2,1.7,0.7c0.5,0.6,0.7,1.4,0.7,2.6L61.2,28.3L61.2,28.3z M59.9,24.8c0-0.3-0.2-0.5-0.7-0.7C58.9,24,58.5,24,58,24
		c-0.4,0-0.9,0.1-1.4,0.4s-1.3,0.7-2.2,1.4h2.4C58.9,25.8,59.9,25.5,59.9,24.8z"/>
	<path class="st0" d="M65.7,28.3h-5.1v-2.5h4l-1.1-6.3l-0.6-0.4c0-0.4,0.1-0.7,0.2-1.1c0.1-0.5,0.4-1,0.7-1.7l0.4,0.2
		c0,0,0,0.1,0,0.3c0,0.2,0.1,0.4,0.4,0.6c0.2,0.2,0.6,0.4,1.1,0.6c-0.1,0.4-0.1,0.8-0.2,1.2c-0.1,0.4-0.2,0.7-0.4,1L64.6,20l1,5.7
		L65.7,28.3L65.7,28.3z"/>
	<path class="st0" d="M69.1,25.6c0,0.6-0.1,1.1-0.2,1.5c-0.1,0.5-0.4,1.1-0.8,1.8l-0.6-0.2c0.1-0.8,0.2-1.4,0.2-1.9
		c0-0.4,0-0.9-0.1-1.7c-0.1-0.7-0.1-1.5-0.2-2.2s-0.2-1.6-0.5-2.6c-0.1-0.3-0.1-0.6-0.1-0.7c0-0.2,0.1-0.5,0.3-1
		c0.2-0.5,0.5-1,0.8-1.7l0.6,3.3c0.2,1.3,0.3,2.3,0.4,3.2C69.1,24.3,69.1,25,69.1,25.6z"/>
	<path class="st0" d="M85.3,27.9c0,0.9-0.1,1.5-0.3,2.1c-0.2,0.5-0.4,0.9-0.8,1.2c-0.4,0.3-0.9,0.6-1.7,0.8
		c-0.7,0.2-1.5,0.3-2.3,0.3c-1.5,0-2.7-0.3-3.5-0.8s-1.2-1.3-1.2-2.3c0-0.9,0.1-1.6,0.4-2.4s0.8-1.8,1.7-3.1l0.6,0.4
		c-0.6,1-1,1.8-1.2,2.3s-0.3,1-0.3,1.5c0,0.6,0.3,1.2,1,1.6s1.6,0.6,2.7,0.6s2.1-0.2,2.8-0.6c0.8-0.4,1.1-0.9,1.1-1.6
		c0-0.4-0.1-0.8-0.2-1.1c-0.1-0.4-0.4-1-0.9-1.8l0.8-2.5c0.4,0.8,0.7,1.3,0.8,1.6c0.2,0.5,0.3,1.2,0.3,2.1v1.7H85.3z M82.3,20.6
		l-1.1,2.1L79,21.5l1.1-2.1L82.3,20.6z"/>
	<path class="st0" d="M93.2,28.3c-0.6,0-1.4-0.1-2.3-0.4c-0.8-0.2-1.5-0.5-2-0.8c-0.4,0.5-0.8,0.9-1.3,1.1c-0.3,0.1-0.6,0.1-1,0.1
		h-1.8v-2.5h1.8c0.6,0,1-0.1,1.3-0.2c0.4-0.2,0.7-0.5,0.9-0.9c0.4-0.8,0.8-1.4,1.4-1.9c0.5-0.5,0.9-0.7,1.2-0.7
		c0.3,0,0.7,0.5,1.2,1.4c0.5,1,0.7,1.9,0.7,2.8L93.2,28.3L93.2,28.3z M91.5,25.5c0-0.1-0.1-0.4-0.4-0.7c-0.3-0.4-0.6-0.6-0.8-0.6
		c-0.2,0-0.4,0.3-0.6,0.8c0.3,0.1,0.6,0.2,0.7,0.3c0.5,0.2,0.8,0.3,0.8,0.3C91.4,25.6,91.5,25.6,91.5,25.5z"/>
	<path class="st0" d="M108.7,32.7l-3.5,2.2h-0.9c-1.7,0-3-0.4-3.9-1.1c-1-0.7-1.4-1.8-1.4-3.3c0-0.9,0.1-1.7,0.4-2.4
		c0.3-0.8,0.7-1.5,1.3-2.1c-0.3-0.4-0.6-0.8-0.8-1.2s-0.4-0.8-0.4-1.1c0-0.4,0.1-0.9,0.4-1.6s0.5-1.2,0.8-1.5c0.2-0.3,0.5-0.5,1-0.6
		c0.4-0.2,0.9-0.2,1.4-0.2c0.7,0,1.3,0.2,1.9,0.5s1.1,0.8,1.5,1.3c-0.2,0-0.4,0-0.5,0c-0.2,0-0.3,0-0.5,0c-1.3,0-2.3,0.1-3.1,0.3
		c-0.8,0.2-1.2,0.5-1.2,0.8s0.1,0.5,0.4,0.8s0.8,0.6,1.6,0.9c0.9-0.4,1.5-0.6,2-0.8c0.5-0.1,1.2-0.3,2.1-0.5
		c-0.2,0.5-0.3,0.9-0.4,1.2c-0.1,0.3-0.3,0.7-0.5,1.1c-1.9,0.4-3.4,1.1-4.5,1.9s-1.7,1.6-1.7,2.6c0,0.8,0.5,1.5,1.4,1.9
		c1.1,0.5,2.8,0.8,5.1,0.8h0.2c0.4,0,0.6,0,0.8,0c0.2,0,0.5,0,0.9-0.1L108.7,32.7z"/>
	<path class="st0" d="M117.4,27.7c0,1.1-0.5,2.1-1.4,3.2c-0.9,1.1-1.8,1.6-2.7,1.6c-0.5,0-1.1-0.2-1.7-0.5s-1.5-1-2.8-1.9l0.4-0.5
		c0.7,0.4,1.2,0.7,1.6,0.9c0.4,0.1,0.8,0.2,1.2,0.2c0.6,0,1.2-0.2,1.8-0.5c0.7-0.4,1.4-1,2.2-1.9c-0.3,0-0.5,0.1-0.6,0.1
		c-0.6,0-1.1-0.2-1.5-0.6s-0.5-0.9-0.5-1.6c0-0.9,0.2-1.8,0.6-2.7c0.5-0.9,1-1.4,1.6-1.4c0.5,0,0.9,0.3,1.3,1
		c0.3,0.7,0.5,1.5,0.5,2.4V27.7z M116.2,25.8c-0.2-1-0.5-1.5-1.1-1.5c-0.2,0-0.3,0.1-0.5,0.2c-0.1,0.2-0.2,0.3-0.2,0.5
		s0.1,0.4,0.4,0.6s0.6,0.2,1,0.2C115.8,25.8,116.2,25.8,116.2,25.8z"/>
	<path class="st0" d="M122.5,28.3h-5.8v-2.5h4.9c-0.1-0.4-0.2-0.8-0.4-1.1c-0.1-0.2-0.3-0.4-0.6-0.8l0.7-2.2c0.5,0.5,0.8,1.1,1,1.7
		s0.3,1.4,0.3,2.6L122.5,28.3L122.5,28.3z M122.6,18.2l-1.1,2.1l-2.2-1.1l1.1-2.1L122.6,18.2z"/>
	<path class="st0" d="M130.4,28.3c-0.6,0-1.4-0.1-2.3-0.4c-0.8-0.2-1.5-0.5-2-0.8c-0.4,0.5-0.8,0.9-1.3,1.1c-0.3,0.1-0.6,0.1-1,0.1
		H122v-2.5h1.8c0.6,0,1-0.1,1.3-0.2c0.4-0.2,0.7-0.5,0.9-0.9c0.4-0.8,0.8-1.4,1.4-1.9c0.5-0.5,0.9-0.7,1.2-0.7s0.7,0.5,1.2,1.4
		c0.5,1,0.7,1.9,0.7,2.8L130.4,28.3L130.4,28.3z M128.7,25.5c0-0.1-0.1-0.4-0.4-0.7c-0.3-0.4-0.6-0.6-0.8-0.6
		c-0.2,0-0.4,0.3-0.6,0.8c0.3,0.1,0.6,0.2,0.7,0.3c0.5,0.2,0.8,0.3,0.8,0.3C128.6,25.6,128.7,25.6,128.7,25.5z"/>
	<path class="st0" d="M138.3,28.3c-0.6,0-1.4-0.1-2.3-0.4c-0.8-0.2-1.5-0.5-2-0.8c-0.4,0.5-0.8,0.9-1.3,1.1c-0.3,0.1-0.6,0.1-1,0.1
		h-1.8v-2.5h1.8c0.6,0,1-0.1,1.3-0.2c0.4-0.2,0.7-0.5,0.9-0.9c0.4-0.8,0.8-1.4,1.4-1.9c0.5-0.5,0.9-0.7,1.2-0.7s0.7,0.5,1.2,1.4
		c0.5,1,0.7,1.9,0.7,2.8L138.3,28.3L138.3,28.3z M136.5,25.5c0-0.1-0.1-0.4-0.4-0.7c-0.3-0.4-0.6-0.6-0.8-0.6s-0.4,0.3-0.6,0.8
		c0.3,0.1,0.6,0.2,0.7,0.3c0.5,0.2,0.8,0.3,0.8,0.3C136.5,25.6,136.5,25.6,136.5,25.5z"/>
	<path class="st0" d="M142.7,28.3h-5.1v-2.5h4l-1.1-6.3l-0.6-0.4c0-0.4,0.1-0.7,0.2-1.1c0.1-0.5,0.4-1,0.7-1.7l0.4,0.2
		c0,0,0,0.1,0,0.3c0,0.2,0.1,0.4,0.4,0.6c0.2,0.2,0.6,0.4,1.1,0.6c-0.1,0.4-0.1,0.8-0.2,1.2c-0.1,0.4-0.2,0.7-0.4,1l-0.3-0.1l1,5.7
		L142.7,28.3L142.7,28.3z"/>
	<path class="st0" d="M146.2,25.6c0,0.6-0.1,1.1-0.2,1.5c-0.1,0.5-0.4,1.1-0.8,1.8l-0.6-0.2c0.1-0.8,0.2-1.4,0.2-1.9
		c0-0.4,0-0.9-0.1-1.7c-0.1-0.7-0.1-1.5-0.2-2.2c-0.1-0.7-0.2-1.6-0.5-2.6c-0.1-0.3-0.1-0.6-0.1-0.7c0-0.2,0.1-0.5,0.3-1
		s0.5-1,0.8-1.7l0.6,3.3c0.2,1.3,0.3,2.3,0.4,3.2C146.1,24.3,146.2,25,146.2,25.6z"/>
	<path class="st0" d="M152.8,35c0.5-1.1,0.9-1.9,1.1-2.5c0.2-0.6,0.4-1.3,0.6-2c0.2-0.8,0.3-1.5,0.4-2.2s0.1-1.4,0.1-2.1
		c0-1.5-0.2-2.9-0.5-4.2s-0.9-2.9-1.7-4.8h1.8c0.9,1.3,1.7,2.7,2.2,4.2s0.8,3,0.8,4.5c0,1.3-0.2,2.7-0.6,4.2
		c-0.5,1.7-1.2,3.3-2.3,4.9C154.7,35,152.8,35,152.8,35z"/>
</g>
<rect class="st1" width="170.8" height="46.9"/>
</svg>
