<?xml version="1.0" encoding="utf-8"?>
<!-- Generator: Adobe Illustrator 16.0.0, SVG Export Plug-In . SVG Version: 6.00 Build 0)  -->
<!DOCTYPE svg PUBLIC "-//W3C//DTD SVG 1.1//EN" "http://www.w3.org/Graphics/SVG/1.1/DTD/svg11.dtd">
<svg version="1.1" id="Layer_1" xmlns="http://www.w3.org/2000/svg" xmlns:xlink="http://www.w3.org/1999/xlink" x="0px" y="0px"
	 width="500.87px" height="768px" viewBox="260.047 0 500.87 768" enable-background="new 260.047 0 500.87 768"
	 xml:space="preserve">
<g>
	<g>
		<g>
			<path fill="#FFFFFF" d="M260.047,531.225h139.636c3.036,36.427,9.107,60.712,15.178,72.854
				c9.107,18.214,27.32,30.356,51.605,39.463c18.213,6.071,39.462,9.106,60.711,9.106c18.214,0,39.463-12.142,57.676-39.462
				c21.249-27.32,30.355-54.641,30.355-81.961c0-30.355-12.142-57.676-36.427-81.96c-24.284-21.249-54.64-33.392-94.103-33.392
				c-9.106,0-21.249,0-33.391,3.035v-97.138c97.138,0,145.707-33.392,145.707-103.21c0-66.782-33.392-103.209-97.139-103.209
				c-36.427,0-60.711,12.143-75.889,33.392c-12.143,21.249-18.214,54.64-18.214,97.138H272.19v-48.569
				c0-54.64,21.249-103.209,66.782-139.636C384.506,18.213,442.182,0,508.965,0c78.925,0,136.601,21.249,179.099,60.711
				c33.392,33.392,51.604,75.89,51.604,130.53c0,66.782-27.32,121.422-81.961,160.885c39.463,24.284,63.748,48.569,78.926,69.818
				c18.213,27.32,24.284,69.818,24.284,121.423c0,54.641-18.214,103.209-51.604,142.672C663.778,740.68,593.961,768,502.894,768
				c-81.961,0-145.708-27.32-194.277-81.961C281.296,649.613,263.083,598.008,260.047,531.225z"/>
		</g>
	</g>
</g>
</svg>
