<?xml version="1.0" encoding="utf-8"?>
<!-- Generator: Adobe Illustrator 19.2.0, SVG Export Plug-In . SVG Version: 6.00 Build 0)  -->
<svg version="1.1" id="Layer_1" xmlns="http://www.w3.org/2000/svg" xmlns:xlink="http://www.w3.org/1999/xlink" x="0px" y="0px"
	 viewBox="0 0 42.8 47.3" style="enable-background:new 0 0 42.8 47.3;" xml:space="preserve">
<style type="text/css">
	.st0{opacity:0.5;}
	.st1{fill:#FFFFFF;}
</style>
<g>
	<g class="st0">
		<path d="M26.6,31.5h-2c-0.7,5.3-2.1,9.1-4,11.5c-2.4,2.9-6.1,4.3-11.1,4.3c-2.7,0-4.9-0.6-6.6-1.8C1,44.1,0,42.2,0,39.6
			C0,37,1.4,33,4.2,27.8L5,28.2c-1.3,2.6-2,4.7-2,6.2c0,2.5,0.5,4.1,1.6,4.9c1.4,1,3.7,1.5,7,1.5c3.4,0,6-0.6,7.9-1.7
			c1.4-0.8,2.3-2.4,2.8-4.7c0.2-1.1,0.3-1.9,0.3-2.3c0-0.7-0.4-1.6-1.1-2.6c-1-1.4-1.6-2.2-1.7-2.5c0.6-1.3,1.5-3.2,2.8-5.7
			c0.5,0.8,1,1.5,1.6,2.2c0.5,0.7,1.3,1,2.4,1C26.6,24.5,26.6,31.5,26.6,31.5z"/>
		<path d="M42.8,21.6c0,2.2-0.4,4.1-1.3,5.7c-1,2.1-2.5,3.1-4.4,3.1s-3.5-1.2-4.6-3.6c-1.5,3.1-3.6,4.7-6.3,4.7v-6.9
			c3.6,0,5.5-1,5.5-3c0-0.3,0-0.8-0.1-1.5s-0.1-1.1-0.2-1.3l0.8-0.1c0.4,1.7,1.1,3.1,2.2,4.2c1.1,1.2,2.5,1.8,4.1,1.8
			c0.3,0,0.8-0.1,1.4-0.4c0.6-0.3,0.9-0.6,0.9-0.9c0-0.6-0.3-1.3-1-2.3c-0.5-0.7-1-1.4-1.5-2c0.4-1.1,0.9-2.9,1.5-5.1
			C41.8,15.8,42.8,18.3,42.8,21.6z M38.1,11l-2.4,3.9L32,12.3l-1.9,3.4l-4-2.9l2.4-4l3.6,2.9l2.2-3.6L38.1,11z M33.7,4.9l-2.3,4
			l-3.9-3L30,2L33.7,4.9z"/>
	</g>
	<g>
		<g>
			<g>
				<path class="st1" d="M26.6,29.5h-2c-0.7,5.3-2.1,9.1-4,11.5c-2.4,2.9-6.1,4.3-11.1,4.3c-2.7,0-4.9-0.6-6.6-1.8
					C1,42.1,0,40.2,0,37.6C0,35,1.4,31,4.2,25.8L5,26.2c-1.3,2.6-2,4.7-2,6.2c0,2.5,0.5,4.1,1.6,4.9c1.4,1,3.7,1.5,7,1.5
					c3.4,0,6-0.6,7.9-1.7c1.4-0.8,2.3-2.4,2.8-4.7c0.2-1.1,0.3-1.9,0.3-2.3c0-0.7-0.4-1.6-1.1-2.6c-1-1.4-1.6-2.2-1.7-2.5
					c0.6-1.3,1.5-3.2,2.8-5.7c0.5,0.8,1,1.5,1.6,2.2c0.5,0.7,1.3,1,2.4,1C26.6,22.5,26.6,29.5,26.6,29.5z"/>
				<path class="st1" d="M42.8,19.6c0,2.2-0.4,4.1-1.3,5.7c-1,2.1-2.5,3.1-4.4,3.1s-3.5-1.2-4.6-3.6c-1.5,3.1-3.6,4.7-6.3,4.7v-6.9
					c3.6,0,5.5-1,5.5-3c0-0.3,0-0.8-0.1-1.5s-0.1-1.1-0.2-1.3l0.8-0.1c0.4,1.7,1.1,3.1,2.2,4.2c1.1,1.2,2.5,1.8,4.1,1.8
					c0.3,0,0.8-0.1,1.4-0.4c0.6-0.3,0.9-0.6,0.9-0.9c0-0.6-0.3-1.3-1-2.3c-0.5-0.7-1-1.4-1.5-2c0.4-1.1,0.9-2.9,1.5-5.1
					C41.8,13.8,42.8,16.3,42.8,19.6z M38.1,9l-2.4,3.9L32,10.3l-1.9,3.4l-4-2.9l2.4-4l3.6,2.9l2.2-3.6L38.1,9z M33.7,2.9l-2.3,4
					l-3.9-3L30,0L33.7,2.9z"/>
			</g>
		</g>
	</g>
</g>
</svg>
