<?xml version="1.0" encoding="utf-8"?>
<!-- Generator: Adobe Illustrator 19.2.0, SVG Export Plug-In . SVG Version: 6.00 Build 0)  -->
<svg version="1.1" id="Layer_1" xmlns="http://www.w3.org/2000/svg" xmlns:xlink="http://www.w3.org/1999/xlink" x="0px" y="0px"
	 viewBox="0 0 271.4 44.6" style="enable-background:new 0 0 271.4 44.6;" xml:space="preserve">
<style type="text/css">
	.st0{fill:#BA0017;}
	.st1{fill:none;}
</style>
<g>
	<g>
		<g>
			<path d="M38.6,15.6c-0.3,0.1-0.7,0.3-1.1,0.4c-0.4,0.1-0.8,0.3-1.1,0.4c-0.3,0.1-0.7,0.3-1,0.4c-0.3,0.1-0.6,0.2-0.8,0.3h-0.1
				c0,0,0,0,0-0.1c0,0,0-0.1,0.1-0.2c0-0.1,0.1-0.2,0.1-0.3c0-0.1,0.1-0.2,0.1-0.3s0.1-0.1,0.1-0.1c0.1-0.1,0.1-0.1,0.2-0.2l3.8-1.7
				c0.1,0,0.1,0,0.1,0.1c0,0.1-0.1,0.1-0.1,0.2c0,0.1,0.1,0.3,0.1,0.3L39,15.1c0,0-0.1,0.1-0.1,0.2C38.8,15.4,38.7,15.4,38.6,15.6z"
				/>
			<path d="M40.2,20.9c0.3,0.4,0.6,0.9,0.9,1.5s0.4,1,0.6,1.6c0.1,0.6,0.2,1,0.3,1.6c0,0.6,0,1.1,0,1.6c-0.1,0.4-0.2,0.8-0.3,1.1
				c-0.2,0.3-0.4,0.7-0.7,1s-0.6,0.6-0.9,0.8c-0.3,0.2-0.7,0.4-1.1,0.6c-0.3,0.1-0.8,0.2-1.2,0.3S37,31,36.5,31
				c-0.6,0-1-0.1-1.5-0.2s-0.9-0.4-1.2-0.8c-0.3-0.3-0.7-0.7-0.8-1.1c-0.1-0.4-0.3-1-0.3-1.6c0-0.7,0.1-1.2,0.3-1.8
				c0.2-0.6,0.4-1.1,0.8-1.7c0-0.1,0.1-0.1,0.1-0.1H34v0.1v0.1c-0.3,0.7-0.6,1.2-0.6,1.9c-0.1,0.7,0,1.2,0.2,1.8
				c0.1,0.2,0.2,0.6,0.4,0.7c0.2,0.2,0.3,0.4,0.7,0.6c0.2,0.1,0.6,0.3,0.9,0.3c0.3,0,0.7,0.1,1.1,0.1c0.4,0,0.9,0,1.3-0.1
				s0.9-0.2,1.3-0.3c0.4-0.2,0.8-0.3,1.2-0.7c0.4-0.3,0.7-0.6,1-0.9c0-0.3,0-0.8-0.1-1.2s-0.2-0.9-0.4-1.3c-0.1-0.4-0.3-0.9-0.6-1.2
				c-0.2-0.3-0.4-0.8-0.7-1.1c0.1-0.2,0.1-0.4,0.2-0.7c0.1-0.2,0.1-0.4,0.2-0.7C40.1,20.9,40.1,20.8,40.2,20.9L40.2,20.9z
				 M37.3,18.3l1.2,1c0,0,0.1,0.1,0,0.1l-0.8,1c0,0.1-0.1,0.1-0.1,0l-1.2-1c0,0,0-0.1,0-0.2l0.8-1C37.2,18.2,37.2,18.2,37.3,18.3z"
				/>
			<path d="M48.9,28.2h-1c-0.3,0-0.6,0-0.8-0.1c-0.2-0.1-0.4-0.2-0.7-0.3c-0.2-0.1-0.3-0.3-0.4-0.6c-0.1-0.2-0.1-0.4-0.1-0.8
				c0-0.1,0-0.2,0.1-0.4c0.1-0.2,0.1-0.3,0.2-0.6c0.1-0.2,0.2-0.3,0.3-0.6c0.1-0.2,0.2-0.3,0.3-0.4c0.1-0.1,0.2-0.2,0.4-0.3
				c0.1-0.1,0.3-0.1,0.4-0.1c0.2,0,0.4,0.1,0.7,0.3c0.2,0.2,0.3,0.4,0.6,0.7c0.1,0.2,0.3,0.6,0.3,0.9c0,0.3,0.1,0.6,0.2,0.8h0.8h0.2
				c0.2,0,0.3,0.1,0.4,0.2c0.1,0.1,0.1,0.3,0.1,0.6c0,0.2,0,0.3-0.1,0.6c-0.1,0.1-0.2,0.2-0.4,0.2h-0.2h-0.9
				c-0.1,0.6-0.2,1.1-0.4,1.7c-0.1,0.6-0.3,1-0.6,1.5c-0.2,0.4-0.6,0.9-0.9,1.2c-0.3,0.3-0.8,0.6-1.3,0.8c-0.3,0.1-0.8,0.2-1.2,0.2
				s-0.9,0-1.3,0c-0.4,0-0.9-0.1-1.3-0.1c-0.4-0.1-0.9-0.1-1.2-0.2c-0.1,0-0.1-0.1-0.2-0.1c0-0.1,0-0.1,0-0.2s0.1-0.1,0.1-0.1
				s0.1-0.1,0.2,0c0.3,0,0.8,0,1.1,0c0.4,0,0.8,0,1.2-0.1c0.4-0.1,0.8-0.1,1.2-0.2c0.3-0.1,0.8-0.2,1-0.4c0.3-0.2,0.7-0.4,1-0.8
				c0.3-0.3,0.6-0.6,0.8-0.9s0.4-0.7,0.6-1C48.6,28.8,48.8,28.5,48.9,28.2z M47.4,25.6c-0.1,0-0.2,0-0.2,0.1
				c-0.1,0.1-0.1,0.1-0.2,0.2c-0.1,0.1-0.1,0.1-0.2,0.2c-0.1,0.1-0.1,0.1-0.1,0.2s0.1,0.1,0.3,0.2c0.2,0.1,0.3,0.1,0.6,0.1
				s0.4,0,0.6,0c0.1,0,0.3,0,0.4,0c0,0,0-0.1-0.1-0.2c-0.1-0.1-0.1-0.2-0.2-0.3s-0.2-0.2-0.3-0.3C47.7,25.6,47.6,25.6,47.4,25.6z"/>
			<path d="M50.2,26.6h0.2c0.4,0,0.8,0,1.1-0.1c0.3-0.1,0.7-0.1,1-0.3c0.2-0.1,0.4-0.3,0.7-0.6c0.1-0.2,0.2-0.4,0.2-0.8
				c0-0.1,0-0.4,0-0.7s-0.1-0.7-0.1-1s-0.1-0.8-0.1-1.1c0-0.3-0.1-0.8-0.1-1.1l-0.2-1.7L52.5,16c0-0.1,0-0.2,0-0.2
				c0.1-0.2,0.1-0.3,0.2-0.6s0.2-0.3,0.3-0.6c0.1-0.1,0.1-0.1,0.1,0c0,0.1,0,0.3,0.1,0.4c0,0.2,0.1,0.4,0.1,0.9
				c0.1,1.1,0.2,2,0.3,2.9c0.1,0.8,0.2,1.5,0.2,2.1c0.1,0.8,0.2,1.6,0.3,2c0.1,0.4,0.1,1,0.2,1.3c0.1,0.3,0.2,0.7,0.3,1
				c0.1,0.2,0.3,0.4,0.6,0.7c0.2,0.1,0.4,0.3,0.8,0.3s0.7,0.1,1,0.1h0.2c0.2,0,0.3,0.1,0.4,0.2c0.1,0.1,0.1,0.3,0.1,0.6
				c0,0.2,0,0.3-0.1,0.6c-0.1,0.1-0.2,0.2-0.4,0.2h-0.4c-0.3,0-0.6,0-0.9-0.1c-0.3,0-0.6-0.1-0.9-0.3s-0.6-0.4-0.8-0.8
				c-0.2-0.3-0.4-0.8-0.6-1.2c-0.1,0.6-0.3,1-0.7,1.3c-0.2,0.3-0.6,0.6-0.9,0.8s-0.7,0.2-1,0.3c-0.3,0.1-0.7,0.1-1,0.1l0,0
				c-0.2,0-0.3-0.1-0.4-0.2c-0.1-0.1-0.1-0.3-0.1-0.6c0-0.2,0-0.3,0.1-0.6C49.8,26.6,50,26.6,50.2,26.6z"/>
			<path d="M65.7,26.2c-0.4,0.1-0.9,0.2-1.3,0.4c-0.6,0.1-1,0.3-1.6,0.4c-0.6,0.1-1.1,0.3-1.7,0.4c-0.6,0.1-1.1,0.2-1.6,0.3
				c-0.6,0.1-1,0.2-1.5,0.2c-0.4,0.1-0.8,0.1-1.1,0.1h-0.2c-0.2,0-0.3-0.1-0.4-0.2c-0.1-0.1-0.1-0.3-0.1-0.6c0-0.2,0-0.3,0.1-0.6
				c0.1-0.2,0.2-0.2,0.4-0.2h0.1c0.1,0,0.3,0,0.6,0s0.4,0,0.7,0c0.2,0,0.4,0,0.7-0.1c0.2,0,0.4-0.1,0.6-0.1
				c-0.1-0.1-0.3-0.2-0.4-0.3c-0.1-0.1-0.3-0.3-0.4-0.6c-0.1-0.2-0.2-0.4-0.3-0.7c-0.1-0.2-0.1-0.4-0.2-0.7c-0.1-0.4,0-0.9,0.1-1.3
				c0.1-0.4,0.3-0.9,0.7-1.2s0.6-0.7,1-0.9c0.3-0.2,0.8-0.4,1.1-0.4c0.6-0.1,1-0.1,1.3,0c0.4,0.1,0.8,0.2,1.1,0.3
				c0.3,0.2,0.6,0.3,0.9,0.6c0.3,0.2,0.4,0.4,0.6,0.7v0.1c0,0,0,0.1-0.1,0.1h-0.1h-0.1c-0.2-0.1-0.4-0.2-0.7-0.3
				c-0.2-0.1-0.4-0.1-0.7-0.2c-0.2-0.1-0.4-0.1-0.7-0.1s-0.4,0-0.8,0c-0.2,0-0.6,0.1-0.8,0.1c-0.2,0.1-0.6,0.1-0.8,0.2
				s-0.4,0.2-0.7,0.3c-0.2,0.1-0.3,0.2-0.4,0.3c0,0.1,0,0.2,0.1,0.4c0,0.1,0.1,0.3,0.2,0.6c0.1,0.2,0.2,0.3,0.3,0.6
				c0.1,0.2,0.2,0.3,0.3,0.4c0.1,0.1,0.3,0.3,0.4,0.4c0.1,0.1,0.3,0.2,0.4,0.3c0.1,0.1,0.3,0.2,0.4,0.2c0.1,0,0.2,0.1,0.3,0.1
				c0.9-0.1,1.7-0.3,2.6-0.6c0.9-0.2,1.7-0.4,2.5-0.7c0.1,0,0.1,0,0.1,0c-0.2,0.3-0.4,0.7-0.6,0.9C66.1,25.4,65.9,25.9,65.7,26.2z"
				/>
			<path d="M70.2,8c-0.3,0.1-0.7,0.3-1.1,0.4c-0.3,0.1-0.8,0.3-1.1,0.4c-0.3,0.1-0.7,0.3-1,0.4c-0.3,0.1-0.6,0.2-0.8,0.3h-0.1
				c0,0,0,0,0-0.1c0,0,0-0.1,0.1-0.2c0-0.1,0.1-0.2,0.1-0.3s0.1-0.2,0.1-0.3c0-0.1,0.1-0.1,0.1-0.1c0.1-0.1,0.1-0.1,0.2-0.2l3.9-1.7
				c0.1,0,0.1,0,0.1,0.1S70.7,6.9,70.7,7s-0.1,0.2-0.1,0.2l-0.1,0.2c0,0.3,0,0.3-0.1,0.4C70.3,7.9,70.3,8,70.2,8z"/>
			<path d="M66.6,13.3c0,0,0.1-0.1,0.2-0.1c0.1,0,0.1-0.1,0.2-0.1c0.1,0,0.1-0.1,0.2-0.1c0.1,0,0.1-0.1,0.2-0.1
				c-0.1-0.1-0.3-0.2-0.4-0.3c-0.1-0.1-0.2-0.3-0.3-0.6c0-0.1,0-0.2,0-0.2c0-0.1,0-0.2,0.1-0.2c0.1-0.1,0.2-0.3,0.3-0.4
				c0.1-0.1,0.2-0.3,0.4-0.4c0.1-0.1,0.3-0.2,0.4-0.3c0.2-0.1,0.3-0.1,0.6-0.1c0.1,0,0.1,0,0.2,0.1c0.1,0,0.1,0.1,0.2,0.2
				c0,0.1,0.1,0.1,0.1,0.2s0.1,0.1,0.1,0.2s0,0.2,0,0.3l-0.2,0.3c-0.1,0.1-0.1,0.2-0.2,0.2s-0.1,0-0.1-0.1c0-0.1,0-0.1-0.1-0.2
				c-0.1-0.1-0.1-0.2-0.2-0.2s-0.1-0.1-0.2-0.1c-0.3,0-0.6,0.1-0.8,0.3c0.1,0.2,0.2,0.4,0.4,0.7c0.2,0.2,0.4,0.3,0.7,0.3
				c0.3,0,0.7,0,0.9,0c0.3-0.1,0.6-0.1,0.9-0.2v0.1c0,0.1-0.1,0.2-0.1,0.3c0,0.1-0.1,0.2-0.1,0.3c0,0.1-0.1,0.1-0.1,0.1
				c-0.2,0-0.6,0.1-0.8,0.1c-0.3,0.1-0.6,0.1-0.9,0.2c-0.3,0.1-0.7,0.2-1,0.3c-0.3,0.1-0.7,0.3-0.9,0.4c-0.1,0-0.1,0-0.1-0.1
				c0-0.1,0.1-0.2,0.1-0.3C66.5,13.5,66.5,13.4,66.6,13.3z M74.7,23.6c0.2-0.7,0.4-1.2,0.6-1.9c0.1-0.7,0.2-1.3,0.2-1.9
				c0-0.7,0-1.3,0-2c0-0.7,0-1.3-0.1-2c0-0.2-0.1-0.3-0.1-0.4c-0.1-0.1-0.1-0.2-0.2-0.4c0.1-0.2,0.2-0.4,0.4-0.7
				c0.1-0.2,0.3-0.4,0.4-0.7c0.1-0.1,0.1-0.1,0.2,0c0,0.2,0.1,0.3,0.1,0.6c0.1,0.2,0.1,0.3,0.2,0.6c0.1,0.2,0.2,0.3,0.2,0.4
				c0.1,0.1,0.2,0.3,0.3,0.4c0,0.1-0.1,0.1-0.1,0.2c0,0.1-0.1,0.2-0.2,0.2c-0.1,0.1-0.1,0.2-0.2,0.3c0,0.1-0.1,0.2-0.1,0.3
				c0,0.7,0,1.3,0,2s-0.1,1.3-0.2,2c-0.1,0.7-0.2,1.3-0.3,1.9c-0.1,0.6-0.3,1.1-0.6,1.7c0.2,0.3,0.3,0.8,0.6,1.1
				c0.1,0.4,0.2,0.8,0.3,1.3c0,0.3,0,0.6-0.1,0.8c-0.1,0.2-0.2,0.6-0.3,0.8c-0.2,0-0.6,0.1-0.9,0.1s-0.7,0.1-1.1,0.1
				c-0.3,0-0.8,0.1-1.1,0.1s-0.7,0-1,0c0,0,0-0.1,0-0.2s0-0.2,0-0.4c0-0.1,0-0.3,0.1-0.4c0-0.1,0.1-0.2,0.1-0.3s0.1-0.1,0.2-0.1
				c0.2,0,0.4,0,0.4-0.1s0.2-0.1,0.2-0.1c0.1-0.1,0.2-0.2,0.3-0.4c0.1-0.2,0.3-0.4,0.4-0.7c0.1-0.2,0.3-0.4,0.4-0.8
				c0.1-0.3,0.2-0.4,0.3-0.7c-0.3-0.6-0.7-1-1-1.6c-0.3-0.6-0.8-1.1-1.2-1.7c-0.4-0.6-0.9-1.1-1.3-1.6c-0.4-0.6-0.9-1-1.3-1.3
				c-0.2,0.1-0.4,0.1-0.7,0.1c-0.1,0-0.3-0.1-0.6-0.2c-0.2-0.1-0.4-0.2-0.6-0.3c-0.2-0.1-0.3-0.2-0.4-0.4c-0.1-0.1-0.2-0.3-0.2-0.6
				c0,0,0-0.1,0-0.2s0-0.2,0-0.4c0-0.1,0-0.3,0-0.6c0-0.2,0-0.3,0.1-0.4c0-0.1,0.1-0.2,0.1-0.2c0.1,0,0.1,0,0.3,0.1
				c0.4,0.3,0.9,0.7,1.3,1.1c0.4,0.4,0.9,0.9,1.3,1.3c0.4,0.4,0.9,1,1.2,1.5c0.4,0.6,0.8,1,1.1,1.6c0.3,0.6,0.7,1,1,1.6
				C74,22.7,74.3,23.1,74.7,23.6z M73.4,27.2c0.3,0,0.7-0.1,1-0.1s0.7-0.1,0.9-0.1c0-0.1,0-0.2-0.1-0.3c0-0.1-0.1-0.3-0.2-0.4
				c-0.1-0.1-0.1-0.4-0.2-0.6s-0.1-0.2-0.2-0.3c-0.2,0.3-0.3,0.7-0.6,1C73.8,26.6,73.7,26.8,73.4,27.2z"/>
			<path d="M79.7,15C79.8,15,79.8,15.1,79.7,15c0.1,0.1,0.1,0.1,0.1,0.1v0.1v0.1c0,0.2,0,0.6,0,0.8s0,0.4,0.1,0.8
				c0.1,0.6,0.1,1.2,0.2,1.9c0.1,0.7,0.2,1.2,0.2,1.9c0.1,0.7,0.2,1.3,0.2,1.9c0,0.6,0.2,1.2,0.2,1.9c0,0.2,0,0.6,0,0.8
				c0,0.3,0,0.7,0,1s0,0.7-0.1,0.9c0,0.3-0.1,0.6-0.2,0.8c0,0.1-0.1,0.2-0.2,0.2c0,0-0.1,0-0.1-0.1c-0.1-1.1-0.2-2.3-0.3-3.6
				c-0.2-1.2-0.3-2.6-0.6-3.8c-0.2-1.2-0.3-2.6-0.4-3.8c0-0.3,0.1-0.7,0.2-1c0.1-0.2,0.1-0.3,0.2-0.6C79.6,15.3,79.7,15.2,79.7,15z"
				/>
			<path d="M90.7,24.7c0.1,0,0.2,0,0.3,0.1s0.2,0.2,0.3,0.3c0.1,0.1,0.2,0.2,0.3,0.3c0.1,0.1,0.2,0.2,0.4,0.3
				c0.2,0.1,0.4,0.3,0.6,0.3c0.2,0.1,0.4,0.2,0.7,0.2s0.4,0.1,0.8,0.1c0.2,0,0.6,0,0.8,0h0.2c0.2,0,0.3,0.1,0.4,0.2s0.1,0.3,0.1,0.6
				c0,0.2,0,0.3-0.1,0.6c-0.1,0.1-0.2,0.2-0.4,0.2H95c-0.3,0-0.7,0-1.1,0s-0.9-0.1-1.3-0.2c0,0.2,0,0.3-0.1,0.6
				c-0.1,0.2-0.1,0.2-0.1,0.3c-0.2,0-0.6,0-0.9,0c-0.3-0.1-0.8-0.1-1.1-0.3c-0.3-0.1-0.7-0.2-1-0.4c-0.3-0.2-0.4-0.3-0.6-0.6
				c-0.1,0-0.2,0.1-0.4,0.2c-0.1,0.1-0.3,0.2-0.4,0.3c-0.1,0.1-0.2,0.2-0.3,0.4c-0.1,0.2-0.1,0.3-0.1,0.4c0,0.2,0,0.6,0.1,1
				c0,0.4,0.1,0.9,0.2,1.3c0.1,0.4,0.1,0.9,0.2,1.3c0.1,0.4,0.1,0.8,0.2,1.1c0,0.3,0.1,0.6,0.1,0.9s0.1,0.7,0.1,1s0,0.7,0,0.9
				c0,0.3,0,0.6-0.1,0.7c0,0.1-0.1,0.1-0.1,0.1s-0.1,0-0.1-0.1c0-0.1-0.1-0.2-0.1-0.4c0-0.1,0-0.2-0.1-0.4c0-0.1-0.1-0.3-0.1-0.8
				c0-0.3-0.1-0.9-0.2-1.6c-0.2-1.2-0.3-2.2-0.4-3c-0.1-0.8-0.2-1.5-0.2-1.8c0-0.6,0-1.1,0.2-1.6c0.1-0.4,0.4-0.8,0.8-1.1
				c0.1-0.1,0.2-0.2,0.3-0.3c0.1-0.1,0.3-0.2,0.4-0.4c0.2-0.1,0.3-0.3,0.6-0.4c0.2-0.1,0.4-0.3,0.6-0.4c0.2-0.1,0.3-0.2,0.6-0.3
				C90.5,24.3,90.6,24.7,90.7,24.7z M90.5,25.7c-0.2,0-0.3,0-0.6,0.1c-0.2,0.1-0.3,0.2-0.6,0.3c0,0,0,0,0,0.1c0,0,0,0,0,0.1
				c0.1,0.1,0.3,0.2,0.6,0.2c0.2,0.1,0.4,0.2,0.7,0.2c0.2,0.1,0.4,0.1,0.7,0.1c0.2,0,0.3,0,0.4,0c-0.1-0.1-0.2-0.3-0.3-0.4
				c-0.1-0.1-0.2-0.3-0.3-0.4c-0.1-0.1-0.2-0.2-0.3-0.2C90.6,25.8,90.5,25.7,90.5,25.7z"/>
			<path d="M95.1,18.1c-0.1,0-0.1,0,0-0.1c0.1-0.1,0.1-0.1,0.2-0.2c0.2-0.1,0.4-0.3,0.7-0.4c0.2-0.1,0.4-0.2,0.7-0.4
				c0.2-0.1,0.4-0.3,0.6-0.4c0.2-0.1,0.4-0.3,0.6-0.6c-0.2,0-0.3-0.1-0.6-0.2c-0.2-0.1-0.3-0.2-0.4-0.4c-0.1-0.1-0.1-0.2-0.1-0.3
				c0-0.1,0-0.2,0-0.3c0.1-0.1,0.1-0.3,0.2-0.6c0.1-0.2,0.2-0.3,0.3-0.6c0.1-0.1,0.2-0.3,0.4-0.3C97.8,13,98,13,98.2,13
				c0.1,0,0.2,0,0.3,0.1c0.1,0.1,0.1,0.2,0.2,0.3c0.1,0.1,0.1,0.3,0.1,0.4c0,0.1,0,0.3,0,0.4c0,0.1,0,0.3,0,0.4s0,0.2,0,0.3
				c0,0,0,0,0,0.1c0.1,0,0.1,0.1,0.2,0.1s0,0.1,0.1,0.1c0,0.1,0,0.2,0,0.3c0,0.1-0.1,0.2-0.1,0.3S99,16.2,99,16.2s-0.1,0-0.1-0.1
				L98.8,16l-0.1-0.1c-0.2,0.2-0.4,0.4-0.6,0.7c-0.2,0.2-0.3,0.3-0.6,0.4c-0.2,0.1-0.4,0.2-0.7,0.4c-0.2,0.1-0.6,0.2-0.8,0.3
				c-0.1,0-0.2,0.1-0.3,0.1C95.7,17.9,95.2,18.1,95.1,18.1z M97.2,14.4c0.1,0.2,0.3,0.3,0.4,0.4c0.2,0.1,0.3,0.2,0.6,0.2l0,0
				c0-0.1,0-0.1,0-0.2c0-0.1,0-0.2,0-0.2c0-0.1,0-0.2,0-0.2c0-0.1-0.1-0.1-0.1-0.2c0,0-0.1-0.1-0.2-0.1c-0.1,0-0.2,0-0.3,0
				s-0.2,0.1-0.2,0.1S97.2,14.3,97.2,14.4z"/>
			<path d="M98.4,24.5c0,0.1,0,0.1,0,0.2s0,0.2,0,0.3c0,0.2,0,0.3,0.1,0.6c0.1,0.2,0.2,0.3,0.4,0.4c0.2,0.1,0.4,0.2,0.7,0.3
				c0.3,0.1,0.7,0.1,1,0.1h0.2c0.2,0,0.3,0.1,0.4,0.2s0.1,0.3,0.1,0.6c0,0.2,0,0.3-0.1,0.6c-0.1,0.1-0.2,0.2-0.4,0.2h-0.2
				c-0.8,0-1.3-0.1-1.8-0.4c-0.4-0.3-0.8-0.7-1-1.2c-0.2,0.3-0.3,0.7-0.7,0.9c-0.3,0.2-0.4,0.3-0.8,0.4c-0.2,0.1-0.6,0.2-0.8,0.2
				s-0.4,0-0.7,0h-0.1c-0.2,0-0.3-0.1-0.4-0.2s-0.1-0.3-0.1-0.6s0-0.3,0.1-0.6c0.1-0.1,0.2-0.2,0.4-0.2h0.2c0.2,0,0.4,0,0.7,0
				c0.2,0,0.4,0,0.7-0.1c0.2-0.1,0.4-0.1,0.7-0.2c0.2-0.1,0.4-0.3,0.6-0.6c0.1-0.2,0.2-0.3,0.3-0.6c0.1-0.2,0.2-0.3,0.2-0.6v-0.1
				h0.1C98.3,24.4,98.4,24.4,98.4,24.5L98.4,24.5z M98.9,22.5C98.9,22.5,98.8,22.5,98.9,22.5c-0.1,0.1-0.1,0-0.2,0l-1.2-0.9
				l-0.8,1.1c0,0.1-0.1,0.1-0.1,0l-1.2-1v-0.1l0.8-1.1c0,0,0-0.1,0.1-0.1c0,0,0,0,0.1,0l1.2,0.9l0.8-1c0,0,0.1-0.1,0.1,0l1.2,1.1
				v0.1L98.9,22.5z"/>
			<path d="M103.1,22.6L103.1,22.6c0.1-0.1,0.1,0,0.2,0c0.2,0.2,0.3,0.4,0.6,0.7c0.1,0.2,0.3,0.4,0.4,0.7c0.1,0.2,0.2,0.4,0.3,0.8
				c0.1,0.2,0.1,0.6,0.1,0.8c0,0.1,0,0.2,0,0.3c0,0.1,0,0.3-0.1,0.4c0,0.1-0.1,0.3-0.1,0.4s-0.1,0.2-0.1,0.3
				c-0.1,0.2-0.3,0.4-0.7,0.6c-0.3,0.1-0.6,0.2-0.9,0.3c-0.3,0.1-0.7,0.1-1,0.1s-0.7,0-1,0h-0.2c-0.2,0-0.3-0.1-0.4-0.2
				c-0.1-0.1-0.1-0.3-0.1-0.6c0-0.2,0-0.3,0.1-0.6c0.1-0.1,0.2-0.2,0.4-0.2h0.2c0.1,0,0.3,0,0.7,0s0.6,0,0.9,0s0.7-0.1,0.9-0.1
				c0.3,0,0.6-0.1,0.7-0.2s0.1-0.1,0.1-0.2c-0.1-0.3-0.3-0.7-0.6-1c-0.2-0.3-0.4-0.6-0.8-0.9c0-0.2,0.1-0.4,0.2-0.7
				C103,23.1,103,22.8,103.1,22.6z M102.6,18.1l1.2,1c0,0,0.1,0.1,0,0.1l-0.8,1c0,0.1-0.1,0.1-0.1,0l-1.3-0.9c0,0,0-0.1,0-0.2l0.8-1
				C102.5,18.1,102.6,18.1,102.6,18.1z"/>
			<path d="M109.5,8c-0.3,0.1-0.7,0.3-1.1,0.4c-0.3,0.1-0.8,0.3-1.1,0.4c-0.3,0.1-0.7,0.3-1,0.4c-0.3,0.1-0.6,0.2-0.8,0.3h-0.1
				c0,0,0,0,0-0.1c0,0,0-0.1,0.1-0.2c0-0.1,0.1-0.2,0.1-0.3s0.1-0.2,0.1-0.3c0-0.1,0.1-0.1,0.1-0.1c0.2,0,0.2,0,0.3-0.1l3.9-1.7
				c0.1,0,0.1,0,0.1,0.1s-0.1,0.1-0.1,0.2s-0.1,0.2-0.1,0.2l-0.1,0.2c0,0.1-0.1,0.1-0.1,0.2C109.6,7.9,109.6,8,109.5,8z"/>
			<path d="M106.1,13.7c0,0,0.1-0.1,0.2-0.1c0.1,0,0.1-0.1,0.2-0.1c0.1,0,0.1-0.1,0.2-0.1s0.1-0.1,0.2-0.1c-0.1-0.1-0.3-0.2-0.4-0.4
				c-0.1-0.1-0.2-0.3-0.3-0.6c0-0.1,0-0.2,0-0.3c0-0.1,0.1-0.2,0.1-0.2c0.1-0.1,0.2-0.3,0.3-0.4c0.1-0.2,0.3-0.3,0.4-0.4
				c0.1-0.1,0.3-0.2,0.6-0.3c0.2-0.1,0.3-0.1,0.6-0.1c0.1,0,0.1,0,0.2,0.1c0.1,0,0.1,0.1,0.2,0.2c0,0.1,0.1,0.1,0.1,0.2
				c0,0.1,0.1,0.1,0.1,0.2c0,0.1,0,0.3,0,0.3l-0.2,0.3c-0.1,0.1-0.1,0.2-0.2,0.2c-0.1,0-0.1,0-0.1-0.1c0-0.1,0-0.2-0.1-0.2
				c-0.1-0.1-0.1-0.2-0.2-0.2c-0.1,0-0.1-0.1-0.2-0.1c-0.3,0-0.7,0.1-0.9,0.3c0.1,0.2,0.2,0.4,0.4,0.7c0.2,0.2,0.4,0.3,0.7,0.3
				c0.3,0,0.7,0,1,0c0.3-0.1,0.7-0.1,1-0.2c0,0,0,0.1,0,0.2c0,0.1-0.1,0.2-0.1,0.3s-0.1,0.2-0.1,0.3c0,0.1-0.1,0.1-0.1,0.1
				c-0.3,0-0.6,0.1-0.9,0.1c-0.3,0.1-0.6,0.1-0.9,0.2c-0.3,0.1-0.7,0.2-1,0.4c-0.3,0.1-0.7,0.3-1,0.4c-0.1,0-0.1,0-0.1-0.1
				c0-0.1,0.1-0.2,0.1-0.4C106,13.9,106,13.8,106.1,13.7z M107.5,15.2C107.6,15.2,107.6,15.2,107.5,15.2c0.1,0.1,0.1,0.1,0.1,0.1
				v0.1v0.1c0,0.2,0,0.4,0,0.8c0,0.2,0,0.4,0.1,0.7c0.1,0.6,0.1,1.2,0.2,1.8s0.2,1.2,0.2,1.9c0.1,0.7,0.2,1.2,0.2,1.9
				c0,0.7,0.2,1.2,0.2,1.8c0,0.2,0,0.6,0,0.8c0,0.2,0,0.7,0,0.9c0,0.3,0,0.7-0.1,0.9c0,0.3-0.1,0.6-0.2,0.8c0,0.1-0.1,0.2-0.2,0.2
				c0,0-0.1,0-0.1-0.1c-0.1-1.1-0.2-2.3-0.3-3.6c-0.2-1.2-0.3-2.5-0.6-3.7c-0.2-1.2-0.3-2.5-0.4-3.7c0-0.3,0.1-0.7,0.2-1
				c0.1-0.2,0.1-0.3,0.2-0.6C107.4,15.4,107.5,15.3,107.5,15.2z"/>
			<path d="M114.8,18.3c-0.3,0.1-0.7,0.3-1.1,0.4c-0.3,0.1-0.8,0.3-1.1,0.4s-0.7,0.3-1,0.4s-0.6,0.2-0.8,0.3h-0.1c0,0,0,0,0-0.1
				c0,0,0-0.1,0.1-0.2c0-0.1,0.1-0.2,0.1-0.3c0-0.1,0.1-0.2,0.1-0.3s0.1-0.1,0.1-0.1c0.1-0.1,0.1-0.1,0.2-0.2l3.9-1.7
				c0.1,0,0.1,0,0.1,0.1s-0.1,0.1-0.1,0.2c0,0.1-0.1,0.2-0.1,0.2l-0.1,0.2c0,0.1-0.1,0.1-0.1,0.2C115,18.2,114.8,18.2,114.8,18.3z"
				/>
			<path d="M115.5,26.3c-0.1,0.3-0.2,0.6-0.6,0.7c-0.3,0.1-0.6,0.3-0.9,0.3c-0.2,0-0.3,0-0.6-0.1c-0.1-0.1-0.3-0.2-0.4-0.3
				c-0.1-0.1-0.2-0.3-0.2-0.6c-0.1-0.2-0.1-0.4-0.1-0.6s0-0.3,0.1-0.4c0-0.2,0.1-0.3,0.2-0.6s0.1-0.3,0.2-0.6
				c0.1-0.2,0.2-0.3,0.3-0.6c0.1-0.1,0.2-0.2,0.3-0.3c0.1-0.1,0.2-0.1,0.4-0.1s0.6,0.1,0.8,0.3c0.2,0.2,0.4,0.4,0.6,0.8
				c0.1,0.3,0.3,0.7,0.4,1.1c0.1,0.3,0.1,0.8,0.1,1.1c0,0.4-0.1,1-0.2,1.5c-0.1,0.4-0.2,1-0.4,1.6c-0.2,0.6-0.4,1-0.7,1.5
				c-0.2,0.4-0.6,0.8-0.8,1.1s-0.6,0.6-0.9,0.8c-0.3,0.2-0.7,0.3-1,0.4s-0.7,0.2-1.1,0.2c-0.3,0-0.8,0-1.1,0c-0.4,0-0.8-0.1-1.2-0.1
				c-0.4-0.1-0.8-0.1-1.1-0.2c0,0-0.1,0-0.1-0.1V33l0.1-0.1c0,0,0.1,0,0.2,0c0.6,0.1,1.1,0.1,1.6,0c0.6-0.1,1-0.2,1.6-0.3
				c0.4-0.1,0.8-0.3,1.2-0.6c0.4-0.2,0.8-0.6,1.1-0.9c0.2-0.2,0.6-0.4,0.8-0.8c0.2-0.3,0.4-0.7,0.7-0.9c0.2-0.2,0.3-0.7,0.6-1
				c0.1-0.3,0.2-0.7,0.3-0.9c0-0.1,0-0.1,0-0.2s0-0.1,0-0.2s0-0.1,0-0.2C115.6,26.4,115.6,26.4,115.5,26.3z M115.2,25.4
				c0,0,0-0.1-0.1-0.2c0-0.1-0.1-0.2-0.2-0.3c-0.1-0.1-0.2-0.2-0.3-0.2c-0.1-0.1-0.2-0.1-0.3-0.1c-0.1,0-0.2,0-0.2,0.1
				s-0.1,0.1-0.2,0.2c-0.1,0.1-0.1,0.2-0.1,0.2c0,0.1,0,0.1,0,0.2c0.1,0.1,0.2,0.2,0.3,0.3c0.1,0,0.3,0.1,0.4,0.1
				c0.2,0,0.3,0,0.4-0.1C115,25.5,115.2,25.5,115.2,25.4z"/>
			<path class="st0" d="M123.3,15C123.3,15,123.4,15.1,123.3,15c0.1,0.1,0.1,0.1,0.1,0.1v0.1v0.1c0,0.2,0,0.6,0,0.8s0,0.4,0.1,0.8
				c0.1,0.6,0.1,1.2,0.2,1.9c0.1,0.7,0.2,1.2,0.2,1.9c0.1,0.7,0.2,1.3,0.2,1.9c0,0.6,0.2,1.2,0.2,1.9c0,0.2,0,0.6,0,0.8
				c0,0.3,0,0.7,0,1s0,0.7-0.1,0.9c0,0.3-0.1,0.6-0.2,0.8c0,0.1-0.1,0.2-0.2,0.2c0,0-0.1,0-0.1-0.1c-0.1-1.1-0.2-2.3-0.3-3.6
				c-0.2-1.2-0.3-2.6-0.6-3.8c-0.2-1.2-0.3-2.6-0.4-3.8c0-0.3,0.1-0.7,0.2-1c0.1-0.2,0.1-0.3,0.2-0.6
				C123.2,15.3,123.2,15.2,123.3,15z"/>
			<path class="st0" d="M131.4,28.2h-1c-0.3,0-0.6,0-0.8-0.1s-0.4-0.2-0.7-0.3c-0.2-0.1-0.3-0.3-0.4-0.6c-0.1-0.2-0.1-0.4-0.1-0.7
				c0-0.1,0-0.2,0.1-0.4c0.1-0.2,0.1-0.3,0.2-0.6c0.1-0.2,0.2-0.3,0.3-0.6c0.1-0.2,0.2-0.3,0.3-0.4c0.1-0.1,0.2-0.2,0.4-0.3
				c0.1-0.1,0.3-0.1,0.4-0.1c0.2,0,0.4,0.1,0.7,0.3c0.2,0.2,0.3,0.4,0.6,0.7c0.1,0.2,0.3,0.6,0.3,0.9c0,0.3,0.1,0.6,0.2,0.8h0.8h0.2
				c0.2,0,0.3,0.1,0.4,0.2c0.1,0.1,0.1,0.3,0.1,0.6c0,0.2,0,0.3-0.1,0.6c-0.1,0.1-0.2,0.2-0.4,0.2h-0.2h-0.9
				c-0.1,0.6-0.2,1.1-0.4,1.7c-0.1,0.6-0.3,1-0.6,1.5s-0.6,0.9-0.9,1.2c-0.3,0.3-0.8,0.6-1.3,0.8c-0.3,0.1-0.8,0.2-1.2,0.2
				c-0.4,0-0.9,0-1.3,0s-0.9-0.1-1.3-0.1c-0.4-0.1-0.9-0.1-1.2-0.2c-0.1,0-0.1-0.1-0.2-0.1c0-0.1,0-0.1,0-0.2s0.1-0.1,0.1-0.1
				c0.1,0,0.1-0.1,0.2,0c0.3,0,0.8,0,1.1,0s0.8,0,1.2-0.1c0.4-0.1,0.8-0.1,1.2-0.2c0.3-0.1,0.8-0.2,1-0.4c0.3-0.2,0.7-0.4,1-0.8
				s0.6-0.6,0.8-0.9c0.2-0.3,0.4-0.7,0.6-1C131,28.8,131.1,28.5,131.4,28.2z M129.8,25.6c-0.1,0-0.2,0-0.2,0.1
				c-0.1,0.1-0.1,0.1-0.2,0.2c-0.1,0.1-0.1,0.1-0.2,0.2s-0.1,0.1-0.1,0.2s0.1,0.1,0.3,0.2c0.2,0.1,0.3,0.1,0.6,0.1s0.4,0,0.6,0
				s0.3,0,0.4,0c0,0,0-0.1-0.1-0.2c-0.1-0.1-0.1-0.2-0.2-0.3c-0.1-0.1-0.2-0.2-0.3-0.3C130.1,25.6,129.9,25.6,129.8,25.6z"/>
			<path class="st0" d="M132.5,17.3c-0.1,0-0.1,0,0-0.1c0.1-0.1,0.1-0.1,0.2-0.2c0.2-0.1,0.4-0.3,0.7-0.4c0.2-0.1,0.4-0.2,0.7-0.4
				c0.2-0.1,0.4-0.3,0.6-0.4c0.2-0.1,0.4-0.3,0.6-0.6c-0.2,0-0.3-0.1-0.6-0.2c-0.2-0.1-0.3-0.2-0.4-0.4c-0.1-0.1-0.1-0.2-0.1-0.3
				c0-0.1,0-0.2,0-0.3c0.1-0.1,0.1-0.3,0.2-0.6s0.2-0.3,0.3-0.6c0.1-0.1,0.2-0.3,0.4-0.3c0.1-0.1,0.3-0.1,0.6-0.1
				c0.1,0,0.2,0,0.3,0.1c0.1,0.1,0.1,0.2,0.2,0.3c0.1,0.1,0.1,0.3,0.1,0.4s0,0.3,0,0.4c0,0.1,0,0.3,0,0.4c0,0.1,0,0.2,0,0.3
				c0,0,0,0,0,0.1c0.1,0,0.1,0.1,0.2,0.1s0,0.1,0.1,0.1c0,0.1,0,0.2,0,0.3s-0.1,0.2-0.1,0.3c0,0.1-0.1,0.1-0.1,0.1s-0.1,0-0.1-0.1
				l-0.1-0.1l-0.1-0.1c-0.2,0.2-0.4,0.4-0.6,0.7c-0.2,0.2-0.3,0.3-0.6,0.4c-0.2,0.1-0.4,0.2-0.7,0.4c-0.2,0.1-0.6,0.2-0.8,0.3
				c-0.1,0-0.2,0.1-0.3,0.1S132.6,17.5,132.5,17.3z M134.6,13.7c0.1,0.2,0.3,0.3,0.4,0.4c0.2,0.1,0.3,0.2,0.6,0.2l0,0
				c0-0.1,0-0.1,0-0.2c0-0.1,0-0.2,0-0.2c0-0.1,0-0.2,0-0.2c0-0.1-0.1-0.1-0.1-0.2c0,0-0.1-0.1-0.2-0.1c-0.1,0-0.2,0-0.3,0
				s-0.2,0.1-0.2,0.1S134.6,13.5,134.6,13.7z"/>
			<path class="st0" d="M135.2,22.6C135.3,22.6,135.3,22.6,135.2,22.6c0.1-0.1,0.1,0,0.2,0c0.2,0.2,0.3,0.4,0.6,0.7
				c0.1,0.2,0.3,0.4,0.4,0.7c0.1,0.2,0.2,0.4,0.3,0.8c0.1,0.2,0.1,0.6,0.1,0.8c0,0.1,0,0.2,0,0.3c0,0.1,0,0.3-0.1,0.4
				c0,0.1-0.1,0.3-0.1,0.4s-0.1,0.2-0.1,0.3c-0.1,0.2-0.3,0.4-0.7,0.6s-0.6,0.2-0.9,0.3c-0.3,0.1-0.7,0.1-1,0.1s-0.7,0-1,0h-0.2
				c-0.2,0-0.3-0.1-0.4-0.2c-0.1-0.1-0.1-0.3-0.1-0.6c0-0.2,0-0.3,0.1-0.6c0.1-0.1,0.2-0.2,0.4-0.2h0.2c0.1,0,0.3,0,0.7,0
				c0.3,0,0.6,0,0.9,0s0.7-0.1,0.9-0.1c0.3,0,0.6-0.1,0.7-0.2s0.1-0.1,0.1-0.2c-0.1-0.3-0.3-0.7-0.6-1c-0.2-0.3-0.4-0.6-0.8-0.9
				c0-0.2,0.1-0.4,0.2-0.7C135,23.1,135.2,22.8,135.2,22.6z M134.7,18.1l1.2,1c0,0,0.1,0.1,0,0.1l-0.8,1c0,0.1-0.1,0.1-0.1,0l-1.2-1
				c0,0,0-0.1,0-0.2l0.8-1C134.6,18.1,134.6,18.1,134.7,18.1z"/>
			<path class="st0" d="M143.6,18c-0.3,0.1-0.7,0.3-1.1,0.4c-0.3,0.1-0.8,0.3-1.1,0.4c-0.3,0.1-0.7,0.3-1,0.4
				c-0.3,0.1-0.6,0.2-0.8,0.3h-0.1c0,0,0,0,0-0.1c0,0,0-0.1,0.1-0.2c0-0.1,0.1-0.2,0.1-0.3s0.1-0.2,0.1-0.3c0-0.1,0.1-0.1,0.1-0.1
				c0.1-0.1,0.1-0.1,0.2-0.2l3.9-1.7c0.1,0,0.1,0,0.1,0.1s-0.1,0.1-0.1,0.2c0,0.1-0.1,0.2-0.1,0.2l-0.1,0.2c0,0.1-0.1,0.1-0.1,0.2
				C143.8,17.9,143.6,18,143.6,18z"/>
			<path class="st0" d="M142.9,25.5C142.9,25.4,143,25.4,142.9,25.5c0.1,0,0.1,0,0.2,0.1c0.2,0.2,0.4,0.4,0.7,0.6
				c0.2,0.1,0.4,0.2,0.7,0.3c0.2,0.1,0.4,0.1,0.7,0.1c0.2,0,0.4,0,0.7,0h0.2c0.2,0,0.3,0.1,0.4,0.2c0.1,0.1,0.1,0.3,0.1,0.6
				c0,0.2,0,0.3-0.1,0.6c-0.1,0.1-0.2,0.2-0.4,0.2h-0.2c-0.1,0-0.1,0-0.2,0s-0.2,0-0.3,0c-0.1,0-0.2,0-0.4,0c-0.1,0-0.2,0-0.3,0
				c-0.1,0.4-0.2,0.9-0.3,1.3c-0.1,0.4-0.2,0.8-0.3,1.1c-0.1,0.3-0.2,0.6-0.3,0.8c-0.1,0.2-0.2,0.3-0.2,0.4
				c-0.2,0.3-0.6,0.6-0.8,0.9c-0.3,0.2-0.6,0.4-0.9,0.6c-0.3,0.1-0.7,0.2-1,0.3c-0.3,0.1-0.7,0.1-1,0.1c-0.4,0-1,0-1.6,0
				c-0.6-0.1-1.1-0.2-1.8-0.4c-0.1,0-0.1-0.1-0.2-0.1c-0.1,0,0-0.1,0-0.1s0.1-0.1,0.2-0.1s0.2,0,0.3,0c0.8,0.1,1.6,0.1,2.2-0.1
				c0.7-0.1,1.3-0.4,2.1-0.8c0.8-0.4,1.5-1,1.9-1.7c0.4-0.7,0.8-1.3,1-2.1c-0.2-0.1-0.6-0.2-0.8-0.4c-0.2-0.2-0.4-0.3-0.6-0.6
				c0-0.2,0.1-0.4,0.1-0.7C142.7,25.9,142.7,25.7,142.9,25.5z M141.9,21.1l1.2,1c0,0,0.1,0.1,0,0.1l-0.8,1c0,0.1-0.1,0.1-0.1,0
				l-1.2-1c0,0,0-0.1,0-0.2l0.8-1C141.9,21.1,141.9,21.1,141.9,21.1z"/>
			<path class="st0" d="M150,16.3c-0.3,0.1-0.7,0.3-1.1,0.4c-0.3,0.1-0.8,0.3-1.1,0.4s-0.7,0.3-1,0.4s-0.6,0.2-0.8,0.3h-0.1
				c0,0,0,0,0-0.1c0,0,0-0.1,0.1-0.2c0-0.1,0.1-0.2,0.1-0.3c0-0.1,0.1-0.2,0.1-0.3s0.1-0.1,0.1-0.1c0.1-0.1,0.1-0.1,0.2-0.2l3.9-1.7
				c0.1,0,0.1,0,0.1,0.1c0,0.1-0.1,0.1-0.1,0.2c0,0.1-0.1,0.2-0.1,0.2l-0.1,0.2c0,0.1-0.1,0.1-0.1,0.2C150.1,16.2,150,16.2,150,16.3
				z"/>
			<path class="st0" d="M154.1,18c0.1,0,0.3,0,0.4,0.1s0.2,0.2,0.3,0.3c0.1,0.1,0.1,0.3,0.2,0.6c0,0.2,0.1,0.4,0.1,0.6
				c0,0.2,0,0.4,0,0.6c0,0.2,0,0.3-0.1,0.6c0,0.2-0.1,0.3-0.1,0.4s-0.1,0.2-0.1,0.3c-0.1,0.2-0.2,0.1-0.2,0c0-0.1,0-0.3,0-0.6
				c0-0.2,0-0.4-0.1-0.7c0-0.2-0.1-0.4-0.2-0.6c-0.1-0.1-0.2-0.2-0.3-0.2c-0.1,0-0.3,0-0.4,0.1c-0.1,0.1-0.3,0.1-0.4,0.3
				c-0.1,0.1-0.2,0.2-0.4,0.4c-0.1,0.1-0.2,0.3-0.4,0.6c-0.4,0.6-0.8,1-1.2,1.5c-0.4,0.4-1,0.8-1.6,1l0,0c0.4,0.1,0.9,0.1,1.2,0.2
				s0.8,0.1,1.2,0.2c0.4,0.1,0.8,0.1,1.2,0.1c0.4,0,0.8,0.1,1.2,0.1c0.6,0.1,1.2,0.1,1.8,0.1c0.6,0,1.2,0.1,1.9,0.1
				c0.1,0,0.1,0,0.1,0s0,0,0,0.1c0,0-0.1,0.1-0.1,0.2c-0.1,0.1-0.1,0.2-0.2,0.3c-0.1,0.1-0.1,0.2-0.2,0.3c-0.1,0.1-0.1,0.2-0.2,0.3
				c0,0-0.1,0-0.1,0.1c0,0-0.1,0-0.2,0c-0.7-0.1-1.3-0.1-2-0.1c-0.7,0.1-1.2,0.2-1.9,0.3c-0.3,0.1-0.7,0.2-1,0.3
				c-0.3,0.1-0.7,0.2-1,0.4c-0.3,0.1-0.7,0.3-1.1,0.4c-0.3,0.1-0.8,0.3-1.2,0.4c-0.4,0.1-0.9,0.2-1.3,0.3c-0.4,0.1-1,0.1-1.6,0.1
				h-0.2c-0.2,0-0.3-0.1-0.4-0.2c-0.1-0.1-0.1-0.3-0.1-0.6c0-0.2,0-0.3,0.1-0.6c0.1-0.2,0.2-0.2,0.4-0.2h0.2c0.2,0,0.6,0,0.9,0
				s0.8-0.1,1.3-0.1c0.6,0,1.1-0.2,1.7-0.3c0.7-0.2,1.3-0.4,2.1-0.8c-0.3-0.1-0.7-0.1-1.1-0.2c-0.4-0.1-0.9-0.1-1.3-0.2
				c-0.4-0.1-0.9-0.1-1.3-0.2c-0.4-0.1-0.8-0.1-1.1-0.1c0,0-0.1,0-0.2,0s-0.2,0-0.2,0.1h-0.1l-0.2-0.1c0-0.1,0.1-0.3,0.1-0.4
				c0.1-0.1,0.1-0.3,0.2-0.4c0.1-0.1,0.2-0.2,0.3-0.3c0.1-0.1,0.2-0.2,0.3-0.2c0.2-0.1,0.4-0.2,0.7-0.3c0.2-0.1,0.4-0.2,0.7-0.3
				c0.2-0.1,0.4-0.2,0.7-0.3c0.2-0.1,0.4-0.2,0.7-0.3c0.4-0.3,0.9-0.7,1.2-1c0.3-0.3,0.7-0.8,1-1.1c0.1-0.1,0.2-0.2,0.3-0.4
				c0.1-0.2,0.2-0.3,0.4-0.4c0.1-0.1,0.3-0.2,0.4-0.3C153.8,18.1,154,18,154.1,18z M155.2,16.2C155.2,16.3,155.1,16.3,155.2,16.2
				c-0.1,0.1-0.1,0-0.2,0l-1.2-0.9l-0.8,1.1c0,0.1-0.1,0.1-0.1,0l-1.2-1v-0.1l0.8-1.1c0,0,0-0.1,0.1-0.1c0,0,0,0,0.1,0l1.2,0.9
				l0.8-1c0,0,0.1-0.1,0.1,0l1.2,1.1v0.1L155.2,16.2z"/>
			<path d="M167.3,11.8c-0.3,0.1-0.7,0.3-1.1,0.4c-0.3,0.1-0.8,0.3-1.1,0.4c-0.3,0.1-0.7,0.3-1,0.4c-0.3,0.1-0.6,0.2-0.8,0.3h-0.1
				c0,0,0,0,0-0.1c0,0,0-0.1,0.1-0.2c0-0.1,0.1-0.2,0.1-0.3c0-0.1,0.1-0.2,0.1-0.3s0.1-0.1,0.1-0.1c0.1-0.1,0.1-0.1,0.2-0.2l3.9-1.7
				c0.1,0,0.1,0,0.1,0.1c0,0.1-0.1,0.1-0.1,0.2c0,0.1-0.1,0.2-0.1,0.2l-0.1,0.2c0,0.1-0.1,0.1-0.1,0.2
				C167.4,11.7,167.4,11.7,167.3,11.8z"/>
			<path d="M171.7,23.6c0.2-0.7,0.4-1.2,0.6-1.9s0.2-1.3,0.2-1.9c0-0.7,0-1.3,0-2c0-0.7,0-1.3-0.1-2c0-0.2-0.1-0.3-0.1-0.4
				c-0.1-0.1-0.1-0.2-0.2-0.4c0.1-0.2,0.2-0.4,0.4-0.7c0.1-0.2,0.3-0.4,0.4-0.7c0.1-0.1,0.1-0.1,0.2,0c0,0.2,0.1,0.3,0.1,0.6
				c0.1,0.2,0.1,0.3,0.2,0.6s0.2,0.3,0.2,0.4c0.1,0.1,0.2,0.3,0.3,0.4c0,0.1-0.1,0.1-0.1,0.2c0,0.1-0.1,0.2-0.2,0.2
				c-0.1,0.1-0.1,0.2-0.2,0.3c0,0.1-0.1,0.2-0.1,0.3c0,0.7,0,1.3,0,2s-0.1,1.3-0.2,2c-0.1,0.7-0.2,1.3-0.3,1.9
				c-0.1,0.6-0.3,1.1-0.6,1.7c0.2,0.3,0.3,0.8,0.6,1.1c0.1,0.4,0.2,0.8,0.3,1.3c0,0.3,0,0.6-0.1,0.8c-0.1,0.2-0.2,0.6-0.3,0.8
				c-0.2,0-0.6,0.1-0.9,0.1s-0.7,0.1-1.1,0.1c-0.3,0-0.8,0.1-1.1,0.1s-0.7,0-1,0c0,0,0-0.1,0-0.2s0-0.2,0-0.4c0-0.1,0-0.3,0.1-0.4
				c0-0.1,0.1-0.2,0.1-0.3s0.1-0.1,0.2-0.1c0.2,0,0.4,0,0.4-0.1s0.2-0.1,0.2-0.1c0.1-0.1,0.2-0.2,0.3-0.4c0.1-0.2,0.3-0.4,0.4-0.7
				c0.1-0.2,0.3-0.4,0.4-0.8c0.1-0.3,0.2-0.4,0.3-0.7c-0.3-0.6-0.7-1-1-1.6c-0.3-0.6-0.8-1.1-1.2-1.7c-0.4-0.6-0.9-1.1-1.3-1.6
				c-0.4-0.6-0.9-1-1.3-1.3c-0.2,0.1-0.4,0.1-0.7,0.1c-0.1,0-0.3-0.1-0.6-0.2c-0.2-0.1-0.4-0.2-0.6-0.3c-0.2-0.1-0.3-0.2-0.4-0.4
				c-0.1-0.1-0.2-0.3-0.2-0.6c0,0,0-0.1,0-0.2s0-0.2,0-0.4c0-0.1,0-0.3,0-0.6c0-0.2,0-0.3,0.1-0.4c0-0.1,0.1-0.2,0.1-0.2
				c0.1,0,0.1,0,0.3,0.1c0.4,0.3,0.9,0.7,1.3,1.1c0.4,0.4,0.9,0.9,1.3,1.3c0.4,0.4,0.9,1,1.2,1.5c0.4,0.6,0.8,1,1.1,1.6s0.7,1,1,1.6
				C171.1,22.7,171.4,23.1,171.7,23.6z M170.5,27.2c0.3,0,0.7-0.1,1-0.1c0.3,0,0.7-0.1,0.9-0.1c0-0.1,0-0.2-0.1-0.3
				c0-0.1-0.1-0.3-0.2-0.4c-0.1-0.1-0.1-0.3-0.2-0.4s-0.1-0.2-0.2-0.3c-0.2,0.3-0.3,0.7-0.6,1C170.9,26.7,170.8,26.8,170.5,27.2z"/>
			<path d="M180.2,18.3c-0.3,0.1-0.7,0.3-1.1,0.4c-0.3,0.1-0.8,0.3-1.1,0.4s-0.7,0.3-1,0.4s-0.6,0.2-0.8,0.3h-0.1c0,0,0,0,0-0.1
				c0,0,0-0.1,0.1-0.2c0-0.1,0.1-0.2,0.1-0.3c0-0.1,0.1-0.2,0.1-0.3s0.1-0.1,0.1-0.1c0.1-0.1,0.1-0.1,0.2-0.2l3.9-1.7
				c0.1,0,0.1,0,0.1,0.1s-0.1,0.1-0.1,0.2c0,0.1-0.1,0.2-0.1,0.2l-0.1,0.2c0,0.1-0.1,0.1-0.1,0.2C180.4,18.2,180.4,18.2,180.2,18.3z
				"/>
			<path d="M181,26.3c-0.1,0.3-0.2,0.6-0.6,0.7c-0.3,0.1-0.6,0.3-0.9,0.3c-0.2,0-0.3,0-0.6-0.1c-0.1-0.1-0.3-0.2-0.4-0.3
				c-0.1-0.1-0.2-0.3-0.2-0.6c-0.1-0.2-0.1-0.4-0.1-0.6s0-0.3,0.1-0.4c0-0.2,0.1-0.3,0.2-0.6s0.1-0.3,0.2-0.6
				c0.1-0.2,0.2-0.3,0.3-0.6c0.1-0.1,0.2-0.2,0.3-0.3c0.1-0.1,0.2-0.1,0.4-0.1s0.6,0.1,0.8,0.3c0.2,0.2,0.4,0.4,0.6,0.8
				s0.3,0.7,0.4,1.1c0.1,0.3,0.1,0.8,0.1,1.1c0,0.4-0.1,1-0.2,1.5c-0.1,0.4-0.2,1-0.4,1.6c-0.2,0.6-0.4,1-0.7,1.5
				c-0.2,0.4-0.6,0.8-0.8,1.1c-0.2,0.3-0.6,0.6-0.9,0.8c-0.3,0.2-0.7,0.3-1,0.4c-0.3,0.1-0.7,0.2-1.1,0.2c-0.3,0-0.8,0-1.1,0
				c-0.4,0-0.8-0.1-1.2-0.1c-0.4-0.1-0.8-0.1-1.1-0.2c0,0-0.1,0-0.1-0.1V33l0.1-0.1c0,0,0.1,0,0.2,0c0.6,0.1,1.1,0.1,1.6,0
				c0.6-0.1,1-0.2,1.6-0.3c0.4-0.1,0.8-0.3,1.2-0.6c0.4-0.2,0.8-0.6,1.1-0.9c0.2-0.2,0.6-0.4,0.8-0.8c0.2-0.3,0.4-0.7,0.7-0.9
				c0.2-0.2,0.3-0.7,0.6-1c0.1-0.3,0.2-0.7,0.3-0.9c0-0.1,0-0.1,0-0.2s0-0.1,0-0.2s0-0.1,0-0.2C181,26.4,181,26.4,181,26.3z
				 M180.7,25.4c0,0,0-0.1-0.1-0.2c0-0.1-0.1-0.2-0.2-0.3c-0.1-0.1-0.2-0.2-0.3-0.2c-0.1-0.1-0.2-0.1-0.3-0.1c-0.1,0-0.2,0-0.2,0.1
				s-0.1,0.1-0.2,0.2c-0.1,0.1-0.1,0.2-0.1,0.2c0,0.1,0,0.1,0,0.2c0.1,0.1,0.2,0.2,0.3,0.3c0.1,0,0.3,0.1,0.4,0.1
				c0.2,0,0.3,0,0.4-0.1S180.6,25.5,180.7,25.4z"/>
			<path class="st0" d="M188.8,15C188.8,15,188.8,15.1,188.8,15c0.1,0.1,0.1,0.1,0.1,0.1v0.1v0.1c0,0.2,0,0.6,0,0.8s0,0.4,0.1,0.8
				c0.1,0.6,0.1,1.2,0.2,1.9c0.1,0.7,0.2,1.2,0.2,1.9c0.1,0.7,0.2,1.3,0.2,1.9c0,0.6,0.2,1.2,0.2,1.9c0,0.2,0,0.6,0,0.8
				c0,0.3,0,0.7,0,1s0,0.7-0.1,0.9c0,0.3-0.1,0.6-0.2,0.8c0,0.1-0.1,0.2-0.2,0.2c0,0-0.1,0-0.1-0.1c-0.1-1.1-0.2-2.3-0.3-3.6
				c-0.2-1.2-0.3-2.6-0.6-3.8c-0.2-1.2-0.3-2.6-0.4-3.8c0-0.3,0.1-0.7,0.2-1c0.1-0.2,0.1-0.3,0.2-0.6
				C188.6,15.3,188.7,15.2,188.8,15z"/>
			<path class="st0" d="M196.8,28.2h-1c-0.3,0-0.6,0-0.8-0.1s-0.4-0.2-0.7-0.3c-0.2-0.1-0.3-0.3-0.4-0.6c-0.1-0.2-0.1-0.4-0.1-0.8
				c0-0.1,0-0.2,0.1-0.4c0.1-0.2,0.1-0.3,0.2-0.6c0.1-0.2,0.2-0.3,0.3-0.6c0.1-0.2,0.2-0.3,0.3-0.4c0.1-0.1,0.2-0.2,0.4-0.3
				c0.1-0.1,0.3-0.1,0.4-0.1c0.2,0,0.4,0.1,0.7,0.3c0.2,0.2,0.3,0.4,0.6,0.7c0.1,0.2,0.3,0.6,0.3,0.9c0,0.3,0.1,0.6,0.2,0.8h0.8h0.2
				c0.2,0,0.3,0.1,0.4,0.2c0.1,0.1,0.1,0.3,0.1,0.6c0,0.2,0,0.3-0.1,0.6c-0.1,0.1-0.2,0.2-0.4,0.2h-0.2h-0.9
				c-0.1,0.6-0.2,1.1-0.4,1.7c-0.1,0.6-0.3,1-0.6,1.5s-0.6,0.9-0.9,1.2c-0.3,0.3-0.8,0.6-1.3,0.8c-0.3,0.1-0.8,0.2-1.2,0.2
				c-0.4,0-0.9,0-1.3,0s-0.9-0.1-1.3-0.1c-0.4-0.1-0.9-0.1-1.2-0.2c-0.1,0-0.1-0.1-0.2-0.1c0-0.1,0-0.1,0-0.2s0.1-0.1,0.1-0.1
				c0.1,0,0.1-0.1,0.2,0c0.3,0,0.8,0,1.1,0s0.8,0,1.2-0.1c0.4-0.1,0.8-0.1,1.2-0.2c0.3-0.1,0.8-0.2,1-0.4c0.3-0.2,0.7-0.4,1-0.8
				c0.3-0.3,0.6-0.6,0.8-0.9c0.2-0.3,0.4-0.7,0.6-1C196.5,28.8,196.7,28.5,196.8,28.2z M195.3,25.6c-0.1,0-0.2,0-0.2,0.1
				c-0.1,0.1-0.1,0.1-0.2,0.2c-0.1,0.1-0.1,0.1-0.2,0.2s-0.1,0.1-0.1,0.2s0.1,0.1,0.3,0.2c0.2,0.1,0.3,0.1,0.6,0.1
				c0.2,0,0.4,0,0.6,0s0.3,0,0.4,0c0,0,0-0.1-0.1-0.2c-0.1-0.1-0.1-0.2-0.2-0.3c-0.1-0.1-0.2-0.2-0.3-0.3
				C195.5,25.6,195.4,25.6,195.3,25.6z"/>
			<path class="st0" d="M198.3,17.9c-0.1,0-0.1,0,0-0.1c0.1-0.1,0.1-0.1,0.2-0.2c0.2-0.1,0.4-0.3,0.7-0.4s0.4-0.2,0.7-0.4
				c0.2-0.1,0.4-0.3,0.6-0.4c0.2-0.1,0.4-0.3,0.6-0.6c-0.2,0-0.3-0.1-0.6-0.2c-0.2-0.1-0.3-0.2-0.4-0.4c-0.1-0.1-0.1-0.2-0.1-0.3
				c0-0.1,0-0.2,0-0.3c0.1-0.1,0.1-0.3,0.2-0.6c0.1-0.2,0.2-0.3,0.3-0.6c0.1-0.1,0.2-0.3,0.4-0.3c0.1-0.1,0.3-0.1,0.6-0.1
				c0.1,0,0.2,0,0.3,0.1c0.1,0.1,0.1,0.2,0.2,0.3c0.1,0.1,0.1,0.3,0.1,0.4c0,0.1,0,0.3,0,0.4c0,0.1,0,0.3,0,0.4s0,0.2,0,0.3
				c0,0,0,0,0,0.1c0.1,0,0.1,0.1,0.2,0.1c0.1,0,0,0.1,0.1,0.1c0,0.1,0,0.2,0,0.3c0,0.1-0.1,0.2-0.1,0.3s-0.1,0.1-0.1,0.1
				s-0.1,0-0.1-0.1l-0.1-0.1l-0.1-0.1c-0.2,0.2-0.4,0.4-0.6,0.7c-0.2,0.2-0.3,0.3-0.6,0.4c-0.2,0.1-0.4,0.2-0.7,0.4
				c-0.2,0.1-0.6,0.2-0.8,0.3c-0.1,0-0.2,0.1-0.3,0.1S198.4,17.9,198.3,17.9z M200.6,14.2c0.1,0.2,0.3,0.3,0.4,0.4
				c0.2,0.1,0.3,0.2,0.6,0.2l0,0c0-0.1,0-0.1,0-0.2c0-0.1,0-0.2,0-0.2c0-0.1,0-0.2,0-0.2c0-0.1-0.1-0.1-0.1-0.2c0,0-0.1-0.1-0.2-0.1
				s-0.2,0-0.3,0s-0.2,0.1-0.2,0.1S200.6,14.1,200.6,14.2z"/>
			<path class="st0" d="M201.8,24.5c0,0.1,0,0.1,0,0.2s0,0.2,0,0.3c0,0.2,0,0.3,0.1,0.6c0.1,0.2,0.2,0.3,0.4,0.4
				c0.2,0.1,0.4,0.2,0.7,0.3c0.3,0.1,0.7,0.1,1,0.1h0.2c0.2,0,0.3,0.1,0.4,0.2c0.1,0.1,0.1,0.3,0.1,0.6c0,0.2,0,0.3-0.1,0.6
				c-0.1,0.1-0.2,0.2-0.4,0.2H204c-0.8,0-1.3-0.1-1.8-0.4c-0.4-0.3-0.8-0.7-1-1.2c-0.2,0.3-0.3,0.7-0.7,0.9
				c-0.3,0.2-0.4,0.3-0.8,0.4c-0.2,0.1-0.6,0.2-0.8,0.2c-0.2,0-0.4,0-0.7,0h-0.2c-0.2,0-0.3-0.1-0.4-0.2c-0.1-0.1-0.1-0.3-0.1-0.6
				s0-0.3,0.1-0.6c0.1-0.1,0.2-0.2,0.4-0.2h0.2c0.2,0,0.4,0,0.7,0s0.4,0,0.7-0.1s0.4-0.1,0.7-0.2c0.2-0.1,0.4-0.3,0.6-0.6
				c0.1-0.2,0.2-0.3,0.3-0.6c0.1-0.2,0.2-0.3,0.2-0.6v-0.1h0.1C201.7,24.4,201.7,24.4,201.8,24.5C201.7,24.5,201.8,24.5,201.8,24.5z
				 M200.8,19.9l1.2,1c0,0,0.1,0.1,0,0.1l-0.8,1c0,0.1-0.1,0.1-0.1,0l-1.3-0.9c0,0,0-0.1,0-0.2l0.9-1
				C200.7,19.8,200.7,19.8,200.8,19.9z"/>
			<path class="st0" d="M209.7,34.2c-0.7,0.2-1.3,0.4-2,0.8c-0.7,0.2-1.2,0.4-1.9,0.7c-0.1,0-0.1,0-0.1-0.1c0-0.1,0.1-0.2,0.2-0.4
				c0.1-0.1,0.1-0.3,0.2-0.3l0.1-0.1c0.2-0.1,0.4-0.1,0.7-0.2c0.3-0.1,0.6-0.2,1-0.3c0.3-0.1,0.7-0.2,1.1-0.4
				c0.3-0.1,0.8-0.2,1.1-0.3c0.1,0,0.1,0,0.1,0.1s-0.1,0.1-0.1,0.2s-0.1,0.1-0.1,0.2c0,0.1-0.1,0.1-0.1,0.2s-0.1,0.1-0.1,0.1
				C209.8,34.1,209.8,34.1,209.7,34.2L209.7,34.2z"/>
			<path class="st0" d="M208.9,21.8c0.1,0,0.1,0,0.2,0.1c0.1,0.1,0.1,0.2,0.2,0.3c0,0.1,0.1,0.3,0.1,0.4s0.1,0.3,0.1,0.4
				s0,0.3,0,0.4s0,0.2,0,0.3c0,0.6-0.2,1.1-0.3,1.6c-0.2,0.4-0.4,0.8-0.9,1.1c0.2,0,0.6-0.1,0.8-0.1c0.3,0,0.6,0,0.9,0s0.6,0,0.9,0
				s0.6,0,0.8,0h0.2c0.2,0,0.3,0.1,0.4,0.2c0.1,0.1,0.1,0.3,0.1,0.6c0,0.2,0,0.3-0.1,0.6c-0.1,0.1-0.2,0.2-0.4,0.2h-0.2h-1.9
				c0.2,0.2,0.3,0.4,0.4,0.8c0.1,0.2,0.1,0.6,0.1,0.8c0,0.2,0,0.4-0.1,0.6c-0.1,0.1-0.1,0.4-0.2,0.6c-0.1,0.2-0.2,0.3-0.3,0.4
				c-0.1,0.1-0.3,0.2-0.6,0.2c-0.4,0.1-0.9,0-1.2-0.1s-0.7-0.4-1-0.8c-0.1-0.1-0.2-0.3-0.3-0.6c-0.1-0.2-0.2-0.3-0.3-0.6
				c-0.1-0.2-0.2-0.4-0.2-0.7c-0.1-0.2-0.1-0.4-0.1-0.7c-0.1,0-0.2,0-0.3,0c-0.1,0-0.2,0-0.3,0.1c-0.1,0-0.2,0-0.2,0
				c-0.1,0-0.1,0-0.1,0c0-0.1,0-0.1,0-0.2c0-0.1,0.1-0.1,0.1-0.2h-1h-0.2c-0.2,0-0.4-0.1-0.6-0.2c-0.1-0.1-0.1-0.3-0.1-0.6
				c0-0.2,0.1-0.3,0.2-0.6c0.1-0.1,0.2-0.2,0.4-0.2h0.2c0.3,0,0.8,0,1.1,0s0.7,0,0.9-0.1c0.1-0.4,0.2-1,0.4-1.5
				c0.2-0.6,0.4-1,0.7-1.5c0.1-0.1,0.2-0.3,0.3-0.4c0.1-0.2,0.3-0.4,0.4-0.6c0.2-0.2,0.3-0.3,0.6-0.4
				C208.5,21.9,208.7,21.8,208.9,21.8z M206.5,26.4c0.2-0.1,0.3-0.1,0.7-0.2c0.2-0.1,0.4-0.2,0.7-0.3c0.2-0.1,0.4-0.2,0.7-0.4
				c0.2-0.1,0.3-0.2,0.4-0.4c0-0.2,0-0.4-0.1-0.7c0-0.2-0.1-0.4-0.2-0.6l-0.1-0.1h-0.1c-0.2,0-0.4,0.1-0.6,0.3
				c-0.2,0.2-0.3,0.4-0.6,0.8c-0.1,0.3-0.3,0.7-0.4,0.9C206.6,25.9,206.5,26.2,206.5,26.4z M206.6,28.4c0.1,0.2,0.2,0.4,0.3,0.7
				c0.1,0.2,0.2,0.3,0.3,0.6c0.1,0.1,0.3,0.3,0.6,0.4c0.2,0.1,0.4,0.2,0.7,0.2c0.1,0,0.2,0,0.3,0s0.2,0,0.3-0.1s0.2-0.1,0.3-0.1
				c0.1-0.1,0.1-0.1,0.1-0.2s-0.1-0.2-0.2-0.3c-0.1-0.1-0.2-0.2-0.4-0.3c-0.2-0.1-0.3-0.2-0.6-0.3c-0.2-0.1-0.4-0.2-0.7-0.2
				c-0.2-0.1-0.4-0.1-0.7-0.1C206.8,28.5,206.7,28.4,206.6,28.4z"/>
			<path class="st0" d="M215.3,15.6c-0.3,0.1-0.7,0.3-1.1,0.4c-0.3,0.1-0.8,0.3-1.1,0.4c-0.3,0.1-0.7,0.3-1,0.4
				c-0.3,0.1-0.6,0.2-0.8,0.3h-0.1c0,0,0,0,0-0.1c0,0,0-0.1,0.1-0.2c0-0.1,0.1-0.2,0.1-0.3c0-0.1,0.1-0.2,0.1-0.3s0.1-0.1,0.1-0.1
				c0.1-0.1,0.1-0.1,0.2-0.2l3.9-1.7c0.1,0,0.1,0,0.1,0.1c0,0.1-0.1,0.1-0.1,0.2c0,0.1-0.1,0.2-0.1,0.2l-0.1,0.2
				c0,0.1-0.1,0.1-0.1,0.2C215.4,15.4,215.4,15.4,215.3,15.6z"/>
			<path class="st0" d="M214.1,22.6L214.1,22.6c0.1-0.1,0.1,0,0.2,0c0.2,0.2,0.3,0.4,0.6,0.7c0.1,0.2,0.3,0.4,0.4,0.7
				c0.1,0.2,0.2,0.4,0.3,0.8c0.1,0.2,0.1,0.6,0.1,0.8c0,0.1,0,0.2,0,0.3c0,0.1,0,0.3-0.1,0.4c0,0.1-0.1,0.3-0.1,0.4
				s-0.1,0.2-0.1,0.3c-0.1,0.2-0.3,0.4-0.7,0.6s-0.6,0.2-0.9,0.3c-0.3,0.1-0.7,0.1-1,0.1c-0.3,0-0.7,0-1,0h-0.2
				c-0.2,0-0.3-0.1-0.4-0.2c-0.1-0.1-0.1-0.3-0.1-0.6c0-0.2,0-0.3,0.1-0.6c0.1-0.1,0.2-0.2,0.4-0.2h0.2c0.1,0,0.3,0,0.7,0
				s0.6,0,0.9,0s0.7-0.1,0.9-0.1c0.3,0,0.6-0.1,0.7-0.2s0.1-0.1,0.1-0.2c-0.1-0.3-0.3-0.7-0.6-1c-0.2-0.3-0.4-0.6-0.8-0.9
				c0-0.2,0.1-0.4,0.2-0.7C213.8,23.1,214,22.8,214.1,22.6z M215.3,20.6C215.2,20.7,215.2,20.7,215.3,20.6c-0.1,0.1-0.1,0-0.2,0
				l-1.2-0.9l-0.8,1.1c0,0.1-0.1,0.1-0.1,0l-1.2-1v-0.1l0.8-1.1c0,0,0-0.1,0.1-0.1c0,0,0,0,0.1,0l1.2,0.9l0.8-1c0,0,0.1-0.1,0.1,0
				l1.2,1.1v0.1L215.3,20.6z"/>
			<path d="M232.1,11.2c-0.3,0.1-0.7,0.3-1.1,0.4c-0.3,0.1-0.8,0.3-1.1,0.4c-0.3,0.1-0.7,0.3-1,0.4c-0.3,0.1-0.6,0.2-0.8,0.3H228
				c0,0,0,0,0-0.1c0,0,0-0.1,0.1-0.2c0-0.1,0.1-0.2,0.1-0.3s0.1-0.2,0.1-0.3c0-0.1,0.1-0.1,0.1-0.1c0.1-0.1,0.1-0.1,0.2-0.2l3.9-1.7
				c0.1,0,0.1,0,0.1,0.1s-0.1,0.1-0.1,0.2c0,0.1-0.1,0.2-0.1,0.2l-0.1,0.2c0,0.1-0.1,0.1-0.1,0.2C232.3,11.1,232.1,11.2,232.1,11.2z
				"/>
			<path d="M229.6,23.6c0.2-0.7,0.4-1.2,0.6-1.9c0.1-0.7,0.2-1.3,0.2-1.9c0-0.7,0-1.3,0-2c0-0.7,0-1.3-0.1-2c0-0.2-0.1-0.3-0.1-0.4
				c-0.1-0.1-0.1-0.2-0.2-0.4c0.1-0.2,0.2-0.4,0.4-0.7c0.1-0.2,0.3-0.4,0.4-0.7c0.1-0.1,0.1-0.1,0.2,0c0,0.2,0.1,0.3,0.1,0.6
				c0.1,0.2,0.1,0.3,0.2,0.6s0.2,0.3,0.2,0.4c0.1,0.1,0.2,0.3,0.3,0.4c0,0.1-0.1,0.1-0.1,0.2c0,0.1-0.1,0.2-0.2,0.2
				c-0.1,0.1-0.1,0.2-0.2,0.3c0,0.1-0.1,0.2-0.1,0.3c0,0.7,0,1.3,0,2s-0.1,1.3-0.2,2c-0.1,0.7-0.2,1.3-0.3,1.9
				c-0.1,0.6-0.3,1.1-0.6,1.7c0.2,0.3,0.3,0.8,0.6,1.1c0.1,0.4,0.2,0.8,0.3,1.3c0,0.3,0,0.6-0.1,0.8c-0.1,0.2-0.2,0.6-0.3,0.8
				c-0.2,0-0.6,0.1-0.9,0.1s-0.7,0.1-1.1,0.1c-0.3,0-0.8,0.1-1.1,0.1c-0.3,0-0.7,0-1,0c0,0,0-0.1,0-0.2s0-0.2,0-0.4
				c0-0.1,0-0.3,0.1-0.4c0-0.1,0.1-0.2,0.1-0.3s0.1-0.1,0.2-0.1c0.2,0,0.4,0,0.4-0.1s0.2-0.1,0.2-0.1c0.1-0.1,0.2-0.2,0.3-0.4
				c0.1-0.2,0.3-0.4,0.4-0.7c0.1-0.2,0.3-0.4,0.4-0.8c0.1-0.3,0.2-0.4,0.3-0.7c-0.3-0.6-0.7-1-1-1.6c-0.3-0.6-0.8-1.1-1.2-1.7
				c-0.4-0.6-0.9-1.1-1.3-1.6c-0.4-0.6-0.9-1-1.3-1.3c-0.2,0.1-0.4,0.1-0.7,0.1c-0.1,0-0.3-0.1-0.6-0.2c-0.2-0.1-0.4-0.2-0.6-0.3
				c-0.2-0.1-0.3-0.2-0.4-0.4c-0.1-0.1-0.2-0.3-0.2-0.6c0,0,0-0.1,0-0.2s0-0.2,0-0.4c0-0.1,0-0.3,0-0.6c0-0.2,0-0.3,0.1-0.4
				c0-0.1,0.1-0.2,0.1-0.2c0.1,0,0.1,0,0.3,0.1c0.4,0.3,0.9,0.7,1.3,1.1c0.4,0.4,0.9,0.9,1.3,1.3c0.4,0.4,0.9,1,1.2,1.5
				c0.4,0.6,0.8,1,1.1,1.6s0.7,1,1,1.6C228.9,22.7,229.2,23.1,229.6,23.6z M228.3,27.2c0.3,0,0.7-0.1,1-0.1c0.3,0,0.7-0.1,0.9-0.1
				c0-0.1,0-0.2-0.1-0.3c0-0.1-0.1-0.3-0.2-0.4c-0.1-0.1-0.1-0.3-0.2-0.4c-0.1-0.1-0.1-0.2-0.2-0.3c-0.2,0.3-0.3,0.7-0.6,1
				C228.7,26.7,228.6,26.8,228.3,27.2z"/>
			<path d="M238.2,18.3c-0.3,0.1-0.7,0.3-1.1,0.4c-0.3,0.1-0.8,0.3-1.1,0.4s-0.7,0.3-1,0.4s-0.6,0.2-0.8,0.3H234c0,0,0,0,0-0.1
				c0,0,0-0.1,0.1-0.2c0-0.1,0.1-0.2,0.1-0.3c0-0.1,0.1-0.2,0.1-0.3s0.1-0.1,0.1-0.1c0.1-0.1,0.1-0.1,0.2-0.2l3.9-1.7
				c0.1,0,0.1,0,0.1,0.1s-0.1,0.1-0.1,0.2c0,0.1-0.1,0.2-0.1,0.2l-0.1,0.2c0,0.1-0.1,0.1-0.1,0.2C238.3,18.2,238.2,18.2,238.2,18.3z
				"/>
			<path d="M238.8,26.3c-0.1,0.3-0.2,0.6-0.6,0.7c-0.3,0.1-0.6,0.3-0.9,0.3c-0.2,0-0.3,0-0.6-0.1c-0.1-0.1-0.3-0.2-0.4-0.3
				c-0.1-0.1-0.2-0.3-0.2-0.6c-0.1-0.2-0.1-0.4-0.1-0.6s0-0.3,0.1-0.4c0-0.2,0.1-0.3,0.2-0.6c0.1-0.2,0.1-0.3,0.2-0.6
				c0.1-0.2,0.2-0.3,0.3-0.6c0.1-0.1,0.2-0.2,0.3-0.3c0.1-0.1,0.2-0.1,0.4-0.1c0.2,0,0.6,0.1,0.8,0.3s0.4,0.4,0.6,0.8
				c0.1,0.3,0.3,0.7,0.4,1.1c0.1,0.3,0.1,0.8,0.1,1.1c0,0.4-0.1,1-0.2,1.5c-0.1,0.4-0.2,1-0.4,1.6c-0.2,0.6-0.4,1-0.7,1.5
				c-0.2,0.4-0.6,0.8-0.8,1.1s-0.6,0.6-0.9,0.8s-0.7,0.3-1,0.4c-0.3,0.1-0.7,0.2-1.1,0.2c-0.3,0-0.8,0-1.1,0c-0.4,0-0.8-0.1-1.2-0.1
				c-0.4-0.1-0.8-0.1-1.1-0.2c0,0-0.1,0-0.1-0.1V33l0.1-0.1c0,0,0.1,0,0.2,0c0.6,0.1,1.1,0.1,1.6,0c0.6-0.1,1-0.2,1.6-0.3
				c0.4-0.1,0.8-0.3,1.2-0.6c0.4-0.2,0.8-0.6,1.1-0.9c0.2-0.2,0.6-0.4,0.8-0.8c0.2-0.3,0.4-0.7,0.7-0.9c0.2-0.2,0.3-0.7,0.6-1
				c0.1-0.3,0.2-0.7,0.3-0.9c0-0.1,0-0.1,0-0.2s0-0.1,0-0.2s0-0.1,0-0.2C239,26.4,239,26.4,238.8,26.3z M238.5,25.4
				c0,0,0-0.1-0.1-0.2c0-0.1-0.1-0.2-0.2-0.3c-0.1-0.1-0.2-0.2-0.3-0.2c-0.1-0.1-0.2-0.1-0.3-0.1s-0.2,0-0.2,0.1s-0.1,0.1-0.2,0.2
				c-0.1,0.1-0.1,0.2-0.1,0.2c0,0.1,0,0.1,0,0.2c0.1,0.1,0.2,0.2,0.3,0.3c0.1,0,0.3,0.1,0.4,0.1c0.2,0,0.3,0,0.4-0.1
				S238.5,25.5,238.5,25.4z"/>
		</g>
		<g>
			<path d="M254.1,24.3c0,0.1-0.1,0.2-0.2,0.4c-0.1,0.2-0.4,0.3-0.8,0.6c0,0.3,0,0.7-0.1,1c-0.1,0.2-0.2,0.4-0.3,0.4
				c-0.3-0.3-0.7-0.7-1-0.9c-0.3-0.2-0.7-0.4-1.1-0.4c0,0.3,0.2,0.8,0.6,1.1c0.3,0.3,0.6,0.7,0.9,0.9c0,0.1-0.3,0.3-0.9,0.4
				c-0.4,0.1-0.8,0.1-1.1,0.1c-0.4,1.3-1,2.5-1.8,3.6c-0.3,0.4-0.8,1-1.3,1.6c-0.8,0.8-1.3,1.1-1.7,1.1c-0.1,0-0.2-0.1-0.2-0.2
				s0.2-0.3,0.7-0.9c0.6-0.7,1.1-1.3,1.3-1.9c0.6-1,0.9-2.1,1.1-3.3c-0.4,0-0.7-0.1-0.8-0.1c-0.1,0-0.1-0.1-0.1-0.2
				c0.9-0.7,1.3-1.5,1.3-2c-0.3,0-0.8,0.1-1,0.4c-0.2,0.2-0.6,0.6-0.9,0.9c-0.1,0-0.2-0.1-0.3-0.4c-0.1-0.3-0.2-0.7-0.2-1
				c-0.3-0.2-0.6-0.3-0.7-0.3c-0.2-0.2-0.3-0.3-0.3-0.6c0-0.1,0.1-0.2,0.2-0.3c0.1-0.1,0.3-0.2,0.8-0.4c0-1,0.2-1.5,0.6-1.5
				c0.8,0.8,1.5,1.2,2,1.3c0-0.3-0.1-0.7-0.4-1.1c0,0-0.3-0.3-0.9-1c0-0.1,0.1-0.1,0.2-0.2c0.1-0.1,0.4-0.1,0.8-0.2
				c-0.2-1-0.6-2-1.2-3c-0.6-1-1.2-1.9-2-2.6c-0.1-0.1-0.2-0.2-0.2-0.3c0-0.1,0.1-0.1,0.2-0.1c0.2,0,0.7,0.2,1.2,0.6
				c1.7,1.2,2.9,3,3.8,5.4c1.2,0,1.9,0.2,1.9,0.6c-0.3,0.3-0.7,0.6-0.9,0.9c-0.2,0.3-0.4,0.8-0.4,1.1c0.3,0,0.7-0.1,1-0.4l1-0.9
				c0.2,0,0.3,0.4,0.4,1.2c0,0.1,0,0.1,0,0.2C253.8,23.7,254.1,24,254.1,24.3z M251.2,21.2c0,0-0.1-0.1-0.3-0.1
				c-0.2,0-0.4-0.1-0.6-0.1H250c-0.1,0-0.1,0-0.2,0c-0.3-1.1-0.9-2.2-1.6-3.2c-0.8-1.1-1.7-2-2.7-2.7c0.7,0.7,1.3,1.5,1.8,2.3
				c0.7,1.1,1.1,2.3,1.2,3.5c-0.4,0-0.7,0.1-0.8,0.2c0.6,0.4,0.9,0.9,1.1,1.3c0.1-0.2,0.1-0.4,0.3-0.7c0,0,0.1-0.1,0.1-0.3
				c0.1-0.2,0.1-0.2,0.1-0.2c0.1,0,0.3,0.4,0.7,1.2c0.1-0.3,0.3-0.6,0.6-0.9C250.8,21.7,251,21.6,251.2,21.2z M248.1,25
				c-0.1,0-0.4-0.2-1-0.3c-0.3-0.1-0.6-0.2-0.6-0.3c0,0,0.3-0.1,0.9-0.4c0.1,0,0.3-0.1,0.7-0.2c-0.3-0.1-0.6-0.2-0.9-0.4
				c-0.1-0.1-0.3-0.3-0.6-0.6c-0.1,0-0.1,0.3-0.1,1.1c-0.6,0.3-0.8,0.6-0.9,0.7c0,0.1,0.3,0.3,0.9,0.6c0,0.8,0.1,1.1,0.2,1.1
				c0,0,0.2-0.1,0.6-0.4C247.5,25.3,247.9,25.2,248.1,25z M251.3,27.4c-0.4-0.3-0.8-0.8-1.1-1.3c0,0.1-0.1,0.3-0.3,0.6
				c0,0-0.1,0.1-0.2,0.3c-0.1,0.2-0.1,0.2-0.2,0.2c0,0-0.1-0.1-0.2-0.3c-0.1-0.2-0.1-0.3-0.1-0.3c0-0.1-0.1-0.3-0.3-0.7
				c-0.1,0.2-0.2,0.6-0.4,0.8c-0.1,0.2-0.3,0.3-0.6,0.6c0,0,0.2,0.1,0.7,0.2c-0.3,1.1-0.4,1.9-0.6,2.2c-0.4,1.3-1.1,2.6-2.2,3.7
				c1.7-1.1,3-3.1,3.9-5.9c0.7,0,0.9,0,0.8,0C251.1,27.5,251.3,27.5,251.3,27.4z M250.8,24.4c0-0.3-0.1-0.7-0.3-0.8
				c-0.2-0.2-0.6-0.3-0.9-0.3c-0.3,0-0.6,0.1-0.8,0.3c-0.2,0.2-0.3,0.4-0.3,0.8c0,0.3,0.1,0.6,0.3,0.8c0.2,0.2,0.6,0.3,0.9,0.3
				s0.7-0.1,0.9-0.3C250.7,24.9,250.8,24.7,250.8,24.4z M253.7,24.3c0-0.1-0.1-0.1-0.2-0.2c-0.1-0.1-0.3-0.2-0.7-0.3
				c0-0.3,0-0.6-0.1-0.8c0-0.2-0.1-0.3-0.1-0.3s-0.2,0.1-0.4,0.4c-0.3,0.3-0.7,0.6-1,0.7c0.1,0.1,0.4,0.2,0.7,0.3
				c0,0,0.2,0.1,0.6,0.2c0.2,0.1,0.3,0.1,0.3,0.2c0,0.1-0.2,0.2-0.6,0.3c-0.6,0.1-0.9,0.2-1,0.3c0.3,0.1,0.7,0.2,0.9,0.4
				c0.1,0.1,0.3,0.3,0.6,0.6c0.1,0,0.1-0.1,0.1-0.3c0-0.1,0-0.3,0-0.8C253.3,24.6,253.7,24.4,253.7,24.3z"/>
		</g>
		<g>
			<path d="M17.3,24.6c0-0.1,0.1-0.2,0.2-0.4c0.1-0.2,0.4-0.3,0.8-0.6c0-0.3,0-0.7,0.1-1c0.1-0.2,0.2-0.4,0.3-0.4
				c0.3,0.3,0.7,0.7,1,0.9c0.3,0.2,0.7,0.4,1.1,0.4c0-0.3-0.2-0.8-0.6-1.1c-0.3-0.3-0.6-0.7-0.9-0.9c0-0.1,0.3-0.3,0.9-0.4
				c0.4-0.1,0.8-0.1,1.1-0.1c0.4-1.3,1-2.5,1.8-3.6c0.3-0.4,0.8-1,1.3-1.6c0.8-0.8,1.3-1.1,1.7-1.1c0.1,0,0.2,0.1,0.2,0.2
				c0,0.1-0.2,0.3-0.7,0.9c-0.6,0.7-1.1,1.3-1.3,1.9c-0.6,1-0.9,2.1-1.1,3.3c0.4,0,0.7,0.1,0.8,0.1c0.1,0,0.1,0.1,0.1,0.2
				c-0.9,0.7-1.3,1.5-1.3,2c0.3,0,0.8-0.1,1-0.4c0.2-0.2,0.6-0.6,0.9-0.9c0.1,0,0.2,0.1,0.3,0.4c0.1,0.3,0.2,0.7,0.2,1
				c0.3,0.2,0.6,0.3,0.7,0.3c0.2,0.2,0.3,0.3,0.3,0.6c0,0.1-0.1,0.2-0.2,0.3c-0.1,0.1-0.3,0.2-0.8,0.4c0,1-0.2,1.5-0.6,1.5
				c-0.8-0.8-1.5-1.2-2-1.3c0,0.3,0.1,0.7,0.4,1.1c0,0,0.3,0.3,0.9,1c0,0.1-0.1,0.1-0.2,0.2s-0.4,0.1-0.8,0.2c0.2,1,0.6,2,1.2,3
				c0.6,1,1.2,1.9,2,2.6c0.1,0.1,0.2,0.2,0.2,0.3c0,0.1-0.1,0.1-0.2,0.1c-0.2,0-0.7-0.2-1.2-0.6c-1.7-1.2-2.9-3-3.8-5.4
				c-1.2,0-1.9-0.2-1.9-0.6c0.3-0.3,0.7-0.6,0.9-0.9c0.2-0.3,0.4-0.8,0.4-1.1c-0.3,0-0.7,0.1-1,0.4l-1,0.9c-0.2,0-0.3-0.4-0.4-1.2
				c0-0.1,0-0.1,0-0.2C17.6,25.2,17.3,24.9,17.3,24.6z M20.3,27.6c0,0,0.1,0.1,0.3,0.1c0.2,0,0.4,0.1,0.6,0.1h0.3c0.1,0,0.1,0,0.2,0
				c0.3,1.1,0.9,2.2,1.6,3.2c0.8,1.1,1.7,2,2.7,2.7c-0.7-0.7-1.3-1.5-1.8-2.3c-0.7-1.1-1.1-2.3-1.2-3.5c0.4,0,0.7-0.1,0.8-0.2
				c-0.6-0.4-0.9-0.9-1.1-1.3c-0.1,0.2-0.1,0.4-0.3,0.7c0,0-0.1,0.1-0.1,0.3c-0.1,0.2-0.1,0.2-0.1,0.2c-0.1,0-0.3-0.4-0.7-1.2
				c-0.1,0.3-0.3,0.6-0.6,0.9C20.7,27.2,20.5,27.4,20.3,27.6z M23.4,23.9c0.1,0,0.4,0.2,1,0.3c0.3,0.1,0.6,0.2,0.6,0.3
				c0,0-0.3,0.1-0.9,0.4c-0.1,0-0.3,0.1-0.7,0.2c0.3,0.1,0.6,0.2,0.9,0.4c0.1,0.1,0.3,0.3,0.6,0.6c0.1,0,0.1-0.3,0.1-1.1
				c0.6-0.3,0.8-0.6,0.9-0.7c0-0.1-0.3-0.3-0.9-0.6c0-0.8-0.1-1.1-0.2-1.1c0,0-0.2,0.1-0.6,0.4C23.9,23.6,23.6,23.8,23.4,23.9z
				 M20.2,21.6c0.4,0.3,0.8,0.8,1.1,1.3c0-0.1,0.1-0.3,0.3-0.6c0,0,0.1-0.1,0.2-0.3s0.1-0.2,0.2-0.2c0,0,0.1,0.1,0.2,0.3
				c0.1,0.2,0.1,0.3,0.1,0.3c0,0.1,0.1,0.3,0.3,0.7c0.1-0.2,0.2-0.6,0.4-0.8c0.1-0.2,0.3-0.3,0.6-0.6c0,0-0.2-0.1-0.7-0.2
				c0.3-1.1,0.4-1.9,0.6-2.2c0.4-1.3,1.1-2.6,2.2-3.7c-1.7,1.1-3,3.1-3.9,5.9c-0.7,0-0.9,0-0.8,0C20.4,21.4,20.2,21.5,20.2,21.6z
				 M20.8,24.6c0,0.3,0.1,0.7,0.3,0.8c0.2,0.2,0.6,0.3,0.9,0.3c0.3,0,0.6-0.1,0.8-0.3c0.2-0.2,0.3-0.4,0.3-0.8
				c0-0.3-0.1-0.6-0.3-0.8c-0.2-0.2-0.6-0.3-0.9-0.3s-0.7,0.1-0.9,0.3C20.9,23.9,20.8,24.3,20.8,24.6z M17.9,24.6
				c0,0.1,0.1,0.1,0.2,0.2c0.1,0.1,0.3,0.2,0.7,0.3c0,0.3,0,0.6,0.1,0.8c0,0.2,0.1,0.3,0.1,0.3s0.2-0.1,0.4-0.4
				c0.3-0.3,0.7-0.6,1-0.7c-0.1-0.1-0.4-0.2-0.7-0.3c0,0-0.2-0.1-0.6-0.2c-0.2-0.1-0.3-0.1-0.3-0.2c0-0.1,0.2-0.2,0.6-0.3
				c0.6-0.1,0.9-0.2,1-0.3c-0.3-0.1-0.7-0.2-0.9-0.4c-0.1-0.1-0.3-0.3-0.6-0.6c-0.1,0-0.1,0.1-0.1,0.3c0,0.1,0,0.3,0,0.8
				C18.1,24.3,17.9,24.5,17.9,24.6z"/>
		</g>
	</g>
	<rect class="st1" width="271.4" height="44.6"/>
</g>
</svg>
