<?xml version="1.0" encoding="utf-8"?>
<!-- Generator: Adobe Illustrator 19.2.0, SVG Export Plug-In . SVG Version: 6.00 Build 0)  -->
<svg version="1.1" id="Layer_1" xmlns="http://www.w3.org/2000/svg" xmlns:xlink="http://www.w3.org/1999/xlink" x="0px" y="0px"
	 viewBox="0 0 193.1 44.6" style="enable-background:new 0 0 193.1 44.6;" xml:space="preserve">
<style type="text/css">
	.st0{fill:#542C0B;}
	.st1{fill:none;}
</style>
<g>
	<g>
		<g>
			<path class="st0" d="M55.8,29.2h-1.5c-0.5,0-1-0.4-1.4-1.2c-0.3-0.7-0.5-1.4-0.7-2.3c-0.3,0.4-0.4,0.7-0.8,0.8
				c-0.3,0.3-0.7,0.3-1,0.3c-0.8,0-1.5,0-2-0.1c-0.5-0.1-0.8-0.3-0.8-0.4c0-0.5,0.4-1.2,1.1-1.9c0.7-0.7,1.8-1.4,2.9-1.8
				c0,0,0-0.1-0.1-0.4c0-0.3,0-0.4,0-0.4c0-0.3,0.1-0.5,0.3-0.8s0.3-0.4,0.5-0.7c0,0.4,0.1,0.8,0.3,1.2c0.1,0.4,0.1,0.8,0.3,1.2
				l0.4,1.6c0.1,1,0.3,1.6,0.4,2c0.3,0.7,0.4,1.1,0.7,1.1h1.5V29.2z M50.8,18.2L50,19.7l-1.6-0.8l0.8-1.5L50.8,18.2z M52.1,24.7
				L52,23.6c-0.5,0.3-1.1,0.4-1.4,0.7c-0.4,0.3-0.7,0.5-0.8,1c0.1,0,0.3,0.1,0.5,0.1s0.4,0,0.8,0C51.5,25.2,51.7,25.1,52.1,24.7z
				 M53.1,17.2l-0.8,1.5l-1.6-0.8l0.8-1.5L53.1,17.2z"/>
			<path class="st0" d="M67,29.2h-0.8c-0.4,0-0.8,0-1.1-0.1s-0.5-0.3-0.8-0.5c-0.3,0.3-0.5,0.4-0.8,0.5c-0.4,0.1-0.8,0.1-1.5,0.1
				h-0.7c-0.4,0-0.7,0-1.1-0.1c-0.3-0.1-0.5-0.3-0.8-0.4c-0.3,0.3-0.7,0.4-1,0.5s-0.7,0.1-1.4,0.1h-2v-1.8h2c0.5,0,1,0,1.2-0.1
				c0.4-0.1,0.5-0.4,0.5-1c0-0.1,0-0.4,0-0.5c0-0.1,0-0.4-0.1-0.7l0.4-0.5c0.1,0.7,0.4,1.1,0.4,1.4c0.3,0.5,0.4,0.8,0.7,1.1
				c0.3,0.3,0.7,0.4,1.1,0.4h0.7c0.5,0,1-0.1,1.1-0.3c0.3-0.1,0.4-0.4,0.4-0.8c0-0.3,0-0.4,0-0.5s0-0.4-0.1-0.7l0.4-0.5l0.3,1
				c0.1,0.7,0.4,1.2,0.7,1.5s0.5,0.4,1,0.4c0.1,0,0.3,0,0.4-0.1s0.1-0.3,0.1-0.4c0-0.4-0.1-0.8-0.4-1.2c0,0-0.3-0.3-0.5-0.7l0.7-1.1
				c0.3,0.4,0.4,0.8,0.5,1.1c0.1,0.4,0.3,1.1,0.3,1.8v2.3H67z"/>
			<path class="st0" d="M75.3,29.2h-1.1c-0.4,0-1-0.1-1.5-0.3c-0.7-0.3-1.2-0.5-1.8-1c-0.4,0.4-0.8,0.8-1.2,1s-1.1,0.3-1.8,0.3h-1.6
				v-1.8h1.6c0.7,0,1.2-0.1,1.6-0.4c0.4-0.3,0.7-0.5,1.1-1c0.4-0.5,1-1.1,1.5-1.5c0.5-0.4,1.1-0.7,1.5-0.7c0.4,0.7,0.8,1.4,1.1,1.9
				c0.4,0.8,0.5,1.4,0.5,1.9V29.2z M74,27.1c-0.1-0.4-0.3-0.8-0.4-1.1c-0.1-0.3-0.4-0.7-0.7-1c-0.3,0.1-0.5,0.3-0.8,0.4
				c-0.1,0.1-0.3,0.4-0.5,0.7c0.3,0.3,0.5,0.5,1.1,0.7C73.2,27.1,73.6,27.3,74,27.1L74,27.1z"/>
			<path class="st0" d="M86.4,29.2H74.6v-1.8H83c-0.7-0.5-1.2-1-1.8-1.2c-0.5-0.4-1.1-0.7-1.6-0.8c-0.5-0.1-1.1-0.3-1.6-0.3
				c-0.4,0-0.7,0-1.1,0.1c0.1-0.5,0.4-1,0.8-1.2c0.4-0.4,1.1-0.7,1.8-0.7s1.5,0.3,2.4,1c0.4,0.3,1.2,1,2.3,1.9
				c0.8,0.7,1.4,1.1,1.6,1.2h0.7v1.8H86.4z M81.5,19.8l-0.8,1.5l-1.6-0.8l0.8-1.5L81.5,19.8z"/>
			<path class="st0" d="M90.8,29.2h-5v-1.8h4.1L88.6,19L88,18.7c0-0.4,0-1,0.1-1.4c0.1-0.4,0.3-0.8,0.4-1.2l0.1,0.1
				c0,0.4,0.3,0.7,0.7,0.8c0.4,0.1,0.7,0.3,1.1,0.4c0,0.3,0,0.7-0.1,1.1c0,0.4-0.1,0.7-0.1,0.8l-0.5-0.1l1.2,7.9v2H90.8z"/>
			<path class="st0" d="M94.3,26.6c0,0.5-0.1,1.1-0.3,1.5c-0.1,0.3-0.3,0.7-0.7,1.2l-0.1-0.1c0-0.1,0-0.4,0-0.7c0-0.3,0-0.4,0-0.5
				c0-0.7,0-1.6-0.1-2.9c-0.1-1.2-0.3-2.6-0.4-3.9c-0.1-0.8-0.1-1.6-0.3-2.4c0.1-0.3,0.3-0.5,0.4-1c0.1-0.4,0.4-0.7,0.5-1
				c0.1,0.8,0.3,1.8,0.4,3.1c0.1,1.4,0.3,2.4,0.4,3.5C94.2,25,94.3,25.9,94.3,26.6z"/>
			<path class="st0" d="M111.7,27.9c0,1.1-0.3,1.9-0.8,2.6c-0.4,0.5-1.1,1-2,1.2c-0.8,0.1-1.8,0.3-2.9,0.3c-1.4,0-2.3-0.3-3.1-0.7
				c-0.8-0.5-1.2-1.4-1.2-2.3c0-0.5,0.1-1.2,0.3-1.8c0.1-0.5,0.4-1.1,0.7-1.8c0.3-0.4,0.5-1,0.8-1.6l0.3,0.1
				c-0.3,0.4-0.4,0.8-0.7,1.2c-0.3,0.4-0.4,1-0.5,1.2c-0.1,0.4-0.1,1-0.1,1.4c0,0.8,0.3,1.5,1,1.9s1.5,0.7,2.6,0.7
				c1.2,0,2.2-0.1,3.3-0.5c1.1-0.4,1.6-1,1.6-1.5c0-0.7-0.1-1.8-0.3-3.3c-0.1-1.2-0.4-2.4-0.5-3.9l-0.3-2.3l-0.4-0.3
				c0-1,0.1-1.8,0.5-2.4h0.1c0,0.3,0.1,0.4,0.1,0.5s0.1,0.3,0.4,0.3c0.3,0.1,0.4,0.1,0.7,0.3c0.1,0.1,0.4,0.1,0.5,0.3
				c0,0.4,0,0.8,0,1c0,0.3-0.1,0.5-0.3,1l-0.5-0.1c0,0.1,0.1,0.8,0.3,2c0.3,1.4,0.4,2.6,0.4,3.4C111.6,26,111.7,27.1,111.7,27.9z"/>
			<path class="st0" d="M116.6,29.2h-1.5c-0.4,0-0.8-0.1-1.1-0.5c-0.3-0.3-0.4-0.8-0.5-1.4c-0.1-0.7-0.3-1.4-0.3-2.3
				c0-0.8-0.1-1.5-0.1-2.3c0-0.8-0.1-1.4-0.1-1.8c-0.1-0.4-0.1-0.7-0.3-1c-0.1-0.3-0.4-0.5-0.7-0.8l1.2-1.9c0.3,0.8,0.4,1.8,0.5,2.9
				c0,0.7,0.1,2.3,0.3,4.9c0.1,1.2,0.3,1.9,0.5,2.3c0.1,0.3,0.4,0.4,0.7,0.4h1.5v1.5H116.6z"/>
			<path class="st0" d="M124.9,29.2h-1.5c-0.4,0-1-0.1-1.4-0.3c-0.5-0.3-1-0.5-1.2-1.1c-0.4,0.4-1,0.7-1.6,1s-1.5,0.4-2.4,0.4h-1
				v-1.8h1c0.5,0,1.1,0,1.6-0.1c0.5-0.1,1.1-0.4,1.6-0.7l-0.4-0.5c-0.3-0.3-0.4-0.4-0.7-0.4c-0.1,0-0.3,0-0.3,0s-0.1,0.1-0.3,0.3
				h-0.3v-0.5c0-0.7,0.1-1.2,0.5-1.5c0.4-0.3,1-0.4,1.9-0.4c0.8,0,1.4,0.1,1.9,0.3c0.7,0.3,1,0.7,1,1.2c0,0.3-0.1,0.5-0.4,1
				c-0.1,0.3-0.5,0.5-1,1c0.1,0.1,0.3,0.3,0.7,0.4c0.3,0.1,0.5,0.1,0.8,0.1h1.5v1.8H124.9z"/>
			<path class="st0" d="M130.4,29.2h-6.4v-1.8h5.4c0-0.5-0.1-1.1-0.3-1.6c-0.4,0.1-0.7,0.1-0.8,0.3c-0.3,0.1-0.5,0.1-0.8,0.1
				c-0.5,0-1-0.1-1.2-0.4c-0.4-0.3-0.5-0.7-0.5-1.2c0-1,0.1-1.8,0.5-2.4c0.4-0.8,1-1.2,1.5-1.2c0.8,0,1.5,0.7,1.9,1.9
				c0.4,1.1,0.5,2.3,0.5,3.7v2.7H130.4z M129.1,18l-0.8,1.5l-1.6-0.8l0.8-1.5L129.1,18z M128.8,24c-0.1-0.3-0.3-0.5-0.4-0.7
				c-0.3-0.3-0.5-0.5-0.8-0.5c-0.1,0-0.3,0.1-0.4,0.3s-0.1,0.3-0.1,0.5c0,0.5,0.3,0.8,1,0.8c0.1,0,0.3,0,0.5-0.1
				C128.4,24.1,128.7,24,128.8,24z"/>
			<path class="st0" d="M133.7,15.7c0,0.1-0.1,0.3-0.3,0.4c-0.1,0.1-0.4,0.1-0.7,0.3l-1.9,0.7c0-0.3,0.4-0.5,1.1-0.8
				c-0.3-0.1-0.4-0.3-0.5-0.3c-0.1-0.1-0.3-0.3-0.3-0.4c0-0.3,0.1-0.5,0.5-0.8c0.4-0.4,0.8-0.7,1.1-0.7c0.1,0,0.3,0,0.4,0.1
				c0.1,0.1,0.1,0.3,0.1,0.4c0,0.1,0,0.1,0,0.3c0,0.1-0.1,0.3-0.1,0.3c-0.3-0.1-0.4-0.3-0.7-0.3c-0.1,0-0.3,0-0.4,0.1
				s-0.3,0.1-0.3,0.3c0,0.1,0.1,0.3,0.5,0.4c0.3,0.1,0.5,0.3,0.8,0.3c0.1,0,0.3,0,0.3,0C133.4,15.8,133.6,15.7,133.7,15.7z
				 M141.2,18.6l-0.5,1.8l-0.5-0.3v1c0,1-0.1,1.8-0.4,2.6c-0.3,1-0.7,1.8-1.2,2.7c0.3,0.4,0.4,0.8,0.5,1.1c0.1,0.4,0.3,0.8,0.3,1.2
				c0,0.3,0,0.4,0,0.7c0,0.1,0,0.4-0.1,0.5c-0.7,0.1-1.5,0.3-2.3,0.4c-0.8,0.1-1.6,0.1-2.4,0.1c0-0.1,0-0.3,0-0.3
				c0-0.5,0.1-1,0.3-1.4c1.2-0.5,2.2-1.4,3-2.3c-0.5-0.8-0.8-1.5-1.1-1.9c-0.3-0.4-0.7-1.1-1.2-1.9c-0.3-0.3-0.4-0.5-0.5-0.7
				c-0.3-0.3-0.4-0.4-0.5-0.4c-0.1,0-0.3,0-0.4,0.1c-0.1,0-0.1,0.1-0.3,0.1c-0.1,0-0.4-0.1-0.7-0.4c-0.3-0.3-0.5-0.5-1-1
				c-0.3-0.3-0.4-0.5-0.5-0.8c-0.1-0.1-0.1-0.4-0.1-0.7c0-0.4,0-0.7,0.1-1c0.1-0.4,0.3-0.5,0.4-0.5c0.3,0,0.7,0.3,1.2,0.8
				c0.4,0.4,1,1.1,1.6,1.9c0.5,0.7,1.1,1.4,1.5,2.2l1.1,1.6c0.3,0.5,0.7,1.1,1,1.6c0.4-1,0.8-1.8,1-2.7c0.1-0.8,0.3-1.8,0.3-3
				l-0.5-0.3c0-0.4,0-0.8,0.1-1.2c0.1-0.4,0.1-0.7,0.3-1h0.3c0,0.3,0.1,0.5,0.5,0.7c0.1,0.1,0.4,0.1,0.7,0.3
				C141,18.6,141,18.6,141.2,18.6z M138.5,28.3c0-0.1,0-0.3-0.1-0.4c-0.1-0.1-0.1-0.4-0.4-0.8c-0.3,0.3-0.5,0.5-1,1
				c-0.4,0.4-0.8,0.7-1.2,0.8c0.8,0,1.4,0,1.8-0.1C138.2,28.6,138.5,28.5,138.5,28.3z"/>
			<path class="st0" d="M145.4,26.6c0,0.5-0.1,1.1-0.3,1.5c-0.1,0.3-0.3,0.7-0.7,1.2h-0.1c0-0.1,0-0.4,0-0.7s0-0.4,0-0.5
				c0-0.7,0-1.6-0.1-2.9s-0.3-2.6-0.4-3.9c-0.1-0.8-0.1-1.6-0.3-2.4c0.1-0.3,0.3-0.5,0.4-1s0.4-0.7,0.5-1c0.1,0.8,0.3,1.8,0.4,3.1
				c0.1,1.4,0.3,2.4,0.4,3.5C145.4,25,145.4,25.9,145.4,26.6z"/>
		</g>
	</g>
	<rect class="st1" width="193.1" height="44.6"/>
</g>
</svg>
