<?xml version="1.0" encoding="utf-8"?>
<!-- Generator: Adobe Illustrator 19.2.0, SVG Export Plug-In . SVG Version: 6.00 Build 0)  -->
<svg version="1.1" id="Layer_1" xmlns="http://www.w3.org/2000/svg" xmlns:xlink="http://www.w3.org/1999/xlink" x="0px" y="0px"
	 viewBox="0 0 70 31.5" style="enable-background:new 0 0 70 31.5;" xml:space="preserve">
<style type="text/css">
	.st0{fill:#010101;}
</style>
<g>
	<path class="st0" d="M21.2,20.3L20.5,25H3.3c-0.2,0-0.6-0.1-1.2-0.3c-0.7-0.2-1.2-0.7-1.6-1.5C0.2,22.5,0,21.9,0,21.3
		c0-1.1,0.3-2.4,0.9-4.1c0.1-0.2,0.3-0.4,0.6-0.6c0.1,0,0.3,0.1,0.4,0.2c0,0.1-0.1,0.5-0.3,1c-0.1,0.4-0.2,0.8-0.2,1.2
		c0,0.4,0.1,0.8,0.2,1.1c0.1,0.2,0.4,0.6,0.8,1c0.5,0.4,0.9,0.6,1.2,0.6h15.7c0,0,0-0.1,0-0.3c0-0.5-0.2-1.2-0.5-2.1
		c-0.1-0.2-0.2-0.4-0.4-0.6c-0.8,0.9-1.4,1.4-1.8,1.6c-0.2,0.1-0.7,0.1-1.4,0.1c-0.7,0-1.4-0.2-2-0.5c-0.8-0.4-1.2-1-1.2-1.7
		c0-1,0.6-2.1,1.9-3.4c1.3-1.3,2.4-2,3.4-2c0.9,0,1.7,0.8,2.4,2.2c0.5,1,0.9,1.9,1.1,2.8C21,18.7,21.1,19.5,21.2,20.3z M16.1,10.2
		c-0.3,0.3-1,1-2,1.9c-1-0.7-1.7-1.3-2.2-1.8l2-2L16.1,10.2z M17.7,17.4c-0.9-1.2-1.6-1.8-2.2-1.8c-0.5,0-1,0.4-1.4,1.1
		c0.9,0.6,1.6,0.9,2.1,0.9C16.5,17.6,17.1,17.5,17.7,17.4z"/>
	<path class="st0" d="M30.6,8.1c0,0.6-0.1,1.1-0.4,1.5c-0.5,0.7-1.1,1.1-1.8,1.3c-0.1,0-0.2,0-0.4,0c-0.4,0-0.7-0.1-0.9-0.3
		c-0.2-0.2-0.3-0.4-0.4-0.7c0-0.1,0-0.3,0-0.5c0-1.1,0.4-2,1.1-2.8c0,0,0.3-0.2,0.8-0.4c0,0,0.1,0,0.3,0c0.2,0,0.3,0,0.4,0
		c0.2,0,0.5,0.2,0.7,0.5c0.3,0.3,0.4,0.6,0.5,0.9C30.5,7.7,30.6,7.9,30.6,8.1z M29.3,7.9c-0.3-0.2-0.5-0.3-0.7-0.3
		c-0.2,0-0.3,0.1-0.5,0.2c-0.5,0.3-0.7,0.7-0.7,1.1c0,0.2,0.1,0.4,0.3,0.5c0.2,0.1,0.4,0.2,0.5,0.2c0.1,0,0.2,0,0.4-0.1
		c0.4-0.1,0.7-0.4,1-0.7l0.1-0.3C29.7,8.3,29.6,8.1,29.3,7.9z"/>
	<path class="st0" d="M35.9,25h-2.7c-0.2,0-0.5-0.2-0.8-0.6c-0.2,1.1-0.8,2.5-1.9,4c-1.3,2-2.7,3-4,3c-0.7,0-1.9-0.4-3.5-1.1
		c-1.6-0.7-2.6-1.3-2.9-1.7v-0.3c0.1-0.1,0.1-0.1,0.3-0.1c0.1,0,0.5,0.2,1.3,0.5c0.8,0.3,1.4,0.5,1.8,0.5c1.1,0,2.5-0.7,4.3-2.2
		c1.8-1.5,2.7-2.6,2.7-3.4c0-0.6-0.7-1.6-2-3.1l1.7-2.8c1.7,2.1,3.2,3.5,4.8,4.1h0.9V25z"/>
	<path class="st0" d="M45.5,0c0,0.7-0.4,1.3-1.1,1.8c-0.6,0.4-1.3,0.8-1.9,1.2c-0.6,0.4-1.5,1-2.7,1.8c0.1-0.3,0.2-0.8,0.5-1.4
		C41.4,2.8,43.2,1.6,45.5,0z"/>
	<path class="st0" d="M62.4,12.7c0,0.1-0.4,0.5-1.1,1.5c-0.7,0.9-1.1,1.5-1.1,1.8l0.6,5.2c0,0.2-0.1,0.7-0.3,1.6
		c-0.1,0.8-0.3,1.4-0.5,1.9c-0.1,0.2-0.2,0.3-0.4,0.3h-8.7c-0.1-0.6-0.3-1.4-0.5-2.4c-0.3-0.1-1.1-0.1-2.3-0.1c-1,0-1.7,0-2.1,0.1
		c-0.3,0.1-0.9,0.4-1.8,0.9c-1.1,0.7-1.8,1.1-2.2,1.2C41.7,25,41.5,25,41.3,25h-6.6v-3.2H42c0.2,0,0.5-0.1,1-0.2
		c0.5-0.2,1.2-0.5,2.1-1c-0.3-0.1-0.8-0.3-1.5-0.6c-0.4-0.1-1.3-0.4-2.6-0.8c-0.1,0-0.3,0-0.6,0c-0.4,0-0.8,0.1-1.2,0.2
		C39,19.5,38.6,19.7,38,20v-0.3c0-0.1,0.2-0.4,0.6-1.2c0.2-0.4,0.5-0.8,1-1.3c0.6-0.6,1.1-1,1.5-1.1c0.4-0.1,0.8-0.2,1.1-0.2
		c0.6,0,1.1,0.1,1.4,0.2c1.1,0.5,2.9,1.3,5.2,2.2c1.7,0.5,3.3,0.8,4.7,0.8c0,0.1-0.2,0.9-0.7,2.5h5.8c0.1-0.2,0.2-0.4,0.2-0.7
		c0-0.3-0.1-1.1-0.4-2.6c-0.2-1-0.6-2.6-1-4.7c0-0.2-0.2-0.5-0.4-0.7l-0.7-0.6c0.4-0.8,1.1-2,2.1-3.6c-0.1,0.7,0.2,1.3,0.7,1.7
		c0.2,0.2,0.9,0.6,2,1.2C61.9,12.3,62.4,12.6,62.4,12.7z"/>
	<path class="st0" d="M70,19.1c0,2.4-0.5,4.3-1.6,6l-1.5-12.4c0-0.2,0.3-0.9,1-2c0.6-0.9,1-1.6,1.3-2L70,19.1z"/>
</g>
</svg>
