<?xml version="1.0" encoding="utf-8"?>
<!-- Generator: Adobe Illustrator 22.0.1, SVG Export Plug-In . SVG Version: 6.00 Build 0)  -->
<svg version="1.1" id="Layer_1" xmlns="http://www.w3.org/2000/svg" xmlns:xlink="http://www.w3.org/1999/xlink" x="0px" y="0px"
	 viewBox="0 0 279.5 45" style="enable-background:new 0 0 279.5 45;" xml:space="preserve">
<style type="text/css">
	.st0{fill:#BA0017;}
</style>
<g>
	<path d="M34.9,17c0.1-0.3,0.1-0.5,0.3-0.8c0.1-0.3,0.2-0.5,0.3-0.8c0,0,0-0.1,0.1-0.1c0,0,0.1,0,0.1,0.1c0.1,0.4,0.2,0.9,0.3,1.3
		c0.1,0.4,0.2,0.9,0.3,1.4c0.1,0.5,0.2,1.1,0.2,1.7c0.1,0.6,0.1,1.3,0.2,2c0.1,0.6,0.1,1.1,0.1,1.5c0,0.4,0.1,0.8,0.1,1.1
		c0,0.3,0.1,0.6,0.1,0.9c0,0.3,0.1,0.6,0.1,0.8c0.1,0.4,0.2,0.7,0.3,1c0.1,0.3,0.3,0.5,0.5,0.7s0.4,0.3,0.7,0.4
		c0.3,0.1,0.6,0.1,1,0.1h0.1c0.2,0,0.4,0.1,0.5,0.3s0.2,0.4,0.2,0.6s-0.1,0.4-0.2,0.6s-0.3,0.3-0.5,0.3h-0.1c-0.6,0-1.1-0.1-1.5-0.3
		c-0.4-0.2-0.7-0.4-1-0.8s-0.5-0.7-0.6-1.1s-0.2-0.9-0.3-1.4c-0.1-0.4-0.1-0.9-0.2-1.3c-0.1-0.5-0.1-0.9-0.1-1.4
		c0-0.4-0.1-0.9-0.1-1.3c0-0.4-0.1-0.8-0.1-1.2c-0.1-0.7-0.2-1.4-0.3-2.1s-0.3-1.4-0.5-2.2c0-0.1,0-0.1,0-0.1
		C34.9,17.1,34.9,17,34.9,17z"/>
	<path d="M44.2,17.5c-0.4,0.2-0.8,0.3-1.2,0.5s-0.8,0.4-1.3,0.5s-0.8,0.3-1.1,0.5c-0.3,0.2-0.6,0.3-0.8,0.4c-0.1,0-0.1,0-0.1,0
		c0,0,0-0.1,0-0.1c0-0.1,0.1-0.1,0.1-0.2c0.1-0.1,0.1-0.2,0.2-0.3s0.1-0.2,0.2-0.3c0.1-0.1,0.1-0.2,0.1-0.2c0.1-0.1,0.1-0.2,0.2-0.2
		l4.3-1.8c0.1-0.1,0.1,0,0.1,0.1c0,0.1-0.1,0.1-0.1,0.2c0,0.1-0.1,0.2-0.1,0.3c0,0.1-0.1,0.2-0.1,0.3s-0.1,0.2-0.1,0.2
		C44.4,17.4,44.3,17.5,44.2,17.5z"/>
	<path d="M43.5,26.1c0,0.1,0,0.2,0,0.3c0,0.1,0,0.2,0,0.3c0,0.2,0.1,0.4,0.2,0.6c0.1,0.2,0.2,0.4,0.4,0.5c0.2,0.2,0.5,0.3,0.8,0.4
		c0.3,0.1,0.7,0.2,1.2,0.2h0.2c0.2,0,0.4,0.1,0.5,0.3c0.1,0.2,0.2,0.4,0.2,0.6s-0.1,0.4-0.2,0.6c-0.1,0.2-0.3,0.3-0.5,0.3H46
		c-0.8,0-1.5-0.2-2-0.5s-0.9-0.8-1.2-1.3c-0.2,0.4-0.4,0.7-0.7,0.9c-0.3,0.2-0.5,0.4-0.8,0.5c-0.3,0.1-0.6,0.2-0.9,0.2
		c-0.3,0-0.6,0.1-0.8,0.1h-0.2c-0.2,0-0.4-0.1-0.5-0.3c-0.1-0.2-0.2-0.4-0.2-0.6s0.1-0.4,0.2-0.6c0.1-0.2,0.3-0.3,0.5-0.3h0.2
		c0.2,0,0.5,0,0.7,0c0.3,0,0.5-0.1,0.8-0.1s0.5-0.2,0.7-0.3s0.5-0.3,0.7-0.6c0.1-0.2,0.3-0.4,0.4-0.6c0.1-0.2,0.2-0.4,0.3-0.6
		c0,0,0-0.1,0.1-0.1c0,0,0.1,0,0.1,0C43.4,26,43.4,26,43.5,26.1C43.5,26,43.5,26.1,43.5,26.1z M44.3,34.6
		C44.3,34.7,44.2,34.7,44.3,34.6c-0.1,0.1-0.2,0.1-0.2,0l-1.3-1l-0.9,1.2c-0.1,0.1-0.1,0.1-0.2,0l-1.4-1.1c-0.1,0-0.1-0.1,0-0.1
		l0.9-1.3c0,0,0.1-0.1,0.1-0.1s0,0,0.1,0l1.3,1l0.9-1.2c0-0.1,0.1-0.1,0.1,0l1.4,1.2c0.1,0,0.1,0.1,0,0.2L44.3,34.6z"/>
	<path d="M50.5,14.7c0,0.3,0,0.5-0.1,0.8c-0.1,0.2-0.2,0.5-0.3,0.6s-0.3,0.3-0.5,0.4c-0.2,0.1-0.5,0.2-0.8,0.2c-0.4,0-0.7-0.1-1-0.4
		c-0.3-0.2-0.4-0.6-0.4-1c0-0.2,0-0.5,0.1-0.8s0.2-0.6,0.3-0.9c0.1-0.3,0.3-0.5,0.5-0.7c0.2-0.2,0.5-0.3,0.8-0.4
		c0.3,0,0.5,0,0.7,0.2c0.2,0.1,0.3,0.3,0.4,0.5c0.1,0.2,0.2,0.4,0.2,0.7C50.4,14.3,50.5,14.5,50.5,14.7z M48.8,13.8
		c-0.1,0-0.2,0.1-0.4,0.2c-0.1,0.1-0.2,0.2-0.3,0.3s-0.2,0.2-0.2,0.4c-0.1,0.1-0.1,0.2-0.1,0.4s0,0.2,0.1,0.3
		c0.1,0.1,0.2,0.1,0.3,0.2c0.1,0,0.2,0.1,0.3,0.1c0.1,0,0.2,0,0.3,0c0.4,0,0.8-0.2,1.1-0.5c0-0.1,0-0.3,0-0.4c0-0.1-0.1-0.3-0.2-0.4
		c-0.1-0.1-0.2-0.2-0.4-0.3C49.2,13.9,49,13.8,48.8,13.8z"/>
	<path d="M50.1,23.9C50.2,23.9,50.2,23.8,50.1,23.9c0.1-0.1,0.2-0.1,0.3,0c0.2,0.2,0.4,0.4,0.6,0.7s0.3,0.5,0.5,0.8s0.2,0.5,0.3,0.8
		c0.1,0.3,0.1,0.6,0.1,0.9c0,0.1,0,0.3,0,0.4c0,0.2,0,0.3-0.1,0.5c0,0.2-0.1,0.3-0.1,0.5c0,0.1-0.1,0.3-0.2,0.4
		c-0.1,0.2-0.3,0.3-0.6,0.5c-0.3,0.1-0.6,0.3-0.9,0.4c-0.3,0.1-0.7,0.2-1.1,0.2s-0.8,0.1-1.1,0.2c-0.4,0-0.7,0.1-1,0.1
		c-0.3,0-0.6,0-0.8,0h-0.2c-0.2,0-0.4-0.1-0.5-0.3s-0.2-0.4-0.2-0.6s0.1-0.4,0.2-0.6s0.3-0.3,0.5-0.3H46c0.1,0,0.3,0,0.6,0
		c0.3,0,0.5,0,0.9,0c0.3,0,0.7,0,1-0.1s0.7-0.1,1-0.1c0.3,0,0.6-0.1,0.9-0.1c0.3-0.1,0.5-0.1,0.6-0.2c0.1-0.1,0.2-0.2,0.1-0.3
		c-0.1-0.4-0.3-0.8-0.6-1.1c-0.3-0.3-0.5-0.6-0.8-0.9c0.1-0.3,0.1-0.5,0.2-0.8S50.1,24.2,50.1,23.9z M48.9,18.8l1.4,1.1
		c0.1,0.1,0.1,0.1,0,0.2l-0.9,1.2c-0.1,0.1-0.1,0.1-0.2,0l-1.4-1.1c-0.1-0.1-0.1-0.1,0-0.2l0.9-1.1C48.8,18.8,48.9,18.8,48.9,18.8z"
		/>
	<path d="M55.2,20.1c-0.1,0-0.1-0.1,0-0.1c0.1-0.1,0.2-0.2,0.3-0.2c0.2-0.2,0.5-0.3,0.7-0.5c0.2-0.1,0.5-0.3,0.7-0.5
		c0.2-0.2,0.5-0.3,0.7-0.5s0.4-0.4,0.7-0.6c-0.2-0.1-0.4-0.2-0.6-0.3c-0.2-0.1-0.4-0.3-0.5-0.4c-0.1-0.1-0.1-0.2-0.1-0.3
		c0-0.1,0-0.3,0-0.4c0.1-0.2,0.2-0.4,0.3-0.6c0.1-0.2,0.2-0.4,0.4-0.6c0.1-0.2,0.3-0.3,0.5-0.4s0.4-0.2,0.6-0.1
		c0.1,0,0.3,0.1,0.4,0.2c0.1,0.1,0.2,0.2,0.2,0.4c0.1,0.1,0.1,0.3,0.1,0.5c0,0.2,0,0.4,0,0.5s0,0.3,0,0.5c0,0.2,0,0.3-0.1,0.3
		c0,0,0,0.1,0.1,0.1c0.1,0.1,0.2,0.1,0.2,0.1s0.1,0.1,0.1,0.2c0,0.1,0,0.2,0,0.4s-0.1,0.3-0.1,0.4c-0.1,0.1-0.1,0.1-0.2,0.1
		c-0.1,0-0.1,0-0.1-0.1c0-0.1-0.1-0.1-0.1-0.1c0,0-0.1-0.1-0.1-0.1c-0.2,0.3-0.5,0.5-0.7,0.8c-0.2,0.2-0.4,0.4-0.7,0.6
		c-0.2,0.2-0.5,0.3-0.7,0.4S56.3,19.9,56,20c-0.1,0-0.3,0.1-0.4,0.1C55.4,20.2,55.3,20.2,55.2,20.1z M57.6,16
		c0.1,0.2,0.3,0.4,0.5,0.5c0.2,0.1,0.4,0.2,0.6,0.3h0c0-0.1,0-0.1,0-0.2c0-0.1,0-0.2,0-0.3s0-0.2,0-0.3c0-0.1-0.1-0.2-0.1-0.2
		c-0.1-0.1-0.1-0.1-0.2-0.1c-0.1,0-0.2,0-0.3,0.1c-0.1,0-0.2,0.1-0.3,0.2C57.7,15.9,57.6,15.9,57.6,16z"/>
	<path d="M64.4,27.8c-0.1-0.8-0.2-1.6-0.3-2.5c-0.1-0.9-0.2-1.8-0.4-2.6c-0.1-0.9-0.3-1.8-0.4-2.7s-0.3-1.7-0.4-2.5
		c0-0.2-0.1-0.3-0.1-0.5c0-0.2,0-0.3-0.1-0.5c0-0.2-0.1-0.3-0.1-0.4c0-0.1-0.1-0.3-0.2-0.4c-0.1-0.1-0.1-0.1-0.1-0.2
		c0,0,0-0.1,0.1-0.2c0.1-0.2,0.2-0.4,0.4-0.7s0.2-0.4,0.3-0.6c0-0.1,0.1-0.1,0.1-0.1c0,0,0.1,0,0.1,0.1c0.1,0.2,0.1,0.4,0.2,0.5
		c0.1,0.2,0.2,0.4,0.3,0.6c0.1,0.2,0.2,0.3,0.4,0.5c0.1,0.2,0.3,0.3,0.5,0.4c-0.1,0.2-0.2,0.3-0.3,0.5c-0.1,0.1-0.1,0.3-0.2,0.4
		C64,17,64,17.1,64,17.2c0,0.1,0,0.2,0,0.3c0.1,0.6,0.1,1.2,0.2,1.9c0.1,0.7,0.2,1.4,0.3,2.1c0.1,0.7,0.2,1.4,0.3,2.1
		c0.1,0.7,0.2,1.4,0.2,2c0,0.3,0,0.6,0,1c0,0.4,0,0.8-0.1,1.1c-0.1,0.4-0.1,0.7-0.3,1c-0.1,0.3-0.3,0.6-0.4,0.8
		c-0.1,0.2-0.3,0.3-0.6,0.4c-0.2,0.1-0.5,0.2-0.7,0.2c-0.2,0-0.5,0-0.7,0c-0.2,0-0.5-0.1-0.6-0.2c-0.2-0.1-0.5-0.3-0.7-0.5
		c-0.2-0.2-0.4-0.5-0.5-0.7s-0.3-0.6-0.4-0.8s-0.2-0.6-0.3-0.9c-0.1,0.3-0.3,0.7-0.5,0.9c-0.3,0.3-0.5,0.5-0.8,0.7
		c-0.2,0.1-0.4,0.2-0.6,0.3C57.5,28.9,57.2,29,57,29c-0.3,0.1-0.5,0.1-0.8,0.1c-0.3,0-0.5,0-0.8,0c-0.3,0-0.5-0.1-0.7-0.1
		c-0.2-0.1-0.4-0.2-0.5-0.3c-0.1-0.1-0.1-0.2-0.2-0.4c0-0.2,0-0.4,0-0.6s0-0.4,0-0.6c0-0.2,0.1-0.4,0.2-0.5c0-0.1,0.1-0.1,0.1-0.1
		c0,0,0.1,0,0.1,0.1c0.1,0.2,0.3,0.4,0.4,0.5c0.2,0.1,0.4,0.2,0.6,0.2c0.3,0.1,0.7,0.1,1.1,0c0.4,0,0.8-0.1,1.2-0.2
		c0.4-0.1,0.7-0.3,1.1-0.4c0.3-0.2,0.6-0.4,0.7-0.6c-0.1-0.6-0.2-1.1-0.3-1.7c-0.1-0.6-0.2-1.1-0.3-1.7c0-0.1,0-0.2,0-0.3
		c0-0.1,0.1-0.2,0.1-0.3c0-0.1,0.1-0.2,0.1-0.4c0-0.1,0.1-0.2,0.1-0.3c0-0.1,0.1-0.1,0.1-0.1c0.1,0,0.1,0,0.1,0.1
		c0,0.3,0.1,0.6,0.2,1c0.1,0.3,0.1,0.7,0.2,1c0.1,0.3,0.1,0.7,0.2,1c0.1,0.3,0.1,0.7,0.2,1c0.1,0.4,0.2,0.8,0.3,1.1
		c0.1,0.3,0.2,0.6,0.4,0.9c0.2,0.3,0.3,0.5,0.6,0.6c0.2,0.2,0.5,0.3,0.8,0.4c0.1,0,0.3,0.1,0.6,0c0.2,0,0.5,0,0.7-0.1
		c0.2-0.1,0.4-0.1,0.6-0.2C64.3,28,64.4,27.9,64.4,27.8z"/>
	<path d="M68.2,15.6c0.1,0,0.1,0,0.1,0.1c0,0,0,0.1,0,0.1c0,0,0,0.1,0,0.1s0,0.1,0,0.1c0,0.3,0,0.6,0,0.8s0.1,0.5,0.1,0.8
		c0.1,0.7,0.2,1.4,0.3,2.1c0.1,0.7,0.2,1.4,0.3,2.1s0.2,1.4,0.3,2.1c0.1,0.7,0.2,1.4,0.3,2.1c0,0.3,0,0.6,0.1,0.9c0,0.4,0,0.7,0,1.1
		c0,0.4-0.1,0.7-0.1,1c-0.1,0.3-0.1,0.6-0.2,0.9c0,0.1-0.1,0.2-0.2,0.2c-0.1,0-0.1,0-0.1-0.1c-0.1-1.3-0.2-2.6-0.4-4
		c-0.2-1.4-0.4-2.8-0.6-4.2c-0.2-1.4-0.4-2.8-0.5-4.2c0-0.3,0.1-0.7,0.3-1.1c0.1-0.2,0.2-0.4,0.2-0.6C68.1,15.9,68.1,15.7,68.2,15.6
		z"/>
	<path d="M80.1,33.1c-0.8,0.3-1.5,0.5-2.2,0.8c-0.7,0.3-1.4,0.5-2.1,0.8c-0.1,0.1-0.1,0-0.1-0.1c0.1-0.1,0.1-0.3,0.2-0.5
		s0.2-0.3,0.2-0.4c0-0.1,0.1-0.1,0.2-0.2c0.2-0.1,0.4-0.2,0.8-0.3c0.3-0.1,0.7-0.3,1.1-0.4c0.4-0.1,0.8-0.3,1.2-0.4s0.9-0.3,1.3-0.4
		c0.1,0,0.1,0,0.1,0.1c0,0.1-0.1,0.1-0.1,0.2s-0.1,0.2-0.1,0.3s-0.1,0.2-0.1,0.2s-0.1,0.1-0.1,0.2C80.2,33,80.2,33,80.1,33.1
		C80.1,33.1,80.1,33.1,80.1,33.1z"/>
	<path d="M79.9,22C79.9,22,79.9,22,79.9,22c-0.1,0.1-0.1,0.1-0.2,0l-1.3-1l-0.8,1.2c-0.1,0.1-0.1,0.1-0.2,0L76,21.1
		C76,21.1,76,21,76,21l0.9-1.2c0,0,0.1-0.1,0.1-0.1c0,0,0,0,0.1,0l1.3,1l0.9-1.1c0-0.1,0.1-0.1,0.1,0l1.4,1.2c0,0,0,0.1,0,0.2
		L79.9,22z M77.1,25.6C77.1,25.6,77.1,25.6,77.1,25.6c-0.1-0.1-0.1-0.2,0-0.3c0-0.2,0.1-0.3,0.1-0.5c0.1-0.2,0.1-0.3,0.2-0.4
		c0.1-0.1,0.1-0.2,0.1-0.2c1.1,0.2,1.9,0.5,2.4,0.9c0.5,0.5,0.8,1.1,0.8,1.9c0,0.5-0.1,1.1-0.4,1.7c-0.1,0.2-0.2,0.4-0.3,0.6
		c-0.1,0.2-0.3,0.3-0.5,0.4c-0.2,0.1-0.4,0.2-0.6,0.3c-0.2,0.1-0.4,0.1-0.7,0.1c-0.4,0-0.7-0.1-0.9-0.2c-0.2-0.1-0.4-0.3-0.6-0.6
		s-0.2-0.5-0.3-0.8c0-0.3,0-0.6,0-0.9c0.1-0.4,0.2-0.7,0.3-1S77,26,77.1,25.6z M77.6,26c-0.1,0.2-0.2,0.5-0.3,0.7
		c-0.1,0.2-0.1,0.4-0.1,0.6s0.1,0.4,0.1,0.5c0.1,0.1,0.2,0.3,0.3,0.3c0.1,0.1,0.3,0.1,0.5,0.1c0.2,0,0.4,0,0.6,0
		c0.2,0,0.4-0.1,0.6-0.2c0.2-0.1,0.4-0.2,0.6-0.4c0-0.2-0.1-0.4-0.3-0.6s-0.4-0.4-0.6-0.5c-0.3-0.2-0.5-0.3-0.8-0.4
		C78,26,77.8,26,77.6,26z"/>
	<path d="M82.3,17c0.1-0.3,0.1-0.5,0.3-0.8c0.1-0.3,0.2-0.5,0.3-0.8c0,0,0-0.1,0.1-0.1c0,0,0.1,0,0.1,0.1c0.1,0.4,0.2,0.9,0.3,1.3
		c0.1,0.4,0.2,0.9,0.3,1.4c0.1,0.5,0.2,1.1,0.2,1.7c0.1,0.6,0.1,1.3,0.2,2c0.1,0.6,0.1,1.1,0.1,1.5c0,0.4,0.1,0.8,0.1,1.1
		c0,0.3,0.1,0.6,0.1,0.9c0,0.3,0.1,0.6,0.1,0.8c0.1,0.4,0.2,0.7,0.3,1c0.1,0.3,0.3,0.5,0.5,0.7s0.4,0.3,0.7,0.4
		c0.3,0.1,0.6,0.1,1,0.1h0.1c0.2,0,0.4,0.1,0.5,0.3s0.2,0.4,0.2,0.6s-0.1,0.4-0.2,0.6s-0.3,0.3-0.5,0.3h-0.1c-0.6,0-1.1-0.1-1.5-0.3
		c-0.4-0.2-0.7-0.4-1-0.8S84.1,28.4,84,28s-0.2-0.9-0.3-1.4c-0.1-0.4-0.1-0.9-0.2-1.3c-0.1-0.5-0.1-0.9-0.1-1.4
		c0-0.4-0.1-0.9-0.1-1.3c0-0.4-0.1-0.8-0.1-1.2c-0.1-0.7-0.2-1.4-0.3-2.1s-0.3-1.4-0.5-2.2c0-0.1,0-0.1,0-0.1
		C82.3,17.1,82.3,17,82.3,17z"/>
	<path d="M91.7,17.5c-0.4,0.2-0.8,0.3-1.2,0.5s-0.8,0.4-1.3,0.5s-0.8,0.3-1.1,0.5c-0.3,0.2-0.6,0.3-0.8,0.4c-0.1,0-0.1,0-0.1,0
		c0,0,0-0.1,0-0.1c0-0.1,0.1-0.1,0.1-0.2c0.1-0.1,0.1-0.2,0.2-0.3s0.1-0.2,0.2-0.3c0.1-0.1,0.1-0.2,0.1-0.2c0.1-0.1,0.1-0.2,0.2-0.2
		l4.3-1.8c0.1-0.1,0.1,0,0.1,0.1c0,0.1-0.1,0.1-0.1,0.2c0,0.1-0.1,0.2-0.1,0.3c0,0.1-0.1,0.2-0.1,0.3s-0.1,0.2-0.1,0.2
		C91.8,17.4,91.7,17.5,91.7,17.5z"/>
	<path d="M90.9,26.1c0,0.1,0,0.2,0,0.3c0,0.1,0,0.2,0,0.3c0,0.2,0.1,0.4,0.2,0.6c0.1,0.2,0.2,0.4,0.4,0.5c0.2,0.2,0.5,0.3,0.8,0.4
		c0.3,0.1,0.7,0.2,1.2,0.2h0.2c0.2,0,0.4,0.1,0.5,0.3c0.1,0.2,0.2,0.4,0.2,0.6s-0.1,0.4-0.2,0.6c-0.1,0.2-0.3,0.3-0.5,0.3h-0.2
		c-0.8,0-1.5-0.2-2-0.5s-0.9-0.8-1.2-1.3c-0.2,0.4-0.4,0.7-0.7,0.9c-0.3,0.2-0.5,0.4-0.8,0.5c-0.3,0.1-0.6,0.2-0.9,0.2
		c-0.3,0-0.6,0.1-0.8,0.1h-0.2c-0.2,0-0.4-0.1-0.5-0.3c-0.1-0.2-0.2-0.4-0.2-0.6s0.1-0.4,0.2-0.6c0.1-0.2,0.3-0.3,0.5-0.3h0.2
		c0.2,0,0.5,0,0.7,0c0.3,0,0.5-0.1,0.8-0.1s0.5-0.2,0.7-0.3s0.5-0.3,0.7-0.6c0.1-0.2,0.3-0.4,0.4-0.6c0.1-0.2,0.2-0.4,0.3-0.6
		c0,0,0-0.1,0.1-0.1c0,0,0.1,0,0.1,0C90.8,26,90.9,26,90.9,26.1C90.9,26,90.9,26.1,90.9,26.1z M91.7,34.6
		C91.7,34.7,91.7,34.7,91.7,34.6c-0.1,0.1-0.2,0.1-0.2,0l-1.3-1l-0.9,1.2c-0.1,0.1-0.1,0.1-0.2,0l-1.4-1.1c-0.1,0-0.1-0.1,0-0.1
		l0.9-1.3c0,0,0.1-0.1,0.1-0.1s0,0,0.1,0l1.3,1l0.9-1.2c0-0.1,0.1-0.1,0.1,0l1.4,1.2c0.1,0,0.1,0.1,0,0.2L91.7,34.6z"/>
	<path d="M97.2,20.9c-0.4,0.2-0.8,0.3-1.2,0.5s-0.8,0.4-1.3,0.5s-0.8,0.3-1.1,0.5c-0.3,0.2-0.6,0.3-0.8,0.4c-0.1,0-0.1,0-0.1,0
		c0,0,0-0.1,0-0.1c0-0.1,0.1-0.1,0.1-0.2c0.1-0.1,0.1-0.2,0.2-0.3s0.1-0.2,0.2-0.3c0.1-0.1,0.1-0.2,0.1-0.2c0.1-0.1,0.1-0.2,0.2-0.2
		l4.3-1.8c0.1-0.1,0.1,0,0.1,0.1c0,0.1-0.1,0.1-0.1,0.2c0,0.1-0.1,0.2-0.1,0.3c0,0.1-0.1,0.2-0.1,0.3s-0.1,0.2-0.1,0.2
		C97.3,20.8,97.3,20.8,97.2,20.9z"/>
	<path d="M99.6,10.2c0,0.3,0,0.5-0.1,0.8c-0.1,0.2-0.2,0.5-0.3,0.6s-0.3,0.3-0.5,0.4c-0.2,0.1-0.5,0.2-0.8,0.2c-0.4,0-0.7-0.1-1-0.4
		c-0.3-0.2-0.4-0.6-0.4-1c0-0.2,0-0.5,0.1-0.8s0.2-0.6,0.3-0.9c0.1-0.3,0.3-0.5,0.5-0.7c0.2-0.2,0.5-0.3,0.8-0.4
		c0.3,0,0.5,0,0.7,0.2c0.2,0.1,0.3,0.3,0.4,0.5c0.1,0.2,0.2,0.4,0.2,0.7C99.5,9.8,99.6,10,99.6,10.2z M97.9,9.4
		c-0.1,0-0.2,0.1-0.4,0.2c-0.1,0.1-0.2,0.2-0.3,0.3S97.1,10,97,10.1C97,10.3,97,10.4,97,10.5s0,0.2,0.1,0.3c0.1,0.1,0.2,0.1,0.3,0.2
		c0.1,0,0.2,0.1,0.3,0.1c0.1,0,0.2,0,0.3,0c0.4,0,0.8-0.2,1.1-0.5c0-0.1,0-0.3,0-0.4c0-0.1-0.1-0.3-0.2-0.4
		c-0.1-0.1-0.2-0.2-0.4-0.3C98.3,9.4,98.1,9.3,97.9,9.4z"/>
	<path d="M99.5,24.7c0.4,0.1,0.8,0.2,1.1,0.3c0.4,0.1,0.7,0.2,1,0.3c0.3,0.1,0.7,0.1,1,0.2c0.3,0.1,0.6,0.1,1,0.2
		c0.5,0.1,1,0.1,1.6,0.2c0.5,0,1.1,0.1,1.6,0.1c0.1,0,0.1,0.1,0.1,0.2c0,0.1-0.1,0.2-0.1,0.3c-0.1,0.1-0.1,0.2-0.2,0.4
		c-0.1,0.1-0.1,0.3-0.2,0.4c-0.1,0.1-0.1,0.2-0.2,0.3c0,0.1-0.1,0.1-0.1,0.1c-0.1,0-0.1,0-0.2,0c-0.6-0.1-1.1-0.1-1.7-0.1
		c-0.5,0-1,0.1-1.5,0.2c-0.5,0.1-1,0.2-1.5,0.4c-0.5,0.2-1,0.3-1.5,0.5c-0.5,0.2-1,0.4-1.5,0.6c-0.5,0.2-1,0.4-1.5,0.5
		c-0.5,0.1-1,0.3-1.5,0.3c-0.5,0.1-1.1,0.1-1.7,0.1h-0.2c-0.2,0-0.4-0.1-0.5-0.3s-0.2-0.4-0.2-0.6s0.1-0.4,0.2-0.6s0.3-0.3,0.5-0.3
		h0.2c0.4,0,0.8,0,1.3,0s1-0.1,1.6-0.2s1.2-0.3,1.9-0.5c0.7-0.2,1.5-0.5,2.3-0.9c-0.6-0.2-1.1-0.3-1.6-0.5c-0.5-0.1-1.1-0.2-1.6-0.3
		c-0.5-0.1-1.1-0.1-1.6-0.1s-1.1,0-1.7,0.1c-0.1,0-0.1,0,0-0.1c0.1-0.3,0.2-0.5,0.4-0.8c0.1-0.2,0.3-0.5,0.5-0.7
		c0.1-0.1,0.2-0.1,0.5-0.1c0.3,0,0.6-0.1,1-0.1c0.4,0,0.8-0.1,1.2-0.1c0.4,0,0.8-0.1,1.1-0.1c0.2,0,0.3-0.1,0.4-0.1
		c0.1,0,0.2-0.1,0.1-0.3c0-0.4-0.1-0.8-0.1-1.4c-0.1-0.5-0.2-1.1-0.2-1.6c-0.1-0.6-0.2-1.1-0.3-1.7s-0.2-1.1-0.3-1.6
		c0-0.2-0.1-0.3-0.1-0.5s-0.1-0.4-0.1-0.5c0-0.2-0.1-0.3-0.2-0.5s-0.2-0.3-0.3-0.4c0.1-0.2,0.3-0.5,0.4-0.7c0.1-0.3,0.2-0.5,0.4-0.7
		c0-0.1,0.1-0.1,0.1-0.1s0.1,0,0.1,0.1c0.1,0.2,0.1,0.4,0.2,0.5c0.1,0.2,0.2,0.4,0.3,0.5c0.1,0.2,0.2,0.3,0.3,0.5s0.3,0.3,0.5,0.4
		c0,0.1-0.1,0.2-0.2,0.3c-0.1,0.1-0.2,0.2-0.2,0.3c-0.1,0.1-0.1,0.2-0.2,0.4s-0.1,0.3,0,0.4c0,0.1,0.1,0.4,0.1,0.7
		c0.1,0.3,0.1,0.8,0.2,1.2c0.1,0.5,0.2,0.9,0.2,1.4c0.1,0.5,0.1,0.9,0.2,1.3c0,0.2,0,0.4,0,0.7s0,0.5,0,0.8c0,0.3-0.1,0.5-0.2,0.8
		C99.8,24.3,99.6,24.5,99.5,24.7z"/>
	<path d="M109.8,15.6c0.1,0,0.1,0,0.1,0.1c0,0,0,0.1,0,0.1c0,0,0,0.1,0,0.1s0,0.1,0,0.1c0,0.3,0,0.6,0,0.8s0.1,0.5,0.1,0.8
		c0.1,0.7,0.2,1.4,0.3,2.1c0.1,0.7,0.2,1.4,0.3,2.1s0.2,1.4,0.3,2.1c0.1,0.7,0.2,1.4,0.3,2.1c0,0.3,0,0.6,0.1,0.9c0,0.4,0,0.7,0,1.1
		c0,0.4-0.1,0.7-0.1,1c-0.1,0.3-0.1,0.6-0.2,0.9c0,0.1-0.1,0.2-0.2,0.2c-0.1,0-0.1,0-0.1-0.1c-0.1-1.3-0.2-2.6-0.4-4
		c-0.2-1.4-0.4-2.8-0.6-4.2c-0.2-1.4-0.4-2.8-0.5-4.2c0-0.3,0.1-0.7,0.3-1.1c0.1-0.2,0.2-0.4,0.2-0.6
		C109.6,15.9,109.7,15.7,109.8,15.6z"/>
	<path d="M118.8,15.7c-0.1,0-0.1-0.1,0-0.1c0.1-0.1,0.2-0.2,0.3-0.2c0.2-0.2,0.5-0.3,0.7-0.5c0.2-0.1,0.5-0.3,0.7-0.5
		c0.2-0.2,0.5-0.3,0.7-0.5s0.4-0.4,0.7-0.6c-0.2-0.1-0.4-0.2-0.6-0.3c-0.2-0.1-0.4-0.3-0.5-0.4c-0.1-0.1-0.1-0.2-0.1-0.3
		c0-0.1,0-0.3,0-0.4c0.1-0.2,0.2-0.4,0.3-0.6c0.1-0.2,0.2-0.4,0.4-0.6c0.1-0.2,0.3-0.3,0.5-0.4s0.4-0.2,0.6-0.1
		c0.1,0,0.3,0.1,0.4,0.2c0.1,0.1,0.2,0.2,0.2,0.4c0.1,0.1,0.1,0.3,0.1,0.5c0,0.2,0,0.4,0,0.5s0,0.3,0,0.5c0,0.2,0,0.3-0.1,0.3
		c0,0,0,0.1,0.1,0.1c0.1,0.1,0.2,0.1,0.2,0.1s0.1,0.1,0.1,0.2c0,0.1,0,0.2,0,0.4s-0.1,0.3-0.1,0.4c-0.1,0.1-0.1,0.1-0.2,0.1
		c-0.1,0-0.1,0-0.1-0.1c0-0.1-0.1-0.1-0.1-0.1c0,0-0.1-0.1-0.1-0.1c-0.2,0.3-0.5,0.5-0.7,0.8c-0.2,0.2-0.4,0.4-0.7,0.6
		c-0.2,0.2-0.5,0.3-0.7,0.4s-0.6,0.3-0.9,0.4c-0.1,0-0.3,0.1-0.4,0.1C119,15.7,118.9,15.7,118.8,15.7z M121.2,11.5
		c0.1,0.2,0.3,0.4,0.5,0.5c0.2,0.1,0.4,0.2,0.6,0.3h0c0-0.1,0-0.1,0-0.2c0-0.1,0-0.2,0-0.3s0-0.2,0-0.3c0-0.1-0.1-0.2-0.1-0.2
		c-0.1-0.1-0.1-0.1-0.2-0.1c-0.1,0-0.2,0-0.3,0.1c-0.1,0-0.2,0.1-0.3,0.2C121.3,11.4,121.2,11.4,121.2,11.5z"/>
	<path d="M121.6,21c0-0.1,0.1-0.1,0.1-0.1c0.1,0,0.1,0,0.1,0.1l0.3,1.6c0.1,0.3,0.1,0.6,0.2,1s0.1,0.7,0.2,1.1
		c0.1,0.4,0.2,0.7,0.2,1c0.1,0.3,0.2,0.6,0.2,0.8c0.1,0.4,0.2,0.7,0.4,0.9c0.2,0.2,0.4,0.4,0.6,0.6s0.5,0.2,0.8,0.3
		c0.3,0.1,0.6,0.1,0.8,0.1h0.2c0.2,0,0.4,0.1,0.5,0.3c0.1,0.2,0.2,0.4,0.2,0.6s-0.1,0.4-0.2,0.6c-0.1,0.2-0.3,0.3-0.5,0.3h-0.2
		c-0.5,0-0.9-0.1-1.2-0.2c-0.3-0.1-0.6-0.3-0.9-0.5s-0.5-0.4-0.6-0.7c-0.2-0.3-0.3-0.5-0.4-0.8c-0.1-0.3-0.2-0.6-0.3-0.8
		c-0.1-0.2-0.1-0.4-0.2-0.5c-0.3,0.4-0.6,0.7-0.8,0.9c-0.3,0.2-0.5,0.4-0.8,0.5c-0.3,0.1-0.5,0.2-0.8,0.2c-0.3,0-0.6,0-0.9,0
		c-0.1,0-0.2,0-0.3-0.1c-0.1,0-0.2-0.1-0.3-0.2c-0.1-0.1-0.2-0.2-0.2-0.3c0-0.1-0.1-0.2-0.1-0.4c0.1-0.4,0.2-0.8,0.3-1.2
		c0.2-0.4,0.3-0.7,0.5-1c0.3-0.4,0.7-0.8,1.1-1.1c0.4-0.3,1-0.6,1.6-0.8c0-0.1,0-0.2-0.1-0.4s-0.1-0.3-0.1-0.4c0-0.1,0-0.1,0-0.3
		c0-0.1,0.1-0.2,0.1-0.3c0-0.1,0.1-0.2,0.1-0.4C121.6,21.2,121.6,21.1,121.6,21z M121.6,24.3c-0.6,0.2-1.1,0.4-1.5,0.7
		c-0.4,0.3-0.8,0.6-1.1,1.1c-0.1,0.1-0.1,0.2,0,0.3c0.2,0.1,0.5,0.2,0.8,0.2s0.6,0,0.9-0.1c0.3-0.1,0.6-0.1,0.8-0.2
		c0.2-0.1,0.4-0.2,0.5-0.3c-0.1-0.3-0.1-0.5-0.2-0.8C121.7,24.8,121.6,24.6,121.6,24.3z M123,19.8C123,19.9,123,19.9,123,19.8
		c-0.1,0-0.2,0-0.2,0l-1.3-1l-0.9,1.2c0,0-0.1,0.1-0.1,0.1c0,0-0.1,0-0.1,0l-1.4-1.1c0,0,0,0-0.1-0.1c0,0,0,0,0-0.1l0.9-1.3
		c0,0,0.1-0.1,0.1-0.1c0,0,0.1,0,0.1,0l1.4,1l0.9-1.2c0,0,0.1-0.1,0.1-0.1c0,0,0,0,0.1,0l1.4,1.2c0.1,0,0.1,0.1,0,0.2L123,19.8z"/>
	<path d="M130.3,16.7c-0.4,0.2-0.8,0.3-1.2,0.5s-0.8,0.4-1.3,0.5c-0.4,0.2-0.8,0.3-1.1,0.5c-0.3,0.2-0.6,0.3-0.8,0.4
		c-0.1,0-0.1,0-0.1,0s0-0.1,0-0.1c0-0.1,0.1-0.1,0.1-0.2c0.1-0.1,0.1-0.2,0.2-0.3c0.1-0.1,0.1-0.2,0.2-0.3c0.1-0.1,0.1-0.2,0.1-0.2
		c0.1-0.1,0.1-0.2,0.2-0.2l4.3-1.8c0.1-0.1,0.1,0,0.1,0.1c0,0.1-0.1,0.1-0.1,0.2s-0.1,0.2-0.1,0.3c0,0.1-0.1,0.2-0.1,0.3
		s-0.1,0.2-0.1,0.2C130.4,16.6,130.4,16.6,130.3,16.7z"/>
	<path d="M129.5,26.1c0,0.1,0,0.2,0,0.3c0,0.1,0,0.2,0,0.3c0,0.2,0.1,0.4,0.2,0.6c0.1,0.2,0.2,0.4,0.4,0.5c0.2,0.2,0.5,0.3,0.8,0.4
		c0.3,0.1,0.7,0.2,1.2,0.2h0.2c0.2,0,0.4,0.1,0.5,0.3c0.1,0.2,0.2,0.4,0.2,0.6s-0.1,0.4-0.2,0.6c-0.1,0.2-0.3,0.3-0.5,0.3H132
		c-0.8,0-1.5-0.2-2-0.5s-0.9-0.8-1.2-1.3c-0.2,0.4-0.4,0.7-0.7,0.9c-0.3,0.2-0.5,0.4-0.8,0.5c-0.3,0.1-0.6,0.2-0.9,0.2
		c-0.3,0-0.6,0.1-0.8,0.1h-0.2c-0.2,0-0.4-0.1-0.5-0.3c-0.1-0.2-0.2-0.4-0.2-0.6s0.1-0.4,0.2-0.6c0.1-0.2,0.3-0.3,0.5-0.3h0.2
		c0.2,0,0.5,0,0.7,0c0.3,0,0.5-0.1,0.8-0.1s0.5-0.2,0.7-0.3s0.5-0.3,0.7-0.6c0.1-0.2,0.3-0.4,0.4-0.6c0.1-0.2,0.2-0.4,0.3-0.6
		c0,0,0-0.1,0.1-0.1c0,0,0.1,0,0.1,0C129.4,26,129.5,26,129.5,26.1C129.5,26,129.5,26.1,129.5,26.1z M128.4,21l1.4,1.1
		c0.1,0.1,0.1,0.1,0,0.2l-0.9,1.2c-0.1,0.1-0.1,0.1-0.2,0l-1.4-1.1c-0.1-0.1-0.1-0.1,0-0.2l0.9-1.1C128.3,20.9,128.4,20.9,128.4,21z
		"/>
	<path d="M135.5,24C135.5,23.9,135.5,23.9,135.5,24c0.1-0.1,0.2-0.1,0.3,0c0.2,0.2,0.4,0.4,0.6,0.7s0.3,0.5,0.5,0.8s0.2,0.5,0.3,0.8
		c0.1,0.3,0.1,0.6,0.1,0.9c0,0.1,0,0.3,0,0.4c0,0.2,0,0.3-0.1,0.5c0,0.2-0.1,0.3-0.1,0.5c0,0.1-0.1,0.3-0.2,0.4
		c-0.1,0.2-0.3,0.3-0.5,0.5s-0.5,0.2-0.8,0.3c-0.3,0.1-0.6,0.2-0.9,0.2c-0.3,0.1-0.6,0.1-1,0.1c-0.3,0-0.6,0.1-0.9,0.1
		c-0.3,0-0.5,0-0.7,0h-0.2c-0.2,0-0.4-0.1-0.5-0.3s-0.2-0.4-0.2-0.6s0.1-0.4,0.2-0.6s0.3-0.3,0.5-0.3h0.2c0.1,0,0.3,0,0.5,0
		c0.2,0,0.5,0,0.7,0c0.3,0,0.6,0,0.9,0c0.3,0,0.6,0,0.9-0.1c0.3,0,0.5-0.1,0.8-0.1c0.2-0.1,0.4-0.1,0.5-0.2c0.1-0.1,0.2-0.2,0.1-0.3
		c-0.1-0.4-0.3-0.8-0.6-1.1c-0.3-0.3-0.5-0.6-0.8-0.9c0.1-0.3,0.1-0.5,0.2-0.8S135.4,24.2,135.5,24z M135.7,34.1
		C135.7,34.2,135.6,34.2,135.7,34.1c-0.1,0.1-0.2,0-0.2,0l-1.3-0.9l-0.7,1.1c-0.1,0.1-0.1,0.1-0.2,0l-1.3-0.9c0,0-0.1-0.1,0-0.1
		l0.7-1.1c0.1-0.1,0.1-0.1,0.2-0.1l1.3,0.9l0.7-1.1c0,0,0.1,0,0.1,0l1.3,0.9c0,0,0.1,0.1,0,0.2L135.7,34.1z"/>
	<path d="M143.6,38.3c-0.8,0.3-1.5,0.5-2.2,0.8c-0.7,0.3-1.4,0.5-2.1,0.8c-0.1,0.1-0.1,0-0.1-0.1c0.1-0.1,0.1-0.3,0.2-0.5
		s0.2-0.3,0.2-0.4c0-0.1,0.1-0.1,0.2-0.2c0.2-0.1,0.4-0.2,0.8-0.3c0.3-0.1,0.7-0.3,1.1-0.4c0.4-0.1,0.8-0.3,1.2-0.4s0.9-0.3,1.3-0.4
		c0.1,0,0.1,0,0.1,0.1c0,0.1-0.1,0.1-0.1,0.2s-0.1,0.2-0.1,0.3s-0.1,0.2-0.1,0.2s-0.1,0.1-0.1,0.2C143.7,38.2,143.7,38.2,143.6,38.3
		C143.7,38.3,143.6,38.3,143.6,38.3z"/>
	<path d="M143.4,25.3c0-0.1,0.1-0.1,0.2,0c0.3,0.3,0.6,0.6,0.8,1s0.5,0.8,0.6,1.2c0.2,0.4,0.3,0.9,0.4,1.3s0.1,0.9,0.1,1.3
		c0,0.4-0.1,0.7-0.2,1.1c-0.1,0.4-0.3,0.8-0.4,1.1c-0.2,0.4-0.4,0.7-0.6,1.1s-0.5,0.7-0.7,1c-0.3,0.3-0.6,0.6-0.9,0.8
		s-0.6,0.4-1,0.5c-0.4,0.1-0.8,0.2-1.3,0.3c-0.5,0-0.9,0-1.4,0s-0.9-0.1-1.4-0.2s-0.9-0.2-1.2-0.3c-0.1,0-0.1-0.1-0.2-0.1
		c0-0.1,0-0.1,0-0.2s0.1-0.1,0.1-0.1c0.1,0,0.1-0.1,0.2,0c0.4,0.1,0.9,0.1,1.3,0c0.4,0,0.9-0.1,1.3-0.2s0.9-0.2,1.3-0.4
		s0.8-0.4,1.2-0.6c0.3-0.2,0.7-0.4,1-0.7c0.3-0.3,0.6-0.6,0.9-0.9c0.3-0.3,0.5-0.7,0.8-1.1c0.2-0.4,0.4-0.8,0.6-1.1
		c0-0.2-0.1-0.5-0.3-0.8c-0.1-0.3-0.3-0.6-0.5-0.9c-0.2-0.3-0.4-0.6-0.6-0.9c-0.2-0.3-0.4-0.5-0.5-0.6c0.1-0.3,0.1-0.6,0.2-0.8
		C143.2,25.9,143.3,25.6,143.4,25.3z M142.1,20.8l1.4,1.1c0.1,0.1,0.1,0.1,0,0.2l-0.9,1.2c-0.1,0.1-0.1,0.1-0.2,0l-1.4-1.1
		c-0.1-0.1-0.1-0.1,0-0.2l0.9-1.1C141.9,20.8,142,20.8,142.1,20.8z"/>
	<path class="st0" d="M159.1,16.1c-0.4,0.2-0.8,0.3-1.2,0.5s-0.8,0.4-1.3,0.5c-0.4,0.2-0.8,0.3-1.1,0.5c-0.3,0.2-0.6,0.3-0.8,0.4
		c-0.1,0-0.1,0-0.1,0s0-0.1,0-0.1c0-0.1,0.1-0.1,0.1-0.2c0.1-0.1,0.1-0.2,0.2-0.3c0.1-0.1,0.1-0.2,0.2-0.3c0.1-0.1,0.1-0.2,0.1-0.2
		c0.1-0.1,0.1-0.2,0.2-0.2l4.3-1.8c0.1-0.1,0.1,0,0.1,0.1c0,0.1-0.1,0.1-0.1,0.2s-0.1,0.2-0.1,0.3c0,0.1-0.1,0.2-0.1,0.3
		s-0.1,0.2-0.1,0.2C159.2,16,159.2,16.1,159.1,16.1z"/>
	<path class="st0" d="M160.8,22.2c0.4,0.5,0.7,1,0.9,1.6c0.3,0.5,0.5,1.1,0.7,1.7c0.2,0.6,0.3,1.2,0.3,1.8c0,0.6,0,1.2-0.1,1.8
		c-0.1,0.5-0.2,0.9-0.4,1.3c-0.2,0.4-0.5,0.8-0.8,1.1c-0.3,0.3-0.7,0.6-1,0.8c-0.4,0.2-0.8,0.4-1.2,0.6c-0.4,0.2-0.9,0.3-1.3,0.4
		c-0.4,0.1-0.9,0.1-1.3,0.1c-0.6,0-1.1-0.1-1.7-0.3s-1-0.5-1.4-0.8s-0.7-0.8-0.9-1.3c-0.2-0.5-0.3-1.1-0.3-1.7c0-0.7,0.1-1.4,0.3-2
		c0.2-0.7,0.5-1.3,0.9-1.9c0-0.1,0.1-0.1,0.1-0.1c0,0,0.1,0,0.1,0.1c0,0,0,0.1,0,0.1c0,0,0,0.1,0,0.1c-0.4,0.7-0.6,1.4-0.7,2.1
		c-0.1,0.7,0,1.3,0.2,1.9c0.1,0.3,0.3,0.6,0.5,0.8c0.2,0.2,0.4,0.5,0.7,0.6c0.3,0.2,0.6,0.3,1,0.4c0.4,0.1,0.8,0.1,1.2,0.1
		c0.5,0,1,0,1.5-0.1c0.5-0.1,1-0.2,1.4-0.4c0.5-0.2,0.9-0.4,1.3-0.7c0.4-0.3,0.8-0.6,1.1-1c0-0.4,0-0.9-0.1-1.4s-0.3-1-0.4-1.5
		c-0.2-0.5-0.4-0.9-0.6-1.4c-0.2-0.4-0.5-0.9-0.7-1.2c0.1-0.3,0.1-0.5,0.2-0.8c0.1-0.3,0.2-0.5,0.3-0.8c0-0.1,0.1-0.1,0.1-0.1
		C160.7,22.1,160.8,22.1,160.8,22.2z M157.5,19.2l1.4,1.1c0.1,0.1,0.1,0.1,0,0.2l-0.9,1.2c-0.1,0.1-0.1,0.1-0.2,0l-1.4-1.1
		c-0.1-0.1-0.1-0.1,0-0.2l0.9-1.1C157.4,19.2,157.5,19.2,157.5,19.2z"/>
	<path class="st0" d="M170.5,30.2l-1.1,0c-0.3,0-0.6,0-0.9-0.1c-0.3-0.1-0.5-0.2-0.7-0.4c-0.2-0.2-0.4-0.4-0.5-0.6
		c-0.1-0.2-0.1-0.5-0.1-0.8c0-0.1,0.1-0.3,0.1-0.5c0.1-0.2,0.1-0.4,0.2-0.6s0.2-0.4,0.3-0.6c0.1-0.2,0.3-0.4,0.4-0.5
		s0.3-0.3,0.5-0.4c0.2-0.1,0.3-0.1,0.5-0.1c0.3,0,0.5,0.1,0.7,0.3c0.2,0.2,0.4,0.5,0.6,0.8c0.2,0.3,0.3,0.6,0.4,0.9
		c0.1,0.3,0.2,0.6,0.2,0.8l0.9,0h0.2c0.2,0,0.4,0.1,0.5,0.3c0.1,0.2,0.2,0.4,0.2,0.6s-0.1,0.4-0.2,0.6s-0.3,0.3-0.5,0.3h-0.2l-0.9,0
		c-0.1,0.6-0.3,1.3-0.5,1.8c-0.2,0.6-0.4,1.1-0.7,1.6s-0.6,0.9-1,1.3c-0.4,0.4-0.9,0.7-1.4,0.9c-0.4,0.1-0.8,0.2-1.3,0.2
		s-1,0.1-1.5,0c-0.5,0-1-0.1-1.5-0.1c-0.5-0.1-0.9-0.2-1.3-0.3c-0.1,0-0.2-0.1-0.2-0.1c0-0.1,0-0.1,0-0.2c0-0.1,0.1-0.1,0.1-0.2
		s0.2-0.1,0.3-0.1c0.4,0,0.8,0.1,1.3,0s0.9,0,1.4-0.1c0.4-0.1,0.9-0.2,1.3-0.3c0.4-0.1,0.8-0.3,1.2-0.5c0.4-0.2,0.8-0.5,1.1-0.8
		s0.6-0.7,0.9-1s0.5-0.7,0.7-1.1C170.2,31,170.3,30.6,170.5,30.2z M168.8,27.3c-0.1,0-0.2,0-0.3,0.1c-0.1,0.1-0.2,0.1-0.3,0.2
		c-0.1,0.1-0.1,0.2-0.2,0.3c0,0.1-0.1,0.2-0.1,0.2c0,0.1,0.2,0.2,0.3,0.2s0.4,0.1,0.6,0.1c0.2,0,0.4,0,0.7,0c0.2,0,0.4,0,0.5,0
		c0,0,0-0.1-0.1-0.2c-0.1-0.1-0.2-0.2-0.3-0.4c-0.1-0.1-0.3-0.3-0.4-0.4C169.1,27.4,169,27.3,168.8,27.3z"/>
	<path class="st0" d="M172.2,18.7c-0.1,0-0.1-0.1,0-0.1c0.1-0.1,0.2-0.2,0.3-0.2c0.2-0.2,0.5-0.3,0.7-0.5c0.2-0.2,0.5-0.3,0.7-0.5
		c0.2-0.2,0.5-0.3,0.7-0.5c0.2-0.2,0.4-0.4,0.7-0.6c-0.2-0.1-0.4-0.2-0.6-0.3c-0.2-0.1-0.4-0.3-0.5-0.4c-0.1-0.1-0.1-0.2-0.1-0.3
		c0-0.1,0-0.3,0-0.4c0.1-0.2,0.2-0.4,0.3-0.6c0.1-0.2,0.2-0.4,0.4-0.6c0.1-0.2,0.3-0.3,0.5-0.4s0.4-0.2,0.6-0.1
		c0.1,0,0.3,0.1,0.4,0.2c0.1,0.1,0.2,0.2,0.2,0.4c0.1,0.2,0.1,0.3,0.1,0.5s0,0.4,0,0.5s0,0.3,0,0.5c0,0.1,0,0.3-0.1,0.3
		c0,0,0,0.1,0.1,0.1c0.1,0.1,0.2,0.1,0.2,0.1s0.1,0.1,0.1,0.2c0,0.1,0,0.2,0,0.4s-0.1,0.3-0.1,0.4c-0.1,0.1-0.1,0.1-0.2,0.1
		c-0.1,0-0.1,0-0.1-0.1c0-0.1-0.1-0.1-0.1-0.1c0,0-0.1-0.1-0.1-0.1c-0.2,0.3-0.5,0.5-0.7,0.8c-0.2,0.2-0.4,0.4-0.7,0.6
		s-0.5,0.3-0.7,0.4c-0.3,0.1-0.6,0.3-0.9,0.4c-0.1,0-0.3,0.1-0.4,0.1C172.4,18.8,172.3,18.8,172.2,18.7z M174.6,14.6
		c0.1,0.2,0.3,0.4,0.5,0.5c0.2,0.1,0.4,0.2,0.6,0.3h0c0-0.1,0-0.2,0-0.2c0-0.1,0-0.2,0-0.3c0-0.1,0-0.2,0-0.3c0-0.1-0.1-0.2-0.1-0.2
		c-0.1-0.1-0.1-0.1-0.2-0.1c-0.1,0-0.2,0-0.3,0.1c-0.1,0-0.2,0.1-0.3,0.2C174.7,14.5,174.6,14.5,174.6,14.6z"/>
	<path class="st0" d="M176,26.1c0,0.1,0,0.2,0,0.3c0,0.1,0,0.2,0,0.3c0,0.2,0.1,0.4,0.2,0.6c0.1,0.2,0.2,0.4,0.4,0.5
		c0.2,0.2,0.5,0.3,0.8,0.4c0.3,0.1,0.7,0.2,1.2,0.2h0.2c0.2,0,0.4,0.1,0.5,0.3c0.1,0.2,0.2,0.4,0.2,0.6s-0.1,0.4-0.2,0.6
		c-0.1,0.2-0.3,0.3-0.5,0.3h-0.2c-0.8,0-1.5-0.2-2-0.5s-0.9-0.8-1.2-1.3c-0.2,0.4-0.4,0.7-0.7,0.9c-0.3,0.2-0.5,0.4-0.8,0.5
		c-0.3,0.1-0.6,0.2-0.9,0.2c-0.3,0-0.6,0.1-0.8,0.1h-0.2c-0.2,0-0.4-0.1-0.5-0.3c-0.1-0.2-0.2-0.4-0.2-0.6s0.1-0.4,0.2-0.6
		c0.1-0.2,0.3-0.3,0.5-0.3h0.2c0.2,0,0.5,0,0.7,0c0.3,0,0.5-0.1,0.8-0.1s0.5-0.2,0.7-0.3s0.5-0.3,0.7-0.6c0.1-0.2,0.3-0.4,0.4-0.6
		c0.1-0.2,0.2-0.4,0.3-0.6c0,0,0-0.1,0.1-0.1c0,0,0.1,0,0.1,0C175.9,26,175.9,26,176,26.1C175.9,26,176,26.1,176,26.1z M174.9,21
		l1.4,1.1c0.1,0.1,0.1,0.1,0,0.2l-0.9,1.2c-0.1,0.1-0.1,0.1-0.2,0l-1.4-1.1c-0.1-0.1-0.1-0.1,0-0.2l0.9-1.1
		C174.8,20.9,174.8,20.9,174.9,21z"/>
	<path class="st0" d="M183.3,19.8c-0.4,0.2-0.8,0.3-1.2,0.5s-0.8,0.4-1.3,0.5s-0.8,0.3-1.1,0.5c-0.3,0.2-0.6,0.3-0.8,0.4
		c-0.1,0-0.1,0-0.1,0c0,0,0-0.1,0-0.1c0-0.1,0.1-0.1,0.1-0.2c0.1-0.1,0.1-0.2,0.2-0.3s0.1-0.2,0.2-0.3c0.1-0.1,0.1-0.2,0.1-0.2
		c0.1-0.1,0.1-0.2,0.2-0.2l4.3-1.8c0.1-0.1,0.1,0,0.1,0.1c0,0.1-0.1,0.1-0.1,0.2c0,0.1-0.1,0.2-0.1,0.3c0,0.1-0.1,0.2-0.1,0.3
		s-0.1,0.2-0.1,0.2C183.5,19.6,183.4,19.7,183.3,19.8z"/>
	<path class="st0" d="M188.3,10.8c0,0.3,0,0.5-0.1,0.8c-0.1,0.2-0.2,0.5-0.3,0.6s-0.3,0.3-0.5,0.4c-0.2,0.1-0.5,0.2-0.8,0.2
		c-0.4,0-0.7-0.1-1-0.4c-0.3-0.2-0.4-0.6-0.4-1c0-0.2,0-0.5,0.1-0.8s0.2-0.6,0.3-0.9c0.1-0.3,0.3-0.5,0.5-0.7
		c0.2-0.2,0.5-0.3,0.8-0.4c0.3,0,0.5,0,0.7,0.2c0.2,0.1,0.3,0.3,0.4,0.5c0.1,0.2,0.2,0.4,0.2,0.7C188.2,10.4,188.3,10.6,188.3,10.8z
		 M186.6,9.9c-0.1,0-0.2,0.1-0.4,0.2c-0.1,0.1-0.2,0.2-0.3,0.3s-0.2,0.2-0.2,0.4c-0.1,0.1-0.1,0.2-0.1,0.4s0,0.2,0.1,0.3
		c0.1,0.1,0.2,0.1,0.3,0.2c0.1,0,0.2,0.1,0.3,0.1c0.1,0,0.2,0,0.3,0c0.4,0,0.8-0.2,1.1-0.5c0-0.1,0-0.3,0-0.4c0-0.1-0.1-0.3-0.2-0.4
		c-0.1-0.1-0.2-0.2-0.4-0.3C187,9.9,186.8,9.9,186.6,9.9z"/>
	<path class="st0" d="M178.5,28.4c0.3,0,0.6,0,0.9,0s0.8-0.1,1.2-0.2c0.4-0.1,0.9-0.2,1.4-0.5c0.5-0.2,1-0.5,1.6-0.9
		c0.1-0.1,0.3-0.1,0.4-0.1c0.1,0,0.2,0,0.4,0.1c0.2,0.1,0.4,0.2,0.6,0.3c0.3,0.1,0.5,0.2,0.8,0.3c0.3,0.1,0.5,0.2,0.8,0.2
		s0.5,0.1,0.6,0.2c0.3,0.1,0.5,0.1,0.7,0c0.2,0,0.3-0.2,0.3-0.3c-0.1-0.8-0.2-1.6-0.3-2.3c-0.1-0.7-0.2-1.4-0.3-2.1
		s-0.2-1.5-0.3-2.2c-0.1-0.8-0.2-1.6-0.3-2.6c0-0.3-0.1-0.6-0.1-0.9s-0.2-0.6-0.4-0.9c-0.1-0.1-0.1-0.1-0.1-0.2c0,0,0-0.1,0.1-0.2
		l0.7-1.3c0-0.1,0.1-0.1,0.1-0.1c0,0,0.1,0,0.1,0.1c0.1,0.2,0.1,0.4,0.2,0.6c0.1,0.2,0.2,0.4,0.3,0.5c0.1,0.2,0.2,0.3,0.4,0.5
		c0.1,0.2,0.3,0.3,0.5,0.4c-0.1,0.2-0.2,0.3-0.3,0.5c-0.1,0.1-0.2,0.2-0.2,0.3c-0.1,0.1-0.1,0.2-0.1,0.3c0,0.1,0,0.2,0,0.3
		c0.1,0.7,0.1,1.4,0.2,2.1c0.1,0.7,0.2,1.4,0.2,2.1c0.1,0.7,0.2,1.3,0.2,1.9c0.1,0.6,0.1,1.1,0.1,1.4c0,0.3,0,0.7,0,1.2
		c0,0.4-0.1,0.8-0.3,1.2c-0.1,0.4-0.3,0.7-0.5,1c-0.2,0.3-0.5,0.4-0.8,0.4c-0.2,0-0.4,0-0.7-0.1c-0.3-0.1-0.6-0.2-0.9-0.3
		c-0.3-0.1-0.6-0.2-0.9-0.3c-0.3-0.1-0.5-0.2-0.7-0.3c-0.1-0.1-0.3-0.1-0.3-0.1s-0.2,0-0.3,0.1c-0.4,0.2-0.8,0.4-1.1,0.6
		c-0.4,0.2-0.7,0.4-1.1,0.5c-0.4,0.1-0.8,0.3-1.2,0.3c-0.4,0.1-0.9,0.1-1.4,0.1h-0.1c-0.2,0-0.4-0.1-0.5-0.3s-0.2-0.4-0.2-0.6
		c0-0.2,0.1-0.4,0.2-0.6C178,28.5,178.2,28.4,178.5,28.4L178.5,28.4z M181.1,32l1.4,1.1c0.1,0.1,0.1,0.1,0,0.2l-0.9,1.2
		c-0.1,0.1-0.1,0.1-0.2,0l-1.4-1.1c-0.1-0.1-0.1-0.1,0-0.2l0.9-1.1C181,32,181,32,181.1,32z"/>
	<path class="st0" d="M192.2,15.6c0.1,0,0.1,0,0.1,0.1c0,0,0,0.1,0,0.1c0,0,0,0.1,0,0.1s0,0.1,0,0.1c0,0.3,0,0.6,0,0.8
		s0.1,0.5,0.1,0.8c0.1,0.7,0.2,1.4,0.3,2.1c0.1,0.7,0.2,1.4,0.3,2.1s0.2,1.4,0.3,2.1c0.1,0.7,0.2,1.4,0.3,2.1c0,0.3,0,0.6,0.1,0.9
		c0,0.4,0,0.7,0,1.1c0,0.4-0.1,0.7-0.1,1c-0.1,0.3-0.1,0.6-0.2,0.9c0,0.1-0.1,0.2-0.2,0.2c-0.1,0-0.1,0-0.1-0.1
		c-0.1-1.3-0.2-2.6-0.4-4c-0.2-1.4-0.4-2.8-0.6-4.2c-0.2-1.4-0.4-2.8-0.5-4.2c0-0.3,0.1-0.7,0.3-1.1c0.1-0.2,0.2-0.4,0.2-0.6
		C192,15.9,192.1,15.7,192.2,15.6z"/>
	<path d="M205.4,19.2c-0.4,0.2-0.8,0.3-1.2,0.5s-0.8,0.4-1.3,0.5s-0.8,0.3-1.1,0.5c-0.3,0.2-0.6,0.3-0.8,0.4c-0.1,0-0.1,0-0.1,0
		c0,0,0-0.1,0-0.1c0-0.1,0.1-0.1,0.1-0.2c0.1-0.1,0.1-0.2,0.2-0.3s0.1-0.2,0.2-0.3c0.1-0.1,0.1-0.2,0.1-0.2c0.1-0.1,0.1-0.2,0.2-0.2
		l4.3-1.8c0.1-0.1,0.1,0,0.1,0.1c0,0.1-0.1,0.1-0.1,0.2c0,0.1-0.1,0.2-0.1,0.3c0,0.1-0.1,0.2-0.1,0.3s-0.1,0.2-0.1,0.2
		C205.6,19.1,205.5,19.1,205.4,19.2z"/>
	<path d="M206.3,28.1c-0.1,0.3-0.3,0.6-0.6,0.8c-0.3,0.2-0.6,0.3-1,0.3c-0.2,0-0.4-0.1-0.6-0.2c-0.2-0.1-0.3-0.2-0.5-0.4
		c-0.1-0.2-0.2-0.4-0.3-0.6c-0.1-0.2-0.1-0.4-0.1-0.7c0-0.2,0-0.3,0.1-0.5c0.1-0.2,0.1-0.4,0.2-0.6c0.1-0.2,0.2-0.4,0.3-0.7
		c0.1-0.2,0.2-0.4,0.4-0.6c0.1-0.2,0.3-0.3,0.4-0.4c0.1-0.1,0.3-0.2,0.5-0.2c0.3,0,0.6,0.1,0.8,0.3c0.3,0.2,0.5,0.5,0.7,0.9
		c0.2,0.4,0.3,0.8,0.4,1.2c0.1,0.4,0.2,0.8,0.1,1.3c0,0.5-0.1,1.1-0.2,1.7s-0.3,1.2-0.5,1.7c-0.2,0.6-0.5,1.1-0.7,1.6
		s-0.6,0.9-0.9,1.3c-0.3,0.3-0.6,0.6-1,0.8s-0.7,0.4-1.1,0.5c-0.4,0.1-0.8,0.2-1.2,0.3s-0.8,0.1-1.2,0c-0.5,0-0.9-0.1-1.3-0.1
		c-0.4-0.1-0.9-0.2-1.3-0.3c-0.1,0-0.1-0.1-0.1-0.1c0-0.1,0-0.1,0-0.2c0-0.1,0.1-0.1,0.1-0.1s0.1-0.1,0.3,0c0.6,0.1,1.2,0.1,1.8,0
		c0.6-0.1,1.2-0.2,1.7-0.4c0.5-0.2,0.9-0.4,1.3-0.7c0.4-0.3,0.8-0.6,1.2-0.9c0.3-0.3,0.6-0.6,0.8-0.9c0.3-0.3,0.5-0.7,0.7-1
		c0.2-0.4,0.4-0.7,0.6-1.1s0.3-0.7,0.3-1c0-0.1,0-0.1,0-0.2c0-0.1,0-0.2,0-0.3s0-0.2-0.1-0.2C206.3,28.2,206.3,28.2,206.3,28.1z
		 M205.9,27.1c0-0.1,0-0.1-0.1-0.2c-0.1-0.1-0.1-0.2-0.2-0.3c-0.1-0.1-0.2-0.2-0.3-0.3c-0.1-0.1-0.3-0.1-0.4-0.1
		c-0.1,0-0.2,0.1-0.3,0.1c-0.1,0.1-0.2,0.2-0.2,0.3c-0.1,0.1-0.1,0.2-0.1,0.3c0,0.1,0,0.2,0,0.2c0.1,0.1,0.2,0.3,0.4,0.3
		c0.2,0.1,0.3,0.1,0.5,0.1c0.2,0,0.4-0.1,0.5-0.1C205.7,27.3,205.8,27.2,205.9,27.1z"/>
	<path d="M218.3,14.5c-0.1,0-0.1-0.1,0-0.1c0.1-0.1,0.2-0.2,0.3-0.2c0.2-0.2,0.5-0.3,0.7-0.5c0.2-0.1,0.5-0.3,0.7-0.5
		c0.2-0.2,0.5-0.3,0.7-0.5s0.4-0.4,0.7-0.6c-0.2-0.1-0.4-0.2-0.6-0.3c-0.2-0.1-0.4-0.3-0.5-0.4c-0.1-0.1-0.1-0.2-0.1-0.3
		c0-0.1,0-0.3,0-0.4c0.1-0.2,0.2-0.4,0.3-0.6c0.1-0.2,0.2-0.4,0.4-0.6c0.1-0.2,0.3-0.3,0.5-0.4s0.4-0.2,0.6-0.1
		c0.1,0,0.3,0.1,0.4,0.2c0.1,0.1,0.2,0.2,0.2,0.4c0.1,0.1,0.1,0.3,0.1,0.5c0,0.2,0,0.4,0,0.5s0,0.3,0,0.5c0,0.2,0,0.3-0.1,0.3
		c0,0,0,0.1,0.1,0.1c0.1,0.1,0.2,0.1,0.2,0.1s0.1,0.1,0.1,0.2c0,0.1,0,0.2,0,0.4s-0.1,0.3-0.1,0.4c-0.1,0.1-0.1,0.1-0.2,0.1
		c-0.1,0-0.1,0-0.1-0.1c0-0.1-0.1-0.1-0.1-0.1c0,0-0.1-0.1-0.1-0.1c-0.2,0.3-0.5,0.5-0.7,0.8c-0.2,0.2-0.4,0.4-0.7,0.6
		c-0.2,0.2-0.5,0.3-0.7,0.4s-0.6,0.3-0.9,0.4c-0.1,0-0.3,0.1-0.4,0.1C218.5,14.5,218.3,14.6,218.3,14.5z M220.7,10.4
		c0.1,0.2,0.3,0.4,0.5,0.5c0.2,0.1,0.4,0.2,0.6,0.3h0c0-0.1,0-0.1,0-0.2c0-0.1,0-0.2,0-0.3s0-0.2,0-0.3c0-0.1-0.1-0.2-0.1-0.2
		c-0.1-0.1-0.1-0.1-0.2-0.1c-0.1,0-0.2,0-0.3,0.1c-0.1,0-0.2,0.1-0.3,0.2C220.7,10.3,220.7,10.3,220.7,10.4z"/>
	<path d="M222.4,29.3c-0.1-1-0.2-1.9-0.4-2.8c-0.1-0.9-0.3-1.8-0.4-2.7s-0.3-1.8-0.4-2.7c-0.1-0.9-0.3-1.8-0.4-2.8
		c0-0.3-0.1-0.6-0.1-0.9c0-0.3-0.2-0.6-0.3-0.9c-0.1-0.1-0.1-0.1-0.1-0.2c0,0,0-0.1,0.1-0.2c0.1-0.2,0.2-0.4,0.3-0.7
		c0.1-0.2,0.2-0.4,0.3-0.6c0-0.1,0.1-0.1,0.1-0.1c0,0,0.1,0,0.1,0.1c0.1,0.2,0.1,0.4,0.2,0.6c0.1,0.2,0.2,0.4,0.3,0.6
		c0.1,0.2,0.2,0.3,0.4,0.5s0.3,0.3,0.5,0.4c-0.1,0.2-0.2,0.3-0.3,0.5c-0.1,0.1-0.1,0.2-0.2,0.4c-0.1,0.1-0.1,0.2-0.1,0.3
		c0,0.1,0,0.2,0,0.3c0,0.2,0.1,0.6,0.1,1.2c0,0.3,0.1,0.6,0.1,0.8c0,0.2,0.1,0.4,0.1,0.5c0.1,0.4,0.1,0.8,0.2,1.3s0.1,1.1,0.2,1.6
		c0,0.3,0.1,0.7,0.1,1.1c0.1,0.5,0.1,1.1,0.2,1.7c0.2,1.4,0.2,2.1,0.2,2.1c0,0.7-0.2,1.3-0.5,1.8c-0.3,0.6-0.7,1-1.2,1.4
		c-0.5,0.4-1,0.7-1.7,0.9c-0.6,0.2-1.3,0.3-1.9,0.3c-0.6,0-1.2-0.1-1.7-0.3c-0.5-0.2-1-0.5-1.4-0.8s-0.7-0.8-0.9-1.3
		s-0.3-1.1-0.3-1.7c0-0.7,0.1-1.3,0.3-2c0.2-0.6,0.5-1.3,0.9-1.8c0-0.1,0.1-0.1,0.1-0.1c0,0,0.1,0,0.1,0.1c0,0,0,0.1,0,0.1
		c0,0,0,0.1,0,0.1c-0.4,0.7-0.6,1.4-0.7,2.1c-0.1,0.7,0,1.3,0.2,1.9c0.1,0.3,0.3,0.6,0.5,0.8c0.2,0.2,0.4,0.5,0.7,0.6
		c0.3,0.2,0.6,0.3,1,0.4c0.4,0.1,0.8,0.1,1.2,0.1c0.4,0,0.8,0,1.3-0.1s0.8-0.2,1.2-0.4c0.4-0.2,0.7-0.4,1.1-0.7
		S222.1,29.7,222.4,29.3z"/>
	<path d="M224.7,17c0.1-0.3,0.1-0.5,0.3-0.8c0.1-0.3,0.2-0.5,0.3-0.8c0,0,0-0.1,0.1-0.1c0,0,0.1,0,0.1,0.1c0.1,0.4,0.2,0.9,0.3,1.3
		c0.1,0.4,0.2,0.9,0.3,1.4c0.1,0.5,0.2,1.1,0.2,1.7c0.1,0.6,0.1,1.3,0.2,2c0.1,0.6,0.1,1.1,0.1,1.5c0,0.4,0.1,0.8,0.1,1.1
		c0,0.3,0.1,0.6,0.1,0.9c0,0.3,0.1,0.6,0.1,0.8c0.1,0.4,0.2,0.7,0.3,1c0.1,0.3,0.3,0.5,0.5,0.7s0.4,0.3,0.7,0.4
		c0.3,0.1,0.6,0.1,1,0.1h0.1c0.2,0,0.4,0.1,0.5,0.3s0.2,0.4,0.2,0.6s-0.1,0.4-0.2,0.6s-0.3,0.3-0.5,0.3h-0.1c-0.6,0-1.1-0.1-1.5-0.3
		c-0.4-0.2-0.7-0.4-1-0.8s-0.5-0.7-0.6-1.1s-0.2-0.9-0.3-1.4c-0.1-0.4-0.1-0.9-0.2-1.3c-0.1-0.5-0.1-0.9-0.1-1.4
		c0-0.4-0.1-0.9-0.1-1.3c0-0.4-0.1-0.8-0.1-1.2c-0.1-0.7-0.2-1.4-0.3-2.1s-0.3-1.4-0.5-2.2c0-0.1,0-0.1,0-0.1
		C224.7,17.1,224.7,17,224.7,17z"/>
	<path d="M235.5,17.5c-0.4,0.2-0.8,0.3-1.2,0.5s-0.8,0.4-1.3,0.5s-0.8,0.3-1.1,0.5c-0.3,0.2-0.6,0.3-0.8,0.4c-0.1,0-0.1,0-0.1,0
		c0,0,0-0.1,0-0.1c0-0.1,0.1-0.1,0.1-0.2c0.1-0.1,0.1-0.2,0.2-0.3s0.1-0.2,0.2-0.3c0.1-0.1,0.1-0.2,0.1-0.2c0.1-0.1,0.1-0.2,0.2-0.2
		l4.3-1.8c0.1-0.1,0.1,0,0.1,0.1c0,0.1-0.1,0.1-0.1,0.2c0,0.1-0.1,0.2-0.1,0.3c0,0.1-0.1,0.2-0.1,0.3s-0.1,0.2-0.1,0.2
		C235.6,17.4,235.5,17.5,235.5,17.5z"/>
	<path d="M236.2,29.7c0,0.1-0.1,0.2-0.1,0.2c0,0.1-0.1,0.2-0.1,0.3c0,0.1-0.1,0.1-0.1,0.2c0,0.1-0.1,0.1-0.1,0.1c-0.2,0-0.4,0-0.6,0
		s-0.5-0.1-0.7-0.1c-0.3-0.1-0.5-0.2-0.8-0.3c-0.3-0.1-0.5-0.2-0.7-0.4c-0.2-0.1-0.4-0.3-0.5-0.4c-0.1-0.1-0.2-0.3-0.2-0.5
		c-0.2,0.3-0.4,0.5-0.6,0.7c-0.2,0.2-0.5,0.3-0.7,0.4c-0.2,0.1-0.5,0.2-0.7,0.2c-0.2,0-0.4,0.1-0.7,0.1h-0.2c-0.2,0-0.4-0.1-0.5-0.3
		s-0.2-0.4-0.2-0.6s0.1-0.4,0.2-0.6s0.3-0.3,0.5-0.3h0.2c0.3,0,0.6,0,0.8,0c0.3,0,0.5-0.1,0.8-0.1c0.3-0.1,0.5-0.2,0.8-0.4
		s0.5-0.4,0.7-0.7c0.1-0.2,0.3-0.3,0.4-0.5c0.1-0.2,0.3-0.3,0.4-0.4c0.1-0.1,0.3-0.2,0.4-0.3c0.1-0.1,0.3-0.1,0.4-0.1
		s0.3,0.1,0.4,0.2c0.2,0.1,0.3,0.3,0.5,0.4c0.2,0.2,0.3,0.3,0.5,0.5c0.1,0.2,0.3,0.3,0.4,0.4c0.4,0.4,0.8,0.6,1.2,0.7
		c0.4,0.1,0.9,0.2,1.4,0.2h0.2c0.2,0,0.4,0.1,0.5,0.3c0.1,0.2,0.2,0.4,0.2,0.6s-0.1,0.4-0.2,0.6c-0.1,0.2-0.3,0.3-0.5,0.3h-0.2
		c-0.4,0-0.9,0-1.3-0.1C236.9,30,236.5,29.9,236.2,29.7z M233,27.8c0.2,0.1,0.4,0.2,0.6,0.3c0.2,0.1,0.4,0.2,0.6,0.3
		c0.2,0.1,0.3,0.1,0.5,0.2s0.3,0.1,0.4,0.1c0,0,0.1,0,0.1,0c0,0,0,0,0-0.1c-0.1-0.1-0.2-0.3-0.3-0.4c-0.1-0.2-0.2-0.3-0.2-0.4
		c-0.1-0.1-0.1-0.3-0.2-0.4c0-0.1-0.1-0.2-0.1-0.2c-0.1-0.1-0.2-0.2-0.3-0.2c-0.1,0-0.3,0.1-0.5,0.2c-0.2,0.1-0.4,0.3-0.5,0.4
		C233,27.6,232.9,27.6,233,27.8C232.9,27.7,233,27.7,233,27.8z"/>
	<path d="M241,11.6c0,0.3,0,0.5-0.1,0.8c-0.1,0.2-0.2,0.5-0.3,0.6c-0.1,0.2-0.3,0.3-0.5,0.4s-0.5,0.2-0.8,0.2c-0.4,0-0.7-0.1-1-0.4
		c-0.3-0.2-0.4-0.6-0.4-1c0-0.2,0-0.5,0.1-0.8c0.1-0.3,0.2-0.6,0.3-0.9c0.1-0.3,0.3-0.5,0.5-0.7c0.2-0.2,0.5-0.3,0.8-0.4
		c0.3,0,0.5,0,0.7,0.2c0.2,0.1,0.3,0.3,0.4,0.5c0.1,0.2,0.2,0.4,0.2,0.7S241,11.4,241,11.6z M239.4,10.8c-0.1,0-0.2,0.1-0.4,0.2
		c-0.1,0.1-0.2,0.2-0.3,0.3c-0.1,0.1-0.2,0.2-0.2,0.4c-0.1,0.1-0.1,0.2-0.1,0.4s0,0.2,0.1,0.3c0.1,0.1,0.2,0.1,0.3,0.2
		c0.1,0,0.2,0.1,0.3,0.1c0.1,0,0.2,0,0.3,0c0.4,0,0.8-0.2,1.1-0.5c0-0.1,0-0.3,0-0.4c0-0.1-0.1-0.3-0.2-0.4
		c-0.1-0.1-0.2-0.2-0.4-0.3C239.7,10.8,239.6,10.7,239.4,10.8z"/>
	<path d="M239.7,15c0-0.1,0.1-0.1,0.1-0.1c0,0,0.1,0,0.1,0.1c0.1,0.2,0.1,0.4,0.2,0.5c0.1,0.2,0.2,0.4,0.3,0.6
		c0.1,0.2,0.2,0.3,0.4,0.5c0.1,0.2,0.3,0.3,0.5,0.4c-0.1,0.2-0.2,0.3-0.3,0.5c-0.1,0.1-0.1,0.3-0.2,0.4c-0.1,0.1-0.1,0.2-0.1,0.3
		c0,0.1,0,0.2,0,0.3c0.1,0.7,0.2,1.4,0.3,2.2s0.2,1.4,0.3,2.2c0.1,0.7,0.2,1.4,0.3,2.2s0.1,1.4,0.2,2.2c0,0.2,0,0.5,0,0.7
		s-0.1,0.5-0.2,0.7s-0.2,0.4-0.3,0.6c-0.1,0.2-0.3,0.4-0.4,0.5c-0.2,0.2-0.5,0.3-0.8,0.4c-0.3,0.1-0.7,0.1-1.2,0.1h-0.2
		c-0.2,0-0.4-0.1-0.5-0.3c-0.1-0.2-0.2-0.4-0.2-0.6s0.1-0.4,0.2-0.6c0.1-0.2,0.3-0.3,0.5-0.3h0.2c0.2,0,0.5,0,0.7,0
		c0.2,0,0.4-0.1,0.6-0.1c0.2,0,0.4-0.1,0.5-0.2s0.2-0.2,0.3-0.3c-0.1-1.6-0.3-3.1-0.6-4.7c-0.2-1.5-0.5-3.1-0.7-4.6
		c0-0.3-0.1-0.6-0.1-0.9c0-0.3-0.2-0.6-0.3-0.9c-0.1-0.1-0.1-0.1-0.1-0.2c0,0,0-0.1,0.1-0.2c0.1-0.2,0.2-0.4,0.4-0.7
		S239.6,15.2,239.7,15z"/>
	<path d="M244.9,15.6c0.1,0,0.1,0,0.1,0.1c0,0,0,0.1,0,0.1c0,0,0,0.1,0,0.1s0,0.1,0,0.1c0,0.3,0,0.6,0,0.8s0.1,0.5,0.1,0.8
		c0.1,0.7,0.2,1.4,0.3,2.1c0.1,0.7,0.2,1.4,0.3,2.1s0.2,1.4,0.3,2.1c0.1,0.7,0.2,1.4,0.3,2.1c0,0.3,0,0.6,0.1,0.9c0,0.4,0,0.7,0,1.1
		c0,0.4-0.1,0.7-0.1,1c-0.1,0.3-0.1,0.6-0.2,0.9c0,0.1-0.1,0.2-0.2,0.2c-0.1,0-0.1,0-0.1-0.1c-0.1-1.3-0.2-2.6-0.4-4
		c-0.2-1.4-0.4-2.8-0.6-4.2c-0.2-1.4-0.4-2.8-0.5-4.2c0-0.3,0.1-0.7,0.3-1.1c0.1-0.2,0.2-0.4,0.2-0.6
		C244.8,15.9,244.8,15.7,244.9,15.6z"/>
</g>
<g>
	<path d="M263.8,24.6c0,0.1-0.1,0.3-0.2,0.4c-0.2,0.2-0.4,0.4-0.8,0.6c0,0.4-0.1,0.7-0.2,1.1c-0.1,0.3-0.2,0.5-0.3,0.5
		c-0.4-0.4-0.7-0.7-1.1-1c-0.4-0.3-0.8-0.5-1.2-0.5c0,0.4,0.2,0.8,0.6,1.2c0.3,0.3,0.6,0.7,0.9,1c0,0.2-0.3,0.3-1,0.5
		c-0.5,0.1-0.9,0.1-1.2,0.1c-0.5,1.4-1.1,2.7-2,3.9c-0.4,0.5-0.9,1.1-1.5,1.7c-0.8,0.8-1.4,1.2-1.8,1.2c-0.1,0-0.2-0.1-0.2-0.2
		c0-0.1,0.2-0.4,0.7-0.9c0.7-0.8,1.2-1.4,1.5-2.1c0.6-1.1,1-2.3,1.2-3.7c-0.4-0.1-0.7-0.1-0.8-0.2c-0.1-0.1-0.2-0.1-0.2-0.3
		c0.9-0.8,1.4-1.5,1.4-2.2c-0.4,0-0.8,0.2-1.2,0.5c-0.2,0.2-0.6,0.6-1,1c-0.1,0-0.2-0.2-0.4-0.5c-0.1-0.4-0.2-0.7-0.2-1.1
		c-0.4-0.2-0.6-0.4-0.7-0.4c-0.3-0.2-0.4-0.4-0.4-0.6c0-0.1,0.1-0.3,0.2-0.4c0.1-0.1,0.4-0.3,0.8-0.5c0-1.1,0.2-1.6,0.6-1.6
		c0.8,0.9,1.5,1.3,2.2,1.4c0-0.3-0.2-0.8-0.5-1.2c0,0-0.3-0.4-0.9-1c0-0.1,0.1-0.2,0.2-0.2c0.2-0.1,0.4-0.1,0.9-0.2
		c-0.2-1.1-0.6-2.2-1.3-3.3c-0.6-1.1-1.4-2.1-2.2-2.8c-0.1-0.1-0.2-0.2-0.2-0.3c0-0.1,0.1-0.2,0.3-0.2c0.3,0,0.7,0.2,1.3,0.6
		c1.8,1.3,3.2,3.2,4.1,5.8c1.4,0,2.1,0.2,2.1,0.6c-0.4,0.3-0.7,0.7-0.9,1c-0.3,0.4-0.4,0.8-0.4,1.2c0.3,0,0.7-0.2,1-0.5l1.1-1
		c0.2,0,0.4,0.5,0.5,1.4c0,0.1,0,0.2,0,0.3C263.4,24,263.8,24.3,263.8,24.6z M260.6,21.3c0,0-0.1-0.1-0.4-0.1
		c-0.2,0-0.4-0.1-0.5-0.1h-0.4c-0.1,0-0.2,0-0.3,0.1c-0.4-1.2-0.9-2.4-1.7-3.5c-0.9-1.2-1.8-2.2-3-3c0.8,0.7,1.4,1.6,2,2.6
		c0.7,1.2,1.2,2.5,1.4,3.8c-0.5,0-0.8,0.1-0.8,0.2c0.6,0.5,1,1,1.3,1.5c0.1-0.2,0.2-0.5,0.3-0.7c0,0,0.1-0.1,0.1-0.3
		c0.1-0.2,0.1-0.3,0.2-0.3c0.2,0,0.4,0.5,0.7,1.4c0.2-0.3,0.3-0.7,0.6-0.9C260.2,21.8,260.3,21.6,260.6,21.3z M257.2,25.4
		c-0.1-0.1-0.5-0.2-1.1-0.4c-0.4-0.1-0.6-0.2-0.6-0.3c0,0,0.3-0.2,0.9-0.4c0.1-0.1,0.4-0.2,0.7-0.3c-0.3-0.1-0.7-0.3-1-0.5
		c-0.1-0.1-0.4-0.3-0.7-0.6c-0.1,0-0.2,0.4-0.2,1.2c-0.6,0.3-0.9,0.6-0.9,0.7c0,0.2,0.3,0.3,0.9,0.6c0,0.8,0.1,1.3,0.3,1.3
		c0,0,0.2-0.2,0.6-0.5C256.6,25.7,257,25.5,257.2,25.4z M260.7,27.9c-0.5-0.4-0.9-0.9-1.2-1.4c-0.1,0.2-0.2,0.4-0.3,0.7
		c0,0-0.1,0.2-0.2,0.4c-0.1,0.2-0.2,0.3-0.2,0.3c0,0-0.1-0.1-0.2-0.3c-0.1-0.2-0.1-0.3-0.2-0.3c0-0.1-0.1-0.3-0.3-0.7
		c-0.1,0.3-0.3,0.6-0.5,0.8c-0.2,0.2-0.4,0.4-0.6,0.6c0,0.1,0.3,0.1,0.8,0.3c-0.3,1.3-0.5,2.1-0.6,2.4c-0.5,1.4-1.3,2.8-2.4,4.1
		c1.9-1.3,3.3-3.4,4.3-6.5c0.7,0,1,0,0.9,0C260.4,28.1,260.7,28.1,260.7,27.9z M260.1,24.7c0-0.4-0.1-0.7-0.4-0.9
		c-0.2-0.2-0.6-0.3-0.9-0.3c-0.3,0-0.6,0.1-0.9,0.4c-0.3,0.2-0.4,0.5-0.4,0.9c0,0.4,0.1,0.7,0.4,0.9c0.3,0.2,0.6,0.4,0.9,0.4
		c0.4,0,0.7-0.1,0.9-0.4C260,25.3,260.1,25,260.1,24.7z M263.2,24.6c0-0.1-0.1-0.2-0.2-0.3c-0.2-0.1-0.4-0.2-0.7-0.3
		c0-0.4,0-0.7-0.1-0.9c-0.1-0.2-0.1-0.4-0.2-0.4c0,0-0.2,0.2-0.5,0.5c-0.3,0.3-0.7,0.6-1.1,0.7c0.2,0.1,0.4,0.2,0.8,0.4
		c0,0,0.2,0.1,0.6,0.2c0.3,0.1,0.4,0.2,0.4,0.2c0,0.1-0.2,0.2-0.6,0.3c-0.6,0.2-1,0.3-1.1,0.3c0.4,0.1,0.7,0.3,1,0.5
		c0.1,0.1,0.4,0.3,0.6,0.6c0.1,0,0.1-0.1,0.2-0.3c0-0.1,0-0.4,0-0.8C262.9,25,263.2,24.7,263.2,24.6z"/>
</g>
<g>
	<path d="M16,23.3c0-0.1,0.1-0.3,0.2-0.4c0.2-0.2,0.4-0.4,0.8-0.6c0-0.4,0.1-0.7,0.2-1.1c0.1-0.3,0.2-0.5,0.3-0.5
		c0.4,0.4,0.7,0.7,1.1,1c0.4,0.3,0.8,0.5,1.2,0.5c0-0.4-0.2-0.8-0.6-1.2c-0.3-0.3-0.6-0.7-0.9-1c0-0.2,0.3-0.3,1-0.5
		c0.5-0.1,0.9-0.1,1.2-0.1c0.5-1.4,1.1-2.7,2-3.9c0.4-0.5,0.9-1.1,1.5-1.7c0.8-0.8,1.4-1.2,1.8-1.2c0.1,0,0.2,0.1,0.2,0.2
		c0,0.1-0.2,0.4-0.7,0.9c-0.7,0.8-1.2,1.4-1.5,2.1c-0.6,1.1-1,2.3-1.2,3.7c0.4,0.1,0.7,0.1,0.8,0.2c0.1,0.1,0.2,0.1,0.2,0.3
		c-0.9,0.8-1.4,1.5-1.4,2.2c0.4,0,0.8-0.2,1.2-0.5c0.2-0.2,0.6-0.6,1-1c0.1,0,0.2,0.2,0.4,0.5c0.1,0.4,0.2,0.7,0.2,1.1
		c0.4,0.2,0.6,0.4,0.7,0.4c0.3,0.2,0.4,0.4,0.4,0.6c0,0.1-0.1,0.3-0.2,0.4c-0.1,0.1-0.4,0.3-0.8,0.5c0,1.1-0.2,1.6-0.6,1.6
		c-0.8-0.9-1.5-1.3-2.2-1.4c0,0.3,0.2,0.8,0.5,1.2c0,0,0.3,0.4,0.9,1c0,0.1-0.1,0.2-0.2,0.2c-0.2,0.1-0.4,0.1-0.9,0.2
		c0.2,1.1,0.6,2.2,1.3,3.3c0.6,1.1,1.4,2.1,2.2,2.8c0.1,0.1,0.2,0.2,0.2,0.3s-0.1,0.2-0.3,0.2c-0.3,0-0.7-0.2-1.3-0.6
		c-1.8-1.3-3.2-3.2-4.1-5.8c-1.4,0-2.1-0.2-2.1-0.6c0.4-0.3,0.7-0.7,0.9-1c0.3-0.4,0.4-0.8,0.4-1.2c-0.3,0-0.7,0.2-1,0.5l-1.1,1
		c-0.2,0-0.4-0.5-0.5-1.4c0-0.1,0-0.2,0-0.3C16.4,23.9,16,23.6,16,23.3z M19.2,26.6c0,0,0.1,0.1,0.4,0.1c0.2,0,0.4,0.1,0.5,0.1h0.4
		c0.1,0,0.2,0,0.3-0.1c0.4,1.2,0.9,2.4,1.7,3.5c0.9,1.2,1.8,2.2,3,3c-0.8-0.7-1.4-1.6-2-2.6c-0.7-1.2-1.2-2.5-1.4-3.8
		c0.5,0,0.8-0.1,0.8-0.2c-0.6-0.5-1-1-1.3-1.5c-0.1,0.2-0.2,0.5-0.3,0.7c0,0-0.1,0.1-0.1,0.3c-0.1,0.2-0.1,0.3-0.2,0.3
		c-0.2,0-0.4-0.5-0.7-1.4c-0.2,0.3-0.3,0.7-0.6,0.9C19.6,26.1,19.5,26.3,19.2,26.6z M22.6,22.5c0.1,0.1,0.5,0.2,1.1,0.4
		c0.4,0.1,0.6,0.2,0.6,0.3c0,0-0.3,0.2-0.9,0.4c-0.1,0.1-0.4,0.2-0.7,0.3c0.3,0.1,0.7,0.3,1,0.5c0.1,0.1,0.4,0.3,0.7,0.6
		c0.1,0,0.2-0.4,0.2-1.2c0.6-0.3,0.9-0.6,0.9-0.7c0-0.2-0.3-0.3-0.9-0.6c0-0.8-0.1-1.3-0.3-1.3c0,0-0.2,0.2-0.6,0.5
		C23.2,22.2,22.8,22.4,22.6,22.5z M19.1,20c0.5,0.4,0.9,0.9,1.2,1.4c0.1-0.2,0.2-0.4,0.3-0.7c0,0,0.1-0.2,0.2-0.4
		c0.1-0.2,0.2-0.3,0.2-0.3c0,0,0.1,0.1,0.2,0.3c0.1,0.2,0.1,0.3,0.2,0.3c0,0.1,0.1,0.3,0.3,0.7c0.1-0.3,0.3-0.6,0.5-0.8
		c0.2-0.2,0.4-0.4,0.6-0.6c0-0.1-0.3-0.1-0.8-0.3c0.3-1.3,0.5-2.1,0.6-2.4c0.5-1.4,1.3-2.8,2.4-4.1c-1.9,1.3-3.3,3.4-4.3,6.5
		c-0.7,0-1,0-0.9,0C19.4,19.8,19.1,19.8,19.1,20z M19.7,23.2c0,0.4,0.1,0.7,0.4,0.9c0.2,0.2,0.6,0.3,0.9,0.3c0.3,0,0.6-0.1,0.9-0.4
		c0.3-0.2,0.4-0.5,0.4-0.9c0-0.4-0.1-0.7-0.4-0.9c-0.3-0.2-0.6-0.4-0.9-0.4c-0.4,0-0.7,0.1-0.9,0.4C19.8,22.6,19.7,22.9,19.7,23.2z
		 M16.6,23.3c0,0.1,0.1,0.2,0.2,0.3s0.4,0.2,0.7,0.3c0,0.4,0,0.7,0.1,0.9c0.1,0.2,0.1,0.4,0.2,0.4c0,0,0.2-0.2,0.5-0.5
		c0.3-0.3,0.7-0.6,1.1-0.7c-0.2-0.1-0.4-0.2-0.8-0.4c0,0-0.2-0.1-0.6-0.2c-0.3-0.1-0.4-0.2-0.4-0.2c0-0.1,0.2-0.2,0.6-0.3
		c0.6-0.2,1-0.3,1.1-0.3c-0.4-0.1-0.7-0.3-1-0.5c-0.1-0.1-0.4-0.3-0.6-0.6c-0.1,0-0.1,0.1-0.2,0.3c0,0.1,0,0.4,0,0.8
		C16.9,22.9,16.6,23.2,16.6,23.3z"/>
</g>
</svg>
