<?xml version="1.0" encoding="utf-8"?>
<!-- Generator: Adobe Illustrator 22.0.1, SVG Export Plug-In . SVG Version: 6.00 Build 0)  -->
<svg version="1.1" id="Layer_1" xmlns="http://www.w3.org/2000/svg" xmlns:xlink="http://www.w3.org/1999/xlink" x="0px" y="0px"
	 viewBox="0 0 175.5 45" style="enable-background:new 0 0 175.5 45;" xml:space="preserve">
<style type="text/css">
	.st0{fill:#542C0B;}
</style>
<g>
	<path class="st0" d="M34.7,17H33c-0.8,1.2-1.5,2.4-2,3.8c-0.6,1.6-0.9,3.3-0.9,5.1c0,1.4,0.2,2.9,0.7,4.5c0.5,1.5,1.2,3,2.2,4.5
		h1.8c-0.5-1.2-0.9-2.1-1.1-2.7c-0.3-1-0.6-2-0.8-3C32.6,28,32.5,27,32.5,26c0-1.5,0.2-2.9,0.5-4.2S33.9,18.9,34.7,17z"/>
	<polygon class="st0" points="44,16.1 45.4,16.8 46.4,15.1 44.7,14.3 43.9,15.7 42.5,15 41.6,16.6 43.3,17.6 	"/>
	<polygon class="st0" points="74.2,18.3 72,17.1 70.9,19.2 73.1,20.3 	"/>
	<path class="st0" d="M81.7,20c0.1-0.3,0.3-0.6,0.4-1s0.2-0.8,0.2-1.2c-0.5-0.2-0.9-0.4-1.1-0.6c-0.3-0.2-0.4-0.4-0.4-0.6
		s0-0.3,0-0.3l-0.4-0.2c-0.3,0.6-0.6,1.2-0.7,1.7c-0.1,0.4-0.2,0.7-0.2,1.1l0.6,0.4l1.1,6.3h-3.3c-0.5-0.1-0.9-0.2-1.1-0.4
		s-0.6-0.5-1.1-1c-0.7-0.7-1.2-1.3-1.6-1.6c-0.5-0.4-0.9-0.8-1.3-1s-0.8-0.3-1.2-0.3c-0.5,0-1,0.2-1.4,0.6s-0.8,0.9-1.1,1.7
		c0.3-0.1,0.4-0.1,0.6-0.1s0.3,0,0.4,0c0.5,0,1.1,0.2,1.7,0.5s1.3,0.9,2.1,1.7h-6c-0.1-0.7-0.3-1.5-0.7-2.3c-0.5-1-0.9-1.4-1.2-1.4
		c-0.3,0-0.8,0.2-1.2,0.7c-0.5,0.5-1,1.2-1.4,1.9c-0.2,0.4-0.5,0.7-0.9,0.9c-0.3,0.1-0.8,0.2-1.3,0.2H60v-1c0-0.5,0-0.9-0.1-1.2
		c-0.1-0.3-0.2-0.7-0.4-1.1l-0.8,1.1c-0.1,0.2-0.2,0.3-0.2,0.3c0,0.1-0.1,0.2-0.1,0.4c0,0.1,0.1,0.3,0.2,0.7
		c0.2,0.3,0.2,0.6,0.2,0.8c-0.3,0-0.6-0.1-0.9-0.2c-0.3-0.1-0.5-0.2-0.8-0.3c0.1-0.6,0.1-1,0.1-1.4c0-0.1,0-0.2,0-0.4
		c0-0.2,0-0.4,0-0.5l-0.4,0.3c-0.2,0.1-0.3,0.2-0.3,0.3c-0.1,0.1-0.1,0.3-0.1,0.4c0,0.7-0.2,1.2-0.6,1.4c-0.3,0.2-0.9,0.3-1.6,0.3
		h-1.1c-0.3,0-0.5-0.1-0.7-0.3s-0.3-0.5-0.3-0.8s0-0.6,0-0.8c0-0.3,0-0.5,0-0.7l-0.6-0.1c0,1-0.3,1.7-0.8,2.2
		c-0.4,0.4-1,0.5-1.6,0.5h-0.7h-0.6h-0.6c-0.3,0-0.5-0.1-0.6-0.3c-0.2-0.3-0.4-0.9-0.6-1.8l-0.9-5.8c-0.3,0.5-0.5,1-0.6,1.3
		c-0.1,0.4-0.2,0.7-0.2,0.9c0,0.1,0,0.2,0,0.3c0,0.1,0,0.2,0,0.3l-0.5,0.3c-0.4,0.3-0.8,0.5-1,0.6c-0.4,0.3-0.7,0.5-0.8,0.6
		c-0.2,0.2-0.5,0.8-0.9,1.6c-0.4,0.9-0.6,1.4-0.6,1.6c0,0.1,0.1,0.2,0.2,0.2s0.4,0.1,0.9,0.2l1.1,0.2c0.2,0,0.3,0.1,0.4,0.1
		c0.2,0,0.5-0.2,0.9-0.5c0.2-0.2,0.6-0.6,1-1.1c0.1,1.1,0.3,2,0.6,2.7c0.2,0.5,0.6,0.8,0.9,1c0.2,0.1,0.4,0.1,0.6,0.1h0.6h0.6H49
		c0.5,0,0.9-0.1,1.3-0.3c0.4-0.2,0.8-0.6,1.1-1.1c0.2,0.5,0.4,0.9,0.7,1.1c0.2,0.2,0.6,0.3,1,0.3h1.5c0.6,0,1,0,1.3-0.1
		s0.6-0.2,1-0.5c0.4,0.2,0.9,0.4,1.4,0.5c0.3,0.1,0.7,0.1,1.1,0.1l0,0h1.8c0.4,0,0.8,0,1-0.1c0.5-0.2,1-0.5,1.3-1.1
		c0.6,0.3,1.3,0.6,2,0.8c0.6,0.2,1.1,0.3,1.6,0.3v0.1H77h0.6h4.5v-2.5l-1-5.7L81.7,20z M44.3,23.3c-0.1,0.1-0.3,0.1-0.4,0.1
		c-0.2,0-0.4,0-0.6-0.1c-0.2,0-0.3-0.1-0.3-0.2s0.1-0.2,0.2-0.3c0.1-0.1,0.2-0.2,0.4-0.3c0.2-0.2,0.5-0.3,0.8-0.5
		c0.1-0.1,0.3-0.1,0.5-0.2l0.2,1.1C44.6,23.1,44.4,23.2,44.3,23.3z M66,25.4c-0.1,0-0.3-0.1-0.8-0.3c-0.2-0.1-0.4-0.2-0.7-0.3
		c0.2-0.6,0.4-0.8,0.6-0.8s0.5,0.2,0.8,0.6c0.3,0.3,0.4,0.6,0.4,0.7C66.2,25.4,66.2,25.4,66,25.4z"/>
	<path class="st0" d="M85.3,20.2l-0.6-3.3c-0.3,0.7-0.6,1.2-0.8,1.7c-0.2,0.5-0.3,0.8-0.3,1c0,0.1,0,0.4,0.1,0.7
		c0.2,1,0.4,1.8,0.5,2.6c0.1,0.7,0.2,1.4,0.2,2.2s0.1,1.3,0.1,1.7c0,0.5-0.1,1.1-0.2,1.9l0.6,0.2c0.4-0.8,0.6-1.4,0.8-1.8
		c0.1-0.5,0.2-1,0.2-1.5c0-0.6,0-1.3-0.1-2C85.6,22.5,85.5,21.4,85.3,20.2z"/>
	<path class="st0" d="M96.5,25.5c-0.6-0.3-1-0.6-1.3-0.8c-0.3-0.2-0.4-0.4-0.4-0.6c0-0.1,0.1-0.3,0.2-0.4c0.2-0.1,0.3-0.2,0.5-0.2
		s0.5,0.1,0.7,0.2s0.5,0.4,0.8,0.7l1.2-2.1c-0.4-0.5-0.8-0.8-1.1-1c-0.3-0.2-0.7-0.3-1.2-0.3s-0.9,0.2-1.2,0.5
		c-0.3,0.3-0.8,0.9-1.2,1.8c-0.5,0.9-0.7,1.5-0.7,1.8s0.1,0.5,0.3,0.8s0.6,0.7,1.2,1.3c-0.4,0.5-0.7,1-0.9,1.3
		c-0.2,0.4-0.3,0.8-0.3,1.2l0.6,0.2c0.6-0.7,1.1-1.2,1.4-1.4c0.5-0.4,1-0.8,1.6-1.1c0.6-0.3,1.4-0.6,2.4-0.8l0.7-2.1
		c-0.6,0.1-1.1,0.1-1.5,0.2C97.9,24.9,97.3,25.1,96.5,25.5z"/>
	<path class="st0" d="M124.1,22.4l-0.8,1.1c-0.1,0.2-0.2,0.3-0.2,0.3c0,0.1-0.1,0.2-0.1,0.4c0,0.1,0.1,0.3,0.2,0.7
		c0.2,0.3,0.2,0.6,0.2,0.8c-0.3,0-0.6-0.1-0.9-0.2s-0.5-0.2-0.8-0.3c0.1-0.6,0.1-1,0.1-1.4c0-0.1,0-0.2,0-0.4c0-0.2,0-0.4,0-0.5
		l-0.4,0.3c-0.2,0.1-0.3,0.2-0.3,0.3c-0.1,0.1-0.1,0.3-0.1,0.4c0,0.7-0.2,1.2-0.6,1.4c-0.3,0.2-0.9,0.3-1.6,0.3h-1.1
		c-0.3,0-0.5-0.1-0.7-0.3s-0.3-0.5-0.3-0.8s0-0.6,0-0.8c0-0.3,0-0.5,0-0.7l-0.6-0.1c0,1-0.3,1.7-0.8,2.2c-0.4,0.4-1,0.5-1.6,0.5H113
		c-0.1-0.7-0.3-1.5-0.7-2.3c-0.5-1-0.9-1.4-1.2-1.4c-0.3,0-0.8,0.2-1.2,0.7c-0.5,0.5-1,1.2-1.4,1.9c-0.2,0.4-0.5,0.7-0.9,0.9
		c-0.3,0.1-0.8,0.2-1.3,0.2h-1.2h-0.6h-0.6c-0.3,0-0.5-0.2-0.6-0.6c-0.2-0.5-0.3-1.4-0.3-2.7v-1.8c0-0.9-0.1-1.6-0.3-2.2
		c-0.1-0.5-0.4-1-0.8-1.5l-1,2.3c0.3,0.3,0.5,0.5,0.6,0.7c0.2,0.3,0.3,0.8,0.3,1.4v2.6c0,1.6,0.2,2.7,0.5,3.3
		c0.3,0.6,0.8,0.9,1.6,0.9h0.6h0.6h1.2c0.4,0,0.8,0,1-0.1c0.5-0.2,1-0.5,1.3-1.1c0.6,0.3,1.3,0.6,2,0.8c0.6,0.2,1.1,0.3,1.6,0.3V28
		h1.3c0.5,0,0.9-0.1,1.3-0.3c0.4-0.2,0.8-0.6,1.1-1.1c0.2,0.5,0.4,0.9,0.7,1.1c0.2,0.2,0.6,0.3,1,0.3h1.5c0.6,0,1,0,1.3-0.1
		s0.6-0.2,1-0.5c0.4,0.2,0.9,0.4,1.4,0.5s1,0.1,1.7,0.1v-3.5c0-0.5,0-0.9-0.1-1.2C124.4,23.1,124.3,22.8,124.1,22.4z M111.1,25.4
		c-0.1,0-0.3-0.1-0.8-0.3c-0.2-0.1-0.4-0.2-0.7-0.3c0.2-0.6,0.4-0.8,0.6-0.8s0.5,0.2,0.8,0.6c0.3,0.3,0.4,0.6,0.4,0.7
		C111.3,25.4,111.2,25.4,111.1,25.4z"/>
	<path class="st0" d="M125.1,16.9l2-0.6c0.1,0,0.2-0.1,0.3-0.2c0.1-0.1,0.2-0.2,0.2-0.4c-0.4,0.1-0.6,0.1-0.7,0.1s-0.3-0.1-0.6-0.3
		s-0.4-0.3-0.4-0.4C126,15,126,15,126.1,15c0.1-0.1,0.2-0.1,0.3-0.1s0.3,0.1,0.6,0.2c0.1-0.1,0.1-0.2,0.2-0.3c0-0.1,0-0.2,0-0.3
		s0-0.2-0.1-0.3s-0.2-0.1-0.3-0.1c-0.4,0-0.8,0.3-1.2,0.8c-0.1,0.1-0.1,0.2-0.2,0.3c0,0.1-0.1,0.2-0.1,0.3s0,0.2,0.1,0.3
		s0.2,0.2,0.4,0.3c-0.2,0.1-0.4,0.2-0.5,0.3C125.4,16.5,125.3,16.7,125.1,16.9z"/>
	<path class="st0" d="M131.7,16.9l-0.4-0.1c-0.2,0.4-0.3,0.8-0.4,1.2c-0.1,0.4-0.1,0.8-0.1,1.1c0,0.2,0,0.3,0.1,0.4s0.2,0.2,0.5,0.3
		c0,0.7,0,1.3-0.1,1.8c-0.1,0.8-0.3,1.5-0.6,2c-0.6-0.9-1.1-1.6-1.3-1.9c-0.3-0.4-0.7-0.9-1.1-1.3c-0.5-0.6-1.1-1.2-1.7-1.8
		c-0.7-0.7-1.2-1-1.5-1c-0.1,0-0.2,0.1-0.3,0.2c0,0.1-0.1,0.4-0.1,0.7c0,0.8,0.1,1.4,0.2,1.9s0.3,0.8,0.4,1c0.2,0.2,0.5,0.4,0.8,0.6
		c0.4,0.3,0.7,0.4,0.8,0.4c0,0,0.1,0,0.1-0.1s0.1-0.2,0.2-0.4c0.4,0.4,0.7,0.7,1,1c0.3,0.4,0.8,1,1.5,1.9c-0.4,0.5-0.8,0.9-1.1,1.1
		s-0.7,0.5-1.3,0.8v2.7c1.1,0,1.9,0,2.5-0.1s1.2-0.3,1.9-0.6c0.1-1.1,0.1-1.7,0.1-1.9v-0.3c0-0.2-0.1-0.5-0.2-0.8
		c-0.1-0.1-0.3-0.5-0.6-1.1c0.4-0.7,0.7-1.4,0.8-2.1s0.3-1.5,0.3-2.2l0.7,0.3c0.1-0.5,0.2-0.8,0.3-1c0.1-0.4,0.1-0.9,0.1-1.3
		c-0.8-0.3-1.3-0.4-1.5-0.5C131.8,17.6,131.7,17.3,131.7,16.9z M130.2,26.7c-0.2,0.1-0.5,0.1-1,0.2c0.4-0.3,0.6-0.5,0.8-0.6
		c0.1-0.1,0.4-0.3,0.6-0.6l0.4,0.7C130.7,26.5,130.4,26.7,130.2,26.7z"/>
	<path class="st0" d="M136.7,20.2l-0.6-3.3c-0.3,0.7-0.6,1.2-0.8,1.7s-0.3,0.8-0.3,1c0,0.1,0,0.4,0.1,0.7c0.2,1,0.4,1.8,0.5,2.6
		c0.1,0.7,0.2,1.4,0.2,2.2s0.1,1.3,0.1,1.7c0,0.5-0.1,1.1-0.2,1.9l0.6,0.2c0.4-0.8,0.6-1.4,0.8-1.8c0.1-0.5,0.2-1,0.2-1.5
		c0-0.6,0-1.3-0.1-2C137.1,22.5,136.9,21.4,136.7,20.2z"/>
	<path class="st0" d="M147.8,21.2c-0.5-1.5-1.2-2.9-2.2-4.2h-1.8c0.8,1.9,1.4,3.5,1.7,4.8s0.5,2.7,0.5,4.2c0,0.7,0,1.4-0.1,2.1
		s-0.2,1.4-0.4,2.2c-0.2,0.8-0.4,1.4-0.6,2s-0.6,1.4-1.1,2.5h1.8c1.1-1.6,1.8-3.3,2.3-4.9c0.4-1.5,0.6-2.9,0.6-4.2
		C148.5,24.3,148.3,22.7,147.8,21.2z"/>
</g>
</svg>
