<?xml version="1.0" encoding="utf-8"?>
<!-- Generator: Adobe Illustrator 22.0.1, SVG Export Plug-In . SVG Version: 6.00 Build 0)  -->
<svg version="1.1" id="Layer_1" xmlns="http://www.w3.org/2000/svg" xmlns:xlink="http://www.w3.org/1999/xlink" x="0px" y="0px"
	 viewBox="0 0 175.5 45" style="enable-background:new 0 0 175.5 45;" xml:space="preserve">
<style type="text/css">
	.st0{fill:#542C0B;}
</style>
<g>
	<path class="st0" d="M53,16.2h-1.8c-0.8,1.2-1.5,2.4-2,3.8c-0.6,1.6-0.9,3.3-0.9,5.1c0,1.4,0.2,2.9,0.7,4.5c0.5,1.5,1.2,3,2.2,4.5
		H53c-0.5-1.2-0.9-2.1-1.1-2.7c-0.3-1-0.6-2-0.8-3c-0.2-1.1-0.3-2.1-0.3-3.1c0-1.5,0.2-2.9,0.5-4.2S52.1,18,53,16.2z"/>
	<path class="st0" d="M70.7,20.6L70,22.8c0.3,0.4,0.6,0.7,0.6,0.8c0.2,0.3,0.3,0.6,0.4,1.1h-4.2h-0.6h-0.6c-0.3,0-0.5-0.1-0.6-0.3
		c-0.2-0.3-0.4-0.9-0.6-1.8l-0.9-5.8c-0.3,0.5-0.5,1-0.6,1.3c-0.1,0.4-0.2,0.7-0.2,0.9c0,0.1,0,0.2,0,0.3c0,0.1,0,0.2,0,0.3
		l-0.5,0.3c-0.4,0.3-0.8,0.5-1,0.6c-0.4,0.3-0.7,0.5-0.8,0.6c-0.2,0.2-0.5,0.8-0.9,1.6c-0.4,0.9-0.6,1.4-0.6,1.6
		c0,0.1,0.1,0.2,0.2,0.2s0.4,0.1,0.9,0.2l1.1,0.2c0.2,0,0.3,0.1,0.4,0.1c0.2,0,0.5-0.2,0.9-0.5c0.2-0.2,0.6-0.6,1-1.1
		c0.1,1.1,0.3,2,0.6,2.7c0.2,0.5,0.6,0.8,0.9,1c0.2,0.1,0.4,0.1,0.6,0.1h0.6h0.6h5.2v-2.4c0-1.1-0.1-2-0.3-2.6
		C71.5,21.7,71.2,21.2,70.7,20.6z M62.5,22.4c-0.1,0.1-0.3,0.1-0.4,0.1c-0.2,0-0.4,0-0.6-0.1c-0.2,0-0.3-0.1-0.3-0.2
		s0.1-0.2,0.2-0.3c0.1-0.1,0.2-0.2,0.4-0.3c0.2-0.2,0.5-0.3,0.8-0.5c0.1-0.1,0.3-0.1,0.5-0.2l0.2,1.1C62.9,22.2,62.7,22.4,62.5,22.4
		z"/>
	<polygon class="st0" points="67.7,30.1 69.9,31.3 71,29.2 68.8,28 	"/>
	<polygon class="st0" points="86.1,19.6 87.4,20.3 88.4,18.4 86.7,17.5 86,19 84.6,18.3 83.6,20.1 85.4,21 	"/>
	<path class="st0" d="M114.9,19.1c0.1-0.3,0.3-0.6,0.4-1s0.2-0.8,0.2-1.2c-0.5-0.2-0.9-0.4-1.1-0.6c-0.3-0.2-0.4-0.4-0.4-0.6
		c0-0.2,0-0.3,0-0.3l-0.4-0.2c-0.3,0.6-0.6,1.2-0.7,1.7c-0.1,0.4-0.2,0.7-0.2,1.1l0.6,0.4l1.1,6.3H111c-0.1-0.7-0.3-1.5-0.7-2.3
		c-0.5-1-0.9-1.4-1.2-1.4c-0.3,0-0.8,0.2-1.2,0.7c-0.5,0.5-1,1.2-1.4,1.9c-0.2,0.4-0.5,0.7-0.9,0.9c-0.3,0.1-0.8,0.2-1.3,0.2h-1.2
		l-1-5.7l0.3,0.1c0.1-0.3,0.3-0.6,0.4-1s0.2-0.8,0.2-1.2c-0.5-0.2-0.9-0.4-1.1-0.6c-0.3-0.2-0.4-0.4-0.4-0.6c0-0.2,0-0.3,0-0.3
		l-0.4-0.2c-0.3,0.6-0.6,1.2-0.7,1.7c-0.1,0.4-0.2,0.7-0.2,1.1l0.6,0.4l1.1,6.3h-3.3c-0.5-0.1-0.9-0.2-1.1-0.4s-0.6-0.5-1.1-1
		c-0.7-0.7-1.2-1.3-1.6-1.6c-0.5-0.4-0.9-0.8-1.3-1s-0.8-0.3-1.2-0.3c-0.5,0-1,0.2-1.4,0.6s-0.8,0.9-1.1,1.7
		c0.3-0.1,0.4-0.1,0.6-0.1s0.3,0,0.4,0c0.5,0,1.1,0.2,1.7,0.5s1.3,0.9,2.1,1.7h-6c-0.1-0.8-0.2-1.5-0.5-2.1c-0.4-1-0.9-1.4-1.6-1.4
		c-0.6,0-1.2,0.5-1.7,1.5c-0.5,0.9-0.7,1.8-0.7,2.7c0,0.6,0.2,1.1,0.6,1.4s0.9,0.5,1.6,0.5c0.3,0,0.8,0,1.4-0.1c0,0.1,0,0.2,0.1,0.3
		c0,0.1,0,0.2,0,0.3c0,0.6-0.5,1.2-1.5,1.7s-2.1,0.7-3.4,0.7c-1.4,0-2.5-0.2-3.3-0.6s-1.2-1-1.2-1.8c0-0.5,0.1-1.1,0.4-1.6
		s0.6-1.3,1.2-2.1l-0.6-0.4c-0.9,1.2-1.4,2.2-1.8,3c-0.3,0.7-0.4,1.6-0.4,2.5c0,1.1,0.5,1.9,1.4,2.4c0.9,0.6,2.2,0.8,4,0.8
		c2,0,3.6-0.4,4.8-1.3c0.5-0.4,0.8-0.8,1-1.2s0.2-1.2,0.2-2.4v-0.3h9.3h0.6h3.8h0.6h1.2c0.4,0,0.8,0,1-0.1c0.5-0.2,1-0.5,1.3-1.1
		c0.6,0.3,1.3,0.6,2,0.8c0.6,0.2,1.1,0.3,1.6,0.3v0.1h5.1v-2.5l-1-5.7L114.9,19.1z M86.7,24.8c-0.1,0-0.2,0-0.4,0
		c-0.5,0-0.8-0.2-0.8-0.6c0-0.2,0-0.3,0.1-0.4s0.2-0.1,0.4-0.1c0.2,0,0.4,0.1,0.6,0.2c0.2,0.2,0.3,0.4,0.5,0.8
		C86.9,24.8,86.8,24.8,86.7,24.8z M109.2,24.6c-0.1,0-0.3-0.1-0.8-0.3c-0.2-0.1-0.4-0.2-0.7-0.3c0.2-0.6,0.4-0.8,0.6-0.8
		s0.5,0.2,0.8,0.6c0.3,0.3,0.4,0.6,0.4,0.7C109.4,24.5,109.3,24.6,109.2,24.6z"/>
	<path class="st0" d="M118.5,19.3l-0.6-3.3c-0.3,0.7-0.6,1.2-0.8,1.7c-0.2,0.5-0.3,0.8-0.3,1c0,0.1,0,0.4,0.1,0.7
		c0.2,1,0.4,1.8,0.5,2.6c0.1,0.7,0.2,1.4,0.2,2.2s0.1,1.3,0.1,1.7c0,0.5-0.1,1.1-0.2,1.9l0.6,0.2c0.4-0.8,0.6-1.4,0.8-1.8
		c0.1-0.5,0.2-1,0.2-1.5c0-0.6,0-1.3-0.1-2C118.8,21.6,118.7,20.5,118.5,19.3z"/>
	<path class="st0" d="M129.5,20.4c-0.5-1.5-1.2-2.9-2.2-4.2h-1.8c0.8,1.9,1.4,3.5,1.7,4.8c0.3,1.3,0.5,2.7,0.5,4.2
		c0,0.7,0,1.4-0.1,2.1s-0.2,1.4-0.4,2.2c-0.2,0.8-0.4,1.4-0.6,2s-0.6,1.4-1.1,2.5h1.8c1.1-1.6,1.8-3.3,2.3-4.9
		c0.4-1.5,0.6-2.9,0.6-4.2C130.3,23.4,130,21.9,129.5,20.4z"/>
</g>
</svg>
