<?xml version="1.0" encoding="utf-8"?>
<!-- Generator: Adobe Illustrator 22.0.1, SVG Export Plug-In . SVG Version: 6.00 Build 0)  -->
<svg version="1.1" id="Layer_1" xmlns="http://www.w3.org/2000/svg" xmlns:xlink="http://www.w3.org/1999/xlink" x="0px" y="0px"
	 viewBox="0 0 175.5 45" style="enable-background:new 0 0 175.5 45;" xml:space="preserve">
<style type="text/css">
	.st0{fill:#542C0B;}
</style>
<g>
	<path class="st0" d="M33.4,17h-1.8c-0.8,1.2-1.5,2.4-2,3.8c-0.6,1.6-0.9,3.3-0.9,5.1c0,1.4,0.2,2.9,0.7,4.5c0.5,1.5,1.2,3,2.2,4.5
		h1.8c-0.5-1.2-0.9-2.1-1.1-2.7c-0.3-1-0.6-2-0.8-3c-0.2-1.1-0.3-2.1-0.3-3.1c0-1.5,0.2-2.9,0.5-4.2C32,20.4,32.6,18.8,33.4,17z"/>
	<path class="st0" d="M50,19.9c0.1-0.3,0.3-0.6,0.4-1c0.1-0.4,0.2-0.8,0.2-1.2c-0.5-0.2-0.9-0.4-1.1-0.6c-0.3-0.2-0.4-0.4-0.4-0.6
		s0-0.3,0-0.3L48.7,16c-0.3,0.6-0.6,1.2-0.7,1.7c-0.1,0.4-0.2,0.7-0.2,1.1l0.6,0.4l1.1,6.3h-3.3c-0.7-1-1.3-1.8-1.8-2.2
		c-0.5-0.5-1-0.7-1.4-0.7c-0.5,0-0.9,0.3-1.3,0.8c-0.4,0.5-0.7,1.2-1,2.2l0.4,0.2c0.3-0.4,0.6-0.7,0.7-0.8s0.3-0.2,0.5-0.2
		c0.4,0,0.8,0.3,1.3,1c-1,0.1-1.8,0.3-2.3,0.4c-0.5,0.2-0.8,0.4-1,0.7c-0.2,0.3-0.3,0.6-0.4,0.9c-0.2,0.4-0.2,0.8-0.2,1.1
		c0,0.2,0.1,0.6,0.3,1.2c0.3,1,0.5,1.7,0.6,2c0.2,0.9,0.4,1.8,0.5,2.6c0.2-0.3,0.4-0.6,0.5-0.9c0.1-0.3,0.1-0.6,0.1-1
		c0-0.6-0.1-1.2-0.3-1.8c-0.2-0.6-0.4-1.3-0.6-2.1c0-0.2,0.4-0.5,1.3-0.7c0.9-0.2,1.9-0.3,3-0.3h0.6l0,0h5.1v-2.5l-1-5.7L50,19.9z"
		/>
	<path class="st0" d="M66.2,22.3l-0.8,1.1c-0.1,0.2-0.2,0.3-0.2,0.3c0,0.1-0.1,0.2-0.1,0.4c0,0.1,0.1,0.3,0.2,0.7
		c0.2,0.3,0.2,0.6,0.2,0.8c-0.3,0-0.6-0.1-0.9-0.2s-0.5-0.2-0.8-0.3c0.1-0.6,0.1-1,0.1-1.4c0-0.1,0-0.2,0-0.4c0-0.2,0-0.4,0-0.5
		l-0.4,0.3c-0.2,0.1-0.3,0.2-0.3,0.3c-0.1,0.1-0.1,0.3-0.1,0.4c0,0.7-0.2,1.2-0.6,1.4c-0.3,0.2-0.9,0.3-1.6,0.3h-1.1
		c-0.3,0-0.5-0.1-0.7-0.3c-0.2-0.2-0.3-0.5-0.3-0.8s0-0.6,0-0.8c0-0.3,0-0.5,0-0.7l-0.6-0.1c0,1-0.3,1.7-0.8,2.2
		c-0.4,0.4-1,0.5-1.6,0.5h-0.7h-0.6h-0.6c-0.3,0-0.5-0.2-0.6-0.6c-0.2-0.5-0.3-1.4-0.3-2.7v-1.8c0-0.9-0.1-1.6-0.3-2.2
		c-0.1-0.5-0.4-1-0.8-1.5l-1,2.3c0.3,0.3,0.5,0.5,0.6,0.7c0.2,0.3,0.3,0.8,0.3,1.4v2.6c0,1.6,0.2,2.7,0.5,3.3
		c0.3,0.6,0.8,0.9,1.6,0.9h0.6h0.6h0.7c0.5,0,0.9-0.1,1.3-0.3c0.4-0.2,0.8-0.6,1.1-1.1c0.2,0.5,0.4,0.9,0.7,1.1
		c0.2,0.2,0.6,0.3,1,0.3h1.5c0.6,0,1,0,1.3-0.1s0.6-0.2,1-0.5c0.4,0.2,0.9,0.4,1.4,0.5s1,0.1,1.7,0.1v-3.5c0-0.5,0-0.9-0.1-1.2
		C66.5,23.1,66.3,22.7,66.2,22.3z"/>
	<path class="st0" d="M83.8,21.5c-0.4-0.4-0.7-0.7-0.7-0.7c0-0.1,0.3-0.3,0.8-0.5c0.4-0.1,0.8-0.3,1.4-0.5c0.5-0.2,0.7-0.2,0.8-0.2
		v-2.2c-0.8,0.3-1.3,0.5-1.6,0.6c-0.5,0.2-1,0.4-1.3,0.6c-0.4,0.2-0.8,0.4-1.2,0.7c-0.4,0.3-0.7,0.6-0.8,1c-0.1,0.3-0.1,0.7-0.1,1.3
		c0,0.5,0.2,0.9,0.5,1.2c0.1,0.1,0.4,0.4,1,1l0.3-0.3c0.3,0.3,0.7,0.5,1,0.8c0.3,0.2,0.6,0.5,0.8,0.6c0.2,0.2,0.5,0.5,0.7,0.8H80
		v-0.1c0-0.7-0.1-1.4-0.3-1.9c-0.2-0.6-0.6-1.1-1-1.5l-0.5,2.5c0.3,0.3,0.6,0.7,0.8,1.1c0.2,0.4,0.3,0.7,0.3,1
		c0,0.5-0.5,1.2-1.5,2.1c-0.7,0.7-1.3,1.1-1.7,1.3s-0.9,0.4-1.3,0.4s-0.8-0.1-1.1-0.2c-0.3-0.1-0.8-0.4-1.3-0.8L72,30.1
		c1.2,0.8,2,1.3,2.6,1.6c0.6,0.3,1.2,0.5,1.8,0.5c0.5,0,1-0.3,1.7-0.8c0.6-0.5,1.1-1,1.5-1.6s0.6-1.1,0.6-1.5v-0.2H87v-2.6
		c-0.4-0.8-1-1.6-1.6-2.4C84.9,22.6,84.4,22.1,83.8,21.5z"/>
	<polygon class="st0" points="91.9,15.9 89.8,14.7 88.6,16.8 90.8,18 	"/>
	<path class="st0" d="M105.2,19.9c0.1-0.3,0.3-0.6,0.4-1s0.2-0.8,0.2-1.2c-0.5-0.2-0.9-0.4-1.1-0.6c-0.3-0.2-0.4-0.4-0.4-0.6
		s0-0.3,0-0.3l-0.4-0.2c-0.3,0.6-0.6,1.2-0.7,1.7c-0.1,0.4-0.2,0.7-0.2,1.1l0.6,0.4l1.1,6.3h-3.4c-0.1-0.7-0.3-1.5-0.7-2.3
		c-0.5-1-0.9-1.4-1.2-1.4c-0.3,0-0.8,0.2-1.2,0.7c-0.5,0.5-1,1.2-1.4,1.9c-0.2,0.4-0.5,0.7-0.9,0.9c-0.3,0.1-0.8,0.2-1.3,0.2h-1.2
		V25c0-1.4-0.2-2.6-0.5-3.5s-0.9-1.7-1.7-2.3l-0.7,2.9c0.5,0.3,0.9,0.7,1.2,1.2c0.4,0.5,0.6,1.3,0.7,2.2h-3.2c-0.2,0-0.4,0-0.6-0.1
		s-0.3-0.3-0.3-0.5h-0.4c-0.1,0.3-0.1,0.6-0.1,1c0,0.3,0,0.6,0,0.9c0,0.5,0.1,0.8,0.4,1c0.2,0.2,0.5,0.3,0.9,0.3h3.6h0.7h1.2
		c0.4,0,0.8,0,1-0.1c0.5-0.2,1-0.5,1.3-1.1c0.6,0.3,1.3,0.6,2,0.8c0.6,0.2,1.1,0.3,1.6,0.3v0.1h5.1v-2.5l-1-5.7L105.2,19.9z
		 M99.4,25.4c-0.1,0-0.3-0.1-0.8-0.3c-0.2-0.1-0.4-0.2-0.7-0.3c0.2-0.6,0.4-0.8,0.6-0.8s0.5,0.2,0.8,0.6c0.3,0.3,0.4,0.6,0.4,0.7
		C99.6,25.4,99.6,25.4,99.4,25.4z"/>
	<path class="st0" d="M108.8,20.1l-0.6-3.3c-0.3,0.7-0.6,1.2-0.8,1.7c-0.2,0.5-0.3,0.8-0.3,1c0,0.1,0,0.4,0.1,0.7
		c0.2,1,0.4,1.8,0.5,2.6c0.1,0.7,0.2,1.4,0.2,2.2c0.1,0.7,0.1,1.3,0.1,1.7c0,0.5-0.1,1.1-0.2,1.9l0.6,0.2c0.4-0.8,0.6-1.4,0.8-1.8
		c0.1-0.5,0.2-1,0.2-1.5c0-0.6,0-1.3-0.1-2C109.1,22.4,109,21.3,108.8,20.1z"/>
	<polygon class="st0" points="135.2,31.1 137.4,32.2 138.5,30.1 136.4,29 	"/>
	<path class="st0" d="M139.8,24.2c-0.7-0.7-1.2-1.3-1.6-1.6c-0.5-0.4-0.9-0.8-1.3-1s-0.8-0.3-1.2-0.3c-0.5,0-1,0.2-1.4,0.6
		s-0.8,0.9-1.1,1.7c0.3-0.1,0.4-0.1,0.6-0.1c0.1,0,0.3,0,0.4,0c0.5,0,1.1,0.2,1.7,0.5c0.6,0.3,1.3,0.9,2.1,1.7h-6
		c-0.1-0.7-0.3-1.5-0.7-2.3c-0.5-1-0.9-1.4-1.2-1.4s-0.8,0.2-1.2,0.7c-0.5,0.5-1,1.2-1.4,1.9c-0.2,0.4-0.5,0.7-0.9,0.9
		c-0.3,0.1-0.8,0.2-1.3,0.2h-1.2h-0.6h-0.6c-0.3,0-0.6-0.1-0.9-0.2c-0.4-0.2-0.8-0.4-1.1-0.8c0.4-0.2,0.6-0.4,0.8-0.8
		c0.2-0.3,0.3-0.7,0.3-1c0-0.6-0.2-1.1-0.7-1.5s-1-0.6-1.7-0.6c-0.8,0-1.4,0.3-1.8,0.9s-0.6,1.3-0.6,2.1l0.4,0.1
		c0.1-0.1,0.1-0.2,0.2-0.3c0.1-0.1,0.1-0.1,0.2-0.1c0.3,0,0.4,0.2,0.5,0.7c-0.9,0.8-1.6,1.7-2,2.6s-0.6,1.9-0.6,3.1
		c0,1.6,0.5,2.8,1.4,3.6s2.4,1.1,4.4,1.1l3.4-2.1l-0.1-0.4c-0.3,0-0.6,0-1,0s-0.7,0-1,0c-2.1,0-3.6-0.3-4.6-0.8s-1.5-1.3-1.5-2.4
		c0-0.6,0.2-1.2,0.6-1.8c0.4-0.6,0.9-1.1,1.6-1.6c0.5,1,1,1.7,1.6,2c0.5,0.3,1.2,0.5,2.1,0.5h0.6h0.6h1.2c0.4,0,0.8,0,1-0.1
		c0.5-0.2,1-0.5,1.3-1.1c0.6,0.3,1.3,0.6,2,0.8c0.6,0.2,1.1,0.3,1.6,0.3V28H142v-2.5c-0.5-0.1-0.9-0.2-1.1-0.4
		C140.6,25,140.3,24.7,139.8,24.2z M130.1,25.4c-0.1,0-0.3-0.1-0.8-0.3c-0.2-0.1-0.4-0.2-0.7-0.3c0.2-0.6,0.4-0.8,0.6-0.8
		c0.2,0,0.5,0.2,0.8,0.6c0.3,0.3,0.4,0.6,0.4,0.7C130.3,25.4,130.2,25.4,130.1,25.4z"/>
	<path class="st0" d="M151.8,21.2c-0.5-1.5-1.2-2.9-2.2-4.2h-1.8c0.8,1.9,1.4,3.5,1.7,4.8s0.5,2.7,0.5,4.2c0,0.7,0,1.4-0.1,2.1
		s-0.2,1.4-0.4,2.2c-0.2,0.8-0.4,1.4-0.6,2c-0.2,0.6-0.6,1.4-1.1,2.5h1.8c1.1-1.6,1.8-3.3,2.3-4.9c0.4-1.5,0.6-2.9,0.6-4.2
		C152.6,24.2,152.3,22.7,151.8,21.2z"/>
</g>
</svg>
