<?xml version="1.0" encoding="utf-8"?>
<!-- Generator: Adobe Illustrator 19.2.0, SVG Export Plug-In . SVG Version: 6.00 Build 0)  -->
<svg version="1.1" id="Layer_1" xmlns="http://www.w3.org/2000/svg" xmlns:xlink="http://www.w3.org/1999/xlink" x="0px" y="0px"
	 viewBox="0 0 42.8 40.3" style="enable-background:new 0 0 42.8 40.3;" xml:space="preserve">
<style type="text/css">
	.st0{fill:#CC4A6C;}
	.st1{fill:#F3ECDC;stroke:#000000;stroke-width:0.25;stroke-miterlimit:10;}
</style>
<g>
	<ellipse class="st0" cx="21.4" cy="20.1" rx="21.4" ry="20.1"/>
	<g>
		<g>
			<g>
				<path class="st1" d="M9.7,21.7h2.5l0.9,9c0,0.4,0.4,0.7,0.8,0.7h3.9c0.4,0,0.7-0.3,0.6-0.7L18.2,27c-0.1-1.3,0.8-2.4,2.1-2.7
					l1.4-0.3c1.6-0.3,3.1,0.9,3.1,2.5v4.2c0,0.3,0.3,0.6,0.6,0.6h3.4c0.4,0,0.7-0.3,0.8-0.7l0.9-9H33c1.3,0,1.9-1.5,1-2.4L23.9,9.1
					c-1.4-1.4-3.7-1.4-5.1,0L8.7,19.3C7.8,20.2,8.4,21.7,9.7,21.7z"/>
			</g>
		</g>
	</g>
</g>
</svg>
