<?xml version="1.0" encoding="utf-8"?>
<!-- Generator: Adobe Illustrator 19.2.0, SVG Export Plug-In . SVG Version: 6.00 Build 0)  -->
<svg version="1.1" id="Layer_1" xmlns="http://www.w3.org/2000/svg" xmlns:xlink="http://www.w3.org/1999/xlink" x="0px" y="0px"
	 viewBox="0 0 30 25.1" style="enable-background:new 0 0 30 25.1;" xml:space="preserve">
<style type="text/css">
	.st0{opacity:0.5;}
	.st1{fill:#603913;}
</style>
<g class="st0">
	<g>
		<g>
			<g>
				<g>
					<g>
						<path class="st1" d="M0.8,22.4c0.8-0.1,1.5-0.2,2.1-0.5c0.6-0.2,1.1-0.5,1.5-0.9c0.4-0.4,0.7-0.8,0.9-1.2
							c0.2-0.5,0.3-0.9,0.3-1.4c0-0.3-0.1-0.6-0.4-1c-0.2-0.4-0.5-1-0.9-1.7c-0.1-0.1-0.1-0.2-0.1-0.3c0-0.1,0-0.2,0-0.3
							c0-0.1,0-0.2,0.1-0.3c0.1-0.1,0.1-0.3,0.2-0.4c0.1-0.1,0.2-0.3,0.3-0.5s0.2-0.3,0.3-0.4c0.3-0.5,0.5-0.8,0.7-1
							c0.2-0.2,0.3-0.3,0.5-0.3c0.2,0,0.3,0.1,0.4,0.3C6.7,12.7,6.9,13,7,13.4c0.2,0.5,0.4,1,0.6,1.4c0.2,0.4,0.4,0.7,0.6,0.9
							c0.2,0.2,0.5,0.4,0.7,0.5c0.3,0.1,0.5,0.1,0.9,0.1c0.4,0,0.6,0.1,0.7,0.3c0.1,0.2,0.2,0.5,0.2,1v0.9c0,0.5-0.1,0.8-0.4,1
							c-0.3,0.2-0.6,0.3-1,0.3c-0.3,0-0.6,0-0.8-0.1c-0.2-0.1-0.4-0.2-0.6-0.4c-0.1,0.9-0.4,1.8-0.7,2.5C6.8,22.3,6.4,23,6,23.5
							c-0.5,0.5-1,0.9-1.5,1.2c-0.5,0.3-1.1,0.4-1.6,0.4c-0.4,0-0.8-0.1-1.1-0.3c-0.3-0.2-0.6-0.4-0.9-0.7c-0.2-0.2-0.4-0.4-0.6-0.7
							C0.1,23.2,0,23,0,22.8c0-0.1,0.1-0.2,0.2-0.3C0.3,22.5,0.5,22.4,0.8,22.4z"/>
						<path class="st1" d="M17.2,9.5c0-0.2,0-0.5-0.1-0.9c-0.1-0.4-0.1-0.9-0.2-1.4c-0.1-0.5-0.1-1.1-0.2-1.7
							c-0.1-0.6-0.2-1.1-0.2-1.6c-0.1-0.5-0.1-1-0.2-1.3c-0.1-0.4-0.1-0.7-0.1-0.8c0-0.4,0.1-0.7,0.3-0.9c0.2-0.2,0.5-0.3,0.8-0.4
							c0.1,0,0.2,0,0.3-0.1c0.1,0,0.3-0.1,0.4-0.1c0.2,0,0.3-0.1,0.4-0.1c0.1,0,0.2,0,0.2,0c0.3,0,0.5,0.1,0.6,0.3
							c0.1,0.2,0.1,0.5,0.1,0.7c0,1.3,0,2.3,0,3.2c0,0.8,0,1.6,0.1,2.1c0,0.6,0,1,0.1,1.4c0,0.4,0,0.7,0,0.9c0,0.7-0.1,1.3-0.3,1.8
							c-0.2,0.5-0.5,0.9-0.7,1.3c0.7,0.3,1.5,0.5,2.3,0.6c0.9,0.2,1.9,0.2,3.1,0.2c0.2,0,0.3,0,0.4,0.1c0.1,0,0.2,0.1,0.2,0.3
							c0,0,0,0.1-0.1,0.3c-0.1,0.1-0.1,0.3-0.2,0.5c-0.1,0.2-0.1,0.4-0.2,0.5c-0.1,0.2-0.1,0.4-0.2,0.5c0,0.1-0.1,0.2-0.2,0.3
							c0,0.1-0.1,0.2-0.2,0.2c-0.1,0.1-0.3,0.1-0.4,0.1c-0.2,0-0.4,0-0.7,0c-0.3,0-0.7,0-1,0.1c-0.3,0.1-0.6,0.2-0.9,0.3
							c-0.3,0.1-0.7,0.3-1,0.5c-0.4,0.2-0.7,0.5-1.2,0.8c-0.7,0.5-1.3,0.8-1.9,1.1c-0.6,0.3-1.3,0.6-2,0.8c-0.7,0.2-1.5,0.3-2.3,0.4
							c-0.9,0.1-1.9,0.1-3,0.1c-0.2,0-0.4-0.1-0.6-0.3c-0.2-0.2-0.3-0.5-0.3-0.9v-0.9c0-0.4,0.1-0.8,0.4-1c0.3-0.2,0.6-0.3,1-0.3
							c1.1,0,2,0,2.7-0.1c0.8,0,1.4-0.1,2-0.1c0.6-0.1,1.1-0.2,1.5-0.3c0.4-0.1,0.8-0.3,1.2-0.5c0.1-0.1,0.2-0.1,0.3-0.2
							c0.1,0,0.1-0.1,0.2-0.1c0,0,0.1-0.1,0.2-0.1c0.1,0,0.2-0.1,0.3-0.2c-0.8-0.3-1.6-0.5-2.3-0.6C15.1,14,14.5,14,14,14
							c-0.3,0-0.5,0-0.8,0c-0.3,0-0.6,0-0.9,0c-0.4,0-0.6-0.1-0.6-0.3c0-0.1,0-0.2,0.1-0.4c0.1-0.2,0.1-0.3,0.2-0.5
							c0.1-0.2,0.2-0.3,0.3-0.5c0.1-0.2,0.2-0.3,0.2-0.4c0.3-0.4,0.5-0.7,0.8-1c0.3-0.3,0.6-0.4,1-0.4c0.1,0,0.3,0,0.5,0
							c0.2,0,0.4,0,0.7,0c0.2,0,0.4,0,0.6,0c0.2,0,0.4-0.1,0.5-0.2c0.2-0.1,0.3-0.2,0.4-0.4C17.1,9.9,17.2,9.7,17.2,9.5z M18.1,19.6
							c0.1,0,0.3,0.1,0.5,0.2c0.2,0.1,0.4,0.3,0.6,0.5c0.2,0.2,0.3,0.4,0.5,0.6c0.2,0.2,0.2,0.4,0.2,0.5c0,0.1-0.1,0.3-0.3,0.5
							c-0.2,0.2-0.4,0.4-0.7,0.6c-0.3,0.3-0.5,0.5-0.6,0.6c-0.1,0.1-0.2,0.2-0.4,0.2c-0.1,0-0.2-0.1-0.4-0.3
							c-0.1-0.2-0.3-0.4-0.5-0.6c-0.2-0.2-0.4-0.4-0.6-0.6c-0.2-0.2-0.3-0.3-0.3-0.4c0-0.1,0.1-0.3,0.2-0.5c0.2-0.2,0.3-0.4,0.6-0.6
							c0.2-0.2,0.4-0.4,0.7-0.6C17.8,19.7,18,19.6,18.1,19.6z"/>
						<path class="st1" d="M27.3,1.9c0,0,0.1,0,0.3-0.1c0.2,0,0.3-0.1,0.5-0.1c0.2,0,0.4-0.1,0.6-0.1c0.2,0,0.3,0,0.5,0
							c0.2,0,0.4,0.1,0.4,0.3c0,0.2,0.1,0.5,0.1,0.9c0,0.3,0,0.8,0,1.3s0.1,1.2,0.1,1.8c0,0.7,0.1,1.4,0.1,2.2
							c0,0.8,0.1,1.6,0.1,2.4s0,1.6,0.1,2.3c0,0.8,0,1.5,0,2.1c0,1.1-0.1,2-0.2,2.7c-0.1,0.8-0.3,1.3-0.5,1.5
							c-0.2,0.2-0.5,0.4-0.9,0.5c-0.4,0.1-0.7,0.2-0.9,0.2c-0.2,0-0.3,0-0.4-0.1c-0.1,0-0.1-0.2-0.1-0.4c0,0,0-0.1,0-0.2
							s0-0.2,0-0.3c0-0.4,0.1-0.9,0.1-1.7c0.1-0.8,0.1-1.8,0.1-3.1c0-1.3,0-2.4-0.1-3.6C27,9.4,27,8.4,26.9,7.4
							c-0.1-1-0.2-1.8-0.3-2.6c-0.1-0.8-0.1-1.4-0.1-1.9c0-0.3,0.1-0.5,0.2-0.7C26.7,2.1,26.9,2,27.3,1.9z"/>
					</g>
				</g>
			</g>
		</g>
	</g>
</g>
</svg>
