<?xml version="1.0" encoding="utf-8"?>
<!-- Generator: Adobe Illustrator 19.2.0, SVG Export Plug-In . SVG Version: 6.00 Build 0)  -->
<svg version="1.1" id="Layer_1" xmlns="http://www.w3.org/2000/svg" xmlns:xlink="http://www.w3.org/1999/xlink" x="0px" y="0px"
	 viewBox="0 0 93.4 25.1" style="enable-background:new 0 0 93.4 25.1;" xml:space="preserve">
<style type="text/css">
	.st0{fill:#097B70;}
</style>
<g>
	<g>
		<g>
			<g>
				<g>
					<path class="st0" d="M0.8,22.4c0.8-0.1,1.5-0.2,2.1-0.5c0.6-0.2,1.1-0.5,1.5-0.9c0.4-0.4,0.7-0.8,0.9-1.2
						c0.2-0.5,0.3-0.9,0.3-1.4c0-0.3-0.1-0.6-0.4-1c-0.2-0.4-0.5-1-0.9-1.7c-0.1-0.1-0.1-0.2-0.1-0.3c0-0.1,0-0.2,0-0.3
						c0-0.1,0-0.2,0.1-0.3c0.1-0.1,0.1-0.3,0.2-0.4c0.1-0.1,0.2-0.3,0.3-0.5s0.2-0.3,0.3-0.4c0.3-0.5,0.5-0.8,0.7-1
						c0.2-0.2,0.3-0.3,0.5-0.3c0.2,0,0.3,0.1,0.4,0.3C6.7,12.7,6.9,13,7,13.4c0.2,0.5,0.4,1,0.6,1.4c0.2,0.4,0.4,0.7,0.6,0.9
						c0.2,0.2,0.5,0.4,0.7,0.5c0.3,0.1,0.5,0.1,0.9,0.1c0.4,0,0.6,0.1,0.7,0.3c0.1,0.2,0.2,0.5,0.2,1v0.9c0,0.5-0.1,0.8-0.4,1
						c-0.3,0.2-0.6,0.3-1,0.3c-0.3,0-0.6,0-0.8-0.1c-0.2-0.1-0.4-0.2-0.6-0.4c-0.1,0.9-0.4,1.8-0.7,2.5C6.8,22.3,6.4,23,6,23.5
						c-0.5,0.5-1,0.9-1.5,1.2c-0.5,0.3-1.1,0.4-1.6,0.4c-0.4,0-0.8-0.1-1.1-0.3c-0.3-0.2-0.6-0.4-0.9-0.7c-0.2-0.2-0.4-0.4-0.5-0.7
						C0.1,23.2,0,23,0,22.8c0-0.1,0.1-0.2,0.2-0.3C0.3,22.5,0.5,22.4,0.8,22.4z"/>
					<path class="st0" d="M17.2,9.5c0-0.2,0-0.5-0.1-0.9c0-0.4-0.1-0.9-0.2-1.4c-0.1-0.5-0.1-1.1-0.2-1.7c-0.1-0.6-0.2-1.1-0.2-1.6
						c-0.1-0.5-0.1-1-0.2-1.3c-0.1-0.4-0.1-0.7-0.1-0.8c0-0.4,0.1-0.7,0.3-0.9c0.2-0.2,0.5-0.3,0.8-0.4c0.1,0,0.2,0,0.3-0.1
						c0.1,0,0.3-0.1,0.5-0.1c0.2,0,0.3-0.1,0.4-0.1c0.1,0,0.2,0,0.2,0c0.3,0,0.5,0.1,0.6,0.3c0.1,0.2,0.1,0.5,0.1,0.7
						c0,1.3,0,2.3,0,3.2c0,0.8,0,1.6,0.1,2.1c0,0.6,0,1,0,1.4c0,0.4,0,0.7,0,0.9c0,0.7-0.1,1.3-0.3,1.8c-0.2,0.5-0.5,0.9-0.7,1.3
						c0.7,0.3,1.5,0.5,2.4,0.6c0.9,0.2,1.9,0.2,3.1,0.2c0.2,0,0.3,0,0.4,0.1c0.1,0,0.2,0.1,0.2,0.3c0,0,0,0.1-0.1,0.3
						c0,0.1-0.1,0.3-0.2,0.5c-0.1,0.2-0.1,0.4-0.2,0.5c-0.1,0.2-0.1,0.4-0.2,0.5c0,0.1-0.1,0.2-0.2,0.3c0,0.1-0.1,0.2-0.2,0.2
						c-0.1,0.1-0.3,0.1-0.4,0.1c-0.2,0-0.4,0-0.7,0c-0.3,0-0.7,0-1,0.1c-0.3,0.1-0.6,0.2-0.9,0.3c-0.3,0.1-0.7,0.3-1,0.5
						c-0.4,0.2-0.7,0.5-1.2,0.8c-0.6,0.5-1.3,0.8-1.9,1.1c-0.6,0.3-1.3,0.6-2,0.8c-0.7,0.2-1.5,0.3-2.3,0.4c-0.9,0.1-1.9,0.1-3,0.1
						c-0.2,0-0.4-0.1-0.6-0.3c-0.2-0.2-0.3-0.5-0.3-0.9v-0.9c0-0.4,0.1-0.8,0.4-1c0.3-0.2,0.6-0.3,1-0.3c1.1,0,2,0,2.7-0.1
						c0.8,0,1.4-0.1,2-0.1c0.6-0.1,1.1-0.2,1.5-0.3c0.4-0.1,0.8-0.3,1.2-0.5c0.1-0.1,0.2-0.1,0.3-0.2c0.1,0,0.1-0.1,0.2-0.1
						c0,0,0.1-0.1,0.2-0.1c0.1,0,0.2-0.1,0.3-0.2c-0.9-0.3-1.6-0.5-2.3-0.6C15.1,14,14.5,14,14,14c-0.3,0-0.5,0-0.8,0
						c-0.3,0-0.6,0-0.9,0c-0.4,0-0.6-0.1-0.6-0.3c0-0.1,0-0.2,0.1-0.4c0.1-0.2,0.1-0.3,0.2-0.5c0.1-0.2,0.2-0.3,0.3-0.5
						s0.2-0.3,0.2-0.4c0.3-0.4,0.5-0.7,0.8-1c0.3-0.3,0.6-0.4,1-0.4c0.1,0,0.3,0,0.5,0c0.2,0,0.4,0,0.7,0c0.2,0,0.4,0,0.6,0
						c0.2,0,0.4-0.1,0.5-0.2c0.2-0.1,0.3-0.2,0.4-0.4C17.1,9.9,17.2,9.7,17.2,9.5z M18.1,19.6c0.1,0,0.3,0.1,0.5,0.2
						c0.2,0.1,0.4,0.3,0.6,0.5c0.2,0.2,0.3,0.4,0.5,0.6c0.2,0.2,0.2,0.4,0.2,0.5c0,0.1-0.1,0.3-0.3,0.5c-0.2,0.2-0.4,0.4-0.7,0.6
						c-0.3,0.3-0.5,0.5-0.6,0.6c-0.1,0.1-0.2,0.2-0.4,0.2c-0.1,0-0.2-0.1-0.4-0.3c-0.1-0.2-0.3-0.4-0.5-0.6
						c-0.2-0.2-0.4-0.4-0.6-0.6c-0.2-0.2-0.3-0.3-0.3-0.4c0-0.1,0.1-0.3,0.2-0.5c0.2-0.2,0.3-0.4,0.6-0.6c0.2-0.2,0.4-0.4,0.7-0.6
						C17.8,19.7,18,19.6,18.1,19.6z"/>
					<path class="st0" d="M27.3,1.9c0,0,0.1,0,0.3-0.1c0.2,0,0.3-0.1,0.5-0.1c0.2,0,0.4-0.1,0.6-0.1c0.2,0,0.3,0,0.5,0
						c0.2,0,0.4,0.1,0.4,0.3c0,0.2,0.1,0.5,0.1,0.9c0,0.3,0,0.8,0,1.3c0,0.5,0,1.2,0.1,1.8c0,0.7,0.1,1.4,0.1,2.2
						c0,0.8,0.1,1.6,0.1,2.4c0,0.8,0,1.6,0.1,2.3c0,0.8,0,1.5,0,2.1c0,1.1-0.1,2-0.2,2.7c-0.1,0.8-0.3,1.3-0.5,1.5
						c-0.2,0.2-0.5,0.4-0.9,0.5c-0.4,0.1-0.7,0.2-0.9,0.2c-0.2,0-0.3,0-0.4-0.1c-0.1,0-0.1-0.2-0.1-0.4c0,0,0-0.1,0-0.2s0-0.2,0-0.3
						c0-0.4,0.1-0.9,0.1-1.7c0.1-0.8,0.1-1.8,0.1-3.1c0-1.3,0-2.4-0.1-3.6C27,9.4,27,8.4,26.9,7.4c-0.1-1-0.2-1.8-0.3-2.6
						c-0.1-0.8-0.1-1.4-0.1-1.9c0-0.3,0-0.5,0.2-0.7C26.7,2.1,26.9,2,27.3,1.9z"/>
					<path class="st0" d="M39.8,14c0,0.6,0.2,1,0.5,1.4c0.4,0.4,0.9,0.7,1.5,0.9c0.7,0.2,1.5,0.4,2.4,0.5c0.9,0.1,2,0.1,3.1,0.1
						c0.9,0,1.8,0,2.7-0.1s1.7-0.1,2.4-0.2c0.8-0.1,1.4-0.2,2-0.4c0.6-0.2,1.1-0.3,1.5-0.5c-0.6,0-1.2-0.1-1.8-0.2
						c-0.6-0.1-1.2-0.3-1.7-0.6c-0.5-0.3-0.9-0.6-1.2-1.1c-0.3-0.5-0.5-1-0.5-1.7c0-0.7,0.1-1.4,0.3-2.1c0.2-0.7,0.5-1.3,0.9-1.8
						c0.4-0.5,0.8-1,1.3-1.3c0.5-0.3,1-0.5,1.5-0.5c0.6,0,1.2,0.2,1.7,0.5c0.5,0.3,0.9,0.8,1.3,1.4c0.3,0.6,0.6,1.3,0.8,2.2
						c0.2,0.8,0.3,1.8,0.3,2.8c0,1.5-0.4,2.8-1.1,3.7c-0.7,0.9-1.7,1.6-2.9,2.1c-1.2,0.5-2.6,0.8-4.2,0.9c-1.6,0.1-3.3,0.2-5,0.2
						c-1.5,0-2.7-0.1-3.7-0.3c-1-0.2-1.9-0.5-2.6-0.9c-0.7-0.4-1.2-0.9-1.5-1.5c-0.3-0.6-0.5-1.3-0.5-2c0-0.3,0-0.6,0.1-0.9
						c0.1-0.3,0.1-0.6,0.2-0.9c0.1-0.3,0.2-0.6,0.3-0.8c0.1-0.3,0.2-0.5,0.4-0.6c0.2-0.3,0.6-0.4,1.1-0.5c0.4,0,0.6,0,0.6,0.3
						c0,0.2-0.1,0.4-0.2,0.8C39.9,13,39.8,13.4,39.8,14z M55.1,0.1c0.1,0,0.3,0.1,0.5,0.2c0.2,0.1,0.4,0.3,0.7,0.5
						c0.2,0.2,0.3,0.4,0.5,0.6C56.9,1.6,57,1.8,57,1.9c0,0.1-0.1,0.3-0.3,0.5C56.4,2.6,56.2,2.9,56,3c-0.3,0.3-0.5,0.5-0.6,0.6
						c-0.1,0.1-0.2,0.2-0.4,0.2c-0.1,0-0.3-0.1-0.4-0.3c-0.2-0.2-0.3-0.4-0.5-0.6c-0.2-0.2-0.4-0.4-0.6-0.6
						c-0.2-0.2-0.3-0.3-0.3-0.4c0-0.1,0.1-0.3,0.2-0.5c0.1-0.2,0.3-0.4,0.5-0.6c0.2-0.2,0.4-0.4,0.7-0.6C54.8,0.2,55,0.1,55.1,0.1z
						 M54.7,9.8c-0.2,0-0.4,0.1-0.6,0.2c-0.2,0.1-0.3,0.3-0.5,0.4c-0.1,0.2-0.3,0.4-0.3,0.6c-0.1,0.2-0.1,0.4-0.1,0.7
						c0,0.3,0.1,0.5,0.3,0.6c0.2,0.2,0.4,0.3,0.7,0.4c0.3,0.1,0.6,0.2,1,0.2c0.4,0,0.7,0.1,1.1,0.1c0.3,0,0.4,0,0.5,0
						c-0.1-0.9-0.3-1.6-0.6-2.2C55.7,10.1,55.3,9.8,54.7,9.8z"/>
					<path class="st0" d="M61.5,21.8c1-0.1,1.8-0.3,2.4-0.6c0.7-0.3,1.2-0.5,1.7-0.9c0.4-0.3,0.8-0.7,1-1c0.2-0.4,0.3-0.7,0.4-1.1
						c-0.5,0.2-1.2,0.3-1.9,0.3c-1.1,0-2.1-0.3-2.8-0.8c-0.7-0.6-1.1-1.4-1.1-2.5c0-0.7,0.1-1.4,0.3-2.1c0.2-0.7,0.5-1.3,0.8-1.8
						c0.4-0.5,0.8-0.9,1.3-1.3c0.5-0.3,1-0.5,1.6-0.5c0.7,0,1.2,0.2,1.7,0.6c0.5,0.4,0.9,0.9,1.3,1.5c0.3,0.7,0.6,1.4,0.8,2.3
						c0.2,0.9,0.3,1.8,0.3,2.7c0,1.3-0.2,2.4-0.5,3.4c-0.3,1-0.8,1.8-1.3,2.5c-0.5,0.7-1.1,1.2-1.8,1.5c-0.7,0.3-1.4,0.5-2.1,0.5
						c-0.4,0-0.8-0.1-1.1-0.3c-0.3-0.2-0.6-0.4-0.9-0.7c0-0.1-0.1-0.1-0.2-0.3c-0.1-0.1-0.2-0.2-0.3-0.4c-0.1-0.1-0.2-0.3-0.2-0.4
						c-0.1-0.1-0.1-0.2-0.1-0.3c0-0.1,0.1-0.2,0.2-0.3C61,21.8,61.2,21.8,61.5,21.8z M65,12.8c-0.3,0-0.5,0.1-0.7,0.2
						c-0.2,0.1-0.4,0.2-0.5,0.4c-0.1,0.2-0.3,0.3-0.3,0.5c-0.1,0.2-0.1,0.4-0.1,0.6c0,0.4,0.2,0.7,0.5,0.8c0.4,0.1,0.8,0.2,1.3,0.2
						c0.3,0,0.7,0,1-0.1c0.3,0,0.6-0.1,0.8-0.2c0-0.7-0.3-1.3-0.6-1.8C66,13.1,65.5,12.8,65,12.8z"/>
					<path class="st0" d="M70.3,22.4c0.8-0.1,1.5-0.2,2.1-0.5c0.6-0.2,1.1-0.5,1.5-0.9c0.4-0.4,0.7-0.8,0.9-1.2
						c0.2-0.5,0.3-0.9,0.3-1.4c0-0.3-0.1-0.6-0.4-1c-0.2-0.4-0.5-1-0.9-1.7c-0.1-0.1-0.1-0.2-0.1-0.3c0-0.1,0-0.2,0-0.3
						c0-0.1,0-0.2,0.1-0.3c0.1-0.1,0.1-0.3,0.2-0.4c0.1-0.1,0.2-0.3,0.3-0.5s0.2-0.3,0.3-0.4c0.3-0.5,0.5-0.8,0.7-1
						c0.2-0.2,0.3-0.3,0.5-0.3c0.2,0,0.3,0.1,0.4,0.3c0.1,0.2,0.2,0.5,0.4,0.8c0.2,0.5,0.4,1,0.6,1.4c0.2,0.4,0.4,0.7,0.6,0.9
						c0.2,0.2,0.5,0.4,0.7,0.5c0.3,0.1,0.5,0.1,0.9,0.1c0.4,0,0.6,0.1,0.7,0.3c0.1,0.2,0.2,0.5,0.2,1v0.9c0,0.5-0.1,0.8-0.4,1
						c-0.3,0.2-0.6,0.3-1,0.3c-0.3,0-0.6,0-0.8-0.1c-0.2-0.1-0.4-0.2-0.6-0.4c-0.1,0.9-0.4,1.8-0.7,2.5c-0.3,0.7-0.8,1.4-1.2,1.9
						c-0.5,0.5-1,0.9-1.5,1.2c-0.5,0.3-1.1,0.4-1.6,0.4c-0.4,0-0.8-0.1-1.1-0.3c-0.3-0.2-0.6-0.4-0.9-0.7c-0.2-0.2-0.4-0.4-0.5-0.7
						c-0.2-0.3-0.3-0.5-0.3-0.6c0-0.1,0.1-0.2,0.2-0.3C69.8,22.5,70,22.4,70.3,22.4z"/>
					<path class="st0" d="M79.3,16.2c0.5,0,0.8-0.1,1.2-0.2c0.3-0.1,0.7-0.3,1-0.7c0-0.4,0-0.7,0-1.1c0-0.4,0-0.8,0-1.2
						c0-0.7,0-1.5-0.1-2.4c0-0.9-0.1-1.7-0.2-2.5c-0.1-0.8-0.2-1.6-0.3-2.4s-0.2-1.4-0.2-1.9c0-0.4-0.1-0.7-0.1-1
						c0-0.4,0.1-0.6,0.2-0.8c0.1-0.2,0.4-0.3,0.7-0.5c0.1,0,0.2,0,0.3-0.1c0.1,0,0.3-0.1,0.4-0.1c0.2,0,0.3-0.1,0.5-0.1
						c0.1,0,0.3,0,0.3,0c0.2,0,0.4,0.1,0.4,0.3c0.1,0.2,0.1,0.5,0.1,0.7c0,0.5,0,1.1,0.1,1.8c0,0.8,0.1,1.6,0.1,2.6
						c0,0.9,0.1,1.8,0.1,2.8c0,0.9,0.1,1.8,0.1,2.5c0.9-0.8,1.8-1.4,2.6-1.7c0.8-0.3,1.6-0.5,2.3-0.5c0.8,0,1.4,0.1,2,0.4
						c0.5,0.3,1,0.6,1.4,1s0.7,0.9,0.8,1.4c0.2,0.5,0.3,1.1,0.3,1.6c0,1-0.2,1.8-0.7,2.5c-0.5,0.7-1.1,1.2-1.8,1.6
						c-0.8,0.4-1.7,0.7-2.7,0.9c-1,0.2-2,0.3-3.1,0.3h-6.3c-0.2,0-0.4-0.1-0.6-0.3c-0.2-0.2-0.3-0.5-0.3-0.9v-0.9
						c0-0.4,0.1-0.8,0.4-1C78.5,16.3,78.9,16.2,79.3,16.2z M85.1,16.4c1.1,0,2,0,2.8-0.2c0.7-0.1,1.3-0.2,1.8-0.4
						c0.4-0.2,0.8-0.4,0.9-0.6c0.2-0.2,0.3-0.5,0.3-0.7c0-0.5-0.2-0.8-0.6-1.1c-0.4-0.3-0.9-0.5-1.5-0.5c-0.8,0-1.8,0.3-2.7,0.8
						c-1,0.6-1.9,1.4-2.7,2.6H85.1z M88.9,2.9c0.1,0,0.3,0.1,0.5,0.2c0.2,0.1,0.4,0.3,0.7,0.5c0.2,0.2,0.3,0.4,0.5,0.6
						c0.1,0.2,0.2,0.4,0.2,0.5c0,0.1-0.1,0.3-0.3,0.5c-0.2,0.2-0.4,0.4-0.6,0.6c-0.3,0.3-0.5,0.5-0.6,0.6c-0.1,0.1-0.2,0.2-0.4,0.2
						c-0.1,0-0.3-0.1-0.4-0.3c-0.2-0.2-0.3-0.4-0.5-0.6c-0.2-0.2-0.4-0.4-0.6-0.6c-0.2-0.2-0.3-0.3-0.3-0.4c0-0.1,0.1-0.3,0.2-0.5
						c0.1-0.2,0.3-0.4,0.5-0.7c0.2-0.2,0.4-0.4,0.7-0.6C88.6,3,88.8,2.9,88.9,2.9z"/>
				</g>
			</g>
		</g>
	</g>
</g>
</svg>
