<?xml version="1.0" encoding="utf-8"?>
<!-- Generator: Adobe Illustrator 19.2.0, SVG Export Plug-In . SVG Version: 6.00 Build 0)  -->
<svg version="1.1" id="Layer_1" xmlns="http://www.w3.org/2000/svg" xmlns:xlink="http://www.w3.org/1999/xlink" x="0px" y="0px"
	 viewBox="0 0 93.9 42.5" style="enable-background:new 0 0 93.9 42.5;" xml:space="preserve">
<style type="text/css">
	.st0{opacity:0.75;}
	.st1{fill:#451900;}
	.st2{fill:#FFFFFF;}
</style>
<g>
	<g>
		<g class="st0">
			<path class="st1" d="M5.9,32.7c0,0.9,0.2,1.7,0.5,2.4c0.3,0.7,0.8,1.2,1.4,1.6c0.6,0.4,1.2,0.7,2,0.9c0.8,0.2,1.6,0.3,2.4,0.3
				c1.2,0,2.4-0.2,3.4-0.5c1.1-0.3,2-0.8,2.8-1.5c0.8-0.7,1.4-1.5,1.9-2.6c0.5-1.1,0.7-2.4,0.7-4c0-0.2,0-0.8-0.1-1.8
				c-0.1-1-0.1-2.1-0.2-3.4c-0.1-1.3-0.2-2.7-0.3-4.2c-0.1-1.5-0.3-3-0.4-4.3c-0.1-0.7-0.1-1.4-0.3-2.2c-0.1-0.8-0.2-1.6-0.3-2.4
				c-0.1-0.8-0.2-1.5-0.2-2.2c-0.1-0.7-0.1-1.2-0.1-1.6c0-0.7,0.2-1.3,0.5-1.6C20,5.2,20.5,5,21.2,4.8c0.1,0,0.3-0.1,0.6-0.2
				c0.3-0.1,0.5-0.1,0.8-0.2c0.3-0.1,0.6-0.1,0.8-0.2c0.2-0.1,0.4-0.1,0.4-0.1c0.6,0,0.9,0.2,1,0.6C25,5.1,25,5.6,25,6.1
				c0,2.2,0.1,4.3,0.1,6.6c0,2.2,0.1,4.4,0.1,6.4c0,2,0.1,3.9,0.1,5.5c0,1.7,0.1,3,0.1,3.9c0.3,0.7,0.8,1.3,1.7,1.7
				c0.9,0.4,2.1,0.6,3.8,0.6c0.6,0,1.1,0.2,1.3,0.5c0.2,0.4,0.3,0.9,0.3,1.7v1.6c0,0.9-0.2,1.5-0.7,1.8c-0.5,0.3-1.1,0.5-1.9,0.5
				c-1.3,0-2.4-0.2-3.3-0.6c-0.9-0.4-1.6-0.9-2.2-1.5c-0.4,1.2-1,2.4-1.7,3.5c-0.7,1.1-1.6,2.1-2.6,2.9c-1.1,0.8-2.3,1.5-3.7,2
				c-1.4,0.5-3.1,0.7-4.9,0.7c-1.5,0-2.9-0.2-4.1-0.6c-1.2-0.4-2.3-1-3.1-1.7c-0.9-0.7-1.5-1.7-2-2.7c-0.5-1.1-0.7-2.3-0.7-3.7
				c0-0.5,0.1-1.1,0.2-1.7c0.1-0.6,0.2-1.1,0.4-1.7c0.2-0.5,0.3-1.1,0.5-1.5c0.2-0.5,0.4-0.9,0.6-1.2c0.4-0.5,1.1-0.8,2.1-0.9
				c0.7-0.1,1,0.1,1,0.5c0,0.3-0.1,0.8-0.3,1.4C6,30.9,5.9,31.7,5.9,32.7z"/>
			<path class="st1" d="M36.4,27.1c-0.4-0.6-0.9-1.3-1.5-2c-0.6-0.7-1.2-1.2-2-1.5c-0.2-0.1-0.3-0.1-0.4-0.2
				c-0.1-0.1-0.1-0.2-0.1-0.4c0-0.1,0.1-0.4,0.2-0.8c0.1-0.4,0.2-0.8,0.4-1.3c0.1-0.5,0.3-0.9,0.4-1.3c0.1-0.4,0.2-0.7,0.3-0.7
				c0.1-0.2,0.3-0.4,0.5-0.5c0.2-0.1,0.4-0.2,0.7-0.3c1.7-0.5,3.4-0.9,4.9-1.3c1.5-0.4,3-0.5,4.4-0.5c1.5,0,2.6,0.2,3.5,0.6
				c0.9,0.4,1.6,0.9,2.1,1.5c0.5,0.6,0.9,1.3,1,2c0.2,0.7,0.3,1.3,0.3,1.9c0,1.4-0.3,2.7-1,4.1c-0.7,1.3-1.6,2.6-2.8,3.8
				c0.9,0.3,1.9,0.6,3.1,0.7c1.2,0.1,2.7,0.2,4.6,0.2c0.6,0,1.1,0.2,1.3,0.5c0.2,0.4,0.3,0.9,0.3,1.7v1.6c0,0.9-0.2,1.5-0.7,1.8
				c-0.5,0.3-1.1,0.5-1.9,0.5c-2.5,0-4.6-0.2-6.3-0.7c-1.7-0.4-3.3-1.1-4.7-1.9c-1.5,0.8-3.4,1.4-5.5,1.9C35.4,36.8,32.9,37,30,37
				c-0.4,0-0.8-0.2-1.1-0.5c-0.3-0.3-0.5-0.9-0.5-1.7v-1.6c0-0.8,0.2-1.4,0.7-1.7c0.5-0.4,1.1-0.5,1.8-0.5c1.9,0,3.5-0.1,4.7-0.2
				c1.2-0.1,2.3-0.3,3.2-0.5c-0.6-0.6-1-1.1-1.4-1.6C37.1,28.1,36.7,27.6,36.4,27.1z M46.2,24c0-0.2,0-0.4-0.1-0.7
				c-0.1-0.2-0.2-0.5-0.5-0.7c-0.2-0.2-0.6-0.4-1-0.5c-0.4-0.1-1-0.2-1.8-0.2c-0.7,0-1.4,0.1-2.2,0.3c-0.8,0.2-1.5,0.4-2.1,0.6
				l0.5,0.7c0.6,0.7,1.2,1.4,1.9,2.2c0.7,0.8,1.5,1.5,2.4,2.1c0.9-0.5,1.6-1.2,2.1-1.9C45.9,25.2,46.2,24.6,46.2,24z"/>
			<path class="st1" d="M54.8,30.9c0.8,0,1.7,0,2.6-0.1c0.9,0,1.8-0.1,2.6-0.3c-0.5-0.7-1-1.5-1.4-2.4c-0.4-0.9-0.6-2.1-0.6-3.6
				c0-1.1,0.2-2.3,0.6-3.5c0.4-1.2,1-2.3,1.8-3.2c0.7-1,1.6-1.7,2.7-2.4c1-0.6,2.2-0.9,3.5-0.9c1.2,0,2.3,0.2,3.1,0.7
				c0.9,0.5,1.6,1,2.2,1.8c0.6,0.7,1,1.6,1.2,2.5c0.3,0.9,0.4,1.9,0.4,2.9c0,1.3-0.3,2.7-0.9,4.2c-0.6,1.5-1.5,2.8-2.7,3.9
				c0.7,0.2,1.5,0.2,2.5,0.3c1,0,2.1,0.1,3.4,0.1c0.6,0,1.1,0.2,1.3,0.5c0.2,0.4,0.3,0.9,0.3,1.7v1.6c0,0.9-0.2,1.5-0.7,1.8
				C76.4,36.8,75.8,37,75,37c-4,0-7.3-0.7-10-2c-1.5,0.7-3.1,1.2-5,1.5c-1.8,0.3-3.9,0.5-6.1,0.5c-0.4,0-0.8-0.2-1.1-0.5
				c-0.3-0.3-0.5-0.9-0.5-1.7v-1.6c0-0.8,0.2-1.4,0.7-1.7C53.5,31.1,54.1,30.9,54.8,30.9z M62.5,24.7c0,0.8,0.2,1.5,0.7,2.2
				c0.5,0.7,1.2,1.3,2.2,1.8c1-0.5,1.9-1.2,2.6-2.1c0.7-0.9,1.1-1.9,1.1-2.8c0-0.4-0.1-0.8-0.2-1.2c-0.1-0.4-0.3-0.7-0.6-1.1
				c-0.3-0.3-0.6-0.6-1-0.8c-0.4-0.2-0.8-0.3-1.3-0.3c-0.5,0-0.9,0.1-1.4,0.3c-0.4,0.2-0.8,0.5-1.1,0.9c-0.3,0.4-0.6,0.8-0.8,1.4
				C62.6,23.5,62.5,24.1,62.5,24.7z M66.9,1.6c0.2,0,0.6,0.1,1,0.4c0.4,0.2,0.8,0.5,1.2,0.9c0.3,0.3,0.6,0.7,0.9,1.1
				c0.3,0.4,0.4,0.7,0.4,0.9c0,0.2-0.2,0.6-0.6,0.9c-0.4,0.4-0.8,0.7-1.2,1.1c-0.6,0.5-1,0.9-1.2,1.1c-0.2,0.2-0.4,0.4-0.7,0.4
				c-0.2,0-0.5-0.2-0.7-0.5c-0.3-0.3-0.6-0.7-1-1c-0.4-0.4-0.8-0.7-1.2-1c-0.4-0.3-0.6-0.5-0.6-0.7c0-0.2,0.1-0.5,0.4-0.9
				c0.3-0.4,0.6-0.8,1-1.2c0.4-0.4,0.8-0.7,1.2-1C66.3,1.8,66.6,1.6,66.9,1.6z"/>
			<path class="st1" d="M80.6,27.9c0-0.2,0-0.7-0.1-1.5c-0.1-0.8-0.1-1.8-0.2-2.9c-0.1-1.2-0.2-2.4-0.4-3.8
				c-0.1-1.4-0.3-2.7-0.4-4.1c-0.1-0.7-0.1-1.4-0.2-2.2c-0.1-0.8-0.2-1.6-0.3-2.4c-0.1-0.8-0.1-1.5-0.2-2.2
				c-0.1-0.7-0.1-1.2-0.1-1.6c0-0.7,0.2-1.2,0.5-1.6C79.5,5.3,80,5,80.8,4.8c0.1,0,0.3-0.1,0.6-0.2c0.3-0.1,0.5-0.1,0.8-0.2
				c0.3-0.1,0.5-0.1,0.8-0.2c0.2-0.1,0.4-0.1,0.4-0.1c0.5,0,0.9,0.2,1,0.6c0.1,0.4,0.2,0.9,0.2,1.3c0,2.3,0.1,4.5,0.1,6.8
				c0,2.3,0.1,4.4,0.1,6.3c0,2,0.1,3.7,0.1,5.2c0,1.5,0.1,2.7,0.1,3.5v1c0,1.5-0.2,2.8-0.7,3.8c-0.4,1-1.1,1.9-2,2.5
				c-0.9,0.6-1.9,1.1-3.2,1.4C78,36.8,76.6,37,75,37c-0.4,0-0.8-0.2-1.1-0.5c-0.3-0.3-0.5-0.9-0.5-1.7v-1.6c0-0.8,0.2-1.4,0.7-1.7
				c0.5-0.4,1.1-0.5,1.8-0.5c1.2,0,2-0.1,2.7-0.2c0.6-0.1,1.1-0.3,1.4-0.5c0.3-0.2,0.5-0.6,0.5-0.9C80.6,28.9,80.6,28.4,80.6,27.9z"
				/>
			<path class="st1" d="M90.6,4.8c0.1,0,0.2,0,0.5-0.1c0.3-0.1,0.6-0.1,0.9-0.2c0.3-0.1,0.7-0.1,1-0.2c0.3-0.1,0.6-0.1,0.8-0.1
				c0.4,0,0.7,0.2,0.8,0.6c0.1,0.4,0.2,1,0.2,1.7c0,0.6,0,1.4,0.1,2.4c0,1,0.1,2.1,0.1,3.4c0,1.2,0.1,2.6,0.2,4
				c0.1,1.4,0.1,2.8,0.2,4.3c0,1.4,0.1,2.9,0.1,4.2c0,1.4,0,2.7,0,3.9c0,1.9-0.1,3.6-0.3,5c-0.2,1.4-0.5,2.3-1,2.8
				c-0.4,0.4-0.9,0.7-1.6,0.9c-0.7,0.2-1.2,0.3-1.7,0.3c-0.3,0-0.6,0-0.7-0.1c-0.1-0.1-0.2-0.3-0.2-0.6c0-0.1,0-0.2,0-0.4
				c0-0.2,0-0.3,0-0.5c0.1-0.7,0.1-1.7,0.3-3.1c0.1-1.4,0.2-3.2,0.2-5.6c0-2.3-0.1-4.4-0.2-6.5c-0.2-2.1-0.3-4-0.5-5.7
				c-0.2-1.7-0.3-3.3-0.5-4.7c-0.2-1.4-0.2-2.5-0.2-3.4c0-0.5,0.1-0.9,0.3-1.3C89.6,5.2,90,4.9,90.6,4.8z"/>
		</g>
		<g>
			<g>
				<g>
					<g>
						<g>
							<path class="st2" d="M4.3,31c0,0.9,0.2,1.7,0.5,2.4c0.3,0.7,0.8,1.2,1.4,1.6c0.6,0.4,1.2,0.7,2,0.9c0.8,0.2,1.6,0.3,2.4,0.3
								c1.2,0,2.4-0.2,3.4-0.5c1.1-0.3,2-0.8,2.8-1.5c0.8-0.7,1.4-1.5,1.9-2.6c0.5-1.1,0.7-2.4,0.7-4c0-0.2,0-0.8-0.1-1.8
								c-0.1-1-0.1-2.1-0.2-3.4c-0.1-1.3-0.2-2.7-0.3-4.2c-0.1-1.5-0.3-3-0.4-4.3c-0.1-0.7-0.1-1.4-0.3-2.2
								c-0.1-0.8-0.2-1.6-0.3-2.4c-0.1-0.8-0.2-1.5-0.2-2.2c-0.1-0.7-0.1-1.2-0.1-1.6c0-0.7,0.2-1.3,0.5-1.6
								c0.4-0.3,0.9-0.6,1.5-0.8c0.1,0,0.3-0.1,0.6-0.2c0.3-0.1,0.5-0.1,0.8-0.2c0.3-0.1,0.6-0.1,0.8-0.2c0.2-0.1,0.4-0.1,0.4-0.1
								c0.6,0,0.9,0.2,1,0.6c0.1,0.4,0.2,0.9,0.2,1.3c0,2.2,0.1,4.3,0.1,6.6c0,2.2,0.1,4.4,0.1,6.4c0,2,0.1,3.9,0.1,5.5
								c0,1.7,0.1,3,0.1,3.9c0.3,0.7,0.8,1.3,1.7,1.7c0.9,0.4,2.1,0.6,3.8,0.6c0.6,0,1.1,0.2,1.3,0.5c0.2,0.4,0.3,0.9,0.3,1.7v1.6
								c0,0.9-0.2,1.5-0.7,1.8c-0.5,0.3-1.1,0.5-1.9,0.5c-1.3,0-2.4-0.2-3.3-0.6c-0.9-0.4-1.6-0.9-2.2-1.5c-0.4,1.2-1,2.4-1.7,3.5
								c-0.7,1.1-1.6,2.1-2.6,2.9c-1.1,0.8-2.3,1.5-3.7,2c-1.4,0.5-3.1,0.7-4.9,0.7c-1.5,0-2.9-0.2-4.1-0.6c-1.2-0.4-2.3-1-3.1-1.7
								c-0.9-0.7-1.5-1.7-2-2.7C0.2,36.4,0,35.2,0,33.8c0-0.5,0.1-1.1,0.2-1.7c0.1-0.6,0.2-1.1,0.4-1.7c0.2-0.5,0.3-1.1,0.5-1.5
								c0.2-0.5,0.4-0.9,0.6-1.2c0.4-0.5,1.1-0.8,2.1-0.9c0.7-0.1,1,0.1,1,0.5c0,0.3-0.1,0.8-0.3,1.4C4.4,29.3,4.3,30.1,4.3,31z"/>
							<path class="st2" d="M34.8,25.5c-0.4-0.6-0.9-1.3-1.5-2c-0.6-0.7-1.2-1.2-2-1.5c-0.2-0.1-0.3-0.1-0.4-0.2
								c-0.1-0.1-0.1-0.2-0.1-0.4c0-0.1,0.1-0.4,0.2-0.8c0.1-0.4,0.2-0.8,0.4-1.3c0.1-0.5,0.3-0.9,0.4-1.3c0.1-0.4,0.2-0.7,0.3-0.7
								c0.1-0.2,0.3-0.4,0.5-0.5c0.2-0.1,0.4-0.2,0.7-0.3c1.7-0.5,3.4-0.9,4.9-1.3c1.5-0.4,3-0.5,4.4-0.5c1.5,0,2.6,0.2,3.5,0.6
								c0.9,0.4,1.6,0.9,2.1,1.5c0.5,0.6,0.9,1.3,1,2c0.2,0.7,0.3,1.3,0.3,1.9c0,1.4-0.3,2.7-1,4.1c-0.7,1.3-1.6,2.6-2.8,3.8
								c0.9,0.3,1.9,0.6,3.1,0.7c1.2,0.1,2.7,0.2,4.6,0.2c0.6,0,1.1,0.2,1.3,0.5c0.2,0.4,0.3,0.9,0.3,1.7v1.6c0,0.9-0.2,1.5-0.7,1.8
								c-0.5,0.3-1.1,0.5-1.9,0.5c-2.5,0-4.6-0.2-6.3-0.7c-1.7-0.4-3.3-1.1-4.7-1.9c-1.5,0.8-3.4,1.4-5.5,1.9
								c-2.1,0.4-4.6,0.7-7.4,0.7c-0.4,0-0.8-0.2-1.1-0.5c-0.3-0.3-0.5-0.9-0.5-1.7v-1.6c0-0.8,0.2-1.4,0.7-1.7
								c0.5-0.4,1.1-0.5,1.8-0.5c1.9,0,3.5-0.1,4.7-0.2c1.2-0.1,2.3-0.3,3.2-0.5c-0.6-0.6-1-1.1-1.4-1.6
								C35.5,26.5,35.1,26,34.8,25.5z M44.5,22.4c0-0.2,0-0.4-0.1-0.7c-0.1-0.2-0.2-0.5-0.5-0.7c-0.2-0.2-0.6-0.4-1-0.5
								c-0.4-0.1-1-0.2-1.8-0.2c-0.7,0-1.4,0.1-2.2,0.3c-0.8,0.2-1.5,0.4-2.1,0.6l0.5,0.7c0.6,0.7,1.2,1.4,1.9,2.2
								c0.7,0.8,1.5,1.5,2.4,2.1c0.9-0.5,1.6-1.2,2.1-1.9C44.3,23.6,44.5,23,44.5,22.4z"/>
							<path class="st2" d="M53.2,29.3c0.8,0,1.7,0,2.6-0.1c0.9,0,1.8-0.1,2.6-0.3c-0.5-0.7-1-1.5-1.4-2.4c-0.4-0.9-0.6-2.1-0.6-3.6
								c0-1.1,0.2-2.3,0.6-3.5c0.4-1.2,1-2.3,1.8-3.2c0.7-1,1.6-1.7,2.7-2.4c1-0.6,2.2-0.9,3.5-0.9c1.2,0,2.3,0.2,3.1,0.7
								c0.9,0.5,1.6,1,2.2,1.8c0.6,0.7,1,1.6,1.2,2.5c0.3,0.9,0.4,1.9,0.4,2.9c0,1.3-0.3,2.7-0.9,4.2c-0.6,1.5-1.5,2.8-2.7,3.9
								c0.7,0.2,1.5,0.2,2.5,0.3c1,0,2.1,0.1,3.4,0.1c0.6,0,1.1,0.2,1.3,0.5c0.2,0.4,0.3,0.9,0.3,1.7v1.6c0,0.9-0.2,1.5-0.7,1.8
								c-0.5,0.3-1.1,0.5-1.9,0.5c-4,0-7.3-0.7-10-2c-1.5,0.7-3.1,1.2-5,1.5c-1.8,0.3-3.9,0.5-6.1,0.5c-0.4,0-0.8-0.2-1.1-0.5
								c-0.3-0.3-0.5-0.9-0.5-1.7v-1.6c0-0.8,0.2-1.4,0.7-1.7C51.9,29.5,52.5,29.3,53.2,29.3z M60.9,23c0,0.8,0.2,1.5,0.7,2.2
								c0.5,0.7,1.2,1.3,2.2,1.8c1-0.5,1.9-1.2,2.6-2.1c0.7-0.9,1.1-1.9,1.1-2.8c0-0.4-0.1-0.8-0.2-1.2c-0.1-0.4-0.3-0.7-0.6-1.1
								c-0.3-0.3-0.6-0.6-1-0.8c-0.4-0.2-0.8-0.3-1.3-0.3c-0.5,0-0.9,0.1-1.4,0.3c-0.4,0.2-0.8,0.5-1.1,0.9
								c-0.3,0.4-0.6,0.8-0.8,1.4C61,21.9,60.9,22.5,60.9,23z M65.3,0c0.2,0,0.6,0.1,1,0.4c0.4,0.2,0.8,0.5,1.2,0.9
								C67.7,1.6,68,2,68.3,2.4c0.3,0.4,0.4,0.7,0.4,0.9c0,0.2-0.2,0.6-0.6,0.9c-0.4,0.4-0.8,0.7-1.2,1.1c-0.6,0.5-1,0.9-1.2,1.1
								c-0.2,0.2-0.4,0.4-0.7,0.4c-0.2,0-0.5-0.2-0.7-0.5c-0.3-0.3-0.6-0.7-1-1c-0.4-0.4-0.8-0.7-1.2-1c-0.4-0.3-0.6-0.5-0.6-0.7
								c0-0.2,0.1-0.5,0.4-0.9c0.3-0.4,0.6-0.8,1-1.2c0.4-0.4,0.8-0.7,1.2-1C64.7,0.1,65,0,65.3,0z"/>
							<path class="st2" d="M79,26.3c0-0.2,0-0.7-0.1-1.5c-0.1-0.8-0.1-1.8-0.2-2.9c-0.1-1.2-0.2-2.4-0.4-3.8
								c-0.1-1.4-0.3-2.7-0.4-4.1c-0.1-0.7-0.1-1.4-0.2-2.2c-0.1-0.8-0.2-1.6-0.3-2.4c-0.1-0.8-0.1-1.5-0.2-2.2
								c-0.1-0.7-0.1-1.2-0.1-1.6c0-0.7,0.2-1.2,0.5-1.6c0.3-0.3,0.8-0.6,1.6-0.8c0.1,0,0.3-0.1,0.6-0.2c0.3-0.1,0.5-0.1,0.8-0.2
								c0.3-0.1,0.5-0.1,0.8-0.2c0.2-0.1,0.4-0.1,0.4-0.1c0.5,0,0.9,0.2,1,0.6C82.9,3.5,83,4,83,4.5c0,2.3,0.1,4.5,0.1,6.8
								c0,2.3,0.1,4.4,0.1,6.3c0,2,0.1,3.7,0.1,5.2c0,1.5,0.1,2.7,0.1,3.5v1c0,1.5-0.2,2.8-0.7,3.8c-0.4,1-1.1,1.9-2,2.5
								c-0.9,0.6-1.9,1.1-3.2,1.4c-1.2,0.3-2.7,0.4-4.3,0.4c-0.4,0-0.8-0.2-1.1-0.5c-0.3-0.3-0.5-0.9-0.5-1.7v-1.6
								c0-0.8,0.2-1.4,0.7-1.7c0.5-0.4,1.1-0.5,1.8-0.5c1.2,0,2-0.1,2.7-0.2c0.6-0.1,1.1-0.3,1.4-0.5c0.3-0.2,0.5-0.6,0.5-0.9
								C79,27.2,79,26.8,79,26.3z"/>
							<path class="st2" d="M89,3.1c0.1,0,0.2,0,0.5-0.1c0.3-0.1,0.6-0.1,0.9-0.2c0.3-0.1,0.7-0.1,1-0.2c0.3-0.1,0.6-0.1,0.8-0.1
								c0.4,0,0.7,0.2,0.8,0.6c0.1,0.4,0.2,1,0.2,1.7c0,0.6,0,1.4,0.1,2.4c0,1,0.1,2.1,0.1,3.4c0,1.2,0.1,2.6,0.2,4
								c0.1,1.4,0.1,2.8,0.2,4.3c0,1.4,0.1,2.9,0.1,4.2c0,1.4,0,2.7,0,3.9c0,1.9-0.1,3.6-0.3,5c-0.2,1.4-0.5,2.3-1,2.8
								c-0.4,0.4-0.9,0.7-1.6,0.9c-0.7,0.2-1.2,0.3-1.7,0.3c-0.3,0-0.6,0-0.7-0.1c-0.1-0.1-0.2-0.3-0.2-0.6c0-0.1,0-0.2,0-0.4
								c0-0.2,0-0.3,0-0.5c0.1-0.7,0.1-1.7,0.3-3.1c0.1-1.4,0.2-3.2,0.2-5.6c0-2.3-0.1-4.4-0.2-6.5c-0.2-2.1-0.3-4-0.5-5.7
								c-0.2-1.7-0.3-3.3-0.5-4.7c-0.2-1.4-0.2-2.5-0.2-3.4c0-0.5,0.1-0.9,0.3-1.3C87.9,3.6,88.4,3.3,89,3.1z"/>
						</g>
					</g>
				</g>
			</g>
		</g>
	</g>
</g>
</svg>
