<?xml version="1.0" encoding="utf-8"?>
<!-- Generator: Adobe Illustrator 19.2.0, SVG Export Plug-In . SVG Version: 6.00 Build 0)  -->
<svg version="1.1" id="Layer_1" xmlns="http://www.w3.org/2000/svg" xmlns:xlink="http://www.w3.org/1999/xlink" x="0px" y="0px"
	 viewBox="0 0 94.9 47.6" style="enable-background:new 0 0 94.9 47.6;" xml:space="preserve">
<style type="text/css">
	.st0{opacity:0.75;}
	.st1{fill:#451900;}
	.st2{fill:#FFFFFF;}
</style>
<g>
	<g>
		<g class="st0">
			<path class="st1" d="M5.8,27.2c0,1,0.3,1.9,1,2.6c0.7,0.7,1.6,1.2,2.8,1.7c1.2,0.4,2.7,0.7,4.4,0.9c1.7,0.2,3.6,0.3,5.7,0.3
				c1.7,0,3.3,0,4.9-0.1c1.6-0.1,3.1-0.2,4.5-0.4c1.4-0.2,2.6-0.4,3.8-0.7c1.1-0.3,2.1-0.6,2.8-1c-1.1,0-2.3-0.1-3.4-0.3
				c-1.1-0.2-2.2-0.6-3.1-1.1c-0.9-0.5-1.6-1.1-2.2-2c-0.6-0.8-0.9-1.9-0.9-3.1c0-1.3,0.2-2.6,0.6-3.9c0.4-1.3,1-2.4,1.6-3.4
				c0.7-1,1.5-1.8,2.3-2.4c0.9-0.6,1.8-0.9,2.8-0.9c1.1,0,2.2,0.3,3.1,0.9c0.9,0.6,1.7,1.5,2.3,2.6c0.6,1.1,1.1,2.4,1.5,4
				c0.4,1.6,0.5,3.3,0.5,5.2c0,2.8-0.7,5.1-2,6.7c-1.3,1.7-3.1,3-5.4,3.8c-2.3,0.9-4.8,1.5-7.8,1.7c-2.9,0.3-6,0.4-9.2,0.4
				c-2.7,0-5-0.2-6.9-0.6c-1.9-0.4-3.5-1-4.7-1.7c-1.2-0.8-2.1-1.7-2.7-2.8c-0.6-1.1-0.9-2.3-0.9-3.7c0-0.6,0.1-1.1,0.2-1.7
				c0.1-0.6,0.2-1.1,0.4-1.7c0.2-0.6,0.3-1.1,0.6-1.5c0.2-0.5,0.4-0.9,0.6-1.2c0.4-0.5,1.1-0.8,2.1-0.9c0.7-0.1,1.1,0.1,1.1,0.5
				c0,0.3-0.1,0.8-0.3,1.4C5.9,25.5,5.8,26.2,5.8,27.2z M34,1.7c0.2,0,0.6,0.1,1,0.4c0.4,0.2,0.8,0.6,1.2,0.9
				c0.3,0.3,0.6,0.7,0.9,1.1c0.3,0.4,0.4,0.7,0.4,0.9c0,0.2-0.2,0.6-0.6,0.9c-0.4,0.4-0.8,0.8-1.2,1.1c-0.6,0.5-1,0.9-1.2,1.2
				c-0.2,0.2-0.4,0.4-0.7,0.4c-0.2,0-0.5-0.2-0.7-0.5c-0.3-0.4-0.6-0.7-1-1c-0.4-0.4-0.8-0.8-1.2-1.1c-0.4-0.3-0.6-0.6-0.6-0.7
				c0-0.2,0.1-0.5,0.4-0.9c0.3-0.4,0.6-0.8,1-1.2c0.4-0.4,0.8-0.7,1.2-1C33.4,1.8,33.7,1.7,34,1.7z M33.2,19.5
				c-0.4,0-0.7,0.1-1.1,0.3c-0.3,0.2-0.6,0.5-0.9,0.8c-0.3,0.3-0.5,0.7-0.6,1.1c-0.2,0.4-0.2,0.8-0.2,1.2c0,0.5,0.2,0.8,0.5,1.1
				c0.3,0.3,0.7,0.5,1.2,0.7c0.5,0.2,1.1,0.3,1.7,0.4c0.7,0.1,1.3,0.1,2,0.1c0.5,0,0.8,0,0.9,0c-0.2-1.7-0.6-3-1.2-4.1
				C35,20.1,34.3,19.5,33.2,19.5z"/>
			<path class="st1" d="M41.1,42.7c1.5-0.1,2.8-0.4,3.9-0.9c1.1-0.4,2.1-1,2.8-1.7c0.8-0.7,1.3-1.4,1.7-2.3c0.4-0.8,0.6-1.7,0.6-2.6
				c0-0.5-0.2-1.2-0.6-1.9c-0.4-0.8-1-1.8-1.7-3.1c-0.1-0.2-0.2-0.4-0.3-0.5c0-0.1-0.1-0.3-0.1-0.5c0-0.1,0.1-0.3,0.2-0.5
				c0.1-0.2,0.2-0.5,0.4-0.7c0.2-0.3,0.3-0.5,0.5-0.8c0.2-0.3,0.3-0.6,0.5-0.8c0.5-0.8,1-1.4,1.3-1.8c0.3-0.4,0.6-0.6,0.8-0.6
				c0.3,0,0.5,0.2,0.7,0.5c0.2,0.4,0.4,0.9,0.7,1.5c0.4,1,0.8,1.9,1.1,2.5c0.3,0.7,0.7,1.2,1.1,1.6c0.4,0.4,0.8,0.7,1.3,0.9
				c0.5,0.2,1,0.3,1.6,0.3c0.6,0,1.1,0.2,1.3,0.6c0.2,0.4,0.3,1,0.3,1.7v1.6c0,0.9-0.2,1.5-0.7,1.8c-0.5,0.3-1.1,0.5-1.9,0.5
				c-0.6,0-1.1-0.1-1.5-0.2c-0.4-0.2-0.8-0.4-1.1-0.7c-0.2,1.7-0.7,3.3-1.3,4.6c-0.6,1.4-1.4,2.5-2.2,3.5c-0.9,1-1.8,1.7-2.8,2.2
				c-1,0.5-2,0.8-2.9,0.8c-0.8,0-1.5-0.2-2.1-0.5c-0.6-0.3-1.2-0.7-1.7-1.2c-0.4-0.4-0.7-0.8-1-1.3c-0.3-0.5-0.5-0.9-0.5-1.2
				c0-0.2,0.1-0.4,0.3-0.6C40.2,42.8,40.6,42.7,41.1,42.7z"/>
			<path class="st1" d="M71.2,18.9c0-0.4,0-0.9-0.1-1.7c-0.1-0.8-0.2-1.7-0.3-2.6c-0.1-1-0.3-2-0.4-3.1c-0.2-1.1-0.3-2.1-0.4-3
				c-0.1-0.9-0.2-1.8-0.3-2.5c-0.1-0.7-0.1-1.2-0.1-1.5c0-0.7,0.2-1.3,0.6-1.6c0.4-0.3,0.9-0.6,1.5-0.8c0.1,0,0.3-0.1,0.6-0.2
				c0.3-0.1,0.5-0.1,0.8-0.2c0.3-0.1,0.6-0.1,0.8-0.2c0.2-0.1,0.4-0.1,0.4-0.1c0.6,0,0.9,0.2,1,0.6c0.1,0.4,0.2,0.9,0.2,1.4
				c0,2.3,0.1,4.2,0.1,5.8c0,1.6,0.1,2.9,0.1,3.9c0,1.1,0.1,1.9,0.1,2.6c0,0.7,0,1.2,0,1.7c0,1.3-0.2,2.4-0.6,3.3
				c-0.4,0.9-0.8,1.7-1.4,2.3c1.3,0.5,2.7,0.8,4.3,1.1c1.6,0.3,3.5,0.4,5.8,0.4c0.4,0,0.6,0,0.8,0.1c0.2,0.1,0.3,0.3,0.3,0.6
				c0,0.1,0,0.3-0.1,0.5c-0.1,0.2-0.2,0.5-0.3,0.9c-0.1,0.3-0.2,0.7-0.4,1c-0.1,0.4-0.3,0.7-0.3,1c-0.1,0.2-0.2,0.5-0.3,0.6
				c-0.1,0.2-0.2,0.3-0.4,0.4c-0.2,0.1-0.5,0.2-0.8,0.2c-0.3,0-0.8,0.1-1.3,0.1c-0.6,0-1.2,0.1-1.7,0.2c-0.6,0.1-1.1,0.3-1.7,0.5
				c-0.6,0.2-1.2,0.6-1.8,0.9c-0.6,0.4-1.3,0.8-2.1,1.4c-1.2,0.8-2.3,1.5-3.5,2.1c-1.1,0.6-2.3,1-3.6,1.4c-1.3,0.4-2.7,0.6-4.3,0.8
				c-1.6,0.2-3.4,0.2-5.5,0.2c-0.4,0-0.8-0.2-1.2-0.5c-0.3-0.4-0.5-0.9-0.5-1.7v-1.7c0-0.8,0.2-1.4,0.7-1.7c0.5-0.4,1.1-0.6,1.8-0.6
				c1.9,0,3.6-0.1,5-0.1c1.4,0,2.6-0.1,3.7-0.3c1-0.1,2-0.3,2.7-0.5c0.8-0.2,1.5-0.6,2.2-1c0.2-0.1,0.3-0.2,0.5-0.3
				c0.1-0.1,0.2-0.1,0.3-0.2c0.1-0.1,0.2-0.1,0.3-0.2c0.1-0.1,0.3-0.2,0.6-0.3c-1.6-0.6-3-1-4.2-1.1c-1.3-0.1-2.3-0.2-3.2-0.2
				c-0.5,0-0.9,0-1.4,0.1c-0.5,0-1,0.1-1.7,0.1c-0.7,0-1.1-0.2-1.1-0.6c0-0.2,0.1-0.4,0.2-0.7c0.1-0.3,0.3-0.6,0.4-0.9
				c0.2-0.3,0.3-0.6,0.5-0.9c0.2-0.3,0.3-0.5,0.4-0.7c0.5-0.7,0.9-1.4,1.4-1.9c0.5-0.5,1.1-0.8,1.9-0.8c0.2,0,0.6,0,1,0.1
				c0.4,0,0.8,0.1,1.2,0.1c0.4,0,0.7,0,1.1-0.1c0.4,0,0.7-0.1,1-0.3c0.3-0.2,0.5-0.4,0.7-0.6C71.2,19.7,71.2,19.4,71.2,18.9z"/>
			<path class="st1" d="M89.9,4.9c0.1,0,0.2,0,0.5-0.1c0.3-0.1,0.6-0.1,0.9-0.2c0.3-0.1,0.7-0.1,1-0.2c0.4-0.1,0.6-0.1,0.9-0.1
				c0.4,0,0.7,0.2,0.8,0.6c0.1,0.4,0.2,1,0.2,1.7c0,0.6,0,1.4,0.1,2.4c0,1,0.1,2.1,0.1,3.4c0,1.3,0.1,2.6,0.2,4
				c0.1,1.4,0.1,2.9,0.2,4.3c0,1.5,0.1,2.9,0.1,4.3c0,1.4,0,2.7,0,3.9c0,1.9-0.1,3.6-0.3,5c-0.2,1.4-0.5,2.4-1,2.9
				c-0.4,0.4-0.9,0.7-1.6,0.9c-0.7,0.2-1.3,0.3-1.7,0.3c-0.3,0-0.6,0-0.7-0.1c-0.1-0.1-0.2-0.3-0.2-0.6c0-0.1,0-0.2,0-0.4
				c0-0.2,0-0.3,0-0.5c0.1-0.7,0.1-1.7,0.3-3.1c0.1-1.4,0.2-3.3,0.2-5.7c0-2.3-0.1-4.5-0.2-6.6c-0.2-2.1-0.3-4-0.5-5.8
				c-0.2-1.8-0.3-3.3-0.5-4.7S88.3,7.9,88.3,7c0-0.5,0.1-1,0.3-1.3C88.8,5.4,89.2,5.1,89.9,4.9z"/>
		</g>
		<g>
			<g>
				<g>
					<g>
						<g>
							<g>
								<path class="st2" d="M4.3,25.7c0,1,0.3,1.9,1,2.6C6,29,6.9,29.6,8.1,30c1.2,0.4,2.7,0.7,4.4,0.9c1.7,0.2,3.6,0.3,5.7,0.3
									c1.7,0,3.3,0,4.9-0.1c1.6-0.1,3.1-0.2,4.5-0.4c1.4-0.2,2.6-0.4,3.8-0.7c1.1-0.3,2.1-0.6,2.8-1c-1.1,0-2.3-0.1-3.4-0.3
									c-1.1-0.2-2.2-0.6-3.1-1.1c-0.9-0.5-1.6-1.1-2.2-2c-0.6-0.8-0.9-1.9-0.9-3.1c0-1.3,0.2-2.6,0.6-3.9c0.4-1.3,1-2.4,1.6-3.4
									c0.7-1,1.5-1.8,2.3-2.4c0.9-0.6,1.8-0.9,2.8-0.9c1.1,0,2.2,0.3,3.1,0.9c0.9,0.6,1.7,1.5,2.3,2.6c0.6,1.1,1.1,2.4,1.5,4
									c0.4,1.6,0.5,3.3,0.5,5.2c0,2.8-0.7,5.1-2,6.7c-1.3,1.7-3.1,3-5.4,3.8c-2.3,0.9-4.8,1.5-7.8,1.7c-2.9,0.3-6,0.4-9.2,0.4
									c-2.7,0-5-0.2-6.9-0.6c-1.9-0.4-3.5-1-4.7-1.7c-1.2-0.8-2.1-1.7-2.7-2.8C0.3,31.1,0,29.9,0,28.5c0-0.6,0.1-1.1,0.2-1.7
									c0.1-0.6,0.2-1.1,0.4-1.7c0.2-0.6,0.3-1.1,0.6-1.5c0.2-0.5,0.4-0.9,0.6-1.2c0.4-0.5,1.1-0.8,2.1-0.9
									c0.7-0.1,1.1,0.1,1.1,0.5c0,0.3-0.1,0.8-0.3,1.4C4.4,24,4.3,24.7,4.3,25.7z M32.5,0.2c0.2,0,0.6,0.1,1,0.4
									c0.4,0.2,0.8,0.6,1.2,0.9c0.3,0.3,0.6,0.7,0.9,1.1c0.3,0.4,0.4,0.7,0.4,0.9c0,0.2-0.2,0.6-0.6,0.9c-0.4,0.4-0.8,0.8-1.2,1.1
									c-0.6,0.5-1,0.9-1.2,1.2c-0.2,0.2-0.4,0.4-0.7,0.4c-0.2,0-0.5-0.2-0.7-0.5c-0.3-0.4-0.6-0.7-1-1c-0.4-0.4-0.8-0.8-1.2-1.1
									C29,4.2,28.8,4,28.8,3.8c0-0.2,0.1-0.5,0.4-0.9c0.3-0.4,0.6-0.8,1-1.2c0.4-0.4,0.8-0.7,1.2-1C31.9,0.3,32.2,0.2,32.5,0.2z
									 M31.7,18c-0.4,0-0.7,0.1-1.1,0.3s-0.6,0.5-0.9,0.8c-0.3,0.3-0.5,0.7-0.6,1.1c-0.2,0.4-0.2,0.8-0.2,1.2
									c0,0.5,0.2,0.8,0.5,1.1c0.3,0.3,0.7,0.5,1.2,0.7c0.5,0.2,1.1,0.3,1.7,0.4c0.7,0.1,1.3,0.1,2,0.1c0.5,0,0.8,0,0.9,0
									c-0.2-1.7-0.6-3-1.2-4.1C33.5,18.6,32.8,18,31.7,18z"/>
								<path class="st2" d="M39.6,41.2c1.5-0.1,2.8-0.4,3.9-0.9c1.1-0.4,2.1-1,2.8-1.7c0.8-0.7,1.3-1.4,1.7-2.3
									c0.4-0.8,0.6-1.7,0.6-2.6c0-0.5-0.2-1.2-0.6-1.9c-0.4-0.8-1-1.8-1.7-3.1c-0.1-0.2-0.2-0.4-0.3-0.5c0-0.1-0.1-0.3-0.1-0.5
									c0-0.1,0.1-0.3,0.2-0.5s0.2-0.5,0.4-0.7c0.2-0.3,0.3-0.5,0.5-0.8c0.2-0.3,0.3-0.6,0.5-0.8c0.5-0.8,1-1.4,1.3-1.8
									c0.3-0.4,0.6-0.6,0.8-0.6c0.3,0,0.5,0.2,0.7,0.5c0.2,0.4,0.4,0.9,0.7,1.5c0.4,1,0.8,1.9,1.1,2.5c0.3,0.7,0.7,1.2,1.1,1.6
									c0.4,0.4,0.8,0.7,1.3,0.9c0.5,0.2,1,0.3,1.6,0.3c0.6,0,1.1,0.2,1.3,0.6c0.2,0.4,0.3,1,0.3,1.7v1.6c0,0.9-0.2,1.5-0.7,1.8
									C56.7,35.9,56,36,55.2,36c-0.6,0-1.1-0.1-1.5-0.2c-0.4-0.2-0.8-0.4-1.1-0.7c-0.2,1.7-0.7,3.3-1.3,4.6
									c-0.6,1.4-1.4,2.5-2.2,3.5c-0.9,1-1.8,1.7-2.8,2.2c-1,0.5-2,0.8-2.9,0.8c-0.8,0-1.5-0.2-2.1-0.5c-0.6-0.3-1.2-0.7-1.7-1.2
									c-0.4-0.4-0.7-0.8-1-1.3c-0.3-0.5-0.5-0.9-0.5-1.2c0-0.2,0.1-0.4,0.3-0.6C38.7,41.3,39.1,41.2,39.6,41.2z"/>
								<path class="st2" d="M69.7,17.4c0-0.4,0-0.9-0.1-1.7c-0.1-0.8-0.2-1.7-0.3-2.6c-0.1-1-0.3-2-0.4-3.1c-0.2-1.1-0.3-2.1-0.4-3
									c-0.1-0.9-0.2-1.8-0.3-2.5C68,3.8,68,3.4,68,3.1c0-0.7,0.2-1.3,0.6-1.6c0.4-0.3,0.9-0.6,1.5-0.8c0.1,0,0.3-0.1,0.6-0.2
									c0.3-0.1,0.5-0.1,0.8-0.2c0.3-0.1,0.6-0.1,0.8-0.2C72.5,0,72.6,0,72.7,0c0.6,0,0.9,0.2,1,0.6C73.9,1,73.9,1.5,73.9,2
									C74,4.3,74,6.2,74,7.8c0,1.6,0.1,2.9,0.1,3.9c0,1.1,0.1,1.9,0.1,2.6c0,0.7,0,1.2,0,1.7c0,1.3-0.2,2.4-0.6,3.3
									c-0.4,0.9-0.8,1.7-1.4,2.3c1.3,0.5,2.7,0.8,4.3,1.1c1.6,0.3,3.5,0.4,5.8,0.4c0.4,0,0.6,0,0.8,0.1c0.2,0.1,0.3,0.3,0.3,0.6
									c0,0.1,0,0.3-0.1,0.5c-0.1,0.2-0.2,0.5-0.3,0.9c-0.1,0.3-0.2,0.7-0.4,1c-0.1,0.4-0.3,0.7-0.3,1c-0.1,0.2-0.2,0.5-0.3,0.6
									c-0.1,0.2-0.2,0.3-0.4,0.4c-0.2,0.1-0.5,0.2-0.8,0.2c-0.3,0-0.8,0.1-1.3,0.1c-0.6,0-1.2,0.1-1.7,0.2
									c-0.6,0.1-1.1,0.3-1.7,0.5c-0.6,0.2-1.2,0.6-1.8,0.9c-0.6,0.4-1.3,0.8-2.1,1.4c-1.2,0.8-2.3,1.5-3.5,2.1
									c-1.1,0.6-2.3,1-3.6,1.4s-2.7,0.6-4.3,0.8c-1.6,0.2-3.4,0.2-5.5,0.2c-0.4,0-0.8-0.2-1.2-0.5c-0.3-0.4-0.5-0.9-0.5-1.7v-1.7
									c0-0.8,0.2-1.4,0.7-1.7c0.5-0.4,1.1-0.6,1.8-0.6c1.9,0,3.6-0.1,5-0.1c1.4,0,2.6-0.1,3.7-0.3c1-0.1,2-0.3,2.7-0.5
									c0.8-0.2,1.5-0.6,2.2-1c0.2-0.1,0.3-0.2,0.5-0.3c0.1-0.1,0.2-0.1,0.3-0.2c0.1-0.1,0.2-0.1,0.3-0.2c0.1-0.1,0.3-0.2,0.6-0.3
									c-1.6-0.6-3-1-4.2-1.1c-1.3-0.1-2.3-0.2-3.2-0.2c-0.5,0-0.9,0-1.4,0.1c-0.5,0-1,0.1-1.7,0.1c-0.7,0-1.1-0.2-1.1-0.6
									c0-0.2,0.1-0.4,0.2-0.7c0.1-0.3,0.3-0.6,0.4-0.9c0.2-0.3,0.3-0.6,0.5-0.9c0.2-0.3,0.3-0.5,0.4-0.7c0.5-0.7,0.9-1.4,1.4-1.9
									c0.5-0.5,1.1-0.8,1.9-0.8c0.2,0,0.6,0,1,0.1c0.4,0,0.8,0.1,1.2,0.1c0.4,0,0.7,0,1.1-0.1c0.4,0,0.7-0.1,1-0.3
									c0.3-0.2,0.5-0.4,0.7-0.6C69.7,18.2,69.7,17.9,69.7,17.4z"/>
								<path class="st2" d="M88.4,3.4c0.1,0,0.2,0,0.5-0.1c0.3-0.1,0.6-0.1,0.9-0.2c0.3-0.1,0.7-0.1,1-0.2c0.4-0.1,0.6-0.1,0.9-0.1
									c0.4,0,0.7,0.2,0.8,0.6c0.1,0.4,0.2,1,0.2,1.7c0,0.6,0,1.4,0.1,2.4c0,1,0.1,2.1,0.1,3.4c0,1.3,0.1,2.6,0.2,4
									c0.1,1.4,0.1,2.9,0.2,4.3c0,1.5,0.1,2.9,0.1,4.3c0,1.4,0,2.7,0,3.9c0,1.9-0.1,3.6-0.3,5c-0.2,1.4-0.5,2.4-1,2.9
									c-0.4,0.4-0.9,0.7-1.6,0.9c-0.7,0.2-1.3,0.3-1.7,0.3c-0.3,0-0.6,0-0.7-0.1s-0.2-0.3-0.2-0.6c0-0.1,0-0.2,0-0.4
									c0-0.2,0-0.3,0-0.5c0.1-0.7,0.1-1.7,0.3-3.1c0.1-1.4,0.2-3.3,0.2-5.7c0-2.3-0.1-4.5-0.2-6.6c-0.2-2.1-0.3-4-0.5-5.8
									c-0.2-1.8-0.3-3.3-0.5-4.7c-0.2-1.4-0.2-2.5-0.2-3.4c0-0.5,0.1-1,0.3-1.3C87.3,3.9,87.7,3.6,88.4,3.4z"/>
							</g>
						</g>
					</g>
				</g>
			</g>
		</g>
	</g>
</g>
</svg>
