<?xml version="1.0" encoding="utf-8"?>
<!-- Generator: Adobe Illustrator 19.2.0, SVG Export Plug-In . SVG Version: 6.00 Build 0)  -->
<svg version="1.1" id="Layer_1" xmlns="http://www.w3.org/2000/svg" xmlns:xlink="http://www.w3.org/1999/xlink" x="0px" y="0px"
	 viewBox="0 0 265.8 62.1" style="enable-background:new 0 0 265.8 62.1;" xml:space="preserve">
<style type="text/css">
	.st0{opacity:0.75;}
	.st1{fill:#451900;}
	.st2{fill:#FFFFFF;}
</style>
<g>
	<g>
		<g class="st0">
			<path class="st1" d="M2,29.4c-0.1-1.5-0.1-3-0.2-4.4c-0.1-1.4-0.1-2.7-0.2-3.7c-0.1-1.1-0.1-1.7-0.1-2c0-0.8,0.1-1.4,0.3-1.6
				c0.2-0.2,0.5-0.4,0.9-0.6C2.8,17,3,17,3.4,16.9c0.3-0.1,0.7-0.1,1-0.2c0.4-0.1,0.7-0.1,1-0.2c0.3-0.1,0.5-0.1,0.6-0.1
				c0.5,0,0.7,0.1,0.9,0.4c0.1,0.3,0.2,0.6,0.2,1.1c0,1.6,0,3.1,0,4.6c0,1.5,0,3.1,0,4.7c0,1.9,0.1,4,0.1,6.1c0,2.1,0,4.1,0,6
				c0,0.9,0.1,1.6,0.3,2.2c0.2,0.6,0.4,1,0.8,1.3c0.4,0.3,0.8,0.5,1.4,0.6c0.6,0.1,1.3,0.2,2.1,0.2c0.6,0,1.1,0.2,1.3,0.6
				c0.2,0.4,0.3,1,0.3,1.7v1.6c0,0.9-0.2,1.5-0.7,1.8c-0.5,0.3-1.1,0.5-1.9,0.5c-3,0-5.2-0.6-6.6-1.8c-1.4-1.2-2.1-3.2-2.1-6.1v-8.3
				C2.1,32.3,2.1,31,2,29.4z"/>
			<path class="st1" d="M32.9,43.5c0.6,0,1.1,0.2,1.3,0.6c0.2,0.4,0.3,1,0.3,1.7v1.6c0,0.9-0.2,1.5-0.7,1.8
				c-0.5,0.3-1.1,0.5-1.9,0.5h-3.7c0.6,0.6,1,1.4,1.4,2.4c0.4,1,0.6,2,0.6,3.3c0,0.7-0.1,1.5-0.4,2.3c-0.3,0.8-0.7,1.5-1.2,2.2
				c-0.6,0.7-1.3,1.2-2.1,1.7c-0.9,0.4-1.9,0.7-3.2,0.7c-1.1,0-2.2-0.2-3.3-0.7c-1.1-0.5-2.1-1.2-2.9-2.2c-0.9-1-1.5-2.2-2.1-3.7
				c-0.5-1.5-0.8-3.2-0.8-5.3v-0.6h-3.5c-0.4,0-0.8-0.2-1.2-0.5c-0.3-0.4-0.5-0.9-0.5-1.7v-1.7c0-0.8,0.2-1.4,0.7-1.7
				c0.5-0.4,1.1-0.6,1.9-0.6h3c0.2-1.8,0.7-3.5,1.2-5.1c0.6-1.6,1.3-3,2.1-4.3c0.8-1.2,1.7-2.2,2.7-2.9c1-0.7,2-1.1,3.1-1.1
				c1,0,1.8,0.2,2.5,0.7c0.7,0.5,1.3,1.1,1.7,1.9c0.5,0.8,0.8,1.6,1,2.5c0.2,0.9,0.3,1.8,0.3,2.7c0,1.1-0.1,2.1-0.4,3.2
				c-0.2,1-0.6,1.8-1,2.5H32.9z M23.3,56.5c0.8,0,1.4-0.2,1.8-0.7c0.4-0.4,0.6-1,0.6-1.7c0-0.5-0.1-1-0.3-1.5
				c-0.2-0.5-0.5-1-0.9-1.4c-0.4-0.4-0.9-0.8-1.6-1c-0.6-0.3-1.4-0.4-2.3-0.4H19v0.4c0,1.1,0.1,2,0.4,2.8c0.3,0.8,0.6,1.4,1,2
				c0.4,0.5,0.9,0.9,1.4,1.2C22.3,56.3,22.8,56.5,23.3,56.5z M21.9,43.5c0.5,0,1-0.1,1.4-0.4c0.4-0.3,0.7-0.6,1-1
				c0.3-0.4,0.5-0.9,0.6-1.4c0.1-0.5,0.2-1,0.2-1.4c0-0.8-0.1-1.5-0.4-2.1c-0.2-0.6-0.7-0.8-1.2-0.8c-0.5,0-0.9,0.2-1.3,0.6
				c-0.4,0.4-0.8,1-1.2,1.7c-0.4,0.7-0.7,1.4-0.9,2.3c-0.2,0.8-0.4,1.7-0.6,2.5H21.9z"/>
			<path class="st1" d="M46,50c-1,0-2.1-0.2-3.4-0.7c-1.3-0.5-2.6-1.3-4-2.6c-1.2,2-3.4,3-6.7,3c-0.4,0-0.8-0.2-1.2-0.5
				c-0.3-0.4-0.5-0.9-0.5-1.7v-1.7c0-0.8,0.2-1.4,0.7-1.7c0.5-0.4,1.1-0.6,1.9-0.6c0.4,0,0.8-0.1,1.1-0.2c0.3-0.1,0.6-0.3,0.9-0.6
				c0.3-0.3,0.6-0.7,0.8-1.3c0.3-0.6,0.6-1.3,1-2.2c0.7-1.5,1.3-2.8,2-3.8c0.7-1,1.3-1.8,2-2.4c0.7-0.6,1.3-1,1.9-1.2
				c0.6-0.2,1.2-0.3,1.8-0.3c1.2,0,2.2,0.3,3.2,1c1,0.6,1.8,1.5,2.4,2.4c0.7,1,1.2,2.1,1.6,3.3c0.4,1.2,0.6,2.4,0.6,3.5
				c0,1.1-0.1,2.1-0.4,3.1c-0.3,1-0.7,1.9-1.2,2.6c-0.5,0.8-1.2,1.4-2,1.8C47.8,49.8,46.9,50,46,50z M44,37.4
				c-0.6,0-1.2,0.4-1.8,1.1c-0.6,0.7-1.1,1.7-1.6,2.9c1,0.9,1.9,1.6,2.9,2c0.9,0.5,1.8,0.7,2.5,0.7c0.6,0,1-0.1,1.3-0.4
				c0.3-0.3,0.5-0.7,0.5-1.4c0-0.5-0.1-1-0.3-1.5c-0.2-0.6-0.4-1.1-0.8-1.6c-0.3-0.5-0.7-0.9-1.2-1.2C45,37.6,44.5,37.4,44,37.4z"/>
			<path class="st1" d="M94.4,43.5c0.6,0,1.2-0.2,1.7-0.5c0.5-0.3,0.8-0.7,1.1-1.2c-0.2-0.5-0.3-1-0.4-1.4c-0.1-0.5-0.2-1-0.2-1.5
				c0-0.3,0.1-0.6,0.3-0.9c0.2-0.3,0.6-0.7,1.3-1.2c0.3-0.2,0.7-0.5,1.1-0.7c0.4-0.2,0.7-0.3,0.8-0.3c0.3,0,0.6,0.2,0.8,0.6
				c0.2,0.4,0.4,0.9,0.5,1.6c0.2,0.9,0.4,1.7,0.6,2.4c0.2,0.7,0.5,1.3,0.8,1.8c0.3,0.5,0.7,0.8,1.2,1.1c0.5,0.2,1.1,0.3,1.9,0.3
				c0.6,0,1.1,0.2,1.3,0.6c0.2,0.4,0.3,1,0.3,1.7v1.6c0,0.9-0.2,1.5-0.7,1.8c-0.5,0.3-1.1,0.5-1.9,0.5c-1.6,0-2.8-0.2-3.8-0.6
				c-1-0.4-1.7-1.1-2.3-2c-0.5,0.7-1.2,1.3-2,1.8c-0.8,0.6-1.8,0.8-3,0.8c-0.4,0-0.8,0-1.2-0.1c-0.5-0.1-0.9-0.2-1.4-0.5
				c-0.5-0.2-0.9-0.5-1.3-0.9c-0.4-0.4-0.7-0.8-0.9-1.3c-0.6,0.9-1.4,1.6-2.2,2.1c-0.8,0.5-1.9,0.7-3.1,0.7c-1.2,0-2.3-0.3-3.3-0.8
				c-1-0.5-1.7-1.2-2.3-2.2c-0.8,1.1-2.1,2-4,2.7c-1.9,0.8-4.2,1.1-7,1.1c-3.7,0-6.5-0.7-8.3-2.2c-1.8-1.5-2.7-3.6-2.7-6.5v-8.3
				c0-1.2,0-2.6-0.1-4.1c0-1.5-0.1-3-0.2-4.4c-0.1-1.4-0.1-2.7-0.2-3.8c0-1.1-0.1-1.8-0.1-2.2c0-0.7,0.1-1.2,0.3-1.4
				c0.2-0.2,0.5-0.4,0.8-0.5c0.1,0,0.3-0.1,0.6-0.2c0.3-0.1,0.7-0.2,1.1-0.2c0.4-0.1,0.7-0.1,1.1-0.2c0.3-0.1,0.5-0.1,0.6-0.1
				c0.5,0,0.7,0.1,0.9,0.4c0.1,0.3,0.2,0.6,0.2,1.1c0,1.6,0,3.1,0,4.6c0,1.5,0,3.1,0,4.7c0,1.9,0.1,3.9,0.1,5.8c0,1.9,0,4,0,6.3
				c0,0.9,0.1,1.6,0.2,2.3c0.2,0.6,0.5,1.2,1,1.6c0.5,0.4,1.3,0.7,2.3,0.9c1,0.2,2.3,0.3,4,0.3c1.1,0,2-0.1,2.7-0.3
				c0.7-0.2,1.3-0.5,1.8-0.8c0.5-0.4,0.9-0.8,1.2-1.3c0.3-0.5,0.6-1.2,0.8-1.9c0.3-0.9,0.6-1.5,0.9-1.9c0.3-0.4,0.8-0.7,1.5-0.9
				c0.1,0,0.3-0.1,0.6-0.1c0.2-0.1,0.5-0.1,0.7-0.2c0.2,0,0.5-0.1,0.7-0.1c0.2,0,0.4-0.1,0.4-0.1c0.3,0,0.5,0.1,0.6,0.2
				c0.1,0.1,0.1,0.3,0.1,0.4c0,0.1,0,0.3-0.1,0.6c-0.1,0.2-0.2,0.5-0.3,0.8c-0.1,0.3-0.2,0.6-0.3,1c-0.1,0.3-0.1,0.7-0.1,1
				c0,1.8,1.1,2.8,3.3,2.8c0.5,0,0.8-0.1,1.1-0.2c0.3-0.1,0.5-0.4,0.7-0.6c0.2-0.3,0.4-0.7,0.5-1.1c0.2-0.4,0.4-1,0.6-1.6
				c0.3-0.8,0.7-1.4,1-1.8c0.3-0.4,0.8-0.7,1.5-0.9c0.1,0,0.3-0.1,0.5-0.1c0.2-0.1,0.5-0.1,0.7-0.2c0.3,0,0.5-0.1,0.7-0.1
				c0.2,0,0.4,0,0.4,0c0.3,0,0.5,0.1,0.6,0.2c0.1,0.1,0.1,0.3,0.1,0.4c0,0.1,0,0.3-0.1,0.6c-0.1,0.2-0.2,0.5-0.3,0.8
				c-0.1,0.3-0.2,0.6-0.3,1c-0.1,0.3-0.1,0.7-0.1,1c0,0.9,0.3,1.6,0.8,2.1C92.7,43.3,93.4,43.5,94.4,43.5z"/>
			<path class="st1" d="M106,43.5c1.9,0,3.5,0,4.9,0c1.3,0,2.4-0.1,3.3-0.2c0.9-0.1,1.6-0.2,2.1-0.4c0.5-0.2,0.9-0.4,1.1-0.7
				c-1.2,0-2.4-0.1-3.7-0.3c-1.2-0.2-2.3-0.6-3.2-1.1c-1-0.5-1.7-1.2-2.3-2c-0.6-0.8-0.9-1.9-0.9-3.2c0-1.2,0.2-2.5,0.6-3.7
				c0.4-1.2,0.9-2.4,1.6-3.4c0.7-1,1.4-1.8,2.3-2.4c0.9-0.6,1.9-0.9,2.9-0.9c1.1,0,2.1,0.4,3,1.1c0.9,0.7,1.7,1.7,2.4,2.9
				c0.7,1.2,1.2,2.7,1.5,4.4c0.4,1.7,0.6,3.6,0.6,5.6c0,2-0.3,3.6-0.8,5c-0.5,1.4-1.5,2.4-2.8,3.3c-1.3,0.8-3.1,1.4-5.3,1.8
				c-2.2,0.4-5,0.6-8.3,0.6c-0.4,0-0.8-0.2-1.2-0.5c-0.3-0.4-0.5-0.9-0.5-1.7v-1.7c0-0.8,0.2-1.4,0.7-1.7
				C104.6,43.7,105.2,43.5,106,43.5z M110.8,14c0.2,0,0.6,0.1,0.9,0.4c0.4,0.2,0.8,0.5,1.2,0.9c0.3,0.3,0.6,0.7,0.9,1.1
				c0.3,0.4,0.4,0.7,0.4,0.9c0,0.2-0.2,0.6-0.6,0.9c-0.4,0.4-0.8,0.8-1.2,1.1c-0.6,0.5-0.9,0.9-1.2,1.1c-0.2,0.2-0.4,0.4-0.7,0.4
				c-0.2,0-0.5-0.2-0.7-0.5c-0.3-0.4-0.6-0.7-1-1c-0.4-0.4-0.8-0.7-1.2-1.1c-0.4-0.3-0.6-0.5-0.6-0.7c0-0.2,0.1-0.5,0.4-0.9
				c0.3-0.4,0.6-0.8,1-1.2c0.4-0.4,0.8-0.7,1.2-1C110.2,14.1,110.5,14,110.8,14z M114.3,31.3c-0.4,0-0.7,0.1-1.1,0.3
				c-0.3,0.2-0.6,0.5-0.9,0.9c-0.3,0.4-0.5,0.7-0.6,1.1c-0.2,0.4-0.2,0.8-0.2,1.2c0,0.5,0.2,0.8,0.5,1.1c0.3,0.3,0.8,0.5,1.3,0.7
				c0.5,0.2,1.2,0.3,1.9,0.3c0.7,0.1,1.5,0.1,2.3,0.1c0.1,0,0.1,0,0.3,0c0.1,0,0.2,0,0.2,0c-0.2-1.7-0.6-3.1-1.2-4.1
				C116.1,31.8,115.3,31.3,114.3,31.3z M118.5,14c0.2,0,0.6,0.1,1,0.4c0.4,0.2,0.8,0.5,1.1,0.9c0.3,0.3,0.6,0.7,0.9,1.1
				c0.3,0.4,0.4,0.7,0.4,0.9c0,0.2-0.2,0.6-0.6,0.9c-0.4,0.4-0.8,0.8-1.2,1.1c-0.6,0.5-0.9,0.9-1.1,1.1c-0.2,0.2-0.4,0.4-0.7,0.4
				c-0.2,0-0.5-0.2-0.7-0.5c-0.3-0.4-0.6-0.7-1-1c-0.4-0.4-0.7-0.7-1.1-1.1c-0.4-0.3-0.6-0.5-0.6-0.7c0-0.2,0.1-0.5,0.4-0.9
				c0.3-0.4,0.6-0.8,1-1.2c0.4-0.4,0.8-0.7,1.2-1C117.9,14.1,118.2,14,118.5,14z"/>
			<path class="st1" d="M133.5,8.6c0,0.8-0.2,1.4-0.5,1.7c-0.4,0.3-1,0.6-1.9,0.9c-0.9,0.3-1.8,0.7-2.5,1c-0.8,0.3-1.4,0.6-2,0.9
				c-0.6,0.3-1,0.5-1.4,0.7c-0.3,0.2-0.5,0.3-0.6,0.3c-0.1,0-0.2-0.1-0.2-0.4c0-0.5,0.1-1,0.2-1.7c0.1-0.7,0.3-1.1,0.5-1.3
				c0.2-0.1,0.3-0.2,0.5-0.3c0.2-0.1,0.5-0.3,1-0.5c-0.4-0.2-0.7-0.6-1-1c-0.3-0.4-0.5-1-0.5-1.6c0-0.7,0.2-1.5,0.5-2.2
				c0.3-0.7,0.8-1.3,1.3-1.9c0.5-0.5,1.1-1,1.8-1.3c0.7-0.3,1.3-0.5,2-0.5c0.5,0,0.8,0.1,1.2,0.3c0.3,0.2,0.5,0.6,0.5,1.1
				c0,0.4,0,0.8-0.1,1.3c-0.1,0.5-0.2,0.7-0.4,0.7c-0.2,0-0.4-0.1-0.7-0.2c-0.3-0.1-0.7-0.2-1.3-0.2c-0.5,0-1,0.2-1.6,0.5
				c-0.5,0.3-0.8,0.8-0.8,1.5c0,0.6,0.2,1,0.7,1.3c0.4,0.3,1,0.4,1.6,0.4c0.5,0,0.9-0.1,1.2-0.2c0.4-0.1,0.7-0.2,0.9-0.4
				c0.3-0.1,0.5-0.3,0.7-0.4c0.2-0.1,0.4-0.2,0.5-0.2c0.2,0,0.3,0.1,0.3,0.4S133.5,8.3,133.5,8.6z M127.6,17.1c0.1,0,0.2,0,0.5-0.1
				c0.3-0.1,0.6-0.1,0.9-0.2c0.3-0.1,0.7-0.1,1-0.2c0.4-0.1,0.6-0.1,0.9-0.1c0.4,0,0.7,0.2,0.8,0.6c0.1,0.4,0.2,1,0.2,1.7
				c0,0.6,0,1.4,0.1,2.4c0,1,0.1,2.1,0.1,3.4c0,1.3,0.1,2.6,0.2,4c0.1,1.4,0.1,2.9,0.2,4.3c0,1.5,0.1,2.9,0.1,4.3c0,1.4,0,2.7,0,3.9
				c0,1.9-0.1,3.6-0.3,5c-0.2,1.4-0.5,2.4-1,2.9c-0.4,0.4-0.9,0.7-1.6,0.9c-0.7,0.2-1.3,0.3-1.7,0.3c-0.3,0-0.6,0-0.7-0.1
				c-0.1-0.1-0.2-0.3-0.2-0.6c0-0.1,0-0.2,0-0.4c0-0.2,0-0.3,0-0.5c0.1-0.7,0.1-1.7,0.3-3.1s0.2-3.3,0.2-5.7c0-2.3-0.1-4.5-0.2-6.6
				c-0.2-2.1-0.3-4-0.5-5.8c-0.2-1.8-0.3-3.3-0.5-4.7c-0.2-1.4-0.2-2.5-0.2-3.4c0-0.5,0.1-1,0.3-1.3
				C126.5,17.5,126.9,17.3,127.6,17.1z"/>
			<path class="st1" d="M137.7,53.7c1.7-0.2,3.2-0.6,4.5-1.1c1.2-0.5,2.2-1,3.1-1.6c0.8-0.6,1.4-1.2,1.8-1.9c0.4-0.7,0.6-1.3,0.7-2
				c-1,0.4-2.2,0.6-3.5,0.6c-2.1,0-3.8-0.5-5.2-1.6c-1.3-1-2-2.6-2-4.7c0-1.3,0.2-2.6,0.6-3.9c0.4-1.3,0.9-2.4,1.5-3.3
				c0.7-1,1.4-1.7,2.3-2.3c0.9-0.6,1.9-0.9,3-0.9c1.2,0,2.3,0.3,3.2,1c0.9,0.7,1.7,1.6,2.4,2.8c0.6,1.2,1.1,2.6,1.5,4.2
				c0.4,1.6,0.5,3.3,0.5,5.1c0,2.4-0.3,4.4-0.9,6.2c-0.6,1.8-1.4,3.3-2.4,4.5c-1,1.2-2.1,2.1-3.4,2.7c-1.3,0.6-2.5,0.9-3.8,0.9
				c-0.8,0-1.5-0.2-2.1-0.5c-0.6-0.3-1.2-0.7-1.7-1.2c-0.1-0.1-0.2-0.2-0.4-0.5c-0.2-0.2-0.3-0.4-0.5-0.7c-0.2-0.2-0.3-0.5-0.4-0.7
				c-0.1-0.2-0.2-0.4-0.2-0.5c0-0.2,0.1-0.4,0.3-0.6C136.7,53.9,137.1,53.8,137.7,53.7z M144.1,37.3c-0.5,0-0.9,0.1-1.3,0.3
				c-0.4,0.2-0.7,0.5-1,0.8c-0.3,0.3-0.5,0.6-0.6,1c-0.1,0.4-0.2,0.7-0.2,1.1c0,0.8,0.3,1.3,1,1.5c0.7,0.2,1.4,0.4,2.3,0.4
				c0.6,0,1.2,0,1.8-0.1c0.6-0.1,1.1-0.2,1.5-0.3c-0.1-1.3-0.5-2.3-1.1-3.2C145.9,37.7,145.1,37.3,144.1,37.3z"/>
			<path class="st1" d="M184.3,43.5c0.6,0,1.1,0.2,1.3,0.6c0.2,0.4,0.3,1,0.3,1.7v1.6c0,0.9-0.2,1.5-0.7,1.8
				c-0.5,0.3-1.1,0.5-1.9,0.5c-1,0-1.9-0.1-2.6-0.2c-0.7-0.2-1.3-0.4-1.8-0.7c-0.5-0.3-0.9-0.7-1.3-1.1c-0.3-0.4-0.6-0.9-0.8-1.5
				c-1.4,0.6-3,0.9-4.7,0.9c-1,0-1.9-0.1-2.7-0.4c-0.8-0.3-1.6-0.6-2.2-1.1c-0.6-0.5-1.1-1.1-1.4-1.8c-0.4-0.7-0.5-1.5-0.5-2.3
				c0-0.7,0.1-1.6,0.4-2.5c0.3-0.9,0.8-1.9,1.4-2.9c0.7-1,1.6-2,2.7-3.1c1.1-1,2.6-2,4.4-3c0,0,0-0.1,0-0.1c0,0,0,0,0-0.1
				c-0.1-0.3-0.1-0.5-0.2-0.8c-0.1-0.3-0.1-0.5-0.1-0.7c0-0.3,0.3-0.7,1-1.1c0.6-0.4,1.3-0.8,2.1-1.2c0.1-0.1,0.3-0.1,0.5-0.2
				c0.2-0.1,0.4-0.1,0.6-0.1c0.2,0,0.3,0.1,0.5,0.2c0.2,0.1,0.3,0.4,0.3,1c0.3,4,0.6,7,0.9,9.3c0.3,2.2,0.6,3.9,1,5
				c0.4,1.1,0.9,1.8,1.4,2C182.8,43.4,183.5,43.5,184.3,43.5z M170.1,14.4c0.2,0,0.6,0.1,0.9,0.4c0.4,0.2,0.8,0.5,1.2,0.9
				c0.3,0.3,0.6,0.7,0.9,1.1c0.3,0.4,0.4,0.7,0.4,0.9c0,0.2-0.2,0.6-0.6,0.9c-0.4,0.4-0.8,0.8-1.2,1.1c-0.6,0.5-0.9,0.9-1.2,1.1
				c-0.2,0.2-0.4,0.4-0.7,0.4c-0.2,0-0.5-0.2-0.7-0.5c-0.3-0.4-0.6-0.7-1-1c-0.4-0.4-0.8-0.7-1.2-1.1c-0.4-0.3-0.6-0.5-0.6-0.7
				c0-0.2,0.1-0.5,0.4-0.9c0.3-0.4,0.6-0.8,1-1.2c0.4-0.4,0.8-0.7,1.2-1C169.5,14.6,169.8,14.4,170.1,14.4z M172.6,41.5
				c0.8,0,1.4,0,1.9-0.1c0.5-0.1,0.9-0.2,1.2-0.3c-0.2-0.9-0.3-1.7-0.4-2.6c-0.1-0.9-0.3-1.9-0.4-3.3c-1.1,0.4-1.9,0.9-2.6,1.3
				c-0.7,0.4-1.2,0.8-1.6,1.2c-0.4,0.4-0.6,0.7-0.8,1.1c-0.1,0.3-0.2,0.6-0.2,0.8c0,0.2,0,0.4,0.1,0.7c0.1,0.2,0.2,0.4,0.4,0.6
				c0.2,0.2,0.5,0.3,0.9,0.5C171.5,41.4,172,41.5,172.6,41.5z M177.8,14.4c0.2,0,0.6,0.1,1,0.4c0.4,0.2,0.8,0.5,1.2,0.9
				c0.3,0.3,0.6,0.7,0.9,1.1c0.3,0.4,0.4,0.7,0.4,0.9c0,0.2-0.2,0.6-0.6,0.9c-0.4,0.4-0.8,0.8-1.2,1.1c-0.6,0.5-0.9,0.9-1.1,1.1
				c-0.2,0.2-0.4,0.4-0.7,0.4c-0.2,0-0.5-0.2-0.7-0.5c-0.3-0.4-0.6-0.7-1-1c-0.4-0.4-0.7-0.7-1.1-1.1c-0.4-0.3-0.6-0.5-0.6-0.7
				c0-0.2,0.1-0.5,0.4-0.9c0.3-0.4,0.6-0.8,1-1.2c0.4-0.4,0.8-0.7,1.2-1C177.2,14.6,177.5,14.4,177.8,14.4z"/>
			<path class="st1" d="M196.9,50.1c-0.9,0-1.9-0.3-3.2-0.8c-1.2-0.5-2.4-1.5-3.4-2.9c-0.6,0.8-1.1,1.4-1.6,1.9
				c-0.5,0.4-1.1,0.8-1.6,1c-0.6,0.2-1.1,0.4-1.7,0.4c-0.6,0-1.3,0.1-1.9,0.1c-0.4,0-0.8-0.2-1.2-0.5c-0.3-0.4-0.5-0.9-0.5-1.7v-1.7
				c0-0.8,0.2-1.4,0.7-1.7c0.5-0.4,1.1-0.6,1.9-0.6c0.5,0,0.9-0.1,1.2-0.2c0.4-0.1,0.7-0.4,1-0.8c0.3-0.4,0.6-0.9,0.9-1.5
				c0.3-0.6,0.6-1.4,1-2.3c1-2.6,2.1-4.5,3.2-5.6c1.2-1.1,2.4-1.7,3.7-1.7c1.5,0,2.9,0.7,4.1,2c1.2,1.3,2.3,3,3.3,4.9
				c0.6,1.2,1.1,2.2,1.6,2.9c0.4,0.7,0.8,1.2,1.2,1.6c0.4,0.4,0.8,0.6,1.1,0.6c0.4,0.1,0.8,0.1,1.2,0.1c0.6,0,1.1,0.2,1.3,0.6
				c0.2,0.4,0.3,1,0.3,1.7v1.6c0,0.9-0.2,1.5-0.7,1.8c-0.5,0.3-1.1,0.5-1.9,0.5c-1.1,0-2-0.2-2.8-0.5c-0.8-0.3-1.5-1-2.2-2
				c-0.7,1-1.4,1.7-2.2,2.2C199,49.8,198,50.1,196.9,50.1z M195.1,37.6c-0.4,0-0.7,0.1-1,0.4c-0.3,0.3-0.6,0.6-0.8,0.9
				c-0.2,0.4-0.5,0.8-0.6,1.2c-0.2,0.4-0.3,0.8-0.4,1.2c0.6,0.8,1.4,1.5,2.5,2c1.1,0.5,2.1,0.8,3.2,0.8c0.6,0,1.1-0.1,1.4-0.3
				c0.3-0.2,0.5-0.5,0.5-0.8c0-0.4-0.1-0.9-0.4-1.5c-0.3-0.6-0.6-1.2-1-1.8c-0.4-0.6-0.9-1.1-1.5-1.5
				C196.2,37.8,195.6,37.6,195.1,37.6z"/>
			<path class="st1" d="M218,39.7c0,0.8,0.2,1.4,0.5,1.9c0.3,0.5,0.7,0.9,1.2,1.1c0.5,0.3,1.1,0.5,1.8,0.6c0.7,0.1,1.5,0.2,2.3,0.2
				c0.6,0,1.1,0.2,1.3,0.6c0.2,0.4,0.3,1,0.3,1.7v1.6c0,0.9-0.2,1.5-0.7,1.8c-0.5,0.3-1.1,0.5-1.9,0.5c-1.5,0-2.8-0.2-4-0.7
				c-1.2-0.4-2.2-1.2-3-2.4c-0.9,1.2-2.1,2-3.6,2.4c-1.5,0.4-3.3,0.6-5.3,0.6c-0.4,0-0.8-0.2-1.2-0.5c-0.3-0.4-0.5-0.9-0.5-1.7v-1.7
				c0-0.8,0.2-1.4,0.7-1.7c0.5-0.4,1.1-0.6,1.9-0.6c1.2,0,2.1-0.1,2.9-0.2c0.8-0.2,1.3-0.4,1.7-0.7c0.4-0.3,0.7-0.7,0.9-1.1
				c0.2-0.5,0.2-1,0.2-1.7c0-0.2,0-0.7-0.1-1.4c-0.1-0.8-0.2-1.7-0.3-2.7c-0.1-1.1-0.3-2.2-0.4-3.6c-0.1-1.3-0.3-2.7-0.4-4
				c-0.1-0.7-0.1-1.4-0.2-2.3c-0.1-0.8-0.2-1.6-0.3-2.4c-0.1-0.8-0.1-1.5-0.2-2.2c-0.1-0.7-0.1-1.2-0.1-1.7c0-0.7,0.2-1.3,0.6-1.6
				c0.4-0.3,0.9-0.6,1.5-0.8c0.1,0,0.3-0.1,0.6-0.2c0.3-0.1,0.5-0.1,0.8-0.2c0.3-0.1,0.6-0.1,0.8-0.2c0.2-0.1,0.4-0.1,0.4-0.1
				c0.6,0,0.9,0.2,1,0.6c0.1,0.4,0.2,0.9,0.2,1.4c0,2.3,0.1,4.5,0.1,6.6c0,2.1,0.1,4,0.1,5.8c0,1.8,0.1,3.3,0.1,4.7
				c0,1.3,0.1,2.4,0.1,3.3V39.7z"/>
			<path class="st1" d="M223.6,28.6c0-0.3,0.1-0.8,0.3-1.5c0.2-0.7,0.5-1.4,0.8-2.1c0.3-0.7,0.6-1.4,0.9-2c0.3-0.6,0.6-1,0.8-1.1
				c0.6-0.3,1.4-0.7,2.5-1.2c1.1-0.4,2.3-0.9,3.6-1.4c1.3-0.5,2.6-0.9,4-1.4c1.4-0.5,2.6-0.9,3.8-1.2c1.2-0.4,2.1-0.7,2.9-0.9
				c0.8-0.2,1.3-0.3,1.4-0.3c0.3,0,0.5,0.3,0.5,0.8l-0.5,2.6c-0.1,0.5-0.2,0.9-0.3,1.2c-0.1,0.3-0.3,0.5-0.5,0.7
				c-0.2,0.2-0.4,0.3-0.6,0.4c-0.2,0.1-0.5,0.2-0.8,0.3c-1.5,0.5-3,0.9-4.4,1.4c-1.4,0.5-2.7,0.9-3.8,1.3c-1.2,0.4-2.2,0.8-3.1,1.1
				c-0.9,0.4-1.6,0.7-2.1,0.9c0.3,0.6,0.8,1.3,1.4,2.3c0.5,0.8,1.2,1.9,2.1,3.3c0.9,1.4,2.1,3.2,3.6,5.3c0.9,1.3,1.8,2.4,2.5,3.2
				c0.8,0.8,1.5,1.5,2.2,2c0.7,0.5,1.5,0.8,2.3,1c0.8,0.2,1.6,0.3,2.5,0.3c0.6,0,1.1,0.2,1.3,0.6c0.2,0.4,0.3,1,0.3,1.7v1.6
				c0,0.9-0.2,1.5-0.7,1.8c-0.5,0.3-1.1,0.5-1.9,0.5c-1.7,0-3.3-0.3-4.9-1c-1.5-0.7-3.1-1.9-4.6-3.7c-0.3,0.6-0.8,1.3-1.3,1.8
				c-0.6,0.6-1.3,1.1-2.3,1.5c-1,0.4-2.1,0.8-3.5,1c-1.4,0.2-3.2,0.4-5.2,0.4c-0.4,0-0.8-0.2-1.2-0.5c-0.3-0.4-0.5-0.9-0.5-1.7v-1.7
				c0-0.8,0.2-1.4,0.7-1.7c0.5-0.4,1.1-0.6,1.9-0.6c1.5,0,2.8-0.1,3.8-0.2c1-0.1,1.8-0.3,2.4-0.5c0.6-0.2,1-0.4,1.3-0.7
				c0.3-0.3,0.4-0.6,0.4-0.8c0-0.4-0.2-0.9-0.6-1.6c-0.4-0.7-0.9-1.5-1.4-2.4c-0.6-0.9-1.2-1.8-1.9-2.7c-0.7-0.9-1.3-1.8-1.9-2.6
				c-0.6-0.7-1.1-1.4-1.5-2.1C223.9,29.3,223.6,28.8,223.6,28.6z"/>
			<path class="st1" d="M250.4,40.5c0-0.2,0-0.7-0.1-1.5c-0.1-0.8-0.1-1.8-0.3-3c-0.1-1.2-0.2-2.4-0.4-3.8c-0.1-1.4-0.3-2.8-0.4-4.1
				c-0.1-0.7-0.1-1.4-0.2-2.3c-0.1-0.8-0.2-1.6-0.3-2.4c-0.1-0.8-0.1-1.5-0.2-2.2c-0.1-0.7-0.1-1.2-0.1-1.7c0-0.7,0.2-1.3,0.5-1.6
				c0.3-0.3,0.8-0.6,1.6-0.9c0.1,0,0.3-0.1,0.6-0.2c0.3-0.1,0.5-0.1,0.8-0.2c0.3-0.1,0.6-0.1,0.8-0.2c0.2-0.1,0.4-0.1,0.4-0.1
				c0.6,0,0.9,0.2,1,0.6c0.1,0.4,0.2,0.9,0.2,1.4c0,2.3,0.1,4.6,0.1,6.9c0,2.3,0.1,4.4,0.1,6.4c0,2,0.1,3.8,0.1,5.3
				c0,1.5,0.1,2.7,0.1,3.5v1c0,1.5-0.2,2.8-0.7,3.9c-0.4,1-1.1,1.9-2,2.5c-0.9,0.6-1.9,1.1-3.2,1.4c-1.3,0.3-2.7,0.4-4.3,0.4
				c-0.4,0-0.8-0.2-1.2-0.5c-0.3-0.4-0.5-0.9-0.5-1.7v-1.7c0-0.8,0.2-1.4,0.7-1.7c0.5-0.4,1.1-0.6,1.9-0.6c1.2,0,2.1-0.1,2.7-0.2
				c0.6-0.1,1.1-0.3,1.4-0.6c0.3-0.2,0.5-0.6,0.6-0.9C250.4,41.5,250.4,41,250.4,40.5z"/>
			<path class="st1" d="M260.5,17.1c0.1,0,0.2,0,0.5-0.1c0.3-0.1,0.6-0.1,0.9-0.2c0.3-0.1,0.7-0.1,1-0.2c0.4-0.1,0.6-0.1,0.9-0.1
				c0.4,0,0.7,0.2,0.8,0.6c0.1,0.4,0.2,1,0.2,1.7c0,0.6,0,1.4,0.1,2.4c0,1,0.1,2.1,0.1,3.4c0,1.3,0.1,2.6,0.2,4
				c0.1,1.4,0.1,2.9,0.2,4.3c0,1.5,0.1,2.9,0.1,4.3c0,1.4,0,2.7,0,3.9c0,1.9-0.1,3.6-0.3,5c-0.2,1.4-0.5,2.4-1,2.9
				c-0.4,0.4-0.9,0.7-1.6,0.9c-0.7,0.2-1.3,0.3-1.7,0.3c-0.3,0-0.6,0-0.7-0.1c-0.1-0.1-0.2-0.3-0.2-0.6c0-0.1,0-0.2,0-0.4
				c0-0.2,0-0.3,0-0.5c0.1-0.7,0.1-1.7,0.3-3.1c0.1-1.4,0.2-3.3,0.2-5.7c0-2.3-0.1-4.5-0.2-6.6c-0.2-2.1-0.3-4-0.5-5.8
				c-0.2-1.8-0.3-3.3-0.5-4.7s-0.2-2.5-0.2-3.4c0-0.5,0.1-1,0.3-1.3C259.5,17.5,259.9,17.3,260.5,17.1z"/>
		</g>
		<g>
			<g>
				<g>
					<g>
						<g>
							<g>
								<path class="st2" d="M0.5,27.9c-0.1-1.5-0.1-3-0.2-4.4c-0.1-1.4-0.1-2.7-0.2-3.7C0,18.7,0,18,0,17.8c0-0.8,0.1-1.4,0.3-1.6
									c0.2-0.2,0.5-0.4,0.9-0.6c0.1,0,0.3-0.1,0.6-0.1c0.3-0.1,0.7-0.1,1-0.2c0.4-0.1,0.7-0.1,1-0.2c0.3-0.1,0.5-0.1,0.6-0.1
									c0.5,0,0.7,0.1,0.9,0.4c0.1,0.3,0.2,0.6,0.2,1.1c0,1.6,0,3.1,0,4.6c0,1.5,0,3.1,0,4.7c0,1.9,0.1,4,0.1,6.1c0,2.1,0,4.1,0,6
									c0,0.9,0.1,1.6,0.3,2.2c0.2,0.6,0.4,1,0.8,1.3c0.4,0.3,0.8,0.5,1.4,0.6C8.7,42,9.4,42,10.2,42c0.6,0,1.1,0.2,1.3,0.6
									c0.2,0.4,0.3,1,0.3,1.7V46c0,0.9-0.2,1.5-0.7,1.8c-0.5,0.3-1.1,0.5-1.9,0.5c-3,0-5.2-0.6-6.6-1.8c-1.4-1.2-2.1-3.2-2.1-6.1
									v-8.3C0.6,30.8,0.6,29.5,0.5,27.9z"/>
								<path class="st2" d="M31.4,42c0.6,0,1.1,0.2,1.3,0.6c0.2,0.4,0.3,1,0.3,1.7V46c0,0.9-0.2,1.5-0.7,1.8
									c-0.5,0.3-1.1,0.5-1.9,0.5h-3.7c0.6,0.6,1,1.4,1.4,2.4c0.4,1,0.6,2,0.6,3.3c0,0.7-0.1,1.5-0.4,2.3c-0.3,0.8-0.7,1.5-1.2,2.2
									C26.6,59,25.9,59.5,25,60c-0.9,0.4-1.9,0.7-3.2,0.7c-1.1,0-2.2-0.2-3.3-0.7c-1.1-0.5-2.1-1.2-2.9-2.2
									c-0.9-1-1.5-2.2-2.1-3.7c-0.5-1.5-0.8-3.2-0.8-5.3v-0.6H9.3c-0.4,0-0.8-0.2-1.2-0.5c-0.3-0.4-0.5-0.9-0.5-1.7v-1.7
									c0-0.8,0.2-1.4,0.7-1.7c0.5-0.4,1.1-0.6,1.9-0.6h3c0.2-1.8,0.7-3.5,1.2-5.1c0.6-1.6,1.3-3,2.1-4.3c0.8-1.2,1.7-2.2,2.7-2.9
									c1-0.7,2-1.1,3.1-1.1c1,0,1.8,0.2,2.5,0.7c0.7,0.5,1.3,1.1,1.7,1.9c0.5,0.8,0.8,1.6,1,2.5c0.2,0.9,0.3,1.8,0.3,2.7
									c0,1.1-0.1,2.1-0.4,3.2c-0.2,1-0.6,1.8-1,2.5H31.4z M21.8,55c0.8,0,1.4-0.2,1.8-0.7c0.4-0.4,0.6-1,0.6-1.7
									c0-0.5-0.1-1-0.3-1.5c-0.2-0.5-0.5-1-0.9-1.4c-0.4-0.4-0.9-0.8-1.6-1c-0.6-0.3-1.4-0.4-2.3-0.4h-1.7v0.4
									c0,1.1,0.1,2,0.4,2.8c0.3,0.8,0.6,1.4,1,2c0.4,0.5,0.9,0.9,1.4,1.2C20.8,54.8,21.3,55,21.8,55z M20.4,42
									c0.5,0,1-0.1,1.4-0.4c0.4-0.3,0.7-0.6,1-1c0.3-0.4,0.5-0.9,0.6-1.4c0.1-0.5,0.2-1,0.2-1.4c0-0.8-0.1-1.5-0.4-2.1
									c-0.2-0.6-0.7-0.8-1.2-0.8c-0.5,0-0.9,0.2-1.3,0.6c-0.4,0.4-0.8,1-1.2,1.7c-0.4,0.7-0.7,1.4-0.9,2.3
									c-0.2,0.8-0.4,1.7-0.6,2.5H20.4z"/>
								<path class="st2" d="M44.5,48.5c-1,0-2.1-0.2-3.4-0.7c-1.3-0.5-2.6-1.3-4-2.6c-1.2,2-3.4,3-6.7,3c-0.4,0-0.8-0.2-1.2-0.5
									c-0.3-0.4-0.5-0.9-0.5-1.7v-1.7c0-0.8,0.2-1.4,0.7-1.7c0.5-0.4,1.1-0.6,1.9-0.6c0.4,0,0.8-0.1,1.1-0.2
									c0.3-0.1,0.6-0.3,0.9-0.6c0.3-0.3,0.6-0.7,0.8-1.3c0.3-0.6,0.6-1.3,1-2.2c0.7-1.5,1.3-2.8,2-3.8c0.7-1,1.3-1.8,2-2.4
									c0.7-0.6,1.3-1,1.9-1.2c0.6-0.2,1.2-0.3,1.8-0.3c1.2,0,2.2,0.3,3.2,1c1,0.6,1.8,1.5,2.4,2.4c0.7,1,1.2,2.1,1.6,3.3
									c0.4,1.2,0.6,2.4,0.6,3.5c0,1.1-0.1,2.1-0.4,3.1c-0.3,1-0.7,1.9-1.2,2.6c-0.5,0.8-1.2,1.4-2,1.8
									C46.3,48.3,45.4,48.5,44.5,48.5z M42.5,35.9c-0.6,0-1.2,0.4-1.8,1.1c-0.6,0.7-1.1,1.7-1.6,2.9c1,0.9,1.9,1.6,2.9,2
									c0.9,0.5,1.8,0.7,2.5,0.7c0.6,0,1-0.1,1.3-0.4c0.3-0.3,0.5-0.7,0.5-1.4c0-0.5-0.1-1-0.3-1.5c-0.2-0.6-0.4-1.1-0.8-1.6
									c-0.3-0.5-0.7-0.9-1.2-1.2C43.5,36.1,43,35.9,42.5,35.9z"/>
								<path class="st2" d="M92.9,42c0.6,0,1.2-0.2,1.7-0.5c0.5-0.3,0.8-0.7,1.1-1.2c-0.2-0.5-0.3-1-0.4-1.4
									c-0.1-0.5-0.2-1-0.2-1.5c0-0.3,0.1-0.6,0.3-0.9c0.2-0.3,0.6-0.7,1.3-1.2c0.3-0.2,0.7-0.5,1.1-0.7c0.4-0.2,0.7-0.3,0.8-0.3
									c0.3,0,0.6,0.2,0.8,0.6c0.2,0.4,0.4,0.9,0.5,1.6c0.2,0.9,0.4,1.7,0.6,2.4c0.2,0.7,0.5,1.3,0.8,1.8c0.3,0.5,0.7,0.8,1.2,1.1
									c0.5,0.2,1.1,0.3,1.9,0.3c0.6,0,1.1,0.2,1.3,0.6c0.2,0.4,0.3,1,0.3,1.7V46c0,0.9-0.2,1.5-0.7,1.8c-0.5,0.3-1.1,0.5-1.9,0.5
									c-1.6,0-2.8-0.2-3.8-0.6c-1-0.4-1.7-1.1-2.3-2c-0.5,0.7-1.2,1.3-2,1.8c-0.8,0.6-1.8,0.8-3,0.8c-0.4,0-0.8,0-1.2-0.1
									c-0.5-0.1-0.9-0.2-1.4-0.5c-0.5-0.2-0.9-0.5-1.3-0.9c-0.4-0.4-0.7-0.8-0.9-1.3c-0.6,0.9-1.4,1.6-2.2,2.1
									c-0.8,0.5-1.9,0.7-3.1,0.7c-1.2,0-2.3-0.3-3.3-0.8c-1-0.5-1.7-1.2-2.3-2.2c-0.8,1.1-2.1,2-4,2.7c-1.9,0.8-4.2,1.1-7,1.1
									c-3.7,0-6.5-0.7-8.3-2.2c-1.8-1.5-2.7-3.6-2.7-6.5v-8.3c0-1.2,0-2.6-0.1-4.1c0-1.5-0.1-3-0.2-4.4c-0.1-1.4-0.1-2.7-0.2-3.8
									c0-1.1-0.1-1.8-0.1-2.2c0-0.7,0.1-1.2,0.3-1.4c0.2-0.2,0.5-0.4,0.8-0.5c0.1,0,0.3-0.1,0.6-0.2c0.3-0.1,0.7-0.2,1.1-0.2
									c0.4-0.1,0.7-0.1,1.1-0.2c0.3-0.1,0.5-0.1,0.6-0.1c0.5,0,0.7,0.1,0.9,0.4c0.1,0.3,0.2,0.6,0.2,1.1c0,1.6,0,3.1,0,4.6
									c0,1.5,0,3.1,0,4.7c0,1.9,0.1,3.9,0.1,5.8c0,1.9,0,4,0,6.3c0,0.9,0.1,1.6,0.2,2.3c0.2,0.6,0.5,1.2,1,1.6
									c0.5,0.4,1.3,0.7,2.3,0.9c1,0.2,2.3,0.3,4,0.3c1.1,0,2-0.1,2.7-0.3c0.7-0.2,1.3-0.5,1.8-0.8c0.5-0.4,0.9-0.8,1.2-1.3
									c0.3-0.5,0.6-1.2,0.8-1.9c0.3-0.9,0.6-1.5,0.9-1.9c0.3-0.4,0.8-0.7,1.5-0.9c0.1,0,0.3-0.1,0.6-0.1c0.2-0.1,0.5-0.1,0.7-0.2
									c0.2,0,0.5-0.1,0.7-0.1c0.2,0,0.4-0.1,0.4-0.1c0.3,0,0.5,0.1,0.6,0.2c0.1,0.1,0.1,0.3,0.1,0.4c0,0.1,0,0.3-0.1,0.6
									c-0.1,0.2-0.2,0.5-0.3,0.8c-0.1,0.3-0.2,0.6-0.3,1c-0.1,0.3-0.1,0.7-0.1,1c0,1.8,1.1,2.8,3.3,2.8c0.5,0,0.8-0.1,1.1-0.2
									c0.3-0.1,0.5-0.4,0.7-0.6c0.2-0.3,0.4-0.7,0.5-1.1c0.2-0.4,0.4-1,0.6-1.6c0.3-0.8,0.7-1.4,1-1.8c0.3-0.4,0.8-0.7,1.5-0.9
									c0.1,0,0.3-0.1,0.5-0.1c0.2-0.1,0.5-0.1,0.7-0.2c0.3,0,0.5-0.1,0.7-0.1c0.2,0,0.4,0,0.4,0c0.3,0,0.5,0.1,0.6,0.2
									c0.1,0.1,0.1,0.3,0.1,0.4c0,0.1,0,0.3-0.1,0.6c-0.1,0.2-0.2,0.5-0.3,0.8c-0.1,0.3-0.2,0.6-0.3,1c-0.1,0.3-0.1,0.7-0.1,1
									c0,0.9,0.3,1.6,0.8,2.1C91.2,41.8,91.9,42,92.9,42z"/>
								<path class="st2" d="M104.5,42c1.9,0,3.5,0,4.9,0c1.3,0,2.4-0.1,3.3-0.2c0.9-0.1,1.6-0.2,2.1-0.4c0.5-0.2,0.9-0.4,1.1-0.7
									c-1.2,0-2.4-0.1-3.7-0.3c-1.2-0.2-2.3-0.6-3.2-1.1c-1-0.5-1.7-1.2-2.3-2c-0.6-0.8-0.9-1.9-0.9-3.2c0-1.2,0.2-2.5,0.6-3.7
									c0.4-1.2,0.9-2.4,1.6-3.4c0.7-1,1.4-1.8,2.3-2.4c0.9-0.6,1.9-0.9,2.9-0.9c1.1,0,2.1,0.4,3,1.1c0.9,0.7,1.7,1.7,2.4,2.9
									c0.7,1.2,1.2,2.7,1.5,4.4c0.4,1.7,0.6,3.6,0.6,5.6c0,2-0.3,3.6-0.8,5c-0.5,1.4-1.5,2.4-2.8,3.3c-1.3,0.8-3.1,1.4-5.3,1.8
									c-2.2,0.4-5,0.6-8.3,0.6c-0.4,0-0.8-0.2-1.2-0.5c-0.3-0.4-0.5-0.9-0.5-1.7v-1.7c0-0.8,0.2-1.4,0.7-1.7
									C103.1,42.2,103.7,42,104.5,42z M109.3,12.5c0.2,0,0.6,0.1,0.9,0.4c0.4,0.2,0.8,0.5,1.2,0.9c0.3,0.3,0.6,0.7,0.9,1.1
									c0.3,0.4,0.4,0.7,0.4,0.9c0,0.2-0.2,0.6-0.6,0.9c-0.4,0.4-0.8,0.8-1.2,1.1c-0.6,0.5-0.9,0.9-1.2,1.1
									c-0.2,0.2-0.4,0.4-0.7,0.4c-0.2,0-0.5-0.2-0.7-0.5c-0.3-0.4-0.6-0.7-1-1c-0.4-0.4-0.8-0.7-1.2-1.1c-0.4-0.3-0.6-0.5-0.6-0.7
									c0-0.2,0.1-0.5,0.4-0.9c0.3-0.4,0.6-0.8,1-1.2c0.4-0.4,0.8-0.7,1.2-1C108.7,12.6,109,12.5,109.3,12.5z M112.8,29.8
									c-0.4,0-0.7,0.1-1.1,0.3c-0.3,0.2-0.6,0.5-0.9,0.9c-0.3,0.4-0.5,0.7-0.6,1.1c-0.2,0.4-0.2,0.8-0.2,1.2
									c0,0.5,0.2,0.8,0.5,1.1c0.3,0.3,0.8,0.5,1.3,0.7c0.5,0.2,1.2,0.3,1.9,0.3c0.7,0.1,1.5,0.1,2.3,0.1c0.1,0,0.1,0,0.3,0
									c0.1,0,0.2,0,0.2,0c-0.2-1.7-0.6-3.1-1.2-4.1C114.6,30.3,113.8,29.8,112.8,29.8z M117,12.5c0.2,0,0.6,0.1,1,0.4
									c0.4,0.2,0.8,0.5,1.1,0.9c0.3,0.3,0.6,0.7,0.9,1.1c0.3,0.4,0.4,0.7,0.4,0.9c0,0.2-0.2,0.6-0.6,0.9c-0.4,0.4-0.8,0.8-1.2,1.1
									c-0.6,0.5-0.9,0.9-1.1,1.1c-0.2,0.2-0.4,0.4-0.7,0.4c-0.2,0-0.5-0.2-0.7-0.5c-0.3-0.4-0.6-0.7-1-1c-0.4-0.4-0.7-0.7-1.1-1.1
									c-0.4-0.3-0.6-0.5-0.6-0.7c0-0.2,0.1-0.5,0.4-0.9c0.3-0.4,0.6-0.8,1-1.2c0.4-0.4,0.8-0.7,1.2-1
									C116.4,12.6,116.7,12.5,117,12.5z"/>
								<path class="st2" d="M132,7.1c0,0.8-0.2,1.4-0.5,1.7c-0.4,0.3-1,0.6-1.9,0.9c-0.9,0.3-1.8,0.7-2.5,1c-0.8,0.3-1.4,0.6-2,0.9
									c-0.6,0.3-1,0.5-1.4,0.7c-0.3,0.2-0.5,0.3-0.6,0.3c-0.1,0-0.2-0.1-0.2-0.4c0-0.5,0.1-1,0.2-1.7c0.1-0.7,0.3-1.1,0.5-1.3
									c0.2-0.1,0.3-0.2,0.5-0.3c0.2-0.1,0.5-0.3,1-0.5c-0.4-0.2-0.7-0.6-1-1c-0.3-0.4-0.5-1-0.5-1.6c0-0.7,0.2-1.5,0.5-2.2
									c0.3-0.7,0.8-1.3,1.3-1.9c0.5-0.5,1.1-1,1.8-1.3c0.7-0.3,1.3-0.5,2-0.5c0.5,0,0.8,0.1,1.2,0.3c0.3,0.2,0.5,0.6,0.5,1.1
									c0,0.4,0,0.8-0.1,1.3c-0.1,0.5-0.2,0.7-0.4,0.7c-0.2,0-0.4-0.1-0.7-0.2c-0.3-0.1-0.7-0.2-1.3-0.2c-0.5,0-1,0.2-1.6,0.5
									C126.3,4,126,4.5,126,5.2c0,0.6,0.2,1,0.7,1.3c0.4,0.3,1,0.4,1.6,0.4c0.5,0,0.9-0.1,1.2-0.2c0.4-0.1,0.7-0.2,0.9-0.4
									c0.3-0.1,0.5-0.3,0.7-0.4c0.2-0.1,0.4-0.2,0.5-0.2c0.2,0,0.3,0.1,0.3,0.4S132,6.8,132,7.1z M126.1,15.6c0.1,0,0.2,0,0.5-0.1
									c0.3-0.1,0.6-0.1,0.9-0.2c0.3-0.1,0.7-0.1,1-0.2c0.4-0.1,0.6-0.1,0.9-0.1c0.4,0,0.7,0.2,0.8,0.6c0.1,0.4,0.2,1,0.2,1.7
									c0,0.6,0,1.4,0.1,2.4c0,1,0.1,2.1,0.1,3.4c0,1.3,0.1,2.6,0.2,4c0.1,1.4,0.1,2.9,0.2,4.3c0,1.5,0.1,2.9,0.1,4.3
									c0,1.4,0,2.7,0,3.9c0,1.9-0.1,3.6-0.3,5c-0.2,1.4-0.5,2.4-1,2.9c-0.4,0.4-0.9,0.7-1.6,0.9c-0.7,0.2-1.3,0.3-1.7,0.3
									c-0.3,0-0.6,0-0.7-0.1c-0.1-0.1-0.2-0.3-0.2-0.6c0-0.1,0-0.2,0-0.4c0-0.2,0-0.3,0-0.5c0.1-0.7,0.1-1.7,0.3-3.1
									s0.2-3.3,0.2-5.7c0-2.3-0.1-4.5-0.2-6.6c-0.2-2.1-0.3-4-0.5-5.8c-0.2-1.8-0.3-3.3-0.5-4.7c-0.2-1.4-0.2-2.5-0.2-3.4
									c0-0.5,0.1-1,0.3-1.3C125,16,125.4,15.8,126.1,15.6z"/>
								<path class="st2" d="M136.2,52.2c1.7-0.2,3.2-0.6,4.5-1.1c1.2-0.5,2.2-1,3.1-1.6c0.8-0.6,1.4-1.2,1.8-1.9
									c0.4-0.7,0.6-1.3,0.7-2c-1,0.4-2.2,0.6-3.5,0.6c-2.1,0-3.8-0.5-5.2-1.6c-1.3-1-2-2.6-2-4.7c0-1.3,0.2-2.6,0.6-3.9
									c0.4-1.3,0.9-2.4,1.5-3.3c0.7-1,1.4-1.7,2.3-2.3c0.9-0.6,1.9-0.9,3-0.9c1.2,0,2.3,0.3,3.2,1c0.9,0.7,1.7,1.6,2.4,2.8
									c0.6,1.2,1.1,2.6,1.5,4.2c0.4,1.6,0.5,3.3,0.5,5.1c0,2.4-0.3,4.4-0.9,6.2c-0.6,1.8-1.4,3.3-2.4,4.5c-1,1.2-2.1,2.1-3.4,2.7
									c-1.3,0.6-2.5,0.9-3.8,0.9c-0.8,0-1.5-0.2-2.1-0.5c-0.6-0.3-1.2-0.7-1.7-1.2c-0.1-0.1-0.2-0.2-0.4-0.5
									c-0.2-0.2-0.3-0.4-0.5-0.7c-0.2-0.2-0.3-0.5-0.4-0.7c-0.1-0.2-0.2-0.4-0.2-0.5c0-0.2,0.1-0.4,0.3-0.6
									C135.2,52.4,135.6,52.3,136.2,52.2z M142.6,35.8c-0.5,0-0.9,0.1-1.3,0.3c-0.4,0.2-0.7,0.5-1,0.8c-0.3,0.3-0.5,0.6-0.6,1
									c-0.1,0.4-0.2,0.7-0.2,1.1c0,0.8,0.3,1.3,1,1.5c0.7,0.2,1.4,0.4,2.3,0.4c0.6,0,1.2,0,1.8-0.1c0.6-0.1,1.1-0.2,1.5-0.3
									c-0.1-1.3-0.5-2.3-1.1-3.2C144.4,36.2,143.6,35.8,142.6,35.8z"/>
								<path class="st2" d="M182.8,42c0.6,0,1.1,0.2,1.3,0.6c0.2,0.4,0.3,1,0.3,1.7V46c0,0.9-0.2,1.5-0.7,1.8
									c-0.5,0.3-1.1,0.5-1.9,0.5c-1,0-1.9-0.1-2.6-0.2c-0.7-0.2-1.3-0.4-1.8-0.7c-0.5-0.3-0.9-0.7-1.3-1.1
									c-0.3-0.4-0.6-0.9-0.8-1.5c-1.4,0.6-3,0.9-4.7,0.9c-1,0-1.9-0.1-2.7-0.4c-0.8-0.3-1.6-0.6-2.2-1.1c-0.6-0.5-1.1-1.1-1.4-1.8
									c-0.4-0.7-0.5-1.5-0.5-2.3c0-0.7,0.1-1.6,0.4-2.5c0.3-0.9,0.8-1.9,1.4-2.9c0.7-1,1.6-2,2.7-3.1c1.1-1,2.6-2,4.4-3
									c0,0,0-0.1,0-0.1c0,0,0,0,0-0.1c-0.1-0.3-0.1-0.5-0.2-0.8c-0.1-0.3-0.1-0.5-0.1-0.7c0-0.3,0.3-0.7,1-1.1
									c0.6-0.4,1.3-0.8,2.1-1.2c0.1-0.1,0.3-0.1,0.5-0.2c0.2-0.1,0.4-0.1,0.6-0.1c0.2,0,0.3,0.1,0.5,0.2c0.2,0.1,0.3,0.4,0.3,1
									c0.3,4,0.6,7,0.9,9.3c0.3,2.2,0.6,3.9,1,5c0.4,1.1,0.9,1.8,1.4,2C181.3,41.9,182,42,182.8,42z M168.6,12.9
									c0.2,0,0.6,0.1,0.9,0.4c0.4,0.2,0.8,0.5,1.2,0.9c0.3,0.3,0.6,0.7,0.9,1.1c0.3,0.4,0.4,0.7,0.4,0.9c0,0.2-0.2,0.6-0.6,0.9
									c-0.4,0.4-0.8,0.8-1.2,1.1c-0.6,0.5-0.9,0.9-1.2,1.1c-0.2,0.2-0.4,0.4-0.7,0.4c-0.2,0-0.5-0.2-0.7-0.5c-0.3-0.4-0.6-0.7-1-1
									c-0.4-0.4-0.8-0.7-1.2-1.1c-0.4-0.3-0.6-0.5-0.6-0.7c0-0.2,0.1-0.5,0.4-0.9c0.3-0.4,0.6-0.8,1-1.2c0.4-0.4,0.8-0.7,1.2-1
									C168,13.1,168.3,12.9,168.6,12.9z M171.1,40c0.8,0,1.4,0,1.9-0.1c0.5-0.1,0.9-0.2,1.2-0.3c-0.2-0.9-0.3-1.7-0.4-2.6
									c-0.1-0.9-0.3-1.9-0.4-3.3c-1.1,0.4-1.9,0.9-2.6,1.3c-0.7,0.4-1.2,0.8-1.6,1.2c-0.4,0.4-0.6,0.7-0.8,1.1
									c-0.1,0.3-0.2,0.6-0.2,0.8c0,0.2,0,0.4,0.1,0.7c0.1,0.2,0.2,0.4,0.4,0.6c0.2,0.2,0.5,0.3,0.9,0.5
									C170,39.9,170.5,40,171.1,40z M176.3,12.9c0.2,0,0.6,0.1,1,0.4c0.4,0.2,0.8,0.5,1.2,0.9c0.3,0.3,0.6,0.7,0.9,1.1
									c0.3,0.4,0.4,0.7,0.4,0.9c0,0.2-0.2,0.6-0.6,0.9c-0.4,0.4-0.8,0.8-1.2,1.1c-0.6,0.5-0.9,0.9-1.1,1.1
									c-0.2,0.2-0.4,0.4-0.7,0.4c-0.2,0-0.5-0.2-0.7-0.5c-0.3-0.4-0.6-0.7-1-1c-0.4-0.4-0.7-0.7-1.1-1.1c-0.4-0.3-0.6-0.5-0.6-0.7
									c0-0.2,0.1-0.5,0.4-0.9c0.3-0.4,0.6-0.8,1-1.2c0.4-0.4,0.8-0.7,1.2-1C175.7,13.1,176,12.9,176.3,12.9z"/>
								<path class="st2" d="M195.4,48.6c-0.9,0-1.9-0.3-3.2-0.8c-1.2-0.5-2.4-1.5-3.4-2.9c-0.6,0.8-1.1,1.4-1.6,1.9
									c-0.5,0.4-1.1,0.8-1.6,1c-0.6,0.2-1.1,0.4-1.7,0.4c-0.6,0-1.3,0.1-1.9,0.1c-0.4,0-0.8-0.2-1.2-0.5c-0.3-0.4-0.5-0.9-0.5-1.7
									v-1.7c0-0.8,0.2-1.4,0.7-1.7c0.5-0.4,1.1-0.6,1.9-0.6c0.5,0,0.9-0.1,1.2-0.2c0.4-0.1,0.7-0.4,1-0.8c0.3-0.4,0.6-0.9,0.9-1.5
									c0.3-0.6,0.6-1.4,1-2.3c1-2.6,2.1-4.5,3.2-5.6c1.2-1.1,2.4-1.7,3.7-1.7c1.5,0,2.9,0.7,4.1,2c1.2,1.3,2.3,3,3.3,4.9
									c0.6,1.2,1.1,2.2,1.6,2.9c0.4,0.7,0.8,1.2,1.2,1.6c0.4,0.4,0.8,0.6,1.1,0.6c0.4,0.1,0.8,0.1,1.2,0.1c0.6,0,1.1,0.2,1.3,0.6
									c0.2,0.4,0.3,1,0.3,1.7V46c0,0.9-0.2,1.5-0.7,1.8c-0.5,0.3-1.1,0.5-1.9,0.5c-1.1,0-2-0.2-2.8-0.5c-0.8-0.3-1.5-1-2.2-2
									c-0.7,1-1.4,1.7-2.2,2.2C197.5,48.3,196.5,48.6,195.4,48.6z M193.6,36.1c-0.4,0-0.7,0.1-1,0.4c-0.3,0.3-0.6,0.6-0.8,0.9
									c-0.2,0.4-0.5,0.8-0.6,1.2c-0.2,0.4-0.3,0.8-0.4,1.2c0.6,0.8,1.4,1.5,2.5,2c1.1,0.5,2.1,0.8,3.2,0.8c0.6,0,1.1-0.1,1.4-0.3
									c0.3-0.2,0.5-0.5,0.5-0.8c0-0.4-0.1-0.9-0.4-1.5c-0.3-0.6-0.6-1.2-1-1.8c-0.4-0.6-0.9-1.1-1.5-1.5
									C194.7,36.3,194.1,36.1,193.6,36.1z"/>
								<path class="st2" d="M216.5,38.2c0,0.8,0.2,1.4,0.5,1.9c0.3,0.5,0.7,0.9,1.2,1.1c0.5,0.3,1.1,0.5,1.8,0.6
									c0.7,0.1,1.5,0.2,2.3,0.2c0.6,0,1.1,0.2,1.3,0.6c0.2,0.4,0.3,1,0.3,1.7V46c0,0.9-0.2,1.5-0.7,1.8c-0.5,0.3-1.1,0.5-1.9,0.5
									c-1.5,0-2.8-0.2-4-0.7c-1.2-0.4-2.2-1.2-3-2.4c-0.9,1.2-2.1,2-3.6,2.4c-1.5,0.4-3.3,0.6-5.3,0.6c-0.4,0-0.8-0.2-1.2-0.5
									c-0.3-0.4-0.5-0.9-0.5-1.7v-1.7c0-0.8,0.2-1.4,0.7-1.7c0.5-0.4,1.1-0.6,1.9-0.6c1.2,0,2.1-0.1,2.9-0.2
									c0.8-0.2,1.3-0.4,1.7-0.7c0.4-0.3,0.7-0.7,0.9-1.1c0.2-0.5,0.2-1,0.2-1.7c0-0.2,0-0.7-0.1-1.4c-0.1-0.8-0.2-1.7-0.3-2.7
									c-0.1-1.1-0.3-2.2-0.4-3.6c-0.1-1.3-0.3-2.7-0.4-4c-0.1-0.7-0.1-1.4-0.2-2.3c-0.1-0.8-0.2-1.6-0.3-2.4
									c-0.1-0.8-0.1-1.5-0.2-2.2c-0.1-0.7-0.1-1.2-0.1-1.7c0-0.7,0.2-1.3,0.6-1.6c0.4-0.3,0.9-0.6,1.5-0.8c0.1,0,0.3-0.1,0.6-0.2
									c0.3-0.1,0.5-0.1,0.8-0.2c0.3-0.1,0.6-0.1,0.8-0.2c0.2-0.1,0.4-0.1,0.4-0.1c0.6,0,0.9,0.2,1,0.6c0.1,0.4,0.2,0.9,0.2,1.4
									c0,2.3,0.1,4.5,0.1,6.6c0,2.1,0.1,4,0.1,5.8c0,1.8,0.1,3.3,0.1,4.7c0,1.3,0.1,2.4,0.1,3.3V38.2z"/>
								<path class="st2" d="M222.1,27.1c0-0.3,0.1-0.8,0.3-1.5c0.2-0.7,0.5-1.4,0.8-2.1c0.3-0.7,0.6-1.4,0.9-2
									c0.3-0.6,0.6-1,0.8-1.1c0.6-0.3,1.4-0.7,2.5-1.2c1.1-0.4,2.3-0.9,3.6-1.4c1.3-0.5,2.6-0.9,4-1.4c1.4-0.5,2.6-0.9,3.8-1.2
									c1.2-0.4,2.1-0.7,2.9-0.9c0.8-0.2,1.3-0.3,1.4-0.3c0.3,0,0.5,0.3,0.5,0.8l-0.5,2.6c-0.1,0.5-0.2,0.9-0.3,1.2
									c-0.1,0.3-0.3,0.5-0.5,0.7c-0.2,0.2-0.4,0.3-0.6,0.4c-0.2,0.1-0.5,0.2-0.8,0.3c-1.5,0.5-3,0.9-4.4,1.4
									c-1.4,0.5-2.7,0.9-3.8,1.3c-1.2,0.4-2.2,0.8-3.1,1.1c-0.9,0.4-1.6,0.7-2.1,0.9c0.3,0.6,0.8,1.3,1.4,2.3
									c0.5,0.8,1.2,1.9,2.1,3.3c0.9,1.4,2.1,3.2,3.6,5.3c0.9,1.3,1.8,2.4,2.5,3.2c0.8,0.8,1.5,1.5,2.2,2c0.7,0.5,1.5,0.8,2.3,1
									c0.8,0.2,1.6,0.3,2.5,0.3c0.6,0,1.1,0.2,1.3,0.6c0.2,0.4,0.3,1,0.3,1.7V46c0,0.9-0.2,1.5-0.7,1.8c-0.5,0.3-1.1,0.5-1.9,0.5
									c-1.7,0-3.3-0.3-4.9-1c-1.5-0.7-3.1-1.9-4.6-3.7c-0.3,0.6-0.8,1.3-1.3,1.8c-0.6,0.6-1.3,1.1-2.3,1.5c-1,0.4-2.1,0.8-3.5,1
									c-1.4,0.2-3.2,0.4-5.2,0.4c-0.4,0-0.8-0.2-1.2-0.5c-0.3-0.4-0.5-0.9-0.5-1.7v-1.7c0-0.8,0.2-1.4,0.7-1.7
									c0.5-0.4,1.1-0.6,1.9-0.6c1.5,0,2.8-0.1,3.8-0.2c1-0.1,1.8-0.3,2.4-0.5c0.6-0.2,1-0.4,1.3-0.7c0.3-0.3,0.4-0.6,0.4-0.8
									c0-0.4-0.2-0.9-0.6-1.6c-0.4-0.7-0.9-1.5-1.4-2.4c-0.6-0.9-1.2-1.8-1.9-2.7c-0.7-0.9-1.3-1.8-1.9-2.6
									c-0.6-0.7-1.1-1.4-1.5-2.1C222.4,27.8,222.1,27.3,222.1,27.1z"/>
								<path class="st2" d="M248.9,39c0-0.2,0-0.7-0.1-1.5c-0.1-0.8-0.1-1.8-0.3-3c-0.1-1.2-0.2-2.4-0.4-3.8
									c-0.1-1.4-0.3-2.8-0.4-4.1c-0.1-0.7-0.1-1.4-0.2-2.3c-0.1-0.8-0.2-1.6-0.3-2.4c-0.1-0.8-0.1-1.5-0.2-2.2
									C247,19,247,18.5,247,18c0-0.7,0.2-1.3,0.5-1.6c0.3-0.3,0.8-0.6,1.6-0.9c0.1,0,0.3-0.1,0.6-0.2c0.3-0.1,0.5-0.1,0.8-0.2
									c0.3-0.1,0.6-0.1,0.8-0.2c0.2-0.1,0.4-0.1,0.4-0.1c0.6,0,0.9,0.2,1,0.6c0.1,0.4,0.2,0.9,0.2,1.4c0,2.3,0.1,4.6,0.1,6.9
									c0,2.3,0.1,4.4,0.1,6.4c0,2,0.1,3.8,0.1,5.3c0,1.5,0.1,2.7,0.1,3.5v1c0,1.5-0.2,2.8-0.7,3.9c-0.4,1-1.1,1.9-2,2.5
									c-0.9,0.6-1.9,1.1-3.2,1.4c-1.3,0.3-2.7,0.4-4.3,0.4c-0.4,0-0.8-0.2-1.2-0.5c-0.3-0.4-0.5-0.9-0.5-1.7v-1.7
									c0-0.8,0.2-1.4,0.7-1.7c0.5-0.4,1.1-0.6,1.9-0.6c1.2,0,2.1-0.1,2.7-0.2c0.6-0.1,1.1-0.3,1.4-0.6c0.3-0.2,0.5-0.6,0.6-0.9
									C248.9,40,248.9,39.5,248.9,39z"/>
								<path class="st2" d="M259,15.6c0.1,0,0.2,0,0.5-0.1c0.3-0.1,0.6-0.1,0.9-0.2c0.3-0.1,0.7-0.1,1-0.2c0.4-0.1,0.6-0.1,0.9-0.1
									c0.4,0,0.7,0.2,0.8,0.6c0.1,0.4,0.2,1,0.2,1.7c0,0.6,0,1.4,0.1,2.4c0,1,0.1,2.1,0.1,3.4c0,1.3,0.1,2.6,0.2,4
									c0.1,1.4,0.1,2.9,0.2,4.3c0,1.5,0.1,2.9,0.1,4.3c0,1.4,0,2.7,0,3.9c0,1.9-0.1,3.6-0.3,5c-0.2,1.4-0.5,2.4-1,2.9
									c-0.4,0.4-0.9,0.7-1.6,0.9c-0.7,0.2-1.3,0.3-1.7,0.3c-0.3,0-0.6,0-0.7-0.1c-0.1-0.1-0.2-0.3-0.2-0.6c0-0.1,0-0.2,0-0.4
									c0-0.2,0-0.3,0-0.5c0.1-0.7,0.1-1.7,0.3-3.1c0.1-1.4,0.2-3.3,0.2-5.7c0-2.3-0.1-4.5-0.2-6.6c-0.2-2.1-0.3-4-0.5-5.8
									c-0.2-1.8-0.3-3.3-0.5-4.7s-0.2-2.5-0.2-3.4c0-0.5,0.1-1,0.3-1.3C258,16,258.4,15.8,259,15.6z"/>
							</g>
						</g>
					</g>
				</g>
			</g>
		</g>
	</g>
</g>
</svg>
