<?xml version="1.0" encoding="utf-8"?>
<!-- Generator: Adobe Illustrator 19.2.0, SVG Export Plug-In . SVG Version: 6.00 Build 0)  -->
<svg version="1.1" id="Layer_1" xmlns="http://www.w3.org/2000/svg" xmlns:xlink="http://www.w3.org/1999/xlink" x="0px" y="0px"
	 viewBox="0 0 40.2 17.9" style="enable-background:new 0 0 40.2 17.9;" xml:space="preserve">
<style type="text/css">
	.st0{fill:#097B70;}
</style>
<g>
	<g>
		<g>
			<g>
				<path class="st0" d="M6,13.2c-3.4,0-6-1.2-6-4.2c0-1,0.2-2,0.7-3l0.5,0.2C1,6.9,0.9,7.5,0.9,8c0,2.5,2.4,3.5,5.5,3.5
					c1.4,0,2.8-0.2,4.2-0.5c0.6-0.1,1.1-0.3,1.6-0.5c0.1,0,0.1-0.1,0.1-0.1c0-0.6-0.6-1.8-1.2-3c0.3-0.5,0.6-1,0.9-1.4H12
					c0.6,1,1.2,2.5,1.2,3.7c0,0.9-0.3,1.5-0.6,2C11.5,12.4,8.4,13.2,6,13.2z M6.4,15.4c0.5,0.4,1,0.8,1.5,1.3
					c-0.3,0.4-0.6,0.8-1,1.2c-0.5-0.5-1-0.8-1.4-1.3C5.8,16.2,6.1,15.8,6.4,15.4z"/>
				<path class="st0" d="M17.1,8.5c0.7,1.7,1.3,2.6,2.7,2.6H20v1.6h-0.3c-0.5,0-0.9-0.1-1.2-0.4h0c0,0.1,0,0.3,0,0.4
					c0,0.6-0.2,1.3-0.5,1.9c-1,1.7-2,2.4-2.9,2.4c-0.9,0-2-0.4-3.1-1l0.2-0.4c0.3,0.2,0.8,0.3,1.4,0.3c1.6,0,3.8-1.9,4.1-3.7
					c-0.1-0.1-0.2-0.3-0.3-0.5c-0.5-0.7-0.8-1.2-1.1-1.8C16.6,9.4,16.8,8.9,17.1,8.5L17.1,8.5z"/>
				<path class="st0" d="M20.6,11.1c1,0,1.9,0,3.2-0.6v0c-0.6-0.4-1.1-1-1.7-1.6c-0.3-0.3-0.6-0.5-0.8-0.5h-0.4l0,0L21.3,7l0.4,0
					c1-0.2,2.1-0.4,3.3-0.4c1.4,0,2.6,0.2,3.5,0.6L28,8.4l-2.1,2v0c0.8,0.4,1.7,0.7,2.8,0.7h0.5v1.6h-0.4c-1.4,0-2.9-0.5-4.1-1.4h0
					c-1.5,1.1-2.8,1.4-4.3,1.4H20c-0.7,0-0.9-0.5-0.9-0.8c0-0.3,0.2-0.7,0.9-0.7H20.6z M25,9.9c0.7-0.5,1.5-1.1,2.2-1.8v0
					c-0.7-0.2-1.4-0.3-2.3-0.3c-0.8,0-1.5,0.1-2.3,0.2v0c0.2,0.2,0.5,0.5,0.7,0.7C23.8,9.1,24.4,9.5,25,9.9L25,9.9z"/>
				<path class="st0" d="M32.1,11.6c-0.9,0.7-1.6,1-2.8,1h-0.2c-0.7,0-0.9-0.5-0.9-0.8c0-0.3,0.2-0.7,0.9-0.7h0.1
					c1.2,0,2-0.3,2.8-0.9c-0.2-2.4-0.3-4.8-0.3-6.7c0-0.5-0.1-1.3-0.1-1.8c0-0.4,0.1-0.7,0.4-1.1c0.2-0.2,0.4-0.4,0.7-0.6l0.1,0.1
					c0,0.2,0,0.4,0,0.5c0,0.9,0.4,1.7,0.9,2.5l-0.9,0.6c0,3.9,0,4.9,0.2,5.9l0,0c0.5-0.3,1-0.4,1.6-0.4c0.5,0,1,0.2,1.4,0.7
					c0.4,0.4,0.6,1.1,0.6,1.7c0,1.5-1,2.3-1.9,2.3C33.6,13.9,32.7,13,32.1,11.6L32.1,11.6z M35.3,12.6c0.2,0,0.4-0.1,0.6-0.2
					c0-0.4-0.2-0.8-0.5-1.1c-0.2-0.3-0.6-0.5-1.1-0.5c-0.3,0-0.7,0.1-1,0.3C33.6,11.9,34.5,12.6,35.3,12.6z"/>
				<path class="st0" d="M38.9,12.9c0.1-0.8,0.1-1.6,0.1-2.4V9.3c0-2.2-0.2-5.5-0.4-7.6c0.3-0.4,0.8-1,1.2-1.3l0.1,0
					c0.3,2.7,0.3,5.7,0.3,8.6c0,0.7,0,1.5-0.1,2c0,0.7-0.4,1.2-1.1,2L38.9,12.9z"/>
			</g>
		</g>
	</g>
</g>
</svg>
