<?xml version="1.0" encoding="utf-8"?>
<!-- Generator: Adobe Illustrator 19.2.0, SVG Export Plug-In . SVG Version: 6.00 Build 0)  -->
<svg version="1.1" id="Layer_1" xmlns="http://www.w3.org/2000/svg" xmlns:xlink="http://www.w3.org/1999/xlink" x="0px" y="0px"
	 viewBox="0 0 56.8 28.1" style="enable-background:new 0 0 56.8 28.1;" xml:space="preserve">
<style type="text/css">
	.st0{fill:#097B70;}
</style>
<g>
	<g>
		<g>
			<g>
				<g>
					<path class="st0" d="M2.6,15.7c0,0.6,0.2,1.2,0.6,1.6c0.4,0.4,1,0.8,1.7,1c0.7,0.3,1.6,0.4,2.7,0.5c1,0.1,2.2,0.2,3.5,0.2
						c1,0,2,0,3-0.1c1,0,1.9-0.1,2.7-0.2c0.8-0.1,1.6-0.2,2.3-0.4c0.7-0.2,1.3-0.4,1.7-0.6c-0.7,0-1.4-0.1-2.1-0.2
						c-0.7-0.1-1.3-0.3-1.9-0.6c-0.6-0.3-1-0.7-1.3-1.2c-0.3-0.5-0.5-1.1-0.5-1.9c0-0.8,0.1-1.6,0.4-2.4c0.3-0.8,0.6-1.5,1-2.1
						c0.4-0.6,0.9-1.1,1.4-1.5c0.5-0.4,1.1-0.6,1.7-0.6c0.7,0,1.3,0.2,1.9,0.6c0.6,0.4,1,0.9,1.4,1.6c0.4,0.7,0.7,1.5,0.9,2.4
						c0.2,1,0.3,2,0.3,3.2c0,1.7-0.4,3.1-1.2,4.1c-0.8,1-1.9,1.8-3.3,2.3c-1.4,0.5-2.9,0.9-4.7,1c-1.8,0.2-3.6,0.2-5.6,0.2
						c-1.6,0-3-0.1-4.2-0.4c-1.2-0.2-2.1-0.6-2.9-1c-0.7-0.5-1.3-1-1.7-1.7C0.2,18.9,0,18.2,0,17.4c0-0.3,0-0.7,0.1-1
						c0.1-0.4,0.1-0.7,0.2-1c0.1-0.3,0.2-0.6,0.3-0.9c0.1-0.3,0.3-0.5,0.4-0.7c0.2-0.3,0.7-0.5,1.3-0.5C2.8,13,3,13.1,3,13.4
						c0,0.2-0.1,0.5-0.2,0.8C2.7,14.6,2.6,15.1,2.6,15.7z M19.8,0.1c0.2,0,0.3,0.1,0.6,0.2c0.2,0.1,0.5,0.3,0.7,0.6
						c0.2,0.2,0.4,0.4,0.5,0.7c0.2,0.3,0.2,0.4,0.2,0.6c0,0.1-0.1,0.3-0.4,0.6C21.2,3,21,3.2,20.8,3.4c-0.4,0.3-0.6,0.6-0.7,0.7
						c-0.1,0.1-0.3,0.2-0.4,0.2c-0.1,0-0.3-0.1-0.4-0.3c-0.2-0.2-0.4-0.4-0.6-0.6c-0.2-0.2-0.5-0.5-0.7-0.6
						c-0.2-0.2-0.3-0.3-0.3-0.4c0-0.1,0.1-0.3,0.3-0.6C18,1.5,18.2,1.3,18.4,1c0.2-0.2,0.5-0.5,0.7-0.6C19.4,0.2,19.6,0.1,19.8,0.1z
						 M19.3,11c-0.2,0-0.4,0.1-0.6,0.2c-0.2,0.1-0.4,0.3-0.6,0.5c-0.2,0.2-0.3,0.4-0.4,0.7c-0.1,0.3-0.1,0.5-0.1,0.7
						c0,0.3,0.1,0.5,0.3,0.7c0.2,0.2,0.4,0.3,0.7,0.4c0.3,0.1,0.7,0.2,1.1,0.2c0.4,0,0.8,0.1,1.2,0.1c0.3,0,0.5,0,0.6,0
						c-0.1-1-0.3-1.8-0.7-2.5C20.4,11.3,19.9,11,19.3,11z"/>
					<path class="st0" d="M24.1,25.1c0.9-0.1,1.7-0.2,2.4-0.5c0.7-0.3,1.3-0.6,1.7-1c0.5-0.4,0.8-0.9,1-1.4c0.2-0.5,0.3-1,0.3-1.6
						c0-0.3-0.1-0.7-0.4-1.2c-0.3-0.5-0.6-1.1-1-1.9c-0.1-0.1-0.1-0.2-0.2-0.3c0-0.1,0-0.2,0-0.3c0-0.1,0-0.2,0.1-0.3
						c0.1-0.1,0.1-0.3,0.2-0.4c0.1-0.2,0.2-0.3,0.3-0.5c0.1-0.2,0.2-0.3,0.3-0.5c0.3-0.5,0.6-0.9,0.8-1.1c0.2-0.2,0.4-0.3,0.5-0.3
						c0.2,0,0.3,0.1,0.4,0.3c0.1,0.2,0.3,0.5,0.4,0.9c0.2,0.6,0.5,1.1,0.7,1.5c0.2,0.4,0.4,0.7,0.7,1c0.2,0.3,0.5,0.4,0.8,0.5
						c0.3,0.1,0.6,0.2,1,0.2c0.4,0,0.7,0.1,0.8,0.3c0.1,0.2,0.2,0.6,0.2,1.1v1c0,0.5-0.1,0.9-0.4,1.1c-0.3,0.2-0.7,0.3-1.2,0.3
						c-0.4,0-0.7,0-0.9-0.1c-0.2-0.1-0.5-0.2-0.6-0.4c-0.2,1-0.4,2-0.8,2.8c-0.4,0.8-0.8,1.5-1.4,2.1c-0.5,0.6-1.1,1-1.7,1.3
						c-0.6,0.3-1.2,0.5-1.8,0.5c-0.5,0-0.9-0.1-1.3-0.3c-0.4-0.2-0.7-0.4-1-0.7c-0.2-0.2-0.4-0.5-0.6-0.8c-0.2-0.3-0.3-0.5-0.3-0.7
						c0-0.1,0.1-0.3,0.2-0.3C23.5,25.2,23.8,25.1,24.1,25.1z"/>
					<path class="st0" d="M42.4,10.6c0-0.2,0-0.6-0.1-1.1c-0.1-0.5-0.1-1-0.2-1.6c-0.1-0.6-0.2-1.2-0.3-1.9
						c-0.1-0.6-0.2-1.3-0.3-1.8c-0.1-0.6-0.1-1.1-0.2-1.5c-0.1-0.4-0.1-0.7-0.1-0.9c0-0.4,0.1-0.8,0.3-1c0.2-0.2,0.5-0.4,0.9-0.5
						c0.1,0,0.2-0.1,0.3-0.1c0.2,0,0.3-0.1,0.5-0.1c0.2,0,0.3-0.1,0.5-0.1C44.1,0,44.2,0,44.2,0c0.3,0,0.5,0.1,0.6,0.4
						C45,0.6,45,0.9,45,1.2c0,1.4,0,2.6,0.1,3.5c0,1,0,1.8,0.1,2.4c0,0.6,0,1.2,0.1,1.6c0,0.4,0,0.8,0,1.1c0,0.8-0.1,1.5-0.3,2
						c-0.2,0.6-0.5,1-0.8,1.4c0.8,0.3,1.7,0.5,2.6,0.7c1,0.2,2.1,0.3,3.5,0.3c0.2,0,0.4,0,0.5,0.1c0.1,0,0.2,0.2,0.2,0.4
						c0,0.1,0,0.2-0.1,0.3c-0.1,0.1-0.1,0.3-0.2,0.5c-0.1,0.2-0.1,0.4-0.2,0.6c-0.1,0.2-0.2,0.4-0.2,0.6C50.1,16.7,50,16.9,50,17
						c-0.1,0.1-0.1,0.2-0.3,0.3c-0.1,0.1-0.3,0.1-0.5,0.1c-0.2,0-0.5,0-0.8,0c-0.4,0-0.7,0-1.1,0.1c-0.3,0.1-0.7,0.2-1,0.3
						c-0.4,0.1-0.7,0.3-1.1,0.6c-0.4,0.2-0.8,0.5-1.3,0.8c-0.7,0.5-1.4,0.9-2.1,1.3c-0.7,0.3-1.4,0.6-2.2,0.8
						c-0.8,0.2-1.7,0.4-2.6,0.5c-1,0.1-2.1,0.1-3.4,0.1c-0.3,0-0.5-0.1-0.7-0.3c-0.2-0.2-0.3-0.6-0.3-1v-1c0-0.5,0.1-0.8,0.4-1.1
						c0.3-0.2,0.7-0.3,1.1-0.3c1.2,0,2.2,0,3-0.1c0.8,0,1.6-0.1,2.2-0.2c0.6-0.1,1.2-0.2,1.7-0.3c0.5-0.1,0.9-0.3,1.4-0.6
						c0.1-0.1,0.2-0.1,0.3-0.2c0.1,0,0.1-0.1,0.2-0.1c0.1,0,0.1-0.1,0.2-0.1c0.1,0,0.2-0.1,0.3-0.2c-1-0.4-1.8-0.6-2.6-0.7
						c-0.8-0.1-1.4-0.1-2-0.1c-0.3,0-0.6,0-0.9,0c-0.3,0-0.6,0-1,0c-0.4,0-0.6-0.1-0.6-0.4c0-0.1,0-0.2,0.1-0.4
						c0.1-0.2,0.2-0.4,0.3-0.6c0.1-0.2,0.2-0.4,0.3-0.6c0.1-0.2,0.2-0.3,0.2-0.4c0.3-0.4,0.6-0.8,0.9-1.1c0.3-0.3,0.7-0.5,1.1-0.5
						c0.1,0,0.3,0,0.6,0c0.2,0,0.5,0,0.8,0c0.2,0,0.4,0,0.7,0c0.2,0,0.4-0.1,0.6-0.2c0.2-0.1,0.3-0.2,0.4-0.4
						C42.4,11.1,42.4,10.9,42.4,10.6z"/>
					<path class="st0" d="M53.8,2.1c0,0,0.1,0,0.3-0.1c0.2,0,0.4-0.1,0.6-0.1c0.2,0,0.4-0.1,0.6-0.1c0.2,0,0.4-0.1,0.5-0.1
						c0.3,0,0.4,0.1,0.5,0.4c0.1,0.2,0.1,0.6,0.1,1c0,0.4,0,0.8,0,1.5c0,0.6,0.1,1.3,0.1,2.1c0,0.8,0.1,1.6,0.1,2.5
						c0,0.9,0.1,1.7,0.1,2.6c0,0.9,0.1,1.8,0.1,2.6c0,0.9,0,1.7,0,2.4c0,1.2-0.1,2.2-0.2,3.1c-0.1,0.9-0.3,1.4-0.6,1.7
						c-0.2,0.3-0.6,0.4-1,0.6c-0.4,0.1-0.8,0.2-1,0.2c-0.2,0-0.3,0-0.4-0.1c-0.1-0.1-0.1-0.2-0.1-0.4c0-0.1,0-0.1,0-0.2
						c0-0.1,0-0.2,0-0.3c0-0.4,0.1-1,0.2-1.9c0.1-0.8,0.1-2,0.1-3.5c0-1.4,0-2.7-0.1-4c-0.1-1.3-0.2-2.4-0.3-3.5
						c-0.1-1.1-0.2-2-0.3-2.9c-0.1-0.8-0.1-1.5-0.1-2.1c0-0.3,0.1-0.6,0.2-0.8C53.1,2.3,53.4,2.2,53.8,2.1z"/>
				</g>
			</g>
		</g>
	</g>
</g>
</svg>
