<?xml version="1.0" encoding="utf-8"?>
<!-- Generator: Adobe Illustrator 19.2.0, SVG Export Plug-In . SVG Version: 6.00 Build 0)  -->
<svg version="1.1" id="Layer_1" xmlns="http://www.w3.org/2000/svg" xmlns:xlink="http://www.w3.org/1999/xlink" x="0px" y="0px"
	 viewBox="0 0 175.9 35.2" style="enable-background:new 0 0 175.9 35.2;" xml:space="preserve">
<style type="text/css">
	.st0{opacity:0.3;}
	.st1{fill:#CC4A6C;}
</style>
<g>
	<g class="st0">
		<path d="M7.9,8.8c0.9-0.7,1.7-1.5,2.4-2.5c-0.7-1-1.6-2-2.7-3L5.1,5.9C6,6.9,7,7.8,7.9,8.8z"/>
		<path d="M2.8,9c0.9-0.7,1.7-1.5,2.4-2.5c-0.7-1-1.6-2-2.7-3L0,6.1C1,7.1,1.9,8,2.8,9z"/>
		<path d="M11.4,25.2c0.6-1.3,1.2-2.8,1.2-5.1c0-2.6-0.8-4.1-2.6-5.8c-1.6-1.4-3.5-2.7-5.2-4.1l-0.5,0.3l-0.4,2.8
			c-2.2,2.7-3.7,5.1-3.7,8.6c0,1.6,0.7,6,5.5,6C7.8,28.1,10,27,11.4,25.2z M6,23.2c-2.2,0-3.6-1.3-3.6-2.8c0-1,0.9-2.4,3-4.3
			c3.2,1.8,4.8,3.4,5,5C9.6,22.5,7.6,23.2,6,23.2z"/>
		<path d="M20.7,15c-0.7,1.3-1.5,2.6-2.2,4.1c2.3,3.5,3.2,5.1,3.2,6c0,0.8-1,2.4-2.6,4.1c-1.8,1.8-3.9,2.9-5.8,2.9
			c-0.9,0-1.7-0.1-2.4-0.3l-0.5,1.3c2.2,1.3,4.7,2.1,6.6,2.1c2.1,0,3.9-1.5,5.5-4.1c1.1-1.9,1.5-4.1,1.5-6.4c0-0.5,0.1-1.1,0.1-2.2
			c0-2-0.8-4.1-2.9-7.5H20.7z"/>
		<path d="M50.4,9.5c0.9-0.7,1.7-1.5,2.4-2.5C52,6,51.1,5,50,4l-2.4,2.6C48.5,7.6,49.5,8.5,50.4,9.5z"/>
		<path d="M55.5,9.3c0.9-0.7,1.7-1.5,2.4-2.5c-0.7-1-1.6-2-2.7-3l-2.4,2.6C53.6,7.3,54.5,8.3,55.5,9.3z"/>
		<path d="M71.3,19.9c-0.8,0-1.8,0.2-2.7,0.6c-0.1-1.9-0.2-4.2-0.3-9.2l2.2-1.7c-1.7-2.9-2.6-4.8-2.6-6.4L67.5,3
			c-0.8,0.6-1.4,1.2-1.9,1.8C65.2,5.4,65,6.1,65,7c0,1,0.3,2.4,0.3,3.6c0.2,3.8,0.3,7.6,0.6,11.4c-1.3,0.7-3.2,1-5.1,1h-0.3
			c0,0,0,0,0,0v0h-0.3c-1.1,0-2.2-0.1-3.5-0.3c0.7-1.5,1.3-3.2,1.3-5c0-1.7-0.4-3.3-1.4-4.9c-0.6-0.9-1.4-1.5-2.4-1.5
			c-1.2,0-2.5,0.8-3.6,1.9c-1.7,1.7-2.8,3.7-2.8,6.3c0,1.2,0.1,2.2,0.4,3.2c-0.9,0.2-1.9,0.3-3.1,0.3h-0.3c0,0,0,0,0,0v0h-0.3
			c-1.9,0-3.2-1.3-3.7-4c-0.8-4.7-1.5-7.5-2.1-9.6l-0.4-0.1c-0.8,1.1-1.6,2.2-2.2,3.3c1.2,3.3,2.1,7.1,2.1,8c0,0.7-0.6,1.2-1.5,1.6
			c-1.3,0.6-2.4,0.8-3.5,0.8c-2,0-3-1.1-3.1-3l-1.6,0.1c0,0.9,0,1.6,0,2c0,4.1,1.7,5.6,4.3,5.6c2.1,0,3.8-0.6,5.2-1.7
			c0.5-0.4,1-1.1,1.3-2.3h0.1c0.9,3.1,2.8,4,5.2,4h0.3v0c0,0,0,0,0,0H45c2.6,0,4.9-0.6,6.7-1.5c3.4,1.2,4.8,1.5,8.3,1.5h0.3v0
			c0,0,0,0,0,0h0.3c2.2,0,3.9-0.7,5.2-1.8h0.1c0.7,3.4,2.7,5.2,4.9,5.2c3.5,0,4.9-3.6,4.9-5.7C75.9,21.9,73.7,19.9,71.3,19.9z
			 M52.5,21.8c-1.8-0.6-3-1.6-3.2-2.9c0.7-1.6,2.3-3.2,3.8-3.2c1.6,0,2.8,2.3,2.8,3.4C56,20,54.7,21.2,52.5,21.8z M72.6,27.4
			c-1.7,0-3.3-1.3-3.9-3.2c0.5-0.2,1.1-0.3,1.7-0.3c1.4,0,3,0.9,3.3,3.2C73.4,27.3,73,27.4,72.6,27.4z"/>
		<path d="M82.2,3.5c-0.9,0.9-1.8,1.9-2.8,3.1c0.6,5.3,0.8,10.4,0.8,15.6c0,2.3-0.1,4.1-0.3,5.8l0.5,0.4c0.8-1,1.5-1.9,2-2.8
			c0.5-0.8,0.7-3.3,0.7-7.1c0-4.7-0.1-9.5-0.6-14.7L82.2,3.5z"/>
		<path d="M107.3,7.4c0.9-0.7,1.7-1.5,2.4-2.5c-0.7-1-1.6-2-2.7-3l-2.4,2.6C105.5,5.5,106.4,6.5,107.3,7.4z"/>
		<path d="M102.3,7.7c0.9-0.7,1.7-1.5,2.4-2.5c-0.7-1-1.6-2-2.7-3l-2.4,2.6C100.4,5.7,101.4,6.7,102.3,7.7z"/>
		<path d="M132.6,17l0-0.2h-1.8c-2,0-3.6-0.3-5.9-1.1c-2.8-1.1-5-1.7-6.7-1.7c-2.5,0-4.7,1.3-5.2,4.3l1.6,3.1h0.5l1.1-2.5
			c0.4-0.3,1.1-0.4,2-0.4c1.4,0,3.5,0.4,6.1,1.3v0.1c-3.8,2.4-7.1,3.2-12.2,3.2h-0.3c0,0,0,0,0,0v0h-0.3c-1.4,0-2-0.2-2.7-0.8
			c-0.7-0.7-0.7-2.3-0.7-4.3c0-3.7,0-6.5-0.1-8.9l-0.4-0.1c-0.8,0.7-1.6,1.5-2.4,2.2l0.1,1.3C102,14,99.3,16,98,18.8
			c-0.6,1.3-1,2.6-1,3.7c0,2.6,2.2,3.4,4.6,3.4c1.5,0,2.9-0.3,4.4-0.9c1,2.2,2.3,2.7,5.3,2.7h0.3v0c0,0,0,0,0,0h0.3
			c7,0,10.2-2.1,14.5-6c1.3-1.2,2.4-1.4,4.1-1.4C131.5,19.1,132.1,18,132.6,17z M102.3,21.5c-1.3,0-2.5-0.3-2.5-1.1
			c0-1,2.2-2.7,5.6-4.3c0,1.3,0.1,3,0.1,4.9C104.5,21.3,103.4,21.5,102.3,21.5z"/>
		<path d="M141.5,15.4c0.9-0.7,1.7-1.5,2.4-2.5c-0.7-1-1.6-2-2.7-3l-2.4,2.6C139.6,13.4,140.6,14.4,141.5,15.4z"/>
		<path d="M136.4,15.6c0.9-0.7,1.7-1.5,2.4-2.5c-0.7-1-1.6-2-2.7-3l-2.4,2.6C134.6,13.6,135.5,14.6,136.4,15.6z"/>
		<path d="M155.8,6.3c-1-1-2.2-1.9-3.4-2.8l-2.2,3.1c1.3,0.9,2.5,1.8,3.5,2.7C154.5,8.5,155.2,7.5,155.8,6.3z"/>
		<path d="M166.6,3.2L166.3,3c-0.8,0.6-1.4,1.2-1.9,1.8c-0.5,0.6-0.6,1.3-0.6,2.2c0,1.2,0.8,6.5,0.8,12.5c0,1.3,0,2-0.4,2.4
			c-0.7,0.7-1.9,1-3.4,1h-0.3c0,0,0,0,0,0v0h-0.3c-1.1,0-2.2-0.1-3.5-0.3c0.7-1.5,1.3-3.2,1.3-5c0-1.7-0.4-3.3-1.4-4.9
			c-0.6-0.9-1.4-1.5-2.4-1.5c-1.2,0-2.5,0.8-3.6,1.9c-1.7,1.7-2.8,3.7-2.8,6.3c0,1.2,0.1,2.2,0.4,3.2c-0.9,0.2-1.9,0.3-3.1,0.3h-0.3
			c0,0,0,0,0,0v0h-0.3c-1,0-1.9-0.3-2.6-0.7c-0.9-0.6-1.2-1.3-1.2-2.5c0-0.5,0.2-1.2,0.5-2.2l-0.2-0.1c-0.7,0.4-1.4,0.9-1.9,1.3
			c-0.5,1.1-0.7,2.6-2,3.5c-0.8,0.5-1.7,0.8-3.3,0.8h-0.3c0,0,0,0,0,0v0h-0.3c-2.1,0-4-0.1-4.2-1.9l-0.1-0.1l-1.3,1.1
			c0,0.5,0,0.9,0,1.4c0,1.5,0.5,2.6,1.3,3.4c0.7,0.6,2.1,1,4.4,1h0.3v0c0,0,0,0,0,0h0.3c2.1,0,3.7-0.9,5-2.6h0.1
			c1.3,2.2,3.3,2.6,5.5,2.6h0.3v0c0,0,0,0,0,0h0.3c2.6,0,4.9-0.6,6.7-1.5c3.4,1.2,4.8,1.5,8.4,1.5h0.3v0c0,0,0,0,0,0h0.3
			c2.2,0,3.5-0.9,4.4-2.2c0.5-0.8,0.9-1.6,1.2-2.6c0.5-1.5,0.9-3.2,0.9-5.3c0-2.4,0-4.6-0.1-6.5l2.1-1.6
			C167.5,6.7,166.6,4.8,166.6,3.2z M152.5,21.8c-1.8-0.6-3-1.6-3.2-2.9c0.7-1.6,2.3-3.2,3.8-3.2c1.6,0,2.8,2.3,2.8,3.4
			C155.9,20,154.6,21.2,152.5,21.8z"/>
		<path d="M175.3,3.8l-0.4-0.2c-0.9,0.9-1.8,1.9-2.8,3.1c0.6,5.3,0.8,10.4,0.8,15.6c0,2.3-0.1,4.1-0.3,5.8l0.5,0.4
			c0.8-1,1.5-1.9,2-2.8c0.5-0.8,0.7-3.3,0.7-7.1C175.9,13.8,175.8,9,175.3,3.8z"/>
	</g>
	<g>
		<path class="st1" d="M7.9,6.8c0.9-0.7,1.7-1.5,2.4-2.5c-0.7-1-1.6-2-2.7-3L5.1,3.9C6,4.9,7,5.8,7.9,6.8z"/>
		<path class="st1" d="M2.8,7c0.9-0.7,1.7-1.5,2.4-2.5c-0.7-1-1.6-2-2.7-3L0,4.1C1,5.1,1.9,6,2.8,7z"/>
		<path class="st1" d="M11.4,23.2c0.6-1.3,1.2-2.8,1.2-5.1c0-2.6-0.8-4.1-2.6-5.8c-1.6-1.4-3.5-2.7-5.2-4.1L4.2,8.6l-0.4,2.8
			c-2.2,2.7-3.7,5.1-3.7,8.6c0,1.6,0.7,6,5.5,6C7.8,26.1,10,25,11.4,23.2z M6,21.2c-2.2,0-3.6-1.3-3.6-2.8c0-1,0.9-2.4,3-4.3
			c3.2,1.8,4.8,3.4,5,5C9.6,20.5,7.6,21.2,6,21.2z"/>
		<path class="st1" d="M20.7,13c-0.7,1.3-1.5,2.6-2.2,4.1c2.3,3.5,3.2,5.1,3.2,6c0,0.8-1,2.4-2.6,4.1c-1.8,1.8-3.9,2.9-5.8,2.9
			c-0.9,0-1.7-0.1-2.4-0.3l-0.5,1.3c2.2,1.3,4.7,2.1,6.6,2.1c2.1,0,3.9-1.5,5.5-4.1c1.1-1.9,1.5-4.1,1.5-6.4c0-0.5,0.1-1.1,0.1-2.2
			c0-2-0.8-4.1-2.9-7.5H20.7z"/>
		<path class="st1" d="M50.4,7.5c0.9-0.7,1.7-1.5,2.4-2.5C52,4,51.1,3,50,2l-2.4,2.6C48.5,5.6,49.5,6.5,50.4,7.5z"/>
		<path class="st1" d="M55.5,7.3c0.9-0.7,1.7-1.5,2.4-2.5c-0.7-1-1.6-2-2.7-3l-2.4,2.6C53.6,5.3,54.5,6.3,55.5,7.3z"/>
		<path class="st1" d="M71.3,17.9c-0.8,0-1.8,0.2-2.7,0.6c-0.1-1.9-0.2-4.2-0.3-9.2l2.2-1.7c-1.7-2.9-2.6-4.8-2.6-6.4L67.5,1
			c-0.8,0.6-1.4,1.2-1.9,1.8C65.2,3.4,65,4.1,65,5c0,1,0.3,2.4,0.3,3.6c0.2,3.8,0.3,7.6,0.6,11.4c-1.3,0.7-3.2,1-5.1,1h-0.3
			c0,0,0,0,0,0v0h-0.3c-1.1,0-2.2-0.1-3.5-0.3c0.7-1.5,1.3-3.2,1.3-5c0-1.7-0.4-3.3-1.4-4.9c-0.6-0.9-1.4-1.5-2.4-1.5
			c-1.2,0-2.5,0.8-3.6,1.9c-1.7,1.7-2.8,3.7-2.8,6.3c0,1.2,0.1,2.2,0.4,3.2c-0.9,0.2-1.9,0.3-3.1,0.3h-0.3c0,0,0,0,0,0v0h-0.3
			c-1.9,0-3.2-1.3-3.7-4c-0.8-4.7-1.5-7.5-2.1-9.6l-0.4-0.1c-0.8,1.1-1.6,2.2-2.2,3.3c1.2,3.3,2.1,7.1,2.1,8c0,0.7-0.6,1.2-1.5,1.6
			c-1.3,0.6-2.4,0.8-3.5,0.8c-2,0-3-1.1-3.1-3l-1.6,0.1c0,0.9,0,1.6,0,2c0,4.1,1.7,5.6,4.3,5.6c2.1,0,3.8-0.6,5.2-1.7
			c0.5-0.4,1-1.1,1.3-2.3h0.1c0.9,3.1,2.8,4,5.2,4h0.3v0c0,0,0,0,0,0H45c2.6,0,4.9-0.6,6.7-1.5c3.4,1.2,4.8,1.5,8.3,1.5h0.3v0
			c0,0,0,0,0,0h0.3c2.2,0,3.9-0.7,5.2-1.8h0.1c0.7,3.4,2.7,5.2,4.9,5.2c3.5,0,4.9-3.6,4.9-5.7C75.9,19.9,73.7,17.9,71.3,17.9z
			 M52.5,19.8c-1.8-0.6-3-1.6-3.2-2.9c0.7-1.6,2.3-3.2,3.8-3.2c1.6,0,2.8,2.3,2.8,3.4C56,18,54.7,19.2,52.5,19.8z M72.6,25.4
			c-1.7,0-3.3-1.3-3.9-3.2c0.5-0.2,1.1-0.3,1.7-0.3c1.4,0,3,0.9,3.3,3.2C73.4,25.3,73,25.4,72.6,25.4z"/>
		<path class="st1" d="M82.2,1.5c-0.9,0.9-1.8,1.9-2.8,3.1C80,9.9,80.2,15,80.2,20.2c0,2.3-0.1,4.1-0.3,5.8l0.5,0.4
			c0.8-1,1.5-1.9,2-2.8c0.5-0.8,0.7-3.3,0.7-7.1c0-4.7-0.1-9.5-0.6-14.7L82.2,1.5z"/>
		<path class="st1" d="M107.3,5.4c0.9-0.7,1.7-1.5,2.4-2.5c-0.7-1-1.6-2-2.7-3l-2.4,2.6C105.5,3.5,106.4,4.5,107.3,5.4z"/>
		<path class="st1" d="M102.3,5.7c0.9-0.7,1.7-1.5,2.4-2.5c-0.7-1-1.6-2-2.7-3l-2.4,2.6C100.4,3.7,101.4,4.7,102.3,5.7z"/>
		<path class="st1" d="M132.6,15l0-0.2h-1.8c-2,0-3.6-0.3-5.9-1.1c-2.8-1.1-5-1.7-6.7-1.7c-2.5,0-4.7,1.3-5.2,4.3l1.6,3.1h0.5
			l1.1-2.5c0.4-0.3,1.1-0.4,2-0.4c1.4,0,3.5,0.4,6.1,1.3v0.1c-3.8,2.4-7.1,3.2-12.2,3.2h-0.3c0,0,0,0,0,0v0h-0.3
			c-1.4,0-2-0.2-2.7-0.8c-0.7-0.7-0.7-2.3-0.7-4.3c0-3.7,0-6.5-0.1-8.9l-0.4-0.1c-0.8,0.7-1.6,1.5-2.4,2.2l0.1,1.3
			C102,12,99.3,14,98,16.8c-0.6,1.3-1,2.6-1,3.7c0,2.6,2.2,3.4,4.6,3.4c1.5,0,2.9-0.3,4.4-0.9c1,2.2,2.3,2.7,5.3,2.7h0.3v0
			c0,0,0,0,0,0h0.3c7,0,10.2-2.1,14.5-6c1.3-1.2,2.4-1.4,4.1-1.4C131.5,17.1,132.1,16,132.6,15z M102.3,19.5c-1.3,0-2.5-0.3-2.5-1.1
			c0-1,2.2-2.7,5.6-4.3c0,1.3,0.1,3,0.1,4.9C104.5,19.3,103.4,19.5,102.3,19.5z"/>
		<path class="st1" d="M141.5,13.4c0.9-0.7,1.7-1.5,2.4-2.5c-0.7-1-1.6-2-2.7-3l-2.4,2.6C139.6,11.4,140.6,12.4,141.5,13.4z"/>
		<path class="st1" d="M136.4,13.6c0.9-0.7,1.7-1.5,2.4-2.5c-0.7-1-1.6-2-2.7-3l-2.4,2.6C134.6,11.6,135.5,12.6,136.4,13.6z"/>
		<path class="st1" d="M155.8,4.3c-1-1-2.2-1.9-3.4-2.8l-2.2,3.1c1.3,0.9,2.5,1.8,3.5,2.7C154.5,6.5,155.2,5.5,155.8,4.3z"/>
		<path class="st1" d="M166.6,1.2L166.3,1c-0.8,0.6-1.4,1.2-1.9,1.8c-0.5,0.6-0.6,1.3-0.6,2.2c0,1.2,0.8,6.5,0.8,12.5
			c0,1.3,0,2-0.4,2.4c-0.7,0.7-1.9,1-3.4,1h-0.3c0,0,0,0,0,0v0h-0.3c-1.1,0-2.2-0.1-3.5-0.3c0.7-1.5,1.3-3.2,1.3-5
			c0-1.7-0.4-3.3-1.4-4.9c-0.6-0.9-1.4-1.5-2.4-1.5c-1.2,0-2.5,0.8-3.6,1.9c-1.7,1.7-2.8,3.7-2.8,6.3c0,1.2,0.1,2.2,0.4,3.2
			c-0.9,0.2-1.9,0.3-3.1,0.3h-0.3c0,0,0,0,0,0v0h-0.3c-1,0-1.9-0.3-2.6-0.7c-0.9-0.6-1.2-1.3-1.2-2.5c0-0.5,0.2-1.2,0.5-2.2
			l-0.2-0.1c-0.7,0.4-1.4,0.9-1.9,1.3c-0.5,1.1-0.7,2.6-2,3.5c-0.8,0.5-1.7,0.8-3.3,0.8h-0.3c0,0,0,0,0,0v0h-0.3
			c-2.1,0-4-0.1-4.2-1.9l-0.1-0.1l-1.3,1.1c0,0.5,0,0.9,0,1.4c0,1.5,0.5,2.6,1.3,3.4c0.7,0.6,2.1,1,4.4,1h0.3v0c0,0,0,0,0,0h0.3
			c2.1,0,3.7-0.9,5-2.6h0.1c1.3,2.2,3.3,2.6,5.5,2.6h0.3v0c0,0,0,0,0,0h0.3c2.6,0,4.9-0.6,6.7-1.5c3.4,1.2,4.8,1.5,8.4,1.5h0.3v0
			c0,0,0,0,0,0h0.3c2.2,0,3.5-0.9,4.4-2.2c0.5-0.8,0.9-1.6,1.2-2.6c0.5-1.5,0.9-3.2,0.9-5.3c0-2.4,0-4.6-0.1-6.5l2.1-1.6
			C167.5,4.7,166.6,2.8,166.6,1.2z M152.5,19.8c-1.8-0.6-3-1.6-3.2-2.9c0.7-1.6,2.3-3.2,3.8-3.2c1.6,0,2.8,2.3,2.8,3.4
			C155.9,18,154.6,19.2,152.5,19.8z"/>
		<path class="st1" d="M175.3,1.8l-0.4-0.2c-0.9,0.9-1.8,1.9-2.8,3.1c0.6,5.3,0.8,10.4,0.8,15.6c0,2.3-0.1,4.1-0.3,5.8l0.5,0.4
			c0.8-1,1.5-1.9,2-2.8c0.5-0.8,0.7-3.3,0.7-7.1C175.9,11.8,175.8,7,175.3,1.8z"/>
	</g>
</g>
</svg>
