<?xml version="1.0" encoding="utf-8"?>
<!-- Generator: Adobe Illustrator 22.0.1, SVG Export Plug-In . SVG Version: 6.00 Build 0)  -->
<svg version="1.1" id="Layer_1" xmlns="http://www.w3.org/2000/svg" xmlns:xlink="http://www.w3.org/1999/xlink" x="0px" y="0px"
	 viewBox="0 0 94.2 35.8" style="enable-background:new 0 0 94.2 35.8;" xml:space="preserve">
<style type="text/css">
	.st0{opacity:0.3;}
	.st1{fill:#CC4A6C;}
</style>
<g class="st0">
	<path d="M11.9,8.1C10.8,7,9.5,6,7.9,5L5.5,8.5c1.3,0.9,2.7,1.9,3.9,3.1C10.4,10.4,11.2,9.3,11.9,8.1z"/>
	<path d="M14.9,12.6c-1,1.4-1.8,2.7-2.6,4.1c1.9,3.7,2.8,6.3,2.8,7.9c0,0.5-0.2,0.9-0.5,1.2c-1.4,1.4-4.2,2.7-6.6,2.7
		c-1.5,0-5.7-0.6-5.7-5.7c0-1,0.4-2.6,1.2-4.3l-1.3-0.7C0.7,20.7,0,23.2,0,25.6c0,4.7,3,8,7.6,8c3,0,6.7-1.7,8.7-4.5
		c0.9-2,1.5-4.2,1.5-5.9c0-3.8-1-7.2-2.5-10.6L14.9,12.6z"/>
	<path d="M37.9,9.5l0-0.1c3-1.4,7-2.9,11.8-4.3c0.6-1.1,1.3-2.3,2-3.9L51.6,1c-5.5,1.7-10.4,3.3-13.7,5c-0.6,0.3-1.1,0.7-1.4,1
		c-0.6,0.7-0.9,1.8-0.9,3.1c0,0.9,0.1,1.7,0.4,2.3c4.2,3.9,6.6,6.7,6.8,8.4c-0.7,1.2-3.6,1.3-6.8,1.3h-0.3c0,0,0,0,0,0v0h-1.6
		c-1-5-2.7-7.9-5.4-7.9c-1.4,0-2.7,0.8-3.8,2.1c-1.2,1.4-1.8,3-1.8,4.8c0,4.3,3.1,5.8,7.7,5.8h0.7c-0.5,1-1.5,2-2.8,3
		c-1.9,1.5-3.9,2.5-6,2.5c-1.1,0-2-0.3-2.9-0.7l-0.6,1.3c2.6,1.7,4.9,2.7,7.1,2.7c3.8,0,6.8-4.4,7.8-8.8h1.8v0c0,0,0,0,0,0h0.3
		c3.5,0,5.8-0.5,7-1.6c1.1-1.1,1.9-2.5,2.2-4.5h0.1c3.6,4.4,4,6.1,8.6,6.1h0.3v0c0,0,0,0,0,0h0.3c1.9,0,3.5-0.6,5-1.8
		c0.4,1.3,1.4,1.8,2.6,1.8c1.6,0,2.7-0.7,4-2h0.1c0.4,1.4,1.3,2,2.7,2c1.4,0,2.8-0.7,4.1-2.2h0.1c0.8,1.6,2.8,2.2,5.5,2.2h0.3v0
		c0,0,0,0,0,0h0.3c2.2,0,3.5-0.9,4.4-2.2c0.5-0.8,0.9-1.6,1.2-2.6c0.5-1.5,0.9-3.2,0.9-5.3c0-2.4,0-4.6-0.1-6.5l2.1-1.6
		c-1.7-2.9-2.6-4.8-2.6-6.4l-0.3-0.2c-0.8,0.6-1.4,1.2-1.9,1.8c-0.5,0.6-0.6,1.3-0.6,2.2c0,1.2,0.8,6.5,0.8,12.5c0,1.3,0,2-0.4,2.4
		c-0.7,0.7-1.9,1-3.4,1h-0.3c0,0,0,0,0,0v0h-0.3c-2.7,0-4-0.8-4-2.5c0-0.8,0.3-1.8,0.7-3.1l-0.2-0.2c-0.7,0.4-1.3,0.8-1.9,1.2
		c-0.4,1.2-0.7,2.5-1.3,3.4c-0.6,0.7-1.3,1.2-2.4,1.2c-0.8,0-1.2-0.5-1.2-1.5c0-0.7,0.5-1.9,1.1-3.3l-0.2-0.2
		c-0.7,0.3-1.3,0.6-1.9,1c-0.6,1.2-0.8,2.2-1.7,3.1c-0.5,0.5-1.2,0.9-2.3,0.9c-0.8,0-1.3-0.3-1.3-1.2c0-0.7,0.6-1.9,1.5-3.1
		l-0.3-0.2c-0.8,0.3-1.5,0.6-2.1,1c-0.8,1.1-1.3,2-2.1,2.6c-0.9,0.7-2.3,1.1-4.3,1.1h-0.3c0,0,0,0,0,0v0h-0.3c-4.2,0-6-4.6-12.4-9.4
		 M30.6,22.3c-3.2,0-5.6-0.9-5.6-2.3c0-0.6,0.9-1.8,2.4-1.8c1.9,0,3.2,1.6,4.1,4C31.2,22.3,30.9,22.3,30.6,22.3z"/>
	<path d="M93.6,3.1l-0.4-0.2c-0.9,0.9-1.8,1.9-2.8,3.1c0.6,5.3,0.8,10.4,0.8,15.6c0,2.3-0.1,4.1-0.3,5.8l0.5,0.4
		c0.8-1,1.5-1.9,2-2.8c0.5-0.8,0.7-3.3,0.7-7.1C94.2,13.1,94.1,8.3,93.6,3.1z"/>
</g>
<g>
	<path class="st1" d="M11.9,7.1C10.8,6,9.5,5,7.9,4L5.5,7.5c1.3,0.9,2.7,1.9,3.9,3.1C10.4,9.4,11.2,8.3,11.9,7.1z"/>
	<path class="st1" d="M14.9,11.6c-1,1.4-1.8,2.7-2.6,4.1c1.9,3.7,2.8,6.3,2.8,7.9c0,0.5-0.2,0.9-0.5,1.2c-1.4,1.4-4.2,2.7-6.6,2.7
		c-1.5,0-5.7-0.6-5.7-5.7c0-1,0.4-2.6,1.2-4.3l-1.3-0.7C0.7,19.7,0,22.2,0,24.6c0,4.7,3,8,7.6,8c3,0,6.7-1.7,8.7-4.5
		c0.9-2,1.5-4.2,1.5-5.9c0-3.8-1-7.2-2.5-10.6L14.9,11.6z"/>
	<path class="st1" d="M37.9,8.5l0-0.1c3-1.4,7-2.9,11.8-4.3c0.6-1.1,1.3-2.3,2-3.9L51.6,0c-5.5,1.7-10.4,3.3-13.7,5
		c-0.6,0.3-1.1,0.7-1.4,1c-0.6,0.7-0.9,1.8-0.9,3.1c0,0.9,0.1,1.7,0.4,2.3c4.2,3.9,6.6,6.7,6.8,8.4c-0.7,1.2-3.6,1.3-6.8,1.3h-0.3
		c0,0,0,0,0,0v0h-1.6c-1-5-2.7-7.9-5.4-7.9c-1.4,0-2.7,0.8-3.8,2.1c-1.2,1.4-1.8,3-1.8,4.8c0,4.3,3.1,5.8,7.7,5.8h0.7
		c-0.5,1-1.5,2-2.8,3c-1.9,1.5-3.9,2.5-6,2.5c-1.1,0-2-0.3-2.9-0.7l-0.6,1.3c2.6,1.7,4.9,2.7,7.1,2.7c3.8,0,6.8-4.4,7.8-8.8h1.8v0
		c0,0,0,0,0,0h0.3c3.5,0,5.8-0.5,7-1.6c1.1-1.1,1.9-2.5,2.2-4.5h0.1c3.6,4.4,4,6.1,8.6,6.1h0.3v0c0,0,0,0,0,0h0.3
		c1.9,0,3.5-0.6,5-1.8c0.4,1.3,1.4,1.8,2.6,1.8c1.6,0,2.7-0.7,4-2h0.1c0.4,1.4,1.3,2,2.7,2c1.4,0,2.8-0.7,4.1-2.2h0.1
		c0.8,1.6,2.8,2.2,5.5,2.2h0.3v0c0,0,0,0,0,0h0.3c2.2,0,3.5-0.9,4.4-2.2c0.5-0.8,0.9-1.6,1.2-2.6c0.5-1.5,0.9-3.2,0.9-5.3
		c0-2.4,0-4.6-0.1-6.5l2.1-1.6c-1.7-2.9-2.6-4.8-2.6-6.4l-0.3-0.2c-0.8,0.6-1.4,1.2-1.9,1.8c-0.5,0.6-0.6,1.3-0.6,2.2
		c0,1.2,0.8,6.5,0.8,12.5c0,1.3,0,2-0.4,2.4c-0.7,0.7-1.9,1-3.4,1h-0.3c0,0,0,0,0,0v0h-0.3c-2.7,0-4-0.8-4-2.5
		c0-0.8,0.3-1.8,0.7-3.1l-0.2-0.2c-0.7,0.4-1.3,0.8-1.9,1.2c-0.4,1.2-0.7,2.5-1.3,3.4c-0.6,0.7-1.3,1.2-2.4,1.2
		c-0.8,0-1.2-0.5-1.2-1.5c0-0.7,0.5-1.9,1.1-3.3l-0.2-0.2c-0.7,0.3-1.3,0.6-1.9,1c-0.6,1.2-0.8,2.2-1.7,3.1
		c-0.5,0.5-1.2,0.9-2.3,0.9c-0.8,0-1.3-0.3-1.3-1.2c0-0.7,0.6-1.9,1.5-3.1l-0.3-0.2c-0.8,0.3-1.5,0.6-2.1,1c-0.8,1.1-1.3,2-2.1,2.6
		c-0.9,0.7-2.3,1.1-4.3,1.1h-0.3c0,0,0,0,0,0v0h-0.3c-4.2,0-6-4.6-12.4-9.4 M30.6,21.3c-3.2,0-5.6-0.9-5.6-2.3
		c0-0.6,0.9-1.8,2.4-1.8c1.9,0,3.2,1.6,4.1,4C31.2,21.3,30.9,21.3,30.6,21.3z"/>
	<path class="st1" d="M93.6,2.1l-0.4-0.2c-0.9,0.9-1.8,1.9-2.8,3.1c0.6,5.3,0.8,10.4,0.8,15.6c0,2.3-0.1,4.1-0.3,5.8l0.5,0.4
		c0.8-1,1.5-1.9,2-2.8c0.5-0.8,0.7-3.3,0.7-7.1C94.2,12.1,94.1,7.3,93.6,2.1z"/>
</g>
</svg>
