<?xml version="1.0" encoding="utf-8"?>
<!-- Generator: Adobe Illustrator 22.0.1, SVG Export Plug-In . SVG Version: 6.00 Build 0)  -->
<svg version="1.1" id="Layer_1" xmlns="http://www.w3.org/2000/svg" xmlns:xlink="http://www.w3.org/1999/xlink" x="0px" y="0px"
	 viewBox="0 0 202.6 40" style="enable-background:new 0 0 202.6 40;" xml:space="preserve">
<style type="text/css">
	.st0{opacity:0.3;}
	.st1{fill:#CC4A6C;}
</style>
<g>
	<g class="st0">
		<path d="M3.1,9.9c1-0.8,1.9-1.7,2.6-2.7C4.9,6.1,3.9,5,2.7,3.9L0,6.8C1.1,7.8,2.1,8.9,3.1,9.9z"/>
		<path d="M8.7,9.7c1-0.8,1.9-1.7,2.6-2.7c-0.8-1.1-1.8-2.2-3-3.3L5.6,6.5C6.7,7.6,7.7,8.6,8.7,9.7z"/>
		<path d="M12.6,27.8c0.7-1.5,1.3-3.1,1.3-5.6c0-2.8-0.9-4.5-2.9-6.4c-1.8-1.6-3.9-2.9-5.7-4.5l-0.6,0.4l-0.4,3.1
			c-2.4,2.9-4.1,5.6-4.1,9.5c0,1.8,0.8,6.7,6.1,6.7C8.6,31,11.1,29.9,12.6,27.8z M6.7,25.6c-2.4,0-4-1.5-4-3.1c0-1.1,1-2.7,3.3-4.7
			c3.5,2,5.3,3.8,5.5,5.6C10.7,24.8,8.4,25.6,6.7,25.6z"/>
		<path d="M44.2,15.8c-2.3-1.5-4.3-3.1-6-4.7h-0.5c-0.3,1-0.6,1.9-0.9,2.9c-2.5,1.8-4.2,4.5-4.2,8.1c0,0.9,0.1,1.9,0.2,2.8
			c-1.9,0.3-3.1,0.4-3.8,0.4h-0.4c0,0,0,0,0,0v0h-0.4c-3,0-4.4-2.1-5.8-5.2h-0.4c-0.7,1.2-1.3,2.5-1.9,3.9c0.9,2,1.9,3.6,2.9,4.9
			c-0.3,1.6-1.4,3.5-3.1,5.1c-1.6,1.5-3.6,2.4-5.8,2.4c-0.6,0-1.4-0.1-2.4-0.5l-0.6,1.3c2.8,1.9,5.1,2.6,7.1,2.6
			c2.2,0,3.9-1.5,5.4-3.9c0.9-1.5,1.7-3.3,1.7-6c0.8,0.3,1.7,0.5,2.8,0.5h0.5v0c0,0,0,0,0,0H29c2.1,0,4.6-0.5,7.8-1.7
			c3.5,1,6.6,1.7,9.1,1.7c1.9,0,3.4-0.9,4.3-2.9c0.6-1.1,0.8-2.3,0.8-3.5C51,20.3,48,18.4,44.2,15.8z M38.1,24.2
			c-1.8-0.6-3.4-1.8-3.4-3.2c0-1.2,2-3.2,3.6-3.2c1.6,0,3,2,3,4C41.3,22.7,40.1,23.8,38.1,24.2z M46.7,26.1c-1.2,0-2.9-0.3-4.6-0.8
			c0.7-1.4,1.1-2.8,1.4-4.3c2.9,1.7,4.8,3.3,4.8,4.5C48.3,25.9,47.7,26.1,46.7,26.1z"/>
		<path d="M80.5,9.7c-0.9-1-1.9-2.1-3.2-3.1l-2.5,3c1.1,1,2.2,1.9,3.3,3C79,11.7,79.8,10.8,80.5,9.7z"/>
		<path d="M94.6,3.5l-0.3-0.2c-0.9,0.7-1.6,1.4-2.1,2s-0.7,1.5-0.7,2.5c0,1.3,0.9,7.2,0.9,13.8c0,1.4,0,2.2-0.5,2.6
			c-0.8,0.8-2.1,1.1-3.8,1.1h-0.4c0,0,0,0,0,0v0h-3.2c0.5-1,0.8-2.1,0.8-3.2c0-1.5-0.4-2.8-1.3-4c-1.3-1.8-3.1-2.7-5.5-2.7
			c-3.4,0-6.7,2.6-9.6,5.8l-0.1,0c0.5-1.4,0.8-2.6,0.8-4.5c0-2.2,0-4-0.1-5.8L71.8,9c-1.7-2.8-2.9-5.2-2.9-7.1l-0.4-0.2
			c-1.8,1.5-2.6,2.4-2.6,4.4c0,1.3,0.8,3.6,0.8,13.5c0,1.6-0.1,3.1-0.3,4.2l-1.2,1.5h-2.4c0,0,0,0,0,0v0h-0.4
			c-2.4,0-3.5-0.9-3.5-3.6c0-2.2,0.1-3.6,0.1-6.4c0-3.7-0.1-8.1-0.5-11.9l-0.4-0.2c-1,0.9-2.1,1.9-3.1,2.9c0.7,6.5,0.9,14.3,1,17.4
			c0.1,5.2,2.7,7,6.3,7h0.5v0c0,0,0,0,0,0h0.4c5.1,0,10.2-0.1,14.7-0.7c2.9,0.4,5.9,0.7,9.5,0.7h0.4v0c0,0,0,0,0,0h0.4
			c2.4,0,3.8-1,4.9-2.4c0.6-0.9,1-1.8,1.3-2.8c0.6-1.7,1-3.5,1-5.9c0-2.6-0.1-5.1-0.2-7.1l2.4-1.8C95.6,7.4,94.6,5.3,94.6,3.5z
			 M80.8,24.4c-2.3,0.7-7,0.9-12.5,0.9c3.1-3.1,6.2-5.2,9-5.2c3.2,0,5,2.6,5,3.3C82.4,23.8,81.7,24.1,80.8,24.4z"/>
		<path d="M103.7,3.9c-1,1-2,2.1-3.1,3.4c0.6,5.8,0.9,11.5,0.9,17.3c0,2.6-0.1,4.5-0.3,6.4l0.6,0.4c0.9-1.1,1.6-2.1,2.2-3.1
			c0.6-0.9,0.8-3.7,0.8-7.9c0-5.2-0.1-10.5-0.6-16.3L103.7,3.9z"/>
		<path d="M131.5,8.2c1-0.8,1.9-1.7,2.6-2.7c-0.8-1.1-1.8-2.2-3-3.3l-2.7,2.8C129.5,6.1,130.5,7.1,131.5,8.2z"/>
		<path d="M125.9,8.5c1-0.8,1.9-1.7,2.6-2.7c-0.8-1.1-1.8-2.2-3-3.3l-2.7,2.8C123.8,6.3,124.9,7.4,125.9,8.5z"/>
		<path d="M176.5,8.8c-1.1-1.1-2.4-2.2-3.8-3.1l-2.4,3.4c1.4,1,2.8,2,3.9,2.9C175.1,11.1,175.9,10.1,176.5,8.8z"/>
		<path d="M192.3,3.5L192,3.3c-0.9,0.7-1.6,1.4-2.1,2s-0.7,1.5-0.7,2.5c0,1.3,0.9,7.2,0.9,13.8c0,1.4,0,2.2-0.5,2.6
			c-0.8,0.8-2.1,1.1-3.8,1.1h-0.4c0,0,0,0,0,0v0h-3.3c0.6-1.3,1-2.7,1-4.1c0-3.4-2.7-6-5.9-6c-3.7,0-7.5,3.4-11.3,9
			c-0.9-0.5-1.4-1.3-1.4-2.6c0-0.6,0.1-1.4,0.4-2.4l-0.2-0.1c-0.7,0.5-1.4,1-2,1.5c-0.4,1.1-0.8,2.5-1.3,3.2
			c-0.7,1.1-2.1,1.6-4.1,1.6h-0.4c0,0,0,0,0,0v0h-0.4c-1.9,0-3.2-0.7-3.9-2.1c-1.6-3.4-2.8-6.9-5.9-6.9c-1,0-2,0.5-3.1,1.4
			c-1,0.9-1.6,2.1-2,3.4c-0.9,2.7-1.3,4.2-5,4.2h-0.4c0,0,0,0,0,0v0h-0.4c-1.6,0-2.2-0.2-3-0.9c-0.8-0.8-0.8-2.5-0.8-4.7
			c0-4,0-7.2-0.2-9.8l-0.4-0.1c-0.9,0.8-1.8,1.6-2.6,2.5l0.1,1.4c-3.4,1.9-6.3,4.1-7.8,7.2c-0.7,1.5-1.1,2.8-1.1,4.1
			c0,2.8,2.5,3.8,5.1,3.8c1.6,0,3.2-0.4,4.9-1c1.1,2.4,2.6,3,5.8,3h0.4v0c0,0,0,0,0,0h0.4c1.9,0,3.6-0.7,4.8-3h0.1
			c2.2,2.5,5.3,4.1,7.3,4.1c1.5,0,2.5-1.2,3.1-3.3h0.1c1.3,1.9,3,2.2,4.5,2.2h0.4v0c0,0,0,0,0,0h0.3c2.4,0,4.1-1,5.5-2.7h0.1
			c1.2,2,3.7,2.7,6.8,2.7c2.2,0,4.3-0.3,6.3-0.7c2.4,0.4,5.4,0.7,9,0.7h0.4v0c0,0,0,0,0,0h0.4c2.4,0,3.8-1,4.9-2.4
			c0.6-0.9,1-1.8,1.3-2.8c0.6-1.7,1-3.5,1-5.9c0-2.6-0.1-5.1-0.2-7.1l2.4-1.8C193.3,7.4,192.3,5.3,192.3,3.5z M125.9,23.7
			c-1.5,0-2.7-0.3-2.7-1.2c0-1.1,2.4-3,6.2-4.7c0.1,1.5,0.1,3.3,0.1,5.4C128.3,23.5,127.1,23.7,125.9,23.7z M149.6,26.4
			c-1.7,0-5.3-1.7-6.2-3.9c0.7-1.1,1.6-1.7,2.7-1.7c2.3,0,4.2,3.8,4.2,5.1C150.2,26.2,150,26.4,149.6,26.4z M171.7,25.3
			c-1.5,0-2.7-0.1-3.6-0.4c2.6-3.2,5.2-5,7.8-5c2.8,0,4.3,2.4,4.3,3.2C180.2,24,176.1,25.3,171.7,25.3z"/>
		<path d="M201.9,4.2l-0.5-0.2c-1,1-2,2.1-3.1,3.4c0.6,5.8,0.9,11.5,0.9,17.3c0,2.6-0.1,4.5-0.3,6.4l0.6,0.4
			c0.9-1.1,1.6-2.1,2.2-3.1c0.6-0.9,0.8-3.7,0.8-7.9C202.5,15.3,202.4,9.9,201.9,4.2z"/>
	</g>
	<g>
		<path class="st1" d="M12.7,26.2c0.7-1.5,1.3-3.1,1.3-5.6c0-2.8-0.9-4.5-2.9-6.4c-1.8-1.6-3.9-2.9-5.7-4.5l-0.6,0.4l-0.4,3.1
			c-2.4,2.9-4.1,5.6-4.1,9.5c0,1.8,0.8,6.7,6.1,6.7C8.7,29.4,11.2,28.2,12.7,26.2z M6.8,24c-2.4,0-4-1.5-4-3.1c0-1.1,1-2.7,3.3-4.7
			c3.5,2,5.3,3.8,5.5,5.6C10.7,23.2,8.5,24,6.8,24z"/>
		<path class="st1" d="M8.8,8c1-0.8,1.9-1.7,2.6-2.7c-0.8-1.1-1.8-2.2-3-3.3L5.7,4.9C6.8,5.9,7.8,7,8.8,8z"/>
		<path class="st1" d="M3.2,8.3c1-0.8,1.9-1.7,2.6-2.7C5,4.5,4,3.4,2.8,2.3L0.1,5.1C1.2,6.2,2.2,7.2,3.2,8.3z"/>
		<path class="st1" d="M44.3,14.1c-2.3-1.5-4.3-3.1-6-4.7h-0.5c-0.3,1-0.6,1.9-0.9,2.9c-2.5,1.8-4.2,4.5-4.2,8.1
			c0,0.9,0.1,1.9,0.2,2.8c-1.9,0.3-3.1,0.4-3.8,0.4h-0.4c0,0,0,0,0,0v0h-0.4c-3,0-4.4-2.1-5.8-5.2h-0.4c-0.7,1.2-1.3,2.5-1.9,3.9
			c0.9,2,1.9,3.6,2.9,4.9c-0.3,1.6-1.4,3.5-3.1,5.1c-1.6,1.5-3.6,2.4-5.8,2.4c-0.6,0-1.4-0.1-2.4-0.5l-0.6,1.3
			c2.8,1.9,5.1,2.6,7.1,2.6c2.2,0,3.9-1.5,5.4-3.9c0.9-1.5,1.7-3.3,1.7-6c0.8,0.3,1.7,0.5,2.8,0.5h0.5v0c0,0,0,0,0,0h0.4
			c2.1,0,4.6-0.5,7.8-1.7c3.5,1,6.6,1.7,9.1,1.7c1.9,0,3.4-0.9,4.3-2.9c0.6-1.1,0.8-2.3,0.8-3.5C51.1,18.6,48.1,16.7,44.3,14.1z
			 M38.2,22.6c-1.8-0.6-3.4-1.8-3.4-3.2c0-1.2,2-3.2,3.6-3.2c1.6,0,3,2,3,4C41.4,21.1,40.2,22.1,38.2,22.6z M46.8,24.4
			c-1.2,0-2.9-0.3-4.6-0.8c0.7-1.4,1.1-2.8,1.4-4.3c2.9,1.7,4.8,3.3,4.8,4.5C48.3,24.3,47.8,24.4,46.8,24.4z"/>
		<path class="st1" d="M80.6,8c-0.9-1-1.9-2.1-3.2-3.1l-2.5,3c1.1,1,2.2,1.9,3.3,3C79.1,10,79.9,9.1,80.6,8z"/>
		<path class="st1" d="M94.7,1.9l-0.3-0.2c-0.9,0.7-1.6,1.4-2.1,2s-0.7,1.5-0.7,2.5c0,1.3,0.9,7.2,0.9,13.8c0,1.4,0,2.2-0.5,2.6
			c-0.8,0.8-2.1,1.1-3.8,1.1h-0.4c0,0,0,0,0,0v0h-3.2c0.5-1,0.8-2.1,0.8-3.2c0-1.5-0.4-2.8-1.3-4c-1.3-1.8-3.1-2.7-5.5-2.7
			c-3.4,0-6.7,2.6-9.6,5.8l-0.1,0c0.5-1.4,0.8-2.6,0.8-4.5c0-2.2,0-4-0.1-5.8l2.3-1.7C70.2,4.5,69,2.2,69,0.2L68.6,0
			C66.9,1.5,66,2.4,66,4.4C66,5.7,66.8,8,66.8,18c0,1.6-0.1,3.1-0.3,4.2l-1.2,1.5h-2.4c0,0,0,0,0,0v0h-0.4c-2.4,0-3.5-0.9-3.5-3.6
			c0-2.2,0.1-3.6,0.1-6.4c0-3.7-0.1-8.1-0.5-11.9l-0.4-0.2c-1,0.9-2.1,1.9-3.1,2.9c0.7,6.5,0.9,14.3,1,17.4c0.1,5.2,2.7,7,6.3,7h0.5
			v0c0,0,0,0,0,0h0.4c5.1,0,10.2-0.1,14.7-0.7c2.9,0.4,5.9,0.7,9.5,0.7h0.4v0c0,0,0,0,0,0h0.4c2.4,0,3.8-1,4.9-2.4
			c0.6-0.9,1-1.8,1.3-2.8c0.6-1.7,1-3.5,1-5.9c0-2.6-0.1-5.1-0.2-7.1L97.6,9C95.7,5.8,94.7,3.6,94.7,1.9z M80.9,22.8
			c-2.3,0.7-7,0.9-12.5,0.9c3.1-3.1,6.2-5.2,9-5.2c3.2,0,5,2.6,5,3.3C82.5,22.2,81.8,22.5,80.9,22.8z"/>
		<path class="st1" d="M103.8,2.3c-1,1-2,2.1-3.1,3.4c0.6,5.8,0.9,11.5,0.9,17.3c0,2.6-0.1,4.5-0.3,6.4l0.6,0.4
			c0.9-1.1,1.6-2.1,2.2-3.1c0.6-0.9,0.8-3.7,0.8-7.9c0-5.2-0.1-10.5-0.6-16.3L103.8,2.3z"/>
		<path class="st1" d="M131.6,6.6c1-0.8,1.9-1.7,2.6-2.7c-0.8-1.1-1.8-2.2-3-3.3l-2.7,2.8C129.5,4.4,130.6,5.5,131.6,6.6z"/>
		<path class="st1" d="M126,6.8c1-0.8,1.9-1.7,2.6-2.7c-0.8-1.1-1.8-2.2-3-3.3l-2.7,2.8C123.9,4.7,125,5.7,126,6.8z"/>
		<path class="st1" d="M176.6,7.1c-1.1-1.1-2.4-2.2-3.8-3.1l-2.4,3.4c1.4,1,2.8,2,3.9,2.9C175.2,9.5,176,8.4,176.6,7.1z"/>
		<path class="st1" d="M192.4,1.9L192,1.6c-0.9,0.7-1.6,1.4-2.1,2s-0.7,1.5-0.7,2.5c0,1.3,0.9,7.2,0.9,13.8c0,1.4,0,2.2-0.5,2.6
			c-0.8,0.8-2.1,1.1-3.8,1.1h-0.4c0,0,0,0,0,0v0h-3.3c0.6-1.3,1-2.7,1-4.1c0-3.4-2.7-6-5.9-6c-3.7,0-7.5,3.4-11.3,9
			c-0.9-0.5-1.4-1.3-1.4-2.6c0-0.6,0.1-1.4,0.4-2.4l-0.2-0.1c-0.7,0.5-1.4,1-2,1.5c-0.4,1.1-0.8,2.5-1.3,3.2
			c-0.7,1.1-2.1,1.6-4.1,1.6H157c0,0,0,0,0,0v0h-0.4c-1.9,0-3.2-0.7-3.9-2.1c-1.6-3.4-2.8-6.9-5.9-6.9c-1,0-2,0.5-3.1,1.4
			c-1,0.9-1.6,2.1-2,3.4c-0.9,2.7-1.3,4.2-5,4.2h-0.4c0,0,0,0,0,0v0H136c-1.6,0-2.2-0.2-3-0.9c-0.8-0.8-0.8-2.5-0.8-4.7
			c0-4,0-7.2-0.2-9.8L131.6,8c-0.9,0.8-1.8,1.6-2.6,2.5l0.1,1.4c-3.4,1.9-6.3,4.1-7.8,7.2c-0.7,1.5-1.1,2.8-1.1,4.1
			c0,2.8,2.5,3.8,5.1,3.8c1.6,0,3.2-0.4,4.9-1c1.1,2.4,2.6,3,5.8,3h0.4v0c0,0,0,0,0,0h0.4c1.9,0,3.6-0.7,4.8-3h0.1
			c2.2,2.5,5.3,4.1,7.3,4.1c1.5,0,2.5-1.2,3.1-3.3h0.1c1.3,1.9,3,2.2,4.5,2.2h0.4v0c0,0,0,0,0,0h0.3c2.4,0,4.1-1,5.5-2.7h0.1
			c1.2,2,3.7,2.7,6.8,2.7c2.2,0,4.3-0.3,6.3-0.7c2.4,0.4,5.4,0.7,9,0.7h0.4v0c0,0,0,0,0,0h0.4c2.4,0,3.8-1,4.9-2.4
			c0.6-0.9,1-1.8,1.3-2.8c0.6-1.7,1-3.5,1-5.9c0-2.6-0.1-5.1-0.2-7.1l2.4-1.8C193.4,5.8,192.4,3.6,192.4,1.9z M126,22
			c-1.5,0-2.7-0.3-2.7-1.2c0-1.1,2.4-3,6.2-4.7c0.1,1.5,0.1,3.3,0.1,5.4C128.4,21.9,127.2,22,126,22z M149.7,24.7
			c-1.7,0-5.3-1.7-6.2-3.9c0.7-1.1,1.6-1.7,2.7-1.7c2.3,0,4.2,3.8,4.2,5.1C150.3,24.5,150.1,24.7,149.7,24.7z M171.8,23.7
			c-1.5,0-2.7-0.1-3.6-0.4c2.6-3.2,5.2-5,7.8-5c2.8,0,4.3,2.4,4.3,3.2C180.3,22.3,176.2,23.7,171.8,23.7z"/>
		<path class="st1" d="M202,2.5l-0.5-0.2c-1,1-2,2.1-3.1,3.4c0.6,5.8,0.9,11.5,0.9,17.3c0,2.6-0.1,4.5-0.3,6.4l0.6,0.4
			c0.9-1.1,1.6-2.1,2.2-3.1c0.6-0.9,0.8-3.7,0.8-7.9C202.6,13.6,202.5,8.2,202,2.5z"/>
	</g>
</g>
</svg>
