<?xml version="1.0" encoding="utf-8"?>
<!-- Generator: Adobe Illustrator 19.2.0, SVG Export Plug-In . SVG Version: 6.00 Build 0)  -->
<svg version="1.1" id="Layer_1" xmlns="http://www.w3.org/2000/svg" xmlns:xlink="http://www.w3.org/1999/xlink" x="0px" y="0px"
	 viewBox="0 0 286 50" style="enable-background:new 0 0 286 50;" xml:space="preserve">
<style type="text/css">
	.st0{fill:url(#SVGID_1_);}
	.st1{opacity:0.75;}
	.st2{fill:#451900;}
	.st3{fill:#FFFFFF;}
</style>
<g>
	<linearGradient id="SVGID_1_" gradientUnits="userSpaceOnUse" x1="143" y1="1" x2="143" y2="51">
		<stop  offset="0" style="stop-color:#3FA298"/>
		<stop  offset="1" style="stop-color:#097B70"/>
	</linearGradient>
	<rect class="st0" width="286" height="50"/>
	<g>
		<g>
			<g class="st1">
				<path class="st2" d="M117.8,28.8c0,0.6,0.2,1.2,0.6,1.6c0.4,0.4,1,0.8,1.7,1c0.7,0.3,1.6,0.4,2.7,0.5c1,0.1,2.2,0.2,3.5,0.2
					c1,0,2,0,3-0.1c1,0,1.9-0.1,2.7-0.2c0.8-0.1,1.6-0.2,2.3-0.4c0.7-0.2,1.3-0.4,1.7-0.6c-0.7,0-1.4-0.1-2.1-0.2
					c-0.7-0.1-1.3-0.3-1.9-0.6c-0.6-0.3-1-0.7-1.3-1.2c-0.3-0.5-0.5-1.1-0.5-1.9c0-0.8,0.1-1.6,0.4-2.4c0.3-0.8,0.6-1.5,1-2.1
					c0.4-0.6,0.9-1.1,1.4-1.5c0.5-0.4,1.1-0.6,1.7-0.6c0.7,0,1.3,0.2,1.9,0.6c0.6,0.4,1,0.9,1.4,1.6c0.4,0.7,0.7,1.5,0.9,2.4
					c0.2,1,0.3,2,0.3,3.2c0,1.7-0.4,3.1-1.2,4.1c-0.8,1-1.9,1.8-3.3,2.3c-1.4,0.5-2.9,0.9-4.7,1c-1.8,0.2-3.6,0.2-5.6,0.2
					c-1.6,0-3-0.1-4.2-0.4c-1.2-0.2-2.1-0.6-2.9-1c-0.7-0.5-1.3-1-1.7-1.7c-0.4-0.7-0.5-1.4-0.5-2.2c0-0.3,0-0.7,0.1-1
					c0.1-0.4,0.1-0.7,0.2-1c0.1-0.3,0.2-0.6,0.3-0.9c0.1-0.3,0.3-0.5,0.4-0.7c0.2-0.3,0.7-0.5,1.3-0.5c0.4-0.1,0.6,0,0.6,0.3
					c0,0.2-0.1,0.5-0.2,0.8C117.9,27.7,117.8,28.2,117.8,28.8z M135,13.2c0.2,0,0.3,0.1,0.6,0.2c0.2,0.1,0.5,0.3,0.7,0.6
					c0.2,0.2,0.4,0.4,0.5,0.7c0.2,0.3,0.2,0.4,0.2,0.6c0,0.1-0.1,0.3-0.4,0.6c-0.3,0.2-0.5,0.5-0.7,0.7c-0.4,0.3-0.6,0.6-0.7,0.7
					c-0.1,0.1-0.3,0.2-0.4,0.2c-0.1,0-0.3-0.1-0.4-0.3c-0.2-0.2-0.4-0.4-0.6-0.6c-0.2-0.2-0.5-0.5-0.7-0.6c-0.2-0.2-0.3-0.3-0.3-0.4
					c0-0.1,0.1-0.3,0.3-0.6c0.2-0.2,0.4-0.5,0.6-0.7c0.2-0.2,0.5-0.5,0.7-0.6C134.6,13.3,134.8,13.2,135,13.2z M134.5,24.1
					c-0.2,0-0.4,0.1-0.6,0.2c-0.2,0.1-0.4,0.3-0.6,0.5c-0.2,0.2-0.3,0.4-0.4,0.7c-0.1,0.3-0.1,0.5-0.1,0.7c0,0.3,0.1,0.5,0.3,0.7
					c0.2,0.2,0.4,0.3,0.7,0.4c0.3,0.1,0.7,0.2,1.1,0.2c0.4,0,0.8,0.1,1.2,0.1c0.3,0,0.5,0,0.6,0c-0.1-1-0.3-1.8-0.7-2.5
					C135.6,24.4,135.1,24.1,134.5,24.1z"/>
				<path class="st2" d="M139.3,38.2c0.9-0.1,1.7-0.2,2.4-0.5c0.7-0.3,1.3-0.6,1.7-1c0.5-0.4,0.8-0.9,1-1.4c0.2-0.5,0.3-1,0.3-1.6
					c0-0.3-0.1-0.7-0.4-1.2c-0.3-0.5-0.6-1.1-1-1.9c-0.1-0.1-0.1-0.2-0.2-0.3c0-0.1,0-0.2,0-0.3c0-0.1,0-0.2,0.1-0.3
					c0.1-0.1,0.1-0.3,0.2-0.4c0.1-0.2,0.2-0.3,0.3-0.5c0.1-0.2,0.2-0.3,0.3-0.5c0.3-0.5,0.6-0.9,0.8-1.1c0.2-0.2,0.4-0.3,0.5-0.3
					c0.2,0,0.3,0.1,0.4,0.3c0.1,0.2,0.3,0.5,0.4,0.9c0.2,0.6,0.5,1.1,0.7,1.5c0.2,0.4,0.4,0.7,0.7,1c0.2,0.3,0.5,0.4,0.8,0.5
					c0.3,0.1,0.6,0.2,1,0.2c0.4,0,0.7,0.1,0.8,0.3c0.1,0.2,0.2,0.6,0.2,1.1v1c0,0.5-0.1,0.9-0.4,1.1c-0.3,0.2-0.7,0.3-1.2,0.3
					c-0.4,0-0.7,0-0.9-0.1c-0.2-0.1-0.5-0.2-0.6-0.4c-0.2,1-0.4,2-0.8,2.8c-0.4,0.8-0.8,1.5-1.4,2.1c-0.5,0.6-1.1,1-1.7,1.3
					c-0.6,0.3-1.2,0.5-1.8,0.5c-0.5,0-0.9-0.1-1.3-0.3c-0.4-0.2-0.7-0.4-1-0.7c-0.2-0.2-0.4-0.5-0.6-0.8c-0.2-0.3-0.3-0.5-0.3-0.7
					c0-0.1,0.1-0.3,0.2-0.3C138.7,38.3,139,38.2,139.3,38.2z"/>
				<path class="st2" d="M157.6,23.7c0-0.2,0-0.6-0.1-1.1c-0.1-0.5-0.1-1-0.2-1.6c-0.1-0.6-0.2-1.2-0.3-1.9
					c-0.1-0.6-0.2-1.3-0.3-1.8c-0.1-0.6-0.1-1.1-0.2-1.5c-0.1-0.4-0.1-0.7-0.1-0.9c0-0.4,0.1-0.8,0.3-1c0.2-0.2,0.5-0.4,0.9-0.5
					c0.1,0,0.2-0.1,0.3-0.1c0.2,0,0.3-0.1,0.5-0.1c0.2,0,0.3-0.1,0.5-0.1c0.1,0,0.2-0.1,0.3-0.1c0.3,0,0.5,0.1,0.6,0.4
					c0.1,0.3,0.1,0.5,0.1,0.8c0,1.4,0,2.6,0.1,3.5c0,1,0,1.8,0.1,2.4c0,0.6,0,1.2,0.1,1.6c0,0.4,0,0.8,0,1.1c0,0.8-0.1,1.5-0.3,2
					c-0.2,0.6-0.5,1-0.8,1.4c0.8,0.3,1.7,0.5,2.6,0.7c1,0.2,2.1,0.3,3.5,0.3c0.2,0,0.4,0,0.5,0.1c0.1,0,0.2,0.2,0.2,0.4
					c0,0.1,0,0.2-0.1,0.3c-0.1,0.1-0.1,0.3-0.2,0.5c-0.1,0.2-0.1,0.4-0.2,0.6c-0.1,0.2-0.2,0.4-0.2,0.6c-0.1,0.1-0.1,0.3-0.2,0.4
					c-0.1,0.1-0.1,0.2-0.3,0.3c-0.1,0.1-0.3,0.1-0.5,0.1c-0.2,0-0.5,0-0.8,0c-0.4,0-0.7,0-1.1,0.1c-0.3,0.1-0.7,0.2-1,0.3
					c-0.4,0.1-0.7,0.3-1.1,0.6c-0.4,0.2-0.8,0.5-1.3,0.8c-0.7,0.5-1.4,0.9-2.1,1.3c-0.7,0.3-1.4,0.6-2.2,0.8
					c-0.8,0.2-1.7,0.4-2.6,0.5c-1,0.1-2.1,0.1-3.4,0.1c-0.3,0-0.5-0.1-0.7-0.3c-0.2-0.2-0.3-0.6-0.3-1v-1c0-0.5,0.1-0.8,0.4-1.1
					c0.3-0.2,0.7-0.3,1.1-0.3c1.2,0,2.2,0,3-0.1c0.8,0,1.6-0.1,2.2-0.2c0.6-0.1,1.2-0.2,1.7-0.3c0.5-0.1,0.9-0.3,1.4-0.6
					c0.1-0.1,0.2-0.1,0.3-0.2c0.1,0,0.1-0.1,0.2-0.1c0.1,0,0.1-0.1,0.2-0.1c0.1,0,0.2-0.1,0.3-0.2c-1-0.4-1.8-0.6-2.6-0.7
					c-0.8-0.1-1.4-0.1-2-0.1c-0.3,0-0.6,0-0.9,0c-0.3,0-0.6,0-1,0c-0.4,0-0.6-0.1-0.6-0.4c0-0.1,0-0.2,0.1-0.4
					c0.1-0.2,0.2-0.4,0.3-0.6c0.1-0.2,0.2-0.4,0.3-0.6c0.1-0.2,0.2-0.3,0.2-0.4c0.3-0.4,0.6-0.8,0.9-1.1c0.3-0.3,0.7-0.5,1.1-0.5
					c0.1,0,0.3,0,0.6,0c0.2,0,0.5,0,0.8,0c0.2,0,0.4,0,0.7,0c0.2,0,0.4-0.1,0.6-0.2c0.2-0.1,0.3-0.2,0.4-0.4
					C157.6,24.2,157.6,24,157.6,23.7z"/>
				<path class="st2" d="M169,15.2c0,0,0.1,0,0.3-0.1c0.2,0,0.4-0.1,0.6-0.1c0.2,0,0.4-0.1,0.6-0.1c0.2,0,0.4-0.1,0.5-0.1
					c0.3,0,0.4,0.1,0.5,0.4c0.1,0.2,0.1,0.6,0.1,1c0,0.4,0,0.8,0,1.5c0,0.6,0.1,1.3,0.1,2.1c0,0.8,0.1,1.6,0.1,2.5
					c0,0.9,0.1,1.7,0.1,2.6c0,0.9,0.1,1.8,0.1,2.6c0,0.9,0,1.7,0,2.4c0,1.2-0.1,2.2-0.2,3.1c-0.1,0.9-0.3,1.4-0.6,1.7
					c-0.2,0.3-0.6,0.4-1,0.6c-0.4,0.1-0.8,0.2-1,0.2c-0.2,0-0.3,0-0.4-0.1c-0.1-0.1-0.1-0.2-0.1-0.4c0-0.1,0-0.1,0-0.2
					c0-0.1,0-0.2,0-0.3c0-0.4,0.1-1,0.2-1.9c0.1-0.8,0.1-2,0.1-3.5c0-1.4,0-2.7-0.1-4c-0.1-1.3-0.2-2.4-0.3-3.5
					c-0.1-1.1-0.2-2-0.3-2.9c-0.1-0.8-0.1-1.5-0.1-2.1c0-0.3,0.1-0.6,0.2-0.8C168.3,15.5,168.6,15.3,169,15.2z"/>
			</g>
			<g>
				<g>
					<g>
						<g>
							<g>
								<path class="st3" d="M116.8,27.8c0,0.6,0.2,1.2,0.6,1.6c0.4,0.4,1,0.8,1.7,1c0.7,0.3,1.6,0.4,2.7,0.5c1,0.1,2.2,0.2,3.5,0.2
									c1,0,2,0,3-0.1c1,0,1.9-0.1,2.7-0.2c0.8-0.1,1.6-0.2,2.3-0.4c0.7-0.2,1.3-0.4,1.7-0.6c-0.7,0-1.4-0.1-2.1-0.2
									c-0.7-0.1-1.3-0.3-1.9-0.6c-0.6-0.3-1-0.7-1.3-1.2c-0.3-0.5-0.5-1.1-0.5-1.9c0-0.8,0.1-1.6,0.4-2.4c0.3-0.8,0.6-1.5,1-2.1
									c0.4-0.6,0.9-1.1,1.4-1.5c0.5-0.4,1.1-0.6,1.7-0.6c0.7,0,1.3,0.2,1.9,0.6c0.6,0.4,1,0.9,1.4,1.6c0.4,0.7,0.7,1.5,0.9,2.4
									c0.2,1,0.3,2,0.3,3.2c0,1.7-0.4,3.1-1.2,4.1c-0.8,1-1.9,1.8-3.3,2.3c-1.4,0.5-2.9,0.9-4.7,1c-1.8,0.2-3.6,0.2-5.6,0.2
									c-1.6,0-3-0.1-4.2-0.4c-1.2-0.2-2.1-0.6-2.9-1c-0.7-0.5-1.3-1-1.7-1.7c-0.4-0.7-0.5-1.4-0.5-2.2c0-0.3,0-0.7,0.1-1
									c0.1-0.4,0.1-0.7,0.2-1c0.1-0.3,0.2-0.6,0.3-0.9c0.1-0.3,0.3-0.5,0.4-0.7c0.2-0.3,0.7-0.5,1.3-0.5c0.4-0.1,0.6,0,0.6,0.3
									c0,0.2-0.1,0.5-0.2,0.8C116.9,26.7,116.8,27.2,116.8,27.8z M134,12.2c0.2,0,0.3,0.1,0.6,0.2c0.2,0.1,0.5,0.3,0.7,0.6
									c0.2,0.2,0.4,0.4,0.5,0.7c0.2,0.3,0.2,0.4,0.2,0.6c0,0.1-0.1,0.3-0.4,0.6c-0.3,0.2-0.5,0.5-0.7,0.7
									c-0.4,0.3-0.6,0.6-0.7,0.7c-0.1,0.1-0.3,0.2-0.4,0.2c-0.1,0-0.3-0.1-0.4-0.3c-0.2-0.2-0.4-0.4-0.6-0.6
									c-0.2-0.2-0.5-0.5-0.7-0.6c-0.2-0.2-0.3-0.3-0.3-0.4c0-0.1,0.1-0.3,0.3-0.6c0.2-0.2,0.4-0.5,0.6-0.7
									c0.2-0.2,0.5-0.5,0.7-0.6C133.6,12.3,133.8,12.2,134,12.2z M133.5,23.1c-0.2,0-0.4,0.1-0.6,0.2c-0.2,0.1-0.4,0.3-0.6,0.5
									c-0.2,0.2-0.3,0.4-0.4,0.7c-0.1,0.3-0.1,0.5-0.1,0.7c0,0.3,0.1,0.5,0.3,0.7c0.2,0.2,0.4,0.3,0.7,0.4
									c0.3,0.1,0.7,0.2,1.1,0.2c0.4,0,0.8,0.1,1.2,0.1c0.3,0,0.5,0,0.6,0c-0.1-1-0.3-1.8-0.7-2.5
									C134.6,23.4,134.1,23.1,133.5,23.1z"/>
								<path class="st3" d="M138.3,37.2c0.9-0.1,1.7-0.2,2.4-0.5c0.7-0.3,1.3-0.6,1.7-1c0.5-0.4,0.8-0.9,1-1.4
									c0.2-0.5,0.3-1,0.3-1.6c0-0.3-0.1-0.7-0.4-1.2c-0.3-0.5-0.6-1.1-1-1.9c-0.1-0.1-0.1-0.2-0.2-0.3c0-0.1,0-0.2,0-0.3
									c0-0.1,0-0.2,0.1-0.3c0.1-0.1,0.1-0.3,0.2-0.4c0.1-0.2,0.2-0.3,0.3-0.5c0.1-0.2,0.2-0.3,0.3-0.5c0.3-0.5,0.6-0.9,0.8-1.1
									c0.2-0.2,0.4-0.3,0.5-0.3c0.2,0,0.3,0.1,0.4,0.3c0.1,0.2,0.3,0.5,0.4,0.9c0.2,0.6,0.5,1.1,0.7,1.5c0.2,0.4,0.4,0.7,0.7,1
									c0.2,0.3,0.5,0.4,0.8,0.5c0.3,0.1,0.6,0.2,1,0.2c0.4,0,0.7,0.1,0.8,0.3c0.1,0.2,0.2,0.6,0.2,1.1v1c0,0.5-0.1,0.9-0.4,1.1
									c-0.3,0.2-0.7,0.3-1.2,0.3c-0.4,0-0.7,0-0.9-0.1c-0.2-0.1-0.5-0.2-0.6-0.4c-0.2,1-0.4,2-0.8,2.8c-0.4,0.8-0.8,1.5-1.4,2.1
									c-0.5,0.6-1.1,1-1.7,1.3c-0.6,0.3-1.2,0.5-1.8,0.5c-0.5,0-0.9-0.1-1.3-0.3c-0.4-0.2-0.7-0.4-1-0.7c-0.2-0.2-0.4-0.5-0.6-0.8
									c-0.2-0.3-0.3-0.5-0.3-0.7c0-0.1,0.1-0.3,0.2-0.3C137.7,37.3,138,37.2,138.3,37.2z"/>
								<path class="st3" d="M156.6,22.7c0-0.2,0-0.6-0.1-1.1c-0.1-0.5-0.1-1-0.2-1.6c-0.1-0.6-0.2-1.2-0.3-1.9
									c-0.1-0.6-0.2-1.3-0.3-1.8c-0.1-0.6-0.1-1.1-0.2-1.5c-0.1-0.4-0.1-0.7-0.1-0.9c0-0.4,0.1-0.8,0.3-1c0.2-0.2,0.5-0.4,0.9-0.5
									c0.1,0,0.2-0.1,0.3-0.1c0.2,0,0.3-0.1,0.5-0.1c0.2,0,0.3-0.1,0.5-0.1c0.1,0,0.2-0.1,0.3-0.1c0.3,0,0.5,0.1,0.6,0.4
									c0.1,0.3,0.1,0.5,0.1,0.8c0,1.4,0,2.6,0.1,3.5c0,1,0,1.8,0.1,2.4c0,0.6,0,1.2,0.1,1.6c0,0.4,0,0.8,0,1.1
									c0,0.8-0.1,1.5-0.3,2c-0.2,0.6-0.5,1-0.8,1.4c0.8,0.3,1.7,0.5,2.6,0.7c1,0.2,2.1,0.3,3.5,0.3c0.2,0,0.4,0,0.5,0.1
									c0.1,0,0.2,0.2,0.2,0.4c0,0.1,0,0.2-0.1,0.3c-0.1,0.1-0.1,0.3-0.2,0.5c-0.1,0.2-0.1,0.4-0.2,0.6c-0.1,0.2-0.2,0.4-0.2,0.6
									c-0.1,0.1-0.1,0.3-0.2,0.4c-0.1,0.1-0.1,0.2-0.3,0.3c-0.1,0.1-0.3,0.1-0.5,0.1c-0.2,0-0.5,0-0.8,0c-0.4,0-0.7,0-1.1,0.1
									c-0.3,0.1-0.7,0.2-1,0.3c-0.4,0.1-0.7,0.3-1.1,0.6c-0.4,0.2-0.8,0.5-1.3,0.8c-0.7,0.5-1.4,0.9-2.1,1.3
									c-0.7,0.3-1.4,0.6-2.2,0.8c-0.8,0.2-1.7,0.4-2.6,0.5c-1,0.1-2.1,0.1-3.4,0.1c-0.3,0-0.5-0.1-0.7-0.3c-0.2-0.2-0.3-0.6-0.3-1
									v-1c0-0.5,0.1-0.8,0.4-1.1c0.3-0.2,0.7-0.3,1.1-0.3c1.2,0,2.2,0,3-0.1c0.8,0,1.6-0.1,2.2-0.2c0.6-0.1,1.2-0.2,1.7-0.3
									c0.5-0.1,0.9-0.3,1.4-0.6c0.1-0.1,0.2-0.1,0.3-0.2c0.1,0,0.1-0.1,0.2-0.1c0.1,0,0.1-0.1,0.2-0.1c0.1,0,0.2-0.1,0.3-0.2
									c-1-0.4-1.8-0.6-2.6-0.7c-0.8-0.1-1.4-0.1-2-0.1c-0.3,0-0.6,0-0.9,0c-0.3,0-0.6,0-1,0c-0.4,0-0.6-0.1-0.6-0.4
									c0-0.1,0-0.2,0.1-0.4c0.1-0.2,0.2-0.4,0.3-0.6c0.1-0.2,0.2-0.4,0.3-0.6c0.1-0.2,0.2-0.3,0.2-0.4c0.3-0.4,0.6-0.8,0.9-1.1
									c0.3-0.3,0.7-0.5,1.1-0.5c0.1,0,0.3,0,0.6,0c0.2,0,0.5,0,0.8,0c0.2,0,0.4,0,0.7,0c0.2,0,0.4-0.1,0.6-0.2
									c0.2-0.1,0.3-0.2,0.4-0.4C156.6,23.2,156.6,23,156.6,22.7z"/>
								<path class="st3" d="M168,14.2c0,0,0.1,0,0.3-0.1c0.2,0,0.4-0.1,0.6-0.1c0.2,0,0.4-0.1,0.6-0.1c0.2,0,0.4-0.1,0.5-0.1
									c0.3,0,0.4,0.1,0.5,0.4c0.1,0.2,0.1,0.6,0.1,1c0,0.4,0,0.8,0,1.5c0,0.6,0.1,1.3,0.1,2.1c0,0.8,0.1,1.6,0.1,2.5
									c0,0.9,0.1,1.7,0.1,2.6c0,0.9,0.1,1.8,0.1,2.6c0,0.9,0,1.7,0,2.4c0,1.2-0.1,2.2-0.2,3.1c-0.1,0.9-0.3,1.4-0.6,1.7
									c-0.2,0.3-0.6,0.4-1,0.6c-0.4,0.1-0.8,0.2-1,0.2c-0.2,0-0.3,0-0.4-0.1c-0.1-0.1-0.1-0.2-0.1-0.4c0-0.1,0-0.1,0-0.2
									c0-0.1,0-0.2,0-0.3c0-0.4,0.1-1,0.2-1.9c0.1-0.8,0.1-2,0.1-3.5c0-1.4,0-2.7-0.1-4c-0.1-1.3-0.2-2.4-0.3-3.5
									c-0.1-1.1-0.2-2-0.3-2.9c-0.1-0.8-0.1-1.5-0.1-2.1c0-0.3,0.1-0.6,0.2-0.8C167.3,14.5,167.6,14.3,168,14.2z"/>
							</g>
						</g>
					</g>
				</g>
			</g>
		</g>
	</g>
</g>
</svg>
