<?xml version="1.0" encoding="utf-8"?>
<!-- Generator: Adobe Illustrator 19.2.0, SVG Export Plug-In . SVG Version: 6.00 Build 0)  -->
<svg version="1.1" id="Layer_1" xmlns="http://www.w3.org/2000/svg" xmlns:xlink="http://www.w3.org/1999/xlink" x="0px" y="0px"
	 viewBox="0 0 286 50" style="enable-background:new 0 0 286 50;" xml:space="preserve">
<style type="text/css">
	.st0{fill:url(#SVGID_1_);}
	.st1{opacity:0.75;}
	.st2{fill:#451900;}
	.st3{fill:#FFFFFF;}
</style>
<linearGradient id="SVGID_1_" gradientUnits="userSpaceOnUse" x1="143" y1="1" x2="143" y2="51">
	<stop  offset="0" style="stop-color:#3FA298"/>
	<stop  offset="1" style="stop-color:#097B70"/>
</linearGradient>
<rect class="st0" width="286" height="50"/>
<g>
	<g>
		<g class="st1">
			<path class="st2" d="M120.9,40.1c0,0.9-0.1,1.6-0.3,2.1c-0.1,0.5-0.3,0.9-0.4,1c-0.1,0.1-0.4,0.3-0.7,0.4
				c-0.3,0.1-0.6,0.1-0.8,0.1c-0.2,0-0.4-0.1-0.4-0.2c0-0.1-0.1-0.3,0-0.6c0-0.1,0-0.3,0.1-0.6c0-0.2,0-0.5,0-0.8
				c0-1.3-0.1-2.7-0.4-4c-0.3-1.3-0.5-2.6-0.8-3.7c-0.2-0.8-0.3-1.5-0.5-2.2c-0.1-0.7-0.2-1.3-0.2-1.7c0-0.5,0-1,0.1-1.5
				c0-0.5,0.2-1,0.4-1.5c0.2-0.5,0.5-1.1,0.9-1.6c0.4-0.6,0.9-1.2,1.6-1.8c0.2-0.9,0.5-1.6,0.9-2.3c0.3-0.7,0.7-1.2,1.1-1.6
				c0.4-0.4,0.8-0.7,1.2-0.9c0.4-0.2,0.8-0.3,1.1-0.3c0.9,0,1.7,0.3,2.4,1c0.7,0.7,1.4,1.7,2,3.2c0.3,0.7,0.6,1.2,0.8,1.6
				c0.3,0.4,0.5,0.7,0.7,1c0.2,0.2,0.5,0.4,0.7,0.5c0.2,0.1,0.5,0.1,0.8,0.1c0.4,0,0.7,0.1,0.8,0.3c0.1,0.2,0.2,0.6,0.2,1.1v1
				c0,0.5-0.1,0.9-0.4,1.1c-0.3,0.2-0.7,0.3-1.1,0.3c-0.6,0-1.1-0.1-1.6-0.3c-0.5-0.2-1-0.6-1.4-1.2c-0.4,0.7-0.9,1.2-1.3,1.4
				c-0.5,0.2-1,0.3-1.7,0.3c-0.3,0-0.7,0-1-0.1c-0.4-0.1-0.7-0.2-1.1-0.4c-0.4-0.2-0.7-0.5-1.1-0.8c-0.4-0.3-0.7-0.7-1-1.1
				c-0.5,0.4-0.8,0.8-0.9,1.2c-0.1,0.4-0.2,0.8-0.2,1.1c0,0.4,0.1,1,0.2,1.6c0.1,0.6,0.2,1.3,0.4,2c0.2,1,0.4,2.1,0.6,3.3
				C120.8,37.5,120.9,38.8,120.9,40.1z M123.6,21.9c-0.2,0-0.5,0.1-0.7,0.2c-0.2,0.2-0.4,0.4-0.5,0.6c-0.1,0.2-0.3,0.5-0.4,0.7
				c-0.1,0.3-0.2,0.5-0.3,0.7c0.2,0.2,0.4,0.5,0.6,0.7c0.3,0.2,0.5,0.4,0.8,0.5c0.3,0.2,0.6,0.3,0.9,0.4c0.3,0.1,0.6,0.1,0.9,0.1
				c0.5,0,0.8-0.1,0.9-0.2c0.2-0.1,0.2-0.3,0.2-0.5c0-0.3-0.1-0.6-0.3-1c-0.2-0.4-0.4-0.7-0.6-1.1c-0.3-0.3-0.5-0.6-0.9-0.9
				C124.1,22.1,123.9,21.9,123.6,21.9z"/>
			<path class="st2" d="M139.1,25.6c0.3,0,0.5,0,0.7-0.1c0.2-0.1,0.3-0.2,0.4-0.4c0.1-0.2,0.2-0.4,0.3-0.7c0.1-0.3,0.2-0.6,0.4-1
				c0.2-0.5,0.4-0.9,0.6-1.1c0.2-0.2,0.5-0.4,0.9-0.6c0.1,0,0.2,0,0.3-0.1c0.1,0,0.3-0.1,0.4-0.1c0.2,0,0.3-0.1,0.4-0.1
				c0.1,0,0.2,0,0.3,0c0.2,0,0.3,0,0.4,0.1c0.1,0.1,0.1,0.2,0.1,0.3c0,0.1,0,0.2-0.1,0.3c-0.1,0.1-0.1,0.3-0.2,0.5
				c-0.1,0.2-0.1,0.4-0.2,0.6c-0.1,0.2-0.1,0.4-0.1,0.6c0,1.1,0.7,1.7,2,1.7c0.5,0,1-0.1,1.3-0.3c0.3-0.2,0.5-0.5,0.5-0.8
				c0-0.3-0.1-0.6-0.3-0.9c-0.2-0.3-0.5-0.7-0.7-1.1c-0.1-0.2-0.2-0.4-0.2-0.6c0-0.2,0.1-0.5,0.3-1c0.2-0.5,0.5-1,0.8-1.5
				c0.2-0.4,0.4-0.7,0.5-0.9c0.2-0.2,0.3-0.3,0.5-0.3c0.2,0,0.4,0.1,0.6,0.4c0.2,0.3,0.4,0.6,0.5,1.1c0.1,0.4,0.3,1,0.4,1.5
				c0.1,0.6,0.2,1.2,0.2,1.9c0,0.8-0.1,1.5-0.3,2.3c-0.2,0.7-0.5,1.4-0.9,2c-0.4,0.6-0.9,1-1.5,1.4c-0.6,0.3-1.3,0.5-2.2,0.5
				c-0.2,0-0.5,0-0.8-0.1c-0.3-0.1-0.6-0.1-0.8-0.3c-0.3-0.1-0.5-0.3-0.8-0.5c-0.2-0.2-0.4-0.5-0.6-0.8c-0.4,0.6-0.8,1-1.4,1.3
				c-0.5,0.3-1.1,0.4-1.9,0.4c-0.7,0-1.4-0.2-2-0.5c-0.6-0.3-1.1-0.8-1.4-1.4c-0.2,0.3-0.5,0.6-0.8,0.8c-0.3,0.2-0.6,0.4-1,0.6
				c-0.4,0.1-0.9,0.3-1.4,0.3c-0.5,0.1-1.2,0.1-1.9,0.1c-0.3,0-0.5-0.1-0.7-0.3c-0.2-0.2-0.3-0.6-0.3-1v-1c0-0.5,0.1-0.8,0.4-1.1
				c0.3-0.2,0.7-0.3,1.1-0.3c0.4,0,0.8,0,1.1-0.1c0.3-0.1,0.6-0.2,0.8-0.3c0.2-0.1,0.4-0.4,0.5-0.6c0.1-0.3,0.3-0.6,0.4-1.1
				c0.2-0.5,0.4-0.9,0.6-1.1c0.2-0.2,0.5-0.4,0.9-0.5c0.1,0,0.2,0,0.3-0.1c0.1,0,0.3-0.1,0.4-0.1c0.1,0,0.3-0.1,0.4-0.1
				c0.1,0,0.2,0,0.3,0c0.2,0,0.3,0,0.4,0.1c0.1,0.1,0.1,0.2,0.1,0.3c0,0.1,0,0.2-0.1,0.3c-0.1,0.1-0.1,0.3-0.2,0.5
				c-0.1,0.2-0.1,0.4-0.2,0.6c-0.1,0.2-0.1,0.4-0.1,0.6C137.1,25,137.8,25.6,139.1,25.6z"/>
			<path class="st2" d="M162.1,9.1c0.1,0,0.3,0.1,0.4,0.3c0.1,0.2,0.2,0.6,0.3,1c0.1,0.4,0.2,0.9,0.2,1.5c0.1,0.6,0.1,1.2,0.1,1.8
				c0,1.2-0.1,2.4-0.3,3.7c-0.2,1.3-0.6,2.5-1.1,3.6c0.2,0.3,0.4,0.7,0.6,1c0.2,0.4,0.3,0.7,0.5,1.1c0.1,0.4,0.3,0.7,0.3,1
				c0.1,0.3,0.1,0.6,0.1,0.8c0,0.9-0.2,1.6-0.6,2.2c-0.4,0.6-0.9,1-1.5,1.3c-0.6,0.3-1.3,0.5-2,0.6c-0.7,0.1-1.5,0.2-2.2,0.2
				c-0.6,0-1.2,0-1.6-0.1c-0.4,0-0.8-0.1-1.1-0.2c-0.3-0.1-0.5-0.3-0.6-0.5c-0.1-0.2-0.2-0.5-0.2-0.9c0-0.8,0-1.4,0.1-1.7
				c0.1-0.3,0.3-0.4,0.7-0.4s0.8-0.1,1.2-0.3c0.4-0.2,0.8-0.5,1.2-0.9c0.4-0.4,0.7-0.8,1.1-1.3c0.3-0.5,0.7-1,0.9-1.6
				c-0.2-0.2-0.5-0.5-0.9-0.9c-0.4-0.4-0.9-0.7-1.4-1.2c-0.5-0.4-1.1-0.9-1.6-1.4c-0.6-0.5-1.2-1-1.7-1.4c-0.6-0.5-1-0.8-1.4-1.1
				c-0.4-0.3-0.6-0.5-0.8-0.8c-0.2-0.2-0.3-0.4-0.4-0.5c-0.1-0.1-0.1-0.3-0.1-0.4c0-0.2,0.1-0.5,0.2-0.8s0.3-0.6,0.5-0.9
				c0.2-0.3,0.4-0.5,0.6-0.8c0.2-0.2,0.3-0.3,0.4-0.3c0,0,0.2,0.1,0.5,0.4c0.3,0.2,0.7,0.6,1.1,1c0.4,0.4,0.9,0.9,1.5,1.4
				c0.5,0.5,1.1,1.1,1.7,1.7c0.6,0.6,1.1,1.2,1.6,1.7c0.5,0.6,1,1.1,1.4,1.6c0.1-0.5,0.2-1.1,0.2-1.7c0-0.5,0-1-0.1-1.5
				c0-0.5-0.1-1-0.2-1.4c-0.1-0.5-0.1-0.9-0.2-1.3c0-0.4-0.1-0.7-0.1-1c0-0.4,0.2-0.8,0.7-1.3c0.2-0.2,0.3-0.4,0.5-0.5
				c0.2-0.2,0.4-0.3,0.5-0.5c0.2-0.1,0.3-0.3,0.5-0.4C161.9,9.2,162,9.1,162.1,9.1z M160.3,23.2c0,0-0.1,0.1-0.2,0.3
				c-0.1,0.2-0.3,0.4-0.5,0.6c-0.2,0.2-0.4,0.5-0.7,0.8c-0.3,0.3-0.6,0.5-0.9,0.8h1.1c0.4,0,0.7,0,1-0.1c0.3-0.1,0.4-0.1,0.6-0.2
				c0.1-0.1,0.2-0.2,0.3-0.2c0-0.1,0.1-0.1,0.1-0.2c0-0.1-0.1-0.4-0.3-0.8C160.7,23.8,160.5,23.5,160.3,23.2z"/>
			<path class="st2" d="M167.3,9.5c0,0,0.1,0,0.3-0.1c0.2,0,0.4-0.1,0.6-0.1c0.2,0,0.4-0.1,0.6-0.1c0.2,0,0.4-0.1,0.5-0.1
				c0.3,0,0.4,0.1,0.5,0.4c0.1,0.2,0.1,0.6,0.1,1c0,0.4,0,0.8,0,1.5c0,0.6,0.1,1.3,0.1,2.1c0,0.8,0.1,1.6,0.1,2.5
				c0,0.9,0.1,1.7,0.1,2.6c0,0.9,0.1,1.8,0.1,2.6c0,0.9,0,1.7,0,2.4c0,1.2-0.1,2.2-0.2,3.1c-0.1,0.9-0.3,1.4-0.6,1.7
				c-0.2,0.3-0.6,0.4-1,0.6c-0.4,0.1-0.8,0.2-1,0.2c-0.2,0-0.4,0-0.4-0.1c-0.1-0.1-0.1-0.2-0.1-0.4c0-0.1,0-0.1,0-0.2
				c0-0.1,0-0.2,0-0.3c0-0.4,0.1-1,0.2-1.9c0.1-0.8,0.1-2,0.1-3.5c0-1.4,0-2.7-0.1-4c-0.1-1.3-0.2-2.4-0.3-3.5
				c-0.1-1.1-0.2-2-0.3-2.9c-0.1-0.8-0.1-1.5-0.1-2.1c0-0.3,0.1-0.6,0.2-0.8C166.7,9.8,166.9,9.6,167.3,9.5z"/>
		</g>
		<g>
			<g>
				<g>
					<g>
						<g>
							<path class="st3" d="M119.9,39.1c0,0.9-0.1,1.6-0.3,2.1c-0.1,0.5-0.3,0.9-0.4,1c-0.1,0.1-0.4,0.3-0.7,0.4
								c-0.3,0.1-0.6,0.1-0.8,0.1c-0.2,0-0.4-0.1-0.4-0.2c0-0.1-0.1-0.3,0-0.6c0-0.1,0-0.3,0.1-0.6c0-0.2,0-0.5,0-0.8
								c0-1.3-0.1-2.7-0.4-4c-0.3-1.3-0.5-2.6-0.8-3.7c-0.2-0.8-0.3-1.5-0.5-2.2c-0.1-0.7-0.2-1.3-0.2-1.7c0-0.5,0-1,0.1-1.5
								c0-0.5,0.2-1,0.4-1.5c0.2-0.5,0.5-1.1,0.9-1.6c0.4-0.6,0.9-1.2,1.6-1.8c0.2-0.9,0.5-1.6,0.9-2.3c0.3-0.7,0.7-1.2,1.1-1.6
								c0.4-0.4,0.8-0.7,1.2-0.9c0.4-0.2,0.8-0.3,1.1-0.3c0.9,0,1.7,0.3,2.4,1c0.7,0.7,1.4,1.7,2,3.2c0.3,0.7,0.6,1.2,0.8,1.6
								c0.3,0.4,0.5,0.7,0.7,1c0.2,0.2,0.5,0.4,0.7,0.5c0.2,0.1,0.5,0.1,0.8,0.1c0.4,0,0.7,0.1,0.8,0.3c0.1,0.2,0.2,0.6,0.2,1.1v1
								c0,0.5-0.1,0.9-0.4,1.1c-0.3,0.2-0.7,0.3-1.1,0.3c-0.6,0-1.1-0.1-1.6-0.3c-0.5-0.2-1-0.6-1.4-1.2c-0.4,0.7-0.9,1.2-1.3,1.4
								c-0.5,0.2-1,0.3-1.7,0.3c-0.3,0-0.7,0-1-0.1c-0.4-0.1-0.7-0.2-1.1-0.4c-0.4-0.2-0.7-0.5-1.1-0.8c-0.4-0.3-0.7-0.7-1-1.1
								c-0.5,0.4-0.8,0.8-0.9,1.2c-0.1,0.4-0.2,0.8-0.2,1.1c0,0.4,0.1,1,0.2,1.6c0.1,0.6,0.2,1.3,0.4,2c0.2,1,0.4,2.1,0.6,3.3
								C119.8,36.5,119.9,37.8,119.9,39.1z M122.6,20.9c-0.2,0-0.5,0.1-0.7,0.2c-0.2,0.2-0.4,0.4-0.5,0.6c-0.1,0.2-0.3,0.5-0.4,0.7
								c-0.1,0.3-0.2,0.5-0.3,0.7c0.2,0.2,0.4,0.5,0.6,0.7c0.3,0.2,0.5,0.4,0.8,0.5c0.3,0.2,0.6,0.3,0.9,0.4
								c0.3,0.1,0.6,0.1,0.9,0.1c0.5,0,0.8-0.1,0.9-0.2c0.2-0.1,0.2-0.3,0.2-0.5c0-0.3-0.1-0.6-0.3-1c-0.2-0.4-0.4-0.7-0.6-1.1
								c-0.3-0.3-0.5-0.6-0.9-0.9C123.1,21.1,122.9,20.9,122.6,20.9z"/>
							<path class="st3" d="M138.1,24.6c0.3,0,0.5,0,0.7-0.1c0.2-0.1,0.3-0.2,0.4-0.4c0.1-0.2,0.2-0.4,0.3-0.7
								c0.1-0.3,0.2-0.6,0.4-1c0.2-0.5,0.4-0.9,0.6-1.1c0.2-0.2,0.5-0.4,0.9-0.6c0.1,0,0.2,0,0.3-0.1c0.1,0,0.3-0.1,0.4-0.1
								c0.2,0,0.3-0.1,0.4-0.1c0.1,0,0.2,0,0.3,0c0.2,0,0.3,0,0.4,0.1c0.1,0.1,0.1,0.2,0.1,0.3c0,0.1,0,0.2-0.1,0.3
								c-0.1,0.1-0.1,0.3-0.2,0.5c-0.1,0.2-0.1,0.4-0.2,0.6c-0.1,0.2-0.1,0.4-0.1,0.6c0,1.1,0.7,1.7,2,1.7c0.5,0,1-0.1,1.3-0.3
								c0.3-0.2,0.5-0.5,0.5-0.8c0-0.3-0.1-0.6-0.3-0.9c-0.2-0.3-0.5-0.7-0.7-1.1c-0.1-0.2-0.2-0.4-0.2-0.6c0-0.2,0.1-0.5,0.3-1
								c0.2-0.5,0.5-1,0.8-1.5c0.2-0.4,0.4-0.7,0.5-0.9c0.2-0.2,0.3-0.3,0.5-0.3c0.2,0,0.4,0.1,0.6,0.4c0.2,0.3,0.4,0.6,0.5,1.1
								c0.1,0.4,0.3,1,0.4,1.5c0.1,0.6,0.2,1.2,0.2,1.9c0,0.8-0.1,1.5-0.3,2.3c-0.2,0.7-0.5,1.4-0.9,2c-0.4,0.6-0.9,1-1.5,1.4
								c-0.6,0.3-1.3,0.5-2.2,0.5c-0.2,0-0.5,0-0.8-0.1c-0.3-0.1-0.6-0.1-0.8-0.3c-0.3-0.1-0.5-0.3-0.8-0.5
								c-0.2-0.2-0.4-0.5-0.6-0.8c-0.4,0.6-0.8,1-1.4,1.3c-0.5,0.3-1.1,0.4-1.9,0.4c-0.7,0-1.4-0.2-2-0.5c-0.6-0.3-1.1-0.8-1.4-1.4
								c-0.2,0.3-0.5,0.6-0.8,0.8c-0.3,0.2-0.6,0.4-1,0.6c-0.4,0.1-0.9,0.3-1.4,0.3c-0.5,0.1-1.2,0.1-1.9,0.1
								c-0.3,0-0.5-0.1-0.7-0.3c-0.2-0.2-0.3-0.6-0.3-1v-1c0-0.5,0.1-0.8,0.4-1.1c0.3-0.2,0.7-0.3,1.1-0.3c0.4,0,0.8,0,1.1-0.1
								c0.3-0.1,0.6-0.2,0.8-0.3c0.2-0.1,0.4-0.4,0.5-0.6c0.1-0.3,0.3-0.6,0.4-1.1c0.2-0.5,0.4-0.9,0.6-1.1c0.2-0.2,0.5-0.4,0.9-0.5
								c0.1,0,0.2,0,0.3-0.1c0.1,0,0.3-0.1,0.4-0.1c0.1,0,0.3-0.1,0.4-0.1c0.1,0,0.2,0,0.3,0c0.2,0,0.3,0,0.4,0.1
								c0.1,0.1,0.1,0.2,0.1,0.3c0,0.1,0,0.2-0.1,0.3c-0.1,0.1-0.1,0.3-0.2,0.5c-0.1,0.2-0.1,0.4-0.2,0.6c-0.1,0.2-0.1,0.4-0.1,0.6
								C136.1,24,136.8,24.6,138.1,24.6z"/>
							<path class="st3" d="M161.1,8.1c0.1,0,0.3,0.1,0.4,0.3c0.1,0.2,0.2,0.6,0.3,1c0.1,0.4,0.2,0.9,0.2,1.5
								c0.1,0.6,0.1,1.2,0.1,1.8c0,1.2-0.1,2.4-0.3,3.7c-0.2,1.3-0.6,2.5-1.1,3.6c0.2,0.3,0.4,0.7,0.6,1c0.2,0.4,0.3,0.7,0.5,1.1
								c0.1,0.4,0.3,0.7,0.3,1c0.1,0.3,0.1,0.6,0.1,0.8c0,0.9-0.2,1.6-0.6,2.2c-0.4,0.6-0.9,1-1.5,1.3c-0.6,0.3-1.3,0.5-2,0.6
								c-0.7,0.1-1.5,0.2-2.2,0.2c-0.6,0-1.2,0-1.6-0.1c-0.4,0-0.8-0.1-1.1-0.2c-0.3-0.1-0.5-0.3-0.6-0.5c-0.1-0.2-0.2-0.5-0.2-0.9
								c0-0.8,0-1.4,0.1-1.7c0.1-0.3,0.3-0.4,0.7-0.4s0.8-0.1,1.2-0.3c0.4-0.2,0.8-0.5,1.2-0.9c0.4-0.4,0.7-0.8,1.1-1.3
								c0.3-0.5,0.7-1,0.9-1.6c-0.2-0.2-0.5-0.5-0.9-0.9c-0.4-0.4-0.9-0.7-1.4-1.2c-0.5-0.4-1.1-0.9-1.6-1.4c-0.6-0.5-1.2-1-1.7-1.4
								c-0.6-0.5-1-0.8-1.4-1.1c-0.4-0.3-0.6-0.5-0.8-0.8c-0.2-0.2-0.3-0.4-0.4-0.5c-0.1-0.1-0.1-0.3-0.1-0.4c0-0.2,0.1-0.5,0.2-0.8
								s0.3-0.6,0.5-0.9c0.2-0.3,0.4-0.5,0.6-0.8c0.2-0.2,0.3-0.3,0.4-0.3c0,0,0.2,0.1,0.5,0.4c0.3,0.2,0.7,0.6,1.1,1
								c0.4,0.4,0.9,0.9,1.5,1.4c0.5,0.5,1.1,1.1,1.7,1.7c0.6,0.6,1.1,1.2,1.6,1.7c0.5,0.6,1,1.1,1.4,1.6c0.1-0.5,0.2-1.1,0.2-1.7
								c0-0.5,0-1-0.1-1.5c0-0.5-0.1-1-0.2-1.4c-0.1-0.5-0.1-0.9-0.2-1.3c0-0.4-0.1-0.7-0.1-1c0-0.4,0.2-0.8,0.7-1.3
								c0.2-0.2,0.3-0.4,0.5-0.5c0.2-0.2,0.4-0.3,0.5-0.5c0.2-0.1,0.3-0.3,0.5-0.4C160.9,8.2,161,8.1,161.1,8.1z M159.3,22.2
								c0,0-0.1,0.1-0.2,0.3c-0.1,0.2-0.3,0.4-0.5,0.6c-0.2,0.2-0.4,0.5-0.7,0.8c-0.3,0.3-0.6,0.5-0.9,0.8h1.1c0.4,0,0.7,0,1-0.1
								c0.3-0.1,0.4-0.1,0.6-0.2c0.1-0.1,0.2-0.2,0.3-0.2c0-0.1,0.1-0.1,0.1-0.2c0-0.1-0.1-0.4-0.3-0.8
								C159.7,22.8,159.5,22.5,159.3,22.2z"/>
							<path class="st3" d="M166.3,8.5c0,0,0.1,0,0.3-0.1c0.2,0,0.4-0.1,0.6-0.1c0.2,0,0.4-0.1,0.6-0.1c0.2,0,0.4-0.1,0.5-0.1
								c0.3,0,0.4,0.1,0.5,0.4c0.1,0.2,0.1,0.6,0.1,1c0,0.4,0,0.8,0,1.5c0,0.6,0.1,1.3,0.1,2.1c0,0.8,0.1,1.6,0.1,2.5
								c0,0.9,0.1,1.7,0.1,2.6c0,0.9,0.1,1.8,0.1,2.6c0,0.9,0,1.7,0,2.4c0,1.2-0.1,2.2-0.2,3.1c-0.1,0.9-0.3,1.4-0.6,1.7
								c-0.2,0.3-0.6,0.4-1,0.6c-0.4,0.1-0.8,0.2-1,0.2c-0.2,0-0.4,0-0.4-0.1c-0.1-0.1-0.1-0.2-0.1-0.4c0-0.1,0-0.1,0-0.2
								c0-0.1,0-0.2,0-0.3c0-0.4,0.1-1,0.2-1.9c0.1-0.8,0.1-2,0.1-3.5c0-1.4,0-2.7-0.1-4c-0.1-1.3-0.2-2.4-0.3-3.5
								c-0.1-1.1-0.2-2-0.3-2.9c-0.1-0.8-0.1-1.5-0.1-2.1c0-0.3,0.1-0.6,0.2-0.8C165.7,8.8,165.9,8.6,166.3,8.5z"/>
						</g>
					</g>
				</g>
			</g>
		</g>
	</g>
</g>
</svg>
