<?xml version="1.0" encoding="utf-8"?>
<!-- Generator: Adobe Illustrator 19.2.0, SVG Export Plug-In . SVG Version: 6.00 Build 0)  -->
<svg version="1.1" id="Layer_1" xmlns="http://www.w3.org/2000/svg" xmlns:xlink="http://www.w3.org/1999/xlink" x="0px" y="0px"
	 viewBox="0 0 64.1 31.9" style="enable-background:new 0 0 64.1 31.9;" xml:space="preserve">
<style type="text/css">
	.st0{fill:#097B70;}
</style>
<g>
	<g>
		<g>
			<g>
				<path class="st0" d="M23.7,18.5c-1.4,0-2.6-0.1-3.5-0.3c-1-0.2-1.8-0.5-2.4-0.8c-0.7-0.3-1.2-0.6-1.6-1c-0.4-0.4-0.8-0.7-1.2-1
					c-0.3-0.3-0.7-0.6-1-0.8c-0.3-0.2-0.7-0.3-1.1-0.3c-0.2,0-0.4,0-0.7,0.1c-0.2,0.1-0.4,0.2-0.6,0.3c-0.2,0.1-0.3,0.3-0.5,0.4
					C11,15.3,11,15.5,11,15.6c0,0.1,0.1,0.3,0.2,0.4c0.2,0.1,0.4,0.3,0.6,0.4c0.3,0.1,0.5,0.3,0.8,0.4c0.3,0.1,0.6,0.3,0.9,0.4
					c0.4,0.2,0.8,0.4,1.2,0.6c0.4,0.2,0.7,0.4,1,0.6c0.3,0.2,0.5,0.4,0.7,0.7c0.2,0.3,0.3,0.6,0.3,0.9c0,0.7-0.2,1.4-0.6,2.2
					c-0.4,0.8-1,1.5-1.8,2.1c-0.8,0.6-1.8,1.2-3,1.6c-1.2,0.4-2.6,0.6-4.1,0.6c-1.6,0-2.9-0.2-3.8-0.6c-0.9-0.4-1.6-0.9-2.1-1.5
					c-0.5-0.6-0.8-1.2-0.9-1.9C0.1,21.8,0,21.2,0,20.8c0-0.3,0-0.6,0.1-0.9c0.1-0.3,0.1-0.6,0.2-0.9c0.1-0.3,0.2-0.6,0.3-0.8
					c0.1-0.3,0.2-0.5,0.3-0.6C1.2,17.1,1.6,17,2.1,17c0.2,0,0.4,0,0.5,0c0.2,0,0.2,0.1,0.2,0.3c0,0,0,0.1-0.1,0.3
					c0,0.1-0.1,0.3-0.1,0.4c-0.1,0.2-0.2,0.5-0.2,0.9c-0.1,0.4-0.1,0.8-0.1,1.3c0,0.4,0.1,0.8,0.2,1.2c0.1,0.4,0.4,0.7,0.8,1
					s0.9,0.5,1.5,0.6c0.7,0.2,1.5,0.2,2.5,0.2c0.8,0,1.6-0.1,2.4-0.2c0.8-0.1,1.5-0.3,2.1-0.5c0.6-0.2,1.1-0.4,1.5-0.7
					c0.4-0.2,0.5-0.5,0.5-0.7c0-0.1-0.1-0.2-0.2-0.3c-0.1-0.1-0.3-0.2-0.5-0.3c-0.2-0.1-0.5-0.2-0.7-0.3c-0.3-0.1-0.5-0.2-0.8-0.3
					c-0.5-0.2-0.9-0.4-1.3-0.6c-0.4-0.2-0.7-0.4-1-0.6c-0.3-0.2-0.5-0.5-0.7-0.8c-0.2-0.3-0.2-0.7-0.2-1.1c0-0.6,0.1-1.2,0.4-1.9
					c0.3-0.7,0.7-1.3,1.1-1.8c0.5-0.6,1-1,1.6-1.4c0.6-0.4,1.2-0.6,1.8-0.6c0.5,0,0.9,0.1,1.3,0.3c0.4,0.2,0.8,0.4,1.1,0.7
					c0.3,0.3,0.7,0.6,1,0.9c0.3,0.3,0.6,0.6,1,0.9c0.3,0.3,0.7,0.5,1,0.7c0.4,0.2,0.8,0.3,1.2,0.4c0.8-1.2,1.5-2.3,2.3-3.1
					c0.8-0.8,1.5-1.5,2.2-2c0.7-0.5,1.4-0.9,2.1-1.1c0.7-0.2,1.3-0.3,1.9-0.3c0.7,0,1.4,0.1,1.9,0.3c0.6,0.2,1,0.6,1.4,1
					c0.4,0.4,0.6,0.9,0.8,1.4c0.2,0.5,0.3,1.1,0.3,1.8c0,1.8-0.8,3.1-2.3,4.2C29.1,18,26.8,18.5,23.7,18.5z M4.4,28.1
					c0.1,0,0.3,0.1,0.5,0.2c0.2,0.1,0.4,0.3,0.6,0.5C5.7,29,5.9,29.2,6,29.4c0.1,0.2,0.2,0.4,0.2,0.5c0,0.1-0.1,0.3-0.3,0.5
					c-0.2,0.2-0.4,0.4-0.6,0.6c-0.3,0.3-0.5,0.5-0.6,0.6c-0.1,0.1-0.3,0.2-0.4,0.2c-0.1,0-0.3-0.1-0.4-0.3c-0.1-0.2-0.3-0.4-0.5-0.6
					c-0.2-0.2-0.4-0.4-0.6-0.6c-0.2-0.2-0.3-0.3-0.3-0.4c0-0.1,0.1-0.3,0.2-0.5c0.2-0.2,0.3-0.4,0.6-0.6c0.2-0.2,0.4-0.4,0.7-0.6
					C4.1,28.2,4.2,28.1,4.4,28.1z M8.5,28.1c0.1,0,0.3,0.1,0.5,0.2c0.2,0.1,0.4,0.3,0.6,0.5c0.2,0.2,0.3,0.4,0.5,0.6
					c0.1,0.2,0.2,0.4,0.2,0.5c0,0.1-0.1,0.3-0.3,0.5c-0.2,0.2-0.5,0.4-0.7,0.6c-0.3,0.3-0.5,0.5-0.6,0.6c-0.1,0.1-0.3,0.2-0.4,0.2
					c-0.1,0-0.2-0.1-0.4-0.3c-0.1-0.2-0.3-0.4-0.5-0.6c-0.2-0.2-0.4-0.4-0.6-0.6c-0.2-0.2-0.3-0.3-0.3-0.4c0-0.1,0.1-0.3,0.2-0.5
					c0.2-0.2,0.3-0.4,0.5-0.6c0.2-0.2,0.4-0.4,0.7-0.6C8.2,28.2,8.4,28.1,8.5,28.1z M24.4,1.4c0.1,0,0.3,0.1,0.5,0.2
					c0.2,0.1,0.4,0.3,0.6,0.5c0.2,0.2,0.3,0.4,0.5,0.6c0.1,0.2,0.2,0.4,0.2,0.5c0,0.1-0.1,0.3-0.3,0.5c-0.2,0.2-0.4,0.4-0.6,0.6
					C25,4.6,24.8,4.8,24.7,5c-0.1,0.1-0.2,0.2-0.4,0.2c-0.1,0-0.3-0.1-0.4-0.3c-0.1-0.2-0.3-0.4-0.5-0.6c-0.2-0.2-0.4-0.4-0.6-0.6
					c-0.2-0.2-0.3-0.3-0.3-0.4c0-0.1,0.1-0.3,0.2-0.5c0.2-0.2,0.3-0.4,0.5-0.7c0.2-0.2,0.4-0.4,0.7-0.6C24.1,1.5,24.3,1.4,24.4,1.4z
					 M28.3,11.6c-0.5,0-0.9,0.1-1.4,0.2s-1,0.4-1.5,0.7c-0.5,0.3-1,0.6-1.4,1.1c-0.5,0.4-0.9,0.9-1.3,1.5c0.3,0,0.6,0.1,1,0.1
					c0.4,0,0.8,0,1.3,0c1,0,1.8-0.1,2.5-0.2c0.7-0.1,1.3-0.3,1.7-0.5c0.4-0.2,0.8-0.4,1-0.6c0.2-0.2,0.3-0.5,0.3-0.7
					c0-0.4-0.2-0.8-0.5-1.1C29.5,11.8,29,11.6,28.3,11.6z"/>
				<path class="st0" d="M35.3,7.1c0-0.8-0.1-1.6-0.1-2.4c0-0.8-0.1-1.4-0.1-2c0-0.6,0-1,0-1.1c0-0.5,0.1-0.7,0.2-0.9
					c0.1-0.1,0.3-0.2,0.5-0.3c0,0,0.1,0,0.3-0.1c0.2,0,0.4-0.1,0.6-0.1c0.2,0,0.4-0.1,0.6-0.1c0.2,0,0.3,0,0.3,0
					c0.3,0,0.4,0.1,0.5,0.2C38,0.4,38,0.6,38,0.8c0,0.9,0,1.7,0,2.5c0,0.8,0,1.7,0,2.6c0,1,0,2.2,0,3.3c0,1.2,0,2.3,0,3.3
					c0,0.5,0,0.9,0.1,1.2s0.2,0.5,0.4,0.7c0.2,0.2,0.4,0.3,0.8,0.3c0.3,0.1,0.7,0.1,1.1,0.1c0.4,0,0.6,0.1,0.7,0.3s0.2,0.5,0.2,1
					v0.9c0,0.5-0.1,0.8-0.4,1c-0.3,0.2-0.6,0.3-1,0.3c-1.6,0-2.8-0.3-3.6-1c-0.8-0.7-1.1-1.7-1.1-3.3V9.3
					C35.3,8.7,35.3,7.9,35.3,7.1z"/>
				<path class="st0" d="M47.4,18.3c-0.5,0-1.1-0.1-1.7-0.4c-0.7-0.3-1.3-0.8-1.9-1.6c-0.3,0.4-0.6,0.8-0.9,1
					c-0.3,0.2-0.6,0.4-0.9,0.5c-0.3,0.1-0.6,0.2-1,0.2c-0.3,0-0.7,0-1,0c-0.2,0-0.4-0.1-0.6-0.3c-0.2-0.2-0.3-0.5-0.3-0.9V16
					c0-0.4,0.1-0.8,0.4-1c0.3-0.2,0.6-0.3,1-0.3c0.3,0,0.5,0,0.7-0.1c0.2-0.1,0.4-0.2,0.6-0.4c0.2-0.2,0.3-0.5,0.5-0.8
					c0.2-0.3,0.3-0.8,0.5-1.3c0.5-1.4,1.1-2.4,1.8-3c0.6-0.6,1.3-0.9,2-0.9c0.8,0,1.6,0.4,2.2,1.1c0.7,0.7,1.3,1.6,1.8,2.7
					c0.3,0.7,0.6,1.2,0.8,1.6c0.2,0.4,0.5,0.7,0.7,0.8c0.2,0.2,0.4,0.3,0.6,0.4c0.2,0,0.4,0.1,0.7,0.1c0.4,0,0.6,0.1,0.7,0.3
					s0.2,0.5,0.2,1v0.9c0,0.5-0.1,0.8-0.4,1c-0.3,0.2-0.6,0.3-1,0.3c-0.6,0-1.1-0.1-1.5-0.3c-0.4-0.2-0.8-0.5-1.2-1.1
					c-0.4,0.5-0.8,0.9-1.2,1.2C48.5,18.2,48,18.3,47.4,18.3z M46.4,11.5c-0.2,0-0.4,0.1-0.5,0.2c-0.2,0.1-0.3,0.3-0.5,0.5
					c-0.1,0.2-0.2,0.4-0.3,0.7c-0.1,0.2-0.2,0.4-0.2,0.6c0.3,0.4,0.8,0.8,1.3,1.1c0.6,0.3,1.2,0.4,1.7,0.4c0.3,0,0.6-0.1,0.8-0.2
					c0.2-0.1,0.3-0.3,0.3-0.4c0-0.2-0.1-0.5-0.2-0.8c-0.1-0.3-0.3-0.7-0.5-1c-0.2-0.3-0.5-0.6-0.8-0.8C47,11.6,46.7,11.5,46.4,11.5z
					"/>
				<path class="st0" d="M55.9,13.1c0-0.1,0-0.4,0-0.8c0-0.4-0.1-1-0.1-1.6c-0.1-0.6-0.1-1.3-0.2-2.1c-0.1-0.7-0.1-1.5-0.2-2.2
					c0-0.4-0.1-0.8-0.1-1.2c0-0.5-0.1-0.9-0.1-1.3C55,3.4,55,3,55,2.6c0-0.4,0-0.7,0-0.9c0-0.4,0.1-0.7,0.3-0.9
					c0.2-0.2,0.5-0.3,0.9-0.5c0.1,0,0.2,0,0.3-0.1c0.1,0,0.3-0.1,0.5-0.1c0.2,0,0.3-0.1,0.4-0.1c0.1,0,0.2,0,0.2,0
					C57.8,0,58,0.1,58,0.4c0.1,0.2,0.1,0.5,0.1,0.7c0,1.3,0,2.5,0,3.7c0,1.2,0,2.4,0.1,3.5c0,1.1,0,2,0.1,2.9c0,0.8,0,1.5,0.1,1.9
					v0.5c0,0.8-0.1,1.5-0.4,2.1c-0.2,0.6-0.6,1-1.1,1.4c-0.5,0.3-1.1,0.6-1.7,0.8c-0.7,0.1-1.5,0.2-2.3,0.2c-0.2,0-0.4-0.1-0.6-0.3
					c-0.2-0.2-0.3-0.5-0.3-0.9V16c0-0.4,0.1-0.8,0.4-1c0.3-0.2,0.6-0.3,1-0.3c0.6,0,1.1,0,1.5-0.1c0.4-0.1,0.6-0.2,0.8-0.3
					c0.2-0.1,0.3-0.3,0.3-0.5C55.9,13.6,55.9,13.4,55.9,13.1z"/>
				<path class="st0" d="M61.4,0.4c0,0,0.1,0,0.3-0.1c0.2,0,0.3-0.1,0.5-0.1c0.2,0,0.4-0.1,0.6-0.1c0.2,0,0.3,0,0.5,0
					c0.2,0,0.4,0.1,0.4,0.3c0,0.2,0.1,0.5,0.1,0.9c0,0.3,0,0.7,0,1.3c0,0.5,0,1.2,0.1,1.8c0,0.7,0.1,1.4,0.1,2.2
					C64,7.4,64,8.2,64.1,9c0,0.8,0,1.6,0.1,2.3c0,0.8,0,1.5,0,2.1c0,1.1-0.1,2-0.2,2.7c-0.1,0.8-0.3,1.3-0.5,1.5
					c-0.2,0.2-0.5,0.4-0.9,0.5c-0.4,0.1-0.7,0.2-0.9,0.2c-0.2,0-0.3,0-0.4-0.1c-0.1,0-0.1-0.2-0.1-0.4c0,0,0-0.1,0-0.2
					c0-0.1,0-0.2,0-0.3c0-0.4,0.1-0.9,0.1-1.7c0.1-0.8,0.1-1.8,0.1-3.1c0-1.3,0-2.4-0.1-3.6C61.2,8,61.1,6.9,61,6
					c-0.1-1-0.2-1.8-0.3-2.6c-0.1-0.8-0.1-1.4-0.1-1.9c0-0.3,0-0.5,0.2-0.7C60.9,0.6,61.1,0.5,61.4,0.4z"/>
			</g>
		</g>
	</g>
</g>
</svg>
