<?xml version="1.0" encoding="utf-8"?>
<!-- Generator: Adobe Illustrator 19.2.0, SVG Export Plug-In . SVG Version: 6.00 Build 0)  -->
<svg version="1.1" id="Layer_1" xmlns="http://www.w3.org/2000/svg" xmlns:xlink="http://www.w3.org/1999/xlink" x="0px" y="0px"
	 viewBox="0 0 72.3 30.6" style="enable-background:new 0 0 72.3 30.6;" xml:space="preserve">
<style type="text/css">
	.st0{opacity:0.5;}
	.st1{fill:#542C0B;}
</style>
<g class="st0">
	<g>
		<g>
			<g>
				<g>
					<path class="st1" d="M10.3,27.3c0.7,0,1.3,0,1.8-0.1c0.5-0.1,0.9-0.2,1.3-0.2c0.3-0.1,0.6-0.2,0.8-0.2c0.2-0.1,0.4-0.1,0.5-0.1
						c0.1,0,0.2,0,0.3,0.1c0,0.1,0.1,0.2,0.1,0.2c0,0,0,0.1-0.1,0.2c-0.1,0.1-0.1,0.2-0.2,0.4c-0.1,0.1-0.2,0.3-0.3,0.4
						c-0.1,0.1-0.2,0.2-0.2,0.3c-0.7,0.8-1.4,1.4-2.3,1.8c-0.9,0.4-1.9,0.6-3.1,0.6c-1.4,0-2.7-0.2-3.8-0.6c-1.1-0.4-2-1-2.8-1.7
						c-0.8-0.7-1.3-1.6-1.7-2.5c-0.4-1-0.6-2-0.6-3.1c0-1.2,0.2-2.4,0.7-3.5C1.2,18,1.9,16.9,2.8,16c-0.8-0.5-1.5-1.2-1.9-1.9
						c-0.4-0.7-0.7-1.6-0.7-2.7c0-0.5,0.1-1.1,0.3-1.7C0.7,9.2,0.9,8.6,1.3,8c0.4-0.5,0.9-1,1.5-1.3c0.6-0.3,1.4-0.5,2.3-0.5
						c0.5,0,0.8,0.1,1.2,0.2C6.7,6.5,7,6.6,7.2,6.7c0.1,0,0.3,0.2,0.5,0.5C8,7.5,8.2,7.9,8.4,8.4c0.1,0.2,0.1,0.4,0.2,0.5
						c0,0.2,0.1,0.3,0.1,0.4c0,0.3-0.1,0.4-0.4,0.4c-0.1,0-0.2,0-0.3,0c-0.1,0-0.1,0-0.2-0.1C7.4,9.6,7.1,9.5,6.7,9.4
						C6.3,9.3,5.9,9.3,5.3,9.3C4.8,9.3,4.4,9.3,4,9.5C3.7,9.6,3.4,9.8,3.2,10c-0.2,0.2-0.3,0.5-0.4,0.7c-0.1,0.3-0.1,0.5-0.1,0.7
						c0,0.5,0.2,1,0.6,1.5c0.4,0.5,1,0.9,1.9,1.3c0.4-0.3,0.9-0.5,1.5-0.8c0.6-0.3,1.2-0.6,1.8-0.8c0.6-0.3,1.2-0.5,1.7-0.7
						c0.5-0.2,0.8-0.3,1-0.3c0.3,0,0.5,0.2,0.5,0.5c0,0,0,0.1-0.1,0.3c0,0.1-0.1,0.3-0.2,0.5c-0.1,0.2-0.1,0.3-0.2,0.5
						c-0.1,0.2-0.1,0.3-0.2,0.4c-0.2,0.4-0.3,0.6-0.5,0.7c-0.2,0.1-0.4,0.2-0.7,0.3c-1,0.4-2,0.8-2.8,1.3c-0.9,0.5-1.6,1-2.3,1.6
						c-0.6,0.6-1.1,1.2-1.5,1.9c-0.4,0.7-0.5,1.4-0.5,2.3c0,0.7,0.2,1.4,0.5,2.1c0.4,0.7,0.9,1.3,1.5,1.8c0.7,0.5,1.5,0.9,2.4,1.3
						C8,27.2,9.1,27.3,10.3,27.3z"/>
					<path class="st1" d="M12.5,20.4c0.9-0.2,1.7-0.4,2.4-0.7c0.7-0.3,1.2-0.6,1.6-1c0.4-0.4,0.7-0.8,1-1.2c0.2-0.4,0.3-0.8,0.3-1.1
						c0-0.5-0.1-1-0.4-1.5c-0.3-0.5-0.7-1.1-1.3-1.8c-0.2-0.2-0.3-0.5-0.3-0.7c0-0.2,0.1-0.4,0.3-0.8c0.2-0.3,0.4-0.7,0.6-1
						c0.3-0.5,0.5-0.8,0.7-1c0.2-0.2,0.3-0.3,0.5-0.3c0.2,0,0.4,0.2,0.7,0.5c0.2,0.3,0.4,0.7,0.5,1c0.2,0.6,0.5,1.3,0.7,2.1
						c0.2,0.8,0.4,1.7,0.4,2.7c0,1.1-0.2,2.1-0.5,3c-0.3,0.9-0.8,1.7-1.3,2.4c-0.5,0.7-1.1,1.2-1.8,1.6c-0.7,0.4-1.3,0.6-2,0.6
						c-0.4,0-0.8-0.1-1.2-0.3c-0.3-0.2-0.6-0.4-0.9-0.7c0,0-0.1-0.1-0.2-0.3c-0.1-0.1-0.2-0.2-0.3-0.4c-0.1-0.1-0.2-0.3-0.2-0.4
						c-0.1-0.1-0.1-0.2-0.1-0.3c0-0.1,0.1-0.2,0.2-0.3C12,20.5,12.3,20.4,12.5,20.4z"/>
					<path class="st1" d="M22.6,7.1c0-0.8-0.1-1.6-0.1-2.4c0-0.8-0.1-1.4-0.1-2c0-0.6,0-1,0-1.1c0-0.5,0.1-0.7,0.2-0.9
						s0.3-0.2,0.5-0.3c0,0,0.1,0,0.3-0.1c0.2,0,0.4-0.1,0.6-0.1c0.2,0,0.4-0.1,0.6-0.1c0.2,0,0.3,0,0.3,0c0.3,0,0.4,0.1,0.5,0.2
						s0.1,0.3,0.1,0.6c0,0.9,0,1.7,0,2.5c0,0.8,0,1.7,0,2.6c0,1,0,2.2,0,3.3c0,1.2,0,2.3,0,3.3c0,0.5,0,0.9,0.1,1.2s0.2,0.5,0.4,0.7
						c0.2,0.2,0.4,0.3,0.8,0.3c0.3,0.1,0.7,0.1,1.1,0.1c0.4,0,0.6,0.1,0.7,0.3s0.2,0.5,0.2,1v0.9c0,0.5-0.1,0.8-0.4,1
						c-0.3,0.2-0.6,0.3-1,0.3c-1.6,0-2.8-0.3-3.6-1c-0.8-0.7-1.1-1.8-1.1-3.3V9.3C22.7,8.7,22.6,7.9,22.6,7.1z"/>
					<path class="st1" d="M30.7,12.6c0.1-0.2,0.2-0.4,0.4-0.5c0.2-0.1,0.5-0.3,0.9-0.4c0.1,0,0.3-0.1,0.5-0.1c0.2,0,0.4-0.1,0.5-0.1
						c0.3,0,0.5,0.1,0.5,0.3c0,0.1,0,0.2-0.1,0.4c0,0.1-0.1,0.3-0.2,0.5c0,0.2-0.1,0.4-0.1,0.6c-0.1,0.2-0.1,0.3-0.1,0.5
						c0,0.3,0.1,0.5,0.5,0.7c0.3,0.2,0.7,0.3,1.1,0.3c0.8-1.2,1.6-2.3,2.3-3.1c0.8-0.8,1.5-1.5,2.2-2c0.7-0.5,1.4-0.9,2-1.1
						c0.7-0.2,1.3-0.3,1.9-0.3c0.7,0,1.4,0.1,1.9,0.4c0.6,0.2,1,0.6,1.4,1c0.4,0.4,0.6,0.9,0.8,1.5c0.2,0.6,0.3,1.2,0.3,1.8
						c0,0.6-0.1,1.2-0.3,1.7c0.2,0.1,0.5,0.2,0.7,0.2c0.3,0,0.5,0.1,0.8,0.1c0.4,0,0.6,0.1,0.7,0.3s0.2,0.5,0.2,1v0.9
						c0,0.5-0.1,0.8-0.4,1c-0.3,0.2-0.6,0.3-1,0.3c-1.4,0-2.4-0.4-3.1-1.1c-0.8,0.5-1.6,0.9-2.7,1.1c-1,0.3-2.2,0.4-3.5,0.4
						c-2,0-3.5-0.1-4.6-0.4c-1.1-0.3-1.9-0.8-2.4-1.6c-0.2,0.3-0.4,0.6-0.7,0.8c-0.3,0.2-0.6,0.4-0.9,0.5C29.9,17.9,29.5,18,29,18
						c-0.5,0.1-1,0.1-1.7,0.1c-0.2,0-0.4-0.1-0.6-0.3c-0.2-0.2-0.3-0.5-0.3-0.9V16c0-0.4,0.1-0.8,0.4-1c0.3-0.2,0.6-0.3,1-0.3
						c0.4,0,0.7,0,1-0.1c0.3,0,0.5-0.1,0.7-0.2c0.2-0.1,0.4-0.3,0.5-0.5c0.1-0.2,0.3-0.5,0.4-0.8c0-0.1,0.1-0.2,0.1-0.3
						C30.6,12.8,30.7,12.7,30.7,12.6z M42.8,11.6c-0.5,0-0.9,0.1-1.4,0.2c-0.5,0.1-1,0.4-1.5,0.7c-0.5,0.3-1,0.7-1.4,1.1
						c-0.5,0.4-0.9,0.9-1.3,1.5c0.3,0,0.6,0.1,1,0.1c0.4,0,0.8,0,1.3,0c1,0,1.8-0.1,2.5-0.2c0.7-0.1,1.3-0.3,1.7-0.5
						c0.4-0.2,0.8-0.4,1-0.6c0.2-0.2,0.3-0.5,0.3-0.7c0-0.4-0.2-0.8-0.5-1.2C44.1,11.7,43.5,11.6,42.8,11.6z M42.2,1.4
						c0.1,0,0.3,0.1,0.5,0.2c0.2,0.1,0.4,0.3,0.7,0.5c0.2,0.2,0.3,0.4,0.5,0.6c0.1,0.2,0.2,0.4,0.2,0.5c0,0.1-0.1,0.3-0.3,0.5
						c-0.2,0.2-0.4,0.4-0.6,0.6c-0.3,0.3-0.5,0.5-0.6,0.6c-0.1,0.1-0.2,0.2-0.4,0.2c-0.1,0-0.3-0.1-0.4-0.3
						c-0.2-0.2-0.3-0.4-0.5-0.6c-0.2-0.2-0.4-0.4-0.6-0.6c-0.2-0.2-0.3-0.3-0.3-0.4c0-0.1,0.1-0.3,0.2-0.5c0.1-0.2,0.3-0.4,0.5-0.7
						c0.2-0.2,0.4-0.4,0.7-0.6C41.9,1.5,42.1,1.4,42.2,1.4z"/>
					<path class="st1" d="M55.5,18.3c-0.5,0-1.1-0.1-1.7-0.4c-0.7-0.3-1.3-0.8-1.9-1.6c-0.3,0.4-0.6,0.8-0.9,1
						c-0.3,0.2-0.6,0.4-0.9,0.5c-0.3,0.1-0.6,0.2-1,0.2c-0.3,0-0.7,0-1,0c-0.2,0-0.4-0.1-0.6-0.3c-0.2-0.2-0.3-0.5-0.3-0.9V16
						c0-0.4,0.1-0.8,0.4-1c0.3-0.2,0.6-0.3,1-0.3c0.3,0,0.5,0,0.7-0.1c0.2-0.1,0.4-0.2,0.6-0.4c0.2-0.2,0.3-0.5,0.5-0.8
						c0.2-0.3,0.3-0.8,0.5-1.3c0.5-1.4,1.1-2.4,1.8-3c0.6-0.6,1.3-0.9,2-0.9c0.8,0,1.6,0.4,2.2,1.1c0.7,0.7,1.3,1.6,1.8,2.7
						c0.3,0.7,0.6,1.2,0.8,1.6c0.2,0.4,0.5,0.7,0.7,0.8c0.2,0.2,0.4,0.3,0.6,0.4c0.2,0,0.4,0.1,0.7,0.1c0.4,0,0.6,0.1,0.7,0.3
						s0.2,0.5,0.2,1v0.9c0,0.5-0.1,0.8-0.4,1c-0.3,0.2-0.6,0.3-1,0.3c-0.6,0-1.1-0.1-1.5-0.3c-0.4-0.2-0.8-0.5-1.2-1.1
						c-0.4,0.5-0.8,0.9-1.2,1.2C56.7,18.2,56.1,18.3,55.5,18.3z M54.5,11.5c-0.2,0-0.4,0.1-0.5,0.2c-0.2,0.1-0.3,0.3-0.5,0.5
						c-0.1,0.2-0.2,0.4-0.3,0.7c-0.1,0.2-0.2,0.4-0.2,0.6c0.3,0.4,0.8,0.8,1.3,1.1c0.6,0.3,1.2,0.4,1.7,0.4c0.3,0,0.6-0.1,0.8-0.2
						c0.2-0.1,0.3-0.3,0.3-0.4c0-0.2-0.1-0.5-0.2-0.8c-0.1-0.3-0.3-0.7-0.5-1c-0.2-0.3-0.5-0.6-0.8-0.8
						C55.2,11.6,54.8,11.5,54.5,11.5z"/>
					<path class="st1" d="M64.1,13.1c0-0.1,0-0.4,0-0.8c0-0.4-0.1-1-0.1-1.6c-0.1-0.6-0.1-1.3-0.2-2.1c-0.1-0.7-0.1-1.5-0.2-2.2
						c0-0.4-0.1-0.8-0.1-1.2c0-0.5-0.1-0.9-0.1-1.3S63.1,3,63.1,2.6c0-0.4,0-0.7,0-0.9c0-0.4,0.1-0.7,0.3-0.9
						c0.2-0.2,0.5-0.3,0.9-0.5c0.1,0,0.2,0,0.3-0.1c0.1,0,0.3-0.1,0.5-0.1c0.2,0,0.3-0.1,0.4-0.1c0.1,0,0.2,0,0.2,0
						c0.3,0,0.5,0.1,0.6,0.3c0.1,0.2,0.1,0.5,0.1,0.7c0,1.3,0,2.5,0,3.7c0,1.2,0,2.4,0.1,3.5c0,1.1,0,2,0.1,2.9c0,0.8,0,1.5,0.1,1.9
						v0.5c0,0.8-0.1,1.5-0.4,2.1c-0.2,0.6-0.6,1-1.1,1.4c-0.5,0.3-1.1,0.6-1.7,0.8c-0.7,0.1-1.5,0.2-2.3,0.2c-0.2,0-0.4-0.1-0.6-0.3
						c-0.2-0.2-0.3-0.5-0.3-0.9V16c0-0.4,0.1-0.8,0.4-1c0.3-0.2,0.6-0.3,1-0.3c0.6,0,1.1,0,1.5-0.1c0.4-0.1,0.6-0.2,0.8-0.3
						c0.2-0.1,0.3-0.3,0.3-0.5C64.1,13.6,64.1,13.4,64.1,13.1z"/>
					<path class="st1" d="M69.6,0.4c0,0,0.1,0,0.3-0.1c0.2,0,0.3-0.1,0.5-0.1c0.2,0,0.4-0.1,0.6-0.1s0.3,0,0.5,0
						c0.2,0,0.4,0.1,0.4,0.3c0,0.2,0.1,0.5,0.1,0.9c0,0.3,0,0.7,0,1.3c0,0.5,0,1.2,0.1,1.8c0,0.7,0.1,1.4,0.1,2.2
						c0,0.8,0.1,1.6,0.1,2.4c0,0.8,0,1.6,0.1,2.3c0,0.8,0,1.5,0,2.1c0,1.1-0.1,2-0.2,2.7c-0.1,0.8-0.3,1.3-0.5,1.5
						c-0.2,0.2-0.5,0.4-0.9,0.5s-0.7,0.2-0.9,0.2c-0.2,0-0.3,0-0.4-0.1c-0.1,0-0.1-0.2-0.1-0.4c0,0,0-0.1,0-0.2c0-0.1,0-0.2,0-0.3
						c0-0.4,0.1-0.9,0.1-1.7c0.1-0.8,0.1-1.8,0.1-3.1c0-1.3,0-2.4-0.1-3.6C69.3,8,69.2,6.9,69.1,6C69,5,69,4.1,68.9,3.4
						c-0.1-0.8-0.1-1.4-0.1-1.9c0-0.3,0-0.5,0.2-0.7C69,0.6,69.2,0.5,69.6,0.4z"/>
				</g>
			</g>
		</g>
	</g>
</g>
</svg>
