<?xml version="1.0" encoding="utf-8"?>
<!-- Generator: Adobe Illustrator 16.0.0, SVG Export Plug-In . SVG Version: 6.00 Build 0)  -->
<!DOCTYPE svg PUBLIC "-//W3C//DTD SVG 1.1//EN" "http://www.w3.org/Graphics/SVG/1.1/DTD/svg11.dtd">
<svg version="1.1" id="Layer_1" xmlns="http://www.w3.org/2000/svg" xmlns:xlink="http://www.w3.org/1999/xlink" x="0px" y="0px"
	 width="952.941px" height="768px" viewBox="32.529 0 952.941 768" enable-background="new 32.529 0 952.941 768"
	 xml:space="preserve">
<g>
	<g>
		<path fill="#2C888C" d="M50.882,609.882c0,0-12.706,9.883-2.823,36.706c12.706,32.471,87.529,48,87.529,48V533.647
			c0,0-33.882,12.706-50.824,31.059C69.235,584.47,50.882,609.882,50.882,609.882z"/>
		<path fill="#2C888C" d="M50.882,165.176c0,0-12.706-9.882-2.823-36.705c12.706-32.471,87.529-48,87.529-48v160.94
			c0,0-33.882-12.705-50.824-31.059C69.235,190.588,50.882,165.176,50.882,165.176z"/>
		<path opacity="0.2" fill="#7A7A7A" enable-background="new    " d="M601.471,768c211.765,0,384-172.235,384-384
			S814.647,0,601.471,0c-151.059,0-283.765,88.94-345.882,217.411c0-1.411,1.412-2.823,1.412-4.235
			c-12.706,0-60.706-2.823-115.765-19.765c-63.529-19.765-87.529-67.765-87.529-67.765c-15.529,22.589-1.412,136.941-1.412,262.588
			c0,125.647-16.941,230.118,1.412,262.589c0,0,24-53.647,86.118-72c63.529-19.765,115.765-19.765,115.765-19.765l1.412-1.412
			c0,0,0,1.412,0,0C321.941,683.294,451.823,768,601.471,768z"/>
		<path fill="#33969F" d="M580.294,768c211.765,0,384-172.235,384-384S793.471,0,580.294,0
			c-152.471,0-283.765,88.94-345.882,217.411c1.412,0,2.824-2.823,2.824-2.823c-12.706-1.412-62.118-4.235-117.176-21.177
			c-62.118-19.765-73.412-62.117-73.412-62.117c-7.059,14.117-14.118,131.294-14.118,258.353c0,125.647,5.647,216,14.118,252.706
			c0,0,11.294-43.765,74.824-63.529s114.353-21.177,114.353-21.177s2.823,0,4.235,0c0,0-1.412,0,0-1.412
			C300.765,681.882,430.647,768,580.294,768z"/>
		
			<linearGradient id="SVGID_1_" gradientUnits="userSpaceOnUse" x1="-1574.627" y1="1068.7385" x2="-1574.627" y2="1079.8019" gradientTransform="matrix(0 14.1176 14.1176 0 -15071.0244 22616.8398)">
			<stop  offset="0" style="stop-color:#FFFFFF;stop-opacity:0.5"/>
			<stop  offset="0.1774" style="stop-color:#FFFFFF"/>
			<stop  offset="0.2301" style="stop-color:#FFFFFF;stop-opacity:0.9359"/>
			<stop  offset="1" style="stop-color:#FFFFFF;stop-opacity:0"/>
		</linearGradient>
		<path opacity="0.2" fill="url(#SVGID_1_)" enable-background="new    " d="M120.059,578.823
			c63.529-19.765,114.353-21.177,114.353-21.177h2.824l0,0l0,0l0,0l0,0l0,0c0,1.412,1.412,2.823,2.823,4.235
			c-1.412-115.765-2.823-231.529-8.47-348.706c-16.941-1.411-63.53-5.646-111.53-21.176c-62.117-18.354-73.412-60.706-73.412-60.706
			c-7.059,14.117-14.118,131.294-14.118,258.353c0,125.647,5.647,216,14.118,252.706C46.647,642.353,57.941,597.176,120.059,578.823
			z"/>
	</g>
</g>
</svg>
