<?xml version="1.0" encoding="utf-8"?>
<!-- Generator: Adobe Illustrator 22.0.1, SVG Export Plug-In . SVG Version: 6.00 Build 0)  -->
<svg version="1.1" id="Layer_1" xmlns="http://www.w3.org/2000/svg" xmlns:xlink="http://www.w3.org/1999/xlink" x="0px" y="0px"
	 viewBox="0 0 86.2 86.2" style="enable-background:new 0 0 86.2 86.2;" xml:space="preserve">
<style type="text/css">
	.st0{fill:#235958;}
</style>
<path class="st0" d="M52.4,58.7h-1h-2.7c-2.1,0-3.6-4.1-4.5-12.2c-0.5-4.5-0.7-9.5-0.7-15.1c0-2.6-0.3-5.8-0.8-9.5
	c-2.6,2.2-3.9,3.4-3.9,3.5c0,2.6,0.2,6.6,0.7,11.9s0.7,9.2,0.7,11.9c0,6.4-1.7,9.7-5.1,9.7h-0.6h-2.1H20v8.4h12.4h2.1H35
	c2.7,0,4.9-3,6.6-9c1.1,6,3.5,9,7.1,9h2.7h1h13.4v-8.4H52.4V58.7z"/>
<g>
	<path class="st0" d="M38.5,14.4c0,1.6-0.6,3-1.6,4.3c-1.1,1.2-2.5,1.8-4.1,1.8c-2.7,0-4-1.5-4-4.5c0-1.9,0.4-3.5,1.1-4.8
		c1-1.6,2.3-2.3,4.1-2.3c1.3,0,2.4,0.6,3.3,1.8C38.1,11.8,38.5,13.1,38.5,14.4z M36.4,15.4c0-0.6-0.5-1.4-1.6-2.1
		c-1.1-0.8-2-1.2-2.7-1.2c-0.6,0-1.1,0.3-1.6,0.8c-0.5,0.6-0.7,1.1-0.7,1.7c0,1.5,1.1,2.3,3.3,2.3C35.4,16.9,36.4,16.4,36.4,15.4z"
		/>
</g>
</svg>
