<?xml version="1.0" encoding="utf-8"?>
<!-- Generator: Adobe Illustrator 22.0.1, SVG Export Plug-In . SVG Version: 6.00 Build 0)  -->
<svg version="1.1" id="Layer_1" xmlns="http://www.w3.org/2000/svg" xmlns:xlink="http://www.w3.org/1999/xlink" x="0px" y="0px"
	 viewBox="0 0 288.8 52.3" style="enable-background:new 0 0 288.8 52.3;" xml:space="preserve">
<style type="text/css">
	.st0{fill:#097B70;}
</style>
<g>
	<polygon class="st0" points="124.1,22.8 125.8,23.8 127.1,21.6 125,20.5 123.9,22.3 122.2,21.4 120.9,23.5 123.1,24.7 	"/>
	<path class="st0" d="M134.7,27.8c0.2-0.4,0.3-0.8,0.5-1.3c0.1-0.5,0.2-1,0.3-1.5c-0.6-0.3-1.1-0.5-1.4-0.7
		c-0.3-0.2-0.5-0.5-0.5-0.8c0-0.2,0-0.3,0-0.4l-0.5-0.3c-0.4,0.8-0.7,1.6-0.9,2.2c-0.1,0.5-0.2,0.9-0.2,1.4l0.8,0.5l1.4,8.1h-4.3
		H129h-0.7c-0.3,0-0.6-0.1-0.8-0.4c-0.3-0.4-0.5-1.2-0.7-2.4l-1.1-7.4c-0.4,0.7-0.6,1.2-0.7,1.7c-0.1,0.5-0.2,0.8-0.2,1.1
		c0,0.1,0,0.2,0,0.3c0,0.1,0,0.2,0.1,0.3l-0.6,0.4c-0.6,0.3-1,0.6-1.3,0.8c-0.5,0.3-0.9,0.6-1.1,0.8c-0.2,0.3-0.6,1-1.2,2.1
		c-0.6,1.1-0.8,1.8-0.8,2c0,0.1,0.1,0.2,0.2,0.3c0.1,0.1,0.5,0.1,1.1,0.3l1.5,0.3c0.2,0,0.4,0.1,0.6,0.1c0.3,0,0.7-0.2,1.1-0.6
		c0.3-0.3,0.7-0.8,1.3-1.4c0.1,1.5,0.4,2.6,0.8,3.5c0.3,0.6,0.7,1,1.2,1.3c0.2,0.1,0.5,0.2,0.8,0.2h0.7h0.8h5.7V35l-1.3-7.4
		L134.7,27.8z M124.4,32.1c-0.2,0.1-0.4,0.1-0.5,0.1c-0.3,0-0.5,0-0.8-0.1c-0.3-0.1-0.4-0.2-0.4-0.3c0-0.1,0.1-0.2,0.2-0.4
		c0.1-0.1,0.3-0.3,0.5-0.4c0.3-0.2,0.6-0.4,1-0.6c0.1-0.1,0.3-0.2,0.6-0.3l0.2,1.4C124.9,31.8,124.6,32,124.4,32.1z"/>
	<path class="st0" d="M158.9,27.8c0.2-0.4,0.3-0.8,0.5-1.3c0.1-0.5,0.2-1,0.3-1.5c-0.6-0.3-1.1-0.5-1.4-0.7
		c-0.3-0.2-0.5-0.5-0.5-0.8c0-0.2,0-0.3,0-0.4l-0.5-0.3c-0.4,0.8-0.7,1.6-0.9,2.2c-0.1,0.5-0.2,0.9-0.2,1.4l0.8,0.5l1.4,8.1h-4.3
		c-0.6-0.1-1.1-0.3-1.4-0.5c-0.3-0.2-0.8-0.6-1.4-1.3c-0.9-0.9-1.5-1.6-2-2.1c-0.6-0.6-1.1-1-1.6-1.2c-0.5-0.3-1-0.4-1.5-0.4
		c-0.7,0-1.3,0.2-1.8,0.7c-0.5,0.5-1,1.2-1.5,2.2c0.3-0.1,0.6-0.1,0.7-0.1s0.4,0,0.6,0c0.7,0,1.4,0.2,2.1,0.6
		c0.8,0.4,1.7,1.2,2.7,2.1h-7.6h-0.8h-0.8c-0.4,0-0.7-0.3-0.8-0.8c-0.2-0.6-0.3-1.8-0.3-3.5v-2.3c0-1.1-0.1-2-0.3-2.8
		c-0.2-0.6-0.5-1.2-1-1.9l-1.3,3c0.4,0.4,0.6,0.7,0.7,0.9c0.2,0.4,0.3,1,0.3,1.8v3.4c0,2,0.2,3.4,0.7,4.3c0.4,0.8,1.1,1.1,2,1.1h0.8
		h0.8h11.9h0.8h5.7V35l-1.3-7.4L158.9,27.8z"/>
	<path class="st0" d="M164.1,32.2c-0.1-1.2-0.3-2.6-0.5-4.2l-0.7-4.2c-0.4,0.8-0.8,1.6-1,2.2c-0.2,0.6-0.4,1-0.4,1.3
		c0,0.2,0,0.5,0.1,0.9c0.3,1.3,0.5,2.4,0.6,3.3c0.1,0.9,0.2,1.8,0.3,2.8c0.1,0.9,0.1,1.6,0.1,2.1c0,0.6-0.1,1.5-0.3,2.5l0.7,0.3
		c0.5-1,0.8-1.8,1-2.4c0.2-0.6,0.3-1.2,0.3-1.9C164.2,34,164.1,33.1,164.1,32.2z"/>
</g>
</svg>
