<?xml version="1.0" encoding="utf-8"?>
<!-- Generator: Adobe Illustrator 22.0.1, SVG Export Plug-In . SVG Version: 6.00 Build 0)  -->
<svg version="1.1" id="Layer_1" xmlns="http://www.w3.org/2000/svg" xmlns:xlink="http://www.w3.org/1999/xlink" x="0px" y="0px"
	 viewBox="0 0 288.8 46.1" style="enable-background:new 0 0 288.8 46.1;" xml:space="preserve">
<style type="text/css">
	.st0{fill:#542C0B;}
</style>
<g>
	<path class="st0" d="M58.1,16.3h-1.8c-0.8,1.2-1.5,2.4-2,3.8c-0.6,1.6-0.9,3.3-0.9,5.1c0,1.4,0.2,2.9,0.7,4.5
		c0.5,1.5,1.2,3,2.2,4.4h1.8c-0.5-1.2-0.9-2.1-1.1-2.7c-0.3-1-0.6-2-0.8-3c-0.2-1.1-0.3-2.1-0.3-3.1c0-1.5,0.2-2.9,0.5-4.2
		S57.3,18.2,58.1,16.3z"/>
	<path class="st0" d="M74.6,19.3c0.1-0.3,0.3-0.6,0.4-1s0.2-0.8,0.2-1.2c-0.5-0.2-0.9-0.4-1.1-0.6c-0.3-0.2-0.4-0.4-0.4-0.6
		c0-0.2,0-0.3,0-0.3l-0.4-0.2c-0.3,0.6-0.6,1.2-0.7,1.7c-0.1,0.4-0.2,0.7-0.2,1.1l0.6,0.4l1.1,6.3h-3.3c-0.7-1-1.3-1.7-1.8-2.2
		S68,22,67.6,22c-0.5,0-0.9,0.3-1.3,0.8s-0.7,1.2-1,2.2l0.4,0.2c0.3-0.4,0.6-0.7,0.7-0.8s0.3-0.2,0.5-0.2c0.4,0,0.8,0.3,1.3,1
		c-1,0.1-1.8,0.3-2.2,0.4c-0.5,0.2-0.8,0.4-1,0.7c-0.2,0.3-0.3,0.6-0.4,0.9c-0.2,0.4-0.2,0.8-0.2,1.1c0,0.2,0.1,0.6,0.3,1.2
		c0.3,1,0.5,1.7,0.6,2c0.2,0.9,0.4,1.7,0.5,2.6c0.2-0.3,0.4-0.6,0.5-0.9s0.1-0.6,0.1-1c0-0.6-0.1-1.2-0.3-1.8
		c-0.2-0.6-0.4-1.3-0.6-2.1c0-0.2,0.4-0.5,1.3-0.7s1.9-0.3,3-0.3h0.6l0,0h5.1v-2.5l-1-5.7L74.6,19.3z"/>
	<path class="st0" d="M90.7,21.6l-0.8,1.1c-0.1,0.2-0.2,0.3-0.2,0.3c0,0.1-0.1,0.2-0.1,0.4c0,0.1,0.1,0.3,0.2,0.7
		c0.2,0.3,0.2,0.6,0.2,0.8c-0.3,0-0.6-0.1-0.9-0.2s-0.5-0.2-0.8-0.3c0.1-0.6,0.1-1,0.1-1.3c0-0.1,0-0.2,0-0.4s0-0.4,0-0.5L88,22.5
		c-0.2,0.1-0.3,0.2-0.3,0.3c-0.1,0.1-0.1,0.2-0.1,0.4c0,0.7-0.2,1.2-0.6,1.4c-0.3,0.2-0.9,0.3-1.6,0.3h-1.1c-0.3,0-0.5-0.1-0.7-0.3
		c-0.2-0.2-0.3-0.5-0.3-0.8s0-0.6,0-0.8c0-0.3,0-0.5,0-0.7l-0.6-0.1c0,1-0.3,1.7-0.8,2.2c-0.4,0.4-1,0.5-1.6,0.5h-0.7H79h-0.6
		c-0.3,0-0.5-0.2-0.6-0.6c-0.2-0.5-0.3-1.4-0.3-2.7v-1.8c0-0.9-0.1-1.6-0.2-2.1s-0.4-1-0.7-1.5l-1,2.3c0.3,0.3,0.5,0.5,0.6,0.7
		c0.2,0.3,0.2,0.8,0.2,1.4v2.6c0,1.5,0.2,2.6,0.5,3.3c0.3,0.6,0.8,0.9,1.6,0.9H79h0.6h0.7c0.5,0,0.9-0.1,1.3-0.3
		c0.4-0.2,0.8-0.6,1.1-1.1c0.2,0.5,0.4,0.9,0.6,1.1s0.6,0.3,1,0.3h1.5c0.6,0,1,0,1.3-0.1s0.6-0.2,1-0.5c0.4,0.2,0.9,0.4,1.3,0.5
		s1,0.1,1.7,0.1v-3.5c0-0.5,0-0.9-0.1-1.2C91,22.4,90.9,22,90.7,21.6z"/>
	<path class="st0" d="M108.3,20.8c-0.4-0.4-0.7-0.7-0.7-0.7c0-0.1,0.3-0.3,0.8-0.5c0.4-0.1,0.8-0.3,1.4-0.5c0.5-0.2,0.7-0.2,0.8-0.2
		v-2.2c-0.8,0.3-1.3,0.5-1.6,0.6c-0.5,0.2-1,0.4-1.3,0.6c-0.4,0.2-0.8,0.4-1.1,0.7c-0.4,0.3-0.7,0.6-0.8,1c-0.1,0.3-0.1,0.7-0.1,1.3
		c0,0.5,0.2,0.9,0.5,1.2c0.1,0.1,0.4,0.4,1,1l0.3-0.3c0.3,0.3,0.7,0.5,1,0.8c0.3,0.2,0.6,0.5,0.7,0.6c0.2,0.2,0.5,0.5,0.7,0.8h-5.4
		v-0.1c0-0.7-0.1-1.4-0.3-1.9c-0.2-0.6-0.6-1.1-1-1.5l-0.5,2.5c0.3,0.3,0.6,0.7,0.8,1.1c0.2,0.4,0.3,0.7,0.3,1
		c0,0.5-0.5,1.2-1.5,2.1c-0.7,0.7-1.3,1.1-1.7,1.3c-0.4,0.2-0.8,0.4-1.3,0.4c-0.4,0-0.8-0.1-1.1-0.2c-0.3-0.1-0.8-0.4-1.3-0.7
		l-0.4,0.6c1.2,0.8,2,1.3,2.5,1.6c0.6,0.3,1.2,0.5,1.7,0.5s1-0.3,1.6-0.8s1.1-1,1.5-1.6s0.6-1.1,0.6-1.5v-0.2h6.8V25
		c-0.4-0.8-1-1.6-1.6-2.4C109.4,21.9,108.9,21.4,108.3,20.8z"/>
	<polygon class="st0" points="116.4,15.2 114.2,14.1 113.1,16.2 115.3,17.3 	"/>
	<path class="st0" d="M123.9,21.1c-0.3,0-0.8,0.2-1.2,0.7c-0.5,0.5-1,1.1-1.3,1.9c-0.2,0.4-0.5,0.7-0.9,0.9
		c-0.3,0.1-0.8,0.2-1.3,0.2H118v-0.5c0-1.4-0.2-2.6-0.5-3.5s-0.9-1.7-1.7-2.3l-0.7,2.9c0.5,0.3,0.9,0.7,1.2,1.2
		c0.4,0.5,0.6,1.3,0.7,2.2h-3.2c-0.2,0-0.4,0-0.6-0.1s-0.3-0.3-0.3-0.5h-0.4c-0.1,0.3-0.1,0.6-0.1,1c0,0.3,0,0.6,0,0.9
		c0,0.5,0.1,0.8,0.4,1c0.2,0.2,0.5,0.3,0.9,0.3h3.5h0.6h1.2c0.4,0,0.8,0,1-0.1c0.5-0.2,1-0.5,1.3-1.1c0.6,0.3,1.3,0.6,2,0.8
		c0.9,0.3,1.6,0.4,2.3,0.4v-2c0-0.8-0.2-1.8-0.7-2.8C124.6,21.6,124.2,21.1,123.9,21.1z M123.9,24.7c-0.1,0-0.3-0.1-0.8-0.3
		c-0.2-0.1-0.4-0.2-0.7-0.3c0.2-0.6,0.4-0.8,0.6-0.8s0.5,0.2,0.8,0.6c0.3,0.3,0.4,0.6,0.4,0.7C124.1,24.7,124,24.7,123.9,24.7z"/>
	<polygon class="st0" points="151,30.3 153.1,31.5 154.3,29.4 152.1,28.2 	"/>
	<path class="st0" d="M161.5,19.3c0.1-0.3,0.3-0.6,0.4-1c0.1-0.4,0.2-0.8,0.2-1.2c-0.5-0.2-0.9-0.4-1.1-0.6
		c-0.3-0.2-0.4-0.4-0.4-0.6c0-0.2,0-0.3,0-0.3l-0.4-0.2c-0.3,0.6-0.6,1.2-0.7,1.7c-0.1,0.4-0.2,0.7-0.2,1.1l0.6,0.4l1.1,6.3h-3.3
		c-0.5-0.1-0.9-0.2-1.1-0.4s-0.6-0.5-1.1-1c-0.7-0.7-1.2-1.3-1.6-1.6c-0.5-0.4-0.9-0.8-1.3-1c-0.4-0.2-0.8-0.3-1.2-0.3
		c-0.5,0-1,0.2-1.4,0.6s-0.8,0.9-1.1,1.7c0.3-0.1,0.4-0.1,0.6-0.1s0.3,0,0.4,0c0.5,0,1.1,0.2,1.6,0.5c0.6,0.3,1.3,0.9,2.1,1.7h-6
		c-0.1-0.7-0.3-1.5-0.7-2.3c-0.5-0.9-0.8-1.4-1.2-1.4c-0.3,0-0.8,0.2-1.2,0.7c-0.5,0.5-1,1.1-1.3,1.9c-0.2,0.4-0.5,0.7-0.9,0.9
		c-0.3,0.1-0.8,0.2-1.3,0.2h-1.2h-0.6h-0.6c-0.3,0-0.5-0.1-0.9-0.2c-0.4-0.2-0.8-0.4-1.1-0.8c0.4-0.2,0.6-0.4,0.8-0.8
		c0.2-0.3,0.3-0.7,0.3-1c0-0.6-0.2-1.1-0.7-1.5c-0.4-0.4-1-0.6-1.7-0.6c-0.8,0-1.4,0.3-1.8,0.9c-0.4,0.6-0.6,1.3-0.6,2.1l0.4,0.1
		c0.1-0.1,0.1-0.2,0.2-0.2c0.1-0.1,0.1-0.1,0.2-0.1c0.3,0,0.4,0.2,0.5,0.7c-0.9,0.8-1.6,1.7-2,2.6s-0.6,1.9-0.6,3
		c0,1.6,0.5,2.8,1.4,3.5c0.9,0.8,2.4,1.1,4.4,1.1l3.4-2.1l-0.1-0.4c-0.3,0-0.6,0-1,0s-0.7,0-1,0c-2.1,0-3.6-0.3-4.6-0.8
		s-1.4-1.3-1.4-2.4c0-0.6,0.2-1.2,0.6-1.8c0.4-0.6,0.9-1.1,1.6-1.6c0.5,1,1,1.7,1.6,2c0.5,0.3,1.2,0.5,2.1,0.5h0.6h0.6h1.2
		c0.4,0,0.8,0,1-0.1c0.5-0.2,1-0.5,1.3-1.1c0.6,0.3,1.3,0.6,2,0.8c0.6,0.2,1.1,0.3,1.6,0.3v0.1h9.9h0.6h4.4v-2.5l-1-5.7L161.5,19.3z
		 M145.9,24.7c-0.1,0-0.3-0.1-0.8-0.3c-0.2-0.1-0.4-0.2-0.7-0.3c0.2-0.6,0.4-0.8,0.6-0.8c0.2,0,0.5,0.2,0.8,0.6
		c0.3,0.3,0.4,0.6,0.4,0.7C146.1,24.7,146,24.7,145.9,24.7z"/>
	<polygon class="st0" points="167.5,30.2 169.7,31.4 170.8,29.3 168.6,28.1 	"/>
	<path class="st0" d="M170.5,20.8l-0.7,2.2c0.3,0.4,0.6,0.7,0.6,0.8c0.2,0.3,0.3,0.6,0.4,1.1h-4.2H166h-0.6c-0.3,0-0.5-0.2-0.6-0.6
		c-0.2-0.5-0.3-1.4-0.3-2.7v-1.8c0-0.9-0.1-1.6-0.2-2.1c-0.1-0.5-0.4-1-0.7-1.5l-1,2.3c0.3,0.3,0.5,0.5,0.6,0.7
		c0.2,0.3,0.2,0.8,0.2,1.4v2.6c0,1.5,0.2,2.6,0.5,3.3c0.3,0.6,0.8,0.9,1.6,0.9h0.6h0.6h5.1V25c0-1.1-0.1-2-0.3-2.5
		C171.3,21.8,171,21.3,170.5,20.8z"/>
	<polygon class="st0" points="185.8,19.7 187.1,20.4 188.2,18.6 186.5,17.6 185.7,19.1 184.3,18.4 183.4,20.2 185.1,21.2 	"/>
	<path class="st0" d="M214.5,19.3c0.1-0.3,0.3-0.6,0.4-1c0.1-0.4,0.2-0.8,0.2-1.2c-0.5-0.2-0.9-0.4-1.1-0.6
		c-0.3-0.2-0.4-0.4-0.4-0.6c0-0.2,0-0.3,0-0.3l-0.4-0.2c-0.3,0.6-0.6,1.2-0.7,1.7c-0.1,0.4-0.2,0.7-0.2,1.1l0.6,0.4l1.1,6.3h-3.4
		c-0.1-0.7-0.3-1.5-0.7-2.3c-0.5-0.9-0.8-1.4-1.2-1.4c-0.3,0-0.8,0.2-1.2,0.7c-0.5,0.5-1,1.1-1.3,1.9c-0.2,0.4-0.5,0.7-0.9,0.9
		c-0.3,0.1-0.8,0.2-1.3,0.2h-1.2l-1-5.7l0.3,0.1c0.1-0.3,0.3-0.6,0.4-1c0.1-0.4,0.2-0.8,0.2-1.2c-0.5-0.2-0.9-0.4-1.1-0.6
		c-0.3-0.2-0.4-0.4-0.4-0.6c0-0.2,0-0.3,0-0.3l-0.4-0.2c-0.3,0.6-0.6,1.2-0.7,1.7c-0.1,0.4-0.2,0.7-0.2,1.1l0.6,0.4l1.1,6.3h-3.3
		c-0.5-0.1-0.9-0.2-1.1-0.4s-0.6-0.5-1.1-1c-0.7-0.7-1.2-1.3-1.6-1.6c-0.5-0.4-0.9-0.8-1.3-1c-0.4-0.2-0.8-0.3-1.2-0.3
		c-0.5,0-1,0.2-1.4,0.6s-0.8,0.9-1.1,1.7c0.3-0.1,0.4-0.1,0.6-0.1s0.3,0,0.4,0c0.5,0,1.1,0.2,1.6,0.5c0.6,0.3,1.3,0.9,2.1,1.7h-6
		c-0.1-0.8-0.2-1.5-0.5-2.1c-0.4-1-0.9-1.4-1.6-1.4c-0.6,0-1.2,0.5-1.6,1.5c-0.5,0.9-0.7,1.8-0.7,2.7c0,0.6,0.2,1.1,0.6,1.4
		s0.9,0.5,1.6,0.5c0.3,0,0.8,0,1.4-0.1c0,0.1,0,0.2,0.1,0.3c0,0.1,0,0.2,0,0.3c0,0.6-0.5,1.2-1.5,1.7s-2.1,0.7-3.4,0.7
		c-1.4,0-2.5-0.2-3.3-0.6s-1.2-1-1.2-1.8c0-0.5,0.1-1.1,0.4-1.6c0.2-0.6,0.6-1.2,1.2-2.1l-0.6-0.4c-0.9,1.2-1.4,2.2-1.8,3
		c-0.3,0.7-0.4,1.6-0.4,2.5c0,1,0.5,1.9,1.4,2.4c0.9,0.6,2.2,0.8,3.9,0.8c2,0,3.6-0.4,4.7-1.3c0.5-0.4,0.8-0.8,1-1.2
		c0.1-0.4,0.2-1.2,0.2-2.4v-0.3h9.3h0.6h3.8h0.6h1.2c0.4,0,0.8,0,1-0.1c0.5-0.2,1-0.5,1.3-1.1c0.6,0.3,1.3,0.6,2,0.8
		c0.6,0.2,1.1,0.3,1.6,0.3v0.1h5.1V25l-1-5.7L214.5,19.3z M186.4,24.9c-0.1,0-0.2,0-0.4,0c-0.5,0-0.8-0.2-0.8-0.6
		c0-0.2,0-0.3,0.1-0.4s0.2-0.1,0.4-0.1s0.4,0.1,0.6,0.2c0.2,0.2,0.3,0.4,0.5,0.8C186.7,24.9,186.5,24.9,186.4,24.9z M208.8,24.7
		c-0.1,0-0.3-0.1-0.8-0.3c-0.2-0.1-0.4-0.2-0.7-0.3c0.2-0.6,0.4-0.8,0.6-0.8c0.2,0,0.5,0.2,0.8,0.6c0.3,0.3,0.4,0.6,0.4,0.7
		C209,24.7,209,24.7,208.8,24.7z"/>
	<path class="st0" d="M218.1,19.4l-0.6-3.3c-0.3,0.7-0.6,1.2-0.8,1.7s-0.3,0.8-0.3,1c0,0.1,0,0.4,0.1,0.7c0.2,1,0.4,1.8,0.5,2.5
		s0.2,1.4,0.2,2.2s0.1,1.3,0.1,1.7c0,0.5-0.1,1.1-0.2,1.9l0.6,0.2c0.4-0.8,0.6-1.4,0.7-1.8c0.1-0.5,0.2-1,0.2-1.5c0-0.6,0-1.3-0.1-2
		C218.4,21.7,218.3,20.7,218.1,19.4z"/>
	<path class="st0" d="M229.1,20.5c-0.5-1.5-1.2-2.9-2.2-4.2h-1.8c0.8,1.9,1.4,3.5,1.7,4.8s0.5,2.7,0.5,4.2c0,0.7,0,1.4-0.1,2.1
		s-0.2,1.4-0.4,2.2s-0.4,1.4-0.6,2c-0.2,0.6-0.6,1.4-1.1,2.5h1.8c1.1-1.6,1.8-3.2,2.3-4.9c0.4-1.5,0.6-2.9,0.6-4.1
		C229.9,23.5,229.6,22,229.1,20.5z"/>
</g>
</svg>
