<?xml version="1.0" encoding="utf-8"?>
<!-- Generator: Adobe Illustrator 22.0.1, SVG Export Plug-In . SVG Version: 6.00 Build 0)  -->
<svg version="1.1" id="Layer_1" xmlns="http://www.w3.org/2000/svg" xmlns:xlink="http://www.w3.org/1999/xlink" x="0px" y="0px"
	 viewBox="0 0 276.8 46.1" style="enable-background:new 0 0 276.8 46.1;" xml:space="preserve">
<style type="text/css">
	.st0{fill:#BA0017;}
</style>
<g>
	<g>
		<g>
			<g>
				<g>
					<path class="st0" d="M72.5,15.9c0,0.3-0.2,0.6-0.5,0.9c-0.6,0.2-1.5,0.6-2.8,1.1c0-0.3,0.1-0.6,0.4-0.8
						C70.1,16.9,71.1,16.5,72.5,15.9z"/>
					<path class="st0" d="M75.7,27.5c0,1.5-0.4,2.5-1.3,3.2c-0.9,0.7-2.4,1.1-4.4,1.1c-1.3,0-2.3-0.2-3-0.7
						c-0.8-0.5-1.1-1.3-1.1-2.3c0-0.6,0.1-1.1,0.2-1.7s0.3-1.1,0.6-1.7c0.1-0.4,0.4-0.9,0.7-1.6l0.4,0.2c-0.5,0.9-0.8,1.7-0.9,2.2
						s-0.2,1-0.2,1.5c0,0.8,0.3,1.4,0.9,1.8s1.4,0.6,2.5,0.6c1.2,0,2.3-0.2,3.3-0.7c1.2-0.5,1.8-1.3,1.8-2.3c0-0.7-0.1-1.3-0.3-1.9
						c-0.2-0.5-0.4-1-0.7-1.3l0.8-2c0.3,0.5,0.6,1.1,0.7,1.6s0.2,1.3,0.2,2.2V27.5z M72.1,20l-0.7,1.4l-1.5-0.8l0.7-1.4L72.1,20z"/>
					<path class="st0" d="M80.6,27.5h-5.6v-1.7h4.9c0-0.8-0.1-1.4-0.3-1.8c-0.1-0.3-0.4-0.7-0.9-1.2l0.8-1.6
						c0.5,0.6,0.8,1.1,0.9,1.4c0.2,0.5,0.3,1.3,0.3,2.5V27.5z M78.3,30.4l-0.7,1.4L76,31l0.7-1.4L78.3,30.4z M80.6,29.5l-0.8,1.4
						L78.2,30l0.7-1.4L80.6,29.5z"/>
					<path class="st0" d="M90.4,27.5c0,0.7-0.3,1.5-0.9,2.2c-0.5,0.7-1.2,1.3-2,1.7c-0.8,0.5-1.4,0.7-1.9,0.7
						c-0.4,0-0.9-0.1-1.5-0.2c-0.4-0.1-0.9-0.3-1.4-0.5c-0.5-0.2-0.9-0.4-1.4-0.5l0.2-0.4c0.4,0.1,0.9,0.2,1.3,0.3s0.9,0.1,1.3,0.1
						c0.8,0,1.7-0.3,2.6-0.8c0.8-0.5,1.5-1.1,2.1-1.9s0.9-1.4,0.9-2c0-0.5-0.1-1.1-0.4-1.6c-0.2-0.5-0.6-0.9-1-1.4l0.6-1.5
						c0.5,0.5,0.9,1,1.2,1.5c0.3,0.6,0.4,1.2,0.4,1.9V27.5z"/>
					<path class="st0" d="M101,27.5h-0.8c-0.4,0-0.8-0.1-1.1-0.2s-0.6-0.3-0.8-0.5c-0.3,0.2-0.6,0.4-0.8,0.5
						c-0.3,0.1-0.8,0.2-1.4,0.2h-0.6c-0.3,0-0.7-0.1-1-0.2c-0.2-0.1-0.5-0.2-0.8-0.4c-0.3,0.2-0.6,0.4-0.9,0.5s-0.7,0.1-1.3,0.1
						h-1.9v-1.7h1.9c0.5,0,0.9,0,1.1-0.1c0.4-0.1,0.6-0.4,0.6-0.9c0-0.2,0-0.4,0-0.6s-0.1-0.4-0.1-0.6l0.4-0.6
						c0.2,0.6,0.3,1,0.4,1.3c0.2,0.5,0.4,0.8,0.7,1.1c0.3,0.3,0.7,0.4,1.1,0.4h0.7c0.5,0,0.8-0.1,1.1-0.2c0.3-0.2,0.4-0.4,0.4-0.8
						c0-0.2,0-0.4,0-0.6s-0.1-0.4-0.1-0.6l0.4-0.6l0.2,0.9c0.2,0.7,0.4,1.2,0.6,1.5c0.2,0.2,0.5,0.4,0.9,0.4c0.2,0,0.3-0.1,0.4-0.2
						s0.2-0.2,0.2-0.4c0-0.4-0.1-0.7-0.4-1.2c0-0.1-0.2-0.3-0.5-0.6l0.6-1.1c0.3,0.4,0.4,0.8,0.5,1c0.1,0.4,0.2,1,0.2,1.8V27.5z
						 M97.9,19.5L97.2,21l-1.6-0.8l0.7-1.4L97.9,19.5z M98.2,16.9l-0.8,1.4l-1.6-0.8l0.7-1.4L98.2,16.9z M100.1,18.7l-0.8,1.4
						l-1.6-0.8l0.7-1.4L100.1,18.7z"/>
					<path class="st0" d="M107.1,29.3c0,0.3-0.2,0.6-0.5,0.9c-0.6,0.2-1.5,0.6-2.8,1.1c0-0.3,0.1-0.5,0.4-0.8
						C104.8,30.3,105.7,29.9,107.1,29.3z"/>
					<path class="st0" d="M110.4,24.5l-0.7,1.8c-1,0.4-2.1,0.7-3.4,0.9s-2.5,0.4-3.6,0.4h-2.4v-1.7h2.3c-0.2-0.3-0.3-0.7-0.5-1
						S102,24,102,23.7c0-0.8,0.3-1.4,1-1.9s1.5-0.8,2.5-0.8c0.8,0,1.5,0.2,2,0.6c0.2,0.2,0.6,0.6,1.1,1.2l-0.2,0.2
						c-0.4-0.1-0.9-0.2-1.2-0.3s-0.7-0.1-1.1-0.1c-0.9,0-1.6,0.1-2.1,0.3s-0.8,0.5-0.8,0.8c0,0.3,0.2,0.7,0.5,1.1s0.7,0.7,1.2,1
						c1.1-0.2,1.9-0.3,2.6-0.5S109.2,24.8,110.4,24.5z"/>
					<path d="M124.1,16.5c0,0.4-0.1,0.8-0.4,1.1s-0.7,0.5-1.1,0.5c-0.4,0-0.6-0.1-0.8-0.3s-0.3-0.5-0.3-0.8c0-0.5,0.1-0.9,0.4-1.3
						s0.6-0.6,1-0.6c0.4,0,0.6,0.1,0.9,0.4S124.1,16.1,124.1,16.5z M123.5,16.8c0-0.2-0.1-0.4-0.4-0.6s-0.5-0.3-0.6-0.3
						c-0.2,0-0.3,0.1-0.4,0.2s-0.2,0.3-0.2,0.5c0,0.2,0.1,0.4,0.3,0.5c0.2,0.1,0.4,0.1,0.7,0.1c0.2,0,0.3,0,0.4-0.1
						S123.5,16.9,123.5,16.8z"/>
					<path d="M127.6,27.5c0,1.5-0.4,2.5-1.3,3.2c-0.9,0.7-2.4,1.1-4.4,1.1c-1.3,0-2.3-0.2-3-0.7c-0.8-0.5-1.1-1.3-1.1-2.3
						c0-0.6,0.1-1.1,0.2-1.7s0.3-1.1,0.6-1.7c0.1-0.4,0.4-0.9,0.7-1.6l0.4,0.2c-0.5,0.9-0.8,1.7-0.9,2.2s-0.2,1-0.2,1.5
						c0,0.8,0.3,1.4,0.9,1.8s1.4,0.6,2.5,0.6c1.2,0,2.3-0.2,3.3-0.7c1.2-0.5,1.8-1.3,1.8-2.3c0-0.7-0.1-1.3-0.3-1.9
						c-0.2-0.5-0.4-1-0.7-1.3l0.8-2c0.3,0.5,0.6,1.1,0.7,1.6s0.2,1.3,0.2,2.2V27.5z M124,20l-0.7,1.4l-1.5-0.8l0.7-1.4L124,20z"/>
					<path d="M133.6,15.9c0,0.3-0.2,0.6-0.5,0.9c-0.6,0.2-1.5,0.6-2.8,1.1c0-0.3,0.1-0.6,0.4-0.8C131.3,16.9,132.3,16.5,133.6,15.9z
						"/>
					<path d="M137,24.5l-0.7,1.8c-1,0.4-2.1,0.7-3.4,0.9s-2.5,0.4-3.6,0.4h-2.4v-1.7h2.3c-0.2-0.3-0.3-0.7-0.5-1s-0.2-0.8-0.2-1.1
						c0-0.8,0.3-1.4,1-1.9s1.5-0.8,2.5-0.8c0.8,0,1.5,0.2,2,0.6c0.2,0.2,0.6,0.6,1.1,1.2l-0.2,0.2c-0.4-0.1-0.9-0.2-1.2-0.3
						s-0.7-0.1-1.1-0.1c-0.9,0-1.6,0.1-2.1,0.3s-0.8,0.5-0.8,0.8c0,0.3,0.2,0.7,0.5,1.1s0.7,0.7,1.2,1c1.1-0.2,1.9-0.3,2.6-0.5
						S135.8,24.8,137,24.5z"/>
					<path d="M155.8,22.6c0,0.2,0,0.4-0.1,0.6s-0.1,0.4-0.1,0.5c-0.2-0.3-0.5-0.5-0.8-0.7s-0.6-0.3-1-0.3c-0.6,0-1.2,0.3-1.8,1
						c-0.6,0.6-0.9,1.1-0.9,1.4c0,0.1,0.1,0.2,0.2,0.3s0.4,0.1,0.7,0.1h0.8c0.5,0,0.8,0,1,0s0.5,0,0.8,0.1s0.5,0.3,0.5,0.7
						c0,1.6-0.7,2.9-2.1,3.7c-1.3,0.8-3.1,1.2-5.3,1.2c-1.2,0-2-0.2-2.7-0.7c-0.7-0.5-1-1.2-1-2.2c0-0.7,0.1-1.4,0.3-2.1
						c0.2-0.6,0.4-1.2,0.7-1.8c0,0,0.2-0.4,0.6-1.2l0.4,0.2c-0.4,0.7-0.7,1.4-0.9,2s-0.3,1.2-0.3,1.7c0,0.8,0.3,1.4,0.8,1.8
						s1.3,0.6,2.4,0.6c0.8,0,1.7-0.2,2.7-0.5c0.9-0.3,1.7-0.6,2.4-1s1.1-0.6,1.1-0.8c0-0.1,0-0.2-0.1-0.2S154,27,153.8,27h-2.3
						c-0.3,0-0.5-0.1-0.7-0.3s-0.3-0.5-0.3-0.8c0-0.4,0.2-1,0.5-1.8c0.4-0.8,0.9-1.5,1.4-2c0.7-0.7,1.3-1,2-1c0.4,0,0.8,0.1,1,0.4
						S155.8,22.1,155.8,22.6z M149.9,33.1l-0.7,1.4l-1.6-0.8l0.7-1.4L149.9,33.1z M152.1,32.3l-0.8,1.4l-1.6-0.8l0.7-1.4L152.1,32.3
						z"/>
					<path d="M166.2,27.5c0,0.7-0.3,1.5-0.9,2.2c-0.5,0.7-1.2,1.3-2,1.7c-0.8,0.5-1.4,0.7-1.9,0.7c-0.4,0-0.9-0.1-1.5-0.2
						c-0.4-0.1-0.9-0.3-1.4-0.5c-0.5-0.2-0.9-0.4-1.4-0.5l0.2-0.4c0.4,0.1,0.9,0.2,1.3,0.3s0.9,0.1,1.3,0.1c0.8,0,1.7-0.3,2.6-0.8
						c0.8-0.5,1.5-1.1,2.1-1.9s0.9-1.4,0.9-2c0-0.5-0.1-1.1-0.4-1.6c-0.2-0.5-0.6-0.9-1-1.4l0.6-1.5c0.5,0.5,0.9,1,1.2,1.5
						c0.3,0.6,0.4,1.2,0.4,1.9V27.5z"/>
					<path d="M171.5,16.5c0,0.4-0.1,0.8-0.4,1.1s-0.7,0.5-1.1,0.5c-0.4,0-0.6-0.1-0.8-0.3s-0.3-0.5-0.3-0.8c0-0.5,0.1-0.9,0.4-1.3
						s0.6-0.6,1-0.6c0.4,0,0.6,0.1,0.9,0.4S171.5,16.1,171.5,16.5z M170.9,16.8c0-0.2-0.1-0.4-0.4-0.6s-0.5-0.3-0.6-0.3
						c-0.2,0-0.3,0.1-0.4,0.2s-0.2,0.3-0.2,0.5c0,0.2,0.1,0.4,0.3,0.5c0.2,0.1,0.4,0.1,0.7,0.1c0.2,0,0.3,0,0.4-0.1
						S170.9,16.9,170.9,16.8z"/>
					<path d="M174.1,27.5h-1c-0.4,0-0.9-0.1-1.5-0.3c-0.6-0.2-1.2-0.5-1.7-0.9c-0.4,0.5-0.8,0.8-1.2,1s-1,0.3-1.7,0.3h-1.5v-1.7h1.5
						c0.6,0,1.1-0.1,1.6-0.4c0.4-0.2,0.7-0.6,1-1c0.4-0.6,0.9-1.1,1.5-1.5c0.5-0.4,1-0.6,1.4-0.7c0.4,0.7,0.8,1.3,1.1,1.8
						c0.4,0.7,0.5,1.3,0.5,1.8V27.5z M173,25.6c-0.1-0.4-0.2-0.7-0.4-1.1c-0.1-0.3-0.3-0.6-0.6-0.9c-0.3,0.1-0.6,0.2-0.8,0.4
						c-0.1,0.1-0.3,0.4-0.5,0.7c0.2,0.3,0.6,0.5,1,0.7s0.8,0.3,1.2,0.4L173,25.6z"/>
					<path d="M179.7,16.7c0,0.1,0,0.2,0,0.3s0,0.2-0.1,0.4l-0.8-0.5c-0.3,0.4-0.5,0.6-0.7,0.7c-0.5,0.5-0.9,0.7-1.2,0.7h-0.7
						c0.3-0.2,0.7-0.4,1.2-0.8c0.4-0.3,0.7-0.6,0.9-0.9c-0.2-0.1-0.4-0.3-0.5-0.4c-0.1-0.2-0.2-0.4-0.2-0.6c0-0.4,0.1-0.8,0.4-1.1
						s0.5-0.5,0.8-0.5c0.2,0,0.3,0.1,0.5,0.3s0.2,0.4,0.2,0.7c0,0.1,0,0.3-0.1,0.4s-0.1,0.4-0.2,0.7c0.1,0.1,0.2,0.2,0.3,0.3
						C179.7,16.4,179.7,16.5,179.7,16.7z M179,15.5c0-0.2-0.1-0.3-0.2-0.5s-0.2-0.2-0.4-0.2c-0.1,0-0.1,0-0.2,0.1s-0.1,0.1-0.1,0.1
						c0,0.1,0.1,0.3,0.2,0.4l0.4,0.3C178.9,15.7,179,15.6,179,15.5z"/>
					<path d="M183.5,24.5l-0.7,1.8c-1,0.4-2.1,0.7-3.4,0.9s-2.5,0.4-3.6,0.4h-2.4v-1.7h2.3c-0.2-0.3-0.3-0.7-0.5-1s-0.2-0.8-0.2-1.1
						c0-0.8,0.3-1.4,1-1.9s1.5-0.8,2.5-0.8c0.8,0,1.5,0.2,2,0.6c0.2,0.2,0.6,0.6,1.1,1.2l-0.2,0.2c-0.4-0.1-0.9-0.2-1.2-0.3
						s-0.7-0.1-1.1-0.1c-0.9,0-1.6,0.1-2.1,0.3s-0.8,0.5-0.8,0.8c0,0.3,0.2,0.7,0.5,1.1s0.7,0.7,1.2,1c1.1-0.2,1.9-0.3,2.6-0.5
						S182.3,24.8,183.5,24.5z"/>
					<path d="M195.2,15c-0.2,0-0.5,0-0.7-0.1c-0.1,0-0.2-0.1-0.4-0.1c-0.4,0.3-0.6,0.5-0.8,0.6c-0.4,0.2-0.8,0.4-1.1,0.4
						c-0.1,0-0.2,0-0.3,0s-0.2-0.1-0.3-0.1c0.5-0.2,0.8-0.4,1-0.5c0.3-0.1,0.7-0.3,1-0.5c-0.1-0.1-0.3-0.3-0.3-0.4
						c-0.1-0.1-0.2-0.3-0.2-0.4c0-0.3,0.1-0.6,0.3-0.8s0.5-0.4,0.8-0.4c0.2,0,0.4,0.1,0.5,0.2s0.2,0.3,0.2,0.5c0,0.1,0,0.3-0.1,0.4
						c0,0-0.1,0.2-0.2,0.4c0.2,0.1,0.3,0.2,0.4,0.3C195.2,14.4,195.2,14.7,195.2,15z M195.2,16.1c0,0.5-0.1,0.9-0.3,1.2
						c-0.2,0.4-0.4,0.5-0.8,0.5c-0.1,0-0.2,0-0.3-0.1s-0.2-0.1-0.3-0.2c-0.1,0.2-0.3,0.4-0.4,0.5c-0.2,0.2-0.4,0.3-0.7,0.3
						c-0.3,0-0.5-0.1-0.6-0.3s-0.2-0.4-0.2-0.8c0-0.2,0-0.3,0.1-0.5c0-0.1,0.1-0.3,0.2-0.5l0.2-0.1c0,0.1,0,0.1,0,0.3s0,0.2,0,0.3
						c0,0.1,0,0.3,0.1,0.4s0.1,0.2,0.3,0.2c0.3,0,0.5-0.2,0.7-0.5c0.1-0.2,0.2-0.5,0.3-1l0.2-0.1c0.1,0.3,0.1,0.5,0.1,0.6
						c0.1,0.2,0.2,0.3,0.4,0.3c0.2,0,0.4-0.2,0.6-0.5c0.1-0.3,0.2-0.5,0.2-0.8l0.2-0.1c0,0.1,0.1,0.3,0.1,0.4S195.2,16,195.2,16.1z
						 M194.4,13.5c0-0.1,0-0.3-0.1-0.4s-0.2-0.2-0.4-0.2c0,0-0.1,0-0.1,0.1s0,0.1,0,0.2c0,0.1,0,0.3,0.1,0.3s0.2,0.2,0.4,0.3
						c0,0,0-0.1,0.1-0.2S194.4,13.6,194.4,13.5z"/>
					<path d="M200.3,26.3c0,1-0.2,1.9-0.7,2.5c-0.4,0.5-1.1,0.9-1.9,1.2c-0.7,0.2-1.6,0.3-2.7,0.3c-1.3,0-2.2-0.2-2.9-0.7
						c-0.8-0.5-1.1-1.3-1.1-2.3c0-0.6,0.1-1.1,0.2-1.7c0.1-0.5,0.3-1.1,0.6-1.7c0.2-0.4,0.5-1,0.8-1.6l0.3,0.2
						c-0.2,0.4-0.4,0.8-0.6,1.2c-0.2,0.5-0.4,0.9-0.5,1.2c-0.1,0.4-0.2,0.9-0.2,1.3c0,0.8,0.3,1.4,0.9,1.8s1.4,0.6,2.4,0.6
						c1.1,0,2.1-0.2,3.1-0.6c1-0.4,1.5-0.9,1.5-1.5c0-0.6-0.1-1.7-0.3-3.2c-0.2-1.2-0.3-2.5-0.6-3.9l-0.3-1.9l-0.4-0.2
						c0-0.9,0.2-1.7,0.5-2.4h0.2c0,0.2,0.1,0.4,0.1,0.6s0.2,0.2,0.3,0.3c0.2,0.1,0.4,0.2,0.7,0.3c0.2,0.1,0.3,0.2,0.5,0.2
						c0,0.5,0,0.8,0,1s-0.1,0.5-0.2,0.9l-0.6-0.2c0,0.1,0.1,0.8,0.3,2c0.2,1.4,0.4,2.5,0.4,3.3C200.2,24.6,200.3,25.6,200.3,26.3z"
						/>
					<path d="M204.4,29.3c0,0.3-0.2,0.6-0.5,0.9c-0.6,0.2-1.5,0.6-2.8,1.1c0-0.3,0.1-0.5,0.4-0.8C202,30.3,203,29.9,204.4,29.3z"/>
					<path d="M205.6,27.5h-5.9v-1.7h3.3c0.4,0,0.7,0,1,0s0.6-0.1,0.9-0.2c-1.1-0.2-1.8-0.3-2.2-0.5c-0.7-0.3-1.1-0.9-1.1-1.7
						c0-0.7,0.2-1.3,0.5-1.9c0.4-0.7,0.9-1,1.5-1c0.7,0,1.2,0.4,1.5,1.3c0.3,0.7,0.4,1.5,0.4,2.4V27.5z M202.9,17.2l-0.8,1.3
						l-1.2-0.8l0.8-1.3L202.9,17.2z M204.7,24.1c-0.1-0.5-0.3-0.9-0.4-1.2c-0.3-0.5-0.6-0.7-1-0.7c-0.2,0-0.3,0.1-0.5,0.2
						s-0.2,0.3-0.2,0.5c0,0.5,0.3,0.8,0.8,1C203.6,24,204,24.1,204.7,24.1z M205.1,16.7l-0.8,1.3l-1.2-0.8l0.8-1.3L205.1,16.7z"/>
					<path d="M210.6,15.9c0,0.3-0.2,0.6-0.5,0.9c-0.6,0.2-1.5,0.6-2.8,1.1c0-0.3,0.1-0.6,0.4-0.8C208.3,16.9,209.2,16.5,210.6,15.9z
						"/>
					<path d="M210.4,27.5h-5.6v-1.7h4.9c0-0.8-0.1-1.4-0.3-1.8c-0.1-0.3-0.4-0.7-0.9-1.2l0.8-1.6c0.5,0.6,0.8,1.1,0.9,1.4
						c0.2,0.5,0.3,1.3,0.3,2.5V27.5z M208.1,30.4l-0.7,1.4l-1.6-0.8l0.7-1.4L208.1,30.4z M210.4,29.5l-0.8,1.4L208,30l0.7-1.4
						L210.4,29.5z"/>
				</g>
			</g>
		</g>
	</g>
</g>
</svg>
