<?xml version="1.0" encoding="utf-8"?>
<!-- Generator: Adobe Illustrator 22.0.1, SVG Export Plug-In . SVG Version: 6.00 Build 0)  -->
<svg version="1.1" id="Layer_1" xmlns="http://www.w3.org/2000/svg" xmlns:xlink="http://www.w3.org/1999/xlink" x="0px" y="0px"
	 viewBox="0 0 276.8 46.1" style="enable-background:new 0 0 276.8 46.1;" xml:space="preserve">
<style type="text/css">
	.st0{fill:#BA0017;}
</style>
<g>
	<g>
		<g>
			<g>
				<g>
					<path class="st0" d="M48.7,34.6c0,0.3-0.2,0.6-0.5,0.9c-0.6,0.2-1.5,0.6-2.8,1.1c0-0.3,0.1-0.5,0.4-0.8
						C46.3,35.6,47.3,35.2,48.7,34.6z"/>
					<path class="st0" d="M53.5,28.6c0,1.5-0.4,2.5-1.3,3.2c-0.9,0.7-2.4,1.1-4.4,1.1c-1.3,0-2.3-0.2-3-0.7
						c-0.8-0.5-1.1-1.3-1.1-2.3c0-0.6,0.1-1.1,0.2-1.7s0.3-1.1,0.6-1.7c0.1-0.4,0.4-0.9,0.7-1.6l0.4,0.2c-0.5,0.9-0.8,1.7-0.9,2.2
						s-0.2,1-0.2,1.5c0,0.8,0.3,1.4,0.9,1.8s1.4,0.6,2.5,0.6c1.2,0,2.3-0.2,3.3-0.7c1.2-0.5,1.8-1.3,1.8-2.3c0-0.7-0.1-1.3-0.3-1.9
						c-0.2-0.5-0.4-1-0.7-1.3l0.8-2c0.3,0.5,0.6,1.1,0.7,1.6s0.2,1.3,0.2,2.2V28.6z M49.9,21.1l-0.7,1.4l-1.5-0.8l0.7-1.4L49.9,21.1
						z"/>
					<path class="st0" d="M58.3,17.6c0,0.4-0.1,0.8-0.4,1.1s-0.7,0.5-1.1,0.5c-0.4,0-0.6-0.1-0.8-0.3s-0.3-0.5-0.3-0.8
						c0-0.5,0.1-0.9,0.4-1.3s0.6-0.6,1-0.6c0.4,0,0.6,0.1,0.9,0.4S58.3,17.2,58.3,17.6z M57.7,17.8c0-0.2-0.1-0.4-0.4-0.6
						s-0.5-0.3-0.6-0.3c-0.2,0-0.3,0.1-0.4,0.2s-0.2,0.3-0.2,0.5c0,0.2,0.1,0.4,0.3,0.5c0.2,0.1,0.4,0.1,0.7,0.1
						c0.2,0,0.3,0,0.4-0.1S57.7,18,57.7,17.8z"/>
					<path class="st0" d="M58.4,28.6h-5.6v-1.7h4.9c0-0.8-0.1-1.4-0.3-1.8c-0.1-0.3-0.4-0.7-0.9-1.2l0.8-1.6
						c0.5,0.6,0.8,1.1,0.9,1.4c0.2,0.5,0.3,1.3,0.3,2.5V28.6z M56.1,31.4l-0.7,1.4L53.8,32l0.7-1.4L56.1,31.4z M58.4,30.5l-0.8,1.4
						L56,31.1l0.7-1.4L58.4,30.5z"/>
					<path class="st0" d="M63.5,14.1c0,0.3-0.2,0.6-0.5,0.9c-0.6,0.2-1.5,0.6-2.8,1.1c0-0.3,0.1-0.6,0.4-0.8
						C61.1,15,62.1,14.6,63.5,14.1z"/>
					<path class="st0" d="M63.3,28.6h-5.6v-1.7h4.9c0-0.8-0.1-1.4-0.3-1.8c-0.1-0.3-0.4-0.7-0.9-1.2l0.8-1.6
						c0.5,0.6,0.8,1.1,0.9,1.4c0.2,0.5,0.3,1.3,0.3,2.5V28.6z M62.2,19.7c0,0.2-0.1,0.3-0.3,0.4c-0.1,0.1-0.3,0.2-0.6,0.3L59.5,21
						c0-0.3,0.3-0.6,1-0.8c-0.2-0.1-0.4-0.2-0.5-0.3c-0.1-0.1-0.2-0.3-0.2-0.4c0-0.2,0.2-0.5,0.5-0.8c0.4-0.4,0.7-0.6,1-0.6
						c0.1,0,0.2,0,0.3,0.1s0.1,0.2,0.1,0.3c0,0.1,0,0.2-0.1,0.3s-0.1,0.2-0.2,0.3c-0.2-0.2-0.4-0.3-0.7-0.3c-0.1,0-0.3,0-0.4,0.1
						s-0.2,0.1-0.2,0.2c0,0.1,0.2,0.2,0.5,0.4s0.6,0.3,0.8,0.3c0.1,0,0.2,0,0.3,0S62,19.8,62.2,19.7z"/>
					<path class="st0" d="M69.9,30.3c0,0.3-0.2,0.6-0.5,0.9c-0.6,0.2-1.5,0.6-2.8,1.1c0-0.3,0.1-0.5,0.4-0.8
						C67.5,31.3,68.5,30.9,69.9,30.3z"/>
					<path class="st0" d="M73.9,28.6h-0.8c-0.4,0-0.8-0.1-1.1-0.2s-0.6-0.3-0.8-0.5c-0.3,0.2-0.6,0.4-0.8,0.5
						c-0.3,0.1-0.8,0.2-1.4,0.2h-0.6c-0.3,0-0.7-0.1-1-0.2c-0.2-0.1-0.5-0.2-0.8-0.4c-0.3,0.2-0.6,0.4-0.9,0.5s-0.7,0.1-1.3,0.1
						h-1.9v-1.7h1.9c0.5,0,0.9,0,1.1-0.1c0.4-0.1,0.6-0.4,0.6-0.9c0-0.2,0-0.4,0-0.6s-0.1-0.4-0.1-0.6l0.4-0.6
						c0.2,0.6,0.3,1,0.4,1.3c0.2,0.5,0.4,0.8,0.7,1.1c0.3,0.3,0.7,0.4,1.1,0.4h0.7c0.5,0,0.8-0.1,1.1-0.2c0.3-0.2,0.4-0.4,0.4-0.8
						c0-0.2,0-0.4,0-0.6s-0.1-0.4-0.1-0.6l0.4-0.6l0.2,0.9c0.2,0.7,0.4,1.2,0.6,1.5c0.2,0.2,0.5,0.4,0.9,0.4c0.2,0,0.3-0.1,0.4-0.2
						s0.2-0.2,0.2-0.4c0-0.4-0.1-0.7-0.4-1.2c0-0.1-0.2-0.3-0.5-0.6l0.6-1.1c0.3,0.4,0.4,0.8,0.5,1c0.1,0.4,0.2,1,0.2,1.8V28.6z
						 M70.8,20.6L70.1,22l-1.6-0.8l0.7-1.4L70.8,20.6z M71.1,18l-0.8,1.4l-1.6-0.8l0.7-1.4L71.1,18z M73,19.7l-0.8,1.4l-1.6-0.8
						l0.7-1.4L73,19.7z"/>
					<path class="st0" d="M78.5,28.6h-1.4c-0.4,0-0.8-0.2-1.1-0.5c-0.2-0.3-0.4-0.8-0.5-1.4s-0.2-1.4-0.3-2.3c0-0.7-0.1-1.5-0.1-2.3
						S75,20.7,75,20.3s-0.2-0.7-0.3-1c-0.1-0.3-0.3-0.6-0.6-0.8l1.2-1.9c0.3,0.8,0.4,1.7,0.5,2.8c0.1,0.7,0.1,2.3,0.2,4.8
						c0.1,1.2,0.3,1.9,0.5,2.2c0.2,0.3,0.4,0.4,0.6,0.4h1.4V28.6z"/>
					<path class="st0" d="M83.4,28.6h-5.6v-1.7h4.9c0-0.8-0.1-1.4-0.3-1.8c-0.1-0.3-0.4-0.7-0.9-1.2l0.8-1.6
						c0.5,0.6,0.8,1.1,0.9,1.4c0.2,0.5,0.3,1.3,0.3,2.5V28.6z M82.6,19.5L81.9,21l-1.6-0.8l0.7-1.4L82.6,19.5z"/>
					<path class="st0" d="M94.6,34.6c0,0.3-0.2,0.6-0.5,0.9c-0.6,0.2-1.5,0.6-2.8,1.1c0-0.3,0.1-0.5,0.4-0.8
						C92.2,35.6,93.2,35.2,94.6,34.6z"/>
					<path class="st0" d="M99.5,28.6c0,1.5-0.4,2.5-1.3,3.2c-0.9,0.7-2.4,1.1-4.4,1.1c-1.3,0-2.3-0.2-3-0.7
						c-0.8-0.5-1.1-1.3-1.1-2.3c0-0.6,0.1-1.1,0.2-1.7s0.3-1.1,0.6-1.7c0.1-0.4,0.4-0.9,0.7-1.6l0.4,0.2c-0.5,0.9-0.8,1.7-0.9,2.2
						s-0.2,1-0.2,1.5c0,0.8,0.3,1.4,0.9,1.8s1.4,0.6,2.5,0.6c1.2,0,2.3-0.2,3.3-0.7c1.2-0.5,1.8-1.3,1.8-2.3c0-0.7-0.1-1.3-0.3-1.9
						c-0.2-0.5-0.4-1-0.7-1.3l0.8-2c0.3,0.5,0.6,1.1,0.7,1.6s0.2,1.3,0.2,2.2V28.6z M95.8,21.1l-0.7,1.4l-1.5-0.8l0.7-1.4L95.8,21.1
						z"/>
					<path class="st0" d="M104.3,17.6c0,0.4-0.1,0.8-0.4,1.1s-0.7,0.5-1.1,0.5c-0.4,0-0.6-0.1-0.8-0.3s-0.3-0.5-0.3-0.8
						c0-0.5,0.1-0.9,0.4-1.3s0.6-0.6,1-0.6c0.4,0,0.6,0.1,0.9,0.4S104.3,17.2,104.3,17.6z M103.7,17.8c0-0.2-0.1-0.4-0.4-0.6
						s-0.5-0.3-0.6-0.3c-0.2,0-0.3,0.1-0.4,0.2s-0.2,0.3-0.2,0.5c0,0.2,0.1,0.4,0.3,0.5c0.2,0.1,0.4,0.1,0.7,0.1
						c0.2,0,0.3,0,0.4-0.1S103.7,18,103.7,17.8z"/>
					<path class="st0" d="M104.3,28.6h-5.6v-1.7h4.9c0-0.8-0.1-1.4-0.3-1.8c-0.1-0.3-0.4-0.7-0.9-1.2l0.8-1.6
						c0.5,0.6,0.8,1.1,0.9,1.4c0.2,0.5,0.3,1.3,0.3,2.5V28.6z M102,31.4l-0.7,1.4L99.7,32l0.7-1.4L102,31.4z M104.3,30.5l-0.8,1.4
						l-1.6-0.8l0.7-1.4L104.3,30.5z"/>
					<path class="st0" d="M109.4,17c0,0.3-0.2,0.6-0.5,0.9c-0.6,0.2-1.5,0.6-2.8,1.1c0-0.3,0.1-0.6,0.4-0.8
						C107,18,108,17.6,109.4,17z"/>
					<path class="st0" d="M109.2,28.6h-5.6v-1.7h4.9c0-0.8-0.1-1.4-0.3-1.8c-0.1-0.3-0.4-0.7-0.9-1.2l0.8-1.6
						c0.5,0.6,0.8,1.1,0.9,1.4c0.2,0.5,0.3,1.3,0.3,2.5V28.6z M108.2,31l-0.8,1.4l-1.6-0.8l0.7-1.4L108.2,31z"/>
					<path class="st0" d="M114.1,28.6h-5.6v-1.7h4.9c0-0.8-0.1-1.4-0.3-1.8c-0.1-0.3-0.4-0.7-0.9-1.2l0.8-1.6
						c0.5,0.6,0.8,1.1,0.9,1.4c0.2,0.5,0.3,1.3,0.3,2.5V28.6z M111.8,31.4l-0.7,1.4l-1.6-0.8l0.7-1.4L111.8,31.4z M114.1,30.5
						l-0.8,1.4l-1.6-0.8l0.7-1.4L114.1,30.5z"/>
					<path class="st0" d="M120.9,28.6h-4.4c-0.4,0-0.7-0.1-1-0.3s-0.4-0.5-0.4-0.8c0-0.2,0-0.5,0-0.7s0.1-0.4,0.1-0.7h0.2
						c0.1,0.3,0.2,0.5,0.4,0.6c0.2,0.1,0.4,0.1,0.6,0.1h3.8c0-1.2-0.2-2.1-0.5-2.8c-0.4-0.9-1.1-1.5-2-1.8l0.1-1.9
						c1.1,0.6,1.9,1.4,2.4,2.6c0.4,1,0.6,2.3,0.6,3.8V28.6z"/>
					<path class="st0" d="M124.8,10.6c0,0.3-0.2,0.6-0.5,0.9c-0.6,0.2-1.5,0.6-2.8,1.1c0-0.3,0.1-0.6,0.4-0.8
						C122.4,11.6,123.4,11.2,124.8,10.6z"/>
					<path class="st0" d="M131.4,31.7c0,0.3-0.2,0.6-0.5,0.9c-0.6,0.2-1.5,0.6-2.8,1.1c0-0.3,0.1-0.5,0.4-0.8
						C129,32.7,130,32.3,131.4,31.7z"/>
					<path class="st0" d="M124,15.4c0,0.2-0.1,0.3-0.3,0.4c-0.1,0.1-0.3,0.2-0.6,0.3l-1.8,0.6c0-0.3,0.3-0.6,1-0.8
						c-0.2-0.1-0.4-0.2-0.5-0.3c-0.1-0.1-0.2-0.3-0.2-0.4c0-0.2,0.2-0.5,0.5-0.8c0.4-0.4,0.7-0.6,1-0.6c0.1,0,0.2,0,0.3,0.1
						s0.1,0.2,0.1,0.3c0,0.1,0,0.2-0.1,0.3s-0.1,0.2-0.2,0.3c-0.2-0.2-0.4-0.3-0.7-0.3c-0.1,0-0.3,0-0.4,0.1s-0.2,0.1-0.2,0.2
						c0,0.1,0.2,0.2,0.5,0.4s0.6,0.3,0.8,0.3c0.1,0,0.2,0,0.3,0S123.8,15.5,124,15.4z M131,18.3l-0.5,1.8l-0.6-0.3l0,0.9
						c0,0.9-0.1,1.7-0.3,2.5c-0.2,0.9-0.6,1.8-1.1,2.7c0.2,0.5,0.4,0.8,0.5,1.1c0.1,0.4,0.2,0.8,0.2,1.3c0,0.2,0,0.4,0,0.6
						s0,0.4-0.1,0.6c-0.7,0.2-1.4,0.3-2.2,0.4s-1.5,0.1-2.3,0.1c0-0.1,0-0.2,0-0.3c0-0.5,0.1-1,0.2-1.4c1.1-0.6,2-1.4,2.8-2.3
						c-0.5-0.9-0.8-1.5-1-1.8c-0.2-0.4-0.6-1-1.2-1.8c-0.2-0.3-0.4-0.5-0.5-0.7c-0.2-0.2-0.4-0.3-0.5-0.3c-0.1,0-0.2,0-0.4,0.1
						c-0.1,0.1-0.2,0.1-0.3,0.1c-0.1,0-0.4-0.1-0.7-0.4c-0.3-0.3-0.5-0.6-0.8-0.9c-0.2-0.3-0.4-0.5-0.5-0.7s-0.1-0.4-0.1-0.7
						c0-0.4,0-0.7,0.1-0.9c0.1-0.3,0.2-0.5,0.4-0.5c0.3,0,0.7,0.3,1.2,0.8c0.4,0.5,1,1.1,1.5,1.8c0.5,0.7,1,1.4,1.4,2.1l1,1.6
						c0.3,0.5,0.6,1,0.9,1.6c0.4-0.9,0.7-1.8,0.9-2.7c0.1-0.8,0.2-1.8,0.2-3l-0.6-0.3c0-0.4,0-0.8,0.1-1.2s0.2-0.7,0.3-1l0.2,0.1
						c0,0.3,0.2,0.5,0.5,0.7c0.2,0.1,0.4,0.2,0.6,0.3S130.9,18.2,131,18.3z M128.5,27.8c0-0.1,0-0.3-0.1-0.4s-0.2-0.4-0.4-0.8
						c-0.2,0.3-0.5,0.5-0.9,0.9s-0.8,0.6-1.1,0.8c0.8,0,1.3,0,1.6-0.1C128.2,28.1,128.5,28,128.5,27.8z"/>
					<path d="M142.9,34.6c0,0.3-0.2,0.6-0.5,0.9c-0.6,0.2-1.5,0.6-2.8,1.1c0-0.3,0.1-0.5,0.4-0.8C140.6,35.6,141.5,35.2,142.9,34.6z
						"/>
					<path d="M147.8,28.6c0,1.5-0.4,2.5-1.3,3.2c-0.9,0.7-2.4,1.1-4.4,1.1c-1.3,0-2.3-0.2-3-0.7c-0.8-0.5-1.1-1.3-1.1-2.3
						c0-0.6,0.1-1.1,0.2-1.7s0.3-1.1,0.6-1.7c0.1-0.4,0.4-0.9,0.7-1.6l0.4,0.2c-0.5,0.9-0.8,1.7-0.9,2.2s-0.2,1-0.2,1.5
						c0,0.8,0.3,1.4,0.9,1.8s1.4,0.6,2.5,0.6c1.2,0,2.3-0.2,3.3-0.7c1.2-0.5,1.8-1.3,1.8-2.3c0-0.7-0.1-1.3-0.3-1.9
						c-0.2-0.5-0.4-1-0.7-1.3l0.8-2c0.3,0.5,0.6,1.1,0.7,1.6s0.2,1.3,0.2,2.2V28.6z M144.2,21.1l-0.7,1.4l-1.5-0.8l0.7-1.4
						L144.2,21.1z"/>
					<path d="M152.4,28.6H151c-0.4,0-0.8-0.2-1.1-0.5c-0.2-0.3-0.4-0.8-0.5-1.4s-0.2-1.4-0.3-2.3c0-0.7-0.1-1.5-0.1-2.3
						s-0.1-1.4-0.2-1.8s-0.2-0.7-0.3-1c-0.1-0.3-0.3-0.6-0.6-0.8l1.2-1.9c0.3,0.8,0.4,1.7,0.5,2.8c0.1,0.7,0.1,2.3,0.2,4.8
						c0.1,1.2,0.3,1.9,0.5,2.2c0.2,0.3,0.4,0.4,0.6,0.4h1.4V28.6z"/>
					<path d="M157.3,28.6h-5.6v-1.7h4.9c0-0.8-0.1-1.4-0.3-1.8c-0.1-0.3-0.4-0.7-0.9-1.2l0.8-1.6c0.5,0.6,0.8,1.1,0.9,1.4
						c0.2,0.5,0.3,1.3,0.3,2.5V28.6z M155,19.8l-0.7,1.4l-1.6-0.8l0.7-1.4L155,19.8z M157.2,18.9l-0.8,1.4l-1.6-0.8l0.7-1.4
						L157.2,18.9z"/>
					<path d="M163.3,17.1c0,0.5-0.1,0.9-0.3,1.2c-0.2,0.4-0.4,0.5-0.8,0.5c-0.1,0-0.2,0-0.3-0.1s-0.2-0.1-0.3-0.2
						c-0.1,0.2-0.3,0.4-0.4,0.5c-0.2,0.2-0.4,0.3-0.7,0.3c-0.3,0-0.5-0.1-0.6-0.3s-0.2-0.4-0.2-0.8c0-0.2,0-0.3,0.1-0.5
						c0-0.1,0.1-0.3,0.2-0.5l0.2-0.1c0,0.1,0,0.1,0,0.3s0,0.2,0,0.3c0,0.1,0,0.3,0.1,0.4s0.1,0.2,0.3,0.2c0.3,0,0.5-0.2,0.7-0.5
						c0.1-0.2,0.2-0.5,0.3-1l0.2-0.1c0.1,0.3,0.1,0.5,0.1,0.6c0.1,0.2,0.2,0.3,0.4,0.3c0.2,0,0.4-0.2,0.6-0.5
						c0.1-0.3,0.2-0.5,0.2-0.8l0.2-0.1c0,0.1,0.1,0.3,0.1,0.4S163.3,17,163.3,17.1z M163.1,14.8c0,0.3-0.2,0.6-0.5,0.9
						c-0.6,0.2-1.5,0.6-2.8,1.1c0-0.3,0.1-0.5,0.4-0.8C160.8,15.7,161.8,15.3,163.1,14.8z"/>
					<path d="M174.2,28.6h-11.7c-0.4,0-0.7-0.1-1-0.2c-0.2-0.1-0.5-0.2-0.8-0.4c-0.3,0.2-0.5,0.4-0.8,0.5s-0.7,0.1-1.3,0.1h-1.9
						v-1.7h1.9c0.5,0,0.9,0,1.1-0.1c0.4-0.1,0.6-0.4,0.6-0.9c0-0.2,0-0.4,0-0.6s-0.1-0.4-0.1-0.6l0.4-0.6c0.2,0.9,0.5,1.6,0.9,2.1
						c0.4,0.5,0.9,0.8,1.5,0.8c0.5,0,1.2-0.1,1.9-0.4c0.8-0.3,1.5-0.6,2.1-1c0.9-0.7,1.5-1.1,1.7-1.2c0.5-0.3,1-0.6,1.4-0.7
						c0.5-0.2,1-0.2,1.6-0.2c0.9,0,1.6,0.3,2,0.8c0.4,0.5,0.6,1.1,0.6,2V28.6z M172.6,26.1c0-0.3-0.2-0.6-0.6-0.7s-0.9-0.3-1.4-0.3
						c-0.7,0-1.4,0.2-2.4,0.7c-0.7,0.4-1.5,0.7-2.2,1.1h4.5c0.7,0,1.2-0.1,1.6-0.2S172.6,26.4,172.6,26.1z"/>
					<path d="M178.3,30.3c0,0.3-0.2,0.6-0.5,0.9c-0.6,0.2-1.5,0.6-2.8,1.1c0-0.3,0.1-0.5,0.4-0.8C175.9,31.3,176.9,30.9,178.3,30.3z
						"/>
					<path d="M179.6,28.6h-6v-1.7h5.2c0-0.6-0.1-1.1-0.2-1.6c-0.3,0.1-0.6,0.2-0.8,0.2c-0.3,0.1-0.6,0.1-0.8,0.1
						c-0.5,0-0.9-0.1-1.2-0.4c-0.3-0.3-0.5-0.7-0.5-1.2c0-0.9,0.2-1.7,0.5-2.4c0.4-0.8,0.8-1.1,1.4-1.1c0.8,0,1.4,0.6,1.8,1.9
						c0.4,1,0.5,2.2,0.5,3.6V28.6z M177,18.3l-0.7,1.4l-1.6-0.8l0.7-1.4L177,18.3z M178,23.5c-0.1-0.2-0.2-0.5-0.4-0.7
						c-0.3-0.3-0.5-0.5-0.8-0.5c-0.2,0-0.3,0.1-0.4,0.2s-0.2,0.3-0.2,0.5c0,0.5,0.3,0.8,0.9,0.8c0.1,0,0.3,0,0.5-0.1
						S177.8,23.6,178,23.5z M179.2,17.5l-0.8,1.4l-1.6-0.8l0.7-1.4L179.2,17.5z"/>
					<path d="M191.9,15.6c0,0.4-0.1,0.8-0.4,1.1s-0.7,0.5-1.1,0.5c-0.4,0-0.6-0.1-0.8-0.3s-0.3-0.5-0.3-0.8c0-0.5,0.1-0.9,0.4-1.3
						s0.6-0.6,1-0.6c0.4,0,0.6,0.1,0.9,0.4S191.9,15.2,191.9,15.6z M191.3,15.9c0-0.2-0.1-0.4-0.4-0.6s-0.5-0.3-0.6-0.3
						c-0.2,0-0.3,0.1-0.4,0.2s-0.2,0.3-0.2,0.5c0,0.2,0.1,0.4,0.3,0.5c0.2,0.1,0.4,0.1,0.7,0.1c0.2,0,0.3,0,0.4-0.1
						S191.3,16,191.3,15.9z"/>
					<path d="M199.4,28.6h-9.3c-1.3,0-2.2-0.2-3-0.7c-0.9-0.5-1.4-1.4-1.4-2.6c0-0.6,0.1-1.2,0.4-1.9c0.1-0.2,0.3-0.7,0.7-1.3
						l0.3,0.2c-0.1,0.3-0.3,0.6-0.4,0.9c-0.2,0.5-0.3,0.9-0.3,1.2c0,0.8,0.4,1.4,1.2,1.8c0.7,0.4,1.6,0.6,2.7,0.6h8.3v-0.3
						c0-0.7-0.1-1.3-0.3-1.8s-0.5-0.9-0.9-1.2l0.8-1.6c0.3,0.4,0.5,0.6,0.5,0.7c0.4,0.7,0.7,1.8,0.7,3.2V28.6z M192.5,20.6l-0.7,1.4
						l-1.6-0.8l0.7-1.4L192.5,20.6z M194.8,19.7l-0.8,1.4l-1.6-0.8l0.7-1.4L194.8,19.7z"/>
					<path d="M205.9,17c0,0.3-0.2,0.6-0.5,0.9c-0.6,0.2-1.5,0.6-2.8,1.1c0-0.3,0.1-0.6,0.4-0.8C203.5,18,204.5,17.6,205.9,17z"/>
					<path d="M209.2,28.6c0,0.7-0.3,1.5-0.9,2.2c-0.5,0.7-1.2,1.3-2,1.7c-0.8,0.5-1.4,0.7-1.9,0.7c-0.4,0-0.9-0.1-1.5-0.2
						c-0.4-0.1-0.9-0.3-1.4-0.5c-0.5-0.2-0.9-0.4-1.4-0.5l0.2-0.4c0.4,0.1,0.9,0.2,1.3,0.3s0.9,0.1,1.3,0.1c0.8,0,1.7-0.3,2.6-0.8
						c0.8-0.5,1.5-1.1,2.1-1.9s0.9-1.4,0.9-2c0-0.5-0.1-1.1-0.4-1.6c-0.2-0.5-0.6-0.9-1-1.4l0.6-1.5c0.5,0.5,0.9,1,1.2,1.5
						c0.3,0.6,0.4,1.2,0.4,1.9V28.6z"/>
					<path d="M215.2,16c0,0.3-0.2,0.6-0.5,0.9c-0.6,0.2-1.5,0.6-2.8,1.1c0-0.3,0.1-0.6,0.4-0.8C212.8,17,213.8,16.6,215.2,16z"/>
					<path d="M215.9,28.6h-4.4c-0.4,0-0.7-0.1-1-0.3s-0.4-0.5-0.4-0.8c0-0.2,0-0.5,0-0.7s0.1-0.4,0.1-0.7h0.2
						c0.1,0.3,0.2,0.5,0.4,0.6c0.2,0.1,0.4,0.1,0.6,0.1h3.8c0-1.2-0.2-2.1-0.5-2.8c-0.4-0.9-1.1-1.5-2-1.8l0.1-1.9
						c1.1,0.6,1.9,1.4,2.4,2.6c0.4,1,0.6,2.3,0.6,3.8V28.6z"/>
					<path d="M221.9,17c0,0.3-0.2,0.6-0.5,0.9c-0.6,0.2-1.5,0.6-2.8,1.1c0-0.3,0.1-0.6,0.4-0.8C219.6,18,220.5,17.6,221.9,17z"/>
					<path d="M232.8,28.6h-11.7c-0.4,0-0.7-0.1-1-0.2c-0.2-0.1-0.5-0.2-0.8-0.4c-0.3,0.2-0.5,0.4-0.8,0.5s-0.7,0.1-1.3,0.1h-1.9
						v-1.7h1.9c0.5,0,0.9,0,1.1-0.1c0.4-0.1,0.6-0.4,0.6-0.9c0-0.2,0-0.4,0-0.6s-0.1-0.4-0.1-0.6l0.4-0.6c0.2,0.9,0.5,1.6,0.9,2.1
						c0.4,0.5,0.9,0.8,1.5,0.8c0.5,0,1.2-0.1,1.9-0.4c0.8-0.3,1.5-0.6,2.1-1c0.9-0.7,1.5-1.1,1.7-1.2c0.5-0.3,1-0.6,1.4-0.7
						c0.5-0.2,1-0.2,1.6-0.2c0.9,0,1.6,0.3,2,0.8c0.4,0.5,0.6,1.1,0.6,2V28.6z M231.2,26.1c0-0.3-0.2-0.6-0.6-0.7s-0.9-0.3-1.4-0.3
						c-0.7,0-1.4,0.2-2.4,0.7c-0.7,0.4-1.5,0.7-2.2,1.1h4.5c0.7,0,1.2-0.1,1.6-0.2S231.2,26.4,231.2,26.1z"/>
				</g>
			</g>
		</g>
	</g>
</g>
</svg>
