<?xml version="1.0" encoding="utf-8"?>
<!-- Generator: Adobe Illustrator 22.0.1, SVG Export Plug-In . SVG Version: 6.00 Build 0)  -->
<svg version="1.1" id="Layer_1" xmlns="http://www.w3.org/2000/svg" xmlns:xlink="http://www.w3.org/1999/xlink" x="0px" y="0px"
	 viewBox="0 0 276.8 46.1" style="enable-background:new 0 0 276.8 46.1;" xml:space="preserve">
<style type="text/css">
	.st0{fill:#BA0017;}
</style>
<g>
	<g>
		<g>
			<g>
				<g>
					<g>
						<path d="M45.6,33c0,0.3-0.2,0.6-0.5,0.9c-0.6,0.2-1.5,0.6-2.8,1.1c0-0.3,0.1-0.5,0.4-0.8C43.3,33.9,44.2,33.5,45.6,33z"/>
						<path d="M54.3,31.2h-9.3c-1.3,0-2.2-0.2-3-0.7C41,30,40.6,29.1,40.6,28c0-0.6,0.1-1.2,0.4-1.9c0.1-0.2,0.3-0.7,0.7-1.3L42,25
							c-0.1,0.3-0.3,0.6-0.4,0.9c-0.2,0.5-0.3,0.9-0.3,1.2c0,0.8,0.4,1.4,1.2,1.8c0.7,0.4,1.6,0.6,2.7,0.6h8.3v-0.3
							c0-0.7-0.1-1.3-0.3-1.8s-0.5-0.9-0.9-1.2l0.8-1.6c0.3,0.4,0.5,0.6,0.5,0.7c0.4,0.7,0.7,1.8,0.7,3.2V31.2z M48.7,33.6L47.9,35
							l-1.6-0.8l0.7-1.4L48.7,33.6z"/>
						<path d="M66.3,31.2h-0.6c-0.5,0-1-0.3-1.3-0.9c-0.4-0.7-0.6-1.8-0.6-3.3c0-0.1,0-0.2,0-0.4s0-0.3,0-0.3
							c-0.6,1.7-1.2,2.9-1.7,3.6c-0.6,0.8-1.4,1.3-2.5,1.5c-0.9,0.2-2.4,0.3-4.6,0.3v-0.3c1.8-0.5,3.1-1,3.9-1.4
							c1.4-0.6,2.4-1.3,3.2-2.1c0.9-1,1.3-2.1,1.3-3.4c0-0.6,0-1.2-0.1-1.8S63,21.6,62.9,21l0.3-0.8c0.1-0.3,0.3-0.6,0.4-0.8
							c0.2,0.9,0.3,2,0.5,3c0.1,0.7,0.2,1.6,0.3,2.4c0.1,1.1,0.2,1.9,0.3,2.5c0.1,0.8,0.3,1.4,0.5,1.8c0.2,0.2,0.3,0.4,0.5,0.4h0.6
							V31.2z M62.2,26.1c0,0.1,0,0.2,0,0.3s0,0.2-0.1,0.3c-0.4-0.8-0.9-1.7-1.6-2.5c-0.8-1-1.4-1.4-1.9-1.4c-0.1,0-0.2,0.1-0.3,0.3
							s-0.2,0.3-0.3,0.3c-0.2,0-0.5-0.1-0.8-0.3c-0.5-0.3-0.9-0.6-1.1-1c-0.4-0.5-0.6-1-0.6-1.6c0-0.4,0.1-0.6,0.4-0.6
							c0.5,0,1.2,0.3,2.2,0.9c1.1,0.7,2,1.4,2.8,2.3C61.8,24,62.2,25.1,62.2,26.1z"/>
						<path d="M72.3,13.8c-0.2,0-0.5,0-0.7-0.1c-0.1,0-0.2-0.1-0.4-0.1c-0.4,0.3-0.6,0.5-0.8,0.6c-0.4,0.2-0.8,0.4-1.1,0.4
							c-0.1,0-0.2,0-0.3,0s-0.2-0.1-0.3-0.1c0.5-0.2,0.8-0.4,1-0.5c0.3-0.1,0.7-0.3,1-0.5c-0.1-0.1-0.3-0.3-0.3-0.4
							c-0.1-0.1-0.2-0.3-0.2-0.4c0-0.3,0.1-0.6,0.3-0.8s0.5-0.4,0.8-0.4c0.2,0,0.4,0.1,0.5,0.2s0.2,0.3,0.2,0.5c0,0.1,0,0.3-0.1,0.4
							c0,0-0.1,0.2-0.2,0.4c0.2,0.1,0.3,0.2,0.4,0.3C72.3,13.2,72.3,13.5,72.3,13.8z M72.3,14.9c0,0.5-0.1,0.9-0.3,1.2
							c-0.2,0.4-0.4,0.5-0.8,0.5c-0.1,0-0.2,0-0.3-0.1s-0.2-0.1-0.3-0.2c-0.1,0.2-0.3,0.4-0.4,0.5c-0.2,0.2-0.4,0.3-0.7,0.3
							c-0.3,0-0.5-0.1-0.6-0.3s-0.2-0.4-0.2-0.8c0-0.2,0-0.3,0.1-0.5c0-0.1,0.1-0.3,0.2-0.5l0.2-0.1c0,0.1,0,0.1,0,0.3s0,0.2,0,0.3
							c0,0.1,0,0.3,0.1,0.4c0.1,0.1,0.1,0.2,0.3,0.2c0.3,0,0.5-0.2,0.7-0.5c0.1-0.2,0.2-0.5,0.3-1l0.2-0.1c0.1,0.3,0.1,0.5,0.1,0.6
							c0.1,0.2,0.2,0.3,0.4,0.3c0.2,0,0.4-0.2,0.6-0.5c0.1-0.3,0.2-0.5,0.2-0.8l0.2-0.1c0,0.1,0.1,0.3,0.1,0.4S72.3,14.8,72.3,14.9z
							 M71.5,12.3c0-0.1,0-0.3-0.1-0.4s-0.2-0.2-0.4-0.2c0,0-0.1,0-0.1,0.1s0,0.1,0,0.2c0,0.1,0,0.3,0.1,0.3s0.2,0.2,0.4,0.3
							c0,0,0-0.1,0.1-0.2S71.5,12.4,71.5,12.3z"/>
						<path d="M77.9,31.2H65.6v-1.7l1.5,0c0.4,0,0.9-0.1,1.2-0.2c0.4-0.1,0.9-0.4,1.5-0.7c0.1-0.3,0.2-0.6,0.3-0.9s0.1-0.6,0.1-1
							c0-0.7-0.1-1.5-0.2-2.3c-0.1-0.6-0.2-1.3-0.4-2.2c-0.1-0.4-0.2-1-0.4-1.6l-0.6-0.3c0-0.4,0.1-0.8,0.2-1.1s0.2-0.7,0.4-1.1
							c0.1,0.3,0.3,0.5,0.7,0.7c0.3,0.1,0.7,0.2,1.2,0.3c-0.1,0.7-0.1,1.1-0.1,1.3s-0.1,0.4-0.2,0.7c0,0-0.2,0-0.4-0.1l-0.1,0
							c0.2,0.8,0.4,1.5,0.6,2.3s0.2,1.5,0.2,2c0,0.5,0,1-0.1,1.5c0,0.2-0.1,0.5-0.2,0.9c1.1-0.7,1.9-1.1,2.2-1.2
							c1-0.5,1.8-0.7,2.5-0.7c0.9,0,1.5,0.3,2,0.8c0.4,0.5,0.6,1.1,0.6,2V31.2z M76.4,28.8c0-0.3-0.2-0.6-0.5-0.8s-0.8-0.3-1.5-0.3
							c-0.5,0-1,0.1-1.6,0.3c-0.5,0.2-1,0.4-1.6,0.7c-0.4,0.2-0.9,0.5-1.3,0.8h4.2C75.6,29.5,76.4,29.3,76.4,28.8z"/>
						<path d="M82,31.2h-4.8v-1.7h3.8l-1.2-8.3L79.4,21c0-0.4,0-0.9,0.1-1.3s0.2-0.8,0.4-1.1l0.1,0.1c0,0.4,0.2,0.7,0.6,0.8
							c0.3,0.1,0.7,0.3,1,0.4c0,0.3,0,0.7-0.1,1s-0.1,0.6-0.2,0.8l-0.5-0.2l1.2,7.7V31.2z"/>
						<path d="M85.3,28.7c0,0.5-0.1,1-0.3,1.5c-0.1,0.3-0.3,0.7-0.6,1.2l-0.2-0.1c0-0.2,0-0.4,0.1-0.7s0-0.4,0-0.5
							c0-0.7-0.1-1.6-0.2-2.8s-0.2-2.5-0.4-3.8c-0.1-0.8-0.2-1.6-0.3-2.5c0.1-0.3,0.3-0.6,0.4-0.9s0.3-0.6,0.5-0.9
							c0.1,0.7,0.2,1.8,0.4,3s0.3,2.5,0.4,3.5C85.3,27.1,85.3,28.1,85.3,28.7z"/>
						<path d="M99,19.6c0,0.3-0.2,0.6-0.5,0.9c-0.6,0.2-1.5,0.6-2.8,1.1c0-0.3,0.1-0.6,0.4-0.8C96.6,20.6,97.6,20.2,99,19.6z"/>
						<path d="M102.3,31.2c0,1.5-0.4,2.5-1.3,3.2c-0.9,0.7-2.4,1.1-4.4,1.1c-1.3,0-2.3-0.2-3-0.7c-0.8-0.5-1.1-1.3-1.1-2.3
							c0-0.6,0.1-1.1,0.2-1.7s0.3-1.1,0.6-1.7c0.1-0.4,0.4-0.9,0.7-1.6l0.4,0.2c-0.5,0.9-0.8,1.7-0.9,2.2s-0.2,1-0.2,1.5
							c0,0.8,0.3,1.4,0.9,1.8s1.4,0.6,2.5,0.6c1.2,0,2.3-0.2,3.3-0.7c1.2-0.5,1.8-1.3,1.8-2.3c0-0.7-0.1-1.3-0.3-1.9
							c-0.2-0.5-0.4-1-0.7-1.3l0.8-2c0.3,0.5,0.6,1.1,0.7,1.6s0.2,1.3,0.2,2.2V31.2z M98.6,23.7l-0.7,1.4l-1.5-0.8l0.7-1.4
							L98.6,23.7z"/>
						<path d="M107.9,33c0,0.3-0.2,0.6-0.5,0.9c-0.6,0.2-1.5,0.6-2.8,1.1c0-0.3,0.1-0.5,0.4-0.8C105.5,33.9,106.5,33.5,107.9,33z"/>
						<path d="M110.1,31.2h-1c-0.4,0-0.9-0.1-1.5-0.3c-0.6-0.2-1.2-0.5-1.7-0.9c-0.4,0.5-0.8,0.8-1.2,1s-1,0.3-1.7,0.3h-1.5v-1.7
							h1.5c0.6,0,1.1-0.1,1.6-0.4c0.4-0.2,0.7-0.6,1-1c0.4-0.6,0.9-1.1,1.5-1.5c0.5-0.4,1-0.6,1.4-0.7c0.4,0.7,0.8,1.3,1.1,1.8
							c0.4,0.7,0.5,1.3,0.5,1.8V31.2z M109,29.3c-0.1-0.4-0.2-0.7-0.4-1.1c-0.1-0.3-0.3-0.6-0.6-0.9c-0.3,0.1-0.6,0.2-0.8,0.4
							c-0.1,0.1-0.3,0.4-0.5,0.7c0.2,0.3,0.6,0.5,1,0.7s0.8,0.3,1.2,0.4L109,29.3z"/>
						<path class="st0" d="M123,19.6c0,0.3-0.2,0.6-0.5,0.9c-0.6,0.2-1.5,0.6-2.8,1.1c0-0.3,0.1-0.6,0.4-0.8
							C120.6,20.6,121.6,20.2,123,19.6z"/>
						<path class="st0" d="M126.2,31.2c0,1.5-0.4,2.5-1.3,3.2c-0.9,0.7-2.4,1.1-4.4,1.1c-1.3,0-2.3-0.2-3-0.7
							c-0.8-0.5-1.1-1.3-1.1-2.3c0-0.6,0.1-1.1,0.2-1.7s0.3-1.1,0.6-1.7c0.1-0.4,0.4-0.9,0.7-1.6l0.4,0.2c-0.5,0.9-0.8,1.7-0.9,2.2
							s-0.2,1-0.2,1.5c0,0.8,0.3,1.4,0.9,1.8s1.4,0.6,2.5,0.6c1.2,0,2.3-0.2,3.3-0.7c1.2-0.5,1.8-1.3,1.8-2.3c0-0.7-0.1-1.3-0.3-1.9
							c-0.2-0.5-0.4-1-0.7-1.3l0.8-2c0.3,0.5,0.6,1.1,0.7,1.6s0.2,1.3,0.2,2.2V31.2z M122.6,23.7l-0.7,1.4l-1.5-0.8l0.7-1.4
							L122.6,23.7z"/>
						<path class="st0" d="M131.1,31.2h-5.6v-1.7h4.9c0-0.8-0.1-1.4-0.3-1.8c-0.1-0.3-0.4-0.7-0.9-1.2l0.8-1.6
							c0.5,0.6,0.8,1.1,0.9,1.4c0.2,0.5,0.3,1.3,0.3,2.5V31.2z M128.8,34l-0.7,1.4l-1.6-0.8l0.7-1.4L128.8,34z M131,33.2l-0.8,1.4
							l-1.6-0.8l0.7-1.4L131,33.2z"/>
						<path class="st0" d="M139,31.2h-1.4c-0.4,0-0.9-0.1-1.3-0.3c-0.5-0.2-0.9-0.6-1.1-1c-0.4,0.4-0.9,0.7-1.5,0.9
							c-0.7,0.3-1.5,0.4-2.3,0.4h-0.9v-1.7h0.9c0.5,0,1.1-0.1,1.5-0.2c0.5-0.1,1.1-0.4,1.6-0.7l-0.4-0.5c-0.2-0.2-0.4-0.4-0.7-0.4
							c-0.1,0-0.2,0-0.3,0.1s-0.2,0.1-0.3,0.3h-0.2v-0.6c0-0.7,0.2-1.2,0.6-1.5c0.3-0.2,0.9-0.4,1.8-0.4c0.7,0,1.3,0.1,1.8,0.3
							c0.6,0.3,0.9,0.6,0.9,1.2c0,0.3-0.1,0.6-0.4,0.9c-0.2,0.2-0.5,0.5-1,0.9c0.1,0.2,0.3,0.3,0.6,0.4s0.5,0.2,0.7,0.2h1.4V31.2z
							 M135.6,22.1l-0.7,1.4l-1.6-0.8l0.7-1.4L135.6,22.1z"/>
						<path class="st0" d="M143.2,37.2c0,0.3-0.2,0.6-0.5,0.9c-0.6,0.2-1.5,0.6-2.8,1.1c0-0.3,0.1-0.5,0.4-0.8
							C140.8,38.2,141.8,37.8,143.2,37.2z"/>
						<path class="st0" d="M143.9,31.2h-5.6v-1.7h4.9c0-0.8-0.1-1.4-0.3-1.8c-0.1-0.3-0.4-0.7-0.9-1.2l0.8-1.6
							c0.5,0.6,0.8,1.1,0.9,1.4c0.2,0.5,0.3,1.3,0.3,2.5V31.2z M142.9,33.6l-0.8,1.4l-1.6-0.8l0.7-1.4L142.9,33.6z"/>
						<path class="st0" d="M148.4,31.2h-1.4c-0.4,0-0.8-0.2-1.1-0.5c-0.2-0.3-0.4-0.8-0.5-1.4s-0.2-1.4-0.3-2.3
							c0-0.7-0.1-1.5-0.1-2.3s-0.1-1.4-0.2-1.8s-0.2-0.7-0.3-1c-0.1-0.3-0.3-0.6-0.6-0.8l1.2-1.9c0.3,0.8,0.4,1.7,0.5,2.8
							c0.1,0.7,0.1,2.3,0.2,4.8c0.1,1.2,0.3,1.9,0.5,2.2c0.2,0.3,0.4,0.4,0.6,0.4h1.4V31.2z"/>
						<path class="st0" d="M153.5,16.8c0,0.5-0.1,0.9-0.3,1.2c-0.2,0.4-0.4,0.5-0.8,0.5c-0.1,0-0.2,0-0.3-0.1s-0.2-0.1-0.3-0.2
							c-0.1,0.2-0.3,0.4-0.4,0.5c-0.2,0.2-0.4,0.3-0.7,0.3c-0.3,0-0.5-0.1-0.6-0.3s-0.2-0.4-0.2-0.8c0-0.2,0-0.3,0.1-0.5
							c0-0.1,0.1-0.3,0.2-0.5l0.2-0.1c0,0.1,0,0.1,0,0.3s0,0.2,0,0.3c0,0.1,0,0.3,0.1,0.4s0.1,0.2,0.3,0.2c0.3,0,0.5-0.2,0.7-0.5
							c0.1-0.2,0.2-0.5,0.3-1l0.2-0.1c0.1,0.3,0.1,0.5,0.1,0.6c0.1,0.2,0.2,0.3,0.4,0.3c0.2,0,0.4-0.2,0.6-0.5
							c0.1-0.3,0.2-0.5,0.2-0.8l0.2-0.1c0,0.1,0.1,0.3,0.1,0.4S153.5,16.7,153.5,16.8z M153.3,14.4c0,0.3-0.2,0.6-0.5,0.9
							c-0.6,0.2-1.5,0.6-2.8,1.1c0-0.3,0.1-0.5,0.4-0.8C151,15.4,151.9,15,153.3,14.4z"/>
						<path class="st0" d="M153.3,31.2h-5.6v-1.7h4.9c0-0.8-0.1-1.4-0.3-1.8c-0.1-0.3-0.4-0.7-0.9-1.2l0.8-1.6
							c0.5,0.6,0.8,1.1,0.9,1.4c0.2,0.5,0.3,1.3,0.3,2.5V31.2z M152.5,22.2l-0.7,1.4l-1.6-0.8l0.7-1.4L152.5,22.2z"/>
						<path class="st0" d="M157.5,31.2h-4.8v-1.7h3.8l-1.2-8.3l-0.5-0.2c0-0.4,0-0.9,0.1-1.3s0.2-0.8,0.4-1.1l0.1,0.1
							c0,0.4,0.2,0.7,0.6,0.8c0.3,0.1,0.7,0.3,1,0.4c0,0.3,0,0.7-0.1,1s-0.1,0.6-0.2,0.8l-0.5-0.2l1.2,7.7V31.2z"/>
						<path class="st0" d="M162.1,31.2h-1.4c-0.4,0-0.8-0.2-1.1-0.5c-0.2-0.3-0.4-0.8-0.5-1.4s-0.2-1.4-0.3-2.3
							c0-0.7-0.1-1.5-0.1-2.3s-0.1-1.4-0.2-1.8s-0.2-0.7-0.3-1c-0.1-0.3-0.3-0.6-0.6-0.8l1.2-1.9c0.3,0.8,0.4,1.7,0.5,2.8
							c0.1,0.7,0.1,2.3,0.2,4.8c0.1,1.2,0.3,1.9,0.5,2.2c0.2,0.3,0.4,0.4,0.6,0.4h1.4V31.2z"/>
						<path class="st0" d="M166.2,37.2c0,0.3-0.2,0.6-0.5,0.9c-0.6,0.2-1.5,0.6-2.8,1.1c0-0.3,0.1-0.5,0.4-0.8
							C163.9,38.2,164.8,37.8,166.2,37.2z"/>
						<path class="st0" d="M166.9,31.2h-5.6v-1.7h4.9c0-0.8-0.1-1.4-0.3-1.8c-0.1-0.3-0.4-0.7-0.9-1.2l0.8-1.6
							c0.5,0.6,0.8,1.1,0.9,1.4c0.2,0.5,0.3,1.3,0.3,2.5V31.2z M165.9,33.6l-0.8,1.4l-1.6-0.8l0.7-1.4L165.9,33.6z"/>
						<path d="M177.6,16.4c0,0.1,0,0.2,0,0.3s0,0.2-0.1,0.4l-0.8-0.5c-0.3,0.4-0.5,0.6-0.7,0.7c-0.5,0.5-0.9,0.7-1.2,0.7h-0.7
							c0.3-0.2,0.7-0.4,1.2-0.8c0.4-0.3,0.7-0.6,0.9-0.9c-0.2-0.1-0.4-0.3-0.5-0.4c-0.1-0.2-0.2-0.4-0.2-0.6c0-0.4,0.1-0.8,0.4-1.1
							s0.5-0.5,0.8-0.5c0.2,0,0.3,0.1,0.5,0.3s0.2,0.4,0.2,0.7c0,0.1,0,0.3-0.1,0.4s-0.1,0.4-0.2,0.7c0.1,0.1,0.2,0.2,0.3,0.3
							C177.6,16.2,177.6,16.3,177.6,16.4z M176.9,15.3c0-0.2-0.1-0.3-0.2-0.5s-0.2-0.2-0.4-0.2c-0.1,0-0.1,0-0.2,0.1
							s-0.1,0.1-0.1,0.1c0,0.1,0.1,0.3,0.2,0.4l0.4,0.3C176.8,15.5,176.9,15.4,176.9,15.3z"/>
						<path d="M180,31.2h-1.4c-0.5,0-0.9-0.4-1.2-1.2c-0.3-0.6-0.5-1.4-0.6-2.3c-0.2,0.4-0.4,0.6-0.7,0.8s-0.6,0.3-0.9,0.3
							c-0.7,0-1.4-0.1-1.9-0.2s-0.7-0.2-0.7-0.4c0-0.6,0.4-1.2,1.1-1.9s1.6-1.3,2.7-1.8c0-0.1,0-0.2-0.1-0.4s-0.1-0.4-0.1-0.4
							c0-0.2,0.1-0.5,0.2-0.7c0.1-0.2,0.3-0.4,0.5-0.7c0.1,0.4,0.1,0.8,0.2,1.2s0.1,0.8,0.2,1.2l0.3,1.7c0.2,0.9,0.3,1.6,0.4,2.1
							c0.2,0.7,0.4,1,0.6,1h1.4V31.2z M175.3,20.4l-0.7,1.4L173,21l0.7-1.4L175.3,20.4z M176.6,26.8l-0.2-1.1
							c-0.6,0.2-1,0.4-1.3,0.6s-0.6,0.5-0.8,0.9c0.1,0.1,0.3,0.1,0.5,0.1s0.4,0,0.8,0C175.9,27.5,176.2,27.2,176.6,26.8z
							 M177.5,19.5l-0.8,1.4l-1.6-0.8l0.7-1.4L177.5,19.5z"/>
						<path d="M186,19.6c0,0.3-0.2,0.6-0.5,0.9c-0.6,0.2-1.5,0.6-2.8,1.1c0-0.3,0.1-0.6,0.4-0.8C183.7,20.6,184.6,20.2,186,19.6z"/>
						<path d="M190.6,31.2h-0.8c-0.4,0-0.8-0.1-1.1-0.2s-0.6-0.3-0.8-0.5c-0.3,0.2-0.6,0.4-0.8,0.5c-0.3,0.1-0.8,0.2-1.4,0.2h-0.6
							c-0.3,0-0.7-0.1-1-0.2c-0.2-0.1-0.5-0.2-0.8-0.4c-0.3,0.2-0.6,0.4-0.9,0.5s-0.7,0.1-1.3,0.1h-1.9v-1.7h1.9
							c0.5,0,0.9,0,1.1-0.1c0.4-0.1,0.6-0.4,0.6-0.9c0-0.2,0-0.4,0-0.6s-0.1-0.4-0.1-0.6l0.4-0.6c0.2,0.6,0.3,1,0.4,1.3
							c0.2,0.5,0.4,0.8,0.7,1.1c0.3,0.3,0.7,0.4,1.1,0.4h0.7c0.5,0,0.8-0.1,1.1-0.2c0.3-0.2,0.4-0.4,0.4-0.8c0-0.2,0-0.4,0-0.6
							s-0.1-0.4-0.1-0.6l0.4-0.6l0.2,0.9c0.2,0.7,0.4,1.2,0.6,1.5c0.2,0.2,0.5,0.4,0.9,0.4c0.2,0,0.3-0.1,0.4-0.2s0.2-0.2,0.2-0.4
							c0-0.4-0.1-0.7-0.4-1.2c0-0.1-0.2-0.3-0.5-0.6l0.6-1.1c0.3,0.4,0.4,0.8,0.5,1c0.1,0.4,0.2,1,0.2,1.8V31.2z"/>
						<path d="M197.1,19.6c0,0.3-0.2,0.6-0.5,0.9c-0.6,0.2-1.5,0.6-2.8,1.1c0-0.3,0.1-0.6,0.4-0.8C194.8,20.6,195.7,20.2,197.1,19.6
							z"/>
						<path d="M200.4,31.2c0,0.7-0.3,1.5-0.9,2.2c-0.5,0.7-1.2,1.3-2,1.7c-0.8,0.5-1.4,0.7-1.9,0.7c-0.4,0-0.9-0.1-1.5-0.2
							c-0.4-0.1-0.9-0.3-1.4-0.5c-0.5-0.2-0.9-0.4-1.4-0.5l0.2-0.4c0.4,0.1,0.9,0.2,1.3,0.3s0.9,0.1,1.3,0.1c0.8,0,1.7-0.3,2.6-0.8
							c0.8-0.5,1.5-1.1,2.1-1.9c0.6-0.7,0.9-1.4,0.9-2c0-0.5-0.1-1.1-0.4-1.6c-0.2-0.5-0.6-0.9-1-1.4l0.6-1.5c0.5,0.5,0.9,1,1.2,1.5
							c0.3,0.6,0.4,1.2,0.4,1.9V31.2z"/>
						<path d="M206.2,19.2c0,0.4-0.1,0.8-0.4,1.1s-0.7,0.5-1.1,0.5c-0.4,0-0.6-0.1-0.8-0.3s-0.3-0.5-0.3-0.8c0-0.5,0.1-0.9,0.4-1.3
							s0.6-0.6,1-0.6c0.4,0,0.6,0.1,0.9,0.4S206.2,18.8,206.2,19.2z M205.6,19.5c0-0.2-0.1-0.4-0.4-0.6s-0.5-0.3-0.6-0.3
							c-0.2,0-0.3,0.1-0.4,0.2s-0.2,0.3-0.2,0.5c0,0.2,0.1,0.4,0.3,0.5c0.2,0.1,0.4,0.1,0.7,0.1c0.2,0,0.3,0,0.4-0.1
							S205.6,19.6,205.6,19.5z"/>
						<path d="M207.1,31.2h-4.4c-0.4,0-0.7-0.1-1-0.3s-0.4-0.5-0.4-0.8c0-0.2,0-0.5,0-0.7s0.1-0.4,0.1-0.7h0.2
							c0.1,0.3,0.2,0.5,0.4,0.6c0.2,0.1,0.4,0.1,0.6,0.1h3.8c0-1.2-0.2-2.1-0.5-2.8c-0.4-0.9-1.1-1.5-2-1.8l0.1-1.9
							c1.1,0.6,1.9,1.4,2.4,2.6c0.4,1,0.6,2.3,0.6,3.8V31.2z"/>
						<path d="M212.7,19.6c0,0.3-0.2,0.6-0.5,0.9c-0.6,0.2-1.5,0.6-2.8,1.1c0-0.3,0.1-0.6,0.4-0.8C210.3,20.6,211.3,20.2,212.7,19.6
							z"/>
						<path d="M215,31.2h-1c-0.4,0-0.9-0.1-1.5-0.3c-0.6-0.2-1.2-0.5-1.7-0.9c-0.4,0.5-0.8,0.8-1.2,1s-1,0.3-1.7,0.3h-1.5v-1.7h1.5
							c0.6,0,1.1-0.1,1.6-0.4c0.4-0.2,0.7-0.6,1-1c0.4-0.6,0.9-1.1,1.5-1.5c0.5-0.4,1-0.6,1.4-0.7c0.4,0.7,0.8,1.3,1.1,1.8
							c0.4,0.7,0.5,1.3,0.5,1.8V31.2z M213.9,29.3c-0.1-0.4-0.2-0.7-0.4-1.1c-0.1-0.3-0.3-0.6-0.6-0.9c-0.3,0.1-0.6,0.2-0.8,0.4
							c-0.1,0.1-0.3,0.4-0.5,0.7c0.2,0.3,0.6,0.5,1,0.7s0.8,0.3,1.2,0.4L213.9,29.3z"/>
						<path d="M219.2,31.2h-4.8v-1.7h3.8l-1.2-8.3l-0.5-0.2c0-0.4,0-0.9,0.1-1.3s0.2-0.8,0.4-1.1l0.1,0.1c0,0.4,0.2,0.7,0.6,0.8
							c0.3,0.1,0.7,0.3,1,0.4c0,0.3,0,0.7-0.1,1s-0.1,0.6-0.2,0.8l-0.5-0.2l1.2,7.7V31.2z"/>
						<path d="M222.5,28.7c0,0.5-0.1,1-0.3,1.5c-0.1,0.3-0.3,0.7-0.6,1.2l-0.2-0.1c0-0.2,0-0.4,0.1-0.7s0-0.4,0-0.5
							c0-0.7-0.1-1.6-0.2-2.8s-0.2-2.5-0.4-3.8c-0.1-0.8-0.2-1.6-0.3-2.5c0.1-0.3,0.3-0.6,0.4-0.9s0.3-0.6,0.5-0.9
							c0.1,0.7,0.2,1.8,0.4,3s0.3,2.5,0.4,3.5C222.4,27.1,222.5,28.1,222.5,28.7z"/>
						<path d="M233.9,20.7c-0.2,0-0.5,0-0.7-0.1c-0.1,0-0.2-0.1-0.4-0.1c-0.4,0.3-0.6,0.5-0.8,0.6c-0.4,0.2-0.8,0.4-1.1,0.4
							c-0.1,0-0.2,0-0.3,0s-0.2-0.1-0.3-0.1c0.5-0.2,0.8-0.4,1-0.5c0.3-0.1,0.7-0.3,1-0.5c-0.1-0.1-0.3-0.3-0.3-0.4
							c-0.1-0.1-0.2-0.3-0.2-0.4c0-0.3,0.1-0.6,0.3-0.8s0.5-0.4,0.8-0.4c0.2,0,0.4,0.1,0.5,0.2s0.2,0.3,0.2,0.5c0,0.1,0,0.3-0.1,0.4
							c0,0-0.1,0.2-0.2,0.4c0.2,0.1,0.3,0.2,0.4,0.3C233.9,20.1,233.9,20.3,233.9,20.7z M233.9,21.7c0,0.5-0.1,0.9-0.3,1.2
							c-0.2,0.4-0.4,0.5-0.8,0.5c-0.1,0-0.2,0-0.3-0.1s-0.2-0.1-0.3-0.2c-0.1,0.2-0.3,0.4-0.4,0.5c-0.2,0.2-0.4,0.3-0.7,0.3
							c-0.3,0-0.5-0.1-0.6-0.3s-0.2-0.4-0.2-0.8c0-0.2,0-0.3,0.1-0.5c0-0.1,0.1-0.3,0.2-0.5l0.2-0.1c0,0.1,0,0.1,0,0.3s0,0.2,0,0.3
							c0,0.1,0,0.3,0.1,0.4s0.1,0.2,0.3,0.2c0.3,0,0.5-0.2,0.7-0.5c0.1-0.2,0.2-0.5,0.3-1l0.2-0.1c0.1,0.3,0.1,0.5,0.1,0.6
							c0.1,0.2,0.2,0.3,0.4,0.3c0.2,0,0.4-0.2,0.6-0.5c0.1-0.3,0.2-0.5,0.2-0.8l0.2-0.1c0,0.1,0.1,0.3,0.1,0.4
							S233.9,21.6,233.9,21.7z M233.1,19.2c0-0.1,0-0.3-0.1-0.4s-0.2-0.2-0.4-0.2c0,0-0.1,0-0.1,0.1s0,0.1,0,0.2
							c0,0.1,0,0.3,0.1,0.3s0.2,0.2,0.4,0.3c0,0,0-0.1,0.1-0.2S233.1,19.2,233.1,19.2z"/>
						<path d="M235.6,31.2h-1.2c-1.1,0-2,0.1-2.8,0.3c-1,0.3-1.5,0.6-1.5,1.1c0,0.4,0.1,0.9,0.2,1.4s0.3,1,0.4,1.5s0.2,1,0.2,1.4
							c0,0.2,0,0.5-0.1,0.7s-0.1,0.5-0.2,0.8c-0.2-0.5-0.3-1.1-0.5-1.6c-0.3-1-0.5-1.8-0.7-2.3c-0.2-0.8-0.4-1.3-0.4-1.5
							c0-0.8,0.2-1.5,0.5-1.9s0.9-0.8,1.6-1c0.6-0.2,1.4-0.3,2.6-0.4c-0.4-0.4-0.7-0.7-0.8-0.7c-0.3-0.3-0.7-0.4-1-0.4
							c-0.2,0-0.4,0.1-0.6,0.2c-0.2,0.1-0.3,0.3-0.6,0.5l-0.4-0.3c0.2-0.5,0.4-0.9,0.7-1.2c0.4-0.5,0.9-0.7,1.5-0.7
							c0.4,0,0.8,0.1,1.2,0.4c0.3,0.2,0.7,0.6,1,1c0.2,0.2,0.4,0.6,0.8,1.1V31.2z"/>
						<path d="M240.7,16.7c0,0.3-0.2,0.6-0.5,0.9c-0.6,0.2-1.5,0.6-2.8,1.1c0-0.3,0.1-0.6,0.4-0.8C238.3,17.7,239.3,17.3,240.7,16.7
							z"/>
						<path d="M240.5,31.2h-5.6v-1.7h4.9c0-0.8-0.1-1.4-0.3-1.8c-0.1-0.3-0.4-0.7-0.9-1.2l0.8-1.6c0.5,0.6,0.8,1.1,0.9,1.4
							c0.2,0.5,0.3,1.3,0.3,2.5V31.2z M238.2,22.4l-0.7,1.4l-1.6-0.8l0.7-1.4L238.2,22.4z M240.4,21.6l-0.8,1.4l-1.6-0.8l0.7-1.4
							L240.4,21.6z"/>
						<path d="M245.2,20.2c0,0.4-0.1,0.8-0.4,1.1s-0.7,0.5-1.1,0.5c-0.4,0-0.6-0.1-0.8-0.3s-0.3-0.5-0.3-0.8c0-0.5,0.1-0.9,0.4-1.3
							s0.6-0.6,1-0.6c0.4,0,0.6,0.1,0.9,0.4S245.2,19.8,245.2,20.2z M244.6,20.5c0-0.2-0.1-0.4-0.4-0.6s-0.5-0.3-0.6-0.3
							c-0.2,0-0.3,0.1-0.4,0.2S243,20,243,20.2c0,0.2,0.1,0.4,0.3,0.5c0.2,0.1,0.4,0.1,0.7,0.1c0.2,0,0.3,0,0.4-0.1
							S244.6,20.6,244.6,20.5z"/>
						<path d="M248.4,31.2h-3.6c0.4,0.2,0.8,0.5,1.1,0.8c0.4,0.4,0.6,0.9,0.6,1.5c0,0.5-0.1,0.9-0.2,1.2c-0.2,0.4-0.5,0.6-0.9,0.6
							c-0.8,0-1.5-0.3-2.1-0.8c-0.8-0.7-1.2-1.5-1.2-2.6l0-0.7h-2.2v-1.7h2.5c0.2-0.6,0.5-1.2,0.8-1.7c0.3-0.7,0.7-1.2,1.1-1.6
							c0.4-0.5,0.8-0.7,1.2-0.7c0.2,0,0.4,0.2,0.5,0.5s0.2,0.7,0.2,1.1c0,0.6-0.1,1-0.4,1.4c-0.2,0.2-0.7,0.5-1.6,1h4.3V31.2z
							 M245.5,33.3c0-0.5-0.4-1-1.1-1.5c-0.6-0.4-1.2-0.6-1.8-0.7c0,0.7,0.2,1.3,0.5,1.8c0.4,0.6,1,0.8,1.9,0.8c0.2,0,0.3,0,0.4-0.1
							S245.5,33.5,245.5,33.3z M245.1,27.9c0-0.6-0.1-0.9-0.4-0.9c-0.3,0-0.6,0.3-1,0.9c-0.2,0.3-0.5,0.8-0.8,1.5
							c0.6-0.2,1.1-0.4,1.5-0.6C244.9,28.4,245.1,28.1,245.1,27.9z"/>
						<path d="M253.4,16.7c0,0.3-0.2,0.6-0.5,0.9c-0.6,0.2-1.5,0.6-2.8,1.1c0-0.3,0.1-0.6,0.4-0.8C251.1,17.7,252,17.3,253.4,16.7z"
							/>
						<path d="M253.3,31.2h-5.6v-1.7h4.9c0-0.8-0.1-1.4-0.3-1.8c-0.1-0.3-0.4-0.7-0.9-1.2l0.8-1.6c0.5,0.6,0.8,1.1,0.9,1.4
							c0.2,0.5,0.3,1.3,0.3,2.5V31.2z M251,22.4l-0.7,1.4l-1.6-0.8l0.7-1.4L251,22.4z M253.2,21.6l-0.8,1.4l-1.6-0.8l0.7-1.4
							L253.2,21.6z"/>
					</g>
				</g>
			</g>
		</g>
	</g>
</g>
</svg>
