<?xml version="1.0" encoding="utf-8"?>
<!-- Generator: Adobe Illustrator 23.0.2, SVG Export Plug-In . SVG Version: 6.00 Build 0)  -->
<svg version="1.1" id="Layer_1" xmlns="http://www.w3.org/2000/svg" xmlns:xlink="http://www.w3.org/1999/xlink" x="0px" y="0px"
	 viewBox="0 0 36.6 28.6" style="enable-background:new 0 0 36.6 28.6;" xml:space="preserve">
<style type="text/css">
	.st0{fill:#FFFFFF;}
</style>
<g>
	<g>
		<path class="st0" d="M18.5,24C18.5,24,18.5,24,18.5,24c-1.2,0-3.6-0.4-5.3-2c-1.3-1.2-2-2.8-2-4.7c0-5.8,6.7-6.8,7-6.9
			c0.6-0.1,2-0.1,4.1-0.1c-0.9-0.6-1.5-1.3-1.9-1.8L20,8c-1.8-2.4-2.4-2.4-3.3-2.5h-0.1c-1.9,0-3.2,2.1-3.3,2.4
			c-0.1,0.2-0.5,0.3-0.7,0.2c-0.2-0.1-0.3-0.5-0.2-0.7c0.2-0.3,1.8-3,4.4-2.9c1.4,0.1,2.2,0.4,4,2.8l0.4,0.5
			c0.3,0.4,0.9,1.1,1.7,1.6c0.3,0.2,1.5,0.7,2.2,0.9c0.2,0.1,0.4,0.3,0.3,0.6c0,0.2-0.3,0.4-0.5,0.4h-2.6c-0.6,0-1.2,0-1.6,0
			c-1.5,0-2.1,0-2.3,0.1c-0.2,0-6.1,0.9-6.1,5.9c0,1.6,0.5,2.9,1.6,3.9c1.7,1.5,4,1.8,4.9,1.8H19c1.3-0.1,2.9-0.2,4.4-2.8
			c0.1-0.2,0.5-0.3,0.7-0.2c0.2,0.1,0.3,0.5,0.2,0.7C22.3,24.3,18.6,24,18.5,24z"/>
	</g>
</g>
</svg>
