<?xml version="1.0" encoding="utf-8"?>
<!-- Generator: Adobe Illustrator 22.0.1, SVG Export Plug-In . SVG Version: 6.00 Build 0)  -->
<svg version="1.1" id="Layer_1" xmlns="http://www.w3.org/2000/svg" xmlns:xlink="http://www.w3.org/1999/xlink" x="0px" y="0px"
	 viewBox="0 0 86.2 86.2" style="enable-background:new 0 0 86.2 86.2;" xml:space="preserve">
<style type="text/css">
	.st0{fill:#235958;}
</style>
<g>
	<path class="st0" d="M46.7,19.4l-10.3,6.2c-1,0.6-1.7,1.1-2,1.6s-0.5,1.3-0.5,2.4l10.9-6.2C46.1,22.7,46.7,21.4,46.7,19.4z"/>
</g>
<g>
	<path class="st0" d="M51.7,49.4c1.3-2.3,2-5.1,2-8.5c0-3-0.9-6.6-2.8-10.7c-2.4,4.6-3.5,7.3-3.5,8.3c0,0.7,0.5,1.6,1.4,2.7
		c0.9,1.1,1.4,1.7,1.4,2c0,1.3-1.6,1.9-4.8,1.9h-1.5h-2H29.3v8.4h12.5h2h0.6C47.6,53.4,50.1,52,51.7,49.4z"/>
	<polygon class="st0" points="45.7,61.3 50.6,65 53.7,59.9 48.8,56.3 	"/>
</g>
</svg>
