<?xml version="1.0" encoding="utf-8"?>
<!-- Generator: Adobe Illustrator 22.0.1, SVG Export Plug-In . SVG Version: 6.00 Build 0)  -->
<svg version="1.1" id="Layer_1" xmlns="http://www.w3.org/2000/svg" xmlns:xlink="http://www.w3.org/1999/xlink" x="0px" y="0px"
	 viewBox="0 0 86.2 86.2" style="enable-background:new 0 0 86.2 86.2;" xml:space="preserve">
<style type="text/css">
	.st0{fill:#235958;}
</style>
<g>
	<path class="st0" d="M40,25.5c0,1.6-0.6,3-1.6,4.3c-1.1,1.2-2.5,1.8-4.1,1.8c-2.7,0-4-1.5-4-4.5c0-1.9,0.4-3.5,1.1-4.8
		c1-1.6,2.3-2.3,4.1-2.3c1.3,0,2.4,0.6,3.3,1.8C39.6,22.9,40,24.2,40,25.5z M37.9,26.5c0-0.6-0.5-1.4-1.6-2.1
		c-1.1-0.8-2-1.2-2.7-1.2c-0.6,0-1.1,0.3-1.6,0.8c-0.5,0.6-0.7,1.1-0.7,1.7c0,1.5,1.1,2.3,3.3,2.3C36.8,28,37.9,27.5,37.9,26.5z"/>
</g>
<g>
	<polygon class="st0" points="42.9,59.4 38.4,55.8 35.5,60.8 40.6,64.6 42.8,60.4 47.5,63.6 50.4,58.6 45.8,54.9 	"/>
	<path class="st0" d="M51.6,43.7h-1h-0.9c-4.5,0-6.9-1.6-7.3-4.7l-0.5-0.1c0,2.4-0.1,3.6-0.2,3.8c-0.6,0.6-1.9,1-3.9,1h-1h-2.1H22.2
		v8.4h12.4h2.1h0.6c2,0,3.7-1.5,5.2-4.6c1.1,3.1,2.9,4.6,5.4,4.6h2.7h1H65v-8.4C65,43.7,51.6,43.7,51.6,43.7z"/>
</g>
</svg>
