<?xml version="1.0" encoding="utf-8"?>
<!-- Generator: Adobe Illustrator 22.0.1, SVG Export Plug-In . SVG Version: 6.00 Build 0)  -->
<svg version="1.1" id="Layer_1" xmlns="http://www.w3.org/2000/svg" xmlns:xlink="http://www.w3.org/1999/xlink" x="0px" y="0px"
	 viewBox="0 0 105.2 56.6" style="enable-background:new 0 0 105.2 56.6;" xml:space="preserve">
<style type="text/css">
	.st0{fill:#235958;}
	.st1{fill:#EF5316;}
</style>
<g>
	<path class="st0" d="M53.6,44h-3.8c-2.8,0-4.6-1.3-5.2-3.9C38,44.7,29.8,47,20.1,47c-5.4,0-9.9-0.9-13.4-2.8
		C2.2,41.9,0,38.3,0,33.4c0-3.1,1.2-7,3.5-11.9l1,0.5c-1,2.4-1.4,4.6-1.4,6.6c0,3.6,2.3,6.3,6.8,8c3.2,1.2,7,1.8,11.4,1.8
		c8.1,0,14.2-0.7,18.1-2.2c1.2-0.4,1.9-0.7,2.1-0.7c0.9-0.4,1.4-0.9,1.6-1.4c0.2-0.5,0.3-1.5,0.2-2.9h0.8c0.8,3,2.9,4.5,6.5,4.5h2.8
		L53.6,44L53.6,44z M31.1,16.5l-3,4.9l-4.7-3.2l-2.3,4.2l-5-3.8l3-5l4.5,3.5l2.7-4.4L31.1,16.5z"/>
	<path class="st1" d="M67,44H52.5v-8.4H67V44z"/>
	<path class="st1" d="M74,13.5c0,1.6-0.6,3-1.6,4.3c-1.2,1.2-2.6,1.9-4.2,1.9c-2.7,0-4-1.5-4-4.5c0-1.9,0.4-3.5,1.1-4.8
		C66.2,8.8,67.6,8,69.4,8c1.3,0,2.4,0.6,3.3,1.8C73.5,10.9,74,12.2,74,13.5z M71.9,14.5c0-0.6-0.5-1.4-1.6-2.1
		c-1.1-0.8-2-1.2-2.7-1.2c-0.6,0-1.1,0.3-1.6,0.8c-0.5,0.6-0.7,1.1-0.7,1.7c0,1.5,1.1,2.3,3.3,2.3C70.8,16,71.9,15.5,71.9,14.5z"/>
	<path class="st1" d="M81.9,44h-3.7c-2.5,0-4.3-1.5-5.4-4.6c-1.5,3.1-3.2,4.6-5.2,4.6h-2.7v-8.4H68c2,0,3.3-0.3,3.9-1
		c0.2-0.2,0.2-1.4,0.2-3.8l0.5,0.1c0.4,3.1,2.9,4.7,7.3,4.7h1.9L81.9,44L81.9,44z M80.7,50.5l-3,5.1L73,52.4l-2.3,4.2l-5-3.8l2.9-5
		l4.5,3.6l2.8-4.5L80.7,50.5z"/>
	<path class="st0" d="M95.3,44H80.8v-8.4h14.5V44z"/>
	<path class="st0" d="M105.2,31.5c0,3.4-0.7,6.3-2,8.5c-1.6,2.7-4,4-7.2,4h-2.7v-8.4h3.5c3.2,0,4.8-0.6,4.8-1.9c0-0.3-0.5-0.9-1.4-2
		c-0.9-1.1-1.4-2-1.4-2.7c0-1,1.2-3.7,3.5-8.3C104.3,24.9,105.2,28.5,105.2,31.5z M105.2,50.6l-3,5l-5-3.6l3.1-5L105.2,50.6z"/>
</g>
<g>
	<path class="st0" d="M99.7,6.6l-10.3,6.2c-1,0.6-1.7,1.1-2,1.6c-0.3,0.5-0.5,1.3-0.5,2.4l10.9-6.2C99.1,9.9,99.7,8.6,99.7,6.6z"/>
</g>
</svg>
