<?xml version="1.0" encoding="utf-8"?>
<!-- Generator: Adobe Illustrator 22.0.1, SVG Export Plug-In . SVG Version: 6.00 Build 0)  -->
<svg version="1.1" id="Layer_1" xmlns="http://www.w3.org/2000/svg" xmlns:xlink="http://www.w3.org/1999/xlink" x="0px" y="0px"
	 viewBox="0 0 86.2 86.2" style="enable-background:new 0 0 86.2 86.2;" xml:space="preserve">
<style type="text/css">
	.st0{fill:#235958;}
</style>
<g>
	<g>
		<path class="st0" d="M62.3,48.8c0,4.7-2.7,8.7-8,12c-5.4,3.3-11.9,5-19.5,5c-2.4,0-4.5-1-6.4-2.9c-0.1-0.1-1.5-2-4.3-5.9
			c2,0.4,3.8,0.6,5.4,0.6c1.5,0,4-0.2,7.6-0.5c0.8-2.1,1.1-4,1.1-5.5c0-2.7-0.6-6.8-1.6-12.2C35.5,34,35,29.9,35,27.2l-1-1.6
			c0.7-3.2,1.9-5.2,3.7-6c0.1,1.9,0.8,3.5,2.2,4.9s3.1,1.9,4.9,1.6l-3.5,6.1l-1.2-0.6c-0.2,0.6-0.2,1.2-0.2,1.8
			c0,1.1,0.2,2.9,0.6,5.5c0.4,2.6,0.6,4.7,0.6,6.2c0,2.5-0.3,5.1-0.9,8c5.6-7.9,10.5-11.8,14.6-11.8c2.3,0,4.1,0.7,5.4,2.1
			C61.6,44.8,62.3,46.6,62.3,48.8z M58.6,52.3c0-0.9-0.6-1.7-1.8-2.3c-1-0.4-2-0.6-3-0.6c-4,0-8.2,2.5-12.5,7.6
			c2.6,0,5.8-0.4,9.7-1.1C56,54.9,58.6,53.7,58.6,52.3z"/>
	</g>
	<g>
		<path class="st0" d="M30.7,18l-0.3,3.7c-0.6-0.4-1.6-1-3-1.9c-2.9,3.6-5.4,5.4-7.5,5.4c-0.5,0-1.2-0.1-2.3-0.4
			c2.4-1.3,5-3.2,8-5.9c-1.6-1.3-2.3-2.4-2.3-3.5c0-1.3,0.5-2.7,1.4-4.2s2-2.3,3.2-2.3c1.6,0,2.4,1.1,2.4,3.3c0,1.6-0.4,3.1-1.1,4.5
			C29.7,17.3,30.2,17.7,30.7,18z M28.1,14.7c0-0.5-0.2-1-0.6-1.6s-0.8-0.8-1.3-0.8s-0.8,0.3-0.8,1c0,0.5,0.9,1.3,2.6,2.6
			C28,15.2,28.1,14.8,28.1,14.7z"/>
	</g>
</g>
</svg>
