<?xml version="1.0" encoding="utf-8"?>
<!-- Generator: Adobe Illustrator 23.0.2, SVG Export Plug-In . SVG Version: 6.00 Build 0)  -->
<svg version="1.1" id="Layer_1" xmlns="http://www.w3.org/2000/svg" xmlns:xlink="http://www.w3.org/1999/xlink" x="0px" y="0px"
	 viewBox="0 0 36.6 28.6" style="enable-background:new 0 0 36.6 28.6;" xml:space="preserve">
<g>
	<path d="M22.3,9.5c0.7,0,1.2-0.5,1.2-1.2c0-0.7-0.5-1.2-1.2-1.2c-0.7,0-1.2,0.5-1.2,1.2C21.1,9,21.7,9.5,22.3,9.5z"/>
	<path d="M33.3,19.9h-6.8c-0.3,0-1.1-0.1-2-0.2c1.3-0.9,2-2,2-3.4c0-3.4-3-4.7-4.3-4.7c-1.1,0-4.2,0.9-4.2,4.7c0,1.5,0.8,2.6,2,3.4
		c-1,0.2-2.1,0.2-3.2,0.2H12c0,0,0,0,0,0H7.4c-3.2,0-3.4-2.8-3.4-3.4c0-2.1,0.2-3.7,0.2-3.7C4.3,12.5,4,12.1,3.6,12
		c-0.4-0.1-0.8,0.2-0.9,0.6c0,0-0.2,1.7-0.2,3.9c0,1.8,1,4.9,4.9,4.9h7.4c0,0,0,0,0,0H17c2.1,0,3.9-0.2,5.4-0.7
		c1.6,0.5,3.3,0.7,4.2,0.7h6.8c0.4,0,0.7-0.3,0.7-0.7S33.7,19.9,33.3,19.9z M22.4,19.1c-1.5-0.6-2.7-1.4-2.7-2.9
		c0-3.1,2.7-3.2,2.7-3.2c0.3,0,2.8,0.6,2.8,3.2C25.1,17.6,24,18.5,22.4,19.1z"/>
</g>
</svg>
