<?xml version="1.0" encoding="utf-8"?>
<!-- Generator: Adobe Illustrator 19.2.0, SVG Export Plug-In . SVG Version: 6.00 Build 0)  -->
<svg version="1.1" id="Layer_1" xmlns="http://www.w3.org/2000/svg" xmlns:xlink="http://www.w3.org/1999/xlink" x="0px" y="0px"
	 viewBox="0 0 18.3 31.7" style="enable-background:new 0 0 18.3 31.7;" xml:space="preserve">
<style type="text/css">
	.st0{opacity:0.5;}
	.st1{fill:#FFFFFF;}
</style>
<g>
	<g class="st0">
		<path d="M18.3,16c0,3.6-0.9,6.9-2.6,10c-2.1,3.8-4.8,5.7-8.1,5.7c-2,0-4.5-1-7.6-3.1l0.4-0.8c0.9,0.2,1.7,0.3,2.3,0.3
			c2.7,0,5.6-1.3,8.7-3.8c3.2-2.6,4.7-5.1,4.7-7.7c0-0.9-0.7-2.3-2-4.1c-1-1.2-1.9-2.5-2.9-3.7c0.6-2.9,1.1-5.1,1.5-6.8
			C16.4,6.1,18.3,10.8,18.3,16z"/>
	</g>
	<g>
		<g>
			<g>
				<path class="st1" d="M18.3,14c0,3.6-0.9,6.9-2.6,10c-2.1,3.8-4.8,5.7-8.1,5.7c-2,0-4.5-1-7.6-3.1l0.4-0.8
					c0.9,0.2,1.7,0.3,2.3,0.3c2.7,0,5.6-1.3,8.7-3.8c3.2-2.6,4.7-5.1,4.7-7.7c0-0.9-0.7-2.3-2-4.1c-1-1.2-1.9-2.5-2.9-3.7
					c0.6-2.9,1.1-5.1,1.5-6.8C16.4,4.1,18.3,8.8,18.3,14z"/>
			</g>
		</g>
	</g>
</g>
</svg>
