<?xml version="1.0" encoding="utf-8"?>
<!-- Generator: Adobe Illustrator 22.0.1, SVG Export Plug-In . SVG Version: 6.00 Build 0)  -->
<svg version="1.1" id="Layer_1" xmlns="http://www.w3.org/2000/svg" xmlns:xlink="http://www.w3.org/1999/xlink" x="0px" y="0px"
	 viewBox="0 0 80.4 78.8" style="enable-background:new 0 0 80.4 78.8;" xml:space="preserve">
<style type="text/css">
	.st0{fill:#235958;}
	.st1{fill:#EF5316;}
</style>
<g>
	<path class="st0" d="M53.6,52.9h-3.8c-2.8,0-4.6-1.3-5.2-3.9c-6.7,4.7-14.9,7-24.6,7c-5.4,0-9.9-0.9-13.4-2.8
		C2.2,50.8,0,47.2,0,42.3c0-3.1,1.2-7,3.5-11.9l1,0.5c-1,2.4-1.4,4.6-1.4,6.6c0,3.6,2.3,6.3,6.8,8c3.2,1.2,7,1.8,11.4,1.8
		c8.1,0,14.2-0.7,18.1-2.2c1.2-0.4,1.9-0.7,2.1-0.7c0.9-0.4,1.4-0.9,1.6-1.4c0.2-0.5,0.3-1.5,0.2-2.9h0.8c0.8,3,2.9,4.5,6.5,4.5h2.8
		L53.6,52.9L53.6,52.9z M31.1,25.5l-3,4.9l-4.7-3.2l-2.3,4.2l-5-3.8l3-5l4.5,3.5l2.7-4.4L31.1,25.5z"/>
	<path class="st1" d="M63.8,13.9c0,1.6-0.6,3-1.6,4.3c-1.1,1.2-2.5,1.9-4.1,1.9c-2.7,0-4-1.5-4-4.5c0-1.9,0.4-3.5,1.1-4.8
		c0.9-1.6,2.2-2.4,4-2.4c1.3,0,2.4,0.6,3.3,1.8C63.3,11.3,63.8,12.6,63.8,13.9z M61.7,14.9c0-0.6-0.5-1.4-1.6-2.1
		c-1.1-0.8-2-1.2-2.7-1.2c-0.6,0-1.1,0.3-1.6,0.8c-0.5,0.6-0.7,1.1-0.7,1.7c0,1.5,1.1,2.3,3.3,2.3S61.7,15.9,61.7,14.9z"/>
	<path class="st1" d="M69.5,52.9h-3.7c-2.5,0-4.3-1.5-5.4-4.6c-1.5,3.1-3.2,4.6-5.2,4.6h-2.7v-8.4h2.2c2.6,0,4.2-0.3,4.8-1
		c0.2-0.2,0.2-1.4,0.2-3.8l0.5,0.1c0.4,3.1,2.9,4.7,7.4,4.7h1.8L69.5,52.9L69.5,52.9z M65.5,31.2l-2.7,5l-4.9-3.7l2.9-4.9L65.5,31.2
		z"/>
	<path class="st0" d="M80.4,40.4c0,3.4-0.7,6.3-2,8.5c-1.6,2.7-4,4-7.2,4h-2.7v-8.4H72c3.2,0,4.8-0.6,4.8-1.9c0-0.3-0.5-0.9-1.4-2
		s-1.4-2-1.4-2.7c0-1,1.2-3.7,3.5-8.3C79.5,33.8,80.4,37.4,80.4,40.4z M80.4,59.5l-3,5l-4.9-3.6l3.1-5L80.4,59.5z"/>
</g>
<path class="st0" d="M79.6,67.6c0,2-0.6,3.3-1.8,4.1l-11,6.3c0-1.1,0.2-2,0.5-2.5s1-1,2-1.6L79.6,67.6z"/>
</svg>
