<?xml version="1.0" encoding="utf-8"?>
<!-- Generator: Adobe Illustrator 19.2.0, SVG Export Plug-In . SVG Version: 6.00 Build 0)  -->
<svg version="1.1" id="Layer_1" xmlns="http://www.w3.org/2000/svg" xmlns:xlink="http://www.w3.org/1999/xlink" x="0px" y="0px"
	 viewBox="0 0 30.4 48.8" style="enable-background:new 0 0 30.4 48.8;" xml:space="preserve">
<style type="text/css">
	.st0{opacity:0.5;}
	.st1{fill:#FFFFFF;}
</style>
<g>
	<g class="st0">
		<path d="M30.4,43.8l-12.3,5c-5,0-9.1-1.3-12.5-3.8C1.9,42.2,0,38.4,0,33.6c0-2.9,0.6-5.7,1.9-8.3c0.8-1.7,2.4-4.1,4.7-7.1
			c-2.9-0.7-4.4-2.1-4.4-4.1c0-1.6,1.1-4.4,3.3-8.6C6.8,3.2,8.3,2,10.1,2c1.9,0,4,1.3,6.5,3.9c-2.4,0.2-4.2,0.4-5.3,0.7
			c-2,0.5-3.6,1.2-4.7,2.1c-1.2,0.9-1.7,1.8-1.7,2.5c0,1.5,1.9,2.7,5.8,3.6c3.9-2.3,7.3-3.9,10.2-4.8c-1,2-1.6,3.1-1.8,3.4
			c-0.7,1.3-1.4,2.4-2.2,3.1c-0.8,0.9-2.3,1.8-4.4,2.6c-6.3,2.3-9.4,6-9.4,11.1c0,4.6,2.7,8.1,8.1,10.4c4,1.7,8.7,2.5,14,2.5
			c1.5,0,3.2-0.1,5.1-0.3L30.4,43.8z"/>
	</g>
	<g>
		<g>
			<g>
				<path class="st1" d="M30.4,41.8l-12.3,5c-5,0-9.1-1.3-12.5-3.8C1.9,40.2,0,36.4,0,31.6c0-2.9,0.6-5.7,1.9-8.3
					c0.8-1.7,2.4-4.1,4.7-7.1c-2.9-0.7-4.4-2.1-4.4-4.1c0-1.6,1.1-4.4,3.3-8.6C6.8,1.2,8.3,0,10.1,0c1.9,0,4,1.3,6.5,3.9
					c-2.4,0.2-4.2,0.4-5.3,0.7c-2,0.5-3.6,1.2-4.7,2.1c-1.2,1-1.8,1.8-1.8,2.5c0,1.5,1.9,2.7,5.8,3.6c3.9-2.3,7.3-3.9,10.2-4.8
					c-1,2-1.6,3.1-1.8,3.4c-0.7,1.3-1.4,2.4-2.2,3.1c-0.8,0.9-2.3,1.8-4.4,2.6C6.1,19.4,3,23.1,3,28.2c0,4.6,2.7,8.1,8.1,10.4
					c4,1.7,8.7,2.5,14,2.5c1.5,0,3.2-0.1,5.1-0.3L30.4,41.8z"/>
			</g>
		</g>
	</g>
</g>
</svg>
