<?xml version="1.0" encoding="utf-8"?>
<!-- Generator: Adobe Illustrator 22.0.1, SVG Export Plug-In . SVG Version: 6.00 Build 0)  -->
<svg version="1.1" id="Layer_1" xmlns="http://www.w3.org/2000/svg" xmlns:xlink="http://www.w3.org/1999/xlink" x="0px" y="0px"
	 viewBox="0 0 86.2 86.2" style="enable-background:new 0 0 86.2 86.2;" xml:space="preserve">
<style type="text/css">
	.st0{fill:#235958;}
</style>
<g>
	<path class="st0" d="M41.2,18c0,1.6-0.6,3-1.6,4.3c-1.1,1.2-2.5,1.8-4.1,1.8c-2.7,0-4-1.5-4-4.5c0-1.9,0.4-3.5,1.1-4.8
		c1-1.6,2.3-2.3,4.1-2.3c1.3,0,2.4,0.6,3.3,1.8C40.7,15.4,41.2,16.6,41.2,18z M39.1,18.9c0-0.6-0.5-1.4-1.6-2.1
		c-1.1-0.8-2-1.2-2.7-1.2c-0.6,0-1.1,0.3-1.6,0.8c-0.5,0.6-0.7,1.1-0.7,1.7c0,1.5,1.1,2.3,3.3,2.3C38,20.5,39.1,20,39.1,18.9z"/>
</g>
<path class="st0" d="M56.8,43.3h-1H45c3.3-2.3,4.9-5.6,4.9-9.8c0-1.6-0.2-3.1-0.5-4.5c-0.5-2.1-1.2-3.1-2.2-3.1
	c-2,0-4.6,2.4-7.8,7.2c-2.7,4.1-4.5,7.5-5.2,10.3h-3.8h-2.1H16v8.4h12.4h2.1H34c1.8,11.8,5.3,17.7,10.4,17.7c2.3,0,4-1.2,5.2-3.6
	c0.9-1.9,1.4-4.1,1.4-6.6c0-1.6-0.2-2.9-0.6-3.9c-0.3-0.6-0.9-1.8-2-3.5h7.4h1h13.4v-8.4H56.8V43.3z M43.5,33.7c1.9,0,2.9,0.7,2.9,2
	c0,1.6-1.2,3-3.5,4.1c-1,0.5-2.8,1.2-5.5,1.9C39.9,36.4,41.9,33.7,43.5,33.7z M48.5,58.9c0,0.9-0.3,1.6-1,2.1
	c-0.7,0.6-1.5,0.8-2.3,0.8c-2.2,0-4.2-1.2-5.9-3.5c-1.3-1.8-2.3-3.9-3-6.4C44.4,52.9,48.5,55.2,48.5,58.9z"/>
</svg>
