<?xml version="1.0" encoding="utf-8"?>
<!-- Generator: Adobe Illustrator 22.0.1, SVG Export Plug-In . SVG Version: 6.00 Build 0)  -->
<svg version="1.1" id="Layer_1" xmlns="http://www.w3.org/2000/svg" xmlns:xlink="http://www.w3.org/1999/xlink" x="0px" y="0px"
	 viewBox="0 0 76 73.2" style="enable-background:new 0 0 76 73.2;" xml:space="preserve">
<style type="text/css">
	.st0{fill:#235958;}
	.st1{fill:#EF5316;}
</style>
<g>
	<path class="st0" d="M28,53.3h-3.9c-0.7,5-1.9,9.2-3.6,12.6c-2.5,4.8-5.7,7.2-9.8,7.2c-2.9,0-6.5-1.4-10.7-4.3l0.6-1
		c1.7,0.3,2.9,0.5,3.7,0.5c2.8,0,5.8-1.2,8.8-3.5c1.3-1,2.8-2.8,4.6-5.6c1.3-2.1,2.6-4.3,3.9-6.4c-2.4-0.8-4.1-2.8-5.3-5.9l4.5-6.6
		c1.5,3,3.2,4.5,5.1,4.5H28V53.3L28,53.3z"/>
	<path class="st1" d="M42.8,13c0,1.6-0.6,3-1.6,4.3c-1.1,1.2-2.5,1.9-4.1,1.9c-2.7,0-4-1.5-4-4.5c0-1.9,0.4-3.5,1.1-4.8
		c1-1.6,2.3-2.3,4.1-2.3c1.3,0,2.4,0.6,3.3,1.8C42.4,10.4,42.8,11.7,42.8,13z M40.8,14c0-0.6-0.5-1.4-1.6-2.1
		c-1.1-0.8-2-1.2-2.7-1.2c-0.6,0-1.1,0.3-1.6,0.8c-0.5,0.6-0.7,1.1-0.7,1.7c0.1,1.6,1.2,2.3,3.4,2.3S40.8,15,40.8,14z"/>
	<path class="st1" d="M55.3,53.3h-8.4c1.1,1.7,1.7,2.9,2,3.5c0.4,1.1,0.6,2.4,0.6,3.9c0,2.5-0.5,4.7-1.4,6.6c-1.2,2.4-3,3.6-5.2,3.6
		c-5.1,0-8.6-5.9-10.4-17.7h-5.6v-8.4h5.9c0.8-2.8,2.5-6.2,5.2-10.3c3.2-4.8,5.8-7.2,7.8-7.2c1,0,1.7,1,2.2,3.1
		c0.3,1.4,0.5,2.9,0.5,4.5c0,4.2-1.6,7.5-4.9,9.8h11.7V53.3L55.3,53.3z M47,60.5c0-3.6-4.1-6-12.2-7c0.7,2.5,1.7,4.7,3,6.4
		c1.7,2.4,3.7,3.5,5.9,3.5c0.9,0,1.6-0.3,2.3-0.8C46.7,62.1,47,61.4,47,60.5z M45,37.4c0-1.3-1-2-2.9-2c-1.6,0-3.6,2.7-6,8
		c2.6-0.8,4.5-1.4,5.5-1.9C43.8,40.4,45,39,45,37.4z"/>
	<path class="st0" d="M76,43.3c0,1.8-0.4,3.4-1.2,4.7c-0.9,1.7-2.2,2.5-3.8,2.5c-1.7,0-4.6-1-8.7-3.1c-0.3,1-1,2.2-2.2,3.5
		c-1.2,1.5-2.2,2.3-3.1,2.3h-2.7v-8.4h2.6c2.3,0,4-1.3,5.1-4c0.8-2,1.6-4,2.3-6c1.3-2.5,2.9-3.8,4.8-3.8c2,0,3.8,1.6,5.1,4.7
		C75.4,38.5,76,41,76,43.3z M71.5,41.7c0-1-0.4-1.8-1.2-2.5c-0.8-0.7-1.8-1-2.8-1c-1.2,0-2.1,0.8-2.9,2.3c2.8,1.6,4.7,2.4,5.7,2.4
		C71.1,42.8,71.5,42.5,71.5,41.7z"/>
</g>
<g>
	<path class="st0" d="M68.4,20.1l-0.3,3.7c-0.6-0.4-1.6-1-3-1.9c-2.9,3.6-5.4,5.4-7.5,5.4c-0.5,0-1.2-0.1-2.3-0.4
		c2.4-1.3,5-3.2,8-5.9c-1.6-1.3-2.3-2.4-2.3-3.5c0-1.3,0.5-2.7,1.4-4.2c0.9-1.5,2-2.3,3.2-2.3c1.6,0,2.4,1.1,2.4,3.3
		c0,1.6-0.4,3.1-1.1,4.5C67.5,19.4,68,19.8,68.4,20.1z M65.9,16.7c0-0.5-0.2-1-0.6-1.6c-0.4-0.6-0.8-0.8-1.3-0.8s-0.8,0.3-0.8,1
		c0,0.5,0.9,1.3,2.6,2.6C65.8,17.3,65.9,16.9,65.9,16.7z"/>
</g>
</svg>
