<?xml version="1.0" encoding="utf-8"?>
<!-- Generator: Adobe Illustrator 22.0.1, SVG Export Plug-In . SVG Version: 6.00 Build 0)  -->
<svg version="1.1" id="Layer_1" xmlns="http://www.w3.org/2000/svg" xmlns:xlink="http://www.w3.org/1999/xlink" x="0px" y="0px"
	 viewBox="0 0 86.2 86.2" style="enable-background:new 0 0 86.2 86.2;" xml:space="preserve">
<style type="text/css">
	.st0{fill:#235958;}
</style>
<g>
	<path class="st0" d="M45.4,52.2c3.2,0,5.6-1.3,7.3-4c1.3-2.3,2-5.1,2-8.5c0-3-0.9-6.6-2.8-10.7c-2.4,4.6-3.5,7.3-3.5,8.3
		c0,0.7,0.5,1.6,1.4,2.7c0.9,1.1,1.4,1.7,1.4,2c0,1.3-1.6,1.9-4.9,1.9h-1.4h-2.1H30.3v8.4h12.4h2.1h0.6
		C45.4,52.3,45.4,52.2,45.4,52.2z"/>
	<polygon class="st0" points="53.2,55.1 50.4,59.6 45.9,56 42.7,61 47.8,64.8 50.1,60.6 54.8,63.8 57.9,58.7 	"/>
</g>
</svg>
