<?xml version="1.0" encoding="utf-8"?>
<!-- Generator: Adobe Illustrator 22.0.1, SVG Export Plug-In . SVG Version: 6.00 Build 0)  -->
<svg version="1.1" id="Layer_1" xmlns="http://www.w3.org/2000/svg" xmlns:xlink="http://www.w3.org/1999/xlink" x="0px" y="0px"
	 viewBox="0 0 86.2 86.2" style="enable-background:new 0 0 86.2 86.2;" xml:space="preserve">
<style type="text/css">
	.st0{fill:#235958;}
</style>
<g>
	<path class="st0" d="M49,47.3h7.3H57h13.8v-8.4H57h-0.7h-6c-2.3,0-3.7-0.1-4.4-0.4c-1.2-0.4-2.2-1.5-2.8-3.1c1-0.2,2.5-0.3,4.4-0.3
		l1.3-6.5c-3.3-0.3-6.1-0.5-8.2-0.5c-0.6-0.1-3-0.5-7.3-1.2c-3-0.5-5.4-0.7-7.3-0.7c-2.5,0-4.5,1.1-5.9,3.2
		c-0.9,1.4-1.7,3.6-2.4,6.7h5c0.3-0.8,0.6-1.2,0.8-1.3c0.2-0.1,0.8-0.2,1.7-0.2c1,0,2.9,0.3,5.7,0.9c-9,5.8-13.5,13.3-13.5,22.4
		c0,6.4,2.5,11.3,7.5,14.4c4.1,2.6,9.6,3.9,16.5,3.9h1.7L59,68.5l-0.1-1c-1.3,0.1-3.3,0.2-5.9,0.4c-2.6,0.2-4.6,0.3-6,0.3
		c-6.3,0-11.7-1-16.4-2.9c-6.3-2.6-9.5-6.6-9.5-12c0-4.8,2.1-8.9,6.3-12.2c3.7-2.9,8-4.7,13.1-5.5c-1,2.1-1.5,4-1.5,5.6
		C39,45.3,42.4,47.3,49,47.3z"/>
	<polygon class="st0" points="31.4,54.3 36.2,57.9 39.2,53 34.5,49.2 	"/>
</g>
</svg>
