<?xml version="1.0" encoding="utf-8"?>
<!-- Generator: Adobe Illustrator 22.0.1, SVG Export Plug-In . SVG Version: 6.00 Build 0)  -->
<svg version="1.1" id="Layer_1" xmlns="http://www.w3.org/2000/svg" xmlns:xlink="http://www.w3.org/1999/xlink" x="0px" y="0px"
	 viewBox="0 0 86.2 86.2" style="enable-background:new 0 0 86.2 86.2;" xml:space="preserve">
<style type="text/css">
	.st0{fill:#235958;}
</style>
<path class="st0" d="M46.5,19.2c0,2-0.6,3.3-1.8,4.1l-11,6.3c0-1.1,0.2-2,0.5-2.5s1-1,2-1.6L46.5,19.2z"/>
<g>
	<path class="st0" d="M52.8,52.4c1.4-2.4,2.1-5.4,2.1-9c0-3.2-1-6.9-3-11.3c-2.5,4.8-3.7,7.7-3.7,8.7c0,0.7,0.5,1.7,1.5,2.8
		s1.5,1.8,1.5,2.1c0,1.4-1.7,2-5.1,2h-1.6h-2.1H29.3v8.8h13.1h2.1h0.7C48.6,56.6,51.1,55.2,52.8,52.4z"/>
	<polygon class="st0" points="46.5,64.9 51.7,68.8 54.9,63.5 49.8,59.7 	"/>
</g>
</svg>
