<?xml version="1.0" encoding="utf-8"?>
<!-- Generator: Adobe Illustrator 22.0.1, SVG Export Plug-In . SVG Version: 6.00 Build 0)  -->
<svg version="1.1" id="Layer_1" xmlns="http://www.w3.org/2000/svg" xmlns:xlink="http://www.w3.org/1999/xlink" x="0px" y="0px"
	 viewBox="0 0 86.2 86.2" style="enable-background:new 0 0 86.2 86.2;" xml:space="preserve">
<style type="text/css">
	.st0{fill:#235958;}
</style>
<g>
	<polygon class="st0" points="40.4,63.1 45.6,67 48.8,61.6 43.6,57.8 	"/>
	<path class="st0" d="M53.3,45.9h-1.1H51c-4.5,0-7-1.6-7.5-4.9h-0.4c0,2.5-0.1,3.8-0.3,4c-0.6,0.7-2,1-4.1,1h-1.1h-2.2h-13v8.8h13
		h2.2h0.6c2.1,0,3.9-1.6,5.5-4.8c1.2,3.2,3.1,4.8,5.7,4.8h2.8h1.1h14.1V46L53.3,45.9L53.3,45.9z"/>
</g>
<g>
	<path class="st0" d="M37.1,24.3c0,4.2-1.3,6.3-3.9,6.3c-0.6,0-1.4-0.3-2.4-0.8c-1,2.2-2.3,3.3-4.1,3.3c-2,0-3-1.5-3-4.4
		c0-0.7,0.3-1.9,0.9-3.6l0.8-0.2c0,2.8,0.5,4.3,1.5,4.3s1.9-0.8,2.6-2.4c0.5-1.3,0.8-2.6,0.8-3.8l0.7-0.2c0.6,2.5,1.4,3.8,2.3,3.8
		c1.5,0,2.3-1.9,2.5-5.6l0.7-0.4C36.9,21.7,37.1,23,37.1,24.3z"/>
</g>
</svg>
