<?xml version="1.0" encoding="utf-8"?>
<!-- Generator: Adobe Illustrator 22.0.1, SVG Export Plug-In . SVG Version: 6.00 Build 0)  -->
<svg version="1.1" id="Layer_1" xmlns="http://www.w3.org/2000/svg" xmlns:xlink="http://www.w3.org/1999/xlink" x="0px" y="0px"
	 viewBox="0 0 96.7 64.9" style="enable-background:new 0 0 96.7 64.9;" xml:space="preserve">
<style type="text/css">
	.st0{fill:#235958;}
	.st1{fill:#EF5316;}
</style>
<g>
	<path class="st0" d="M30.5,64.9h-4.2c-4,0-6.7-2.9-8.2-8.6c-2.6,5.3-6.5,7.9-11.8,7.9C2.1,64.2,0,62.8,0,60c0-0.8,0.8-3.7,2.4-8.8
		l1,0.2c0.8,2.7,2.9,4,6.5,4c2.2,0,3.7-0.2,4.6-0.5c1.6-0.5,2.4-1.7,2.4-3.5c0-1.6-0.4-4.2-1-7.8c-0.7-3.6-1-6.3-1-8.1
		c0-0.6,0.6-1.5,1.7-2.7c0.9-0.8,1.7-1.6,2.5-2.4c0,3.1,0.2,5.6,0.6,7.6c0.9,5,1.5,8.1,1.7,9.2c0.9,4.2,1.7,6.8,2.4,7.8
		c0.7,1,1.6,1.5,2.7,1.5h4.2L30.5,64.9L30.5,64.9z"/>
	<path class="st0" d="M53.1,64.9h-3.8c-1,0-2.4-0.9-4.3-2.6c-0.1-0.1-1.4-1.4-3.8-3.9c-4.4,4.3-7.6,6.5-9.7,6.5H29v-8.4
		c2.5,0,4-0.1,4.5-0.2c1.1-0.2,2.4-0.9,3.9-1.9c-1.8-2.6-4-3.9-6.6-3.9c0.2-3.3,1.2-5.6,2.9-6.9c1.6-1.2,4-1.8,7.4-1.8
		c2.5,0,4.5,0.6,6.2,1.8c1.9,1.4,2.8,3.3,2.8,5.7c0,2.6-1.5,4.6-4.4,6c1.4,0.8,3.4,1.1,5.8,1.1c0.3,0,0.5,0,0.7,0s0.5,0,0.9,0
		C53.1,56.4,53.1,64.9,53.1,64.9z"/>
	<path class="st1" d="M65.1,8.7c0,1.6-0.6,3-1.6,4.3c-1.1,1.2-2.5,1.9-4.1,1.9c-2.7,0-4-1.5-4-4.5c0-1.9,0.4-3.5,1.1-4.8
		c0.8-1.6,2.2-2.4,4-2.4c1.3,0,2.4,0.6,3.3,1.8C64.6,6.1,65.1,7.4,65.1,8.7z M63,9.7c0-0.6-0.5-1.4-1.6-2.1c-1.1-0.8-2-1.2-2.7-1.2
		c-0.6,0-1.1,0.3-1.6,0.8c-0.5,0.6-0.7,1.1-0.7,1.7c0,1.5,1.1,2.3,3.3,2.3C61.9,11.2,63,10.7,63,9.7z"/>
	<path class="st1" d="M76.1,64.9h-3.8c-4,0-7-1-9-3.1c-3.5,2-6.4,3.1-8.7,3.1H52v-8.4c2.6,0,4.4-0.3,5.5-1c-0.6-0.6-0.9-1.2-0.9-1.9
		c0-2.5,0.8-5.3,2.5-8.3c1.6-2.8,3.4-5.1,5.5-6.8c1.2-1,2.4-1.5,3.4-1.5c1.7,0,3,1.3,3.8,4c0.6,1.9,0.9,4,0.9,6.3
		c0,3.1-1,5.8-2.9,8.1c0.9,0.8,2.5,1.1,4.7,1.1h1.6V64.9L76.1,64.9z M73,27.4l-3,5.1l-4.8-3.3L63,33.4l-5-3.7l3-4.9l4.5,3.5l2.8-4.5
		L73,27.4z M69.7,49.8c0-1.2-0.5-2.3-1.4-3.1s-2.1-1.2-3.3-1.2c-1,0-2,0.3-3,0.9c-1.1,0.6-1.7,1.4-1.7,2.4c0,1.2,1.3,2.8,4,4.8
		C67.9,52.6,69.7,51.3,69.7,49.8z"/>
	<path class="st0" d="M96.7,54.9c0,1.8-0.4,3.4-1.2,4.7c-0.9,1.7-2.2,2.5-3.8,2.5c-1.7,0-4.6-1-8.7-3.1c-0.3,1-1,2.2-2.2,3.5
		c-1.2,1.5-2.2,2.3-3.1,2.3H75v-8.4h2.6c2.3,0,4-1.3,5.1-4c0.8-2,1.6-4,2.3-6c1.3-2.5,2.9-3.8,4.8-3.8c2,0,3.8,1.6,5.1,4.7
		C96.1,50.1,96.7,52.6,96.7,54.9z M92.2,53.3c0-1-0.4-1.8-1.2-2.5c-0.8-0.7-1.8-1-2.8-1c-1.2,0-2.1,0.8-2.9,2.3
		c2.8,1.6,4.7,2.4,5.7,2.4C91.8,54.4,92.2,54.1,92.2,53.3z"/>
</g>
<g>
	<g>
		<g>
			<path class="st0" d="M93.8,22.2c0,1.9-0.6,3.3-1.8,4l-10.9,6.3c0-1.1,0.2-2,0.5-2.4c0.3-0.4,1-1,2-1.6L93.8,22.2z"/>
		</g>
	</g>
</g>
<g>
	<g>
		<g>
			<path class="st0" d="M42.5,18.7c0,1.9-0.6,3.3-1.8,4L29.8,29c0-1.1,0.2-2,0.5-2.4s1-1,2-1.6L42.5,18.7z"/>
		</g>
	</g>
</g>
</svg>
