<?xml version="1.0" encoding="utf-8"?>
<!-- Generator: Adobe Illustrator 23.0.2, SVG Export Plug-In . SVG Version: 6.00 Build 0)  -->
<svg version="1.1" id="Layer_1" xmlns="http://www.w3.org/2000/svg" xmlns:xlink="http://www.w3.org/1999/xlink" x="0px" y="0px"
	 viewBox="0 0 36.6 28.6" style="enable-background:new 0 0 36.6 28.6;" xml:space="preserve">
<style type="text/css">
	.st0{fill:none;stroke:#FFFFFF;stroke-width:1.7697;stroke-linecap:round;stroke-linejoin:round;}
</style>
<g id="Group_1">
	<path id="Group_2" class="st0" d="M7.7,10c-1.8,3.4-1.5,6.1,1,8.1c1,0.8,2.2,1.2,3.7,1.4l0,0h0c0.5,0,1.1,0.1,1.6,0.1
		c2.1,0,4.2-0.4,5.8-1c0.9-0.4,2.4-1.2,2.6-2.3c0.1-0.7-0.1-1.4-0.5-1.9c-0.3-0.4-0.7-0.6-1.2-0.6c-1.2,0-2.2-0.4-2.9-1.1
		c-0.2-0.2-0.4-0.5-0.5-0.7l-0.1-0.1c-0.1-0.3-0.2-0.5-0.2-0.6c0-0.5,0.2-0.8,0.5-1.1C18.7,9,21.4,9,22.8,9c0,0,0,0,0.1,0H30
		c0,0,0,0,0.1,0"/>
</g>
</svg>
