<?xml version="1.0" encoding="utf-8"?>
<!-- Generator: Adobe Illustrator 22.0.1, SVG Export Plug-In . SVG Version: 6.00 Build 0)  -->
<svg version="1.1" id="Layer_1" xmlns="http://www.w3.org/2000/svg" xmlns:xlink="http://www.w3.org/1999/xlink" x="0px" y="0px"
	 viewBox="0 0 86.2 86.2" style="enable-background:new 0 0 86.2 86.2;" xml:space="preserve">
<style type="text/css">
	.st0{fill:#235958;}
</style>
<g>
	<g>
		<g>
			<path class="st0" d="M45.9,22.3c0,1.6-0.6,3.1-1.7,4.3c-1.1,1.2-2.5,1.9-4.2,1.9c-2.7,0-4-1.5-4-4.5c0-1.9,0.4-3.5,1.1-4.9
				c1-1.6,2.3-2.3,4.1-2.3c1.3,0,2.4,0.6,3.3,1.8C45.4,19.7,45.9,21,45.9,22.3z M43.8,23.3c0-0.6-0.5-1.4-1.6-2.1
				c-1.1-0.8-2-1.2-2.7-1.2c-0.6,0-1.1,0.3-1.6,0.8c-0.5,0.6-0.7,1.1-0.7,1.7c0,1.5,1.1,2.3,3.3,2.3C42.7,24.8,43.8,24.3,43.8,23.3z
				"/>
		</g>
	</g>
	<g>
		<path class="st0" d="M52.7,49.3c0,4.6-1.1,8.8-3.3,12.8c-2.7,4.8-6.1,7.2-10.3,7.2c-2.5,0-5.8-1.3-9.8-4l0.5-1.1
			c1.2,0.3,2.2,0.4,2.9,0.4c3.4,0,7.1-1.6,11.2-4.9c4-3.3,6.1-6.5,6.1-9.8c0-1.2-0.8-3-2.5-5.3c-1.2-1.6-2.5-3.1-3.7-4.7
			c0.8-3.7,1.4-6.6,1.9-8.7C50.3,36.6,52.7,42.6,52.7,49.3z"/>
	</g>
</g>
</svg>
