<?xml version="1.0" encoding="utf-8"?>
<!-- Generator: Adobe Illustrator 22.0.1, SVG Export Plug-In . SVG Version: 6.00 Build 0)  -->
<svg version="1.1" id="Layer_1" xmlns="http://www.w3.org/2000/svg" xmlns:xlink="http://www.w3.org/1999/xlink" x="0px" y="0px"
	 viewBox="0 0 86.2 86.2" style="enable-background:new 0 0 86.2 86.2;" xml:space="preserve">
<style type="text/css">
	.st0{fill:#235958;}
</style>
<path class="st0" d="M63.7,46.2L63.7,46.2c-0.9,0.1-1.6,0.1-2.1,0.1c-2-0.1-3.4-0.6-4.3-1.4c-1.4-1.3-2.3-2.9-2.8-5h-0.9
	c-0.1,1.8-0.2,3-0.6,3.6c-0.5,1-1.6,1.5-3.1,1.5c-1.9,0-3.2-0.2-3.9-0.7c-2-1.4-3-2.7-3-3.9l-1-0.1c-0.3,2.6-0.5,4-0.6,4.2
	c-0.4,0.9-1.7,1.3-3.9,1.3h-2c-2,0-3.5-0.2-4.4-0.6c-1.2-0.6-2.1-1.7-2.7-3.5H28c-0.1,2.1-0.3,3.3-0.6,3.5c-0.8,0.6-3.2,1-7.2,1H8
	v8.4h12.4h2.1H23c2.1,0,3.8-1.6,5.2-4.7c1.1,3.1,3.4,4.7,6.8,4.7l0,0l0,0l0,0h0.6l0,0c3.6-0.2,6.1-2,7.6-5.3c1,2.9,2.5,4.4,4.7,4.4
	c2.6,0,4.6-2.3,6.1-6.8c0.8,2.4,1.5,4.2,2.3,5.2c1.2,1.7,2.8,2.5,4.7,2.5h2.7h2.7h11.8v-8.4C78.2,46.2,63.7,46.2,63.7,46.2z"/>
</svg>
