<?xml version="1.0" encoding="utf-8"?>
<!-- Generator: Adobe Illustrator 22.0.1, SVG Export Plug-In . SVG Version: 6.00 Build 0)  -->
<svg version="1.1" id="Layer_1" xmlns="http://www.w3.org/2000/svg" xmlns:xlink="http://www.w3.org/1999/xlink" x="0px" y="0px"
	 viewBox="0 0 104.5 86.2" style="enable-background:new 0 0 104.5 86.2;" xml:space="preserve">
<style type="text/css">
	.st0{fill:#235958;}
	.st1{fill:#EF5316;}
</style>
<g>
	<path class="st0" d="M28.7,32.4c0,4.8-1.6,8.6-4.8,11.5s-7.2,4.4-11.9,4.4c-3.4,0-6.2-0.8-8.4-2.5C1.2,44,0,41.4,0,38.1
		c0-4,1.5-9.1,4.5-15.3l1,0.7c-1.4,2.8-2.1,5.2-2.1,7.3c0,3.4,0.9,5.7,2.8,7c1.5,1.1,4.1,1.6,7.7,1.6c2.6,0,5.1-0.5,7.5-1.4
		c3.2-1.3,4.7-3,4.7-5.1c0-0.9-0.9-2.8-2.6-5.8c-1.4-2.6-2.6-4.5-3.5-5.6l3-7.5C26.8,19.1,28.7,25.2,28.7,32.4z M15.6,10.7l-3,4.8
		L7.7,12l3-5L15.6,10.7z"/>
	<path class="st0" d="M48.7,46.2h-3.8c-2.5,0-4.4-1.1-5.5-3.2c-1-1.7-1.6-4.9-1.8-9.7c-0.1-2-0.4-5.4-1-10.1c-0.6-4.3-1-7.6-1-10.1
		c0-0.8,0-1.3,0.1-1.7s1.4-1.7,4-3.9c0,0.2,0.3,4.5,1,12.9c0.6,7.5,0.9,11.5,0.9,12.1c0,1.8,0.3,3.2,0.9,4c0.6,0.9,1.8,1.3,3.6,1.3
		h2.5L48.7,46.2L48.7,46.2z"/>
	<path class="st0" d="M62.8,46.2h-0.6c-3.4,0-5.6-1.6-6.8-4.7c-1.4,3.1-3.1,4.7-5.2,4.7h-2.7v-8.4c4,0,6.4-0.3,7.2-1
		c0.3-0.3,0.5-1.4,0.6-3.5h0.4c0.6,1.7,1.5,2.9,2.7,3.5c0.9,0.4,2.4,0.6,4.4,0.6C62.8,37.4,62.8,46.2,62.8,46.2z"/>
	<path class="st0" d="M93.5,46.2h-5.3c-2,0-3.6-0.8-4.7-2.5c-0.8-1.1-1.5-2.8-2.3-5.2c-1.5,4.5-3.5,6.8-6.1,6.8
		c-2.2,0-3.8-1.5-4.7-4.4c-1.5,3.6-4.2,5.4-8.2,5.4v-8.8h2.7c2.2,0,3.5-0.4,3.9-1.3c0.1-0.2,0.3-1.6,0.6-4.2l1,0.1
		c0,1.1,1,2.4,3,3.9c0.6,0.5,1.9,0.7,3.9,0.7c1.5,0,2.5-0.5,3.1-1.5c0.3-0.6,0.5-1.8,0.6-3.6h0.9c0.5,2,1.4,3.7,2.8,5
		c0.9,0.9,2.4,1.3,4.3,1.4c-1.7,0-0.1,0,4.7,0L93.5,46.2L93.5,46.2z"/>
	<path class="st1" d="M100.1,53.7c0,1.8-0.6,3.1-1.9,3.8l-10.9,6.3c0-1.2,0.1-2,0.4-2.4c0.3-0.5,1-1,2.1-1.6L100.1,53.7z"/>
	<path class="st1" d="M104.1,6.4l-3.5,6.1L99.3,12v0.6c0,2.4,0.4,6,1.2,10.9c0.8,4.8,1.2,8.4,1.2,10.9c0,3.1-0.6,5.7-1.8,7.9
		c-1.5,2.7-3.6,4-6.4,4H91v-8.4h3.2c2.4,0,3.7-1.3,3.7-3.8c0-2.8-0.6-7.2-1.7-13.1c-1.3-6.3-1.9-10.8-2.1-13.5
		c-0.3-0.3-0.5-0.8-0.8-1.4c0.8-3.2,2-5.2,3.7-6C97.1,2,97.9,3.6,99.3,5C100.6,6.2,102.2,6.8,104.1,6.4z"/>
</g>
</svg>
