<?xml version="1.0" encoding="utf-8"?>
<!-- Generator: Adobe Illustrator 22.0.1, SVG Export Plug-In . SVG Version: 6.00 Build 0)  -->
<svg version="1.1" id="Layer_1" xmlns="http://www.w3.org/2000/svg" xmlns:xlink="http://www.w3.org/1999/xlink" x="0px" y="0px"
	 viewBox="0 0 86.2 86.2" style="enable-background:new 0 0 86.2 86.2;" xml:space="preserve">
<style type="text/css">
	.st0{fill:#235958;}
</style>
<path class="st0" d="M56.4,45h-1.1h-1.7c-1.9,0-3.3-0.5-4.1-1.5c-1.6-1.9-2.7-7.4-3.4-16.5c-0.3-6-0.5-12.1-0.7-18.1
	c-1.6,2.4-2.6,3.9-2.9,4.6c-0.8,1.7-1.2,3.4-1.2,5.1c0-0.6,0.3,5.1,0.8,17.1c0.2,3.5,0.3,6,0.5,7.4c0.3,2.6,0.7,5.3,1.1,7.9
	c0.4,3.1,0.6,5.7,0.6,7.9c0,5.1-4.3,7.7-13,7.7c-6.7,0-10.1-2.3-10.1-6.9c0-2.4,1-5.5,3.1-9.4l-1.2-0.7C19.7,55.5,18,60.8,18,65.4
	c0,3.5,1.1,6.2,3.4,8c2.1,1.8,4.9,2.7,8.4,2.7c5.4,0,9.5-1.5,12.4-4.4c2.9-2.9,4.4-7.1,4.4-12.4c0-1.8-0.2-4.5-0.5-8s-0.5-6.2-0.5-8
	c1.4,6.9,3.7,10.3,7,10.3h2.7h1.1h13.8V45H56.4z"/>
</svg>
