<?xml version="1.0" encoding="utf-8"?>
<!-- Generator: Adobe Illustrator 22.0.1, SVG Export Plug-In . SVG Version: 6.00 Build 0)  -->
<svg version="1.1" id="Layer_1" xmlns="http://www.w3.org/2000/svg" xmlns:xlink="http://www.w3.org/1999/xlink" x="0px" y="0px"
	 viewBox="0 0 75.4 86.6" style="enable-background:new 0 0 75.4 86.6;" xml:space="preserve">
<style type="text/css">
	.st0{fill:#235958;}
	.st1{fill:#EF5316;}
</style>
<g>
	<path class="st0" d="M37.3,64.7h-3.7c-3.2,0-5.4-3.3-6.8-10.1c0,1.8,0.2,4.4,0.5,7.8s0.5,6,0.5,7.8c0,5.2-1.4,9.2-4.3,12.1
		c-2.8,2.8-6.9,4.3-12.1,4.3c-3.4,0-6.2-0.9-8.2-2.7C1.1,82.1,0,79.5,0,76.1c0-4.5,1.7-9.6,5-15.4l1.1,0.6c-2,3.8-3.1,6.9-3.1,9.2
		c0,4.5,3.3,6.7,9.8,6.7c8.4,0,12.6-2.5,12.6-7.5c0-2.1-0.2-4.6-0.6-7.6c-0.4-2.6-0.7-5.1-1-7.7c-0.2-1.3-0.3-3.7-0.5-7.2
		c-0.5-11.7-0.8-17.2-0.8-16.6c0-1.7,0.4-3.4,1.2-5c0.3-0.6,1.3-2.1,2.8-4.4c0.2,5.9,0.5,11.8,0.7,17.6c0.6,8.9,1.7,14.3,3.3,16.1
		c0.8,1,2.1,1.4,3.9,1.4h2.7v8.4C37.1,64.7,37.3,64.7,37.3,64.7z"/>
	<path class="st0" d="M48.2,52.2c0,3.4-0.7,6.3-2,8.5c-1.6,2.7-4,4-7.2,4h-2.7v-8.4h3.5c3.3,0,4.9-0.6,4.9-1.9c0-0.3-0.5-0.9-1.4-2
		s-1.4-2-1.4-2.7c0-1,1.2-3.7,3.5-8.3C47.2,45.6,48.2,49.2,48.2,52.2z M51.4,71.2l-3.1,5.1l-4.7-3.2l-2.3,4.2l-5-3.8l3.1-5l4.5,3.6
		l2.8-4.5L51.4,71.2z"/>
	<path class="st1" d="M64.9,9.5c0,1.9-0.6,3.3-1.8,4l-10.9,6.3c0-1.1,0.2-2,0.5-2.4s1-1,2-1.6L64.9,9.5z"/>
	<path class="st1" d="M75.4,53.6c0,3.3-0.7,5.7-2,7.2c-1.3,1.6-3.6,2.7-6.8,3.5c-2.4,0.6-5,0.9-7.9,0.9c-1.2,0-2.8-0.5-4.8-1.5
		l1.6-9.6c1.7,0.9,2.9,1.3,3.5,1.3c9.1,0,13.7-1.1,13.7-3.4c0-1.9-4.1-5-12.4-9.1l3-9.2C71.3,39.1,75.4,45.7,75.4,53.6z M66.4,25.9
		L63.5,31l-4.9-3.6l3-5.1L66.4,25.9z"/>
</g>
<g>
	<path class="st0" d="M46.1,25.8c0,1.6-0.5,3-1.6,4.2s-2.5,1.8-4.1,1.8c-2.7,0-4-1.5-4-4.5c0-1.9,0.4-3.5,1.1-4.8
		c1-1.5,2.3-2.3,4.1-2.3c1.3,0,2.4,0.6,3.2,1.8C45.6,23.3,46.1,24.5,46.1,25.8z M44,26.8c0-0.6-0.5-1.3-1.6-2.1
		c-1.1-0.8-2-1.2-2.6-1.2s-1.1,0.3-1.6,0.8c-0.5,0.6-0.7,1.1-0.7,1.7c0,1.5,1.1,2.2,3.3,2.2C42.9,28.3,44,27.8,44,26.8z"/>
</g>
</svg>
