<?xml version="1.0" encoding="utf-8"?>
<!-- Generator: Adobe Illustrator 22.0.1, SVG Export Plug-In . SVG Version: 6.00 Build 0)  -->
<svg version="1.1" id="Layer_1" xmlns="http://www.w3.org/2000/svg" xmlns:xlink="http://www.w3.org/1999/xlink" x="0px" y="0px"
	 viewBox="0 0 86.2 86.2" style="enable-background:new 0 0 86.2 86.2;" xml:space="preserve">
<style type="text/css">
	.st0{fill:#235958;}
</style>
<path class="st0" d="M69.1,44.5h-2.7h-7.6c2.5-2.6,3.7-5.3,3.7-8.3c0-2-0.6-3.9-1.9-5.7c-1.3-1.8-2.9-2.7-5-2.7c-2.6,0-6,2.1-10,6.4
	C42.5,37.4,40,40.7,38,44c-0.6,0.1-2.3,0.1-5.2,0.1c-2,0-3.5-0.2-4.4-0.6c-1.2-0.6-2.1-1.7-2.7-3.5h-0.4c-0.1,2.1-0.3,3.3-0.6,3.5
	c-0.8,0.6-3.2,1-7.2,1H5.2v8.4h12.4h2.1h0.6c2.1,0,3.8-1.6,5.2-4.7c1.1,3.1,3.4,4.7,6.8,4.7l0,0l0,0h0.6h1.4l-1.4,3.3
	c0,0.6,0.3,0.9,0.8,0.9c0.4,0,0.9-0.6,1.7-1.8c0.6-1.1,1-1.8,1.1-2.3c3.8-0.3,7.2-0.9,10.1-1.7c0.6,1.1,2.1,1.7,4.5,1.7h15.3h2.7
	h11.8v-8.4H69.1V44.5z M51.2,42.8c-3.9,0.8-7.2,1.1-10,1.1c5.9-4.9,10.3-7.4,13.1-7.4c3.1,0,4.7,0.8,4.7,2.5
	C59,40.6,56.4,41.9,51.2,42.8z"/>
</svg>
