<?xml version="1.0" encoding="utf-8"?>
<!-- Generator: Adobe Illustrator 22.0.1, SVG Export Plug-In . SVG Version: 6.00 Build 0)  -->
<svg version="1.1" id="Layer_1" xmlns="http://www.w3.org/2000/svg" xmlns:xlink="http://www.w3.org/1999/xlink" x="0px" y="0px"
	 viewBox="0 0 86.2 86.2" style="enable-background:new 0 0 86.2 86.2;" xml:space="preserve">
<style type="text/css">
	.st0{fill:#235958;}
</style>
<g>
	<path class="st0" d="M46.1,64.1l-10.3,6.2c-1,0.6-1.7,1.1-2,1.6s-0.5,1.3-0.5,2.4l10.9-6.2C45.5,67.4,46.1,66,46.1,64.1z"/>
</g>
<g>
	<path class="st0" d="M44.5,49.6c3.2,0,5.6-1.3,7.2-4c1.3-2.3,2-5.1,2-8.5c0-3-0.9-6.6-2.8-10.7c-2.4,4.6-3.5,7.3-3.5,8.3
		c0,0.7,0.5,1.6,1.4,2.7c0.9,1.1,1.4,1.7,1.4,2c0,1.3-1.6,1.9-4.9,1.9h-1.4h-2.1H29.5v8.4h12.4H44L44.5,49.6L44.5,49.6z"/>
	<polygon class="st0" points="52.3,52.5 49.5,57 45,53.3 41.9,58.3 46.9,62.1 49.3,57.9 53.9,61.1 57,56.1 	"/>
</g>
</svg>
