<?xml version="1.0" encoding="utf-8"?>
<!-- Generator: Adobe Illustrator 22.0.1, SVG Export Plug-In . SVG Version: 6.00 Build 0)  -->
<svg version="1.1" id="Layer_1" xmlns="http://www.w3.org/2000/svg" xmlns:xlink="http://www.w3.org/1999/xlink" x="0px" y="0px"
	 viewBox="0 0 86.2 86.2" style="enable-background:new 0 0 86.2 86.2;" xml:space="preserve">
<style type="text/css">
	.st0{fill:#235958;}
</style>
<g>
	<path class="st0" d="M37.4,60.8c0,2-0.6,3.5-1.9,4.3L24,71.6c0-1.2,0.2-2.1,0.5-2.6s1-1.1,2.1-1.7L37.4,60.8z"/>
</g>
<g>
	<path class="st0" d="M67.8,32.9c-1,0.1-1.7,0.1-2.2,0.1c-4.1,0-8.7-1-14-3c-3.3-1.2-5.8-1.9-7.5-1.9c-2.7,0-4.8,1.1-6.3,3.3
		c-0.9,1.4-1.8,3.8-2.5,7h5.3c0.6-1.1,1.5-1.6,2.7-1.6c1.7,0,4.3,0.8,7.5,2.5c-3.7,1.9-6,3-6.8,3.4c-2.1,0.8-4.2,1.3-6.4,1.3h-2.2
		h-2.1H20.2v8.8h13.1h2.1h1.9c0.3,0,1.1-0.3,2.2-0.9c1.6-0.8,3.8-2.4,6.7-4.7s5.2-3.9,6.9-4.8c3.4-1.7,7.1-2.5,11.1-2.5
		c2,0,3.5-0.1,4.7-0.3l0.9-6.9C69.5,32.8,68.7,32.8,67.8,32.9z"/>
	<polygon class="st0" points="49.7,57.6 54.9,61.7 57.9,56.3 53,52.3 	"/>
</g>
</svg>
