<?xml version="1.0" encoding="utf-8"?>
<!-- Generator: Adobe Illustrator 22.0.1, SVG Export Plug-In . SVG Version: 6.00 Build 0)  -->
<svg version="1.1" id="Layer_1" xmlns="http://www.w3.org/2000/svg" xmlns:xlink="http://www.w3.org/1999/xlink" x="0px" y="0px"
	 viewBox="0 0 135.7 69.6" style="enable-background:new 0 0 135.7 69.6;" xml:space="preserve">
<style type="text/css">
	.st0{fill:#235958;}
	.st1{fill:#EF5316;}
</style>
<g>
	<path class="st0" d="M30.5,45.2h-4.2c-4,0-6.7-2.9-8.2-8.6c-2.6,5.3-6.5,7.9-11.8,7.9c-4.2,0-6.3-1.4-6.3-4.2
		c0-0.8,0.8-3.7,2.4-8.8l1,0.2c0.8,2.7,2.9,4,6.5,4c2.2,0,3.7-0.2,4.6-0.5c1.6-0.5,2.4-1.7,2.4-3.5c0-1.6-0.3-4.2-1-7.8
		c-0.7-3.6-1-6.3-1-8.1c0-0.6,0.6-1.5,1.7-2.7c0.9-0.8,1.7-1.6,2.5-2.4c0,3.1,0.2,5.6,0.6,7.6c0.9,5,1.5,8.1,1.7,9.2
		c0.9,4.2,1.7,6.8,2.4,7.8c0.7,1,1.6,1.5,2.7,1.5h4.2v8.4C30.7,45.2,30.5,45.2,30.5,45.2z"/>
	<path class="st0" d="M71.7,45.2h-7.2c-6.8,0-10.2-2-10.2-6c0-1.3,0.5-3.3,1.4-6.1c-3.4,0.5-6.3,1.4-8.5,2.6
		c-1.4,0.8-3.8,2.4-7.2,5.1c-1.1,0.9-2.8,2-5.1,3.5c-1.1,0.6-1.9,0.9-2.3,0.9H29v-8.4h2.6c4.1-0.2,8.7-1.7,14-4.4
		c-3.1-1.6-5.5-2.3-7.2-2.3c-1.1,0-1.9,0.5-2.5,1.4h-5c0.8-3.1,1.6-5.3,2.4-6.7c1.4-2.1,3.4-3.1,6-3.1c1.6,0,4,0.6,7.1,1.8
		c5,1.9,9.4,2.9,13.3,2.9c0.6,0,1.6-0.1,2.8-0.2s2.2-0.2,2.8-0.2l-1,6.5c-2.5,0.2-4.3,0.4-5.6,0.6c0.8,1.6,1.7,2.7,2.9,3.1
		c0.9,0.4,2.4,0.6,4.3,0.6h6v8.4C71.9,45.2,71.7,45.2,71.7,45.2z M52.3,48.5l-2.9,5.1l-4.9-3.9l3.1-5L52.3,48.5z"/>
	<path class="st1" d="M97.2,5.5c0,1.6-0.6,3-1.6,4.3c-1.1,1.2-2.5,1.8-4.1,1.8c-2.7,0-4-1.5-4-4.5c0-1.9,0.4-3.5,1.1-4.8
		c1-1.6,2.3-2.3,4.1-2.3C94,0,95.1,0.6,96,1.8C96.7,3,97.2,4.2,97.2,5.5z M95.1,6.5c0-0.6-0.5-1.4-1.6-2.1c-1.1-0.8-2-1.2-2.7-1.2
		c-0.6,0-1.1,0.3-1.6,0.8c-0.5,0.6-0.7,1.1-0.7,1.7c0,1.5,1.1,2.3,3.3,2.3C94,8,95.1,7.5,95.1,6.5z"/>
	<path class="st1" d="M85.9,45.2h-0.6c-3.4,0-5.6-1.6-6.8-4.7c-1.4,3.1-3.1,4.7-5.2,4.7h-2.7v-8.4c4,0,6.4-0.3,7.2-1
		c0.3-0.3,0.5-1.4,0.6-3.5h0.4c0.6,1.7,1.5,2.9,2.7,3.5c0.9,0.4,2.4,0.6,4.4,0.6V45.2z"/>
	<path class="st1" d="M116.6,45.2h-5.3c-2,0-3.6-0.8-4.7-2.5c-0.8-1.1-1.5-2.8-2.3-5.2c-1.5,4.5-3.5,6.8-6.1,6.8
		c-2.2,0-3.8-1.5-4.7-4.4c-1.5,3.6-4.2,5.4-8.2,5.4v-8.8H88c2.2,0,3.5-0.4,3.9-1.3c0.1-0.2,0.3-1.6,0.6-4.2l1,0.1c0,1.1,1,2.4,3,3.9
		c0.6,0.5,1.9,0.7,3.9,0.7c1.5,0,2.5-0.5,3.1-1.5c0.3-0.6,0.5-1.8,0.6-3.6h0.9c0.5,2,1.4,3.7,2.8,5c0.9,0.9,2.4,1.3,4.3,1.4
		c-1.7,0-0.1,0,4.7,0v8.2H116.6z"/>
	<path class="st0" d="M135.7,35.2c0,1.8-0.4,3.4-1.2,4.7c-0.9,1.7-2.2,2.5-3.8,2.5c-1.7,0-4.6-1-8.7-3.1c-0.3,1-1,2.2-2.2,3.5
		c-1.2,1.5-2.2,2.3-3.1,2.3H114v-8.4h2.6c2.3,0,4-1.3,5.1-4c0.8-2,1.6-4,2.3-6c1.3-2.5,2.9-3.8,4.8-3.8c2,0,3.8,1.6,5.1,4.7
		C135.1,30.4,135.7,32.9,135.7,35.2z M131.2,33.6c0-1-0.4-1.8-1.2-2.5s-1.8-1-2.8-1c-1.2,0-2.1,0.8-2.9,2.3c2.8,1.6,4.7,2.4,5.7,2.4
		C130.8,34.7,131.2,34.4,131.2,33.6z"/>
</g>
<g>
	<path class="st0" d="M51.2,57.5c0,2-0.6,3.5-1.9,4.3l-11.5,6.5c0-1.2,0.2-2.1,0.5-2.6s1-1.1,2.1-1.7L51.2,57.5z"/>
</g>
<g>
	<path class="st0" d="M124.8,6.2c0,2-0.6,3.5-1.9,4.3L111.4,17c0-1.2,0.2-2.1,0.5-2.6s1-1.1,2.1-1.7L124.8,6.2z"/>
</g>
</svg>
