<?xml version="1.0" encoding="utf-8"?>
<!-- Generator: Adobe Illustrator 23.0.2, SVG Export Plug-In . SVG Version: 6.00 Build 0)  -->
<svg version="1.1" id="Layer_1" xmlns="http://www.w3.org/2000/svg" xmlns:xlink="http://www.w3.org/1999/xlink" x="0px" y="0px"
	 viewBox="0 0 36.6 28.6" style="enable-background:new 0 0 36.6 28.6;" xml:space="preserve">
<g>
	<g>
		<g>
			<g>
				<path d="M16.6,20c0.7,0,1.2-0.6,1.2-1.2c0-0.7-0.6-1.2-1.2-1.2s-1.2,0.6-1.2,1.2C15.4,19.5,15.9,20,16.6,20"/>
			</g>
			<g>
				<path d="M20,20c0.7,0,1.2-0.6,1.2-1.2c0-0.7-0.6-1.2-1.2-1.2s-1.2,0.6-1.2,1.2C18.8,19.5,19.3,20,20,20"/>
			</g>
		</g>
	</g>
	<path d="M20.7,12.5c-0.1,0-0.8,0-1.2-0.5c-0.2-0.2-0.4-0.6-0.4-1.1V9.4c0-0.4-0.3-0.8-0.8-0.8s-0.8,0.3-0.8,0.8v1.5
		c0,0.5-0.1,0.9-0.4,1.1c-0.5,0.5-1.1,0.5-1.2,0.5H7.7V14h8.2c0.3,0,1.5-0.1,2.3-0.9c0,0,0,0,0.1-0.1c0,0,0,0,0.1,0.1
		c0.9,0.9,2,0.9,2.3,0.9h8.2v-1.5H20.7z"/>
</g>
</svg>
