<?xml version="1.0" encoding="utf-8"?>
<!-- Generator: Adobe Illustrator 22.0.1, SVG Export Plug-In . SVG Version: 6.00 Build 0)  -->
<svg version="1.1" id="Layer_1" xmlns="http://www.w3.org/2000/svg" xmlns:xlink="http://www.w3.org/1999/xlink" x="0px" y="0px"
	 viewBox="0 0 86.2 86.2" style="enable-background:new 0 0 86.2 86.2;" xml:space="preserve">
<style type="text/css">
	.st0{fill:#235958;}
</style>
<path class="st0" d="M48.9,41.3h-1.6h-2.5c-0.8-8-2.1-12-4.1-12c-1.8,0-3.5,2.1-5.2,6.4c-1.5,3.8-2.2,6.8-2.2,9c0,2.4,0.9,4,2.7,4.7
	c1,0.3,3,0.5,6,0.5c-2.4,4.8-4.9,8.3-7.4,10.5c-3.2,2.9-7.1,4.3-11.8,4.3c-1.5,0-3-0.2-4.3-0.7L18,65c4.2,2.9,7.9,4.4,11.3,4.4
	c7.1,0,12-6.5,14.6-19.4h3.5H49h13.3v-8.6H48.9V41.3z M39.8,41.3c-2.4,0-3.6-0.7-3.6-2.2c0-1.2,0.7-1.7,2-1.7c1.5,0,3,1.3,4.3,3.9
	H39.8z"/>
</svg>
