<?xml version="1.0" encoding="utf-8"?>
<!-- Generator: Adobe Illustrator 22.1.0, SVG Export Plug-In . SVG Version: 6.00 Build 0)  -->
<svg version="1.1" id="Layer_1" xmlns="http://www.w3.org/2000/svg" xmlns:xlink="http://www.w3.org/1999/xlink" x="0px" y="0px"
	 viewBox="0 0 51 48" style="enable-background:new 0 0 51 48;" xml:space="preserve">
<style type="text/css">
	.st0{display:none;fill:#C9720A;}
	.st1{fill:#FFFFFF;}
</style>
<rect class="st0" width="51" height="48"/>
<path class="st1" d="M27.1,24.1c0,1.1-0.3,2.5-0.9,4.4l-0.4-0.1c0.1-0.6,0.2-1.3,0.2-1.9c0-1.3-0.1-3-0.4-5
	c-0.2-1.6-0.4-3.3-0.7-4.9c-0.1-1-0.2-1.6-0.2-1.8c0-0.9,0.1-1.6,0.3-2c0.3-0.6,0.6-1.2,1-1.7c0,1.7,0.3,5.1,1,10.3
	C27.1,22.4,27.1,23.3,27.1,24.1z"/>
</svg>
