<?xml version="1.0" encoding="utf-8"?>
<!-- Generator: Adobe Illustrator 16.0.0, SVG Export Plug-In . SVG Version: 6.00 Build 0)  -->
<!DOCTYPE svg PUBLIC "-//W3C//DTD SVG 1.1//EN" "http://www.w3.org/Graphics/SVG/1.1/DTD/svg11.dtd">
<svg version="1.1" id="Layer_1" xmlns="http://www.w3.org/2000/svg" xmlns:xlink="http://www.w3.org/1999/xlink" x="0px" y="0px"
	 width="51px" height="48px" viewBox="0 0 51 48" enable-background="new 0 0 51 48" xml:space="preserve">
<rect display="none" fill="#C9720A" width="51" height="48"/>
<path fill="#FFFFFF" d="M24.326,27.49c-0.045,1.131-0.213,2.197-0.504,3.2c-0.627,2.239-1.646,3.828-3.057,4.768
	c-1.343,0.853-3.279,1.28-5.809,1.28c-1.5,0-2.743-0.396-3.729-1.185C10.176,34.7,9.65,33.57,9.65,32.162
	c0-0.726,0.201-1.611,0.605-2.656c0.335-0.853,0.682-1.706,1.041-2.56l0.402,0.159c-0.672,1.686-1.008,3.019-1.008,4
	c0,2.305,1.926,3.456,5.776,3.456c1.209,0,2.485-0.256,3.829-0.768c1.141-0.427,1.924-0.992,2.35-1.696
	c0.313-0.533,0.549-1.451,0.705-2.752c0.09-0.832,0.135-1.354,0.135-1.567c0-0.235-0.168-0.555-0.504-0.96
	c-0.269-0.32-0.525-0.63-0.771-0.929l0.973-2.111c0.516,1.088,1.209,1.61,2.082,1.567v2.145H24.326z"/>
<path fill="#FFFFFF" d="M24.594,25.346h2.787c1.881-2.304,3.594-3.936,5.139-4.896c1.857-1.194,3.358-1.792,4.5-1.792
	c0.717,0,1.31,0.319,1.779,0.96c0.381,0.555,0.571,1.194,0.571,1.92c0,2.283-1.612,3.936-4.835,4.96
	c-2.172,0.661-4.781,0.992-7.825,0.992c-0.134,0.299-0.358,0.65-0.672,1.056c-0.403,0.512-0.661,0.843-0.772,0.992l-0.504-0.288
	l1.143-1.76h-1.311V25.346z M37.926,22.626c0-0.768-0.604-1.152-1.813-1.152c-1.702,0-3.18,0.342-4.434,1.024
	c-0.918,0.512-2.06,1.461-3.425,2.848h1.31c1.724,0,3.548-0.325,5.474-0.976C36.963,23.72,37.926,23.138,37.926,22.626z
	 M31.613,14.434l-1.243,2.08l-1.948-1.344l1.243-2.048L31.613,14.434z"/>
</svg>
