<?xml version="1.0" encoding="utf-8"?>
<!-- Generator: Adobe Illustrator 16.0.0, SVG Export Plug-In . SVG Version: 6.00 Build 0)  -->
<!DOCTYPE svg PUBLIC "-//W3C//DTD SVG 1.1//EN" "http://www.w3.org/Graphics/SVG/1.1/DTD/svg11.dtd">
<svg version="1.1" id="Layer_1" xmlns="http://www.w3.org/2000/svg" xmlns:xlink="http://www.w3.org/1999/xlink" x="0px" y="0px"
	 width="51px" height="48px" viewBox="0 0 51 48" enable-background="new 0 0 51 48" xml:space="preserve">
<rect display="none" fill="#C9720A" width="51" height="48"/>
<path fill="#FFFFFF" d="M29.223,14.352c0.021,0.149,0.201,1.014,0.537,2.592c1.029,4.672,1.545,7.691,1.545,9.057
	c0,1.045-0.225,1.983-0.672,2.815c-0.582,1.046-1.365,1.568-2.352,1.568c-0.648,0-1.617,0.037-2.904,0.111
	c-1.288,0.075-2.255,0.112-2.905,0.112h-1.511c-1.366,0-2.306-0.042-2.821-0.128c-1.343-0.171-2.015-0.586-2.015-1.248
	c0-0.768,0.19-1.589,0.571-2.464h0.403c-0.022,0.576,0.185,0.96,0.622,1.152c0.437,0.191,1.953,0.288,4.55,0.288
	c0.94,0,2.294-0.043,4.063-0.129c2.262-0.128,3.492-0.271,3.694-0.432c0.201-0.16,0.302-0.378,0.302-0.656
	c0-0.49-0.224-1.92-0.672-4.288c-0.447-2.111-1.086-5.279-1.914-9.504c-0.179-0.17-0.414-0.479-0.705-0.928
	c0.381-0.896,0.885-1.568,1.512-2.016c0.089,0.598,0.369,1.109,0.84,1.536c0.47,0.427,1.018,0.672,1.645,0.735l-1.242,2.08
	l-0.537-0.256H29.223z M19.285,22.646l-0.351-1.242h2.506l0.351,1.242H19.285z M24.25,15.801c-0.101,0.486-0.196,0.844-0.288,1.075
	c-0.05,0.12-0.176,0.215-0.376,0.287c-0.226,0.088-0.564,0.215-1.016,0.382c-1.354,0.438-2.006,0.733-1.956,0.884
	c0.025,0.096,0.271,0.247,0.74,0.454c1.295,0.565,2.081,1.327,2.357,2.282c0.05,0.175,0.075,0.335,0.075,0.478
	c0,0.669-0.627,1.003-1.88,1.003h-0.69l-0.351-1.242c1.697,0,2.503-0.139,2.42-0.418c-0.042-0.176-0.519-0.53-1.429-1.063
	c-0.209-0.119-0.397-0.179-0.564-0.179c-0.084,0-0.205-0.048-0.364-0.144c-0.159-0.095-0.264-0.183-0.313-0.262
	c-0.101-0.127-0.188-0.335-0.264-0.622c-0.108-0.382-0.163-0.625-0.163-0.728c0-0.072,0.008-0.132,0.025-0.18
	c0.092-0.247,0.689-0.625,1.793-1.135C22.934,16.259,23.681,15.968,24.25,15.801z"/>
</svg>
