<?xml version="1.0" encoding="utf-8"?>
<!-- Generator: Adobe Illustrator 19.2.0, SVG Export Plug-In . SVG Version: 6.00 Build 0)  -->
<svg version="1.1" id="Layer_1" xmlns="http://www.w3.org/2000/svg" xmlns:xlink="http://www.w3.org/1999/xlink" x="0px" y="0px"
	 viewBox="0 0 16.5 24.5" style="enable-background:new 0 0 16.5 24.5;" xml:space="preserve">
<style type="text/css">
	.st0{fill:#010101;}
</style>
<g>
	<path class="st0" d="M16.4,20.3v4.3H0c0.1-1.7,0.4-3,0.7-4c0.5-1.5,1.5-2.9,3-4.1c3.3-2.2,5.5-3.9,6.6-5.2c0.9-1,1.4-2.2,1.4-3.5
		c0-2.6-1.1-3.9-3.3-3.9c-1,0-1.8,0.3-2.4,1c-0.7,0.7-1,1.7-1,3.1v0.9H0.4C0.3,6,0.9,3.8,2.3,2.3C3.7,0.8,5.6,0,8.2,0
		c2.8,0,4.9,0.8,6.4,2.3c1.2,1.3,1.8,3,1.8,4.9c0,1.7-0.4,3.1-1.1,4.3c-0.6,1-1.6,2.1-3.1,3.2c-1.1,0.9-2.3,1.7-3.4,2.6
		c-1.5,1.2-2.4,2.2-2.7,2.9H16.4z"/>
</g>
</svg>
