<?xml version="1.0" encoding="utf-8"?>
<!-- Generator: Adobe Illustrator 22.0.1, SVG Export Plug-In . SVG Version: 6.00 Build 0)  -->
<svg version="1.1" id="Layer_1" xmlns="http://www.w3.org/2000/svg" xmlns:xlink="http://www.w3.org/1999/xlink" x="0px" y="0px"
	 viewBox="0 0 86.2 86.2" style="enable-background:new 0 0 86.2 86.2;" xml:space="preserve">
<style type="text/css">
	.st0{fill:#235958;}
</style>
<g>
	<polygon class="st0" points="40.8,31.9 36,28.1 33.1,33.1 38.1,36.8 	"/>
	<path class="st0" d="M55.3,41.2h-1.1h-0.4c-1.6,0-2.6-0.2-3.3-0.7C49.9,40,49,38.8,48,36.7c-1.6,3.4-2.8,5.9-3.6,7.5
		c0.1,0.4,0.6,1.3,1.8,2.7c1.1,1.4,1.7,2.7,1.7,4c0,0.3,0,0.7-0.1,1.2c-0.1,0.6-0.1,1-0.1,1.2c0,5.4-4.6,8.1-13.7,8.1
		c-7.2,0-10.9-2.7-10.9-8.2c0-2,0.9-4.9,2.6-8.6l-1.2-0.4c-1.1,1.8-2.2,4.4-3.3,7.6c-1.2,3.5-1.8,6.1-1.8,8c0,3.2,1.2,5.7,3.7,7.4
		c2.2,1.6,5,2.3,8.3,2.3c5.1,0,9.2-1.1,12-3.4c2.9-2.3,4.9-5.9,6.2-10.9c0.5-2.3,0.9-4.2,1-5.8h3.6h1.1h13.3V41H55.3V41.2z"/>
</g>
</svg>
