<?xml version="1.0" encoding="utf-8"?>
<!-- Generator: Adobe Illustrator 22.0.1, SVG Export Plug-In . SVG Version: 6.00 Build 0)  -->
<svg version="1.1" id="Layer_1" xmlns="http://www.w3.org/2000/svg" xmlns:xlink="http://www.w3.org/1999/xlink" x="0px" y="0px"
	 viewBox="0 0 86.2 86.2" style="enable-background:new 0 0 86.2 86.2;" xml:space="preserve">
<style type="text/css">
	.st0{fill:#235958;}
</style>
<g>
	<path class="st0" d="M43.3,16L43,19.6c-0.6-0.4-1.6-1-3-1.9c-2.9,3.6-5.4,5.4-7.5,5.4c-0.5,0-1.2-0.1-2.3-0.4c2.4-1.3,5-3.2,8-5.9
		c-1.6-1.3-2.3-2.4-2.3-3.5c0-1.3,0.5-2.7,1.4-4.2s2-2.3,3.2-2.3c1.6,0,2.4,1.1,2.4,3.3c0,1.6-0.4,3.1-1.1,4.5
		C42.4,15.2,42.9,15.6,43.3,16z M40.7,12.6c0-0.5-0.2-1-0.6-1.6c-0.4-0.6-0.8-0.8-1.3-0.8s-0.8,0.3-0.8,1c0,0.5,0.9,1.3,2.6,2.6
		C40.7,13.1,40.7,12.8,40.7,12.6z"/>
</g>
<g>
	<polygon class="st0" points="53,28.4 48.1,24.7 45.3,29.7 50.2,33.3 	"/>
	<path class="st0" d="M51.2,35.9c-2.4,4.6-3.5,7.3-3.5,8.3c0,0.7,0.5,1.6,1.4,2.7c0.9,1.1,1.4,1.7,1.4,2c0,1.3-1.7,1.9-5.1,1.9h-1.2
		h-2H29.6v8.4h12.5h2h0.6c3.2,0,5.6-1.3,7.2-4c1.3-2.3,2-5.1,2-8.5C54,43.6,53.1,40,51.2,35.9z"/>
</g>
</svg>
