<?xml version="1.0" encoding="utf-8"?>
<!-- Generator: Adobe Illustrator 19.2.0, SVG Export Plug-In . SVG Version: 6.00 Build 0)  -->
<svg version="1.1" id="Layer_1" xmlns="http://www.w3.org/2000/svg" xmlns:xlink="http://www.w3.org/1999/xlink" x="0px" y="0px"
	 viewBox="0 0 29 25.9" style="enable-background:new 0 0 29 25.9;" xml:space="preserve">
<style type="text/css">
	.st0{opacity:0.75;}
	.st1{fill:#FFFFFF;}
</style>
<g>
	<g class="st0">
		<path d="M29.1,12.6c-1.7-4.3-6.5-6.5-14.2-6.5h-3.6V2c0-0.3-0.1-0.5-0.3-0.7c-0.2-0.2-0.4-0.3-0.7-0.3C10,0.9,9.7,1,9.5,1.2
			L1.2,9.5C1,9.7,0.9,10,0.9,10.2S1,10.8,1.2,11l8.3,8.3c0.2,0.2,0.4,0.3,0.7,0.3c0.3,0,0.5-0.1,0.7-0.3c0.2-0.2,0.3-0.4,0.3-0.7
			v-4.1h3.6c1.1,0,2,0,2.8,0.1c0.8,0.1,1.7,0.2,2.5,0.3c0.8,0.2,1.5,0.4,2.2,0.7c0.6,0.3,1.2,0.7,1.7,1.1c0.5,0.5,1,1,1.3,1.6
			c0.3,0.6,0.6,1.4,0.8,2.2c0.2,0.9,0.3,1.8,0.3,2.9c0,0.6,0,1.3-0.1,2c0,0.1,0,0.2,0,0.4c0,0.2,0,0.3,0,0.4c0,0.2,0,0.3,0.1,0.4
			c0.1,0.1,0.2,0.2,0.4,0.2c0.2,0,0.3-0.1,0.5-0.3c0.1-0.1,0.1-0.2,0.2-0.4c0.1-0.1,0.1-0.3,0.2-0.5c0.1-0.2,0.1-0.3,0.2-0.4
			c1.4-3.1,2.1-5.5,2.1-7.3C29.9,15.9,29.6,14.1,29.1,12.6L29.1,12.6z M29.1,12.6"/>
	</g>
	<g>
		<g>
			<path class="st1" d="M28.1,11.7C26.4,7.4,21.7,5.2,14,5.2h-3.6V1c0-0.3-0.1-0.5-0.3-0.7C9.8,0.1,9.6,0,9.3,0C9,0,8.8,0.1,8.6,0.3
				L0.3,8.6C0.1,8.8,0,9,0,9.3C0,9.6,0.1,9.8,0.3,10l8.3,8.3c0.2,0.2,0.4,0.3,0.7,0.3c0.3,0,0.5-0.1,0.7-0.3
				c0.2-0.2,0.3-0.4,0.3-0.7v-4.1H14c1.1,0,2,0,2.8,0.1c0.8,0.1,1.7,0.2,2.5,0.3c0.8,0.2,1.5,0.4,2.2,0.7c0.6,0.3,1.2,0.7,1.7,1.1
				c0.5,0.5,1,1,1.3,1.6c0.3,0.6,0.6,1.4,0.8,2.2c0.2,0.9,0.3,1.8,0.3,2.9c0,0.6,0,1.3-0.1,2c0,0.1,0,0.2,0,0.4c0,0.2,0,0.3,0,0.4
				c0,0.2,0,0.3,0.1,0.4c0.1,0.1,0.2,0.2,0.4,0.2c0.2,0,0.3-0.1,0.5-0.3c0.1-0.1,0.1-0.2,0.2-0.4c0.1-0.1,0.1-0.3,0.2-0.5
				c0.1-0.2,0.1-0.3,0.2-0.4c1.4-3.1,2.1-5.5,2.1-7.3C29,14.9,28.7,13.1,28.1,11.7L28.1,11.7z M28.1,11.7"/>
		</g>
	</g>
</g>
</svg>
