<?xml version="1.0" encoding="utf-8"?>
<!-- Generator: Adobe Illustrator 23.0.2, SVG Export Plug-In . SVG Version: 6.00 Build 0)  -->
<svg version="1.1" id="Layer_1" xmlns="http://www.w3.org/2000/svg" xmlns:xlink="http://www.w3.org/1999/xlink" x="0px" y="0px"
	 viewBox="0 0 36.6 28.6" style="enable-background:new 0 0 36.6 28.6;" xml:space="preserve">
<g>
	<path d="M18.3,8.3c0.8,0,1.4-0.6,1.4-1.4s-0.6-1.4-1.4-1.4c-0.8,0-1.4,0.6-1.4,1.4S17.5,8.3,18.3,8.3z"/>
	<path d="M21.1,21.3c-0.1,0-1,0-1.5-0.5c-0.2-0.2-0.5-0.5-0.5-1.3v-7.2c0-0.5-0.4-0.9-0.9-0.9s-0.9,0.4-0.9,0.9v7.2
		c0,0.8-0.3,1.1-0.5,1.3c-0.5,0.5-1.4,0.5-1.5,0.5l-10.1,0v1.8h10l0.1,0c0.4,0,1.7-0.1,2.7-1c0,0,0.1-0.1,0.1-0.1
		c0,0,0.1,0.1,0.1,0.1c1,0.9,2.3,1,2.7,1l0.1,0h10v-1.8L21.1,21.3z"/>
</g>
</svg>
