<?xml version="1.0" encoding="utf-8"?>
<!-- Generator: Adobe Illustrator 22.1.0, SVG Export Plug-In . SVG Version: 6.00 Build 0)  -->
<svg version="1.1" id="objects" xmlns="http://www.w3.org/2000/svg" xmlns:xlink="http://www.w3.org/1999/xlink" x="0px" y="0px"
	 viewBox="0 0 195.2 201.2" style="enable-background:new 0 0 195.2 201.2;" xml:space="preserve">
<style type="text/css">
	.st0{opacity:0.1;}
	.st1{fill:#38C3A8;}
	.st2{opacity:0.5;fill:#38C3A8;}
	.st3{opacity:0.2;fill:#FFFFFF;}
</style>
<g>
	<g>
		<g>
			<g class="st0">
				<ellipse transform="matrix(0.2048 -0.9788 0.9788 0.2048 -23.7972 177.9262)" cx="97.6" cy="103.6" rx="97.6" ry="97.6"/>
			</g>
			<g>
				
					<ellipse transform="matrix(0.2048 -0.9788 0.9788 0.2048 -17.9245 173.1552)" class="st1" cx="97.6" cy="97.6" rx="97.6" ry="97.6"/>
			</g>
		</g>
		<g>
			<path class="st2" d="M173.6,36.4c7.7,14.1,12.1,30.1,12.1,47.1c0,54.3-45.3,99.7-99.7,99.7c-24.3,0-46.7-9-64.2-23.9
				c17.9,22,45.2,36,75.7,36c53.9,0,97.6-43.7,97.6-97.6C195.2,74.4,187.1,53.1,173.6,36.4z"/>
			<path class="st3" d="M6.8,106.9c0,0,0-0.6,0-1.7c0-0.6,0-1.3,0-2.1c0-0.8,0-1.8,0-2.8c0-1.1,0.1-2.2,0.1-3.5
				c0.1-1.3,0.2-2.6,0.4-4.1c0.3-2.9,0.8-6.2,1.5-9.8c0.4-1.8,0.9-3.6,1.3-5.5c0.3-0.9,0.6-1.9,0.9-2.9c0.3-1,0.6-2,0.9-3
				c0.3-1,0.7-2,1.1-3c0.4-1,0.8-2,1.2-3c0.8-2.1,1.8-4.1,2.8-6.2C19,55.1,21.4,51,24.2,47c2.8-4,5.9-7.8,9.3-11.4
				c3.4-3.6,7.1-7,10.8-10.1c3.8-3.1,7.8-5.8,11.9-8.1c1-0.5,2.1-1.1,3.1-1.6c0.5-0.3,1-0.5,1.5-0.8c0.5-0.2,1-0.4,1.6-0.7
				c1-0.4,2.1-0.9,3.1-1.3c1-0.4,2.1-0.7,3.1-1.1c1-0.4,2-0.7,3-0.9c1-0.3,2-0.6,3-0.8c2-0.4,3.9-0.9,5.7-1.2
				C84,8.5,87.4,8.2,90.4,8c1.5,0,2.9-0.1,4.2-0.1C95.9,8,97.1,8,98.1,8.1c1.1,0,2,0.1,2.8,0.3c0.8,0.1,1.5,0.2,2.1,0.3
				c1.1,0.2,1.7,0.3,1.7,0.3c0.2,0,0.4,0.2,0.3,0.5c0,0.2-0.2,0.3-0.3,0.3l0,0c0,0-0.6,0.1-1.7,0.3c-1.1,0.2-2.7,0.4-4.8,0.9
				c-1,0.2-2.1,0.5-3.4,0.7c-1.2,0.3-2.5,0.6-3.9,1c-1.4,0.4-2.9,0.8-4.4,1.2c-0.8,0.2-1.6,0.5-2.3,0.7c-0.8,0.3-1.6,0.5-2.4,0.8
				c-1.7,0.5-3.4,1.2-5.1,1.8c-1.7,0.7-3.5,1.4-5.3,2.2c-3.6,1.5-7.4,3.4-11.2,5.4c-3.8,2.1-7.6,4.3-11.4,6.8
				c-3.8,2.6-7.4,5.5-10.8,8.6c-3.4,3.2-6.5,6.6-9.4,10.2c-2.8,3.6-5.4,7.4-7.6,11.1c-2.2,3.8-4.1,7.6-5.7,11.3
				c-0.4,0.9-0.8,1.8-1.1,2.8c-0.4,0.9-0.7,1.8-1,2.7c-0.6,1.8-1.2,3.6-1.7,5.3c-1,3.4-1.7,6.6-2.3,9.4c-0.2,1.4-0.5,2.8-0.7,4
				c-0.2,1.2-0.3,2.4-0.4,3.4c-0.1,1-0.2,2-0.3,2.8c-0.1,0.8-0.1,1.5-0.1,2.1c-0.1,1.1-0.1,1.7-0.1,1.7c0,0.2-0.2,0.4-0.4,0.4
				C7,107.3,6.8,107.1,6.8,106.9z"/>
		</g>
	</g>
</g>
</svg>
