<?xml version="1.0" encoding="utf-8"?>
<!-- Generator: Adobe Illustrator 22.1.0, SVG Export Plug-In . SVG Version: 6.00 Build 0)  -->
<svg version="1.1" id="Isolation_Mode" xmlns="http://www.w3.org/2000/svg" xmlns:xlink="http://www.w3.org/1999/xlink" x="0px"
	 y="0px" viewBox="0 0 40 55.6" style="enable-background:new 0 0 40 55.6;" xml:space="preserve">
<style type="text/css">
	.st0{opacity:0.2;}
	.st1{clip-path:url(#SVGID_2_);}
	.st2{fill:#F8B133;stroke:#F29100;stroke-miterlimit:10;}
	.st3{opacity:0.35;}
	.st4{fill:#FFFFFF;}
</style>
<g>
	<g class="st0">
		<g>
			<defs>
				<rect id="SVGID_1_" x="0.5" y="4.5" width="39" height="51.1"/>
			</defs>
			<clipPath id="SVGID_2_">
				<use xlink:href="#SVGID_1_"  style="overflow:visible;"/>
			</clipPath>
			<path class="st1" d="M8,5c10.4,6.8,20,14.6,29.9,22.1c2.1,1.6,2.1,4.4,0,5.9c-9.9,7.6-19.6,15.5-30.2,22.1
				C5.3,56.7,1.3,54,1,51.1C0.2,36.9,0.3,23.2,1.3,9C1.6,6,5.6,3.4,8,5"/>
		</g>
	</g>
	<path class="st2" d="M8,1c10.4,6.8,20,14.6,29.9,22.1c2.1,1.6,2.1,4.4,0,5.9c-9.9,7.6-19.6,15.5-30.2,22.1C5.3,52.7,1.3,50,1,47.1
		C0.2,32.9,0.3,19.2,1.3,5C1.6,2,5.6-0.6,8,1"/>
	<g id="XMLID_1_" class="st3">
		<path id="XMLID_3_" class="st4" d="M18.6,17c1.4-1.9,0.4-5.3-2.2-7.8c-2.6-2.4-5.8-2.9-7.2-1c-1.4,1.9,0.9,2.6,3.4,5.1
			C15.3,15.7,17.3,18.9,18.6,17z"/>
		<path id="XMLID_2_" class="st4" d="M8.4,8.1c0.2-0.9-0.2-1.9-1.2-2.2C6.2,5.6,5,6.1,4.8,7C4.6,8,5.3,9,6.2,9.2
			C7.2,9.5,8.2,9,8.4,8.1z"/>
	</g>
</g>
</svg>
