<?xml version="1.0" encoding="utf-8"?>
<!-- Generator: Adobe Illustrator 22.0.1, SVG Export Plug-In . SVG Version: 6.00 Build 0)  -->
<svg version="1.1" id="Layer_1" xmlns="http://www.w3.org/2000/svg" xmlns:xlink="http://www.w3.org/1999/xlink" x="0px" y="0px"
	 viewBox="0 0 86.2 86.2" style="enable-background:new 0 0 86.2 86.2;" xml:space="preserve">
<style type="text/css">
	.st0{fill:#235958;}
</style>
<g>
	<path class="st0" d="M67.6,48.5c0,2.1-0.2,3.8-0.6,4.9c-0.4,1.1-1.1,2.2-2.1,3.1c-3.5,3.1-8.5,5.6-15.2,7.3
		C44.2,65.2,38.6,66,32.9,66c-4.4,0-8-0.8-10.8-2.6c-3.3-2.1-4.9-5.2-4.9-9.4c0-2.2,0.4-4.2,1.2-5.9c0.5-1.3,1.6-3,3.2-5.2l0.9,0.6
		c-1.3,2.5-2,4.4-2,5.6c0,2.7,1.9,4.7,5.8,6.1c2.8,1,5.8,1.5,9.1,1.5c7.6,0,14.6-1.2,20.7-3.5c6.2-2.3,9.3-4.9,9.3-7.8
		c0-0.9-0.4-2.2-1.1-3.8c-0.9,2.1-1.7,3.6-2.4,4.3c-1.1,1.2-2.5,1.8-4.3,1.8c-3.4,0-5.1-1.6-5.1-4.9c0-1.6,0.3-3.4,1-5.4
		c0.7-1.7,1.4-3.4,2.1-5.2c1.2-3.2,2.7-4.9,4.5-4.9c2.7,0,4.7,3,6.1,8.9C67.1,40.3,67.6,44.4,67.6,48.5z M58.3,20.4l-2.8,5l-4.9-3.8
		l3-5L58.3,20.4z M61,37c-1-1-1.9-1.4-2.7-1.4c-0.4,0-0.7,0.2-1.1,0.6c-0.3,0.4-0.5,0.7-0.5,1.1c0,1.1,0.6,1.7,1.8,1.7
		C59.5,38.9,60.4,38.3,61,37z"/>
</g>
</svg>
