<?xml version="1.0" encoding="utf-8"?>
<!-- Generator: Adobe Illustrator 22.0.1, SVG Export Plug-In . SVG Version: 6.00 Build 0)  -->
<svg version="1.1" id="Layer_1" xmlns="http://www.w3.org/2000/svg" xmlns:xlink="http://www.w3.org/1999/xlink" x="0px" y="0px"
	 viewBox="0 0 102.3 72.3" style="enable-background:new 0 0 102.3 72.3;" xml:space="preserve">
<style type="text/css">
	.st0{fill:#235958;}
	.st1{fill:#EF5316;}
</style>
<g>
	<path class="st0" d="M37.3,50.4h-3.7c-3.2,0-5.4-3.3-6.8-10.1c0,1.8,0.2,4.4,0.5,7.8c0.3,3.4,0.5,6,0.5,7.8c0,5.2-1.4,9.2-4.3,12.1
		c-2.8,2.8-6.9,4.3-12.1,4.3c-3.4,0-6.2-0.9-8.2-2.7C1.1,67.8,0,65.2,0,61.8c0-4.5,1.7-9.6,5-15.4L6.1,47c-2,3.8-3.1,6.9-3.1,9.2
		c0,4.4,3.3,6.7,9.8,6.7c8.4,0,12.6-2.5,12.6-7.5c0-2.1-0.2-4.6-0.6-7.6c-0.4-2.6-0.7-5.1-1-7.7c-0.2-1.3-0.3-3.7-0.5-7.2
		c-0.5-11.7-0.8-17.2-0.8-16.6c0-1.7,0.4-3.4,1.2-5c0.3-0.6,1.3-2.1,2.8-4.4c0.2,5.9,0.5,11.8,0.7,17.6c0.6,8.9,1.7,14.3,3.3,16.1
		c0.8,1,2.1,1.4,3.9,1.4h2.7v8.4H37.3z"/>
	<path class="st0" d="M79.1,50.4h-7.2c-6.8,0-10.2-2-10.2-6c0-1.3,0.5-3.3,1.4-6.1c-3.4,0.5-6.3,1.4-8.5,2.6
		c-1.4,0.8-3.8,2.4-7.2,5.1c-1.1,0.9-2.8,2-5.1,3.5c-1.1,0.6-1.9,0.9-2.3,0.9h-3.7V42h2.6c4.1-0.2,8.7-1.7,14-4.4
		c-3.1-1.6-5.5-2.3-7.2-2.3c-1.1,0-1.9,0.5-2.5,1.4h-5c0.8-3.1,1.6-5.3,2.4-6.7c1.4-2.1,3.4-3.1,6-3.1c1.6,0,4,0.6,7.1,1.8
		c5,1.9,9.4,2.9,13.3,2.9c0.6,0,1.6-0.1,2.8-0.2c1.2-0.1,2.2-0.2,2.8-0.2l-1,6.5c-2.5,0.2-4.3,0.4-5.6,0.6c0.8,1.6,1.7,2.7,2.9,3.1
		c0.9,0.4,2.4,0.6,4.3,0.6h6L79.1,50.4L79.1,50.4z M62.4,19.6l-2.8,5L54.7,21l3-5L62.4,19.6z"/>
	<path class="st1" d="M90.5,11.2c0,1.9-0.6,3.3-1.8,4l-10.9,6.2c0-1.1,0.2-2,0.5-2.4c0.3-0.5,1-1,2-1.6L90.5,11.2z"/>
	<path class="st1" d="M92.4,50.4H77.9V42h14.5V50.4L92.4,50.4z"/>
	<path class="st1" d="M102.3,37.9c0,3.4-0.7,6.3-2,8.5c-1.6,2.7-4,4-7.2,4h-2.7V42h3.2c3.4,0,5.1-0.6,5.1-1.9c0-0.3-0.5-0.9-1.4-2
		s-1.4-2-1.4-2.7c0-1,1.2-3.7,3.5-8.3C101.4,31.3,102.3,34.9,102.3,37.9z M101.3,19.6l-2.8,4.9l-4.9-3.6l2.8-5L101.3,19.6z"/>
</g>
<g>
	<path class="st0" d="M56,6.7c0,1.6-0.5,3-1.6,4.2c-1.1,1.2-2.5,1.8-4.1,1.8c-2.7,0-4-1.5-4-4.5c0-1.9,0.4-3.5,1.1-4.8
		c1-1.5,2.3-2.3,4.1-2.3c1.3,0,2.4,0.6,3.2,1.8C55.6,4.1,56,5.4,56,6.7z M53.9,7.7c0-0.6-0.5-1.3-1.6-2.1c-1.1-0.8-2-1.2-2.6-1.2
		s-1.1,0.3-1.6,0.8c-0.5,0.6-0.7,1.1-0.7,1.7c0,1.5,1.1,2.2,3.3,2.2C52.9,9.2,53.9,8.7,53.9,7.7z"/>
</g>
</svg>
