<?xml version="1.0" encoding="utf-8"?>
<!-- Generator: Adobe Illustrator 22.0.1, SVG Export Plug-In . SVG Version: 6.00 Build 0)  -->
<svg version="1.1" id="Layer_1" xmlns="http://www.w3.org/2000/svg" xmlns:xlink="http://www.w3.org/1999/xlink" x="0px" y="0px"
	 viewBox="0 0 86.2 86.2" style="enable-background:new 0 0 86.2 86.2;" xml:space="preserve">
<style type="text/css">
	.st0{fill:#235958;}
</style>
<path class="st0" d="M56.8,50.6L56.8,50.6c-3.2,0.1-5.7,0.2-7.3,0.3c1.5-1.7,2.5-3,3-4c0.7-1.4,1-3,1-4.9c0-2.2-0.7-4-2.1-5.4
	c-1.4-1.4-3.2-2.1-5.4-2.1c-4.2,0-9.1,3.9-14.7,11.8c0.6-3.2,0.9-6.2,0.9-8.8c0-1.2-0.2-3.1-0.6-5.6S31,27.5,31,26.4
	c0-0.8,0.1-1.4,0.2-1.7l1.5,0.7l3.5-6.1c-1.9,0.3-3.5-0.2-4.9-1.6s-2.1-3-2.3-4.9c-1.8,0.9-3,2.9-3.7,6c0.2,0.5,0.4,0.9,0.8,1.4
	c0,2.8,0.6,6.9,1.7,12.4c1.2,5.5,1.7,9.5,1.7,12.3c0,1.3-0.5,3.2-1.4,5.6c-1.5,0.2-2.7,0.3-3.5,0.3c-1.6,0-5-0.3-10.2-1
	c3.8,5.3,6.2,8.2,7.4,8.7c0.8,0.4,2.1,0.6,4,0.6c6.4,0,11.4-0.8,15.1-2.3c1.1,1.6,5.2,2.3,12.2,2.3h3.5H59h12.2v-8.4L56.8,50.6
	L56.8,50.6z M42.2,49.1c-3.9,0.8-7.1,1.1-9.7,1.1c2.5-2.5,4.4-4.2,5.8-5.2c2.4-1.7,4.8-2.5,7.2-2.5c1,0,1.9,0.2,2.7,0.6
	c1.1,0.6,1.6,1.3,1.6,2.3C49.8,46.8,47.3,48,42.2,49.1z"/>
</svg>
