<?xml version="1.0" encoding="utf-8"?>
<!-- Generator: Adobe Illustrator 23.0.2, SVG Export Plug-In . SVG Version: 6.00 Build 0)  -->
<svg version="1.1" id="Layer_1" xmlns="http://www.w3.org/2000/svg" xmlns:xlink="http://www.w3.org/1999/xlink" x="0px" y="0px"
	 viewBox="0 0 36.6 28.6" style="enable-background:new 0 0 36.6 28.6;" xml:space="preserve">
<style type="text/css">
	.st0{fill:#FFFFFF;}
</style>
<g>
	<g>
		<path class="st0" d="M14.9,18.6c-0.6,0-1.1,0.5-1.1,1.1c0,0.6,0.5,1.1,1.1,1.1c0.6,0,1.1-0.5,1.1-1.1C16,19.1,15.5,18.6,14.9,18.6
			"/>
	</g>
	<g>
		<path class="st0" d="M20.6,16.2H8.2c-3.6,0-4.5-2.8-4.5-4.5c0-1.8,0.2-3.1,0.2-3.3c0,0,0,0,0,0c0.1-0.4,0.4-0.6,0.8-0.6
			C5,7.9,5.3,8.3,5.2,8.6l0,0c0,0,0,0,0,0C5.2,8.8,5,10,5,11.7c0,0.1,0,1,0.4,1.7c0.5,0.9,1.4,1.4,2.7,1.4h12.4
			c1.3,0,2.2-0.5,2.7-1.5c0.4-0.8,0.5-1.6,0.5-1.7c0-1.1,0-2.9,0-3.1c0-0.4,0.2-0.7,0.6-0.7c0.4,0,0.7,0.2,0.8,0.6
			c0,0.1,0,0.2,0,3.2c0,0,0,0,0,0c0,0,0,1.1-0.6,2.2C24,15,22.8,16.2,20.6,16.2z M23.7,8.6C23.7,8.7,23.7,8.7,23.7,8.6
			C23.7,8.7,23.7,8.7,23.7,8.6z"/>
	</g>
	<g>
		<path class="st0" d="M32.2,16.2h-4c-2.3,0-3.4-1.2-3.9-2.3c-0.6-1.1-0.6-2.2-0.6-2.2c0,0,0,0,0,0c0-3.1,0-3.2,0-3.2
			c0-0.4,0.4-0.6,0.8-0.6c0.4,0,0.6,0.4,0.6,0.7c0,0.2,0,2,0,3.1c0,0.1,0.1,0.9,0.5,1.7c0.5,1,1.4,1.5,2.7,1.5h4
			c0.4,0,0.7,0.3,0.7,0.7C32.9,15.9,32.6,16.2,32.2,16.2z M25.1,8.6C25.1,8.7,25.1,8.7,25.1,8.6C25.1,8.7,25.1,8.7,25.1,8.6z"/>
	</g>
</g>
</svg>
