<?xml version="1.0" encoding="utf-8"?>
<!-- Generator: Adobe Illustrator 19.2.0, SVG Export Plug-In . SVG Version: 6.00 Build 0)  -->
<svg version="1.1" id="Layer_1" xmlns="http://www.w3.org/2000/svg" xmlns:xlink="http://www.w3.org/1999/xlink" x="0px" y="0px"
	 viewBox="0 0 340.8 54.8" style="enable-background:new 0 0 340.8 54.8;" xml:space="preserve">
<style type="text/css">
	.st0{fill:#BA0017;}
	.st1{fill:none;}
</style>
<g>
	<g>
		<path d="M135.2,21.7c0,0.5-0.2,0.9-0.5,1.2c-0.3,0.4-0.8,0.6-1.3,0.6c-0.4,0-0.7-0.1-0.9-0.3c-0.2-0.2-0.3-0.5-0.3-0.9
			c0-0.6,0.1-1.1,0.4-1.5s0.7-0.7,1.1-0.7c0.4,0,0.7,0.2,1,0.5S135.2,21.3,135.2,21.7z M134.5,22c0-0.2-0.1-0.4-0.4-0.7
			c-0.3-0.3-0.5-0.4-0.7-0.4c-0.2,0-0.4,0.1-0.5,0.3c-0.1,0.2-0.2,0.3-0.2,0.5c0,0.3,0.1,0.4,0.4,0.5c0.2,0.1,0.5,0.1,0.8,0.1
			c0.2,0,0.3,0,0.5-0.1C134.4,22.3,134.5,22.2,134.5,22z"/>
		<path d="M137.4,32.2h-1.3c-1.2,0-2.3,0.1-3.3,0.3c-1.2,0.3-1.8,0.7-1.8,1.3c0,0.5,0.1,1,0.3,1.6c0.2,0.6,0.3,1.1,0.5,1.7
			c0.2,0.6,0.3,1.1,0.3,1.6c0,0.3,0,0.5-0.1,0.8s-0.1,0.5-0.2,0.9c-0.2-0.6-0.4-1.2-0.6-1.9c-0.4-1.2-0.6-2.1-0.8-2.7
			c-0.3-1-0.4-1.5-0.4-1.7c0-1,0.2-1.7,0.6-2.2c0.4-0.5,1-0.9,1.8-1.1c0.7-0.2,1.7-0.4,3-0.5c-0.5-0.5-0.8-0.8-0.9-0.9
			c-0.4-0.3-0.8-0.4-1.2-0.4c-0.2,0-0.5,0.1-0.7,0.2c-0.2,0.1-0.4,0.3-0.7,0.6l-0.5-0.3c0.2-0.6,0.5-1,0.8-1.3
			c0.5-0.6,1-0.8,1.7-0.8c0.5,0,0.9,0.2,1.4,0.5c0.4,0.3,0.8,0.7,1.2,1.2c0.2,0.2,0.5,0.7,0.9,1.3V32.2z"/>
		<path d="M143.9,19.6c0,0.1,0,0.3,0,0.4s0,0.3-0.1,0.4l-0.9-0.6c-0.4,0.4-0.6,0.7-0.8,0.8c-0.6,0.5-1,0.8-1.4,0.8h-0.8
			c0.4-0.2,0.9-0.5,1.4-0.9c0.5-0.4,0.8-0.7,1.1-1c-0.2-0.1-0.4-0.3-0.5-0.4c-0.1-0.2-0.2-0.4-0.2-0.6c0-0.5,0.1-0.9,0.4-1.3
			c0.3-0.4,0.6-0.6,0.9-0.6c0.2,0,0.4,0.1,0.5,0.3c0.2,0.2,0.2,0.5,0.2,0.8c0,0.1,0,0.3-0.1,0.4s-0.1,0.4-0.3,0.8
			c0.1,0.1,0.2,0.2,0.4,0.3C143.8,19.4,143.9,19.5,143.9,19.6z M143,18.4c0-0.2-0.1-0.4-0.2-0.6c-0.1-0.2-0.3-0.3-0.4-0.3
			c-0.1,0-0.1,0-0.2,0.1c0,0.1-0.1,0.1-0.1,0.2c0,0.2,0.1,0.3,0.3,0.5l0.5,0.4C143,18.5,143,18.4,143,18.4z"/>
		<path d="M156.9,32.2h-13.5c-0.4,0-0.8-0.1-1.2-0.2c-0.3-0.1-0.6-0.3-1-0.5c-0.3,0.3-0.6,0.5-0.9,0.6c-0.3,0.1-0.8,0.2-1.5,0.2
			h-2.2v-2h2.2c0.6,0,1-0.1,1.3-0.2c0.4-0.2,0.7-0.5,0.7-1c0-0.2,0-0.4,0-0.7c0-0.2-0.1-0.5-0.1-0.7l0.5-0.7c0.3,1,0.6,1.8,1.1,2.4
			c0.5,0.6,1.1,0.9,1.7,0.9c0.6,0,1.4-0.1,2.2-0.4c0.9-0.3,1.7-0.7,2.4-1.2c1.1-0.8,1.7-1.2,2-1.4c0.6-0.4,1.2-0.7,1.7-0.8
			c0.6-0.2,1.2-0.3,1.8-0.3c1,0,1.8,0.3,2.3,0.9c0.5,0.5,0.7,1.3,0.7,2.3V32.2z M155.1,29.3c0-0.4-0.2-0.7-0.7-0.9
			c-0.5-0.2-1-0.3-1.6-0.3c-0.7,0-1.7,0.3-2.7,0.8c-0.8,0.4-1.7,0.9-2.5,1.3h5.2c0.8,0,1.4-0.1,1.8-0.2
			C154.9,29.8,155.1,29.6,155.1,29.3z"/>
		<path class="st0" d="M173.2,31.5c0,1.2-0.5,2.5-1.4,3.7c-1,1.4-2.2,2-3.5,2c-0.5,0-1-0.1-1.5-0.2c-0.4-0.1-0.9-0.2-1.5-0.4
			c-0.5-0.2-1-0.3-1.5-0.5l0.2-0.4c0.4,0.1,0.9,0.2,1.3,0.3c0.5,0.1,0.9,0.2,1.2,0.2c0.9,0,1.8-0.2,2.6-0.7c0.6-0.4,1.3-0.9,1.9-1.6
			c0.3-0.4,0.8-0.9,1.4-1.7c-1,0-1.8-0.2-2.3-0.5c-0.6-0.4-0.9-1-0.9-1.8c0-0.8,0.2-1.5,0.5-2.1c0.4-0.8,1-1.1,1.6-1.1
			c0.7,0,1.1,0.4,1.4,1.1c0.2,0.6,0.3,1.4,0.3,2.5V31.5z M172.5,30.3c-0.2-0.7-0.4-1.2-0.6-1.5c-0.2-0.2-0.4-0.4-0.7-0.4
			c-0.2,0-0.4,0.1-0.5,0.2s-0.2,0.3-0.2,0.5c0,0.4,0.2,0.6,0.5,0.8C171.2,30.2,171.8,30.3,172.5,30.3z"/>
		<path d="M185.3,16.7c0,0.6-0.1,1-0.3,1.4c-0.2,0.4-0.5,0.6-0.9,0.6c-0.1,0-0.3,0-0.4-0.1s-0.2-0.1-0.4-0.2
			c-0.1,0.3-0.3,0.5-0.4,0.6c-0.2,0.2-0.5,0.4-0.8,0.4c-0.3,0-0.5-0.1-0.7-0.3c-0.2-0.2-0.2-0.5-0.2-0.9c0-0.2,0-0.4,0.1-0.6
			c0-0.1,0.1-0.3,0.2-0.6l0.2-0.1c0,0.1,0,0.2,0,0.3s0,0.2,0,0.3c0,0.2,0,0.3,0.1,0.4c0.1,0.1,0.2,0.2,0.3,0.2
			c0.3,0,0.6-0.2,0.8-0.6c0.1-0.2,0.2-0.6,0.3-1.1l0.2-0.1c0.1,0.4,0.1,0.6,0.1,0.7c0.1,0.2,0.2,0.3,0.4,0.3c0.3,0,0.5-0.2,0.7-0.6
			c0.1-0.3,0.2-0.6,0.2-1l0.2-0.1c0,0.1,0.1,0.3,0.1,0.5C185.3,16.4,185.3,16.6,185.3,16.7z M185.1,19.1c0,0.4-0.2,0.7-0.6,1
			c-0.7,0.3-1.8,0.7-3.3,1.3c0-0.3,0.2-0.6,0.5-0.9C182.4,20.3,183.5,19.8,185.1,19.1z"/>
		<path d="M191.2,30.8c0,1.2-0.3,2.1-0.8,2.9c-0.5,0.6-1.2,1.1-2.2,1.3c-0.8,0.2-1.9,0.3-3.1,0.3c-1.4,0-2.6-0.3-3.4-0.8
			c-0.9-0.6-1.3-1.5-1.3-2.6c0-0.6,0.1-1.3,0.3-2c0.2-0.6,0.4-1.2,0.7-1.9c0.2-0.5,0.5-1.1,0.9-1.8l0.4,0.2c-0.3,0.5-0.5,1-0.7,1.3
			c-0.2,0.5-0.4,1-0.5,1.4c-0.1,0.5-0.2,1-0.2,1.5c0,0.9,0.3,1.6,1,2.1s1.6,0.7,2.8,0.7c1.3,0,2.4-0.2,3.5-0.7
			c1.2-0.5,1.8-1.1,1.8-1.7c0-0.7-0.1-2-0.3-3.7c-0.2-1.3-0.4-2.8-0.7-4.5l-0.4-2.2l-0.5-0.3c0-1,0.2-1.9,0.6-2.7h0.2
			c0,0.3,0.1,0.5,0.2,0.6s0.2,0.2,0.4,0.3c0.2,0.1,0.5,0.2,0.8,0.3c0.2,0.1,0.4,0.2,0.5,0.3c0,0.5,0,0.9-0.1,1.1
			c0,0.2-0.1,0.6-0.2,1l-0.6-0.2c0,0.2,0.1,0.9,0.3,2.3c0.2,1.6,0.4,2.8,0.5,3.8C191.2,28.7,191.2,29.9,191.2,30.8z"/>
		<path d="M198.2,18.8c0,0.3-0.2,0.7-0.6,1c-0.7,0.3-1.8,0.7-3.3,1.3c0-0.3,0.2-0.6,0.5-0.9C195.5,20,196.6,19.5,198.2,18.8z"/>
		<path d="M210.7,32.2h-13.5c-0.4,0-0.8-0.1-1.2-0.2c-0.3-0.1-0.6-0.3-1-0.5c-0.3,0.3-0.6,0.5-0.9,0.6c-0.3,0.1-0.8,0.2-1.5,0.2
			h-2.2v-2h2.2c0.6,0,1-0.1,1.3-0.2c0.4-0.2,0.7-0.5,0.7-1c0-0.2,0-0.4,0-0.7c0-0.2-0.1-0.5-0.1-0.7l0.5-0.7c0.3,1,0.6,1.8,1.1,2.4
			c0.5,0.6,1.1,0.9,1.7,0.9c0.6,0,1.4-0.1,2.2-0.4c0.9-0.3,1.7-0.7,2.4-1.2c1.1-0.8,1.7-1.2,2-1.4c0.6-0.4,1.2-0.7,1.7-0.8
			c0.6-0.2,1.2-0.3,1.8-0.3c1,0,1.8,0.3,2.3,0.9c0.5,0.5,0.7,1.3,0.7,2.3V32.2z M208.9,29.3c0-0.4-0.2-0.7-0.7-0.9
			c-0.5-0.2-1-0.3-1.6-0.3c-0.7,0-1.7,0.3-2.7,0.8c-0.8,0.4-1.7,0.9-2.5,1.3h5.2c0.8,0,1.4-0.1,1.8-0.2
			C208.7,29.8,208.9,29.6,208.9,29.3z"/>
	</g>
	<rect x="0" y="0" class="st1" width="340.8" height="54.8"/>
</g>
</svg>
