<?xml version="1.0" encoding="utf-8"?>
<!-- Generator: Adobe Illustrator 19.2.0, SVG Export Plug-In . SVG Version: 6.00 Build 0)  -->
<svg version="1.1" id="Layer_1" xmlns="http://www.w3.org/2000/svg" xmlns:xlink="http://www.w3.org/1999/xlink" x="0px" y="0px"
	 viewBox="0 0 340.8 54.8" style="enable-background:new 0 0 340.8 54.8;" xml:space="preserve">
<style type="text/css">
	.st0{fill:#BA0017;}
	.st1{fill:none;}
</style>
<g>
	<g>
		<path d="M65.3,11.9c0,0.3,0,0.5-0.1,0.8c-0.1,0.2-0.2,0.5-0.4,0.7c0.1,0.1,0.2,0.2,0.3,0.2c0.1,0.1,0.1,0.2,0.1,0.3
			c0,0.4,0,0.7-0.1,1l-1-0.8c-0.3,0.4-0.7,0.7-1.2,0.9c-0.5,0.3-1.1,0.4-1.8,0.4c0.3-0.5,0.5-0.8,0.5-0.8c0.1-0.2,0.1-0.4,0.1-0.6
			s0-0.3-0.1-0.5s-0.2-0.2-0.3-0.2c-0.1,0-0.3,0.1-0.4,0.3c-0.1,0.1-0.2,0.2-0.3,0.5c0.1-0.5,0.1-0.9,0.2-1.1
			c0.1-0.4,0.4-0.6,0.7-0.6c0.3,0,0.5,0.1,0.6,0.4c0.1,0.2,0.2,0.5,0.2,0.8c0,0.2,0,0.3,0,0.5c-0.1,0.2-0.1,0.4-0.1,0.5
			c0.5-0.2,1-0.4,1.5-0.8c-0.1-0.1-0.3-0.2-0.4-0.4C63.1,13.3,63,13,63,12.8c0-0.4,0.1-0.7,0.4-1.1c0.3-0.4,0.7-0.6,1.1-0.6
			c0.2,0,0.4,0.1,0.5,0.2C65.2,11.5,65.3,11.7,65.3,11.9z M64.5,12.5c0-0.2,0-0.3-0.1-0.5c-0.1-0.1-0.2-0.2-0.4-0.2
			c-0.2,0-0.2,0.1-0.2,0.3c0,0.1,0.1,0.3,0.2,0.4c0,0,0.2,0.2,0.4,0.4C64.4,12.8,64.5,12.7,64.5,12.5z"/>
		<path d="M67.4,31.2h-1.6c-0.5,0-1-0.5-1.4-1.4c-0.3-0.7-0.6-1.6-0.7-2.7c-0.2,0.4-0.5,0.7-0.9,1c-0.3,0.2-0.7,0.3-1.1,0.3
			c-0.9,0-1.6-0.1-2.2-0.2c-0.6-0.1-0.9-0.3-0.9-0.4c0-0.6,0.4-1.4,1.3-2.1c0.8-0.8,1.9-1.5,3.1-2c0-0.1,0-0.2-0.1-0.5
			c0-0.3-0.1-0.4-0.1-0.5c0-0.3,0.1-0.5,0.3-0.9c0.1-0.3,0.3-0.5,0.6-0.8c0.1,0.5,0.2,0.9,0.2,1.3c0.1,0.4,0.2,0.9,0.3,1.3l0.3,1.9
			c0.2,1.1,0.4,1.8,0.5,2.4c0.2,0.8,0.5,1.2,0.7,1.2h1.6V31.2z M62,18.7l-0.9,1.6l-1.8-0.9l0.8-1.6L62,18.7z M63.5,26.1l-0.2-1.2
			c-0.7,0.2-1.2,0.5-1.5,0.7c-0.4,0.3-0.7,0.6-0.9,1c0.2,0.1,0.3,0.1,0.6,0.2c0.2,0,0.5,0.1,0.9,0.1C62.6,26.8,63.1,26.6,63.5,26.1z
			 M64.5,17.7l-0.9,1.6l-1.8-1l0.8-1.6L64.5,17.7z"/>
		<path d="M74.3,17.8c0,0.3-0.2,0.7-0.6,1c-0.7,0.3-1.8,0.7-3.3,1.3c0-0.3,0.2-0.6,0.5-0.9C71.6,19,72.7,18.5,74.3,17.8z"/>
		<path d="M78.2,27.6l-0.8,2c-1.1,0.4-2.4,0.8-3.9,1c-1.5,0.3-2.9,0.4-4.1,0.4h-2.8v-2h2.7c-0.2-0.4-0.4-0.8-0.5-1.2
			c-0.1-0.4-0.2-0.9-0.2-1.3c0-0.9,0.4-1.6,1.1-2.2c0.7-0.6,1.7-0.9,2.8-0.9c0.9,0,1.7,0.2,2.3,0.7c0.3,0.2,0.7,0.6,1.3,1.4
			l-0.2,0.2c-0.5-0.1-1-0.2-1.4-0.3c-0.4-0.1-0.8-0.1-1.3-0.1c-1,0-1.8,0.1-2.4,0.3s-0.9,0.5-0.9,0.9c0,0.4,0.2,0.8,0.6,1.2
			c0.4,0.5,0.8,0.9,1.4,1.2c1.2-0.2,2.2-0.4,3-0.5C75.7,28.4,76.8,28.1,78.2,27.6z"/>
		<path d="M89.4,30.5c0,1.2-0.5,2.5-1.4,3.7c-1,1.4-2.2,2-3.5,2c-0.5,0-1-0.1-1.5-0.2c-0.4-0.1-0.9-0.2-1.5-0.4
			c-0.5-0.2-1-0.3-1.5-0.5l0.2-0.4c0.4,0.1,0.9,0.2,1.3,0.3c0.5,0.1,0.9,0.2,1.2,0.2c0.9,0,1.8-0.2,2.6-0.7c0.6-0.4,1.3-0.9,1.9-1.6
			c0.3-0.4,0.8-0.9,1.4-1.7c-1,0-1.8-0.2-2.3-0.5c-0.6-0.4-0.9-1-0.9-1.8c0-0.8,0.2-1.5,0.5-2.1c0.4-0.8,1-1.1,1.6-1.1
			c0.7,0,1.1,0.4,1.4,1.1c0.2,0.6,0.3,1.4,0.3,2.5V30.5z M88.7,29.3c-0.2-0.7-0.4-1.2-0.6-1.5c-0.2-0.2-0.4-0.4-0.7-0.4
			c-0.2,0-0.4,0.1-0.5,0.2s-0.2,0.3-0.2,0.5c0,0.4,0.2,0.6,0.5,0.8C87.4,29.2,88,29.3,88.7,29.3z"/>
		<path d="M95.8,18.6c0,0.1,0,0.3,0,0.4s0,0.3-0.1,0.4l-0.9-0.6c-0.4,0.4-0.6,0.7-0.8,0.8c-0.6,0.5-1,0.8-1.4,0.8h-0.8
			c0.4-0.2,0.9-0.5,1.4-0.9c0.5-0.4,0.8-0.7,1.1-1c-0.2-0.1-0.4-0.3-0.5-0.4c-0.1-0.2-0.2-0.4-0.2-0.6c0-0.5,0.1-0.9,0.4-1.3
			c0.3-0.4,0.6-0.6,0.9-0.6c0.2,0,0.4,0.1,0.5,0.3c0.2,0.2,0.2,0.5,0.2,0.8c0,0.1,0,0.3-0.1,0.4s-0.1,0.4-0.3,0.8
			c0.1,0.1,0.2,0.2,0.4,0.3C95.8,18.4,95.8,18.5,95.8,18.6z M95,17.4c0-0.2-0.1-0.4-0.2-0.6c-0.1-0.2-0.3-0.3-0.4-0.3
			c-0.1,0-0.1,0-0.2,0.1c0,0.1-0.1,0.1-0.1,0.2c0,0.2,0.1,0.3,0.3,0.5l0.5,0.4C95,17.5,95,17.4,95,17.4z"/>
		<path d="M101.6,31.2h-0.9c-0.5,0-0.9-0.1-1.2-0.2s-0.7-0.3-0.9-0.6c-0.4,0.3-0.7,0.5-0.9,0.5c-0.4,0.1-0.9,0.2-1.6,0.2h-0.7
			c-0.4,0-0.8-0.1-1.2-0.2c-0.3-0.1-0.6-0.3-0.9-0.5c-0.4,0.3-0.7,0.5-1,0.6c-0.3,0.1-0.8,0.2-1.5,0.2h-2.2v-2h2.2
			c0.6,0,1-0.1,1.3-0.2c0.4-0.2,0.7-0.5,0.7-1c0-0.2,0-0.4,0-0.7c0-0.2-0.1-0.5-0.1-0.7L93,26c0.2,0.7,0.4,1.2,0.5,1.5
			c0.2,0.5,0.5,1,0.8,1.2c0.3,0.3,0.8,0.5,1.2,0.5h0.8c0.6,0,1-0.1,1.2-0.3c0.3-0.2,0.4-0.5,0.4-0.9c0-0.2,0-0.5,0-0.7
			c0-0.2-0.1-0.5-0.1-0.7l0.5-0.7l0.2,1.1c0.2,0.8,0.4,1.4,0.7,1.7c0.3,0.3,0.6,0.4,1,0.4c0.2,0,0.4-0.1,0.5-0.2
			c0.1-0.1,0.2-0.3,0.2-0.5c0-0.4-0.2-0.9-0.5-1.3c-0.1-0.1-0.2-0.3-0.6-0.7l0.7-1.2c0.3,0.5,0.5,0.9,0.6,1.2c0.2,0.5,0.2,1.2,0.2,2
			V31.2z"/>
		<path d="M110.8,18.5c0,0.5-0.2,0.9-0.5,1.2c-0.3,0.4-0.8,0.6-1.3,0.6c-0.4,0-0.7-0.1-0.9-0.3c-0.2-0.2-0.3-0.5-0.3-0.9
			c0-0.6,0.1-1.1,0.4-1.5s0.7-0.7,1.1-0.7c0.4,0,0.7,0.2,1,0.5S110.8,18,110.8,18.5z M110.1,18.8c0-0.2-0.1-0.4-0.4-0.7
			c-0.3-0.3-0.5-0.4-0.7-0.4c-0.2,0-0.4,0.1-0.5,0.3c-0.1,0.2-0.2,0.3-0.2,0.5c0,0.3,0.1,0.4,0.4,0.5c0.2,0.1,0.5,0.1,0.8,0.1
			c0.2,0,0.3,0,0.5-0.1C110.1,19,110.1,18.9,110.1,18.8z"/>
		<path d="M111.6,30.5c0,1.2-0.5,2.5-1.4,3.7c-1,1.4-2.2,2-3.5,2c-0.5,0-1-0.1-1.5-0.2c-0.4-0.1-0.9-0.2-1.5-0.4
			c-0.5-0.2-1-0.3-1.5-0.5l0.2-0.4c0.4,0.1,0.9,0.2,1.3,0.3c0.5,0.1,0.9,0.2,1.2,0.2c0.9,0,1.8-0.2,2.6-0.7c0.6-0.4,1.3-0.9,1.9-1.6
			c0.3-0.4,0.8-0.9,1.4-1.7c-1,0-1.8-0.2-2.3-0.5c-0.6-0.4-0.9-1-0.9-1.8c0-0.8,0.2-1.5,0.5-2.1c0.4-0.8,1-1.1,1.6-1.1
			c0.7,0,1.1,0.4,1.4,1.1c0.2,0.6,0.3,1.4,0.3,2.5V30.5z M110.8,29.3c-0.2-0.7-0.4-1.2-0.6-1.5c-0.2-0.2-0.4-0.4-0.7-0.4
			c-0.2,0-0.4,0.1-0.5,0.2s-0.2,0.3-0.2,0.5c0,0.4,0.2,0.6,0.5,0.8C109.6,29.2,110.1,29.3,110.8,29.3z"/>
		<path d="M117.9,17.8c0,0.3-0.2,0.7-0.6,1c-0.7,0.3-1.8,0.7-3.3,1.3c0-0.3,0.2-0.6,0.5-0.9C115.2,19,116.3,18.5,117.9,17.8z"/>
		<path d="M120.6,31.2h-1.2c-0.5,0-1.1-0.1-1.7-0.3c-0.7-0.3-1.4-0.6-1.9-1.1c-0.4,0.5-0.9,0.9-1.3,1.1s-1.1,0.3-2,0.3h-1.8v-2h1.7
			c0.7,0,1.3-0.2,1.8-0.5c0.4-0.3,0.8-0.6,1.1-1.1c0.5-0.7,1-1.2,1.7-1.7c0.6-0.4,1.1-0.7,1.7-0.8c0.5,0.8,0.9,1.5,1.2,2.1
			c0.4,0.9,0.6,1.5,0.6,2.1V31.2z M119.3,28.9c-0.1-0.4-0.2-0.9-0.4-1.3c-0.2-0.4-0.4-0.7-0.7-1.1c-0.4,0.1-0.7,0.3-0.9,0.5
			c-0.2,0.2-0.4,0.4-0.6,0.8c0.3,0.3,0.6,0.6,1.1,0.8c0.5,0.2,1,0.4,1.4,0.4L119.3,28.9z"/>
		<path d="M132.5,18.5c0,0.5-0.2,0.9-0.5,1.2c-0.3,0.4-0.8,0.6-1.3,0.6c-0.4,0-0.7-0.1-0.9-0.3c-0.2-0.2-0.3-0.5-0.3-0.9
			c0-0.6,0.1-1.1,0.4-1.5s0.7-0.7,1.1-0.7c0.4,0,0.7,0.2,1,0.5S132.5,18,132.5,18.5z M131.9,18.8c0-0.2-0.1-0.4-0.4-0.7
			c-0.3-0.3-0.5-0.4-0.7-0.4c-0.2,0-0.4,0.1-0.5,0.3c-0.1,0.2-0.2,0.3-0.2,0.5c0,0.3,0.1,0.4,0.4,0.5c0.2,0.1,0.5,0.1,0.8,0.1
			c0.2,0,0.3,0,0.5-0.1C131.8,19,131.9,18.9,131.9,18.8z"/>
		<path class="st0" d="M138.7,29.8c0,1.2-0.3,2.1-0.8,2.9c-0.5,0.6-1.2,1.1-2.2,1.3c-0.8,0.2-1.9,0.3-3.1,0.3
			c-1.4,0-2.6-0.3-3.4-0.8c-0.9-0.6-1.3-1.5-1.3-2.6c0-0.6,0.1-1.3,0.3-2c0.2-0.6,0.4-1.2,0.7-1.9c0.2-0.5,0.5-1.1,0.9-1.8l0.4,0.2
			c-0.3,0.5-0.5,1-0.7,1.3c-0.2,0.5-0.4,1-0.5,1.4c-0.1,0.5-0.2,1-0.2,1.5c0,0.9,0.3,1.6,1,2.1s1.6,0.7,2.8,0.7
			c1.3,0,2.4-0.2,3.5-0.7c1.2-0.5,1.8-1.1,1.8-1.7c0-0.7-0.1-2-0.3-3.7c-0.2-1.3-0.4-2.8-0.7-4.5l-0.4-2.2l-0.5-0.3
			c0-1,0.2-1.9,0.6-2.7h0.2c0,0.3,0.1,0.5,0.2,0.6s0.2,0.2,0.4,0.3c0.2,0.1,0.5,0.2,0.8,0.3c0.2,0.1,0.4,0.2,0.5,0.3
			c0,0.5,0,0.9-0.1,1.1c0,0.2-0.1,0.6-0.2,1l-0.6-0.2c0,0.2,0.1,0.9,0.3,2.3c0.2,1.6,0.4,2.8,0.5,3.8
			C138.6,27.7,138.7,28.9,138.7,29.8z"/>
		<path class="st0" d="M144.5,17.8c0,0.3-0.2,0.7-0.6,1c-0.7,0.3-1.8,0.7-3.3,1.3c0-0.3,0.2-0.6,0.5-0.9
			C141.8,19,142.9,18.5,144.5,17.8z"/>
		<path class="st0" d="M144.3,31.2h-6.4v-2h5.6c0-0.9-0.1-1.6-0.3-2c-0.1-0.3-0.5-0.8-1.1-1.4L143,24c0.5,0.7,0.9,1.2,1,1.6
			c0.2,0.6,0.3,1.5,0.3,2.9V31.2z M143.1,33.9l-0.9,1.6l-1.8-0.9l0.8-1.6L143.1,33.9z"/>
		<path d="M156.6,18.6c0,0.3,0,0.5-0.1,0.8c-0.1,0.2-0.2,0.5-0.4,0.7c0.1,0.1,0.2,0.2,0.3,0.2c0.1,0.1,0.1,0.2,0.1,0.3
			c0,0.4,0,0.7-0.1,1l-1-0.8c-0.3,0.4-0.7,0.7-1.2,0.9c-0.5,0.3-1.1,0.4-1.8,0.4c0.3-0.5,0.5-0.8,0.5-0.8c0.1-0.2,0.1-0.4,0.1-0.6
			s0-0.3-0.1-0.5s-0.2-0.2-0.3-0.2c-0.1,0-0.3,0.1-0.4,0.3c-0.1,0.1-0.2,0.2-0.3,0.5c0.1-0.5,0.1-0.9,0.2-1.1
			c0.1-0.4,0.4-0.6,0.7-0.6c0.3,0,0.5,0.1,0.6,0.4c0.1,0.2,0.2,0.5,0.2,0.8c0,0.2,0,0.3,0,0.5c-0.1,0.2-0.1,0.4-0.1,0.5
			c0.5-0.2,1-0.4,1.5-0.8c-0.1-0.1-0.3-0.2-0.4-0.4c-0.2-0.2-0.3-0.4-0.3-0.7c0-0.4,0.1-0.7,0.4-1.1c0.3-0.4,0.7-0.6,1.1-0.6
			c0.2,0,0.4,0.1,0.5,0.2C156.5,18.3,156.6,18.4,156.6,18.6z M155.8,19.3c0-0.2,0-0.3-0.1-0.5c-0.1-0.1-0.2-0.2-0.4-0.2
			c-0.2,0-0.2,0.1-0.2,0.3c0,0.1,0.1,0.3,0.2,0.4c0,0,0.2,0.2,0.4,0.4C155.8,19.6,155.8,19.4,155.8,19.3z"/>
		<path d="M158.4,31.2h-1.3c-1.2,0-2.3,0.1-3.3,0.3c-1.2,0.3-1.8,0.7-1.8,1.3c0,0.5,0.1,1,0.3,1.6c0.2,0.6,0.3,1.1,0.5,1.7
			c0.2,0.6,0.3,1.1,0.3,1.6c0,0.3,0,0.5-0.1,0.8s-0.1,0.5-0.2,0.9c-0.2-0.6-0.4-1.2-0.6-1.9c-0.4-1.2-0.6-2.1-0.8-2.7
			c-0.3-1-0.4-1.5-0.4-1.7c0-1,0.2-1.7,0.6-2.2c0.4-0.5,1-0.9,1.8-1.1c0.7-0.2,1.7-0.4,3-0.5c-0.5-0.5-0.8-0.8-0.9-0.9
			c-0.4-0.3-0.8-0.4-1.2-0.4c-0.2,0-0.5,0.1-0.7,0.2c-0.2,0.1-0.4,0.3-0.7,0.6l-0.5-0.3c0.2-0.6,0.5-1,0.8-1.3
			c0.5-0.6,1-0.8,1.7-0.8c0.5,0,0.9,0.2,1.4,0.5c0.4,0.3,0.8,0.7,1.2,1.2c0.2,0.2,0.5,0.7,0.9,1.3V31.2z"/>
		<path d="M165.9,17.8c0,0.3-0.2,0.7-0.6,1c-0.7,0.3-1.8,0.7-3.3,1.3c0-0.3,0.2-0.6,0.5-0.9C163.2,19,164.3,18.5,165.9,17.8z"/>
		<path d="M170.6,31.2h-13v-2h9.2c-0.8-0.6-1.4-1.1-1.9-1.4c-0.7-0.4-1.2-0.7-1.8-0.9c-0.6-0.2-1.2-0.3-1.8-0.3
			c-0.4,0-0.8,0-1.2,0.1c0.2-0.6,0.5-1,0.9-1.3c0.5-0.5,1.2-0.7,1.9-0.7c0.8,0,1.7,0.4,2.7,1.1c0.5,0.4,1.4,1.1,2.5,2.1
			c0.9,0.8,1.5,1.3,1.8,1.3h0.7V31.2z M164.9,33.6l-0.8,1.6l-1.8-0.9l0.9-1.6L164.9,33.6z"/>
		<path d="M177.3,18.5c0,0.5-0.2,0.9-0.5,1.2c-0.3,0.4-0.8,0.6-1.3,0.6c-0.4,0-0.7-0.1-0.9-0.3c-0.2-0.2-0.3-0.5-0.3-0.9
			c0-0.6,0.1-1.1,0.4-1.5s0.7-0.7,1.1-0.7c0.4,0,0.7,0.2,1,0.5S177.3,18,177.3,18.5z M176.6,18.8c0-0.2-0.1-0.4-0.4-0.7
			c-0.3-0.3-0.5-0.4-0.7-0.4c-0.2,0-0.4,0.1-0.5,0.3c-0.1,0.2-0.2,0.3-0.2,0.5c0,0.3,0.1,0.4,0.4,0.5c0.2,0.1,0.5,0.1,0.8,0.1
			c0.2,0,0.3,0,0.5-0.1C176.5,19,176.6,18.9,176.6,18.8z"/>
		<path d="M179.7,31.2H178c-0.5,0-1-0.1-1.5-0.3c-0.6-0.3-1-0.7-1.3-1.2c-0.5,0.4-1.1,0.8-1.7,1c-0.8,0.3-1.7,0.5-2.7,0.5h-1v-2h1
			c0.6,0,1.2-0.1,1.8-0.2c0.6-0.2,1.2-0.4,1.8-0.8l-0.5-0.6c-0.2-0.3-0.5-0.4-0.8-0.4c-0.1,0-0.3,0-0.4,0.1c-0.1,0-0.2,0.2-0.3,0.3
			h-0.2v-0.7c0-0.8,0.2-1.4,0.7-1.7c0.4-0.3,1.1-0.4,2.1-0.4c0.8,0,1.5,0.1,2.1,0.3c0.7,0.3,1,0.7,1,1.3c0,0.3-0.1,0.7-0.4,1
			c-0.2,0.3-0.6,0.6-1.1,1.1c0.1,0.2,0.3,0.3,0.7,0.4c0.3,0.1,0.6,0.2,0.9,0.2h1.7V31.2z"/>
		<path d="M185.6,18.6c0,0.1,0,0.3,0,0.4s0,0.3-0.1,0.4l-0.9-0.6c-0.4,0.4-0.6,0.7-0.8,0.8c-0.6,0.5-1,0.8-1.4,0.8h-0.8
			c0.4-0.2,0.9-0.5,1.4-0.9c0.5-0.4,0.8-0.7,1.1-1c-0.2-0.1-0.4-0.3-0.5-0.4c-0.1-0.2-0.2-0.4-0.2-0.6c0-0.5,0.1-0.9,0.4-1.3
			c0.3-0.4,0.6-0.6,0.9-0.6c0.2,0,0.4,0.1,0.5,0.3c0.2,0.2,0.2,0.5,0.2,0.8c0,0.1,0,0.3-0.1,0.4s-0.1,0.4-0.3,0.8
			c0.1,0.1,0.2,0.2,0.4,0.3C185.5,18.4,185.6,18.5,185.6,18.6z M184.7,17.4c0-0.2-0.1-0.4-0.2-0.6c-0.1-0.2-0.3-0.3-0.4-0.3
			c-0.1,0-0.1,0-0.2,0.1c0,0.1-0.1,0.1-0.1,0.2c0,0.2,0.1,0.3,0.3,0.5l0.5,0.4C184.7,17.5,184.7,17.4,184.7,17.4z"/>
		<path d="M188.7,31.2h-1.2c-0.5,0-1.1-0.1-1.7-0.3c-0.7-0.3-1.4-0.6-1.9-1.1c-0.4,0.5-0.9,0.9-1.3,1.1s-1.1,0.3-2,0.3h-1.8v-2h1.7
			c0.7,0,1.3-0.2,1.8-0.5c0.4-0.3,0.8-0.6,1.1-1.1c0.5-0.7,1-1.2,1.7-1.7c0.6-0.4,1.1-0.7,1.7-0.8c0.5,0.8,0.9,1.5,1.2,2.1
			c0.4,0.9,0.6,1.5,0.6,2.1V31.2z M187.5,28.9c-0.1-0.4-0.2-0.9-0.4-1.3c-0.2-0.4-0.4-0.7-0.7-1.1c-0.4,0.1-0.7,0.3-0.9,0.5
			c-0.2,0.2-0.4,0.4-0.6,0.8c0.3,0.3,0.6,0.6,1.1,0.8c0.5,0.2,1,0.4,1.4,0.4L187.5,28.9z"/>
		<path d="M201.6,33.2c0,0.4-0.2,0.7-0.6,1c-0.7,0.3-1.8,0.7-3.3,1.3c0-0.3,0.2-0.6,0.5-0.9C198.9,34.3,200,33.8,201.6,33.2z"/>
		<path d="M211.5,31.2h-10.7c-1.4,0-2.6-0.3-3.4-0.8c-1.1-0.6-1.6-1.6-1.6-3c0-0.7,0.2-1.4,0.5-2.1c0.1-0.3,0.4-0.8,0.8-1.5l0.3,0.2
			c-0.2,0.3-0.3,0.7-0.5,1c-0.2,0.5-0.3,1-0.3,1.4c0,0.9,0.5,1.6,1.4,2.1c0.8,0.4,1.9,0.7,3.2,0.7h9.5v-0.3c0-0.8-0.1-1.5-0.3-2
			c-0.2-0.5-0.5-1-1-1.4l0.9-1.8c0.3,0.4,0.5,0.7,0.6,0.8c0.5,0.8,0.8,2.1,0.8,3.7V31.2z M205.1,33.9l-0.9,1.6l-1.8-0.9l0.8-1.6
			L205.1,33.9z"/>
		<path d="M219.1,17.8c0,0.3-0.2,0.7-0.6,1c-0.7,0.3-1.8,0.7-3.3,1.3c0-0.3,0.2-0.6,0.5-0.9C216.3,19,217.4,18.5,219.1,17.8z"/>
		<path d="M222.8,31.2c0,0.8-0.4,1.7-1.1,2.6c-0.6,0.8-1.4,1.4-2.3,2c-0.9,0.5-1.6,0.8-2.1,0.8c-0.5,0-1.1-0.1-1.7-0.2
			c-0.5-0.1-1-0.3-1.6-0.5c-0.5-0.2-1.1-0.4-1.6-0.6l0.2-0.4c0.5,0.1,1,0.2,1.5,0.3c0.5,0.1,1,0.2,1.5,0.2c1,0,2-0.3,3-0.9
			c0.9-0.6,1.7-1.3,2.4-2.1s1-1.6,1-2.3c0-0.6-0.2-1.2-0.5-1.9c-0.3-0.5-0.7-1.1-1.2-1.6l0.6-1.8c0.6,0.6,1.1,1.1,1.4,1.7
			c0.3,0.6,0.5,1.4,0.5,2.2V31.2z"/>
		<path d="M229.7,17.8c0,0.3-0.2,0.7-0.6,1c-0.7,0.3-1.8,0.7-3.3,1.3c0-0.3,0.2-0.6,0.5-0.9C227,19,228.1,18.5,229.7,17.8z"/>
		<path d="M231.8,31.2h-1.7c-0.5,0-1-0.1-1.5-0.3c-0.6-0.3-1-0.7-1.3-1.2c-0.5,0.4-1.1,0.8-1.7,1c-0.8,0.3-1.7,0.5-2.7,0.5h-1v-2h1
			c0.6,0,1.2-0.1,1.8-0.2c0.6-0.2,1.2-0.4,1.8-0.8l-0.5-0.6c-0.2-0.3-0.5-0.4-0.8-0.4c-0.1,0-0.3,0-0.4,0.1c-0.1,0-0.2,0.2-0.3,0.3
			h-0.2v-0.7c0-0.8,0.2-1.4,0.7-1.7c0.4-0.3,1.1-0.4,2.1-0.4c0.8,0,1.5,0.1,2.1,0.3c0.7,0.3,1,0.7,1,1.3c0,0.3-0.1,0.7-0.4,1
			c-0.2,0.3-0.6,0.6-1.1,1.1c0.1,0.2,0.3,0.3,0.7,0.4c0.3,0.1,0.6,0.2,0.9,0.2h1.7V31.2z"/>
		<path d="M236.6,31.2h-5.5v-2h4.4l-1.3-9.5l-0.6-0.3c0-0.5,0-1,0.1-1.5c0.1-0.5,0.2-0.9,0.4-1.3l0.2,0.1c0,0.4,0.2,0.8,0.7,1
			c0.4,0.2,0.8,0.3,1.1,0.4c0,0.4,0,0.8-0.1,1.2c-0.1,0.4-0.1,0.7-0.2,1l-0.5-0.2l1.3,8.8V31.2z"/>
		<path d="M240.4,28.3c0,0.6-0.1,1.2-0.3,1.7c-0.1,0.3-0.4,0.8-0.7,1.4l-0.2-0.1c0-0.2,0-0.5,0.1-0.8c0-0.3,0-0.5,0-0.6
			c0-0.8-0.1-1.9-0.2-3.3c-0.1-1.4-0.3-2.9-0.4-4.4c-0.1-0.9-0.2-1.9-0.3-2.8c0.2-0.3,0.3-0.7,0.5-1.1c0.2-0.4,0.4-0.7,0.5-1.1
			c0.1,0.9,0.3,2,0.5,3.5s0.3,2.8,0.4,4C240.3,26.4,240.4,27.5,240.4,28.3z"/>
		<path d="M255.6,18.6c0,0.1,0,0.3,0,0.4s0,0.3-0.1,0.4l-0.9-0.6c-0.4,0.4-0.6,0.7-0.8,0.8c-0.6,0.5-1,0.8-1.4,0.8h-0.8
			c0.4-0.2,0.9-0.5,1.4-0.9c0.5-0.4,0.8-0.7,1.1-1c-0.2-0.1-0.4-0.3-0.5-0.4c-0.1-0.2-0.2-0.4-0.2-0.6c0-0.5,0.1-0.9,0.4-1.3
			c0.3-0.4,0.6-0.6,0.9-0.6c0.2,0,0.4,0.1,0.5,0.3c0.2,0.2,0.2,0.5,0.2,0.8c0,0.1,0,0.3-0.1,0.4s-0.1,0.4-0.3,0.8
			c0.1,0.1,0.2,0.2,0.4,0.3C255.6,18.4,255.6,18.5,255.6,18.6z M254.8,17.4c0-0.2-0.1-0.4-0.2-0.6c-0.1-0.2-0.3-0.3-0.4-0.3
			c-0.1,0-0.1,0-0.2,0.1c0,0.1-0.1,0.1-0.1,0.2c0,0.2,0.1,0.3,0.3,0.5l0.5,0.4C254.7,17.5,254.8,17.4,254.8,17.4z"/>
		<path d="M259.9,31.2c0,1.7-0.5,2.9-1.5,3.7c-1.1,0.8-2.8,1.3-5.1,1.3c-1.5,0-2.6-0.3-3.4-0.8c-0.9-0.6-1.3-1.5-1.3-2.7
			c0-0.6,0.1-1.3,0.2-2c0.2-0.7,0.4-1.3,0.6-2c0.2-0.4,0.4-1,0.9-1.9l0.4,0.2c-0.5,1.1-0.9,1.9-1,2.5c-0.2,0.6-0.3,1.2-0.3,1.7
			c0,0.9,0.3,1.6,1,2.1c0.7,0.5,1.6,0.7,2.8,0.7c1.4,0,2.7-0.3,3.8-0.8c1.4-0.6,2-1.5,2-2.6c0-0.8-0.1-1.5-0.3-2.1
			c-0.2-0.6-0.5-1.1-0.8-1.5l0.9-2.3c0.4,0.6,0.7,1.2,0.8,1.9c0.1,0.6,0.2,1.5,0.2,2.5V31.2z M255.7,22.5l-0.8,1.6l-1.8-1l0.8-1.6
			L255.7,22.5z"/>
		<path d="M265.1,31.2h-1.6c-0.5,0-0.9-0.2-1.2-0.6c-0.3-0.4-0.5-0.9-0.6-1.6c-0.1-0.7-0.2-1.6-0.3-2.6c0-0.8-0.1-1.7-0.1-2.6
			c0-0.9-0.1-1.6-0.2-2c-0.1-0.5-0.2-0.8-0.3-1.1c-0.2-0.4-0.4-0.7-0.7-0.9l1.4-2.2c0.3,0.9,0.5,2,0.6,3.2c0.1,0.8,0.1,2.6,0.2,5.5
			c0.1,1.3,0.3,2.2,0.6,2.6c0.2,0.3,0.4,0.5,0.7,0.5h1.6V31.2z"/>
		<path d="M272.1,17.8c0,0.3-0.2,0.7-0.6,1c-0.7,0.3-1.8,0.7-3.3,1.3c0-0.3,0.2-0.6,0.5-0.9C269.4,19,270.5,18.5,272.1,17.8z"/>
		<path d="M277.3,31.2h-0.9c-0.5,0-0.9-0.1-1.2-0.2s-0.7-0.3-0.9-0.6c-0.4,0.3-0.7,0.5-0.9,0.5c-0.4,0.1-0.9,0.2-1.6,0.2h-0.7
			c-0.4,0-0.8-0.1-1.2-0.2c-0.3-0.1-0.6-0.3-0.9-0.5c-0.4,0.3-0.7,0.5-1,0.6c-0.3,0.1-0.8,0.2-1.5,0.2h-2.2v-2h2.2
			c0.6,0,1-0.1,1.3-0.2c0.4-0.2,0.7-0.5,0.7-1c0-0.2,0-0.4,0-0.7c0-0.2-0.1-0.5-0.1-0.7l0.5-0.7c0.2,0.7,0.4,1.2,0.5,1.5
			c0.2,0.5,0.5,1,0.8,1.2c0.3,0.3,0.8,0.5,1.2,0.5h0.8c0.6,0,1-0.1,1.2-0.3c0.3-0.2,0.4-0.5,0.4-0.9c0-0.2,0-0.5,0-0.7
			c0-0.2-0.1-0.5-0.1-0.7l0.5-0.7l0.2,1.1c0.2,0.8,0.4,1.4,0.7,1.7c0.3,0.3,0.6,0.4,1,0.4c0.2,0,0.4-0.1,0.5-0.2
			c0.1-0.1,0.2-0.3,0.2-0.5c0-0.4-0.2-0.9-0.5-1.3c-0.1-0.1-0.2-0.3-0.6-0.7l0.7-1.2c0.3,0.5,0.5,0.9,0.6,1.2c0.2,0.5,0.2,1.2,0.2,2
			V31.2z"/>
		<path d="M281.9,33.2c0,0.4-0.2,0.7-0.6,1c-0.7,0.3-1.8,0.7-3.3,1.3c0-0.3,0.2-0.6,0.5-0.9C279.1,34.3,280.3,33.8,281.9,33.2z"/>
		<path d="M282.1,31.2h-5.5v-2h4.4l-1.3-9.5l-0.6-0.3c0-0.5,0-1,0.1-1.5c0.1-0.5,0.2-0.9,0.4-1.3l0.2,0.1c0,0.4,0.2,0.8,0.7,1
			c0.4,0.2,0.8,0.3,1.1,0.4c0,0.4,0,0.8-0.1,1.2c-0.1,0.4-0.1,0.7-0.2,1l-0.5-0.2l1.3,8.8V31.2z"/>
	</g>
	<rect x="0" y="0" class="st1" width="340.8" height="54.8"/>
</g>
</svg>
