<?xml version="1.0" encoding="utf-8"?>
<!-- Generator: Adobe Illustrator 19.2.0, SVG Export Plug-In . SVG Version: 6.00 Build 0)  -->
<svg version="1.1" id="Layer_1" xmlns="http://www.w3.org/2000/svg" xmlns:xlink="http://www.w3.org/1999/xlink" x="0px" y="0px"
	 viewBox="0 0 340.6 54.3" style="enable-background:new 0 0 340.6 54.3;" xml:space="preserve">
<style type="text/css">
	.st0{fill:#BA0017;}
	.st1{fill:none;}
</style>
<g>
	<g>
		<path d="M74.2,17.9c0,0.1,0,0.3,0,0.4s0,0.3-0.1,0.4l-0.9-0.6c-0.4,0.4-0.6,0.7-0.8,0.8c-0.6,0.5-1,0.8-1.4,0.8h-0.8
			c0.4-0.2,0.9-0.5,1.4-0.9c0.5-0.4,0.8-0.7,1.1-1c-0.2-0.1-0.4-0.3-0.5-0.4c-0.1-0.2-0.2-0.4-0.2-0.6c0-0.5,0.1-0.9,0.4-1.3
			c0.3-0.4,0.6-0.6,0.9-0.6c0.2,0,0.4,0.1,0.5,0.3c0.2,0.2,0.2,0.5,0.2,0.8c0,0.1,0,0.3-0.1,0.4c0,0.2-0.1,0.4-0.3,0.8
			c0.1,0.1,0.2,0.2,0.4,0.3C74.2,17.7,74.2,17.8,74.2,17.9z M73.4,16.7c0-0.2-0.1-0.4-0.2-0.6c-0.1-0.2-0.3-0.3-0.4-0.3
			c-0.1,0-0.1,0-0.2,0.1c0,0.1-0.1,0.1-0.1,0.2c0,0.2,0.1,0.3,0.3,0.5l0.5,0.4C73.3,16.8,73.4,16.7,73.4,16.7z"/>
		<path d="M72.1,23.2l-0.9,1.6l-1.8-0.9l0.8-1.6L72.1,23.2z M75.7,29.4c0,1.1-0.2,1.8-0.5,2.4c-0.5,0.8-1.5,1.2-2.9,1.2
			c-0.5,0-1-0.1-1.4-0.3c-0.4-0.2-0.6-0.6-0.6-1.1c0-0.5,0.1-1.1,0.4-1.8c0.2-0.6,0.5-1.2,0.7-1.8l-0.2,0l0.7-1.9
			c1.4,0.7,2.2,1.2,2.4,1.3C75.2,28.1,75.7,28.7,75.7,29.4z M74.7,30.3c0-0.3-0.4-0.7-1.2-1.1c-0.4-0.2-0.7-0.4-1.1-0.6
			c-0.3,0.4-0.5,0.6-0.6,0.7c-0.2,0.3-0.3,0.6-0.3,0.8c0,0.4,0.1,0.7,0.3,0.9c0.2,0.2,0.5,0.3,0.9,0.3c0.4,0,0.9-0.1,1.4-0.4
			S74.7,30.5,74.7,30.3z M74.7,22.2l-0.9,1.6l-1.8-1l0.8-1.6L74.7,22.2z"/>
		<path d="M85.9,32c0,1.2-0.5,2.5-1.4,3.7c-1,1.4-2.2,2-3.5,2c-0.5,0-1-0.1-1.5-0.2c-0.4-0.1-0.9-0.2-1.5-0.4
			c-0.5-0.2-1-0.3-1.5-0.5l0.2-0.4c0.4,0.1,0.9,0.2,1.3,0.3c0.5,0.1,0.9,0.2,1.2,0.2c0.9,0,1.8-0.2,2.6-0.7c0.6-0.4,1.3-0.9,1.9-1.6
			c0.3-0.4,0.8-0.9,1.4-1.7c-1,0-1.8-0.2-2.3-0.5c-0.6-0.4-0.9-1-0.9-1.8c0-0.8,0.2-1.5,0.5-2.1c0.4-0.8,1-1.1,1.6-1.1
			c0.7,0,1.1,0.4,1.4,1.1c0.2,0.6,0.3,1.4,0.3,2.5V32z M85.2,30.8c-0.2-0.7-0.4-1.2-0.6-1.5c-0.2-0.2-0.4-0.4-0.7-0.4
			c-0.2,0-0.4,0.1-0.5,0.2s-0.2,0.3-0.2,0.5c0,0.4,0.2,0.6,0.5,0.8C83.9,30.7,84.4,30.8,85.2,30.8z"/>
		<path d="M91.3,20c0,0.5-0.2,0.9-0.5,1.2c-0.3,0.4-0.8,0.6-1.3,0.6c-0.4,0-0.7-0.1-0.9-0.3c-0.2-0.2-0.3-0.5-0.3-0.9
			c0-0.6,0.1-1.1,0.4-1.5c0.3-0.4,0.7-0.7,1.1-0.7c0.4,0,0.7,0.2,1,0.5S91.3,19.6,91.3,20z M90.6,20.3c0-0.2-0.1-0.4-0.4-0.7
			s-0.5-0.4-0.7-0.4c-0.2,0-0.4,0.1-0.5,0.3c-0.1,0.2-0.2,0.3-0.2,0.5c0,0.3,0.1,0.4,0.4,0.5c0.2,0.1,0.5,0.1,0.8,0.1
			c0.2,0,0.3,0,0.5-0.1S90.6,20.5,90.6,20.3z"/>
		<path d="M94.9,32.7h-4.1c0.5,0.2,0.9,0.5,1.2,1c0.4,0.5,0.6,1.1,0.6,1.7c0,0.6-0.1,1.1-0.3,1.4c-0.2,0.4-0.6,0.7-1.1,0.7
			c-0.9,0-1.7-0.3-2.5-0.9c-0.9-0.7-1.3-1.7-1.3-3l0-0.8h-2.5v-2h2.8c0.3-0.7,0.6-1.3,0.9-1.9c0.4-0.8,0.8-1.4,1.2-1.9
			c0.5-0.6,1-0.8,1.4-0.8c0.2,0,0.4,0.2,0.6,0.6s0.3,0.8,0.3,1.3c0,0.7-0.2,1.2-0.5,1.6c-0.2,0.2-0.8,0.6-1.8,1.1h4.9V32.7z
			 M91.7,35.2c0-0.6-0.4-1.2-1.3-1.7c-0.7-0.4-1.4-0.7-2.1-0.9c0,0.8,0.2,1.5,0.6,2c0.5,0.6,1.2,1,2.1,1c0.2,0,0.3,0,0.5-0.1
			S91.7,35.3,91.7,35.2z M91.2,28.8c0-0.7-0.1-1.1-0.4-1.1c-0.3,0-0.7,0.4-1.2,1.1c-0.2,0.3-0.5,0.9-0.9,1.7
			c0.7-0.2,1.3-0.4,1.7-0.7C91,29.5,91.2,29.2,91.2,28.8z"/>
		<path d="M100.2,16c0,0.3-0.2,0.7-0.6,1c-0.7,0.3-1.8,0.7-3.3,1.3c0-0.3,0.2-0.6,0.5-0.9C97.5,17.1,98.6,16.7,100.2,16z"/>
		<path d="M101,32.7h-6.8v-2H98c0.5,0,0.9,0,1.2,0c0.3,0,0.7-0.1,1.1-0.2c-1.3-0.2-2.1-0.4-2.5-0.5c-0.9-0.4-1.3-1-1.3-1.9
			c0-0.8,0.2-1.5,0.6-2.2c0.5-0.8,1-1.2,1.7-1.2c0.8,0,1.3,0.5,1.7,1.5c0.3,0.8,0.5,1.7,0.5,2.7V32.7z M97.9,20.9L97,22.4l-1.4-0.9
			l0.9-1.5L97.9,20.9z M100,28.8c-0.2-0.6-0.3-1-0.5-1.3c-0.3-0.6-0.7-0.8-1.1-0.8c-0.2,0-0.4,0.1-0.5,0.2c-0.2,0.2-0.2,0.4-0.2,0.6
			c0,0.6,0.3,1,0.9,1.1C98.7,28.6,99.2,28.7,100,28.8z M100.5,20.2l-1,1.5l-1.4-0.9l1-1.5L100.5,20.2z"/>
		<path d="M105.8,32.7h-5.5v-2h4.4l-1.3-9.5l-0.6-0.3c0-0.5,0-1,0.1-1.5s0.2-0.9,0.4-1.3l0.2,0.1c0,0.4,0.2,0.8,0.7,1
			c0.4,0.2,0.8,0.3,1.1,0.4c0,0.4,0,0.8-0.1,1.2c-0.1,0.4-0.1,0.7-0.2,1l-0.5-0.2l1.3,8.8V32.7z"/>
		<path d="M111,32.7h-1.6c-0.5,0-0.9-0.2-1.2-0.6c-0.3-0.4-0.5-0.9-0.6-1.6s-0.2-1.6-0.3-2.6c0-0.8-0.1-1.7-0.1-2.6s-0.1-1.6-0.2-2
			c-0.1-0.5-0.2-0.8-0.3-1.1c-0.2-0.4-0.4-0.7-0.7-0.9l1.4-2.2c0.3,0.9,0.5,2,0.6,3.2c0.1,0.8,0.1,2.6,0.2,5.5
			c0.1,1.3,0.3,2.2,0.6,2.6c0.2,0.3,0.4,0.5,0.7,0.5h1.6V32.7z"/>
		<path class="st0" d="M117.2,32.7h-6.9v-2h6c0-0.7-0.1-1.3-0.2-1.9c-0.4,0.1-0.7,0.2-0.9,0.3c-0.3,0.1-0.6,0.1-0.9,0.1
			c-0.5,0-1-0.1-1.3-0.4c-0.4-0.3-0.6-0.8-0.6-1.4c0-1,0.2-2,0.6-2.7c0.4-0.9,1-1.3,1.6-1.3c0.9,0,1.6,0.7,2.1,2.1
			c0.4,1.2,0.6,2.6,0.6,4.2V32.7z M115.7,20.3l-0.9,1.6l-1.8-1l0.8-1.6L115.7,20.3z M115.4,26.9c-0.1-0.3-0.3-0.5-0.5-0.8
			c-0.3-0.4-0.6-0.6-0.9-0.6c-0.2,0-0.4,0.1-0.5,0.3s-0.2,0.4-0.2,0.6c0,0.6,0.3,0.9,1,0.9c0.2,0,0.4,0,0.5-0.1
			C115,27.1,115.2,27,115.4,26.9z"/>
		<path d="M137.5,27c0,0.2,0,0.5-0.1,0.7c0,0.3-0.1,0.4-0.1,0.5c-0.3-0.3-0.6-0.6-0.9-0.8c-0.4-0.2-0.7-0.3-1.1-0.3
			c-0.7,0-1.3,0.4-2.1,1.1c-0.7,0.7-1,1.3-1,1.7c0,0.1,0.1,0.2,0.2,0.3c0.2,0.1,0.4,0.1,0.8,0.1h0.9c0.5,0,0.9,0,1.2,0
			c0.3,0,0.6,0,0.9,0.1c0.4,0.1,0.5,0.3,0.5,0.8c0,1.9-0.8,3.3-2.5,4.3c-1.5,0.9-3.5,1.3-6.1,1.3c-1.3,0-2.4-0.3-3.1-0.8
			c-0.8-0.6-1.1-1.4-1.1-2.5c0-0.8,0.1-1.6,0.4-2.4c0.2-0.7,0.5-1.3,0.8-2c0,0,0.3-0.5,0.7-1.3l0.5,0.2c-0.5,0.8-0.8,1.6-1.1,2.4
			c-0.3,0.7-0.4,1.4-0.4,1.9c0,0.9,0.3,1.6,0.9,2.1s1.5,0.7,2.7,0.7c0.9,0,1.9-0.2,3.1-0.5c1-0.3,1.9-0.7,2.8-1.1
			c0.8-0.4,1.2-0.7,1.2-0.9c0-0.1,0-0.2-0.1-0.3s-0.2-0.1-0.5-0.1h-2.6c-0.3,0-0.6-0.1-0.9-0.3c-0.2-0.2-0.4-0.5-0.4-0.9
			c0-0.5,0.2-1.2,0.6-2c0.4-0.9,1-1.7,1.6-2.3c0.8-0.8,1.5-1.1,2.3-1.1c0.5,0,0.9,0.2,1.2,0.4C137.4,26.1,137.5,26.5,137.5,27z"/>
		<path d="M147.7,19.4c0,0.3-0.2,0.7-0.6,1c-0.7,0.3-1.8,0.7-3.3,1.3c0-0.3,0.2-0.6,0.5-0.9C145,20.5,146.1,20,147.7,19.4z"/>
		<path d="M148.2,32c0,1.2-0.5,2.5-1.4,3.7c-1,1.4-2.2,2-3.5,2c-0.5,0-1-0.1-1.5-0.2c-0.4-0.1-0.9-0.2-1.5-0.4
			c-0.5-0.2-1-0.3-1.5-0.5l0.2-0.4c0.4,0.1,0.9,0.2,1.3,0.3c0.5,0.1,0.9,0.2,1.2,0.2c0.9,0,1.8-0.2,2.6-0.7c0.6-0.4,1.3-0.9,1.9-1.6
			c0.3-0.4,0.8-0.9,1.4-1.7c-1,0-1.8-0.2-2.3-0.5c-0.6-0.4-0.9-1-0.9-1.8c0-0.8,0.2-1.5,0.5-2.1c0.4-0.8,1-1.1,1.6-1.1
			c0.7,0,1.1,0.4,1.4,1.1c0.2,0.6,0.3,1.4,0.3,2.5V32z M147.5,30.8c-0.2-0.7-0.4-1.2-0.6-1.5c-0.2-0.2-0.4-0.4-0.7-0.4
			c-0.2,0-0.4,0.1-0.5,0.2s-0.2,0.3-0.2,0.5c0,0.4,0.2,0.6,0.5,0.8C146.2,30.7,146.7,30.8,147.5,30.8z"/>
		<path d="M153,32.7h-5.5v-2h4.4l-1.3-9.5l-0.6-0.3c0-0.5,0-1,0.1-1.5s0.2-0.9,0.4-1.3l0.2,0.1c0,0.4,0.2,0.8,0.7,1
			c0.4,0.2,0.8,0.3,1.1,0.4c0,0.4,0,0.8-0.1,1.2c-0.1,0.4-0.1,0.7-0.2,1l-0.5-0.2l1.3,8.8V32.7z"/>
		<path d="M160.5,19.4c0,0.3-0.2,0.7-0.6,1c-0.7,0.3-1.8,0.7-3.3,1.3c0-0.3,0.2-0.6,0.5-0.9C157.7,20.5,158.9,20,160.5,19.4z"/>
		<path d="M165.1,32.7h-13v-2h9.2c-0.8-0.6-1.4-1.1-1.9-1.4c-0.7-0.4-1.2-0.7-1.8-0.9c-0.6-0.2-1.2-0.3-1.8-0.3
			c-0.4,0-0.8,0-1.2,0.1c0.2-0.6,0.5-1,0.9-1.3c0.5-0.5,1.2-0.7,1.9-0.7c0.8,0,1.7,0.4,2.7,1.1c0.5,0.4,1.4,1.1,2.5,2.1
			c0.9,0.8,1.5,1.3,1.8,1.3h0.7V32.7z"/>
		<path d="M169.9,32.7h-5.5v-2h4.4l-1.3-9.5l-0.6-0.3c0-0.5,0-1,0.1-1.5s0.2-0.9,0.4-1.3l0.2,0.1c0,0.4,0.2,0.8,0.7,1
			c0.4,0.2,0.8,0.3,1.1,0.4c0,0.4,0,0.8-0.1,1.2c-0.1,0.4-0.1,0.7-0.2,1l-0.5-0.2l1.3,8.8V32.7z"/>
		<path d="M175.2,32.7h-1.6c-0.5,0-0.9-0.2-1.2-0.6c-0.3-0.4-0.5-0.9-0.6-1.6c-0.1-0.7-0.2-1.6-0.3-2.6c0-0.8-0.1-1.7-0.1-2.6
			s-0.1-1.6-0.2-2c-0.1-0.5-0.2-0.8-0.3-1.1c-0.2-0.4-0.4-0.7-0.7-0.9l1.4-2.2c0.3,0.9,0.5,2,0.6,3.2c0.1,0.8,0.1,2.6,0.2,5.5
			c0.1,1.3,0.3,2.2,0.6,2.6c0.2,0.3,0.4,0.5,0.7,0.5h1.6V32.7z"/>
		<path class="st0" d="M181.3,32.7h-6.9v-2h6c0-0.7-0.1-1.3-0.2-1.9c-0.4,0.1-0.7,0.2-0.9,0.3c-0.3,0.1-0.6,0.1-0.9,0.1
			c-0.5,0-1-0.1-1.3-0.4c-0.4-0.3-0.6-0.8-0.6-1.4c0-1,0.2-2,0.6-2.7c0.4-0.9,1-1.3,1.6-1.3c0.9,0,1.6,0.7,2.1,2.1
			c0.4,1.2,0.6,2.6,0.6,4.2V32.7z M179.8,20.3l-0.9,1.6l-1.8-1l0.8-1.6L179.8,20.3z M179.5,26.9c-0.1-0.3-0.3-0.5-0.5-0.8
			c-0.3-0.4-0.6-0.6-0.9-0.6c-0.2,0-0.4,0.1-0.5,0.3s-0.2,0.4-0.2,0.6c0,0.6,0.3,0.9,1,0.9c0.2,0,0.4,0,0.5-0.1
			C179.1,27.1,179.3,27,179.5,26.9z"/>
		<path d="M193,22.4c0,0.1,0,0.3,0,0.4s0,0.3-0.1,0.4l-0.9-0.6c-0.4,0.4-0.6,0.7-0.8,0.8c-0.6,0.5-1,0.8-1.4,0.8H189
			c0.4-0.2,0.9-0.5,1.4-0.9c0.5-0.4,0.8-0.7,1.1-1c-0.2-0.1-0.4-0.3-0.5-0.4c-0.1-0.2-0.2-0.4-0.2-0.6c0-0.5,0.1-0.9,0.4-1.3
			s0.6-0.6,0.9-0.6c0.2,0,0.4,0.1,0.5,0.3c0.2,0.2,0.2,0.5,0.2,0.8c0,0.1,0,0.3-0.1,0.4c0,0.2-0.1,0.4-0.3,0.8
			c0.1,0.1,0.2,0.2,0.4,0.3C193,22.2,193,22.3,193,22.4z M192.2,21.2c0-0.2-0.1-0.4-0.2-0.6c-0.1-0.2-0.3-0.3-0.4-0.3
			c-0.1,0-0.1,0-0.2,0.1s-0.1,0.1-0.1,0.2c0,0.2,0.1,0.3,0.3,0.5l0.5,0.4C192.2,21.3,192.2,21.2,192.2,21.2z"/>
		<path d="M195.5,32.7h-1.3c-1.2,0-2.3,0.1-3.3,0.3c-1.2,0.3-1.8,0.7-1.8,1.3c0,0.5,0.1,1,0.3,1.6c0.2,0.6,0.3,1.1,0.5,1.7
			c0.2,0.6,0.3,1.1,0.3,1.6c0,0.3,0,0.5-0.1,0.8s-0.1,0.5-0.2,0.9c-0.2-0.6-0.4-1.2-0.6-1.9c-0.4-1.2-0.6-2.1-0.8-2.7
			c-0.3-1-0.4-1.5-0.4-1.7c0-1,0.2-1.7,0.6-2.2c0.4-0.5,1-0.9,1.8-1.1c0.7-0.2,1.7-0.4,3-0.5c-0.5-0.5-0.8-0.8-0.9-0.9
			c-0.4-0.3-0.8-0.4-1.2-0.4c-0.2,0-0.5,0.1-0.7,0.2c-0.2,0.1-0.4,0.3-0.7,0.6l-0.5-0.3c0.2-0.6,0.5-1,0.8-1.3
			c0.5-0.6,1-0.8,1.7-0.8c0.5,0,0.9,0.2,1.4,0.5c0.4,0.3,0.8,0.7,1.2,1.2c0.2,0.2,0.5,0.7,0.9,1.3V32.7z"/>
		<path d="M200.8,32.7h-1.6c-0.5,0-0.9-0.2-1.2-0.6c-0.3-0.4-0.5-0.9-0.6-1.6s-0.2-1.6-0.3-2.6c0-0.8-0.1-1.7-0.1-2.6
			s-0.1-1.6-0.2-2c-0.1-0.5-0.2-0.8-0.3-1.1c-0.2-0.4-0.4-0.7-0.7-0.9l1.4-2.2c0.3,0.9,0.5,2,0.6,3.2c0.1,0.8,0.1,2.6,0.2,5.5
			c0.1,1.3,0.3,2.2,0.6,2.6c0.2,0.3,0.4,0.5,0.7,0.5h1.6V32.7z"/>
		<path d="M207.7,19.4c0,0.3-0.2,0.7-0.6,1c-0.7,0.3-1.8,0.7-3.3,1.3c0-0.3,0.2-0.6,0.5-0.9C205,20.5,206.1,20,207.7,19.4z"/>
		<path d="M209.8,32.7h-1.7c-0.5,0-1-0.1-1.5-0.3c-0.6-0.3-1-0.7-1.3-1.2c-0.5,0.4-1.1,0.8-1.7,1c-0.8,0.3-1.7,0.5-2.7,0.5h-1v-2h1
			c0.6,0,1.2-0.1,1.8-0.2c0.6-0.2,1.2-0.4,1.8-0.8l-0.5-0.6c-0.2-0.3-0.5-0.4-0.8-0.4c-0.1,0-0.3,0-0.4,0.1c-0.1,0-0.2,0.2-0.3,0.3
			h-0.2v-0.7c0-0.8,0.2-1.4,0.7-1.7c0.4-0.3,1.1-0.4,2.1-0.4c0.8,0,1.5,0.1,2.1,0.3c0.7,0.3,1,0.7,1,1.3c0,0.3-0.1,0.7-0.4,1
			c-0.2,0.3-0.6,0.6-1.1,1.1c0.1,0.2,0.3,0.3,0.7,0.4s0.6,0.2,0.9,0.2h1.7V32.7z"/>
		<path d="M216.8,13.9c0,0.6-0.1,1-0.3,1.4c-0.2,0.4-0.5,0.6-0.9,0.6c-0.1,0-0.3,0-0.4-0.1c-0.1,0-0.2-0.1-0.4-0.2
			c-0.1,0.3-0.3,0.5-0.4,0.6c-0.2,0.2-0.5,0.4-0.8,0.4c-0.3,0-0.5-0.1-0.7-0.3c-0.2-0.2-0.2-0.5-0.2-0.9c0-0.2,0-0.4,0.1-0.6
			c0-0.1,0.1-0.3,0.2-0.6l0.2-0.1c0,0.1,0,0.2,0,0.3s0,0.2,0,0.3c0,0.2,0,0.3,0.1,0.4c0.1,0.1,0.2,0.2,0.3,0.2
			c0.3,0,0.6-0.2,0.8-0.6c0.1-0.2,0.2-0.6,0.3-1.1l0.2-0.1c0.1,0.4,0.1,0.6,0.1,0.7c0.1,0.2,0.2,0.3,0.4,0.3c0.3,0,0.5-0.2,0.7-0.6
			c0.1-0.3,0.2-0.6,0.2-1l0.2-0.1c0,0.1,0.1,0.3,0.1,0.5C216.7,13.6,216.8,13.8,216.8,13.9z M216.6,11.2c0,0.3-0.2,0.7-0.6,1
			c-0.7,0.3-1.8,0.7-3.3,1.3c0-0.3,0.2-0.6,0.5-0.9C213.9,12.3,215,11.9,216.6,11.2z"/>
		<path d="M223.2,32.7H209v-2l1.7,0c0.5,0,1-0.1,1.4-0.2c0.5-0.2,1.1-0.4,1.7-0.8c0.1-0.3,0.2-0.7,0.3-1.1c0.1-0.4,0.1-0.7,0.1-1.1
			c0-0.8-0.1-1.7-0.2-2.7c-0.1-0.7-0.3-1.5-0.5-2.5c-0.1-0.5-0.3-1.1-0.5-1.8l-0.7-0.3c0.1-0.4,0.1-0.9,0.2-1.3
			c0.1-0.4,0.2-0.8,0.4-1.2c0.1,0.4,0.4,0.6,0.8,0.8c0.4,0.2,0.8,0.3,1.3,0.3c-0.1,0.8-0.1,1.3-0.2,1.5c0,0.2-0.1,0.5-0.2,0.8
			c-0.1,0-0.2,0-0.4-0.1l-0.1,0c0.3,0.9,0.5,1.8,0.6,2.7c0.2,0.9,0.3,1.7,0.3,2.3c0,0.5-0.1,1.1-0.2,1.8c0,0.2-0.1,0.6-0.2,1.1
			c1.3-0.8,2.1-1.2,2.5-1.4c1.1-0.5,2.1-0.8,2.9-0.8c1,0,1.8,0.3,2.3,0.9c0.5,0.5,0.7,1.3,0.7,2.3V32.7z M221.4,29.9
			c0-0.4-0.2-0.7-0.6-0.9c-0.4-0.2-1-0.3-1.7-0.3c-0.5,0-1.2,0.1-1.9,0.4c-0.6,0.2-1.2,0.5-1.9,0.8c-0.5,0.3-1,0.5-1.5,0.9h4.9
			C220.6,30.7,221.4,30.5,221.4,29.9z"/>
		<path d="M228,32.7h-5.5v-2h4.4l-1.3-9.5l-0.6-0.3c0-0.5,0-1,0.1-1.5s0.2-0.9,0.4-1.3l0.2,0.1c0,0.4,0.2,0.8,0.7,1
			c0.4,0.2,0.8,0.3,1.1,0.4c0,0.4,0,0.8-0.1,1.2c-0.1,0.4-0.1,0.7-0.2,1l-0.5-0.2l1.3,8.8V32.7z"/>
		<path d="M231.8,29.8c0,0.6-0.1,1.2-0.3,1.7c-0.1,0.3-0.4,0.8-0.7,1.4l-0.2-0.1c0-0.2,0-0.5,0.1-0.8c0-0.3,0-0.5,0-0.6
			c0-0.8-0.1-1.9-0.2-3.3c-0.1-1.4-0.3-2.9-0.4-4.4c-0.1-0.9-0.2-1.9-0.3-2.8c0.2-0.3,0.3-0.7,0.5-1.1c0.2-0.4,0.4-0.7,0.5-1.1
			c0.1,0.9,0.3,2,0.5,3.5s0.3,2.8,0.4,4C231.7,28,231.8,29.1,231.8,29.8z"/>
		<path d="M244.4,22.4c0,0.1,0,0.3,0,0.4s0,0.3-0.1,0.4l-0.9-0.6c-0.4,0.4-0.6,0.7-0.8,0.8c-0.6,0.5-1,0.8-1.4,0.8h-0.8
			c0.4-0.2,0.9-0.5,1.4-0.9c0.5-0.4,0.8-0.7,1.1-1c-0.2-0.1-0.4-0.3-0.5-0.4c-0.1-0.2-0.2-0.4-0.2-0.6c0-0.5,0.1-0.9,0.4-1.3
			s0.6-0.6,0.9-0.6c0.2,0,0.4,0.1,0.5,0.3c0.2,0.2,0.2,0.5,0.2,0.8c0,0.1,0,0.3-0.1,0.4c0,0.2-0.1,0.4-0.3,0.8
			c0.1,0.1,0.2,0.2,0.4,0.3C244.4,22.2,244.4,22.3,244.4,22.4z M243.6,21.2c0-0.2-0.1-0.4-0.2-0.6c-0.1-0.2-0.3-0.3-0.4-0.3
			c-0.1,0-0.1,0-0.2,0.1s-0.1,0.1-0.1,0.2c0,0.2,0.1,0.3,0.3,0.5l0.5,0.4C243.6,21.3,243.6,21.2,243.6,21.2z"/>
		<path d="M246.9,32.7h-1.3c-1.2,0-2.3,0.1-3.3,0.3c-1.2,0.3-1.8,0.7-1.8,1.3c0,0.5,0.1,1,0.3,1.6c0.2,0.6,0.3,1.1,0.5,1.7
			c0.2,0.6,0.3,1.1,0.3,1.6c0,0.3,0,0.5-0.1,0.8s-0.1,0.5-0.2,0.9c-0.2-0.6-0.4-1.2-0.6-1.9c-0.4-1.2-0.6-2.1-0.8-2.7
			c-0.3-1-0.4-1.5-0.4-1.7c0-1,0.2-1.7,0.6-2.2c0.4-0.5,1-0.9,1.8-1.1c0.7-0.2,1.7-0.4,3-0.5c-0.5-0.5-0.8-0.8-0.9-0.9
			c-0.4-0.3-0.8-0.4-1.2-0.4c-0.2,0-0.5,0.1-0.7,0.2c-0.2,0.1-0.4,0.3-0.7,0.6L241,30c0.2-0.6,0.5-1,0.8-1.3c0.5-0.6,1-0.8,1.7-0.8
			c0.5,0,0.9,0.2,1.4,0.5c0.4,0.3,0.8,0.7,1.2,1.2c0.2,0.2,0.5,0.7,0.9,1.3V32.7z"/>
		<path d="M254.7,32.7h-5c-0.4,0-0.8-0.1-1.2-0.4c-0.3-0.2-0.5-0.5-0.5-0.9c0-0.3,0-0.5,0-0.8c0-0.2,0.1-0.5,0.2-0.8h0.3
			c0.1,0.3,0.2,0.5,0.4,0.7c0.2,0.1,0.4,0.2,0.7,0.2h4.3c0-1.3-0.2-2.4-0.6-3.2c-0.5-1-1.2-1.7-2.3-2l0.2-2.2c1.3,0.6,2.2,1.7,2.8,3
			c0.4,1.1,0.7,2.6,0.7,4.4V32.7z"/>
		<path d="M259.8,10.6c0,0.3-0.2,0.7-0.6,1c-0.7,0.3-1.8,0.7-3.3,1.3c0-0.3,0.2-0.6,0.5-0.9C257.1,11.8,258.2,11.3,259.8,10.6z"/>
		<path d="M259.9,16.2c0,0.6-0.1,1-0.3,1.4c-0.2,0.4-0.5,0.6-0.9,0.6c-0.1,0-0.3,0-0.4-0.1c-0.1,0-0.2-0.1-0.4-0.2
			c-0.1,0.3-0.3,0.5-0.4,0.6c-0.2,0.2-0.5,0.4-0.8,0.4c-0.3,0-0.5-0.1-0.7-0.3c-0.2-0.2-0.2-0.5-0.2-0.9c0-0.2,0-0.4,0.1-0.6
			c0-0.1,0.1-0.3,0.2-0.6l0.2-0.1c0,0.1,0,0.2,0,0.3s0,0.2,0,0.3c0,0.2,0,0.3,0.1,0.4c0.1,0.1,0.2,0.2,0.3,0.2
			c0.3,0,0.6-0.2,0.8-0.6c0.1-0.2,0.2-0.6,0.3-1.1l0.2-0.1c0.1,0.4,0.1,0.6,0.1,0.7c0.1,0.2,0.2,0.3,0.4,0.3c0.3,0,0.5-0.2,0.7-0.6
			c0.1-0.3,0.2-0.6,0.2-1l0.2-0.1c0,0.1,0.1,0.3,0.1,0.5C259.9,15.9,259.9,16,259.9,16.2z M259.7,13.4c0,0.3-0.2,0.7-0.6,1
			c-0.7,0.3-1.8,0.7-3.3,1.3c0-0.3,0.2-0.6,0.5-0.9C257,14.6,258.1,14.1,259.7,13.4z"/>
		<path d="M260.7,32.7h-6.8v-2h3.9c0.5,0,0.9,0,1.2,0c0.3,0,0.7-0.1,1.1-0.2c-1.3-0.2-2.1-0.4-2.5-0.5c-0.9-0.4-1.3-1-1.3-1.9
			c0-0.8,0.2-1.5,0.6-2.2c0.5-0.8,1-1.2,1.7-1.2c0.8,0,1.3,0.5,1.7,1.5c0.3,0.8,0.5,1.7,0.5,2.7V32.7z M257.6,20.9l-0.9,1.5
			l-1.4-0.9l0.9-1.5L257.6,20.9z M259.7,28.8c-0.2-0.6-0.3-1-0.5-1.3c-0.3-0.6-0.7-0.8-1.1-0.8c-0.2,0-0.4,0.1-0.5,0.2
			c-0.2,0.2-0.2,0.4-0.2,0.6c0,0.6,0.3,1,0.9,1.1C258.4,28.6,258.9,28.7,259.7,28.8z M260.2,20.2l-1,1.5l-1.4-0.9l1-1.5L260.2,20.2z
			"/>
		<path d="M266.3,32.7h-6.4v-2h5.6c0-0.9-0.1-1.6-0.3-2c-0.1-0.3-0.5-0.8-1.1-1.4l0.9-1.8c0.5,0.7,0.9,1.2,1,1.6
			c0.2,0.6,0.3,1.5,0.3,2.9V32.7z M263.7,36l-0.9,1.6l-1.8-0.9l0.8-1.6L263.7,36z M266.3,34.9l-0.9,1.6l-1.8-1l0.8-1.6L266.3,34.9z"
			/>
		<path d="M271.1,20.2c0,0.1,0,0.3,0,0.4s0,0.3-0.1,0.4l-0.9-0.6c-0.4,0.4-0.6,0.7-0.8,0.8c-0.6,0.5-1,0.8-1.4,0.8h-0.8
			c0.4-0.2,0.9-0.5,1.4-0.9c0.5-0.4,0.8-0.7,1.1-1c-0.2-0.1-0.4-0.3-0.5-0.4c-0.1-0.2-0.2-0.4-0.2-0.6c0-0.5,0.1-0.9,0.4-1.3
			c0.3-0.4,0.6-0.6,0.9-0.6c0.2,0,0.4,0.1,0.5,0.3c0.2,0.2,0.2,0.5,0.2,0.8c0,0.1,0,0.3-0.1,0.4c0,0.2-0.1,0.4-0.3,0.8
			c0.1,0.1,0.2,0.2,0.4,0.3C271.1,19.9,271.1,20.1,271.1,20.2z M270.3,18.9c0-0.2-0.1-0.4-0.2-0.6c-0.1-0.2-0.3-0.3-0.4-0.3
			c-0.1,0-0.1,0-0.2,0.1c0,0.1-0.1,0.1-0.1,0.2c0,0.2,0.1,0.3,0.3,0.5l0.5,0.4C270.3,19.1,270.3,19,270.3,18.9z"/>
	</g>
	<rect class="st1" width="340.6" height="54.3"/>
</g>
</svg>
