<?xml version="1.0" encoding="utf-8"?>
<!-- Generator: Adobe Illustrator 19.2.0, SVG Export Plug-In . SVG Version: 6.00 Build 0)  -->
<svg version="1.1" id="Layer_1" xmlns="http://www.w3.org/2000/svg" xmlns:xlink="http://www.w3.org/1999/xlink" x="0px" y="0px"
	 viewBox="0 0 340.6 54.3" style="enable-background:new 0 0 340.6 54.3;" xml:space="preserve">
<style type="text/css">
	.st0{fill:#BA0017;}
	.st1{fill:none;}
</style>
<g>
	<g>
		<path d="M93.9,21.6c0,0.3-0.2,0.7-0.6,1c-0.7,0.3-1.8,0.7-3.3,1.3c0-0.3,0.2-0.6,0.5-0.9C91.2,22.7,92.3,22.3,93.9,21.6z"/>
		<path d="M95.9,32.7h-1.3c-1.2,0-2.3,0.1-3.3,0.3c-1.2,0.3-1.8,0.7-1.8,1.3c0,0.5,0.1,1,0.3,1.6c0.2,0.6,0.3,1.1,0.5,1.7
			c0.2,0.6,0.3,1.1,0.3,1.6c0,0.3,0,0.5-0.1,0.8s-0.1,0.5-0.2,0.9c-0.2-0.6-0.4-1.2-0.6-1.9c-0.4-1.2-0.6-2.1-0.8-2.7
			c-0.3-1-0.4-1.5-0.4-1.7c0-1,0.2-1.7,0.6-2.2c0.4-0.5,1-0.9,1.8-1.1c0.7-0.2,1.7-0.4,3-0.5c-0.5-0.5-0.8-0.8-0.9-0.9
			c-0.4-0.3-0.8-0.4-1.2-0.4c-0.2,0-0.5,0.1-0.7,0.2c-0.2,0.1-0.4,0.3-0.7,0.6L90,30c0.2-0.6,0.5-1,0.8-1.3c0.5-0.6,1-0.8,1.7-0.8
			c0.5,0,0.9,0.2,1.4,0.5c0.4,0.3,0.8,0.7,1.2,1.2c0.2,0.2,0.5,0.7,0.9,1.3V32.7z"/>
		<path d="M100.4,12.8c0,0.6-0.1,1-0.3,1.4c-0.2,0.4-0.5,0.6-0.9,0.6c-0.1,0-0.3,0-0.4-0.1s-0.2-0.1-0.4-0.2
			c-0.1,0.3-0.3,0.5-0.4,0.6c-0.2,0.2-0.5,0.4-0.8,0.4c-0.3,0-0.5-0.1-0.7-0.3c-0.2-0.2-0.2-0.5-0.2-0.9c0-0.2,0-0.4,0.1-0.6
			c0-0.1,0.1-0.3,0.2-0.6l0.2-0.1c0,0.1,0,0.2,0,0.3s0,0.2,0,0.3c0,0.2,0,0.3,0.1,0.4c0.1,0.1,0.2,0.2,0.3,0.2
			c0.3,0,0.6-0.2,0.8-0.6c0.1-0.2,0.2-0.6,0.3-1.1l0.2-0.1c0.1,0.4,0.1,0.6,0.1,0.7c0.1,0.2,0.2,0.3,0.4,0.3c0.3,0,0.5-0.2,0.7-0.6
			c0.1-0.3,0.2-0.6,0.2-1l0.2-0.1c0,0.1,0.1,0.3,0.1,0.5C100.4,12.5,100.4,12.6,100.4,12.8z M100.3,15.2c0,0.4-0.2,0.7-0.6,1
			c-0.7,0.3-1.8,0.7-3.3,1.3c0-0.3,0.2-0.6,0.5-0.9C97.5,16.3,98.7,15.9,100.3,15.2z"/>
		<path d="M100.6,32.7h-5.5v-2h4.4l-1.3-9.5l-0.6-0.3c0-0.5,0-1,0.1-1.5c0.1-0.5,0.2-0.9,0.4-1.3l0.2,0.1c0,0.4,0.2,0.8,0.7,1
			c0.4,0.2,0.8,0.3,1.1,0.4c0,0.4,0,0.8-0.1,1.2c-0.1,0.4-0.1,0.7-0.2,1l-0.5-0.2l1.3,8.8V32.7z"/>
		<path d="M107.6,19.4c0,0.3-0.2,0.7-0.6,1c-0.7,0.3-1.8,0.7-3.3,1.3c0-0.3,0.2-0.6,0.5-0.9C104.8,20.5,106,20,107.6,19.4z"/>
		<path d="M109.7,32.7H108c-0.5,0-1-0.1-1.5-0.3c-0.6-0.3-1-0.7-1.3-1.2c-0.5,0.4-1.1,0.8-1.7,1c-0.8,0.3-1.7,0.5-2.7,0.5h-1v-2h1
			c0.6,0,1.2-0.1,1.8-0.2c0.6-0.2,1.2-0.4,1.8-0.8l-0.5-0.6c-0.2-0.3-0.5-0.4-0.8-0.4c-0.1,0-0.3,0-0.4,0.1c-0.1,0-0.2,0.2-0.3,0.3
			h-0.2v-0.7c0-0.8,0.2-1.4,0.7-1.7c0.4-0.3,1.1-0.4,2.1-0.4c0.8,0,1.5,0.1,2.1,0.3c0.7,0.3,1,0.7,1,1.3c0,0.3-0.1,0.7-0.4,1
			c-0.2,0.3-0.6,0.6-1.1,1.1c0.1,0.2,0.3,0.3,0.7,0.4c0.3,0.1,0.6,0.2,0.9,0.2h1.7V32.7z"/>
		<path d="M115.6,20.2c0,0.1,0,0.3,0,0.4s0,0.3-0.1,0.4l-0.9-0.6c-0.4,0.4-0.6,0.7-0.8,0.8c-0.6,0.5-1,0.8-1.4,0.8h-0.8
			c0.4-0.2,0.9-0.5,1.4-0.9c0.5-0.4,0.8-0.7,1.1-1c-0.2-0.1-0.4-0.3-0.5-0.4c-0.1-0.2-0.2-0.4-0.2-0.6c0-0.5,0.1-0.9,0.4-1.3
			s0.6-0.6,0.9-0.6c0.2,0,0.4,0.1,0.5,0.3c0.2,0.2,0.2,0.5,0.2,0.8c0,0.1,0,0.3-0.1,0.4c0,0.2-0.1,0.4-0.3,0.8
			c0.1,0.1,0.2,0.2,0.4,0.3C115.5,19.9,115.6,20,115.6,20.2z M114.7,18.9c0-0.2-0.1-0.4-0.2-0.6c-0.1-0.2-0.3-0.3-0.4-0.3
			c-0.1,0-0.1,0-0.2,0.1s-0.1,0.1-0.1,0.2c0,0.2,0.1,0.3,0.3,0.5l0.5,0.4C114.7,19.1,114.7,19,114.7,18.9z"/>
		<path d="M118.7,32.7h-1.2c-0.5,0-1.1-0.1-1.7-0.3c-0.7-0.3-1.4-0.6-1.9-1.1c-0.4,0.5-0.9,0.9-1.3,1.1c-0.5,0.2-1.1,0.3-2,0.3h-1.8
			v-2h1.7c0.7,0,1.3-0.2,1.8-0.5c0.4-0.3,0.8-0.6,1.1-1.1c0.5-0.7,1-1.2,1.7-1.7c0.6-0.4,1.1-0.7,1.7-0.8c0.5,0.8,0.9,1.5,1.2,2.1
			c0.4,0.9,0.6,1.5,0.6,2.1V32.7z M117.5,30.5c-0.1-0.4-0.2-0.9-0.4-1.3c-0.2-0.4-0.4-0.7-0.7-1.1c-0.4,0.1-0.7,0.3-0.9,0.5
			c-0.2,0.2-0.4,0.4-0.6,0.8c0.3,0.3,0.6,0.6,1.1,0.8c0.5,0.2,1,0.4,1.4,0.4L117.5,30.5z"/>
		<path d="M123.5,32.7H118v-2h4.4l-1.3-9.5l-0.6-0.3c0-0.5,0-1,0.1-1.5c0.1-0.5,0.2-0.9,0.4-1.3l0.2,0.1c0,0.4,0.2,0.8,0.7,1
			c0.4,0.2,0.8,0.3,1.1,0.4c0,0.4,0,0.8-0.1,1.2c-0.1,0.4-0.1,0.7-0.2,1l-0.5-0.2l1.3,8.8V32.7z"/>
		<path d="M127.3,29.8c0,0.6-0.1,1.2-0.3,1.7c-0.1,0.3-0.4,0.8-0.7,1.4l-0.2-0.1c0-0.2,0-0.5,0.1-0.8c0-0.3,0-0.5,0-0.6
			c0-0.8-0.1-1.9-0.2-3.3c-0.1-1.4-0.3-2.9-0.4-4.4c-0.1-0.9-0.2-1.9-0.3-2.8c0.2-0.3,0.3-0.7,0.5-1.1c0.2-0.4,0.4-0.7,0.5-1.1
			c0.1,0.9,0.3,2,0.5,3.5s0.3,2.8,0.4,4C127.2,28,127.3,29.1,127.3,29.8z"/>
		<path class="st0" d="M144.6,32c0,1.2-0.5,2.5-1.4,3.7c-1,1.4-2.2,2-3.5,2c-0.5,0-1-0.1-1.5-0.2c-0.4-0.1-0.9-0.2-1.5-0.4
			c-0.5-0.2-1-0.3-1.5-0.5l0.2-0.4c0.4,0.1,0.9,0.2,1.3,0.3c0.5,0.1,0.9,0.2,1.2,0.2c0.9,0,1.8-0.2,2.6-0.7c0.6-0.4,1.3-0.9,1.9-1.6
			c0.3-0.4,0.8-0.9,1.4-1.7c-1,0-1.8-0.2-2.3-0.5c-0.6-0.4-0.9-1-0.9-1.8c0-0.8,0.2-1.5,0.5-2.1c0.4-0.8,1-1.1,1.6-1.1
			c0.7,0,1.1,0.4,1.4,1.1c0.2,0.6,0.3,1.4,0.3,2.5V32z M143.9,30.8c-0.2-0.7-0.4-1.2-0.6-1.5c-0.2-0.2-0.4-0.4-0.7-0.4
			c-0.2,0-0.4,0.1-0.5,0.2s-0.2,0.3-0.2,0.5c0,0.4,0.2,0.6,0.5,0.8C142.6,30.7,143.1,30.8,143.9,30.8z"/>
		<path class="st0" d="M149,12.4c0,0.3-0.2,0.7-0.6,1c-0.7,0.3-1.8,0.7-3.3,1.3c0-0.3,0.2-0.6,0.5-0.9
			C146.3,13.5,147.4,13.1,149,12.4z"/>
		<path class="st0" d="M148.7,17.6c0,0.2-0.1,0.4-0.3,0.5c-0.2,0.1-0.4,0.2-0.7,0.3l-2.1,0.7c0-0.3,0.4-0.6,1.1-0.9
			c-0.2-0.1-0.4-0.2-0.5-0.3c-0.2-0.1-0.2-0.3-0.2-0.4c0-0.2,0.2-0.6,0.6-1c0.4-0.5,0.8-0.7,1.2-0.7c0.2,0,0.3,0.1,0.4,0.2
			c0.1,0.1,0.2,0.2,0.2,0.4c0,0.1,0,0.2-0.1,0.3c0,0.1-0.1,0.2-0.2,0.4c-0.2-0.2-0.5-0.3-0.8-0.3c-0.2,0-0.3,0-0.5,0.1
			c-0.2,0.1-0.2,0.1-0.2,0.2c0,0.1,0.2,0.3,0.5,0.5c0.3,0.2,0.6,0.3,0.9,0.3c0.2,0,0.3,0,0.4,0C148.3,17.7,148.5,17.7,148.7,17.6z
			 M148.4,29.8c0,0.6-0.1,1.2-0.3,1.7c-0.1,0.3-0.4,0.8-0.7,1.4l-0.2-0.1c0-0.2,0-0.5,0.1-0.8c0-0.3,0-0.5,0-0.6
			c0-0.8-0.1-1.9-0.2-3.3c-0.1-1.4-0.3-2.9-0.4-4.4c-0.1-0.9-0.2-1.9-0.3-2.8c0.2-0.3,0.3-0.7,0.5-1.1c0.2-0.4,0.4-0.7,0.5-1.1
			c0.1,0.9,0.3,2,0.5,3.5s0.3,2.8,0.4,4C148.3,28,148.4,29.1,148.4,29.8z"/>
		<path d="M163.3,19.4c0,0.3-0.2,0.7-0.6,1c-0.7,0.3-1.8,0.7-3.3,1.3c0-0.3,0.2-0.6,0.5-0.9C160.5,20.5,161.7,20,163.3,19.4z"/>
		<path d="M167,32.7c0,0.8-0.4,1.7-1.1,2.6c-0.6,0.8-1.4,1.4-2.3,2c-0.9,0.5-1.6,0.8-2.1,0.8c-0.5,0-1.1-0.1-1.7-0.2
			c-0.5-0.1-1-0.3-1.6-0.5c-0.5-0.2-1.1-0.4-1.6-0.6l0.2-0.4c0.5,0.1,1,0.2,1.5,0.3c0.5,0.1,1,0.2,1.5,0.2c1,0,2-0.3,3-0.9
			c0.9-0.6,1.7-1.3,2.4-2.1c0.7-0.9,1-1.6,1-2.3c0-0.6-0.2-1.2-0.5-1.9c-0.3-0.5-0.7-1.1-1.2-1.6l0.6-1.8c0.6,0.6,1.1,1.1,1.4,1.7
			c0.3,0.6,0.5,1.4,0.5,2.2V32.7z"/>
		<path d="M172.5,20c0,0.5-0.2,0.9-0.5,1.2c-0.3,0.4-0.8,0.6-1.3,0.6c-0.4,0-0.7-0.1-0.9-0.3c-0.2-0.2-0.3-0.5-0.3-0.9
			c0-0.6,0.1-1.1,0.4-1.5c0.3-0.4,0.7-0.7,1.1-0.7c0.4,0,0.7,0.2,1,0.5C172.4,19.2,172.5,19.6,172.5,20z M171.8,20.3
			c0-0.2-0.1-0.4-0.4-0.7c-0.3-0.3-0.5-0.4-0.7-0.4c-0.2,0-0.4,0.1-0.5,0.3c-0.1,0.2-0.2,0.3-0.2,0.5c0,0.3,0.1,0.4,0.4,0.6
			c0.2,0.1,0.5,0.1,0.8,0.1c0.2,0,0.3,0,0.5-0.1C171.8,20.6,171.8,20.5,171.8,20.3z"/>
		<path d="M172.6,32.7h-6.4v-2h5.6c0-0.9-0.1-1.6-0.3-2c-0.1-0.3-0.5-0.8-1.1-1.4l0.9-1.8c0.5,0.7,0.9,1.2,1,1.6
			c0.2,0.6,0.3,1.5,0.3,2.9V32.7z M170,36l-0.9,1.6l-1.8-0.9l0.8-1.6L170,36z M172.6,34.9l-0.9,1.6l-1.8-1l0.8-1.6L172.6,34.9z"/>
		<path d="M179.1,34.7c0,0.4-0.2,0.7-0.6,1c-0.7,0.3-1.8,0.7-3.3,1.3c0-0.3,0.2-0.6,0.5-0.9C176.4,35.8,177.5,35.4,179.1,34.7z"/>
		<path d="M180.4,32.7h-5c-0.4,0-0.8-0.1-1.2-0.4s-0.5-0.5-0.5-0.9c0-0.3,0-0.5,0-0.8c0-0.2,0.1-0.5,0.2-0.8h0.3
			c0.1,0.3,0.2,0.5,0.4,0.7c0.2,0.1,0.4,0.2,0.7,0.2h4.3c0-1.3-0.2-2.4-0.6-3.2c-0.5-1-1.2-1.7-2.3-2l0.2-2.2c1.3,0.6,2.2,1.7,2.8,3
			c0.4,1.1,0.7,2.6,0.7,4.4V32.7z"/>
		<path d="M186.2,20.2c0,0.1,0,0.3,0,0.4s0,0.3-0.1,0.4l-0.9-0.6c-0.4,0.4-0.6,0.7-0.8,0.8c-0.6,0.5-1,0.8-1.4,0.8h-0.8
			c0.4-0.2,0.9-0.5,1.4-0.9c0.5-0.4,0.8-0.7,1.1-1c-0.2-0.1-0.4-0.3-0.5-0.4c-0.1-0.2-0.2-0.4-0.2-0.6c0-0.5,0.1-0.9,0.4-1.3
			s0.6-0.6,0.9-0.6c0.2,0,0.4,0.1,0.5,0.3c0.2,0.2,0.2,0.5,0.2,0.8c0,0.1,0,0.3-0.1,0.4c0,0.2-0.1,0.4-0.3,0.8
			c0.1,0.1,0.2,0.2,0.4,0.3C186.2,19.9,186.2,20,186.2,20.2z M185.4,18.9c0-0.2-0.1-0.4-0.2-0.6c-0.1-0.2-0.3-0.3-0.4-0.3
			c-0.1,0-0.1,0-0.2,0.1s-0.1,0.1-0.1,0.2c0,0.2,0.1,0.3,0.3,0.5l0.5,0.4C185.4,19.1,185.4,19,185.4,18.9z"/>
		<path d="M189.4,32.7h-1.2c-0.5,0-1.1-0.1-1.7-0.3c-0.7-0.3-1.4-0.6-1.9-1.1c-0.4,0.5-0.9,0.9-1.3,1.1c-0.5,0.2-1.1,0.3-2,0.3h-1.8
			v-2h1.7c0.7,0,1.3-0.2,1.8-0.5c0.4-0.3,0.8-0.6,1.1-1.1c0.5-0.7,1-1.2,1.7-1.7c0.6-0.4,1.1-0.7,1.7-0.8c0.5,0.8,0.9,1.5,1.2,2.1
			c0.4,0.9,0.6,1.5,0.6,2.1V32.7z M188.1,30.5c-0.1-0.4-0.2-0.9-0.4-1.3c-0.2-0.4-0.4-0.7-0.7-1.1c-0.4,0.1-0.7,0.3-0.9,0.5
			c-0.2,0.2-0.4,0.4-0.6,0.8c0.3,0.3,0.6,0.6,1.1,0.8c0.5,0.2,1,0.4,1.4,0.4L188.1,30.5z"/>
		<path d="M194.2,32.7h-5.5v-2h4.4l-1.3-9.5l-0.6-0.3c0-0.5,0-1,0.1-1.5c0.1-0.5,0.2-0.9,0.4-1.3l0.2,0.1c0,0.4,0.2,0.8,0.7,1
			c0.4,0.2,0.8,0.3,1.1,0.4c0,0.4,0,0.8-0.1,1.2c-0.1,0.4-0.1,0.7-0.2,1l-0.5-0.2l1.3,8.8V32.7z"/>
		<path d="M198,29.8c0,0.6-0.1,1.2-0.3,1.7c-0.1,0.3-0.4,0.8-0.7,1.4l-0.2-0.1c0-0.2,0-0.5,0.1-0.8c0-0.3,0-0.5,0-0.6
			c0-0.8-0.1-1.9-0.2-3.3c-0.1-1.4-0.3-2.9-0.4-4.4c-0.1-0.9-0.2-1.9-0.3-2.8c0.2-0.3,0.3-0.7,0.5-1.1c0.2-0.4,0.4-0.7,0.5-1.1
			c0.1,0.9,0.3,2,0.5,3.5s0.3,2.8,0.4,4C197.9,28,198,29.1,198,29.8z"/>
		<path d="M211.8,39.6c0,0.4-0.2,0.7-0.6,1c-0.7,0.3-1.8,0.7-3.3,1.3c0-0.3,0.2-0.6,0.5-0.9C209.1,40.8,210.2,40.3,211.8,39.6z"/>
		<path d="M217.4,32.7c0,1.7-0.5,2.9-1.5,3.7c-1.1,0.8-2.8,1.3-5.1,1.3c-1.5,0-2.6-0.3-3.4-0.8c-0.9-0.6-1.3-1.5-1.3-2.7
			c0-0.6,0.1-1.3,0.2-2c0.2-0.7,0.4-1.3,0.6-2c0.2-0.4,0.4-1,0.9-1.9l0.4,0.2c-0.5,1.1-0.9,1.9-1,2.5c-0.2,0.6-0.3,1.2-0.3,1.7
			c0,0.9,0.3,1.6,1,2.1c0.7,0.5,1.6,0.7,2.8,0.7c1.4,0,2.7-0.3,3.8-0.8c1.4-0.6,2-1.5,2-2.6c0-0.8-0.1-1.5-0.3-2.1
			c-0.2-0.6-0.5-1.1-0.8-1.5l0.9-2.3c0.4,0.6,0.7,1.2,0.8,1.9c0.1,0.6,0.2,1.5,0.2,2.5V32.7z M213.3,24.1l-0.8,1.6l-1.8-1l0.8-1.6
			L213.3,24.1z"/>
		<path d="M223.9,34.7c0,0.4-0.2,0.7-0.6,1c-0.7,0.3-1.8,0.7-3.3,1.3c0-0.3,0.2-0.6,0.5-0.9C221.2,35.8,222.3,35.4,223.9,34.7z"/>
		<path d="M225.2,32.7h-5c-0.4,0-0.8-0.1-1.2-0.4s-0.5-0.5-0.5-0.9c0-0.3,0-0.5,0-0.8c0-0.2,0.1-0.5,0.2-0.8h0.3
			c0.1,0.3,0.2,0.5,0.4,0.7c0.2,0.1,0.4,0.2,0.7,0.2h4.3c0-1.3-0.2-2.4-0.6-3.2c-0.5-1-1.2-1.7-2.3-2l0.2-2.2c1.3,0.6,2.2,1.7,2.8,3
			c0.4,1.1,0.7,2.6,0.7,4.4V32.7z M222.2,19.5l-0.9,1.6l-1.8-1l0.8-1.6L222.2,19.5z"/>
		<path d="M228.6,13.1c0,0.5-0.2,0.9-0.5,1.2c-0.3,0.4-0.8,0.6-1.3,0.6c-0.4,0-0.7-0.1-0.9-0.3c-0.2-0.2-0.3-0.5-0.3-0.9
			c0-0.6,0.1-1.1,0.4-1.5c0.3-0.4,0.7-0.7,1.1-0.7c0.4,0,0.7,0.2,1,0.5C228.5,12.2,228.6,12.6,228.6,13.1z M227.9,13.4
			c0-0.2-0.1-0.4-0.4-0.7c-0.3-0.3-0.5-0.4-0.7-0.4c-0.2,0-0.4,0.1-0.5,0.3c-0.1,0.2-0.2,0.3-0.2,0.5c0,0.3,0.1,0.4,0.4,0.6
			c0.2,0.1,0.5,0.1,0.8,0.1c0.2,0,0.3,0,0.5-0.1C227.9,13.6,227.9,13.5,227.9,13.4z"/>
		<path d="M228.5,17.6c0,0.2-0.1,0.4-0.3,0.5c-0.2,0.1-0.4,0.2-0.7,0.3l-2.1,0.7c0-0.3,0.4-0.6,1.1-0.9c-0.2-0.1-0.4-0.2-0.5-0.3
			c-0.2-0.1-0.2-0.3-0.2-0.4c0-0.2,0.2-0.6,0.6-1c0.4-0.5,0.8-0.7,1.2-0.7c0.1,0,0.3,0.1,0.4,0.2c0.1,0.1,0.2,0.2,0.2,0.4
			c0,0.1,0,0.2-0.1,0.3c0,0.1-0.1,0.2-0.2,0.4c-0.2-0.2-0.5-0.3-0.8-0.3c-0.2,0-0.3,0-0.5,0.1c-0.2,0.1-0.2,0.1-0.2,0.2
			c0,0.1,0.2,0.3,0.5,0.5c0.3,0.2,0.6,0.3,0.9,0.3c0.2,0,0.3,0,0.4,0C228.2,17.7,228.3,17.7,228.5,17.6z M230.5,32.7h-1.6
			c-0.5,0-0.9-0.2-1.2-0.6c-0.3-0.4-0.5-0.9-0.6-1.6c-0.1-0.7-0.2-1.6-0.3-2.6c0-0.8-0.1-1.7-0.1-2.6c0-0.9-0.1-1.6-0.2-2
			c-0.1-0.5-0.2-0.8-0.3-1.1c-0.2-0.4-0.4-0.7-0.7-0.9l1.4-2.2c0.3,0.9,0.5,2,0.6,3.2c0.1,0.8,0.1,2.6,0.2,5.5
			c0.1,1.3,0.3,2.2,0.6,2.6c0.2,0.3,0.4,0.5,0.7,0.5h1.6V32.7z"/>
		<path d="M236.3,16c0,0.3-0.2,0.7-0.6,1c-0.7,0.3-1.8,0.7-3.3,1.3c0-0.3,0.2-0.6,0.5-0.9C233.6,17.1,234.7,16.7,236.3,16z"/>
		<path d="M236.1,32.7h-6.4v-2h5.6c0-0.9-0.1-1.6-0.3-2c-0.1-0.3-0.5-0.8-1.1-1.4l0.9-1.8c0.5,0.7,0.9,1.2,1,1.6
			c0.2,0.6,0.3,1.5,0.3,2.9V32.7z M233.5,22.6l-0.9,1.6l-1.8-0.9l0.8-1.6L233.5,22.6z M236,21.6l-0.9,1.6l-1.8-1l0.8-1.6L236,21.6z"
			/>
		<path d="M242.7,20c0,0.5-0.2,0.9-0.5,1.2c-0.3,0.4-0.8,0.6-1.3,0.6c-0.4,0-0.7-0.1-0.9-0.3c-0.2-0.2-0.3-0.5-0.3-0.9
			c0-0.6,0.1-1.1,0.4-1.5c0.3-0.4,0.7-0.7,1.1-0.7c0.4,0,0.7,0.2,1,0.5C242.6,19.2,242.7,19.6,242.7,20z M242.1,20.3
			c0-0.2-0.1-0.4-0.4-0.7c-0.3-0.3-0.5-0.4-0.7-0.4c-0.2,0-0.4,0.1-0.5,0.3c-0.1,0.2-0.2,0.3-0.2,0.5c0,0.3,0.1,0.4,0.4,0.6
			c0.2,0.1,0.5,0.1,0.8,0.1c0.2,0,0.3,0,0.5-0.1C242,20.6,242.1,20.5,242.1,20.3z"/>
		<path d="M248.3,32.7h-0.9c-0.5,0-0.9-0.1-1.2-0.2c-0.3-0.1-0.7-0.3-0.9-0.6c-0.4,0.3-0.7,0.5-0.9,0.6c-0.4,0.1-0.9,0.2-1.6,0.2
			H242c-0.4,0-0.8-0.1-1.2-0.2c-0.3-0.1-0.6-0.3-0.9-0.5c-0.4,0.3-0.7,0.5-1,0.6c-0.3,0.1-0.8,0.2-1.5,0.2h-2.2v-2h2.2
			c0.6,0,1-0.1,1.3-0.2c0.4-0.2,0.7-0.5,0.7-1c0-0.2,0-0.4,0-0.7c0-0.2-0.1-0.5-0.1-0.7l0.5-0.7c0.2,0.7,0.4,1.2,0.5,1.5
			c0.2,0.5,0.5,1,0.8,1.2c0.3,0.3,0.8,0.5,1.2,0.5h0.8c0.6,0,1-0.1,1.2-0.3c0.3-0.2,0.4-0.5,0.4-0.9c0-0.2,0-0.5,0-0.7
			c0-0.2-0.1-0.5-0.1-0.7l0.5-0.7l0.2,1.1c0.2,0.8,0.4,1.4,0.7,1.7c0.3,0.3,0.6,0.4,1,0.4c0.2,0,0.4-0.1,0.5-0.2
			c0.1-0.1,0.2-0.3,0.2-0.5c0-0.4-0.2-0.9-0.5-1.3c-0.1-0.1-0.2-0.3-0.6-0.7l0.7-1.2c0.3,0.5,0.5,0.9,0.6,1.2c0.2,0.5,0.2,1.2,0.2,2
			V32.7z"/>
		<path d="M252.1,29.8c0,0.6-0.1,1.2-0.3,1.7c-0.1,0.3-0.4,0.8-0.7,1.4l-0.2-0.1c0-0.2,0-0.5,0.1-0.8c0-0.3,0-0.5,0-0.6
			c0-0.8-0.1-1.9-0.2-3.3c-0.1-1.4-0.3-2.9-0.4-4.4c-0.1-0.9-0.2-1.9-0.3-2.8c0.2-0.3,0.3-0.7,0.5-1.1c0.2-0.4,0.4-0.7,0.5-1.1
			c0.1,0.9,0.3,2,0.5,3.5s0.3,2.8,0.4,4C252,28,252.1,29.1,252.1,29.8z"/>
	</g>
	<rect class="st1" width="340.6" height="54.3"/>
</g>
</svg>
