<?xml version="1.0" encoding="utf-8"?>
<!-- Generator: Adobe Illustrator 19.2.0, SVG Export Plug-In . SVG Version: 6.00 Build 0)  -->
<svg version="1.1" id="Layer_1" xmlns="http://www.w3.org/2000/svg" xmlns:xlink="http://www.w3.org/1999/xlink" x="0px" y="0px"
	 viewBox="0 0 340.8 54.8" style="enable-background:new 0 0 340.8 54.8;" xml:space="preserve">
<style type="text/css">
	.st0{fill:#BA0017;}
	.st1{fill:none;}
</style>
<g>
	<g>
		<path d="M115.2,16.4c0,0.3,0,0.5-0.1,0.8s-0.2,0.5-0.4,0.7c0.1,0.1,0.2,0.2,0.3,0.2c0.1,0.1,0.1,0.2,0.1,0.3c0,0.4,0,0.7-0.1,1
			l-1-0.8c-0.3,0.4-0.7,0.7-1.2,0.9c-0.5,0.3-1.1,0.4-1.8,0.4c0.3-0.5,0.5-0.8,0.5-0.8c0.1-0.2,0.1-0.4,0.1-0.6s0-0.3-0.1-0.5
			c-0.1-0.1-0.2-0.2-0.3-0.2c-0.1,0-0.3,0.1-0.4,0.3c-0.1,0.1-0.2,0.2-0.3,0.5c0.1-0.5,0.1-0.9,0.2-1.1c0.1-0.4,0.4-0.6,0.7-0.6
			c0.3,0,0.5,0.1,0.6,0.4c0.1,0.2,0.2,0.5,0.2,0.8c0,0.2,0,0.3,0,0.5c-0.1,0.2-0.1,0.4-0.1,0.5c0.5-0.1,1-0.4,1.5-0.8
			c-0.1-0.1-0.3-0.2-0.4-0.4c-0.2-0.2-0.3-0.4-0.3-0.7c0-0.4,0.1-0.7,0.4-1.1c0.3-0.4,0.7-0.6,1.1-0.6c0.2,0,0.4,0.1,0.5,0.2
			C115.1,16,115.2,16.2,115.2,16.4z M114.4,17c0-0.2,0-0.3-0.1-0.5c-0.1-0.1-0.2-0.2-0.4-0.2c-0.2,0-0.2,0.1-0.2,0.3
			c0,0.1,0.1,0.3,0.2,0.4c0,0,0.2,0.2,0.4,0.4C114.3,17.3,114.4,17.2,114.4,17z"/>
		<path d="M120.9,29.8c0,1.2-0.3,2.1-0.8,2.9c-0.5,0.6-1.2,1.1-2.2,1.3c-0.8,0.2-1.9,0.3-3.1,0.3c-1.4,0-2.6-0.3-3.4-0.8
			c-0.9-0.6-1.3-1.5-1.3-2.6c0-0.6,0.1-1.3,0.3-2c0.2-0.6,0.4-1.2,0.7-1.9c0.2-0.5,0.5-1.1,0.9-1.8l0.4,0.2c-0.3,0.5-0.5,1-0.7,1.3
			c-0.2,0.5-0.4,1-0.5,1.4c-0.1,0.5-0.2,1-0.2,1.5c0,0.9,0.3,1.6,1,2.1s1.6,0.7,2.8,0.7c1.3,0,2.4-0.2,3.5-0.7
			c1.2-0.5,1.8-1.1,1.8-1.7c0-0.7-0.1-2-0.3-3.7c-0.2-1.3-0.4-2.8-0.7-4.5l-0.4-2.2l-0.5-0.3c0-1,0.2-1.9,0.6-2.7h0.2
			c0,0.3,0.1,0.5,0.2,0.6c0.1,0.1,0.2,0.2,0.4,0.3c0.2,0.1,0.5,0.2,0.8,0.3c0.2,0.1,0.4,0.2,0.5,0.3c0,0.5,0,0.9-0.1,1.1
			c0,0.2-0.1,0.6-0.2,1l-0.6-0.2c0,0.2,0.1,0.9,0.3,2.3c0.2,1.6,0.4,2.8,0.5,3.8C120.8,27.7,120.9,28.9,120.9,29.8z"/>
		<path d="M128.1,15.1c0,0.5-0.2,0.9-0.5,1.2c-0.3,0.4-0.8,0.5-1.3,0.5c-0.4,0-0.7-0.1-0.9-0.3c-0.2-0.2-0.3-0.5-0.3-0.9
			c0-0.6,0.1-1.1,0.4-1.5c0.3-0.4,0.7-0.7,1.1-0.7c0.4,0,0.7,0.2,1,0.5S128.1,14.7,128.1,15.1z M127.4,15.4c0-0.2-0.1-0.4-0.4-0.7
			c-0.3-0.3-0.5-0.4-0.7-0.4c-0.2,0-0.4,0.1-0.5,0.3c-0.1,0.2-0.2,0.3-0.2,0.5c0,0.3,0.1,0.4,0.4,0.6c0.2,0.1,0.5,0.1,0.8,0.1
			c0.2,0,0.3,0,0.5-0.1C127.4,15.7,127.4,15.6,127.4,15.4z"/>
		<path d="M132.1,31.2c0,0.8-0.4,1.7-1.1,2.6c-0.6,0.8-1.4,1.4-2.3,2c-0.9,0.5-1.6,0.8-2.1,0.8c-0.5,0-1.1-0.1-1.7-0.2
			c-0.5-0.1-1-0.3-1.6-0.5c-0.5-0.2-1.1-0.4-1.6-0.6l0.2-0.4c0.5,0.1,1,0.2,1.5,0.3c0.5,0.1,1,0.2,1.5,0.2c1,0,2-0.3,3-0.9
			c0.9-0.6,1.7-1.3,2.4-2.1c0.7-0.9,1-1.6,1-2.3c0-0.6-0.2-1.2-0.5-1.9c-0.3-0.5-0.7-1.1-1.2-1.6l0.6-1.8c0.6,0.6,1.1,1.1,1.4,1.7
			c0.3,0.6,0.5,1.4,0.5,2.2V31.2z M130.4,20.7l-0.9,1.6l-1.8-0.9l0.8-1.6L130.4,20.7z"/>
		<path d="M138.7,17.8c0,0.3-0.2,0.7-0.6,1c-0.7,0.3-1.8,0.7-3.3,1.3c0-0.3,0.2-0.6,0.5-0.9C136,19,137.1,18.5,138.7,17.8z"/>
		<path d="M141,29.3c0,0.4-0.1,0.9-0.4,1.4c-0.3,0.6-0.6,0.9-0.9,0.9c-0.3,0-0.9-0.2-1.7-0.6c-0.8-0.4-1.4-0.7-2-1.1
			c-0.9,0.5-1.5,0.8-1.9,1c-0.5,0.2-1.1,0.3-1.8,0.3h-1v-2h1c0.3,0,0.6,0,0.9-0.1c0.3,0,0.7-0.1,1.2-0.3c-0.2-0.1-0.4-0.3-0.6-0.4
			c-0.2-0.2-0.3-0.4-0.3-0.5c0-0.1,0-0.2,0-0.3c0-0.1,0.1-0.2,0.2-0.3l1.1-1.9c0.1-0.3,0.3-0.4,0.4-0.5c0.1-0.1,0.3-0.2,0.5-0.2
			c-0.5-0.4-0.8-0.6-0.8-0.8c0-0.1,0.2-0.5,0.5-1.2c0.1-0.2,0.3-0.5,0.5-0.9c0.5,0.5,1.1,1.1,1.8,2c0.9,1.1,1.6,2.1,2.2,2.9
			C140.6,27.7,141,28.6,141,29.3z M137,26.8c0-0.3-0.1-0.6-0.2-0.8c-0.2-0.2-0.4-0.3-0.8-0.3c-0.3,0-0.7,0.1-1,0.3
			c-0.3,0.2-0.4,0.5-0.4,0.8c0,0.3,0.5,0.7,1.4,1.2c0.3-0.2,0.6-0.4,0.7-0.6C136.9,27.3,137,27,137,26.8z M139.7,29.4
			c0-0.3-0.2-0.7-0.6-1.2c-0.3-0.4-0.6-0.7-1-1.1c0,0.4-0.1,0.7-0.2,1s-0.4,0.6-0.6,0.7c0.4,0.2,0.9,0.5,1.4,0.7
			c0.4,0.2,0.6,0.2,0.8,0.2c0.1,0,0.2,0,0.2-0.1C139.7,29.6,139.7,29.5,139.7,29.4z"/>
		<path class="st0" d="M160.5,19.3l-0.5,2l-0.7-0.3l0,1c0,1-0.1,2-0.4,2.9c-0.3,1-0.7,2.1-1.3,3.1c0.3,0.5,0.5,0.9,0.6,1.2
			c0.2,0.5,0.3,1,0.3,1.4c0,0.3,0,0.5,0,0.7c0,0.2,0,0.4-0.1,0.7c-0.8,0.2-1.6,0.3-2.5,0.4c-0.9,0.1-1.8,0.2-2.6,0.2
			c0-0.1,0-0.3,0-0.4c0-0.6,0.1-1.1,0.3-1.6c1.3-0.7,2.3-1.6,3.2-2.7c-0.5-1-0.9-1.7-1.1-2.1c-0.3-0.4-0.7-1.1-1.3-2.1
			c-0.2-0.3-0.4-0.6-0.6-0.8c-0.2-0.3-0.4-0.4-0.6-0.4c-0.1,0-0.3,0.1-0.5,0.2c-0.1,0.1-0.2,0.1-0.3,0.1c-0.2,0-0.4-0.2-0.8-0.5
			c-0.3-0.3-0.6-0.7-1-1.1c-0.3-0.3-0.5-0.6-0.6-0.9c-0.1-0.2-0.1-0.5-0.1-0.8c0-0.5,0-0.8,0.1-1.1c0.1-0.4,0.2-0.6,0.5-0.6
			c0.3,0,0.8,0.3,1.3,0.9c0.5,0.5,1.1,1.2,1.7,2.1c0.6,0.8,1.1,1.6,1.7,2.4l1.1,1.8c0.3,0.6,0.7,1.2,1,1.9c0.5-1,0.8-2,1-3.1
			c0.2-0.9,0.2-2,0.2-3.4l-0.6-0.4c0-0.5,0-0.9,0.1-1.3s0.2-0.8,0.4-1.1l0.3,0.1c0,0.3,0.2,0.6,0.5,0.8c0.2,0.1,0.4,0.2,0.7,0.4
			C160.2,19.1,160.4,19.2,160.5,19.3z M157.6,30.2c0-0.2,0-0.3-0.1-0.5c-0.1-0.2-0.2-0.5-0.4-0.9c-0.2,0.3-0.6,0.6-1,1
			s-0.9,0.7-1.3,1c0.9,0,1.5,0,1.9-0.1C157.3,30.6,157.6,30.5,157.6,30.2z"/>
		<path d="M175,13.1c0,0.2-0.1,0.3-0.1,0.5c0,0.2-0.2,0.4-0.3,0.7c0.1,0.1,0.2,0.2,0.3,0.3c0.1,0.1,0.1,0.2,0.1,0.3
			c0,0.1,0,0.3,0,0.4c0,0.2,0,0.3-0.1,0.5l-1-0.8c-0.3,0.4-0.7,0.7-1.2,0.9c-0.5,0.3-1.1,0.4-1.8,0.4l0.4-0.7
			c0.1-0.3,0.2-0.5,0.2-0.7c0-0.2,0-0.3-0.1-0.5c-0.1-0.1-0.2-0.2-0.3-0.2c-0.2,0-0.3,0.1-0.4,0.3l-0.3,0.5c0.1-0.5,0.1-0.9,0.2-1.1
			c0.1-0.4,0.4-0.6,0.7-0.6c0.3,0,0.5,0.1,0.6,0.4c0.1,0.3,0.2,0.5,0.2,0.8c0,0.1,0,0.3,0,0.4c0,0.1-0.1,0.3-0.1,0.6
			c0.5-0.1,1-0.4,1.5-0.7c-0.2-0.2-0.4-0.4-0.5-0.5c-0.1-0.2-0.2-0.4-0.2-0.6c0-0.4,0.1-0.7,0.4-1c0.3-0.4,0.7-0.6,1.1-0.6
			c0.2,0,0.4,0.1,0.5,0.2C175,12.4,175.1,12.7,175,13.1z M174.8,16.9c0,0.6-0.1,1-0.3,1.4c-0.2,0.4-0.5,0.6-0.9,0.6
			c-0.1,0-0.3,0-0.4-0.1s-0.2-0.1-0.4-0.2c-0.1,0.3-0.3,0.5-0.4,0.6c-0.2,0.2-0.5,0.4-0.8,0.4c-0.3,0-0.5-0.1-0.7-0.3
			c-0.2-0.2-0.2-0.5-0.2-0.9c0-0.2,0-0.4,0.1-0.6c0.1-0.2,0.1-0.4,0.2-0.7l0.2-0.1c0,0.1,0,0.2,0,0.3s0,0.2,0,0.3
			c0,0.2,0,0.3,0.1,0.4c0.1,0.1,0.2,0.2,0.3,0.2c0.3,0,0.6-0.2,0.8-0.6c0.1-0.2,0.2-0.6,0.3-1.1l0.2-0.1c0.1,0.4,0.1,0.6,0.1,0.7
			c0.1,0.2,0.2,0.3,0.4,0.3c0.3,0,0.5-0.2,0.7-0.6c0.1-0.3,0.2-0.6,0.2-1l0.2-0.1c0,0.1,0.1,0.3,0.1,0.5
			C174.7,16.6,174.8,16.8,174.8,16.9z M174.3,13.4c0-0.2,0-0.3-0.1-0.5c-0.1-0.1-0.2-0.2-0.3-0.2c-0.1,0-0.2,0-0.3,0.1
			s-0.1,0.1-0.1,0.2c0,0.1,0.1,0.3,0.2,0.4c0,0,0.2,0.2,0.4,0.4C174.2,13.7,174.3,13.6,174.3,13.4z"/>
		<path d="M175.5,31.2h-5c-0.4,0-0.8-0.1-1.2-0.4s-0.5-0.5-0.5-0.9c0-0.3,0-0.5,0-0.8c0-0.2,0.1-0.5,0.2-0.8h0.3
			c0.1,0.3,0.2,0.5,0.4,0.7c0.2,0.1,0.4,0.2,0.7,0.2h4.3c0-1.3-0.2-2.4-0.6-3.2c-0.5-1-1.2-1.7-2.3-2l0.2-2.2c1.3,0.6,2.2,1.7,2.8,3
			c0.4,1.1,0.7,2.6,0.7,4.4V31.2z"/>
		<path d="M180.9,37c0,0.4-0.2,0.7-0.6,1c-0.7,0.3-1.8,0.7-3.3,1.3c0-0.3,0.2-0.6,0.5-0.9C178.2,38.1,179.3,37.7,180.9,37z"/>
		<path d="M187.7,31.2h-13v-2h9.2c-0.8-0.6-1.4-1.1-1.9-1.4c-0.7-0.4-1.2-0.7-1.8-0.9c-0.6-0.2-1.2-0.3-1.8-0.3
			c-0.4,0-0.8,0-1.2,0.1c0.2-0.6,0.5-1,0.9-1.3c0.5-0.5,1.2-0.7,1.9-0.7c0.8,0,1.7,0.4,2.7,1.1c0.5,0.4,1.4,1.1,2.5,2.1
			c0.9,0.8,1.5,1.3,1.8,1.3h0.7V31.2z M182,33.6l-0.8,1.6l-1.8-0.9l0.9-1.6L182,33.6z"/>
		<path d="M201.1,18.6c0,0.1,0,0.3,0,0.4s0,0.3-0.1,0.4l-0.9-0.6c-0.4,0.4-0.6,0.7-0.8,0.8c-0.6,0.5-1,0.8-1.4,0.8h-0.8
			c0.4-0.2,0.9-0.5,1.4-0.9c0.5-0.4,0.8-0.7,1.1-1c-0.2-0.1-0.4-0.3-0.5-0.4c-0.1-0.2-0.2-0.4-0.2-0.6c0-0.5,0.1-0.9,0.4-1.3
			s0.6-0.6,0.9-0.6c0.2,0,0.4,0.1,0.5,0.3c0.2,0.2,0.2,0.5,0.2,0.8c0,0.1,0,0.3-0.1,0.4c0,0.2-0.1,0.4-0.3,0.8
			c0.1,0.1,0.2,0.2,0.4,0.3C201.1,18.4,201.1,18.5,201.1,18.6z M200.3,17.4c0-0.2-0.1-0.4-0.2-0.6c-0.1-0.2-0.3-0.3-0.4-0.3
			c-0.1,0-0.1,0-0.2,0.1c0,0.1-0.1,0.1-0.1,0.2c0,0.2,0.1,0.3,0.3,0.5l0.5,0.4C200.2,17.5,200.3,17.4,200.3,17.4z"/>
		<path d="M205.3,31.2c0,0.8-0.4,1.7-1.1,2.6c-0.6,0.8-1.4,1.4-2.3,2c-0.9,0.5-1.6,0.8-2.1,0.8c-0.5,0-1.1-0.1-1.7-0.2
			c-0.5-0.1-1-0.3-1.6-0.5c-0.5-0.2-1.1-0.4-1.6-0.6l0.2-0.4c0.5,0.1,1,0.2,1.5,0.3c0.5,0.1,1,0.2,1.5,0.2c1,0,2-0.3,3-0.9
			c0.9-0.6,1.7-1.3,2.4-2.1c0.7-0.9,1-1.6,1-2.3c0-0.6-0.2-1.2-0.5-1.9c-0.3-0.5-0.7-1.1-1.2-1.6l0.6-1.8c0.6,0.6,1.1,1.1,1.4,1.7
			c0.3,0.6,0.5,1.4,0.5,2.2V31.2z"/>
		<path d="M211.4,18.5c0,0.5-0.2,0.9-0.5,1.2c-0.3,0.4-0.8,0.5-1.3,0.5c-0.4,0-0.7-0.1-0.9-0.3c-0.2-0.2-0.3-0.5-0.3-0.9
			c0-0.6,0.1-1.1,0.4-1.5c0.3-0.4,0.7-0.7,1.1-0.7c0.4,0,0.7,0.2,1,0.5S211.4,18,211.4,18.5z M210.8,18.8c0-0.2-0.1-0.4-0.4-0.7
			c-0.3-0.3-0.5-0.4-0.7-0.4c-0.2,0-0.4,0.1-0.5,0.3c-0.1,0.2-0.2,0.3-0.2,0.5c0,0.3,0.1,0.4,0.4,0.6c0.2,0.1,0.5,0.1,0.8,0.1
			c0.2,0,0.3,0,0.5-0.1C210.7,19,210.8,18.9,210.8,18.8z"/>
		<path d="M214.4,31.2h-1.2c-0.5,0-1.1-0.1-1.7-0.3c-0.7-0.3-1.4-0.6-1.9-1.1c-0.4,0.5-0.9,0.9-1.3,1.1c-0.5,0.2-1.1,0.3-2,0.3h-1.8
			v-2h1.7c0.7,0,1.3-0.2,1.8-0.5c0.4-0.3,0.8-0.6,1.1-1.1c0.5-0.7,1-1.2,1.7-1.7c0.6-0.4,1.1-0.7,1.7-0.8c0.5,0.8,0.9,1.5,1.2,2.1
			c0.4,0.9,0.6,1.5,0.6,2.1V31.2z M213.1,28.9c-0.1-0.4-0.2-0.9-0.4-1.3c-0.2-0.4-0.4-0.7-0.7-1.1c-0.4,0.1-0.7,0.3-0.9,0.5
			c-0.2,0.2-0.4,0.4-0.6,0.8c0.3,0.3,0.6,0.6,1.1,0.8c0.5,0.2,1,0.4,1.4,0.4L213.1,28.9z"/>
		<path d="M218.9,10.7c0,0.6-0.1,1-0.3,1.4c-0.2,0.4-0.5,0.6-0.9,0.6c-0.1,0-0.3,0-0.4-0.1c-0.1,0-0.2-0.1-0.4-0.2
			c-0.1,0.3-0.3,0.5-0.4,0.6c-0.2,0.2-0.5,0.4-0.8,0.4c-0.3,0-0.5-0.1-0.7-0.3c-0.2-0.2-0.2-0.5-0.2-0.9c0-0.2,0-0.4,0.1-0.6
			c0-0.1,0.1-0.3,0.2-0.6l0.2-0.1c0,0.1,0,0.2,0,0.3s0,0.2,0,0.3c0,0.2,0,0.3,0.1,0.4c0.1,0.1,0.2,0.2,0.3,0.2
			c0.3,0,0.6-0.2,0.8-0.6c0.1-0.2,0.2-0.6,0.3-1.1l0.2-0.1c0.1,0.4,0.1,0.6,0.1,0.7c0.1,0.2,0.2,0.3,0.4,0.3c0.3,0,0.5-0.2,0.7-0.6
			c0.1-0.3,0.2-0.6,0.2-1l0.2-0.1c0,0.1,0.1,0.3,0.1,0.5C218.8,10.4,218.9,10.6,218.9,10.7z M218.7,7.9c0,0.3-0.2,0.7-0.6,1
			c-0.7,0.3-1.8,0.7-3.3,1.3c0-0.3,0.2-0.6,0.5-0.9C216,9.1,217.1,8.6,218.7,7.9z"/>
		<path d="M218,16c0,0.2-0.1,0.4-0.3,0.5c-0.2,0.1-0.4,0.2-0.7,0.3l-2.1,0.7c0-0.3,0.4-0.6,1.1-0.9c-0.2-0.1-0.4-0.2-0.5-0.3
			c-0.2-0.1-0.2-0.3-0.2-0.4c0-0.2,0.2-0.6,0.6-1c0.4-0.5,0.8-0.7,1.2-0.7c0.2,0,0.3,0.1,0.4,0.2c0.1,0.1,0.2,0.2,0.2,0.4
			c0,0.1,0,0.2-0.1,0.3c0,0.1-0.1,0.2-0.2,0.4c-0.2-0.2-0.5-0.3-0.8-0.3c-0.2,0-0.3,0-0.5,0.1s-0.2,0.1-0.2,0.2
			c0,0.1,0.2,0.3,0.5,0.5c0.3,0.2,0.6,0.3,0.9,0.3c0.2,0,0.3,0,0.4,0C217.6,16.2,217.8,16.1,218,16z M226.1,19.3l-0.5,2l-0.7-0.3
			l0,1c0,1-0.1,2-0.4,2.9c-0.3,1-0.7,2.1-1.3,3.1c0.3,0.5,0.5,0.9,0.6,1.2c0.2,0.5,0.3,1,0.3,1.4c0,0.3,0,0.5,0,0.7
			c0,0.2,0,0.4-0.1,0.7c-0.8,0.2-1.6,0.3-2.5,0.4c-0.9,0.1-1.8,0.2-2.6,0.2c0-0.1,0-0.3,0-0.4c0-0.6,0.1-1.1,0.3-1.6
			c1.3-0.7,2.3-1.6,3.2-2.7c-0.5-1-0.9-1.7-1.1-2.1c-0.3-0.4-0.7-1.1-1.3-2.1c-0.2-0.3-0.4-0.6-0.6-0.8c-0.2-0.3-0.4-0.4-0.6-0.4
			c-0.1,0-0.3,0.1-0.5,0.2c-0.1,0.1-0.2,0.1-0.3,0.1c-0.2,0-0.4-0.2-0.8-0.5c-0.3-0.3-0.6-0.7-1-1.1c-0.3-0.3-0.5-0.6-0.6-0.9
			c-0.1-0.2-0.1-0.5-0.1-0.8c0-0.5,0-0.8,0.1-1.1c0.1-0.4,0.2-0.6,0.5-0.6c0.3,0,0.8,0.3,1.3,0.9c0.5,0.5,1.1,1.2,1.7,2.1
			c0.6,0.8,1.1,1.6,1.7,2.4l1.1,1.8c0.3,0.6,0.7,1.2,1,1.9c0.5-1,0.8-2,1-3.1c0.2-0.9,0.2-2,0.2-3.4l-0.6-0.4c0-0.5,0-0.9,0.1-1.3
			s0.2-0.8,0.4-1.1l0.3,0.1c0,0.3,0.2,0.6,0.5,0.8c0.2,0.1,0.4,0.2,0.7,0.4C225.7,19.1,225.9,19.2,226.1,19.3z M223.1,30.2
			c0-0.2,0-0.3-0.1-0.5c-0.1-0.2-0.2-0.5-0.4-0.9c-0.2,0.3-0.6,0.6-1,1s-0.9,0.7-1.3,1c0.9,0,1.5,0,1.9-0.1
			C222.8,30.6,223.1,30.5,223.1,30.2z"/>
		<path d="M230.7,28.3c0,0.6-0.1,1.2-0.3,1.7c-0.1,0.3-0.4,0.8-0.7,1.4l-0.2-0.1c0-0.2,0-0.5,0.1-0.8c0-0.3,0-0.5,0-0.6
			c0-0.8-0.1-1.9-0.2-3.3c-0.1-1.4-0.3-2.9-0.4-4.4c-0.1-0.9-0.2-1.9-0.3-2.8c0.2-0.3,0.3-0.7,0.5-1.1c0.2-0.4,0.4-0.7,0.5-1.1
			c0.1,0.9,0.3,2,0.5,3.5s0.3,2.8,0.4,4C230.6,26.4,230.7,27.5,230.7,28.3z"/>
	</g>
	<rect x="0" y="0" class="st1" width="340.8" height="54.8"/>
</g>
</svg>
