<?xml version="1.0" encoding="utf-8"?>
<!-- Generator: Adobe Illustrator 19.2.0, SVG Export Plug-In . SVG Version: 6.00 Build 0)  -->
<svg version="1.1" id="Layer_1" xmlns="http://www.w3.org/2000/svg" xmlns:xlink="http://www.w3.org/1999/xlink" x="0px" y="0px"
	 viewBox="0 0 340.8 54.8" style="enable-background:new 0 0 340.8 54.8;" xml:space="preserve">
<style type="text/css">
	.st0{fill:#BA0017;}
	.st1{fill:none;}
</style>
<g>
	<g>
		<path d="M85.8,20.6c0,0.1,0,0.3,0,0.4s0,0.3-0.1,0.4l-0.9-0.6c-0.4,0.4-0.6,0.7-0.8,0.8c-0.6,0.5-1,0.8-1.4,0.8h-0.8
			c0.4-0.2,0.9-0.5,1.4-0.9c0.5-0.4,0.8-0.7,1.1-1c-0.2-0.1-0.4-0.3-0.5-0.4c-0.1-0.2-0.2-0.4-0.2-0.6c0-0.5,0.1-0.9,0.4-1.3
			s0.6-0.6,0.9-0.6c0.2,0,0.4,0.1,0.5,0.3c0.2,0.2,0.2,0.5,0.2,0.8c0,0.1,0,0.3-0.1,0.4c0,0.2-0.1,0.4-0.3,0.8
			c0.1,0.1,0.2,0.2,0.4,0.3C85.7,20.4,85.8,20.5,85.8,20.6z M84.9,19.4c0-0.2-0.1-0.4-0.2-0.6c-0.1-0.2-0.3-0.3-0.4-0.3
			c-0.1,0-0.1,0-0.2,0.1c0,0.1-0.1,0.1-0.1,0.2c0,0.2,0.1,0.3,0.3,0.5l0.5,0.4C84.9,19.5,84.9,19.4,84.9,19.4z"/>
		<path d="M94.6,33.2H83.9c-1.4,0-2.6-0.3-3.4-0.8c-1.1-0.6-1.6-1.6-1.6-3c0-0.7,0.2-1.4,0.5-2.1c0.1-0.3,0.4-0.8,0.8-1.5l0.3,0.2
			c-0.2,0.3-0.3,0.7-0.5,1c-0.2,0.5-0.3,1-0.3,1.4c0,0.9,0.5,1.6,1.4,2.1c0.8,0.4,1.9,0.7,3.2,0.7h9.5v-0.3c0-0.8-0.1-1.5-0.3-2
			c-0.2-0.5-0.5-1-1-1.4l0.9-1.8c0.3,0.4,0.5,0.7,0.6,0.8c0.5,0.8,0.8,2.1,0.8,3.7V33.2z M88.2,35.9l-0.9,1.6l-1.8-0.9l0.8-1.6
			L88.2,35.9z"/>
		<path d="M101.6,18.7c0,0.3-0.2,0.7-0.6,1c-0.7,0.3-1.8,0.7-3.3,1.3c0-0.3,0.2-0.6,0.5-0.9C98.9,19.8,100,19.4,101.6,18.7z"/>
		<path d="M102.4,33.2h-5c-0.4,0-0.8-0.1-1.2-0.4s-0.5-0.5-0.5-0.9c0-0.3,0-0.5,0-0.8c0-0.2,0.1-0.5,0.2-0.8h0.3
			c0.1,0.3,0.2,0.5,0.4,0.7c0.2,0.1,0.4,0.2,0.7,0.2h4.3c0-1.3-0.2-2.4-0.6-3.2c-0.5-1-1.2-1.7-2.3-2l0.2-2.2c1.3,0.6,2.2,1.7,2.8,3
			c0.4,1.1,0.7,2.6,0.7,4.4V33.2z"/>
		<path d="M106.8,12.7c0,0.6-0.1,1-0.3,1.4c-0.2,0.4-0.5,0.6-0.9,0.6c-0.1,0-0.3,0-0.4-0.1c-0.1,0-0.2-0.1-0.4-0.2
			c-0.1,0.3-0.3,0.5-0.4,0.6c-0.2,0.2-0.5,0.4-0.8,0.4c-0.3,0-0.5-0.1-0.7-0.3c-0.2-0.2-0.2-0.5-0.2-0.9c0-0.2,0-0.4,0.1-0.6
			c0-0.1,0.1-0.3,0.2-0.6l0.2-0.1c0,0.1,0,0.2,0,0.3s0,0.2,0,0.3c0,0.2,0,0.3,0.1,0.4c0.1,0.1,0.2,0.2,0.3,0.2
			c0.3,0,0.6-0.2,0.8-0.6c0.1-0.2,0.2-0.6,0.3-1.1l0.2-0.1c0.1,0.4,0.1,0.6,0.1,0.7c0.1,0.2,0.2,0.3,0.4,0.3c0.3,0,0.5-0.2,0.7-0.6
			c0.1-0.3,0.2-0.6,0.2-1l0.2-0.1c0,0.1,0.1,0.3,0.1,0.5C106.8,12.4,106.8,12.6,106.8,12.7z M106.7,9.9c0,0.3-0.2,0.7-0.6,1
			c-0.7,0.3-1.8,0.7-3.3,1.3c0-0.3,0.2-0.6,0.5-0.9C103.9,11.1,105.1,10.6,106.7,9.9z"/>
		<path d="M106,18c0,0.2-0.1,0.4-0.3,0.5c-0.2,0.1-0.4,0.2-0.7,0.3l-2.1,0.7c0-0.3,0.4-0.6,1.1-0.9c-0.2-0.1-0.4-0.2-0.5-0.3
			c-0.2-0.1-0.2-0.3-0.2-0.4c0-0.2,0.2-0.6,0.6-1c0.4-0.5,0.8-0.7,1.2-0.7c0.2,0,0.3,0.1,0.4,0.2c0.1,0.1,0.2,0.2,0.2,0.4
			c0,0.1,0,0.2-0.1,0.3c0,0.1-0.1,0.2-0.2,0.4c-0.2-0.2-0.5-0.3-0.8-0.3c-0.2,0-0.3,0-0.5,0.1s-0.2,0.1-0.2,0.2
			c0,0.1,0.2,0.3,0.5,0.5c0.3,0.2,0.6,0.3,0.9,0.3c0.2,0,0.3,0,0.4,0C105.6,18.2,105.7,18.1,106,18z M114,21.3l-0.5,2l-0.7-0.3l0,1
			c0,1-0.1,2-0.4,2.9c-0.3,1-0.7,2.1-1.3,3.1c0.3,0.5,0.5,0.9,0.6,1.2c0.2,0.5,0.3,1,0.3,1.4c0,0.3,0,0.5,0,0.7c0,0.2,0,0.4-0.1,0.7
			c-0.8,0.2-1.6,0.3-2.5,0.4c-0.9,0.1-1.8,0.2-2.6,0.2c0-0.1,0-0.3,0-0.4c0-0.6,0.1-1.1,0.3-1.6c1.3-0.7,2.3-1.6,3.2-2.7
			c-0.5-1-0.9-1.7-1.1-2.1c-0.3-0.4-0.7-1.1-1.3-2.1c-0.2-0.3-0.4-0.6-0.6-0.8c-0.2-0.3-0.4-0.4-0.6-0.4c-0.1,0-0.3,0.1-0.5,0.2
			c-0.1,0.1-0.2,0.1-0.3,0.1c-0.2,0-0.4-0.2-0.8-0.5c-0.3-0.3-0.6-0.7-1-1.1c-0.3-0.3-0.5-0.6-0.6-0.9c-0.1-0.2-0.1-0.5-0.1-0.8
			c0-0.5,0-0.8,0.1-1.1c0.1-0.4,0.2-0.6,0.5-0.6c0.3,0,0.8,0.3,1.3,0.9c0.5,0.5,1.1,1.2,1.7,2.1c0.6,0.8,1.1,1.6,1.7,2.4l1.1,1.8
			c0.3,0.6,0.7,1.2,1,1.9c0.5-1,0.8-2,1-3.1c0.2-0.9,0.2-2,0.2-3.4l-0.6-0.4c0-0.5,0-0.9,0.1-1.3s0.2-0.8,0.4-1.1l0.3,0.1
			c0,0.3,0.2,0.6,0.5,0.8c0.2,0.1,0.4,0.2,0.7,0.4C113.7,21.1,113.9,21.2,114,21.3z M111.1,32.2c0-0.2,0-0.3-0.1-0.5
			c-0.1-0.2-0.2-0.5-0.4-0.9c-0.2,0.3-0.6,0.6-1,1s-0.9,0.7-1.3,1c0.9,0,1.5,0,1.9-0.1C110.8,32.6,111.1,32.5,111.1,32.2z"/>
		<path d="M118.7,30.3c0,0.6-0.1,1.2-0.3,1.7c-0.1,0.3-0.4,0.8-0.7,1.4l-0.2-0.1c0-0.2,0-0.5,0.1-0.8c0-0.3,0-0.5,0-0.6
			c0-0.8-0.1-1.9-0.2-3.3c-0.1-1.4-0.3-2.9-0.4-4.4c-0.1-0.9-0.2-1.9-0.3-2.8c0.2-0.3,0.3-0.7,0.5-1.1c0.2-0.4,0.4-0.7,0.5-1.1
			c0.1,0.9,0.3,2,0.5,3.5s0.3,2.8,0.4,4C118.6,28.4,118.7,29.5,118.7,30.3z"/>
		<path class="st0" d="M133.8,33.2h-1.3c-1.2,0-2.3,0.1-3.3,0.3c-1.2,0.3-1.8,0.7-1.8,1.3c0,0.5,0.1,1,0.3,1.6
			c0.2,0.6,0.3,1.1,0.5,1.7s0.3,1.1,0.3,1.6c0,0.3,0,0.5-0.1,0.8s-0.1,0.5-0.2,0.9c-0.2-0.6-0.4-1.2-0.6-1.9
			c-0.4-1.2-0.6-2.1-0.8-2.7c-0.3-1-0.4-1.5-0.4-1.7c0-1,0.2-1.7,0.6-2.2s1-0.9,1.8-1.1c0.7-0.2,1.7-0.4,3-0.5
			c-0.5-0.5-0.8-0.8-0.9-0.9c-0.4-0.3-0.8-0.4-1.2-0.4c-0.2,0-0.5,0.1-0.7,0.2c-0.2,0.1-0.4,0.3-0.7,0.6l-0.5-0.3
			c0.2-0.6,0.5-1,0.8-1.3c0.5-0.6,1-0.8,1.7-0.8c0.5,0,0.9,0.2,1.4,0.5c0.4,0.3,0.8,0.7,1.2,1.2c0.2,0.2,0.5,0.7,0.9,1.3V33.2z"/>
		<path class="st0" d="M138.3,12.9c0,0.3-0.2,0.7-0.6,1c-0.7,0.3-1.8,0.7-3.3,1.3c0-0.3,0.2-0.6,0.5-0.9
			C135.5,14,136.6,13.5,138.3,12.9z"/>
		<path class="st0" d="M137.9,18c0,0.2-0.1,0.4-0.3,0.5c-0.2,0.1-0.4,0.2-0.7,0.3l-2.1,0.7c0-0.3,0.4-0.6,1.1-0.9
			c-0.2-0.1-0.4-0.2-0.5-0.3c-0.2-0.1-0.2-0.3-0.2-0.4c0-0.2,0.2-0.6,0.6-1c0.4-0.5,0.8-0.7,1.2-0.7c0.2,0,0.3,0.1,0.4,0.2
			c0.1,0.1,0.2,0.2,0.2,0.4c0,0.1,0,0.2-0.1,0.3c0,0.1-0.1,0.2-0.2,0.4c-0.2-0.2-0.5-0.3-0.8-0.3c-0.2,0-0.3,0-0.5,0.1
			s-0.2,0.1-0.2,0.2c0,0.1,0.2,0.3,0.5,0.5c0.3,0.2,0.6,0.3,0.9,0.3c0.2,0,0.3,0,0.4,0C137.6,18.2,137.7,18.1,137.9,18z M137.6,30.3
			c0,0.6-0.1,1.2-0.3,1.7c-0.1,0.3-0.4,0.8-0.7,1.4l-0.2-0.1c0-0.2,0-0.5,0.1-0.8c0-0.3,0-0.5,0-0.6c0-0.8-0.1-1.9-0.2-3.3
			c-0.1-1.4-0.3-2.9-0.4-4.4c-0.1-0.9-0.2-1.9-0.3-2.8c0.2-0.3,0.3-0.7,0.5-1.1c0.2-0.4,0.4-0.7,0.5-1.1c0.1,0.9,0.3,2,0.5,3.5
			s0.3,2.8,0.4,4C137.6,28.4,137.6,29.5,137.6,30.3z"/>
		<path d="M150.3,22.9c0,0.1,0,0.3,0,0.4s0,0.3-0.1,0.4l-0.9-0.6c-0.4,0.4-0.6,0.7-0.8,0.8c-0.6,0.5-1,0.8-1.4,0.8h-0.8
			c0.4-0.2,0.9-0.5,1.4-0.9c0.5-0.4,0.8-0.7,1.1-1c-0.2-0.1-0.4-0.3-0.5-0.4c-0.1-0.2-0.2-0.4-0.2-0.6c0-0.5,0.1-0.9,0.4-1.3
			c0.3-0.4,0.6-0.6,0.9-0.6c0.2,0,0.4,0.1,0.5,0.3c0.2,0.2,0.2,0.5,0.2,0.8c0,0.1,0,0.3-0.1,0.4s-0.1,0.4-0.3,0.8
			c0.1,0.1,0.2,0.2,0.4,0.3C150.2,22.6,150.3,22.7,150.3,22.9z M149.4,21.6c0-0.2-0.1-0.4-0.2-0.6c-0.1-0.2-0.3-0.3-0.4-0.3
			c-0.1,0-0.1,0-0.2,0.1c0,0.1-0.1,0.1-0.1,0.2c0,0.2,0.1,0.3,0.3,0.5l0.5,0.4C149.4,21.8,149.4,21.7,149.4,21.6z"/>
		<path d="M152.7,33.2h-1.3c-1.2,0-2.3,0.1-3.3,0.3c-1.2,0.3-1.8,0.7-1.8,1.3c0,0.5,0.1,1,0.3,1.6c0.2,0.6,0.3,1.1,0.5,1.7
			s0.3,1.1,0.3,1.6c0,0.3,0,0.5-0.1,0.8s-0.1,0.5-0.2,0.9c-0.2-0.6-0.4-1.2-0.6-1.9c-0.4-1.2-0.6-2.1-0.8-2.7
			c-0.3-1-0.4-1.5-0.4-1.7c0-1,0.2-1.7,0.6-2.2s1-0.9,1.8-1.1c0.7-0.2,1.7-0.4,3-0.5c-0.5-0.5-0.8-0.8-0.9-0.9
			c-0.4-0.3-0.8-0.4-1.2-0.4c-0.2,0-0.5,0.1-0.7,0.2c-0.2,0.1-0.4,0.3-0.7,0.6l-0.5-0.3c0.2-0.6,0.5-1,0.8-1.3
			c0.5-0.6,1-0.8,1.7-0.8c0.5,0,0.9,0.2,1.4,0.5c0.4,0.3,0.8,0.7,1.2,1.2c0.2,0.2,0.5,0.7,0.9,1.3V33.2z"/>
		<path d="M157.2,16c0,0.5-0.2,0.9-0.5,1.2c-0.3,0.4-0.8,0.5-1.3,0.5c-0.4,0-0.7-0.1-0.9-0.3c-0.2-0.2-0.3-0.5-0.3-0.9
			c0-0.6,0.1-1.1,0.4-1.5c0.3-0.4,0.7-0.7,1.1-0.7c0.4,0,0.7,0.2,1,0.5S157.2,15.6,157.2,16z M156.5,16.3c0-0.2-0.1-0.4-0.4-0.7
			c-0.3-0.3-0.5-0.4-0.7-0.4c-0.2,0-0.4,0.1-0.5,0.3c-0.1,0.2-0.2,0.3-0.2,0.5c0,0.3,0.1,0.4,0.4,0.6c0.2,0.1,0.5,0.1,0.8,0.1
			c0.2,0,0.3,0,0.5-0.1C156.4,16.5,156.5,16.4,156.5,16.3z"/>
		<path d="M157.5,33.2H152v-2h4.4l-1.3-9.5l-0.6-0.3c0-0.5,0-1,0.1-1.5s0.2-0.9,0.4-1.3l0.2,0.1c0,0.4,0.2,0.8,0.7,1
			c0.4,0.1,0.8,0.3,1.1,0.4c0,0.4,0,0.8-0.1,1.2c-0.1,0.4-0.1,0.7-0.2,1l-0.5-0.2l1.3,8.8V33.2z"/>
		<path d="M164.1,35.2c0,0.4-0.2,0.7-0.6,1c-0.7,0.3-1.8,0.7-3.3,1.3c0-0.3,0.2-0.6,0.5-0.9C161.4,36.3,162.5,35.8,164.1,35.2z"/>
		<path d="M166.6,33.2h-1.7c-0.5,0-1-0.1-1.5-0.3c-0.6-0.3-1-0.7-1.3-1.2c-0.5,0.4-1.1,0.8-1.7,1c-0.8,0.3-1.7,0.5-2.7,0.5h-1v-2h1
			c0.6,0,1.2-0.1,1.8-0.2c0.6-0.2,1.2-0.4,1.8-0.8l-0.5-0.6c-0.2-0.3-0.5-0.4-0.8-0.4c-0.1,0-0.3,0-0.4,0.1c-0.1,0-0.2,0.2-0.3,0.3
			h-0.2v-0.7c0-0.8,0.2-1.4,0.7-1.7c0.4-0.3,1.1-0.4,2.1-0.4c0.8,0,1.5,0.1,2.1,0.3c0.7,0.3,1,0.7,1,1.3c0,0.3-0.1,0.7-0.4,1
			c-0.2,0.3-0.6,0.6-1.1,1.1c0.1,0.2,0.3,0.3,0.7,0.4c0.3,0.1,0.6,0.2,0.9,0.2h1.7V33.2z"/>
		<path d="M171.3,33.2h-5.5v-2h4.4l-1.3-9.5l-0.6-0.3c0-0.5,0-1,0.1-1.5s0.2-0.9,0.4-1.3l0.2,0.1c0,0.4,0.2,0.8,0.7,1
			c0.4,0.1,0.8,0.3,1.1,0.4c0,0.4,0,0.8-0.1,1.2c-0.1,0.4-0.1,0.7-0.2,1l-0.5-0.2l1.3,8.8V33.2z"/>
		<path d="M175.1,30.3c0,0.6-0.1,1.2-0.3,1.7c-0.1,0.3-0.4,0.8-0.7,1.4l-0.2-0.1c0-0.2,0-0.5,0.1-0.8c0-0.3,0-0.5,0-0.6
			c0-0.8-0.1-1.9-0.2-3.3c-0.1-1.4-0.3-2.9-0.4-4.4c-0.1-0.9-0.2-1.9-0.3-2.8c0.2-0.3,0.3-0.7,0.5-1.1c0.2-0.4,0.4-0.7,0.5-1.1
			c0.1,0.9,0.3,2,0.5,3.5s0.3,2.8,0.4,4C175.1,28.4,175.1,29.5,175.1,30.3z"/>
		<path d="M184.6,26.8v-2.3h2.3v2.3H184.6z M184.6,36.4v-2.3h2.3v2.3H184.6z"/>
		<path d="M202.3,20.6c0,0.1,0,0.3,0,0.4s0,0.3-0.1,0.4l-0.9-0.6c-0.4,0.4-0.6,0.7-0.8,0.8c-0.6,0.5-1,0.8-1.4,0.8h-0.8
			c0.4-0.2,0.9-0.5,1.4-0.9c0.5-0.4,0.8-0.7,1.1-1c-0.2-0.1-0.4-0.3-0.5-0.4c-0.1-0.2-0.2-0.4-0.2-0.6c0-0.5,0.1-0.9,0.4-1.3
			s0.6-0.6,0.9-0.6c0.2,0,0.4,0.1,0.5,0.3c0.2,0.2,0.2,0.5,0.2,0.8c0,0.1,0,0.3-0.1,0.4c0,0.2-0.1,0.4-0.3,0.8
			c0.1,0.1,0.2,0.2,0.4,0.3C202.2,20.4,202.3,20.5,202.3,20.6z M201.4,19.4c0-0.2-0.1-0.4-0.2-0.6c-0.1-0.2-0.3-0.3-0.4-0.3
			c-0.1,0-0.1,0-0.2,0.1c0,0.1-0.1,0.1-0.1,0.2c0,0.2,0.1,0.3,0.3,0.5l0.5,0.4C201.4,19.5,201.4,19.4,201.4,19.4z"/>
		<path d="M206.4,39.5l-2.3,1.8c-1.4,0-2.5-0.1-3.3-0.2c-1.5-0.2-2.6-0.7-3.4-1.3c-1.1-0.9-1.6-2.1-1.6-3.6c0-1,0.2-2,0.6-2.9
			c0.3-0.7,0.8-1.4,1.4-2.1c0.3-0.3,0.8-0.9,1.7-1.6c-0.1-0.3-0.2-0.4-0.3-0.6c-0.1-0.1-0.3-0.2-0.4-0.2c-0.2,0-0.4,0.1-0.6,0.4H198
			c0.2-0.8,0.3-1.3,0.5-1.6c0.4-0.7,1.1-1.1,2.1-1.1c0.6,0,1.2,0.2,1.7,0.5c0.5,0.4,0.8,0.8,0.8,1.4c0,0.4-0.1,0.7-0.4,0.9
			c-0.3,0.2-0.5,0.4-0.6,0.5c0.4,0.5,0.8,0.9,1.2,1.1c0.4,0.2,0.9,0.3,1.4,0.3h1v2h-1c-1.1,0-2-0.2-2.7-0.5
			c-0.6-0.3-1.1-0.9-1.5-1.7c-0.5,0.4-1,0.7-1.5,1.1c-0.6,0.5-1.1,1-1.4,1.5c-0.4,0.6-0.6,1.2-0.6,1.8c0,1.3,0.6,2.2,1.9,2.9
			c1,0.5,2.3,0.9,4,1.1C203.7,39.4,204.9,39.4,206.4,39.5L206.4,39.5z"/>
		<path d="M210.9,16.5c0,0.3-0.2,0.7-0.6,1c-0.7,0.3-1.8,0.7-3.3,1.3c0-0.3,0.2-0.6,0.5-0.9C208.2,17.6,209.3,17.1,210.9,16.5z"/>
		<path d="M211.7,33.2h-6.8v-2h3.9c0.5,0,0.9,0,1.2-0.1c0.3,0,0.7-0.1,1.1-0.2c-1.3-0.2-2.1-0.4-2.5-0.5c-0.9-0.4-1.3-1-1.3-1.9
			c0-0.8,0.2-1.5,0.6-2.2c0.5-0.8,1-1.2,1.7-1.2c0.8,0,1.3,0.5,1.7,1.5c0.3,0.8,0.5,1.7,0.5,2.7V33.2z M210.7,21.2l-1,1.6l-1.6-1.1
			l0.9-1.6L210.7,21.2z M210.7,29.2c-0.2-0.6-0.3-1-0.5-1.3c-0.3-0.6-0.7-0.8-1.1-0.8c-0.2,0-0.4,0.1-0.5,0.2
			c-0.2,0.2-0.2,0.4-0.2,0.6c0,0.6,0.3,1,0.9,1.1C209.4,29.1,209.9,29.2,210.7,29.2z"/>
		<path d="M217.2,17.1c0,0.5-0.2,0.9-0.5,1.2c-0.3,0.4-0.8,0.5-1.3,0.5c-0.4,0-0.7-0.1-0.9-0.3c-0.2-0.2-0.3-0.5-0.3-0.9
			c0-0.6,0.1-1.1,0.4-1.5c0.3-0.4,0.7-0.7,1.1-0.7c0.4,0,0.7,0.2,1,0.5S217.2,16.7,217.2,17.1z M216.5,17.4c0-0.2-0.1-0.4-0.4-0.7
			c-0.3-0.3-0.5-0.4-0.7-0.4c-0.2,0-0.4,0.1-0.5,0.3c-0.1,0.2-0.2,0.3-0.2,0.5c0,0.3,0.1,0.4,0.4,0.6c0.2,0.1,0.5,0.1,0.8,0.1
			c0.2,0,0.3,0,0.5-0.1C216.5,17.7,216.5,17.6,216.5,17.4z"/>
		<path d="M217.3,33.2h-6.4v-2h5.6c0-0.9-0.1-1.6-0.3-2c-0.1-0.3-0.5-0.8-1.1-1.4L216,26c0.5,0.7,0.9,1.2,1,1.6
			c0.2,0.6,0.3,1.5,0.3,2.9V33.2z M216.4,22.8l-0.9,1.6l-1.8-0.9l0.8-1.6L216.4,22.8z"/>
		<path d="M221.7,12.9c0,0.3-0.2,0.7-0.6,1c-0.7,0.3-1.8,0.7-3.3,1.3c0-0.3,0.2-0.6,0.5-0.9C219,14,220.1,13.5,221.7,12.9z"/>
		<path d="M221.4,18c0,0.2-0.1,0.4-0.3,0.5c-0.2,0.1-0.4,0.2-0.7,0.3l-2.1,0.7c0-0.3,0.4-0.6,1.1-0.9c-0.2-0.1-0.4-0.2-0.5-0.3
			c-0.2-0.1-0.2-0.3-0.2-0.4c0-0.2,0.2-0.6,0.6-1c0.4-0.5,0.8-0.7,1.2-0.7c0.2,0,0.3,0.1,0.4,0.2c0.1,0.1,0.2,0.2,0.2,0.4
			c0,0.1,0,0.2-0.1,0.3c0,0.1-0.1,0.2-0.2,0.4c-0.2-0.2-0.5-0.3-0.8-0.3c-0.2,0-0.3,0-0.5,0.1s-0.2,0.1-0.2,0.2
			c0,0.1,0.2,0.3,0.5,0.5c0.3,0.2,0.6,0.3,0.9,0.3c0.2,0,0.3,0,0.4,0C221,18.2,221.2,18.1,221.4,18z M221.1,30.3
			c0,0.6-0.1,1.2-0.3,1.7c-0.1,0.3-0.4,0.8-0.7,1.4l-0.2-0.1c0-0.2,0-0.5,0.1-0.8c0-0.3,0-0.5,0-0.6c0-0.8-0.1-1.9-0.2-3.3
			c-0.1-1.4-0.3-2.9-0.4-4.4c-0.1-0.9-0.2-1.9-0.3-2.8c0.2-0.3,0.3-0.7,0.5-1.1c0.2-0.4,0.4-0.7,0.5-1.1c0.1,0.9,0.3,2,0.5,3.5
			s0.3,2.8,0.4,4C221,28.4,221.1,29.5,221.1,30.3z"/>
		<path d="M233.7,33.2h-1.6c-0.5,0-0.9-0.2-1.2-0.6c-0.3-0.4-0.5-0.9-0.6-1.6c-0.1-0.7-0.2-1.6-0.3-2.6c0-0.8-0.1-1.7-0.1-2.6
			c0-0.9-0.1-1.6-0.2-2c-0.1-0.5-0.2-0.8-0.3-1.1c-0.2-0.4-0.4-0.7-0.7-0.9l1.4-2.2c0.3,0.9,0.5,2,0.6,3.2c0.1,0.8,0.1,2.6,0.2,5.5
			c0.1,1.3,0.3,2.2,0.6,2.6c0.2,0.3,0.4,0.5,0.7,0.5h1.6V33.2z"/>
		<path d="M240.1,19.8c0,0.3-0.2,0.7-0.6,1c-0.7,0.3-1.8,0.7-3.3,1.3c0-0.3,0.2-0.6,0.5-0.9C237.4,21,238.5,20.5,240.1,19.8z"/>
		<path d="M242.8,33.2h-1.2c-0.5,0-1.1-0.1-1.7-0.3c-0.7-0.3-1.4-0.6-1.9-1.1c-0.4,0.5-0.9,0.9-1.3,1.1c-0.5,0.2-1.1,0.3-2,0.3h-1.8
			v-2h1.7c0.7,0,1.3-0.2,1.8-0.5c0.4-0.3,0.8-0.6,1.1-1.1c0.5-0.7,1-1.2,1.7-1.7c0.6-0.4,1.1-0.7,1.7-0.8c0.5,0.8,0.9,1.5,1.2,2.1
			c0.4,0.9,0.6,1.5,0.6,2.1V33.2z M241.5,30.9c-0.1-0.4-0.2-0.9-0.4-1.3c-0.2-0.4-0.4-0.7-0.7-1.1c-0.4,0.1-0.7,0.3-0.9,0.5
			c-0.2,0.2-0.4,0.4-0.6,0.8c0.3,0.3,0.6,0.6,1.1,0.8c0.5,0.2,1,0.4,1.4,0.4L241.5,30.9z"/>
		<path d="M248,20.6c0,0.1,0,0.3,0,0.4s0,0.3-0.1,0.4l-0.9-0.6c-0.4,0.4-0.6,0.7-0.8,0.8c-0.6,0.5-1,0.8-1.4,0.8H244
			c0.4-0.2,0.9-0.5,1.4-0.9c0.5-0.4,0.8-0.7,1.1-1c-0.2-0.1-0.4-0.3-0.5-0.4c-0.1-0.2-0.2-0.4-0.2-0.6c0-0.5,0.1-0.9,0.4-1.3
			s0.6-0.6,0.9-0.6c0.2,0,0.4,0.1,0.5,0.3c0.2,0.2,0.2,0.5,0.2,0.8c0,0.1,0,0.3-0.1,0.4c0,0.2-0.1,0.4-0.3,0.8
			c0.1,0.1,0.2,0.2,0.4,0.3C247.9,20.4,248,20.5,248,20.6z M247.1,19.4c0-0.2-0.1-0.4-0.2-0.6c-0.1-0.2-0.3-0.3-0.4-0.3
			c-0.1,0-0.1,0-0.2,0.1c0,0.1-0.1,0.1-0.1,0.2c0,0.2,0.1,0.3,0.3,0.5l0.5,0.4C247.1,19.5,247.1,19.4,247.1,19.4z"/>
		<path d="M251.8,33.2h-4.1c0.5,0.2,0.9,0.5,1.2,1c0.4,0.5,0.6,1.1,0.6,1.7c0,0.6-0.1,1.1-0.3,1.4c-0.2,0.4-0.6,0.7-1.1,0.7
			c-0.9,0-1.7-0.3-2.5-0.9c-0.9-0.7-1.3-1.7-1.3-3l0-0.8H242v-2h2.8c0.3-0.7,0.6-1.3,0.9-1.9c0.4-0.8,0.8-1.4,1.2-1.9
			c0.5-0.6,1-0.8,1.4-0.8c0.2,0,0.4,0.2,0.6,0.6s0.3,0.8,0.3,1.3c0,0.7-0.2,1.2-0.5,1.6c-0.2,0.2-0.8,0.6-1.8,1.1h4.9V33.2z
			 M248.6,35.6c0-0.6-0.4-1.2-1.3-1.7c-0.7-0.4-1.4-0.7-2.1-0.9c0,0.8,0.2,1.5,0.6,2c0.5,0.6,1.2,1,2.1,1c0.2,0,0.3,0,0.5-0.1
			C248.5,35.9,248.6,35.8,248.6,35.6z M248.1,29.3c0-0.7-0.1-1.1-0.4-1.1c-0.3,0-0.7,0.4-1.2,1.1c-0.2,0.3-0.5,0.9-0.9,1.7
			c0.7-0.2,1.3-0.4,1.7-0.7C247.8,29.9,248.1,29.6,248.1,29.3z"/>
		<path d="M257.6,18.8c-0.3,0-0.5,0-0.8-0.1c-0.1,0-0.2-0.1-0.5-0.1c-0.4,0.4-0.7,0.6-0.9,0.7c-0.4,0.3-0.9,0.4-1.3,0.4
			c-0.1,0-0.2,0-0.3-0.1c-0.1,0-0.2-0.1-0.3-0.1c0.6-0.3,1-0.4,1.2-0.5c0.4-0.2,0.8-0.4,1.2-0.6c-0.2-0.2-0.3-0.3-0.4-0.4
			c-0.1-0.2-0.2-0.3-0.2-0.5c0-0.3,0.1-0.6,0.4-1s0.6-0.5,0.9-0.5c0.2,0,0.4,0.1,0.6,0.2s0.3,0.3,0.3,0.6c0,0.2,0,0.3-0.1,0.5
			c0,0.1-0.1,0.2-0.3,0.5c0.2,0.1,0.4,0.2,0.4,0.3C257.6,18.1,257.6,18.4,257.6,18.8z M257.6,20c0,0.6-0.1,1-0.3,1.4
			c-0.2,0.4-0.5,0.6-0.9,0.6c-0.1,0-0.3,0-0.4-0.1c-0.1,0-0.2-0.1-0.4-0.2c-0.1,0.3-0.3,0.5-0.4,0.6c-0.2,0.2-0.5,0.4-0.8,0.4
			c-0.3,0-0.5-0.1-0.7-0.3c-0.2-0.2-0.2-0.5-0.2-0.9c0-0.2,0-0.4,0.1-0.6c0-0.1,0.1-0.3,0.2-0.6l0.2-0.1c0,0.1,0,0.2,0,0.3
			s0,0.2,0,0.3c0,0.2,0,0.3,0.1,0.4c0.1,0.1,0.2,0.2,0.3,0.2c0.3,0,0.6-0.2,0.8-0.6c0.1-0.2,0.2-0.6,0.3-1.1l0.2-0.1
			c0.1,0.4,0.1,0.6,0.1,0.7c0.1,0.2,0.2,0.3,0.4,0.3c0.3,0,0.5-0.2,0.7-0.6c0.1-0.3,0.2-0.6,0.2-1l0.2-0.1c0,0.2,0.1,0.3,0.1,0.5
			S257.6,19.9,257.6,20z M256.7,17.1c0-0.2-0.1-0.3-0.2-0.5c-0.1-0.1-0.3-0.2-0.4-0.2c-0.1,0-0.1,0-0.1,0.1c0,0.1,0,0.1,0,0.2
			c0,0.2,0,0.3,0.1,0.4c0.1,0.1,0.2,0.2,0.5,0.4c0-0.1,0-0.1,0.1-0.2C256.7,17.2,256.7,17.1,256.7,17.1z"/>
		<path d="M257.5,33.2H251v-2h5.6c0-0.9-0.1-1.6-0.3-2c-0.1-0.3-0.5-0.8-1.1-1.4l0.9-1.8c0.5,0.7,0.9,1.2,1,1.6
			c0.2,0.6,0.3,1.5,0.3,2.9V33.2z M254.8,36.4L254,38l-1.8-0.9l0.8-1.6L254.8,36.4z M257.4,35.4l-0.9,1.6l-1.8-1l0.8-1.6L257.4,35.4
			z"/>
		<path d="M261.9,12.9c0,0.3-0.2,0.7-0.6,1c-0.7,0.3-1.8,0.7-3.3,1.3c0-0.3,0.2-0.6,0.5-0.9C259.1,14,260.3,13.5,261.9,12.9z"/>
		<path d="M261.6,18c0,0.2-0.1,0.4-0.3,0.5c-0.2,0.1-0.4,0.2-0.7,0.3l-2.1,0.7c0-0.3,0.4-0.6,1.1-0.9c-0.2-0.1-0.4-0.2-0.5-0.3
			c-0.2-0.1-0.2-0.3-0.2-0.4c0-0.2,0.2-0.6,0.6-1c0.4-0.5,0.8-0.7,1.2-0.7c0.2,0,0.3,0.1,0.4,0.2c0.1,0.1,0.2,0.2,0.2,0.4
			c0,0.1,0,0.2-0.1,0.3c0,0.1-0.1,0.2-0.2,0.4c-0.2-0.2-0.5-0.3-0.8-0.3c-0.2,0-0.3,0-0.5,0.1s-0.2,0.1-0.2,0.2
			c0,0.1,0.2,0.3,0.5,0.5c0.3,0.2,0.6,0.3,0.9,0.3c0.2,0,0.3,0,0.4,0C261.2,18.2,261.3,18.1,261.6,18z M261.2,30.3
			c0,0.6-0.1,1.2-0.3,1.7c-0.1,0.3-0.4,0.8-0.7,1.4l-0.2-0.1c0-0.2,0-0.5,0.1-0.8c0-0.3,0-0.5,0-0.6c0-0.8-0.1-1.9-0.2-3.3
			c-0.1-1.4-0.3-2.9-0.4-4.4c-0.1-0.9-0.2-1.9-0.3-2.8c0.2-0.3,0.3-0.7,0.5-1.1c0.2-0.4,0.4-0.7,0.5-1.1c0.1,0.9,0.3,2,0.5,3.5
			s0.3,2.8,0.4,4C261.2,28.4,261.2,29.5,261.2,30.3z"/>
	</g>
	<rect x="0" y="0" class="st1" width="340.8" height="54.8"/>
</g>
</svg>
