<?xml version="1.0" encoding="utf-8"?>
<!-- Generator: Adobe Illustrator 19.2.0, SVG Export Plug-In . SVG Version: 6.00 Build 0)  -->
<svg version="1.1" id="Layer_1" xmlns="http://www.w3.org/2000/svg" xmlns:xlink="http://www.w3.org/1999/xlink" x="0px" y="0px"
	 viewBox="0 0 81.7 48.8" style="enable-background:new 0 0 81.7 48.8;" xml:space="preserve">
<style type="text/css">
	.st0{fill:#097B70;}
	.st1{fill:none;}
</style>
<g>
	<path class="st0" d="M32.4,32.7h-1.7c-1.5,0-3.2,0-5,0.1c-1.1,0-2.6,0.1-4.4,0.2s-2.8,0.1-2.9,0.1c-1.8,0-3.1-0.3-3.9-1
		c-0.7-0.6-1.1-1.5-1.1-2.8c0-1,0.1-1.8,0.3-2.5s0.6-1.9,1.3-3.5l0.8,0.4c-0.6,1.4-0.9,2.5-0.9,3.2c0,0.9,0.3,1.5,1,1.9
		c0.8,0.4,2.1,0.6,3.9,0.6c1.3-0.1,2.6-0.1,3.8-0.2s2.4-0.1,3.5-0.1c-0.3-0.2-0.6-0.4-0.7-0.6c-0.1-0.2-0.2-0.5-0.2-0.9
		c0-1.2,0.4-2.4,1.1-3.6c0.8-1.3,1.7-1.9,2.6-1.9c0.9,0,1.5,0.6,2,1.9c0.4,1.1,0.5,2.9,0.5,5.2V32.7z M31.4,17.8l-1.5,2.8l-3-1.5
		l1.5-2.9L31.4,17.8z M30.4,27.7c-0.3-0.8-0.5-1.4-0.7-1.6s-0.4-0.4-0.8-0.4c-0.2,0-0.3,0.1-0.4,0.2c-0.1,0.1-0.2,0.3-0.2,0.5
		c0,0.3,0.2,0.5,0.5,0.7S29.7,27.5,30.4,27.7z"/>
	<path class="st0" d="M43.6,33c0,0.5-0.3,1.2-0.9,2.1s-1.3,1.6-2.1,2.2c-0.9,0.7-1.6,1-2.3,1c-0.7,0-1.5-0.2-2.4-0.6
		c-0.7-0.4-1.9-1.1-3.5-2.2l0.5-0.8c0.8,0.5,1.4,0.9,1.8,1s1,0.3,1.5,0.3c0.6,0,1.2-0.2,1.8-0.5s1.4-0.9,2.4-1.8
		c1.4-1.3,2.1-2.2,2.1-2.9c0-0.3-0.1-0.8-0.4-1.3c-0.3-0.6-0.7-1.1-1.1-1.6l0.7-3.4c0.6,0.6,1,1.3,1.3,2s0.5,1.6,0.5,2.6V33z"/>
	<path class="st0" d="M57.3,32.7H42.8v-3.5h9c-1-1.1-2-1.8-2.8-2.3c-0.8-0.4-1.5-0.6-2.3-0.6c-0.2,0-0.4,0-0.6,0
		c-0.2,0-0.4,0.1-0.8,0.1c0.5-1.1,1-1.9,1.6-2.4c0.6-0.5,1.2-0.8,1.9-0.8c0.6,0,1.1,0.1,1.6,0.4s1.1,0.7,1.7,1.3
		c0.5,0.5,1.2,1.2,2.2,2.2c0.6,0.7,1.1,1.2,1.5,1.4c0.3,0.2,0.8,0.4,1.5,0.5V32.7z"/>
	<path class="st0" d="M63.3,32.7h-7v-3.5h5.5l-1.5-8.6l-0.8-0.5c0-0.5,0.1-1,0.2-1.5c0.2-0.6,0.5-1.4,1-2.3l0.6,0.3
		c0,0.1,0,0.2-0.1,0.4c0,0.3,0.2,0.6,0.5,0.8c0.3,0.2,0.8,0.5,1.5,0.8c-0.1,0.5-0.2,1.1-0.3,1.6c-0.1,0.5-0.3,1-0.5,1.4L62,21.4
		l1.4,7.9V32.7z"/>
	<path class="st0" d="M68,29.1c0,0.8-0.1,1.4-0.3,2.1s-0.5,1.5-1,2.5L66,33.3c0.2-1.1,0.3-2,0.3-2.6c0-0.5,0-1.3-0.1-2.3
		s-0.2-2-0.3-3s-0.3-2.1-0.6-3.5c-0.1-0.5-0.2-0.8-0.2-1c0-0.3,0.1-0.7,0.4-1.3s0.6-1.4,1.1-2.3l0.8,4.5c0.3,1.7,0.5,3.2,0.6,4.4
		C68,27.2,68,28.2,68,29.1z"/>
</g>
<rect class="st1" width="81.7" height="48.8"/>
</svg>
