<?xml version="1.0" encoding="utf-8"?>
<!-- Generator: Adobe Illustrator 16.0.0, SVG Export Plug-In . SVG Version: 6.00 Build 0)  -->
<!DOCTYPE svg PUBLIC "-//W3C//DTD SVG 1.1//EN" "http://www.w3.org/Graphics/SVG/1.1/DTD/svg11.dtd">
<svg version="1.1" id="Layer_1" xmlns="http://www.w3.org/2000/svg" xmlns:xlink="http://www.w3.org/1999/xlink" x="0px" y="0px"
	 width="669.14px" height="175.113px" viewBox="0 0 669.14 175.113" enable-background="new 0 0 669.14 175.113"
	 xml:space="preserve">
<g>
	<g opacity="0.6">
		<g>
			<path fill="#EFE6E2" d="M71.735,178.125C32.156,178.125,0,145.968,0,106.391V74.745C0,35.168,32.157,3.012,71.735,3.012h525.668
				c39.578,0,71.736,32.156,71.736,71.733v31.233c0,39.577-32.158,71.732-71.736,71.732H71.735V178.125z"/>
		</g>
	</g>
</g>
<g>
	<path fill="#235958" d="M273.561,122.856h-8.463c-3.622,0-6.232-1.604-7.831-4.814c-1.011-1.927-1.769-5.096-2.273-9.51
		c-4.549,5.939-8.212,8.907-10.991,8.907c-1.852,0-3.706-0.481-5.557-1.444c-2.106-1.122-3.157-2.528-3.157-4.213
		c0-1.764,1.093-4.936,3.284-9.509c1.093-2.486,2.946-4.652,5.557-6.499c0.841-0.561,3.451-2.006,7.831-4.334
		c-0.757-3.207-1.137-5.254-1.137-6.138c0-1.523,1.979-4.131,5.937-7.823c0,0.081,0.84,5.698,2.526,16.85
		c1.346,8.988,2.357,13.862,3.032,14.624c0.672,0.765,1.768,1.225,3.284,1.385c1.093,0.162,2.567,0.201,4.422,0.12
		c2.608-0.079,3.789-0.12,3.536-0.12V122.856z M261.688,66.765l-4.799,7.583l-7.328-4.935l-3.536,6.259l-8.084-5.538l4.673-7.342
		l7.201,5.176l4.42-6.74L261.688,66.765z M254.109,103.717c0-1.764-0.422-4.332-1.264-7.703c-6.232,3.211-9.347,5.618-9.347,7.221
		c0,1.526,2.862,2.288,8.59,2.288C253.434,105.523,254.109,104.92,254.109,103.717z"/>
	<path fill="#235958" d="M303.245,122.856h-8.338c-5.642,0-9.347-4.494-11.115-13.481c-2.612,8.987-6.063,13.481-10.358,13.481
		h-4.168v-12.519h4.168c5.388,0,8.084-4.814,8.084-14.444c0-3.93-0.378-9.848-1.138-17.753c-0.757-7.902-1.135-13.821-1.135-17.754
		c0-0.16,2.062-1.884,6.188-5.175c0.84,5.536,1.264,10.272,1.264,14.203c0,8.426,0.378,15.97,1.137,22.628
		c1.346,12.199,3.704,18.296,7.072,18.296h8.338V122.856z"/>
	<path fill="#235958" d="M328.253,122.856h-8.336c-3.875,0-6.695-2.287-8.464-6.861c-2.359,4.574-5.096,6.861-8.211,6.861h-4.168
		v-12.519c4.883,0,6.777,0,5.685,0c2.694-0.079,4.462-0.561,5.305-1.444c0.253-0.241,0.38-2.125,0.38-5.658l0.757,0.121
		c0.506,3.533,2.736,5.699,6.694,6.5c1.178,0.321,4.632,0.481,10.358,0.481V122.856z M323.202,91.078l-4.423,7.463l-7.325-4.936
		l-3.663,6.381l-7.958-5.658l4.673-7.462l7.073,5.416l4.294-6.74L323.202,91.078z M314.863,79.525l-4.546,7.703l-7.705-5.537
		l4.799-7.583L314.863,79.525z"/>
	<path fill="#235958" d="M358.062,107.93c0,2.648-0.63,5.016-1.895,7.102c-1.432,2.487-3.409,3.731-5.936,3.731
		c-2.612,0-7.159-1.523-13.643-4.574c-0.506,1.524-1.644,3.292-3.411,5.296c-1.853,2.247-3.496,3.371-4.925,3.371h-4.168v-12.519
		c3.789,0,6.271-0.241,7.452-0.722c1.85-0.723,3.388-2.528,4.609-5.416c1.221-2.89,2.42-5.817,3.6-8.788
		c2.104-3.771,4.631-5.655,7.579-5.655c3.199,0,5.894,2.367,8.085,7.1C357.178,100.708,358.062,104.401,358.062,107.93z
		 M350.989,105.523c0-1.444-0.654-2.687-1.959-3.731c-1.305-1.042-2.757-1.564-4.355-1.564c-1.855,0-3.369,1.124-4.549,3.371
		c4.379,2.406,7.367,3.61,8.968,3.61C350.358,107.208,350.989,106.648,350.989,105.523z"/>
	<path fill="#235958" d="M384.083,52.081c-0.423,1.606-0.884,2.668-1.389,3.189c-0.506,0.523-1.562,0.984-3.16,1.384l-16.04,4.574
		c1.345-2.727,3.494-4.493,6.441-5.296c-2.863-1.925-4.295-3.53-4.295-4.814c0-1.845,1.453-4.072,4.358-6.68
		c2.906-2.606,5.325-3.912,7.262-3.912c2.273,0,3.411,1.083,3.411,3.25c0,0.803-0.505,2.328-1.516,4.574
		c-2.273-1.445-4.086-2.167-5.431-2.167c-1.517,0-2.948,0.803-4.295,2.407c3.956,2.969,6.989,4.453,9.096,4.453
		C380.376,53.044,382.229,52.724,384.083,52.081z"/>
	<path fill="#235958" d="M402.145,71.58c-1.011-1.123-1.768-2.245-2.272-3.37c1.093-4.733,3.032-7.743,5.811-9.027
		c0.167,2.889,1.345,5.338,3.536,7.342c2.188,2.008,4.756,2.77,7.706,2.288l-5.558,9.268l-1.011-0.482c0,0.563,0,1.526,0,2.889
		c0,6.58-0.212,10.875-0.633,12.879c-0.59,2.728-2.23,6.661-4.925,11.796c2.607,5.938,3.914,10.873,3.914,14.804
		c0,4.173-1.726,7.022-5.179,8.546c-2.273,0.964-5.98,1.444-11.114,1.444h-11.369l2.273-12.518h4.673
		c3.369-2.566,7.116-6.018,11.242-10.352c-6.737-10.27-13.685-18.615-20.84-25.036c-1.435,2.81-2.697,4.213-3.79,4.213
		c-1.768,0-3.747-1.324-5.936-3.972c-2.191-2.648-3.284-4.894-3.284-6.741c0-2.407,2.229-6.338,6.692-11.795
		c10.527,7.384,20.589,19.541,30.189,36.471c1.684-3.53,2.527-7.782,2.527-12.759C404.799,84.982,403.914,79.685,402.145,71.58z
		 M403.535,115.634c0-0.964-0.757-2.447-2.273-4.454c-2.106,2.568-4.21,4.654-6.314,6.259h3.284
		C401.767,117.439,403.535,116.837,403.535,115.634z"/>
	<path fill="#235958" d="M436.25,106.967c0,4.333-0.969,8.828-2.906,13.481h-2.146c0-6.82-0.76-14.161-2.273-22.028
		c-2.36-12.676-3.538-20.741-3.538-24.192c0-2.085,0.759-4.131,2.273-6.138c0.588-0.883,2.104-2.607,4.549-5.176
		c0,4.654,0.672,11.976,2.02,21.966C435.575,94.871,436.25,102.234,436.25,106.967z"/>
</g>
</svg>
