<?xml version="1.0" encoding="utf-8"?>
<!-- Generator: Adobe Illustrator 16.0.0, SVG Export Plug-In . SVG Version: 6.00 Build 0)  -->
<!DOCTYPE svg PUBLIC "-//W3C//DTD SVG 1.1//EN" "http://www.w3.org/Graphics/SVG/1.1/DTD/svg11.dtd">
<svg version="1.1" id="Layer_1" xmlns="http://www.w3.org/2000/svg" xmlns:xlink="http://www.w3.org/1999/xlink" x="0px" y="0px"
	 width="197px" height="62px" viewBox="0 0 197 62" enable-background="new 0 0 197 62" xml:space="preserve">
<g>
	<path fill="#F07100" d="M153.87,34.996h-3.255c-0.055,0.759-0.221,1.701-0.494,2.826c-0.633,2.435-1.684,4.202-3.152,5.301
		c-1.47,1.1-3.522,1.649-6.16,1.649c-1.704,0-3.117-0.38-4.244-1.139c-1.264-0.838-1.895-2.042-1.895-3.612
		c0-0.891,0.302-2.187,0.906-3.888c0.576-1.596,1.139-2.84,1.689-3.729l0.617,0.196c-0.879,1.807-1.318,3.206-1.318,4.201
		c0,2.67,1.854,4.005,5.563,4.005c4.67,0,7.004-1.322,7.004-3.966c0-0.131,0.014-0.334,0.043-0.608
		c0.026-0.275,0.041-0.478,0.041-0.608c0-0.602-0.289-1.25-0.866-1.943c-0.576-0.694-0.879-1.133-0.907-1.315
		c0.439-0.786,1.059-2.003,1.855-3.651c0.659,1.178,1.208,1.858,1.648,2.041c0.247,0.105,1.222,0.157,2.925,0.157V34.996z
		 M145.588,26.357l-1.359,2.395l-2.555-1.806l1.483-2.434L145.588,26.357z"/>
	<path fill="#F07100" d="M158.568,28.87c0,1.676-0.345,3.063-1.031,4.162c-0.824,1.31-2.06,1.964-3.708,1.964h-1.36v-4.084
		c2.857,0,4.286-0.314,4.286-0.942c0-0.131-0.241-0.458-0.722-0.982c-0.48-0.522-0.721-0.954-0.721-1.295
		c0-0.472,0.604-1.819,1.813-4.044C158.087,25.664,158.568,27.405,158.568,28.87z M160.217,38.176l-1.566,2.474l-2.391-1.57
		l-1.194,2.041l-2.597-1.845l1.607-2.435l2.308,1.767l1.442-2.198L160.217,38.176z"/>
	<path fill="#F07100" d="M175.832,34.996h-2.926c-1.291,6.15-3.709,9.227-7.252,9.227c-1.648,0-3.517-0.694-5.604-2.081l0.289-0.432
		c0.658,0.209,1.372,0.314,2.142,0.314c2.308,0,4.258-0.682,5.851-2.043c1.236-1.047,2.459-2.709,3.668-4.985
		c-1.483,0-2.473-0.079-2.967-0.236c-0.906-0.34-1.359-1.086-1.359-2.238c0-1.072,0.37-2.499,1.111-4.279
		c0.852-2.016,1.718-3.023,2.597-3.023c0.962,0,1.634,1.897,2.019,5.693h2.432V34.996z M172.206,30.912
		c-0.659-1.23-1.374-1.846-2.144-1.846c-0.658,0-0.988,0.275-0.988,0.825c0,0.681,0.604,1.021,1.813,1.021H172.206z"/>
	<path fill="#F07100" d="M184.113,34.996h-2.719c-1.264,0-2.186-0.746-2.762-2.238c-0.77,1.492-1.662,2.238-2.678,2.238h-1.359
		v-4.084c1.592,0,2.211,0,1.854,0c0.879-0.025,1.455-0.184,1.73-0.472c0.082-0.078,0.125-0.693,0.125-1.845l0.246,0.039
		c0.164,1.152,0.893,1.858,2.184,2.12c0.385,0.105,1.512,0.157,3.379,0.157V34.996z M181.27,24.395l-1.4,2.435l-2.514-1.807
		l1.484-2.395L181.27,24.395z"/>
	<path fill="#F07100" d="M188.852,28.87c0,1.676-0.344,3.063-1.029,4.162c-0.824,1.31-2.061,1.964-3.709,1.964h-1.359v-4.084
		c2.857,0,4.285-0.314,4.285-0.942c0-0.131-0.24-0.458-0.723-0.982c-0.48-0.522-0.719-0.954-0.719-1.295
		c0-0.472,0.604-1.819,1.813-4.044C188.371,25.664,188.852,27.405,188.852,28.87z M190.625,20.546l-1.568,2.396l-2.389-1.571
		l-1.195,2.042l-2.596-1.806l1.566-2.435l2.266,1.689l1.443-2.199L190.625,20.546z"/>
</g>
<g display="none">
	<path display="inline" fill="#235958" d="M77.397,28.693c-0.275,0-0.536,0.249-0.783,0.746h-2.555
		c0.356-1.492,0.769-2.578,1.236-3.259c0.714-1.047,1.716-1.571,3.008-1.571c0.933,0,2.169,0.132,3.708,0.394
		c2.115,0.367,3.352,0.563,3.708,0.588c1.098,0,2.5,0.079,4.203,0.236l-0.66,3.181c-0.961,0-1.703,0.053-2.225,0.157
		c0.33,0.785,0.81,1.282,1.442,1.491c0.357,0.132,1.112,0.197,2.266,0.197h4.451v4.083h-5.109c-3.407,0-5.11-0.968-5.11-2.906
		c0-0.811,0.248-1.728,0.742-2.748c-2.61,0.367-4.848,1.257-6.716,2.67c-2.143,1.649-3.214,3.64-3.214,5.969
		c0,2.617,1.62,4.567,4.862,5.85c2.362,0.942,5.151,1.414,8.365,1.414c0.714,0,1.744-0.054,3.09-0.157
		c1.346-0.104,2.349-0.17,3.008-0.196l0.042,0.472l-8.118,3.729h-0.866c-3.516,0-6.332-0.642-8.447-1.924
		c-2.555-1.545-3.832-3.887-3.832-7.028c0-4.45,2.308-8.088,6.922-10.915C79.333,28.851,78.193,28.693,77.397,28.693z"/>
	<path display="inline" fill="#235958" d="M103.314,34.937h-2.72c-1.264,0-2.185-0.746-2.761-2.237
		c-0.77,1.491-1.663,2.237-2.679,2.237h-1.359v-4.083c1.593,0,2.21,0,1.854,0c0.879-0.025,1.456-0.184,1.731-0.472
		c0.082-0.079,0.124-0.693,0.124-1.846l0.247,0.039c0.165,1.153,0.892,1.859,2.184,2.121c0.384,0.104,1.51,0.157,3.379,0.157V34.937
		z M101.666,24.57l-1.442,2.436l-2.39-1.61l-1.195,2.081l-2.596-1.846l1.524-2.435l2.307,1.767l1.401-2.198L101.666,24.57z"/>
	<path display="inline" fill="#235958" d="M115.14,34.937h-2.761c-2.033,0-3.57-0.497-4.615-1.492
		c-1.785,0.995-3.27,1.492-4.449,1.492h-1.36v-4.083c1.318,0,2.253-0.157,2.802-0.472c-0.303-0.288-0.453-0.602-0.453-0.942
		c0-1.229,0.426-2.578,1.277-4.044c0.797-1.387,1.73-2.486,2.803-3.298c0.686-0.524,1.277-0.786,1.771-0.786
		c0.879,0,1.523,0.654,1.936,1.963c0.303,0.917,0.454,1.938,0.454,3.062c0,1.519-0.494,2.841-1.483,3.966
		c0.494,0.367,1.154,0.563,1.978,0.589c-1.292-0.025-0.591-0.038,2.102-0.038V34.937z M111.061,27.555
		c0-0.602-0.241-1.105-0.721-1.512c-0.481-0.405-1.051-0.608-1.711-0.608c-0.521,0-1.029,0.145-1.523,0.432
		c-0.578,0.314-0.865,0.707-0.865,1.178c0,0.576,0.686,1.362,2.059,2.356C110.141,28.929,111.061,28.314,111.061,27.555z
		 M111.72,16.718l-1.524,2.434l-2.514-1.767l1.565-2.474L111.72,16.718z"/>
	<path display="inline" fill="#235958" d="M118.023,18.25v0.274c0,1.178,0.213,2.945,0.639,5.3c0.426,2.356,0.639,4.123,0.639,5.301
		c0,1.493-0.303,2.775-0.906,3.849c-0.77,1.31-1.868,1.963-3.297,1.963h-1.359v-4.083c1.373,0,2.17-0.04,2.391-0.118
		c0.713-0.183,1.07-0.759,1.07-1.728c0-1.388-0.287-3.521-0.865-6.4c-0.632-3.088-0.975-5.287-1.029-6.596
		c-0.139-0.157-0.275-0.379-0.412-0.667c0.412-1.571,1.043-2.552,1.895-2.945c0.055,0.917,0.439,1.708,1.154,2.375
		c0.714,0.667,1.551,0.923,2.514,0.766l-1.771,2.984L118.023,18.25z"/>
	<path display="inline" fill="#235958" d="M126.8,29.754c0,1.413-0.315,2.879-0.948,4.397h-0.699c0-2.225-0.248-4.62-0.742-7.186
		c-0.77-4.135-1.154-6.767-1.154-7.892c0-0.68,0.248-1.348,0.742-2.002c0.191-0.288,0.686-0.85,1.483-1.688
		c0,1.519,0.22,3.907,0.659,7.166C126.58,25.808,126.8,28.21,126.8,29.754z"/>
</g>
<g>
	<g>
		<path fill="#F07100" d="M79.417,37.667h-0.33c-2.17,0-3.255-1.741-3.255-5.223c-0.165,0.419-0.385,0.694-0.66,0.824
			c-0.467,0.184-0.755,0.314-0.865,0.394c-0.576,0.471-1.346,0.732-2.307,0.785c0.33,2.119,0.495,3.337,0.495,3.651
			c0,1.989-0.591,3.9-1.772,5.732c-1.346,2.12-3.008,3.181-4.986,3.181c-1.429,0-3.269-0.643-5.521-1.925l0.371-0.589
			c0.907,0.236,1.634,0.354,2.184,0.354c1.703,0,3.53-0.857,5.48-2.571c1.95-1.715,2.925-3.37,2.925-4.967
			c0-1.047-0.715-2.408-2.143-4.084c0.577-1.57,0.961-2.853,1.154-3.848c0.824,1.204,1.731,1.807,2.719,1.807
			c0.687,0,1.312-0.236,1.875-0.707c0.563-0.472,0.9-1.021,1.009-1.649h0.413c0.247,0.996,0.672,2.252,1.277,3.77
			c0.357,0.523,1.002,0.785,1.938,0.785V37.667z"/>
		<path fill="#F07100" d="M79.127,33.387h1.36c1.125,0,1.799-0.209,2.019-0.628c0.055-0.104,0.15-0.785,0.289-2.042l0.494,0.039
			c0,0.55,0.508,1.179,1.524,1.885c0.33,0.235,0.989,0.354,1.979,0.354c0.768,0,1.291-0.248,1.565-0.746
			c0.165-0.313,0.261-0.903,0.288-1.767h0.453c0.248,0.995,0.728,1.806,1.442,2.435c0.467,0.419,1.208,0.654,2.226,0.706
			c-0.852-0.025-0.042-0.039,2.431-0.039v4.084h-2.72c-1.016,0-1.827-0.406-2.431-1.218c-0.386-0.523-0.77-1.374-1.154-2.552
			c-0.769,2.198-1.813,3.298-3.132,3.298c-1.127,0-1.937-0.72-2.431-2.159c-0.769,1.754-2.17,2.631-4.203,2.631V33.387z"/>
		<path fill="#F07100" d="M114.151,37.667h-2.596c-0.687,0-1.396-0.249-2.122-0.746c-0.729-0.497-1.752-1.439-3.069-2.827
			c-1.622-1.728-2.638-2.774-3.05-3.142c0.273,0.813,0.412,1.427,0.412,1.846c0,3.246-2.061,4.869-6.181,4.869h-3.708v-4.084h3.708
			c3.296,0,4.945-0.483,4.945-1.453c0-0.68-0.674-1.399-2.02-2.159c-2.115-1.204-3.364-1.95-3.749-2.238
			c-1.347-1.072-2.019-2.342-2.019-3.808c0-2.173,2.334-4.607,7.004-7.304c3.297-1.885,6.703-3.429,10.219-4.633
			c-0.521,2.042-0.913,3.259-1.174,3.652c-0.262,0.392-2.878,1.688-7.85,3.887c-4.752,2.12-7.128,3.495-7.128,4.123
			c0,0.235,0.618,0.615,1.854,1.139c0.796,0.34,1.592,0.667,2.389,0.981c1.841,0.916,3.612,2.056,5.316,3.416
			c1.043,0.863,2.073,1.728,3.09,2.591c1.511,1.205,2.568,1.807,3.173,1.807h2.555V37.667z"/>
		<path fill="#F07100" d="M117.241,20.979v0.275c0,1.177,0.212,2.944,0.639,5.3c0.426,2.355,0.64,4.123,0.64,5.301
			c0,1.492-0.304,2.774-0.907,3.848c-0.771,1.31-1.868,1.964-3.296,1.964h-1.36v-4.084c1.374,0,2.169-0.039,2.39-0.117
			c0.714-0.183,1.071-0.76,1.071-1.729c0-1.387-0.288-3.52-0.865-6.4c-0.632-3.087-0.976-5.287-1.03-6.596
			c-0.137-0.157-0.275-0.379-0.412-0.667c0.412-1.57,1.044-2.552,1.896-2.945c0.054,0.917,0.438,1.708,1.153,2.375
			c0.714,0.667,1.552,0.923,2.513,0.766l-1.771,2.984L117.241,20.979z"/>
		<path fill="#F07100" d="M126.018,32.483c0,1.414-0.316,2.88-0.947,4.398h-0.701c0-2.225-0.248-4.62-0.742-7.186
			c-0.77-4.136-1.153-6.767-1.153-7.893c0-0.68,0.247-1.348,0.741-2.002c0.192-0.288,0.687-0.85,1.484-1.688
			c0,1.518,0.219,3.906,0.658,7.165C125.797,28.538,126.018,30.939,126.018,32.483z"/>
	</g>
</g>
<path fill="#FBE38F" d="M55.583,43.5c0,5.522-4.477,10-10,10H18.25c-5.523,0-10-4.478-10-10V19.833c0-5.523,4.477-10,10-10h27.333
	c5.523,0,10,4.477,10,10V43.5z"/>
<g>
	<g>
		<g>
			<g>
				<rect x="10.5" y="29.932" fill="#F28320" width="4.269" height="1.381"/>
				<rect x="16.857" y="29.932" fill="#F28320" width="4.269" height="1.381"/>
				<rect x="23.213" y="29.932" fill="#F28320" width="4.269" height="1.381"/>
				<rect x="29.572" y="29.932" fill="#F28320" width="4.268" height="1.381"/>
				<rect x="35.928" y="29.932" fill="#F28320" width="4.269" height="1.381"/>
				<rect x="42.287" y="29.932" fill="#F28320" width="4.268" height="1.381"/>
				<rect x="48.643" y="29.932" fill="#F28320" width="4.268" height="1.381"/>
			</g>
		</g>
	</g>
</g>
<g>
	<path fill="#F07100" d="M36.074,36.739c0,0.667-0.062,1.149-0.184,1.45c-0.123,0.3-0.464,0.6-1.022,0.899l-7.137,3.9
		c0-0.7,0.105-1.217,0.315-1.55c0.174-0.233,0.611-0.551,1.312-0.95L36.074,36.739z M36.074,40.189c0,1.199-0.402,2.033-1.206,2.5
		l-7.137,3.85c0-0.7,0.105-1.2,0.315-1.5c0.209-0.3,0.646-0.633,1.312-1L36.074,40.189z"/>
</g>
<g display="none">
	<path display="inline" fill="#235958" d="M89.305,36.996h-2.802c-1.786,0-3.049-0.275-3.791-0.825
		c0.274,1.23,0.412,1.99,0.412,2.277c0,0.707-0.192,1.36-0.577,1.963c-0.467,0.654-1.044,0.981-1.73,0.981
		c-1.319,0-2.362-0.667-3.132-2.002c-0.604-1.073-0.92-2.303-0.948-3.691c-1.071,0.289-1.806,0.655-2.204,1.1
		c-0.398,0.445-0.598,1.165-0.598,2.16c0,0.21,0.137,1.1,0.412,2.67l0.701,4.123c0.247,0.915,0.562,2.315,0.947,4.201l-1.071,1.021
		c-1.511-5.785-2.266-10.157-2.266-13.114c0-1.597,0.315-2.899,0.948-3.906c0.632-1.008,1.675-1.892,3.131-2.65
		c0.357-0.184,0.838-0.472,1.442-0.864c0.219-0.261,0.439-0.668,0.66-1.218c2.307,1.938,3.817,3.037,4.532,3.299
		c0.714,0.262,2.692,0.393,5.933,0.393V36.996z"/>
	<path display="inline" fill="#235958" d="M95.444,36.996c-1.73,0-2.884-0.76-3.461-2.278c-0.715,1.519-1.607,2.278-2.679,2.278
		h-1.36v-4.084c2.033,0,3.255-0.157,3.667-0.472c0.165-0.13,0.274-0.706,0.33-1.727h0.207c0.302,0.838,0.755,1.4,1.359,1.688
		c0.467,0.21,1.222,0.314,2.267,0.314v4.28H95.444z"/>
	<path display="inline" fill="#235958" d="M109.042,32.912h5.274v4.084h-9.189c-1.209,0-1.978-0.275-2.307-0.825
		c-1.512,0.393-3.242,0.668-5.192,0.825c-0.056,0.235-0.247,0.614-0.577,1.138c-0.385,0.603-0.673,0.903-0.865,0.903
		c-0.275,0-0.413-0.144-0.413-0.432l0.701-1.609h-1.03v-4.28c1.648,0,2.637-0.013,2.966-0.039c1.017-1.623,2.309-3.22,3.874-4.79
		c2.06-2.068,3.763-3.103,5.11-3.103c1.043,0,1.895,0.432,2.554,1.296c0.659,0.863,0.989,1.793,0.989,2.788
		C110.938,30.308,110.305,31.655,109.042,32.912z M101.295,23.096l-1.524,2.434l-2.472-1.846l1.524-2.434L101.295,23.096z
		 M109.165,30.242c0-0.811-0.796-1.218-2.39-1.218c-1.456,0-3.695,1.205-6.717,3.613c1.429,0,3.132-0.184,5.109-0.55
		C107.832,31.616,109.165,31.002,109.165,30.242z"/>
	<path display="inline" fill="#235958" d="M117.241,20.308v0.275c0,1.178,0.212,2.945,0.639,5.301
		c0.425,2.355,0.639,4.122,0.639,5.301c0,1.492-0.303,2.774-0.907,3.848c-0.77,1.31-1.867,1.964-3.295,1.964h-1.36v-4.084
		c1.373,0,2.169-0.039,2.39-0.117c0.714-0.184,1.071-0.76,1.071-1.729c0-1.387-0.288-3.521-0.865-6.399
		c-0.633-3.089-0.976-5.288-1.03-6.597c-0.137-0.157-0.275-0.379-0.412-0.667c0.412-1.571,1.044-2.552,1.896-2.945
		c0.054,0.917,0.438,1.708,1.152,2.375c0.715,0.668,1.552,0.923,2.514,0.766l-1.771,2.984L117.241,20.308z"/>
	<path display="inline" fill="#235958" d="M126.018,31.813c0,1.413-0.316,2.88-0.947,4.397h-0.701c0-2.225-0.248-4.619-0.742-7.186
		c-0.77-4.135-1.153-6.766-1.153-7.891c0-0.681,0.247-1.348,0.741-2.003c0.192-0.288,0.687-0.85,1.484-1.688
		c0,1.519,0.219,3.907,0.658,7.166S126.018,30.269,126.018,31.813z"/>
</g>
</svg>
