<?xml version="1.0" encoding="utf-8"?>
<!-- Generator: Adobe Illustrator 22.0.1, SVG Export Plug-In . SVG Version: 6.00 Build 0)  -->
<svg version="1.1" id="Layer_1" xmlns="http://www.w3.org/2000/svg" xmlns:xlink="http://www.w3.org/1999/xlink" x="0px" y="0px"
	 viewBox="0 0 209.5 46.6" style="enable-background:new 0 0 209.5 46.6;" xml:space="preserve">
<style type="text/css">
	.st0{fill:#542C0B;}
</style>
<g>
	<path class="st0" d="M84.7,15.6H83c-0.8,1.2-1.5,2.4-2,3.8c-0.7,1.6-1,3.3-1,5.1c0,1.4,0.2,2.9,0.7,4.5c0.5,1.5,1.2,3,2.2,4.5h1.8
		c-0.5-1.2-0.9-2.1-1.1-2.7c-0.3-1-0.6-2-0.8-3c-0.2-1.1-0.3-2.1-0.3-3.1c0-1.5,0.2-2.9,0.5-4.2C83.3,19.1,83.9,17.5,84.7,15.6z"/>
	<polygon class="st0" points="93.1,17.4 90.9,16.3 89.8,18.4 92,19.5 	"/>
	<polygon class="st0" points="96.1,28.9 94.7,28.2 93.8,30 95.5,31 96.2,29.5 97.6,30.2 98.6,28.4 96.9,27.4 	"/>
	<polygon class="st0" points="101.3,28.9 99.9,28.2 98.9,30 100.7,31 101.4,29.5 102.7,30.2 103.7,28.4 102,27.4 	"/>
	<polygon class="st0" points="114.4,18 115.8,18.7 116.8,16.8 115.1,15.9 114.3,17.4 112.9,16.7 112,18.5 113.7,19.4 	"/>
	<path class="st0" d="M120.7,18.6c0.1-0.3,0.3-0.6,0.4-1s0.2-0.8,0.2-1.2c-0.5-0.2-0.9-0.4-1.1-0.6c-0.3-0.2-0.4-0.4-0.4-0.6
		c0-0.2,0-0.3,0-0.3l-0.4-0.2c-0.3,0.6-0.6,1.2-0.7,1.7c-0.1,0.4-0.2,0.7-0.2,1.1l0.6,0.4l1.1,6.3h-3.3c0-1.1-0.1-1.9-0.3-2.5
		c-0.2-0.6-0.5-1.1-1-1.7l-0.7,2.2c0.3,0.4,0.6,0.7,0.6,0.8c0.2,0.3,0.3,0.6,0.4,1.1h-4.3c-0.1-0.7-0.3-1.5-0.7-2.3
		c-0.5-1-0.9-1.4-1.2-1.4c-0.3,0-0.8,0.2-1.2,0.7c-0.5,0.5-1,1.2-1.4,1.9c-0.2,0.4-0.5,0.7-0.9,0.9c-0.3,0.1-0.8,0.2-1.3,0.2h-1.2
		c0-1.1-0.1-1.9-0.3-2.5c-0.2-0.6-0.5-1.1-1-1.7l-0.7,2.2c0.3,0.4,0.6,0.7,0.6,0.8c0.2,0.3,0.3,0.6,0.4,1.1h-4.2
		c0-1.1-0.1-1.9-0.3-2.5c-0.2-0.6-0.5-1.1-1-1.7L96.5,22c0.3,0.4,0.6,0.7,0.6,0.8c0.2,0.3,0.3,0.6,0.4,1.1h-4.2v-0.1
		c0-0.7-0.1-1.4-0.3-1.9c-0.2-0.6-0.6-1.1-1-1.5l-0.5,2.5c0.3,0.3,0.6,0.7,0.8,1.1c0.2,0.4,0.3,0.7,0.3,1c0,0.5-0.5,1.2-1.5,2.1
		c-0.7,0.7-1.3,1.1-1.7,1.3s-0.9,0.4-1.3,0.4s-0.8-0.1-1.1-0.2c-0.3-0.1-0.8-0.4-1.3-0.8l-0.4,0.6c1.2,0.8,2,1.3,2.6,1.6
		c0.6,0.3,1.2,0.5,1.8,0.5c0.5,0,1-0.3,1.7-0.8c0.6-0.5,1.1-1,1.5-1.6s0.6-1.1,0.6-1.5v-0.2H98h0.6h4.5h0.6h1.2c0.4,0,0.8,0,1-0.1
		c0.5-0.2,1-0.5,1.3-1.1c0.6,0.3,1.3,0.6,2,0.8c0.6,0.2,1.1,0.3,1.6,0.3v0.1h5.2h0.6h4.5v-2.5l-1-5.7L120.7,18.6z M109.8,24
		c-0.1,0-0.3-0.1-0.8-0.3c-0.2-0.1-0.4-0.2-0.7-0.3c0.2-0.6,0.4-0.8,0.6-0.8s0.5,0.2,0.8,0.6c0.3,0.3,0.4,0.6,0.4,0.7
		C110,24,110,24,109.8,24z"/>
	<path class="st0" d="M124.3,18.7l-0.6-3.3c-0.3,0.7-0.6,1.2-0.8,1.7c-0.2,0.5-0.3,0.8-0.3,1c0,0.1,0,0.4,0.1,0.7
		c0.2,1,0.4,1.8,0.5,2.6c0.1,0.7,0.2,1.4,0.2,2.2c0.1,0.7,0.1,1.3,0.1,1.7c0,0.5-0.1,1.1-0.2,1.9l0.6,0.2c0.4-0.8,0.6-1.4,0.8-1.8
		c0.1-0.5,0.2-1,0.2-1.5c0-0.6,0-1.3-0.1-2C124.6,21.1,124.5,20,124.3,18.7z"/>
	<path class="st0" d="M130.1,19.8c-0.5-1.5-1.2-2.9-2.2-4.2h-1.8c0.8,1.9,1.4,3.5,1.7,4.8c0.3,1.3,0.5,2.7,0.5,4.2
		c0,0.7,0,1.4-0.1,2.1s-0.2,1.4-0.4,2.2c-0.2,0.8-0.4,1.4-0.6,2s-0.6,1.4-1.1,2.5h1.8c1.1-1.6,1.8-3.3,2.3-4.9
		c0.4-1.5,0.6-2.9,0.6-4.2C130.8,22.8,130.6,21.3,130.1,19.8z"/>
</g>
</svg>
