<?xml version="1.0" encoding="utf-8"?>
<!-- Generator: Adobe Illustrator 22.0.1, SVG Export Plug-In . SVG Version: 6.00 Build 0)  -->
<svg version="1.1" id="Layer_1" xmlns="http://www.w3.org/2000/svg" xmlns:xlink="http://www.w3.org/1999/xlink" x="0px" y="0px"
	 viewBox="0 0 204.7 45.6" style="enable-background:new 0 0 204.7 45.6;" xml:space="preserve">
<style type="text/css">
	.st0{fill:#BA0017;}
</style>
<g>
	<g>
		<g>
			<g>
				<path class="st0" d="M23.1,26.5h-1.4c-0.4,0-0.8-0.2-1.1-0.5c-0.2-0.3-0.4-0.8-0.5-1.4s-0.2-1.4-0.3-2.3c0-0.7-0.1-1.5-0.1-2.3
					s-0.1-1.4-0.2-1.8s-0.2-0.7-0.3-1c-0.1-0.3-0.3-0.6-0.6-0.8l1.2-1.9c0.3,0.8,0.4,1.7,0.5,2.8c0.1,0.7,0.1,2.3,0.2,4.8
					c0.1,1.2,0.3,1.9,0.5,2.2c0.2,0.3,0.4,0.4,0.6,0.4h1.4V26.5z"/>
				<path class="st0" d="M31,26.5h-3.6c0.4,0.2,0.8,0.5,1.1,0.8c0.4,0.4,0.6,0.9,0.6,1.5c0,0.5-0.1,0.9-0.2,1.2
					c-0.2,0.4-0.5,0.6-0.9,0.6c-0.8,0-1.5-0.3-2.1-0.8c-0.8-0.7-1.2-1.5-1.2-2.6l0-0.7h-2.2v-1.7h2.5c0.2-0.6,0.5-1.2,0.8-1.7
					c0.3-0.7,0.7-1.2,1.1-1.6c0.4-0.5,0.8-0.7,1.2-0.7c0.2,0,0.4,0.2,0.5,0.5s0.2,0.7,0.2,1.1c0,0.6-0.1,1-0.4,1.4
					c-0.2,0.2-0.7,0.5-1.6,1H31V26.5z M28.1,28.7c0-0.5-0.4-1-1.1-1.5c-0.6-0.4-1.2-0.6-1.8-0.7c0,0.7,0.2,1.3,0.5,1.8
					c0.4,0.6,1,0.8,1.9,0.8c0.2,0,0.3,0,0.4-0.1S28.1,28.8,28.1,28.7z M27.7,23.2c0-0.6-0.1-0.9-0.4-0.9c-0.3,0-0.6,0.3-1,0.9
					c-0.2,0.3-0.5,0.8-0.8,1.5c0.6-0.2,1.1-0.4,1.5-0.6C27.5,23.7,27.7,23.5,27.7,23.2z"/>
				<path class="st0" d="M37.5,15c0,0.3-0.2,0.6-0.5,0.9c-0.6,0.2-1.5,0.6-2.8,1.1c0-0.3,0.1-0.6,0.4-0.8
					C35.1,15.9,36.1,15.5,37.5,15z"/>
				<path class="st0" d="M41.6,26.5H30.3v-1.7h8c-0.7-0.5-1.2-0.9-1.7-1.2C36,23.3,35.5,23,35,22.9c-0.5-0.2-1.1-0.3-1.6-0.3
					c-0.3,0-0.7,0-1,0.1c0.2-0.5,0.4-0.9,0.7-1.2c0.4-0.4,1-0.6,1.7-0.6c0.7,0,1.4,0.3,2.4,1c0.4,0.3,1.2,0.9,2.2,1.9
					c0.8,0.7,1.3,1.1,1.6,1.2h0.6V26.5z M36.6,28.7l-0.7,1.4l-1.6-0.8l0.8-1.4L36.6,28.7z"/>
				<path class="st0" d="M44.9,24c0,0.5-0.1,1-0.3,1.5c-0.1,0.3-0.3,0.7-0.6,1.2l-0.2-0.1c0-0.2,0-0.4,0.1-0.7s0-0.4,0-0.5
					c0-0.7-0.1-1.6-0.2-2.8s-0.2-2.5-0.4-3.8c-0.1-0.8-0.2-1.6-0.3-2.5c0.1-0.3,0.3-0.6,0.4-0.9s0.3-0.6,0.5-0.9
					c0.1,0.7,0.2,1.8,0.4,3s0.3,2.5,0.4,3.5C44.8,22.4,44.9,23.4,44.9,24z"/>
				<path class="st0" d="M55.5,26.5c0,0.7-0.3,1.5-0.9,2.2c-0.5,0.7-1.2,1.3-2,1.7c-0.8,0.5-1.4,0.7-1.9,0.7c-0.4,0-0.9-0.1-1.5-0.2
					c-0.4-0.1-0.9-0.3-1.4-0.5c-0.5-0.2-0.9-0.4-1.4-0.5l0.2-0.4c0.4,0.1,0.9,0.2,1.3,0.3s0.9,0.1,1.3,0.1c0.8,0,1.7-0.3,2.6-0.8
					c0.8-0.5,1.5-1.1,2.1-1.9s0.9-1.4,0.9-2c0-0.5-0.1-1.1-0.4-1.6c-0.2-0.5-0.6-0.9-1-1.4l0.6-1.5c0.5,0.5,0.9,1,1.2,1.5
					c0.3,0.6,0.4,1.2,0.4,1.9V26.5z"/>
				<path class="st0" d="M61.7,12.6c0,0.4-0.1,0.8-0.4,1.1s-0.7,0.5-1.1,0.5c-0.4,0-0.6-0.1-0.8-0.3s-0.3-0.5-0.3-0.8
					c0-0.5,0.1-0.9,0.4-1.3s0.6-0.6,1-0.6c0.4,0,0.6,0.1,0.9,0.4S61.7,12.2,61.7,12.6z M61.2,12.9c0-0.2-0.1-0.4-0.4-0.6
					s-0.5-0.3-0.6-0.3c-0.2,0-0.3,0.1-0.4,0.2s-0.2,0.3-0.2,0.5c0,0.2,0.1,0.4,0.3,0.5c0.2,0.1,0.4,0.1,0.7,0.1c0.2,0,0.3,0,0.4-0.1
					S61.2,13,61.2,12.9z"/>
				<path class="st0" d="M66.1,26.5H54.8v-1.7h8c-0.7-0.5-1.2-0.9-1.7-1.2c-0.6-0.4-1.1-0.6-1.6-0.8c-0.5-0.2-1.1-0.3-1.6-0.3
					c-0.3,0-0.7,0-1,0.1c0.2-0.5,0.4-0.9,0.7-1.2c0.4-0.4,1-0.6,1.7-0.6c0.7,0,1.4,0.3,2.4,1c0.4,0.3,1.2,0.9,2.2,1.9
					c0.8,0.7,1.3,1.1,1.6,1.2h0.6V26.5z M61.4,17.4l-0.7,1.4L59.1,18l0.7-1.4L61.4,17.4z"/>
				<path class="st0" d="M69.8,32.6c0,0.3-0.2,0.6-0.5,0.9c-0.6,0.2-1.5,0.6-2.8,1.1c0-0.3,0.1-0.5,0.4-0.8
					C67.4,33.6,68.4,33.2,69.8,32.6z"/>
				<path class="st0" d="M69.2,29.9c0,0.2-0.1,0.3-0.3,0.4c-0.1,0.1-0.3,0.2-0.6,0.3l-1.8,0.6c0-0.3,0.3-0.6,1-0.8
					c-0.2-0.1-0.4-0.2-0.5-0.3c-0.1-0.1-0.2-0.3-0.2-0.4c0-0.2,0.2-0.5,0.5-0.8c0.4-0.4,0.7-0.6,1-0.6c0.1,0,0.2,0,0.3,0.1
					s0.1,0.2,0.1,0.3c0,0.1,0,0.2-0.1,0.3s-0.1,0.2-0.2,0.3c-0.2-0.2-0.4-0.3-0.7-0.3c-0.1,0-0.3,0-0.4,0.1s-0.2,0.1-0.2,0.2
					c0,0.1,0.2,0.2,0.5,0.4s0.6,0.3,0.8,0.3c0.1,0,0.2,0,0.3,0S69,30,69.2,29.9z M69.4,24c0,0.5-0.1,1-0.3,1.5
					c-0.1,0.3-0.3,0.7-0.6,1.2l-0.2-0.1c0-0.2,0-0.4,0.1-0.7s0-0.4,0-0.5c0-0.7-0.1-1.6-0.2-2.8s-0.2-2.5-0.4-3.8
					c-0.1-0.8-0.2-1.6-0.3-2.5c0.1-0.3,0.3-0.6,0.4-0.9s0.3-0.6,0.5-0.9c0.1,0.7,0.2,1.8,0.4,3s0.3,2.5,0.4,3.5
					C69.3,22.4,69.4,23.4,69.4,24z"/>
				<path d="M81.3,11c0,0.3-0.2,0.6-0.5,0.9c-0.6,0.2-1.5,0.6-2.8,1.1c0-0.3,0.1-0.6,0.4-0.8C78.9,12,79.9,11.6,81.3,11z"/>
				<path d="M83.3,26.5h-1.4c-0.5,0-0.9-0.4-1.2-1.2C80.4,24.7,80.1,24,80,23c-0.2,0.4-0.4,0.6-0.7,0.8s-0.6,0.3-0.9,0.3
					c-0.7,0-1.4-0.1-1.9-0.2s-0.7-0.2-0.7-0.4c0-0.6,0.4-1.2,1.1-1.9s1.6-1.3,2.7-1.8c0-0.1,0-0.2-0.1-0.4s-0.1-0.4-0.1-0.4
					c0-0.2,0.1-0.5,0.2-0.7c0.1-0.2,0.3-0.4,0.5-0.7c0.1,0.4,0.1,0.8,0.2,1.2s0.1,0.8,0.2,1.2l0.3,1.7c0.2,0.9,0.3,1.6,0.4,2.1
					c0.2,0.7,0.4,1,0.6,1h1.4V26.5z M78.5,15.7l-0.7,1.4l-1.6-0.8l0.7-1.4L78.5,15.7z M79.9,22.2l-0.2-1.1c-0.6,0.2-1,0.4-1.3,0.6
					s-0.6,0.5-0.8,0.9c0.1,0.1,0.3,0.1,0.5,0.1s0.4,0,0.8,0C79.1,22.8,79.5,22.6,79.9,22.2z M80.8,14.9L80,16.3l-1.6-0.8l0.7-1.4
					L80.8,14.9z"/>
				<path d="M88.3,15.1c0,0.5-0.1,0.9-0.3,1.2c-0.2,0.4-0.4,0.5-0.8,0.5c-0.1,0-0.2,0-0.3-0.1s-0.2-0.1-0.3-0.2
					c-0.1,0.2-0.3,0.4-0.4,0.5c-0.2,0.2-0.4,0.3-0.7,0.3c-0.3,0-0.5-0.1-0.6-0.3s-0.2-0.4-0.2-0.8c0-0.2,0-0.3,0.1-0.5
					c0-0.1,0.1-0.3,0.2-0.5l0.2-0.1c0,0.1,0,0.1,0,0.3s0,0.2,0,0.3c0,0.1,0,0.3,0.1,0.4s0.1,0.2,0.3,0.2c0.3,0,0.5-0.2,0.7-0.5
					c0.1-0.2,0.2-0.5,0.3-1l0.2-0.1c0.1,0.3,0.1,0.5,0.1,0.6c0.1,0.2,0.2,0.3,0.4,0.3c0.2,0,0.4-0.2,0.6-0.5
					c0.1-0.3,0.2-0.5,0.2-0.8l0.2-0.1c0,0.1,0.1,0.3,0.1,0.4S88.3,15,88.3,15.1z M88.2,12.7c0,0.3-0.2,0.6-0.5,0.9
					c-0.6,0.2-1.5,0.6-2.8,1.1c0-0.3,0.1-0.5,0.4-0.8C85.8,13.7,86.8,13.3,88.2,12.7z"/>
				<path d="M88.1,26.5h-5.6v-1.7h4.9c0-0.8-0.1-1.4-0.3-1.8c-0.1-0.3-0.4-0.7-0.9-1.2l0.8-1.6c0.5,0.6,0.8,1.1,0.9,1.4
					c0.2,0.5,0.3,1.3,0.3,2.5V26.5z M85.8,29.4l-0.7,1.4L83.5,30l0.7-1.4L85.8,29.4z M88.1,28.5l-0.8,1.4l-1.6-0.8l0.7-1.4
					L88.1,28.5z"/>
				<path d="M92.8,28.3c0,0.3-0.2,0.6-0.5,0.9c-0.6,0.2-1.5,0.6-2.8,1.1c0-0.3,0.1-0.5,0.4-0.8C90.4,29.3,91.4,28.9,92.8,28.3z"/>
				<path d="M98.7,26.5H87.5v-1.7h8c-0.7-0.5-1.2-0.9-1.7-1.2c-0.6-0.4-1.1-0.6-1.6-0.8c-0.5-0.2-1.1-0.3-1.6-0.3
					c-0.3,0-0.7,0-1,0.1c0.2-0.5,0.4-0.9,0.7-1.2c0.4-0.4,1-0.6,1.7-0.6c0.7,0,1.4,0.3,2.4,1c0.4,0.3,1.2,0.9,2.2,1.9
					c0.8,0.7,1.3,1.1,1.6,1.2h0.6V26.5z"/>
				<path d="M105.3,15c0,0.3-0.2,0.6-0.5,0.9c-0.6,0.2-1.5,0.6-2.8,1.1c0-0.3,0.1-0.6,0.4-0.8C102.9,15.9,103.9,15.5,105.3,15z"/>
				<path d="M108.5,26.5c0,0.7-0.3,1.5-0.9,2.2c-0.5,0.7-1.2,1.3-2,1.7c-0.8,0.5-1.4,0.7-1.9,0.7c-0.4,0-0.9-0.1-1.5-0.2
					c-0.4-0.1-0.9-0.3-1.4-0.5c-0.5-0.2-0.9-0.4-1.4-0.5l0.2-0.4c0.4,0.1,0.9,0.2,1.3,0.3s0.9,0.1,1.3,0.1c0.8,0,1.7-0.3,2.6-0.8
					c0.8-0.5,1.5-1.1,2.1-1.9s0.9-1.4,0.9-2c0-0.5-0.1-1.1-0.4-1.6c-0.2-0.5-0.6-0.9-1-1.4l0.6-1.5c0.5,0.5,0.9,1,1.2,1.5
					c0.3,0.6,0.4,1.2,0.4,1.9V26.5z"/>
				<path d="M114.3,15.5c0,0.4-0.1,0.8-0.4,1.1s-0.7,0.5-1.1,0.5c-0.4,0-0.6-0.1-0.8-0.3s-0.3-0.5-0.3-0.8c0-0.5,0.1-0.9,0.4-1.3
					s0.6-0.6,1-0.6c0.4,0,0.6,0.1,0.9,0.4S114.3,15.1,114.3,15.5z M113.7,15.8c0-0.2-0.1-0.4-0.4-0.6s-0.5-0.3-0.6-0.3
					c-0.2,0-0.3,0.1-0.4,0.2s-0.2,0.3-0.2,0.5c0,0.2,0.1,0.4,0.3,0.5c0.2,0.1,0.4,0.1,0.7,0.1c0.2,0,0.3,0,0.4-0.1
					S113.7,15.9,113.7,15.8z"/>
				<path d="M119.1,26.5h-0.8c-0.4,0-0.8-0.1-1.1-0.2s-0.6-0.3-0.8-0.5c-0.3,0.2-0.6,0.4-0.8,0.5c-0.3,0.1-0.8,0.2-1.4,0.2h-0.6
					c-0.3,0-0.7-0.1-1-0.2c-0.2-0.1-0.5-0.2-0.8-0.4c-0.3,0.2-0.6,0.4-0.9,0.5s-0.7,0.1-1.3,0.1h-1.9v-1.7h1.9c0.5,0,0.9,0,1.1-0.1
					c0.4-0.1,0.6-0.4,0.6-0.9c0-0.2,0-0.4,0-0.6s-0.1-0.4-0.1-0.6l0.4-0.6c0.2,0.6,0.3,1,0.4,1.3c0.2,0.5,0.4,0.8,0.7,1.1
					c0.3,0.3,0.7,0.4,1.1,0.4h0.7c0.5,0,0.8-0.1,1.1-0.2c0.3-0.2,0.4-0.4,0.4-0.8c0-0.2,0-0.4,0-0.6s-0.1-0.4-0.1-0.6l0.4-0.6
					l0.2,0.9c0.2,0.7,0.4,1.2,0.6,1.5c0.2,0.2,0.5,0.4,0.9,0.4c0.2,0,0.3-0.1,0.4-0.2s0.2-0.2,0.2-0.4c0-0.4-0.1-0.7-0.4-1.2
					c0-0.1-0.2-0.3-0.5-0.6l0.6-1.1c0.3,0.4,0.4,0.8,0.5,1c0.1,0.4,0.2,1,0.2,1.8V26.5z"/>
				<path d="M124.7,15c0,0.3-0.2,0.6-0.5,0.9c-0.6,0.2-1.5,0.6-2.8,1.1c0-0.3,0.1-0.6,0.4-0.8C122.3,15.9,123.3,15.5,124.7,15z"/>
				<path d="M127,26.5h-1c-0.4,0-0.9-0.1-1.5-0.3c-0.6-0.2-1.2-0.5-1.7-0.9c-0.4,0.5-0.8,0.8-1.2,1s-1,0.3-1.7,0.3h-1.5v-1.7h1.5
					c0.6,0,1.1-0.1,1.6-0.4c0.4-0.2,0.7-0.6,1-1c0.4-0.6,0.9-1.1,1.5-1.5c0.5-0.4,1-0.6,1.4-0.7c0.4,0.7,0.8,1.3,1.1,1.8
					c0.4,0.7,0.5,1.3,0.5,1.8V26.5z M125.9,24.6c-0.1-0.4-0.2-0.7-0.4-1.1c-0.1-0.3-0.3-0.6-0.6-0.9c-0.3,0.1-0.6,0.2-0.8,0.4
					c-0.1,0.1-0.3,0.4-0.5,0.7c0.2,0.3,0.6,0.5,1,0.7s0.8,0.3,1.2,0.4L125.9,24.6z"/>
				<path d="M131.2,26.5h-4.8v-1.7h3.8l-1.2-8.3l-0.5-0.2c0-0.4,0-0.9,0.1-1.3s0.2-0.8,0.4-1.1l0.1,0.1c0,0.4,0.2,0.7,0.6,0.8
					c0.3,0.1,0.7,0.3,1,0.4c0,0.3,0,0.7-0.1,1s-0.1,0.6-0.2,0.8L130,17l1.2,7.7V26.5z"/>
				<path d="M134.5,24c0,0.5-0.1,1-0.3,1.5c-0.1,0.3-0.3,0.7-0.6,1.2l-0.2-0.1c0-0.2,0-0.4,0.1-0.7s0-0.4,0-0.5
					c0-0.7-0.1-1.6-0.2-2.8s-0.2-2.5-0.4-3.8c-0.1-0.8-0.2-1.6-0.3-2.5c0.1-0.3,0.3-0.6,0.4-0.9s0.3-0.6,0.5-0.9
					c0.1,0.7,0.2,1.8,0.4,3s0.3,2.5,0.4,3.5C134.4,22.4,134.5,23.4,134.5,24z"/>
				<path d="M147.4,13.7c0,0.1,0,0.2,0,0.3s0,0.2-0.1,0.4l-0.8-0.5c-0.3,0.4-0.5,0.6-0.7,0.7c-0.5,0.5-0.9,0.7-1.2,0.7h-0.7
					c0.3-0.2,0.7-0.4,1.2-0.8c0.4-0.3,0.7-0.6,0.9-0.9c-0.2-0.1-0.4-0.3-0.5-0.4c-0.1-0.2-0.2-0.4-0.2-0.6c0-0.4,0.1-0.8,0.4-1.1
					s0.5-0.5,0.8-0.5c0.2,0,0.3,0.1,0.5,0.3s0.2,0.4,0.2,0.7c0,0.1,0,0.3-0.1,0.4s-0.1,0.4-0.2,0.7c0.1,0.1,0.2,0.2,0.3,0.3
					C147.4,13.5,147.4,13.6,147.4,13.7z M146.7,12.6c0-0.2-0.1-0.3-0.2-0.5s-0.2-0.2-0.4-0.2c-0.1,0-0.1,0-0.2,0.1s-0.1,0.1-0.1,0.1
					c0,0.1,0.1,0.3,0.2,0.4l0.4,0.3C146.7,12.7,146.7,12.7,146.7,12.6z"/>
				<path d="M155.1,26.5h-9.3c-1.3,0-2.2-0.2-3-0.7c-0.9-0.5-1.4-1.4-1.4-2.6c0-0.6,0.1-1.2,0.4-1.9c0.1-0.2,0.3-0.7,0.7-1.3
					l0.3,0.2c-0.1,0.3-0.3,0.6-0.4,0.9c-0.2,0.5-0.3,0.9-0.3,1.2c0,0.8,0.4,1.4,1.2,1.8c0.7,0.4,1.6,0.6,2.7,0.6h8.3v-0.3
					c0-0.7-0.1-1.3-0.3-1.8s-0.5-0.9-0.9-1.2l0.8-1.6c0.3,0.4,0.5,0.6,0.5,0.7c0.4,0.7,0.7,1.8,0.7,3.2V26.5z M148.3,18.5l-0.7,1.4
					l-1.6-0.8l0.7-1.4L148.3,18.5z M150.5,17.7l-0.8,1.4l-1.6-0.8l0.7-1.4L150.5,17.7z"/>
				<path d="M160.4,15.5c0,0.4-0.1,0.8-0.4,1.1s-0.7,0.5-1.1,0.5c-0.4,0-0.6-0.1-0.8-0.3s-0.3-0.5-0.3-0.8c0-0.5,0.1-0.9,0.4-1.3
					s0.6-0.6,1-0.6c0.4,0,0.6,0.1,0.9,0.4S160.4,15.1,160.4,15.5z M159.8,15.8c0-0.2-0.1-0.4-0.4-0.6s-0.5-0.3-0.6-0.3
					c-0.2,0-0.3,0.1-0.4,0.2s-0.2,0.3-0.2,0.5c0,0.2,0.1,0.4,0.3,0.5c0.2,0.1,0.4,0.1,0.7,0.1c0.2,0,0.3,0,0.4-0.1
					S159.8,15.9,159.8,15.8z"/>
				<path d="M163,26.5h-1c-0.4,0-0.9-0.1-1.5-0.3c-0.6-0.2-1.2-0.5-1.7-0.9c-0.4,0.5-0.8,0.8-1.2,1s-1,0.3-1.7,0.3h-1.5v-1.7h1.5
					c0.6,0,1.1-0.1,1.6-0.4c0.4-0.2,0.7-0.6,1-1c0.4-0.6,0.9-1.1,1.5-1.5c0.5-0.4,1-0.6,1.4-0.7c0.4,0.7,0.8,1.3,1.1,1.8
					c0.4,0.7,0.5,1.3,0.5,1.8V26.5z M161.9,24.6c-0.1-0.4-0.2-0.7-0.4-1.1c-0.1-0.3-0.3-0.6-0.6-0.9c-0.3,0.1-0.6,0.2-0.8,0.4
					c-0.1,0.1-0.3,0.4-0.5,0.7c0.2,0.3,0.6,0.5,1,0.7s0.8,0.3,1.2,0.4L161.9,24.6z"/>
				<path d="M169.5,15c0,0.3-0.2,0.6-0.5,0.9c-0.6,0.2-1.5,0.6-2.8,1.1c0-0.3,0.1-0.6,0.4-0.8C167.2,15.9,168.1,15.5,169.5,15z"/>
				<path d="M173.6,26.5h-11.3v-1.7h8c-0.7-0.5-1.2-0.9-1.7-1.2c-0.6-0.4-1.1-0.6-1.6-0.8c-0.5-0.2-1.1-0.3-1.6-0.3
					c-0.3,0-0.7,0-1,0.1c0.2-0.5,0.4-0.9,0.7-1.2c0.4-0.4,1-0.6,1.7-0.6c0.7,0,1.4,0.3,2.4,1c0.4,0.3,1.2,0.9,2.2,1.9
					c0.8,0.7,1.3,1.1,1.6,1.2h0.6V26.5z M168.6,28.7l-0.7,1.4l-1.6-0.8l0.8-1.4L168.6,28.7z"/>
				<path d="M178.2,26.5h-1.4c-0.4,0-0.8-0.2-1.1-0.5c-0.2-0.3-0.4-0.8-0.5-1.4s-0.2-1.4-0.3-2.3c0-0.7-0.1-1.5-0.1-2.3
					s-0.1-1.4-0.2-1.8s-0.2-0.7-0.3-1c-0.1-0.3-0.3-0.6-0.6-0.8l1.2-1.9c0.3,0.8,0.4,1.7,0.5,2.8c0.1,0.7,0.1,2.3,0.2,4.8
					c0.1,1.2,0.3,1.9,0.5,2.2c0.2,0.3,0.4,0.4,0.6,0.4h1.4V26.5z"/>
				<path d="M185.9,24.9c0,0.4-0.1,0.8-0.4,1.3c-0.3,0.5-0.5,0.8-0.8,0.8c-0.3,0-0.8-0.2-1.5-0.5c-0.7-0.3-1.2-0.6-1.7-0.9
					c-0.8,0.4-1.3,0.7-1.7,0.8c-0.4,0.2-1,0.2-1.5,0.2h-0.9v-1.7h0.9c0.3,0,0.5,0,0.8-0.1s0.6-0.1,1-0.2c-0.2-0.1-0.3-0.3-0.5-0.4
					c-0.2-0.2-0.3-0.3-0.3-0.5c0-0.1,0-0.2,0-0.2s0.1-0.1,0.1-0.3l1-1.7c0.1-0.2,0.2-0.4,0.4-0.5s0.3-0.2,0.4-0.2
					c-0.4-0.3-0.7-0.5-0.7-0.7s0.1-0.5,0.4-1c0.1-0.2,0.2-0.5,0.4-0.8c0.4,0.4,0.9,1,1.6,1.7c0.8,1,1.4,1.8,1.9,2.5
					C185.6,23.6,185.9,24.3,185.9,24.9z M182.4,22.8c0-0.3-0.1-0.5-0.2-0.7c-0.1-0.2-0.4-0.3-0.7-0.3s-0.6,0.1-0.8,0.3
					s-0.4,0.4-0.4,0.7c0,0.3,0.4,0.6,1.2,1.1c0.3-0.2,0.5-0.4,0.6-0.5C182.4,23.2,182.4,23,182.4,22.8z M184.8,25
					c0-0.2-0.2-0.6-0.5-1.1c-0.2-0.3-0.5-0.6-0.8-1c0,0.3-0.1,0.6-0.2,0.9s-0.3,0.5-0.6,0.6c0.4,0.2,0.8,0.4,1.2,0.6
					c0.3,0.1,0.6,0.2,0.7,0.2c0.1,0,0.1,0,0.2-0.1S184.8,25.1,184.8,25z"/>
			</g>
		</g>
	</g>
</g>
</svg>
