<?xml version="1.0" encoding="utf-8"?>
<!-- Generator: Adobe Illustrator 22.0.1, SVG Export Plug-In . SVG Version: 6.00 Build 0)  -->
<svg version="1.1" id="Layer_1" xmlns="http://www.w3.org/2000/svg" xmlns:xlink="http://www.w3.org/1999/xlink" x="0px" y="0px"
	 viewBox="0 0 234.5 46.1" style="enable-background:new 0 0 234.5 46.1;" xml:space="preserve">
<style type="text/css">
	.st0{fill:#BA0017;}
</style>
<g>
	<g>
		<g>
			<g>
				<g>
					<path class="st0" d="M59.7,13.4c0,0.3-0.2,0.6-0.5,0.9c-0.6,0.2-1.5,0.6-2.8,1.1c0-0.3,0.1-0.5,0.4-0.8
						C57.4,14.4,58.3,14,59.7,13.4z M59.7,14.9c0,0.3,0,0.5-0.1,0.6s-0.2,0.2-0.4,0.3c-0.6,0.2-1.5,0.6-2.9,1.1
						c0-0.3,0.1-0.5,0.4-0.8C57.4,15.9,58.3,15.5,59.7,14.9z"/>
					<path class="st0" d="M61.2,29.3h-1.4c-0.4,0-0.8-0.2-1.1-0.5c-0.2-0.3-0.4-0.8-0.5-1.4S58,26,57.9,25.1c0-0.7-0.1-1.5-0.1-2.3
						s-0.1-1.4-0.2-1.8s-0.2-0.7-0.3-1c-0.1-0.3-0.3-0.6-0.6-0.8l1.2-1.9c0.3,0.8,0.4,1.7,0.5,2.8c0.1,0.7,0.1,2.3,0.2,4.8
						c0.1,1.2,0.3,1.9,0.5,2.2c0.2,0.3,0.4,0.4,0.6,0.4h1.4V29.3z"/>
					<path class="st0" d="M66.4,29.3h-5.9v-1.7h3.3c0.4,0,0.7,0,1,0s0.6-0.1,0.9-0.2c-1.1-0.2-1.8-0.3-2.2-0.5
						c-0.7-0.3-1.1-0.9-1.1-1.7c0-0.7,0.2-1.3,0.5-1.9c0.4-0.7,0.9-1,1.5-1c0.7,0,1.2,0.4,1.5,1.3c0.3,0.7,0.4,1.5,0.4,2.4V29.3z
						 M65.6,19l-0.9,1.4l-1.4-0.9l0.8-1.4L65.6,19z M65.6,25.9c-0.1-0.5-0.3-0.9-0.4-1.2c-0.3-0.5-0.6-0.7-1-0.7
						c-0.2,0-0.3,0.1-0.5,0.2s-0.2,0.3-0.2,0.5c0,0.5,0.3,0.8,0.8,1C64.5,25.8,64.9,25.9,65.6,25.9z"/>
					<path class="st0" d="M71.3,29.3h-5.6v-1.7h4.9c0-0.8-0.1-1.4-0.3-1.8c-0.1-0.3-0.4-0.7-0.9-1.2l0.8-1.6
						c0.5,0.6,0.8,1.1,0.9,1.4c0.2,0.5,0.3,1.3,0.3,2.5V29.3z M69,32.2l-0.7,1.4l-1.6-0.8l0.7-1.4L69,32.2z M71.3,31.3l-0.8,1.4
						l-1.6-0.8l0.7-1.4L71.3,31.3z"/>
					<path class="st0" d="M79.2,29.3h-1.4c-0.4,0-0.9-0.1-1.3-0.3c-0.5-0.2-0.9-0.6-1.1-1c-0.4,0.4-0.9,0.7-1.5,0.9
						c-0.7,0.3-1.5,0.4-2.3,0.4h-0.9v-1.7h0.9c0.5,0,1.1-0.1,1.5-0.2c0.5-0.1,1.1-0.4,1.6-0.7l-0.4-0.5c-0.2-0.2-0.4-0.4-0.7-0.4
						c-0.1,0-0.2,0-0.3,0.1s-0.2,0.1-0.3,0.3h-0.2v-0.6c0-0.7,0.2-1.2,0.6-1.5c0.3-0.2,0.9-0.4,1.8-0.4c0.7,0,1.3,0.1,1.8,0.3
						c0.6,0.3,0.9,0.6,0.9,1.2c0,0.3-0.1,0.6-0.4,0.9c-0.2,0.2-0.5,0.5-1,0.9c0.1,0.2,0.3,0.3,0.6,0.4s0.5,0.2,0.7,0.2h1.4V29.3z"/>
					<path class="st0" d="M85.3,17.7c0,0.3-0.2,0.6-0.5,0.9c-0.6,0.2-1.5,0.6-2.8,1.1c0-0.3,0.1-0.6,0.4-0.8
						C82.9,18.7,83.9,18.3,85.3,17.7z"/>
					<path class="st0" d="M96.1,29.3H84.4c-0.4,0-0.7-0.1-1-0.2c-0.2-0.1-0.5-0.2-0.8-0.4c-0.3,0.2-0.5,0.4-0.8,0.5
						s-0.7,0.1-1.3,0.1h-1.9v-1.7h1.9c0.5,0,0.9,0,1.1-0.1c0.4-0.1,0.6-0.4,0.6-0.9c0-0.2,0-0.4,0-0.6S82,25.6,82,25.4l0.4-0.6
						c0.2,0.9,0.5,1.6,0.9,2.1c0.4,0.5,0.9,0.8,1.5,0.8c0.5,0,1.2-0.1,1.9-0.4c0.8-0.3,1.5-0.6,2.1-1c0.9-0.7,1.5-1.1,1.7-1.2
						c0.5-0.3,1-0.6,1.4-0.7c0.5-0.2,1-0.2,1.6-0.2c0.9,0,1.6,0.3,2,0.8c0.4,0.5,0.6,1.1,0.6,2V29.3z M89.9,21.2l-0.7,1.4l-1.6-0.8
						l0.7-1.4L89.9,21.2z M94.5,26.9c0-0.3-0.2-0.6-0.6-0.7s-0.9-0.3-1.4-0.3c-0.7,0-1.4,0.2-2.4,0.7c-0.7,0.4-1.5,0.7-2.2,1.1h4.5
						c0.7,0,1.2-0.1,1.6-0.2S94.5,27.1,94.5,26.9z"/>
					<path d="M108.5,18.4c0,0.1,0,0.2,0,0.3s0,0.2-0.1,0.4l-0.8-0.5c-0.3,0.4-0.5,0.6-0.7,0.7c-0.5,0.5-0.9,0.7-1.2,0.7H105
						c0.3-0.2,0.7-0.4,1.2-0.8c0.4-0.3,0.7-0.6,0.9-0.9c-0.2-0.1-0.4-0.3-0.5-0.4c-0.1-0.2-0.2-0.4-0.2-0.6c0-0.4,0.1-0.8,0.4-1.1
						s0.5-0.5,0.8-0.5c0.2,0,0.3,0.1,0.5,0.3s0.2,0.4,0.2,0.7c0,0.1,0,0.3-0.1,0.4s-0.1,0.4-0.2,0.7c0.1,0.1,0.2,0.2,0.3,0.3
						C108.5,18.2,108.5,18.3,108.5,18.4z M107.8,17.3c0-0.2-0.1-0.3-0.2-0.5s-0.2-0.2-0.4-0.2c-0.1,0-0.1,0-0.2,0.1
						s-0.1,0.1-0.1,0.1c0,0.1,0.1,0.3,0.2,0.4l0.4,0.3C107.7,17.5,107.8,17.4,107.8,17.3z"/>
					<path d="M112.2,29.3c0,1.5-0.4,2.5-1.3,3.2c-0.9,0.7-2.4,1.1-4.4,1.1c-1.3,0-2.3-0.2-3-0.7c-0.8-0.5-1.1-1.3-1.1-2.3
						c0-0.6,0.1-1.1,0.2-1.7s0.3-1.1,0.6-1.7c0.1-0.4,0.4-0.9,0.7-1.6l0.4,0.2c-0.5,0.9-0.8,1.7-0.9,2.2s-0.2,1-0.2,1.5
						c0,0.8,0.3,1.4,0.9,1.8s1.4,0.6,2.5,0.6c1.2,0,2.3-0.2,3.3-0.7c1.2-0.5,1.8-1.3,1.8-2.3c0-0.7-0.1-1.3-0.3-1.9
						c-0.2-0.5-0.4-1-0.7-1.3l0.8-2c0.3,0.5,0.6,1.1,0.7,1.6s0.2,1.3,0.2,2.2V29.3z M108.6,21.8l-0.7,1.4l-1.5-0.8L107,21
						L108.6,21.8z"/>
					<path d="M116.8,29.3h-1.4c-0.4,0-0.8-0.2-1.1-0.5c-0.2-0.3-0.4-0.8-0.5-1.4s-0.2-1.4-0.3-2.3c0-0.7-0.1-1.5-0.1-2.3
						s-0.1-1.4-0.2-1.8s-0.2-0.7-0.3-1c-0.1-0.3-0.3-0.6-0.6-0.8l1.2-1.9c0.3,0.8,0.4,1.7,0.5,2.8c0.1,0.7,0.1,2.3,0.2,4.8
						c0.1,1.2,0.3,1.9,0.5,2.2c0.2,0.3,0.4,0.4,0.6,0.4h1.4V29.3z"/>
					<path d="M127.4,29.3h-0.8c-0.4,0-0.8-0.1-1.1-0.2s-0.6-0.3-0.8-0.5c-0.3,0.2-0.6,0.4-0.8,0.5c-0.3,0.1-0.8,0.2-1.4,0.2H122
						c-0.3,0-0.7-0.1-1-0.2c-0.2-0.1-0.5-0.2-0.8-0.4c-0.3,0.2-0.6,0.4-0.9,0.5s-0.7,0.1-1.3,0.1h-1.9v-1.7h1.9c0.5,0,0.9,0,1.1-0.1
						c0.4-0.1,0.6-0.4,0.6-0.9c0-0.2,0-0.4,0-0.6s-0.1-0.4-0.1-0.6l0.4-0.6c0.2,0.6,0.3,1,0.4,1.3c0.2,0.5,0.4,0.8,0.7,1.1
						c0.3,0.3,0.7,0.4,1.1,0.4h0.7c0.5,0,0.8-0.1,1.1-0.2c0.3-0.2,0.4-0.4,0.4-0.8c0-0.2,0-0.4,0-0.6s-0.1-0.4-0.1-0.6l0.4-0.6
						l0.2,0.9c0.2,0.7,0.4,1.2,0.6,1.5c0.2,0.2,0.5,0.4,0.9,0.4c0.2,0,0.3-0.1,0.4-0.2s0.2-0.2,0.2-0.4c0-0.4-0.1-0.7-0.4-1.2
						c0-0.1-0.2-0.3-0.5-0.6l0.6-1.1c0.3,0.4,0.4,0.8,0.5,1c0.1,0.4,0.2,1,0.2,1.8V29.3z"/>
					<path d="M132.3,29.3h-5.6v-1.7h4.9c0-0.8-0.1-1.4-0.3-1.8c-0.1-0.3-0.4-0.7-0.9-1.2l0.8-1.6c0.5,0.6,0.8,1.1,0.9,1.4
						c0.2,0.5,0.3,1.3,0.3,2.5V29.3z M131.5,20.3l-0.7,1.4l-1.6-0.8l0.7-1.4L131.5,20.3z"/>
					<path d="M142.4,19l-0.5,1.8l-0.6-0.3l0,0.9c0,0.9-0.1,1.7-0.3,2.5c-0.2,0.9-0.6,1.8-1.1,2.7c0.2,0.5,0.4,0.8,0.5,1.1
						c0.1,0.4,0.2,0.8,0.2,1.3c0,0.2,0,0.4,0,0.6s0,0.4-0.1,0.6c-0.7,0.2-1.4,0.3-2.2,0.4s-1.5,0.1-2.3,0.1c0-0.1,0-0.2,0-0.3
						c0-0.5,0.1-1,0.2-1.4c1.1-0.6,2-1.4,2.8-2.3c-0.5-0.9-0.8-1.5-1-1.8c-0.2-0.4-0.6-1-1.2-1.8c-0.2-0.3-0.4-0.5-0.5-0.7
						c-0.2-0.2-0.4-0.3-0.5-0.3c-0.1,0-0.2,0-0.4,0.1c-0.1,0.1-0.2,0.1-0.3,0.1c-0.1,0-0.4-0.1-0.7-0.4c-0.3-0.3-0.5-0.6-0.8-0.9
						c-0.2-0.3-0.4-0.5-0.5-0.7s-0.1-0.4-0.1-0.7c0-0.4,0-0.7,0.1-0.9c0.1-0.3,0.2-0.5,0.4-0.5c0.3,0,0.7,0.3,1.2,0.8
						c0.4,0.5,1,1.1,1.5,1.8c0.5,0.7,1,1.4,1.4,2.1l1,1.6c0.3,0.5,0.6,1,0.9,1.6c0.4-0.9,0.7-1.8,0.9-2.7c0.1-0.8,0.2-1.8,0.2-3
						l-0.6-0.3c0-0.4,0-0.8,0.1-1.2s0.2-0.7,0.3-1l0.2,0.1c0,0.3,0.2,0.5,0.5,0.7c0.2,0.1,0.4,0.2,0.6,0.3S142.3,19,142.4,19z
						 M138.4,33.1c0,0.2-0.1,0.3-0.3,0.4c-0.1,0.1-0.3,0.2-0.6,0.3l-1.8,0.6c0-0.3,0.3-0.6,1-0.8c-0.2-0.1-0.4-0.2-0.5-0.3
						c-0.1-0.1-0.2-0.3-0.2-0.4c0-0.2,0.2-0.5,0.5-0.8c0.4-0.4,0.7-0.6,1-0.6c0.1,0,0.2,0,0.3,0.1s0.1,0.2,0.1,0.3
						c0,0.1,0,0.2-0.1,0.3s-0.1,0.2-0.2,0.3c-0.2-0.2-0.4-0.3-0.7-0.3c-0.1,0-0.3,0-0.4,0.1s-0.2,0.1-0.2,0.2c0,0.1,0.2,0.2,0.5,0.4
						s0.6,0.3,0.8,0.3c0.1,0,0.2,0,0.3,0S138.2,33.1,138.4,33.1z M139.9,28.5c0-0.1,0-0.3-0.1-0.4s-0.2-0.4-0.4-0.8
						c-0.2,0.3-0.5,0.5-0.9,0.9s-0.8,0.6-1.1,0.8c0.8,0,1.3,0,1.6-0.1C139.6,28.9,139.9,28.7,139.9,28.5z"/>
					<path d="M146.5,26.8c0,0.5-0.1,1-0.3,1.5c-0.1,0.3-0.3,0.7-0.6,1.2l-0.2-0.1c0-0.2,0-0.4,0.1-0.7s0-0.4,0-0.5
						c0-0.7-0.1-1.6-0.2-2.8s-0.2-2.5-0.4-3.8c-0.1-0.8-0.2-1.6-0.3-2.5c0.1-0.3,0.3-0.6,0.4-0.9s0.3-0.6,0.5-0.9
						c0.1,0.7,0.2,1.8,0.4,3s0.3,2.5,0.4,3.5C146.4,25.2,146.5,26.2,146.5,26.8z"/>
					<path d="M160.4,15.8c0,0.3-0.2,0.6-0.5,0.9c-0.6,0.2-1.5,0.6-2.8,1.1c0-0.3,0.1-0.6,0.4-0.8C158,16.8,159,16.4,160.4,15.8z"/>
					<path d="M164.5,29.8c0,1.3-0.6,2.3-1.9,2.9c-1.1,0.6-2.6,0.9-4.4,0.9c-1.5,0-2.6-0.3-3.4-0.8c-0.9-0.6-1.3-1.4-1.3-2.5
						c0-0.8,0.1-1.6,0.4-2.4c0.2-0.8,0.6-1.6,1-2.3l0.4,0.2c-0.2,0.5-0.3,0.9-0.5,1.2c-0.2,0.5-0.3,0.9-0.4,1.2
						c-0.1,0.4-0.1,0.9-0.1,1.3c0,0.8,0.4,1.5,1.1,1.9c0.7,0.4,1.6,0.6,2.9,0.6c1.4,0,2.6-0.2,3.6-0.7c1.2-0.5,1.8-1.2,1.8-2.1
						c0-0.3,0-0.6,0-0.7s-0.1-0.3-0.1-0.4c-0.2,0.1-0.5,0.2-0.7,0.3s-0.5,0.1-0.8,0.1c-0.6,0-1-0.1-1.4-0.4
						c-0.4-0.3-0.7-0.8-0.7-1.4c0-0.7,0.2-1.4,0.6-2.1c0.4-0.8,0.9-1.1,1.5-1.1c0.8,0,1.4,0.5,1.8,1.6c0.4,0.9,0.6,1.9,0.6,3.1V29.8
						z M161.1,20.2l-0.7,1.4l-1.6-0.8l0.7-1.4L161.1,20.2z M162.9,26.2c-0.2-0.4-0.3-0.7-0.4-0.8c-0.2-0.3-0.4-0.4-0.7-0.4
						c-0.3,0-0.5,0.1-0.7,0.2s-0.2,0.3-0.2,0.6c0,0.2,0.1,0.4,0.3,0.5s0.4,0.2,0.6,0.2c0.2,0,0.3,0,0.5-0.1S162.7,26.3,162.9,26.2z
						 M163.4,19.4l-0.8,1.4l-1.6-0.8l0.7-1.4L163.4,19.4z"/>
					<path d="M168.4,31.1c0,0.3-0.2,0.6-0.5,0.9c-0.6,0.2-1.5,0.6-2.8,1.1c0-0.3,0.1-0.5,0.4-0.8C166.1,32.1,167,31.7,168.4,31.1z"
						/>
					<path d="M168.6,29.3h-4.8v-1.7h3.8l-1.2-8.3l-0.5-0.2c0-0.4,0-0.9,0.1-1.3s0.2-0.8,0.4-1.1l0.1,0.1c0,0.4,0.2,0.7,0.6,0.8
						c0.3,0.1,0.7,0.3,1,0.4c0,0.3,0,0.7-0.1,1s-0.1,0.6-0.2,0.8l-0.5-0.2l1.2,7.7V29.3z"/>
					<path d="M174.7,15.5c0,0.1,0,0.2,0,0.3s0,0.2-0.1,0.4l-0.8-0.5c-0.3,0.4-0.5,0.6-0.7,0.7c-0.5,0.5-0.9,0.7-1.2,0.7h-0.7
						c0.3-0.2,0.7-0.4,1.2-0.8c0.4-0.3,0.7-0.6,0.9-0.9c-0.2-0.1-0.4-0.3-0.5-0.4c-0.1-0.2-0.2-0.4-0.2-0.6c0-0.4,0.1-0.8,0.4-1.1
						s0.5-0.5,0.8-0.5c0.2,0,0.3,0.1,0.5,0.3s0.2,0.4,0.2,0.7c0,0.1,0,0.3-0.1,0.4s-0.1,0.4-0.2,0.7c0.1,0.1,0.2,0.2,0.3,0.3
						C174.7,15.3,174.7,15.4,174.7,15.5z M174,14.4c0-0.2-0.1-0.3-0.2-0.5s-0.2-0.2-0.4-0.2c-0.1,0-0.1,0-0.2,0.1s-0.1,0.1-0.1,0.1
						c0,0.1,0.1,0.3,0.2,0.4l0.4,0.3C174,14.6,174,14.5,174,14.4z"/>
					<path d="M179.2,29.3H168v-1.7h8c-0.7-0.5-1.2-0.9-1.7-1.2c-0.6-0.4-1.1-0.6-1.6-0.8c-0.5-0.2-1.1-0.3-1.6-0.3
						c-0.3,0-0.7,0-1,0.1c0.2-0.5,0.4-0.9,0.7-1.2c0.4-0.4,1-0.6,1.7-0.6c0.7,0,1.4,0.3,2.4,1c0.4,0.3,1.2,0.9,2.2,1.9
						c0.8,0.7,1.3,1.1,1.6,1.2h0.6V29.3z M174.6,20.2l-0.7,1.4l-1.6-0.8l0.7-1.4L174.6,20.2z"/>
				</g>
			</g>
		</g>
	</g>
</g>
</svg>
