<?xml version="1.0" encoding="utf-8"?>
<!-- Generator: Adobe Illustrator 22.0.1, SVG Export Plug-In . SVG Version: 6.00 Build 0)  -->
<svg version="1.1" id="Layer_1" xmlns="http://www.w3.org/2000/svg" xmlns:xlink="http://www.w3.org/1999/xlink" x="0px" y="0px"
	 viewBox="0 0 195.8 46.1" style="enable-background:new 0 0 195.8 46.1;" xml:space="preserve">
<style type="text/css">
	.st0{fill:#542C0B;}
</style>
<g>
	<path class="st0" d="M29.5,18.4h-1.8c-0.8,1.2-1.5,2.4-2,3.8c-0.6,1.6-0.9,3.3-0.9,5.1c0,1.4,0.2,2.9,0.7,4.5
		c0.5,1.5,1.2,3,2.2,4.5h1.8c-0.5-1.2-0.9-2.1-1.1-2.7c-0.3-1-0.6-2-0.8-3c-0.2-1.1-0.3-2.1-0.3-3.1c0-1.5,0.2-2.9,0.5-4.2
		S28.6,20.2,29.5,18.4z"/>
	<polygon class="st0" points="45.8,31.7 44.4,31 43.5,32.8 45.2,33.7 45.9,32.2 47.2,33 48.3,31.1 46.6,30.2 	"/>
	<path class="st0" d="M51.5,20.1c-0.5,0-1,0.6-1.5,1.7c-0.4,1-0.7,1.9-0.7,2.6c0,0.5,0.2,0.9,0.5,1.2s0.8,0.5,1.3,0.5
		c0.4,0,0.7-0.1,1.1-0.3s0.6-0.5,0.8-0.9c0.2,0.3,0.3,0.6,0.3,0.9c0,0.2,0,0.6,0,1.2h-4.9c0-1.1-0.1-1.9-0.3-2.5s-0.5-1.1-1-1.7
		L46.5,25c0.3,0.4,0.6,0.7,0.6,0.8c0.2,0.3,0.3,0.6,0.4,1.1h-4.2h-0.6H42c-0.3,0-0.5-0.1-0.6-0.3c-0.2-0.3-0.4-0.9-0.6-1.8L40,19
		c-0.3,0.5-0.5,1-0.6,1.3c-0.1,0.4-0.2,0.7-0.2,0.9c0,0.1,0,0.2,0,0.3c0,0.1,0,0.2,0,0.3L38.8,22c-0.4,0.3-0.8,0.5-1,0.6
		c-0.4,0.3-0.7,0.5-0.8,0.6c-0.2,0.2-0.5,0.8-0.9,1.6c-0.4,0.9-0.6,1.4-0.6,1.6c0,0.1,0.1,0.2,0.2,0.2s0.4,0.1,0.9,0.2l1.1,0.2
		c0.2,0,0.3,0.1,0.4,0.1c0.2,0,0.5-0.2,0.9-0.5c0.2-0.2,0.6-0.6,1-1.1c0.1,1.1,0.3,2,0.6,2.7c0.2,0.5,0.6,0.8,0.9,1
		c0.2,0.1,0.4,0.1,0.6,0.1h0.6h0.6h4.5h0.6h5.8v-4.1c0-1.3-0.3-2.5-0.9-3.6C52.8,20.7,52.1,20.1,51.5,20.1z M51.7,23.7
		c-0.1,0.1-0.3,0.1-0.4,0.1c-0.2,0-0.3,0-0.4-0.1s-0.2-0.2-0.2-0.4c0-0.2,0.1-0.4,0.2-0.6s0.3-0.3,0.5-0.3c0.1,0,0.3,0.1,0.4,0.2
		s0.3,0.3,0.4,0.6C52,23.4,51.8,23.6,51.7,23.7z M39,24.6c-0.1,0.1-0.3,0.1-0.4,0.1c-0.2,0-0.4,0-0.6-0.1c-0.2,0-0.3-0.1-0.3-0.2
		s0.1-0.2,0.2-0.3c0.1-0.1,0.2-0.2,0.4-0.3c0.2-0.2,0.5-0.3,0.8-0.5c0.1-0.1,0.3-0.1,0.5-0.2l0.2,1.1C39.4,24.4,39.2,24.6,39,24.6z"
		/>
	<polygon class="st0" points="52.9,17.2 50.8,16 49.6,18.1 51.7,19.3 	"/>
	<path class="st0" d="M67.3,22.8c-0.2-1-0.3-1.5-0.3-1.6l0.3,0.1c0.2-0.5,0.4-0.8,0.4-1c0.1-0.2,0.1-0.6,0.2-1.1
		c-0.3-0.2-0.7-0.4-1.1-0.6c-0.3-0.2-0.4-0.4-0.4-0.6c0-0.1,0-0.2,0-0.3L66,17.5c-0.6,1.3-0.9,2.2-0.9,2.8l0.5,0.3
		c0.3,1.5,0.5,2.9,0.8,4.4c0.2,0.9,0.3,1.5,0.3,1.8s0.1,0.6,0.1,0.8c0,0,0,0.1,0,0.2s0,0.2,0,0.3c0,0.7-0.3,1.2-1,1.7
		c-0.7,0.4-1.6,0.6-2.7,0.6c-0.8,0-1.3-0.2-1.8-0.5c-0.4-0.3-0.6-0.7-0.6-1.3c0-0.5,0.1-1.1,0.3-1.6s0.5-1.2,1-1.9l-0.6-0.4
		c-0.7,1.1-1.2,2-1.5,2.8c-0.2,0.7-0.3,1.5-0.3,2.3c0,1,0.3,1.7,0.9,2.2c0.6,0.5,1.4,0.8,2.5,0.8c1.3,0,2.4-0.4,3.4-1.1
		c1-0.7,1.5-1.6,1.5-2.5v-2.1c0-0.2-0.1-0.8-0.3-1.8C67.7,24.6,67.5,23.8,67.3,22.8z"/>
	<polygon class="st0" points="88.7,18.5 86.6,17.4 85.4,19.5 87.6,20.6 	"/>
	<path class="st0" d="M101.3,21.3c0.1-0.3,0.3-0.6,0.4-1s0.2-0.8,0.2-1.2c-0.5-0.2-0.9-0.4-1.1-0.6c-0.3-0.2-0.4-0.4-0.4-0.6
		s0-0.3,0-0.3l-0.4-0.2c-0.3,0.6-0.6,1.2-0.7,1.7c-0.1,0.4-0.2,0.7-0.2,1.1l0.6,0.4l1.1,6.3h-3.4c-0.1-0.7-0.3-1.5-0.7-2.3
		c-0.5-1-0.9-1.4-1.2-1.4c-0.3,0-0.8,0.2-1.2,0.7c-0.5,0.5-1,1.2-1.4,1.9c-0.2,0.4-0.5,0.7-0.9,0.9c-0.3,0.1-0.8,0.2-1.3,0.2h-1.2
		v-0.2c0-1.5-0.2-2.8-0.7-3.9s-1-1.6-1.6-1.6s-1,0.4-1.5,1.2C85.3,23.2,85,24,85,25c0,0.6,0.2,1.1,0.6,1.5s1,0.6,1.9,0.8
		c-0.9-0.1-1.6-0.2-2.3-0.3c-0.3,0-0.5,0-0.8,0h-1h-0.6h-0.7c-0.1,0-0.3,0-0.4-0.1s-0.3-0.2-0.4-0.3c0.4-0.5,0.6-0.9,0.7-1.2
		c0.1-0.3,0.2-0.6,0.2-0.9c0-0.6-0.2-1-0.7-1.4c-0.5-0.3-1.2-0.5-2-0.5s-1.4,0.2-1.8,0.7s-0.6,1.3-0.6,2.4l0.4,0.1
		c0.1-0.1,0.1-0.2,0.2-0.3c0.1,0,0.1-0.1,0.2-0.1c0.2,0,0.4,0.1,0.5,0.3c0.1,0.2,0.3,0.4,0.5,0.8c-0.4,0.2-0.6,0.3-0.8,0.4
		S77.5,27,77,27h-0.3v-0.5c0-1-0.2-1.8-0.5-2.4s-0.8-1-1.3-1c-0.6,0-1.1,0.5-1.6,1.4c-0.4,0.9-0.6,1.8-0.6,2.7
		c0,0.7,0.2,1.2,0.5,1.6c0.4,0.4,0.8,0.6,1.5,0.6c0.2,0,0.4,0,0.6-0.1c-0.7,0.9-1.5,1.5-2.2,1.9c-0.6,0.3-1.2,0.5-1.8,0.5
		c-0.4,0-0.8-0.1-1.2-0.2c-0.4-0.1-1-0.4-1.6-0.9l-0.4,0.5c1.3,1,2.2,1.6,2.8,1.9c0.6,0.3,1.2,0.5,1.7,0.5c0.9,0,1.8-0.5,2.7-1.6
		c0.7-0.8,1.1-1.7,1.3-2.5H77c0.5,0,1-0.1,1.4-0.2c0.6-0.2,1.2-0.6,1.6-1c0.2,0.4,0.5,0.8,0.9,1s0.8,0.3,1.3,0.3h0.7h0.6H89h0.6h1.2
		c0.4,0,0.8,0,1-0.1c0.5-0.2,1-0.5,1.3-1.1c0.6,0.3,1.3,0.6,2,0.8c0.6,0.2,1.1,0.3,1.6,0.3v0.1h5.1V27l-1-5.7L101.3,21.3z
		 M75.2,26.9c-0.4,0-0.7-0.1-1-0.2c-0.2-0.1-0.4-0.3-0.4-0.6c0-0.2,0.1-0.3,0.2-0.5s0.3-0.2,0.5-0.2c0.5,0,0.9,0.5,1.1,1.5
		C75.6,26.9,75.2,26.9,75.2,26.9z M86.9,25.1c-0.4-0.3-0.6-0.5-0.6-0.8c0-0.1,0-0.2,0.1-0.3c0.1-0.1,0.2-0.1,0.3-0.1
		c0.3,0,0.5,0.1,0.8,0.4s0.5,0.7,0.7,1.2C87.8,25.5,87.3,25.4,86.9,25.1z M95.6,26.8c-0.1,0-0.3-0.1-0.8-0.3
		c-0.2-0.1-0.4-0.2-0.7-0.3c0.2-0.6,0.4-0.8,0.6-0.8s0.5,0.2,0.8,0.6c0.3,0.3,0.4,0.6,0.4,0.7C95.8,26.7,95.7,26.8,95.6,26.8z"/>
	<path class="st0" d="M104.9,21.5l-0.6-3.3c-0.3,0.7-0.6,1.2-0.8,1.7c-0.2,0.5-0.3,0.8-0.3,1c0,0.1,0,0.4,0.1,0.7
		c0.2,1,0.4,1.8,0.5,2.6c0.1,0.7,0.2,1.4,0.2,2.2s0.1,1.3,0.1,1.7c0,0.5-0.1,1.1-0.2,1.9l0.6,0.2c0.4-0.8,0.6-1.4,0.8-1.8
		c0.1-0.5,0.2-1,0.2-1.5c0-0.6,0-1.3-0.1-2C105.2,23.8,105.1,22.7,104.9,21.5z"/>
	<path class="st0" d="M121.1,23.4c-0.4,0-0.9,0.2-1.3,0.5s-0.9,0.8-1.4,1.5c-0.3,0.4-0.5,0.9-0.7,1.3s-0.3,0.8-0.3,1.1
		c0,0.6,0.1,1,0.4,1.2c0.3,0.3,1,0.4,1.9,0.4c0.1,0,0.3,0,0.6,0s0.5,0.1,0.5,0.1c0,0.1-0.1,0.3-0.4,0.4c0,0-0.4,0.2-1,0.4
		c-0.4,0.2-0.7,0.3-1,0.4c-0.5,0.2-0.9,0.3-1.4,0.4c-0.4,0.1-0.9,0.1-1.4,0.1c-1.3,0-2-0.6-2-1.8c0-0.5,0.1-1,0.3-1.6
		c0.2-0.6,0.6-1.3,1-2.1l-0.4-0.3c-0.8,1.2-1.3,2.2-1.5,2.9c-0.2,0.6-0.3,1.4-0.3,2.3c0,1.7,1,2.6,2.9,2.6c0.7,0,1.4-0.1,2.2-0.4
		s1.6-0.6,2.3-1c0.6-0.3,1-0.9,1.3-1.7c0.2-0.6,0.4-1.3,0.4-1.9c0-0.3-0.1-0.6-0.3-0.7c-0.2-0.1-0.7-0.2-1.3-0.2c-0.1,0-0.2,0-0.3,0
		c-0.1,0-0.2,0-0.3,0c-0.4,0-0.6,0-0.8-0.1c-0.2-0.1-0.4-0.2-0.4-0.3c0-0.3,0.3-0.6,0.9-1s1-0.6,1.4-0.6c0.2,0,0.4,0.1,0.5,0.2
		s0.3,0.4,0.4,0.9c0.2-0.4,0.4-0.7,0.4-0.9s0.1-0.5,0.1-0.8c0-0.5-0.1-0.8-0.3-1.1C121.8,23.6,121.5,23.4,121.1,23.4z"/>
	<path class="st0" d="M128,20.7l-0.7,2.9c0.5,0.3,0.9,0.7,1.2,1.2c0.4,0.5,0.6,1.3,0.7,2.2H126c-0.2,0-0.4,0-0.6-0.1
		s-0.3-0.3-0.3-0.5h-0.4c-0.1,0.3-0.1,0.6-0.1,1c0,0.3,0,0.6,0,0.9c0,0.5,0.1,0.8,0.4,1c0.2,0.2,0.5,0.3,0.9,0.3h4.2v-3
		c0-1.4-0.2-2.6-0.5-3.5C129.3,22.1,128.8,21.3,128,20.7z"/>
	<polygon class="st0" points="139.8,19.4 137.6,18.2 136.5,20.3 138.7,21.4 	"/>
	<path class="st0" d="M151.4,21.3c0.1-0.3,0.3-0.6,0.4-1c0.1-0.4,0.2-0.8,0.2-1.2c-0.5-0.2-0.9-0.4-1.1-0.6
		c-0.3-0.2-0.4-0.4-0.4-0.6s0-0.3,0-0.3l-0.4-0.2c-0.3,0.6-0.6,1.2-0.7,1.7c-0.1,0.4-0.2,0.7-0.2,1.1l0.6,0.4l1.1,6.3h-3.4
		c-0.1-0.7-0.3-1.5-0.7-2.3c-0.5-1-0.9-1.4-1.2-1.4s-0.8,0.2-1.2,0.7c-0.5,0.5-1,1.2-1.4,1.9c-0.2,0.4-0.5,0.7-0.9,0.9
		c-0.3,0.1-0.8,0.2-1.3,0.2h-1.2c0-1.1-0.1-1.9-0.3-2.5s-0.5-1.1-1-1.7l-0.7,2.2c0.3,0.4,0.6,0.7,0.6,0.8c0.2,0.3,0.3,0.6,0.4,1.1
		h-4.2h-0.6h-0.6c-0.3,0-0.5-0.2-0.6-0.6c-0.2-0.5-0.3-1.4-0.3-2.7v-1.8c0-0.9-0.1-1.6-0.3-2.2c-0.1-0.5-0.4-1-0.8-1.5l-1,2.3
		c0.3,0.3,0.5,0.5,0.6,0.7c0.2,0.3,0.3,0.8,0.3,1.4V25c0,1.6,0.2,2.7,0.5,3.3c0.3,0.6,0.8,0.9,1.6,0.9h0.6h0.6h4.5h0.6h1.2
		c0.4,0,0.8,0,1-0.1c0.5-0.2,1-0.5,1.3-1.1c0.6,0.3,1.3,0.6,2,0.8c0.6,0.2,1.1,0.3,1.6,0.3v0.1h5.1v-2.5l-1-5.7L151.4,21.3z
		 M145.7,26.8c-0.1,0-0.3-0.1-0.8-0.3c-0.2-0.1-0.4-0.2-0.7-0.3c0.2-0.6,0.4-0.8,0.6-0.8c0.2,0,0.5,0.2,0.8,0.6
		c0.3,0.3,0.4,0.6,0.4,0.7C145.9,26.7,145.8,26.8,145.7,26.8z"/>
	<path class="st0" d="M155,21.5l-0.6-3.3c-0.3,0.7-0.6,1.2-0.8,1.7s-0.3,0.8-0.3,1c0,0.1,0,0.4,0.1,0.7c0.2,1,0.4,1.8,0.5,2.6
		c0.1,0.7,0.2,1.4,0.2,2.2s0.1,1.3,0.1,1.7c0,0.5-0.1,1.1-0.2,1.9l0.6,0.2c0.4-0.8,0.6-1.4,0.8-1.8c0.1-0.5,0.2-1,0.2-1.5
		c0-0.6,0-1.3-0.1-2C155.3,23.8,155.2,22.7,155,21.5z"/>
	<path class="st0" d="M166,22.6c-0.5-1.5-1.2-2.9-2.2-4.2H162c0.8,1.9,1.4,3.5,1.7,4.8s0.5,2.7,0.5,4.2c0,0.7,0,1.4-0.1,2.1
		s-0.2,1.4-0.4,2.2s-0.4,1.4-0.6,2s-0.6,1.4-1.1,2.5h1.8c1.1-1.6,1.8-3.3,2.3-4.9c0.4-1.5,0.6-2.9,0.6-4.2
		C166.8,25.6,166.6,24.1,166,22.6z"/>
</g>
</svg>
