<?xml version="1.0" encoding="utf-8"?>
<!-- Generator: Adobe Illustrator 22.0.1, SVG Export Plug-In . SVG Version: 6.00 Build 0)  -->
<svg version="1.1" id="Layer_1" xmlns="http://www.w3.org/2000/svg" xmlns:xlink="http://www.w3.org/1999/xlink" x="0px" y="0px"
	 viewBox="0 0 209.5 46.6" style="enable-background:new 0 0 209.5 46.6;" xml:space="preserve">
<style type="text/css">
	.st0{fill:#CC4A6C;}
</style>
<g>
	<path class="st0" d="M85.4,15.4h-1.8c-0.8,1.2-1.5,2.4-2,3.8c-0.6,1.6-0.9,3.3-0.9,5.1c0,1.4,0.2,2.9,0.7,4.5
		c0.5,1.5,1.2,3,2.2,4.5h1.8c-0.5-1.2-0.9-2.1-1.1-2.7c-0.3-1-0.6-2-0.8-3c-0.2-1.1-0.3-2.1-0.3-3.1c0-1.5,0.2-2.9,0.5-4.2
		S84.6,17.2,85.4,15.4z"/>
	<path class="st0" d="M99.2,19.8c-0.2-1-0.3-1.5-0.3-1.6l0.3,0.1c0.2-0.5,0.4-0.8,0.4-1c0.1-0.2,0.1-0.6,0.2-1.1
		c-0.3-0.2-0.7-0.4-1.1-0.6c-0.3-0.2-0.4-0.4-0.4-0.6c0-0.1,0-0.2,0-0.3L98,14.5c-0.6,1.3-0.9,2.2-0.9,2.8l0.5,0.3
		c0.3,1.5,0.5,2.9,0.8,4.4c0.2,0.9,0.3,1.5,0.3,1.8c0,0.3,0.1,0.6,0.1,0.8c0,0,0,0.1,0,0.2c0,0.1,0,0.2,0,0.3c0,0.7-0.3,1.2-1,1.7
		c-0.7,0.4-1.6,0.6-2.7,0.6c-0.8,0-1.3-0.2-1.8-0.5c-0.4-0.3-0.6-0.7-0.6-1.3c0-0.5,0.1-1.1,0.3-1.6s0.5-1.2,1-1.9l-0.6-0.4
		c-0.7,1.1-1.2,2-1.5,2.8c-0.2,0.7-0.3,1.5-0.3,2.3c0,1,0.3,1.7,0.9,2.2c0.6,0.5,1.4,0.8,2.5,0.8c1.3,0,2.4-0.4,3.4-1.1
		c1-0.7,1.5-1.6,1.5-2.5v-2.1c0-0.2-0.1-0.8-0.3-1.8C99.5,21.6,99.3,20.8,99.2,19.8z"/>
	<path class="st0" d="M118,18.3c0.1-0.3,0.3-0.6,0.4-1c0.1-0.4,0.2-0.8,0.2-1.2c-0.5-0.2-0.9-0.4-1.1-0.6c-0.3-0.2-0.4-0.4-0.4-0.6
		c0-0.2,0-0.3,0-0.3l-0.4-0.2c-0.3,0.6-0.6,1.2-0.7,1.7c-0.1,0.4-0.2,0.7-0.2,1.1l0.6,0.4l1.1,6.3h-3.3c-0.5-0.1-0.9-0.2-1.1-0.4
		s-0.6-0.5-1.1-1c-0.7-0.7-1.2-1.3-1.6-1.6c-0.5-0.4-0.9-0.8-1.3-1c-0.4-0.2-0.8-0.3-1.2-0.3c-0.5,0-1,0.2-1.4,0.6
		c-0.4,0.4-0.8,0.9-1.1,1.7c0.3-0.1,0.4-0.1,0.6-0.1s0.3,0,0.4,0c0.5,0,1.1,0.2,1.7,0.5c0.6,0.3,1.3,0.9,2.1,1.7h-5.9h-0.6H103
		c-0.3,0-0.5-0.2-0.6-0.6c-0.2-0.5-0.3-1.4-0.3-2.7v-1.8c0-0.9-0.1-1.6-0.3-2.2c-0.1-0.5-0.4-1-0.8-1.5l-1,2.3
		c0.3,0.3,0.5,0.5,0.6,0.7c0.2,0.3,0.3,0.8,0.3,1.4v2.6c0,1.6,0.2,2.7,0.5,3.3c0.3,0.6,0.8,0.9,1.6,0.9h0.6h0.6h9.3h0.6h4.5v-2.5
		l-1-5.7L118,18.3z"/>
	<path class="st0" d="M121.6,18.5l-0.6-3.3c-0.3,0.7-0.6,1.2-0.8,1.7c-0.2,0.5-0.3,0.8-0.3,1c0,0.1,0,0.4,0.1,0.7
		c0.2,1,0.4,1.8,0.5,2.6c0.1,0.7,0.2,1.4,0.2,2.2s0.1,1.3,0.1,1.7c0,0.5-0.1,1.1-0.2,1.9l0.6,0.2c0.4-0.8,0.6-1.4,0.8-1.8
		c0.1-0.5,0.2-1,0.2-1.5c0-0.6,0-1.3-0.1-2C122,20.8,121.8,19.7,121.6,18.5z"/>
	<path class="st0" d="M129.4,19.6c-0.5-1.5-1.2-2.9-2.2-4.2h-1.8c0.8,1.9,1.4,3.5,1.7,4.8c0.3,1.3,0.5,2.7,0.5,4.2
		c0,0.7,0,1.4-0.1,2.1c-0.1,0.7-0.2,1.4-0.4,2.2c-0.2,0.8-0.4,1.4-0.6,2s-0.6,1.4-1.1,2.5h1.8c1.1-1.6,1.8-3.3,2.3-4.9
		c0.4-1.5,0.6-2.9,0.6-4.2C130.2,22.6,129.9,21.1,129.4,19.6z"/>
</g>
</svg>
