<?xml version="1.0" encoding="utf-8"?>
<!-- Generator: Adobe Illustrator 22.0.1, SVG Export Plug-In . SVG Version: 6.00 Build 0)  -->
<svg version="1.1" id="Layer_1" xmlns="http://www.w3.org/2000/svg" xmlns:xlink="http://www.w3.org/1999/xlink" x="0px" y="0px"
	 viewBox="0 0 234.5 46.1" style="enable-background:new 0 0 234.5 46.1;" xml:space="preserve">
<style type="text/css">
	.st0{fill:#BA0017;}
</style>
<g>
	<g>
		<g>
			<g>
				<g>
					<path class="st0" d="M55.1,15.6c0,0.3-0.2,0.6-0.5,0.9c-0.6,0.2-1.5,0.6-2.8,1.1c0-0.3,0.1-0.6,0.4-0.8
						C52.7,16.6,53.7,16.2,55.1,15.6z"/>
					<path class="st0" d="M56.8,24.8l-0.5,1.6c-1,0.2-1.8,0.5-2.4,0.8c-0.7,0.4-1.4,0.8-2,1.4l-0.3-0.2c0.1-0.3,0.2-0.6,0.3-0.8
						c0.1-0.2,0.3-0.4,0.4-0.6l-1.1-0.6c-0.3-0.2-0.5-0.5-0.5-0.7c0-0.2,0.1-0.6,0.4-1.1c0.3-0.7,0.7-1.2,1.1-1.6
						c0.5-0.6,1-0.8,1.6-0.8c0.5,0,0.9,0.1,1.2,0.4c0.1,0.1,0.2,0.2,0.5,0.5l-0.5,1.3c-0.2-0.2-0.4-0.3-0.4-0.3
						c-0.4-0.3-0.7-0.4-1-0.4c-0.3,0-0.6,0.1-1,0.3S52,24.3,52,24.5c0,0.3,0.2,0.5,0.6,0.8c0.3,0.2,0.8,0.4,1.4,0.6
						C54.9,25.4,55.8,25.1,56.8,24.8z"/>
					<path class="st0" d="M61.1,24.7c0,0.5-0.1,1-0.3,1.5c-0.1,0.3-0.3,0.7-0.6,1.2L60,27.4c0-0.2,0-0.4,0.1-0.7s0-0.4,0-0.5
						c0-0.7-0.1-1.6-0.2-2.8s-0.2-2.5-0.4-3.8c-0.1-0.8-0.2-1.6-0.3-2.5c0.1-0.3,0.3-0.6,0.4-0.9s0.3-0.6,0.5-0.9
						c0.1,0.7,0.2,1.8,0.4,3s0.3,2.5,0.4,3.5C61,23.1,61.1,24,61.1,24.7z"/>
					<path class="st0" d="M70.5,26.6c0,1.1-0.4,2.1-1.2,3.2c-0.9,1.2-1.9,1.8-3.1,1.8c-0.4,0-0.9,0-1.3-0.1
						c-0.3-0.1-0.8-0.2-1.3-0.4c-0.4-0.1-0.8-0.3-1.3-0.4l0.2-0.3c0.4,0.1,0.7,0.2,1.1,0.3s0.8,0.1,1.1,0.1c0.8,0,1.5-0.2,2.3-0.6
						c0.6-0.3,1.1-0.8,1.7-1.4c0.3-0.3,0.7-0.8,1.2-1.5c-0.9,0-1.5-0.1-2-0.4c-0.5-0.3-0.7-0.8-0.7-1.6c0-0.7,0.2-1.3,0.5-1.9
						c0.4-0.7,0.8-1,1.4-1c0.6,0,1,0.3,1.2,1c0.2,0.5,0.3,1.2,0.3,2.1V26.6z M69.9,25.5c-0.1-0.6-0.3-1.1-0.5-1.3
						c-0.2-0.2-0.4-0.3-0.6-0.3c-0.2,0-0.3,0.1-0.5,0.2s-0.2,0.3-0.2,0.5c0,0.3,0.1,0.6,0.4,0.7S69.3,25.5,69.9,25.5z"/>
					<path class="st0" d="M76.5,14.8c0,0.5-0.1,0.9-0.3,1.2c-0.2,0.4-0.4,0.5-0.8,0.5c-0.1,0-0.2,0-0.3-0.1s-0.2-0.1-0.3-0.2
						c-0.1,0.2-0.3,0.4-0.4,0.5c-0.2,0.2-0.4,0.3-0.7,0.3c-0.3,0-0.5-0.1-0.6-0.3S73,16.4,73,16.1c0-0.2,0-0.3,0.1-0.5
						c0-0.1,0.1-0.3,0.2-0.5l0.2-0.1c0,0.1,0,0.1,0,0.3s0,0.2,0,0.3c0,0.1,0,0.3,0.1,0.4s0.1,0.2,0.3,0.2c0.3,0,0.5-0.2,0.7-0.5
						c0.1-0.2,0.2-0.5,0.3-1l0.2-0.1c0.1,0.3,0.1,0.5,0.1,0.6c0.1,0.2,0.2,0.3,0.4,0.3c0.2,0,0.4-0.2,0.6-0.5
						c0.1-0.3,0.2-0.5,0.2-0.8l0.2-0.1c0,0.1,0.1,0.3,0.1,0.4S76.5,14.7,76.5,14.8z M76.4,12.4c0,0.3-0.2,0.6-0.5,0.9
						c-0.6,0.2-1.5,0.6-2.8,1.1c0-0.3,0.1-0.5,0.4-0.8C74,13.4,75,13,76.4,12.4z"/>
					<path class="st0" d="M77.3,27.2h-4.4c-0.4,0-0.7-0.1-1-0.3s-0.4-0.5-0.4-0.8c0-0.2,0-0.5,0-0.7s0.1-0.4,0.1-0.7h0.2
						c0.1,0.3,0.2,0.5,0.4,0.6c0.2,0.1,0.4,0.1,0.6,0.1h3.8c0-1.2-0.2-2.1-0.5-2.8c-0.4-0.9-1.1-1.5-2-1.8l0.1-1.9
						c1.1,0.6,1.9,1.4,2.4,2.6c0.4,1,0.6,2.3,0.6,3.8V27.2z"/>
					<path class="st0" d="M81.4,27.2h-4.8v-1.7h3.8l-1.2-8.3L78.8,17c0-0.4,0-0.9,0.1-1.3s0.2-0.8,0.4-1.1l0.1,0.1
						c0,0.4,0.2,0.7,0.6,0.8c0.3,0.1,0.7,0.3,1,0.4c0,0.3,0,0.7-0.1,1s-0.1,0.6-0.2,0.8l-0.5-0.2l1.2,7.7V27.2z"/>
					<path class="st0" d="M84.7,24.7c0,0.5-0.1,1-0.3,1.5c-0.1,0.3-0.3,0.7-0.6,1.2l-0.2-0.1c0-0.2,0-0.4,0.1-0.7s0-0.4,0-0.5
						c0-0.7-0.1-1.6-0.2-2.8s-0.2-2.5-0.4-3.8c-0.1-0.8-0.2-1.6-0.3-2.5c0.1-0.3,0.3-0.6,0.4-0.9s0.3-0.6,0.5-0.9
						c0.1,0.7,0.2,1.8,0.4,3s0.3,2.5,0.4,3.5C84.7,23.1,84.7,24,84.7,24.7z"/>
					<path d="M97.7,16.3c0,0.1,0,0.2,0,0.3s0,0.2-0.1,0.4l-0.8-0.5c-0.3,0.4-0.5,0.6-0.7,0.7c-0.5,0.5-0.9,0.7-1.2,0.7h-0.7
						c0.3-0.2,0.7-0.4,1.2-0.8c0.4-0.3,0.7-0.6,0.9-0.9c-0.2-0.1-0.4-0.3-0.5-0.4c-0.1-0.2-0.2-0.4-0.2-0.6c0-0.4,0.1-0.8,0.4-1.1
						s0.5-0.5,0.8-0.5c0.2,0,0.3,0.1,0.5,0.3s0.2,0.4,0.2,0.7c0,0.1,0,0.3-0.1,0.4s-0.1,0.4-0.2,0.7c0.1,0.1,0.2,0.2,0.3,0.3
						C97.7,16.1,97.7,16.2,97.7,16.3z M97,15.2c0-0.2-0.1-0.3-0.2-0.5s-0.2-0.2-0.4-0.2c-0.1,0-0.1,0-0.2,0.1s-0.1,0.1-0.1,0.1
						c0,0.1,0.1,0.3,0.2,0.4l0.4,0.3C96.9,15.4,97,15.3,97,15.2z"/>
					<path d="M113.1,27.2h-11.6c-0.2,1.4-0.7,2.4-1.4,3c-0.9,0.8-2.3,1.3-4.2,1.3c-1.3,0-2.3-0.2-3-0.7c-0.8-0.5-1.1-1.3-1.1-2.3
						c0-0.6,0.1-1.1,0.2-1.7s0.3-1.1,0.6-1.7c0.1-0.4,0.4-0.9,0.7-1.6l0.4,0.2c-0.5,0.9-0.8,1.7-0.9,2.2s-0.2,1-0.2,1.5
						c0,0.8,0.3,1.4,0.9,1.8s1.4,0.6,2.5,0.6c1.3,0,2.4-0.2,3.3-0.7c1.2-0.5,1.8-1.3,1.8-2.3c0-0.7-0.1-1.3-0.4-1.9
						c-0.2-0.5-0.5-0.9-0.8-1.3l0.8-2c0.3,0.5,0.5,1,0.7,1.4c0.2,0.6,0.2,1.4,0.2,2.4h0.2c0.8,0,1.5-0.1,2.2-0.4
						c0.6-0.2,1.2-0.6,1.8-1c1-0.7,1.5-1.1,1.7-1.2c0.5-0.3,1-0.6,1.4-0.7c0.5-0.2,1-0.2,1.6-0.2c0.9,0,1.6,0.3,2,0.8
						c0.4,0.5,0.6,1.1,0.6,2V27.2z M106.6,19.1l-0.7,1.4l-1.6-0.8l0.7-1.4L106.6,19.1z M111.5,24.7c0-0.3-0.2-0.6-0.6-0.7
						s-0.9-0.3-1.4-0.3c-0.5,0-1,0.1-1.6,0.3c-0.4,0.1-0.9,0.4-1.6,0.7c-0.5,0.2-0.9,0.5-1.4,0.7h4.5c0.6,0,1.1-0.1,1.5-0.2
						S111.5,25,111.5,24.7z"/>
					<path d="M118,27.2h-5.6v-1.7h4.9c0-0.8-0.1-1.4-0.3-1.8c-0.1-0.3-0.4-0.7-0.9-1.2l0.8-1.6c0.5,0.6,0.8,1.1,0.9,1.4
						c0.2,0.5,0.3,1.3,0.3,2.5V27.2z M115.7,30l-0.7,1.4l-1.6-0.8l0.7-1.4L115.7,30z M117.9,29.1l-0.8,1.4l-1.6-0.8l0.7-1.4
						L117.9,29.1z"/>
					<path d="M127.7,27.2c0,0.7-0.3,1.5-0.9,2.2c-0.5,0.7-1.2,1.3-2,1.7c-0.8,0.5-1.4,0.7-1.9,0.7c-0.4,0-0.9-0.1-1.5-0.2
						c-0.4-0.1-0.9-0.3-1.4-0.5c-0.5-0.2-0.9-0.4-1.4-0.5l0.2-0.4c0.4,0.1,0.9,0.2,1.3,0.3s0.9,0.1,1.3,0.1c0.8,0,1.7-0.3,2.6-0.8
						c0.8-0.5,1.5-1.1,2.1-1.9s0.9-1.4,0.9-2c0-0.5-0.1-1.1-0.4-1.6c-0.2-0.5-0.6-0.9-1-1.4l0.6-1.5c0.5,0.5,0.9,1,1.2,1.5
						c0.3,0.6,0.4,1.2,0.4,1.9V27.2z"/>
					<path d="M133.3,15.6c0,0.3-0.2,0.6-0.5,0.9c-0.6,0.2-1.5,0.6-2.8,1.1c0-0.3,0.1-0.6,0.4-0.8C130.9,16.6,131.9,16.2,133.3,15.6z
						"/>
					<path d="M135.6,27.2h-1c-0.4,0-0.9-0.1-1.5-0.3c-0.6-0.2-1.2-0.5-1.7-0.9c-0.4,0.5-0.8,0.8-1.2,1s-1,0.3-1.7,0.3h-1.5v-1.7h1.5
						c0.6,0,1.1-0.1,1.6-0.4c0.4-0.2,0.7-0.6,1-1c0.4-0.6,0.9-1.1,1.5-1.5c0.5-0.4,1-0.6,1.4-0.7c0.4,0.7,0.8,1.3,1.1,1.8
						c0.4,0.7,0.5,1.3,0.5,1.8V27.2z M134.5,25.3c-0.1-0.4-0.2-0.7-0.4-1.1c-0.1-0.3-0.3-0.6-0.6-0.9c-0.3,0.1-0.6,0.2-0.8,0.4
						c-0.1,0.1-0.3,0.4-0.5,0.7c0.2,0.3,0.6,0.5,1,0.7s0.8,0.3,1.2,0.4L134.5,25.3z"/>
					<path d="M139.8,27.2h-4.8v-1.7h3.8l-1.2-8.3l-0.5-0.2c0-0.4,0-0.9,0.1-1.3s0.2-0.8,0.4-1.1l0.1,0.1c0,0.4,0.2,0.7,0.6,0.8
						c0.3,0.1,0.7,0.3,1,0.4c0,0.3,0,0.7-0.1,1s-0.1,0.6-0.2,0.8l-0.5-0.2l1.2,7.7V27.2z"/>
					<path d="M143.1,24.7c0,0.5-0.1,1-0.3,1.5c-0.1,0.3-0.3,0.7-0.6,1.2l-0.2-0.1c0-0.2,0-0.4,0.1-0.7s0-0.4,0-0.5
						c0-0.7-0.1-1.6-0.2-2.8s-0.2-2.5-0.4-3.8c-0.1-0.8-0.2-1.6-0.3-2.5c0.1-0.3,0.3-0.6,0.4-0.9s0.3-0.6,0.5-0.9
						c0.1,0.7,0.2,1.8,0.4,3s0.3,2.5,0.4,3.5C143,23.1,143.1,24,143.1,24.7z"/>
					<path d="M156.5,15.6c0,0.3-0.2,0.6-0.5,0.9c-0.6,0.2-1.5,0.6-2.8,1.1c0-0.3,0.1-0.6,0.4-0.8C154.1,16.6,155.1,16.2,156.5,15.6z
						"/>
					<path d="M163.7,27.2h-9.3c-1.3,0-2.2-0.2-3-0.7c-0.9-0.5-1.4-1.4-1.4-2.6c0-0.6,0.1-1.2,0.4-1.9c0.1-0.2,0.3-0.7,0.7-1.3
						l0.3,0.2c-0.1,0.3-0.3,0.6-0.4,0.9c-0.2,0.5-0.3,0.9-0.3,1.2c0,0.8,0.4,1.4,1.2,1.8c0.7,0.4,1.6,0.6,2.7,0.6h8.3v-0.3
						c0-0.7-0.1-1.3-0.3-1.8s-0.5-0.9-0.9-1.2l0.8-1.6c0.3,0.4,0.5,0.6,0.5,0.7c0.4,0.7,0.7,1.8,0.7,3.2V27.2z M158.1,29.6l-0.8,1.4
						l-1.6-0.8l0.7-1.4L158.1,29.6z"/>
					<path d="M170.8,33.7c0,0.3-0.2,0.6-0.5,0.9c-0.6,0.2-1.5,0.6-2.8,1.1c0-0.3,0.1-0.5,0.4-0.8C168.5,34.7,169.4,34.3,170.8,33.7z
						"/>
					<path d="M173.5,27.2c0,0.7-0.3,1.5-0.9,2.2c-0.5,0.7-1.2,1.3-2,1.7c-0.8,0.5-1.4,0.7-1.9,0.7c-0.4,0-0.9-0.1-1.5-0.2
						c-0.4-0.1-0.9-0.3-1.4-0.5c-0.5-0.2-0.9-0.4-1.4-0.5l0.2-0.4c0.4,0.1,0.9,0.2,1.3,0.3s0.9,0.1,1.3,0.1c0.8,0,1.7-0.3,2.6-0.8
						c0.8-0.5,1.5-1.1,2.1-1.9s0.9-1.4,0.9-2c0-0.5-0.1-1.1-0.4-1.6c-0.2-0.5-0.6-0.9-1-1.4l0.6-1.5c0.5,0.5,0.9,1,1.2,1.5
						c0.3,0.6,0.4,1.2,0.4,1.9V27.2z"/>
					<path d="M178.6,12.7c0,0.3-0.2,0.6-0.5,0.9c-0.6,0.2-1.5,0.6-2.8,1.1c0-0.3,0.1-0.6,0.4-0.8C176.2,13.7,177.2,13.3,178.6,12.7z
						"/>
					<path d="M184.1,27.2h-0.8c-0.4,0-0.8-0.1-1.1-0.2s-0.6-0.3-0.8-0.5c-0.3,0.2-0.6,0.4-0.8,0.5c-0.3,0.1-0.8,0.2-1.4,0.2h-0.6
						c-0.3,0-0.7-0.1-1-0.2c-0.2-0.1-0.5-0.2-0.8-0.4c-0.3,0.2-0.6,0.4-0.9,0.5s-0.7,0.1-1.3,0.1h-1.9v-1.7h1.9c0.5,0,0.9,0,1.1-0.1
						c0.4-0.1,0.6-0.4,0.6-0.9c0-0.2,0-0.4,0-0.6s-0.1-0.4-0.1-0.6l0.4-0.6c0.2,0.6,0.3,1,0.4,1.3c0.2,0.5,0.4,0.8,0.7,1.1
						c0.3,0.3,0.7,0.4,1.1,0.4h0.7c0.5,0,0.8-0.1,1.1-0.2c0.3-0.2,0.4-0.4,0.4-0.8c0-0.2,0-0.4,0-0.6s-0.1-0.4-0.1-0.6l0.4-0.6
						l0.2,0.9c0.2,0.7,0.4,1.2,0.6,1.5c0.2,0.2,0.5,0.4,0.9,0.4c0.2,0,0.3-0.1,0.4-0.2s0.2-0.2,0.2-0.4c0-0.4-0.1-0.7-0.4-1.2
						c0-0.1-0.2-0.3-0.5-0.6l0.6-1.1c0.3,0.4,0.4,0.8,0.5,1c0.1,0.4,0.2,1,0.2,1.8V27.2z M181,19.2l-0.7,1.4l-1.6-0.8l0.7-1.4
						L181,19.2z M181.3,16.6l-0.8,1.4l-1.6-0.8l0.7-1.4L181.3,16.6z M183.2,18.3l-0.8,1.4l-1.6-0.8l0.7-1.4L183.2,18.3z"/>
				</g>
			</g>
		</g>
	</g>
</g>
</svg>
