<?xml version="1.0" encoding="utf-8"?>
<!-- Generator: Adobe Illustrator 22.0.1, SVG Export Plug-In . SVG Version: 6.00 Build 0)  -->
<svg version="1.1" id="Layer_1" xmlns="http://www.w3.org/2000/svg" xmlns:xlink="http://www.w3.org/1999/xlink" x="0px" y="0px"
	 viewBox="0 0 204.7 45.6" style="enable-background:new 0 0 204.7 45.6;" xml:space="preserve">
<style type="text/css">
	.st0{fill:#BA0017;}
</style>
<g>
	<g>
		<path d="M24.5,16.3c-0.3,0.2-0.7,0.3-1.1,0.5s-0.8,0.3-1.1,0.5c-0.4,0.2-0.7,0.3-1,0.5c-0.3,0.1-0.6,0.3-0.8,0.4c0,0-0.1,0-0.1,0
			c0,0,0-0.1,0-0.1c0,0,0.1-0.1,0.1-0.2s0.1-0.2,0.2-0.3c0.1-0.1,0.1-0.2,0.2-0.3s0.1-0.1,0.1-0.2c0.1-0.1,0.1-0.2,0.2-0.2l3.9-1.7
			c0.1,0,0.1,0,0.1,0.1c0,0.1-0.1,0.1-0.1,0.2s-0.1,0.2-0.1,0.3s-0.1,0.2-0.1,0.3c0,0.1-0.1,0.2-0.1,0.2
			C24.6,16.2,24.6,16.2,24.5,16.3z"/>
		<path d="M26,21.8c0.3,0.5,0.6,0.9,0.9,1.4c0.3,0.5,0.5,1,0.6,1.5c0.2,0.5,0.2,1.1,0.3,1.6c0,0.5,0,1.1-0.1,1.6
			c-0.1,0.4-0.2,0.8-0.4,1.2c-0.2,0.4-0.4,0.7-0.7,1c-0.3,0.3-0.6,0.5-1,0.8c-0.4,0.2-0.7,0.4-1.1,0.5c-0.4,0.1-0.8,0.3-1.2,0.3
			c-0.4,0.1-0.8,0.1-1.2,0.1c-0.5,0-1-0.1-1.5-0.3s-0.9-0.4-1.2-0.7c-0.4-0.3-0.6-0.7-0.8-1.2s-0.3-1-0.3-1.6c0-0.6,0.1-1.3,0.3-1.9
			c0.2-0.6,0.5-1.2,0.9-1.7c0-0.1,0.1-0.1,0.1-0.1c0,0,0.1,0,0.1,0.1c0,0,0,0.1,0,0.1c0,0,0,0.1,0,0.1c-0.3,0.6-0.5,1.3-0.6,1.9
			c-0.1,0.6,0,1.2,0.2,1.8c0.1,0.3,0.2,0.5,0.4,0.7c0.2,0.2,0.4,0.4,0.6,0.6c0.3,0.2,0.5,0.3,0.9,0.4c0.3,0.1,0.7,0.1,1.1,0.1
			c0.4,0,0.9,0,1.3-0.1s0.9-0.2,1.3-0.4c0.4-0.2,0.8-0.4,1.2-0.7c0.4-0.3,0.7-0.6,1-0.9c0-0.4,0-0.8-0.1-1.3s-0.2-0.9-0.4-1.3
			c-0.2-0.4-0.4-0.9-0.6-1.3c-0.2-0.4-0.4-0.8-0.6-1.1c0.1-0.2,0.1-0.5,0.2-0.7s0.2-0.5,0.3-0.7C25.9,21.7,25.9,21.7,26,21.8
			C26,21.7,26,21.8,26,21.8z M23.1,19.1l1.3,1c0.1,0,0.1,0.1,0,0.2l-0.8,1.1c0,0.1-0.1,0.1-0.2,0l-1.3-1c-0.1,0-0.1-0.1,0-0.2l0.9-1
			C23,19.1,23,19.1,23.1,19.1z"/>
		<path d="M34.9,29.1l-1,0c-0.3,0-0.6,0-0.8-0.1c-0.3-0.1-0.5-0.2-0.7-0.3s-0.3-0.3-0.4-0.6c-0.1-0.2-0.1-0.5-0.1-0.8
			c0-0.1,0-0.3,0.1-0.4c0.1-0.2,0.1-0.4,0.2-0.5c0.1-0.2,0.2-0.4,0.3-0.5s0.2-0.3,0.4-0.5c0.1-0.1,0.3-0.3,0.4-0.3
			c0.2-0.1,0.3-0.1,0.5-0.1c0.2,0,0.5,0.1,0.7,0.3c0.2,0.2,0.4,0.4,0.6,0.7c0.2,0.3,0.3,0.6,0.4,0.9c0.1,0.3,0.2,0.6,0.2,0.8l0.8,0
			h0.2c0.2,0,0.4,0.1,0.5,0.3c0.1,0.2,0.2,0.4,0.2,0.6s-0.1,0.4-0.2,0.6c-0.1,0.2-0.3,0.3-0.5,0.3h-0.2l-0.9,0
			c-0.1,0.6-0.3,1.1-0.4,1.7c-0.2,0.5-0.4,1-0.6,1.5c-0.3,0.5-0.6,0.9-0.9,1.2c-0.4,0.3-0.8,0.6-1.3,0.8c-0.4,0.1-0.8,0.2-1.2,0.2
			c-0.4,0-0.9,0-1.4,0s-0.9-0.1-1.4-0.1c-0.4-0.1-0.9-0.1-1.2-0.3c-0.1,0-0.1-0.1-0.2-0.1c0-0.1,0-0.1,0-0.2c0-0.1,0.1-0.1,0.1-0.1
			s0.1-0.1,0.3-0.1c0.4,0,0.8,0,1.2,0c0.4,0,0.8,0,1.2-0.1c0.4-0.1,0.8-0.1,1.2-0.3c0.4-0.1,0.7-0.3,1.1-0.4c0.4-0.2,0.7-0.5,1-0.7
			c0.3-0.3,0.6-0.6,0.8-0.9c0.2-0.3,0.4-0.7,0.6-1S34.8,29.5,34.9,29.1z M33.4,26.5c-0.1,0-0.2,0-0.3,0.1c-0.1,0.1-0.2,0.1-0.2,0.2
			c-0.1,0.1-0.1,0.2-0.2,0.2c0,0.1-0.1,0.2-0.1,0.2c0,0.1,0.1,0.2,0.3,0.2c0.2,0,0.4,0.1,0.6,0.1c0.2,0,0.4,0,0.6,0
			c0.2,0,0.4,0,0.5,0c0,0,0-0.1-0.1-0.2c-0.1-0.1-0.2-0.2-0.3-0.3c-0.1-0.1-0.2-0.2-0.4-0.3C33.6,26.6,33.5,26.5,33.4,26.5z"/>
		<path d="M38.3,15.1c-0.1,0-0.1-0.1,0-0.1c0.1-0.1,0.1-0.1,0.3-0.2c0.2-0.2,0.4-0.3,0.7-0.4c0.2-0.1,0.4-0.3,0.6-0.4
			c0.2-0.1,0.4-0.3,0.6-0.5c0.2-0.2,0.4-0.4,0.6-0.6c-0.2-0.1-0.4-0.1-0.6-0.3c-0.2-0.1-0.4-0.3-0.5-0.4c-0.1-0.1-0.1-0.2-0.1-0.3
			c0-0.1,0-0.2,0-0.3c0.1-0.2,0.1-0.3,0.2-0.5c0.1-0.2,0.2-0.4,0.3-0.5c0.1-0.2,0.3-0.3,0.4-0.4s0.3-0.1,0.5-0.1
			c0.1,0,0.2,0.1,0.3,0.1c0.1,0.1,0.2,0.2,0.2,0.3s0.1,0.3,0.1,0.5c0,0.2,0,0.3,0,0.5s0,0.3,0,0.5s0,0.2-0.1,0.3c0,0,0,0.1,0.1,0.1
			c0.1,0,0.1,0.1,0.2,0.1s0.1,0.1,0.1,0.2c0,0.1,0,0.2,0,0.4s-0.1,0.3-0.1,0.3c0,0.1-0.1,0.1-0.1,0.1s-0.1,0-0.1-0.1
			c0,0-0.1-0.1-0.1-0.1c0,0-0.1-0.1-0.1-0.1c-0.2,0.3-0.4,0.5-0.6,0.7s-0.4,0.4-0.6,0.5c-0.2,0.1-0.4,0.3-0.7,0.4
			c-0.2,0.1-0.5,0.2-0.8,0.4c-0.1,0-0.2,0.1-0.4,0.1C38.5,15.1,38.3,15.1,38.3,15.1z M40.5,11.3c0.1,0.2,0.3,0.4,0.5,0.5
			c0.2,0.1,0.4,0.2,0.5,0.2h0c0-0.1,0-0.1,0-0.2s0-0.2,0-0.3c0-0.1,0-0.2,0-0.3S41.4,11,41.4,11c-0.1,0-0.1-0.1-0.2-0.1
			c-0.1,0-0.2,0-0.3,0.1s-0.2,0.1-0.3,0.1C40.5,11.2,40.5,11.2,40.5,11.3z"/>
		<path d="M36.2,27.5h0.2c0.2,0,0.4,0,0.7,0c0.3,0,0.6,0,0.9,0c0.3,0,0.7,0,1-0.1c0.4,0,0.7-0.1,1.1-0.1c0.3-0.1,0.7-0.2,1-0.3
			c0.3-0.1,0.6-0.3,0.8-0.4c-0.1-0.3-0.3-0.6-0.5-0.9c-0.2-0.3-0.4-0.6-0.7-0.9c-0.3-0.3-0.5-0.6-0.8-0.8c-0.3-0.3-0.5-0.5-0.8-0.7
			c-0.2-0.2-0.4-0.4-0.7-0.6c-0.2-0.2-0.5-0.4-0.7-0.5c-0.2-0.2-0.5-0.4-0.7-0.5c-0.2-0.2-0.4-0.4-0.6-0.5c-0.1-0.1-0.1-0.2-0.1-0.4
			c0-0.2,0-0.4,0.1-0.6s0.1-0.5,0.2-0.7c0.1-0.2,0.2-0.4,0.3-0.6c0.2-0.3,0.4-0.5,0.8-0.8c0.4-0.3,0.7-0.5,1.1-0.8
			c0.4-0.3,0.8-0.5,1.3-0.7c0.4-0.2,0.8-0.4,1.1-0.6c0.6-0.3,1.2-0.6,1.7-0.9c0.5-0.3,1-0.5,1.5-0.8s1-0.5,1.5-0.7
			c0.5-0.2,1.1-0.5,1.7-0.8c0,0,0,0,0.1,0c0,0,0,0,0,0.1c-0.1,0.3-0.2,0.5-0.3,0.8c-0.1,0.3-0.2,0.5-0.3,0.8c-0.5,0.2-1,0.5-1.4,0.7
			c-0.4,0.2-0.8,0.4-1.2,0.6c-0.4,0.2-0.8,0.4-1.2,0.6c-0.4,0.2-0.9,0.4-1.4,0.7c-0.6,0.3-1.2,0.6-1.6,0.8s-0.8,0.4-1.2,0.6
			c-0.3,0.2-0.6,0.4-0.8,0.5s-0.4,0.3-0.6,0.4c-0.2,0.1-0.3,0.2-0.4,0.4c-0.1,0.1-0.1,0.2-0.1,0.3c0.8,0.5,1.6,1,2.4,1.5
			c0.8,0.5,1.6,1,2.3,1.6c0.2,0.2,0.5,0.4,0.8,0.6c0.3,0.3,0.6,0.5,0.9,0.8c0.3,0.3,0.7,0.6,1,0.8c0.3,0.3,0.7,0.5,1,0.8
			c0.3,0.2,0.6,0.4,0.8,0.6c0.2,0.2,0.5,0.3,0.7,0.4s0.5,0.2,0.8,0.2c0.3,0,0.7,0.1,1.1,0.1h0.2c0.2,0,0.4,0.1,0.5,0.3
			c0.1,0.2,0.2,0.4,0.2,0.6s-0.1,0.4-0.2,0.6c-0.1,0.2-0.3,0.3-0.5,0.3h-0.2c-0.4,0-0.7,0-1.1-0.1c-0.3-0.1-0.6-0.1-0.9-0.3
			c-0.3-0.1-0.6-0.3-0.9-0.4c-0.3-0.2-0.6-0.4-0.9-0.6c-0.3-0.3-0.6-0.5-1-0.8c-0.3-0.3-0.6-0.6-0.9-0.8c-0.3-0.3-0.6-0.5-0.8-0.8
			c-0.3-0.2-0.5-0.4-0.7-0.6c0.1,0.2,0.3,0.4,0.4,0.6c0.1,0.3,0.2,0.6,0.2,0.9s0,0.6-0.1,0.9s-0.2,0.6-0.5,0.8
			c-0.2,0.2-0.5,0.3-0.8,0.5c-0.3,0.1-0.6,0.2-1,0.3S39.4,28.9,39,29c-0.4,0-0.7,0.1-1,0.1c-0.3,0-0.6,0-0.9,0c-0.3,0-0.5,0-0.7,0
			h-0.2c-0.2,0-0.4-0.1-0.5-0.3c-0.1-0.2-0.2-0.4-0.2-0.6s0.1-0.4,0.2-0.6C35.8,27.6,36,27.5,36.2,27.5z"/>
		<path d="M52.6,16.8c0,0.2,0,0.5-0.1,0.7c-0.1,0.2-0.2,0.4-0.3,0.6c-0.1,0.2-0.3,0.3-0.5,0.4c-0.2,0.1-0.4,0.1-0.7,0.1
			c-0.4,0-0.7-0.1-0.9-0.3c-0.2-0.2-0.4-0.5-0.4-0.9c0-0.2,0-0.4,0.1-0.7s0.1-0.5,0.3-0.8c0.1-0.3,0.3-0.5,0.5-0.7
			c0.2-0.2,0.4-0.3,0.7-0.3c0.3,0,0.5,0,0.6,0.2c0.2,0.1,0.3,0.3,0.4,0.5s0.2,0.4,0.2,0.6C52.6,16.4,52.6,16.6,52.6,16.8z M51.1,16
			c-0.1,0-0.2,0.1-0.3,0.1s-0.2,0.2-0.3,0.3c-0.1,0.1-0.1,0.2-0.2,0.3s-0.1,0.2-0.1,0.3s0,0.2,0.1,0.3c0.1,0.1,0.1,0.1,0.2,0.1
			c0.1,0,0.2,0.1,0.3,0.1c0.1,0,0.2,0,0.3,0c0.4,0,0.7-0.2,1-0.4c0-0.1,0-0.2,0-0.4s-0.1-0.3-0.2-0.4c-0.1-0.1-0.2-0.2-0.3-0.3
			S51.3,16,51.1,16z"/>
		<path d="M52.6,25.4c0,0.1,0,0.2,0,0.3c0,0.1,0,0.2,0,0.3c0,0.2,0.1,0.4,0.1,0.5s0.2,0.3,0.4,0.5c0.2,0.1,0.4,0.3,0.7,0.4
			c0.3,0.1,0.6,0.1,1.1,0.1H55c0.2,0,0.4,0.1,0.5,0.3c0.1,0.2,0.2,0.4,0.2,0.6s-0.1,0.4-0.2,0.6c-0.1,0.2-0.3,0.3-0.5,0.3h-0.2
			c-0.7,0-1.3-0.1-1.8-0.4c-0.5-0.3-0.8-0.7-1.1-1.2c-0.2,0.4-0.4,0.7-0.6,0.9c-0.2,0.2-0.5,0.4-0.8,0.5c-0.3,0.1-0.5,0.2-0.8,0.2
			c-0.3,0-0.5,0.1-0.7,0.1h-0.2c-0.2,0-0.4-0.1-0.5-0.3c-0.1-0.2-0.2-0.4-0.2-0.6s0.1-0.4,0.2-0.6c0.1-0.2,0.3-0.3,0.5-0.3h0.2
			c0.2,0,0.4,0,0.7,0c0.2,0,0.5-0.1,0.7-0.1c0.2-0.1,0.5-0.2,0.7-0.3c0.2-0.1,0.4-0.3,0.6-0.5c0.1-0.2,0.2-0.4,0.3-0.5
			c0.1-0.2,0.2-0.4,0.3-0.6c0,0,0-0.1,0.1-0.1s0.1,0,0.1,0C52.5,25.3,52.5,25.3,52.6,25.4C52.6,25.3,52.6,25.4,52.6,25.4z
			 M51.7,30.5l1.3,1c0.1,0,0.1,0.1,0,0.2l-0.8,1.1c0,0.1-0.1,0.1-0.2,0l-1.3-1c-0.1,0-0.1-0.1,0-0.2l0.9-1
			C51.6,30.5,51.6,30.5,51.7,30.5z"/>
		<path d="M60.1,15c-0.3,0.2-0.7,0.3-1.1,0.5s-0.8,0.3-1.1,0.5c-0.4,0.2-0.7,0.3-1,0.5c-0.3,0.1-0.6,0.3-0.8,0.4c0,0-0.1,0-0.1,0
			c0,0,0-0.1,0-0.1c0,0,0.1-0.1,0.1-0.2s0.1-0.2,0.2-0.3c0.1-0.1,0.1-0.2,0.2-0.3s0.1-0.1,0.1-0.2c0.1-0.1,0.1-0.2,0.2-0.2l3.9-1.7
			c0.1,0,0.1,0,0.1,0.1c0,0.1-0.1,0.1-0.1,0.2s-0.1,0.2-0.1,0.3s-0.1,0.2-0.1,0.3c0,0.1-0.1,0.2-0.1,0.2
			C60.2,14.9,60.2,14.9,60.1,15z"/>
		<path d="M58.6,23.4C58.7,23.3,58.7,23.3,58.6,23.4c0.1-0.1,0.2-0.1,0.2,0c0.2,0.2,0.4,0.4,0.5,0.6c0.2,0.2,0.3,0.5,0.4,0.7
			s0.2,0.5,0.3,0.8s0.1,0.5,0.1,0.8c0,0.1,0,0.2,0,0.4c0,0.1,0,0.3-0.1,0.4s-0.1,0.3-0.1,0.4c0,0.1-0.1,0.2-0.2,0.3
			c-0.1,0.2-0.3,0.3-0.5,0.4c-0.2,0.1-0.5,0.2-0.8,0.3c-0.3,0.1-0.6,0.2-1,0.2c-0.3,0.1-0.7,0.1-1,0.1c-0.3,0-0.6,0.1-0.9,0.1
			c-0.3,0-0.5,0-0.7,0h-0.2c-0.2,0-0.4-0.1-0.5-0.3c-0.1-0.2-0.2-0.4-0.2-0.6s0.1-0.4,0.2-0.6c0.1-0.2,0.3-0.3,0.5-0.3h0.2
			c0.1,0,0.3,0,0.5,0c0.2,0,0.5,0,0.8,0c0.3,0,0.6,0,0.9-0.1c0.3,0,0.6-0.1,1-0.1c0.3,0,0.6-0.1,0.8-0.1c0.2-0.1,0.4-0.1,0.5-0.2
			c0.1-0.1,0.2-0.2,0.1-0.3c-0.1-0.4-0.3-0.7-0.5-1c-0.2-0.3-0.5-0.6-0.8-0.9c0.1-0.2,0.1-0.5,0.2-0.7S58.6,23.6,58.6,23.4z
			 M58.7,33.1C58.7,33.2,58.7,33.2,58.7,33.1c-0.1,0.1-0.1,0.1-0.2,0l-1.2-1l-0.8,1.1c0,0.1-0.1,0.1-0.1,0l-1.2-1c0,0-0.1-0.1,0-0.1
			L56,31c0,0,0-0.1,0.1-0.1s0,0,0.1,0l1.2,0.9l0.8-1.1c0-0.1,0.1-0.1,0.1,0l1.2,1.1c0,0,0,0.1,0,0.1L58.7,33.1z"/>
		<path class="st0" d="M70.3,19c-0.3,0.2-0.7,0.3-1.1,0.5c-0.4,0.2-0.7,0.3-1.1,0.5c-0.4,0.2-0.7,0.3-1,0.5
			c-0.3,0.1-0.6,0.3-0.8,0.4c-0.1,0-0.1,0-0.1-0.1c0-0.1,0.1-0.1,0.1-0.2s0.1-0.2,0.2-0.3c0.1-0.1,0.1-0.2,0.2-0.2
			c0-0.1,0.1-0.1,0.1-0.1c0-0.1,0.1-0.2,0.2-0.2l3.8-1.7c0.1,0,0.1,0,0.1,0.1c-0.1,0.1-0.1,0.3-0.2,0.4c-0.1,0.2-0.2,0.3-0.2,0.4
			C70.5,19,70.4,19,70.3,19z M70.4,17.2c-0.3,0.2-0.7,0.3-1.1,0.5s-0.7,0.3-1.1,0.5c-0.4,0.2-0.7,0.3-1,0.5
			c-0.3,0.1-0.6,0.3-0.8,0.4c-0.1,0-0.1,0-0.1-0.1c0-0.1,0.1-0.1,0.1-0.2s0.1-0.2,0.2-0.3c0.1-0.1,0.1-0.2,0.2-0.2
			c0-0.1,0.1-0.1,0.1-0.1c0-0.1,0.1-0.2,0.2-0.2l3.8-1.7c0.1,0,0.1,0,0.1,0.1c-0.1,0.1-0.1,0.3-0.2,0.4c-0.1,0.2-0.2,0.3-0.2,0.4
			C70.6,17.1,70.5,17.2,70.4,17.2z"/>
		<path class="st0" d="M66.7,28.1c0.1-0.1,0.3-0.2,0.5-0.3c0.1-0.1,0.2-0.1,0.3-0.2c0.1-0.1,0.2-0.1,0.3-0.1
			c-0.2-0.2-0.4-0.4-0.6-0.6c-0.2-0.2-0.3-0.4-0.4-0.7c-0.1-0.3-0.1-0.5,0.1-0.8c0.1-0.2,0.3-0.5,0.5-0.7c0.2-0.2,0.4-0.4,0.6-0.6
			c0.2-0.2,0.5-0.4,0.8-0.5c0.3-0.1,0.5-0.2,0.8-0.2c0.1,0,0.2,0,0.3,0.1s0.2,0.2,0.2,0.3c0.1,0.1,0.1,0.2,0.2,0.3
			c0.1,0.1,0.1,0.2,0.1,0.3c0.1,0.2,0.1,0.4,0,0.5c0,0,0,0.1-0.1,0.2s-0.1,0.2-0.1,0.3s-0.1,0.2-0.2,0.2c-0.1,0.1-0.1,0.1-0.2,0.1
			c-0.1,0-0.1,0-0.1-0.1c0,0-0.1-0.1-0.1-0.1c0-0.1,0-0.1-0.1-0.2s0-0.1-0.1-0.2c-0.1-0.1-0.1-0.2-0.3-0.3s-0.2-0.1-0.4-0.1
			c-0.4,0-0.8,0.2-1.2,0.5c0.1,0.3,0.3,0.6,0.6,0.9c0.3,0.3,0.6,0.5,1,0.5c0.4,0.1,0.9,0.1,1.3,0s0.9-0.2,1.4-0.3c0,0,0,0.1,0,0.2
			S72,26.8,71.9,27c-0.1,0.2-0.1,0.3-0.2,0.4c-0.1,0.1-0.1,0.2-0.1,0.2c-0.4,0-0.8,0.1-1.2,0.2s-0.8,0.2-1.2,0.3
			c-0.2,0.1-0.4,0.1-0.7,0.2c-0.2,0.1-0.5,0.2-0.7,0.3c-0.3,0.1-0.5,0.2-0.7,0.3c-0.2,0.1-0.4,0.2-0.6,0.3c-0.1,0-0.1,0-0.1-0.1
			c0-0.2,0.1-0.4,0.2-0.6C66.5,28.4,66.6,28.2,66.7,28.1z"/>
		<path class="st0" d="M73.6,17.1c0-0.3,0.1-0.5,0.2-0.7s0.2-0.5,0.3-0.7c0,0,0-0.1,0.1-0.1c0,0,0.1,0,0.1,0.1
			c0.1,0.4,0.2,0.8,0.3,1.2s0.2,0.8,0.2,1.3c0.1,0.5,0.1,1,0.2,1.5c0.1,0.6,0.1,1.2,0.2,1.9c0,0.5,0.1,1,0.1,1.4
			c0,0.4,0.1,0.7,0.1,1s0.1,0.6,0.1,0.8s0.1,0.5,0.1,0.8c0.1,0.3,0.1,0.6,0.3,0.9s0.3,0.5,0.4,0.6c0.2,0.2,0.4,0.3,0.7,0.4
			c0.3,0.1,0.6,0.1,0.9,0.1h0.1c0.2,0,0.4,0.1,0.5,0.3c0.1,0.2,0.2,0.4,0.2,0.6s-0.1,0.4-0.2,0.6c-0.1,0.2-0.3,0.3-0.5,0.3h-0.1
			c-0.5,0-1-0.1-1.3-0.3c-0.4-0.2-0.7-0.4-0.9-0.7s-0.4-0.6-0.6-1c-0.1-0.4-0.2-0.8-0.3-1.2c-0.1-0.4-0.1-0.8-0.2-1.2
			s-0.1-0.8-0.1-1.2s-0.1-0.8-0.1-1.2c0-0.4-0.1-0.7-0.1-1.1c-0.1-0.6-0.2-1.2-0.3-1.9c-0.1-0.6-0.2-1.3-0.4-2
			C73.6,17.2,73.6,17.2,73.6,17.1C73.6,17.1,73.6,17.1,73.6,17.1z"/>
		<path class="st0" d="M85.7,15.8c-0.3,0.2-0.7,0.3-1.1,0.5s-0.8,0.3-1.1,0.5c-0.4,0.2-0.7,0.3-1,0.5c-0.3,0.1-0.6,0.3-0.8,0.4
			c0,0-0.1,0-0.1,0c0,0,0-0.1,0-0.1c0,0,0.1-0.1,0.1-0.2s0.1-0.2,0.2-0.3c0.1-0.1,0.1-0.2,0.2-0.3s0.1-0.1,0.1-0.2
			c0.1-0.1,0.1-0.2,0.2-0.2l3.9-1.7c0.1,0,0.1,0,0.1,0.1c0,0.1-0.1,0.1-0.1,0.2s-0.1,0.2-0.1,0.3s-0.1,0.2-0.1,0.3
			c0,0.1-0.1,0.2-0.1,0.2C85.8,15.6,85.8,15.7,85.7,15.8z"/>
		<path class="st0" d="M85.1,25.7c0.1-0.1,0.2-0.2,0.3-0.2c0.1,0,0.1,0.1,0.1,0.3c0,0.1-0.1,0.3-0.1,0.4c-0.1,0.2-0.1,0.3-0.2,0.5
			c0,0.1,0.2,0.2,0.3,0.3c0.2,0.1,0.4,0.2,0.6,0.3s0.4,0.1,0.6,0.2s0.4,0,0.5,0c0.1,0,0.2-0.1,0.3-0.2s0.2-0.3,0.3-0.4
			c0.1-0.2,0.2-0.3,0.2-0.5s0.1-0.4,0.2-0.6c0.1-0.2,0.1-0.3,0.2-0.4c0.1,0,0.1,0,0.2,0.2c0,0.3,0.1,0.6,0.2,0.9s0.2,0.4,0.4,0.6
			c0.2,0.2,0.4,0.3,0.7,0.3c0.3,0.1,0.6,0.1,1.1,0.1H91c0.2,0,0.4,0.1,0.5,0.3c0.1,0.2,0.2,0.4,0.2,0.6s-0.1,0.4-0.2,0.6
			c-0.1,0.2-0.3,0.3-0.5,0.3h-0.2c-0.5,0-0.9,0-1.2-0.1c-0.3-0.1-0.6-0.2-0.9-0.4c-0.2-0.1-0.4-0.3-0.6-0.5
			c-0.1-0.2-0.3-0.4-0.3-0.5c0,0.1-0.1,0.2-0.2,0.4c-0.1,0.2-0.2,0.3-0.3,0.4c-0.1,0.1-0.2,0.3-0.3,0.4s-0.2,0.1-0.4,0.1
			c-0.2,0-0.4,0-0.6-0.1s-0.4-0.1-0.7-0.2c-0.2-0.1-0.4-0.2-0.7-0.3c-0.2-0.1-0.4-0.3-0.5-0.5c-0.2,0.3-0.5,0.5-0.8,0.7
			c-0.3,0.2-0.6,0.3-1,0.4c-0.3,0.1-0.7,0.1-1.1,0c-0.4-0.1-0.8-0.2-1.1-0.4c-0.2,0.1-0.4,0.2-0.6,0.3c-0.2,0.1-0.4,0.1-0.6,0.2
			c-0.2,0-0.4,0.1-0.6,0.1c-0.2,0-0.4,0-0.5,0h-0.2c-0.2,0-0.4-0.1-0.5-0.3c-0.1-0.2-0.2-0.4-0.2-0.6s0.1-0.4,0.2-0.6
			c0.1-0.2,0.3-0.3,0.5-0.3h0.2c0.4,0,0.8,0,1.1,0c0.3,0,0.7-0.1,1-0.2c0.3-0.1,0.6-0.3,0.9-0.5c0.3-0.2,0.5-0.5,0.8-0.9
			c0.1-0.1,0.1-0.2,0.2-0.2c0.1,0,0.1,0.1,0.1,0.3c0,0.2-0.1,0.5-0.2,0.8c-0.1,0.3-0.2,0.5-0.4,0.7c0.1,0,0.3,0.1,0.5,0.1
			c0.2,0,0.4,0,0.6,0c0.2,0,0.4,0,0.6-0.1c0.2,0,0.4-0.1,0.6-0.2c0.3-0.1,0.5-0.3,0.8-0.6C84.6,26.3,84.8,26,85.1,25.7z M85.9,23.3
			C85.9,23.3,85.8,23.3,85.9,23.3c-0.1,0.1-0.1,0.1-0.2,0l-1.2-1l-0.8,1.1c0,0.1-0.1,0.1-0.2,0l-1.3-1c0,0-0.1-0.1,0-0.1l0.8-1.2
			c0,0,0.1-0.1,0.1-0.1c0,0,0,0,0.1,0l1.2,0.9l0.8-1.1c0-0.1,0.1-0.1,0.1,0l1.3,1.1c0,0,0,0.1,0,0.1L85.9,23.3z M84,18.9l1.3,1
			c0.1,0,0.1,0.1,0,0.1l-0.8,1c0,0.1-0.1,0.1-0.2,0l-1.3-1c-0.1,0-0.1-0.1,0-0.2l0.9-1C83.9,18.9,83.9,18.9,84,18.9z"/>
		<path class="st0" d="M96.7,31.7c-0.7,0.3-1.4,0.5-2,0.7s-1.3,0.5-1.9,0.7c-0.1,0-0.1,0-0.1-0.1c0.1-0.1,0.1-0.3,0.2-0.4
			s0.1-0.3,0.2-0.4c0-0.1,0.1-0.1,0.2-0.2c0.2-0.1,0.4-0.2,0.7-0.3c0.3-0.1,0.6-0.2,1-0.4c0.4-0.1,0.7-0.3,1.1-0.4s0.8-0.3,1.1-0.4
			c0.1,0,0.1,0,0.1,0.1c0,0.1-0.1,0.1-0.1,0.2c0,0.1-0.1,0.2-0.1,0.2c0,0.1-0.1,0.2-0.1,0.2c0,0.1-0.1,0.1-0.1,0.2
			C96.8,31.6,96.8,31.6,96.7,31.7C96.7,31.7,96.7,31.7,96.7,31.7z"/>
		<path class="st0" d="M99.7,27.1c-0.4,0.1-0.9,0.3-1.4,0.4c-0.5,0.1-1,0.3-1.6,0.5c-0.6,0.2-1.1,0.3-1.7,0.4s-1.1,0.3-1.6,0.4
			c-0.5,0.1-1,0.2-1.5,0.3c-0.4,0.1-0.8,0.1-1.1,0.1h-0.2c-0.2,0-0.4-0.1-0.5-0.3C90,28.7,90,28.5,90,28.3s0.1-0.4,0.2-0.6
			c0.1-0.2,0.3-0.3,0.5-0.3h0.2c0.2,0,0.3,0,0.6,0s0.4,0,0.7,0c0.2,0,0.4,0,0.7-0.1c0.2,0,0.4-0.1,0.6-0.1c-0.2-0.1-0.3-0.2-0.5-0.4
			c-0.2-0.2-0.3-0.3-0.4-0.5s-0.2-0.4-0.3-0.6c-0.1-0.2-0.2-0.5-0.2-0.7c-0.1-0.4,0-0.9,0.1-1.3s0.4-0.9,0.6-1.2
			c0.3-0.4,0.6-0.7,1-1c0.4-0.3,0.8-0.4,1.2-0.5c0.5-0.1,1-0.1,1.4,0c0.4,0.1,0.8,0.2,1.1,0.4c0.3,0.2,0.6,0.4,0.9,0.6
			c0.2,0.2,0.4,0.5,0.6,0.7c0,0,0,0.1,0,0.1c0,0,0,0.1-0.1,0.1c0,0-0.1,0-0.1,0c0,0-0.1,0-0.1,0c-0.2-0.1-0.4-0.2-0.7-0.3
			c-0.2-0.1-0.4-0.1-0.7-0.2c-0.2,0-0.5-0.1-0.7-0.1s-0.5,0-0.8,0c-0.3,0-0.5,0.1-0.8,0.1c-0.3,0.1-0.5,0.1-0.8,0.2
			c-0.3,0.1-0.5,0.2-0.7,0.3c-0.2,0.1-0.4,0.3-0.5,0.4c0,0.1,0,0.3,0.1,0.4s0.1,0.3,0.2,0.5c0.1,0.2,0.2,0.4,0.3,0.5
			s0.2,0.3,0.4,0.5c0.1,0.1,0.3,0.3,0.5,0.4s0.3,0.3,0.5,0.4c0.2,0.1,0.3,0.2,0.5,0.3s0.3,0.1,0.4,0.1c0.9-0.2,1.7-0.4,2.6-0.6
			c0.9-0.2,1.7-0.5,2.5-0.7c0.1,0,0.1,0,0.1,0c-0.2,0.4-0.4,0.7-0.6,1C100.1,26.6,99.9,26.9,99.7,27.1z"/>
		<path d="M111,17.8c0,0.2,0,0.5-0.1,0.7c-0.1,0.2-0.2,0.4-0.3,0.6c-0.1,0.2-0.3,0.3-0.5,0.4c-0.2,0.1-0.4,0.1-0.7,0.1
			c-0.4,0-0.7-0.1-0.9-0.3c-0.2-0.2-0.4-0.5-0.4-0.9c0-0.2,0-0.4,0.1-0.7s0.1-0.5,0.3-0.8c0.1-0.3,0.3-0.5,0.5-0.7
			c0.2-0.2,0.4-0.3,0.7-0.3c0.3,0,0.5,0,0.6,0.2c0.2,0.1,0.3,0.3,0.4,0.5s0.2,0.4,0.2,0.6C111,17.4,111,17.6,111,17.8z M109.5,17
			c-0.1,0-0.2,0.1-0.3,0.1s-0.2,0.2-0.3,0.3c-0.1,0.1-0.1,0.2-0.2,0.3s-0.1,0.2-0.1,0.3s0,0.2,0.1,0.3c0.1,0.1,0.1,0.1,0.2,0.1
			c0.1,0,0.2,0.1,0.3,0.1c0.1,0,0.2,0,0.3,0c0.4,0,0.7-0.2,1-0.4c0-0.1,0-0.2,0-0.4s-0.1-0.3-0.2-0.4c-0.1-0.1-0.2-0.2-0.3-0.3
			S109.6,17,109.5,17z"/>
		<path d="M110.5,25.6c0.1,0,0.2,0,0.3,0.1c0.1,0.1,0.2,0.2,0.3,0.3c0.1,0.1,0.2,0.2,0.4,0.4c0.1,0.1,0.3,0.3,0.4,0.4
			c0.2,0.2,0.4,0.3,0.6,0.4c0.2,0.1,0.5,0.2,0.7,0.2c0.2,0.1,0.5,0.1,0.8,0.1c0.3,0,0.5,0,0.8,0h0.2c0.2,0,0.4,0.1,0.5,0.3
			c0.1,0.2,0.2,0.4,0.2,0.6s-0.1,0.4-0.2,0.6c-0.1,0.2-0.3,0.3-0.5,0.3h-0.2c-0.3,0-0.7,0-1.1,0s-0.9-0.1-1.4-0.2
			c0,0.2-0.1,0.4-0.1,0.5s-0.1,0.3-0.2,0.3c-0.3,0.1-0.6,0.1-0.9,0s-0.7-0.2-1.1-0.3c-0.4-0.1-0.7-0.3-1-0.5
			c-0.3-0.2-0.5-0.3-0.6-0.5c-0.1,0.1-0.3,0.1-0.4,0.2s-0.3,0.2-0.4,0.4c-0.1,0.1-0.2,0.3-0.3,0.4c-0.1,0.2-0.1,0.3-0.1,0.5
			c0,0.3,0,0.6,0.1,1c0.1,0.4,0.1,0.9,0.2,1.3s0.1,0.9,0.2,1.4s0.1,0.8,0.2,1.2c0,0.3,0.1,0.6,0.1,0.9s0.1,0.7,0.1,1s0,0.7,0,1
			c0,0.3,0,0.5-0.1,0.7c0,0.1-0.1,0.1-0.1,0.1c0,0-0.1,0-0.1-0.1c0-0.1-0.1-0.3-0.1-0.4s-0.1-0.3-0.1-0.4c0-0.1-0.1-0.4-0.1-0.8
			c0-0.4-0.1-0.9-0.2-1.6c-0.2-1.3-0.4-2.3-0.5-3.1c-0.1-0.8-0.2-1.4-0.2-1.9c0-0.6,0-1.2,0.2-1.6c0.2-0.4,0.4-0.8,0.7-1.1
			c0.1-0.1,0.2-0.2,0.3-0.3c0.2-0.1,0.3-0.3,0.5-0.4c0.2-0.1,0.4-0.3,0.6-0.4c0.2-0.2,0.4-0.3,0.6-0.4s0.4-0.2,0.5-0.3
			C110.2,25.6,110.4,25.6,110.5,25.6z M110.3,26.7c-0.2,0-0.4,0-0.6,0.1c-0.2,0.1-0.4,0.2-0.5,0.3c0,0,0,0,0,0.1c0,0,0,0.1,0.1,0.1
			c0.2,0.1,0.3,0.2,0.6,0.3c0.2,0.1,0.4,0.2,0.7,0.2c0.2,0.1,0.4,0.1,0.6,0.1c0.2,0,0.3,0,0.4,0c-0.1-0.2-0.2-0.3-0.3-0.5
			c-0.1-0.2-0.2-0.3-0.4-0.4s-0.2-0.2-0.3-0.3C110.4,26.7,110.3,26.7,110.3,26.7z"/>
		<path d="M116.5,18.4c-0.1,0-0.1-0.1,0-0.1c0.1-0.1,0.1-0.1,0.3-0.2c0.2-0.2,0.4-0.3,0.7-0.4c0.2-0.1,0.4-0.3,0.6-0.4
			c0.2-0.1,0.4-0.3,0.6-0.5c0.2-0.2,0.4-0.4,0.6-0.6c-0.2-0.1-0.4-0.1-0.6-0.3c-0.2-0.1-0.4-0.3-0.5-0.4c-0.1-0.1-0.1-0.2-0.1-0.3
			c0-0.1,0-0.2,0-0.3c0.1-0.2,0.1-0.3,0.2-0.5c0.1-0.2,0.2-0.4,0.3-0.5c0.1-0.2,0.3-0.3,0.4-0.4s0.3-0.1,0.5-0.1
			c0.1,0,0.2,0.1,0.3,0.1c0.1,0.1,0.2,0.2,0.2,0.3s0.1,0.3,0.1,0.5c0,0.2,0,0.3,0,0.5s0,0.3,0,0.5s0,0.2-0.1,0.3c0,0,0,0.1,0.1,0.1
			c0.1,0,0.1,0.1,0.2,0.1s0.1,0.1,0.1,0.2c0,0.1,0,0.2,0,0.4s-0.1,0.3-0.1,0.3c0,0.1-0.1,0.1-0.1,0.1s-0.1,0-0.1-0.1
			c0,0-0.1-0.1-0.1-0.1c0,0-0.1-0.1-0.1-0.1c-0.2,0.3-0.4,0.5-0.6,0.7s-0.4,0.4-0.6,0.5c-0.2,0.1-0.4,0.3-0.7,0.4
			c-0.2,0.1-0.5,0.2-0.8,0.4c-0.1,0-0.2,0.1-0.4,0.1C116.6,18.4,116.5,18.4,116.5,18.4z M118.6,14.6c0.1,0.2,0.3,0.4,0.5,0.5
			c0.2,0.1,0.4,0.2,0.5,0.2h0c0-0.1,0-0.1,0-0.2s0-0.2,0-0.3c0-0.1,0-0.2,0-0.3s-0.1-0.2-0.1-0.2c-0.1,0-0.1-0.1-0.2-0.1
			c-0.1,0-0.2,0-0.3,0.1s-0.2,0.1-0.3,0.1C118.7,14.5,118.6,14.6,118.6,14.6z"/>
		<path d="M117.7,22.9c-0.1,0-0.1-0.1-0.2-0.1c0,0-0.1-0.1-0.2-0.1c0,0-0.1,0-0.1-0.1s0,0,0-0.1c0-0.2,0-0.3,0.1-0.4
			c0-0.1,0-0.2,0-0.3c0-0.1,0-0.2,0-0.3c0-0.1,0-0.2,0.1-0.3s0.1-0.2,0.2-0.2s0.2,0,0.3,0c0.3,0.1,0.6,0.3,0.9,0.5
			c0.4,0.2,0.7,0.4,1.1,0.6c0.4,0.2,0.7,0.5,1.1,0.7c0.4,0.3,0.7,0.5,1,0.8c0.3,0.3,0.6,0.6,0.8,0.9c0.2,0.3,0.3,0.7,0.4,1
			c0,0.2,0.1,0.5,0,0.7c0,0.2,0,0.5-0.1,0.7c-0.1,0.2-0.2,0.4-0.3,0.6c-0.1,0.2-0.3,0.4-0.5,0.5c-0.2,0.1-0.3,0.2-0.4,0.2
			s-0.3,0-0.4,0c-0.2,0-0.5-0.1-0.7-0.1c-0.3,0-0.5-0.1-0.8-0.2c-0.3-0.1-0.6-0.1-0.9-0.2c-0.3-0.1-0.6-0.1-0.8-0.2
			c-0.5,0.5-1.1,0.9-1.7,1.1c-0.6,0.3-1.2,0.4-1.9,0.4h-0.2c-0.2,0-0.4-0.1-0.5-0.3c-0.1-0.2-0.2-0.4-0.2-0.6s0.1-0.4,0.2-0.6
			c0.1-0.2,0.3-0.3,0.5-0.3h0.2c0.1,0,0.3,0,0.4,0c0.2,0,0.4,0,0.6-0.1c0.2,0,0.4-0.1,0.6-0.1c0.2-0.1,0.4-0.1,0.5-0.2
			c-0.1-0.1-0.2-0.3-0.3-0.5s-0.1-0.5-0.1-0.7c0-0.3,0.1-0.5,0.1-0.8c0.1-0.3,0.2-0.5,0.3-0.8s0.2-0.5,0.4-0.7
			C117.5,23.3,117.6,23.1,117.7,22.9z M118.6,26.1c0.1,0,0.2,0,0.3-0.1c0.1-0.1,0.3-0.2,0.4-0.3c0.1-0.1,0.2-0.2,0.3-0.3
			c0.1-0.1,0.1-0.2,0.1-0.2c0-0.1,0-0.3-0.1-0.5c-0.1-0.2-0.2-0.3-0.3-0.5c-0.1-0.2-0.3-0.3-0.4-0.4c-0.2-0.1-0.3-0.2-0.4-0.2
			c-0.1,0-0.2,0.1-0.4,0.2s-0.3,0.2-0.4,0.4s-0.2,0.3-0.3,0.5c-0.1,0.2-0.1,0.4-0.1,0.5c0,0.1,0.1,0.2,0.2,0.3s0.2,0.2,0.4,0.2
			c0.1,0.1,0.3,0.1,0.4,0.2C118.4,26,118.5,26.1,118.6,26.1z M122.7,26.4c0-0.1,0-0.3-0.1-0.4s-0.2-0.3-0.3-0.4s-0.3-0.3-0.5-0.5
			c-0.2-0.2-0.3-0.3-0.5-0.4c-0.2-0.1-0.3-0.3-0.5-0.4c-0.2-0.1-0.3-0.2-0.4-0.3c0,0-0.1,0-0.1,0c0,0,0,0,0,0.1
			c0.1,0.4,0.1,0.7,0.1,1.1c0,0.4-0.1,0.7-0.3,1c-0.1,0.1-0.1,0.1,0,0.1c0.2,0,0.3,0.1,0.6,0.1c0.2,0,0.4,0.1,0.6,0.1
			c0.2,0,0.4,0.1,0.6,0.1c0.2,0,0.4,0,0.6,0C122.7,26.6,122.7,26.5,122.7,26.4z"/>
		<path d="M124.9,17.1c0-0.3,0.1-0.5,0.2-0.7s0.2-0.5,0.3-0.7c0,0,0-0.1,0.1-0.1c0,0,0.1,0,0.1,0.1c0.1,0.4,0.2,0.8,0.3,1.2
			s0.2,0.8,0.2,1.3c0.1,0.5,0.1,1,0.2,1.5c0.1,0.6,0.1,1.2,0.2,1.9c0,0.5,0.1,1,0.1,1.4c0,0.4,0.1,0.7,0.1,1s0.1,0.6,0.1,0.8
			s0.1,0.5,0.1,0.8c0.1,0.3,0.1,0.6,0.3,0.9s0.3,0.5,0.4,0.6c0.2,0.2,0.4,0.3,0.7,0.4c0.3,0.1,0.6,0.1,0.9,0.1h0.1
			c0.2,0,0.4,0.1,0.5,0.3c0.1,0.2,0.2,0.4,0.2,0.6s-0.1,0.4-0.2,0.6c-0.1,0.2-0.3,0.3-0.5,0.3h-0.1c-0.5,0-1-0.1-1.3-0.3
			c-0.4-0.2-0.7-0.4-0.9-0.7s-0.4-0.6-0.6-1c-0.1-0.4-0.2-0.8-0.3-1.2c-0.1-0.4-0.1-0.8-0.2-1.2s-0.1-0.8-0.1-1.2s-0.1-0.8-0.1-1.2
			c0-0.4-0.1-0.7-0.1-1.1c-0.1-0.6-0.2-1.2-0.3-1.9c-0.1-0.6-0.2-1.3-0.4-2C124.9,17.2,124.9,17.2,124.9,17.1
			C124.9,17.1,124.9,17.1,124.9,17.1z"/>
		<path d="M133,17.8c-0.3,0.2-0.7,0.3-1.1,0.5s-0.8,0.3-1.1,0.5c-0.4,0.2-0.7,0.3-1,0.5c-0.3,0.1-0.6,0.3-0.8,0.4c0,0-0.1,0-0.1,0
			c0,0,0-0.1,0-0.1c0,0,0.1-0.1,0.1-0.2s0.1-0.2,0.2-0.3c0.1-0.1,0.1-0.2,0.2-0.3s0.1-0.1,0.1-0.2c0.1-0.1,0.1-0.2,0.2-0.2l3.9-1.7
			c0.1,0,0.1,0,0.1,0.1c0,0.1-0.1,0.1-0.1,0.2s-0.1,0.2-0.1,0.3s-0.1,0.2-0.1,0.3c0,0.1-0.1,0.2-0.1,0.2
			C133.2,17.7,133.1,17.8,133,17.8z"/>
		<path d="M131.7,23.5C131.7,23.4,131.8,23.4,131.7,23.5c0.1-0.1,0.2-0.1,0.2,0c0.2,0.2,0.4,0.4,0.5,0.6s0.3,0.5,0.4,0.7
			c0.1,0.2,0.2,0.5,0.3,0.8c0.1,0.3,0.1,0.5,0.1,0.8c0,0.1,0,0.2,0,0.4c0,0.1,0,0.3-0.1,0.4c0,0.1-0.1,0.3-0.1,0.4s-0.1,0.2-0.2,0.3
			c-0.2,0.2-0.4,0.4-0.7,0.6c-0.3,0.2-0.6,0.3-1,0.3c-0.3,0.1-0.7,0.1-1.1,0.1c-0.4,0-0.7,0-1,0h-0.2c-0.2,0-0.4-0.1-0.5-0.3
			c-0.1-0.2-0.2-0.4-0.2-0.6s0.1-0.4,0.2-0.6c0.1-0.2,0.3-0.3,0.5-0.3h0.2c0.2,0,0.4,0,0.7,0c0.3,0,0.6,0,0.9,0
			c0.3,0,0.6-0.1,0.9-0.1c0.3-0.1,0.5-0.1,0.7-0.2c0.1-0.1,0.2-0.2,0.1-0.3c-0.1-0.4-0.3-0.7-0.5-1c-0.2-0.3-0.5-0.6-0.8-0.9
			c0.1-0.2,0.1-0.5,0.2-0.7C131.6,24,131.6,23.7,131.7,23.5z M130.8,31.1l1.3,1c0.1,0,0.1,0.1,0,0.2l-0.8,1.1c0,0.1-0.1,0.1-0.2,0
			l-1.3-1c-0.1,0-0.1-0.1,0-0.2l0.9-1C130.7,31.1,130.8,31.1,130.8,31.1z"/>
		<path d="M138.3,8.6c-0.3,0.2-0.7,0.3-1.1,0.5s-0.8,0.3-1.1,0.5c-0.4,0.2-0.7,0.3-1,0.5c-0.3,0.1-0.6,0.3-0.8,0.4c0,0-0.1,0-0.1,0
			c0,0,0-0.1,0-0.1c0,0,0.1-0.1,0.1-0.2s0.1-0.2,0.2-0.3c0.1-0.1,0.1-0.2,0.2-0.3s0.1-0.1,0.1-0.2c0.1-0.1,0.1-0.2,0.2-0.2l3.9-1.7
			c0.1,0,0.1,0,0.1,0.1c0,0.1-0.1,0.1-0.1,0.2s-0.1,0.2-0.1,0.3s-0.1,0.2-0.1,0.3c0,0.1-0.1,0.2-0.1,0.2
			C138.4,8.5,138.4,8.5,138.3,8.6z"/>
		<path d="M134.8,14.4c0,0,0.1-0.1,0.2-0.1c0.1,0,0.2-0.1,0.2-0.1s0.2-0.1,0.2-0.1c0.1,0,0.1-0.1,0.2-0.1c-0.2-0.1-0.3-0.3-0.4-0.4
			c-0.1-0.1-0.2-0.3-0.3-0.6c0-0.1,0-0.2,0-0.3s0.1-0.2,0.1-0.3c0.1-0.2,0.2-0.3,0.4-0.5s0.3-0.3,0.5-0.5s0.3-0.3,0.5-0.3
			c0.2-0.1,0.4-0.1,0.6-0.1c0.1,0,0.2,0,0.2,0.1c0.1,0.1,0.1,0.1,0.2,0.2c0.1,0.1,0.1,0.1,0.1,0.2s0.1,0.2,0.1,0.2
			c0,0.2,0,0.3,0,0.4l-0.2,0.3c-0.1,0.2-0.2,0.2-0.3,0.2c-0.1,0-0.1,0-0.1-0.1s0-0.2-0.1-0.3c-0.1-0.1-0.1-0.2-0.2-0.2
			s-0.2-0.1-0.3-0.1c-0.3,0-0.6,0.1-0.9,0.4c0.1,0.3,0.2,0.5,0.5,0.7c0.2,0.2,0.4,0.3,0.7,0.4c0.3,0,0.7,0,1,0s0.7-0.1,1-0.2
			c0,0,0,0.1,0,0.2s-0.1,0.2-0.1,0.3c0,0.1-0.1,0.2-0.1,0.3c0,0.1-0.1,0.1-0.1,0.1c-0.3,0-0.6,0.1-0.9,0.1c-0.3,0.1-0.6,0.1-0.9,0.2
			c-0.3,0.1-0.7,0.2-1,0.4c-0.4,0.2-0.7,0.3-1,0.5c-0.1,0-0.1,0-0.1-0.1c0-0.1,0.1-0.3,0.1-0.4C134.7,14.6,134.7,14.5,134.8,14.4z
			 M136.3,16c0,0,0.1,0,0.1,0s0,0.1,0,0.1s0,0.1,0,0.1c0,0,0,0.1,0,0.1c0,0.3,0,0.5,0,0.7c0,0.2,0,0.5,0.1,0.7
			c0.1,0.6,0.2,1.2,0.2,1.9c0.1,0.6,0.2,1.3,0.3,1.9c0.1,0.6,0.2,1.3,0.3,1.9c0.1,0.6,0.2,1.3,0.2,1.9c0,0.2,0,0.5,0.1,0.8
			c0,0.3,0,0.6,0,1s-0.1,0.6-0.1,0.9s-0.1,0.6-0.2,0.8c0,0.1-0.1,0.2-0.2,0.2c0,0-0.1,0-0.1-0.1c-0.1-1.2-0.2-2.4-0.4-3.6
			c-0.2-1.3-0.4-2.5-0.5-3.8c-0.2-1.3-0.3-2.5-0.5-3.8c0-0.3,0.1-0.6,0.3-1c0.1-0.2,0.2-0.4,0.2-0.5S136.2,16.1,136.3,16z"/>
		<path d="M145.1,15.8c0,0,0.1,0,0.1,0c0,0,0,0.1,0,0.1s0,0.1,0,0.1s0,0.1,0,0.1c0,0.3,0,0.5,0,0.8c0,0.2,0,0.5,0.1,0.7
			c0.1,0.6,0.2,1.2,0.2,1.9s0.2,1.3,0.3,2c0.1,0.7,0.2,1.3,0.3,2c0.1,0.7,0.2,1.3,0.2,1.9c0,0.2,0,0.5,0.1,0.8c0,0.3,0,0.6,0,1
			c0,0.3-0.1,0.6-0.1,1s-0.1,0.6-0.2,0.8c0,0.1-0.1,0.2-0.2,0.2c0,0-0.1,0-0.1-0.1c-0.1-1.2-0.2-2.4-0.4-3.6
			c-0.2-1.3-0.4-2.6-0.5-3.8c-0.2-1.3-0.3-2.6-0.5-3.8c0-0.3,0.1-0.7,0.3-1c0.1-0.2,0.2-0.4,0.2-0.5C144.9,16,145,15.9,145.1,15.8z"
			/>
		<path d="M153.3,27.2c-0.1,0.3-0.3,0.5-0.5,0.7c-0.3,0.2-0.6,0.3-0.9,0.3c-0.2,0-0.4,0-0.5-0.1s-0.3-0.2-0.4-0.4
			c-0.1-0.2-0.2-0.3-0.3-0.5c-0.1-0.2-0.1-0.4-0.1-0.6c0-0.1,0-0.3,0.1-0.5c0-0.2,0.1-0.4,0.2-0.6c0.1-0.2,0.2-0.4,0.3-0.6
			c0.1-0.2,0.2-0.4,0.3-0.5s0.3-0.3,0.4-0.4c0.1-0.1,0.3-0.1,0.4-0.1c0.3,0,0.5,0.1,0.7,0.3c0.2,0.2,0.4,0.5,0.6,0.8
			c0.2,0.3,0.3,0.7,0.4,1.1s0.1,0.8,0.1,1.1c0,0.5-0.1,1-0.2,1.5c-0.1,0.5-0.3,1.1-0.5,1.6c-0.2,0.5-0.4,1-0.7,1.4
			c-0.3,0.5-0.5,0.8-0.8,1.2c-0.3,0.3-0.6,0.5-0.9,0.7c-0.3,0.2-0.7,0.4-1,0.5c-0.4,0.1-0.7,0.2-1.1,0.2c-0.4,0-0.8,0.1-1.1,0
			c-0.4,0-0.8-0.1-1.2-0.1s-0.8-0.2-1.2-0.3c-0.1,0-0.1-0.1-0.1-0.1c0-0.1,0-0.1,0-0.2c0-0.1,0.1-0.1,0.1-0.1s0.1,0,0.2,0
			c0.6,0.1,1.1,0.1,1.6,0c0.5-0.1,1.1-0.2,1.6-0.4c0.4-0.2,0.8-0.4,1.2-0.6c0.4-0.2,0.8-0.5,1.1-0.9c0.3-0.2,0.5-0.5,0.8-0.8
			c0.2-0.3,0.5-0.6,0.7-1c0.2-0.3,0.4-0.7,0.5-1c0.1-0.3,0.2-0.6,0.3-0.9c0-0.1,0-0.1,0-0.2s0-0.2,0-0.2c0-0.1,0-0.2-0.1-0.2
			C153.3,27.3,153.3,27.3,153.3,27.2z M152.9,26.3c0,0,0-0.1-0.1-0.2c-0.1-0.1-0.1-0.2-0.2-0.3c-0.1-0.1-0.2-0.2-0.3-0.3
			s-0.2-0.1-0.4-0.1c-0.1,0-0.2,0-0.3,0.1c-0.1,0.1-0.2,0.2-0.2,0.2c-0.1,0.1-0.1,0.2-0.1,0.3s0,0.2,0,0.2c0.1,0.1,0.2,0.2,0.4,0.3
			s0.3,0.1,0.5,0.1c0.2,0,0.3-0.1,0.5-0.1C152.7,26.5,152.8,26.4,152.9,26.3z"/>
		<path d="M156.2,21c-0.1,0-0.1-0.1,0-0.1c0.1-0.1,0.1-0.1,0.3-0.2c0.2-0.2,0.4-0.3,0.7-0.4c0.2-0.1,0.4-0.3,0.6-0.4
			c0.2-0.1,0.4-0.3,0.6-0.5c0.2-0.2,0.4-0.4,0.6-0.6c-0.2-0.1-0.4-0.1-0.6-0.3c-0.2-0.1-0.4-0.3-0.5-0.4c-0.1-0.1-0.1-0.2-0.1-0.3
			c0-0.1,0-0.2,0-0.3c0.1-0.2,0.1-0.3,0.2-0.5c0.1-0.2,0.2-0.4,0.3-0.5c0.1-0.2,0.3-0.3,0.4-0.4s0.3-0.1,0.5-0.1
			c0.1,0,0.2,0.1,0.3,0.1c0.1,0.1,0.2,0.2,0.2,0.3s0.1,0.3,0.1,0.5c0,0.2,0,0.3,0,0.5s0,0.3,0,0.5s0,0.2-0.1,0.3c0,0,0,0.1,0.1,0.1
			c0.1,0,0.1,0.1,0.2,0.1s0.1,0.1,0.1,0.2c0,0.1,0,0.2,0,0.4s-0.1,0.3-0.1,0.3c0,0.1-0.1,0.1-0.1,0.1s-0.1,0-0.1-0.1
			c0,0-0.1-0.1-0.1-0.1c0,0-0.1-0.1-0.1-0.1c-0.2,0.3-0.4,0.5-0.6,0.7s-0.4,0.4-0.6,0.5c-0.2,0.1-0.4,0.3-0.7,0.4
			c-0.2,0.1-0.5,0.2-0.8,0.4c-0.1,0-0.2,0.1-0.4,0.1C156.4,21,156.3,21,156.2,21z M158.4,17.2c0.1,0.2,0.3,0.4,0.5,0.5
			c0.2,0.1,0.4,0.2,0.5,0.2h0c0-0.1,0-0.1,0-0.2s0-0.2,0-0.3c0-0.1,0-0.2,0-0.3s-0.1-0.2-0.1-0.2c-0.1,0-0.1-0.1-0.2-0.1
			c-0.1,0-0.2,0-0.3,0.1s-0.2,0.1-0.3,0.1C158.5,17.1,158.4,17.1,158.4,17.2z"/>
		<path d="M156.6,28.1c0.1-0.1,0.3-0.2,0.5-0.3c0.1-0.1,0.2-0.1,0.3-0.2c0.1-0.1,0.2-0.1,0.3-0.1c-0.2-0.2-0.4-0.4-0.6-0.6
			c-0.2-0.2-0.3-0.4-0.4-0.7c-0.1-0.3-0.1-0.5,0.1-0.8c0.1-0.2,0.3-0.5,0.5-0.7c0.2-0.2,0.4-0.4,0.6-0.6c0.2-0.2,0.5-0.4,0.8-0.5
			c0.3-0.1,0.5-0.2,0.8-0.2c0.1,0,0.2,0,0.3,0.1s0.2,0.2,0.2,0.3c0.1,0.1,0.1,0.2,0.2,0.3c0.1,0.1,0.1,0.2,0.1,0.3
			c0.1,0.2,0.1,0.4,0,0.5c0,0,0,0.1-0.1,0.2s-0.1,0.2-0.1,0.3s-0.1,0.2-0.2,0.2c-0.1,0.1-0.1,0.1-0.2,0.1c-0.1,0-0.1,0-0.1-0.1
			c0,0-0.1-0.1-0.1-0.1c0-0.1,0-0.1-0.1-0.2s0-0.1-0.1-0.2c-0.1-0.1-0.1-0.2-0.3-0.3s-0.2-0.1-0.4-0.1c-0.4,0-0.8,0.2-1.2,0.5
			c0.1,0.3,0.3,0.6,0.6,0.9c0.3,0.3,0.6,0.5,1,0.5c0.4,0.1,0.9,0.1,1.3,0s0.9-0.2,1.4-0.3c0,0,0,0.1,0,0.2s-0.1,0.3-0.2,0.4
			c-0.1,0.2-0.1,0.3-0.2,0.4c-0.1,0.1-0.1,0.2-0.1,0.2c-0.4,0-0.8,0.1-1.2,0.2s-0.8,0.2-1.2,0.3c-0.2,0.1-0.4,0.1-0.7,0.2
			c-0.2,0.1-0.5,0.2-0.7,0.3c-0.3,0.1-0.5,0.2-0.7,0.3c-0.2,0.1-0.4,0.2-0.6,0.3c-0.1,0-0.1,0-0.1-0.1c0-0.2,0.1-0.4,0.2-0.6
			C156.4,28.4,156.5,28.2,156.6,28.1z"/>
		<path d="M163.5,17.1c0-0.3,0.1-0.5,0.2-0.7s0.2-0.5,0.3-0.7c0,0,0-0.1,0.1-0.1c0,0,0.1,0,0.1,0.1c0.1,0.4,0.2,0.8,0.3,1.2
			s0.2,0.8,0.2,1.3c0.1,0.5,0.1,1,0.2,1.5c0.1,0.6,0.1,1.2,0.2,1.9c0,0.5,0.1,1,0.1,1.4c0,0.4,0.1,0.7,0.1,1s0.1,0.6,0.1,0.8
			s0.1,0.5,0.1,0.8c0.1,0.3,0.1,0.6,0.3,0.9s0.3,0.5,0.4,0.6c0.2,0.2,0.4,0.3,0.7,0.4c0.3,0.1,0.6,0.1,0.9,0.1h0.1
			c0.2,0,0.4,0.1,0.5,0.3c0.1,0.2,0.2,0.4,0.2,0.6s-0.1,0.4-0.2,0.6c-0.1,0.2-0.3,0.3-0.5,0.3h-0.1c-0.5,0-1-0.1-1.3-0.3
			c-0.4-0.2-0.7-0.4-0.9-0.7s-0.4-0.6-0.6-1c-0.1-0.4-0.2-0.8-0.3-1.2c-0.1-0.4-0.1-0.8-0.2-1.2s-0.1-0.8-0.1-1.2s-0.1-0.8-0.1-1.2
			c0-0.4-0.1-0.7-0.1-1.1c-0.1-0.6-0.2-1.2-0.3-1.9c-0.1-0.6-0.2-1.3-0.4-2C163.5,17.2,163.5,17.2,163.5,17.1
			C163.5,17.1,163.5,17.1,163.5,17.1z"/>
		<path d="M174.1,17c-0.3,0.2-0.7,0.3-1.1,0.5s-0.8,0.3-1.1,0.5c-0.4,0.2-0.7,0.3-1,0.5c-0.3,0.1-0.6,0.3-0.8,0.4c0,0-0.1,0-0.1,0
			c0,0,0-0.1,0-0.1c0,0,0.1-0.1,0.1-0.2s0.1-0.2,0.2-0.3c0.1-0.1,0.1-0.2,0.2-0.3s0.1-0.1,0.1-0.2c0.1-0.1,0.1-0.2,0.2-0.2l3.9-1.7
			c0.1,0,0.1,0,0.1,0.1c0,0.1-0.1,0.1-0.1,0.2s-0.1,0.2-0.1,0.3s-0.1,0.2-0.1,0.3c0,0.1-0.1,0.2-0.1,0.2
			C174.2,16.9,174.1,17,174.1,17z"/>
		<path d="M173.9,26.3c-0.2-0.1-0.4-0.2-0.7-0.3c-0.3-0.1-0.5-0.2-0.8-0.3c-0.3-0.1-0.6-0.2-0.8-0.3c-0.3-0.1-0.5-0.1-0.8-0.2
			c-0.4-0.1-0.8-0.1-1.1,0c-0.4,0.1-0.7,0.2-1.1,0.4c0,0-0.1,0-0.1,0c0,0-0.1-0.1-0.1-0.1c0-0.1,0-0.2,0.1-0.2s0.1-0.2,0.1-0.3
			c0-0.1,0.1-0.2,0.1-0.3s0.1-0.2,0.1-0.2c0.1-0.2,0.3-0.3,0.4-0.5c0.2-0.1,0.3-0.3,0.5-0.3c0.2-0.1,0.4-0.2,0.6-0.2
			c0.2,0,0.4,0,0.6,0c0.3,0.1,0.7,0.2,1.1,0.3c0.4,0.1,0.7,0.3,1.1,0.5s0.8,0.3,1.1,0.5c0.4,0.2,0.8,0.3,1.2,0.5
			c0.6,0.2,1.2,0.3,1.8,0.4s1.3,0.1,1.9,0.1c0.1,0,0.1,0,0.1,0.1c-0.1,0.2-0.2,0.5-0.4,0.7c-0.1,0.3-0.3,0.5-0.4,0.7
			c-0.3-0.1-0.7-0.2-1.1-0.2c-0.4,0-0.9,0-1.4,0c-0.5,0-0.9,0.1-1.5,0.3c-0.5,0.2-1.1,0.4-1.8,0.7c-0.3,0.1-0.7,0.2-1.1,0.4
			c-0.4,0.1-0.7,0.2-1.1,0.3c-0.4,0.1-0.8,0.2-1.3,0.2c-0.4,0.1-0.9,0.1-1.4,0.1h-0.2c-0.2,0-0.4-0.1-0.5-0.3
			c-0.1-0.2-0.2-0.4-0.2-0.6s0.1-0.4,0.2-0.6c0.1-0.2,0.3-0.3,0.5-0.3h0.2c0.3,0,0.6,0,1,0c0.4,0,0.9-0.1,1.4-0.2
			c0.5-0.1,1.1-0.2,1.7-0.4C172.6,26.8,173.2,26.6,173.9,26.3z M172.9,30.4l1.3,1c0.1,0,0.1,0.1,0,0.2l-0.8,1.1c0,0.1-0.1,0.1-0.2,0
			l-1.3-1c-0.1,0-0.1-0.1,0-0.2l0.9-1C172.8,30.4,172.9,30.4,172.9,30.4z"/>
		<path d="M183.5,19.1c-0.3,0.2-0.7,0.3-1.1,0.5s-0.8,0.3-1.1,0.5c-0.4,0.2-0.7,0.3-1,0.5c-0.3,0.1-0.6,0.3-0.8,0.4c0,0-0.1,0-0.1,0
			c0,0,0-0.1,0-0.1c0,0,0.1-0.1,0.1-0.2s0.1-0.2,0.2-0.3c0.1-0.1,0.1-0.2,0.2-0.3s0.1-0.1,0.1-0.2c0.1-0.1,0.1-0.2,0.2-0.2l3.9-1.7
			c0.1,0,0.1,0,0.1,0.1c0,0.1-0.1,0.1-0.1,0.2s-0.1,0.2-0.1,0.3s-0.1,0.2-0.1,0.3c0,0.1-0.1,0.2-0.1,0.2
			C183.7,19,183.6,19,183.5,19.1z"/>
		<path d="M184.3,27.2c-0.1,0.3-0.3,0.5-0.5,0.7c-0.3,0.2-0.6,0.3-0.9,0.3c-0.2,0-0.4,0-0.5-0.1s-0.3-0.2-0.4-0.4
			c-0.1-0.2-0.2-0.3-0.3-0.5c-0.1-0.2-0.1-0.4-0.1-0.6c0-0.1,0-0.3,0.1-0.5c0-0.2,0.1-0.4,0.2-0.6c0.1-0.2,0.2-0.4,0.3-0.6
			c0.1-0.2,0.2-0.4,0.3-0.5s0.3-0.3,0.4-0.4c0.1-0.1,0.3-0.1,0.4-0.1c0.3,0,0.5,0.1,0.7,0.3c0.2,0.2,0.4,0.5,0.6,0.8
			c0.2,0.3,0.3,0.7,0.4,1.1s0.1,0.8,0.1,1.1c0,0.5-0.1,1-0.2,1.5c-0.1,0.5-0.3,1.1-0.5,1.6c-0.2,0.5-0.4,1-0.7,1.4
			c-0.3,0.5-0.5,0.8-0.8,1.2c-0.3,0.3-0.6,0.5-0.9,0.7c-0.3,0.2-0.7,0.4-1,0.5c-0.4,0.1-0.7,0.2-1.1,0.2c-0.4,0-0.8,0.1-1.1,0
			c-0.4,0-0.8-0.1-1.2-0.1s-0.8-0.2-1.2-0.3c-0.1,0-0.1-0.1-0.1-0.1c0-0.1,0-0.1,0-0.2c0-0.1,0.1-0.1,0.1-0.1s0.1,0,0.2,0
			c0.6,0.1,1.1,0.1,1.6,0c0.5-0.1,1.1-0.2,1.6-0.4c0.4-0.2,0.8-0.4,1.2-0.6c0.4-0.2,0.8-0.5,1.1-0.9c0.3-0.2,0.5-0.5,0.8-0.8
			c0.2-0.3,0.5-0.6,0.7-1c0.2-0.3,0.4-0.7,0.5-1c0.1-0.3,0.2-0.6,0.3-0.9c0-0.1,0-0.1,0-0.2s0-0.2,0-0.2c0-0.1,0-0.2-0.1-0.2
			C184.4,27.3,184.3,27.3,184.3,27.2z M183.9,26.3c0,0,0-0.1-0.1-0.2c-0.1-0.1-0.1-0.2-0.2-0.3c-0.1-0.1-0.2-0.2-0.3-0.3
			s-0.2-0.1-0.4-0.1c-0.1,0-0.2,0-0.3,0.1c-0.1,0.1-0.2,0.2-0.2,0.2c-0.1,0.1-0.1,0.2-0.1,0.3s0,0.2,0,0.2c0.1,0.1,0.2,0.2,0.4,0.3
			s0.3,0.1,0.5,0.1c0.2,0,0.3-0.1,0.5-0.1C183.8,26.5,183.9,26.4,183.9,26.3z"/>
	</g>
	<g>
		<path d="M198.4,26.5c0,0.1-0.1,0.2-0.2,0.3c-0.1,0.1-0.3,0.3-0.6,0.5c0,0.3,0,0.6-0.1,0.8c-0.1,0.2-0.2,0.3-0.3,0.3
			c-0.3-0.3-0.6-0.5-0.8-0.7c-0.3-0.2-0.6-0.3-0.9-0.4c0,0.3,0.2,0.6,0.4,0.9c0.2,0.3,0.5,0.5,0.7,0.8c0,0.1-0.2,0.3-0.7,0.3
			c-0.4,0.1-0.7,0.1-0.9,0.1c-0.4,1.1-0.9,2.1-1.5,3c-0.3,0.4-0.7,0.8-1.1,1.3c-0.6,0.6-1.1,0.9-1.4,0.9c-0.1,0-0.2-0.1-0.2-0.2
			c0-0.1,0.2-0.3,0.6-0.7c0.5-0.6,0.9-1.1,1.1-1.6c0.5-0.8,0.8-1.8,0.9-2.8c-0.3,0-0.5-0.1-0.6-0.1c-0.1,0-0.1-0.1-0.1-0.2
			c0.7-0.6,1.1-1.2,1.1-1.7c-0.3,0-0.6,0.1-0.9,0.3c-0.2,0.2-0.4,0.4-0.8,0.8c-0.1,0-0.2-0.1-0.3-0.4c-0.1-0.3-0.2-0.6-0.2-0.8
			c-0.3-0.2-0.5-0.3-0.5-0.3c-0.2-0.1-0.3-0.3-0.3-0.5c0-0.1,0.1-0.2,0.2-0.3c0.1-0.1,0.3-0.2,0.6-0.4c0-0.8,0.1-1.2,0.4-1.2
			c0.6,0.7,1.2,1,1.7,1.1c0-0.3-0.1-0.6-0.4-1c0,0-0.3-0.3-0.7-0.8c0-0.1,0.1-0.1,0.2-0.2c0.1-0.1,0.3-0.1,0.7-0.2
			c-0.2-0.8-0.5-1.7-1-2.5c-0.5-0.9-1.1-1.6-1.7-2.2c-0.1-0.1-0.2-0.2-0.2-0.2s0.1-0.1,0.2-0.1c0.2,0,0.5,0.2,1,0.5
			c1.4,1,2.4,2.5,3.2,4.5c1.1,0,1.6,0.1,1.6,0.4c-0.3,0.3-0.5,0.5-0.7,0.8c-0.2,0.3-0.3,0.6-0.3,1c0.2,0,0.5-0.1,0.8-0.4l0.8-0.8
			c0.2,0,0.3,0.4,0.4,1.1c0,0.1,0,0.1,0,0.2C198.1,26.1,198.4,26.3,198.4,26.5z M196,24c0,0-0.1-0.1-0.3-0.1c-0.2,0-0.3,0-0.4,0H195
			c-0.1,0-0.1,0-0.2,0c-0.3-0.9-0.7-1.8-1.3-2.7c-0.7-0.9-1.4-1.7-2.3-2.3c0.6,0.6,1.1,1.2,1.5,2c0.6,0.9,0.9,1.9,1.1,2.9
			c-0.4,0-0.6,0.1-0.6,0.2c0.4,0.4,0.8,0.7,1,1.1c0.1-0.2,0.1-0.3,0.2-0.6c0,0,0.1-0.1,0.1-0.3c0.1-0.1,0.1-0.2,0.1-0.2
			c0.1,0,0.3,0.3,0.6,1c0.1-0.3,0.3-0.5,0.4-0.7C195.7,24.4,195.8,24.2,196,24z M193.4,27.1c-0.1,0-0.4-0.1-0.8-0.3
			c-0.3-0.1-0.5-0.2-0.5-0.2c0,0,0.2-0.1,0.7-0.3c0.1,0,0.3-0.1,0.6-0.2c-0.3-0.1-0.5-0.2-0.7-0.4c-0.1-0.1-0.3-0.3-0.5-0.5
			c-0.1,0-0.1,0.3-0.1,0.9c-0.5,0.2-0.7,0.4-0.7,0.6c0,0.1,0.2,0.3,0.7,0.4c0,0.6,0.1,1,0.2,1c0,0,0.1-0.1,0.5-0.4
			C193,27.4,193.2,27.2,193.4,27.1z M196.1,29.1c-0.4-0.3-0.7-0.7-0.9-1.1c0,0.1-0.1,0.3-0.2,0.5c0,0-0.1,0.1-0.2,0.3
			c-0.1,0.1-0.1,0.2-0.2,0.2c0,0-0.1-0.1-0.1-0.2c-0.1-0.2-0.1-0.3-0.1-0.3c0-0.1-0.1-0.3-0.2-0.5c-0.1,0.2-0.2,0.4-0.4,0.6
			c-0.1,0.2-0.3,0.3-0.5,0.5c0,0,0.2,0.1,0.6,0.2c-0.2,1-0.4,1.6-0.5,1.8c-0.4,1.1-1,2.1-1.8,3.1c1.4-1,2.5-2.6,3.3-5
			c0.6,0,0.8,0,0.7,0C195.9,29.2,196.1,29.2,196.1,29.1z M195.6,26.6c0-0.3-0.1-0.5-0.3-0.7c-0.2-0.2-0.4-0.3-0.7-0.3
			c-0.3,0-0.5,0.1-0.7,0.3c-0.2,0.2-0.3,0.4-0.3,0.7c0,0.3,0.1,0.5,0.3,0.7c0.2,0.2,0.4,0.3,0.7,0.3c0.3,0,0.5-0.1,0.7-0.3
			C195.5,27.1,195.6,26.8,195.6,26.6z M198,26.5c0-0.1-0.1-0.1-0.2-0.2c-0.1-0.1-0.3-0.2-0.5-0.2c0-0.3,0-0.5-0.1-0.7
			c0-0.2-0.1-0.3-0.1-0.3c0,0-0.2,0.1-0.4,0.4c-0.2,0.3-0.5,0.4-0.8,0.6c0.1,0.1,0.3,0.1,0.6,0.3c0,0,0.2,0.1,0.4,0.2
			c0.2,0.1,0.3,0.1,0.3,0.2c0,0.1-0.2,0.1-0.5,0.2c-0.5,0.1-0.8,0.2-0.8,0.2c0.3,0.1,0.5,0.2,0.8,0.4c0.1,0.1,0.3,0.3,0.5,0.5
			c0.1,0,0.1-0.1,0.1-0.2c0-0.1,0-0.3,0-0.6C197.8,26.8,198,26.6,198,26.5z"/>
	</g>
	<g>
		<path d="M5.9,26.8c0-0.1,0.1-0.2,0.2-0.3c0.1-0.1,0.3-0.3,0.6-0.5c0-0.3,0-0.6,0.1-0.8c0.1-0.2,0.2-0.3,0.3-0.3
			c0.3,0.3,0.6,0.5,0.8,0.7c0.3,0.2,0.6,0.3,0.9,0.4c0-0.3-0.2-0.6-0.4-0.9c-0.2-0.3-0.5-0.5-0.7-0.8c0-0.1,0.2-0.3,0.7-0.3
			c0.4-0.1,0.7-0.1,0.9-0.1c0.4-1.1,0.9-2.1,1.5-3c0.3-0.4,0.7-0.8,1.1-1.3c0.6-0.6,1.1-0.9,1.4-0.9c0.1,0,0.2,0.1,0.2,0.2
			c0,0.1-0.2,0.3-0.6,0.7C12.4,20,12,20.5,11.8,21c-0.5,0.8-0.8,1.8-0.9,2.8c0.3,0,0.5,0.1,0.6,0.1c0.1,0,0.1,0.1,0.1,0.2
			c-0.7,0.6-1.1,1.2-1.1,1.7c0.3,0,0.6-0.1,0.9-0.3c0.2-0.2,0.4-0.4,0.8-0.8c0.1,0,0.2,0.1,0.3,0.4c0.1,0.3,0.2,0.6,0.2,0.8
			c0.3,0.2,0.5,0.3,0.5,0.3c0.2,0.1,0.3,0.3,0.3,0.5c0,0.1-0.1,0.2-0.2,0.3c-0.1,0.1-0.3,0.2-0.6,0.4c0,0.8-0.1,1.2-0.4,1.2
			c-0.6-0.7-1.2-1-1.7-1.1c0,0.3,0.1,0.6,0.4,1c0,0,0.3,0.3,0.7,0.8c0,0.1-0.1,0.1-0.2,0.2c-0.1,0.1-0.3,0.1-0.7,0.2
			c0.2,0.8,0.5,1.7,1,2.5c0.5,0.9,1.1,1.6,1.7,2.2c0.1,0.1,0.2,0.2,0.2,0.2s-0.1,0.1-0.2,0.1c-0.2,0-0.5-0.2-1-0.5
			c-1.4-1-2.4-2.5-3.2-4.5c-1.1,0-1.6-0.1-1.6-0.4c0.3-0.3,0.5-0.5,0.7-0.8c0.2-0.3,0.3-0.6,0.3-1c-0.2,0-0.5,0.1-0.8,0.4l-0.8,0.8
			c-0.2,0-0.3-0.4-0.4-1.1c0-0.1,0-0.1,0-0.2C6.2,27.3,5.9,27,5.9,26.8z M8.3,29.3c0,0,0.1,0.1,0.3,0.1c0.2,0,0.3,0,0.4,0h0.3
			c0.1,0,0.1,0,0.2,0c0.3,0.9,0.7,1.8,1.3,2.7c0.7,0.9,1.4,1.7,2.3,2.3c-0.6-0.6-1.1-1.2-1.5-2c-0.6-0.9-0.9-1.9-1.1-2.9
			c0.4,0,0.6-0.1,0.6-0.2c-0.4-0.4-0.8-0.7-1-1.1c-0.1,0.2-0.1,0.3-0.2,0.6c0,0-0.1,0.1-0.1,0.3c-0.1,0.1-0.1,0.2-0.1,0.2
			c-0.1,0-0.3-0.3-0.6-1c-0.1,0.3-0.3,0.5-0.4,0.7C8.6,28.9,8.5,29.1,8.3,29.3z M10.9,26.2c0.1,0,0.4,0.1,0.8,0.3
			c0.3,0.1,0.5,0.2,0.5,0.2c0,0-0.2,0.1-0.7,0.3c-0.1,0-0.3,0.1-0.6,0.2c0.3,0.1,0.5,0.2,0.7,0.4c0.1,0.1,0.3,0.3,0.5,0.5
			c0.1,0,0.1-0.3,0.1-0.9c0.5-0.2,0.7-0.4,0.7-0.6c0-0.1-0.2-0.3-0.7-0.4c0-0.6-0.1-1-0.2-1c0,0-0.1,0.1-0.5,0.4
			C11.3,26,11.1,26.1,10.9,26.2z M8.2,24.3c0.4,0.3,0.7,0.7,0.9,1.1c0-0.1,0.1-0.3,0.2-0.5c0,0,0.1-0.1,0.2-0.3
			c0.1-0.1,0.1-0.2,0.2-0.2c0,0,0.1,0.1,0.1,0.2c0.1,0.2,0.1,0.3,0.1,0.3c0,0.1,0.1,0.3,0.2,0.5c0.1-0.2,0.2-0.4,0.4-0.6
			c0.1-0.2,0.3-0.3,0.5-0.5c0,0-0.2-0.1-0.6-0.2c0.2-1,0.4-1.6,0.5-1.8c0.4-1.1,1-2.1,1.8-3.1c-1.4,1-2.5,2.6-3.3,5
			c-0.6,0-0.8,0-0.7,0C8.4,24.1,8.2,24.2,8.2,24.3z M8.7,26.8c0,0.3,0.1,0.5,0.3,0.7c0.2,0.2,0.4,0.3,0.7,0.3c0.3,0,0.5-0.1,0.7-0.3
			c0.2-0.2,0.3-0.4,0.3-0.7c0-0.3-0.1-0.5-0.3-0.7c-0.2-0.2-0.4-0.3-0.7-0.3c-0.3,0-0.5,0.1-0.7,0.3C8.8,26.2,8.7,26.5,8.7,26.8z
			 M6.3,26.8c0,0.1,0.1,0.1,0.2,0.2c0.1,0.1,0.3,0.2,0.5,0.2c0,0.3,0,0.5,0.1,0.7c0,0.2,0.1,0.3,0.1,0.3c0,0,0.2-0.1,0.4-0.4
			c0.2-0.3,0.5-0.4,0.8-0.6c-0.1-0.1-0.3-0.1-0.6-0.3c0,0-0.2-0.1-0.4-0.2c-0.2-0.1-0.3-0.1-0.3-0.2c0-0.1,0.2-0.1,0.5-0.2
			c0.5-0.1,0.8-0.2,0.8-0.2c-0.3-0.1-0.5-0.2-0.8-0.4c-0.1-0.1-0.3-0.3-0.5-0.5c-0.1,0-0.1,0.1-0.1,0.2c0,0.1,0,0.3,0,0.6
			C6.5,26.5,6.3,26.7,6.3,26.8z"/>
	</g>
</g>
</svg>
