<?xml version="1.0" encoding="utf-8"?>
<!-- Generator: Adobe Illustrator 22.0.1, SVG Export Plug-In . SVG Version: 6.00 Build 0)  -->
<svg version="1.1" id="Layer_1" xmlns="http://www.w3.org/2000/svg" xmlns:xlink="http://www.w3.org/1999/xlink" x="0px" y="0px"
	 viewBox="0 0 234.5 46.1" style="enable-background:new 0 0 234.5 46.1;" xml:space="preserve">
<style type="text/css">
	.st0{fill:#BA0017;}
</style>
<g>
	<g>
		<g>
			<g>
				<path d="M58,19.2c0,0.4-0.1,0.8-0.4,1.1s-0.7,0.5-1.1,0.5c-0.4,0-0.6-0.1-0.8-0.3s-0.3-0.5-0.3-0.8c0-0.5,0.1-0.9,0.4-1.3
					s0.6-0.6,1-0.6c0.4,0,0.6,0.1,0.9,0.4S58,18.8,58,19.2z M57.4,19.5c0-0.2-0.1-0.4-0.4-0.6s-0.5-0.3-0.6-0.3
					c-0.2,0-0.3,0.1-0.4,0.2s-0.2,0.3-0.2,0.5c0,0.2,0.1,0.4,0.3,0.5c0.2,0.1,0.4,0.1,0.7,0.1c0.2,0,0.3,0,0.4-0.1
					S57.4,19.6,57.4,19.5z"/>
				<path d="M63.4,29c0,1-0.2,1.9-0.7,2.5c-0.4,0.5-1.1,0.9-1.9,1.2c-0.7,0.2-1.6,0.3-2.7,0.3c-1.3,0-2.2-0.2-2.9-0.7
					c-0.8-0.5-1.1-1.3-1.1-2.3c0-0.6,0.1-1.1,0.2-1.7c0.1-0.5,0.3-1.1,0.6-1.7c0.2-0.4,0.5-1,0.8-1.6l0.3,0.2
					c-0.2,0.4-0.4,0.8-0.6,1.2c-0.2,0.5-0.4,0.9-0.5,1.2c-0.1,0.4-0.2,0.9-0.2,1.3c0,0.8,0.3,1.4,0.9,1.8s1.4,0.6,2.4,0.6
					c1.1,0,2.1-0.2,3.1-0.6c1-0.4,1.5-0.9,1.5-1.5c0-0.6-0.1-1.7-0.3-3.2c-0.2-1.2-0.3-2.5-0.6-3.9l-0.3-1.9L60.9,20
					c0-0.9,0.2-1.7,0.5-2.4h0.2c0,0.2,0.1,0.4,0.1,0.6s0.2,0.2,0.3,0.3c0.2,0.1,0.4,0.2,0.7,0.3c0.2,0.1,0.3,0.2,0.5,0.2
					c0,0.5,0,0.8,0,1s-0.1,0.5-0.2,0.9l-0.6-0.2c0,0.1,0.1,0.8,0.3,2c0.2,1.4,0.4,2.5,0.4,3.3C63.3,27.2,63.4,28.3,63.4,29z"/>
				<path d="M68.3,18.8c0,0.5-0.1,0.9-0.3,1.2c-0.2,0.4-0.4,0.5-0.8,0.5c-0.1,0-0.2,0-0.3-0.1s-0.2-0.1-0.3-0.2
					c-0.1,0.2-0.3,0.4-0.4,0.5c-0.2,0.2-0.4,0.3-0.7,0.3c-0.3,0-0.5-0.1-0.6-0.3s-0.2-0.4-0.2-0.8c0-0.2,0-0.3,0.1-0.5
					c0-0.1,0.1-0.3,0.2-0.5l0.2-0.1c0,0.1,0,0.1,0,0.3s0,0.2,0,0.3c0,0.1,0,0.3,0.1,0.4s0.1,0.2,0.3,0.2c0.3,0,0.5-0.2,0.7-0.5
					c0.1-0.2,0.2-0.5,0.3-1l0.2-0.1c0.1,0.3,0.1,0.5,0.1,0.6c0.1,0.2,0.2,0.3,0.4,0.3c0.2,0,0.4-0.2,0.6-0.5
					c0.1-0.3,0.2-0.5,0.2-0.8l0.2-0.1c0,0.1,0.1,0.3,0.1,0.4S68.3,18.7,68.3,18.8z M68.1,16.4c0,0.3-0.2,0.6-0.5,0.9
					c-0.6,0.2-1.5,0.6-2.8,1.1c0-0.3,0.1-0.5,0.4-0.8C65.8,17.4,66.7,17,68.1,16.4z"/>
				<path d="M71.2,30.2h-3.6c0.4,0.2,0.8,0.5,1.1,0.8c0.4,0.4,0.6,0.9,0.6,1.5c0,0.5-0.1,0.9-0.2,1.2c-0.2,0.4-0.5,0.6-0.9,0.6
					c-0.8,0-1.5-0.3-2.1-0.8c-0.8-0.7-1.2-1.5-1.2-2.6l0-0.7h-2.2v-1.7h2.5c0.2-0.6,0.5-1.2,0.8-1.7c0.3-0.7,0.7-1.2,1.1-1.6
					c0.4-0.5,0.8-0.7,1.2-0.7c0.2,0,0.4,0.2,0.5,0.5s0.2,0.7,0.2,1.1c0,0.6-0.1,1-0.4,1.4c-0.2,0.2-0.7,0.5-1.6,1h4.3V30.2z
					 M68.4,32.3c0-0.5-0.4-1-1.1-1.5c-0.6-0.4-1.2-0.6-1.8-0.7c0,0.7,0.2,1.3,0.5,1.8c0.4,0.6,1,0.8,1.9,0.8c0.2,0,0.3,0,0.4-0.1
					S68.4,32.5,68.4,32.3z M68,26.9c0-0.6-0.1-0.9-0.4-0.9c-0.3,0-0.6,0.3-1,0.9c-0.2,0.3-0.5,0.8-0.8,1.5c0.6-0.2,1.1-0.4,1.5-0.6
					C67.8,27.4,68,27.1,68,26.9z"/>
				<path d="M76.8,18.6c0,0.3-0.2,0.6-0.5,0.9c-0.6,0.2-1.5,0.6-2.8,1.1c0-0.3,0.1-0.6,0.4-0.8C74.4,19.6,75.4,19.2,76.8,18.6z"/>
				<path d="M79.1,30.2h-1c-0.4,0-0.9-0.1-1.5-0.3C76,29.7,75.4,29.4,75,29c-0.4,0.5-0.8,0.8-1.2,1s-1,0.3-1.7,0.3h-1.5v-1.7H72
					c0.6,0,1.1-0.1,1.6-0.4c0.4-0.2,0.7-0.6,1-1c0.4-0.6,0.9-1.1,1.5-1.5c0.5-0.4,1-0.6,1.4-0.7c0.4,0.7,0.8,1.3,1.1,1.8
					c0.4,0.7,0.5,1.3,0.5,1.8V30.2z M78,28.3c-0.1-0.4-0.2-0.7-0.4-1.1c-0.1-0.3-0.3-0.6-0.6-0.9c-0.3,0.1-0.6,0.2-0.8,0.4
					c-0.1,0.1-0.3,0.4-0.5,0.7c0.2,0.3,0.6,0.5,1,0.7s0.8,0.3,1.2,0.4L78,28.3z"/>
				<path d="M84.2,15.7c0,0.3-0.2,0.6-0.5,0.9c-0.6,0.2-1.5,0.6-2.8,1.1c0-0.3,0.1-0.6,0.4-0.8C81.8,16.7,82.8,16.3,84.2,15.7z"/>
				<path d="M84,30.2h-5.6v-1.7h4.9c0-0.8-0.1-1.4-0.3-1.8c-0.1-0.3-0.4-0.7-0.9-1.2l0.8-1.6c0.5,0.6,0.8,1.1,0.9,1.4
					c0.2,0.5,0.3,1.3,0.3,2.5V30.2z M81.7,21.4L81,22.9L79.4,22l0.7-1.4L81.7,21.4z M83.9,20.6L83.2,22l-1.6-0.8l0.7-1.4L83.9,20.6z
					"/>
				<path d="M94.4,29c0,0.3-0.1,0.7-0.4,0.9s-0.6,0.4-1,0.4c-0.5,0-0.9-0.2-1.3-0.7s-0.5-1.1-0.5-1.7c0-1,0.3-1.8,0.9-2.5
					c0.3-0.4,0.7-0.7,1.3-1.1l0.3,0.5c-0.4,0.4-0.7,0.7-0.9,0.9c-0.4,0.5-0.5,0.9-0.5,1.2s0.4,0.6,1.1,0.8S94.4,28.2,94.4,29z"/>
				<path d="M105.3,13.8c0,0.3-0.2,0.6-0.5,0.9c-0.6,0.2-1.5,0.6-2.8,1.1c0-0.3,0.1-0.5,0.4-0.8C102.9,14.8,103.9,14.4,105.3,13.8z
					 M105.3,15.2c0,0.3,0,0.5-0.1,0.6s-0.2,0.2-0.4,0.3c-0.6,0.2-1.5,0.6-2.9,1.1c0-0.3,0.1-0.5,0.4-0.8
					C102.9,16.2,103.9,15.8,105.3,15.2z"/>
				<path d="M113.5,30.2h-0.6c-0.5,0-1-0.3-1.3-0.9c-0.4-0.7-0.6-1.8-0.6-3.3c0-0.1,0-0.2,0-0.4s0-0.3,0-0.3
					c-0.6,1.7-1.2,2.9-1.7,3.6c-0.6,0.8-1.4,1.3-2.5,1.5c-0.9,0.2-2.4,0.3-4.6,0.3v-0.3c1.8-0.5,3.1-1,3.9-1.4
					c1.4-0.6,2.4-1.3,3.2-2.1c0.9-1,1.3-2.1,1.3-3.4c0-0.6,0-1.2-0.1-1.8s-0.2-1.1-0.3-1.7l0.3-0.8c0.1-0.3,0.3-0.6,0.4-0.8
					c0.2,0.9,0.3,2,0.5,3c0.1,0.7,0.2,1.6,0.3,2.4c0.1,1.1,0.2,1.9,0.3,2.5c0.1,0.8,0.3,1.4,0.5,1.8c0.2,0.2,0.3,0.4,0.5,0.4h0.6
					V30.2z M109.5,25.1c0,0.1,0,0.2,0,0.3s0,0.2-0.1,0.3c-0.4-0.8-0.9-1.7-1.6-2.5c-0.8-1-1.4-1.4-1.9-1.4c-0.1,0-0.2,0.1-0.3,0.3
					s-0.2,0.3-0.3,0.3c-0.2,0-0.5-0.1-0.8-0.3c-0.5-0.3-0.9-0.6-1.1-1c-0.4-0.5-0.6-1-0.6-1.6c0-0.4,0.1-0.6,0.4-0.6
					c0.5,0,1.2,0.3,2.2,0.9c1.1,0.7,2,1.4,2.8,2.3C109,23,109.5,24.1,109.5,25.1z"/>
				<path d="M118.4,30.2h-5.6v-1.7h4.9c0-0.8-0.1-1.4-0.3-1.8c-0.1-0.3-0.4-0.7-0.9-1.2l0.8-1.6c0.5,0.6,0.8,1.1,0.9,1.4
					c0.2,0.5,0.3,1.3,0.3,2.5V30.2z M117.4,32.6l-0.8,1.4l-1.6-0.8l0.7-1.4L117.4,32.6z"/>
				<path d="M124.9,18.6c0,0.3-0.2,0.6-0.5,0.9c-0.6,0.2-1.5,0.6-2.8,1.1c0-0.3,0.1-0.6,0.4-0.8C122.5,19.6,123.5,19.2,124.9,18.6z"
					/>
				<path d="M129,30.2h-11.3v-1.7h8c-0.7-0.5-1.2-0.9-1.7-1.2c-0.6-0.4-1.1-0.6-1.6-0.8c-0.5-0.2-1.1-0.3-1.6-0.3
					c-0.3,0-0.7,0-1,0.1c0.2-0.5,0.4-0.9,0.7-1.2c0.4-0.4,1-0.6,1.7-0.6c0.7,0,1.4,0.3,2.4,1c0.4,0.3,1.2,0.9,2.2,1.9
					c0.8,0.7,1.3,1.1,1.6,1.2h0.6V30.2z M124,32.3l-0.7,1.4l-1.6-0.8l0.8-1.4L124,32.3z"/>
				<path class="st0" d="M137.7,14.3c0,0.3-0.2,0.6-0.5,0.9c-0.6,0.2-1.5,0.6-2.8,1.1c0-0.3,0.1-0.5,0.4-0.8
					C135.3,15.3,136.3,14.9,137.7,14.3z M137.7,15.8c0,0.3,0,0.5-0.1,0.6s-0.2,0.2-0.4,0.3c-0.6,0.2-1.5,0.6-2.9,1.1
					c0-0.3,0.1-0.5,0.4-0.8C135.3,16.8,136.3,16.4,137.7,15.8z"/>
				<path class="st0" d="M139.1,30.2h-1.4c-0.4,0-0.8-0.2-1.1-0.5c-0.2-0.3-0.4-0.8-0.5-1.4s-0.2-1.4-0.3-2.3c0-0.7-0.1-1.5-0.1-2.3
					s-0.1-1.4-0.2-1.8s-0.2-0.7-0.3-1c-0.1-0.3-0.3-0.6-0.6-0.8l1.2-1.9c0.3,0.8,0.4,1.7,0.5,2.8c0.1,0.7,0.1,2.3,0.2,4.8
					c0.1,1.2,0.3,1.9,0.5,2.2c0.2,0.3,0.4,0.4,0.6,0.4h1.4V30.2z"/>
				<path class="st0" d="M147,30.2h-1.4c-0.4,0-0.9-0.1-1.3-0.3c-0.5-0.2-0.9-0.6-1.1-1c-0.4,0.4-0.9,0.7-1.5,0.9
					c-0.7,0.3-1.5,0.4-2.3,0.4h-0.9v-1.7h0.9c0.5,0,1.1-0.1,1.5-0.2c0.5-0.1,1.1-0.4,1.6-0.7l-0.4-0.5c-0.2-0.2-0.4-0.4-0.7-0.4
					c-0.1,0-0.2,0-0.3,0.1s-0.2,0.1-0.3,0.3h-0.2v-0.6c0-0.7,0.2-1.2,0.6-1.5c0.3-0.2,0.9-0.4,1.8-0.4c0.7,0,1.3,0.1,1.8,0.3
					c0.6,0.3,0.9,0.6,0.9,1.2c0,0.3-0.1,0.6-0.4,0.9c-0.2,0.2-0.5,0.5-1,0.9c0.1,0.2,0.3,0.3,0.6,0.4s0.5,0.2,0.7,0.2h1.4V30.2z"/>
				<path class="st0" d="M150.9,32c0,0.3-0.2,0.6-0.5,0.9c-0.6,0.2-1.5,0.6-2.8,1.1c0-0.3,0.1-0.5,0.4-0.8
					C148.6,32.9,149.5,32.5,150.9,32z"/>
				<path class="st0" d="M151.1,30.2h-4.8v-1.7h3.8l-1.2-8.3l-0.5-0.2c0-0.4,0-0.9,0.1-1.3s0.2-0.8,0.4-1.1l0.1,0.1
					c0,0.4,0.2,0.7,0.6,0.8c0.3,0.1,0.7,0.3,1,0.4c0,0.3,0,0.7-0.1,1s-0.1,0.6-0.2,0.8l-0.5-0.2l1.2,7.7V30.2z"/>
				<path class="st0" d="M155.7,30.2h-1.4c-0.4,0-0.8-0.2-1.1-0.5c-0.2-0.3-0.4-0.8-0.5-1.4s-0.2-1.4-0.3-2.3c0-0.7-0.1-1.5-0.1-2.3
					s-0.1-1.4-0.2-1.8s-0.2-0.7-0.3-1c-0.1-0.3-0.3-0.6-0.6-0.8l1.2-1.9c0.3,0.8,0.4,1.7,0.5,2.8c0.1,0.7,0.1,2.3,0.2,4.8
					c0.1,1.2,0.3,1.9,0.5,2.2c0.2,0.3,0.4,0.4,0.6,0.4h1.4V30.2z"/>
				<path class="st0" d="M167.4,30.2h-12.3v-1.7l1.5,0c0.4,0,0.9-0.1,1.2-0.2c0.4-0.1,0.9-0.4,1.5-0.7c0.1-0.3,0.2-0.6,0.3-0.9
					s0.1-0.6,0.1-1c0-0.7-0.1-1.5-0.2-2.3c-0.1-0.6-0.2-1.3-0.4-2.2c-0.1-0.4-0.2-1-0.4-1.6l-0.6-0.3c0-0.4,0.1-0.8,0.2-1.1
					s0.2-0.7,0.4-1.1c0.1,0.3,0.3,0.5,0.7,0.7c0.3,0.1,0.7,0.2,1.2,0.3c-0.1,0.7-0.1,1.1-0.1,1.3s-0.1,0.4-0.2,0.7
					c0,0-0.2,0-0.4-0.1l-0.1,0c0.2,0.8,0.4,1.5,0.6,2.3s0.2,1.5,0.2,2c0,0.5,0,1-0.1,1.5c0,0.2-0.1,0.5-0.2,0.9
					c1.1-0.7,1.9-1.1,2.2-1.2c1-0.5,1.8-0.7,2.5-0.7c0.9,0,1.5,0.3,2,0.8c0.4,0.5,0.6,1.1,0.6,2V30.2z M165.8,27.8
					c0-0.3-0.2-0.6-0.5-0.8s-0.8-0.3-1.5-0.3c-0.5,0-1,0.1-1.6,0.3c-0.5,0.2-1,0.4-1.6,0.7c-0.4,0.2-0.9,0.5-1.3,0.8h4.2
					C165.1,28.5,165.8,28.3,165.8,27.8z"/>
				<path d="M177.5,30.2h-1.4c-0.4,0-0.8-0.2-1.1-0.5c-0.2-0.3-0.4-0.8-0.5-1.4s-0.2-1.4-0.3-2.3c0-0.7-0.1-1.5-0.1-2.3
					S174,22.4,174,22s-0.2-0.7-0.3-1c-0.1-0.3-0.3-0.6-0.6-0.8l1.2-1.9c0.3,0.8,0.4,1.7,0.5,2.8c0.1,0.7,0.1,2.3,0.2,4.8
					c0.1,1.2,0.3,1.9,0.5,2.2c0.2,0.3,0.4,0.4,0.6,0.4h1.4V30.2z"/>
				<path d="M182.4,30.2h-5.6v-1.7h4.9c0-0.8-0.1-1.4-0.3-1.8c-0.1-0.3-0.4-0.7-0.9-1.2l0.8-1.6c0.5,0.6,0.8,1.1,0.9,1.4
					c0.2,0.5,0.3,1.3,0.3,2.5V30.2z M180.1,33l-0.7,1.4l-1.6-0.8l0.7-1.4L180.1,33z M182.3,32.2l-0.8,1.4l-1.6-0.8l0.7-1.4
					L182.3,32.2z"/>
			</g>
		</g>
	</g>
</g>
</svg>
