<?xml version="1.0" encoding="utf-8"?>
<!-- Generator: Adobe Illustrator 22.0.1, SVG Export Plug-In . SVG Version: 6.00 Build 0)  -->
<svg version="1.1" id="Layer_1" xmlns="http://www.w3.org/2000/svg" xmlns:xlink="http://www.w3.org/1999/xlink" x="0px" y="0px"
	 viewBox="0 0 209.5 46.6" style="enable-background:new 0 0 209.5 46.6;" xml:space="preserve">
<style type="text/css">
	.st0{fill:#542C0B;}
</style>
<g>
	<path class="st0" d="M68.5,18.9h-1.8c-0.8,1.2-1.5,2.4-2,3.8c-0.6,1.6-0.9,3.3-0.9,5.1c0,1.4,0.2,2.9,0.7,4.5
		c0.5,1.5,1.2,3,2.2,4.5h1.8c-0.5-1.2-0.9-2.1-1.1-2.7c-0.3-1-0.6-2-0.8-3C66.4,30,66.3,29,66.3,28c0-1.5,0.2-2.9,0.5-4.2
		S67.7,20.8,68.5,18.9z"/>
	<path class="st0" d="M86.2,23.4l-0.7,2.2c0.3,0.4,0.6,0.7,0.6,0.8c0.2,0.3,0.3,0.6,0.4,1.1h-4.2h-0.6h-0.6c-0.3,0-0.5-0.1-0.6-0.3
		c-0.2-0.3-0.4-0.9-0.6-1.8L79,19.6c-0.3,0.5-0.5,1-0.6,1.3c-0.1,0.4-0.2,0.7-0.2,0.9c0,0.1,0,0.2,0,0.3c0,0.1,0,0.2,0,0.3l-0.5,0.3
		c-0.4,0.3-0.8,0.5-1,0.6c-0.4,0.3-0.7,0.5-0.8,0.6c-0.2,0.2-0.5,0.8-0.9,1.6c-0.4,0.9-0.6,1.4-0.6,1.6c0,0.1,0.1,0.2,0.2,0.2
		s0.4,0.1,0.9,0.2l1.1,0.2c0.2,0,0.3,0.1,0.4,0.1c0.2,0,0.5-0.2,0.9-0.5c0.2-0.2,0.6-0.6,1-1.1c0.1,1.1,0.3,2,0.6,2.7
		c0.2,0.5,0.6,0.8,0.9,1C80.6,30,80.8,30,81,30h0.6h0.6h5.2v-2.4c0-1.1-0.1-2-0.3-2.6C87,24.5,86.7,24,86.2,23.4z M78,25.2
		c-0.1,0.1-0.3,0.1-0.4,0.1c-0.2,0-0.4,0-0.6-0.1c-0.2,0-0.3-0.1-0.3-0.2s0.1-0.2,0.2-0.3c0.1-0.1,0.2-0.2,0.4-0.3
		c0.2-0.2,0.5-0.3,0.8-0.5c0.1-0.1,0.3-0.1,0.5-0.2l0.2,1.1C78.4,25,78.2,25.2,78,25.2z"/>
	<polygon class="st0" points="83.2,32.9 85.4,34.1 86.5,32 84.3,30.8 	"/>
	<path class="st0" d="M100.6,23.4c-0.2-1-0.3-1.5-0.3-1.6l0.3,0.1c0.2-0.5,0.4-0.8,0.4-1c0.1-0.2,0.1-0.6,0.2-1.1
		c-0.3-0.2-0.7-0.4-1.1-0.6c-0.3-0.2-0.4-0.4-0.4-0.6c0-0.1,0-0.2,0-0.3l-0.4-0.2c-0.6,1.3-0.9,2.2-0.9,2.8l0.5,0.3
		c0.3,1.5,0.5,2.9,0.8,4.4c0.2,0.9,0.3,1.5,0.3,1.8s0.1,0.6,0.1,0.8c0,0,0,0.1,0,0.2s0,0.2,0,0.3c0,0.7-0.3,1.2-1,1.7
		c-0.7,0.4-1.6,0.6-2.7,0.6c-0.8,0-1.3-0.2-1.8-0.5c-0.4-0.3-0.6-0.7-0.6-1.3c0-0.5,0.1-1.1,0.3-1.6s0.5-1.2,1-1.9l-0.6-0.4
		c-0.7,1.1-1.2,2-1.5,2.8c-0.2,0.7-0.3,1.5-0.3,2.3c0,1,0.3,1.7,0.9,2.2s1.4,0.8,2.5,0.8c1.3,0,2.4-0.4,3.4-1.1
		c1-0.7,1.5-1.6,1.5-2.5v-2.1c0-0.2-0.1-0.8-0.3-1.8C100.9,25.2,100.8,24.4,100.6,23.4z"/>
	<polygon class="st0" points="122,19.1 119.8,18 118.7,20.1 120.8,21.2 	"/>
	<path class="st0" d="M134.5,21.9c0.1-0.3,0.3-0.6,0.4-1c0.1-0.4,0.2-0.8,0.2-1.2c-0.5-0.2-0.9-0.4-1.1-0.6
		c-0.3-0.2-0.4-0.4-0.4-0.6s0-0.3,0-0.3l-0.4-0.2c-0.3,0.6-0.6,1.2-0.7,1.7c-0.1,0.4-0.2,0.7-0.2,1.1l0.6,0.4l1.1,6.3h-3.4
		c-0.1-0.7-0.3-1.5-0.7-2.3c-0.5-1-0.9-1.4-1.2-1.4s-0.8,0.2-1.2,0.7c-0.5,0.5-1,1.2-1.4,1.9c-0.2,0.4-0.5,0.7-0.9,0.9
		c-0.3,0.1-0.8,0.2-1.3,0.2h-1.2v-0.2c0-1.5-0.2-2.8-0.7-3.9s-1-1.6-1.6-1.6s-1,0.4-1.5,1.2c-0.4,0.8-0.7,1.6-0.7,2.6
		c0,0.6,0.2,1.1,0.6,1.5s1,0.6,1.9,0.8c-0.9-0.1-1.6-0.2-2.3-0.3c-0.3,0-0.5,0-0.8,0h-1H116h-0.7c-0.1,0-0.3,0-0.4-0.1
		s-0.3-0.2-0.4-0.3c0.4-0.5,0.6-0.9,0.7-1.2c0.1-0.3,0.2-0.6,0.2-0.9c0-0.6-0.2-1-0.7-1.4c-0.5-0.3-1.2-0.5-2-0.5s-1.4,0.2-1.8,0.7
		s-0.6,1.3-0.6,2.4l0.4,0.1c0.1-0.1,0.1-0.2,0.2-0.3c0.1,0,0.1-0.1,0.2-0.1c0.2,0,0.4,0.1,0.5,0.3c0.1,0.2,0.3,0.4,0.5,0.8
		c-0.4,0.2-0.6,0.3-0.8,0.4s-0.6,0.1-1.1,0.1h-0.3V27c0-1-0.2-1.8-0.5-2.4s-0.8-1-1.3-1c-0.6,0-1.1,0.5-1.6,1.4
		c-0.4,0.9-0.6,1.8-0.6,2.7c0,0.7,0.2,1.2,0.5,1.6c0.4,0.4,0.8,0.6,1.5,0.6c0.2,0,0.4,0,0.6-0.1c-0.7,0.9-1.5,1.5-2.2,1.9
		c-0.6,0.3-1.2,0.5-1.8,0.5c-0.4,0-0.8-0.1-1.2-0.2c-0.4-0.1-1-0.4-1.6-0.9l-0.4,0.5c1.3,1,2.2,1.6,2.8,1.9c0.6,0.3,1.2,0.5,1.7,0.5
		c0.9,0,1.8-0.5,2.7-1.6c0.7-0.8,1.1-1.7,1.3-2.5h0.4c0.5,0,1-0.1,1.4-0.2c0.6-0.2,1.2-0.6,1.6-1c0.2,0.4,0.5,0.8,0.9,1
		s0.8,0.3,1.3,0.3h0.7h0.6h5.5h0.6h1.2c0.4,0,0.8,0,1-0.1c0.5-0.2,1-0.5,1.3-1.1c0.6,0.3,1.3,0.6,2,0.8c0.6,0.2,1.1,0.3,1.6,0.3V30
		h5.1v-2.5l-1-5.7L134.5,21.9z M108.4,27.5c-0.4,0-0.7-0.1-1-0.2c-0.2-0.1-0.4-0.3-0.4-0.6c0-0.2,0.1-0.3,0.2-0.5s0.3-0.2,0.5-0.2
		c0.5,0,0.9,0.5,1.1,1.5C108.8,27.5,108.4,27.5,108.4,27.5z M120.2,25.7c-0.4-0.3-0.6-0.5-0.6-0.8c0-0.1,0-0.2,0.1-0.3
		c0.1-0.1,0.2-0.1,0.3-0.1c0.3,0,0.5,0.1,0.8,0.4s0.5,0.7,0.7,1.2C121.1,26.1,120.6,26,120.2,25.7z M128.8,27.4
		c-0.1,0-0.3-0.1-0.8-0.3c-0.2-0.1-0.4-0.2-0.7-0.3c0.2-0.6,0.4-0.8,0.6-0.8c0.2,0,0.5,0.2,0.8,0.6c0.3,0.3,0.4,0.6,0.4,0.7
		C129,27.3,129,27.4,128.8,27.4z"/>
	<path class="st0" d="M138.1,22.1l-0.6-3.3c-0.3,0.7-0.6,1.2-0.8,1.7s-0.3,0.8-0.3,1c0,0.1,0,0.4,0.1,0.7c0.2,1,0.4,1.8,0.5,2.6
		c0.1,0.7,0.2,1.4,0.2,2.2s0.1,1.3,0.1,1.7c0,0.5-0.1,1.1-0.2,1.9l0.6,0.2c0.4-0.8,0.6-1.4,0.8-1.8c0.1-0.5,0.2-1,0.2-1.5
		c0-0.6,0-1.3-0.1-2C138.5,24.4,138.3,23.3,138.1,22.1z"/>
	<path class="st0" d="M143.9,23.2c-0.5-1.5-1.2-2.9-2.2-4.2H140c0.8,1.9,1.4,3.5,1.7,4.8s0.5,2.7,0.5,4.2c0,0.7,0,1.4-0.1,2.1
		s-0.2,1.4-0.4,2.2s-0.4,1.4-0.6,2s-0.6,1.4-1.1,2.5h1.8c1.1-1.6,1.8-3.3,2.3-4.9c0.4-1.5,0.6-2.9,0.6-4.2
		C144.7,26.2,144.4,24.7,143.9,23.2z"/>
</g>
</svg>
