<?xml version="1.0" encoding="utf-8"?>
<!-- Generator: Adobe Illustrator 22.0.1, SVG Export Plug-In . SVG Version: 6.00 Build 0)  -->
<svg version="1.1" id="Layer_1" xmlns="http://www.w3.org/2000/svg" xmlns:xlink="http://www.w3.org/1999/xlink" x="0px" y="0px"
	 viewBox="0 0 234.5 46.1" style="enable-background:new 0 0 234.5 46.1;" xml:space="preserve">
<style type="text/css">
	.st0{fill:#BA0017;}
</style>
<g>
	<g>
		<g>
			<g>
				<path class="st0" d="M23.5,15.6c0,0.3-0.2,0.6-0.5,0.9c-0.6,0.2-1.5,0.6-2.8,1.1c0-0.3,0.1-0.5,0.4-0.8
					C21.1,16.6,22.1,16.2,23.5,15.6z M23.5,17.1c0,0.3,0,0.5-0.1,0.6S23.1,17.9,23,18c-0.6,0.2-1.5,0.6-2.9,1.1
					c0-0.3,0.1-0.5,0.4-0.8C21.1,18.1,22.1,17.7,23.5,17.1z"/>
				<path class="st0" d="M23,29c0,0.5-0.1,1-0.3,1.5c-0.1,0.3-0.3,0.7-0.6,1.2l-0.2-0.1c0-0.2,0-0.4,0.1-0.7s0-0.4,0-0.5
					c0-0.7-0.1-1.6-0.2-2.8s-0.2-2.5-0.4-3.8c-0.1-0.8-0.2-1.6-0.3-2.5c0.1-0.3,0.3-0.6,0.4-0.9s0.3-0.6,0.5-0.9
					c0.1,0.7,0.2,1.8,0.4,3s0.3,2.5,0.4,3.5C22.9,27.4,23,28.4,23,29z"/>
				<path class="st0" d="M30.6,31.5h-4.4c-0.4,0-0.7-0.1-1-0.3s-0.4-0.5-0.4-0.8c0-0.2,0-0.5,0-0.7s0.1-0.4,0.1-0.7h0.2
					c0.1,0.3,0.2,0.5,0.4,0.6c0.2,0.1,0.4,0.1,0.6,0.1H30c0-1.2-0.2-2.1-0.5-2.8c-0.4-0.9-1.1-1.5-2-1.8l0.1-1.9
					c1.1,0.6,1.9,1.4,2.4,2.6c0.4,1,0.6,2.3,0.6,3.8V31.5z"/>
				<path class="st0" d="M35.5,31.5h-5.6v-1.7h4.9c0-0.8-0.1-1.4-0.3-1.8c-0.1-0.3-0.4-0.7-0.9-1.2l0.8-1.6c0.5,0.6,0.8,1.1,0.9,1.4
					c0.2,0.5,0.3,1.3,0.3,2.5V31.5z M33.2,34.4l-0.7,1.4L30.8,35l0.7-1.4L33.2,34.4z M35.4,33.5l-0.8,1.4l-1.6-0.8l0.7-1.4
					L35.4,33.5z"/>
				<path class="st0" d="M43.3,31.5h-1.4c-0.4,0-0.9-0.1-1.3-0.3c-0.5-0.2-0.9-0.6-1.1-1c-0.4,0.4-0.9,0.7-1.5,0.9
					c-0.7,0.3-1.5,0.4-2.3,0.4h-0.9v-1.7h0.9c0.5,0,1.1-0.1,1.5-0.2c0.5-0.1,1.1-0.4,1.6-0.7l-0.4-0.5c-0.2-0.2-0.4-0.4-0.7-0.4
					c-0.1,0-0.2,0-0.3,0.1s-0.2,0.1-0.3,0.3h-0.2v-0.6c0-0.7,0.2-1.2,0.6-1.5c0.3-0.2,0.9-0.4,1.8-0.4c0.7,0,1.3,0.1,1.8,0.3
					c0.6,0.3,0.9,0.6,0.9,1.2c0,0.3-0.1,0.6-0.4,0.9c-0.2,0.2-0.5,0.5-1,0.9c0.1,0.2,0.3,0.3,0.6,0.4s0.5,0.2,0.7,0.2h1.4V31.5z"/>
				<path class="st0" d="M54,31.5h-0.8c-0.4,0-0.8-0.1-1.1-0.2s-0.6-0.3-0.8-0.5c-0.3,0.2-0.6,0.4-0.8,0.5c-0.3,0.1-0.8,0.2-1.4,0.2
					h-0.6c-0.3,0-0.7-0.1-1-0.2c-0.2-0.1-0.5-0.2-0.8-0.4c-0.3,0.2-0.6,0.4-0.9,0.5s-0.7,0.1-1.3,0.1h-1.9v-1.7h1.9
					c0.5,0,0.9,0,1.1-0.1c0.4-0.1,0.6-0.4,0.6-0.9c0-0.2,0-0.4,0-0.6s-0.1-0.4-0.1-0.6l0.4-0.6c0.2,0.6,0.3,1,0.4,1.3
					c0.2,0.5,0.4,0.8,0.7,1.1c0.3,0.3,0.7,0.4,1.1,0.4h0.7c0.5,0,0.8-0.1,1.1-0.2c0.3-0.2,0.4-0.4,0.4-0.8c0-0.2,0-0.4,0-0.6
					s-0.1-0.4-0.1-0.6l0.4-0.6l0.2,0.9c0.2,0.7,0.4,1.2,0.6,1.5c0.2,0.2,0.5,0.4,0.9,0.4c0.2,0,0.3-0.1,0.4-0.2s0.2-0.2,0.2-0.4
					c0-0.4-0.1-0.7-0.4-1.2c0-0.1-0.2-0.3-0.5-0.6l0.6-1.1c0.3,0.4,0.4,0.8,0.5,1c0.1,0.4,0.2,1,0.2,1.8V31.5z"/>
				<path d="M69.9,16.2c0,0.5-0.1,0.9-0.3,1.2c-0.2,0.4-0.4,0.5-0.8,0.5c-0.1,0-0.2,0-0.3-0.1s-0.2-0.1-0.3-0.2
					c-0.1,0.2-0.3,0.4-0.4,0.5c-0.2,0.2-0.4,0.3-0.7,0.3c-0.3,0-0.5-0.1-0.6-0.3s-0.2-0.4-0.2-0.8c0-0.2,0-0.3,0.1-0.5
					c0-0.1,0.1-0.3,0.2-0.5l0.2-0.1c0,0.1,0,0.1,0,0.3s0,0.2,0,0.3c0,0.1,0,0.3,0.1,0.4s0.1,0.2,0.3,0.2c0.3,0,0.5-0.2,0.7-0.5
					c0.1-0.2,0.2-0.5,0.3-1l0.2-0.1c0.1,0.3,0.1,0.5,0.1,0.6c0.1,0.2,0.2,0.3,0.4,0.3c0.2,0,0.4-0.2,0.6-0.5
					c0.1-0.3,0.2-0.5,0.2-0.8l0.2-0.1c0,0.1,0.1,0.3,0.1,0.4S69.9,16.1,69.9,16.2z M69.8,13.8c0,0.3-0.2,0.6-0.5,0.9
					c-0.6,0.2-1.5,0.6-2.8,1.1c0-0.3,0.1-0.5,0.4-0.8C67.4,14.8,68.4,14.4,69.8,13.8z"/>
				<path d="M69.7,21.2L69.2,23l-0.6-0.3l0,0.9c0,0.9-0.1,1.7-0.3,2.5c-0.2,0.9-0.6,1.8-1.1,2.7c0.2,0.5,0.4,0.8,0.5,1.1
					c0.1,0.4,0.2,0.8,0.2,1.3c0,0.2,0,0.4,0,0.6s0,0.4-0.1,0.6c-0.7,0.2-1.4,0.3-2.2,0.4s-1.5,0.1-2.3,0.1c0-0.1,0-0.2,0-0.3
					c0-0.5,0.1-1,0.2-1.4c1.1-0.6,2-1.4,2.8-2.3c-0.5-0.9-0.8-1.5-1-1.8c-0.2-0.4-0.6-1-1.2-1.8c-0.2-0.3-0.4-0.5-0.5-0.7
					c-0.2-0.2-0.4-0.3-0.5-0.3c-0.1,0-0.2,0-0.4,0.1c-0.1,0.1-0.2,0.1-0.3,0.1c-0.1,0-0.4-0.1-0.7-0.4c-0.3-0.3-0.5-0.6-0.8-0.9
					c-0.2-0.3-0.4-0.5-0.5-0.7s-0.1-0.4-0.1-0.7c0-0.4,0-0.7,0.1-0.9c0.1-0.3,0.2-0.5,0.4-0.5c0.3,0,0.7,0.3,1.2,0.8
					c0.4,0.5,1,1.1,1.5,1.8c0.5,0.7,1,1.4,1.4,2.1l1,1.6c0.3,0.5,0.6,1,0.9,1.6c0.4-0.9,0.7-1.8,0.9-2.7c0.1-0.8,0.2-1.8,0.2-3
					L67.4,22c0-0.4,0-0.8,0.1-1.2s0.2-0.7,0.3-1L68,20c0,0.3,0.2,0.5,0.5,0.7c0.2,0.1,0.4,0.2,0.6,0.3S69.5,21.2,69.7,21.2z
					 M67.1,30.7c0-0.1,0-0.3-0.1-0.4s-0.2-0.4-0.4-0.8c-0.2,0.3-0.5,0.5-0.9,0.9S65,31,64.6,31.2c0.8,0,1.3,0,1.6-0.1
					C66.8,31.1,67.1,30.9,67.1,30.7z"/>
				<path d="M73.6,34.9c0,0.2-0.1,0.3-0.3,0.4c-0.1,0.1-0.3,0.2-0.6,0.3l-1.8,0.6c0-0.3,0.3-0.6,1-0.8c-0.2-0.1-0.4-0.2-0.5-0.3
					c-0.1-0.1-0.2-0.3-0.2-0.4c0-0.2,0.2-0.5,0.5-0.8c0.4-0.4,0.7-0.6,1-0.6c0.1,0,0.2,0,0.3,0.1s0.1,0.2,0.1,0.3
					c0,0.1,0,0.2-0.1,0.3s-0.1,0.2-0.2,0.3c-0.2-0.2-0.4-0.3-0.7-0.3c-0.1,0-0.3,0-0.4,0.1s-0.2,0.1-0.2,0.2c0,0.1,0.2,0.2,0.5,0.4
					s0.6,0.3,0.8,0.3c0.1,0,0.2,0,0.3,0S73.4,35,73.6,34.9z M73.7,29c0,0.5-0.1,1-0.3,1.5c-0.1,0.3-0.3,0.7-0.6,1.2l-0.2-0.1
					c0-0.2,0-0.4,0.1-0.7s0-0.4,0-0.5c0-0.7-0.1-1.6-0.2-2.8s-0.2-2.5-0.4-3.8c-0.1-0.8-0.2-1.6-0.3-2.5c0.1-0.3,0.3-0.6,0.4-0.9
					s0.3-0.6,0.5-0.9c0.1,0.7,0.2,1.8,0.4,3s0.3,2.5,0.4,3.5C73.6,27.4,73.7,28.4,73.7,29z"/>
				<path d="M87.6,20c0,0.3-0.2,0.6-0.5,0.9c-0.6,0.2-1.5,0.6-2.8,1.1c0-0.3,0.1-0.6,0.4-0.8C85.2,20.9,86.2,20.5,87.6,20z"/>
				<path d="M96.5,31.5h-0.8c-0.4,0-0.7-0.1-1-0.2s-0.6-0.3-0.9-0.5c-0.3,0.2-0.5,0.4-0.7,0.5c-0.3,0.1-0.8,0.2-1.3,0.2h-1.2
					c0,0.6-0.1,1.2-0.4,1.7c-0.4,0.7-0.9,1.3-1.7,1.7c-1,0.5-2.2,0.8-3.6,0.8c-1.3,0-2.3-0.2-3-0.7c-0.8-0.5-1.1-1.3-1.1-2.3
					c0-0.6,0.1-1.1,0.2-1.7s0.3-1.1,0.6-1.7c0.1-0.4,0.4-0.9,0.7-1.6l0.4,0.2c-0.5,0.9-0.8,1.7-0.9,2.2s-0.2,1-0.2,1.5
					c0,0.8,0.3,1.4,0.9,1.8s1.4,0.6,2.5,0.6c1.3,0,2.4-0.2,3.3-0.7c1.2-0.5,1.8-1.3,1.8-2.3c0-0.7-0.1-1.3-0.4-1.9
					c-0.2-0.5-0.5-0.9-0.8-1.3l0.8-2c0.3,0.5,0.5,1,0.7,1.4c0.2,0.6,0.2,1.4,0.2,2.4h1.2c0.6,0,1.1-0.1,1.3-0.3
					c0.2-0.2,0.3-0.4,0.3-0.8c0-0.2,0-0.4,0-0.6s-0.1-0.4-0.1-0.6l0.4-0.6l0.2,0.9c0.1,0.6,0.3,1.1,0.6,1.4c0.3,0.3,0.6,0.5,1.1,0.5
					c0.1,0,0.3,0,0.3-0.1s0.1-0.2,0.1-0.4c0-0.3-0.1-0.7-0.3-1c-0.1-0.3-0.3-0.5-0.6-0.8l0.7-1.1c0.3,0.5,0.5,0.8,0.6,1
					c0.1,0.4,0.2,1,0.2,1.8V31.5z"/>
				<path d="M102.8,20.5c0,0.4-0.1,0.8-0.4,1.1s-0.7,0.5-1.1,0.5c-0.4,0-0.6-0.1-0.8-0.3s-0.3-0.5-0.3-0.8c0-0.5,0.1-0.9,0.4-1.3
					s0.6-0.6,1-0.6c0.4,0,0.6,0.1,0.9,0.4S102.8,20.1,102.8,20.5z M102.2,20.8c0-0.2-0.1-0.4-0.4-0.6s-0.5-0.3-0.6-0.3
					c-0.2,0-0.3,0.1-0.4,0.2s-0.2,0.3-0.2,0.5c0,0.2,0.1,0.4,0.3,0.5c0.2,0.1,0.4,0.1,0.7,0.1c0.2,0,0.3,0,0.4-0.1
					S102.2,20.9,102.2,20.8z"/>
				<path d="M106.3,31.5c0,0.7-0.3,1.5-0.9,2.2c-0.5,0.7-1.2,1.3-2,1.7c-0.8,0.5-1.4,0.7-1.9,0.7c-0.4,0-0.9-0.1-1.5-0.2
					c-0.4-0.1-0.9-0.3-1.4-0.5c-0.5-0.2-0.9-0.4-1.4-0.5l0.2-0.4c0.4,0.1,0.9,0.2,1.3,0.3S99.6,35,100,35c0.8,0,1.7-0.3,2.6-0.8
					c0.8-0.5,1.5-1.1,2.1-1.9s0.9-1.4,0.9-2c0-0.5-0.1-1.1-0.4-1.6c-0.2-0.5-0.6-0.9-1-1.4l0.6-1.5c0.5,0.5,0.9,1,1.2,1.5
					c0.3,0.6,0.4,1.2,0.4,1.9V31.5z"/>
				<path d="M112.3,19.1c0,0.5-0.1,0.9-0.3,1.2c-0.2,0.4-0.4,0.5-0.8,0.5c-0.1,0-0.2,0-0.3-0.1s-0.2-0.1-0.3-0.2
					c-0.1,0.2-0.3,0.4-0.4,0.5c-0.2,0.2-0.4,0.3-0.7,0.3c-0.3,0-0.5-0.1-0.6-0.3s-0.2-0.4-0.2-0.8c0-0.2,0-0.3,0.1-0.5
					c0-0.1,0.1-0.3,0.2-0.5l0.2-0.1c0,0.1,0,0.1,0,0.3s0,0.2,0,0.3c0,0.1,0,0.3,0.1,0.4s0.1,0.2,0.3,0.2c0.3,0,0.5-0.2,0.7-0.5
					c0.1-0.2,0.2-0.5,0.3-1l0.2-0.1c0.1,0.3,0.1,0.5,0.1,0.6c0.1,0.2,0.2,0.3,0.4,0.3c0.2,0,0.4-0.2,0.6-0.5
					c0.1-0.3,0.2-0.5,0.2-0.8l0.2-0.1c0,0.1,0.1,0.3,0.1,0.4S112.3,19,112.3,19.1z M112.2,16.7c0,0.3-0.2,0.6-0.5,0.9
					c-0.6,0.2-1.5,0.6-2.8,1.1c0-0.3,0.1-0.5,0.4-0.8C109.8,17.7,110.8,17.3,112.2,16.7z"/>
				<path d="M113,31.5h-4.4c-0.4,0-0.7-0.1-1-0.3s-0.4-0.5-0.4-0.8c0-0.2,0-0.5,0-0.7s0.1-0.4,0.1-0.7h0.2c0.1,0.3,0.2,0.5,0.4,0.6
					c0.2,0.1,0.4,0.1,0.6,0.1h3.8c0-1.2-0.2-2.1-0.5-2.8c-0.4-0.9-1.1-1.5-2-1.8l0.1-1.9c1.1,0.6,1.9,1.4,2.4,2.6
					c0.4,1,0.6,2.3,0.6,3.8V31.5z"/>
				<path d="M117.2,31.5h-4.8v-1.7h3.8l-1.2-8.3l-0.5-0.2c0-0.4,0-0.9,0.1-1.3s0.2-0.8,0.4-1.1l0.1,0.1c0,0.4,0.2,0.7,0.6,0.8
					c0.3,0.1,0.7,0.3,1,0.4c0,0.3,0,0.7-0.1,1s-0.1,0.6-0.2,0.8L116,22l1.2,7.7V31.5z"/>
				<path d="M120.5,29c0,0.5-0.1,1-0.3,1.5c-0.1,0.3-0.3,0.7-0.6,1.2l-0.2-0.1c0-0.2,0-0.4,0.1-0.7s0-0.4,0-0.5
					c0-0.7-0.1-1.6-0.2-2.8s-0.2-2.5-0.4-3.8c-0.1-0.8-0.2-1.6-0.3-2.5c0.1-0.3,0.3-0.6,0.4-0.9s0.3-0.6,0.5-0.9
					c0.1,0.7,0.2,1.8,0.4,3s0.3,2.5,0.4,3.5C120.4,27.4,120.5,28.4,120.5,29z"/>
				<path d="M133.5,20.7c0,0.1,0,0.2,0,0.3s0,0.2-0.1,0.4l-0.8-0.5c-0.3,0.4-0.5,0.6-0.7,0.7c-0.5,0.5-0.9,0.7-1.2,0.7H130
					c0.3-0.2,0.7-0.4,1.2-0.8c0.4-0.3,0.7-0.6,0.9-0.9c-0.2-0.1-0.4-0.3-0.5-0.4c-0.1-0.2-0.2-0.4-0.2-0.6c0-0.4,0.1-0.8,0.4-1.1
					s0.5-0.5,0.8-0.5c0.2,0,0.3,0.1,0.5,0.3s0.2,0.4,0.2,0.7c0,0.1,0,0.3-0.1,0.4s-0.1,0.4-0.2,0.7c0.1,0.1,0.2,0.2,0.3,0.3
					C133.4,20.4,133.5,20.5,133.5,20.7z M132.7,19.6c0-0.2-0.1-0.3-0.2-0.5s-0.2-0.2-0.4-0.2c-0.1,0-0.1,0-0.2,0.1S132,19,132,19
					c0,0.1,0.1,0.3,0.2,0.4l0.4,0.3C132.7,19.7,132.7,19.6,132.7,19.6z"/>
				<path d="M141.1,31.5h-9.3c-1.3,0-2.2-0.2-3-0.7c-0.9-0.5-1.4-1.4-1.4-2.6c0-0.6,0.1-1.2,0.4-1.9c0.1-0.2,0.3-0.7,0.7-1.3
					l0.3,0.2c-0.1,0.3-0.3,0.6-0.4,0.9c-0.2,0.5-0.3,0.9-0.3,1.2c0,0.8,0.4,1.4,1.2,1.8c0.7,0.4,1.6,0.6,2.7,0.6h8.3v-0.3
					c0-0.7-0.1-1.3-0.3-1.8s-0.5-0.9-0.9-1.2L140,25c0.3,0.4,0.5,0.6,0.5,0.7c0.4,0.7,0.7,1.8,0.7,3.2V31.5z M135.6,33.9l-0.8,1.4
					l-1.6-0.8l0.7-1.4L135.6,33.9z"/>
				<path d="M153.2,31.5h-0.6c-0.5,0-1-0.3-1.3-0.9c-0.4-0.7-0.6-1.8-0.6-3.3c0-0.1,0-0.2,0-0.4s0-0.3,0-0.3
					c-0.6,1.7-1.2,2.9-1.7,3.6c-0.6,0.8-1.4,1.3-2.5,1.5c-0.9,0.2-2.4,0.3-4.6,0.3v-0.3c1.8-0.5,3.1-1,3.9-1.4
					c1.4-0.6,2.4-1.3,3.2-2.1c0.9-1,1.3-2.1,1.3-3.4c0-0.6,0-1.2-0.1-1.8s-0.2-1.1-0.3-1.7l0.3-0.8c0.1-0.3,0.3-0.6,0.4-0.8
					c0.2,0.9,0.3,2,0.5,3c0.1,0.7,0.2,1.6,0.3,2.4c0.1,1.1,0.2,1.9,0.3,2.5c0.1,0.8,0.3,1.4,0.5,1.8c0.2,0.2,0.3,0.4,0.5,0.4h0.6
					V31.5z M149.1,26.4c0,0.1,0,0.2,0,0.3s0,0.2-0.1,0.3c-0.4-0.8-0.9-1.7-1.6-2.5c-0.8-1-1.4-1.4-1.9-1.4c-0.1,0-0.2,0.1-0.3,0.3
					s-0.2,0.3-0.3,0.3c-0.2,0-0.5-0.1-0.8-0.3c-0.5-0.3-0.9-0.6-1.1-1c-0.4-0.5-0.6-1-0.6-1.6c0-0.4,0.1-0.6,0.4-0.6
					c0.5,0,1.2,0.3,2.2,0.9c1.1,0.7,2,1.4,2.8,2.3C148.7,24.4,149.1,25.4,149.1,26.4z"/>
				<path d="M159.2,14.2c-0.2,0-0.5,0-0.7-0.1c-0.1,0-0.2-0.1-0.4-0.1c-0.4,0.3-0.6,0.5-0.8,0.6c-0.4,0.2-0.8,0.4-1.1,0.4
					c-0.1,0-0.2,0-0.3,0s-0.2-0.1-0.3-0.1c0.5-0.2,0.8-0.4,1-0.5c0.3-0.1,0.7-0.3,1-0.5c-0.1-0.1-0.3-0.3-0.3-0.4
					c-0.1-0.1-0.2-0.3-0.2-0.4c0-0.3,0.1-0.6,0.3-0.8s0.5-0.4,0.8-0.4c0.2,0,0.4,0.1,0.5,0.2s0.2,0.3,0.2,0.5c0,0.1,0,0.3-0.1,0.4
					c0,0-0.1,0.2-0.2,0.4c0.2,0.1,0.3,0.2,0.4,0.3C159.1,13.6,159.2,13.8,159.2,14.2z M159.2,15.2c0,0.5-0.1,0.9-0.3,1.2
					c-0.2,0.4-0.4,0.5-0.8,0.5c-0.1,0-0.2,0-0.3-0.1s-0.2-0.1-0.3-0.2c-0.1,0.2-0.3,0.4-0.4,0.5c-0.2,0.2-0.4,0.3-0.7,0.3
					c-0.3,0-0.5-0.1-0.6-0.3s-0.2-0.4-0.2-0.8c0-0.2,0-0.3,0.1-0.5c0-0.1,0.1-0.3,0.2-0.5l0.2-0.1c0,0.1,0,0.1,0,0.3s0,0.2,0,0.3
					c0,0.1,0,0.3,0.1,0.4s0.1,0.2,0.3,0.2c0.3,0,0.5-0.2,0.7-0.5c0.1-0.2,0.2-0.5,0.3-1l0.2-0.1c0.1,0.3,0.1,0.5,0.1,0.6
					c0.1,0.2,0.2,0.3,0.4,0.3c0.2,0,0.4-0.2,0.6-0.5c0.1-0.3,0.2-0.5,0.2-0.8l0.2-0.1c0,0.1,0.1,0.3,0.1,0.4S159.2,15.1,159.2,15.2z
					 M158.4,12.7c0-0.1,0-0.3-0.1-0.4s-0.2-0.2-0.4-0.2c0,0-0.1,0-0.1,0.1s0,0.1,0,0.2c0,0.1,0,0.3,0.1,0.3s0.2,0.2,0.4,0.3
					c0,0,0-0.1,0.1-0.2S158.4,12.7,158.4,12.7z"/>
				<path d="M164.8,31.5h-12.3v-1.7l1.5,0c0.4,0,0.9-0.1,1.2-0.2c0.4-0.1,0.9-0.4,1.5-0.7c0.1-0.3,0.2-0.6,0.3-0.9s0.1-0.6,0.1-1
					c0-0.7-0.1-1.5-0.2-2.3c-0.1-0.6-0.2-1.3-0.4-2.2c-0.1-0.4-0.2-1-0.4-1.6l-0.6-0.3c0-0.4,0.1-0.8,0.2-1.1s0.2-0.7,0.4-1.1
					c0.1,0.3,0.3,0.5,0.7,0.7c0.3,0.1,0.7,0.2,1.2,0.3c-0.1,0.7-0.1,1.1-0.1,1.3s-0.1,0.4-0.2,0.7c0,0-0.2,0-0.4-0.1l-0.1,0
					c0.2,0.8,0.4,1.5,0.6,2.3s0.2,1.5,0.2,2c0,0.5,0,1-0.1,1.5c0,0.2-0.1,0.5-0.2,0.9c1.1-0.7,1.9-1.1,2.2-1.2
					c1-0.5,1.8-0.7,2.5-0.7c0.9,0,1.5,0.3,2,0.8c0.4,0.5,0.6,1.1,0.6,2V31.5z M163.2,29.1c0-0.3-0.2-0.6-0.5-0.8s-0.8-0.3-1.5-0.3
					c-0.5,0-1,0.1-1.6,0.3c-0.5,0.2-1,0.4-1.6,0.7c-0.4,0.2-0.9,0.5-1.3,0.8h4.2C162.5,29.8,163.2,29.6,163.2,29.1z"/>
				<path d="M168.9,31.5h-4.8v-1.7h3.8l-1.2-8.3l-0.5-0.2c0-0.4,0-0.9,0.1-1.3s0.2-0.8,0.4-1.1l0.1,0.1c0,0.4,0.2,0.7,0.6,0.8
					c0.3,0.1,0.7,0.3,1,0.4c0,0.3,0,0.7-0.1,1s-0.1,0.6-0.2,0.8l-0.5-0.2l1.2,7.7V31.5z"/>
				<path d="M172.2,29c0,0.5-0.1,1-0.3,1.5c-0.1,0.3-0.3,0.7-0.6,1.2l-0.2-0.1c0-0.2,0-0.4,0.1-0.7s0-0.4,0-0.5
					c0-0.7-0.1-1.6-0.2-2.8s-0.2-2.5-0.4-3.8c-0.1-0.8-0.2-1.6-0.3-2.5c0.1-0.3,0.3-0.6,0.4-0.9s0.3-0.6,0.5-0.9
					c0.1,0.7,0.2,1.8,0.4,3s0.3,2.5,0.4,3.5C172.2,27.4,172.2,28.4,172.2,29z"/>
				<path d="M185.2,20c0,0.3-0.2,0.6-0.5,0.9c-0.6,0.2-1.5,0.6-2.8,1.1c0-0.3,0.1-0.6,0.4-0.8C182.8,20.9,183.8,20.5,185.2,20z"/>
				<path d="M188.4,31.5c0,0.7-0.3,1.5-0.9,2.2c-0.5,0.7-1.2,1.3-2,1.7c-0.8,0.5-1.4,0.7-1.9,0.7c-0.4,0-0.9-0.1-1.5-0.2
					c-0.4-0.1-0.9-0.3-1.4-0.5c-0.5-0.2-0.9-0.4-1.4-0.5l0.2-0.4c0.4,0.1,0.9,0.2,1.3,0.3s0.9,0.1,1.3,0.1c0.8,0,1.7-0.3,2.6-0.8
					c0.8-0.5,1.5-1.1,2.1-1.9s0.9-1.4,0.9-2c0-0.5-0.1-1.1-0.4-1.6c-0.2-0.5-0.6-0.9-1-1.4l0.6-1.5c0.5,0.5,0.9,1,1.2,1.5
					c0.3,0.6,0.4,1.2,0.4,1.9V31.5z"/>
				<path d="M194.4,20c0,0.3-0.2,0.6-0.5,0.9c-0.6,0.2-1.5,0.6-2.8,1.1c0-0.3,0.1-0.6,0.4-0.8C192.1,20.9,193,20.5,194.4,20z"/>
				<path d="M205.3,31.5h-11.7c-0.4,0-0.7-0.1-1-0.2c-0.2-0.1-0.5-0.2-0.8-0.4c-0.3,0.2-0.5,0.4-0.8,0.5s-0.7,0.1-1.3,0.1h-1.9v-1.7
					h1.9c0.5,0,0.9,0,1.1-0.1c0.4-0.1,0.6-0.4,0.6-0.9c0-0.2,0-0.4,0-0.6s-0.1-0.4-0.1-0.6l0.4-0.6c0.2,0.9,0.5,1.6,0.9,2.1
					c0.4,0.5,0.9,0.8,1.5,0.8c0.5,0,1.2-0.1,1.9-0.4c0.8-0.3,1.5-0.6,2.1-1c0.9-0.7,1.5-1.1,1.7-1.2c0.5-0.3,1-0.6,1.4-0.7
					c0.5-0.2,1-0.2,1.6-0.2c0.9,0,1.6,0.3,2,0.8c0.4,0.5,0.6,1.1,0.6,2V31.5z M199.1,23.4l-0.7,1.4l-1.6-0.8l0.7-1.4L199.1,23.4z
					 M203.7,29.1c0-0.3-0.2-0.6-0.6-0.7s-0.9-0.3-1.4-0.3c-0.7,0-1.4,0.2-2.4,0.7c-0.7,0.4-1.5,0.7-2.2,1.1h4.5
					c0.7,0,1.2-0.1,1.6-0.2S203.7,29.3,203.7,29.1z"/>
				<path d="M211.9,20c0,0.3-0.2,0.6-0.5,0.9c-0.6,0.2-1.5,0.6-2.8,1.1c0-0.3,0.1-0.6,0.4-0.8C209.5,20.9,210.5,20.5,211.9,20z"/>
				<path d="M215.9,31.5h-11.3v-1.7h8c-0.7-0.5-1.2-0.9-1.7-1.2c-0.6-0.4-1.1-0.6-1.6-0.8c-0.5-0.2-1.1-0.3-1.6-0.3
					c-0.3,0-0.7,0-1,0.1c0.2-0.5,0.4-0.9,0.7-1.2c0.4-0.4,1-0.6,1.7-0.6c0.7,0,1.4,0.3,2.4,1c0.4,0.3,1.2,0.9,2.2,1.9
					c0.8,0.7,1.3,1.1,1.6,1.2h0.6V31.5z"/>
			</g>
		</g>
	</g>
</g>
</svg>
