<?xml version="1.0" encoding="utf-8"?>
<!-- Generator: Adobe Illustrator 22.0.1, SVG Export Plug-In . SVG Version: 6.00 Build 0)  -->
<svg version="1.1" id="Layer_1" xmlns="http://www.w3.org/2000/svg" xmlns:xlink="http://www.w3.org/1999/xlink" x="0px" y="0px"
	 viewBox="0 0 234.5 46.1" style="enable-background:new 0 0 234.5 46.1;" xml:space="preserve">
<style type="text/css">
	.st0{fill:#BA0017;}
</style>
<g>
	<g>
		<g>
			<g>
				<path d="M69.3,17.2c0,0.2,0,0.5-0.1,0.7c-0.1,0.2-0.2,0.4-0.3,0.7c0.1,0.1,0.2,0.1,0.2,0.2c0.1,0.1,0.1,0.2,0.1,0.2
					c0,0.3,0,0.6-0.1,0.9l-0.8-0.7c-0.3,0.4-0.6,0.6-1,0.8c-0.5,0.2-1,0.4-1.5,0.4c0.3-0.4,0.4-0.7,0.4-0.7c0.1-0.2,0.1-0.3,0.1-0.5
					s0-0.3-0.1-0.4c-0.1-0.1-0.2-0.2-0.3-0.2c-0.1,0-0.3,0.1-0.4,0.2c0,0.1-0.1,0.2-0.3,0.4c0-0.5,0.1-0.8,0.2-1
					c0.1-0.4,0.3-0.5,0.6-0.5c0.2,0,0.4,0.1,0.5,0.3s0.2,0.5,0.2,0.7c0,0.1,0,0.3,0,0.4c0,0.2-0.1,0.3-0.1,0.4
					c0.4-0.1,0.9-0.3,1.3-0.7c-0.1-0.1-0.2-0.2-0.3-0.3c-0.2-0.2-0.3-0.4-0.3-0.6c0-0.3,0.1-0.6,0.4-0.9c0.3-0.3,0.6-0.5,0.9-0.5
					c0.2,0,0.3,0.1,0.4,0.2C69.2,16.8,69.3,17,69.3,17.2z M68.6,17.7c0-0.2,0-0.3-0.1-0.4c-0.1-0.1-0.2-0.2-0.3-0.2
					c-0.1,0-0.2,0.1-0.2,0.3c0,0.1,0.1,0.2,0.2,0.4c0,0,0.1,0.1,0.3,0.3C68.6,18,68.6,17.9,68.6,17.7z"/>
				<path d="M70.9,28.1h-1.2c-1.1,0-2,0.1-2.8,0.3c-1,0.3-1.5,0.6-1.5,1.1c0,0.4,0.1,0.9,0.2,1.4s0.3,1,0.4,1.5
					c0.2,0.5,0.2,1,0.2,1.4c0,0.2,0,0.5-0.1,0.7c0,0.2-0.1,0.5-0.2,0.8c-0.2-0.5-0.3-1.1-0.5-1.6c-0.3-1-0.5-1.8-0.7-2.3
					c-0.2-0.8-0.4-1.3-0.4-1.5c0-0.8,0.2-1.5,0.5-1.9c0.3-0.4,0.9-0.8,1.6-1c0.6-0.2,1.4-0.3,2.6-0.4c-0.4-0.4-0.7-0.7-0.8-0.7
					c-0.3-0.3-0.7-0.4-1-0.4c-0.2,0-0.4,0.1-0.6,0.2c-0.2,0.1-0.3,0.3-0.6,0.5l-0.4-0.3c0.2-0.5,0.4-0.9,0.7-1.2
					c0.4-0.5,0.9-0.7,1.5-0.7c0.4,0,0.8,0.1,1.2,0.4c0.3,0.2,0.7,0.6,1,1c0.2,0.2,0.4,0.6,0.8,1.1V28.1z"/>
				<path d="M79.5,27.5c0,1.1-0.4,2.1-1.2,3.2c-0.9,1.2-1.9,1.8-3.1,1.8c-0.4,0-0.9,0-1.3-0.1c-0.3-0.1-0.8-0.2-1.3-0.4
					c-0.4-0.2-0.8-0.3-1.3-0.4l0.2-0.3c0.4,0.1,0.7,0.2,1.1,0.3c0.4,0.1,0.8,0.1,1.1,0.1c0.8,0,1.5-0.2,2.3-0.6
					c0.6-0.3,1.1-0.8,1.7-1.4c0.3-0.3,0.7-0.8,1.2-1.5c-0.9,0-1.5-0.1-2-0.4c-0.5-0.3-0.7-0.8-0.7-1.6c0-0.7,0.2-1.3,0.5-1.9
					c0.4-0.7,0.8-1,1.4-1c0.6,0,1,0.3,1.2,1c0.2,0.5,0.3,1.2,0.3,2.1V27.5z M78.9,26.4c-0.1-0.6-0.3-1.1-0.5-1.3
					c-0.2-0.2-0.4-0.3-0.6-0.3c-0.2,0-0.3,0.1-0.5,0.2c-0.1,0.1-0.2,0.3-0.2,0.5c0,0.3,0.1,0.6,0.4,0.7S78.3,26.4,78.9,26.4z"/>
				<path d="M84.6,16.5c0,0.3-0.2,0.6-0.5,0.9c-0.6,0.2-1.5,0.6-2.8,1.1c0-0.3,0.1-0.6,0.4-0.8C82.2,17.5,83.2,17.1,84.6,16.5z"/>
				<path d="M84.4,28.1h-5.6v-1.7h4.9c0-0.8-0.1-1.4-0.3-1.8c-0.1-0.3-0.4-0.7-0.9-1.2l0.8-1.6c0.5,0.6,0.8,1.1,0.9,1.4
					c0.2,0.5,0.3,1.3,0.3,2.5V28.1z M82.1,30.9l-0.7,1.4l-1.6-0.8l0.7-1.4L82.1,30.9z M84.4,30l-0.8,1.4L82,30.6l0.7-1.4L84.4,30z"
					/>
				<path d="M102,28.1h-7.2c-1.6,0-2.7-0.2-3.3-0.6c-0.7-0.4-1.1-1.1-1.1-2c0-0.6,0.2-1.2,0.5-2c0.1-0.2,0.3-0.6,0.5-1.1l0.3,0.2
					c-0.2,0.5-0.4,0.9-0.4,1.2s-0.1,0.5-0.1,0.8c0,0.7,0.4,1.2,1.1,1.5c0.6,0.2,1.4,0.3,2.5,0.3h6.2l-1.2-8.3l-0.5-0.2
					c0-0.4,0-0.9,0.1-1.3c0.1-0.4,0.2-0.8,0.4-1.1l0.1,0.1c0,0.4,0.2,0.7,0.7,0.8l1.1,0.4c0,0.3,0,0.6-0.1,1s-0.2,0.7-0.2,0.9
					l-0.5-0.2l1.2,7.7V28.1z M98.4,22.1c0,0.7-0.2,1.3-0.7,1.7s-1.1,0.6-2,0.6c-0.4,0-0.8-0.1-1.3-0.2c-0.3-0.1-0.7-0.2-1.3-0.4
					l0.2-0.2c0.2,0,0.3,0,0.6,0c0.5,0,0.8,0.1,1,0.1c0.7,0,1.4-0.1,1.9-0.3c0.5-0.2,0.8-0.5,0.8-0.8c0-0.1-0.1-0.3-0.2-0.4
					s-0.2-0.1-0.4-0.1c-0.2,0-0.3,0-0.4,0l-0.7,0c-0.2,0-0.3,0-0.4-0.1c-0.1-0.1-0.2-0.2-0.2-0.4c0-0.5,0.3-1.2,0.9-2
					s1.2-1.2,1.8-1.5l-0.2,1.3c-0.4,0.1-0.8,0.3-1,0.4c-0.4,0.2-0.6,0.5-0.6,0.8c0,0.1,0.1,0.2,0.2,0.2s0.2,0.1,0.4,0.1
					c0.1,0,0.2,0,0.3,0l0.5-0.1c0.3,0,0.6,0.1,0.7,0.3S98.4,21.7,98.4,22.1z"/>
				<path d="M106.1,28.1h-4.8v-1.7h3.8l-1.2-8.3l-0.5-0.2c0-0.4,0-0.9,0.1-1.3c0.1-0.4,0.2-0.8,0.4-1.1l0.1,0.1
					c0,0.4,0.2,0.7,0.6,0.8c0.3,0.1,0.7,0.3,1,0.4c0,0.3,0,0.7-0.1,1s-0.1,0.6-0.2,0.8l-0.5-0.2l1.2,7.7V28.1z"/>
				<path d="M116.5,26.9c0,0.3-0.1,0.7-0.4,0.9s-0.6,0.4-1,0.4c-0.5,0-0.9-0.2-1.3-0.7s-0.5-1.1-0.5-1.7c0-1,0.3-1.8,0.9-2.5
					c0.3-0.4,0.7-0.7,1.3-1.1l0.3,0.5c-0.4,0.4-0.7,0.7-0.9,0.9c-0.4,0.5-0.5,0.9-0.5,1.2s0.4,0.6,1.1,0.8S116.5,26.1,116.5,26.9z"
					/>
				<path class="st0" d="M126.8,12.2c0,0.3-0.2,0.6-0.5,0.9c-0.6,0.2-1.5,0.6-2.8,1.1c0-0.3,0.1-0.6,0.4-0.8
					C124.4,13.1,125.4,12.7,126.8,12.2z M126.8,13.6c0,0.3,0,0.5-0.1,0.6c-0.1,0.1-0.2,0.2-0.4,0.3c-0.6,0.2-1.5,0.6-2.9,1.1
					c0-0.3,0.1-0.6,0.4-0.8C124.4,14.6,125.4,14.2,126.8,13.6z"/>
				<path class="st0" d="M128.2,28.1h-1.4c-0.4,0-0.8-0.2-1.1-0.5c-0.2-0.3-0.4-0.8-0.5-1.4c-0.1-0.6-0.2-1.4-0.3-2.3
					c0-0.7-0.1-1.5-0.1-2.3c0-0.8-0.1-1.4-0.2-1.8s-0.2-0.7-0.3-1c-0.1-0.3-0.3-0.6-0.6-0.8l1.2-1.9c0.3,0.8,0.4,1.7,0.5,2.8
					c0.1,0.7,0.1,2.3,0.2,4.8c0.1,1.2,0.3,1.9,0.5,2.2c0.2,0.3,0.4,0.4,0.6,0.4h1.4V28.1z"/>
				<path class="st0" d="M136.1,28.1h-1c-0.4,0-0.9-0.1-1.5-0.3c-0.6-0.2-1.2-0.5-1.7-0.9c-0.4,0.5-0.8,0.8-1.2,1
					c-0.4,0.2-1,0.3-1.7,0.3h-1.5v-1.7h1.5c0.6,0,1.1-0.2,1.6-0.4c0.4-0.2,0.7-0.6,1-1c0.4-0.6,0.9-1.1,1.5-1.5
					c0.5-0.4,1-0.6,1.4-0.7c0.4,0.7,0.8,1.3,1.1,1.8c0.4,0.7,0.5,1.3,0.5,1.8V28.1z M135,26.1c-0.1-0.4-0.2-0.8-0.4-1.1
					c-0.1-0.3-0.3-0.6-0.6-0.9c-0.3,0.1-0.6,0.2-0.8,0.4c-0.1,0.1-0.3,0.4-0.5,0.7c0.2,0.3,0.6,0.5,1,0.7c0.4,0.2,0.8,0.3,1.2,0.4
					L135,26.1z"/>
				<path class="st0" d="M140,29.8c0,0.3-0.2,0.6-0.5,0.9c-0.6,0.2-1.5,0.6-2.8,1.1c0-0.3,0.1-0.6,0.4-0.8
					C137.7,30.8,138.6,30.4,140,29.8z"/>
				<path class="st0" d="M140.2,28.1h-4.8v-1.7h3.8l-1.2-8.3l-0.5-0.2c0-0.4,0-0.9,0.1-1.3c0.1-0.4,0.2-0.8,0.4-1.1l0.1,0.1
					c0,0.4,0.2,0.7,0.6,0.8c0.3,0.1,0.7,0.3,1,0.4c0,0.3,0,0.7-0.1,1s-0.1,0.6-0.2,0.8l-0.5-0.2l1.2,7.7V28.1z"/>
				<path class="st0" d="M144.8,28.1h-1.4c-0.4,0-0.8-0.2-1.1-0.5c-0.2-0.3-0.4-0.8-0.5-1.4c-0.1-0.6-0.2-1.4-0.3-2.3
					c0-0.7-0.1-1.5-0.1-2.3c0-0.8-0.1-1.4-0.2-1.8s-0.2-0.7-0.3-1c-0.1-0.3-0.3-0.6-0.6-0.8l1.2-1.9c0.3,0.8,0.4,1.7,0.5,2.8
					c0.1,0.7,0.1,2.3,0.2,4.8c0.1,1.2,0.3,1.9,0.5,2.2c0.2,0.3,0.4,0.4,0.6,0.4h1.4V28.1z"/>
				<path class="st0" d="M156.5,28.1h-12.3v-1.7l1.5,0c0.4,0,0.9-0.1,1.2-0.2c0.4-0.1,0.9-0.4,1.5-0.7c0.1-0.3,0.2-0.6,0.3-0.9
					c0.1-0.3,0.1-0.6,0.1-1c0-0.7-0.1-1.5-0.2-2.3c-0.1-0.6-0.2-1.3-0.4-2.2c-0.1-0.4-0.2-1-0.4-1.6l-0.6-0.3c0-0.4,0.1-0.8,0.2-1.1
					c0.1-0.4,0.2-0.7,0.4-1.1c0.1,0.3,0.3,0.5,0.7,0.7c0.3,0.1,0.7,0.2,1.2,0.3c-0.1,0.7-0.1,1.1-0.1,1.3c0,0.2-0.1,0.4-0.2,0.7
					c0,0-0.2,0-0.4-0.1l-0.1,0c0.2,0.8,0.4,1.5,0.6,2.3c0.1,0.8,0.2,1.5,0.2,2c0,0.5,0,1-0.1,1.5c0,0.2-0.1,0.5-0.2,0.9
					c1.1-0.7,1.9-1.1,2.2-1.2c1-0.5,1.8-0.7,2.5-0.7c0.9,0,1.5,0.3,2,0.8c0.4,0.5,0.6,1.1,0.6,2V28.1z M154.9,25.6
					c0-0.3-0.2-0.6-0.5-0.8c-0.3-0.2-0.8-0.3-1.5-0.3c-0.5,0-1,0.1-1.6,0.3c-0.5,0.2-1,0.4-1.6,0.7c-0.4,0.2-0.9,0.5-1.3,0.8h4.2
					C154.1,26.4,154.9,26.1,154.9,25.6z M153.8,19l-0.8,1.4l-1.6-0.8l0.7-1.4L153.8,19z"/>
				<path d="M166.6,28.1h-1.4c-0.4,0-0.8-0.2-1.1-0.5c-0.2-0.3-0.4-0.8-0.5-1.4c-0.1-0.6-0.2-1.4-0.3-2.3c0-0.7-0.1-1.5-0.1-2.3
					c0-0.8-0.1-1.4-0.2-1.8s-0.2-0.7-0.3-1c-0.1-0.3-0.3-0.6-0.6-0.8l1.2-1.9c0.3,0.8,0.4,1.7,0.5,2.8c0.1,0.7,0.1,2.3,0.2,4.8
					c0.1,1.2,0.3,1.9,0.5,2.2c0.2,0.3,0.4,0.4,0.6,0.4h1.4V28.1z"/>
				<path d="M171.5,28.1h-5.6v-1.7h4.9c0-0.8-0.1-1.4-0.3-1.8c-0.1-0.3-0.4-0.7-0.9-1.2l0.8-1.6c0.5,0.6,0.8,1.1,0.9,1.4
					c0.2,0.5,0.3,1.3,0.3,2.5V28.1z M169.2,30.9l-0.7,1.4l-1.6-0.8l0.7-1.4L169.2,30.9z M171.4,30l-0.8,1.4l-1.6-0.8l0.7-1.4
					L171.4,30z"/>
			</g>
		</g>
	</g>
</g>
</svg>
