<?xml version="1.0" encoding="utf-8"?>
<!-- Generator: Adobe Illustrator 22.0.1, SVG Export Plug-In . SVG Version: 6.00 Build 0)  -->
<svg version="1.1" id="Layer_1" xmlns="http://www.w3.org/2000/svg" xmlns:xlink="http://www.w3.org/1999/xlink" x="0px" y="0px"
	 viewBox="0 0 195.8 46.1" style="enable-background:new 0 0 195.8 46.1;" xml:space="preserve">
<style type="text/css">
	.st0{fill:#542C0B;}
</style>
<g>
	<path class="st0" d="M61.1,18h-1.8c-0.8,1.2-1.5,2.4-2,3.8c-0.6,1.6-0.9,3.3-0.9,5.1c0,1.4,0.2,2.9,0.7,4.5c0.5,1.5,1.2,3,2.2,4.5
		h1.8c-0.5-1.2-0.9-2.1-1.1-2.7c-0.3-1-0.6-2-0.8-3C58.9,29,58.9,28,58.9,27c0-1.5,0.2-2.9,0.5-4.2C59.7,21.5,60.2,19.9,61.1,18z"/>
	<polygon class="st0" points="73.7,21.5 75,22.2 76,20.3 74.3,19.4 73.6,20.9 72.2,20.2 71.2,22 73,22.9 	"/>
	<polygon class="st0" points="91.4,19 89.2,17.9 88.1,20 90.3,21.1 	"/>
	<path class="st0" d="M99.5,21c0.1-0.3,0.3-0.6,0.4-1s0.2-0.8,0.2-1.2c-0.5-0.2-0.9-0.4-1.1-0.6c-0.3-0.2-0.4-0.4-0.4-0.6
		s0-0.3,0-0.3l-0.4-0.2c-0.3,0.6-0.6,1.2-0.7,1.7c-0.1,0.4-0.2,0.7-0.2,1.1l0.6,0.4l1.1,6.3h-3.3l-1-5.7L95,21
		c0.1-0.3,0.3-0.6,0.4-1s0.2-0.8,0.2-1.2c-0.5-0.2-0.9-0.4-1.1-0.6c-0.3-0.2-0.4-0.4-0.4-0.6s0-0.3,0-0.3l-0.4-0.2
		c-0.3,0.6-0.6,1.2-0.7,1.7c-0.1,0.4-0.2,0.7-0.2,1.1l0.6,0.4l1.1,6.3h-3.3c0-1.1-0.1-1.9-0.3-2.5c-0.2-0.6-0.5-1.1-1-1.7l-0.7,2.2
		c0.3,0.4,0.6,0.7,0.6,0.8c0.2,0.3,0.3,0.6,0.4,1.1H86h-0.6h-0.7c-0.1,0-0.3,0-0.4-0.1s-0.3-0.2-0.4-0.3c0.4-0.5,0.6-0.9,0.7-1.2
		c0.1-0.3,0.2-0.6,0.2-0.9c0-0.6-0.2-1-0.7-1.4c-0.5-0.3-1.2-0.5-2-0.5s-1.4,0.2-1.8,0.7s-0.6,1.3-0.6,2.4l0.4,0.1
		c0.1-0.1,0.1-0.2,0.2-0.3c0.1,0,0.1-0.1,0.2-0.1c0.2,0,0.4,0.1,0.5,0.3c0.1,0.2,0.3,0.4,0.5,0.8c-0.4,0.2-0.6,0.3-0.8,0.4
		s-0.6,0.1-1.1,0.1h-0.3v-0.1c0-0.9-0.1-1.7-0.2-2.1c-0.1-0.5-0.4-1.2-0.9-1.8l-0.8,2.2c0.3,0.4,0.5,0.7,0.6,0.9
		c0.1,0.2,0.3,0.5,0.4,1h-6.7c-0.4,0-0.8,0-1.1,0c-0.3,0-0.6-0.1-0.8-0.1c-0.4-0.1-0.7-0.3-0.9-0.6c-0.2-0.3-0.3-0.6-0.3-1
		c0-0.3,0-0.6,0.1-0.8c0.1-0.3,0.3-0.7,0.5-1.2l-0.5-0.4c-0.3,0.5-0.6,0.8-0.7,1.1c-0.1,0.3-0.2,0.6-0.4,1c-0.1,0.3-0.1,0.5-0.1,0.7
		s0,0.4,0,0.7c0,0.7,0.2,1.3,0.5,1.8s0.7,0.9,1.3,1.1c0.3,0.1,0.5,0.2,0.8,0.2c0.2,0,0.7,0,1.5,0h7.1h0.6h0.3c0.5,0,1-0.1,1.4-0.2
		c0.6-0.2,1.2-0.6,1.6-1c0.2,0.4,0.5,0.8,0.9,1s0.8,0.3,1.3,0.3h0.7h0.6h4.5h0.6H95h0.6h4.5v-2.5l-1-5.7H99.5z"/>
	<path class="st0" d="M118.4,22.5l-0.7,2.2c0.3,0.4,0.6,0.7,0.6,0.8c0.2,0.3,0.3,0.6,0.4,1.1h-4.2h-0.6h-0.6c-0.3,0-0.6-0.1-0.9-0.2
		c-0.4-0.2-0.8-0.4-1.1-0.8c0.4-0.2,0.6-0.4,0.8-0.8c0.2-0.3,0.3-0.7,0.3-1c0-0.6-0.2-1.1-0.7-1.5s-1-0.6-1.7-0.6
		c-0.8,0-1.4,0.3-1.8,0.9s-0.6,1.3-0.6,2.1l0.4,0.1c0.1-0.1,0.1-0.2,0.2-0.3c0.1-0.1,0.1-0.1,0.2-0.1c0.3,0,0.4,0.2,0.5,0.7
		c-0.9,0.8-1.6,1.7-2,2.6s-0.6,1.9-0.6,3.1c0,1.6,0.5,2.8,1.4,3.6s2.4,1.1,4.4,1.1l3.4-2.1l-0.1-0.4c-0.3,0-0.6,0-1,0s-0.7,0-1,0
		c-2.1,0-3.6-0.3-4.6-0.8s-1.5-1.3-1.5-2.4c0-0.6,0.2-1.2,0.6-1.8c0.4-0.6,0.9-1.1,1.6-1.6c0.5,1,1,1.7,1.6,2
		c0.5,0.3,1.2,0.5,2.1,0.5h0.6h0.6h5.2v-2.4c0-1.1-0.1-2-0.3-2.6C119.1,23.6,118.8,23,118.4,22.5z"/>
	<polygon class="st0" points="115.4,32 117.5,33.2 118.6,31.1 116.5,29.9 	"/>
	<polygon class="st0" points="126.7,20.4 128,21.1 129,19.2 127.3,18.3 126.6,19.8 125.2,19.1 124.2,20.9 125.9,21.8 	"/>
	<path class="st0" d="M128,22.5l-0.7,2.2c0.3,0.4,0.6,0.7,0.6,0.8c0.2,0.3,0.3,0.6,0.4,1.1H124h-0.6h-0.6c-0.3,0-0.5-0.2-0.6-0.6
		c-0.2-0.5-0.3-1.4-0.3-2.7v-1.8c0-0.9-0.1-1.6-0.3-2.2c-0.1-0.5-0.4-1-0.8-1.5l-1,2.3c0.3,0.3,0.5,0.5,0.6,0.7
		c0.2,0.3,0.3,0.8,0.3,1.4v2.6c0,1.6,0.2,2.7,0.5,3.3c0.3,0.6,0.8,0.9,1.6,0.9h0.6h0.6h5.2v-2.4c0-1.1-0.1-2-0.3-2.6
		C128.8,23.6,128.4,23,128,22.5z"/>
	<path class="st0" d="M139,22.2c-0.5-1.5-1.2-2.9-2.2-4.2H135c0.8,1.9,1.4,3.5,1.7,4.8s0.5,2.7,0.5,4.2c0,0.7,0,1.4-0.1,2.1
		s-0.2,1.4-0.4,2.2s-0.4,1.4-0.6,2c-0.2,0.6-0.6,1.4-1.1,2.5h1.8c1.1-1.6,1.8-3.3,2.3-4.9c0.4-1.5,0.6-2.9,0.6-4.2
		C139.8,25.2,139.5,23.7,139,22.2z"/>
</g>
</svg>
