<?xml version="1.0" encoding="utf-8"?>
<!-- Generator: Adobe Illustrator 23.0.2, SVG Export Plug-In . SVG Version: 6.00 Build 0)  -->
<svg version="1.1" id="Layer_1" xmlns="http://www.w3.org/2000/svg" xmlns:xlink="http://www.w3.org/1999/xlink" x="0px" y="0px"
	 viewBox="0 0 36.6 28.6" style="enable-background:new 0 0 36.6 28.6;" xml:space="preserve">
<g>
	<g>
		<path d="M17.8,4.4c0.5,0.3,1.2,0.1,1.4-0.4c0.3-0.5,0.1-1.2-0.4-1.4c-0.5-0.3-1.2-0.1-1.4,0.4C17.1,3.5,17.3,4.1,17.8,4.4"/>
	</g>
	<g>
		<path d="M18.3,26.2c-0.6,0-1.3,0-1.7-0.1c-1.9-0.3-3.5-1.1-4.9-2.6c-3.1-3.4-3.5-8.2-1.1-14.1c0.1-0.3,0.5-0.5,0.9-0.4
			c0.3,0.1,0.5,0.5,0.4,0.9c-2.1,5.3-1.8,9.7,0.9,12.6c1.1,1.2,2.5,1.9,4,2.1c0.7,0.1,2.3,0.1,2.9,0c1.6-0.2,3-1,4-2.1
			c2.9-3.1,3.2-6.8,1.1-12.8c-0.1-0.4,0.1-0.7,0.4-0.9c0.3-0.1,0.7,0.1,0.9,0.4c2.4,6.5,2,10.6-1.3,14.2c-1.3,1.3-2.9,2.2-4.8,2.5
			C19.5,26.1,18.9,26.2,18.3,26.2z"/>
	</g>
</g>
</svg>
