<?xml version="1.0" encoding="utf-8"?>
<!-- Generator: Adobe Illustrator 22.0.1, SVG Export Plug-In . SVG Version: 6.00 Build 0)  -->
<svg version="1.1" id="Layer_1" xmlns="http://www.w3.org/2000/svg" xmlns:xlink="http://www.w3.org/1999/xlink" x="0px" y="0px"
	 viewBox="0 0 86.2 86.2" style="enable-background:new 0 0 86.2 86.2;" xml:space="preserve">
<style type="text/css">
	.st0{fill:#235958;}
</style>
<path class="st0" d="M49.9,20.1c0,2-0.6,3.3-1.8,4.1l-11,6.3c0-1.1,0.2-2,0.5-2.5s1-1,2-1.6L49.9,20.1z"/>
<path class="st0" d="M60,39.8c-1.5-3.3-3.3-5-5.4-5c-2,0-3.7,1.3-5.1,4c-0.8,2.1-1.6,4.2-2.5,6.3c-1.1,2.8-2.9,4.2-5.3,4.2h-0.6H39
	H25.9v8.8H39h2.1h0.7c1,0,2.1-0.8,3.3-2.4c1.2-1.4,1.9-2.7,2.3-3.7c4.3,2.1,7.4,3.2,9.1,3.2s3-0.9,4-2.6c0.8-1.5,1.3-3.1,1.3-5
	C61.8,45.1,61.2,42.5,60,39.8z M55.8,47.1c-1.1,0-3.1-0.8-6-2.5c0.8-1.6,1.8-2.4,3-2.4c1.1,0,2,0.4,2.9,1.1c0.9,0.7,1.3,1.6,1.3,2.6
	C57,46.7,56.6,47.1,55.8,47.1z"/>
</svg>
