<?xml version="1.0" encoding="utf-8"?>
<!-- Generator: Adobe Illustrator 22.0.1, SVG Export Plug-In . SVG Version: 6.00 Build 0)  -->
<svg version="1.1" id="Layer_1" xmlns="http://www.w3.org/2000/svg" xmlns:xlink="http://www.w3.org/1999/xlink" x="0px" y="0px"
	 viewBox="0 0 86.2 86.2" style="enable-background:new 0 0 86.2 86.2;" xml:space="preserve">
<style type="text/css">
	.st0{fill:#235958;}
</style>
<path class="st0" d="M51,33.4v-0.6l1.3,0.6l3.5-6.1c-1.9,0.3-3.5-0.2-4.9-1.6s-2.1-3-2.3-4.9c-1.7,0.8-2.9,2.8-3.7,6
	c0.3,0.6,0.5,1,0.8,1.4c0.1,2.7,0.8,7.2,2.1,13.5c1.1,5.9,1.7,10.3,1.7,13.1c0,2.5-1.2,3.8-3.7,3.8h-1.2h-2H30.1V67h12.5h2h0.6
	c2.8,0,4.9-1.3,6.4-4c1.2-2.2,1.8-4.8,1.8-7.9c0-2.4-0.4-6-1.2-10.9C51.4,39.5,51,35.8,51,33.4z"/>
<g>
	<path class="st0" d="M43.6,18.5l-0.3,3.7c-0.6-0.4-1.6-1-3-1.9c-2.9,3.6-5.4,5.4-7.5,5.4c-0.5,0-1.2-0.1-2.3-0.4
		c2.4-1.3,5-3.2,8-5.9c-1.6-1.3-2.3-2.4-2.3-3.5c0-1.3,0.5-2.7,1.4-4.2s2-2.3,3.2-2.3c1.6,0,2.4,1.1,2.4,3.3c0,1.6-0.4,3.1-1.1,4.5
		C42.7,17.7,43.2,18.1,43.6,18.5z M41,15.1c0-0.5-0.2-1-0.6-1.6c-0.4-0.6-0.8-0.8-1.3-0.8s-0.8,0.3-0.8,1c0,0.5,0.9,1.3,2.6,2.6
		C41,15.6,41,15.2,41,15.1z"/>
</g>
</svg>
