<?xml version="1.0" encoding="utf-8"?>
<!-- Generator: Adobe Illustrator 22.0.1, SVG Export Plug-In . SVG Version: 6.00 Build 0)  -->
<svg version="1.1" id="Layer_1" xmlns="http://www.w3.org/2000/svg" xmlns:xlink="http://www.w3.org/1999/xlink" x="0px" y="0px"
	 viewBox="0 0 86.2 86.2" style="enable-background:new 0 0 86.2 86.2;" xml:space="preserve">
<style type="text/css">
	.st0{fill:#235958;}
</style>
<path class="st0" d="M53.4,37.3h-1H52c-4.6,0-7.7-0.3-9.2-1c-1.2-0.6-3.9-2.8-8.1-6.5c-0.4,1.1-0.9,2-1.3,2.5
	c-1.2,0.8-2.1,1.4-2.8,1.8c-2.8,1.6-4.9,3.4-6.1,5.4c-1.2,2.1-1.9,4.7-1.9,8c0,6.1,1.5,15,4.4,26.9l2.1-2.1
	c-0.8-3.9-1.4-6.7-1.8-8.6l-1.4-8.4c-0.5-3.2-0.8-5-0.8-5.5c0-2,0.4-3.5,1.2-4.4c0.8-0.9,2.2-1.7,4.3-2.3c0.1,2.8,0.7,5.4,1.8,7.6
	c1.5,2.7,3.5,4.1,6.1,4.1c1.3,0,2.5-0.7,3.4-2c0.8-1.2,1.1-2.6,1.1-4c0-0.6-0.3-2.1-0.8-4.7c1.4,1.1,3.9,1.7,7.4,1.7h2.8h1h13.4
	v-8.4H53.4V37.3z"/>
</svg>
