<?xml version="1.0" encoding="utf-8"?>
<!-- Generator: Adobe Illustrator 22.0.1, SVG Export Plug-In . SVG Version: 6.00 Build 0)  -->
<svg version="1.1" id="Layer_1" xmlns="http://www.w3.org/2000/svg" xmlns:xlink="http://www.w3.org/1999/xlink" x="0px" y="0px"
	 viewBox="0 0 86.2 86.2" style="enable-background:new 0 0 86.2 86.2;" xml:space="preserve">
<style type="text/css">
	.st0{fill:#235958;}
</style>
<path class="st0" d="M45.4,14.3c0,2-0.6,3.3-1.8,4.1l-11,6.3c0-1.1,0.2-2,0.5-2.5s1-1,2-1.6L45.4,14.3z"/>
<g>
	<polygon class="st0" points="53.9,23.9 51,28.6 46.3,25 43.1,30.2 48.4,34.1 50.9,29.7 55.8,33.1 59,27.9 	"/>
	<path class="st0" d="M48.7,43.3c0,0.7,0.5,1.7,1.5,2.8s1.5,1.8,1.5,2.1c0,1.4-1.6,2-4.9,2H45h-2.2h-13V59h13H45h0.6
		c3.4,0,5.9-1.4,7.6-4.2c1.4-2.4,2.1-5.4,2.1-9c0-3.2-1-6.9-3-11.3C49.9,39.4,48.7,42.3,48.7,43.3z"/>
</g>
</svg>
