<?xml version="1.0" encoding="utf-8"?>
<!-- Generator: Adobe Illustrator 16.0.0, SVG Export Plug-In . SVG Version: 6.00 Build 0)  -->
<!DOCTYPE svg PUBLIC "-//W3C//DTD SVG 1.1//EN" "http://www.w3.org/Graphics/SVG/1.1/DTD/svg11.dtd">
<svg version="1.1" id="Layer_1" xmlns="http://www.w3.org/2000/svg" xmlns:xlink="http://www.w3.org/1999/xlink" x="0px" y="0px"
	 width="1008.489px" height="508.795px" viewBox="1090.863 95.722 1008.489 508.795"
	 enable-background="new 1090.863 95.722 1008.489 508.795" xml:space="preserve">
<g>
	<g>
		<g>
			<g>
				<path d="M1713.438,157.161c0,31.857-18.204,72.818-54.613,122.88l52.338,34.134l-29.583,43.235l-52.337-29.582
					c-40.96,47.786-100.125,88.746-179.77,129.706l-22.756-40.96c59.165-31.857,113.778-70.542,161.565-116.054
					c-38.685-27.307-59.165-56.888-59.165-88.746c0-29.582,11.378-56.889,36.409-79.645c22.756-22.755,50.063-36.408,79.645-36.408
					C1690.682,95.722,1713.438,116.201,1713.438,157.161z M1656.549,182.193c0-22.756-9.103-34.134-29.583-34.134
					c-13.653,0-22.755,6.827-31.857,18.205c-6.826,13.653-11.378,25.031-11.378,38.685c0,20.479,13.653,36.408,38.685,50.062
					C1645.171,225.428,1656.549,200.397,1656.549,182.193z"/>
			</g>
		</g>
	</g>
	
		<line fill="none" stroke="#000000" stroke-width="30" stroke-linecap="round" stroke-linejoin="round" stroke-miterlimit="10" x1="1105.863" y1="589.517" x2="2084.353" y2="589.517"/>
</g>
</svg>
