<?xml version="1.0" encoding="utf-8"?>
<!-- Generator: Adobe Illustrator 23.0.2, SVG Export Plug-In . SVG Version: 6.00 Build 0)  -->
<svg version="1.1" id="Layer_1" xmlns="http://www.w3.org/2000/svg" xmlns:xlink="http://www.w3.org/1999/xlink" x="0px" y="0px"
	 viewBox="0 0 36.6 28.6" style="enable-background:new 0 0 36.6 28.6;" xml:space="preserve">
<style type="text/css">
	.st0{fill:#FFFFFF;}
</style>
<g>
	<g>
		<g>
			<path class="st0" d="M20.5,20.1H8.1c-3.6,0-4.5-2.8-4.5-4.5c0-1.8,0.2-3.1,0.2-3.3l0,0c0.1-0.4,0.4-0.6,0.8-0.6
				c0.3,0.1,0.6,0.5,0.5,0.8l0,0l0,0c0,0.2-0.2,1.4-0.2,3.1c0,0.1,0,1,0.4,1.7c0.5,0.9,1.4,1.4,2.7,1.4h12.4c1.3,0,2.2-0.5,2.7-1.5
				c0.4-0.8,0.5-1.6,0.5-1.7c0-1.1,0-2.9,0-3.1c0-0.4,0.2-0.7,0.6-0.7s0.7,0.2,0.8,0.6c0,0.1,0,0.2,0,3.2l0,0c0,0,0,1.1-0.6,2.2
				C23.9,18.9,22.7,20.1,20.5,20.1z M23.6,12.5C23.6,12.6,23.6,12.6,23.6,12.5C23.6,12.6,23.6,12.6,23.6,12.5z"/>
		</g>
		<g>
			<path class="st0" d="M32.1,20.1h-4c-2.3,0-3.4-1.2-3.9-2.3c-0.6-1.1-0.6-2.2-0.6-2.2l0,0c0-3.1,0-3.2,0-3.2
				c0-0.4,0.4-0.6,0.8-0.6s0.6,0.4,0.6,0.7c0,0.2,0,2,0,3.1c0,0.1,0.1,0.9,0.5,1.7c0.5,1,1.4,1.5,2.7,1.5h4c0.4,0,0.7,0.3,0.7,0.7
				C32.8,19.8,32.5,20.1,32.1,20.1z M25,12.5C25,12.6,25,12.6,25,12.5C25,12.6,25,12.6,25,12.5z"/>
		</g>
	</g>
	<g>
		<g>
			<path class="st0" d="M15.7,8.5c-0.6,0-1.1,0.5-1.1,1.1s0.5,1.1,1.1,1.1c0.6,0,1.1-0.5,1.1-1.1S16.3,8.5,15.7,8.5"/>
		</g>
		<g>
			<path class="st0" d="M13,8.5c-0.6,0-1.1,0.5-1.1,1.1s0.5,1.1,1.1,1.1s1.1-0.5,1.1-1.1S13.6,8.5,13,8.5"/>
		</g>
	</g>
</g>
</svg>
