<?xml version="1.0" encoding="utf-8"?>
<!-- Generator: Adobe Illustrator 23.0.2, SVG Export Plug-In . SVG Version: 6.00 Build 0)  -->
<svg version="1.1" id="Layer_1" xmlns="http://www.w3.org/2000/svg" xmlns:xlink="http://www.w3.org/1999/xlink" x="0px" y="0px"
	 viewBox="0 0 36.6 28.6" style="enable-background:new 0 0 36.6 28.6;" xml:space="preserve">
<g>
	<g>
		<g>
			<path d="M16.2,20.6H9.3c-0.4,0-0.6-0.3-0.6-0.6s0.3-0.6,0.6-0.6h6.9c0.5,0,0.9-0.1,1.1-0.4c0.2-0.2,0.3-0.5,0.3-0.9v-5.2
				c0-0.4,0.3-0.6,0.6-0.6s0.6,0.3,0.6,0.6v5.2c0,0.7-0.3,1.4-0.7,1.9C17.9,20.1,17.2,20.6,16.2,20.6z"/>
		</g>
		<g>
			<path d="M27.3,20.6h-7c-0.2,0-1.2-0.1-1.9-0.7c-0.5-0.5-0.7-1.2-0.7-1.9v-5.2c0-0.4,0.3-0.6,0.6-0.6s0.6,0.3,0.6,0.6v5.2
				c0,0.4,0.1,0.8,0.3,0.9c0.4,0.3,0.9,0.4,1.1,0.4l7,0c0.4,0,0.6,0.3,0.6,0.6S27.7,20.6,27.3,20.6z"/>
		</g>
	</g>
	<g>
		<path d="M17,10c0.6,0,1-0.5,1-1c0-0.6-0.5-1-1-1s-1,0.5-1,1C16,9.6,16.4,10,17,10"/>
		<path d="M19.6,10c0.6,0,1-0.5,1-1c0-0.6-0.5-1-1-1s-1,0.5-1,1C18.6,9.6,19,10,19.6,10"/>
	</g>
</g>
</svg>
