<?xml version="1.0" encoding="utf-8"?>
<!-- Generator: Adobe Illustrator 22.0.1, SVG Export Plug-In . SVG Version: 6.00 Build 0)  -->
<svg version="1.1" id="Layer_1" xmlns="http://www.w3.org/2000/svg" xmlns:xlink="http://www.w3.org/1999/xlink" x="0px" y="0px"
	 viewBox="0 0 84.6 55" style="enable-background:new 0 0 84.6 55;" xml:space="preserve">
<style type="text/css">
	.st0{fill:#542C0B;}
	.st1{fill:none;}
</style>
<path class="st0" d="M51,27.6c-0.3-0.6-0.7-1.3-1.2-2.1c-0.6,0.1-1.1,0.4-1.7,0.8c-0.7,0.5-1.2,1-1.7,1.7c-0.3,0.5-0.7,0.8-1.1,1.1
	c-0.5,0.3-1.1,0.5-1.8,0.5h-0.8h-0.9h-0.1c-0.5,0-1-0.1-1.4-0.3c-0.4-0.2-0.8-0.6-1.2-1.1c0.1-0.1,0.3-0.3,0.6-0.5s0.4-0.5,0.4-0.9
	c0-0.6-0.3-1-0.8-1.4c-0.5-0.3-1.1-0.5-1.7-0.5c-1,0-1.7,0.4-2.1,1.1c-0.2,0.3-0.3,0.8-0.5,1.6h0.3c0.2-0.3,0.4-0.4,0.6-0.4
	c0.1,0,0.3,0.1,0.4,0.2c0.1,0.2,0.2,0.3,0.3,0.6c-0.9,0.7-1.4,1.3-1.7,1.6c-0.6,0.7-1.1,1.4-1.4,2.1c-0.4,0.9-0.6,1.9-0.6,2.9
	c0,1.5,0.5,2.7,1.6,3.6c0.8,0.6,1.9,1.1,3.4,1.3c0.8,0.1,1.9,0.2,3.3,0.2l2.3-1.8c-1.6,0-2.8-0.1-3.6-0.1c-1.7-0.2-3-0.6-4-1.1
	C34.6,36,34,35.1,34,33.8c0-0.6,0.2-1.2,0.6-1.8c0.3-0.5,0.8-1,1.4-1.5c0.5-0.4,1-0.7,1.5-1.1c0.4,0.8,0.9,1.4,1.5,1.7
	c0.7,0.3,1.6,0.5,2.7,0.5h0.1h0.9h0.9c0.9,0,1.5-0.1,2-0.3c0.4-0.2,0.9-0.6,1.3-1.1c0.5,0.5,1.2,0.8,1.9,1.1
	c0.6,0.2,1.2,0.3,1.7,0.3h1.1v-1.9C51.6,29.1,51.4,28.5,51,27.6z M50.3,29.5c-0.4,0-0.9-0.2-1.4-0.4c-0.5-0.2-0.8-0.5-1.1-0.8
	c0.2-0.4,0.4-0.6,0.6-0.8c0.2-0.2,0.5-0.4,0.9-0.5c0.3,0.4,0.5,0.7,0.7,1.1c0.2,0.4,0.3,0.9,0.4,1.3L50.3,29.5z"/>
<rect class="st1" width="84.6" height="55"/>
</svg>
