<?xml version="1.0" encoding="utf-8"?>
<!-- Generator: Adobe Illustrator 19.2.0, SVG Export Plug-In . SVG Version: 6.00 Build 0)  -->
<svg version="1.1" id="Layer_1" xmlns="http://www.w3.org/2000/svg" xmlns:xlink="http://www.w3.org/1999/xlink" x="0px" y="0px"
	 viewBox="0 0 435.7 55" style="enable-background:new 0 0 435.7 55;" xml:space="preserve">
<style type="text/css">
	.st0{fill:#BA0017;}
	.st1{fill:none;}
</style>
<g>
	<g>
		<g>
			<path d="M29.5,39.5c-0.8,0.3-1.5,0.5-2.2,0.8c-0.7,0.3-1.4,0.5-2.1,0.8c-0.1,0.1-0.1,0-0.1-0.1c0.1-0.1,0.1-0.3,0.2-0.5
				c0.1-0.2,0.2-0.3,0.2-0.4c0-0.1,0.1-0.1,0.2-0.2c0.2-0.1,0.4-0.2,0.8-0.3s0.7-0.3,1.1-0.4c0.4-0.1,0.8-0.3,1.2-0.4
				c0.4-0.2,0.9-0.3,1.3-0.4c0.1,0,0.1,0,0.1,0.1c0,0.1-0.1,0.1-0.1,0.2c0,0.1-0.1,0.2-0.1,0.3c0,0.1-0.1,0.2-0.1,0.2
				c0,0.1-0.1,0.1-0.1,0.2C29.7,39.3,29.6,39.4,29.5,39.5C29.6,39.4,29.6,39.5,29.5,39.5z"/>
			<path d="M31.6,33c-0.1-1-0.2-1.9-0.4-2.8c-0.1-0.9-0.3-1.8-0.4-2.7s-0.3-1.8-0.4-2.7c-0.1-0.9-0.3-1.8-0.4-2.8
				c0-0.3-0.1-0.6-0.1-0.9c0-0.3-0.2-0.6-0.3-0.9c-0.1-0.1-0.1-0.1-0.1-0.2c0,0,0-0.1,0.1-0.2c0.1-0.2,0.2-0.4,0.3-0.7
				c0.1-0.2,0.2-0.4,0.3-0.6c0-0.1,0.1-0.1,0.1-0.1c0,0,0.1,0,0.1,0.1c0.1,0.2,0.1,0.4,0.2,0.6c0.1,0.2,0.2,0.4,0.3,0.6
				s0.2,0.3,0.4,0.5c0.1,0.2,0.3,0.3,0.5,0.4c-0.1,0.2-0.2,0.3-0.3,0.5c-0.1,0.1-0.1,0.2-0.2,0.4c-0.1,0.1-0.1,0.2-0.1,0.3
				c0,0.1,0,0.2,0,0.3c0,0.2,0.1,0.6,0.1,1.2c0,0.3,0.1,0.6,0.1,0.8c0,0.2,0.1,0.4,0.1,0.5c0.1,0.4,0.1,0.8,0.2,1.3
				c0.1,0.5,0.1,1.1,0.2,1.6c0,0.3,0.1,0.7,0.1,1.1c0.1,0.5,0.1,1.1,0.2,1.7c0.2,1.4,0.2,2.1,0.2,2.1c0,0.7-0.2,1.3-0.5,1.8
				s-0.7,1-1.2,1.4c-0.5,0.4-1,0.7-1.7,0.9c-0.6,0.2-1.3,0.3-1.9,0.3c-0.6,0-1.2-0.1-1.7-0.3c-0.5-0.2-1-0.5-1.4-0.8
				c-0.4-0.4-0.7-0.8-0.9-1.3c-0.2-0.5-0.3-1.1-0.3-1.7c0-0.7,0.1-1.3,0.3-2c0.2-0.6,0.5-1.3,0.9-1.8c0-0.1,0.1-0.1,0.1-0.1
				c0,0,0.1,0,0.1,0.1c0,0,0,0.1,0,0.1c0,0,0,0.1,0,0.1c-0.4,0.7-0.6,1.4-0.7,2.1s0,1.3,0.2,1.9c0.1,0.3,0.3,0.6,0.5,0.8
				c0.2,0.2,0.4,0.5,0.7,0.6s0.6,0.3,1,0.4s0.8,0.1,1.2,0.1c0.4,0,0.8,0,1.3-0.1s0.8-0.2,1.2-0.4s0.7-0.4,1.1-0.7S31.3,33.3,31.6,33
				z"/>
			<path d="M40.1,33.8l-1.1,0c-0.3,0-0.6,0-0.9-0.1c-0.3-0.1-0.5-0.2-0.7-0.4c-0.2-0.2-0.4-0.4-0.5-0.6c-0.1-0.2-0.1-0.5-0.1-0.8
				c0-0.1,0.1-0.3,0.1-0.5c0.1-0.2,0.1-0.4,0.2-0.6s0.2-0.4,0.3-0.6c0.1-0.2,0.3-0.4,0.4-0.5s0.3-0.3,0.5-0.4s0.3-0.1,0.5-0.1
				c0.3,0,0.5,0.1,0.7,0.3c0.2,0.2,0.4,0.5,0.6,0.8c0.2,0.3,0.3,0.6,0.4,0.9c0.1,0.3,0.2,0.6,0.2,0.8l0.9,0h0.2
				c0.2,0,0.4,0.1,0.5,0.3s0.2,0.4,0.2,0.6c0,0.2-0.1,0.4-0.2,0.6c-0.1,0.2-0.3,0.3-0.5,0.3h-0.2l-0.9,0c-0.1,0.6-0.3,1.3-0.5,1.8
				s-0.4,1.1-0.7,1.6c-0.3,0.5-0.6,0.9-1,1.3c-0.4,0.4-0.9,0.7-1.4,0.9c-0.4,0.1-0.8,0.2-1.3,0.2c-0.5,0-1,0.1-1.5,0
				c-0.5,0-1-0.1-1.5-0.1c-0.5-0.1-0.9-0.2-1.3-0.3c-0.1,0-0.2-0.1-0.2-0.1c0-0.1,0-0.1,0-0.2c0-0.1,0.1-0.1,0.1-0.2
				c0.1,0,0.2-0.1,0.3-0.1c0.4,0,0.8,0.1,1.3,0c0.5,0,0.9,0,1.4-0.1c0.4-0.1,0.9-0.2,1.3-0.3c0.4-0.1,0.8-0.3,1.2-0.5
				c0.4-0.2,0.8-0.5,1.1-0.8c0.3-0.3,0.6-0.7,0.9-1s0.5-0.7,0.7-1.1C39.8,34.6,39.9,34.2,40.1,33.8z M38.4,31c-0.1,0-0.2,0-0.3,0.1
				s-0.2,0.1-0.3,0.2c-0.1,0.1-0.1,0.2-0.2,0.3c0,0.1-0.1,0.2-0.1,0.2c0,0.1,0.2,0.2,0.3,0.2c0.2,0,0.4,0.1,0.6,0.1
				c0.2,0,0.4,0,0.7,0c0.2,0,0.4,0,0.5,0c0,0,0-0.1-0.1-0.2c-0.1-0.1-0.2-0.2-0.3-0.4c-0.1-0.1-0.3-0.3-0.4-0.4
				C38.7,31,38.6,31,38.4,31z"/>
			<path d="M48,18.9c-0.4,0.2-0.8,0.3-1.2,0.5c-0.4,0.2-0.8,0.4-1.3,0.5c-0.4,0.2-0.8,0.3-1.1,0.5c-0.3,0.2-0.6,0.3-0.8,0.4
				c-0.1,0-0.1,0-0.1,0c0,0,0-0.1,0-0.1c0-0.1,0.1-0.1,0.1-0.2c0.1-0.1,0.1-0.2,0.2-0.3s0.1-0.2,0.2-0.3c0.1-0.1,0.1-0.2,0.1-0.2
				c0.1-0.1,0.1-0.2,0.2-0.2l4.3-1.8c0.1-0.1,0.1,0,0.1,0.1c0,0.1-0.1,0.1-0.1,0.2s-0.1,0.2-0.1,0.3s-0.1,0.2-0.1,0.3
				s-0.1,0.2-0.1,0.2C48.1,18.8,48.1,18.9,48,18.9z"/>
			<path d="M47.7,26.6c0.3,0,0.5,0.2,0.7,0.4c0.2,0.2,0.3,0.5,0.4,0.9C49,28.3,49,28.6,49,29c0,0.4,0,0.7-0.1,1
				c-0.1,0.3-0.2,0.6-0.4,0.9c-0.2,0.3-0.3,0.5-0.6,0.8c0.1,0.1,0.3,0.1,0.5,0.2s0.4,0.1,0.6,0.1c0.2,0,0.4,0,0.6,0
				c0.2,0,0.4,0,0.6,0h0.2c0.2,0,0.3,0.1,0.4,0.1c0.1,0.1,0.2,0.2,0.2,0.3c0.1,0.1,0.1,0.3,0.1,0.4c0,0.2,0,0.3-0.1,0.4
				c-0.1,0.1-0.1,0.2-0.2,0.3c-0.1,0.1-0.2,0.1-0.4,0.1h-0.2c-0.8,0-1.6-0.1-2.4-0.3c-0.7-0.2-1.4-0.4-2-0.8
				c-0.3,0.2-0.6,0.3-0.9,0.4c-0.3,0.1-0.6,0.2-1,0.3c-0.3,0.1-0.7,0.2-1.1,0.2c-0.4,0-0.8,0.1-1.2,0.1h-0.2c-0.2,0-0.4-0.1-0.5-0.3
				c-0.1-0.2-0.2-0.4-0.2-0.6c0-0.2,0.1-0.4,0.2-0.6c0.1-0.2,0.3-0.3,0.5-0.3h0.2c0.2,0,0.5,0,0.7,0c0.2,0,0.4,0,0.7-0.1
				c0.2,0,0.4-0.1,0.7-0.1c0.2-0.1,0.5-0.1,0.8-0.2c-0.1-0.1-0.1-0.3-0.2-0.5c0-0.2,0-0.4,0-0.6c0-0.5,0.2-1,0.4-1.5
				c0.2-0.5,0.5-0.9,0.9-1.3c0.3-0.4,0.7-0.7,1.1-0.9C47.1,26.7,47.4,26.6,47.7,26.6z M48.1,24.4c-0.1,0-0.2,0-0.2,0l-1.3-1
				l-0.8,1.2c0,0-0.1,0.1-0.1,0.1c0,0-0.1,0-0.1,0l-1.4-1c0,0,0,0-0.1-0.1s0,0,0-0.1l0.9-1.2c0,0,0.1-0.1,0.1-0.1c0,0,0.1,0,0.1,0
				l1.4,1l0.9-1.2c0,0,0.1-0.1,0.1-0.1c0,0,0,0,0.1,0l1.4,1c0.1,0,0.1,0.1,0,0.2L48.1,24.4z M48.2,30c0-0.2,0-0.4-0.1-0.7
				c-0.1-0.2-0.2-0.4-0.3-0.6c-0.1-0.1-0.2-0.2-0.3-0.2c-0.1,0-0.2,0-0.3,0c-0.1,0-0.3,0.1-0.5,0.1s-0.4,0.2-0.6,0.3
				c-0.2,0.1-0.3,0.3-0.5,0.4c-0.1,0.2-0.3,0.3-0.3,0.5c0,0.2,0.1,0.4,0.1,0.5c0.1,0.2,0.2,0.3,0.3,0.4c0.1,0.1,0.2,0.2,0.4,0.3
				s0.2,0.1,0.3,0.2c0.1,0,0.2-0.1,0.4-0.1c0.2-0.1,0.4-0.2,0.6-0.3c0.2-0.1,0.4-0.2,0.5-0.3C48,30.2,48.1,30.1,48.2,30z"/>
			<path d="M53,18.6c0-0.1,0.1-0.1,0.1-0.1c0,0,0.1,0,0.1,0.1c0.1,0.2,0.1,0.4,0.2,0.6c0.1,0.2,0.2,0.4,0.3,0.5
				c0.1,0.2,0.2,0.3,0.4,0.5s0.3,0.3,0.5,0.4c-0.1,0.2-0.2,0.3-0.3,0.5c-0.1,0.1-0.1,0.3-0.2,0.4s-0.1,0.2-0.1,0.3
				c0,0.1,0,0.2,0,0.3c0.1,0.7,0.2,1.4,0.3,2.2c0.1,0.7,0.2,1.4,0.3,2.1c0.1,0.7,0.2,1.4,0.3,2.1s0.1,1.4,0.2,2.2
				c0,0.2,0,0.4-0.1,0.6c0,0.2-0.1,0.4-0.1,0.6c-0.1,0.2-0.1,0.4-0.2,0.6c-0.1,0.2-0.2,0.3-0.3,0.5c-0.2,0.2-0.5,0.4-0.8,0.5
				c-0.3,0.1-0.7,0.2-1,0.3c-0.4,0.1-0.7,0.1-1.1,0.1c-0.4,0-0.7,0-0.9,0h-0.2c-0.2,0-0.4-0.1-0.5-0.3c-0.1-0.2-0.2-0.4-0.2-0.6
				c0-0.2,0.1-0.4,0.2-0.6c0.1-0.2,0.3-0.3,0.5-0.3h0.2c0.1,0,0.2,0,0.4,0c0.2,0,0.4,0,0.7,0s0.5,0,0.8-0.1s0.6-0.1,0.8-0.1
				s0.5-0.1,0.7-0.2s0.3-0.2,0.4-0.3c-0.1-1.6-0.3-3.1-0.6-4.7c-0.2-1.5-0.5-3.1-0.7-4.6c0-0.3-0.1-0.6-0.2-0.9
				c-0.1-0.3-0.2-0.6-0.4-0.9c-0.1-0.1-0.1-0.1-0.1-0.2c0,0,0-0.1,0.1-0.2c0.1-0.2,0.3-0.4,0.4-0.7S52.9,18.8,53,18.6z"/>
			<path d="M58.2,19.2c0.1,0,0.1,0,0.1,0.1c0,0,0,0.1,0,0.1c0,0,0,0.1,0,0.1s0,0.1,0,0.1c0,0.3,0,0.6,0,0.8s0.1,0.5,0.1,0.8
				c0.1,0.7,0.2,1.4,0.3,2.1c0.1,0.7,0.2,1.4,0.3,2.1s0.2,1.4,0.3,2.1c0.1,0.7,0.2,1.4,0.3,2.1c0,0.3,0,0.6,0.1,0.9
				c0,0.4,0,0.7,0,1.1c0,0.4-0.1,0.7-0.1,1c-0.1,0.3-0.1,0.6-0.2,0.9c0,0.1-0.1,0.2-0.2,0.2c-0.1,0-0.1,0-0.1-0.1
				c-0.1-1.3-0.2-2.6-0.4-4c-0.2-1.4-0.4-2.8-0.6-4.2c-0.2-1.4-0.4-2.8-0.5-4.2c0-0.3,0.1-0.7,0.3-1.1c0.1-0.2,0.2-0.4,0.2-0.6
				C58,19.5,58.1,19.4,58.2,19.2z"/>
			<path d="M73.7,22.3c-0.4,0.2-0.8,0.3-1.2,0.5s-0.8,0.4-1.3,0.5s-0.8,0.3-1.1,0.5c-0.3,0.2-0.6,0.3-0.8,0.4c-0.1,0-0.1,0-0.1,0
				c0,0,0-0.1,0-0.1c0-0.1,0.1-0.1,0.1-0.2c0.1-0.1,0.1-0.2,0.2-0.3s0.1-0.2,0.2-0.3c0.1-0.1,0.1-0.2,0.1-0.2
				c0.1-0.1,0.1-0.2,0.2-0.2l4.3-1.8c0.1-0.1,0.1,0,0.1,0.1c0,0.1-0.1,0.1-0.1,0.2s-0.1,0.2-0.1,0.3s-0.1,0.2-0.1,0.3
				s-0.1,0.2-0.1,0.2C73.8,22.2,73.8,22.2,73.7,22.3z"/>
			<path d="M74.9,31.9c0.1-0.3,0.2-0.6,0.2-0.9c0.1-0.3,0.2-0.5,0.3-0.8c0-0.1,0.1-0.1,0.1-0.1c0,0,0.1,0,0.1,0.1
				c0.2,0.2,0.3,0.5,0.5,0.8s0.3,0.5,0.5,0.8c0.1,0.1,0.2,0.1,0.3,0.2c0.1,0,0.3,0.1,0.4,0.1s0.3,0,0.4,0c0.1,0,0.2,0,0.3,0h0.2
				c0.2,0,0.4,0.1,0.5,0.3s0.2,0.4,0.2,0.6c0,0.2-0.1,0.4-0.2,0.6s-0.3,0.3-0.5,0.3H78c-0.4,0-0.8,0-1.1-0.1c0,0.4,0.1,0.9,0.1,1.3
				s0,0.9-0.1,1.4c-0.1,0.8-0.4,1.4-0.8,1.9s-0.9,1-1.5,1.3c-0.6,0.3-1.3,0.6-2,0.8c-0.7,0.2-1.4,0.2-2.1,0.2
				c-0.6,0-1.2-0.1-1.7-0.3s-1-0.5-1.4-0.8c-0.4-0.4-0.7-0.8-0.9-1.3s-0.3-1.1-0.3-1.7c0-0.7,0.1-1.4,0.3-2s0.5-1.3,0.9-1.9
				c0-0.1,0.1-0.1,0.1-0.1c0,0,0.1,0,0.1,0.1c0,0,0,0.1,0,0.1c0,0,0,0.1,0,0.1c-0.4,0.7-0.6,1.4-0.7,2.1s0,1.4,0.2,1.9
				c0.1,0.3,0.3,0.6,0.5,0.8c0.2,0.2,0.4,0.4,0.7,0.6s0.6,0.3,1,0.4s0.8,0.1,1.2,0.1c0.5,0,1,0,1.6-0.1c0.5-0.1,1-0.2,1.5-0.4
				c0.5-0.2,0.9-0.4,1.4-0.7c0.4-0.3,0.8-0.7,1.2-1.1c0-0.4,0-0.7-0.1-1.1s-0.2-0.8-0.3-1.2c-0.1-0.4-0.3-0.8-0.4-1.2
				C75.2,32.6,75,32.2,74.9,31.9z M72.5,27l1.4,1.1c0.1,0.1,0.1,0.1,0,0.2L73,29.5c-0.1,0.1-0.1,0.1-0.2,0l-1.4-1.1
				c-0.1-0.1-0.1-0.1,0-0.2l0.9-1.1C72.4,27,72.5,27,72.5,27z"/>
			<path d="M84.1,36.4c-0.8,0.3-1.5,0.5-2.2,0.8s-1.4,0.5-2.1,0.8c-0.1,0.1-0.1,0-0.1-0.1c0.1-0.1,0.1-0.3,0.2-0.5s0.2-0.3,0.2-0.4
				c0-0.1,0.1-0.1,0.2-0.2c0.2-0.1,0.4-0.2,0.8-0.3s0.7-0.3,1.1-0.4c0.4-0.1,0.8-0.3,1.2-0.4c0.4-0.2,0.9-0.3,1.3-0.4
				c0.1,0,0.1,0,0.1,0.1c0,0.1-0.1,0.1-0.1,0.2s-0.1,0.2-0.1,0.3s-0.1,0.2-0.1,0.2c0,0.1-0.1,0.1-0.1,0.2
				C84.2,36.3,84.2,36.3,84.1,36.4C84.2,36.3,84.1,36.4,84.1,36.4z"/>
			<path d="M78,32.1c0.3,0,0.6,0,0.9,0c0.3,0,0.6-0.1,0.9-0.1c0.3-0.1,0.5-0.2,0.7-0.3c0.2-0.1,0.4-0.3,0.5-0.5
				c0.2-0.4,0.4-0.8,0.6-1.2s0.4-0.8,0.6-1.2c0.1-0.1,0.2-0.3,0.3-0.5s0.3-0.3,0.5-0.5c0.2-0.2,0.3-0.3,0.5-0.4
				c0.2-0.1,0.3-0.1,0.5-0.1c0.2,0,0.4,0.1,0.6,0.2s0.3,0.3,0.5,0.5s0.3,0.4,0.4,0.7c0.1,0.3,0.2,0.5,0.3,0.8
				c0.1,0.3,0.2,0.5,0.2,0.7c0,0.2,0.1,0.4,0.1,0.6c0,0.2,0,0.3-0.1,0.5S86,31.5,86,31.7c-0.1,0.2-0.1,0.3-0.2,0.4
				c-0.1,0.1-0.2,0.2-0.4,0.3c-0.2,0.1-0.4,0.1-0.7,0.1c-0.3,0-0.6-0.1-1-0.2s-0.7-0.2-1.1-0.4c-0.4-0.2-0.7-0.3-1-0.6
				c-0.3,0.9-0.7,1.5-1.3,1.9s-1.3,0.6-2.2,0.6h-0.2c-0.2,0-0.4-0.1-0.5-0.3s-0.2-0.4-0.2-0.6c0-0.2,0.1-0.4,0.2-0.6
				s0.3-0.3,0.5-0.3H78z M85.1,30.7c0,0,0-0.1,0-0.2c0-0.1-0.1-0.2-0.2-0.3c-0.1-0.1-0.1-0.2-0.2-0.3c-0.1-0.1-0.1-0.2-0.1-0.2
				c-0.1-0.1-0.1-0.2-0.2-0.3c-0.1-0.1-0.2-0.2-0.3-0.2S83.9,29,83.8,29c-0.1,0-0.2-0.1-0.4-0.1c-0.1,0-0.2,0-0.4,0.1
				c-0.1,0.1-0.2,0.1-0.3,0.2s-0.2,0.2-0.3,0.3c-0.1,0.1-0.1,0.2-0.2,0.3c0.4,0.3,0.8,0.5,1.3,0.7S84.5,30.7,85.1,30.7z"/>
			<path d="M97.4,42.3c-0.8,0.3-1.5,0.5-2.2,0.8s-1.4,0.5-2.1,0.8c-0.1,0.1-0.1,0-0.1-0.1c0.1-0.1,0.1-0.3,0.2-0.5s0.2-0.3,0.2-0.4
				c0-0.1,0.1-0.1,0.2-0.2c0.2-0.1,0.4-0.2,0.8-0.3s0.7-0.3,1.1-0.4c0.4-0.1,0.8-0.3,1.2-0.4c0.4-0.2,0.9-0.3,1.3-0.4
				c0.1,0,0.1,0,0.1,0.1c0,0.1-0.1,0.1-0.1,0.2s-0.1,0.2-0.1,0.3s-0.1,0.2-0.1,0.2c0,0.1-0.1,0.1-0.1,0.2
				C97.5,42.2,97.5,42.2,97.4,42.3C97.5,42.2,97.4,42.3,97.4,42.3z"/>
			<path d="M97.3,30.8c0-0.1,0.1-0.1,0.1-0.1s0.1,0.1,0.1,0.1c0.2,0.3,0.5,0.5,0.7,0.7c0.3,0.2,0.5,0.3,0.8,0.3s0.5,0.1,0.8,0.1
				c0.3,0,0.5,0,0.7,0h0.2c0.2,0,0.4,0.1,0.5,0.3c0.1,0.2,0.2,0.4,0.2,0.6c0,0.2-0.1,0.4-0.2,0.6c-0.1,0.2-0.3,0.3-0.5,0.3h-0.2
				c-0.1,0-0.2,0-0.3,0c-0.1,0-0.3,0-0.4,0c-0.1,0-0.3,0-0.4,0c-0.1,0-0.3,0-0.4-0.1c-0.1,0.5-0.2,1-0.4,1.5s-0.3,0.8-0.4,1.2
				c-0.1,0.3-0.3,0.6-0.4,0.9c-0.1,0.2-0.2,0.4-0.3,0.5c-0.3,0.4-0.6,0.7-0.9,0.9s-0.6,0.5-1,0.6c-0.3,0.2-0.7,0.3-1.1,0.4
				s-0.7,0.1-1.1,0.2c-0.5,0-1.1,0-1.8-0.1c-0.6-0.1-1.3-0.3-2-0.5c-0.1,0-0.2-0.1-0.2-0.2c0-0.1,0-0.1,0-0.2c0,0,0.1-0.1,0.2-0.1
				c0.1,0,0.2,0,0.4,0c0.9,0.1,1.8,0.1,2.5-0.1s1.6-0.5,2.3-0.9c0.9-0.5,1.6-1.1,2.2-1.8c0.5-0.7,0.9-1.5,1.1-2.4
				c-0.3-0.1-0.6-0.3-0.8-0.5c-0.3-0.2-0.5-0.4-0.7-0.7c0.1-0.2,0.1-0.5,0.2-0.8C97.1,31.4,97.2,31.1,97.3,30.8z"/>
			<path d="M106.1,26.8c0.1,0,0.2,0.1,0.3,0.2c0.1,0.1,0.1,0.2,0.2,0.4c0.1,0.2,0.1,0.3,0.1,0.5s0.1,0.4,0.1,0.5s0,0.3,0,0.5
				c0,0.2,0,0.3,0,0.3c-0.1,0.6-0.2,1.2-0.4,1.7s-0.5,0.9-1,1.3c0.3,0,0.6-0.1,0.9-0.1s0.6,0,1,0c0.3,0,0.6,0,0.9,0
				c0.3,0,0.6,0,0.9,0h0.2c0.2,0,0.4,0.1,0.5,0.3s0.2,0.4,0.2,0.6c0,0.2-0.1,0.4-0.2,0.6s-0.3,0.3-0.5,0.3h-0.2l-2.1,0
				c0.2,0.3,0.4,0.6,0.5,0.8c0.1,0.3,0.2,0.6,0.2,0.9c0,0.2,0,0.4-0.1,0.7c-0.1,0.2-0.1,0.5-0.3,0.7c-0.1,0.2-0.3,0.4-0.4,0.5
				s-0.4,0.2-0.6,0.3c-0.5,0.1-0.9,0-1.4-0.2c-0.4-0.2-0.8-0.5-1.1-0.8c-0.1-0.2-0.3-0.4-0.4-0.6s-0.3-0.4-0.4-0.7
				c-0.1-0.2-0.2-0.5-0.3-0.7s-0.1-0.5-0.1-0.7c-0.1,0-0.2,0-0.3,0.1s-0.2,0-0.3,0.1c-0.1,0-0.2,0-0.3,0.1c-0.1,0-0.1,0-0.2,0
				c0-0.1,0-0.2,0.1-0.3c0.1-0.1,0.1-0.2,0.1-0.2l-1.2,0h-0.2c-0.3,0-0.5-0.1-0.6-0.3c-0.1-0.2-0.2-0.4-0.2-0.6
				c0-0.2,0.1-0.4,0.2-0.6c0.1-0.2,0.3-0.3,0.5-0.3h0.2c0.4,0,0.8,0,1.2,0c0.4,0,0.7,0,1-0.1c0.1-0.5,0.3-1.1,0.5-1.7
				s0.5-1.1,0.7-1.6c0.1-0.1,0.2-0.3,0.4-0.6s0.3-0.4,0.5-0.7c0.2-0.2,0.4-0.4,0.6-0.5C105.7,26.9,105.9,26.8,106.1,26.8z
				 M103.4,31.9c0.2-0.1,0.4-0.2,0.7-0.3c0.3-0.1,0.5-0.3,0.8-0.4c0.3-0.1,0.5-0.3,0.7-0.5c0.2-0.2,0.4-0.3,0.4-0.5
				c0-0.3,0-0.5-0.1-0.8c-0.1-0.3-0.1-0.5-0.3-0.6c0-0.1-0.1-0.1-0.1-0.1s-0.1-0.1-0.2,0c-0.2,0-0.4,0.2-0.7,0.4
				c-0.2,0.3-0.4,0.5-0.6,0.9s-0.3,0.7-0.5,1S103.4,31.6,103.4,31.9z M103.5,34.1c0.1,0.3,0.3,0.5,0.4,0.7c0.1,0.2,0.3,0.4,0.4,0.6
				c0.2,0.2,0.3,0.3,0.6,0.5c0.2,0.1,0.5,0.2,0.8,0.3c0.1,0,0.2,0,0.3,0s0.3,0,0.4-0.1s0.2-0.1,0.3-0.2c0.1-0.1,0.1-0.2,0.1-0.3
				c0-0.1-0.1-0.3-0.2-0.4c-0.1-0.1-0.3-0.3-0.5-0.4c-0.2-0.1-0.4-0.2-0.7-0.3c-0.3-0.1-0.5-0.2-0.7-0.3s-0.5-0.1-0.7-0.2
				C103.8,34.1,103.7,34.1,103.5,34.1z"/>
			<path d="M112.8,24.5c-0.4,0.2-0.8,0.3-1.2,0.5s-0.8,0.4-1.3,0.5s-0.8,0.3-1.1,0.5c-0.3,0.2-0.6,0.3-0.8,0.4c-0.1,0-0.1,0-0.1,0
				c0,0,0-0.1,0-0.1c0-0.1,0.1-0.1,0.1-0.2c0.1-0.1,0.1-0.2,0.2-0.3s0.1-0.2,0.2-0.3c0.1-0.1,0.1-0.2,0.1-0.2
				c0.1-0.1,0.1-0.2,0.2-0.2l4.3-1.8c0.1-0.1,0.1,0,0.1,0.1c0,0.1-0.1,0.1-0.1,0.2s-0.1,0.2-0.1,0.3s-0.1,0.2-0.1,0.3
				s-0.1,0.2-0.1,0.2C113,24.4,112.9,24.5,112.8,24.5z"/>
			<path d="M115.2,28.4c0.4,0.1,0.8,0.2,1.1,0.3s0.7,0.2,1,0.3c0.3,0.1,0.7,0.2,1,0.2s0.6,0.1,1,0.2c0.5,0.1,1,0.1,1.6,0.2
				c0.5,0,1.1,0.1,1.6,0.1c0.1,0,0.1,0.1,0.1,0.2c0,0.1-0.1,0.2-0.1,0.3c-0.1,0.1-0.1,0.2-0.2,0.4c-0.1,0.1-0.1,0.3-0.2,0.4
				c-0.1,0.1-0.1,0.2-0.2,0.3c0,0.1-0.1,0.1-0.1,0.1s-0.1,0-0.2,0c-0.6-0.1-1.1-0.1-1.7-0.1c-0.5,0-1,0.1-1.5,0.2
				c-0.5,0.1-1,0.2-1.5,0.4c-0.5,0.2-1,0.3-1.5,0.5c-0.5,0.2-1,0.4-1.5,0.6c-0.5,0.2-1,0.4-1.5,0.5c-0.5,0.1-1,0.3-1.5,0.3
				c-0.5,0.1-1.1,0.1-1.7,0.1h-0.2c-0.2,0-0.4-0.1-0.5-0.3s-0.2-0.4-0.2-0.6c0-0.2,0.1-0.4,0.2-0.6s0.3-0.3,0.5-0.3h0.2
				c0.4,0,0.8,0,1.3,0c0.5,0,1-0.1,1.6-0.2s1.2-0.3,1.9-0.5c0.7-0.2,1.5-0.5,2.3-0.9c-0.6-0.2-1.1-0.3-1.6-0.5
				c-0.5-0.1-1.1-0.2-1.6-0.3c-0.5-0.1-1.1-0.1-1.6-0.1s-1.1,0-1.7,0.1c-0.1,0-0.1,0,0-0.1c0.1-0.3,0.2-0.5,0.4-0.8
				c0.1-0.2,0.3-0.5,0.5-0.7c0.1-0.1,0.2-0.1,0.5-0.1s0.6-0.1,1-0.1c0.4,0,0.8-0.1,1.2-0.1c0.4,0,0.8-0.1,1.1-0.1
				c0.2,0,0.3-0.1,0.4-0.1c0.1,0,0.2-0.1,0.1-0.3c0-0.4-0.1-0.8-0.1-1.4s-0.2-1.1-0.2-1.6c-0.1-0.6-0.2-1.1-0.3-1.7
				c-0.1-0.6-0.2-1.1-0.3-1.6c0-0.2-0.1-0.3-0.1-0.5s-0.1-0.4-0.1-0.5s-0.1-0.3-0.2-0.5s-0.2-0.3-0.3-0.4c0.1-0.2,0.3-0.5,0.4-0.7
				c0.1-0.3,0.2-0.5,0.4-0.7c0-0.1,0.1-0.1,0.1-0.1s0.1,0,0.1,0.1c0.1,0.2,0.1,0.4,0.2,0.5c0.1,0.2,0.2,0.4,0.3,0.5s0.2,0.3,0.3,0.5
				c0.1,0.2,0.3,0.3,0.5,0.4c0,0.1-0.1,0.2-0.2,0.3c-0.1,0.1-0.2,0.2-0.2,0.3s-0.1,0.2-0.2,0.4s-0.1,0.3,0,0.4
				c0,0.1,0.1,0.4,0.1,0.7c0.1,0.3,0.1,0.8,0.2,1.2c0.1,0.5,0.2,0.9,0.2,1.4c0.1,0.5,0.1,0.9,0.2,1.3c0,0.2,0,0.4,0,0.7s0,0.5,0,0.8
				c0,0.3-0.1,0.5-0.2,0.8S115.3,28.2,115.2,28.4z M112.6,35.3l1.4,1.1c0.1,0.1,0.1,0.1,0,0.2l-0.9,1.2c-0.1,0.1-0.1,0.1-0.2,0
				l-1.4-1.1c-0.1-0.1-0.1-0.1,0-0.2l0.9-1.1C112.5,35.3,112.6,35.3,112.6,35.3z"/>
			<path d="M125.5,19.2c0.1,0,0.1,0,0.1,0.1c0,0,0,0.1,0,0.1c0,0,0,0.1,0,0.1s0,0.1,0,0.1c0,0.3,0,0.6,0,0.8s0.1,0.5,0.1,0.8
				c0.1,0.7,0.2,1.4,0.3,2.1c0.1,0.7,0.2,1.4,0.3,2.1s0.2,1.4,0.3,2.1c0.1,0.7,0.2,1.4,0.3,2.1c0,0.3,0,0.6,0.1,0.9
				c0,0.4,0,0.7,0,1.1c0,0.4-0.1,0.7-0.1,1c-0.1,0.3-0.1,0.6-0.2,0.9c0,0.1-0.1,0.2-0.2,0.2c-0.1,0-0.1,0-0.1-0.1
				c-0.1-1.3-0.2-2.6-0.4-4c-0.2-1.4-0.4-2.8-0.6-4.2c-0.2-1.4-0.4-2.8-0.5-4.2c0-0.3,0.1-0.7,0.3-1.1c0.1-0.2,0.2-0.4,0.2-0.6
				C125.4,19.5,125.5,19.4,125.5,19.2z"/>
			<path class="st0" d="M140.5,19.8c-0.4,0.2-0.8,0.3-1.2,0.5s-0.8,0.4-1.3,0.5c-0.4,0.2-0.8,0.3-1.1,0.5c-0.3,0.2-0.6,0.3-0.8,0.4
				c-0.1,0-0.1,0-0.1,0c0,0,0-0.1,0-0.1c0-0.1,0.1-0.1,0.1-0.2c0.1-0.1,0.1-0.2,0.2-0.3c0.1-0.1,0.1-0.2,0.2-0.3
				c0.1-0.1,0.1-0.2,0.1-0.2c0.1-0.1,0.1-0.2,0.2-0.2l4.3-1.8c0.1-0.1,0.1,0,0.1,0.1c0,0.1-0.1,0.1-0.1,0.2s-0.1,0.2-0.1,0.3
				c0,0.1-0.1,0.2-0.1,0.3c0,0.1-0.1,0.2-0.1,0.2C140.6,19.7,140.5,19.7,140.5,19.8z"/>
			<path class="st0" d="M142.1,25.8c0.4,0.5,0.7,1,0.9,1.6c0.3,0.5,0.5,1.1,0.7,1.7c0.2,0.6,0.3,1.2,0.3,1.8s0,1.2-0.1,1.8
				c-0.1,0.5-0.2,0.9-0.4,1.3c-0.2,0.4-0.5,0.8-0.8,1.1c-0.3,0.3-0.7,0.6-1,0.8c-0.4,0.2-0.8,0.4-1.2,0.6c-0.4,0.2-0.9,0.3-1.3,0.4
				c-0.4,0.1-0.9,0.1-1.3,0.1c-0.6,0-1.1-0.1-1.7-0.3s-1-0.5-1.4-0.8s-0.7-0.8-0.9-1.3c-0.2-0.5-0.3-1.1-0.3-1.7
				c0-0.7,0.1-1.4,0.3-2c0.2-0.7,0.5-1.3,0.9-1.9c0-0.1,0.1-0.1,0.1-0.1c0,0,0.1,0,0.1,0.1c0,0,0,0.1,0,0.1c0,0,0,0.1,0,0.1
				c-0.4,0.7-0.6,1.4-0.7,2.1c-0.1,0.7,0,1.3,0.2,1.9c0.1,0.3,0.3,0.6,0.5,0.8c0.2,0.2,0.4,0.5,0.7,0.6c0.3,0.2,0.6,0.3,1,0.4
				c0.4,0.1,0.8,0.1,1.2,0.1c0.5,0,1,0,1.5-0.1c0.5-0.1,1-0.2,1.4-0.4c0.5-0.2,0.9-0.4,1.3-0.7c0.4-0.3,0.8-0.6,1.1-1
				c0-0.4,0-0.9-0.1-1.4s-0.3-1-0.4-1.5c-0.2-0.5-0.4-0.9-0.6-1.4c-0.2-0.4-0.5-0.9-0.7-1.2c0.1-0.3,0.1-0.5,0.2-0.8
				c0.1-0.3,0.2-0.5,0.3-0.8c0-0.1,0.1-0.1,0.1-0.1C142.1,25.8,142.1,25.8,142.1,25.8z M138.9,22.9l1.4,1.1c0.1,0.1,0.1,0.1,0,0.2
				l-0.9,1.2c-0.1,0.1-0.1,0.1-0.2,0l-1.4-1.1c-0.1-0.1-0.1-0.1,0-0.2l0.9-1.1C138.8,22.8,138.8,22.8,138.9,22.9z"/>
			<path class="st0" d="M151.8,31.8c-0.1,0.3-0.3,0.6-0.6,0.8c-0.3,0.2-0.6,0.3-1,0.3c-0.2,0-0.4-0.1-0.6-0.2s-0.3-0.2-0.5-0.4
				c-0.1-0.2-0.2-0.4-0.3-0.6s-0.1-0.4-0.1-0.7c0-0.2,0-0.3,0.1-0.6c0.1-0.2,0.1-0.4,0.2-0.6c0.1-0.2,0.2-0.4,0.3-0.7
				c0.1-0.2,0.2-0.4,0.4-0.6s0.3-0.3,0.4-0.4c0.1-0.1,0.3-0.2,0.5-0.2c0.3,0,0.6,0.1,0.8,0.3c0.3,0.2,0.5,0.5,0.7,0.9
				c0.2,0.4,0.3,0.8,0.4,1.2c0.1,0.4,0.2,0.8,0.1,1.3c0,0.5-0.1,1.1-0.2,1.7s-0.3,1.2-0.5,1.7c-0.2,0.6-0.5,1.1-0.7,1.6
				s-0.6,0.9-0.9,1.3c-0.3,0.3-0.6,0.6-1,0.8s-0.7,0.4-1.1,0.5c-0.4,0.1-0.8,0.2-1.2,0.3s-0.8,0.1-1.2,0c-0.5,0-0.9-0.1-1.3-0.1
				c-0.4-0.1-0.9-0.2-1.3-0.3c-0.1,0-0.1-0.1-0.1-0.1c0-0.1,0-0.1,0-0.2c0-0.1,0.1-0.1,0.1-0.1s0.1-0.1,0.3,0c0.6,0.1,1.2,0.1,1.8,0
				c0.6-0.1,1.2-0.2,1.7-0.4c0.5-0.2,0.9-0.4,1.3-0.7c0.4-0.3,0.8-0.6,1.2-0.9c0.3-0.3,0.6-0.6,0.8-0.9c0.3-0.3,0.5-0.7,0.7-1.1
				s0.4-0.7,0.6-1.1s0.3-0.7,0.3-1c0-0.1,0-0.1,0-0.2s0-0.2,0-0.3c0-0.1,0-0.2-0.1-0.2C151.9,31.9,151.9,31.8,151.8,31.8z
				 M151.4,30.8c0-0.1,0-0.1-0.1-0.2c-0.1-0.1-0.1-0.2-0.2-0.3s-0.2-0.2-0.3-0.3c-0.1-0.1-0.3-0.1-0.4-0.1c-0.1,0-0.2,0.1-0.3,0.1
				c-0.1,0.1-0.2,0.2-0.2,0.3c-0.1,0.1-0.1,0.2-0.1,0.3c0,0.1,0,0.2,0,0.2c0.1,0.1,0.2,0.3,0.4,0.3c0.2,0.1,0.3,0.1,0.5,0.1
				c0.2,0,0.4-0.1,0.5-0.1C151.3,30.9,151.4,30.9,151.4,30.8z"/>
			<path class="st0" d="M154.8,22.1c-0.1,0-0.1-0.1,0-0.1s0.2-0.2,0.3-0.2c0.2-0.2,0.5-0.3,0.7-0.5c0.2-0.1,0.5-0.3,0.7-0.5
				c0.2-0.2,0.5-0.3,0.7-0.5s0.4-0.4,0.7-0.6c-0.2-0.1-0.4-0.2-0.6-0.3s-0.4-0.3-0.5-0.4c-0.1-0.1-0.1-0.2-0.1-0.3
				c0-0.1,0-0.3,0-0.4c0.1-0.2,0.2-0.4,0.3-0.6s0.2-0.4,0.4-0.6c0.1-0.2,0.3-0.3,0.5-0.4c0.2-0.1,0.4-0.2,0.6-0.1
				c0.1,0,0.3,0.1,0.4,0.2c0.1,0.1,0.2,0.2,0.2,0.4c0.1,0.2,0.1,0.3,0.1,0.5s0,0.4,0,0.5s0,0.3,0,0.5c0,0.1,0,0.3-0.1,0.3
				c0,0,0,0.1,0.1,0.1c0.1,0.1,0.2,0.1,0.2,0.1s0.1,0.1,0.1,0.2c0,0.1,0,0.2,0,0.4s-0.1,0.3-0.1,0.4c-0.1,0.1-0.1,0.1-0.2,0.1
				c-0.1,0-0.1,0-0.1-0.1c0-0.1-0.1-0.1-0.1-0.1c0,0-0.1-0.1-0.1-0.1c-0.2,0.3-0.5,0.5-0.7,0.8c-0.2,0.2-0.4,0.4-0.7,0.6
				s-0.5,0.3-0.7,0.4c-0.3,0.1-0.6,0.3-0.9,0.4c-0.1,0-0.3,0.1-0.4,0.1C155,22.1,154.9,22.1,154.8,22.1z M157.2,18
				c0.1,0.2,0.3,0.4,0.5,0.5c0.2,0.1,0.4,0.2,0.6,0.3h0c0-0.1,0-0.2,0-0.2c0-0.1,0-0.2,0-0.3c0-0.1,0-0.2,0-0.3s-0.1-0.2-0.1-0.2
				c-0.1-0.1-0.1-0.1-0.2-0.1c-0.1,0-0.2,0-0.3,0.1s-0.2,0.1-0.3,0.2C157.3,17.8,157.2,17.9,157.2,18z"/>
			<path class="st0" d="M156.9,27.1c0-0.2,0-0.5,0-0.7c0-0.2,0-0.5,0.1-0.8c0-0.1,0.1-0.2,0.2-0.2s0.2,0,0.3,0
				c0.5,0.1,1,0.4,1.4,0.8s0.9,0.8,1.2,1.3c0.3,0.5,0.6,1,0.9,1.5c0.2,0.5,0.4,1,0.4,1.5c0,0.2,0,0.4,0,0.6s-0.1,0.5-0.1,0.7
				s-0.1,0.4-0.2,0.6s-0.2,0.3-0.3,0.4c-0.3,0.2-0.6,0.4-1,0.5c-0.4,0.1-0.8,0.3-1.2,0.3s-0.9,0.2-1.3,0.2s-0.9,0.1-1.2,0.1
				c-0.1,0-0.2,0-0.3,0s-0.3,0-0.4-0.1c-0.1,0-0.2-0.1-0.3-0.2s-0.1-0.2-0.1-0.3c0,0,0-0.2,0-0.3c0-0.2,0-0.4,0-0.5
				c0-0.2,0-0.4,0.1-0.5c0-0.2,0.1-0.2,0.1-0.2c0,0,0,0,0.1,0c0,0,0,0.1,0.1,0.1c0.1,0.1,0.3,0.2,0.5,0.2c0.2,0,0.4,0.1,0.6,0.1
				c0.2,0,0.4,0,0.6,0c0.2,0,0.4,0,0.5,0c0.3,0,0.5,0,0.8-0.1c0.3,0,0.6-0.1,0.8-0.2s0.5-0.1,0.8-0.2c0.2-0.1,0.4-0.2,0.6-0.3
				c0.1,0,0.1-0.1,0.2-0.1c0.1-0.1,0.1-0.1,0.1-0.2c-0.1-0.4-0.2-0.8-0.5-1.2c-0.2-0.4-0.5-0.8-0.9-1.2c-0.3-0.4-0.7-0.7-1.2-1
				C157.8,27.4,157.3,27.2,156.9,27.1z"/>
			<path d="M166.6,22.9c-0.4,0.2-0.8,0.3-1.2,0.5s-0.8,0.4-1.3,0.5c-0.4,0.2-0.8,0.3-1.1,0.5c-0.3,0.2-0.6,0.3-0.8,0.4
				c-0.1,0-0.1,0-0.1,0s0-0.1,0-0.1c0-0.1,0.1-0.1,0.1-0.2c0.1-0.1,0.1-0.2,0.2-0.3c0.1-0.1,0.1-0.2,0.2-0.3
				c0.1-0.1,0.1-0.2,0.1-0.2c0.1-0.1,0.1-0.2,0.2-0.2l4.3-1.8c0.1-0.1,0.1,0,0.1,0.1c0,0.1-0.1,0.1-0.1,0.2c0,0.1-0.1,0.2-0.1,0.3
				s-0.1,0.2-0.1,0.3s-0.1,0.2-0.1,0.2C166.7,22.7,166.7,22.8,166.6,22.9z"/>
			<path d="M167.4,31.8c-0.1,0.3-0.3,0.6-0.6,0.8c-0.3,0.2-0.6,0.3-1,0.3c-0.2,0-0.4-0.1-0.6-0.2s-0.3-0.2-0.5-0.4
				c-0.1-0.2-0.2-0.4-0.3-0.6s-0.1-0.4-0.1-0.7c0-0.2,0-0.3,0.1-0.6c0.1-0.2,0.1-0.4,0.2-0.6c0.1-0.2,0.2-0.4,0.3-0.7
				c0.1-0.2,0.2-0.4,0.4-0.6s0.3-0.3,0.4-0.4c0.1-0.1,0.3-0.2,0.5-0.2c0.3,0,0.6,0.1,0.8,0.3c0.3,0.2,0.5,0.5,0.7,0.9
				c0.2,0.4,0.3,0.8,0.4,1.2s0.2,0.8,0.1,1.3c0,0.5-0.1,1.1-0.2,1.7s-0.3,1.2-0.5,1.7c-0.2,0.6-0.5,1.1-0.7,1.6s-0.6,0.9-0.9,1.3
				c-0.3,0.3-0.6,0.6-1,0.8s-0.7,0.4-1.1,0.5c-0.4,0.1-0.8,0.2-1.2,0.3s-0.8,0.1-1.2,0c-0.5,0-0.9-0.1-1.3-0.1
				c-0.4-0.1-0.9-0.2-1.3-0.3c-0.1,0-0.1-0.1-0.1-0.1c0-0.1,0-0.1,0-0.2c0-0.1,0.1-0.1,0.1-0.1s0.1-0.1,0.3,0c0.6,0.1,1.2,0.1,1.8,0
				c0.6-0.1,1.2-0.2,1.7-0.4c0.5-0.2,0.9-0.4,1.3-0.7c0.4-0.3,0.8-0.6,1.2-0.9c0.3-0.3,0.6-0.6,0.8-0.9c0.3-0.3,0.5-0.7,0.7-1.1
				s0.4-0.7,0.6-1.1s0.3-0.7,0.3-1c0-0.1,0-0.1,0-0.2s0-0.2,0-0.3c0-0.1,0-0.2-0.1-0.2C167.5,31.9,167.5,31.8,167.4,31.8z M167,30.8
				c0-0.1,0-0.1-0.1-0.2c-0.1-0.1-0.1-0.2-0.2-0.3s-0.2-0.2-0.3-0.3c-0.1-0.1-0.3-0.1-0.4-0.1c-0.1,0-0.2,0.1-0.3,0.1
				c-0.1,0.1-0.2,0.2-0.2,0.3c-0.1,0.1-0.1,0.2-0.1,0.3c0,0.1,0,0.2,0,0.2c0.1,0.1,0.2,0.3,0.4,0.3c0.2,0.1,0.3,0.1,0.5,0.1
				c0.2,0,0.4-0.1,0.5-0.1C166.9,30.9,167,30.9,167,30.8z"/>
			<path d="M178.6,24.7c0-0.1,0.1-0.1,0.1-0.1s0.1,0,0.1,0.1l0.3,1.6c0.1,0.3,0.1,0.6,0.2,1s0.1,0.7,0.2,1.1c0.1,0.4,0.2,0.7,0.2,1
				c0.1,0.3,0.2,0.6,0.2,0.8c0.1,0.4,0.2,0.7,0.4,0.9s0.4,0.4,0.6,0.6c0.2,0.1,0.5,0.2,0.8,0.3c0.3,0.1,0.6,0.1,0.8,0.1h0.2
				c0.2,0,0.4,0.1,0.5,0.3c0.1,0.2,0.2,0.4,0.2,0.6c0,0.2-0.1,0.4-0.2,0.6c-0.1,0.2-0.3,0.3-0.5,0.3h-0.2c-0.5,0-0.9-0.1-1.2-0.2
				c-0.3-0.1-0.6-0.3-0.9-0.5c-0.3-0.2-0.5-0.4-0.6-0.7c-0.2-0.3-0.3-0.5-0.4-0.8c-0.1-0.3-0.2-0.6-0.3-0.8
				c-0.1-0.2-0.1-0.4-0.2-0.5c-0.3,0.4-0.6,0.7-0.8,0.9c-0.3,0.2-0.5,0.4-0.8,0.5c-0.3,0.1-0.5,0.2-0.8,0.2c-0.3,0-0.6,0-0.9,0
				c-0.1,0-0.2,0-0.3-0.1c-0.1,0-0.2-0.1-0.3-0.2c-0.1-0.1-0.2-0.2-0.2-0.3c0-0.1-0.1-0.2-0.1-0.4c0.1-0.4,0.2-0.8,0.3-1.2
				c0.2-0.4,0.3-0.7,0.5-1c0.3-0.4,0.7-0.8,1.1-1.1c0.4-0.3,1-0.6,1.6-0.8c0-0.1,0-0.2-0.1-0.4c0-0.2-0.1-0.3-0.1-0.4
				c0-0.1,0-0.1,0-0.3s0.1-0.2,0.1-0.3c0-0.1,0.1-0.2,0.1-0.4C178.6,24.9,178.6,24.8,178.6,24.7z M178.6,27.9
				c-0.6,0.2-1.1,0.4-1.5,0.7c-0.4,0.3-0.8,0.6-1.1,1.1c-0.1,0.1-0.1,0.2,0,0.3c0.2,0.1,0.5,0.2,0.8,0.2s0.6,0,0.9-0.1
				s0.6-0.1,0.8-0.2c0.2-0.1,0.4-0.2,0.5-0.3c-0.1-0.3-0.1-0.5-0.2-0.8S178.6,28.2,178.6,27.9z M180,23.5
				C180,23.5,179.9,23.5,180,23.5c-0.1,0-0.2,0-0.2,0l-1.3-1l-0.9,1.2c0,0-0.1,0.1-0.1,0.1c0,0-0.1,0-0.1,0l-1.4-1.1
				c0,0,0,0-0.1-0.1c0,0,0,0,0-0.1l0.9-1.3c0,0,0.1-0.1,0.1-0.1c0,0,0.1,0,0.1,0l1.4,1l0.9-1.2c0,0,0.1-0.1,0.1-0.1c0,0,0,0,0.1,0
				l1.4,1.2c0.1,0,0.1,0.1,0,0.2L180,23.5z"/>
			<path d="M188.9,18.6c-0.4,0.2-0.8,0.3-1.2,0.5s-0.8,0.4-1.3,0.5c-0.4,0.2-0.8,0.3-1.1,0.5c-0.3,0.2-0.6,0.3-0.8,0.4
				c-0.1,0-0.1,0-0.1,0c0,0,0-0.1,0-0.1c0-0.1,0.1-0.1,0.1-0.2c0.1-0.1,0.1-0.2,0.2-0.3c0.1-0.1,0.1-0.2,0.2-0.3
				c0.1-0.1,0.1-0.2,0.1-0.2c0.1-0.1,0.1-0.2,0.2-0.2l4.3-1.8c0.1-0.1,0.1,0,0.1,0.1c0,0.1-0.1,0.1-0.1,0.2s-0.1,0.2-0.1,0.3
				c0,0.1-0.1,0.2-0.1,0.3s-0.1,0.2-0.1,0.2C189.1,18.5,189,18.6,188.9,18.6z"/>
			<path d="M188.7,26.6c0.3,0,0.5,0.2,0.7,0.4c0.2,0.2,0.3,0.5,0.4,0.9c0.1,0.3,0.1,0.7,0.1,1.1c0,0.4,0,0.7-0.1,1
				c-0.1,0.3-0.2,0.6-0.4,0.9c-0.2,0.3-0.3,0.5-0.6,0.8c0.1,0.1,0.3,0.1,0.5,0.2s0.4,0.1,0.6,0.1c0.2,0,0.4,0,0.6,0s0.4,0,0.6,0h0.2
				c0.2,0,0.3,0.1,0.4,0.1s0.2,0.2,0.2,0.3c0.1,0.1,0.1,0.3,0.1,0.4c0,0.2,0,0.3-0.1,0.4c-0.1,0.1-0.1,0.2-0.2,0.3s-0.2,0.1-0.4,0.1
				h-0.2c-0.8,0-1.6-0.1-2.4-0.3s-1.4-0.4-2-0.8c-0.3,0.2-0.6,0.3-0.9,0.4s-0.6,0.2-1,0.3s-0.7,0.2-1.1,0.2c-0.4,0-0.8,0.1-1.2,0.1
				h-0.2c-0.2,0-0.3,0-0.4-0.1s-0.2-0.2-0.2-0.3c-0.1-0.1-0.1-0.3-0.1-0.4c0-0.2,0-0.3,0.1-0.4c0.1-0.1,0.1-0.2,0.2-0.3
				c0.1-0.1,0.2-0.1,0.4-0.1h0.2c0.2,0,0.5,0,0.7,0s0.4,0,0.7-0.1c0.2,0,0.4-0.1,0.7-0.1c0.2-0.1,0.5-0.1,0.8-0.2
				c-0.1-0.1-0.1-0.3-0.2-0.5c0-0.2,0-0.4,0-0.6c0-0.5,0.2-1,0.4-1.5c0.2-0.5,0.5-0.9,0.9-1.3c0.3-0.4,0.7-0.7,1.1-0.9
				S188.4,26.6,188.7,26.6z M186.9,22c0-0.1,0.1-0.1,0.2,0l1.3,1.1c0,0,0,0,0.1,0.1c0,0,0,0.1,0,0.1l-0.9,1.1
				c-0.1,0.1-0.1,0.1-0.2,0l-1.3-1.1c0,0,0,0,0-0.1c0,0,0-0.1,0-0.1L186.9,22z M189.1,30c0-0.2,0-0.4-0.1-0.7
				c-0.1-0.2-0.2-0.4-0.3-0.6c-0.1-0.1-0.2-0.2-0.3-0.2s-0.2,0-0.3,0c-0.1,0-0.3,0.1-0.5,0.1c-0.2,0.1-0.4,0.2-0.5,0.3
				c-0.2,0.1-0.3,0.3-0.5,0.4c-0.1,0.2-0.3,0.3-0.3,0.5c0,0.2,0.1,0.4,0.1,0.5s0.2,0.3,0.3,0.4s0.2,0.2,0.4,0.3
				c0.1,0.1,0.2,0.1,0.3,0.2c0.1,0,0.2-0.1,0.4-0.1c0.2-0.1,0.4-0.2,0.6-0.3c0.2-0.1,0.4-0.2,0.5-0.3C189,30.2,189.1,30.1,189.1,30z
				"/>
			<path d="M195.1,29.7c0,0.1,0,0.2,0,0.3c0,0.1,0,0.2,0,0.3c0,0.2,0.1,0.4,0.2,0.6s0.2,0.4,0.4,0.5c0.2,0.2,0.5,0.3,0.8,0.4
				c0.3,0.1,0.7,0.2,1.2,0.2h0.2c0.2,0,0.4,0.1,0.5,0.3c0.1,0.2,0.2,0.4,0.2,0.6c0,0.2-0.1,0.4-0.2,0.6c-0.1,0.2-0.3,0.3-0.5,0.3
				h-0.2c-0.8,0-1.5-0.2-2-0.5s-0.9-0.8-1.2-1.3c-0.2,0.4-0.4,0.7-0.7,0.9c-0.3,0.2-0.5,0.4-0.8,0.5c-0.3,0.1-0.6,0.2-0.9,0.2
				c-0.3,0-0.6,0.1-0.8,0.1H191c-0.2,0-0.4-0.1-0.5-0.3c-0.1-0.2-0.2-0.4-0.2-0.6c0-0.2,0.1-0.4,0.2-0.6c0.1-0.2,0.3-0.3,0.5-0.3
				h0.2c0.2,0,0.5,0,0.7,0c0.3,0,0.5-0.1,0.8-0.1c0.3-0.1,0.5-0.2,0.7-0.3c0.2-0.1,0.5-0.3,0.7-0.6c0.1-0.2,0.3-0.4,0.4-0.6
				c0.1-0.2,0.2-0.4,0.3-0.6c0,0,0-0.1,0.1-0.1c0,0,0.1,0,0.1,0S195,29.7,195.1,29.7C195.1,29.7,195.1,29.7,195.1,29.7z M195.9,38.3
				C195.8,38.3,195.8,38.4,195.9,38.3c-0.1,0.1-0.2,0.1-0.2,0l-1.3-1l-0.9,1.2c-0.1,0.1-0.1,0.1-0.2,0l-1.4-1.1
				c-0.1,0-0.1-0.1,0-0.1l0.9-1.3c0,0,0.1-0.1,0.1-0.1s0,0,0.1,0l1.3,1l0.9-1.2c0-0.1,0.1-0.1,0.1,0l1.4,1.2c0.1,0,0.1,0.1,0,0.2
				L195.9,38.3z"/>
			<path d="M204.5,36.9c-0.8,0.3-1.5,0.5-2.2,0.8c-0.7,0.3-1.4,0.5-2.1,0.8c-0.1,0.1-0.1,0-0.1-0.1c0.1-0.1,0.1-0.3,0.2-0.5
				s0.2-0.3,0.2-0.4c0-0.1,0.1-0.1,0.2-0.2c0.2-0.1,0.4-0.2,0.8-0.3c0.3-0.1,0.7-0.3,1.1-0.4c0.4-0.1,0.8-0.3,1.2-0.4
				c0.4-0.1,0.9-0.3,1.3-0.4c0.1,0,0.1,0,0.1,0.1c0,0.1-0.1,0.1-0.1,0.2s-0.1,0.2-0.1,0.3s-0.1,0.2-0.1,0.2c0,0.1-0.1,0.1-0.1,0.2
				C204.7,36.8,204.6,36.8,204.5,36.9C204.6,36.9,204.5,36.9,204.5,36.9z"/>
			<path d="M204.2,30.7c-0.2-0.1-0.4-0.2-0.7-0.4c-0.3-0.1-0.6-0.3-0.9-0.4c-0.3-0.1-0.6-0.2-0.9-0.3c-0.3-0.1-0.6-0.2-0.9-0.2
				c-0.4-0.1-0.8-0.1-1.3,0s-0.8,0.2-1.2,0.5c0,0-0.1,0-0.1,0c0,0-0.1-0.1-0.1-0.1c0-0.1,0-0.2,0.1-0.3c0-0.1,0.1-0.2,0.1-0.3
				s0.1-0.2,0.1-0.3c0-0.1,0.1-0.2,0.1-0.2c0.1-0.2,0.3-0.3,0.5-0.5s0.4-0.3,0.6-0.4c0.2-0.1,0.4-0.2,0.7-0.2c0.2,0,0.5,0,0.7,0
				c0.4,0.1,0.8,0.2,1.2,0.3c0.4,0.2,0.8,0.3,1.2,0.5s0.8,0.4,1.2,0.6c0.4,0.2,0.8,0.4,1.3,0.5c0.6,0.2,1.3,0.4,2,0.5
				c0.7,0.1,1.4,0.1,2.1,0.1c0.1,0,0.1,0.1,0.1,0.2c-0.1,0.2-0.3,0.5-0.4,0.8c-0.1,0.3-0.3,0.5-0.5,0.8c-0.4-0.1-0.8-0.2-1.2-0.2
				c-0.5,0-1-0.1-1.5,0c-0.5,0-1,0.2-1.6,0.4c-0.6,0.2-1.3,0.5-2,0.7c-0.4,0.1-0.8,0.3-1.2,0.4c-0.4,0.1-0.8,0.2-1.3,0.3
				c-0.4,0.1-0.9,0.2-1.4,0.2c-0.5,0.1-1,0.1-1.6,0.1h-0.2c-0.2,0-0.4-0.1-0.5-0.3s-0.2-0.4-0.2-0.6c0-0.2,0.1-0.4,0.2-0.6
				s0.3-0.3,0.5-0.3h0.2c0.3,0,0.7,0,1.1,0c0.5,0,1-0.1,1.5-0.2c0.6-0.1,1.2-0.2,1.9-0.4C202.8,31.3,203.5,31,204.2,30.7z
				 M202.5,23.3l1.4,1.1c0.1,0.1,0.1,0.1,0,0.2l-0.9,1.2c-0.1,0.1-0.1,0.1-0.2,0l-1.4-1.1c-0.1-0.1-0.1-0.1,0-0.2l0.9-1.1
				C202.4,23.3,202.4,23.3,202.5,23.3z"/>
			<path d="M214.8,22.9c-0.4,0.2-0.8,0.3-1.2,0.5s-0.8,0.4-1.3,0.5c-0.4,0.2-0.8,0.3-1.1,0.5c-0.3,0.2-0.6,0.3-0.8,0.4
				c-0.1,0-0.1,0-0.1,0s0-0.1,0-0.1c0-0.1,0.1-0.1,0.1-0.2c0.1-0.1,0.1-0.2,0.2-0.3c0.1-0.1,0.1-0.2,0.2-0.3
				c0.1-0.1,0.1-0.2,0.1-0.2c0.1-0.1,0.1-0.2,0.2-0.2l4.3-1.8c0.1-0.1,0.1,0,0.1,0.1c0,0.1-0.1,0.1-0.1,0.2c0,0.1-0.1,0.2-0.1,0.3
				s-0.1,0.2-0.1,0.3c0,0.1-0.1,0.2-0.1,0.2C214.9,22.7,214.9,22.8,214.8,22.9z"/>
			<path d="M215.6,31.8c-0.1,0.3-0.3,0.6-0.6,0.8c-0.3,0.2-0.6,0.3-1,0.3c-0.2,0-0.4-0.1-0.6-0.2s-0.3-0.2-0.5-0.4
				c-0.1-0.2-0.2-0.4-0.3-0.6s-0.1-0.4-0.1-0.7c0-0.2,0-0.3,0.1-0.6c0.1-0.2,0.1-0.4,0.2-0.6c0.1-0.2,0.2-0.4,0.3-0.7
				c0.1-0.2,0.2-0.4,0.4-0.6s0.3-0.3,0.4-0.4c0.1-0.1,0.3-0.2,0.5-0.2c0.3,0,0.6,0.1,0.8,0.3c0.3,0.2,0.5,0.5,0.7,0.9
				c0.2,0.4,0.3,0.8,0.4,1.2s0.2,0.8,0.1,1.3c0,0.5-0.1,1.1-0.2,1.7s-0.3,1.2-0.5,1.7c-0.2,0.6-0.5,1.1-0.7,1.6s-0.6,0.9-0.9,1.3
				c-0.3,0.3-0.6,0.6-1,0.8s-0.7,0.4-1.1,0.5c-0.4,0.1-0.8,0.2-1.2,0.3s-0.8,0.1-1.2,0c-0.5,0-0.9-0.1-1.3-0.1
				c-0.4-0.1-0.9-0.2-1.3-0.3c-0.1,0-0.1-0.1-0.1-0.1c0-0.1,0-0.1,0-0.2c0-0.1,0.1-0.1,0.1-0.1s0.1-0.1,0.3,0c0.6,0.1,1.2,0.1,1.8,0
				c0.6-0.1,1.2-0.2,1.7-0.4c0.5-0.2,0.9-0.4,1.3-0.7c0.4-0.3,0.8-0.6,1.2-0.9c0.3-0.3,0.6-0.6,0.8-0.9c0.3-0.3,0.5-0.7,0.7-1.1
				s0.4-0.7,0.6-1.1s0.3-0.7,0.3-1c0-0.1,0-0.1,0-0.2s0-0.2,0-0.3c0-0.1,0-0.2-0.1-0.2C215.7,31.9,215.6,31.8,215.6,31.8z
				 M215.2,30.8c0-0.1,0-0.1-0.1-0.2c-0.1-0.1-0.1-0.2-0.2-0.3s-0.2-0.2-0.3-0.3c-0.1-0.1-0.3-0.1-0.4-0.1c-0.1,0-0.2,0.1-0.3,0.1
				c-0.1,0.1-0.2,0.2-0.2,0.3c-0.1,0.1-0.1,0.2-0.1,0.3c0,0.1,0,0.2,0,0.2c0.1,0.1,0.2,0.3,0.4,0.3c0.2,0.1,0.3,0.1,0.5,0.1
				c0.2,0,0.4-0.1,0.5-0.1C215.1,30.9,215.2,30.9,215.2,30.8z"/>
			<path d="M225.8,14.4c-0.4,0.2-0.8,0.3-1.2,0.5c-0.4,0.2-0.8,0.4-1.2,0.6s-0.8,0.3-1.1,0.5c-0.3,0.2-0.6,0.3-0.8,0.4
				c-0.1,0-0.1,0-0.1-0.1c0-0.1,0.1-0.2,0.1-0.2c0.1-0.1,0.1-0.2,0.2-0.3s0.1-0.2,0.2-0.3c0.1-0.1,0.1-0.1,0.1-0.2
				c0.1-0.1,0.1-0.2,0.2-0.2l4.2-1.9c0.1,0,0.1,0,0.1,0.1c-0.1,0.1-0.1,0.3-0.2,0.5c-0.1,0.2-0.2,0.3-0.2,0.4
				C225.9,14.3,225.9,14.3,225.8,14.4z M225.9,12.4c-0.4,0.2-0.8,0.3-1.2,0.5c-0.4,0.2-0.8,0.4-1.2,0.6s-0.8,0.3-1.1,0.5
				s-0.6,0.3-0.8,0.4c-0.1,0-0.1,0-0.1-0.1c0-0.1,0.1-0.1,0.1-0.2c0.1-0.1,0.1-0.2,0.2-0.3c0.1-0.1,0.1-0.2,0.2-0.3
				c0.1-0.1,0.1-0.1,0.1-0.2c0.1-0.1,0.1-0.2,0.2-0.2l4.2-1.9c0.1,0,0.1,0,0.1,0.1c-0.1,0.1-0.1,0.3-0.2,0.5
				c-0.1,0.2-0.2,0.3-0.2,0.4C226,12.3,226,12.3,225.9,12.4z"/>
			<path d="M224.4,30.2c-0.1-0.6-0.2-1.2-0.3-1.9s-0.2-1.4-0.2-2c0-0.1,0-0.3-0.1-0.6c0-0.3-0.1-0.6-0.1-1c0-0.4-0.1-0.8-0.1-1.1
				s-0.1-0.6-0.1-0.8c0-0.3-0.1-0.7-0.1-1c0-0.3-0.1-0.6-0.1-0.9s-0.1-0.6-0.1-0.8c-0.1-0.3-0.1-0.5-0.2-0.7c0-0.1,0-0.1,0-0.1
				c0,0,0-0.1,0-0.1c0.1-0.3,0.1-0.5,0.2-0.8c0.1-0.3,0.2-0.5,0.3-0.8c0,0,0.1-0.1,0.1-0.1c0,0,0.1,0,0.1,0.1
				c0.1,0.4,0.2,0.7,0.3,1.2c0.1,0.4,0.1,0.9,0.2,1.4c0.1,0.5,0.1,1,0.2,1.4s0.1,1,0.1,1.5c0,0.5,0.1,0.9,0.1,1.4
				c0,0.4,0.1,0.8,0.1,1.2c0,0.4,0.1,0.7,0.1,1.1c0,0.4,0.1,0.7,0.1,1c0,0.3,0.1,0.6,0.1,0.9s0.1,0.5,0.1,0.7
				c0.2,0.8,0.5,1.4,1.1,1.9c0.5,0.5,1.2,0.7,2,0.8c-0.2-0.1-0.3-0.3-0.5-0.5c-0.2-0.2-0.3-0.4-0.4-0.7c-0.1-0.2-0.2-0.5-0.3-0.7
				c-0.1-0.2-0.1-0.5-0.1-0.6c0-0.5,0-0.9,0.2-1.4c0.1-0.4,0.3-0.8,0.6-1.2s0.6-0.7,1-0.9c0.4-0.3,0.8-0.4,1.3-0.5
				c0.6-0.1,1.1-0.1,1.5-0.1c0.4,0.1,0.8,0.2,1.2,0.3c0.3,0.2,0.7,0.4,0.9,0.6c0.3,0.2,0.5,0.5,0.7,0.7c0,0,0,0.1,0,0.1
				s0,0.1-0.1,0.1s-0.1,0-0.1,0c-0.1,0-0.1,0-0.1,0c-0.5-0.3-1-0.4-1.5-0.5c-0.5-0.1-1-0.1-1.5,0c-0.2,0-0.5,0.1-0.8,0.2
				c-0.3,0.1-0.6,0.2-0.9,0.3s-0.5,0.3-0.8,0.4c-0.2,0.1-0.4,0.3-0.6,0.4c0,0.1,0,0.3,0.1,0.5c0.1,0.2,0.1,0.4,0.2,0.6
				c0.1,0.2,0.2,0.4,0.3,0.6s0.3,0.4,0.4,0.6c0.1,0.2,0.3,0.3,0.5,0.5s0.4,0.3,0.7,0.4c0.2,0.1,0.5,0.2,0.7,0.3
				c0.2,0.1,0.5,0.1,0.7,0.1c0.5-0.1,0.9-0.2,1.3-0.4s0.8-0.3,1.2-0.5s0.7-0.4,1-0.6s0.6-0.4,0.9-0.6c0.1,0,0.1,0,0.1,0
				c0,0.1,0,0.1,0,0.2c-0.1,0.2-0.1,0.3-0.2,0.4c0,0.1-0.1,0.2-0.1,0.3c0,0.1-0.1,0.2-0.1,0.3s-0.1,0.2-0.2,0.4
				c-0.5,0.3-1.1,0.7-1.6,1c-0.5,0.3-1.1,0.6-1.6,0.8s-1.1,0.4-1.7,0.5c-0.6,0.1-1.2,0.2-1.9,0.2c-1.1,0-2.1-0.2-2.8-0.8
				C225.2,32.4,224.7,31.5,224.4,30.2z"/>
			<path d="M237.5,21c-0.1,0-0.1-0.1,0-0.1c0.1-0.1,0.2-0.1,0.3-0.2c0.2-0.1,0.5-0.3,0.7-0.4s0.5-0.3,0.8-0.4
				c0.3-0.1,0.5-0.3,0.8-0.5c0.2-0.2,0.5-0.4,0.7-0.6c-0.2-0.1-0.4-0.2-0.6-0.4c-0.2-0.2-0.4-0.3-0.5-0.5c-0.1-0.1-0.1-0.2-0.1-0.4
				s0-0.2,0.1-0.3c0.1-0.2,0.2-0.4,0.3-0.5c0.1-0.2,0.3-0.4,0.4-0.5c0.2-0.2,0.3-0.3,0.5-0.4s0.4-0.1,0.6-0.1c0.1,0,0.2,0.1,0.3,0.2
				c0.1,0.1,0.1,0.2,0.2,0.4c0,0.2,0.1,0.3,0.1,0.5c0,0.2,0,0.4,0,0.5s0,0.3-0.1,0.5c0,0.1-0.1,0.3-0.1,0.3c0,0,0,0.1,0,0.1
				c0.1,0.1,0.1,0.1,0.2,0.2c0,0,0.1,0.1,0.1,0.2c0,0.1,0,0.2,0,0.4c0,0.2-0.1,0.3-0.2,0.3c0,0.1-0.1,0.1-0.2,0.1
				c-0.1,0-0.1,0-0.1-0.1c0-0.1-0.1-0.2-0.2-0.3c-0.2,0.3-0.5,0.5-0.7,0.7c-0.2,0.2-0.5,0.4-0.7,0.5c-0.3,0.1-0.5,0.3-0.8,0.4
				c-0.3,0.1-0.6,0.2-0.9,0.3c-0.1,0-0.1,0-0.2,0s-0.1,0-0.2,0c-0.1,0-0.1,0-0.2,0C237.5,21,237.5,21,237.5,21z M239.9,23.2
				c-0.1,0.3-0.3,0.6-0.5,0.7s-0.5,0.3-0.8,0.3c-0.3,0-0.5,0-0.7-0.2s-0.3-0.4-0.3-0.7c0-0.2,0-0.3,0-0.5c0-0.2,0.1-0.3,0.1-0.4
				c0.1-0.1,0.1-0.3,0.2-0.4c0.1-0.1,0.2-0.2,0.3-0.2c0.1,0,0.1,0,0,0.2c0,0.1-0.1,0.2-0.1,0.3c0,0.1,0,0.2,0,0.3s0,0.2,0,0.3
				s0.1,0.2,0.1,0.2c0.1,0.1,0.2,0.1,0.4,0.1s0.3,0,0.4-0.1c0.1-0.1,0.2-0.1,0.4-0.2c0.1-0.1,0.2-0.2,0.3-0.3
				c0.1-0.1,0.1-0.2,0.2-0.4c0-0.1,0.1-0.3,0.1-0.4c0,0,0-0.1,0-0.1c0-0.1,0-0.1,0-0.2s0-0.1,0.1-0.1c0,0,0.1-0.1,0.1-0.1
				c0,0,0.1,0,0.1,0.1c0,0,0,0.1,0,0.1s0,0.1,0,0.2s0,0.1,0,0.1c0,0.2,0,0.4,0.1,0.5c0.1,0.1,0.2,0.2,0.4,0.3c0.1,0,0.3,0,0.4,0
				c0.2,0,0.3-0.1,0.4-0.2c0,0,0-0.1,0-0.1c0-0.1,0-0.1,0-0.2s0-0.1,0-0.2s0-0.1,0-0.1c0,0,0-0.1,0-0.2c0-0.1,0.1-0.2,0.1-0.3
				c0-0.1,0.1-0.2,0.1-0.3c0-0.1,0.1-0.1,0.1-0.1c0.1,0,0.1,0.1,0.2,0.2s0.1,0.3,0.1,0.4c0,0.2,0,0.3,0,0.5s0,0.3-0.1,0.5
				c0,0.1-0.1,0.3-0.1,0.4c-0.1,0.1-0.1,0.2-0.2,0.4s-0.2,0.2-0.3,0.3c-0.1,0.1-0.2,0.1-0.4,0.1c-0.3,0.1-0.5,0-0.7,0
				S240,23.4,239.9,23.2z M240.3,17.1c0.1,0.2,0.3,0.4,0.5,0.5c0.2,0.1,0.4,0.2,0.5,0.3h0c0-0.1,0-0.1,0-0.2c0-0.1,0-0.2,0-0.3
				c0-0.1,0-0.2,0-0.3c0-0.1-0.1-0.2-0.1-0.2c0-0.1-0.1-0.1-0.2-0.1c-0.1,0-0.2,0-0.3,0c-0.1,0-0.2,0.1-0.3,0.1
				C240.4,17,240.3,17,240.3,17.1z"/>
			<path d="M252.3,20.6c-0.4,0.2-0.8,0.3-1.2,0.5s-0.8,0.4-1.3,0.5c-0.4,0.2-0.8,0.3-1.1,0.5c-0.3,0.2-0.6,0.3-0.8,0.4
				c-0.1,0-0.1,0-0.1,0s0-0.1,0-0.1c0-0.1,0.1-0.1,0.1-0.2c0.1-0.1,0.1-0.2,0.2-0.3c0.1-0.1,0.1-0.2,0.2-0.3
				c0.1-0.1,0.1-0.2,0.1-0.2c0.1-0.1,0.1-0.2,0.2-0.2l4.3-1.8c0.1-0.1,0.1,0,0.1,0.1c0,0.1-0.1,0.1-0.1,0.2c0,0.1-0.1,0.2-0.1,0.3
				s-0.1,0.2-0.1,0.3s-0.1,0.2-0.1,0.2C252.4,20.5,252.4,20.6,252.3,20.6z"/>
			<path d="M241.5,31.2c0.9-0.2,1.7-0.4,2.5-0.7s1.6-0.6,2.5-0.9c0.1,0,0.1,0,0.1,0.1c-0.1,0.4-0.1,0.7,0,1s0.2,0.5,0.3,0.7
				c0.2,0.2,0.4,0.3,0.6,0.4c0.3,0.1,0.6,0.2,0.9,0.2c0.4-0.5,0.7-0.9,1.1-1.3c0.4-0.4,0.8-0.9,1.2-1.3s0.9-0.8,1.3-1.1
				c0.5-0.3,0.9-0.7,1.5-0.9c0.2-0.1,0.5-0.2,0.8-0.3c0.3,0,0.6,0,1,0s0.7,0.1,1,0.2s0.6,0.3,0.8,0.5c0.3,0.2,0.5,0.4,0.6,0.6
				c0.2,0.2,0.2,0.5,0.3,0.8c0,0.6-0.2,1.2-0.4,1.7s-0.5,0.9-0.9,1.2c0.4,0,0.8,0,1.1,0c0.4,0,0.7-0.1,1-0.1h0.2
				c0.2,0,0.3,0,0.4,0.1c0.1,0.1,0.2,0.2,0.2,0.3c0.1,0.1,0.1,0.3,0.1,0.4s0,0.3-0.1,0.4s-0.1,0.2-0.2,0.3s-0.2,0.1-0.4,0.1H259
				c-0.4,0-0.8,0-1.3,0c-0.5,0-1,0-1.6,0c-0.6,0-1.1,0-1.7,0c-0.6,0-1.2,0-1.8,0c-0.4,0.1-0.8,0.1-1.3,0.1c-0.4,0-0.9,0-1.3,0
				s-0.8-0.1-1.1-0.1c-0.3,0-0.6-0.1-0.8-0.2c-0.1,0.1-0.2,0.3-0.2,0.4c-0.1,0.1-0.1,0.2-0.2,0.4c-0.1,0.2-0.2,0.3-0.3,0.3
				c-0.1-0.1-0.2-0.2-0.1-0.4c0-0.1,0.1-0.2,0.1-0.4c0-0.1,0.1-0.3,0.2-0.5c-0.2-0.1-0.4-0.2-0.6-0.3c-0.2-0.1-0.4-0.2-0.5-0.4
				s-0.3-0.3-0.4-0.6c-0.1-0.2-0.2-0.5-0.2-0.8c-0.6,0.2-1.1,0.5-1.7,0.6c-0.6,0.2-1.1,0.4-1.8,0.5c-0.1,1-0.3,1.8-0.6,2.7
				c-0.3,0.8-0.5,1.5-0.8,2c-0.4,0.7-0.9,1.3-1.5,1.7s-1.3,0.6-2.1,0.7c-0.4,0-0.7,0.1-1.1,0.1s-0.7,0-1.1-0.1s-0.7-0.1-1-0.2
				s-0.6-0.2-0.9-0.3c-0.1-0.1-0.2-0.1-0.3-0.2c0-0.1,0-0.1,0-0.2s0.1-0.1,0.2-0.1c0.1,0,0.2,0,0.3,0c1.3,0.2,2.6,0,3.7-0.5
				c0.5-0.2,1-0.5,1.4-0.9s0.9-0.8,1.2-1.3c0.4-0.5,0.7-1,1-1.6c0.3-0.6,0.5-1.1,0.7-1.7c-0.1,0-0.2,0-0.3,0c-0.1,0-0.2,0-0.3,0
				c0,0,0,0-0.1,0c0,0,0,0,0-0.1c0-0.2,0.1-0.5,0.1-0.7c0.1-0.2,0.1-0.5,0.1-0.7C241.4,31.3,241.4,31.3,241.5,31.2
				C241.4,31.2,241.5,31.2,241.5,31.2z M250.4,23.9l1.4,1.1c0.1,0.1,0.1,0.1,0,0.2l-0.9,1.2c-0.1,0.1-0.1,0.1-0.2,0l-1.4-1.1
				c-0.1-0.1-0.1-0.1,0-0.2l0.9-1.1C250.3,23.9,250.4,23.9,250.4,23.9z M249.4,32.2c0.3,0.1,0.7,0.1,1.1,0.1c0.4,0,0.9,0,1.4-0.1
				c0.5-0.1,1-0.1,1.5-0.2c0.5-0.1,1-0.2,1.4-0.4c0.5-0.2,0.9-0.3,1.3-0.6c0.4-0.2,0.7-0.5,1-0.7c-0.2-0.3-0.4-0.6-0.7-0.8
				c-0.3-0.2-0.6-0.4-1-0.5c-0.3-0.1-0.7-0.2-1-0.2c-0.4,0-0.7,0-1,0.2c-0.4,0.1-0.8,0.3-1.1,0.6c-0.4,0.2-0.7,0.5-1,0.8
				s-0.7,0.6-1,0.9C249.9,31.5,249.6,31.9,249.4,32.2z"/>
			<path d="M263.1,19.8c-0.4,0.2-0.8,0.3-1.2,0.5s-0.8,0.4-1.3,0.5c-0.4,0.2-0.8,0.3-1.1,0.5c-0.3,0.2-0.6,0.3-0.8,0.4
				c-0.1,0-0.1,0-0.1,0c0,0,0-0.1,0-0.1c0-0.1,0.1-0.1,0.1-0.2c0.1-0.1,0.1-0.2,0.2-0.3c0.1-0.1,0.1-0.2,0.2-0.3
				c0.1-0.1,0.1-0.2,0.1-0.2c0.1-0.1,0.1-0.2,0.2-0.2l4.3-1.8c0.1-0.1,0.1,0,0.1,0.1c0,0.1-0.1,0.1-0.1,0.2s-0.1,0.2-0.1,0.3
				c0,0.1-0.1,0.2-0.1,0.3s-0.1,0.2-0.1,0.2C263.2,19.7,263.2,19.7,263.1,19.8z"/>
			<path d="M261.6,27.7C261.7,27.6,261.7,27.6,261.6,27.7c0.1-0.1,0.2-0.1,0.3,0c0.2,0.2,0.4,0.4,0.6,0.7c0.2,0.2,0.3,0.5,0.5,0.8
				s0.2,0.5,0.3,0.8c0.1,0.3,0.1,0.6,0.1,0.9c0,0.1,0,0.3,0,0.4s0,0.3-0.1,0.5c0,0.2-0.1,0.3-0.1,0.5c0,0.1-0.1,0.3-0.2,0.4
				c-0.2,0.3-0.4,0.5-0.7,0.7c-0.3,0.2-0.7,0.3-1.1,0.4s-0.8,0.1-1.2,0.2c-0.4,0-0.7,0-1.1,0h-0.2c-0.2,0-0.4-0.1-0.5-0.3
				s-0.2-0.4-0.2-0.6c0-0.2,0.1-0.4,0.2-0.6s0.3-0.3,0.5-0.3h0.2c0.2,0,0.4,0,0.7,0c0.3,0,0.6,0,1,0c0.3,0,0.7-0.1,1-0.1
				c0.3-0.1,0.6-0.1,0.8-0.3c0.1-0.1,0.2-0.2,0.1-0.3c-0.1-0.4-0.3-0.8-0.6-1.1s-0.5-0.6-0.8-0.9c0.1-0.3,0.1-0.5,0.2-0.8
				S261.6,28,261.6,27.7z M263,25.4C263,25.5,263,25.5,263,25.4c-0.1,0.1-0.2,0.1-0.2,0l-1.3-1l-0.9,1.2c-0.1,0.1-0.1,0.1-0.2,0
				l-1.4-1.1c-0.1,0-0.1-0.1,0-0.1l0.9-1.3c0,0,0.1-0.1,0.1-0.1c0,0,0,0,0.1,0l1.3,1l0.9-1.2c0-0.1,0.1-0.1,0.1,0l1.4,1.2
				c0.1,0,0.1,0.1,0,0.2L263,25.4z"/>
			<path d="M278.7,18.9c-0.4,0.2-0.8,0.3-1.2,0.5s-0.8,0.4-1.3,0.5s-0.8,0.3-1.1,0.5c-0.3,0.2-0.6,0.3-0.8,0.4c-0.1,0-0.1,0-0.1,0
				c0,0,0-0.1,0-0.1c0-0.1,0.1-0.1,0.1-0.2c0.1-0.1,0.1-0.2,0.2-0.3s0.1-0.2,0.2-0.3c0.1-0.1,0.1-0.2,0.1-0.2
				c0.1-0.1,0.1-0.2,0.2-0.2l4.3-1.8c0.1-0.1,0.1,0,0.1,0.1c0,0.1-0.1,0.1-0.1,0.2s-0.1,0.2-0.1,0.3s-0.1,0.2-0.1,0.3
				s-0.1,0.2-0.1,0.2C278.8,18.8,278.8,18.9,278.7,18.9z"/>
			<path d="M286.8,32.1c0.2,0,0.4,0.1,0.5,0.3s0.2,0.4,0.2,0.6c0,0.2-0.1,0.4-0.2,0.6s-0.3,0.3-0.5,0.3h-0.2c-0.4,0-0.8-0.1-1.1-0.2
				c-0.3-0.1-0.6-0.3-0.9-0.6s-0.5-0.6-0.7-1c-0.2-0.4-0.3-0.8-0.4-1.3c-0.2,0.4-0.4,0.7-0.8,1.1c-0.3,0.3-0.7,0.6-1.1,0.9
				c-0.4,0.3-0.9,0.5-1.4,0.8c-0.5,0.2-1,0.4-1.5,0.6c-0.5,0.2-1.1,0.3-1.6,0.5c-0.6,0.1-1.1,0.2-1.7,0.2c-0.6,0-1.1,0-1.7-0.1
				c-0.6-0.1-1.1-0.2-1.6-0.5c-0.7-0.3-1.2-0.8-1.6-1.4s-0.6-1.3-0.6-2.1c0-0.7,0.1-1.3,0.4-2s0.6-1.2,1-1.7c0,0,0.1-0.1,0.1-0.1
				s0.1,0,0.1,0c0,0,0.1,0,0.1,0.1c0,0,0,0.1,0,0.1c-0.1,0.3-0.3,0.5-0.4,0.8s-0.2,0.5-0.3,0.8s-0.1,0.6-0.2,0.8
				c0,0.3,0,0.6,0.1,0.9c0.1,0.4,0.3,0.8,0.5,1.1c0.2,0.3,0.5,0.6,0.9,0.8c0.3,0.2,0.7,0.4,1.1,0.5c0.4,0.1,0.8,0.2,1.2,0.2
				c0.8,0.1,1.6,0,2.3-0.1s1.6-0.3,2.4-0.6c0.8-0.3,1.6-0.6,2.3-1c0.7-0.4,1.3-0.9,1.8-1.4c-0.1-0.7-0.2-1.3-0.2-2
				c-0.1-0.7-0.2-1.4-0.3-2c-0.1-0.4-0.1-0.8-0.2-1.2c0-0.4-0.1-0.8-0.1-1.2s-0.1-0.8-0.2-1.3c-0.1-0.5-0.1-1.1-0.2-1.7
				c0-0.1,0-0.2,0-0.3c0.1-0.2,0.2-0.4,0.3-0.6c0.1-0.2,0.2-0.4,0.3-0.6c0.1-0.1,0.1-0.1,0.1,0c0,0.1,0,0.3,0.1,0.6s0.1,0.6,0.1,0.9
				c0.1,1.2,0.3,2.3,0.4,3.2c0.1,0.9,0.2,1.7,0.3,2.4c0.1,0.7,0.2,1.3,0.3,2c0.1,0.7,0.2,1.4,0.4,2c0.1,0.3,0.2,0.6,0.3,0.8
				c0.1,0.3,0.3,0.5,0.5,0.7c0.2,0.2,0.4,0.3,0.7,0.5c0.2,0.1,0.5,0.2,0.8,0.2H286.8z M278.6,26.6c0,0.2,0,0.5,0,0.7
				c0,0.3-0.1,0.5-0.2,0.8c-0.1,0.3-0.2,0.5-0.4,0.7s-0.3,0.4-0.5,0.5c-0.2,0.1-0.4,0.2-0.6,0.3s-0.5,0.1-0.8,0
				c-0.3,0-0.5-0.1-0.8-0.1c-0.3-0.1-0.5-0.1-0.7-0.2c0,0,0,0,0-0.1c0,0,0-0.1,0-0.1c0,0,0.1-0.1,0.1-0.1c0,0,0.1,0,0.2,0
				c0.3,0,0.7,0,1,0c0.3-0.1,0.6-0.2,0.9-0.3s0.5-0.2,0.7-0.4c0.2-0.1,0.3-0.2,0.3-0.3c0-0.1,0-0.1-0.1-0.2c-0.1,0-0.2-0.1-0.3-0.1
				c-0.1,0-0.2,0-0.3,0c-0.1,0-0.2,0-0.2,0c-0.2,0-0.3,0-0.5-0.1s-0.3-0.2-0.5-0.4c-0.1-0.2-0.1-0.4-0.1-0.6s0.1-0.4,0.1-0.7
				s0.1-0.4,0.2-0.6s0.2-0.4,0.3-0.5c0.2-0.4,0.5-0.7,0.8-0.9c0.3-0.2,0.7-0.3,1-0.3c0,0,0.1,0,0.1,0.1c-0.1,0.3-0.1,0.5-0.2,0.7
				c-0.1,0.2-0.2,0.4-0.2,0.7c-0.1,0-0.2,0-0.4,0c-0.1,0-0.3,0.1-0.4,0.2s-0.3,0.2-0.4,0.3c-0.1,0.1-0.2,0.2-0.2,0.3
				c0,0.1,0.1,0.2,0.2,0.3s0.2,0.1,0.4,0.1c0.2,0,0.3,0,0.5,0c0.2,0,0.3,0,0.4,0c0.1,0,0.2,0.1,0.3,0.1
				C278.5,26.4,278.6,26.5,278.6,26.6z"/>
			<path d="M295.2,37.2c-0.8,0.3-1.5,0.5-2.2,0.8s-1.4,0.5-2.1,0.8c-0.1,0.1-0.1,0-0.1-0.1c0.1-0.1,0.1-0.3,0.2-0.5s0.2-0.3,0.2-0.4
				c0-0.1,0.1-0.1,0.2-0.2c0.2-0.1,0.4-0.2,0.8-0.3s0.7-0.3,1.1-0.4c0.4-0.1,0.8-0.3,1.2-0.4c0.4-0.2,0.9-0.3,1.3-0.4
				c0.1,0,0.1,0,0.1,0.1c0,0.1-0.1,0.1-0.1,0.2s-0.1,0.2-0.1,0.3s-0.1,0.2-0.1,0.2c0,0.1-0.1,0.1-0.1,0.2
				C295.3,37.1,295.3,37.1,295.2,37.2C295.2,37.2,295.2,37.2,295.2,37.2z"/>
			<path d="M294.3,30c0.1-0.2,0.2-0.2,0.3-0.2c0.1,0,0.1,0.1,0.1,0.3c0,0.1-0.1,0.3-0.2,0.5c-0.1,0.2-0.1,0.4-0.2,0.6
				c0.1,0.1,0.2,0.3,0.3,0.4s0.4,0.2,0.6,0.3c0.2,0.1,0.5,0.1,0.7,0.2c0.2,0,0.4,0,0.6,0c0.1-0.1,0.2-0.1,0.3-0.3s0.2-0.3,0.3-0.4
				c0.1-0.2,0.2-0.4,0.2-0.6c0.1-0.2,0.1-0.4,0.2-0.6c0.1-0.2,0.1-0.4,0.2-0.4s0.2,0,0.2,0.3c0,0.4,0.1,0.7,0.2,1
				c0.1,0.3,0.3,0.5,0.5,0.7c0.2,0.2,0.5,0.3,0.8,0.4c0.3,0.1,0.7,0.1,1.2,0.1h0.2c0.2,0,0.4,0.1,0.5,0.3s0.2,0.4,0.2,0.6
				c0,0.2-0.1,0.4-0.2,0.6s-0.3,0.3-0.5,0.3h-0.2c-0.5,0-1-0.1-1.3-0.2c-0.4-0.1-0.7-0.2-0.9-0.4c-0.3-0.2-0.5-0.3-0.6-0.5
				s-0.3-0.4-0.4-0.6c-0.1,0.1-0.1,0.3-0.2,0.4c-0.1,0.2-0.2,0.3-0.3,0.5s-0.2,0.3-0.4,0.4c-0.1,0.1-0.3,0.2-0.4,0.2
				c-0.2,0-0.4,0-0.7-0.1s-0.5-0.1-0.7-0.2c-0.3-0.1-0.5-0.2-0.7-0.4c-0.2-0.1-0.4-0.3-0.6-0.5c-0.3,0.3-0.6,0.6-0.9,0.8
				c-0.3,0.2-0.7,0.3-1,0.4c-0.4,0.1-0.8,0.1-1.2,0c-0.4-0.1-0.8-0.2-1.3-0.4c-0.2,0.1-0.4,0.3-0.6,0.3c-0.2,0.1-0.5,0.2-0.7,0.2
				s-0.4,0.1-0.7,0.1c-0.2,0-0.4,0-0.6,0h-0.2c-0.2,0-0.4-0.1-0.5-0.3c-0.1-0.2-0.2-0.4-0.2-0.6c0-0.2,0.1-0.4,0.2-0.6
				c0.1-0.2,0.3-0.3,0.5-0.3h0.2c0.4,0,0.9,0,1.2,0c0.4,0,0.7-0.1,1.1-0.2c0.3-0.1,0.6-0.3,0.9-0.6c0.3-0.2,0.6-0.6,0.8-1
				c0.1-0.2,0.2-0.2,0.2-0.2c0.1,0,0.1,0.1,0.1,0.3c0,0.3-0.1,0.6-0.3,0.9c-0.1,0.3-0.3,0.6-0.4,0.8c0.1,0,0.3,0.1,0.5,0.1
				c0.2,0,0.4,0,0.6,0c0.2,0,0.5,0,0.7-0.1c0.2-0.1,0.5-0.1,0.7-0.2c0.3-0.1,0.6-0.4,0.8-0.6C293.9,30.8,294.1,30.4,294.3,30z"/>
			<path d="M306.7,26.6c0.3,0,0.5,0.2,0.7,0.4c0.2,0.2,0.3,0.5,0.4,0.9c0.1,0.3,0.1,0.7,0.1,1.1c0,0.4,0,0.7-0.1,1
				c-0.1,0.3-0.2,0.6-0.4,0.9c-0.2,0.3-0.3,0.5-0.6,0.8c0.1,0.1,0.3,0.1,0.5,0.2s0.4,0.1,0.6,0.1c0.2,0,0.4,0,0.6,0s0.4,0,0.6,0h0.2
				c0.2,0,0.3,0.1,0.4,0.1s0.2,0.2,0.2,0.3c0.1,0.1,0.1,0.3,0.1,0.4c0,0.2,0,0.3-0.1,0.4c-0.1,0.1-0.1,0.2-0.2,0.3s-0.2,0.1-0.4,0.1
				h-0.2c-0.8,0-1.6-0.1-2.4-0.3s-1.4-0.4-2-0.8c-0.3,0.2-0.6,0.3-0.9,0.4c-0.3,0.1-0.6,0.2-1,0.3s-0.7,0.2-1.1,0.2
				c-0.4,0-0.8,0.1-1.2,0.1h-0.2c-0.2,0-0.3,0-0.4-0.1s-0.2-0.2-0.2-0.3c-0.1-0.1-0.1-0.3-0.1-0.4c0-0.2,0-0.3,0.1-0.4
				c0.1-0.1,0.1-0.2,0.2-0.3c0.1-0.1,0.2-0.1,0.4-0.1h0.2c0.2,0,0.5,0,0.7,0s0.4,0,0.7-0.1c0.2,0,0.4-0.1,0.7-0.1
				c0.2-0.1,0.5-0.1,0.8-0.2c-0.1-0.1-0.1-0.3-0.2-0.5c0-0.2,0-0.4,0-0.6c0-0.5,0.2-1,0.4-1.5c0.2-0.5,0.5-0.9,0.9-1.3
				c0.3-0.4,0.7-0.7,1.1-0.9S306.4,26.6,306.7,26.6z M304.9,22c0-0.1,0.1-0.1,0.2,0l1.3,1.1c0,0,0,0,0.1,0.1c0,0,0,0.1,0,0.1
				l-0.9,1.1c-0.1,0.1-0.1,0.1-0.2,0l-1.3-1.1c0,0,0,0,0-0.1c0,0,0-0.1,0-0.1L304.9,22z M307.1,30c0-0.2,0-0.4-0.1-0.7
				c-0.1-0.2-0.2-0.4-0.3-0.6c-0.1-0.1-0.2-0.2-0.3-0.2s-0.2,0-0.3,0c-0.1,0-0.3,0.1-0.5,0.1c-0.2,0.1-0.4,0.2-0.5,0.3
				c-0.2,0.1-0.3,0.3-0.5,0.4c-0.1,0.2-0.3,0.3-0.3,0.5c0,0.2,0.1,0.4,0.1,0.5s0.2,0.3,0.3,0.4s0.2,0.2,0.4,0.3
				c0.1,0.1,0.2,0.1,0.3,0.2c0.1,0,0.2-0.1,0.4-0.1c0.2-0.1,0.4-0.2,0.6-0.3c0.2-0.1,0.4-0.2,0.5-0.3C307,30.2,307.1,30.1,307.1,30z
				"/>
			<path d="M313.3,19.8c-0.4,0.2-0.8,0.3-1.2,0.5s-0.8,0.4-1.3,0.5c-0.4,0.2-0.8,0.3-1.1,0.5c-0.3,0.2-0.6,0.3-0.8,0.4
				c-0.1,0-0.1,0-0.1,0c0,0,0-0.1,0-0.1c0-0.1,0.1-0.1,0.1-0.2c0.1-0.1,0.1-0.2,0.2-0.3c0.1-0.1,0.1-0.2,0.2-0.3
				c0.1-0.1,0.1-0.2,0.1-0.2c0.1-0.1,0.1-0.2,0.2-0.2l4.3-1.8c0.1-0.1,0.1,0,0.1,0.1c0,0.1-0.1,0.1-0.1,0.2s-0.1,0.2-0.1,0.3
				c0,0.1-0.1,0.2-0.1,0.3s-0.1,0.2-0.1,0.2C313.5,19.7,313.4,19.7,313.3,19.8z"/>
			<path d="M311.9,27.7C311.9,27.6,311.9,27.6,311.9,27.7c0.1-0.1,0.2-0.1,0.3,0c0.2,0.2,0.4,0.4,0.6,0.7c0.2,0.2,0.3,0.5,0.5,0.8
				s0.2,0.5,0.3,0.8c0.1,0.3,0.1,0.6,0.1,0.9c0,0.1,0,0.3,0,0.4s0,0.3-0.1,0.5c0,0.2-0.1,0.3-0.1,0.5c0,0.1-0.1,0.3-0.2,0.4
				c-0.2,0.3-0.4,0.5-0.7,0.7c-0.3,0.2-0.7,0.3-1.1,0.4s-0.8,0.1-1.2,0.2c-0.4,0-0.7,0-1.1,0H309c-0.2,0-0.4-0.1-0.5-0.3
				s-0.2-0.4-0.2-0.6c0-0.2,0.1-0.4,0.2-0.6s0.3-0.3,0.5-0.3h0.2c0.2,0,0.4,0,0.7,0c0.3,0,0.6,0,1,0c0.3,0,0.7-0.1,1-0.1
				c0.3-0.1,0.6-0.1,0.8-0.3c0.1-0.1,0.2-0.2,0.1-0.3c-0.1-0.4-0.3-0.8-0.6-1.1s-0.5-0.6-0.8-0.9c0.1-0.3,0.1-0.5,0.2-0.8
				S311.8,28,311.9,27.7z M311.3,22.7l1.4,1.1c0.1,0.1,0.1,0.1,0,0.2l-0.9,1.2c-0.1,0.1-0.1,0.1-0.2,0l-1.4-1.1
				c-0.1-0.1-0.1-0.1,0-0.2l0.9-1.1C311.2,22.7,311.2,22.7,311.3,22.7z"/>
			<path d="M327.3,32.3c0-0.1,0-0.2,0-0.3c0-0.1,0.1-0.3,0.1-0.4c0.1-0.1,0.1-0.3,0.2-0.4c0.1-0.1,0.1-0.2,0.2-0.3
				c0.2-0.1,0.4-0.2,0.7-0.3c0.3-0.1,0.6-0.3,0.9-0.4s0.5-0.3,0.8-0.5c0.2-0.2,0.3-0.4,0.4-0.6c0-0.1,0-0.3,0-0.4s-0.1-0.3-0.1-0.4
				s-0.1-0.2-0.2-0.4c-0.1-0.1-0.1-0.2-0.2-0.3c-0.2,0.4-0.4,0.7-0.7,1s-0.6,0.3-1,0.3c-0.2,0-0.4,0-0.6-0.2
				c-0.2-0.1-0.3-0.2-0.5-0.4s-0.2-0.3-0.3-0.5c-0.1-0.2-0.1-0.4-0.1-0.6c0-0.2,0-0.4,0.1-0.6s0.1-0.4,0.2-0.7
				c0.1-0.2,0.2-0.5,0.3-0.7s0.2-0.4,0.4-0.6c0.1-0.2,0.3-0.3,0.5-0.4s0.4-0.2,0.6-0.2c0.3,0,0.5,0.1,0.8,0.3
				c0.3,0.2,0.5,0.5,0.7,0.8c0.2,0.3,0.4,0.6,0.5,1c0.2,0.3,0.3,0.6,0.3,0.8c0.1,0.3,0.1,0.7,0.2,1c0,0.3,0,0.7,0,1
				c0,0.3-0.1,0.7-0.3,1c-0.1,0.3-0.3,0.7-0.5,1c0.6,0.1,1.1,0.3,1.4,0.6c0.3,0.3,0.4,0.7,0.4,1.2c0,0.5-0.2,0.9-0.4,1.3
				c-0.3,0.4-0.6,0.8-1,1.2s-0.9,0.7-1.4,1c-0.5,0.3-1.1,0.6-1.6,0.8c-0.6,0.2-1.1,0.4-1.7,0.5c-0.6,0.1-1.1,0.2-1.6,0.2
				c-0.7,0-1.3-0.1-1.9-0.3s-1.1-0.4-1.5-0.8c-0.4-0.4-0.7-0.8-1-1.4c-0.2-0.5-0.3-1.2-0.3-1.9c0-0.4,0-0.7,0.1-1.1
				c0.1-0.4,0.2-0.7,0.3-1.1s0.3-0.7,0.5-1c0.2-0.3,0.4-0.6,0.6-0.9c0,0,0.1-0.1,0.1-0.1c0,0,0.1,0,0.1,0.1c0,0,0,0.1,0.1,0.1
				c0,0,0,0.1,0,0.1c-0.3,0.5-0.5,1.1-0.7,1.6c-0.2,0.6-0.2,1.2-0.2,1.7c0,0.6,0.2,1,0.4,1.4s0.6,0.7,0.9,0.9s0.8,0.4,1.2,0.5
				c0.5,0.1,0.9,0.2,1.4,0.2c0.5,0,0.9,0,1.4-0.1c0.4-0.1,0.9-0.2,1.3-0.3c0.4-0.1,0.8-0.3,1.2-0.5c0.4-0.2,0.8-0.4,1.2-0.6
				c0.1-0.1,0.3-0.2,0.5-0.3c0.2-0.1,0.4-0.3,0.6-0.4s0.3-0.3,0.5-0.4s0.2-0.2,0.2-0.3c0-0.1-0.1-0.2-0.2-0.2
				c-0.1-0.1-0.3-0.1-0.4-0.2c-0.1,0-0.3-0.1-0.5-0.1c-0.2,0-0.4-0.1-0.7-0.1c-0.3,0-0.5-0.1-0.8-0.1c-0.3,0-0.5-0.1-0.8-0.1
				c-0.2,0-0.4,0-0.6,0C327.5,32.3,327.4,32.3,327.3,32.3z M327,41.6C327,41.6,327,41.7,327,41.6c-0.1,0.1-0.2,0.1-0.2,0l-1.3-1
				l-0.9,1.2c-0.1,0.1-0.1,0.1-0.2,0l-1.4-1.1c-0.1,0-0.1-0.1,0-0.1l0.9-1.3c0,0,0.1-0.1,0.1-0.1c0,0,0,0,0.1,0l1.3,1l0.9-1.2
				c0-0.1,0.1-0.1,0.1,0l1.4,1.2c0.1,0,0.1,0.1,0,0.2L327,41.6z M327.7,19.9c0-0.1,0.1-0.1,0.2,0l1.3,1.1c0,0,0,0,0.1,0.1
				c0,0,0,0.1,0,0.1l-0.9,1.1c-0.1,0.1-0.1,0.1-0.2,0l-1.3-1.1c0,0,0,0,0-0.1c0,0,0-0.1,0-0.1L327.7,19.9z M327.8,26.6
				c0.1,0.2,0.2,0.3,0.3,0.4c0.1,0.1,0.3,0.2,0.5,0.2s0.4,0,0.6,0c0.2,0,0.3-0.1,0.5-0.3c0,0,0,0,0.1-0.1c0,0,0-0.1,0-0.2
				c-0.1-0.1-0.1-0.2-0.2-0.3c-0.1-0.1-0.2-0.2-0.3-0.3c-0.3-0.2-0.5-0.3-0.8-0.3c-0.2,0-0.3,0.1-0.4,0.3
				C327.9,26.3,327.8,26.4,327.8,26.6z"/>
			<path d="M347.6,18.9c-0.4,0.2-0.8,0.3-1.2,0.5s-0.8,0.4-1.3,0.5s-0.8,0.3-1.1,0.5c-0.3,0.2-0.6,0.3-0.8,0.4c-0.1,0-0.1,0-0.1,0
				c0,0,0-0.1,0-0.1c0-0.1,0.1-0.1,0.1-0.2c0.1-0.1,0.1-0.2,0.2-0.3s0.1-0.2,0.2-0.3c0.1-0.1,0.1-0.2,0.1-0.2
				c0.1-0.1,0.1-0.2,0.2-0.2l4.3-1.8c0.1-0.1,0.1,0,0.1,0.1c0,0.1-0.1,0.1-0.1,0.2s-0.1,0.2-0.1,0.3s-0.1,0.2-0.1,0.3
				s-0.1,0.2-0.1,0.2C347.7,18.8,347.7,18.9,347.6,18.9z"/>
			<path d="M355.6,32.1c0.2,0,0.4,0.1,0.5,0.3s0.2,0.4,0.2,0.6c0,0.2-0.1,0.4-0.2,0.6s-0.3,0.3-0.5,0.3h-0.2c-0.4,0-0.8-0.1-1.1-0.2
				c-0.3-0.1-0.6-0.3-0.9-0.6s-0.5-0.6-0.7-1c-0.2-0.4-0.3-0.8-0.4-1.3c-0.2,0.4-0.4,0.7-0.8,1.1c-0.3,0.3-0.7,0.6-1.1,0.9
				c-0.4,0.3-0.9,0.5-1.4,0.8c-0.5,0.2-1,0.4-1.5,0.6c-0.5,0.2-1.1,0.3-1.6,0.5c-0.6,0.1-1.1,0.2-1.7,0.2c-0.6,0-1.1,0-1.7-0.1
				c-0.6-0.1-1.1-0.2-1.6-0.5c-0.7-0.3-1.2-0.8-1.6-1.4s-0.6-1.3-0.6-2.1c0-0.7,0.1-1.3,0.4-2s0.6-1.2,1-1.7c0,0,0.1-0.1,0.1-0.1
				s0.1,0,0.1,0c0,0,0.1,0,0.1,0.1c0,0,0,0.1,0,0.1c-0.1,0.3-0.3,0.5-0.4,0.8s-0.2,0.5-0.3,0.8s-0.1,0.6-0.2,0.8
				c0,0.3,0,0.6,0.1,0.9c0.1,0.4,0.3,0.8,0.5,1.1c0.2,0.3,0.5,0.6,0.9,0.8c0.3,0.2,0.7,0.4,1.1,0.5c0.4,0.1,0.8,0.2,1.2,0.2
				c0.8,0.1,1.6,0,2.3-0.1s1.6-0.3,2.4-0.6c0.8-0.3,1.6-0.6,2.3-1c0.7-0.4,1.3-0.9,1.8-1.4c-0.1-0.7-0.2-1.3-0.2-2
				c-0.1-0.7-0.2-1.4-0.3-2c-0.1-0.4-0.1-0.8-0.2-1.2c0-0.4-0.1-0.8-0.1-1.2s-0.1-0.8-0.2-1.3c-0.1-0.5-0.1-1.1-0.2-1.7
				c0-0.1,0-0.2,0-0.3c0.1-0.2,0.2-0.4,0.3-0.6c0.1-0.2,0.2-0.4,0.3-0.6c0.1-0.1,0.1-0.1,0.1,0c0,0.1,0,0.3,0.1,0.6s0.1,0.6,0.1,0.9
				c0.1,1.2,0.3,2.3,0.4,3.2c0.1,0.9,0.2,1.7,0.3,2.4c0.1,0.7,0.2,1.3,0.3,2c0.1,0.7,0.2,1.4,0.4,2c0.1,0.3,0.2,0.6,0.3,0.8
				c0.1,0.3,0.3,0.5,0.5,0.7c0.2,0.2,0.4,0.3,0.7,0.5c0.2,0.1,0.5,0.2,0.8,0.2H355.6z M347.5,26.6c0,0.2,0,0.5,0,0.7
				c0,0.3-0.1,0.5-0.2,0.8c-0.1,0.3-0.2,0.5-0.4,0.7s-0.3,0.4-0.5,0.5c-0.2,0.1-0.4,0.2-0.6,0.3s-0.5,0.1-0.8,0
				c-0.3,0-0.5-0.1-0.8-0.1c-0.3-0.1-0.5-0.1-0.7-0.2c0,0,0,0,0-0.1c0,0,0-0.1,0-0.1c0,0,0.1-0.1,0.1-0.1c0,0,0.1,0,0.2,0
				c0.3,0,0.7,0,1,0c0.3-0.1,0.6-0.2,0.9-0.3s0.5-0.2,0.7-0.4c0.2-0.1,0.3-0.2,0.3-0.3c0-0.1,0-0.1-0.1-0.2c-0.1,0-0.2-0.1-0.3-0.1
				c-0.1,0-0.2,0-0.3,0c-0.1,0-0.2,0-0.2,0c-0.2,0-0.3,0-0.5-0.1s-0.3-0.2-0.5-0.4c-0.1-0.2-0.1-0.4-0.1-0.6s0.1-0.4,0.1-0.7
				s0.1-0.4,0.2-0.6s0.2-0.4,0.3-0.5c0.2-0.4,0.5-0.7,0.8-0.9c0.3-0.2,0.7-0.3,1-0.3c0,0,0.1,0,0.1,0.1c-0.1,0.3-0.1,0.5-0.2,0.7
				c-0.1,0.2-0.2,0.4-0.2,0.7c-0.1,0-0.2,0-0.4,0c-0.1,0-0.3,0.1-0.4,0.2s-0.3,0.2-0.4,0.3c-0.1,0.1-0.2,0.2-0.2,0.3
				c0,0.1,0.1,0.2,0.2,0.3s0.2,0.1,0.4,0.1c0.2,0,0.3,0,0.5,0c0.2,0,0.3,0,0.4,0c0.1,0,0.2,0.1,0.3,0.1
				C347.4,26.4,347.5,26.5,347.5,26.6z"/>
			<path d="M360.2,21.5c-0.4,0.2-0.8,0.3-1.2,0.5s-0.8,0.4-1.3,0.5s-0.8,0.3-1.1,0.5c-0.3,0.2-0.6,0.3-0.8,0.4c-0.1,0-0.1,0-0.1,0
				c0,0,0-0.1,0-0.1c0-0.1,0.1-0.1,0.1-0.2c0.1-0.1,0.1-0.2,0.2-0.3c0.1-0.1,0.1-0.2,0.2-0.3c0.1-0.1,0.1-0.2,0.1-0.2
				c0.1-0.1,0.1-0.2,0.2-0.2l4.3-1.8c0.1-0.1,0.1,0,0.1,0.1c0,0.1-0.1,0.1-0.1,0.2c0,0.1-0.1,0.2-0.1,0.3c0,0.1-0.1,0.2-0.1,0.3
				s-0.1,0.2-0.1,0.2C360.3,21.3,360.3,21.4,360.2,21.5z"/>
			<path d="M358.9,27.6C358.9,27.6,358.9,27.6,358.9,27.6c0.1-0.1,0.2-0.1,0.3,0c0.2,0.2,0.4,0.4,0.6,0.7c0.2,0.2,0.3,0.5,0.5,0.8
				s0.2,0.5,0.3,0.8c0.1,0.3,0.1,0.6,0.1,0.9c0,0.1,0,0.3,0,0.4s0,0.3-0.1,0.5c0,0.2-0.1,0.3-0.1,0.5c0,0.1-0.1,0.3-0.2,0.4
				c-0.1,0.2-0.3,0.3-0.5,0.5s-0.5,0.2-0.8,0.3c-0.3,0.1-0.6,0.2-0.9,0.2s-0.6,0.1-1,0.1c-0.3,0-0.6,0.1-0.9,0.1c-0.3,0-0.5,0-0.7,0
				h-0.2c-0.2,0-0.4-0.1-0.5-0.3s-0.2-0.4-0.2-0.6c0-0.2,0.1-0.4,0.2-0.6s0.3-0.3,0.5-0.3h0.2c0.1,0,0.3,0,0.5,0c0.2,0,0.5,0,0.7,0
				c0.3,0,0.6,0,0.9,0c0.3,0,0.6,0,0.9-0.1c0.3,0,0.5-0.1,0.8-0.1c0.2-0.1,0.4-0.1,0.5-0.2c0.1-0.1,0.2-0.2,0.1-0.3
				c-0.1-0.4-0.3-0.8-0.6-1.1s-0.5-0.6-0.8-0.9c0.1-0.3,0.1-0.5,0.2-0.8S358.8,27.9,358.9,27.6z M357,36.2l1.3,1.1
				c0,0,0.1,0.1,0,0.1c0,0,0,0.1,0,0.1l-0.9,1.1c0,0.1-0.1,0.1-0.2,0l-1.3-1.1c-0.1,0-0.1-0.1,0-0.2l0.9-1.1
				C356.9,36.1,356.9,36.1,357,36.2z"/>
			<path d="M367.3,18.2c-0.4,0.2-0.8,0.3-1.2,0.5s-0.8,0.4-1.3,0.5c-0.4,0.2-0.8,0.3-1.1,0.5c-0.3,0.2-0.6,0.3-0.8,0.4
				c-0.1,0-0.1,0-0.1,0c0,0,0-0.1,0-0.1c0-0.1,0.1-0.1,0.1-0.2c0.1-0.1,0.1-0.2,0.2-0.3c0.1-0.1,0.1-0.2,0.2-0.3
				c0.1-0.1,0.1-0.2,0.1-0.2c0.1-0.1,0.1-0.2,0.2-0.2l4.3-1.8c0.1-0.1,0.1,0,0.1,0.1c0,0.1-0.1,0.1-0.1,0.2s-0.1,0.2-0.1,0.3
				c0,0.1-0.1,0.2-0.1,0.3s-0.1,0.2-0.1,0.2C367.4,18,367.4,18.1,367.3,18.2z M365.1,22.4c-0.2,0.3-0.3,0.6-0.5,0.7
				c-0.2,0.2-0.5,0.3-0.8,0.3c-0.3,0-0.5,0-0.7-0.1s-0.3-0.4-0.3-0.7c0-0.2,0-0.3,0-0.5s0.1-0.3,0.1-0.5c0.1-0.1,0.1-0.3,0.2-0.4
				c0.1-0.1,0.2-0.2,0.2-0.2c0.1,0,0.1,0,0,0.2c0,0.1-0.1,0.2-0.1,0.3c0,0.1,0,0.2,0,0.3c0,0.1,0,0.2,0,0.3s0.1,0.2,0.1,0.2
				c0.1,0.1,0.2,0.1,0.3,0.1c0.1,0,0.3,0,0.4-0.1c0.1-0.1,0.3-0.1,0.4-0.2c0.1-0.1,0.2-0.2,0.3-0.3c0.1-0.1,0.1-0.2,0.2-0.4
				c0-0.1,0.1-0.3,0.1-0.4c0,0,0-0.1,0-0.2c0-0.1,0-0.1,0-0.2s0-0.1,0.1-0.1s0.1-0.1,0.1-0.1c0,0,0.1,0,0.1,0.1c0,0,0,0.1,0,0.1
				c0,0.1,0,0.1,0,0.2c0,0.1,0,0.1,0,0.1c0,0.2,0,0.4,0.1,0.5c0.1,0.1,0.2,0.2,0.4,0.2c0.1,0,0.3,0,0.4,0s0.3-0.1,0.4-0.2
				c0,0,0-0.1,0-0.1s0-0.1,0-0.2c0-0.1,0-0.1-0.1-0.2c0-0.1,0-0.1,0-0.1c0,0,0-0.1,0-0.2s0.1-0.2,0.1-0.3c0-0.1,0.1-0.2,0.1-0.3
				s0.1-0.1,0.1-0.1c0.1,0,0.1,0.1,0.2,0.2c0,0.1,0.1,0.3,0.1,0.4c0,0.2,0,0.3,0,0.5c0,0.2,0,0.3-0.1,0.5c0,0.1-0.1,0.3-0.1,0.4
				c-0.1,0.1-0.1,0.3-0.2,0.4c-0.1,0.1-0.2,0.2-0.3,0.3c-0.1,0.1-0.2,0.1-0.4,0.2c-0.3,0.1-0.5,0.1-0.7,0
				C365.4,22.7,365.2,22.5,365.1,22.4z"/>
			<path d="M366.7,29c0-0.1,0.1-0.1,0.2,0c0.3,0.3,0.6,0.6,0.8,1c0.3,0.4,0.5,0.8,0.6,1.2c0.2,0.4,0.3,0.9,0.4,1.3s0.1,0.9,0.1,1.3
				c0,0.4-0.1,0.7-0.2,1.1c-0.1,0.4-0.3,0.8-0.4,1.1c-0.2,0.4-0.4,0.7-0.6,1.1s-0.5,0.7-0.7,1c-0.3,0.3-0.6,0.6-0.9,0.8
				s-0.6,0.4-1,0.5c-0.4,0.1-0.8,0.2-1.3,0.3c-0.5,0-0.9,0-1.4,0s-0.9-0.1-1.4-0.2s-0.9-0.2-1.2-0.3c-0.1,0-0.1-0.1-0.2-0.1
				c0-0.1,0-0.1,0-0.2s0.1-0.1,0.1-0.1c0.1,0,0.1-0.1,0.2,0c0.4,0.1,0.9,0.1,1.3,0c0.4,0,0.9-0.1,1.3-0.2s0.9-0.2,1.3-0.4
				s0.8-0.4,1.2-0.6c0.3-0.2,0.7-0.4,1-0.7c0.3-0.3,0.6-0.6,0.9-0.9c0.3-0.3,0.5-0.7,0.8-1.1s0.4-0.8,0.6-1.1c0-0.2-0.1-0.5-0.3-0.8
				c-0.1-0.3-0.3-0.6-0.5-0.9c-0.2-0.3-0.4-0.6-0.6-0.9c-0.2-0.3-0.4-0.5-0.5-0.6c0.1-0.3,0.1-0.6,0.2-0.8
				C366.6,29.5,366.7,29.3,366.7,29z"/>
			<path d="M380.5,30.8c0-0.1,0.1-0.1,0.1-0.1c0,0,0.1,0.1,0.1,0.1c0.2,0.3,0.5,0.5,0.7,0.7c0.3,0.2,0.5,0.3,0.8,0.3
				s0.5,0.1,0.8,0.1c0.3,0,0.5,0,0.7,0h0.2c0.2,0,0.4,0.1,0.5,0.3c0.1,0.2,0.2,0.4,0.2,0.6c0,0.2-0.1,0.4-0.2,0.6
				c-0.1,0.2-0.3,0.3-0.5,0.3h-0.2c-0.1,0-0.2,0-0.3,0c-0.1,0-0.3,0-0.4,0c-0.1,0-0.3,0-0.4,0c-0.1,0-0.3,0-0.4-0.1
				c-0.1,0.5-0.2,1-0.4,1.5s-0.3,0.8-0.4,1.2c-0.1,0.3-0.3,0.6-0.4,0.9c-0.1,0.2-0.2,0.4-0.3,0.5c-0.3,0.4-0.6,0.7-0.9,0.9
				s-0.6,0.5-1,0.6c-0.3,0.2-0.7,0.3-1.1,0.4s-0.7,0.1-1.1,0.2c-0.5,0-1.1,0-1.8-0.1c-0.6-0.1-1.3-0.3-2-0.5c-0.1,0-0.2-0.1-0.2-0.2
				c0-0.1,0-0.1,0-0.2c0,0,0.1-0.1,0.2-0.1c0.1,0,0.2,0,0.4,0c0.9,0.1,1.8,0.1,2.5-0.1s1.6-0.5,2.3-0.9c0.9-0.5,1.6-1.1,2.2-1.8
				c0.5-0.7,0.9-1.5,1.1-2.4c-0.3-0.1-0.6-0.3-0.8-0.5c-0.3-0.2-0.5-0.4-0.7-0.7c0.1-0.2,0.1-0.5,0.2-0.8
				C380.3,31.4,380.4,31.1,380.5,30.8z"/>
			<path d="M385.6,18.2c-0.1,0-0.1-0.1,0-0.1s0.2-0.2,0.3-0.2c0.2-0.2,0.5-0.3,0.7-0.5c0.2-0.2,0.5-0.3,0.7-0.5
				c0.2-0.2,0.5-0.3,0.7-0.5c0.2-0.2,0.4-0.4,0.7-0.6c-0.2-0.1-0.4-0.2-0.6-0.3s-0.4-0.3-0.5-0.4c-0.1-0.1-0.1-0.2-0.1-0.3
				c0-0.1,0-0.3,0-0.4c0.1-0.2,0.2-0.4,0.3-0.6s0.2-0.4,0.4-0.6c0.1-0.2,0.3-0.3,0.5-0.4c0.2-0.1,0.4-0.2,0.6-0.1
				c0.1,0,0.3,0.1,0.4,0.2c0.1,0.1,0.2,0.2,0.2,0.4c0.1,0.1,0.1,0.3,0.1,0.5c0,0.2,0,0.4,0,0.5s0,0.3,0,0.5c0,0.2,0,0.3-0.1,0.3
				c0,0,0,0.1,0.1,0.1c0.1,0.1,0.2,0.1,0.2,0.1s0.1,0.1,0.1,0.2c0,0.1,0,0.2,0,0.4s-0.1,0.3-0.1,0.4c-0.1,0.1-0.1,0.1-0.2,0.1
				c-0.1,0-0.1,0-0.1-0.1c0-0.1-0.1-0.1-0.1-0.1c0,0-0.1-0.1-0.1-0.1c-0.2,0.3-0.5,0.5-0.7,0.8c-0.2,0.2-0.4,0.4-0.7,0.6
				c-0.2,0.2-0.5,0.3-0.7,0.4s-0.6,0.3-0.9,0.4c-0.1,0-0.3,0.1-0.4,0.1C385.8,18.2,385.7,18.2,385.6,18.2z M388,14
				c0.1,0.2,0.3,0.4,0.5,0.5c0.2,0.1,0.4,0.2,0.6,0.3h0c0-0.1,0-0.1,0-0.2c0-0.1,0-0.2,0-0.3s0-0.2,0-0.3s-0.1-0.2-0.1-0.2
				c-0.1-0.1-0.1-0.1-0.2-0.1c-0.1,0-0.2,0-0.3,0.1s-0.2,0.1-0.3,0.2C388.1,13.9,388,14,388,14z"/>
			<path d="M383.6,32.1h0.2c0.3,0,0.6,0,0.9,0c0.3,0,0.6,0,0.9,0c0.3,0,0.6,0,0.9-0.1c0.3,0,0.6-0.1,1-0.1c0.2,0,0.4-0.1,0.5-0.1
				c0.2,0,0.4-0.1,0.6-0.2c0.2-0.1,0.4-0.1,0.5-0.2s0.3-0.2,0.4-0.3c0-0.4-0.1-0.8-0.2-1.1c-0.1-0.4-0.3-0.7-0.6-1s-0.5-0.7-0.8-1
				c-0.3-0.3-0.6-0.6-0.9-0.9c-0.3-0.3-0.6-0.5-0.9-0.8c-0.3-0.2-0.5-0.5-0.8-0.7c0,0-0.1,0-0.1,0s0,0-0.1,0.1c0,0,0,0.1-0.1,0.1
				c0,0,0,0,0,0c-0.1,0-0.2,0-0.3-0.1c-0.1-0.1-0.3-0.1-0.4-0.2c-0.1-0.1-0.3-0.2-0.4-0.3c-0.1-0.1-0.2-0.2-0.2-0.3
				c-0.1-0.2-0.1-0.4-0.2-0.6c0-0.2-0.1-0.5,0-0.7c0-0.7,0.2-1.3,0.6-1.8c0.4-0.5,0.8-0.9,1.3-1.2c0.4-0.2,0.8-0.5,1.3-0.7
				s1.1-0.5,1.6-0.8s1.2-0.6,1.8-0.8c0.6-0.3,1.2-0.5,1.8-0.8c0.6-0.3,1.1-0.5,1.6-0.7c0.5-0.2,0.9-0.4,1.2-0.5c0.1,0,0.1,0,0.1,0
				c-0.1,0.3-0.2,0.6-0.3,0.8c-0.1,0.2-0.2,0.5-0.3,0.8c-0.3,0.1-0.6,0.2-1,0.4c-0.4,0.2-0.8,0.3-1.3,0.5c-0.5,0.2-0.9,0.4-1.4,0.7
				c-0.5,0.2-1,0.5-1.5,0.7c-0.5,0.2-1,0.5-1.4,0.7c-0.5,0.2-0.9,0.4-1.3,0.6c-0.4,0.2-0.7,0.4-1,0.5c-0.3,0.2-0.5,0.3-0.6,0.3
				c-0.1,0.1-0.3,0.2-0.4,0.3c-0.1,0.1-0.2,0.2-0.2,0.2c0,0.1,0,0.1,0.1,0.2c0.1,0,0.1,0.1,0.2,0.1c0.6,0.4,1.1,0.8,1.7,1.3
				c0.6,0.5,1.1,1,1.6,1.6c0.5,0.6,0.9,1.2,1.3,1.8s0.6,1.3,0.7,2c0,0.3,0,0.5,0,0.8s-0.1,0.6-0.2,0.8s-0.2,0.5-0.3,0.8
				c-0.1,0.2-0.3,0.4-0.5,0.6c-0.3,0.2-0.6,0.4-1,0.5s-0.8,0.2-1.3,0.3c-0.5,0.1-0.9,0.1-1.5,0.2c-0.5,0-1,0-1.6,0h-0.2
				c-0.2,0-0.4-0.1-0.5-0.3s-0.2-0.4-0.2-0.6c0-0.2,0.1-0.4,0.2-0.6S383.4,32.1,383.6,32.1z"/>
			<path d="M395.3,27.1c0-0.2,0-0.5,0-0.7c0-0.2,0-0.5,0.1-0.8c0-0.1,0.1-0.2,0.2-0.2s0.2,0,0.3,0c0.5,0.1,1,0.4,1.4,0.8
				s0.9,0.8,1.2,1.3c0.3,0.5,0.6,1,0.9,1.5c0.2,0.5,0.4,1,0.4,1.5c0,0.2,0,0.4,0,0.6s-0.1,0.5-0.1,0.7s-0.1,0.4-0.2,0.6
				s-0.2,0.3-0.3,0.4c-0.3,0.2-0.6,0.4-1,0.5c-0.4,0.1-0.8,0.3-1.2,0.3s-0.9,0.2-1.3,0.2s-0.9,0.1-1.2,0.1c-0.1,0-0.2,0-0.3,0
				s-0.3,0-0.4-0.1c-0.1,0-0.2-0.1-0.3-0.2s-0.1-0.2-0.1-0.3c0,0,0-0.2,0-0.3c0-0.2,0-0.4,0-0.5c0-0.2,0-0.4,0.1-0.5
				c0-0.2,0.1-0.2,0.1-0.2c0,0,0,0,0.1,0c0,0,0,0.1,0.1,0.1c0.1,0.1,0.3,0.2,0.5,0.2c0.2,0,0.4,0.1,0.6,0.1c0.2,0,0.4,0,0.6,0
				c0.2,0,0.4,0,0.5,0c0.3,0,0.5,0,0.8-0.1c0.3,0,0.6-0.1,0.8-0.2s0.5-0.1,0.8-0.2c0.2-0.1,0.4-0.2,0.6-0.3c0.1,0,0.1-0.1,0.2-0.1
				c0.1-0.1,0.1-0.1,0.1-0.2c-0.1-0.4-0.2-0.8-0.5-1.2c-0.2-0.4-0.5-0.8-0.9-1.2c-0.3-0.4-0.7-0.7-1.2-1
				C396.1,27.4,395.7,27.2,395.3,27.1z M394.9,20.7l1.4,1.1c0.1,0.1,0.1,0.1,0,0.2l-0.9,1.2c-0.1,0.1-0.1,0.1-0.2,0l-1.4-1.1
				c-0.1-0.1-0.1-0.1,0-0.2l0.9-1.1C394.8,20.6,394.9,20.6,394.9,20.7z"/>
			<path d="M402.7,19.2c0.1,0,0.1,0,0.1,0.1c0,0,0,0.1,0,0.1c0,0,0,0.1,0,0.1s0,0.1,0,0.1c0,0.3,0,0.6,0,0.8s0.1,0.5,0.1,0.8
				c0.1,0.7,0.2,1.4,0.3,2.1c0.1,0.7,0.2,1.4,0.3,2.1s0.2,1.4,0.3,2.1c0.1,0.7,0.2,1.4,0.3,2.1c0,0.3,0,0.6,0.1,0.9
				c0,0.4,0,0.7,0,1.1c0,0.4-0.1,0.7-0.1,1c-0.1,0.3-0.1,0.6-0.2,0.9c0,0.1-0.1,0.2-0.2,0.2c-0.1,0-0.1,0-0.1-0.1
				c-0.1-1.3-0.2-2.6-0.4-4c-0.2-1.4-0.4-2.8-0.6-4.2c-0.2-1.4-0.4-2.8-0.5-4.2c0-0.3,0.1-0.7,0.3-1.1c0.1-0.2,0.2-0.4,0.2-0.6
				C402.6,19.5,402.7,19.4,402.7,19.2z"/>
			<path d="M410.8,22.9c-0.4,0.2-0.8,0.3-1.2,0.5s-0.8,0.4-1.3,0.5c-0.4,0.2-0.8,0.3-1.1,0.5c-0.3,0.2-0.6,0.3-0.8,0.4
				c-0.1,0-0.1,0-0.1,0s0-0.1,0-0.1c0-0.1,0.1-0.1,0.1-0.2c0.1-0.1,0.1-0.2,0.2-0.3c0.1-0.1,0.1-0.2,0.2-0.3
				c0.1-0.1,0.1-0.2,0.1-0.2c0.1-0.1,0.1-0.2,0.2-0.2l4.3-1.8c0.1-0.1,0.1,0,0.1,0.1c0,0.1-0.1,0.1-0.1,0.2c0,0.1-0.1,0.2-0.1,0.3
				s-0.1,0.2-0.1,0.3s-0.1,0.2-0.1,0.2C411,22.7,410.9,22.8,410.8,22.9z"/>
			<path d="M411.7,31.8c-0.1,0.3-0.3,0.6-0.6,0.8c-0.3,0.2-0.6,0.3-1,0.3c-0.2,0-0.4-0.1-0.6-0.2s-0.3-0.2-0.5-0.4
				c-0.1-0.2-0.2-0.4-0.3-0.6s-0.1-0.4-0.1-0.7c0-0.2,0-0.3,0.1-0.6c0.1-0.2,0.1-0.4,0.2-0.6c0.1-0.2,0.2-0.4,0.3-0.7
				c0.1-0.2,0.2-0.4,0.4-0.6s0.3-0.3,0.4-0.4c0.1-0.1,0.3-0.2,0.5-0.2c0.3,0,0.6,0.1,0.8,0.3c0.3,0.2,0.5,0.5,0.7,0.9
				c0.2,0.4,0.3,0.8,0.4,1.2s0.2,0.8,0.1,1.3c0,0.5-0.1,1.1-0.2,1.7s-0.3,1.2-0.5,1.7c-0.2,0.6-0.5,1.1-0.7,1.6s-0.6,0.9-0.9,1.3
				c-0.3,0.3-0.6,0.6-1,0.8s-0.7,0.4-1.1,0.5c-0.4,0.1-0.8,0.2-1.2,0.3s-0.8,0.1-1.2,0c-0.5,0-0.9-0.1-1.3-0.1
				c-0.4-0.1-0.9-0.2-1.3-0.3c-0.1,0-0.1-0.1-0.1-0.1c0-0.1,0-0.1,0-0.2c0-0.1,0.1-0.1,0.1-0.1s0.1-0.1,0.3,0c0.6,0.1,1.2,0.1,1.8,0
				c0.6-0.1,1.2-0.2,1.7-0.4c0.5-0.2,0.9-0.4,1.3-0.7c0.4-0.3,0.8-0.6,1.2-0.9c0.3-0.3,0.6-0.6,0.8-0.9c0.3-0.3,0.5-0.7,0.7-1.1
				s0.4-0.7,0.6-1.1s0.3-0.7,0.3-1c0-0.1,0-0.1,0-0.2s0-0.2,0-0.3c0-0.1,0-0.2-0.1-0.2C411.7,31.9,411.7,31.8,411.7,31.8z
				 M411.3,30.8c0-0.1,0-0.1-0.1-0.2c-0.1-0.1-0.1-0.2-0.2-0.3s-0.2-0.2-0.3-0.3c-0.1-0.1-0.3-0.1-0.4-0.1c-0.1,0-0.2,0.1-0.3,0.1
				c-0.1,0.1-0.2,0.2-0.2,0.3c-0.1,0.1-0.1,0.2-0.1,0.3c0,0.1,0,0.2,0,0.2c0.1,0.1,0.2,0.3,0.4,0.3c0.2,0.1,0.3,0.1,0.5,0.1
				c0.2,0,0.4-0.1,0.5-0.1C411.1,30.9,411.2,30.9,411.3,30.8z"/>
		</g>
		<g>
			<path d="M428.8,29.1c0,0.1-0.1,0.3-0.2,0.4c-0.2,0.2-0.4,0.4-0.8,0.6c0,0.4-0.1,0.7-0.2,1.1c-0.1,0.3-0.2,0.5-0.3,0.5
				c-0.4-0.4-0.7-0.7-1.1-1c-0.4-0.3-0.8-0.5-1.2-0.5c0,0.4,0.2,0.8,0.6,1.2c0.3,0.3,0.6,0.7,0.9,1c0,0.2-0.3,0.3-1,0.5
				c-0.5,0.1-0.9,0.1-1.2,0.1c-0.5,1.4-1.1,2.7-2,3.9c-0.4,0.5-0.9,1.1-1.5,1.7c-0.8,0.8-1.4,1.2-1.8,1.2c-0.1,0-0.2-0.1-0.2-0.2
				c0-0.1,0.2-0.4,0.7-0.9c0.7-0.8,1.2-1.4,1.5-2.1c0.6-1.1,1-2.3,1.2-3.7c-0.4-0.1-0.7-0.1-0.8-0.2c-0.1-0.1-0.2-0.1-0.2-0.3
				c0.9-0.8,1.4-1.5,1.4-2.2c-0.4,0-0.8,0.2-1.2,0.5c-0.2,0.2-0.6,0.6-1,1c-0.1,0-0.2-0.2-0.4-0.5c-0.1-0.4-0.2-0.7-0.2-1.1
				c-0.4-0.2-0.6-0.4-0.7-0.4c-0.3-0.2-0.4-0.4-0.4-0.6c0-0.1,0.1-0.3,0.2-0.4c0.1-0.1,0.4-0.3,0.8-0.5c0-1.1,0.2-1.6,0.6-1.6
				c0.8,0.9,1.5,1.3,2.2,1.4c0-0.3-0.2-0.8-0.5-1.2c0,0-0.3-0.4-0.9-1c0-0.1,0.1-0.2,0.2-0.2c0.2-0.1,0.4-0.1,0.9-0.2
				c-0.2-1.1-0.6-2.2-1.3-3.3c-0.6-1.1-1.4-2.1-2.2-2.8c-0.1-0.1-0.2-0.2-0.2-0.3c0-0.1,0.1-0.2,0.3-0.2c0.3,0,0.7,0.2,1.3,0.6
				c1.8,1.3,3.2,3.2,4.1,5.8c1.4,0,2.1,0.2,2.1,0.6c-0.4,0.3-0.7,0.7-0.9,1c-0.3,0.4-0.4,0.8-0.4,1.2c0.3,0,0.7-0.2,1-0.5l1.1-1
				c0.2,0,0.4,0.5,0.5,1.4c0,0.1,0,0.2,0,0.3C428.4,28.5,428.8,28.8,428.8,29.1z M425.6,25.9c0,0-0.1-0.1-0.4-0.1
				c-0.2,0-0.4-0.1-0.5-0.1h-0.4c-0.1,0-0.2,0-0.3,0.1c-0.4-1.2-0.9-2.4-1.7-3.5c-0.9-1.2-1.8-2.2-3-3c0.8,0.7,1.4,1.6,2,2.6
				c0.7,1.2,1.2,2.5,1.4,3.8c-0.5,0-0.8,0.1-0.8,0.2c0.6,0.5,1,1,1.3,1.5c0.1-0.2,0.2-0.5,0.3-0.7c0,0,0.1-0.1,0.1-0.3
				c0.1-0.2,0.1-0.3,0.2-0.3c0.2,0,0.4,0.5,0.7,1.4c0.2-0.3,0.3-0.7,0.6-0.9C425.2,26.3,425.4,26.1,425.6,25.9z M422.2,29.9
				c-0.1-0.1-0.5-0.2-1.1-0.4c-0.4-0.1-0.6-0.2-0.6-0.3c0,0,0.3-0.2,0.9-0.4c0.1-0.1,0.4-0.2,0.7-0.3c-0.3-0.1-0.7-0.3-1-0.5
				c-0.1-0.1-0.4-0.3-0.7-0.6c-0.1,0-0.2,0.4-0.2,1.2c-0.6,0.3-0.9,0.6-0.9,0.7c0,0.2,0.3,0.3,0.9,0.6c0,0.8,0.1,1.3,0.3,1.3
				c0,0,0.2-0.2,0.6-0.5C421.7,30.2,422,30,422.2,29.9z M425.8,32.4c-0.5-0.4-0.9-0.9-1.2-1.4c-0.1,0.2-0.2,0.4-0.3,0.7
				c0,0-0.1,0.2-0.2,0.4c-0.1,0.2-0.2,0.3-0.2,0.3c0,0-0.1-0.1-0.2-0.3c-0.1-0.2-0.1-0.3-0.2-0.3c0-0.1-0.1-0.3-0.3-0.7
				c-0.1,0.3-0.3,0.6-0.5,0.8c-0.2,0.2-0.4,0.4-0.6,0.6c0,0.1,0.3,0.1,0.8,0.3c-0.3,1.3-0.5,2.1-0.6,2.4c-0.5,1.4-1.3,2.8-2.4,4.1
				c1.9-1.3,3.3-3.4,4.3-6.5c0.7,0,1,0,0.9,0C425.5,32.7,425.7,32.6,425.8,32.4z M425.1,29.2c0-0.4-0.1-0.7-0.4-0.9
				c-0.2-0.2-0.6-0.3-0.9-0.3c-0.3,0-0.6,0.1-0.9,0.4c-0.3,0.2-0.4,0.5-0.4,0.9c0,0.4,0.1,0.7,0.4,0.9c0.3,0.2,0.6,0.4,0.9,0.4
				c0.4,0,0.7-0.1,0.9-0.4C425,29.8,425.1,29.5,425.1,29.2z M428.3,29.1c0-0.1-0.1-0.2-0.2-0.3s-0.4-0.2-0.7-0.3
				c0-0.4,0-0.7-0.1-0.9c-0.1-0.2-0.1-0.4-0.2-0.4c0,0-0.2,0.2-0.5,0.5c-0.3,0.3-0.7,0.6-1.1,0.7c0.2,0.1,0.4,0.2,0.8,0.4
				c0,0,0.2,0.1,0.6,0.2c0.3,0.1,0.4,0.2,0.4,0.2c0,0.1-0.2,0.2-0.6,0.3c-0.6,0.2-1,0.3-1.1,0.3c0.4,0.1,0.7,0.3,1,0.5
				c0.1,0.1,0.4,0.3,0.6,0.6c0.1,0,0.1-0.1,0.2-0.3c0-0.1,0-0.4,0-0.8C428,29.5,428.3,29.2,428.3,29.1z"/>
		</g>
		<g>
			<path d="M6.9,29.5c0-0.1,0.1-0.3,0.2-0.4c0.2-0.2,0.4-0.4,0.8-0.6c0-0.4,0.1-0.7,0.2-1.1c0.1-0.3,0.2-0.5,0.3-0.5
				c0.4,0.4,0.7,0.7,1.1,1c0.4,0.3,0.8,0.5,1.2,0.5c0-0.4-0.2-0.8-0.6-1.2c-0.3-0.3-0.6-0.7-0.9-1c0-0.2,0.3-0.3,1-0.5
				c0.5-0.1,0.9-0.1,1.2-0.1c0.5-1.4,1.1-2.7,2-3.9c0.4-0.5,0.9-1.1,1.5-1.7c0.8-0.8,1.4-1.2,1.8-1.2c0.1,0,0.2,0.1,0.2,0.2
				c0,0.1-0.2,0.4-0.7,0.9c-0.7,0.8-1.2,1.4-1.5,2.1c-0.6,1.1-1,2.3-1.2,3.7c0.4,0.1,0.7,0.1,0.8,0.2c0.1,0.1,0.2,0.1,0.2,0.3
				c-0.9,0.8-1.4,1.5-1.4,2.2c0.4,0,0.8-0.2,1.2-0.5c0.2-0.2,0.6-0.6,1-1c0.1,0,0.2,0.2,0.4,0.5c0.1,0.4,0.2,0.7,0.2,1.1
				c0.4,0.2,0.6,0.4,0.7,0.4c0.3,0.2,0.4,0.4,0.4,0.6c0,0.1-0.1,0.3-0.2,0.4c-0.1,0.1-0.4,0.3-0.8,0.5c0,1.1-0.2,1.6-0.6,1.6
				c-0.8-0.9-1.5-1.3-2.2-1.4c0,0.3,0.2,0.8,0.5,1.2c0,0,0.3,0.4,0.9,1c0,0.1-0.1,0.2-0.2,0.2c-0.2,0.1-0.4,0.1-0.9,0.2
				c0.2,1.1,0.6,2.2,1.3,3.3c0.6,1.1,1.4,2.1,2.2,2.8c0.1,0.1,0.2,0.2,0.2,0.3c0,0.1-0.1,0.2-0.3,0.2c-0.3,0-0.7-0.2-1.3-0.6
				c-1.8-1.3-3.2-3.2-4.1-5.8c-1.4,0-2.1-0.2-2.1-0.6c0.4-0.3,0.7-0.7,0.9-1c0.3-0.4,0.4-0.8,0.4-1.2c-0.3,0-0.7,0.2-1,0.5l-1.1,1
				c-0.2,0-0.4-0.5-0.5-1.4c0-0.1,0-0.2,0-0.3C7.2,30.1,6.9,29.8,6.9,29.5z M10,32.7c0,0,0.1,0.1,0.4,0.1c0.2,0,0.4,0.1,0.5,0.1h0.4
				c0.1,0,0.2,0,0.3-0.1c0.4,1.2,0.9,2.4,1.7,3.5c0.9,1.2,1.8,2.2,3,3c-0.8-0.7-1.4-1.6-2-2.6c-0.7-1.2-1.2-2.5-1.4-3.8
				c0.5,0,0.8-0.1,0.8-0.2c-0.6-0.5-1-1-1.3-1.5c-0.1,0.2-0.2,0.5-0.3,0.7c0,0-0.1,0.1-0.1,0.3c-0.1,0.2-0.1,0.3-0.2,0.3
				c-0.2,0-0.4-0.5-0.7-1.4c-0.2,0.3-0.3,0.7-0.6,0.9C10.5,32.3,10.3,32.5,10,32.7z M13.4,28.7c0.1,0.1,0.5,0.2,1.1,0.4
				c0.4,0.1,0.6,0.2,0.6,0.3c0,0-0.3,0.2-0.9,0.4c-0.1,0.1-0.4,0.2-0.7,0.3c0.3,0.1,0.7,0.3,1,0.5c0.1,0.1,0.4,0.3,0.7,0.6
				c0.1,0,0.2-0.4,0.2-1.2c0.6-0.3,0.9-0.6,0.9-0.7c0-0.2-0.3-0.3-0.9-0.6c0-0.8-0.1-1.3-0.3-1.3c0,0-0.2,0.2-0.6,0.5
				C14,28.4,13.7,28.6,13.4,28.7z M9.9,26.2c0.5,0.4,0.9,0.9,1.2,1.4c0.1-0.2,0.2-0.4,0.3-0.7c0,0,0.1-0.2,0.2-0.4
				c0.1-0.2,0.2-0.3,0.2-0.3c0,0,0.1,0.1,0.2,0.3c0.1,0.2,0.1,0.3,0.2,0.3c0,0.1,0.1,0.3,0.3,0.7c0.1-0.3,0.3-0.6,0.5-0.8
				c0.2-0.2,0.4-0.4,0.6-0.6c0-0.1-0.3-0.1-0.8-0.3c0.3-1.3,0.5-2.1,0.6-2.4c0.5-1.4,1.3-2.8,2.4-4.1c-1.9,1.3-3.3,3.4-4.3,6.5
				c-0.7,0-1,0-0.9,0C10.2,25.9,9.9,26,9.9,26.2z M10.5,29.4c0,0.4,0.1,0.7,0.4,0.9c0.2,0.2,0.6,0.3,0.9,0.3c0.3,0,0.6-0.1,0.9-0.4
				c0.3-0.2,0.4-0.5,0.4-0.9c0-0.4-0.1-0.7-0.4-0.9c-0.3-0.2-0.6-0.4-0.9-0.4c-0.4,0-0.7,0.1-0.9,0.4C10.6,28.8,10.5,29.1,10.5,29.4
				z M7.4,29.5c0,0.1,0.1,0.2,0.2,0.3S8,30,8.3,30.1c0,0.4,0,0.7,0.1,0.9c0.1,0.2,0.1,0.4,0.2,0.4c0,0,0.2-0.2,0.5-0.5
				c0.3-0.3,0.7-0.6,1.1-0.7c-0.2-0.1-0.4-0.2-0.8-0.4c0,0-0.2-0.1-0.6-0.2c-0.3-0.1-0.4-0.2-0.4-0.2c0-0.1,0.2-0.2,0.6-0.3
				c0.6-0.2,1-0.3,1.1-0.3c-0.4-0.1-0.7-0.3-1-0.5c-0.1-0.1-0.4-0.3-0.6-0.6c-0.1,0-0.1,0.1-0.2,0.3c0,0.1,0,0.4,0,0.8
				C7.7,29.1,7.4,29.4,7.4,29.5z"/>
		</g>
	</g>
	<rect class="st1" width="435.7" height="55"/>
</g>
</svg>
