<?xml version="1.0" encoding="utf-8"?>
<!-- Generator: Adobe Illustrator 22.0.1, SVG Export Plug-In . SVG Version: 6.00 Build 0)  -->
<svg version="1.1" id="Layer_1" xmlns="http://www.w3.org/2000/svg" xmlns:xlink="http://www.w3.org/1999/xlink" x="0px" y="0px"
	 viewBox="0 0 84.6 55" style="enable-background:new 0 0 84.6 55;" xml:space="preserve">
<style type="text/css">
	.st0{fill:#542C0B;}
	.st1{fill:none;}
</style>
<g>
	<polygon class="st0" points="38.2,24.3 36.4,23.3 35.6,24.9 37.4,25.9 	"/>
	<polygon class="st0" points="42.6,36.9 44.4,37.8 45.3,36.2 43.4,35.3 	"/>
	<polygon class="st0" points="45.2,35.8 47,36.8 47.9,35.2 46,34.2 	"/>
	<polygon class="st0" points="49.7,36.4 51.5,37.3 52.4,35.7 50.5,34.8 	"/>
	<path class="st0" d="M53.3,27.4c-0.1-0.4-0.5-0.9-1-1.6l-0.9,1.8c0.6,0.6,1,1.1,1.1,1.4c0.2,0.4,0.3,1.1,0.3,2H48v-0.7
		c0-1.4-0.1-2.3-0.3-2.9c-0.1-0.4-0.5-0.9-1-1.6l-0.9,1.8c0.6,0.6,1,1.1,1.1,1.4c0.2,0.4,0.3,1.1,0.3,2h-5v-0.1c0-1-0.1-1.9-0.2-2.5
		c-0.1-0.7-0.4-1.3-0.8-1.9l-0.9,2.3c0.3,0.4,0.6,0.9,0.8,1.5c0.2,0.6,0.3,1.3,0.3,2.1c0,1.1-0.6,2-2,2.6c-1.1,0.5-2.4,0.8-3.8,0.8
		c-1.2,0-2.1-0.2-2.8-0.7s-1-1.2-1-2.1c0-0.5,0.1-1.1,0.3-1.7c0.1-0.6,0.5-1.4,1-2.5l-0.4-0.2c-0.5,0.9-0.7,1.5-0.9,1.9
		c-0.2,0.7-0.4,1.3-0.6,2c-0.1,0.7-0.2,1.4-0.2,2c0,1.2,0.4,2.1,1.3,2.7c0.8,0.5,1.9,0.8,3.4,0.8c2.3,0,4-0.5,5.1-1.3
		c1-0.8,1.5-2,1.5-3.7h4.9H48h5.6v-2.7C53.6,28.9,53.5,28,53.3,27.4z"/>
</g>
<rect class="st1" width="84.6" height="55"/>
</svg>
