<?xml version="1.0" encoding="utf-8"?>
<!-- Generator: Adobe Illustrator 19.2.0, SVG Export Plug-In . SVG Version: 6.00 Build 0)  -->
<svg version="1.1" id="Layer_1" xmlns="http://www.w3.org/2000/svg" xmlns:xlink="http://www.w3.org/1999/xlink" x="0px" y="0px"
	 viewBox="0 0 435.7 55" style="enable-background:new 0 0 435.7 55;" xml:space="preserve">
<style type="text/css">
	.st0{fill:#BA0017;}
	.st1{fill:none;}
</style>
<g>
	<g>
		<path d="M165,44c0,0.4-0.2,0.7-0.6,1c-0.7,0.3-1.8,0.7-3.3,1.3c0-0.3,0.2-0.6,0.5-0.9C162.2,45.2,163.4,44.7,165,44z"/>
		<path d="M168,36.5c0,0.8-0.4,1.7-1.1,2.6c-0.6,0.8-1.4,1.4-2.3,2c-0.9,0.5-1.6,0.8-2.1,0.8c-0.5,0-1.1-0.1-1.7-0.2
			c-0.5-0.1-1-0.3-1.6-0.5c-0.5-0.2-1.1-0.4-1.6-0.6l0.2-0.4c0.5,0.1,1,0.2,1.5,0.3c0.5,0.1,1,0.2,1.5,0.2c1,0,2-0.3,3-0.9
			c0.9-0.6,1.7-1.3,2.4-2.1s1-1.6,1-2.3c0-0.6-0.2-1.2-0.5-1.9c-0.3-0.5-0.7-1.1-1.2-1.6l0.6-1.8c0.6,0.6,1.1,1.1,1.4,1.7
			c0.3,0.6,0.5,1.4,0.5,2.2V36.5z"/>
		<path d="M173.4,23.9c0,0.5-0.2,0.9-0.5,1.2c-0.3,0.4-0.8,0.6-1.3,0.6c-0.4,0-0.7-0.1-0.9-0.3c-0.2-0.2-0.3-0.5-0.3-0.9
			c0-0.6,0.1-1.1,0.4-1.5s0.7-0.7,1.1-0.7c0.4,0,0.7,0.2,1,0.5S173.4,23.4,173.4,23.9z M172.8,24.2c0-0.2-0.1-0.4-0.4-0.7
			c-0.3-0.3-0.5-0.4-0.7-0.4c-0.2,0-0.4,0.1-0.5,0.3c-0.1,0.2-0.2,0.3-0.2,0.5c0,0.3,0.1,0.4,0.4,0.5c0.2,0.1,0.5,0.1,0.8,0.1
			c0.2,0,0.3,0,0.5-0.1C172.7,24.4,172.8,24.3,172.8,24.2z"/>
		<path d="M177.1,36.5H173c0.5,0.2,0.9,0.5,1.2,1c0.4,0.5,0.6,1.1,0.6,1.7c0,0.6-0.1,1.1-0.3,1.4c-0.2,0.4-0.6,0.7-1.1,0.7
			c-0.9,0-1.7-0.3-2.5-0.9c-0.9-0.7-1.3-1.7-1.3-3l0-0.8h-2.5v-2h2.8c0.3-0.7,0.6-1.3,0.9-1.9c0.4-0.8,0.8-1.4,1.2-1.9
			c0.5-0.6,1-0.8,1.4-0.8c0.2,0,0.4,0.2,0.6,0.6s0.3,0.8,0.3,1.3c0,0.7-0.2,1.2-0.5,1.6c-0.2,0.2-0.8,0.6-1.8,1.1h4.9V36.5z
			 M173.8,39c0-0.6-0.4-1.2-1.3-1.7c-0.7-0.4-1.4-0.7-2.1-0.9c0,0.8,0.2,1.5,0.6,2c0.5,0.6,1.2,1,2.1,1c0.2,0,0.3,0,0.5-0.1
			C173.8,39.2,173.8,39.1,173.8,39z M173.4,32.7c0-0.7-0.1-1.1-0.4-1.1c-0.3,0-0.7,0.4-1.2,1.1c-0.2,0.3-0.5,0.9-0.9,1.7
			c0.7-0.2,1.3-0.4,1.7-0.7C173.1,33.3,173.4,33,173.4,32.7z"/>
		<path d="M182.9,20c0,0.6-0.1,1-0.3,1.4c-0.2,0.4-0.5,0.6-0.9,0.6c-0.1,0-0.3,0-0.4-0.1c-0.1,0-0.2-0.1-0.4-0.2
			c-0.1,0.3-0.3,0.5-0.4,0.6c-0.2,0.2-0.5,0.4-0.8,0.4c-0.3,0-0.5-0.1-0.7-0.3c-0.2-0.2-0.2-0.5-0.2-0.9c0-0.2,0-0.4,0.1-0.6
			c0-0.1,0.1-0.3,0.2-0.6l0.2-0.1c0,0.1,0,0.2,0,0.3s0,0.2,0,0.3c0,0.2,0,0.3,0.1,0.4c0.1,0.1,0.2,0.2,0.3,0.2
			c0.3,0,0.6-0.2,0.8-0.6c0.1-0.2,0.2-0.6,0.3-1.1l0.2-0.1c0.1,0.4,0.1,0.6,0.1,0.7c0.1,0.2,0.2,0.3,0.4,0.3c0.3,0,0.5-0.2,0.7-0.6
			c0.1-0.3,0.2-0.6,0.2-1l0.2-0.1c0,0.1,0.1,0.3,0.1,0.5S182.9,19.9,182.9,20z M182.7,17.3c0,0.3-0.2,0.7-0.6,1
			c-0.7,0.3-1.8,0.7-3.3,1.3c0-0.3,0.2-0.6,0.5-0.9C180,18.4,181.1,17.9,182.7,17.3z"/>
		<path d="M182.7,36.5h-6.4v-2h5.6c0-0.9-0.1-1.6-0.3-2c-0.1-0.3-0.5-0.8-1.1-1.4l0.9-1.8c0.5,0.7,0.9,1.2,1,1.6
			c0.2,0.6,0.3,1.5,0.3,2.9V36.5z M181.8,26.1l-0.9,1.6l-1.8-0.9l0.8-1.6L181.8,26.1z"/>
		<path d="M187.5,36.5h-5.5v-2h4.4l-1.3-9.5l-0.6-0.3c0-0.5,0-1,0.1-1.5c0.1-0.5,0.2-0.9,0.4-1.3l0.2,0.1c0,0.4,0.2,0.8,0.7,1
			c0.4,0.2,0.8,0.3,1.1,0.4c0,0.4,0,0.8-0.1,1.2c-0.1,0.4-0.1,0.7-0.2,1l-0.5-0.2l1.3,8.8V36.5z"/>
		<path d="M191.3,33.7c0,0.6-0.1,1.2-0.3,1.7c-0.1,0.3-0.4,0.8-0.7,1.4l-0.2-0.1c0-0.2,0-0.5,0.1-0.8c0-0.3,0-0.5,0-0.6
			c0-0.8-0.1-1.9-0.2-3.3c-0.1-1.4-0.3-2.9-0.4-4.4c-0.1-0.9-0.2-1.9-0.3-2.8c0.2-0.3,0.3-0.7,0.5-1.1c0.2-0.4,0.4-0.7,0.5-1.1
			c0.1,0.9,0.3,2,0.5,3.5s0.3,2.8,0.4,4C191.2,31.8,191.3,32.9,191.3,33.7z"/>
		<path class="st0" d="M205.6,22.1c0,0.3-0.2,0.7-0.6,1c-0.7,0.3-1.8,0.7-3.3,1.3c0-0.3,0.2-0.6,0.5-0.9
			C202.8,23.2,204,22.7,205.6,22.1z"/>
		<path class="st0" d="M206.4,36.5h-5c-0.4,0-0.8-0.1-1.2-0.4s-0.5-0.5-0.5-0.9c0-0.3,0-0.5,0-0.8c0-0.2,0.1-0.5,0.2-0.8h0.3
			c0.1,0.3,0.2,0.5,0.4,0.7c0.2,0.1,0.4,0.2,0.7,0.2h4.3c0-1.3-0.2-2.4-0.6-3.2c-0.5-1-1.2-1.7-2.3-2l0.2-2.2c1.3,0.6,2.2,1.7,2.8,3
			c0.4,1.1,0.7,2.6,0.7,4.4V36.5z"/>
		<path class="st0" d="M211.9,20.5c0,0.5-0.2,0.9-0.5,1.2c-0.3,0.4-0.8,0.6-1.3,0.6c-0.4,0-0.7-0.1-0.9-0.3
			c-0.2-0.2-0.3-0.5-0.3-0.9c0-0.6,0.1-1.1,0.4-1.5s0.7-0.7,1.1-0.7c0.4,0,0.7,0.2,1,0.5S211.9,20.1,211.9,20.5z M211.2,20.8
			c0-0.2-0.1-0.4-0.4-0.7c-0.3-0.3-0.5-0.4-0.7-0.4c-0.2,0-0.4,0.1-0.5,0.3c-0.1,0.2-0.2,0.3-0.2,0.5c0,0.3,0.1,0.4,0.4,0.5
			c0.2,0.1,0.5,0.1,0.8,0.1c0.2,0,0.3,0,0.5-0.1C211.2,21,211.2,20.9,211.2,20.8z"/>
		<path class="st0" d="M212,36.5h-6.4v-2h5.6c0-0.9-0.1-1.6-0.3-2c-0.1-0.3-0.5-0.8-1.1-1.4l0.9-1.8c0.5,0.7,0.9,1.2,1,1.6
			c0.2,0.6,0.3,1.5,0.3,2.9V36.5z M211.1,26.1l-0.9,1.6l-1.8-0.9l0.8-1.6L211.1,26.1z"/>
		<path class="st0" d="M219,38.5c0,0.4-0.2,0.7-0.6,1c-0.7,0.3-1.8,0.7-3.3,1.3c0-0.3,0.2-0.6,0.5-0.9
			C216.3,39.7,217.4,39.2,219,38.5z"/>
		<path class="st0" d="M222.8,33l-0.8,2c-1.1,0.4-2.4,0.8-3.9,1c-1.5,0.3-2.9,0.4-4.1,0.4h-2.8v-2h2.7c-0.2-0.4-0.4-0.8-0.5-1.2
			c-0.1-0.4-0.2-0.9-0.2-1.3c0-0.9,0.4-1.6,1.1-2.2c0.7-0.6,1.7-0.9,2.8-0.9c0.9,0,1.7,0.2,2.3,0.7c0.3,0.2,0.7,0.6,1.3,1.4
			l-0.2,0.2c-0.5-0.1-1-0.2-1.4-0.3c-0.4-0.1-0.8-0.1-1.3-0.1c-1,0-1.8,0.1-2.4,0.3s-0.9,0.5-0.9,0.9c0,0.4,0.2,0.8,0.6,1.2
			c0.4,0.5,0.8,0.9,1.4,1.2c1.2-0.2,2.2-0.4,3-0.5C220.3,33.7,221.4,33.4,222.8,33z"/>
		<path d="M244,36.5h-2c-1.2,0-2,0-2.6,0.1c-0.6,0.1-0.9,0.2-0.9,0.4c0,0.2,0.3,0.4,1,0.4c0.3,0,0.5,0,0.7,0c0.2,0,0.6,0.1,1.2,0.1
			c0.4,0,0.6,0.1,0.7,0.2c0.2,0.1,0.3,0.3,0.3,0.6c0,1.4-0.5,2.4-1.4,3.1c-1,0.7-2.7,1-5,1c-1.6,0-2.9-0.3-3.8-0.8
			c-1-0.6-1.5-1.4-1.5-2.5c0-0.9,0.2-1.8,0.7-2.8c0.2-0.4,0.6-1.1,1.4-2.3l0.4,0.2c-0.3,0.5-0.6,1-0.8,1.4c-0.4,0.8-0.6,1.5-0.6,2
			c0,0.9,0.5,1.6,1.4,2.1c0.9,0.5,2.2,0.7,3.8,0.7c1.1,0,2-0.1,2.8-0.2c1-0.2,1.5-0.5,1.5-0.8c0-0.1-0.1-0.2-0.2-0.3
			c-0.1-0.1-0.3-0.1-0.6-0.1c-0.2,0-0.5,0-0.9-0.1s-0.7,0-0.8,0c-0.5,0-0.8-0.1-1-0.2c-0.2-0.1-0.3-0.3-0.3-0.6
			c0-0.9,0.3-1.7,0.8-2.3c0.4-0.5,1.1-0.8,1.8-1.1c0.6-0.2,1.2-0.3,1.8-0.3h2V36.5z"/>
		<path d="M249.3,19.8c0,0.3-0.2,0.7-0.6,1c-0.7,0.3-1.8,0.7-3.3,1.3c0-0.3,0.2-0.6,0.5-0.9C246.6,21,247.7,20.5,249.3,19.8z"/>
		<path d="M250.1,36.5h-6.8v-2h3.9c0.5,0,0.9,0,1.2,0c0.3,0,0.7-0.1,1.1-0.2c-1.3-0.2-2.1-0.4-2.5-0.5c-0.9-0.4-1.3-1-1.3-1.9
			c0-0.8,0.2-1.5,0.6-2.2c0.5-0.8,1-1.2,1.7-1.2c0.8,0,1.3,0.5,1.7,1.5c0.3,0.8,0.5,1.7,0.5,2.7V36.5z M247,24.7l-0.9,1.5l-1.4-0.9
			l0.9-1.5L247,24.7z M249,32.6c-0.2-0.6-0.3-1-0.5-1.3c-0.3-0.6-0.7-0.8-1.1-0.8c-0.2,0-0.4,0.1-0.5,0.2c-0.2,0.2-0.2,0.4-0.2,0.6
			c0,0.6,0.3,1,0.9,1.1C247.8,32.5,248.3,32.5,249,32.6z M249.6,24l-1,1.5l-1.4-0.9l1-1.5L249.6,24z"/>
		<path d="M255.9,19.8c0,0.3-0.2,0.7-0.6,1c-0.7,0.3-1.8,0.7-3.3,1.3c0-0.3,0.2-0.6,0.5-0.9C253.2,21,254.3,20.5,255.9,19.8z"/>
		<path d="M255.7,36.5h-6.4v-2h5.6c0-0.9-0.1-1.6-0.3-2c-0.1-0.3-0.5-0.8-1.1-1.4l0.9-1.8c0.5,0.7,0.9,1.2,1,1.6
			c0.2,0.6,0.3,1.5,0.3,2.9V36.5z M253,26.4l-0.9,1.6l-1.8-0.9l0.8-1.6L253,26.4z M255.6,25.4l-0.9,1.6l-1.8-1l0.8-1.6L255.6,25.4z"
			/>
		<path d="M260.1,19.4c0,0.5-0.2,0.9-0.5,1.2c-0.3,0.4-0.8,0.6-1.3,0.6c-0.4,0-0.7-0.1-0.9-0.3c-0.2-0.2-0.3-0.5-0.3-0.9
			c0-0.6,0.1-1.1,0.4-1.5s0.7-0.7,1.1-0.7c0.4,0,0.7,0.2,1,0.5S260.1,18.9,260.1,19.4z M259.4,19.7c0-0.2-0.1-0.4-0.4-0.7
			c-0.3-0.3-0.5-0.4-0.7-0.4c-0.2,0-0.4,0.1-0.5,0.3c-0.1,0.2-0.2,0.3-0.2,0.5c0,0.3,0.1,0.4,0.4,0.5c0.2,0.1,0.5,0.1,0.8,0.1
			c0.2,0,0.3,0,0.5-0.1C259.3,19.9,259.4,19.8,259.4,19.7z"/>
		<path d="M260.4,36.5h-5.5v-2h4.4l-1.3-9.5l-0.6-0.3c0-0.5,0-1,0.1-1.5c0.1-0.5,0.2-0.9,0.4-1.3l0.2,0.1c0,0.4,0.2,0.8,0.7,1
			c0.4,0.2,0.8,0.3,1.1,0.4c0,0.4,0,0.8-0.1,1.2c-0.1,0.4-0.1,0.7-0.2,1l-0.5-0.2l1.3,8.8V36.5z"/>
		<path d="M266.3,24c0,0.1,0,0.3,0,0.4s0,0.3-0.1,0.4l-0.9-0.6c-0.4,0.4-0.6,0.7-0.8,0.8c-0.6,0.5-1,0.8-1.4,0.8h-0.8
			c0.4-0.2,0.9-0.5,1.4-0.9c0.5-0.4,0.8-0.7,1.1-1c-0.2-0.1-0.4-0.3-0.5-0.4c-0.1-0.2-0.2-0.4-0.2-0.6c0-0.5,0.1-0.9,0.4-1.3
			c0.3-0.4,0.6-0.6,0.9-0.6c0.2,0,0.4,0.1,0.5,0.3c0.2,0.2,0.2,0.5,0.2,0.8c0,0.1,0,0.3-0.1,0.4s-0.1,0.4-0.3,0.8
			c0.1,0.1,0.2,0.2,0.4,0.3C266.3,23.8,266.3,23.9,266.3,24z M265.5,22.7c0-0.2-0.1-0.4-0.2-0.6c-0.1-0.2-0.3-0.3-0.4-0.3
			c-0.1,0-0.1,0-0.2,0.1c0,0.1-0.1,0.1-0.1,0.2c0,0.2,0.1,0.3,0.3,0.5l0.5,0.4C265.4,22.9,265.5,22.8,265.5,22.7z"/>
		<path d="M269.5,36.5h-1.2c-0.5,0-1.1-0.1-1.7-0.3c-0.7-0.3-1.4-0.6-1.9-1.1c-0.4,0.5-0.9,0.9-1.3,1.1s-1.1,0.3-2,0.3h-1.8v-2h1.7
			c0.7,0,1.3-0.2,1.8-0.5c0.4-0.3,0.8-0.6,1.1-1.1c0.5-0.7,1-1.2,1.7-1.7c0.6-0.4,1.1-0.7,1.7-0.8c0.5,0.8,0.9,1.5,1.2,2.1
			c0.4,0.9,0.6,1.5,0.6,2.1V36.5z M268.2,34.3c-0.1-0.4-0.2-0.9-0.4-1.3c-0.2-0.4-0.4-0.7-0.7-1.1c-0.4,0.1-0.7,0.3-0.9,0.5
			c-0.2,0.2-0.4,0.4-0.6,0.8c0.3,0.3,0.6,0.6,1.1,0.8c0.5,0.2,1,0.4,1.4,0.4L268.2,34.3z"/>
		<path d="M274.3,36.5h-5.5v-2h4.4l-1.3-9.5l-0.6-0.3c0-0.5,0-1,0.1-1.5c0.1-0.5,0.2-0.9,0.4-1.3l0.2,0.1c0,0.4,0.2,0.8,0.7,1
			c0.4,0.2,0.8,0.3,1.1,0.4c0,0.4,0,0.8-0.1,1.2c-0.1,0.4-0.1,0.7-0.2,1l-0.5-0.2l1.3,8.8V36.5z"/>
		<path d="M278.1,33.7c0,0.6-0.1,1.2-0.3,1.7c-0.1,0.3-0.4,0.8-0.7,1.4l-0.2-0.1c0-0.2,0-0.5,0.1-0.8c0-0.3,0-0.5,0-0.6
			c0-0.8-0.1-1.9-0.2-3.3c-0.1-1.4-0.3-2.9-0.4-4.4c-0.1-0.9-0.2-1.9-0.3-2.8c0.2-0.3,0.3-0.7,0.5-1.1c0.2-0.4,0.4-0.7,0.5-1.1
			c0.1,0.9,0.3,2,0.5,3.5s0.3,2.8,0.4,4C278,31.8,278.1,32.9,278.1,33.7z"/>
	</g>
	<rect class="st1" width="435.7" height="55"/>
</g>
</svg>
