<?xml version="1.0" encoding="utf-8"?>
<!-- Generator: Adobe Illustrator 22.0.1, SVG Export Plug-In . SVG Version: 6.00 Build 0)  -->
<svg version="1.1" id="Layer_1" xmlns="http://www.w3.org/2000/svg" xmlns:xlink="http://www.w3.org/1999/xlink" x="0px" y="0px"
	 viewBox="0 0 84.6 55" style="enable-background:new 0 0 84.6 55;" xml:space="preserve">
<style type="text/css">
	.st0{fill:#542C0B;}
	.st1{fill:none;}
</style>
<g>
	<g>
		<path class="st0" d="M32.3,30.8l-0.5,1.8c-1.1,0.3-2.1,0.6-2.8,1c-0.8,0.4-1.6,0.9-2.3,1.6L26.2,35c0.1-0.3,0.2-0.7,0.4-1
			c0.1-0.3,0.3-0.5,0.5-0.7l-1.3-0.7c-0.4-0.3-0.6-0.5-0.6-0.8c0-0.2,0.1-0.7,0.4-1.3c0.4-0.7,0.8-1.4,1.2-1.9c0.6-0.6,1.2-1,1.8-1
			c0.6,0,1,0.2,1.4,0.5c0.1,0.1,0.3,0.3,0.6,0.6L30,30.2c-0.3-0.2-0.4-0.3-0.5-0.3c-0.5-0.3-0.8-0.4-1.1-0.4c-0.4,0-0.7,0.1-1.1,0.3
			c-0.4,0.2-0.6,0.4-0.6,0.7c0,0.3,0.2,0.6,0.7,0.9c0.4,0.2,0.9,0.5,1.6,0.7C30.1,31.6,31.2,31.1,32.3,30.8z"/>
		<path class="st0" d="M37.2,30.7c0,0.6-0.1,1.2-0.3,1.7c-0.1,0.3-0.4,0.8-0.7,1.4L36,33.7c0-0.2,0-0.5,0.1-0.8c0-0.3,0-0.5,0-0.6
			c0-0.8-0.1-1.9-0.2-3.3c-0.1-1.4-0.3-2.9-0.4-4.4c-0.1-0.9-0.2-1.9-0.3-2.8c0.2-0.3,0.3-0.7,0.5-1.1s0.4-0.7,0.5-1.1
			c0.1,0.9,0.3,2,0.5,3.5s0.3,2.8,0.4,4C37.1,28.8,37.2,30,37.2,30.7z"/>
		<path class="st0" d="M49.4,33.6c0,0.8-0.4,1.7-1.1,2.6c-0.6,0.8-1.4,1.4-2.3,2c-0.9,0.5-1.6,0.8-2.1,0.8s-1.1-0.1-1.7-0.2
			c-0.5-0.1-1-0.3-1.6-0.5C40,38,39.5,37.8,39,37.6l0.2-0.4c0.5,0.1,1,0.2,1.5,0.3s1,0.2,1.5,0.2c1,0,2-0.3,3-0.9
			c0.9-0.6,1.7-1.3,2.4-2.1s1-1.6,1-2.3c0-0.6-0.2-1.2-0.5-1.9c-0.3-0.5-0.7-1.1-1.2-1.6l0.6-1.8c0.6,0.6,1.1,1.1,1.4,1.7
			c0.3,0.6,0.5,1.4,0.5,2.2V33.6z"/>
		<path class="st0" d="M59.3,32.9c0,1.2-0.5,2.5-1.4,3.7c-1,1.4-2.2,2-3.5,2c-0.5,0-1-0.1-1.5-0.2c-0.4-0.1-0.9-0.2-1.5-0.4
			c-0.5-0.2-1-0.3-1.5-0.5l0.2-0.4c0.4,0.1,0.9,0.2,1.3,0.3c0.5,0.1,0.9,0.2,1.2,0.2c0.9,0,1.8-0.2,2.6-0.7c0.6-0.4,1.3-0.9,1.9-1.6
			c0.3-0.4,0.8-0.9,1.4-1.7c-1,0-1.8-0.2-2.3-0.5c-0.6-0.4-0.9-1-0.9-1.8s0.2-1.5,0.5-2.1c0.4-0.8,1-1.1,1.6-1.1
			c0.7,0,1.1,0.4,1.4,1.1c0.2,0.6,0.3,1.4,0.3,2.5v1.2H59.3z M58.6,31.7c-0.2-0.7-0.4-1.2-0.6-1.5c-0.2-0.2-0.4-0.4-0.7-0.4
			c-0.2,0-0.4,0.1-0.5,0.2s-0.2,0.3-0.2,0.5c0,0.4,0.2,0.6,0.5,0.8C57.3,31.6,57.9,31.7,58.6,31.7z"/>
	</g>
</g>
<rect class="st1" width="84.6" height="55"/>
</svg>
