<?xml version="1.0" encoding="utf-8"?>
<!-- Generator: Adobe Illustrator 19.2.0, SVG Export Plug-In . SVG Version: 6.00 Build 0)  -->
<svg version="1.1" id="Layer_1" xmlns="http://www.w3.org/2000/svg" xmlns:xlink="http://www.w3.org/1999/xlink" x="0px" y="0px"
	 viewBox="0 0 282.6 55" style="enable-background:new 0 0 282.6 55;" xml:space="preserve">
<style type="text/css">
	.st0{fill:#BA0017;}
	.st1{fill:none;}
</style>
<g>
	<g>
		<g>
			<path d="M70.1,38.8c-0.8,0.3-1.5,0.5-2.2,0.8c-0.7,0.3-1.4,0.5-2.1,0.8c-0.1,0.1-0.1,0-0.1-0.1c0.1-0.1,0.1-0.3,0.2-0.5
				s0.2-0.3,0.2-0.4c0-0.1,0.1-0.1,0.2-0.2c0.2-0.1,0.4-0.2,0.8-0.3c0.3-0.1,0.7-0.3,1.1-0.4c0.4-0.1,0.8-0.3,1.2-0.4
				s0.9-0.3,1.3-0.4c0.1,0,0.1,0,0.1,0.1c0,0.1-0.1,0.1-0.1,0.2s-0.1,0.2-0.1,0.3s-0.1,0.2-0.1,0.2s-0.1,0.1-0.1,0.2
				C70.2,38.7,70.2,38.7,70.1,38.8C70.2,38.7,70.1,38.8,70.1,38.8z"/>
			<path d="M67.2,31.4C67.2,31.4,67.2,31.4,67.2,31.4c-0.1-0.1-0.1-0.2,0-0.3c0-0.2,0.1-0.3,0.1-0.5c0.1-0.2,0.1-0.3,0.2-0.4
				c0.1-0.1,0.1-0.2,0.1-0.2c1.1,0.2,1.9,0.5,2.4,0.9c0.5,0.5,0.8,1.1,0.8,1.9c0,0.5-0.1,1.1-0.4,1.7c-0.1,0.2-0.2,0.4-0.3,0.6
				c-0.1,0.2-0.3,0.3-0.5,0.4c-0.2,0.1-0.4,0.2-0.6,0.3c-0.2,0.1-0.4,0.1-0.7,0.1c-0.4,0-0.7-0.1-0.9-0.2c-0.2-0.1-0.4-0.3-0.6-0.6
				c-0.1-0.2-0.2-0.5-0.3-0.8c0-0.3,0-0.6,0-0.9c0.1-0.4,0.2-0.7,0.3-1S67.1,31.7,67.2,31.4z M67.7,31.8c-0.1,0.2-0.2,0.5-0.3,0.7
				c-0.1,0.2-0.1,0.4-0.1,0.6c0,0.2,0.1,0.4,0.1,0.5c0.1,0.2,0.2,0.3,0.3,0.3c0.1,0.1,0.3,0.1,0.5,0.1c0.2,0,0.4,0,0.6,0
				c0.2,0,0.4-0.1,0.6-0.2c0.2-0.1,0.4-0.2,0.5-0.4c0-0.2-0.1-0.4-0.3-0.6c-0.2-0.2-0.4-0.4-0.6-0.5c-0.3-0.2-0.5-0.3-0.8-0.4
				C68.1,31.8,67.9,31.8,67.7,31.8z"/>
			<path d="M77.5,38.9c-0.8,0.3-1.5,0.5-2.2,0.8c-0.7,0.3-1.4,0.5-2.1,0.8c-0.1,0.1-0.1,0-0.1-0.1c0.1-0.1,0.1-0.3,0.2-0.5
				s0.2-0.3,0.2-0.4c0-0.1,0.1-0.1,0.2-0.2c0.2-0.1,0.4-0.2,0.8-0.3c0.3-0.1,0.7-0.3,1.1-0.4c0.4-0.1,0.8-0.3,1.2-0.4
				s0.9-0.3,1.3-0.4c0.1,0,0.1,0,0.1,0.1c0,0.1-0.1,0.1-0.1,0.2s-0.1,0.2-0.1,0.3s-0.1,0.2-0.1,0.2s-0.1,0.1-0.1,0.2
				C77.7,38.8,77.6,38.8,77.5,38.9C77.6,38.9,77.6,38.9,77.5,38.9z"/>
			<path d="M74.8,29.2c0-0.2,0-0.5,0-0.7c0-0.2,0-0.5,0.1-0.8c0-0.1,0.1-0.2,0.2-0.2c0.1,0,0.2,0,0.3,0c0.5,0.1,1,0.4,1.4,0.8
				c0.5,0.4,0.9,0.8,1.2,1.3c0.3,0.5,0.6,1,0.9,1.5c0.2,0.5,0.4,1,0.4,1.5c0,0.2,0,0.4,0,0.6c0,0.2-0.1,0.5-0.1,0.7
				s-0.1,0.4-0.2,0.6c-0.1,0.2-0.2,0.3-0.3,0.4c-0.3,0.2-0.6,0.4-1,0.5c-0.4,0.1-0.8,0.3-1.2,0.3s-0.9,0.2-1.3,0.2S74.3,36,73.9,36
				c-0.1,0-0.2,0-0.3,0c-0.1,0-0.3,0-0.4-0.1c-0.1,0-0.2-0.1-0.3-0.2c-0.1-0.1-0.1-0.2-0.1-0.3c0,0,0-0.2,0-0.3c0-0.2,0-0.4,0-0.5
				c0-0.2,0-0.4,0.1-0.5c0-0.2,0.1-0.2,0.1-0.2c0,0,0,0,0.1,0c0,0,0,0.1,0.1,0.1c0.1,0.1,0.3,0.2,0.5,0.2c0.2,0,0.4,0.1,0.6,0.1
				c0.2,0,0.4,0,0.6,0c0.2,0,0.4,0,0.5,0c0.3,0,0.5,0,0.8-0.1c0.3,0,0.6-0.1,0.8-0.2c0.3-0.1,0.5-0.1,0.8-0.2
				c0.2-0.1,0.4-0.2,0.6-0.3c0.1,0,0.1-0.1,0.2-0.1c0.1-0.1,0.1-0.1,0.1-0.2c-0.1-0.4-0.2-0.8-0.5-1.2c-0.2-0.4-0.5-0.8-0.9-1.2
				c-0.3-0.4-0.7-0.7-1.2-1C75.6,29.5,75.2,29.3,74.8,29.2z"/>
			<path d="M80.9,22.8c0.1-0.3,0.1-0.5,0.3-0.8s0.2-0.5,0.3-0.8c0,0,0-0.1,0.1-0.1s0.1,0,0.1,0.1c0.1,0.4,0.2,0.9,0.3,1.3
				c0.1,0.4,0.2,0.9,0.3,1.4c0.1,0.5,0.2,1.1,0.2,1.7c0.1,0.6,0.1,1.3,0.2,2c0.1,0.6,0.1,1.1,0.1,1.5c0,0.4,0.1,0.8,0.1,1.1
				c0,0.3,0.1,0.6,0.1,0.9c0,0.3,0.1,0.6,0.1,0.8c0.1,0.4,0.2,0.7,0.3,1c0.1,0.3,0.3,0.5,0.5,0.7s0.4,0.3,0.7,0.4
				c0.3,0.1,0.6,0.1,1,0.1h0.1c0.2,0,0.4,0.1,0.5,0.3c0.1,0.2,0.2,0.4,0.2,0.6c0,0.2-0.1,0.4-0.2,0.6c-0.1,0.2-0.3,0.3-0.5,0.3h-0.1
				c-0.6,0-1.1-0.1-1.5-0.3c-0.4-0.2-0.7-0.4-1-0.8c-0.3-0.3-0.5-0.7-0.6-1.1s-0.2-0.9-0.3-1.4c-0.1-0.4-0.1-0.9-0.2-1.3
				c-0.1-0.5-0.1-0.9-0.1-1.4s-0.1-0.9-0.1-1.3c0-0.4-0.1-0.8-0.1-1.2c-0.1-0.7-0.2-1.4-0.3-2.1s-0.3-1.4-0.5-2.2c0-0.1,0-0.1,0-0.1
				S80.8,22.8,80.9,22.8z"/>
			<path d="M90.2,23.3c-0.4,0.2-0.8,0.3-1.2,0.5s-0.8,0.4-1.3,0.5c-0.4,0.2-0.8,0.3-1.1,0.5c-0.3,0.2-0.6,0.3-0.8,0.4
				c-0.1,0-0.1,0-0.1,0s0-0.1,0-0.1c0-0.1,0.1-0.1,0.1-0.2c0.1-0.1,0.1-0.2,0.2-0.3c0.1-0.1,0.1-0.2,0.2-0.3
				c0.1-0.1,0.1-0.2,0.1-0.2c0.1-0.1,0.1-0.2,0.2-0.2l4.3-1.8c0.1-0.1,0.1,0,0.1,0.1c0,0.1-0.1,0.1-0.1,0.2s-0.1,0.2-0.1,0.3
				c0,0.1-0.1,0.2-0.1,0.3s-0.1,0.2-0.1,0.2C90.3,23.2,90.3,23.2,90.2,23.3z"/>
			<path d="M89.4,31.8c0,0.1,0,0.2,0,0.3c0,0.1,0,0.2,0,0.3c0,0.2,0.1,0.4,0.2,0.6s0.2,0.4,0.4,0.5s0.5,0.3,0.8,0.4
				c0.3,0.1,0.7,0.2,1.2,0.2h0.2c0.2,0,0.4,0.1,0.5,0.3c0.1,0.2,0.2,0.4,0.2,0.6c0,0.2-0.1,0.4-0.2,0.6c-0.1,0.2-0.3,0.3-0.5,0.3
				h-0.2c-0.8,0-1.5-0.2-2-0.5s-0.9-0.8-1.2-1.3c-0.2,0.4-0.4,0.7-0.7,0.9c-0.3,0.2-0.5,0.4-0.8,0.5c-0.3,0.1-0.6,0.2-0.9,0.2
				c-0.3,0-0.6,0.1-0.8,0.1h-0.2c-0.2,0-0.4-0.1-0.5-0.3c-0.1-0.2-0.2-0.4-0.2-0.6c0-0.2,0.1-0.4,0.2-0.6c0.1-0.2,0.3-0.3,0.5-0.3
				h0.2c0.2,0,0.5,0,0.7,0c0.3,0,0.5-0.1,0.8-0.1s0.5-0.2,0.7-0.3c0.2-0.1,0.5-0.3,0.7-0.6c0.1-0.2,0.3-0.4,0.4-0.6
				c0.1-0.2,0.2-0.4,0.3-0.6c0,0,0-0.1,0.1-0.1c0,0,0.1,0,0.1,0C89.3,31.8,89.4,31.8,89.4,31.8C89.4,31.8,89.4,31.8,89.4,31.8z
				 M88.5,37.5l1.4,1.1c0.1,0.1,0.1,0.1,0,0.2L88.9,40c-0.1,0.1-0.1,0.1-0.2,0l-1.4-1.1c-0.1-0.1-0.1-0.1,0-0.2l0.9-1.1
				C88.3,37.5,88.4,37.5,88.5,37.5z"/>
			<path d="M98.3,38.8c-0.8,0.3-1.5,0.5-2.2,0.8c-0.7,0.3-1.4,0.5-2.1,0.8c-0.1,0.1-0.1,0-0.1-0.1c0.1-0.1,0.1-0.3,0.2-0.5
				s0.2-0.3,0.2-0.4c0-0.1,0.1-0.1,0.2-0.2c0.2-0.1,0.4-0.2,0.8-0.3c0.3-0.1,0.7-0.3,1.1-0.4c0.4-0.1,0.8-0.3,1.2-0.4
				s0.9-0.3,1.3-0.4c0.1,0,0.1,0,0.1,0.1c0,0.1-0.1,0.1-0.1,0.2s-0.1,0.2-0.1,0.3s-0.1,0.2-0.1,0.2s-0.1,0.1-0.1,0.2
				C98.5,38.7,98.4,38.7,98.3,38.8C98.4,38.7,98.4,38.8,98.3,38.8z"/>
			<path d="M101.7,33.7c-0.5,0.1-1,0.3-1.5,0.4c-0.6,0.2-1.1,0.3-1.8,0.5c-0.6,0.2-1.2,0.3-1.8,0.5c-0.6,0.2-1.2,0.3-1.8,0.4
				c-0.6,0.1-1.1,0.2-1.6,0.3c-0.5,0.1-0.9,0.1-1.3,0.1h-0.2c-0.2,0-0.4-0.1-0.5-0.3c-0.1-0.2-0.2-0.4-0.2-0.6
				c0-0.2,0.1-0.4,0.2-0.6c0.1-0.2,0.3-0.3,0.5-0.3h0.2c0.2,0,0.4,0,0.6,0c0.2,0,0.5,0,0.7,0s0.5,0,0.7-0.1c0.2,0,0.5-0.1,0.7-0.1
				c-0.2-0.1-0.4-0.2-0.5-0.4c-0.2-0.2-0.3-0.4-0.5-0.6c-0.1-0.2-0.3-0.4-0.4-0.7c-0.1-0.2-0.2-0.5-0.2-0.7c-0.1-0.5,0-0.9,0.1-1.4
				c0.2-0.5,0.4-0.9,0.7-1.4c0.3-0.4,0.7-0.8,1.1-1.1c0.4-0.3,0.8-0.5,1.3-0.5c0.6-0.1,1.1-0.1,1.5,0c0.5,0.1,0.9,0.2,1.2,0.4
				c0.4,0.2,0.7,0.4,0.9,0.7c0.3,0.3,0.5,0.5,0.7,0.8c0,0,0,0.1,0,0.1c0,0,0,0.1-0.1,0.1s-0.1,0-0.1,0c-0.1,0-0.1,0-0.1,0
				c-0.2-0.1-0.5-0.2-0.7-0.3c-0.2-0.1-0.5-0.1-0.7-0.2c-0.2,0-0.5-0.1-0.8-0.1c-0.3,0-0.6,0-0.9,0c-0.3,0-0.6,0.1-0.9,0.1
				c-0.3,0.1-0.6,0.2-0.9,0.3c-0.3,0.1-0.5,0.2-0.8,0.4c-0.2,0.1-0.4,0.3-0.5,0.4c0,0.1,0,0.3,0.1,0.5c0.1,0.2,0.1,0.4,0.2,0.6
				c0.1,0.2,0.2,0.4,0.3,0.6c0.1,0.2,0.3,0.4,0.4,0.5c0.2,0.2,0.3,0.3,0.5,0.5c0.2,0.2,0.4,0.3,0.6,0.4c0.2,0.1,0.4,0.2,0.5,0.3
				c0.2,0.1,0.3,0.1,0.4,0.1c0.9-0.2,1.9-0.4,2.8-0.6s1.9-0.5,2.8-0.8c0.1,0,0.1,0,0.1,0c-0.2,0.4-0.5,0.8-0.7,1.1
				S101.9,33.5,101.7,33.7z"/>
			<path class="st0" d="M118,21c-0.4,0.2-0.8,0.3-1.2,0.5s-0.8,0.4-1.3,0.5c-0.4,0.2-0.8,0.3-1.1,0.5c-0.3,0.2-0.6,0.3-0.8,0.4
				c-0.1,0-0.1,0-0.1,0s0-0.1,0-0.1c0-0.1,0.1-0.1,0.1-0.2c0.1-0.1,0.1-0.2,0.2-0.3c0.1-0.1,0.1-0.2,0.2-0.3
				c0.1-0.1,0.1-0.2,0.1-0.2c0.1-0.1,0.1-0.2,0.2-0.2l4.3-1.8c0.1-0.1,0.1,0,0.1,0.1c0,0.1-0.1,0.1-0.1,0.2s-0.1,0.2-0.1,0.3
				c0,0.1-0.1,0.2-0.1,0.3s-0.1,0.2-0.1,0.2C118.2,20.9,118.1,21,118,21z"/>
			<path class="st0" d="M118.9,32.3c-0.2,0.3-0.4,0.6-0.7,0.9c-0.3,0.2-0.6,0.4-1,0.4c-0.2,0-0.4,0-0.6-0.1s-0.3-0.2-0.5-0.3
				c-0.1-0.1-0.3-0.3-0.4-0.4c-0.1-0.2-0.2-0.3-0.2-0.6c0-0.3,0-0.6,0.1-1c0.1-0.4,0.2-0.8,0.4-1.2s0.4-0.7,0.7-1s0.6-0.4,0.9-0.4
				c0.2,0,0.4,0.1,0.7,0.2c0.2,0.2,0.4,0.4,0.6,0.6c0.2,0.2,0.3,0.5,0.5,0.7c0.1,0.3,0.2,0.5,0.3,0.7c0.2,0.6,0.4,1.2,0.4,1.8
				c0.1,0.6,0,1.2-0.1,1.8c-0.1,0.8-0.4,1.5-0.8,2.1c-0.4,0.6-0.9,1.1-1.5,1.5c-0.6,0.4-1.2,0.7-2,0.9c-0.7,0.2-1.4,0.3-2.2,0.3
				c-0.6,0-1.2-0.1-1.7-0.3s-1-0.5-1.4-0.8c-0.4-0.4-0.7-0.8-0.9-1.3c-0.2-0.5-0.3-1.1-0.3-1.7c0-0.7,0.1-1.4,0.3-2
				c0.2-0.6,0.5-1.2,0.9-1.8c0-0.1,0.1-0.1,0.1-0.1c0,0,0.1,0,0.1,0.1c0,0,0,0.1,0,0.1c0,0,0,0.1,0,0.1c-0.4,0.7-0.6,1.4-0.7,2.1
				c-0.1,0.7,0,1.3,0.2,1.9c0.1,0.3,0.3,0.6,0.5,0.8c0.2,0.2,0.4,0.5,0.7,0.6s0.6,0.3,1,0.4c0.4,0.1,0.8,0.1,1.2,0.1
				c0.6,0,1.2-0.1,1.7-0.2c0.5-0.1,1.1-0.3,1.6-0.5c0.5-0.2,0.9-0.5,1.3-0.9c0.4-0.4,0.8-0.8,1.1-1.2c0-0.1,0.1-0.3,0.1-0.5
				c0-0.2,0-0.4,0-0.7c0-0.2-0.1-0.4-0.2-0.6C119.1,32.5,119,32.4,118.9,32.3z M118.1,26.5c-0.1,0.1-0.2,0.1-0.2,0l-1.3-1l-0.8,1.2
				c0,0-0.1,0.1-0.1,0.1c0,0-0.1,0-0.1,0l-1.4-1c-0.1,0-0.1-0.1,0-0.1l0.9-1.2c0.1-0.1,0.1-0.1,0.2,0l1.3,1l0.9-1.2
				c0,0,0-0.1,0.1-0.1c0,0,0,0,0.1,0l1.4,1c0.1,0,0.1,0.1,0,0.2L118.1,26.5z M118.3,31.2c0-0.1-0.1-0.2-0.1-0.3
				c-0.1-0.1-0.2-0.2-0.3-0.3c-0.1-0.1-0.2-0.2-0.3-0.2c-0.1-0.1-0.2-0.1-0.3-0.1c-0.1,0-0.2,0-0.3,0.1c-0.1,0.1-0.2,0.1-0.3,0.2
				s-0.2,0.2-0.2,0.3c-0.1,0.1-0.1,0.2-0.1,0.3c0.1,0.2,0.3,0.3,0.4,0.4c0.2,0.1,0.4,0.1,0.6,0.1c0.2,0,0.4-0.1,0.5-0.2
				C118.1,31.5,118.2,31.4,118.3,31.2z"/>
			<path class="st0" d="M127.8,35.9l-1.1,0c-0.3,0-0.6,0-0.9-0.1c-0.3-0.1-0.5-0.2-0.7-0.4c-0.2-0.2-0.4-0.4-0.5-0.6
				s-0.1-0.5-0.1-0.8c0-0.1,0.1-0.3,0.1-0.5c0.1-0.2,0.1-0.4,0.2-0.6c0.1-0.2,0.2-0.4,0.3-0.6c0.1-0.2,0.3-0.4,0.4-0.5
				c0.1-0.2,0.3-0.3,0.5-0.4s0.3-0.1,0.5-0.1c0.3,0,0.5,0.1,0.7,0.3c0.2,0.2,0.4,0.5,0.6,0.8c0.2,0.3,0.3,0.6,0.4,0.9
				c0.1,0.3,0.2,0.6,0.2,0.8l0.9,0h0.2c0.2,0,0.4,0.1,0.5,0.3c0.1,0.2,0.2,0.4,0.2,0.6c0,0.2-0.1,0.4-0.2,0.6
				c-0.1,0.2-0.3,0.3-0.5,0.3h-0.2l-0.9,0c-0.1,0.6-0.3,1.3-0.5,1.8c-0.2,0.6-0.4,1.1-0.7,1.6s-0.6,0.9-1,1.3
				c-0.4,0.4-0.9,0.7-1.4,0.9c-0.4,0.1-0.8,0.2-1.3,0.2s-1,0.1-1.5,0c-0.5,0-1-0.1-1.5-0.1c-0.5-0.1-0.9-0.2-1.3-0.3
				c-0.1,0-0.2-0.1-0.2-0.1c0-0.1,0-0.1,0-0.2c0-0.1,0.1-0.1,0.1-0.2s0.2-0.1,0.3-0.1c0.4,0,0.8,0.1,1.3,0s0.9,0,1.4-0.1
				c0.4-0.1,0.9-0.2,1.3-0.3c0.4-0.1,0.8-0.3,1.2-0.5c0.4-0.2,0.8-0.5,1.1-0.8s0.6-0.7,0.9-1s0.5-0.7,0.7-1.1
				C127.5,36.7,127.7,36.3,127.8,35.9z M126.2,33.1c-0.1,0-0.2,0-0.3,0.1c-0.1,0.1-0.2,0.1-0.3,0.2c-0.1,0.1-0.1,0.2-0.2,0.3
				s-0.1,0.2-0.1,0.2c0,0.1,0.2,0.2,0.3,0.2c0.2,0,0.4,0.1,0.6,0.1s0.4,0,0.7,0s0.4,0,0.5,0c0,0,0-0.1-0.1-0.2
				c-0.1-0.1-0.2-0.2-0.3-0.4c-0.1-0.1-0.3-0.3-0.4-0.4S126.3,33.1,126.2,33.1z"/>
			<path class="st0" d="M134.1,20.2c-0.4,0.2-0.8,0.3-1.2,0.5s-0.8,0.4-1.3,0.5s-0.8,0.3-1.1,0.5c-0.3,0.2-0.6,0.3-0.8,0.4
				c-0.1,0-0.1,0-0.1,0c0,0,0-0.1,0-0.1c0-0.1,0.1-0.1,0.1-0.2c0.1-0.1,0.1-0.2,0.2-0.3s0.1-0.2,0.2-0.3C130,21,130,21,130.1,21
				c0.1-0.1,0.1-0.2,0.2-0.2l4.3-1.8c0.1-0.1,0.1,0,0.1,0.1c0,0.1-0.1,0.1-0.1,0.2c0,0.1-0.1,0.2-0.1,0.3c0,0.1-0.1,0.2-0.1,0.3
				s-0.1,0.2-0.1,0.2C134.2,20.1,134.2,20.1,134.1,20.2z"/>
			<path class="st0" d="M129.5,34.2c0.1,0,0.3,0,0.6,0c0.3,0,0.6,0,0.9,0c0.3,0,0.7,0,1-0.1c0.4,0,0.7-0.1,1-0.2
				c0.3-0.1,0.6-0.2,0.9-0.3s0.5-0.3,0.6-0.5c0-0.1,0-0.2,0-0.3s0-0.3-0.1-0.4c0-0.1-0.1-0.3-0.1-0.4c0-0.1-0.1-0.2-0.1-0.3
				c-0.1,0.1-0.2,0.3-0.3,0.4c-0.1,0.1-0.2,0.3-0.4,0.4c-0.1,0.1-0.3,0.2-0.4,0.3c-0.2,0.1-0.3,0.1-0.5,0.1c-0.2,0-0.4,0-0.6-0.1
				s-0.4-0.2-0.5-0.3c-0.2-0.1-0.3-0.3-0.4-0.4c-0.1-0.2-0.2-0.3-0.2-0.5c0-0.2-0.1-0.4,0-0.7c0-0.3,0.1-0.5,0.1-0.8
				c0.1-0.3,0.2-0.5,0.3-0.8c0.1-0.3,0.3-0.5,0.4-0.7c0.2-0.2,0.3-0.3,0.5-0.5s0.4-0.2,0.6-0.2c0.2,0,0.4,0.1,0.6,0.2
				c0.2,0.1,0.4,0.3,0.5,0.5s0.3,0.4,0.5,0.7c0.1,0.3,0.3,0.5,0.4,0.8c0.1,0.3,0.2,0.5,0.3,0.8s0.1,0.5,0.1,0.7c0,0.4,0,0.7,0,1
				c0,0.3-0.1,0.7-0.2,1c-0.1,0.3-0.2,0.6-0.3,0.8c-0.1,0.3-0.3,0.5-0.6,0.7c-0.3,0.2-0.6,0.4-1,0.5c-0.4,0.1-0.8,0.2-1.2,0.3
				c-0.4,0.1-0.8,0.1-1.3,0.1c-0.4,0-0.8,0-1.2,0h-0.1c-0.2,0-0.4-0.1-0.5-0.3c-0.1-0.2-0.2-0.4-0.2-0.6c0-0.2,0.1-0.4,0.2-0.6
				c0.1-0.2,0.3-0.3,0.5-0.3H129.5z M131.9,23.3c0-0.1,0.1-0.1,0.2,0l1.3,1.1c0,0,0,0,0.1,0.1c0,0,0,0.1,0,0.1l-0.9,1.1
				c-0.1,0.1-0.1,0.1-0.2,0l-1.3-1.1c0,0,0,0,0-0.1c0,0,0-0.1,0-0.1L131.9,23.3z M133.6,30.5c0-0.1,0-0.2-0.1-0.3
				c-0.1-0.1-0.2-0.2-0.3-0.3c-0.1-0.1-0.2-0.2-0.3-0.2c-0.1-0.1-0.2-0.1-0.3-0.1c-0.1,0-0.2,0-0.3,0.1c-0.1,0.1-0.2,0.1-0.3,0.2
				s-0.2,0.2-0.2,0.3c-0.1,0.1-0.1,0.2-0.1,0.3c0.1,0.2,0.2,0.3,0.4,0.4c0.2,0.1,0.4,0.1,0.6,0.1c0.2,0,0.4,0,0.6-0.1
				S133.5,30.7,133.6,30.5z"/>
			<path d="M142.9,27c-0.1,0-0.1-0.1,0-0.1c0.1-0.1,0.2-0.2,0.3-0.2c0.2-0.2,0.5-0.3,0.7-0.5c0.2-0.2,0.5-0.3,0.7-0.5
				c0.2-0.2,0.5-0.3,0.7-0.5c0.2-0.2,0.4-0.4,0.7-0.6c-0.2-0.1-0.4-0.2-0.6-0.3c-0.2-0.1-0.4-0.3-0.5-0.4c-0.1-0.1-0.1-0.2-0.1-0.3
				c0-0.1,0-0.3,0-0.4c0.1-0.2,0.2-0.4,0.3-0.6c0.1-0.2,0.2-0.4,0.4-0.6c0.1-0.2,0.3-0.3,0.5-0.4s0.4-0.2,0.6-0.1
				c0.1,0,0.3,0.1,0.4,0.2c0.1,0.1,0.2,0.2,0.2,0.4c0.1,0.2,0.1,0.3,0.1,0.5s0,0.4,0,0.5s0,0.3,0,0.5c0,0.1,0,0.3-0.1,0.3
				c0,0,0,0.1,0.1,0.1c0.1,0.1,0.2,0.1,0.2,0.1s0.1,0.1,0.1,0.2c0,0.1,0,0.2,0,0.4s-0.1,0.3-0.1,0.4c-0.1,0.1-0.1,0.1-0.2,0.1
				c-0.1,0-0.1,0-0.1-0.1c0-0.1-0.1-0.1-0.1-0.1c0,0-0.1-0.1-0.1-0.1c-0.2,0.3-0.5,0.5-0.7,0.8c-0.2,0.2-0.4,0.4-0.7,0.6
				s-0.5,0.3-0.7,0.4c-0.3,0.1-0.6,0.3-0.9,0.4c-0.1,0-0.3,0.1-0.4,0.1C143.1,27.1,143,27.1,142.9,27z M145.3,22.9
				c0.1,0.2,0.3,0.4,0.5,0.5c0.2,0.1,0.4,0.2,0.6,0.3h0c0-0.1,0-0.2,0-0.2c0-0.1,0-0.2,0-0.3c0-0.1,0-0.2,0-0.3
				c0-0.1-0.1-0.2-0.1-0.2c-0.1-0.1-0.1-0.1-0.2-0.1c-0.1,0-0.2,0-0.3,0.1c-0.1,0-0.2,0.1-0.3,0.2C145.4,22.8,145.3,22.8,145.3,22.9
				z"/>
			<path d="M146.6,32.9c0-0.1,0.1-0.1,0.1-0.1s0.1,0.1,0.1,0.1c0.2,0.3,0.5,0.5,0.7,0.7c0.3,0.2,0.5,0.3,0.8,0.3s0.5,0.1,0.8,0.1
				c0.3,0,0.5,0,0.7,0h0.2c0.2,0,0.4,0.1,0.5,0.3c0.1,0.2,0.2,0.4,0.2,0.6c0,0.2-0.1,0.4-0.2,0.6c-0.1,0.2-0.3,0.3-0.5,0.3h-0.2
				c-0.1,0-0.2,0-0.3,0c-0.1,0-0.3,0-0.4,0c-0.1,0-0.3,0-0.4,0c-0.1,0-0.3,0-0.4-0.1c-0.1,0.5-0.2,1-0.4,1.5s-0.3,0.8-0.4,1.2
				c-0.1,0.3-0.3,0.6-0.4,0.9c-0.1,0.2-0.2,0.4-0.3,0.5c-0.3,0.4-0.6,0.7-0.9,0.9s-0.6,0.5-1,0.6c-0.3,0.2-0.7,0.3-1.1,0.4
				s-0.7,0.1-1.1,0.2c-0.5,0-1.1,0-1.8-0.1c-0.6-0.1-1.3-0.3-2-0.5c-0.1,0-0.2-0.1-0.2-0.2c0-0.1,0-0.1,0-0.2c0,0,0.1-0.1,0.2-0.1
				c0.1,0,0.2,0,0.4,0c0.9,0.1,1.8,0.1,2.5-0.1s1.6-0.5,2.3-0.9c0.9-0.5,1.6-1.1,2.2-1.8c0.5-0.7,0.9-1.5,1.1-2.4
				c-0.3-0.1-0.6-0.3-0.8-0.5c-0.3-0.2-0.5-0.4-0.7-0.7c0.1-0.2,0.1-0.5,0.2-0.8C146.4,33.5,146.5,33.2,146.6,32.9z"/>
			<path d="M155.4,39.1c-0.8,0.3-1.5,0.5-2.2,0.8c-0.7,0.3-1.4,0.5-2.1,0.8c-0.1,0.1-0.1,0-0.1-0.1c0.1-0.1,0.1-0.3,0.2-0.5
				s0.2-0.3,0.2-0.4c0-0.1,0.1-0.1,0.2-0.2c0.2-0.1,0.4-0.2,0.8-0.3c0.3-0.1,0.7-0.3,1.1-0.4c0.4-0.1,0.8-0.3,1.2-0.4
				s0.9-0.3,1.3-0.4c0.1,0,0.1,0,0.1,0.1c0,0.1-0.1,0.1-0.1,0.2s-0.1,0.2-0.1,0.3s-0.1,0.2-0.1,0.2s-0.1,0.1-0.1,0.2
				C155.6,38.9,155.5,39,155.4,39.1C155.5,39,155.5,39,155.4,39.1z"/>
			<path d="M153.1,29.2c-0.1-0.1-0.1-0.1-0.2-0.1c-0.1,0-0.1-0.1-0.2-0.2c0,0-0.1-0.1-0.1-0.1c0,0,0,0,0-0.1c0-0.2,0-0.3,0.1-0.4
				c0-0.1,0-0.3,0-0.4c0-0.1,0-0.2,0-0.3s0-0.2,0.1-0.4c0-0.1,0.1-0.2,0.2-0.3c0.1,0,0.2,0,0.3,0c0.3,0.2,0.6,0.3,1,0.6
				c0.4,0.2,0.8,0.4,1.2,0.7c0.4,0.3,0.8,0.5,1.2,0.8s0.8,0.6,1.1,0.9c0.3,0.3,0.6,0.7,0.8,1c0.2,0.4,0.4,0.7,0.4,1.1
				c0,0.3,0.1,0.5,0.1,0.8c0,0.3-0.1,0.5-0.1,0.7c-0.1,0.2-0.2,0.5-0.3,0.7c-0.1,0.2-0.3,0.4-0.5,0.5c-0.2,0.1-0.3,0.2-0.4,0.2
				s-0.3,0-0.4,0c-0.2,0-0.5-0.1-0.8-0.1c-0.3-0.1-0.6-0.1-0.9-0.2s-0.6-0.1-0.9-0.2s-0.6-0.1-0.9-0.2c-0.6,0.5-1.2,1-1.9,1.3
				c-0.7,0.3-1.4,0.4-2.1,0.4h-0.2c-0.2,0-0.4-0.1-0.5-0.3c-0.1-0.2-0.2-0.4-0.2-0.6c0-0.2,0.1-0.4,0.2-0.6c0.1-0.2,0.3-0.3,0.5-0.3
				h0.2c0.1,0,0.3,0,0.5,0c0.2,0,0.4,0,0.6-0.1c0.2,0,0.4-0.1,0.6-0.1c0.2-0.1,0.4-0.1,0.6-0.3c-0.2-0.2-0.3-0.4-0.3-0.6
				c-0.1-0.2-0.1-0.5-0.1-0.8c0-0.3,0.1-0.6,0.1-0.9c0.1-0.3,0.2-0.6,0.3-0.9c0.1-0.3,0.2-0.5,0.4-0.8
				C152.8,29.5,152.9,29.3,153.1,29.2z M154.1,32.6c0.1,0,0.2-0.1,0.4-0.1c0.1-0.1,0.3-0.2,0.4-0.3c0.1-0.1,0.3-0.2,0.4-0.3
				c0.1-0.1,0.1-0.2,0.1-0.2c0-0.1,0-0.3-0.1-0.5c-0.1-0.2-0.2-0.4-0.4-0.5c-0.1-0.2-0.3-0.3-0.5-0.4c-0.2-0.1-0.3-0.2-0.5-0.2
				c-0.1,0-0.3,0.1-0.4,0.2s-0.3,0.2-0.4,0.4s-0.2,0.3-0.3,0.5c-0.1,0.2-0.1,0.4-0.2,0.6c0,0.1,0.1,0.2,0.2,0.3
				c0.1,0.1,0.3,0.2,0.4,0.3c0.2,0.1,0.3,0.1,0.5,0.2C153.8,32.6,153.9,32.6,154.1,32.6z M158.5,33c0-0.1,0-0.3-0.1-0.4
				c-0.1-0.2-0.2-0.3-0.4-0.5c-0.1-0.2-0.3-0.3-0.5-0.5c-0.2-0.2-0.4-0.3-0.6-0.5c-0.2-0.1-0.4-0.3-0.5-0.4
				c-0.2-0.1-0.3-0.2-0.4-0.3c0,0-0.1,0-0.1,0c0,0,0,0.1,0,0.1c0.1,0.4,0.1,0.8,0.1,1.2c0,0.4-0.1,0.8-0.3,1.1
				c-0.1,0.1-0.1,0.1,0,0.1c0.2,0.1,0.4,0.1,0.6,0.2c0.2,0.1,0.5,0.1,0.7,0.1c0.2,0,0.5,0.1,0.7,0.1c0.2,0,0.4,0,0.6,0
				C158.5,33.2,158.5,33.1,158.5,33z"/>
			<path d="M160.9,22.8c0.1-0.3,0.1-0.5,0.3-0.8s0.2-0.5,0.3-0.8c0,0,0-0.1,0.1-0.1s0.1,0,0.1,0.1c0.1,0.4,0.2,0.9,0.3,1.3
				c0.1,0.4,0.2,0.9,0.3,1.4c0.1,0.5,0.2,1.1,0.2,1.7c0.1,0.6,0.1,1.3,0.2,2c0.1,0.6,0.1,1.1,0.1,1.5c0,0.4,0.1,0.8,0.1,1.1
				c0,0.3,0.1,0.6,0.1,0.9c0,0.3,0.1,0.6,0.1,0.8c0.1,0.4,0.2,0.7,0.3,1c0.1,0.3,0.3,0.5,0.5,0.7s0.4,0.3,0.7,0.4
				c0.3,0.1,0.6,0.1,1,0.1h0.1c0.2,0,0.4,0.1,0.5,0.3c0.1,0.2,0.2,0.4,0.2,0.6c0,0.2-0.1,0.4-0.2,0.6c-0.1,0.2-0.3,0.3-0.5,0.3h-0.1
				c-0.6,0-1.1-0.1-1.5-0.3c-0.4-0.2-0.7-0.4-1-0.8c-0.3-0.3-0.5-0.7-0.6-1.1s-0.2-0.9-0.3-1.4c-0.1-0.4-0.1-0.9-0.2-1.3
				c-0.1-0.5-0.1-0.9-0.1-1.4s-0.1-0.9-0.1-1.3c0-0.4-0.1-0.8-0.1-1.2c-0.1-0.7-0.2-1.4-0.3-2.1s-0.3-1.4-0.5-2.2c0-0.1,0-0.1,0-0.1
				S160.9,22.8,160.9,22.8z"/>
			<path d="M172,21c-0.4,0.2-0.8,0.3-1.2,0.5s-0.8,0.4-1.3,0.5c-0.4,0.2-0.8,0.3-1.1,0.5c-0.3,0.2-0.6,0.3-0.8,0.4
				c-0.1,0-0.1,0-0.1,0s0-0.1,0-0.1c0-0.1,0.1-0.1,0.1-0.2c0.1-0.1,0.1-0.2,0.2-0.3c0.1-0.1,0.1-0.2,0.2-0.3
				c0.1-0.1,0.1-0.2,0.1-0.2c0.1-0.1,0.1-0.2,0.2-0.2l4.3-1.8c0.1-0.1,0.1,0,0.1,0.1c0,0.1-0.1,0.1-0.1,0.2s-0.1,0.2-0.1,0.3
				c0,0.1-0.1,0.2-0.1,0.3s-0.1,0.2-0.1,0.2C172.1,20.9,172,21,172,21z"/>
			<path d="M171.7,28.7c0.3,0,0.5,0.2,0.7,0.4c0.2,0.2,0.3,0.5,0.4,0.9c0.1,0.3,0.1,0.7,0.1,1.1s0,0.7-0.1,1
				c-0.1,0.3-0.2,0.6-0.4,0.9c-0.2,0.3-0.3,0.5-0.6,0.8c0.1,0.1,0.3,0.1,0.5,0.2s0.4,0.1,0.6,0.1s0.4,0,0.6,0s0.4,0,0.6,0h0.2
				c0.2,0,0.3,0.1,0.4,0.1s0.2,0.2,0.2,0.3c0.1,0.1,0.1,0.3,0.1,0.4c0,0.1,0,0.3-0.1,0.4c-0.1,0.1-0.1,0.2-0.2,0.3s-0.2,0.1-0.4,0.1
				h-0.2c-0.8,0-1.6-0.1-2.4-0.3s-1.4-0.4-2-0.8c-0.3,0.2-0.6,0.3-0.9,0.4c-0.3,0.1-0.6,0.2-1,0.3s-0.7,0.2-1.1,0.2
				c-0.4,0-0.8,0.1-1.2,0.1h-0.2c-0.2,0-0.4-0.1-0.5-0.3c-0.1-0.2-0.2-0.4-0.2-0.6c0-0.2,0.1-0.4,0.2-0.6c0.1-0.2,0.3-0.3,0.5-0.3
				h0.2c0.2,0,0.5,0,0.7,0c0.2,0,0.4,0,0.7-0.1c0.2,0,0.4-0.1,0.7-0.1c0.2-0.1,0.5-0.1,0.8-0.2c-0.1-0.1-0.1-0.3-0.2-0.5
				c0-0.2,0-0.4,0-0.6c0-0.5,0.2-1,0.4-1.5c0.2-0.5,0.5-0.9,0.9-1.3c0.3-0.4,0.7-0.7,1.1-0.9C171.1,28.8,171.4,28.7,171.7,28.7z
				 M172.1,26.5c-0.1,0-0.2,0-0.2,0l-1.3-1l-0.8,1.2c0,0-0.1,0.1-0.1,0.1c0,0-0.1,0-0.1,0l-1.4-1c0,0,0,0-0.1-0.1c0,0,0,0,0-0.1
				l0.9-1.2c0,0,0.1-0.1,0.1-0.1c0,0,0.1,0,0.1,0l1.4,1l0.9-1.2c0,0,0.1-0.1,0.1-0.1c0,0,0,0,0.1,0l1.4,1c0.1,0,0.1,0.1,0,0.2
				L172.1,26.5z M172.1,32.1c0-0.2,0-0.4-0.1-0.7c-0.1-0.2-0.2-0.4-0.3-0.6c-0.1-0.1-0.2-0.2-0.3-0.2c-0.1,0-0.2,0-0.3,0
				c-0.1,0-0.3,0.1-0.5,0.1c-0.2,0.1-0.4,0.2-0.5,0.3c-0.2,0.1-0.3,0.3-0.5,0.4s-0.3,0.3-0.3,0.5c0,0.2,0.1,0.4,0.1,0.5
				c0.1,0.2,0.2,0.3,0.3,0.4s0.2,0.2,0.4,0.3c0.1,0.1,0.2,0.1,0.3,0.2c0.1,0,0.2-0.1,0.4-0.1s0.4-0.2,0.6-0.3s0.4-0.2,0.5-0.3
				C172,32.3,172.1,32.2,172.1,32.1z"/>
			<path d="M177,20.8c0-0.1,0.1-0.1,0.1-0.1c0,0,0.1,0,0.1,0.1c0.1,0.2,0.1,0.4,0.2,0.6c0.1,0.2,0.2,0.4,0.3,0.5
				c0.1,0.2,0.2,0.3,0.4,0.5s0.3,0.3,0.5,0.4c-0.1,0.2-0.2,0.3-0.3,0.5c-0.1,0.1-0.1,0.3-0.2,0.4s-0.1,0.2-0.1,0.3
				c0,0.1,0,0.2,0,0.3c0.1,0.7,0.2,1.4,0.3,2.2s0.2,1.4,0.3,2.1c0.1,0.7,0.2,1.4,0.3,2.1c0.1,0.7,0.1,1.4,0.2,2.2
				c0,0.2,0,0.4-0.1,0.6c0,0.2-0.1,0.4-0.1,0.6c-0.1,0.2-0.1,0.4-0.2,0.6c-0.1,0.2-0.2,0.3-0.3,0.5c-0.2,0.2-0.5,0.4-0.8,0.5
				c-0.3,0.1-0.7,0.2-1,0.3c-0.4,0.1-0.7,0.1-1.1,0.1c-0.4,0-0.7,0-0.9,0H174c-0.2,0-0.4-0.1-0.5-0.3c-0.1-0.2-0.2-0.4-0.2-0.6
				c0-0.2,0.1-0.4,0.2-0.6c0.1-0.2,0.3-0.3,0.5-0.3h0.2c0.1,0,0.2,0,0.4,0s0.4,0,0.7,0c0.3,0,0.5,0,0.8-0.1s0.6-0.1,0.8-0.1
				s0.5-0.1,0.7-0.2c0.2-0.1,0.3-0.2,0.4-0.3c-0.1-1.6-0.3-3.1-0.6-4.7c-0.2-1.5-0.5-3.1-0.7-4.6c0-0.3-0.1-0.6-0.2-0.9
				c-0.1-0.3-0.2-0.6-0.4-0.9c-0.1-0.1-0.1-0.1-0.1-0.2c0,0,0-0.1,0.1-0.2c0.1-0.2,0.3-0.4,0.4-0.7C176.7,21.1,176.9,20.9,177,20.8z
				"/>
			<path d="M182.2,21.4c0.1,0,0.1,0,0.1,0.1c0,0,0,0.1,0,0.1c0,0,0,0.1,0,0.1s0,0.1,0,0.1c0,0.3,0,0.6,0,0.8s0.1,0.5,0.1,0.8
				c0.1,0.7,0.2,1.4,0.3,2.1c0.1,0.7,0.2,1.4,0.3,2.1s0.2,1.4,0.3,2.1c0.1,0.7,0.2,1.4,0.3,2.1c0,0.3,0,0.6,0.1,0.9
				c0,0.4,0,0.7,0,1.1c0,0.4-0.1,0.7-0.1,1c-0.1,0.3-0.1,0.6-0.2,0.9c0,0.2-0.1,0.2-0.2,0.2c-0.1,0-0.1,0-0.1-0.1
				c-0.1-1.3-0.2-2.6-0.4-4c-0.2-1.4-0.4-2.8-0.6-4.2c-0.2-1.4-0.4-2.8-0.5-4.2c0-0.3,0.1-0.7,0.3-1.1c0.1-0.2,0.2-0.4,0.2-0.6
				C182,21.6,182.1,21.5,182.2,21.4z"/>
			<path d="M195.4,24.4c-0.4,0.2-0.8,0.3-1.2,0.5s-0.8,0.4-1.3,0.5c-0.4,0.2-0.8,0.3-1.1,0.5c-0.3,0.2-0.6,0.3-0.8,0.4
				c-0.1,0-0.1,0-0.1,0s0-0.1,0-0.1c0-0.1,0.1-0.1,0.1-0.2c0.1-0.1,0.1-0.2,0.2-0.3c0.1-0.1,0.1-0.2,0.2-0.3
				c0.1-0.1,0.1-0.2,0.1-0.2c0.1-0.1,0.1-0.2,0.2-0.2l4.3-1.8c0.1-0.1,0.1,0,0.1,0.1c0,0.1-0.1,0.1-0.1,0.2s-0.1,0.2-0.1,0.3
				c0,0.1-0.1,0.2-0.1,0.3s-0.1,0.2-0.1,0.2C195.5,24.3,195.5,24.4,195.4,24.4z"/>
			<path d="M196.2,35.9l-1.1,0c-0.3,0-0.6,0-0.9-0.1c-0.3-0.1-0.5-0.2-0.7-0.4c-0.2-0.2-0.4-0.4-0.5-0.6s-0.1-0.5-0.1-0.8
				c0-0.1,0.1-0.3,0.1-0.5c0.1-0.2,0.1-0.4,0.2-0.6c0.1-0.2,0.2-0.4,0.3-0.6c0.1-0.2,0.3-0.4,0.4-0.5c0.1-0.2,0.3-0.3,0.5-0.4
				s0.3-0.1,0.5-0.1c0.3,0,0.5,0.1,0.7,0.3c0.2,0.2,0.4,0.5,0.6,0.8c0.2,0.3,0.3,0.6,0.4,0.9c0.1,0.3,0.2,0.6,0.2,0.8l0.9,0h0.2
				c0.2,0,0.4,0.1,0.5,0.3c0.1,0.2,0.2,0.4,0.2,0.6c0,0.2-0.1,0.4-0.2,0.6c-0.1,0.2-0.3,0.3-0.5,0.3h-0.2l-0.9,0
				c-0.1,0.6-0.3,1.3-0.5,1.8s-0.4,1.1-0.7,1.6s-0.6,0.9-1,1.3c-0.4,0.4-0.9,0.7-1.4,0.9c-0.4,0.1-0.8,0.2-1.3,0.2s-1,0.1-1.5,0
				c-0.5,0-1-0.1-1.5-0.1c-0.5-0.1-0.9-0.2-1.3-0.3c-0.1,0-0.2-0.1-0.2-0.1c0-0.1,0-0.1,0-0.2c0-0.1,0.1-0.1,0.1-0.2
				s0.2-0.1,0.3-0.1c0.4,0,0.8,0.1,1.3,0s0.9,0,1.4-0.1c0.4-0.1,0.9-0.2,1.3-0.3c0.4-0.1,0.8-0.3,1.2-0.5c0.4-0.2,0.8-0.5,1.1-0.8
				s0.6-0.7,0.9-1s0.5-0.7,0.7-1.1C195.9,36.7,196.1,36.3,196.2,35.9z M194.6,33.1c-0.1,0-0.2,0-0.3,0.1c-0.1,0.1-0.2,0.1-0.3,0.2
				c-0.1,0.1-0.1,0.2-0.2,0.3s-0.1,0.2-0.1,0.2c0,0.1,0.2,0.2,0.3,0.2c0.2,0,0.4,0.1,0.6,0.1s0.4,0,0.7,0s0.4,0,0.5,0
				c0,0,0-0.1-0.1-0.2c-0.1-0.1-0.2-0.2-0.3-0.4c-0.1-0.1-0.3-0.3-0.4-0.4S194.7,33.1,194.6,33.1z"/>
			<path d="M199.6,24.2c-0.1,0-0.1-0.1,0-0.1c0.1-0.1,0.2-0.2,0.3-0.2c0.2-0.2,0.5-0.3,0.7-0.5c0.2-0.2,0.5-0.3,0.7-0.5
				c0.2-0.2,0.5-0.3,0.7-0.5c0.2-0.2,0.4-0.4,0.7-0.6c-0.2-0.1-0.4-0.2-0.6-0.3c-0.2-0.1-0.4-0.3-0.5-0.4c-0.1-0.1-0.1-0.2-0.1-0.3
				c0-0.1,0-0.3,0-0.4c0.1-0.2,0.2-0.4,0.3-0.6c0.1-0.2,0.2-0.4,0.4-0.6c0.1-0.2,0.3-0.3,0.5-0.4s0.4-0.2,0.6-0.1
				c0.1,0,0.3,0.1,0.4,0.2c0.1,0.1,0.2,0.2,0.2,0.4c0.1,0.2,0.1,0.3,0.1,0.5s0,0.4,0,0.5s0,0.3,0,0.5c0,0.1,0,0.3-0.1,0.3
				c0,0,0,0.1,0.1,0.1c0.1,0.1,0.2,0.1,0.2,0.1s0.1,0.1,0.1,0.2c0,0.1,0,0.2,0,0.4s-0.1,0.3-0.1,0.4c-0.1,0.1-0.1,0.1-0.2,0.1
				c-0.1,0-0.1,0-0.1-0.1c0-0.1-0.1-0.1-0.1-0.1c0,0-0.1-0.1-0.1-0.1c-0.2,0.3-0.5,0.5-0.7,0.8c-0.2,0.2-0.4,0.4-0.7,0.6
				s-0.5,0.3-0.7,0.4c-0.3,0.1-0.6,0.3-0.9,0.4c-0.1,0-0.3,0.1-0.4,0.1C199.8,24.2,199.7,24.3,199.6,24.2z M202,20.1
				c0.1,0.2,0.3,0.4,0.5,0.5c0.2,0.1,0.4,0.2,0.6,0.3h0c0-0.1,0-0.2,0-0.2c0-0.1,0-0.2,0-0.3c0-0.1,0-0.2,0-0.3
				c0-0.1-0.1-0.2-0.1-0.2c-0.1-0.1-0.1-0.1-0.2-0.1c-0.1,0-0.2,0-0.3,0.1c-0.1,0-0.2,0.1-0.3,0.2C202.1,20,202.1,20,202,20.1z"/>
			<path d="M201,29.2c-0.1-0.1-0.1-0.1-0.2-0.1c-0.1,0-0.1-0.1-0.2-0.2c0,0-0.1-0.1-0.1-0.1c0,0,0,0,0-0.1c0-0.2,0-0.3,0.1-0.4
				c0-0.1,0-0.3,0-0.4c0-0.1,0-0.2,0-0.3s0-0.2,0.1-0.4c0-0.1,0.1-0.2,0.2-0.3c0.1,0,0.2,0,0.3,0c0.3,0.2,0.6,0.3,1,0.6
				c0.4,0.2,0.8,0.4,1.2,0.7c0.4,0.3,0.8,0.5,1.2,0.8s0.8,0.6,1.1,0.9c0.3,0.3,0.6,0.7,0.8,1c0.2,0.4,0.4,0.7,0.4,1.1
				c0,0.3,0.1,0.5,0.1,0.8c0,0.3-0.1,0.5-0.1,0.7c-0.1,0.2-0.2,0.5-0.3,0.7c-0.1,0.2-0.3,0.4-0.5,0.5c-0.2,0.1-0.3,0.2-0.4,0.2
				s-0.3,0-0.4,0c-0.2,0-0.5-0.1-0.8-0.1c-0.3-0.1-0.6-0.1-0.9-0.2s-0.6-0.1-0.9-0.2s-0.6-0.1-0.9-0.2c-0.6,0.5-1.2,1-1.9,1.3
				c-0.7,0.3-1.4,0.4-2.1,0.4h-0.2c-0.2,0-0.4-0.1-0.5-0.3c-0.1-0.2-0.2-0.4-0.2-0.6c0-0.2,0.1-0.4,0.2-0.6c0.1-0.2,0.3-0.3,0.5-0.3
				h0.2c0.1,0,0.3,0,0.5,0c0.2,0,0.4,0,0.6-0.1c0.2,0,0.4-0.1,0.6-0.1c0.2-0.1,0.4-0.1,0.6-0.3c-0.2-0.2-0.3-0.4-0.3-0.6
				c-0.1-0.2-0.1-0.5-0.1-0.8c0-0.3,0.1-0.6,0.1-0.9c0.1-0.3,0.2-0.6,0.3-0.9c0.1-0.3,0.2-0.5,0.4-0.8
				C200.8,29.5,200.9,29.3,201,29.2z M202,32.6c0.1,0,0.2-0.1,0.4-0.1c0.1-0.1,0.3-0.2,0.4-0.3c0.1-0.1,0.3-0.2,0.4-0.3
				c0.1-0.1,0.1-0.2,0.1-0.2c0-0.1,0-0.3-0.1-0.5c-0.1-0.2-0.2-0.4-0.4-0.5c-0.1-0.2-0.3-0.3-0.5-0.4c-0.2-0.1-0.3-0.2-0.5-0.2
				c-0.1,0-0.3,0.1-0.4,0.2s-0.3,0.2-0.4,0.4s-0.2,0.3-0.3,0.5c-0.1,0.2-0.1,0.4-0.2,0.6c0,0.1,0.1,0.2,0.2,0.3
				c0.1,0.1,0.3,0.2,0.4,0.3c0.2,0.1,0.3,0.1,0.5,0.2C201.8,32.6,201.9,32.6,202,32.6z M206.5,33c0-0.1,0-0.3-0.1-0.4
				c-0.1-0.2-0.2-0.3-0.4-0.5c-0.1-0.2-0.3-0.3-0.5-0.5c-0.2-0.2-0.4-0.3-0.6-0.5c-0.2-0.1-0.4-0.3-0.5-0.4
				c-0.2-0.1-0.3-0.2-0.4-0.3c0,0-0.1,0-0.1,0c0,0,0,0.1,0,0.1c0.1,0.4,0.1,0.8,0.1,1.2c0,0.4-0.1,0.8-0.3,1.1
				c-0.1,0.1-0.1,0.1,0,0.1c0.2,0.1,0.4,0.1,0.6,0.2c0.2,0.1,0.5,0.1,0.7,0.1c0.2,0,0.5,0.1,0.7,0.1c0.2,0,0.4,0,0.6,0
				C206.4,33.2,206.5,33.1,206.5,33z"/>
			<path d="M212.8,25c-0.4,0.2-0.8,0.3-1.2,0.5s-0.8,0.4-1.3,0.5c-0.4,0.2-0.8,0.3-1.1,0.5c-0.3,0.2-0.6,0.3-0.8,0.4
				c-0.1,0-0.1,0-0.1,0s0-0.1,0-0.1c0-0.1,0.1-0.1,0.1-0.2c0.1-0.1,0.1-0.2,0.2-0.3c0.1-0.1,0.1-0.2,0.2-0.3
				c0.1-0.1,0.1-0.2,0.1-0.2c0.1-0.1,0.1-0.2,0.2-0.2l4.3-1.8c0.1-0.1,0.1,0,0.1,0.1c0,0.1-0.1,0.1-0.1,0.2s-0.1,0.2-0.1,0.3
				c0,0.1-0.1,0.2-0.1,0.3s-0.1,0.2-0.1,0.2C213,24.9,212.9,24.9,212.8,25z"/>
			<path d="M213.7,33.9c-0.1,0.3-0.3,0.6-0.6,0.8c-0.3,0.2-0.6,0.3-1,0.3c-0.2,0-0.4-0.1-0.6-0.2c-0.2-0.1-0.3-0.2-0.5-0.4
				c-0.1-0.2-0.2-0.4-0.3-0.6c-0.1-0.2-0.1-0.4-0.1-0.7c0-0.2,0-0.3,0.1-0.6c0.1-0.2,0.1-0.4,0.2-0.6c0.1-0.2,0.2-0.4,0.3-0.7
				c0.1-0.2,0.2-0.4,0.4-0.6c0.1-0.2,0.3-0.3,0.4-0.4c0.1-0.1,0.3-0.2,0.5-0.2c0.3,0,0.6,0.1,0.8,0.3s0.5,0.5,0.7,0.9
				c0.2,0.4,0.3,0.8,0.4,1.2s0.2,0.8,0.1,1.3c0,0.5-0.1,1.1-0.2,1.7s-0.3,1.2-0.5,1.7c-0.2,0.6-0.5,1.1-0.7,1.6s-0.6,0.9-0.9,1.3
				c-0.3,0.3-0.6,0.6-1,0.8s-0.7,0.4-1.1,0.5c-0.4,0.1-0.8,0.2-1.2,0.3s-0.8,0.1-1.2,0c-0.5,0-0.9-0.1-1.3-0.1
				c-0.4-0.1-0.9-0.2-1.3-0.3c-0.1,0-0.1-0.1-0.1-0.1c0-0.1,0-0.1,0-0.2c0-0.1,0.1-0.1,0.1-0.1s0.1-0.1,0.3,0c0.6,0.1,1.2,0.1,1.8,0
				c0.6-0.1,1.2-0.2,1.7-0.4c0.5-0.2,0.9-0.4,1.3-0.7c0.4-0.3,0.8-0.6,1.2-0.9c0.3-0.3,0.6-0.6,0.8-0.9c0.3-0.3,0.5-0.7,0.7-1.1
				s0.4-0.7,0.6-1.1c0.2-0.4,0.3-0.7,0.3-1c0-0.1,0-0.1,0-0.2c0-0.1,0-0.2,0-0.3c0-0.1,0-0.2-0.1-0.2S213.7,33.9,213.7,33.9z
				 M213.3,32.9c0-0.1,0-0.1-0.1-0.2c-0.1-0.1-0.1-0.2-0.2-0.3s-0.2-0.2-0.3-0.3c-0.1-0.1-0.3-0.1-0.4-0.1c-0.1,0-0.2,0.1-0.3,0.1
				c-0.1,0.1-0.2,0.2-0.2,0.3c-0.1,0.1-0.1,0.2-0.1,0.3c0,0.1,0,0.2,0,0.2c0.1,0.2,0.2,0.3,0.4,0.3c0.2,0.1,0.3,0.1,0.5,0.1
				c0.2,0,0.4-0.1,0.5-0.1C213.1,33,213.2,33,213.3,32.9z"/>
		</g>
		<g>
			<path d="M233.6,30.9c0,0.1-0.1,0.3-0.2,0.4c-0.2,0.2-0.4,0.4-0.8,0.6c0,0.4-0.1,0.7-0.2,1.1c-0.1,0.3-0.2,0.5-0.3,0.5
				c-0.4-0.4-0.7-0.7-1.1-1c-0.4-0.3-0.8-0.5-1.2-0.5c0,0.4,0.2,0.8,0.6,1.2c0.3,0.3,0.6,0.7,0.9,1c0,0.2-0.3,0.3-1,0.5
				c-0.5,0.1-0.9,0.1-1.2,0.1c-0.5,1.4-1.1,2.7-2,3.9c-0.4,0.5-0.9,1.1-1.5,1.7c-0.8,0.8-1.4,1.2-1.8,1.2c-0.1,0-0.2-0.1-0.2-0.2
				c0-0.1,0.2-0.4,0.7-0.9c0.7-0.8,1.2-1.4,1.5-2.1c0.6-1.1,1-2.3,1.2-3.7c-0.4-0.1-0.7-0.1-0.8-0.2c-0.1-0.1-0.2-0.1-0.2-0.3
				c0.9-0.8,1.4-1.5,1.4-2.2c-0.4,0-0.8,0.2-1.2,0.5c-0.2,0.2-0.6,0.6-1,1c-0.1,0-0.2-0.2-0.4-0.5c-0.1-0.4-0.2-0.7-0.2-1.1
				c-0.4-0.2-0.6-0.4-0.7-0.4c-0.3-0.2-0.4-0.4-0.4-0.6c0-0.1,0.1-0.3,0.2-0.4c0.1-0.1,0.4-0.3,0.8-0.5c0-1.1,0.2-1.6,0.6-1.6
				c0.8,0.9,1.5,1.3,2.2,1.4c0-0.3-0.2-0.8-0.5-1.2c0,0-0.3-0.4-0.9-1c0-0.1,0.1-0.2,0.2-0.2c0.2-0.1,0.4-0.1,0.9-0.2
				c-0.2-1.1-0.6-2.2-1.3-3.3c-0.6-1.1-1.4-2.1-2.2-2.8c-0.1-0.1-0.2-0.2-0.2-0.3c0-0.1,0.1-0.2,0.3-0.2c0.3,0,0.7,0.2,1.3,0.6
				c1.8,1.3,3.2,3.2,4.1,5.8c1.4,0,2.1,0.2,2.1,0.6c-0.4,0.3-0.7,0.7-0.9,1c-0.3,0.4-0.4,0.8-0.4,1.2c0.3,0,0.7-0.2,1-0.5l1.1-1
				c0.2,0,0.4,0.5,0.5,1.4c0,0.1,0,0.2,0,0.3C233.2,30.3,233.6,30.6,233.6,30.9z M230.4,27.6c0,0-0.1-0.1-0.4-0.1
				c-0.2,0-0.4-0.1-0.5-0.1h-0.4c-0.1,0-0.2,0-0.3,0.1c-0.4-1.2-0.9-2.4-1.7-3.5c-0.9-1.2-1.8-2.2-3-3c0.8,0.7,1.4,1.6,2,2.6
				c0.7,1.2,1.2,2.5,1.4,3.8c-0.5,0-0.8,0.1-0.8,0.2c0.6,0.5,1,1,1.3,1.5c0.1-0.2,0.2-0.5,0.3-0.7c0,0,0.1-0.1,0.1-0.3
				c0.1-0.2,0.1-0.3,0.2-0.3c0.2,0,0.4,0.5,0.7,1.4c0.2-0.3,0.3-0.7,0.6-0.9C230,28.1,230.2,27.9,230.4,27.6z M227,31.7
				c-0.1-0.1-0.5-0.2-1.1-0.4c-0.4-0.1-0.6-0.2-0.6-0.3c0,0,0.3-0.2,0.9-0.4c0.1-0.1,0.4-0.2,0.7-0.3c-0.3-0.1-0.7-0.3-1-0.5
				c-0.1-0.1-0.4-0.3-0.7-0.6c-0.1,0-0.2,0.4-0.2,1.2c-0.6,0.3-0.9,0.6-0.9,0.7c0,0.2,0.3,0.3,0.9,0.6c0,0.8,0.1,1.3,0.3,1.3
				c0,0,0.2-0.2,0.6-0.5C226.5,32,226.8,31.7,227,31.7z M230.5,34.2c-0.5-0.4-0.9-0.9-1.2-1.4c-0.1,0.2-0.2,0.4-0.3,0.7
				c0,0-0.1,0.2-0.2,0.4c-0.1,0.2-0.2,0.3-0.2,0.3c0,0-0.1-0.1-0.2-0.3c-0.1-0.2-0.1-0.3-0.2-0.3c0-0.1-0.1-0.3-0.3-0.7
				c-0.1,0.3-0.3,0.6-0.5,0.8c-0.2,0.2-0.4,0.4-0.6,0.6c0,0.1,0.3,0.1,0.8,0.3c-0.3,1.3-0.5,2.1-0.6,2.4c-0.5,1.4-1.3,2.8-2.4,4.1
				c1.9-1.3,3.3-3.4,4.3-6.5c0.7,0,1,0,0.9,0C230.3,34.4,230.5,34.3,230.5,34.2z M229.9,30.9c0-0.4-0.1-0.7-0.4-0.9
				c-0.2-0.2-0.6-0.3-0.9-0.3c-0.3,0-0.6,0.1-0.9,0.4c-0.3,0.2-0.4,0.5-0.4,0.9c0,0.4,0.1,0.7,0.4,0.9c0.3,0.2,0.6,0.4,0.9,0.4
				c0.4,0,0.7-0.1,0.9-0.4C229.8,31.6,229.9,31.3,229.9,30.9z M233,30.9c0-0.1-0.1-0.2-0.2-0.3c-0.2-0.1-0.4-0.2-0.7-0.3
				c0-0.4,0-0.7-0.1-0.9c-0.1-0.2-0.1-0.4-0.2-0.4c0,0-0.2,0.2-0.5,0.5c-0.3,0.3-0.7,0.6-1.1,0.7c0.2,0.1,0.4,0.2,0.8,0.4
				c0,0,0.2,0.1,0.6,0.2c0.3,0.1,0.4,0.2,0.4,0.2c0,0.1-0.2,0.2-0.6,0.3c-0.6,0.2-1,0.3-1.1,0.3c0.4,0.1,0.7,0.3,1,0.5
				c0.1,0.1,0.4,0.3,0.6,0.6c0.1,0,0.1-0.1,0.2-0.3c0-0.1,0-0.4,0-0.8C232.7,31.2,233,31,233,30.9z"/>
		</g>
		<g>
			<path d="M49,31.2c0-0.1,0.1-0.3,0.2-0.4c0.2-0.2,0.4-0.4,0.8-0.6c0-0.4,0.1-0.7,0.2-1.1c0.1-0.3,0.2-0.5,0.3-0.5
				c0.4,0.4,0.7,0.7,1.1,1c0.4,0.3,0.8,0.5,1.2,0.5c0-0.4-0.2-0.8-0.6-1.2c-0.3-0.3-0.6-0.7-0.9-1c0-0.2,0.3-0.3,1-0.5
				c0.5-0.1,0.9-0.1,1.2-0.1c0.5-1.4,1.1-2.7,2-3.9c0.4-0.5,0.9-1.1,1.5-1.7c0.8-0.8,1.4-1.2,1.8-1.2c0.1,0,0.2,0.1,0.2,0.2
				c0,0.1-0.2,0.4-0.7,0.9c-0.7,0.8-1.2,1.4-1.5,2.1c-0.6,1.1-1,2.3-1.2,3.7c0.4,0.1,0.7,0.1,0.8,0.2c0.1,0.1,0.2,0.1,0.2,0.3
				c-0.9,0.8-1.4,1.5-1.4,2.2c0.4,0,0.8-0.2,1.2-0.5c0.2-0.2,0.6-0.6,1-1c0.1,0,0.2,0.2,0.4,0.5c0.1,0.4,0.2,0.7,0.2,1.1
				c0.4,0.2,0.6,0.4,0.7,0.4c0.3,0.2,0.4,0.4,0.4,0.6c0,0.1-0.1,0.3-0.2,0.4c-0.1,0.1-0.4,0.3-0.8,0.5c0,1.1-0.2,1.6-0.6,1.6
				c-0.8-0.9-1.5-1.3-2.2-1.4c0,0.3,0.2,0.8,0.5,1.2c0,0,0.3,0.4,0.9,1c0,0.1-0.1,0.2-0.2,0.2c-0.2,0.1-0.4,0.1-0.9,0.2
				c0.2,1.1,0.6,2.2,1.3,3.3c0.6,1.1,1.4,2.1,2.2,2.8c0.1,0.1,0.2,0.2,0.2,0.3s-0.1,0.2-0.3,0.2c-0.3,0-0.7-0.2-1.3-0.6
				c-1.8-1.3-3.2-3.2-4.1-5.8c-1.4,0-2.1-0.2-2.1-0.6c0.4-0.3,0.7-0.7,0.9-1c0.3-0.4,0.4-0.8,0.4-1.2c-0.3,0-0.7,0.2-1,0.5l-1.1,1
				c-0.2,0-0.4-0.5-0.5-1.4c0-0.1,0-0.2,0-0.3C49.4,31.8,49,31.5,49,31.2z M52.2,34.5c0,0,0.1,0.1,0.4,0.1c0.2,0,0.4,0.1,0.5,0.1
				h0.4c0.1,0,0.2,0,0.3-0.1c0.4,1.2,0.9,2.4,1.7,3.5c0.9,1.2,1.8,2.2,3,3c-0.8-0.7-1.4-1.6-2-2.6c-0.7-1.2-1.2-2.5-1.4-3.8
				c0.5,0,0.8-0.1,0.8-0.2c-0.6-0.5-1-1-1.3-1.5c-0.1,0.2-0.2,0.5-0.3,0.7c0,0-0.1,0.1-0.1,0.3c-0.1,0.2-0.1,0.3-0.2,0.3
				c-0.2,0-0.4-0.5-0.7-1.4c-0.2,0.3-0.3,0.7-0.6,0.9C52.6,34,52.4,34.2,52.2,34.5z M55.6,30.4c0.1,0.1,0.5,0.2,1.1,0.4
				c0.4,0.1,0.6,0.2,0.6,0.3c0,0-0.3,0.2-0.9,0.4c-0.1,0.1-0.4,0.2-0.7,0.3c0.3,0.1,0.7,0.3,1,0.5c0.1,0.1,0.4,0.3,0.7,0.6
				c0.1,0,0.2-0.4,0.2-1.2c0.6-0.3,0.9-0.6,0.9-0.7c0-0.2-0.3-0.3-0.9-0.6c0-0.8-0.1-1.3-0.3-1.3c0,0-0.2,0.2-0.6,0.5
				C56.1,30.1,55.8,30.4,55.6,30.4z M52.1,27.9c0.5,0.4,0.9,0.9,1.2,1.4c0.1-0.2,0.2-0.4,0.3-0.7c0,0,0.1-0.2,0.2-0.4
				C53.9,28.1,54,28,54,28c0,0,0.1,0.1,0.2,0.3c0.1,0.2,0.1,0.3,0.2,0.3c0,0.1,0.1,0.3,0.3,0.7c0.1-0.3,0.3-0.6,0.5-0.8
				c0.2-0.2,0.4-0.4,0.6-0.6c0-0.1-0.3-0.1-0.8-0.3c0.3-1.3,0.5-2.1,0.6-2.4c0.5-1.4,1.3-2.8,2.4-4.1c-1.9,1.3-3.3,3.4-4.3,6.5
				c-0.7,0-1,0-0.9,0C52.4,27.7,52.1,27.8,52.1,27.9z M52.7,31.2c0,0.4,0.1,0.7,0.4,0.9c0.2,0.2,0.6,0.3,0.9,0.3
				c0.3,0,0.6-0.1,0.9-0.4c0.3-0.2,0.4-0.5,0.4-0.9c0-0.4-0.1-0.7-0.4-0.9c-0.3-0.2-0.6-0.4-0.9-0.4c-0.4,0-0.7,0.1-0.9,0.4
				C52.8,30.5,52.7,30.8,52.7,31.2z M49.6,31.2c0,0.1,0.1,0.2,0.2,0.3c0.2,0.1,0.4,0.2,0.7,0.3c0,0.4,0,0.7,0.1,0.9
				c0.1,0.2,0.1,0.4,0.2,0.4c0,0,0.2-0.2,0.5-0.5c0.3-0.3,0.7-0.6,1.1-0.7c-0.2-0.1-0.4-0.2-0.8-0.4c0,0-0.2-0.1-0.6-0.2
				c-0.3-0.1-0.4-0.2-0.4-0.2c0-0.1,0.2-0.2,0.6-0.3c0.6-0.2,1-0.3,1.1-0.3c-0.4-0.1-0.7-0.3-1-0.5c-0.1-0.1-0.4-0.3-0.6-0.6
				c-0.1,0-0.1,0.1-0.2,0.3c0,0.1,0,0.4,0,0.8C49.9,30.9,49.6,31.1,49.6,31.2z"/>
		</g>
	</g>
	<rect class="st1" width="282.6" height="55"/>
</g>
</svg>
