<?xml version="1.0" encoding="utf-8"?>
<!-- Generator: Adobe Illustrator 19.2.0, SVG Export Plug-In . SVG Version: 6.00 Build 0)  -->
<svg version="1.1" id="Layer_1" xmlns="http://www.w3.org/2000/svg" xmlns:xlink="http://www.w3.org/1999/xlink" x="0px" y="0px"
	 viewBox="0 0 435.7 55" style="enable-background:new 0 0 435.7 55;" xml:space="preserve">
<style type="text/css">
	.st0{fill:#BA0017;}
	.st1{fill:none;}
</style>
<g>
	<g>
		<g>
			<path d="M144.1,21.3c-0.4,0.2-0.8,0.3-1.2,0.5s-0.8,0.4-1.3,0.5s-0.8,0.3-1.1,0.5c-0.3,0.2-0.6,0.3-0.8,0.4c-0.1,0-0.1,0-0.1,0
				c0,0,0-0.1,0-0.1c0-0.1,0.1-0.1,0.1-0.2c0.1-0.1,0.1-0.2,0.2-0.3s0.1-0.2,0.2-0.3c0.1-0.1,0.1-0.2,0.1-0.2
				c0.1-0.1,0.1-0.2,0.2-0.2l4.3-1.8c0.1-0.1,0.1,0,0.1,0.1c0,0.1-0.1,0.1-0.1,0.2s-0.1,0.2-0.1,0.3s-0.1,0.2-0.1,0.3
				s-0.1,0.2-0.1,0.2C144.2,21.2,144.2,21.2,144.1,21.3z"/>
			<path d="M145.3,41.8c-0.8,0.3-1.5,0.5-2.2,0.8s-1.4,0.5-2.1,0.8c-0.1,0.1-0.1,0-0.1-0.1c0.1-0.1,0.1-0.3,0.2-0.5s0.2-0.3,0.2-0.4
				c0-0.1,0.1-0.1,0.2-0.2c0.2-0.1,0.4-0.2,0.8-0.3s0.7-0.3,1.1-0.4c0.4-0.1,0.8-0.3,1.2-0.4c0.4-0.2,0.9-0.3,1.3-0.4
				c0.1,0,0.1,0,0.1,0.1c0,0.1-0.1,0.1-0.1,0.2s-0.1,0.2-0.1,0.3s-0.1,0.2-0.1,0.2c0,0.1-0.1,0.1-0.1,0.2
				C145.5,41.7,145.4,41.7,145.3,41.8C145.4,41.8,145.4,41.8,145.3,41.8z"/>
			<path d="M145.3,30.9c0.1-0.3,0.2-0.6,0.2-0.9c0.1-0.3,0.2-0.5,0.3-0.8c0-0.1,0.1-0.1,0.1-0.1c0,0,0.1,0,0.1,0.1
				c0.2,0.2,0.3,0.5,0.5,0.8s0.3,0.5,0.5,0.8c0.1,0.1,0.2,0.1,0.3,0.2c0.1,0,0.3,0.1,0.4,0.1s0.3,0,0.4,0c0.1,0,0.2,0,0.3,0h0.2
				c0.2,0,0.4,0.1,0.5,0.3s0.2,0.4,0.2,0.6c0,0.2-0.1,0.4-0.2,0.6s-0.3,0.3-0.5,0.3h-0.2c-0.4,0-0.8,0-1.1-0.1
				c0,0.4,0.1,0.9,0.1,1.3s0,0.9-0.1,1.4c-0.1,0.8-0.4,1.4-0.8,1.9s-0.9,1-1.5,1.3c-0.6,0.3-1.3,0.6-2,0.8c-0.7,0.2-1.4,0.2-2.1,0.2
				c-0.6,0-1.2-0.1-1.7-0.3s-1-0.5-1.4-0.8c-0.4-0.4-0.7-0.8-0.9-1.3s-0.3-1.1-0.3-1.7c0-0.7,0.1-1.4,0.3-2s0.5-1.3,0.9-1.9
				c0-0.1,0.1-0.1,0.1-0.1c0,0,0.1,0,0.1,0.1c0,0,0,0.1,0,0.1c0,0,0,0.1,0,0.1c-0.4,0.7-0.6,1.4-0.7,2.1s0,1.4,0.2,1.9
				c0.1,0.3,0.3,0.6,0.5,0.8c0.2,0.2,0.4,0.4,0.7,0.6s0.6,0.3,1,0.4s0.8,0.1,1.2,0.1c0.5,0,1,0,1.6-0.1c0.5-0.1,1-0.2,1.5-0.4
				c0.5-0.2,0.9-0.4,1.4-0.7c0.4-0.3,0.8-0.7,1.2-1.1c0-0.4,0-0.7-0.1-1.1s-0.2-0.8-0.3-1.2c-0.1-0.4-0.3-0.8-0.4-1.2
				C145.6,31.6,145.5,31.2,145.3,30.9z M143,26l1.4,1.1c0.1,0.1,0.1,0.1,0,0.2l-0.9,1.2c-0.1,0.1-0.1,0.1-0.2,0l-1.4-1.1
				c-0.1-0.1-0.1-0.1,0-0.2l0.9-1.1C142.9,26,142.9,26,143,26z"/>
			<path d="M151.1,26.7C151.1,26.6,151.2,26.6,151.1,26.7c0.1-0.1,0.2-0.1,0.3,0c0.2,0.2,0.4,0.4,0.6,0.7c0.2,0.2,0.3,0.5,0.5,0.8
				s0.2,0.5,0.3,0.8c0.1,0.3,0.1,0.6,0.1,0.9c0,0.1,0,0.3,0,0.4s0,0.3-0.1,0.5c0,0.2-0.1,0.3-0.1,0.5c0,0.1-0.1,0.3-0.2,0.4
				c-0.2,0.3-0.4,0.5-0.7,0.7c-0.3,0.2-0.7,0.3-1.1,0.4s-0.8,0.1-1.2,0.2c-0.4,0-0.7,0-1.1,0h-0.2c-0.2,0-0.4-0.1-0.5-0.3
				s-0.2-0.4-0.2-0.6c0-0.2,0.1-0.4,0.2-0.6s0.3-0.3,0.5-0.3h0.2c0.2,0,0.4,0,0.7,0c0.3,0,0.6,0,1,0c0.3,0,0.7-0.1,1-0.1
				c0.3-0.1,0.6-0.1,0.8-0.3c0.1-0.1,0.2-0.2,0.1-0.3c-0.1-0.4-0.3-0.8-0.6-1.1s-0.5-0.6-0.8-0.9c0.1-0.3,0.1-0.5,0.2-0.8
				S151,27,151.1,26.7z M152.5,37.2C152.4,37.2,152.4,37.2,152.5,37.2c-0.1,0.1-0.1,0.1-0.2,0l-1.3-1l-0.8,1.2
				c-0.1,0.1-0.1,0.1-0.2,0l-1.4-1.1c0,0-0.1-0.1,0-0.1l0.9-1.3c0,0,0.1-0.1,0.1-0.1s0,0,0.1,0l1.3,1l0.9-1.2c0-0.1,0.1-0.1,0.1,0
				l1.4,1.2c0,0,0,0.1,0,0.2L152.5,37.2z"/>
			<path d="M161.3,15.8c-0.4,0.2-0.8,0.3-1.2,0.5s-0.8,0.4-1.3,0.5c-0.4,0.2-0.8,0.3-1.1,0.5c-0.3,0.2-0.6,0.3-0.8,0.4
				c-0.1,0-0.1,0-0.1,0s0-0.1,0-0.1c0-0.1,0.1-0.1,0.1-0.2c0.1-0.1,0.1-0.2,0.2-0.3c0.1-0.1,0.1-0.2,0.2-0.3
				c0.1-0.1,0.1-0.2,0.1-0.2c0.1-0.1,0.1-0.2,0.2-0.2l4.3-1.8c0.1-0.1,0.1,0,0.1,0.1c0,0.1-0.1,0.1-0.1,0.2c0,0.1-0.1,0.2-0.1,0.3
				s-0.1,0.2-0.1,0.3s-0.1,0.2-0.1,0.2C161.5,15.6,161.4,15.7,161.3,15.8z M159.1,20c-0.2,0.3-0.3,0.6-0.5,0.7
				c-0.2,0.2-0.5,0.3-0.8,0.3c-0.3,0-0.5,0-0.7-0.1c-0.2-0.1-0.3-0.4-0.3-0.7c0-0.2,0-0.3,0-0.5c0-0.2,0.1-0.3,0.1-0.5
				c0.1-0.1,0.1-0.3,0.2-0.4c0.1-0.1,0.2-0.2,0.2-0.2c0.1,0,0.1,0,0,0.2c0,0.1-0.1,0.2-0.1,0.3c0,0.1,0,0.2,0,0.3c0,0.1,0,0.2,0,0.3
				s0.1,0.1,0.1,0.2c0.1,0.1,0.2,0.1,0.3,0.1s0.3,0,0.4-0.1c0.1-0.1,0.3-0.1,0.4-0.2c0.1-0.1,0.2-0.2,0.3-0.3
				c0.1-0.1,0.1-0.2,0.2-0.4c0-0.1,0.1-0.3,0.1-0.4c0,0,0-0.1,0-0.2c0-0.1,0-0.1,0-0.2c0-0.1,0-0.1,0.1-0.1c0,0,0.1-0.1,0.1-0.1
				c0,0,0.1,0,0.1,0.1c0,0,0,0.1,0,0.1s0,0.1,0,0.2s0,0.1,0,0.1c0,0.2,0,0.4,0.1,0.5c0.1,0.1,0.2,0.2,0.4,0.2c0.1,0,0.3,0,0.4,0
				s0.3-0.1,0.4-0.2c0,0,0-0.1,0-0.1c0-0.1,0-0.1,0-0.2c0-0.1,0-0.1-0.1-0.2s0-0.1,0-0.1c0,0,0-0.1,0-0.2s0.1-0.2,0.1-0.3
				c0-0.1,0.1-0.2,0.1-0.3c0-0.1,0.1-0.1,0.1-0.1c0.1,0,0.1,0.1,0.2,0.2s0.1,0.3,0.1,0.4c0,0.2,0,0.3,0,0.5c0,0.2,0,0.3-0.1,0.5
				c0,0.1-0.1,0.3-0.1,0.4c-0.1,0.1-0.1,0.3-0.2,0.4c-0.1,0.1-0.2,0.2-0.3,0.3c-0.1,0.1-0.2,0.1-0.4,0.2c-0.3,0.1-0.5,0.1-0.7,0
				S159.3,20.1,159.1,20z"/>
			<path d="M159.9,25.5c0.1-0.3,0.1-0.5,0.2-0.7c0.1-0.2,0.1-0.4,0.2-0.6c0-0.1,0.1-0.1,0.1-0.1s0.1,0,0.1,0.1
				c0,0.1,0.1,0.2,0.1,0.3s0.1,0.3,0.1,0.5c0,0.2,0.1,0.3,0.1,0.5c0,0.2,0.1,0.3,0.1,0.5c0.2,0.6,0.3,1.1,0.5,1.7
				c0.2,0.6,0.4,1.1,0.6,1.5c0.3,0.6,0.7,1.1,1.1,1.4s1.1,0.5,1.8,0.5h0.2c0.2,0,0.4,0.1,0.5,0.3c0.1,0.2,0.2,0.4,0.2,0.6
				c0,0.2-0.1,0.4-0.2,0.6c-0.1,0.2-0.3,0.3-0.5,0.3H165c-0.4,0-0.8,0-1.2-0.1c-0.4-0.1-0.7-0.2-1-0.4c-0.3-0.2-0.6-0.5-0.8-0.9
				c-0.3-0.4-0.5-0.8-0.7-1.4c-0.1,0.5-0.4,0.9-0.7,1.2c-0.3,0.3-0.7,0.6-1.1,0.8c-0.2,0.1-0.5,0.2-0.9,0.3s-0.8,0.2-1.2,0.2
				s-0.8,0-1.2,0s-0.6-0.2-0.8-0.3c-0.1-0.1-0.2-0.2-0.2-0.4s-0.1-0.4-0.1-0.6c0-0.2,0-0.4,0-0.6c0-0.2,0.1-0.4,0.1-0.5
				c0-0.1,0.1-0.1,0.1-0.1c0,0,0.1,0,0.1,0.1c0.1,0.2,0.3,0.4,0.5,0.5s0.4,0.1,0.6,0.2c0.2,0,0.5,0,0.8,0c0.3,0,0.6-0.1,0.9-0.1
				c0.3-0.1,0.6-0.1,0.9-0.2s0.6-0.2,0.8-0.3c0.3-0.1,0.5-0.3,0.7-0.4c0.2-0.2,0.3-0.3,0.4-0.5c-0.2-0.6-0.4-1.3-0.5-1.9
				S160.1,26.2,159.9,25.5z"/>
			<path d="M173.4,17.2c-0.4,0.2-0.8,0.3-1.2,0.5s-0.8,0.4-1.3,0.5c-0.4,0.2-0.8,0.3-1.1,0.5c-0.3,0.2-0.6,0.3-0.8,0.4
				c-0.1,0-0.1,0-0.1,0c0,0,0-0.1,0-0.1c0-0.1,0.1-0.1,0.1-0.2c0.1-0.1,0.1-0.2,0.2-0.3c0.1-0.1,0.1-0.2,0.2-0.3
				c0.1-0.1,0.1-0.2,0.1-0.2c0.1-0.1,0.1-0.2,0.2-0.2l4.3-1.8c0.1-0.1,0.1,0,0.1,0.1c0,0.1-0.1,0.1-0.1,0.2s-0.1,0.2-0.1,0.3
				c0,0.1-0.1,0.2-0.1,0.3s-0.1,0.2-0.1,0.2C173.5,17,173.5,17.1,173.4,17.2z M171.2,21.4c-0.2,0.3-0.3,0.6-0.5,0.7
				c-0.2,0.2-0.5,0.3-0.8,0.3c-0.3,0-0.5,0-0.7-0.1s-0.3-0.4-0.3-0.7c0-0.2,0-0.3,0-0.5s0.1-0.3,0.1-0.5c0.1-0.1,0.1-0.3,0.2-0.4
				c0.1-0.1,0.2-0.2,0.2-0.2c0.1,0,0.1,0,0,0.2c0,0.1-0.1,0.2-0.1,0.3c0,0.1,0,0.2,0,0.3c0,0.1,0,0.2,0,0.3s0.1,0.2,0.1,0.2
				c0.1,0.1,0.2,0.1,0.3,0.1c0.1,0,0.3,0,0.4-0.1c0.1-0.1,0.3-0.1,0.4-0.2c0.1-0.1,0.2-0.2,0.3-0.3c0.1-0.1,0.1-0.2,0.2-0.4
				c0-0.1,0.1-0.3,0.1-0.4c0,0,0-0.1,0-0.2c0-0.1,0-0.1,0-0.2s0-0.1,0.1-0.1s0.1-0.1,0.1-0.1c0,0,0.1,0,0.1,0.1c0,0,0,0.1,0,0.1
				c0,0.1,0,0.1,0,0.2c0,0.1,0,0.1,0,0.1c0,0.2,0,0.4,0.1,0.5c0.1,0.1,0.2,0.2,0.4,0.2c0.1,0,0.3,0,0.4,0s0.3-0.1,0.4-0.2
				c0,0,0-0.1,0-0.1s0-0.1,0-0.2c0-0.1,0-0.1-0.1-0.2c0-0.1,0-0.1,0-0.1c0,0,0-0.1,0-0.2s0.1-0.2,0.1-0.3c0-0.1,0.1-0.2,0.1-0.3
				s0.1-0.1,0.1-0.1c0.1,0,0.1,0.1,0.2,0.2c0,0.1,0.1,0.3,0.1,0.4c0,0.2,0,0.3,0,0.5c0,0.2,0,0.3-0.1,0.5c0,0.1-0.1,0.3-0.1,0.4
				c-0.1,0.1-0.1,0.3-0.2,0.4c-0.1,0.1-0.2,0.2-0.3,0.3c-0.1,0.1-0.2,0.1-0.4,0.2c-0.3,0.1-0.5,0.1-0.7,0
				C171.5,21.7,171.3,21.5,171.2,21.4z"/>
			<path d="M172.8,29c0.1-0.2,0.2-0.2,0.3-0.2c0.1,0,0.1,0.1,0.1,0.3c0,0.1-0.1,0.3-0.2,0.5c-0.1,0.2-0.1,0.4-0.2,0.6
				c0.1,0.1,0.2,0.3,0.3,0.4s0.4,0.2,0.6,0.3c0.2,0.1,0.5,0.1,0.7,0.2c0.2,0,0.4,0,0.6,0c0.1-0.1,0.2-0.1,0.3-0.3s0.2-0.3,0.3-0.4
				c0.1-0.2,0.2-0.4,0.2-0.6c0.1-0.2,0.1-0.4,0.2-0.6c0.1-0.2,0.1-0.4,0.2-0.4s0.2,0,0.2,0.3c0,0.4,0.1,0.7,0.2,1
				c0.1,0.3,0.3,0.5,0.5,0.7c0.2,0.2,0.5,0.3,0.8,0.4c0.3,0.1,0.7,0.1,1.2,0.1h0.2c0.2,0,0.4,0.1,0.5,0.3s0.2,0.4,0.2,0.6
				c0,0.2-0.1,0.4-0.2,0.6s-0.3,0.3-0.5,0.3h-0.2c-0.5,0-1-0.1-1.3-0.2c-0.4-0.1-0.7-0.2-0.9-0.4c-0.3-0.2-0.5-0.3-0.6-0.5
				s-0.3-0.4-0.4-0.6c-0.1,0.1-0.1,0.3-0.2,0.4c-0.1,0.2-0.2,0.3-0.3,0.5c-0.1,0.2-0.2,0.3-0.4,0.4c-0.1,0.1-0.3,0.2-0.4,0.2
				c-0.2,0-0.4,0-0.7-0.1s-0.5-0.1-0.7-0.2c-0.3-0.1-0.5-0.2-0.7-0.4c-0.2-0.1-0.4-0.3-0.6-0.5c-0.3,0.3-0.6,0.6-0.9,0.8
				c-0.3,0.2-0.7,0.3-1,0.4c-0.4,0.1-0.8,0.1-1.2,0c-0.4-0.1-0.8-0.2-1.3-0.4c-0.2,0.1-0.4,0.3-0.6,0.3c-0.2,0.1-0.5,0.2-0.7,0.2
				s-0.4,0.1-0.7,0.1c-0.2,0-0.4,0-0.6,0h-0.2c-0.2,0-0.4-0.1-0.5-0.3c-0.1-0.2-0.2-0.4-0.2-0.6c0-0.2,0.1-0.4,0.2-0.6
				c0.1-0.2,0.3-0.3,0.5-0.3h0.2c0.4,0,0.9,0,1.2,0c0.4,0,0.7-0.1,1.1-0.2c0.3-0.1,0.6-0.3,0.9-0.6c0.3-0.2,0.6-0.6,0.8-1
				c0.1-0.2,0.2-0.2,0.2-0.2c0.1,0,0.1,0.1,0.1,0.3c0,0.3-0.1,0.6-0.3,0.9c-0.1,0.3-0.3,0.6-0.4,0.8c0.1,0,0.3,0.1,0.5,0.1
				s0.4,0,0.6,0c0.2,0,0.5,0,0.7-0.1c0.2-0.1,0.5-0.1,0.7-0.2c0.3-0.1,0.6-0.4,0.8-0.6C172.3,29.8,172.5,29.4,172.8,29z"/>
			<path d="M180.1,17.6c0-0.1,0.1-0.1,0.1-0.1c0,0,0.1,0,0.1,0.1c0.1,0.2,0.1,0.4,0.2,0.6c0.1,0.2,0.2,0.4,0.3,0.5
				c0.1,0.2,0.2,0.3,0.4,0.5s0.3,0.3,0.5,0.4c-0.1,0.2-0.2,0.3-0.3,0.5c-0.1,0.1-0.1,0.3-0.2,0.4s-0.1,0.2-0.1,0.3
				c0,0.1,0,0.2,0,0.3c0.1,0.7,0.2,1.4,0.3,2.2s0.2,1.4,0.3,2.2c0.1,0.7,0.2,1.4,0.3,2.2s0.1,1.4,0.2,2.2c0,0.2,0,0.5,0,0.7
				s-0.1,0.5-0.2,0.7s-0.2,0.4-0.3,0.6c-0.1,0.2-0.3,0.4-0.4,0.5c-0.2,0.2-0.5,0.3-0.8,0.4c-0.3,0.1-0.7,0.1-1.2,0.1h-0.2
				c-0.2,0-0.4-0.1-0.5-0.3c-0.1-0.2-0.2-0.4-0.2-0.6c0-0.2,0.1-0.4,0.2-0.6c0.1-0.2,0.3-0.3,0.5-0.3h0.2c0.2,0,0.5,0,0.7,0
				c0.2,0,0.4-0.1,0.6-0.1c0.2,0,0.4-0.1,0.5-0.2c0.1-0.1,0.2-0.2,0.3-0.3c-0.1-1.6-0.3-3.1-0.6-4.7c-0.2-1.5-0.5-3.1-0.7-4.6
				c0-0.3-0.1-0.6-0.1-0.9c0-0.3-0.2-0.6-0.3-0.9c-0.1-0.1-0.1-0.1-0.1-0.2c0,0,0-0.1,0.1-0.2c0.1-0.2,0.2-0.4,0.4-0.7
				S180,17.8,180.1,17.6z"/>
			<path d="M185.3,18.2c0.1,0,0.1,0,0.1,0.1c0,0,0,0.1,0,0.1c0,0,0,0.1,0,0.1s0,0.1,0,0.1c0,0.3,0,0.6,0,0.8s0.1,0.5,0.1,0.8
				c0.1,0.7,0.2,1.4,0.3,2.1c0.1,0.7,0.2,1.4,0.3,2.1s0.2,1.4,0.3,2.1c0.1,0.7,0.2,1.4,0.3,2.1c0,0.3,0,0.6,0.1,0.9
				c0,0.4,0,0.7,0,1.1c0,0.4-0.1,0.7-0.1,1c-0.1,0.3-0.1,0.6-0.2,0.9c0,0.1-0.1,0.2-0.2,0.2c-0.1,0-0.1,0-0.1-0.1
				c-0.1-1.3-0.2-2.6-0.4-4c-0.2-1.4-0.4-2.8-0.6-4.2c-0.2-1.4-0.4-2.8-0.5-4.2c0-0.3,0.1-0.7,0.3-1.1c0.1-0.2,0.2-0.4,0.2-0.6
				C185.2,18.5,185.3,18.4,185.3,18.2z"/>
			<path class="st0" d="M200.8,20.2c-0.4,0.2-0.8,0.3-1.2,0.5s-0.8,0.4-1.3,0.5c-0.4,0.2-0.8,0.3-1.1,0.5c-0.3,0.2-0.6,0.3-0.8,0.4
				c-0.1,0-0.1,0-0.1,0c0,0,0-0.1,0-0.1c0-0.1,0.1-0.1,0.1-0.2c0.1-0.1,0.1-0.2,0.2-0.3s0.1-0.2,0.2-0.3c0.1-0.1,0.1-0.2,0.1-0.2
				c0.1-0.1,0.1-0.2,0.2-0.2l4.3-1.8c0.1-0.1,0.1,0,0.1,0.1c0,0.1-0.1,0.1-0.1,0.2s-0.1,0.2-0.1,0.3s-0.1,0.2-0.1,0.3
				S201,19.9,201,20C201,20.1,200.9,20.1,200.8,20.2z"/>
			<path class="st0" d="M202.4,26.9c0-0.1,0.1-0.1,0.1-0.1c0,0,0.1,0,0.1,0.1c0.1,0.1,0.2,0.3,0.3,0.4s0.2,0.3,0.3,0.4
				c0.1,0.1,0.2,0.2,0.3,0.3s0.2,0.1,0.3,0.1c0.3,0,0.7,0,1-0.1c0.3-0.1,0.6-0.2,0.9-0.4s0.5-0.4,0.7-0.7c0.2-0.3,0.4-0.6,0.5-1
				c0-0.2,0.1-0.3,0.2-0.3c0.1,0,0.1,0.1,0.2,0.2c0.1,0.7,0.1,1.4,0.2,2c0.1,0.6,0.2,1.2,0.4,1.7c0.2,0.5,0.5,0.8,0.8,1.1
				c0.4,0.3,0.9,0.4,1.5,0.4h0.2c0.2,0,0.4,0.1,0.5,0.3s0.2,0.4,0.2,0.6c0,0.2-0.1,0.4-0.2,0.6s-0.3,0.3-0.5,0.3h-0.2
				c-0.6,0-1.1-0.1-1.5-0.4c-0.4-0.2-0.8-0.6-1-1s-0.5-0.9-0.6-1.5s-0.2-1.2-0.3-1.8c-0.1,0.2-0.3,0.4-0.5,0.6
				c-0.2,0.2-0.4,0.4-0.6,0.5s-0.5,0.3-0.7,0.4c-0.3,0.1-0.5,0.2-0.8,0.2c0.1,0.4,0.1,0.8,0.1,1.3c0,0.5,0,0.9-0.1,1.4
				c-0.1,0.5-0.2,1-0.4,1.4s-0.5,0.8-0.8,1.1s-0.7,0.6-1.1,0.8s-0.8,0.4-1.3,0.6c-0.4,0.1-0.9,0.3-1.4,0.3c-0.5,0.1-0.9,0.1-1.4,0.1
				c-0.6,0-1.2-0.1-1.7-0.3c-0.5-0.2-1-0.5-1.4-0.8s-0.7-0.8-0.9-1.3c-0.2-0.5-0.3-1.1-0.3-1.7c0-0.7,0.1-1.4,0.3-2s0.5-1.2,0.9-1.8
				c0-0.1,0.1-0.1,0.1-0.1c0,0,0.1,0,0.1,0.1c0,0,0,0.1,0,0.1s0,0.1,0,0.1c-0.4,0.7-0.6,1.4-0.7,2.1s0,1.3,0.2,1.9
				c0.1,0.3,0.3,0.6,0.5,0.8c0.2,0.2,0.4,0.5,0.7,0.6c0.3,0.2,0.6,0.3,1,0.4c0.4,0.1,0.8,0.1,1.3,0.1c0.5,0,1,0,1.6-0.1
				c0.5-0.1,1-0.2,1.5-0.4s1-0.4,1.4-0.7c0.4-0.3,0.8-0.7,1.1-1.1c0-0.3,0-0.7-0.1-1.1c-0.1-0.4-0.2-0.7-0.3-1.1
				c-0.1-0.4-0.3-0.7-0.5-1.1s-0.4-0.7-0.6-1c0-0.2,0.1-0.3,0.1-0.4c0-0.1,0.1-0.3,0.1-0.4c0-0.1,0.1-0.2,0.1-0.4
				C202.3,27.1,202.4,27,202.4,26.9z M199.4,23.8l1.4,1.1c0.1,0.1,0.1,0.1,0,0.2l-0.9,1.2c-0.1,0.1-0.1,0.1-0.2,0l-1.4-1.1
				c-0.1-0.1-0.1-0.1,0-0.2l0.9-1.1C199.3,23.7,199.3,23.7,199.4,23.8z M208.6,36.7C208.5,36.7,208.5,36.7,208.6,36.7
				c-0.1,0.1-0.2,0.1-0.2,0l-1.3-1l-0.9,1.2c-0.1,0.1-0.1,0.1-0.2,0l-1.4-1.1c-0.1,0-0.1-0.1,0-0.1l0.9-1.3c0,0,0.1-0.1,0.1-0.1
				s0,0,0.1,0l1.3,1l0.9-1.2c0-0.1,0.1-0.1,0.1,0l1.4,1.2c0.1,0,0.1,0.1,0,0.2L208.6,36.7z"/>
			<path class="st0" d="M214.3,20.5c-0.4,0.2-0.8,0.3-1.2,0.5s-0.8,0.4-1.3,0.5s-0.8,0.3-1.1,0.5c-0.3,0.2-0.6,0.3-0.8,0.4
				c-0.1,0-0.1,0-0.1,0c0,0,0-0.1,0-0.1c0-0.1,0.1-0.1,0.1-0.2c0.1-0.1,0.1-0.2,0.2-0.3c0.1-0.1,0.1-0.2,0.2-0.3
				c0.1-0.1,0.1-0.2,0.1-0.2c0.1-0.1,0.1-0.2,0.2-0.2l4.3-1.8c0.1-0.1,0.1,0,0.1,0.1c0,0.1-0.1,0.1-0.1,0.2c0,0.1-0.1,0.2-0.1,0.3
				c0,0.1-0.1,0.2-0.1,0.3s-0.1,0.2-0.1,0.2C214.5,20.3,214.4,20.4,214.3,20.5z"/>
			<path class="st0" d="M212.9,26.7C212.9,26.6,212.9,26.6,212.9,26.7c0.1-0.1,0.2-0.1,0.3,0c0.2,0.2,0.4,0.4,0.6,0.7
				c0.2,0.2,0.3,0.5,0.5,0.8s0.2,0.5,0.3,0.8c0.1,0.3,0.1,0.6,0.1,0.9c0,0.1,0,0.3,0,0.4s0,0.3-0.1,0.5c0,0.2-0.1,0.3-0.1,0.5
				c0,0.1-0.1,0.3-0.2,0.4c-0.2,0.3-0.4,0.5-0.7,0.7c-0.3,0.2-0.7,0.3-1.1,0.4s-0.8,0.1-1.2,0.2c-0.4,0-0.7,0-1.1,0H210
				c-0.2,0-0.4-0.1-0.5-0.3s-0.2-0.4-0.2-0.6c0-0.2,0.1-0.4,0.2-0.6s0.3-0.3,0.5-0.3h0.2c0.2,0,0.4,0,0.7,0c0.3,0,0.6,0,1,0
				c0.3,0,0.7-0.1,1-0.1c0.3-0.1,0.6-0.1,0.8-0.3c0.1-0.1,0.2-0.2,0.1-0.3c-0.1-0.4-0.3-0.8-0.6-1.1s-0.5-0.6-0.8-0.9
				c0.1-0.3,0.1-0.5,0.2-0.8S212.8,27,212.9,26.7z M211.9,35.1l1.4,1.1c0.1,0.1,0.1,0.1,0,0.2l-0.9,1.2c-0.1,0.1-0.1,0.1-0.2,0
				l-1.4-1.1c-0.1-0.1-0.1-0.1,0-0.2l0.9-1.1C211.8,35,211.9,35,211.9,35.1z"/>
			<path d="M227.1,18.8c-0.4,0.2-0.8,0.3-1.2,0.5s-0.8,0.4-1.3,0.5c-0.4,0.2-0.8,0.3-1.1,0.5c-0.3,0.2-0.6,0.3-0.8,0.4
				c-0.1,0-0.1,0-0.1,0c0,0,0-0.1,0-0.1c0-0.1,0.1-0.1,0.1-0.2c0.1-0.1,0.1-0.2,0.2-0.3c0.1-0.1,0.1-0.2,0.2-0.3
				c0.1-0.1,0.1-0.2,0.1-0.2c0.1-0.1,0.1-0.2,0.2-0.2l4.3-1.8c0.1-0.1,0.1,0,0.1,0.1c0,0.1-0.1,0.1-0.1,0.2s-0.1,0.2-0.1,0.3
				c0,0.1-0.1,0.2-0.1,0.3s-0.1,0.2-0.1,0.2C227.2,18.7,227.2,18.7,227.1,18.8z"/>
			<path d="M224.6,29.8c-0.1-0.1-0.2-0.2-0.4-0.3c-0.2-0.1-0.3-0.2-0.5-0.2c-0.2,0-0.4-0.1-0.6,0c-0.2,0-0.4,0.1-0.5,0.2
				c-0.1,0.1-0.1,0.1-0.2,0c-0.1,0-0.1-0.1-0.1-0.2c0-0.1,0.1-0.3,0.1-0.4s0.1-0.3,0.2-0.5c0.1-0.2,0.2-0.3,0.3-0.5
				c0.1-0.2,0.2-0.3,0.4-0.4c0.3-0.3,0.7-0.5,1.1-0.6c0.4-0.1,0.8-0.2,1.2-0.2c0.3,0,0.6,0,1,0.1c0.3,0.1,0.6,0.2,0.9,0.3
				c0.3,0.2,0.5,0.3,0.6,0.5c0.2,0.2,0.3,0.5,0.3,0.7c0,0.3-0.1,0.6-0.3,0.9c-0.2,0.3-0.4,0.5-0.8,0.8c0.1,0.2,0.3,0.4,0.5,0.5
				c0.2,0.1,0.4,0.2,0.7,0.3s0.5,0.1,0.8,0.2c0.3,0,0.5,0,0.8,0h0.2c0.2,0,0.4,0.1,0.5,0.3c0.1,0.2,0.2,0.4,0.2,0.6
				c0,0.2-0.1,0.4-0.2,0.6c-0.1,0.2-0.3,0.3-0.5,0.3h-0.2c-0.5,0-0.9,0-1.3-0.1s-0.8-0.2-1.1-0.4c-0.3-0.2-0.7-0.4-1-0.7
				c-0.3-0.3-0.6-0.6-0.9-0.9c-0.6,0.3-1.2,0.7-1.7,1.2c-0.5,0.4-0.9,0.9-1.3,1.5c-0.4,0.5-0.6,1.1-0.8,1.8
				c-0.2,0.6-0.3,1.3-0.3,2.1c0,0.6,0.1,1.2,0.3,1.8c0.2,0.6,0.5,1.1,0.9,1.5c0.4,0.5,0.8,0.8,1.4,1.2c0.5,0.3,1,0.6,1.6,0.7
				c0.3,0.1,0.6,0.2,1,0.2c0.4,0.1,0.7,0.1,1.1,0.1c0.4,0,0.8,0.1,1.2,0.1c0.4,0,0.8,0,1.1,0c0.7,0,1.5-0.1,2.2-0.2
				c0.7-0.1,1.5-0.1,2.2-0.1c0.1,0,0.1,0,0.1,0.1s0,0.1-0.1,0.2c0,0.1-0.1,0.1-0.2,0.2s-0.1,0.1-0.2,0.1c-0.4,0.1-0.9,0.2-1.3,0.4
				c-0.4,0.1-0.8,0.3-1.2,0.4s-0.8,0.3-1.2,0.4c-0.4,0.1-0.8,0.2-1.3,0.2c-0.4,0-0.8,0.1-1.2,0.1s-0.9,0-1.3-0.1s-0.9-0.1-1.4-0.2
				c-0.5-0.1-0.9-0.3-1.4-0.5c-0.5-0.3-1-0.6-1.4-1c-0.4-0.4-0.8-0.9-1.1-1.4c-0.3-0.5-0.5-1.1-0.7-1.7c-0.2-0.6-0.2-1.2-0.2-1.8
				c0-0.7,0.1-1.5,0.3-2.3s0.4-1.5,0.8-2.2c0.3-0.7,0.7-1.3,1.2-1.9C223.5,30.7,224,30.2,224.6,29.8z M225.1,21.8l1.4,1.1
				c0.1,0.1,0.1,0.1,0,0.2l-0.9,1.2c-0.1,0.1-0.1,0.1-0.2,0l-1.4-1.1c-0.1-0.1-0.1-0.1,0-0.2l0.9-1.1C225,21.8,225,21.8,225.1,21.8z
				"/>
			<path d="M234.5,15.1c-0.4,0.2-0.8,0.3-1.2,0.5s-0.8,0.4-1.3,0.5c-0.4,0.2-0.8,0.3-1.1,0.5c-0.3,0.2-0.6,0.3-0.8,0.4
				c-0.1,0-0.1,0-0.1,0s0-0.1,0-0.1c0-0.1,0.1-0.1,0.1-0.2c0.1-0.1,0.1-0.2,0.2-0.3c0.1-0.1,0.1-0.2,0.2-0.3
				c0.1-0.1,0.1-0.2,0.1-0.2c0.1-0.1,0.1-0.2,0.2-0.2l4.3-1.8c0.1-0.1,0.1,0,0.1,0.1c0,0.1-0.1,0.1-0.1,0.2c0,0.1-0.1,0.2-0.1,0.3
				s-0.1,0.2-0.1,0.3s-0.1,0.2-0.1,0.2C234.6,15,234.6,15.1,234.5,15.1z"/>
			<path d="M229.9,31.1h0.2c0.4,0,0.9,0,1.3-0.1s0.8-0.2,1.1-0.3c0.3-0.1,0.5-0.3,0.7-0.6s0.3-0.5,0.3-0.9c0-0.2,0-0.4,0-0.8
				c0-0.3-0.1-0.7-0.1-1.1c0-0.4-0.1-0.8-0.2-1.3c-0.1-0.4-0.1-0.8-0.1-1.2l-0.2-1.8l-0.4-3.6c0-0.1,0-0.2,0-0.3
				c0.1-0.2,0.2-0.4,0.3-0.6s0.2-0.4,0.3-0.6c0.1-0.1,0.1-0.1,0.2,0c0,0.1,0,0.3,0.1,0.6c0,0.2,0.1,0.6,0.1,0.9
				c0.2,1.2,0.3,2.3,0.4,3.2c0.1,0.9,0.2,1.7,0.3,2.4c0.1,0.9,0.2,1.7,0.3,2.3s0.2,1.1,0.3,1.5c0.1,0.4,0.2,0.8,0.4,1.1
				c0.1,0.3,0.3,0.5,0.6,0.7s0.5,0.3,0.8,0.4s0.7,0.1,1.2,0.1h0.2c0.2,0,0.4,0.1,0.5,0.3c0.1,0.2,0.2,0.4,0.2,0.6
				c0,0.2-0.1,0.4-0.2,0.6c-0.1,0.2-0.3,0.3-0.5,0.3h-0.2c-0.3,0-0.6,0-1-0.1c-0.3-0.1-0.7-0.2-1-0.4c-0.3-0.2-0.6-0.5-0.9-0.8
				c-0.3-0.4-0.5-0.8-0.6-1.4c-0.2,0.6-0.4,1.1-0.7,1.5c-0.3,0.4-0.6,0.6-1,0.8c-0.4,0.2-0.7,0.3-1.1,0.3c-0.4,0-0.8,0.1-1.1,0.1
				h-0.2c-0.2,0-0.4-0.1-0.5-0.3s-0.2-0.4-0.2-0.6c0-0.2,0.1-0.4,0.2-0.6S229.6,31.1,229.9,31.1z"/>
			<path d="M241.6,20.5c-0.4,0.2-0.8,0.3-1.2,0.5s-0.8,0.4-1.3,0.5s-0.8,0.3-1.1,0.5c-0.3,0.2-0.6,0.3-0.8,0.4c-0.1,0-0.1,0-0.1,0
				c0,0,0-0.1,0-0.1c0-0.1,0.1-0.1,0.1-0.2c0.1-0.1,0.1-0.2,0.2-0.3c0.1-0.1,0.1-0.2,0.2-0.3c0.1-0.1,0.1-0.2,0.1-0.2
				c0.1-0.1,0.1-0.2,0.2-0.2l4.3-1.8c0.1-0.1,0.1,0,0.1,0.1c0,0.1-0.1,0.1-0.1,0.2c0,0.1-0.1,0.2-0.1,0.3c0,0.1-0.1,0.2-0.1,0.3
				s-0.1,0.2-0.1,0.2C241.7,20.3,241.6,20.4,241.6,20.5z"/>
			<path d="M240.1,26.7C240.1,26.6,240.2,26.6,240.1,26.7c0.1-0.1,0.2-0.1,0.3,0c0.2,0.2,0.4,0.4,0.6,0.7c0.2,0.2,0.3,0.5,0.5,0.8
				s0.2,0.5,0.3,0.8c0.1,0.3,0.1,0.6,0.1,0.9c0,0.1,0,0.3,0,0.4s0,0.3-0.1,0.5c0,0.2-0.1,0.3-0.1,0.5c0,0.1-0.1,0.3-0.2,0.4
				c-0.2,0.3-0.4,0.5-0.7,0.7c-0.3,0.2-0.7,0.3-1.1,0.4s-0.8,0.1-1.2,0.2c-0.4,0-0.7,0-1.1,0h-0.2c-0.2,0-0.4-0.1-0.5-0.3
				s-0.2-0.4-0.2-0.6c0-0.2,0.1-0.4,0.2-0.6s0.3-0.3,0.5-0.3h0.2c0.2,0,0.4,0,0.7,0c0.3,0,0.6,0,1,0c0.3,0,0.7-0.1,1-0.1
				c0.3-0.1,0.6-0.1,0.8-0.3c0.1-0.1,0.2-0.2,0.1-0.3c-0.1-0.4-0.3-0.8-0.6-1.1s-0.5-0.6-0.8-0.9c0.1-0.3,0.1-0.5,0.2-0.8
				S240,27,240.1,26.7z M239.2,35.1l1.4,1.1c0.1,0.1,0.1,0.1,0,0.2l-0.9,1.2c-0.1,0.1-0.1,0.1-0.2,0l-1.4-1.1
				c-0.1-0.1-0.1-0.1,0-0.2l0.9-1.1C239.1,35,239.1,35,239.2,35.1z"/>
			<path d="M249.6,18.2c0.1,0,0.1,0,0.1,0.1c0,0,0,0.1,0,0.1c0,0,0,0.1,0,0.1s0,0.1,0,0.1c0,0.3,0,0.6,0,0.8s0.1,0.5,0.1,0.8
				c0.1,0.7,0.2,1.4,0.3,2.1c0.1,0.7,0.2,1.4,0.3,2.1s0.2,1.4,0.3,2.1c0.1,0.7,0.2,1.4,0.3,2.1c0,0.3,0,0.6,0.1,0.9
				c0,0.4,0,0.7,0,1.1c0,0.4-0.1,0.7-0.1,1c-0.1,0.3-0.1,0.6-0.2,0.9c0,0.1-0.1,0.2-0.2,0.2c-0.1,0-0.1,0-0.1-0.1
				c-0.1-1.3-0.2-2.6-0.4-4c-0.2-1.4-0.4-2.8-0.6-4.2c-0.2-1.4-0.4-2.8-0.5-4.2c0-0.3,0.1-0.7,0.3-1.1c0.1-0.2,0.2-0.4,0.2-0.6
				C249.4,18.5,249.5,18.4,249.6,18.2z"/>
			<path d="M257.5,16.7c-0.4,0.2-0.8,0.3-1.2,0.5s-0.8,0.4-1.3,0.5c-0.4,0.2-0.8,0.3-1.1,0.5c-0.3,0.2-0.6,0.3-0.8,0.4
				c-0.1,0-0.1,0-0.1,0s0-0.1,0-0.1c0-0.1,0.1-0.1,0.1-0.2c0.1-0.1,0.1-0.2,0.2-0.3c0.1-0.1,0.1-0.2,0.2-0.3
				c0.1-0.1,0.1-0.2,0.1-0.2c0.1-0.1,0.1-0.2,0.2-0.2l4.3-1.8c0.1-0.1,0.1,0,0.1,0.1c0,0.1-0.1,0.1-0.1,0.2c0,0.1-0.1,0.2-0.1,0.3
				c0,0.1-0.1,0.2-0.1,0.3s-0.1,0.2-0.1,0.2C257.6,16.6,257.6,16.6,257.5,16.7z"/>
			<path d="M255.4,26.1c0-0.2,0-0.5,0-0.7c0-0.2,0-0.5,0.1-0.8c0-0.1,0.1-0.2,0.2-0.2s0.2,0,0.3,0c0.5,0.1,1,0.4,1.4,0.8
				s0.9,0.8,1.2,1.3c0.3,0.5,0.6,1,0.9,1.5c0.2,0.5,0.4,1,0.4,1.5c0,0.2,0,0.4,0,0.6s-0.1,0.5-0.1,0.7s-0.1,0.4-0.2,0.6
				s-0.2,0.3-0.3,0.4c-0.3,0.2-0.6,0.4-1,0.5c-0.4,0.1-0.8,0.3-1.2,0.3s-0.9,0.2-1.3,0.2s-0.9,0.1-1.2,0.1c-0.1,0-0.2,0-0.3,0
				s-0.3,0-0.4-0.1c-0.1,0-0.2-0.1-0.3-0.2s-0.1-0.2-0.1-0.3c0,0,0-0.2,0-0.3c0-0.2,0-0.4,0-0.5c0-0.2,0-0.4,0.1-0.5
				c0-0.2,0.1-0.2,0.1-0.2c0,0,0,0,0.1,0c0,0,0,0.1,0.1,0.1c0.1,0.1,0.3,0.2,0.5,0.2c0.2,0,0.4,0.1,0.6,0.1c0.2,0,0.4,0,0.6,0
				c0.2,0,0.4,0,0.5,0c0.3,0,0.5,0,0.8-0.1c0.3,0,0.6-0.1,0.8-0.2s0.5-0.1,0.8-0.2c0.2-0.1,0.4-0.2,0.6-0.3c0.1,0,0.1-0.1,0.2-0.1
				c0.1-0.1,0.1-0.1,0.1-0.2c-0.1-0.4-0.2-0.8-0.5-1.2c-0.2-0.4-0.5-0.8-0.9-1.2c-0.3-0.4-0.7-0.7-1.2-1
				C256.2,26.4,255.8,26.2,255.4,26.1z M255,19.7l1.4,1.1c0.1,0.1,0.1,0.1,0,0.2l-0.9,1.2c-0.1,0.1-0.1,0.1-0.2,0l-1.4-1.1
				c-0.1-0.1-0.1-0.1,0-0.2l0.9-1.1C254.9,19.6,255,19.6,255,19.7z"/>
			<path d="M261.3,35.9c0,0,0.1-0.1,0.2-0.1c0.1,0,0.2-0.1,0.2-0.1c0.1,0,0.2-0.1,0.2-0.1s0.2-0.1,0.2-0.1c-0.2-0.1-0.3-0.3-0.4-0.4
				c-0.1-0.1-0.2-0.3-0.3-0.5c0-0.1,0-0.2,0-0.3c0-0.1,0.1-0.2,0.1-0.3c0.1-0.2,0.2-0.3,0.4-0.5s0.3-0.3,0.5-0.4s0.4-0.2,0.6-0.3
				s0.4-0.1,0.6-0.1c0.1,0,0.2,0,0.2,0.1c0.1,0,0.1,0.1,0.2,0.2c0.1,0.1,0.1,0.1,0.1,0.2s0.1,0.2,0.1,0.2c0,0.2,0,0.3,0,0.4
				l-0.2,0.3c-0.1,0.1-0.2,0.2-0.3,0.2c-0.1,0-0.1,0-0.1-0.1c0-0.1,0-0.2-0.1-0.3c-0.1-0.1-0.1-0.2-0.2-0.2c-0.1,0-0.2-0.1-0.3-0.1
				c-0.4,0-0.7,0.1-0.9,0.3c0.1,0.2,0.3,0.5,0.5,0.7s0.5,0.3,0.7,0.3c0.4,0,0.7,0,1,0c0.3-0.1,0.7-0.1,1-0.2c0,0,0,0.1,0,0.2
				c0,0.1-0.1,0.2-0.1,0.3c0,0.1-0.1,0.2-0.1,0.3s-0.1,0.1-0.1,0.1c-0.3,0-0.6,0.1-0.9,0.1c-0.3,0.1-0.6,0.1-1,0.2
				c-0.3,0.1-0.7,0.2-1.1,0.4s-0.7,0.3-1,0.4c-0.1,0-0.1,0-0.1-0.1c0-0.1,0.1-0.3,0.1-0.4S261.3,36,261.3,35.9z M262.7,18
				c0,0,0.1,0,0.1,0c0,0,0,0.1,0,0.1s0,0.1,0,0.1s0,0.1,0,0.1c0,0.3,0,0.5,0,0.8c0,0.2,0.1,0.5,0.1,0.7c0.1,0.6,0.2,1.2,0.3,1.9
				s0.2,1.3,0.3,2c0.1,0.7,0.2,1.3,0.3,2s0.2,1.3,0.3,1.9c0,0.2,0,0.5,0.1,0.8c0,0.3,0,0.6,0,1s-0.1,0.6-0.1,1
				c-0.1,0.3-0.1,0.6-0.2,0.8c0,0.1-0.1,0.2-0.2,0.2c0,0-0.1,0-0.1-0.1c-0.1-1.2-0.2-2.4-0.4-3.6c-0.2-1.3-0.4-2.6-0.6-3.8
				c-0.2-1.3-0.4-2.6-0.5-3.8c0-0.3,0.1-0.6,0.3-1c0.1-0.2,0.2-0.4,0.2-0.5C262.6,18.3,262.6,18.1,262.7,18z"/>
			<path d="M284.2,16.9c-0.4,0.2-0.8,0.3-1.2,0.5s-0.8,0.4-1.3,0.5c-0.4,0.2-0.8,0.3-1.1,0.5c-0.3,0.2-0.6,0.3-0.8,0.4
				c-0.1,0-0.1,0-0.1,0s0-0.1,0-0.1c0-0.1,0.1-0.1,0.1-0.2c0.1-0.1,0.1-0.2,0.2-0.3c0.1-0.1,0.1-0.2,0.2-0.3
				c0.1-0.1,0.1-0.2,0.1-0.2c0.1-0.1,0.1-0.2,0.2-0.2l4.3-1.8c0.1-0.1,0.1,0,0.1,0.1c0,0.1-0.1,0.1-0.1,0.2c0,0.1-0.1,0.2-0.1,0.3
				s-0.1,0.2-0.1,0.3s-0.1,0.2-0.1,0.2C284.4,16.8,284.3,16.8,284.2,16.9z M282.1,21.1c-0.2,0.3-0.3,0.6-0.5,0.7
				c-0.2,0.2-0.5,0.3-0.8,0.3c-0.3,0-0.5,0-0.7-0.1c-0.2-0.1-0.3-0.4-0.3-0.7c0-0.2,0-0.3,0-0.5c0-0.2,0.1-0.3,0.1-0.5
				c0.1-0.1,0.1-0.3,0.2-0.4c0.1-0.1,0.2-0.2,0.2-0.2c0.1,0,0.1,0,0,0.2c0,0.1-0.1,0.2-0.1,0.3c0,0.1,0,0.2,0,0.3c0,0.1,0,0.2,0,0.3
				s0.1,0.1,0.1,0.2c0.1,0.1,0.2,0.1,0.3,0.1s0.3,0,0.4-0.1c0.1-0.1,0.3-0.1,0.4-0.2c0.1-0.1,0.2-0.2,0.3-0.3
				c0.1-0.1,0.1-0.2,0.2-0.4c0-0.1,0.1-0.3,0.1-0.4c0,0,0-0.1,0-0.2c0-0.1,0-0.1,0-0.2c0-0.1,0-0.1,0.1-0.1c0,0,0.1-0.1,0.1-0.1
				c0,0,0.1,0,0.1,0.1c0,0,0,0.1,0,0.1s0,0.1,0,0.2s0,0.1,0,0.1c0,0.2,0,0.4,0.1,0.5c0.1,0.1,0.2,0.2,0.4,0.2c0.1,0,0.3,0,0.4,0
				s0.3-0.1,0.4-0.2c0,0,0-0.1,0-0.1c0-0.1,0-0.1,0-0.2c0-0.1,0-0.1-0.1-0.2s0-0.1,0-0.1c0,0,0-0.1,0-0.2s0.1-0.2,0.1-0.3
				c0-0.1,0.1-0.2,0.1-0.3c0-0.1,0.1-0.1,0.1-0.1c0.1,0,0.1,0.1,0.2,0.2s0.1,0.3,0.1,0.4c0,0.2,0,0.3,0,0.5c0,0.2,0,0.3-0.1,0.5
				c0,0.1-0.1,0.3-0.1,0.4c-0.1,0.1-0.1,0.3-0.2,0.4c-0.1,0.1-0.2,0.2-0.3,0.3c-0.1,0.1-0.2,0.1-0.4,0.2c-0.3,0.1-0.5,0.1-0.7,0
				S282.2,21.3,282.1,21.1z"/>
			<path d="M284.8,34.8c0,0.5-0.1,1-0.4,1.4s-0.6,0.8-1,1.1c-0.5,0.4-1,0.7-1.6,1c-0.6,0.3-1.3,0.6-1.9,0.8
				c-0.7,0.2-1.3,0.4-1.9,0.5c-0.6,0.1-1.2,0.2-1.7,0.2c-0.7,0-1.3-0.1-2-0.3c-0.6-0.2-1.2-0.5-1.6-0.9c-0.5-0.4-0.8-0.9-1.1-1.4
				c-0.3-0.6-0.4-1.2-0.4-2c0-0.8,0.1-1.5,0.4-2.2s0.6-1.4,1.1-2c0,0,0.1-0.1,0.1-0.1s0.1,0,0.1,0c0,0,0.1,0.1,0.1,0.1
				c0,0,0,0.1,0,0.1c-0.1,0.3-0.3,0.7-0.4,1c-0.1,0.3-0.3,0.7-0.3,1c-0.1,0.3-0.1,0.7-0.2,1c0,0.4,0,0.7,0.1,1.1
				c0.2,0.5,0.4,0.9,0.7,1.3s0.7,0.6,1.1,0.8s0.8,0.4,1.3,0.5s0.9,0.1,1.4,0.1c0.6,0,1.2-0.1,1.8-0.1s1.2-0.2,1.8-0.4
				c0.6-0.2,1.2-0.4,1.7-0.6c0.6-0.3,1.1-0.5,1.6-0.9c0.1-0.1,0.2-0.1,0.3-0.2s0.2-0.2,0.2-0.2c0-0.1-0.1-0.2-0.4-0.2
				c-0.2-0.1-0.5-0.1-0.8-0.2s-0.6-0.1-1-0.1c-0.3,0-0.6-0.1-0.8-0.1c-0.3,0-0.5-0.1-0.8-0.2c-0.3-0.1-0.5-0.2-0.7-0.4
				c-0.2-0.2-0.4-0.4-0.5-0.6c-0.1-0.2-0.2-0.5-0.2-0.8c0-0.2,0.1-0.5,0.2-0.8c0.1-0.3,0.2-0.6,0.4-0.9s0.4-0.6,0.6-0.9
				c0.2-0.3,0.5-0.6,0.8-0.8s0.6-0.4,0.9-0.5s0.6-0.2,0.9-0.2c0.3,0,0.5,0.1,0.7,0.3c0.2,0.2,0.4,0.4,0.6,0.7
				c0.2,0.3,0.5,0.6,0.7,0.8c0.2,0.2,0.4,0.3,0.7,0.4c0.2,0.1,0.5,0.2,0.8,0.2c0.3,0,0.7,0,1.1,0h0.2c0.2,0,0.4,0.1,0.5,0.3
				c0.1,0.2,0.2,0.4,0.2,0.6c0,0.2-0.1,0.4-0.2,0.6c-0.1,0.2-0.3,0.3-0.5,0.3h-0.2c-0.5,0-1,0-1.3-0.1c-0.4-0.1-0.7-0.1-1-0.3
				c-0.3-0.1-0.6-0.3-0.8-0.5c-0.2-0.2-0.5-0.4-0.7-0.7c-0.2-0.3-0.5-0.5-0.7-0.7s-0.4-0.3-0.6-0.3c-0.2,0-0.5,0.1-0.7,0.2
				c-0.3,0.1-0.5,0.3-0.7,0.5s-0.4,0.4-0.6,0.6s-0.3,0.4-0.3,0.6c0,0.2,0.1,0.3,0.2,0.5s0.3,0.2,0.5,0.3s0.4,0.2,0.7,0.2
				c0.3,0.1,0.5,0.1,0.8,0.2c0.3,0,0.5,0.1,0.8,0.1c0.3,0,0.5,0.1,0.7,0.1c0.2,0,0.3,0,0.5,0.1c0.2,0,0.3,0.1,0.5,0.2
				s0.3,0.2,0.4,0.3C284.8,34.4,284.8,34.6,284.8,34.8z M283.7,26.6C283.7,26.6,283.6,26.7,283.7,26.6c-0.1,0.1-0.2,0.1-0.2,0
				l-1.3-1l-0.9,1.2c-0.1,0.1-0.1,0.1-0.2,0l-1.4-1.1c-0.1,0-0.1-0.1,0-0.1l0.9-1.3c0,0,0.1-0.1,0.1-0.1c0,0,0,0,0.1,0l1.3,1
				l0.9-1.2c0-0.1,0.1-0.1,0.1,0l1.4,1.2c0.1,0,0.1,0.1,0,0.2L283.7,26.6z"/>
			<path d="M294,19.6c-0.4,0.2-0.8,0.3-1.2,0.5s-0.8,0.4-1.3,0.5c-0.4,0.2-0.8,0.3-1.1,0.5c-0.3,0.2-0.6,0.3-0.8,0.4
				c-0.1,0-0.1,0-0.1,0s0-0.1,0-0.1c0-0.1,0.1-0.1,0.1-0.2c0.1-0.1,0.1-0.2,0.2-0.3c0.1-0.1,0.1-0.2,0.2-0.3
				c0.1-0.1,0.1-0.2,0.1-0.2c0.1-0.1,0.1-0.2,0.2-0.2l4.3-1.8c0.1-0.1,0.1,0,0.1,0.1c0,0.1-0.1,0.1-0.1,0.2c0,0.1-0.1,0.2-0.1,0.3
				s-0.1,0.2-0.1,0.3s-0.1,0.2-0.1,0.2C294.1,19.5,294.1,19.6,294,19.6z"/>
			<path d="M293.8,29.7c-0.2-0.1-0.4-0.2-0.7-0.4s-0.6-0.3-0.9-0.4c-0.3-0.1-0.6-0.2-0.9-0.3c-0.3-0.1-0.6-0.2-0.9-0.2
				c-0.4-0.1-0.8-0.1-1.3,0s-0.8,0.2-1.2,0.5c0,0-0.1,0-0.1,0c0,0-0.1-0.1-0.1-0.1c0-0.1,0-0.2,0.1-0.3c0-0.1,0.1-0.2,0.1-0.3
				s0.1-0.2,0.1-0.3c0-0.1,0.1-0.2,0.1-0.2c0.1-0.2,0.3-0.3,0.5-0.5s0.4-0.3,0.6-0.4c0.2-0.1,0.4-0.2,0.7-0.2c0.2,0,0.5,0,0.7,0
				c0.4,0.1,0.8,0.2,1.2,0.3c0.4,0.2,0.8,0.3,1.2,0.5s0.8,0.4,1.2,0.6c0.4,0.2,0.8,0.4,1.3,0.5c0.6,0.2,1.3,0.4,2,0.5
				c0.7,0.1,1.4,0.1,2.1,0.1c0.1,0,0.1,0.1,0.1,0.2c-0.1,0.2-0.3,0.5-0.4,0.8c-0.1,0.3-0.3,0.5-0.5,0.8c-0.4-0.1-0.8-0.2-1.2-0.2
				c-0.5,0-1-0.1-1.5,0c-0.5,0-1,0.2-1.6,0.4c-0.6,0.2-1.3,0.5-2,0.7c-0.4,0.1-0.8,0.3-1.2,0.4c-0.4,0.1-0.8,0.2-1.3,0.3
				c-0.4,0.1-0.9,0.2-1.4,0.2c-0.5,0.1-1,0.1-1.6,0.1H287c-0.2,0-0.4-0.1-0.5-0.3s-0.2-0.4-0.2-0.6c0-0.2,0.1-0.4,0.2-0.6
				s0.3-0.3,0.5-0.3h0.2c0.3,0,0.7,0,1.1,0c0.5,0,1-0.1,1.5-0.2c0.6-0.1,1.2-0.2,1.9-0.4C292.3,30.3,293,30,293.8,29.7z"/>
		</g>
		<g>
			<path d="M315.7,29.6c0,0.1-0.1,0.3-0.2,0.4c-0.2,0.2-0.4,0.4-0.8,0.6c0,0.4-0.1,0.7-0.2,1.1c-0.1,0.3-0.2,0.5-0.3,0.5
				c-0.4-0.4-0.7-0.7-1.1-1c-0.4-0.3-0.8-0.5-1.2-0.5c0,0.4,0.2,0.8,0.6,1.2c0.3,0.3,0.6,0.7,0.9,1c0,0.2-0.3,0.3-1,0.5
				c-0.5,0.1-0.9,0.1-1.2,0.1c-0.5,1.4-1.1,2.7-2,3.9c-0.4,0.5-0.9,1.1-1.5,1.7c-0.8,0.8-1.4,1.2-1.8,1.2c-0.1,0-0.2-0.1-0.2-0.2
				c0-0.1,0.2-0.4,0.7-0.9c0.7-0.8,1.2-1.4,1.5-2.1c0.6-1.1,1-2.3,1.2-3.7c-0.4-0.1-0.7-0.1-0.8-0.2c-0.1-0.1-0.2-0.1-0.2-0.3
				c0.9-0.8,1.4-1.5,1.4-2.2c-0.4,0-0.8,0.2-1.2,0.5c-0.2,0.2-0.6,0.6-1,1c-0.1,0-0.2-0.2-0.4-0.5c-0.1-0.4-0.2-0.7-0.2-1.1
				c-0.4-0.2-0.6-0.4-0.7-0.4c-0.3-0.2-0.4-0.4-0.4-0.6c0-0.1,0.1-0.3,0.2-0.4c0.1-0.1,0.4-0.3,0.8-0.5c0-1.1,0.2-1.6,0.6-1.6
				c0.8,0.9,1.5,1.3,2.2,1.4c0-0.3-0.2-0.8-0.5-1.2c0,0-0.3-0.4-0.9-1c0-0.1,0.1-0.2,0.2-0.2c0.2-0.1,0.4-0.1,0.9-0.2
				c-0.2-1.1-0.6-2.2-1.3-3.3c-0.6-1.1-1.4-2.1-2.2-2.8c-0.1-0.1-0.2-0.2-0.2-0.3c0-0.1,0.1-0.2,0.3-0.2c0.3,0,0.7,0.2,1.3,0.6
				c1.8,1.3,3.2,3.2,4.1,5.8c1.4,0,2.1,0.2,2.1,0.6c-0.4,0.3-0.7,0.7-0.9,1c-0.3,0.4-0.4,0.8-0.4,1.2c0.3,0,0.7-0.2,1-0.5l1.1-1
				c0.2,0,0.4,0.5,0.5,1.4c0,0.1,0,0.2,0,0.3C315.4,29,315.7,29.4,315.7,29.6z M312.6,26.4c0,0-0.1-0.1-0.4-0.1
				c-0.2,0-0.4-0.1-0.5-0.1h-0.4c-0.1,0-0.2,0-0.3,0.1c-0.4-1.2-0.9-2.4-1.7-3.5c-0.9-1.2-1.8-2.2-3-3c0.8,0.7,1.4,1.6,2,2.6
				c0.7,1.2,1.2,2.5,1.4,3.8c-0.5,0-0.8,0.1-0.8,0.2c0.6,0.5,1,1,1.3,1.5c0.1-0.2,0.2-0.5,0.3-0.7c0,0,0.1-0.1,0.1-0.3
				c0.1-0.2,0.1-0.3,0.2-0.3c0.2,0,0.4,0.5,0.7,1.4c0.2-0.3,0.3-0.7,0.6-0.9C312.1,26.8,312.3,26.6,312.6,26.4z M309.2,30.4
				c-0.1-0.1-0.5-0.2-1.1-0.4c-0.4-0.1-0.6-0.2-0.6-0.3c0,0,0.3-0.2,0.9-0.4c0.1-0.1,0.4-0.2,0.7-0.3c-0.3-0.1-0.7-0.3-1-0.5
				c-0.1-0.1-0.4-0.3-0.7-0.6c-0.1,0-0.2,0.4-0.2,1.2c-0.6,0.3-0.9,0.6-0.9,0.7c0,0.2,0.3,0.3,0.9,0.6c0,0.8,0.1,1.3,0.3,1.3
				c0,0,0.2-0.2,0.6-0.5C308.6,30.7,308.9,30.5,309.2,30.4z M312.7,32.9c-0.5-0.4-0.9-0.9-1.2-1.4c-0.1,0.2-0.2,0.4-0.3,0.7
				c0,0-0.1,0.2-0.2,0.4c-0.1,0.2-0.2,0.3-0.2,0.3c0,0-0.1-0.1-0.2-0.3c-0.1-0.2-0.1-0.3-0.2-0.3c0-0.1-0.1-0.3-0.3-0.7
				c-0.1,0.3-0.3,0.6-0.5,0.8c-0.2,0.2-0.4,0.4-0.6,0.6c0,0.1,0.3,0.1,0.8,0.3c-0.3,1.3-0.5,2.1-0.6,2.4c-0.5,1.4-1.3,2.8-2.4,4.1
				c1.9-1.3,3.3-3.4,4.3-6.5c0.7,0,1,0,0.9,0C312.4,33.2,312.7,33.1,312.7,32.9z M312.1,29.7c0-0.4-0.1-0.7-0.4-0.9
				c-0.2-0.2-0.6-0.3-0.9-0.3c-0.3,0-0.6,0.1-0.9,0.4c-0.3,0.2-0.4,0.5-0.4,0.9c0,0.4,0.1,0.7,0.4,0.9c0.3,0.2,0.6,0.4,0.9,0.4
				c0.4,0,0.7-0.1,0.9-0.4C312,30.4,312.1,30.1,312.1,29.7z M315.2,29.6c0-0.1-0.1-0.2-0.2-0.3c-0.2-0.1-0.4-0.2-0.7-0.3
				c0-0.4,0-0.7-0.1-0.9c-0.1-0.2-0.1-0.4-0.2-0.4c0,0-0.2,0.2-0.5,0.5c-0.3,0.3-0.7,0.6-1.1,0.7c0.2,0.1,0.4,0.2,0.8,0.4
				c0,0,0.2,0.1,0.6,0.2c0.3,0.1,0.4,0.2,0.4,0.2c0,0.1-0.2,0.2-0.6,0.3c-0.6,0.2-1,0.3-1.1,0.3c0.4,0.1,0.7,0.3,1,0.5
				c0.1,0.1,0.4,0.3,0.6,0.6c0.1,0,0.1-0.1,0.2-0.3c0-0.1,0-0.4,0-0.8C314.9,30,315.2,29.8,315.2,29.6z"/>
		</g>
		<g>
			<path d="M119.9,30c0-0.1,0.1-0.3,0.2-0.4c0.2-0.2,0.4-0.4,0.8-0.6c0-0.4,0.1-0.7,0.2-1.1c0.1-0.3,0.2-0.5,0.3-0.5
				c0.4,0.4,0.7,0.7,1.1,1c0.4,0.3,0.8,0.5,1.2,0.5c0-0.4-0.2-0.8-0.6-1.2c-0.3-0.3-0.6-0.7-0.9-1c0-0.2,0.3-0.3,1-0.5
				c0.5-0.1,0.9-0.1,1.2-0.1c0.5-1.4,1.1-2.7,2-3.9c0.4-0.5,0.9-1.1,1.5-1.7c0.8-0.8,1.4-1.2,1.8-1.2c0.1,0,0.2,0.1,0.2,0.2
				c0,0.1-0.2,0.4-0.7,0.9c-0.7,0.8-1.2,1.4-1.5,2.1c-0.6,1.1-1,2.3-1.2,3.7c0.4,0.1,0.7,0.1,0.8,0.2c0.1,0.1,0.2,0.1,0.2,0.3
				c-0.9,0.8-1.4,1.5-1.4,2.2c0.4,0,0.8-0.2,1.2-0.5c0.2-0.2,0.6-0.6,1-1c0.1,0,0.2,0.2,0.4,0.5c0.1,0.4,0.2,0.7,0.2,1.1
				c0.4,0.2,0.6,0.4,0.7,0.4c0.3,0.2,0.4,0.4,0.4,0.6c0,0.1-0.1,0.3-0.2,0.4c-0.1,0.1-0.4,0.3-0.8,0.5c0,1.1-0.2,1.6-0.6,1.6
				c-0.8-0.9-1.5-1.3-2.2-1.4c0,0.3,0.2,0.8,0.5,1.2c0,0,0.3,0.4,0.9,1c0,0.1-0.1,0.2-0.2,0.2c-0.2,0.1-0.4,0.1-0.9,0.2
				c0.2,1.1,0.6,2.2,1.3,3.3c0.6,1.1,1.4,2.1,2.2,2.8c0.1,0.1,0.2,0.2,0.2,0.3s-0.1,0.2-0.3,0.2c-0.3,0-0.7-0.2-1.3-0.6
				c-1.8-1.3-3.2-3.2-4.1-5.8c-1.4,0-2.1-0.2-2.1-0.6c0.4-0.3,0.7-0.7,0.9-1c0.3-0.4,0.4-0.8,0.4-1.2c-0.3,0-0.7,0.2-1,0.5l-1.1,1
				c-0.2,0-0.4-0.5-0.5-1.4c0-0.1,0-0.2,0-0.3C120.3,30.6,119.9,30.3,119.9,30z M123.1,33.3c0,0,0.1,0.1,0.4,0.1s0.4,0.1,0.5,0.1
				h0.4c0.1,0,0.2,0,0.3-0.1c0.4,1.2,0.9,2.4,1.7,3.5c0.9,1.2,1.8,2.2,3,3c-0.8-0.7-1.4-1.6-2-2.6c-0.7-1.2-1.2-2.5-1.4-3.8
				c0.5,0,0.8-0.1,0.8-0.2c-0.6-0.5-1-1-1.3-1.5c-0.1,0.2-0.2,0.5-0.3,0.7c0,0-0.1,0.1-0.1,0.3c-0.1,0.2-0.1,0.3-0.2,0.3
				c-0.2,0-0.4-0.5-0.7-1.4c-0.2,0.3-0.3,0.7-0.6,0.9C123.5,32.8,123.3,33,123.1,33.3z M126.5,29.2c0.1,0.1,0.5,0.2,1.1,0.4
				c0.4,0.1,0.6,0.2,0.6,0.3c0,0-0.3,0.2-0.9,0.4c-0.1,0.1-0.4,0.2-0.7,0.3c0.3,0.1,0.7,0.3,1,0.5c0.1,0.1,0.4,0.3,0.7,0.6
				c0.1,0,0.2-0.4,0.2-1.2c0.6-0.3,0.9-0.6,0.9-0.7c0-0.2-0.3-0.3-0.9-0.6c0-0.8-0.1-1.3-0.3-1.3c0,0-0.2,0.2-0.6,0.5
				C127,28.9,126.7,29.1,126.5,29.2z M123,26.7c0.5,0.4,0.9,0.9,1.2,1.4c0.1-0.2,0.2-0.4,0.3-0.7c0,0,0.1-0.2,0.2-0.4
				c0.1-0.2,0.2-0.3,0.2-0.3c0,0,0.1,0.1,0.2,0.3c0.1,0.2,0.1,0.3,0.2,0.3c0,0.1,0.1,0.3,0.3,0.7c0.1-0.3,0.3-0.6,0.5-0.8
				c0.2-0.2,0.4-0.4,0.6-0.6c0-0.1-0.3-0.1-0.8-0.3c0.3-1.3,0.5-2.1,0.6-2.4c0.5-1.4,1.3-2.8,2.4-4.1c-1.9,1.3-3.3,3.4-4.3,6.5
				c-0.7,0-1,0-0.9,0C123.3,26.5,123,26.6,123,26.7z M123.6,30c0,0.4,0.1,0.7,0.4,0.9c0.2,0.2,0.6,0.3,0.9,0.3
				c0.3,0,0.6-0.1,0.9-0.4c0.3-0.2,0.4-0.5,0.4-0.9c0-0.4-0.1-0.7-0.4-0.9c-0.3-0.2-0.6-0.4-0.9-0.4c-0.4,0-0.7,0.1-0.9,0.4
				C123.7,29.3,123.6,29.6,123.6,30z M120.5,30c0,0.1,0.1,0.2,0.2,0.3s0.4,0.2,0.7,0.3c0,0.4,0,0.7,0.1,0.9c0.1,0.2,0.1,0.4,0.2,0.4
				c0,0,0.2-0.2,0.5-0.5c0.3-0.3,0.7-0.6,1.1-0.7c-0.2-0.1-0.4-0.2-0.8-0.4c0,0-0.2-0.1-0.6-0.2c-0.3-0.1-0.4-0.2-0.4-0.2
				c0-0.1,0.2-0.2,0.6-0.3c0.6-0.2,1-0.3,1.1-0.3c-0.4-0.1-0.7-0.3-1-0.5c-0.1-0.1-0.4-0.3-0.6-0.6c-0.1,0-0.1,0.1-0.2,0.3
				c0,0.1,0,0.4,0,0.8C120.8,29.6,120.5,29.9,120.5,30z"/>
		</g>
	</g>
	<rect class="st1" width="435.7" height="55"/>
</g>
</svg>
