<?xml version="1.0" encoding="utf-8"?>
<!-- Generator: Adobe Illustrator 22.0.1, SVG Export Plug-In . SVG Version: 6.00 Build 0)  -->
<svg version="1.1" id="Layer_1" xmlns="http://www.w3.org/2000/svg" xmlns:xlink="http://www.w3.org/1999/xlink" x="0px" y="0px"
	 viewBox="0 0 84.6 55" style="enable-background:new 0 0 84.6 55;" xml:space="preserve">
<style type="text/css">
	.st0{fill:#542C0B;}
	.st1{fill:none;}
</style>
<g>
	<path class="st0" d="M34.7,29.6c-0.5-0.3-0.9-0.5-1.4-0.5c-0.7,0-1.2,0.2-1.7,0.8c-0.3,0.3-0.6,0.7-0.8,1.3l0.5,0.3
		c0.3-0.3,0.5-0.5,0.7-0.6c0.2-0.1,0.5-0.2,0.7-0.2c0.4,0,0.8,0.1,1.2,0.4c0.1,0.1,0.4,0.4,0.9,0.9c-1.3,0.1-2.3,0.3-3,0.5
		c-0.8,0.2-1.4,0.6-1.8,1.1s-0.6,1.2-0.6,2.2c0,0.2,0.1,0.7,0.4,1.7c0.2,0.6,0.4,1.5,0.8,2.7c0.2,0.7,0.4,1.3,0.6,1.9
		c0.1-0.4,0.1-0.6,0.2-0.9c0.1-0.3,0.1-0.5,0.1-0.8c0-0.5-0.1-1-0.3-1.6c-0.2-0.6-0.3-1.1-0.5-1.7c-0.2-0.6-0.3-1.1-0.3-1.6
		c0-0.6,0.6-1,1.8-1.3c1-0.2,2.1-0.3,3.3-0.3h1.3v-1.8c-0.4-0.6-0.7-1.1-0.9-1.3C35.5,30.3,35.1,29.9,34.7,29.6z"/>
	<path class="st0" d="M49.3,27.8c-0.6,0.1-1.1,0.4-1.7,0.8c-0.7,0.5-1.2,1-1.7,1.7c-0.3,0.5-0.7,0.8-1.1,1.1
		c-0.5,0.3-1.1,0.5-1.8,0.5h-1.8v0.2h-0.7c-0.3,0-0.5-0.2-0.7-0.5c-0.3-0.4-0.5-1.3-0.6-2.6c-0.1-2.9-0.1-4.7-0.2-5.5
		c-0.1-1.2-0.3-2.3-0.6-3.2L37,22.5c0.3,0.2,0.5,0.5,0.7,0.9c0.1,0.3,0.2,0.6,0.3,1.1c0.1,0.4,0.2,1.1,0.2,2s0.1,1.8,0.1,2.6
		c0.1,1,0.2,1.9,0.3,2.6c0.1,0.7,0.3,1.2,0.6,1.6c0.3,0.4,0.7,0.6,1.2,0.6h0.8H42h1c0.9,0,1.5-0.1,2-0.3c0.4-0.2,0.9-0.6,1.3-1.1
		c0.5,0.5,1.2,0.8,1.9,1.1c0.6,0.2,1.2,0.3,1.7,0.3h1.2V32c0-0.6-0.2-1.2-0.6-2.1C50.2,29.3,49.8,28.6,49.3,27.8z M49.7,31.8
		c-0.4,0-0.9-0.2-1.4-0.4c-0.5-0.2-0.8-0.5-1.1-0.8c0.2-0.4,0.4-0.6,0.6-0.8s0.5-0.4,0.9-0.5c0.3,0.4,0.5,0.7,0.7,1.1
		C49.6,30.8,49.7,31.3,49.7,31.8L49.7,31.8z"/>
	<path class="st0" d="M54.8,19c-0.1,0-0.2,0-0.4,0c-0.3,0-0.6-0.1-0.9-0.3S53,18.3,53,18.2c0-0.1,0.1,0,0.3-0.1
		c0.2-0.1,0.3-0.1,0.5-0.1c0.3,0,0.6,0.1,0.8,0.3c0.1-0.2,0.2-0.3,0.2-0.4c0.1-0.1,0.1-0.2,0.1-0.3c0-0.2-0.1-0.3-0.2-0.4
		c-0.1-0.1-0.2-0.2-0.4-0.2c-0.4,0-0.8,0.2-1.2,0.7c-0.4,0.4-0.6,0.8-0.6,1c0,0.1,0,0.3,0.2,0.4c0.1,0.1,0.3,0.2,0.5,0.3
		c-0.7,0.3-1.1,0.6-1.1,0.9l2.1-0.7c0.3-0.1,0.5-0.2,0.7-0.3c0.2-0.1,0.3-0.3,0.3-0.5C55,18.9,54.8,18.9,54.8,19z"/>
	<path class="st0" d="M54.4,23.4c-0.2-1.5-0.4-2.6-0.5-3.5c-0.1,0.4-0.3,0.7-0.5,1.1c-0.2,0.4-0.3,0.8-0.5,1.1
		c0.1,0.9,0.2,1.9,0.3,2.8c0.1,1.5,0.3,3,0.4,4.4c0.1,1.4,0.2,2.5,0.2,3.3c0,0.1,0,0.3,0,0.6c-0.1,0.3-0.1,0.6-0.1,0.8l0.2,0.1
		c0.3-0.6,0.6-1.1,0.7-1.4c0.2-0.5,0.3-1.1,0.3-1.7c0-0.8-0.1-1.9-0.1-3.6C54.7,26.2,54.6,24.9,54.4,23.4z"/>
</g>
<rect class="st1" width="84.6" height="55"/>
</svg>
