<?xml version="1.0" encoding="utf-8"?>
<!-- Generator: Adobe Illustrator 19.2.0, SVG Export Plug-In . SVG Version: 6.00 Build 0)  -->
<svg version="1.1" id="Layer_1" xmlns="http://www.w3.org/2000/svg" xmlns:xlink="http://www.w3.org/1999/xlink" x="0px" y="0px"
	 viewBox="0 0 282.6 55" style="enable-background:new 0 0 282.6 55;" xml:space="preserve">
<style type="text/css">
	.st0{fill:#BA0017;}
	.st1{fill:none;}
</style>
<g>
	<g>
		<path d="M80.5,39.6c0,0.4-0.2,0.7-0.6,1c-0.7,0.3-1.8,0.7-3.3,1.3c0-0.3,0.2-0.6,0.5-0.9C77.8,40.7,78.9,40.2,80.5,39.6z"/>
		<path d="M84.8,33.5c0,1.2-0.3,2.1-0.8,2.9c-0.5,0.6-1.2,1.1-2.2,1.3c-0.8,0.2-1.9,0.3-3.1,0.3c-1.4,0-2.6-0.3-3.4-0.8
			c-0.9-0.6-1.3-1.5-1.3-2.6c0-0.6,0.1-1.3,0.3-2c0.2-0.6,0.4-1.2,0.7-1.9c0.2-0.5,0.5-1.1,0.9-1.8l0.4,0.2c-0.3,0.5-0.5,1-0.7,1.3
			c-0.2,0.5-0.4,1-0.5,1.4c-0.1,0.5-0.2,1-0.2,1.5c0,0.9,0.3,1.6,1,2.1s1.6,0.7,2.8,0.7c1.3,0,2.4-0.2,3.5-0.7
			c1.2-0.5,1.8-1.1,1.8-1.7c0-0.7-0.1-2-0.3-3.7c-0.2-1.3-0.4-2.8-0.7-4.5l-0.4-2.2L82,23.1c0-1,0.2-1.9,0.6-2.7h0.2
			c0,0.3,0.1,0.5,0.2,0.6c0.1,0.1,0.2,0.2,0.4,0.3c0.2,0.1,0.5,0.2,0.8,0.3c0.2,0.1,0.4,0.2,0.5,0.3c0,0.5,0,0.9-0.1,1.1
			c0,0.2-0.1,0.6-0.2,1l-0.6-0.2c0,0.2,0.1,0.9,0.3,2.3c0.2,1.6,0.4,2.8,0.5,3.8C84.7,31.5,84.8,32.6,84.8,33.5z"/>
		<path d="M93,42.4c0,0.4-0.2,0.7-0.6,1c-0.7,0.3-1.8,0.7-3.3,1.3c0-0.3,0.2-0.6,0.5-0.9C90.2,43.5,91.4,43.1,93,42.4z"/>
		<path d="M96,34.9c0,0.8-0.4,1.7-1.1,2.6c-0.6,0.8-1.4,1.4-2.3,2c-0.9,0.5-1.6,0.8-2.1,0.8c-0.5,0-1.1-0.1-1.7-0.2
			c-0.5-0.1-1-0.3-1.6-0.5c-0.5-0.2-1.1-0.4-1.6-0.6l0.2-0.4c0.5,0.1,1,0.2,1.5,0.3c0.5,0.1,1,0.2,1.5,0.2c1,0,2-0.3,3-0.9
			c0.9-0.6,1.7-1.3,2.4-2.1c0.7-0.9,1-1.6,1-2.3c0-0.6-0.2-1.2-0.5-1.9c-0.3-0.5-0.7-1.1-1.2-1.6l0.6-1.8c0.6,0.6,1.1,1.1,1.4,1.7
			c0.3,0.6,0.5,1.4,0.5,2.2V34.9z M94.4,24.4L93.5,26l-1.8-0.9l0.8-1.6L94.4,24.4z"/>
		<path d="M101.6,18.8c0,0.5-0.2,0.9-0.5,1.2c-0.3,0.4-0.8,0.5-1.3,0.5c-0.4,0-0.7-0.1-0.9-0.3c-0.2-0.2-0.3-0.5-0.3-0.9
			c0-0.6,0.1-1.1,0.4-1.5c0.3-0.4,0.7-0.7,1.1-0.7c0.4,0,0.7,0.2,1,0.5S101.6,18.4,101.6,18.8z M100.9,19.1c0-0.2-0.1-0.4-0.4-0.7
			c-0.3-0.3-0.5-0.4-0.7-0.4c-0.2,0-0.4,0.1-0.5,0.3c-0.1,0.2-0.2,0.3-0.2,0.5c0,0.3,0.1,0.4,0.4,0.6c0.2,0.1,0.5,0.1,0.8,0.1
			c0.2,0,0.3,0,0.5-0.1C100.8,19.4,100.9,19.3,100.9,19.1z"/>
		<path d="M101.7,34.9h-6.4v-2h5.6c0-0.9-0.1-1.6-0.3-2c-0.1-0.3-0.5-0.8-1.1-1.4l0.9-1.8c0.5,0.7,0.9,1.2,1,1.6
			c0.2,0.6,0.3,1.5,0.3,2.9V34.9z M100.8,24.5l-0.9,1.6l-1.8-0.9l0.8-1.6L100.8,24.5z"/>
		<path d="M108,21.5c0,0.3-0.2,0.7-0.6,1c-0.7,0.3-1.8,0.7-3.3,1.3c0-0.3,0.2-0.6,0.5-0.9C105.3,22.7,106.4,22.2,108,21.5z"/>
		<path d="M110.7,34.9h-1.2c-0.5,0-1.1-0.1-1.7-0.3c-0.7-0.3-1.4-0.6-1.9-1.1c-0.4,0.5-0.9,0.9-1.3,1.1c-0.5,0.2-1.1,0.3-2,0.3h-1.8
			v-2h1.7c0.7,0,1.3-0.2,1.8-0.5c0.4-0.3,0.8-0.6,1.1-1.1c0.5-0.7,1-1.2,1.7-1.7c0.6-0.4,1.1-0.7,1.7-0.8c0.5,0.8,0.9,1.5,1.2,2.1
			c0.4,0.9,0.6,1.5,0.6,2.1V34.9z M109.4,32.7c-0.1-0.4-0.2-0.9-0.4-1.3c-0.2-0.4-0.4-0.7-0.7-1.1c-0.4,0.1-0.7,0.3-0.9,0.5
			c-0.2,0.2-0.4,0.4-0.6,0.8c0.3,0.3,0.6,0.6,1.1,0.8c0.5,0.2,1,0.4,1.4,0.4L109.4,32.7z"/>
		<path d="M115.5,34.9h-5.5v-2h4.4l-1.3-9.5l-0.6-0.3c0-0.5,0-1,0.1-1.5s0.2-0.9,0.4-1.3l0.2,0.1c0,0.4,0.2,0.8,0.7,1
			c0.4,0.1,0.8,0.3,1.1,0.4c0,0.4,0,0.8-0.1,1.2c-0.1,0.4-0.1,0.7-0.2,1l-0.5-0.2l1.3,8.8V34.9z"/>
		<path d="M119.3,32c0,0.6-0.1,1.2-0.3,1.7c-0.1,0.3-0.4,0.8-0.7,1.4l-0.2-0.1c0-0.2,0-0.5,0.1-0.8c0-0.3,0-0.5,0-0.6
			c0-0.8-0.1-1.9-0.2-3.3c-0.1-1.4-0.3-2.9-0.4-4.4c-0.1-0.9-0.2-1.9-0.3-2.8c0.2-0.3,0.3-0.7,0.5-1.1c0.2-0.4,0.4-0.7,0.5-1.1
			c0.1,0.9,0.3,2,0.5,3.5s0.3,2.8,0.4,4C119.2,30.1,119.3,31.2,119.3,32z"/>
		<path class="st0" d="M132.5,23.8c0,0.3-0.2,0.7-0.6,1c-0.7,0.3-1.8,0.7-3.3,1.3c0-0.3,0.2-0.6,0.5-0.9
			C129.7,24.9,130.8,24.4,132.5,23.8z"/>
		<path class="st0" d="M134.4,34.9h-1.3c-1.2,0-2.3,0.1-3.3,0.3c-1.2,0.3-1.8,0.7-1.8,1.3c0,0.5,0.1,1,0.3,1.6
			c0.2,0.6,0.3,1.1,0.5,1.7s0.3,1.1,0.3,1.6c0,0.3,0,0.5-0.1,0.8s-0.1,0.5-0.2,0.9c-0.2-0.6-0.4-1.2-0.6-1.9
			c-0.4-1.2-0.6-2.1-0.8-2.7c-0.3-1-0.4-1.5-0.4-1.7c0-1,0.2-1.7,0.6-2.2s1-0.9,1.8-1.1c0.7-0.2,1.7-0.4,3-0.5
			c-0.5-0.5-0.8-0.8-0.9-0.9c-0.4-0.3-0.8-0.4-1.2-0.4c-0.2,0-0.5,0.1-0.7,0.2c-0.2,0.1-0.4,0.3-0.7,0.6l-0.5-0.3
			c0.2-0.6,0.5-1,0.8-1.3c0.5-0.6,1-0.8,1.7-0.8c0.5,0,0.9,0.2,1.4,0.5c0.4,0.3,0.8,0.7,1.2,1.2c0.2,0.2,0.5,0.7,0.9,1.3V34.9z"/>
		<path class="st0" d="M139.7,34.9h-1.6c-0.5,0-0.9-0.2-1.2-0.6c-0.3-0.4-0.5-0.9-0.6-1.6c-0.1-0.7-0.2-1.6-0.3-2.6
			c0-0.8-0.1-1.7-0.1-2.6c0-0.9-0.1-1.6-0.2-2c-0.1-0.5-0.2-0.8-0.3-1.1c-0.2-0.4-0.4-0.7-0.7-0.9l1.4-2.2c0.3,0.9,0.5,2,0.6,3.2
			c0.1,0.8,0.1,2.6,0.2,5.5c0.1,1.3,0.3,2.2,0.6,2.6c0.2,0.3,0.4,0.5,0.7,0.5h1.6V34.9z"/>
		<path class="st0" d="M146.1,21.5c0,0.3-0.2,0.7-0.6,1c-0.7,0.3-1.8,0.7-3.3,1.3c0-0.3,0.2-0.6,0.5-0.9
			C143.3,22.7,144.5,22.2,146.1,21.5z"/>
		<path class="st0" d="M148.7,34.9h-1.2c-0.5,0-1.1-0.1-1.7-0.3c-0.7-0.3-1.4-0.6-1.9-1.1c-0.4,0.5-0.9,0.9-1.3,1.1
			c-0.5,0.2-1.1,0.3-2,0.3h-1.8v-2h1.7c0.7,0,1.3-0.2,1.8-0.5c0.4-0.3,0.8-0.6,1.1-1.1c0.5-0.7,1-1.2,1.7-1.7
			c0.6-0.4,1.1-0.7,1.7-0.8c0.5,0.8,0.9,1.5,1.2,2.1c0.4,0.9,0.6,1.5,0.6,2.1V34.9z M147.5,32.7c-0.1-0.4-0.2-0.9-0.4-1.3
			c-0.2-0.4-0.4-0.7-0.7-1.1c-0.4,0.1-0.7,0.3-0.9,0.5c-0.2,0.2-0.4,0.4-0.6,0.8c0.3,0.3,0.6,0.6,1.1,0.8c0.5,0.2,1,0.4,1.4,0.4
			L147.5,32.7z"/>
		<path class="st0" d="M153.2,14.6c0,0.3-0.2,0.7-0.6,1c-0.7,0.3-1.8,0.7-3.3,1.3c0-0.3,0.2-0.6,0.5-0.9
			C150.4,15.7,151.6,15.2,153.2,14.6z"/>
		<path class="st0" d="M152.9,19.8c0,0.2-0.1,0.4-0.3,0.5c-0.2,0.1-0.4,0.2-0.7,0.3l-2.1,0.7c0-0.3,0.4-0.6,1.1-0.9
			c-0.2-0.1-0.4-0.2-0.5-0.3c-0.2-0.1-0.2-0.3-0.2-0.4c0-0.2,0.2-0.6,0.6-1c0.4-0.5,0.8-0.7,1.2-0.7c0.2,0,0.3,0.1,0.4,0.2
			c0.1,0.1,0.2,0.2,0.2,0.4c0,0.1,0,0.2-0.1,0.3c0,0.1-0.1,0.2-0.2,0.4c-0.2-0.2-0.5-0.3-0.8-0.3c-0.2,0-0.3,0-0.5,0.1
			s-0.2,0.1-0.2,0.2c0,0.1,0.2,0.3,0.5,0.5c0.3,0.2,0.6,0.3,0.9,0.3c0.2,0,0.3,0,0.4,0C152.5,19.9,152.6,19.8,152.9,19.8z M152.5,32
			c0,0.6-0.1,1.2-0.3,1.7c-0.1,0.3-0.4,0.8-0.7,1.4l-0.2-0.1c0-0.2,0-0.5,0.1-0.8c0-0.3,0-0.5,0-0.6c0-0.8-0.1-1.9-0.2-3.3
			c-0.1-1.4-0.3-2.9-0.4-4.4c-0.1-0.9-0.2-1.9-0.3-2.8c0.2-0.3,0.3-0.7,0.5-1.1c0.2-0.4,0.4-0.7,0.5-1.1c0.1,0.9,0.3,2,0.5,3.5
			s0.3,2.8,0.4,4C152.5,30.1,152.5,31.2,152.5,32z"/>
		<path d="M165.8,17.9c0,0.1,0,0.3,0,0.4s0,0.3-0.1,0.4l-0.9-0.6c-0.4,0.4-0.6,0.7-0.8,0.8c-0.6,0.5-1,0.8-1.4,0.8h-0.8
			c0.4-0.2,0.9-0.5,1.4-0.9c0.5-0.4,0.8-0.7,1.1-1c-0.2-0.1-0.4-0.3-0.5-0.4c-0.1-0.2-0.2-0.4-0.2-0.6c0-0.5,0.1-0.9,0.4-1.3
			s0.6-0.6,0.9-0.6c0.2,0,0.4,0.1,0.5,0.3c0.2,0.2,0.2,0.5,0.2,0.8c0,0.1,0,0.3-0.1,0.4c0,0.2-0.1,0.4-0.3,0.8
			c0.1,0.1,0.2,0.2,0.4,0.3C165.7,17.6,165.8,17.7,165.8,17.9z M164.9,16.6c0-0.2-0.1-0.4-0.2-0.6c-0.1-0.2-0.3-0.3-0.4-0.3
			c-0.1,0-0.1,0-0.2,0.1c0,0.1-0.1,0.1-0.1,0.2c0,0.2,0.1,0.3,0.3,0.5l0.5,0.4C164.9,16.8,164.9,16.7,164.9,16.6z"/>
		<path d="M168.5,34.9h-1.6c-0.5,0-1-0.5-1.4-1.4c-0.3-0.7-0.6-1.6-0.7-2.7c-0.2,0.4-0.5,0.7-0.9,1c-0.3,0.2-0.7,0.3-1.1,0.3
			c-0.9,0-1.6-0.1-2.2-0.2c-0.6-0.1-0.9-0.3-0.9-0.4c0-0.6,0.4-1.4,1.3-2.1c0.8-0.8,1.9-1.5,3.1-2c0-0.1,0-0.2-0.1-0.5
			c0-0.3-0.1-0.4-0.1-0.5c0-0.3,0.1-0.5,0.3-0.9c0.1-0.3,0.3-0.5,0.6-0.8c0.1,0.5,0.2,0.9,0.2,1.3c0.1,0.4,0.2,0.9,0.3,1.3l0.3,1.9
			c0.2,1.1,0.4,1.8,0.5,2.4c0.2,0.8,0.5,1.2,0.7,1.2h1.6V34.9z M163.1,22.5l-0.9,1.6l-1.8-0.9l0.8-1.6L163.1,22.5z M164.6,29.8
			l-0.2-1.2c-0.7,0.2-1.2,0.5-1.5,0.7c-0.4,0.3-0.7,0.6-0.9,1c0.2,0.1,0.3,0.1,0.6,0.2c0.2,0,0.5,0.1,0.9,0.1
			C163.8,30.6,164.2,30.3,164.6,29.8z M165.7,21.4l-0.9,1.6l-1.8-1l0.8-1.6L165.7,21.4z"/>
		<path d="M173.8,18.2c0,0.3-0.2,0.7-0.6,1c-0.7,0.3-1.8,0.7-3.3,1.3c0-0.3,0.2-0.6,0.5-0.9C171.1,19.3,172.2,18.8,173.8,18.2z"/>
		<path d="M174.6,34.9h-6.8v-2h3.9c0.5,0,0.9,0,1.2-0.1c0.3,0,0.7-0.1,1.1-0.2c-1.3-0.2-2.1-0.4-2.5-0.5c-0.9-0.4-1.3-1-1.3-1.9
			c0-0.8,0.2-1.5,0.6-2.2c0.5-0.8,1-1.2,1.7-1.2c0.8,0,1.3,0.5,1.7,1.5c0.3,0.8,0.5,1.7,0.5,2.7V34.9z M171.5,23l-0.9,1.5l-1.4-0.9
			l0.9-1.5L171.5,23z M173.6,30.9c-0.2-0.6-0.3-1-0.5-1.3c-0.3-0.6-0.7-0.8-1.1-0.8c-0.2,0-0.4,0.1-0.5,0.2
			c-0.2,0.2-0.2,0.4-0.2,0.6c0,0.6,0.3,1,0.9,1.1C172.3,30.8,172.8,30.9,173.6,30.9z M174.1,22.4l-1,1.5l-1.4-0.9l1-1.5L174.1,22.4z
			"/>
		<path d="M180.1,22.2c0,0.5-0.2,0.9-0.5,1.2c-0.3,0.4-0.8,0.5-1.3,0.5c-0.4,0-0.7-0.1-0.9-0.3c-0.2-0.2-0.3-0.5-0.3-0.9
			c0-0.6,0.1-1.1,0.4-1.5c0.3-0.4,0.7-0.7,1.1-0.7c0.4,0,0.7,0.2,1,0.5S180.1,21.8,180.1,22.2z M179.4,22.5c0-0.2-0.1-0.4-0.4-0.7
			c-0.3-0.3-0.5-0.4-0.7-0.4c-0.2,0-0.4,0.1-0.5,0.3c-0.1,0.2-0.2,0.3-0.2,0.5c0,0.3,0.1,0.4,0.4,0.6c0.2,0.1,0.5,0.1,0.8,0.1
			c0.2,0,0.3,0,0.5-0.1C179.3,22.7,179.4,22.7,179.4,22.5z"/>
		<path d="M180.2,34.9h-6.4v-2h5.6c0-0.9-0.1-1.6-0.3-2c-0.1-0.3-0.5-0.8-1.1-1.4l0.9-1.8c0.5,0.7,0.9,1.2,1,1.6
			c0.2,0.6,0.3,1.5,0.3,2.9V34.9z M177.5,38.1l-0.9,1.6l-1.8-0.9l0.8-1.6L177.5,38.1z M180.1,37.1l-0.9,1.6l-1.8-1l0.8-1.6
			L180.1,37.1z"/>
		<path d="M187.9,34.9h-5c-0.4,0-0.8-0.1-1.2-0.4s-0.5-0.5-0.5-0.9c0-0.3,0-0.5,0-0.8c0-0.2,0.1-0.5,0.2-0.8h0.3
			c0.1,0.3,0.2,0.5,0.4,0.7c0.2,0.1,0.4,0.2,0.7,0.2h4.3c0-1.3-0.2-2.4-0.6-3.2c-0.5-1-1.2-1.7-2.3-2l0.2-2.2c1.3,0.6,2.2,1.7,2.8,3
			c0.4,1.1,0.7,2.6,0.7,4.4V34.9z"/>
		<path d="M193.3,36.9c0,0.4-0.2,0.7-0.6,1c-0.7,0.3-1.8,0.7-3.3,1.3c0-0.3,0.2-0.6,0.5-0.9C190.6,38,191.7,37.5,193.3,36.9z"/>
		<path d="M195.4,21.5c0,0.3-0.2,0.7-0.6,1c-0.7,0.3-1.8,0.7-3.3,1.3c0-0.3,0.2-0.6,0.5-0.9C192.7,22.7,193.8,22.2,195.4,21.5z"/>
		<path d="M200.1,34.9h-13v-2h9.2c-0.8-0.6-1.4-1.1-1.9-1.4c-0.7-0.4-1.2-0.7-1.8-0.9c-0.6-0.2-1.2-0.3-1.8-0.3
			c-0.4,0-0.8,0-1.2,0.1c0.2-0.6,0.5-1,0.9-1.3c0.5-0.5,1.2-0.7,1.9-0.7c0.8,0,1.7,0.4,2.7,1.1c0.5,0.4,1.4,1.1,2.5,2.1
			c0.9,0.8,1.5,1.3,1.8,1.3h0.7V34.9z"/>
		<path d="M204.9,34.9h-5.5v-2h4.4l-1.3-9.5l-0.6-0.3c0-0.5,0-1,0.1-1.5s0.2-0.9,0.4-1.3l0.2,0.1c0,0.4,0.2,0.8,0.7,1
			c0.4,0.1,0.8,0.3,1.1,0.4c0,0.4,0,0.8-0.1,1.2c-0.1,0.4-0.1,0.7-0.2,1l-0.5-0.2l1.3,8.8V34.9z"/>
		<path d="M208.7,32c0,0.6-0.1,1.2-0.3,1.7c-0.1,0.3-0.4,0.8-0.7,1.4l-0.2-0.1c0-0.2,0-0.5,0.1-0.8c0-0.3,0-0.5,0-0.6
			c0-0.8-0.1-1.9-0.2-3.3c-0.1-1.4-0.3-2.9-0.4-4.4c-0.1-0.9-0.2-1.9-0.3-2.8c0.2-0.3,0.3-0.7,0.5-1.1c0.2-0.4,0.4-0.7,0.5-1.1
			c0.1,0.9,0.3,2,0.5,3.5s0.3,2.8,0.4,4C208.6,30.1,208.7,31.2,208.7,32z"/>
	</g>
	<rect class="st1" width="282.6" height="55"/>
</g>
</svg>
