<?xml version="1.0" encoding="utf-8"?>
<!-- Generator: Adobe Illustrator 22.0.1, SVG Export Plug-In . SVG Version: 6.00 Build 0)  -->
<svg version="1.1" id="Layer_1" xmlns="http://www.w3.org/2000/svg" xmlns:xlink="http://www.w3.org/1999/xlink" x="0px" y="0px"
	 viewBox="0 0 84.6 55" style="enable-background:new 0 0 84.6 55;" xml:space="preserve">
<style type="text/css">
	.st0{fill:#542C0B;}
	.st1{fill:none;}
</style>
<g>
	<polygon class="st0" points="39.2,24.1 37.3,23.1 36.5,24.7 38.3,25.7 	"/>
	<polygon class="st0" points="36.6,25.1 34.8,24.2 34,25.8 35.7,26.7 	"/>
	<path class="st0" d="M37.9,28.6c-0.6,0-1.2,0.4-1.7,1.3c-0.5,0.7-0.7,1.6-0.7,2.4c0,0.7,0.3,1.2,0.8,1.6c0.4,0.2,0.9,0.4,1.6,0.4
		c0.3,0,0.6,0,0.9-0.1c0.3-0.1,0.6-0.2,0.9-0.3c0,0.2,0.1,0.3,0.1,0.5c0,0.1,0,0.4,0,0.8c0,1.1-0.7,1.9-2.1,2.5
		c-1.2,0.5-2.6,0.8-4.2,0.8c-1.5,0-2.6-0.2-3.4-0.6c-0.8-0.5-1.2-1.2-1.2-2.2c0-0.5,0.1-1,0.2-1.5c0.1-0.4,0.2-0.8,0.4-1.4
		c0.1-0.4,0.3-0.9,0.5-1.4l-0.5-0.2c-0.5,0.9-0.8,1.8-1.1,2.7c-0.3,1-0.4,1.9-0.4,2.8c0,1.3,0.4,2.3,1.4,2.9
		c0.9,0.6,2.2,0.9,3.9,0.9c2.1,0,3.8-0.3,5.1-1c1.4-0.8,2.1-1.9,2.1-3.4h0.2v-2.2c0-1.3-0.3-2.5-0.7-3.5
		C39.5,29.2,38.8,28.6,37.9,28.6z M38,32.1c-0.1,0.1-0.3,0.1-0.5,0.1S37,32.1,36.8,32s-0.3-0.3-0.3-0.5c0-0.3,0.1-0.5,0.3-0.7
		s0.4-0.3,0.8-0.3c0.3,0,0.6,0.2,0.8,0.5c0.1,0.1,0.2,0.4,0.4,0.9C38.5,32,38.3,32.1,38,32.1z"/>
	<path class="st0" d="M56.1,28.3c-0.5-1.4-1.2-2.1-2.1-2.1c-0.6,0-1.2,0.4-1.6,1.3c-0.4,0.7-0.6,1.7-0.6,2.7c0,0.6,0.2,1.1,0.6,1.4
		c0.3,0.3,0.8,0.4,1.3,0.4c0.3,0,0.6,0,0.9-0.1c0.2-0.1,0.5-0.2,0.9-0.3c0.1,0.6,0.2,1.2,0.2,1.9h-5.4c0-1-0.1-1.7-0.3-2.3
		c-0.3-0.7-0.7-1.1-1.4-1.1c-0.6,0-1.2,0.3-1.6,1.1c-0.3,0.6-0.5,1.3-0.5,2.1s0.3,1.4,0.9,1.8c0.5,0.3,1.3,0.5,2.3,0.5
		c-0.6,0.8-1.1,1.3-1.4,1.7c-0.6,0.7-1.3,1.2-1.9,1.6c-0.8,0.5-1.7,0.7-2.6,0.7c-0.3,0-0.7-0.1-1.2-0.2c-0.4-0.1-0.9-0.2-1.3-0.3
		l-0.2,0.4c0.5,0.2,1,0.3,1.5,0.5c0.6,0.2,1.1,0.3,1.5,0.4c0.5,0.1,1,0.2,1.5,0.2c1.3,0,2.5-0.6,3.5-2c0.8-1,1.2-2.1,1.3-3.1h6.2
		h0.1v-3C56.7,30.9,56.5,29.5,56.1,28.3z M54.2,30c-0.1,0.1-0.3,0.1-0.5,0.1c-0.7,0-1-0.3-1-0.9c0-0.2,0.1-0.4,0.2-0.6
		c0.1-0.2,0.3-0.3,0.5-0.3c0.3,0,0.6,0.2,0.9,0.6c0.2,0.3,0.4,0.5,0.5,0.8C54.6,29.8,54.4,29.9,54.2,30z M48.3,33.2
		c-0.3-0.2-0.5-0.4-0.5-0.8c0-0.2,0-0.4,0.2-0.5c0.1-0.1,0.3-0.2,0.5-0.2c0.3,0,0.5,0.2,0.7,0.4c0.2,0.3,0.4,0.8,0.6,1.4h-0.1v0.1
		C49,33.6,48.5,33.5,48.3,33.2z"/>
	<polygon class="st0" points="55.1,23.1 53.2,22.1 52.4,23.7 54.2,24.7 	"/>
</g>
<rect class="st1" width="84.6" height="55"/>
</svg>
