<?xml version="1.0" encoding="utf-8"?>
<!-- Generator: Adobe Illustrator 19.2.0, SVG Export Plug-In . SVG Version: 6.00 Build 0)  -->
<svg version="1.1" id="Layer_1" xmlns="http://www.w3.org/2000/svg" xmlns:xlink="http://www.w3.org/1999/xlink" x="0px" y="0px"
	 viewBox="0 0 282.6 55" style="enable-background:new 0 0 282.6 55;" xml:space="preserve">
<style type="text/css">
	.st0{fill:#BA0017;}
	.st1{fill:none;}
</style>
<g>
	<g>
		<path d="M82.9,33.6c0,0.4-0.2,0.7-0.6,1c-0.7,0.3-1.8,0.7-3.3,1.3c0-0.3,0.2-0.6,0.5-0.9C80.2,34.7,81.3,34.3,82.9,33.6z"/>
		<path d="M84.2,31.6h-5c-0.4,0-0.8-0.1-1.2-0.4s-0.5-0.5-0.5-0.9c0-0.3,0-0.5,0-0.8c0-0.2,0.1-0.5,0.2-0.8h0.3
			c0.1,0.3,0.2,0.5,0.4,0.7c0.2,0.1,0.4,0.2,0.7,0.2h4.3c0-1.3-0.2-2.4-0.6-3.2c-0.5-1-1.2-1.7-2.3-2l0.2-2.2c1.3,0.6,2.2,1.7,2.8,3
			c0.4,1.1,0.7,2.6,0.7,4.4V31.6z"/>
		<path d="M88.9,13.8c0,0.3-0.2,0.7-0.6,1c-0.7,0.3-1.8,0.7-3.3,1.3c0-0.3,0.2-0.6,0.5-0.9C86.1,14.9,87.3,14.4,88.9,13.8z"/>
		<path d="M88.9,31.6h-5.5v-2h4.4l-1.3-9.5l-0.6-0.3c0-0.5,0-1,0.1-1.5c0.1-0.5,0.2-0.9,0.4-1.3l0.2,0.1c0,0.4,0.2,0.8,0.7,1
			c0.4,0.2,0.8,0.3,1.1,0.4c0,0.4,0,0.8-0.1,1.2c-0.1,0.4-0.1,0.7-0.2,1l-0.5-0.2l1.3,8.8V31.6z"/>
		<path d="M94.8,18.3c0,0.3-0.2,0.7-0.6,1c-0.7,0.3-1.8,0.7-3.3,1.3c0-0.3,0.2-0.6,0.5-0.9C92,19.4,93.1,18.9,94.8,18.3z"/>
		<path d="M94.5,31.6h-6.4v-2h5.6c0-0.9-0.1-1.6-0.3-2c-0.1-0.3-0.5-0.8-1.1-1.4l0.9-1.8c0.5,0.7,0.9,1.2,1,1.6
			c0.2,0.6,0.3,1.5,0.3,2.9V31.6z M93.4,34.3l-0.9,1.6L90.7,35l0.8-1.6L93.4,34.3z"/>
		<path d="M99.3,31.6h-5.5v-2h4.4l-1.3-9.5l-0.6-0.3c0-0.5,0-1,0.1-1.5c0.1-0.5,0.2-0.9,0.4-1.3l0.2,0.1c0,0.4,0.2,0.8,0.7,1
			c0.4,0.2,0.8,0.3,1.1,0.4c0,0.4,0,0.8-0.1,1.2c-0.1,0.4-0.1,0.7-0.2,1L98,20.6l1.3,8.8V31.6z"/>
		<path d="M103.1,28.7c0,0.6-0.1,1.2-0.3,1.7c-0.1,0.3-0.4,0.8-0.7,1.4l-0.2-0.1c0-0.2,0-0.5,0.1-0.8c0-0.3,0-0.5,0-0.6
			c0-0.8-0.1-1.9-0.2-3.3c-0.1-1.4-0.3-2.9-0.4-4.4c-0.1-0.9-0.2-1.9-0.3-2.8c0.2-0.3,0.3-0.7,0.5-1.1c0.2-0.4,0.4-0.7,0.5-1.1
			c0.1,0.9,0.3,2,0.5,3.5s0.3,2.8,0.4,4C103,26.8,103.1,28,103.1,28.7z"/>
		<path class="st0" d="M117.4,12.6c0,0.3-0.2,0.7-0.6,1c-0.7,0.3-1.8,0.7-3.3,1.3c0-0.3,0.2-0.6,0.5-0.9
			C114.7,13.8,115.8,13.3,117.4,12.6z"/>
		<path class="st0" d="M123.8,31.6h-14.2v-2l1.7,0c0.5,0,1-0.1,1.4-0.2c0.5-0.2,1.1-0.4,1.7-0.8c0.1-0.3,0.2-0.7,0.3-1.1
			c0.1-0.4,0.1-0.7,0.1-1.1c0-0.8-0.1-1.7-0.2-2.7c-0.1-0.7-0.3-1.5-0.5-2.5c-0.1-0.5-0.3-1.1-0.5-1.8l-0.7-0.3
			c0.1-0.4,0.1-0.9,0.2-1.3c0.1-0.4,0.2-0.8,0.4-1.2c0.1,0.4,0.4,0.6,0.8,0.8c0.4,0.2,0.8,0.3,1.3,0.3c-0.1,0.8-0.1,1.3-0.2,1.5
			c0,0.2-0.1,0.5-0.2,0.8c-0.1,0-0.2,0-0.4-0.1l-0.1,0c0.3,0.9,0.5,1.8,0.6,2.7c0.2,0.9,0.3,1.7,0.3,2.3c0,0.5-0.1,1.1-0.2,1.8
			c0,0.2-0.1,0.6-0.2,1.1c1.3-0.8,2.1-1.2,2.5-1.4c1.1-0.5,2.1-0.8,2.9-0.8c1,0,1.8,0.3,2.3,0.9c0.5,0.5,0.7,1.3,0.7,2.3V31.6z
			 M122.1,28.8c0-0.4-0.2-0.7-0.6-0.9c-0.4-0.2-1-0.3-1.7-0.3c-0.5,0-1.2,0.1-1.9,0.4c-0.6,0.2-1.2,0.5-1.9,0.8
			c-0.5,0.3-1,0.5-1.5,0.9h4.9C121.2,29.6,122.1,29.3,122.1,28.8z"/>
		<path class="st0" d="M130.5,18.9c0,0.5-0.2,0.9-0.5,1.2c-0.3,0.4-0.8,0.6-1.3,0.6c-0.4,0-0.7-0.1-0.9-0.3
			c-0.2-0.2-0.3-0.5-0.3-0.9c0-0.6,0.1-1.1,0.4-1.5s0.7-0.7,1.1-0.7c0.4,0,0.7,0.2,1,0.5S130.5,18.5,130.5,18.9z M129.8,19.2
			c0-0.2-0.1-0.4-0.4-0.7c-0.3-0.3-0.5-0.4-0.7-0.4c-0.2,0-0.4,0.1-0.5,0.3c-0.1,0.2-0.2,0.3-0.2,0.5c0,0.3,0.1,0.4,0.4,0.5
			c0.2,0.1,0.5,0.1,0.8,0.1c0.2,0,0.3,0,0.5-0.1C129.7,19.5,129.8,19.4,129.8,19.2z"/>
		<path class="st0" d="M136,31.6h-0.9c-0.5,0-0.9-0.1-1.2-0.2s-0.7-0.3-0.9-0.6c-0.4,0.3-0.7,0.5-0.9,0.5c-0.4,0.1-0.9,0.2-1.6,0.2
			h-0.7c-0.4,0-0.8-0.1-1.2-0.2c-0.3-0.1-0.6-0.3-0.9-0.5c-0.4,0.3-0.7,0.5-1,0.6c-0.3,0.1-0.8,0.2-1.5,0.2H123v-2h2.2
			c0.6,0,1-0.1,1.3-0.2c0.4-0.2,0.7-0.5,0.7-1c0-0.2,0-0.4,0-0.7c0-0.2-0.1-0.5-0.1-0.7l0.5-0.7c0.2,0.7,0.4,1.2,0.5,1.5
			c0.2,0.5,0.5,1,0.8,1.2c0.3,0.3,0.8,0.5,1.2,0.5h0.8c0.6,0,1-0.1,1.2-0.3c0.3-0.2,0.4-0.5,0.4-0.9c0-0.2,0-0.5,0-0.7
			c0-0.2-0.1-0.5-0.1-0.7l0.5-0.7l0.2,1.1c0.2,0.8,0.4,1.4,0.7,1.7c0.3,0.3,0.6,0.4,1,0.4c0.2,0,0.4-0.1,0.5-0.2
			c0.1-0.1,0.2-0.3,0.2-0.5c0-0.4-0.2-0.9-0.5-1.3c-0.1-0.1-0.2-0.3-0.6-0.7l0.7-1.2c0.3,0.5,0.5,0.9,0.6,1.2c0.2,0.5,0.2,1.2,0.2,2
			V31.6z"/>
		<path class="st0" d="M145.5,18.3c0,0.3-0.2,0.7-0.6,1c-0.7,0.3-1.8,0.7-3.3,1.3c0-0.3,0.2-0.6,0.5-0.9
			C142.8,19.4,143.9,18.9,145.5,18.3z"/>
		<path class="st0" d="M146,30.9c0,1.2-0.5,2.5-1.4,3.7c-1,1.4-2.2,2-3.5,2c-0.5,0-1-0.1-1.5-0.2c-0.4-0.1-0.9-0.2-1.5-0.4
			c-0.5-0.2-1-0.3-1.5-0.5l0.2-0.4c0.4,0.1,0.9,0.2,1.3,0.3c0.5,0.1,0.9,0.2,1.2,0.2c0.9,0,1.8-0.2,2.6-0.7c0.6-0.4,1.3-0.9,1.9-1.6
			c0.3-0.4,0.8-0.9,1.4-1.7c-1,0-1.8-0.2-2.3-0.5c-0.6-0.4-0.9-1-0.9-1.8c0-0.8,0.2-1.5,0.5-2.1c0.4-0.8,1-1.1,1.6-1.1
			c0.7,0,1.1,0.4,1.4,1.1c0.2,0.6,0.3,1.4,0.3,2.5V30.9z M145.3,29.7c-0.2-0.7-0.4-1.2-0.6-1.5c-0.2-0.2-0.4-0.4-0.7-0.4
			c-0.2,0-0.4,0.1-0.5,0.2s-0.2,0.3-0.2,0.5c0,0.4,0.2,0.6,0.5,0.8C144,29.6,144.5,29.7,145.3,29.7z"/>
		<path d="M166.3,25.9c0,0.2,0,0.5-0.1,0.7s-0.1,0.4-0.1,0.5c-0.3-0.3-0.6-0.6-0.9-0.8c-0.4-0.2-0.7-0.3-1.1-0.3
			c-0.7,0-1.3,0.4-2.1,1.1c-0.7,0.7-1,1.3-1,1.7c0,0.1,0.1,0.2,0.2,0.3s0.4,0.1,0.8,0.1h0.9c0.5,0,0.9,0,1.2,0c0.3,0,0.6,0,0.9,0.1
			c0.4,0.1,0.5,0.3,0.5,0.8c0,1.9-0.8,3.3-2.5,4.3c-1.5,0.9-3.5,1.3-6.1,1.3c-1.3,0-2.4-0.3-3.1-0.8c-0.8-0.6-1.1-1.4-1.1-2.5
			c0-0.8,0.1-1.6,0.4-2.4c0.2-0.7,0.5-1.3,0.8-2c0,0,0.3-0.5,0.7-1.3l0.5,0.2c-0.5,0.8-0.8,1.6-1.1,2.4c-0.3,0.7-0.4,1.4-0.4,1.9
			c0,0.9,0.3,1.6,0.9,2.1c0.6,0.5,1.5,0.7,2.7,0.7c0.9,0,1.9-0.2,3.1-0.5c1-0.3,1.9-0.7,2.8-1.1c0.8-0.4,1.2-0.7,1.2-0.9
			c0-0.1,0-0.2-0.1-0.3S164.2,31,164,31h-2.6c-0.3,0-0.6-0.1-0.9-0.3c-0.2-0.2-0.4-0.5-0.4-0.9c0-0.5,0.2-1.2,0.6-2
			c0.4-0.9,1-1.7,1.6-2.3c0.8-0.8,1.5-1.1,2.3-1.1c0.5,0,0.9,0.1,1.2,0.4C166.2,25,166.3,25.4,166.3,25.9z M159.5,38l-0.9,1.6
			l-1.8-0.9l0.8-1.6L159.5,38z M162.1,37l-0.9,1.6l-1.8-1l0.8-1.6L162.1,37z"/>
		<path d="M178.3,31.6c0,0.8-0.4,1.7-1.1,2.6c-0.6,0.8-1.4,1.4-2.3,2c-0.9,0.5-1.6,0.8-2.1,0.8c-0.5,0-1.1-0.1-1.7-0.2
			c-0.5-0.1-1-0.3-1.6-0.5c-0.5-0.2-1.1-0.4-1.6-0.6l0.2-0.4c0.5,0.1,1,0.2,1.5,0.3c0.5,0.1,1,0.2,1.5,0.2c1,0,2-0.3,3-0.9
			c0.9-0.6,1.7-1.3,2.4-2.1c0.7-0.9,1-1.6,1-2.3c0-0.6-0.2-1.2-0.5-1.9c-0.3-0.5-0.7-1.1-1.2-1.6l0.6-1.8c0.6,0.6,1.1,1.1,1.4,1.7
			c0.3,0.6,0.5,1.4,0.5,2.2V31.6z"/>
		<path d="M185.8,18.3c0,0.3-0.2,0.7-0.6,1c-0.7,0.3-1.8,0.7-3.3,1.3c0-0.3,0.2-0.6,0.5-0.9C183.1,19.4,184.2,18.9,185.8,18.3z"/>
		<path d="M190.5,31.6h-13v-2h9.2c-0.8-0.6-1.4-1.1-1.9-1.4c-0.7-0.4-1.2-0.7-1.8-0.9c-0.6-0.2-1.2-0.3-1.8-0.3
			c-0.4,0-0.8,0-1.2,0.1c0.2-0.6,0.5-1,0.9-1.3c0.5-0.5,1.2-0.7,1.9-0.7c0.8,0,1.7,0.4,2.7,1.1c0.5,0.4,1.4,1.1,2.5,2.1
			c0.9,0.8,1.5,1.3,1.8,1.3h0.7V31.6z M184.8,34l-0.8,1.6l-1.8-0.9L183,33L184.8,34z"/>
		<path d="M196,15.5c0,0.5-0.2,0.9-0.5,1.2c-0.3,0.4-0.8,0.6-1.3,0.6c-0.4,0-0.7-0.1-0.9-0.3c-0.2-0.2-0.3-0.5-0.3-0.9
			c0-0.6,0.1-1.1,0.4-1.5s0.7-0.7,1.1-0.7c0.4,0,0.7,0.2,1,0.5S196,15.1,196,15.5z M195.3,15.9c0-0.2-0.1-0.4-0.4-0.7
			c-0.3-0.3-0.5-0.4-0.7-0.4c-0.2,0-0.4,0.1-0.5,0.3c-0.1,0.2-0.2,0.3-0.2,0.5c0,0.3,0.1,0.4,0.4,0.5c0.2,0.1,0.5,0.1,0.8,0.1
			c0.2,0,0.3,0,0.5-0.1C195.3,16.1,195.3,16,195.3,15.9z"/>
		<path d="M196.1,31.6h-6.4v-2h5.6c0-0.9-0.1-1.6-0.3-2c-0.1-0.3-0.5-0.8-1.1-1.4l0.9-1.8c0.5,0.7,0.9,1.2,1,1.6
			c0.2,0.6,0.3,1.5,0.3,2.9V31.6z M193.5,21.5l-0.9,1.6l-1.8-0.9l0.8-1.6L193.5,21.5z M196,20.5l-0.9,1.6l-1.8-1l0.8-1.6L196,20.5z"
			/>
		<path d="M202.5,18.3c0,0.3-0.2,0.7-0.6,1c-0.7,0.3-1.8,0.7-3.3,1.3c0-0.3,0.2-0.6,0.5-0.9C199.8,19.4,200.9,18.9,202.5,18.3z"/>
		<path d="M205.2,31.6H204c-0.5,0-1.1-0.1-1.7-0.3c-0.7-0.3-1.4-0.6-1.9-1.1c-0.4,0.5-0.9,0.9-1.3,1.1s-1.1,0.3-2,0.3h-1.8v-2h1.7
			c0.7,0,1.3-0.2,1.8-0.5c0.4-0.3,0.8-0.6,1.1-1.1c0.5-0.7,1-1.2,1.7-1.7c0.6-0.4,1.1-0.7,1.7-0.8c0.5,0.8,0.9,1.5,1.2,2.1
			c0.4,0.9,0.6,1.5,0.6,2.1V31.6z M203.9,29.4c-0.1-0.4-0.2-0.9-0.4-1.3c-0.2-0.4-0.4-0.7-0.7-1.1c-0.4,0.1-0.7,0.3-0.9,0.5
			c-0.2,0.2-0.4,0.4-0.6,0.8c0.3,0.3,0.6,0.6,1.1,0.8c0.5,0.2,1,0.4,1.4,0.4L203.9,29.4z"/>
	</g>
	<rect class="st1" width="282.6" height="55"/>
</g>
</svg>
