<?xml version="1.0" encoding="utf-8"?>
<!-- Generator: Adobe Illustrator 22.0.1, SVG Export Plug-In . SVG Version: 6.00 Build 0)  -->
<svg version="1.1" id="Layer_1" xmlns="http://www.w3.org/2000/svg" xmlns:xlink="http://www.w3.org/1999/xlink" x="0px" y="0px"
	 viewBox="0 0 409.1 51.4" style="enable-background:new 0 0 409.1 51.4;" xml:space="preserve">
<style type="text/css">
	.st0{opacity:0.2;}
	.st1{fill:#CC4A6C;}
</style>
<g>
	<g class="st0">
		<path d="M35.6,26.9c1.1-0.8,2-1.8,2.8-2.9c-0.8-1.2-1.9-2.4-3.2-3.5l-2.9,3C33.5,24.6,34.6,25.7,35.6,26.9z"/>
		<path d="M29.7,27.1c1.1-0.8,2-1.8,2.8-2.9c-0.8-1.2-1.9-2.4-3.2-3.5l-2.9,3C27.5,24.9,28.6,26,29.7,27.1z"/>
		<path d="M57.5,21c1.1-0.8,2-1.8,2.8-2.9c-0.8-1.2-1.9-2.4-3.2-3.5l-2.9,3C55.3,18.8,56.4,19.9,57.5,21z"/>
		<path d="M61.1,26.9c1.1-0.8,2-1.8,2.8-2.9c-0.8-1.2-1.9-2.4-3.2-3.5l-2.9,3C58.9,24.6,60,25.7,61.1,26.9z"/>
		<path d="M55.1,27.1c1.1-0.8,2-1.8,2.8-2.9c-0.8-1.2-1.9-2.4-3.2-3.5l-2.9,3C52.9,24.9,54,26,55.1,27.1z"/>
		<path d="M75.9,25.5c-1.3,0-2.5,0.5-3.7,1.7c-2.8,2.6-2.3,6.5-4.5,7.9c-0.7,0.5-1.6,0.7-2.4,0.7h-0.4c0,0,0,0,0,0v0h-0.3
			c-1.2,0-2.2-0.3-3-0.8c-1.1-0.7-1.4-1.6-1.4-2.9c0-0.6,0.2-1.4,0.5-2.6l-0.2-0.2c-0.9,0.5-1.6,1-2.3,1.5c-0.6,1.3-0.8,3.1-2.3,4.1
			c-0.9,0.6-2,1-3.9,1h-0.4c0,0,0,0,0,0v0H51c-3,0-3.7-1.2-3.7-3.9c0-1.3,0.1-3.8,0.1-6.8c0-4,0-8.7-0.5-12.7l-0.4-0.2
			c-1.1,0.8-2.1,1.9-3.2,2.9c0.5,5.3,0.8,11.7,0.8,16.8c0,2.4-1.3,3.8-4.2,3.8h-0.6c0,0,0,0,0,0v0H39c-1.2,0-2.2-0.3-3-0.8
			c-1.1-0.7-1.4-1.6-1.4-2.9c0-0.6,0.2-1.4,0.5-2.6L35,29.3c-0.9,0.5-1.6,1-2.3,1.5c-0.6,1.3-0.8,3.1-2.3,4.1c-0.9,0.6-2,1-3.9,1
			h-0.4c0,0,0,0,0,0v0h-5.2c0.3-0.9,0.5-1.8,0.5-2.8c0-2.5-1.4-5.2-3.1-8l-1.7-2.8h-0.5c-2.1,3.4-3.7,7.9-4.8,13.6H8.2c0,0,0,0,0,0
			v0H7.8c-2.6,0-3.7-1-3.7-3.8c0-2.3,0.1-3.8,0.1-6.8c0-4-0.1-8.6-0.5-12.7l-0.4-0.2c-1.1,1-2.2,2-3.3,3.1c0.7,7,1,15.3,1,18.5
			c0.1,5.5,2.9,7.5,6.7,7.5h0.5v0c0,0,0,0,0,0c0.5,0,1.1,0,2.3-0.1c0,6.1,4.2,9.4,7.7,9.4c3.9,0,6-4,6-6.6c0-1-0.1-1.9-0.5-2.9
			c1,0.1,1.6,0.1,2,0.1h0.4v0c0,0,0,0,0,0h0.4c2.5,0,4.4-1.1,5.9-3.1h0.1c1.5,2.6,3.9,3.1,6.5,3.1h0.4v0c0,0,0,0,0,0h0.4
			c2.4,0,4.1-1.1,5.4-3.2h0.1c1.2,2.4,3.4,3.2,5.9,3.2h0.4v0c0,0,0,0,0,0h0.4c2.5,0,4.4-1.1,5.9-3.1H58c1.5,2.6,3.9,3.1,6.5,3.1h0.3
			h0h0.3c2.3,0,3.9-1.2,4.7-3.3h0.1c2.5,2,5.3,3.1,7.5,3.1c3.8,0,4.8-5,4.8-5.4C82.2,32.7,80.6,25.5,75.9,25.5z M15.6,28.7h0.1
			c1.8,2.7,2.9,4.9,2.9,6c0,0.9-1.9,1.1-5.2,1.1C14,33.7,14.7,31.4,15.6,28.7z M19.5,46.3c-2.7,0-5.6-2.6-6.2-5
			c1.1-0.2,2.1-0.3,3-0.3c1.6,0,2.8,0.6,3.6,1.7c0.7,0.9,1,1.9,1,2.7C20.8,46,20.3,46.3,19.5,46.3z M78.2,35.8c-2.2,0-4.4-1.1-6.6-3
			c0.8-1.5,1.8-2.4,3.3-2.4c1.9,0,3.6,2,4.2,5.2C79.1,35.7,78.7,35.8,78.2,35.8z"/>
		<path d="M90.3,13c-1.1,1-2.2,2.2-3.3,3.6c0.7,6.2,1,12.3,1,18.4c0,2.7-0.1,4.8-0.4,6.8l0.6,0.5c1-1.1,1.7-2.2,2.3-3.3
			c0.6-1,0.9-3.9,0.9-8.4c0-5.5-0.1-11.2-0.7-17.3L90.3,13z"/>
		<path d="M93.4,8.4l-0.1-0.3c-1,0.1-1.8,0.1-2.9,0.1c-2.4,0-3.7-0.8-3.7-1.5c0-0.4,0.8-1,1.9-1c0.4,0,0.7,0.1,1,0.4L90.3,7h0.4
			c0.5-0.8,0.8-1.5,0.8-2.1c0-1-0.8-1.6-2-1.6S87.1,3.9,86,4.8c-1.2,1.1-1.8,2.3-1.8,3.2c0,1.1,0.6,1.8,1.7,2.3
			c-0.4,0.7-0.8,1.4-1.1,2.1l0.3,0.3c1.6-1,4-1.6,7.1-2C92.7,9.9,93.1,9.2,93.4,8.4z"/>
		<path d="M103.9,25c-1.7,0-3.3,1-4.8,2.6c-1.5,1.8-2.2,3.9-2.2,6.3c0,3.2,2.2,5.7,6.5,5.7c1.2,0,2.4-0.1,3.3-0.4
			c-0.9,1.7-2.2,3.2-4.1,4.6c-2.3,1.7-4.6,2.6-7,2.6c-1.2,0-2.3-0.3-3.3-0.7l-0.6,1.6c2.9,2,5.7,3.2,8.4,3.2c2,0,4.2-1,6.6-4.3
			c1.8-2.6,2.9-5.7,2.9-9.8C109.8,29.8,107.1,25,103.9,25z M104.7,34.5c-3,0-5.2-1.4-5.2-2.7c0-0.9,1.2-2,3.1-2c1.7,0,3.7,2,4.4,4.5
			C106.4,34.4,105.6,34.5,104.7,34.5z"/>
		<path d="M166.7,28.8l-0.1-0.2h-2.1c-2.4,0-4.2-0.3-7-1.3c-3.3-1.2-5.9-2-7.8-2c-2.9,0-5.5,1.6-6.2,5.1l1.8,3.6h0.6l1.3-3
			c0.5-0.3,1.3-0.5,2.4-0.5c1.6,0,4.1,0.5,7.2,1.5v0.1c-4.5,2.8-8.3,3.7-14.3,3.7H142c0,0,0,0,0,0v0h-0.4c-3.2,0-4.7-2.3-6.2-5.6
			H135c-0.7,1.2-1.4,2.7-2,4.2c1,2.1,2,3.8,3.1,5.2c-0.3,1.7-1.4,3.7-3.3,5.4c-1.8,1.6-3.8,2.6-6.2,2.6c-0.6,0-1.5-0.1-2.5-0.5
			l-0.6,1.4c3,2,5.4,2.8,7.5,2.8c2.3,0,4.2-1.6,5.7-4.1c1-1.6,1.8-3.5,1.8-6.4c0.9,0.3,1.8,0.5,2.9,0.5h0.5v0c0,0,0,0,0,0h0.4
			c8.3,0,12-2.5,17-7.1c1.5-1.4,2.9-1.7,4.9-1.7C165.3,31.3,166.1,29.9,166.7,28.8z"/>
		<path d="M149.7,48.2c1.5,1.1,2.9,2.1,4.1,3.1c1.1-0.9,1.9-2.1,2.5-3.5c-1.2-1.2-2.5-2.3-4-3.3L149.7,48.2z"/>
		<path d="M174.8,12.5l-0.3-0.2c-1,0.7-1.7,1.4-2.2,2.1s-0.8,1.6-0.8,2.6c0,1.4,0.9,7.7,0.9,14.8c0,1.5,0,2.3-0.5,2.8
			c-0.8,0.8-2.2,1.2-4,1.2h-0.4c0,0,0,0,0,0v0h-0.4c-2.5,0-4.7-0.1-4.9-2.3l-0.1-0.1l-1.6,1.2c-0.1,0.6-0.1,1.1-0.1,1.7
			c0,1.8,0.5,3,1.5,4c0.8,0.8,2.5,1.2,5.2,1.2h0.4v0c0,0,0,0,0,0h0.4c2.5,0,4.1-1,5.2-2.5c0.6-0.9,1-1.9,1.4-3c0.6-1.8,1-3.7,1-6.3
			c0-2.8-0.1-5.4-0.2-7.6l2.5-1.9C175.9,16.7,174.8,14.4,174.8,12.5z"/>
		<path d="M184.6,13c-1.1,1-2.2,2.2-3.3,3.6c0.7,6.2,1,12.3,1,18.4c0,2.7-0.1,4.8-0.4,6.8l0.6,0.5c1-1.1,1.7-2.2,2.3-3.3
			c0.6-1,0.9-3.9,0.9-8.4c0-5.5-0.1-11.2-0.7-17.3L184.6,13z"/>
		<path d="M228.6,20.2c-1.6,0-3.1,0.9-4.5,2.4c-1.4,1.6-2.2,3.5-2.2,5.7c0,3.7,2.7,5.4,7.5,5.4c1,0,2,0,3-0.1c0,0.8-0.5,1.2-1.6,1.5
			c-4.1,1-8.4,1.6-13,1.6c-8.5,0-12.6-3.3-12.6-7.8c0-1,0.2-2.2,0.7-3.6l-1.8-0.7c-1,2.2-1.7,4.8-1.7,8c0,5.5,4.3,10,13.7,10
			c5,0,9.3-0.7,13.2-1.7c2-0.5,3.4-1.1,4.2-1.7c1-2.2,1.5-4.5,1.5-6.5C234.9,26.7,232.4,20.2,228.6,20.2z M224.2,26.5
			c0-0.8,1.1-1.9,3.1-1.9c1.9,0,3.3,1.7,4.4,4.7C227.2,29.2,224.2,28.1,224.2,26.5z"/>
		<path d="M230.4,14.8c-1.2-1.2-2.6-2.4-4.1-3.4l-2.7,3.7c1.6,1.1,3,2.2,4.2,3.2C228.9,17.4,229.8,16.2,230.4,14.8z"/>
		<path d="M247.8,25c-1.7,0-3.3,1-4.8,2.6c-1.5,1.8-2.2,3.9-2.2,6.3c0,3.2,2.2,5.7,6.5,5.7c1.2,0,2.4-0.1,3.3-0.4
			c-0.9,1.7-2.2,3.2-4.1,4.6c-2.3,1.7-4.6,2.6-7,2.6c-1.2,0-2.3-0.3-3.3-0.7l-0.6,1.6c2.9,2,5.7,3.2,8.4,3.2c2,0,4.2-1,6.6-4.3
			c1.8-2.6,2.9-5.7,2.9-9.8C253.7,29.8,251,25,247.8,25z M248.6,34.5c-3,0-5.2-1.4-5.2-2.7c0-0.9,1.2-2,3.1-2c1.7,0,3.7,2,4.4,4.5
			C250.2,34.4,249.5,34.5,248.6,34.5z"/>
		<path d="M291,24.7c-3.8,0-7.6,2.9-11.4,7.2l-0.1-0.1c0.7-1.8,1-3.8,1-5.9c0-1.3-0.1-3.4-0.1-5.7l2.5-1.9c-2.5-3.9-3.1-5.9-3.1-7.6
			l-0.3-0.2c-2.2,1.8-2.9,2.9-2.9,4.2c0,1.3,0.3,2.6,0.4,3.9c0.3,3.4,0.4,6.3,0.4,9.1c0,2.7-0.1,5-0.3,6.9l-0.9,1.2h-2.9
			c0,0,0,0,0,0v0h-0.4c-3.2,0-4.7-2.3-6.2-5.6h-0.4c-0.7,1.2-1.4,2.7-2,4.2c1,2.1,2,3.8,3.1,5.2c-0.3,1.7-1.4,3.7-3.3,5.4
			c-1.8,1.6-3.8,2.6-6.2,2.6c-0.6,0-1.5-0.1-2.5-0.5l-0.6,1.4c3,2,5.4,2.8,7.5,2.8c2.3,0,4.2-1.6,5.7-4.1c1-1.6,1.8-3.5,1.8-6.4
			c0.9,0.3,1.8,0.5,2.9,0.5h0.5v0c0,0,0,0,0,0h0.4c13.4,0,19-1.2,21.6-3.6c1.4-1.6,2.3-4.6,2.3-6.2C297.5,28,295.1,24.7,291,24.7z
			 M279.2,35.8c4.1-4.1,7.5-5.9,10.5-5.9c2.4,0,4.2,1.8,4.6,3.2C291.9,35,286.7,35.8,279.2,35.8z"/>
		<path d="M291.6,19c-0.9-1.1-2-2.2-3.4-3.3l-2.7,3.2c1.2,1,2.4,2.1,3.5,3.2C290,21.1,290.9,20.1,291.6,19z"/>
		<path d="M341.7,14.8c-1.2-1.2-2.6-2.4-4.1-3.4l-2.7,3.7c1.6,1.1,3,2.2,4.2,3.2C340.2,17.4,341.1,16.2,341.7,14.8z"/>
		<path d="M339.8,20.2c-1.6,0-3.1,0.9-4.5,2.4c-1.4,1.6-2.2,3.5-2.2,5.7c0,3.7,2.7,5.4,7.5,5.4c1,0,2,0,3-0.1c0,0.8-0.5,1.2-1.6,1.5
			c-4.1,1-8.4,1.6-13,1.6c-8.5,0-12.6-3.3-12.6-7.8c0-1,0.2-2.2,0.7-3.6l-1.8-0.7c-1,2.2-1.7,4.8-1.7,8c0,5.5,4.3,10,13.7,10
			c5,0,9.3-0.7,13.2-1.7c2-0.5,3.4-1.1,4.2-1.7c1-2.2,1.5-4.5,1.5-6.5C346.2,26.7,343.7,20.2,339.8,20.2z M335.5,26.5
			c0-0.8,1.1-1.9,3.1-1.9c1.9,0,3.3,1.7,4.4,4.7C338.5,29.2,335.5,28.1,335.5,26.5z"/>
		<path d="M359.1,25c-1.7,0-3.3,1-4.8,2.6c-1.5,1.8-2.2,3.9-2.2,6.3c0,3.2,2.2,5.7,6.5,5.7c1.2,0,2.4-0.1,3.3-0.4
			c-0.9,1.7-2.2,3.2-4.1,4.6c-2.3,1.7-4.6,2.6-7,2.6c-1.2,0-2.3-0.3-3.3-0.7l-0.6,1.6c2.9,2,5.7,3.2,8.4,3.2c2,0,4.2-1,6.6-4.3
			c1.8-2.6,2.9-5.7,2.9-9.8C365,29.8,362.2,25,359.1,25z M359.8,34.5c-3,0-5.2-1.4-5.2-2.7c0-0.9,1.2-2,3.1-2c1.7,0,3.7,2,4.4,4.5
			C361.5,34.4,360.7,34.5,359.8,34.5z"/>
		<path d="M409,28.6h-2.1c-2.4,0-4.2-0.3-7-1.3c-3.3-1.2-5.9-2-7.8-2c-2.9,0-5.5,1.6-6.2,5.1l1.8,3.6h0.6l1.3-3
			c0.5-0.3,1.3-0.5,2.4-0.5c1.6,0,4.1,0.5,7.2,1.5v0.1c-4.5,2.8-8.3,3.7-14.3,3.7h-0.4c0,0,0,0,0,0v0H384c-3.2,0-4.7-2.3-6.2-5.6
			h-0.4c-0.7,1.2-1.4,2.7-2,4.2c1,2.1,2,3.8,3.1,5.2c-0.3,1.7-1.4,3.7-3.3,5.4c-1.8,1.6-3.8,2.6-6.2,2.6c-0.6,0-1.5-0.1-2.5-0.5
			l-0.6,1.4c3,2,5.4,2.8,7.5,2.8c2.3,0,4.2-1.6,5.7-4.1c1-1.6,1.8-3.5,1.8-6.4c0.9,0.3,1.8,0.5,2.9,0.5h0.5v0c0,0,0,0,0,0h0.4
			c8.3,0,12-2.5,17-7.1c1.5-1.4,2.8-1.7,4.8-1.7c1-1.4,1.8-2.8,2.4-3.9L409,28.6z"/>
	</g>
	<g>
		<path class="st1" d="M8.2,38.2H7.7c-3.9,0-6.6-2-6.7-7.5c0-3.2-0.3-11.6-1-18.5C1.1,11,2.2,10,3.3,9l0.4,0.2
			c0.5,4.1,0.5,8.7,0.5,12.7c0,3-0.1,4.5-0.1,6.8c0,2.8,1.1,3.8,3.7,3.8h0.4V38.2z"/>
		<path class="st1" d="M26.1,32.5v5.7h-0.4c-0.4,0-1,0-2-0.1c0.4,1,0.5,1.9,0.5,2.9c0,2.6-2.1,6.6-6,6.6c-3.5,0-7.7-3.3-7.7-9.4
			c-1.2,0.1-1.8,0.1-2.3,0.1c-1.4,0-2-1.5-2-2.8s0.6-2.8,2-2.8h3.2c1.1-5.6,2.7-10.2,4.8-13.6h0.5l1.7,2.8c1.7,2.8,3.1,5.5,3.1,8
			c0,0.9-0.2,1.8-0.5,2.8H26.1z M19.5,43c0.8,0,1.4-0.3,1.4-0.8c0-0.8-0.3-1.8-1-2.7c-0.8-1.1-2-1.7-3.6-1.7c-0.9,0-1.9,0.1-3,0.3
			C13.8,40.4,16.8,43,19.5,43z M18.6,31.4c0-1.1-1.1-3.3-2.9-6h-0.1c-0.9,2.7-1.6,5-2.2,7.1C16.7,32.5,18.6,32.3,18.6,31.4z"/>
		<path class="st1" d="M39.4,38.2H39c-2.6,0-5-0.5-6.5-3.1h-0.1c-1.5,2-3.5,3.1-5.9,3.1h-0.4c-1.4,0-2-1.5-2-2.8s0.6-2.8,2-2.8h0.4
			c1.9,0,2.9-0.4,3.9-1c1.6-1,1.7-2.8,2.3-4.1c0.7-0.5,1.4-1,2.3-1.5l0.2,0.2c-0.3,1.2-0.5,2-0.5,2.6c0,1.3,0.3,2.2,1.4,2.9
			c0.8,0.5,1.8,0.8,3,0.8h0.3V38.2z M29.2,17.4c1.3,1.2,2.4,2.4,3.2,3.5c-0.7,1.1-1.7,2-2.8,2.9c-1.1-1.2-2.2-2.3-3.3-3.4L29.2,17.4
			z M35.2,17.2c1.3,1.2,2.4,2.4,3.2,3.5c-0.7,1.1-1.7,2-2.8,2.9c-1.1-1.2-2.2-2.3-3.3-3.4L35.2,17.2z"/>
		<path class="st1" d="M51.6,38.2h-0.4c-2.5,0-4.7-0.8-5.9-3.2h-0.1c-1.2,2-3,3.2-5.4,3.2h-0.4c-1.4,0-2-1.5-2-2.8s0.6-2.8,2-2.8H40
			c2.9,0,4.2-1.4,4.2-3.8c0-5.1-0.3-11.4-0.8-16.8c1.1-1.1,2.1-2.1,3.2-2.9l0.4,0.2c0.5,4,0.5,8.7,0.5,12.7c0,3-0.1,5.5-0.1,6.8
			c0,2.7,0.7,3.9,3.7,3.9h0.6V38.2z"/>
		<path class="st1" d="M64.8,38.2h-0.4c-2.6,0-5-0.5-6.5-3.1h-0.1c-1.5,2-3.5,3.1-5.9,3.1h-0.4c-1.4,0-2-1.5-2-2.8s0.6-2.8,2-2.8H52
			c1.9,0,2.9-0.4,3.9-1c1.6-1,1.7-2.8,2.3-4.1c0.7-0.5,1.4-1,2.3-1.5l0.2,0.2c-0.3,1.2-0.5,2-0.5,2.6c0,1.3,0.3,2.2,1.4,2.9
			c0.8,0.5,1.8,0.8,3,0.8h0.3V38.2z M54.7,17.4c1.3,1.2,2.4,2.4,3.2,3.5c-0.7,1.1-1.7,2-2.8,2.9c-1.1-1.2-2.2-2.3-3.3-3.4L54.7,17.4
			z M57,11.3c1.3,1.2,2.4,2.4,3.2,3.5c-0.7,1.1-1.7,2-2.8,2.9c-1.1-1.2-2.2-2.3-3.3-3.4L57,11.3z M60.6,17.2
			c1.3,1.2,2.4,2.4,3.2,3.5c-0.7,1.1-1.7,2-2.8,2.9c-1.1-1.2-2.2-2.3-3.3-3.4L60.6,17.2z"/>
		<path class="st1" d="M69.8,34.8c-0.8,2.1-2.4,3.3-4.7,3.3h-0.4c-1.3,0-2-1.4-2-2.8c0-1.4,0.6-2.8,2-2.8h0.4c0.9,0,1.7-0.3,2.4-0.7
			c2.2-1.4,1.7-5.4,4.5-7.9c1.2-1.1,2.5-1.7,3.7-1.7c4.7,0,6.3,7.2,6.3,10.4c0,0.4-1,5.4-4.8,5.4C75.2,37.9,72.5,36.8,69.8,34.8
			L69.8,34.8z M78.2,32.5c0.5,0,0.9-0.1,0.9-0.3c-0.6-3.2-2.3-5.2-4.2-5.2c-1.5,0-2.5,0.9-3.3,2.4C73.8,31.4,76,32.5,78.2,32.5z"/>
		<path class="st1" d="M90.3,3.7l-0.8-0.8c-0.2-0.3-0.6-0.4-1-0.4c-1.1,0-1.9,0.6-1.9,1c0,0.7,1.3,1.5,3.7,1.5c1,0,1.9,0,2.9-0.1
			l0.1,0.3c-0.3,0.8-0.7,1.5-1.2,2.3c-3.1,0.4-5.5,1-7.1,2l-0.3-0.3c0.3-0.7,0.7-1.4,1.1-2.1c-1.1-0.5-1.7-1.2-1.7-2.3
			c0-0.9,0.6-2.1,1.8-3.2C87.1,0.6,88.3,0,89.5,0s2,0.6,2,1.6c0,0.6-0.3,1.3-0.8,2.1H90.3z M87.6,38.5c0.3-2,0.4-4.1,0.4-6.8
			c0-6.1-0.3-12.2-1-18.4c1.1-1.4,2.2-2.5,3.3-3.6l0.5,0.3c0.6,6.1,0.7,11.8,0.7,17.3c0,4.4-0.3,7.4-0.9,8.4
			c-0.6,1.1-1.4,2.2-2.3,3.3L87.6,38.5z"/>
		<path class="st1" d="M103.5,36.3c-4.4,0-6.5-2.5-6.5-5.7c0-2.4,0.7-4.5,2.2-6.3c1.5-1.6,3.1-2.6,4.8-2.6c3.1,0,5.9,4.7,5.9,11.4
			c0,4.1-1.2,7.2-2.9,9.8c-2.5,3.2-4.6,4.3-6.6,4.3c-2.7,0-5.6-1.2-8.4-3.2l0.6-1.6c1,0.4,2.1,0.7,3.3,0.7c2.4,0,4.7-1,7-2.6
			c1.8-1.4,3.2-2.9,4.1-4.6C105.9,36.2,104.7,36.3,103.5,36.3z M102.6,26.5c-1.9,0-3.1,1.1-3.1,2c0,1.3,2.2,2.7,5.2,2.7
			c0.9,0,1.7-0.1,2.4-0.2C106.3,28.5,104.4,26.5,102.6,26.5z"/>
		<path class="st1" d="M142,38.2h-0.5c-1.2,0-2.1-0.3-2.9-0.5c0,2.9-0.8,4.8-1.8,6.4c-1.6,2.5-3.4,4.1-5.7,4.1
			c-2.1,0-4.5-0.8-7.5-2.8l0.6-1.4c1.1,0.4,1.9,0.5,2.5,0.5c2.4,0,4.4-1,6.2-2.6c1.9-1.7,3-3.7,3.3-5.4c-1.1-1.4-2.2-3.1-3.1-5.2
			c0.7-1.5,1.3-2.9,2-4.2h0.4c1.5,3.3,3,5.6,6.2,5.6h0.4V38.2z"/>
		<path class="st1" d="M156.8,28.7c-3.1-1-5.6-1.5-7.2-1.5c-1.1,0-1.8,0.2-2.4,0.5l-1.3,3h-0.6l-1.8-3.6c0.7-3.5,3.2-5.1,6.2-5.1
			c1.9,0,4.6,0.7,7.8,2c2.7,1,4.6,1.3,7,1.3h2.1l0.1,0.2c-0.6,1.2-1.4,2.5-2.4,3.9c-2,0-3.3,0.3-4.9,1.7c-5,4.5-8.8,7.1-17,7.1H142
			c-1.4,0-2-1.5-2-2.8s0.6-2.8,2-2.8h0.4c6,0,9.9-0.9,14.3-3.7V28.7z M152.3,41.3c1.5,1,2.8,2.1,4,3.3c-0.6,1.4-1.5,2.5-2.5,3.5
			c-1.2-1-2.6-2.1-4.1-3.1L152.3,41.3z M162.1,30.1l0.1,0.1c0.2,2.1,2.5,2.3,4.9,2.3h0.4v5.7h-0.4c-2.7,0-4.3-0.4-5.2-1.2
			c-1-1-1.5-2.2-1.5-4c0-0.6,0-1.1,0.1-1.7L162.1,30.1z"/>
		<path class="st1" d="M174.9,9.3c0,1.9,1.1,4.2,3.1,7.6l-2.5,1.9c0.1,2.2,0.2,4.8,0.2,7.6c0,2.5-0.4,4.4-1,6.3
			c-0.4,1.1-0.8,2.1-1.4,3c-1.1,1.5-2.6,2.5-5.2,2.5h-0.4c-1.4,0-2-1.5-2-2.8s0.6-2.8,2-2.8h0.4c1.8,0,3.2-0.3,4-1.2
			c0.5-0.5,0.5-1.3,0.5-2.8c0-7.1-0.9-13.3-0.9-14.8c0-1,0.2-2,0.8-2.6s1.2-1.4,2.2-2.1L174.9,9.3z"/>
		<path class="st1" d="M181.9,38.5c0.3-2,0.4-4.1,0.4-6.8c0-6.1-0.3-12.2-1-18.4c1.1-1.4,2.2-2.5,3.3-3.6l0.5,0.3
			c0.6,6.1,0.7,11.8,0.7,17.3c0,4.4-0.3,7.4-0.9,8.4c-0.6,1.1-1.4,2.2-2.3,3.3L181.9,38.5z"/>
		<path class="st1" d="M229.3,30.4c-4.8,0-7.5-1.7-7.5-5.4c0-2.2,0.8-4.2,2.2-5.7c1.4-1.5,2.9-2.4,4.5-2.4c3.9,0,6.3,6.5,6.3,12.6
			c0,2-0.5,4.4-1.5,6.5c-0.7,0.6-2.2,1.2-4.2,1.7c-3.9,1-8.2,1.7-13.2,1.7c-9.4,0-13.7-4.5-13.7-10c0-3.2,0.7-5.7,1.7-8l1.8,0.7
			c-0.5,1.4-0.7,2.5-0.7,3.6c0,4.5,4.1,7.8,12.6,7.8c4.6,0,8.9-0.6,13-1.6c1.1-0.3,1.6-0.7,1.6-1.5
			C231.3,30.4,230.3,30.4,229.3,30.4z M226.3,8.2c1.5,1,2.9,2.2,4.1,3.4c-0.6,1.4-1.5,2.6-2.6,3.6c-1.2-1-2.6-2.1-4.2-3.2L226.3,8.2
			z M227.3,21.4c-1.9,0-3.1,1-3.1,1.9c0,1.6,3,2.7,7.4,2.8C230.6,23.1,229.2,21.4,227.3,21.4z"/>
		<path class="st1" d="M247.4,36.3c-4.4,0-6.5-2.5-6.5-5.7c0-2.4,0.7-4.5,2.2-6.3c1.5-1.6,3.1-2.6,4.8-2.6c3.1,0,5.9,4.7,5.9,11.4
			c0,4.1-1.2,7.2-2.9,9.8c-2.5,3.2-4.6,4.3-6.6,4.3c-2.7,0-5.6-1.2-8.4-3.2l0.6-1.6c1,0.4,2.1,0.7,3.3,0.7c2.4,0,4.7-1,7-2.6
			c1.8-1.4,3.2-2.9,4.1-4.6C249.8,36.2,248.6,36.3,247.4,36.3z M246.5,26.5c-1.9,0-3.1,1.1-3.1,2c0,1.3,2.2,2.7,5.2,2.7
			c0.9,0,1.7-0.1,2.4-0.2C250.2,28.5,248.2,26.5,246.5,26.5z"/>
		<path class="st1" d="M273.2,38.2h-0.5c-1.2,0-2.1-0.3-2.9-0.5c0,2.9-0.8,4.8-1.8,6.4c-1.6,2.5-3.4,4.1-5.7,4.1
			c-2.1,0-4.5-0.8-7.5-2.8l0.6-1.4c1.1,0.4,1.9,0.5,2.5,0.5c2.4,0,4.4-1,6.2-2.6c1.9-1.7,3-3.7,3.3-5.4c-1.1-1.4-2.2-3.1-3.1-5.2
			c0.7-1.5,1.3-2.9,2-4.2h0.4c1.5,3.3,3,5.6,6.2,5.6h0.4V38.2z"/>
		<path class="st1" d="M279.6,28.7c3.8-4.4,7.6-7.2,11.4-7.2c4.1,0,6.5,3.2,6.5,7c0,1.6-0.9,4.6-2.3,6.2c-2.7,2.4-8.3,3.5-21.6,3.6
			h-0.4c-1.4,0-2-1.5-2-2.8s0.6-2.8,2-2.8h2.9l0.9-1.2c0.3-1.9,0.3-4.1,0.3-6.9c0-2.8-0.2-5.7-0.4-9.1c-0.1-1.3-0.4-2.6-0.4-3.9
			c0-1.4,0.7-2.5,2.9-4.2l0.3,0.2c0,1.8,0.7,3.7,3.1,7.6l-2.5,1.9c0.1,2.3,0.1,4.5,0.1,5.7c0,2.2-0.3,4.1-1,5.9L279.6,28.7z
			 M294.2,29.8c-0.4-1.4-2.2-3.2-4.6-3.2c-2.9,0-6.4,1.8-10.5,5.9C286.7,32.5,291.9,31.7,294.2,29.8z M288.2,12.4
			c1.4,1.1,2.5,2.2,3.4,3.3c-0.7,1.1-1.6,2.1-2.6,3c-1.1-1.1-2.3-2.1-3.5-3.2L288.2,12.4z"/>
		<path class="st1" d="M340.6,30.4c-4.8,0-7.5-1.7-7.5-5.4c0-2.2,0.8-4.2,2.2-5.7c1.4-1.5,2.9-2.4,4.5-2.4c3.9,0,6.3,6.5,6.3,12.6
			c0,2-0.5,4.4-1.5,6.5c-0.7,0.6-2.2,1.2-4.2,1.7c-3.9,1-8.2,1.7-13.2,1.7c-9.4,0-13.7-4.5-13.7-10c0-3.2,0.7-5.7,1.7-8l1.8,0.7
			c-0.5,1.4-0.7,2.5-0.7,3.6c0,4.5,4.1,7.8,12.6,7.8c4.6,0,8.9-0.6,13-1.6c1.1-0.3,1.6-0.7,1.6-1.5
			C342.6,30.4,341.6,30.4,340.6,30.4z M337.6,8.2c1.5,1,2.9,2.2,4.1,3.4c-0.6,1.4-1.5,2.6-2.6,3.6c-1.2-1-2.6-2.1-4.2-3.2L337.6,8.2
			z M338.6,21.4c-1.9,0-3.1,1-3.1,1.9c0,1.6,3,2.7,7.4,2.8C341.9,23.1,340.4,21.4,338.6,21.4z"/>
		<path class="st1" d="M358.7,36.3c-4.4,0-6.5-2.5-6.5-5.7c0-2.4,0.7-4.5,2.2-6.3c1.5-1.6,3.1-2.6,4.8-2.6c3.1,0,5.9,4.7,5.9,11.4
			c0,4.1-1.2,7.2-2.9,9.8c-2.5,3.2-4.6,4.3-6.6,4.3c-2.7,0-5.6-1.2-8.4-3.2l0.6-1.6c1,0.4,2.1,0.7,3.3,0.7c2.4,0,4.7-1,7-2.6
			c1.8-1.4,3.2-2.9,4.1-4.6C361.1,36.2,359.8,36.3,358.7,36.3z M357.8,26.5c-1.9,0-3.1,1.1-3.1,2c0,1.3,2.2,2.7,5.2,2.7
			c0.9,0,1.7-0.1,2.4-0.2C361.5,28.5,359.5,26.5,357.8,26.5z"/>
		<path class="st1" d="M384.4,38.2H384c-1.2,0-2.1-0.3-2.9-0.5c0,2.9-0.8,4.8-1.8,6.4c-1.6,2.5-3.4,4.1-5.7,4.1
			c-2.1,0-4.5-0.8-7.5-2.8l0.6-1.4c1.1,0.4,1.9,0.5,2.5,0.5c2.4,0,4.4-1,6.2-2.6c1.9-1.7,3-3.7,3.3-5.4c-1.1-1.4-2.2-3.1-3.1-5.2
			c0.7-1.5,1.3-2.9,2-4.2h0.4c1.5,3.3,3,5.6,6.2,5.6h0.4V38.2z"/>
		<path class="st1" d="M399.2,28.7c-3.1-1-5.6-1.5-7.2-1.5c-1.1,0-1.8,0.2-2.4,0.5l-1.3,3h-0.6l-1.8-3.6c0.7-3.5,3.2-5.1,6.2-5.1
			c1.9,0,4.6,0.7,7.8,2c2.7,1,4.6,1.3,7,1.3h2.1l0.1,0.2c-0.6,1.2-1.4,2.5-2.4,3.9c-2,0-3.3,0.3-4.8,1.7c-5,4.5-8.8,7.1-17,7.1h-0.4
			c-1.4,0-2-1.5-2-2.8s0.6-2.8,2-2.8h0.4c6,0,9.9-0.9,14.3-3.7V28.7z"/>
	</g>
</g>
</svg>
