<?xml version="1.0" encoding="utf-8"?>
<!-- Generator: Adobe Illustrator 22.0.1, SVG Export Plug-In . SVG Version: 6.00 Build 0)  -->
<svg version="1.1" id="Layer_1" xmlns="http://www.w3.org/2000/svg" xmlns:xlink="http://www.w3.org/1999/xlink" x="0px" y="0px"
	 viewBox="0 0 115.6 86.1" style="enable-background:new 0 0 115.6 86.1;" xml:space="preserve">
<style type="text/css">
	.st0{fill:#235958;}
	.st1{fill:#EF5316;}
</style>
<g>
	<path class="st0" d="M49.4,27.7c0,1.3-0.3,3.2-1,5.7c-0.6,2.7-1.3,4.5-1.9,5.4c-1.7,2.5-6,4.5-13.1,6.1c-5.6,1.2-10.7,1.9-15.2,1.9
		c-4.8,0-8.7-0.8-11.9-2.3c-4.2-2-6.3-5.1-6.3-9.3c0-1.9,0.5-3.9,1.4-5.8c0.5-1,1.5-2.7,3.1-5.1l0.8,0.6c-1,1.9-1.5,3.7-1.5,5.5
		c0,5,5.1,7.5,15.2,7.5c6.6,0,12.6-0.6,17.9-1.9c6.3-1.5,9.5-3.2,9.5-5.2c0-0.5-0.5-1.3-1.4-2.3c-0.6-0.7-1.3-1.4-1.8-2.2
		c1.3-3.3,2.2-6.1,2.8-8.4C48.2,21,49.4,24.3,49.4,27.7z M30.9,54.4l-3,4.9L23,55.7l3-5L30.9,54.4z"/>
	<path class="st0" d="M68.9,46.1h-3.8c-2.5,0-4.4-1.1-5.5-3.2c-1-1.7-1.6-4.9-1.8-9.7c-0.1-2-0.4-5.4-1-10.1c-0.6-4.3-1-7.6-1-10.1
		c0-0.8,0-1.3,0.1-1.7s1.4-1.7,4-3.9c0,0.2,0.3,4.5,1,12.9c0.6,7.5,0.9,11.5,0.9,12.1c0,1.8,0.3,3.2,0.9,4c0.6,0.9,1.8,1.3,3.6,1.3
		h2.5L68.9,46.1L68.9,46.1z"/>
	<path class="st0" d="M84.8,46.1h-3.7c-2.5,0-4.3-1.5-5.4-4.6c-1.5,3.1-3.2,4.6-5.2,4.6h-2.7v-8.4h3.5c1.8,0,2.9-0.3,3.5-1
		C75,36.6,75,35.3,75,33l0.5,0.1c0.4,3.1,2.8,4.7,7.2,4.7h2L84.8,46.1L84.8,46.1z M83.2,24.8l-2.8,5l-4.7-3.3l-2.3,4.3L68.3,27l3-5
		l4.5,3.6l2.7-4.5L83.2,24.8z"/>
	<path class="st1" d="M98.9,51.7c0,1.8-0.6,3.1-1.9,3.8l-10.9,6.3c0-1.2,0.1-2,0.4-2.4c0.3-0.5,1-1,2.1-1.6L98.9,51.7z"/>
	<path class="st1" d="M115.6,0c-1.5,3.3-2.8,5.7-3.9,7.2c-0.5,0.8-1.5,1.5-3,2s-3.9,1.4-7.2,2.5c-9.4,2.9-14.2,4.9-14.2,6
		c0,0.6,1.3,1.7,4,3.1c7.3,3.8,10.9,8.9,10.9,15.4c0,4-1.5,6.7-4.4,8.3c-2.1,1.1-5.4,1.7-9.8,1.7h-4.4v-8.4h3.5
		c8.6,0,12.9-0.9,12.9-2.8c0-1.2-2.4-3.6-7.3-7.2c-1.1-0.8-2.2-1.2-3.3-1.2c-0.5,0-1.2-0.3-2.1-1c-0.8-0.6-1.4-1.2-1.6-1.8
		c-0.4-0.9-0.6-2.3-0.6-4.2c0-3.2,0.3-5.3,0.8-6.1c1-1.7,5.5-4.2,13.6-7.6C106.3,3.1,111.6,1.1,115.6,0z"/>
</g>
</svg>
