<?xml version="1.0" encoding="utf-8"?>
<!-- Generator: Adobe Illustrator 19.2.0, SVG Export Plug-In . SVG Version: 6.00 Build 0)  -->
<svg version="1.1" id="Layer_1" xmlns="http://www.w3.org/2000/svg" xmlns:xlink="http://www.w3.org/1999/xlink" x="0px" y="0px"
	 viewBox="0 0 300.3 39.1" style="enable-background:new 0 0 300.3 39.1;" xml:space="preserve">
<style type="text/css">
	.st0{fill:#BA0017;}
	.st1{fill:none;}
</style>
<g>
	<g>
		<g>
			<path d="M10.3,20.5c0-0.1,0.1-0.2,0.2-0.4c0.1-0.2,0.4-0.3,0.7-0.5c0-0.3,0-0.6,0.1-0.9c0.1-0.2,0.2-0.4,0.3-0.4
				c0.3,0.3,0.6,0.6,0.9,0.8c0.3,0.2,0.6,0.4,1,0.4c0-0.3-0.2-0.7-0.5-1c-0.3-0.3-0.5-0.6-0.8-0.8c0-0.1,0.3-0.3,0.8-0.4
				c0.4-0.1,0.7-0.1,1-0.1c0.4-1.2,0.9-2.2,1.6-3.2c0.3-0.4,0.7-0.9,1.2-1.4c0.7-0.7,1.2-1,1.5-1c0.1,0,0.2,0.1,0.2,0.2
				c0,0.1-0.2,0.3-0.6,0.8c-0.5,0.6-1,1.2-1.2,1.7c-0.5,0.9-0.8,1.9-1,3c0.4,0,0.6,0.1,0.7,0.1c0.1,0,0.1,0.1,0.1,0.2
				c-0.8,0.6-1.2,1.3-1.2,1.8c0.3,0,0.7-0.1,0.9-0.4c0.2-0.2,0.5-0.5,0.8-0.8c0.1,0,0.2,0.1,0.3,0.4c0.1,0.3,0.2,0.6,0.2,0.9
				c0.3,0.2,0.5,0.3,0.6,0.3c0.2,0.2,0.3,0.3,0.3,0.5c0,0.1-0.1,0.2-0.2,0.3c-0.1,0.1-0.3,0.2-0.7,0.4c0,0.9-0.2,1.3-0.5,1.3
				c-0.7-0.7-1.3-1.1-1.8-1.2c0,0.3,0.1,0.6,0.4,1c0,0,0.3,0.3,0.8,0.9c0,0.1-0.1,0.1-0.2,0.2c-0.1,0.1-0.4,0.1-0.7,0.2
				c0.2,0.9,0.5,1.8,1.1,2.7c0.5,0.9,1.1,1.7,1.8,2.3c0.1,0.1,0.2,0.2,0.2,0.3c0,0.1-0.1,0.1-0.2,0.1c-0.2,0-0.6-0.2-1.1-0.5
				c-1.5-1.1-2.6-2.7-3.4-4.8c-1.1,0-1.7-0.2-1.7-0.5c0.3-0.3,0.6-0.5,0.8-0.8c0.2-0.3,0.4-0.7,0.4-1c-0.3,0-0.6,0.1-0.9,0.4
				l-0.9,0.8c-0.2,0-0.3-0.4-0.4-1.1c0-0.1,0-0.1,0-0.2C10.6,21,10.3,20.7,10.3,20.5z M12.9,23.2c0,0,0.1,0.1,0.3,0.1
				c0.2,0,0.4,0.1,0.5,0.1H14c0.1,0,0.1,0,0.2,0c0.3,1,0.8,2,1.4,2.9c0.7,1,1.5,1.8,2.4,2.4c-0.6-0.6-1.2-1.3-1.6-2.1
				c-0.6-1-1-2.1-1.1-3.1c0.4,0,0.6-0.1,0.7-0.2c-0.5-0.4-0.8-0.8-1-1.2c-0.1,0.2-0.1,0.4-0.3,0.6c0,0-0.1,0.1-0.1,0.3
				c-0.1,0.2-0.1,0.2-0.1,0.2c-0.1,0-0.3-0.4-0.6-1.1c-0.1,0.3-0.3,0.5-0.5,0.8C13.3,22.8,13.1,22.9,12.9,23.2z M15.7,19.8
				c0.1,0,0.4,0.2,0.9,0.3c0.3,0.1,0.5,0.2,0.5,0.3c0,0-0.3,0.1-0.8,0.4c-0.1,0-0.3,0.1-0.6,0.2c0.3,0.1,0.5,0.2,0.8,0.4
				c0.1,0.1,0.3,0.3,0.5,0.5c0.1,0,0.1-0.3,0.1-1c0.5-0.3,0.7-0.5,0.8-0.6c0-0.1-0.3-0.3-0.8-0.5c0-0.7-0.1-1-0.2-1
				c0,0-0.2,0.1-0.5,0.4C16.2,19.6,15.9,19.7,15.7,19.8z M12.8,17.7c0.4,0.3,0.7,0.7,1,1.2c0-0.1,0.1-0.3,0.3-0.5
				c0,0,0.1-0.1,0.2-0.3c0.1-0.2,0.1-0.2,0.2-0.2c0,0,0.1,0.1,0.2,0.3c0.1,0.2,0.1,0.3,0.1,0.3c0,0.1,0.1,0.3,0.3,0.6
				c0.1-0.2,0.2-0.5,0.4-0.7c0.1-0.2,0.3-0.3,0.5-0.5c0,0-0.2-0.1-0.6-0.2c0.3-1,0.4-1.7,0.5-2c0.4-1.2,1-2.3,2-3.3
				c-1.5,1-2.7,2.8-3.5,5.3c-0.6,0-0.8,0-0.7,0C13.1,17.5,12.9,17.6,12.8,17.7z M13.3,20.4c0,0.3,0.1,0.6,0.3,0.7
				c0.2,0.2,0.5,0.3,0.8,0.3c0.3,0,0.5-0.1,0.7-0.3c0.2-0.2,0.3-0.4,0.3-0.7c0-0.3-0.1-0.5-0.3-0.7c-0.2-0.2-0.5-0.3-0.8-0.3
				c-0.3,0-0.6,0.1-0.8,0.3C13.4,19.9,13.3,20.1,13.3,20.4z M10.8,20.5c0,0.1,0.1,0.1,0.2,0.2c0.1,0.1,0.3,0.2,0.6,0.3
				c0,0.3,0,0.5,0.1,0.7c0,0.2,0.1,0.3,0.1,0.3c0,0,0.2-0.1,0.4-0.4c0.3-0.3,0.6-0.5,0.9-0.6c-0.1-0.1-0.4-0.2-0.6-0.3
				c0,0-0.2-0.1-0.5-0.2c-0.2-0.1-0.3-0.1-0.3-0.2c0-0.1,0.2-0.2,0.5-0.3c0.5-0.1,0.8-0.2,0.9-0.3c-0.3-0.1-0.6-0.2-0.8-0.4
				c-0.1-0.1-0.3-0.3-0.5-0.5c-0.1,0-0.1,0.1-0.1,0.3c0,0.1,0,0.3,0,0.7C11,20.2,10.8,20.4,10.8,20.5z"/>
		</g>
		<g>
			<path d="M29.5,27.4c-0.6,0.2-1.2,0.4-1.8,0.7c-0.6,0.2-1.1,0.4-1.7,0.6c-0.1,0-0.1,0-0.1-0.1c0-0.1,0.1-0.2,0.2-0.4
				c0.1-0.1,0.1-0.3,0.2-0.3c0,0,0.1-0.1,0.1-0.1c0.2-0.1,0.4-0.1,0.6-0.2s0.5-0.2,0.9-0.3s0.6-0.2,1-0.4c0.3-0.1,0.7-0.2,1-0.3
				c0.1,0,0.1,0,0.1,0.1c0,0.1-0.1,0.1-0.1,0.2c0,0.1-0.1,0.1-0.1,0.2c0,0.1-0.1,0.1-0.1,0.2c0,0.1-0.1,0.1-0.1,0.1
				C29.6,27.3,29.6,27.4,29.5,27.4C29.5,27.4,29.5,27.4,29.5,27.4z"/>
			<path d="M28.3,17.8C28.3,17.7,28.3,17.7,28.3,17.8c0.1-0.1,0.2,0,0.2,0l0.2,1.3c0,0.2,0.1,0.5,0.2,0.8c0.1,0.3,0.1,0.6,0.2,0.9
				c0.1,0.3,0.1,0.6,0.2,0.8c0.1,0.3,0.1,0.5,0.2,0.7c0.1,0.3,0.2,0.5,0.3,0.7s0.3,0.3,0.5,0.4c0.2,0.1,0.4,0.2,0.6,0.2
				c0.2,0,0.5,0.1,0.7,0.1h0.2c0.2,0,0.3,0.1,0.4,0.2s0.1,0.3,0.1,0.5s0,0.3-0.1,0.5c-0.1,0.1-0.2,0.2-0.4,0.2h-0.2
				c-0.4,0-0.7,0-1-0.1c-0.3-0.1-0.5-0.2-0.7-0.4c-0.2-0.2-0.4-0.3-0.5-0.6c-0.1-0.2-0.3-0.4-0.4-0.6c-0.1-0.3-0.2-0.5-0.2-0.7
				c-0.1-0.2-0.1-0.3-0.1-0.4c-0.2,0.3-0.5,0.5-0.7,0.7c-0.2,0.2-0.4,0.3-0.6,0.4c-0.2,0.1-0.4,0.1-0.7,0.1s-0.5,0-0.7,0
				c-0.1,0-0.2,0-0.3-0.1c-0.1,0-0.2-0.1-0.2-0.1s-0.1-0.1-0.2-0.2c0-0.1-0.1-0.2,0-0.3c0.1-0.3,0.1-0.7,0.3-1s0.3-0.6,0.4-0.8
				c0.3-0.4,0.6-0.7,0.9-0.9c0.4-0.2,0.8-0.5,1.3-0.7c0-0.1,0-0.2,0-0.3s0-0.2-0.1-0.3c0,0,0-0.1,0-0.2s0-0.2,0.1-0.3
				c0-0.1,0.1-0.2,0.1-0.3S28.3,17.9,28.3,17.8z M28.3,20.4c-0.5,0.1-0.9,0.3-1.2,0.5s-0.6,0.5-0.9,0.9c-0.1,0.1-0.1,0.2,0,0.2
				c0.2,0.1,0.4,0.1,0.6,0.1s0.5,0,0.7-0.1c0.2-0.1,0.4-0.1,0.6-0.2c0.2-0.1,0.3-0.2,0.4-0.2c0-0.2-0.1-0.4-0.1-0.6
				C28.3,20.9,28.3,20.6,28.3,20.4z M29.4,16.8C29.4,16.9,29.4,16.9,29.4,16.8c-0.1,0-0.1,0-0.2,0L28.2,16l-0.7,1c0,0,0,0-0.1,0
				s-0.1,0-0.1,0l-1.2-0.9c0,0,0,0,0,0c0,0,0,0,0-0.1l0.7-1c0,0,0,0,0.1-0.1c0,0,0,0,0.1,0l1.1,0.8l0.7-0.9c0,0,0,0,0,0
				c0,0,0,0,0.1,0l1.2,1c0,0,0,0.1,0,0.1L29.4,16.8z"/>
			<path d="M35.2,14.3c-0.3,0.1-0.6,0.3-1,0.4s-0.7,0.3-1,0.4c-0.3,0.1-0.6,0.3-0.9,0.4s-0.5,0.2-0.7,0.3c0,0-0.1,0-0.1,0s0,0,0-0.1
				c0,0,0-0.1,0.1-0.2c0-0.1,0.1-0.2,0.1-0.3c0-0.1,0.1-0.2,0.1-0.3s0.1-0.1,0.1-0.1c0.1-0.1,0.1-0.1,0.2-0.2l3.4-1.5
				c0.1,0,0.1,0,0.1,0.1c0,0.1-0.1,0.1-0.1,0.2s-0.1,0.2-0.1,0.2s-0.1,0.2-0.1,0.2s-0.1,0.1-0.1,0.2C35.3,14.2,35.3,14.3,35.2,14.3z
				"/>
			<path d="M34.6,21.9c0,0.1,0,0.1,0,0.2c0,0.1,0,0.2,0,0.3c0,0.2,0,0.3,0.1,0.5s0.2,0.3,0.4,0.4s0.4,0.2,0.6,0.3
				c0.3,0.1,0.6,0.1,0.9,0.1h0.2c0.2,0,0.3,0.1,0.4,0.2s0.1,0.3,0.1,0.5s0,0.3-0.1,0.5c-0.1,0.1-0.2,0.2-0.4,0.2h-0.2
				c-0.7,0-1.2-0.1-1.6-0.4s-0.7-0.6-0.9-1.1c-0.2,0.3-0.3,0.6-0.6,0.8s-0.4,0.3-0.7,0.4s-0.5,0.2-0.7,0.2c-0.2,0-0.4,0-0.6,0h-0.2
				c-0.2,0-0.3-0.1-0.4-0.2c-0.1-0.1-0.1-0.3-0.1-0.5s0-0.3,0.1-0.5s0.2-0.2,0.4-0.2h0.2c0.2,0,0.4,0,0.6,0c0.2,0,0.4,0,0.6-0.1
				c0.2-0.1,0.4-0.1,0.6-0.2c0.2-0.1,0.4-0.3,0.5-0.5c0.1-0.2,0.2-0.3,0.3-0.5s0.2-0.3,0.2-0.5c0,0,0-0.1,0-0.1c0,0,0.1,0,0.1,0
				C34.6,21.8,34.6,21.8,34.6,21.9C34.6,21.8,34.6,21.8,34.6,21.9z M33.8,17.8l1.1,0.9c0,0,0.1,0.1,0,0.1l-0.7,0.9
				c0,0.1-0.1,0.1-0.1,0l-1.1-0.9c0,0,0-0.1,0-0.2l0.7-0.9C33.7,17.7,33.7,17.7,33.8,17.8z"/>
			<path d="M43.3,15.4c-0.3,0.1-0.6,0.3-1,0.4s-0.7,0.3-1,0.4c-0.3,0.1-0.6,0.3-0.9,0.4s-0.5,0.2-0.7,0.3c0,0-0.1,0-0.1,0s0,0,0-0.1
				c0,0,0-0.1,0.1-0.2c0-0.1,0.1-0.2,0.1-0.3c0-0.1,0.1-0.2,0.1-0.3s0.1-0.1,0.1-0.1c0.1-0.1,0.1-0.1,0.2-0.2l3.4-1.5
				c0.1,0,0.1,0,0.1,0.1c0,0.1-0.1,0.1-0.1,0.2s-0.1,0.2-0.1,0.2s-0.1,0.2-0.1,0.2s-0.1,0.1-0.1,0.2C43.4,15.3,43.3,15.4,43.3,15.4z
				"/>
			<path d="M42.9,22.1c0.1-0.1,0.1-0.2,0.2-0.2c0.1,0,0.1,0.1,0.1,0.2c0,0.1-0.1,0.2-0.1,0.4S43,22.8,42.9,23c0,0.1,0.1,0.2,0.3,0.3
				c0.1,0.1,0.3,0.2,0.5,0.2c0.2,0.1,0.4,0.1,0.6,0.1c0.2,0,0.3,0,0.5,0c0.1,0,0.2-0.1,0.3-0.2c0.1-0.1,0.2-0.2,0.2-0.4
				c0.1-0.1,0.1-0.3,0.2-0.4c0.1-0.2,0.1-0.3,0.2-0.5c0-0.2,0.1-0.3,0.2-0.3c0.1,0,0.1,0,0.1,0.2c0,0.3,0.1,0.6,0.2,0.8
				c0.1,0.2,0.2,0.4,0.4,0.5c0.2,0.1,0.4,0.2,0.6,0.3c0.3,0.1,0.6,0.1,0.9,0.1h0.2c0.2,0,0.3,0.1,0.4,0.2s0.1,0.3,0.1,0.5
				s0,0.3-0.1,0.5c-0.1,0.1-0.2,0.2-0.4,0.2H48c-0.4,0-0.8,0-1.1-0.1c-0.3-0.1-0.5-0.2-0.8-0.3c-0.2-0.1-0.4-0.3-0.5-0.4
				c-0.1-0.2-0.2-0.3-0.3-0.5c0,0.1-0.1,0.2-0.2,0.3c-0.1,0.1-0.1,0.3-0.2,0.4c-0.1,0.1-0.2,0.2-0.3,0.3c-0.1,0.1-0.2,0.1-0.3,0.1
				c-0.2,0-0.3,0-0.5-0.1s-0.4-0.1-0.6-0.2c-0.2-0.1-0.4-0.2-0.6-0.3s-0.3-0.3-0.5-0.4c-0.2,0.2-0.4,0.4-0.7,0.6
				c-0.3,0.2-0.5,0.3-0.8,0.3C40.3,25,40,25,39.7,25c-0.3-0.1-0.7-0.2-1-0.4c-0.2,0.1-0.3,0.2-0.5,0.3S37.8,25,37.6,25
				s-0.4,0.1-0.5,0.1s-0.3,0-0.4,0h-0.2c-0.2,0-0.3-0.1-0.4-0.2c-0.1-0.1-0.1-0.3-0.1-0.5s0-0.3,0.1-0.5s0.2-0.2,0.4-0.2h0.2
				c0.4,0,0.7,0,1,0c0.3,0,0.6-0.1,0.9-0.2c0.3-0.1,0.5-0.3,0.8-0.5c0.2-0.2,0.5-0.5,0.7-0.8c0.1-0.1,0.1-0.2,0.2-0.2
				c0.1,0,0.1,0.1,0.1,0.2c0,0.2-0.1,0.4-0.2,0.7c-0.1,0.2-0.2,0.5-0.4,0.6c0.1,0,0.2,0.1,0.4,0.1c0.2,0,0.3,0,0.5,0s0.4,0,0.6-0.1
				c0.2,0,0.4-0.1,0.6-0.2c0.2-0.1,0.5-0.3,0.7-0.5C42.5,22.7,42.7,22.4,42.9,22.1z"/>
			<path d="M51,17.7c-0.3,0.1-0.6,0.3-1,0.4s-0.7,0.3-1,0.4c-0.3,0.1-0.6,0.3-0.9,0.4s-0.5,0.2-0.7,0.3c0,0-0.1,0-0.1,0s0,0,0-0.1
				c0,0,0-0.1,0.1-0.2c0-0.1,0.1-0.2,0.1-0.3c0-0.1,0.1-0.2,0.1-0.3s0.1-0.1,0.1-0.1c0.1-0.1,0.1-0.1,0.2-0.2l3.4-1.5
				c0.1,0,0.1,0,0.1,0.1c0,0.1-0.1,0.1-0.1,0.2s-0.1,0.2-0.1,0.2s-0.1,0.2-0.1,0.2s-0.1,0.1-0.1,0.2C51.1,17.6,51.1,17.6,51,17.7z"
				/>
			<path d="M52.9,9.1c0,0.2,0,0.4-0.1,0.6c-0.1,0.2-0.1,0.4-0.2,0.5s-0.3,0.3-0.4,0.4c-0.2,0.1-0.4,0.1-0.6,0.1
				c-0.3,0-0.6-0.1-0.8-0.3c-0.2-0.2-0.3-0.5-0.3-0.8c0-0.2,0-0.4,0.1-0.6c0.1-0.2,0.1-0.5,0.2-0.7c0.1-0.2,0.2-0.4,0.4-0.6
				c0.2-0.2,0.4-0.3,0.6-0.3c0.2,0,0.4,0,0.6,0.2s0.3,0.3,0.4,0.4c0.1,0.2,0.1,0.4,0.2,0.6C52.9,8.8,52.9,8.9,52.9,9.1z M51.6,8.4
				c-0.1,0-0.2,0.1-0.3,0.1c-0.1,0.1-0.2,0.1-0.2,0.2C51,8.9,50.9,8.9,50.9,9c0,0.1-0.1,0.2-0.1,0.3c0,0.1,0,0.2,0.1,0.2
				C51,9.6,51,9.7,51.1,9.7c0.1,0,0.2,0,0.3,0.1c0.1,0,0.2,0,0.3,0c0.3,0,0.6-0.2,0.9-0.4c0-0.1,0-0.2,0-0.3s-0.1-0.2-0.2-0.3
				c-0.1-0.1-0.2-0.2-0.3-0.2C51.9,8.4,51.8,8.4,51.6,8.4z"/>
			<path d="M52.9,20.8c0.3,0.1,0.6,0.2,0.9,0.3c0.3,0.1,0.6,0.1,0.8,0.2s0.5,0.1,0.8,0.2c0.3,0.1,0.5,0.1,0.8,0.1
				c0.4,0.1,0.8,0.1,1.3,0.1c0.4,0,0.9,0,1.3,0.1c0.1,0,0.1,0.1,0.1,0.1c0,0.1-0.1,0.1-0.1,0.2c-0.1,0.1-0.1,0.2-0.2,0.3
				c-0.1,0.1-0.1,0.2-0.2,0.3c-0.1,0.1-0.1,0.2-0.2,0.3c0,0-0.1,0.1-0.1,0.1c0,0-0.1,0-0.2,0C57.4,23,56.9,23,56.5,23
				c-0.4,0-0.8,0.1-1.2,0.1c-0.4,0.1-0.8,0.2-1.2,0.3s-0.8,0.3-1.2,0.4c-0.4,0.2-0.8,0.3-1.2,0.5c-0.4,0.2-0.8,0.3-1.2,0.4
				c-0.4,0.1-0.8,0.2-1.2,0.3c-0.4,0.1-0.9,0.1-1.4,0.1h-0.2c-0.2,0-0.3-0.1-0.4-0.2c-0.1-0.1-0.1-0.3-0.1-0.5s0-0.3,0.1-0.5
				s0.2-0.2,0.4-0.2H48c0.3,0,0.7,0,1.1,0s0.8-0.1,1.3-0.2c0.5-0.1,1-0.2,1.6-0.4s1.2-0.4,1.9-0.7c-0.5-0.1-0.9-0.3-1.3-0.4
				c-0.4-0.1-0.9-0.2-1.3-0.2c-0.4-0.1-0.9-0.1-1.3-0.1c-0.4,0-0.9,0-1.3,0.1c-0.1,0-0.1,0,0-0.1c0.1-0.2,0.2-0.4,0.3-0.6
				c0.1-0.2,0.2-0.4,0.4-0.6c0,0,0.2-0.1,0.4-0.1c0.2,0,0.5-0.1,0.8-0.1c0.3,0,0.6-0.1,0.9-0.1c0.3,0,0.6-0.1,0.9-0.1
				c0.1,0,0.2,0,0.3-0.1s0.1-0.1,0.1-0.2c0-0.3-0.1-0.7-0.1-1.1c-0.1-0.4-0.1-0.9-0.2-1.3c-0.1-0.5-0.2-0.9-0.2-1.4
				c-0.1-0.5-0.2-0.9-0.2-1.3c0-0.1-0.1-0.3-0.1-0.4c0-0.1,0-0.3-0.1-0.4c0-0.1-0.1-0.3-0.1-0.4c-0.1-0.1-0.1-0.2-0.2-0.3
				c0.1-0.2,0.2-0.4,0.3-0.6c0.1-0.2,0.2-0.4,0.3-0.6c0-0.1,0.1-0.1,0.1-0.1s0.1,0,0.1,0.1c0.1,0.1,0.1,0.3,0.2,0.4
				c0.1,0.2,0.1,0.3,0.2,0.4s0.2,0.3,0.3,0.4c0.1,0.1,0.2,0.2,0.4,0.3c0,0.1-0.1,0.2-0.1,0.3c-0.1,0.1-0.1,0.2-0.2,0.3
				c-0.1,0.1-0.1,0.2-0.1,0.3c0,0.1,0,0.2,0,0.3c0,0.1,0.1,0.3,0.1,0.6c0.1,0.3,0.1,0.6,0.2,1s0.1,0.7,0.2,1.1
				c0.1,0.4,0.1,0.8,0.1,1.1c0,0.2,0,0.3,0,0.5c0,0.2,0,0.4,0,0.6c0,0.2-0.1,0.4-0.1,0.6C53.1,20.4,53,20.6,52.9,20.8z"/>
			<path d="M61.1,13.4C61.2,13.4,61.2,13.4,61.1,13.4c0.1,0.1,0.1,0.1,0.1,0.1c0,0,0,0.1,0,0.1s0,0.1,0,0.1c0,0.2,0,0.5,0,0.7
				c0,0.2,0,0.4,0.1,0.7c0.1,0.5,0.1,1.1,0.2,1.7c0.1,0.6,0.2,1.1,0.2,1.7s0.2,1.2,0.2,1.7c0.1,0.6,0.2,1.1,0.2,1.7
				c0,0.2,0,0.5,0,0.7c0,0.3,0,0.6,0,0.9s0,0.6-0.1,0.8c0,0.3-0.1,0.5-0.2,0.7c0,0.1-0.1,0.2-0.2,0.2c0,0-0.1,0-0.1-0.1
				c-0.1-1-0.2-2.1-0.3-3.2c-0.2-1.1-0.3-2.3-0.5-3.4c-0.2-1.1-0.3-2.3-0.4-3.4c0-0.3,0.1-0.6,0.2-0.9c0.1-0.2,0.1-0.3,0.2-0.5
				C61,13.7,61.1,13.5,61.1,13.4z"/>
			<path d="M71.9,27.4c-0.6,0.2-1.2,0.4-1.8,0.7c-0.6,0.2-1.1,0.4-1.7,0.6c-0.1,0-0.1,0-0.1-0.1c0-0.1,0.1-0.2,0.2-0.4
				c0.1-0.1,0.1-0.3,0.2-0.3c0,0,0.1-0.1,0.1-0.1c0.2-0.1,0.4-0.1,0.6-0.2s0.5-0.2,0.9-0.3s0.6-0.2,1-0.4c0.3-0.1,0.7-0.2,1-0.3
				c0.1,0,0.1,0,0.1,0.1c0,0.1-0.1,0.1-0.1,0.2c0,0.1-0.1,0.1-0.1,0.2c0,0.1-0.1,0.1-0.1,0.2c0,0.1-0.1,0.1-0.1,0.1
				C72,27.3,72,27.4,71.9,27.4C71.9,27.4,71.9,27.4,71.9,27.4z"/>
			<path d="M70.7,17.8C70.7,17.7,70.7,17.7,70.7,17.8c0.1-0.1,0.2,0,0.2,0l0.2,1.3c0,0.2,0.1,0.5,0.2,0.8c0.1,0.3,0.1,0.6,0.2,0.9
				c0.1,0.3,0.1,0.6,0.2,0.8c0.1,0.3,0.1,0.5,0.2,0.7c0.1,0.3,0.2,0.5,0.3,0.7s0.3,0.3,0.5,0.4c0.2,0.1,0.4,0.2,0.6,0.2
				c0.2,0,0.5,0.1,0.7,0.1h0.2c0.2,0,0.3,0.1,0.4,0.2s0.1,0.3,0.1,0.5s0,0.3-0.1,0.5c-0.1,0.1-0.2,0.2-0.4,0.2h-0.2
				c-0.4,0-0.7,0-1-0.1c-0.3-0.1-0.5-0.2-0.7-0.4c-0.2-0.2-0.4-0.3-0.5-0.6c-0.1-0.2-0.3-0.4-0.4-0.6c-0.1-0.3-0.2-0.5-0.2-0.7
				c-0.1-0.2-0.1-0.3-0.1-0.4c-0.2,0.3-0.5,0.5-0.7,0.7c-0.2,0.2-0.4,0.3-0.6,0.4c-0.2,0.1-0.4,0.1-0.7,0.1s-0.5,0-0.7,0
				c-0.1,0-0.2,0-0.3-0.1c-0.1,0-0.2-0.1-0.2-0.1s-0.1-0.1-0.2-0.2c0-0.1-0.1-0.2,0-0.3c0.1-0.3,0.1-0.7,0.3-1s0.3-0.6,0.4-0.8
				c0.3-0.4,0.6-0.7,0.9-0.9c0.4-0.2,0.8-0.5,1.3-0.7c0-0.1,0-0.2,0-0.3s0-0.2-0.1-0.3c0,0,0-0.1,0-0.2s0-0.2,0.1-0.3
				c0-0.1,0.1-0.2,0.1-0.3S70.7,17.9,70.7,17.8z M70.6,20.4c-0.5,0.1-0.9,0.3-1.2,0.5s-0.6,0.5-0.9,0.9c-0.1,0.1-0.1,0.2,0,0.2
				c0.2,0.1,0.4,0.1,0.6,0.1s0.5,0,0.7-0.1c0.2-0.1,0.4-0.1,0.6-0.2c0.2-0.1,0.3-0.2,0.4-0.2c0-0.2-0.1-0.4-0.1-0.6
				C70.7,20.9,70.7,20.6,70.6,20.4z M71.8,16.8C71.8,16.9,71.7,16.9,71.8,16.8c-0.1,0-0.1,0-0.2,0L70.5,16l-0.7,1c0,0,0,0-0.1,0
				s-0.1,0-0.1,0l-1.2-0.9c0,0,0,0,0,0c0,0,0,0,0-0.1l0.7-1c0,0,0,0,0.1-0.1c0,0,0,0,0.1,0l1.1,0.8l0.7-0.9c0,0,0,0,0,0
				c0,0,0,0,0.1,0l1.2,1c0,0,0,0.1,0,0.1L71.8,16.8z"/>
			<path d="M81.2,14.1c-0.3,0.1-0.6,0.3-1,0.4s-0.7,0.3-1,0.4c-0.3,0.1-0.6,0.3-0.9,0.4s-0.5,0.2-0.7,0.3c0,0-0.1,0-0.1,0s0,0,0-0.1
				c0,0,0-0.1,0.1-0.2c0-0.1,0.1-0.2,0.1-0.3c0-0.1,0.1-0.2,0.1-0.3s0.1-0.1,0.1-0.1c0.1-0.1,0.1-0.1,0.2-0.2l3.4-1.5
				c0.1,0,0.1,0,0.1,0.1c0,0.1-0.1,0.1-0.1,0.2s-0.1,0.2-0.1,0.2s-0.1,0.2-0.1,0.2s-0.1,0.1-0.1,0.2C81.3,14,81.3,14,81.2,14.1z"/>
			<path d="M76,22.4c0.1-0.2,0.2-0.4,0.2-0.7c0-0.3,0-0.7,0-1.1c0-0.4,0-0.8-0.1-1.3S76,18.5,76,18c-0.1-0.4-0.1-0.9-0.2-1.3
				c-0.1-0.4-0.1-0.8-0.2-1.1c0-0.2-0.1-0.5-0.1-0.7c-0.1-0.2-0.2-0.4-0.3-0.6c0,0,0-0.1,0-0.1c0,0,0,0,0,0c0,0,0,0,0,0
				c0,0,0,0,0-0.1c0.1-0.2,0.2-0.4,0.3-0.5c0.1-0.2,0.2-0.4,0.3-0.5c0,0,0.1-0.1,0.1-0.1c0,0,0.1,0,0.1,0.1c0.1,0.1,0.1,0.3,0.2,0.4
				c0.1,0.1,0.1,0.3,0.2,0.4s0.2,0.3,0.3,0.4c0.1,0.1,0.2,0.2,0.4,0.3c-0.1,0.1-0.2,0.3-0.2,0.4s-0.1,0.2-0.2,0.3
				c0,0.1-0.1,0.2-0.1,0.3s0,0.2,0,0.3c0.1,0.5,0.2,1,0.3,1.5s0.1,1.1,0.2,1.6c0,0.5,0,1.1,0,1.6c0,0.5-0.1,1.1-0.2,1.6
				c0.2-0.2,0.4-0.3,0.6-0.5c0.2-0.2,0.4-0.3,0.6-0.5c0.2-0.2,0.4-0.3,0.6-0.5c0.2-0.1,0.4-0.3,0.6-0.4c0.3-0.2,0.7-0.2,1.1-0.2
				c0.4,0,0.7,0.1,1.1,0.2s0.6,0.3,0.9,0.5c0.3,0.2,0.4,0.5,0.5,0.8c0,0.5-0.2,1-0.4,1.3c-0.2,0.4-0.5,0.7-0.9,0.9
				c0.4,0,0.7,0.1,1.2,0.1c0.4,0,0.8,0,1.1,0h0.2c0.2,0,0.3,0.1,0.4,0.2c0.1,0.1,0.1,0.3,0.1,0.5s0,0.3-0.1,0.5
				c-0.1,0.1-0.2,0.2-0.4,0.2h-0.2c-0.2,0-0.5,0-0.9,0c-0.3,0-0.7,0-1.1,0c-0.4,0-0.8,0-1.3,0c-0.4,0-0.9,0-1.3,0s-0.8,0-1.2,0
				c-0.4,0-0.7,0-1,0c-0.5,0.1-1,0.1-1.5,0.1c-0.5,0-1,0-1.4,0h-0.2c-0.2,0-0.3-0.1-0.4-0.2c-0.1-0.1-0.1-0.3-0.1-0.5s0-0.3,0.1-0.5
				c0.1-0.1,0.2-0.2,0.4-0.2h0.2c0.1,0,0.2,0,0.4,0c0.1,0,0.3,0,0.4,0L76,22.4z M81.7,22.2c-0.2-0.2-0.3-0.4-0.6-0.5
				c-0.2-0.1-0.5-0.3-0.7-0.3c-0.3-0.1-0.5-0.1-0.8-0.1c-0.3,0-0.5,0-0.7,0.1c-0.3,0.1-0.6,0.2-0.9,0.4c-0.3,0.2-0.6,0.3-0.8,0.5
				c-0.3,0.2-0.6,0.4-0.8,0.7c-0.3,0.3-0.6,0.5-0.9,0.8c0.5,0,1-0.1,1.6-0.1c0.6-0.1,1.1-0.2,1.7-0.3s1.1-0.3,1.6-0.4
				S81.4,22.5,81.7,22.2z M79.4,16.5l1.1,0.9c0,0,0.1,0.1,0,0.1l-0.7,0.9c0,0.1-0.1,0.1-0.1,0l-1.1-0.9c0,0,0-0.1,0-0.2l0.7-0.9
				C79.3,16.4,79.3,16.4,79.4,16.5z"/>
			<path d="M88.7,27.4c-0.6,0.2-1.2,0.4-1.8,0.7c-0.6,0.2-1.1,0.4-1.7,0.6c-0.1,0-0.1,0-0.1-0.1c0-0.1,0.1-0.2,0.2-0.4
				c0.1-0.1,0.1-0.3,0.2-0.3c0,0,0.1-0.1,0.1-0.1c0.2-0.1,0.4-0.1,0.6-0.2s0.5-0.2,0.9-0.3s0.6-0.2,1-0.4c0.3-0.1,0.7-0.2,1-0.3
				c0.1,0,0.1,0,0.1,0.1c0,0.1-0.1,0.1-0.1,0.2c0,0.1-0.1,0.1-0.1,0.2c0,0.1-0.1,0.1-0.1,0.2c0,0.1-0.1,0.1-0.1,0.1
				C88.8,27.3,88.8,27.4,88.7,27.4C88.8,27.4,88.7,27.4,88.7,27.4z"/>
			<path d="M91.4,23.3c-0.4,0.1-0.8,0.2-1.2,0.4c-0.5,0.1-0.9,0.3-1.4,0.4c-0.5,0.1-1,0.3-1.5,0.4s-1,0.2-1.4,0.3
				c-0.5,0.1-0.9,0.2-1.3,0.2c-0.4,0.1-0.7,0.1-1,0.1h-0.2c-0.2,0-0.3-0.1-0.4-0.2c-0.1-0.1-0.1-0.3-0.1-0.5s0-0.3,0.1-0.5
				s0.2-0.2,0.4-0.2h0.2c0.1,0,0.3,0,0.5,0c0.2,0,0.4,0,0.6,0c0.2,0,0.4,0,0.6-0.1c0.2,0,0.4-0.1,0.5-0.1c-0.1-0.1-0.3-0.2-0.4-0.3
				c-0.1-0.1-0.3-0.3-0.4-0.5c-0.1-0.2-0.2-0.4-0.3-0.6c-0.1-0.2-0.1-0.4-0.2-0.6c-0.1-0.4,0-0.8,0.1-1.2c0.1-0.4,0.3-0.8,0.6-1.1
				s0.5-0.6,0.9-0.8s0.7-0.4,1-0.4c0.5-0.1,0.9-0.1,1.2,0c0.4,0.1,0.7,0.2,1,0.3c0.3,0.2,0.5,0.3,0.7,0.5c0.2,0.2,0.4,0.4,0.5,0.6
				c0,0,0,0.1,0,0.1s0,0.1-0.1,0.1c0,0-0.1,0-0.1,0s-0.1,0-0.1,0c-0.2-0.1-0.4-0.2-0.6-0.3c-0.2-0.1-0.4-0.1-0.6-0.2
				s-0.4-0.1-0.6-0.1s-0.4,0-0.7,0c-0.2,0-0.5,0.1-0.7,0.1c-0.2,0.1-0.5,0.1-0.7,0.2s-0.4,0.2-0.6,0.3c-0.2,0.1-0.3,0.2-0.4,0.3
				c0,0.1,0,0.2,0.1,0.4c0,0.1,0.1,0.3,0.2,0.5c0.1,0.2,0.2,0.3,0.3,0.5c0.1,0.2,0.2,0.3,0.3,0.4c0.1,0.1,0.3,0.3,0.4,0.4
				s0.3,0.2,0.4,0.3c0.1,0.1,0.3,0.2,0.4,0.2s0.2,0.1,0.3,0.1c0.8-0.1,1.5-0.3,2.3-0.5c0.8-0.2,1.5-0.4,2.2-0.6c0.1,0,0.1,0,0.1,0
				c-0.2,0.3-0.4,0.6-0.5,0.8C91.7,23,91.6,23.2,91.4,23.3z"/>
			<path d="M95.7,15.2c0,0.2,0,0.4-0.1,0.6c-0.1,0.2-0.1,0.4-0.2,0.5s-0.3,0.3-0.4,0.4c-0.2,0.1-0.4,0.1-0.6,0.1
				c-0.3,0-0.6-0.1-0.8-0.3c-0.2-0.2-0.3-0.5-0.3-0.8c0-0.2,0-0.4,0.1-0.6c0.1-0.2,0.1-0.5,0.2-0.7c0.1-0.2,0.2-0.4,0.4-0.6
				c0.2-0.2,0.4-0.3,0.6-0.3c0.2,0,0.4,0,0.6,0.2s0.3,0.3,0.4,0.4c0.1,0.2,0.1,0.4,0.2,0.6C95.7,14.9,95.7,15,95.7,15.2z M94.4,14.5
				c-0.1,0-0.2,0.1-0.3,0.1c-0.1,0.1-0.2,0.1-0.2,0.2c-0.1,0.1-0.1,0.2-0.2,0.3c0,0.1-0.1,0.2-0.1,0.3c0,0.1,0,0.2,0.1,0.2
				c0.1,0.1,0.1,0.1,0.2,0.1c0.1,0,0.2,0,0.3,0.1c0.1,0,0.2,0,0.3,0c0.3,0,0.6-0.2,0.9-0.4c0-0.1,0-0.2,0-0.3s-0.1-0.2-0.2-0.3
				c-0.1-0.1-0.2-0.2-0.3-0.2C94.7,14.5,94.6,14.5,94.4,14.5z"/>
			<path d="M97,25.2l-0.9,0c-0.3,0-0.5,0-0.7-0.1c-0.2-0.1-0.4-0.2-0.6-0.3s-0.3-0.3-0.4-0.5s-0.1-0.4-0.1-0.7c0-0.1,0-0.2,0.1-0.4
				c0.1-0.2,0.1-0.3,0.2-0.5s0.2-0.3,0.3-0.5c0.1-0.2,0.2-0.3,0.3-0.4c0.1-0.1,0.2-0.2,0.4-0.3c0.1-0.1,0.3-0.1,0.4-0.1
				c0.2,0,0.4,0.1,0.6,0.3c0.2,0.2,0.3,0.4,0.5,0.6c0.1,0.2,0.3,0.5,0.3,0.8s0.1,0.5,0.2,0.7l0.7,0h0.2c0.2,0,0.3,0.1,0.4,0.2
				c0.1,0.1,0.1,0.3,0.1,0.5s0,0.3-0.1,0.5c-0.1,0.1-0.2,0.2-0.4,0.2h-0.2l-0.8,0c-0.1,0.5-0.2,1-0.4,1.5c-0.1,0.5-0.3,0.9-0.5,1.3
				s-0.5,0.8-0.8,1.1c-0.3,0.3-0.7,0.5-1.2,0.7c-0.3,0.1-0.7,0.2-1.1,0.2c-0.4,0-0.8,0-1.2,0c-0.4,0-0.8-0.1-1.2-0.1
				c-0.4-0.1-0.8-0.1-1.1-0.2c-0.1,0-0.1-0.1-0.2-0.1c0-0.1,0-0.1,0-0.2s0.1-0.1,0.1-0.1s0.1-0.1,0.2,0c0.3,0,0.7,0,1,0
				c0.4,0,0.7,0,1.1-0.1c0.4-0.1,0.7-0.1,1.1-0.2c0.3-0.1,0.7-0.2,0.9-0.4c0.3-0.2,0.6-0.4,0.9-0.7c0.3-0.3,0.5-0.5,0.7-0.8
				s0.4-0.6,0.5-0.9C96.7,25.8,96.8,25.5,97,25.2z M95.6,22.9c-0.1,0-0.2,0-0.2,0.1c-0.1,0.1-0.1,0.1-0.2,0.2
				c-0.1,0.1-0.1,0.1-0.2,0.2S95,23.5,95,23.5c0,0.1,0.1,0.1,0.3,0.2s0.3,0.1,0.5,0.1c0.2,0,0.4,0,0.5,0s0.3,0,0.4,0
				c0,0,0-0.1-0.1-0.2c-0.1-0.1-0.1-0.2-0.2-0.3c-0.1-0.1-0.2-0.2-0.3-0.3C95.9,22.9,95.7,22.9,95.6,22.9z"/>
			<path d="M103.1,15c-0.3,0.1-0.6,0.3-1,0.4s-0.7,0.3-1,0.4c-0.3,0.1-0.6,0.3-0.9,0.4s-0.5,0.2-0.7,0.3c0,0-0.1,0-0.1,0s0,0,0-0.1
				c0,0,0-0.1,0.1-0.2c0-0.1,0.1-0.2,0.1-0.3c0-0.1,0.1-0.2,0.1-0.3s0.1-0.1,0.1-0.1c0.1-0.1,0.1-0.1,0.2-0.2l3.4-1.5
				c0.1,0,0.1,0,0.1,0.1c0,0.1-0.1,0.1-0.1,0.2s-0.1,0.2-0.1,0.2s-0.1,0.2-0.1,0.2s-0.1,0.1-0.1,0.2C103.2,14.9,103.2,14.9,103.1,15
				z"/>
			<path d="M103.7,24.8c0,0.1,0,0.1-0.1,0.2c0,0.1-0.1,0.1-0.1,0.2c0,0.1-0.1,0.1-0.1,0.2c0,0-0.1,0.1-0.1,0.1c-0.1,0-0.3,0-0.5,0
				c-0.2,0-0.4-0.1-0.6-0.1c-0.2-0.1-0.4-0.1-0.6-0.2c-0.2-0.1-0.4-0.2-0.6-0.3s-0.3-0.2-0.4-0.3c-0.1-0.1-0.2-0.2-0.2-0.4
				c-0.2,0.2-0.3,0.4-0.5,0.5c-0.2,0.1-0.4,0.2-0.6,0.3c-0.2,0.1-0.4,0.1-0.6,0.2c-0.2,0-0.4,0-0.5,0h-0.2c-0.2,0-0.3-0.1-0.4-0.2
				c-0.1-0.1-0.1-0.3-0.1-0.5s0-0.3,0.1-0.5c0.1-0.1,0.2-0.2,0.4-0.2h0.2c0.2,0,0.4,0,0.7,0s0.4,0,0.7-0.1c0.2-0.1,0.4-0.2,0.6-0.3
				c0.2-0.1,0.4-0.3,0.6-0.5c0.1-0.1,0.2-0.3,0.3-0.4c0.1-0.1,0.2-0.2,0.4-0.3c0.1-0.1,0.2-0.2,0.4-0.2c0.1-0.1,0.2-0.1,0.3-0.1
				s0.2,0.1,0.4,0.2c0.1,0.1,0.3,0.2,0.4,0.4c0.1,0.1,0.2,0.3,0.4,0.4c0.1,0.1,0.2,0.3,0.3,0.3c0.3,0.3,0.6,0.5,1,0.6
				c0.4,0.1,0.7,0.2,1.2,0.2h0.2c0.2,0,0.3,0.1,0.4,0.2c0.1,0.1,0.1,0.3,0.1,0.5s0,0.3-0.1,0.5c-0.1,0.1-0.2,0.2-0.4,0.2h-0.2
				c-0.3,0-0.7,0-1-0.1C104.3,25,104,24.9,103.7,24.8z M101.1,23.2c0.1,0.1,0.3,0.2,0.5,0.3c0.2,0.1,0.3,0.2,0.5,0.2
				s0.3,0.1,0.4,0.1c0.1,0,0.2,0.1,0.3,0.1c0,0,0,0,0.1,0c0,0,0,0,0-0.1c-0.1-0.1-0.2-0.2-0.3-0.4c-0.1-0.1-0.1-0.2-0.2-0.3
				s-0.1-0.2-0.1-0.3s-0.1-0.2-0.1-0.2c-0.1-0.1-0.1-0.2-0.2-0.1c-0.1,0-0.2,0.1-0.4,0.2c-0.2,0.1-0.3,0.2-0.4,0.4
				C101.1,23.1,101.1,23.1,101.1,23.2C101.1,23.2,101.1,23.2,101.1,23.2z"/>
			<path d="M107.6,10.2c0,0.2,0,0.4-0.1,0.6c-0.1,0.2-0.1,0.4-0.2,0.5s-0.3,0.3-0.4,0.4c-0.2,0.1-0.4,0.1-0.6,0.1
				c-0.3,0-0.6-0.1-0.8-0.3c-0.2-0.2-0.3-0.5-0.3-0.8c0-0.2,0-0.4,0.1-0.6c0.1-0.2,0.1-0.5,0.2-0.7c0.1-0.2,0.2-0.4,0.4-0.6
				c0.2-0.2,0.4-0.3,0.6-0.3c0.2,0,0.4,0,0.6,0.2s0.3,0.3,0.4,0.4c0.1,0.2,0.1,0.4,0.2,0.6C107.6,9.9,107.6,10.1,107.6,10.2z
				 M106.3,9.5c-0.1,0-0.2,0.1-0.3,0.1c-0.1,0.1-0.2,0.1-0.2,0.2c-0.1,0.1-0.1,0.2-0.2,0.3c0,0.1-0.1,0.2-0.1,0.3
				c0,0.1,0,0.2,0.1,0.2c0.1,0.1,0.1,0.1,0.2,0.1c0.1,0,0.2,0,0.3,0.1c0.1,0,0.2,0,0.3,0c0.3,0,0.6-0.2,0.9-0.4c0-0.1,0-0.2,0-0.3
				s-0.1-0.2-0.2-0.3c-0.1-0.1-0.2-0.2-0.3-0.2C106.5,9.6,106.4,9.5,106.3,9.5z"/>
			<path d="M106.5,12.9C106.5,12.9,106.5,12.9,106.5,12.9c0.1-0.1,0.1-0.1,0.1,0c0,0.1,0.1,0.3,0.2,0.4s0.1,0.3,0.2,0.4
				c0.1,0.1,0.2,0.3,0.3,0.4c0.1,0.1,0.2,0.2,0.4,0.3c-0.1,0.1-0.2,0.3-0.2,0.4c-0.1,0.1-0.1,0.2-0.2,0.3c0,0.1-0.1,0.2-0.1,0.3
				s0,0.2,0,0.3c0.1,0.6,0.1,1.2,0.2,1.7s0.2,1.2,0.3,1.7c0.1,0.6,0.2,1.2,0.2,1.7s0.1,1.2,0.1,1.7c0,0.2,0,0.4,0,0.6
				c0,0.2-0.1,0.4-0.1,0.6s-0.1,0.4-0.2,0.5c-0.1,0.2-0.2,0.3-0.3,0.4c-0.2,0.2-0.4,0.3-0.6,0.3s-0.6,0.1-0.9,0.1h-0.2
				c-0.2,0-0.3-0.1-0.4-0.2c-0.1-0.1-0.1-0.3-0.1-0.5s0-0.3,0.1-0.5c0.1-0.1,0.2-0.2,0.4-0.2h0.2c0.2,0,0.4,0,0.6,0
				c0.2,0,0.4,0,0.5-0.1c0.2,0,0.3-0.1,0.4-0.2s0.2-0.2,0.2-0.3c-0.1-1.3-0.3-2.5-0.5-3.8c-0.2-1.2-0.4-2.5-0.6-3.7
				c0-0.3-0.1-0.5-0.1-0.7c0-0.2-0.1-0.5-0.3-0.7c0-0.1-0.1-0.1-0.1-0.1c0,0,0-0.1,0-0.1c0.1-0.2,0.2-0.4,0.3-0.5
				S106.4,13.1,106.5,12.9z"/>
			<path d="M110.7,13.4C110.8,13.4,110.8,13.4,110.7,13.4c0.1,0.1,0.1,0.1,0.1,0.1c0,0,0,0.1,0,0.1s0,0.1,0,0.1c0,0.2,0,0.5,0,0.7
				c0,0.2,0,0.4,0.1,0.7c0.1,0.5,0.1,1.1,0.2,1.7c0.1,0.6,0.2,1.1,0.2,1.7s0.2,1.2,0.2,1.7c0.1,0.6,0.2,1.1,0.2,1.7
				c0,0.2,0,0.5,0,0.7c0,0.3,0,0.6,0,0.9s0,0.6-0.1,0.8c0,0.3-0.1,0.5-0.2,0.7c0,0.1-0.1,0.2-0.2,0.2c0,0-0.1,0-0.1-0.1
				c-0.1-1-0.2-2.1-0.3-3.2c-0.2-1.1-0.3-2.3-0.5-3.4c-0.2-1.1-0.3-2.3-0.4-3.4c0-0.3,0.1-0.6,0.2-0.9c0.1-0.2,0.1-0.3,0.2-0.5
				C110.6,13.7,110.7,13.5,110.7,13.4z"/>
			<path d="M117.2,16.3c-0.3,0.1-0.6,0.3-1,0.4c-0.3,0.1-0.7,0.3-1,0.4s-0.6,0.3-0.9,0.4c-0.3,0.1-0.5,0.2-0.7,0.3c0,0-0.1,0-0.1,0
				s0,0,0-0.1c0,0,0-0.1,0.1-0.2c0-0.1,0.1-0.2,0.1-0.3c0-0.1,0.1-0.2,0.1-0.3s0.1-0.1,0.1-0.1c0.1-0.1,0.1-0.1,0.2-0.2l3.4-1.5
				c0.1,0,0.1,0,0.1,0.1c0,0.1-0.1,0.1-0.1,0.2s-0.1,0.2-0.1,0.2s-0.1,0.2-0.1,0.2c0,0.1-0.1,0.1-0.1,0.2
				C117.3,16.2,117.3,16.3,117.2,16.3z"/>
			<path d="M117.9,23.5c-0.1,0.3-0.2,0.5-0.5,0.6s-0.5,0.3-0.8,0.3c-0.2,0-0.3,0-0.5-0.1c-0.1-0.1-0.3-0.2-0.4-0.3s-0.2-0.3-0.2-0.5
				c-0.1-0.2-0.1-0.4-0.1-0.5c0-0.1,0-0.3,0.1-0.4c0-0.2,0.1-0.3,0.2-0.5s0.1-0.3,0.2-0.5c0.1-0.2,0.2-0.3,0.3-0.5
				c0.1-0.1,0.2-0.2,0.3-0.3c0.1-0.1,0.2-0.1,0.4-0.1c0.2,0,0.5,0.1,0.7,0.3c0.2,0.2,0.4,0.4,0.5,0.7s0.3,0.6,0.4,1
				c0.1,0.3,0.1,0.7,0.1,1c0,0.4-0.1,0.9-0.2,1.3s-0.2,0.9-0.4,1.4c-0.2,0.5-0.4,0.9-0.6,1.3s-0.5,0.7-0.7,1
				c-0.2,0.3-0.5,0.5-0.8,0.7c-0.3,0.2-0.6,0.3-0.9,0.4c-0.3,0.1-0.6,0.2-1,0.2c-0.3,0-0.7,0-1,0c-0.4,0-0.7-0.1-1.1-0.1
				c-0.4-0.1-0.7-0.1-1-0.2c0,0-0.1,0-0.1-0.1s0-0.1,0-0.1c0,0,0.1-0.1,0.1-0.1s0.1,0,0.2,0c0.5,0.1,1,0.1,1.4,0
				c0.5-0.1,0.9-0.2,1.4-0.3c0.4-0.1,0.7-0.3,1.1-0.5s0.7-0.5,1-0.8c0.2-0.2,0.5-0.4,0.7-0.7c0.2-0.3,0.4-0.6,0.6-0.8
				s0.3-0.6,0.5-0.9c0.1-0.3,0.2-0.6,0.3-0.8c0-0.1,0-0.1,0-0.2c0-0.1,0-0.1,0-0.2c0-0.1,0-0.1,0-0.2
				C117.9,23.6,117.9,23.5,117.9,23.5z M117.6,22.7c0,0,0-0.1-0.1-0.2c0-0.1-0.1-0.2-0.2-0.3c-0.1-0.1-0.2-0.2-0.3-0.2
				c-0.1-0.1-0.2-0.1-0.3-0.1c-0.1,0-0.2,0-0.2,0.1s-0.1,0.1-0.2,0.2c-0.1,0.1-0.1,0.2-0.1,0.2c0,0.1,0,0.1,0,0.2
				c0.1,0.1,0.2,0.2,0.3,0.3c0.1,0,0.3,0.1,0.4,0.1c0.2,0,0.3,0,0.4-0.1S117.5,22.8,117.6,22.7z"/>
			<path d="M128.1,27.4c-0.6,0.2-1.2,0.4-1.8,0.7c-0.6,0.2-1.1,0.4-1.7,0.6c-0.1,0-0.1,0-0.1-0.1c0-0.1,0.1-0.2,0.2-0.4
				c0.1-0.1,0.1-0.3,0.2-0.3c0,0,0.1-0.1,0.1-0.1c0.2-0.1,0.4-0.1,0.6-0.2c0.3-0.1,0.5-0.2,0.9-0.3c0.3-0.1,0.6-0.2,1-0.4
				c0.3-0.1,0.7-0.2,1-0.3c0.1,0,0.1,0,0.1,0.1c0,0.1-0.1,0.1-0.1,0.2s-0.1,0.1-0.1,0.2c0,0.1-0.1,0.1-0.1,0.2
				c0,0.1-0.1,0.1-0.1,0.1C128.2,27.3,128.2,27.4,128.1,27.4C128.1,27.4,128.1,27.4,128.1,27.4z"/>
			<path d="M126.9,17.8C126.9,17.7,126.9,17.7,126.9,17.8c0.1-0.1,0.2,0,0.2,0l0.2,1.3c0,0.2,0.1,0.5,0.2,0.8
				c0.1,0.3,0.1,0.6,0.2,0.9c0.1,0.3,0.1,0.6,0.2,0.8c0.1,0.3,0.1,0.5,0.2,0.7c0.1,0.3,0.2,0.5,0.3,0.7s0.3,0.3,0.5,0.4
				s0.4,0.2,0.6,0.2s0.5,0.1,0.7,0.1h0.2c0.2,0,0.3,0.1,0.4,0.2c0.1,0.1,0.1,0.3,0.1,0.5s0,0.3-0.1,0.5c-0.1,0.1-0.2,0.2-0.4,0.2
				h-0.2c-0.4,0-0.7,0-1-0.1c-0.3-0.1-0.5-0.2-0.7-0.4c-0.2-0.2-0.4-0.3-0.5-0.6c-0.1-0.2-0.3-0.4-0.4-0.6c-0.1-0.3-0.2-0.5-0.2-0.7
				c-0.1-0.2-0.1-0.3-0.1-0.4c-0.2,0.3-0.5,0.5-0.7,0.7c-0.2,0.2-0.4,0.3-0.6,0.4s-0.4,0.1-0.7,0.1s-0.5,0-0.7,0
				c-0.1,0-0.2,0-0.3-0.1c-0.1,0-0.2-0.1-0.2-0.1s-0.1-0.1-0.2-0.2c0-0.1-0.1-0.2,0-0.3c0.1-0.3,0.1-0.7,0.3-1
				c0.1-0.3,0.3-0.6,0.4-0.8c0.3-0.4,0.6-0.7,0.9-0.9c0.4-0.2,0.8-0.5,1.3-0.7c0-0.1,0-0.2,0-0.3c0-0.1,0-0.2-0.1-0.3
				c0,0,0-0.1,0-0.2s0-0.2,0.1-0.3c0-0.1,0.1-0.2,0.1-0.3S126.9,17.9,126.9,17.8z M126.8,20.4c-0.5,0.1-0.9,0.3-1.2,0.5
				s-0.6,0.5-0.9,0.9c-0.1,0.1-0.1,0.2,0,0.2c0.2,0.1,0.4,0.1,0.6,0.1c0.2,0,0.5,0,0.7-0.1c0.2-0.1,0.4-0.1,0.6-0.2
				c0.2-0.1,0.3-0.2,0.4-0.2c0-0.2-0.1-0.4-0.1-0.6S126.9,20.6,126.8,20.4z M128,16.8C128,16.9,128,16.9,128,16.8
				c-0.1,0-0.1,0-0.2,0l-1.1-0.8l-0.7,1c0,0,0,0-0.1,0c0,0-0.1,0-0.1,0l-1.2-0.9c0,0,0,0,0,0c0,0,0,0,0-0.1l0.7-1c0,0,0,0,0.1-0.1
				c0,0,0,0,0.1,0l1.1,0.8l0.7-0.9c0,0,0,0,0,0c0,0,0,0,0.1,0l1.2,1c0,0,0,0.1,0,0.1L128,16.8z"/>
			<path d="M135,15c-0.3,0.1-0.6,0.3-1,0.4c-0.3,0.1-0.7,0.3-1,0.4s-0.6,0.3-0.9,0.4s-0.5,0.2-0.7,0.3c0,0-0.1,0-0.1,0
				c0,0,0,0,0-0.1c0,0,0-0.1,0.1-0.2c0-0.1,0.1-0.2,0.1-0.3c0-0.1,0.1-0.2,0.1-0.3c0-0.1,0.1-0.1,0.1-0.1c0.1-0.1,0.1-0.1,0.2-0.2
				l3.5-1.5c0.1,0,0.1,0,0.1,0.1c0,0.1-0.1,0.1-0.1,0.2s-0.1,0.2-0.1,0.2s-0.1,0.2-0.1,0.2c0,0.1-0.1,0.1-0.1,0.2
				C135.1,14.9,135,14.9,135,15z"/>
			<path d="M135.5,24.8c0,0.1,0,0.1-0.1,0.2c0,0.1-0.1,0.1-0.1,0.2c0,0.1-0.1,0.1-0.1,0.2c0,0-0.1,0.1-0.1,0.1c-0.1,0-0.3,0-0.5,0
				c-0.2,0-0.4-0.1-0.6-0.1c-0.2-0.1-0.4-0.1-0.6-0.2c-0.2-0.1-0.4-0.2-0.6-0.3c-0.2-0.1-0.3-0.2-0.4-0.3s-0.2-0.2-0.2-0.4
				c-0.2,0.2-0.3,0.4-0.5,0.5c-0.2,0.1-0.4,0.2-0.6,0.3c-0.2,0.1-0.4,0.1-0.6,0.2s-0.4,0-0.5,0H130c-0.2,0-0.3-0.1-0.4-0.2
				c-0.1-0.1-0.1-0.3-0.1-0.5s0-0.3,0.1-0.5c0.1-0.1,0.2-0.2,0.4-0.2h0.2c0.2,0,0.4,0,0.7,0s0.4,0,0.7-0.1s0.4-0.2,0.6-0.3
				c0.2-0.1,0.4-0.3,0.6-0.5c0.1-0.1,0.2-0.3,0.3-0.4c0.1-0.1,0.2-0.2,0.4-0.3c0.1-0.1,0.2-0.2,0.4-0.2c0.1-0.1,0.2-0.1,0.3-0.1
				s0.2,0.1,0.4,0.2c0.1,0.1,0.3,0.2,0.4,0.4c0.1,0.1,0.2,0.3,0.4,0.4s0.2,0.3,0.3,0.3c0.3,0.3,0.6,0.5,1,0.6
				c0.4,0.1,0.7,0.2,1.2,0.2h0.2c0.2,0,0.3,0.1,0.4,0.2c0.1,0.1,0.1,0.3,0.1,0.5s0,0.3-0.1,0.5c-0.1,0.1-0.2,0.2-0.4,0.2h-0.2
				c-0.3,0-0.7,0-1-0.1C136.1,25,135.8,24.9,135.5,24.8z M133,23.2c0.1,0.1,0.3,0.2,0.5,0.3c0.2,0.1,0.3,0.2,0.5,0.2
				s0.3,0.1,0.4,0.1c0.1,0,0.2,0.1,0.3,0.1c0,0,0,0,0.1,0c0,0,0,0,0-0.1c-0.1-0.1-0.2-0.2-0.3-0.4s-0.1-0.2-0.2-0.3
				c-0.1-0.1-0.1-0.2-0.1-0.3s-0.1-0.2-0.1-0.2c-0.1-0.1-0.1-0.2-0.2-0.1c-0.1,0-0.2,0.1-0.4,0.2s-0.3,0.2-0.4,0.4
				C133,23.1,132.9,23.1,133,23.2C132.9,23.2,133,23.2,133,23.2z"/>
			<path d="M142.2,10.4c0,0.2,0,0.4-0.1,0.6c-0.1,0.2-0.1,0.4-0.2,0.5s-0.3,0.3-0.4,0.4c-0.2,0.1-0.4,0.1-0.6,0.1
				c-0.3,0-0.6-0.1-0.8-0.3c-0.2-0.2-0.3-0.5-0.3-0.8c0-0.2,0-0.4,0.1-0.6c0.1-0.2,0.1-0.5,0.2-0.7s0.2-0.4,0.4-0.6
				c0.2-0.2,0.4-0.3,0.6-0.3c0.2,0,0.4,0,0.6,0.2c0.2,0.1,0.3,0.3,0.4,0.4c0.1,0.2,0.1,0.4,0.2,0.6
				C142.2,10.1,142.2,10.3,142.2,10.4z M140.9,9.8c-0.1,0-0.2,0.1-0.3,0.1c-0.1,0.1-0.2,0.1-0.2,0.2c-0.1,0.1-0.1,0.2-0.2,0.3
				s-0.1,0.2-0.1,0.3c0,0.1,0,0.2,0.1,0.2c0.1,0.1,0.1,0.1,0.2,0.1c0.1,0,0.2,0,0.3,0.1c0.1,0,0.2,0,0.3,0c0.3,0,0.6-0.2,0.9-0.4
				c0-0.1,0-0.2,0-0.3s-0.1-0.2-0.2-0.3c-0.1-0.1-0.2-0.2-0.3-0.2C141.2,9.8,141.1,9.8,140.9,9.8z"/>
			<path d="M137.4,23.7h0.2c0.2,0,0.4,0,0.6,0c0.3,0,0.5,0,0.8,0c0.3,0,0.6,0,0.9-0.1c0.3,0,0.6-0.1,0.9-0.1
				c0.3-0.1,0.6-0.1,0.9-0.2c0.3-0.1,0.5-0.2,0.7-0.4c-0.1-0.3-0.2-0.6-0.4-0.8c-0.2-0.3-0.4-0.5-0.6-0.8c-0.2-0.3-0.5-0.5-0.7-0.7
				s-0.5-0.4-0.7-0.6c-0.2-0.2-0.4-0.3-0.6-0.5c-0.2-0.2-0.4-0.3-0.6-0.5c-0.2-0.2-0.4-0.3-0.6-0.5c-0.2-0.2-0.4-0.3-0.5-0.5
				c-0.1-0.1-0.1-0.2-0.1-0.3c0-0.2,0-0.4,0.1-0.6s0.1-0.4,0.2-0.6c0.1-0.2,0.2-0.4,0.2-0.5c0.2-0.2,0.4-0.5,0.7-0.7
				c0.3-0.2,0.6-0.5,1-0.7s0.7-0.4,1.1-0.6s0.7-0.4,1-0.5c0.5-0.3,1-0.5,1.5-0.8c0.5-0.2,0.9-0.4,1.3-0.7s0.9-0.4,1.3-0.6
				c0.5-0.2,1-0.5,1.5-0.7c0,0,0,0,0,0c0,0,0,0,0,0.1c-0.1,0.2-0.1,0.5-0.2,0.7c-0.1,0.2-0.2,0.5-0.3,0.7c-0.5,0.2-0.9,0.4-1.3,0.6
				c-0.4,0.2-0.7,0.3-1.1,0.5c-0.3,0.2-0.7,0.3-1.1,0.5c-0.4,0.2-0.8,0.4-1.3,0.6c-0.5,0.3-1,0.5-1.4,0.7c-0.4,0.2-0.7,0.4-1,0.5
				c-0.3,0.2-0.5,0.3-0.7,0.4s-0.4,0.3-0.6,0.4c-0.1,0.1-0.3,0.2-0.3,0.3s-0.1,0.2-0.1,0.3c0.7,0.5,1.4,0.9,2.1,1.4
				c0.7,0.4,1.4,0.9,2.1,1.4c0.2,0.2,0.4,0.3,0.7,0.6c0.3,0.2,0.5,0.5,0.8,0.7c0.3,0.2,0.6,0.5,0.9,0.7c0.3,0.2,0.6,0.5,0.8,0.7
				c0.3,0.2,0.5,0.4,0.7,0.5s0.4,0.3,0.7,0.4s0.5,0.2,0.7,0.2c0.3,0,0.6,0.1,1,0.1h0.2c0.2,0,0.3,0.1,0.4,0.2s0.1,0.3,0.1,0.5
				s0,0.3-0.1,0.5c-0.1,0.1-0.2,0.2-0.4,0.2h-0.2c-0.3,0-0.7,0-0.9-0.1s-0.6-0.1-0.8-0.2c-0.3-0.1-0.5-0.2-0.8-0.4s-0.5-0.3-0.8-0.5
				c-0.3-0.2-0.6-0.5-0.8-0.7c-0.3-0.2-0.5-0.5-0.8-0.7c-0.3-0.2-0.5-0.5-0.7-0.7c-0.2-0.2-0.4-0.4-0.6-0.5c0.1,0.1,0.2,0.3,0.3,0.6
				c0.1,0.2,0.1,0.5,0.2,0.8c0,0.3,0,0.6-0.1,0.8c-0.1,0.3-0.2,0.5-0.4,0.7c-0.2,0.2-0.4,0.3-0.7,0.4s-0.6,0.2-0.9,0.3
				c-0.3,0.1-0.6,0.1-0.9,0.2c-0.3,0-0.6,0.1-0.9,0.1c-0.3,0-0.6,0-0.8,0c-0.2,0-0.4,0-0.6,0h-0.2c-0.2,0-0.3-0.1-0.4-0.2
				c-0.1-0.1-0.1-0.3-0.1-0.5s0-0.3,0.1-0.5S137.2,23.7,137.4,23.7z"/>
			<path d="M152.5,27c-0.6,0.2-1.2,0.4-1.8,0.7c-0.6,0.2-1.1,0.4-1.7,0.6c-0.1,0-0.1,0-0.1-0.1c0-0.1,0.1-0.2,0.2-0.4
				c0.1-0.1,0.1-0.3,0.2-0.3c0,0,0.1-0.1,0.1-0.1c0.2-0.1,0.4-0.1,0.6-0.2c0.3-0.1,0.5-0.2,0.9-0.3c0.3-0.1,0.6-0.2,1-0.4
				c0.3-0.1,0.7-0.2,1-0.3c0.1,0,0.1,0,0.1,0.1c0,0.1-0.1,0.1-0.1,0.2s-0.1,0.1-0.1,0.2c0,0.1-0.1,0.1-0.1,0.2
				c0,0.1-0.1,0.1-0.1,0.1C152.6,26.9,152.5,26.9,152.5,27C152.5,27,152.5,27,152.5,27z"/>
			<path d="M153.6,9.1c0,0.2,0,0.4-0.1,0.6c-0.1,0.2-0.1,0.4-0.2,0.5s-0.3,0.3-0.4,0.4c-0.2,0.1-0.4,0.1-0.6,0.1
				c-0.3,0-0.6-0.1-0.8-0.3c-0.2-0.2-0.3-0.5-0.3-0.8c0-0.2,0-0.4,0.1-0.6c0.1-0.2,0.1-0.5,0.2-0.7s0.2-0.4,0.4-0.6
				c0.2-0.2,0.4-0.3,0.6-0.3c0.2,0,0.4,0,0.6,0.2c0.2,0.1,0.3,0.3,0.4,0.4c0.1,0.2,0.1,0.4,0.2,0.6C153.6,8.8,153.6,8.9,153.6,9.1z
				 M152.3,8.4c-0.1,0-0.2,0.1-0.3,0.1c-0.1,0.1-0.2,0.1-0.2,0.2c-0.1,0.1-0.1,0.2-0.2,0.3s-0.1,0.2-0.1,0.3c0,0.1,0,0.2,0.1,0.2
				c0.1,0.1,0.1,0.1,0.2,0.1c0.1,0,0.2,0,0.3,0.1c0.1,0,0.2,0,0.3,0c0.3,0,0.6-0.2,0.9-0.4c0-0.1,0-0.2,0-0.3s-0.1-0.2-0.2-0.3
				c-0.1-0.1-0.2-0.2-0.3-0.2C152.6,8.4,152.4,8.4,152.3,8.4z"/>
			<path d="M153.6,20.8c0.3,0.1,0.6,0.2,0.9,0.3c0.3,0.1,0.6,0.1,0.8,0.2s0.5,0.1,0.8,0.2c0.3,0.1,0.5,0.1,0.8,0.1
				c0.4,0.1,0.8,0.1,1.3,0.1c0.4,0,0.9,0,1.3,0.1c0.1,0,0.1,0.1,0.1,0.1c0,0.1-0.1,0.1-0.1,0.2c-0.1,0.1-0.1,0.2-0.2,0.3
				c-0.1,0.1-0.1,0.2-0.2,0.3c-0.1,0.1-0.1,0.2-0.2,0.3c0,0-0.1,0.1-0.1,0.1c0,0-0.1,0-0.2,0c-0.5-0.1-0.9-0.1-1.3-0.1
				c-0.4,0-0.8,0.1-1.2,0.1c-0.4,0.1-0.8,0.2-1.2,0.3c-0.4,0.1-0.8,0.3-1.2,0.4c-0.4,0.2-0.8,0.3-1.2,0.5c-0.4,0.2-0.8,0.3-1.2,0.4
				S150.5,25,150,25c-0.4,0.1-0.9,0.1-1.4,0.1h-0.2c-0.2,0-0.3-0.1-0.4-0.2c-0.1-0.1-0.1-0.3-0.1-0.5s0-0.3,0.1-0.5
				c0.1-0.1,0.2-0.2,0.4-0.2h0.2c0.3,0,0.7,0,1.1,0c0.4,0,0.8-0.1,1.3-0.2c0.5-0.1,1-0.2,1.6-0.4c0.6-0.2,1.2-0.4,1.9-0.7
				c-0.5-0.1-0.9-0.3-1.3-0.4c-0.4-0.1-0.9-0.2-1.3-0.2c-0.4-0.1-0.9-0.1-1.3-0.1s-0.9,0-1.3,0.1c-0.1,0-0.1,0,0-0.1
				c0.1-0.2,0.2-0.4,0.3-0.6c0.1-0.2,0.2-0.4,0.4-0.6c0,0,0.2-0.1,0.4-0.1s0.5-0.1,0.8-0.1s0.6-0.1,0.9-0.1c0.3,0,0.6-0.1,0.9-0.1
				c0.1,0,0.2,0,0.3-0.1c0.1,0,0.1-0.1,0.1-0.2c0-0.3-0.1-0.7-0.1-1.1c-0.1-0.4-0.1-0.9-0.2-1.3c-0.1-0.5-0.2-0.9-0.2-1.4
				s-0.2-0.9-0.2-1.3c0-0.1-0.1-0.3-0.1-0.4c0-0.1,0-0.3-0.1-0.4c0-0.1-0.1-0.3-0.1-0.4c-0.1-0.1-0.1-0.2-0.2-0.3
				c0.1-0.2,0.2-0.4,0.3-0.6c0.1-0.2,0.2-0.4,0.3-0.6c0-0.1,0.1-0.1,0.1-0.1s0.1,0,0.1,0.1c0.1,0.1,0.1,0.3,0.2,0.4
				c0.1,0.2,0.1,0.3,0.2,0.4s0.2,0.3,0.3,0.4c0.1,0.1,0.2,0.2,0.4,0.3c0,0.1-0.1,0.2-0.1,0.3c-0.1,0.1-0.1,0.2-0.2,0.3
				c-0.1,0.1-0.1,0.2-0.1,0.3s0,0.2,0,0.3c0,0.1,0.1,0.3,0.1,0.6c0.1,0.3,0.1,0.6,0.2,1c0.1,0.4,0.1,0.7,0.2,1.1
				c0.1,0.4,0.1,0.8,0.1,1.1c0,0.2,0,0.3,0,0.5c0,0.2,0,0.4,0,0.6c0,0.2-0.1,0.4-0.1,0.6C153.8,20.4,153.7,20.6,153.6,20.8z"/>
			<path d="M160.7,14.6c0-0.2,0.1-0.4,0.2-0.6c0.1-0.2,0.2-0.4,0.3-0.6c0,0,0,0,0.1,0s0.1,0,0.1,0c0.1,0.3,0.2,0.7,0.2,1
				s0.1,0.7,0.2,1.1c0.1,0.4,0.1,0.9,0.2,1.3s0.1,1,0.2,1.6c0,0.5,0.1,0.9,0.1,1.2c0,0.3,0.1,0.6,0.1,0.9c0,0.3,0.1,0.5,0.1,0.7
				s0.1,0.4,0.1,0.7c0.1,0.3,0.1,0.6,0.2,0.8c0.1,0.2,0.2,0.4,0.4,0.5c0.2,0.1,0.4,0.3,0.6,0.3s0.5,0.1,0.8,0.1h0.1
				c0.2,0,0.3,0.1,0.4,0.2c0.1,0.1,0.1,0.3,0.1,0.5s0,0.3-0.1,0.5c-0.1,0.1-0.2,0.2-0.4,0.2h-0.1c-0.5,0-0.9-0.1-1.2-0.2
				c-0.3-0.2-0.6-0.4-0.8-0.6c-0.2-0.3-0.4-0.6-0.5-0.9c-0.1-0.3-0.2-0.7-0.3-1.1c0-0.3-0.1-0.7-0.1-1.1s-0.1-0.7-0.1-1.1
				c0-0.4-0.1-0.7-0.1-1s-0.1-0.6-0.1-0.9c-0.1-0.5-0.1-1.1-0.2-1.7c-0.1-0.6-0.2-1.2-0.4-1.8C160.7,14.7,160.7,14.7,160.7,14.6
				C160.7,14.6,160.7,14.6,160.7,14.6z"/>
			<path d="M167.9,30.8c-0.6,0.2-1.2,0.4-1.8,0.7c-0.6,0.2-1.1,0.4-1.7,0.6c-0.1,0-0.1,0-0.1-0.1c0-0.1,0.1-0.2,0.2-0.4
				c0.1-0.1,0.1-0.3,0.2-0.3c0,0,0.1-0.1,0.1-0.1c0.2-0.1,0.4-0.1,0.6-0.2c0.3-0.1,0.5-0.2,0.9-0.3c0.3-0.1,0.6-0.2,1-0.4
				c0.3-0.1,0.7-0.2,1-0.3c0.1,0,0.1,0,0.1,0.1c0,0.1-0.1,0.1-0.1,0.2s-0.1,0.1-0.1,0.2c0,0.1-0.1,0.1-0.1,0.2
				c0,0.1-0.1,0.1-0.1,0.1C168,30.7,168,30.7,167.9,30.8C167.9,30.8,167.9,30.8,167.9,30.8z"/>
			<path d="M166.6,20.2C166.7,20.2,166.7,20.1,166.6,20.2c0.1-0.1,0.1,0,0.2,0c0.2,0.2,0.3,0.4,0.5,0.6c0.1,0.2,0.3,0.4,0.4,0.6
				s0.2,0.4,0.3,0.7c0.1,0.2,0.1,0.5,0.1,0.7c0,0.1,0,0.2,0,0.3c0,0.1,0,0.3-0.1,0.4c0,0.1-0.1,0.3-0.1,0.4c0,0.1-0.1,0.2-0.1,0.3
				c-0.1,0.2-0.3,0.4-0.6,0.5c-0.3,0.1-0.5,0.2-0.8,0.3c-0.3,0.1-0.6,0.1-0.9,0.1c-0.3,0-0.6,0-0.9,0h-0.2c-0.2,0-0.3-0.1-0.4-0.2
				c-0.1-0.1-0.1-0.3-0.1-0.5s0-0.3,0.1-0.5c0.1-0.1,0.2-0.2,0.4-0.2h0.2c0.1,0,0.3,0,0.6,0s0.5,0,0.8,0c0.3,0,0.6-0.1,0.8-0.1
				c0.3,0,0.5-0.1,0.6-0.2c0.1-0.1,0.1-0.1,0.1-0.2c-0.1-0.3-0.3-0.6-0.5-0.9c-0.2-0.3-0.4-0.5-0.7-0.8c0-0.2,0.1-0.4,0.2-0.6
				C166.5,20.6,166.6,20.4,166.6,20.2z M165.9,26.9l1.1,0.9c0,0,0.1,0.1,0,0.1l-0.7,0.9c0,0.1-0.1,0.1-0.1,0L165,28c0,0,0-0.1,0-0.2
				l0.7-0.9C165.8,26.9,165.8,26.9,165.9,26.9z"/>
			<path d="M180.3,13.2c-0.3,0.1-0.6,0.3-1,0.4c-0.3,0.1-0.7,0.3-1,0.4s-0.6,0.3-0.9,0.4s-0.5,0.2-0.7,0.3c0,0-0.1,0-0.1,0
				c0,0,0,0,0-0.1c0,0,0-0.1,0.1-0.2c0-0.1,0.1-0.2,0.1-0.3c0-0.1,0.1-0.2,0.1-0.3c0-0.1,0.1-0.1,0.1-0.1c0.1-0.1,0.1-0.1,0.2-0.2
				l3.5-1.5c0.1,0,0.1,0,0.1,0.1c0,0.1-0.1,0.1-0.1,0.2s-0.1,0.2-0.1,0.2s-0.1,0.2-0.1,0.2c0,0.1-0.1,0.1-0.1,0.2
				C180.4,13.1,180.4,13.1,180.3,13.2z"/>
			<path d="M186.8,23.7c0.2,0,0.3,0.1,0.4,0.2c0.1,0.1,0.1,0.3,0.1,0.5s0,0.3-0.1,0.5c-0.1,0.1-0.2,0.2-0.4,0.2h-0.2
				c-0.3,0-0.6-0.1-0.9-0.2c-0.3-0.1-0.5-0.3-0.7-0.5s-0.4-0.5-0.5-0.8c-0.1-0.3-0.3-0.7-0.3-1c-0.2,0.3-0.4,0.6-0.6,0.9
				s-0.6,0.5-0.9,0.7c-0.3,0.2-0.7,0.4-1.1,0.6c-0.4,0.2-0.8,0.3-1.2,0.5c-0.4,0.1-0.9,0.3-1.3,0.4c-0.5,0.1-0.9,0.2-1.4,0.2
				c-0.5,0-0.9,0-1.4,0c-0.5-0.1-0.9-0.2-1.3-0.4c-0.6-0.3-1-0.7-1.3-1.2c-0.3-0.5-0.5-1.1-0.5-1.7c0-0.5,0.1-1.1,0.3-1.6
				c0.2-0.5,0.5-1,0.8-1.4c0,0,0.1,0,0.1,0s0.1,0,0.1,0c0,0,0,0,0.1,0.1c0,0,0,0.1,0,0.1c-0.1,0.2-0.2,0.4-0.3,0.6s-0.2,0.4-0.3,0.6
				s-0.1,0.4-0.1,0.7c0,0.2,0,0.5,0.1,0.7c0.1,0.3,0.2,0.6,0.4,0.9s0.4,0.4,0.7,0.6c0.3,0.2,0.6,0.3,0.9,0.4
				c0.3,0.1,0.6,0.1,0.9,0.2c0.6,0.1,1.2,0,1.9-0.1s1.3-0.3,1.9-0.5c0.7-0.2,1.3-0.5,1.8-0.8s1-0.7,1.4-1.1
				c-0.1-0.5-0.1-1.1-0.2-1.6s-0.1-1.1-0.2-1.6c0-0.3-0.1-0.7-0.1-1s-0.1-0.6-0.1-0.9c0-0.3-0.1-0.7-0.1-1.1s-0.1-0.9-0.2-1.4
				c0-0.1,0-0.2,0-0.2c0.1-0.2,0.1-0.3,0.2-0.5s0.2-0.3,0.3-0.5c0.1-0.1,0.1-0.1,0.1,0c0,0.1,0,0.3,0.1,0.5c0,0.2,0.1,0.5,0.1,0.8
				c0.1,1,0.2,1.8,0.3,2.5c0.1,0.7,0.2,1.3,0.2,1.9c0.1,0.5,0.1,1.1,0.2,1.6c0.1,0.6,0.2,1.1,0.3,1.6c0.1,0.2,0.1,0.5,0.2,0.7
				c0.1,0.2,0.2,0.4,0.4,0.5s0.3,0.3,0.5,0.4c0.2,0.1,0.4,0.1,0.7,0.1H186.8z M180.3,19.3c0,0.2,0,0.4,0,0.6c0,0.2-0.1,0.4-0.2,0.6
				c-0.1,0.2-0.2,0.4-0.3,0.6c-0.1,0.2-0.3,0.3-0.4,0.4c-0.1,0.1-0.3,0.2-0.5,0.2c-0.2,0-0.4,0-0.6,0c-0.2,0-0.4,0-0.6-0.1
				c-0.2-0.1-0.4-0.1-0.6-0.2c0,0,0,0,0-0.1s0-0.1,0-0.1c0,0,0,0,0.1-0.1c0,0,0.1,0,0.2,0c0.3,0,0.6,0,0.8,0
				c0.3-0.1,0.5-0.1,0.7-0.2c0.2-0.1,0.4-0.2,0.5-0.3c0.1-0.1,0.2-0.2,0.2-0.2c0-0.1,0-0.1-0.1-0.1c-0.1,0-0.1,0-0.2,0
				c-0.1,0-0.2,0-0.2,0c-0.1,0-0.1,0-0.2,0c-0.1,0-0.3,0-0.4-0.1s-0.3-0.1-0.4-0.3c0-0.2-0.1-0.3,0-0.5s0-0.4,0.1-0.5
				c0-0.2,0.1-0.3,0.2-0.5c0.1-0.2,0.2-0.3,0.2-0.4c0.2-0.3,0.4-0.6,0.7-0.7s0.5-0.3,0.8-0.3c0,0,0.1,0,0,0.1
				c-0.1,0.2-0.1,0.4-0.2,0.6c-0.1,0.2-0.1,0.4-0.2,0.5c-0.1,0-0.2,0-0.3,0c-0.1,0-0.2,0.1-0.3,0.2c-0.1,0.1-0.2,0.1-0.3,0.2
				c-0.1,0.1-0.1,0.2-0.1,0.2c0,0.1,0,0.2,0.1,0.2c0.1,0,0.2,0.1,0.3,0.1c0.1,0,0.3,0,0.4,0c0.1,0,0.2,0,0.3,0c0.1,0,0.2,0,0.2,0.1
				C180.2,19.2,180.2,19.3,180.3,19.3z"/>
			<path d="M188.8,15.7c-0.1,0.3-0.3,0.5-0.4,0.6c-0.2,0.1-0.4,0.2-0.6,0.2c-0.2,0-0.4,0-0.5-0.1c-0.1-0.1-0.2-0.3-0.3-0.6
				c0-0.1,0-0.3,0-0.4c0-0.1,0.1-0.3,0.1-0.4s0.1-0.2,0.2-0.3c0.1-0.1,0.1-0.1,0.2-0.2c0.1,0,0.1,0,0,0.2c0,0.1,0,0.1-0.1,0.2
				c0,0.1,0,0.2,0,0.3c0,0.1,0,0.2,0,0.2c0,0.1,0.1,0.1,0.1,0.1c0.1,0.1,0.2,0.1,0.3,0.1c0.1,0,0.2,0,0.3-0.1c0.1,0,0.2-0.1,0.3-0.2
				c0.1-0.1,0.2-0.1,0.2-0.2c0.1-0.1,0.1-0.2,0.1-0.3s0.1-0.2,0.1-0.3c0,0,0-0.1,0-0.1c0,0,0-0.1,0-0.1c0,0,0-0.1,0.1-0.1
				s0.1-0.1,0.1-0.1c0,0,0,0,0.1,0c0,0,0,0.1,0,0.1c0,0,0,0.1,0,0.1c0,0,0,0.1,0,0.1c0,0.2,0,0.3,0.1,0.4c0.1,0.1,0.2,0.2,0.3,0.2
				c0.1,0,0.2,0,0.3,0s0.2-0.1,0.3-0.2c0,0,0-0.1,0-0.1c0-0.1,0-0.1,0-0.2c0-0.1,0-0.1,0-0.2c0-0.1,0-0.1,0-0.1c0,0,0-0.1,0-0.1
				c0-0.1,0-0.2,0.1-0.2c0-0.1,0.1-0.2,0.1-0.2s0.1-0.1,0.1-0.1c0.1,0,0.1,0,0.1,0.1c0,0.1,0.1,0.2,0.1,0.3c0,0.1,0,0.3,0,0.4
				s0,0.3,0,0.4c0,0.1-0.1,0.2-0.1,0.3s-0.1,0.2-0.2,0.3c-0.1,0.1-0.1,0.2-0.2,0.2c-0.1,0.1-0.2,0.1-0.3,0.1c-0.2,0-0.4,0-0.6,0
				C189,15.9,188.9,15.8,188.8,15.7z"/>
			<path d="M189.9,31.9c-0.6,0.2-1.2,0.4-1.8,0.7c-0.6,0.2-1.1,0.4-1.7,0.6c-0.1,0-0.1,0-0.1-0.1c0-0.1,0.1-0.2,0.2-0.4
				c0.1-0.1,0.1-0.3,0.2-0.3c0,0,0.1-0.1,0.1-0.1c0.2-0.1,0.4-0.1,0.6-0.2c0.3-0.1,0.5-0.2,0.9-0.3c0.3-0.1,0.6-0.2,1-0.4
				c0.3-0.1,0.7-0.2,1-0.3c0.1,0,0.1,0,0.1,0.1c0,0.1-0.1,0.1-0.1,0.2s-0.1,0.1-0.1,0.2c0,0.1-0.1,0.1-0.1,0.2
				c0,0.1-0.1,0.1-0.1,0.1C190,31.8,190,31.9,189.9,31.9C190,31.9,190,31.9,189.9,31.9z"/>
			<path d="M189.4,20.2C189.4,20.1,189.4,20.1,189.4,20.2c0.1-0.1,0.1,0,0.2,0c0.2,0.2,0.3,0.4,0.5,0.6c0.1,0.2,0.3,0.4,0.4,0.6
				s0.2,0.4,0.3,0.7c0.1,0.2,0.1,0.5,0.1,0.7c0,0.1,0,0.2,0,0.3c0,0.1,0,0.3-0.1,0.4c0,0.1-0.1,0.3-0.1,0.4c0,0.1-0.1,0.2-0.1,0.3
				c-0.1,0.1-0.2,0.3-0.4,0.4c-0.2,0.1-0.4,0.2-0.6,0.3s-0.5,0.1-0.7,0.2s-0.5,0.1-0.8,0.1c-0.3,0-0.5,0-0.7,0.1s-0.4,0-0.6,0h-0.2
				c-0.2,0-0.3-0.1-0.4-0.2c-0.1-0.1-0.1-0.3-0.1-0.5s0-0.3,0.1-0.5c0.1-0.1,0.2-0.2,0.4-0.2h0.2c0.1,0,0.2,0,0.4,0
				c0.2,0,0.4,0,0.6,0c0.2,0,0.5,0,0.7,0c0.2,0,0.5,0,0.7-0.1s0.4-0.1,0.6-0.1s0.3-0.1,0.4-0.2c0.1-0.1,0.1-0.1,0.1-0.2
				c-0.1-0.3-0.3-0.6-0.5-0.9c-0.2-0.3-0.4-0.5-0.7-0.8c0-0.2,0.1-0.4,0.2-0.6C189.3,20.6,189.3,20.4,189.4,20.2z M187.9,27l1.1,0.9
				c0,0,0,0,0,0.1s0,0,0,0.1l-0.7,0.9c0,0-0.1,0.1-0.1,0l-1.1-0.9c0,0,0-0.1,0-0.1l0.7-0.9C187.8,27,187.8,27,187.9,27z"/>
			<path d="M196,15.4c-0.3,0.1-0.6,0.3-1,0.4c-0.3,0.1-0.7,0.3-1,0.4s-0.6,0.3-0.9,0.4s-0.5,0.2-0.7,0.3c0,0-0.1,0-0.1,0
				c0,0,0,0,0-0.1c0,0,0-0.1,0.1-0.2c0-0.1,0.1-0.2,0.1-0.3c0-0.1,0.1-0.2,0.1-0.3c0-0.1,0.1-0.1,0.1-0.1c0.1-0.1,0.1-0.1,0.2-0.2
				l3.5-1.5c0.1,0,0.1,0,0.1,0.1c0,0.1-0.1,0.1-0.1,0.2s-0.1,0.2-0.1,0.2s-0.1,0.2-0.1,0.2c0,0.1-0.1,0.1-0.1,0.2
				C196.1,15.3,196.1,15.4,196,15.4z"/>
			<path d="M195.7,21.3c0-0.1,0.1-0.1,0.2,0c0.2,0.2,0.5,0.5,0.7,0.8c0.2,0.3,0.4,0.6,0.5,1c0.1,0.3,0.2,0.7,0.3,1.1s0.1,0.7,0,1
				c0,0.3-0.1,0.6-0.2,0.9c-0.1,0.3-0.2,0.6-0.4,0.9c-0.1,0.3-0.3,0.6-0.5,0.9c-0.2,0.3-0.4,0.5-0.6,0.8c-0.2,0.2-0.4,0.5-0.7,0.6
				s-0.5,0.3-0.8,0.4c-0.3,0.1-0.7,0.2-1,0.2c-0.4,0-0.8,0-1.1,0s-0.8-0.1-1.1-0.1s-0.7-0.2-1-0.2c-0.1,0-0.1,0-0.1-0.1
				c0,0,0-0.1,0-0.1c0,0,0-0.1,0.1-0.1s0.1,0,0.2,0c0.4,0,0.7,0.1,1.1,0s0.7-0.1,1.1-0.2s0.7-0.2,1-0.3c0.3-0.1,0.7-0.3,1-0.5
				c0.3-0.2,0.5-0.4,0.8-0.6s0.5-0.5,0.7-0.7c0.2-0.3,0.4-0.5,0.6-0.8c0.2-0.3,0.3-0.6,0.5-0.9c0-0.2-0.1-0.4-0.2-0.6
				c-0.1-0.2-0.3-0.5-0.4-0.7c-0.2-0.2-0.3-0.5-0.5-0.7c-0.2-0.2-0.3-0.4-0.4-0.5c0-0.3,0.1-0.5,0.1-0.7
				C195.6,21.7,195.7,21.5,195.7,21.3z"/>
			<path d="M209.3,32.2c-0.6,0.2-1.2,0.4-1.8,0.7c-0.6,0.2-1.1,0.4-1.7,0.6c-0.1,0-0.1,0-0.1-0.1c0-0.1,0.1-0.2,0.2-0.4
				c0.1-0.1,0.1-0.3,0.2-0.3c0,0,0.1-0.1,0.1-0.1c0.2-0.1,0.4-0.1,0.6-0.2c0.3-0.1,0.5-0.2,0.9-0.3c0.3-0.1,0.6-0.2,1-0.4
				c0.3-0.1,0.7-0.2,1-0.3c0.1,0,0.1,0,0.1,0.1c0,0.1-0.1,0.1-0.1,0.2s-0.1,0.1-0.1,0.2c0,0.1-0.1,0.1-0.1,0.2
				c0,0.1-0.1,0.1-0.1,0.1C209.5,32.1,209.4,32.1,209.3,32.2C209.4,32.1,209.4,32.2,209.3,32.2z"/>
			<path d="M209,14.3C209.1,14.3,209.1,14.2,209,14.3c0.1-0.1,0.2,0,0.2,0.1l0.5,4.1l0.4,2.8c0,0.3,0.1,0.6,0.2,0.9s0.2,0.5,0.3,0.8
				c0.2,0.2,0.3,0.4,0.6,0.6c0.2,0.1,0.5,0.2,0.9,0.2h0.2c0.2,0,0.3,0.1,0.4,0.2c0.1,0.1,0.1,0.3,0.1,0.5s0,0.3-0.1,0.5
				c-0.1,0.1-0.2,0.2-0.4,0.2H212c-0.3,0-0.7-0.1-1-0.2s-0.6-0.3-0.8-0.6l0.2,2.4c0,0.6-0.2,1.1-0.4,1.6c-0.2,0.5-0.5,0.9-0.9,1.2
				c-0.4,0.3-0.8,0.6-1.3,0.8c-0.5,0.2-1,0.3-1.6,0.3c-0.5,0-1-0.1-1.4-0.2c-0.4-0.2-0.8-0.4-1.1-0.7s-0.5-0.6-0.7-1.1
				c-0.2-0.4-0.3-0.9-0.3-1.4c0-0.6,0.1-1.1,0.3-1.6s0.4-1,0.8-1.5c0-0.1,0.1-0.1,0.1-0.1c0,0,0,0,0.1,0c0,0,0,0.1,0,0.1
				s0,0.1,0,0.1c-0.3,0.6-0.5,1.1-0.5,1.7s0,1.1,0.2,1.6c0.1,0.2,0.2,0.5,0.4,0.6c0.2,0.2,0.3,0.4,0.6,0.5c0.2,0.1,0.5,0.3,0.8,0.3
				s0.6,0.1,1,0.1c0.7,0,1.4-0.1,2-0.4c0.6-0.3,1.1-0.7,1.6-1.3l-1.3-12c0.1-0.2,0.1-0.4,0.2-0.6S209,14.5,209,14.3z"/>
			<path d="M215.1,21.9c0,0.1,0,0.1,0,0.2c0,0.1,0,0.2,0,0.3c0,0.2,0,0.3,0.1,0.5c0.1,0.2,0.2,0.3,0.4,0.4c0.2,0.1,0.4,0.2,0.6,0.3
				c0.3,0.1,0.6,0.1,0.9,0.1h0.2c0.2,0,0.3,0.1,0.4,0.2c0.1,0.1,0.1,0.3,0.1,0.5s0,0.3-0.1,0.5c-0.1,0.1-0.2,0.2-0.4,0.2h-0.2
				c-0.7,0-1.2-0.1-1.6-0.4c-0.4-0.3-0.7-0.6-0.9-1.1c-0.2,0.3-0.3,0.6-0.6,0.8s-0.4,0.3-0.7,0.4c-0.2,0.1-0.5,0.2-0.7,0.2
				c-0.2,0-0.4,0-0.6,0h-0.2c-0.2,0-0.3-0.1-0.4-0.2c-0.1-0.1-0.1-0.3-0.1-0.5s0-0.3,0.1-0.5c0.1-0.1,0.2-0.2,0.4-0.2h0.2
				c0.2,0,0.4,0,0.6,0c0.2,0,0.4,0,0.6-0.1c0.2-0.1,0.4-0.1,0.6-0.2c0.2-0.1,0.4-0.3,0.5-0.5c0.1-0.2,0.2-0.3,0.3-0.5
				s0.2-0.3,0.2-0.5c0,0,0-0.1,0-0.1c0,0,0.1,0,0.1,0C215,21.8,215.1,21.8,215.1,21.9C215.1,21.8,215.1,21.8,215.1,21.9z
				 M215.8,28.7C215.7,28.8,215.7,28.8,215.8,28.7c-0.1,0.1-0.1,0-0.2,0l-1.1-0.8l-0.7,1c0,0.1-0.1,0.1-0.1,0l-1.1-0.9
				c0,0,0-0.1,0-0.1l0.7-1c0,0,0-0.1,0.1-0.1c0,0,0,0,0.1,0l1.1,0.8l0.7-0.9c0,0,0.1-0.1,0.1,0l1.1,1c0,0,0,0.1,0,0.1L215.8,28.7z"
				/>
			<path d="M221.1,30.1c-0.6,0.2-1.2,0.4-1.8,0.7c-0.6,0.2-1.1,0.4-1.7,0.6c-0.1,0-0.1,0-0.1-0.1c0-0.1,0.1-0.2,0.2-0.4
				c0.1-0.1,0.1-0.3,0.2-0.3c0,0,0.1-0.1,0.1-0.1c0.2-0.1,0.4-0.1,0.6-0.2c0.3-0.1,0.5-0.2,0.9-0.3c0.3-0.1,0.6-0.2,1-0.4
				c0.3-0.1,0.7-0.2,1-0.3c0.1,0,0.1,0,0.1,0.1c0,0.1-0.1,0.1-0.1,0.2s-0.1,0.1-0.1,0.2c0,0.1-0.1,0.1-0.1,0.2
				c0,0.1-0.1,0.1-0.1,0.1C221.3,30,221.2,30.1,221.1,30.1C221.2,30.1,221.2,30.1,221.1,30.1z"/>
			<path d="M219,21.2c0-0.1,0.1-0.1,0.1-0.3c0-0.1,0.1-0.2,0.2-0.3c0.1-0.1,0.1-0.2,0.1-0.3c0-0.1,0.1-0.1,0.1-0.1
				c0.1,0.2,0.2,0.5,0.3,0.7c0.1,0.2,0.2,0.5,0.3,0.7c0.1,0.2,0.2,0.4,0.3,0.6s0.2,0.4,0.3,0.5c0.1,0.2,0.3,0.4,0.4,0.5
				c0.1,0.1,0.3,0.2,0.4,0.3c0.2,0.1,0.3,0.1,0.5,0.1c0.2,0,0.4,0,0.6,0h0.2c0.2,0,0.3,0.1,0.4,0.2c0.1,0.1,0.1,0.3,0.1,0.5
				s0,0.3-0.1,0.5c-0.1,0.1-0.2,0.2-0.4,0.2h-0.2c-0.6,0-1.1-0.1-1.6-0.4c-0.5-0.3-0.8-0.6-1-1.1c-0.1,0.3-0.2,0.5-0.4,0.7
				s-0.4,0.3-0.6,0.5c-0.2,0.1-0.5,0.2-0.8,0.3c-0.3,0.1-0.6,0.1-0.9,0.1H217c-0.2,0-0.3-0.1-0.4-0.2c-0.1-0.1-0.1-0.3-0.1-0.5
				s0-0.3,0.1-0.5c0.1-0.1,0.2-0.2,0.4-0.2h0.1c0.2,0,0.3,0,0.5,0c0.2,0,0.4,0,0.7-0.1c0.2,0,0.4-0.1,0.7-0.2
				c0.2-0.1,0.4-0.2,0.6-0.3c0-0.1-0.1-0.2-0.1-0.3c-0.1-0.1-0.1-0.3-0.2-0.4c-0.1-0.2-0.1-0.3-0.2-0.5c-0.1-0.2-0.1-0.3-0.1-0.4
				C219,21.4,219,21.3,219,21.2z M219.4,26.4l1.1,0.9c0,0,0.1,0.1,0,0.1l-0.7,0.9c0,0.1-0.1,0.1-0.1,0l-1.1-0.9c0,0,0-0.1,0-0.2
				l0.8-0.9C219.3,26.4,219.4,26.4,219.4,26.4z"/>
			<path d="M228.6,15c-0.3,0.1-0.6,0.3-1,0.4c-0.3,0.1-0.7,0.3-1,0.4s-0.6,0.3-0.9,0.4s-0.5,0.2-0.7,0.3c0,0-0.1,0-0.1,0
				c0,0,0,0,0-0.1c0,0,0-0.1,0.1-0.2c0-0.1,0.1-0.2,0.1-0.3c0-0.1,0.1-0.2,0.1-0.3c0-0.1,0.1-0.1,0.1-0.1c0.1-0.1,0.1-0.1,0.2-0.2
				l3.5-1.5c0.1,0,0.1,0,0.1,0.1c0,0.1-0.1,0.1-0.1,0.2s-0.1,0.2-0.1,0.2s-0.1,0.2-0.1,0.2c0,0.1-0.1,0.1-0.1,0.2
				C228.7,14.9,228.7,14.9,228.6,15z"/>
			<path d="M228.8,21.9c0-0.1,0.1-0.1,0.1-0.2s0.1-0.1,0.1-0.1s0.1,0,0.1,0.1c0,0,0,0.1,0,0.2c0,0.1-0.1,0.2-0.1,0.4
				c0,0.1-0.1,0.3-0.2,0.4c0,0.1,0.1,0.2,0.3,0.3c0.2,0.1,0.4,0.2,0.6,0.3c0.2,0.1,0.4,0.1,0.6,0.1c0.2,0,0.4,0,0.5,0
				c0-0.2,0-0.4,0-0.6c0-0.2-0.1-0.4-0.2-0.6c0.1-0.1,0.1-0.2,0.1-0.3c0-0.1,0.1-0.2,0.1-0.2c0-0.1,0.1-0.1,0.1-0.2
				c0-0.1,0.1-0.1,0.1-0.2c0,0,0.1-0.1,0.1,0c0.1,0.2,0.1,0.4,0.2,0.6c0,0.2,0.1,0.4,0.1,0.6s0,0.4,0,0.5c0,0.2-0.1,0.4-0.1,0.6
				c0,0.1-0.1,0.2-0.1,0.4s-0.1,0.3-0.2,0.4c-0.1,0.1-0.2,0.3-0.3,0.4s-0.2,0.2-0.4,0.2c-0.1,0-0.3,0-0.5,0s-0.4-0.1-0.6-0.2
				c-0.2-0.1-0.4-0.2-0.6-0.3c-0.2-0.1-0.3-0.3-0.5-0.4c-0.2,0.3-0.4,0.5-0.7,0.7c-0.3,0.2-0.6,0.3-1,0.3c-0.3,0.1-0.7,0.1-1.1,0
				c-0.4,0-0.7-0.2-1-0.3c-0.2,0.1-0.4,0.2-0.6,0.3c-0.2,0.1-0.4,0.1-0.5,0.2c-0.2,0-0.3,0.1-0.5,0.1s-0.3,0-0.4,0h-0.2
				c-0.2,0-0.3-0.1-0.4-0.2c-0.1-0.1-0.1-0.3-0.1-0.5s0-0.3,0.1-0.5s0.2-0.2,0.4-0.2h0.2c0.4,0,0.7,0,1,0s0.6-0.1,0.9-0.2
				c0.3-0.1,0.5-0.3,0.8-0.5c0.2-0.2,0.4-0.5,0.6-0.8c0-0.1,0.1-0.1,0.1-0.1s0.1,0,0.1,0c0,0,0.1,0,0.1,0c0,0,0,0.1,0,0.2
				c0,0.1,0,0.2-0.1,0.4c0,0.1-0.1,0.3-0.1,0.4c-0.1,0.1-0.1,0.3-0.2,0.4c-0.1,0.1-0.1,0.2-0.2,0.3c0.3,0.1,0.7,0.1,1.1,0.1
				s0.8-0.1,1.1-0.3c0.3-0.1,0.5-0.3,0.7-0.6C228.5,22.6,228.6,22.3,228.8,21.9z"/>
			<path d="M239.9,16.6C239.9,16.6,239.9,16.6,239.9,16.6c0.4,0.5,0.7,1,0.8,1.5s0.2,1.1,0.1,1.7c0,0.1,0,0.3-0.1,0.5
				s-0.1,0.3-0.2,0.5s-0.1,0.3-0.2,0.4c-0.1,0.1-0.1,0.2-0.2,0.2c0,0-0.1,0-0.1-0.1c0,0,0-0.1,0-0.2c0-0.1,0-0.1,0-0.2
				c0-0.1,0-0.2,0-0.2c0-0.3,0.1-0.5,0.1-0.8c0-0.3,0-0.5-0.1-0.8c-0.1-0.3-0.2-0.5-0.3-0.8c-0.1-0.3-0.3-0.5-0.5-0.8
				c0,0,0-0.1,0.1-0.2c0-0.1,0.1-0.2,0.2-0.3c0.1-0.1,0.1-0.2,0.2-0.3C239.8,16.6,239.8,16.6,239.9,16.6z"/>
			<path d="M245.4,10c-0.3,0.1-0.6,0.3-1,0.4c-0.3,0.1-0.7,0.3-1,0.4s-0.6,0.3-0.9,0.4s-0.5,0.2-0.7,0.3c0,0-0.1,0-0.1,0
				c0,0,0,0,0-0.1c0,0,0-0.1,0.1-0.2c0-0.1,0.1-0.2,0.1-0.3c0-0.1,0.1-0.2,0.1-0.3c0-0.1,0.1-0.1,0.1-0.1c0.1-0.1,0.1-0.1,0.2-0.2
				l3.5-1.5c0.1,0,0.1,0,0.1,0.1c0,0.1-0.1,0.1-0.1,0.2s-0.1,0.2-0.1,0.2s-0.1,0.2-0.1,0.2c0,0.1-0.1,0.1-0.1,0.2
				C245.5,9.9,245.5,10,245.4,10z"/>
			<path d="M245,22.8c0.5,0.1,0.9,0.3,1.2,0.6s0.3,0.6,0.3,1c0,0.4-0.1,0.7-0.3,1.1c-0.2,0.3-0.5,0.7-0.8,0.9s-0.7,0.6-1.1,0.8
				c-0.4,0.2-0.9,0.4-1.3,0.6s-0.9,0.3-1.4,0.4c-0.5,0.1-0.9,0.1-1.3,0.1c-0.5,0-1-0.1-1.5-0.2c-0.5-0.1-0.9-0.4-1.2-0.6
				s-0.6-0.6-0.8-1.1c-0.2-0.4-0.3-1-0.3-1.6c0-0.6,0.1-1.2,0.3-1.7c0.2-0.6,0.5-1.1,0.8-1.5c0,0,0-0.1,0.1,0s0.1,0,0.1,0
				c0,0,0,0.1,0,0.1c0,0,0,0.1,0,0.1c-0.2,0.4-0.4,0.9-0.5,1.3c-0.1,0.5-0.2,0.9-0.2,1.4c0,0.4,0.1,0.8,0.3,1.1
				c0.2,0.3,0.4,0.6,0.7,0.7c0.3,0.2,0.6,0.3,1,0.4s0.7,0.1,1.1,0.1c0.4,0,0.7,0,1.1-0.1c0.3-0.1,0.7-0.1,1-0.2s0.7-0.2,1-0.4
				s0.6-0.3,1-0.5c0.1,0,0.2-0.1,0.4-0.2s0.3-0.2,0.4-0.3c0.1-0.1,0.3-0.2,0.4-0.3c0.1-0.1,0.2-0.2,0.2-0.3c0-0.1-0.1-0.1-0.1-0.2
				c-0.1-0.1-0.2-0.1-0.3-0.2c-0.1,0-0.2-0.1-0.4-0.1c-0.2,0-0.4-0.1-0.6-0.1c-0.2,0-0.4-0.1-0.6-0.1c-0.2,0-0.4-0.1-0.6-0.1
				s-0.4,0-0.5-0.1c-0.1,0-0.2,0-0.3,0c0-0.1,0-0.2,0.1-0.3c0-0.1,0.1-0.2,0.1-0.3c0-0.1,0.1-0.2,0.2-0.3c0.1-0.1,0.1-0.2,0.2-0.2
				c0.1,0,0.3-0.1,0.5-0.2s0.4-0.2,0.6-0.2c0.2-0.1,0.4-0.2,0.5-0.3c0.2-0.1,0.2-0.1,0.2-0.2c0-0.1,0-0.3,0-0.5
				c0-0.2-0.1-0.5-0.1-0.8c0-0.3-0.1-0.6-0.1-0.9c0-0.3-0.1-0.6-0.1-0.8c-0.1-0.7-0.2-1.3-0.3-2c-0.1-0.6-0.2-1.3-0.3-2
				c0-0.3-0.1-0.5-0.1-0.7s-0.1-0.5-0.3-0.7c0,0,0-0.1-0.1-0.1c0,0,0,0,0,0c0,0,0,0,0-0.1c0,0,0,0,0-0.1c0.1-0.2,0.2-0.4,0.3-0.5
				c0.1-0.2,0.2-0.4,0.3-0.5c0-0.1,0.1-0.1,0.1-0.1c0,0,0.1,0,0.1,0.1c0,0.1,0.1,0.3,0.2,0.4s0.1,0.3,0.2,0.4s0.2,0.3,0.3,0.4
				c0.1,0.1,0.2,0.2,0.4,0.3c-0.1,0.1-0.2,0.3-0.2,0.4s-0.1,0.2-0.2,0.3c0,0.1-0.1,0.2-0.1,0.3c0,0.1,0,0.2,0,0.3
				c0.1,0.9,0.2,1.9,0.4,2.8c0.2,0.9,0.3,1.9,0.4,2.8c0,0.2,0,0.4,0,0.7c0,0.2,0,0.5-0.1,0.7s-0.1,0.4-0.1,0.6
				C245.1,22.6,245,22.7,245,22.8z"/>
			<path d="M250.7,29.7c-0.6,0.2-1.2,0.4-1.8,0.7c-0.6,0.2-1.1,0.4-1.7,0.6c-0.1,0-0.1,0-0.1-0.1c0-0.1,0.1-0.2,0.2-0.4
				c0.1-0.1,0.1-0.3,0.2-0.3c0,0,0.1-0.1,0.1-0.1c0.2-0.1,0.4-0.1,0.6-0.2c0.3-0.1,0.5-0.2,0.9-0.3c0.3-0.1,0.6-0.2,1-0.4
				c0.3-0.1,0.7-0.2,1-0.3c0.1,0,0.1,0,0.1,0.1c0,0.1-0.1,0.1-0.1,0.2s-0.1,0.1-0.1,0.2c0,0.1-0.1,0.1-0.1,0.2
				c0,0.1-0.1,0.1-0.1,0.1C250.8,29.6,250.8,29.6,250.7,29.7C250.8,29.7,250.7,29.7,250.7,29.7z"/>
			<path d="M247.7,27.6c0,0,0.1-0.1,0.2-0.1s0.1-0.1,0.2-0.1c0.1,0,0.1-0.1,0.2-0.1c0.1,0,0.1-0.1,0.2-0.1c-0.1-0.1-0.3-0.2-0.4-0.3
				c-0.1-0.1-0.2-0.3-0.3-0.4c0-0.1,0-0.1,0-0.2s0-0.2,0.1-0.2c0.1-0.1,0.2-0.3,0.3-0.4s0.2-0.3,0.4-0.4s0.3-0.2,0.4-0.3
				c0.2-0.1,0.3-0.1,0.5-0.1c0.1,0,0.1,0,0.2,0.1s0.1,0.1,0.2,0.1s0.1,0.1,0.1,0.2c0,0.1,0.1,0.1,0.1,0.2c0,0.1,0,0.2,0,0.3
				l-0.2,0.3c-0.1,0.1-0.1,0.2-0.2,0.2c-0.1,0-0.1,0-0.1-0.1c0-0.1,0-0.1-0.1-0.2c-0.1-0.1-0.1-0.1-0.2-0.2s-0.1,0-0.2,0
				c-0.3,0-0.5,0.1-0.7,0.3c0.1,0.2,0.2,0.4,0.4,0.5c0.2,0.2,0.4,0.3,0.6,0.3c0.3,0,0.6,0,0.8,0c0.3,0,0.5-0.1,0.8-0.2
				c0,0,0,0.1,0,0.1s-0.1,0.2-0.1,0.3s-0.1,0.2-0.1,0.3c0,0.1-0.1,0.1-0.1,0.1c-0.2,0-0.5,0.1-0.7,0.1c-0.3,0-0.5,0.1-0.8,0.2
				c-0.3,0.1-0.6,0.2-0.8,0.3c-0.3,0.1-0.6,0.2-0.8,0.4c-0.1,0-0.1,0-0.1-0.1c0-0.1,0.1-0.2,0.1-0.3
				C247.5,27.8,247.6,27.7,247.7,27.6z M248.8,13.2C248.8,13.2,248.8,13.3,248.8,13.2c0.1,0.1,0.1,0.1,0.1,0.1c0,0,0,0.1,0,0.1
				c0,0,0,0.1,0,0.1c0,0.2,0,0.4,0,0.6c0,0.2,0,0.4,0.1,0.6c0.1,0.5,0.1,1,0.2,1.5c0.1,0.5,0.1,1,0.2,1.6c0.1,0.5,0.1,1.1,0.2,1.6
				c0.1,0.5,0.1,1,0.2,1.5c0,0.2,0,0.4,0,0.7c0,0.3,0,0.5,0,0.8c0,0.3,0,0.5-0.1,0.8c0,0.2-0.1,0.5-0.2,0.6c0,0.1-0.1,0.2-0.2,0.2
				c0,0-0.1,0-0.1-0.1c-0.1-1-0.2-1.9-0.3-2.9c-0.1-1-0.3-2.1-0.4-3.1c-0.1-1-0.3-2.1-0.4-3.1c0-0.3,0.1-0.5,0.2-0.8
				c0.1-0.2,0.1-0.3,0.2-0.4C248.7,13.5,248.7,13.3,248.8,13.2z"/>
			<path class="st0" d="M256.2,14.4c-0.1,0-0.1,0,0-0.1c0.1-0.1,0.1-0.1,0.2-0.2c0.2-0.1,0.4-0.3,0.6-0.4s0.4-0.2,0.6-0.4
				c0.2-0.1,0.4-0.3,0.5-0.4c0.2-0.1,0.4-0.3,0.5-0.5c-0.2,0-0.3-0.1-0.5-0.2s-0.3-0.2-0.4-0.4c-0.1-0.1-0.1-0.2-0.1-0.3
				c0-0.1,0-0.2,0-0.3c0.1-0.1,0.1-0.3,0.2-0.5c0.1-0.2,0.2-0.3,0.3-0.5c0.1-0.1,0.2-0.3,0.4-0.3c0.1-0.1,0.3-0.1,0.5-0.1
				c0.1,0,0.2,0,0.3,0.1c0.1,0.1,0.1,0.2,0.2,0.3s0.1,0.3,0.1,0.4c0,0.1,0,0.3,0,0.4s0,0.3,0,0.4c0,0.1,0,0.2,0,0.3c0,0,0,0,0,0.1
				c0.1,0,0.1,0.1,0.2,0.1s0,0.1,0.1,0.1c0,0.1,0,0.2,0,0.3c0,0.1-0.1,0.2-0.1,0.3c0,0.1-0.1,0.1-0.1,0.1c0,0-0.1,0-0.1-0.1
				c0,0-0.1-0.1-0.1-0.1s-0.1-0.1-0.1-0.1c-0.2,0.2-0.4,0.4-0.5,0.6c-0.2,0.2-0.3,0.3-0.5,0.4c-0.2,0.1-0.4,0.2-0.6,0.4
				c-0.2,0.1-0.5,0.2-0.7,0.3c-0.1,0-0.2,0.1-0.3,0.1S256.3,14.4,256.2,14.4z M258.2,11.1c0.1,0.2,0.3,0.3,0.4,0.4
				c0.2,0.1,0.3,0.2,0.5,0.2h0c0-0.1,0-0.1,0-0.2s0-0.2,0-0.2c0-0.1,0-0.2,0-0.2c0-0.1-0.1-0.1-0.1-0.2c0,0-0.1-0.1-0.2-0.1
				s-0.2,0-0.3,0c-0.1,0-0.2,0.1-0.2,0.1S258.2,11,258.2,11.1z"/>
			<path class="st0" d="M257.8,21.6c-0.3-0.2-0.7-0.3-1-0.5s-0.6-0.4-0.8-0.6c-0.2-0.2-0.4-0.5-0.5-0.7c-0.1-0.3-0.2-0.6-0.1-1
				c0-0.4,0.1-0.7,0.2-1c0.1-0.3,0.3-0.6,0.5-0.8c0.2-0.2,0.4-0.4,0.6-0.6c0.2-0.2,0.5-0.3,0.8-0.4c0.3-0.1,0.5-0.1,0.8-0.2
				c0.3,0,0.6,0,0.8,0.1c0.3,0.1,0.5,0.1,0.8,0.3c0.3,0.1,0.5,0.3,0.7,0.4c0,0,0,0.1,0.1,0.1s0,0.1,0,0.1c0,0,0,0.1-0.1,0.1
				s-0.1,0-0.1,0c-0.1,0-0.3-0.1-0.5-0.1s-0.4-0.1-0.5-0.1c-0.1,0-0.3,0-0.5,0s-0.4,0.1-0.7,0.2c-0.2,0.1-0.5,0.2-0.7,0.3
				s-0.5,0.2-0.7,0.4c-0.2,0.1-0.4,0.3-0.5,0.4c-0.2,0.1-0.2,0.3-0.3,0.4c0.1,0.2,0.2,0.4,0.4,0.6c0.2,0.2,0.4,0.4,0.7,0.6
				c0.3,0.2,0.6,0.3,0.9,0.4c0.3,0.1,0.6,0.2,0.9,0.2c0.2,0,0.5-0.1,0.8-0.2c0.3-0.1,0.6-0.3,0.9-0.5c0.3-0.2,0.6-0.4,1-0.6
				c0.3-0.2,0.6-0.4,0.9-0.5c0.1,0,0.1,0,0.2,0c0,0,0.1,0,0.1,0.1c0,0.2-0.1,0.4-0.1,0.5s-0.1,0.4-0.1,0.5c-0.5,0.3-0.9,0.5-1.4,0.8
				c-0.5,0.3-1,0.6-1.5,0.9c-0.5,0.3-0.9,0.7-1.4,1.1s-0.8,0.8-1.1,1.3c-0.3,0.5-0.6,1-0.8,1.5c-0.2,0.5-0.3,1.1-0.2,1.7
				c0,0.5,0.1,1,0.3,1.4c0.2,0.4,0.4,0.8,0.7,1.1s0.7,0.6,1.1,0.8c0.4,0.2,0.8,0.4,1.3,0.5c0.6,0.2,1.2,0.3,1.8,0.3
				c0.6,0.1,1.2,0.1,1.7,0.1c0.3,0,0.6,0,0.9,0c0.3,0,0.6-0.1,0.9-0.1c0.3,0,0.6-0.1,0.9-0.1c0.3,0,0.6,0,0.9,0c0.1,0,0.1,0,0.1,0.1
				c0,0,0,0.1,0,0.1c0,0.1-0.1,0.1-0.1,0.1c-0.1,0-0.1,0.1-0.2,0.1c-0.4,0.1-0.7,0.2-1,0.3s-0.7,0.2-1,0.4s-0.7,0.2-1,0.3
				c-0.3,0.1-0.7,0.2-1,0.2c-1,0.1-1.9,0-2.7-0.1c-0.8-0.2-1.5-0.5-2.1-0.9c-0.6-0.4-1.1-1-1.4-1.7c-0.3-0.7-0.5-1.5-0.5-2.5
				c0-0.5,0-1.1,0.1-1.6c0.1-0.5,0.2-1.1,0.4-1.6c0.2-0.5,0.4-1,0.7-1.4C257.1,22.3,257.5,21.9,257.8,21.6z"/>
			<path class="st0" d="M269.7,13.4c0,0.2,0,0.4-0.1,0.6c-0.1,0.2-0.1,0.4-0.2,0.5s-0.3,0.3-0.4,0.4c-0.2,0.1-0.4,0.1-0.6,0.1
				c-0.3,0-0.6-0.1-0.8-0.3c-0.2-0.2-0.3-0.5-0.3-0.8c0-0.2,0-0.4,0.1-0.6c0.1-0.2,0.1-0.5,0.2-0.7s0.2-0.4,0.4-0.6
				c0.2-0.2,0.4-0.3,0.6-0.3c0.2,0,0.4,0,0.6,0.2c0.2,0.1,0.3,0.3,0.4,0.4c0.1,0.2,0.1,0.4,0.2,0.6
				C269.7,13.1,269.7,13.2,269.7,13.4z M268.4,12.7c-0.1,0-0.2,0.1-0.3,0.1c-0.1,0.1-0.2,0.1-0.2,0.2c-0.1,0.1-0.1,0.2-0.2,0.3
				s-0.1,0.2-0.1,0.3c0,0.1,0,0.2,0.1,0.2c0.1,0.1,0.1,0.1,0.2,0.1c0.1,0,0.2,0,0.3,0.1c0.1,0,0.2,0,0.3,0c0.3,0,0.6-0.2,0.9-0.4
				c0-0.1,0-0.2,0-0.3s-0.1-0.2-0.2-0.3c-0.1-0.1-0.2-0.2-0.3-0.2C268.6,12.7,268.5,12.7,268.4,12.7z"/>
			<path class="st0" d="M268.3,19.8c0-0.2,0-0.4,0-0.6s0-0.4,0-0.6c0-0.1,0.1-0.2,0.1-0.2c0.1,0,0.1,0,0.2,0
				c0.4,0.1,0.8,0.3,1.2,0.6s0.7,0.6,1,1c0.3,0.4,0.5,0.8,0.7,1.2s0.3,0.8,0.3,1.2c0,0.1,0,0.3,0,0.5c0,0.2,0,0.4-0.1,0.6
				s-0.1,0.3-0.1,0.5c-0.1,0.1-0.1,0.3-0.2,0.3c-0.2,0.2-0.5,0.3-0.8,0.4c-0.3,0.1-0.6,0.2-1,0.3c-0.3,0.1-0.7,0.1-1.1,0.2
				c-0.4,0-0.7,0-1,0c-0.1,0-0.2,0-0.3,0s-0.2,0-0.3-0.1c-0.1,0-0.2-0.1-0.3-0.1c-0.1-0.1-0.1-0.1-0.1-0.2c0,0,0-0.1,0-0.3
				s0-0.3,0-0.4c0-0.2,0-0.3,0-0.4c0-0.1,0-0.2,0.1-0.2c0,0,0,0,0,0s0,0,0.1,0.1c0.1,0.1,0.2,0.1,0.4,0.2c0.1,0,0.3,0.1,0.5,0.1
				c0.2,0,0.3,0,0.5,0s0.3,0,0.4,0c0.2,0,0.4,0,0.7-0.1s0.4-0.1,0.7-0.1c0.2,0,0.4-0.1,0.6-0.2s0.4-0.1,0.5-0.2
				c0.1,0,0.1-0.1,0.2-0.1c0.1,0,0.1-0.1,0.1-0.1c-0.1-0.3-0.2-0.6-0.4-1c-0.2-0.4-0.4-0.7-0.7-1c-0.3-0.3-0.6-0.6-0.9-0.8
				S268.7,19.8,268.3,19.8z"/>
			<path class="st0" d="M274.4,13.4C274.4,13.4,274.5,13.4,274.4,13.4c0.1,0.1,0.1,0.1,0.1,0.1s0,0.1,0,0.1s0,0.1,0,0.1
				c0,0.2,0,0.5,0,0.7c0,0.2,0,0.4,0.1,0.7c0.1,0.5,0.1,1.1,0.2,1.7c0.1,0.6,0.2,1.1,0.2,1.7c0.1,0.6,0.2,1.2,0.2,1.7
				s0.2,1.1,0.2,1.7c0,0.2,0,0.5,0,0.7c0,0.3,0,0.6,0,0.9c0,0.3,0,0.6-0.1,0.8c0,0.3-0.1,0.5-0.2,0.7c0,0.1-0.1,0.2-0.2,0.2
				c0,0-0.1,0-0.1-0.1c-0.1-1-0.2-2.1-0.3-3.2c-0.2-1.1-0.3-2.3-0.5-3.4s-0.3-2.3-0.4-3.4c0-0.3,0.1-0.6,0.2-0.9
				c0.1-0.2,0.1-0.3,0.2-0.5C274.3,13.7,274.3,13.5,274.4,13.4z"/>
		</g>
		<g>
			<path d="M289.9,20.2c0,0.1-0.1,0.2-0.2,0.4c-0.1,0.2-0.4,0.3-0.7,0.5c0,0.3,0,0.6-0.1,0.9c-0.1,0.2-0.2,0.4-0.3,0.4
				c-0.3-0.3-0.6-0.6-0.9-0.8c-0.3-0.2-0.6-0.4-1-0.4c0,0.3,0.2,0.7,0.5,1c0.3,0.3,0.5,0.6,0.8,0.8c0,0.1-0.3,0.3-0.8,0.4
				c-0.4,0.1-0.7,0.1-1,0.1c-0.4,1.2-0.9,2.2-1.6,3.2c-0.3,0.4-0.7,0.9-1.2,1.4c-0.7,0.7-1.2,1-1.5,1c-0.1,0-0.2-0.1-0.2-0.2
				c0-0.1,0.2-0.3,0.6-0.8c0.5-0.6,1-1.2,1.2-1.7c0.5-0.9,0.8-1.9,1-3c-0.4,0-0.6-0.1-0.7-0.1c-0.1,0-0.1-0.1-0.1-0.2
				c0.8-0.6,1.2-1.3,1.2-1.8c-0.3,0-0.7,0.1-0.9,0.4c-0.2,0.2-0.5,0.5-0.8,0.8c-0.1,0-0.2-0.1-0.3-0.4c-0.1-0.3-0.2-0.6-0.2-0.9
				c-0.3-0.2-0.5-0.3-0.6-0.3c-0.2-0.2-0.3-0.3-0.3-0.5c0-0.1,0.1-0.2,0.2-0.3c0.1-0.1,0.3-0.2,0.7-0.4c0-0.9,0.2-1.3,0.5-1.3
				c0.7,0.7,1.3,1.1,1.8,1.2c0-0.3-0.1-0.6-0.4-1c0,0-0.3-0.3-0.8-0.9c0-0.1,0.1-0.1,0.2-0.2c0.1-0.1,0.4-0.1,0.7-0.2
				c-0.2-0.9-0.5-1.8-1.1-2.7c-0.5-0.9-1.1-1.7-1.8-2.3c-0.1-0.1-0.2-0.2-0.2-0.3s0.1-0.1,0.2-0.1c0.2,0,0.6,0.2,1.1,0.5
				c1.5,1.1,2.6,2.7,3.4,4.8c1.1,0,1.7,0.2,1.7,0.5c-0.3,0.3-0.6,0.5-0.8,0.8c-0.2,0.3-0.4,0.7-0.4,1c0.3,0,0.6-0.1,0.9-0.4l0.9-0.8
				c0.2,0,0.3,0.4,0.4,1.1c0,0.1,0,0.1,0,0.2C289.6,19.7,289.9,19.9,289.9,20.2z M287.3,17.5c0,0-0.1-0.1-0.3-0.1
				c-0.2,0-0.4-0.1-0.5-0.1h-0.3c-0.1,0-0.1,0-0.2,0c-0.3-1-0.8-2-1.4-2.9c-0.7-1-1.5-1.8-2.4-2.4c0.6,0.6,1.2,1.3,1.6,2.1
				c0.6,1,1,2.1,1.1,3.1c-0.4,0-0.6,0.1-0.7,0.2c0.5,0.4,0.8,0.8,1,1.2c0.1-0.2,0.1-0.4,0.3-0.6c0,0,0.1-0.1,0.1-0.3
				c0.1-0.2,0.1-0.2,0.1-0.2c0.1,0,0.3,0.4,0.6,1.1c0.1-0.3,0.3-0.5,0.5-0.8C287,17.8,287.1,17.7,287.3,17.5z M284.5,20.8
				c-0.1,0-0.4-0.2-0.9-0.3c-0.3-0.1-0.5-0.2-0.5-0.3c0,0,0.3-0.1,0.8-0.4c0.1,0,0.3-0.1,0.6-0.2c-0.3-0.1-0.5-0.2-0.8-0.4
				c-0.1-0.1-0.3-0.3-0.5-0.5c-0.1,0-0.1,0.3-0.1,1c-0.5,0.3-0.7,0.5-0.8,0.6c0,0.1,0.3,0.3,0.8,0.5c0,0.7,0.1,1,0.2,1
				c0,0,0.2-0.1,0.5-0.4C284.1,21.1,284.3,20.9,284.5,20.8z M287.4,22.9c-0.4-0.3-0.7-0.7-1-1.2c0,0.1-0.1,0.3-0.3,0.5
				c0,0-0.1,0.1-0.2,0.3c-0.1,0.2-0.1,0.2-0.2,0.2c0,0-0.1-0.1-0.2-0.3c-0.1-0.2-0.1-0.3-0.1-0.3c0-0.1-0.1-0.3-0.3-0.6
				c-0.1,0.2-0.2,0.5-0.4,0.7c-0.1,0.2-0.3,0.3-0.5,0.5c0,0,0.2,0.1,0.6,0.2c-0.3,1-0.4,1.7-0.5,2c-0.4,1.2-1,2.3-2,3.3
				c1.5-1,2.7-2.8,3.5-5.3c0.6,0,0.8,0,0.7,0C287.2,23.1,287.4,23,287.4,22.9z M286.9,20.2c0-0.3-0.1-0.6-0.3-0.7
				c-0.2-0.2-0.5-0.3-0.8-0.3c-0.3,0-0.5,0.1-0.7,0.3c-0.2,0.2-0.3,0.4-0.3,0.7c0,0.3,0.1,0.5,0.3,0.7c0.2,0.2,0.5,0.3,0.8,0.3
				c0.3,0,0.6-0.1,0.8-0.3C286.8,20.8,286.9,20.5,286.9,20.2z M289.5,20.2c0-0.1-0.1-0.1-0.2-0.2c-0.1-0.1-0.3-0.2-0.6-0.3
				c0-0.3,0-0.5-0.1-0.7c0-0.2-0.1-0.3-0.1-0.3c0,0-0.2,0.1-0.4,0.4c-0.3,0.3-0.6,0.5-0.9,0.6c0.1,0.1,0.4,0.2,0.6,0.3
				c0,0,0.2,0.1,0.5,0.2c0.2,0.1,0.3,0.1,0.3,0.2c0,0.1-0.2,0.2-0.5,0.3c-0.5,0.1-0.8,0.2-0.9,0.3c0.3,0.1,0.6,0.2,0.8,0.4
				c0.1,0.1,0.3,0.3,0.5,0.5c0.1,0,0.1-0.1,0.1-0.3c0-0.1,0-0.3,0-0.7C289.2,20.5,289.5,20.3,289.5,20.2z"/>
		</g>
	</g>
	<rect class="st1" width="300.3" height="39.1"/>
</g>
</svg>
