<?xml version="1.0" encoding="utf-8"?>
<!-- Generator: Adobe Illustrator 19.2.0, SVG Export Plug-In . SVG Version: 6.00 Build 0)  -->
<svg version="1.1" id="Layer_1" xmlns="http://www.w3.org/2000/svg" xmlns:xlink="http://www.w3.org/1999/xlink" x="0px" y="0px"
	 viewBox="0 0 417.8 39.1" style="enable-background:new 0 0 417.8 39.1;" xml:space="preserve">
<style type="text/css">
	.st0{fill:#CC4A6C;}
	.st1{fill:none;}
</style>
<g>
	<g>
		<g>
			<g>
				<path class="st0" d="M109.3,31.9h-2c-1.1-1.6-1.9-3.3-2.4-5c-0.6-1.7-0.8-3.4-0.8-5c0-2,0.3-3.9,1-5.7c0.6-1.6,1.4-3,2.3-4.3h2
					c-0.9,2.1-1.6,3.9-2,5.4c-0.4,1.5-0.5,3-0.5,4.7c0,1.1,0.1,2.3,0.3,3.5c0.2,1.2,0.5,2.3,0.9,3.4
					C108.2,29.6,108.6,30.6,109.3,31.9z"/>
				<path class="st0" d="M124.9,20.4l-0.8,2.4c-1.1,0.3-2,0.6-2.6,0.9c-0.6,0.3-1.2,0.7-1.8,1.2c-0.3,0.3-0.9,0.9-1.5,1.6l-0.6-0.2
					c0-0.5,0.1-0.9,0.4-1.4c0.2-0.4,0.5-0.8,1-1.4c-0.7-0.7-1.1-1.1-1.3-1.4c-0.2-0.3-0.3-0.6-0.3-0.9c0-0.4,0.3-1.1,0.8-2
					c0.5-1,1-1.6,1.4-2c0.4-0.4,0.8-0.5,1.4-0.5c0.5,0,0.9,0.1,1.3,0.3c0.4,0.2,0.8,0.6,1.2,1.1l-1.4,2.3c-0.3-0.4-0.6-0.6-0.9-0.8
					c-0.3-0.2-0.6-0.3-0.8-0.3c-0.2,0-0.4,0.1-0.6,0.2s-0.3,0.3-0.3,0.4c0,0.2,0.1,0.5,0.4,0.7c0.3,0.2,0.8,0.5,1.5,0.9
					c0.9-0.4,1.5-0.7,2-0.8S124.2,20.5,124.9,20.4z"/>
				<path class="st0" d="M130.8,24.4h-1.5c-0.8,0-1.4-0.3-1.8-1c-0.4-0.7-0.6-2-0.6-3.7v-3c0-0.7-0.1-1.2-0.3-1.6
					c-0.1-0.2-0.3-0.4-0.6-0.8l1.1-2.6c0.4,0.6,0.7,1.1,0.8,1.6c0.2,0.6,0.3,1.4,0.3,2.4v2c0,1.4,0.1,2.5,0.3,3
					c0.2,0.5,0.4,0.7,0.7,0.7h1.5V24.4z"/>
				<path class="st0" d="M136.6,24.4h-6.5v-2.8h5.5c-0.1-0.5-0.2-0.9-0.4-1.2c-0.1-0.2-0.3-0.5-0.7-0.9l0.8-2.5
					c0.5,0.6,0.9,1.2,1.1,1.8c0.2,0.6,0.3,1.6,0.3,2.9V24.4z M136.5,26.3l-1.1,2.1l-1.5-0.8l-0.8,1.6l-1.9-1.1l1.1-2l1.5,0.8
					l0.9-1.7L136.5,26.3z"/>
				<path class="st0" d="M141.6,24.4h-5.7v-2.8h4.5l-1.3-7.1l-0.7-0.4c0-0.4,0.1-0.8,0.2-1.2c0.2-0.5,0.4-1.2,0.8-1.9l0.5,0.3
					c0,0,0,0.2,0,0.3c0,0.2,0.1,0.5,0.4,0.7c0.3,0.2,0.7,0.4,1.2,0.6c-0.1,0.4-0.2,0.9-0.3,1.3c-0.1,0.4-0.3,0.8-0.4,1.1l-0.4-0.1
					l1.1,6.4V24.4z"/>
				<path class="st0" d="M145.5,21.4c0,0.6-0.1,1.2-0.2,1.7c-0.1,0.5-0.4,1.2-0.8,2.1l-0.6-0.3c0.2-0.9,0.2-1.6,0.2-2.2
					c0-0.4,0-1-0.1-1.9s-0.2-1.6-0.3-2.4s-0.3-1.8-0.5-2.9c-0.1-0.4-0.1-0.7-0.1-0.8c0-0.2,0.1-0.6,0.3-1.1c0.2-0.5,0.5-1.1,0.9-1.9
					l0.6,3.7c0.2,1.4,0.4,2.6,0.5,3.6C145.4,19.9,145.5,20.7,145.5,21.4z"/>
				<path class="st0" d="M168.3,24.4h-1.4c-1.2,0-2.6,0-4.1,0.1c-0.9,0-2.1,0.1-3.6,0.2c-1.5,0.1-2.3,0.1-2.4,0.1
					c-1.5,0-2.5-0.3-3.2-0.8c-0.6-0.5-0.9-1.2-0.9-2.3c0-0.8,0.1-1.5,0.2-2.1s0.5-1.5,1.1-2.9l0.7,0.3c-0.5,1.2-0.7,2.1-0.7,2.6
					c0,0.7,0.3,1.2,0.8,1.5c0.6,0.3,1.7,0.5,3.2,0.5c1.1-0.1,2.1-0.1,3.1-0.2c1,0,2-0.1,2.9-0.1c-0.3-0.1-0.5-0.3-0.6-0.5
					c-0.1-0.2-0.2-0.4-0.2-0.7c0-1,0.3-2,0.9-3c0.7-1.1,1.4-1.6,2.2-1.6c0.7,0,1.3,0.5,1.6,1.5c0.3,0.9,0.4,2.4,0.4,4.3V24.4z
					 M167.5,12.2l-1.2,2.3l-2.4-1.3l1.2-2.3L167.5,12.2z M166.6,20.3c-0.2-0.7-0.4-1.1-0.6-1.3c-0.2-0.2-0.4-0.3-0.6-0.3
					c-0.1,0-0.2,0.1-0.3,0.2c-0.1,0.1-0.2,0.2-0.2,0.4c0,0.2,0.1,0.4,0.4,0.6C165.7,19.9,166.1,20.1,166.6,20.3z"/>
				<path class="st0" d="M177.5,24.7c0,0.4-0.2,1-0.7,1.7c-0.5,0.7-1.1,1.3-1.7,1.8c-0.7,0.6-1.3,0.9-1.8,0.9c-0.6,0-1.3-0.2-2-0.5
					c-0.6-0.3-1.6-0.9-2.9-1.8l0.4-0.6c0.6,0.4,1.1,0.7,1.5,0.8s0.8,0.2,1.2,0.2c0.5,0,1-0.1,1.4-0.4c0.5-0.3,1.1-0.8,2-1.5
					c1.2-1,1.7-1.8,1.7-2.4c0-0.3-0.1-0.6-0.3-1.1c-0.2-0.5-0.6-0.9-0.9-1.3l0.6-2.8c0.5,0.5,0.8,1,1.1,1.7c0.3,0.6,0.4,1.3,0.4,2.2
					V24.7z"/>
				<path class="st0" d="M188.6,24.4h-11.9v-2.8h7.4c-0.8-0.9-1.6-1.5-2.3-1.9c-0.6-0.3-1.2-0.5-1.8-0.5c-0.2,0-0.3,0-0.5,0
					c-0.1,0-0.4,0.1-0.6,0.1c0.4-0.9,0.8-1.5,1.3-1.9c0.5-0.4,1-0.6,1.6-0.6c0.5,0,0.9,0.1,1.3,0.3s0.9,0.6,1.4,1.1
					c0.4,0.4,1,1,1.8,1.8c0.5,0.6,0.9,1,1.2,1.1c0.3,0.2,0.7,0.3,1.2,0.4V24.4z"/>
				<path class="st0" d="M210.6,24.4h-1.4c-1.2,0-2.6,0-4.1,0.1c-0.9,0-2.1,0.1-3.6,0.2c-1.5,0.1-2.3,0.1-2.4,0.1
					c-1.5,0-2.5-0.3-3.2-0.8c-0.6-0.5-0.9-1.2-0.9-2.3c0-0.8,0.1-1.5,0.2-2.1s0.5-1.5,1.1-2.9l0.7,0.3c-0.5,1.2-0.7,2.1-0.7,2.6
					c0,0.7,0.3,1.2,0.8,1.5c0.6,0.3,1.7,0.5,3.2,0.5c1.1-0.1,2.1-0.1,3.1-0.2c1,0,2-0.1,2.9-0.1c-0.3-0.1-0.5-0.3-0.6-0.5
					c-0.1-0.2-0.2-0.4-0.2-0.7c0-1,0.3-2,0.9-3c0.7-1.1,1.4-1.6,2.2-1.6c0.7,0,1.3,0.5,1.6,1.5c0.3,0.9,0.4,2.4,0.4,4.3V24.4z
					 M209.8,12.2l-1.2,2.3l-2.4-1.3l1.2-2.3L209.8,12.2z M209,20.3c-0.2-0.7-0.4-1.1-0.6-1.3c-0.2-0.2-0.4-0.3-0.6-0.3
					c-0.1,0-0.2,0.1-0.3,0.2c-0.1,0.1-0.2,0.2-0.2,0.4c0,0.2,0.1,0.4,0.4,0.6C208,19.9,208.5,20.1,209,20.3z"/>
				<path class="st0" d="M217.9,24.4h-4.7c-0.5,0-0.8-0.1-1-0.3c-0.3-0.2-0.4-0.6-0.4-1.2c0-0.3,0-0.6,0-1s0.1-0.7,0.1-1.1l0.4,0
					c0.1,0.2,0.2,0.4,0.4,0.5c0.2,0.1,0.4,0.2,0.7,0.2h3.6c-0.2-1-0.4-1.8-0.8-2.4c-0.3-0.5-0.8-0.9-1.4-1.3l0.7-3.2
					c0.9,0.7,1.5,1.5,1.9,2.6c0.3,1,0.5,2.3,0.5,3.9V24.4z M216.2,10.8l-1.2,2.3l-2.4-1.3l1.3-2.3L216.2,10.8z"/>
				<path class="st0" d="M229.1,24.4h-11.9v-2.8h7.4c-0.8-0.9-1.6-1.5-2.3-1.9c-0.6-0.3-1.2-0.5-1.8-0.5c-0.2,0-0.3,0-0.5,0
					c-0.1,0-0.4,0.1-0.6,0.1c0.4-0.9,0.8-1.5,1.3-1.9c0.5-0.4,1-0.6,1.6-0.6c0.5,0,0.9,0.1,1.3,0.3s0.9,0.6,1.4,1.1
					c0.4,0.4,1,1,1.8,1.8c0.5,0.6,0.9,1,1.2,1.1c0.3,0.2,0.7,0.3,1.2,0.4V24.4z"/>
				<path class="st0" d="M246.8,24.4h-0.9c-0.3,0-0.5,0-0.6,0.1c-0.2,0-0.2,0.1-0.2,0.2c0,0,0.2,0.1,0.5,0.3
					c0.3,0.1,0.5,0.3,0.5,0.6c0,0.4-0.1,0.8-0.2,1.4s-0.3,1-0.5,1.4c-0.2,0.3-0.6,0.7-1.3,1.1c-0.7,0.5-1.6,0.8-2.5,1.1
					c-1.1,0.3-2.1,0.5-3.1,0.5c-1.1,0-2-0.3-2.5-0.8c-0.6-0.5-0.9-1.3-0.9-2.3c0-1.1,0.1-2,0.4-2.8c0.3-1,1-2.2,2-3.8l0.6,0.4
					c-0.7,1.1-1.1,2-1.3,2.6c-0.2,0.7-0.4,1.3-0.4,1.9s0.2,1.1,0.6,1.5c0.4,0.4,1,0.5,1.7,0.5c0.9,0,1.8-0.1,2.8-0.4
					c0.9-0.2,1.7-0.5,2.4-0.9c0.7-0.3,1-0.6,1-0.8c0-0.1-0.2-0.1-0.6-0.1c-0.4,0-0.7,0-1,0c-0.7,0-1.2,0-1.4-0.1
					c-0.2-0.1-0.3-0.2-0.3-0.4c0-0.4,0.1-0.8,0.2-1.2c0.1-0.4,0.3-0.7,0.5-1c0.5-0.6,1-1,1.6-1.4c0.7-0.4,1.3-0.7,1.9-0.7h1.2V24.4z
					"/>
				<path class="st0" d="M251.8,24.4H246v-2.8h4.5l-1.3-7.1l-0.7-0.4c0-0.4,0.1-0.8,0.2-1.2c0.2-0.5,0.4-1.2,0.8-1.9l0.5,0.3
					c0,0,0,0.2,0,0.3c0,0.2,0.1,0.5,0.4,0.7c0.3,0.2,0.7,0.4,1.2,0.6c-0.1,0.4-0.2,0.9-0.3,1.3c-0.1,0.4-0.3,0.8-0.4,1.1l-0.4-0.1
					l1.1,6.4V24.4z"/>
				<path class="st0" d="M262.1,19.5l-1.2,3c-1.9,0.6-3.4,1-4.6,1.3c-1.1,0.3-2,0.5-2.7,0.6c-0.5,0.1-1.1,0.1-1.6,0.1H251v-2.8h1.1
					c0.2,0,0.3,0,0.4,0c0.2,0,0.4,0,0.6-0.1c-0.3-0.5-0.6-0.9-0.7-1.3c-0.1-0.3-0.2-0.7-0.2-1.1c0-1,0.4-1.9,1.3-2.7
					c0.9-0.8,1.9-1.2,3-1.2c0.8,0,1.5,0.3,2.2,0.8c0.6,0.5,1.1,1,1.4,1.7l-0.4,0.4c-0.5-0.2-1-0.3-1.3-0.4c-0.3-0.1-0.7-0.1-1.2-0.1
					c-0.9,0-1.6,0.1-2.2,0.2c-0.8,0.2-1.2,0.4-1.2,0.7c0,0.5,1,1.3,2.9,2.4L262.1,19.5z"/>
				<path class="st0" d="M281.5,24.4h-1.1c-0.3,0-0.5,0-0.7,0c-0.1,0-0.2,0.1-0.2,0.1c0.2,0.1,0.4,0.2,0.6,0.2
					c0.2,0,0.3,0.1,0.3,0.2c0.1,0.1,0.1,0.2,0.1,0.3c0,0.5-0.1,1.1-0.4,1.8c-0.3,0.7-0.6,1.1-0.8,1.3c-0.3,0.2-1,0.5-2.3,0.7
					c-1.3,0.3-2.4,0.4-3.3,0.4c-1.3,0-2.4-0.3-3.2-0.8s-1.2-1.2-1.2-2.1c0-0.8,0.2-1.7,0.5-2.4c0.4-0.9,1.2-2.1,2.4-3.5l0.6,0.4
					c-0.7,0.9-1.2,1.6-1.5,2.2c-0.3,0.6-0.4,1.1-0.4,1.6c0,0.7,0.3,1.3,0.9,1.6s1.6,0.5,2.8,0.5c0.7,0,1.6-0.1,2.8-0.4
					c1.2-0.2,1.8-0.5,1.8-0.6c0-0.1-0.2-0.2-0.7-0.2s-0.9-0.1-1.5-0.1c-0.8,0-1.2-0.2-1.2-0.5c0-0.2,0.1-0.4,0.3-0.9
					c0.1-0.3,0.3-0.6,0.4-0.9c0.3-0.6,0.7-1,1.5-1.4c0.7-0.4,1.5-0.5,2.3-0.5h1.1V24.4z M277.2,30.6l-1,1.2l-1.1-0.7l-0.8,0.9
					l-1.3-0.7l1-1.2l1.1,0.7l0.8-0.9L277.2,30.6z"/>
				<path class="st0" d="M287.2,24.4h-6.5v-2.8h5.5c-0.1-0.5-0.2-0.9-0.4-1.2c-0.1-0.2-0.3-0.5-0.7-0.9l0.8-2.5
					c0.5,0.6,0.9,1.2,1.1,1.8c0.2,0.6,0.3,1.6,0.3,2.9V24.4z M287.3,13.1l-1.2,2.3l-2.4-1.3l1.3-2.3L287.3,13.1z"/>
				<path class="st0" d="M293,24.4h-6.5v-2.8h5.5c-0.1-0.5-0.2-0.9-0.4-1.2c-0.1-0.2-0.3-0.5-0.7-0.9l0.8-2.5
					c0.5,0.6,0.9,1.2,1.1,1.8c0.2,0.6,0.3,1.6,0.3,2.9V24.4z M292,26.6l-1.2,2.3l-2.4-1.3l1.2-2.4L292,26.6z"/>
				<path class="st0" d="M301.9,24.4c-0.7,0-1.6-0.1-2.6-0.4c-0.9-0.2-1.6-0.5-2.3-0.9c-0.4,0.6-0.9,1-1.5,1.2
					c-0.3,0.1-0.7,0.1-1.2,0.1h-2.1v-2.8h2.1c0.6,0,1.1-0.1,1.5-0.2c0.5-0.2,0.8-0.5,1-1c0.4-0.9,0.9-1.6,1.5-2.2
					c0.5-0.5,1-0.8,1.4-0.8c0.4,0,0.8,0.5,1.3,1.6c0.5,1.1,0.8,2.2,0.8,3.1V24.4z M299.9,21.3c0-0.2-0.1-0.4-0.4-0.8
					c-0.3-0.4-0.6-0.6-0.9-0.6c-0.3,0-0.5,0.3-0.7,0.9c0.4,0.1,0.6,0.2,0.8,0.3c0.6,0.2,0.9,0.3,0.9,0.3
					C299.8,21.4,299.9,21.4,299.9,21.3z"/>
				<path class="st0" d="M308.5,31.9c0.6-1.2,1-2.2,1.2-2.8s0.5-1.4,0.7-2.3s0.3-1.7,0.4-2.4c0.1-0.8,0.1-1.6,0.1-2.4
					c0-1.6-0.2-3.2-0.5-4.7c-0.4-1.5-1-3.3-2-5.4h2c1,1.5,1.9,3.1,2.4,4.7c0.6,1.7,0.9,3.4,0.9,5.1c0,1.4-0.2,3-0.7,4.7
					c-0.5,1.9-1.4,3.7-2.6,5.5H308.5z"/>
			</g>
		</g>
	</g>
	<rect class="st1" width="417.8" height="39.1"/>
</g>
</svg>
