<?xml version="1.0" encoding="utf-8"?>
<!-- Generator: Adobe Illustrator 19.2.0, SVG Export Plug-In . SVG Version: 6.00 Build 0)  -->
<svg version="1.1" id="Layer_1" xmlns="http://www.w3.org/2000/svg" xmlns:xlink="http://www.w3.org/1999/xlink" x="0px" y="0px"
	 viewBox="0 0 417.8 39.1" style="enable-background:new 0 0 417.8 39.1;" xml:space="preserve">
<style type="text/css">
	.st0{fill:#CC4A6C;}
	.st1{fill:none;}
</style>
<g>
	<g>
		<g>
			<g>
				<path class="st0" d="M22.9,31.9h-2c-1.1-1.6-1.9-3.3-2.4-5c-0.6-1.7-0.8-3.4-0.8-5c0-2,0.3-3.9,1-5.7c0.6-1.6,1.4-3,2.3-4.3h2
					c-0.9,2.1-1.6,3.9-2,5.4c-0.4,1.5-0.5,3-0.5,4.7c0,1.1,0.1,2.3,0.3,3.5s0.5,2.3,0.9,3.4C21.8,29.5,22.3,30.5,22.9,31.9z"/>
				<path class="st0" d="M39.1,23.6c0,1.2-0.5,2.4-1.5,3.5c-1,1.2-2,1.7-3,1.7c-0.6,0-1.2-0.2-1.9-0.6C32,28,31,27.2,29.6,26.2
					l0.4-0.6c0.7,0.5,1.4,0.8,1.8,1c0.4,0.1,0.8,0.2,1.3,0.2c0.7,0,1.3-0.2,2-0.6c0.8-0.4,1.6-1.2,2.4-2.1c-0.3,0-0.5,0.1-0.7,0.1
					c-0.7,0-1.2-0.2-1.6-0.7c-0.4-0.4-0.6-1.1-0.6-1.8c0-1,0.2-2,0.7-3c0.5-1,1.1-1.6,1.8-1.6c0.6,0,1,0.4,1.4,1.1
					c0.4,0.8,0.6,1.7,0.6,2.7V23.6z M37.9,21.5c-0.2-1.1-0.6-1.7-1.2-1.7c-0.2,0-0.4,0.1-0.5,0.3S36,20.4,36,20.6
					c0,0.2,0.1,0.5,0.4,0.6c0.3,0.2,0.6,0.2,1.1,0.2H37.9z"/>
				<path class="st0" d="M43,21.3c0,0.6-0.1,1.2-0.2,1.7c-0.1,0.5-0.4,1.2-0.8,2.1l-0.6-0.3c0.2-0.9,0.2-1.6,0.2-2.2
					c0-0.4,0-1-0.1-1.9c-0.1-0.8-0.2-1.6-0.3-2.4c-0.1-0.8-0.3-1.8-0.5-2.9c-0.1-0.4-0.1-0.7-0.1-0.8c0-0.2,0.1-0.6,0.3-1.1
					c0.2-0.5,0.5-1.1,0.9-1.9l0.6,3.7c0.2,1.4,0.4,2.6,0.5,3.6C42.9,19.8,43,20.6,43,21.3z"/>
				<path class="st0" d="M53.3,23.6c0,1.2-0.5,2.4-1.5,3.5s-2,1.7-3,1.7c-0.6,0-1.2-0.2-1.9-0.6c-0.7-0.4-1.7-1.1-3.1-2.2l0.4-0.6
					c0.7,0.5,1.4,0.8,1.8,1c0.4,0.1,0.8,0.2,1.3,0.2c0.7,0,1.3-0.2,2-0.6c0.8-0.4,1.6-1.2,2.4-2.1c-0.3,0-0.5,0.1-0.7,0.1
					c-0.7,0-1.2-0.2-1.6-0.7c-0.4-0.4-0.6-1.1-0.6-1.8c0-1,0.2-2,0.7-3c0.5-1,1.1-1.6,1.8-1.6c0.6,0,1,0.4,1.4,1.1
					c0.4,0.8,0.6,1.7,0.6,2.7V23.6z M52.1,21.5c-0.2-1.1-0.6-1.7-1.2-1.7c-0.2,0-0.4,0.1-0.5,0.3c-0.1,0.2-0.2,0.4-0.2,0.6
					c0,0.2,0.1,0.5,0.4,0.6s0.6,0.2,1.1,0.2H52.1z"/>
				<path class="st0" d="M58.3,24.3h-5.7v-2.8h4.5l-1.3-7.1L55.1,14c0-0.4,0.1-0.8,0.2-1.2c0.2-0.5,0.4-1.2,0.8-1.9l0.5,0.3
					c0,0,0,0.2,0,0.3c0,0.2,0.1,0.5,0.4,0.7c0.3,0.2,0.7,0.4,1.2,0.6c-0.1,0.4-0.2,0.9-0.3,1.3c-0.1,0.4-0.3,0.8-0.4,1.1l-0.4-0.1
					l1.1,6.4V24.3z"/>
				<path class="st0" d="M62.2,21.3c0,0.6-0.1,1.2-0.2,1.7c-0.1,0.5-0.4,1.2-0.8,2.1l-0.6-0.3c0.2-0.9,0.2-1.6,0.2-2.2
					c0-0.4,0-1-0.1-1.9s-0.2-1.6-0.3-2.4s-0.3-1.8-0.5-2.9c-0.1-0.4-0.1-0.7-0.1-0.8c0-0.2,0.1-0.6,0.3-1.1c0.2-0.5,0.5-1.1,0.9-1.9
					l0.6,3.7c0.2,1.4,0.4,2.6,0.5,3.6C62.1,19.8,62.2,20.6,62.2,21.3z"/>
				<path class="st0" d="M78,24.6c0,0.4-0.2,1-0.7,1.7c-0.5,0.7-1.1,1.3-1.7,1.8c-0.7,0.6-1.3,0.9-1.8,0.9c-0.6,0-1.3-0.2-2-0.5
					c-0.6-0.3-1.6-0.9-2.9-1.8l0.4-0.6c0.6,0.4,1.1,0.7,1.5,0.8s0.8,0.2,1.2,0.2c0.5,0,1-0.1,1.4-0.4c0.5-0.3,1.1-0.8,2-1.5
					c1.2-1,1.7-1.8,1.7-2.4c0-0.3-0.1-0.6-0.3-1.1c-0.2-0.5-0.6-0.9-0.9-1.3l0.6-2.8c0.5,0.5,0.8,1,1.1,1.7c0.3,0.6,0.4,1.3,0.4,2.2
					V24.6z"/>
				<path class="st0" d="M89.2,24.3H77.3v-2.8h7.4c-0.8-0.9-1.6-1.5-2.3-1.9c-0.6-0.3-1.2-0.5-1.8-0.5c-0.2,0-0.3,0-0.5,0
					c-0.1,0-0.4,0.1-0.6,0.1c0.4-0.9,0.8-1.5,1.3-1.9c0.5-0.4,1-0.6,1.6-0.6c0.5,0,0.9,0.1,1.3,0.3s0.9,0.6,1.4,1.1
					c0.4,0.4,1,1,1.8,1.8c0.5,0.6,0.9,1,1.2,1.1c0.3,0.2,0.7,0.3,1.2,0.4V24.3z M85,13.3l-1.2,2.3l-2.4-1.3l1.3-2.3L85,13.3z"/>
				<path class="st0" d="M94.3,10.2c-0.3,0.3-0.6,0.6-0.9,0.7c-0.3,0.1-0.6,0.2-1,0.2c-0.2,0-0.5,0-0.7-0.1c-0.2,0-0.5-0.1-0.8-0.3
					c-0.2-0.1-0.4-0.2-0.5-0.2c-0.1,0-0.3-0.1-0.4-0.1c-0.1,0-0.3,0-0.6,0.1l-0.1-0.1c0.3-0.5,0.7-0.8,1.1-0.8c0.2,0,0.6,0.1,1,0.3
					c0.3,0.1,0.6,0.2,0.8,0.3c0.3,0.1,0.5,0.1,0.7,0.1c0.2,0,0.4,0,0.5-0.1c0.2,0,0.4-0.1,0.7-0.2L94.3,10.2z M100.4,13.3
					c0,0.5,0,1-0.1,1.5c0,0.2-0.1,0.6-0.3,1.1l-0.7-0.3c0,0.8-0.1,1.6-0.3,2.4c-0.2,0.8-0.5,1.6-0.9,2.4c0.4,0.7,0.6,1.1,0.7,1.2
					c0.2,0.3,0.3,0.6,0.3,0.9v0.3c0,0.2-0.1,0.9-0.2,2.1c-0.8,0.4-1.5,0.6-2.1,0.7c-0.6,0.1-1.5,0.2-2.8,0.2v-3.1
					c0.7-0.4,1.2-0.7,1.5-0.9c0.3-0.2,0.7-0.7,1.2-1.3c-0.8-1-1.4-1.7-1.7-2.1c-0.3-0.3-0.7-0.7-1.1-1.2c-0.1,0.2-0.2,0.4-0.2,0.5
					c-0.1,0.1-0.1,0.1-0.2,0.1c-0.2,0-0.5-0.1-0.9-0.4c-0.4-0.3-0.7-0.5-0.9-0.7c-0.2-0.2-0.4-0.6-0.5-1.1s-0.2-1.3-0.2-2.1
					c0-0.4,0-0.6,0.1-0.8c0-0.1,0.1-0.2,0.3-0.2c0.3,0,0.8,0.4,1.6,1.2c0.7,0.7,1.3,1.3,1.9,2c0.4,0.5,0.8,1,1.2,1.4
					c0.3,0.4,0.8,1.1,1.5,2.2c0.3-0.6,0.5-1.3,0.6-2.3c0.1-0.6,0.1-1.2,0.1-2c-0.2-0.1-0.4-0.2-0.5-0.3s-0.1-0.3-0.1-0.5
					c0-0.4,0-0.8,0.1-1.3c0.1-0.4,0.2-0.9,0.4-1.4l0.4,0.1c0,0.4,0.1,0.7,0.3,0.9C98.9,12.8,99.4,13,100.4,13.3z M97.6,22.3
					l-0.5-0.8c-0.3,0.3-0.5,0.6-0.7,0.7c-0.2,0.1-0.4,0.4-0.9,0.6c0.5-0.1,0.9-0.1,1.1-0.2C96.9,22.7,97.2,22.5,97.6,22.3z"/>
				<path class="st0" d="M104.5,21.3c0,0.6-0.1,1.2-0.2,1.7c-0.1,0.5-0.4,1.2-0.8,2.1l-0.6-0.3c0.2-0.9,0.2-1.6,0.2-2.2
					c0-0.4,0-1-0.1-1.9s-0.2-1.6-0.3-2.4s-0.3-1.8-0.5-2.9c-0.1-0.4-0.1-0.7-0.1-0.8c0-0.2,0.1-0.6,0.3-1.1c0.2-0.5,0.5-1.1,0.9-1.9
					l0.6,3.7c0.2,1.4,0.4,2.6,0.5,3.6C104.5,19.8,104.5,20.6,104.5,21.3z"/>
				<path class="st0" d="M120.8,24.1c0,1.1-0.6,2-1.7,2.8s-2.4,1.2-3.8,1.2c-1.2,0-2.1-0.3-2.8-0.9c-0.7-0.6-1-1.4-1-2.5
					c0-1,0.1-1.9,0.4-2.6c0.3-0.8,0.8-1.9,1.7-3.1l0.6,0.4c-0.5,0.8-0.9,1.5-1.2,2.1c-0.2,0.6-0.3,1.2-0.3,1.8
					c0,0.6,0.2,1.1,0.7,1.5c0.5,0.3,1.1,0.5,2,0.5c1.2,0,2.2-0.2,3-0.7c0.8-0.5,1.1-1.1,1.1-1.8c0-0.1,0-0.2,0-0.3s0-0.1,0-0.2
					c0-0.3,0-0.6-0.1-0.9s-0.2-1-0.3-2c-0.3-1.6-0.6-3.3-0.9-4.9l-0.5-0.4c0-0.7,0.3-1.7,1-3.1l0.5,0.2c0,0.1,0,0.2,0,0.3
					c0,0.3,0.1,0.5,0.4,0.7c0.4,0.2,0.8,0.5,1.2,0.7c-0.1,0.6-0.2,1-0.2,1.3c-0.1,0.3-0.2,0.6-0.5,1.2l-0.3-0.1
					c0,0.1,0.1,0.7,0.3,1.8s0.4,2,0.5,2.8c0.2,1.1,0.3,1.8,0.3,2V24.1z"/>
				<path class="st0" d="M126.6,24.3h-6.5v-2.8h5.5c-0.1-0.5-0.2-0.9-0.4-1.2c-0.1-0.2-0.3-0.5-0.7-0.9l0.8-2.5
					c0.5,0.6,0.9,1.2,1.1,1.8c0.2,0.6,0.3,1.6,0.3,2.9V24.3z M126.4,13.2l-1.1,2.1l-1.5-0.8l-0.8,1.6l-1.9-1.1l1.1-2l1.5,0.8
					l0.9-1.7L126.4,13.2z"/>
				<path class="st0" d="M134.3,24.3h-1.5c-0.5,0-1-0.1-1.4-0.3c-0.4-0.2-0.8-0.6-1-1.1c-0.5,0.6-1,0.9-1.8,1.2
					c-0.5,0.2-1,0.2-1.6,0.2h-1.1v-2.8h1.1c0.6,0,1,0,1.2-0.1c0.2-0.1,0.5-0.2,0.9-0.4c-0.2-0.4-0.4-0.7-0.5-0.9
					c-0.2-0.2-0.4-0.3-0.6-0.3c-0.1,0-0.1,0-0.2,0.1c-0.1,0.1-0.1,0.2-0.2,0.3l-0.5-0.1c0-1.3,0.2-2.1,0.6-2.7
					c0.4-0.5,1.1-0.8,2.1-0.8c1,0,1.7,0.2,2.3,0.6c0.5,0.4,0.8,0.9,0.8,1.6c0,0.4-0.1,0.7-0.2,1s-0.4,0.8-0.8,1.3
					c0.1,0.1,0.2,0.2,0.4,0.3c0.2,0.1,0.3,0.1,0.5,0.1h1.5V24.3z"/>
				<path class="st0" d="M143.1,24.3c-0.7,0-1.6-0.1-2.6-0.4c-0.9-0.2-1.6-0.5-2.3-0.9c-0.4,0.6-0.9,1-1.5,1.2
					c-0.3,0.1-0.7,0.1-1.2,0.1h-2.1v-2.8h2.1c0.6,0,1.1-0.1,1.5-0.2c0.5-0.2,0.8-0.5,1-1c0.4-0.9,0.9-1.6,1.5-2.2
					c0.5-0.5,1-0.8,1.4-0.8c0.4,0,0.8,0.5,1.3,1.6c0.5,1.1,0.8,2.2,0.8,3.1V24.3z M141.1,21.2c0-0.2-0.1-0.4-0.4-0.8
					c-0.3-0.4-0.6-0.6-0.9-0.6c-0.3,0-0.5,0.3-0.7,0.9c0.4,0.1,0.6,0.2,0.8,0.3c0.6,0.2,0.9,0.3,0.9,0.3
					C141.1,21.3,141.1,21.3,141.1,21.2z"/>
				<path class="st0" d="M160.5,23.8c0,1-0.1,1.7-0.3,2.3c-0.2,0.6-0.5,1-0.9,1.4c-0.4,0.4-1,0.6-1.9,0.9c-0.8,0.2-1.7,0.3-2.5,0.3
					c-1.7,0-3-0.3-3.9-0.9c-0.9-0.6-1.4-1.5-1.4-2.6c0-1,0.1-1.8,0.4-2.6c0.3-0.9,0.9-2,1.9-3.4l0.6,0.4c-0.7,1.2-1.1,2-1.3,2.5
					s-0.3,1.1-0.3,1.6c0,0.7,0.4,1.3,1.2,1.8c0.8,0.5,1.8,0.7,3.1,0.7c1.2,0,2.3-0.2,3.1-0.7c0.9-0.5,1.3-1.1,1.3-1.8
					c0-0.4-0.1-0.9-0.2-1.3c-0.1-0.4-0.5-1.1-1-2l0.9-2.8c0.5,0.9,0.8,1.5,0.9,1.8c0.2,0.6,0.3,1.4,0.3,2.3V23.8z M157.1,15.6
					l-1.2,2.3l-2.4-1.3l1.3-2.3L157.1,15.6z"/>
				<path class="st0" d="M165.5,24.3H164c-0.8,0-1.4-0.3-1.8-1c-0.4-0.7-0.6-2-0.6-3.7v-3c0-0.7-0.1-1.2-0.3-1.6
					c-0.1-0.2-0.3-0.4-0.6-0.8l1.1-2.6c0.4,0.6,0.7,1.1,0.8,1.6c0.2,0.6,0.3,1.4,0.3,2.4v2c0,1.4,0.1,2.5,0.3,3
					c0.2,0.5,0.4,0.7,0.7,0.7h1.5V24.3z"/>
				<path class="st0" d="M173.2,24.3h-8.4v-2.8h6.7c-0.3-0.3-0.5-0.6-0.8-0.9c-0.2-0.2-0.5-0.4-0.8-0.7c-0.4-0.3-0.8-0.6-1.2-0.9
					l-0.3,0.4c-0.6-0.6-1-1-1.1-1.1c-0.3-0.4-0.5-0.8-0.5-1.4c0-0.7,0-1.2,0.1-1.5c0.1-0.4,0.4-0.8,0.9-1.1c0.4-0.3,0.8-0.5,1.3-0.8
					c0.4-0.2,0.8-0.4,1.4-0.6c0.3-0.1,0.9-0.3,1.8-0.7v2.5c0,0-0.3,0.1-0.9,0.3c-0.7,0.2-1.2,0.4-1.6,0.6c-0.6,0.2-0.9,0.4-0.9,0.5
					c0,0.1,0.2,0.3,0.7,0.8c0.7,0.7,1.2,1.2,1.7,1.8c0.8,0.9,1.4,1.8,1.8,2.7V24.3z"/>
				<path class="st0" d="M182.9,21.3c0,0.6-0.1,1.2-0.2,1.7c-0.1,0.5-0.4,1.2-0.8,2.1l-0.6-0.3c0.2-0.9,0.2-1.6,0.2-2.2
					c0-0.4,0-1-0.1-1.9s-0.2-1.6-0.3-2.4s-0.3-1.8-0.5-2.9c-0.1-0.4-0.1-0.7-0.1-0.8c0-0.2,0.1-0.6,0.3-1.1c0.2-0.5,0.5-1.1,0.9-1.9
					l0.6,3.7c0.2,1.4,0.4,2.6,0.5,3.6C182.9,19.8,182.9,20.6,182.9,21.3z"/>
				<path class="st0" d="M191,24.3h-4.7c-0.5,0-0.8-0.1-1-0.3c-0.3-0.2-0.4-0.6-0.4-1.2c0-0.3,0-0.6,0-1s0.1-0.7,0.1-1.1l0.4,0
					c0.1,0.2,0.2,0.4,0.4,0.5c0.2,0.1,0.4,0.2,0.7,0.2h3.6c-0.2-1-0.4-1.8-0.8-2.4c-0.3-0.5-0.8-0.9-1.4-1.3l0.7-3.2
					c0.9,0.7,1.5,1.5,1.9,2.6c0.3,1,0.5,2.3,0.5,3.9V24.3z M189.2,10.7L188,13l-2.4-1.3l1.3-2.3L189.2,10.7z"/>
				<path class="st0" d="M194.8,27.9c-0.1,0.2-0.1,0.4-0.2,0.5c-0.1,0.1-0.2,0.1-0.4,0.2l-2.2,0.7c0.1-0.3,0.3-0.4,0.4-0.5
					c0.1-0.1,0.3-0.2,0.5-0.3c-0.2-0.1-0.3-0.2-0.4-0.3c-0.1-0.1-0.1-0.2-0.1-0.3c0-0.1,0-0.2,0.1-0.3s0.1-0.2,0.2-0.3
					c0.5-0.6,0.9-0.9,1.3-0.9c0.1,0,0.2,0,0.3,0.1c0.1,0.1,0.1,0.2,0.1,0.3c0,0.1,0,0.2,0,0.3c0,0.1-0.1,0.2-0.2,0.4
					c-0.3-0.2-0.6-0.3-0.7-0.3c-0.1,0-0.2,0-0.4,0.1c-0.1,0-0.2,0.1-0.2,0.2c0,0.1,0.2,0.2,0.5,0.4c0.3,0.2,0.6,0.3,0.7,0.3
					C194.2,28,194.4,28,194.8,27.9z M194.8,21.3c0,0.6-0.1,1.2-0.2,1.7c-0.1,0.5-0.4,1.2-0.8,2.1l-0.6-0.3c0.2-0.9,0.2-1.6,0.2-2.2
					c0-0.4,0-1-0.1-1.9s-0.2-1.6-0.3-2.4s-0.3-1.8-0.5-2.9c-0.1-0.4-0.1-0.7-0.1-0.8c0-0.2,0.1-0.6,0.3-1.1c0.2-0.5,0.5-1.1,0.9-1.9
					l0.6,3.7c0.2,1.4,0.4,2.6,0.5,3.6C194.8,19.8,194.8,20.6,194.8,21.3z"/>
				<path class="st0" d="M210.3,24.3H209c-0.3,0-0.5-0.1-0.7-0.2c-0.4-0.2-0.7-0.6-1-1.1c-0.4-0.7-0.6-1.7-0.7-3
					c-0.5,0.6-0.8,1-1.1,1.2c-0.4,0.4-0.7,0.5-1,0.5c-0.1,0-0.3,0-0.5-0.1l-1.3-0.2c-0.5-0.1-0.9-0.2-1-0.2c-0.1,0-0.2-0.1-0.2-0.3
					c0-0.2,0.2-0.8,0.7-1.8s0.8-1.6,1-1.8c0.2-0.2,0.5-0.4,0.9-0.7c0.3-0.2,0.6-0.4,1.1-0.7l0.6-0.3c0-0.1,0-0.2,0-0.3
					c0-0.1,0-0.2,0-0.3c0-0.3,0.1-0.6,0.2-1s0.3-0.9,0.6-1.5l1,6.5c0.2,1,0.4,1.7,0.6,2.1c0.2,0.2,0.4,0.4,0.7,0.4h1.4V24.3z
					 M207.9,9.8l-1.1,1.9l-1.5-0.8l-0.8,1.6l-1.9-1.1l1.1-1.8l1.5,0.8l0.9-1.6L207.9,9.8z M206.3,18.5l-0.2-1.2
					c-0.2,0.1-0.4,0.2-0.5,0.2c-0.4,0.2-0.7,0.4-0.9,0.6c-0.2,0.1-0.3,0.3-0.4,0.4c-0.1,0.2-0.2,0.3-0.2,0.3c0,0.1,0.1,0.2,0.4,0.2
					c0.2,0.1,0.5,0.1,0.7,0.1c0.2,0,0.3,0,0.5-0.1C205.8,18.8,206,18.7,206.3,18.5z"/>
				<path class="st0" d="M215.3,24.3h-5.7v-2.8h4.5l-1.3-7.1l-0.7-0.4c0-0.4,0.1-0.8,0.2-1.2c0.2-0.5,0.4-1.2,0.8-1.9l0.5,0.3
					c0,0,0,0.2,0,0.3c0,0.2,0.1,0.5,0.4,0.7c0.3,0.2,0.7,0.4,1.2,0.6c-0.1,0.4-0.2,0.9-0.3,1.3c-0.1,0.4-0.3,0.8-0.4,1.1l-0.4-0.1
					l1.1,6.4V24.3z"/>
				<path class="st0" d="M223,24.3h-1.5c-0.5,0-1-0.1-1.4-0.3c-0.4-0.2-0.8-0.6-1-1.1c-0.5,0.6-1,0.9-1.8,1.2
					c-0.5,0.2-1,0.2-1.6,0.2h-1.1v-2.8h1.1c0.6,0,1,0,1.2-0.1c0.2-0.1,0.5-0.2,0.9-0.4c-0.2-0.4-0.4-0.7-0.5-0.9
					c-0.2-0.2-0.4-0.3-0.6-0.3c-0.1,0-0.1,0-0.2,0.1c-0.1,0.1-0.1,0.2-0.2,0.3l-0.5-0.1c0-1.3,0.2-2.1,0.6-2.7
					c0.4-0.5,1.1-0.8,2.1-0.8c1,0,1.7,0.2,2.3,0.6c0.5,0.4,0.8,0.9,0.8,1.6c0,0.4-0.1,0.7-0.2,1s-0.4,0.8-0.8,1.3
					c0.1,0.1,0.2,0.2,0.4,0.3c0.2,0.1,0.3,0.1,0.5,0.1h1.5V24.3z"/>
				<path class="st0" d="M228,24.3h-5.7v-2.8h4.5l-1.3-7.1l-0.7-0.4c0-0.4,0.1-0.8,0.2-1.2c0.2-0.5,0.4-1.2,0.8-1.9l0.5,0.3
					c0,0,0,0.2,0,0.3c0,0.2,0.1,0.5,0.4,0.7c0.3,0.2,0.7,0.4,1.2,0.6c-0.1,0.4-0.2,0.9-0.3,1.3c-0.1,0.4-0.3,0.8-0.4,1.1l-0.4-0.1
					l1.1,6.4V24.3z"/>
				<path class="st0" d="M231.8,21.3c0,0.6-0.1,1.2-0.2,1.7c-0.1,0.5-0.4,1.2-0.8,2.1l-0.6-0.3c0.2-0.9,0.2-1.6,0.2-2.2
					c0-0.4,0-1-0.1-1.9s-0.2-1.6-0.3-2.4s-0.3-1.8-0.5-2.9c-0.1-0.4-0.1-0.7-0.1-0.8c0-0.2,0.1-0.6,0.3-1.1c0.2-0.5,0.5-1.1,0.9-1.9
					l0.6,3.7c0.2,1.4,0.4,2.6,0.5,3.6C231.8,19.8,231.8,20.6,231.8,21.3z"/>
				<path class="st0" d="M254.6,24.3h-1.4c-1.2,0-2.6,0-4.1,0.1c-0.9,0-2.1,0.1-3.6,0.2c-1.5,0.1-2.3,0.1-2.4,0.1
					c-1.5,0-2.5-0.3-3.2-0.8c-0.6-0.5-0.9-1.2-0.9-2.3c0-0.8,0.1-1.5,0.2-2.1s0.5-1.5,1.1-2.9L241,17c-0.5,1.2-0.7,2.1-0.7,2.6
					c0,0.7,0.3,1.2,0.8,1.5c0.6,0.3,1.7,0.5,3.2,0.5c1.1-0.1,2.1-0.1,3.1-0.2c1,0,2-0.1,2.9-0.1c-0.3-0.1-0.5-0.3-0.6-0.5
					c-0.1-0.2-0.2-0.4-0.2-0.7c0-1,0.3-2,0.9-3c0.7-1.1,1.4-1.6,2.2-1.6c0.7,0,1.3,0.5,1.6,1.5c0.3,0.9,0.4,2.4,0.4,4.3V24.3z
					 M253.8,12.1l-1.2,2.3l-2.4-1.3l1.2-2.3L253.8,12.1z M253,20.2c-0.2-0.7-0.4-1.1-0.6-1.3c-0.2-0.2-0.4-0.3-0.6-0.3
					c-0.1,0-0.2,0.1-0.3,0.2c-0.1,0.1-0.2,0.2-0.2,0.4c0,0.2,0.1,0.4,0.4,0.6C252,19.9,252.5,20,253,20.2z"/>
				<path class="st0" d="M263.8,24.6c0,0.4-0.2,1-0.7,1.7c-0.5,0.7-1.1,1.3-1.7,1.8c-0.7,0.6-1.3,0.9-1.8,0.9c-0.6,0-1.3-0.2-2-0.5
					c-0.6-0.3-1.6-0.9-2.9-1.8l0.4-0.6c0.6,0.4,1.1,0.7,1.5,0.8s0.8,0.2,1.2,0.2c0.5,0,1-0.1,1.4-0.4c0.5-0.3,1.1-0.8,2-1.5
					c1.2-1,1.7-1.8,1.7-2.4c0-0.3-0.1-0.6-0.3-1.1c-0.2-0.5-0.6-0.9-0.9-1.3l0.6-2.8c0.5,0.5,0.8,1,1.1,1.7c0.3,0.6,0.4,1.3,0.4,2.2
					V24.6z"/>
				<path class="st0" d="M275,24.3h-11.9v-2.8h7.4c-0.8-0.9-1.6-1.5-2.3-1.9c-0.6-0.3-1.2-0.5-1.8-0.5c-0.2,0-0.3,0-0.5,0
					c-0.1,0-0.4,0.1-0.6,0.1c0.4-0.9,0.8-1.5,1.3-1.9c0.5-0.4,1-0.6,1.6-0.6c0.5,0,0.9,0.1,1.3,0.3s0.9,0.6,1.4,1.1
					c0.4,0.4,1,1,1.8,1.8c0.5,0.6,0.9,1,1.2,1.1c0.3,0.2,0.7,0.3,1.2,0.4V24.3z"/>
				<path class="st0" d="M297,24.3h-1.4c-1.2,0-2.6,0-4.1,0.1c-0.9,0-2.1,0.1-3.6,0.2c-1.5,0.1-2.3,0.1-2.4,0.1
					c-1.5,0-2.5-0.3-3.2-0.8c-0.6-0.5-0.9-1.2-0.9-2.3c0-0.8,0.1-1.5,0.2-2.1s0.5-1.5,1.1-2.9l0.7,0.3c-0.5,1.2-0.7,2.1-0.7,2.6
					c0,0.7,0.3,1.2,0.8,1.5c0.6,0.3,1.7,0.5,3.2,0.5c1.1-0.1,2.1-0.1,3.1-0.2c1,0,2-0.1,2.9-0.1c-0.3-0.1-0.5-0.3-0.6-0.5
					c-0.1-0.2-0.2-0.4-0.2-0.7c0-1,0.3-2,0.9-3c0.7-1.1,1.4-1.6,2.2-1.6c0.7,0,1.3,0.5,1.6,1.5c0.3,0.9,0.4,2.4,0.4,4.3V24.3z
					 M296.2,12.1l-1.2,2.3l-2.4-1.3l1.2-2.3L296.2,12.1z M295.4,20.2c-0.2-0.7-0.4-1.1-0.6-1.3c-0.2-0.2-0.4-0.3-0.6-0.3
					c-0.1,0-0.2,0.1-0.3,0.2c-0.1,0.1-0.2,0.2-0.2,0.4c0,0.2,0.1,0.4,0.4,0.6C294.4,19.9,294.8,20,295.4,20.2z"/>
				<path class="st0" d="M304.3,24.3h-4.7c-0.5,0-0.8-0.1-1-0.3c-0.3-0.2-0.4-0.6-0.4-1.2c0-0.3,0-0.6,0-1s0.1-0.7,0.1-1.1l0.4,0
					c0.1,0.2,0.2,0.4,0.4,0.5c0.2,0.1,0.4,0.2,0.7,0.2h3.6c-0.2-1-0.4-1.8-0.8-2.4c-0.3-0.5-0.8-0.9-1.4-1.3l0.7-3.2
					c0.9,0.7,1.5,1.5,1.9,2.6c0.3,1,0.5,2.3,0.5,3.9V24.3z M302.5,10.7l-1.2,2.3l-2.4-1.3l1.3-2.3L302.5,10.7z"/>
				<path class="st0" d="M315.4,24.3h-11.9v-2.8h7.4c-0.8-0.9-1.6-1.5-2.3-1.9c-0.6-0.3-1.2-0.5-1.8-0.5c-0.2,0-0.3,0-0.5,0
					c-0.1,0-0.4,0.1-0.6,0.1c0.4-0.9,0.8-1.5,1.3-1.9c0.5-0.4,1-0.6,1.6-0.6c0.5,0,0.9,0.1,1.3,0.3s0.9,0.6,1.4,1.1
					c0.4,0.4,1,1,1.8,1.8c0.5,0.6,0.9,1,1.2,1.1c0.3,0.2,0.7,0.3,1.2,0.4V24.3z"/>
				<path class="st0" d="M333.2,24.3h-0.9c-0.3,0-0.5,0-0.6,0.1c-0.2,0-0.2,0.1-0.2,0.2c0,0,0.2,0.1,0.5,0.3
					c0.3,0.1,0.5,0.3,0.5,0.6c0,0.4-0.1,0.8-0.2,1.4s-0.3,1-0.5,1.4c-0.2,0.3-0.6,0.7-1.3,1.1c-0.7,0.5-1.6,0.8-2.5,1.1
					c-1.1,0.3-2.1,0.5-3.1,0.5c-1.1,0-2-0.3-2.5-0.8c-0.6-0.5-0.9-1.3-0.9-2.3c0-1.1,0.1-2,0.4-2.8c0.3-1,1-2.2,2-3.8l0.6,0.4
					c-0.7,1.1-1.1,2-1.3,2.6c-0.2,0.7-0.4,1.3-0.4,1.9s0.2,1.1,0.6,1.5c0.4,0.4,1,0.5,1.7,0.5c0.9,0,1.8-0.1,2.8-0.4
					c0.9-0.2,1.7-0.5,2.4-0.9c0.7-0.3,1-0.6,1-0.8c0-0.1-0.2-0.1-0.6-0.1c-0.4,0-0.7,0-1,0c-0.7,0-1.2,0-1.4-0.1
					c-0.2-0.1-0.3-0.2-0.3-0.4c0-0.4,0.1-0.8,0.2-1.2c0.1-0.4,0.3-0.7,0.5-1c0.5-0.6,1-1,1.6-1.4c0.7-0.4,1.3-0.7,1.9-0.7h1.2V24.3z
					"/>
				<path class="st0" d="M338.1,24.3h-5.7v-2.8h4.5l-1.3-7.1L335,14c0-0.4,0.1-0.8,0.2-1.2c0.2-0.5,0.4-1.2,0.8-1.9l0.5,0.3
					c0,0,0,0.2,0,0.3c0,0.2,0.1,0.5,0.4,0.7c0.3,0.2,0.7,0.4,1.2,0.6c-0.1,0.4-0.2,0.9-0.3,1.3c-0.1,0.4-0.3,0.8-0.4,1.1l-0.4-0.1
					l1.1,6.4V24.3z"/>
				<path class="st0" d="M348.4,19.4l-1.2,3c-1.9,0.6-3.4,1-4.6,1.3c-1.1,0.3-2,0.5-2.7,0.6c-0.5,0.1-1.1,0.1-1.6,0.1h-0.9v-2.8h1.1
					c0.2,0,0.3,0,0.4,0c0.2,0,0.4,0,0.6-0.1c-0.3-0.5-0.6-0.9-0.7-1.3c-0.1-0.3-0.2-0.7-0.2-1.1c0-1,0.4-1.9,1.3-2.7
					c0.9-0.8,1.9-1.2,3-1.2c0.8,0,1.5,0.3,2.2,0.8c0.6,0.5,1.1,1,1.4,1.7l-0.4,0.4c-0.5-0.2-1-0.3-1.3-0.4c-0.3-0.1-0.7-0.1-1.2-0.1
					c-0.9,0-1.6,0.1-2.2,0.2c-0.8,0.2-1.2,0.4-1.2,0.7c0,0.5,1,1.3,2.9,2.4L348.4,19.4z"/>
				<path class="st0" d="M367.8,24.3h-1.1c-0.3,0-0.5,0-0.7,0c-0.1,0-0.2,0.1-0.2,0.1c0.2,0.1,0.4,0.2,0.6,0.2
					c0.2,0,0.3,0.1,0.3,0.2c0.1,0.1,0.1,0.2,0.1,0.3c0,0.5-0.1,1.1-0.4,1.8c-0.3,0.7-0.6,1.1-0.8,1.3c-0.3,0.2-1,0.5-2.3,0.7
					c-1.3,0.3-2.4,0.4-3.3,0.4c-1.3,0-2.4-0.3-3.2-0.8s-1.2-1.2-1.2-2.1c0-0.8,0.2-1.7,0.5-2.4c0.4-0.9,1.2-2.1,2.4-3.5l0.6,0.4
					c-0.7,0.9-1.2,1.6-1.5,2.2c-0.3,0.6-0.4,1.1-0.4,1.6c0,0.7,0.3,1.3,0.9,1.6s1.6,0.5,2.8,0.5c0.7,0,1.6-0.1,2.8-0.4
					c1.2-0.2,1.8-0.5,1.8-0.6c0-0.1-0.2-0.2-0.7-0.2s-0.9-0.1-1.5-0.1c-0.8,0-1.2-0.2-1.2-0.5c0-0.2,0.1-0.4,0.3-0.9
					c0.1-0.3,0.3-0.6,0.4-0.9c0.3-0.6,0.7-1,1.5-1.4c0.7-0.4,1.5-0.5,2.3-0.5h1.1V24.3z M363.5,30.5l-1,1.2l-1.1-0.7l-0.8,0.9
					l-1.3-0.7l1-1.2l1.1,0.7l0.8-0.9L363.5,30.5z"/>
				<path class="st0" d="M373.6,24.3h-6.5v-2.8h5.5c-0.1-0.5-0.2-0.9-0.4-1.2c-0.1-0.2-0.3-0.5-0.7-0.9l0.8-2.5
					c0.5,0.6,0.9,1.2,1.1,1.8c0.2,0.6,0.3,1.6,0.3,2.9V24.3z M373.7,13l-1.2,2.3l-2.4-1.3l1.3-2.3L373.7,13z"/>
				<path class="st0" d="M379.4,24.3h-6.5v-2.8h5.5c-0.1-0.5-0.2-0.9-0.4-1.2c-0.1-0.2-0.3-0.5-0.7-0.9l0.8-2.5
					c0.5,0.6,0.9,1.2,1.1,1.8c0.2,0.6,0.3,1.6,0.3,2.9V24.3z M378.3,26.5l-1.2,2.3l-2.4-1.3l1.2-2.4L378.3,26.5z"/>
				<path class="st0" d="M388.2,24.3c-0.7,0-1.6-0.1-2.6-0.4c-0.9-0.2-1.6-0.5-2.3-0.9c-0.4,0.6-0.9,1-1.5,1.2
					c-0.3,0.1-0.7,0.1-1.2,0.1h-2.1v-2.8h2.1c0.6,0,1.1-0.1,1.5-0.2c0.5-0.2,0.8-0.5,1-1c0.4-0.9,0.9-1.6,1.5-2.2
					c0.5-0.5,1-0.8,1.4-0.8c0.4,0,0.8,0.5,1.3,1.6c0.5,1.1,0.8,2.2,0.8,3.1V24.3z M386.3,21.2c0-0.2-0.1-0.4-0.4-0.8
					c-0.3-0.4-0.6-0.6-0.9-0.6c-0.3,0-0.5,0.3-0.7,0.9c0.4,0.1,0.6,0.2,0.8,0.3c0.6,0.2,0.9,0.3,0.9,0.3
					C386.2,21.3,386.3,21.3,386.3,21.2z"/>
				<path class="st0" d="M394.9,31.9c0.6-1.2,1-2.2,1.2-2.8s0.5-1.4,0.7-2.3s0.3-1.7,0.4-2.4c0.1-0.8,0.1-1.6,0.1-2.4
					c0-1.6-0.2-3.2-0.5-4.7c-0.4-1.5-1-3.3-2-5.4h2c1,1.5,1.9,3.1,2.4,4.7c0.6,1.7,0.9,3.4,0.9,5.1c0,1.4-0.2,3-0.7,4.7
					c-0.5,1.9-1.4,3.7-2.6,5.5H394.9z"/>
			</g>
		</g>
	</g>
	<rect class="st1" width="417.8" height="39.1"/>
</g>
</svg>
