<?xml version="1.0" encoding="utf-8"?>
<!-- Generator: Adobe Illustrator 19.2.0, SVG Export Plug-In . SVG Version: 6.00 Build 0)  -->
<svg version="1.1" id="Layer_1" xmlns="http://www.w3.org/2000/svg" xmlns:xlink="http://www.w3.org/1999/xlink" x="0px" y="0px"
	 viewBox="0 0 300.3 39.1" style="enable-background:new 0 0 300.3 39.1;" xml:space="preserve">
<style type="text/css">
	.st0{fill:#BA0017;}
	.st1{fill:none;}
</style>
<g>
	<g>
		<g>
			<g>
				<g>
					<path d="M86.8,12.6c0,0.3-0.2,0.6-0.5,1c-0.6,0.2-1.6,0.7-3,1.2c0-0.3,0.2-0.6,0.5-0.9C84.2,13.7,85.3,13.2,86.8,12.6z"/>
					<path d="M93.2,25.1h-7.8c-1.7,0-2.9-0.2-3.6-0.6c-0.8-0.4-1.1-1.2-1.1-2.2c0-0.6,0.2-1.3,0.5-2.1c0.1-0.2,0.3-0.6,0.6-1.2
						l0.4,0.2c-0.2,0.5-0.4,1-0.5,1.3c-0.1,0.3-0.1,0.6-0.1,0.8c0,0.8,0.4,1.3,1.2,1.6c0.6,0.2,1.5,0.3,2.6,0.3h6.7l-1.3-8.9
						l-0.5-0.3c0-0.5,0-0.9,0.1-1.4c0.1-0.4,0.2-0.8,0.4-1.2l0.2,0.1c0,0.4,0.3,0.7,0.8,0.9l1.1,0.4c0,0.3,0,0.7-0.1,1.1
						s-0.2,0.7-0.2,0.9L92,14.8l1.2,8.2V25.1z M89.4,18.7c0,0.8-0.3,1.4-0.8,1.8c-0.5,0.4-1.2,0.6-2.2,0.6c-0.4,0-0.9-0.1-1.4-0.2
						c-0.3-0.1-0.8-0.2-1.4-0.4l0.2-0.2c0.2,0,0.4,0,0.6,0c0.6,0,0.9,0.1,1,0.1c0.8,0,1.5-0.1,2.1-0.4c0.6-0.2,0.9-0.5,0.9-0.8
						c0-0.1-0.1-0.3-0.2-0.4c-0.1-0.1-0.3-0.2-0.4-0.2c-0.2,0-0.3,0-0.4,0l-0.7,0.1c-0.2,0-0.3,0-0.4-0.1c-0.1-0.1-0.2-0.2-0.2-0.5
						c0-0.6,0.3-1.3,0.9-2.1c0.6-0.8,1.3-1.3,1.9-1.6l-0.2,1.4c-0.5,0.1-0.9,0.3-1.1,0.4c-0.4,0.2-0.6,0.5-0.6,0.9
						c0,0.1,0.1,0.2,0.2,0.3c0.1,0.1,0.2,0.1,0.4,0.1c0.1,0,0.2,0,0.3,0l0.6-0.1c0.4,0,0.6,0.1,0.8,0.3
						C89.3,17.9,89.4,18.2,89.4,18.7z"/>
					<path d="M97.6,8.4c0,0.3-0.2,0.6-0.5,1c-0.6,0.2-1.6,0.7-3,1.2c0-0.3,0.2-0.6,0.5-0.9C95.1,9.5,96.1,9,97.6,8.4z"/>
					<path d="M97.7,25.1h-5.2v-1.8h4.1l-1.3-8.9l-0.5-0.3c0-0.5,0-0.9,0.1-1.4s0.2-0.8,0.4-1.2l0.2,0.1c0,0.4,0.2,0.7,0.7,0.9
						c0.4,0.1,0.7,0.3,1.1,0.4c0,0.4,0,0.7-0.1,1.1c-0.1,0.4-0.1,0.7-0.2,0.9l-0.5-0.2l1.2,8.2V25.1z"/>
					<path d="M107.6,16.5c0,0.1,0,0.2,0,0.4c0,0.1,0,0.3-0.1,0.4l-0.9-0.5c-0.4,0.4-0.6,0.6-0.7,0.8c-0.5,0.5-1,0.8-1.3,0.8h-0.8
						c0.4-0.2,0.8-0.5,1.3-0.9c0.4-0.4,0.8-0.7,1-0.9c-0.2-0.1-0.4-0.3-0.5-0.4c-0.1-0.2-0.2-0.4-0.2-0.6c0-0.5,0.1-0.9,0.4-1.2
						c0.3-0.4,0.6-0.5,0.9-0.5c0.2,0,0.3,0.1,0.5,0.3c0.1,0.2,0.2,0.4,0.2,0.7c0,0.1,0,0.3-0.1,0.4s-0.1,0.4-0.3,0.8
						c0.1,0.1,0.2,0.2,0.3,0.3C107.5,16.3,107.6,16.4,107.6,16.5z M106.8,15.4c0-0.2-0.1-0.4-0.2-0.5c-0.1-0.2-0.3-0.2-0.4-0.2
						c-0.1,0-0.1,0-0.2,0.1c0,0-0.1,0.1-0.1,0.1c0,0.2,0.1,0.3,0.3,0.5l0.5,0.4C106.8,15.5,106.8,15.4,106.8,15.4z"/>
					<path d="M116.6,23.2c0,0.3,0,0.5-0.1,0.7c-0.1,0.4-0.2,0.7-0.3,0.9l-0.1,0.3c-0.8,0-1.5-0.1-2-0.4c-0.4-0.2-0.8-0.5-1.1-0.9
						c-0.3,0.5-0.6,0.8-1,1c-0.3,0.2-0.7,0.3-1.2,0.3c-0.5,0-0.9-0.1-1.3-0.4c-0.4-0.3-0.7-0.6-0.9-1c-0.3,0.4-0.6,0.8-1,1
						c-0.4,0.3-0.8,0.4-1.1,0.4c-0.8,0-1.4-0.1-1.9-0.2s-0.7-0.3-0.7-0.4c0-0.6,0.4-1.3,1.2-2c0.8-0.7,1.8-1.4,2.9-1.9
						c0-0.1-0.1-0.2-0.1-0.4c0-0.2-0.1-0.3-0.1-0.4c0-0.2,0.1-0.5,0.2-0.8c0.1-0.2,0.3-0.5,0.5-0.8c0.1,0.6,0.2,1.1,0.3,1.7
						c0.1,0.9,0.3,1.7,0.5,2.4c0.1,0.4,0.2,0.7,0.5,0.8c0.2,0.2,0.6,0.3,1,0.3c0.3,0,0.6,0,0.8-0.1c0.2-0.1,0.4-0.3,0.7-0.8
						l-0.6-2.9c0-0.2-0.1-0.4-0.1-0.5c0-0.3-0.1-0.5-0.1-0.6c0-0.2,0.1-0.5,0.2-0.8c0.1-0.2,0.3-0.5,0.5-0.7
						c0.1,0.4,0.1,0.7,0.2,1.2s0.2,1,0.4,1.8l0.4,1.8c0.1,0.5,0.3,0.9,0.5,1.2c0.3,0.3,0.6,0.5,1.1,0.5c0.2,0,0.4-0.1,0.5-0.2
						c0.1-0.2,0.2-0.4,0.2-0.6l-0.6-2.9c0-0.3-0.1-0.5-0.1-0.5c0-0.3-0.1-0.5-0.1-0.6c0-0.2,0.1-0.5,0.2-0.8
						c0.1-0.3,0.3-0.5,0.5-0.7c0,0.2,0.1,0.7,0.4,1.7c0.3,1.1,0.4,2,0.5,2.6C116.5,22.2,116.6,22.9,116.6,23.2z M108.4,22.9
						l-0.2-1.2c-0.6,0.2-1.1,0.4-1.4,0.7c-0.4,0.2-0.7,0.6-0.9,1c0.2,0.1,0.3,0.1,0.5,0.1s0.5,0.1,0.8,0.1c0.2,0,0.4-0.1,0.6-0.2
						C108,23.3,108.2,23.1,108.4,22.9z M113.6,14.4c0,0.5-0.1,0.9-0.3,1.3c-0.2,0.4-0.4,0.6-0.7,0.6c-0.2,0-0.3,0-0.4-0.1
						c-0.1,0-0.3-0.1-0.4-0.2c-0.1,0.2-0.2,0.4-0.4,0.6c-0.2,0.2-0.5,0.3-0.7,0.3c-0.3,0-0.5-0.1-0.7-0.3c-0.1-0.2-0.2-0.4-0.2-0.8
						c0-0.1,0-0.3,0-0.4c0-0.2,0-0.3,0.1-0.4l0.3-0.1c0,0.3,0.1,0.6,0.2,0.7c0.1,0.1,0.3,0.2,0.5,0.2c0.1,0,0.3-0.1,0.5-0.4
						s0.3-0.6,0.3-0.9l0.2-0.1c0.1,0.3,0.1,0.4,0.2,0.5c0.1,0.1,0.3,0.2,0.5,0.2c0.2,0,0.4-0.1,0.5-0.4c0.1-0.2,0.2-0.4,0.2-0.7
						l0.3-0.1C113.6,14.1,113.6,14.2,113.6,14.4z M111.7,13.9l-0.2,0.1c-0.2-0.4-0.4-0.8-0.8-1.2c-0.1-0.1-0.3-0.3-0.7-0.6
						c0.1-0.3,0.2-0.4,0.5-0.4c0.3,0,0.5,0.1,0.6,0.4c0.2,0.4,0.3,0.6,0.4,0.7C111.6,13.1,111.6,13.5,111.7,13.9z M119.8,22.4
						c0,0.6-0.1,1.1-0.3,1.6c-0.1,0.3-0.3,0.7-0.7,1.3l-0.2-0.1c0-0.2,0-0.4,0.1-0.7c0-0.3,0-0.4,0-0.5c0-0.7-0.1-1.7-0.2-3.1
						c-0.1-1.3-0.3-2.7-0.4-4.1c-0.1-0.9-0.2-1.7-0.3-2.6c0.1-0.3,0.3-0.6,0.5-1c0.2-0.4,0.3-0.7,0.5-1c0.1,0.8,0.3,1.9,0.4,3.3
						c0.2,1.4,0.3,2.6,0.4,3.8C119.8,20.7,119.8,21.7,119.8,22.4z"/>
					<path d="M132.2,14.7c0,0.3-0.2,0.6-0.5,1c-0.6,0.2-1.6,0.7-3,1.2c0-0.3,0.2-0.6,0.5-0.9C129.6,15.8,130.6,15.3,132.2,14.7z"/>
					<path d="M134,25.1h-1.3c-1.2,0-2.2,0.1-3,0.3c-1.1,0.3-1.7,0.7-1.7,1.2c0,0.5,0.1,1,0.2,1.5c0.2,0.5,0.3,1.1,0.5,1.6
						c0.2,0.5,0.2,1,0.2,1.5c0,0.3,0,0.5-0.1,0.7s-0.1,0.5-0.2,0.9c-0.2-0.6-0.4-1.2-0.5-1.7c-0.3-1.1-0.6-1.9-0.7-2.5
						c-0.3-0.9-0.4-1.4-0.4-1.6c0-0.9,0.2-1.6,0.6-2.1c0.4-0.5,1-0.8,1.7-1.1c0.6-0.2,1.5-0.3,2.8-0.5c-0.4-0.4-0.7-0.7-0.8-0.8
						c-0.4-0.3-0.7-0.4-1.1-0.4c-0.2,0-0.5,0.1-0.7,0.2c-0.2,0.1-0.4,0.3-0.6,0.6l-0.5-0.3c0.2-0.5,0.4-0.9,0.7-1.3
						c0.4-0.5,1-0.8,1.6-0.8c0.4,0,0.9,0.2,1.3,0.5c0.4,0.3,0.7,0.6,1.1,1.1c0.2,0.2,0.5,0.6,0.8,1.2V25.1z"/>
					<path d="M140.5,12.6c0,0.3-0.2,0.6-0.5,1c-0.6,0.2-1.6,0.7-3,1.2c0-0.3,0.2-0.6,0.5-0.9C137.9,13.7,139,13.2,140.5,12.6z"/>
					<path d="M145.4,25.1h-0.8c-0.4,0-0.8-0.1-1.2-0.2c-0.3-0.1-0.6-0.3-0.9-0.5c-0.3,0.3-0.6,0.4-0.9,0.5c-0.4,0.1-0.8,0.2-1.5,0.2
						h-0.7c-0.4,0-0.7-0.1-1.1-0.2c-0.2-0.1-0.5-0.2-0.9-0.5c-0.3,0.3-0.6,0.4-0.9,0.5s-0.7,0.1-1.4,0.1h-2v-1.8h2
						c0.6,0,1,0,1.2-0.1c0.4-0.2,0.6-0.5,0.6-1c0-0.2,0-0.4,0-0.6s-0.1-0.4-0.1-0.7l0.4-0.6c0.2,0.6,0.4,1.1,0.5,1.4
						c0.2,0.5,0.5,0.9,0.7,1.2c0.3,0.3,0.7,0.5,1.2,0.5h0.7c0.5,0,0.9-0.1,1.2-0.2c0.3-0.2,0.4-0.5,0.4-0.9c0-0.2,0-0.4,0-0.6
						c0-0.2-0.1-0.4-0.1-0.7l0.4-0.6l0.2,1c0.2,0.8,0.4,1.3,0.7,1.6c0.2,0.3,0.6,0.4,1,0.4c0.2,0,0.3-0.1,0.5-0.2
						c0.1-0.1,0.2-0.3,0.2-0.4c0-0.4-0.1-0.8-0.4-1.2c0-0.1-0.2-0.3-0.5-0.7l0.7-1.1c0.3,0.4,0.5,0.8,0.6,1.1
						c0.2,0.5,0.2,1.1,0.2,1.9V25.1z"/>
					<path d="M150.3,9.5c0,0.3-0.2,0.6-0.5,1c-0.6,0.2-1.6,0.7-3,1.2c0-0.3,0.2-0.6,0.5-0.9C147.8,10.5,148.8,10.1,150.3,9.5z"/>
					<path d="M151.2,25.1h-6.5v-1.8h5.6c0-0.6-0.1-1.2-0.2-1.8c-0.4,0.1-0.6,0.2-0.8,0.3c-0.3,0.1-0.6,0.1-0.9,0.1
						c-0.5,0-0.9-0.1-1.3-0.4c-0.4-0.3-0.6-0.7-0.6-1.3c0-1,0.2-1.8,0.5-2.6c0.4-0.8,0.9-1.2,1.5-1.2c0.9,0,1.5,0.7,2,2
						c0.4,1.1,0.6,2.4,0.6,3.9V25.1z M148.4,14.1l-0.8,1.5l-1.7-0.9l0.8-1.5L148.4,14.1z M149.4,19.6c-0.1-0.3-0.3-0.5-0.5-0.8
						c-0.3-0.4-0.6-0.5-0.8-0.5c-0.2,0-0.3,0.1-0.5,0.2c-0.1,0.2-0.2,0.3-0.2,0.6c0,0.6,0.3,0.8,0.9,0.8c0.2,0,0.3,0,0.5-0.1
						C149.1,19.8,149.3,19.7,149.4,19.6z M150.8,13.1l-0.8,1.5l-1.7-0.9l0.8-1.5L150.8,13.1z"/>
					<path d="M162.1,25.1h-1.5c-0.5,0-0.9-0.2-1.1-0.6c-0.3-0.3-0.4-0.8-0.6-1.5c-0.1-0.7-0.2-1.5-0.3-2.5c0-0.8-0.1-1.6-0.1-2.4
						c0-0.8-0.1-1.5-0.2-1.9c-0.1-0.4-0.2-0.8-0.3-1.1c-0.2-0.3-0.4-0.6-0.6-0.9l1.3-2c0.3,0.8,0.5,1.8,0.6,3
						c0.1,0.7,0.1,2.5,0.2,5.2c0.1,1.2,0.3,2,0.5,2.4c0.2,0.3,0.4,0.4,0.6,0.4h1.5V25.1z"/>
					<path d="M170.6,25.1h-1.1c-0.5,0-1-0.1-1.6-0.3c-0.7-0.2-1.3-0.6-1.8-1c-0.4,0.5-0.8,0.8-1.2,1c-0.4,0.2-1,0.3-1.9,0.3h-1.6
						v-1.8h1.6c0.6,0,1.2-0.2,1.7-0.5c0.4-0.3,0.7-0.6,1.1-1.1c0.4-0.6,1-1.2,1.6-1.6c0.6-0.4,1.1-0.7,1.5-0.8
						c0.5,0.7,0.9,1.4,1.2,2c0.4,0.8,0.6,1.4,0.6,1.9V25.1z M169.3,23c-0.1-0.4-0.2-0.8-0.4-1.2c-0.2-0.3-0.4-0.7-0.6-1
						c-0.3,0.1-0.6,0.2-0.9,0.5c-0.2,0.1-0.3,0.4-0.5,0.7c0.3,0.3,0.6,0.5,1.1,0.7c0.5,0.2,0.9,0.4,1.3,0.4L169.3,23z"/>
					<path d="M175.1,31.6c0,0.3-0.2,0.7-0.5,1c-0.6,0.2-1.6,0.6-3,1.2c0-0.3,0.2-0.6,0.5-0.9C172.5,32.7,173.5,32.2,175.1,31.6z"/>
					<path d="M175.8,25.1h-6v-1.8h5.2c0-0.8-0.1-1.5-0.3-1.9c-0.1-0.3-0.5-0.7-1-1.3l0.8-1.7c0.5,0.6,0.8,1.1,0.9,1.5
						c0.2,0.5,0.3,1.4,0.3,2.7V25.1z M174.7,27.7l-0.8,1.5l-1.7-0.9l0.8-1.5L174.7,27.7z"/>
					<path class="st0" d="M189.3,12.6c0,0.3-0.2,0.6-0.5,1c-0.6,0.2-1.6,0.7-3,1.2c0-0.3,0.2-0.6,0.5-0.9
						C186.8,13.7,187.8,13.2,189.3,12.6z"/>
					<path class="st0" d="M205.4,25.1h-12.5c-0.2,1.5-0.7,2.5-1.5,3.3c-1,0.9-2.5,1.4-4.6,1.4c-1.4,0-2.5-0.2-3.2-0.7
						c-0.8-0.5-1.2-1.4-1.2-2.5c0-0.6,0.1-1.2,0.2-1.8c0.1-0.6,0.3-1.2,0.6-1.9c0.2-0.4,0.4-1,0.8-1.7l0.4,0.2c-0.5,1-0.8,1.8-1,2.4
						c-0.2,0.6-0.2,1.1-0.2,1.6c0,0.9,0.3,1.5,0.9,2s1.5,0.7,2.7,0.7c1.3,0,2.5-0.2,3.6-0.7c1.3-0.6,2-1.4,2-2.4
						c0-0.7-0.1-1.4-0.4-2c-0.2-0.5-0.5-1-0.9-1.4l0.9-2.2c0.4,0.6,0.6,1.1,0.7,1.5c0.2,0.6,0.3,1.5,0.3,2.6h0.2
						c0.8,0,1.6-0.1,2.3-0.4c0.6-0.2,1.3-0.6,1.9-1.1c1-0.7,1.7-1.1,1.9-1.3c0.6-0.4,1.1-0.6,1.5-0.8c0.5-0.2,1.1-0.3,1.7-0.3
						c1,0,1.7,0.3,2.2,0.8c0.4,0.5,0.7,1.2,0.7,2.2V25.1z M198.4,16.4l-0.8,1.5l-1.7-0.9l0.8-1.5L198.4,16.4z M203.7,22.5
						c0-0.3-0.2-0.6-0.6-0.8c-0.4-0.2-0.9-0.3-1.5-0.3c-0.5,0-1.1,0.1-1.7,0.3c-0.4,0.2-1,0.4-1.7,0.8c-0.5,0.3-1,0.5-1.5,0.8h4.8
						c0.7,0,1.2-0.1,1.6-0.2S203.7,22.7,203.7,22.5z"/>
					<path class="st0" d="M212.2,13.3c0,0.4-0.2,0.8-0.5,1.2c-0.3,0.3-0.7,0.5-1.2,0.5c-0.4,0-0.7-0.1-0.9-0.3
						c-0.2-0.2-0.3-0.5-0.3-0.9c0-0.5,0.1-1,0.4-1.4c0.3-0.4,0.6-0.6,1-0.6c0.4,0,0.7,0.2,1,0.5C212,12.5,212.2,12.8,212.2,13.3z
						 M211.5,13.5c0-0.2-0.1-0.4-0.4-0.7s-0.5-0.4-0.7-0.4c-0.2,0-0.3,0.1-0.5,0.2s-0.2,0.3-0.2,0.5c0,0.2,0.1,0.4,0.3,0.5
						c0.2,0.1,0.4,0.1,0.8,0.1c0.2,0,0.3,0,0.4-0.1S211.5,13.7,211.5,13.5z"/>
					<path class="st0" d="M215.9,25.1c0,0.8-0.3,1.6-1,2.4c-0.6,0.7-1.3,1.4-2.1,1.9c-0.8,0.5-1.5,0.8-2,0.8c-0.5,0-1-0.1-1.6-0.2
						c-0.4-0.1-0.9-0.3-1.5-0.5c-0.5-0.2-1-0.4-1.5-0.6l0.2-0.4c0.5,0.1,0.9,0.2,1.4,0.3s1,0.1,1.4,0.1c0.9,0,1.8-0.3,2.8-0.9
						c0.9-0.5,1.6-1.2,2.3-2c0.6-0.8,0.9-1.5,0.9-2.2c0-0.6-0.2-1.1-0.5-1.7c-0.3-0.5-0.6-1-1.1-1.5l0.6-1.7c0.6,0.5,1,1.1,1.3,1.6
						c0.3,0.6,0.5,1.3,0.5,2V25.1z"/>
					<path class="st0" d="M219.5,22.4c0,0.6-0.1,1.1-0.3,1.6c-0.1,0.3-0.3,0.7-0.7,1.3l-0.2-0.1c0-0.2,0-0.4,0.1-0.7
						c0-0.3,0-0.4,0-0.5c0-0.7-0.1-1.7-0.2-3.1c-0.1-1.3-0.3-2.7-0.4-4.1c-0.1-0.9-0.2-1.7-0.3-2.6c0.1-0.3,0.3-0.6,0.5-1
						c0.2-0.4,0.3-0.7,0.5-1c0.1,0.8,0.3,1.9,0.4,3.3s0.3,2.6,0.4,3.8C219.4,20.7,219.5,21.7,219.5,22.4z"/>
				</g>
			</g>
		</g>
	</g>
	<rect class="st1" width="300.3" height="39.1"/>
</g>
</svg>
