<?xml version="1.0" encoding="utf-8"?>
<!-- Generator: Adobe Illustrator 19.2.0, SVG Export Plug-In . SVG Version: 6.00 Build 0)  -->
<svg version="1.1" id="Layer_1" xmlns="http://www.w3.org/2000/svg" xmlns:xlink="http://www.w3.org/1999/xlink" x="0px" y="0px"
	 viewBox="0 0 218.4 37" style="enable-background:new 0 0 218.4 37;" xml:space="preserve">
<style type="text/css">
	.st0{fill:#BA0017;}
	.st1{fill:none;}
</style>
<g>
	<g>
		<g>
			<g>
				<g>
					<path d="M53.8,17.4c-0.3,0.1-0.6,0.2-0.9,0.4c-0.3,0.1-0.6,0.3-0.9,0.4c-0.3,0.1-0.6,0.2-0.8,0.4c-0.3,0.1-0.5,0.2-0.6,0.3
						c0,0-0.1,0-0.1,0c0,0,0,0,0-0.1c0,0,0-0.1,0.1-0.2c0-0.1,0.1-0.2,0.1-0.2c0-0.1,0.1-0.2,0.1-0.2c0-0.1,0.1-0.1,0.1-0.1
						c0-0.1,0.1-0.1,0.2-0.1l3.1-1.3c0.1,0,0.1,0,0.1,0.1c0,0,0,0.1-0.1,0.2s-0.1,0.1-0.1,0.2c0,0.1-0.1,0.1-0.1,0.2
						s-0.1,0.1-0.1,0.2C53.9,17.4,53.9,17.4,53.8,17.4z"/>
					<path d="M53.2,23.2C53.2,23.2,53.3,23.2,53.2,23.2c0.1,0,0.1,0,0.2,0c0.2,0.2,0.3,0.4,0.5,0.5c0.2,0.1,0.4,0.2,0.6,0.3
						s0.4,0.1,0.6,0.1s0.4,0,0.5,0h0.1c0.2,0,0.3,0.1,0.4,0.2s0.1,0.3,0.1,0.4s0,0.3-0.1,0.4s-0.2,0.2-0.4,0.2h-0.1c0,0-0.1,0-0.2,0
						s-0.2,0-0.3,0c-0.1,0-0.2,0-0.3,0s-0.2,0-0.3,0c-0.1,0.4-0.2,0.7-0.3,1.1S54,27,53.9,27.3c-0.1,0.3-0.2,0.5-0.3,0.6
						s-0.2,0.3-0.2,0.3c-0.2,0.3-0.4,0.5-0.6,0.7c-0.2,0.2-0.5,0.3-0.7,0.5c-0.3,0.1-0.5,0.2-0.8,0.3c-0.3,0.1-0.5,0.1-0.8,0.1
						c-0.4,0-0.8,0-1.3,0c-0.5-0.1-0.9-0.2-1.4-0.4c-0.1,0-0.1-0.1-0.1-0.1s0-0.1,0-0.1c0,0,0.1-0.1,0.2-0.1s0.2,0,0.3,0
						c0.7,0.1,1.3,0,1.8-0.1s1.1-0.3,1.7-0.6c0.7-0.4,1.2-0.8,1.6-1.3s0.7-1.1,0.8-1.7c-0.2-0.1-0.4-0.2-0.6-0.4s-0.4-0.3-0.5-0.5
						c0-0.2,0.1-0.4,0.1-0.6C53.1,23.6,53.2,23.4,53.2,23.2z"/>
					<path d="M60.6,15.2c-0.3,0.1-0.6,0.2-0.9,0.4c-0.3,0.1-0.6,0.3-0.9,0.4c-0.3,0.1-0.6,0.2-0.8,0.4c-0.3,0.1-0.5,0.2-0.6,0.3
						c0,0-0.1,0-0.1,0c0,0,0,0,0-0.1c0,0,0-0.1,0.1-0.2c0-0.1,0.1-0.2,0.1-0.2c0-0.1,0.1-0.2,0.1-0.2c0-0.1,0.1-0.1,0.1-0.1
						c0-0.1,0.1-0.1,0.2-0.1l3.1-1.3c0.1,0,0.1,0,0.1,0.1c0,0,0,0.1-0.1,0.2s-0.1,0.1-0.1,0.2c0,0.1-0.1,0.1-0.1,0.2
						s-0.1,0.1-0.1,0.2C60.7,15.1,60.7,15.1,60.6,15.2z"/>
					<path d="M60.4,23.2c-0.1-0.1-0.3-0.2-0.5-0.3c-0.2-0.1-0.4-0.2-0.6-0.3c-0.2-0.1-0.4-0.2-0.7-0.2c-0.2-0.1-0.4-0.1-0.6-0.1
						c-0.3,0-0.6,0-0.9,0s-0.6,0.2-0.8,0.4c0,0-0.1,0-0.1,0s0,0,0-0.1c0-0.1,0-0.1,0-0.2c0-0.1,0-0.2,0.1-0.2c0-0.1,0.1-0.2,0.1-0.2
						c0-0.1,0.1-0.1,0.1-0.2c0.1-0.1,0.2-0.3,0.3-0.4c0.1-0.1,0.3-0.2,0.4-0.3c0.2-0.1,0.3-0.1,0.5-0.2s0.3,0,0.5,0
						c0.3,0,0.6,0.1,0.9,0.2c0.3,0.1,0.6,0.2,0.9,0.4c0.3,0.1,0.6,0.3,0.9,0.4c0.3,0.1,0.6,0.3,0.9,0.4c0.5,0.2,0.9,0.3,1.5,0.3
						c0.5,0.1,1,0.1,1.5,0.1c0.1,0,0.1,0,0.1,0.1c-0.1,0.2-0.2,0.4-0.3,0.6c-0.1,0.2-0.2,0.4-0.3,0.6c-0.3-0.1-0.6-0.1-0.9-0.2
						c-0.3,0-0.7,0-1.1,0c-0.4,0-0.8,0.1-1.2,0.3c-0.4,0.2-0.9,0.3-1.4,0.5c-0.3,0.1-0.6,0.2-0.8,0.3c-0.3,0.1-0.6,0.2-0.9,0.2
						c-0.3,0.1-0.7,0.1-1,0.2s-0.7,0.1-1.1,0.1h-0.1c-0.2,0-0.3-0.1-0.4-0.2S55,24.9,55,24.8s0-0.3,0.1-0.4s0.2-0.2,0.4-0.2h0.1
						c0.2,0,0.5,0,0.8,0s0.7-0.1,1.1-0.1c0.4-0.1,0.9-0.2,1.4-0.3C59.4,23.6,59.9,23.4,60.4,23.2z M59.2,17.8l1,0.8c0,0,0,0.1,0,0.1
						l-0.7,0.8c0,0.1-0.1,0.1-0.1,0l-1-0.8c0,0,0-0.1,0-0.1l0.7-0.8C59.1,17.7,59.1,17.7,59.2,17.8z"/>
					<path d="M68.9,12c0,0,0,0.1,0,0.1c0,0.1,0,0.1,0,0.2s0,0.1-0.1,0.2c0,0.1,0,0.1-0.1,0.1c-0.1,0.2-0.3,0.4-0.5,0.5
						s-0.4,0.3-0.6,0.4c-0.2,0.1-0.4,0.2-0.6,0.2c-0.2,0-0.4,0.1-0.7,0.1c-0.3,0-0.6,0-0.9-0.1c-0.3-0.1-0.5-0.2-0.8-0.3
						c0,0-0.1,0-0.1,0c0,0,0,0.1-0.1,0.2c0,0.1-0.1,0.1-0.1,0.2c-0.1,0.1-0.1,0.1-0.2,0.2c-0.1,0-0.1,0.1-0.1,0.1c0,0-0.1,0-0.1-0.1
						c0-0.1,0-0.1,0-0.2c0-0.1,0-0.2,0.1-0.3s0.1-0.3,0.1-0.4s0.1-0.3,0.2-0.4c0.1-0.1,0.1-0.2,0.2-0.3c0.1,0,0.1-0.1,0.2,0
						c0.3,0.1,0.6,0.2,0.9,0.3c0.3,0.1,0.7,0.1,1,0.1c0.4,0,0.8-0.1,1.1-0.2c0.4-0.1,0.7-0.3,1-0.6C68.8,12,68.9,12,68.9,12z
						 M66.2,14.6C66.2,14.6,66.3,14.6,66.2,14.6c0.1,0.1,0.1,0.1,0.1,0.1c0,0,0,0.1,0,0.1c0,0,0,0.1,0,0.1c0,0.2,0,0.4,0,0.6
						c0,0.2,0,0.4,0.1,0.6c0.1,0.5,0.1,1,0.2,1.5c0.1,0.5,0.1,1.1,0.2,1.6c0.1,0.5,0.1,1.1,0.2,1.6c0.1,0.5,0.1,1,0.2,1.5
						c0,0.2,0,0.4,0,0.7s0,0.5,0,0.8c0,0.3,0,0.5-0.1,0.8c0,0.3-0.1,0.5-0.2,0.6c0,0.1-0.1,0.2-0.1,0.2c0,0-0.1,0-0.1-0.1
						c-0.1-1-0.2-1.9-0.3-3c-0.1-1-0.3-2.1-0.4-3.1s-0.3-2.1-0.4-3.1c0-0.3,0.1-0.5,0.2-0.8c0.1-0.2,0.1-0.3,0.2-0.4
						C66.1,14.8,66.1,14.7,66.2,14.6z"/>
					<path d="M71.8,15.8c0-0.2,0.1-0.4,0.2-0.6c0.1-0.2,0.2-0.4,0.2-0.6c0,0,0,0,0.1,0c0,0,0.1,0,0.1,0c0.1,0.3,0.1,0.6,0.2,0.9
						c0.1,0.3,0.1,0.7,0.2,1c0.1,0.4,0.1,0.8,0.2,1.2c0.1,0.4,0.1,0.9,0.2,1.5c0,0.4,0.1,0.8,0.1,1.1c0,0.3,0.1,0.6,0.1,0.8
						c0,0.2,0.1,0.5,0.1,0.7c0,0.2,0.1,0.4,0.1,0.6c0,0.3,0.1,0.5,0.2,0.7s0.2,0.4,0.4,0.5c0.1,0.1,0.3,0.2,0.5,0.3
						c0.2,0.1,0.4,0.1,0.7,0.1h0.1c0.2,0,0.3,0.1,0.4,0.2c0.1,0.1,0.1,0.3,0.1,0.4s0,0.3-0.1,0.4c-0.1,0.1-0.2,0.2-0.4,0.2h-0.1
						c-0.4,0-0.8-0.1-1.1-0.2c-0.3-0.1-0.5-0.3-0.7-0.6c-0.2-0.2-0.3-0.5-0.4-0.8c-0.1-0.3-0.2-0.6-0.2-1c0-0.3-0.1-0.6-0.1-1
						s-0.1-0.7-0.1-1c0-0.3-0.1-0.6-0.1-0.9c0-0.3-0.1-0.6-0.1-0.8c-0.1-0.5-0.1-1-0.2-1.5c-0.1-0.5-0.2-1-0.4-1.6
						C71.8,16,71.8,15.9,71.8,15.8C71.8,15.9,71.8,15.9,71.8,15.8z"/>
					<path d="M79.5,15.8c-0.3,0.1-0.6,0.2-0.9,0.4c-0.3,0.1-0.6,0.3-0.9,0.4c-0.3,0.1-0.5,0.3-0.8,0.4c-0.2,0.1-0.4,0.2-0.6,0.3
						c-0.1,0-0.1,0-0.1-0.1c0,0,0-0.1,0.1-0.2c0-0.1,0.1-0.1,0.1-0.2c0-0.1,0.1-0.1,0.1-0.2c0-0.1,0.1-0.1,0.1-0.1
						c0-0.1,0.1-0.1,0.2-0.1l3-1.4c0.1,0,0.1,0,0.1,0.1c0,0.1-0.1,0.2-0.2,0.3s-0.1,0.2-0.2,0.3C79.6,15.7,79.6,15.7,79.5,15.8z
						 M79.6,14.3c-0.3,0.1-0.6,0.2-0.9,0.4c-0.3,0.1-0.6,0.3-0.9,0.4c-0.3,0.1-0.5,0.3-0.8,0.4s-0.4,0.2-0.6,0.3
						c-0.1,0-0.1,0-0.1-0.1c0,0,0-0.1,0.1-0.2c0-0.1,0.1-0.1,0.1-0.2c0-0.1,0.1-0.1,0.1-0.2c0-0.1,0.1-0.1,0.1-0.1
						c0-0.1,0.1-0.1,0.2-0.1l3-1.4c0.1,0,0.1,0,0.1,0.1c0,0.1-0.1,0.2-0.2,0.3s-0.1,0.2-0.2,0.3C79.7,14.2,79.7,14.3,79.6,14.3z"/>
					<path d="M79.2,20.3c0.1,0,0.1,0,0.2,0.1c0.1,0.1,0.1,0.2,0.1,0.3c0,0.1,0.1,0.2,0.1,0.4s0,0.3,0.1,0.4c0,0.1,0,0.2,0,0.4
						c0,0.1,0,0.2,0,0.3c0,0.5-0.1,0.9-0.3,1.2c-0.1,0.4-0.4,0.7-0.7,0.9c0.2,0,0.4,0,0.7-0.1c0.2,0,0.5,0,0.7,0c0.2,0,0.5,0,0.7,0
						c0.2,0,0.4,0,0.6,0h0.1c0.2,0,0.3,0.1,0.4,0.2s0.1,0.3,0.1,0.4s0,0.3-0.1,0.4s-0.2,0.2-0.4,0.2h-0.1l-1.5,0
						c0.2,0.2,0.3,0.4,0.4,0.6c0.1,0.2,0.1,0.4,0.1,0.7c0,0.2,0,0.3-0.1,0.5c0,0.2-0.1,0.3-0.2,0.5c-0.1,0.2-0.2,0.3-0.3,0.4
						c-0.1,0.1-0.3,0.2-0.4,0.2c-0.4,0.1-0.7,0-1-0.1s-0.6-0.3-0.8-0.6c-0.1-0.1-0.2-0.3-0.3-0.4c-0.1-0.2-0.2-0.3-0.3-0.5
						c-0.1-0.2-0.1-0.3-0.2-0.5c-0.1-0.2-0.1-0.3-0.1-0.5c-0.1,0-0.2,0-0.2,0c-0.1,0-0.2,0-0.2,0c-0.1,0-0.1,0-0.2,0
						c-0.1,0-0.1,0-0.1,0c0-0.1,0-0.1,0-0.2c0-0.1,0.1-0.1,0-0.2l-0.8,0h-0.1c-0.2,0-0.3-0.1-0.4-0.2c-0.1-0.1-0.1-0.3-0.1-0.4
						s0.1-0.3,0.1-0.4c0.1-0.1,0.2-0.2,0.4-0.2h0.1c0.3,0,0.6,0,0.9,0c0.3,0,0.5,0,0.7,0c0.1-0.4,0.2-0.8,0.4-1.2s0.3-0.8,0.5-1.1
						c0.1-0.1,0.2-0.2,0.3-0.4c0.1-0.2,0.2-0.3,0.4-0.5c0.1-0.2,0.3-0.3,0.4-0.4C79,20.3,79.1,20.3,79.2,20.3z M77.3,24
						c0.1,0,0.3-0.1,0.5-0.2s0.4-0.2,0.6-0.3s0.4-0.2,0.5-0.3s0.3-0.2,0.3-0.3c0-0.2,0-0.4-0.1-0.6S79,21.9,79,21.8
						c0,0-0.1-0.1-0.1-0.1c0,0-0.1,0-0.1,0c-0.2,0-0.3,0.1-0.5,0.3s-0.3,0.4-0.4,0.6s-0.2,0.5-0.3,0.8C77.4,23.6,77.3,23.8,77.3,24z
						 M77.4,25.6c0.1,0.2,0.2,0.4,0.3,0.5c0.1,0.2,0.2,0.3,0.3,0.4c0.1,0.1,0.3,0.2,0.4,0.3c0.2,0.1,0.4,0.2,0.6,0.2
						c0.1,0,0.1,0,0.2,0c0.1,0,0.2,0,0.3-0.1c0.1,0,0.2-0.1,0.2-0.1s0.1-0.1,0.1-0.2c0-0.1,0-0.2-0.1-0.3c-0.1-0.1-0.2-0.2-0.4-0.3
						c-0.1-0.1-0.3-0.2-0.5-0.2s-0.4-0.1-0.5-0.2c-0.2-0.1-0.4-0.1-0.5-0.1C77.6,25.6,77.5,25.6,77.4,25.6z"/>
					<path d="M81.3,7C81.4,7,81.4,7,81.3,7c0.4,0.5,0.6,0.9,0.7,1.4c0.1,0.5,0.2,1,0.1,1.5c0,0.1,0,0.3-0.1,0.4s-0.1,0.3-0.1,0.4
						c-0.1,0.1-0.1,0.2-0.2,0.3c-0.1,0.1-0.1,0.1-0.2,0.1c0,0-0.1,0-0.1-0.1c0,0,0-0.1,0-0.2c0-0.1,0-0.1,0-0.2c0-0.1,0-0.1,0-0.2
						c0-0.2,0.1-0.5,0.1-0.7s0-0.5-0.1-0.7c-0.1-0.3-0.1-0.5-0.2-0.7C81.2,8.2,81,8,80.9,7.8c0,0,0-0.1,0.1-0.2
						c0-0.1,0.1-0.2,0.1-0.3c0.1-0.1,0.1-0.2,0.2-0.2S81.3,7,81.3,7z"/>
					<path d="M83.7,12.5c-0.3,0.1-0.6,0.2-0.9,0.4c-0.3,0.1-0.6,0.3-0.9,0.4c-0.3,0.1-0.6,0.2-0.8,0.4c-0.3,0.1-0.5,0.2-0.6,0.3
						c0,0-0.1,0-0.1,0c0,0,0,0,0-0.1c0,0,0-0.1,0.1-0.2c0-0.1,0.1-0.2,0.1-0.2c0-0.1,0.1-0.2,0.1-0.2c0-0.1,0.1-0.1,0.1-0.1
						c0-0.1,0.1-0.1,0.2-0.1l3.1-1.3c0.1,0,0.1,0,0.1,0.1c0,0,0,0.1-0.1,0.2S84,12,84,12c0,0.1-0.1,0.1-0.1,0.2s-0.1,0.1-0.1,0.2
						C83.8,12.5,83.8,12.5,83.7,12.5z"/>
					<path d="M82.2,14.4C82.2,14.3,82.2,14.3,82.2,14.4c0.1-0.1,0.1-0.1,0.1,0c0,0.1,0.1,0.3,0.1,0.4c0.1,0.1,0.1,0.3,0.2,0.4
						s0.2,0.3,0.3,0.4c0.1,0.1,0.2,0.2,0.3,0.3c-0.1,0.1-0.1,0.2-0.2,0.3c-0.1,0.1-0.1,0.2-0.1,0.3c0,0.1-0.1,0.2-0.1,0.2
						c0,0.1,0,0.2,0,0.2c0.1,0.5,0.1,1,0.2,1.6c0.1,0.5,0.2,1.1,0.2,1.6c0.1,0.5,0.1,1,0.2,1.6s0.1,1,0.1,1.6c0,0.2,0,0.4,0,0.5
						s-0.1,0.4-0.1,0.5c-0.1,0.2-0.1,0.3-0.2,0.5c-0.1,0.1-0.2,0.3-0.3,0.4c-0.2,0.1-0.4,0.2-0.6,0.3c-0.2,0.1-0.5,0.1-0.8,0.1h-0.1
						c-0.2,0-0.3-0.1-0.4-0.2c-0.1-0.1-0.1-0.3-0.1-0.4s0-0.3,0.1-0.4c0.1-0.1,0.2-0.2,0.4-0.2h0.1c0.2,0,0.4,0,0.5,0
						c0.2,0,0.3,0,0.5-0.1c0.1,0,0.3-0.1,0.4-0.1c0.1-0.1,0.2-0.1,0.2-0.2c-0.1-1.2-0.2-2.3-0.4-3.4c-0.2-1.1-0.3-2.2-0.5-3.4
						c0-0.2-0.1-0.5-0.1-0.7c0-0.2-0.1-0.4-0.2-0.6c0-0.1-0.1-0.1-0.1-0.1s0-0.1,0-0.1c0.1-0.2,0.2-0.3,0.3-0.5S82.1,14.5,82.2,14.4
						z"/>
					<path d="M87.7,29.5c-0.6,0.2-1.1,0.4-1.6,0.6c-0.5,0.2-1,0.4-1.5,0.6c-0.1,0-0.1,0-0.1-0.1c0-0.1,0.1-0.2,0.2-0.3
						s0.1-0.2,0.2-0.3c0,0,0.1-0.1,0.1-0.1c0.1-0.1,0.3-0.1,0.6-0.2s0.5-0.2,0.8-0.3s0.6-0.2,0.9-0.3c0.3-0.1,0.6-0.2,0.9-0.3
						c0.1,0,0.1,0,0.1,0c0,0-0.1,0.1-0.1,0.2S88,29.1,88,29.1c0,0.1-0.1,0.1-0.1,0.2c0,0.1-0.1,0.1-0.1,0.1
						C87.8,29.4,87.8,29.5,87.7,29.5C87.8,29.5,87.7,29.5,87.7,29.5z"/>
					<path d="M84.9,27.7c0,0,0.1,0,0.1-0.1c0.1,0,0.1-0.1,0.2-0.1c0.1,0,0.1-0.1,0.2-0.1c0.1,0,0.1-0.1,0.2-0.1
						c-0.1-0.1-0.2-0.2-0.3-0.3c-0.1-0.1-0.2-0.2-0.2-0.4c0-0.1,0-0.1,0-0.2c0-0.1,0-0.1,0.1-0.2c0.1-0.1,0.2-0.2,0.3-0.4
						c0.1-0.1,0.2-0.2,0.3-0.3c0.1-0.1,0.3-0.2,0.4-0.2c0.1-0.1,0.3-0.1,0.4-0.1c0.1,0,0.1,0,0.2,0.1c0.1,0,0.1,0.1,0.1,0.1
						c0,0.1,0.1,0.1,0.1,0.2c0,0.1,0.1,0.1,0.1,0.2c0,0.1,0,0.2,0,0.3l-0.1,0.2c-0.1,0.1-0.1,0.2-0.2,0.2c-0.1,0-0.1,0-0.1-0.1
						s0-0.1-0.1-0.2c0-0.1-0.1-0.1-0.2-0.2c-0.1,0-0.1,0-0.2,0c-0.3,0-0.5,0.1-0.7,0.3c0.1,0.2,0.2,0.3,0.3,0.5s0.3,0.2,0.5,0.3
						c0.3,0,0.5,0,0.8,0c0.2,0,0.5-0.1,0.8-0.1c0,0,0,0.1,0,0.1c0,0.1-0.1,0.2-0.1,0.2c0,0.1-0.1,0.2-0.1,0.2c0,0.1-0.1,0.1-0.1,0.1
						c-0.2,0-0.4,0.1-0.7,0.1c-0.2,0-0.5,0.1-0.7,0.2c-0.2,0.1-0.5,0.2-0.8,0.3c-0.3,0.1-0.5,0.2-0.7,0.3c0,0-0.1,0-0.1-0.1
						c0-0.1,0.1-0.2,0.1-0.3C84.8,27.8,84.9,27.7,84.9,27.7z M86,14.6C86,14.6,86,14.7,86,14.6c0.1,0.1,0.1,0.1,0.1,0.1
						c0,0,0,0.1,0,0.1c0,0,0,0.1,0,0.1c0,0.2,0,0.4,0,0.6c0,0.2,0,0.4,0.1,0.5c0.1,0.4,0.1,0.9,0.2,1.4s0.1,0.9,0.2,1.4
						s0.1,1,0.2,1.4c0.1,0.5,0.1,0.9,0.2,1.4c0,0.2,0,0.4,0,0.6c0,0.2,0,0.5,0,0.7c0,0.2,0,0.5-0.1,0.7c0,0.2-0.1,0.4-0.2,0.6
						c0,0.1-0.1,0.2-0.1,0.2c0,0-0.1,0-0.1-0.1c-0.1-0.9-0.2-1.7-0.3-2.6c-0.1-0.9-0.3-1.9-0.4-2.8c-0.1-0.9-0.3-1.9-0.4-2.8
						c0-0.2,0.1-0.5,0.2-0.7c0.1-0.1,0.1-0.3,0.2-0.4C85.8,14.8,85.9,14.7,86,14.6z"/>
					<path d="M91.4,24.4c-0.1,0.2-0.2,0.4-0.4,0.5c-0.1,0.1-0.3,0.2-0.6,0.2c-0.2,0-0.4,0-0.5-0.1c-0.1-0.1-0.2-0.3-0.2-0.5
						c0-0.1,0-0.2,0-0.4c0-0.1,0-0.2,0.1-0.3c0-0.1,0.1-0.2,0.1-0.3c0.1-0.1,0.1-0.1,0.2-0.2c0.1,0,0.1,0,0,0.2c0,0.1,0,0.1-0.1,0.2
						c0,0.1,0,0.2,0,0.2c0,0.1,0,0.2,0,0.2s0.1,0.1,0.1,0.1c0.1,0.1,0.2,0.1,0.2,0.1s0.2,0,0.3-0.1s0.2-0.1,0.3-0.2
						c0.1-0.1,0.1-0.1,0.2-0.2c0.1-0.1,0.1-0.2,0.1-0.3s0-0.2,0.1-0.3c0,0,0-0.1,0-0.1s0-0.1,0-0.1s0-0.1,0.1-0.1c0,0,0.1,0,0.1-0.1
						c0,0,0,0,0,0c0,0,0,0.1,0,0.1c0,0,0,0.1,0,0.1c0,0,0,0.1,0,0.1c0,0.1,0,0.3,0.1,0.4c0,0.1,0.2,0.1,0.3,0.2c0.1,0,0.2,0,0.3,0
						c0.1,0,0.2-0.1,0.3-0.2c0,0,0,0,0-0.1c0,0,0-0.1,0-0.2s0-0.1,0-0.1c0,0,0-0.1,0-0.1c0,0,0-0.1,0-0.1c0-0.1,0-0.1,0.1-0.2
						c0-0.1,0.1-0.1,0.1-0.2c0-0.1,0.1-0.1,0.1-0.1c0.1,0,0.1,0,0.1,0.1c0,0.1,0.1,0.2,0.1,0.3c0,0.1,0,0.3,0,0.4c0,0.1,0,0.2,0,0.3
						c0,0.1-0.1,0.2-0.1,0.3c0,0.1-0.1,0.2-0.2,0.3s-0.1,0.2-0.2,0.2c-0.1,0.1-0.2,0.1-0.3,0.1c-0.2,0-0.4,0-0.5,0
						C91.6,24.7,91.5,24.6,91.4,24.4z"/>
					<path d="M92.9,24c-0.3,0.1-0.6,0.2-0.9,0.4c-0.3,0.1-0.6,0.3-0.9,0.4c-0.3,0.1-0.6,0.2-0.8,0.4c-0.3,0.1-0.5,0.2-0.6,0.3
						c0,0-0.1,0-0.1,0c0,0,0,0,0-0.1c0,0,0-0.1,0.1-0.2c0-0.1,0.1-0.2,0.1-0.2c0-0.1,0.1-0.2,0.1-0.2c0-0.1,0.1-0.1,0.1-0.1
						c0-0.1,0.1-0.1,0.2-0.1l3.1-1.3c0.1,0,0.1,0,0.1,0.1c0,0,0,0.1-0.1,0.2s-0.1,0.1-0.1,0.2c0,0.1-0.1,0.1-0.1,0.2
						S93,23.8,93,23.9C93,23.9,93,23.9,92.9,24z"/>
					<path d="M102.4,25.5c-0.5,0-1-0.1-1.4-0.4s-0.8-0.8-1-1.4c-0.2,0.6-0.5,1.2-0.9,1.5s-0.8,0.6-1.4,0.7c-0.4,0-0.7,0-1-0.2
						s-0.5-0.3-0.7-0.6c-0.2-0.2-0.3-0.5-0.4-0.8c-0.1-0.3-0.1-0.6-0.2-1c-0.2,0.2-0.3,0.5-0.5,0.6c-0.1,0.2-0.3,0.3-0.6,0.4
						c-0.2,0-0.3,0.1-0.5,0.1c-0.2,0-0.4,0-0.6,0c-0.2,0-0.4,0-0.6-0.1c-0.2-0.1-0.4-0.1-0.5-0.2c0-0.2,0-0.5,0.1-0.7
						s0.2-0.5,0.4-0.7c0.2-0.2,0.3-0.4,0.5-0.6c0.2-0.2,0.4-0.3,0.5-0.4c0.3-0.2,0.5-0.3,0.8-0.4c0.3-0.1,0.6-0.2,0.9-0.3
						c0-0.1,0-0.3,0-0.4c0-0.2,0-0.3,0-0.5c0.1-0.2,0.2-0.4,0.3-0.6c0.1-0.2,0.2-0.4,0.3-0.6c0-0.1,0.1-0.1,0.1,0c0,0.5,0,0.9,0,1.3
						c0,0.4,0,0.8,0,1.2c0,0.3,0,0.7,0,1c0,0.4,0.1,0.7,0.2,1c0.1,0.2,0.1,0.4,0.2,0.5s0.2,0.3,0.4,0.4s0.3,0.1,0.5,0.2
						c0.2,0,0.4,0,0.7-0.1c0.2,0,0.4-0.1,0.6-0.2c0.2-0.1,0.4-0.2,0.5-0.4s0.3-0.3,0.4-0.5s0.1-0.3,0.1-0.5c-0.1-0.7-0.2-1.3-0.3-2
						c-0.1-0.7-0.2-1.3-0.3-2c0,0,0-0.1,0-0.2c0-0.1,0.1-0.2,0.1-0.4c0-0.1,0.1-0.3,0.1-0.4c0.1-0.1,0.1-0.2,0.1-0.2
						c0-0.1,0.1-0.1,0.1-0.1c0,0,0.1,0,0.1,0.1c0,0.4,0.1,0.7,0.2,1c0.1,0.3,0.1,0.7,0.2,1.1c0.1,0.4,0.1,0.7,0.2,1.1
						c0,0.3,0.1,0.7,0.2,1c0.1,0.6,0.3,1.1,0.6,1.5s0.7,0.6,1.3,0.7c0.1,0,0.3,0,0.4,0.1c0.2,0,0.3,0,0.5,0c0.1,0,0.3-0.1,0.3-0.1
						c0.1-0.1,0.1-0.2,0.1-0.3c0-0.2-0.1-0.3-0.1-0.5s-0.1-0.4-0.2-0.6s-0.1-0.4-0.2-0.6s-0.1-0.4-0.2-0.6c0-0.1-0.1-0.3-0.2-0.5
						s-0.1-0.4-0.2-0.7c-0.1-0.2-0.1-0.5-0.2-0.7c0-0.2-0.1-0.4-0.1-0.6c0,0,0-0.1,0.1-0.3c0-0.1,0.1-0.3,0.2-0.4
						c0.1-0.2,0.1-0.3,0.2-0.4c0.1-0.1,0.1-0.2,0.1-0.2c0.1,0,0.1,0,0.1,0.1s0,0.1,0,0.1c0.1,0.5,0.2,1,0.3,1.4s0.2,0.9,0.4,1.4
						c0.1,0.5,0.3,0.9,0.4,1.3c0.1,0.4,0.2,0.8,0.3,1.1c0.1,0.3,0.1,0.6,0,1c0,0.3-0.1,0.6-0.3,0.9c-0.2,0.3-0.4,0.5-0.6,0.7
						C103,25.4,102.7,25.5,102.4,25.5z M95.2,21.8C95.2,21.8,95.2,21.8,95.2,21.8C95.2,21.8,95.2,21.8,95.2,21.8
						c-0.3,0.1-0.4,0.2-0.6,0.2c-0.2,0.1-0.4,0.2-0.6,0.2c-0.2,0.1-0.4,0.2-0.5,0.3c-0.2,0.1-0.3,0.2-0.5,0.4c0,0,0,0.1,0,0.1
						c0.1,0.1,0.3,0.1,0.5,0.1c0.2,0,0.4,0,0.7,0c0.2,0,0.4,0,0.6-0.1c0.2,0,0.4-0.1,0.5-0.2L95.2,21.8z M99.4,14.8c0,0-0.1,0-0.1,0
						c0,0,0,0.1-0.1,0.1c0,0,0,0.1,0,0.1s0,0.1,0,0.1c0,0.1,0,0.2-0.1,0.3c0,0.1-0.1,0.2-0.1,0.2c0,0.1-0.1,0.1-0.2,0.2
						c-0.1,0.1-0.2,0.1-0.2,0.1c-0.1,0-0.2,0-0.3,0c-0.1,0-0.2,0-0.2-0.1c0,0-0.1-0.1-0.1-0.1s0-0.1,0-0.2c0-0.1,0-0.1,0-0.2
						c0-0.1,0-0.1,0.1-0.2c0,0,0.1-0.1,0.1-0.1c0,0,0,0,0,0c-0.1,0-0.1,0.1-0.2,0.1c-0.1,0.1-0.1,0.1-0.2,0.2c0,0.1-0.1,0.2-0.1,0.3
						c0,0.1,0,0.2,0,0.3c0,0.2,0.1,0.4,0.2,0.5c0.1,0.1,0.3,0.2,0.4,0.2c0.2,0,0.4-0.1,0.6-0.2c0.1-0.1,0.3-0.3,0.4-0.5
						c0.1,0.1,0.2,0.2,0.3,0.3c0.1,0.1,0.3,0.1,0.5,0.1c0.1,0,0.2,0,0.3-0.1c0.1-0.1,0.2-0.1,0.2-0.2c0.1-0.1,0.1-0.2,0.2-0.3
						c0-0.1,0.1-0.2,0.1-0.3c0-0.1,0-0.2,0-0.3c0-0.1,0-0.2,0-0.3c0-0.1,0-0.2-0.1-0.3s-0.1-0.1-0.1-0.1c0,0,0,0-0.1,0.1
						s-0.1,0.1-0.1,0.2c0,0.1-0.1,0.1-0.1,0.2c0,0.1,0,0.1,0,0.1c0,0,0,0,0,0.1c0,0,0,0.1,0,0.1s0,0.1,0,0.1s0,0.1,0,0.1
						c-0.1,0.1-0.2,0.1-0.3,0.1c-0.1,0-0.2,0-0.3,0c-0.1,0-0.2-0.1-0.3-0.2c0-0.1-0.1-0.2-0.1-0.3c0,0,0,0,0-0.1c0,0,0-0.1,0-0.1
						C99.4,14.9,99.4,14.9,99.4,14.8C99.4,14.9,99.4,14.8,99.4,14.8z M98.8,14.7C98.7,14.7,98.7,14.7,98.8,14.7c0-0.1,0-0.1,0-0.2
						c0,0,0-0.1,0-0.1c0-0.1,0-0.1,0-0.1c0.1-0.5,0.1-0.9,0.1-1.3c-0.1-0.4-0.3-0.8-0.5-1.1c0,0,0-0.1,0.1-0.1
						c0-0.1,0.1-0.1,0.1-0.2c0-0.1,0.1-0.1,0.1-0.2s0.1-0.1,0.1-0.1c0,0,0,0,0.1,0.1c0.2,0.3,0.4,0.7,0.5,1c0.1,0.4,0.1,0.8,0,1.2
						c0,0.1-0.1,0.2-0.1,0.4s-0.1,0.3-0.2,0.4c-0.1,0.1-0.1,0.2-0.2,0.3C98.9,14.7,98.8,14.7,98.8,14.7z"/>
					<path d="M106.3,14.8C106.3,14.8,106.4,14.8,106.3,14.8c0.1,0.1,0.1,0.1,0.1,0.1c0,0,0,0.1,0,0.1c0,0,0,0.1,0,0.1
						c0,0.2,0,0.4,0,0.6s0,0.4,0.1,0.6c0.1,0.5,0.1,1,0.2,1.5c0.1,0.5,0.1,1,0.2,1.6s0.1,1,0.2,1.6s0.1,1,0.2,1.5c0,0.2,0,0.4,0,0.7
						c0,0.3,0,0.5,0,0.8c0,0.3,0,0.5-0.1,0.8c0,0.2-0.1,0.5-0.2,0.6c0,0.1-0.1,0.2-0.1,0.2c0,0-0.1,0-0.1-0.1
						c-0.1-0.9-0.2-1.9-0.3-2.9c-0.1-1-0.3-2-0.4-3.1c-0.1-1-0.3-2-0.4-3c0-0.3,0.1-0.5,0.2-0.8c0.1-0.2,0.1-0.3,0.2-0.4
						C106.2,15,106.2,14.9,106.3,14.8z"/>
					<path d="M116.5,16.2c-0.3,0.1-0.6,0.2-0.9,0.4c-0.3,0.1-0.6,0.3-0.9,0.4c-0.3,0.1-0.6,0.2-0.8,0.4c-0.3,0.1-0.5,0.2-0.6,0.3
						c0,0-0.1,0-0.1,0c0,0,0,0,0-0.1c0,0,0-0.1,0.1-0.2c0-0.1,0.1-0.2,0.1-0.2c0-0.1,0.1-0.2,0.1-0.2c0-0.1,0.1-0.1,0.1-0.1
						c0-0.1,0.1-0.1,0.2-0.1l3.1-1.3c0.1,0,0.1,0,0.1,0.1c0,0,0,0.1-0.1,0.2s-0.1,0.1-0.1,0.2c0,0.1-0.1,0.1-0.1,0.2
						s-0.1,0.1-0.1,0.2C116.6,16.1,116.6,16.2,116.5,16.2z"/>
					<path d="M114.7,23.3c-0.1-0.1-0.2-0.2-0.3-0.2c-0.1-0.1-0.2-0.1-0.4-0.2c-0.1,0-0.3,0-0.4,0c-0.1,0-0.3,0.1-0.4,0.1
						c-0.1,0-0.1,0-0.1,0c0,0-0.1-0.1,0-0.1c0-0.1,0-0.2,0.1-0.3c0-0.1,0.1-0.2,0.1-0.4c0.1-0.1,0.1-0.2,0.2-0.3s0.2-0.2,0.3-0.3
						c0.2-0.2,0.5-0.3,0.8-0.4c0.3-0.1,0.6-0.2,0.9-0.2c0.2,0,0.5,0,0.7,0.1c0.2,0.1,0.5,0.1,0.6,0.3c0.2,0.1,0.3,0.2,0.5,0.4
						s0.2,0.3,0.2,0.5c0,0.2-0.1,0.5-0.2,0.7s-0.3,0.4-0.6,0.6c0.1,0.1,0.2,0.3,0.4,0.4c0.2,0.1,0.3,0.2,0.5,0.2
						c0.2,0.1,0.4,0.1,0.6,0.1c0.2,0,0.4,0,0.6,0h0.1c0.2,0,0.3,0.1,0.4,0.2s0.1,0.3,0.1,0.4s0,0.3-0.1,0.4s-0.2,0.2-0.4,0.2h-0.1
						c-0.4,0-0.7,0-1-0.1s-0.6-0.2-0.8-0.3s-0.5-0.3-0.7-0.5c-0.2-0.2-0.4-0.4-0.6-0.7c-0.5,0.2-0.9,0.5-1.2,0.8
						c-0.4,0.3-0.7,0.7-0.9,1.1c-0.3,0.4-0.5,0.8-0.6,1.3c-0.1,0.5-0.2,1-0.2,1.5c0,0.5,0.1,0.9,0.2,1.3c0.2,0.4,0.4,0.8,0.7,1.1
						c0.3,0.3,0.6,0.6,1,0.9c0.4,0.2,0.7,0.4,1.1,0.5c0.2,0.1,0.5,0.1,0.7,0.2c0.3,0,0.5,0.1,0.8,0.1c0.3,0,0.6,0,0.8,0
						c0.3,0,0.6,0,0.8,0c0.5,0,1.1-0.1,1.6-0.1c0.5-0.1,1.1-0.1,1.6-0.1c0.1,0,0.1,0,0.1,0.1c0,0,0,0.1,0,0.1c0,0-0.1,0.1-0.1,0.1
						c0,0-0.1,0.1-0.1,0.1c-0.3,0.1-0.6,0.2-0.9,0.3c-0.3,0.1-0.6,0.2-0.9,0.3s-0.6,0.2-0.9,0.3c-0.3,0.1-0.6,0.1-0.9,0.2
						c-0.3,0-0.5,0-0.9,0c-0.3,0-0.6,0-1,0c-0.3,0-0.7-0.1-1-0.2c-0.3-0.1-0.7-0.2-1-0.4c-0.4-0.2-0.7-0.4-1-0.8
						c-0.3-0.3-0.6-0.6-0.8-1c-0.2-0.4-0.4-0.8-0.5-1.2S112,29.4,112,29c0-0.5,0.1-1.1,0.2-1.6c0.1-0.6,0.3-1.1,0.6-1.6
						c0.2-0.5,0.5-1,0.9-1.4S114.3,23.5,114.7,23.3z"/>
					<path d="M123.3,15.8c-0.3,0.1-0.6,0.2-0.9,0.4c-0.3,0.1-0.6,0.3-0.9,0.4c-0.3,0.1-0.6,0.2-0.8,0.4c-0.3,0.1-0.5,0.2-0.6,0.3
						c0,0-0.1,0-0.1,0c0,0,0,0,0-0.1c0,0,0-0.1,0.1-0.2c0-0.1,0.1-0.2,0.1-0.2c0-0.1,0.1-0.2,0.1-0.2c0-0.1,0.1-0.1,0.1-0.1
						c0-0.1,0.1-0.1,0.2-0.1l3.1-1.3c0.1,0,0.1,0,0.1,0.1c0,0,0,0.1-0.1,0.2s-0.1,0.1-0.1,0.2c0,0.1-0.1,0.1-0.1,0.2
						s-0.1,0.1-0.1,0.2C123.4,15.7,123.3,15.8,123.3,15.8z"/>
					<path d="M118.7,24.1c0.2,0,0.5,0,0.7,0s0.4,0,0.6-0.1c0.2,0,0.4-0.1,0.5-0.2c0.2-0.1,0.3-0.2,0.4-0.4c0.2-0.3,0.3-0.6,0.4-0.9
						c0.1-0.3,0.3-0.6,0.5-0.9c0.1-0.1,0.1-0.2,0.2-0.3c0.1-0.1,0.2-0.2,0.3-0.4c0.1-0.1,0.2-0.2,0.4-0.3c0.1-0.1,0.3-0.1,0.4-0.1
						c0.1,0,0.3,0.1,0.4,0.1c0.1,0.1,0.3,0.2,0.4,0.4c0.1,0.1,0.2,0.3,0.3,0.5s0.2,0.4,0.2,0.6c0.1,0.2,0.1,0.4,0.2,0.5
						c0,0.2,0.1,0.3,0,0.4c0,0.1,0,0.2,0,0.4c0,0.1-0.1,0.3-0.1,0.4c0,0.1-0.1,0.2-0.2,0.3c-0.1,0.1-0.2,0.2-0.3,0.2
						c-0.1,0-0.3,0.1-0.5,0c-0.2,0-0.5-0.1-0.7-0.1s-0.5-0.2-0.8-0.3c-0.3-0.1-0.5-0.3-0.7-0.4c-0.2,0.6-0.5,1.1-1,1.4
						s-1,0.4-1.6,0.4h-0.1c-0.2,0-0.3-0.1-0.4-0.2s-0.1-0.3-0.1-0.4s0-0.3,0.1-0.4s0.2-0.2,0.4-0.2H118.7z M123.9,23.2
						c0,0,0-0.1,0-0.1c0-0.1-0.1-0.2-0.1-0.2c0-0.1-0.1-0.2-0.1-0.3c0-0.1-0.1-0.1-0.1-0.2c0-0.1-0.1-0.1-0.2-0.2
						c-0.1-0.1-0.1-0.1-0.2-0.2s-0.1-0.1-0.2-0.1c-0.1,0-0.2,0-0.3,0c-0.1,0-0.2,0-0.3,0.1c-0.1,0-0.2,0.1-0.2,0.2s-0.1,0.1-0.2,0.2
						c-0.1,0.1-0.1,0.2-0.1,0.2c0.3,0.2,0.6,0.4,0.9,0.5C123.1,23.1,123.5,23.2,123.9,23.2z"/>
					<path class="st0" d="M129.9,15.7C129.8,15.7,129.8,15.6,129.9,15.7c0-0.2,0.1-0.2,0.2-0.3c0.2-0.1,0.4-0.2,0.5-0.3
						c0.2-0.1,0.3-0.2,0.5-0.3s0.3-0.2,0.5-0.4s0.3-0.3,0.5-0.5c-0.1,0-0.3-0.1-0.5-0.2c-0.2-0.1-0.3-0.2-0.4-0.3
						c-0.1-0.1-0.1-0.1-0.1-0.2s0-0.2,0-0.3c0-0.1,0.1-0.3,0.2-0.4c0.1-0.2,0.2-0.3,0.3-0.4c0.1-0.1,0.2-0.2,0.4-0.3
						c0.1-0.1,0.3-0.1,0.4-0.1c0.1,0,0.2,0,0.3,0.1c0.1,0.1,0.1,0.2,0.2,0.3c0,0.1,0.1,0.2,0.1,0.4s0,0.3,0,0.4c0,0.1,0,0.3,0,0.4
						c0,0.1,0,0.2,0,0.3c0,0,0,0,0,0.1c0.1,0,0.1,0.1,0.1,0.1c0,0,0,0.1,0.1,0.1c0,0.1,0,0.2,0,0.3s-0.1,0.2-0.1,0.3
						c0,0.1-0.1,0.1-0.1,0.1c0,0-0.1,0-0.1-0.1c0,0,0-0.1-0.1-0.1c0,0-0.1,0-0.1-0.1c-0.2,0.2-0.3,0.4-0.5,0.5
						c-0.2,0.2-0.3,0.3-0.5,0.4c-0.2,0.1-0.3,0.2-0.5,0.3c-0.2,0.1-0.4,0.2-0.7,0.3c-0.1,0-0.2,0.1-0.3,0.1
						C130,15.7,129.9,15.7,129.9,15.7z M131.6,12.7c0.1,0.2,0.2,0.3,0.4,0.4c0.2,0.1,0.3,0.1,0.4,0.2h0c0,0,0-0.1,0-0.2
						c0-0.1,0-0.1,0-0.2s0-0.2,0-0.2c0-0.1-0.1-0.1-0.1-0.2c0,0-0.1-0.1-0.2-0.1c-0.1,0-0.2,0-0.2,0c-0.1,0-0.1,0.1-0.2,0.1
						C131.7,12.6,131.6,12.6,131.6,12.7z"/>
					<path class="st0" d="M131.3,22.2c-0.3-0.1-0.6-0.3-0.9-0.4c-0.3-0.2-0.5-0.3-0.7-0.5c-0.2-0.2-0.3-0.4-0.5-0.7
						c-0.1-0.3-0.1-0.6-0.1-0.9c0-0.3,0.1-0.6,0.2-0.9c0.1-0.3,0.2-0.5,0.4-0.7s0.4-0.4,0.6-0.5c0.2-0.1,0.4-0.3,0.7-0.4
						c0.2-0.1,0.5-0.1,0.7-0.1s0.5,0,0.8,0.1s0.5,0.1,0.7,0.2c0.2,0.1,0.4,0.2,0.6,0.4c0,0,0,0,0.1,0.1c0,0,0,0.1,0,0.1s0,0-0.1,0.1
						c0,0-0.1,0-0.1,0c-0.1,0-0.3-0.1-0.4-0.1s-0.3-0.1-0.5-0.1c-0.1,0-0.3,0-0.5,0s-0.4,0.1-0.6,0.2c-0.2,0.1-0.4,0.2-0.7,0.3
						c-0.2,0.1-0.4,0.2-0.6,0.3s-0.4,0.2-0.5,0.4c-0.1,0.1-0.2,0.2-0.3,0.4c0,0.2,0.2,0.4,0.3,0.6s0.4,0.4,0.6,0.5
						c0.2,0.2,0.5,0.3,0.8,0.4c0.3,0.1,0.5,0.2,0.8,0.2c0.2,0,0.4-0.1,0.7-0.2c0.3-0.1,0.5-0.3,0.8-0.4c0.3-0.2,0.6-0.3,0.9-0.5
						s0.6-0.3,0.8-0.5c0.1,0,0.1,0,0.1,0c0,0,0.1,0,0.1,0.1c0,0.2-0.1,0.3-0.1,0.5c0,0.2-0.1,0.3-0.1,0.5c-0.4,0.2-0.8,0.5-1.3,0.7
						c-0.5,0.3-0.9,0.5-1.3,0.8c-0.4,0.3-0.9,0.6-1.3,1s-0.7,0.7-1,1.2c-0.3,0.4-0.5,0.9-0.7,1.3c-0.2,0.5-0.2,1-0.2,1.6
						c0,0.4,0.1,0.9,0.3,1.2c0.2,0.4,0.4,0.7,0.7,1c0.3,0.3,0.6,0.6,1,0.8c0.4,0.2,0.7,0.4,1.2,0.5c0.5,0.1,1.1,0.2,1.6,0.3
						c0.6,0,1.1,0.1,1.6,0.1c0.3,0,0.5,0,0.8,0c0.3,0,0.6-0.1,0.8-0.1c0.3,0,0.6-0.1,0.8-0.1c0.3,0,0.5,0,0.8,0c0.1,0,0.1,0,0.1,0.1
						c0,0,0,0.1,0,0.1c0,0-0.1,0.1-0.1,0.1s-0.1,0.1-0.2,0.1c-0.3,0.1-0.6,0.1-0.9,0.3s-0.6,0.2-0.9,0.3c-0.3,0.1-0.6,0.2-0.9,0.3
						c-0.3,0.1-0.6,0.1-0.9,0.2c-0.9,0.1-1.7,0-2.5-0.1c-0.8-0.1-1.4-0.4-1.9-0.8s-1-0.9-1.3-1.5c-0.3-0.6-0.5-1.4-0.5-2.3
						c0-0.5,0-1,0.1-1.4c0.1-0.5,0.2-1,0.4-1.4c0.2-0.5,0.4-0.9,0.7-1.3C130.7,22.9,131,22.5,131.3,22.2z"/>
					<path class="st0" d="M143.3,15c0,0.2,0,0.4-0.1,0.5c0,0.2-0.1,0.3-0.2,0.5c-0.1,0.1-0.2,0.2-0.4,0.3s-0.4,0.1-0.6,0.1
						c-0.3,0-0.5-0.1-0.7-0.3c-0.2-0.2-0.3-0.4-0.3-0.7c0-0.2,0-0.3,0.1-0.6s0.1-0.4,0.2-0.6c0.1-0.2,0.2-0.4,0.4-0.5
						c0.2-0.2,0.3-0.2,0.6-0.3c0.2,0,0.4,0,0.5,0.1s0.2,0.2,0.3,0.4c0.1,0.2,0.1,0.3,0.2,0.5C143.3,14.7,143.3,14.8,143.3,15z
						 M142.1,14.4c-0.1,0-0.2,0.1-0.3,0.1c-0.1,0.1-0.2,0.1-0.2,0.2s-0.1,0.2-0.2,0.3c0,0.1-0.1,0.2-0.1,0.3s0,0.1,0.1,0.2
						c0,0.1,0.1,0.1,0.2,0.1c0.1,0,0.2,0,0.2,0.1c0.1,0,0.2,0,0.2,0c0.3,0,0.6-0.1,0.8-0.4c0-0.1,0-0.2,0-0.3c0-0.1-0.1-0.2-0.2-0.3
						c-0.1-0.1-0.2-0.2-0.3-0.2S142.2,14.3,142.1,14.4z"/>
					<path class="st0" d="M142.9,20.1c0-0.2,0.1-0.4,0.1-0.5s0.1-0.3,0.1-0.4c0-0.1,0-0.1,0.1-0.1c0,0,0.1,0,0.1,0.1
						c0,0.1,0,0.1,0.1,0.2c0,0.1,0.1,0.2,0.1,0.3s0.1,0.2,0.1,0.4c0,0.1,0.1,0.2,0.1,0.3c0.1,0.4,0.2,0.8,0.3,1.2
						c0.1,0.4,0.3,0.8,0.4,1.1c0.2,0.5,0.5,0.8,0.8,1s0.8,0.3,1.3,0.3h0.1c0.2,0,0.3,0.1,0.4,0.2c0.1,0.1,0.1,0.3,0.1,0.4
						s0,0.3-0.1,0.4c-0.1,0.1-0.2,0.2-0.4,0.2h-0.1c-0.3,0-0.6,0-0.8-0.1c-0.3-0.1-0.5-0.2-0.7-0.3s-0.4-0.4-0.6-0.6
						c-0.2-0.3-0.4-0.6-0.5-1c-0.1,0.4-0.3,0.7-0.5,0.9c-0.2,0.2-0.5,0.4-0.8,0.5c-0.2,0.1-0.4,0.1-0.6,0.2
						c-0.3,0.1-0.6,0.1-0.9,0.2c-0.3,0-0.6,0-0.8,0c-0.3,0-0.5-0.1-0.6-0.2c-0.1-0.1-0.1-0.2-0.2-0.3c0-0.1-0.1-0.3-0.1-0.4
						c0-0.1,0-0.3,0-0.4c0-0.1,0.1-0.3,0.1-0.4c0,0,0-0.1,0.1-0.1c0,0,0.1,0,0.1,0.1c0.1,0.2,0.2,0.3,0.3,0.4s0.3,0.1,0.5,0.1
						c0.2,0,0.4,0,0.6,0c0.2,0,0.4,0,0.6-0.1c0.2,0,0.4-0.1,0.6-0.2c0.2-0.1,0.4-0.1,0.6-0.2s0.3-0.2,0.5-0.3
						c0.1-0.1,0.2-0.2,0.3-0.4c-0.1-0.5-0.3-0.9-0.4-1.3C143.1,21,143,20.6,142.9,20.1z"/>
					<path class="st0" d="M149.6,15.2c-0.3,0.1-0.6,0.2-0.9,0.4c-0.3,0.1-0.6,0.3-0.9,0.4c-0.3,0.1-0.6,0.2-0.8,0.4
						c-0.3,0.1-0.5,0.2-0.6,0.3c0,0-0.1,0-0.1,0c0,0,0,0,0-0.1c0,0,0-0.1,0.1-0.2c0-0.1,0.1-0.2,0.1-0.2c0-0.1,0.1-0.2,0.1-0.2
						c0-0.1,0.1-0.1,0.1-0.1c0-0.1,0.1-0.1,0.2-0.1l3.1-1.3c0.1,0,0.1,0,0.1,0.1c0,0,0,0.1-0.1,0.2s-0.1,0.1-0.1,0.2
						c0,0.1-0.1,0.1-0.1,0.2s-0.1,0.1-0.1,0.2C149.7,15.1,149.6,15.1,149.6,15.2z"/>
					<path class="st0" d="M148.5,21C148.5,20.9,148.6,20.9,148.5,21c0.1-0.1,0.1,0,0.2,0c0.1,0.2,0.3,0.3,0.4,0.5
						c0.1,0.2,0.2,0.4,0.3,0.6s0.2,0.4,0.2,0.6c0.1,0.2,0.1,0.4,0.1,0.6c0,0.1,0,0.2,0,0.3s0,0.2-0.1,0.4s-0.1,0.2-0.1,0.3
						c0,0.1-0.1,0.2-0.1,0.3c-0.1,0.2-0.3,0.4-0.5,0.5s-0.5,0.2-0.8,0.3c-0.3,0.1-0.6,0.1-0.8,0.1c-0.3,0-0.5,0-0.8,0h-0.1
						c-0.2,0-0.3-0.1-0.4-0.2s-0.1-0.3-0.1-0.4s0-0.3,0.1-0.4s0.2-0.2,0.4-0.2h0.1c0.1,0,0.3,0,0.5,0c0.2,0,0.5,0,0.7,0
						s0.5-0.1,0.7-0.1c0.2,0,0.4-0.1,0.6-0.2c0.1,0,0.1-0.1,0.1-0.2c-0.1-0.3-0.2-0.6-0.4-0.8c-0.2-0.2-0.4-0.5-0.6-0.7
						c0-0.2,0.1-0.4,0.1-0.6C148.4,21.3,148.5,21.1,148.5,21z M149.5,19.3C149.5,19.4,149.5,19.4,149.5,19.3c-0.1,0.1-0.1,0-0.2,0
						l-1-0.8l-0.6,0.9c0,0-0.1,0.1-0.1,0l-1-0.8c0,0,0-0.1,0-0.1l0.7-0.9c0,0,0,0,0.1,0c0,0,0,0,0.1,0l1,0.7l0.7-0.9
						c0,0,0.1-0.1,0.1,0l1,0.9c0,0,0,0.1,0,0.1L149.5,19.3z"/>
					<path d="M163.6,12.1c-0.3,0.1-0.6,0.2-0.9,0.4c-0.3,0.1-0.6,0.3-0.9,0.4c-0.3,0.1-0.6,0.2-0.8,0.4c-0.3,0.1-0.5,0.2-0.6,0.3
						c0,0-0.1,0-0.1,0c0,0,0,0,0-0.1c0,0,0-0.1,0.1-0.2c0-0.1,0.1-0.2,0.1-0.2c0-0.1,0.1-0.2,0.1-0.2c0-0.1,0.1-0.1,0.1-0.1
						c0-0.1,0.1-0.1,0.2-0.1l3.1-1.3c0.1,0,0.1,0,0.1,0.1c0,0,0,0.1-0.1,0.2s-0.1,0.1-0.1,0.2c0,0.1-0.1,0.1-0.1,0.2
						s-0.1,0.1-0.1,0.2C163.7,12,163.7,12.1,163.6,12.1z"/>
					<path d="M162.4,14.1c0.1,0.5,0.1,1,0.2,1.5c0,0.5,0.1,0.9,0.1,1.3c0,0.4,0.1,0.8,0.1,1.3c0,0.4,0.1,0.8,0.1,1.2
						c0.1,0.8,0.2,1.5,0.3,2c0.1,0.5,0.2,0.9,0.3,1.2c0.1,0.3,0.1,0.5,0.2,0.7s0.2,0.4,0.4,0.5c0.2,0.1,0.3,0.2,0.6,0.3
						c0.2,0.1,0.5,0.1,0.8,0.1h0.1c0.2,0,0.3,0.1,0.4,0.2c0.1,0.1,0.1,0.3,0.1,0.4s0,0.3-0.1,0.4c-0.1,0.1-0.2,0.2-0.4,0.2h-0.1
						c-0.3,0-0.5,0-0.8-0.1c-0.3,0-0.5-0.1-0.7-0.3c-0.2-0.1-0.4-0.3-0.6-0.6c-0.2-0.3-0.3-0.6-0.4-1c-0.1-0.3-0.1-0.5-0.2-0.7
						c0-0.2-0.1-0.5-0.1-0.7c0-0.2-0.1-0.5-0.1-0.7c0-0.3-0.1-0.6-0.1-0.9c-0.1,0.4-0.1,0.8-0.3,1.2c-0.1,0.4-0.3,0.9-0.5,1.3
						s-0.4,0.8-0.7,1.2s-0.6,0.7-1,1c-0.6,0.4-1.1,0.7-1.7,0.8c-0.6,0.2-1.2,0.3-1.9,0.4c-0.1,0-0.2,0-0.2,0c-0.1,0-0.1,0-0.1-0.1
						c0,0,0-0.1,0-0.1c0,0,0.1-0.1,0.1-0.1c0.9-0.4,1.8-0.9,2.6-1.4c0.8-0.5,1.5-1.2,2.2-1.9c-0.1-0.3-0.2-0.6-0.3-1
						c-0.1-0.3-0.3-0.6-0.5-1c-0.2-0.3-0.4-0.6-0.7-0.9c-0.2-0.3-0.5-0.6-0.8-0.8c-0.3-0.3-0.6-0.5-0.8-0.7
						c-0.3-0.2-0.6-0.4-0.8-0.6c0,0.1-0.1,0.2-0.2,0.2c-0.1,0-0.1,0-0.2,0c-0.1,0-0.3,0-0.5-0.1c-0.2-0.1-0.4-0.2-0.6-0.3
						s-0.4-0.2-0.5-0.4c-0.1-0.2-0.2-0.3-0.2-0.5c0,0,0-0.1,0-0.2c0-0.1,0-0.2,0-0.4c0-0.1,0-0.3,0.1-0.4c0-0.1,0.1-0.3,0.1-0.4
						c0-0.1,0.1-0.2,0.1-0.2s0.1,0,0.3,0.1c0.4,0.2,0.8,0.5,1.3,0.8c0.4,0.3,0.9,0.7,1.3,1.1c0.4,0.4,0.8,0.8,1.2,1.2
						c0.4,0.4,0.7,0.9,1,1.3c0.3,0.5,0.5,0.9,0.7,1.4c0.2,0.5,0.3,0.9,0.3,1.4c0.2-0.3,0.3-0.6,0.4-0.9c0.1-0.3,0.2-0.5,0.3-0.8
						c0.1-0.3,0.1-0.5,0.1-0.8c0-0.3,0-0.6,0-0.9c0-0.6,0-1.2-0.1-1.8c-0.1-0.6-0.1-1.2-0.2-1.8c0-0.1,0-0.2,0-0.3
						c0-0.1,0.1-0.2,0.1-0.4c0.1-0.1,0.1-0.2,0.2-0.3c0.1-0.1,0.1-0.2,0.2-0.3C162.3,14,162.4,14,162.4,14.1
						C162.4,14,162.4,14,162.4,14.1z"/>
					<path d="M168.9,14c-0.3,0.1-0.6,0.2-0.9,0.4c-0.3,0.1-0.6,0.3-0.9,0.4c-0.3,0.1-0.6,0.2-0.8,0.4c-0.3,0.1-0.5,0.2-0.6,0.3
						c0,0-0.1,0-0.1,0c0,0,0,0,0-0.1c0,0,0-0.1,0.1-0.2c0-0.1,0.1-0.2,0.1-0.2c0-0.1,0.1-0.2,0.1-0.2c0-0.1,0.1-0.1,0.1-0.1
						c0-0.1,0.1-0.1,0.2-0.1l3.1-1.3c0.1,0,0.1,0,0.1,0.1c0,0,0,0.1-0.1,0.2s-0.1,0.1-0.1,0.2c0,0.1-0.1,0.1-0.1,0.2
						s-0.1,0.1-0.1,0.2C169,13.9,169,13.9,168.9,14z"/>
					<path d="M165.6,24.1c0.1,0,0.2,0,0.4,0c0.2,0,0.4,0,0.6,0s0.5,0,0.7-0.1c0.3,0,0.5-0.1,0.7-0.1c0.2-0.1,0.5-0.1,0.6-0.2
						c0.2-0.1,0.3-0.2,0.4-0.4c0-0.1,0-0.1,0-0.2c0-0.1,0-0.2,0-0.3c0-0.1,0-0.2-0.1-0.3c0-0.1-0.1-0.2-0.1-0.2
						c0,0.1-0.1,0.2-0.2,0.3c-0.1,0.1-0.2,0.2-0.3,0.3s-0.2,0.2-0.3,0.2c-0.1,0.1-0.2,0.1-0.4,0.1c-0.1,0-0.3,0-0.4-0.1
						s-0.3-0.1-0.4-0.2s-0.2-0.2-0.3-0.3c-0.1-0.1-0.1-0.3-0.2-0.4c0-0.2,0-0.3,0-0.5c0-0.2,0-0.4,0.1-0.6c0.1-0.2,0.1-0.4,0.2-0.6
						c0.1-0.2,0.2-0.3,0.3-0.5c0.1-0.1,0.2-0.3,0.4-0.3c0.1-0.1,0.3-0.1,0.5-0.1c0.1,0,0.3,0.1,0.4,0.1s0.3,0.2,0.4,0.4
						c0.1,0.1,0.2,0.3,0.3,0.5c0.1,0.2,0.2,0.4,0.3,0.6c0.1,0.2,0.1,0.4,0.2,0.6c0,0.2,0.1,0.3,0.1,0.5c0,0.3,0,0.5,0,0.8
						c0,0.2-0.1,0.5-0.1,0.7c-0.1,0.2-0.1,0.4-0.3,0.6c-0.1,0.2-0.2,0.3-0.4,0.5c-0.2,0.2-0.4,0.3-0.7,0.4s-0.6,0.2-0.9,0.2
						c-0.3,0-0.6,0.1-0.9,0.1c-0.3,0-0.6,0-0.9,0h-0.1c-0.2,0-0.3-0.1-0.4-0.2c-0.1-0.1-0.1-0.3-0.1-0.4s0-0.3,0.1-0.4
						C165.2,24.2,165.3,24.1,165.6,24.1L165.6,24.1z M167.3,16.2c0,0,0.1-0.1,0.1,0l1,0.8c0,0,0,0,0,0.1c0,0,0,0,0,0.1l-0.7,0.8
						c0,0-0.1,0-0.1,0l-1-0.8c0,0,0,0,0,0c0,0,0,0,0-0.1L167.3,16.2z M168.6,21.5c0-0.1,0-0.1-0.1-0.2c-0.1-0.1-0.1-0.1-0.2-0.2
						s-0.2-0.1-0.2-0.2s-0.2-0.1-0.2-0.1c-0.1,0-0.1,0-0.2,0.1c-0.1,0-0.1,0.1-0.2,0.2c-0.1,0.1-0.1,0.1-0.2,0.2
						c0,0.1-0.1,0.2-0.1,0.2c0.1,0.1,0.2,0.2,0.3,0.3c0.1,0.1,0.3,0.1,0.4,0.1s0.3,0,0.4-0.1S168.5,21.6,168.6,21.5z"/>
				</g>
			</g>
		</g>
		<g>
			<path d="M180.5,21.5c0,0.1,0,0.2-0.1,0.3c-0.1,0.1-0.3,0.3-0.5,0.4c0,0.2,0,0.5-0.1,0.7c-0.1,0.2-0.1,0.3-0.2,0.3
				c-0.2-0.2-0.5-0.5-0.7-0.6c-0.2-0.2-0.5-0.3-0.8-0.3c0,0.3,0.1,0.5,0.4,0.8c0.2,0.2,0.4,0.4,0.6,0.7c0,0.1-0.2,0.2-0.6,0.3
				c-0.3,0.1-0.6,0.1-0.8,0.1c-0.3,0.9-0.7,1.7-1.3,2.5c-0.2,0.3-0.5,0.7-0.9,1.1c-0.5,0.5-0.9,0.8-1.2,0.8c-0.1,0-0.1,0-0.1-0.1
				c0,0,0.2-0.2,0.5-0.6c0.4-0.5,0.7-0.9,1-1.3c0.4-0.7,0.6-1.5,0.8-2.4c-0.3,0-0.5-0.1-0.5-0.1c-0.1,0-0.1-0.1-0.1-0.2
				c0.6-0.5,0.9-1,0.9-1.4c-0.3,0-0.5,0.1-0.7,0.3c-0.1,0.1-0.4,0.4-0.6,0.7c-0.1,0-0.2-0.1-0.2-0.3c-0.1-0.2-0.1-0.5-0.1-0.7
				c-0.3-0.1-0.4-0.2-0.4-0.2c-0.2-0.1-0.2-0.3-0.2-0.4c0-0.1,0-0.2,0.1-0.3c0.1,0,0.2-0.2,0.5-0.3c0-0.7,0.1-1,0.4-1
				c0.5,0.5,1,0.9,1.4,0.9c0-0.2-0.1-0.5-0.3-0.8c0,0-0.2-0.2-0.6-0.7c0-0.1,0.1-0.1,0.2-0.2c0.1,0,0.3-0.1,0.6-0.1
				c-0.1-0.7-0.4-1.4-0.8-2.1c-0.4-0.7-0.9-1.3-1.4-1.8c-0.1-0.1-0.1-0.1-0.1-0.2s0.1-0.1,0.2-0.1c0.2,0,0.4,0.1,0.8,0.4
				c1.1,0.8,2,2.1,2.7,3.8c0.9,0,1.3,0.1,1.3,0.4c-0.2,0.2-0.4,0.4-0.6,0.6c-0.2,0.2-0.3,0.5-0.3,0.8c0.2,0,0.4-0.1,0.7-0.3l0.7-0.6
				c0.1,0,0.3,0.3,0.3,0.9c0,0.1,0,0.1,0,0.2C180.2,21.1,180.5,21.3,180.5,21.5z M178.4,19.4c0,0-0.1-0.1-0.2-0.1
				c-0.2,0-0.3,0-0.4,0h-0.3c-0.1,0-0.1,0-0.2,0c-0.2-0.8-0.6-1.5-1.1-2.2c-0.5-0.8-1.2-1.4-1.9-1.9c0.5,0.5,0.9,1,1.3,1.7
				c0.5,0.8,0.8,1.6,0.9,2.5c-0.3,0-0.5,0.1-0.5,0.2c0.4,0.3,0.6,0.6,0.8,1c0-0.1,0.1-0.3,0.2-0.5c0,0,0-0.1,0.1-0.2
				c0-0.1,0.1-0.2,0.1-0.2c0.1,0,0.3,0.3,0.5,0.9c0.1-0.2,0.2-0.4,0.4-0.6C178.2,19.7,178.3,19.6,178.4,19.4z M176.2,22
				c-0.1,0-0.3-0.1-0.7-0.2c-0.3-0.1-0.4-0.2-0.4-0.2c0,0,0.2-0.1,0.6-0.3c0.1,0,0.3-0.1,0.5-0.2c-0.2-0.1-0.4-0.2-0.6-0.3
				c-0.1-0.1-0.2-0.2-0.4-0.4c-0.1,0-0.1,0.3-0.1,0.8c-0.4,0.2-0.6,0.4-0.6,0.5c0,0.1,0.2,0.2,0.6,0.4c0,0.5,0.1,0.8,0.2,0.8
				c0,0,0.1-0.1,0.4-0.3C175.9,22.2,176.1,22.1,176.2,22z M178.5,23.7c-0.3-0.2-0.6-0.6-0.8-0.9c0,0.1-0.1,0.2-0.2,0.4
				c0,0-0.1,0.1-0.1,0.3c-0.1,0.1-0.1,0.2-0.1,0.2c0,0-0.1-0.1-0.1-0.2c-0.1-0.1-0.1-0.2-0.1-0.2c0-0.1-0.1-0.2-0.2-0.5
				c-0.1,0.2-0.2,0.4-0.3,0.5c-0.1,0.1-0.2,0.3-0.4,0.4c0,0,0.2,0.1,0.5,0.2c-0.2,0.8-0.3,1.3-0.4,1.5c-0.3,0.9-0.8,1.8-1.5,2.6
				c1.2-0.8,2.1-2.2,2.8-4.2c0.5,0,0.7,0,0.6,0C178.3,23.8,178.5,23.7,178.5,23.7z M178.1,21.6c0-0.2-0.1-0.4-0.2-0.6
				c-0.2-0.1-0.4-0.2-0.6-0.2c-0.2,0-0.4,0.1-0.6,0.2c-0.2,0.2-0.2,0.3-0.2,0.6c0,0.2,0.1,0.4,0.2,0.6c0.2,0.2,0.4,0.2,0.6,0.2
				c0.2,0,0.4-0.1,0.6-0.2C178,22,178.1,21.8,178.1,21.6z M180.1,21.5c0,0-0.1-0.1-0.2-0.2c-0.1-0.1-0.2-0.1-0.4-0.2
				c0-0.2,0-0.4-0.1-0.6c0-0.2-0.1-0.2-0.1-0.3c0,0-0.1,0.1-0.3,0.3c-0.2,0.2-0.4,0.4-0.7,0.5c0.1,0,0.3,0.1,0.5,0.2
				c0,0,0.2,0.1,0.4,0.1c0.2,0.1,0.3,0.1,0.3,0.1c0,0.1-0.1,0.1-0.4,0.2c-0.4,0.1-0.7,0.2-0.7,0.2c0.2,0.1,0.5,0.2,0.6,0.3
				c0.1,0.1,0.2,0.2,0.4,0.4c0,0,0.1-0.1,0.1-0.2c0-0.1,0-0.3,0-0.5C179.9,21.8,180.1,21.6,180.1,21.5z"/>
		</g>
		<g>
			<path d="M37.9,21.8c0-0.1,0-0.2,0.1-0.3c0.1-0.1,0.3-0.3,0.5-0.4c0-0.2,0-0.5,0.1-0.7c0.1-0.2,0.1-0.3,0.2-0.3
				c0.2,0.2,0.5,0.5,0.7,0.6c0.2,0.2,0.5,0.3,0.8,0.3c0-0.3-0.1-0.5-0.4-0.8c-0.2-0.2-0.4-0.4-0.6-0.7c0-0.1,0.2-0.2,0.6-0.3
				c0.3-0.1,0.6-0.1,0.8-0.1c0.3-0.9,0.7-1.7,1.3-2.5c0.2-0.3,0.5-0.7,0.9-1.1c0.5-0.5,0.9-0.8,1.2-0.8c0.1,0,0.1,0,0.1,0.1
				c0,0-0.2,0.2-0.5,0.6c-0.4,0.5-0.7,0.9-1,1.3c-0.4,0.7-0.6,1.5-0.8,2.4c0.3,0,0.5,0.1,0.5,0.1c0.1,0,0.1,0.1,0.1,0.2
				c-0.6,0.5-0.9,1-0.9,1.4c0.3,0,0.5-0.1,0.7-0.3c0.1-0.1,0.4-0.4,0.6-0.7c0.1,0,0.2,0.1,0.2,0.3c0.1,0.2,0.1,0.5,0.1,0.7
				c0.3,0.1,0.4,0.2,0.4,0.2c0.2,0.1,0.2,0.3,0.2,0.4c0,0.1,0,0.2-0.1,0.3c-0.1,0-0.2,0.2-0.5,0.3c0,0.7-0.1,1-0.4,1
				c-0.5-0.5-1-0.9-1.4-0.9c0,0.2,0.1,0.5,0.3,0.8c0,0,0.2,0.2,0.6,0.7c0,0.1-0.1,0.1-0.2,0.2c-0.1,0-0.3,0.1-0.6,0.1
				c0.1,0.7,0.4,1.4,0.8,2.1c0.4,0.7,0.9,1.3,1.4,1.8c0.1,0.1,0.1,0.1,0.1,0.2s-0.1,0.1-0.2,0.1c-0.2,0-0.4-0.1-0.8-0.4
				c-1.1-0.8-2-2.1-2.7-3.8c-0.9,0-1.3-0.1-1.3-0.4c0.2-0.2,0.4-0.4,0.6-0.6c0.2-0.2,0.3-0.5,0.3-0.8c-0.2,0-0.4,0.1-0.7,0.3
				L39,23.4c-0.1,0-0.3-0.3-0.3-0.9c0-0.1,0-0.1,0-0.2C38.2,22.1,37.9,21.9,37.9,21.8z M40,23.9c0,0,0.1,0.1,0.2,0.1s0.3,0,0.4,0
				h0.3c0.1,0,0.1,0,0.2,0c0.2,0.8,0.6,1.5,1.1,2.2c0.5,0.8,1.2,1.4,1.9,1.9c-0.5-0.5-0.9-1-1.3-1.7c-0.5-0.8-0.8-1.6-0.9-2.5
				c0.3,0,0.5-0.1,0.5-0.2c-0.4-0.3-0.6-0.6-0.8-1c0,0.1-0.1,0.3-0.2,0.5c0,0,0,0.1-0.1,0.2c0,0.1-0.1,0.2-0.1,0.2
				c-0.1,0-0.3-0.3-0.5-0.9c-0.1,0.2-0.2,0.4-0.4,0.6C40.3,23.6,40.1,23.7,40,23.9z M42.2,21.3c0.1,0,0.3,0.1,0.7,0.2
				c0.3,0.1,0.4,0.2,0.4,0.2c0,0-0.2,0.1-0.6,0.3c-0.1,0-0.3,0.1-0.5,0.2c0.2,0.1,0.4,0.2,0.6,0.3c0.1,0.1,0.2,0.2,0.4,0.4
				c0.1,0,0.1-0.3,0.1-0.8c0.4-0.2,0.6-0.4,0.6-0.5c0-0.1-0.2-0.2-0.6-0.4c0-0.5-0.1-0.8-0.2-0.8c0,0-0.1,0.1-0.4,0.3
				C42.5,21.1,42.3,21.2,42.2,21.3z M39.9,19.6c0.3,0.2,0.6,0.6,0.8,0.9c0-0.1,0.1-0.2,0.2-0.4c0,0,0.1-0.1,0.1-0.3
				c0.1-0.1,0.1-0.2,0.1-0.2c0,0,0.1,0.1,0.1,0.2c0.1,0.1,0.1,0.2,0.1,0.2c0,0.1,0.1,0.2,0.2,0.5c0.1-0.2,0.2-0.4,0.3-0.5
				c0.1-0.1,0.2-0.3,0.4-0.4c0,0-0.2-0.1-0.5-0.2c0.2-0.8,0.3-1.3,0.4-1.5c0.3-0.9,0.8-1.8,1.5-2.6c-1.2,0.8-2.1,2.2-2.8,4.2
				c-0.5,0-0.7,0-0.6,0C40.1,19.5,39.9,19.5,39.9,19.6z M40.3,21.7c0,0.2,0.1,0.4,0.2,0.6c0.2,0.1,0.4,0.2,0.6,0.2
				c0.2,0,0.4-0.1,0.6-0.2c0.2-0.2,0.2-0.3,0.2-0.6c0-0.2-0.1-0.4-0.2-0.6c-0.2-0.2-0.4-0.2-0.6-0.2c-0.2,0-0.4,0.1-0.6,0.2
				C40.4,21.3,40.3,21.5,40.3,21.7z M38.3,21.8c0,0,0.1,0.1,0.2,0.2s0.2,0.1,0.4,0.2c0,0.2,0,0.4,0.1,0.6c0,0.2,0.1,0.2,0.1,0.3
				c0,0,0.1-0.1,0.3-0.3c0.2-0.2,0.4-0.4,0.7-0.5c-0.1,0-0.3-0.1-0.5-0.2c0,0-0.2-0.1-0.4-0.1C39,21.7,39,21.7,39,21.7
				c0-0.1,0.1-0.1,0.4-0.2c0.4-0.1,0.7-0.2,0.7-0.2c-0.2-0.1-0.5-0.2-0.6-0.3c-0.1-0.1-0.2-0.2-0.4-0.4c0,0-0.1,0.1-0.1,0.2
				c0,0.1,0,0.3,0,0.5C38.5,21.5,38.3,21.7,38.3,21.8z"/>
		</g>
	</g>
	<rect class="st1" width="218.4" height="37"/>
</g>
</svg>
