<?xml version="1.0" encoding="utf-8"?>
<!-- Generator: Adobe Illustrator 19.2.0, SVG Export Plug-In . SVG Version: 6.00 Build 0)  -->
<svg version="1.1" id="Layer_1" xmlns="http://www.w3.org/2000/svg" xmlns:xlink="http://www.w3.org/1999/xlink" x="0px" y="0px"
	 viewBox="0 0 187 36.9" style="enable-background:new 0 0 187 36.9;" xml:space="preserve">
<style type="text/css">
	.st0{fill:#BA0017;}
	.st1{fill:none;}
</style>
<g>
	<g>
		<g>
			<g>
				<path class="st0" d="M17.2,23.1c0,0.8-0.3,1.5-0.9,2.3c-0.7,0.9-1.4,1.3-2.3,1.3c-0.3,0-0.7,0-1-0.1c-0.2-0.1-0.6-0.1-1-0.3
					c-0.3-0.1-0.6-0.2-0.9-0.3l0.1-0.2c0.3,0.1,0.6,0.1,0.9,0.2c0.3,0.1,0.6,0.1,0.8,0.1c0.6,0,1.2-0.1,1.7-0.4
					c0.4-0.2,0.8-0.6,1.2-1c0.2-0.2,0.5-0.6,0.9-1.1c-0.7,0-1.1-0.1-1.5-0.3c-0.4-0.2-0.6-0.6-0.6-1.1c0-0.5,0.1-0.9,0.3-1.3
					c0.3-0.5,0.6-0.7,1-0.7c0.4,0,0.7,0.2,0.9,0.7c0.1,0.4,0.2,0.9,0.2,1.6V23.1z M16.8,22.3c-0.1-0.5-0.2-0.8-0.4-0.9
					c-0.1-0.2-0.3-0.2-0.5-0.2c-0.1,0-0.3,0-0.4,0.1s-0.1,0.2-0.1,0.3c0,0.2,0.1,0.4,0.3,0.5C15.9,22.2,16.3,22.3,16.8,22.3z"/>
				<path class="st0" d="M19.7,21.7c0,0.4-0.1,0.7-0.2,1.1c-0.1,0.2-0.2,0.5-0.5,0.9l-0.1-0.1c0-0.1,0-0.3,0-0.5c0-0.2,0-0.3,0-0.4
					c0-0.5,0-1.2-0.1-2c-0.1-0.9-0.2-1.8-0.3-2.7c-0.1-0.6-0.1-1.2-0.2-1.8c0.1-0.2,0.2-0.4,0.3-0.7c0.1-0.2,0.2-0.5,0.4-0.7
					c0.1,0.5,0.2,1.3,0.3,2.2c0.1,0.9,0.2,1.8,0.3,2.5C19.6,20.5,19.7,21.2,19.7,21.7z"/>
				<path class="st0" d="M26.8,23.1c0,0.8-0.3,1.5-0.9,2.3c-0.7,0.9-1.4,1.3-2.3,1.3c-0.3,0-0.7,0-1-0.1c-0.2-0.1-0.6-0.1-1-0.3
					c-0.3-0.1-0.6-0.2-0.9-0.3l0.1-0.2c0.3,0.1,0.6,0.1,0.9,0.2C22,26,22.2,26,22.5,26c0.6,0,1.2-0.1,1.7-0.4c0.4-0.2,0.8-0.6,1.2-1
					c0.2-0.2,0.5-0.6,0.9-1.1c-0.7,0-1.1-0.1-1.5-0.3c-0.4-0.2-0.6-0.6-0.6-1.1c0-0.5,0.1-0.9,0.3-1.3c0.3-0.5,0.6-0.7,1-0.7
					c0.4,0,0.7,0.2,0.9,0.7c0.1,0.4,0.2,0.9,0.2,1.6V23.1z M26.3,22.3c-0.1-0.5-0.2-0.8-0.4-0.9c-0.1-0.2-0.3-0.2-0.5-0.2
					c-0.1,0-0.3,0-0.4,0.1s-0.1,0.2-0.1,0.3c0,0.2,0.1,0.4,0.3,0.5C25.5,22.2,25.8,22.3,26.3,22.3z"/>
				<path class="st0" d="M29.8,23.5h-3.6v-1.2h2.9l-0.9-6l-0.4-0.2c0-0.3,0-0.6,0.1-0.9c0.1-0.3,0.1-0.6,0.3-0.8l0.1,0.1
					c0,0.3,0.2,0.5,0.5,0.6c0.2,0.1,0.5,0.2,0.7,0.3c0,0.2,0,0.5-0.1,0.8c0,0.3-0.1,0.5-0.1,0.6L29,16.6l0.9,5.5V23.5z"/>
				<path class="st0" d="M33.3,23.5h-1c-0.3,0-0.6-0.1-0.8-0.4c-0.2-0.2-0.3-0.6-0.4-1c-0.1-0.4-0.2-1-0.2-1.7
					c0-0.5-0.1-1.1-0.1-1.6c0-0.6-0.1-1-0.1-1.3s-0.1-0.5-0.2-0.7c-0.1-0.2-0.3-0.4-0.4-0.6l0.9-1.4c0.2,0.6,0.3,1.2,0.4,2
					c0,0.5,0.1,1.6,0.1,3.5c0.1,0.8,0.2,1.4,0.4,1.6c0.1,0.2,0.3,0.3,0.4,0.3h1V23.5z"/>
				<path class="st0" d="M36.9,23.5h-4.1v-1.2h3.6c0-0.6-0.1-1-0.2-1.3c-0.1-0.2-0.3-0.5-0.7-0.9L36,19c0.3,0.4,0.6,0.8,0.7,1
					c0.1,0.4,0.2,1,0.2,1.8V23.5z M36.1,25.2l-0.6,1l-1.2-0.6l0.5-1L36.1,25.2z"/>
				<path d="M48.3,23.5c0,0.5-0.2,1.1-0.7,1.6c-0.4,0.5-0.9,0.9-1.5,1.3c-0.6,0.3-1,0.5-1.4,0.5c-0.3,0-0.7,0-1.1-0.1
					c-0.3-0.1-0.7-0.2-1.1-0.3c-0.3-0.1-0.7-0.3-1-0.4l0.1-0.3c0.3,0.1,0.7,0.1,1,0.2s0.7,0.1,0.9,0.1c0.6,0,1.3-0.2,1.9-0.6
					c0.6-0.4,1.1-0.8,1.6-1.3s0.6-1,0.6-1.5c0-0.4-0.1-0.8-0.3-1.2c-0.2-0.3-0.4-0.7-0.8-1l0.4-1.1c0.4,0.4,0.7,0.7,0.9,1.1
					c0.2,0.4,0.3,0.9,0.3,1.4V23.5z"/>
				<path d="M56.2,23.5h-8.4v-1.2h5.9c-0.5-0.4-0.9-0.7-1.3-0.9c-0.4-0.3-0.8-0.4-1.2-0.6c-0.4-0.1-0.8-0.2-1.2-0.2
					c-0.2,0-0.5,0-0.7,0c0.1-0.3,0.3-0.6,0.6-0.8c0.3-0.3,0.7-0.5,1.3-0.5c0.5,0,1.1,0.2,1.8,0.7c0.3,0.2,0.9,0.7,1.6,1.3
					c0.6,0.5,1,0.8,1.2,0.8h0.4V23.5z M52.7,16.9l-0.6,1L51,17.4l0.5-1L52.7,16.9z"/>
				<path d="M59.6,13.9c-0.1,0.2-0.3,0.3-0.4,0.3c-0.2,0.1-0.4,0.2-0.6,0.2c-0.2,0-0.5,0-0.7-0.1c-0.5-0.2-0.7-0.2-0.8-0.2
					c-0.1,0-0.1,0-0.2,0c-0.1,0-0.1,0-0.2,0.1l-0.1-0.1c0.1-0.2,0.2-0.3,0.3-0.3c0.1-0.1,0.3-0.1,0.4-0.1c0,0,0.3,0.1,0.8,0.2
					c0.2,0.1,0.4,0.1,0.6,0.1c0.3,0,0.5-0.1,0.8-0.2L59.6,13.9z M63.8,16l-0.3,1.3L63,17.1l0,0.6c0,0.6-0.1,1.2-0.2,1.8
					c-0.2,0.6-0.5,1.3-0.9,1.9c0.2,0.3,0.3,0.6,0.4,0.8c0.1,0.3,0.2,0.6,0.2,0.9c0,0.2,0,0.3,0,0.4c0,0.1,0,0.3-0.1,0.4
					c-0.5,0.1-1.1,0.2-1.6,0.3s-1.2,0.1-1.7,0.1c0-0.1,0-0.2,0-0.2c0-0.4,0.1-0.7,0.2-1c0.8-0.4,1.5-1,2.1-1.7
					c-0.3-0.6-0.6-1.1-0.7-1.3c-0.2-0.3-0.5-0.7-0.9-1.3c-0.2-0.2-0.3-0.4-0.4-0.5c-0.2-0.2-0.3-0.2-0.4-0.2c-0.1,0-0.2,0-0.3,0.1
					c-0.1,0-0.1,0.1-0.2,0.1c-0.1,0-0.3-0.1-0.5-0.3c-0.2-0.2-0.4-0.4-0.6-0.7c-0.2-0.2-0.3-0.4-0.4-0.5c-0.1-0.1-0.1-0.3-0.1-0.5
					c0-0.3,0-0.5,0.1-0.7c0.1-0.2,0.2-0.4,0.3-0.4c0.2,0,0.5,0.2,0.9,0.6c0.3,0.3,0.7,0.8,1.1,1.3c0.4,0.5,0.7,1,1.1,1.5l0.7,1.2
					c0.2,0.3,0.4,0.7,0.7,1.2c0.3-0.6,0.5-1.3,0.7-1.9c0.1-0.6,0.2-1.3,0.2-2.2l-0.4-0.2c0-0.3,0-0.6,0.1-0.8
					c0.1-0.3,0.1-0.5,0.2-0.7l0.2,0c0,0.2,0.1,0.4,0.3,0.5c0.1,0.1,0.3,0.1,0.4,0.2C63.5,15.9,63.7,16,63.8,16z M61.9,22.9
					c0-0.1,0-0.2-0.1-0.3s-0.1-0.3-0.3-0.5c-0.1,0.2-0.4,0.4-0.7,0.6c-0.3,0.2-0.6,0.4-0.9,0.6c0.6,0,1,0,1.2,0
					C61.7,23.2,61.9,23.1,61.9,22.9z"/>
				<path d="M66.8,21.7c0,0.4-0.1,0.7-0.2,1.1c-0.1,0.2-0.2,0.5-0.5,0.9L66,23.6c0-0.1,0-0.3,0-0.5c0-0.2,0-0.3,0-0.4
					c0-0.5,0-1.2-0.1-2c-0.1-0.9-0.2-1.8-0.3-2.7c-0.1-0.6-0.1-1.2-0.2-1.8c0.1-0.2,0.2-0.4,0.3-0.7c0.1-0.2,0.2-0.5,0.4-0.7
					c0.1,0.5,0.2,1.3,0.3,2.2c0.1,0.9,0.2,1.8,0.3,2.5C66.7,20.5,66.8,21.2,66.8,21.7z"/>
				<path d="M79.1,22.6c0,0.8-0.2,1.4-0.5,1.8c-0.3,0.4-0.8,0.7-1.4,0.8c-0.5,0.1-1.2,0.2-2,0.2c-0.9,0-1.7-0.2-2.2-0.5
					C72.3,24.6,72,24,72,23.3c0-0.4,0.1-0.8,0.2-1.3c0.1-0.4,0.3-0.8,0.5-1.2c0.2-0.3,0.4-0.7,0.6-1.2l0.2,0.1
					c-0.2,0.3-0.3,0.6-0.5,0.8c-0.2,0.3-0.3,0.6-0.4,0.9c-0.1,0.3-0.1,0.6-0.1,0.9c0,0.6,0.2,1,0.7,1.3c0.4,0.3,1,0.4,1.8,0.4
					c0.8,0,1.6-0.1,2.3-0.4c0.8-0.3,1.1-0.7,1.1-1.1c0-0.5-0.1-1.2-0.2-2.3c-0.1-0.8-0.3-1.8-0.4-2.8l-0.2-1.4l-0.3-0.2
					c0-0.6,0.1-1.2,0.4-1.7h0.1c0,0.2,0.1,0.3,0.1,0.4c0,0.1,0.1,0.2,0.2,0.2c0.2,0.1,0.3,0.1,0.5,0.2c0.1,0.1,0.2,0.1,0.3,0.2
					c0,0.3,0,0.6,0,0.7c0,0.2-0.1,0.4-0.1,0.6l-0.4-0.1c0,0.1,0.1,0.6,0.2,1.4c0.2,1,0.3,1.8,0.3,2.4C79,21.4,79.1,22.1,79.1,22.6z"
					/>
				<path d="M82.7,23.5h-4.1v-1.2h3.6c0-0.6-0.1-1-0.2-1.3c-0.1-0.2-0.3-0.5-0.7-0.9l0.6-1.2c0.3,0.4,0.6,0.8,0.7,1
					c0.1,0.4,0.2,1,0.2,1.8V23.5z M81,17.2l-0.6,1l-1.2-0.6l0.5-1L81,17.2z M82.7,16.5l-0.6,1l-1.2-0.6l0.5-1L82.7,16.5z"/>
				<path d="M88.6,23.5h-1.1c-0.3,0-0.6-0.1-1-0.2c-0.4-0.2-0.7-0.4-0.8-0.7c-0.3,0.3-0.7,0.5-1.1,0.7c-0.5,0.2-1.1,0.3-1.7,0.3
					h-0.7v-1.2h0.7c0.4,0,0.8,0,1.1-0.1c0.4-0.1,0.8-0.3,1.2-0.5l-0.3-0.4c-0.2-0.2-0.3-0.3-0.5-0.3c-0.1,0-0.2,0-0.2,0
					c-0.1,0-0.1,0.1-0.2,0.2h-0.2v-0.4c0-0.5,0.1-0.9,0.4-1.1c0.3-0.2,0.7-0.3,1.3-0.3c0.5,0,1,0.1,1.3,0.2c0.5,0.2,0.7,0.5,0.7,0.8
					c0,0.2-0.1,0.4-0.3,0.6c-0.1,0.2-0.4,0.4-0.7,0.7c0.1,0.1,0.2,0.2,0.4,0.3s0.4,0.1,0.6,0.1h1.1V23.5z"/>
				<path d="M94.5,23.5h-0.8c-0.3,0-0.7-0.1-1.1-0.2c-0.5-0.2-0.9-0.4-1.2-0.7c-0.3,0.3-0.6,0.6-0.9,0.7c-0.3,0.1-0.7,0.2-1.3,0.2
					h-1.1v-1.2h1.1c0.4,0,0.8-0.1,1.2-0.3c0.3-0.2,0.5-0.4,0.7-0.7c0.3-0.4,0.7-0.8,1.1-1.1c0.4-0.3,0.7-0.4,1.1-0.5
					c0.3,0.5,0.6,0.9,0.8,1.3c0.3,0.5,0.4,1,0.4,1.3V23.5z M93.6,22.1c-0.1-0.3-0.2-0.5-0.3-0.8c-0.1-0.2-0.3-0.4-0.4-0.7
					c-0.2,0.1-0.4,0.2-0.6,0.3c-0.1,0.1-0.2,0.3-0.4,0.5c0.2,0.2,0.4,0.3,0.7,0.5C93,22.1,93.3,22.2,93.6,22.1L93.6,22.1z"/>
				<path d="M97.5,23.5h-3.6v-1.2h2.9l-0.9-6l-0.4-0.2c0-0.3,0-0.6,0.1-0.9c0.1-0.3,0.1-0.6,0.3-0.8l0.1,0.1c0,0.3,0.2,0.5,0.5,0.6
					c0.2,0.1,0.5,0.2,0.7,0.3c0,0.2,0,0.5-0.1,0.8c0,0.3-0.1,0.5-0.1,0.6l-0.3-0.1l0.9,5.5V23.5z"/>
				<path d="M100,21.7c0,0.4-0.1,0.7-0.2,1.1c-0.1,0.2-0.2,0.5-0.5,0.9l-0.1-0.1c0-0.1,0-0.3,0-0.5c0-0.2,0-0.3,0-0.4
					c0-0.5,0-1.2-0.1-2c-0.1-0.9-0.2-1.8-0.3-2.7c-0.1-0.6-0.1-1.2-0.2-1.8c0.1-0.2,0.2-0.4,0.3-0.7c0.1-0.2,0.2-0.5,0.4-0.7
					c0.1,0.5,0.2,1.3,0.3,2.2c0.1,0.9,0.2,1.8,0.3,2.5C100,20.5,100,21.2,100,21.7z"/>
				<path d="M112.4,27.4l-1.8,1.2c-1,0-1.8,0-2.3-0.1c-1-0.1-1.7-0.4-2.2-0.8c-0.7-0.5-1-1.2-1-2.2c0-0.6,0.1-1.1,0.3-1.6
					c0.2-0.4,0.4-0.7,0.6-1.1c0.1-0.2,0.4-0.4,0.7-0.7c-0.5-0.2-0.8-0.4-1-0.6c-0.4-0.4-0.6-0.8-0.6-1.4c0-0.5,0.2-1,0.6-1.5
					c0.5-0.6,1.1-0.8,1.8-0.8c0.3,0,0.7,0.1,1,0.3c0.2,0.1,0.5,0.3,0.9,0.6c-0.5,0-1,0-1.5,0.1c-0.6,0.1-1.2,0.2-1.6,0.3
					c-0.5,0.2-0.7,0.4-0.7,0.7c0,0.3,0.3,0.6,0.8,0.8c0.5,0.2,1,0.4,1.6,0.5c0.5-0.3,1-0.5,1.4-0.6c0.5-0.2,1-0.4,1.6-0.5l-0.3,1.1
					c-1,0.4-1.7,0.7-2.2,0.9c-0.9,0.4-1.6,0.8-2.1,1.3c-0.6,0.6-0.9,1.2-0.9,1.8c0,0.7,0.3,1.2,0.8,1.6c0.4,0.3,1.1,0.6,2,0.7
					c0.7,0.1,1.6,0.2,2.6,0.2c0.2,0,0.5,0,0.7,0C112,27.4,112.2,27.4,112.4,27.4L112.4,27.4z"/>
				<path d="M120.1,23.5c0,0.5-0.2,1.1-0.7,1.6c-0.4,0.5-0.9,0.9-1.5,1.3c-0.6,0.3-1,0.5-1.4,0.5c-0.3,0-0.7,0-1.1-0.1
					c-0.3-0.1-0.7-0.2-1.1-0.3c-0.3-0.1-0.7-0.3-1-0.4l0.1-0.3c0.3,0.1,0.7,0.1,1,0.2s0.7,0.1,0.9,0.1c0.6,0,1.3-0.2,1.9-0.6
					c0.6-0.4,1.1-0.8,1.6-1.3s0.6-1,0.6-1.5c0-0.4-0.1-0.8-0.3-1.2c-0.2-0.3-0.4-0.7-0.8-1l0.4-1.1c0.4,0.4,0.7,0.7,0.9,1.1
					c0.2,0.4,0.3,0.9,0.3,1.4V23.5z"/>
				<path d="M123.6,23.5h-1c-0.3,0-0.6-0.1-0.8-0.4c-0.2-0.2-0.3-0.6-0.4-1c-0.1-0.4-0.2-1-0.2-1.7c0-0.5-0.1-1.1-0.1-1.6
					c0-0.6-0.1-1-0.1-1.3s-0.1-0.5-0.2-0.7c-0.1-0.2-0.3-0.4-0.4-0.6l0.9-1.4c0.2,0.6,0.3,1.2,0.4,2c0,0.5,0.1,1.6,0.1,3.5
					c0.1,0.8,0.2,1.4,0.4,1.6c0.1,0.2,0.3,0.3,0.4,0.3h1V23.5z"/>
				<path d="M136.2,23.5h-8.7c-0.3,0-0.5,0-0.7-0.1c-0.2-0.1-0.4-0.2-0.6-0.3c-0.2,0.2-0.4,0.3-0.6,0.3c-0.2,0.1-0.5,0.1-1,0.1h-1.4
					v-1.2h1.4c0.4,0,0.7,0,0.8-0.1c0.3-0.1,0.4-0.3,0.4-0.6c0-0.1,0-0.3,0-0.4c0-0.1,0-0.3-0.1-0.5l0.3-0.4c0.2,0.6,0.4,1.1,0.7,1.5
					c0.3,0.4,0.7,0.6,1.1,0.6c0.4,0,0.9-0.1,1.4-0.3c0.6-0.2,1.1-0.4,1.5-0.7c0.7-0.5,1.1-0.8,1.3-0.9c0.4-0.2,0.7-0.4,1.1-0.5
					c0.4-0.1,0.8-0.2,1.2-0.2c0.7,0,1.2,0.2,1.5,0.6c0.3,0.3,0.5,0.8,0.5,1.4V23.5z M131.5,17.6l-0.6,1l-1.2-0.6l0.5-1L131.5,17.6z
					 M135,21.7c0-0.2-0.1-0.4-0.4-0.5c-0.3-0.1-0.6-0.2-1-0.2c-0.5,0-1.1,0.2-1.8,0.5c-0.5,0.3-1.1,0.5-1.6,0.8h3.4
					c0.5,0,0.9,0,1.2-0.1C134.9,22,135,21.9,135,21.7z"/>
				<path d="M142,23.5h-0.8c-0.3,0-0.7-0.1-1.1-0.2c-0.5-0.2-0.9-0.4-1.2-0.7c-0.3,0.3-0.6,0.6-0.9,0.7c-0.3,0.1-0.7,0.2-1.3,0.2
					h-1.1v-1.2h1.1c0.4,0,0.8-0.1,1.2-0.3c0.3-0.2,0.5-0.4,0.7-0.7c0.3-0.4,0.7-0.8,1.1-1.1c0.4-0.3,0.7-0.4,1.1-0.5
					c0.3,0.5,0.6,0.9,0.8,1.3c0.3,0.5,0.4,1,0.4,1.3V23.5z M141.2,22.1c-0.1-0.3-0.2-0.5-0.3-0.8c-0.1-0.2-0.3-0.4-0.4-0.7
					c-0.2,0.1-0.4,0.2-0.6,0.3c-0.1,0.1-0.2,0.3-0.4,0.5c0.2,0.2,0.4,0.3,0.7,0.5C140.6,22.1,140.9,22.2,141.2,22.1L141.2,22.1z"/>
				<path d="M145.1,23.5h-3.6v-1.2h2.9l-0.9-6l-0.4-0.2c0-0.3,0-0.6,0.1-0.9c0.1-0.3,0.1-0.6,0.3-0.8l0.1,0.1c0,0.3,0.2,0.5,0.5,0.6
					c0.2,0.1,0.5,0.2,0.7,0.3c0,0.2,0,0.5-0.1,0.8c0,0.3-0.1,0.5-0.1,0.6l-0.3-0.1l0.9,5.5V23.5z"/>
				<path d="M147.6,21.7c0,0.4-0.1,0.7-0.2,1.1c-0.1,0.2-0.2,0.5-0.5,0.9l-0.1-0.1c0-0.1,0-0.3,0-0.5c0-0.2,0-0.3,0-0.4
					c0-0.5,0-1.2-0.1-2c-0.1-0.9-0.2-1.8-0.3-2.7c-0.1-0.6-0.1-1.2-0.2-1.8c0.1-0.2,0.2-0.4,0.3-0.7c0.1-0.2,0.2-0.5,0.4-0.7
					c0.1,0.5,0.2,1.3,0.3,2.2c0.1,0.9,0.2,1.8,0.3,2.5C147.5,20.5,147.6,21.2,147.6,21.7z"/>
				<path d="M159.9,22.6c0,0.8-0.2,1.4-0.5,1.8c-0.3,0.4-0.8,0.7-1.4,0.8c-0.5,0.1-1.2,0.2-2,0.2c-0.9,0-1.7-0.2-2.2-0.5
					c-0.6-0.4-0.8-0.9-0.8-1.6c0-0.4,0.1-0.8,0.2-1.3c0.1-0.4,0.3-0.8,0.5-1.2c0.2-0.3,0.4-0.7,0.6-1.2l0.2,0.1
					c-0.2,0.3-0.3,0.6-0.5,0.8c-0.2,0.3-0.3,0.6-0.4,0.9c-0.1,0.3-0.1,0.6-0.1,0.9c0,0.6,0.2,1,0.7,1.3c0.4,0.3,1,0.4,1.8,0.4
					c0.8,0,1.6-0.1,2.3-0.4c0.8-0.3,1.1-0.7,1.1-1.1c0-0.5-0.1-1.2-0.2-2.3c-0.1-0.8-0.3-1.8-0.4-2.8l-0.2-1.4l-0.3-0.2
					c0-0.6,0.1-1.2,0.4-1.7h0.1c0,0.2,0.1,0.3,0.1,0.4c0,0.1,0.1,0.2,0.2,0.2c0.2,0.1,0.3,0.1,0.5,0.2c0.1,0.1,0.2,0.1,0.3,0.2
					c0,0.3,0,0.6,0,0.7c0,0.2-0.1,0.4-0.1,0.6l-0.4-0.1c0,0.1,0.1,0.6,0.2,1.4c0.2,1,0.3,1.8,0.3,2.4
					C159.8,21.4,159.9,22.1,159.9,22.6z"/>
				<path d="M165.8,23.5h-1.1c-0.3,0-0.6-0.1-1-0.2c-0.4-0.2-0.7-0.4-0.8-0.7c-0.3,0.3-0.7,0.5-1.1,0.7c-0.5,0.2-1.1,0.3-1.7,0.3
					h-0.7v-1.2h0.7c0.4,0,0.8,0,1.1-0.1c0.4-0.1,0.8-0.3,1.2-0.5l-0.3-0.4c-0.2-0.2-0.3-0.3-0.5-0.3c-0.1,0-0.2,0-0.2,0
					c-0.1,0-0.1,0.1-0.2,0.2h-0.2v-0.4c0-0.5,0.1-0.9,0.4-1.1c0.3-0.2,0.7-0.3,1.3-0.3c0.5,0,1,0.1,1.3,0.2c0.5,0.2,0.7,0.5,0.7,0.8
					c0,0.2-0.1,0.4-0.3,0.6c-0.1,0.2-0.4,0.4-0.7,0.7c0.1,0.1,0.2,0.2,0.4,0.3s0.4,0.1,0.6,0.1h1.1V23.5z"/>
				<path d="M169.7,23.5h-4.4v-1.2h2.5c0.3,0,0.6,0,0.8,0c0.2,0,0.4-0.1,0.7-0.1c-0.8-0.1-1.4-0.2-1.6-0.3c-0.6-0.2-0.8-0.6-0.8-1.2
					c0-0.5,0.1-1,0.4-1.4c0.3-0.5,0.7-0.7,1.1-0.7c0.5,0,0.9,0.3,1.1,0.9c0.2,0.5,0.3,1.1,0.3,1.7V23.5z M169,16l-0.6,1l-1-0.7
					l0.6-1L169,16z M169,21c-0.1-0.4-0.2-0.7-0.3-0.8c-0.2-0.4-0.4-0.5-0.7-0.5c-0.1,0-0.3,0.1-0.3,0.2c-0.1,0.1-0.1,0.2-0.1,0.4
					c0,0.4,0.2,0.6,0.6,0.7C168.2,20.9,168.5,21,169,21z"/>
				<path d="M172.8,23.5h-3.6v-1.2h2.9l-0.9-6l-0.4-0.2c0-0.3,0-0.6,0.1-0.9c0.1-0.3,0.1-0.6,0.3-0.8l0.1,0.1c0,0.3,0.2,0.5,0.5,0.6
					c0.2,0.1,0.5,0.2,0.7,0.3c0,0.2,0,0.5-0.1,0.8c0,0.3-0.1,0.5-0.1,0.6l-0.3-0.1l0.9,5.5V23.5z"/>
				<path d="M175.8,23.5h-3.6v-1.2h2.9l-0.9-6l-0.4-0.2c0-0.3,0-0.6,0.1-0.9c0.1-0.3,0.1-0.6,0.3-0.8l0.1,0.1c0,0.3,0.2,0.5,0.5,0.6
					c0.2,0.1,0.5,0.2,0.7,0.3c0,0.2,0,0.5-0.1,0.8c0,0.3-0.1,0.5-0.1,0.6l-0.3-0.1l0.9,5.5V23.5z"/>
			</g>
		</g>
	</g>
	<rect class="st1" width="187" height="36.9"/>
</g>
</svg>
