<?xml version="1.0" encoding="utf-8"?>
<!-- Generator: Adobe Illustrator 22.0.1, SVG Export Plug-In . SVG Version: 6.00 Build 0)  -->
<svg version="1.1" id="Layer_1" xmlns="http://www.w3.org/2000/svg" xmlns:xlink="http://www.w3.org/1999/xlink" x="0px" y="0px"
	 viewBox="0 0 86.2 86.2" style="enable-background:new 0 0 86.2 86.2;" xml:space="preserve">
<style type="text/css">
	.st0{fill:#235958;}
</style>
<g>
	<path class="st0" d="M52.3,39.3c0,5.7-1.1,11-3.3,15.9c-2.8,6.3-6.7,9.4-11.6,9.4c-2.8,0-6.5-1.1-11.2-3.4l0.7-1
		c1.7,0.4,2.8,0.6,3.3,0.6c3.2,0,6.6-1.5,10.2-4.4c3.3-2.6,5.7-5.5,7.5-8.6c1.2-2.3,1.8-4.9,1.8-7.8c-1.4,2.3-3,3.5-4.7,3.5
		c-1.4,0-2.5-0.6-3.3-1.8c-0.7-1.1-1-2.3-1-3.8c0-2.5,0.5-5,1.4-7.6c1.2-3.3,2.8-5,4.9-5c1.9,0,3.3,1.9,4.3,5.8
		C52,33.9,52.3,36.6,52.3,39.3z M47.8,35.9c-0.5-2.1-1.5-3.1-3-3.1c-1.2,0-1.8,0.6-1.8,1.8c0,0.6,0.3,1.1,0.8,1.5s1.1,0.6,1.8,0.6
		S47,36.5,47.8,35.9z"/>
</g>
</svg>
