<?xml version="1.0" encoding="utf-8"?>
<!-- Generator: Adobe Illustrator 22.0.1, SVG Export Plug-In . SVG Version: 6.00 Build 0)  -->
<svg version="1.1" id="Layer_1" xmlns="http://www.w3.org/2000/svg" xmlns:xlink="http://www.w3.org/1999/xlink" x="0px" y="0px"
	 viewBox="0 0 128.5 93.3" style="enable-background:new 0 0 128.5 93.3;" xml:space="preserve">
<style type="text/css">
	.st0{fill:#235958;}
	.st1{fill:#EF5316;}
</style>
<g>
	<path class="st0" d="M33.6,73.3h-2.5c-0.9,6.6-2.6,11.5-5.1,14.6c-3,3.6-7.7,5.5-14,5.5c-3.4,0-6.2-0.8-8.4-2.3
		C1.2,89.2,0,86.8,0,83.6c0-3.3,1.8-8.3,5.3-15l1,0.5c-1.7,3.3-2.5,6-2.5,7.9c0,3.1,0.7,5.2,2,6.2c1.8,1.3,4.7,1.9,8.8,1.9
		c4.3,0,7.6-0.7,10.1-2.1c1.8-1,2.9-3,3.5-6c0.3-1.4,0.4-2.4,0.4-2.9c0-0.9-0.5-2-1.4-3.3c-1.3-1.8-2-2.8-2.2-3.2
		c0.8-1.6,1.9-4,3.5-7.2c0.6,1,1.3,1.9,2,2.8c0.7,0.9,1.7,1.3,3.1,1.3V73.3L33.6,73.3z"/>
	<path class="st0" d="M54.1,60.7c0,2.7-0.5,5.1-1.6,7.2c-1.3,2.6-3.2,3.9-5.6,3.9c-2.5,0-4.4-1.5-5.9-4.6c-1.9,4-4.5,6-8,6v-8.8
		c4.6,0,6.9-1.3,6.9-3.8c0-0.4,0-1.1-0.1-1.9c-0.1-0.8-0.1-1.4-0.2-1.6l1-0.1c0.5,2.1,1.4,3.9,2.7,5.3c1.4,1.6,3.2,2.3,5.2,2.3
		c0.4,0,1-0.2,1.8-0.6s1.1-0.8,1.1-1.1c0-0.7-0.4-1.7-1.2-2.9c-0.6-0.9-1.2-1.7-1.8-2.6c0.5-1.4,1.1-3.6,1.9-6.5
		C52.9,53.4,54.1,56.6,54.1,60.7z M48.2,47.3l-3.1,5L40.5,49l-2.4,4.3l-5-3.7l3-5l4.5,3.7l2.8-4.5L48.2,47.3z M42.7,39.6l-2.9,5.1
		L34.9,41l3.1-5.1L42.7,39.6z"/>
	<path class="st0" d="M80.8,65.5c0,5.7-1.1,11.1-3.3,16c-2.8,6.3-6.7,9.5-11.7,9.5c-2.8,0-6.5-1.1-11.3-3.4l0.7-1
		c1.7,0.4,2.8,0.6,3.3,0.6c3.2,0,6.6-1.5,10.2-4.4c3.3-2.6,5.8-5.5,7.5-8.7c1.2-2.3,1.8-4.9,1.8-7.9c-1.4,2.4-3,3.5-4.7,3.5
		c-1.4,0-2.5-0.6-3.3-1.8c-0.7-1.1-1-2.3-1-3.8c0-2.5,0.5-5.1,1.4-7.6c1.2-3.3,2.8-5,4.9-5c1.9,0,3.3,2,4.3,5.9
		C80.5,60,80.8,62.7,80.8,65.5z M76.3,62.1c-0.5-2.1-1.5-3.1-3-3.1c-1.2,0-1.8,0.6-1.8,1.8c0,0.6,0.3,1.2,0.8,1.5
		c0.5,0.4,1.1,0.6,1.8,0.6C74.8,62.9,75.5,62.6,76.3,62.1z"/>
	<path class="st0" d="M112.7,73.3h-3.9c-0.7,5-1.9,9.3-3.6,12.6c-2.5,4.8-5.7,7.2-9.8,7.2c-2.9,0-6.5-1.4-10.7-4.3l0.6-1
		c1.7,0.3,2.9,0.5,3.7,0.5c2.8,0,5.8-1.2,8.8-3.5c1.3-1,2.8-2.8,4.6-5.6c1.3-2.1,2.6-4.3,3.9-6.4c-2.4-0.8-4.1-2.8-5.3-5.9l4.5-6.6
		c1.5,3,3.2,4.5,5.1,4.5h2.1L112.7,73.3L112.7,73.3z"/>
	<path class="st1" d="M118.2,15.1l-0.3,3.7c-0.6-0.4-1.6-1-3-1.9c-2.9,3.6-5.4,5.4-7.5,5.4c-0.5,0-1.2-0.1-2.3-0.4
		c2.4-1.3,5-3.2,8-5.9c-1.6-1.3-2.3-2.4-2.3-3.5c0-1.3,0.5-2.7,1.4-4.2s2-2.3,3.2-2.3c1.6,0,2.4,1.1,2.4,3.3c0,1.6-0.4,3.1-1.1,4.5
		C117.3,14.4,117.7,14.8,118.2,15.1z M115.6,11.7c0-0.5-0.2-1-0.6-1.6s-0.8-0.8-1.3-0.8s-0.8,0.3-0.8,1c0,0.5,0.9,1.3,2.6,2.6
		C115.5,12.3,115.6,11.9,115.6,11.7z"/>
	<path class="st1" d="M128.5,60.2c0,8.7-4.7,13.1-14.2,13.1h-2.7v-8.4h3.7c7,0,10.5-1.3,10.5-3.9c0-0.6-0.5-2.1-1.6-4.5
		c-0.8,1.7-1.5,2.9-2.3,3.5c-0.9,0.8-2.2,1.2-3.9,1.2c-3.1,0-4.6-1.4-4.6-4.2c0-0.6,0.2-1.8,0.5-3.6c1.5-8.8,3.8-13.3,6.8-13.3
		c2.5,0,4.5,2.8,6,8.4C128,52.6,128.5,56.5,128.5,60.2z M127.3,31.9l-3,5.2l-4.7-3.2l-2.2,4.1l-5.1-3.7l2.9-5.1l4.6,3.6l2.7-4.6
		L127.3,31.9z M121.4,51c-1-1.6-2-2.4-3-2.4c-1.1,0-1.6,0.7-1.6,2c0,1.6,0.7,2.4,2.1,2.4C119.8,53,120.6,52.3,121.4,51z"/>
</g>
</svg>
