<?xml version="1.0" encoding="utf-8"?>
<!-- Generator: Adobe Illustrator 22.0.1, SVG Export Plug-In . SVG Version: 6.00 Build 0)  -->
<svg version="1.1" id="Layer_1" xmlns="http://www.w3.org/2000/svg" xmlns:xlink="http://www.w3.org/1999/xlink" x="0px" y="0px"
	 viewBox="0 0 93.9 83.6" style="enable-background:new 0 0 93.9 83.6;" xml:space="preserve">
<style type="text/css">
	.st0{fill:#235958;}
	.st1{fill:#EF5316;}
</style>
<g>
	<path class="st0" d="M37.3,43.5h-3.7c-3.2,0-5.4-3.3-6.8-10.1c0,1.8,0.2,4.4,0.5,7.8c0.3,3.4,0.5,6,0.5,7.8c0,5.2-1.4,9.2-4.3,12.1
		c-2.8,2.8-6.9,4.3-12.1,4.3c-3.4,0-6.2-0.9-8.2-2.7C1.1,60.9,0,58.3,0,54.9c0-4.5,1.7-9.6,5-15.4l1.1,0.6C4.1,43.9,3,47,3,49.3
		c0,4.5,3.3,6.7,9.8,6.7c8.4,0,12.6-2.5,12.6-7.5c0-2.1-0.2-4.6-0.6-7.6c-0.4-2.6-0.7-5.1-1-7.7c-0.2-1.3-0.3-3.7-0.5-7.2
		c-0.5-11.7-0.8-17.2-0.8-16.6c0-1.7,0.4-3.4,1.2-5C24,3.8,25,2.3,26.5,0c0.2,5.9,0.5,11.8,0.7,17.6c0.6,8.9,1.7,14.3,3.3,16.1
		c0.8,1,2.1,1.4,3.9,1.4h2.7v8.4H37.3z"/>
	<path class="st0" d="M71.1,24.4L70.2,31c-1.1,0.2-2.5,0.2-4.4,0.2c-3.8,0-7.3,0.8-10.5,2.4c-1.6,0.8-3.8,2.3-6.6,4.5
		s-4.9,3.7-6.4,4.5c-1.1,0.6-1.8,0.9-2.1,0.9h-3.9v-8.4h4.1c2,0,4-0.4,6-1.2c0.8-0.3,2.9-1.4,6.4-3.2c-3.1-1.6-5.5-2.4-7.2-2.4
		c-1.1,0-2,0.5-2.6,1.5h-5c0.8-3.1,1.6-5.3,2.4-6.7c1.4-2.1,3.4-3.1,6-3.1c1.6,0,4,0.6,7.1,1.8c5,1.9,9.4,2.9,13.3,2.9
		c0.5,0,1.2,0,2.1-0.1C69.9,24.5,70.6,24.4,71.1,24.4z M59.7,46.8l-2.9,5.1L51.9,48l3.1-5L59.7,46.8z"/>
	<path class="st1" d="M88.1,65.4c0,1.8-0.6,3.1-1.9,3.8l-10.9,6.3c0-1.2,0.1-2,0.4-2.4c0.3-0.5,1-1,2.1-1.6L88.1,65.4z"/>
	<path class="st1" d="M93.9,41.6c0,4.5-1.1,8.7-3.3,12.7c-2.6,4.8-6,7.2-10.2,7.2c-2.5,0-5.7-1.3-9.7-3.9l0.5-1
		c1.2,0.3,2.1,0.4,2.9,0.4c3.4,0,7.1-1.6,11.1-4.9c4-3.2,6-6.5,6-9.7c0-1.2-0.8-2.9-2.5-5.2c-1.2-1.6-2.5-3.1-3.7-4.7
		c0.8-3.6,1.4-6.5,1.8-8.6C91.5,29,93.9,34.9,93.9,41.6z"/>
</g>
<g>
	<path class="st0" d="M46.8,7.1c0,1.6-0.5,3-1.6,4.2c-1.1,1.2-2.5,1.8-4.1,1.8c-2.7,0-4-1.5-4-4.5c0-1.9,0.4-3.5,1.1-4.8
		c1-1.5,2.3-2.3,4.1-2.3c1.3,0,2.4,0.6,3.2,1.8C46.3,4.5,46.8,5.8,46.8,7.1z M44.7,8.1c0-0.6-0.5-1.3-1.6-2.1
		c-1.1-0.8-2-1.2-2.6-1.2S39.4,5,38.9,5.5c-0.5,0.6-0.7,1.1-0.7,1.7c0,1.5,1.1,2.2,3.3,2.2C43.6,9.6,44.7,9.1,44.7,8.1z"/>
</g>
</svg>
