<?xml version="1.0" encoding="utf-8"?>
<!-- Generator: Adobe Illustrator 22.0.1, SVG Export Plug-In . SVG Version: 6.00 Build 0)  -->
<svg version="1.1" id="Layer_1" xmlns="http://www.w3.org/2000/svg" xmlns:xlink="http://www.w3.org/1999/xlink" x="0px" y="0px"
	 viewBox="0 0 86.2 86.2" style="enable-background:new 0 0 86.2 86.2;" xml:space="preserve">
<style type="text/css">
	.st0{fill:#235958;}
</style>
<g>
	<path class="st0" d="M42.9,26.8c0,4.2-1.3,6.3-3.9,6.3c-0.6,0-1.4-0.3-2.4-0.8c-1,2.2-2.3,3.3-4.1,3.3c-2,0-3-1.5-3-4.4
		c0-0.7,0.3-1.9,0.9-3.6l0.8-0.2c0,2.8,0.5,4.3,1.5,4.3c1,0,1.9-0.8,2.6-2.4c0.5-1.3,0.8-2.6,0.8-3.8l0.7-0.2
		c0.6,2.5,1.4,3.8,2.3,3.8c1.5,0,2.3-1.9,2.5-5.6l0.7-0.4C42.7,24.2,42.9,25.5,42.9,26.8z"/>
</g>
<g>
	<polygon class="st0" points="40.2,62.8 45.2,66.4 48.2,61.3 43.3,57.7 	"/>
	<path class="st0" d="M52.5,46.4h-1h-1.1c-4.3,0-6.7-1.6-7.1-4.7l-0.5-0.1c0,2.4-0.1,3.6-0.2,3.8c-0.6,0.6-1.9,1-3.9,1h-1h-2.1H23.1
		v8.4h12.4h2.1h0.6c2,0,3.7-1.5,5.2-4.6c1.1,3.1,2.9,4.6,5.4,4.6h2.7h1H66v-8.4H52.5z"/>
</g>
</svg>
