<?xml version="1.0" encoding="utf-8"?>
<!-- Generator: Adobe Illustrator 19.2.0, SVG Export Plug-In . SVG Version: 6.00 Build 0)  -->
<svg version="1.1" id="Layer_1" xmlns="http://www.w3.org/2000/svg" xmlns:xlink="http://www.w3.org/1999/xlink" x="0px" y="0px"
	 viewBox="0 0 62 37.1" style="enable-background:new 0 0 62 37.1;" xml:space="preserve">
<style type="text/css">
	.st0{fill:none;stroke:#42210B;stroke-width:1.125;stroke-linecap:round;stroke-linejoin:round;stroke-miterlimit:10;}
	.st1{fill:url(#SVGID_1_);}
	.st2{fill:url(#SVGID_2_);}
	.st3{fill:url(#SVGID_3_);}
	.st4{fill:url(#SVGID_4_);}
	.st5{fill:url(#SVGID_5_);}
	.st6{fill:none;stroke:#002C5F;stroke-width:1.8924;stroke-linecap:round;stroke-linejoin:round;stroke-miterlimit:10;}
	.st7{fill:none;stroke:#42210B;stroke-width:1.8924;stroke-linecap:round;stroke-linejoin:round;stroke-miterlimit:10;}
	.st8{fill:#42210B;}
	.st9{opacity:0.5;}
	.st10{fill:url(#SVGID_6_);}
	.st11{fill:url(#SVGID_7_);}
	.st12{fill:#FFFFFF;}
	.st13{fill:#F1C471;}
</style>
<g>
	<g>
		<g>
			<g>
				<g>
					<path class="st0" d="M43.5,0.6h-25c-9.9,0-18,8.1-18,18v0c0,9.9,8.1,18,18,18h25c9.9,0,18-8.1,18-18v0
						C61.5,8.7,53.4,0.6,43.5,0.6z"/>
				</g>
				<g>
					<linearGradient id="SVGID_1_" gradientUnits="userSpaceOnUse" x1="31.0205" y1="52.1422" x2="31.0205" y2="-15.0612">
						<stop  offset="5.618000e-003" style="stop-color:#F9C727"/>
						<stop  offset="0.2528" style="stop-color:#FFFACA"/>
						<stop  offset="0.3048" style="stop-color:#F8EEB9"/>
						<stop  offset="0.408" style="stop-color:#E6D08C"/>
						<stop  offset="0.5516" style="stop-color:#CAA044"/>
						<stop  offset="0.5955" style="stop-color:#C1902D"/>
						<stop  offset="0.8708" style="stop-color:#ECD487"/>
						<stop  offset="1" style="stop-color:#FFFACA"/>
					</linearGradient>
					<path class="st1" d="M43.5,0.6h-25c-9.9,0-18,8.1-18,18v0c0,9.9,8.1,18,18,18h25c9.9,0,18-8.1,18-18v0
						C61.5,8.7,53.4,0.6,43.5,0.6z"/>
				</g>
			</g>
			<g>
				<g>
					<g>
						
							<linearGradient id="SVGID_2_" gradientUnits="userSpaceOnUse" x1="31.4922" y1="31.8421" x2="31.4922" y2="5.8206" gradientTransform="matrix(1 0 0 1 0 -1)">
							<stop  offset="0" style="stop-color:#AF650C"/>
							<stop  offset="1" style="stop-color:#F1C471"/>
						</linearGradient>
						<path class="st2" d="M41.6,34.6H21.4c-9.8,0-17.7-7.4-17.7-16.6c0-9.1,8-16.6,17.7-16.6h20.2c9.8,0,17.7,7.4,17.7,16.6
							C59.3,27.2,51.4,34.6,41.6,34.6z M21.4,8.6c-5.9,0-10.6,4.2-10.6,9.5c0,5.2,4.8,9.5,10.6,9.5h20.2c5.9,0,10.6-4.2,10.6-9.5
							c0-5.2-4.8-9.5-10.6-9.5H21.4z"/>
					</g>
					<g>
						
							<linearGradient id="SVGID_3_" gradientUnits="userSpaceOnUse" x1="31.4942" y1="26.367" x2="31.4942" y2="11.4979" gradientTransform="matrix(1 0 0 1 0 -1)">
							<stop  offset="0" style="stop-color:#AF650C"/>
							<stop  offset="1" style="stop-color:#F1C471"/>
						</linearGradient>
						<path class="st3" d="M21.4,8.6c-5.9,0-10.6,4.2-10.6,9.5c0,5.2,4.8,9.5,10.6,9.5h20.2c5.9,0,10.6-4.2,10.6-9.5
							c0-5.2-4.8-9.5-10.6-9.5H21.4z"/>
					</g>
				</g>
				<g>
					<g>
						<linearGradient id="SVGID_4_" gradientUnits="userSpaceOnUse" x1="31.4927" y1="31.3153" x2="31.4927" y2="5.2943">
							<stop  offset="0" style="stop-color:#F1C471"/>
							<stop  offset="1" style="stop-color:#AF650C"/>
						</linearGradient>
						<path class="st4" d="M41.6,34.6H21.4c-9.7,0-17.5-7.3-17.5-16.3S11.7,2,21.4,2h20.2c9.7,0,17.5,7.3,17.5,16.3
							S51.3,34.6,41.6,34.6z M21.4,8.6c-6,0-10.9,4.4-10.9,9.7c0,5.3,4.9,9.7,10.9,9.7h20.2c6,0,10.9-4.4,10.9-9.7
							c0-5.3-4.9-9.7-10.9-9.7H21.4z"/>
					</g>
					<g>
						<linearGradient id="SVGID_5_" gradientUnits="userSpaceOnUse" x1="31.4927" y1="31.3153" x2="31.4927" y2="5.2943">
							<stop  offset="5.618000e-003" style="stop-color:#F9C727"/>
							<stop  offset="0.2528" style="stop-color:#FFFACA"/>
							<stop  offset="0.3048" style="stop-color:#F8EEB9"/>
							<stop  offset="0.408" style="stop-color:#E6D08C"/>
							<stop  offset="0.5516" style="stop-color:#CAA044"/>
							<stop  offset="0.5955" style="stop-color:#C1902D"/>
							<stop  offset="0.8708" style="stop-color:#ECD487"/>
							<stop  offset="1" style="stop-color:#FFFACA"/>
						</linearGradient>
						<path class="st5" d="M41.6,34.6H21.4c-9.7,0-17.5-7.3-17.5-16.3S11.7,2,21.4,2h20.2c9.7,0,17.5,7.3,17.5,16.3
							S51.3,34.6,41.6,34.6z M21.4,8.6c-6,0-10.9,4.4-10.9,9.7c0,5.3,4.9,9.7,10.9,9.7h20.2c6,0,10.9-4.4,10.9-9.7
							c0-5.3-4.9-9.7-10.9-9.7H21.4z"/>
					</g>
				</g>
				<g>
					<path class="st6" d="M21.4,4.8c-7.8,0-14.2,5.9-14.2,13c0,7.2,6.4,13,14.2,13h20.2c7.8,0,14.2-5.9,14.2-13
						c0-7.2-6.4-13-14.2-13H21.4z"/>
					<path class="st7" d="M21.4,4.8c-7.8,0-14.2,5.9-14.2,13c0,7.2,6.4,13,14.2,13h20.2c7.8,0,14.2-5.9,14.2-13
						c0-7.2-6.4-13-14.2-13H21.4z"/>
				</g>
				<g>
					<path class="st7" d="M21.4,5.3c-7.8,0-14.2,5.9-14.2,13c0,7.2,6.4,13,14.2,13h20.2c7.8,0,14.2-5.9,14.2-13
						c0-7.2-6.4-13-14.2-13H21.4z"/>
				</g>
				<g>
					<path class="st8" d="M21.4,5.3c-7.8,0-14.2,5.9-14.2,13c0,7.2,6.4,13,14.2,13h20.2c7.8,0,14.2-5.9,14.2-13
						c0-7.2-6.4-13-14.2-13H21.4z"/>
				</g>
				<g class="st9">
					
						<linearGradient id="SVGID_6_" gradientUnits="userSpaceOnUse" x1="-123.1742" y1="909.1375" x2="-123.1742" y2="883.1165" gradientTransform="matrix(0.9 0 0 0.5 142.3495 -434.4904)">
						<stop  offset="0" style="stop-color:#DEDCFF;stop-opacity:0"/>
						<stop  offset="1" style="stop-color:#591900"/>
					</linearGradient>
					<path class="st10" d="M24.5,7.2c-7,0-12.8,2.8-12.8,6.4c0,3.6,5.7,6.4,12.8,6.4h14.1c7,0,12.8-2.8,12.8-6.4
						c0-3.6-5.7-6.4-12.8-6.4H24.5z"/>
				</g>
			</g>
			<g>
				<linearGradient id="SVGID_7_" gradientUnits="userSpaceOnUse" x1="20.9062" y1="30.8416" x2="42.082" y2="30.8416">
					<stop  offset="0" style="stop-color:#FFFFFF;stop-opacity:0"/>
					<stop  offset="0.5" style="stop-color:#FFFFFF"/>
					<stop  offset="1" style="stop-color:#FFFFFF;stop-opacity:0"/>
				</linearGradient>
				<rect x="20.9" y="30.4" class="st11" width="21.2" height="0.9"/>
			</g>
			<g class="st9">
				<path class="st12" d="M29.8,7.7c0,0.3-2.1,0.5-5.2,0.5c-3.1,0-5.2-0.2-5.2-0.5c0-0.3,2.1-0.5,5.2-0.4
					C27.8,7.2,29.8,7.4,29.8,7.7z"/>
			</g>
			<path class="st12" d="M26,7.6c0,0.3-0.6,0.5-1.4,0.5c-0.8,0-1.4-0.2-1.4-0.4c0-0.3,0.6-0.5,1.4-0.5C25.4,7.2,26,7.4,26,7.6z"/>
		</g>
		<g>
			<g class="st9">
				<path class="st12" d="M39.2,0.6c1.6,0,2.8,0.3,2.8,0.7S40.8,2,39.2,2H23.7c-1.6,0-2.8-0.3-2.8-0.7s1.3-0.7,2.8-0.7H39.2z"/>
			</g>
			<g class="st9">
				<path class="st12" d="M16.1,0.6c-1.6,0-2.8,0.3-2.8,0.7S14.5,2,16.1,2h17C34.7,2,36,1.7,36,1.3s-1.3-0.7-2.8-0.7H16.1z"/>
			</g>
		</g>
		<g>
			<g class="st9">
				<path class="st13" d="M40,32.3c1.6,0,2.8,0.5,2.8,1.2c0,0.7-1.3,1.2-2.8,1.2H24.5c-1.6,0-2.8-0.5-2.8-1.2c0-0.7,1.3-1.2,2.8-1.2
					H40z"/>
			</g>
			<g class="st9">
				<path class="st12" d="M30.7,32.3c-1.6,0-2.8,0.5-2.8,1.2c0,0.7,1.3,1.2,2.8,1.2h6.2c1.6,0,2.8-0.5,2.8-1.2
					c0-0.7-1.3-1.2-2.8-1.2H30.7z"/>
			</g>
		</g>
	</g>
	<g id="_983676320_3_">
		<g>
			<path class="st12" d="M30.1,28.3c1,0.6,1.9,0.6,1.9-1.6v-5.2h10.5h1.3c1,0,1.9-0.6,1.9-1.6v-1.3l0,0v-1.3c0-1-1-1.9-1.9-1.9h-1.3
				H32.1V10c0-1.6-0.6-1.9-1.6-1.3l-11.9,9c-0.6,0.6-0.6,1.3,0,1.9L30.1,28.3z"/>
		</g>
	</g>
</g>
</svg>
