<?xml version="1.0" encoding="utf-8"?>
<!-- Generator: Adobe Illustrator 19.2.0, SVG Export Plug-In . SVG Version: 6.00 Build 0)  -->
<svg version="1.1" id="Layer_1" xmlns="http://www.w3.org/2000/svg" xmlns:xlink="http://www.w3.org/1999/xlink" x="0px" y="0px"
	 viewBox="0 0 292.5 49.8" style="enable-background:new 0 0 292.5 49.8;" xml:space="preserve">
<style type="text/css">
	.st0{fill:#002F3D;}
	.st1{fill:none;}
</style>
<g>
	<g>
		<path class="st0" d="M66.9,38.7c0.1,0,0.1,0,0.1,0c0,0.5-0.2,0.9-0.4,1l-3.2,1.8c-0.1,0-0.1,0-0.1,0c0-0.2,0.1-0.6,0.2-0.8
			c0.1-0.1,0.2-0.2,0.5-0.4L66.9,38.7z"/>
		<path class="st0" d="M67.3,31.9c0,2.7-1.2,4.7-3.3,5.6c-0.1,0.1-0.3,0.1-0.5,0.1c-0.7,0-2.2-0.4-3.2-0.9c-0.3-0.1-0.3-0.2-0.3-0.3
			c0-0.1,0.1-0.1,0.2-0.1c0.2,0,0.8,0.1,1.5,0.1c0.5,0,1-0.1,1.7-0.5c0.9-0.4,2.6-1.8,3-3c0.1-0.2,0.1-0.4,0.1-0.6
			c0-0.1,0-0.8-0.8-1.9c-0.3-0.4-0.4-0.6-0.6-1c0-0.1-0.1-0.1-0.1-0.2c0-0.2,0.3-1.1,0.5-1.3c0.1-0.1,0.1-0.2,0.2-0.2
			c0.4,0,1.1,1.4,1.4,2.5C67.3,30.8,67.3,31.3,67.3,31.9z"/>
		<path class="st0" d="M67.2,37.2c-0.3-0.1-0.3-0.2-0.3-0.3c0-0.1,0.1-0.1,0.3-0.1c0.2,0,0.9,0.1,1.4,0.1c0.5,0,0.9-0.1,1.6-0.5
			c1.9-1,3.1-2.3,3.1-3.3c0-0.1,0-0.3-0.1-0.5h-0.6c-0.4,0-1.2-0.1-1.7-0.4c-0.5-0.3-0.8-0.7-0.8-1.2c0-0.5,0.2-1.1,0.5-1.7
			c0.4-1,1-1.7,1.5-1.7c0.6,0,1.1,0.4,1.4,0.9c0.4,0.6,0.5,1.4,0.6,2.2h0.8c0.5,0,0.7,0.3,0.7,0.8c0,0.6-0.2,1-0.7,1l-0.8,0
			c-0.1,2.8-1,4.5-3.3,5.4c-0.1,0-0.3,0.1-0.5,0.1C69.6,38,68.3,37.7,67.2,37.2z M72.1,29.6c-0.1-0.1-0.2-0.2-0.4-0.2
			c-0.4,0-0.6,0.4-0.6,0.6c0,0.2,0.2,0.4,0.6,0.5c0.3,0.1,0.7,0.2,0.9,0.2c0.1,0,0.2,0,0.2-0.1C72.8,30.5,72.5,29.9,72.1,29.6z"/>
		<path class="st0" d="M81.6,28.9c0.1,0,0.1,0.1,0.1,0.4c0,0.1,0,0.2,0,0.4c0,0.6,0.4,0.9,0.9,0.9c0.8,0,1.2-0.8,1.5-1.4
			c0-0.1,0.1-0.3,0.3-0.3c0.1,0,0.2,0.1,0.2,0.5c0.1,0.8,0.5,1.3,1.2,1.4h0.2c0.6,0,0.8,0.3,0.8,0.8c0,0.7-0.3,1-0.8,1h-0.2
			c-1,0-1.5-0.5-1.7-1.5c-0.3,0.7-0.9,1.5-1.8,1.5c-0.8,0-1.3-0.7-1.3-1.5c-0.3,0.9-1.2,1.5-2.1,1.5c-1,0-1.6-0.3-1.8-1.2
			c-0.1,0.3-0.3,0.6-0.6,0.9c-0.3,0.2-0.8,0.4-1.7,0.4h-0.2c-0.5,0-0.8-0.3-0.8-0.9c0-0.6,0.3-0.9,0.8-0.9h0.2
			c1.2,0,2.1-0.4,2.5-1.3c0-0.1,0.1-0.3,0.2-0.3c0.1,0,0.2,0.1,0.2,0.4c0,0.7,0.6,1,1.4,1c1,0,1.7-0.4,2.2-1.4
			C81.4,29.1,81.5,28.9,81.6,28.9z"/>
		<path class="st0" d="M88.9,15c0.5,0,1.3,0.8,1.3,1.6c0,0.3-0.1,0.6-0.2,0.9c-0.2,0.6-0.7,1-1.4,1c-0.6,0-1.1-0.5-1.1-1
			C87.6,16.7,88.5,15,88.9,15z M88.7,16.2c-0.2,0-0.6,0.5-0.6,0.8c0,0.2,0.3,0.4,0.6,0.4c0.4,0,0.9-0.2,0.9-0.4
			C89.6,16.9,89.1,16.2,88.7,16.2z"/>
		<path class="st0" d="M95.4,18.2c0.1,0,0.1,0,0.1,0.1c0,0.3-0.4,1.1-0.5,1.3c0,0.1-0.1,0.1-0.1,0.1c-0.6,0.3-3.8,1.6-6.4,3.1
			c-0.5,0.3-0.9,0.6-1.3,1c0.6,0.5,1.3,1,1.8,1.5c1.7,1.4,2.9,2.3,4.3,3.7c1.2,1.3,2,1.7,2.4,1.7h0.2c0.5,0,0.7,0.3,0.7,0.8
			c0,0.6-0.2,1-0.7,1h-0.4c-0.5,0-1-0.3-1.7-0.8c-0.4-0.3-1-0.9-1.7-1.7c-0.8-0.8-1.4-1.3-1.8-1.6c0,0.3,0.1,0.6,0.1,0.9
			c0,0.5-0.1,1-0.2,1.4c-0.2,0.5-0.7,1-1.5,1.2c-1,0.3-1.9,0.5-2.8,0.5h-0.2c-0.5,0-0.7-0.3-0.7-0.9c0-0.6,0.2-0.8,0.8-0.8
			c0.7,0,1.6-0.1,2.8-0.3c0.7-0.2,1.1-0.5,1.2-0.9c-0.1-0.8-1.1-2-2.9-3.6c-0.4-0.4-0.6-0.7-0.6-1.1c0-1.4,0.2-1.9,0.4-2.1
			c0.7-0.7,1.3-1.1,2.1-1.6C91.5,19.6,95,18.3,95.4,18.2C95.3,18.2,95.4,18.2,95.4,18.2z"/>
		<path class="st0" d="M101.5,23c0.1,0,0.1,0,0.1,0c0,0.5-0.2,0.9-0.4,1L98,25.9c-0.1,0-0.1,0-0.1,0c0-0.2,0.1-0.6,0.2-0.8
			c0.1-0.1,0.2-0.2,0.5-0.4L101.5,23z"/>
		<path class="st0" d="M105,14.8c0.5,0,1.3,0.8,1.3,1.6c0,0.3-0.1,0.6-0.2,0.9c-0.2,0.6-0.7,1-1.4,1c-0.6,0-1.1-0.5-1.1-1
			C103.7,16.5,104.6,14.8,105,14.8z M104.9,16.1c-0.2,0-0.6,0.5-0.6,0.8c0,0.2,0.3,0.4,0.6,0.4c0.4,0,0.9-0.2,0.9-0.4
			C105.8,16.7,105.3,16.1,104.9,16.1z"/>
		<path class="st0" d="M106.4,28.6c0,1.3-0.3,2.4-0.8,3.2c-0.4,0.5-1.2,0.8-1.8,0.8c-0.6,0-1.2-0.2-1.7-0.6c-0.1,0.5-0.6,1-0.9,1.2
			c-0.1,0-0.1,0-0.2,0c-0.9-0.2-2.6-0.8-3.3-1.7c-0.4,0.8-1,1.1-1.9,1.1h-0.3c-0.5,0-0.7-0.3-0.7-0.9c0-0.6,0.2-0.9,0.7-0.9h0.2
			c1.6,0,2.5-0.9,3.2-1.7c0.4-0.5,0.7-0.8,1.1-0.8c0.2,0,0.4,0.1,0.6,0.3c0.7,0.8,2,2.2,3.2,2.2c0.4,0,1.3-0.1,1.6-0.5v0
			c0-1.4-0.6-4.8-0.8-7.5c-0.1-0.3-0.2-0.8-0.2-1.2c0-0.1,0-0.1,0-0.2c0,0,0-0.1,0-0.1c0-0.1,0.1-0.4,0.3-0.7s0.5-0.8,0.6-0.8
			c0.1,0,0.1,0.1,0.1,0.2c0.2,0.8,0.5,1.1,0.7,1.4c0,0.1,0.1,0.1,0.1,0.2s0,0.1,0,0.2c-0.1,0.2-0.3,0.7-0.4,0.9
			C106,25.2,106.4,27.3,106.4,28.6z M99.6,29.7c-0.2,0-0.4,0.2-0.5,0.3c-0.1,0.1-0.1,0.2,0,0.4c0.3,0.2,1.4,0.7,1.7,0.8
			c0.2,0.1,0.3,0.1,0.3,0.1c0.2,0,0.1-0.2,0-0.3C100.8,30.6,100.2,29.7,99.6,29.7z"/>
		<path class="st0" d="M109.5,32.5c-0.1,0-0.1-0.1-0.1-0.5c0-2.4-0.9-8.9-0.9-10c0-0.5,0.4-1.4,0.7-1.9c0.1-0.2,0.3-0.4,0.4-0.4
			c0.1,0,0.1,0.2,0.1,0.6c0.1,1.7,0.6,5.7,0.6,8.6c0,1.2-0.1,2.1-0.3,2.7C109.8,32.2,109.6,32.5,109.5,32.5z"/>
		<path class="st0" d="M121.2,34.4c0.1,0,0.1,0,0.1,0c0,0.5-0.2,0.9-0.4,1l-3.2,1.8c-0.1,0-0.1,0-0.1,0c0-0.2,0.1-0.6,0.2-0.8
			c0.1-0.1,0.2-0.2,0.5-0.4L121.2,34.4z"/>
		<path class="st0" d="M122.3,29.3c0,0.7-0.1,1.4-0.2,1.6c-0.3,1.2-1.6,1.6-3.9,1.6c-0.5,0-0.8-0.1-0.9-0.2
			c-0.2-0.2-0.2-0.5-0.2-0.9c0-0.3,0-0.5,0.1-0.7c0.1-0.3,0.1-0.4,0.2-0.4c0.1,0,0.1,0.1,0.2,0.1c0.2,0.2,0.7,0.2,1.3,0.2
			c1,0,2.1-0.2,2.6-0.5c0.1,0,0.1-0.1,0.1-0.1c0,0,0-0.1,0-0.1c-0.3-1.1-1.7-3.1-2.8-3.1c-0.2,0-0.3,0.2-0.4,0.2c0,0-0.1,0-0.1-0.1
			c0-0.4,0.3-1.4,0.6-1.7c0.1-0.1,0.2-0.1,0.4-0.1c0.3,0,0.6,0.1,0.8,0.2c0.5,0.2,1.2,0.9,1.7,1.9C122.1,27.9,122.3,28.6,122.3,29.3
			z"/>
		<path class="st0" d="M127.6,21.2c-0.6,0-0.9-0.6-0.9-1.2c0-0.2,0-0.4,0.1-0.6c0-0.2,0.2-0.6,0.4-0.6c0.1,0,0.2,0.2,0.2,0.5v0.2
			c0,0.3,0.2,0.4,0.5,0.4h0c0.4,0,0.6-0.3,0.7-0.8c0-0.2,0.2-0.8,0.5-0.8c0.1,0,0.2,0.1,0.2,0.4c0,0.2,0.1,0.3,0.3,0.3
			c0.4,0,0.6-0.3,0.7-0.7c0.1-0.5,0.2-0.7,0.3-0.7c0.2,0,0.2,0.5,0.2,0.8c0,0.2,0,0.5-0.1,0.8c-0.2,0.5-0.5,0.9-1.2,0.9
			c-0.2,0-0.3-0.1-0.4-0.1c-0.1,0-0.1,0-0.2,0.1C128.6,20.8,128.2,21.2,127.6,21.2z M130.6,15.8C130.7,15.8,130.7,15.9,130.6,15.8
			c0,0.4-0.1,0.7-0.3,1c-0.1,0.1-0.2,0.2-0.4,0.2l-3.1,1.5c0,0-0.1,0-0.1,0c0-0.1,0.1-0.4,0.2-0.6c0.1-0.3,0.2-0.3,0.2-0.4
			c0.1-0.1,0.1-0.1,0.3-0.2L130.6,15.8z"/>
		<path class="st0" d="M132.1,30.7h0.3c0.5,0,0.8,0.3,0.8,0.9c0,0.6-0.3,0.9-0.8,0.9h-0.2c-0.6,0-1.1-0.2-1.4-0.5
			c-0.4-0.3-0.6-0.8-0.9-1.5c-0.3,1.2-1.8,2.1-3.6,2.1c-0.5,0-1.1-0.1-1.7-0.4c-0.3-0.2-0.5-0.5-0.5-0.8c0-0.4,0.1-1,0.3-1.5
			c0.1-0.2,0.2-0.3,0.3-0.3c0.1,0,0.2,0.1,0.2,0.3c0.2,0.6,0.9,0.8,1.8,0.8c1.7,0,2.5-0.4,2.8-1c0-0.2,0-0.3,0-0.5
			c0-1-0.3-2.3-0.6-3.5c0-0.2,0-0.3,0-0.4c0-0.1,0-0.3,0.4-1.1c0.1-0.3,0.2-0.5,0.3-0.5c0.1,0,0.1,0.1,0.2,0.5
			c0.6,2.6,0.6,4.4,0.9,5.5c0.1,0.3,0.2,0.5,0.4,0.7C131.4,30.5,131.7,30.7,132.1,30.7z"/>
		<path class="st0" d="M140,15.6c0.1,0,0.1,0,0.1,0c0,0.5-0.2,0.9-0.4,1l-3.2,1.8c-0.1,0-0.1,0-0.1,0c0-0.2,0.1-0.6,0.2-0.8
			c0.1-0.1,0.2-0.2,0.5-0.4L140,15.6z"/>
		<path class="st0" d="M139,28.9c0.1,0,0.1,0.1,0.1,0.4c0,0.1,0,0.2,0,0.4c0,0.6,0.4,0.9,0.9,0.9c0.8,0,1.2-0.8,1.5-1.4
			c0-0.1,0.1-0.3,0.3-0.3c0.1,0,0.2,0.1,0.2,0.5c0.1,0.8,0.5,1.3,1.2,1.4h0.2c0.6,0,0.8,0.3,0.8,0.8c0,0.7-0.3,1-0.8,1h-0.2
			c-1,0-1.5-0.5-1.7-1.5c-0.3,0.7-0.9,1.5-1.8,1.5c-0.8,0-1.3-0.7-1.3-1.5c-0.3,0.9-1.2,1.5-2.1,1.5c-1,0-1.6-0.3-1.8-1.2
			c-0.1,0.3-0.3,0.6-0.6,0.9c-0.3,0.2-0.8,0.4-1.7,0.4H132c-0.5,0-0.8-0.3-0.8-0.9c0-0.6,0.3-0.9,0.8-0.9h0.2c1.2,0,2.1-0.4,2.5-1.3
			c0-0.1,0.1-0.3,0.2-0.3c0.1,0,0.2,0.1,0.2,0.4c0,0.7,0.6,1,1.4,1c1,0,1.7-0.4,2.2-1.4C138.8,29.1,138.9,28.9,139,28.9z
			 M139.6,24.5c0.1-0.1,0.2-0.2,0.3-0.1c0.4,0.4,0.8,0.8,1.2,1.1c0.1,0.1,0.1,0.1,0,0.2c-0.4,0.4-0.7,0.8-1.1,1.2
			c-0.1,0.1-0.1,0.1-0.2,0c-0.3-0.2-0.7-0.6-1.1-1c-0.2,0.3-0.7,0.8-0.9,0.9c-0.1,0.1-0.2,0.1-0.3,0c-0.4-0.2-0.9-0.7-1.2-1.1
			c-0.1-0.1-0.1-0.1,0-0.3c0.3-0.4,0.7-0.8,1.1-1.2c0.1-0.1,0.1-0.1,0.2,0c0.3,0.3,0.8,0.8,1.1,1C139,25.2,139.4,24.7,139.6,24.5z
			 M139.9,22c0.1,0,0.1,0.1,0,0.2c-0.2,0.2-0.8,1-1.1,1.3c-0.1,0.1-0.1,0.1-0.2,0c-0.4-0.2-1.2-0.8-1.4-1.1c-0.1-0.1-0.1-0.1,0-0.2
			c0.3-0.4,0.7-0.9,1-1.2c0.2-0.2,0.2-0.2,0.2-0.1C138.8,21.1,139.4,21.6,139.9,22z"/>
		<path class="st0" d="M148.9,22c0,0.4-0.1,0.8-0.2,1.2c0.2,0.1,0.3,0.2,0.3,0.3c0,0.3-0.1,0.6-0.3,0.8c0,0.1-0.1,0.1-0.1,0.1
			l-0.4-0.2c-0.4,0.6-1,1.4-1.9,1.8c-0.3,0.2-0.7,0.3-1.2,0.3c-0.2,0-0.3,0-0.3-0.1c0-0.1,0.2-0.2,0.4-0.3c0.7-0.4,2-1.4,2.4-2
			c-0.4-0.2-0.8-0.6-0.8-1.1c0-0.3,0.2-0.7,0.5-1c0.3-0.4,0.7-0.6,1-0.6C148.7,21,148.9,21.6,148.9,22z M147.5,22.4
			C147.5,22.4,147.5,22.4,147.5,22.4c0,0.2,0.3,0.4,0.6,0.5c0.1-0.1,0.1-0.3,0.1-0.5c0-0.2-0.1-0.3-0.3-0.3
			C147.8,22,147.6,22.2,147.5,22.4z"/>
		<path class="st0" d="M152.6,14.8c0.5,0,1.3,0.8,1.3,1.6c0,0.3-0.1,0.6-0.2,0.9c-0.2,0.6-0.7,1-1.4,1c-0.6,0-1.1-0.5-1.1-1
			C151.3,16.5,152.2,14.8,152.6,14.8z M152.4,16.1c-0.2,0-0.6,0.5-0.6,0.8c0,0.2,0.3,0.4,0.6,0.4c0.4,0,0.9-0.2,0.9-0.4
			C153.3,16.7,152.9,16.1,152.4,16.1z"/>
		<path class="st0" d="M154,28.6c0,1.3-0.3,2.4-0.8,3.2c-0.4,0.5-1.2,0.8-1.8,0.8c-0.6,0-1.2-0.2-1.7-0.6c-0.1,0.5-0.6,1-0.9,1.2
			c-0.1,0-0.1,0-0.2,0c-0.9-0.2-2.6-0.8-3.3-1.7c-0.4,0.8-1,1.1-1.9,1.1h-0.3c-0.5,0-0.7-0.3-0.7-0.9c0-0.6,0.2-0.9,0.7-0.9h0.2
			c1.6,0,2.5-0.9,3.2-1.7c0.4-0.5,0.7-0.8,1.1-0.8c0.2,0,0.4,0.1,0.6,0.3c0.7,0.8,2,2.2,3.2,2.2c0.4,0,1.3-0.1,1.6-0.5v0
			c0-1.4-0.6-4.8-0.8-7.5c-0.1-0.3-0.2-0.8-0.2-1.2c0-0.1,0-0.1,0-0.2c0,0,0-0.1,0-0.1c0-0.1,0.1-0.4,0.3-0.7s0.5-0.8,0.6-0.8
			c0.1,0,0.1,0.1,0.1,0.2c0.2,0.8,0.5,1.1,0.7,1.4c0,0.1,0.1,0.1,0.1,0.2s0,0.1,0,0.2c-0.1,0.2-0.3,0.7-0.4,0.9
			C153.6,25.2,154,27.3,154,28.6z M147.1,29.7c-0.2,0-0.4,0.2-0.5,0.3c-0.1,0.1-0.1,0.2,0,0.4c0.3,0.2,1.4,0.7,1.7,0.8
			c0.2,0.1,0.3,0.1,0.3,0.1c0.2,0,0.1-0.2,0-0.3C148.4,30.6,147.7,29.7,147.1,29.7z"/>
		<path class="st0" d="M157,32.5c-0.1,0-0.1-0.1-0.1-0.5c0-2.4-0.9-8.9-0.9-10c0-0.5,0.4-1.4,0.7-1.9c0.1-0.2,0.3-0.4,0.4-0.4
			c0.1,0,0.1,0.2,0.1,0.6c0.1,1.7,0.6,5.7,0.6,8.6c0,1.2-0.1,2.1-0.3,2.7C157.3,32.2,157.2,32.5,157,32.5z"/>
		<path class="st0" d="M172.1,35.4c0.1,0,0.1,0,0.1,0c0,0.5-0.2,0.9-0.4,1l-3.2,1.8c-0.1,0-0.1,0-0.1,0c0-0.2,0.1-0.6,0.2-0.8
			c0.1-0.1,0.2-0.2,0.5-0.4L172.1,35.4z"/>
		<path class="st0" d="M165.3,33.1c-0.7-0.7-1.1-1.6-1.1-2.7c0-1.2,0.7-2.5,1.1-3.1c0.2-0.2,0.3-0.3,0.4-0.3c0.1,0,0.1,0.1,0.1,0.1
			c0,0.1-0.1,0.3-0.1,0.4c-0.3,0.7-0.7,1.4-0.7,2.2c0,0.7,0.5,1.3,1.1,1.7c0.6,0.4,1.3,0.6,2.1,0.6c1.9,0,4.5-0.8,5-2.1
			c0-0.1,0-0.2,0-0.3c0-0.8-0.3-1.8-0.7-2.5c-0.2-0.3-0.3-0.5-0.4-0.7c0,0,0-0.1,0-0.1c0-0.2,0.1-0.4,0.1-0.6
			c0.1-0.3,0.2-0.6,0.3-0.8c0.1-0.1,0.1-0.2,0.2-0.2c0,0,0.1,0,0.2,0.2c0.6,1.2,1,2.3,1,3.7c0,1.1-0.1,1.8-0.3,2.1
			c-0.3,0.7-0.5,1-0.9,1.4c-0.4,0.4-1.1,0.9-2,1.3c-0.9,0.4-1.9,0.6-3.2,0.6C166.8,33.9,166,33.7,165.3,33.1z M170.5,22.2
			c0.1,0,0.1,0.1,0,0.2c-0.2,0.2-0.8,1-1.1,1.3c-0.1,0.1-0.1,0.1-0.2,0c-0.4-0.2-1.2-0.8-1.4-1.1c-0.1-0.1-0.1-0.1,0-0.2
			c0.3-0.4,0.7-0.9,1-1.2c0.2-0.2,0.2-0.2,0.2-0.1C169.4,21.3,169.9,21.8,170.5,22.2z"/>
		<path class="st0" d="M173.2,37.2c-0.3-0.1-0.3-0.2-0.3-0.3c0-0.1,0.1-0.1,0.3-0.1c0.2,0,0.9,0.1,1.4,0.1c0.5,0,0.9-0.1,1.6-0.5
			c1.9-1,3.1-2.3,3.1-3.3c0-0.1,0-0.3-0.1-0.5h-0.6c-0.4,0-1.2-0.1-1.7-0.4c-0.5-0.3-0.8-0.7-0.8-1.2c0-0.5,0.2-1.1,0.5-1.7
			c0.4-1,1-1.7,1.5-1.7c0.6,0,1.1,0.4,1.4,0.9c0.4,0.6,0.5,1.4,0.6,2.2h0.8c0.5,0,0.7,0.3,0.7,0.8c0,0.6-0.2,1-0.7,1l-0.8,0
			c-0.1,2.8-1,4.5-3.3,5.4c-0.1,0-0.3,0.1-0.5,0.1C175.5,38,174.2,37.7,173.2,37.2z M178.1,29.6c-0.1-0.1-0.2-0.2-0.4-0.2
			c-0.4,0-0.6,0.4-0.6,0.6c0,0.2,0.2,0.4,0.6,0.5c0.3,0.1,0.7,0.2,0.9,0.2c0.1,0,0.2,0,0.2-0.1C178.7,30.5,178.4,29.9,178.1,29.6z"
			/>
		<path class="st0" d="M181.8,22.2c0,0-0.1,0-0.1,0c-0.2,0-0.5-0.1-0.6-0.3c-0.2-0.3-0.3-0.6-0.3-1c0-0.2,0-0.4,0.1-0.6
			c0.1-0.2,0.2-0.5,0.4-0.5c0.1,0,0.1,0.1,0.1,0.3c0,0.1,0,0.2,0,0.3c0,0.3,0.2,0.5,0.5,0.5h0c0.3,0,0.6-0.2,0.7-0.7
			c0.1-0.2,0.2-0.8,0.5-0.8c0.1,0,0.2,0.1,0.2,0.3v0.1c0,0.2,0.1,0.3,0.3,0.3c0,0,0.1,0,0.1,0c0.3-0.1,0.5-0.3,0.6-0.6
			c0.1-0.4,0.2-0.6,0.3-0.6c0.1,0,0.1,0.1,0.2,0.2c0,0.1,0,0.3,0,0.4c0,0.3-0.1,0.6-0.2,0.9c-0.2,0.5-0.5,0.8-1.1,0.8
			c-0.2,0-0.3-0.1-0.4-0.1c-0.1,0-0.1,0-0.1,0C182.6,21.9,182.2,22.2,181.8,22.2z M184.4,15.8c0,0.1,0,0.2,0,0.2
			c0,0.3-0.1,0.7-0.2,1c0.1,0.1,0.2,0.2,0.2,0.3c0,0.2-0.1,0.5-0.3,0.7l-0.4-0.2c-0.4,0.6-0.8,1.1-1,1.2c-0.3,0.2-0.7,0.3-1.3,0.3
			c-0.3,0-0.4-0.1-0.3-0.1c1.1-0.6,1.8-1.2,2.1-1.7c-0.3-0.2-0.7-0.5-0.7-0.9c0-0.2,0.1-0.5,0.4-0.9c0.3-0.4,0.5-0.5,0.8-0.5
			C184.2,15.2,184.3,15.5,184.4,15.8z M183.2,16.4c0.1,0.1,0.2,0.3,0.5,0.4c0.1-0.1,0.1-0.3,0.1-0.4c0-0.2-0.1-0.3-0.3-0.3
			C183.4,16,183.3,16.1,183.2,16.4z"/>
		<path class="st0" d="M184.4,29.6c0,0.5,0.5,1,1.1,1.1c0.2,0,0.3,0,0.4,0h0.1c0.7,0,0.7,0.5,0.7,0.8c0,0.2,0,1-0.7,1h-0.1
			c-0.1,0-0.2,0-0.5,0c-1.2-0.1-1.6-1.2-1.7-1.3c-0.2,0.5-1.2,1.3-2.9,1.3h-0.1c-0.5,0-0.8-0.4-0.8-0.9c0-0.5,0.2-0.9,0.8-0.9h0.5
			c0.8,0,1.9-0.1,2.6-1.3c0.2-0.4,0.3-0.4,0.4-0.4C184.3,29,184.4,29.2,184.4,29.6z M185,25c0.1,0,0.1,0.1,0,0.2
			c-0.2,0.2-0.8,1-1.1,1.3c-0.1,0.1-0.1,0.1-0.2,0c-0.4-0.2-1.2-0.8-1.4-1.1c-0.1-0.1-0.1-0.1,0-0.2c0.3-0.4,0.7-0.9,1-1.2
			c0.2-0.2,0.2-0.2,0.2-0.1C183.9,24.1,184.5,24.7,185,25z"/>
		<path class="st0" d="M187.8,31.7c-0.4,0.5-0.9,0.8-1.8,0.8h-0.2c-0.5,0-0.8-0.3-0.8-1c0-0.6,0.3-0.8,0.8-0.8h0.2
			c0.4,0,0.8-0.1,1.1-0.2c0.3-0.1,0.5-0.2,0.5-0.3c0-1.4-0.5-4.2-0.7-7c0-0.3-0.2-1.3-0.3-1.7c0-0.1,0-0.1,0-0.2
			c0-0.2,0.3-0.7,0.4-1c0.2-0.4,0.4-0.7,0.6-0.7c0.1,0,0.1,0.1,0.1,0.2c0.2,0.8,0.5,1.2,0.6,1.4c0,0.1,0.1,0.2,0.1,0.2
			c0,0,0,0.1,0,0.1c-0.1,0.2-0.3,0.6-0.4,0.8c0.1,2.7,0.6,4.9,0.6,6.1C188.6,29.8,188.3,30.9,187.8,31.7z"/>
		<path class="st0" d="M192.2,32.5c-0.1,0-0.1-0.1-0.1-0.5c0-2.4-0.9-8.9-0.9-10c0-0.5,0.4-1.4,0.7-1.9c0.1-0.2,0.3-0.4,0.4-0.4
			c0.1,0,0.1,0.2,0.1,0.6c0.1,1.7,0.6,5.7,0.6,8.6c0,1.2-0.1,2.1-0.3,2.7C192.4,32.2,192.3,32.5,192.2,32.5z"/>
		<path class="st0" d="M209.9,14.8c0,0.4-0.1,0.8-0.2,1.2c0.2,0.1,0.3,0.2,0.3,0.3c0,0.3-0.1,0.6-0.3,0.8c0,0.1-0.1,0.1-0.1,0.1
			l-0.4-0.2c-0.4,0.6-1,1.4-1.9,1.8c-0.3,0.2-0.7,0.3-1.2,0.3c-0.2,0-0.3,0-0.3-0.1c0-0.1,0.2-0.2,0.4-0.3c0.7-0.4,2-1.4,2.4-2
			c-0.4-0.2-0.8-0.6-0.8-1.1c0-0.3,0.2-0.7,0.5-1c0.3-0.4,0.7-0.6,1-0.6C209.7,13.8,209.8,14.4,209.9,14.8z M208.4,15.2
			C208.4,15.2,208.4,15.2,208.4,15.2c0,0.2,0.3,0.4,0.6,0.5c0.1-0.1,0.1-0.3,0.1-0.5c0-0.2-0.1-0.3-0.3-0.3
			C208.7,14.8,208.5,15,208.4,15.2z"/>
		<path class="st0" d="M214.2,28c0,0.4-0.2,1.5-0.5,2.2c-0.2,0.5-0.3,0.7-0.9,1c-1.3,0.6-4.5,1.5-7.7,1.5c-4.2,0-5.8-1.4-5.8-3.3
			c0-0.7,0.3-1.9,0.8-2.6c0.2-0.2,0.3-0.5,0.5-0.5c0,0,0.1,0,0.1,0.1c0,0.1-0.1,0.2-0.1,0.4c-0.2,0.6-0.4,1.1-0.4,1.6
			c0,0.8,1.1,2.5,5.1,2.5c2.9,0,6-0.7,7.4-1.1c0.7-0.3,0.7-0.4,0.7-0.9c0-0.4-0.1-0.7-0.2-1c-0.2,0.4-0.7,0.8-1.4,0.8
			c-0.9,0-1.4-0.5-1.4-1.5c0-1.4,1.1-3.3,1.6-3.3C213.1,23.8,214.2,25.9,214.2,28z M210.3,21.6c0.1,0,0.1,0.1,0,0.2
			c-0.2,0.2-0.8,1-1.1,1.3c-0.1,0.1-0.1,0.1-0.2,0c-0.4-0.2-1.2-0.8-1.4-1.1c-0.1-0.1-0.1-0.1,0-0.2c0.3-0.4,0.7-0.9,1-1.2
			c0.2-0.2,0.2-0.2,0.2-0.1C209.2,20.8,209.7,21.3,210.3,21.6z M211.7,25.6c-0.2,0-0.5,0.3-0.6,0.6c0,0,0,0.1,0,0.1c0,0,0,0.1,0,0.1
			c0.1,0.2,0.4,0.4,0.8,0.4c0.3,0,0.6-0.1,0.7-0.3c0,0,0,0,0-0.1C212.7,26.3,212.3,25.6,211.7,25.6z"/>
		<path class="st0" d="M218.1,23.6c0.5,0,1.3,0.8,1.3,1.6c0,0.3-0.1,0.6-0.2,0.9c-0.2,0.6-0.7,1-1.4,1c-0.6,0-1.1-0.5-1.1-1
			C216.8,25.3,217.7,23.6,218.1,23.6z M217.9,24.9c-0.2,0-0.6,0.5-0.6,0.8c0,0.2,0.3,0.4,0.6,0.4c0.4,0,0.9-0.2,0.9-0.4
			C218.9,25.5,218.4,24.9,217.9,24.9z"/>
		<path class="st0" d="M220.9,30.7c0.6,0,0.9,0.3,0.9,0.9c0,0.6-0.3,0.9-0.9,0.9h-0.2c-0.5,0-0.8,0-1-0.1c0,0.1,0,0.2,0,0.3
			c0,0.6-0.1,1.2-0.3,1.6c-0.4,1-1,2.6-2.8,3.4c-0.3,0.2-0.6,0.2-1,0.2c-0.7,0-1.8-0.4-2.8-0.8c-0.3-0.1-0.3-0.2-0.3-0.3
			c0-0.1,0.1-0.2,0.3-0.2c0.2,0,0.6,0.1,1,0.1c2.5,0,4.9-2.2,5.2-3.9c0-0.4-0.8-1.3-1-1.5c0,0,0-0.1,0-0.2c0-0.4,0.3-1.2,0.5-1.5
			c0.1-0.1,0.2-0.2,0.2-0.2c0.1,0,0.2,0.1,0.5,0.5c0.3,0.5,0.7,0.7,1.5,0.7H220.9z"/>
		<path class="st0" d="M226.6,21.4c0.1,0,0.1,0,0.1,0c0,0.5-0.2,0.9-0.4,1l-3.2,1.8c-0.1,0-0.1,0-0.1,0c0-0.2,0.1-0.6,0.2-0.8
			c0.1-0.1,0.2-0.2,0.5-0.4L226.6,21.4z"/>
		<path class="st0" d="M223.1,28.3c-0.2,0-0.4,0-0.5,0.1c-0.2,0.1-0.5,0.2-0.6,0.2c-0.1,0-0.2-0.1-0.2-0.2c0-0.3,0.5-1,0.9-1.4
			c0.4-0.3,0.8-0.5,1.1-0.5c0.1,0,0.3,0,0.4,0c1.4,0.3,3.3,1.1,4.7,1.4c1,0.2,2,0.3,2.7,0.3c0.1,0,0.3,0,0.4,0c0,0,0.1,0,0.1,0.1
			c0,0.3-0.5,1.2-0.9,1.5c-0.1,0.1-0.2,0.1-0.4,0.1c-0.4,0-1.3-0.1-1.5-0.1c-0.7,0-1.3,0.1-1.8,0.2c-0.3,0.1-0.9,0.4-1.8,0.8
			c-1.3,0.7-2.2,1.1-2.8,1.3c-0.6,0.2-1.2,0.4-2,0.4h-0.2c-0.6,0-0.9-0.3-0.9-0.9c0-0.6,0.3-0.8,0.9-0.8h0.2c1.1,0,2-0.1,2.7-0.3
			c0.7-0.2,1.8-0.6,3.1-1.1C225.2,28.8,223.9,28.3,223.1,28.3z"/>
	</g>
	<rect class="st1" width="292.5" height="49.8"/>
</g>
</svg>
