<?xml version="1.0" encoding="utf-8"?>
<!-- Generator: Adobe Illustrator 19.2.0, SVG Export Plug-In . SVG Version: 6.00 Build 0)  -->
<svg version="1.1" id="Layer_1" xmlns="http://www.w3.org/2000/svg" xmlns:xlink="http://www.w3.org/1999/xlink" x="0px" y="0px"
	 viewBox="0 0 292.5 49.8" style="enable-background:new 0 0 292.5 49.8;" xml:space="preserve">
<style type="text/css">
	.st0{fill:#002F3D;}
	.st1{fill:none;}
</style>
<g>
	<g>
		<path class="st0" d="M72.1,37.7c0.1,0,0.1,0,0.1,0c0,0.5-0.2,0.9-0.4,1l-3.2,1.8c-0.1,0-0.1,0-0.1,0c0-0.2,0.1-0.6,0.2-0.8
			c0.1-0.1,0.2-0.2,0.5-0.4L72.1,37.7z"/>
		<path class="st0" d="M72.5,30.9c0,2.7-1.2,4.7-3.3,5.6c-0.1,0.1-0.3,0.1-0.5,0.1c-0.7,0-2.2-0.4-3.2-0.9c-0.3-0.1-0.3-0.2-0.3-0.3
			c0-0.1,0.1-0.1,0.2-0.1c0.2,0,0.8,0.1,1.5,0.1c0.5,0,1-0.1,1.7-0.5c0.9-0.4,2.6-1.8,3-3c0.1-0.2,0.1-0.4,0.1-0.6
			c0-0.1,0-0.8-0.8-1.9c-0.3-0.4-0.4-0.6-0.6-1c0-0.1-0.1-0.1-0.1-0.2c0-0.2,0.3-1.1,0.5-1.3c0.1-0.1,0.1-0.2,0.2-0.2
			c0.4,0,1.1,1.4,1.4,2.5C72.4,29.8,72.5,30.3,72.5,30.9z"/>
		<path class="st0" d="M72.4,36.2c-0.3-0.1-0.3-0.2-0.3-0.3c0-0.1,0.1-0.1,0.3-0.1c0.2,0,0.9,0.1,1.4,0.1c0.5,0,0.9-0.1,1.6-0.5
			c1.9-1,3.1-2.3,3.1-3.3c0-0.1,0-0.3-0.1-0.5h-0.6c-0.4,0-1.2-0.1-1.7-0.4c-0.5-0.3-0.8-0.7-0.8-1.2c0-0.5,0.2-1.1,0.5-1.7
			c0.4-1,1-1.7,1.5-1.7c0.6,0,1.1,0.4,1.4,0.9c0.4,0.6,0.5,1.4,0.6,2.2h0.8c0.5,0,0.7,0.3,0.7,0.8c0,0.6-0.2,1-0.7,1l-0.8,0
			c-0.1,2.8-1,4.5-3.3,5.4c-0.1,0-0.3,0.1-0.5,0.1C74.7,37,73.4,36.7,72.4,36.2z M77.3,28.6c-0.1-0.1-0.2-0.2-0.4-0.2
			c-0.4,0-0.6,0.4-0.6,0.6c0,0.2,0.2,0.4,0.6,0.5c0.3,0.1,0.7,0.2,0.9,0.2c0.1,0,0.2,0,0.2-0.1C78,29.5,77.6,28.9,77.3,28.6z"/>
		<path class="st0" d="M86.7,27.9c0.1,0,0.1,0.1,0.1,0.4c0,0.1,0,0.2,0,0.4c0,0.6,0.4,0.9,0.9,0.9c0.8,0,1.2-0.8,1.5-1.4
			c0-0.1,0.1-0.3,0.3-0.3c0.1,0,0.2,0.1,0.2,0.5c0.1,0.8,0.5,1.3,1.2,1.4h0.2c0.6,0,0.8,0.3,0.8,0.8c0,0.7-0.3,1-0.8,1H91
			c-1,0-1.5-0.5-1.7-1.5c-0.3,0.7-0.9,1.5-1.8,1.5c-0.8,0-1.3-0.7-1.3-1.5c-0.3,0.9-1.2,1.5-2.1,1.5c-1,0-1.6-0.3-1.8-1.2
			c-0.1,0.3-0.3,0.6-0.6,0.9c-0.3,0.2-0.8,0.4-1.7,0.4h-0.2c-0.5,0-0.8-0.3-0.8-0.9c0-0.6,0.3-0.9,0.8-0.9H80c1.2,0,2.1-0.4,2.5-1.3
			c0-0.1,0.1-0.3,0.2-0.3c0.1,0,0.2,0.1,0.2,0.4c0,0.7,0.6,1,1.4,1c1,0,1.7-0.4,2.2-1.4C86.5,28.1,86.6,27.9,86.7,27.9z"/>
		<path class="st0" d="M94,14c0.5,0,1.3,0.8,1.3,1.6c0,0.3-0.1,0.6-0.2,0.9c-0.2,0.6-0.7,1-1.4,1c-0.6,0-1.1-0.5-1.1-1
			C92.7,15.7,93.6,14,94,14z M93.8,15.2c-0.2,0-0.6,0.5-0.6,0.8c0,0.2,0.3,0.4,0.6,0.4c0.4,0,0.9-0.2,0.9-0.4
			C94.8,15.9,94.3,15.2,93.8,15.2z"/>
		<path class="st0" d="M100.5,17.2c0.1,0,0.1,0,0.1,0.1c0,0.3-0.4,1.1-0.5,1.3c0,0.1-0.1,0.1-0.1,0.1c-0.6,0.3-3.8,1.6-6.4,3.1
			c-0.5,0.3-0.9,0.6-1.3,1c0.6,0.5,1.3,1,1.8,1.5c1.7,1.4,2.9,2.3,4.3,3.7c1.2,1.3,2,1.7,2.4,1.7h0.2c0.5,0,0.7,0.3,0.7,0.8
			c0,0.6-0.2,1-0.7,1h-0.4c-0.5,0-1-0.3-1.7-0.8c-0.4-0.3-1-0.9-1.7-1.7c-0.8-0.8-1.4-1.3-1.8-1.6c0,0.3,0.1,0.6,0.1,0.9
			c0,0.5-0.1,1-0.2,1.4c-0.2,0.5-0.7,1-1.5,1.2c-1,0.3-1.9,0.5-2.8,0.5h-0.2c-0.5,0-0.7-0.3-0.7-0.9c0-0.6,0.2-0.8,0.8-0.8
			c0.7,0,1.6-0.1,2.8-0.3c0.7-0.2,1.1-0.5,1.2-0.9c-0.1-0.8-1.1-2-2.9-3.6c-0.4-0.4-0.6-0.7-0.6-1.1c0-1.4,0.2-1.9,0.4-2.1
			c0.7-0.7,1.3-1.1,2.1-1.6C96.6,18.6,100.1,17.3,100.5,17.2C100.5,17.2,100.5,17.2,100.5,17.2z"/>
		<path class="st0" d="M106.7,22c0.1,0,0.1,0,0.1,0c0,0.5-0.2,0.9-0.4,1l-3.2,1.8c-0.1,0-0.1,0-0.1,0c0-0.2,0.1-0.6,0.2-0.8
			c0.1-0.1,0.2-0.2,0.5-0.4L106.7,22z"/>
		<path class="st0" d="M110.2,13.8c0.5,0,1.3,0.8,1.3,1.6c0,0.3-0.1,0.6-0.2,0.9c-0.2,0.6-0.7,1-1.4,1c-0.6,0-1.1-0.5-1.1-1
			C108.9,15.5,109.8,13.8,110.2,13.8z M110,15.1c-0.2,0-0.6,0.5-0.6,0.8c0,0.2,0.3,0.4,0.6,0.4c0.4,0,0.9-0.2,0.9-0.4
			C110.9,15.7,110.4,15.1,110,15.1z"/>
		<path class="st0" d="M111.6,27.6c0,1.3-0.3,2.4-0.8,3.2c-0.4,0.5-1.2,0.8-1.8,0.8c-0.6,0-1.2-0.2-1.7-0.6c-0.1,0.5-0.6,1-0.9,1.2
			c-0.1,0-0.1,0-0.2,0c-0.9-0.2-2.6-0.8-3.3-1.7c-0.4,0.8-1,1.1-1.9,1.1h-0.3c-0.5,0-0.7-0.3-0.7-0.9c0-0.6,0.2-0.9,0.7-0.9h0.2
			c1.6,0,2.5-0.9,3.2-1.7c0.4-0.5,0.7-0.8,1.1-0.8c0.2,0,0.4,0.1,0.6,0.3c0.7,0.8,2,2.2,3.2,2.2c0.4,0,1.3-0.1,1.6-0.5v0
			c0-1.4-0.6-4.8-0.8-7.5c-0.1-0.3-0.2-0.8-0.2-1.2c0-0.1,0-0.1,0-0.2c0,0,0-0.1,0-0.1c0-0.1,0.1-0.4,0.3-0.7s0.5-0.8,0.6-0.8
			c0.1,0,0.1,0.1,0.1,0.2c0.2,0.8,0.5,1.1,0.7,1.4c0,0.1,0.1,0.1,0.1,0.2s0,0.1,0,0.2c-0.1,0.2-0.3,0.7-0.4,0.9
			C111.1,24.2,111.6,26.3,111.6,27.6z M104.7,28.7c-0.2,0-0.4,0.2-0.5,0.3c-0.1,0.1-0.1,0.2,0,0.4c0.3,0.2,1.4,0.7,1.7,0.8
			c0.2,0.1,0.3,0.1,0.3,0.1c0.2,0,0.1-0.2,0-0.3C106,29.6,105.3,28.7,104.7,28.7z"/>
		<path class="st0" d="M114.6,31.5c-0.1,0-0.1-0.1-0.1-0.5c0-2.4-0.9-8.9-0.9-10c0-0.5,0.4-1.4,0.7-1.9c0.1-0.2,0.3-0.4,0.4-0.4
			c0.1,0,0.1,0.2,0.1,0.6c0.1,1.7,0.6,5.7,0.6,8.6c0,1.2-0.1,2.1-0.3,2.7C114.9,31.2,114.8,31.5,114.6,31.5z"/>
		<path class="st0" d="M126.4,33.4c0.1,0,0.1,0,0.1,0c0,0.5-0.2,0.9-0.4,1l-3.2,1.8c-0.1,0-0.1,0-0.1,0c0-0.2,0.1-0.6,0.2-0.8
			c0.1-0.1,0.2-0.2,0.5-0.4L126.4,33.4z"/>
		<path class="st0" d="M127.5,28.3c0,0.7-0.1,1.4-0.2,1.6c-0.3,1.2-1.6,1.6-3.9,1.6c-0.5,0-0.8-0.1-0.9-0.2
			c-0.2-0.2-0.2-0.5-0.2-0.9c0-0.3,0-0.5,0.1-0.7c0.1-0.3,0.1-0.4,0.2-0.4c0.1,0,0.1,0.1,0.2,0.1c0.2,0.2,0.7,0.2,1.3,0.2
			c1,0,2.1-0.2,2.6-0.5c0.1,0,0.1-0.1,0.1-0.1c0,0,0-0.1,0-0.1c-0.3-1.1-1.7-3.1-2.8-3.1c-0.2,0-0.3,0.2-0.4,0.2c0,0-0.1,0-0.1-0.1
			c0-0.4,0.3-1.4,0.6-1.7c0.1-0.1,0.2-0.1,0.4-0.1c0.3,0,0.6,0.1,0.8,0.2c0.5,0.2,1.2,0.9,1.7,1.9C127.2,26.9,127.5,27.6,127.5,28.3
			z"/>
		<path class="st0" d="M132.7,20.2c-0.6,0-0.9-0.6-0.9-1.2c0-0.2,0-0.4,0.1-0.6c0-0.2,0.2-0.6,0.4-0.6c0.1,0,0.2,0.2,0.2,0.5v0.2
			c0,0.3,0.2,0.4,0.5,0.4h0c0.4,0,0.6-0.3,0.7-0.8c0-0.2,0.2-0.8,0.5-0.8c0.1,0,0.2,0.1,0.2,0.4c0,0.2,0.1,0.3,0.3,0.3
			c0.4,0,0.6-0.3,0.7-0.7c0.1-0.5,0.2-0.7,0.3-0.7c0.2,0,0.2,0.5,0.2,0.8c0,0.2,0,0.5-0.1,0.8c-0.2,0.5-0.5,0.9-1.2,0.9
			c-0.2,0-0.3-0.1-0.4-0.1c-0.1,0-0.1,0-0.2,0.1C133.7,19.8,133.3,20.2,132.7,20.2z M135.8,14.8C135.9,14.8,135.9,14.9,135.8,14.8
			c0,0.4-0.1,0.7-0.3,1c-0.1,0.1-0.2,0.2-0.4,0.2l-3.1,1.5c0,0-0.1,0-0.1,0c0-0.1,0.1-0.4,0.2-0.6c0.1-0.3,0.2-0.3,0.2-0.4
			c0.1-0.1,0.1-0.1,0.3-0.2L135.8,14.8z"/>
		<path class="st0" d="M137.2,29.7h0.3c0.5,0,0.8,0.3,0.8,0.9c0,0.6-0.3,0.9-0.8,0.9h-0.2c-0.6,0-1.1-0.2-1.4-0.5
			c-0.4-0.3-0.6-0.8-0.9-1.5c-0.3,1.2-1.8,2.1-3.6,2.1c-0.5,0-1.1-0.1-1.7-0.4c-0.3-0.2-0.5-0.5-0.5-0.8c0-0.4,0.1-1,0.3-1.5
			c0.1-0.2,0.2-0.3,0.3-0.3c0.1,0,0.2,0.1,0.2,0.3c0.2,0.6,0.9,0.8,1.8,0.8c1.7,0,2.5-0.4,2.8-1c0-0.2,0-0.3,0-0.5
			c0-1-0.3-2.3-0.6-3.5c0-0.2,0-0.3,0-0.4c0-0.1,0-0.3,0.4-1.1c0.1-0.3,0.2-0.5,0.3-0.5c0.1,0,0.1,0.1,0.2,0.5
			c0.6,2.6,0.6,4.4,0.9,5.5c0.1,0.3,0.2,0.5,0.4,0.7C136.6,29.5,136.9,29.7,137.2,29.7z"/>
		<path class="st0" d="M145.2,14.6c0.1,0,0.1,0,0.1,0c0,0.5-0.2,0.9-0.4,1l-3.2,1.8c-0.1,0-0.1,0-0.1,0c0-0.2,0.1-0.6,0.2-0.8
			c0.1-0.1,0.2-0.2,0.5-0.4L145.2,14.6z"/>
		<path class="st0" d="M144.1,27.9c0.1,0,0.1,0.1,0.1,0.4c0,0.1,0,0.2,0,0.4c0,0.6,0.4,0.9,0.9,0.9c0.8,0,1.2-0.8,1.5-1.4
			c0-0.1,0.1-0.3,0.3-0.3c0.1,0,0.2,0.1,0.2,0.5c0.1,0.8,0.5,1.3,1.2,1.4h0.2c0.6,0,0.8,0.3,0.8,0.8c0,0.7-0.3,1-0.8,1h-0.2
			c-1,0-1.5-0.5-1.7-1.5c-0.3,0.7-0.9,1.5-1.8,1.5c-0.8,0-1.3-0.7-1.3-1.5c-0.3,0.9-1.2,1.5-2.1,1.5c-1,0-1.6-0.3-1.8-1.2
			c-0.1,0.3-0.3,0.6-0.6,0.9c-0.3,0.2-0.8,0.4-1.7,0.4h-0.2c-0.5,0-0.8-0.3-0.8-0.9c0-0.6,0.3-0.9,0.8-0.9h0.2
			c1.2,0,2.1-0.4,2.5-1.3c0-0.1,0.1-0.3,0.2-0.3c0.1,0,0.2,0.1,0.2,0.4c0,0.7,0.6,1,1.4,1c1,0,1.7-0.4,2.2-1.4
			C143.9,28.1,144,27.9,144.1,27.9z M144.8,23.5c0.1-0.1,0.2-0.2,0.3-0.1c0.4,0.4,0.8,0.8,1.2,1.1c0.1,0.1,0.1,0.1,0,0.2
			c-0.4,0.4-0.7,0.8-1.1,1.2c-0.1,0.1-0.1,0.1-0.2,0c-0.3-0.2-0.7-0.6-1.1-1c-0.2,0.3-0.7,0.8-0.9,0.9c-0.1,0.1-0.2,0.1-0.3,0
			c-0.4-0.2-0.9-0.7-1.2-1.1c-0.1-0.1-0.1-0.1,0-0.3c0.3-0.4,0.7-0.8,1.1-1.2c0.1-0.1,0.1-0.1,0.2,0c0.3,0.3,0.8,0.8,1.1,1
			C144.2,24.2,144.6,23.7,144.8,23.5z M145.1,21c0.1,0,0.1,0.1,0,0.2c-0.2,0.2-0.8,1-1.1,1.3c-0.1,0.1-0.1,0.1-0.2,0
			c-0.4-0.2-1.2-0.8-1.4-1.1c-0.1-0.1-0.1-0.1,0-0.2c0.3-0.4,0.7-0.9,1-1.2c0.2-0.2,0.2-0.2,0.2-0.1C143.9,20.1,144.5,20.6,145.1,21
			z"/>
		<path class="st0" d="M154,21c0,0.4-0.1,0.8-0.2,1.2c0.2,0.1,0.3,0.2,0.3,0.3c0,0.3-0.1,0.6-0.3,0.8c0,0.1-0.1,0.1-0.1,0.1
			l-0.4-0.2c-0.4,0.6-1,1.4-1.9,1.8c-0.3,0.2-0.7,0.3-1.2,0.3c-0.2,0-0.3,0-0.3-0.1c0-0.1,0.2-0.2,0.4-0.3c0.7-0.4,2-1.4,2.4-2
			c-0.4-0.2-0.8-0.6-0.8-1.1c0-0.3,0.2-0.7,0.5-1c0.3-0.4,0.7-0.6,1-0.6C153.9,20,154,20.6,154,21z M152.6,21.4
			C152.6,21.4,152.6,21.4,152.6,21.4c0,0.2,0.3,0.4,0.6,0.5c0.1-0.1,0.1-0.3,0.1-0.5c0-0.2-0.1-0.3-0.3-0.3
			C152.9,21,152.7,21.2,152.6,21.4z"/>
		<path class="st0" d="M157.7,13.8c0.5,0,1.3,0.8,1.3,1.6c0,0.3-0.1,0.6-0.2,0.9c-0.2,0.6-0.7,1-1.4,1c-0.6,0-1.1-0.5-1.1-1
			C156.4,15.5,157.3,13.8,157.7,13.8z M157.5,15.1c-0.2,0-0.6,0.5-0.6,0.8c0,0.2,0.3,0.4,0.6,0.4c0.4,0,0.9-0.2,0.9-0.4
			C158.5,15.7,158,15.1,157.5,15.1z"/>
		<path class="st0" d="M159.1,27.6c0,1.3-0.3,2.4-0.8,3.2c-0.4,0.5-1.2,0.8-1.8,0.8c-0.6,0-1.2-0.2-1.7-0.6c-0.1,0.5-0.6,1-0.9,1.2
			c-0.1,0-0.1,0-0.2,0c-0.9-0.2-2.6-0.8-3.3-1.7c-0.4,0.8-1,1.1-1.9,1.1h-0.3c-0.5,0-0.7-0.3-0.7-0.9c0-0.6,0.2-0.9,0.7-0.9h0.2
			c1.6,0,2.5-0.9,3.2-1.7c0.4-0.5,0.7-0.8,1.1-0.8c0.2,0,0.4,0.1,0.6,0.3c0.7,0.8,2,2.2,3.2,2.2c0.4,0,1.3-0.1,1.6-0.5v0
			c0-1.4-0.6-4.8-0.8-7.5c-0.1-0.3-0.2-0.8-0.2-1.2c0-0.1,0-0.1,0-0.2c0,0,0-0.1,0-0.1c0-0.1,0.1-0.4,0.3-0.7
			c0.2-0.4,0.5-0.8,0.6-0.8c0.1,0,0.1,0.1,0.1,0.2c0.2,0.8,0.5,1.1,0.7,1.4c0,0.1,0.1,0.1,0.1,0.2s0,0.1,0,0.2
			c-0.1,0.2-0.3,0.7-0.4,0.9C158.7,24.2,159.1,26.3,159.1,27.6z M152.3,28.7c-0.2,0-0.4,0.2-0.5,0.3c-0.1,0.1-0.1,0.2,0,0.4
			c0.3,0.2,1.4,0.7,1.7,0.8c0.2,0.1,0.3,0.1,0.3,0.1c0.2,0,0.1-0.2,0-0.3C153.5,29.6,152.8,28.7,152.3,28.7z"/>
		<path class="st0" d="M162.2,31.5c-0.1,0-0.1-0.1-0.1-0.5c0-2.4-0.9-8.9-0.9-10c0-0.5,0.4-1.4,0.7-1.9c0.1-0.2,0.3-0.4,0.4-0.4
			c0.1,0,0.1,0.2,0.1,0.6c0.1,1.7,0.6,5.7,0.6,8.6c0,1.2-0.1,2.1-0.3,2.7C162.5,31.2,162.3,31.5,162.2,31.5z"/>
		<path class="st0" d="M174.9,40.7c0.1,0,0.1,0,0.1,0c0,0.5-0.2,0.9-0.4,1l-3.2,1.8c-0.1,0-0.1,0-0.1,0c0-0.2,0.1-0.6,0.2-0.8
			c0.1-0.1,0.2-0.2,0.5-0.4L174.9,40.7z"/>
		<path class="st0" d="M177.3,35c0.1-0.1,0.2-0.2,0.3-0.1c0.4,0.4,0.8,0.8,1.2,1.1c0.1,0.1,0.1,0.1,0,0.2c-0.4,0.4-0.7,0.8-1.1,1.2
			c-0.1,0.1-0.1,0.1-0.2,0c-0.3-0.2-0.7-0.6-1.1-1c-0.2,0.3-0.7,0.8-0.9,0.9c-0.1,0.1-0.2,0.1-0.3,0c-0.4-0.2-0.9-0.7-1.2-1.1
			c-0.1-0.1-0.1-0.1,0-0.3c0.3-0.4,0.7-0.8,1.1-1.2c0.1-0.1,0.1-0.1,0.2,0c0.3,0.3,0.8,0.8,1.1,1C176.7,35.7,177.1,35.2,177.3,35z"
			/>
		<path class="st0" d="M175,32.5c0,0.1,0,0.2-0.1,0.4c-0.3,0.6-0.5,1.1-0.7,1.3c-0.1,0.1-0.1,0.1-0.2,0c-0.4-0.2-0.9-0.3-1.7-0.3
			c-1.4,0-2.2,0.2-2.4,0.7c0.2,1,0.3,1.6,0.4,2l0.3,1.7c0.1,0.9,0.2,1.7,0.3,2.4c0,0.7-0.1,1.5-0.3,2.2c-0.1,0.3-0.2,0.4-0.3,0.4
			c-0.1,0-0.1-0.1-0.1-0.4c0-0.2,0-0.5,0-0.9c0-0.7-0.1-1.6-0.5-3.6c-0.3-1.5-0.4-2.3-0.5-2.7c0-0.8,0.2-1.5,0.5-2.2
			c0.4-0.7,0.8-1.2,1.5-1.5l0.5-1.2c0.4-0.9,1-1.6,1.7-2c0.7-0.4,1.6-0.8,2.4-0.8c0.2,0,0.5,0.1,0.6,0.2c0.2,0.1,0.5,0.4,0.8,0.8
			c0.3,0.4,0.6,0.7,1,0.7h0.3c0.5,0,0.7,0.3,0.7,0.8c0,0.7-0.2,1-0.7,1h-0.3c-0.6,0-1.1-0.3-1.5-0.8c-0.4-0.4-0.7-0.7-0.9-0.8
			c-0.1-0.1-0.3-0.1-0.7-0.1c-0.8,0-1.6,0.3-2.3,0.9c0.7,0.3,1.2,0.6,1.7,1C174.8,32,175,32.3,175,32.5z"/>
		<path class="st0" d="M180.5,13.7c0.5,0,1.3,0.8,1.3,1.6c0,0.3-0.1,0.6-0.2,0.9c-0.2,0.6-0.7,1-1.4,1c-0.6,0-1.1-0.5-1.1-1
			C179.2,15.4,180.1,13.7,180.5,13.7z M180.3,15c-0.2,0-0.6,0.5-0.6,0.8c0,0.2,0.3,0.4,0.6,0.4c0.4,0,0.9-0.2,0.9-0.4
			C181.2,15.6,180.7,15,180.3,15z"/>
		<path class="st0" d="M181.6,27.8c0.1,0.4,0.3,0.7,0.6,0.9c0.2,0.2,0.5,0.3,0.8,0.5c0.3,0.1,0.5,0.2,0.6,0.3
			c0.2,0.1,0.2,0.6,0.2,0.9c0,0.3-0.1,0.8-0.3,1.1c-0.1,0.1-0.1,0.1-0.2,0c-1-0.5-1.8-0.9-2.3-0.9c-0.4,0-0.7,0.1-1.2,0.4
			c-0.5,0.3-1,0.5-1.6,0.5h-0.2c-0.5,0-0.7-0.3-0.7-0.9c0-0.6,0.2-0.9,0.7-0.9h0.2c0.7,0,1.5-0.2,2.4-0.6c0-0.2-0.1-0.6-0.2-1.2
			c-0.1-0.7-0.3-3.2-0.6-6.3c-0.1-0.3-0.2-0.8-0.2-1.1c0-0.1,0-0.1,0-0.2c0,0,0-0.1,0-0.1c0-0.1,0.1-0.3,0.3-0.7
			c0.2-0.4,0.5-0.8,0.6-0.8c0.1,0,0.1,0.1,0.1,0.2c0.2,0.7,0.4,1.1,0.6,1.4c0,0.1,0.1,0.1,0.1,0.2c0,0,0,0.1,0,0.2
			c-0.1,0.2-0.3,0.7-0.5,0.9C181.3,25.2,181.5,27.4,181.6,27.8z"/>
		<path class="st0" d="M187,31.5c-0.1,0-0.1-0.1-0.1-0.5c0-2.4-0.9-8.9-0.9-10c0-0.5,0.4-1.4,0.7-1.9c0.1-0.2,0.3-0.4,0.4-0.4
			c0.1,0,0.1,0.2,0.1,0.6c0.1,1.7,0.6,5.7,0.6,8.6c0,1.2-0.1,2.1-0.3,2.7C187.3,31.2,187.2,31.5,187,31.5z"/>
		<path class="st0" d="M204.7,13.8c0,0.4-0.1,0.8-0.2,1.2c0.2,0.1,0.3,0.2,0.3,0.3c0,0.3-0.1,0.6-0.3,0.8c0,0.1-0.1,0.1-0.1,0.1
			l-0.4-0.2c-0.4,0.6-1,1.4-1.9,1.8c-0.3,0.2-0.7,0.3-1.2,0.3c-0.2,0-0.3,0-0.3-0.1c0-0.1,0.2-0.2,0.4-0.3c0.7-0.4,2-1.4,2.4-2
			c-0.4-0.2-0.8-0.6-0.8-1.1c0-0.3,0.2-0.7,0.5-1c0.3-0.4,0.7-0.6,1-0.6C204.5,12.8,204.7,13.4,204.7,13.8z M203.3,14.2
			C203.3,14.2,203.3,14.2,203.3,14.2c0,0.2,0.3,0.4,0.6,0.5c0.1-0.1,0.1-0.3,0.1-0.5c0-0.2-0.1-0.3-0.3-0.3
			C203.6,13.8,203.4,14,203.3,14.2z"/>
		<path class="st0" d="M209.1,27c0,0.4-0.2,1.5-0.5,2.2c-0.2,0.5-0.3,0.7-0.9,1c-1.3,0.6-4.5,1.5-7.7,1.5c-4.2,0-5.8-1.4-5.8-3.3
			c0-0.7,0.3-1.9,0.8-2.6c0.2-0.2,0.3-0.5,0.5-0.5c0,0,0.1,0,0.1,0.1c0,0.1-0.1,0.2-0.1,0.4c-0.2,0.6-0.4,1.1-0.4,1.6
			c0,0.8,1.1,2.5,5.1,2.5c2.9,0,6-0.7,7.4-1.1c0.7-0.3,0.7-0.4,0.7-0.9c0-0.4-0.1-0.7-0.2-1c-0.2,0.4-0.7,0.8-1.4,0.8
			c-0.9,0-1.4-0.5-1.4-1.5c0-1.4,1.1-3.3,1.6-3.3C208,22.8,209.1,24.9,209.1,27z M205.2,20.6c0.1,0,0.1,0.1,0,0.2
			c-0.2,0.2-0.8,1-1.1,1.3c-0.1,0.1-0.1,0.1-0.2,0c-0.4-0.2-1.2-0.8-1.4-1.1c-0.1-0.1-0.1-0.1,0-0.2c0.3-0.4,0.7-0.9,1-1.2
			c0.2-0.2,0.2-0.2,0.2-0.1C204,19.8,204.6,20.3,205.2,20.6z M206.5,24.6c-0.2,0-0.5,0.3-0.6,0.6c0,0,0,0.1,0,0.1c0,0,0,0.1,0,0.1
			c0.1,0.2,0.4,0.4,0.8,0.4c0.3,0,0.6-0.1,0.7-0.3c0,0,0,0,0-0.1C207.5,25.3,207.2,24.6,206.5,24.6z"/>
		<path class="st0" d="M213,22.6c0.5,0,1.3,0.8,1.3,1.6c0,0.3-0.1,0.6-0.2,0.9c-0.2,0.6-0.7,1-1.4,1c-0.6,0-1.1-0.5-1.1-1
			C211.7,24.3,212.6,22.6,213,22.6z M212.8,23.9c-0.2,0-0.6,0.5-0.6,0.8c0,0.2,0.3,0.4,0.6,0.4c0.4,0,0.9-0.2,0.9-0.4
			C213.7,24.5,213.2,23.9,212.8,23.9z"/>
		<path class="st0" d="M215.8,29.7c0.6,0,0.9,0.3,0.9,0.9c0,0.6-0.3,0.9-0.9,0.9h-0.2c-0.5,0-0.8,0-1-0.1c0,0.1,0,0.2,0,0.3
			c0,0.6-0.1,1.2-0.3,1.6c-0.4,1-1,2.6-2.8,3.4c-0.3,0.2-0.6,0.2-1,0.2c-0.7,0-1.8-0.4-2.8-0.8c-0.3-0.1-0.3-0.2-0.3-0.3
			c0-0.1,0.1-0.2,0.3-0.2c0.2,0,0.6,0.1,1,0.1c2.5,0,4.9-2.2,5.2-3.9c0-0.4-0.8-1.3-1-1.5c0,0,0-0.1,0-0.2c0-0.4,0.3-1.2,0.5-1.5
			c0.1-0.1,0.2-0.2,0.2-0.2c0.1,0,0.2,0.1,0.5,0.5c0.3,0.5,0.7,0.7,1.5,0.7H215.8z"/>
		<path class="st0" d="M221.5,20.4c0.1,0,0.1,0,0.1,0c0,0.5-0.2,0.9-0.4,1l-3.2,1.8c-0.1,0-0.1,0-0.1,0c0-0.2,0.1-0.6,0.2-0.8
			c0.1-0.1,0.2-0.2,0.5-0.4L221.5,20.4z"/>
		<path class="st0" d="M217.9,27.3c-0.2,0-0.4,0-0.5,0.1c-0.2,0.1-0.5,0.2-0.6,0.2c-0.1,0-0.2-0.1-0.2-0.2c0-0.3,0.5-1,0.9-1.4
			c0.4-0.3,0.8-0.5,1.1-0.5c0.1,0,0.3,0,0.4,0c1.4,0.3,3.3,1.1,4.7,1.4c1,0.2,2,0.3,2.7,0.3c0.1,0,0.3,0,0.4,0c0,0,0.1,0,0.1,0.1
			c0,0.3-0.5,1.2-0.9,1.5c-0.1,0.1-0.2,0.1-0.4,0.1c-0.4,0-1.3-0.1-1.5-0.1c-0.7,0-1.3,0.1-1.8,0.2c-0.3,0.1-0.9,0.4-1.8,0.8
			c-1.3,0.7-2.2,1.1-2.8,1.3c-0.6,0.2-1.2,0.4-2,0.4h-0.2c-0.6,0-0.9-0.3-0.9-0.9c0-0.6,0.3-0.8,0.9-0.8h0.2c1.1,0,2-0.1,2.7-0.3
			c0.7-0.2,1.8-0.6,3.1-1.1C220,27.8,218.8,27.3,217.9,27.3z"/>
	</g>
	<rect class="st1" width="292.5" height="49.8"/>
</g>
</svg>
