<?xml version="1.0" encoding="utf-8"?>
<!-- Generator: Adobe Illustrator 19.2.0, SVG Export Plug-In . SVG Version: 6.00 Build 0)  -->
<svg version="1.1" id="Layer_1" xmlns="http://www.w3.org/2000/svg" xmlns:xlink="http://www.w3.org/1999/xlink" x="0px" y="0px"
	 viewBox="0 0 590.6 36.4" style="enable-background:new 0 0 590.6 36.4;" xml:space="preserve">
<style type="text/css">
	.st0{fill:#FFFFFF;}
</style>
<g>
	<g>
		<path class="st0" d="M354.6,25.6c-0.1,0-0.2-0.2-0.2-0.7c0-3-1.1-11.3-1.1-12.7c0-0.7,0.5-1.7,0.9-2.5c0.1-0.2,0.3-0.5,0.5-0.5
			c0.1,0,0.2,0.2,0.2,0.8c0.1,2.2,0.7,7.3,0.7,11c0,1.5-0.1,2.7-0.4,3.5C355,25.2,354.8,25.6,354.6,25.6z"/>
		<path class="st0" d="M365.3,21.5c0,0.9-0.2,1.7-0.3,2c-0.4,1.5-2,2.1-4.9,2.1c-0.7,0-1-0.1-1.2-0.3c-0.2-0.2-0.3-0.7-0.3-1.2
			c0-0.4,0.1-0.7,0.1-0.8c0.1-0.3,0.2-0.5,0.2-0.5c0.1,0,0.1,0.1,0.2,0.2c0.3,0.2,0.9,0.3,1.7,0.3c1.2,0,2.7-0.2,3.3-0.6
			c0.1,0,0.1-0.1,0.1-0.1c0,0,0-0.1,0-0.1c-0.4-1.4-2.2-3.9-3.6-3.9c-0.2,0-0.4,0.2-0.6,0.2c-0.1,0-0.1,0-0.1-0.2
			c0-0.5,0.4-1.8,0.8-2.2c0.1-0.1,0.3-0.1,0.5-0.1c0.3,0,0.8,0.1,1.1,0.3c0.6,0.2,1.5,1.2,2.2,2.4C365,19.7,365.3,20.6,365.3,21.5z"
			/>
		<path class="st0" d="M372.3,11.9c-0.4,0-0.7-0.2-0.8-0.4c-0.2-0.3-0.3-0.8-0.3-1.1c0-0.4,0-0.7,0.2-1s0.4-0.7,0.7-0.7
			c0.1,0,0.1,0.1,0.1,0.3c0,0.2-0.1,0.4-0.1,0.6c0,0.5,0.3,0.7,0.7,0.7c0.4,0,0.7-0.4,0.9-0.8c0.3-0.7,0.6-1,0.9-1
			c0.1,0,0.2,0.1,0.2,0.3c0,0.1,0,0.2,0,0.4c0,0.3,0.1,0.5,0.5,0.5c0.3,0,0.6-0.2,0.9-0.7c0.3-0.5,0.4-0.7,0.5-0.7
			c0.2,0,0.2,0.3,0.2,0.5c0,0.6-0.2,1.1-0.5,1.6c-0.3,0.4-0.7,0.9-1.4,0.9c-0.4,0-0.6-0.1-0.8-0.3c-0.1-0.1-0.2,0-0.3,0.2
			C373.3,11.6,372.8,11.9,372.3,11.9z"/>
		<path class="st0" d="M375.5,27.5c0.1-0.1,0.1,0,0.1,0.1c0,0.6-0.2,1.1-0.5,1.3l-4.1,2.3c-0.1,0-0.1,0-0.1-0.1c0-0.3,0.1-0.8,0.2-1
			c0.1-0.2,0.3-0.3,0.7-0.5L375.5,27.5z"/>
		<path class="st0" d="M377.7,23.3h0.3c0.7,0,1,0.4,1,1.1c0,0.8-0.4,1.2-1,1.2h-0.3c-0.8,0-1.4-0.3-1.8-0.7c-0.5-0.4-0.8-1-1.1-1.9
			c-0.3,1.6-2.2,2.6-4.6,2.6c-0.7,0-1.5-0.1-2.1-0.5c-0.4-0.3-0.7-0.6-0.7-1.1c0-0.5,0.1-1.3,0.4-1.9c0.1-0.2,0.2-0.3,0.3-0.3
			c0.1,0,0.2,0.1,0.3,0.3c0.2,0.7,1.2,1,2.3,1c2.1,0,3.1-0.5,3.6-1.3c0-0.2,0.1-0.4,0.1-0.7c0-1.3-0.4-2.9-0.7-4.4
			c0-0.2-0.1-0.3-0.1-0.5c0-0.1,0.1-0.4,0.5-1.4c0.2-0.4,0.3-0.6,0.4-0.6c0.1,0,0.2,0.2,0.3,0.6c0.8,3.3,0.8,5.6,1.2,7
			c0.1,0.4,0.2,0.6,0.5,0.9C376.9,23.1,377.3,23.3,377.7,23.3z"/>
		<path class="st0" d="M377.8,25.6c-0.5,0-0.8-0.4-0.8-1.2c0-0.7,0.3-1.1,0.8-1.1h4.7c0.5,0,0.8,0.4,0.8,1.1c0,0.8-0.3,1.2-0.8,1.2
			H377.8z"/>
		<path class="st0" d="M382.5,25.6c-0.5,0-0.8-0.4-0.8-1.2c0-0.7,0.3-1.1,0.8-1.1h4.7c0.5,0,0.8,0.4,0.8,1.1c0,0.8-0.3,1.2-0.8,1.2
			H382.5z"/>
		<path class="st0" d="M387.1,25.6c-0.5,0-0.8-0.4-0.8-1.2c0-0.7,0.3-1.1,0.8-1.1h4.7c0.5,0,0.8,0.4,0.8,1.1c0,0.8-0.3,1.2-0.8,1.2
			H387.1z"/>
		<path class="st0" d="M394.2,24.6c-0.6,0.6-1.3,1-2.3,1h-0.3c-0.7,0-1-0.4-1-1.2c0-0.7,0.3-1.1,1-1.1h0.2c0.9,0,1.6-0.2,2.1-0.5
			c0.7-0.4,1.2-1,1.7-1.9c0.1-0.1,0.2-0.2,0.3-0.2c0.2,0,0.2,0.2,0.3,0.7c0.1,0.8,0.5,1.5,1.5,1.5c1.1,0,2.2-1,2.6-2
			c0.2-0.6,0.5-0.9,0.6-0.9c0.1,0,0.2,0.1,0.2,0.3c0,0.2-0.1,0.4-0.1,0.7c0,1.3,1.1,1.8,1.8,1.8c0.2,0,0.7-0.1,0.7-0.4
			c0-0.3-0.2-0.6-0.4-1c0,0,0-0.1,0-0.1c0-0.3,0.7-1.4,1-1.8c0-0.1,0.1-0.2,0.2-0.2c0.1,0,0.1,0.1,0.2,0.2c0.2,0.4,0.3,0.9,0.3,1.6
			c0,1.3-0.8,3.9-2.6,3.9c-1.1,0-1.8-0.6-2.1-1.6c-0.8,1.4-1.8,1.9-2.6,1.9c-1.1,0-1.8-0.6-2-2.2C395,23.7,394.7,24.1,394.2,24.6z
			 M401.9,14.6c0.2-0.2,0.2-0.2,0.3-0.1c0.5,0.5,1,1.1,1.5,1.4c0.2,0.1,0.2,0.2,0,0.3c-0.5,0.5-0.9,1-1.3,1.5
			c-0.1,0.1-0.2,0.1-0.3,0c-0.4-0.3-0.9-0.7-1.4-1.2c-0.3,0.3-0.9,1-1.1,1.2c-0.1,0.1-0.2,0.2-0.4,0c-0.5-0.3-1.1-0.9-1.5-1.4
			c-0.1-0.1-0.1-0.2,0-0.3c0.4-0.5,0.9-1,1.4-1.5c0.1-0.1,0.2-0.1,0.3,0.1c0.4,0.4,1,1,1.4,1.2C401.1,15.4,401.6,14.8,401.9,14.6z
			 M402.2,11.3c0.1,0.1,0.1,0.1,0,0.2c-0.2,0.3-1.1,1.2-1.4,1.7c-0.1,0.1-0.1,0.1-0.2,0c-0.5-0.3-1.5-1-1.7-1.4
			c-0.1-0.1-0.1-0.1,0-0.2c0.3-0.5,0.9-1.2,1.3-1.6c0.2-0.2,0.2-0.2,0.3-0.1C400.8,10.2,401.5,10.8,402.2,11.3z"/>
		<path class="st0" d="M426,6.8c0.1-0.1,0.1,0,0.1,0.1c0,0.6-0.2,1.1-0.5,1.3l-4,2.3c-0.1,0-0.1,0-0.1-0.1c0-0.3,0.1-0.8,0.2-1
			c0.1-0.2,0.3-0.3,0.7-0.5L426,6.8z M426,8.8c0.1-0.1,0.1,0,0.1,0.1c0,0.6-0.2,1.1-0.5,1.3l-4,2.3c-0.1,0-0.1,0-0.1-0.1
			c0-0.3,0.1-0.8,0.2-1c0.1-0.2,0.3-0.3,0.7-0.5L426,8.8z"/>
		<path class="st0" d="M425.9,14.6c0.1,0.1,0.1,0.1,0,0.2c-0.2,0.3-1.1,1.2-1.4,1.7c-0.1,0.1-0.1,0.1-0.2,0c-0.5-0.3-1.5-1-1.7-1.4
			c-0.1-0.1-0.1-0.1,0-0.2c0.3-0.5,0.9-1.2,1.3-1.6c0.2-0.2,0.2-0.2,0.3-0.1C424.5,13.5,425.2,14.2,425.9,14.6z"/>
		<path class="st0" d="M418.8,18.3c-0.1-2-0.2-5.3-0.5-6.9c0,0,0-0.1,0-0.1c0-0.3,0.4-0.8,0.7-1.4c0.2-0.3,0.3-0.6,0.4-0.6
			c0.1,0,0.2,0.2,0.3,0.7c0.4,3.5,0.2,8.4,0.7,11.3c0.2,1,0.4,1.5,0.9,1.8c0.5,0.2,1.2,0.3,1.9,0.3c0.6,0,1.7,0,2.3-0.6
			c-0.1-0.9-0.7-2-1.1-2.4c0,0,0-0.1,0-0.1c0-0.2,0.5-1.4,0.7-1.8c0-0.1,0.1-0.1,0.1-0.1c0.1,0,0.3,0.2,0.4,0.5
			c0.5,0.8,0.7,1.9,0.7,3.1c0,0.9-0.1,2-0.8,2.7c-0.8,0.8-1.8,1.2-3.1,1.2c-0.8,0-1.7-0.2-2.2-0.8C419.2,23.9,419,22.8,418.8,18.3z"
			/>
		<path class="st0" d="M425.2,31.5c-0.3-0.2-0.4-0.3-0.4-0.4c0-0.1,0.2-0.2,0.4-0.2c0.3,0,1.1,0.2,1.8,0.2c0.6,0,1.2-0.2,2.1-0.6
			c2.4-1.2,3.9-3,3.9-4.2c0-0.2,0-0.3-0.1-0.7h-0.7c-0.5,0-1.5-0.1-2.2-0.5c-0.7-0.4-1-0.9-1-1.5c0-0.6,0.3-1.4,0.6-2.2
			c0.6-1.3,1.2-2.2,1.9-2.2c0.7,0,1.3,0.5,1.8,1.1c0.5,0.7,0.7,1.8,0.7,2.8h1c0.6,0,0.9,0.3,0.9,1c0,0.8-0.3,1.2-0.9,1.2l-1.1,0.1
			c-0.2,3.5-1.3,5.8-4.1,6.9c-0.2,0.1-0.4,0.1-0.6,0.1C428.2,32.6,426.6,32.1,425.2,31.5z M431.5,21.9c-0.1-0.1-0.3-0.2-0.6-0.2
			c-0.5,0-0.8,0.5-0.8,0.8c0,0.2,0.2,0.5,0.8,0.7c0.4,0.2,0.9,0.2,1.1,0.2c0.2,0,0.2,0,0.2-0.1C432.3,23,431.9,22.2,431.5,21.9z"/>
		<path class="st0" d="M434.7,25.6c-0.5,0-0.8-0.4-0.8-1.2c0-0.7,0.3-1.1,0.8-1.1h4.7c0.5,0,0.8,0.4,0.8,1.1c0,0.8-0.3,1.2-0.8,1.2
			H434.7z"/>
		<path class="st0" d="M439.4,25.6c-0.5,0-0.8-0.4-0.8-1.2c0-0.7,0.3-1.1,0.8-1.1h4.7c0.5,0,0.8,0.4,0.8,1.1c0,0.8-0.3,1.2-0.8,1.2
			H439.4z"/>
		<path class="st0" d="M444,25.6c-0.5,0-0.8-0.4-0.8-1.2c0-0.7,0.3-1.1,0.8-1.1h4.7c0.5,0,0.8,0.4,0.8,1.1c0,0.8-0.3,1.2-0.8,1.2
			H444z"/>
		<path class="st0" d="M452.6,24.2c-0.4,0.6-1.2,1.1-2.6,1.3c-0.4,0.1-0.9,0.1-1.4,0.1c-0.6,0-1-0.6-1-1.1c0-0.6,0.3-1.1,1-1.1h0.5
			c1,0,2.6,0,3.2-0.6c-0.1-0.9-0.8-2-1.1-2.4c0,0,0,0,0-0.1c0-0.4,0.7-1.8,0.7-1.9c0-0.1,0.1-0.1,0.1-0.1c0.3,0,1.1,1.6,1.1,3.5
			C453.2,22.5,453.1,23.4,452.6,24.2z M453.2,13.1c0.1,0.1,0.1,0.1,0,0.2c-0.2,0.3-1.1,1.2-1.4,1.7c-0.1,0.1-0.1,0.1-0.2,0
			c-0.5-0.3-1.5-1-1.7-1.4c-0.1-0.1-0.1-0.1,0-0.2c0.3-0.5,0.9-1.2,1.3-1.6c0.2-0.2,0.2-0.2,0.3-0.1C451.8,12,452.5,12.7,453.2,13.1
			z"/>
		<path class="st0" d="M476.3,10.5c0.2-0.2,0.2-0.2,0.3-0.1c0.5,0.5,1,1.1,1.5,1.4c0.2,0.1,0.2,0.2,0,0.3c-0.5,0.5-0.9,1-1.3,1.5
			c-0.1,0.1-0.2,0.1-0.3,0c-0.4-0.3-0.9-0.7-1.4-1.2c-0.3,0.3-0.9,1-1.1,1.2c-0.1,0.1-0.2,0.2-0.4,0c-0.5-0.3-1.1-0.9-1.5-1.4
			c-0.1-0.1-0.1-0.2,0-0.3c0.4-0.5,0.9-1,1.4-1.5c0.1-0.1,0.2-0.1,0.3,0.1c0.4,0.4,1,1,1.4,1.2C475.5,11.4,476.1,10.7,476.3,10.5z
			 M476.7,7.2c0.1,0.1,0.1,0.1,0,0.2c-0.2,0.3-1.1,1.2-1.4,1.7c-0.1,0.1-0.1,0.1-0.2,0c-0.5-0.3-1.5-1-1.7-1.4
			c-0.1-0.1-0.1-0.1,0-0.2c0.3-0.5,0.9-1.2,1.3-1.6c0.2-0.2,0.2-0.2,0.3-0.1C475.3,6.1,476,6.8,476.7,7.2z"/>
		<path class="st0" d="M468.8,20c0.9-2,4.3-3.9,7.3-3.9c0.8,0,1.4,0.3,1.4,1.1c0,0.5-0.2,1-0.6,1.7c-0.2,0.3-0.3,0.4-0.5,0.4
			c-0.2,0-0.4-0.2-0.5-0.5c-0.2-0.4-0.7-0.4-1.1-0.4c-1.3,0-3.4,0.6-4.4,1.7c0.6,0.2,1.2,0.5,1.8,1.1c0.6,0.5,0.9,0.9,0.9,1.2
			c0,0.1-0.6,1.4-0.9,1.8c-0.1,0.1-0.2,0.1-0.3,0.1c-0.5-0.2-1.3-0.4-2.2-0.4c-1.7,0-2.7,0.3-3,0.9l0.8,5.1c0.2,1.1,0.3,2.2,0.3,3.1
			c0,0.9-0.1,1.8-0.5,2.7c-0.1,0.3-0.3,0.7-0.4,0.6c-0.1,0-0.2-0.2-0.1-0.6c0.1-1.3-0.1-3-0.5-5.5c-0.3-1.9-0.6-3.1-0.6-3.9
			c0-1,0.2-1.9,0.7-2.8c0.5-0.9,1.1-1.5,1.8-1.8C468.3,21,468.6,20.3,468.8,20z"/>
		<path class="st0" d="M494.4,25.6c-0.7,0-1.2-0.1-1.7-0.5c-0.7-0.6-1.1-1.7-1.3-3.1c-0.2-1.1-0.2-2.3-0.3-3.7
			c-0.1-2-0.2-5.1-0.5-6.9c0-0.1,0-0.2,0-0.2c0-0.1,0-0.2,0.2-0.4c0.3-0.5,0.5-0.8,0.7-1.2c0.2-0.3,0.2-0.3,0.3-0.3
			c0.1,0,0.2,0.2,0.3,0.7c0.4,3.5,0.1,8.4,0.6,11.1c0.1,0.7,0.2,0.9,0.4,1.3c0.3,0.6,0.7,0.9,1.4,1c0.8,0,1.2,0.4,1.2,1.1
			c0,0.9-0.4,1.2-1.1,1.2H494.4z"/>
		<path class="st0" d="M494.6,25.6c-0.5,0-0.8-0.4-0.8-1.2c0-0.7,0.3-1.1,0.8-1.1h4.7c0.5,0,0.8,0.4,0.8,1.1c0,0.8-0.3,1.2-0.8,1.2
			H494.6z"/>
		<path class="st0" d="M499.2,25.6c-0.5,0-0.8-0.4-0.8-1.2c0-0.7,0.3-1.1,0.8-1.1h4.7c0.5,0,0.8,0.4,0.8,1.1c0,0.8-0.3,1.2-0.8,1.2
			H499.2z"/>
		<path class="st0" d="M503.9,25.6c-0.5,0-0.8-0.4-0.8-1.2c0-0.7,0.3-1.1,0.8-1.1h4.7c0.5,0,0.8,0.4,0.8,1.1c0,0.8-0.3,1.2-0.8,1.2
			H503.9z"/>
		<path class="st0" d="M515.6,12.6c0.1-0.1,0.1,0,0.1,0.1c0,0.6-0.2,1.1-0.5,1.3l-4,2.3c-0.1,0-0.1,0-0.1-0.1c0-0.3,0.1-0.8,0.2-1
			c0.1-0.2,0.3-0.3,0.7-0.5L515.6,12.6z M515.6,14.6c0.1-0.1,0.1,0,0.1,0.1c0,0.6-0.2,1.1-0.5,1.3l-4,2.3c-0.1,0-0.1,0-0.1-0.1
			c0-0.3,0.1-0.8,0.2-1c0.1-0.2,0.3-0.3,0.7-0.5L515.6,14.6z"/>
		<path class="st0" d="M508.7,25.6h-0.2c-0.6,0-0.9-0.4-0.9-1.1c0-0.8,0.3-1.2,1-1.2h0.2c1.6,0,2.7-0.8,3.5-1.6
			c0.8-0.8,1.4-1.6,1.9-1.6c0.2,0,0.4,0.1,0.6,0.3c0.9,1,2.9,2.9,3.8,2.9h0.1c0.7,0,1.1,0.4,1.1,1.1c0,0.8-0.4,1.2-1.1,1.2h-0.1
			c-0.9,0-1.8-0.6-1.9-0.8c-0.2,0.7-1,1.5-1.4,1.5c-0.4,0-3.3-0.9-4.2-2.2C510.7,25,509.6,25.6,508.7,25.6z M514.5,22.7
			c-0.3-0.3-0.7-0.6-1.1-0.6c-0.2,0-0.3,0.1-0.5,0.3c-0.2,0.2-0.3,0.3-0.3,0.4c0,0.2,0.3,0.3,1.2,0.8c0.4,0.2,1.3,0.6,1.5,0.6
			c0.1,0,0.1-0.1,0.1-0.1C515.4,23.7,514.8,23,514.5,22.7z"/>
		<path class="st0" d="M523.6,28.5c0.2-0.2,0.2-0.2,0.3-0.1c0.5,0.5,1,1.1,1.5,1.4c0.2,0.1,0.2,0.2,0,0.3c-0.5,0.5-0.9,1-1.3,1.5
			c-0.1,0.1-0.2,0.1-0.3,0c-0.4-0.3-0.9-0.7-1.4-1.2c-0.3,0.3-0.9,1-1.1,1.2c-0.1,0.1-0.2,0.2-0.4,0c-0.5-0.3-1.1-0.9-1.5-1.4
			c-0.1-0.1-0.1-0.2,0-0.3c0.4-0.5,0.9-1,1.4-1.5c0.1-0.1,0.2-0.1,0.3,0.1c0.4,0.4,1,1,1.4,1.2C522.8,29.4,523.3,28.7,523.6,28.5z"
			/>
		<path class="st0" d="M523.3,21.9c0,0.6,0.6,1.2,1.4,1.4c0.2,0,0.3,0,0.5,0h0.1c0.9,0,0.9,0.7,0.9,1c0,0.3,0,1.3-0.8,1.3h-0.2
			c-0.2,0-0.3,0-0.6,0c-1.5-0.2-2.1-1.5-2.2-1.7c-0.2,0.6-1.5,1.7-3.7,1.7h-0.1c-0.6,0-1-0.6-1-1.1c0-0.6,0.3-1.1,1-1.1h0.7
			c1,0,2.4-0.2,3.3-1.6c0.3-0.5,0.4-0.5,0.5-0.5C523.2,21.2,523.3,21.4,523.3,21.9z"/>
		<path class="st0" d="M525.4,25.6h-0.1c-0.7,0-1-0.4-1-1.2c0-0.7,0.4-1.1,1-1.1h0.1c1.2,0,2.2-0.5,2.9-1.4l1.3-2
			c0.7-1.1,1.7-1.5,2.2-1.5c1.7,0,2.4,2.9,2.4,4.1c0,1-1.1,2.4-1.6,2.4c-0.8,0-2.8-1-3.8-1.9C527.7,24.8,526.7,25.6,525.4,25.6z
			 M530.7,20.4c-0.2,0-0.3,0.1-0.5,0.3c-0.1,0.1-0.2,0.3-0.3,0.5c0.5,0.3,1.9,1,2.5,1.4C532.4,21.7,531.4,20.4,530.7,20.4z"/>
		<path class="st0" d="M550,15.4c-0.7,0-1.1-0.7-1.1-1.5c0-0.2,0-0.5,0.1-0.8c0.1-0.2,0.2-0.8,0.5-0.8c0.1,0,0.2,0.2,0.2,0.6v0.3
			c0,0.3,0.2,0.5,0.6,0.5h0c0.5,0,0.8-0.3,0.9-1c0.1-0.3,0.2-1.1,0.6-1.1c0.1,0,0.2,0.2,0.2,0.5c0,0.2,0.1,0.3,0.4,0.3
			c0.5,0,0.8-0.3,0.9-0.8c0.1-0.7,0.2-0.8,0.4-0.8c0.2,0,0.3,0.7,0.3,1.1c0,0.3,0,0.6-0.2,1c-0.2,0.7-0.7,1.2-1.5,1.2
			c-0.2,0-0.4-0.1-0.5-0.1c-0.1-0.1-0.1,0-0.2,0.1C551.2,14.9,550.7,15.4,550,15.4z M553.9,8.5C554,8.4,554,8.5,553.9,8.5
			c0,0.5-0.2,0.9-0.4,1.2c-0.1,0.1-0.2,0.2-0.5,0.3l-4,1.9c0,0-0.1,0-0.1-0.1c0-0.2,0.1-0.5,0.2-0.7c0.2-0.3,0.2-0.4,0.3-0.5
			c0.1-0.1,0.2-0.1,0.3-0.2L553.9,8.5z"/>
		<path class="st0" d="M556.4,23.4c0-0.3,0.3-1.4,0.6-2c0.1-0.1,0.1-0.2,0.2-0.2c0.1,0,0.2,0.1,0.2,0.2c0.6,1.2,1.1,1.8,1.9,1.8h0.3
			c0.7,0,1,0.4,1,1.1c0,0.8-0.3,1.2-1,1.2h-0.3c-0.4,0-0.7,0-0.9-0.1c-0.1,1.8-0.2,2.6-0.4,3c-0.3,0.9-0.8,1.7-2.1,2.6
			c-1.2,0.9-3,1.5-5.5,1.5c-2.5,0-4.4-1.7-4.4-4.5c0-1.4,0.7-3.1,1.3-3.8c0.2-0.3,0.5-0.6,0.6-0.6c0.1,0,0.1,0.1,0.1,0.2
			c0,0.2-0.1,0.4-0.2,0.7c-0.5,0.9-0.8,1.7-0.8,2.7c0,1.9,2.3,3,3.9,3c2.7,0,5.6-1,6.4-2.5c0-0.1,0.1-0.2,0.1-0.4
			c-0.1-1.9-0.3-2.6-0.9-3.7C556.4,23.6,556.4,23.5,556.4,23.4z M554,18.3c0.1,0.1,0.1,0.1,0,0.2c-0.2,0.3-1.1,1.2-1.4,1.7
			c-0.1,0.1-0.1,0.1-0.2,0c-0.5-0.3-1.5-1-1.7-1.4c-0.1-0.1-0.1-0.1,0-0.2c0.3-0.5,0.9-1.2,1.3-1.6c0.2-0.2,0.2-0.2,0.3-0.1
			C552.6,17.2,553.3,17.9,554,18.3z"/>
		<path class="st0" d="M559.4,25.6c-0.5,0-0.8-0.4-0.8-1.2c0-0.7,0.3-1.1,0.8-1.1h4.7c0.5,0,0.8,0.4,0.8,1.1c0,0.8-0.3,1.2-0.8,1.2
			H559.4z"/>
		<path class="st0" d="M564,25.6c-0.5,0-0.8-0.4-0.8-1.2c0-0.7,0.3-1.1,0.8-1.1h4.7c0.5,0,0.8,0.4,0.8,1.1c0,0.8-0.3,1.2-0.8,1.2
			H564z"/>
		<path class="st0" d="M568.7,25.6c-0.5,0-0.8-0.4-0.8-1.2c0-0.7,0.3-1.1,0.8-1.1h4.7c0.5,0,0.8,0.4,0.8,1.1c0,0.8-0.3,1.2-0.8,1.2
			H568.7z"/>
		<path class="st0" d="M574.6,21.1c0-0.5,0.2-1.7,0.6-2.5c0.7-1.5,1.9-2.2,2.9-2.2c0.7,0,2.1,0.4,2.8,1c0.3,0.2,0.3,0.4,0.3,0.5
			c0,0.1-0.1,0.1-0.2,0.1c-0.4,0-1-0.1-1.6-0.1c-1.1,0-3.6,1-3.7,1.7c0.1,0.4,1.3,2.3,3.3,2.3h0.1c1.2-0.5,2.7-1.1,3.7-1.6
			c0.4-0.2,0.7-0.3,0.8-0.3c0.1,0,0.1,0,0.1,0.1c0,0.2-0.5,1.2-0.8,1.7c-0.1,0.1-0.2,0.3-0.4,0.4c-0.7,0.4-1.8,0.9-3.2,1.6
			c-1.5,0.7-4.6,1.8-5.9,1.8h-0.2c-0.7,0-1-0.4-1-1.1c0-0.8,0.4-1.1,1.1-1.1h0.2c0.2,0,1.2-0.1,2.1-0.3
			C575,22.5,574.6,21.9,574.6,21.1z M579.5,11.4c0.1,0.1,0.1,0.1,0,0.2c-0.2,0.3-1.1,1.2-1.4,1.7c-0.1,0.1-0.1,0.1-0.2,0
			c-0.5-0.3-1.5-1-1.7-1.4c-0.1-0.1-0.1-0.1,0-0.2c0.3-0.5,0.9-1.2,1.3-1.6c0.2-0.2,0.2-0.2,0.3-0.1C578,10.3,578.8,11,579.5,11.4z"
			/>
		<path class="st0" d="M590.2,21.4c0.3,0.9,0.5,1.8,0.5,3.1c0,4-1.1,6.5-4.2,7.7c-0.2,0.1-0.4,0.1-0.6,0.1c-1,0-2.6-0.5-4-1.1
			c-0.3-0.2-0.4-0.3-0.4-0.4c0-0.1,0.1-0.2,0.4-0.2c0.2,0,1.1,0.2,1.8,0.2c0.9,0,1.9-0.4,3.3-1.3c1.5-1,2.8-2.3,2.8-3.8
			c0-0.5-0.1-1-0.4-1.5c-0.3,0.7-0.8,1.1-1.5,1.1c-1.3,0-2.1-0.7-2.1-2.1c0-0.5,0.3-1.3,0.6-2.1c0.5-1,1.2-1.9,1.8-1.9
			C588.8,19.2,589.7,20.1,590.2,21.4z M587.6,21.5c-0.3,0-0.5,0.2-0.7,0.5c-0.1,0.1-0.2,0.4-0.2,0.5c0,0.4,0.6,0.6,1.1,0.6
			c0.4,0,0.7-0.2,0.8-0.4C588.6,21.9,587.9,21.5,587.6,21.5z"/>
	</g>
	<g>
		<path class="st0" d="M1.2,25.6c-0.1,0-0.2-0.2-0.2-0.7c0-3-1.1-11.3-1.1-12.7c0-0.7,0.5-1.7,0.9-2.5C1,9.5,1.2,9.2,1.3,9.2
			c0.1,0,0.2,0.2,0.2,0.8c0.1,2.2,0.7,7.3,0.7,11c0,1.5-0.1,2.7-0.4,3.5C1.6,25.2,1.4,25.6,1.2,25.6z"/>
		<path class="st0" d="M15,23.3h0.3c0.7,0,1,0.4,1,1.1c0,0.8-0.4,1.2-1,1.2H15c-0.8,0-1.4-0.3-1.8-0.7c-0.5-0.4-0.8-1-1.1-1.9
			c-0.3,1.6-2.2,2.6-4.6,2.6c-0.7,0-1.5-0.1-2.1-0.5C5,24.9,4.8,24.5,4.8,24c0-0.5,0.1-1.3,0.4-1.9c0.1-0.2,0.2-0.3,0.3-0.3
			s0.2,0.1,0.3,0.3c0.2,0.7,1.2,1,2.3,1c2.1,0,3.1-0.5,3.6-1.3c0-0.2,0.1-0.4,0.1-0.7c0-1.3-0.4-2.9-0.7-4.4c0-0.2-0.1-0.3-0.1-0.5
			c0-0.1,0.1-0.4,0.5-1.4c0.2-0.4,0.3-0.6,0.4-0.6c0.1,0,0.2,0.2,0.3,0.6c0.8,3.3,0.8,5.6,1.2,7c0.1,0.4,0.2,0.6,0.5,0.9
			C14.2,23.1,14.6,23.3,15,23.3z"/>
		<path class="st0" d="M15.1,25.6c-0.5,0-0.8-0.4-0.8-1.2c0-0.7,0.3-1.1,0.8-1.1h4.7c0.5,0,0.8,0.4,0.8,1.1c0,0.8-0.3,1.2-0.8,1.2
			H15.1z"/>
		<path class="st0" d="M19.7,25.6c-0.5,0-0.8-0.4-0.8-1.2c0-0.7,0.3-1.1,0.8-1.1h4.7c0.5,0,0.8,0.4,0.8,1.1c0,0.8-0.3,1.2-0.8,1.2
			H19.7z"/>
		<path class="st0" d="M24.4,25.6c-0.5,0-0.8-0.4-0.8-1.2c0-0.7,0.3-1.1,0.8-1.1H29c0.5,0,0.8,0.4,0.8,1.1c0,0.8-0.3,1.2-0.8,1.2
			H24.4z"/>
		<path class="st0" d="M32.9,24.2c-0.4,0.6-1.2,1.1-2.6,1.3c-0.4,0.1-0.9,0.1-1.4,0.1c-0.6,0-1-0.6-1-1.1c0-0.6,0.3-1.1,1-1.1h0.5
			c1,0,2.6,0,3.2-0.6c-0.1-0.9-0.8-2-1.1-2.4c0,0,0,0,0-0.1c0-0.4,0.7-1.8,0.7-1.9c0-0.1,0.1-0.1,0.1-0.1c0.3,0,1.1,1.6,1.1,3.5
			C33.5,22.5,33.4,23.4,32.9,24.2z M34,28.1c0.1,0.1,0.1,0.1,0,0.2c-0.2,0.3-1.1,1.2-1.4,1.7c-0.1,0.1-0.1,0.1-0.2,0
			c-0.5-0.3-1.5-1-1.7-1.4c-0.1-0.1-0.1-0.1,0-0.2c0.3-0.5,0.9-1.2,1.3-1.6c0.2-0.2,0.2-0.2,0.3-0.1C32.6,27,33.3,27.6,34,28.1z"/>
		<path class="st0" d="M54.7,26.4c0.1-0.1,0.1,0,0.1,0.1c0,0.6-0.2,1.1-0.5,1.3l-4.2,2.4c-0.1,0-0.1,0-0.1-0.1c0-0.3,0.1-0.8,0.2-1
			c0.1-0.2,0.3-0.3,0.7-0.5L54.7,26.4z M54.7,28.5c0.1-0.1,0.1,0,0.1,0.1c0,0.6-0.2,1.1-0.5,1.3l-4.2,2.4c-0.1,0-0.1,0-0.1-0.1
			c0-0.3,0.1-0.8,0.2-1c0.1-0.2,0.3-0.3,0.7-0.5L54.7,28.5z"/>
		<path class="st0" d="M53.4,10.4c0.2-0.2,0.2-0.2,0.3-0.1c0.5,0.5,1,1.1,1.5,1.4c0.2,0.1,0.2,0.2,0,0.3c-0.5,0.5-0.9,1-1.3,1.5
			c-0.1,0.1-0.2,0.1-0.3,0c-0.4-0.3-0.9-0.7-1.4-1.2c-0.3,0.3-0.9,1-1.1,1.2c-0.1,0.1-0.2,0.2-0.4,0c-0.5-0.3-1.1-0.9-1.5-1.4
			c-0.1-0.1-0.1-0.2,0-0.3c0.4-0.5,0.9-1,1.4-1.5c0.1-0.1,0.2-0.1,0.3,0.1c0.4,0.4,1,1,1.4,1.2C52.6,11.3,53.1,10.7,53.4,10.4z
			 M56.3,22.8c0.5,0.3,0.9,0.5,1.2,0.5h0.3c0.7,0,1.1,0.4,1.1,1.1c0,0.8-0.4,1.2-1.1,1.2h-0.3c-0.8,0-1.5-0.3-2.3-0.9
			c-0.7-0.6-1.2-1.6-1.4-3c-0.2,0.4-0.4,0.7-0.8,1c-0.6,0.4-1.6,0.6-2.6,0.6c-0.7,0-1.4-0.1-1.4-0.7c0.3-2.2,0.6-2.6,1.7-3.4
			c0.5-0.4,1.8-1.2,2.3-1.6c0-0.2,0-0.4,0-0.5c0-0.5,0.1-0.8,0.4-1.2c0.2-0.3,0.3-0.5,0.4-0.5c0.1,0,0.2,0.2,0.2,0.5
			c0.3,2.1,0.5,3.8,0.8,4.8C55,21.5,55.6,22.3,56.3,22.8z M53.3,18.8c-0.9,0.6-2.5,1.6-2.6,1.9c0,0.2,0.3,0.2,0.7,0.2
			c0.6,0,1.5-0.2,2.2-0.5C53.5,19.8,53.5,19.5,53.3,18.8z"/>
		<path class="st0" d="M57.6,25.6c-0.5,0-0.8-0.4-0.8-1.2c0-0.7,0.3-1.1,0.8-1.1h4.7c0.5,0,0.8,0.4,0.8,1.1c0,0.8-0.3,1.2-0.8,1.2
			H57.6z"/>
		<path class="st0" d="M62.2,25.6c-0.5,0-0.8-0.4-0.8-1.2c0-0.7,0.3-1.1,0.8-1.1h4.7c0.5,0,0.8,0.4,0.8,1.1c0,0.8-0.3,1.2-0.8,1.2
			H62.2z"/>
		<path class="st0" d="M66.9,25.6c-0.5,0-0.8-0.4-0.8-1.2c0-0.7,0.3-1.1,0.8-1.1h4.7c0.5,0,0.8,0.4,0.8,1.1c0,0.8-0.3,1.2-0.8,1.2
			H66.9z"/>
		<path class="st0" d="M72.8,13.2c-0.7,0-1.1-0.7-1.1-1.5c0-0.2,0-0.5,0.1-0.8c0.1-0.2,0.2-0.8,0.5-0.8c0.1,0,0.2,0.2,0.2,0.6v0.3
			c0,0.3,0.2,0.5,0.6,0.5h0c0.5,0,0.8-0.3,0.9-1c0.1-0.3,0.2-1.1,0.6-1.1c0.1,0,0.2,0.2,0.2,0.5c0,0.2,0.1,0.3,0.4,0.3
			c0.5,0,0.8-0.3,0.9-0.8c0.1-0.7,0.2-0.8,0.4-0.8c0.2,0,0.3,0.7,0.3,1.1c0,0.3,0,0.6-0.2,1c-0.2,0.7-0.7,1.2-1.5,1.2
			c-0.2,0-0.4-0.1-0.5-0.1c-0.1-0.1-0.1,0-0.2,0.1C74.1,12.7,73.6,13.2,72.8,13.2z M76.7,6.3C76.8,6.2,76.8,6.3,76.7,6.3
			c0,0.5-0.2,0.9-0.4,1.2c-0.1,0.1-0.2,0.2-0.5,0.3l-4,1.9c0,0-0.1,0-0.1-0.1c0-0.2,0.1-0.5,0.2-0.7c0.2-0.3,0.2-0.4,0.3-0.5
			c0.1-0.1,0.2-0.1,0.3-0.2L76.7,6.3z"/>
		<path class="st0" d="M76.3,21.9c0,0.6,0.6,1.2,1.4,1.4c0.2,0,0.3,0,0.5,0h0.1c0.9,0,0.9,0.7,0.9,1c0,0.3,0,1.3-0.8,1.3h-0.2
			c-0.2,0-0.3,0-0.6,0c-1.5-0.2-2.1-1.5-2.2-1.7c-0.2,0.6-1.5,1.7-3.7,1.7h-0.1c-0.6,0-1-0.6-1-1.1c0-0.6,0.3-1.1,1-1.1h0.7
			c1,0,2.4-0.2,3.3-1.6c0.3-0.5,0.4-0.5,0.5-0.5C76.2,21.2,76.3,21.4,76.3,21.9z M77.1,16c0.1,0.1,0.1,0.1,0,0.2
			c-0.2,0.3-1.1,1.2-1.4,1.7c-0.1,0.1-0.1,0.1-0.2,0c-0.5-0.3-1.5-1-1.7-1.4c-0.1-0.1-0.1-0.1,0-0.2c0.3-0.5,0.9-1.2,1.3-1.6
			c0.2-0.2,0.2-0.2,0.3-0.1C75.7,15,76.4,15.6,77.1,16z"/>
		<path class="st0" d="M83.8,3.1c0,0.5-0.1,1-0.3,1.5c0.2,0.1,0.4,0.3,0.4,0.4c0,0.4-0.2,0.7-0.3,1C83.5,6,83.5,6,83.4,6l-0.5-0.3
			c-0.5,0.8-1.3,1.8-2.5,2.3C80,8.2,79.5,8.4,79,8.4c-0.3,0-0.4-0.1-0.4-0.1c0-0.1,0.2-0.2,0.6-0.4c0.9-0.5,2.5-1.8,3.1-2.5
			C81.7,5,81.1,4.6,81.1,4c0-0.4,0.2-0.9,0.6-1.3c0.4-0.5,0.8-0.8,1.2-0.8C83.6,1.9,83.8,2.6,83.8,3.1z M82,3.6
			C82,3.6,82,3.6,82,3.6c0,0.2,0.4,0.5,0.8,0.7c0.1-0.2,0.1-0.4,0.1-0.7c0-0.3-0.1-0.4-0.3-0.4C82.4,3.1,82.1,3.3,82,3.6z"/>
		<path class="st0" d="M79.5,21.1c0-0.5,0.2-1.7,0.6-2.5c0.7-1.5,1.9-2.2,2.9-2.2c0.7,0,2.1,0.4,2.8,1c0.3,0.2,0.3,0.4,0.3,0.5
			c0,0.1-0.1,0.1-0.2,0.1c-0.4,0-1-0.1-1.6-0.1c-1.1,0-3.6,1-3.7,1.7c0.1,0.4,1.3,2.3,3.3,2.3h0.1c1.2-0.5,2.7-1.1,3.7-1.6
			c0.4-0.2,0.7-0.3,0.8-0.3c0.1,0,0.1,0,0.1,0.1c0,0.2-0.5,1.2-0.8,1.7c-0.1,0.1-0.2,0.3-0.4,0.4c-0.7,0.4-1.8,0.9-3.2,1.6
			c-1.5,0.7-4.6,1.8-5.9,1.8h-0.2c-0.7,0-1-0.4-1-1.1c0-0.8,0.4-1.1,1.1-1.1h0.2c0.2,0,1.2-0.1,2.1-0.3
			C79.9,22.5,79.5,21.9,79.5,21.1z M84.4,11.4c0.1,0.1,0.1,0.1,0,0.2c-0.2,0.3-1.1,1.2-1.4,1.7c-0.1,0.1-0.1,0.1-0.2,0
			c-0.5-0.3-1.5-1-1.7-1.4c-0.1-0.1-0.1-0.1,0-0.2c0.3-0.5,0.9-1.2,1.3-1.6c0.2-0.2,0.2-0.2,0.3-0.1C82.9,10.3,83.7,11,84.4,11.4z"
			/>
		<path class="st0" d="M118.8,27.3c0.1-0.1,0.1,0,0.1,0.1c0,0.6-0.2,1.1-0.5,1.3l-4.2,2.4c-0.1,0-0.1,0-0.1-0.1c0-0.3,0.1-0.8,0.2-1
			c0.1-0.2,0.3-0.3,0.7-0.5L118.8,27.3z M118.8,29.3c0.1-0.1,0.1,0,0.1,0.1c0,0.6-0.2,1.1-0.5,1.3l-4.2,2.4c-0.1,0-0.1,0-0.1-0.1
			c0-0.3,0.1-0.8,0.2-1c0.1-0.2,0.3-0.3,0.7-0.5L118.8,29.3z"/>
		<path class="st0" d="M123.5,19.9c0,0.5-0.3,1.8-0.6,2.8c-0.3,0.7-0.4,0.8-1.2,1.2c-1.7,0.8-5.7,2-9.8,2c-5.3,0-7.4-1.8-7.4-4.3
			c0-0.9,0.4-2.4,1-3.3c0.2-0.3,0.4-0.6,0.6-0.6c0.1,0,0.1,0,0.1,0.1c0,0.1-0.1,0.3-0.1,0.5c-0.2,0.7-0.5,1.4-0.5,2
			c0,1.1,1.4,3.1,6.5,3.2c3.7,0,7.7-0.8,9.4-1.4c0.9-0.3,0.9-0.5,0.9-1.1c0-0.5-0.1-0.8-0.3-1.3c-0.2,0.5-0.9,1-1.8,1
			c-1.1,0-1.8-0.7-1.8-2c0-1.8,1.4-4.1,2-4.1C122,14.5,123.5,17.1,123.5,19.9z M118.4,11.8c0.1,0.1,0.1,0.1,0,0.2
			c-0.2,0.3-1.1,1.2-1.4,1.7c-0.1,0.1-0.1,0.1-0.2,0c-0.5-0.3-1.5-1-1.7-1.4c-0.1-0.1-0.1-0.1,0-0.2c0.3-0.5,0.9-1.2,1.3-1.6
			c0.2-0.2,0.2-0.2,0.3-0.1C117,10.7,117.7,11.3,118.4,11.8z M120.2,16.8c-0.3,0-0.6,0.4-0.7,0.8c0,0,0,0.1,0,0.1c0,0,0,0.1,0,0.1
			c0.1,0.3,0.5,0.5,1,0.5c0.4,0,0.8-0.2,0.9-0.3c0,0,0.1-0.1,0.1-0.1C121.5,17.7,121,16.8,120.2,16.8z"/>
		<path class="st0" d="M128.4,15c0.7,0,1.7,1,1.7,2.1c0,0.4-0.1,0.8-0.2,1.2c-0.3,0.8-0.9,1.3-1.8,1.3c-0.8,0-1.3-0.6-1.3-1.3
			C126.7,17.2,127.9,15,128.4,15z M128.2,16.6c-0.3,0-0.7,0.6-0.7,1c0,0.3,0.4,0.6,0.8,0.6c0.5,0,1.1-0.3,1.1-0.5
			C129.3,17.4,128.7,16.6,128.2,16.6z"/>
		<path class="st0" d="M132,23.3c0.7,0,1.1,0.4,1.1,1.1c0,0.8-0.4,1.2-1.1,1.2h-0.2c-0.6,0-1,0-1.3-0.1c0,0.1,0,0.2,0,0.3
			c0,0.7-0.1,1.5-0.4,2.1c-0.5,1.2-1.3,3.3-3.6,4.3c-0.4,0.2-0.8,0.3-1.2,0.3c-0.9,0-2.4-0.5-3.5-1c-0.3-0.2-0.4-0.3-0.4-0.4
			c0-0.1,0.1-0.2,0.4-0.2c0.3,0,0.8,0.1,1.3,0.1c3.1,0,6.2-2.7,6.6-5c0-0.5-1.1-1.6-1.3-1.9c0-0.1-0.1-0.2-0.1-0.3
			c0-0.5,0.4-1.5,0.6-1.8c0.1-0.2,0.2-0.2,0.3-0.2c0.2,0,0.3,0.2,0.6,0.7c0.4,0.6,0.9,0.9,1.8,0.9H132z"/>
		<path class="st0" d="M131.8,25.6c-0.5,0-0.8-0.4-0.8-1.2c0-0.7,0.3-1.1,0.8-1.1h4.7c0.5,0,0.8,0.4,0.8,1.1c0,0.8-0.3,1.2-0.8,1.2
			H131.8z"/>
		<path class="st0" d="M136.4,25.6c-0.5,0-0.8-0.4-0.8-1.2c0-0.7,0.3-1.1,0.8-1.1h4.7c0.5,0,0.8,0.4,0.8,1.1c0,0.8-0.3,1.2-0.8,1.2
			H136.4z"/>
		<path class="st0" d="M141.1,25.6c-0.5,0-0.8-0.4-0.8-1.2c0-0.7,0.3-1.1,0.8-1.1h4.7c0.5,0,0.8,0.4,0.8,1.1c0,0.8-0.3,1.2-0.8,1.2
			H141.1z"/>
		<path class="st0" d="M153.2,12.2c0.1-0.1,0.1,0,0.1,0.1c0,0.6-0.2,1.1-0.5,1.3l-4.1,2.3c-0.1,0-0.1,0-0.1-0.1c0-0.3,0.1-0.8,0.2-1
			c0.1-0.2,0.3-0.3,0.7-0.5L153.2,12.2z"/>
		<path class="st0" d="M148.6,20.3c-0.2,0-0.5,0-0.6,0.1c-0.2,0.1-0.6,0.3-0.8,0.3c-0.2,0-0.2-0.1-0.2-0.2c0-0.4,0.6-1.3,1.2-1.8
			c0.5-0.4,1-0.6,1.4-0.6c0.2,0,0.3,0,0.5,0.1c1.8,0.4,4.1,1.4,6,1.8c1.3,0.3,2.6,0.4,3.4,0.4c0.2,0,0.3,0,0.5,0
			c0.1,0,0.1,0,0.1,0.1c0,0.4-0.7,1.5-1.1,1.9c-0.1,0.1-0.3,0.1-0.6,0.1c-0.5,0-1.6-0.1-1.9-0.1c-0.9,0-1.6,0.1-2.2,0.3
			c-0.4,0.2-1.2,0.5-2.3,1c-1.7,0.8-2.8,1.4-3.6,1.7c-0.8,0.3-1.6,0.5-2.5,0.5h-0.3c-0.7,0-1.1-0.4-1.1-1.2c0-0.7,0.4-1.1,1.1-1.1
			h0.3c1.4,0,2.5-0.1,3.4-0.4c0.9-0.3,2.3-0.7,4-1.4C151.3,20.9,149.7,20.3,148.6,20.3z"/>
		<path class="st0" d="M176.6,9.2c-0.7,0-1.1-0.7-1.1-1.5c0-0.2,0-0.5,0.1-0.8c0.1-0.2,0.2-0.8,0.5-0.8c0.1,0,0.2,0.2,0.2,0.6V7
			c0,0.3,0.2,0.5,0.6,0.5h0c0.5,0,0.8-0.3,0.9-1c0.1-0.3,0.2-1.1,0.6-1.1c0.1,0,0.2,0.2,0.2,0.5c0,0.2,0.1,0.3,0.4,0.3
			c0.5,0,0.8-0.3,0.9-0.8c0.1-0.7,0.2-0.8,0.4-0.8c0.2,0,0.3,0.7,0.3,1.1c0,0.3,0,0.6-0.2,1c-0.2,0.7-0.7,1.2-1.5,1.2
			c-0.2,0-0.4-0.1-0.5-0.1c-0.1-0.1-0.1,0-0.2,0.1C177.8,8.7,177.3,9.2,176.6,9.2z M180.6,0C180.7,0,180.7,0.1,180.6,0
			c0,0.5-0.2,0.9-0.4,1.2c-0.1,0.1-0.2,0.2-0.5,0.3l-4,1.9c0,0-0.1,0-0.1-0.1c0-0.2,0.1-0.5,0.2-0.7c0.2-0.3,0.2-0.4,0.3-0.5
			c0.1-0.1,0.2-0.1,0.3-0.2L180.6,0z M180.6,2.1C180.7,2.1,180.7,2.2,180.6,2.1c0,0.5-0.2,0.9-0.4,1.2c-0.1,0.1-0.2,0.2-0.5,0.3
			l-4,1.9c0,0-0.1,0-0.1-0.1c0-0.2,0.1-0.5,0.2-0.7c0.2-0.3,0.2-0.4,0.3-0.5c0.1-0.1,0.2-0.1,0.3-0.2L180.6,2.1z"/>
		<path class="st0" d="M187.3,15.2c0.1-0.6,0.5-1.1,1.1-1.6c2-1.6,6.5-4.1,8.6-5c0.2-0.1,0.4-0.1,0.4,0.1c0,0.3-0.3,1-0.9,1.9
			c0,0.1-0.1,0.1-0.2,0.1c-1.7,0.7-6.9,3.8-8.3,5c3.6,1.4,5.5,3.3,5.5,5.5c0,1.1-0.2,2.1-0.7,2.9c-0.3,0.5-0.7,0.8-1.3,1.1
			c-0.6,0.2-1.3,0.3-2,0.3c-0.6,0-1.1-0.1-1.4-0.3c-0.9-0.6-1.2-1.8-1.4-3.1c-0.2-1.2-0.3-2.3-0.4-3c0-0.4-0.2-0.5-0.2,0
			c-0.1,0.6-0.2,2.2-0.6,3.5c-0.3,0.8-0.7,1.7-1.4,2.5c-0.9,1.2-3.7,1.4-5.1,1.5c-0.6,0-0.8,0-0.8-0.1c0-0.1,0.2-0.3,1-0.7
			c1.2-0.6,2.7-1.7,4.5-3.4c0.4-0.4,0.7-0.8,0.9-1.2c0-1.1-0.8-2.4-1.1-2.9c-1-1.9-2.7-3.4-4-4c-0.2,0.2-0.4,0.5-0.8,0.5
			c-0.5,0-1.5-0.5-2.4-1.6c-0.2-0.3-0.3-0.9-0.3-1.6c0-0.7,0.2-1.4,0.5-1.4c0.5,0,1,0.2,1.4,0.4c2.4,1,5.6,3.7,6.6,6.8
			c0.3,0.9,0.5,1.9,0.5,2.4v0.4c1.2-3,0.5-7,0.5-9.3c0.2-0.7,0.9-2.4,1.2-2.1c0.2,0.2,0.2,1.7,0.3,3.5c0.1,0.7,0.1,2,0.2,3.5
			L187.3,15.2z M188.5,22.9c0.3,0.3,0.6,0.4,1.3,0.4c0.3,0,0.8-0.1,1.3-0.3c0.6-0.2,1-0.4,1.3-0.7c0-0.6-0.4-1.2-1.2-1.9
			c-0.8-0.7-2-1.4-3.4-2.1c-0.4-0.2-0.5-0.3-0.6-0.5c0.1,1.6,0.3,3.1,0.6,3.9C187.8,21.9,188,22.4,188.5,22.9z"/>
		<path class="st0" d="M212.2,16.2c-0.4,0-0.7-0.2-0.8-0.4c-0.2-0.3-0.3-0.8-0.3-1.1c0-0.4,0-0.7,0.2-1c0.2-0.4,0.4-0.7,0.7-0.7
			c0.1,0,0.1,0.1,0.1,0.3c0,0.2-0.1,0.4-0.1,0.6c0,0.5,0.3,0.7,0.7,0.7s0.7-0.4,0.9-0.8c0.3-0.7,0.6-1,0.9-1c0.1,0,0.2,0.1,0.2,0.3
			c0,0.1,0,0.2,0,0.4c0,0.3,0.1,0.5,0.5,0.5c0.3,0,0.6-0.2,0.9-0.7c0.3-0.5,0.4-0.7,0.5-0.7c0.2,0,0.2,0.3,0.2,0.5
			c0,0.6-0.2,1.1-0.5,1.6c-0.3,0.4-0.7,0.9-1.4,0.9c-0.4,0-0.6-0.1-0.8-0.3c-0.1-0.1-0.2,0-0.3,0.2
			C213.2,15.9,212.7,16.2,212.2,16.2z"/>
		<path class="st0" d="M218.4,27.2c0.1-0.1,0.1,0,0.1,0.1c0,0.6-0.2,1.1-0.5,1.3l-4.1,2.3c-0.1,0-0.1,0-0.1-0.1c0-0.3,0.1-0.8,0.2-1
			c0.1-0.2,0.3-0.3,0.7-0.5L218.4,27.2z"/>
		<path class="st0" d="M226.8,9.2c0.1-0.1,0.1,0,0.1,0.1c0,0.6-0.2,1.1-0.5,1.3l-4.1,2.3c-0.1,0-0.1,0-0.1-0.1c0-0.3,0.1-0.8,0.2-1
			c0.1-0.2,0.3-0.3,0.7-0.5L226.8,9.2z"/>
		<path class="st0" d="M217,21.3c0.5,0.4,0.8,0.8,0.8,1.1c0,0.1,0,0.2,0,0.2c-0.3,0.7-0.7,1.6-0.9,1.8c-0.1,0.1-0.1,0.1-0.2,0
			c-0.5-0.2-1.4-0.4-2.2-0.4c-1.7,0-2.8,0.3-3.1,0.9c0.4,2.7,1,5.1,1.2,8.1c0,1-0.1,2-0.5,3c-0.1,0.3-0.2,0.5-0.3,0.5
			c-0.2,0-0.2-0.3-0.1-0.4c0-0.2,0-0.5,0-0.7c0-0.9-0.2-2.4-0.6-4.7c-0.4-2.3-0.6-3.7-0.6-4.1c0-1,0.2-1.9,0.7-2.8
			c0.5-0.9,1.1-1.5,1.8-1.8c0.2-0.5,0.5-1.2,1-2c0.8-1.4,1.7-2.4,2.7-2.9c0.7-0.4,1.5-0.8,2.5-0.8c0.6,0,0.9,0.3,0.9,0.8
			c0,0.5,0.2,0.9,0.4,1.2c0.5,0.6,1,0.7,1.5,0.7c0.5,0,1-0.2,1.5-0.5c0.5-0.4,1-0.9,1.1-1.5c0.2-0.6,0.4-0.9,0.6-0.9
			c0.1,0,0.2,0.1,0.2,0.3c0,0.2-0.1,0.4-0.1,0.7c0,1.3,1.1,1.8,1.8,1.8c0.2,0,0.7-0.1,0.7-0.4c0-0.3-0.2-0.7-0.4-1c0,0,0-0.1,0-0.1
			c0-0.1,0.2-0.5,0.5-1c0.2-0.4,0.4-0.7,0.5-0.8c0-0.1,0.1-0.2,0.2-0.2c0.2,0,0.5,0.8,0.5,1.6c0,0.3,0,0.7-0.1,1.1
			c-0.3,1.5-0.9,2.4-1.7,2.8c-0.3,0.2-0.6,0.2-0.9,0.2c-0.9,0-1.8-0.6-2.1-1.6c-0.1,0.2-1,1.9-2.8,1.9c-0.5,0-1-0.1-1.3-0.4
			c-0.4-0.2-0.6-0.7-0.9-1.4c-0.2-0.5-0.4-1.1-1.2-1.1c-0.6,0-1.8,0.5-3,1.8C216,20.6,216.6,20.9,217,21.3z"/>
		<path class="st0" d="M236,13.1c0.1-0.1,0.1,0,0.1,0.1c0,0.6-0.2,1.1-0.5,1.3l-4.1,2.3c-0.1,0-0.1,0-0.1-0.1c0-0.3,0.1-0.8,0.2-1
			c0.1-0.2,0.3-0.3,0.7-0.5L236,13.1z"/>
		<path class="st0" d="M236.8,21.4c0.3,0.9,0.5,1.8,0.5,3.1c0,4-1.1,6.5-4.2,7.7c-0.2,0.1-0.4,0.1-0.6,0.1c-1,0-2.6-0.5-4-1.1
			c-0.3-0.2-0.4-0.3-0.4-0.4c0-0.1,0.1-0.2,0.4-0.2c0.2,0,1.1,0.2,1.8,0.2c0.9,0,1.9-0.4,3.3-1.3c1.5-1,2.8-2.3,2.8-3.8
			c0-0.5-0.1-1-0.4-1.5c-0.3,0.7-0.8,1.1-1.5,1.1c-1.3,0-2.1-0.7-2.1-2.1c0-0.5,0.3-1.3,0.6-2.1c0.5-1,1.2-1.9,1.8-1.9
			C235.4,19.2,236.3,20.1,236.8,21.4z M234.3,21.5c-0.3,0-0.5,0.2-0.7,0.5c-0.1,0.1-0.2,0.4-0.2,0.5c0,0.4,0.6,0.6,1.1,0.6
			c0.4,0,0.7-0.2,0.8-0.4C235.3,21.9,234.6,21.5,234.3,21.5z"/>
	</g>
</g>
</svg>
