<?xml version="1.0" encoding="utf-8"?>
<!-- Generator: Adobe Illustrator 19.2.0, SVG Export Plug-In . SVG Version: 6.00 Build 0)  -->
<svg version="1.1" id="Layer_1" xmlns="http://www.w3.org/2000/svg" xmlns:xlink="http://www.w3.org/1999/xlink" x="0px" y="0px"
	 viewBox="0 0 138.3 49.8" style="enable-background:new 0 0 138.3 49.8;" xml:space="preserve">
<style type="text/css">
	.st0{fill:#002F3D;}
	.st1{fill:none;}
</style>
<g>
	<g>
		<path class="st0" d="M54,35.4c0.1,0,0.1,0,0.1,0c0,0.5-0.2,0.9-0.4,1l-3.2,1.8c-0.1,0-0.1,0-0.1,0c0-0.2,0.1-0.6,0.2-0.8
			c0.1-0.1,0.2-0.2,0.5-0.4L54,35.4z"/>
		<path class="st0" d="M47.2,33.1c-0.7-0.7-1.1-1.6-1.1-2.7c0-1.2,0.7-2.5,1.1-3.1c0.2-0.2,0.3-0.3,0.4-0.3c0.1,0,0.1,0.1,0.1,0.1
			c0,0.1-0.1,0.3-0.1,0.4c-0.3,0.7-0.7,1.4-0.7,2.2c0,0.7,0.5,1.3,1.1,1.7c0.6,0.4,1.3,0.6,2.1,0.6c1.9,0,4.5-0.8,5-2.1
			c0-0.1,0-0.2,0-0.3c0-0.8-0.3-1.8-0.7-2.5c-0.2-0.3-0.3-0.5-0.4-0.7c0,0,0-0.1,0-0.1c0-0.2,0.1-0.4,0.1-0.6
			c0.1-0.3,0.2-0.6,0.3-0.8c0.1-0.1,0.1-0.2,0.2-0.2c0,0,0.1,0,0.2,0.2c0.6,1.2,1,2.3,1,3.7c0,1.1-0.1,1.8-0.3,2.1
			c-0.3,0.7-0.5,1-0.9,1.4c-0.4,0.4-1.1,0.9-2,1.3c-0.9,0.4-1.9,0.6-3.2,0.6C48.7,33.9,47.9,33.7,47.2,33.1z M52.4,22.2
			c0.1,0,0.1,0.1,0,0.2c-0.2,0.2-0.8,1-1.1,1.3c-0.1,0.1-0.1,0.1-0.2,0c-0.4-0.2-1.2-0.8-1.4-1.1c-0.1-0.1-0.1-0.1,0-0.2
			c0.3-0.4,0.7-0.9,1-1.2c0.2-0.2,0.2-0.2,0.2-0.1C51.3,21.3,51.8,21.8,52.4,22.2z"/>
		<path class="st0" d="M69,30.7c0.5,0,0.8,0.3,0.8,0.8c0,0.6-0.3,1-0.8,1h-0.3c-0.7,0-1.2-0.1-1.6-0.4c-0.4-0.3-1-0.7-1.6-1.4
			c-3.2,1.8-3.4,3.9-3.4,5.1c0,2.2,1.6,4.7,7.3,4.7c0.8,0,1.6-0.1,2.5-0.2c0.2,0,0.5-0.1,0.6-0.1c0.2,0,0.2,0,0.2,0.1
			c0,0.2-0.5,0.5-0.8,0.6C70.7,41.5,69,42,67,42.1c-4.1,0-5.7-2.7-5.7-5.3c0-3,1-5.1,3.2-6.9c-0.4-0.6-1.3-0.8-1.8-0.9
			c-0.1,0-0.1-0.1-0.1-0.3c0-0.4,0.1-1.1,0.4-1.3c0.7-0.6,1.6-0.8,2.4-0.8c0.8,0,1.6,0.3,2.1,0.8c0.1,0.1,0.2,0.3,0.2,0.6
			c0,0.6-0.3,1.3-1,1.8c0.6,0.6,1.4,1,2.1,1H69z"/>
		<path class="st0" d="M69,32.5L69,32.5c-0.6,0-0.9-0.3-0.9-0.9c0-0.6,0.3-0.9,0.8-0.9H69c1,0,1.7-0.4,2.3-1.1l1-1.5
			c0.6-0.9,1.3-1.2,1.7-1.2c1.3,0,1.9,2.3,1.9,3.2c0,0.8-0.8,1.9-1.3,1.9c-0.6,0-2.2-0.8-3-1.5C70.8,31.9,70,32.5,69,32.5z
			 M73.1,28.4c-0.1,0-0.2,0.1-0.4,0.3c-0.1,0.1-0.2,0.2-0.2,0.4c0.4,0.2,1.5,0.8,1.9,1.1C74.4,29.5,73.7,28.4,73.1,28.4z"/>
		<path class="st0" d="M86.1,15.5c0.5,0,1.3,0.8,1.3,1.6c0,0.3-0.1,0.6-0.2,0.9c-0.2,0.6-0.7,1-1.4,1c-0.6,0-1.1-0.5-1.1-1
			C84.8,17.2,85.7,15.5,86.1,15.5z M85.9,16.7c-0.2,0-0.6,0.5-0.6,0.8c0,0.2,0.3,0.4,0.6,0.4c0.4,0,0.9-0.2,0.9-0.4
			C86.9,17.4,86.4,16.7,85.9,16.7z"/>
		<path class="st0" d="M82.6,33.1c-0.7-0.7-1.1-1.6-1.1-2.7c0-1.2,0.7-2.5,1.1-3.1c0.2-0.2,0.3-0.3,0.4-0.3c0.1,0,0.1,0.1,0.1,0.1
			c0,0.1-0.1,0.3-0.1,0.4c-0.3,0.7-0.7,1.4-0.7,2.2c0,0.7,0.5,1.3,1.1,1.7c0.6,0.4,1.3,0.6,2.1,0.6c1.9,0,4.5-0.8,5-2.1
			c0-0.1,0-0.2,0-0.3c0-0.8-0.3-1.8-0.7-2.5c-0.2-0.3-0.3-0.5-0.4-0.7c0,0,0-0.1,0-0.1c0-0.2,0.1-0.4,0.1-0.6
			c0.1-0.3,0.2-0.6,0.3-0.8c0.1-0.1,0.1-0.2,0.2-0.2c0,0,0.1,0,0.2,0.2c0.6,1.2,1,2.3,1,3.7c0,1.1-0.1,1.8-0.3,2.1
			c-0.3,0.7-0.5,1-0.9,1.4c-0.4,0.4-1.1,0.9-2,1.3c-0.9,0.4-1.9,0.6-3.2,0.6C84.1,33.9,83.2,33.7,82.6,33.1z M87.7,22.2
			c0.1,0,0.1,0.1,0,0.2c-0.2,0.2-0.8,1-1.1,1.3c-0.1,0.1-0.1,0.1-0.2,0c-0.4-0.2-1.2-0.8-1.4-1.1c-0.1-0.1-0.1-0.1,0-0.2
			c0.3-0.4,0.7-0.9,1-1.2c0.2-0.2,0.2-0.2,0.2-0.1C86.6,21.3,87.2,21.8,87.7,22.2z"/>
	</g>
	<rect class="st1" width="138.3" height="49.8"/>
</g>
</svg>
