<?xml version="1.0" encoding="utf-8"?>
<!-- Generator: Adobe Illustrator 19.2.0, SVG Export Plug-In . SVG Version: 6.00 Build 0)  -->
<svg version="1.1" id="Layer_1" xmlns="http://www.w3.org/2000/svg" xmlns:xlink="http://www.w3.org/1999/xlink" x="0px" y="0px"
	 viewBox="0 0 586.5 91.3" style="enable-background:new 0 0 586.5 91.3;" xml:space="preserve">
<style type="text/css">
	.st0{fill:#FFFFFF;}
	.st1{fill:#F7931E;}
</style>
<g>
	<path class="st0" d="M3.1,24.9c0.2,0.3,0.3,0.6,0.3,1.1c0,0.5-0.2,0.9-0.5,1.1c-0.3,0.2-0.6,0.3-1,0.3c-0.6,0-1.2-0.4-1.5-1.1
		c-0.3-0.7-0.4-1.3-0.4-2c0-0.8,0.2-1.6,0.5-2.3c0.3-0.7,0.6-1.2,1-1.7c0.4-0.4,0.6-0.7,0.8-0.7c0.3,0,0.1,0.4-0.2,0.8
		C1.2,21.5,1,22.4,1,23.6c0,0.6,0.1,0.7,0.2,1c0.3-0.1,0.6-0.2,0.8-0.2C2.5,24.4,2.9,24.6,3.1,24.9z"/>
	<path class="st1" d="M14.1,27.7c0.1-0.1,0.1,0,0.1,0.1c0,0.6-0.2,1.1-0.5,1.3l-4.2,2.4c-0.1,0-0.1,0-0.1-0.1c0-0.3,0.1-0.8,0.2-1
		c0.1-0.2,0.3-0.3,0.7-0.5L14.1,27.7z M14.1,29.8c0.1-0.1,0.1,0,0.1,0.1c0,0.6-0.2,1.1-0.5,1.3l-4.2,2.4c-0.1,0-0.1,0-0.1-0.1
		c0-0.3,0.1-0.8,0.2-1c0.1-0.2,0.3-0.3,0.7-0.5L14.1,29.8z"/>
	<path class="st1" d="M20.1,8.7c0.7,0,1.7,1,1.7,2.1c0,0.4-0.1,0.8-0.2,1.2c-0.3,0.8-0.9,1.3-1.8,1.3c-0.8,0-1.3-0.6-1.3-1.3
		C18.5,10.9,19.6,8.7,20.1,8.7z M19.9,10.3c-0.3,0-0.7,0.6-0.7,1c0,0.3,0.4,0.6,0.8,0.6c0.5,0,1.1-0.3,1.1-0.5
		C21.1,11.1,20.5,10.3,19.9,10.3z"/>
	<path class="st1" d="M12.5,21.9c0.5,0.4,0.8,0.8,0.8,1.1c0,0.1,0,0.2,0,0.2c-0.3,0.7-0.7,1.6-0.9,1.8c-0.1,0.1-0.1,0.1-0.2,0
		c-0.5-0.2-1.4-0.4-2.2-0.4c-1.7,0-2.8,0.3-3.1,0.9c0.4,2.7,1,5.1,1.2,8.1c0,1-0.1,2-0.5,3C7.5,36.8,7.4,37,7.3,37
		c-0.2,0-0.2-0.3-0.1-0.4c0-0.2,0-0.5,0-0.7c0-0.9-0.2-2.4-0.6-4.7C6.2,28.9,6,27.5,5.9,27c0-1,0.2-1.9,0.7-2.8
		c0.5-0.9,1.1-1.5,1.8-1.8c0.2-0.5,0.5-1.2,1-2c0.8-1.4,1.7-2.4,2.7-2.9c0.7-0.4,1.5-0.8,2.5-0.8c0.6,0,0.9,0.3,0.9,0.8
		c0,0.5,0.2,0.9,0.4,1.2c0.5,0.6,1,0.7,1.5,0.7c0.5,0,1-0.2,1.5-0.5c0.5-0.4,1-0.9,1.1-1.5c0.2-0.6,0.4-0.9,0.6-0.9
		c0.1,0,0.2,0.1,0.2,0.3c0,0.2-0.1,0.4-0.1,0.7c0,1.3,1.1,1.8,1.8,1.8c0.2,0,0.7-0.1,0.7-0.4c0-0.3-0.2-0.7-0.4-1c0,0,0-0.1,0-0.1
		c0-0.1,0.2-0.5,0.5-1c0.2-0.4,0.4-0.7,0.5-0.8c0-0.1,0.1-0.2,0.2-0.2c0.2,0,0.5,0.8,0.5,1.6c0,0.3,0,0.7-0.1,1.1
		c-0.3,1.5-0.9,2.4-1.7,2.8c-0.3,0.2-0.6,0.2-0.9,0.2c-0.9,0-1.8-0.6-2.1-1.6c-0.1,0.2-1,1.9-2.8,1.9c-0.5,0-1-0.1-1.3-0.4
		c-0.4-0.2-0.6-0.7-0.9-1.4c-0.2-0.5-0.4-1.1-1.2-1.1c-0.6,0-1.8,0.5-3,1.8C11.5,21.1,12,21.5,12.5,21.9z"/>
	<path class="st1" d="M28.5,26.1c-0.1,0-0.2-0.2-0.2-0.7c0-3-1.1-11.3-1.1-12.7c0-0.7,0.5-1.7,0.9-2.5c0.1-0.2,0.3-0.5,0.5-0.5
		c0.1,0,0.2,0.2,0.2,0.8c0.1,2.2,0.7,7.3,0.7,11c0,1.5-0.1,2.7-0.4,3.5C28.8,25.8,28.7,26.1,28.5,26.1z"/>
	<path class="st0" d="M44.6,33.5c0.2-0.2,0.2-0.2,0.3-0.1c0.5,0.5,1,1.1,1.5,1.4c0.2,0.1,0.2,0.2,0,0.3c-0.5,0.5-0.9,1-1.3,1.5
		c-0.1,0.1-0.2,0.1-0.3,0c-0.4-0.3-0.9-0.7-1.4-1.2c-0.3,0.3-0.9,1-1.1,1.2c-0.1,0.1-0.2,0.2-0.4,0c-0.5-0.3-1.1-0.9-1.5-1.4
		c-0.1-0.1-0.1-0.2,0-0.3c0.4-0.5,0.9-1,1.4-1.5c0.1-0.1,0.2-0.1,0.3,0.1c0.4,0.4,1,1,1.4,1.2C43.8,34.3,44.4,33.7,44.6,33.5z"/>
	<path class="st0" d="M50.2,10.7c0.1,0.1,0.1,0.1,0,0.2c-0.2,0.3-1.1,1.2-1.4,1.7c-0.1,0.1-0.1,0.1-0.2,0c-0.5-0.3-1.5-1-1.7-1.4
		c-0.1-0.1-0.1-0.1,0-0.2c0.3-0.5,0.9-1.2,1.3-1.6c0.2-0.2,0.2-0.2,0.3-0.1C48.8,9.6,49.5,10.2,50.2,10.7z"/>
	<path class="st0" d="M41.2,28.7c0.7,0.2,1.4,0.3,2.1,0.3c0.8,0,1.4-0.1,2.2-0.3c2.4-0.6,5.1-1.9,5.5-2.5c-0.7-0.6-2.7-1.4-4.4-1.5
		c-0.3,0-0.5-0.1-0.5-0.4c0-0.3,0.3-0.9,0.5-1.2c0.1-0.1,0.1-0.1,0.3-0.2c3.2-0.6,3.4-1.8,3.4-1.9c0-0.7-0.1-0.9-0.3-1.5
		c-0.4,0.5-1,1-1.8,1c-0.9,0-1.8-0.6-1.8-1.7c0-1.6,1.5-4.4,2.2-4.4c0.8,0,1.6,0.7,2.1,1.9c0.4,0.9,0.7,2.2,0.7,3
		c0,1.5-0.7,3-1.5,4.2c0.6,0.2,1.1,0.4,1.4,0.6c0.9,0.5,0.9,1.1,0.9,1.5c0,0.9-0.7,1.9-1.7,2.8c-2,1.7-5.4,2.9-7.6,2.9
		c-0.6,0-1.4-0.1-2.1-0.3c-1.7-0.5-3.2-1.7-3.2-4.5c0-1.6,0.7-3.8,1.5-5c0.2-0.4,0.5-0.6,0.7-0.6c0.2,0,0.1,0.4-0.1,0.8
		c-0.6,1.3-1,2.5-1,3.4C38.4,27.1,39.6,28.3,41.2,28.7z M48.1,16.6c-0.2,0-0.5,0.2-0.7,0.7c0,0.1-0.1,0.2-0.1,0.3
		c0,0.4,0.5,0.6,1,0.7c0.5,0,1-0.2,1-0.5C49.1,16.9,48.4,16.6,48.1,16.6z"/>
	<path class="st0" d="M69.2,29.2c0.1-0.1,0.1,0,0.1,0.1c0,0.6-0.2,1.1-0.5,1.3l-4.1,2.3c-0.1,0-0.1,0-0.1-0.1c0-0.3,0.1-0.8,0.2-1
		c0.1-0.2,0.3-0.3,0.7-0.5L69.2,29.2z"/>
	<path class="st0" d="M60.6,26.8c-0.9-0.8-1.4-2.1-1.4-3.4c0-1.5,0.9-3.2,1.4-3.9c0.2-0.3,0.4-0.4,0.5-0.4c0.1,0,0.1,0.1,0.1,0.2
		c0,0.1-0.1,0.3-0.2,0.5c-0.4,0.9-0.9,1.8-0.9,2.9c0,0.8,0.6,1.6,1.4,2.1c0.8,0.5,1.7,0.8,2.7,0.8c2.4,0,5.7-1,6.4-2.7
		c0-0.2,0-0.3,0-0.4c0-1.1-0.3-2.3-0.9-3.1c-0.2-0.4-0.4-0.7-0.5-0.8c0,0,0-0.1,0-0.2c0-0.2,0.1-0.5,0.2-0.8
		c0.2-0.4,0.3-0.8,0.4-1.1c0.1-0.1,0.1-0.2,0.2-0.2c0.1,0,0.1,0,0.2,0.3c0.7,1.5,1.3,2.9,1.3,4.7c0,1.4-0.2,2.3-0.3,2.7
		c-0.4,0.9-0.6,1.3-1.1,1.8c-0.5,0.5-1.4,1.2-2.5,1.6c-1.1,0.5-2.4,0.7-4.1,0.7C62.5,27.9,61.4,27.6,60.6,26.8z M67.1,13
		c0.1,0.1,0.1,0.1,0,0.2c-0.2,0.3-1.1,1.2-1.4,1.7c-0.1,0.1-0.1,0.1-0.2,0c-0.5-0.3-1.5-1-1.7-1.4c-0.1-0.1-0.1-0.1,0-0.2
		c0.3-0.5,0.9-1.2,1.3-1.6c0.2-0.2,0.2-0.2,0.3-0.1C65.7,11.9,66.4,12.6,67.1,13z"/>
	<path class="st0" d="M81.6,15.2c0.1,0.1,0.1,0.1,0,0.2c-0.2,0.3-1.1,1.2-1.4,1.7c-0.1,0.1-0.1,0.1-0.2,0c-0.5-0.3-1.5-1-1.7-1.4
		c-0.1-0.1-0.1-0.1,0-0.2c0.3-0.5,0.9-1.2,1.3-1.6c0.2-0.2,0.2-0.2,0.3-0.1C80.1,14.1,80.9,14.7,81.6,15.2z"/>
	<path class="st0" d="M74.5,18.8c-0.1-2-0.2-5.3-0.5-6.9c0,0,0-0.1,0-0.1c0-0.3,0.4-0.8,0.7-1.4c0.2-0.3,0.3-0.6,0.4-0.6
		c0.1,0,0.2,0.2,0.3,0.7c0.4,3.5,0.2,8.4,0.7,11.3c0.2,1,0.4,1.5,0.9,1.8c0.5,0.2,1.2,0.3,1.9,0.3c0.6,0,1.7,0,2.3-0.6
		c-0.1-0.9-0.7-2-1.1-2.4c0,0,0-0.1,0-0.1c0-0.2,0.5-1.4,0.7-1.8c0-0.1,0.1-0.1,0.1-0.1c0.1,0,0.3,0.2,0.4,0.5
		c0.5,0.8,0.7,1.9,0.7,3.1c0,0.9-0.1,2-0.8,2.7c-0.8,0.8-1.8,1.2-3.1,1.2c-0.8,0-1.7-0.2-2.2-0.8C74.9,24.4,74.6,23.3,74.5,18.8z"/>
	<path class="st0" d="M80.9,32.1c-0.3-0.2-0.4-0.3-0.4-0.4c0-0.1,0.2-0.2,0.4-0.2c0.3,0,1.1,0.2,1.8,0.2c0.6,0,1.2-0.2,2.1-0.6
		c2.4-1.2,3.9-3,3.9-4.2c0-0.2,0-0.3-0.1-0.7h-0.7c-0.5,0-1.5-0.1-2.2-0.5c-0.7-0.4-1-0.9-1-1.5c0-0.6,0.3-1.4,0.6-2.2
		c0.6-1.3,1.2-2.2,1.9-2.2c0.7,0,1.3,0.5,1.8,1.1c0.5,0.7,0.7,1.8,0.7,2.8h1c0.6,0,0.9,0.3,0.9,1c0,0.8-0.3,1.2-0.9,1.2l-1.1,0.1
		c-0.2,3.5-1.3,5.8-4.1,6.9c-0.2,0.1-0.4,0.1-0.6,0.1C83.9,33.1,82.3,32.7,80.9,32.1z M87.1,22.4c-0.1-0.1-0.3-0.2-0.6-0.2
		c-0.5,0-0.8,0.5-0.8,0.8c0,0.2,0.2,0.5,0.8,0.7c0.4,0.2,0.9,0.2,1.1,0.2c0.2,0,0.2,0,0.2-0.1C88,23.5,87.6,22.8,87.1,22.4z"/>
	<path class="st0" d="M102.5,7.9c0.1,0,0.1,0.1,0.1,0.1c0,0.4-0.5,1.4-0.7,1.7c0,0.1-0.1,0.1-0.1,0.1c-0.8,0.3-4.9,2-8.1,3.9
		c-0.6,0.4-1.2,0.7-1.6,1.3c0.7,0.6,1.6,1.3,2.3,1.9c2.2,1.7,3.7,3,5.5,4.8c1.6,1.6,2.5,2.2,3,2.2h0.3c0.6,0,0.9,0.4,0.9,1.1
		c0,0.8-0.3,1.2-0.9,1.2h-0.5c-0.6,0-1.3-0.3-2.2-1c-0.5-0.4-1.3-1.1-2.2-2.1c-1-1-1.7-1.7-2.2-2c0.1,0.4,0.1,0.8,0.1,1.2
		c0,0.7-0.1,1.3-0.3,1.8c-0.3,0.7-0.9,1.2-1.8,1.6c-1.2,0.4-2.4,0.6-3.5,0.6h-0.3c-0.6,0-0.9-0.4-0.9-1.2c0-0.7,0.3-1.1,1-1.1
		c0.9,0,2.1-0.1,3.5-0.4c0.9-0.2,1.4-0.6,1.5-1.1c-0.1-1.1-1.3-2.6-3.6-4.6c-0.5-0.5-0.7-0.9-0.7-1.4c0-1.8,0.3-2.4,0.5-2.7
		c0.9-0.9,1.6-1.4,2.6-2c3.3-2,7.8-3.6,8.2-3.8C102.4,7.9,102.5,7.9,102.5,7.9z"/>
	<path class="st0" d="M107.6,7.7c0.1-0.1,0.1,0,0.1,0.1c0,0.6-0.2,1.1-0.5,1.3l-4.1,2.3c-0.1,0-0.1,0-0.1-0.1c0-0.3,0.1-0.8,0.2-1
		c0.1-0.2,0.3-0.3,0.7-0.5L107.6,7.7z"/>
	<path class="st0" d="M106.8,24.7c-0.4,0.6-1.2,1.1-2.6,1.3c-0.4,0.1-0.9,0.1-1.4,0.1c-0.6,0-1-0.6-1-1.1c0-0.6,0.3-1.1,1-1.1h0.5
		c1,0,2.6,0,3.2-0.6c-0.1-0.9-0.8-2-1.1-2.4c0,0,0,0,0-0.1c0-0.4,0.7-1.8,0.7-1.9c0-0.1,0.1-0.1,0.1-0.1c0.3,0,1.1,1.6,1.1,3.5
		C107.5,23.1,107.4,24,106.8,24.7z M106.8,13.3c0.2-0.2,0.2-0.2,0.3-0.1c0.5,0.5,1,1.1,1.5,1.4c0.2,0.1,0.2,0.2,0,0.3
		c-0.5,0.5-0.9,1-1.3,1.5c-0.1,0.1-0.2,0.1-0.3,0c-0.4-0.3-0.9-0.7-1.4-1.2c-0.3,0.3-0.9,1-1.1,1.2c-0.1,0.1-0.2,0.2-0.4,0
		c-0.5-0.3-1.1-0.9-1.5-1.4c-0.1-0.1-0.1-0.2,0-0.3c0.4-0.5,0.9-1,1.4-1.5c0.1-0.1,0.2-0.1,0.3,0.1c0.4,0.4,1,1,1.4,1.2
		C106,14.2,106.5,13.5,106.8,13.3z"/>
	<path class="st0" d="M124.8,23.8h0.3c0.7,0,1,0.4,1,1.1c0,0.8-0.4,1.2-1,1.2h-0.3c-0.8,0-1.4-0.3-1.8-0.7c-0.5-0.4-0.8-1-1.1-1.9
		c-0.3,1.6-2.2,2.6-4.6,2.6c-0.7,0-1.5-0.1-2.1-0.5c-0.4-0.3-0.7-0.6-0.7-1.1c0-0.5,0.1-1.3,0.4-1.9c0.1-0.2,0.2-0.3,0.3-0.3
		c0.1,0,0.2,0.1,0.3,0.3c0.2,0.7,1.2,1,2.3,1c2.1,0,3.1-0.5,3.6-1.3c0-0.2,0.1-0.4,0.1-0.7c0-1.3-0.4-2.9-0.7-4.4
		c0-0.2-0.1-0.3-0.1-0.5c0-0.1,0.1-0.4,0.5-1.4c0.2-0.4,0.3-0.6,0.4-0.6c0.1,0,0.2,0.2,0.3,0.6c0.8,3.3,0.8,5.6,1.2,7
		c0.1,0.4,0.2,0.6,0.5,0.9C124,23.6,124.4,23.8,124.8,23.8z"/>
	<path class="st0" d="M130.6,20.9c0,1.2-0.4,2.9-0.9,3.7c-0.2,0.3-0.9,0.7-1.4,0.8c-1.4,0.4-2.5,0.6-3.3,0.6h-0.2
		c-0.6,0-1-0.4-1-1.2c0-0.7,0.3-1.1,1-1.1h0.2c1.3,0,2.8-0.2,3.7-0.5c0.8-0.3,0.9-0.3,0.9-1.1c0-0.5-0.1-0.8-0.3-1.3
		c-0.2,0.5-0.9,1-1.8,1c-1.1,0-1.8-0.7-1.8-2c0-1.8,1.4-4.1,2-4.1C129.5,15.9,130.6,19.3,130.6,20.9z M129.2,10.4
		c0.2-0.2,0.2-0.2,0.3-0.1c0.5,0.5,1,1.1,1.5,1.4c0.2,0.1,0.2,0.2,0,0.3c-0.5,0.5-0.9,1-1.3,1.5c-0.1,0.1-0.2,0.1-0.3,0
		c-0.4-0.3-0.9-0.7-1.4-1.2c-0.3,0.3-0.9,1-1.1,1.2c-0.1,0.1-0.2,0.2-0.4,0c-0.5-0.3-1.1-0.9-1.5-1.4c-0.1-0.1-0.1-0.2,0-0.3
		c0.4-0.5,0.9-1,1.4-1.5c0.1-0.1,0.2-0.1,0.3,0.1c0.4,0.4,1,1,1.4,1.2C128.4,11.2,128.9,10.6,129.2,10.4z M128.1,18.4
		c-0.2-0.2-0.5-0.3-0.7-0.3c-0.2,0-0.4,0.1-0.5,0.4c-0.1,0.2-0.2,0.4-0.2,0.5c0,0.5,0.5,0.6,1,0.6c0.5,0,0.9-0.2,0.9-0.5
		C128.6,19.1,128.4,18.6,128.1,18.4z"/>
	<path class="st0" d="M138,13.7c0.1-0.1,0.1,0,0.1,0.1c0,0.6-0.2,1.1-0.5,1.3l-4.1,2.3c-0.1,0-0.1,0-0.1-0.1c0-0.3,0.1-0.8,0.2-1
		c0.1-0.2,0.3-0.3,0.7-0.5L138,13.7z"/>
	<path class="st0" d="M138.7,22c0.3,0.9,0.5,1.8,0.5,3.1c0,4-1.1,6.5-4.2,7.7c-0.2,0.1-0.4,0.1-0.6,0.1c-1,0-2.6-0.5-4-1.1
		c-0.3-0.2-0.4-0.3-0.4-0.4c0-0.1,0.1-0.2,0.4-0.2c0.2,0,1.1,0.2,1.8,0.2c0.9,0,1.9-0.4,3.3-1.3c1.5-1,2.8-2.3,2.8-3.8
		c0-0.5-0.1-1-0.4-1.5c-0.3,0.7-0.8,1.1-1.5,1.1c-1.3,0-2.1-0.7-2.1-2.1c0-0.5,0.3-1.3,0.6-2.1c0.5-1,1.2-1.9,1.8-1.9
		C137.4,19.8,138.2,20.7,138.7,22z M136.2,22c-0.3,0-0.5,0.2-0.7,0.5c-0.1,0.1-0.2,0.4-0.2,0.5c0,0.4,0.6,0.6,1.1,0.6
		c0.4,0,0.7-0.2,0.8-0.4C137.2,22.5,136.5,22,136.2,22z"/>
	<path class="st0" d="M150.7,24.9c0.2,0.3,0.3,0.6,0.3,1.1c0,0.5-0.2,0.9-0.5,1.1c-0.3,0.2-0.6,0.3-1,0.3c-0.6,0-1.2-0.4-1.5-1.1
		c-0.3-0.7-0.4-1.3-0.4-2c0-0.8,0.2-1.6,0.5-2.3c0.3-0.7,0.6-1.2,1-1.7c0.4-0.4,0.6-0.7,0.8-0.7c0.3,0,0.1,0.4-0.2,0.8
		c-0.8,1.1-1.1,2.1-1.1,3.2c0,0.6,0.1,0.7,0.2,1c0.3-0.1,0.6-0.2,0.8-0.2C150,24.4,150.4,24.6,150.7,24.9z"/>
	<path class="st1" d="M162.1,33.5c0.1-0.1,0.1,0,0.1,0.1c0,0.6-0.2,1.1-0.5,1.3l-4.1,2.3c-0.1,0-0.1,0-0.1-0.1c0-0.3,0.1-0.8,0.2-1
		c0.1-0.2,0.3-0.3,0.7-0.5L162.1,33.5z"/>
	<path class="st1" d="M161.2,17.4c0.1,0.1,0.1,0.1,0,0.2c-0.2,0.3-1.1,1.2-1.4,1.7c-0.1,0.1-0.1,0.1-0.2,0c-0.5-0.3-1.5-1-1.7-1.4
		c-0.1-0.1-0.1-0.1,0-0.2c0.3-0.5,0.9-1.2,1.3-1.6c0.2-0.2,0.2-0.2,0.3-0.1C159.8,16.3,160.5,16.9,161.2,17.4z"/>
	<path class="st1" d="M169.1,30.3c0.2-0.2,0.2-0.2,0.3-0.1c0.5,0.5,1,1.1,1.5,1.4c0.2,0.1,0.2,0.2,0,0.3c-0.5,0.5-0.9,1-1.3,1.5
		c-0.1,0.1-0.2,0.1-0.3,0c-0.4-0.3-0.9-0.7-1.4-1.2c-0.3,0.3-0.9,1-1.1,1.2c-0.1,0.1-0.2,0.2-0.4,0c-0.5-0.3-1.1-0.9-1.5-1.4
		c-0.1-0.1-0.1-0.2,0-0.3c0.4-0.5,0.9-1,1.4-1.5c0.1-0.1,0.2-0.1,0.3,0.1c0.4,0.4,1,1,1.4,1.2C168.3,31.2,168.9,30.5,169.1,30.3z"/>
	<path class="st1" d="M173.1,24.9c0,0.8-0.3,1.2-0.9,1.2h-0.3c-0.4,0-0.8-0.1-1.2-0.4c-0.4-0.3-0.7-0.6-0.9-1
		c-0.2-0.4-0.4-1-0.5-1.8c-0.1-0.8-0.2-1.3-0.3-1.3c-0.3,0.8-0.7,1.4-1.1,1.7c-0.6,0.5-1.2,0.6-1.6,0.6c-0.2,0-0.3,0-0.4,0
		c0,0.4,0,0.7,0,1c0,0.4,0,0.9-0.1,1.5c-0.1,0.9-0.2,1.6-0.3,2c-0.2,0.5-0.4,0.8-0.6,1.2c-1.6,2.2-4,3.1-6.8,3.1
		c-1.3,0-2.1-0.3-2.9-0.8c-1.1-0.8-1.6-2.2-1.6-3.7c0-1.1,0.5-2.5,1.3-3.7c0.2-0.4,0.5-0.6,0.7-0.6c0.1,0,0.1,0.1,0.1,0.1
		c0,0.2-0.1,0.4-0.2,0.7c-0.4,0.8-0.8,1.7-0.8,2.7c0,1.5,1.7,2.9,4.1,2.9c2.4,0,5.7-1,6.4-2.7c0-0.1,0-0.2,0-0.4c0-1.3-0.4-3-1-3.8
		c-0.2-0.3-0.5-0.6-0.5-0.6c0,0-0.1-0.1-0.1-0.2c0-0.5,0.5-2,0.7-2.2c0.1-0.1,0.1-0.1,0.2,0c0.6,0.8,1.2,1.2,1.9,1.3
		c0.2,0,0.5,0,0.9-0.1c0.4-0.1,0.8-0.4,1-0.7c0.5-0.6,0.7-1,0.9-1.5c0.1-0.1,0.2-0.3,0.3-0.3c0.1,0,0.2,0.2,0.3,0.5
		c0.1,0.3,0.2,0.8,0.3,1.6c0.1,0.8,0.4,1.4,0.7,1.9c0.3,0.5,0.7,0.8,1.2,0.8h0.3C172.8,23.8,173.1,24.2,173.1,24.9z"/>
	<path class="st1" d="M176.7,22.5c0,0.6,0.6,1.2,1.4,1.4c0.2,0,0.3,0,0.5,0h0.1c0.9,0,0.9,0.7,0.9,1c0,0.3,0,1.3-0.8,1.3h-0.2
		c-0.2,0-0.3,0-0.6,0c-1.5-0.2-2.1-1.5-2.2-1.7c-0.2,0.6-1.5,1.7-3.7,1.7H172c-0.6,0-1-0.6-1-1.1c0-0.6,0.3-1.1,1-1.1h0.7
		c1,0,2.4-0.2,3.3-1.6c0.3-0.5,0.4-0.5,0.5-0.5C176.6,21.7,176.7,21.9,176.7,22.5z M176.5,15.6c0.2-0.2,0.2-0.2,0.3-0.1
		c0.5,0.5,1,1.1,1.5,1.4c0.2,0.1,0.2,0.2,0,0.3c-0.5,0.5-0.9,1-1.3,1.5c-0.1,0.1-0.2,0.1-0.3,0c-0.4-0.3-0.9-0.7-1.4-1.2
		c-0.3,0.3-0.9,1-1.1,1.2c-0.1,0.1-0.2,0.2-0.4,0c-0.5-0.3-1.1-0.9-1.5-1.4c-0.1-0.1-0.1-0.2,0-0.3c0.4-0.5,0.9-1,1.4-1.5
		c0.1-0.1,0.2-0.1,0.3,0.1c0.4,0.4,1,1,1.4,1.2C175.7,16.5,176.2,15.9,176.5,15.6z"/>
	<path class="st1" d="M184.4,20.9c0,1.2-0.4,2.9-0.9,3.7c-0.2,0.3-0.9,0.7-1.4,0.8c-1.4,0.4-2.5,0.6-3.3,0.6h-0.2
		c-0.6,0-1-0.4-1-1.2c0-0.7,0.3-1.1,1-1.1h0.2c1.3,0,2.8-0.2,3.7-0.5c0.8-0.3,0.9-0.3,0.9-1.1c0-0.5-0.1-0.8-0.3-1.3
		c-0.2,0.5-0.9,1-1.8,1c-1.1,0-1.8-0.7-1.8-2c0-1.8,1.4-4.1,2-4.1C183.3,15.9,184.4,19.3,184.4,20.9z M182.9,11
		c0.1,0.1,0.1,0.1,0,0.2c-0.2,0.3-1.1,1.2-1.4,1.7c-0.1,0.1-0.1,0.1-0.2,0c-0.5-0.3-1.5-1-1.7-1.4c-0.1-0.1-0.1-0.1,0-0.2
		c0.3-0.5,0.9-1.2,1.3-1.6c0.2-0.2,0.2-0.2,0.3-0.1C181.5,9.9,182.2,10.5,182.9,11z M181.8,18.4c-0.2-0.2-0.5-0.3-0.7-0.3
		c-0.2,0-0.4,0.1-0.5,0.4c-0.1,0.2-0.2,0.4-0.2,0.5c0,0.5,0.5,0.6,1,0.6c0.5,0,0.9-0.2,0.9-0.5C182.3,19.1,182.2,18.6,181.8,18.4z"
		/>
	<path class="st1" d="M187.7,20.3c-0.4,0-0.7-0.2-0.8-0.4c-0.2-0.3-0.3-0.8-0.3-1.1c0-0.4,0-0.7,0.2-1c0.2-0.4,0.4-0.7,0.7-0.7
		c0.1,0,0.1,0.1,0.1,0.3c0,0.2-0.1,0.4-0.1,0.6c0,0.5,0.3,0.7,0.7,0.7s0.7-0.4,0.9-0.8c0.3-0.7,0.6-1,0.9-1c0.1,0,0.2,0.1,0.2,0.3
		c0,0.1,0,0.2,0,0.4c0,0.3,0.1,0.5,0.5,0.5c0.3,0,0.6-0.2,0.9-0.7c0.3-0.5,0.4-0.7,0.5-0.7c0.2,0,0.2,0.3,0.2,0.5
		c0,0.6-0.2,1.1-0.5,1.6c-0.3,0.4-0.7,0.9-1.4,0.9c-0.4,0-0.6-0.1-0.8-0.3c-0.1-0.1-0.2,0-0.3,0.2C188.7,20,188.2,20.3,187.7,20.3z"
		/>
	<path class="st1" d="M190.6,33.8c0.1-0.1,0.1,0,0.1,0.1c0,0.6-0.2,1.1-0.5,1.3l-4.1,2.3c-0.1,0-0.1,0-0.1-0.1c0-0.3,0.1-0.8,0.2-1
		c0.1-0.2,0.3-0.3,0.7-0.5L190.6,33.8z"/>
	<path class="st1" d="M192.9,23.8c0.7,0,1.1,0.4,1.1,1.1c0,0.8-0.4,1.2-1.1,1.2h-0.2c-0.6,0-1,0-1.3-0.1c0,0.1,0,0.2,0,0.3
		c0,0.7-0.1,1.5-0.4,2.1c-0.5,1.2-1.3,3.3-3.6,4.3c-0.4,0.2-0.8,0.3-1.2,0.3c-0.9,0-2.4-0.5-3.5-1c-0.3-0.2-0.4-0.3-0.4-0.4
		c0-0.1,0.1-0.2,0.4-0.2c0.3,0,0.8,0.1,1.3,0.1c3.1,0,6.2-2.7,6.6-5c0-0.5-1.1-1.6-1.3-1.9c0-0.1-0.1-0.2-0.1-0.3
		c0-0.5,0.4-1.5,0.6-1.8c0.1-0.2,0.2-0.2,0.3-0.2c0.2,0,0.3,0.2,0.6,0.7c0.4,0.6,0.9,0.9,1.8,0.9H192.9z"/>
	<path class="st1" d="M196.6,19.1c0,0.9-0.1,1.7-0.3,2.4c2.1-1.7,3.9-2.7,4.9-2.7c0.5,0,1.3,0.1,1.9,0.4c0.8,0.4,1.1,0.8,1.1,1.5
		c0,1.2-0.9,3-1.8,3.5c0.8-0.2,1.7-0.4,2.5-0.4h0.3c0.7,0,1,0.4,1,1.1c0,0.8-0.3,1.2-1,1.2h-0.4c-4.4,0.2-6.5,0.2-7.4,0.2
		c-1.2,0-2.7,0-4.6-0.2h-0.3c-0.7,0-1-0.4-1-1.1c0-0.8,0.3-1.1,1-1.1h1.1c0.4-0.4,1.1-1.1,1.9-1.8c0-0.4,0-0.9,0-1.2
		c0-2.9-0.5-5.5-0.7-7.1c-0.1-0.4-0.3-1.3-0.4-1.7c0-0.1,0-0.2,0-0.3c0-0.2,0.2-0.6,0.4-1c0.2-0.5,0.6-1.1,0.7-1.1
		c0.1,0,0.1,0.1,0.2,0.2c0.3,0.9,0.6,1.4,0.8,1.8c0,0.1,0.1,0.2,0.1,0.2s0,0.1,0,0.2c-0.1,0.2-0.4,0.8-0.6,1.1
		C196.2,15.4,196.6,17.4,196.6,19.1z M200.2,20.8c-1.9,0-3.7,1.4-5.4,3.1c3.4-0.2,6.7-0.8,8.1-1.8C202.3,21.3,201.2,20.8,200.2,20.8
		z"/>
	<path class="st1" d="M210.4,10.1c0.1-0.1,0.1,0,0.1,0.1c0,0.6-0.2,1.1-0.5,1.3l-4.1,2.3c-0.1,0-0.1,0-0.1-0.1c0-0.3,0.1-0.8,0.2-1
		c0.1-0.2,0.3-0.3,0.7-0.5L210.4,10.1z"/>
	<path class="st1" d="M209.7,22.5c0,0.6,0.6,1.2,1.4,1.4c0.2,0,0.3,0,0.5,0h0.1c0.9,0,0.9,0.7,0.9,1c0,0.3,0,1.3-0.8,1.3h-0.2
		c-0.2,0-0.3,0-0.6,0c-1.5-0.2-2.1-1.5-2.2-1.7c-0.2,0.6-1.5,1.7-3.7,1.7H205c-0.6,0-1-0.6-1-1.1c0-0.6,0.3-1.1,1-1.1h0.7
		c1,0,2.4-0.2,3.3-1.6c0.3-0.5,0.4-0.5,0.5-0.5C209.6,21.7,209.7,21.9,209.7,22.5z M209.5,15.6c0.2-0.2,0.2-0.2,0.3-0.1
		c0.5,0.5,1,1.1,1.5,1.4c0.2,0.1,0.2,0.2,0,0.3c-0.5,0.5-0.9,1-1.3,1.5c-0.1,0.1-0.2,0.1-0.3,0c-0.4-0.3-0.9-0.7-1.4-1.2
		c-0.3,0.3-0.9,1-1.1,1.2c-0.1,0.1-0.2,0.2-0.4,0c-0.5-0.3-1.1-0.9-1.5-1.4c-0.1-0.1-0.1-0.2,0-0.3c0.4-0.5,0.9-1,1.4-1.5
		c0.1-0.1,0.2-0.1,0.3,0.1c0.4,0.4,1,1,1.4,1.2C208.7,16.5,209.2,15.9,209.5,15.6z"/>
	<path class="st1" d="M218.6,11.9c0,0.5-0.1,1-0.3,1.5c0.2,0.1,0.4,0.3,0.4,0.4c0,0.4-0.2,0.7-0.3,1c-0.1,0.1-0.1,0.1-0.1,0.1
		l-0.5-0.3c-0.5,0.8-1.3,1.8-2.5,2.3c-0.4,0.2-0.9,0.4-1.5,0.4c-0.3,0-0.4-0.1-0.4-0.1c0-0.1,0.2-0.2,0.6-0.4
		c0.9-0.5,2.5-1.8,3.1-2.5c-0.5-0.3-1.1-0.7-1.1-1.4c0-0.4,0.2-0.9,0.6-1.3c0.4-0.5,0.8-0.8,1.2-0.8
		C218.4,10.6,218.6,11.3,218.6,11.9z M216.8,12.3C216.8,12.3,216.8,12.4,216.8,12.3c0,0.2,0.4,0.5,0.8,0.7c0.1-0.2,0.1-0.4,0.1-0.7
		c0-0.3-0.1-0.4-0.3-0.4C217.2,11.9,217,12,216.8,12.3z"/>
	<path class="st1" d="M211.8,26.1h-0.1c-0.7,0-1-0.4-1-1.2c0-0.7,0.4-1.1,1-1.1h0.1c1.2,0,2.2-0.5,2.9-1.4l1.3-2
		c0.7-1.1,1.7-1.5,2.2-1.5c1.7,0,2.4,2.9,2.4,4.1c0,1-1.1,2.4-1.6,2.4c-0.8,0-2.8-1-3.8-1.9C214.1,25.3,213,26.1,211.8,26.1z
		 M217.1,20.9c-0.2,0-0.3,0.1-0.5,0.3c-0.1,0.1-0.2,0.3-0.3,0.5c0.5,0.3,1.9,1,2.5,1.4C218.7,22.3,217.8,20.9,217.1,20.9z"/>
	<path class="st0" d="M236,22c0.3,0.9,0.5,1.8,0.5,3.1c0,4-1.1,6.5-4.2,7.7c-0.2,0.1-0.4,0.1-0.6,0.1c-1,0-2.6-0.5-4-1.1
		c-0.3-0.2-0.4-0.3-0.4-0.4c0-0.1,0.1-0.2,0.4-0.2c0.2,0,1.1,0.2,1.8,0.2c0.9,0,1.9-0.4,3.3-1.3c1.5-1,2.8-2.3,2.8-3.8
		c0-0.5-0.1-1-0.4-1.5c-0.3,0.7-0.8,1.1-1.5,1.1c-1.3,0-2.1-0.7-2.1-2.1c0-0.5,0.3-1.3,0.6-2.1c0.5-1,1.2-1.9,1.8-1.9
		C234.7,19.8,235.5,20.7,236,22z M233.5,22c-0.3,0-0.5,0.2-0.7,0.5c-0.1,0.1-0.2,0.4-0.2,0.5c0,0.4,0.6,0.6,1.1,0.6
		c0.4,0,0.7-0.2,0.8-0.4C234.5,22.5,233.8,22,233.5,22z"/>
	<path class="st0" d="M242.1,0c0.1-0.1,0.1,0,0.1,0.1c0,0.6-0.2,1.1-0.5,1.3l-4.1,2.3c-0.1,0-0.1,0-0.1-0.1c0-0.3,0.1-0.8,0.2-1
		c0.1-0.2,0.3-0.3,0.7-0.5L242.1,0z"/>
	<path class="st0" d="M241.8,7.7c-0.8,0.4-2.6,1.5-4,2.5c-0.1,0-0.1,0-0.1,0c0,0-0.1,0-0.1-0.1c0-0.1,0.1-0.3,0.2-0.7
		c0.1-0.2,0.5-0.6,0.8-0.9c0,0,0.1-0.1,0.1-0.1c0,0,0-0.1-0.1-0.1c-0.6-0.2-0.9-0.4-0.9-0.9c0-0.1,0-0.1,0-0.2c0-0.9,1-2.2,1.8-2.9
		c0.3-0.3,0.7-0.4,1-0.4c0.5,0,0.8,0.3,0.8,0.7c0,0.3-0.1,0.6-0.2,1c-0.1,0.2-0.2,0.4-0.3,0.4c-0.1,0-0.2-0.1-0.3-0.2
		c-0.1-0.1-0.3-0.3-0.6-0.3c-0.8,0-1.3,0.5-1.3,0.7c0,0.3,1.3,0.8,1.8,0.8c0.1,0,0.1,0,0.1,0c0.2-0.1,1.1-0.4,1.5-0.6
		c0.2-0.1,0.3-0.2,0.3-0.2c0,0,0.1,0,0.1,0.1c0,0.1-0.1,0.2-0.1,0.4C242.2,7.5,242,7.6,241.8,7.7z M240.4,26.1
		c-0.1,0-0.2-0.2-0.2-0.7c0-3-1.1-11.3-1.1-12.7c0-0.7,0.5-1.7,0.9-2.5c0.1-0.2,0.3-0.5,0.5-0.5c0.1,0,0.2,0.2,0.2,0.8
		c0.1,2.2,0.7,7.3,0.7,11c0,1.5-0.1,2.7-0.4,3.5C240.7,25.8,240.5,26.1,240.4,26.1z"/>
	<path class="st0" d="M253.8,24.9c0.2,0.3,0.3,0.6,0.3,1.1c0,0.5-0.2,0.9-0.5,1.1c-0.3,0.2-0.6,0.3-1,0.3c-0.6,0-1.2-0.4-1.5-1.1
		c-0.3-0.7-0.4-1.3-0.4-2c0-0.8,0.2-1.6,0.5-2.3c0.3-0.7,0.6-1.2,1-1.7c0.4-0.4,0.6-0.7,0.8-0.7c0.3,0,0.1,0.4-0.2,0.8
		c-0.8,1.1-1.1,2.1-1.1,3.2c0,0.6,0.1,0.7,0.2,1c0.3-0.1,0.6-0.2,0.8-0.2C253.1,24.4,253.5,24.6,253.8,24.9z"/>
	<path class="st1" d="M265.2,33.5c0.1-0.1,0.1,0,0.1,0.1c0,0.6-0.2,1.1-0.5,1.3l-4.1,2.3c-0.1,0-0.1,0-0.1-0.1c0-0.3,0.1-0.8,0.2-1
		c0.1-0.2,0.3-0.3,0.7-0.5L265.2,33.5z"/>
	<path class="st1" d="M264.3,17.4c0.1,0.1,0.1,0.1,0,0.2c-0.2,0.3-1.1,1.2-1.4,1.7c-0.1,0.1-0.1,0.1-0.2,0c-0.5-0.3-1.5-1-1.7-1.4
		c-0.1-0.1-0.1-0.1,0-0.2c0.3-0.5,0.9-1.2,1.3-1.6c0.2-0.2,0.2-0.2,0.3-0.1C262.9,16.3,263.6,16.9,264.3,17.4z"/>
	<path class="st1" d="M272.2,30.3c0.2-0.2,0.2-0.2,0.3-0.1c0.5,0.5,1,1.1,1.5,1.4c0.2,0.1,0.2,0.2,0,0.3c-0.5,0.5-0.9,1-1.3,1.5
		c-0.1,0.1-0.2,0.1-0.3,0c-0.4-0.3-0.9-0.7-1.4-1.2c-0.3,0.3-0.9,1-1.1,1.2c-0.1,0.1-0.2,0.2-0.4,0c-0.5-0.3-1.1-0.9-1.5-1.4
		c-0.1-0.1-0.1-0.2,0-0.3c0.4-0.5,0.9-1,1.4-1.5c0.1-0.1,0.2-0.1,0.3,0.1c0.4,0.4,1,1,1.4,1.2C271.4,31.2,272,30.5,272.2,30.3z"/>
	<path class="st1" d="M276.2,24.9c0,0.8-0.3,1.2-0.9,1.2H275c-0.4,0-0.8-0.1-1.2-0.4c-0.4-0.3-0.7-0.6-0.9-1c-0.2-0.4-0.4-1-0.5-1.8
		c-0.1-0.8-0.2-1.3-0.3-1.3c-0.3,0.8-0.7,1.4-1.1,1.7c-0.6,0.5-1.2,0.6-1.6,0.6c-0.2,0-0.3,0-0.4,0c0,0.4,0,0.7,0,1
		c0,0.4,0,0.9-0.1,1.5c-0.1,0.9-0.2,1.6-0.3,2c-0.2,0.5-0.4,0.8-0.6,1.2c-1.6,2.2-4,3.1-6.8,3.1c-1.3,0-2.1-0.3-2.9-0.8
		c-1.1-0.8-1.6-2.2-1.6-3.7c0-1.1,0.5-2.5,1.3-3.7c0.2-0.4,0.5-0.6,0.7-0.6c0.1,0,0.1,0.1,0.1,0.1c0,0.2-0.1,0.4-0.2,0.7
		c-0.4,0.8-0.8,1.7-0.8,2.7c0,1.5,1.7,2.9,4.1,2.9c2.4,0,5.7-1,6.4-2.7c0-0.1,0-0.2,0-0.4c0-1.3-0.4-3-1-3.8
		c-0.2-0.3-0.5-0.6-0.5-0.6c0,0-0.1-0.1-0.1-0.2c0-0.5,0.5-2,0.7-2.2c0.1-0.1,0.1-0.1,0.2,0c0.6,0.8,1.2,1.2,1.9,1.3
		c0.2,0,0.5,0,0.9-0.1c0.4-0.1,0.8-0.4,1-0.7c0.5-0.6,0.7-1,0.9-1.5c0.1-0.1,0.2-0.3,0.3-0.3c0.1,0,0.2,0.2,0.3,0.5
		c0.1,0.3,0.2,0.8,0.3,1.6c0.1,0.8,0.4,1.4,0.7,1.9c0.3,0.5,0.7,0.8,1.2,0.8h0.3C275.9,23.8,276.2,24.2,276.2,24.9z"/>
	<path class="st1" d="M279.8,22.5c0,0.6,0.6,1.2,1.4,1.4c0.2,0,0.3,0,0.5,0h0.1c0.9,0,0.9,0.7,0.9,1c0,0.3,0,1.3-0.8,1.3h-0.2
		c-0.2,0-0.3,0-0.6,0c-1.5-0.2-2.1-1.5-2.2-1.7c-0.2,0.6-1.5,1.7-3.7,1.7h-0.1c-0.6,0-1-0.6-1-1.1c0-0.6,0.3-1.1,1-1.1h0.7
		c1,0,2.4-0.2,3.3-1.6c0.3-0.5,0.4-0.5,0.5-0.5C279.7,21.7,279.8,21.9,279.8,22.5z M279.5,15.6c0.2-0.2,0.2-0.2,0.3-0.1
		c0.5,0.5,1,1.1,1.5,1.4c0.2,0.1,0.2,0.2,0,0.3c-0.5,0.5-0.9,1-1.3,1.5c-0.1,0.1-0.2,0.1-0.3,0c-0.4-0.3-0.9-0.7-1.4-1.2
		c-0.3,0.3-0.9,1-1.1,1.2c-0.1,0.1-0.2,0.2-0.4,0c-0.5-0.3-1.1-0.9-1.5-1.4c-0.1-0.1-0.1-0.2,0-0.3c0.4-0.5,0.9-1,1.4-1.5
		c0.1-0.1,0.2-0.1,0.3,0.1c0.4,0.4,1,1,1.4,1.2C278.8,16.5,279.3,15.9,279.5,15.6z"/>
	<path class="st1" d="M286.6,5c0.1-0.1,0.1,0,0.1,0.1c0,0.6-0.2,1.1-0.5,1.3l-4.1,2.3c-0.1,0-0.1,0-0.1-0.1c0-0.3,0.1-0.8,0.2-1
		c0.1-0.2,0.3-0.3,0.7-0.5L286.6,5z"/>
	<path class="st1" d="M285.6,19.1c0,0.9-0.1,1.7-0.3,2.4c2.1-1.7,3.9-2.7,4.9-2.7c0.5,0,1.3,0.1,1.9,0.4c0.8,0.4,1.1,0.8,1.1,1.5
		c0,1.2-0.9,3-1.8,3.5c0.8-0.2,1.7-0.4,2.5-0.4h0.3c0.7,0,1,0.4,1,1.1c0,0.8-0.3,1.2-1,1.2h-0.4c-4.4,0.2-6.5,0.2-7.4,0.2
		c-1.2,0-2.7,0-4.6-0.2h-0.3c-0.7,0-1-0.4-1-1.1c0-0.8,0.3-1.1,1-1.1h1.1c0.4-0.4,1.1-1.1,1.9-1.8c0-0.4,0-0.9,0-1.2
		c0-2.9-0.5-5.5-0.7-7.1c-0.1-0.4-0.3-1.3-0.4-1.7c0-0.1,0-0.2,0-0.3c0-0.2,0.2-0.6,0.4-1c0.2-0.5,0.6-1.1,0.7-1.1
		c0.1,0,0.1,0.1,0.2,0.2c0.3,0.9,0.6,1.4,0.8,1.8c0,0.1,0.1,0.2,0.1,0.2s0,0.1,0,0.2c-0.1,0.2-0.4,0.8-0.6,1.1
		C285.3,15.4,285.6,17.4,285.6,19.1z M289.2,20.8c-1.9,0-3.7,1.4-5.4,3.1c3.4-0.2,6.7-0.8,8.1-1.8C291.3,21.3,290.2,20.8,289.2,20.8
		z"/>
	<path class="st1" d="M300.2,16.6c-0.4,0-0.7-0.2-0.8-0.4c-0.2-0.3-0.3-0.8-0.3-1.1c0-0.4,0-0.7,0.2-1c0.2-0.4,0.4-0.7,0.7-0.7
		c0.1,0,0.1,0.1,0.1,0.3c0,0.2-0.1,0.4-0.1,0.6c0,0.5,0.3,0.7,0.7,0.7c0.4,0,0.7-0.4,0.9-0.8c0.3-0.7,0.6-1,0.9-1
		c0.1,0,0.2,0.1,0.2,0.3c0,0.1,0,0.2,0,0.4c0,0.3,0.1,0.5,0.5,0.5c0.3,0,0.6-0.2,0.9-0.7c0.3-0.5,0.4-0.7,0.5-0.7
		c0.2,0,0.2,0.3,0.2,0.5c0,0.6-0.2,1.1-0.5,1.6c-0.3,0.4-0.7,0.9-1.4,0.9c-0.4,0-0.6-0.1-0.8-0.3c-0.1-0.1-0.2,0-0.3,0.2
		C301.2,16.3,300.7,16.6,300.2,16.6z"/>
	<path class="st1" d="M304.2,28.1c0.1-0.1,0.1,0,0.1,0.1c0,0.6-0.2,1.1-0.5,1.3l-4.1,2.3c-0.1,0-0.1,0-0.1-0.1c0-0.3,0.1-0.8,0.2-1
		c0.1-0.2,0.3-0.3,0.7-0.5L304.2,28.1z"/>
	<path class="st1" d="M296.4,25.1c-0.6,0.6-1.3,1-2.3,1h-0.3c-0.7,0-1-0.4-1-1.2c0-0.7,0.3-1.1,1-1.1h0.2c0.9,0,1.6-0.2,2.1-0.5
		c0.7-0.4,1.2-1,1.7-1.9c0.1-0.1,0.2-0.2,0.3-0.2c0.2,0,0.2,0.2,0.3,0.7c0.1,0.8,0.5,1.5,1.5,1.5c1.1,0,2.2-1,2.6-2
		c0.2-0.6,0.5-0.9,0.6-0.9c0.1,0,0.2,0.1,0.2,0.3c0,0.2-0.1,0.4-0.1,0.7c0,1.3,1.1,1.8,1.8,1.8c0.2,0,0.7-0.1,0.7-0.4
		c0-0.3-0.2-0.6-0.4-1c0,0,0-0.1,0-0.1c0-0.3,0.7-1.4,1-1.8c0-0.1,0.1-0.2,0.2-0.2c0.1,0,0.1,0.1,0.2,0.2c0.2,0.4,0.3,0.9,0.3,1.6
		c0,1.3-0.8,3.9-2.6,3.9c-1.1,0-1.8-0.6-2.1-1.6c-0.8,1.4-1.8,1.9-2.6,1.9c-1.1,0-1.8-0.6-2-2.2C297.3,24.2,296.9,24.7,296.4,25.1z"
		/>
	<path class="st1" d="M306,32.1c-0.3-0.2-0.4-0.3-0.4-0.4c0-0.1,0.2-0.2,0.4-0.2c0.3,0,1.1,0.2,1.8,0.2c0.6,0,1.2-0.2,2.1-0.6
		c2.4-1.2,3.9-3,3.9-4.2c0-0.2,0-0.3-0.1-0.7h-0.7c-0.5,0-1.5-0.1-2.2-0.5c-0.7-0.4-1-0.9-1-1.5c0-0.6,0.3-1.4,0.6-2.2
		c0.6-1.3,1.2-2.2,1.9-2.2c0.7,0,1.3,0.5,1.8,1.1c0.5,0.7,0.7,1.8,0.7,2.8h1c0.6,0,0.9,0.3,0.9,1c0,0.8-0.3,1.2-0.9,1.2l-1.1,0.1
		c-0.2,3.5-1.3,5.8-4.1,6.9c-0.2,0.1-0.4,0.1-0.6,0.1C309,33.1,307.3,32.7,306,32.1z M312.2,22.4c-0.1-0.1-0.3-0.2-0.6-0.2
		c-0.5,0-0.8,0.5-0.8,0.8c0,0.2,0.2,0.5,0.8,0.7c0.4,0.2,0.9,0.2,1.1,0.2c0.2,0,0.2,0,0.2-0.1C313.1,23.5,312.7,22.8,312.2,22.4z"/>
	<path class="st1" d="M320.9,10.1c0.1-0.1,0.1,0,0.1,0.1c0,0.6-0.2,1.1-0.5,1.3l-4.1,2.3c-0.1,0-0.1,0-0.1-0.1c0-0.3,0.1-0.8,0.2-1
		c0.1-0.2,0.3-0.3,0.7-0.5L320.9,10.1z"/>
	<path class="st1" d="M320.2,22.5c0,0.6,0.6,1.2,1.4,1.4c0.2,0,0.3,0,0.5,0h0.1c0.9,0,0.9,0.7,0.9,1c0,0.3,0,1.3-0.8,1.3H322
		c-0.2,0-0.3,0-0.6,0c-1.5-0.2-2.1-1.5-2.2-1.7c-0.2,0.6-1.5,1.7-3.7,1.7h-0.1c-0.6,0-1-0.6-1-1.1c0-0.6,0.3-1.1,1-1.1h0.7
		c1,0,2.4-0.2,3.3-1.6c0.3-0.5,0.4-0.5,0.5-0.5C320.1,21.7,320.2,21.9,320.2,22.5z M320,15.6c0.2-0.2,0.2-0.2,0.3-0.1
		c0.5,0.5,1,1.1,1.5,1.4c0.2,0.1,0.2,0.2,0,0.3c-0.5,0.5-0.9,1-1.3,1.5c-0.1,0.1-0.2,0.1-0.3,0c-0.4-0.3-0.9-0.7-1.4-1.2
		c-0.3,0.3-0.9,1-1.1,1.2c-0.1,0.1-0.2,0.2-0.4,0c-0.5-0.3-1.1-0.9-1.5-1.4c-0.1-0.1-0.1-0.2,0-0.3c0.4-0.5,0.9-1,1.4-1.5
		c0.1-0.1,0.2-0.1,0.3,0.1c0.4,0.4,1,1,1.4,1.2C319.2,16.5,319.7,15.9,320,15.6z"/>
	<path class="st1" d="M329.2,11.9c0,0.5-0.1,1-0.3,1.5c0.2,0.1,0.4,0.3,0.4,0.4c0,0.4-0.2,0.7-0.3,1c-0.1,0.1-0.1,0.1-0.1,0.1
		l-0.5-0.3c-0.5,0.8-1.3,1.8-2.5,2.3c-0.4,0.2-0.9,0.4-1.5,0.4c-0.3,0-0.4-0.1-0.4-0.1c0-0.1,0.2-0.2,0.6-0.4
		c0.9-0.5,2.5-1.8,3.1-2.5c-0.5-0.3-1.1-0.7-1.1-1.4c0-0.4,0.2-0.9,0.6-1.3c0.4-0.5,0.8-0.8,1.2-0.8
		C328.9,10.6,329.1,11.3,329.2,11.9z M327.3,12.3C327.3,12.3,327.3,12.4,327.3,12.3c0,0.2,0.4,0.5,0.8,0.7c0.1-0.2,0.1-0.4,0.1-0.7
		c0-0.3-0.1-0.4-0.3-0.4C327.7,11.9,327.5,12,327.3,12.3z"/>
	<path class="st1" d="M322.3,26.1h-0.1c-0.7,0-1-0.4-1-1.2c0-0.7,0.4-1.1,1-1.1h0.1c1.2,0,2.2-0.5,2.9-1.4l1.3-2
		c0.7-1.1,1.7-1.5,2.2-1.5c1.7,0,2.4,2.9,2.4,4.1c0,1-1.1,2.4-1.6,2.4c-0.8,0-2.8-1-3.8-1.9C324.6,25.3,323.5,26.1,322.3,26.1z
		 M327.6,20.9c-0.2,0-0.3,0.1-0.5,0.3c-0.1,0.1-0.2,0.3-0.3,0.5c0.5,0.3,1.9,1,2.5,1.4C329.2,22.3,328.3,20.9,327.6,20.9z"/>
	<path class="st0" d="M348.3,29.2c0.1-0.1,0.1,0,0.1,0.1c0,0.6-0.2,1.1-0.5,1.3l-4.1,2.3c-0.1,0-0.1,0-0.1-0.1c0-0.3,0.1-0.8,0.2-1
		c0.1-0.2,0.3-0.3,0.7-0.5L348.3,29.2z"/>
	<path class="st0" d="M339.6,26.8c-0.9-0.8-1.4-2.1-1.4-3.4c0-1.5,0.9-3.2,1.4-3.9c0.2-0.3,0.4-0.4,0.5-0.4c0.1,0,0.1,0.1,0.1,0.2
		c0,0.1-0.1,0.3-0.2,0.5c-0.4,0.9-0.9,1.8-0.9,2.9c0,0.8,0.6,1.6,1.4,2.1c0.8,0.5,1.7,0.8,2.7,0.8c2.4,0,5.7-1,6.4-2.7
		c0-0.2,0-0.3,0-0.4c0-1.1-0.3-2.3-0.9-3.1c-0.2-0.4-0.4-0.7-0.5-0.8c0,0,0-0.1,0-0.2c0-0.2,0.1-0.5,0.2-0.8
		c0.2-0.4,0.3-0.8,0.4-1.1c0.1-0.1,0.1-0.2,0.2-0.2c0.1,0,0.1,0,0.2,0.3c0.7,1.5,1.3,2.9,1.3,4.7c0,1.4-0.2,2.3-0.3,2.7
		c-0.4,0.9-0.6,1.3-1.1,1.8c-0.5,0.5-1.4,1.2-2.5,1.6c-1.1,0.5-2.4,0.7-4.1,0.7C341.5,27.9,340.5,27.6,339.6,26.8z M346.2,13
		c0.1,0.1,0.1,0.1,0,0.2c-0.2,0.3-1.1,1.2-1.4,1.7c-0.1,0.1-0.1,0.1-0.2,0c-0.5-0.3-1.5-1-1.7-1.4c-0.1-0.1-0.1-0.1,0-0.2
		c0.3-0.5,0.9-1.2,1.3-1.6c0.2-0.2,0.2-0.2,0.3-0.1C344.7,11.9,345.5,12.6,346.2,13z"/>
	<path class="st0" d="M360.6,15.2c0.1,0.1,0.1,0.1,0,0.2c-0.2,0.3-1.1,1.2-1.4,1.7c-0.1,0.1-0.1,0.1-0.2,0c-0.5-0.3-1.5-1-1.7-1.4
		c-0.1-0.1-0.1-0.1,0-0.2c0.3-0.5,0.9-1.2,1.3-1.6c0.2-0.2,0.2-0.2,0.3-0.1C359.2,14.1,359.9,14.7,360.6,15.2z"/>
	<path class="st0" d="M353.5,18.8c-0.1-2-0.2-5.3-0.5-6.9c0,0,0-0.1,0-0.1c0-0.3,0.4-0.8,0.7-1.4c0.2-0.3,0.3-0.6,0.4-0.6
		c0.1,0,0.2,0.2,0.3,0.7c0.4,3.5,0.2,8.4,0.7,11.3c0.2,1,0.4,1.5,0.9,1.8c0.5,0.2,1.2,0.3,1.9,0.3c0.6,0,1.7,0,2.3-0.6
		c-0.1-0.9-0.7-2-1.1-2.4c0,0,0-0.1,0-0.1c0-0.2,0.5-1.4,0.7-1.8c0-0.1,0.1-0.1,0.1-0.1c0.1,0,0.3,0.2,0.4,0.5
		c0.5,0.8,0.7,1.9,0.7,3.1c0,0.9-0.1,2-0.8,2.7c-0.8,0.8-1.8,1.2-3.1,1.2c-0.8,0-1.7-0.2-2.2-0.8C353.9,24.4,353.7,23.3,353.5,18.8z
		"/>
	<path class="st0" d="M359.9,32.1c-0.3-0.2-0.4-0.3-0.4-0.4c0-0.1,0.2-0.2,0.4-0.2c0.3,0,1.1,0.2,1.8,0.2c0.6,0,1.2-0.2,2.1-0.6
		c2.4-1.2,3.9-3,3.9-4.2c0-0.2,0-0.3-0.1-0.7h-0.7c-0.5,0-1.5-0.1-2.2-0.5c-0.7-0.4-1-0.9-1-1.5c0-0.6,0.3-1.4,0.6-2.2
		c0.6-1.3,1.2-2.2,1.9-2.2c0.7,0,1.3,0.5,1.8,1.1c0.5,0.7,0.7,1.8,0.7,2.8h1c0.6,0,0.9,0.3,0.9,1c0,0.8-0.3,1.2-0.9,1.2l-1.1,0.1
		c-0.2,3.5-1.3,5.8-4.1,6.9c-0.2,0.1-0.4,0.1-0.6,0.1C362.9,33.1,361.3,32.7,359.9,32.1z M366.2,22.4c-0.1-0.1-0.3-0.2-0.6-0.2
		c-0.5,0-0.8,0.5-0.8,0.8c0,0.2,0.2,0.5,0.8,0.7c0.4,0.2,0.9,0.2,1.1,0.2c0.2,0,0.2,0,0.2-0.1C367,23.5,366.6,22.8,366.2,22.4z"/>
	<path class="st0" d="M381.5,7.9c0.1,0,0.1,0.1,0.1,0.1c0,0.4-0.5,1.4-0.7,1.7c0,0.1-0.1,0.1-0.1,0.1c-0.8,0.3-4.9,2-8.1,3.9
		c-0.6,0.4-1.2,0.7-1.6,1.3c0.7,0.6,1.6,1.3,2.3,1.9c2.2,1.7,3.7,3,5.5,4.8c1.6,1.6,2.5,2.2,3,2.2h0.3c0.6,0,0.9,0.4,0.9,1.1
		c0,0.8-0.3,1.2-0.9,1.2h-0.5c-0.6,0-1.3-0.3-2.2-1c-0.5-0.4-1.3-1.1-2.2-2.1c-1-1-1.7-1.7-2.2-2c0.1,0.4,0.1,0.8,0.1,1.2
		c0,0.7-0.1,1.3-0.3,1.8c-0.3,0.7-0.9,1.2-1.8,1.6c-1.2,0.4-2.4,0.6-3.5,0.6h-0.3c-0.6,0-0.9-0.4-0.9-1.2c0-0.7,0.3-1.1,1-1.1
		c0.9,0,2.1-0.1,3.5-0.4c0.9-0.2,1.4-0.6,1.5-1.1c-0.1-1.1-1.3-2.6-3.6-4.6c-0.5-0.5-0.7-0.9-0.7-1.4c0-1.8,0.3-2.4,0.5-2.7
		c0.9-0.9,1.6-1.4,2.6-2c3.3-2,7.8-3.6,8.2-3.8C381.5,7.9,381.5,7.9,381.5,7.9z"/>
	<path class="st0" d="M386.6,7.7c0.1-0.1,0.1,0,0.1,0.1c0,0.6-0.2,1.1-0.5,1.3l-4.1,2.3c-0.1,0-0.1,0-0.1-0.1c0-0.3,0.1-0.8,0.2-1
		c0.1-0.2,0.3-0.3,0.7-0.5L386.6,7.7z"/>
	<path class="st0" d="M385.9,24.7c-0.4,0.6-1.2,1.1-2.6,1.3c-0.4,0.1-0.9,0.1-1.4,0.1c-0.6,0-1-0.6-1-1.1c0-0.6,0.3-1.1,1-1.1h0.5
		c1,0,2.6,0,3.2-0.6c-0.1-0.9-0.8-2-1.1-2.4c0,0,0,0,0-0.1c0-0.4,0.7-1.8,0.7-1.9c0-0.1,0.1-0.1,0.1-0.1c0.3,0,1.1,1.6,1.1,3.5
		C386.5,23.1,386.4,24,385.9,24.7z M385.8,13.3c0.2-0.2,0.2-0.2,0.3-0.1c0.5,0.5,1,1.1,1.5,1.4c0.2,0.1,0.2,0.2,0,0.3
		c-0.5,0.5-0.9,1-1.3,1.5c-0.1,0.1-0.2,0.1-0.3,0c-0.4-0.3-0.9-0.7-1.4-1.2c-0.3,0.3-0.9,1-1.1,1.2c-0.1,0.1-0.2,0.2-0.4,0
		c-0.5-0.3-1.1-0.9-1.5-1.4c-0.1-0.1-0.1-0.2,0-0.3c0.4-0.5,0.9-1,1.4-1.5c0.1-0.1,0.2-0.1,0.3,0.1c0.4,0.4,1,1,1.4,1.2
		C385,14.2,385.5,13.5,385.8,13.3z"/>
	<path class="st0" d="M403.9,23.8h0.3c0.7,0,1,0.4,1,1.1c0,0.8-0.4,1.2-1,1.2h-0.3c-0.8,0-1.4-0.3-1.8-0.7c-0.5-0.4-0.8-1-1.1-1.9
		c-0.3,1.6-2.2,2.6-4.6,2.6c-0.7,0-1.5-0.1-2.1-0.5c-0.4-0.3-0.7-0.6-0.7-1.1c0-0.5,0.1-1.3,0.4-1.9c0.1-0.2,0.2-0.3,0.3-0.3
		c0.1,0,0.2,0.1,0.3,0.3c0.2,0.7,1.2,1,2.3,1c2.1,0,3.1-0.5,3.6-1.3c0-0.2,0.1-0.4,0.1-0.7c0-1.3-0.4-2.9-0.7-4.4
		c0-0.2-0.1-0.3-0.1-0.5c0-0.1,0.1-0.4,0.5-1.4c0.2-0.4,0.3-0.6,0.4-0.6c0.1,0,0.2,0.2,0.3,0.6c0.8,3.3,0.8,5.6,1.2,7
		c0.1,0.4,0.2,0.6,0.5,0.9C403,23.6,403.4,23.8,403.9,23.8z"/>
	<path class="st0" d="M408.8,5.1c0.1-0.1,0.1,0,0.1,0.1c0,0.6-0.2,1.1-0.5,1.3l-4.1,2.3c-0.1,0-0.1,0-0.1-0.1c0-0.3,0.1-0.8,0.2-1
		c0.1-0.2,0.3-0.3,0.7-0.5L408.8,5.1z"/>
	<path class="st0" d="M409.7,20.9c0,1.2-0.4,2.9-0.9,3.7c-0.2,0.3-0.9,0.7-1.4,0.8c-1.4,0.4-2.5,0.6-3.3,0.6h-0.2
		c-0.6,0-1-0.4-1-1.2c0-0.7,0.3-1.1,1-1.1h0.2c1.3,0,2.8-0.2,3.7-0.5c0.8-0.3,0.9-0.3,0.9-1.1c0-0.5-0.1-0.8-0.3-1.3
		c-0.2,0.5-0.9,1-1.8,1c-1.1,0-1.8-0.7-1.8-2c0-1.8,1.4-4.1,2-4.1C408.5,15.9,409.7,19.3,409.7,20.9z M408.2,10.4
		c0.2-0.2,0.2-0.2,0.3-0.1c0.5,0.5,1,1.1,1.5,1.4c0.2,0.1,0.2,0.2,0,0.3c-0.5,0.5-0.9,1-1.3,1.5c-0.1,0.1-0.2,0.1-0.3,0
		c-0.4-0.3-0.9-0.7-1.4-1.2c-0.3,0.3-0.9,1-1.1,1.2c-0.1,0.1-0.2,0.2-0.4,0c-0.5-0.3-1.1-0.9-1.5-1.4c-0.1-0.1-0.1-0.2,0-0.3
		c0.4-0.5,0.9-1,1.4-1.5c0.1-0.1,0.2-0.1,0.3,0.1c0.4,0.4,1,1,1.4,1.2C407.4,11.2,408,10.6,408.2,10.4z M407.1,18.4
		c-0.2-0.2-0.5-0.3-0.7-0.3c-0.2,0-0.4,0.1-0.5,0.4c-0.1,0.2-0.2,0.4-0.2,0.5c0,0.5,0.5,0.6,1,0.6c0.5,0,0.9-0.2,0.9-0.5
		C407.6,19.1,407.4,18.6,407.1,18.4z"/>
	<path class="st0" d="M426.7,29.2c0.1-0.1,0.1,0,0.1,0.1c0,0.6-0.2,1.1-0.5,1.3l-4.1,2.3c-0.1,0-0.1,0-0.1-0.1c0-0.3,0.1-0.8,0.2-1
		c0.1-0.2,0.3-0.3,0.7-0.5L426.7,29.2z"/>
	<path class="st0" d="M418.1,26.8c-0.9-0.8-1.4-2.1-1.4-3.4c0-1.5,0.9-3.2,1.4-3.9c0.2-0.3,0.4-0.4,0.5-0.4c0.1,0,0.1,0.1,0.1,0.2
		c0,0.1-0.1,0.3-0.2,0.5c-0.4,0.9-0.9,1.8-0.9,2.9c0,0.8,0.6,1.6,1.4,2.1c0.8,0.5,1.7,0.8,2.7,0.8c2.4,0,5.7-1,6.4-2.7
		c0-0.2,0-0.3,0-0.4c0-1.1-0.3-2.3-0.9-3.1c-0.2-0.4-0.4-0.7-0.5-0.8c0,0,0-0.1,0-0.2c0-0.2,0.1-0.5,0.2-0.8
		c0.2-0.4,0.3-0.8,0.4-1.1c0.1-0.1,0.1-0.2,0.2-0.2c0.1,0,0.1,0,0.2,0.3c0.7,1.5,1.3,2.9,1.3,4.7c0,1.4-0.2,2.3-0.3,2.7
		c-0.4,0.9-0.6,1.3-1.1,1.8c-0.5,0.5-1.4,1.2-2.5,1.6c-1.1,0.5-2.4,0.7-4.1,0.7C420,27.9,418.9,27.6,418.1,26.8z M424.6,13
		c0.1,0.1,0.1,0.1,0,0.2c-0.2,0.3-1.1,1.2-1.4,1.7c-0.1,0.1-0.1,0.1-0.2,0c-0.5-0.3-1.5-1-1.7-1.4c-0.1-0.1-0.1-0.1,0-0.2
		c0.3-0.5,0.9-1.2,1.3-1.6c0.2-0.2,0.2-0.2,0.3-0.1C423.2,11.9,424,12.6,424.6,13z"/>
	<path class="st0" d="M438.6,13.9c0.2-0.2,0.2-0.2,0.3-0.1c0.5,0.5,1,1.1,1.5,1.4c0.2,0.1,0.2,0.2,0,0.3c-0.5,0.5-0.9,1-1.3,1.5
		c-0.1,0.1-0.2,0.1-0.3,0c-0.4-0.3-0.9-0.7-1.4-1.2c-0.3,0.3-0.9,1-1.1,1.2c-0.1,0.1-0.2,0.2-0.4,0c-0.5-0.3-1.1-0.9-1.5-1.4
		c-0.1-0.1-0.1-0.2,0-0.3c0.4-0.5,0.9-1,1.4-1.5c0.1-0.1,0.2-0.1,0.3,0.1c0.4,0.4,1,1,1.4,1.2C437.8,14.7,438.3,14.1,438.6,13.9z"/>
	<path class="st0" d="M432,18.8c-0.1-2-0.2-5.3-0.5-6.9c0,0,0-0.1,0-0.1c0-0.3,0.4-0.8,0.7-1.4c0.2-0.3,0.3-0.6,0.4-0.6
		c0.1,0,0.2,0.2,0.3,0.7c0.4,3.5,0.2,8.4,0.7,11.3c0.2,1,0.4,1.5,0.9,1.8c0.5,0.2,1.2,0.3,1.9,0.3c0.6,0,1.7,0,2.3-0.6
		c-0.1-0.9-0.7-2-1.1-2.4c0,0,0-0.1,0-0.1c0-0.2,0.5-1.4,0.7-1.8c0-0.1,0.1-0.1,0.1-0.1c0.1,0,0.3,0.2,0.4,0.5
		c0.5,0.8,0.7,1.9,0.7,3.1c0,0.9-0.1,2-0.8,2.7c-0.8,0.8-1.8,1.2-3.1,1.2c-0.8,0-1.7-0.2-2.2-0.8C432.4,24.4,432.2,23.3,432,18.8z"
		/>
	<path class="st0" d="M448.4,22.1c0,0.9-0.2,1.7-0.3,2c-0.4,1.5-2,2.1-4.9,2.1c-0.7,0-1-0.1-1.2-0.3c-0.2-0.2-0.3-0.7-0.3-1.2
		c0-0.4,0.1-0.7,0.1-0.8c0.1-0.3,0.2-0.5,0.2-0.5c0.1,0,0.1,0.1,0.2,0.2c0.3,0.2,0.9,0.3,1.7,0.3c1.2,0,2.7-0.2,3.3-0.6
		c0.1,0,0.1-0.1,0.1-0.1c0,0,0-0.1,0-0.1c-0.4-1.4-2.2-3.9-3.6-3.9c-0.2,0-0.4,0.2-0.6,0.2c-0.1,0-0.1,0-0.1-0.2
		c0-0.5,0.4-1.8,0.8-2.2c0.1-0.1,0.3-0.1,0.5-0.1c0.3,0,0.8,0.1,1.1,0.3c0.6,0.2,1.5,1.2,2.2,2.4C448.1,20.3,448.4,21.1,448.4,22.1z
		"/>
	<path class="st0" d="M455.1,12.5c-0.7,0-1.1-0.7-1.1-1.5c0-0.2,0-0.5,0.1-0.8c0.1-0.2,0.2-0.8,0.5-0.8c0.1,0,0.2,0.2,0.2,0.6v0.3
		c0,0.3,0.2,0.5,0.6,0.5h0c0.5,0,0.8-0.3,0.9-1c0.1-0.3,0.2-1.1,0.6-1.1c0.1,0,0.2,0.2,0.2,0.5c0,0.2,0.1,0.3,0.4,0.3
		c0.5,0,0.8-0.3,0.9-0.8c0.1-0.7,0.2-0.8,0.4-0.8c0.2,0,0.3,0.7,0.3,1.1c0,0.3,0,0.6-0.2,1c-0.2,0.7-0.7,1.2-1.5,1.2
		c-0.2,0-0.4-0.1-0.5-0.1c-0.1-0.1-0.1,0-0.2,0.1C456.3,12,455.9,12.5,455.1,12.5z M459,5.6C459.1,5.6,459.1,5.7,459,5.6
		c0,0.5-0.2,0.9-0.4,1.2c-0.1,0.1-0.2,0.2-0.5,0.3l-4,1.9c0,0-0.1,0-0.1-0.1c0-0.2,0.1-0.5,0.2-0.7c0.2-0.3,0.2-0.4,0.3-0.5
		c0.1-0.1,0.2-0.1,0.3-0.2L459,5.6z"/>
	<path class="st0" d="M460.8,23.8h0.3c0.7,0,1,0.4,1,1.1c0,0.8-0.4,1.2-1,1.2h-0.3c-0.8,0-1.4-0.3-1.8-0.7c-0.5-0.4-0.8-1-1.1-1.9
		c-0.3,1.6-2.2,2.6-4.6,2.6c-0.7,0-1.5-0.1-2.1-0.5c-0.4-0.3-0.7-0.6-0.7-1.1c0-0.5,0.1-1.3,0.4-1.9c0.1-0.2,0.2-0.3,0.3-0.3
		c0.1,0,0.2,0.1,0.3,0.3c0.2,0.7,1.2,1,2.3,1c2.1,0,3.1-0.5,3.6-1.3c0-0.2,0.1-0.4,0.1-0.7c0-1.3-0.4-2.9-0.7-4.4
		c0-0.2-0.1-0.3-0.1-0.5c0-0.1,0.1-0.4,0.5-1.4c0.2-0.4,0.3-0.6,0.4-0.6c0.1,0,0.2,0.2,0.3,0.6c0.8,3.3,0.8,5.6,1.2,7
		c0.1,0.4,0.2,0.6,0.5,0.9C460,23.6,460.4,23.8,460.8,23.8z"/>
	<path class="st0" d="M469.6,21.6c0.1,0,0.2,0.1,0.2,0.5c0,0.1,0,0.3,0,0.5c0,0.7,0.5,1.1,1.2,1.1c1,0,1.5-1,1.9-1.8
		c0-0.1,0.2-0.4,0.3-0.4c0.1,0,0.2,0.1,0.2,0.6c0.1,1.1,0.7,1.7,1.5,1.7h0.3c0.7,0,1.1,0.3,1.1,1c0,0.8-0.4,1.3-1.1,1.3H475
		c-1.3,0-2-0.6-2.2-1.9c-0.3,0.9-1.2,2-2.3,2c-1.1,0-1.6-0.9-1.7-1.9c-0.4,1.1-1.5,1.9-2.7,1.9c-1.2,0-2-0.4-2.3-1.6
		c-0.2,0.4-0.4,0.8-0.8,1.1c-0.4,0.3-1.1,0.5-2.1,0.5h-0.2c-0.7,0-1-0.4-1-1.2c0-0.7,0.3-1.1,1-1.1h0.3c1.6,0,2.6-0.6,3.2-1.7
		c0-0.1,0.2-0.3,0.3-0.3c0.2,0,0.2,0.2,0.2,0.5c0,0.9,0.8,1.3,1.8,1.3c1.2,0,2.1-0.5,2.8-1.7C469.4,21.8,469.5,21.6,469.6,21.6z
		 M470.4,16c0.2-0.2,0.2-0.2,0.3-0.1c0.5,0.5,1,1.1,1.5,1.4c0.2,0.1,0.2,0.2,0,0.3c-0.5,0.5-0.9,1-1.3,1.5c-0.1,0.1-0.2,0.1-0.3,0
		c-0.4-0.3-0.9-0.7-1.4-1.2c-0.3,0.3-0.9,1-1.1,1.2c-0.1,0.1-0.2,0.2-0.4,0c-0.5-0.3-1.1-0.9-1.5-1.4c-0.1-0.1-0.1-0.2,0-0.3
		c0.4-0.5,0.9-1,1.4-1.5c0.1-0.1,0.2-0.1,0.3,0.1c0.4,0.4,1,1,1.4,1.2C469.7,16.9,470.2,16.2,470.4,16z M470.8,12.7
		c0.1,0.1,0.1,0.1,0,0.2c-0.2,0.3-1.1,1.2-1.4,1.7c-0.1,0.1-0.1,0.1-0.2,0c-0.5-0.3-1.5-1-1.7-1.4c-0.1-0.1-0.1-0.1,0-0.2
		c0.3-0.5,0.9-1.2,1.3-1.6c0.2-0.2,0.2-0.2,0.3-0.1C469.4,11.6,470.1,12.3,470.8,12.7z"/>
	<path class="st0" d="M482.2,13.5c0,0.5-0.1,1-0.3,1.5c0.2,0.1,0.4,0.3,0.4,0.4c0,0.4-0.2,0.7-0.3,1c-0.1,0.1-0.1,0.1-0.1,0.1
		l-0.5-0.3c-0.5,0.8-1.3,1.8-2.5,2.3c-0.4,0.2-0.9,0.4-1.5,0.4c-0.3,0-0.4-0.1-0.4-0.1c0-0.1,0.2-0.2,0.6-0.4
		c0.9-0.5,2.5-1.8,3.1-2.5c-0.5-0.3-1.1-0.7-1.1-1.4c0-0.4,0.2-0.9,0.6-1.3c0.4-0.5,0.8-0.8,1.2-0.8C482,12.3,482.2,13,482.2,13.5z
		 M480.4,13.9C480.4,14,480.4,14,480.4,13.9c0,0.2,0.4,0.5,0.8,0.7c0.1-0.2,0.1-0.4,0.1-0.7c0-0.3-0.1-0.4-0.3-0.4
		C480.8,13.5,480.6,13.7,480.4,13.9z"/>
	<path class="st0" d="M486.9,4.3c0.7,0,1.7,1,1.7,2.1c0,0.4-0.1,0.8-0.2,1.2c-0.3,0.8-0.9,1.3-1.8,1.3c-0.8,0-1.3-0.6-1.3-1.3
		C485.3,6.5,486.4,4.3,486.9,4.3z M486.7,5.9c-0.3,0-0.7,0.6-0.7,1c0,0.3,0.4,0.6,0.8,0.6c0.5,0,1.1-0.3,1.1-0.5
		C487.9,6.8,487.3,5.9,486.7,5.9z"/>
	<path class="st0" d="M488.7,21.1c0,1.7-0.4,3-1.1,4.1c-0.5,0.6-1.5,1-2.3,1c-0.8,0-1.5-0.2-2.1-0.8c-0.2,0.6-0.8,1.3-1.2,1.5
		c-0.1,0-0.2,0.1-0.2,0c-1.1-0.2-3.3-1-4.2-2.2c-0.5,1-1.3,1.4-2.4,1.4h-0.3c-0.6,0-0.9-0.4-0.9-1.1c0-0.8,0.3-1.2,0.9-1.2h0.3
		c2.1,0,3.2-1.2,4.1-2.1c0.5-0.6,0.9-1.1,1.4-1.1c0.2,0,0.5,0.1,0.7,0.4c0.9,1.1,2.6,2.8,4.1,2.8c0.5,0,1.7-0.2,2.1-0.7v0
		c0-1.7-0.7-6.1-1-9.5c-0.1-0.4-0.2-1-0.3-1.5c0-0.1,0-0.2,0-0.3c0,0,0-0.1,0-0.2c0-0.1,0.2-0.5,0.4-0.9c0.3-0.5,0.6-1.1,0.8-1.1
		c0.1,0,0.1,0.1,0.2,0.2c0.3,1,0.7,1.4,0.9,1.8c0,0.1,0.1,0.2,0.1,0.2c0,0.1,0,0.1,0,0.2c-0.1,0.2-0.4,0.9-0.6,1.2
		C488.2,16.8,488.7,19.5,488.7,21.1z M480,22.6c-0.2,0-0.5,0.2-0.7,0.4c-0.2,0.2-0.2,0.3,0.1,0.5c0.4,0.2,1.8,0.9,2.1,1
		c0.2,0.1,0.3,0.1,0.4,0.1c0.2,0,0.1-0.2,0-0.4C481.6,23.8,480.7,22.6,480,22.6z"/>
	<path class="st0" d="M492.6,26.1c-0.1,0-0.2-0.2-0.2-0.7c0-3-1.1-11.3-1.1-12.7c0-0.7,0.5-1.7,0.9-2.5c0.1-0.2,0.3-0.5,0.5-0.5
		c0.1,0,0.2,0.2,0.2,0.8c0.1,2.2,0.7,7.3,0.7,11c0,1.5-0.1,2.7-0.4,3.5C492.9,25.8,492.8,26.1,492.6,26.1z"/>
	<path class="st0" d="M509.5,4.9c0,0.5-0.1,1-0.3,1.5c0.2,0.1,0.4,0.3,0.4,0.4c0,0.4-0.2,0.7-0.3,1c-0.1,0.1-0.1,0.1-0.1,0.1
		l-0.5-0.3c-0.5,0.8-1.3,1.7-2.5,2.3c-0.4,0.2-0.9,0.4-1.5,0.4c-0.3,0-0.4-0.1-0.4-0.1c0-0.1,0.2-0.2,0.6-0.4
		c0.9-0.5,2.5-1.8,3.1-2.5c-0.5-0.3-1.1-0.7-1.1-1.4c0-0.4,0.2-0.9,0.6-1.3c0.4-0.5,0.8-0.8,1.2-0.8C509.3,3.6,509.5,4.3,509.5,4.9z
		 M507.7,5.3C507.7,5.4,507.7,5.4,507.7,5.3c0,0.2,0.4,0.5,0.8,0.7c0.1-0.2,0.1-0.4,0.1-0.7c0-0.3-0.1-0.4-0.3-0.4
		C508.1,4.9,507.8,5.1,507.7,5.3z"/>
	<path class="st0" d="M503.2,26.8c-0.9-0.8-1.4-2.1-1.4-3.4c0-1.5,0.9-3.2,1.4-3.9c0.2-0.3,0.4-0.4,0.5-0.4c0.1,0,0.1,0.1,0.1,0.2
		c0,0.1-0.1,0.3-0.2,0.5c-0.4,0.9-0.9,1.8-0.9,2.9c0,0.8,0.6,1.6,1.4,2.1c0.8,0.5,1.7,0.8,2.7,0.8c2.4,0,5.7-1,6.4-2.7
		c0-0.2,0-0.3,0-0.4c0-1.1-0.3-2.3-0.9-3.1c-0.2-0.4-0.4-0.7-0.5-0.8c0,0,0-0.1,0-0.2c0-0.2,0.1-0.5,0.2-0.8
		c0.2-0.4,0.3-0.8,0.4-1.1c0.1-0.1,0.1-0.2,0.2-0.2c0.1,0,0.1,0,0.2,0.3c0.7,1.5,1.3,2.9,1.3,4.7c0,1.4-0.2,2.3-0.3,2.7
		c-0.4,0.9-0.6,1.3-1.1,1.8c-0.5,0.5-1.4,1.2-2.5,1.6c-1.1,0.5-2.4,0.7-4.1,0.7C505,27.9,504,27.6,503.2,26.8z M509.7,13
		c0.1,0.1,0.1,0.1,0,0.2c-0.2,0.3-1.1,1.2-1.4,1.7c-0.1,0.1-0.1,0.1-0.2,0c-0.5-0.3-1.5-1-1.7-1.4c-0.1-0.1-0.1-0.1,0-0.2
		c0.3-0.5,0.9-1.2,1.3-1.6c0.2-0.2,0.2-0.2,0.3-0.1C508.3,11.9,509,12.6,509.7,13z"/>
	<path class="st0" d="M513.1,32.1c-0.3-0.2-0.4-0.3-0.4-0.4c0-0.1,0.2-0.2,0.4-0.2c0.3,0,1.1,0.2,1.8,0.2c0.6,0,1.2-0.2,2.1-0.6
		c2.4-1.2,3.9-3,3.9-4.2c0-0.2,0-0.3-0.1-0.7h-0.7c-0.5,0-1.5-0.1-2.2-0.5c-0.7-0.4-1-0.9-1-1.5c0-0.6,0.3-1.4,0.6-2.2
		c0.6-1.3,1.2-2.2,1.9-2.2c0.7,0,1.3,0.5,1.8,1.1c0.5,0.7,0.7,1.8,0.7,2.8h1c0.6,0,0.9,0.3,0.9,1c0,0.8-0.3,1.2-0.9,1.2l-1.1,0.1
		c-0.2,3.5-1.3,5.8-4.1,6.9c-0.2,0.1-0.4,0.1-0.6,0.1C516.1,33.1,514.5,32.7,513.1,32.1z M519.4,22.4c-0.1-0.1-0.3-0.2-0.6-0.2
		c-0.5,0-0.8,0.5-0.8,0.8c0,0.2,0.2,0.5,0.8,0.7c0.4,0.2,0.9,0.2,1.1,0.2c0.2,0,0.2,0,0.2-0.1C520.2,23.5,519.8,22.8,519.4,22.4z"/>
	<path class="st0" d="M524.2,13.7c0,0-0.1,0-0.1,0c-0.3,0-0.6-0.2-0.8-0.4c-0.3-0.3-0.4-0.7-0.4-1.2c0-0.2,0-0.5,0.1-0.7
		c0.1-0.2,0.3-0.7,0.5-0.7c0.1,0,0.1,0.1,0.1,0.4c0,0.1,0,0.3,0,0.4c0,0.4,0.2,0.6,0.7,0.6h0c0.4,0,0.8-0.3,0.9-0.9
		c0.1-0.2,0.3-1,0.6-1c0.1,0,0.2,0.1,0.2,0.4v0.1c0,0.3,0.1,0.4,0.4,0.4c0,0,0.1,0,0.2,0c0.4-0.1,0.6-0.4,0.7-0.8
		c0.2-0.5,0.3-0.7,0.4-0.7c0.1,0,0.2,0.1,0.2,0.3c0,0.2,0,0.3,0,0.5c0,0.4-0.1,0.8-0.3,1.2c-0.3,0.6-0.7,1.1-1.4,1.1
		c-0.3,0-0.4-0.1-0.6-0.2c-0.1-0.1-0.1-0.1-0.2,0C525.1,13.3,524.6,13.7,524.2,13.7z M527.4,5.5c0,0.2,0,0.2,0,0.3
		c0,0.4-0.1,0.8-0.3,1.2c0.2,0.1,0.3,0.2,0.3,0.3c0,0.3-0.1,0.6-0.3,0.9L526.6,8c-0.5,0.8-1,1.3-1.3,1.6c-0.3,0.2-0.9,0.4-1.6,0.4
		c-0.4,0-0.5-0.1-0.3-0.2c1.3-0.8,2.2-1.5,2.7-2.2c-0.4-0.3-0.9-0.6-0.9-1.1c0-0.3,0.2-0.7,0.5-1.1c0.3-0.5,0.7-0.7,1-0.7
		C527.1,4.8,527.3,5.2,527.4,5.5z M525.8,6.3c0.1,0.2,0.3,0.3,0.7,0.5c0.1-0.1,0.1-0.4,0.1-0.5c0-0.2-0.1-0.4-0.3-0.4
		C526.2,5.9,526,6,525.8,6.3z"/>
	<path class="st0" d="M527.4,22.5c0,0.6,0.6,1.2,1.4,1.4c0.2,0,0.3,0,0.5,0h0.1c0.9,0,0.9,0.7,0.9,1c0,0.3,0,1.3-0.8,1.3h-0.2
		c-0.2,0-0.3,0-0.6,0c-1.5-0.2-2.1-1.5-2.2-1.7c-0.2,0.6-1.5,1.7-3.7,1.7h-0.1c-0.6,0-1-0.6-1-1.1c0-0.6,0.3-1.1,1-1.1h0.7
		c1,0,2.4-0.2,3.3-1.6c0.3-0.5,0.4-0.5,0.5-0.5C527.3,21.7,527.4,21.9,527.4,22.5z M528.2,16.6c0.1,0.1,0.1,0.1,0,0.2
		c-0.2,0.3-1.1,1.2-1.4,1.7c-0.1,0.1-0.1,0.1-0.2,0c-0.5-0.3-1.5-1-1.7-1.4c-0.1-0.1-0.1-0.1,0-0.2c0.3-0.5,0.9-1.2,1.3-1.6
		c0.2-0.2,0.2-0.2,0.3-0.1C526.8,15.5,527.5,16.2,528.2,16.6z"/>
	<path class="st0" d="M531.7,25.1c-0.5,0.7-1.2,1-2.3,1h-0.2c-0.7,0-1-0.4-1-1.2c0-0.7,0.3-1.1,1-1.1h0.2c0.5,0,1-0.1,1.5-0.2
		c0.4-0.1,0.6-0.3,0.7-0.4c0-1.7-0.6-5.4-0.9-8.9c0-0.4-0.3-1.6-0.4-2.1c0-0.1,0-0.2,0-0.2c0-0.3,0.3-0.9,0.5-1.3
		c0.3-0.5,0.5-0.9,0.7-0.9c0.1,0,0.1,0.1,0.2,0.2c0.3,1,0.6,1.5,0.8,1.8c0.1,0.1,0.1,0.2,0.1,0.3c0,0,0,0.1,0,0.1
		c-0.1,0.2-0.4,0.8-0.6,1.1c0.2,3.4,0.7,6.2,0.7,7.8C532.7,22.8,532.4,24.1,531.7,25.1z"/>
	<path class="st0" d="M537.3,26.1c-0.1,0-0.2-0.2-0.2-0.7c0-3-1.1-11.3-1.1-12.7c0-0.7,0.5-1.7,0.9-2.5c0.1-0.2,0.3-0.5,0.5-0.5
		c0.1,0,0.2,0.2,0.2,0.8c0.1,2.2,0.7,7.3,0.7,11c0,1.5-0.1,2.7-0.4,3.5C537.7,25.8,537.5,26.1,537.3,26.1z"/>
	<path class="st0" d="M545.7,13.7c0.1-0.1,0.1,0,0.1,0.1c0,0.6-0.2,1.1-0.5,1.3l-4.1,2.3c-0.1,0-0.1,0-0.1-0.1c0-0.3,0.1-0.8,0.2-1
		c0.1-0.2,0.3-0.3,0.7-0.5L545.7,13.7z"/>
	<path class="st0" d="M546.4,22c0.3,0.9,0.5,1.8,0.5,3.1c0,4-1.1,6.5-4.2,7.7c-0.2,0.1-0.4,0.1-0.6,0.1c-1,0-2.6-0.5-4-1.1
		c-0.3-0.2-0.4-0.3-0.4-0.4c0-0.1,0.1-0.2,0.4-0.2c0.2,0,1.1,0.2,1.8,0.2c0.9,0,1.9-0.4,3.3-1.3c1.5-1,2.8-2.3,2.8-3.8
		c0-0.5-0.1-1-0.4-1.5c-0.3,0.7-0.8,1.1-1.5,1.1c-1.3,0-2.1-0.7-2.1-2.1c0-0.5,0.3-1.3,0.6-2.1c0.5-1,1.2-1.9,1.8-1.9
		C545.1,19.8,545.9,20.7,546.4,22z M543.9,22c-0.3,0-0.5,0.2-0.7,0.5c-0.1,0.1-0.2,0.4-0.2,0.5c0,0.4,0.6,0.6,1.1,0.6
		c0.4,0,0.7-0.2,0.8-0.4C544.9,22.5,544.2,22,543.9,22z"/>
	<path class="st0" d="M558.2,16.9c0,0.5-0.1,1-0.3,1.5c0.2,0.1,0.4,0.3,0.4,0.4c0,0.4-0.2,0.7-0.3,1c-0.1,0.1-0.1,0.1-0.1,0.1
		l-0.5-0.3c-0.5,0.8-1.3,1.8-2.5,2.3c-0.4,0.2-0.9,0.4-1.5,0.4c-0.3,0-0.4-0.1-0.4-0.1c0-0.1,0.2-0.2,0.6-0.4
		c0.9-0.5,2.5-1.8,3.1-2.5c-0.5-0.3-1.1-0.7-1.1-1.4c0-0.4,0.2-0.9,0.6-1.3c0.4-0.5,0.8-0.8,1.2-0.8C558,15.7,558.2,16.4,558.2,16.9
		z M556.4,17.4C556.4,17.4,556.4,17.4,556.4,17.4c0,0.2,0.4,0.5,0.8,0.7c0.1-0.2,0.1-0.4,0.1-0.7c0-0.3-0.1-0.4-0.3-0.4
		C556.8,16.9,556.5,17.1,556.4,17.4z"/>
	<path class="st0" d="M564.3,30.6c0.2-0.2,0.2-0.2,0.3-0.1c0.5,0.5,1,1.1,1.5,1.4c0.2,0.1,0.2,0.2,0,0.3c-0.5,0.5-0.9,1-1.3,1.5
		c-0.1,0.1-0.2,0.1-0.3,0c-0.4-0.3-0.9-0.7-1.4-1.2c-0.3,0.3-0.9,1-1.1,1.2c-0.1,0.1-0.2,0.2-0.4,0c-0.5-0.3-1.1-0.9-1.5-1.4
		c-0.1-0.1-0.1-0.2,0-0.3c0.4-0.5,0.9-1,1.4-1.5c0.1-0.1,0.2-0.1,0.3,0.1c0.4,0.4,1,1,1.4,1.2C563.5,31.4,564,30.8,564.3,30.6z"/>
	<path class="st0" d="M561.4,27.4c0,0.1,0,0.2-0.1,0.5c-0.3,0.8-0.6,1.3-0.8,1.6c-0.1,0.1-0.1,0.1-0.2,0.1c-0.5-0.2-1.1-0.3-2.2-0.4
		c-1.7,0-2.8,0.3-3.1,0.9c0.2,1.2,0.4,2.1,0.5,2.6l0.4,2.1c0.2,1.1,0.3,2.2,0.3,3.1c0,0.9-0.1,1.9-0.4,2.8c-0.1,0.4-0.3,0.6-0.4,0.6
		c-0.1,0-0.1-0.2-0.1-0.5c0-0.3,0.1-0.7,0-1.2c0-0.9-0.2-2.1-0.6-4.6c-0.3-1.9-0.6-3-0.6-3.5c0-1,0.2-1.9,0.7-2.8
		c0.5-0.9,1.1-1.5,1.8-1.8l0.7-1.6c0.5-1.2,1.3-2,2.1-2.5c0.8-0.5,2.1-1.1,3.1-1.1c0.3,0,0.6,0.1,0.8,0.2c0.3,0.2,0.6,0.5,1,1.1
		c0.4,0.6,0.8,0.8,1.3,0.8h0.3c0.6,0,0.9,0.3,0.9,1c0,0.8-0.3,1.2-0.9,1.2h-0.3c-0.7,0-1.4-0.3-2-1c-0.5-0.5-0.8-0.9-1.2-1
		c-0.2-0.1-0.4-0.1-0.9-0.1c-1.1,0-2.1,0.4-2.9,1.1c0.9,0.4,1.6,0.8,2.1,1.3C561,26.8,561.3,27.1,561.4,27.4z"/>
	<path class="st0" d="M568.3,4.2c0.7,0,1.7,1,1.7,2.1c0,0.4-0.1,0.8-0.2,1.2c-0.3,0.8-0.9,1.3-1.8,1.3c-0.8,0-1.3-0.6-1.3-1.3
		C566.6,6.4,567.8,4.2,568.3,4.2z M568,5.8c-0.3,0-0.7,0.6-0.7,1c0,0.3,0.4,0.6,0.8,0.6c0.5,0,1.1-0.3,1.1-0.5
		C569.2,6.6,568.6,5.8,568,5.8z"/>
	<path class="st0" d="M569.8,21.4c0.1,0.5,0.4,0.9,0.7,1.1c0.3,0.2,0.7,0.4,1.1,0.6c0.4,0.2,0.7,0.3,0.8,0.4
		c0.2,0.1,0.3,0.8,0.3,1.2c0,0.4-0.1,1-0.4,1.4c-0.1,0.1-0.2,0.1-0.2,0.1c-1.3-0.7-2.3-1.1-3-1.1c-0.5,0-0.9,0.2-1.5,0.5
		c-0.6,0.3-1.3,0.6-2,0.6h-0.2c-0.6,0-0.9-0.4-0.9-1.1c0-0.8,0.3-1.2,0.9-1.2h0.2c0.9,0,1.9-0.3,3.1-0.8c0-0.2-0.1-0.7-0.2-1.6
		s-0.4-4.1-0.8-8c-0.1-0.4-0.2-1-0.3-1.4c0-0.1,0-0.2,0-0.3c0,0,0-0.1,0-0.2c0-0.1,0.1-0.4,0.4-0.8c0.3-0.5,0.6-1.1,0.8-1.1
		c0.1,0,0.1,0.1,0.2,0.2c0.3,0.9,0.5,1.4,0.7,1.8c0,0.1,0.1,0.2,0.1,0.2s0,0.1,0,0.2c-0.1,0.2-0.4,0.9-0.6,1.2
		C569.3,18.1,569.6,20.9,569.8,21.4z"/>
	<path class="st0" d="M576.6,26.1c-0.1,0-0.2-0.2-0.2-0.7c0-3-1.1-11.3-1.1-12.7c0-0.7,0.5-1.7,0.9-2.5c0.1-0.2,0.3-0.5,0.5-0.5
		c0.1,0,0.2,0.2,0.2,0.8c0.1,2.2,0.7,7.3,0.7,11c0,1.5-0.1,2.7-0.4,3.5C577,25.8,576.8,26.1,576.6,26.1z"/>
	<path class="st0" d="M585,13.7c0.1-0.1,0.1,0,0.1,0.1c0,0.6-0.2,1.1-0.5,1.3l-4.1,2.3c-0.1,0-0.1,0-0.1-0.1c0-0.3,0.1-0.8,0.2-1
		c0.1-0.2,0.3-0.3,0.7-0.5L585,13.7z"/>
	<path class="st0" d="M585.7,22c0.3,0.9,0.5,1.8,0.5,3.1c0,4-1.1,6.5-4.2,7.7c-0.2,0.1-0.4,0.1-0.6,0.1c-1,0-2.6-0.5-4-1.1
		c-0.3-0.2-0.4-0.3-0.4-0.4c0-0.1,0.1-0.2,0.4-0.2c0.2,0,1.1,0.2,1.8,0.2c0.9,0,1.9-0.4,3.3-1.3c1.5-1,2.8-2.3,2.8-3.8
		c0-0.5-0.1-1-0.4-1.5c-0.3,0.7-0.8,1.1-1.5,1.1c-1.3,0-2.1-0.7-2.1-2.1c0-0.5,0.3-1.3,0.6-2.1c0.5-1,1.2-1.9,1.8-1.9
		C584.4,19.8,585.3,20.7,585.7,22z M583.2,22c-0.3,0-0.5,0.2-0.7,0.5c-0.1,0.1-0.2,0.4-0.2,0.5c0,0.4,0.6,0.6,1.1,0.6
		c0.4,0,0.7-0.2,0.8-0.4C584.2,22.5,583.5,22,583.2,22z"/>
	<path class="st0" d="M454.8,75.9c0.4,0.3,0.4,0.8,0.4,1.1c0,0.3-0.1,0.7-0.4,1c-0.3,0.3-0.7,0.4-1.1,0.4c-0.3,0-0.7-0.1-0.9-0.4
		c-0.3-0.3-0.4-0.7-0.4-1.1c0-0.4,0.2-0.7,0.4-1c0.3-0.2,0.6-0.4,1-0.4S454.6,75.7,454.8,75.9z"/>
	<path class="st1" d="M471.3,79.8c0.1-0.1,0.1,0,0.1,0.1c0,0.6-0.2,1.1-0.5,1.3l-4.2,2.4c-0.1,0-0.1,0-0.1-0.1c0-0.3,0.1-0.8,0.2-1
		c0.1-0.2,0.3-0.3,0.7-0.5L471.3,79.8z M471.3,81.9c0.1-0.1,0.1,0,0.1,0.1c0,0.6-0.2,1.1-0.5,1.3l-4.2,2.4c-0.1,0-0.1,0-0.1-0.1
		c0-0.3,0.1-0.8,0.2-1c0.1-0.2,0.3-0.3,0.7-0.5L471.3,81.9z"/>
	<path class="st1" d="M476,72.5c0,0.5-0.3,1.8-0.6,2.8c-0.3,0.7-0.4,0.8-1.2,1.2c-1.7,0.8-5.7,2-9.8,2c-5.3,0-7.4-1.8-7.4-4.3
		c0-0.9,0.4-2.4,1-3.3c0.2-0.3,0.4-0.6,0.6-0.6c0.1,0,0.1,0,0.1,0.1c0,0.1-0.1,0.3-0.1,0.5c-0.2,0.7-0.5,1.4-0.5,2
		c0,1.1,1.4,3.1,6.5,3.2c3.7,0,7.7-0.8,9.4-1.4c0.9-0.3,0.9-0.5,0.9-1.1c0-0.5-0.1-0.8-0.3-1.3c-0.2,0.5-0.9,1-1.8,1
		c-1.1,0-1.8-0.7-1.8-2c0-1.8,1.4-4.1,2-4.1C474.6,67.1,476,69.7,476,72.5z M471,64.3c0.1,0.1,0.1,0.1,0,0.2
		c-0.2,0.3-1.1,1.2-1.4,1.7c-0.1,0.1-0.1,0.1-0.2,0c-0.5-0.3-1.5-1-1.7-1.4c-0.1-0.1-0.1-0.1,0-0.2c0.3-0.5,0.9-1.2,1.3-1.6
		c0.2-0.2,0.2-0.2,0.3-0.1C469.5,63.2,470.3,63.9,471,64.3z M472.7,69.3c-0.3,0-0.6,0.4-0.7,0.8c0,0,0,0.1,0,0.1s0,0.1,0,0.1
		c0.1,0.3,0.5,0.5,1,0.5c0.4,0,0.8-0.2,0.9-0.3c0,0,0.1-0.1,0.1-0.1C474,70.2,473.5,69.3,472.7,69.3z"/>
	<path class="st1" d="M484.5,75.8c0.7,0,1.1,0.4,1.1,1.1c0,0.8-0.4,1.2-1.1,1.2h-0.2c-0.6,0-1,0-1.3-0.1c0,0.1,0,0.2,0,0.3
		c0,0.7-0.1,1.5-0.4,2.1c-0.5,1.2-1.3,3.3-3.6,4.3c-0.4,0.2-0.8,0.3-1.2,0.3c-0.9,0-2.4-0.5-3.5-1c-0.3-0.2-0.4-0.3-0.4-0.4
		c0-0.1,0.1-0.2,0.4-0.2c0.3,0,0.8,0.1,1.3,0.1c3.1,0,6.2-2.7,6.6-5c0-0.5-1.1-1.6-1.3-1.9c0-0.1-0.1-0.2-0.1-0.3
		c0-0.5,0.4-1.5,0.6-1.8c0.1-0.2,0.2-0.2,0.3-0.2c0.2,0,0.3,0.2,0.6,0.7c0.4,0.6,0.9,0.9,1.8,0.9H484.5z"/>
	<path class="st1" d="M491.8,64.7c0.1-0.1,0.1,0,0.1,0.1c0,0.6-0.2,1.1-0.5,1.3l-4.1,2.3c-0.1,0-0.1,0-0.1-0.1c0-0.3,0.1-0.8,0.2-1
		c0.1-0.2,0.3-0.3,0.7-0.5L491.8,64.7z"/>
	<path class="st1" d="M487.2,72.8c-0.2,0-0.5,0-0.6,0.1c-0.2,0.1-0.6,0.3-0.8,0.3c-0.2,0-0.2-0.1-0.2-0.2c0-0.4,0.6-1.3,1.2-1.8
		c0.5-0.4,1-0.6,1.4-0.6c0.2,0,0.3,0,0.5,0.1c1.8,0.4,4.1,1.4,6,1.8c1.3,0.3,2.6,0.4,3.4,0.4c0.2,0,0.3,0,0.5,0c0.1,0,0.1,0,0.1,0.1
		c0,0.4-0.7,1.5-1.1,1.9c-0.1,0.1-0.3,0.1-0.6,0.1c-0.5,0-1.6-0.1-1.9-0.1c-0.9,0-1.6,0.1-2.2,0.3c-0.4,0.2-1.2,0.5-2.3,1
		c-1.7,0.8-2.8,1.4-3.6,1.7c-0.8,0.3-1.6,0.5-2.5,0.5h-0.3c-0.7,0-1.1-0.4-1.1-1.2c0-0.7,0.4-1.1,1.1-1.1h0.3c1.4,0,2.5-0.1,3.4-0.4
		c0.9-0.3,2.3-0.7,4-1.4C489.9,73.4,488.3,72.8,487.2,72.8z"/>
	<path class="st0" d="M514.2,74c0.3,0.9,0.5,1.8,0.5,3.1c0,4-1.1,6.5-4.2,7.7c-0.2,0.1-0.4,0.1-0.6,0.1c-1,0-2.6-0.5-4-1.1
		c-0.3-0.2-0.4-0.3-0.4-0.4c0-0.1,0.1-0.2,0.4-0.2c0.2,0,1.1,0.2,1.8,0.2c0.9,0,1.9-0.4,3.3-1.3c1.5-1,2.8-2.3,2.8-3.8
		c0-0.5-0.1-1-0.4-1.5c-0.3,0.7-0.8,1.1-1.5,1.1c-1.3,0-2.1-0.7-2.1-2.1c0-0.5,0.3-1.3,0.6-2.1c0.5-1,1.2-1.9,1.8-1.9
		C512.8,71.8,513.7,72.7,514.2,74z M511.7,74c-0.3,0-0.5,0.2-0.7,0.5c-0.1,0.1-0.2,0.4-0.2,0.5c0,0.4,0.6,0.6,1.1,0.6
		c0.4,0,0.7-0.2,0.8-0.4C512.7,74.5,512,74,511.7,74z"/>
	<path class="st0" d="M520.3,52c0.1-0.1,0.1,0,0.1,0.1c0,0.6-0.2,1.1-0.5,1.3l-4.1,2.3c-0.1,0-0.1,0-0.1-0.1c0-0.3,0.1-0.8,0.2-1
		c0.1-0.2,0.3-0.3,0.7-0.5L520.3,52z"/>
	<path class="st0" d="M520,59.7c-0.8,0.4-2.6,1.5-4,2.5c-0.1,0-0.1,0-0.1,0c0,0-0.1,0-0.1-0.1c0-0.1,0.1-0.3,0.2-0.7
		c0.1-0.2,0.5-0.6,0.8-0.9c0,0,0.1-0.1,0.1-0.1c0,0,0-0.1-0.1-0.1c-0.6-0.2-0.9-0.4-0.9-0.9c0-0.1,0-0.1,0-0.2c0-0.9,1-2.2,1.8-2.9
		c0.3-0.3,0.7-0.4,1-0.4c0.5,0,0.8,0.3,0.8,0.7c0,0.3-0.1,0.6-0.2,1c-0.1,0.2-0.2,0.4-0.3,0.4c-0.1,0-0.2-0.1-0.3-0.2
		c-0.1-0.1-0.3-0.3-0.6-0.3c-0.8,0-1.3,0.5-1.3,0.7c0,0.3,1.3,0.8,1.8,0.8c0.1,0,0.1,0,0.1,0c0.2-0.1,1.1-0.4,1.5-0.6
		c0.2-0.1,0.3-0.2,0.3-0.2c0,0,0.1,0,0.1,0.1c0,0.1-0.1,0.2-0.1,0.4C520.3,59.5,520.2,59.6,520,59.7z M518.5,78.1
		c-0.1,0-0.2-0.2-0.2-0.7c0-3-1.1-11.3-1.1-12.7c0-0.7,0.5-1.7,0.9-2.5c0.1-0.2,0.3-0.5,0.5-0.5c0.1,0,0.2,0.2,0.2,0.8
		c0.1,2.2,0.7,7.3,0.7,11c0,1.5-0.1,2.7-0.4,3.5C518.9,77.8,518.7,78.1,518.5,78.1z"/>
	<path class="st0" d="M531.9,76.9c0.2,0.3,0.3,0.6,0.3,1.1c0,0.5-0.2,0.9-0.5,1.1c-0.3,0.2-0.6,0.3-1,0.3c-0.6,0-1.2-0.4-1.5-1.1
		c-0.3-0.7-0.4-1.3-0.4-2c0-0.8,0.2-1.6,0.5-2.3c0.3-0.7,0.6-1.2,1-1.7c0.4-0.4,0.6-0.7,0.8-0.7c0.3,0,0.1,0.4-0.2,0.8
		c-0.8,1.1-1.1,2.1-1.1,3.2c0,0.6,0.1,0.7,0.2,1c0.3-0.1,0.6-0.2,0.8-0.2C531.3,76.4,531.6,76.6,531.9,76.9z"/>
	<path class="st1" d="M546.7,85.4c0.1-0.1,0.1,0,0.1,0.1c0,0.6-0.2,1.1-0.5,1.3l-4.2,2.4c-0.1,0-0.1,0-0.1-0.1c0-0.3,0.1-0.8,0.2-1
		c0.1-0.2,0.3-0.3,0.7-0.5L546.7,85.4z M546.7,87.5c0.1-0.1,0.1,0,0.1,0.1c0,0.6-0.2,1.1-0.5,1.3l-4.2,2.4c-0.1,0-0.1,0-0.1-0.1
		c0-0.3,0.1-0.8,0.2-1c0.1-0.2,0.3-0.3,0.7-0.5L546.7,87.5z"/>
	<path class="st1" d="M539.9,83.1c2.4,0,5.7-1.7,5.7-2.9c-0.2-2-0.3-3.2-0.5-4.9c-0.4-3.1-0.7-5.5-1.1-9.6c-0.1-0.5-0.1-0.7-0.1-1
		c0-0.2,0-0.4,0.1-0.6c0.2-0.5,0.8-1.8,1.1-1.8c0.1,0,0.1,0.1,0.2,0.3c0.1,0.9,0.1,1.5,0.2,3.2c0.2,1.8,0.4,4.3,0.7,6.8
		c0.3,2,1.4,3.2,2.7,3.2h0.3c0.7,0,1,0.4,1,1.1c0,0.8-0.3,1.2-1,1.2h-0.3c-0.9-0.1-1.8-0.6-2.2-1.5c0.1,1,0.1,1.7,0.1,2.2
		c0,2-0.4,2.7-0.9,3.5c-0.5,0.7-2.5,3-6.2,3c-3.9,0-5-2.1-5-4.1c0-1.4,0.5-3,1.1-4.2c0.3-0.6,0.6-0.8,0.8-0.8c0.1,0,0.1,0.1,0.1,0.2
		c0,0.2-0.1,0.4-0.3,0.8c-0.3,0.7-0.7,1.7-0.7,2.5C535.5,82.2,537.9,83.1,539.9,83.1z"/>
	<path class="st1" d="M559.1,75.8c0.6,0,1,0.4,1,1.1c0,0.8-0.3,1.2-1,1.2h-0.2c-1-0.1-1.9-0.3-2.7-0.8c-0.8-0.5-1.1-0.9-1.6-1.7
		c-1.2,1.1-2.1,1.7-2.9,2c-0.8,0.3-1.7,0.5-2.7,0.5c-0.8,0-1.1-0.4-1.1-1.2c0-0.7,0.4-1.1,1.1-1.1h0.2c1.8,0,3-0.3,4.5-1.2
		c-0.5-0.7-1.7-1-2.3-1.1c-0.1,0-0.1-0.2-0.1-0.4c0-0.5,0.2-1.4,0.5-1.6c1-0.7,2.1-1.1,3.1-1.1c1,0,1.9,0.4,2.6,1.1
		c0.2,0.2,0.2,0.4,0.2,0.7c0,0.7-0.4,1.7-1.3,2.3c0.8,0.8,1.7,1.2,2.6,1.2H559.1z"/>
	<path class="st1" d="M564.6,79.8c0.1-0.1,0.1,0,0.1,0.1c0,0.6-0.2,1.1-0.5,1.3l-4.1,2.3c-0.1,0-0.1,0-0.1-0.1c0-0.3,0.1-0.8,0.2-1
		c0.1-0.2,0.3-0.3,0.7-0.5L564.6,79.8z"/>
	<path class="st1" d="M564.6,72.9c0,1.2-0.4,2.9-0.9,3.7c-0.2,0.3-0.9,0.7-1.4,0.8c-1.4,0.4-2.5,0.6-3.3,0.6h-0.2
		c-0.6,0-1-0.4-1-1.2c0-0.7,0.3-1.1,1-1.1h0.2c1.3,0,2.8-0.2,3.7-0.5c0.8-0.3,0.9-0.3,0.9-1.1c0-0.5-0.1-0.8-0.3-1.3
		c-0.2,0.5-0.9,1-1.8,1c-1.1,0-1.8-0.7-1.8-2c0-1.8,1.4-4.1,2-4.1C563.5,67.9,564.6,71.3,564.6,72.9z M563.1,63
		c0.1,0.1,0.1,0.1,0,0.2c-0.2,0.3-1.1,1.2-1.4,1.7c-0.1,0.1-0.1,0.1-0.2,0c-0.5-0.3-1.5-1-1.7-1.4c-0.1-0.1-0.1-0.1,0-0.2
		c0.3-0.5,0.9-1.2,1.3-1.6c0.2-0.2,0.2-0.2,0.3-0.1C561.7,61.9,562.4,62.5,563.1,63z M562.1,70.4c-0.2-0.2-0.5-0.3-0.7-0.3
		c-0.2,0-0.4,0.1-0.5,0.4c-0.1,0.2-0.2,0.4-0.2,0.5c0,0.5,0.5,0.6,1,0.6c0.5,0,0.9-0.2,0.9-0.5C562.5,71.1,562.4,70.6,562.1,70.4z"
		/>
	<path class="st0" d="M579.9,74c0.3,0.9,0.5,1.8,0.5,3.1c0,4-1.1,6.5-4.2,7.7c-0.2,0.1-0.4,0.1-0.6,0.1c-1,0-2.6-0.5-4-1.1
		c-0.3-0.2-0.4-0.3-0.4-0.4c0-0.1,0.1-0.2,0.4-0.2c0.2,0,1.1,0.2,1.8,0.2c0.9,0,1.9-0.4,3.3-1.3c1.5-1,2.8-2.3,2.8-3.8
		c0-0.5-0.1-1-0.4-1.5c-0.3,0.7-0.8,1.1-1.5,1.1c-1.3,0-2.1-0.7-2.1-2.1c0-0.5,0.3-1.3,0.6-2.1c0.5-1,1.2-1.9,1.8-1.9
		C578.6,71.8,579.5,72.7,579.9,74z M577.4,74c-0.3,0-0.5,0.2-0.7,0.5c-0.1,0.1-0.2,0.4-0.2,0.5c0,0.4,0.6,0.6,1.1,0.6
		c0.4,0,0.7-0.2,0.8-0.4C578.4,74.5,577.7,74,577.4,74z"/>
	<path class="st0" d="M586,52c0.1-0.1,0.1,0,0.1,0.1c0,0.6-0.2,1.1-0.5,1.3l-4.1,2.3c-0.1,0-0.1,0-0.1-0.1c0-0.3,0.1-0.8,0.2-1
		c0.1-0.2,0.3-0.3,0.7-0.5L586,52z"/>
	<path class="st0" d="M585.8,59.7c-0.8,0.4-2.6,1.5-4,2.5c-0.1,0-0.1,0-0.1,0c0,0-0.1,0-0.1-0.1c0-0.1,0.1-0.3,0.2-0.7
		c0.1-0.2,0.5-0.6,0.8-0.9c0,0,0.1-0.1,0.1-0.1c0,0,0-0.1-0.1-0.1c-0.6-0.2-0.9-0.4-0.9-0.9c0-0.1,0-0.1,0-0.2c0-0.9,1-2.2,1.8-2.9
		c0.3-0.3,0.7-0.4,1-0.4c0.5,0,0.8,0.3,0.8,0.7c0,0.3-0.1,0.6-0.2,1c-0.1,0.2-0.2,0.4-0.3,0.4c-0.1,0-0.2-0.1-0.3-0.2
		c-0.1-0.1-0.3-0.3-0.6-0.3c-0.8,0-1.3,0.5-1.3,0.7c0,0.3,1.3,0.8,1.8,0.8c0.1,0,0.1,0,0.1,0c0.2-0.1,1.1-0.4,1.5-0.6
		c0.2-0.1,0.3-0.2,0.3-0.2c0,0,0.1,0,0.1,0.1c0,0.1-0.1,0.2-0.1,0.4C586.1,59.5,585.9,59.6,585.8,59.7z M584.3,78.1
		c-0.1,0-0.2-0.2-0.2-0.7c0-3-1.1-11.3-1.1-12.7c0-0.7,0.5-1.7,0.9-2.5c0.1-0.2,0.3-0.5,0.5-0.5c0.1,0,0.2,0.2,0.2,0.8
		c0.1,2.2,0.7,7.3,0.7,11c0,1.5-0.1,2.7-0.4,3.5C584.7,77.8,584.5,78.1,584.3,78.1z"/>
</g>
</svg>
