<?xml version="1.0" encoding="utf-8"?>
<!-- Generator: Adobe Illustrator 19.2.0, SVG Export Plug-In . SVG Version: 6.00 Build 0)  -->
<svg version="1.1" id="Layer_1" xmlns="http://www.w3.org/2000/svg" xmlns:xlink="http://www.w3.org/1999/xlink" x="0px" y="0px"
	 viewBox="0 0 292.5 49.8" style="enable-background:new 0 0 292.5 49.8;" xml:space="preserve">
<style type="text/css">
	.st0{fill:#002F3D;}
	.st1{fill:none;}
</style>
<g>
	<g>
		<path class="st0" d="M67,32.9c0.1,0,0.1,0,0.1,0c0,0.5-0.2,0.9-0.4,1l-3.2,1.8c-0.1,0-0.1,0-0.1,0c0-0.2,0.1-0.6,0.2-0.8
			c0.1-0.1,0.2-0.2,0.5-0.4L67,32.9z"/>
		<path class="st0" d="M66.8,27.7c-0.1,0.5-0.4,1.3-0.7,1.6c-0.1,0.1-0.1,0.1-0.1,0.1c0,0-0.1,0-0.1,0c-0.2-0.1-0.6-0.2-1.2-0.2
			c-1.3,0-2.8,0.3-2.9,0.8c0,0.6,0.7,3.1,0.7,6.3c0,0.3,0,0.6,0,0.9c-0.1,1.3-0.5,2.1-0.7,2.1c-0.1,0-0.1-0.1-0.1-0.5
			c0-0.2,0-0.5,0-0.8c0-1.8-0.4-3.9-0.7-5.9c-0.1-0.6-0.2-1-0.2-1.5c0-1.5,0.6-2,0.9-2.3c0-0.1,0-0.2,0-0.2c0-1.2,0.7-3.1,1.9-3.1
			c1.4,0,2.5,1.6,3.1,2.6C66.8,27.6,66.8,27.7,66.8,27.7z M63.2,27c-0.5,0-0.7,0.5-0.8,0.9c0.5-0.3,1.4-0.4,1.8-0.4
			C64,27.2,63.7,27,63.2,27z"/>
		<path class="st0" d="M67.8,36.2c-0.3-0.1-0.3-0.2-0.3-0.3c0-0.1,0.1-0.1,0.3-0.1c0.2,0,0.9,0.1,1.4,0.1c0.5,0,0.9-0.1,1.6-0.5
			c1.9-1,3.1-2.3,3.1-3.3c0-0.1,0-0.3-0.1-0.5h-0.6c-0.4,0-1.2-0.1-1.7-0.4c-0.5-0.3-0.8-0.7-0.8-1.2c0-0.5,0.2-1.1,0.5-1.7
			c0.4-1,1-1.7,1.5-1.7c0.6,0,1.1,0.4,1.4,0.9c0.4,0.6,0.5,1.4,0.6,2.2h0.8c0.5,0,0.7,0.3,0.7,0.8c0,0.6-0.2,1-0.7,1l-0.8,0
			c-0.1,2.8-1,4.5-3.3,5.4c-0.1,0-0.3,0.1-0.5,0.1C70.2,37,68.9,36.7,67.8,36.2z M72.7,28.6c-0.1-0.1-0.2-0.2-0.4-0.2
			c-0.4,0-0.6,0.4-0.6,0.6c0,0.2,0.2,0.4,0.6,0.5c0.3,0.1,0.7,0.2,0.9,0.2c0.1,0,0.2,0,0.2-0.1C73.4,29.5,73.1,28.9,72.7,28.6z"/>
		<path class="st0" d="M75.4,31.5h-0.1c-0.5,0-0.7-0.3-0.7-0.9c0-0.6,0.2-0.9,0.8-0.9h0.1c1.3,0,2.1-0.6,2.7-1.2
			c0.6-0.6,1.1-1.3,1.5-1.3c0.1,0,0.3,0.1,0.5,0.2c0.7,0.8,2.2,2.3,3,2.3h0.1c0.5,0,0.8,0.3,0.8,0.8c0,0.6-0.3,1-0.8,1h-0.1
			c-0.7,0-1.4-0.5-1.5-0.6c-0.1,0.5-0.8,1.2-1.1,1.2c-0.3,0-2.6-0.7-3.3-1.7C77,31.1,76.2,31.5,75.4,31.5z M80,29.2
			c-0.3-0.3-0.6-0.5-0.8-0.5c-0.2,0-0.2,0.1-0.4,0.2c-0.2,0.1-0.2,0.2-0.2,0.3c0,0.1,0.2,0.3,0.9,0.6c0.3,0.1,1,0.5,1.2,0.5
			c0.1,0,0.1,0,0.1-0.1C80.7,30,80.2,29.4,80,29.2z"/>
		<path class="st0" d="M87.8,17.6c0.5,0,1.3,0.8,1.3,1.6c0,0.3-0.1,0.6-0.2,0.9c-0.2,0.6-0.7,1-1.4,1c-0.6,0-1.1-0.5-1.1-1
			C86.5,19.3,87.4,17.6,87.8,17.6z M87.6,18.8c-0.2,0-0.6,0.5-0.6,0.8c0,0.2,0.3,0.4,0.6,0.4c0.4,0,0.9-0.2,0.9-0.4
			C88.5,19.5,88.1,18.8,87.6,18.8z"/>
		<path class="st0" d="M96.3,31.5c-1.1,0-2.3,0-3.5,0.2c-1,0.2-2.1,0.3-3.2,0.3c-0.8,0-1.5-0.1-2.3-0.2c-0.2,0.2-0.3,0.4-0.5,0.6
			c-0.2,0.2-0.3,0.4-0.4,0.4c-0.1,0-0.1-0.1-0.1-0.2c0-0.1,0-0.2,0.1-0.2c0.1-0.2,0.2-0.5,0.4-0.8c-0.8-0.3-1.5-0.8-1.8-1.6
			c-0.4,1-1.1,1.5-1.8,1.5h-0.2c-0.5,0-0.7-0.3-0.7-0.9c0-0.6,0.2-0.9,0.7-0.9h0.2c1,0,1.6-0.6,1.9-1.3c0.2-0.5,0.4-0.9,0.6-0.9
			c0.2,0,0.2,0.2,0.2,0.6c0,1,1,1.7,1.9,1.9c1.3-1.6,4.2-4.1,5.5-4.1c0.4,0,0.9,0.1,1.3,0.4c0.5,0.3,0.9,0.7,0.9,1.3
			c0,0.6-0.3,1.6-0.7,2.3c0.6-0.1,1-0.1,1.4-0.1h0.2c0.6,0,0.8,0.3,0.8,0.9c0,0.6-0.3,0.9-0.8,0.9H96.3z M89.5,24
			c0.1,0,0.1,0.1,0,0.2c-0.2,0.2-0.8,1-1.1,1.3c-0.1,0.1-0.1,0.1-0.2,0c-0.4-0.2-1.2-0.8-1.4-1.1c-0.1-0.1-0.1-0.1,0-0.2
			c0.3-0.4,0.7-0.9,1-1.2c0.2-0.2,0.2-0.2,0.2-0.1C88.3,23.2,88.9,23.7,89.5,24z M94.6,29c0-0.2-0.3-0.6-0.6-0.9
			c-0.5-0.3-1-0.5-1.3-0.5c-1.3,0-3.2,1.4-4.1,2.4c0.4,0.1,1,0.1,1.3,0.1C92,30.2,93.6,29.6,94.6,29C94.6,29.1,94.6,29.1,94.6,29z"
			/>
		<path class="st0" d="M102.1,22c0.1,0,0.1,0,0.1,0c0,0.5-0.2,0.9-0.4,1l-3.2,1.8c-0.1,0-0.1,0-0.1,0c0-0.2,0.1-0.6,0.2-0.8
			c0.1-0.1,0.2-0.2,0.5-0.4L102.1,22z"/>
		<path class="st0" d="M105.6,13.8c0.5,0,1.3,0.8,1.3,1.6c0,0.3-0.1,0.6-0.2,0.9c-0.2,0.6-0.7,1-1.4,1c-0.6,0-1.1-0.5-1.1-1
			C104.3,15.5,105.2,13.8,105.6,13.8z M105.5,15.1c-0.2,0-0.6,0.5-0.6,0.8c0,0.2,0.3,0.4,0.6,0.4c0.4,0,0.9-0.2,0.9-0.4
			C106.4,15.7,105.9,15.1,105.5,15.1z"/>
		<path class="st0" d="M107,27.6c0,1.3-0.3,2.4-0.8,3.2c-0.4,0.5-1.2,0.8-1.8,0.8c-0.6,0-1.2-0.2-1.7-0.6c-0.1,0.5-0.6,1-0.9,1.2
			c-0.1,0-0.1,0-0.2,0c-0.9-0.2-2.6-0.8-3.3-1.7c-0.4,0.8-1,1.1-1.9,1.1h-0.3c-0.5,0-0.7-0.3-0.7-0.9c0-0.6,0.2-0.9,0.7-0.9h0.2
			c1.6,0,2.5-0.9,3.2-1.7c0.4-0.5,0.7-0.8,1.1-0.8c0.2,0,0.4,0.1,0.6,0.3c0.7,0.8,2,2.2,3.2,2.2c0.4,0,1.3-0.1,1.6-0.5v0
			c0-1.4-0.6-4.8-0.8-7.5c-0.1-0.3-0.2-0.8-0.2-1.2c0-0.1,0-0.1,0-0.2c0,0,0-0.1,0-0.1c0-0.1,0.1-0.4,0.3-0.7s0.5-0.8,0.6-0.8
			c0.1,0,0.1,0.1,0.1,0.2c0.2,0.8,0.5,1.1,0.7,1.4c0,0.1,0.1,0.1,0.1,0.2s0,0.1,0,0.2c-0.1,0.2-0.3,0.7-0.4,0.9
			C106.6,24.2,107,26.3,107,27.6z M100.2,28.7c-0.2,0-0.4,0.2-0.5,0.3c-0.1,0.1-0.1,0.2,0,0.4c0.3,0.2,1.4,0.7,1.7,0.8
			c0.2,0.1,0.3,0.1,0.3,0.1c0.2,0,0.1-0.2,0-0.3C101.4,29.6,100.8,28.7,100.2,28.7z"/>
		<path class="st0" d="M110.1,31.5c-0.1,0-0.1-0.1-0.1-0.5c0-2.4-0.9-8.9-0.9-10c0-0.5,0.4-1.4,0.7-1.9c0.1-0.2,0.3-0.4,0.4-0.4
			c0.1,0,0.1,0.2,0.1,0.6c0.1,1.7,0.6,5.7,0.6,8.6c0,1.2-0.1,2.1-0.3,2.7C110.4,31.2,110.2,31.5,110.1,31.5z"/>
		<path class="st0" d="M121.8,33.4c0.1,0,0.1,0,0.1,0c0,0.5-0.2,0.9-0.4,1l-3.2,1.8c-0.1,0-0.1,0-0.1,0c0-0.2,0.1-0.6,0.2-0.8
			c0.1-0.1,0.2-0.2,0.5-0.4L121.8,33.4z"/>
		<path class="st0" d="M122.9,28.3c0,0.7-0.1,1.4-0.2,1.6c-0.3,1.2-1.6,1.6-3.9,1.6c-0.5,0-0.8-0.1-0.9-0.2
			c-0.2-0.2-0.2-0.5-0.2-0.9c0-0.3,0-0.5,0.1-0.7c0.1-0.3,0.1-0.4,0.2-0.4c0.1,0,0.1,0.1,0.2,0.1c0.2,0.2,0.7,0.2,1.3,0.2
			c1,0,2.1-0.2,2.6-0.5c0.1,0,0.1-0.1,0.1-0.1c0,0,0-0.1,0-0.1c-0.3-1.1-1.7-3.1-2.8-3.1c-0.2,0-0.3,0.2-0.4,0.2c0,0-0.1,0-0.1-0.1
			c0-0.4,0.3-1.4,0.6-1.7c0.1-0.1,0.2-0.1,0.4-0.1c0.3,0,0.6,0.1,0.8,0.2c0.5,0.2,1.2,0.9,1.7,1.9C122.7,26.9,122.9,27.6,122.9,28.3
			z"/>
		<path class="st0" d="M128.2,20.2c-0.6,0-0.9-0.6-0.9-1.2c0-0.2,0-0.4,0.1-0.6c0-0.2,0.2-0.6,0.4-0.6c0.1,0,0.2,0.2,0.2,0.5v0.2
			c0,0.3,0.2,0.4,0.5,0.4h0c0.4,0,0.6-0.3,0.7-0.8c0-0.2,0.2-0.8,0.5-0.8c0.1,0,0.2,0.1,0.2,0.4c0,0.2,0.1,0.3,0.3,0.3
			c0.4,0,0.6-0.3,0.7-0.7c0.1-0.5,0.2-0.7,0.3-0.7c0.2,0,0.2,0.5,0.2,0.8c0,0.2,0,0.5-0.1,0.8c-0.2,0.5-0.5,0.9-1.2,0.9
			c-0.2,0-0.3-0.1-0.4-0.1c-0.1,0-0.1,0-0.2,0.1C129.2,19.8,128.8,20.2,128.2,20.2z M131.3,14.8C131.3,14.8,131.3,14.9,131.3,14.8
			c0,0.4-0.1,0.7-0.3,1c-0.1,0.1-0.2,0.2-0.4,0.2l-3.1,1.5c0,0-0.1,0-0.1,0c0-0.1,0.1-0.4,0.2-0.6c0.1-0.3,0.2-0.3,0.2-0.4
			c0.1-0.1,0.1-0.1,0.3-0.2L131.3,14.8z"/>
		<path class="st0" d="M132.7,29.7h0.3c0.5,0,0.8,0.3,0.8,0.9c0,0.6-0.3,0.9-0.8,0.9h-0.2c-0.6,0-1.1-0.2-1.4-0.5
			c-0.4-0.3-0.6-0.8-0.9-1.5c-0.3,1.2-1.8,2.1-3.6,2.1c-0.5,0-1.1-0.1-1.7-0.4c-0.3-0.2-0.5-0.5-0.5-0.8c0-0.4,0.1-1,0.3-1.5
			c0.1-0.2,0.2-0.3,0.3-0.3c0.1,0,0.2,0.1,0.2,0.3c0.2,0.6,0.9,0.8,1.8,0.8c1.7,0,2.5-0.4,2.8-1c0-0.2,0-0.3,0-0.5
			c0-1-0.3-2.3-0.6-3.5c0-0.2,0-0.3,0-0.4c0-0.1,0-0.3,0.4-1.1c0.1-0.3,0.2-0.5,0.3-0.5c0.1,0,0.1,0.1,0.2,0.5
			c0.6,2.6,0.6,4.4,0.9,5.5c0.1,0.3,0.2,0.5,0.4,0.7C132,29.5,132.3,29.7,132.7,29.7z"/>
		<path class="st0" d="M140.7,14.6c0.1,0,0.1,0,0.1,0c0,0.5-0.2,0.9-0.4,1l-3.2,1.8c-0.1,0-0.1,0-0.1,0c0-0.2,0.1-0.6,0.2-0.8
			c0.1-0.1,0.2-0.2,0.5-0.4L140.7,14.6z"/>
		<path class="st0" d="M139.6,27.9c0.1,0,0.1,0.1,0.1,0.4c0,0.1,0,0.2,0,0.4c0,0.6,0.4,0.9,0.9,0.9c0.8,0,1.2-0.8,1.5-1.4
			c0-0.1,0.1-0.3,0.3-0.3c0.1,0,0.2,0.1,0.2,0.5c0.1,0.8,0.5,1.3,1.2,1.4h0.2c0.6,0,0.8,0.3,0.8,0.8c0,0.7-0.3,1-0.8,1h-0.2
			c-1,0-1.5-0.5-1.7-1.5c-0.3,0.7-0.9,1.5-1.8,1.5c-0.8,0-1.3-0.7-1.3-1.5c-0.3,0.9-1.2,1.5-2.1,1.5c-1,0-1.6-0.3-1.8-1.2
			c-0.1,0.3-0.3,0.6-0.6,0.9c-0.3,0.2-0.8,0.4-1.7,0.4h-0.2c-0.5,0-0.8-0.3-0.8-0.9c0-0.6,0.3-0.9,0.8-0.9h0.2
			c1.2,0,2.1-0.4,2.5-1.3c0-0.1,0.1-0.3,0.2-0.3c0.1,0,0.2,0.1,0.2,0.4c0,0.7,0.6,1,1.4,1c1,0,1.7-0.4,2.2-1.4
			C139.4,28.1,139.5,27.9,139.6,27.9z M140.2,23.5c0.1-0.1,0.2-0.2,0.3-0.1c0.4,0.4,0.8,0.8,1.2,1.1c0.1,0.1,0.1,0.1,0,0.2
			c-0.4,0.4-0.7,0.8-1.1,1.2c-0.1,0.1-0.1,0.1-0.2,0c-0.3-0.2-0.7-0.6-1.1-1c-0.2,0.3-0.7,0.8-0.9,0.9c-0.1,0.1-0.2,0.1-0.3,0
			c-0.4-0.2-0.9-0.7-1.2-1.1c-0.1-0.1-0.1-0.1,0-0.3c0.3-0.4,0.7-0.8,1.1-1.2c0.1-0.1,0.1-0.1,0.2,0c0.3,0.3,0.8,0.8,1.1,1
			C139.6,24.2,140.1,23.7,140.2,23.5z M140.5,21c0.1,0,0.1,0.1,0,0.2c-0.2,0.2-0.8,1-1.1,1.3c-0.1,0.1-0.1,0.1-0.2,0
			c-0.4-0.2-1.2-0.8-1.4-1.1c-0.1-0.1-0.1-0.1,0-0.2c0.3-0.4,0.7-0.9,1-1.2c0.2-0.2,0.2-0.2,0.2-0.1C139.4,20.1,140,20.6,140.5,21z"
			/>
		<path class="st0" d="M149.5,21c0,0.4-0.1,0.8-0.2,1.2c0.2,0.1,0.3,0.2,0.3,0.3c0,0.3-0.1,0.6-0.3,0.8c0,0.1-0.1,0.1-0.1,0.1
			l-0.4-0.2c-0.4,0.6-1,1.4-1.9,1.8c-0.3,0.2-0.7,0.3-1.2,0.3c-0.2,0-0.3,0-0.3-0.1c0-0.1,0.2-0.2,0.4-0.3c0.7-0.4,2-1.4,2.4-2
			c-0.4-0.2-0.8-0.6-0.8-1.1c0-0.3,0.2-0.7,0.5-1c0.3-0.4,0.7-0.6,1-0.6C149.3,20,149.5,20.6,149.5,21z M148.1,21.4
			C148.1,21.4,148.1,21.4,148.1,21.4c0,0.2,0.3,0.4,0.6,0.5c0.1-0.1,0.1-0.3,0.1-0.5c0-0.2-0.1-0.3-0.3-0.3
			C148.4,21,148.2,21.2,148.1,21.4z"/>
		<path class="st0" d="M153.2,13.8c0.5,0,1.3,0.8,1.3,1.6c0,0.3-0.1,0.6-0.2,0.9c-0.2,0.6-0.7,1-1.4,1c-0.6,0-1.1-0.5-1.1-1
			C151.9,15.5,152.8,13.8,153.2,13.8z M153,15.1c-0.2,0-0.6,0.5-0.6,0.8c0,0.2,0.3,0.4,0.6,0.4c0.4,0,0.9-0.2,0.9-0.4
			C153.9,15.7,153.5,15.1,153,15.1z"/>
		<path class="st0" d="M154.6,27.6c0,1.3-0.3,2.4-0.8,3.2c-0.4,0.5-1.2,0.8-1.8,0.8c-0.6,0-1.2-0.2-1.7-0.6c-0.1,0.5-0.6,1-0.9,1.2
			c-0.1,0-0.1,0-0.2,0c-0.9-0.2-2.6-0.8-3.3-1.7c-0.4,0.8-1,1.1-1.9,1.1h-0.3c-0.5,0-0.7-0.3-0.7-0.9c0-0.6,0.2-0.9,0.7-0.9h0.2
			c1.6,0,2.5-0.9,3.2-1.7c0.4-0.5,0.7-0.8,1.1-0.8c0.2,0,0.4,0.1,0.6,0.3c0.7,0.8,2,2.2,3.2,2.2c0.4,0,1.3-0.1,1.6-0.5v0
			c0-1.4-0.6-4.8-0.8-7.5c-0.1-0.3-0.2-0.8-0.2-1.2c0-0.1,0-0.1,0-0.2c0,0,0-0.1,0-0.1c0-0.1,0.1-0.4,0.3-0.7s0.5-0.8,0.6-0.8
			c0.1,0,0.1,0.1,0.1,0.2c0.2,0.8,0.5,1.1,0.7,1.4c0,0.1,0.1,0.1,0.1,0.2s0,0.1,0,0.2c-0.1,0.2-0.3,0.7-0.4,0.9
			C154.2,24.2,154.6,26.3,154.6,27.6z M147.8,28.7c-0.2,0-0.4,0.2-0.5,0.3c-0.1,0.1-0.1,0.2,0,0.4c0.3,0.2,1.4,0.7,1.7,0.8
			c0.2,0.1,0.3,0.1,0.3,0.1c0.2,0,0.1-0.2,0-0.3C149,29.6,148.3,28.7,147.8,28.7z"/>
		<path class="st0" d="M157.6,31.5c-0.1,0-0.1-0.1-0.1-0.5c0-2.4-0.9-8.9-0.9-10c0-0.5,0.4-1.4,0.7-1.9c0.1-0.2,0.3-0.4,0.4-0.4
			c0.1,0,0.1,0.2,0.1,0.6c0.1,1.7,0.6,5.7,0.6,8.6c0,1.2-0.1,2.1-0.3,2.7C157.9,31.2,157.8,31.5,157.6,31.5z"/>
		<path class="st0" d="M172.7,34.4c0.1,0,0.1,0,0.1,0c0,0.5-0.2,0.9-0.4,1l-3.2,1.8c-0.1,0-0.1,0-0.1,0c0-0.2,0.1-0.6,0.2-0.8
			c0.1-0.1,0.2-0.2,0.5-0.4L172.7,34.4z"/>
		<path class="st0" d="M165.9,32.1c-0.7-0.7-1.1-1.6-1.1-2.7c0-1.2,0.7-2.5,1.1-3.1c0.2-0.2,0.3-0.3,0.4-0.3c0.1,0,0.1,0.1,0.1,0.1
			c0,0.1-0.1,0.3-0.1,0.4c-0.3,0.7-0.7,1.4-0.7,2.2c0,0.7,0.5,1.3,1.1,1.7c0.6,0.4,1.3,0.6,2.1,0.6c1.9,0,4.5-0.8,5-2.1
			c0-0.1,0-0.2,0-0.3c0-0.8-0.3-1.8-0.7-2.5c-0.2-0.3-0.3-0.5-0.4-0.7c0,0,0-0.1,0-0.1c0-0.2,0.1-0.4,0.1-0.6
			c0.1-0.3,0.2-0.6,0.3-0.8c0.1-0.1,0.1-0.2,0.2-0.2c0,0,0.1,0,0.2,0.2c0.6,1.2,1,2.3,1,3.7c0,1.1-0.1,1.8-0.3,2.1
			c-0.3,0.7-0.5,1-0.9,1.4c-0.4,0.4-1.1,0.9-2,1.3s-1.9,0.6-3.2,0.6C167.4,32.9,166.6,32.7,165.9,32.1z M171.1,21.2
			c0.1,0,0.1,0.1,0,0.2c-0.2,0.2-0.8,1-1.1,1.3c-0.1,0.1-0.1,0.1-0.2,0c-0.4-0.2-1.2-0.8-1.4-1.1c-0.1-0.1-0.1-0.1,0-0.2
			c0.3-0.4,0.7-0.9,1-1.2c0.2-0.2,0.2-0.2,0.2-0.1C170,20.3,170.5,20.8,171.1,21.2z"/>
		<path class="st0" d="M173.8,36.2c-0.3-0.1-0.3-0.2-0.3-0.3c0-0.1,0.1-0.1,0.3-0.1c0.2,0,0.9,0.1,1.4,0.1c0.5,0,0.9-0.1,1.6-0.5
			c1.9-1,3.1-2.3,3.1-3.3c0-0.1,0-0.3-0.1-0.5h-0.6c-0.4,0-1.2-0.1-1.7-0.4c-0.5-0.3-0.8-0.7-0.8-1.2c0-0.5,0.2-1.1,0.5-1.7
			c0.4-1,1-1.7,1.5-1.7c0.6,0,1.1,0.4,1.4,0.9c0.4,0.6,0.5,1.4,0.6,2.2h0.8c0.5,0,0.7,0.3,0.7,0.8c0,0.6-0.2,1-0.7,1l-0.8,0
			c-0.1,2.8-1,4.5-3.3,5.4c-0.1,0-0.3,0.1-0.5,0.1C176.1,37,174.8,36.7,173.8,36.2z M178.7,28.6c-0.1-0.1-0.2-0.2-0.4-0.2
			c-0.4,0-0.6,0.4-0.6,0.6c0,0.2,0.2,0.4,0.6,0.5c0.3,0.1,0.7,0.2,0.9,0.2c0.1,0,0.2,0,0.2-0.1C179.3,29.5,179,28.9,178.7,28.6z"/>
		<path class="st0" d="M182.4,21.2c0,0-0.1,0-0.1,0c-0.2,0-0.5-0.1-0.6-0.3c-0.2-0.3-0.3-0.6-0.3-1c0-0.2,0-0.4,0.1-0.6
			c0.1-0.2,0.2-0.5,0.4-0.5c0.1,0,0.1,0.1,0.1,0.3c0,0.1,0,0.2,0,0.3c0,0.3,0.2,0.5,0.5,0.5h0c0.3,0,0.6-0.2,0.7-0.7
			c0.1-0.2,0.2-0.8,0.5-0.8c0.1,0,0.2,0.1,0.2,0.3v0.1c0,0.2,0.1,0.3,0.3,0.3c0,0,0.1,0,0.1,0c0.3-0.1,0.5-0.3,0.6-0.6
			c0.1-0.4,0.2-0.6,0.3-0.6c0.1,0,0.1,0.1,0.2,0.2c0,0.1,0,0.3,0,0.4c0,0.3-0.1,0.6-0.2,0.9c-0.2,0.5-0.5,0.8-1.1,0.8
			c-0.2,0-0.3-0.1-0.4-0.1c-0.1,0-0.1,0-0.1,0C183.2,20.9,182.8,21.2,182.4,21.2z M185,14.8c0,0.1,0,0.2,0,0.2c0,0.3-0.1,0.7-0.2,1
			c0.1,0.1,0.2,0.2,0.2,0.3c0,0.2-0.1,0.5-0.3,0.7l-0.4-0.2c-0.4,0.6-0.8,1.1-1,1.2c-0.3,0.2-0.7,0.3-1.3,0.3
			c-0.3,0-0.4-0.1-0.3-0.1c1.1-0.6,1.8-1.2,2.1-1.7c-0.3-0.2-0.7-0.5-0.7-0.9c0-0.2,0.1-0.5,0.4-0.9c0.3-0.4,0.5-0.5,0.8-0.5
			C184.8,14.2,184.9,14.5,185,14.8z M183.8,15.4c0.1,0.1,0.2,0.3,0.5,0.4c0.1-0.1,0.1-0.3,0.1-0.4c0-0.2-0.1-0.3-0.3-0.3
			C184,15,183.9,15.1,183.8,15.4z"/>
		<path class="st0" d="M185,28.6c0,0.5,0.5,1,1.1,1.1c0.2,0,0.3,0,0.4,0h0.1c0.7,0,0.7,0.5,0.7,0.8c0,0.2,0,1-0.7,1h-0.1
			c-0.1,0-0.2,0-0.5,0c-1.2-0.1-1.6-1.2-1.7-1.3c-0.2,0.5-1.2,1.3-2.9,1.3h-0.1c-0.5,0-0.8-0.4-0.8-0.9c0-0.5,0.2-0.9,0.8-0.9h0.5
			c0.8,0,1.9-0.1,2.6-1.3c0.2-0.4,0.3-0.4,0.4-0.4C184.9,28,185,28.2,185,28.6z M185.6,24c0.1,0,0.1,0.1,0,0.2
			c-0.2,0.2-0.8,1-1.1,1.3c-0.1,0.1-0.1,0.1-0.2,0c-0.4-0.2-1.2-0.8-1.4-1.1c-0.1-0.1-0.1-0.1,0-0.2c0.3-0.4,0.7-0.9,1-1.2
			c0.2-0.2,0.2-0.2,0.2-0.1C184.5,23.1,185.1,23.7,185.6,24z"/>
		<path class="st0" d="M188.4,30.7c-0.4,0.5-0.9,0.8-1.8,0.8h-0.2c-0.5,0-0.8-0.3-0.8-1c0-0.6,0.3-0.8,0.8-0.8h0.2
			c0.4,0,0.8-0.1,1.1-0.2c0.3-0.1,0.5-0.2,0.5-0.3c0-1.4-0.5-4.2-0.7-7c0-0.3-0.2-1.3-0.3-1.7c0-0.1,0-0.1,0-0.2
			c0-0.2,0.3-0.7,0.4-1c0.2-0.4,0.4-0.7,0.6-0.7c0.1,0,0.1,0.1,0.1,0.2c0.2,0.8,0.5,1.2,0.6,1.4c0,0.1,0.1,0.2,0.1,0.2
			c0,0,0,0.1,0,0.1c-0.1,0.2-0.3,0.6-0.4,0.8c0.1,2.7,0.6,4.9,0.6,6.1C189.2,28.8,188.9,29.9,188.4,30.7z"/>
		<path class="st0" d="M192.8,31.5c-0.1,0-0.1-0.1-0.1-0.5c0-2.4-0.9-8.9-0.9-10c0-0.5,0.4-1.4,0.7-1.9c0.1-0.2,0.3-0.4,0.4-0.4
			c0.1,0,0.1,0.2,0.1,0.6c0.1,1.7,0.6,5.7,0.6,8.6c0,1.2-0.1,2.1-0.3,2.7C193.1,31.2,192.9,31.5,192.8,31.5z"/>
		<path class="st0" d="M210.5,13.8c0,0.4-0.1,0.8-0.2,1.2c0.2,0.1,0.3,0.2,0.3,0.3c0,0.3-0.1,0.6-0.3,0.8c0,0.1-0.1,0.1-0.1,0.1
			l-0.4-0.2c-0.4,0.6-1,1.4-1.9,1.8c-0.3,0.2-0.7,0.3-1.2,0.3c-0.2,0-0.3,0-0.3-0.1c0-0.1,0.2-0.2,0.4-0.3c0.7-0.4,2-1.4,2.4-2
			c-0.4-0.2-0.8-0.6-0.8-1.1c0-0.3,0.2-0.7,0.5-1c0.3-0.4,0.7-0.6,1-0.6C210.3,12.8,210.4,13.4,210.5,13.8z M209,14.2
			C209,14.2,209,14.2,209,14.2c0,0.2,0.3,0.4,0.6,0.5c0.1-0.1,0.1-0.3,0.1-0.5c0-0.2-0.1-0.3-0.3-0.3C209.3,13.8,209.1,14,209,14.2z
			"/>
		<path class="st0" d="M214.9,27c0,0.4-0.2,1.5-0.5,2.2c-0.2,0.5-0.3,0.7-0.9,1c-1.3,0.6-4.5,1.5-7.7,1.5c-4.2,0-5.8-1.4-5.8-3.3
			c0-0.7,0.3-1.9,0.8-2.6c0.2-0.2,0.3-0.5,0.5-0.5c0,0,0.1,0,0.1,0.1c0,0.1-0.1,0.2-0.1,0.4c-0.2,0.6-0.4,1.1-0.4,1.6
			c0,0.8,1.1,2.5,5.1,2.5c2.9,0,6-0.7,7.4-1.1c0.7-0.3,0.7-0.4,0.7-0.9c0-0.4-0.1-0.7-0.2-1c-0.2,0.4-0.7,0.8-1.4,0.8
			c-0.9,0-1.4-0.5-1.4-1.5c0-1.4,1.1-3.3,1.6-3.3C213.7,22.8,214.9,24.9,214.9,27z M210.9,20.6c0.1,0,0.1,0.1,0,0.2
			c-0.2,0.2-0.8,1-1.1,1.3c-0.1,0.1-0.1,0.1-0.2,0c-0.4-0.2-1.2-0.8-1.4-1.1c-0.1-0.1-0.1-0.1,0-0.2c0.3-0.4,0.7-0.9,1-1.2
			c0.2-0.2,0.2-0.2,0.2-0.1C209.8,19.8,210.4,20.3,210.9,20.6z M212.3,24.6c-0.2,0-0.5,0.3-0.6,0.6c0,0,0,0.1,0,0.1c0,0,0,0.1,0,0.1
			c0.1,0.2,0.4,0.4,0.8,0.4c0.3,0,0.6-0.1,0.7-0.3c0,0,0,0,0-0.1C213.3,25.3,212.9,24.6,212.3,24.6z"/>
		<path class="st0" d="M218.7,22.6c0.5,0,1.3,0.8,1.3,1.6c0,0.3-0.1,0.6-0.2,0.9c-0.2,0.6-0.7,1-1.4,1c-0.6,0-1.1-0.5-1.1-1
			C217.4,24.3,218.3,22.6,218.7,22.6z M218.5,23.9c-0.2,0-0.6,0.5-0.6,0.8c0,0.2,0.3,0.4,0.6,0.4c0.4,0,0.9-0.2,0.9-0.4
			C219.5,24.5,219,23.9,218.5,23.9z"/>
		<path class="st0" d="M221.5,29.7c0.6,0,0.9,0.3,0.9,0.9c0,0.6-0.3,0.9-0.9,0.9h-0.2c-0.5,0-0.8,0-1-0.1c0,0.1,0,0.2,0,0.3
			c0,0.6-0.1,1.2-0.3,1.6c-0.4,1-1,2.6-2.8,3.4c-0.3,0.2-0.6,0.2-1,0.2c-0.7,0-1.8-0.4-2.8-0.8c-0.3-0.1-0.3-0.2-0.3-0.3
			c0-0.1,0.1-0.2,0.3-0.2c0.2,0,0.6,0.1,1,0.1c2.5,0,4.9-2.2,5.2-3.9c0-0.4-0.8-1.3-1-1.5c0,0,0-0.1,0-0.2c0-0.4,0.3-1.2,0.5-1.5
			c0.1-0.1,0.2-0.2,0.2-0.2c0.1,0,0.2,0.1,0.5,0.5c0.3,0.5,0.7,0.7,1.5,0.7H221.5z"/>
		<path class="st0" d="M227.2,20.4c0.1,0,0.1,0,0.1,0c0,0.5-0.2,0.9-0.4,1l-3.2,1.8c-0.1,0-0.1,0-0.1,0c0-0.2,0.1-0.6,0.2-0.8
			c0.1-0.1,0.2-0.2,0.5-0.4L227.2,20.4z"/>
		<path class="st0" d="M223.7,27.3c-0.2,0-0.4,0-0.5,0.1c-0.2,0.1-0.5,0.2-0.6,0.2c-0.1,0-0.2-0.1-0.2-0.2c0-0.3,0.5-1,0.9-1.4
			c0.4-0.3,0.8-0.5,1.1-0.5c0.1,0,0.3,0,0.4,0c1.4,0.3,3.3,1.1,4.7,1.4c1,0.2,2,0.3,2.7,0.3c0.1,0,0.3,0,0.4,0c0,0,0.1,0,0.1,0.1
			c0,0.3-0.5,1.2-0.9,1.5c-0.1,0.1-0.2,0.1-0.4,0.1c-0.4,0-1.3-0.1-1.5-0.1c-0.7,0-1.3,0.1-1.8,0.2c-0.3,0.1-0.9,0.4-1.8,0.8
			c-1.3,0.7-2.2,1.1-2.8,1.3c-0.6,0.2-1.2,0.4-2,0.4h-0.2c-0.6,0-0.9-0.3-0.9-0.9c0-0.6,0.3-0.8,0.9-0.8h0.2c1.1,0,2-0.1,2.7-0.3
			c0.7-0.2,1.8-0.6,3.1-1.1C225.8,27.8,224.5,27.3,223.7,27.3z"/>
	</g>
	<rect class="st1" width="292.5" height="49.8"/>
</g>
</svg>
