<?xml version="1.0" encoding="utf-8"?>
<!-- Generator: Adobe Illustrator 19.2.0, SVG Export Plug-In . SVG Version: 6.00 Build 0)  -->
<svg version="1.1" id="Layer_1" xmlns="http://www.w3.org/2000/svg" xmlns:xlink="http://www.w3.org/1999/xlink" x="0px" y="0px"
	 viewBox="0 0 174.8 63.4" style="enable-background:new 0 0 174.8 63.4;" xml:space="preserve">
<style type="text/css">
	.st0{opacity:0.75;}
	.st1{fill:#FFFFFF;}
	.st2{fill:#BF8138;}
	.st3{fill:#F2C671;fill-opacity:0.5;}
	.st4{opacity:0.5;}
	.st5{fill:#F2C671;}
</style>
<g>
	<g>
		<g>
			<g class="st0">
				<path d="M56.8,28.7c0.3-0.3,0.4-0.4,0.6-0.2c0.9,0.9,1.8,1.9,2.8,2.5c0.3,0.2,0.3,0.3,0,0.6c-0.8,0.9-1.6,1.8-2.4,2.7
					c-0.2,0.2-0.3,0.2-0.5,0c-0.7-0.5-1.7-1.3-2.6-2.2c-0.5,0.6-1.6,1.8-2,2.1c-0.2,0.1-0.3,0.3-0.7,0.1c-0.9-0.6-2.1-1.5-2.8-2.5
					c-0.2-0.2-0.2-0.3,0-0.6c0.7-0.8,1.6-1.9,2.5-2.7c0.2-0.2,0.3-0.2,0.6,0.1c0.7,0.7,1.9,1.8,2.6,2.2
					C55.4,30.3,56.3,29.1,56.8,28.7z"/>
				<path d="M70.1,15.2c0.2-0.1,0.2-0.1,0.2,0.1c0,1-0.4,2-0.9,2.3l-7.4,4.1c-0.1,0.1-0.2,0-0.2-0.1c0-0.5,0.2-1.4,0.4-1.8
					c0.2-0.3,0.5-0.6,1.2-1L70.1,15.2z"/>
				<path d="M65.6,47.3c0.5-0.3,0.8-0.7,0.9-1.1v-0.6c0-1.6-0.7-12.7-1.1-17.9c0-0.3,0-0.4,0.1-0.6c0.2-0.5,0.7-1.9,1.5-3.3
					c0.2-0.3,0.3-0.4,0.4-0.4s0.3,0.2,0.3,0.5c0.2,1.1,0.4,4.3,0.5,8.2l0.2,4.9c0.2,5.4,0.7,8.1,1.3,9.3c0.7,1.3,1.5,1.9,2.5,1.9
					h0.6c1.1,0,1.6,0.7,1.6,2c0,1.4-0.5,2.1-1.6,2.1h-0.6c-1.2,0-2.2-0.3-3-1c-0.8-0.7-1.4-1.6-2.1-3.3c-0.2,1.1-0.7,2.1-1.5,3
					C65,51.6,64,52,62.9,52c-1.2,0-2.3-0.4-3.1-1.4c-0.8-0.9-1.4-2.5-2-5.1c-0.9,2.2-2.1,3.3-4,3.3c-0.2,0-0.2,0-0.6,0
					c-1.2-0.1-2-0.2-2.5-0.3c-0.4-0.1-0.7-0.5-0.7-1c0-0.2,0-0.4,0.1-0.7c0.1-0.6,0.3-1.2,0.5-1.8c0.3-0.9,0.9-1.5,1.8-2.1
					c1.5-0.9,3.3-1.8,4.7-2.2c0-0.5,0.2-1.2,0.6-2.2c0.3-1,0.6-1.4,0.8-1.4c0.2,0,0.3,0.2,0.4,0.6c0.1,1.1,0.4,3.3,0.9,6.6
					c0.3,1.1,0.7,2,1.2,2.5c0.5,0.6,1.4,1,2.5,1C64.2,47.8,64.9,47.6,65.6,47.3z M54.9,44.8c1.2,0,2-0.3,2.5-0.8L57.1,42
					c-2.1,1-3.5,1.9-4.2,2.5C53.5,44.7,54.1,44.8,54.9,44.8z"/>
				<path d="M82.6,57c0.2-0.1,0.2-0.1,0.2,0.1c0,1-0.4,2-0.9,2.3l-7.4,4.1c-0.1,0.1-0.2,0-0.2-0.1c0-0.5,0.2-1.4,0.4-1.8
					c0.2-0.3,0.5-0.6,1.2-1L82.6,57z"/>
				<path d="M80.9,45.5c0,1,1.1,2.2,2.4,2.4c0.3,0,0.6,0,0.9,0h0.2c1.5,0,1.5,1.2,1.5,1.8c0,0.5,0,2.2-1.5,2.2h-0.3
					c-0.3,0-0.5,0-1,0c-2.7-0.3-3.7-2.7-3.9-3c-0.4,1.1-2.6,3-6.6,3h-0.2c-1.1,0-1.7-1-1.7-2c0-1,0.6-2.1,1.7-2.1h1.2
					c1.8,0,4.3-0.3,5.8-2.9c0.5-0.8,0.7-0.9,0.9-0.9C80.7,44.2,80.9,44.6,80.9,45.5z M80.5,33.9c0.3-0.3,0.4-0.4,0.6-0.2
					c0.9,0.9,1.8,1.9,2.8,2.5c0.3,0.2,0.3,0.3,0,0.6c-0.8,0.9-1.6,1.8-2.4,2.7c-0.2,0.2-0.3,0.2-0.5,0c-0.7-0.5-1.7-1.3-2.6-2.2
					c-0.5,0.6-1.6,1.8-2,2.1c-0.2,0.1-0.3,0.3-0.7,0.1c-0.9-0.6-2.1-1.5-2.8-2.5c-0.2-0.2-0.2-0.3,0-0.6c0.7-0.8,1.6-1.9,2.5-2.7
					c0.2-0.2,0.3-0.2,0.6,0.1c0.7,0.7,1.9,1.8,2.6,2.2C79.1,35.5,80,34.3,80.5,33.9z M81.1,28c0.2,0.1,0.1,0.2,0,0.3
					c-0.4,0.6-1.9,2.2-2.5,3c-0.1,0.2-0.2,0.2-0.4,0c-0.8-0.5-2.6-1.9-3.1-2.6c-0.1-0.2-0.1-0.2,0-0.4c0.6-0.9,1.6-2.1,2.3-2.8
					c0.3-0.3,0.4-0.4,0.5-0.2C78.6,26.1,79.9,27.2,81.1,28z"/>
				<path d="M93.5,27c1.2,0,3,1.7,3,3.7c0,0.7-0.1,1.4-0.3,2.1c-0.5,1.4-1.7,2.2-3.2,2.2c-1.4,0-2.4-1.1-2.4-2.4
					C90.5,30.9,92.5,27,93.5,27z M93.1,29.9c-0.5,0-1.3,1.1-1.3,1.7c0,0.5,0.7,1,1.4,1c0.9,0,2-0.5,2-0.9
					C95.2,31.4,94.1,29.9,93.1,29.9z"/>
				<path d="M84.6,52h-0.2c-1.2,0-1.8-0.7-1.8-2.1c0.1-1.3,0.7-2,1.8-2h0.1c2.2,0,4-0.9,5.2-2.6l2.2-3.5c1.3-2,3-2.7,3.9-2.7
					c3,0,4.2,5.2,4.2,7.3c0,1.9-1.9,4.3-2.9,4.3c-1.3,0-5-1.7-6.8-3.4C88.7,50.6,86.8,52,84.6,52z M94,42.8c-0.3,0-0.6,0.1-0.9,0.6
					c-0.2,0.2-0.3,0.5-0.5,0.9c0.8,0.5,3.4,1.9,4.4,2.5C97,45.2,95.2,42.8,94,42.8z"/>
				<path d="M105.8,3.1C106,3,106,3,106,3.2c0,1-0.4,2-0.9,2.3l-7.4,4.1c-0.1,0.1-0.2,0-0.2-0.1c0-0.5,0.2-1.4,0.4-1.8
					c0.2-0.3,0.5-0.6,1.2-1L105.8,3.1z"/>
				<path d="M105.6,17.6c-0.3,0.4-0.4,0.5-0.6,0.6c-1.5,0.8-4.7,2.7-7.2,4.5c-0.2,0.2-0.3,0.1-0.3-0.2c0-0.2,0.2-0.7,0.3-1
					c0.1-0.3,0.9-1.1,1.5-1.6c0.2-0.2,0.2-0.2-0.1-0.3c-1.2-0.4-1.7-1-1.7-1.9c0-1.6,1.6-3.9,3.1-5.1c0.5-0.4,1.2-0.9,2-0.9
					c1,0,1.4,0.4,1.5,1.2c0,0.5-0.1,1.1-0.4,1.8c-0.3,0.8-0.5,0.8-1,0.3c-0.3-0.3-0.7-0.4-1-0.4c-1.4,0-2.3,0.8-2.3,1.3
					c0,0.6,2.2,1.5,3.2,1.5c0.1,0,0.2,0,0.5-0.1c0.8-0.2,2.2-0.9,2.5-1.1c0.6-0.4,0.8-0.3,0.5,0.4C106.1,16.6,105.8,17.2,105.6,17.6
					z"/>
				<path d="M119.5,26.3c0.1,0.3,0.2,0.4,0.2,0.5c0,0.1,0,0.2-0.1,0.4c-0.3,0.8-1,1.7-1.5,2.4c-0.3,4.3-0.9,7.7-2.8,12.6
					c0.6,1.4,0.9,3.4,0.9,5.2c0,1.2-0.2,2.4-0.5,3.3c-0.3,0.7-4.8,1.5-7.8,1.5c-0.8,0-1.5,0-2-0.2c-0.2,0-0.3-0.5-0.3-1.2
					c0-1.1,0.2-2.7,0.5-3.2c0-0.1,0.1-0.1,0.2-0.1c0.2,0,0.2,0,0.4,0c2.5,0,5-2.3,6.6-5.2c-2-4-6.3-9.3-10-11.8
					c-0.1,0.1-0.8,1-1.3,1c-0.6,0-3.9-3.2-4-3.9c-0.1-0.4-0.1-0.8-0.1-1.1c0-1,0.2-2,0.4-2.5c0.2-0.5,0.5-0.7,0.8-0.7
					c0.4,0,0.9,0.3,1.4,0.7c2.8,2,5.8,4.2,8.1,7.2c1.8,2.3,4.1,5.4,5.8,9.2c1.1-2.3,1.3-3.9,1.5-6.9c0.1-1.7,0.2-3,0.2-3.9
					c0-2.1-0.2-2.8-0.2-3.3c0-0.3,0.1-0.7,0.4-1.3c0.7-1.2,1.2-2.1,1.5-2.1c0.1,0,0.2,0.1,0.3,0.4C118.5,24.1,118.9,25.2,119.5,26.3
					z M114,44c-1.4,2-1.6,2.4-3,3.7c1.3,0,2.7-0.1,3.8-0.6C114.7,46.4,114.7,45.3,114,44z"/>
				<path d="M126.5,52.1c-0.2,0-0.3-0.3-0.3-1.2c0-5.4-2-20.3-2-22.7c0-1.2,0.8-3.1,1.5-4.4c0.2-0.4,0.6-0.9,0.8-0.9
					c0.2,0,0.3,0.3,0.3,1.4c0.2,3.9,1.3,13,1.3,19.6c0,2.6-0.2,4.9-0.6,6.2C127.2,51.4,126.8,52.1,126.5,52.1z"/>
			</g>
			<g>
				<g>
					<path class="st1" d="M53.8,25.7c0.3-0.3,0.4-0.4,0.6-0.2c0.9,0.9,1.8,1.9,2.8,2.5c0.3,0.2,0.3,0.3,0,0.6
						c-0.8,0.9-1.6,1.8-2.4,2.7c-0.2,0.2-0.3,0.2-0.5,0c-0.7-0.5-1.7-1.3-2.6-2.2c-0.5,0.6-1.6,1.8-2,2.1c-0.2,0.1-0.3,0.3-0.7,0.1
						c-0.9-0.6-2.1-1.5-2.8-2.5c-0.2-0.2-0.2-0.3,0-0.6c0.7-0.8,1.6-1.9,2.5-2.7c0.2-0.2,0.3-0.2,0.6,0.1c0.7,0.7,1.9,1.8,2.6,2.2
						C52.4,27.3,53.3,26.1,53.8,25.7z"/>
					<path class="st1" d="M67.1,12.2c0.2-0.1,0.2-0.1,0.2,0.1c0,1-0.4,2-0.9,2.3l-7.4,4.1c-0.1,0.1-0.2,0-0.2-0.1
						c0-0.5,0.2-1.4,0.4-1.8c0.2-0.3,0.5-0.6,1.2-1L67.1,12.2z"/>
					<path class="st1" d="M62.6,44.3c0.5-0.3,0.8-0.7,0.9-1.1v-0.6c0-1.6-0.7-12.7-1.1-17.9c0-0.3,0-0.4,0.1-0.6
						c0.2-0.5,0.7-1.9,1.5-3.3c0.2-0.3,0.3-0.4,0.4-0.4s0.3,0.2,0.3,0.5c0.2,1.1,0.4,4.3,0.5,8.2l0.2,4.9c0.2,5.4,0.7,8.1,1.3,9.3
						c0.7,1.3,1.5,1.9,2.5,1.9h0.6c1.1,0,1.6,0.7,1.6,2c0,1.4-0.5,2.1-1.6,2.1h-0.6c-1.2,0-2.2-0.3-3-1c-0.8-0.7-1.4-1.6-2.1-3.3
						c-0.2,1.1-0.7,2.1-1.5,3C62,48.6,61,49,59.9,49c-1.2,0-2.3-0.4-3.1-1.4c-0.8-0.9-1.4-2.5-2-5.1c-0.9,2.2-2.1,3.3-4,3.3
						c-0.2,0-0.2,0-0.6,0c-1.2-0.1-2-0.2-2.5-0.3c-0.4-0.1-0.7-0.5-0.7-1c0-0.2,0-0.4,0.1-0.7c0.1-0.6,0.3-1.2,0.5-1.8
						c0.3-0.9,0.9-1.5,1.8-2.1c1.5-0.9,3.3-1.8,4.7-2.2c0-0.5,0.2-1.2,0.6-2.2c0.3-1,0.6-1.4,0.8-1.4c0.2,0,0.3,0.2,0.4,0.6
						c0.1,1.1,0.4,3.3,0.9,6.6c0.3,1.1,0.7,2,1.2,2.5c0.5,0.6,1.4,1,2.5,1C61.2,44.8,61.9,44.6,62.6,44.3z M51.9,41.8
						c1.2,0,2-0.3,2.5-0.8L54.1,39c-2.1,1-3.5,1.9-4.2,2.5C50.5,41.7,51.1,41.8,51.9,41.8z"/>
					<path class="st1" d="M79.6,54c0.2-0.1,0.2-0.1,0.2,0.1c0,1-0.4,2-0.9,2.3l-7.4,4.1c-0.1,0.1-0.2,0-0.2-0.1
						c0-0.5,0.2-1.4,0.4-1.8c0.2-0.3,0.5-0.6,1.2-1L79.6,54z"/>
					<path class="st1" d="M77.9,42.5c0,1,1.1,2.2,2.4,2.4c0.3,0,0.6,0,0.9,0h0.2c1.5,0,1.5,1.2,1.5,1.8c0,0.5,0,2.2-1.5,2.2h-0.3
						c-0.3,0-0.5,0-1,0c-2.7-0.3-3.7-2.7-3.9-3c-0.4,1.1-2.6,3-6.6,3h-0.2c-1.1,0-1.7-1-1.7-2c0-1,0.6-2.1,1.7-2.1h1.2
						c1.8,0,4.3-0.3,5.8-2.9c0.5-0.8,0.7-0.9,0.9-0.9C77.7,41.2,77.9,41.6,77.9,42.5z M77.5,30.9c0.3-0.3,0.4-0.4,0.6-0.2
						c0.9,0.9,1.8,1.9,2.8,2.5c0.3,0.2,0.3,0.3,0,0.6c-0.8,0.9-1.6,1.8-2.4,2.7c-0.2,0.2-0.3,0.2-0.5,0c-0.7-0.5-1.7-1.3-2.6-2.2
						c-0.5,0.6-1.6,1.8-2,2.1c-0.2,0.1-0.3,0.3-0.7,0.1c-0.9-0.6-2.1-1.5-2.8-2.5c-0.2-0.2-0.2-0.3,0-0.6c0.7-0.8,1.6-1.9,2.5-2.7
						c0.2-0.2,0.3-0.2,0.6,0.1c0.7,0.7,1.9,1.8,2.6,2.2C76.1,32.5,77,31.3,77.5,30.9z M78.1,25c0.2,0.1,0.1,0.2,0,0.3
						c-0.4,0.6-1.9,2.2-2.5,3c-0.1,0.2-0.2,0.2-0.4,0c-0.8-0.5-2.6-1.9-3.1-2.6c-0.1-0.2-0.1-0.2,0-0.4c0.6-0.9,1.6-2.1,2.3-2.8
						c0.3-0.3,0.4-0.4,0.5-0.2C75.6,23.1,76.9,24.2,78.1,25z"/>
					<path class="st1" d="M90.5,24c1.2,0,3,1.7,3,3.7c0,0.7-0.1,1.4-0.3,2.1c-0.5,1.4-1.7,2.2-3.2,2.2c-1.4,0-2.4-1.1-2.4-2.4
						C87.5,27.9,89.5,24,90.5,24z M90.1,26.9c-0.5,0-1.3,1.1-1.3,1.7c0,0.5,0.7,1,1.4,1c0.9,0,2-0.5,2-0.9
						C92.2,28.4,91.1,26.9,90.1,26.9z"/>
					<path class="st1" d="M81.6,49h-0.2c-1.2,0-1.8-0.7-1.8-2.1c0.1-1.3,0.7-2,1.8-2h0.1c2.2,0,4-0.9,5.2-2.6l2.2-3.5
						c1.3-2,3-2.7,3.9-2.7c3,0,4.2,5.2,4.2,7.3c0,1.9-1.9,4.3-2.9,4.3c-1.3,0-5-1.7-6.8-3.4C85.7,47.6,83.8,49,81.6,49z M91,39.8
						c-0.3,0-0.6,0.1-0.9,0.6c-0.2,0.2-0.3,0.5-0.5,0.9c0.8,0.5,3.4,1.9,4.4,2.5C94,42.2,92.2,39.8,91,39.8z"/>
					<path class="st1" d="M102.8,0.1C103,0,103,0,103,0.2c0,1-0.4,2-0.9,2.3l-7.4,4.1c-0.1,0.1-0.2,0-0.2-0.1c0-0.5,0.2-1.4,0.4-1.8
						c0.2-0.3,0.5-0.6,1.2-1L102.8,0.1z"/>
					<path class="st1" d="M102.6,14.6c-0.3,0.4-0.4,0.5-0.6,0.6c-1.5,0.8-4.7,2.7-7.2,4.5c-0.2,0.2-0.3,0.1-0.3-0.2
						c0-0.2,0.2-0.7,0.3-1c0.1-0.3,0.9-1.1,1.5-1.6c0.2-0.2,0.2-0.2-0.1-0.3c-1.2-0.4-1.7-1-1.7-1.9c0-1.6,1.6-3.9,3.1-5.1
						c0.5-0.4,1.2-0.9,2-0.9c1,0,1.4,0.4,1.5,1.2c0,0.5-0.1,1.1-0.4,1.8c-0.3,0.8-0.5,0.8-1,0.3c-0.3-0.3-0.7-0.4-1-0.4
						c-1.4,0-2.3,0.8-2.3,1.3c0,0.6,2.2,1.5,3.2,1.5c0.1,0,0.2,0,0.5-0.1c0.8-0.2,2.2-0.9,2.5-1.1c0.6-0.4,0.8-0.3,0.5,0.4
						C103.1,13.6,102.8,14.2,102.6,14.6z"/>
					<path class="st1" d="M116.5,23.3c0.1,0.3,0.2,0.4,0.2,0.5c0,0.1,0,0.2-0.1,0.4c-0.3,0.8-1,1.7-1.5,2.4
						c-0.3,4.3-0.9,7.7-2.8,12.6c0.6,1.4,0.9,3.4,0.9,5.2c0,1.2-0.2,2.4-0.5,3.3c-0.3,0.7-4.8,1.5-7.8,1.5c-0.8,0-1.5,0-2-0.2
						c-0.2,0-0.3-0.5-0.3-1.2c0-1.1,0.2-2.7,0.5-3.2c0-0.1,0.1-0.1,0.2-0.1c0.2,0,0.2,0,0.4,0c2.5,0,5-2.3,6.6-5.2
						c-2-4-6.3-9.3-10-11.8c-0.1,0.1-0.8,1-1.3,1c-0.6,0-3.9-3.2-4-3.9c-0.1-0.4-0.1-0.8-0.1-1.1c0-1,0.2-2,0.4-2.5
						c0.2-0.5,0.5-0.7,0.8-0.7c0.4,0,0.9,0.3,1.4,0.7c2.8,2,5.8,4.2,8.1,7.2c1.8,2.3,4.1,5.4,5.8,9.2c1.1-2.3,1.3-3.9,1.5-6.9
						c0.1-1.7,0.2-3,0.2-3.9c0-2.1-0.2-2.8-0.2-3.3c0-0.3,0.1-0.7,0.4-1.3c0.7-1.2,1.2-2.1,1.5-2.1c0.1,0,0.2,0.1,0.3,0.4
						C115.5,21.1,115.9,22.2,116.5,23.3z M111,41c-1.4,2-1.6,2.4-3,3.7c1.3,0,2.7-0.1,3.8-0.6C111.7,43.4,111.7,42.3,111,41z"/>
					<path class="st1" d="M123.5,49.1c-0.2,0-0.3-0.3-0.3-1.2c0-5.4-2-20.3-2-22.7c0-1.2,0.8-3.1,1.5-4.4c0.2-0.4,0.6-0.9,0.8-0.9
						c0.2,0,0.3,0.3,0.3,1.4c0.2,3.9,1.3,13,1.3,19.6c0,2.6-0.2,4.9-0.6,6.2C124.2,48.4,123.8,49.1,123.5,49.1z"/>
				</g>
			</g>
		</g>
	</g>
	<g>
		<g>
			<g>
				<g>
					<path class="st2" d="M8.7,38.7c0,0,1.5-3,4.6-1.4c-1.3-2.1-0.6-4.8,0-5.6c1,3.4,2.8,6.3,6.9,7h2.4l-1,0c3,0,5.8-2.2,5.8-6
						c0-3.8-2.3-5-3.6-5.1c-0.6,0-1.2,0.1-1.7,0.3c-1.3,0.3-2.2,1.5-2.2,2.8c0,1.6,1.4,2.9,3.1,2.9c0.6,0,1.2-0.2,1.7-0.5
						c-0.1,1.6-1.4,3-3.4,3c-2.5,0-5.5-2.5-4.3-7.5c-1.1-0.9-4.6-1.2-5.4,1.8c0,0,0,0,0,0c-0.3-0.2-0.6-0.3-1-0.3
						c-1.1,0-2.1,1.2-2.1,2.6c0,0.8,0.3,1.4,0.7,1.9c-5-0.9-9.1,4.2-9.1,4.2s0,0,0,0H8.7z M21.6,38.9l1,0h-2.4c-4,0.7-5.9,3.6-6.9,7
						c-0.6-0.8-1.3-3.5,0-5.6c-3.1,1.6-4.6-1.4-4.6-1.4H0c0,0,0,0,0,0s4,5,9,4.2c-0.4,0.5-0.6,1.1-0.6,1.8c0,1.4,0.9,2.6,2.1,2.6
						c0.4,0,0.7-0.1,1-0.4c0,0.1,0,0.1,0,0.1c0.8,3,4.2,2.8,5.4,1.8c-1.2-5,1.8-7.5,4.3-7.5c2,0,3.3,1.4,3.4,3
						c-0.5-0.3-1.1-0.5-1.7-0.5c-1.7,0-3.1,1.3-3.1,2.9c0,1.3,0.9,2.4,2.2,2.8c0.5,0.2,1.1,0.3,1.7,0.3c1.3-0.1,3.6-1.3,3.6-5.1
						C27.4,41.1,24.6,38.9,21.6,38.9z"/>
				</g>
			</g>
			<path class="st3" d="M11.7,41.3c0,0-0.1,2.2-0.2,2.7c0,0.8-0.6,1.3-1.2,1.3c-0.7,0-1.1-0.7-1.1-1.4c0-0.5,0.2-0.9,0.6-1.1
				C9.9,42.7,10.8,41.9,11.7,41.3z"/>
			<path class="st3" d="M11.4,41.7c0,0-0.1,1.3-0.1,1.5c0,0.4-0.3,0.8-0.7,0.7c-0.4,0-0.6-0.4-0.6-0.8c0-0.3,0.1-0.5,0.3-0.6
				C10.4,42.5,10.9,42,11.4,41.7z"/>
			<g>
				<g class="st4">
					<path class="st5" d="M10.1,35.1c-1.1-0.5-2.5-1.2-5.8,0.1c-1.1,0.5-2.3,1.4-2.9,2.1c-1,1,0.3,1.7,2.5,1.7
						c2.2,0,2.6-0.6,3.9-1.9C9.2,35.6,10.9,35.5,10.1,35.1z"/>
				</g>
			</g>
			<g class="st4">
				<g>
					<path class="st5" d="M24.7,28c-0.4-0.3-0.9-0.4-1.5-0.4c-0.1,0-0.2,0-0.2,0c0,0,0,0,0,0c0,0,0,0,0,0c-0.1,0-0.2,0-0.3,0
						c-0.1,0-0.3,0-0.4,0c0,0,0,0,0,0.1c-1,0.3-1.8,1-1.7,1.8c0,1,1.2,1.7,2.6,1.6c0.9,0,1.7-0.4,2.1-0.9c0.2,0.5,0.4,1.2,0.4,1.8
						c0.1,2.1-1.5,4.2-4,4.2c-1.7,0-2.6-0.1-3.9-1.2c-1.3-1.1-0.3,2.4,4.1,2.4c3.2,0,5.3-2.9,5.3-5.1C27.1,30.5,26.2,28.8,24.7,28z"
						/>
				</g>
			</g>
			<g>
				
					<ellipse transform="matrix(0.9999 -1.343745e-002 1.343745e-002 0.9999 -0.3837 0.3119)" class="st5" cx="23" cy="28.7" rx="1.8" ry="1.2"/>
			</g>
			
				<ellipse transform="matrix(0.9999 -1.348834e-002 1.348834e-002 0.9999 -0.3763 0.3113)" class="st1" cx="22.9" cy="28.1" rx="1" ry="0.5"/>
			<g>
				<path class="st5" d="M4.7,34.9c-1.2,0.4-2,1.2-1.8,1.8c0.2,0.6,1.4,0.7,2.6,0.3c1.2-0.4,2-1.2,1.8-1.8
					C7.1,34.6,5.9,34.5,4.7,34.9z"/>
			</g>
			<path class="st1" d="M4.9,35.9c0.7-0.2,1.1-0.6,1-0.9c-0.1-0.3-0.7-0.3-1.4-0.1c-0.7,0.2-1.1,0.6-1,0.9
				C3.7,36.1,4.3,36.1,4.9,35.9z"/>
			<g>
				<g class="st4">
					<path class="st5" d="M26.9,44c0-2.1-2.1-4.9-5.3-4.9c-4.1,0-5.6,2.2-4.2,2.2c1.4,0,1.3-0.9,3.7-0.9c2.3,0,4.5,2.1,4.4,4.1
						c0,0.3-0.1,0.5-0.1,0.8C25,44.6,24.2,44,23.1,44c-1.3-0.1-2.4,0.6-2.5,1.5c0,0.8,0.7,1.4,1.7,1.7c0,0,0,0,0,0
						c0.1,0,0.3,0,0.4,0c0,0,0.1,0,0.1,0c0,0,0.1,0,0.1,0c0.2,0,0.4,0,0.6,0C25.8,47.2,26.9,45.9,26.9,44z"/>
				</g>
			</g>
			<g>
				
					<ellipse transform="matrix(0.9999 -1.344265e-002 1.344265e-002 0.9999 -0.6044 0.3135)" class="st5" cx="23" cy="45.1" rx="1.8" ry="1.2"/>
			</g>
			<g>
				<path class="st5" d="M21.5,39.1c-0.9,0-1.6,0.3-1.6,0.6c0,0.3,0.7,0.6,1.6,0.6c0.9,0,1.6-0.3,1.6-0.6
					C23.1,39.3,22.4,39.1,21.5,39.1z"/>
			</g>
			<path class="st1" d="M21.4,39.6c0.5,0,0.9-0.1,0.9-0.2c0-0.1-0.4-0.2-0.9-0.2c-0.5,0-0.9,0.1-0.9,0.3
				C20.5,39.5,20.9,39.6,21.4,39.6z"/>
			
				<ellipse transform="matrix(0.9999 -1.348834e-002 1.348834e-002 0.9999 -0.5976 0.3128)" class="st1" cx="22.9" cy="44.5" rx="1" ry="0.5"/>
			<path class="st3" d="M16.9,28.5c0,0-2-1.1-3.6-0.2c-1.6,0.8-1.4,1.6-1.4,2.1c0,0.6,0.3-0.4,1.6-0.3c0.6,0,0.9,1.9,1.8,1.9
				C16.6,31.8,15.1,30.2,16.9,28.5z"/>
			<g>
				<path class="st5" d="M14.5,28c-0.9,0-1.6,0.3-1.6,0.7c0,0.4,0.7,0.6,1.6,0.6c0.9,0,1.6-0.3,1.6-0.7C16.1,28.3,15.4,28,14.5,28z"
					/>
			</g>
			<path class="st1" d="M14.4,28.6c0.5,0,0.9-0.1,0.9-0.3c0-0.2-0.4-0.3-0.9-0.3c-0.5,0-0.9,0.1-0.9,0.3
				C13.5,28.4,13.9,28.6,14.4,28.6z"/>
			
				<ellipse transform="matrix(5.008120e-002 -0.9987 0.9987 5.008120e-002 -22.1021 40.277)" class="st3" cx="10.1" cy="31.8" rx="1.8" ry="1.5"/>
			<g>
				<path class="st5" d="M10.1,30c-0.6,0-1,0.5-1,1.1c0,0.6,0.5,1.1,1.1,1c0.6,0,1-0.5,1-1.1C11.2,30.5,10.7,30,10.1,30z"/>
			</g>
			
				<ellipse transform="matrix(1 -9.864655e-003 9.864655e-003 1 -0.2994 0.101)" class="st1" cx="10.1" cy="30.4" rx="0.5" ry="0.4"/>
		</g>
		<g>
			<g>
				<g>
					<path class="st2" d="M153.2,38.6l-1,0h2.4c4-0.7,5.9-3.6,6.9-7c0.6,0.8,1.3,3.5,0,5.6c3.1-1.6,4.6,1.4,4.6,1.4h8.7c0,0,0,0,0,0
						s-4.1-5.1-9.1-4.2c0.4-0.5,0.7-1.1,0.7-1.9c0-1.4-0.9-2.6-2.1-2.6c-0.4,0-0.7,0.1-1,0.3c0,0,0,0,0,0c-0.8-3-4.2-2.8-5.4-1.8
						c1.2,5-1.8,7.5-4.3,7.5c-2,0-3.3-1.4-3.4-3c0.5,0.3,1.1,0.5,1.7,0.5c1.7,0,3.1-1.3,3.1-2.9c0-1.3-1-2.4-2.2-2.8
						c-0.5-0.2-1.1-0.3-1.7-0.3c-1.3,0.1-3.6,1.3-3.6,5.1C147.4,36.4,150.2,38.6,153.2,38.6z M166.1,38.9c0,0-1.5,3-4.6,1.4
						c1.3,2.1,0.6,4.8,0,5.6c-1-3.4-2.8-6.3-6.9-7h-2.4l1,0c-3,0-5.8,2.2-5.8,6c0,3.8,2.3,5,3.6,5.1c0.6,0,1.2-0.1,1.7-0.3
						c1.3-0.3,2.2-1.5,2.2-2.8c0-1.6-1.4-2.9-3.1-2.9c-0.6,0-1.2,0.2-1.7,0.5c0.1-1.6,1.4-3,3.4-3c2.5,0,5.5,2.5,4.3,7.5
						c1.1,0.9,4.6,1.2,5.4-1.8c0,0,0,0,0-0.1c0.3,0.2,0.7,0.4,1,0.4c1.1,0,2.1-1.2,2.1-2.6c0-0.7-0.2-1.3-0.6-1.8c5,0.8,9-4.2,9-4.2
						s0,0,0,0H166.1z"/>
				</g>
			</g>
			<path class="st3" d="M163.1,41.3c0,0,0.1,2.2,0.2,2.7c0,0.8,0.6,1.3,1.2,1.3c0.7,0,1.1-0.7,1.1-1.4c0-0.5-0.2-0.9-0.6-1.1
				C164.9,42.7,164,41.9,163.1,41.3z"/>
			<path class="st3" d="M163.4,41.7c0,0,0.1,1.3,0.1,1.5c0,0.4,0.3,0.8,0.7,0.7c0.4,0,0.6-0.4,0.6-0.8c0-0.3-0.1-0.5-0.3-0.6
				C164.4,42.5,163.8,42,163.4,41.7z"/>
			<g>
				<g class="st4">
					<path class="st5" d="M173.4,37.3c-0.7-0.7-1.8-1.6-2.9-2.1c-3.3-1.3-4.7-0.6-5.8-0.1c-0.8,0.4,0.9,0.5,2.4,2
						c1.3,1.3,1.8,1.9,3.9,1.9C173.1,39,174.4,38.2,173.4,37.3z"/>
				</g>
			</g>
			<g class="st4">
				<g>
					<path class="st5" d="M157.2,34.9c-1.3,1.1-2.2,1.2-3.9,1.2c-2.5,0-4.1-2.1-4-4.2c0-0.7,0.2-1.3,0.4-1.8
						c0.4,0.5,1.2,0.9,2.1,0.9c1.4,0.1,2.5-0.7,2.6-1.6c0-0.8-0.7-1.5-1.7-1.8c0,0,0,0,0-0.1c-0.1,0-0.3,0-0.4,0c-0.1,0-0.2,0-0.3,0
						c0,0,0,0,0,0c0,0,0,0,0,0c-0.1,0-0.2,0-0.2,0c-0.6,0-1.1,0.2-1.5,0.4c-1.5,0.8-2.3,2.5-2.3,4.1c0,2.2,2.1,5.1,5.3,5.1
						C157.5,37.3,158.5,33.8,157.2,34.9z"/>
				</g>
			</g>
			<g>
				
					<ellipse transform="matrix(1.339453e-002 -0.9999 0.9999 1.339453e-002 121.0353 180.0869)" class="st5" cx="151.8" cy="28.7" rx="1.2" ry="1.8"/>
			</g>
			
				<ellipse transform="matrix(1.348834e-002 -0.9999 0.9999 1.348834e-002 121.7996 179.5645)" class="st1" cx="151.9" cy="28.1" rx="0.5" ry="1"/>
			<g>
				<path class="st5" d="M170.1,34.9c1.2,0.4,2,1.2,1.8,1.8c-0.2,0.6-1.4,0.7-2.6,0.3c-1.2-0.4-2-1.2-1.8-1.8
					C167.7,34.6,168.8,34.5,170.1,34.9z"/>
			</g>
			<path class="st1" d="M169.9,35.9c-0.7-0.2-1.1-0.6-1-0.9c0.1-0.3,0.7-0.3,1.4-0.1c0.7,0.2,1.1,0.6,1,0.9
				C171.1,36.1,170.5,36.1,169.9,35.9z"/>
			<g>
				<g class="st4">
					<path class="st5" d="M153.2,39.1c-3.2,0-5.3,2.8-5.3,4.9c0,1.9,1.1,3.1,3.4,3.3c0.2,0,0.4,0,0.6,0c0,0,0.1,0,0.1,0
						c0,0,0.1,0,0.1,0c0.1,0,0.3,0,0.4,0c0,0,0,0,0,0c1-0.2,1.7-0.9,1.7-1.7c0-0.9-1.2-1.6-2.5-1.5c-1,0.1-1.9,0.6-2.2,1.2
						c0-0.2-0.1-0.5-0.1-0.8c-0.1-2,2.1-4.1,4.4-4.1c2.4,0,2.4,0.9,3.7,0.9C158.8,41.3,157.3,39.1,153.2,39.1z"/>
				</g>
			</g>
			<g>
				
					<ellipse transform="matrix(1.339971e-002 -0.9999 0.9999 1.339971e-002 104.6281 196.2749)" class="st5" cx="151.8" cy="45.1" rx="1.2" ry="1.8"/>
			</g>
			<g>
				<path class="st5" d="M153.3,39.1c0.9,0,1.6,0.3,1.6,0.6c0,0.3-0.7,0.6-1.6,0.6c-0.9,0-1.6-0.3-1.6-0.6
					C151.7,39.3,152.4,39.1,153.3,39.1z"/>
			</g>
			<path class="st1" d="M153.4,39.6c-0.5,0-0.9-0.1-0.9-0.2c0-0.1,0.4-0.2,0.9-0.2c0.5,0,0.9,0.1,0.9,0.3
				C154.3,39.5,153.9,39.6,153.4,39.6z"/>
			
				<ellipse transform="matrix(1.348834e-002 -0.9999 0.9999 1.348834e-002 105.3939 195.7504)" class="st1" cx="151.9" cy="44.5" rx="0.5" ry="1"/>
			<path class="st3" d="M157.9,28.5c0,0,2-1.1,3.6-0.2c1.6,0.8,1.4,1.6,1.4,2.1c0,0.6-0.3-0.4-1.6-0.3c-0.6,0-0.9,1.9-1.8,1.9
				C158.2,31.8,159.7,30.2,157.9,28.5z"/>
			<g>
				<path class="st5" d="M160.3,28c0.9,0,1.6,0.3,1.6,0.7c0,0.4-0.7,0.6-1.6,0.6c-0.9,0-1.6-0.3-1.6-0.7
					C158.7,28.3,159.4,28,160.3,28z"/>
			</g>
			<path class="st1" d="M160.4,28.6c-0.5,0-0.9-0.1-0.9-0.3c0-0.2,0.4-0.3,0.9-0.3c0.5,0,0.9,0.1,0.9,0.3
				C161.3,28.4,160.9,28.6,160.4,28.6z"/>
			
				<ellipse transform="matrix(0.9988 -4.956940e-002 4.956940e-002 0.9988 -1.3718 8.2018)" class="st3" cx="164.7" cy="31.8" rx="1.5" ry="1.8"/>
			<g>
				<path class="st5" d="M164.7,30c0.6,0,1,0.5,1,1.1c0,0.6-0.5,1.1-1.1,1c-0.6,0-1-0.5-1-1.1C163.6,30.5,164.1,30,164.7,30z"/>
			</g>
			
				<ellipse transform="matrix(7.367433e-003 -1 1 7.367433e-003 133.0962 194.8826)" class="st1" cx="164.7" cy="30.4" rx="0.4" ry="0.5"/>
		</g>
	</g>
</g>
</svg>
