<?xml version="1.0" encoding="utf-8"?>
<!-- Generator: Adobe Illustrator 19.2.0, SVG Export Plug-In . SVG Version: 6.00 Build 0)  -->
<svg version="1.1" id="Layer_1" xmlns="http://www.w3.org/2000/svg" xmlns:xlink="http://www.w3.org/1999/xlink" x="0px" y="0px"
	 viewBox="0 0 314.8 64.5" style="enable-background:new 0 0 314.8 64.5;" xml:space="preserve">
<style type="text/css">
	.st0{opacity:0.75;}
	.st1{fill:#FFFFFF;}
	.st2{fill:#BF8138;}
	.st3{fill:#F2C671;fill-opacity:0.5;}
	.st4{opacity:0.5;}
	.st5{fill:#F2C671;}
</style>
<g>
	<g>
		<g>
			<g class="st0">
				<path d="M60.1,45.4c-1.2,0-2.2-0.2-3-0.9c-1.3-1-2-3-2.3-5.5c-0.3-1.9-0.4-4.2-0.5-6.6c-0.1-3.6-0.4-9.1-0.9-12.3
					c0-0.1,0-0.3,0-0.4c0-0.2,0-0.3,0.3-0.7c0.6-0.8,0.9-1.4,1.3-2.1c0.3-0.5,0.4-0.6,0.5-0.6c0.2,0,0.3,0.3,0.5,1.2
					c0.8,6.3,0.1,15,1.1,19.8c0.2,1.2,0.4,1.6,0.7,2.4c0.5,1.1,1.3,1.6,2.6,1.7c1.4,0,2.1,0.7,2.1,2c0,1.6-0.8,2.1-1.9,2.1H60.1z"/>
				<path d="M60.6,45.4h-0.3c-1.1,0-1.7-0.7-1.7-2c0-1.4,0.6-2.1,1.7-2.1h0.3c2.9,0,4.8-1.4,6.2-2.8c1.4-1.4,2.4-2.9,3.4-2.9
					c0.3,0,0.7,0.1,1,0.5c1.7,1.7,5.1,5.2,6.8,5.2h0.2c1.2,0,1.9,0.6,1.9,1.9c0,1.4-0.6,2.2-1.9,2.2h-0.2c-1.6,0-3.2-1.1-3.5-1.4
					c-0.3,1.2-1.7,2.7-2.4,2.7c-0.6,0-5.9-1.6-7.5-3.9C64.3,44.4,62.3,45.4,60.6,45.4z M71,40.1C70.4,39.5,69.7,39,69,39
					c-0.4,0-0.5,0.1-1,0.5c-0.3,0.3-0.5,0.5-0.5,0.7c0,0.3,0.5,0.6,2.1,1.3c0.7,0.3,2.3,1,2.7,1c0.2,0,0.2-0.1,0.2-0.2
					C72.7,42.1,71.5,40.7,71,40.1z"/>
				<path d="M89.3,57.9c0.2-0.1,0.2-0.1,0.2,0.1c0,1-0.4,2-0.9,2.3l-7.4,4.1c-0.1,0.1-0.2,0-0.2-0.1c0-0.5,0.2-1.4,0.4-1.8
					c0.2-0.3,0.5-0.6,1.2-1L89.3,57.9z"/>
				<path d="M100.6,57.3c0.2-0.1,0.2-0.1,0.2,0.1c0,1-0.4,2-0.9,2.3l-7.4,4.1c-0.1,0.1-0.2,0-0.2-0.1c0-0.5,0.2-1.4,0.4-1.8
					c0.2-0.3,0.5-0.6,1.2-1L100.6,57.3z"/>
				<path d="M99.3,53.1c0.2,0.1,0.1,0.2,0,0.3c-0.4,0.6-1.9,2.2-2.5,3c-0.1,0.2-0.2,0.2-0.4,0c-0.8-0.5-2.6-1.9-3.1-2.6
					c-0.1-0.2-0.1-0.2,0-0.4c0.6-0.9,1.6-2.1,2.3-2.8c0.3-0.3,0.4-0.4,0.5-0.2C96.8,51.2,98.1,52.3,99.3,53.1z"/>
				<path d="M87.7,45.3c-0.6,3.1,0.8,5,1,7.1c0.1,0.7-0.6,2.6-1,3.4c-0.1,0.2-0.2,0.3-0.4,0.3c-1.1,0-2.3-1.5-3-2.5
					C83.4,52.2,83,50.1,83,48c0-1.7,0.2-3.5,0.6-5.2c-1.4,1.7-3.1,2.5-5.1,2.5h-0.4c-1.1,0-1.7-0.7-1.7-2.1c0-1.3,0.6-2,1.7-2h0.4
					c3.7,0,5.8-2.7,7-4.1c0.2-0.2,0.5-0.9,1.1-0.9c0.6,0,0.2,1.2,0.1,1.5C86.3,39.5,85,42.3,85,45c0,1.1,0.1,2.2,0.6,3.2
					c1.2-7.2,4.8-11.1,9.9-11.1c1.4,0,4.2,0.2,4.2,2.1c0,0.8-0.3,1.9-0.6,3.2c-0.3,0.9-0.5,0.8-1.9-0.2c-0.9-0.6-1.9-0.8-2.8-0.8
					c-2.2,0-4.7,1.5-6.2,3.1C87.9,44.7,87.7,45.1,87.7,45.3z"/>
				<path d="M133.8,58.1c0.2-0.1,0.2-0.1,0.2,0.1c0,1-0.4,2-0.9,2.3l-7.4,4.1c-0.1,0.1-0.2,0-0.2-0.1c0-0.5,0.2-1.4,0.4-1.8
					c0.2-0.3,0.5-0.6,1.2-1L133.8,58.1z"/>
				<path d="M114.3,43.6c0.4-0.7,0.8-1.2,1.2-1.2c0.1,0,0.2,0.1,0.2,0.3c0,0.3-0.1,0.7-0.3,1.1c-0.9,2-1.2,3.2-1.2,4.4
					c0,3.3,4,5.5,6.9,5.5c4.8,0,11-2.1,12.4-5.2c0.1-0.4,0.1-0.9,0.1-1.3c0-0.7-0.1-1.3-0.2-1.6c-0.3,0-0.5,0-1,0
					c-1.1,0-2.9-0.1-4.1-0.8c-1.2-0.7-1.7-1.6-1.7-2.8c0-1.1,0.6-2.7,1.1-4c0.9-2,2.2-3.9,3.3-3.9c2.7,0,4.4,3.3,4.5,7.1h1.5
					c1,0,1.5,0.6,1.5,1.9c0,1.5-0.5,2.2-1.5,2.2l-1.7,0.1c-0.3,1.7-0.5,3-0.9,4.2c-0.1,0.5-0.4,1.3-0.7,1.8
					c-1.6,3.2-6.9,6.3-12.5,6.3c-4.7,0-8.8-2.1-8.8-7.6C112.7,48.3,113.2,45.6,114.3,43.6z M132.7,24.3c0.3-0.3,0.4-0.4,0.6-0.2
					c0.9,0.9,1.8,1.9,2.8,2.5c0.3,0.2,0.3,0.3,0,0.6c-0.8,0.9-1.6,1.8-2.4,2.7c-0.2,0.2-0.3,0.2-0.5,0c-0.7-0.5-1.7-1.3-2.6-2.2
					c-0.5,0.6-1.6,1.8-2,2.1c-0.2,0.1-0.3,0.3-0.7,0.1c-0.9-0.6-2.1-1.5-2.8-2.5c-0.2-0.2-0.2-0.3,0-0.6c0.7-0.8,1.6-1.9,2.5-2.7
					c0.2-0.2,0.3-0.2,0.6,0.1c0.7,0.7,1.9,1.8,2.6,2.2C131.3,25.8,132.3,24.7,132.7,24.3z M131,38.7c-0.3-0.2-0.5-0.3-0.9-0.3
					c-0.8,0-1.3,0.9-1.3,1.4c0,0.4,0.6,0.9,1.4,1.2c0.8,0.3,1.6,0.4,2.1,0.4c0.3,0,0.4,0,0.4-0.1C132.6,40.7,131.8,39.3,131,38.7z"
					/>
				<path d="M141.8,5.7c1.2,0,3,1.7,3,3.7c0,0.7-0.1,1.4-0.3,2.1c-0.5,1.4-1.7,2.2-3.2,2.2c-1.4,0-2.4-1.1-2.4-2.4
					C138.8,9.6,140.9,5.7,141.8,5.7z M141.4,8.5c-0.5,0-1.3,1.1-1.3,1.7c0,0.5,0.7,1,1.4,1c0.9,0,2-0.5,2-0.9
					C143.5,10.1,142.4,8.5,141.4,8.5z"/>
				<path d="M143.7,32.8c0,1.6-0.2,3.1-0.6,4.2c3.8-3.1,7-4.9,8.8-4.9c1,0,2.2,0.2,3.3,0.7c1.5,0.7,2.1,1.4,2.1,2.8
					c0,2.1-1.5,5.3-3.1,6.3c1.5-0.4,3-0.6,4.4-0.6h0.5c1.2,0,1.8,0.7,1.8,2c0,1.4-0.6,2.1-1.8,2.1h-0.7c-7.9,0.3-11.6,0.3-13.1,0.3
					c-2.1,0-4.7-0.1-8.2-0.3h-0.5c-1.2,0-1.9-0.7-1.9-2.1c0-1.3,0.6-2,1.9-2h2c0.8-0.7,2.1-2,3.3-3.2c0-0.7,0-1.5,0-2.1
					c0-5.1-0.9-9.8-1.3-12.6c-0.1-0.7-0.6-2.3-0.7-3.1c0-0.1-0.1-0.3-0.1-0.5c0-0.3,0.4-1.1,0.7-1.8c0.4-0.9,1-1.9,1.3-1.9
					c0.1,0,0.2,0.1,0.3,0.4c0.5,1.7,1,2.6,1.4,3.2c0.1,0.1,0.1,0.3,0.1,0.4c0,0.1,0,0.2-0.1,0.4c-0.1,0.4-0.7,1.5-1,1.9
					C143.1,26.1,143.7,29.7,143.7,32.8z M150.2,35.8c-3.4,0-6.6,2.6-9.7,5.6c6.1-0.4,12-1.5,14.4-3.2
					C153.9,36.7,151.9,35.8,150.2,35.8z"/>
				<path d="M161.4,23.2c-0.1,0-0.2,0-0.2,0c-0.5,0-1-0.3-1.4-0.7c-0.5-0.6-0.7-1.3-0.7-2.2c0-0.4,0.1-0.9,0.2-1.3
					c0.1-0.4,0.5-1.2,0.9-1.2c0.2,0,0.2,0.2,0.2,0.7c0,0.1,0,0.6,0,0.7c0,0.6,0.4,1,1.2,1.1h0c0.8,0,1.3-0.5,1.7-1.5
					c0.1-0.4,0.5-1.8,1.1-1.8c0.2,0,0.3,0.2,0.3,0.7v0.2c0,0.5,0.2,0.7,0.7,0.7c0.1,0,0.2,0,0.3,0c0.7-0.1,1.1-0.7,1.3-1.4
					c0.3-1,0.5-1.3,0.8-1.3c0.2,0,0.3,0.2,0.4,0.5c0.1,0.3,0.1,0.6,0.1,1c0,0.7-0.1,1.4-0.5,2.1c-0.5,1-1.2,1.9-2.5,1.9
					c-0.5,0-0.8-0.2-1-0.3c-0.2-0.1-0.2-0.1-0.3,0C163.1,22.5,162.2,23.1,161.4,23.2z M167.1,8.6c0,0.3,0.1,0.4,0.1,0.6
					c0,0.8-0.2,1.5-0.5,2.2c0.3,0.2,0.5,0.4,0.5,0.6c0,0.5-0.2,1.1-0.6,1.6l-0.8-0.5c-1,1.5-1.7,2.4-2.3,2.8
					c-0.6,0.4-1.6,0.7-2.9,0.8c-0.7,0-0.8-0.2-0.6-0.3c2.4-1.4,4-2.8,4.8-3.9c-0.6-0.5-1.6-1.1-1.6-2c0-0.6,0.3-1.2,0.9-2
					c0.6-0.8,1.2-1.2,1.9-1.2C166.7,7.3,167,8,167.1,8.6z M164.4,9.9c0.1,0.3,0.5,0.6,1.2,0.9c0.1-0.2,0.2-0.7,0.2-1
					c0-0.4-0.2-0.7-0.6-0.7C165,9.2,164.7,9.4,164.4,9.9z"/>
				<path d="M167.1,38.8c0,1,1.1,2.2,2.4,2.4c0.3,0,0.6,0,0.9,0h0.2c1.5,0,1.5,1.2,1.5,1.8c0,0.5,0,2.2-1.5,2.2h-0.3
					c-0.3,0-0.5,0-1,0c-2.7-0.3-3.7-2.7-3.9-3c-0.4,1.1-2.6,3-6.6,3h-0.2c-1.1,0-1.7-1-1.7-2c0-1,0.6-2.1,1.7-2.1h1.2
					c1.8,0,4.3-0.3,5.8-2.9c0.5-0.8,0.7-0.9,0.9-0.9C167,37.5,167.1,37.9,167.1,38.8z M168.6,28.3c0.2,0.1,0.1,0.2,0,0.3
					c-0.4,0.6-1.9,2.2-2.5,3c-0.1,0.2-0.2,0.2-0.4,0c-0.8-0.5-2.6-1.9-3.1-2.6c-0.1-0.2-0.1-0.2,0-0.4c0.6-0.9,1.6-2.1,2.3-2.8
					c0.3-0.3,0.4-0.4,0.5-0.2C166.1,26.4,167.4,27.5,168.6,28.3z"/>
				<path d="M174.9,43.5c-1,1.2-2.1,1.9-4.1,1.9h-0.4c-1.2,0-1.8-0.7-1.8-2.2c0-1.3,0.6-1.9,1.8-1.9h0.4c1,0,1.8-0.1,2.6-0.4
					c0.7-0.2,1.1-0.5,1.2-0.8c0-3.1-1.1-9.6-1.7-15.9c0-0.7-0.5-2.9-0.7-3.8c0-0.1,0-0.3,0-0.4c0-0.5,0.6-1.7,1-2.4
					c0.5-0.9,0.9-1.6,1.3-1.6c0.1,0,0.2,0.1,0.3,0.4c0.5,1.8,1.1,2.6,1.5,3.3c0.1,0.2,0.2,0.3,0.2,0.5c0,0.1,0,0.1,0,0.2
					c-0.1,0.4-0.7,1.5-1,1.9c0.3,6.1,1.3,11,1.3,14C176.7,39.3,176.1,41.7,174.9,43.5z"/>
				<path d="M184.9,45.4c-0.2,0-0.3-0.3-0.3-1.2c0-5.4-2-20.3-2-22.7c0-1.2,0.8-3.1,1.5-4.4c0.2-0.4,0.6-0.9,0.8-0.9
					c0.2,0,0.3,0.3,0.3,1.4c0.2,3.9,1.3,13,1.3,19.6c0,2.6-0.2,4.9-0.6,6.2C185.5,44.7,185.2,45.4,184.9,45.4z"/>
				<path d="M209.2,5.2c0,0.9-0.2,1.8-0.5,2.6c0.4,0.2,0.6,0.5,0.6,0.7c0,0.7-0.3,1.3-0.6,1.8c-0.1,0.1-0.1,0.1-0.2,0.1l-0.9-0.6
					c-0.9,1.4-2.3,3.1-4.4,4.1c-0.8,0.4-1.7,0.7-2.6,0.7c-0.5,0-0.7-0.1-0.7-0.2c0-0.2,0.4-0.3,1-0.7c1.5-0.9,4.5-3.1,5.5-4.5
					c-0.8-0.6-1.9-1.3-1.9-2.4c0-0.8,0.4-1.5,1.1-2.3c0.7-1,1.5-1.4,2.2-1.4C208.8,3,209.2,4.2,209.2,5.2z M206,6c0,0,0,0.1,0,0.1
					c0,0.2,0.8,0.8,1.4,1c0.2-0.3,0.2-0.6,0.2-1.2c0-0.5-0.2-0.8-0.6-0.8C206.7,5.2,206.2,5.5,206,6z"/>
				<path d="M208.3,18.3c0.3-0.3,0.4-0.4,0.6-0.2c0.9,0.9,1.8,1.9,2.8,2.5c0.3,0.2,0.3,0.3,0,0.6c-0.8,0.9-1.6,1.8-2.4,2.7
					c-0.2,0.2-0.3,0.2-0.5,0c-0.7-0.5-1.7-1.3-2.6-2.2c-0.5,0.6-1.6,1.8-2,2.1c-0.2,0.1-0.3,0.3-0.7,0.1c-0.9-0.6-2.1-1.5-2.8-2.5
					c-0.2-0.2-0.2-0.3,0-0.6c0.7-0.8,1.6-1.9,2.5-2.7c0.2-0.2,0.3-0.2,0.6,0.1c0.7,0.7,1.9,1.8,2.6,2.2
					C206.9,19.8,207.9,18.7,208.3,18.3z M213.6,40.5c0.9,0.6,1.6,0.8,2.1,0.8h0.6c1.2,0,1.9,0.6,1.9,1.9c0,1.5-0.7,2.2-2,2.2h-0.6
					c-1.4,0-2.7-0.5-4-1.6c-1.3-1.1-2.1-2.9-2.4-5.4c-0.4,0.6-0.7,1.3-1.5,1.8c-1.1,0.8-2.9,1.1-4.7,1.1c-1.3,0-2.5-0.2-2.5-1.2
					c0.6-4,1.1-4.6,3-6.2c0.8-0.7,3.2-2.1,4.2-2.8c0-0.4-0.1-0.7-0.1-1c0-0.9,0.2-1.4,0.7-2.2c0.3-0.5,0.5-0.9,0.7-0.9
					c0.2,0,0.3,0.3,0.4,1c0.6,3.7,0.9,6.7,1.4,8.5C211.3,38.2,212.3,39.5,213.6,40.5z M208.3,33.2c-1.7,1.1-4.5,2.8-4.6,3.3
					c0,0.3,0.5,0.4,1.3,0.4c1.1,0,2.7-0.3,3.9-0.9C208.6,35,208.5,34.5,208.3,33.2z"/>
				<path d="M219,31.5c-1.3,0-2-1.3-2-2.7c0-0.4,0.1-0.9,0.2-1.4c0.1-0.4,0.4-1.4,0.9-1.4c0.2,0,0.4,0.4,0.4,1v0.5
					c0,0.6,0.4,1,1.1,1h0.1c0.8,0,1.4-0.6,1.6-1.7c0.1-0.5,0.4-1.9,1.1-1.9c0.2,0,0.4,0.3,0.4,1c0,0.3,0.2,0.6,0.7,0.6
					c0.8,0,1.5-0.6,1.6-1.5c0.2-1.2,0.4-1.5,0.7-1.5c0.4,0,0.6,1.2,0.6,1.9c0,0.5-0.1,1.1-0.3,1.8c-0.4,1.2-1.2,2.1-2.7,2.1
					c-0.3,0-0.6-0.1-0.8-0.2c-0.1-0.1-0.2-0.1-0.4,0.2C221.2,30.6,220.3,31.5,219,31.5z M225.9,19.2c0.2-0.1,0.1,0.1,0.1,0.1
					c-0.1,0.7-0.4,1.5-0.9,2.1c-0.1,0.2-0.4,0.3-0.9,0.6l-7.1,3.3c-0.1,0-0.1,0-0.1-0.1c0-0.3,0.1-0.8,0.3-1.3
					c0.3-0.6,0.4-0.8,0.5-0.9c0.1-0.1,0.3-0.2,0.6-0.4L225.9,19.2z"/>
				<path d="M224.3,38.8c0,1,1.1,2.2,2.4,2.4c0.3,0,0.6,0,0.9,0h0.2c1.5,0,1.5,1.2,1.5,1.8c0,0.5,0,2.2-1.5,2.2h-0.3
					c-0.3,0-0.5,0-1,0c-2.7-0.3-3.7-2.7-3.9-3c-0.4,1.1-2.6,3-6.6,3h-0.2c-1.1,0-1.7-1-1.7-2c0-1,0.6-2.1,1.7-2.1h1.2
					c1.8,0,4.3-0.3,5.8-2.9c0.5-0.8,0.7-0.9,0.9-0.9C224.2,37.5,224.3,37.9,224.3,38.8z M224.1,50.8c0.3-0.3,0.4-0.4,0.6-0.2
					c0.9,0.9,1.8,1.9,2.8,2.5c0.3,0.2,0.3,0.3,0,0.6c-0.8,0.9-1.6,1.8-2.4,2.7c-0.2,0.2-0.3,0.2-0.5,0c-0.7-0.5-1.7-1.3-2.6-2.2
					c-0.5,0.6-1.6,1.8-2,2.1c-0.2,0.1-0.3,0.3-0.7,0.1c-0.9-0.6-2.1-1.5-2.8-2.5c-0.2-0.2-0.2-0.3,0-0.6c0.7-0.8,1.6-1.9,2.5-2.7
					c0.2-0.2,0.3-0.2,0.6,0.1c0.7,0.7,1.9,1.8,2.6,2.2C222.6,52.4,223.6,51.2,224.1,50.8z"/>
				<path d="M238.8,48.8c0.2-0.1,0.2-0.1,0.2,0.1c0,1-0.4,2-0.9,2.3l-7.4,4.1c-0.1,0.1-0.2,0-0.2-0.1c0-0.5,0.2-1.4,0.4-1.8
					c0.2-0.3,0.5-0.6,1.2-1L238.8,48.8z"/>
				<path d="M242,41.3c1.2,0,1.8,0.7,1.8,2c0,1.4-0.6,2.1-1.8,2.1h-0.5c-3.8,0-6.1-0.8-7.8-1.7c-1.4,0.9-3.4,1.7-5.8,1.7h-0.4
					c-1.1,0-1.7-0.7-1.7-2.1c0-1.3,0.6-2,1.7-2h0.4c1.6,0,2.6-0.2,3.1-0.7c-0.1-0.4-0.2-0.9-0.2-1.3c0-4.1,4.6-9.2,7.2-9.2
					c1.5,0,2.3,1.7,2.3,3.9c0,2.2-0.9,5-2.7,6.6c0.8,0.4,2.1,0.7,3.8,0.7H242z M237.4,21.4c0.2,0.1,0.1,0.2,0,0.3
					c-0.4,0.6-1.9,2.2-2.5,3c-0.1,0.2-0.2,0.2-0.4,0c-0.8-0.5-2.6-1.9-3.1-2.6c-0.1-0.2-0.1-0.2,0-0.4c0.6-0.9,1.6-2.1,2.3-2.8
					c0.3-0.3,0.4-0.4,0.5-0.2C234.9,19.4,236.2,20.6,237.4,21.4z M236.3,34.2c-1.5,0-2.9,1.6-2.9,2.2c0,0.9,0.7,1.6,2.2,2.5
					c0.5-0.2,2.6-1.7,2.6-2.4C238.1,35.1,237.6,34.2,236.3,34.2z"/>
				<path d="M248.1,23c1.2,0,3,1.7,3,3.7c0,0.7-0.1,1.4-0.3,2.1c-0.5,1.4-1.7,2.2-3.2,2.2c-1.4,0-2.4-1.1-2.4-2.4
					C245.1,26.9,247.2,23,248.1,23z M247.7,25.8c-0.5,0-1.3,1.1-1.3,1.7c0,0.5,0.7,1,1.4,1c0.9,0,2-0.5,2-0.9
					C249.8,27.3,248.7,25.8,247.7,25.8z"/>
				<path d="M250,38.8c0,1,1.1,2.2,2.4,2.4c0.3,0,0.6,0,0.9,0h0.2c1.5,0,1.5,1.2,1.5,1.8c0,0.5,0,2.2-1.5,2.2h-0.3c-0.3,0-0.5,0-1,0
					c-2.7-0.3-3.7-2.7-3.9-3c-0.4,1.1-2.6,3-6.6,3h-0.2c-1.1,0-1.7-1-1.7-2c0-1,0.6-2.1,1.7-2.1h1.2c1.8,0,4.3-0.3,5.8-2.9
					c0.5-0.8,0.7-0.9,0.9-0.9C249.9,37.5,250,37.9,250,38.8z M249.8,50.8c0.3-0.3,0.4-0.4,0.6-0.2c0.9,0.9,1.8,1.9,2.8,2.5
					c0.3,0.2,0.3,0.3,0,0.6c-0.8,0.9-1.6,1.8-2.4,2.7c-0.2,0.2-0.3,0.2-0.5,0c-0.7-0.5-1.7-1.3-2.6-2.2c-0.5,0.6-1.6,1.8-2,2.1
					c-0.2,0.1-0.3,0.3-0.7,0.1c-0.9-0.6-2.1-1.5-2.8-2.5c-0.2-0.2-0.2-0.3,0-0.6c0.7-0.8,1.6-1.9,2.5-2.7c0.2-0.2,0.3-0.2,0.6,0.1
					c0.7,0.7,1.9,1.8,2.6,2.2C248.3,52.4,249.3,51.2,249.8,50.8z"/>
				<path d="M265.1,11.3c0.2-0.1,0.2-0.1,0.2,0.1c0,1-0.4,2-0.9,2.3l-7.4,4.1c-0.1,0.1-0.2,0-0.2-0.1c0-0.5,0.2-1.4,0.4-1.8
					c0.2-0.3,0.5-0.6,1.2-1L265.1,11.3z"/>
				<path d="M274,17c0.1,0,0.2,0.1,0.2,0.2c0,0.6-0.9,2.3-1.2,2.9c-0.1,0.1-0.2,0.2-0.3,0.3c-1.2,0.4-10.5,4-14.6,6.9
					c4,2.1,7.9,6.8,7.9,9.7c0,2.8-0.8,4.9-2.4,6.3c-2.5,1.4-5.8,2.1-9.7,2.1h-0.5c-0.7,0-1.2-0.9-1.2-2c0-1.1,0.5-2.1,1.2-2.1h0.4
					c5.4,0,9.7-1.2,10.6-2.1c-0.1-2.5-4.2-6.7-7.6-8.3c-0.5-0.2-0.9-0.5-1.2-0.9c-0.2-0.3-0.3-0.8-0.3-1.5c0-0.9,0.1-1.9,0.7-2.5
					c1.2-1.2,2.5-2.2,5.1-3.6c5.1-2.7,10.1-4.5,12.1-5.2C273.4,17.2,273.8,17,274,17z"/>
			</g>
			<g>
				<g>
					<path class="st1" d="M57.1,42.4c-1.2,0-2.2-0.2-3-0.9c-1.3-1-2-3-2.3-5.5c-0.3-1.9-0.4-4.2-0.5-6.6c-0.1-3.6-0.4-9.1-0.9-12.3
						c0-0.1,0-0.3,0-0.4c0-0.2,0-0.3,0.3-0.7c0.6-0.8,0.9-1.4,1.3-2.1c0.3-0.5,0.4-0.6,0.5-0.6c0.2,0,0.3,0.3,0.5,1.2
						c0.8,6.3,0.1,15,1.1,19.8c0.2,1.2,0.4,1.6,0.7,2.4c0.5,1.1,1.3,1.6,2.6,1.7c1.4,0,2.1,0.7,2.1,2c0,1.6-0.8,2.1-1.9,2.1H57.1z"
						/>
					<path class="st1" d="M57.6,42.4h-0.3c-1.1,0-1.7-0.7-1.7-2c0-1.4,0.6-2.1,1.7-2.1h0.3c2.9,0,4.8-1.4,6.2-2.8
						c1.4-1.4,2.4-2.9,3.4-2.9c0.3,0,0.7,0.1,1,0.5c1.7,1.7,5.1,5.2,6.8,5.2h0.2c1.2,0,1.9,0.6,1.9,1.9c0,1.4-0.6,2.2-1.9,2.2h-0.2
						c-1.6,0-3.2-1.1-3.5-1.4c-0.3,1.2-1.7,2.7-2.4,2.7c-0.6,0-5.9-1.6-7.5-3.9C61.3,41.4,59.3,42.4,57.6,42.4z M68,37.1
						C67.4,36.5,66.7,36,66,36c-0.4,0-0.5,0.1-1,0.5c-0.3,0.3-0.5,0.5-0.5,0.7c0,0.3,0.5,0.6,2.1,1.3c0.7,0.3,2.3,1,2.7,1
						c0.2,0,0.2-0.1,0.2-0.2C69.7,39.1,68.5,37.7,68,37.1z"/>
					<path class="st1" d="M86.3,54.9c0.2-0.1,0.2-0.1,0.2,0.1c0,1-0.4,2-0.9,2.3l-7.4,4.1c-0.1,0.1-0.2,0-0.2-0.1
						c0-0.5,0.2-1.4,0.4-1.8c0.2-0.3,0.5-0.6,1.2-1L86.3,54.9z"/>
					<path class="st1" d="M97.6,54.3c0.2-0.1,0.2-0.1,0.2,0.1c0,1-0.4,2-0.9,2.3l-7.4,4.1c-0.1,0.1-0.2,0-0.2-0.1
						c0-0.5,0.2-1.4,0.4-1.8c0.2-0.3,0.5-0.6,1.2-1L97.6,54.3z"/>
					<path class="st1" d="M96.3,50.1c0.2,0.1,0.1,0.2,0,0.3c-0.4,0.6-1.9,2.2-2.5,3c-0.1,0.2-0.2,0.2-0.4,0
						c-0.8-0.5-2.6-1.9-3.1-2.6c-0.1-0.2-0.1-0.2,0-0.4c0.6-0.9,1.6-2.1,2.3-2.8c0.3-0.3,0.4-0.4,0.5-0.2
						C93.8,48.2,95.1,49.3,96.3,50.1z"/>
					<path class="st1" d="M84.7,42.3c-0.6,3.1,0.8,5,1,7.1c0.1,0.7-0.6,2.6-1,3.4c-0.1,0.2-0.2,0.3-0.4,0.3c-1.1,0-2.3-1.5-3-2.5
						C80.4,49.2,80,47.1,80,45c0-1.7,0.2-3.5,0.6-5.2c-1.4,1.7-3.1,2.5-5.1,2.5h-0.4c-1.1,0-1.7-0.7-1.7-2.1c0-1.3,0.6-2,1.7-2h0.4
						c3.7,0,5.8-2.7,7-4.1c0.2-0.2,0.5-0.9,1.1-0.9c0.6,0,0.2,1.2,0.1,1.5C83.3,36.5,82,39.3,82,42c0,1.1,0.1,2.2,0.6,3.2
						c1.2-7.2,4.8-11.1,9.9-11.1c1.4,0,4.2,0.2,4.2,2.1c0,0.8-0.3,1.9-0.6,3.2c-0.3,0.9-0.5,0.8-1.9-0.2c-0.9-0.6-1.9-0.8-2.8-0.8
						c-2.2,0-4.7,1.5-6.2,3.1C84.9,41.7,84.7,42.1,84.7,42.3z"/>
					<path class="st1" d="M130.8,55.1c0.2-0.1,0.2-0.1,0.2,0.1c0,1-0.4,2-0.9,2.3l-7.4,4.1c-0.1,0.1-0.2,0-0.2-0.1
						c0-0.5,0.2-1.4,0.4-1.8c0.2-0.3,0.5-0.6,1.2-1L130.8,55.1z"/>
					<path class="st1" d="M111.3,40.6c0.4-0.7,0.8-1.2,1.2-1.2c0.1,0,0.2,0.1,0.2,0.3c0,0.3-0.1,0.7-0.3,1.1c-0.9,2-1.2,3.2-1.2,4.4
						c0,3.3,4,5.5,6.9,5.5c4.8,0,11-2.1,12.4-5.2c0.1-0.4,0.1-0.9,0.1-1.3c0-0.7-0.1-1.3-0.2-1.6c-0.3,0-0.5,0-1,0
						c-1.1,0-2.9-0.1-4.1-0.8c-1.2-0.7-1.7-1.6-1.7-2.8c0-1.1,0.6-2.7,1.1-4c0.9-2,2.2-3.9,3.3-3.9c2.7,0,4.4,3.3,4.5,7.1h1.5
						c1,0,1.5,0.6,1.5,1.9c0,1.5-0.5,2.2-1.5,2.2l-1.7,0.1c-0.3,1.7-0.5,3-0.9,4.2c-0.1,0.5-0.4,1.3-0.7,1.8
						c-1.6,3.2-6.9,6.3-12.5,6.3c-4.7,0-8.8-2.1-8.8-7.6C109.7,45.3,110.2,42.6,111.3,40.6z M129.7,21.3c0.3-0.3,0.4-0.4,0.6-0.2
						c0.9,0.9,1.8,1.9,2.8,2.5c0.3,0.2,0.3,0.3,0,0.6c-0.8,0.9-1.6,1.8-2.4,2.7c-0.2,0.2-0.3,0.2-0.5,0c-0.7-0.5-1.7-1.3-2.6-2.2
						c-0.5,0.6-1.6,1.8-2,2.1c-0.2,0.1-0.3,0.3-0.7,0.1c-0.9-0.6-2.1-1.5-2.8-2.5c-0.2-0.2-0.2-0.3,0-0.6c0.7-0.8,1.6-1.9,2.5-2.7
						c0.2-0.2,0.3-0.2,0.6,0.1c0.7,0.7,1.9,1.8,2.6,2.2C128.3,22.8,129.3,21.7,129.7,21.3z M128,35.7c-0.3-0.2-0.5-0.3-0.9-0.3
						c-0.8,0-1.3,0.9-1.3,1.4c0,0.4,0.6,0.9,1.4,1.2c0.8,0.3,1.6,0.4,2.1,0.4c0.3,0,0.4,0,0.4-0.1C129.6,37.7,128.8,36.3,128,35.7z"
						/>
					<path class="st1" d="M138.8,2.7c1.2,0,3,1.7,3,3.7c0,0.7-0.1,1.4-0.3,2.1c-0.5,1.4-1.7,2.2-3.2,2.2c-1.4,0-2.4-1.1-2.4-2.4
						C135.8,6.6,137.9,2.7,138.8,2.7z M138.4,5.5c-0.5,0-1.3,1.1-1.3,1.7c0,0.5,0.7,1,1.4,1c0.9,0,2-0.5,2-0.9
						C140.5,7.1,139.4,5.5,138.4,5.5z"/>
					<path class="st1" d="M140.7,29.8c0,1.6-0.2,3.1-0.6,4.2c3.8-3.1,7-4.9,8.8-4.9c1,0,2.2,0.2,3.3,0.7c1.5,0.7,2.1,1.4,2.1,2.8
						c0,2.1-1.5,5.3-3.1,6.3c1.5-0.4,3-0.6,4.4-0.6h0.5c1.2,0,1.8,0.7,1.8,2c0,1.4-0.6,2.1-1.8,2.1h-0.7c-7.9,0.3-11.6,0.3-13.1,0.3
						c-2.1,0-4.7-0.1-8.2-0.3h-0.5c-1.2,0-1.9-0.7-1.9-2.1c0-1.3,0.6-2,1.9-2h2c0.8-0.7,2.1-2,3.3-3.2c0-0.7,0-1.5,0-2.1
						c0-5.1-0.9-9.8-1.3-12.6c-0.1-0.7-0.6-2.3-0.7-3.1c0-0.1-0.1-0.3-0.1-0.5c0-0.3,0.4-1.1,0.7-1.8c0.4-0.9,1-1.9,1.3-1.9
						c0.1,0,0.2,0.1,0.3,0.4c0.5,1.7,1,2.6,1.4,3.2c0.1,0.1,0.1,0.3,0.1,0.4c0,0.1,0,0.2-0.1,0.4c-0.1,0.4-0.7,1.5-1,1.9
						C140.1,23.1,140.7,26.7,140.7,29.8z M147.2,32.8c-3.4,0-6.6,2.6-9.7,5.6c6.1-0.4,12-1.5,14.4-3.2
						C150.9,33.7,148.9,32.8,147.2,32.8z"/>
					<path class="st1" d="M158.4,20.2c-0.1,0-0.2,0-0.2,0c-0.5,0-1-0.3-1.4-0.7c-0.5-0.6-0.7-1.3-0.7-2.2c0-0.4,0.1-0.9,0.2-1.3
						c0.1-0.4,0.5-1.2,0.9-1.2c0.2,0,0.2,0.2,0.2,0.7c0,0.1,0,0.6,0,0.7c0,0.6,0.4,1,1.2,1.1h0c0.8,0,1.3-0.5,1.7-1.5
						c0.1-0.4,0.5-1.8,1.1-1.8c0.2,0,0.3,0.2,0.3,0.7v0.2c0,0.5,0.2,0.7,0.7,0.7c0.1,0,0.2,0,0.3,0c0.7-0.1,1.1-0.7,1.3-1.4
						c0.3-1,0.5-1.3,0.8-1.3c0.2,0,0.3,0.2,0.4,0.5c0.1,0.3,0.1,0.6,0.1,1c0,0.7-0.1,1.4-0.5,2.1c-0.5,1-1.2,1.9-2.5,1.9
						c-0.5,0-0.8-0.2-1-0.3c-0.2-0.1-0.2-0.1-0.3,0C160.1,19.5,159.2,20.1,158.4,20.2z M164.1,5.6c0,0.3,0.1,0.4,0.1,0.6
						c0,0.8-0.2,1.5-0.5,2.2c0.3,0.2,0.5,0.4,0.5,0.6c0,0.5-0.2,1.1-0.6,1.6l-0.8-0.5c-1,1.5-1.7,2.4-2.3,2.8
						c-0.6,0.4-1.6,0.7-2.9,0.8c-0.7,0-0.8-0.2-0.6-0.3c2.4-1.4,4-2.8,4.8-3.9c-0.6-0.5-1.6-1.1-1.6-2c0-0.6,0.3-1.2,0.9-2
						c0.6-0.8,1.2-1.2,1.9-1.2C163.7,4.3,164,5,164.1,5.6z M161.4,6.9c0.1,0.3,0.5,0.6,1.2,0.9c0.1-0.2,0.2-0.7,0.2-1
						c0-0.4-0.2-0.7-0.6-0.7C162,6.2,161.7,6.4,161.4,6.9z"/>
					<path class="st1" d="M164.1,35.8c0,1,1.1,2.2,2.4,2.4c0.3,0,0.6,0,0.9,0h0.2c1.5,0,1.5,1.2,1.5,1.8c0,0.5,0,2.2-1.5,2.2h-0.3
						c-0.3,0-0.5,0-1,0c-2.7-0.3-3.7-2.7-3.9-3c-0.4,1.1-2.6,3-6.6,3h-0.2c-1.1,0-1.7-1-1.7-2c0-1,0.6-2.1,1.7-2.1h1.2
						c1.8,0,4.3-0.3,5.8-2.9c0.5-0.8,0.7-0.9,0.9-0.9C164,34.5,164.1,34.9,164.1,35.8z M165.6,25.3c0.2,0.1,0.1,0.2,0,0.3
						c-0.4,0.6-1.9,2.2-2.5,3c-0.1,0.2-0.2,0.2-0.4,0c-0.8-0.5-2.6-1.9-3.1-2.6c-0.1-0.2-0.1-0.2,0-0.4c0.6-0.9,1.6-2.1,2.3-2.8
						c0.3-0.3,0.4-0.4,0.5-0.2C163.1,23.4,164.4,24.5,165.6,25.3z"/>
					<path class="st1" d="M171.9,40.5c-1,1.2-2.1,1.9-4.1,1.9h-0.4c-1.2,0-1.8-0.7-1.8-2.2c0-1.3,0.6-1.9,1.8-1.9h0.4
						c1,0,1.8-0.1,2.6-0.4c0.7-0.2,1.1-0.5,1.2-0.8c0-3.1-1.1-9.6-1.7-15.9c0-0.7-0.5-2.9-0.7-3.8c0-0.1,0-0.3,0-0.4
						c0-0.5,0.6-1.7,1-2.4c0.5-0.9,0.9-1.6,1.3-1.6c0.1,0,0.2,0.1,0.3,0.4c0.5,1.8,1.1,2.6,1.5,3.3c0.1,0.2,0.2,0.3,0.2,0.5
						c0,0.1,0,0.1,0,0.2c-0.1,0.4-0.7,1.5-1,1.9c0.3,6.1,1.3,11,1.3,14C173.7,36.3,173.1,38.7,171.9,40.5z"/>
					<path class="st1" d="M181.9,42.4c-0.2,0-0.3-0.3-0.3-1.2c0-5.4-2-20.3-2-22.7c0-1.2,0.8-3.1,1.5-4.4c0.2-0.4,0.6-0.9,0.8-0.9
						c0.2,0,0.3,0.3,0.3,1.4c0.2,3.9,1.3,13,1.3,19.6c0,2.6-0.2,4.9-0.6,6.2C182.5,41.7,182.2,42.4,181.9,42.4z"/>
					<path class="st1" d="M206.2,2.2c0,0.9-0.2,1.8-0.5,2.6c0.4,0.2,0.6,0.5,0.6,0.7c0,0.7-0.3,1.3-0.6,1.8
						c-0.1,0.1-0.1,0.1-0.2,0.1l-0.9-0.6c-0.9,1.4-2.3,3.1-4.4,4.1c-0.8,0.4-1.7,0.7-2.6,0.7c-0.5,0-0.7-0.1-0.7-0.2
						c0-0.2,0.4-0.3,1-0.7c1.5-0.9,4.5-3.1,5.5-4.5c-0.8-0.6-1.9-1.3-1.9-2.4c0-0.8,0.4-1.5,1.1-2.3c0.7-1,1.5-1.4,2.2-1.4
						C205.8,0,206.2,1.2,206.2,2.2z M203,3c0,0,0,0.1,0,0.1c0,0.2,0.8,0.8,1.4,1c0.2-0.3,0.2-0.6,0.2-1.2c0-0.5-0.2-0.8-0.6-0.8
						C203.7,2.2,203.2,2.5,203,3z"/>
					<path class="st1" d="M205.3,15.3c0.3-0.3,0.4-0.4,0.6-0.2c0.9,0.9,1.8,1.9,2.8,2.5c0.3,0.2,0.3,0.3,0,0.6
						c-0.8,0.9-1.6,1.8-2.4,2.7c-0.2,0.2-0.3,0.2-0.5,0c-0.7-0.5-1.7-1.3-2.6-2.2c-0.5,0.6-1.6,1.8-2,2.1c-0.2,0.1-0.3,0.3-0.7,0.1
						c-0.9-0.6-2.1-1.5-2.8-2.5c-0.2-0.2-0.2-0.3,0-0.6c0.7-0.8,1.6-1.9,2.5-2.7c0.2-0.2,0.3-0.2,0.6,0.1c0.7,0.7,1.9,1.8,2.6,2.2
						C203.9,16.8,204.9,15.7,205.3,15.3z M210.6,37.5c0.9,0.6,1.6,0.8,2.1,0.8h0.6c1.2,0,1.9,0.6,1.9,1.9c0,1.5-0.7,2.2-2,2.2h-0.6
						c-1.4,0-2.7-0.5-4-1.6c-1.3-1.1-2.1-2.9-2.4-5.4c-0.4,0.6-0.7,1.3-1.5,1.8c-1.1,0.8-2.9,1.1-4.7,1.1c-1.3,0-2.5-0.2-2.5-1.2
						c0.6-4,1.1-4.6,3-6.2c0.8-0.7,3.2-2.1,4.2-2.8c0-0.4-0.1-0.7-0.1-1c0-0.9,0.2-1.4,0.7-2.2c0.3-0.5,0.5-0.9,0.7-0.9
						c0.2,0,0.3,0.3,0.4,1c0.6,3.7,0.9,6.7,1.4,8.5C208.3,35.2,209.3,36.5,210.6,37.5z M205.3,30.2c-1.7,1.1-4.5,2.8-4.6,3.3
						c0,0.3,0.5,0.4,1.3,0.4c1.1,0,2.7-0.3,3.9-0.9C205.6,32,205.5,31.5,205.3,30.2z"/>
					<path class="st1" d="M216,28.5c-1.3,0-2-1.3-2-2.7c0-0.4,0.1-0.9,0.2-1.4c0.1-0.4,0.4-1.4,0.9-1.4c0.2,0,0.4,0.4,0.4,1v0.5
						c0,0.6,0.4,1,1.1,1h0.1c0.8,0,1.4-0.6,1.6-1.7c0.1-0.5,0.4-1.9,1.1-1.9c0.2,0,0.4,0.3,0.4,1c0,0.3,0.2,0.6,0.7,0.6
						c0.8,0,1.5-0.6,1.6-1.5c0.2-1.2,0.4-1.5,0.7-1.5c0.4,0,0.6,1.2,0.6,1.9c0,0.5-0.1,1.1-0.3,1.8c-0.4,1.2-1.2,2.1-2.7,2.1
						c-0.3,0-0.6-0.1-0.8-0.2c-0.1-0.1-0.2-0.1-0.4,0.2C218.2,27.6,217.3,28.5,216,28.5z M222.9,16.2c0.2-0.1,0.1,0.1,0.1,0.1
						c-0.1,0.7-0.4,1.5-0.9,2.1c-0.1,0.2-0.4,0.3-0.9,0.6l-7.1,3.3c-0.1,0-0.1,0-0.1-0.1c0-0.3,0.1-0.8,0.3-1.3
						c0.3-0.6,0.4-0.8,0.5-0.9c0.1-0.1,0.3-0.2,0.6-0.4L222.9,16.2z"/>
					<path class="st1" d="M221.3,35.8c0,1,1.1,2.2,2.4,2.4c0.3,0,0.6,0,0.9,0h0.2c1.5,0,1.5,1.2,1.5,1.8c0,0.5,0,2.2-1.5,2.2h-0.3
						c-0.3,0-0.5,0-1,0c-2.7-0.3-3.7-2.7-3.9-3c-0.4,1.1-2.6,3-6.6,3h-0.2c-1.1,0-1.7-1-1.7-2c0-1,0.6-2.1,1.7-2.1h1.2
						c1.8,0,4.3-0.3,5.8-2.9c0.5-0.8,0.7-0.9,0.9-0.9C221.2,34.5,221.3,34.9,221.3,35.8z M221.1,47.8c0.3-0.3,0.4-0.4,0.6-0.2
						c0.9,0.9,1.8,1.9,2.8,2.5c0.3,0.2,0.3,0.3,0,0.6c-0.8,0.9-1.6,1.8-2.4,2.7c-0.2,0.2-0.3,0.2-0.5,0c-0.7-0.5-1.7-1.3-2.6-2.2
						c-0.5,0.6-1.6,1.8-2,2.1c-0.2,0.1-0.3,0.3-0.7,0.1c-0.9-0.6-2.1-1.5-2.8-2.5c-0.2-0.2-0.2-0.3,0-0.6c0.7-0.8,1.6-1.9,2.5-2.7
						c0.2-0.2,0.3-0.2,0.6,0.1c0.7,0.7,1.9,1.8,2.6,2.2C219.6,49.4,220.6,48.2,221.1,47.8z"/>
					<path class="st1" d="M235.8,45.8c0.2-0.1,0.2-0.1,0.2,0.1c0,1-0.4,2-0.9,2.3l-7.4,4.1c-0.1,0.1-0.2,0-0.2-0.1
						c0-0.5,0.2-1.4,0.4-1.8c0.2-0.3,0.5-0.6,1.2-1L235.8,45.8z"/>
					<path class="st1" d="M239,38.3c1.2,0,1.8,0.7,1.8,2c0,1.4-0.6,2.1-1.8,2.1h-0.5c-3.8,0-6.1-0.8-7.8-1.7
						c-1.4,0.9-3.4,1.7-5.8,1.7h-0.4c-1.1,0-1.7-0.7-1.7-2.1c0-1.3,0.6-2,1.7-2h0.4c1.6,0,2.6-0.2,3.1-0.7c-0.1-0.4-0.2-0.9-0.2-1.3
						c0-4.1,4.6-9.2,7.2-9.2c1.5,0,2.3,1.7,2.3,3.9c0,2.2-0.9,5-2.7,6.6c0.8,0.4,2.1,0.7,3.8,0.7H239z M234.4,18.4
						c0.2,0.1,0.1,0.2,0,0.3c-0.4,0.6-1.9,2.2-2.5,3c-0.1,0.2-0.2,0.2-0.4,0c-0.8-0.5-2.6-1.9-3.1-2.6c-0.1-0.2-0.1-0.2,0-0.4
						c0.6-0.9,1.6-2.1,2.3-2.8c0.3-0.3,0.4-0.4,0.5-0.2C231.9,16.4,233.2,17.6,234.4,18.4z M233.3,31.2c-1.5,0-2.9,1.6-2.9,2.2
						c0,0.9,0.7,1.6,2.2,2.5c0.5-0.2,2.6-1.7,2.6-2.4C235.1,32.1,234.6,31.2,233.3,31.2z"/>
					<path class="st1" d="M245.1,20c1.2,0,3,1.7,3,3.7c0,0.7-0.1,1.4-0.3,2.1c-0.5,1.4-1.7,2.2-3.2,2.2c-1.4,0-2.4-1.1-2.4-2.4
						C242.1,23.9,244.2,20,245.1,20z M244.7,22.8c-0.5,0-1.3,1.1-1.3,1.7c0,0.5,0.7,1,1.4,1c0.9,0,2-0.5,2-0.9
						C246.8,24.3,245.7,22.8,244.7,22.8z"/>
					<path class="st1" d="M247,35.8c0,1,1.1,2.2,2.4,2.4c0.3,0,0.6,0,0.9,0h0.2c1.5,0,1.5,1.2,1.5,1.8c0,0.5,0,2.2-1.5,2.2h-0.3
						c-0.3,0-0.5,0-1,0c-2.7-0.3-3.7-2.7-3.9-3c-0.4,1.1-2.6,3-6.6,3h-0.2c-1.1,0-1.7-1-1.7-2c0-1,0.6-2.1,1.7-2.1h1.2
						c1.8,0,4.3-0.3,5.8-2.9c0.5-0.8,0.7-0.9,0.9-0.9C246.9,34.5,247,34.9,247,35.8z M246.8,47.8c0.3-0.3,0.4-0.4,0.6-0.2
						c0.9,0.9,1.8,1.9,2.8,2.5c0.3,0.2,0.3,0.3,0,0.6c-0.8,0.9-1.6,1.8-2.4,2.7c-0.2,0.2-0.3,0.2-0.5,0c-0.7-0.5-1.7-1.3-2.6-2.2
						c-0.5,0.6-1.6,1.8-2,2.1c-0.2,0.1-0.3,0.3-0.7,0.1c-0.9-0.6-2.1-1.5-2.8-2.5c-0.2-0.2-0.2-0.3,0-0.6c0.7-0.8,1.6-1.9,2.5-2.7
						c0.2-0.2,0.3-0.2,0.6,0.1c0.7,0.7,1.9,1.8,2.6,2.2C245.3,49.4,246.3,48.2,246.8,47.8z"/>
					<path class="st1" d="M262.1,8.3c0.2-0.1,0.2-0.1,0.2,0.1c0,1-0.4,2-0.9,2.3l-7.4,4.1c-0.1,0.1-0.2,0-0.2-0.1
						c0-0.5,0.2-1.4,0.4-1.8c0.2-0.3,0.5-0.6,1.2-1L262.1,8.3z"/>
					<path class="st1" d="M271,14c0.1,0,0.2,0.1,0.2,0.2c0,0.6-0.9,2.3-1.2,2.9c-0.1,0.1-0.2,0.2-0.3,0.3c-1.2,0.4-10.5,4-14.6,6.9
						c4,2.1,7.9,6.8,7.9,9.7c0,2.8-0.8,4.9-2.4,6.3c-2.5,1.4-5.8,2.1-9.7,2.1h-0.5c-0.7,0-1.2-0.9-1.2-2c0-1.1,0.5-2.1,1.2-2.1h0.4
						c5.4,0,9.7-1.2,10.6-2.1c-0.1-2.5-4.2-6.7-7.6-8.3c-0.5-0.2-0.9-0.5-1.2-0.9c-0.2-0.3-0.3-0.8-0.3-1.5c0-0.9,0.1-1.9,0.7-2.5
						c1.2-1.2,2.5-2.2,5.1-3.6c5.1-2.7,10.1-4.5,12.1-5.2C270.4,14.2,270.8,14,271,14z"/>
				</g>
			</g>
		</g>
	</g>
	<g>
		<g>
			<g>
				<g>
					<path class="st2" d="M8.7,32c0,0,1.5-3,4.6-1.4c-1.3-2.1-0.6-4.8,0-5.6c1,3.4,2.8,6.3,6.9,7h2.4l-1,0c3,0,5.8-2.2,5.8-6
						c0-3.8-2.3-5-3.6-5.1c-0.6,0-1.2,0.1-1.7,0.3c-1.3,0.3-2.2,1.5-2.2,2.8c0,1.6,1.4,2.9,3.1,2.9c0.6,0,1.2-0.2,1.7-0.5
						c-0.1,1.6-1.4,3-3.4,3c-2.5,0-5.5-2.5-4.3-7.5c-1.1-0.9-4.6-1.2-5.4,1.8c0,0,0,0,0,0c-0.3-0.2-0.6-0.3-1-0.3
						c-1.1,0-2.1,1.2-2.1,2.6c0,0.8,0.3,1.4,0.7,1.9C4.1,26.9,0,32,0,32s0,0,0,0H8.7z M21.6,32.2l1,0h-2.4c-4,0.7-5.9,3.6-6.9,7
						c-0.6-0.8-1.3-3.5,0-5.6c-3.1,1.6-4.6-1.4-4.6-1.4H0c0,0,0,0,0,0s4,5,9,4.2c-0.4,0.5-0.6,1.1-0.6,1.8c0,1.4,0.9,2.6,2.1,2.6
						c0.4,0,0.7-0.1,1-0.4c0,0.1,0,0.1,0,0.1c0.8,3,4.2,2.8,5.4,1.8c-1.2-5,1.8-7.5,4.3-7.5c2,0,3.3,1.4,3.4,3
						c-0.5-0.3-1.1-0.5-1.7-0.5c-1.7,0-3.1,1.3-3.1,2.9c0,1.3,1,2.4,2.2,2.8c0.5,0.2,1.1,0.3,1.7,0.3c1.3-0.1,3.6-1.3,3.6-5.1
						C27.4,34.5,24.6,32.2,21.6,32.2z"/>
				</g>
			</g>
			<path class="st3" d="M11.7,34.7c0,0-0.1,2.2-0.2,2.7c0,0.8-0.6,1.3-1.2,1.3c-0.7,0-1.1-0.7-1.1-1.4c0-0.5,0.2-0.9,0.6-1.1
				C9.9,36,10.8,35.2,11.7,34.7z"/>
			<path class="st3" d="M11.4,35c0,0-0.1,1.3-0.1,1.5c0,0.4-0.3,0.8-0.7,0.7c-0.4,0-0.6-0.4-0.6-0.8c0-0.3,0.1-0.5,0.3-0.6
				C10.4,35.8,10.9,35.3,11.4,35z"/>
			<g>
				<g class="st4">
					<path class="st5" d="M10.1,28.4c-1.1-0.5-2.5-1.2-5.8,0.1C3.1,29,2,29.9,1.3,30.6c-1,1,0.3,1.7,2.5,1.7c2.2,0,2.6-0.6,3.9-1.9
						C9.2,28.9,10.9,28.8,10.1,28.4z"/>
				</g>
			</g>
			<g class="st4">
				<g>
					<path class="st5" d="M24.7,21.3c-0.4-0.3-0.9-0.4-1.5-0.4c-0.1,0-0.2,0-0.2,0c0,0,0,0,0,0c0,0,0,0,0,0c-0.1,0-0.2,0-0.3,0
						c-0.1,0-0.3,0-0.4,0c0,0,0,0,0,0.1c-1,0.3-1.8,1-1.7,1.8c0.1,1,1.2,1.7,2.6,1.6c0.9,0,1.7-0.4,2.1-0.9c0.2,0.5,0.4,1.2,0.4,1.8
						c0.1,2.1-1.5,4.2-4,4.2c-1.7,0-2.6-0.1-3.9-1.2c-1.3-1.1-0.3,2.4,4.1,2.4c3.2,0,5.3-2.9,5.3-5.1C27.1,23.9,26.2,22.1,24.7,21.3
						z"/>
				</g>
			</g>
			<g>
				
					<ellipse transform="matrix(0.9999 -1.339453e-002 1.339453e-002 0.9999 -0.2931 0.3103)" class="st5" cx="23" cy="22" rx="1.8" ry="1.2"/>
			</g>
			
				<ellipse transform="matrix(0.9999 -1.250395e-002 1.250395e-002 0.9999 -0.2656 0.2879)" class="st1" cx="22.9" cy="21.4" rx="1" ry="0.5"/>
			<g>
				<path class="st5" d="M4.7,28.2c-1.2,0.4-2,1.2-1.8,1.8c0.2,0.6,1.4,0.7,2.6,0.3c1.2-0.4,2-1.2,1.8-1.8C7.1,28,5.9,27.8,4.7,28.2
					z"/>
			</g>
			<path class="st1" d="M4.9,29.2c0.7-0.2,1.1-0.6,1-0.9c-0.1-0.3-0.7-0.3-1.4-0.1c-0.7,0.2-1.1,0.6-1,0.9
				C3.7,29.4,4.3,29.4,4.9,29.2z"/>
			<g>
				<g class="st4">
					<path class="st5" d="M26.9,37.3c0-2.1-2.1-4.9-5.3-4.9c-4.1,0-5.6,2.2-4.2,2.2c1.4,0,1.3-0.9,3.7-0.9c2.3,0,4.5,2.1,4.4,4.1
						c0,0.3-0.1,0.5-0.1,0.8c-0.3-0.7-1.1-1.2-2.2-1.2c-1.3-0.1-2.4,0.6-2.5,1.5c0,0.8,0.7,1.4,1.7,1.7c0,0,0,0,0,0
						c0.1,0,0.3,0,0.4,0c0,0,0.1,0,0.1,0c0,0,0.1,0,0.1,0c0.2,0,0.4,0,0.6,0C25.8,40.5,26.9,39.2,26.9,37.3z"/>
				</g>
			</g>
			<g>
				
					<ellipse transform="matrix(0.9999 -1.339971e-002 1.339971e-002 0.9999 -0.5131 0.3119)" class="st5" cx="23" cy="38.4" rx="1.8" ry="1.2"/>
			</g>
			<g>
				<path class="st5" d="M21.5,32.4c-0.9,0-1.6,0.3-1.6,0.6c0,0.3,0.7,0.6,1.6,0.6c0.9,0,1.6-0.3,1.6-0.6
					C23.1,32.7,22.4,32.4,21.5,32.4z"/>
			</g>
			<path class="st1" d="M21.4,32.9c0.5,0,0.9-0.1,0.9-0.2c0-0.1-0.4-0.2-0.9-0.2c-0.5,0-0.9,0.1-0.9,0.3
				C20.5,32.8,20.9,32.9,21.4,32.9z"/>
			
				<ellipse transform="matrix(0.9999 -1.250395e-002 1.250395e-002 0.9999 -0.4707 0.2892)" class="st1" cx="22.9" cy="37.8" rx="1" ry="0.5"/>
			<path class="st3" d="M16.9,21.8c0,0-2-1.1-3.6-0.2c-1.6,0.8-1.4,1.6-1.4,2.1c0,0.6,0.3-0.4,1.6-0.3c0.6,0,0.9,1.9,1.8,1.9
				C16.6,25.2,15.1,23.5,16.9,21.8z"/>
			<g>
				<path class="st5" d="M14.5,21.3c-0.9,0-1.6,0.3-1.6,0.7c0,0.4,0.7,0.6,1.6,0.6c0.9,0,1.6-0.3,1.6-0.7
					C16.1,21.6,15.4,21.3,14.5,21.3z"/>
			</g>
			<path class="st1" d="M14.4,21.9c0.5,0,0.9-0.1,0.9-0.3c0-0.2-0.4-0.3-0.9-0.3c-0.5,0-0.9,0.1-0.9,0.3
				C13.5,21.8,13.9,21.9,14.4,21.9z"/>
			
				<ellipse transform="matrix(5.010973e-002 -0.9987 0.9987 5.010973e-002 -15.4374 33.937)" class="st3" cx="10.1" cy="25.1" rx="1.8" ry="1.5"/>
			<g>
				<path class="st5" d="M10.1,23.3c-0.6,0-1,0.5-1,1.1c0,0.6,0.5,1.1,1.1,1c0.6,0,1-0.5,1-1.1C11.2,23.8,10.7,23.3,10.1,23.3z"/>
			</g>
			
				<ellipse transform="matrix(1 -9.739882e-003 9.739882e-003 1 -0.2306 9.935369e-002)" class="st1" cx="10.1" cy="23.7" rx="0.5" ry="0.4"/>
		</g>
		<g>
			<g>
				<g>
					<path class="st2" d="M293.3,32l-1,0h2.4c4-0.7,5.9-3.6,6.9-7c0.6,0.8,1.3,3.5,0,5.6c3.1-1.6,4.6,1.4,4.6,1.4h8.7c0,0,0,0,0,0
						s-4.1-5.1-9.1-4.2c0.4-0.5,0.7-1.1,0.7-1.9c0-1.4-0.9-2.6-2.1-2.6c-0.4,0-0.7,0.1-1,0.3c0,0,0,0,0,0c-0.8-3-4.2-2.8-5.4-1.8
						c1.2,5-1.8,7.5-4.3,7.5c-2,0-3.3-1.4-3.4-3c0.5,0.3,1.1,0.5,1.7,0.5c1.7,0,3.1-1.3,3.1-2.9c0-1.3-1-2.4-2.2-2.8
						c-0.5-0.2-1.1-0.3-1.7-0.3c-1.3,0.1-3.6,1.3-3.6,5.1C287.4,29.7,290.2,32,293.3,32z M306.1,32.2c0,0-1.5,3-4.6,1.4
						c1.3,2.1,0.6,4.8,0,5.6c-1-3.4-2.8-6.3-6.9-7h-2.4l1,0c-3,0-5.8,2.2-5.8,6c0,3.8,2.3,5,3.6,5.1c0.6,0,1.2-0.1,1.7-0.3
						c1.3-0.3,2.2-1.5,2.2-2.8c0-1.6-1.4-2.9-3.1-2.9c-0.6,0-1.2,0.2-1.7,0.5c0.1-1.6,1.4-3,3.4-3c2.5,0,5.5,2.5,4.3,7.5
						c1.1,0.9,4.6,1.2,5.4-1.8c0,0,0,0,0-0.1c0.3,0.2,0.7,0.4,1,0.4c1.1,0,2.1-1.2,2.1-2.6c0-0.7-0.2-1.3-0.6-1.8c5,0.8,9-4.2,9-4.2
						s0,0,0,0H306.1z"/>
				</g>
			</g>
			<path class="st3" d="M303.2,34.7c0,0,0.1,2.2,0.2,2.7c0,0.8,0.6,1.3,1.2,1.3c0.7,0,1.1-0.7,1.1-1.4c0-0.5-0.2-0.9-0.6-1.1
				C304.9,36,304,35.2,303.2,34.7z"/>
			<path class="st3" d="M303.4,35c0,0,0.1,1.3,0.1,1.5c0,0.4,0.3,0.8,0.7,0.7c0.4,0,0.6-0.4,0.6-0.8c0-0.3-0.1-0.5-0.3-0.6
				C304.4,35.8,303.9,35.3,303.4,35z"/>
			<g>
				<g class="st4">
					<path class="st5" d="M313.5,30.6c-0.7-0.7-1.8-1.6-2.9-2.1c-3.3-1.3-4.7-0.6-5.8-0.1c-0.8,0.4,0.9,0.5,2.4,2
						c1.3,1.3,1.8,1.9,3.9,1.9C313.1,32.3,314.4,31.5,313.5,30.6z"/>
				</g>
			</g>
			<g class="st4">
				<g>
					<path class="st5" d="M297.2,28.2c-1.3,1.1-2.2,1.2-3.9,1.2c-2.5,0-4.1-2.1-4-4.2c0-0.7,0.2-1.3,0.4-1.8
						c0.4,0.5,1.2,0.9,2.1,0.9c1.4,0.1,2.5-0.7,2.6-1.6c0-0.8-0.7-1.5-1.7-1.8c0,0,0,0,0-0.1c-0.1,0-0.3,0-0.4,0c-0.1,0-0.2,0-0.3,0
						c0,0,0,0,0,0c0,0,0,0,0,0c-0.1,0-0.2,0-0.2,0c-0.6,0-1.1,0.2-1.5,0.4c-1.5,0.8-2.3,2.5-2.3,4.1c0,2.2,2.1,5.1,5.3,5.1
						C297.5,30.6,298.5,27.1,297.2,28.2z"/>
				</g>
			</g>
			<g>
				
					<ellipse transform="matrix(1.343745e-002 -0.9999 0.9999 1.343745e-002 265.8341 313.5031)" class="st5" cx="291.8" cy="22" rx="1.2" ry="1.8"/>
			</g>
			
				<ellipse transform="matrix(1.338990e-002 -0.9999 0.9999 1.338990e-002 266.6262 312.9846)" class="st1" cx="291.9" cy="21.4" rx="0.5" ry="1"/>
			<g>
				<path class="st5" d="M310.1,28.2c1.2,0.4,2,1.2,1.8,1.8c-0.2,0.6-1.4,0.7-2.6,0.3c-1.2-0.4-2-1.2-1.8-1.8
					C307.7,28,308.9,27.8,310.1,28.2z"/>
			</g>
			<path class="st1" d="M309.9,29.2c-0.7-0.2-1.1-0.6-1-0.9c0.1-0.3,0.7-0.3,1.4-0.1c0.7,0.2,1.1,0.6,1,0.9
				C311.1,29.4,310.5,29.4,309.9,29.2z"/>
			<g>
				<g class="st4">
					<path class="st5" d="M293.2,32.4c-3.2,0-5.3,2.8-5.3,4.9c0,1.9,1.1,3.1,3.4,3.3c0.2,0,0.4,0,0.6,0c0,0,0.1,0,0.1,0
						c0,0,0.1,0,0.1,0c0.1,0,0.3,0,0.4,0c0,0,0,0,0,0c1-0.2,1.7-0.9,1.7-1.7c0-0.9-1.2-1.6-2.5-1.5c-1,0.1-1.9,0.6-2.2,1.2
						c0-0.2-0.1-0.5-0.1-0.8c-0.1-2,2.1-4.1,4.4-4.1c2.4,0,2.4,0.9,3.7,0.9C298.8,34.6,297.3,32.4,293.2,32.4z"/>
				</g>
			</g>
			<g>
				
					<ellipse transform="matrix(1.344265e-002 -0.9999 0.9999 1.344265e-002 249.426 329.6904)" class="st5" cx="291.8" cy="38.4" rx="1.2" ry="1.8"/>
			</g>
			<g>
				<path class="st5" d="M293.3,32.4c0.9,0,1.6,0.3,1.6,0.6c0,0.3-0.7,0.6-1.6,0.6c-0.9,0-1.6-0.3-1.6-0.6
					C291.7,32.7,292.4,32.4,293.3,32.4z"/>
			</g>
			<path class="st1" d="M293.4,32.9c-0.5,0-0.9-0.1-0.9-0.2c0-0.1,0.4-0.2,0.9-0.2c0.5,0,0.9,0.1,0.9,0.3
				C294.3,32.8,293.9,32.9,293.4,32.9z"/>
			
				<ellipse transform="matrix(1.338990e-002 -0.9999 0.9999 1.338990e-002 250.2204 329.1721)" class="st1" cx="291.9" cy="37.8" rx="0.5" ry="1"/>
			<path class="st3" d="M297.9,21.8c0,0,2-1.1,3.6-0.2c1.6,0.8,1.4,1.6,1.4,2.1c0,0.6-0.3-0.4-1.6-0.3c-0.6,0-0.9,1.9-1.8,1.9
				C298.2,25.2,299.8,23.5,297.9,21.8z"/>
			<g>
				<path class="st5" d="M300.4,21.3c0.9,0,1.6,0.3,1.6,0.7c0,0.4-0.7,0.6-1.6,0.6c-0.9,0-1.6-0.3-1.6-0.7
					C298.7,21.6,299.4,21.3,300.4,21.3z"/>
			</g>
			<path class="st1" d="M300.4,21.9c-0.5,0-0.9-0.1-0.9-0.3c0-0.2,0.4-0.3,0.9-0.3c0.5,0,0.9,0.1,0.9,0.3
				C301.3,21.8,300.9,21.9,300.4,21.9z"/>
			
				<ellipse transform="matrix(0.9988 -4.954106e-002 4.954106e-002 0.9988 -0.8686 15.1253)" class="st3" cx="304.7" cy="25.1" rx="1.5" ry="1.8"/>
			<g>
				<path class="st5" d="M304.7,23.3c0.6,0,1,0.5,1,1.1c0,0.6-0.5,1.1-1.1,1c-0.6,0-1-0.5-1-1.1C303.6,23.8,304.1,23.3,304.7,23.3z"
					/>
			</g>
			
				<ellipse transform="matrix(4.870114e-003 -1 1 4.870114e-003 279.5121 328.3322)" class="st1" cx="304.7" cy="23.7" rx="0.4" ry="0.5"/>
		</g>
	</g>
</g>
</svg>
