<?xml version="1.0" encoding="utf-8"?>
<!-- Generator: Adobe Illustrator 19.2.0, SVG Export Plug-In . SVG Version: 6.00 Build 0)  -->
<svg version="1.1" id="Layer_1" xmlns="http://www.w3.org/2000/svg" xmlns:xlink="http://www.w3.org/1999/xlink" x="0px" y="0px"
	 viewBox="0 0 128 46.5" style="enable-background:new 0 0 128 46.5;" xml:space="preserve">
<style type="text/css">
	.st0{fill:#097B70;}
	.st1{fill:none;}
</style>
<g>
	<g>
		<path class="st0" d="M54,30.7h-1.3c-0.2,0-0.5,0-0.6-0.1c-0.4-0.2-0.7-0.5-1-1c-0.4-0.7-0.6-1.6-0.7-2.9c-0.4,0.6-0.8,0.9-1,1.2
			c-0.4,0.3-0.7,0.5-0.9,0.5c-0.1,0-0.3,0-0.5-0.1l-1.2-0.2c-0.5-0.1-0.8-0.2-0.9-0.2s-0.2-0.1-0.2-0.2c0-0.2,0.2-0.7,0.7-1.7
			s0.8-1.5,1-1.7c0.2-0.2,0.5-0.4,0.9-0.7c0.2-0.2,0.6-0.4,1.1-0.7l0.5-0.3c0-0.1,0-0.2,0-0.3c0-0.1,0-0.2,0-0.3
			c0-0.2,0.1-0.6,0.2-0.9c0.1-0.4,0.3-0.8,0.6-1.4l0.9,6.1c0.2,1,0.3,1.6,0.6,2c0.2,0.2,0.4,0.3,0.6,0.3H54V30.7z M51.7,16.9
			l-1.1,1.8L49.2,18l-0.8,1.6l-1.8-1l1-1.7l1.5,0.7l0.9-1.5L51.7,16.9z M50.2,25.2L50,24c-0.2,0.1-0.4,0.2-0.5,0.2
			c-0.4,0.2-0.7,0.4-0.9,0.5c-0.2,0.1-0.3,0.3-0.4,0.4c-0.1,0.1-0.2,0.3-0.2,0.3c0,0.1,0.1,0.2,0.3,0.2c0.2,0.1,0.5,0.1,0.7,0.1
			c0.1,0,0.3,0,0.5-0.1C49.6,25.5,49.9,25.4,50.2,25.2z"/>
		<path class="st0" d="M58.7,30.7h-5.4v-2.7h4.2l-1.2-6.7L55.7,21c0-0.4,0.1-0.8,0.2-1.2c0.2-0.5,0.4-1.1,0.8-1.8l0.5,0.2
			c0,0,0,0.1,0,0.3c0,0.2,0.1,0.4,0.4,0.6c0.2,0.2,0.6,0.4,1.2,0.6c-0.1,0.4-0.1,0.8-0.3,1.2s-0.2,0.8-0.4,1.1L57.6,22l1.1,6.1V30.7
			z"/>
		<path class="st0" d="M63.4,30.7h-1.4c-0.8,0-1.3-0.3-1.7-0.9c-0.4-0.7-0.6-1.9-0.6-3.5v-2.8c0-0.6-0.1-1.1-0.3-1.5
			c-0.1-0.2-0.3-0.4-0.6-0.7l1.1-2.5c0.4,0.5,0.6,1,0.8,1.6c0.2,0.6,0.3,1.4,0.3,2.3v1.9c0,1.4,0.1,2.3,0.3,2.9
			c0.1,0.4,0.4,0.6,0.7,0.6h1.4V30.7z"/>
		<path class="st0" d="M74,30.7H62.7v-2.7h7c-0.8-0.8-1.5-1.4-2.2-1.8c-0.6-0.3-1.2-0.5-1.8-0.5c-0.2,0-0.3,0-0.5,0
			c-0.1,0-0.3,0.1-0.6,0.1c0.4-0.8,0.8-1.4,1.2-1.8c0.4-0.4,0.9-0.6,1.5-0.6c0.4,0,0.8,0.1,1.3,0.3s0.8,0.5,1.3,1
			c0.4,0.4,1,0.9,1.7,1.7c0.5,0.6,0.9,0.9,1.1,1.1c0.3,0.2,0.6,0.3,1.2,0.4V30.7z"/>
		<path class="st0" d="M78.7,30.7h-5.4v-2.7h4.2l-1.2-6.7L75.7,21c0-0.4,0.1-0.8,0.2-1.2c0.2-0.5,0.4-1.1,0.8-1.8l0.5,0.2
			c0,0,0,0.1,0,0.3c0,0.2,0.1,0.4,0.4,0.6c0.2,0.2,0.6,0.4,1.2,0.6c-0.1,0.4-0.1,0.8-0.3,1.2s-0.2,0.8-0.4,1.1L77.6,22l1.1,6.1V30.7
			z"/>
		<path class="st0" d="M82.4,27.9c0,0.6-0.1,1.1-0.2,1.6s-0.4,1.1-0.8,1.9l-0.6-0.2c0.2-0.8,0.2-1.5,0.2-2c0-0.4,0-1-0.1-1.8
			c-0.1-0.8-0.1-1.5-0.2-2.3s-0.3-1.7-0.5-2.7c-0.1-0.4-0.1-0.6-0.1-0.8c0-0.2,0.1-0.5,0.3-1c0.2-0.5,0.5-1.1,0.9-1.8l0.6,3.5
			c0.2,1.3,0.4,2.5,0.5,3.4C82.3,26.5,82.4,27.2,82.4,27.9z"/>
	</g>
	<rect class="st1" width="128" height="46.5"/>
</g>
</svg>
