<?xml version="1.0" encoding="utf-8"?>
<!-- Generator: Adobe Illustrator 19.2.0, SVG Export Plug-In . SVG Version: 6.00 Build 0)  -->
<svg version="1.1" id="Layer_1" xmlns="http://www.w3.org/2000/svg" xmlns:xlink="http://www.w3.org/1999/xlink" x="0px" y="0px"
	 viewBox="0 0 214.5 50.4" style="enable-background:new 0 0 214.5 50.4;" xml:space="preserve">
<style type="text/css">
	.st0{fill:#BA0017;}
	.st1{fill:none;}
</style>
<g>
	<g>
		<g>
			<g>
				<path d="M37.6,24.3c0,0.3-0.1,0.6-0.3,0.8c-0.2,0.3-0.5,0.4-0.8,0.4c-0.3,0-0.5-0.1-0.6-0.2c-0.2-0.2-0.3-0.4-0.3-0.6
					c0-0.3,0.1-0.6,0.4-0.7c0.3-0.2,0.4-0.3,0.4-0.4c0-0.2-0.1-0.3-0.2-0.4c-0.2-0.1-0.4-0.2-0.6-0.2c-0.3,0-0.6,0.1-0.8,0.3
					s-0.3,0.4-0.3,0.7c0,0.2,0.1,0.5,0.3,0.9c0.3,0.6,0.5,0.9,0.6,1.1c0.2,0.5,0.3,1.1,0.3,1.7c0,0.3,0,0.7-0.1,1.1l-0.5,0
					c0-0.1,0-0.2,0-0.2l0-0.4c0-0.3-0.2-0.6-0.6-0.9c-0.6-0.5-1-0.9-1-0.9c-0.4-0.4-0.6-0.9-0.6-1.5c0-0.7,0.2-1.2,0.7-1.6
					c0.5-0.4,1-0.7,1.7-0.7c0.6,0,1.1,0.2,1.5,0.5C37.4,23.3,37.6,23.7,37.6,24.3z M36.2,30.2c0,0.3-0.1,0.5-0.3,0.6
					s-0.4,0.3-0.7,0.3c-0.2,0-0.5-0.1-0.6-0.3c-0.2-0.2-0.3-0.4-0.3-0.6c0-0.3,0.1-0.5,0.3-0.6s0.4-0.3,0.7-0.3
					c0.3,0,0.5,0.1,0.7,0.3C36.2,29.7,36.2,29.9,36.2,30.2z"/>
				<path d="M47.5,20.9c0,0.4-0.1,0.7-0.2,0.9c-0.1,0.3-0.3,0.4-0.6,0.4c-0.1,0-0.2,0-0.2,0c-0.1,0-0.2-0.1-0.3-0.1
					c-0.1,0.2-0.2,0.3-0.3,0.4c-0.2,0.2-0.3,0.2-0.5,0.2c-0.2,0-0.4-0.1-0.5-0.2c-0.1-0.1-0.2-0.3-0.2-0.6c0-0.1,0-0.3,0.1-0.4
					c0-0.1,0.1-0.2,0.1-0.4l0.2-0.1c0,0,0,0.1,0,0.2c0,0.1,0,0.2,0,0.2c0,0.1,0,0.2,0.1,0.3c0,0.1,0.1,0.1,0.2,0.1
					c0.2,0,0.4-0.1,0.5-0.4c0.1-0.1,0.1-0.4,0.2-0.7l0.2,0c0,0.2,0.1,0.4,0.1,0.4c0.1,0.2,0.2,0.2,0.3,0.2c0.2,0,0.3-0.1,0.5-0.4
					c0.1-0.2,0.1-0.4,0.1-0.6l0.2,0c0,0.1,0,0.2,0.1,0.3S47.5,20.8,47.5,20.9z M47.3,22.5c0,0.2-0.1,0.5-0.4,0.7
					c-0.5,0.2-1.2,0.5-2.2,0.9c0-0.2,0.1-0.4,0.3-0.6C45.5,23.2,46.3,22.9,47.3,22.5z"/>
				<path d="M51.5,31h-1.3c-0.8,0-1.4,0-1.8,0.1c-0.4,0-0.6,0.1-0.6,0.2c0,0.2,0.2,0.2,0.7,0.2c0.2,0,0.4,0,0.5,0s0.4,0,0.8,0.1
					c0.2,0,0.4,0.1,0.5,0.1c0.1,0.1,0.2,0.2,0.2,0.4c0,0.9-0.3,1.6-0.9,2c-0.7,0.5-1.8,0.7-3.4,0.7c-1.1,0-1.9-0.2-2.6-0.5
					c-0.7-0.4-1-0.9-1-1.6c0-0.6,0.2-1.2,0.5-1.8c0.1-0.2,0.4-0.7,0.9-1.5l0.3,0.1c-0.2,0.3-0.4,0.6-0.6,0.9c-0.3,0.5-0.4,1-0.4,1.3
					c0,0.6,0.3,1.1,1,1.4c0.6,0.3,1.5,0.4,2.5,0.4c0.7,0,1.4-0.1,1.9-0.2c0.7-0.1,1-0.3,1-0.5c0-0.1,0-0.1-0.1-0.2
					c-0.1,0-0.2-0.1-0.4-0.1c-0.1,0-0.3,0-0.6,0c-0.3,0-0.5,0-0.6,0c-0.3,0-0.5,0-0.7-0.1s-0.2-0.2-0.2-0.4c0-0.6,0.2-1.1,0.6-1.5
					c0.3-0.3,0.7-0.5,1.2-0.7c0.4-0.1,0.8-0.2,1.2-0.2h1.3V31z M46.8,35.7l-0.7,0.6l-0.9-0.5l0.7-0.7L46.8,35.7z M48.4,35.7
					l-0.7,0.6l-0.8-0.5l0.7-0.7L48.4,35.7z"/>
				<path d="M55.3,31H51v-1.3h3.8c0-0.6-0.1-1-0.2-1.3c-0.1-0.2-0.3-0.5-0.7-0.9l0.6-1.2c0.4,0.4,0.6,0.8,0.7,1
					c0.1,0.4,0.2,1,0.2,1.9V31z M54.5,32.8l-0.6,1.1l-1.2-0.6l0.6-1.1L54.5,32.8z"/>
				<path d="M60.4,22.3c0,0.2-0.1,0.4-0.4,0.7c-0.5,0.2-1.2,0.5-2.2,0.9c0-0.2,0.1-0.4,0.3-0.6C58.5,23,59.3,22.7,60.4,22.3z"/>
				<path d="M62.9,31c0,0.5-0.2,1.1-0.7,1.7c-0.4,0.5-0.9,0.9-1.5,1.3c-0.6,0.4-1.1,0.5-1.4,0.5c-0.3,0-0.7,0-1.1-0.1
					c-0.3-0.1-0.7-0.2-1.1-0.3c-0.4-0.1-0.7-0.3-1.1-0.4l0.1-0.3c0.3,0.1,0.7,0.1,1,0.2c0.4,0.1,0.7,0.1,1,0.1c0.6,0,1.3-0.2,2-0.6
					c0.6-0.4,1.2-0.8,1.6-1.4c0.4-0.6,0.7-1.1,0.7-1.5c0-0.4-0.1-0.8-0.3-1.2c-0.2-0.3-0.4-0.7-0.8-1.1l0.4-1.2
					c0.4,0.4,0.7,0.7,0.9,1.1c0.2,0.4,0.3,0.9,0.3,1.4V31z"/>
				<path d="M67.6,22.3c0,0.2-0.1,0.4-0.4,0.7c-0.5,0.2-1.2,0.5-2.2,0.9c0-0.2,0.1-0.4,0.3-0.6C65.7,23,66.5,22.7,67.6,22.3z"/>
				<path d="M69,31h-1.1c-0.3,0-0.7-0.1-1-0.2c-0.4-0.2-0.7-0.4-0.9-0.8c-0.3,0.3-0.7,0.5-1.2,0.7C64.3,30.9,63.7,31,63,31h-0.7
					v-1.3H63c0.4,0,0.8,0,1.2-0.1c0.4-0.1,0.8-0.3,1.2-0.5l-0.3-0.4c-0.2-0.2-0.3-0.3-0.5-0.3c-0.1,0-0.2,0-0.2,0s-0.1,0.1-0.2,0.2
					h-0.2v-0.4c0-0.5,0.1-0.9,0.4-1.1c0.3-0.2,0.7-0.3,1.4-0.3c0.6,0,1,0.1,1.4,0.2c0.5,0.2,0.7,0.5,0.7,0.9c0,0.2-0.1,0.4-0.3,0.7
					c-0.1,0.2-0.4,0.4-0.7,0.7c0.1,0.1,0.2,0.2,0.5,0.3c0.2,0.1,0.4,0.1,0.6,0.1H69V31z"/>
				<path d="M72.2,31h-3.7v-1.3h3l-0.9-6.2l-0.4-0.2c0-0.3,0-0.7,0.1-1c0.1-0.3,0.2-0.6,0.3-0.9l0.1,0.1c0,0.3,0.2,0.5,0.5,0.6
					c0.3,0.1,0.5,0.2,0.8,0.3c0,0.2,0,0.5-0.1,0.8c0,0.3-0.1,0.5-0.1,0.6l-0.4-0.1l0.9,5.8V31z"/>
				<path d="M74.8,29.1c0,0.4-0.1,0.8-0.2,1.1c-0.1,0.2-0.2,0.5-0.5,0.9l-0.1-0.1c0-0.1,0-0.3,0-0.5c0-0.2,0-0.3,0-0.4
					c0-0.5,0-1.2-0.1-2.1c-0.1-0.9-0.2-1.9-0.3-2.9c-0.1-0.6-0.1-1.2-0.2-1.8c0.1-0.2,0.2-0.4,0.3-0.7c0.1-0.3,0.3-0.5,0.4-0.7
					c0.1,0.6,0.2,1.3,0.3,2.3c0.1,1,0.2,1.8,0.3,2.6C74.7,27.9,74.8,28.6,74.8,29.1z"/>
				<path d="M84.3,17.2c0,0.4-0.1,0.7-0.2,0.9c-0.1,0.3-0.3,0.4-0.6,0.4c-0.1,0-0.2,0-0.2,0c-0.1,0-0.2-0.1-0.3-0.1
					c-0.1,0.2-0.2,0.3-0.3,0.4c-0.2,0.2-0.3,0.2-0.5,0.2c-0.2,0-0.4-0.1-0.5-0.2c-0.1-0.1-0.2-0.3-0.2-0.6c0-0.1,0-0.3,0.1-0.4
					c0-0.1,0.1-0.2,0.1-0.4l0.2-0.1c0,0,0,0.1,0,0.2c0,0.1,0,0.2,0,0.2c0,0.1,0,0.2,0.1,0.3c0,0.1,0.1,0.1,0.2,0.1
					c0.2,0,0.4-0.1,0.5-0.4c0.1-0.1,0.1-0.4,0.2-0.7l0.2,0c0,0.2,0.1,0.4,0.1,0.4c0.1,0.2,0.2,0.2,0.3,0.2c0.2,0,0.3-0.1,0.5-0.4
					c0.1-0.2,0.1-0.4,0.1-0.6l0.2,0c0,0.1,0,0.2,0.1,0.3C84.3,17,84.3,17.1,84.3,17.2z M84.2,18.8c0,0.2-0.1,0.5-0.4,0.7
					c-0.5,0.2-1.2,0.5-2.2,0.9c0-0.2,0.1-0.4,0.3-0.6C82.4,19.5,83.1,19.2,84.2,18.8z"/>
				<path d="M88.8,31h-9.5v-1.3l1.2,0c0.3,0,0.7,0,1-0.1c0.3-0.1,0.7-0.3,1.2-0.5c0.1-0.2,0.2-0.4,0.2-0.7s0.1-0.5,0.1-0.7
					c0-0.5-0.1-1.1-0.2-1.7c-0.1-0.5-0.2-1-0.3-1.6c-0.1-0.3-0.2-0.7-0.3-1.2l-0.5-0.2c0-0.3,0.1-0.6,0.2-0.9
					c0.1-0.3,0.2-0.5,0.3-0.8c0.1,0.2,0.3,0.4,0.6,0.5c0.2,0.1,0.5,0.2,0.9,0.2c-0.1,0.5-0.1,0.8-0.1,1c0,0.1-0.1,0.3-0.1,0.5
					c0,0-0.1,0-0.3-0.1l-0.1,0c0.2,0.6,0.3,1.2,0.4,1.8c0.1,0.6,0.2,1.1,0.2,1.5c0,0.3,0,0.7-0.1,1.2c0,0.2-0.1,0.4-0.1,0.7
					c0.9-0.5,1.4-0.8,1.7-0.9c0.7-0.3,1.4-0.5,1.9-0.5c0.7,0,1.2,0.2,1.5,0.6c0.3,0.4,0.5,0.9,0.5,1.5V31z M87.6,29.1
					c0-0.3-0.1-0.4-0.4-0.6c-0.3-0.1-0.6-0.2-1.1-0.2c-0.4,0-0.8,0.1-1.3,0.2c-0.4,0.1-0.8,0.3-1.3,0.5c-0.3,0.2-0.7,0.4-1,0.6h3.3
					C87,29.7,87.6,29.5,87.6,29.1z"/>
				<path d="M93.8,20.1c0,0.2-0.1,0.4-0.4,0.7c-0.5,0.2-1.2,0.5-2.2,0.9c0-0.2,0.1-0.4,0.3-0.6C92,20.8,92.7,20.5,93.8,20.1z"/>
				<path d="M97,31h-8.7v-1.3h6.2c-0.5-0.4-0.9-0.7-1.3-0.9c-0.4-0.3-0.8-0.5-1.2-0.6c-0.4-0.1-0.8-0.2-1.2-0.2
					c-0.3,0-0.5,0-0.8,0.1c0.1-0.4,0.3-0.7,0.6-0.9c0.3-0.3,0.8-0.5,1.3-0.5c0.5,0,1.1,0.2,1.8,0.7c0.3,0.2,0.9,0.7,1.7,1.4
					c0.6,0.5,1,0.8,1.2,0.9H97V31z M93.3,24.1l-0.6,1.1l-1.2-0.6l0.6-1.1L93.3,24.1z"/>
				<path d="M100.2,31h-3.7v-1.3h3l-0.9-6.2l-0.4-0.2c0-0.3,0-0.7,0.1-1c0.1-0.3,0.2-0.6,0.3-0.9l0.1,0.1c0,0.3,0.2,0.5,0.5,0.6
					c0.3,0.1,0.5,0.2,0.8,0.3c0,0.2,0,0.5-0.1,0.8c0,0.3-0.1,0.5-0.1,0.6l-0.4-0.1l0.9,5.8V31z"/>
				<path d="M102.7,29.1c0,0.4-0.1,0.8-0.2,1.1c-0.1,0.2-0.2,0.5-0.5,0.9l-0.1-0.1c0-0.1,0-0.3,0-0.5c0-0.2,0-0.3,0-0.4
					c0-0.5,0-1.2-0.1-2.1c-0.1-0.9-0.2-1.9-0.3-2.9c-0.1-0.6-0.1-1.2-0.2-1.8c0.1-0.2,0.2-0.4,0.3-0.7c0.1-0.3,0.3-0.5,0.4-0.7
					c0.1,0.6,0.2,1.3,0.3,2.3c0.1,1,0.2,1.8,0.3,2.6C102.7,27.9,102.7,28.6,102.7,29.1z"/>
				<path d="M113.3,22.4c0,0.4-0.1,0.7-0.2,0.9c-0.1,0.3-0.3,0.4-0.6,0.4c-0.1,0-0.2,0-0.3,0c-0.1,0-0.2-0.1-0.3-0.1
					c-0.1,0.2-0.2,0.3-0.3,0.4c-0.2,0.2-0.3,0.2-0.5,0.2c-0.2,0-0.4-0.1-0.5-0.2s-0.2-0.3-0.2-0.6c0-0.1,0-0.3,0.1-0.4
					c0-0.1,0.1-0.2,0.1-0.4l0.2-0.1c0,0,0,0.1,0,0.2s0,0.2,0,0.2c0,0.1,0,0.2,0.1,0.3c0,0.1,0.1,0.1,0.2,0.1c0.2,0,0.4-0.1,0.5-0.4
					c0.1-0.1,0.1-0.4,0.2-0.7l0.2,0c0,0.2,0.1,0.4,0.1,0.4c0.1,0.2,0.2,0.2,0.3,0.2c0.2,0,0.3-0.1,0.5-0.4c0.1-0.2,0.1-0.4,0.1-0.6
					l0.2,0c0,0.1,0,0.2,0.1,0.3S113.3,22.3,113.3,22.4z M113.2,20.6c0,0.2-0.1,0.5-0.4,0.7c-0.4,0.2-1.2,0.5-2.2,0.8
					c0-0.2,0.1-0.4,0.3-0.6C111.4,21.3,112.1,21,113.2,20.6z"/>
				<path d="M115.9,31c0,1.1-0.3,1.9-1,2.4c-0.7,0.6-1.9,0.8-3.4,0.8c-1,0-1.8-0.2-2.3-0.5c-0.6-0.4-0.9-1-0.9-1.7
					c0-0.4,0.1-0.8,0.2-1.3s0.3-0.9,0.4-1.3c0.1-0.3,0.3-0.7,0.6-1.2l0.3,0.1c-0.4,0.7-0.6,1.3-0.7,1.7c-0.1,0.4-0.2,0.8-0.2,1.1
					c0,0.6,0.2,1.1,0.7,1.4c0.4,0.3,1.1,0.5,1.9,0.5c1,0,1.8-0.2,2.5-0.5c0.9-0.4,1.4-1,1.4-1.7c0-0.5-0.1-1-0.2-1.4
					c-0.1-0.4-0.3-0.7-0.6-1l0.6-1.5c0.3,0.4,0.5,0.8,0.6,1.2c0.1,0.4,0.2,1,0.2,1.6V31z M113,25.4l-0.6,1.1l-1.2-0.6l0.5-1
					L113,25.4z"/>
				<path d="M119.4,20.1c0,0.2-0.1,0.4-0.4,0.7c-0.5,0.2-1.2,0.5-2.2,0.9c0-0.2,0.1-0.4,0.3-0.6C117.6,20.8,118.3,20.5,119.4,20.1z"
					/>
				<path d="M120,31h-4.7v-1.3h4c0-0.4-0.1-0.8-0.2-1.2c-0.3,0.1-0.5,0.1-0.6,0.2c-0.2,0.1-0.4,0.1-0.6,0.1c-0.4,0-0.7-0.1-0.9-0.3
					c-0.3-0.2-0.4-0.5-0.4-0.9c0-0.7,0.1-1.3,0.4-1.8c0.3-0.6,0.7-0.9,1.1-0.9c0.6,0,1.1,0.5,1.4,1.4c0.3,0.8,0.4,1.7,0.4,2.7V31z
					 M119,22.8l-0.6,1.1l-1.2-0.6l0.6-1.1L119,22.8z M118.8,27.2c-0.1-0.2-0.2-0.4-0.3-0.5c-0.2-0.2-0.4-0.4-0.6-0.4
					c-0.1,0-0.2,0.1-0.3,0.2s-0.1,0.2-0.1,0.4c0,0.4,0.2,0.6,0.7,0.6c0.1,0,0.2,0,0.4-0.1S118.6,27.2,118.8,27.2z"/>
				<path class="st0" d="M129.9,22.3c0,0.2-0.1,0.4-0.4,0.7c-0.5,0.2-1.2,0.5-2.2,0.9c0-0.2,0.1-0.4,0.3-0.6
					C128.1,23,128.9,22.7,129.9,22.3z"/>
				<path class="st0" d="M132.5,31c0,1.1-0.3,1.9-1,2.4c-0.7,0.6-1.9,0.8-3.4,0.8c-1,0-1.8-0.2-2.3-0.5c-0.6-0.4-0.9-1-0.9-1.7
					c0-0.4,0.1-0.8,0.2-1.3s0.3-0.9,0.4-1.3c0.1-0.3,0.3-0.7,0.6-1.2l0.3,0.1c-0.4,0.7-0.6,1.3-0.7,1.7c-0.1,0.4-0.2,0.8-0.2,1.1
					c0,0.6,0.2,1.1,0.7,1.4c0.4,0.3,1.1,0.5,1.9,0.5c1,0,1.8-0.2,2.5-0.5c0.9-0.4,1.4-1,1.4-1.7c0-0.5-0.1-1-0.2-1.4
					c-0.1-0.4-0.3-0.7-0.6-1l0.6-1.5c0.3,0.4,0.5,0.8,0.6,1.2c0.1,0.4,0.2,1,0.2,1.6V31z M129.7,25.4l-0.6,1.1l-1.2-0.6l0.5-1
					L129.7,25.4z"/>
				<path class="st0" d="M139.2,30.5c0,0.8-0.3,1.6-0.9,2.4c-0.7,0.9-1.5,1.3-2.4,1.3c-0.3,0-0.7,0-1-0.1c-0.3-0.1-0.6-0.1-1-0.3
					c-0.3-0.1-0.7-0.2-1-0.3l0.1-0.3c0.3,0.1,0.6,0.1,0.9,0.2c0.3,0.1,0.6,0.1,0.8,0.1c0.6,0,1.2-0.2,1.7-0.5c0.4-0.2,0.9-0.6,1.3-1
					c0.2-0.2,0.5-0.6,0.9-1.1c-0.7,0-1.2-0.1-1.5-0.3c-0.4-0.2-0.6-0.6-0.6-1.2c0-0.5,0.1-1,0.4-1.4c0.3-0.5,0.6-0.7,1.1-0.7
					c0.4,0,0.8,0.2,0.9,0.7c0.2,0.4,0.2,0.9,0.2,1.6V30.5z M138.7,29.7c-0.1-0.5-0.2-0.8-0.4-1c-0.1-0.2-0.3-0.2-0.5-0.2
					c-0.1,0-0.3,0-0.4,0.1s-0.2,0.2-0.2,0.3c0,0.2,0.1,0.4,0.3,0.5S138.2,29.7,138.7,29.7z"/>
				<path class="st0" d="M145.3,31h-0.8c-0.3,0-0.7-0.1-1.1-0.2c-0.5-0.2-0.9-0.4-1.3-0.7c-0.3,0.3-0.6,0.6-0.9,0.7
					c-0.3,0.1-0.8,0.2-1.3,0.2h-1.2v-1.3h1.2c0.5,0,0.9-0.1,1.2-0.3c0.3-0.2,0.5-0.4,0.8-0.7c0.3-0.4,0.7-0.8,1.1-1.1
					c0.4-0.3,0.8-0.5,1.1-0.5c0.3,0.5,0.6,1,0.8,1.4c0.3,0.6,0.4,1,0.4,1.4V31z M144.4,29.5c-0.1-0.3-0.2-0.6-0.3-0.8
					c-0.1-0.2-0.3-0.5-0.5-0.7c-0.2,0.1-0.4,0.2-0.6,0.3c-0.1,0.1-0.2,0.3-0.4,0.5c0.2,0.2,0.4,0.4,0.8,0.5
					C143.7,29.5,144,29.6,144.4,29.5L144.4,29.5z"/>
				<path class="st0" d="M148.4,19.4c0,0.4-0.1,0.7-0.2,0.9c-0.1,0.3-0.3,0.4-0.6,0.4c-0.1,0-0.2,0-0.3,0c-0.1,0-0.2-0.1-0.3-0.1
					c-0.1,0.2-0.2,0.3-0.3,0.4c-0.2,0.2-0.3,0.2-0.5,0.2c-0.2,0-0.4-0.1-0.5-0.2s-0.2-0.3-0.2-0.6c0-0.1,0-0.3,0.1-0.4
					c0-0.1,0.1-0.2,0.1-0.4l0.2-0.1c0,0,0,0.1,0,0.2s0,0.2,0,0.2c0,0.1,0,0.2,0.1,0.3c0,0.1,0.1,0.1,0.2,0.1c0.2,0,0.4-0.1,0.5-0.4
					c0.1-0.1,0.1-0.4,0.2-0.7l0.2,0c0,0.2,0.1,0.4,0.1,0.4c0.1,0.2,0.2,0.2,0.3,0.2c0.2,0,0.3-0.1,0.5-0.4c0.1-0.2,0.1-0.4,0.1-0.6
					l0.2,0c0,0.1,0,0.2,0.1,0.3S148.4,19.4,148.4,19.4z M148.3,17.6c0,0.2-0.1,0.5-0.4,0.7c-0.4,0.2-1.2,0.5-2.2,0.8
					c0-0.2,0.1-0.4,0.3-0.6C146.5,18.4,147.2,18.1,148.3,17.6z"/>
				<path class="st0" d="M148.5,31h-3.7v-1.3h3l-0.9-6.2l-0.4-0.2c0-0.3,0-0.7,0.1-1c0.1-0.3,0.2-0.6,0.3-0.9l0.1,0.1
					c0,0.3,0.2,0.5,0.5,0.6c0.3,0.1,0.5,0.2,0.8,0.3c0,0.2,0,0.5-0.1,0.8c0,0.3-0.1,0.5-0.1,0.6l-0.4-0.1l0.9,5.8V31z"/>
				<path class="st0" d="M153.2,22.3c0,0.2-0.1,0.4-0.4,0.7c-0.5,0.2-1.2,0.5-2.2,0.9c0-0.2,0.1-0.4,0.3-0.6
					C151.3,23,152.1,22.7,153.2,22.3z"/>
				<path class="st0" d="M154.6,31h-1.1c-0.3,0-0.7-0.1-1-0.2c-0.4-0.2-0.7-0.4-0.9-0.8c-0.3,0.3-0.7,0.5-1.2,0.7
					c-0.5,0.2-1.1,0.3-1.8,0.3H148v-1.3h0.7c0.4,0,0.8,0,1.2-0.1c0.4-0.1,0.8-0.3,1.2-0.5l-0.3-0.4c-0.2-0.2-0.3-0.3-0.5-0.3
					c-0.1,0-0.2,0-0.2,0s-0.1,0.1-0.2,0.2h-0.2v-0.4c0-0.5,0.1-0.9,0.4-1.1c0.3-0.2,0.7-0.3,1.4-0.3c0.6,0,1,0.1,1.4,0.2
					c0.5,0.2,0.7,0.5,0.7,0.9c0,0.2-0.1,0.4-0.3,0.7c-0.1,0.2-0.4,0.4-0.7,0.7c0.1,0.1,0.2,0.2,0.5,0.3c0.2,0.1,0.4,0.1,0.6,0.1h1.1
					V31z"/>
				<path class="st0" d="M158.5,20.1c0,0.2-0.1,0.4-0.4,0.7c-0.5,0.2-1.2,0.5-2.2,0.9c0-0.2,0.1-0.4,0.3-0.6
					C156.7,20.8,157.4,20.5,158.5,20.1z"/>
				<path class="st0" d="M158.4,31h-4.3v-1.3h3.8c0-0.6-0.1-1-0.2-1.3c-0.1-0.2-0.3-0.5-0.7-0.9l0.6-1.2c0.4,0.4,0.6,0.8,0.7,1
					c0.1,0.4,0.2,1,0.2,1.9V31z M156.6,24.4l-0.6,1.1l-1.2-0.6l0.6-1.1L156.6,24.4z M158.4,23.7l-0.6,1.1l-1.2-0.6l0.6-1.1
					L158.4,23.7z"/>
				<path class="st0" d="M162.3,20.1c0,0.2-0.1,0.4-0.4,0.7c-0.5,0.2-1.2,0.5-2.2,0.9c0-0.2,0.1-0.4,0.3-0.6
					C160.5,20.8,161.2,20.5,162.3,20.1z"/>
				<path class="st0" d="M162.2,31h-4.3v-1.3h3.8c0-0.6-0.1-1-0.2-1.3c-0.1-0.2-0.3-0.5-0.7-0.9l0.6-1.2c0.4,0.4,0.6,0.8,0.7,1
					c0.1,0.4,0.2,1,0.2,1.9V31z M160.4,24.4l-0.6,1.1l-1.2-0.6l0.6-1.1L160.4,24.4z M162.1,23.7l-0.6,1.1l-1.2-0.6l0.6-1.1
					L162.1,23.7z"/>
				<path d="M172.1,22.3c0,0.2-0.1,0.4-0.4,0.7c-0.5,0.2-1.2,0.5-2.2,0.9c0-0.2,0.1-0.4,0.3-0.6C170.3,23,171,22.7,172.1,22.3z"/>
				<path d="M174.6,31c0,1.1-0.3,1.9-1,2.4c-0.7,0.6-1.9,0.8-3.4,0.8c-1,0-1.8-0.2-2.3-0.5c-0.6-0.4-0.9-1-0.9-1.7
					c0-0.4,0.1-0.8,0.2-1.3s0.3-0.9,0.4-1.3c0.1-0.3,0.3-0.7,0.6-1.2l0.3,0.1c-0.4,0.7-0.6,1.3-0.7,1.7c-0.1,0.4-0.2,0.8-0.2,1.1
					c0,0.6,0.2,1.1,0.7,1.4c0.4,0.3,1.1,0.5,1.9,0.5c1,0,1.8-0.2,2.5-0.5c0.9-0.4,1.4-1,1.4-1.7c0-0.5-0.1-1-0.2-1.4
					c-0.1-0.4-0.3-0.7-0.6-1l0.6-1.5c0.3,0.4,0.5,0.8,0.6,1.2c0.1,0.4,0.2,1,0.2,1.6V31z M171.8,25.4l-0.6,1.1l-1.2-0.6l0.5-1
					L171.8,25.4z"/>
				<path d="M178.4,22.7c0,0.3-0.1,0.6-0.3,0.8c-0.2,0.2-0.5,0.4-0.9,0.4c-0.3,0-0.5-0.1-0.6-0.2c-0.1-0.1-0.2-0.4-0.2-0.6
					c0-0.4,0.1-0.7,0.3-1c0.2-0.3,0.5-0.4,0.7-0.4c0.3,0,0.5,0.1,0.7,0.3C178.3,22.2,178.4,22.4,178.4,22.7z M177.9,22.9
					c0-0.1-0.1-0.3-0.3-0.5c-0.2-0.2-0.4-0.3-0.5-0.3c-0.1,0-0.2,0.1-0.3,0.2c-0.1,0.1-0.1,0.2-0.1,0.3c0,0.2,0.1,0.3,0.3,0.4
					c0.1,0.1,0.3,0.1,0.6,0.1c0.1,0,0.2,0,0.3-0.1S177.9,23,177.9,22.9z"/>
				<path d="M178.4,31h-4.3v-1.3h3.8c0-0.6-0.1-1-0.2-1.3c-0.1-0.2-0.3-0.5-0.7-0.9l0.6-1.2c0.4,0.4,0.6,0.8,0.7,1
					c0.1,0.4,0.2,1,0.2,1.9V31z M176.6,33.1l-0.6,1.1l-1.2-0.6l0.6-1.1L176.6,33.1z M178.4,32.5l-0.6,1.1l-1.2-0.6l0.6-1.1
					L178.4,32.5z"/>
				<path d="M181.4,17.7c0,0.2-0.1,0.4-0.4,0.7c-0.5,0.2-1.2,0.5-2.2,0.9c0-0.2,0.1-0.4,0.3-0.6C179.6,18.5,180.3,18.2,181.4,17.7z"
					/>
				<path d="M181.2,21.1c0,0.1-0.1,0.2-0.2,0.3c-0.1,0.1-0.3,0.1-0.5,0.2l-1.4,0.5c0-0.2,0.3-0.4,0.8-0.6c-0.2-0.1-0.3-0.2-0.4-0.2
					c-0.1-0.1-0.2-0.2-0.2-0.3c0-0.2,0.1-0.4,0.4-0.6c0.3-0.3,0.6-0.5,0.8-0.5c0.1,0,0.2,0,0.3,0.1c0.1,0.1,0.1,0.2,0.1,0.3
					c0,0.1,0,0.1,0,0.2s-0.1,0.2-0.1,0.2c-0.2-0.1-0.3-0.2-0.5-0.2c-0.1,0-0.2,0-0.3,0.1c-0.1,0-0.2,0.1-0.2,0.2
					c0,0.1,0.1,0.2,0.4,0.3c0.2,0.1,0.4,0.2,0.6,0.2c0.1,0,0.2,0,0.2,0C180.9,21.2,181,21.2,181.2,21.1z M181,29.1
					c0,0.4-0.1,0.8-0.2,1.1c-0.1,0.2-0.2,0.5-0.5,0.9l-0.1-0.1c0-0.1,0-0.3,0-0.5c0-0.2,0-0.3,0-0.4c0-0.5,0-1.2-0.1-2.1
					c-0.1-0.9-0.2-1.9-0.3-2.9c-0.1-0.6-0.1-1.2-0.2-1.8c0.1-0.2,0.2-0.4,0.3-0.7c0.1-0.3,0.3-0.5,0.4-0.7c0.1,0.6,0.2,1.3,0.3,2.3
					c0.1,1,0.2,1.8,0.3,2.6C180.9,27.9,181,28.6,181,29.1z"/>
			</g>
		</g>
	</g>
	<rect class="st1" width="214.5" height="50.4"/>
</g>
</svg>
