<?xml version="1.0" encoding="utf-8"?>
<!-- Generator: Adobe Illustrator 19.2.0, SVG Export Plug-In . SVG Version: 6.00 Build 0)  -->
<svg version="1.1" id="Layer_1" xmlns="http://www.w3.org/2000/svg" xmlns:xlink="http://www.w3.org/1999/xlink" x="0px" y="0px"
	 viewBox="0 0 128 50.4" style="enable-background:new 0 0 128 50.4;" xml:space="preserve">
<style type="text/css">
	.st0{fill:none;}
</style>
<g>
	<g>
		<g>
			<path d="M34,31h-1.1c-0.4,0-0.7-0.3-1-0.9c-0.2-0.5-0.4-1-0.5-1.7c-0.2,0.3-0.3,0.5-0.6,0.6c-0.2,0.2-0.5,0.2-0.7,0.2
				c-0.6,0-1.1,0-1.5-0.1c-0.4-0.1-0.6-0.2-0.6-0.3c0-0.4,0.3-0.9,0.8-1.4s1.3-1,2.1-1.3c0,0,0-0.1-0.1-0.3c0-0.2,0-0.3,0-0.3
				c0-0.2,0.1-0.4,0.2-0.6c0.1-0.2,0.2-0.3,0.4-0.5c0,0.3,0.1,0.6,0.2,0.9c0.1,0.3,0.1,0.6,0.2,0.9l0.2,1.3c0.1,0.7,0.2,1.2,0.3,1.5
				c0.2,0.5,0.3,0.8,0.5,0.8H34V31z M30.3,22.9l-0.6,1.1l-1.2-0.6l0.6-1.1L30.3,22.9z M31.3,27.7l-0.1-0.8c-0.4,0.2-0.8,0.3-1,0.5
				c-0.3,0.2-0.5,0.4-0.6,0.7c0.1,0,0.2,0.1,0.4,0.1s0.3,0,0.6,0C30.8,28.2,31,28,31.3,27.7z M32,22.2l-0.6,1.1l-1.2-0.6l0.6-1.1
				L32,22.2z"/>
			<path d="M42.2,31h-0.6c-0.3,0-0.6,0-0.8-0.1c-0.2-0.1-0.4-0.2-0.6-0.4c-0.2,0.2-0.4,0.3-0.6,0.4c-0.3,0.1-0.6,0.1-1.1,0.1H38
				c-0.3,0-0.5,0-0.8-0.1c-0.2-0.1-0.4-0.2-0.6-0.3c-0.2,0.2-0.5,0.3-0.7,0.4c-0.2,0.1-0.5,0.1-1,0.1h-1.5v-1.3h1.5
				c0.4,0,0.7,0,0.9-0.1c0.3-0.1,0.4-0.3,0.4-0.7c0-0.1,0-0.3,0-0.4c0-0.1,0-0.3-0.1-0.5l0.3-0.4c0.1,0.5,0.3,0.8,0.3,1
				c0.2,0.4,0.3,0.6,0.5,0.8c0.2,0.2,0.5,0.3,0.8,0.3h0.5c0.4,0,0.7-0.1,0.8-0.2c0.2-0.1,0.3-0.3,0.3-0.6c0-0.2,0-0.3,0-0.4
				c0-0.1,0-0.3-0.1-0.5l0.3-0.4l0.2,0.7c0.1,0.5,0.3,0.9,0.5,1.1c0.2,0.2,0.4,0.3,0.7,0.3c0.1,0,0.2,0,0.3-0.1
				c0.1-0.1,0.1-0.2,0.1-0.3c0-0.3-0.1-0.6-0.3-0.9c0,0-0.2-0.2-0.4-0.5l0.5-0.8c0.2,0.3,0.3,0.6,0.4,0.8c0.1,0.3,0.2,0.8,0.2,1.3
				V31z"/>
			<path d="M48.3,31h-0.8c-0.3,0-0.7-0.1-1.1-0.2c-0.5-0.2-0.9-0.4-1.3-0.7c-0.3,0.3-0.6,0.6-0.9,0.7c-0.3,0.1-0.8,0.2-1.3,0.2h-1.2
				v-1.3h1.2c0.5,0,0.9-0.1,1.2-0.3c0.3-0.2,0.5-0.4,0.8-0.7c0.3-0.4,0.7-0.8,1.1-1.1c0.4-0.3,0.8-0.5,1.1-0.5
				c0.3,0.5,0.6,1,0.8,1.4c0.3,0.6,0.4,1,0.4,1.4V31z M47.4,29.5c-0.1-0.3-0.2-0.6-0.3-0.8c-0.1-0.2-0.3-0.5-0.5-0.7
				c-0.2,0.1-0.4,0.2-0.6,0.3c-0.1,0.1-0.2,0.3-0.4,0.5c0.2,0.2,0.4,0.4,0.8,0.5C46.8,29.5,47.1,29.6,47.4,29.5L47.4,29.5z"/>
			<path d="M56.5,31h-8.7v-1.3h6.2c-0.5-0.4-0.9-0.7-1.3-0.9c-0.4-0.3-0.8-0.5-1.2-0.6C51,28.1,50.6,28,50.2,28
				c-0.3,0-0.5,0-0.8,0.1c0.1-0.4,0.3-0.7,0.6-0.9c0.3-0.3,0.8-0.5,1.3-0.5c0.5,0,1.1,0.2,1.8,0.7c0.3,0.2,0.9,0.7,1.7,1.4
				c0.6,0.5,1,0.8,1.2,0.9h0.5V31z M52.9,24.1l-0.6,1.1l-1.2-0.6l0.6-1.1L52.9,24.1z"/>
			<path d="M59.7,31H56v-1.3h3l-0.9-6.2l-0.4-0.2c0-0.3,0-0.7,0.1-1c0.1-0.3,0.2-0.6,0.3-0.9l0.1,0.1c0,0.3,0.2,0.5,0.5,0.6
				c0.3,0.1,0.5,0.2,0.8,0.3c0,0.2,0,0.5-0.1,0.8c0,0.3-0.1,0.5-0.1,0.6l-0.4-0.1l0.9,5.8V31z"/>
			<path d="M62.3,29.1c0,0.4-0.1,0.8-0.2,1.1c-0.1,0.2-0.2,0.5-0.5,0.9l-0.1-0.1c0-0.1,0-0.3,0-0.5c0-0.2,0-0.3,0-0.4
				c0-0.5,0-1.2-0.1-2.1c-0.1-0.9-0.2-1.9-0.3-2.9c-0.1-0.6-0.1-1.2-0.2-1.8c0.1-0.2,0.2-0.4,0.3-0.7s0.3-0.5,0.4-0.7
				c0.1,0.6,0.2,1.3,0.3,2.3c0.1,1,0.2,1.8,0.3,2.6C62.2,27.9,62.3,28.6,62.3,29.1z"/>
			<path d="M75.1,30.1c0,0.8-0.2,1.4-0.6,1.9c-0.3,0.4-0.8,0.7-1.5,0.9C72.5,33,71.8,33,70.9,33c-1,0-1.7-0.2-2.3-0.5
				c-0.6-0.4-0.9-1-0.9-1.7c0-0.4,0.1-0.9,0.2-1.3c0.1-0.4,0.3-0.8,0.5-1.3c0.2-0.3,0.4-0.7,0.6-1.2l0.2,0.1
				c-0.2,0.3-0.3,0.6-0.5,0.9c-0.2,0.3-0.3,0.7-0.4,0.9c-0.1,0.3-0.1,0.7-0.1,1c0,0.6,0.2,1.1,0.7,1.4c0.5,0.3,1.1,0.5,1.9,0.5
				c0.9,0,1.6-0.1,2.4-0.4c0.8-0.3,1.2-0.7,1.2-1.1c0-0.5-0.1-1.3-0.2-2.4c-0.1-0.9-0.3-1.8-0.4-2.9l-0.3-1.4l-0.3-0.2
				c0-0.7,0.1-1.3,0.4-1.8h0.1c0,0.2,0.1,0.3,0.1,0.4c0,0.1,0.1,0.2,0.3,0.2c0.2,0.1,0.3,0.1,0.5,0.2c0.1,0.1,0.3,0.1,0.4,0.2
				c0,0.3,0,0.6,0,0.7c0,0.2-0.1,0.4-0.2,0.7l-0.4-0.1c0,0.1,0.1,0.6,0.2,1.5c0.2,1,0.3,1.9,0.3,2.5C75,28.8,75.1,29.5,75.1,30.1z"
				/>
			<path d="M78.7,31h-1.1c-0.3,0-0.6-0.1-0.8-0.4c-0.2-0.2-0.3-0.6-0.4-1c-0.1-0.5-0.2-1-0.2-1.7c0-0.6-0.1-1.1-0.1-1.7
				s-0.1-1-0.1-1.3c-0.1-0.3-0.1-0.5-0.2-0.7c-0.1-0.2-0.3-0.4-0.5-0.6l0.9-1.4c0.2,0.6,0.3,1.3,0.4,2.1c0,0.5,0.1,1.7,0.2,3.6
				c0.1,0.9,0.2,1.4,0.4,1.7c0.1,0.2,0.3,0.3,0.5,0.3h1.1V31z"/>
			<path d="M84.8,31h-1.1c-0.3,0-0.7-0.1-1-0.2c-0.4-0.2-0.7-0.4-0.9-0.8c-0.3,0.3-0.7,0.5-1.2,0.7c-0.5,0.2-1.1,0.3-1.8,0.3h-0.7
				v-1.3h0.7c0.4,0,0.8,0,1.2-0.1c0.4-0.1,0.8-0.3,1.2-0.5l-0.3-0.4c-0.2-0.2-0.3-0.3-0.5-0.3c-0.1,0-0.2,0-0.2,0s-0.1,0.1-0.2,0.2
				h-0.2v-0.4c0-0.5,0.1-0.9,0.4-1.1c0.3-0.2,0.7-0.3,1.4-0.3c0.6,0,1,0.1,1.4,0.2c0.5,0.2,0.7,0.5,0.7,0.9c0,0.2-0.1,0.4-0.3,0.7
				c-0.1,0.2-0.4,0.4-0.7,0.7c0.1,0.1,0.2,0.2,0.5,0.3c0.2,0.1,0.4,0.1,0.6,0.1h1.1V31z"/>
			<path d="M88.9,31h-4.7v-1.3h4c0-0.4-0.1-0.8-0.2-1.2c-0.3,0.1-0.5,0.1-0.6,0.2c-0.2,0.1-0.4,0.1-0.6,0.1c-0.4,0-0.7-0.1-0.9-0.3
				c-0.3-0.2-0.4-0.5-0.4-0.9c0-0.7,0.1-1.3,0.4-1.8c0.3-0.6,0.7-0.9,1.1-0.9c0.6,0,1.1,0.5,1.4,1.4c0.3,0.8,0.4,1.7,0.4,2.7V31z
				 M87.9,22.8l-0.6,1.1l-1.2-0.6l0.6-1.1L87.9,22.8z M87.7,27.2c-0.1-0.2-0.2-0.4-0.3-0.5c-0.2-0.2-0.4-0.4-0.6-0.4
				c-0.1,0-0.2,0.1-0.3,0.2s-0.1,0.2-0.1,0.4c0,0.4,0.2,0.6,0.7,0.6c0.1,0,0.2,0,0.4-0.1C87.4,27.3,87.6,27.2,87.7,27.2z"/>
			<path d="M91.3,21.1c0,0.1-0.1,0.2-0.2,0.3c-0.1,0.1-0.3,0.1-0.5,0.2l-1.4,0.5c0-0.2,0.3-0.4,0.8-0.6c-0.2-0.1-0.3-0.2-0.4-0.2
				c-0.1-0.1-0.2-0.2-0.2-0.3c0-0.2,0.1-0.4,0.4-0.6c0.3-0.3,0.6-0.5,0.8-0.5c0.1,0,0.2,0,0.3,0.1c0.1,0.1,0.1,0.2,0.1,0.3
				c0,0.1,0,0.1,0,0.2s-0.1,0.2-0.1,0.2c-0.2-0.1-0.3-0.2-0.5-0.2c-0.1,0-0.2,0-0.3,0.1s-0.2,0.1-0.2,0.2c0,0.1,0.1,0.2,0.4,0.3
				c0.2,0.1,0.4,0.2,0.6,0.2c0.1,0,0.2,0,0.2,0C91.1,21.2,91.2,21.2,91.3,21.1z M96.8,23.2l-0.4,1.3L96,24.3l0,0.7
				c0,0.7-0.1,1.3-0.3,1.9c-0.2,0.7-0.5,1.3-0.9,2c0.2,0.3,0.3,0.6,0.4,0.8c0.1,0.3,0.2,0.6,0.2,0.9c0,0.2,0,0.3,0,0.5
				c0,0.1,0,0.3-0.1,0.4c-0.5,0.1-1.1,0.2-1.7,0.3c-0.6,0.1-1.2,0.1-1.8,0.1c0-0.1,0-0.2,0-0.2c0-0.4,0.1-0.7,0.2-1
				c0.9-0.4,1.6-1,2.2-1.7c-0.4-0.6-0.6-1.1-0.8-1.4c-0.2-0.3-0.5-0.8-0.9-1.4c-0.2-0.2-0.3-0.4-0.4-0.5c-0.2-0.2-0.3-0.3-0.4-0.3
				c-0.1,0-0.2,0-0.3,0.1c-0.1,0-0.1,0.1-0.2,0.1c-0.1,0-0.3-0.1-0.5-0.3c-0.2-0.2-0.4-0.4-0.7-0.7c-0.2-0.2-0.3-0.4-0.4-0.6
				c-0.1-0.1-0.1-0.3-0.1-0.5c0-0.3,0-0.5,0.1-0.7c0.1-0.3,0.2-0.4,0.3-0.4c0.2,0,0.5,0.2,0.9,0.6c0.3,0.3,0.7,0.8,1.2,1.4
				c0.4,0.5,0.8,1,1.1,1.6l0.8,1.2c0.2,0.4,0.5,0.8,0.7,1.2c0.3-0.7,0.6-1.3,0.7-2c0.1-0.6,0.2-1.3,0.2-2.2L95,23.8
				c0-0.3,0-0.6,0.1-0.9c0.1-0.3,0.1-0.5,0.2-0.7l0.2,0c0,0.2,0.1,0.4,0.4,0.5c0.1,0.1,0.3,0.1,0.5,0.2S96.7,23.2,96.8,23.2z
				 M94.8,30.4c0-0.1,0-0.2-0.1-0.3s-0.1-0.3-0.3-0.6c-0.2,0.2-0.4,0.4-0.7,0.7c-0.3,0.3-0.6,0.5-0.9,0.6c0.6,0,1,0,1.3-0.1
				C94.6,30.7,94.8,30.5,94.8,30.4z"/>
			<path d="M99.9,29.1c0,0.4-0.1,0.8-0.2,1.1c-0.1,0.2-0.2,0.5-0.5,0.9l-0.1-0.1c0-0.1,0-0.3,0-0.5c0-0.2,0-0.3,0-0.4
				c0-0.5,0-1.2-0.1-2.1c-0.1-0.9-0.2-1.9-0.3-2.9c-0.1-0.6-0.1-1.2-0.2-1.8c0.1-0.2,0.2-0.4,0.3-0.7s0.3-0.5,0.4-0.7
				c0.1,0.6,0.2,1.3,0.3,2.3c0.1,1,0.2,1.8,0.3,2.6C99.9,27.9,99.9,28.6,99.9,29.1z"/>
		</g>
	</g>
	<rect class="st0" width="128" height="50.4"/>
</g>
</svg>
