<?xml version="1.0" encoding="utf-8"?>
<!-- Generator: Adobe Illustrator 22.0.1, SVG Export Plug-In . SVG Version: 6.00 Build 0)  -->
<svg version="1.1" id="Layer_1" xmlns="http://www.w3.org/2000/svg" xmlns:xlink="http://www.w3.org/1999/xlink" x="0px" y="0px"
	 viewBox="0 0 86.2 86.2" style="enable-background:new 0 0 86.2 86.2;" xml:space="preserve">
<style type="text/css">
	.st0{fill:#235958;}
</style>
<path class="st0" d="M59.6,43.9h-1.1h-2.9c-1.8,0-3.5-1-5.2-3c-1.2-1.8-2.5-3.6-3.9-5.5S44,32.7,43,32.7c-1.9,0-3.6,1-4.9,2.9
	C37,37.4,36,39.2,34.9,41c-1.4,2-3.1,3-5.2,3H29h-2.2h-13v8.8H29v-0.1c2-0.1,3.3-0.5,4.1-1c1.6-1.4,2.6-2.5,3-3.1
	c4.2,4.7,7.5,7,9.9,7c2.7,0,4.2-1.7,4.5-5c1.1,1.5,2.9,2.2,5.2,2.2h2.9h1.1h14.1V44L59.6,43.9L59.6,43.9z M44.5,45.9
	c-1,0-2.7-1.3-5.3-3.9c0.5-1,0.9-2.1,1.4-3.1c0.7-1.4,1.5-2.1,2.2-2.1c0.8,0,1.5,1,2,3c0.4,1.5,0.6,2.9,0.6,4.2
	C45.5,45.3,45.2,45.9,44.5,45.9z"/>
<g>
	<path class="st0" d="M44.8,61.3c0,2-0.6,3.5-1.9,4.3l-11.5,6.6c0-1.2,0.2-2.1,0.5-2.6s1-1.1,2.1-1.7L44.8,61.3z"/>
</g>
</svg>
