<?xml version="1.0" encoding="utf-8"?>
<!-- Generator: Adobe Illustrator 22.0.1, SVG Export Plug-In . SVG Version: 6.00 Build 0)  -->
<svg version="1.1" id="Layer_1" xmlns="http://www.w3.org/2000/svg" xmlns:xlink="http://www.w3.org/1999/xlink" x="0px" y="0px"
	 viewBox="0 0 84.5 63.8" style="enable-background:new 0 0 84.5 63.8;" xml:space="preserve">
<style type="text/css">
	.st0{display:none;enable-background:new    ;}
	.st1{display:inline;fill:#EF5316;}
	.st2{fill:none;}
	.st3{clip-path:url(#SVGID_2_);}
	.st4{fill:#235958;}
	.st5{fill:#EF5316;}
</style>
<g class="st0">
	<path class="st1" d="M456.8,16.8c-0.4,0.7-0.8,1.4-1.2,2c-3.1,0.5-5.7,1.2-8,2.2l-0.1-0.1l0.7-1.2c0.3-0.3,0.9-0.8,1.4-1v-0.1
		c-1.4-0.4-2.4-1.3-2.4-2.5c0-0.8,0.6-1.7,1.4-2.6c1.2-1,2.5-1.7,3.7-1.7c1.2,0,1.9,0.7,1.9,1.4s-0.5,1.3-1,1.9h-0.1
		c-0.3-0.6-0.6-1.1-1-1.1c-0.2-0.1-0.6-0.1-1-0.1c-1.1,0-2.2,0.6-2.2,1c0,1.4,2.6,1.9,4.4,1.9C454.7,16.9,455.8,16.8,456.8,16.8
		L456.8,16.8z M451.1,51.5c0.3-1.8,0.3-3.9,0.3-5.9v-2.9c0-5.4-0.6-13.2-1.1-18.2c0.9-1.1,2.1-2.3,3-3.1l0.3,0.1
		c0.6,6.4,0.8,13.8,0.8,20.6c0,1.8-0.1,3.5-0.2,4.8c-0.1,1.6-0.9,2.8-2.7,4.7L451.1,51.5z"/>
	<path class="st1" d="M468.1,16.8c-0.4,0.7-0.8,1.4-1.2,2c-3.1,0.5-5.7,1.2-8,2.2l-0.1-0.1l0.7-1.2c0.3-0.3,0.9-0.8,1.4-1v-0.1
		c-1.4-0.4-2.4-1.3-2.4-2.5c0-0.8,0.6-1.7,1.4-2.6c1.2-1,2.5-1.7,3.7-1.7c1.2,0,1.9,0.7,1.9,1.4s-0.5,1.3-1,1.9h-0.1
		c-0.3-0.6-0.6-1.1-1-1.1c-0.2-0.1-0.6-0.1-1-0.1c-1.1,0-2.2,0.6-2.2,1c0,1.4,2.6,1.9,4.4,1.9C466,16.9,467,16.8,468.1,16.8
		L468.1,16.8z M462.4,51.5c0.3-1.8,0.3-3.9,0.3-5.9v-2.9c0-5.4-0.6-13.2-1.1-18.2c0.9-1.1,2.1-2.3,3-3.1l0.3,0.1
		c0.6,6.4,0.8,13.8,0.8,20.6c0,1.8-0.1,3.5-0.2,4.8c-0.1,1.6-0.9,2.8-2.7,4.7L462.4,51.5z"/>
	<path class="st1" d="M479.4,16.8c-0.4,0.7-0.8,1.4-1.2,2c-3.1,0.5-5.7,1.2-8,2.2l-0.1-0.1l0.7-1.2c0.3-0.3,0.9-0.8,1.4-1v-0.1
		c-1.4-0.4-2.4-1.3-2.4-2.5c0-0.8,0.6-1.7,1.4-2.6c1.2-1,2.5-1.7,3.7-1.7c1.2,0,1.9,0.7,1.9,1.4s-0.5,1.3-1,1.9h-0.1
		c-0.3-0.6-0.6-1.1-1-1.1c-0.2-0.1-0.6-0.1-1-0.1c-1.1,0-2.2,0.6-2.2,1c0,1.4,2.6,1.9,4.4,1.9C477.3,16.9,478.3,16.8,479.4,16.8
		L479.4,16.8z M473.7,51.5c0.3-1.8,0.3-3.9,0.3-5.9v-2.9c0-5.4-0.6-13.2-1.1-18.2c0.9-1.1,2.1-2.3,3-3.1l0.3,0.1
		c0.6,6.4,0.8,13.8,0.8,20.6c0,1.8-0.1,3.5-0.2,4.8c-0.1,1.6-0.9,2.8-2.7,4.7L473.7,51.5z"/>
	<path class="st1" d="M490.7,16.8c-0.4,0.7-0.8,1.4-1.2,2c-3.1,0.5-5.8,1.2-8,2.2l-0.1-0.1l0.7-1.2c0.3-0.3,0.9-0.8,1.4-1v-0.1
		c-1.4-0.4-2.4-1.3-2.4-2.5c0-0.8,0.6-1.7,1.4-2.6c1.2-1,2.5-1.7,3.7-1.7c1.2,0,1.9,0.7,1.9,1.4s-0.5,1.3-1,1.9h-0.1
		c-0.3-0.6-0.6-1.1-1-1.1c-0.2-0.1-0.6-0.1-1-0.1c-1.1,0-2.2,0.6-2.2,1c0,1.4,2.6,1.9,4.4,1.9C488.6,16.9,489.6,16.8,490.7,16.8
		L490.7,16.8z M484.9,51.5c0.3-1.8,0.3-3.9,0.3-5.9v-2.9c0-5.4-0.6-13.2-1.1-18.2c0.9-1.1,2.1-2.3,3-3.1l0.3,0.1
		c0.6,6.4,0.8,13.8,0.8,20.6c0,1.8-0.1,3.5-0.2,4.8c-0.1,1.6-0.9,2.8-2.7,4.7L484.9,51.5z"/>
</g>
<rect x="6.8" y="-9.8" class="st2" width="79" height="88"/>
<rect x="-6.2" y="-7.2" class="st2" width="109.7" height="83.3"/>
<g>
	<g>
		<g>
			<g>
				<defs>
					<rect id="SVGID_1_" x="-29.8" y="-5.2" width="126" height="79.3"/>
				</defs>
				<clipPath id="SVGID_2_">
					<use xlink:href="#SVGID_1_"  style="overflow:visible;"/>
				</clipPath>
				<g class="st3">
					<path class="st4" d="M27,46.9h-4.8c-0.6,4.2-1.7,7.7-3.2,10.5c-2.2,4-5,6-8.6,6c-2.5,0-5.7-1.2-9.4-3.6L1.5,59
						C3,59.3,4,59.4,4.7,59.4c2.5,0,5-1,7.7-2.9c1.1-0.8,2.5-2.4,4-4.7c1.1-1.8,2.3-3.6,3.4-5.4c-2.1-0.7-3.6-2.3-4.6-4.9l3.9-5.5
						c0.9,1.8,1.9,3,3,3.4c0.7,0.3,2.3,0.4,4.8,0.4v7.1H27z"/>
					<path class="st4" d="M53.4,46.9h-4.7c-1.9,0-3.4-0.6-4.3-1.7c-0.3,2.6-1.5,4-3.7,4c-2,0-4.7-1.9-8.2-5.6
						c-0.3,0.5-1.2,1.4-2.5,2.5c-0.8,0.6-2.5,0.9-5.2,0.9v-7h2.4c1.7,0,3.1-0.8,4.3-2.3c0.9-1.4,1.8-2.9,2.7-4.3
						c1.1-1.5,2.5-2.3,4.1-2.3c0.8,0,1.8,0.7,3,2.2s2.2,2.9,3.2,4.4c1.4,1.6,2.8,2.3,4.3,2.3h4.7L53.4,46.9L53.4,46.9z M40.3,40
						c0-1-0.2-2.1-0.5-3.4c-0.4-1.6-1-2.4-1.7-2.4c-0.6,0-1.2,0.6-1.8,1.7c-0.4,0.8-0.8,1.7-1.2,2.5c2.1,2.1,3.6,3.1,4.4,3.1
						C40.1,41.5,40.3,41,40.3,40z"/>
					<path class="st5" d="M62.4,6.3c0,1.3-0.5,2.5-1.4,3.6c-1,1-2.2,1.5-3.6,1.5c-2.3,0-3.5-1.3-3.5-3.8c0-1.6,0.3-2.9,1-4
						c0.8-1.3,2-1.9,3.6-1.9c1.1,0,2.1,0.5,2.9,1.5C62,4.1,62.4,5.1,62.4,6.3z M60.6,7.1c0-0.5-0.5-1.1-1.4-1.8
						c-0.9-0.6-1.7-1-2.3-1c-0.5,0-1,0.2-1.4,0.7s-0.6,1-0.6,1.4c0,1.3,1,1.9,2.9,1.9C59.6,8.3,60.6,7.9,60.6,7.1z"/>
					<path class="st5" d="M67.4,46.9h-4.6c-2.2,0-3.7-1.3-4.7-3.8c-1.3,2.5-2.8,3.8-4.6,3.8h-2.3v-7c2.7,0,3.8,0,3.2,0
						c1.5,0,2.5-0.3,3-0.8c0.1-0.1,0.2-1.2,0.2-3.2L58,36c0.3,2,1.5,3.2,3.7,3.6c0.7,0.2,2.6,0.3,5.8,0.3L67.4,46.9L67.4,46.9z
						 M64.6,29.2l-2.5,4.2L58,30.6l-2,3.6L51.5,31l2.6-4.2l3.9,3l2.4-3.8L64.6,29.2z M59.9,22.7L57.4,27l-4.3-3l2.7-4.2L59.9,22.7z"
						/>
					<path class="st4" d="M84,38.6c0,1.5-0.4,2.8-1.1,4c-0.8,1.4-1.9,2.1-3.3,2.1c-1.5,0-4-0.8-7.6-2.5c-0.3,0.9-0.9,1.8-1.9,3
						c-1,1.3-1.9,1.9-2.7,1.9h-2.3v-7c2.1,0,3.5-0.1,4.2-0.4c1-0.4,1.9-1.4,2.6-3s1.3-3.2,2-4.9c1.2-2.1,2.6-3.2,4.2-3.2
						c1.8,0,3.3,1.3,4.5,4C83.5,34.6,84,36.6,84,38.6z M80.1,37.2c0-0.8-0.4-1.5-1.1-2.1s-1.5-0.9-2.4-0.9c-1,0-1.9,0.6-2.5,1.9
						c2.4,1.3,4.1,2,5,2C79.7,38.2,80.1,37.9,80.1,37.2z"/>
					<path class="st4" d="M127.4,45.3c0,3.8-1,7.3-2.9,10.6c-2.3,4-5.3,6-8.9,6c-2.2,0-5-1.1-8.4-3.3l0.4-0.9c1,0.2,1.9,0.3,2.5,0.3
						c3,0,6.2-1.4,9.7-4.1c3.5-2.7,5.2-5.4,5.2-8.1c0-1-0.7-2.4-2.2-4.4c-1.1-1.3-2.2-2.6-3.2-3.9c0.7-3,1.2-5.4,1.6-7.2
						C125.3,34.8,127.4,39.7,127.4,45.3z"/>
					<path class="st4" d="M146,46.9h-4.7c-2.2,0-3.8-0.9-4.9-2.7c-0.8-1.4-1.4-4.1-1.5-8.1c0-1.7-0.4-4.7-0.9-9.1
						c-0.6-4-0.8-7-0.8-9.1c0-0.6,0-1.1,0.1-1.4c0-0.3,1.2-1.4,3.5-3.2c0,0.2,0.3,3.8,0.9,10.7c0.6,6.3,0.8,10.1,0.8,11.4
						c0,1.5,0.3,2.6,0.8,3.4c0.5,0.7,1.6,1.1,3.1,1.1c-2.4,0-1.2-0.1,3.6-0.1L146,46.9L146,46.9L146,46.9z"/>
					<path class="st4" d="M172.3,46.9h-4.7c-1.9,0-3.4-0.6-4.3-1.7c-0.3,2.6-1.5,4-3.7,4c-2,0-4.7-1.9-8.2-5.6
						c-0.3,0.5-1.1,1.4-2.5,2.5c-0.8,0.6-2.5,0.9-5.2,0.9v-7h2.4c1.7,0,3.1-0.8,4.3-2.3c0.9-1.4,1.8-2.9,2.7-4.3
						c1.1-1.5,2.5-2.3,4.1-2.3c0.8,0,1.8,0.7,3,2.2c1.1,1.5,2.2,2.9,3.2,4.4c1.4,1.6,2.8,2.3,4.3,2.3h4.7L172.3,46.9L172.3,46.9z
						 M159.2,40c0-1-0.2-2.1-0.5-3.4c-0.4-1.6-1-2.4-1.7-2.4c-0.6,0-1.2,0.6-1.8,1.7c-0.4,0.8-0.8,1.7-1.2,2.5
						c2.1,2.1,3.6,3.1,4.4,3.1C158.9,41.5,159.2,41,159.2,40z"/>
					<path class="st5" d="M181.8,68.8c0,1.5-0.5,2.6-1.6,3.2l-9.6,5.3c0-1,0.1-1.7,0.4-2c0.3-0.4,0.9-0.8,1.8-1.4L181.8,68.8z"/>
					<path class="st5" d="M180.4,36.4c0,2.9-0.6,5.2-1.8,7.1c-1.4,2.2-3.5,3.4-6.3,3.4H170v-7c4.9,0,7.3-0.5,7.3-1.6
						c0-0.2-0.4-0.8-1.2-1.7s-1.2-1.6-1.2-2.2c0-0.8,1-3.1,3.1-6.9C179.5,31,180.4,33.9,180.4,36.4z M183.4,22.2l-2.7,4.1l-4.1-2.7
						l-2,3.5l-4.4-3.1l2.7-4.2l3.9,2.9l2.5-3.8L183.4,22.2z M178.5,15.8L176,20l-4.3-3.1l2.6-4.2L178.5,15.8z"/>
					<path class="st4" d="M232,35.4c0,4-1.4,7.2-4.2,9.6c-2.8,2.4-6.3,3.7-10.5,3.7c-3,0-5.4-0.7-7.3-2.1c-2.1-1.5-3.2-3.7-3.2-6.4
						c0-3.4,1.3-7.6,3.9-12.7l0.9,0.6c-1.2,2.3-1.8,4.4-1.8,6.1c0,2.8,0.8,4.8,2.5,5.8c1.3,0.9,3.6,1.3,6.8,1.3
						c2.3,0,4.4-0.4,6.5-1.2c2.8-1.1,4.2-2.5,4.2-4.3c0-0.8-0.8-2.4-2.3-4.8c-1.3-2.1-2.3-3.7-3.1-4.7l2.6-6.2
						C230.3,24.3,232,29.4,232,35.4z M220.5,17.3l-2.6,4.1l-4.3-3l2.7-4.2L220.5,17.3z"/>
					<path class="st4" d="M250.8,46.9h-4.7c-2.2,0-3.8-0.9-4.9-2.7c-0.8-1.4-1.4-4.1-1.5-8.1c0-1.7-0.4-4.7-0.9-9.1
						c-0.6-4-0.8-7-0.8-9.1c0-0.6,0-1.1,0.1-1.4c0-0.3,1.2-1.4,3.5-3.2c0,0.2,0.3,3.8,0.9,10.7c0.6,6.3,0.8,10.1,0.8,11.4
						c0,1.5,0.3,2.6,0.8,3.4c0.5,0.7,1.6,1.1,3.1,1.1c-2.4,0-1.2-0.1,3.6-0.1L250.8,46.9L250.8,46.9z"/>
					<path class="st4" d="M264.7,46.9h-4.6c-2.2,0-3.7-1.3-4.7-3.8c-1.3,2.5-2.8,3.8-4.6,3.8h-2.3v-7c2.7,0,3.8,0,3.2,0
						c1.5,0,2.5-0.3,3-0.8c0.1-0.1,0.2-1.2,0.2-3.2l0.4,0.1c0.3,2,1.5,3.2,3.7,3.7c0.7,0.1,2.6,0.2,5.8,0.2L264.7,46.9L264.7,46.9z
						 M259.5,52.3l-2.6,4.2l-4.3-3l2.7-4.2L259.5,52.3z"/>
					<path class="st4" d="M284.9,46.9h-4.7c-0.9,0-2.1-0.7-3.7-2.1c-0.1,0-1.2-1.1-3.3-3.3c-3.9,3.6-6.7,5.4-8.4,5.4h-2.3v-7
						c2.2,0,3.5,0,3.9-0.1c0.9-0.2,2.1-0.7,3.4-1.6c-1.5-2.2-3.5-3.3-5.8-3.3c0.2-2.7,1-4.7,2.5-5.8c1.4-1,3.5-1.5,6.5-1.5
						c2.2,0,4,0.5,5.4,1.5c1.6,1.2,2.5,2.8,2.5,4.8c0,2.1-1.3,3.8-3.9,5c1.2,0.6,2.5,0.9,3.7,0.9c-0.6,0,0.8,0,4.2,0L284.9,46.9
						L284.9,46.9z"/>
					<path class="st5" d="M294.5,0.1l-0.3,3.1c-0.6-0.3-1.4-0.8-2.6-1.6c-2.5,3-4.7,4.5-6.5,4.5c-0.4,0-1.1-0.1-2-0.3
						c2.1-1.1,4.4-2.7,7-4.9c-1.4-1.1-2-2-2-2.9c0-1.1,0.4-2.2,1.2-3.5c0.8-1.3,1.7-1.9,2.8-1.9c1.4,0,2.1,0.9,2.1,2.8
						c0,1.3-0.3,2.5-1,3.8C293.7-0.5,294.1-0.2,294.5,0.1z M292.3-2.7c0-0.4-0.2-0.8-0.5-1.3c-0.4-0.5-0.7-0.7-1.2-0.7
						s-0.7,0.3-0.7,0.9c0,0.4,0.8,1.1,2.3,2.1C292.2-2.3,292.3-2.6,292.3-2.7z"/>
					<path class="st5" d="M292.9,36.4c0,2.9-0.6,5.2-1.8,7.1c-1.4,2.2-3.5,3.4-6.3,3.4h-2.3v-7c4.9,0,7.3-0.5,7.3-1.6
						c0-0.2-0.4-0.8-1.2-1.7c-0.8-0.9-1.2-1.6-1.2-2.2c0-0.8,1-3.1,3.1-6.9C292.1,31,292.9,33.9,292.9,36.4z M296,22.2l-2.7,4.1
						l-4.1-2.7l-2,3.5l-4.4-3.1l2.7-4.2l3.9,2.9l2.5-3.8L296,22.2z M291.1,15.8l-2.5,4.2l-4.3-3.1l2.6-4.2L291.1,15.8z"/>
					<path class="st4" d="M379,46.9h-4.7c-2.5,0-4-1.1-4.6-3.2c-5.8,3.8-13,5.8-21.5,5.8c-4.7,0-8.6-0.8-11.7-2.3
						c-3.9-2-5.8-5-5.8-9.1c0-2.5,1-5.9,3.1-9.9l0.9,0.4c-0.8,2-1.3,3.8-1.3,5.5c0,3,2,5.3,6,6.6c2.8,1,6.1,1.5,10,1.5
						c7.1,0,12.4-0.6,15.8-1.8c1.1-0.4,1.7-0.6,1.8-0.6c0.8-0.4,1.2-0.7,1.4-1.2c0.2-0.4,0.3-1.2,0.2-2.4h0.7c0.7,2.5,2.6,3.8,6,3.8
						c0.4,0,1,0,1.8-0.1c0.8,0,1.4,0,1.8,0L379,46.9L379,46.9z M356.6,56.4l-2.5,4.2l-4.3-3.1l2.7-4.1L356.6,56.4z"/>
					<path class="st4" d="M395.6,46.9H391c-3.1,0-5.2-2.5-6.2-7.5c-1.5,5-3.4,7.5-5.8,7.5h-2.3v-7h2.3c3,0,4.5-2.7,4.5-8
						c0-2.2-0.2-5.5-0.6-9.9s-0.6-7.7-0.6-9.9c0-0.1,1.1-1,3.4-2.9c0.5,3.1,0.7,5.7,0.7,7.9c0,4.7,0.2,8.9,0.6,12.6
						c0.8,6.8,2.1,10.2,3.9,10.2h4.6v7H395.6z"/>
					<path class="st4" d="M415.8,46.9h-4.7c-0.9,0-2.1-0.7-3.7-2.1c-0.1,0-1.2-1.1-3.3-3.3c-3.9,3.6-6.7,5.4-8.4,5.4h-2.3v-7
						c2.2,0,3.5,0,3.9-0.1c0.9-0.2,2.1-0.7,3.4-1.6c-1.5-2.2-3.5-3.3-5.8-3.3c0.2-2.7,1-4.7,2.5-5.8c1.4-1,3.5-1.5,6.5-1.5
						c2.2,0,4,0.5,5.4,1.5c1.6,1.2,2.5,2.8,2.5,4.8c0,2.1-1.3,3.8-3.9,5c1.2,0.6,2.5,0.9,3.7,0.9c-0.6,0,0.8,0,4.2,0L415.8,46.9
						L415.8,46.9z"/>
					<path class="st5" d="M425.3-2.5c0,1.6-0.5,2.7-1.6,3.4L414.1,6c0-0.9,0.1-1.6,0.4-2s0.9-0.8,1.8-1.3L425.3-2.5z"/>
					<path class="st5" d="M423.9,36.4c0,2.9-0.6,5.2-1.8,7.1c-1.4,2.2-3.5,3.4-6.3,3.4h-2.3v-7c4.9,0,7.3-0.5,7.3-1.6
						c0-0.2-0.4-0.8-1.2-1.7c-0.8-0.9-1.2-1.6-1.2-2.2c0-0.8,1-3.1,3.1-6.9C423,31,423.9,33.9,423.9,36.4z M426.9,22.2l-2.7,4.1
						l-4.1-2.7l-2,3.5l-4.4-3.1l2.7-4.2l3.9,2.9l2.5-3.8L426.9,22.2z M422,15.8l-2.5,4.2l-4.3-3.1l2.6-4.2L422,15.8z"/>
					<path class="st4" d="M474,46.9h-4.8c-0.6,4.2-1.7,7.7-3.2,10.5c-2.2,4-5,6-8.6,6c-2.5,0-5.7-1.2-9.4-3.6l0.5-0.8
						c1.5,0.3,2.5,0.4,3.2,0.4c2.5,0,5-1,7.7-2.9c1.1-0.8,2.5-2.4,4-4.7c1.1-1.8,2.3-3.6,3.4-5.4c-2.1-0.7-3.6-2.3-4.6-4.9l3.9-5.5
						c0.9,1.8,1.9,3,3,3.4c0.7,0.3,2.3,0.4,4.8,0.4L474,46.9L474,46.9z"/>
					<path class="st4" d="M510.7,46.9H503c-6,0-8.9-1.7-8.9-5c0-1.1,0.4-2.8,1.3-5.1c-3,0.4-5.5,1.2-7.5,2.1c-1.2,0.6-3.3,2-6.3,4.2
						c-1,0.7-2.5,1.7-4.5,3c-1,0.5-2.7,0.7-5.2,0.7v-7c3.1,0,5.6-0.3,7.5-0.8c1.6-0.4,4-1.4,7-2.9c-2.7-1.3-4.8-1.9-6.3-1.9
						c-0.9,0-1.7,0.4-2.2,1.2h-4.4c0.7-2.6,1.4-4.4,2.1-5.6c1.2-1.7,3-2.6,5.2-2.6c1.4,0,3.5,0.5,6.2,1.5c4.4,1.6,8.2,2.4,11.6,2.4
						c0.6,0,1.4,0,2.5-0.1s1.9-0.1,2.5-0.1l-0.8,5.4c-2.2,0.2-3.8,0.3-4.9,0.5c0.7,1.3,1.5,2.2,2.5,2.6c0.8,0.3,2.1,0.5,3.8,0.5h6.6
						L510.7,46.9L510.7,46.9z M492.2,49.6l-2.5,4.2l-4.3-3.2l2.7-4.2L492.2,49.6z"/>
					<path class="st5" d="M519.5,11.1c0,1.3-0.5,2.5-1.4,3.6c-1,1-2.2,1.5-3.6,1.5c-2.3,0-3.5-1.3-3.5-3.8c0-1.6,0.3-2.9,1-4
						c0.8-1.3,2-1.9,3.6-1.9c1.1,0,2.1,0.5,2.9,1.5C519.1,8.9,519.5,10,519.5,11.1z M517.7,11.9c0-0.5-0.5-1.1-1.4-1.8
						c-0.9-0.6-1.7-1-2.3-1c-0.5,0-1,0.2-1.4,0.7s-0.6,1-0.6,1.4c0,1.3,1,1.9,2.9,1.9C516.8,13.1,517.7,12.7,517.7,11.9z"/>
					<path class="st5" d="M524.5,46.9h-4.6c-2.2,0-3.7-1.3-4.7-3.8c-1.3,2.5-2.8,3.8-4.6,3.8h-2.3v-7c2.7,0,3.8,0,3.2,0
						c1.5,0,2.5-0.3,3-0.8c0.1-0.1,0.2-1.2,0.2-3.2L515,36c0.3,2,1.5,3.2,3.7,3.6c0.7,0.2,2.6,0.3,5.8,0.3V46.9L524.5,46.9z
						 M521.7,29.2l-2.5,4.2l-4.1-2.8l-2,3.6l-4.4-3.2l2.6-4.2l3.9,3l2.4-3.8L521.7,29.2z"/>
					<path class="st4" d="M541.1,38.6c0,1.5-0.4,2.8-1.1,4c-0.8,1.4-1.9,2.1-3.3,2.1c-1.5,0-4-0.8-7.6-2.5c-0.3,0.9-0.9,1.8-1.9,3
						c-1,1.3-1.9,1.9-2.7,1.9h-2.3v-7c2.1,0,3.5-0.1,4.2-0.4c1-0.4,1.9-1.4,2.6-3s1.3-3.2,2-4.9c1.2-2.1,2.6-3.2,4.2-3.2
						c1.8,0,3.3,1.3,4.5,4C540.6,34.6,541.1,36.6,541.1,38.6z M537.2,37.2c0-0.8-0.4-1.5-1.1-2.1c-0.7-0.6-1.5-0.9-2.4-0.9
						c-1,0-1.9,0.6-2.5,1.9c2.4,1.3,4.1,2,5,2C536.8,38.2,537.2,37.9,537.2,37.2z"/>
					<path class="st4" d="M569.9,37.5h-4.4c0.7-2.6,1.4-4.5,2.1-5.6c1.2-1.8,3-2.7,5.2-2.7c1.7,0,3.9,0.2,6.6,0.7
						c3.5,0.6,5.7,0.9,6.6,1c1.5,0,3.7,0.1,6.5,0.3l-1.1,5.4c-2.6,0-5.1,0.2-7.3,0.6c-4.1,0.7-7.7,2.3-10.7,4.8
						c-3.4,2.8-5.1,6.1-5.1,9.9c0,4.5,2.8,7.9,8.3,10.1c4,1.6,8.8,2.3,14.4,2.3c1.5,0,4.9-0.2,10.4-0.6l0.1,0.8L587.7,71H586
						c-6.1,0-10.9-1.1-14.4-3.2c-4.3-2.6-6.5-6.6-6.5-12.1c0-7.5,4-13.7,11.9-18.6c-2.5-0.5-4.2-0.8-5-0.8c-0.7,0-1.2,0.1-1.4,0.2
						C570.5,36.6,570.2,36.9,569.9,37.5z"/>
					<path class="st4" d="M618.3,46.9h-4.7c-2.2,0-3.8-0.9-4.9-2.7c-0.8-1.4-1.4-4.1-1.5-8.1c0-1.7-0.4-4.7-0.9-9.1
						c-0.6-4-0.8-7-0.8-9.1c0-0.6,0-1.1,0.1-1.4c0-0.3,1.2-1.4,3.5-3.2c0,0.2,0.3,3.8,0.9,10.7c0.6,6.3,0.8,10.1,0.8,11.4
						c0,1.5,0.3,2.6,0.8,3.4c0.5,0.7,1.6,1.1,3.1,1.1c-2.4,0-1.2-0.1,3.6-0.1L618.3,46.9L618.3,46.9z"/>
					<path class="st4" d="M628.7,46.9c-3,0-4.9-1.3-5.9-3.9c-1.2,2.6-2.7,3.9-4.6,3.9h-2.3v-7c3.5,0,5.6-0.3,6.3-0.8
						c0.3-0.2,0.5-1.2,0.6-3h0.4c0.5,1.4,1.3,2.4,2.3,2.9c0.8,0.4,2.1,0.5,3.9,0.5v7.3C629.3,46.9,628.7,46.9,628.7,46.9z"/>
					<path class="st4" d="M628.7,39.6h2.3c1.9,0,3.1-0.4,3.4-1.1c0.1-0.2,0.3-1.3,0.5-3.5l0.8,0.1c0,0.9,0.9,2,2.6,3.2
						c0.6,0.4,1.7,0.6,3.4,0.6c1.3,0,2.2-0.4,2.7-1.3c0.3-0.5,0.4-1.5,0.5-3h0.8c0.4,1.7,1.2,3.1,2.5,4.2c0.8,0.7,2.1,1.1,3.8,1.2
						c-1.5,0-0.1-0.1,4.2-0.1v7h-4.6c-1.7,0-3.1-0.7-4.2-2.1c-0.7-0.9-1.3-2.3-2-4.4c-1.3,3.8-3.1,5.6-5.4,5.6
						c-1.9,0-3.3-1.2-4.2-3.7c-1.3,3-3.7,4.5-7.2,4.5L628.7,39.6L628.7,39.6z"/>
					<path class="st4" d="M682.5,46.9h-4.7c-1.9,0-3.4-0.6-4.3-1.7c-0.3,2.6-1.5,4-3.7,4c-2,0-4.7-1.9-8.2-5.6
						c-0.3,0.5-1.1,1.4-2.5,2.5c-0.8,0.6-2.5,0.9-5.2,0.9v-7h2.4c1.7,0,3.1-0.8,4.3-2.3c0.9-1.4,1.8-2.9,2.7-4.3
						c1.1-1.5,2.5-2.3,4.1-2.3c0.8,0,1.8,0.7,3,2.2s2.2,2.9,3.2,4.4c1.4,1.6,2.8,2.3,4.3,2.3h4.7L682.5,46.9L682.5,46.9z M669.4,40
						c0-1-0.2-2.1-0.5-3.4c-0.4-1.6-1-2.4-1.7-2.4c-0.6,0-1.2,0.6-1.8,1.7c-0.4,0.8-0.8,1.7-1.2,2.5c2.1,2.1,3.6,3.1,4.4,3.1
						C669.1,41.5,669.4,41,669.4,40z"/>
					<path class="st4" d="M680.2,46.9v-7h14.1v7H680.2z"/>
					<path class="st5" d="M702.9,68.8c0,1.5-0.5,2.6-1.6,3.2l-9.6,5.3c0-1,0.1-1.7,0.4-2c0.3-0.4,0.9-0.8,1.8-1.4L702.9,68.8z"/>
					<path class="st5" d="M701.4,36.4c0,2.9-0.6,5.2-1.8,7.1c-1.4,2.2-3.5,3.4-6.3,3.4H691v-7c4.9,0,7.3-0.5,7.3-1.6
						c0-0.2-0.4-0.8-1.2-1.7s-1.2-1.6-1.2-2.2c0-0.8,1-3.1,3.1-6.9C700.6,31,701.4,33.9,701.4,36.4z M704.5,22.2l-2.7,4.1l-4.1-2.7
						l-2,3.5l-4.4-3.1l2.7-4.2l3.9,2.9l2.5-3.8L704.5,22.2z"/>
					<path class="st4" d="M731.2,37.5h-4.4c0.7-2.6,1.4-4.5,2.1-5.6c1.2-1.8,3-2.7,5.2-2.7c1.7,0,3.9,0.2,6.6,0.7
						c3.5,0.6,5.7,0.9,6.6,1c1.5,0,3.7,0.1,6.5,0.3l-1.1,5.4c-2.6,0-5.1,0.2-7.3,0.6c-4.1,0.7-7.7,2.3-10.7,4.8
						c-3.4,2.8-5.1,6.1-5.1,9.9c0,4.5,2.8,7.9,8.3,10.1c4,1.6,8.8,2.3,14.4,2.3c1.5,0,4.9-0.2,10.4-0.6l0.1,0.8L749,71h-1.7
						c-6.1,0-10.9-1.1-14.4-3.2c-4.3-2.6-6.5-6.6-6.5-12.1c0-7.5,4-13.7,11.9-18.6c-2.5-0.5-4.2-0.8-5-0.8c-0.7,0-1.2,0.1-1.4,0.2
						C731.7,36.6,731.5,36.9,731.2,37.5z"/>
					<path class="st4" d="M779.6,46.9h-4.7c-2.2,0-3.8-0.9-4.9-2.7c-0.8-1.4-1.4-4.1-1.5-8.1c0-1.7-0.4-4.7-0.9-9.1
						c-0.6-4-0.8-7-0.8-9.1c0-0.6,0-1.1,0.1-1.4s1.2-1.4,3.5-3.2c0,0.2,0.3,3.8,0.9,10.7c0.6,6.3,0.8,10.1,0.8,11.4
						c0,1.5,0.3,2.6,0.8,3.4c0.5,0.7,1.6,1.1,3.1,1.1c-2.4,0-1.2-0.1,3.6-0.1L779.6,46.9L779.6,46.9z"/>
					<path class="st4" d="M799.7,46.9H795c-3.5,0-6.1-0.8-7.9-2.5c-3.1,1.7-5.6,2.5-7.6,2.5h-2.3v-7c2.3,0,3.8-0.3,4.8-0.8
						c-0.5-0.5-0.8-1-0.8-1.6c0-2.1,0.7-4.4,2.2-6.9c1.4-2.4,3-4.2,4.8-5.6c1.2-0.9,2.2-1.3,3-1.3c1.5,0,2.6,1.1,3.3,3.4
						c0.5,1.6,0.8,3.3,0.8,5.2c0,2.6-0.8,4.9-2.5,6.8c0.8,0.6,2,1,3.4,1c-2.2,0-1-0.1,3.6-0.1L799.7,46.9L799.7,46.9z M792.7,34.3
						c0-1-0.4-1.9-1.2-2.6c-0.8-0.7-1.8-1-2.9-1c-0.9,0-1.8,0.2-2.6,0.7c-1,0.5-1.5,1.2-1.5,2c0,1,1.2,2.3,3.5,4
						C791.2,36.6,792.7,35.6,792.7,34.3z M793.9,15.8l-2.6,4.2l-4.3-3l2.7-4.2L793.9,15.8z"/>
					<path class="st5" d="M809.3,4.8L809,7.9c-0.6-0.3-1.4-0.8-2.6-1.6c-2.5,3-4.7,4.5-6.5,4.5c-0.4,0-1.1-0.1-2-0.3
						c2.1-1.1,4.4-2.7,7-4.9c-1.4-1.1-2-2-2-2.9c0-1.1,0.4-2.2,1.2-3.5s1.7-1.9,2.8-1.9c1.4,0,2.1,0.9,2.1,2.8c0,1.3-0.3,2.5-1,3.8
						C808.5,4.2,808.9,4.6,809.3,4.8z M807,2c0-0.4-0.2-0.8-0.5-1.3c-0.4-0.5-0.7-0.7-1.2-0.7s-0.7,0.3-0.7,0.9
						c0,0.4,0.8,1.1,2.3,2.1C807,2.5,807,2.2,807,2z"/>
					<path class="st5" d="M807.7,36.4c0,2.9-0.6,5.2-1.8,7.1c-1.4,2.2-3.5,3.4-6.3,3.4h-2.3v-7c4.9,0,7.3-0.5,7.3-1.6
						c0-0.2-0.4-0.8-1.2-1.7s-1.2-1.6-1.2-2.2c0-0.8,1-3.1,3.1-6.9C806.9,31,807.7,33.9,807.7,36.4z M810.7,22.2l-2.7,4.1l-4.1-2.7
						l-2,3.5l-4.4-3.1l2.7-4.2l3.9,2.9l2.5-3.8L810.7,22.2z"/>
					<path class="st4" d="M857.9,46.9h-4.8c-0.6,4.2-1.7,7.7-3.2,10.5c-2.2,4-5,6-8.6,6c-2.5,0-5.7-1.2-9.4-3.6l0.5-0.8
						c1.5,0.3,2.5,0.4,3.2,0.4c2.5,0,5-1,7.7-2.9c1.1-0.8,2.5-2.4,4-4.7c1.1-1.8,2.3-3.6,3.4-5.4c-2.1-0.7-3.6-2.3-4.6-4.9L850,36
						c0.9,1.8,1.9,3,3,3.4c0.7,0.3,2.3,0.4,4.8,0.4L857.9,46.9L857.9,46.9z"/>
					<path class="st4" d="M884.3,46.9h-4.7c-1.9,0-3.4-0.6-4.3-1.7c-0.3,2.6-1.5,4-3.7,4c-2,0-4.7-1.9-8.2-5.6
						c-0.3,0.5-1.2,1.4-2.5,2.5c-0.8,0.6-2.5,0.9-5.2,0.9v-7h2.4c1.7,0,3.1-0.8,4.3-2.3c0.9-1.4,1.8-2.9,2.7-4.3
						c1.1-1.5,2.5-2.3,4.1-2.3c0.8,0,1.8,0.7,3,2.2c1.1,1.5,2.2,2.9,3.2,4.4c1.4,1.6,2.8,2.3,4.3,2.3h4.7L884.3,46.9L884.3,46.9z
						 M871.2,40c0-1-0.2-2.1-0.5-3.4c-0.4-1.6-1-2.4-1.7-2.4c-0.6,0-1.2,0.6-1.8,1.7c-0.4,0.8-0.8,1.7-1.2,2.5
						c2.1,2.1,3.6,3.1,4.4,3.1C870.9,41.5,871.2,41,871.2,40z"/>
					<path class="st4" d="M882,46.9v-7h14.1v7H882z"/>
					<path class="st5" d="M904.7,2.3c0,1.6-0.5,2.7-1.6,3.4l-9.6,5.2c0-0.9,0.1-1.6,0.4-2c0.3-0.4,0.9-0.8,1.8-1.3L904.7,2.3z"/>
					<path class="st5" d="M903.2,36.4c0,2.9-0.6,5.2-1.8,7.1c-1.4,2.2-3.5,3.4-6.3,3.4h-2.3v-7c4.9,0,7.3-0.5,7.3-1.6
						c0-0.2-0.4-0.8-1.2-1.7s-1.2-1.6-1.2-2.2c0-0.8,1-3.1,3.1-6.9C902.4,31,903.2,33.9,903.2,36.4z M906.3,22.2l-2.7,4.1l-4.1-2.7
						l-2,3.5L893,24l2.7-4.2l3.9,2.9L902,19L906.3,22.2z"/>
					<path class="st4" d="M964.3,46.9h-4.8c-0.6,4.2-1.7,7.7-3.2,10.5c-2.2,4-5,6-8.6,6c-2.5,0-5.7-1.2-9.4-3.6l0.5-0.8
						c1.5,0.3,2.5,0.4,3.2,0.4c2.5,0,5-1,7.7-2.9c1.1-0.8,2.5-2.4,4-4.7c1.1-1.8,2.3-3.6,3.4-5.4c-2.1-0.7-3.6-2.3-4.6-4.9l3.9-5.5
						c0.9,1.8,1.9,3,3,3.4c0.7,0.3,2.3,0.4,4.8,0.4L964.3,46.9L964.3,46.9z M959.4,26.8L957,31l-4.3-3.1l2.5-4.2L959.4,26.8z"/>
					<path class="st5" d="M978.7,46.9h-4.6c-2.2,0-3.7-1.3-4.7-3.8c-1.3,2.5-2.8,3.8-4.6,3.8h-2.3v-7c2.7,0,3.8,0,3.2,0
						c1.5,0,2.5-0.3,3-0.8c0.1-0.1,0.2-1.2,0.2-3.2l0.4,0.1c0.3,2,1.5,3.2,3.7,3.7c0.7,0.1,2.6,0.2,5.8,0.2L978.7,46.9L978.7,46.9z
						 M973.5,52.3l-2.6,4.2l-4.3-3l2.7-4.2L973.5,52.3z"/>
					<path class="st4" d="M997,5.1c0,1.3-0.5,2.5-1.4,3.6c-1,1-2.2,1.5-3.6,1.5c-2.3,0-3.5-1.3-3.5-3.8c0-1.6,0.3-2.9,1-4
						c0.8-1.3,2-1.9,3.6-1.9c1.1,0,2.1,0.5,2.9,1.5C996.6,2.9,997,4,997,5.1z M995.2,5.9c0-0.5-0.5-1.1-1.4-1.8
						c-0.9-0.6-1.7-1-2.3-1c-0.5,0-1,0.2-1.4,0.7s-0.6,1-0.6,1.4c0,1.3,1,1.9,2.9,1.9C994.2,7.2,995.2,6.8,995.2,5.9z"/>
					<path class="st4" d="M1006.8,31l-0.8,5.4c-0.9,0.1-2.2,0.2-3.9,0.2c-3.3,0-6.4,0.7-9.2,2c-1.4,0.7-3.3,1.9-5.7,3.8
						c-2.4,1.9-4.3,3.1-5.6,3.7c-0.9,0.5-2.7,0.7-5.2,0.7v-7c3.1,0,5.6-0.3,7.5-0.8c1.6-0.4,4-1.4,7-2.9c-2.7-1.3-4.8-1.9-6.3-1.9
						c-1.2,0-1.9,0.4-2.2,1.2H978c0.7-2.6,1.4-4.4,2.1-5.6c1.2-1.7,3-2.6,5.2-2.6c1.4,0,3.5,0.5,6.2,1.5c4.4,1.6,8.2,2.4,11.6,2.4
						c0.4,0,1,0,1.8-0.1C1005.8,31,1006.4,31,1006.8,31z M999.3,21.2l-2.5,4.2l-4.3-3l2.6-4.2L999.3,21.2z"/>
					<path class="st4" d="M1082.1,46.9h-4.7c-2.5,0-4-1.1-4.6-3.2c-5.8,3.8-13,5.8-21.5,5.8c-4.7,0-8.6-0.8-11.7-2.3
						c-3.9-2-5.8-5-5.8-9.1c0-2.5,1-5.9,3.1-9.9l0.9,0.4c-0.8,2-1.3,3.8-1.3,5.5c0,3,2,5.3,6,6.6c2.8,1,6.1,1.5,10,1.5
						c7.1,0,12.4-0.6,15.8-1.8c1.1-0.4,1.7-0.6,1.8-0.6c0.8-0.4,1.2-0.7,1.4-1.2c0.2-0.4,0.3-1.2,0.2-2.4h0.7c0.7,2.5,2.7,3.8,6,3.8
						c0.4,0,1,0,1.8-0.1c0.8,0,1.4,0,1.8,0L1082.1,46.9L1082.1,46.9z M1061.1,24l-2.6,4.1l-4.1-2.7l-2,3.5l-4.4-3.1l2.6-4.2l3.9,3
						l2.4-3.7L1061.1,24z"/>
					<path class="st4" d="M1096.1,46.9h-4.6c-2.2,0-3.7-1.3-4.7-3.8c-1.3,2.5-2.8,3.8-4.6,3.8h-2.3v-7c2.7,0,3.8,0,3.2,0
						c1.5,0,2.5-0.3,3-0.8c0.1-0.1,0.2-1.2,0.2-3.2l0.4,0.1c0.3,2,1.5,3.2,3.7,3.6c0.7,0.2,2.6,0.3,5.8,0.3L1096.1,46.9L1096.1,46.9
						z M1091.2,28.8l-2.4,4.2l-4.3-3.1l2.5-4.1L1091.2,28.8z"/>
					<path class="st5" d="M1105.6,68.2c0,1.5-0.5,2.6-1.6,3.2l-9.6,5.3c0-1,0.1-1.7,0.4-2c0.3-0.4,0.9-0.8,1.8-1.4L1105.6,68.2z"/>
					<path class="st5" d="M1104.1,36.4c0,2.9-0.6,5.2-1.8,7.1c-1.4,2.2-3.5,3.4-6.3,3.4h-2.3v-7c4.9,0,7.3-0.5,7.3-1.6
						c0-0.2-0.4-0.8-1.2-1.7c-0.8-0.9-1.2-1.6-1.2-2.2c0-0.8,1-3.1,3.1-6.9C1103.3,31,1104.1,33.9,1104.1,36.4z M1104.1,52.3
						l-2.6,4.2l-4.3-3l2.7-4.2L1104.1,52.3z"/>
					<path class="st4" d="M1167.5,31.3l-1.1,5.4c-2.6,0-5.1,0.2-7.3,0.6c-4.1,0.7-7.7,2.3-10.7,4.8c-3.4,2.8-5.1,6.1-5.1,9.9
						c0,4.5,2.8,7.9,8.3,10.1c4,1.6,8.8,2.3,14.4,2.3c1.5,0,4.9-0.2,10.4-0.6l0.1,0.8l-13.9,6.4h-1.7c-6.1,0-10.9-1.1-14.4-3.2
						c-4.3-2.6-6.5-6.6-6.5-12.1c0-7.5,4-13.7,11.9-18.6l-4.3-0.9c-1.5,0-2.4,0.4-2.9,1.3h-4.4c0.7-2.6,1.4-4.4,2.1-5.6
						c1.2-1.8,3-2.7,5.2-2.7c1.7,0,3.9,0.2,6.7,0.7c3.5,0.6,5.7,0.9,6.6,1C1162.5,31,1164.6,31.1,1167.5,31.3z M1159.8,50.2
						l-2.5,4.2l-4.3-3.1l2.5-4.2L1159.8,50.2z"/>
					<path class="st4" d="M1203,46.9h-4.8c-0.6,4.2-1.7,7.7-3.2,10.5c-2.2,4-5,6-8.6,6c-2.5,0-5.7-1.2-9.4-3.6l0.5-0.8
						c1.5,0.3,2.5,0.4,3.2,0.4c2.5,0,5-1,7.7-2.9c1.1-0.8,2.5-2.4,4-4.7c1.1-1.8,2.3-3.6,3.4-5.4c-2.1-0.7-3.6-2.3-4.6-4.9l3.9-5.5
						c0.9,1.8,1.9,3,3,3.4c0.7,0.3,2.3,0.4,4.8,0.4L1203,46.9L1203,46.9z"/>
					<path class="st5" d="M1212.7,11.3l-0.3,3.1c-0.6-0.3-1.4-0.8-2.6-1.6c-2.5,3-4.7,4.5-6.5,4.5c-0.4,0-1.1-0.1-2-0.3
						c2.1-1.1,4.4-2.7,7-4.9c-1.4-1.1-2-2-2-2.9c0-1.1,0.4-2.2,1.2-3.5c0.8-1.3,1.7-1.9,2.8-1.9c1.4,0,2.1,0.9,2.1,2.7
						c0,1.3-0.3,2.5-1,3.8C1211.9,10.7,1212.4,11,1212.7,11.3z M1210.5,8.4c0-0.4-0.2-0.8-0.5-1.3c-0.4-0.5-0.7-0.7-1.2-0.7
						s-0.7,0.3-0.7,0.9c0,0.4,0.8,1.1,2.3,2.1C1210.4,8.9,1210.5,8.6,1210.5,8.4z"/>
					<path class="st5" d="M1211.1,36.4c0,2.9-0.6,5.2-1.8,7.1c-1.4,2.2-3.5,3.4-6.3,3.4h-2.3v-7c4.9,0,7.3-0.5,7.3-1.6
						c0-0.2-0.4-0.8-1.2-1.7c-0.8-0.9-1.2-1.6-1.2-2.2c0-0.8,1-3.1,3.1-6.9C1210.3,31,1211.1,33.9,1211.1,36.4z M1211.1,52.3
						l-2.6,4.2l-4.3-3l2.7-4.2L1211.1,52.3z"/>
					<path class="st4" d="M1257.5,46.9h-4.7c-2,0-3.5-0.9-4.4-2.7c-0.6-1.1-1-2.8-1.3-5.3c-2.5,3.3-4.6,5-6.1,5
						c-1,0-2.1-0.3-3.1-0.8c-1.2-0.6-1.8-1.4-1.8-2.3c0-1,0.6-2.8,1.8-5.3c0.6-1.4,1.6-2.6,3.1-3.6c0.5-0.3,1.9-1.1,4.4-2.4
						c-0.4-1.8-0.6-2.9-0.6-3.4c0-0.8,1.1-2.3,3.3-4.4c0,0,0.5,3.2,1.4,9.4c0.8,5,1.3,7.7,1.7,8.2c0.4,0.4,1,0.7,1.8,0.8
						c0.6,0.1,1.4,0.1,2.5,0.1c1.5,0,2.1-0.1,2-0.1L1257.5,46.9L1257.5,46.9L1257.5,46.9z M1250.9,15.6l-2.7,4.2l-4.1-2.8l-2,3.5
						l-4.5-3.1l2.6-4.1l4,2.9l2.5-3.8L1250.9,15.6z M1246.7,36.2c0-1-0.2-2.4-0.7-4.3c-3.5,1.8-5.2,3.1-5.2,4s1.6,1.3,4.8,1.3
						C1246.3,37.2,1246.7,36.9,1246.7,36.2z"/>
					<path class="st4" d="M1258,14.6c-0.4-0.5-0.6-0.9-0.7-1.2c0.7-2.7,1.7-4.4,3.2-5c0.1,1.6,0.8,2.9,2,4.1
						c1.2,1.1,2.7,1.6,4.3,1.3l-3,5.1c-0.4-0.1-0.9-0.4-1.4-0.7l-0.1,0.5c0,1.3,0.1,3,0.5,5.2c0.4,2.4,0.6,4.2,0.6,5.2
						c0,2.3-0.3,4.8-0.8,7.4c2.8-3.2,4.7-5.2,5.7-6.1c2.7-2.5,5.1-3.8,7.2-3.8c2,0,3.6,0.6,4.8,1.7c1.2,1.2,1.8,2.7,1.8,4.6
						c0,1.6-0.3,3-0.8,4.1c-0.4,0.8-1.3,1.9-2.5,3.3c1.9-0.1,3.1-0.2,3.7-0.2h5.5v7h-6.5c-0.6,0-1.5,0-2.7-0.1
						c-1.2,0-2.1-0.1-2.7-0.1c-2.9,0-4.6-0.6-5.2-1.7c-2.4,1.3-6.5,1.9-12.3,1.9h-3.1v-7h4.2c0.4-0.8,0.8-1.5,1.3-2.3
						c0.1-0.3,0.2-1.3,0.2-3c0-2.2-0.5-5.6-1.4-10C1258.4,20.2,1258,16.8,1258,14.6z M1278.7,35.6c0-0.8-0.5-1.4-1.4-1.9
						c-0.8-0.4-1.5-0.6-2.4-0.6c-3.2,0-7,2.1-11.3,6.4c2.2,0,5-0.3,8.4-0.9C1276.4,37.8,1278.7,36.8,1278.7,35.6z"/>
					<path class="st5" d="M1297.2,8.7c0,1.6-0.5,2.7-1.6,3.4l-9.6,5.2c0-0.9,0.1-1.6,0.4-2s0.9-0.8,1.8-1.3L1297.2,8.7z"/>
					<path class="st5" d="M1295.7,36.4c0,2.9-0.6,5.2-1.8,7.1c-1.4,2.2-3.5,3.4-6.3,3.4h-2.3v-7c4.9,0,7.3-0.5,7.3-1.6
						c0-0.2-0.4-0.8-1.2-1.7c-0.8-0.9-1.2-1.6-1.2-2.2c0-0.8,1-3.1,3.1-6.9C1294.9,31,1295.7,33.9,1295.7,36.4z M1295.6,52.3
						l-2.6,4.2l-4.3-3l2.7-4.2L1295.6,52.3z"/>
					<path class="st4" d="M1342.1,47.3c-0.7,5-2,8.6-4,10.9c-2.4,2.7-6,4.1-11,4.1c-2.6,0-4.8-0.6-6.5-1.7c-1.9-1.3-2.9-3.1-2.9-5.5
						c0-2.5,1.4-6.2,4.2-11.2l0.8,0.4c-1.3,2.5-2,4.4-2,5.9c0,2.3,0.5,3.9,1.6,4.6c1.4,1,3.7,1.4,6.9,1.4c3.4,0,6-0.5,7.9-1.6
						c1.4-0.8,2.3-2.2,2.8-4.4c0.2-1.1,0.3-1.8,0.3-2.2c0-0.7-0.4-1.5-1.1-2.5c-1-1.3-1.6-2.1-1.7-2.4c0.6-1.2,1.5-3,2.8-5.4
						c0.5,0.7,1,1.4,1.5,2.1c0.5,0.7,1.3,1,2.4,1v6.5L1342.1,47.3L1342.1,47.3z"/>
					<path class="st4" d="M1343.6,40.8c3.6,0,5.4-0.9,5.4-2.8c0-0.3,0-0.8-0.1-1.4c-0.1-0.6-0.1-1-0.2-1.2l0.8-0.1
						c0.4,1.6,1.1,2.9,2.1,4c1.1,1.2,2.5,1.7,4.1,1.7c0.3,0,0.8-0.1,1.4-0.4c0.6-0.3,0.9-0.6,0.9-0.8c0-0.5-0.3-1.2-0.9-2.2
						c-0.5-0.6-0.9-1.3-1.4-1.9c0.4-1.1,0.9-2.7,1.5-4.9c2,1.7,3,4.1,3,7.2c0,2-0.4,3.8-1.3,5.4c-1,2-2.5,2.9-4.4,2.9
						s-3.5-1.1-4.6-3.4c-1.5,3-3.5,4.4-6.2,4.4L1343.6,40.8L1343.6,40.8z"/>
					<path class="st5" d="M1372.8-5.8c0,1.2-0.4,2.3-1.3,3.2s-1.9,1.4-3.2,1.4c-2.1,0-3.1-1.1-3.1-3.4c0-1.4,0.3-2.6,0.9-3.6
						c0.8-1.2,1.8-1.7,3.2-1.7c1,0,1.9,0.4,2.6,1.3C1372.5-7.8,1372.8-6.8,1372.8-5.8z M1371.2-5.1c0-0.5-0.4-1-1.3-1.6
						c-0.8-0.6-1.5-0.9-2.1-0.9c-0.5,0-0.9,0.2-1.2,0.6c-0.4,0.4-0.5,0.9-0.5,1.3c0,1.1,0.9,1.7,2.6,1.7
						C1370.3-4,1371.2-4.4,1371.2-5.1z"/>
					<path class="st5" d="M1374.9,12c-0.2,0.8-0.4,1.3-0.7,1.6c-0.3,0.3-0.8,0.5-1.6,0.7l-8,2.3c0.7-1.4,1.7-2.2,3.2-2.6
						c-1.4-1-2.1-1.8-2.1-2.4c0-0.9,0.7-2,2.2-3.3c1.4-1.3,2.7-2,3.6-2c1.1,0,1.7,0.5,1.7,1.6c0,0.4-0.3,1.2-0.8,2.3
						c-1.1-0.7-2-1.1-2.7-1.1c-0.8,0-1.5,0.4-2.1,1.2c2,1.5,3.5,2.2,4.5,2.2C1373.1,12.5,1374,12.4,1374.9,12z"/>
					<path class="st5" d="M1371.7,39.4c0,2.2-0.5,4.4-1.4,6.7h-1.1c0-3.4-0.4-7.1-1.1-11c-1.2-6.3-1.8-10.3-1.8-12.1
						c0-1,0.4-2.1,1.1-3.1c0.3-0.4,1-1.3,2.3-2.6c0,2.3,0.3,6,1,11C1371.4,33.4,1371.7,37,1371.7,39.4z"/>
					<path class="st4" d="M1392.6,45.9c0,3.4-0.9,6.5-2.6,9.5c-2.1,3.6-4.7,5.3-8,5.3c-2,0-4.5-1-7.6-2.9l0.4-0.8
						c0.9,0.2,1.7,0.3,2.3,0.3c2.6,0,5.5-1.2,8.7-3.6c3.1-2.4,4.7-4.8,4.7-7.2c0-0.9-0.7-2.2-2-3.9c-1-1.2-1.9-2.3-2.9-3.5
						c0.6-2.7,1.1-4.9,1.4-6.4C1390.8,36.5,1392.6,40.9,1392.6,45.9z"/>
					<path class="st4" d="M1463.7,47.3h-4c-0.4,4.2-2.1,7.7-4.9,10.4c-3,2.8-6.7,4.2-11.1,4.2c-6.2,0-9.3-3.1-9.3-9.4
						c0-2.3,0.4-4.4,1.3-6.2c0.6-1.5,1.7-3.3,3.3-5.5l0.7,0.7c-2,3.1-3,5.5-3,7.3c0,2.2,0.9,3.9,2.7,5c1.6,1,3.5,1.5,5.9,1.5
						c8.4,0,12.6-2.6,12.6-7.9c-2.9,0-4.6-0.1-5.2-0.2c-2.1-0.4-3.1-1.4-3.1-3.1c0-1.1,0.5-2.9,1.5-5.3c1-2.5,1.8-4,2.5-4.5
						c0.5-0.4,1.2-0.7,2-0.7c1.3,0,2.3,1,3,3c0.2,0.6,0.6,2.1,1.1,4.5h4V47.3L1463.7,47.3L1463.7,47.3z M1460,26.8l-2.3,3.7
						l-3.7-2.4l-1.8,3.1l-3.9-2.8l2.3-3.8l3.6,2.7l2.3-3.4L1460,26.8z M1457.2,41c-0.5-1.8-1.6-2.6-3.2-2.6c-0.8,0-1.3,0.4-1.3,1.1
						c0,1,1,1.6,2.9,1.6C1455.7,41,1457.2,41,1457.2,41z"/>
					<path class="st4" d="M1470.8,38c0,2.6-0.5,4.7-1.6,6.4c-1.3,2-3.1,3-5.7,3h-2.1v-6.2c4.4,0,6.5-0.5,6.5-1.4
						c0-0.2-0.4-0.7-1.1-1.5s-1.1-1.5-1.1-2c0-0.7,0.9-2.8,2.8-6.2C1470.1,33.1,1470.8,35.7,1470.8,38z M1473.3,52.2L1471,56
						l-3.7-2.4l-1.8,3.1l-4-2.8l2.5-3.7l3.5,2.7l2.2-3.4L1473.3,52.2z"/>
					<path class="st4" d="M1496.3,47.3h-4.3c-0.5,3.8-1.5,6.9-2.8,9.4c-1.9,3.6-4.5,5.4-7.7,5.4c-2.3,0-5.1-1.1-8.4-3.2l0.4-0.7
						c1.3,0.2,2.3,0.4,2.9,0.4c2.2,0,4.5-0.9,6.9-2.6c1-0.7,2.2-2.1,3.6-4.2c1-1.6,2-3.2,3.1-4.8c-1.8-0.6-3.2-2.1-4.2-4.4l3.5-4.9
						c0.8,1.6,1.7,2.6,2.6,3c0.6,0.2,2,0.4,4.3,0.4L1496.3,47.3L1496.3,47.3z"/>
					<path class="st4" d="M1503.6,38c0,2.6-0.5,4.7-1.6,6.4c-1.3,2-3.1,3-5.7,3h-2.1v-6.2c4.4,0,6.5-0.5,6.5-1.4
						c0-0.2-0.4-0.7-1.1-1.5s-1.1-1.5-1.1-2c0-0.7,0.9-2.8,2.8-6.2C1502.9,33.1,1503.6,35.7,1503.6,38z M1503.6,52.2l-2.3,3.8
						l-3.8-2.7l2.4-3.8L1503.6,52.2z"/>
					<path class="st5" d="M1515.2,69c0,1.4-0.5,2.3-1.4,2.8l-8.6,4.7c0-0.9,0.1-1.5,0.3-1.8c0.2-0.3,0.8-0.8,1.6-1.2L1515.2,69z"/>
					<path class="st5" d="M1518.3,57.2c-0.2,0.8-0.4,1.4-0.7,1.7c-0.2,0.3-0.8,0.5-1.6,0.8l-8,2.2c0.5-0.9,0.9-1.5,1.3-1.8
						s1.1-0.6,2.1-0.9c-1.4-0.7-2.1-1.5-2.1-2.3c0-0.9,0.7-2,2.1-3.3s2.6-1.9,3.7-1.9s1.7,0.5,1.7,1.6c0,0.4-0.3,1.1-0.9,2.2
						c-1.1-0.6-2.1-1-2.8-1c-0.7,0-1.3,0.4-2,1.1c2,1.5,3.5,2.2,4.6,2.2C1516.5,57.6,1517.4,57.5,1518.3,57.2z"/>
					<path class="st5" d="M1514.3,39.4c0,2.2-0.5,4.4-1.4,6.7h-1.1c0-3.4-0.4-7.1-1.1-11c-1.2-6.3-1.8-10.3-1.8-12.1
						c0-1,0.4-2.1,1.1-3.1c0.3-0.4,1-1.3,2.3-2.6c0,2.3,0.3,6,1,11C1513.9,33.4,1514.3,37,1514.3,39.4z"/>
					<path class="st4" d="M1561.1,37.1c0,3.6-1.2,6.4-3.7,8.6c-2.5,2.2-5.6,3.3-9.4,3.3c-2.7,0-4.9-0.6-6.5-1.9
						c-1.9-1.4-2.8-3.3-2.8-5.8c0-3,1.2-6.8,3.5-11.4l0.8,0.5c-1.1,2.1-1.6,3.9-1.6,5.5c0,2.5,0.7,4.3,2.2,5.2
						c1.2,0.8,3.2,1.2,6,1.2c2,0,4-0.4,5.9-1.1c2.5-1,3.7-2.2,3.7-3.8c0-0.7-0.7-2.1-2-4.3c-1.1-1.9-2.1-3.3-2.8-4.2l2.3-5.6
						C1559.6,27.1,1561.1,31.7,1561.1,37.1z M1550.8,20.9l-2.3,3.7l-3.8-2.6l2.4-3.7L1550.8,20.9z"/>
					<path class="st4" d="M1582.5,39c0,2.4-0.5,4.2-1.5,5.4s-2.8,2-5.3,2.6c-1.9,0.4-3.9,0.7-6.2,0.7c-0.9,0-2.2-0.4-3.8-1.1
						l1.3-7.1c1.3,0.6,2.2,1,2.7,1c7.1,0,10.7-0.8,10.7-2.5c0-1.4-3.2-3.7-9.7-6.8l2.3-6.8C1579.4,28.2,1582.5,33.1,1582.5,39z
						 M1575.5,18.4l-2.3,3.8l-3.8-2.7l2.3-3.8L1575.5,18.4z"/>
					<path class="st5" d="M1596.9-6.6l-0.3,2.8c-0.5-0.3-1.3-0.8-2.3-1.4c-2.3,2.7-4.2,4-5.9,4c-0.4,0-1-0.1-1.8-0.3
						c1.8-1,3.9-2.4,6.3-4.4c-1.2-1-1.8-1.8-1.8-2.6c0-1,0.4-2,1.1-3.1s1.6-1.7,2.5-1.7c1.3,0,1.9,0.8,1.9,2.5
						c0,1.2-0.3,2.3-0.9,3.4C1596.2-7.2,1596.5-6.9,1596.9-6.6z M1594.9-9.1c0-0.4-0.2-0.8-0.5-1.2s-0.7-0.6-1-0.6
						c-0.4,0-0.6,0.3-0.6,0.8c0,0.4,0.7,1,2,1.9C1594.8-8.7,1594.9-9,1594.9-9.1z"/>
					<path class="st5" d="M1596.5,12c-0.2,0.8-0.4,1.3-0.7,1.6c-0.3,0.3-0.8,0.5-1.6,0.7l-8,2.3c0.7-1.4,1.7-2.2,3.2-2.6
						c-1.4-1-2.1-1.8-2.1-2.4c0-0.9,0.7-2,2.2-3.3c1.4-1.3,2.7-2,3.6-2c1.1,0,1.7,0.5,1.7,1.6c0,0.4-0.3,1.2-0.8,2.3
						c-1.1-0.7-2-1.1-2.7-1.1c-0.8,0-1.5,0.4-2.1,1.2c2,1.5,3.5,2.2,4.5,2.2C1594.7,12.5,1595.6,12.4,1596.5,12z"/>
					<path class="st5" d="M1593.3,39.4c0,2.2-0.5,4.4-1.4,6.7h-1.1c0-3.4-0.4-7.1-1.1-11c-1.2-6.3-1.8-10.3-1.8-12.1
						c0-1,0.4-2.1,1.1-3.1c0.3-0.4,1.1-1.3,2.3-2.6c0,2.3,0.3,6,1,11C1593,33.4,1593.3,37,1593.3,39.4z"/>
					<path class="st4" d="M1660.4,16.6c0,1.2-0.4,2.3-1.3,3.2c-0.9,0.9-1.9,1.4-3.2,1.4c-2.1,0-3.1-1.1-3.1-3.4
						c0-1.4,0.3-2.6,0.9-3.6c0.8-1.2,1.8-1.7,3.2-1.7c1,0,1.9,0.4,2.6,1.3C1660.1,14.7,1660.4,15.6,1660.4,16.6z M1658.8,17.4
						c0-0.5-0.4-1-1.3-1.6c-0.8-0.6-1.5-0.9-2.1-0.9c-0.5,0-0.9,0.2-1.2,0.6c-0.4,0.4-0.5,0.8-0.5,1.3c0,1.1,0.9,1.7,2.6,1.7
						S1658.8,18.1,1658.8,17.4z"/>
					<path class="st4" d="M1680.6,47.3h-4.2c-2.2,0-3.6-1-4.1-2.9c-5.2,3.4-11.6,5.2-19.2,5.2c-4.2,0-7.7-0.7-10.5-2.1
						c-3.5-1.8-5.2-4.5-5.2-8.1c0-2.3,0.9-5.2,2.8-8.9l0.8,0.4c-0.8,1.8-1.1,3.4-1.1,4.9c0,2.7,1.8,4.7,5.4,5.9
						c2.5,0.9,5.5,1.3,8.9,1.3c6.4,0,11.1-0.5,14.2-1.6c1-0.3,1.5-0.5,1.6-0.5c0.7-0.3,1.1-0.7,1.3-1.1c0.2-0.4,0.2-1.1,0.2-2.1h0.6
						c0.6,2.3,2.4,3.4,5.4,3.4c0.4,0,0.9,0,1.6-0.1c0.7,0,1.2,0,1.6,0L1680.6,47.3L1680.6,47.3z M1660.6,55.8l-2.3,3.8l-3.8-2.8
						l2.4-3.7L1660.6,55.8z"/>
					<path class="st4" d="M1689.2,6.9c0,1.4-0.5,2.4-1.4,3l-8.6,4.6c0-0.8,0.1-1.4,0.4-1.8c0.3-0.4,0.8-0.8,1.6-1.2L1689.2,6.9z"/>
					<path class="st4" d="M1687.9,38c0,2.6-0.5,4.7-1.6,6.4c-1.3,2-3.1,3-5.7,3h-2.1v-6.2c4.4,0,6.5-0.5,6.5-1.4
						c0-0.2-0.4-0.7-1.1-1.5s-1.1-1.5-1.1-2c0-0.7,0.9-2.8,2.8-6.2C1687.1,33.1,1687.9,35.7,1687.9,38z M1687,24.3l-2.1,3.7
						l-3.8-2.7l2.2-3.7L1687,24.3z"/>
					<path class="st4" d="M1703.8,18.2c0,1.2-0.4,2.3-1.3,3.2c-0.9,0.9-1.9,1.4-3.2,1.4c-2.1,0-3.1-1.1-3.1-3.4
						c0-1.4,0.3-2.6,0.9-3.6c0.8-1.2,1.8-1.7,3.2-1.7c1,0,1.9,0.4,2.5,1.3C1703.4,16.3,1703.8,17.2,1703.8,18.2z M1702.2,18.9
						c0-0.5-0.4-1-1.3-1.6c-0.8-0.6-1.5-0.9-2.1-0.9c-0.5,0-0.9,0.2-1.2,0.6c-0.4,0.4-0.5,0.8-0.5,1.3c0,1.1,0.9,1.7,2.6,1.7
						C1701.3,20.1,1702.2,19.7,1702.2,18.9z"/>
					<path class="st4" d="M1708.1,45.9c0,3.4-0.9,6.5-2.6,9.5c-2.1,3.6-4.7,5.3-8,5.3c-2,0-4.5-1-7.6-2.9l0.4-0.8
						c0.9,0.2,1.7,0.3,2.3,0.3c2.6,0,5.5-1.2,8.7-3.6c3.1-2.4,4.7-4.8,4.7-7.2c0-0.9-0.7-2.2-2-3.9c-1-1.2-1.9-2.3-2.9-3.5
						c0.6-2.7,1.1-4.9,1.4-6.4C1706.3,36.5,1708.1,40.9,1708.1,45.9z"/>
					<path class="st5" d="M1722.2-8.9c0,1.4-0.5,2.4-1.4,3l-8.6,4.6c0-0.8,0.1-1.4,0.4-1.8s0.8-0.8,1.6-1.2L1722.2-8.9z"/>
					<path class="st5" d="M1722,12c-0.2,0.8-0.4,1.3-0.7,1.6c-0.3,0.3-0.8,0.5-1.6,0.7l-8,2.3c0.7-1.4,1.7-2.2,3.2-2.6
						c-1.4-1-2.1-1.8-2.1-2.4c0-0.9,0.7-2,2.2-3.3c1.4-1.3,2.7-2,3.6-2c1.1,0,1.7,0.5,1.7,1.6c0,0.4-0.3,1.2-0.8,2.3
						c-1.1-0.7-2-1.1-2.7-1.1c-0.8,0-1.5,0.4-2.1,1.2c2,1.5,3.5,2.2,4.5,2.2C1720.1,12.5,1721.1,12.4,1722,12z"/>
					<path class="st5" d="M1718.8,39.4c0,2.2-0.5,4.4-1.4,6.7h-1.1c0-3.4-0.4-7.1-1.1-11c-1.2-6.3-1.8-10.3-1.8-12.1
						c0-1,0.4-2.1,1.1-3.1c0.3-0.4,1-1.3,2.3-2.6c0,2.3,0.3,6,1,11C1718.4,33.4,1718.8,37,1718.8,39.4z"/>
				</g>
			</g>
		</g>
	</g>
</g>
<g>
	<path class="st4" d="M79,12.9l-0.3,3.9c-0.7-0.4-1.7-1.1-3.1-2c-3,3.8-5.7,5.7-7.9,5.7c-0.5,0-1.3-0.1-2.4-0.4
		c2.5-1.4,5.3-3.4,8.5-6.2c-1.6-1.4-2.5-2.6-2.5-3.6c0-1.4,0.5-2.8,1.4-4.4c1-1.6,2.1-2.4,3.4-2.4c1.7,0,2.5,1.2,2.5,3.5
		c0,1.6-0.4,3.2-1.2,4.7C78.1,12.1,78.6,12.6,79,12.9z M76.3,9.3c0-0.5-0.2-1.1-0.6-1.7c-0.4-0.6-0.9-0.9-1.4-0.9
		c-0.6,0-0.8,0.4-0.8,1.1c0,0.5,0.9,1.4,2.7,2.7C76.3,9.9,76.3,9.5,76.3,9.3z"/>
</g>
<g>
	<path class="st4" d="M41.7,52.9c0,2-0.6,3.5-1.9,4.3l-11.5,6.6c0-1.2,0.2-2.1,0.5-2.6s1-1.1,2.1-1.7L41.7,52.9z"/>
</g>
</svg>
