<?xml version="1.0" encoding="utf-8"?>
<!-- Generator: Adobe Illustrator 23.0.2, SVG Export Plug-In . SVG Version: 6.00 Build 0)  -->
<svg version="1.1" id="Layer_1" xmlns="http://www.w3.org/2000/svg" xmlns:xlink="http://www.w3.org/1999/xlink" x="0px" y="0px"
	 viewBox="0 0 36.6 28.6" style="enable-background:new 0 0 36.6 28.6;" xml:space="preserve">
<style type="text/css">
	.st0{fill:#FFFFFF;}
</style>
<g>
	<g>
		<path class="st0" d="M11,24.5c-0.5,0-1,0-1.4-0.1c-1.5-0.2-2.8-0.9-3.8-2C3.5,19.9,3.2,15.6,5,11c0.1-0.3,0.4-0.4,0.7-0.3
			c0.3,0.1,0.5,0.4,0.4,0.7c-1.7,4.2-1.5,8,0.6,10.3c0.9,0.9,1.9,1.5,3.2,1.7c0.6,0.1,1.8,0.1,2.3,0c1.3-0.2,2.3-0.7,3.2-1.6
			c1.2-1.3,1.7-3,1.6-5.6v-1.5v-0.1v-0.5c0-0.6,0-1.5,0-2.8c0-0.1,0.1-0.3,0.2-0.4c0.1-0.1,0.2-0.2,0.4-0.2c0.2,0,0.4,0.3,0.4,0.6
			v3.2c0.1,0.7,0.7,2.3,3.1,2.3h0.2c2.7,0,3-2,3-2.2v-3.3c0-0.1,0-0.2,0.1-0.2c0.1-0.2,0.3-0.3,0.5-0.3c0.3,0,0.6,0.3,0.6,0.6v3.5
			c0,0.2,0.3,2,3.1,2h0.2c2.5,0,2.9-1.7,2.9-2.2v-0.2c0-0.7,0-3,0-3.1c0-0.3,0.2-0.5,0.5-0.5l0,0c0.3,0,0.5,0.2,0.5,0.5
			c0,0,0,2.4,0,3c0,0.1,0,0.2,0,0.2v0.3c-0.2,1.5-1.3,3.1-4,3.2h-0.2c-2.1,0-3.1-0.9-3.6-1.7c-0.6,0.9-1.7,1.7-3.5,1.7h-0.2
			c-1.4,0-2.5-0.5-3.1-1.1c0,2.5-0.6,4.3-1.9,5.8c-1,1.1-2.3,1.7-3.8,1.9C11.9,24.5,11.4,24.5,11,24.5z M24.9,11.3L24.9,11.3
			L24.9,11.3z"/>
	</g>
	<g>
		<path class="st0" d="M25.9,7.7c0.4,0.2,0.9,0.1,1.1-0.3c0.2-0.4,0.1-0.9-0.3-1.1c-0.4-0.2-0.9-0.1-1.1,0.3
			C25.4,6.9,25.5,7.4,25.9,7.7"/>
		<path class="st0" d="M23.1,7.7c0.4,0.2,0.9,0.1,1.1-0.3C24.5,7,24.4,6.5,24,6.2c-0.4-0.2-0.9-0.1-1.1,0.3
			C22.6,6.9,22.7,7.4,23.1,7.7"/>
		<circle class="st0" cx="24.8" cy="4.7" r="0.8"/>
	</g>
</g>
</svg>
