<?xml version="1.0" encoding="utf-8"?>
<!-- Generator: Adobe Illustrator 23.0.2, SVG Export Plug-In . SVG Version: 6.00 Build 0)  -->
<svg version="1.1" id="Layer_1" xmlns="http://www.w3.org/2000/svg" xmlns:xlink="http://www.w3.org/1999/xlink" x="0px" y="0px"
	 viewBox="0 0 36.6 28.6" style="enable-background:new 0 0 36.6 28.6;" xml:space="preserve">
<style type="text/css">
	.st0{fill:#FFFFFF;}
</style>
<g>
	<path class="st0" d="M32.9,20.2h-4c-0.8,0-1.6-0.5-1.6-0.5c-1.2-0.8-1.4-1.6-1.4-1.6v-0.3c0-0.1,0-0.2,0-0.4c0-0.6,0-1.5,0-2.4
		c0-0.3-0.2-0.5-0.5-0.5l0,0c-0.3,0-0.5,0.2-0.5,0.5c0,0.9,0,1.8,0,2.4c0,0.3,0,0.5,0,0.5v0.2c-0.1,0.5-0.5,2.1-2.8,2.1h-0.2
		c-2.6,0-2.9-1.6-2.9-1.9v-0.1v-0.1v-3.2c0-0.3-0.3-0.5-0.5-0.5s-0.4,0.1-0.5,0.3c0,0.1,0,0.2,0,0.2v3.2c0,0.2-0.2,2.1-2.9,2.1h-0.2
		c-2.5,0-3-1.8-3.1-2.2v-3.1c0-0.4-0.6-0.7-0.9-0.4c-0.1,0.1-0.2,0.3-0.2,0.5c0,1.3,0,2.1,0,2.7v0.5c0,0-0.2,0.8-1.4,1.6
		c0,0-0.8,0.5-1.6,0.5h-4c-0.3,0-0.5,0.2-0.5,0.5s0.2,0.5,0.5,0.5h4c1.1,0,2.1-0.6,2.2-0.6c0.7-0.4,1.1-0.8,1.4-1.2
		c0.5,0.8,1.5,1.8,3.6,1.8H15c1.8,0,2.8-0.8,3.4-1.6c0.5,0.8,1.5,1.6,3.5,1.6H22c1.8,0,2.9-0.8,3.4-1.8c0.3,0.4,0.7,0.8,1.3,1.2
		c0.1,0,1.1,0.6,2.2,0.6h4c0.3,0,0.5-0.2,0.5-0.5C33.4,20.4,33.2,20.2,32.9,20.2z"/>
	<g>
		<path class="st0" d="M19.5,11.3c0.4,0.2,0.9,0.1,1.2-0.3c0.2-0.4,0.1-0.9-0.3-1.2c-0.4-0.2-0.9-0.1-1.2,0.3
			C19,10.5,19.1,11,19.5,11.3"/>
		<path class="st0" d="M16.6,11.3c0.4,0.2,0.9,0.1,1.2-0.3c0.2-0.4,0.1-0.9-0.3-1.2c-0.4-0.2-0.9-0.1-1.2,0.3
			C16.1,10.5,16.2,11,16.6,11.3"/>
		<circle class="st0" cx="18.4" cy="8.2" r="0.9"/>
	</g>
</g>
</svg>
