<?xml version="1.0" encoding="utf-8"?>
<!-- Generator: Adobe Illustrator 22.0.1, SVG Export Plug-In . SVG Version: 6.00 Build 0)  -->
<svg version="1.1" id="Layer_1" xmlns="http://www.w3.org/2000/svg" xmlns:xlink="http://www.w3.org/1999/xlink" x="0px" y="0px"
	 viewBox="0 0 86.2 86.2" style="enable-background:new 0 0 86.2 86.2;" xml:space="preserve">
<style type="text/css">
	.st0{fill:#235958;}
</style>
<g>
	<polygon class="st0" points="49.2,18.7 44.5,15 41.6,20 46.4,23.7 	"/>
	<path class="st0" d="M53,34.3c-1.5-5.6-3.5-8.4-6-8.4c-3,0-5.3,4.4-6.8,13.3c-0.3,1.8-0.5,3-0.5,3.6c0,2.8,1.5,4.2,4.6,4.2
		c1.7,0,3-0.4,3.9-1.2c0.8-0.6,1.5-1.8,2.3-3.5c1.1,2.4,1.6,3.9,1.6,4.5c0,2.6-3.5,3.9-10.6,3.9h-1.6h-2H25.4V59h12.5h2h0.6
		c9.4,0,14.2-4.4,14.2-13.1C54.6,42.3,54.1,38.4,53,34.3z M45.1,38.8c-1.4,0-2.1-0.8-2.1-2.4c0-1.3,0.5-2,1.6-2c1,0,2,0.8,3,2.4
		C46.8,38.1,45.9,38.8,45.1,38.8z"/>
</g>
<path class="st0" d="M39.3,66.7c0,1.4-0.5,2.3-1.4,2.8l-8.6,4.7c0-0.9,0.1-1.5,0.3-1.8s0.8-0.8,1.6-1.2L39.3,66.7z"/>
</svg>
