<?xml version="1.0" encoding="utf-8"?>
<!-- Generator: Adobe Illustrator 22.0.1, SVG Export Plug-In . SVG Version: 6.00 Build 0)  -->
<svg version="1.1" id="Layer_1" xmlns="http://www.w3.org/2000/svg" xmlns:xlink="http://www.w3.org/1999/xlink" x="0px" y="0px"
	 viewBox="0 0 86.2 86.2" style="enable-background:new 0 0 86.2 86.2;" xml:space="preserve">
<style type="text/css">
	.st0{fill:#235958;}
</style>
<g>
	<polygon class="st0" points="42.8,58.2 38.3,54.6 35.4,59.6 40.4,63.4 42.7,59.2 47.3,62.4 50.3,57.4 45.6,53.8 	"/>
	<path class="st0" d="M51.4,42.6h-1h-0.9c-4.4,0-6.9-1.5-7.3-4.6l-0.5-0.1c0,2.3-0.1,3.6-0.2,3.8c-0.6,0.6-1.9,1-3.9,1h-1h-2.1H22.1
		V51h12.4h2.1h0.6c2,0,3.7-1.5,5.2-4.6c1.1,3,2.9,4.6,5.4,4.6h2.6h1h13.4v-8.3H51.4V42.6z"/>
</g>
</svg>
