<?xml version="1.0" encoding="utf-8"?>
<!-- Generator: Adobe Illustrator 19.2.0, SVG Export Plug-In . SVG Version: 6.00 Build 0)  -->
<svg version="1.1" id="Layer_1" xmlns="http://www.w3.org/2000/svg" xmlns:xlink="http://www.w3.org/1999/xlink" x="0px" y="0px"
	 viewBox="0 0 20.7 33.2" style="enable-background:new 0 0 20.7 33.2;" xml:space="preserve">
<style type="text/css">
	.st0{opacity:0.5;}
	.st1{fill:#FFFFFF;}
</style>
<g>
	<g class="st0">
		<path d="M20.7,13.1c0,4.5-0.9,8.7-2.6,12.6c-2.2,5-5.3,7.5-9.2,7.5c-2.2,0-5.2-0.9-8.9-2.7l0.6-0.8c1.3,0.3,2.2,0.4,2.6,0.4
			c2.5,0,5.2-1.2,8.1-3.5c2.6-2.1,4.6-4.4,5.9-6.9c1-1.8,1.5-3.9,1.5-6.2c-1.1,1.9-2.4,2.8-3.7,2.8c-1.1,0-2-0.5-2.6-1.5
			c-0.6-0.8-0.8-1.8-0.8-3c0-2,0.4-4,1.1-6C13.6,3.3,14.9,2,16.5,2C18,2,19.1,3.5,20,6.6C20.5,8.8,20.7,10.9,20.7,13.1z M17.2,10.4
			c-0.4-1.7-1.2-2.5-2.4-2.5c-1,0-1.5,0.5-1.5,1.5c0,0.5,0.2,0.9,0.6,1.2c0.4,0.3,0.9,0.4,1.4,0.4C15.9,11,16.5,10.8,17.2,10.4z"/>
	</g>
	<g>
		<g>
			<g>
				<path class="st1" d="M20.7,11.1c0,4.5-0.9,8.7-2.6,12.6c-2.2,5-5.3,7.5-9.2,7.5c-2.2,0-5.2-0.9-8.9-2.7l0.6-0.8
					c1.3,0.3,2.2,0.4,2.6,0.4c2.5,0,5.2-1.2,8.1-3.5c2.6-2.1,4.6-4.4,5.9-6.9c1-1.8,1.5-3.9,1.5-6.2c-1.1,1.9-2.4,2.8-3.7,2.8
					c-1.1,0-2-0.5-2.6-1.5c-0.6-0.8-0.8-1.8-0.8-3c0-2,0.4-4,1.1-6C13.6,1.3,14.9,0,16.5,0C18,0,19.1,1.5,20,4.6
					C20.5,6.8,20.7,8.9,20.7,11.1z M17.2,8.4c-0.4-1.7-1.2-2.5-2.4-2.5c-1,0-1.5,0.5-1.5,1.5c0,0.5,0.2,0.9,0.6,1.2
					c0.5,0.3,1,0.4,1.5,0.4S16.5,8.8,17.2,8.4z"/>
			</g>
		</g>
	</g>
</g>
</svg>
