<?xml version="1.0" encoding="utf-8"?>
<!-- Generator: Adobe Illustrator 22.0.1, SVG Export Plug-In . SVG Version: 6.00 Build 0)  -->
<svg version="1.1" id="Layer_1" xmlns="http://www.w3.org/2000/svg" xmlns:xlink="http://www.w3.org/1999/xlink" x="0px" y="0px"
	 viewBox="0 0 86.2 86.2" style="enable-background:new 0 0 86.2 86.2;" xml:space="preserve">
<style type="text/css">
	.st0{fill:#235958;}
</style>
<g>
	<g>
		<path class="st0" d="M39.5,21.7l-10.3,6.2c-1,0.6-1.7,1.1-2,1.6s-0.5,1.3-0.5,2.4l10.9-6.2C38.9,24.9,39.5,23.6,39.5,21.7z"/>
	</g>
</g>
<g>
	<polygon class="st0" points="43.2,37.5 47.8,40.8 50.6,35.8 46,32.1 43.2,36.6 38.7,33 35.8,38 40.8,41.8 	"/>
	<path class="st0" d="M52.2,48.7h-1h-1c-4.4,0-6.8-1.6-7.2-4.7l-0.5-0.1c0,2.4-0.1,3.6-0.2,3.8c-0.6,0.6-1.8,1-3.5,1h-1.4h-2.1H22.9
		V57h12.4h2.1H38c2,0,3.7-1.5,5.2-4.6c1.1,3.1,2.9,4.6,5.4,4.6h2.7h1h13.4v-8.4H52.2V48.7z"/>
</g>
</svg>
