<?xml version="1.0" encoding="utf-8"?>
<!-- Generator: Adobe Illustrator 22.0.1, SVG Export Plug-In . SVG Version: 6.00 Build 0)  -->
<svg version="1.1" id="Layer_1" xmlns="http://www.w3.org/2000/svg" xmlns:xlink="http://www.w3.org/1999/xlink" x="0px" y="0px"
	 viewBox="0 0 86.2 86.2" style="enable-background:new 0 0 86.2 86.2;" xml:space="preserve">
<style type="text/css">
	.st0{fill:#235958;}
</style>
<g>
	<g>
		<path class="st0" d="M40.5,21.8L30.2,28c-1,0.6-1.7,1.1-2,1.6s-0.5,1.3-0.5,2.4l10.9-6.2C39.9,25.1,40.5,23.8,40.5,21.8z"/>
	</g>
</g>
<g>
	<polygon class="st0" points="39,60.5 43.9,64.1 46.9,59 42,55.4 	"/>
	<path class="st0" d="M51.2,44.2h-1h-1.1c-4.3,0-6.6-1.6-7.1-4.7l-0.5-0.1c0,2.4-0.1,3.6-0.2,3.8c-0.6,0.6-1.9,1-3.9,1h-1h-2.1H21.9
		v8.4h12.4h2.1H37c2,0,3.7-1.5,5.2-4.6c1.1,3.1,2.9,4.6,5.4,4.6h2.7h1h13.4v-8.4C64.7,44.2,51.2,44.2,51.2,44.2z"/>
</g>
</svg>
