<?xml version="1.0" encoding="utf-8"?>
<!-- Generator: Adobe Illustrator 23.0.2, SVG Export Plug-In . SVG Version: 6.00 Build 0)  -->
<svg version="1.1" id="Layer_1" xmlns="http://www.w3.org/2000/svg" xmlns:xlink="http://www.w3.org/1999/xlink" x="0px" y="0px"
	 viewBox="0 0 36.6 28.6" style="enable-background:new 0 0 36.6 28.6;" xml:space="preserve">
<g>
	<path d="M34.6,19.3H28c0.1-0.1,0.1-0.1,0.2-0.2c0.6-0.8,0.8-1.6,0.6-2.8c-0.1-0.5-0.4-1-0.9-1.5c-0.3-0.3-1-0.9-2.2-1.2
		c-0.5-0.1-1-0.1-1.4-0.1c-2.6,0-5.4,2-8.3,5.9l0,0h-2.2c-0.1,0-0.1,0-0.2-0.1c-0.3-0.3-0.4-1.2-0.3-2.3v-0.4c0-0.2,0-0.3-0.1-0.4
		S13.1,16.1,13,16c-0.1,0-0.3,0-0.4,0c-0.1,0.1-0.2,0.2-0.3,0.4c0,0.1,0,0.2,0,0.5c-0.2,1.2-1.5,2.2-2.9,2.4
		c-0.6,0.1-1.3,0.1-2.1,0.1H2c-0.3,0-0.5,0.2-0.5,0.5s0.2,0.5,0.5,0.5h5.2c0.8,0,1.6,0,2.2-0.1c1.1-0.1,2.2-0.7,2.9-1.5
		c0.1,0.4,0.3,0.8,0.5,1.1c0.3,0.3,0.6,0.5,1,0.5H15c0,0,10.7,0,11,0s0.4,0,0.6-0.2c0,0,0.2,0.2,0.5,0.2s7.5,0,7.5,0
		c0.3,0,0.5-0.2,0.5-0.5S34.9,19.3,34.6,19.3z M24.3,14.4h0.1c0.4,0,0.7,0,1,0.1c0.9,0.2,1.5,0.7,1.7,0.9c0.5,0.4,0.6,0.8,0.6,0.9
		c0.1,0.9,0,1.5-0.4,2c-0.5,0.7-1.4,0.9-1.4,0.9h-8.6C19.8,16.1,22.2,14.5,24.3,14.4z"/>
	<g>
		<circle cx="23.5" cy="9.3" r="1"/>
	</g>
</g>
</svg>
