<?xml version="1.0" encoding="utf-8"?>
<!-- Generator: Adobe Illustrator 23.0.2, SVG Export Plug-In . SVG Version: 6.00 Build 0)  -->
<svg version="1.1" id="Layer_1" xmlns="http://www.w3.org/2000/svg" xmlns:xlink="http://www.w3.org/1999/xlink" x="0px" y="0px"
	 viewBox="0 0 36.6 28.5" style="enable-background:new 0 0 36.6 28.5;" xml:space="preserve">
<g>
	<g>
		<path d="M10.4,20.4H5.2c-0.3,0-0.5-0.2-0.5-0.5s0.2-0.5,0.5-0.5h5.2c0.8,0,1.5,0,2.1-0.1c1.4-0.2,2.7-1.2,2.9-2.4
			c0-0.2,0-0.4,0-0.5c0-0.2,0.1-0.3,0.3-0.4c0.1-0.1,0.3-0.1,0.4,0l0,0c0.1,0,0.2,0.1,0.2,0.2c0.1,0.1,0.2,0.3,0.1,0.4V17
			c-0.1,1.1,0.1,2,0.3,2.3c0.1,0.1,0.1,0.1,0.2,0.1h2.2l0,0c2.9-3.9,5.7-5.9,8.3-5.9c0.4,0,0.9,0,1.4,0.1c1.2,0.3,1.9,0.9,2.2,1.2
			c0.5,0.5,0.9,1.1,0.9,1.5c0.2,1.2,0,2-0.6,2.8c-0.8,1-2,1.3-2.2,1.3h-11h-1.2c-0.4,0-0.7-0.2-1-0.5s-0.4-0.7-0.5-1.1
			c-0.7,0.8-1.8,1.4-2.9,1.5C12,20.3,11.2,20.4,10.4,20.4z M27.7,14.4h-0.1c-2.1,0-4.5,1.7-7,4.9h8.6c0,0,0.9-0.2,1.4-0.9
			c0.4-0.6,0.5-1.1,0.4-2c0-0.1-0.2-0.5-0.6-0.9c-0.2-0.2-0.8-0.7-1.7-0.9C28.4,14.4,28.1,14.4,27.7,14.4z"/>
	</g>
	<circle cx="26.6" cy="9.1" r="1"/>
</g>
</svg>
