<?xml version="1.0" encoding="utf-8"?>
<!-- Generator: Adobe Illustrator 22.0.1, SVG Export Plug-In . SVG Version: 6.00 Build 0)  -->
<svg version="1.1" id="Layer_1" xmlns="http://www.w3.org/2000/svg" xmlns:xlink="http://www.w3.org/1999/xlink" x="0px" y="0px"
	 viewBox="0 0 71.3 66" style="enable-background:new 0 0 71.3 66;" xml:space="preserve">
<style type="text/css">
	.st0{display:none;enable-background:new    ;}
	.st1{display:inline;fill:#EF5316;}
	.st2{fill:none;}
	.st3{clip-path:url(#SVGID_2_);}
	.st4{fill:#235958;}
	.st5{fill:#EF5316;}
</style>
<text transform="matrix(1.0494 0 0 1 330.6387 52.6802)" style="display:none;fill:#EF5316;enable-background:new    ; font-family:'AdobeArabic-Regular'; font-size:60px;">أأ</text>
<rect x="91.3" y="-14.1" class="st2" width="76.7" height="86"/>
<rect x="-15.7" y="-9.5" class="st2" width="104" height="94"/>
<rect x="-16" y="-15.1" class="st2" width="98" height="93"/>
<rect x="-3" y="-8.1" class="st2" width="79" height="88"/>
<rect x="-11" y="-11.1" class="st2" width="96" height="89"/>
<rect x="-12" y="-1.1" class="st2" width="106" height="82"/>
<g>
	<g>
		<g>
			<g>
				<defs>
					<rect id="SVGID_1_" x="-9" y="-3.1" width="84" height="84"/>
				</defs>
				<clipPath id="SVGID_2_">
					<use xlink:href="#SVGID_1_"  style="overflow:visible;"/>
				</clipPath>
				<g class="st3">
					<path class="st4" d="M-909.8,48.6h-4.8c-0.6,4.2-1.7,7.7-3.2,10.5c-2.2,4-5,6-8.6,6c-2.5,0-5.7-1.2-9.4-3.6l0.5-0.8
						c1.5,0.3,2.5,0.4,3.2,0.4c2.5,0,5-1,7.7-2.9c1.1-0.8,2.5-2.4,4-4.7c1.1-1.8,2.3-3.6,3.4-5.4c-2.1-0.7-3.6-2.3-4.6-4.9l3.9-5.5
						c0.9,1.8,1.9,3,3,3.4c0.7,0.3,2.3,0.4,4.8,0.4L-909.8,48.6L-909.8,48.6z"/>
					<path class="st4" d="M-883.4,48.6h-4.7c-1.9,0-3.4-0.6-4.3-1.7c-0.3,2.6-1.5,4-3.7,4c-2,0-4.7-1.9-8.2-5.6
						c-0.3,0.5-1.2,1.4-2.5,2.5c-0.8,0.6-2.5,0.9-5.2,0.9v-7h2.4c1.7,0,3.1-0.8,4.3-2.3c0.9-1.4,1.8-2.9,2.7-4.3
						c1.1-1.5,2.5-2.3,4.1-2.3c0.8,0,1.8,0.7,3,2.2s2.2,2.9,3.2,4.4c1.4,1.6,2.8,2.3,4.3,2.3h4.7L-883.4,48.6L-883.4,48.6z
						 M-896.5,41.7c0-1-0.2-2.1-0.5-3.4c-0.4-1.6-1-2.4-1.7-2.4c-0.6,0-1.2,0.6-1.8,1.7c-0.4,0.8-0.8,1.7-1.2,2.5
						c2.1,2.1,3.6,3.1,4.4,3.1C-896.8,43.2-896.5,42.7-896.5,41.7z"/>
					<path class="st5" d="M-874.5,8c0,1.3-0.5,2.5-1.4,3.6c-1,1-2.2,1.5-3.6,1.5c-2.3,0-3.5-1.3-3.5-3.8c0-1.6,0.3-2.9,1-4
						c0.8-1.3,2-1.9,3.6-1.9c1.1,0,2.1,0.5,2.9,1.5C-874.8,5.8-874.5,6.8-874.5,8z M-876.3,8.8c0-0.5-0.5-1.1-1.4-1.8
						c-0.9-0.6-1.7-1-2.3-1c-0.5,0-1,0.2-1.4,0.7s-0.6,1-0.6,1.4c0,1.3,1,1.9,2.9,1.9C-877.2,10-876.3,9.6-876.3,8.8z"/>
					<path class="st5" d="M-869.5,48.6h-4.6c-2.2,0-3.7-1.3-4.7-3.8c-1.3,2.5-2.8,3.8-4.6,3.8h-2.3v-7c2.7,0,3.8,0,3.2,0
						c1.5,0,2.5-0.3,3-0.8c0.1-0.1,0.2-1.2,0.2-3.2l0.4,0.1c0.3,2,1.5,3.2,3.7,3.6c0.7,0.2,2.6,0.3,5.8,0.3v7
						C-869.4,48.6-869.5,48.6-869.5,48.6z M-872.3,30.9l-2.5,4.2l-4.1-2.8l-2,3.6l-4.4-3.2l2.6-4.2l3.9,3l2.4-3.8L-872.3,30.9z
						 M-876.9,24.4l-2.5,4.3l-4.3-3.1l2.7-4.2L-876.9,24.4z"/>
					<path class="st4" d="M-852.8,40.3c0,1.5-0.4,2.8-1.1,4c-0.8,1.4-1.9,2.1-3.3,2.1c-1.5,0-4-0.8-7.6-2.5c-0.3,0.9-0.9,1.8-1.9,3
						c-1,1.3-1.9,1.9-2.7,1.9h-2.3v-7c2.1,0,3.5-0.1,4.2-0.4c1-0.4,1.9-1.4,2.6-3s1.3-3.2,2-4.9c1.2-2.1,2.6-3.2,4.2-3.2
						c1.8,0,3.3,1.3,4.5,4C-853.3,36.2-852.8,38.3-852.8,40.3z M-856.8,38.9c0-0.8-0.4-1.5-1.1-2.1c-0.7-0.6-1.5-0.9-2.4-0.9
						c-1,0-1.9,0.6-2.5,1.9c2.4,1.3,4.1,2,5,2C-857.1,39.9-856.8,39.6-856.8,38.9z"/>
					<path class="st4" d="M-809.5,47c0,3.8-1,7.3-2.9,10.6c-2.3,4-5.3,6-8.9,6c-2.2,0-5-1.1-8.4-3.3l0.4-0.9c1,0.2,1.9,0.3,2.5,0.3
						c3,0,6.2-1.4,9.7-4.1c3.5-2.7,5.2-5.4,5.2-8.1c0-1-0.7-2.4-2.2-4.4c-1.1-1.3-2.2-2.6-3.2-3.9c0.7-3,1.2-5.4,1.6-7.2
						C-811.5,36.5-809.5,41.4-809.5,47z"/>
					<path class="st4" d="M-790.8,48.6h-4.7c-2.2,0-3.8-0.9-4.9-2.7c-0.8-1.4-1.4-4.1-1.5-8.1c0-1.7-0.4-4.7-0.9-9.1
						c-0.6-4-0.8-7-0.8-9.1c0-0.6,0-1.1,0.1-1.4c0-0.3,1.2-1.4,3.5-3.2c0,0.2,0.3,3.8,0.9,10.7c0.6,6.3,0.8,10.1,0.8,11.4
						c0,1.5,0.3,2.6,0.8,3.4c0.5,0.7,1.6,1.1,3.1,1.1c-2.4,0-1.2-0.1,3.6-0.1L-790.8,48.6L-790.8,48.6z"/>
					<path class="st4" d="M-764.6,48.6h-4.7c-1.9,0-3.4-0.6-4.3-1.7c-0.3,2.6-1.5,4-3.7,4c-2,0-4.7-1.9-8.2-5.6
						c-0.3,0.5-1.2,1.4-2.5,2.5c-0.8,0.6-2.5,0.9-5.2,0.9v-7h2.4c1.7,0,3.1-0.8,4.3-2.3c0.9-1.4,1.8-2.9,2.7-4.3
						c1.1-1.5,2.5-2.3,4.1-2.3c0.8,0,1.8,0.7,3,2.2s2.2,2.9,3.2,4.4c1.4,1.6,2.8,2.3,4.3,2.3h4.7L-764.6,48.6L-764.6,48.6z
						 M-777.7,41.7c0-1-0.2-2.1-0.5-3.4c-0.4-1.6-1-2.4-1.7-2.4c-0.6,0-1.2,0.6-1.8,1.7c-0.4,0.8-0.8,1.7-1.2,2.5
						c2.1,2.1,3.6,3.1,4.4,3.1C-777.9,43.2-777.7,42.7-777.7,41.7z"/>
					<path class="st5" d="M-755,70.4c0,1.5-0.5,2.6-1.6,3.2l-9.6,5.3c0-1,0.1-1.7,0.4-2c0.3-0.4,0.9-0.8,1.8-1.4L-755,70.4z"/>
					<path class="st5" d="M-756.5,38.1c0,2.9-0.6,5.2-1.8,7.1c-1.4,2.2-3.5,3.4-6.3,3.4h-2.3v-7c4.9,0,7.3-0.5,7.3-1.6
						c0-0.2-0.4-0.8-1.2-1.7s-1.2-1.6-1.2-2.2c0-0.8,1-3.1,3.1-6.9C-757.3,32.6-756.5,35.6-756.5,38.1z M-753.4,23.9l-2.7,4.1
						l-4.1-2.7l-2,3.5l-4.4-3.1l2.7-4.2l3.9,2.9l2.5-3.8L-753.4,23.9z M-758.3,17.5l-2.5,4.2l-4.3-3.1l2.6-4.2L-758.3,17.5z"/>
					<path class="st4" d="M-704.9,37.1c0,4-1.4,7.2-4.2,9.6c-2.8,2.4-6.3,3.7-10.5,3.7c-3,0-5.4-0.7-7.3-2.1
						c-2.1-1.5-3.2-3.7-3.2-6.4c0-3.4,1.3-7.6,3.9-12.7l0.9,0.6c-1.2,2.3-1.8,4.4-1.8,6.1c0,2.8,0.8,4.8,2.5,5.8
						c1.3,0.9,3.6,1.3,6.8,1.3c2.3,0,4.4-0.4,6.5-1.2c2.8-1.1,4.2-2.5,4.2-4.3c0-0.8-0.8-2.4-2.3-4.8c-1.3-2.1-2.3-3.7-3.1-4.7
						l2.6-6.2C-706.5,26-704.9,31.1-704.9,37.1z M-716.3,19l-2.6,4.1l-4.3-3l2.7-4.2L-716.3,19z"/>
					<path class="st4" d="M-686,48.6h-4.7c-2.2,0-3.8-0.9-4.9-2.7c-0.8-1.4-1.4-4.1-1.5-8.1c0-1.7-0.4-4.7-0.9-9.1
						c-0.6-4-0.8-7-0.8-9.1c0-0.6,0-1.1,0.1-1.4c0-0.3,1.2-1.4,3.5-3.2c0,0.2,0.3,3.8,0.9,10.7c0.6,6.3,0.8,10.1,0.8,11.4
						c0,1.5,0.3,2.6,0.8,3.4c0.5,0.7,1.6,1.1,3.1,1.1c-2.4,0-1.2-0.1,3.6-0.1L-686,48.6L-686,48.6z"/>
					<path class="st4" d="M-672.1,48.6h-4.6c-2.2,0-3.7-1.3-4.7-3.8c-1.3,2.5-2.8,3.8-4.6,3.8h-2.3v-7c2.7,0,3.8,0,3.2,0
						c1.5,0,2.5-0.3,3-0.8c0.1-0.1,0.2-1.2,0.2-3.2l0.4,0.1c0.3,2,1.5,3.2,3.7,3.7c0.7,0.1,2.6,0.2,5.8,0.2L-672.1,48.6L-672.1,48.6
						z M-677.3,54l-2.6,4.2l-4.3-3l2.7-4.2L-677.3,54z"/>
					<path class="st4" d="M-651.9,48.6h-4.7c-0.9,0-2.1-0.7-3.7-2.1c-0.1,0-1.2-1.1-3.3-3.3c-3.8,3.6-6.7,5.4-8.4,5.4h-2.3v-7
						c2.2,0,3.5,0,3.9-0.1c0.9-0.2,2.1-0.7,3.4-1.6c-1.5-2.2-3.5-3.3-5.8-3.3c0.2-2.7,1-4.7,2.5-5.8c1.4-1,3.5-1.5,6.5-1.5
						c2.2,0,4,0.5,5.4,1.5c1.6,1.2,2.5,2.8,2.5,4.8c0,2.1-1.3,3.8-3.9,5c1.2,0.6,2.5,0.9,3.7,0.9c-0.6,0,0.8,0,4.2,0L-651.9,48.6
						L-651.9,48.6z"/>
					<path class="st5" d="M-642.3,1.8l-0.3,3.1c-0.6-0.3-1.4-0.8-2.6-1.6c-2.5,3-4.7,4.5-6.5,4.5c-0.4,0-1.1-0.1-2-0.3
						c2.1-1.1,4.4-2.7,7-4.9c-1.4-1.1-2-2-2-2.9c0-1.1,0.4-2.2,1.2-3.5s1.7-1.9,2.8-1.9c1.4,0,2.1,0.9,2.1,2.8c0,1.3-0.3,2.5-1,3.8
						C-643.1,1.2-642.7,1.5-642.3,1.8z M-644.6-1c0-0.4-0.2-0.8-0.5-1.3s-0.7-0.7-1.2-0.7s-0.7,0.3-0.7,0.9c0,0.4,0.8,1.1,2.3,2.1
						C-644.6-0.6-644.6-0.9-644.6-1z"/>
					<path class="st5" d="M-643.9,38.1c0,2.9-0.6,5.2-1.8,7.1c-1.4,2.2-3.5,3.4-6.3,3.4h-2.3v-7c4.9,0,7.3-0.5,7.3-1.6
						c0-0.2-0.4-0.8-1.2-1.7s-1.2-1.6-1.2-2.2c0-0.8,1-3.1,3.1-6.9C-644.7,32.6-643.9,35.6-643.9,38.1z M-640.9,23.9l-2.7,4.1
						l-4.1-2.7l-2,3.5l-4.4-3.1l2.7-4.2l3.9,2.9l2.5-3.8L-640.9,23.9z M-645.7,17.5l-2.5,4.2l-4.3-3.1l2.6-4.2L-645.7,17.5z"/>
					<path class="st4" d="M-557.8,48.6h-4.7c-2.5,0-4-1.1-4.6-3.2c-5.8,3.8-13,5.8-21.5,5.8c-4.7,0-8.6-0.8-11.7-2.3
						c-3.9-2-5.8-5-5.8-9.1c0-2.5,1-5.9,3.1-9.9l0.9,0.4c-0.8,2-1.3,3.8-1.3,5.5c0,3,2,5.3,6,6.6c2.8,1,6.1,1.5,10,1.5
						c7.1,0,12.4-0.6,15.8-1.8c1.1-0.4,1.7-0.6,1.8-0.6c0.8-0.4,1.2-0.7,1.4-1.2c0.2-0.4,0.3-1.2,0.2-2.4h0.7c0.7,2.5,2.7,3.8,6,3.8
						c0.4,0,1,0,1.8-0.1c0.8,0,1.4,0,1.8,0L-557.8,48.6L-557.8,48.6z M-580.2,58.1l-2.5,4.2l-4.3-3.1l2.7-4.1L-580.2,58.1z"/>
					<path class="st4" d="M-541.2,48.6h-4.6c-3.1,0-5.2-2.5-6.2-7.5c-1.5,5-3.4,7.5-5.8,7.5h-2.3v-7h2.3c3,0,4.5-2.7,4.5-8
						c0-2.2-0.2-5.5-0.6-9.9c-0.4-4.4-0.6-7.7-0.6-9.9c0-0.1,1.1-1,3.4-2.9c0.5,3.1,0.7,5.7,0.7,7.9c0,4.7,0.2,8.9,0.6,12.6
						c0.8,6.8,2.1,10.2,3.9,10.2h4.6L-541.2,48.6L-541.2,48.6z"/>
					<path class="st4" d="M-521,48.6h-4.7c-0.9,0-2.1-0.7-3.7-2.1c-0.1,0-1.2-1.1-3.3-3.3c-3.8,3.6-6.7,5.4-8.4,5.4h-2.3v-7
						c2.2,0,3.5,0,3.9-0.1c0.9-0.2,2.1-0.7,3.4-1.6c-1.5-2.2-3.5-3.3-5.8-3.3c0.2-2.7,1-4.7,2.5-5.8c1.4-1,3.5-1.5,6.5-1.5
						c2.2,0,4,0.5,5.4,1.5c1.6,1.2,2.5,2.8,2.5,4.8c0,2.1-1.3,3.8-3.9,5c1.2,0.6,2.5,0.9,3.7,0.9c-0.6,0,0.8,0,4.2,0L-521,48.6
						L-521,48.6z"/>
					<path class="st5" d="M-511.5-0.8c0,1.6-0.5,2.7-1.6,3.4l-9.6,5.2c0-0.9,0.1-1.6,0.4-2c0.3-0.4,0.9-0.8,1.8-1.3L-511.5-0.8z"/>
					<path class="st5" d="M-513,38.1c0,2.9-0.6,5.2-1.8,7.1c-1.4,2.2-3.5,3.4-6.3,3.4h-2.3v-7c4.9,0,7.3-0.5,7.3-1.6
						c0-0.2-0.4-0.8-1.2-1.7s-1.2-1.6-1.2-2.2c0-0.8,1-3.1,3.1-6.9C-513.8,32.6-513,35.6-513,38.1z M-509.9,23.9l-2.7,4.1l-4.1-2.7
						l-2,3.5l-4.4-3.1l2.7-4.2l3.9,2.9l2.5-3.8L-509.9,23.9z M-514.8,17.5l-2.5,4.2l-4.3-3.1l2.6-4.2L-514.8,17.5z"/>
					<path class="st4" d="M-462.8,48.6h-4.8c-0.6,4.2-1.7,7.7-3.2,10.5c-2.2,4-5,6-8.6,6c-2.5,0-5.7-1.2-9.4-3.6l0.5-0.8
						c1.5,0.3,2.5,0.4,3.2,0.4c2.5,0,5-1,7.7-2.9c1.1-0.8,2.5-2.4,4-4.7c1.1-1.8,2.3-3.6,3.4-5.4c-2.1-0.7-3.6-2.3-4.6-4.9l3.9-5.5
						c0.9,1.8,1.9,3,3,3.4c0.7,0.3,2.3,0.4,4.8,0.4v7.1H-462.8z"/>
					<path class="st4" d="M-426.2,48.6h-7.7c-6,0-8.9-1.7-8.9-5c0-1.1,0.4-2.8,1.3-5.1c-3,0.4-5.5,1.2-7.5,2.1
						c-1.2,0.6-3.3,2-6.3,4.2c-1,0.7-2.5,1.7-4.5,3c-1,0.5-2.7,0.7-5.2,0.7v-7c3.1,0,5.6-0.3,7.5-0.8c1.6-0.4,4-1.4,7-2.9
						c-2.7-1.3-4.8-1.9-6.3-1.9c-0.9,0-1.7,0.4-2.2,1.2h-4.4c0.7-2.6,1.4-4.4,2.1-5.6c1.2-1.7,3-2.6,5.2-2.6c1.4,0,3.5,0.5,6.2,1.5
						c4.4,1.6,8.2,2.4,11.6,2.4c0.6,0,1.4,0,2.5-0.1s1.9-0.1,2.5-0.1l-0.8,5.4c-2.2,0.2-3.8,0.3-4.9,0.5c0.7,1.3,1.5,2.2,2.5,2.6
						c0.8,0.3,2.1,0.5,3.8,0.5h6.6L-426.2,48.6L-426.2,48.6z M-444.6,51.3l-2.5,4.2l-4.3-3.2l2.7-4.2L-444.6,51.3z"/>
					<path class="st5" d="M-417.3,12.8c0,1.3-0.5,2.5-1.4,3.6c-1,1-2.2,1.5-3.6,1.5c-2.3,0-3.5-1.3-3.5-3.8c0-1.6,0.3-2.9,1-4
						c0.8-1.3,2-1.9,3.6-1.9c1.1,0,2.1,0.5,2.9,1.5C-417.7,10.6-417.3,11.6-417.3,12.8z M-419.1,13.6c0-0.5-0.5-1.1-1.4-1.8
						c-0.9-0.6-1.7-1-2.3-1c-0.5,0-1,0.2-1.4,0.7s-0.6,1-0.6,1.4c0,1.3,1,1.9,2.9,1.9C-420.1,14.8-419.1,14.4-419.1,13.6z"/>
					<path class="st5" d="M-412.3,48.6h-4.6c-2.2,0-3.7-1.3-4.7-3.8c-1.3,2.5-2.8,3.8-4.6,3.8h-2.3v-7c2.7,0,3.8,0,3.2,0
						c1.5,0,2.5-0.3,3-0.8c0.1-0.1,0.2-1.2,0.2-3.2l0.4,0.1c0.3,2,1.5,3.2,3.7,3.6c0.7,0.2,2.6,0.3,5.8,0.3v7
						C-412.2,48.6-412.3,48.6-412.3,48.6z M-415.1,30.9l-2.5,4.2l-4.1-2.8l-2,3.6l-4.4-3.2l2.6-4.2l3.9,3l2.4-3.8L-415.1,30.9z"/>
					<path class="st4" d="M-395.7,40.3c0,1.5-0.4,2.8-1.1,4c-0.8,1.4-1.9,2.1-3.3,2.1c-1.5,0-4-0.8-7.6-2.5c-0.3,0.9-0.9,1.8-1.9,3
						c-1,1.3-1.9,1.9-2.7,1.9h-2.3v-7c2.1,0,3.5-0.1,4.2-0.4c1-0.4,1.9-1.4,2.6-3s1.3-3.2,2-4.9c1.2-2.1,2.6-3.2,4.2-3.2
						c1.8,0,3.3,1.3,4.5,4C-396.2,36.2-395.7,38.3-395.7,40.3z M-399.6,38.9c0-0.8-0.4-1.5-1.1-2.1s-1.5-0.9-2.4-0.9
						c-1,0-1.9,0.6-2.5,1.9c2.4,1.3,4.1,2,5,2C-400,39.9-399.6,39.6-399.6,38.9z"/>
					<path class="st4" d="M-366.9,39.2h-4.4c0.7-2.6,1.4-4.5,2.1-5.6c1.2-1.8,3-2.7,5.2-2.7c1.7,0,3.9,0.2,6.6,0.7
						c3.5,0.6,5.7,0.9,6.6,1c1.5,0,3.7,0.1,6.5,0.3l-1.1,5.4c-2.6,0-5.1,0.2-7.3,0.6c-4.1,0.7-7.7,2.3-10.7,4.8
						c-3.4,2.8-5.1,6.1-5.1,9.9c0,4.5,2.8,7.9,8.3,10.1c4,1.6,8.8,2.3,14.4,2.3c1.5,0,4.9-0.2,10.4-0.6l0.1,0.8l-13.9,6.4h-1.7
						c-6.1,0-10.9-1.1-14.4-3.2c-4.3-2.6-6.5-6.6-6.5-12.1c0-7.5,4-13.7,11.9-18.6c-2.5-0.5-4.2-0.8-5-0.8c-0.7,0-1.2,0.1-1.4,0.2
						C-366.4,38.3-366.6,38.6-366.9,39.2z"/>
					<path class="st4" d="M-318.5,48.6h-4.7c-2.2,0-3.8-0.9-4.9-2.7c-0.8-1.4-1.4-4.1-1.5-8.1c0-1.7-0.4-4.7-0.9-9.1
						c-0.6-4-0.8-7-0.8-9.1c0-0.6,0-1.1,0.1-1.4c0-0.3,1.2-1.4,3.5-3.2c0,0.2,0.3,3.8,0.9,10.7c0.6,6.3,0.8,10.1,0.8,11.4
						c0,1.5,0.3,2.6,0.8,3.4c0.5,0.7,1.6,1.1,3.1,1.1c-2.4,0-1.2-0.1,3.6-0.1V48.6L-318.5,48.6z"/>
					<path class="st4" d="M-308.1,48.6c-3,0-4.9-1.3-5.9-3.9c-1.2,2.6-2.7,3.9-4.6,3.9h-2.3v-7c3.5,0,5.6-0.3,6.3-0.8
						c0.3-0.2,0.5-1.2,0.6-3h0.4c0.5,1.4,1.3,2.4,2.3,2.9c0.8,0.4,2.1,0.5,3.9,0.5v7.3C-307.6,48.6-308.1,48.6-308.1,48.6z"/>
					<path class="st4" d="M-308.1,41.3h2.3c1.9,0,3.1-0.4,3.4-1.1c0.1-0.2,0.3-1.3,0.5-3.5l0.8,0.1c0,0.9,0.9,2,2.6,3.2
						c0.6,0.4,1.7,0.6,3.4,0.6c1.3,0,2.2-0.4,2.7-1.3c0.3-0.5,0.4-1.5,0.5-3h0.8c0.4,1.7,1.2,3.1,2.5,4.2c0.8,0.7,2.1,1.1,3.8,1.2
						c-1.5,0-0.1-0.1,4.2-0.1v7h-4.6c-1.7,0-3.1-0.7-4.2-2.1c-0.7-0.9-1.3-2.3-2-4.4c-1.3,3.8-3.1,5.6-5.4,5.6
						c-1.9,0-3.3-1.2-4.2-3.7c-1.3,3-3.7,4.5-7.2,4.5v-7.2H-308.1z"/>
					<path class="st4" d="M-254.3,48.6h-4.7c-1.9,0-3.4-0.6-4.3-1.7c-0.3,2.6-1.5,4-3.7,4c-2,0-4.7-1.9-8.2-5.6
						c-0.3,0.5-1.2,1.4-2.5,2.5c-0.8,0.6-2.5,0.9-5.2,0.9v-7h2.4c1.7,0,3.1-0.8,4.3-2.3c0.9-1.4,1.8-2.9,2.7-4.3
						c1.1-1.5,2.5-2.3,4.1-2.3c0.8,0,1.8,0.7,3,2.2s2.2,2.9,3.2,4.4c1.4,1.6,2.8,2.3,4.3,2.3h4.7L-254.3,48.6L-254.3,48.6z
						 M-267.4,41.7c0-1-0.2-2.1-0.5-3.4c-0.4-1.6-1-2.4-1.7-2.4c-0.6,0-1.2,0.6-1.8,1.7c-0.4,0.8-0.8,1.7-1.2,2.5
						c2.1,2.1,3.6,3.1,4.4,3.1C-267.7,43.2-267.4,42.7-267.4,41.7z"/>
					<path class="st4" d="M-256.7,48.6v-7h14.1v7H-256.7z"/>
					<path class="st5" d="M-233.9,70.4c0,1.5-0.5,2.6-1.6,3.2l-9.6,5.3c0-1,0.1-1.7,0.4-2c0.3-0.4,0.9-0.8,1.8-1.4L-233.9,70.4z"/>
					<path class="st5" d="M-235.4,38.1c0,2.9-0.6,5.2-1.8,7.1c-1.4,2.2-3.5,3.4-6.3,3.4h-2.3v-7c4.9,0,7.3-0.5,7.3-1.6
						c0-0.2-0.4-0.8-1.2-1.7s-1.2-1.6-1.2-2.2c0-0.8,1-3.1,3.1-6.9C-236.2,32.6-235.4,35.6-235.4,38.1z M-232.4,23.9l-2.7,4.1
						l-4.1-2.7l-2,3.5l-4.4-3.1l2.7-4.2l3.9,2.9l2.5-3.8L-232.4,23.9z"/>
					<path class="st4" d="M-205.6,39.2h-4.4c0.7-2.6,1.4-4.5,2.1-5.6c1.2-1.8,3-2.7,5.2-2.7c1.7,0,3.9,0.2,6.6,0.7
						c3.5,0.6,5.7,0.9,6.6,1c1.5,0,3.7,0.1,6.5,0.3l-1.1,5.4c-2.6,0-5.1,0.2-7.3,0.6c-4.1,0.7-7.7,2.3-10.7,4.8
						c-3.4,2.8-5.1,6.1-5.1,9.9c0,4.5,2.8,7.9,8.3,10.1c4,1.6,8.8,2.3,14.4,2.3c1.5,0,4.9-0.2,10.4-0.6l0.1,0.8l-13.9,6.4h-1.7
						c-6.1,0-10.9-1.1-14.4-3.2c-4.3-2.6-6.5-6.6-6.5-12.1c0-7.5,4-13.7,11.9-18.6c-2.5-0.5-4.2-0.8-5-0.8c-0.7,0-1.2,0.1-1.4,0.2
						C-205.1,38.3-205.4,38.6-205.6,39.2z"/>
					<path class="st4" d="M-157.3,48.6h-4.7c-2.2,0-3.8-0.9-4.9-2.7c-0.8-1.4-1.4-4.1-1.5-8.1c0-1.7-0.4-4.7-0.9-9.1
						c-0.6-4-0.8-7-0.8-9.1c0-0.6,0-1.1,0.1-1.4c0-0.3,1.2-1.4,3.5-3.2c0,0.2,0.3,3.8,0.9,10.7c0.6,6.3,0.8,10.1,0.8,11.4
						c0,1.5,0.3,2.6,0.8,3.4c0.5,0.7,1.6,1.1,3.1,1.1c-2.4,0-1.2-0.1,3.6-0.1L-157.3,48.6L-157.3,48.6z"/>
					<path class="st4" d="M-137.1,48.6h-4.7c-3.5,0-6.1-0.8-7.9-2.5c-3.1,1.7-5.6,2.5-7.6,2.5h-2.3v-7c2.3,0,3.8-0.3,4.8-0.8
						c-0.5-0.5-0.8-1-0.8-1.6c0-2.1,0.7-4.4,2.2-6.9c1.4-2.4,3-4.2,4.8-5.6c1.2-0.9,2.2-1.3,3-1.3c1.5,0,2.6,1.1,3.3,3.4
						c0.5,1.6,0.8,3.3,0.8,5.2c0,2.6-0.8,4.9-2.5,6.8c0.8,0.6,2,1,3.4,1c-2.2,0-1-0.1,3.6-0.1v6.9C-137,48.6-137.1,48.6-137.1,48.6z
						 M-144.1,36c0-1-0.4-1.9-1.2-2.6c-0.8-0.7-1.8-1-2.9-1c-0.9,0-1.8,0.2-2.6,0.7c-1,0.5-1.5,1.2-1.5,2c0,1,1.2,2.3,3.5,4
						C-145.7,38.3-144.1,37.3-144.1,36z M-143,17.5l-2.6,4.2l-4.3-3l2.7-4.2L-143,17.5z"/>
					<path class="st5" d="M-127.5,6.5l-0.3,3.1c-0.6-0.3-1.4-0.8-2.6-1.6c-2.5,3-4.7,4.5-6.5,4.5c-0.4,0-1.1-0.1-2-0.3
						c2.1-1.1,4.4-2.7,7-4.9c-1.4-1.1-2-2-2-2.9c0-1.1,0.4-2.2,1.2-3.5S-131-1-129.9-1c1.4,0,2.1,0.9,2.1,2.8c0,1.3-0.3,2.5-1,3.8
						C-128.3,5.9-127.9,6.3-127.5,6.5z M-129.8,3.7c0-0.4-0.2-0.8-0.5-1.3s-0.7-0.7-1.2-0.7s-0.7,0.3-0.7,0.9c0,0.4,0.8,1.1,2.3,2.1
						C-129.8,4.2-129.8,3.8-129.8,3.7z"/>
					<path class="st5" d="M-129.1,38.1c0,2.9-0.6,5.2-1.8,7.1c-1.4,2.2-3.5,3.4-6.3,3.4h-2.3v-7c4.9,0,7.3-0.5,7.3-1.6
						c0-0.2-0.4-0.8-1.2-1.7s-1.2-1.6-1.2-2.2c0-0.8,1-3.1,3.1-6.9C-129.9,32.6-129.1,35.6-129.1,38.1z M-126.1,23.9l-2.7,4.1
						l-4.1-2.7l-2,3.5l-4.4-3.1l2.7-4.2l3.9,2.9l2.5-3.8L-126.1,23.9z"/>
					<path class="st4" d="M-78.9,48.6h-4.8c-0.6,4.2-1.7,7.7-3.2,10.5c-2.2,4-5,6-8.6,6c-2.5,0-5.7-1.2-9.4-3.6l0.5-0.8
						c1.5,0.3,2.5,0.4,3.2,0.4c2.5,0,5-1,7.7-2.9c1.1-0.8,2.5-2.4,4-4.7c1.1-1.8,2.3-3.6,3.4-5.4c-2.1-0.7-3.6-2.3-4.6-4.9l3.9-5.5
						c0.9,1.8,1.9,3,3,3.4c0.7,0.3,2.3,0.4,4.8,0.4C-78.9,41.6-78.9,48.6-78.9,48.6z"/>
					<path class="st4" d="M-52.5,48.6h-4.7c-1.9,0-3.4-0.6-4.3-1.7c-0.3,2.6-1.5,4-3.7,4c-2,0-4.7-1.9-8.2-5.6
						c-0.3,0.5-1.2,1.4-2.5,2.5c-0.8,0.6-2.5,0.9-5.2,0.9v-7h2.4c1.7,0,3.1-0.8,4.3-2.3c0.9-1.4,1.8-2.9,2.7-4.3
						c1.1-1.5,2.5-2.3,4.1-2.3c0.8,0,1.8,0.7,3,2.2c1.1,1.5,2.2,2.9,3.2,4.4c1.4,1.6,2.8,2.3,4.3,2.3h4.7L-52.5,48.6L-52.5,48.6z
						 M-65.6,41.7c0-1-0.2-2.1-0.5-3.4c-0.4-1.6-1-2.4-1.7-2.4c-0.6,0-1.2,0.6-1.8,1.7c-0.4,0.8-0.8,1.7-1.2,2.5
						c2.1,2.1,3.6,3.1,4.4,3.1C-65.9,43.2-65.6,42.7-65.6,41.7z"/>
					<path class="st4" d="M-54.9,48.6v-7h14.1v7H-54.9z"/>
					<path class="st5" d="M-32.1,4c0,1.6-0.5,2.7-1.6,3.4l-9.6,5.2c0-0.9,0.1-1.6,0.4-2c0.3-0.4,0.9-0.8,1.8-1.3L-32.1,4z"/>
					<path class="st5" d="M-33.6,38.1c0,2.9-0.6,5.2-1.8,7.1c-1.4,2.2-3.5,3.4-6.3,3.4H-44v-7c4.9,0,7.3-0.5,7.3-1.6
						c0-0.2-0.4-0.8-1.2-1.7s-1.2-1.6-1.2-2.2c0-0.8,1-3.1,3.1-6.9C-34.4,32.6-33.6,35.6-33.6,38.1z M-30.6,23.9l-2.7,4.1l-4.1-2.7
						l-2,3.5l-4.4-3.1l2.7-4.2l3.9,2.9l2.5-3.8L-30.6,23.9z"/>
					<path class="st4" d="M27.4,48.6h-4.8c-0.6,4.2-1.7,7.7-3.2,10.5c-2.2,4-5,6-8.6,6c-2.5,0-5.7-1.2-9.4-3.6L2,60.8
						c1.5,0.3,2.5,0.4,3.2,0.4c2.5,0,5-1,7.7-2.9c1.1-0.8,2.5-2.4,4-4.7c1.1-1.8,2.3-3.6,3.4-5.4c-2.1-0.7-3.6-2.3-4.6-4.9l3.9-5.5
						c0.9,1.8,1.9,3,3,3.4c0.7,0.3,2.3,0.4,4.8,0.4C27.4,41.6,27.4,48.6,27.4,48.6z M22.6,28.5l-2.5,4.2l-4.3-3.1l2.5-4.2L22.6,28.5
						z"/>
					<path class="st5" d="M41.9,48.6h-4.6c-2.2,0-3.7-1.3-4.7-3.8c-1.3,2.5-2.8,3.8-4.6,3.8h-2.3v-7c2.7,0,3.8,0,3.2,0
						c1.5,0,2.5-0.3,3-0.8c0.1-0.1,0.2-1.2,0.2-3.2l0.4,0.1c0.3,2,1.5,3.2,3.7,3.7c0.7,0.1,2.6,0.2,5.8,0.2L41.9,48.6L41.9,48.6z
						 M36.7,54l-2.6,4.2l-4.3-3l2.7-4.2L36.7,54z"/>
					<path class="st4" d="M35.1,18c0,1.3-0.5,2.5-1.4,3.6c-1,1-2.2,1.5-3.6,1.5c-2.3,0-3.5-1.3-3.5-3.8c0-1.6,0.3-2.9,1-4
						c0.8-1.3,2-1.9,3.6-1.9c1.1,0,2.1,0.5,2.9,1.5C34.7,15.8,35.1,16.9,35.1,18z M33.2,18.8c0-0.5-0.5-1.1-1.4-1.8
						c-0.9-0.6-1.7-1-2.3-1c-0.5,0-1,0.2-1.4,0.7s-0.6,1-0.6,1.4c0,1.3,1,1.9,2.9,1.9C32.3,20.1,33.2,19.6,33.2,18.8z"/>
					<path class="st4" d="M70,32.7l-0.8,5.4c-0.9,0.1-2.2,0.2-3.9,0.2c-3.3,0-6.4,0.7-9.2,2c-1.4,0.7-3.3,1.9-5.7,3.8
						c-2.4,1.9-4.3,3.1-5.6,3.7c-0.9,0.5-2.7,0.7-5.2,0.7v-7c3.1,0,5.6-0.3,7.5-0.8c1.6-0.4,4-1.4,7-2.9c-2.7-1.3-4.8-1.9-6.3-1.9
						c-1.2,0-1.9,0.4-2.2,1.2h-4.4c0.7-2.6,1.4-4.4,2.1-5.6c1.2-1.7,3-2.6,5.2-2.6c1.4,0,3.5,0.5,6.2,1.5c4.4,1.6,8.2,2.4,11.6,2.4
						c0.4,0,1,0,1.8-0.1C68.9,32.7,69.5,32.7,70,32.7z M62.4,22.9L60,27.1l-4.3-3l2.6-4.2L62.4,22.9z"/>
					<path class="st4" d="M145.3,48.6h-4.7c-2.5,0-4-1.1-4.6-3.2c-5.8,3.8-13,5.8-21.5,5.8c-4.7,0-8.6-0.8-11.7-2.3
						c-3.9-2-5.8-5-5.8-9.1c0-2.5,1-5.9,3.1-9.9l0.9,0.4c-0.8,2-1.3,3.8-1.3,5.5c0,3,2,5.3,6,6.6c2.8,1,6.1,1.5,10,1.5
						c7.1,0,12.4-0.6,15.8-1.8c1.1-0.4,1.7-0.6,1.8-0.6c0.8-0.4,1.2-0.7,1.4-1.2c0.2-0.4,0.3-1.2,0.2-2.4h0.7c0.7,2.5,2.6,3.8,6,3.8
						c0.4,0,1,0,1.8-0.1c0.8,0,1.4,0,1.8,0L145.3,48.6L145.3,48.6z M124.2,25.6l-2.6,4.1l-4.1-2.7l-2,3.5l-4.4-3.1l2.6-4.2l3.9,3
						l2.4-3.7L124.2,25.6z"/>
					<path class="st4" d="M159.2,48.6h-4.6c-2.2,0-3.7-1.3-4.7-3.8c-1.3,2.5-2.8,3.8-4.6,3.8H143v-7c2.7,0,3.8,0,3.2,0
						c1.5,0,2.5-0.3,3-0.8c0.1-0.1,0.2-1.2,0.2-3.2l0.4,0.1c0.3,2,1.5,3.2,3.7,3.6c0.7,0.2,2.6,0.3,5.8,0.3L159.2,48.6L159.2,48.6z
						 M154.4,30.5l-2.4,4.2l-4.3-3.1l2.5-4.1L154.4,30.5z"/>
					<path class="st5" d="M168.8,69.9c0,1.5-0.5,2.6-1.6,3.2l-9.6,5.3c0-1,0.1-1.7,0.4-2c0.3-0.4,0.9-0.8,1.8-1.4L168.8,69.9z"/>
					<path class="st5" d="M167.3,38.1c0,2.9-0.6,5.2-1.8,7.1c-1.4,2.2-3.5,3.4-6.3,3.4h-2.3v-7c4.9,0,7.3-0.5,7.3-1.6
						c0-0.2-0.4-0.8-1.2-1.7s-1.2-1.6-1.2-2.2c0-0.8,1-3.1,3.1-6.9C166.5,32.6,167.3,35.6,167.3,38.1z M167.2,54l-2.6,4.2l-4.3-3
						L163,51L167.2,54z"/>
					<path class="st4" d="M230.7,33l-1.1,5.4c-2.6,0-5.1,0.2-7.3,0.6c-4.1,0.7-7.7,2.3-10.7,4.8c-3.4,2.8-5.1,6.1-5.1,9.9
						c0,4.5,2.8,7.9,8.3,10.1c4,1.6,8.8,2.3,14.4,2.3c1.5,0,4.9-0.2,10.4-0.6l0.1,0.8l-13.9,6.4h-1.7c-6.1,0-10.9-1.1-14.4-3.2
						c-4.3-2.6-6.5-6.6-6.5-12.1c0-7.5,4-13.7,11.9-18.6l-4.3-0.9c-1.5,0-2.4,0.4-2.9,1.3h-4.4c0.7-2.6,1.4-4.4,2.1-5.6
						c1.2-1.8,3-2.7,5.2-2.7c1.7,0,3.9,0.2,6.7,0.7c3.5,0.6,5.7,0.9,6.6,1C225.6,32.7,227.8,32.8,230.7,33z M223,51.9l-2.5,4.2
						l-4.3-3.1l2.5-4.2L223,51.9z"/>
					<path class="st4" d="M266.1,48.6h-4.8c-0.6,4.2-1.7,7.7-3.2,10.5c-2.2,4-5,6-8.6,6c-2.5,0-5.7-1.2-9.4-3.6l0.5-0.8
						c1.5,0.3,2.5,0.4,3.2,0.4c2.5,0,5-1,7.7-2.9c1.1-0.8,2.5-2.4,4-4.7c1.1-1.8,2.3-3.6,3.4-5.4c-2.1-0.7-3.6-2.3-4.6-4.9l3.9-5.5
						c0.9,1.8,1.9,3,3,3.4c0.7,0.3,2.3,0.4,4.8,0.4L266.1,48.6L266.1,48.6z"/>
					<path class="st5" d="M275.9,13l-0.3,3.1c-0.6-0.3-1.4-0.8-2.6-1.6c-2.5,3-4.7,4.5-6.5,4.5c-0.4,0-1.1-0.1-2-0.3
						c2.1-1.1,4.4-2.7,7-4.9c-1.4-1.1-2-2-2-2.9c0-1.1,0.4-2.2,1.2-3.5c0.8-1.3,1.7-1.9,2.8-1.9c1.4,0,2.1,0.9,2.1,2.8
						c0,1.3-0.3,2.5-1,3.8C275.1,12.3,275.5,12.7,275.9,13z M273.6,10.1c0-0.4-0.2-0.8-0.5-1.3c-0.4-0.5-0.7-0.7-1.2-0.7
						s-0.7,0.3-0.7,0.9c0,0.4,0.8,1.1,2.3,2.1C273.6,10.6,273.6,10.3,273.6,10.1z"/>
					<path class="st5" d="M274.3,38.1c0,2.9-0.6,5.2-1.8,7.1c-1.4,2.2-3.5,3.4-6.3,3.4h-2.3v-7c4.9,0,7.3-0.5,7.3-1.6
						c0-0.2-0.4-0.8-1.2-1.7c-0.8-0.9-1.2-1.6-1.2-2.2c0-0.8,1-3.1,3.1-6.9C273.5,32.6,274.3,35.6,274.3,38.1z M274.2,54l-2.6,4.2
						l-4.3-3L270,51L274.2,54z"/>
					<path class="st4" d="M320.7,48.6H316c-2,0-3.5-0.9-4.4-2.7c-0.6-1.1-1-2.8-1.3-5.3c-2.5,3.3-4.6,5-6.1,5c-1,0-2.1-0.3-3.1-0.8
						c-1.2-0.6-1.8-1.4-1.8-2.3c0-1,0.6-2.8,1.8-5.3c0.6-1.4,1.6-2.6,3.1-3.6c0.5-0.3,1.9-1.1,4.4-2.4c-0.4-1.8-0.6-2.9-0.6-3.4
						c0-0.8,1.1-2.3,3.3-4.4c0,0,0.5,3.2,1.4,9.4c0.8,5,1.3,7.7,1.7,8.2c0.4,0.4,1,0.7,1.8,0.8c0.6,0.1,1.4,0.1,2.5,0.1
						c1.5,0,2.1-0.1,2-0.1L320.7,48.6L320.7,48.6z M314.1,17.3l-2.7,4.2l-4.1-2.8l-2,3.5l-4.5-3.1l2.6-4.1l4,2.9l2.5-3.8L314.1,17.3
						z M309.9,37.9c0-1-0.2-2.4-0.7-4.3c-3.5,1.8-5.2,3.1-5.2,4s1.6,1.3,4.8,1.3C309.5,38.9,309.9,38.6,309.9,37.9z"/>
					<path class="st4" d="M321.1,16.3c-0.4-0.5-0.6-0.9-0.7-1.2c0.7-2.7,1.7-4.4,3.2-5c0.1,1.6,0.8,2.9,2,4.1
						c1.2,1.1,2.6,1.6,4.3,1.3l-3,5.1c-0.4-0.1-0.9-0.4-1.4-0.7l-0.1,0.5c0,1.3,0.1,3,0.5,5.2c0.4,2.4,0.6,4.2,0.6,5.2
						c0,2.3-0.3,4.8-0.8,7.4c2.8-3.2,4.7-5.2,5.7-6.1c2.7-2.5,5.1-3.8,7.2-3.8c2,0,3.6,0.6,4.8,1.7c1.2,1.2,1.8,2.7,1.8,4.6
						c0,1.6-0.3,3-0.8,4.1c-0.4,0.8-1.3,1.9-2.5,3.3c1.9-0.1,3.1-0.2,3.7-0.2h5.5v7h-6.5c-0.6,0-1.5,0-2.7-0.1
						c-1.2,0-2.1-0.1-2.7-0.1c-2.9,0-4.6-0.6-5.2-1.7c-2.4,1.3-6.5,1.9-12.3,1.9h-3.1v-7h4.2c0.4-0.8,0.8-1.5,1.3-2.3
						c0.1-0.3,0.2-1.3,0.2-3c0-2.2-0.5-5.6-1.4-10C321.6,21.9,321.1,18.5,321.1,16.3z M341.8,37.3c0-0.8-0.5-1.4-1.4-1.9
						c-0.8-0.4-1.5-0.6-2.4-0.6c-3.2,0-7,2.1-11.3,6.4c2.2,0,5-0.3,8.4-0.9C339.6,39.5,341.8,38.5,341.8,37.3z"/>
					<path class="st5" d="M360.3,10.4c0,1.6-0.5,2.7-1.6,3.4l-9.6,5.2c0-0.9,0.1-1.6,0.4-2s0.9-0.8,1.8-1.3L360.3,10.4z"/>
					<path class="st5" d="M358.9,38.1c0,2.9-0.6,5.2-1.8,7.1c-1.4,2.2-3.5,3.4-6.3,3.4h-2.3v-7c4.9,0,7.3-0.5,7.3-1.6
						c0-0.2-0.4-0.8-1.2-1.7c-0.8-0.9-1.2-1.6-1.2-2.2c0-0.8,1-3.1,3.1-6.9C358,32.6,358.9,35.6,358.9,38.1z M358.8,54l-2.6,4.2
						l-4.3-3l2.7-4.2L358.8,54z"/>
					<path class="st4" d="M405.3,49c-0.7,5-2,8.6-4,10.9c-2.4,2.7-6,4.1-11,4.1c-2.6,0-4.8-0.6-6.5-1.7c-1.9-1.3-2.9-3.1-2.9-5.5
						c0-2.5,1.4-6.2,4.2-11.2l0.8,0.4c-1.3,2.5-2,4.4-2,5.9c0,2.3,0.5,3.9,1.6,4.6c1.4,1,3.7,1.4,6.9,1.4c3.4,0,6-0.5,7.9-1.6
						c1.4-0.8,2.3-2.2,2.8-4.4c0.2-1.1,0.3-1.8,0.3-2.2c0-0.7-0.4-1.5-1.1-2.5c-1-1.3-1.6-2.1-1.7-2.4c0.6-1.2,1.5-3,2.8-5.4
						c0.5,0.7,1,1.4,1.5,2.1c0.5,0.7,1.3,1,2.4,1V49H405.3L405.3,49z"/>
					<path class="st4" d="M406.7,42.5c3.6,0,5.4-0.9,5.4-2.8c0-0.3,0-0.8-0.1-1.4s-0.1-1-0.2-1.2l0.8-0.1c0.4,1.6,1.1,2.9,2.1,4
						c1.1,1.2,2.5,1.7,4.1,1.7c0.3,0,0.8-0.1,1.4-0.4c0.6-0.3,0.9-0.6,0.9-0.8c0-0.5-0.3-1.2-0.9-2.2c-0.5-0.6-0.9-1.3-1.4-1.9
						c0.4-1.1,0.9-2.7,1.5-4.9c2,1.7,3,4.1,3,7.2c0,2-0.4,3.8-1.3,5.4c-1,2-2.5,2.9-4.4,2.9s-3.5-1.1-4.6-3.4
						c-1.5,3-3.5,4.4-6.2,4.4L406.7,42.5L406.7,42.5z"/>
					<path class="st5" d="M436-4.1c0,1.2-0.4,2.3-1.3,3.2s-1.9,1.4-3.2,1.4c-2.1,0-3.1-1.1-3.1-3.4c0-1.4,0.3-2.6,0.9-3.6
						c0.8-1.2,1.8-1.7,3.2-1.7c1,0,1.9,0.4,2.6,1.3C435.6-6.1,436-5.1,436-4.1z M434.3-3.4c0-0.5-0.4-1-1.3-1.6
						c-0.8-0.6-1.5-0.9-2.1-0.9c-0.5,0-0.9,0.2-1.2,0.6s-0.5,0.9-0.5,1.3c0,1.1,0.9,1.7,2.6,1.7S434.3-2.7,434.3-3.4z"/>
					<path class="st5" d="M438.1,13.7c-0.2,0.8-0.4,1.3-0.7,1.6c-0.3,0.3-0.8,0.5-1.6,0.7l-8,2.3c0.7-1.4,1.7-2.2,3.2-2.6
						c-1.4-1-2.1-1.8-2.1-2.4c0-0.9,0.7-2,2.2-3.3c1.4-1.3,2.7-2,3.6-2c1.1,0,1.7,0.5,1.7,1.6c0,0.4-0.3,1.2-0.8,2.3
						c-1.1-0.7-2-1.1-2.7-1.1c-0.8,0-1.5,0.4-2.1,1.2c2,1.5,3.5,2.2,4.5,2.2C436.3,14.2,437.2,14.1,438.1,13.7z"/>
					<path class="st5" d="M434.9,41.1c0,2.2-0.5,4.4-1.4,6.7h-1.1c0-3.4-0.4-7.1-1.1-11c-1.2-6.3-1.8-10.3-1.8-12.1
						c0-1,0.4-2.1,1.1-3.1c0.3-0.4,1-1.3,2.3-2.6c0,2.3,0.3,6,1,11C434.6,35.1,434.9,38.7,434.9,41.1z"/>
					<path class="st4" d="M455.8,47.6c0,3.4-0.9,6.5-2.6,9.5c-2.1,3.6-4.7,5.3-8,5.3c-2,0-4.5-1-7.6-2.9l0.4-0.8
						c0.9,0.2,1.7,0.3,2.3,0.3c2.6,0,5.5-1.2,8.7-3.6c3.1-2.4,4.7-4.8,4.7-7.2c0-0.9-0.7-2.2-2-3.9c-1-1.2-1.9-2.3-2.9-3.5
						c0.6-2.7,1.1-4.9,1.4-6.4C454,38.2,455.8,42.6,455.8,47.6z"/>
					<path class="st4" d="M526.8,49h-4c-0.4,4.2-2.1,7.7-4.9,10.4c-3,2.8-6.7,4.2-11.1,4.2c-6.2,0-9.3-3.1-9.3-9.4
						c0-2.3,0.4-4.4,1.3-6.2c0.6-1.5,1.7-3.3,3.3-5.5l0.7,0.7c-2,3.1-3,5.5-3,7.3c0,2.2,0.9,3.9,2.7,5c1.6,1,3.5,1.5,5.9,1.5
						c8.4,0,12.6-2.6,12.6-7.9c-2.9,0-4.6-0.1-5.2-0.2c-2.1-0.4-3.1-1.4-3.1-3.1c0-1.1,0.5-2.9,1.5-5.3c1-2.5,1.8-4,2.5-4.5
						c0.5-0.4,1.2-0.7,2-0.7c1.3,0,2.3,1,3,3c0.2,0.6,0.6,2.1,1.1,4.5h4L526.8,49L526.8,49z M523.2,28.5l-2.3,3.7l-3.7-2.4l-1.8,3.1
						l-3.9-2.8l2.3-3.8l3.6,2.7l2.3-3.4L523.2,28.5z M520.4,42.7c-0.5-1.8-1.6-2.6-3.2-2.6c-0.8,0-1.3,0.4-1.3,1.1
						c0,1,1,1.6,2.9,1.6C518.8,42.7,520.4,42.7,520.4,42.7z"/>
					<path class="st4" d="M534,39.7c0,2.6-0.5,4.7-1.6,6.4c-1.3,2-3.1,3-5.7,3h-2.1v-6.2c4.4,0,6.5-0.5,6.5-1.4
						c0-0.2-0.4-0.7-1.1-1.5c-0.7-0.8-1.1-1.5-1.1-2c0-0.7,0.9-2.8,2.8-6.2C533.3,34.8,534,37.4,534,39.7z M536.5,53.9l-2.4,3.8
						l-3.7-2.4l-1.8,3.1l-4-2.8l2.5-3.7l3.5,2.7l2.2-3.4L536.5,53.9z"/>
					<path class="st4" d="M559.5,49h-4.3c-0.5,3.8-1.5,6.9-2.8,9.4c-1.9,3.6-4.5,5.4-7.7,5.4c-2.3,0-5.1-1.1-8.4-3.2l0.4-0.7
						c1.3,0.2,2.3,0.4,2.9,0.4c2.2,0,4.5-0.9,6.9-2.6c1-0.7,2.2-2.1,3.6-4.2c1-1.6,2-3.2,3.1-4.8c-1.8-0.6-3.2-2.1-4.2-4.4l3.5-4.9
						c0.8,1.6,1.7,2.6,2.6,3c0.6,0.2,2,0.4,4.3,0.4L559.5,49L559.5,49z"/>
					<path class="st4" d="M566.8,39.7c0,2.6-0.5,4.7-1.6,6.4c-1.3,2-3.1,3-5.7,3h-2.1v-6.2c4.4,0,6.5-0.5,6.5-1.4
						c0-0.2-0.4-0.7-1.1-1.5c-0.7-0.8-1.1-1.5-1.1-2c0-0.7,0.9-2.8,2.8-6.2C566.1,34.8,566.8,37.4,566.8,39.7z M566.7,53.9l-2.3,3.8
						l-3.8-2.7l2.4-3.8L566.7,53.9z"/>
					<path class="st5" d="M578.3,70.7c0,1.4-0.5,2.3-1.4,2.8l-8.6,4.7c0-0.9,0.1-1.5,0.3-1.8s0.8-0.8,1.6-1.2L578.3,70.7z"/>
					<path class="st5" d="M581.5,58.9c-0.2,0.8-0.4,1.4-0.7,1.7c-0.2,0.3-0.8,0.5-1.6,0.8l-8,2.2c0.5-0.9,0.9-1.5,1.3-1.8
						c0.4-0.3,1.1-0.6,2.1-0.9c-1.4-0.7-2.1-1.5-2.1-2.3c0-0.9,0.7-2,2.1-3.3c1.4-1.3,2.6-1.9,3.7-1.9c1.1,0,1.7,0.5,1.7,1.6
						c0,0.4-0.3,1.1-0.9,2.2c-1.1-0.6-2.1-1-2.8-1s-1.3,0.4-2,1.1c2,1.5,3.5,2.2,4.6,2.2C579.7,59.3,580.6,59.2,581.5,58.9z"/>
					<path class="st5" d="M577.4,41.1c0,2.2-0.5,4.4-1.4,6.7h-1.1c0-3.4-0.4-7.1-1.1-11c-1.2-6.3-1.8-10.3-1.8-12.1
						c0-1,0.4-2.1,1.1-3.1c0.3-0.4,1-1.3,2.3-2.6c0,2.3,0.3,6,1,11C577.1,35.1,577.4,38.7,577.4,41.1z"/>
					<path class="st4" d="M624.2,38.8c0,3.6-1.2,6.4-3.7,8.6s-5.6,3.3-9.4,3.3c-2.7,0-4.9-0.6-6.5-1.9c-1.9-1.4-2.8-3.3-2.8-5.8
						c0-3,1.2-6.8,3.5-11.4l0.8,0.5c-1.1,2.1-1.6,3.9-1.6,5.5c0,2.5,0.7,4.3,2.2,5.2c1.2,0.8,3.2,1.2,6,1.2c2,0,4-0.4,5.9-1.1
						c2.5-1,3.7-2.2,3.7-3.8c0-0.7-0.7-2.1-2-4.3c-1.1-1.9-2.1-3.3-2.8-4.2l2.3-5.6C622.8,28.8,624.2,33.4,624.2,38.8z M614,22.6
						l-2.3,3.7l-3.8-2.6l2.4-3.7L614,22.6z"/>
					<path class="st4" d="M645.7,40.7c0,2.4-0.5,4.2-1.5,5.4s-2.8,2-5.3,2.6c-1.9,0.4-3.9,0.7-6.2,0.7c-0.9,0-2.2-0.4-3.8-1.1
						l1.3-7.1c1.3,0.6,2.2,1,2.7,1c7.1,0,10.7-0.8,10.7-2.5c0-1.4-3.2-3.7-9.7-6.8l2.3-6.8C642.5,29.9,645.7,34.8,645.7,40.7z
						 M638.7,20.1l-2.3,3.8l-3.8-2.7l2.3-3.8L638.7,20.1z"/>
					<path class="st5" d="M660.1-4.9l-0.3,2.8c-0.5-0.3-1.3-0.8-2.3-1.4c-2.3,2.7-4.2,4-5.9,4c-0.4,0-1-0.1-1.8-0.3
						c1.8-1,3.9-2.4,6.3-4.4c-1.2-1-1.8-1.8-1.8-2.6c0-1,0.4-2,1.1-3.1c0.7-1.1,1.6-1.7,2.5-1.7c1.3,0,1.9,0.8,1.9,2.5
						c0,1.2-0.3,2.3-0.9,3.4C659.3-5.5,659.7-5.2,660.1-4.9z M658-7.4c0-0.4-0.2-0.8-0.5-1.2c-0.3-0.4-0.7-0.6-1-0.6
						c-0.4,0-0.6,0.3-0.6,0.8c0,0.4,0.7,1,2,1.9C658-7,658-7.3,658-7.4z"/>
					<path class="st5" d="M659.7,13.7c-0.2,0.8-0.4,1.3-0.7,1.6s-0.8,0.5-1.6,0.7l-8,2.3c0.7-1.4,1.7-2.2,3.2-2.6
						c-1.4-1-2.1-1.8-2.1-2.4c0-0.9,0.7-2,2.2-3.3c1.4-1.3,2.7-2,3.6-2c1.1,0,1.7,0.5,1.7,1.6c0,0.4-0.3,1.2-0.8,2.3
						c-1.1-0.7-2-1.1-2.7-1.1c-0.8,0-1.5,0.4-2.1,1.2c2,1.5,3.5,2.2,4.5,2.2C657.8,14.2,658.7,14.1,659.7,13.7z"/>
					<path class="st5" d="M656.5,41.1c0,2.2-0.5,4.4-1.4,6.7H654c0-3.4-0.4-7.1-1.1-11c-1.2-6.3-1.8-10.3-1.8-12.1
						c0-1,0.4-2.1,1.1-3.1c0.3-0.4,1-1.3,2.3-2.6c0,2.3,0.3,6,1,11C656.1,35.1,656.5,38.7,656.5,41.1z"/>
					<path class="st4" d="M723.6,18.3c0,1.2-0.4,2.3-1.3,3.2c-0.9,0.9-1.9,1.4-3.2,1.4c-2.1,0-3.1-1.1-3.1-3.4
						c0-1.4,0.3-2.6,0.9-3.6c0.8-1.2,1.8-1.7,3.2-1.7c1,0,1.9,0.4,2.6,1.3C723.3,16.4,723.6,17.3,723.6,18.3z M722,19.1
						c0-0.5-0.4-1-1.3-1.6c-0.8-0.6-1.5-0.9-2.1-0.9c-0.5,0-0.9,0.2-1.2,0.6c-0.4,0.4-0.5,0.8-0.5,1.3c0,1.1,0.9,1.7,2.6,1.7
						C721.1,20.2,722,19.8,722,19.1z"/>
					<path class="st4" d="M743.8,49h-4.2c-2.2,0-3.6-1-4.1-2.9c-5.2,3.4-11.6,5.2-19.2,5.2c-4.2,0-7.7-0.7-10.5-2.1
						c-3.5-1.8-5.2-4.5-5.2-8.1c0-2.3,0.9-5.2,2.8-8.9l0.8,0.4c-0.8,1.8-1.1,3.4-1.1,4.9c0,2.7,1.8,4.7,5.4,5.9
						c2.5,0.9,5.5,1.3,8.9,1.3c6.4,0,11.1-0.5,14.2-1.6c1-0.3,1.5-0.5,1.6-0.5c0.7-0.3,1.1-0.7,1.3-1c0.2-0.4,0.2-1.1,0.2-2.1h0.6
						c0.6,2.3,2.4,3.4,5.4,3.4c0.4,0,0.9,0,1.6-0.1c0.7,0,1.2,0,1.6,0L743.8,49L743.8,49z M723.8,57.5l-2.3,3.8l-3.8-2.8l2.4-3.7
						L723.8,57.5z"/>
					<path class="st4" d="M752.4,8.6c0,1.4-0.5,2.4-1.4,3l-8.6,4.6c0-0.8,0.1-1.4,0.4-1.8c0.3-0.4,0.8-0.8,1.6-1.2L752.4,8.6z"/>
					<path class="st4" d="M751,39.7c0,2.6-0.5,4.7-1.6,6.4c-1.3,2-3.1,3-5.7,3h-2.1v-6.2c4.4,0,6.5-0.5,6.5-1.4
						c0-0.2-0.4-0.7-1.1-1.5c-0.7-0.8-1.1-1.5-1.1-2c0-0.7,0.9-2.8,2.8-6.2C750.3,34.8,751,37.4,751,39.7z M750.2,26l-2.1,3.7
						l-3.8-2.7l2.2-3.7L750.2,26z"/>
					<path class="st4" d="M767,19.9c0,1.2-0.4,2.3-1.3,3.2c-0.9,0.9-1.9,1.4-3.2,1.4c-2.1,0-3.1-1.1-3.1-3.4c0-1.4,0.3-2.6,0.9-3.6
						c0.8-1.2,1.8-1.7,3.2-1.7c1,0,1.9,0.4,2.5,1.3C766.6,18,767,18.9,767,19.9z M765.3,20.6c0-0.5-0.4-1-1.3-1.6
						c-0.8-0.6-1.5-0.9-2.1-0.9c-0.5,0-0.9,0.2-1.2,0.6c-0.4,0.4-0.5,0.8-0.5,1.3c0,1.1,0.9,1.7,2.6,1.7
						C764.5,21.8,765.3,21.4,765.3,20.6z"/>
					<path class="st4" d="M771.3,47.6c0,3.4-0.9,6.5-2.6,9.5c-2.1,3.6-4.7,5.3-8,5.3c-2,0-4.5-1-7.6-2.9l0.4-0.8
						c0.9,0.2,1.7,0.3,2.3,0.3c2.6,0,5.5-1.2,8.7-3.6c3.1-2.4,4.7-4.8,4.7-7.2c0-0.9-0.7-2.2-2-3.9c-1-1.2-1.9-2.3-2.9-3.5
						c0.6-2.7,1.1-4.9,1.4-6.4C769.5,38.2,771.3,42.6,771.3,47.6z"/>
					<path class="st5" d="M785.3-7.2c0,1.4-0.5,2.4-1.4,3l-8.6,4.6c0-0.8,0.1-1.4,0.4-1.8s0.8-0.8,1.6-1.2L785.3-7.2z"/>
					<path class="st5" d="M785.2,13.7c-0.2,0.8-0.4,1.3-0.7,1.6s-0.8,0.5-1.6,0.7l-8,2.3c0.7-1.4,1.7-2.2,3.2-2.6
						c-1.4-1-2.1-1.8-2.1-2.4c0-0.9,0.7-2,2.2-3.3c1.4-1.3,2.7-2,3.6-2c1.1,0,1.7,0.5,1.7,1.6c0,0.4-0.3,1.2-0.8,2.3
						c-1.1-0.7-2-1.1-2.7-1.1c-0.8,0-1.5,0.4-2.1,1.2c2,1.5,3.5,2.2,4.5,2.2C783.3,14.2,784.2,14.1,785.2,13.7z"/>
					<path class="st5" d="M781.9,41.1c0,2.2-0.5,4.4-1.4,6.7h-1.1c0-3.4-0.4-7.1-1.1-11c-1.2-6.3-1.8-10.3-1.8-12.1
						c0-1,0.4-2.1,1.1-3.1c0.3-0.4,1-1.3,2.3-2.6c0,2.3,0.3,6,1,11C781.6,35.1,781.9,38.7,781.9,41.1z"/>
				</g>
			</g>
		</g>
	</g>
</g>
<g>
	<path class="st4" d="M59.2,10.1l-0.3,3.8c-0.7-0.4-1.7-1-3-2c-2.9,3.6-5.4,5.4-7.6,5.4c-0.5,0-1.2-0.1-2.3-0.4
		c2.4-1.3,5.1-3.3,8.1-5.9c-1.6-1.3-2.4-2.5-2.4-3.5c0-1.3,0.5-2.7,1.4-4.2s2-2.3,3.3-2.3c1.6,0,2.4,1.1,2.4,3.3
		c0,1.6-0.4,3.1-1.1,4.6C58.3,9.4,58.8,9.8,59.2,10.1z M56.6,6.7c0-0.5-0.2-1-0.6-1.6c-0.4-0.6-0.9-0.9-1.3-0.9
		c-0.5,0-0.8,0.4-0.8,1.1c0,0.5,0.9,1.4,2.6,2.6C56.5,7.3,56.6,6.9,56.6,6.7z"/>
</g>
</svg>
