<?xml version="1.0" encoding="utf-8"?>
<!-- Generator: Adobe Illustrator 22.0.1, SVG Export Plug-In . SVG Version: 6.00 Build 0)  -->
<svg version="1.1" id="Layer_1" xmlns="http://www.w3.org/2000/svg" xmlns:xlink="http://www.w3.org/1999/xlink" x="0px" y="0px"
	 viewBox="0 0 86.2 86.2" style="enable-background:new 0 0 86.2 86.2;" xml:space="preserve">
<style type="text/css">
	.st0{fill:#235958;}
</style>
<g>
	<path class="st0" d="M39.2,22.5l-0.3,3.7c-0.7-0.4-1.7-1-3-2c-2.9,3.6-5.4,5.4-7.6,5.4c-0.5,0-1.2-0.1-2.3-0.4
		c2.4-1.3,5.1-3.3,8.1-5.9c-1.6-1.3-2.4-2.5-2.4-3.5c0-1.3,0.5-2.7,1.4-4.2c0.9-1.5,2-2.3,3.3-2.3c1.6,0,2.4,1.1,2.4,3.3
		c0,1.6-0.4,3.1-1.1,4.6C38.3,21.8,38.8,22.2,39.2,22.5z M36.6,19.1c0-0.5-0.2-1-0.6-1.6c-0.4-0.6-0.9-0.9-1.3-0.9
		c-0.5,0-0.8,0.4-0.8,1.1c0,0.5,0.9,1.4,2.6,2.6C36.6,19.7,36.6,19.2,36.6,19.1z"/>
</g>
<g>
	<path class="st0" d="M53,61.1c0,3.3-0.7,5.7-2,7.3c-1.3,1.6-3.6,2.7-6.9,3.5c-2.4,0.6-5.1,0.9-8,0.9c-1.2,0-2.8-0.5-4.9-1.5
		l1.6-9.7c1.7,0.9,2.9,1.3,3.5,1.3c9.2,0,13.8-1.1,13.8-3.4c0-2-4.2-5-12.5-9.2l3-9.3C48.9,46.3,53,53,53,61.1z M44,33.1l-3,5.1
		l-5-3.7l3-5.1L44,33.1z"/>
</g>
</svg>
