<?xml version="1.0" encoding="utf-8"?>
<!-- Generator: Adobe Illustrator 22.0.1, SVG Export Plug-In . SVG Version: 6.00 Build 0)  -->
<svg version="1.1" id="Layer_1" xmlns="http://www.w3.org/2000/svg" xmlns:xlink="http://www.w3.org/1999/xlink" x="0px" y="0px"
	 viewBox="0 0 86.2 86.2" style="enable-background:new 0 0 86.2 86.2;" xml:space="preserve">
<style type="text/css">
	.st0{fill:#235958;}
</style>
<g>
	<path class="st0" d="M47.6,59c0,1.9-0.6,3.3-1.8,4l-11,6.2c0-1.1,0.2-1.9,0.5-2.4s1-1,2-1.6L47.6,59z"/>
</g>
<g>
	<polygon class="st0" points="54.2,24 49.4,20.3 46.6,25.3 51.5,28.9 	"/>
	<path class="st0" d="M52.4,31.4c-2.4,4.5-3.5,7.3-3.5,8.2c0,0.7,0.5,1.6,1.4,2.6c0.9,1.1,1.4,1.7,1.4,2c0,1.3-1.7,1.9-5.1,1.9h-1.2
		h-2H30.9v8.3h12.4h2H46c3.2,0,5.6-1.3,7.2-4c1.3-2.2,2-5.1,2-8.5C55.2,39.1,54.3,35.5,52.4,31.4z"/>
</g>
</svg>
