<?xml version="1.0" encoding="utf-8"?>
<!-- Generator: Adobe Illustrator 23.0.2, SVG Export Plug-In . SVG Version: 6.00 Build 0)  -->
<svg version="1.1" id="Layer_1" xmlns="http://www.w3.org/2000/svg" xmlns:xlink="http://www.w3.org/1999/xlink" x="0px" y="0px"
	 viewBox="0 0 36.6 28.6" style="enable-background:new 0 0 36.6 28.6;" xml:space="preserve">
<style type="text/css">
	.st0{fill:#FFFFFF;}
</style>
<g>
	<path class="st0" d="M27.7,17.8H8.9c-0.3,0-0.5-0.2-0.5-0.5s0.2-0.5,0.5-0.5h11.5c-0.2-0.2-0.4-0.4-0.5-0.6
		c-0.5-0.8-0.6-1.7-0.6-1.9c0-1.1,0.4-2,1.2-2.6c0.8-0.6,1.9-0.9,3.4-0.9c1.5,0,3.1,0.3,4,0.6c0.3,0.1,0.5,0.4,0.4,0.7
		c-0.1,0.3-0.4,0.4-0.7,0.4c-0.8-0.2-2.3-0.5-3.7-0.5c-1.2,0-2.2,0.2-2.7,0.7c-0.5,0.4-0.8,1-0.8,1.7c0,0.1,0,0.7,0.4,1.3
		c0.3,0.5,1.1,1.1,2.6,1.1h4.4c0.3,0,0.6,0.3,0.6,0.6S28,17.8,27.7,17.8z"/>
</g>
</svg>
