<?xml version="1.0" encoding="utf-8"?>
<!-- Generator: Adobe Illustrator 21.0.0, SVG Export Plug-In . SVG Version: 6.00 Build 0)  -->
<svg version="1.1" id="Layer_1" xmlns="http://www.w3.org/2000/svg" xmlns:xlink="http://www.w3.org/1999/xlink" x="0px" y="0px"
	 viewBox="0 0 88.2 27.9" style="enable-background:new 0 0 88.2 27.9;" xml:space="preserve">
<style type="text/css">
	.st0{fill:#429DA0;}
</style>
<g>
	<path class="st0" d="M26.6,14.5l-0.8,5.6H4.1c-0.2,0-0.7-0.1-1.5-0.4c-0.8-0.3-1.5-0.9-2-1.9C0.2,17.1,0,16.4,0,15.6
		c0-1.3,0.4-2.9,1.2-4.9c0.1-0.3,0.3-0.5,0.7-0.7c0.2,0,0.3,0.1,0.5,0.2c0,0.2-0.2,0.6-0.4,1.3c-0.2,0.5-0.3,0.9-0.3,1.4
		c0,0.5,0.1,0.9,0.3,1.4c0.1,0.3,0.5,0.7,1.1,1.2s1.1,0.8,1.5,0.8h19.7c0,0,0.1-0.1,0.1-0.3c0-0.6-0.2-1.4-0.6-2.5
		c-0.1-0.3-0.3-0.5-0.6-0.7c-1,1.1-1.8,1.7-2.3,1.9c-0.2,0.1-0.8,0.1-1.8,0.1c-0.9,0-1.7-0.2-2.5-0.6c-1-0.5-1.5-1.2-1.5-2
		c0-1.2,0.8-2.5,2.4-4.1c1.6-1.6,3-2.4,4.3-2.4c1.1,0,2.1,0.9,3.1,2.7c0.6,1.2,1.1,2.3,1.4,3.4C26.4,12.6,26.6,13.5,26.6,14.5z
		 M20.3,2.4c-0.4,0.4-1.3,1.2-2.6,2.3C16.5,3.7,15.6,3,15,2.4L17.5,0L20.3,2.4z M22.3,10.9c-1.1-1.4-2-2.2-2.7-2.2
		c-0.6,0-1.2,0.4-1.8,1.3c1.1,0.7,2,1.1,2.6,1.1C20.8,11.2,21.5,11.1,22.3,10.9z"/>
	<path class="st0" d="M45.2,20.2h-3.4c-0.3,0-0.7-0.2-1.1-0.7c-0.2,1.3-1,3-2.4,4.8c-1.7,2.4-3.3,3.6-5,3.6c-0.9,0-2.4-0.4-4.4-1.3
		c-2-0.8-3.2-1.5-3.7-2v-0.3c0.1-0.1,0.2-0.1,0.4-0.1c0.1,0,0.6,0.2,1.6,0.6c1,0.4,1.8,0.6,2.3,0.6c1.3,0,3.2-0.9,5.4-2.7
		c2.3-1.8,3.4-3.2,3.4-4.1c0-0.7-0.8-1.9-2.5-3.7l2.2-3.4c2.1,2.6,4.1,4.2,6,4.9h1.1V20.2z"/>
	<path class="st0" d="M78.5,5.4c0,0.1-0.5,0.6-1.4,1.8c-0.9,1.1-1.4,1.8-1.4,2.2l0.8,6.2c0,0.2-0.1,0.8-0.4,1.9
		c-0.2,0.9-0.4,1.7-0.6,2.3c-0.1,0.2-0.2,0.3-0.5,0.3H64.1c-0.1-0.7-0.3-1.7-0.6-2.9c-0.4-0.1-1.3-0.1-2.9-0.1c-1.3,0-2.2,0-2.6,0.1
		c-0.4,0.1-1.2,0.5-2.3,1.1c-1.3,0.8-2.3,1.3-2.7,1.5c-0.5,0.2-0.8,0.3-1,0.3h-8.3v-3.9h9.1c0.2,0,0.7-0.1,1.3-0.3
		c0.6-0.2,1.5-0.6,2.6-1.2c-0.4-0.2-1-0.4-1.9-0.7c-0.5-0.2-1.6-0.5-3.2-1c-0.1,0-0.3,0-0.7,0c-0.5,0-1,0.1-1.5,0.2
		c-0.3,0.2-0.8,0.4-1.6,0.8v-0.3c0-0.1,0.3-0.5,0.8-1.4c0.2-0.4,0.6-1,1.2-1.6c0.7-0.7,1.3-1.2,1.9-1.3c0.6-0.1,1-0.2,1.4-0.2
		c0.7,0,1.3,0.1,1.8,0.2c1.4,0.6,3.6,1.5,6.6,2.6c2.1,0.6,4.1,1,5.9,1c0,0.1-0.3,1.1-0.9,3h7.3c0.1-0.2,0.2-0.5,0.2-0.8
		c0-0.4-0.1-1.4-0.4-3.1c-0.3-1.2-0.7-3.1-1.2-5.7c0-0.3-0.2-0.6-0.6-0.8l-0.9-0.7c0.5-1,1.4-2.4,2.7-4.3c-0.1,0.9,0.2,1.5,0.9,2
		c0.3,0.2,1.1,0.7,2.5,1.4C78,4.9,78.5,5.3,78.5,5.4z"/>
	<path class="st0" d="M88.2,13c0,2.8-0.7,5.2-2.1,7.2L84.3,5.3c0-0.3,0.4-1,1.3-2.4c0.7-1.1,1.3-1.9,1.7-2.4L88.2,13z"/>
</g>
</svg>
