<?xml version="1.0" encoding="utf-8"?>
<!-- Generator: Adobe Illustrator 22.0.1, SVG Export Plug-In . SVG Version: 6.00 Build 0)  -->
<svg version="1.1" id="Layer_1" xmlns="http://www.w3.org/2000/svg" xmlns:xlink="http://www.w3.org/1999/xlink" x="0px" y="0px"
	 viewBox="0 0 86.2 86.2" style="enable-background:new 0 0 86.2 86.2;" xml:space="preserve">
<style type="text/css">
	.st0{fill:#235958;}
</style>
<g>
	<g>
		<g>
			<path class="st0" d="M44.3,17.4c0,1.9-0.6,3.3-1.8,4.1l-11,6.2c0-1.1,0.2-2,0.5-2.4c0.3-0.5,1-1,2-1.6L44.3,17.4z"/>
		</g>
	</g>
</g>
<g>
	<polygon class="st0" points="53.5,35.6 58.2,39 61.3,34 56.5,30.3 53.7,34.8 49.2,31.1 46.1,36.2 51.1,39.9 	"/>
	<polygon class="st0" points="55.8,26.3 51,22.6 48,27.7 52.9,31.4 	"/>
	<path class="st0" d="M63.4,37.7c-0.8,2.9-1.5,5.1-1.9,6.5c0.6,0.9,1.3,1.7,1.9,2.6c0.8,1.2,1.2,2.2,1.2,2.9c0,0.4-0.4,0.8-1.1,1.1
		c-0.8,0.4-1.3,0.6-1.8,0.6c-2,0-3.8-0.8-5.2-2.3c-1.3-1.4-2.3-3.2-2.7-5.3l-1,0.1c0.1,0.3,0.1,0.8,0.2,1.7c0,0.8,0,1.4,0,1.8
		c0,2.5-2.2,3.7-6.7,3.8c-1.9,0-3.3-0.2-4.1-0.6c-1.2-0.6-2.1-1.7-2.7-3.5h-0.4c-0.1,2.1-0.3,3.3-0.6,3.5c-0.8,0.6-3.2,1-7.2,1H19
		V60h12.4h2.1H34c2.1,0,3.8-1.6,5.2-4.7c1.1,3.1,3.4,4.7,6.8,4.7h0.6l0,0c3.2-0.2,5.6-2.2,7.4-5.9c1.5,3.1,3.4,4.6,5.9,4.6
		s4.4-1.3,5.6-3.9c1.1-2.1,1.6-4.5,1.6-7.3C67.2,43.3,66,40.1,63.4,37.7z"/>
</g>
</svg>
