<?xml version="1.0" encoding="utf-8"?>
<!-- Generator: Adobe Illustrator 23.0.2, SVG Export Plug-In . SVG Version: 6.00 Build 0)  -->
<svg version="1.1" id="Layer_1" xmlns="http://www.w3.org/2000/svg" xmlns:xlink="http://www.w3.org/1999/xlink" x="0px" y="0px"
	 viewBox="0 0 36.6 28.6" style="enable-background:new 0 0 36.6 28.6;" xml:space="preserve">
<g>
	<path d="M29.2,23.5l-6.3,0c0,0,0.1-0.1,0.1-0.1c0.6-0.8,0.8-1.8,0.6-3c-0.1-0.9-1.3-2.4-3.1-2.8c-2.5-0.6-5.4,1-8,4.6V4.6
		c0-0.3-0.2-0.5-0.5-0.5s-0.5,0.2-0.5,0.5v18.9l-1,0l-3,0c-0.3,0-0.5,0.2-0.5,0.5c0,0.3,0.2,0.5,0.5,0.5l3.1,0l1.4,0c0,0,0,0,0,0
		c0,0,0,0,0,0l9,0c0,0,0.1,0,0.1,0c0.1,0,0.4-0.1,0.7-0.2c0,0,0.4,0.3,0.6,0.3s6.8,0,6.8,0c0.3,0,0.5-0.2,0.5-0.5
		C29.7,23.7,29.5,23.5,29.2,23.5z M19.5,18.5c0.3,0,0.5,0,0.8,0.1c1.5,0.3,2.2,1.5,2.3,1.9c0.1,0.9,0,1.7-0.4,2.2
		c-0.4,0.6-1.1,0.8-1.3,0.8l-8.1,0C15.1,20.2,17.4,18.5,19.5,18.5z"/>
</g>
</svg>
