<?xml version="1.0" encoding="utf-8"?>
<!-- Generator: Adobe Illustrator 22.0.1, SVG Export Plug-In . SVG Version: 6.00 Build 0)  -->
<svg version="1.1" id="Layer_1" xmlns="http://www.w3.org/2000/svg" xmlns:xlink="http://www.w3.org/1999/xlink" x="0px" y="0px"
	 viewBox="0 0 75.5 75" style="enable-background:new 0 0 75.5 75;" xml:space="preserve">
<style type="text/css">
	.st0{display:none;enable-background:new    ;}
	.st1{display:inline;fill:#EF5316;}
	.st2{fill:none;}
	.st3{clip-path:url(#SVGID_2_);}
	.st4{fill:#235958;}
	.st5{fill:#EF5316;}
</style>
<text transform="matrix(1.0494 0 0 1 323.0229 63.2637)" style="display:none;fill:#EF5316;enable-background:new    ; font-family:'AdobeArabic-Regular'; font-size:60px;">أأ</text>
<rect x="95" y="-3.6" class="st2" width="76.7" height="86"/>
<rect x="-12" y="1.1" class="st2" width="104" height="94"/>
<g>
	<g>
		<g>
			<defs>
				<rect id="SVGID_1_" x="-12.3" y="-4.6" width="98" height="93"/>
			</defs>
			<clipPath id="SVGID_2_">
				<use xlink:href="#SVGID_1_"  style="overflow:visible;"/>
			</clipPath>
			<g class="st3">
				<path class="st4" d="M-1290.1,59.2h-4.8c-0.6,4.2-1.7,7.7-3.2,10.5c-2.2,4-5,6-8.6,6c-2.5,0-5.7-1.2-9.4-3.6l0.5-0.8
					c1.5,0.3,2.5,0.4,3.2,0.4c2.5,0,5-1,7.7-2.9c1.1-0.8,2.5-2.4,4-4.7c1.1-1.8,2.3-3.6,3.4-5.4c-2.1-0.7-3.6-2.3-4.6-4.9l3.9-5.5
					c0.9,1.8,1.9,3,3,3.4c0.7,0.3,2.3,0.4,4.8,0.4L-1290.1,59.2L-1290.1,59.2z"/>
				<path class="st4" d="M-1263.7,59.2h-4.7c-1.9,0-3.4-0.6-4.3-1.7c-0.3,2.6-1.5,4-3.7,4c-2,0-4.7-1.9-8.2-5.6
					c-0.3,0.5-1.2,1.4-2.5,2.5c-0.8,0.6-2.5,0.9-5.2,0.9v-7h2.4c1.7,0,3.1-0.8,4.3-2.3c0.9-1.4,1.8-2.9,2.7-4.3
					c1.1-1.5,2.5-2.3,4.1-2.3c0.8,0,1.8,0.7,3,2.2s2.2,2.9,3.2,4.4c1.4,1.6,2.8,2.3,4.3,2.3h4.7L-1263.7,59.2L-1263.7,59.2z
					 M-1276.8,52.3c0-1-0.2-2.1-0.5-3.4c-0.4-1.6-1-2.4-1.7-2.4c-0.6,0-1.2,0.6-1.8,1.7c-0.4,0.8-0.8,1.7-1.2,2.5
					c2.1,2.1,3.6,3.1,4.4,3.1C-1277.1,53.7-1276.8,53.2-1276.8,52.3z"/>
				<path class="st5" d="M-1254.8,18.5c0,1.3-0.5,2.5-1.4,3.6c-1,1-2.2,1.5-3.6,1.5c-2.3,0-3.5-1.3-3.5-3.8c0-1.6,0.3-2.9,1-4
					c0.8-1.3,2-1.9,3.6-1.9c1.1,0,2.1,0.5,2.9,1.5C-1255.2,16.4-1254.8,17.4-1254.8,18.5z M-1256.6,19.3c0-0.5-0.5-1.1-1.4-1.8
					c-0.9-0.6-1.7-1-2.3-1c-0.5,0-1,0.2-1.4,0.7s-0.6,1-0.6,1.4c0,1.3,1,1.9,2.9,1.9C-1257.6,20.6-1256.6,20.2-1256.6,19.3z"/>
				<path class="st5" d="M-1249.8,59.2h-4.6c-2.2,0-3.7-1.3-4.7-3.8c-1.3,2.5-2.8,3.8-4.6,3.8h-2.3v-7c2.7,0,3.8,0,3.2,0
					c1.5,0,2.5-0.3,3-0.8c0.1-0.1,0.2-1.2,0.2-3.2l0.4,0.1c0.3,2,1.5,3.2,3.7,3.6c0.7,0.2,2.6,0.3,5.8,0.3L-1249.8,59.2
					L-1249.8,59.2z M-1252.6,41.5l-2.5,4.2l-4.1-2.8l-2,3.6l-4.4-3.2l2.6-4.2l3.9,3l2.4-3.8L-1252.6,41.5z M-1257.2,35l-2.5,4.3
					l-4.3-3.1l2.7-4.2L-1257.2,35z"/>
				<path class="st4" d="M-1233.2,50.9c0,1.5-0.4,2.8-1.1,4c-0.8,1.4-1.9,2.1-3.3,2.1c-1.5,0-4-0.8-7.6-2.5c-0.3,0.9-0.9,1.8-1.9,3
					c-1,1.3-1.9,1.9-2.7,1.9h-2.3v-7c2.1,0,3.5-0.1,4.2-0.4c1-0.4,1.9-1.4,2.6-3s1.3-3.2,2-4.9c1.2-2.1,2.6-3.2,4.2-3.2
					c1.8,0,3.3,1.3,4.5,4C-1233.7,46.8-1233.2,48.9-1233.2,50.9z M-1237.1,49.5c0-0.8-0.4-1.5-1.1-2.1s-1.5-0.9-2.4-0.9
					c-1,0-1.9,0.6-2.5,1.9c2.4,1.3,4.1,2,5,2C-1237.5,50.5-1237.1,50.1-1237.1,49.5z"/>
				<path class="st4" d="M-1189.8,57.6c0,3.8-1,7.3-2.9,10.6c-2.3,4-5.3,6-8.9,6c-2.2,0-5-1.1-8.4-3.3l0.4-0.9
					c1,0.2,1.9,0.3,2.5,0.3c3,0,6.2-1.4,9.7-4.1c3.5-2.7,5.2-5.4,5.2-8.1c0-1-0.7-2.4-2.2-4.4c-1.1-1.3-2.2-2.6-3.2-3.9
					c0.7-3,1.2-5.4,1.6-7.2C-1191.9,47.1-1189.8,52-1189.8,57.6z"/>
				<path class="st4" d="M-1171.2,59.2h-4.7c-2.2,0-3.8-0.9-4.9-2.7c-0.8-1.4-1.4-4.1-1.5-8.1c0-1.7-0.4-4.7-0.9-9.1
					c-0.6-4-0.8-7-0.8-9.1c0-0.6,0-1.1,0.1-1.4c0-0.3,1.2-1.4,3.5-3.2c0,0.2,0.3,3.8,0.9,10.7c0.6,6.3,0.8,10.1,0.8,11.4
					c0,1.5,0.3,2.6,0.8,3.4c0.5,0.7,1.6,1.1,3.1,1.1c-2.4,0-1.2-0.1,3.6-0.1V59.2z"/>
				<path class="st4" d="M-1144.9,59.2h-4.7c-1.9,0-3.4-0.6-4.3-1.7c-0.3,2.6-1.5,4-3.7,4c-2,0-4.7-1.9-8.2-5.6
					c-0.3,0.5-1.2,1.4-2.5,2.5c-0.8,0.6-2.5,0.9-5.2,0.9v-7h2.4c1.7,0,3.1-0.8,4.3-2.3c0.9-1.4,1.8-2.9,2.7-4.3
					c1.1-1.5,2.5-2.3,4.1-2.3c0.8,0,1.8,0.7,3,2.2s2.2,2.9,3.2,4.4c1.4,1.6,2.8,2.3,4.3,2.3h4.7L-1144.9,59.2L-1144.9,59.2z
					 M-1158,52.3c0-1-0.2-2.1-0.5-3.4c-0.4-1.6-1-2.4-1.7-2.4c-0.6,0-1.2,0.6-1.8,1.7c-0.4,0.8-0.8,1.7-1.2,2.5
					c2.1,2.1,3.6,3.1,4.4,3.1C-1158.3,53.7-1158,53.2-1158,52.3z"/>
				<path class="st5" d="M-1135.3,81c0,1.5-0.5,2.6-1.6,3.2l-9.6,5.3c0-1,0.1-1.7,0.4-2c0.3-0.4,0.9-0.8,1.8-1.4L-1135.3,81z"/>
				<path class="st5" d="M-1136.8,48.7c0,2.9-0.6,5.2-1.8,7.1c-1.4,2.2-3.5,3.4-6.3,3.4h-2.3v-7c4.9,0,7.3-0.5,7.3-1.6
					c0-0.2-0.4-0.8-1.2-1.7c-0.8-0.9-1.2-1.6-1.2-2.2c0-0.8,1-3.1,3.1-6.9C-1137.6,43.2-1136.8,46.2-1136.8,48.7z M-1133.8,34.5
					l-2.7,4.1l-4.1-2.7l-2,3.5l-4.4-3.1l2.7-4.2l3.9,2.9l2.5-3.8L-1133.8,34.5z M-1138.6,28l-2.5,4.2l-4.3-3.1l2.6-4.2L-1138.6,28z"
					/>
				<path class="st4" d="M-1085.2,47.7c0,4-1.4,7.2-4.2,9.6s-6.3,3.7-10.5,3.7c-3,0-5.4-0.7-7.3-2.1c-2.1-1.5-3.2-3.7-3.2-6.4
					c0-3.4,1.3-7.6,3.9-12.7l0.9,0.6c-1.2,2.3-1.8,4.4-1.8,6.1c0,2.8,0.8,4.8,2.5,5.8c1.3,0.9,3.6,1.3,6.8,1.3
					c2.3,0,4.4-0.4,6.5-1.2c2.8-1.1,4.2-2.5,4.2-4.3c0-0.8-0.8-2.4-2.3-4.8c-1.3-2.1-2.3-3.7-3.1-4.7l2.6-6.2
					C-1086.8,36.6-1085.2,41.7-1085.2,47.7z M-1096.7,29.6l-2.6,4.1l-4.3-3l2.7-4.2L-1096.7,29.6z"/>
				<path class="st4" d="M-1066.3,59.2h-4.7c-2.2,0-3.8-0.9-4.9-2.7c-0.8-1.4-1.4-4.1-1.5-8.1c0-1.7-0.4-4.7-0.9-9.1
					c-0.6-4-0.8-7-0.8-9.1c0-0.6,0-1.1,0.1-1.4c0-0.3,1.2-1.4,3.5-3.2c0,0.2,0.3,3.8,0.9,10.7c0.6,6.3,0.8,10.1,0.8,11.4
					c0,1.5,0.3,2.6,0.8,3.4c0.5,0.7,1.6,1.1,3.1,1.1c-2.4,0-1.2-0.1,3.6-0.1V59.2L-1066.3,59.2z"/>
				<path class="st4" d="M-1052.5,59.2h-4.6c-2.2,0-3.7-1.3-4.7-3.8c-1.3,2.5-2.8,3.8-4.6,3.8h-2.3v-7c2.7,0,3.8,0,3.2,0
					c1.5,0,2.5-0.3,3-0.8c0.1-0.1,0.2-1.2,0.2-3.2l0.4,0.1c0.3,2,1.5,3.2,3.7,3.7c0.7,0.1,2.6,0.2,5.8,0.2L-1052.5,59.2
					L-1052.5,59.2z M-1057.7,64.6l-2.6,4.2l-4.3-3l2.7-4.2L-1057.7,64.6z"/>
				<path class="st4" d="M-1032.3,59.2h-4.7c-0.9,0-2.1-0.7-3.7-2.1c-0.1,0-1.2-1.1-3.3-3.3c-3.8,3.6-6.7,5.4-8.4,5.4h-2.3v-7
					c2.2,0,3.5,0,3.9-0.1c0.9-0.2,2.1-0.7,3.4-1.6c-1.5-2.2-3.5-3.3-5.8-3.3c0.2-2.7,1-4.7,2.5-5.8c1.4-1,3.5-1.5,6.5-1.5
					c2.2,0,4,0.5,5.4,1.5c1.6,1.2,2.5,2.8,2.5,4.8c0,2.1-1.3,3.8-3.9,5c1.2,0.6,2.5,0.9,3.7,0.9c-0.6,0,0.8,0,4.2,0L-1032.3,59.2
					L-1032.3,59.2z"/>
				<path class="st5" d="M-1022.7,12.4l-0.3,3.1c-0.6-0.3-1.4-0.8-2.6-1.6c-2.5,3-4.7,4.5-6.5,4.5c-0.4,0-1.1-0.1-2-0.3
					c2.1-1.1,4.4-2.7,7-4.9c-1.4-1.1-2-2-2-2.9c0-1.1,0.4-2.2,1.2-3.5c0.8-1.3,1.7-1.9,2.8-1.9c1.4,0,2.1,0.9,2.1,2.8
					c0,1.3-0.3,2.5-1,3.8C-1023.5,11.7-1023,12.1-1022.7,12.4z M-1024.9,9.5c0-0.4-0.2-0.8-0.5-1.3c-0.4-0.5-0.7-0.7-1.2-0.7
					s-0.7,0.3-0.7,0.9c0,0.4,0.8,1.1,2.3,2.1C-1025,10-1024.9,9.7-1024.9,9.5z"/>
				<path class="st5" d="M-1024.2,48.7c0,2.9-0.6,5.2-1.8,7.1c-1.4,2.2-3.5,3.4-6.3,3.4h-2.3v-7c4.9,0,7.3-0.5,7.3-1.6
					c0-0.2-0.4-0.8-1.2-1.7c-0.8-0.9-1.2-1.6-1.2-2.2c0-0.8,1-3.1,3.1-6.9C-1025.1,43.2-1024.2,46.2-1024.2,48.7z M-1021.2,34.5
					l-2.7,4.1l-4.1-2.7l-2,3.5l-4.4-3.1l2.7-4.2l3.9,2.9l2.5-3.8L-1021.2,34.5z M-1026.1,28l-2.5,4.2l-4.3-3.1l2.6-4.2L-1026.1,28z"
					/>
				<path class="st4" d="M-938.1,59.2h-4.7c-2.5,0-4-1.1-4.6-3.2c-5.8,3.8-13,5.8-21.5,5.8c-4.7,0-8.6-0.8-11.7-2.3
					c-3.9-2-5.8-5-5.8-9.1c0-2.5,1-5.9,3.1-9.9l0.9,0.4c-0.8,2-1.3,3.8-1.3,5.5c0,3,2,5.3,6,6.6c2.8,1,6.1,1.5,10,1.5
					c7.1,0,12.4-0.6,15.8-1.8c1.1-0.4,1.7-0.6,1.8-0.6c0.8-0.4,1.2-0.7,1.4-1.2c0.2-0.4,0.3-1.2,0.2-2.4h0.7c0.7,2.5,2.7,3.8,6,3.8
					c0.4,0,1,0,1.8-0.1c0.8,0,1.4,0,1.8,0L-938.1,59.2L-938.1,59.2z M-960.5,68.7l-2.5,4.2l-4.3-3.1l2.7-4.1L-960.5,68.7z"/>
				<path class="st4" d="M-921.5,59.2h-4.6c-3.1,0-5.2-2.5-6.2-7.5c-1.5,5-3.4,7.5-5.8,7.5h-2.3v-7h2.3c3,0,4.5-2.7,4.5-8
					c0-2.2-0.2-5.5-0.6-9.9c-0.4-4.4-0.6-7.7-0.6-9.9c0-0.1,1.1-1,3.4-2.9c0.5,3.1,0.7,5.7,0.7,7.9c0,4.7,0.2,8.9,0.6,12.6
					c0.8,6.8,2.1,10.2,3.9,10.2h4.6L-921.5,59.2L-921.5,59.2z"/>
				<path class="st4" d="M-901.3,59.2h-4.7c-0.9,0-2.1-0.7-3.7-2.1c-0.1,0-1.2-1.1-3.3-3.3c-3.8,3.6-6.7,5.4-8.4,5.4h-2.3v-7
					c2.2,0,3.5,0,3.9-0.1c0.9-0.2,2.1-0.7,3.4-1.6c-1.5-2.2-3.5-3.3-5.8-3.3c0.2-2.7,1-4.7,2.5-5.8c1.4-1,3.5-1.5,6.5-1.5
					c2.2,0,4,0.5,5.4,1.5c1.6,1.2,2.5,2.8,2.5,4.8c0,2.1-1.3,3.8-3.9,5c1.2,0.6,2.5,0.9,3.7,0.9c-0.6,0,0.8,0,4.2,0L-901.3,59.2
					L-901.3,59.2z"/>
				<path class="st5" d="M-891.8,9.8c0,1.6-0.5,2.7-1.6,3.4l-9.6,5.2c0-0.9,0.1-1.6,0.4-2c0.3-0.4,0.9-0.8,1.8-1.3L-891.8,9.8z"/>
				<path class="st5" d="M-893.3,48.7c0,2.9-0.6,5.2-1.8,7.1c-1.4,2.2-3.5,3.4-6.3,3.4h-2.3v-7c4.9,0,7.3-0.5,7.3-1.6
					c0-0.2-0.4-0.8-1.2-1.7s-1.2-1.6-1.2-2.2c0-0.8,1-3.1,3.1-6.9C-894.1,43.2-893.3,46.2-893.3,48.7z M-890.3,34.5l-2.7,4.1
					l-4.1-2.7l-2,3.5l-4.4-3.1l2.7-4.2l3.9,2.9l2.5-3.8L-890.3,34.5z M-895.1,28l-2.5,4.2l-4.3-3.1l2.6-4.2L-895.1,28z"/>
				<path class="st4" d="M-843.1,59.2h-4.8c-0.6,4.2-1.7,7.7-3.2,10.5c-2.2,4-5,6-8.6,6c-2.5,0-5.7-1.2-9.4-3.6l0.5-0.8
					c1.5,0.3,2.5,0.4,3.2,0.4c2.5,0,5-1,7.7-2.9c1.1-0.8,2.5-2.4,4-4.7c1.1-1.8,2.3-3.6,3.4-5.4c-2.1-0.7-3.6-2.3-4.6-4.9l3.9-5.5
					c0.9,1.8,1.9,3,3,3.4c0.7,0.3,2.3,0.4,4.8,0.4L-843.1,59.2L-843.1,59.2z"/>
				<path class="st4" d="M-806.5,59.2h-7.7c-6,0-8.9-1.7-8.9-5c0-1.1,0.4-2.8,1.3-5.1c-3,0.4-5.5,1.2-7.5,2.1
					c-1.2,0.6-3.3,2-6.3,4.2c-1,0.7-2.5,1.7-4.5,3c-1,0.5-2.7,0.7-5.2,0.7v-7c3.1,0,5.6-0.3,7.5-0.8c1.6-0.4,4-1.4,7-2.9
					c-2.7-1.3-4.8-1.9-6.3-1.9c-0.9,0-1.7,0.4-2.2,1.2h-4.4c0.7-2.6,1.4-4.4,2.1-5.6c1.2-1.7,3-2.6,5.2-2.6c1.4,0,3.5,0.5,6.2,1.5
					c4.4,1.6,8.2,2.4,11.6,2.4c0.6,0,1.4,0,2.5-0.1s1.9-0.1,2.5-0.1l-0.8,5.4c-2.2,0.2-3.8,0.3-4.9,0.5c0.7,1.3,1.5,2.2,2.5,2.6
					c0.8,0.3,2.1,0.5,3.8,0.5h6.6L-806.5,59.2L-806.5,59.2z M-825,61.9l-2.5,4.2l-4.3-3.2l2.7-4.2L-825,61.9z"/>
				<path class="st5" d="M-797.6,23.3c0,1.3-0.5,2.5-1.4,3.6c-1,1-2.2,1.5-3.6,1.5c-2.3,0-3.5-1.3-3.5-3.8c0-1.6,0.3-2.9,1-4
					c0.8-1.3,2-1.9,3.6-1.9c1.1,0,2.1,0.5,2.9,1.5C-798,21.2-797.6,22.2-797.6,23.3z M-799.5,24.2c0-0.5-0.5-1.1-1.4-1.8
					c-0.9-0.6-1.7-1-2.3-1c-0.5,0-1,0.2-1.4,0.7s-0.6,1-0.6,1.4c0,1.3,1,1.9,2.9,1.9C-800.4,25.4-799.5,25-799.5,24.2z"/>
				<path class="st5" d="M-792.6,59.2h-4.6c-2.2,0-3.7-1.3-4.7-3.8c-1.3,2.5-2.8,3.8-4.6,3.8h-2.3v-7c2.7,0,3.8,0,3.2,0
					c1.5,0,2.5-0.3,3-0.8c0.1-0.1,0.2-1.2,0.2-3.2l0.4,0.1c0.3,2,1.5,3.2,3.7,3.6c0.7,0.2,2.6,0.3,5.8,0.3v7H-792.6z M-795.5,41.5
					l-2.5,4.2l-4.1-2.8l-2,3.6l-4.4-3.2l2.6-4.2l3.9,3l2.4-3.8L-795.5,41.5z"/>
				<path class="st4" d="M-776,50.9c0,1.5-0.4,2.8-1.1,4c-0.8,1.4-1.9,2.1-3.3,2.1c-1.5,0-4-0.8-7.6-2.5c-0.3,0.9-0.9,1.8-1.9,3
					c-1,1.3-1.9,1.9-2.7,1.9h-2.3v-7c2.1,0,3.5-0.1,4.2-0.4c1-0.4,1.9-1.4,2.6-3s1.3-3.2,2-4.9c1.2-2.1,2.6-3.2,4.2-3.2
					c1.8,0,3.3,1.3,4.5,4C-776.5,46.8-776,48.9-776,50.9z M-780,49.5c0-0.8-0.4-1.5-1.1-2.1c-0.7-0.6-1.5-0.9-2.4-0.9
					c-1,0-1.9,0.6-2.5,1.9c2.4,1.3,4.1,2,5,2C-780.3,50.5-780,50.1-780,49.5z"/>
				<path class="st4" d="M-747.2,49.8h-4.4c0.7-2.6,1.4-4.5,2.1-5.6c1.2-1.8,3-2.7,5.2-2.7c1.7,0,3.9,0.2,6.6,0.7
					c3.5,0.6,5.7,0.9,6.6,1c1.5,0,3.7,0.1,6.5,0.3l-1.1,5.4c-2.6,0-5.1,0.2-7.3,0.6c-4.1,0.7-7.7,2.3-10.7,4.8
					c-3.4,2.8-5.1,6.1-5.1,9.9c0,4.5,2.8,7.9,8.3,10.1c4,1.6,8.8,2.3,14.4,2.3c1.5,0,4.9-0.2,10.4-0.6l0.1,0.8l-13.9,6.4h-1.7
					c-6.1,0-10.9-1.1-14.4-3.2c-4.3-2.6-6.5-6.6-6.5-12.1c0-7.5,4-13.7,11.9-18.6c-2.5-0.5-4.2-0.8-5-0.8c-0.7,0-1.2,0.1-1.4,0.2
					C-746.7,48.8-747,49.2-747.2,49.8z"/>
				<path class="st4" d="M-698.9,59.2h-4.7c-2.2,0-3.8-0.9-4.9-2.7c-0.8-1.4-1.4-4.1-1.5-8.1c0-1.7-0.4-4.7-0.9-9.1
					c-0.6-4-0.8-7-0.8-9.1c0-0.6,0-1.1,0.1-1.4c0-0.3,1.2-1.4,3.5-3.2c0,0.2,0.3,3.8,0.9,10.7c0.6,6.3,0.8,10.1,0.8,11.4
					c0,1.5,0.3,2.6,0.8,3.4c0.5,0.7,1.6,1.1,3.1,1.1c-2.4,0-1.2-0.1,3.6-0.1L-698.9,59.2L-698.9,59.2z"/>
				<path class="st4" d="M-688.5,59.2c-3,0-4.9-1.3-5.9-3.9c-1.2,2.6-2.7,3.9-4.6,3.9h-2.3v-7c3.5,0,5.6-0.3,6.3-0.8
					c0.3-0.2,0.5-1.2,0.6-3h0.4c0.5,1.4,1.3,2.4,2.3,2.9c0.8,0.4,2.1,0.5,3.9,0.5v7.3C-687.9,59.2-688.5,59.2-688.5,59.2z"/>
				<path class="st4" d="M-688.5,51.9h2.3c1.9,0,3.1-0.4,3.4-1.1c0.1-0.2,0.3-1.3,0.5-3.5l0.8,0.1c0,0.9,0.9,2,2.6,3.2
					c0.6,0.4,1.7,0.6,3.4,0.6c1.3,0,2.2-0.4,2.7-1.3c0.3-0.5,0.4-1.5,0.5-3h0.8c0.4,1.7,1.2,3.1,2.5,4.2c0.8,0.7,2.1,1.1,3.8,1.2
					c-1.5,0-0.1-0.1,4.2-0.1v7h-4.6c-1.7,0-3.1-0.7-4.2-2.1c-0.7-0.9-1.3-2.3-2-4.4c-1.3,3.8-3.1,5.6-5.3,5.6
					c-1.9,0-3.3-1.2-4.2-3.7c-1.3,3-3.7,4.5-7.2,4.5V51.9L-688.5,51.9z"/>
				<path class="st4" d="M-634.7,59.2h-4.7c-1.9,0-3.4-0.6-4.3-1.7c-0.3,2.6-1.5,4-3.7,4c-2,0-4.7-1.9-8.2-5.6
					c-0.3,0.5-1.2,1.4-2.5,2.5c-0.8,0.6-2.5,0.9-5.2,0.9v-7h2.4c1.7,0,3.1-0.8,4.3-2.3c0.9-1.4,1.8-2.9,2.7-4.3
					c1.1-1.5,2.5-2.3,4.1-2.3c0.8,0,1.8,0.7,3,2.2s2.2,2.9,3.2,4.4c1.4,1.6,2.8,2.3,4.3,2.3h4.7L-634.7,59.2L-634.7,59.2z
					 M-647.8,52.3c0-1-0.2-2.1-0.5-3.4c-0.4-1.6-1-2.4-1.7-2.4c-0.6,0-1.2,0.6-1.8,1.7c-0.4,0.8-0.8,1.7-1.2,2.5
					c2.1,2.1,3.6,3.1,4.4,3.1C-648.1,53.7-647.8,53.2-647.8,52.3z"/>
				<path class="st4" d="M-637,59.2v-7h14.1v7H-637z"/>
				<path class="st5" d="M-614.3,81c0,1.5-0.5,2.6-1.6,3.2l-9.6,5.3c0-1,0.1-1.7,0.4-2c0.3-0.4,0.9-0.8,1.8-1.4L-614.3,81z"/>
				<path class="st5" d="M-615.7,48.7c0,2.9-0.6,5.2-1.8,7.1c-1.4,2.2-3.5,3.4-6.3,3.4h-2.3v-7c4.9,0,7.3-0.5,7.3-1.6
					c0-0.2-0.4-0.8-1.2-1.7s-1.2-1.6-1.2-2.2c0-0.8,1-3.1,3.1-6.9C-616.6,43.2-615.7,46.2-615.7,48.7z M-612.7,34.5l-2.7,4.1
					l-4.1-2.7l-2,3.5l-4.4-3.1l2.7-4.2l3.9,2.9l2.5-3.8L-612.7,34.5z"/>
				<path class="st4" d="M-586,49.8h-4.4c0.7-2.6,1.4-4.5,2.1-5.6c1.2-1.8,3-2.7,5.2-2.7c1.7,0,3.9,0.2,6.6,0.7
					c3.5,0.6,5.7,0.9,6.6,1c1.5,0,3.7,0.1,6.5,0.3l-1.1,5.4c-2.6,0-5.1,0.2-7.3,0.6c-4.1,0.7-7.7,2.3-10.7,4.8
					c-3.4,2.8-5.1,6.1-5.1,9.9c0,4.5,2.8,7.9,8.3,10.1c4,1.6,8.8,2.3,14.4,2.3c1.5,0,4.9-0.2,10.4-0.6l0.1,0.8l-13.9,6.4h-1.7
					c-6.1,0-10.9-1.1-14.4-3.2c-4.3-2.6-6.5-6.6-6.5-12.1c0-7.5,4-13.7,11.9-18.6c-2.5-0.5-4.2-0.8-5-0.8c-0.7,0-1.2,0.1-1.4,0.2
					C-585.4,48.8-585.7,49.2-586,49.8z"/>
				<path class="st4" d="M-537.6,59.2h-4.7c-2.2,0-3.8-0.9-4.9-2.7c-0.8-1.4-1.4-4.1-1.5-8.1c0-1.7-0.4-4.7-0.9-9.1
					c-0.6-4-0.8-7-0.8-9.1c0-0.6,0-1.1,0.1-1.4c0-0.3,1.2-1.4,3.5-3.2c0,0.2,0.3,3.8,0.9,10.7c0.6,6.3,0.8,10.1,0.8,11.4
					c0,1.5,0.3,2.6,0.8,3.4c0.5,0.7,1.6,1.1,3.1,1.1c-2.4,0-1.2-0.1,3.6-0.1L-537.6,59.2L-537.6,59.2z"/>
				<path class="st4" d="M-517.5,59.2h-4.7c-3.5,0-6.1-0.8-7.9-2.5c-3.1,1.7-5.6,2.5-7.6,2.5h-2.3v-7c2.3,0,3.8-0.3,4.8-0.8
					c-0.5-0.5-0.8-1-0.8-1.6c0-2.1,0.7-4.4,2.2-6.9c1.4-2.4,3-4.2,4.8-5.6c1.2-0.9,2.2-1.3,3-1.3c1.5,0,2.6,1.1,3.3,3.4
					c0.5,1.6,0.8,3.3,0.8,5.2c0,2.6-0.8,4.9-2.5,6.8c0.8,0.6,2,1,3.4,1c-2.2,0-1-0.1,3.6-0.1L-517.5,59.2L-517.5,59.2z M-524.4,46.6
					c0-1-0.4-1.9-1.2-2.6c-0.8-0.7-1.8-1-2.9-1c-0.9,0-1.8,0.2-2.6,0.7c-1,0.5-1.5,1.2-1.5,2c0,1,1.2,2.3,3.5,4
					C-526,48.9-524.4,47.9-524.4,46.6z M-523.3,28l-2.6,4.2l-4.3-3l2.7-4.2L-523.3,28z"/>
				<path class="st5" d="M-507.9,17.1l-0.3,3.1c-0.6-0.3-1.4-0.8-2.6-1.6c-2.5,3-4.7,4.5-6.5,4.5c-0.4,0-1.1-0.1-2-0.3
					c2.1-1.1,4.4-2.7,7-4.9c-1.4-1.1-2-2-2-2.9c0-1.1,0.4-2.2,1.2-3.5s1.7-1.9,2.8-1.9c1.4,0,2.1,0.9,2.1,2.8c0,1.3-0.3,2.5-1,3.8
					C-508.7,16.5-508.2,16.8-507.9,17.1z M-510.1,14.3c0-0.4-0.2-0.8-0.5-1.3s-0.7-0.7-1.2-0.7c-0.5,0-0.7,0.3-0.7,0.9
					c0,0.4,0.8,1.1,2.3,2.1C-510.2,14.8-510.1,14.4-510.1,14.3z"/>
				<path class="st5" d="M-509.4,48.7c0,2.9-0.6,5.2-1.8,7.1c-1.4,2.2-3.5,3.4-6.3,3.4h-2.3v-7c4.9,0,7.3-0.5,7.3-1.6
					c0-0.2-0.4-0.8-1.2-1.7s-1.2-1.6-1.2-2.2c0-0.8,1-3.1,3.1-6.9C-510.3,43.2-509.4,46.2-509.4,48.7z M-506.4,34.5l-2.7,4.1
					l-4.1-2.7l-2,3.5l-4.4-3.1l2.7-4.2l3.9,2.9l2.5-3.8L-506.4,34.5z"/>
				<path class="st4" d="M-459.3,59.2h-4.8c-0.6,4.2-1.7,7.7-3.2,10.5c-2.2,4-5,6-8.6,6c-2.5,0-5.7-1.2-9.4-3.6l0.5-0.8
					c1.5,0.3,2.5,0.4,3.2,0.4c2.5,0,5-1,7.7-2.9c1.1-0.8,2.5-2.4,4-4.7c1.1-1.8,2.3-3.6,3.4-5.4c-2.1-0.7-3.6-2.3-4.6-4.9l3.9-5.5
					c0.9,1.8,1.9,3,3,3.4c0.7,0.3,2.3,0.4,4.8,0.4v7.1H-459.3z"/>
				<path class="st4" d="M-432.9,59.2h-4.7c-1.9,0-3.4-0.6-4.3-1.7c-0.3,2.6-1.5,4-3.7,4c-2,0-4.7-1.9-8.2-5.6
					c-0.3,0.5-1.2,1.4-2.5,2.5c-0.8,0.6-2.5,0.9-5.2,0.9v-7h2.4c1.7,0,3.1-0.8,4.3-2.3c0.9-1.4,1.8-2.9,2.7-4.3
					c1.1-1.5,2.5-2.3,4.1-2.3c0.8,0,1.8,0.7,3,2.2s2.2,2.9,3.2,4.4c1.4,1.6,2.8,2.3,4.3,2.3h4.7L-432.9,59.2L-432.9,59.2z
					 M-446,52.3c0-1-0.2-2.1-0.5-3.4c-0.4-1.6-1-2.4-1.7-2.4c-0.6,0-1.2,0.6-1.8,1.7c-0.4,0.8-0.8,1.7-1.2,2.5
					c2.1,2.1,3.6,3.1,4.4,3.1C-446.2,53.7-446,53.2-446,52.3z"/>
				<path class="st4" d="M-435.2,59.2v-7h14.1v7H-435.2z"/>
				<path class="st5" d="M-412.4,14.6c0,1.6-0.5,2.7-1.6,3.4l-9.6,5.2c0-0.9,0.1-1.6,0.4-2s0.9-0.8,1.8-1.3L-412.4,14.6z"/>
				<path class="st5" d="M-413.9,48.7c0,2.9-0.6,5.2-1.8,7.1c-1.4,2.2-3.5,3.4-6.3,3.4h-2.3v-7c4.9,0,7.3-0.5,7.3-1.6
					c0-0.2-0.4-0.8-1.2-1.7c-0.8-0.9-1.2-1.6-1.2-2.2c0-0.8,1-3.1,3.1-6.9C-414.7,43.2-413.9,46.2-413.9,48.7z M-410.9,34.5
					l-2.7,4.1l-4.1-2.7l-2,3.5l-4.4-3.1l2.7-4.2l3.9,2.9l2.5-3.8L-410.9,34.5z"/>
				<path class="st4" d="M-352.9,59.2h-4.8c-0.6,4.2-1.7,7.7-3.2,10.5c-2.2,4-5,6-8.6,6c-2.5,0-5.7-1.2-9.4-3.6l0.5-0.8
					c1.5,0.3,2.5,0.4,3.2,0.4c2.5,0,5-1,7.7-2.9c1.1-0.8,2.5-2.4,4-4.7c1.1-1.8,2.3-3.6,3.4-5.4c-2.1-0.7-3.6-2.3-4.6-4.9l3.9-5.5
					c0.9,1.8,1.9,3,3,3.4c0.7,0.3,2.3,0.4,4.8,0.4v7.1H-352.9z M-357.8,39l-2.5,4.2l-4.3-3.1l2.5-4.2L-357.8,39z"/>
				<path class="st5" d="M-338.5,59.2h-4.6c-2.2,0-3.7-1.3-4.7-3.8c-1.3,2.5-2.8,3.8-4.6,3.8h-2.3v-7c2.7,0,3.8,0,3.2,0
					c1.5,0,2.5-0.3,3-0.8c0.1-0.1,0.2-1.2,0.2-3.2l0.4,0.1c0.3,2,1.5,3.2,3.7,3.7c0.7,0.1,2.6,0.2,5.8,0.2L-338.5,59.2L-338.5,59.2z
					 M-343.7,64.6l-2.6,4.2l-4.3-3l2.7-4.2L-343.7,64.6z"/>
				<path class="st4" d="M-320.2,17.4c0,1.3-0.5,2.5-1.4,3.6c-1,1-2.2,1.5-3.6,1.5c-2.3,0-3.5-1.3-3.5-3.8c0-1.6,0.3-2.9,1-4
					c0.8-1.3,2-1.9,3.6-1.9c1.1,0,2.1,0.5,2.9,1.5C-320.5,15.2-320.2,16.3-320.2,17.4z M-322,18.2c0-0.5-0.5-1.1-1.4-1.8
					c-0.9-0.6-1.7-1-2.3-1c-0.5,0-1,0.2-1.4,0.7c-0.4,0.5-0.6,1-0.6,1.4c0,1.3,1,1.9,2.9,1.9C-322.9,19.5-322,19-322,18.2z"/>
				<path class="st4" d="M-310.4,43.3l-0.8,5.4c-0.9,0.1-2.2,0.2-3.9,0.2c-3.3,0-6.4,0.7-9.2,2c-1.4,0.7-3.3,1.9-5.7,3.8
					c-2.4,1.9-4.3,3.1-5.6,3.7c-0.9,0.5-2.7,0.7-5.2,0.7v-7c3.1,0,5.6-0.3,7.5-0.8c1.6-0.4,4-1.4,7-2.9c-2.7-1.3-4.8-1.9-6.3-1.9
					c-1.2,0-1.9,0.4-2.2,1.2h-4.4c0.7-2.6,1.4-4.4,2.1-5.6c1.2-1.7,3-2.6,5.2-2.6c1.4,0,3.5,0.5,6.2,1.5c4.4,1.6,8.2,2.4,11.6,2.4
					c0.4,0,1,0,1.8-0.1C-311.4,43.3-310.8,43.3-310.4,43.3z M-317.9,33.5l-2.5,4.2l-4.3-3l2.6-4.2L-317.9,33.5z"/>
				<path class="st4" d="M-235.1,59.2h-4.7c-2.5,0-4-1.1-4.6-3.2c-5.8,3.8-13,5.8-21.5,5.8c-4.7,0-8.6-0.8-11.7-2.3
					c-3.9-2-5.8-5-5.8-9.1c0-2.5,1-5.9,3.1-9.9l0.9,0.4c-0.8,2-1.3,3.8-1.3,5.5c0,3,2,5.3,6,6.6c2.8,1,6.1,1.5,10,1.5
					c7.1,0,12.4-0.6,15.8-1.8c1.1-0.4,1.7-0.6,1.8-0.6c0.8-0.4,1.2-0.7,1.4-1.2c0.2-0.4,0.3-1.2,0.2-2.4h0.7c0.7,2.5,2.7,3.8,6,3.8
					c0.4,0,1,0,1.8-0.1c0.8,0,1.4,0,1.8,0L-235.1,59.2L-235.1,59.2z M-256.1,36.2l-2.6,4.1l-4.1-2.7l-2,3.5l-4.4-3.1l2.6-4.2l3.9,3
					l2.4-3.7L-256.1,36.2z"/>
				<path class="st4" d="M-221.1,59.2h-4.6c-2.2,0-3.7-1.3-4.7-3.8c-1.3,2.5-2.8,3.8-4.6,3.8h-2.3v-7c2.7,0,3.8,0,3.2,0
					c1.5,0,2.5-0.3,3-0.8c0.1-0.1,0.2-1.2,0.2-3.2l0.4,0.1c0.3,2,1.5,3.2,3.7,3.6c0.7,0.2,2.6,0.3,5.8,0.3L-221.1,59.2L-221.1,59.2z
					 M-226,41.1l-2.4,4.2l-4.3-3.1l2.5-4.1L-226,41.1z"/>
				<path class="st5" d="M-211.5,80.5c0,1.5-0.5,2.6-1.6,3.2l-9.6,5.3c0-1,0.1-1.7,0.4-2c0.3-0.4,0.9-0.8,1.8-1.4L-211.5,80.5z"/>
				<path class="st5" d="M-213,48.7c0,2.9-0.6,5.2-1.8,7.1c-1.4,2.2-3.5,3.4-6.3,3.4h-2.3v-7c4.9,0,7.3-0.5,7.3-1.6
					c0-0.2-0.4-0.8-1.2-1.7s-1.2-1.6-1.2-2.2c0-0.8,1-3.1,3.1-6.9C-213.8,43.2-213,46.2-213,48.7z M-213.1,64.6l-2.6,4.2l-4.3-3
					l2.7-4.2L-213.1,64.6z"/>
				<path class="st4" d="M-149.7,43.6l-1.1,5.4c-2.6,0-5.1,0.2-7.3,0.6c-4.1,0.7-7.7,2.3-10.7,4.8c-3.4,2.8-5.1,6.1-5.1,9.9
					c0,4.5,2.8,7.9,8.3,10.1c4,1.6,8.8,2.3,14.4,2.3c1.5,0,4.9-0.2,10.4-0.6l0.1,0.8l-13.9,6.4h-1.7c-6.1,0-10.9-1.1-14.4-3.2
					c-4.3-2.6-6.5-6.6-6.5-12.1c0-7.5,4-13.7,11.9-18.6l-4.3-0.9c-1.5,0-2.4,0.4-2.9,1.3h-4.4c0.7-2.6,1.4-4.4,2.1-5.6
					c1.2-1.8,3-2.7,5.2-2.7c1.7,0,3.9,0.2,6.7,0.7c3.5,0.6,5.7,0.9,6.6,1C-154.7,43.3-152.5,43.4-149.7,43.6z M-157.3,62.5l-2.5,4.2
					l-4.3-3.1l2.5-4.2L-157.3,62.5z"/>
				<path class="st4" d="M-114.2,59.2h-4.8c-0.6,4.2-1.7,7.7-3.2,10.5c-2.2,4-5,6-8.6,6c-2.5,0-5.7-1.2-9.4-3.6l0.5-0.8
					c1.5,0.3,2.5,0.4,3.2,0.4c2.5,0,5-1,7.7-2.9c1.1-0.8,2.5-2.4,4-4.7c1.1-1.8,2.3-3.6,3.4-5.4c-2.1-0.7-3.6-2.3-4.6-4.9l3.9-5.5
					c0.9,1.8,1.9,3,3,3.4c0.7,0.3,2.3,0.4,4.8,0.4L-114.2,59.2L-114.2,59.2z"/>
				<path class="st5" d="M-104.4,23.5l-0.3,3.1c-0.6-0.3-1.4-0.8-2.6-1.6c-2.5,3-4.7,4.5-6.5,4.5c-0.4,0-1.1-0.1-2-0.3
					c2.1-1.1,4.4-2.7,7-4.9c-1.4-1.1-2-2-2-2.9c0-1.1,0.4-2.2,1.2-3.5c0.8-1.3,1.7-1.9,2.8-1.9c1.4,0,2.1,0.9,2.1,2.8
					c0,1.3-0.3,2.5-1,3.8C-105.2,22.9-104.8,23.3-104.4,23.5z M-106.7,20.7c0-0.4-0.2-0.8-0.5-1.3c-0.4-0.5-0.7-0.7-1.2-0.7
					s-0.7,0.3-0.7,0.9c0,0.4,0.8,1.1,2.3,2.1C-106.7,21.2-106.7,20.9-106.7,20.7z"/>
				<path class="st5" d="M-106,48.7c0,2.9-0.6,5.2-1.8,7.1c-1.4,2.2-3.5,3.4-6.3,3.4h-2.3v-7c4.9,0,7.3-0.5,7.3-1.6
					c0-0.2-0.4-0.8-1.2-1.7c-0.8-0.9-1.2-1.6-1.2-2.2c0-0.8,1-3.1,3.1-6.9C-106.8,43.2-106,46.2-106,48.7z M-106.1,64.6l-2.6,4.2
					l-4.3-3l2.7-4.2L-106.1,64.6z"/>
				<path class="st4" d="M-59.6,59.2h-4.7c-2,0-3.5-0.9-4.4-2.7c-0.6-1.1-1-2.8-1.3-5.3c-2.5,3.3-4.6,5-6.1,5c-1,0-2.1-0.3-3.1-0.8
					c-1.2-0.6-1.8-1.4-1.8-2.3c0-1,0.6-2.8,1.8-5.3c0.6-1.4,1.6-2.6,3.1-3.6c0.5-0.3,1.9-1.1,4.4-2.4c-0.4-1.8-0.6-2.9-0.6-3.4
					c0-0.8,1.1-2.3,3.3-4.4c0,0,0.5,3.2,1.4,9.4c0.8,5,1.3,7.7,1.7,8.2c0.4,0.4,1,0.7,1.8,0.8c0.6,0.1,1.4,0.1,2.5,0.1
					c1.5,0,2.1-0.1,2-0.1L-59.6,59.2L-59.6,59.2z M-66.2,27.9l-2.7,4.2l-4.1-2.7l-2,3.5l-4.5-3.1l2.6-4.1l4,2.9l2.5-3.8L-66.2,27.9z
					 M-70.5,48.5c0-1-0.2-2.4-0.7-4.3c-3.5,1.8-5.2,3.1-5.2,4s1.6,1.3,4.8,1.3C-70.8,49.5-70.5,49.2-70.5,48.5z"/>
				<path class="st4" d="M-59.2,26.8c-0.4-0.5-0.6-0.9-0.7-1.2c0.7-2.7,1.7-4.4,3.2-5c0.1,1.6,0.8,2.9,2,4.1
					c1.2,1.1,2.7,1.6,4.3,1.3l-3,5.1c-0.4-0.1-0.9-0.4-1.4-0.7l-0.1,0.5c0,1.3,0.1,3,0.5,5.2c0.4,2.4,0.6,4.2,0.6,5.2
					c0,2.3-0.3,4.8-0.8,7.4c2.8-3.2,4.7-5.2,5.7-6.1c2.7-2.5,5.1-3.8,7.2-3.8c2,0,3.6,0.6,4.8,1.7c1.2,1.2,1.8,2.7,1.8,4.6
					c0,1.6-0.3,3-0.8,4.1c-0.4,0.8-1.3,1.9-2.5,3.3c1.9-0.1,3.1-0.2,3.7-0.2h5.5v7H-36c-0.6,0-1.5,0-2.7-0.1c-1.2,0-2.1-0.1-2.7-0.1
					c-2.9,0-4.6-0.6-5.2-1.7c-2.4,1.3-6.5,1.9-12.3,1.9H-62v-7h4.2c0.4-0.8,0.8-1.5,1.3-2.3c0.1-0.3,0.2-1.3,0.2-3
					c0-2.2-0.5-5.6-1.4-10C-58.7,32.5-59.2,29.1-59.2,26.8z M-38.5,47.9c0-0.8-0.5-1.4-1.4-1.9c-0.8-0.4-1.5-0.6-2.4-0.6
					c-3.2,0-7,2.1-11.3,6.4c2.2,0,5-0.3,8.4-0.9C-40.8,50.1-38.5,49.1-38.5,47.9z"/>
				<path class="st5" d="M-20,21c0,1.6-0.5,2.7-1.6,3.4l-9.6,5.2c0-0.9,0.1-1.6,0.4-2s0.9-0.8,1.8-1.3L-20,21z"/>
				<path class="st5" d="M-21.5,48.7c0,2.9-0.6,5.2-1.8,7.1c-1.4,2.2-3.5,3.4-6.3,3.4h-2.3v-7c4.9,0,7.3-0.5,7.3-1.6
					c0-0.2-0.4-0.8-1.2-1.7c-0.8-0.9-1.2-1.6-1.2-2.2c0-0.8,1-3.1,3.1-6.9C-22.3,43.2-21.5,46.2-21.5,48.7z M-21.5,64.6l-2.6,4.2
					l-4.3-3l2.7-4.2L-21.5,64.6z"/>
				<path class="st4" d="M25,59.6c-0.7,5-2,8.6-4,10.9c-2.4,2.7-6,4.1-11,4.1c-2.6,0-4.8-0.6-6.5-1.7c-1.9-1.3-2.9-3.1-2.9-5.5
					c0-2.5,1.4-6.2,4.2-11.2l0.8,0.4c-1.3,2.5-2,4.4-2,5.9c0,2.3,0.5,3.9,1.6,4.6c1.4,1,3.7,1.4,6.9,1.4c3.4,0,6-0.5,7.9-1.6
					c1.4-0.8,2.3-2.2,2.8-4.4c0.2-1.1,0.3-1.8,0.3-2.2c0-0.7-0.4-1.5-1.1-2.5c-1-1.3-1.6-2.1-1.7-2.4c0.6-1.2,1.5-3,2.8-5.4
					c0.5,0.7,1,1.4,1.5,2.1c0.5,0.7,1.3,1,2.4,1v6.5L25,59.6L25,59.6z"/>
				<path class="st4" d="M26.4,53.1c3.6,0,5.4-0.9,5.4-2.8c0-0.3,0-0.8-0.1-1.4s-0.1-1-0.2-1.2l0.8-0.1c0.4,1.6,1.1,2.9,2.1,4
					c1.1,1.2,2.5,1.7,4.1,1.7c0.3,0,0.8-0.1,1.4-0.4c0.6-0.3,0.9-0.6,0.9-0.8c0-0.5-0.3-1.2-0.9-2.2c-0.5-0.6-0.9-1.3-1.4-1.9
					c0.4-1.1,0.9-2.7,1.5-4.9c2,1.7,3,4.1,3,7.2c0,2-0.4,3.8-1.3,5.4c-1,2-2.5,2.9-4.4,2.9s-3.5-1.1-4.6-3.4c-1.5,3-3.5,4.4-6.2,4.4
					L26.4,53.1L26.4,53.1z"/>
				<path class="st5" d="M55.6,6.4c0,1.2-0.4,2.3-1.3,3.2c-0.9,0.9-1.9,1.4-3.2,1.4C49,11,48,9.9,48,7.6C48,6.2,48.3,5,48.9,4
					c0.8-1.2,1.8-1.7,3.2-1.7c1,0,1.9,0.4,2.6,1.3C55.3,4.5,55.6,5.4,55.6,6.4z M54,7.2c0-0.5-0.4-1-1.3-1.6
					c-0.8-0.6-1.5-0.9-2.1-0.9c-0.5,0-0.9,0.2-1.2,0.6c-0.4,0.4-0.5,0.9-0.5,1.3c0,1.1,0.9,1.7,2.6,1.7C53.2,8.3,54,7.9,54,7.2z"/>
				<path class="st5" d="M57.8,24.3c-0.2,0.8-0.4,1.3-0.7,1.6c-0.3,0.3-0.8,0.5-1.6,0.7l-8,2.3c0.7-1.4,1.7-2.2,3.2-2.6
					c-1.4-1-2.1-1.8-2.1-2.4c0-0.9,0.7-2,2.2-3.3c1.4-1.3,2.7-2,3.6-2c1.1,0,1.7,0.5,1.7,1.6c0,0.4-0.3,1.2-0.8,2.3
					c-1.1-0.7-2-1.1-2.7-1.1c-0.8,0-1.5,0.4-2.1,1.2c2,1.5,3.5,2.2,4.5,2.2C55.9,24.8,56.8,24.6,57.8,24.3z"/>
				<path class="st5" d="M54.6,51.7c0,2.2-0.5,4.4-1.4,6.7H52c0-3.4-0.4-7.1-1.1-11c-1.2-6.3-1.8-10.3-1.8-12.1c0-1,0.4-2.1,1.1-3.1
					c0.3-0.4,1-1.3,2.3-2.6c0,2.3,0.3,6,1,10.9C54.2,45.7,54.6,49.3,54.6,51.7z"/>
				<path class="st4" d="M75.5,58.2c0,3.4-0.9,6.5-2.6,9.5c-2.1,3.6-4.7,5.3-8,5.3c-2,0-4.5-1-7.6-2.9l0.4-0.8
					c0.9,0.2,1.7,0.3,2.3,0.3c2.6,0,5.5-1.2,8.7-3.6c3.1-2.4,4.7-4.8,4.7-7.2c0-0.9-0.7-2.2-2-3.9c-1-1.2-1.9-2.3-2.9-3.5
					c0.6-2.7,1.1-4.9,1.4-6.4C73.6,48.8,75.5,53.2,75.5,58.2z"/>
				<path class="st4" d="M146.5,59.6h-4c-0.4,4.2-2.1,7.7-4.9,10.4c-3,2.8-6.7,4.2-11.1,4.2c-6.2,0-9.3-3.1-9.3-9.4
					c0-2.3,0.4-4.4,1.3-6.2c0.6-1.5,1.7-3.3,3.3-5.5l0.7,0.7c-2,3.1-3,5.5-3,7.3c0,2.2,0.9,3.9,2.7,5c1.6,1,3.5,1.5,5.9,1.5
					c8.4,0,12.6-2.6,12.6-7.9c-2.9,0-4.6-0.1-5.2-0.2c-2.1-0.4-3.1-1.4-3.1-3.1c0-1.1,0.5-2.9,1.5-5.3c1-2.5,1.8-4,2.5-4.5
					c0.5-0.4,1.2-0.7,2-0.7c1.3,0,2.3,1,3,3c0.2,0.6,0.6,2.1,1.1,4.5h4L146.5,59.6L146.5,59.6z M142.8,39.1l-2.3,3.7l-3.7-2.4
					l-1.8,3.1l-3.9-2.8l2.3-3.8l3.6,2.7l2.3-3.4L142.8,39.1z M140.1,53.2c-0.5-1.8-1.6-2.6-3.2-2.6c-0.8,0-1.3,0.4-1.3,1.1
					c0,1,1,1.6,2.9,1.6C138.5,53.2,140.1,53.2,140.1,53.2z"/>
				<path class="st4" d="M153.7,50.2c0,2.6-0.5,4.7-1.6,6.4c-1.3,2-3.1,3-5.7,3h-2.1v-6.2c4.4,0,6.5-0.5,6.5-1.4
					c0-0.2-0.4-0.7-1.1-1.5c-0.7-0.8-1.1-1.5-1.1-2c0-0.7,0.9-2.8,2.8-6.2C152.9,45.3,153.7,48,153.7,50.2z M156.2,64.5l-2.4,3.8
					l-3.7-2.4l-1.8,3.1l-4-2.8l2.5-3.7l3.5,2.7l2.2-3.4L156.2,64.5z"/>
				<path class="st4" d="M179.2,59.6h-4.3c-0.5,3.8-1.5,6.9-2.8,9.4c-1.9,3.6-4.5,5.4-7.7,5.4c-2.3,0-5.1-1.1-8.4-3.2l0.4-0.7
					c1.3,0.2,2.3,0.4,2.9,0.4c2.2,0,4.5-0.9,6.9-2.6c1-0.7,2.2-2.1,3.6-4.2c1-1.6,2-3.2,3.1-4.8c-1.8-0.6-3.2-2.1-4.2-4.4l3.5-4.9
					c0.8,1.6,1.7,2.6,2.6,3c0.6,0.2,2,0.4,4.3,0.4L179.2,59.6L179.2,59.6z"/>
				<path class="st4" d="M186.5,50.2c0,2.6-0.5,4.7-1.6,6.4c-1.3,2-3.1,3-5.7,3h-2.1v-6.2c4.4,0,6.5-0.5,6.5-1.4
					c0-0.2-0.4-0.7-1.1-1.5c-0.7-0.8-1.1-1.5-1.1-2c0-0.7,0.9-2.8,2.8-6.2C185.7,45.3,186.5,48,186.5,50.2z M186.4,64.5l-2.3,3.8
					l-3.8-2.7l2.4-3.8L186.4,64.5z"/>
				<path class="st5" d="M198,81.3c0,1.4-0.5,2.3-1.4,2.8l-8.6,4.7c0-0.9,0.1-1.5,0.3-1.8s0.8-0.8,1.6-1.2L198,81.3z"/>
				<path class="st5" d="M201.1,69.4c-0.2,0.8-0.4,1.4-0.7,1.7c-0.2,0.3-0.8,0.5-1.6,0.8l-8,2.2c0.5-0.9,0.9-1.5,1.3-1.8
					c0.4-0.3,1.1-0.6,2.1-0.9c-1.4-0.7-2.1-1.5-2.1-2.3c0-0.9,0.7-2,2.1-3.3c1.4-1.3,2.6-1.9,3.7-1.9c1.1,0,1.7,0.5,1.7,1.6
					c0,0.4-0.3,1.1-0.9,2.2c-1.1-0.6-2.1-1-2.8-1s-1.3,0.4-2,1.1c2,1.5,3.5,2.2,4.6,2.2C199.4,69.9,200.3,69.8,201.1,69.4z"/>
				<path class="st5" d="M197.1,51.7c0,2.2-0.5,4.4-1.4,6.7h-1.1c0-3.4-0.4-7.1-1.1-11c-1.2-6.3-1.8-10.3-1.8-12.1
					c0-1,0.4-2.1,1.1-3.1c0.3-0.4,1-1.3,2.3-2.6c0,2.3,0.3,6,1,10.9C196.8,45.7,197.1,49.3,197.1,51.7z"/>
				<path class="st4" d="M243.9,49.3c0,3.6-1.2,6.4-3.7,8.6s-5.6,3.3-9.4,3.3c-2.7,0-4.9-0.6-6.5-1.9c-1.9-1.4-2.8-3.3-2.8-5.8
					c0-3,1.2-6.8,3.5-11.4l0.8,0.5c-1.1,2.1-1.6,3.9-1.6,5.5c0,2.5,0.7,4.3,2.2,5.2c1.2,0.8,3.2,1.2,6,1.2c2,0,4-0.4,5.9-1.1
					c2.5-1,3.7-2.2,3.7-3.8c0-0.7-0.7-2.1-2-4.3c-1.1-1.9-2.1-3.3-2.8-4.2l2.3-5.6C242.4,39.4,243.9,44,243.9,49.3z M233.6,33.1
					l-2.3,3.7l-3.8-2.6l2.4-3.7L233.6,33.1z"/>
				<path class="st4" d="M265.4,51.3c0,2.4-0.5,4.2-1.5,5.4s-2.8,2-5.3,2.6c-1.9,0.4-3.9,0.7-6.2,0.7c-0.9,0-2.2-0.4-3.8-1.1
					l1.3-7.1c1.3,0.6,2.2,1,2.7,1c7.1,0,10.7-0.8,10.7-2.5c0-1.4-3.2-3.7-9.7-6.8l2.3-6.8C262.2,40.5,265.4,45.4,265.4,51.3z
					 M258.4,30.7l-2.3,3.8l-3.8-2.7l2.3-3.8L258.4,30.7z"/>
				<path class="st5" d="M279.7,5.7l-0.3,2.8c-0.5-0.3-1.3-0.8-2.3-1.4c-2.3,2.7-4.2,4-5.9,4c-0.4,0-1-0.1-1.8-0.3
					c1.8-1,3.9-2.4,6.3-4.4c-1.2-1-1.8-1.8-1.8-2.6c0-1,0.4-2,1.1-3.1s1.6-1.7,2.5-1.7c1.3,0,1.9,0.8,1.9,2.5c0,1.2-0.3,2.3-0.9,3.4
					C279,5.1,279.4,5.4,279.7,5.7z M277.7,3.1c0-0.4-0.2-0.8-0.5-1.2s-0.7-0.6-1-0.6c-0.4,0-0.6,0.3-0.6,0.8c0,0.4,0.7,1,2,1.9
					C277.7,3.6,277.7,3.3,277.7,3.1z"/>
				<path class="st5" d="M279.3,24.3c-0.2,0.8-0.4,1.3-0.7,1.6c-0.3,0.3-0.8,0.5-1.6,0.7l-8,2.3c0.7-1.4,1.7-2.2,3.2-2.6
					c-1.4-1-2.1-1.8-2.1-2.4c0-0.9,0.7-2,2.2-3.3c1.4-1.3,2.7-2,3.6-2c1.1,0,1.7,0.5,1.7,1.6c0,0.4-0.3,1.2-0.8,2.3
					c-1.1-0.7-2-1.1-2.7-1.1c-0.8,0-1.5,0.4-2.1,1.2c2,1.5,3.5,2.2,4.5,2.2C277.5,24.8,278.4,24.6,279.3,24.3z"/>
				<path class="st5" d="M276.1,51.7c0,2.2-0.5,4.4-1.4,6.7h-1.1c0-3.4-0.4-7.1-1.1-11c-1.2-6.3-1.8-10.3-1.8-12.1
					c0-1,0.4-2.1,1.1-3.1c0.3-0.4,1-1.3,2.3-2.6c0,2.3,0.3,6,1,10.9C275.8,45.7,276.1,49.3,276.1,51.7z"/>
				<path class="st4" d="M343.3,28.9c0,1.2-0.4,2.3-1.3,3.2c-0.9,0.9-1.9,1.4-3.2,1.4c-2.1,0-3.1-1.1-3.1-3.4c0-1.4,0.3-2.6,0.9-3.6
					c0.8-1.2,1.8-1.7,3.2-1.7c1,0,1.9,0.4,2.6,1.3C342.9,27,343.3,27.9,343.3,28.9z M341.6,29.6c0-0.5-0.4-1-1.3-1.6
					c-0.8-0.6-1.5-0.9-2.1-0.9c-0.5,0-0.9,0.2-1.2,0.6c-0.4,0.4-0.5,0.8-0.5,1.3c0,1.1,0.9,1.7,2.6,1.7
					C340.8,30.8,341.6,30.4,341.6,29.6z"/>
				<path class="st4" d="M363.5,59.6h-4.2c-2.2,0-3.6-1-4.1-2.9c-5.2,3.4-11.6,5.2-19.2,5.2c-4.2,0-7.7-0.7-10.5-2.1
					c-3.5-1.8-5.2-4.5-5.2-8.1c0-2.3,0.9-5.2,2.8-8.9l0.8,0.4c-0.8,1.8-1.1,3.4-1.1,4.9c0,2.7,1.8,4.7,5.4,5.9
					c2.5,0.9,5.5,1.3,8.9,1.3c6.4,0,11.1-0.5,14.2-1.6c1-0.3,1.5-0.5,1.6-0.5c0.7-0.3,1.1-0.7,1.3-1c0.2-0.4,0.2-1.1,0.2-2.1h0.6
					c0.6,2.3,2.4,3.4,5.4,3.4c0.4,0,0.9,0,1.6-0.1c0.7,0,1.2,0,1.6,0L363.5,59.6L363.5,59.6z M343.4,68.1l-2.3,3.8l-3.8-2.8l2.4-3.7
					L343.4,68.1z"/>
				<path class="st4" d="M372,19.2c0,1.4-0.5,2.4-1.4,3l-8.6,4.6c0-0.8,0.1-1.4,0.4-1.8s0.8-0.8,1.6-1.2L372,19.2z"/>
				<path class="st4" d="M370.7,50.2c0,2.6-0.5,4.7-1.6,6.4c-1.3,2-3.1,3-5.7,3h-2.1v-6.2c4.4,0,6.5-0.5,6.5-1.4
					c0-0.2-0.4-0.7-1.1-1.5s-1.1-1.5-1.1-2c0-0.7,0.9-2.8,2.8-6.2C370,45.3,370.7,48,370.7,50.2z M369.9,36.6l-2.1,3.7l-3.8-2.7
					l2.2-3.7L369.9,36.6z"/>
				<path class="st4" d="M386.6,30.5c0,1.2-0.4,2.3-1.3,3.2s-1.9,1.4-3.2,1.4c-2.1,0-3.1-1.1-3.1-3.4c0-1.4,0.3-2.6,0.9-3.6
					c0.8-1.2,1.8-1.7,3.2-1.7c1,0,1.9,0.4,2.5,1.3C386.3,28.6,386.6,29.5,386.6,30.5z M385,31.2c0-0.5-0.4-1-1.3-1.6
					c-0.8-0.6-1.5-0.9-2.1-0.9c-0.5,0-0.9,0.2-1.2,0.6c-0.4,0.4-0.5,0.8-0.5,1.3c0,1.1,0.9,1.7,2.6,1.7C384.2,32.4,385,32,385,31.2z
					"/>
				<path class="st4" d="M391,58.2c0,3.4-0.9,6.5-2.6,9.5c-2.1,3.6-4.7,5.3-8,5.3c-2,0-4.5-1-7.6-2.9l0.4-0.8
					c0.9,0.2,1.7,0.3,2.3,0.3c2.6,0,5.5-1.2,8.7-3.6c3.1-2.4,4.7-4.8,4.7-7.2c0-0.9-0.7-2.2-2-3.9c-1-1.2-1.9-2.3-2.9-3.5
					c0.6-2.7,1.1-4.9,1.4-6.4C389.1,48.8,391,53.2,391,58.2z"/>
				<path class="st5" d="M405,3.4c0,1.4-0.5,2.4-1.4,3L395,11c0-0.8,0.1-1.4,0.4-1.8s0.8-0.8,1.6-1.2L405,3.4z"/>
				<path class="st5" d="M404.8,24.3c-0.2,0.8-0.4,1.3-0.7,1.6c-0.3,0.3-0.8,0.5-1.6,0.7l-8,2.3c0.7-1.4,1.7-2.2,3.2-2.6
					c-1.4-1-2.1-1.8-2.1-2.4c0-0.9,0.7-2,2.2-3.3c1.4-1.3,2.7-2,3.6-2c1.1,0,1.7,0.5,1.7,1.6c0,0.4-0.3,1.2-0.8,2.3
					c-1.1-0.7-2-1.1-2.7-1.1c-0.8,0-1.5,0.4-2.1,1.2c2,1.5,3.5,2.2,4.5,2.2C403,24.8,403.9,24.6,404.8,24.3z"/>
				<path class="st5" d="M401.6,51.7c0,2.2-0.5,4.4-1.4,6.7h-1.1c0-3.4-0.4-7.1-1.1-11c-1.2-6.3-1.8-10.3-1.8-12.1
					c0-1,0.4-2.1,1.1-3.1c0.3-0.4,1-1.3,2.3-2.6c0,2.3,0.3,6,1,10.9C401.3,45.7,401.6,49.3,401.6,51.7z"/>
			</g>
		</g>
	</g>
</g>
<path class="st4" d="M73.6,24.1c0,2-0.6,3.3-1.8,4.1l-11,6.3c0-1.1,0.2-2,0.5-2.5c0.3-0.5,1-1,2-1.6L73.6,24.1z"/>
</svg>
