<?xml version="1.0" encoding="utf-8"?>
<!-- Generator: Adobe Illustrator 22.0.1, SVG Export Plug-In . SVG Version: 6.00 Build 0)  -->
<svg version="1.1" id="Layer_1" xmlns="http://www.w3.org/2000/svg" xmlns:xlink="http://www.w3.org/1999/xlink" x="0px" y="0px"
	 viewBox="0 0 86.2 86.2" style="enable-background:new 0 0 86.2 86.2;" xml:space="preserve">
<style type="text/css">
	.st0{fill:#235958;}
</style>
<path class="st0" d="M48.1,41.7h-1.5h-2.4c-0.8-7.8-2.1-11.7-4-11.7c-1.7,0-3.4,2.1-5.1,6.2c-1.4,3.6-2.2,6.6-2.2,8.8
	c0,2.4,0.9,3.9,2.7,4.6c1,0.3,2.9,0.5,5.8,0.5c-2.4,4.7-4.7,8.1-7.2,10.2c-3.1,2.8-6.9,4.2-11.4,4.2c-1.5,0-2.9-0.2-4.2-0.6L18,64.8
	c4.1,2.7,7.8,4.2,11,4.2c6.9,0,11.6-6.3,14.2-18.9h3.4h1.5H61v-8.4C61,41.7,48.1,41.7,48.1,41.7z M39.2,41.7c-2.4,0-3.5-0.7-3.5-2.1
	c0-1.1,0.6-1.7,1.9-1.7c1.5,0,2.9,1.3,4.2,3.8H39.2z"/>
</svg>
