<?xml version="1.0" encoding="utf-8"?>
<!-- Generator: Adobe Illustrator 22.0.1, SVG Export Plug-In . SVG Version: 6.00 Build 0)  -->
<svg version="1.1" id="Layer_1" xmlns="http://www.w3.org/2000/svg" xmlns:xlink="http://www.w3.org/1999/xlink" x="0px" y="0px"
	 viewBox="0 0 76.1 91.2" style="enable-background:new 0 0 76.1 91.2;" xml:space="preserve">
<style type="text/css">
	.st0{fill:#235958;}
	.st1{fill:#EF5316;}
</style>
<path class="st0" d="M32.5,32.2L29,38.3L28.2,38c0.1,1.7,0.3,3.5,0.6,5.5c1.2,9.4,1.9,17,1.9,22.8c0,5.3-1.5,9.4-4.6,12.3
	c-3.1,3-7.3,4.4-12.7,4.4c-3.8,0-6.9-0.8-9.2-2.4C1.4,78.8,0,76,0,72.4c0-4.9,2.2-10.3,6.7-16.2l0.9,0.9c-1.3,2.1-2.1,3.5-2.4,4.2
	C4.4,62.8,4,64.4,4,66c0,2.5,1.2,4.5,3.7,5.8c2,1.1,4.3,1.7,7.1,1.7c2.1,0,4.4-0.4,7-1.1c3.1-0.9,5-2.1,5.9-3.5
	c0.4-0.7,0.6-1.8,0.6-3.3c0-5.4-0.5-10.6-1.5-15.6c-1-3.6-2.4-9.2-4.1-16.6l-1-1.7c0.8-3.2,2-5.2,3.6-6c0.1,1.9,0.9,3.6,2.3,4.9
	C29,32,30.6,32.5,32.5,32.2z"/>
<path class="st0" d="M60.7,72.3h-4.9c-2.5,12.6-7.2,18.9-14.2,18.9c-3.2,0-6.9-1.4-10.9-4.3l0.6-0.9c1.3,0.4,2.7,0.6,4.2,0.6
	c4.5,0,8.3-1.4,11.4-4.2c2.4-2.1,4.8-5.5,7.2-10.2c-2.9,0-4.8-0.2-5.8-0.5c-1.8-0.7-2.7-2.2-2.7-4.6c0-2.2,0.7-5.1,2.2-8.8
	c1.7-4.1,3.3-6.2,5.1-6.2c1.9,0,3.2,3.9,3.9,11.7h3.9L60.7,72.3L60.7,72.3z M54.4,63.9c-1.3-2.5-2.7-3.8-4.2-3.8
	c-1.3,0-1.9,0.6-1.9,1.7c0,1.4,1.2,2.1,3.5,2.1H54.4z"/>
<path class="st1" d="M76.1,59.2c0,8.7-4.7,13.1-14.2,13.1h-2.7v-8.4h3.6c7.1,0,10.6-1.3,10.6-3.9c0-0.6-0.5-2.1-1.6-4.5
	c-0.8,1.7-1.5,2.9-2.3,3.5c-0.9,0.8-2.2,1.2-3.9,1.2c-3.1,0-4.6-1.4-4.6-4.2c0-0.6,0.2-1.8,0.5-3.6c1.5-8.8,3.8-13.3,6.8-13.3
	c2.5,0,4.5,2.8,6,8.4C75.5,51.7,76.1,55.5,76.1,59.2z M70.6,32l-2.8,5L63,33.3l3-5L70.6,32z M69,50c-1-1.6-2-2.4-3-2.4
	c-1.1,0-1.6,0.7-1.6,2c0,1.6,0.7,2.4,2.1,2.4C67.4,52,68.2,51.4,69,50z"/>
<path class="st1" d="M66.7,18.2L66.4,21c-0.5-0.3-1.3-0.8-2.3-1.4c-2.3,2.7-4.2,4-5.9,4c-0.4,0-1-0.1-1.8-0.3c1.8-1,3.9-2.4,6.3-4.4
	c-1.2-1-1.8-1.8-1.8-2.6c0-1,0.4-2,1.1-3.1s1.6-1.7,2.5-1.7c1.3,0,1.9,0.8,1.9,2.5c0,1.2-0.3,2.3-0.9,3.4C66,17.7,66.4,18,66.7,18.2
	z M64.7,15.7c0-0.4-0.2-0.8-0.5-1.2c-0.3-0.4-0.7-0.6-1-0.6c-0.4,0-0.6,0.3-0.6,0.8c0,0.4,0.7,1,2,1.9
	C64.7,16.1,64.7,15.8,64.7,15.7z"/>
</svg>
