<?xml version="1.0" encoding="utf-8"?>
<!-- Generator: Adobe Illustrator 22.0.1, SVG Export Plug-In . SVG Version: 6.00 Build 0)  -->
<svg version="1.1" id="Layer_1" xmlns="http://www.w3.org/2000/svg" xmlns:xlink="http://www.w3.org/1999/xlink" x="0px" y="0px"
	 viewBox="0 0 86.2 86.2" style="enable-background:new 0 0 86.2 86.2;" xml:space="preserve">
<style type="text/css">
	.st0{fill:#235958;}
</style>
<g>
	<path class="st0" d="M44.3,27.8L44,31.5c-0.6-0.4-1.6-1-3-1.9c-2.9,3.6-5.4,5.4-7.5,5.4c-0.5,0-1.2-0.1-2.3-0.4
		c2.4-1.3,5-3.2,8-5.9c-1.6-1.3-2.3-2.4-2.3-3.5c0-1.3,0.5-2.7,1.4-4.2c0.9-1.5,2-2.3,3.2-2.3c1.6,0,2.4,1.1,2.4,3.3
		c0,1.6-0.4,3.1-1.1,4.5C43.4,27.1,43.9,27.5,44.3,27.8z M41.7,24.4c0-0.5-0.2-1-0.6-1.6c-0.4-0.6-0.8-0.8-1.3-0.8S39,22.3,39,23
		c0,0.5,0.9,1.3,2.6,2.6C41.7,25,41.7,24.6,41.7,24.4z"/>
</g>
<path class="st0" d="M63.6,32.7c-0.8,2.9-1.4,5.1-1.9,6.5c0.6,0.9,1.3,1.7,1.8,2.6c0.8,1.2,1.2,2.2,1.2,2.9c0,0.4-0.4,0.8-1.1,1.1
	c-0.8,0.4-1.3,0.6-1.8,0.6c-2,0-3.8-0.8-5.2-2.3c-1.3-1.4-2.3-3.2-2.7-5.3l-1,0.1c0.1,0.3,0.1,0.8,0.2,1.6c0.1,0.8,0.1,1.5,0.1,1.9
	c0,2.5-2.2,3.7-6.7,3.8c-1.9,0-3.2-0.2-4.1-0.6c-1.2-0.6-2.1-1.7-2.7-3.5h-0.4c-0.1,2.1-0.3,3.3-0.6,3.5c-0.8,0.6-3.2,1-7.2,1H19.2
	V55h12.4h2.1h0.6c2.1,0,3.8-1.6,5.2-4.7c1.1,3.1,3.4,4.7,6.8,4.7h0.6l0,0c3.2-0.2,5.6-2.2,7.4-5.9c1.4,3.1,3.4,4.6,5.9,4.6
	s4.3-1.3,5.6-3.9c1.1-2.1,1.6-4.5,1.6-7.2C67.4,38.2,66.1,35,63.6,32.7z"/>
</svg>
