<?xml version="1.0" encoding="utf-8"?>
<!-- Generator: Adobe Illustrator 22.0.1, SVG Export Plug-In . SVG Version: 6.00 Build 0)  -->
<svg version="1.1" id="Layer_1" xmlns="http://www.w3.org/2000/svg" xmlns:xlink="http://www.w3.org/1999/xlink" x="0px" y="0px"
	 viewBox="0 0 86.2 86.2" style="enable-background:new 0 0 86.2 86.2;" xml:space="preserve">
<style type="text/css">
	.st0{fill:#235958;}
</style>
<g>
	<path class="st0" d="M46.2,18.7l-10.3,6.2c-1,0.6-1.7,1.1-2,1.6s-0.5,1.3-0.5,2.4l10.9-6.2C45.6,21.9,46.2,20.6,46.2,18.7z"/>
</g>
<g>
	<path class="st0" d="M45.3,52.9c3.2,0,5.6-1.3,7.2-4c1.3-2.3,2-5.1,2-8.5c0-3-0.9-6.6-2.8-10.7c-2.4,4.6-3.5,7.3-3.5,8.3
		c0,0.7,0.5,1.6,1.4,2.7c0.9,1.1,1.4,1.7,1.4,2c0,1.3-1.6,1.9-4.9,1.9h-1.4h-2.1H30.3V53h12.4h2.1L45.3,52.9L45.3,52.9z"/>
	<polygon class="st0" points="53.1,55.8 50.3,60.3 45.8,56.7 42.7,61.7 47.8,65.4 50.1,61.2 54.8,64.5 57.8,59.4 	"/>
</g>
</svg>
