<?xml version="1.0" encoding="utf-8"?>
<!-- Generator: Adobe Illustrator 19.2.0, SVG Export Plug-In . SVG Version: 6.00 Build 0)  -->
<svg version="1.1" id="Layer_1" xmlns="http://www.w3.org/2000/svg" xmlns:xlink="http://www.w3.org/1999/xlink" x="0px" y="0px"
	 viewBox="0 0 362.5 53.9" style="enable-background:new 0 0 362.5 53.9;" xml:space="preserve">
<style type="text/css">
	.st0{fill:none;}
</style>
<g>
	<g>
		<g>
			<path d="M156.6,32.9c0,1.7-0.5,2.9-1.5,3.7c-1.1,0.8-2.8,1.3-5.1,1.3c-1.5,0-2.6-0.3-3.4-0.8c-0.9-0.6-1.3-1.5-1.3-2.7
				c0-0.6,0.1-1.3,0.2-2c0.2-0.7,0.4-1.3,0.6-2c0.2-0.4,0.4-1,0.9-1.9l0.4,0.2c-0.5,1.1-0.9,1.9-1,2.5c-0.2,0.6-0.3,1.2-0.3,1.7
				c0,0.9,0.3,1.6,1,2.1c0.7,0.5,1.6,0.7,2.8,0.7c1.4,0,2.7-0.3,3.8-0.8c1.4-0.6,2-1.5,2-2.6c0-0.8-0.1-1.5-0.3-2.1
				c-0.2-0.6-0.5-1.1-0.8-1.5l0.9-2.3c0.4,0.6,0.7,1.2,0.8,1.9c0.1,0.6,0.2,1.5,0.2,2.5V32.9z M152.4,24.3l-0.8,1.6l-1.8-1l0.8-1.6
				L152.4,24.3z"/>
			<path d="M162.2,32.9h-6.4v-2h5.6c0-0.9-0.1-1.6-0.3-2c-0.1-0.3-0.5-0.8-1.1-1.4l0.9-1.8c0.5,0.7,0.9,1.2,1,1.6
				c0.2,0.6,0.3,1.5,0.3,2.9V32.9z M159.6,36.1l-0.9,1.6l-1.8-0.9l0.8-1.6L159.6,36.1z M162.2,35.1l-0.9,1.6l-1.8-1l0.8-1.6
				L162.2,35.1z"/>
			<path d="M167,32.9h-5.5v-2h4.4l-1.3-9.5l-0.6-0.3c0-0.5,0-1,0.1-1.5s0.2-0.9,0.4-1.3l0.2,0.1c0,0.4,0.2,0.8,0.7,1
				c0.4,0.1,0.8,0.3,1.1,0.4c0,0.4,0,0.8-0.1,1.2c-0.1,0.4-0.1,0.7-0.2,1l-0.5-0.2l1.3,8.8V32.9z"/>
			<path d="M177.8,29.4l-0.8,2c-1.1,0.4-2.4,0.8-3.9,1c-1.5,0.3-2.9,0.4-4.1,0.4h-2.8v-2h2.7c-0.2-0.4-0.4-0.8-0.5-1.2
				s-0.2-0.9-0.2-1.3c0-0.9,0.4-1.6,1.1-2.2c0.7-0.6,1.7-0.9,2.8-0.9c0.9,0,1.7,0.2,2.3,0.7c0.3,0.2,0.7,0.6,1.3,1.4l-0.2,0.2
				c-0.5-0.1-1-0.2-1.4-0.3s-0.8-0.1-1.3-0.1c-1,0-1.8,0.1-2.4,0.3c-0.6,0.2-0.9,0.5-0.9,0.9c0,0.4,0.2,0.8,0.6,1.2
				c0.4,0.5,0.8,0.9,1.4,1.2c1.2-0.2,2.2-0.4,3-0.5C175.3,30.1,176.4,29.8,177.8,29.4z"/>
			<path d="M184.4,32.9h-1.6c-0.5,0-0.9-0.2-1.2-0.6c-0.3-0.4-0.5-0.9-0.6-1.6c-0.1-0.7-0.2-1.6-0.3-2.6c0-0.8-0.1-1.7-0.1-2.6
				c0-0.9-0.1-1.6-0.2-2c-0.1-0.5-0.2-0.8-0.3-1.1c-0.2-0.4-0.4-0.7-0.7-0.9l1.4-2.2c0.3,0.9,0.5,2,0.6,3.2c0.1,0.8,0.1,2.6,0.2,5.5
				c0.1,1.3,0.3,2.2,0.6,2.6c0.2,0.3,0.4,0.5,0.7,0.5h1.6V32.9z"/>
			<path d="M190.4,32.9h-6.8v-2h3.9c0.5,0,0.9,0,1.2-0.1c0.3,0,0.7-0.1,1.1-0.2c-1.3-0.2-2.1-0.4-2.5-0.5c-0.9-0.4-1.3-1-1.3-1.9
				c0-0.8,0.2-1.5,0.6-2.2c0.5-0.8,1-1.2,1.7-1.2c0.8,0,1.3,0.5,1.7,1.5c0.3,0.8,0.5,1.7,0.5,2.7V32.9z M189.4,21l-1,1.6l-1.6-1.1
				l0.9-1.6L189.4,21z M189.4,29c-0.2-0.6-0.3-1-0.5-1.3c-0.3-0.6-0.7-0.8-1.1-0.8c-0.2,0-0.4,0.1-0.5,0.2c-0.2,0.2-0.2,0.4-0.2,0.6
				c0,0.6,0.3,1,0.9,1.1C188.1,28.8,188.6,28.9,189.4,29z"/>
			<path d="M195.2,32.9h-5.5v-2h4.4l-1.3-9.5l-0.6-0.3c0-0.5,0-1,0.1-1.5s0.2-0.9,0.4-1.3l0.2,0.1c0,0.4,0.2,0.8,0.7,1
				c0.4,0.1,0.8,0.3,1.1,0.4c0,0.4,0,0.8-0.1,1.2c-0.1,0.4-0.1,0.7-0.2,1l-0.5-0.2l1.3,8.8V32.9z"/>
			<path d="M199,30c0,0.6-0.1,1.2-0.3,1.7c-0.1,0.3-0.4,0.8-0.7,1.4l-0.2-0.1c0-0.2,0-0.5,0.1-0.8c0-0.3,0-0.5,0-0.6
				c0-0.8-0.1-1.9-0.2-3.3c-0.1-1.4-0.3-2.9-0.4-4.4c-0.1-0.9-0.2-1.9-0.3-2.8c0.2-0.3,0.3-0.7,0.5-1.1c0.2-0.4,0.4-0.7,0.5-1.1
				c0.1,0.9,0.3,2,0.5,3.5s0.3,2.8,0.4,4C198.9,28.1,199,29.3,199,30z"/>
			<path d="M211.6,32.9H210c-0.5,0-0.9-0.2-1.2-0.6c-0.3-0.4-0.5-0.9-0.6-1.6c-0.1-0.7-0.2-1.6-0.3-2.6c0-0.8-0.1-1.7-0.1-2.6
				c0-0.9-0.1-1.6-0.2-2c-0.1-0.5-0.2-0.8-0.3-1.1c-0.2-0.4-0.4-0.7-0.7-0.9l1.4-2.2c0.3,0.9,0.5,2,0.6,3.2c0.1,0.8,0.1,2.6,0.2,5.5
				c0.1,1.3,0.3,2.2,0.6,2.6c0.2,0.3,0.4,0.5,0.7,0.5h1.6V32.9z"/>
			<path d="M217.2,32.9h-6.4v-2h5.6c0-0.9-0.1-1.6-0.3-2c-0.1-0.3-0.5-0.8-1.1-1.4l0.9-1.8c0.5,0.7,0.9,1.2,1,1.6
				c0.2,0.6,0.3,1.5,0.3,2.9V32.9z M216.3,22.5l-0.9,1.6l-1.8-0.9l0.8-1.6L216.3,22.5z"/>
		</g>
	</g>
	<rect class="st0" width="362.5" height="53.9"/>
</g>
</svg>
