<?xml version="1.0" encoding="utf-8"?>
<!-- Generator: Adobe Illustrator 19.2.0, SVG Export Plug-In . SVG Version: 6.00 Build 0)  -->
<svg version="1.1" id="Layer_1" xmlns="http://www.w3.org/2000/svg" xmlns:xlink="http://www.w3.org/1999/xlink" x="0px" y="0px"
	 viewBox="0 0 362.5 53.9" style="enable-background:new 0 0 362.5 53.9;" xml:space="preserve">
<style type="text/css">
	.st0{fill:none;}
</style>
<g>
	<g>
		<g>
			<path d="M145,23.1l-0.9,1.6l-1.8-0.9l0.8-1.6L145,23.1z M148.6,29.2c0,1.1-0.2,1.8-0.5,2.4c-0.5,0.8-1.5,1.2-2.9,1.2
				c-0.5,0-1-0.1-1.4-0.3c-0.4-0.2-0.6-0.6-0.6-1.1c0-0.5,0.1-1.1,0.4-1.8c0.2-0.6,0.5-1.2,0.7-1.8l-0.2,0l0.7-1.9
				c1.4,0.7,2.2,1.2,2.4,1.3C148.1,27.9,148.6,28.6,148.6,29.2z M147.6,30.1c0-0.3-0.4-0.7-1.2-1.1c-0.4-0.2-0.7-0.4-1.1-0.6
				c-0.3,0.4-0.5,0.6-0.6,0.7c-0.2,0.3-0.3,0.6-0.3,0.8c0,0.4,0.1,0.7,0.3,0.9c0.2,0.2,0.5,0.3,0.9,0.3c0.4,0,0.9-0.1,1.4-0.4
				C147.4,30.5,147.6,30.3,147.6,30.1z M147.6,22.1l-0.9,1.6l-1.8-1l0.8-1.6L147.6,22.1z"/>
			<path d="M158.8,31.9c0,1.2-0.5,2.5-1.4,3.7c-1,1.4-2.2,2-3.5,2c-0.5,0-1-0.1-1.5-0.2c-0.4-0.1-0.9-0.2-1.5-0.4
				c-0.5-0.2-1-0.3-1.5-0.5l0.2-0.4c0.4,0.1,0.9,0.2,1.3,0.3c0.5,0.1,0.9,0.2,1.2,0.2c0.9,0,1.8-0.2,2.6-0.7
				c0.6-0.4,1.3-0.9,1.9-1.6c0.3-0.4,0.8-0.9,1.4-1.7c-1,0-1.8-0.2-2.3-0.5c-0.6-0.4-0.9-1-0.9-1.8c0-0.8,0.2-1.5,0.5-2.1
				c0.4-0.8,1-1.1,1.6-1.1c0.7,0,1.1,0.4,1.4,1.1c0.2,0.6,0.3,1.4,0.3,2.5V31.9z M158.1,30.7c-0.2-0.7-0.4-1.2-0.6-1.5
				c-0.2-0.2-0.4-0.4-0.7-0.4c-0.2,0-0.4,0.1-0.5,0.2s-0.2,0.3-0.2,0.5c0,0.4,0.2,0.6,0.5,0.8C156.8,30.6,157.3,30.7,158.1,30.7z"/>
			<path d="M171,32.6h-0.9c-0.5,0-0.9-0.1-1.2-0.2s-0.7-0.3-0.9-0.6c-0.4,0.3-0.7,0.5-0.9,0.5c-0.4,0.1-0.9,0.2-1.6,0.2h-0.7
				c-0.4,0-0.8-0.1-1.2-0.2c-0.3-0.1-0.6-0.3-0.9-0.5c-0.4,0.3-0.7,0.5-1,0.6c-0.3,0.1-0.8,0.2-1.5,0.2H158v-2h2.2
				c0.6,0,1-0.1,1.3-0.2c0.4-0.2,0.7-0.5,0.7-1c0-0.2,0-0.4,0-0.7c0-0.2-0.1-0.5-0.1-0.7l0.5-0.7c0.2,0.7,0.4,1.2,0.5,1.5
				c0.2,0.5,0.5,1,0.8,1.2c0.3,0.3,0.8,0.5,1.2,0.5h0.8c0.6,0,1-0.1,1.2-0.3c0.3-0.2,0.4-0.5,0.4-0.9c0-0.2,0-0.5,0-0.7
				c0-0.2-0.1-0.5-0.1-0.7l0.5-0.7l0.2,1.1c0.2,0.8,0.4,1.4,0.7,1.7c0.3,0.3,0.6,0.4,1,0.4c0.2,0,0.4-0.1,0.5-0.2
				c0.1-0.1,0.2-0.3,0.2-0.5c0-0.4-0.2-0.9-0.5-1.3c-0.1-0.1-0.2-0.3-0.6-0.7l0.7-1.2c0.3,0.5,0.5,0.9,0.6,1.2
				c0.2,0.5,0.2,1.2,0.2,2V32.6z"/>
			<path d="M176.6,32.6h-6.4v-2h5.6c0-0.9-0.1-1.6-0.3-2c-0.1-0.3-0.5-0.8-1.1-1.4l0.9-1.8c0.5,0.7,0.9,1.2,1,1.6
				c0.2,0.6,0.3,1.5,0.3,2.9V32.6z M175.7,22.2l-0.9,1.6l-1.8-0.9l0.8-1.6L175.7,22.2z"/>
			<path d="M181.4,32.6h-5.5v-2h4.4l-1.3-9.5l-0.6-0.3c0-0.5,0-1,0.1-1.5c0.1-0.5,0.2-0.9,0.4-1.3l0.2,0.1c0,0.4,0.2,0.8,0.7,1
				c0.4,0.2,0.8,0.3,1.1,0.4c0,0.4,0,0.8-0.1,1.2c-0.1,0.4-0.1,0.7-0.2,1l-0.5-0.2l1.3,8.8V32.6z"/>
			<path d="M185.2,29.7c0,0.6-0.1,1.2-0.3,1.7c-0.1,0.3-0.4,0.8-0.7,1.4l-0.2-0.1c0-0.2,0-0.5,0.1-0.8c0-0.3,0-0.5,0-0.6
				c0-0.8-0.1-1.9-0.2-3.3c-0.1-1.4-0.3-2.9-0.4-4.4c-0.1-0.9-0.2-1.9-0.3-2.8c0.2-0.3,0.3-0.7,0.5-1.1c0.2-0.4,0.4-0.7,0.5-1.1
				c0.1,0.9,0.3,2,0.5,3.5s0.3,2.8,0.4,4C185.1,27.8,185.2,28.9,185.2,29.7z"/>
			<path d="M204.6,32.6c0,1.7-0.5,2.9-1.5,3.7c-1.1,0.8-2.8,1.3-5.1,1.3c-1.5,0-2.6-0.3-3.4-0.8c-0.9-0.6-1.3-1.5-1.3-2.7
				c0-0.6,0.1-1.3,0.2-2c0.2-0.7,0.4-1.3,0.6-2c0.2-0.4,0.4-1,0.9-1.9l0.4,0.2c-0.5,1.1-0.9,1.9-1,2.5c-0.2,0.6-0.3,1.2-0.3,1.7
				c0,0.9,0.3,1.6,1,2.1c0.7,0.5,1.6,0.7,2.8,0.7c1.4,0,2.7-0.3,3.8-0.8c1.4-0.6,2-1.5,2-2.6c0-0.8-0.1-1.5-0.3-2.1
				c-0.2-0.6-0.5-1.1-0.8-1.5l0.9-2.3c0.4,0.6,0.7,1.2,0.8,1.9c0.1,0.6,0.2,1.5,0.2,2.5V32.6z M200.4,23.9l-0.8,1.6l-1.8-1l0.8-1.6
				L200.4,23.9z"/>
			<path d="M214.5,31.9c0,1.2-0.5,2.5-1.4,3.7c-1,1.4-2.2,2-3.5,2c-0.5,0-1-0.1-1.5-0.2c-0.4-0.1-0.9-0.2-1.5-0.4
				c-0.5-0.2-1-0.3-1.5-0.5l0.2-0.4c0.4,0.1,0.9,0.2,1.3,0.3c0.5,0.1,0.9,0.2,1.2,0.2c0.9,0,1.8-0.2,2.6-0.7
				c0.6-0.4,1.3-0.9,1.9-1.6c0.3-0.4,0.8-0.9,1.4-1.7c-1,0-1.8-0.2-2.3-0.5c-0.6-0.4-0.9-1-0.9-1.8c0-0.8,0.2-1.5,0.5-2.1
				c0.4-0.8,1-1.1,1.6-1.1c0.7,0,1.1,0.4,1.4,1.1c0.2,0.6,0.3,1.4,0.3,2.5V31.9z M213.8,30.7c-0.2-0.7-0.4-1.2-0.6-1.5
				c-0.2-0.2-0.4-0.4-0.7-0.4c-0.2,0-0.4,0.1-0.5,0.2s-0.2,0.3-0.2,0.5c0,0.4,0.2,0.6,0.5,0.8C212.5,30.6,213.1,30.7,213.8,30.7z"/>
			<path d="M220.2,32.6h-6.4v-2h5.6c0-0.9-0.1-1.6-0.3-2c-0.1-0.3-0.5-0.8-1.1-1.4l0.9-1.8c0.5,0.7,0.9,1.2,1,1.6
				c0.2,0.6,0.3,1.5,0.3,2.9V32.6z M219.3,22.2l-0.9,1.6l-1.8-0.9l0.8-1.6L219.3,22.2z"/>
		</g>
	</g>
	<rect class="st0" width="362.5" height="53.9"/>
</g>
</svg>
