<?xml version="1.0" encoding="utf-8"?>
<!-- Generator: Adobe Illustrator 19.2.0, SVG Export Plug-In . SVG Version: 6.00 Build 0)  -->
<svg version="1.1" id="Layer_1" xmlns="http://www.w3.org/2000/svg" xmlns:xlink="http://www.w3.org/1999/xlink" x="0px" y="0px"
	 viewBox="0 0 362.5 53.9" style="enable-background:new 0 0 362.5 53.9;" xml:space="preserve">
<style type="text/css">
	.st0{fill:none;}
</style>
<g>
	<g>
		<g>
			<path d="M156.8,32.7c0,1.2-0.3,2.1-0.8,2.9c-0.5,0.6-1.2,1.1-2.2,1.3c-0.8,0.2-1.9,0.3-3.1,0.3c-1.4,0-2.6-0.3-3.4-0.8
				c-0.9-0.6-1.3-1.5-1.3-2.6c0-0.6,0.1-1.3,0.3-2c0.2-0.6,0.4-1.2,0.7-1.9c0.2-0.5,0.5-1.1,0.9-1.8l0.4,0.2c-0.3,0.5-0.5,1-0.7,1.3
				c-0.2,0.5-0.4,1-0.5,1.4c-0.1,0.5-0.2,1-0.2,1.5c0,0.9,0.3,1.6,1,2.1s1.6,0.7,2.8,0.7c1.3,0,2.4-0.2,3.5-0.7
				c1.2-0.5,1.8-1.1,1.8-1.7c0-0.7-0.1-2-0.3-3.7c-0.2-1.3-0.4-2.8-0.7-4.5l-0.4-2.2l-0.5-0.3c0-1,0.2-1.9,0.6-2.7h0.2
				c0,0.3,0.1,0.5,0.2,0.6c0.1,0.1,0.2,0.2,0.4,0.3c0.2,0.1,0.5,0.2,0.8,0.3c0.2,0.1,0.4,0.2,0.5,0.3c0,0.5,0,0.9-0.1,1.1
				c0,0.2-0.1,0.6-0.2,1l-0.6-0.2c0,0.2,0.1,0.9,0.3,2.3c0.2,1.6,0.4,2.8,0.5,3.8C156.7,30.7,156.8,31.9,156.8,32.7z"/>
			<path d="M167.6,30.6l-0.8,2c-1.1,0.4-2.4,0.8-3.9,1c-1.5,0.3-2.9,0.4-4.1,0.4H156v-2h2.7c-0.2-0.4-0.4-0.8-0.5-1.2
				S158,30,158,29.6c0-0.9,0.4-1.6,1.1-2.2c0.7-0.6,1.7-0.9,2.8-0.9c0.9,0,1.7,0.2,2.3,0.7c0.3,0.2,0.7,0.6,1.3,1.4l-0.2,0.2
				c-0.5-0.1-1-0.2-1.4-0.3s-0.8-0.1-1.3-0.1c-1,0-1.8,0.1-2.4,0.3c-0.6,0.2-0.9,0.5-0.9,0.9c0,0.4,0.2,0.8,0.6,1.2
				c0.4,0.5,0.8,0.9,1.4,1.2c1.2-0.2,2.2-0.4,3-0.5C165.1,31.3,166.2,31,167.6,30.6z"/>
			<path d="M174.2,34.1h-1.6c-0.5,0-0.9-0.2-1.2-0.6c-0.3-0.4-0.5-0.9-0.6-1.6c-0.1-0.7-0.2-1.6-0.3-2.6c0-0.8-0.1-1.7-0.1-2.6
				c0-0.9-0.1-1.6-0.2-2c-0.1-0.5-0.2-0.8-0.3-1.1c-0.2-0.4-0.4-0.7-0.7-0.9l1.4-2.2c0.3,0.9,0.5,2,0.6,3.2c0.1,0.8,0.1,2.6,0.2,5.5
				c0.1,1.3,0.3,2.2,0.6,2.6c0.2,0.3,0.4,0.5,0.7,0.5h1.6V34.1z"/>
			<path d="M180.2,34.1h-6.8v-2h3.9c0.5,0,0.9,0,1.2-0.1c0.3,0,0.7-0.1,1.1-0.2c-1.3-0.2-2.1-0.4-2.5-0.5c-0.9-0.4-1.3-1-1.3-1.9
				c0-0.8,0.2-1.5,0.6-2.2c0.5-0.8,1-1.2,1.7-1.2c0.8,0,1.3,0.5,1.7,1.5c0.3,0.8,0.5,1.7,0.5,2.7V34.1z M179.3,22.1l-1,1.6l-1.6-1.1
				l0.9-1.6L179.3,22.1z M179.2,30.1c-0.2-0.6-0.3-1-0.5-1.3c-0.3-0.6-0.7-0.8-1.1-0.8c-0.2,0-0.4,0.1-0.5,0.2
				c-0.2,0.2-0.2,0.4-0.2,0.6c0,0.6,0.3,1,0.9,1.1C178,30,178.4,30.1,179.2,30.1z"/>
			<path d="M185,34.1h-5.5v-2h4.4l-1.3-9.5l-0.6-0.3c0-0.5,0-1,0.1-1.5s0.2-0.9,0.4-1.3l0.2,0.1c0,0.4,0.2,0.8,0.7,1
				c0.4,0.1,0.8,0.3,1.1,0.4c0,0.4,0,0.8-0.1,1.2c-0.1,0.4-0.1,0.7-0.2,1l-0.5-0.2l1.3,8.8V34.1z"/>
			<path d="M188.8,31.2c0,0.6-0.1,1.2-0.3,1.7c-0.1,0.3-0.4,0.8-0.7,1.4l-0.2-0.1c0-0.2,0-0.5,0.1-0.8c0-0.3,0-0.5,0-0.6
				c0-0.8-0.1-1.9-0.2-3.3c-0.1-1.4-0.3-2.9-0.4-4.4c-0.1-0.9-0.2-1.9-0.3-2.8c0.2-0.3,0.3-0.7,0.5-1.1c0.2-0.4,0.4-0.7,0.5-1.1
				c0.1,0.9,0.3,2,0.5,3.5s0.3,2.8,0.4,4C188.7,29.3,188.8,30.4,188.8,31.2z"/>
			<path d="M204.5,31.3l-0.5,1.8c-1.1,0.3-2.1,0.6-2.8,1c-0.8,0.4-1.6,0.9-2.3,1.6l-0.3-0.2c0.1-0.3,0.2-0.7,0.4-1
				c0.1-0.3,0.3-0.5,0.5-0.7l-1.3-0.7c-0.4-0.3-0.6-0.5-0.6-0.8c0-0.2,0.1-0.7,0.4-1.3c0.4-0.7,0.8-1.4,1.2-1.9c0.6-0.6,1.2-1,1.8-1
				c0.6,0,1,0.2,1.4,0.5c0.1,0.1,0.3,0.3,0.6,0.6l-0.6,1.5c-0.3-0.2-0.4-0.3-0.5-0.3c-0.5-0.3-0.8-0.4-1.1-0.4
				c-0.4,0-0.7,0.1-1.1,0.3c-0.4,0.2-0.6,0.4-0.6,0.7c0,0.3,0.2,0.6,0.7,0.9c0.4,0.2,0.9,0.5,1.6,0.7
				C202.4,32,203.4,31.6,204.5,31.3z"/>
			<path d="M210.9,34.1h-1.6c-0.5,0-0.9-0.2-1.2-0.6c-0.3-0.4-0.5-0.9-0.6-1.6c-0.1-0.7-0.2-1.6-0.3-2.6c0-0.8-0.1-1.7-0.1-2.6
				c0-0.9-0.1-1.6-0.2-2c-0.1-0.5-0.2-0.8-0.3-1.1c-0.2-0.4-0.4-0.7-0.7-0.9l1.4-2.2c0.3,0.9,0.5,2,0.6,3.2c0.1,0.8,0.1,2.6,0.2,5.5
				c0.1,1.3,0.3,2.2,0.6,2.6c0.2,0.3,0.4,0.5,0.7,0.5h1.6V34.1z"/>
			<path d="M216.5,34.1h-6.4v-2h5.6c0-0.9-0.1-1.6-0.3-2c-0.1-0.3-0.5-0.8-1.1-1.4l0.9-1.8c0.5,0.7,0.9,1.2,1,1.6
				c0.2,0.6,0.3,1.5,0.3,2.9V34.1z M213.9,24l-0.9,1.6l-1.8-0.9L212,23L213.9,24z M216.5,23l-0.9,1.6l-1.8-1l0.8-1.6L216.5,23z"/>
		</g>
	</g>
	<rect class="st0" width="362.5" height="53.9"/>
</g>
</svg>
