<?xml version="1.0" encoding="utf-8"?>
<!-- Generator: Adobe Illustrator 22.0.1, SVG Export Plug-In . SVG Version: 6.00 Build 0)  -->
<svg version="1.1" id="Layer_1" xmlns="http://www.w3.org/2000/svg" xmlns:xlink="http://www.w3.org/1999/xlink" x="0px" y="0px"
	 viewBox="0 0 83 86.9" style="enable-background:new 0 0 83 86.9;" xml:space="preserve">
<style type="text/css">
	.st0{fill:#235958;}
	.st1{fill:#EF5316;}
</style>
<g>
	<path class="st0" d="M40.7,67.8H37c-4.5,0-6.7-4.4-6.7-13.2c-0.9,2.3-1.7,3.9-2.5,4.7c-0.9,1-2.5,1.8-4.7,2.5
		c0.5,2.6,0.8,4.9,0.8,6.9c0,4.1-1.2,8-3.5,11.7c-2.6,4.3-5.9,6.5-9.7,6.5C8,86.9,4.4,85.6,0,83l0.7-1.2c1.8,0.5,3.2,0.7,4.3,0.7
		c3.3,0,6.9-1.8,10.7-5.3s5.7-6.9,5.7-10.2c0-2.3-1.4-5.1-4.2-8.4c0.5-2.1,1.2-4.7,2.3-7.9c2.3,2.1,4.2,3.2,5.9,3.2
		c2.4,0,4-1.9,4.7-5.6h0.8c0.6,2.5,1.5,5.5,2.8,9c0.8,1.3,1.8,2,3.3,2h3.7C40.7,59.3,40.7,67.8,40.7,67.8z M37.3,40.7l-3,4.9
		l-4.6-3.2l-2.3,4.2L22.3,43l3-5.1l4.6,3.5l2.8-4.4L37.3,40.7z"/>
	<path class="st1" d="M49.8,7.6c0,1.6-0.6,3-1.6,4.3c-1.1,1.2-2.5,1.9-4.1,1.9c-2.7,0-4-1.5-4-4.5c0-1.9,0.4-3.5,1.1-4.8
		c1-1.6,2.3-2.3,4.1-2.3c1.3,0,2.4,0.6,3.3,1.8C49.2,5,49.8,6.3,49.8,7.6z M47.6,8.6c0-0.6-0.5-1.4-1.6-2.1c-1.1-0.8-2-1.2-2.7-1.2
		c-0.6,0-1.1,0.3-1.6,0.8C41.2,6.7,41,7.2,41,7.8c0,1.5,1.1,2.3,3.3,2.3S47.6,9.6,47.6,8.6z"/>
	<path class="st1" d="M56.5,54.7c0,8.7-4.7,13.1-14.2,13.1h-2.7v-8.4h3.6c7.1,0,10.6-1.3,10.6-3.9c0-0.6-0.5-2.1-1.6-4.5
		c-0.8,1.7-1.5,2.9-2.3,3.5c-0.9,0.8-2.2,1.2-3.9,1.2c-3.1,0-4.6-1.4-4.6-4.2c0-0.6,0.2-1.8,0.5-3.6c1.5-8.8,3.8-13.3,6.8-13.3
		c2.5,0,4.5,2.8,6,8.4C56,47.2,56.5,51,56.5,54.7z M51.1,27.5l-2.8,5l-4.8-3.7l3-5L51.1,27.5z M49.5,45.5c-1-1.6-2-2.4-3-2.4
		c-1.1,0-1.6,0.7-1.6,2c0,1.6,0.7,2.4,2.1,2.4C47.8,47.5,48.7,46.9,49.5,45.5z"/>
	<path class="st0" d="M83,56.7c0,3.3-0.7,5.7-2,7.2c-1.3,1.6-3.6,2.7-6.8,3.5c-2.4,0.6-5,0.9-7.9,0.9c-1.2,0-2.8-0.5-4.8-1.5
		l1.6-9.6c1.7,0.9,2.9,1.3,3.5,1.3c9.1,0,13.7-1.1,13.7-3.4c0-1.9-4.1-5-12.4-9.1l3-9.2C78.9,42.1,83,48.8,83,56.7z"/>
</g>
<g>
	<path class="st0" d="M30.3,19.8c0,1.9-0.6,3.3-1.8,4L17.6,30c0-1.1,0.2-1.9,0.5-2.4s1-1,2-1.6L30.3,19.8z"/>
</g>
<g>
	<path class="st0" d="M75.8,16.3c0,1.9-0.6,3.3-1.8,4l-10.9,6.2c0-1.1,0.2-1.9,0.5-2.4c0.3-0.5,1-1,2-1.6L75.8,16.3z"/>
</g>
</svg>
