<?xml version="1.0" encoding="utf-8"?>
<!-- Generator: Adobe Illustrator 22.0.1, SVG Export Plug-In . SVG Version: 6.00 Build 0)  -->
<svg version="1.1" id="Layer_1" xmlns="http://www.w3.org/2000/svg" xmlns:xlink="http://www.w3.org/1999/xlink" x="0px" y="0px"
	 viewBox="0 0 86.2 86.2" style="enable-background:new 0 0 86.2 86.2;" xml:space="preserve">
<style type="text/css">
	.st0{fill:#235958;}
</style>
<g>
	<g>
		<path class="st0" d="M30.8,20.7l-10.3,6.2c-1,0.6-1.7,1.1-2,1.6S18,29.8,18,31l11-6.3C30.2,24,30.8,22.6,30.8,20.7z"/>
	</g>
</g>
<path class="st0" d="M64.7,49.5h-1.1h-4.8c-2,0-3.4-0.2-4.3-0.6c-1.2-0.5-2.1-1.5-2.9-3.1c1.3-0.2,3.2-0.3,5.6-0.6l1-6.5
	c-0.6,0-1.6,0.1-2.8,0.2C54,39,53.1,39,52.4,39c-3.9,0-8.3-1-13.3-2.9c-3.1-1.2-5.5-1.8-7.1-1.8c-2.6,0-4.6,1-6,3.1
	c-0.9,1.3-1.7,3.6-2.4,6.7h5c0.6-1,1.4-1.4,2.5-1.4c1.8,0,4.2,0.8,7.2,2.3c-5.3,2.7-9.9,4.2-14,4.4H24h-2.1H9.5v8.4h12.4H24h1.6
	c0.4,0,1.1-0.3,2.3-0.9c2.3-1.5,4-2.7,5.1-3.5c3.4-2.6,5.8-4.3,7.2-5.1c2.3-1.2,5.1-2,8.5-2.6c-1,2.8-1.4,4.8-1.4,6.1
	c0,4,3.4,6,10.2,6h6h1.1H78v-8.4H64.7V49.5z"/>
</svg>
