<?xml version="1.0" encoding="utf-8"?>
<!-- Generator: Adobe Illustrator 19.2.0, SVG Export Plug-In . SVG Version: 6.00 Build 0)  -->
<svg version="1.1" id="Layer_1" xmlns="http://www.w3.org/2000/svg" xmlns:xlink="http://www.w3.org/1999/xlink" x="0px" y="0px"
	 viewBox="0 0 30.1 38.5" style="enable-background:new 0 0 30.1 38.5;" xml:space="preserve">
<style type="text/css">
	.st0{opacity:0.5;}
	.st1{fill:#FFFFFF;}
</style>
<g>
	<g class="st0">
		<path d="M30.1,25.1c0,3.7-2.1,6.8-6.4,9.5c-4.3,2.6-9.4,3.9-15.3,3.9c-1.9,0-3.6-0.7-5-2.2c-1.1-1.6-2.2-3.1-3.4-4.6
			c1.4,0.3,3.5,0.5,6.1,0.5c-0.1,0,1.3-0.1,4.1-0.4c0.6-1.7,0.9-3.2,0.9-4.4c0-2.2-0.4-5.4-1.3-9.6C8.9,13.5,8.5,10.2,8.5,8L7.8,6.8
			C8.3,4.3,9.3,2.7,10.7,2c0,1.5,0.6,2.8,1.7,3.8c1.1,1.1,2.4,1.5,3.9,1.3L13.5,12l-1-0.5c-0.1,0.5-0.2,0.9-0.2,1.4
			c0,0.9,0.2,2.4,0.5,4.4c0.3,2.1,0.5,3.7,0.5,4.8c0,1.9-0.2,4.1-0.7,6.4c4.5-6.2,8.3-9.3,11.6-9.3c1.8,0,3.2,0.6,4.3,1.7
			C29.6,21.9,30.1,23.3,30.1,25.1z M27.2,27.8c0-0.7-0.5-1.3-1.5-1.7c-0.8-0.4-1.5-0.6-2.4-0.6c-3.1,0-6.4,2-9.8,6.1h0.7
			c1.8,0,4.2-0.3,7.2-1C25.3,29.8,27.2,28.9,27.2,27.8z M22.9,12l-2.2,3.9L16.8,13l2.3-4L22.9,12z"/>
	</g>
	<g>
		<g>
			<g>
				<path class="st1" d="M30.1,23.1c0,3.7-2.1,6.8-6.4,9.5c-4.3,2.6-9.4,3.9-15.3,3.9c-1.9,0-3.6-0.7-5-2.2
					c-1.1-1.6-2.2-3.1-3.4-4.6c1.4,0.3,3.5,0.5,6.1,0.5c-0.1,0,1.3-0.1,4.1-0.4c0.6-1.7,0.9-3.2,0.9-4.4c0-2.2-0.4-5.4-1.3-9.6
					C8.9,11.5,8.5,8.2,8.5,6L7.8,4.8C8.3,2.3,9.3,0.7,10.7,0c0,1.5,0.6,2.8,1.7,3.8c1.1,1.1,2.4,1.5,3.9,1.3L13.5,10l-1-0.5
					c-0.1,0.5-0.2,0.9-0.2,1.4c0,0.9,0.2,2.4,0.5,4.4c0.3,2.1,0.5,3.7,0.5,4.8c0,1.9-0.2,4.1-0.7,6.4c4.5-6.2,8.3-9.3,11.6-9.3
					c1.8,0,3.2,0.6,4.3,1.7C29.6,19.9,30.1,21.3,30.1,23.1z M27.2,25.8c0-0.7-0.5-1.3-1.5-1.7c-0.8-0.4-1.5-0.6-2.4-0.6
					c-3.1,0-6.4,2-9.8,6.1h0.7c1.8,0,4.2-0.3,7.2-1C25.3,27.8,27.2,26.9,27.2,25.8z M22.9,10l-2.2,3.9L16.8,11l2.3-4L22.9,10z"/>
			</g>
		</g>
	</g>
</g>
</svg>
