<?xml version="1.0" encoding="utf-8"?>
<!-- Generator: Adobe Illustrator 22.0.1, SVG Export Plug-In . SVG Version: 6.00 Build 0)  -->
<svg version="1.1" id="Layer_1" xmlns="http://www.w3.org/2000/svg" xmlns:xlink="http://www.w3.org/1999/xlink" x="0px" y="0px"
	 viewBox="0 0 86.2 86.2" style="enable-background:new 0 0 86.2 86.2;" xml:space="preserve">
<style type="text/css">
	.st0{fill:#235958;}
</style>
<g>
	<path class="st0" d="M52.7,49.3c0,4.6-1.1,8.8-3.3,12.8c-2.7,4.8-6.1,7.2-10.3,7.2c-2.5,0-5.8-1.3-9.8-4l0.5-1.1
		c1.2,0.3,2.2,0.4,2.9,0.4c3.4,0,7.1-1.6,11.2-4.9c4-3.3,6.1-6.5,6.1-9.8c0-1.2-0.8-3-2.5-5.3c-1.2-1.6-2.5-3.1-3.7-4.7
		c0.8-3.7,1.4-6.6,1.9-8.7C50.3,36.6,52.7,42.6,52.7,49.3z"/>
</g>
<path class="st0" d="M49.5,17.1c0,2-0.6,3.3-1.8,4.1l-11,6.3c0-1.1,0.2-2,0.5-2.5s1-1,2-1.6L49.5,17.1z"/>
</svg>
