<?xml version="1.0" encoding="utf-8"?>
<!-- Generator: Adobe Illustrator 22.0.1, SVG Export Plug-In . SVG Version: 6.00 Build 0)  -->
<svg version="1.1" id="Layer_1" xmlns="http://www.w3.org/2000/svg" xmlns:xlink="http://www.w3.org/1999/xlink" x="0px" y="0px"
	 viewBox="0 0 86.2 86.2" style="enable-background:new 0 0 86.2 86.2;" xml:space="preserve">
<style type="text/css">
	.st0{fill:#235958;}
</style>
<path class="st0" d="M67.6,26.1c-0.8,3-1.5,5.3-2,6.9c0.7,0.9,1.3,1.8,1.9,2.7c0.8,1.3,1.3,2.3,1.3,3c0,0.4-0.4,0.8-1.2,1.2
	c-0.8,0.4-1.4,0.6-1.9,0.6c-2.1,0-4-0.8-5.5-2.5c-1.4-1.5-2.4-3.3-2.9-5.6l-1,0.1c0.1,0.3,0.1,0.9,0.2,1.7c0.1,0.9,0.1,1.5,0.1,2
	c0,2.6-2.3,3.9-6.8,4c-1.4,0-2.5-0.5-3.2-1.4s-1.4-1.9-2.1-2.9c-1.7,3.4-2.9,5.9-3.7,7.6c0.2,0.4,0.9,1.5,2.3,3.4
	c1,1.4,1.5,2.5,1.5,3.5c0,0.5-0.1,1.5-0.4,3c-0.6,3.1-1.9,5.2-3.7,6.3c-2.5,1.5-6.1,2.2-10.6,2.2c-4.3,0-7.5-0.7-9.3-2
	c-1.4-1.1-2.1-3.2-2.1-6.5c0-2,0.9-4.8,2.6-8.3l-1-0.5c-3.7,7-5.6,12.3-5.6,15.8c0,3.4,1.3,6,3.9,7.8c2.3,1.6,5.3,2.5,8.8,2.5
	c6.7,0,11.6-1.9,14.7-5.8c2.6-3.2,4.4-8.3,5.3-15.3H50l0,0c3.3-0.2,5.9-2.3,7.8-6.2c1.5,3.2,3.6,4.8,6.2,4.8c2.6,0,4.6-1.4,5.9-4.2
	c1.1-2.2,1.7-4.7,1.7-7.6C71.6,31.9,70.3,28.5,67.6,26.1z"/>
</svg>
