<?xml version="1.0" encoding="utf-8"?>
<!-- Generator: Adobe Illustrator 22.0.1, SVG Export Plug-In . SVG Version: 6.00 Build 0)  -->
<svg version="1.1" id="Layer_1" xmlns="http://www.w3.org/2000/svg" xmlns:xlink="http://www.w3.org/1999/xlink" x="0px" y="0px"
	 viewBox="0 0 92.5 90.8" style="enable-background:new 0 0 92.5 90.8;" xml:space="preserve">
<style type="text/css">
	.st0{fill:#235958;}
	.st1{fill:#EF5316;}
</style>
<g>
	<path class="st0" d="M33.6,70.8h-2.5c-0.9,6.6-2.6,11.5-5.1,14.6c-3,3.6-7.7,5.5-14,5.5c-3.4,0-6.2-0.8-8.4-2.3
		C1.2,86.8,0,84.3,0,81.1c0-3.3,1.8-8.3,5.3-15l1,0.5c-1.7,3.3-2.5,6-2.5,7.9c0,3.1,0.7,5.2,2,6.2c1.8,1.3,4.7,1.9,8.8,1.9
		c4.3,0,7.6-0.7,10.1-2.1c1.8-1,2.9-3,3.5-6c0.3-1.4,0.4-2.4,0.4-2.9c0-0.9-0.5-2-1.4-3.3c-1.3-1.8-2-2.8-2.2-3.2
		c0.8-1.6,1.9-4,3.5-7.2c0.6,1,1.3,1.9,2,2.8c0.7,0.9,1.7,1.3,3.1,1.3V70.8L33.6,70.8z"/>
	<path class="st0" d="M54.1,58.3c0,2.7-0.5,5.1-1.6,7.2c-1.3,2.6-3.2,3.9-5.6,3.9c-2.5,0-4.4-1.5-5.9-4.6c-1.9,4-4.5,6-8,6V62
		c4.6,0,6.9-1.3,6.9-3.8c0-0.4,0-1.1-0.1-1.9c-0.1-0.8-0.1-1.4-0.2-1.6l1-0.1c0.5,2.1,1.4,3.9,2.7,5.3c1.4,1.6,3.2,2.3,5.2,2.3
		c0.4,0,1-0.2,1.8-0.6c0.8-0.4,1.1-0.8,1.1-1.1c0-0.7-0.4-1.7-1.2-2.9c-0.6-0.9-1.2-1.7-1.8-2.6c0.5-1.4,1.1-3.6,1.9-6.5
		C52.9,50.9,54.1,54.1,54.1,58.3z"/>
	<path class="st0" d="M73,23.5c-0.3,1.1-0.6,1.8-0.9,2.1c-0.3,0.4-1,0.7-2,0.9l-10.2,3.1c0.9-1.8,2.2-3,4.1-3.5
		c-1.8-1.3-2.7-2.4-2.7-3.2c0-1.2,0.9-2.7,2.8-4.5c1.8-1.7,3.3-2.6,4.6-2.6c1.4,0,2.2,0.7,2.2,2.2c0,0.5-0.3,1.6-1,3.1
		c-1.4-1-2.6-1.4-3.5-1.4c-1,0-1.9,0.5-2.7,1.6c2.5,2,4.4,3,5.8,3C70.7,24.2,71.8,23.9,73,23.5z"/>
	<path class="st0" d="M68.9,60.2c0,2.9-0.6,5.9-1.8,9h-1.4c0-4.6-0.5-9.5-1.4-14.7C62.8,46,62,41.2,62,39.9c0-1.4,0.5-2.8,1.4-4.1
		c0.4-0.6,1.3-1.7,2.9-3.5c0,3.1,0.4,7.7,1.3,13.9C68.5,52.4,68.9,57,68.9,60.2z"/>
	<path class="st1" d="M90.3,23.4c0,1.9-0.6,3.3-1.8,4l-10.9,6.2c0-1.1,0.2-2,0.5-2.4s1-1,2-1.6L90.3,23.4z"/>
	<path class="st1" d="M92.5,68.9c0,4.5-1.1,8.7-3.3,12.7c-2.6,4.8-6,7.2-10.2,7.2c-2.5,0-5.7-1.3-9.7-3.9l0.5-1
		c1.2,0.3,2.1,0.4,2.9,0.4c3.4,0,7.1-1.6,11.1-4.9c4-3.2,6-6.5,6-9.7c0-1.2-0.8-2.9-2.5-5.2c-1.2-1.6-2.5-3.1-3.7-4.7
		c0.8-3.6,1.4-6.5,1.8-8.6C90.1,56.3,92.5,62.2,92.5,68.9z"/>
</g>
<path class="st0" d="M63,13.5c1.7,0,3.1-0.6,4.2-1.9c1.1-1.2,1.7-2.7,1.7-4.3c0-1.3-0.4-2.6-1.3-3.8c-0.9-1.2-2-1.8-3.3-1.8
	c-1.8,0-3.2,0.8-4.1,2.3c-0.8,1.3-1.1,3-1.1,4.9C58.9,12,60.3,13.5,63,13.5z M60.8,5.8c0.5-0.6,1-0.8,1.6-0.8c0.7,0,1.6,0.4,2.7,1.2
	c1.1,0.8,1.6,1.5,1.6,2.1c0,1-1.1,1.5-3.2,1.5c-2.2,0-3.3-0.8-3.3-2.3C60.1,7,60.3,6.4,60.8,5.8z"/>
</svg>
