<?xml version="1.0" encoding="utf-8"?>
<!-- Generator: Adobe Illustrator 23.0.2, SVG Export Plug-In . SVG Version: 6.00 Build 0)  -->
<svg version="1.1" id="Layer_1" xmlns="http://www.w3.org/2000/svg" xmlns:xlink="http://www.w3.org/1999/xlink" x="0px" y="0px"
	 viewBox="0 0 36.6 28.6" style="enable-background:new 0 0 36.6 28.6;" xml:space="preserve">
<style type="text/css">
	.st0{fill:#FFFFFF;}
</style>
<path class="st0" d="M30,12.9h-7.9c0.2-1.4,0.5-5.5-1.4-7.4c-0.9-0.9-2.1-1.2-3.5-1c-1.8,0.3-3.1,1.5-3.7,3.2c-0.6,2,0,4.1,1.5,5.5
	c1,0.9,2.2,1.3,3.7,1.3c0.4,0,1.7,0,1.7,0c-0.4,2.2-1,3.7-1.8,4.8c-1,1.3-2.6,2.2-4.8,2.9c-0.6,0.2-2.1,0.4-6,0.4l-0.2,0
	c-0.4,0-0.8,0.4-0.8,0.8c0,0.4,0.4,0.8,0.8,0.8c0,0,0,0,0,0l0.2,0c3.2,0,5.3-0.2,6.4-0.5c2.6-0.7,4.3-1.8,5.6-3.4
	c1.1-1.4,1.8-3.2,2.2-5.8H30V12.9z M20.5,12.8L20.5,12.8c0,0-1.4,0-1.9,0c-1,0-1.9-0.2-2.6-0.8c-1-1-1.4-2.5-1-3.9
	C15.3,7,16.1,6.2,17.3,6C17.6,6,17.8,6,18,6c0.6,0,1.1,0.2,1.5,0.6C20.7,7.8,20.8,10.7,20.5,12.8z"/>
</svg>
