<?xml version="1.0" encoding="utf-8"?>
<!-- Generator: Adobe Illustrator 19.2.0, SVG Export Plug-In . SVG Version: 6.00 Build 0)  -->
<svg version="1.1" id="Layer_1" xmlns="http://www.w3.org/2000/svg" xmlns:xlink="http://www.w3.org/1999/xlink" x="0px" y="0px"
	 viewBox="0 0 363 55" style="enable-background:new 0 0 363 55;" xml:space="preserve">
<style type="text/css">
	.st0{fill:#BA0017;}
	.st1{fill:none;}
</style>
<g>
	<g>
		<g>
			<path d="M117.5,40.6c0,0.4-0.2,0.7-0.6,1c-0.7,0.3-1.8,0.7-3.3,1.3c0-0.3,0.2-0.6,0.5-0.9C114.7,41.7,115.8,41.3,117.5,40.6z"/>
			<path d="M120.5,33.1c0,0.8-0.4,1.7-1.1,2.6c-0.6,0.8-1.4,1.4-2.3,2c-0.9,0.5-1.6,0.8-2.1,0.8c-0.5,0-1.1-0.1-1.7-0.2
				c-0.5-0.1-1-0.3-1.6-0.5c-0.5-0.2-1.1-0.4-1.6-0.6l0.2-0.4c0.5,0.1,1,0.2,1.5,0.3c0.5,0.1,1,0.2,1.5,0.2c1,0,2-0.3,3-0.9
				c0.9-0.6,1.7-1.3,2.4-2.1c0.7-0.9,1-1.6,1-2.3c0-0.6-0.2-1.2-0.5-1.9c-0.3-0.5-0.7-1.1-1.2-1.6l0.6-1.8c0.6,0.6,1.1,1.1,1.4,1.7
				c0.3,0.6,0.5,1.4,0.5,2.2V33.1z"/>
			<path d="M125.8,16.4c0,0.3-0.2,0.7-0.6,1c-0.7,0.3-1.8,0.7-3.3,1.3c0-0.3,0.2-0.6,0.5-0.9C123.1,17.5,124.2,17,125.8,16.4z"/>
			<path d="M126.6,33.1h-6.8v-2h3.9c0.5,0,0.9,0,1.2-0.1c0.3,0,0.7-0.1,1.1-0.2c-1.3-0.2-2.1-0.4-2.5-0.5c-0.9-0.4-1.3-1-1.3-1.9
				c0-0.8,0.2-1.5,0.6-2.2c0.5-0.8,1-1.2,1.7-1.2c0.8,0,1.3,0.5,1.7,1.5c0.3,0.8,0.5,1.7,0.5,2.7V33.1z M125.6,21.1l-1,1.6l-1.6-1.1
				l0.9-1.6L125.6,21.1z M125.6,29.1c-0.2-0.6-0.3-1-0.5-1.3c-0.3-0.6-0.7-0.8-1.1-0.8c-0.2,0-0.4,0.1-0.5,0.2
				c-0.2,0.2-0.2,0.4-0.2,0.6c0,0.6,0.3,1,0.9,1.1C124.3,29,124.8,29.1,125.6,29.1z"/>
			<path d="M133.5,19.9c0,0.6-0.1,1-0.3,1.4c-0.2,0.4-0.5,0.6-0.9,0.6c-0.1,0-0.3,0-0.4-0.1c-0.1,0-0.2-0.1-0.4-0.2
				c-0.1,0.3-0.3,0.5-0.4,0.6c-0.2,0.2-0.5,0.4-0.8,0.4c-0.3,0-0.5-0.1-0.7-0.3c-0.2-0.2-0.2-0.5-0.2-0.9c0-0.2,0-0.4,0.1-0.6
				c0-0.1,0.1-0.3,0.2-0.6l0.2-0.1c0,0.1,0,0.2,0,0.3s0,0.2,0,0.3c0,0.2,0,0.3,0.1,0.4c0.1,0.1,0.2,0.2,0.3,0.2
				c0.3,0,0.6-0.2,0.8-0.6c0.1-0.2,0.2-0.6,0.3-1.1l0.2-0.1c0.1,0.4,0.1,0.6,0.1,0.7c0.1,0.2,0.2,0.3,0.4,0.3c0.3,0,0.5-0.2,0.7-0.6
				c0.1-0.3,0.2-0.6,0.2-1l0.2-0.1c0,0.1,0.1,0.3,0.1,0.5C133.5,19.6,133.5,19.8,133.5,19.9z M133.3,17.2c0,0.3-0.2,0.7-0.6,1
				c-0.7,0.3-1.8,0.7-3.3,1.3c0-0.3,0.2-0.6,0.5-0.9C130.6,18.3,131.7,17.8,133.3,17.2z"/>
			<path d="M138.8,33.1h-0.9c-0.5,0-0.9-0.1-1.2-0.2c-0.3-0.1-0.7-0.3-0.9-0.6c-0.4,0.3-0.7,0.5-0.9,0.6c-0.4,0.1-0.9,0.2-1.6,0.2
				h-0.7c-0.4,0-0.8-0.1-1.2-0.2c-0.3-0.1-0.6-0.3-0.9-0.5c-0.4,0.3-0.7,0.5-1,0.6c-0.3,0.1-0.8,0.2-1.5,0.2h-2.2v-2h2.2
				c0.6,0,1-0.1,1.3-0.2c0.4-0.2,0.7-0.5,0.7-1c0-0.2,0-0.4,0-0.7c0-0.2-0.1-0.5-0.1-0.7l0.5-0.7c0.2,0.7,0.4,1.2,0.5,1.5
				c0.2,0.5,0.5,1,0.8,1.2c0.3,0.3,0.8,0.5,1.2,0.5h0.8c0.6,0,1-0.1,1.2-0.3c0.3-0.2,0.4-0.5,0.4-0.9c0-0.2,0-0.5,0-0.7
				c0-0.2-0.1-0.5-0.1-0.7l0.5-0.7l0.2,1.1c0.2,0.8,0.4,1.4,0.7,1.7c0.3,0.3,0.6,0.4,1,0.4c0.2,0,0.4-0.1,0.5-0.2
				c0.1-0.1,0.2-0.3,0.2-0.5c0-0.4-0.2-0.9-0.5-1.3c-0.1-0.1-0.2-0.3-0.6-0.7l0.7-1.2c0.3,0.5,0.5,0.9,0.6,1.2
				c0.2,0.5,0.2,1.2,0.2,2V33.1z"/>
			<path d="M143.5,33.1H138v-2h4.4l-1.3-9.5l-0.6-0.3c0-0.5,0-1,0.1-1.5s0.2-0.9,0.4-1.3l0.2,0.1c0,0.4,0.2,0.8,0.7,1
				c0.4,0.1,0.8,0.3,1.1,0.4c0,0.4,0,0.8-0.1,1.2c-0.1,0.4-0.1,0.7-0.2,1l-0.5-0.2l1.3,8.8V33.1z"/>
			<path d="M147.3,30.2c0,0.6-0.1,1.2-0.3,1.7c-0.1,0.3-0.4,0.8-0.7,1.4l-0.2-0.1c0-0.2,0-0.5,0.1-0.8c0-0.3,0-0.5,0-0.6
				c0-0.8-0.1-1.9-0.2-3.3c-0.1-1.4-0.3-2.9-0.4-4.4c-0.1-0.9-0.2-1.9-0.3-2.8c0.2-0.3,0.3-0.7,0.5-1.1c0.2-0.4,0.4-0.7,0.5-1.1
				c0.1,0.9,0.3,2,0.5,3.5s0.3,2.8,0.4,4C147.3,28.3,147.3,29.4,147.3,30.2z"/>
			<path d="M163,19.7c0,0.3-0.2,0.7-0.6,1c-0.7,0.3-1.8,0.7-3.3,1.3c0-0.3,0.2-0.6,0.5-0.9C160.3,20.9,161.4,20.4,163,19.7z"/>
			<path d="M166.8,33.1c0,1.7-0.5,2.9-1.5,3.7c-1.1,0.8-2.8,1.3-5.1,1.3c-1.5,0-2.6-0.3-3.4-0.8c-0.9-0.6-1.3-1.5-1.3-2.7
				c0-0.6,0.1-1.3,0.2-2c0.2-0.7,0.4-1.3,0.6-2c0.2-0.4,0.4-1,0.9-1.9l0.4,0.2c-0.5,1.1-0.9,1.9-1,2.5c-0.2,0.6-0.3,1.2-0.3,1.7
				c0,0.9,0.3,1.6,1,2.1c0.7,0.5,1.6,0.7,2.8,0.7c1.4,0,2.7-0.3,3.8-0.8c1.4-0.6,2-1.5,2-2.6c0-0.8-0.1-1.5-0.3-2.1
				c-0.2-0.6-0.5-1.1-0.8-1.5l0.9-2.3c0.4,0.6,0.7,1.2,0.8,1.9c0.1,0.6,0.2,1.5,0.2,2.5V33.1z M162.6,24.5l-0.8,1.6l-1.8-1l0.8-1.6
				L162.6,24.5z"/>
			<path d="M173.3,35.1c0,0.4-0.2,0.7-0.6,1c-0.7,0.3-1.8,0.7-3.3,1.3c0-0.3,0.2-0.6,0.5-0.9C170.5,36.2,171.7,35.8,173.3,35.1z"/>
			<path d="M175.8,33.1h-1.2c-0.5,0-1.1-0.1-1.7-0.3c-0.7-0.3-1.4-0.6-1.9-1.1c-0.4,0.5-0.9,0.9-1.3,1.1c-0.5,0.2-1.1,0.3-2,0.3H166
				v-2h1.7c0.7,0,1.3-0.2,1.8-0.5c0.4-0.3,0.8-0.6,1.1-1.1c0.5-0.7,1-1.2,1.7-1.7c0.6-0.4,1.1-0.7,1.7-0.8c0.5,0.8,0.9,1.5,1.2,2.1
				c0.4,0.9,0.6,1.5,0.6,2.1V33.1z M174.6,30.9c-0.1-0.4-0.2-0.9-0.4-1.3c-0.2-0.4-0.4-0.7-0.7-1.1c-0.4,0.1-0.7,0.3-0.9,0.5
				c-0.2,0.2-0.4,0.4-0.6,0.8c0.3,0.3,0.6,0.6,1.1,0.8c0.5,0.2,1,0.4,1.4,0.4L174.6,30.9z"/>
			<path d="M195.8,33.1h-2c-1.2,0-2,0-2.6,0.1c-0.6,0.1-0.9,0.2-0.9,0.4c0,0.2,0.3,0.4,1,0.4c0.3,0,0.5,0,0.7,0
				c0.2,0,0.6,0.1,1.2,0.1c0.4,0,0.6,0.1,0.7,0.2c0.2,0.1,0.3,0.3,0.3,0.6c0,1.4-0.5,2.4-1.4,3.1c-1,0.7-2.7,1-5,1
				c-1.6,0-2.9-0.3-3.8-0.8c-1-0.6-1.5-1.4-1.5-2.5c0-0.9,0.2-1.8,0.7-2.8c0.2-0.4,0.6-1.1,1.4-2.3l0.4,0.2c-0.3,0.5-0.6,1-0.8,1.4
				c-0.4,0.8-0.6,1.5-0.6,2c0,0.9,0.5,1.6,1.4,2.1c0.9,0.5,2.2,0.7,3.8,0.7c1.1,0,2-0.1,2.8-0.2c1-0.2,1.5-0.5,1.5-0.8
				c0-0.1-0.1-0.2-0.2-0.3c-0.1-0.1-0.3-0.1-0.6-0.1c-0.2,0-0.5,0-0.9-0.1c-0.4,0-0.7,0-0.8,0c-0.5,0-0.8-0.1-1-0.2
				c-0.2-0.1-0.3-0.3-0.3-0.6c0-0.9,0.3-1.7,0.8-2.3c0.4-0.5,1.1-0.8,1.8-1.1c0.6-0.2,1.2-0.3,1.8-0.3h2V33.1z M188.8,40.3l-1,1
				l-1.3-0.8l1-1.1L188.8,40.3z M191.1,40.3l-1,1l-1.3-0.8l1-1.1L191.1,40.3z"/>
			<path d="M201.1,35.1c0,0.4-0.2,0.7-0.6,1c-0.7,0.3-1.8,0.7-3.3,1.3c0-0.3,0.2-0.6,0.5-0.9C198.4,36.2,199.5,35.8,201.1,35.1z"/>
			<path d="M208,33.1h-13v-2h9.2c-0.8-0.6-1.4-1.1-1.9-1.4c-0.7-0.4-1.2-0.7-1.8-0.9c-0.6-0.2-1.2-0.3-1.8-0.3c-0.4,0-0.8,0-1.2,0.1
				c0.2-0.6,0.5-1,0.9-1.3c0.5-0.5,1.2-0.7,1.9-0.7c0.8,0,1.7,0.4,2.7,1.1c0.5,0.4,1.4,1.1,2.5,2.1c0.9,0.8,1.5,1.3,1.8,1.3h0.7
				V33.1z M202.6,22.6l-0.9,1.6l-1.8-0.9l0.8-1.6L202.6,22.6z"/>
			<path d="M212.4,12.8c0,0.3-0.2,0.7-0.6,1c-0.7,0.3-1.8,0.7-3.3,1.3c0-0.3,0.2-0.6,0.5-0.9C209.7,13.9,210.8,13.4,212.4,12.8z"/>
			<path d="M212.1,18c0,0.2-0.1,0.4-0.3,0.5c-0.2,0.1-0.4,0.2-0.7,0.3l-2.1,0.7c0-0.3,0.4-0.6,1.1-0.9c-0.2-0.1-0.4-0.2-0.5-0.3
				c-0.2-0.1-0.2-0.3-0.2-0.4c0-0.2,0.2-0.6,0.6-1c0.4-0.5,0.8-0.7,1.2-0.7c0.2,0,0.3,0.1,0.4,0.2c0.1,0.1,0.2,0.2,0.2,0.4
				c0,0.1,0,0.2-0.1,0.3c0,0.1-0.1,0.2-0.2,0.4c-0.2-0.2-0.5-0.3-0.8-0.3c-0.2,0-0.3,0-0.5,0.1s-0.2,0.1-0.2,0.2
				c0,0.1,0.2,0.3,0.5,0.5c0.3,0.2,0.6,0.3,0.9,0.3c0.2,0,0.3,0,0.4,0C211.7,18.1,211.8,18.1,212.1,18z M211.7,30.2
				c0,0.6-0.1,1.2-0.3,1.7c-0.1,0.3-0.4,0.8-0.7,1.4l-0.2-0.1c0-0.2,0-0.5,0.1-0.8c0-0.3,0-0.5,0-0.6c0-0.8-0.1-1.9-0.2-3.3
				c-0.1-1.4-0.3-2.9-0.4-4.4c-0.1-0.9-0.2-1.9-0.3-2.8c0.2-0.3,0.3-0.7,0.5-1.1c0.2-0.4,0.4-0.7,0.5-1.1c0.1,0.9,0.3,2,0.5,3.5
				s0.3,2.8,0.4,4C211.7,28.3,211.7,29.4,211.7,30.2z"/>
			<path d="M226.6,19.7c0,0.3-0.2,0.7-0.6,1c-0.7,0.3-1.8,0.7-3.3,1.3c0-0.3,0.2-0.6,0.5-0.9C223.9,20.9,225,20.4,226.6,19.7z"/>
			<path class="st0" d="M230.3,39.4l-2.3,1.8c-1.4,0-2.5-0.1-3.3-0.2c-1.5-0.2-2.6-0.7-3.4-1.3c-1.1-0.9-1.6-2.1-1.6-3.6
				c0-1,0.2-2,0.6-2.9c0.3-0.7,0.8-1.4,1.4-2.1c0.3-0.3,0.8-0.9,1.7-1.6c-0.1-0.3-0.2-0.4-0.3-0.6c-0.1-0.1-0.3-0.2-0.4-0.2
				c-0.2,0-0.4,0.1-0.6,0.4h-0.2c0.2-0.8,0.3-1.3,0.5-1.6c0.4-0.7,1.1-1.1,2.1-1.1c0.6,0,1.2,0.2,1.7,0.5c0.5,0.4,0.8,0.8,0.8,1.4
				c0,0.4-0.1,0.7-0.4,0.9c-0.3,0.2-0.5,0.4-0.6,0.5c0.4,0.5,0.8,0.9,1.2,1.1c0.4,0.2,0.9,0.3,1.4,0.3h1v2h-1c-1.1,0-2-0.2-2.7-0.5
				c-0.6-0.3-1.1-0.9-1.5-1.7c-0.5,0.4-1,0.7-1.5,1.1c-0.6,0.5-1.1,1-1.4,1.5c-0.4,0.6-0.6,1.2-0.6,1.8c0,1.3,0.6,2.2,1.9,2.9
				c1,0.5,2.3,0.9,4,1.1C227.5,39.3,228.7,39.3,230.3,39.4L230.3,39.4z"/>
			<path class="st0" d="M237,19.7c0,0.3-0.2,0.7-0.6,1c-0.7,0.3-1.8,0.7-3.3,1.3c0-0.3,0.2-0.6,0.5-0.9
				C234.2,20.9,235.4,20.4,237,19.7z"/>
			<path class="st0" d="M241.6,33.1h-13v-2h9.2c-0.8-0.6-1.4-1.1-1.9-1.4c-0.7-0.4-1.2-0.7-1.8-0.9c-0.6-0.2-1.2-0.3-1.8-0.3
				c-0.4,0-0.8,0-1.2,0.1c0.2-0.6,0.5-1,0.9-1.3c0.5-0.5,1.2-0.7,1.9-0.7c0.8,0,1.7,0.4,2.7,1.1c0.5,0.4,1.4,1.1,2.5,2.1
				c0.9,0.8,1.5,1.3,1.8,1.3h0.7V33.1z M235.9,35.5l-0.8,1.6l-1.8-0.9l0.9-1.6L235.9,35.5z"/>
			<path class="st0" d="M249.2,19.7c0,0.3-0.2,0.7-0.6,1c-0.7,0.3-1.8,0.7-3.3,1.3c0-0.3,0.2-0.6,0.5-0.9
				C246.4,20.9,247.5,20.4,249.2,19.7z"/>
			<path class="st0" d="M252.9,33.1c0,0.8-0.4,1.7-1.1,2.6c-0.6,0.8-1.4,1.4-2.3,2c-0.9,0.5-1.6,0.8-2.1,0.8c-0.5,0-1.1-0.1-1.7-0.2
				c-0.5-0.1-1-0.3-1.6-0.5c-0.5-0.2-1.1-0.4-1.6-0.6l0.2-0.4c0.5,0.1,1,0.2,1.5,0.3c0.5,0.1,1,0.2,1.5,0.2c1,0,2-0.3,3-0.9
				c0.9-0.6,1.7-1.3,2.4-2.1c0.7-0.9,1-1.6,1-2.3c0-0.6-0.2-1.2-0.5-1.9c-0.3-0.5-0.7-1.1-1.2-1.6l0.6-1.8c0.6,0.6,1.1,1.1,1.4,1.7
				c0.3,0.6,0.5,1.4,0.5,2.2V33.1z"/>
		</g>
	</g>
	<rect class="st1" width="363" height="55"/>
</g>
</svg>
