<?xml version="1.0" encoding="utf-8"?>
<!-- Generator: Adobe Illustrator 19.2.0, SVG Export Plug-In . SVG Version: 6.00 Build 0)  -->
<svg version="1.1" id="Layer_1" xmlns="http://www.w3.org/2000/svg" xmlns:xlink="http://www.w3.org/1999/xlink" x="0px" y="0px"
	 viewBox="0 0 362.5 73.7" style="enable-background:new 0 0 362.5 73.7;" xml:space="preserve">
<style type="text/css">
	.st0{fill:#097B70;}
	.st1{fill:none;}
</style>
<g>
	<g>
		<path class="st0" d="M168.3,47h-1.7c-0.3,0-0.6-0.1-0.8-0.2c-0.5-0.2-0.9-0.7-1.2-1.3c-0.5-0.9-0.8-2.1-0.9-3.7
			c-0.6,0.7-1,1.2-1.3,1.5c-0.5,0.4-0.9,0.6-1.2,0.6c-0.2,0-0.4,0-0.6-0.1l-1.5-0.3c-0.7-0.1-1.1-0.2-1.2-0.3
			c-0.2-0.1-0.2-0.2-0.2-0.3c0-0.2,0.3-1,0.9-2.2c0.6-1.2,1-2,1.3-2.3c0.2-0.2,0.6-0.5,1.1-0.9c0.3-0.2,0.8-0.5,1.4-0.9l0.7-0.4
			c0-0.1,0-0.2-0.1-0.4c0-0.1,0-0.2,0-0.3c0-0.3,0.1-0.7,0.2-1.2c0.1-0.5,0.4-1.1,0.8-1.8l1.2,7.9c0.2,1.2,0.4,2.1,0.8,2.5
			c0.2,0.3,0.5,0.4,0.8,0.4h1.7V47z M165.4,29.2l-1.4,2.4l-1.8-1l-1,2l-2.4-1.3l1.3-2.2L162,30l1.1-1.9L165.4,29.2z M163.4,39.8
			l-0.3-1.5c-0.3,0.1-0.5,0.2-0.6,0.3c-0.5,0.2-0.8,0.5-1.1,0.7c-0.2,0.2-0.4,0.3-0.5,0.5c-0.2,0.2-0.3,0.3-0.3,0.4
			c0,0.1,0.1,0.2,0.4,0.3c0.3,0.1,0.6,0.1,0.9,0.1c0.2,0,0.4-0.1,0.6-0.2C162.7,40.3,163,40.1,163.4,39.8z"/>
		<path class="st0" d="M174.4,47h-7v-3.5h5.5l-1.5-8.6l-0.8-0.5c0-0.5,0.1-1,0.2-1.5c0.2-0.6,0.5-1.4,1-2.3l0.6,0.3
			c0,0.1,0,0.2-0.1,0.4c0,0.3,0.2,0.5,0.5,0.8c0.3,0.2,0.8,0.5,1.5,0.8c-0.1,0.5-0.2,1.1-0.3,1.6c-0.1,0.5-0.3,1-0.5,1.4l-0.5-0.2
			l1.4,7.9V47z"/>
		<path class="st0" d="M180.5,47h-1.8c-1,0-1.7-0.4-2.1-1.2c-0.5-0.9-0.7-2.4-0.7-4.5v-3.6c0-0.8-0.1-1.5-0.3-1.9
			c-0.1-0.2-0.4-0.5-0.8-1l1.4-3.2c0.5,0.7,0.8,1.3,1,2c0.2,0.8,0.3,1.8,0.3,2.9V39c0,1.8,0.1,3,0.4,3.7c0.2,0.5,0.5,0.8,0.9,0.8
			h1.8V47z"/>
		<path class="st0" d="M194.1,47h-14.5v-3.5h9c-1-1.1-2-1.8-2.8-2.3c-0.8-0.4-1.5-0.6-2.3-0.6c-0.2,0-0.4,0-0.6,0
			c-0.2,0-0.4,0.1-0.8,0.1c0.5-1.1,1-1.9,1.6-2.4c0.6-0.5,1.2-0.8,1.9-0.8c0.6,0,1.1,0.1,1.6,0.4c0.5,0.3,1.1,0.7,1.7,1.3
			c0.5,0.5,1.2,1.2,2.2,2.2c0.6,0.7,1.1,1.2,1.5,1.4c0.3,0.2,0.8,0.4,1.5,0.5V47z"/>
		<path class="st0" d="M200.2,47h-7v-3.5h5.5l-1.5-8.6l-0.8-0.5c0-0.5,0.1-1,0.2-1.5c0.2-0.6,0.5-1.4,1-2.3l0.6,0.3
			c0,0.1,0,0.2-0.1,0.4c0,0.3,0.2,0.5,0.5,0.8c0.3,0.2,0.8,0.5,1.5,0.8c-0.1,0.5-0.2,1.1-0.3,1.6c-0.1,0.5-0.3,1-0.5,1.4l-0.5-0.2
			l1.4,7.9V47z"/>
		<path class="st0" d="M204.9,43.3c0,0.8-0.1,1.4-0.3,2.1s-0.5,1.5-1,2.5l-0.8-0.3c0.2-1.1,0.3-2,0.3-2.6c0-0.5,0-1.3-0.1-2.3
			c-0.1-1-0.2-2-0.3-3c-0.1-1-0.3-2.1-0.6-3.5c-0.1-0.5-0.2-0.8-0.2-1c0-0.3,0.1-0.7,0.4-1.3c0.3-0.6,0.6-1.4,1.1-2.3l0.8,4.5
			c0.3,1.7,0.5,3.2,0.6,4.4C204.9,41.5,204.9,42.4,204.9,43.3z"/>
	</g>
	<rect class="st1" width="362.5" height="73.7"/>
</g>
</svg>
