<?xml version="1.0" encoding="utf-8"?>
<!-- Generator: Adobe Illustrator 19.2.0, SVG Export Plug-In . SVG Version: 6.00 Build 0)  -->
<svg version="1.1" id="Layer_1" xmlns="http://www.w3.org/2000/svg" xmlns:xlink="http://www.w3.org/1999/xlink" x="0px" y="0px"
	 viewBox="0 0 363 55" style="enable-background:new 0 0 363 55;" xml:space="preserve">
<style type="text/css">
	.st0{fill:#BA0017;}
	.st1{fill:none;}
</style>
<g>
	<g>
		<g>
			<path d="M103.4,15.8c0,0.3-0.2,0.7-0.6,1c-0.7,0.3-1.8,0.7-3.3,1.3c0-0.3,0.2-0.6,0.5-0.9C100.6,16.9,101.7,16.4,103.4,15.8z"/>
			<path d="M105.6,33.6H104c-0.5,0-1-0.5-1.4-1.4c-0.3-0.7-0.6-1.6-0.7-2.7c-0.2,0.4-0.5,0.7-0.9,1c-0.3,0.2-0.7,0.3-1.1,0.3
				c-0.9,0-1.6-0.1-2.2-0.2c-0.6-0.1-0.9-0.3-0.9-0.4c0-0.6,0.4-1.4,1.3-2.1c0.8-0.8,1.9-1.5,3.1-2c0-0.1,0-0.2-0.1-0.5
				c0-0.3-0.1-0.4-0.1-0.5c0-0.3,0.1-0.5,0.3-0.9c0.1-0.3,0.3-0.5,0.6-0.8c0.1,0.5,0.2,0.9,0.2,1.3c0.1,0.4,0.2,0.9,0.3,1.3l0.3,1.9
				c0.2,1.1,0.4,1.8,0.5,2.4c0.2,0.8,0.5,1.2,0.7,1.2h1.6V33.6z M100.2,21.2l-0.9,1.6l-1.8-0.9l0.8-1.6L100.2,21.2z M101.7,28.6
				l-0.2-1.2c-0.7,0.2-1.2,0.5-1.5,0.7c-0.4,0.3-0.7,0.6-0.9,1c0.2,0.1,0.3,0.1,0.6,0.2c0.2,0,0.5,0.1,0.9,0.1
				C100.8,29.3,101.3,29.1,101.7,28.6z M102.7,20.2l-0.9,1.6l-1.8-1l0.8-1.6L102.7,20.2z"/>
			<path d="M111.1,20.5c0,0.6-0.1,1-0.3,1.4c-0.2,0.4-0.5,0.6-0.9,0.6c-0.1,0-0.3,0-0.4-0.1s-0.2-0.1-0.4-0.2
				c-0.2,0.3-0.3,0.5-0.4,0.6c-0.2,0.2-0.5,0.4-0.8,0.4c-0.3,0-0.5-0.1-0.7-0.3c-0.2-0.2-0.2-0.5-0.2-0.9c0-0.2,0-0.4,0.1-0.6
				c0.1-0.2,0.1-0.4,0.2-0.6l0.2-0.1c0,0.1,0,0.2,0,0.3s0,0.2,0,0.3c0,0.2,0,0.3,0.1,0.4c0.1,0.1,0.2,0.2,0.3,0.2
				c0.3,0,0.6-0.2,0.8-0.6c0.1-0.2,0.2-0.6,0.3-1.1l0.2-0.1c0.1,0.4,0.1,0.6,0.1,0.7c0.1,0.2,0.2,0.3,0.4,0.3c0.3,0,0.5-0.2,0.7-0.6
				c0.1-0.3,0.2-0.6,0.2-0.9l0.2-0.1c0,0.1,0.1,0.3,0.1,0.5S111.1,20.3,111.1,20.5z"/>
			<path d="M111.2,33.6h-6.4v-2h5.6c0-0.9-0.1-1.6-0.3-2c-0.1-0.3-0.5-0.8-1.1-1.4l0.9-1.8c0.5,0.7,0.9,1.2,1,1.6
				c0.2,0.6,0.3,1.5,0.3,2.9V33.6z M108.6,36.9l-0.9,1.6l-1.8-0.9l0.8-1.6L108.6,36.9z M111.1,35.8l-0.9,1.6l-1.8-1l0.8-1.6
				L111.1,35.8z"/>
			<path d="M116.8,33.6h-6.4v-2h5.6c0-0.9-0.1-1.6-0.3-2c-0.1-0.3-0.5-0.8-1.1-1.4l0.9-1.8c0.5,0.7,0.9,1.2,1,1.6
				c0.2,0.6,0.3,1.5,0.3,2.9V33.6z M115.9,23.2l-0.9,1.6l-1.8-0.9l0.8-1.6L115.9,23.2z"/>
			<path d="M122.1,16.9c0,0.3-0.2,0.7-0.6,1c-0.7,0.3-1.8,0.7-3.3,1.3c0-0.3,0.2-0.6,0.5-0.9C119.4,18,120.5,17.6,122.1,16.9z"/>
			<path d="M123,33.6H116v-2h6c0-0.7-0.1-1.3-0.2-1.9c-0.4,0.1-0.7,0.2-0.9,0.3c-0.3,0.1-0.6,0.1-0.9,0.1c-0.5,0-1-0.1-1.3-0.4
				c-0.4-0.3-0.6-0.8-0.6-1.4c0-1,0.2-2,0.6-2.7c0.4-0.9,1-1.3,1.6-1.3c0.9,0,1.6,0.7,2.1,2.1c0.4,1.2,0.6,2.6,0.6,4.2V33.6z
				 M121.5,21.2l-0.9,1.6l-1.8-1l0.8-1.6L121.5,21.2z M121.1,27.8c-0.1-0.3-0.3-0.5-0.5-0.8c-0.3-0.4-0.6-0.6-0.9-0.6
				c-0.2,0-0.4,0.1-0.5,0.3c-0.1,0.2-0.2,0.4-0.2,0.6c0,0.6,0.3,0.9,1,0.9c0.2,0,0.4,0,0.5-0.1C120.8,28,121,27.9,121.1,27.8z"/>
			<path d="M135.8,15.8c0,0.3-0.2,0.7-0.6,1c-0.7,0.3-1.8,0.7-3.3,1.3c0-0.3,0.2-0.6,0.5-0.9C133,16.9,134.1,16.4,135.8,15.8z"/>
			<path d="M138,33.6h-1.6c-0.5,0-1-0.5-1.4-1.4c-0.3-0.7-0.6-1.6-0.7-2.7c-0.2,0.4-0.5,0.7-0.9,1c-0.3,0.2-0.7,0.3-1.1,0.3
				c-0.9,0-1.6-0.1-2.2-0.2c-0.6-0.1-0.9-0.3-0.9-0.4c0-0.6,0.4-1.4,1.3-2.1c0.8-0.8,1.9-1.5,3.1-2c0-0.1,0-0.2-0.1-0.5
				c0-0.3-0.1-0.4-0.1-0.5c0-0.3,0.1-0.5,0.3-0.9c0.1-0.3,0.3-0.5,0.6-0.8c0.1,0.5,0.2,0.9,0.2,1.3c0.1,0.4,0.2,0.9,0.3,1.3l0.3,1.9
				c0.2,1.1,0.4,1.8,0.5,2.4c0.2,0.8,0.5,1.2,0.7,1.2h1.6V33.6z M132.6,21.2l-0.9,1.6l-1.8-0.9l0.8-1.6L132.6,21.2z M134.1,28.6
				l-0.2-1.2c-0.7,0.2-1.2,0.5-1.5,0.7c-0.4,0.3-0.7,0.6-0.9,1c0.2,0.1,0.3,0.1,0.6,0.2c0.2,0,0.5,0.1,0.9,0.1
				C133.2,29.3,133.7,29.1,134.1,28.6z M135.1,20.2l-0.9,1.6l-1.8-1l0.8-1.6L135.1,20.2z"/>
			<path d="M145.5,20.3c0,0.3-0.2,0.7-0.6,1c-0.7,0.3-1.8,0.7-3.3,1.3c0-0.3,0.2-0.6,0.5-0.9C142.8,21.4,143.9,20.9,145.5,20.3z"/>
			<path d="M150.2,33.6h-13v-2h9.2c-0.8-0.6-1.4-1.1-1.9-1.4c-0.7-0.4-1.2-0.7-1.8-0.9c-0.6-0.2-1.2-0.3-1.8-0.3
				c-0.4,0-0.8,0-1.2,0.1c0.2-0.6,0.5-1,0.9-1.3c0.5-0.5,1.2-0.7,1.9-0.7c0.8,0,1.7,0.4,2.7,1.1c0.5,0.4,1.4,1.1,2.5,2.1
				c0.9,0.8,1.5,1.3,1.8,1.3h0.7V33.6z"/>
			<path d="M159.3,20.9c0,0.5-0.2,0.9-0.5,1.2c-0.3,0.4-0.8,0.6-1.3,0.6c-0.4,0-0.7-0.1-0.9-0.3c-0.2-0.2-0.3-0.5-0.3-0.9
				c0-0.6,0.1-1.1,0.4-1.5s0.7-0.7,1.1-0.7c0.4,0,0.7,0.2,1,0.5S159.3,20.5,159.3,20.9z M158.7,21.2c0-0.2-0.1-0.4-0.4-0.7
				c-0.3-0.3-0.5-0.4-0.7-0.4c-0.2,0-0.4,0.1-0.5,0.3c-0.1,0.2-0.2,0.3-0.2,0.5c0,0.3,0.1,0.4,0.4,0.5c0.2,0.1,0.5,0.1,0.8,0.1
				c0.2,0,0.3,0,0.5-0.1C158.6,21.5,158.7,21.4,158.7,21.2z"/>
			<path d="M160.1,32.9c0,1.2-0.5,2.5-1.4,3.7c-1,1.4-2.2,2-3.5,2c-0.5,0-1-0.1-1.5-0.2c-0.4-0.1-0.9-0.2-1.5-0.4
				c-0.5-0.2-1-0.3-1.5-0.5l0.2-0.4c0.4,0.1,0.9,0.2,1.3,0.3c0.5,0.1,0.9,0.2,1.2,0.2c0.9,0,1.8-0.2,2.6-0.7
				c0.6-0.4,1.3-0.9,1.9-1.6c0.3-0.4,0.8-0.9,1.4-1.7c-1,0-1.8-0.2-2.3-0.5c-0.6-0.4-0.9-1-0.9-1.8c0-0.8,0.2-1.5,0.5-2.1
				c0.4-0.8,1-1.1,1.6-1.1c0.7,0,1.1,0.4,1.4,1.1c0.2,0.6,0.3,1.4,0.3,2.5V32.9z M159.4,31.7c-0.2-0.7-0.4-1.2-0.6-1.5
				c-0.2-0.2-0.4-0.4-0.7-0.4c-0.2,0-0.4,0.1-0.5,0.2c-0.2,0.1-0.2,0.3-0.2,0.5c0,0.4,0.2,0.6,0.5,0.8
				C158.1,31.6,158.7,31.7,159.4,31.7z"/>
			<path d="M164.8,15.8c0,0.3-0.2,0.7-0.6,1c-0.7,0.3-1.8,0.7-3.3,1.3c0-0.3,0.2-0.6,0.5-0.9C162.1,16.9,163.2,16.4,164.8,15.8z"/>
			<path d="M164.9,33.6h-5.5v-2h4.4l-1.3-9.5l-0.6-0.3c0-0.5,0-1,0.1-1.5c0.1-0.5,0.2-0.9,0.4-1.3l0.2,0.1c0,0.4,0.2,0.8,0.7,1
				c0.4,0.2,0.8,0.3,1.1,0.4c0,0.4,0,0.8-0.1,1.2c-0.1,0.4-0.1,0.7-0.2,1l-0.5-0.2l1.3,8.8V33.6z"/>
			<path d="M184.8,33.6h-2c-1.2,0-2,0-2.6,0.1c-0.6,0.1-0.9,0.2-0.9,0.4c0,0.2,0.3,0.4,1,0.4c0.3,0,0.5,0,0.7,0
				c0.2,0,0.6,0.1,1.2,0.1c0.4,0,0.6,0.1,0.7,0.2c0.2,0.1,0.3,0.3,0.3,0.6c0,1.4-0.5,2.4-1.4,3.1c-1,0.7-2.7,1-5,1
				c-1.6,0-2.9-0.3-3.8-0.8c-1-0.6-1.5-1.4-1.5-2.5c0-0.9,0.2-1.8,0.7-2.8c0.2-0.4,0.6-1.1,1.4-2.3l0.4,0.2c-0.3,0.5-0.6,1-0.8,1.4
				c-0.4,0.8-0.6,1.5-0.6,2c0,0.9,0.5,1.6,1.4,2.1c0.9,0.5,2.2,0.7,3.8,0.7c1.1,0,2-0.1,2.8-0.2c1-0.2,1.5-0.5,1.5-0.8
				c0-0.1-0.1-0.2-0.2-0.3c-0.1-0.1-0.3-0.1-0.6-0.1c-0.2,0-0.5,0-0.9-0.1s-0.7,0-0.8,0c-0.5,0-0.8-0.1-1-0.2
				c-0.2-0.1-0.3-0.3-0.3-0.6c0-0.9,0.3-1.7,0.8-2.3c0.4-0.5,1.1-0.8,1.8-1.1c0.6-0.2,1.2-0.3,1.8-0.3h2V33.6z"/>
			<path d="M191.2,20.3c0,0.3-0.2,0.7-0.6,1c-0.7,0.3-1.8,0.7-3.3,1.3c0-0.3,0.2-0.6,0.5-0.9C188.5,21.4,189.6,20.9,191.2,20.3z"/>
			<path d="M193.9,33.6h-1.2c-0.5,0-1.1-0.1-1.7-0.3c-0.7-0.3-1.4-0.6-1.9-1.1c-0.4,0.5-0.9,0.9-1.3,1.1c-0.5,0.2-1.1,0.3-2,0.3H184
				v-2h1.7c0.7,0,1.3-0.2,1.8-0.5c0.4-0.3,0.8-0.6,1.1-1.1c0.5-0.7,1-1.2,1.7-1.7c0.6-0.4,1.1-0.7,1.7-0.8c0.5,0.8,0.9,1.5,1.2,2.1
				c0.4,0.9,0.6,1.5,0.6,2.1V33.6z M192.6,31.4c-0.1-0.4-0.2-0.9-0.4-1.3c-0.2-0.4-0.4-0.7-0.7-1.1c-0.4,0.1-0.7,0.3-0.9,0.5
				c-0.2,0.2-0.4,0.4-0.6,0.8c0.3,0.3,0.6,0.6,1.1,0.8c0.5,0.2,1,0.4,1.4,0.4L192.6,31.4z"/>
			<path d="M198.3,16.5c0,0.5-0.2,0.9-0.5,1.2c-0.3,0.4-0.8,0.6-1.3,0.6c-0.4,0-0.7-0.1-0.9-0.3c-0.2-0.2-0.3-0.5-0.3-0.9
				c0-0.6,0.1-1.1,0.4-1.5s0.7-0.7,1.1-0.7c0.4,0,0.7,0.2,1,0.5S198.3,16,198.3,16.5z M197.6,16.8c0-0.2-0.1-0.4-0.4-0.7
				c-0.3-0.3-0.5-0.4-0.7-0.4c-0.2,0-0.4,0.1-0.5,0.3c-0.1,0.2-0.2,0.3-0.2,0.5c0,0.3,0.1,0.4,0.4,0.5c0.2,0.1,0.5,0.1,0.8,0.1
				c0.2,0,0.3,0,0.5-0.1C197.5,17,197.6,16.9,197.6,16.8z"/>
			<path d="M198.6,33.6h-5.5v-2h4.4l-1.3-9.5l-0.6-0.3c0-0.5,0-1,0.1-1.5c0.1-0.5,0.2-0.9,0.4-1.3l0.2,0.1c0,0.4,0.2,0.8,0.7,1
				c0.4,0.2,0.8,0.3,1.1,0.4c0,0.4,0,0.8-0.1,1.2c-0.1,0.4-0.1,0.7-0.2,1l-0.5-0.2l1.3,8.8V33.6z"/>
			<path d="M205.6,20.3c0,0.3-0.2,0.7-0.6,1c-0.7,0.3-1.8,0.7-3.3,1.3c0-0.3,0.2-0.6,0.5-0.9C202.8,21.4,204,20.9,205.6,20.3z"/>
			<path d="M210.8,33.6H210c-0.5,0-0.9-0.1-1.2-0.2s-0.7-0.3-0.9-0.6c-0.4,0.3-0.7,0.5-0.9,0.5c-0.4,0.1-0.9,0.2-1.6,0.2h-0.7
				c-0.4,0-0.8-0.1-1.2-0.2c-0.3-0.1-0.6-0.3-0.9-0.5c-0.4,0.3-0.7,0.5-1,0.6c-0.3,0.1-0.8,0.2-1.5,0.2h-2.2v-2h2.2
				c0.6,0,1-0.1,1.3-0.2c0.4-0.2,0.7-0.5,0.7-1c0-0.2,0-0.4,0-0.7c0-0.2-0.1-0.5-0.1-0.7l0.5-0.7c0.2,0.7,0.4,1.2,0.5,1.5
				c0.2,0.5,0.5,1,0.8,1.2c0.3,0.3,0.8,0.5,1.2,0.5h0.8c0.6,0,1-0.1,1.2-0.3c0.3-0.2,0.4-0.5,0.4-0.9c0-0.2,0-0.5,0-0.7
				c0-0.2-0.1-0.5-0.1-0.7l0.5-0.7l0.2,1.1c0.2,0.8,0.4,1.4,0.7,1.7c0.3,0.3,0.6,0.4,1,0.4c0.2,0,0.4-0.1,0.5-0.2
				c0.1-0.1,0.2-0.3,0.2-0.5c0-0.4-0.2-0.9-0.5-1.3c-0.1-0.1-0.2-0.3-0.6-0.7l0.7-1.2c0.3,0.5,0.5,0.9,0.6,1.2
				c0.2,0.5,0.2,1.2,0.2,2V33.6z"/>
			<path class="st0" d="M225,18.7c0,0.5-0.2,0.9-0.5,1.2c-0.3,0.4-0.8,0.6-1.3,0.6c-0.4,0-0.7-0.1-0.9-0.3c-0.2-0.2-0.3-0.5-0.3-0.9
				c0-0.6,0.1-1.1,0.4-1.5s0.7-0.7,1.1-0.7c0.4,0,0.7,0.2,1,0.5S225,18.2,225,18.7z M224.3,19c0-0.2-0.1-0.4-0.4-0.7
				c-0.3-0.3-0.5-0.4-0.7-0.4c-0.2,0-0.4,0.1-0.5,0.3c-0.1,0.2-0.2,0.3-0.2,0.5c0,0.3,0.1,0.4,0.4,0.5c0.2,0.1,0.5,0.1,0.8,0.1
				c0.2,0,0.3,0,0.5-0.1C224.3,19.2,224.3,19.1,224.3,19z"/>
			<path class="st0" d="M233.6,33.6h-10.7c-1.4,0-2.6-0.3-3.4-0.8c-1.1-0.6-1.6-1.6-1.6-3c0-0.7,0.2-1.4,0.5-2.1
				c0.1-0.3,0.4-0.8,0.8-1.5l0.3,0.2c-0.2,0.3-0.3,0.7-0.5,1c-0.2,0.5-0.3,1-0.3,1.4c0,0.9,0.5,1.6,1.4,2.1c0.8,0.4,1.9,0.7,3.2,0.7
				h9.5v-0.3c0-0.8-0.1-1.5-0.3-2c-0.2-0.5-0.5-1-1-1.4l0.9-1.8c0.3,0.4,0.5,0.7,0.6,0.8c0.5,0.8,0.8,2.1,0.8,3.7V33.6z M225.8,24.4
				l-0.9,1.6l-1.8-0.9l0.8-1.6L225.8,24.4z M228.3,23.4l-0.9,1.6l-1.8-1l0.8-1.6L228.3,23.4z"/>
			<path class="st0" d="M240,20.3c0,0.3-0.2,0.7-0.6,1c-0.7,0.3-1.8,0.7-3.3,1.3c0-0.3,0.2-0.6,0.5-0.9
				C237.3,21.4,238.4,20.9,240,20.3z"/>
			<path class="st0" d="M242.7,33.6h-1.2c-0.5,0-1.1-0.1-1.7-0.3c-0.7-0.3-1.4-0.6-1.9-1.1c-0.4,0.5-0.9,0.9-1.3,1.1s-1.1,0.3-2,0.3
				h-1.8v-2h1.7c0.7,0,1.3-0.2,1.8-0.5c0.4-0.3,0.8-0.6,1.1-1.1c0.5-0.7,1-1.2,1.7-1.7c0.6-0.4,1.1-0.7,1.7-0.8
				c0.5,0.8,0.9,1.5,1.2,2.1c0.4,0.9,0.6,1.5,0.6,2.1V33.6z M241.4,31.4c-0.1-0.4-0.2-0.9-0.4-1.3c-0.2-0.4-0.4-0.7-0.7-1.1
				c-0.4,0.1-0.7,0.3-0.9,0.5c-0.2,0.2-0.4,0.4-0.6,0.8c0.3,0.3,0.6,0.6,1.1,0.8c0.5,0.2,1,0.4,1.4,0.4L241.4,31.4z"/>
			<path class="st0" d="M249.6,20.3c0,0.3-0.2,0.7-0.6,1c-0.7,0.3-1.8,0.7-3.3,1.3c0-0.3,0.2-0.6,0.5-0.9
				C246.9,21.4,248,20.9,249.6,20.3z"/>
			<path class="st0" d="M254.9,33.6H254c-0.5,0-0.9-0.1-1.2-0.2s-0.7-0.3-0.9-0.6c-0.4,0.3-0.7,0.5-0.9,0.5
				c-0.4,0.1-0.9,0.2-1.6,0.2h-0.7c-0.4,0-0.8-0.1-1.2-0.2c-0.3-0.1-0.6-0.3-0.9-0.5c-0.4,0.3-0.7,0.5-1,0.6
				c-0.3,0.1-0.8,0.2-1.5,0.2h-2.2v-2h2.2c0.6,0,1-0.1,1.3-0.2c0.4-0.2,0.7-0.5,0.7-1c0-0.2,0-0.4,0-0.7c0-0.2-0.1-0.5-0.1-0.7
				l0.5-0.7c0.2,0.7,0.4,1.2,0.5,1.5c0.2,0.5,0.5,1,0.8,1.2c0.3,0.3,0.8,0.5,1.2,0.5h0.8c0.6,0,1-0.1,1.2-0.3
				c0.3-0.2,0.4-0.5,0.4-0.9c0-0.2,0-0.5,0-0.7c0-0.2-0.1-0.5-0.1-0.7l0.5-0.7l0.2,1.1c0.2,0.8,0.4,1.4,0.7,1.7
				c0.3,0.3,0.6,0.4,1,0.4c0.2,0,0.4-0.1,0.5-0.2c0.1-0.1,0.2-0.3,0.2-0.5c0-0.4-0.2-0.9-0.5-1.3c-0.1-0.1-0.2-0.3-0.6-0.7l0.7-1.2
				c0.3,0.5,0.5,0.9,0.6,1.2c0.2,0.5,0.2,1.2,0.2,2V33.6z"/>
			<path class="st0" d="M262.4,20.3c0,0.3-0.2,0.7-0.6,1c-0.7,0.3-1.8,0.7-3.3,1.3c0-0.3,0.2-0.6,0.5-0.9
				C259.7,21.4,260.8,20.9,262.4,20.3z"/>
			<path class="st0" d="M266.1,33.6c0,0.8-0.4,1.7-1.1,2.6c-0.6,0.8-1.4,1.4-2.3,2c-0.9,0.5-1.6,0.8-2.1,0.8c-0.5,0-1.1-0.1-1.7-0.2
				c-0.5-0.1-1-0.3-1.6-0.5c-0.5-0.2-1.1-0.4-1.6-0.6l0.2-0.4c0.5,0.1,1,0.2,1.5,0.3c0.5,0.1,1,0.2,1.5,0.2c1,0,2-0.3,3-0.9
				c0.9-0.6,1.7-1.3,2.4-2.1s1-1.6,1-2.3c0-0.6-0.2-1.2-0.5-1.9c-0.3-0.5-0.7-1.1-1.2-1.6l0.6-1.8c0.6,0.6,1.1,1.1,1.4,1.7
				c0.3,0.6,0.5,1.4,0.5,2.2V33.6z"/>
		</g>
	</g>
	<rect class="st1" width="363" height="55"/>
</g>
</svg>
