<?xml version="1.0" encoding="utf-8"?>
<!-- Generator: Adobe Illustrator 19.2.0, SVG Export Plug-In . SVG Version: 6.00 Build 0)  -->
<svg version="1.1" id="Layer_1" xmlns="http://www.w3.org/2000/svg" xmlns:xlink="http://www.w3.org/1999/xlink" x="0px" y="0px"
	 viewBox="0 0 363 55" style="enable-background:new 0 0 363 55;" xml:space="preserve">
<style type="text/css">
	.st0{fill:#BA0017;}
	.st1{fill:none;}
</style>
<g>
	<g>
		<g>
			<path class="st0" d="M106.4,33.9h-1.6c-0.5,0-0.9-0.2-1.2-0.6c-0.3-0.4-0.5-0.9-0.6-1.6c-0.1-0.7-0.2-1.6-0.3-2.6
				c0-0.8-0.1-1.7-0.1-2.6c0-0.9-0.1-1.6-0.2-2c-0.1-0.5-0.2-0.8-0.3-1.1c-0.2-0.4-0.4-0.7-0.7-0.9l1.4-2.2c0.3,0.9,0.5,2,0.6,3.2
				c0.1,0.8,0.1,2.6,0.2,5.5c0.1,1.3,0.3,2.2,0.6,2.6c0.2,0.3,0.4,0.5,0.7,0.5h1.6V33.9z"/>
			<path class="st0" d="M113.9,20.6c0,0.3-0.2,0.7-0.6,1c-0.7,0.3-1.8,0.7-3.3,1.3c0-0.3,0.2-0.6,0.5-0.9
				C111.2,21.7,112.3,21.2,113.9,20.6z"/>
			<path class="st0" d="M118.6,33.9h-13v-2h9.2c-0.8-0.6-1.4-1.1-1.9-1.4c-0.7-0.4-1.2-0.7-1.8-0.9c-0.6-0.2-1.2-0.3-1.8-0.3
				c-0.4,0-0.8,0-1.2,0.1c0.2-0.6,0.5-1,0.9-1.3c0.5-0.5,1.2-0.7,1.9-0.7c0.8,0,1.7,0.4,2.7,1.1c0.5,0.4,1.4,1.1,2.5,2.1
				c0.9,0.8,1.5,1.3,1.8,1.3h0.7V33.9z"/>
			<path class="st0" d="M123.4,40.8c0,0.4-0.2,0.7-0.6,1c-0.7,0.3-1.8,0.7-3.3,1.3c0-0.3,0.2-0.6,0.5-0.9
				C120.7,42,121.8,41.5,123.4,40.8z"/>
			<path class="st0" d="M124.2,33.9h-6.4v-2h5.6c0-0.9-0.1-1.6-0.3-2c-0.1-0.3-0.5-0.8-1.1-1.4l0.9-1.8c0.5,0.7,0.9,1.2,1,1.6
				c0.2,0.6,0.3,1.5,0.3,2.9V33.9z M123.1,36.6l-0.9,1.6l-1.8-0.9l0.8-1.6L123.1,36.6z"/>
			<path class="st0" d="M131.7,20.6c0,0.3-0.2,0.7-0.6,1c-0.7,0.3-1.8,0.7-3.3,1.3c0-0.3,0.2-0.6,0.5-0.9
				C129,21.7,130.1,21.2,131.7,20.6z"/>
			<path class="st0" d="M135.5,33.9c0,0.8-0.4,1.7-1.1,2.6c-0.6,0.8-1.4,1.4-2.3,2c-0.9,0.5-1.6,0.8-2.1,0.8c-0.5,0-1.1-0.1-1.7-0.2
				c-0.5-0.1-1-0.3-1.6-0.5c-0.5-0.2-1.1-0.4-1.6-0.6l0.2-0.4c0.5,0.1,1,0.2,1.5,0.3c0.5,0.1,1,0.2,1.5,0.2c1,0,2-0.3,3-0.9
				c0.9-0.6,1.7-1.3,2.4-2.1c0.7-0.9,1-1.6,1-2.3c0-0.6-0.2-1.2-0.5-1.9c-0.3-0.5-0.7-1.1-1.2-1.6l0.6-1.8c0.6,0.6,1.1,1.1,1.4,1.7
				c0.3,0.6,0.5,1.4,0.5,2.2V33.9z"/>
			<path d="M140.7,17.2c0,0.3-0.2,0.7-0.6,1c-0.7,0.3-1.8,0.7-3.3,1.3c0-0.3,0.2-0.6,0.5-0.9C138,18.3,139.1,17.9,140.7,17.2z"/>
			<path d="M141.6,33.9h-6.9v-2h6c0-0.7-0.1-1.3-0.2-1.9c-0.4,0.1-0.7,0.2-0.9,0.3c-0.3,0.1-0.6,0.1-0.9,0.1c-0.5,0-1-0.1-1.3-0.4
				c-0.4-0.3-0.6-0.8-0.6-1.4c0-1,0.2-2,0.6-2.7c0.4-0.9,1-1.3,1.6-1.3c0.9,0,1.6,0.7,2.1,2.1c0.4,1.2,0.6,2.6,0.6,4.2V33.9z
				 M140.1,21.4l-0.9,1.6l-1.8-1l0.8-1.6L140.1,21.4z M139.8,28c-0.1-0.3-0.3-0.5-0.5-0.8c-0.3-0.4-0.6-0.6-0.9-0.6
				c-0.2,0-0.4,0.1-0.5,0.3c-0.1,0.2-0.2,0.4-0.2,0.6c0,0.6,0.3,0.9,1,0.9c0.2,0,0.4,0,0.5-0.1C139.4,28.2,139.6,28.2,139.8,28z"/>
			<path d="M154.5,40.8c0,0.4-0.2,0.7-0.6,1c-0.7,0.3-1.8,0.7-3.3,1.3c0-0.3,0.2-0.6,0.5-0.9C151.8,42,152.9,41.5,154.5,40.8z"/>
			<path d="M160.1,33.9c0,1.7-0.5,2.9-1.5,3.7c-1.1,0.8-2.8,1.3-5.1,1.3c-1.5,0-2.6-0.3-3.4-0.8c-0.9-0.6-1.3-1.5-1.3-2.7
				c0-0.6,0.1-1.3,0.2-2c0.2-0.7,0.4-1.3,0.6-2c0.2-0.4,0.4-1,0.9-1.9l0.4,0.2c-0.5,1.1-0.9,1.9-1,2.5c-0.2,0.6-0.3,1.2-0.3,1.7
				c0,0.9,0.3,1.6,1,2.1c0.7,0.5,1.6,0.7,2.8,0.7c1.4,0,2.7-0.3,3.8-0.8c1.4-0.6,2-1.5,2-2.6c0-0.8-0.1-1.5-0.3-2.1
				c-0.2-0.6-0.5-1.1-0.8-1.5l0.9-2.3c0.4,0.6,0.7,1.2,0.8,1.9c0.1,0.6,0.2,1.5,0.2,2.5V33.9z M155.9,25.3l-0.8,1.6l-1.8-1l0.8-1.6
				L155.9,25.3z"/>
			<path d="M165.4,33.9h-1.6c-0.5,0-0.9-0.2-1.2-0.6c-0.3-0.4-0.5-0.9-0.6-1.6c-0.1-0.7-0.2-1.6-0.3-2.6c0-0.8-0.1-1.7-0.1-2.6
				c0-0.9-0.1-1.6-0.2-2c-0.1-0.5-0.2-0.8-0.3-1.1c-0.2-0.4-0.4-0.7-0.7-0.9l1.4-2.2c0.3,0.9,0.5,2,0.6,3.2c0.1,0.8,0.1,2.6,0.2,5.5
				c0.1,1.3,0.3,2.2,0.6,2.6c0.2,0.3,0.4,0.5,0.7,0.5h1.6V33.9z"/>
			<path d="M171.8,17.2c0,0.3-0.2,0.7-0.6,1c-0.7,0.3-1.8,0.7-3.3,1.3c0-0.3,0.2-0.6,0.5-0.9C169.1,18.3,170.2,17.9,171.8,17.2z"/>
			<path d="M174.5,33.9h-9.8v-2h8.5c-0.5-0.8-1.1-1.5-1.8-2.1s-1.6-1.2-2.7-1.9l-0.4,0.3l-1.3-1c-0.5-0.4-0.7-0.7-0.7-0.9
				c0-1.3,0.3-2.3,0.9-3c0.6-0.7,1.6-1.3,3-1.8l3.2-1.2v1.9L171,23c-0.9,0.3-1.7,0.6-2.3,0.8c-0.7,0.3-1.1,0.6-1.1,0.7
				c0,0.2,0.2,0.4,0.7,0.8c0.3,0.2,0.6,0.4,0.9,0.7c1.1,0.9,2.1,1.8,3,2.7c0.9,1,1.6,2.1,2.2,3.1V33.9z"/>
			<path d="M180,21.2c0,0.5-0.2,0.9-0.5,1.2c-0.3,0.4-0.8,0.5-1.3,0.5c-0.4,0-0.7-0.1-0.9-0.3c-0.2-0.2-0.3-0.5-0.3-0.9
				c0-0.6,0.1-1.1,0.4-1.5c0.3-0.4,0.7-0.7,1.1-0.7c0.4,0,0.7,0.2,1,0.5S180,20.8,180,21.2z M179.3,21.5c0-0.2-0.1-0.4-0.4-0.7
				c-0.3-0.3-0.5-0.4-0.7-0.4c-0.2,0-0.4,0.1-0.5,0.3c-0.1,0.2-0.2,0.3-0.2,0.5c0,0.3,0.1,0.4,0.4,0.6c0.2,0.1,0.5,0.1,0.8,0.1
				c0.2,0,0.3,0,0.5-0.1C179.2,21.8,179.3,21.7,179.3,21.5z"/>
			<path d="M180.1,33.9h-6.4v-2h5.6c0-0.9-0.1-1.6-0.3-2c-0.1-0.3-0.5-0.8-1.1-1.4l0.9-1.8c0.5,0.7,0.9,1.2,1,1.6
				c0.2,0.6,0.3,1.5,0.3,2.9V33.9z M177.4,37.1l-0.9,1.6l-1.8-0.9l0.8-1.6L177.4,37.1z M180,36.1l-0.9,1.6l-1.8-1l0.8-1.6L180,36.1z
				"/>
			<path d="M188.2,41.4c0,0.4-0.2,0.7-0.6,1c-0.7,0.3-1.8,0.7-3.3,1.3c0-0.3,0.2-0.6,0.5-0.9C185.5,42.5,186.6,42.1,188.2,41.4z"/>
			<path d="M191.3,33.9c0,0.8-0.4,1.7-1.1,2.6c-0.6,0.8-1.4,1.4-2.3,2c-0.9,0.5-1.6,0.8-2.1,0.8c-0.5,0-1.1-0.1-1.7-0.2
				c-0.5-0.1-1-0.3-1.6-0.5c-0.5-0.2-1.1-0.4-1.6-0.6l0.2-0.4c0.5,0.1,1,0.2,1.5,0.3c0.5,0.1,1,0.2,1.5,0.2c1,0,2-0.3,3-0.9
				c0.9-0.6,1.7-1.3,2.4-2.1c0.7-0.9,1-1.6,1-2.3c0-0.6-0.2-1.2-0.5-1.9c-0.3-0.5-0.7-1.1-1.2-1.6l0.6-1.8c0.6,0.6,1.1,1.1,1.4,1.7
				c0.3,0.6,0.5,1.4,0.5,2.2V33.9z"/>
			<path d="M197.1,17.4c0,0.6-0.1,1-0.3,1.4c-0.2,0.4-0.5,0.6-0.9,0.6c-0.1,0-0.3,0-0.4-0.1c-0.1,0-0.2-0.1-0.4-0.2
				c-0.1,0.3-0.3,0.5-0.4,0.6c-0.2,0.2-0.5,0.4-0.8,0.4c-0.3,0-0.5-0.1-0.7-0.3c-0.2-0.2-0.2-0.5-0.2-0.9c0-0.2,0-0.4,0.1-0.6
				c0-0.1,0.1-0.3,0.2-0.6l0.2-0.1c0,0.1,0,0.2,0,0.3s0,0.2,0,0.3c0,0.2,0,0.3,0.1,0.4c0.1,0.1,0.2,0.2,0.3,0.2
				c0.3,0,0.6-0.2,0.8-0.6c0.1-0.2,0.2-0.6,0.3-1.1l0.2-0.1c0.1,0.4,0.1,0.6,0.1,0.7c0.1,0.2,0.2,0.3,0.4,0.3c0.3,0,0.5-0.2,0.7-0.6
				c0.1-0.3,0.2-0.6,0.2-1l0.2-0.1c0,0.1,0.1,0.3,0.1,0.5C197.1,17.1,197.1,17.2,197.1,17.4z M196.9,14.6c0,0.3-0.2,0.7-0.6,1
				c-0.7,0.3-1.8,0.7-3.3,1.3c0-0.3,0.2-0.6,0.5-0.9C194.2,15.7,195.3,15.3,196.9,14.6z"/>
			<path d="M203.5,33.9h-0.9c-0.5,0-0.9-0.1-1.2-0.2c-0.3-0.1-0.7-0.3-0.9-0.6c-0.4,0.3-0.7,0.5-0.9,0.6c-0.4,0.1-0.9,0.2-1.6,0.2
				h-0.7c-0.4,0-0.8-0.1-1.2-0.2c-0.3-0.1-0.6-0.3-0.9-0.5c-0.4,0.3-0.7,0.5-1,0.6c-0.3,0.1-0.8,0.2-1.5,0.2h-2.2v-2h2.2
				c0.6,0,1-0.1,1.3-0.2c0.4-0.2,0.7-0.5,0.7-1c0-0.2,0-0.4,0-0.7c0-0.2-0.1-0.5-0.1-0.7l0.5-0.7c0.2,0.7,0.4,1.2,0.5,1.5
				c0.2,0.5,0.5,1,0.8,1.2c0.3,0.3,0.8,0.5,1.2,0.5h0.8c0.6,0,1-0.1,1.2-0.3c0.3-0.2,0.4-0.5,0.4-0.9c0-0.2,0-0.5,0-0.7
				c0-0.2-0.1-0.5-0.1-0.7l0.5-0.7l0.2,1.1c0.2,0.8,0.4,1.4,0.7,1.7c0.3,0.3,0.6,0.4,1,0.4c0.2,0,0.4-0.1,0.5-0.2
				c0.1-0.1,0.2-0.3,0.2-0.5c0-0.4-0.2-0.9-0.5-1.3c-0.1-0.1-0.2-0.3-0.6-0.7l0.7-1.2c0.3,0.5,0.5,0.9,0.6,1.2
				c0.2,0.5,0.2,1.2,0.2,2V33.9z M199.9,24.7l-0.9,1.6l-1.8-0.9l0.8-1.6L199.9,24.7z M200.3,21.7l-0.9,1.6l-1.8-1l0.8-1.6
				L200.3,21.7z M202.5,23.7l-0.9,1.6l-1.8-1l0.8-1.6L202.5,23.7z"/>
			<path d="M208.3,33.9h-5.5v-2h4.4l-1.3-9.5l-0.6-0.3c0-0.5,0-1,0.1-1.5s0.2-0.9,0.4-1.3l0.2,0.1c0,0.4,0.2,0.8,0.7,1
				c0.4,0.1,0.8,0.3,1.1,0.4c0,0.4,0,0.8-0.1,1.2c-0.1,0.4-0.1,0.7-0.2,1l-0.5-0.2l1.3,8.8V33.9z"/>
			<path d="M212.1,31c0,0.6-0.1,1.2-0.3,1.7c-0.1,0.3-0.4,0.8-0.7,1.4l-0.2-0.1c0-0.2,0-0.5,0.1-0.8c0-0.3,0-0.5,0-0.6
				c0-0.8-0.1-1.9-0.2-3.3c-0.1-1.4-0.3-2.9-0.4-4.4c-0.1-0.9-0.2-1.9-0.3-2.8c0.2-0.3,0.3-0.7,0.5-1.1c0.2-0.4,0.4-0.7,0.5-1.1
				c0.1,0.9,0.3,2,0.5,3.5s0.3,2.8,0.4,4C212,29.1,212.1,30.3,212.1,31z"/>
			<path d="M227.8,20.6c0,0.3-0.2,0.7-0.6,1c-0.7,0.3-1.8,0.7-3.3,1.3c0-0.3,0.2-0.6,0.5-0.9C225.1,21.7,226.2,21.2,227.8,20.6z"/>
			<path d="M231.5,33.9c0,1.7-0.5,2.9-1.5,3.7c-1.1,0.8-2.8,1.3-5.1,1.3c-1.5,0-2.6-0.3-3.4-0.8c-0.9-0.6-1.3-1.5-1.3-2.7
				c0-0.6,0.1-1.3,0.2-2c0.2-0.7,0.4-1.3,0.6-2c0.2-0.4,0.4-1,0.9-1.9l0.4,0.2c-0.5,1.1-0.9,1.9-1,2.5c-0.2,0.6-0.3,1.2-0.3,1.7
				c0,0.9,0.3,1.6,1,2.1c0.7,0.5,1.6,0.7,2.8,0.7c1.4,0,2.7-0.3,3.8-0.8c1.4-0.6,2-1.5,2-2.6c0-0.8-0.1-1.5-0.3-2.1
				c-0.2-0.6-0.5-1.1-0.8-1.5l0.9-2.3c0.4,0.6,0.7,1.2,0.8,1.9c0.1,0.6,0.2,1.5,0.2,2.5V33.9z M227.3,25.3l-0.8,1.6l-1.8-1l0.8-1.6
				L227.3,25.3z"/>
			<path d="M241,20.6c0,0.3-0.2,0.7-0.6,1c-0.7,0.3-1.8,0.7-3.3,1.3c0-0.3,0.2-0.6,0.5-0.9C238.3,21.7,239.4,21.2,241,20.6z"/>
			<path d="M241.5,33.2c0,1.2-0.5,2.5-1.4,3.7c-1,1.4-2.2,2-3.5,2c-0.5,0-1-0.1-1.5-0.2c-0.4-0.1-0.9-0.2-1.5-0.4
				c-0.5-0.2-1-0.3-1.5-0.5l0.2-0.4c0.4,0.1,0.9,0.2,1.3,0.3c0.5,0.1,0.9,0.2,1.2,0.2c0.9,0,1.8-0.2,2.6-0.7
				c0.6-0.4,1.3-0.9,1.9-1.6c0.3-0.4,0.8-0.9,1.4-1.7c-1,0-1.8-0.2-2.3-0.5c-0.6-0.4-0.9-1-0.9-1.8c0-0.8,0.2-1.5,0.5-2.1
				c0.4-0.8,1-1.1,1.6-1.1c0.7,0,1.1,0.4,1.4,1.1c0.2,0.6,0.3,1.4,0.3,2.5V33.2z M240.8,32c-0.2-0.7-0.4-1.2-0.6-1.5
				c-0.2-0.2-0.4-0.4-0.7-0.4c-0.2,0-0.4,0.1-0.5,0.2c-0.2,0.1-0.2,0.3-0.2,0.5c0,0.4,0.2,0.6,0.5,0.8C239.5,31.9,240,32,240.8,32z"
				/>
			<path d="M246.7,33.9h-1.6c-0.5,0-0.9-0.2-1.2-0.6c-0.3-0.4-0.5-0.9-0.6-1.6c-0.1-0.7-0.2-1.6-0.3-2.6c0-0.8-0.1-1.7-0.1-2.6
				c0-0.9-0.1-1.6-0.2-2c-0.1-0.5-0.2-0.8-0.3-1.1c-0.2-0.4-0.4-0.7-0.7-0.9l1.4-2.2c0.3,0.9,0.5,2,0.6,3.2c0.1,0.8,0.1,2.6,0.2,5.5
				c0.1,1.3,0.3,2.2,0.6,2.6c0.2,0.3,0.4,0.5,0.7,0.5h1.6V33.9z"/>
			<path d="M253.7,20.6c0,0.3-0.2,0.7-0.6,1c-0.7,0.3-1.8,0.7-3.3,1.3c0-0.3,0.2-0.6,0.5-0.9C251,21.7,252.1,21.2,253.7,20.6z"/>
			<path d="M255.8,33.9h-1.7c-0.5,0-1-0.1-1.5-0.3c-0.6-0.3-1-0.7-1.3-1.2c-0.5,0.4-1.1,0.8-1.7,1c-0.8,0.3-1.7,0.5-2.7,0.5h-1v-2h1
				c0.6,0,1.2-0.1,1.8-0.2c0.6-0.2,1.2-0.4,1.8-0.8l-0.5-0.6c-0.2-0.3-0.5-0.4-0.8-0.4c-0.1,0-0.3,0-0.4,0.1c-0.1,0-0.2,0.2-0.3,0.3
				h-0.2v-0.7c0-0.8,0.2-1.4,0.7-1.7c0.4-0.3,1.1-0.4,2.1-0.4c0.8,0,1.5,0.1,2.1,0.3c0.7,0.3,1,0.7,1,1.3c0,0.3-0.1,0.7-0.4,1
				c-0.2,0.3-0.6,0.6-1.1,1.1c0.1,0.2,0.3,0.3,0.7,0.4c0.3,0.1,0.6,0.2,0.9,0.2h1.7V33.9z"/>
			<path d="M261.6,17.2c0,0.3-0.2,0.7-0.6,1c-0.7,0.3-1.8,0.7-3.3,1.3c0-0.3,0.2-0.6,0.5-0.9C258.9,18.3,260,17.9,261.6,17.2z"/>
			<path d="M261.4,33.9H255v-2h5.6c0-0.9-0.1-1.6-0.3-2c-0.1-0.3-0.5-0.8-1.1-1.4l0.9-1.8c0.5,0.7,0.9,1.2,1,1.6
				c0.2,0.6,0.3,1.5,0.3,2.9V33.9z M258.8,23.8l-0.9,1.6l-1.8-0.9l0.8-1.6L258.8,23.8z M261.4,22.8l-0.9,1.6l-1.8-1l0.8-1.6
				L261.4,22.8z"/>
		</g>
	</g>
	<rect class="st1" width="363" height="55"/>
</g>
</svg>
