<?xml version="1.0" encoding="utf-8"?>
<!-- Generator: Adobe Illustrator 22.0.1, SVG Export Plug-In . SVG Version: 6.00 Build 0)  -->
<svg version="1.1" id="Layer_1" xmlns="http://www.w3.org/2000/svg" xmlns:xlink="http://www.w3.org/1999/xlink" x="0px" y="0px"
	 viewBox="0 0 86.2 86.2" style="enable-background:new 0 0 86.2 86.2;" xml:space="preserve">
<style type="text/css">
	.st0{fill:#235958;}
</style>
<g>
	<path class="st0" d="M59,47.1c0,6.5-2,11.7-5.9,15.7s-9.1,6-15.6,6c-4.3,0-7.7-1-10.2-3.1c-2.6-2.2-3.9-5.4-3.9-9.7
		c0-5.1,1.9-10.7,5.7-16.6l1,0.6c-2.1,4.2-3.2,7.7-3.2,10.4c0,6.4,4.5,9.7,13.4,9.7c3.6,0,6.9-0.6,10.1-1.9c4-1.7,6-4.1,6-7.2
		c0-1.6-0.4-2.8-1.3-3.6c-1.5,1.3-2.5,2.2-2.9,2.5C51,50.7,49.8,51,48.6,51c-1.6,0-2.9-0.6-3.9-1.8s-1.4-2.6-1.4-4.3
		c0-2.6,0.6-5.6,1.9-9c1.6-4.2,3.4-6.3,5.5-6.3c2.4,0,4.5,2.4,6.3,7.2C58.2,40.7,59,44.1,59,47.1z M56.6,19.5l-3,5l-4.7-3.2
		l-2.3,4.3l-5-3.9l3-4.9l4.4,3.5l3-4.4L56.6,19.5z M51.7,39.7c-1.1-1.5-2.2-2.3-3.3-2.3c-1.2,0-1.9,0.6-1.9,1.7c0,1.3,0.6,2,1.9,2
		C49.5,41.2,50.6,40.7,51.7,39.7z"/>
</g>
</svg>
