<?xml version="1.0" encoding="utf-8"?>
<!-- Generator: Adobe Illustrator 23.0.2, SVG Export Plug-In . SVG Version: 6.00 Build 0)  -->
<svg version="1.1" id="Layer_1" xmlns="http://www.w3.org/2000/svg" xmlns:xlink="http://www.w3.org/1999/xlink" x="0px" y="0px"
	 viewBox="0 0 36.6 28.6" style="enable-background:new 0 0 36.6 28.6;" xml:space="preserve">
<style type="text/css">
	.st0{fill:#FFFFFF;}
</style>
<path class="st0" d="M29.7,20.3c-0.1-0.9-1.3-2.4-3.1-2.8c-2.5-0.6-5.4,1-8,4.6V4.6c0-0.3-0.2-0.5-0.5-0.5s-0.5,0.2-0.5,0.5v18.9
	l-10.2,0c-0.3,0-0.5,0.2-0.5,0.5c0,0.3,0.2,0.5,0.5,0.5l10.7,0c0,0,0,0,0,0c0,0,0,0,0,0l9,0c0,0,0.1,0,0.1,0
	c0.4-0.1,1.3-0.3,1.9-1.2C29.7,22.6,29.9,21.6,29.7,20.3z M28.3,22.7c-0.4,0.6-1.1,0.8-1.3,0.8l-8.1,0c2.3-3.2,4.6-4.9,6.7-4.9
	c0.3,0,0.5,0,0.8,0.1c1.5,0.3,2.2,1.5,2.3,1.9C28.8,21.4,28.7,22.1,28.3,22.7z"/>
</svg>
