<?xml version="1.0" encoding="utf-8"?>
<!-- Generator: Adobe Illustrator 22.0.1, SVG Export Plug-In . SVG Version: 6.00 Build 0)  -->
<svg version="1.1" id="Layer_1" xmlns="http://www.w3.org/2000/svg" xmlns:xlink="http://www.w3.org/1999/xlink" x="0px" y="0px"
	 viewBox="0 0 86.2 86.2" style="enable-background:new 0 0 86.2 86.2;" xml:space="preserve">
<style type="text/css">
	.st0{fill:#235958;}
</style>
<g>
	<path class="st0" d="M55.8,53.3c0,4.8-1.6,8.6-4.8,11.5s-7.2,4.4-11.9,4.4c-3.4,0-6.2-0.8-8.4-2.5c-2.4-1.8-3.6-4.4-3.6-7.7
		c0-4,1.5-9.1,4.5-15.3l1,0.7c-1.4,2.8-2.1,5.2-2.1,7.3c0,3.4,0.9,5.7,2.8,7c1.5,1.1,4.1,1.6,7.7,1.6c2.6,0,5.1-0.5,7.5-1.4
		c3.2-1.3,4.7-3,4.7-5.1c0-0.9-0.9-2.8-2.6-5.8c-1.4-2.6-2.6-4.5-3.5-5.6l3-7.5C54,39.9,55.8,46.1,55.8,53.3z M42.8,31.6l-3,4.8
		l-4.9-3.5l3-5L42.8,31.6z"/>
</g>
</svg>
