<?xml version="1.0" encoding="utf-8"?>
<!-- Generator: Adobe Illustrator 22.0.1, SVG Export Plug-In . SVG Version: 6.00 Build 0)  -->
<svg version="1.1" id="Layer_1" xmlns="http://www.w3.org/2000/svg" xmlns:xlink="http://www.w3.org/1999/xlink" x="0px" y="0px"
	 viewBox="0 0 86.2 86.2" style="enable-background:new 0 0 86.2 86.2;" xml:space="preserve">
<style type="text/css">
	.st0{fill:#235958;}
</style>
<g>
	<g>
		<path class="st0" d="M48,60l-10.3,6.2c-1,0.6-1.7,1.1-2,1.6s-0.5,1.3-0.5,2.4L46.1,64C47.4,63.3,48,62,48,60z"/>
	</g>
</g>
<path class="st0" d="M52.6,29.5c-2.8-1.8-5.3-2.7-7.5-2.7c-1.6,0-2.8,2.3-3.7,7c1-0.1,2.4,0.2,4.1,0.9c-3.5,4.2-5.3,7.2-5.3,9
	c0,0.9,0.3,1.7,0.9,2.6c-1.6,0.5-2.8,0.7-3.6,0.7h-0.6h-2H22.5v8.4H35h2h0.6c1.2,0,2.8-0.6,4.9-1.9c1.7-1,3.1-2.1,4.3-3.2
	C52.3,52.7,56,54,57.9,54c1.4,0,2.6-1.2,3.5-3.5c0.6-1.8,1-3.5,1-5.2C62.4,39,59.1,33.8,52.6,29.5z M47.2,43.9
	c-2.5-0.9-3.8-1.8-3.8-3c0-0.9,0.5-1.6,1.4-2.2c1-0.6,1.9-0.9,2.8-0.9c1.8,0,2.7,0.8,2.7,2.5C50.4,41.3,49.3,42.5,47.2,43.9z
	 M58.6,47.5c-0.3,0-2.7-0.7-7.2-2.2c0.8-1,1.2-1.9,1.4-2.7c0.1-0.1,0.2-1.1,0.5-3c4.3,3,6.4,5.3,6.4,7
	C59.8,47.2,59.4,47.5,58.6,47.5z"/>
</svg>
