<?xml version="1.0" encoding="utf-8"?>
<!-- Generator: Adobe Illustrator 22.0.1, SVG Export Plug-In . SVG Version: 6.00 Build 0)  -->
<svg version="1.1" id="Layer_1" xmlns="http://www.w3.org/2000/svg" xmlns:xlink="http://www.w3.org/1999/xlink" x="0px" y="0px"
	 viewBox="0 0 86.2 86.2" style="enable-background:new 0 0 86.2 86.2;" xml:space="preserve">
<style type="text/css">
	.st0{fill:#235958;}
</style>
<path class="st0" d="M51.4,52.5h-1h-2.7c-2.1,0-3.6-4.1-4.5-12.2c-0.5-4.5-0.7-9.5-0.7-15.1c0-2.6-0.3-5.8-0.8-9.5
	c-2.6,2.2-3.9,3.4-3.9,3.5c0,2.6,0.2,6.6,0.7,11.9s0.7,9.2,0.7,11.9c0,6.4-1.7,9.7-5.1,9.7h-0.6h-2.1H19v8.4h12.4h2.1H34
	c2.7,0,4.9-3,6.6-9c1.1,6,3.5,9,7.1,9h2.7h1h13.4v-8.4H51.4V52.5z"/>
</svg>
