<?xml version="1.0" encoding="utf-8"?>
<!-- Generator: Adobe Illustrator 23.0.2, SVG Export Plug-In . SVG Version: 6.00 Build 0)  -->
<svg version="1.1" id="Layer_1" xmlns="http://www.w3.org/2000/svg" xmlns:xlink="http://www.w3.org/1999/xlink" x="0px" y="0px"
	 viewBox="0 0 36.6 28.6" style="enable-background:new 0 0 36.6 28.6;" xml:space="preserve">
<style type="text/css">
	.st0{fill:#FFFFFF;}
</style>
<g>
	<g>
		<path class="st0" d="M10.5,27.1l0-1.4c0,0,8.5,0,11.1,0c1,0,1.8-0.4,2.3-1.1c0.4-0.5,0.6-1.2,0.7-1.7c0-0.1,0-0.2,0-0.3l0-20.5
			c0-0.4,0.3-0.7,0.7-0.7s0.7,0.3,0.7,0.7v20.6c0,0,0,0.1,0,0.1c-0.1,0.7-0.4,1.7-1,2.5c-0.8,1.1-2,1.7-3.5,1.7
			C19,27,10.5,27.1,10.5,27.1L10.5,27.1z"/>
	</g>
</g>
</svg>
