<?xml version="1.0" encoding="utf-8"?>
<!-- Generator: Adobe Illustrator 23.0.2, SVG Export Plug-In . SVG Version: 6.00 Build 0)  -->
<svg version="1.1" id="Layer_1" xmlns="http://www.w3.org/2000/svg" xmlns:xlink="http://www.w3.org/1999/xlink" x="0px" y="0px"
	 viewBox="0 0 36.6 28.6" style="enable-background:new 0 0 36.6 28.6;" xml:space="preserve">
<g>
	<path d="M18.3,26.7c-0.5,0-1,0-1.3-0.1c-1.4-0.2-2.6-0.8-3.6-1.9c-2.3-2.5-2.5-5.9-0.8-10.3c0.1-0.3,0.4-0.4,0.7-0.3
		c0.3,0.1,0.4,0.4,0.3,0.7c-1.6,4-1.4,7,0.6,9.2c0.8,0.9,1.8,1.4,3,1.6c0.5,0.1,1.7,0.1,2.2,0c1.6-0.2,1.9-0.5,3-1.5
		c0.7-0.7,1.4-2.4,1.7-3.7c0.1-0.3,0.1-0.5,0.1-0.8l0-17.2c0-0.3,0.2-0.5,0.5-0.5s0.5,0.2,0.5,0.5v17.7c0,0,0,0.1,0,0.1
		c0,0.2-0.9,3.4-2.1,4.6c-1.2,1.2-1.7,1.5-3.5,1.8C19.2,26.7,18.7,26.7,18.3,26.7z"/>
</g>
</svg>
