<?xml version="1.0" encoding="utf-8"?>
<!-- Generator: Adobe Illustrator 19.2.0, SVG Export Plug-In . SVG Version: 6.00 Build 0)  -->
<svg version="1.1" id="Layer_1" xmlns="http://www.w3.org/2000/svg" xmlns:xlink="http://www.w3.org/1999/xlink" x="0px" y="0px"
	 viewBox="0 0 262.5 34.8" style="enable-background:new 0 0 262.5 34.8;" xml:space="preserve">
<style type="text/css">
	.st0{fill:#BA0017;}
	.st1{fill:none;}
</style>
<g>
	<g>
		<g>
			<g>
				<path class="st0" d="M40.8,21h-0.9c-0.8,0-1.5,0.1-2.1,0.2c-0.8,0.2-1.1,0.4-1.1,0.8c0,0.3,0.1,0.6,0.2,1
					c0.1,0.4,0.2,0.7,0.3,1.1s0.2,0.7,0.2,1c0,0.2,0,0.3,0,0.5c0,0.1-0.1,0.3-0.1,0.6c-0.1-0.4-0.3-0.8-0.4-1.2
					c-0.2-0.7-0.4-1.3-0.5-1.7c-0.2-0.6-0.3-1-0.3-1.1c0-0.6,0.1-1.1,0.4-1.4c0.3-0.3,0.7-0.6,1.2-0.7c0.4-0.1,1.1-0.2,1.9-0.3
					c-0.3-0.3-0.5-0.5-0.6-0.5c-0.2-0.2-0.5-0.3-0.7-0.3c-0.2,0-0.3,0-0.5,0.1c-0.1,0.1-0.3,0.2-0.4,0.4L37,19.3
					c0.1-0.4,0.3-0.6,0.5-0.8c0.3-0.3,0.7-0.5,1.1-0.5c0.3,0,0.6,0.1,0.9,0.3c0.2,0.2,0.5,0.4,0.8,0.7c0.1,0.2,0.3,0.4,0.6,0.8V21z"
					/>
				<path class="st0" d="M43.9,21h-3.6v-1.2h2.9l-0.9-6l-0.4-0.2c0-0.3,0-0.6,0.1-0.9c0.1-0.3,0.1-0.6,0.3-0.8l0.1,0.1
					c0,0.3,0.2,0.5,0.5,0.6c0.2,0.1,0.5,0.2,0.7,0.3c0,0.2,0,0.5-0.1,0.8c0,0.3-0.1,0.5-0.1,0.6L43,14.1l0.9,5.5V21z"/>
				<path d="M53,21h-0.9c-0.8,0-1.5,0.1-2.1,0.2c-0.8,0.2-1.1,0.4-1.1,0.8c0,0.3,0.1,0.6,0.2,1s0.2,0.7,0.3,1.1
					c0.1,0.4,0.2,0.7,0.2,1c0,0.2,0,0.3,0,0.5c0,0.1-0.1,0.3-0.1,0.6c-0.1-0.4-0.2-0.8-0.4-1.2c-0.2-0.7-0.4-1.3-0.5-1.7
					c-0.2-0.6-0.3-1-0.3-1.1c0-0.6,0.1-1.1,0.4-1.4s0.7-0.6,1.2-0.7c0.4-0.1,1.1-0.2,1.9-0.3c-0.3-0.3-0.5-0.5-0.6-0.5
					C51,19.1,50.7,19,50.5,19c-0.2,0-0.3,0-0.5,0.1c-0.1,0.1-0.3,0.2-0.4,0.4l-0.3-0.2c0.1-0.4,0.3-0.6,0.5-0.8
					c0.3-0.3,0.7-0.5,1.1-0.5c0.3,0,0.6,0.1,0.9,0.3c0.2,0.2,0.5,0.4,0.8,0.7c0.1,0.2,0.3,0.4,0.6,0.8V21z"/>
				<path d="M60.3,21c0,0.5-0.2,1.1-0.7,1.6c-0.4,0.5-0.9,0.9-1.5,1.3c-0.6,0.3-1,0.5-1.4,0.5c-0.3,0-0.7,0-1.1-0.1
					c-0.3-0.1-0.6-0.2-1.1-0.3c-0.3-0.1-0.7-0.3-1-0.4l0.1-0.3c0.3,0.1,0.7,0.1,1,0.2s0.7,0.1,0.9,0.1c0.6,0,1.3-0.2,1.9-0.6
					c0.6-0.4,1.1-0.8,1.6-1.3s0.6-1,0.6-1.5c0-0.4-0.1-0.8-0.3-1.2c-0.2-0.3-0.4-0.7-0.8-1l0.4-1.1c0.4,0.4,0.7,0.7,0.9,1.1
					c0.2,0.4,0.3,0.9,0.3,1.4V21z M59.2,14.5l-0.6,1l-1.2-0.6l0.5-1L59.2,14.5z"/>
				<path d="M68.2,21h-8.4v-1.2h5.9c-0.5-0.4-0.9-0.7-1.3-0.9c-0.4-0.3-0.8-0.4-1.2-0.6c-0.4-0.1-0.8-0.2-1.2-0.2
					c-0.2,0-0.5,0-0.7,0c0.1-0.3,0.3-0.6,0.6-0.8c0.3-0.3,0.7-0.5,1.3-0.5c0.5,0,1.1,0.2,1.8,0.7c0.3,0.2,0.9,0.7,1.6,1.3
					c0.6,0.5,1,0.8,1.2,0.8h0.4V21z M64.5,22.6l-0.5,1L62.8,23l0.6-1L64.5,22.6z"/>
				<path d="M71.3,21h-3.6v-1.2h2.9l-0.9-6l-0.4-0.2c0-0.3,0-0.6,0.1-0.9c0.1-0.3,0.1-0.6,0.3-0.8l0.1,0.1c0,0.3,0.2,0.5,0.5,0.6
					c0.2,0.1,0.5,0.2,0.7,0.3c0,0.2,0,0.5-0.1,0.8c0,0.3-0.1,0.5-0.1,0.6l-0.3-0.1l0.9,5.5V21z"/>
				<path d="M73.8,19.2c0,0.4-0.1,0.7-0.2,1.1c-0.1,0.2-0.2,0.5-0.5,0.9l-0.1-0.1c0-0.1,0-0.3,0-0.5c0-0.2,0-0.3,0-0.4
					c0-0.5,0-1.2-0.1-2c-0.1-0.9-0.2-1.8-0.3-2.7c-0.1-0.6-0.1-1.2-0.2-1.8c0.1-0.2,0.2-0.4,0.3-0.7c0.1-0.2,0.2-0.5,0.4-0.7
					c0.1,0.5,0.2,1.3,0.3,2.2c0.1,0.9,0.2,1.8,0.3,2.5C73.7,18.1,73.8,18.8,73.8,19.2z"/>
				<path d="M90.3,21h-6.7c-1,0-1.8-0.1-2.5-0.2c-0.7-0.1-1.3-0.4-1.7-0.7c-0.4-0.4-0.6-0.9-0.6-1.5c0-0.4,0.1-0.9,0.4-1.5
					c0.2-0.4,0.3-0.7,0.4-0.9l0.3,0.2c-0.2,0.4-0.3,0.7-0.4,0.9c-0.1,0.2-0.1,0.4-0.1,0.6c0,0.6,0.3,1.1,1,1.4
					c0.7,0.3,1.8,0.4,3.3,0.4h5.4c-0.6-0.2-1-0.3-1.3-0.5c-0.3-0.2-0.5-0.5-0.5-0.8c0-0.4,0.2-0.9,0.5-1.4c0.3-0.6,0.7-0.8,1.1-0.8
					c0.5,0,0.8,0.3,1,0.8c0.2,0.5,0.3,1.1,0.3,2V21z M88.8,13.9l-0.6,1L87,14.3l0.6-1L88.8,13.9z M89.5,18.9c0-0.4,0-0.7-0.1-0.9
					c-0.1-0.3-0.3-0.4-0.5-0.4c-0.2,0-0.3,0-0.4,0.1s-0.1,0.2-0.1,0.4c0,0.2,0.1,0.4,0.3,0.5C88.8,18.7,89.1,18.8,89.5,18.9z"/>
				<path d="M97.5,21c0,0.5-0.2,1.1-0.7,1.6c-0.4,0.5-0.9,0.9-1.5,1.3c-0.6,0.3-1,0.5-1.4,0.5c-0.3,0-0.7,0-1.1-0.1
					c-0.3-0.1-0.7-0.2-1.1-0.3c-0.3-0.1-0.7-0.3-1-0.4l0.1-0.3c0.3,0.1,0.7,0.1,1,0.2s0.7,0.1,0.9,0.1c0.6,0,1.3-0.2,1.9-0.6
					c0.6-0.4,1.1-0.8,1.6-1.3s0.6-1,0.6-1.5c0-0.4-0.1-0.8-0.3-1.2c-0.2-0.3-0.4-0.7-0.8-1l0.4-1.1c0.4,0.4,0.7,0.7,0.9,1.1
					c0.2,0.4,0.3,0.9,0.3,1.4V21z"/>
				<path d="M105.4,21H97v-1.2h5.9c-0.5-0.4-0.9-0.7-1.3-0.9c-0.4-0.3-0.8-0.4-1.2-0.6c-0.4-0.1-0.8-0.2-1.2-0.2c-0.2,0-0.5,0-0.7,0
					c0.1-0.3,0.3-0.6,0.6-0.8c0.3-0.3,0.7-0.5,1.3-0.5c0.5,0,1.1,0.2,1.8,0.7c0.3,0.2,0.9,0.7,1.6,1.3c0.6,0.5,1,0.8,1.2,0.8h0.4V21
					z"/>
				<path d="M109.1,21h-4.1v-1.2h3.6c0-0.6-0.1-1-0.2-1.3c-0.1-0.2-0.3-0.5-0.7-0.9l0.6-1.2c0.3,0.4,0.6,0.8,0.7,1
					c0.1,0.4,0.2,1,0.2,1.8V21z M108.3,22.8l-0.6,1l-1.2-0.6l0.5-1L108.3,22.8z"/>
				<path d="M121.9,21.4c0,0.9-0.5,1.6-1.4,2.1c-0.8,0.4-1.9,0.7-3.3,0.7c-1.1,0-1.9-0.2-2.5-0.6c-0.6-0.4-1-1-1-1.8
					c0-0.6,0.1-1.1,0.3-1.8c0.2-0.6,0.4-1.1,0.7-1.7l0.3,0.1c-0.1,0.3-0.3,0.6-0.4,0.9c-0.1,0.3-0.2,0.6-0.3,0.9
					c-0.1,0.3-0.1,0.6-0.1,0.9c0,0.6,0.3,1.1,0.8,1.4c0.5,0.3,1.2,0.4,2.2,0.4c1,0,1.9-0.2,2.7-0.5c0.9-0.4,1.3-0.9,1.3-1.5
					c0-0.2,0-0.4,0-0.5c0-0.1,0-0.2-0.1-0.3c-0.2,0.1-0.4,0.2-0.6,0.2c-0.2,0-0.4,0.1-0.6,0.1c-0.4,0-0.8-0.1-1-0.3
					c-0.3-0.2-0.5-0.6-0.5-1c0-0.5,0.1-1,0.4-1.5c0.3-0.5,0.7-0.8,1.1-0.8c0.6,0,1,0.4,1.3,1.1c0.3,0.6,0.4,1.4,0.4,2.2V21.4z
					 M119.4,14.5l-0.6,1l-1.2-0.6l0.5-1L119.4,14.5z M120.7,18.8c-0.1-0.3-0.2-0.5-0.3-0.5c-0.1-0.2-0.3-0.3-0.5-0.3
					c-0.2,0-0.4,0.1-0.5,0.2c-0.1,0.1-0.2,0.2-0.2,0.4c0,0.1,0.1,0.3,0.2,0.3c0.1,0.1,0.3,0.1,0.5,0.1c0.1,0,0.2,0,0.4-0.1
					C120.4,18.9,120.6,18.9,120.7,18.8z M121,13.8l-0.6,1l-1.2-0.6l0.5-1L121,13.8z"/>
				<path d="M128.3,20.6c0,0.8-0.3,1.5-0.9,2.3c-0.7,0.9-1.4,1.3-2.3,1.3c-0.3,0-0.7,0-1-0.1c-0.2-0.1-0.6-0.1-1-0.3
					c-0.3-0.1-0.6-0.2-0.9-0.3l0.1-0.2c0.3,0.1,0.6,0.1,0.9,0.2c0.3,0.1,0.6,0.1,0.8,0.1c0.6,0,1.2-0.1,1.7-0.4
					c0.4-0.2,0.8-0.6,1.2-1c0.2-0.2,0.5-0.6,0.9-1.1c-0.7,0-1.1-0.1-1.5-0.3c-0.4-0.2-0.6-0.6-0.6-1.1c0-0.5,0.1-0.9,0.3-1.3
					c0.3-0.5,0.6-0.7,1-0.7c0.4,0,0.7,0.2,0.9,0.7c0.1,0.4,0.2,0.9,0.2,1.6V20.6z M127.9,19.9c-0.1-0.5-0.2-0.8-0.4-0.9
					c-0.1-0.2-0.3-0.2-0.5-0.2c-0.1,0-0.3,0-0.4,0.1s-0.1,0.2-0.1,0.3c0,0.2,0.1,0.4,0.3,0.5C127,19.8,127.4,19.9,127.9,19.9z"/>
				<path d="M132,21h-4.1v-1.2h3.6c0-0.6-0.1-1-0.2-1.3c-0.1-0.2-0.3-0.5-0.7-0.9l0.6-1.2c0.3,0.4,0.6,0.8,0.7,1
					c0.1,0.4,0.2,1,0.2,1.8V21z M131.2,22.8l-0.6,1l-1.2-0.6l0.5-1L131.2,22.8z"/>
				<path d="M139.9,21h-0.6c-0.3,0-0.6,0-0.8-0.1c-0.2-0.1-0.4-0.2-0.6-0.3c-0.2,0.2-0.4,0.3-0.6,0.3c-0.2,0.1-0.6,0.1-1,0.1h-0.5
					c-0.3,0-0.5,0-0.8-0.1c-0.2-0.1-0.4-0.2-0.6-0.3c-0.2,0.2-0.4,0.3-0.6,0.3c-0.2,0.1-0.5,0.1-0.9,0.1h-1.4v-1.2h1.4
					c0.4,0,0.7,0,0.8-0.1c0.3-0.1,0.4-0.3,0.4-0.6c0-0.1,0-0.3,0-0.4c0-0.1,0-0.3-0.1-0.5l0.3-0.4c0.1,0.4,0.2,0.7,0.3,0.9
					c0.2,0.3,0.3,0.6,0.5,0.8c0.2,0.2,0.5,0.3,0.8,0.3h0.5c0.4,0,0.6-0.1,0.8-0.2c0.2-0.1,0.3-0.3,0.3-0.6c0-0.1,0-0.3,0-0.4
					c0-0.1,0-0.3-0.1-0.4l0.3-0.4l0.2,0.7c0.1,0.5,0.3,0.9,0.5,1.1c0.2,0.2,0.4,0.3,0.7,0.3c0.1,0,0.2,0,0.3-0.1
					c0.1-0.1,0.1-0.2,0.1-0.3c0-0.3-0.1-0.5-0.3-0.8c0,0-0.2-0.2-0.4-0.5l0.5-0.8c0.2,0.3,0.3,0.5,0.4,0.8c0.1,0.3,0.2,0.7,0.2,1.3
					V21z"/>
				<path d="M145.7,21H145c-0.3,0-0.7-0.1-1.1-0.2c-0.5-0.2-0.9-0.4-1.2-0.7c-0.3,0.3-0.6,0.6-0.9,0.7c-0.3,0.1-0.7,0.2-1.3,0.2
					h-1.1v-1.2h1.1c0.4,0,0.8-0.1,1.2-0.3c0.3-0.2,0.5-0.4,0.7-0.7c0.3-0.4,0.7-0.8,1.1-1.1c0.4-0.3,0.7-0.4,1.1-0.5
					c0.3,0.5,0.6,0.9,0.8,1.3c0.3,0.5,0.4,1,0.4,1.3V21z M144.9,19.7c-0.1-0.3-0.2-0.5-0.3-0.8c-0.1-0.2-0.3-0.4-0.4-0.7
					c-0.2,0.1-0.4,0.2-0.6,0.3c-0.1,0.1-0.2,0.3-0.4,0.5c0.2,0.2,0.4,0.3,0.7,0.5C144.3,19.6,144.5,19.7,144.9,19.7L144.9,19.7z"/>
				<path d="M148.8,21h-3.6v-1.2h2.9l-0.9-6l-0.4-0.2c0-0.3,0-0.6,0.1-0.9c0.1-0.3,0.1-0.6,0.3-0.8l0.1,0.1c0,0.3,0.2,0.5,0.5,0.6
					c0.2,0.1,0.5,0.2,0.7,0.3c0,0.2,0,0.5-0.1,0.8c0,0.3-0.1,0.5-0.1,0.6l-0.3-0.1l0.9,5.5V21z"/>
				<path d="M151.3,19.2c0,0.4-0.1,0.7-0.2,1.1c-0.1,0.2-0.2,0.5-0.5,0.9l-0.1-0.1c0-0.1,0-0.3,0-0.5c0-0.2,0-0.3,0-0.4
					c0-0.5,0-1.2-0.1-2c-0.1-0.9-0.2-1.8-0.3-2.7c-0.1-0.6-0.1-1.2-0.2-1.8c0.1-0.2,0.2-0.4,0.3-0.7c0.1-0.2,0.2-0.5,0.4-0.7
					c0.1,0.5,0.2,1.3,0.3,2.2c0.1,0.9,0.2,1.8,0.3,2.5C151.2,18.1,151.3,18.8,151.3,19.2z"/>
				<path d="M163.7,25l-1.8,1.2c-1,0-1.8,0-2.3-0.1c-1-0.1-1.7-0.4-2.2-0.8c-0.7-0.5-1-1.2-1-2.2c0-0.6,0.1-1.1,0.3-1.6
					c0.2-0.4,0.4-0.7,0.6-1.1c0.1-0.2,0.4-0.4,0.7-0.7c-0.5-0.2-0.8-0.4-1-0.6c-0.4-0.4-0.6-0.8-0.6-1.4c0-0.5,0.2-1,0.6-1.5
					c0.5-0.6,1.1-0.8,1.8-0.8c0.3,0,0.7,0.1,1,0.3c0.2,0.1,0.5,0.3,0.9,0.6c-0.5,0-1,0-1.5,0.1c-0.6,0.1-1.2,0.2-1.6,0.3
					c-0.5,0.2-0.7,0.4-0.7,0.7c0,0.3,0.3,0.6,0.8,0.8c0.5,0.2,1,0.4,1.6,0.5c0.5-0.3,1-0.5,1.4-0.6c0.5-0.2,1-0.4,1.6-0.5l-0.3,1.1
					c-1,0.4-1.7,0.7-2.2,0.9c-0.9,0.4-1.6,0.8-2.1,1.3c-0.6,0.6-0.9,1.2-0.9,1.8c0,0.7,0.3,1.2,0.8,1.6c0.4,0.3,1.1,0.6,2,0.7
					c0.7,0.1,1.6,0.2,2.6,0.2c0.2,0,0.5,0,0.7,0C163.3,24.9,163.5,24.9,163.7,25L163.7,25z"/>
				<path d="M171.4,21c0,0.5-0.2,1.1-0.7,1.6c-0.4,0.5-0.9,0.9-1.5,1.3c-0.6,0.3-1,0.5-1.4,0.5c-0.3,0-0.7,0-1.1-0.1
					c-0.3-0.1-0.7-0.2-1.1-0.3c-0.3-0.1-0.7-0.3-1-0.4l0.1-0.3c0.3,0.1,0.7,0.1,1,0.2s0.7,0.1,0.9,0.1c0.6,0,1.3-0.2,1.9-0.6
					c0.6-0.4,1.1-0.8,1.6-1.3s0.6-1,0.6-1.5c0-0.4-0.1-0.8-0.3-1.2c-0.2-0.3-0.4-0.7-0.8-1l0.4-1.1c0.4,0.4,0.7,0.7,0.9,1.1
					c0.2,0.4,0.3,0.9,0.3,1.4V21z"/>
				<path d="M174.8,21h-1c-0.3,0-0.6-0.1-0.8-0.4c-0.2-0.2-0.3-0.6-0.4-1c-0.1-0.4-0.2-1-0.2-1.7c0-0.5-0.1-1.1-0.1-1.6
					c0-0.6-0.1-1-0.1-1.3s-0.1-0.5-0.2-0.7c-0.1-0.2-0.3-0.4-0.4-0.6l0.9-1.4c0.2,0.6,0.3,1.2,0.4,2c0,0.5,0.1,1.6,0.1,3.5
					c0.1,0.8,0.2,1.4,0.4,1.6c0.1,0.2,0.3,0.3,0.4,0.3h1V21z"/>
				<path d="M187.5,21h-8.7c-0.3,0-0.5,0-0.7-0.1c-0.2-0.1-0.4-0.2-0.6-0.3c-0.2,0.2-0.4,0.3-0.6,0.3c-0.2,0.1-0.5,0.1-1,0.1h-1.4
					v-1.2h1.4c0.4,0,0.7,0,0.8-0.1c0.3-0.1,0.4-0.3,0.4-0.6c0-0.1,0-0.3,0-0.4c0-0.1,0-0.3-0.1-0.5l0.3-0.4c0.2,0.6,0.4,1.1,0.7,1.5
					c0.3,0.4,0.7,0.6,1.1,0.6c0.4,0,0.9-0.1,1.4-0.3c0.6-0.2,1.1-0.4,1.5-0.7c0.7-0.5,1.1-0.8,1.3-0.9c0.4-0.2,0.7-0.4,1.1-0.5
					c0.4-0.1,0.8-0.2,1.2-0.2c0.7,0,1.2,0.2,1.5,0.6c0.3,0.3,0.5,0.8,0.5,1.4V21z M182.8,15.2l-0.6,1l-1.2-0.6l0.5-1L182.8,15.2z
					 M186.3,19.3c0-0.2-0.1-0.4-0.4-0.5c-0.3-0.1-0.6-0.2-1-0.2c-0.5,0-1.1,0.2-1.8,0.5c-0.5,0.3-1.1,0.5-1.6,0.8h3.4
					c0.5,0,0.9,0,1.2-0.1C186.1,19.6,186.3,19.5,186.3,19.3z"/>
				<path d="M193.3,21h-0.8c-0.3,0-0.7-0.1-1.1-0.2c-0.5-0.2-0.9-0.4-1.2-0.7c-0.3,0.3-0.6,0.6-0.9,0.7c-0.3,0.1-0.7,0.2-1.3,0.2
					h-1.1v-1.2h1.1c0.4,0,0.8-0.1,1.2-0.3c0.3-0.2,0.5-0.4,0.7-0.7c0.3-0.4,0.7-0.8,1.1-1.1c0.4-0.3,0.7-0.4,1.1-0.5
					c0.3,0.5,0.6,0.9,0.8,1.3c0.3,0.5,0.4,1,0.4,1.3V21z M192.5,19.7c-0.1-0.3-0.2-0.5-0.3-0.8c-0.1-0.2-0.3-0.4-0.4-0.7
					c-0.2,0.1-0.4,0.2-0.6,0.3c-0.1,0.1-0.2,0.3-0.4,0.5c0.2,0.2,0.4,0.3,0.7,0.5C191.8,19.6,192.1,19.7,192.5,19.7L192.5,19.7z"/>
				<path d="M196.4,21h-3.6v-1.2h2.9l-0.9-6l-0.4-0.2c0-0.3,0-0.6,0.1-0.9c0.1-0.3,0.1-0.6,0.3-0.8l0.1,0.1c0,0.3,0.2,0.5,0.5,0.6
					c0.2,0.1,0.5,0.2,0.7,0.3c0,0.2,0,0.5-0.1,0.8c0,0.3-0.1,0.5-0.1,0.6l-0.3-0.1l0.9,5.5V21z"/>
				<path d="M198.9,19.2c0,0.4-0.1,0.7-0.2,1.1c-0.1,0.2-0.2,0.5-0.5,0.9l-0.1-0.1c0-0.1,0-0.3,0-0.5c0-0.2,0-0.3,0-0.4
					c0-0.5,0-1.2-0.1-2c-0.1-0.9-0.2-1.8-0.3-2.7c-0.1-0.6-0.1-1.2-0.2-1.8c0.1-0.2,0.2-0.4,0.3-0.7c0.1-0.2,0.2-0.5,0.4-0.7
					c0.1,0.5,0.2,1.3,0.3,2.2c0.1,0.9,0.2,1.8,0.3,2.5C198.8,18.1,198.9,18.8,198.9,19.2z"/>
				<path d="M211.2,20.2c0,0.8-0.2,1.4-0.5,1.8c-0.3,0.4-0.8,0.7-1.4,0.8c-0.5,0.1-1.2,0.2-2,0.2c-0.9,0-1.7-0.2-2.2-0.5
					c-0.6-0.4-0.8-0.9-0.8-1.6c0-0.4,0.1-0.8,0.2-1.3c0.1-0.4,0.3-0.8,0.5-1.2c0.2-0.3,0.4-0.7,0.6-1.2l0.2,0.1
					c-0.2,0.3-0.3,0.6-0.5,0.8c-0.2,0.3-0.3,0.6-0.4,0.9c-0.1,0.3-0.1,0.6-0.1,0.9c0,0.6,0.2,1,0.7,1.3c0.4,0.3,1,0.4,1.8,0.4
					c0.8,0,1.6-0.1,2.3-0.4c0.8-0.3,1.1-0.7,1.1-1.1c0-0.5-0.1-1.2-0.2-2.3c-0.1-0.8-0.3-1.8-0.4-2.8l-0.2-1.4l-0.3-0.2
					c0-0.6,0.1-1.2,0.4-1.7h0.1c0,0.2,0.1,0.3,0.1,0.4c0,0.1,0.1,0.2,0.2,0.2c0.2,0.1,0.3,0.1,0.5,0.2c0.1,0.1,0.2,0.1,0.3,0.2
					c0,0.3,0,0.6,0,0.7c0,0.2-0.1,0.4-0.1,0.6l-0.4-0.1c0,0.1,0.1,0.6,0.2,1.4c0.2,1,0.3,1.8,0.3,2.4
					C211.1,18.9,211.2,19.7,211.2,20.2z"/>
				<path d="M217,21H216c-0.3,0-0.6-0.1-1-0.2c-0.4-0.2-0.7-0.4-0.8-0.7c-0.3,0.3-0.7,0.5-1.1,0.7c-0.5,0.2-1.1,0.3-1.7,0.3h-0.7
					v-1.2h0.7c0.4,0,0.8,0,1.1-0.1c0.4-0.1,0.8-0.3,1.2-0.5l-0.3-0.4c-0.2-0.2-0.3-0.3-0.5-0.3c-0.1,0-0.2,0-0.2,0
					c-0.1,0-0.1,0.1-0.2,0.2h-0.2v-0.4c0-0.5,0.1-0.9,0.4-1.1c0.3-0.2,0.7-0.3,1.3-0.3c0.5,0,1,0.1,1.3,0.2c0.5,0.2,0.7,0.5,0.7,0.8
					c0,0.2-0.1,0.4-0.3,0.6c-0.1,0.2-0.4,0.4-0.7,0.7c0.1,0.1,0.2,0.2,0.4,0.3s0.4,0.1,0.6,0.1h1.1V21z"/>
				<path d="M221,21h-4.4v-1.2h2.5c0.3,0,0.6,0,0.8,0c0.2,0,0.4-0.1,0.7-0.1c-0.8-0.1-1.4-0.2-1.6-0.3c-0.6-0.2-0.8-0.6-0.8-1.2
					c0-0.5,0.1-1,0.4-1.4c0.3-0.5,0.7-0.7,1.1-0.7c0.5,0,0.9,0.3,1.1,0.9c0.2,0.5,0.3,1.1,0.3,1.7V21z M220.3,13.6l-0.6,1l-1-0.7
					l0.6-1L220.3,13.6z M220.3,18.6c-0.1-0.4-0.2-0.7-0.3-0.8c-0.2-0.4-0.4-0.5-0.7-0.5c-0.1,0-0.3,0.1-0.3,0.2
					c-0.1,0.1-0.1,0.2-0.1,0.4c0,0.4,0.2,0.6,0.6,0.7C219.5,18.5,219.8,18.5,220.3,18.6z"/>
				<path d="M224,21h-3.6v-1.2h2.9l-0.9-6l-0.4-0.2c0-0.3,0-0.6,0.1-0.9c0.1-0.3,0.1-0.6,0.3-0.8l0.1,0.1c0,0.3,0.2,0.5,0.5,0.6
					c0.2,0.1,0.5,0.2,0.7,0.3c0,0.2,0,0.5-0.1,0.8c0,0.3-0.1,0.5-0.1,0.6l-0.3-0.1l0.9,5.5V21z"/>
				<path d="M226.5,19.2c0,0.4-0.1,0.7-0.2,1.1c-0.1,0.2-0.2,0.5-0.5,0.9l-0.1-0.1c0-0.1,0-0.3,0-0.5c0-0.2,0-0.3,0-0.4
					c0-0.5,0-1.2-0.1-2c-0.1-0.9-0.2-1.8-0.3-2.7c-0.1-0.6-0.1-1.2-0.2-1.8c0.1-0.2,0.2-0.4,0.3-0.7c0.1-0.2,0.2-0.5,0.4-0.7
					c0.1,0.5,0.2,1.3,0.3,2.2c0.1,0.9,0.2,1.8,0.3,2.5C226.5,18.1,226.5,18.8,226.5,19.2z"/>
			</g>
		</g>
	</g>
	<rect class="st1" width="262.5" height="34.8"/>
</g>
</svg>
