<?xml version="1.0" encoding="utf-8"?>
<!-- Generator: Adobe Illustrator 19.2.0, SVG Export Plug-In . SVG Version: 6.00 Build 0)  -->
<svg version="1.1" id="Layer_1" xmlns="http://www.w3.org/2000/svg" xmlns:xlink="http://www.w3.org/1999/xlink" x="0px" y="0px"
	 viewBox="0 0 262.5 34.8" style="enable-background:new 0 0 262.5 34.8;" xml:space="preserve">
<style type="text/css">
	.st0{fill:#BA0017;}
	.st1{fill:none;}
</style>
<g>
	<g>
		<g>
			<g>
				<path class="st0" d="M24.9,20.7h-1c-0.3,0-0.7-0.3-0.9-0.9c-0.2-0.4-0.4-1-0.5-1.7c-0.1,0.3-0.3,0.5-0.6,0.6
					c-0.2,0.1-0.5,0.2-0.7,0.2c-0.6,0-1,0-1.4-0.1c-0.4-0.1-0.6-0.2-0.6-0.3c0-0.4,0.3-0.9,0.8-1.3c0.5-0.5,1.2-0.9,2-1.3
					c0,0,0-0.1-0.1-0.3c0-0.2,0-0.3,0-0.3c0-0.2,0.1-0.3,0.2-0.5c0.1-0.2,0.2-0.3,0.4-0.5c0,0.3,0.1,0.6,0.1,0.8
					c0.1,0.3,0.1,0.6,0.2,0.8l0.2,1.2c0.1,0.7,0.2,1.2,0.3,1.5c0.1,0.5,0.3,0.7,0.5,0.7h1V20.7z M21.3,12.9l-0.6,1l-1.2-0.6l0.5-1
					L21.3,12.9z M22.3,17.5l-0.1-0.8c-0.4,0.1-0.8,0.3-1,0.5c-0.2,0.2-0.4,0.4-0.6,0.6c0.1,0,0.2,0.1,0.4,0.1s0.3,0,0.6,0
					C21.8,18,22.1,17.8,22.3,17.5z M23,12.3l-0.6,1l-1.2-0.6l0.5-1L23,12.3z"/>
				<path class="st0" d="M28.5,20.7h-4.1v-1.2H28c0-0.6-0.1-1-0.2-1.3c-0.1-0.2-0.3-0.5-0.7-0.9l0.6-1.2c0.3,0.4,0.6,0.8,0.7,1
					c0.1,0.4,0.2,1,0.2,1.8V20.7z M26.8,22.7l-0.6,1L25,23.2l0.5-1L26.8,22.7z M28.5,22.1l-0.6,1l-1.2-0.6l0.5-1L28.5,22.1z"/>
				<path class="st0" d="M34.2,19.5c0,0.3-0.1,0.6-0.3,0.9c-0.2,0.4-0.4,0.5-0.6,0.5c-0.2,0-0.6-0.1-1.1-0.4
					c-0.5-0.2-0.9-0.4-1.3-0.7c-0.6,0.3-1,0.5-1.2,0.6c-0.3,0.1-0.7,0.2-1.1,0.2H28v-1.2h0.7c0.2,0,0.4,0,0.6,0
					c0.2,0,0.4-0.1,0.7-0.2c-0.1-0.1-0.3-0.2-0.4-0.3c-0.1-0.1-0.2-0.2-0.2-0.3c0-0.1,0-0.1,0-0.2c0,0,0-0.1,0.1-0.2l0.7-1.2
					c0.1-0.2,0.2-0.3,0.3-0.3s0.2-0.1,0.3-0.2c-0.3-0.2-0.5-0.4-0.5-0.5c0-0.1,0.1-0.3,0.3-0.7c0.1-0.1,0.2-0.3,0.3-0.6
					c0.3,0.3,0.7,0.7,1.2,1.2c0.6,0.7,1.1,1.3,1.4,1.8C34,18.5,34.2,19.1,34.2,19.5z M31.7,18c0-0.2,0-0.4-0.1-0.5
					c-0.1-0.1-0.3-0.2-0.5-0.2c-0.2,0-0.4,0.1-0.6,0.2c-0.2,0.1-0.3,0.3-0.3,0.5c0,0.2,0.3,0.4,0.9,0.8c0.2-0.1,0.4-0.3,0.5-0.4
					C31.6,18.2,31.7,18.1,31.7,18z M33.4,19.6c0-0.2-0.1-0.4-0.4-0.8c-0.2-0.2-0.4-0.5-0.6-0.7c0,0.2,0,0.4-0.1,0.6
					c-0.1,0.2-0.2,0.4-0.4,0.5c0.3,0.1,0.6,0.3,0.9,0.4c0.2,0.1,0.4,0.2,0.5,0.2c0.1,0,0.1,0,0.1-0.1C33.4,19.7,33.4,19.6,33.4,19.6
					z"/>
				<path class="st0" d="M38.6,20.7h-1c-0.3,0-0.6-0.1-0.8-0.4c-0.2-0.2-0.3-0.6-0.4-1c-0.1-0.4-0.2-1-0.2-1.7
					c0-0.5-0.1-1.1-0.1-1.6c0-0.6-0.1-1-0.1-1.3c-0.1-0.3-0.1-0.5-0.2-0.7c-0.1-0.2-0.3-0.4-0.4-0.6l0.9-1.4c0.2,0.6,0.3,1.2,0.4,2
					c0,0.5,0.1,1.6,0.1,3.5c0.1,0.8,0.2,1.4,0.4,1.6c0.1,0.2,0.3,0.3,0.4,0.3h1V20.7z"/>
				<path class="st0" d="M42.3,20.7h-4.1v-1.2h3.6c0-0.6-0.1-1-0.2-1.3c-0.1-0.2-0.3-0.5-0.7-0.9l0.6-1.2c0.3,0.4,0.6,0.8,0.7,1
					c0.1,0.4,0.2,1,0.2,1.8V20.7z M41.7,14.2l-0.6,1l-1.2-0.6l0.5-1L41.7,14.2z"/>
				<path class="st0" d="M45.3,20.7h-3.6v-1.2h2.9l-0.9-6l-0.4-0.2c0-0.3,0-0.6,0.1-0.9c0.1-0.3,0.1-0.6,0.3-0.8l0.1,0.1
					c0,0.3,0.2,0.5,0.5,0.6c0.2,0.1,0.5,0.2,0.7,0.3c0,0.2,0,0.5-0.1,0.8c0,0.3-0.1,0.5-0.1,0.6l-0.3-0.1l0.9,5.5V20.7z"/>
				<path class="st0" d="M47.8,18.9c0,0.4-0.1,0.7-0.2,1.1c-0.1,0.2-0.2,0.5-0.5,0.9L47,20.8c0-0.1,0-0.3,0-0.5c0-0.2,0-0.3,0-0.4
					c0-0.5,0-1.2-0.1-2c-0.1-0.9-0.2-1.8-0.3-2.7c-0.1-0.6-0.1-1.2-0.2-1.8c0.1-0.2,0.2-0.4,0.3-0.7c0.1-0.2,0.2-0.5,0.4-0.7
					c0.1,0.5,0.2,1.3,0.3,2.2c0.1,0.9,0.2,1.8,0.3,2.5C47.8,17.7,47.8,18.4,47.8,18.9z"/>
				<path class="st0" d="M60.1,13.2l-0.3,1.3l-0.4-0.2l0,0.6c0,0.6-0.1,1.2-0.2,1.8c-0.2,0.6-0.5,1.3-0.9,1.9
					c0.2,0.3,0.3,0.6,0.4,0.8c0.1,0.3,0.2,0.6,0.2,0.9c0,0.2,0,0.3,0,0.4c0,0.1,0,0.3-0.1,0.4c-0.5,0.1-1.1,0.2-1.6,0.3
					c-0.6,0.1-1.2,0.1-1.7,0.1c0-0.1,0-0.2,0-0.2c0-0.4,0.1-0.7,0.2-1c0.8-0.4,1.5-1,2.1-1.7c-0.3-0.6-0.6-1.1-0.7-1.3
					c-0.2-0.3-0.5-0.7-0.9-1.3c-0.2-0.2-0.3-0.4-0.4-0.5c-0.2-0.2-0.3-0.2-0.4-0.2c-0.1,0-0.2,0-0.3,0.1c-0.1,0-0.1,0.1-0.2,0.1
					c-0.1,0-0.3-0.1-0.5-0.3c-0.2-0.2-0.4-0.4-0.6-0.7c-0.2-0.2-0.3-0.4-0.4-0.5c-0.1-0.1-0.1-0.3-0.1-0.5c0-0.3,0-0.5,0.1-0.7
					c0.1-0.2,0.2-0.4,0.3-0.4c0.2,0,0.5,0.2,0.9,0.6c0.3,0.3,0.7,0.8,1.1,1.3c0.4,0.5,0.7,1,1.1,1.5l0.7,1.2
					c0.2,0.3,0.4,0.7,0.7,1.2c0.3-0.6,0.5-1.3,0.7-1.9c0.1-0.6,0.2-1.3,0.2-2.2l-0.4-0.2c0-0.3,0-0.6,0.1-0.8s0.1-0.5,0.2-0.7l0.2,0
					c0,0.2,0.1,0.4,0.3,0.5c0.1,0.1,0.3,0.1,0.4,0.2C59.9,13.1,60,13.2,60.1,13.2z M58.2,20.1c0-0.1,0-0.2-0.1-0.3s-0.1-0.3-0.3-0.5
					c-0.1,0.2-0.4,0.4-0.7,0.6c-0.3,0.2-0.6,0.4-0.9,0.6c0.6,0,1,0,1.2,0C58,20.4,58.2,20.3,58.2,20.1z"/>
				<path d="M69.8,20.7H69c-0.8,0-1.5,0.1-2.1,0.2c-0.8,0.2-1.1,0.4-1.1,0.8c0,0.3,0.1,0.6,0.2,1s0.2,0.7,0.3,1.1
					c0.1,0.4,0.2,0.7,0.2,1c0,0.2,0,0.3,0,0.5c0,0.1-0.1,0.3-0.1,0.6c-0.1-0.4-0.2-0.8-0.4-1.2c-0.2-0.7-0.4-1.3-0.5-1.7
					c-0.2-0.6-0.3-1-0.3-1.1c0-0.6,0.1-1.1,0.4-1.4s0.7-0.6,1.2-0.7c0.4-0.1,1.1-0.2,1.9-0.3c-0.3-0.3-0.5-0.5-0.6-0.5
					c-0.2-0.2-0.5-0.3-0.7-0.3c-0.2,0-0.3,0-0.5,0.1c-0.1,0.1-0.3,0.2-0.4,0.4L66,19c0.1-0.4,0.3-0.6,0.5-0.8
					c0.3-0.3,0.7-0.5,1.1-0.5c0.3,0,0.6,0.1,0.9,0.3c0.2,0.2,0.5,0.4,0.8,0.7c0.1,0.2,0.3,0.4,0.6,0.8V20.7z"/>
				<path d="M77.1,20.7c0,0.5-0.2,1.1-0.7,1.6c-0.4,0.5-0.9,0.9-1.5,1.3c-0.6,0.3-1,0.5-1.4,0.5c-0.3,0-0.7,0-1.1-0.1
					c-0.3-0.1-0.6-0.2-1.1-0.3c-0.3-0.1-0.7-0.3-1-0.4l0.1-0.3c0.3,0.1,0.7,0.1,1,0.2s0.7,0.1,0.9,0.1c0.6,0,1.3-0.2,1.9-0.6
					c0.6-0.4,1.1-0.8,1.6-1.3s0.6-1,0.6-1.5c0-0.4-0.1-0.8-0.3-1.2c-0.2-0.3-0.4-0.7-0.8-1l0.4-1.1c0.4,0.4,0.7,0.7,0.9,1.1
					c0.2,0.4,0.3,0.9,0.3,1.4V20.7z M76,14.1l-0.6,1l-1.2-0.6l0.5-1L76,14.1z"/>
				<path d="M85,20.7h-8.4v-1.2h5.9c-0.5-0.4-0.9-0.7-1.3-0.9c-0.4-0.3-0.8-0.4-1.2-0.6c-0.4-0.1-0.8-0.2-1.2-0.2
					c-0.2,0-0.5,0-0.7,0c0.1-0.3,0.3-0.6,0.6-0.8c0.3-0.3,0.7-0.5,1.3-0.5c0.5,0,1.1,0.2,1.8,0.7c0.3,0.2,0.9,0.7,1.6,1.3
					c0.6,0.5,1,0.8,1.2,0.8H85V20.7z M81.3,22.2l-0.5,1l-1.2-0.6l0.6-1L81.3,22.2z"/>
				<path d="M88.1,20.7h-3.6v-1.2h2.9l-0.9-6l-0.4-0.2c0-0.3,0-0.6,0.1-0.9c0.1-0.3,0.1-0.6,0.3-0.8l0.1,0.1c0,0.3,0.2,0.5,0.5,0.6
					c0.2,0.1,0.5,0.2,0.7,0.3c0,0.2,0,0.5-0.1,0.8c0,0.3-0.1,0.5-0.1,0.6l-0.3-0.1l0.9,5.5V20.7z"/>
				<path d="M90.6,18.9c0,0.4-0.1,0.7-0.2,1.1c-0.1,0.2-0.2,0.5-0.5,0.9l-0.1-0.1c0-0.1,0-0.3,0-0.5c0-0.2,0-0.3,0-0.4
					c0-0.5,0-1.2-0.1-2c-0.1-0.9-0.2-1.8-0.3-2.7c-0.1-0.6-0.1-1.2-0.2-1.8c0.1-0.2,0.2-0.4,0.3-0.7c0.1-0.2,0.2-0.5,0.4-0.7
					c0.1,0.5,0.2,1.3,0.3,2.2c0.1,0.9,0.2,1.8,0.3,2.5C90.5,17.7,90.6,18.4,90.6,18.9z"/>
				<path d="M107.1,20.7h-6.7c-1,0-1.8-0.1-2.5-0.2c-0.7-0.1-1.3-0.4-1.7-0.7c-0.4-0.4-0.6-0.9-0.6-1.5c0-0.4,0.1-0.9,0.4-1.5
					c0.2-0.4,0.3-0.7,0.4-0.9l0.3,0.2c-0.2,0.4-0.3,0.7-0.4,0.9c-0.1,0.2-0.1,0.4-0.1,0.6c0,0.6,0.3,1.1,1,1.4
					c0.7,0.3,1.8,0.4,3.3,0.4h5.4c-0.6-0.2-1-0.3-1.3-0.5c-0.3-0.2-0.5-0.5-0.5-0.8c0-0.4,0.2-0.9,0.5-1.4c0.3-0.6,0.7-0.8,1.1-0.8
					c0.5,0,0.8,0.3,1,0.8c0.2,0.5,0.3,1.1,0.3,2V20.7z M105.6,13.5l-0.6,1l-1.2-0.6l0.6-1L105.6,13.5z M106.3,18.6
					c0-0.4,0-0.7-0.1-0.9c-0.1-0.3-0.3-0.4-0.5-0.4c-0.2,0-0.3,0-0.4,0.1s-0.1,0.2-0.1,0.4c0,0.2,0.1,0.4,0.3,0.5
					C105.6,18.4,105.9,18.5,106.3,18.6z"/>
				<path d="M114.3,20.7c0,0.5-0.2,1.1-0.7,1.6c-0.4,0.5-0.9,0.9-1.5,1.3c-0.6,0.3-1,0.5-1.4,0.5c-0.3,0-0.7,0-1.1-0.1
					c-0.3-0.1-0.7-0.2-1.1-0.3c-0.3-0.1-0.7-0.3-1-0.4l0.1-0.3c0.3,0.1,0.7,0.1,1,0.2s0.7,0.1,0.9,0.1c0.6,0,1.3-0.2,1.9-0.6
					c0.6-0.4,1.1-0.8,1.6-1.3s0.6-1,0.6-1.5c0-0.4-0.1-0.8-0.3-1.2c-0.2-0.3-0.4-0.7-0.8-1l0.4-1.1c0.4,0.4,0.7,0.7,0.9,1.1
					c0.2,0.4,0.3,0.9,0.3,1.4V20.7z"/>
				<path d="M122.2,20.7h-8.4v-1.2h5.9c-0.5-0.4-0.9-0.7-1.3-0.9c-0.4-0.3-0.8-0.4-1.2-0.6c-0.4-0.1-0.8-0.2-1.2-0.2
					c-0.2,0-0.5,0-0.7,0c0.1-0.3,0.3-0.6,0.6-0.8c0.3-0.3,0.7-0.5,1.3-0.5c0.5,0,1.1,0.2,1.8,0.7c0.3,0.2,0.9,0.7,1.6,1.3
					c0.6,0.5,1,0.8,1.2,0.8h0.4V20.7z"/>
				<path d="M125.9,20.7h-4.1v-1.2h3.6c0-0.6-0.1-1-0.2-1.3c-0.1-0.2-0.3-0.5-0.7-0.9l0.6-1.2c0.3,0.4,0.6,0.8,0.7,1
					c0.1,0.4,0.2,1,0.2,1.8V20.7z M125.1,22.4l-0.6,1l-1.2-0.6l0.5-1L125.1,22.4z"/>
				<path d="M138.7,21c0,0.9-0.5,1.6-1.4,2.1c-0.8,0.4-1.9,0.7-3.3,0.7c-1.1,0-1.9-0.2-2.5-0.6c-0.6-0.4-1-1-1-1.8
					c0-0.6,0.1-1.1,0.3-1.8c0.2-0.6,0.4-1.1,0.7-1.7l0.3,0.1c-0.1,0.3-0.3,0.6-0.4,0.9c-0.1,0.3-0.2,0.6-0.3,0.9
					c-0.1,0.3-0.1,0.6-0.1,0.9c0,0.6,0.3,1.1,0.8,1.4c0.5,0.3,1.2,0.4,2.2,0.4c1,0,1.9-0.2,2.7-0.5c0.9-0.4,1.3-0.9,1.3-1.5
					c0-0.2,0-0.4,0-0.5c0-0.1,0-0.2-0.1-0.3c-0.2,0.1-0.4,0.2-0.6,0.2c-0.2,0-0.4,0.1-0.6,0.1c-0.4,0-0.8-0.1-1-0.3
					c-0.3-0.2-0.5-0.6-0.5-1c0-0.5,0.1-1,0.4-1.5c0.3-0.5,0.7-0.8,1.1-0.8c0.6,0,1,0.4,1.3,1.1c0.3,0.6,0.4,1.4,0.4,2.2V21z
					 M136.2,14.1l-0.6,1l-1.2-0.6l0.5-1L136.2,14.1z M137.5,18.4c-0.1-0.3-0.2-0.5-0.3-0.5c-0.1-0.2-0.3-0.3-0.5-0.3
					c-0.2,0-0.4,0.1-0.5,0.2c-0.1,0.1-0.2,0.2-0.2,0.4c0,0.1,0.1,0.3,0.2,0.3c0.1,0.1,0.3,0.1,0.5,0.1c0.1,0,0.2,0,0.4-0.1
					C137.2,18.6,137.4,18.5,137.5,18.4z M137.8,13.5l-0.6,1l-1.2-0.6l0.5-1L137.8,13.5z"/>
				<path d="M145.1,20.3c0,0.8-0.3,1.5-0.9,2.3c-0.7,0.9-1.4,1.3-2.3,1.3c-0.3,0-0.7,0-1-0.1c-0.2-0.1-0.6-0.1-1-0.3
					c-0.3-0.1-0.6-0.2-0.9-0.3l0.1-0.2c0.3,0.1,0.6,0.1,0.9,0.2c0.3,0.1,0.6,0.1,0.8,0.1c0.6,0,1.2-0.1,1.7-0.4
					c0.4-0.2,0.8-0.6,1.2-1c0.2-0.2,0.5-0.6,0.9-1.1c-0.7,0-1.1-0.1-1.5-0.3c-0.4-0.2-0.6-0.6-0.6-1.1c0-0.5,0.1-0.9,0.3-1.3
					c0.3-0.5,0.6-0.7,1-0.7c0.4,0,0.7,0.2,0.9,0.7c0.1,0.4,0.2,0.9,0.2,1.6V20.3z M144.7,19.5c-0.1-0.5-0.2-0.8-0.4-0.9
					c-0.1-0.2-0.3-0.2-0.5-0.2c-0.1,0-0.3,0-0.4,0.1s-0.1,0.2-0.1,0.3c0,0.2,0.1,0.4,0.3,0.5C143.8,19.4,144.2,19.5,144.7,19.5z"/>
				<path d="M148.8,20.7h-4.1v-1.2h3.6c0-0.6-0.1-1-0.2-1.3c-0.1-0.2-0.3-0.5-0.7-0.9l0.6-1.2c0.3,0.4,0.6,0.8,0.7,1
					c0.1,0.4,0.2,1,0.2,1.8V20.7z M148,22.4l-0.6,1l-1.2-0.6l0.5-1L148,22.4z"/>
				<path d="M156.7,20.7h-0.6c-0.3,0-0.6,0-0.8-0.1c-0.2-0.1-0.4-0.2-0.6-0.3c-0.2,0.2-0.4,0.3-0.6,0.3c-0.2,0.1-0.6,0.1-1,0.1h-0.5
					c-0.3,0-0.5,0-0.8-0.1c-0.2-0.1-0.4-0.2-0.6-0.3c-0.2,0.2-0.4,0.3-0.6,0.3c-0.2,0.1-0.5,0.1-0.9,0.1h-1.4v-1.2h1.4
					c0.4,0,0.7,0,0.8-0.1c0.3-0.1,0.4-0.3,0.4-0.6c0-0.1,0-0.3,0-0.4c0-0.1,0-0.3-0.1-0.5l0.3-0.4c0.1,0.4,0.2,0.7,0.3,0.9
					c0.2,0.3,0.3,0.6,0.5,0.8c0.2,0.2,0.5,0.3,0.8,0.3h0.5c0.4,0,0.6-0.1,0.8-0.2c0.2-0.1,0.3-0.3,0.3-0.6c0-0.1,0-0.3,0-0.4
					c0-0.1,0-0.3-0.1-0.4l0.3-0.4l0.2,0.7c0.1,0.5,0.3,0.9,0.5,1.1c0.2,0.2,0.4,0.3,0.7,0.3c0.1,0,0.2,0,0.3-0.1
					c0.1-0.1,0.1-0.2,0.1-0.3c0-0.3-0.1-0.5-0.3-0.8c0,0-0.2-0.2-0.4-0.5l0.5-0.8c0.2,0.3,0.3,0.5,0.4,0.8c0.1,0.3,0.2,0.7,0.2,1.3
					V20.7z"/>
				<path d="M162.5,20.7h-0.8c-0.3,0-0.7-0.1-1.1-0.2c-0.5-0.2-0.9-0.4-1.2-0.7c-0.3,0.3-0.6,0.6-0.9,0.7c-0.3,0.1-0.7,0.2-1.3,0.2
					h-1.1v-1.2h1.1c0.4,0,0.8-0.1,1.2-0.3c0.3-0.2,0.5-0.4,0.7-0.7c0.3-0.4,0.7-0.8,1.1-1.1c0.4-0.3,0.7-0.4,1.1-0.5
					c0.3,0.5,0.6,0.9,0.8,1.3c0.3,0.5,0.4,1,0.4,1.3V20.7z M161.7,19.3c-0.1-0.3-0.2-0.5-0.3-0.8c-0.1-0.2-0.3-0.4-0.4-0.7
					c-0.2,0.1-0.4,0.2-0.6,0.3c-0.1,0.1-0.2,0.3-0.4,0.5c0.2,0.2,0.4,0.3,0.7,0.5C161.1,19.3,161.4,19.4,161.7,19.3L161.7,19.3z"/>
				<path d="M165.6,20.7H162v-1.2h2.9l-0.9-6l-0.4-0.2c0-0.3,0-0.6,0.1-0.9c0.1-0.3,0.1-0.6,0.3-0.8l0.1,0.1c0,0.3,0.2,0.5,0.5,0.6
					c0.2,0.1,0.5,0.2,0.7,0.3c0,0.2,0,0.5-0.1,0.8c0,0.3-0.1,0.5-0.1,0.6l-0.3-0.1l0.9,5.5V20.7z"/>
				<path d="M168.1,18.9c0,0.4-0.1,0.7-0.2,1.1c-0.1,0.2-0.2,0.5-0.5,0.9l-0.1-0.1c0-0.1,0-0.3,0-0.5c0-0.2,0-0.3,0-0.4
					c0-0.5,0-1.2-0.1-2c-0.1-0.9-0.2-1.8-0.3-2.7c-0.1-0.6-0.1-1.2-0.2-1.8c0.1-0.2,0.2-0.4,0.3-0.7c0.1-0.2,0.2-0.5,0.4-0.7
					c0.1,0.5,0.2,1.3,0.3,2.2c0.1,0.9,0.2,1.8,0.3,2.5C168,17.7,168.1,18.4,168.1,18.9z"/>
				<path d="M180.5,24.6l-1.8,1.2c-1,0-1.8,0-2.3-0.1c-1-0.1-1.7-0.4-2.2-0.8c-0.7-0.5-1-1.2-1-2.2c0-0.6,0.1-1.1,0.3-1.6
					c0.2-0.4,0.4-0.7,0.6-1.1c0.1-0.2,0.4-0.4,0.7-0.7c-0.5-0.2-0.8-0.4-1-0.6c-0.4-0.4-0.6-0.8-0.6-1.4c0-0.5,0.2-1,0.6-1.5
					c0.5-0.6,1.1-0.8,1.8-0.8c0.3,0,0.7,0.1,1,0.3c0.2,0.1,0.5,0.3,0.9,0.6c-0.5,0-1,0-1.5,0.1c-0.6,0.1-1.2,0.2-1.6,0.3
					c-0.5,0.2-0.7,0.4-0.7,0.7c0,0.3,0.3,0.6,0.8,0.8c0.5,0.2,1,0.4,1.6,0.5c0.5-0.3,1-0.5,1.4-0.6c0.5-0.2,1-0.4,1.6-0.5l-0.3,1.1
					c-1,0.4-1.7,0.7-2.2,0.9c-0.9,0.4-1.6,0.8-2.1,1.3c-0.6,0.6-0.9,1.2-0.9,1.8c0,0.7,0.3,1.2,0.8,1.6c0.4,0.3,1.1,0.6,2,0.7
					c0.7,0.1,1.6,0.2,2.6,0.2c0.2,0,0.5,0,0.7,0C180.1,24.6,180.3,24.6,180.5,24.6L180.5,24.6z"/>
				<path d="M188.2,20.7c0,0.5-0.2,1.1-0.7,1.6c-0.4,0.5-0.9,0.9-1.5,1.3c-0.6,0.3-1,0.5-1.4,0.5c-0.3,0-0.7,0-1.1-0.1
					c-0.3-0.1-0.7-0.2-1.1-0.3c-0.3-0.1-0.7-0.3-1-0.4l0.1-0.3c0.3,0.1,0.7,0.1,1,0.2s0.7,0.1,0.9,0.1c0.6,0,1.3-0.2,1.9-0.6
					c0.6-0.4,1.1-0.8,1.6-1.3s0.6-1,0.6-1.5c0-0.4-0.1-0.8-0.3-1.2c-0.2-0.3-0.4-0.7-0.8-1l0.4-1.1c0.4,0.4,0.7,0.7,0.9,1.1
					c0.2,0.4,0.3,0.9,0.3,1.4V20.7z"/>
				<path d="M191.6,20.7h-1c-0.3,0-0.6-0.1-0.8-0.4c-0.2-0.2-0.3-0.6-0.4-1c-0.1-0.4-0.2-1-0.2-1.7c0-0.5-0.1-1.1-0.1-1.6
					c0-0.6-0.1-1-0.1-1.3s-0.1-0.5-0.2-0.7c-0.1-0.2-0.3-0.4-0.4-0.6l0.9-1.4c0.2,0.6,0.3,1.2,0.4,2c0,0.5,0.1,1.6,0.1,3.5
					c0.1,0.8,0.2,1.4,0.4,1.6c0.1,0.2,0.3,0.3,0.4,0.3h1V20.7z"/>
				<path d="M204.3,20.7h-8.7c-0.3,0-0.5,0-0.7-0.1c-0.2-0.1-0.4-0.2-0.6-0.3c-0.2,0.2-0.4,0.3-0.6,0.3c-0.2,0.1-0.5,0.1-1,0.1h-1.4
					v-1.2h1.4c0.4,0,0.7,0,0.8-0.1c0.3-0.1,0.4-0.3,0.4-0.6c0-0.1,0-0.3,0-0.4c0-0.1,0-0.3-0.1-0.5l0.3-0.4c0.2,0.6,0.4,1.1,0.7,1.5
					c0.3,0.4,0.7,0.6,1.1,0.6c0.4,0,0.9-0.1,1.4-0.3c0.6-0.2,1.1-0.4,1.5-0.7c0.7-0.5,1.1-0.8,1.3-0.9c0.4-0.2,0.7-0.4,1.1-0.5
					c0.4-0.1,0.8-0.2,1.2-0.2c0.7,0,1.2,0.2,1.5,0.6c0.3,0.3,0.5,0.8,0.5,1.4V20.7z M199.6,14.8l-0.6,1l-1.2-0.6l0.5-1L199.6,14.8z
					 M203.1,18.9c0-0.2-0.1-0.4-0.4-0.5c-0.3-0.1-0.6-0.2-1-0.2c-0.5,0-1.1,0.2-1.8,0.5c-0.5,0.3-1.1,0.5-1.6,0.8h3.4
					c0.5,0,0.9,0,1.2-0.1C202.9,19.2,203.1,19.1,203.1,18.9z"/>
				<path d="M210.1,20.7h-0.8c-0.3,0-0.7-0.1-1.1-0.2c-0.5-0.2-0.9-0.4-1.2-0.7c-0.3,0.3-0.6,0.6-0.9,0.7c-0.3,0.1-0.7,0.2-1.3,0.2
					h-1.1v-1.2h1.1c0.4,0,0.8-0.1,1.2-0.3c0.3-0.2,0.5-0.4,0.7-0.7c0.3-0.4,0.7-0.8,1.1-1.1c0.4-0.3,0.7-0.4,1.1-0.5
					c0.3,0.5,0.6,0.9,0.8,1.3c0.3,0.5,0.4,1,0.4,1.3V20.7z M209.3,19.3c-0.1-0.3-0.2-0.5-0.3-0.8c-0.1-0.2-0.3-0.4-0.4-0.7
					c-0.2,0.1-0.4,0.2-0.6,0.3c-0.1,0.1-0.2,0.3-0.4,0.5c0.2,0.2,0.4,0.3,0.7,0.5C208.6,19.3,208.9,19.4,209.3,19.3L209.3,19.3z"/>
				<path d="M213.2,20.7h-3.6v-1.2h2.9l-0.9-6l-0.4-0.2c0-0.3,0-0.6,0.1-0.9c0.1-0.3,0.1-0.6,0.3-0.8l0.1,0.1c0,0.3,0.2,0.5,0.5,0.6
					c0.2,0.1,0.5,0.2,0.7,0.3c0,0.2,0,0.5-0.1,0.8c0,0.3-0.1,0.5-0.1,0.6l-0.3-0.1l0.9,5.5V20.7z"/>
				<path d="M215.7,18.9c0,0.4-0.1,0.7-0.2,1.1c-0.1,0.2-0.2,0.5-0.5,0.9l-0.1-0.1c0-0.1,0-0.3,0-0.5c0-0.2,0-0.3,0-0.4
					c0-0.5,0-1.2-0.1-2c-0.1-0.9-0.2-1.8-0.3-2.7c-0.1-0.6-0.1-1.2-0.2-1.8c0.1-0.2,0.2-0.4,0.3-0.7c0.1-0.2,0.2-0.5,0.4-0.7
					c0.1,0.5,0.2,1.3,0.3,2.2c0.1,0.9,0.2,1.8,0.3,2.5C215.6,17.7,215.7,18.4,215.7,18.9z"/>
				<path d="M228,19.8c0,0.8-0.2,1.4-0.5,1.8c-0.3,0.4-0.8,0.7-1.4,0.8c-0.5,0.1-1.2,0.2-2,0.2c-0.9,0-1.7-0.2-2.2-0.5
					c-0.6-0.4-0.8-0.9-0.8-1.6c0-0.4,0.1-0.8,0.2-1.3c0.1-0.4,0.3-0.8,0.5-1.2c0.2-0.3,0.4-0.7,0.6-1.2l0.2,0.1
					c-0.2,0.3-0.3,0.6-0.5,0.8c-0.2,0.3-0.3,0.6-0.4,0.9c-0.1,0.3-0.1,0.6-0.1,0.9c0,0.6,0.2,1,0.7,1.3c0.4,0.3,1,0.4,1.8,0.4
					c0.8,0,1.6-0.1,2.3-0.4c0.8-0.3,1.1-0.7,1.1-1.1c0-0.5-0.1-1.2-0.2-2.3c-0.1-0.8-0.3-1.8-0.4-2.8l-0.2-1.4l-0.3-0.2
					c0-0.6,0.1-1.2,0.4-1.7h0.1c0,0.2,0.1,0.3,0.1,0.4c0,0.1,0.1,0.2,0.2,0.2c0.2,0.1,0.3,0.1,0.5,0.2c0.1,0.1,0.2,0.1,0.3,0.2
					c0,0.3,0,0.6,0,0.7c0,0.2-0.1,0.4-0.1,0.6l-0.4-0.1c0,0.1,0.1,0.6,0.2,1.4c0.2,1,0.3,1.8,0.3,2.4C227.9,18.5,228,19.3,228,19.8z
					"/>
				<path d="M233.8,20.7h-1.1c-0.3,0-0.6-0.1-1-0.2c-0.4-0.2-0.7-0.4-0.8-0.7c-0.3,0.3-0.7,0.5-1.1,0.7c-0.5,0.2-1.1,0.3-1.7,0.3
					h-0.7v-1.2h0.7c0.4,0,0.8,0,1.1-0.1c0.4-0.1,0.8-0.3,1.2-0.5l-0.3-0.4c-0.2-0.2-0.3-0.3-0.5-0.3c-0.1,0-0.2,0-0.2,0
					c-0.1,0-0.1,0.1-0.2,0.2H229V18c0-0.5,0.1-0.9,0.4-1.1c0.3-0.2,0.7-0.3,1.3-0.3c0.5,0,1,0.1,1.3,0.2c0.5,0.2,0.7,0.5,0.7,0.8
					c0,0.2-0.1,0.4-0.3,0.6c-0.1,0.2-0.4,0.4-0.7,0.7c0.1,0.1,0.2,0.2,0.4,0.3s0.4,0.1,0.6,0.1h1.1V20.7z"/>
				<path d="M237.8,20.7h-4.4v-1.2h2.5c0.3,0,0.6,0,0.8,0c0.2,0,0.4-0.1,0.7-0.1c-0.8-0.1-1.4-0.2-1.6-0.3c-0.6-0.2-0.8-0.6-0.8-1.2
					c0-0.5,0.1-1,0.4-1.4c0.3-0.5,0.7-0.7,1.1-0.7c0.5,0,0.9,0.3,1.1,0.9c0.2,0.5,0.3,1.1,0.3,1.7V20.7z M237.1,13.2l-0.6,1l-1-0.7
					l0.6-1L237.1,13.2z M237.1,18.2c-0.1-0.4-0.2-0.7-0.3-0.8c-0.2-0.4-0.4-0.5-0.7-0.5c-0.1,0-0.3,0.1-0.3,0.2
					c-0.1,0.1-0.1,0.2-0.1,0.4c0,0.4,0.2,0.6,0.6,0.7C236.3,18.1,236.6,18.2,237.1,18.2z"/>
				<path d="M240.8,20.7h-3.6v-1.2h2.9l-0.9-6l-0.4-0.2c0-0.3,0-0.6,0.1-0.9c0.1-0.3,0.1-0.6,0.3-0.8l0.1,0.1c0,0.3,0.2,0.5,0.5,0.6
					c0.2,0.1,0.5,0.2,0.7,0.3c0,0.2,0,0.5-0.1,0.8c0,0.3-0.1,0.5-0.1,0.6l-0.3-0.1l0.9,5.5V20.7z"/>
				<path d="M243.3,18.9c0,0.4-0.1,0.7-0.2,1.1c-0.1,0.2-0.2,0.5-0.5,0.9l-0.1-0.1c0-0.1,0-0.3,0-0.5c0-0.2,0-0.3,0-0.4
					c0-0.5,0-1.2-0.1-2c-0.1-0.9-0.2-1.8-0.3-2.7c-0.1-0.6-0.1-1.2-0.2-1.8c0.1-0.2,0.2-0.4,0.3-0.7c0.1-0.2,0.2-0.5,0.4-0.7
					c0.1,0.5,0.2,1.3,0.3,2.2c0.1,0.9,0.2,1.8,0.3,2.5C243.3,17.7,243.3,18.4,243.3,18.9z"/>
			</g>
		</g>
	</g>
	<rect class="st1" width="262.5" height="34.8"/>
</g>
</svg>
