<?xml version="1.0" encoding="utf-8"?>
<!-- Generator: Adobe Illustrator 19.2.0, SVG Export Plug-In . SVG Version: 6.00 Build 0)  -->
<svg version="1.1" id="Layer_1" xmlns="http://www.w3.org/2000/svg" xmlns:xlink="http://www.w3.org/1999/xlink" x="0px" y="0px"
	 viewBox="0 0 262.5 34.8" style="enable-background:new 0 0 262.5 34.8;" xml:space="preserve">
<style type="text/css">
	.st0{fill:#BA0017;}
	.st1{fill:none;}
</style>
<g>
	<g>
		<g>
			<g>
				<path class="st0" d="M37.1,21.5h-1c-0.3,0-0.6-0.1-0.8-0.4c-0.2-0.2-0.3-0.6-0.4-1c-0.1-0.4-0.2-1-0.2-1.7
					c0-0.5-0.1-1.1-0.1-1.6c0-0.6-0.1-1-0.1-1.3s-0.1-0.5-0.2-0.7c-0.1-0.2-0.3-0.4-0.4-0.6l0.9-1.4c0.2,0.6,0.3,1.2,0.4,2
					c0,0.5,0.1,1.6,0.1,3.5c0.1,0.8,0.2,1.4,0.4,1.6c0.1,0.2,0.3,0.3,0.4,0.3h1V21.5z"/>
				<path class="st0" d="M41.1,13.3c0,0.4-0.1,0.6-0.2,0.9c-0.1,0.3-0.3,0.4-0.6,0.4c-0.1,0-0.2,0-0.2,0c-0.1,0-0.2-0.1-0.2-0.1
					c-0.1,0.2-0.2,0.3-0.3,0.4c-0.2,0.2-0.3,0.2-0.5,0.2c-0.2,0-0.4-0.1-0.5-0.2c-0.1-0.1-0.2-0.3-0.2-0.6c0-0.1,0-0.2,0.1-0.4
					s0.1-0.3,0.1-0.4l0.2-0.1c0,0,0,0.1,0,0.2s0,0.2,0,0.2c0,0.1,0,0.2,0.1,0.3c0,0.1,0.1,0.1,0.2,0.1c0.2,0,0.4-0.1,0.5-0.4
					c0.1-0.1,0.1-0.4,0.2-0.7l0.2,0c0,0.2,0.1,0.4,0.1,0.4c0.1,0.1,0.2,0.2,0.3,0.2c0.2,0,0.3-0.1,0.4-0.4c0.1-0.2,0.1-0.4,0.1-0.6
					l0.2,0c0,0.1,0,0.2,0.1,0.3C41.1,13.1,41.1,13.2,41.1,13.3z"/>
				<path class="st0" d="M43,21.5h-0.8c-0.3,0-0.7-0.1-1.1-0.2c-0.5-0.2-0.9-0.4-1.2-0.7c-0.3,0.3-0.6,0.6-0.9,0.7
					c-0.3,0.1-0.7,0.2-1.3,0.2h-1.1v-1.2h1.1c0.4,0,0.8-0.1,1.2-0.3c0.3-0.2,0.5-0.4,0.7-0.7c0.3-0.4,0.7-0.8,1.1-1.1
					c0.4-0.3,0.7-0.4,1.1-0.5c0.3,0.5,0.6,0.9,0.8,1.3c0.3,0.5,0.4,1,0.4,1.3V21.5z M42.1,20.1c-0.1-0.3-0.2-0.5-0.3-0.8
					c-0.1-0.2-0.3-0.4-0.4-0.7c-0.2,0.1-0.4,0.2-0.6,0.3c-0.1,0.1-0.2,0.3-0.4,0.5c0.2,0.2,0.4,0.3,0.7,0.5
					C41.5,20.1,41.8,20.2,42.1,20.1L42.1,20.1z"/>
				<path class="st0" d="M46,21.5h-3.6v-1.2h2.9l-0.9-6l-0.4-0.2c0-0.3,0-0.6,0.1-0.9c0.1-0.3,0.1-0.6,0.3-0.8l0.1,0.1
					c0,0.3,0.2,0.5,0.5,0.6c0.2,0.1,0.5,0.2,0.7,0.3c0,0.2,0,0.5-0.1,0.8c0,0.3-0.1,0.5-0.1,0.6l-0.3-0.1l0.9,5.5V21.5z"/>
				<path d="M55.2,21.5h-0.9c-0.8,0-1.5,0.1-2.1,0.2c-0.8,0.2-1.1,0.4-1.1,0.8c0,0.3,0.1,0.6,0.2,1s0.2,0.7,0.3,1.1
					c0.1,0.4,0.2,0.7,0.2,1c0,0.2,0,0.3,0,0.5c0,0.1-0.1,0.3-0.1,0.6c-0.1-0.4-0.2-0.8-0.4-1.2c-0.2-0.7-0.4-1.3-0.5-1.7
					c-0.2-0.6-0.3-1-0.3-1.1c0-0.6,0.1-1.1,0.4-1.4s0.7-0.6,1.2-0.7c0.4-0.1,1.1-0.2,1.9-0.3c-0.3-0.3-0.5-0.5-0.6-0.5
					c-0.2-0.2-0.5-0.3-0.7-0.3c-0.2,0-0.3,0-0.5,0.1c-0.1,0.1-0.3,0.2-0.4,0.4l-0.3-0.2c0.1-0.4,0.3-0.6,0.5-0.8
					c0.3-0.3,0.7-0.5,1.1-0.5c0.3,0,0.6,0.1,0.9,0.3c0.2,0.2,0.5,0.4,0.8,0.7c0.1,0.2,0.3,0.4,0.6,0.8V21.5z"/>
				<path d="M62.5,21.5c0,0.5-0.2,1.1-0.7,1.6c-0.4,0.5-0.9,0.9-1.5,1.3c-0.6,0.3-1,0.5-1.4,0.5c-0.3,0-0.7,0-1.1-0.1
					c-0.3-0.1-0.6-0.2-1.1-0.3c-0.3-0.1-0.7-0.3-1-0.4l0.1-0.3c0.3,0.1,0.7,0.1,1,0.2s0.7,0.1,0.9,0.1c0.6,0,1.3-0.2,1.9-0.6
					c0.6-0.4,1.1-0.8,1.6-1.3s0.6-1,0.6-1.5c0-0.4-0.1-0.8-0.3-1.2c-0.2-0.3-0.4-0.7-0.8-1l0.4-1.1c0.4,0.4,0.7,0.7,0.9,1.1
					c0.2,0.4,0.3,0.9,0.3,1.4V21.5z M61.4,14.9l-0.6,1l-1.2-0.6l0.5-1L61.4,14.9z"/>
				<path d="M70.4,21.5H62v-1.2h5.9c-0.5-0.4-0.9-0.7-1.3-0.9c-0.4-0.3-0.8-0.4-1.2-0.6c-0.4-0.1-0.8-0.2-1.2-0.2
					c-0.2,0-0.5,0-0.7,0c0.1-0.3,0.3-0.6,0.6-0.8c0.3-0.3,0.7-0.5,1.3-0.5c0.5,0,1.1,0.2,1.8,0.7c0.3,0.2,0.9,0.7,1.6,1.3
					c0.6,0.5,1,0.8,1.2,0.8h0.4V21.5z M66.7,23l-0.5,1L65,23.5l0.6-1L66.7,23z"/>
				<path d="M73.5,21.5h-3.6v-1.2h2.9l-0.9-6l-0.4-0.2c0-0.3,0-0.6,0.1-0.9c0.1-0.3,0.1-0.6,0.3-0.8l0.1,0.1c0,0.3,0.2,0.5,0.5,0.6
					c0.2,0.1,0.5,0.2,0.7,0.3c0,0.2,0,0.5-0.1,0.8c0,0.3-0.1,0.5-0.1,0.6l-0.3-0.1l0.9,5.5V21.5z"/>
				<path d="M75.9,19.7c0,0.4-0.1,0.7-0.2,1.1c-0.1,0.2-0.2,0.5-0.5,0.9l-0.1-0.1c0-0.1,0-0.3,0-0.5c0-0.2,0-0.3,0-0.4
					c0-0.5,0-1.2-0.1-2c-0.1-0.9-0.2-1.8-0.3-2.7c-0.1-0.6-0.1-1.2-0.2-1.8c0.1-0.2,0.2-0.4,0.3-0.7c0.1-0.2,0.2-0.5,0.4-0.7
					c0.1,0.5,0.2,1.3,0.3,2.2c0.1,0.9,0.2,1.8,0.3,2.5C75.9,18.5,75.9,19.2,75.9,19.7z"/>
				<path d="M92.5,21.5h-6.7c-1,0-1.8-0.1-2.5-0.2c-0.7-0.1-1.3-0.4-1.7-0.7c-0.4-0.4-0.6-0.9-0.6-1.5c0-0.4,0.1-0.9,0.4-1.5
					c0.2-0.4,0.3-0.7,0.4-0.9l0.3,0.2c-0.2,0.4-0.3,0.7-0.4,0.9c-0.1,0.2-0.1,0.4-0.1,0.6c0,0.6,0.3,1.1,1,1.4
					c0.7,0.3,1.8,0.4,3.3,0.4h5.4c-0.6-0.2-1-0.3-1.3-0.5c-0.3-0.2-0.5-0.5-0.5-0.8c0-0.4,0.2-0.9,0.5-1.4c0.3-0.6,0.7-0.8,1.1-0.8
					c0.5,0,0.8,0.3,1,0.8c0.2,0.5,0.3,1.1,0.3,2V21.5z M91,14.3l-0.6,1l-1.2-0.6l0.6-1L91,14.3z M91.7,19.4c0-0.4,0-0.7-0.1-0.9
					C91.4,18.2,91.3,18,91,18c-0.2,0-0.3,0-0.4,0.1s-0.1,0.2-0.1,0.4c0,0.2,0.1,0.4,0.3,0.5C91,19.2,91.3,19.3,91.7,19.4z"/>
				<path d="M99.7,21.5c0,0.5-0.2,1.1-0.7,1.6c-0.4,0.5-0.9,0.9-1.5,1.3c-0.6,0.3-1,0.5-1.4,0.5c-0.3,0-0.7,0-1.1-0.1
					c-0.3-0.1-0.7-0.2-1.1-0.3c-0.3-0.1-0.7-0.3-1-0.4l0.1-0.3c0.3,0.1,0.7,0.1,1,0.2s0.7,0.1,0.9,0.1c0.6,0,1.3-0.2,1.9-0.6
					c0.6-0.4,1.1-0.8,1.6-1.3s0.6-1,0.6-1.5c0-0.4-0.1-0.8-0.3-1.2c-0.2-0.3-0.4-0.7-0.8-1l0.4-1.1c0.4,0.4,0.7,0.7,0.9,1.1
					c0.2,0.4,0.3,0.9,0.3,1.4V21.5z"/>
				<path d="M107.6,21.5h-8.4v-1.2h5.9c-0.5-0.4-0.9-0.7-1.3-0.9c-0.4-0.3-0.8-0.4-1.2-0.6c-0.4-0.1-0.8-0.2-1.2-0.2
					c-0.2,0-0.5,0-0.7,0c0.1-0.3,0.3-0.6,0.6-0.8c0.3-0.3,0.7-0.5,1.3-0.5c0.5,0,1.1,0.2,1.8,0.7c0.3,0.2,0.9,0.7,1.6,1.3
					c0.6,0.5,1,0.8,1.2,0.8h0.4V21.5z"/>
				<path d="M111.3,21.5h-4.1v-1.2h3.6c0-0.6-0.1-1-0.2-1.3c-0.1-0.2-0.3-0.5-0.7-0.9l0.6-1.2c0.3,0.4,0.6,0.8,0.7,1
					c0.1,0.4,0.2,1,0.2,1.8V21.5z M110.5,23.2l-0.6,1l-1.2-0.6l0.5-1L110.5,23.2z"/>
				<path d="M124.1,21.9c0,0.9-0.5,1.6-1.4,2.1c-0.8,0.4-1.9,0.7-3.3,0.7c-1.1,0-1.9-0.2-2.5-0.6c-0.6-0.4-1-1-1-1.8
					c0-0.6,0.1-1.1,0.3-1.8c0.2-0.6,0.4-1.1,0.7-1.7l0.3,0.1c-0.1,0.3-0.3,0.6-0.4,0.9c-0.1,0.3-0.2,0.6-0.3,0.9
					c-0.1,0.3-0.1,0.6-0.1,0.9c0,0.6,0.3,1.1,0.8,1.4c0.5,0.3,1.2,0.4,2.2,0.4c1,0,1.9-0.2,2.7-0.5c0.9-0.4,1.3-0.9,1.3-1.5
					c0-0.2,0-0.4,0-0.5c0-0.1,0-0.2-0.1-0.3c-0.2,0.1-0.4,0.2-0.6,0.2c-0.2,0-0.4,0.1-0.6,0.1c-0.4,0-0.8-0.1-1-0.3
					c-0.3-0.2-0.5-0.6-0.5-1c0-0.5,0.1-1,0.4-1.5c0.3-0.5,0.7-0.8,1.1-0.8c0.6,0,1,0.4,1.3,1.1c0.3,0.6,0.4,1.4,0.4,2.2V21.9z
					 M121.5,14.9l-0.6,1l-1.2-0.6l0.5-1L121.5,14.9z M122.9,19.2c-0.1-0.3-0.2-0.5-0.3-0.5c-0.1-0.2-0.3-0.3-0.5-0.3
					c-0.2,0-0.4,0.1-0.5,0.2c-0.1,0.1-0.2,0.2-0.2,0.4c0,0.1,0.1,0.3,0.2,0.3c0.1,0.1,0.3,0.1,0.5,0.1c0.1,0,0.2,0,0.4-0.1
					C122.6,19.4,122.7,19.3,122.9,19.2z M123.2,14.3l-0.6,1l-1.2-0.6l0.5-1L123.2,14.3z"/>
				<path d="M130.5,21.1c0,0.8-0.3,1.5-0.9,2.3c-0.7,0.9-1.4,1.3-2.3,1.3c-0.3,0-0.7,0-1-0.1c-0.2-0.1-0.6-0.1-1-0.3
					c-0.3-0.1-0.6-0.2-0.9-0.3l0.1-0.2c0.3,0.1,0.6,0.1,0.9,0.2c0.3,0.1,0.6,0.1,0.8,0.1c0.6,0,1.2-0.1,1.7-0.4
					c0.4-0.2,0.8-0.6,1.2-1c0.2-0.2,0.5-0.6,0.9-1.1c-0.7,0-1.1-0.1-1.5-0.3c-0.4-0.2-0.6-0.6-0.6-1.1c0-0.5,0.1-0.9,0.3-1.3
					c0.3-0.5,0.6-0.7,1-0.7c0.4,0,0.7,0.2,0.9,0.7c0.1,0.4,0.2,0.9,0.2,1.6V21.1z M130,20.3c-0.1-0.5-0.2-0.8-0.4-0.9
					c-0.1-0.2-0.3-0.2-0.5-0.2c-0.1,0-0.3,0-0.4,0.1s-0.1,0.2-0.1,0.3c0,0.2,0.1,0.4,0.3,0.5C129.2,20.2,129.6,20.3,130,20.3z"/>
				<path d="M134.1,21.5H130v-1.2h3.6c0-0.6-0.1-1-0.2-1.3c-0.1-0.2-0.3-0.5-0.7-0.9l0.6-1.2c0.3,0.4,0.6,0.8,0.7,1
					c0.1,0.4,0.2,1,0.2,1.8V21.5z M133.4,23.2l-0.6,1l-1.2-0.6l0.5-1L133.4,23.2z"/>
				<path d="M142,21.5h-0.6c-0.3,0-0.6,0-0.8-0.1c-0.2-0.1-0.4-0.2-0.6-0.3c-0.2,0.2-0.4,0.3-0.6,0.3c-0.2,0.1-0.6,0.1-1,0.1H138
					c-0.3,0-0.5,0-0.8-0.1c-0.2-0.1-0.4-0.2-0.6-0.3c-0.2,0.2-0.4,0.3-0.6,0.3c-0.2,0.1-0.5,0.1-0.9,0.1h-1.4v-1.2h1.4
					c0.4,0,0.7,0,0.8-0.1c0.3-0.1,0.4-0.3,0.4-0.6c0-0.1,0-0.3,0-0.4c0-0.1,0-0.3-0.1-0.5l0.3-0.4c0.1,0.4,0.2,0.7,0.3,0.9
					c0.2,0.3,0.3,0.6,0.5,0.8c0.2,0.2,0.5,0.3,0.8,0.3h0.5c0.4,0,0.6-0.1,0.8-0.2c0.2-0.1,0.3-0.3,0.3-0.6c0-0.1,0-0.3,0-0.4
					c0-0.1,0-0.3-0.1-0.4l0.3-0.4l0.2,0.7c0.1,0.5,0.3,0.9,0.5,1.1c0.2,0.2,0.4,0.3,0.7,0.3c0.1,0,0.2,0,0.3-0.1
					c0.1-0.1,0.1-0.2,0.1-0.3c0-0.3-0.1-0.5-0.3-0.8c0,0-0.2-0.2-0.4-0.5l0.5-0.8c0.2,0.3,0.3,0.5,0.4,0.8c0.1,0.3,0.2,0.7,0.2,1.3
					V21.5z"/>
				<path d="M147.9,21.5h-0.8c-0.3,0-0.7-0.1-1.1-0.2c-0.5-0.2-0.9-0.4-1.2-0.7c-0.3,0.3-0.6,0.6-0.9,0.7c-0.3,0.1-0.7,0.2-1.3,0.2
					h-1.1v-1.2h1.1c0.4,0,0.8-0.1,1.2-0.3c0.3-0.2,0.5-0.4,0.7-0.7c0.3-0.4,0.7-0.8,1.1-1.1c0.4-0.3,0.7-0.4,1.1-0.5
					c0.3,0.5,0.6,0.9,0.8,1.3c0.3,0.5,0.4,1,0.4,1.3V21.5z M147.1,20.1c-0.1-0.3-0.2-0.5-0.3-0.8c-0.1-0.2-0.3-0.4-0.4-0.7
					c-0.2,0.1-0.4,0.2-0.6,0.3c-0.1,0.1-0.2,0.3-0.4,0.5c0.2,0.2,0.4,0.3,0.7,0.5C146.4,20.1,146.7,20.2,147.1,20.1L147.1,20.1z"/>
				<path d="M151,21.5h-3.6v-1.2h2.9l-0.9-6l-0.4-0.2c0-0.3,0-0.6,0.1-0.9c0.1-0.3,0.1-0.6,0.3-0.8l0.1,0.1c0,0.3,0.2,0.5,0.5,0.6
					c0.2,0.1,0.5,0.2,0.7,0.3c0,0.2,0,0.5-0.1,0.8c0,0.3-0.1,0.5-0.1,0.6l-0.3-0.1l0.9,5.5V21.5z"/>
				<path d="M153.5,19.7c0,0.4-0.1,0.7-0.2,1.1c-0.1,0.2-0.2,0.5-0.5,0.9l-0.1-0.1c0-0.1,0-0.3,0-0.5c0-0.2,0-0.3,0-0.4
					c0-0.5,0-1.2-0.1-2c-0.1-0.9-0.2-1.8-0.3-2.7c-0.1-0.6-0.1-1.2-0.2-1.8c0.1-0.2,0.2-0.4,0.3-0.7c0.1-0.2,0.2-0.5,0.4-0.7
					c0.1,0.5,0.2,1.3,0.3,2.2c0.1,0.9,0.2,1.8,0.3,2.5C153.4,18.5,153.5,19.2,153.5,19.7z"/>
				<path d="M165.9,25.5l-1.8,1.2c-1,0-1.8,0-2.3-0.1c-1-0.1-1.7-0.4-2.2-0.8c-0.7-0.5-1-1.2-1-2.2c0-0.6,0.1-1.1,0.3-1.6
					c0.2-0.4,0.4-0.7,0.6-1.1c0.1-0.2,0.4-0.4,0.7-0.7c-0.5-0.2-0.8-0.4-1-0.6c-0.4-0.4-0.6-0.8-0.6-1.4c0-0.5,0.2-1,0.6-1.5
					c0.5-0.6,1.1-0.8,1.8-0.8c0.3,0,0.7,0.1,1,0.3c0.2,0.1,0.5,0.3,0.9,0.6c-0.5,0-1,0-1.5,0.1c-0.6,0.1-1.2,0.2-1.6,0.3
					c-0.5,0.2-0.7,0.4-0.7,0.7c0,0.3,0.3,0.6,0.8,0.8c0.5,0.2,1,0.4,1.6,0.5c0.5-0.3,1-0.5,1.4-0.6c0.5-0.2,1-0.4,1.6-0.5l-0.3,1.1
					c-1,0.4-1.7,0.7-2.2,0.9c-0.9,0.4-1.6,0.8-2.1,1.3c-0.6,0.6-0.9,1.2-0.9,1.8c0,0.7,0.3,1.2,0.8,1.6c0.4,0.3,1.1,0.6,2,0.7
					c0.7,0.1,1.6,0.2,2.6,0.2c0.2,0,0.5,0,0.7,0C165.5,25.4,165.7,25.4,165.9,25.5L165.9,25.5z"/>
				<path d="M173.6,21.5c0,0.5-0.2,1.1-0.7,1.6c-0.4,0.5-0.9,0.9-1.5,1.3c-0.6,0.3-1,0.5-1.4,0.5c-0.3,0-0.7,0-1.1-0.1
					c-0.3-0.1-0.7-0.2-1.1-0.3c-0.3-0.1-0.7-0.3-1-0.4l0.1-0.3c0.3,0.1,0.7,0.1,1,0.2s0.7,0.1,0.9,0.1c0.6,0,1.3-0.2,1.9-0.6
					c0.6-0.4,1.1-0.8,1.6-1.3s0.6-1,0.6-1.5c0-0.4-0.1-0.8-0.3-1.2c-0.2-0.3-0.4-0.7-0.8-1l0.4-1.1c0.4,0.4,0.7,0.7,0.9,1.1
					c0.2,0.4,0.3,0.9,0.3,1.4V21.5z"/>
				<path d="M177,21.5h-1c-0.3,0-0.6-0.1-0.8-0.4c-0.2-0.2-0.3-0.6-0.4-1c-0.1-0.4-0.2-1-0.2-1.7c0-0.5-0.1-1.1-0.1-1.6
					c0-0.6-0.1-1-0.1-1.3s-0.1-0.5-0.2-0.7c-0.1-0.2-0.3-0.4-0.4-0.6l0.9-1.4c0.2,0.6,0.3,1.2,0.4,2c0,0.5,0.1,1.6,0.1,3.5
					c0.1,0.8,0.2,1.4,0.4,1.6c0.1,0.2,0.3,0.3,0.4,0.3h1V21.5z"/>
				<path d="M189.6,21.5h-8.7c-0.3,0-0.5,0-0.7-0.1c-0.2-0.1-0.4-0.2-0.6-0.3c-0.2,0.2-0.4,0.3-0.6,0.3c-0.2,0.1-0.5,0.1-1,0.1h-1.4
					v-1.2h1.4c0.4,0,0.7,0,0.8-0.1c0.3-0.1,0.4-0.3,0.4-0.6c0-0.1,0-0.3,0-0.4c0-0.1,0-0.3-0.1-0.5l0.3-0.4c0.2,0.6,0.4,1.1,0.7,1.5
					c0.3,0.4,0.7,0.6,1.1,0.6c0.4,0,0.9-0.1,1.4-0.3c0.6-0.2,1.1-0.4,1.5-0.7c0.7-0.5,1.1-0.8,1.3-0.9c0.4-0.2,0.7-0.4,1.1-0.5
					c0.4-0.1,0.8-0.2,1.2-0.2c0.7,0,1.2,0.2,1.5,0.6c0.3,0.3,0.5,0.8,0.5,1.4V21.5z M185,15.6l-0.6,1l-1.2-0.6l0.5-1L185,15.6z
					 M188.5,19.7c0-0.2-0.1-0.4-0.4-0.5c-0.3-0.1-0.6-0.2-1-0.2c-0.5,0-1.1,0.2-1.8,0.5c-0.5,0.3-1.1,0.5-1.6,0.8h3.4
					c0.5,0,0.9,0,1.2-0.1C188.3,20,188.5,19.9,188.5,19.7z"/>
				<path d="M195.5,21.5h-0.8c-0.3,0-0.7-0.1-1.1-0.2c-0.5-0.2-0.9-0.4-1.2-0.7c-0.3,0.3-0.6,0.6-0.9,0.7c-0.3,0.1-0.7,0.2-1.3,0.2
					h-1.1v-1.2h1.1c0.4,0,0.8-0.1,1.2-0.3c0.3-0.2,0.5-0.4,0.7-0.7c0.3-0.4,0.7-0.8,1.1-1.1c0.4-0.3,0.7-0.4,1.1-0.5
					c0.3,0.5,0.6,0.9,0.8,1.3c0.3,0.5,0.4,1,0.4,1.3V21.5z M194.7,20.1c-0.1-0.3-0.2-0.5-0.3-0.8c-0.1-0.2-0.3-0.4-0.4-0.7
					c-0.2,0.1-0.4,0.2-0.6,0.3c-0.1,0.1-0.2,0.3-0.4,0.5c0.2,0.2,0.4,0.3,0.7,0.5C194,20.1,194.3,20.2,194.7,20.1L194.7,20.1z"/>
				<path d="M198.6,21.5H195v-1.2h2.9l-0.9-6l-0.4-0.2c0-0.3,0-0.6,0.1-0.9c0.1-0.3,0.1-0.6,0.3-0.8l0.1,0.1c0,0.3,0.2,0.5,0.5,0.6
					c0.2,0.1,0.5,0.2,0.7,0.3c0,0.2,0,0.5-0.1,0.8c0,0.3-0.1,0.5-0.1,0.6l-0.3-0.1l0.9,5.5V21.5z"/>
				<path d="M201.1,19.7c0,0.4-0.1,0.7-0.2,1.1c-0.1,0.2-0.2,0.5-0.5,0.9l-0.1-0.1c0-0.1,0-0.3,0-0.5c0-0.2,0-0.3,0-0.4
					c0-0.5,0-1.2-0.1-2c-0.1-0.9-0.2-1.8-0.3-2.7c-0.1-0.6-0.1-1.2-0.2-1.8c0.1-0.2,0.2-0.4,0.3-0.7c0.1-0.2,0.2-0.5,0.4-0.7
					c0.1,0.5,0.2,1.3,0.3,2.2c0.1,0.9,0.2,1.8,0.3,2.5C201,18.5,201.1,19.2,201.1,19.7z"/>
				<path d="M213.4,20.6c0,0.8-0.2,1.4-0.5,1.8c-0.3,0.4-0.8,0.7-1.4,0.8c-0.5,0.1-1.2,0.2-2,0.2c-0.9,0-1.7-0.2-2.2-0.5
					c-0.6-0.4-0.8-0.9-0.8-1.6c0-0.4,0.1-0.8,0.2-1.3c0.1-0.4,0.3-0.8,0.5-1.2c0.2-0.3,0.4-0.7,0.6-1.2l0.2,0.1
					c-0.2,0.3-0.3,0.6-0.5,0.8c-0.2,0.3-0.3,0.6-0.4,0.9c-0.1,0.3-0.1,0.6-0.1,0.9c0,0.6,0.2,1,0.7,1.3c0.4,0.3,1,0.4,1.8,0.4
					c0.8,0,1.6-0.1,2.3-0.4c0.8-0.3,1.1-0.7,1.1-1.1c0-0.5-0.1-1.2-0.2-2.3c-0.1-0.8-0.3-1.8-0.4-2.8l-0.2-1.4l-0.3-0.2
					c0-0.6,0.1-1.2,0.4-1.7h0.1c0,0.2,0.1,0.3,0.1,0.4c0,0.1,0.1,0.2,0.2,0.2c0.2,0.1,0.3,0.1,0.5,0.2c0.1,0.1,0.2,0.1,0.3,0.2
					c0,0.3,0,0.6,0,0.7c0,0.2-0.1,0.4-0.1,0.6l-0.4-0.1c0,0.1,0.1,0.6,0.2,1.4c0.2,1,0.3,1.8,0.3,2.4
					C213.3,19.4,213.4,20.1,213.4,20.6z"/>
				<path d="M219.2,21.5h-1.1c-0.3,0-0.6-0.1-1-0.2c-0.4-0.2-0.7-0.4-0.8-0.7c-0.3,0.3-0.7,0.5-1.1,0.7c-0.5,0.2-1.1,0.3-1.7,0.3
					h-0.7v-1.2h0.7c0.4,0,0.8,0,1.1-0.1c0.4-0.1,0.8-0.3,1.2-0.5l-0.3-0.4c-0.2-0.2-0.3-0.3-0.5-0.3c-0.1,0-0.2,0-0.2,0
					c-0.1,0-0.1,0.1-0.2,0.2h-0.2v-0.4c0-0.5,0.1-0.9,0.4-1.1c0.3-0.2,0.7-0.3,1.3-0.3c0.5,0,1,0.1,1.3,0.2c0.5,0.2,0.7,0.5,0.7,0.8
					c0,0.2-0.1,0.4-0.3,0.6c-0.1,0.2-0.4,0.4-0.7,0.7c0.1,0.1,0.2,0.2,0.4,0.3s0.4,0.1,0.6,0.1h1.1V21.5z"/>
				<path d="M223.1,21.5h-4.4v-1.2h2.5c0.3,0,0.6,0,0.8,0c0.2,0,0.4-0.1,0.7-0.1c-0.8-0.1-1.4-0.2-1.6-0.3c-0.6-0.2-0.8-0.6-0.8-1.2
					c0-0.5,0.1-1,0.4-1.4c0.3-0.5,0.7-0.7,1.1-0.7c0.5,0,0.9,0.3,1.1,0.9c0.2,0.5,0.3,1.1,0.3,1.7V21.5z M222.5,14l-0.6,1l-1-0.7
					l0.6-1L222.5,14z M222.5,19c-0.1-0.4-0.2-0.7-0.3-0.8c-0.2-0.4-0.4-0.5-0.7-0.5c-0.1,0-0.3,0.1-0.3,0.2
					c-0.1,0.1-0.1,0.2-0.1,0.4c0,0.4,0.2,0.6,0.6,0.7C221.7,19,222,19,222.5,19z"/>
				<path d="M226.2,21.5h-3.6v-1.2h2.9l-0.9-6l-0.4-0.2c0-0.3,0-0.6,0.1-0.9c0.1-0.3,0.1-0.6,0.3-0.8l0.1,0.1c0,0.3,0.2,0.5,0.5,0.6
					c0.2,0.1,0.5,0.2,0.7,0.3c0,0.2,0,0.5-0.1,0.8c0,0.3-0.1,0.5-0.1,0.6l-0.3-0.1l0.9,5.5V21.5z"/>
				<path d="M228.7,19.7c0,0.4-0.1,0.7-0.2,1.1c-0.1,0.2-0.2,0.5-0.5,0.9l-0.1-0.1c0-0.1,0-0.3,0-0.5c0-0.2,0-0.3,0-0.4
					c0-0.5,0-1.2-0.1-2c-0.1-0.9-0.2-1.8-0.3-2.7c-0.1-0.6-0.1-1.2-0.2-1.8c0.1-0.2,0.2-0.4,0.3-0.7c0.1-0.2,0.2-0.5,0.4-0.7
					c0.1,0.5,0.2,1.3,0.3,2.2c0.1,0.9,0.2,1.8,0.3,2.5C228.6,18.5,228.7,19.2,228.7,19.7z"/>
			</g>
		</g>
	</g>
	<rect class="st1" width="262.5" height="34.8"/>
</g>
</svg>
