<?xml version="1.0" encoding="utf-8"?>
<!-- Generator: Adobe Illustrator 22.0.1, SVG Export Plug-In . SVG Version: 6.00 Build 0)  -->
<svg version="1.1" id="Layer_1" xmlns="http://www.w3.org/2000/svg" xmlns:xlink="http://www.w3.org/1999/xlink" x="0px" y="0px"
	 viewBox="0 0 127 81.5" style="enable-background:new 0 0 127 81.5;" xml:space="preserve">
<style type="text/css">
	.st0{fill:#235958;}
	.st1{fill:#EF5316;}
</style>
<path class="st0" d="M37.3,59.6h-3.7c-3.2,0-5.4-3.3-6.8-10.1c0,1.8,0.2,4.4,0.5,7.8c0.3,3.4,0.5,6,0.5,7.8c0,5.2-1.4,9.2-4.3,12.1
	c-2.8,2.8-6.9,4.3-12.1,4.3c-3.4,0-6.2-0.9-8.2-2.7C1.1,77,0,74.4,0,71c0-4.5,1.7-9.6,5-15.4l1.1,0.6C4.1,60,3,63.1,3,65.4
	c0,4.5,3.3,6.7,9.8,6.7c8.4,0,12.6-2.5,12.6-7.5c0-2.1-0.2-4.6-0.6-7.6c-0.4-2.6-0.7-5.1-1-7.7c-0.2-1.3-0.3-3.7-0.5-7.2
	c-0.5-11.7-0.8-17.2-0.8-16.6c0-1.7,0.4-3.4,1.2-5c0.3-0.6,1.3-2.1,2.8-4.4c0.2,5.9,0.5,11.8,0.7,17.6c0.6,8.9,1.7,14.3,3.3,16.1
	c0.8,1,2.1,1.4,3.9,1.4h2.7v8.4H37.3z"/>
<path class="st0" d="M89.4,19c0,1.6-0.6,3-1.6,4.3c-1.1,1.2-2.5,1.8-4.1,1.8c-2.7,0-4-1.5-4-4.5c0-1.9,0.4-3.5,1.1-4.8
	c1-1.6,2.3-2.3,4.1-2.3c1.3,0,2.4,0.6,3.3,1.8C89,16.5,89.4,17.7,89.4,19z M87.3,20c0-0.6-0.5-1.4-1.6-2.1c-1.1-0.8-2-1.2-2.7-1.2
	c-0.6,0-1.1,0.3-1.6,0.8c-0.5,0.6-0.7,1.1-0.7,1.7c0,1.5,1.1,2.3,3.3,2.3C86.3,21.5,87.3,21,87.3,20z"/>
<path class="st1" d="M71.1,40.5L70.2,47c-1.1,0.2-2.5,0.2-4.4,0.2c-3.8,0-7.3,0.8-10.5,2.4c-1.6,0.8-3.8,2.3-6.6,4.5
	s-4.9,3.7-6.4,4.5c-1.1,0.6-1.8,0.9-2.1,0.9h-3.9v-8.4h4.1c2,0,4-0.4,6-1.2c0.8-0.3,2.9-1.4,6.4-3.2c-3.1-1.6-5.5-2.4-7.2-2.4
	c-1.1,0-2,0.5-2.6,1.5h-5c0.8-3.1,1.6-5.3,2.4-6.7c1.4-2.1,3.4-3.1,6-3.1c1.6,0,4,0.6,7.1,1.8c5,1.9,9.4,2.9,13.3,2.9
	c0.5,0,1.2,0,2.1-0.1C69.9,40.6,70.6,40.5,71.1,40.5z M62.4,28.7l-2.8,5l-4.9-3.6l3-5L62.4,28.7z"/>
<path class="st0" d="M106.8,59.6h-4.2c-4,0-6.7-2.9-8.2-8.6c-2.6,5.3-6.5,7.9-11.8,7.9c-4.2,0-6.3-1.4-6.3-4.2
	c0-0.8,0.8-3.7,2.4-8.8l1,0.2c0.8,2.7,2.9,4,6.5,4c2.2,0,3.7-0.2,4.6-0.5c1.6-0.5,2.4-1.7,2.4-3.5c0-1.6-0.3-4.2-1-7.8s-1-6.3-1-8.1
	c0-0.6,0.6-1.5,1.7-2.7c0.9-0.8,1.7-1.6,2.5-2.4c0,3.1,0.2,5.6,0.6,7.6c0.9,5,1.5,8.1,1.7,9.2c0.9,4.2,1.7,6.8,2.4,7.8
	c0.7,1,1.6,1.5,2.7,1.5h4.2v8.4H106.8z"/>
<path class="st0" d="M127,49.6c0,1.8-0.4,3.4-1.2,4.7c-0.9,1.7-2.2,2.5-3.8,2.5c-1.7,0-4.6-1-8.7-3.1c-0.3,1-1,2.2-2.2,3.5
	c-1.2,1.5-2.2,2.3-3.1,2.3h-2.7v-8.4h2.6c2.3,0,4-1.3,5.1-4c0.8-2,1.6-4,2.3-6c1.3-2.5,2.9-3.8,4.8-3.8c2,0,3.8,1.6,5.1,4.7
	C126.4,44.8,127,47.3,127,49.6z M122.5,48c0-1-0.4-1.8-1.2-2.5c-0.8-0.7-1.8-1-2.8-1c-1.2,0-2.1,0.8-2.9,2.3
	c2.8,1.6,4.7,2.4,5.7,2.4C122.1,49.1,122.5,48.8,122.5,48z"/>
<g>
	<path class="st1" d="M46,18.1c0,1.9-0.6,3.3-1.8,4l-10.9,6.2c0-1.1,0.2-1.9,0.5-2.4s1-1,2-1.6L46,18.1z"/>
</g>
<g>
	<path class="st0" d="M119.7,20c0,1.9-0.6,3.3-1.8,4L107,30.2c0-1.1,0.2-1.9,0.5-2.4s1-1,2-1.6L119.7,20z"/>
</g>
</svg>
