<?xml version="1.0" encoding="utf-8"?>
<!-- Generator: Adobe Illustrator 19.2.0, SVG Export Plug-In . SVG Version: 6.00 Build 0)  -->
<svg version="1.1" id="Layer_1" xmlns="http://www.w3.org/2000/svg" xmlns:xlink="http://www.w3.org/1999/xlink" x="0px" y="0px"
	 viewBox="0 0 34.6 37.6" style="enable-background:new 0 0 34.6 37.6;" xml:space="preserve">
<style type="text/css">
	.st0{opacity:0.5;}
	.st1{fill:#010101;}
	.st2{fill:url(#SVGID_1_);}
	.st3{opacity:0.3;}
	.st4{fill:#FFFFFF;}
</style>
<g>
	<g>
		<g class="st0">
			<circle class="st1" cx="17.3" cy="20.3" r="17.3"/>
		</g>
		<g>
			<g>
				<g>
					
						<linearGradient id="SVGID_1_" gradientUnits="userSpaceOnUse" x1="5.000000e-004" y1="17.2929" x2="34.5865" y2="17.2929" gradientTransform="matrix(1 0 0 1 -5.000000e-004 0)">
						<stop  offset="0" style="stop-color:#848284"/>
						<stop  offset="1" style="stop-color:#060707"/>
					</linearGradient>
					<circle class="st2" cx="17.3" cy="17.3" r="17.3"/>
				</g>
			</g>
		</g>
	</g>
	<g>
		<g class="st3">
			<path class="st1" d="M24.9,20.9c-0.1,0.9-0.7,1.6-1.8,2.2c-1,0.5-2,0.7-3,0.6c-0.8,0-1.5-0.2-2.1-0.5c-0.8-0.4-1.2-0.9-1.2-1.6
				c0-0.8,0.6-1.5,1.8-2c1-0.4,2-0.6,3-0.5c0.7,0,1.3,0.2,1.9,0.4c0.1-2.2,0.2-4.5,0.4-6.7c-3.3,1.2-6.5,2.5-9.7,3.8
				c0,3,0.1,6,0.1,8.9c0,0.9-0.5,1.6-1.5,2.2c-0.9,0.5-1.8,0.8-2.8,0.8c-0.8,0-1.4-0.1-2-0.4c-0.8-0.3-1.2-0.8-1.2-1.4
				c0-0.8,0.5-1.5,1.6-2c0.9-0.4,1.9-0.7,2.8-0.7c0.7,0,1.3,0.1,1.8,0.3c-0.1-3.8-0.1-7.6-0.2-11.4c4.2-1.8,8.5-3.5,12.9-5.2
				C25.5,12.1,25.2,16.5,24.9,20.9z"/>
		</g>
		<g>
			<g>
				<g>
					<g>
						<path class="st4" d="M24.9,19.9c-0.1,0.9-0.7,1.6-1.8,2.2c-1,0.5-2,0.7-3,0.6c-0.8,0-1.5-0.2-2.1-0.5
							c-0.8-0.4-1.2-0.9-1.2-1.6c0-0.8,0.6-1.5,1.8-2c1-0.4,2-0.6,3-0.5c0.7,0,1.3,0.2,1.9,0.4c0.1-2.2,0.2-4.5,0.4-6.7
							c-3.3,1.2-6.5,2.5-9.7,3.8c0,3,0.1,6,0.1,8.9c0,0.9-0.5,1.6-1.5,2.2c-0.9,0.5-1.8,0.8-2.8,0.8c-0.8,0-1.4-0.1-2-0.4
							c-0.8-0.3-1.2-0.8-1.2-1.4c0-0.8,0.5-1.5,1.6-2c0.9-0.4,1.9-0.7,2.8-0.7c0.7,0,1.3,0.1,1.8,0.3c-0.1-3.8-0.1-7.6-0.2-11.4
							c4.2-1.8,8.5-3.5,12.9-5.2C25.5,11.1,25.2,15.5,24.9,19.9z"/>
					</g>
				</g>
			</g>
		</g>
	</g>
</g>
</svg>
