<?xml version="1.0" encoding="utf-8"?>
<!-- Generator: Adobe Illustrator 22.0.1, SVG Export Plug-In . SVG Version: 6.00 Build 0)  -->
<svg version="1.1" id="Layer_1" xmlns="http://www.w3.org/2000/svg" xmlns:xlink="http://www.w3.org/1999/xlink" x="0px" y="0px"
	 viewBox="0 0 81.8 54.9" style="enable-background:new 0 0 81.8 54.9;" xml:space="preserve">
<style type="text/css">
	.st0{fill:#542C0B;}
	.st1{fill:none;}
</style>
<g>
	<g>
		<path class="st0" d="M44.5,35.5c0,1.7-0.5,2.9-1.5,3.7c-1.1,0.8-2.8,1.3-5.1,1.3c-1.5,0-2.6-0.3-3.4-0.8c-0.9-0.6-1.3-1.5-1.3-2.7
			c0-0.6,0.1-1.3,0.2-2c0.2-0.7,0.4-1.3,0.6-2c0.2-0.4,0.4-1,0.9-1.9l0.4,0.2c-0.5,1.1-0.9,1.9-1,2.5C34.1,34.4,34,35,34,35.5
			c0,0.9,0.3,1.6,1,2.1s1.6,0.7,2.8,0.7c1.4,0,2.7-0.3,3.8-0.8c1.4-0.6,2-1.5,2-2.6c0-0.8-0.1-1.5-0.3-2.1s-0.5-1.1-0.8-1.5l0.9-2.3
			c0.4,0.6,0.7,1.2,0.8,1.9c0.1,0.6,0.3,1.6,0.3,2.6 M40.3,26.9l-0.8,1.6l-1.8-1l0.8-1.6L40.3,26.9z"/>
		<path class="st0" d="M48.6,20.4c0,0.2-0.1,0.4-0.3,0.5s-0.4,0.2-0.7,0.3L45.5,22c0-0.3,0.4-0.6,1.1-0.9c-0.2-0.1-0.4-0.2-0.5-0.3
			c-0.2-0.1-0.2-0.3-0.2-0.4c0-0.2,0.2-0.6,0.6-1c0.4-0.5,0.8-0.7,1.2-0.7c0.2,0,0.3,0.1,0.4,0.2c0.1,0.1,0.2,0.2,0.2,0.4
			c0,0.1,0,0.2-0.1,0.3S48.1,19.8,48,20c-0.2-0.2-0.5-0.3-0.8-0.3c-0.2,0-0.3,0-0.5,0.1s-0.2,0.1-0.2,0.2s0.2,0.3,0.5,0.5
			s0.6,0.3,0.9,0.3c0.2,0,0.3,0,0.4,0C48.3,20.6,48.4,20.5,48.6,20.4z M48.3,32.7c0,0.6-0.1,1.2-0.3,1.7c-0.1,0.3-0.4,0.8-0.7,1.4
			l-0.2-0.1c0-0.2,0-0.5,0.1-0.8c0-0.3,0-0.5,0-0.6c0-0.8-0.1-1.9-0.2-3.3c-0.1-1.4-0.3-2.9-0.4-4.4c-0.1-0.9-0.2-1.9-0.3-2.8
			c0.2-0.3,0.3-0.7,0.5-1.1s0.4-0.7,0.5-1.1c0.1,0.9,0.3,2,0.5,3.5s0.3,2.8,0.4,4C48.2,30.8,48.3,31.9,48.3,32.7z"/>
	</g>
</g>
<rect class="st1" width="81.8" height="54.9"/>
</svg>
