<?xml version="1.0" encoding="utf-8"?>
<!-- Generator: Adobe Illustrator 19.2.0, SVG Export Plug-In . SVG Version: 6.00 Build 0)  -->
<svg version="1.1" id="Layer_1" xmlns="http://www.w3.org/2000/svg" xmlns:xlink="http://www.w3.org/1999/xlink" x="0px" y="0px"
	 viewBox="0 0 340.7 54.9" style="enable-background:new 0 0 340.7 54.9;" xml:space="preserve">
<style type="text/css">
	.st0{fill:#BA0017;}
	.st1{fill:none;}
</style>
<g>
	<g>
		<path d="M122.6,21.9c0,0.3-0.2,0.7-0.6,1c-0.7,0.3-1.8,0.7-3.3,1.3c0-0.3,0.2-0.6,0.5-0.9C119.9,23,121,22.5,122.6,21.9z"/>
		<path d="M124.5,32.9h-1.3c-1.2,0-2.3,0.1-3.3,0.3c-1.2,0.3-1.8,0.7-1.8,1.3c0,0.5,0.1,1,0.3,1.6c0.2,0.6,0.3,1.1,0.5,1.7
			s0.3,1.1,0.3,1.6c0,0.3,0,0.5-0.1,0.8s-0.1,0.5-0.2,0.9c-0.2-0.6-0.4-1.2-0.6-1.9c-0.4-1.2-0.6-2.1-0.8-2.7
			c-0.3-1-0.4-1.5-0.4-1.7c0-1,0.2-1.7,0.6-2.2s1-0.9,1.8-1.1c0.7-0.2,1.7-0.4,3-0.5c-0.5-0.5-0.8-0.8-0.9-0.9
			c-0.4-0.3-0.8-0.4-1.2-0.4c-0.2,0-0.5,0.1-0.7,0.2c-0.2,0.1-0.4,0.3-0.7,0.6l-0.5-0.3c0.2-0.6,0.5-1,0.8-1.3
			c0.5-0.6,1-0.8,1.7-0.8c0.5,0,0.9,0.2,1.4,0.5c0.4,0.3,0.8,0.7,1.2,1.2c0.2,0.2,0.5,0.7,0.9,1.3V32.9z"/>
		<path d="M131.5,18.5c0,0.3-0.2,0.7-0.6,1c-0.7,0.3-1.8,0.7-3.3,1.3c0-0.3,0.2-0.6,0.5-0.9C128.7,19.6,129.9,19.2,131.5,18.5z"/>
		<path d="M132.3,32.9h-5c-0.4,0-0.8-0.1-1.2-0.4s-0.5-0.5-0.5-0.9c0-0.3,0-0.5,0-0.8c0-0.2,0.1-0.5,0.2-0.8h0.3
			c0.1,0.3,0.2,0.5,0.4,0.7c0.2,0.1,0.4,0.2,0.7,0.2h4.3c0-1.3-0.2-2.4-0.6-3.2c-0.5-1-1.2-1.7-2.3-2l0.2-2.2c1.3,0.6,2.2,1.7,2.8,3
			c0.4,1.1,0.7,2.6,0.7,4.4V32.9z"/>
		<path d="M137.8,16.9c0,0.5-0.2,0.9-0.5,1.2c-0.3,0.4-0.8,0.5-1.3,0.5c-0.4,0-0.7-0.1-0.9-0.3c-0.2-0.2-0.3-0.5-0.3-0.9
			c0-0.6,0.1-1.1,0.4-1.5c0.3-0.4,0.7-0.7,1.1-0.7c0.4,0,0.7,0.2,1,0.5S137.8,16.5,137.8,16.9z M137.1,17.2c0-0.2-0.1-0.4-0.4-0.7
			c-0.3-0.3-0.5-0.4-0.7-0.4c-0.2,0-0.4,0.1-0.5,0.3c-0.1,0.2-0.2,0.3-0.2,0.5c0,0.3,0.1,0.4,0.4,0.6c0.2,0.1,0.5,0.1,0.8,0.1
			c0.2,0,0.3,0,0.5-0.1C137.1,17.5,137.1,17.4,137.1,17.2z"/>
		<path d="M137.9,32.9h-6.4v-2h5.6c0-0.9-0.1-1.6-0.3-2c-0.1-0.3-0.5-0.8-1.1-1.4l0.9-1.8c0.5,0.7,0.9,1.2,1,1.6
			c0.2,0.6,0.3,1.5,0.3,2.9V32.9z M137,22.5l-0.9,1.6l-1.8-0.9l0.8-1.6L137,22.5z"/>
		<path d="M143.7,16.2c0,0.3-0.2,0.7-0.6,1c-0.7,0.3-1.8,0.7-3.3,1.3c0-0.3,0.2-0.6,0.5-0.9C141,17.4,142.1,16.9,143.7,16.2z"/>
		<path d="M143.5,32.9h-6.4v-2h5.6c0-0.9-0.1-1.6-0.3-2c-0.1-0.3-0.5-0.8-1.1-1.4l0.9-1.8c0.5,0.7,0.9,1.2,1,1.6
			c0.2,0.6,0.3,1.5,0.3,2.9V32.9z M140.9,22.9l-0.9,1.6l-1.8-0.9l0.8-1.6L140.9,22.9z M143.5,21.8l-0.9,1.6l-1.8-1l0.8-1.6
			L143.5,21.8z"/>
		<path d="M148.8,16.2c0,0.3-0.2,0.7-0.6,1c-0.7,0.3-1.8,0.7-3.3,1.3c0-0.3,0.2-0.6,0.5-0.9C146.1,17.4,147.2,16.9,148.8,16.2z"/>
		<path class="st0" d="M149.7,32.9h-6.9v-2h6c0-0.7-0.1-1.3-0.2-1.9c-0.4,0.1-0.7,0.2-0.9,0.3c-0.3,0.1-0.6,0.1-0.9,0.1
			c-0.5,0-1-0.1-1.3-0.4c-0.4-0.3-0.6-0.8-0.6-1.4c0-1,0.2-2,0.6-2.7c0.4-0.9,1-1.3,1.6-1.3c0.9,0,1.6,0.7,2.1,2.1
			c0.4,1.2,0.6,2.6,0.6,4.2V32.9z M148.2,20.5l-0.9,1.6l-1.8-1l0.8-1.6L148.2,20.5z M147.8,27.1c-0.1-0.3-0.3-0.5-0.5-0.8
			c-0.3-0.4-0.6-0.6-0.9-0.6c-0.2,0-0.4,0.1-0.5,0.3c-0.1,0.2-0.2,0.4-0.2,0.6c0,0.6,0.3,0.9,1,0.9c0.2,0,0.4,0,0.5-0.1
			C147.5,27.3,147.7,27.2,147.8,27.1z"/>
		<path d="M161.6,20.3c0,0.5-0.2,0.9-0.5,1.2c-0.3,0.4-0.8,0.5-1.3,0.5c-0.4,0-0.7-0.1-0.9-0.3c-0.2-0.2-0.3-0.5-0.3-0.9
			c0-0.6,0.1-1.1,0.4-1.5c0.3-0.4,0.7-0.7,1.1-0.7c0.4,0,0.7,0.2,1,0.5S161.6,19.8,161.6,20.3z M160.9,20.6c0-0.2-0.1-0.4-0.4-0.7
			c-0.3-0.3-0.5-0.4-0.7-0.4c-0.2,0-0.4,0.1-0.5,0.3c-0.1,0.2-0.2,0.3-0.2,0.5c0,0.3,0.1,0.4,0.4,0.6c0.2,0.1,0.5,0.1,0.8,0.1
			c0.2,0,0.3,0,0.5-0.1C160.8,20.8,160.9,20.7,160.9,20.6z"/>
		<path d="M167.7,31.5c0,1.2-0.3,2.1-0.8,2.9c-0.5,0.6-1.2,1.1-2.2,1.3c-0.8,0.2-1.9,0.3-3.1,0.3c-1.4,0-2.6-0.3-3.4-0.8
			c-0.9-0.6-1.3-1.5-1.3-2.6c0-0.6,0.1-1.3,0.3-2c0.2-0.6,0.4-1.2,0.7-1.9c0.2-0.5,0.5-1.1,0.9-1.8l0.4,0.2c-0.3,0.5-0.5,1-0.7,1.3
			c-0.2,0.5-0.4,1-0.5,1.4c-0.1,0.5-0.2,1-0.2,1.5c0,0.9,0.3,1.6,1,2.1s1.6,0.7,2.8,0.7c1.3,0,2.4-0.2,3.5-0.7
			c1.2-0.5,1.8-1.1,1.8-1.7c0-0.7-0.1-2-0.3-3.7c-0.2-1.3-0.4-2.8-0.7-4.5l-0.4-2.2l-0.5-0.3c0-1,0.2-1.9,0.6-2.7h0.2
			c0,0.3,0.1,0.5,0.2,0.6c0.1,0.1,0.2,0.2,0.4,0.3c0.2,0.1,0.5,0.2,0.8,0.3c0.2,0.1,0.4,0.2,0.5,0.3c0,0.5,0,0.9-0.1,1.1
			c0,0.2-0.1,0.6-0.2,1l-0.6-0.2c0,0.2,0.1,0.9,0.3,2.3c0.2,1.6,0.4,2.8,0.5,3.8C167.6,29.5,167.7,30.7,167.7,31.5z"/>
		<path d="M174.7,19.6c0,0.3-0.2,0.7-0.6,1c-0.7,0.3-1.8,0.7-3.3,1.3c0-0.3,0.2-0.6,0.5-0.9C171.9,20.7,173,20.3,174.7,19.6z"/>
		<path d="M179.9,32.9H179c-0.5,0-0.9-0.1-1.2-0.2c-0.3-0.1-0.7-0.3-0.9-0.6c-0.4,0.3-0.7,0.5-0.9,0.6c-0.4,0.1-0.9,0.2-1.6,0.2
			h-0.7c-0.4,0-0.8-0.1-1.2-0.2c-0.3-0.1-0.6-0.3-0.9-0.5c-0.4,0.3-0.7,0.5-1,0.6c-0.3,0.1-0.8,0.2-1.5,0.2h-2.2v-2h2.2
			c0.6,0,1-0.1,1.3-0.2c0.4-0.2,0.7-0.5,0.7-1c0-0.2,0-0.4,0-0.7c0-0.2-0.1-0.5-0.1-0.7l0.5-0.7c0.2,0.7,0.4,1.2,0.5,1.5
			c0.2,0.5,0.5,1,0.8,1.2c0.3,0.3,0.8,0.5,1.2,0.5h0.8c0.6,0,1-0.1,1.2-0.3c0.3-0.2,0.4-0.5,0.4-0.9c0-0.2,0-0.5,0-0.7
			c0-0.2-0.1-0.5-0.1-0.7l0.5-0.7l0.2,1.1c0.2,0.8,0.4,1.4,0.7,1.7c0.3,0.3,0.6,0.4,1,0.4c0.2,0,0.4-0.1,0.5-0.2
			c0.1-0.1,0.2-0.3,0.2-0.5c0-0.4-0.2-0.9-0.5-1.3c-0.1-0.1-0.2-0.3-0.6-0.7L179,27c0.3,0.5,0.5,0.9,0.6,1.2c0.2,0.5,0.2,1.2,0.2,2
			V32.9z"/>
		<path d="M185.2,32.9h-1.6c-0.5,0-0.9-0.2-1.2-0.6c-0.3-0.4-0.5-0.9-0.6-1.6c-0.1-0.7-0.2-1.6-0.3-2.6c0-0.8-0.1-1.7-0.1-2.6
			c0-0.9-0.1-1.6-0.2-2c-0.1-0.5-0.2-0.8-0.3-1.1c-0.2-0.4-0.4-0.7-0.7-0.9l1.4-2.2c0.3,0.9,0.5,2,0.6,3.2c0.1,0.8,0.1,2.6,0.2,5.5
			c0.1,1.3,0.3,2.2,0.6,2.6c0.2,0.3,0.4,0.5,0.7,0.5h1.6V32.9z"/>
		<path d="M191.6,16.2c0,0.3-0.2,0.7-0.6,1c-0.7,0.3-1.8,0.7-3.3,1.3c0-0.3,0.2-0.6,0.5-0.9C188.9,17.4,190,16.9,191.6,16.2z"/>
		<path d="M194.2,32.9h-9.8v-2h8.5c-0.5-0.8-1.1-1.5-1.8-2.1s-1.6-1.2-2.7-1.9l-0.4,0.3l-1.3-1c-0.5-0.4-0.7-0.7-0.7-0.9
			c0-1.3,0.3-2.3,0.9-3c0.6-0.7,1.6-1.3,3-1.8l3.2-1.2v1.9l-2.3,0.8c-0.9,0.3-1.7,0.6-2.3,0.8c-0.7,0.3-1.1,0.6-1.1,0.7
			c0,0.2,0.2,0.4,0.7,0.8c0.3,0.2,0.6,0.4,0.9,0.7c1.1,0.9,2.1,1.8,3,2.7c0.9,1,1.6,2.1,2.2,3.1V32.9z"/>
		<path d="M200.1,16.2c0,0.3-0.2,0.7-0.6,1c-0.7,0.3-1.8,0.7-3.3,1.3c0-0.3,0.2-0.6,0.5-0.9C197.4,17.4,198.5,16.9,200.1,16.2z"/>
		<path d="M199.9,32.9h-6.4v-2h5.6c0-0.9-0.1-1.6-0.3-2c-0.1-0.3-0.5-0.8-1.1-1.4l0.9-1.8c0.5,0.7,0.9,1.2,1,1.6
			c0.2,0.6,0.3,1.5,0.3,2.9V32.9z M197.2,22.9l-0.9,1.6l-1.8-0.9l0.8-1.6L197.2,22.9z M199.8,21.8l-0.9,1.6l-1.8-1l0.8-1.6
			L199.8,21.8z"/>
		<path d="M205.7,16.2c0,0.3-0.2,0.7-0.6,1c-0.7,0.3-1.8,0.7-3.3,1.3c0-0.3,0.2-0.6,0.5-0.9C203,17.4,204.1,16.9,205.7,16.2z"/>
		<path d="M205.5,32.9h-6.4v-2h5.6c0-0.9-0.1-1.6-0.3-2c-0.1-0.3-0.5-0.8-1.1-1.4l0.9-1.8c0.5,0.7,0.9,1.2,1,1.6
			c0.2,0.6,0.3,1.5,0.3,2.9V32.9z M202.8,22.9l-0.9,1.6l-1.8-0.9l0.8-1.6L202.8,22.9z M205.4,21.8l-0.9,1.6l-1.8-1l0.8-1.6
			L205.4,21.8z"/>
		<path d="M223.5,21.1l-0.5,2l-0.7-0.3l0,1c0,1-0.1,2-0.4,2.9c-0.3,1-0.7,2.1-1.3,3.1c0.3,0.5,0.5,0.9,0.6,1.2
			c0.2,0.5,0.3,1,0.3,1.4c0,0.3,0,0.5,0,0.7c0,0.2,0,0.4-0.1,0.7c-0.8,0.2-1.6,0.3-2.5,0.4c-0.9,0.1-1.8,0.2-2.6,0.2
			c0-0.1,0-0.3,0-0.4c0-0.6,0.1-1.1,0.3-1.6c1.3-0.7,2.3-1.6,3.2-2.7c-0.5-1-0.9-1.7-1.1-2.1c-0.3-0.4-0.7-1.1-1.3-2.1
			c-0.2-0.3-0.4-0.6-0.6-0.8c-0.2-0.3-0.4-0.4-0.6-0.4c-0.1,0-0.3,0.1-0.5,0.2c-0.1,0.1-0.2,0.1-0.3,0.1c-0.2,0-0.4-0.2-0.8-0.5
			c-0.3-0.3-0.6-0.7-1-1.1c-0.3-0.3-0.5-0.6-0.6-0.9c-0.1-0.2-0.1-0.5-0.1-0.8c0-0.5,0-0.8,0.1-1.1c0.1-0.4,0.2-0.6,0.5-0.6
			c0.3,0,0.8,0.3,1.3,0.9c0.5,0.5,1.1,1.2,1.7,2.1c0.6,0.8,1.1,1.6,1.7,2.4l1.1,1.8c0.3,0.6,0.7,1.2,1,1.9c0.5-1,0.8-2,1-3.1
			c0.2-0.9,0.2-2,0.2-3.4l-0.6-0.4c0-0.5,0-0.9,0.1-1.3s0.2-0.8,0.4-1.1l0.3,0.1c0,0.3,0.2,0.6,0.5,0.8c0.2,0.1,0.4,0.2,0.7,0.4
			C223.2,20.9,223.4,21,223.5,21.1z M220.6,32c0-0.2,0-0.3-0.1-0.5c-0.1-0.2-0.2-0.5-0.4-0.9c-0.2,0.3-0.6,0.6-1,1s-0.9,0.7-1.3,1
			c0.9,0,1.5,0,1.9-0.1C220.3,32.4,220.6,32.3,220.6,32z"/>
	</g>
	<rect class="st1" width="340.7" height="54.9"/>
</g>
</svg>
