<?xml version="1.0" encoding="utf-8"?>
<!-- Generator: Adobe Illustrator 22.0.1, SVG Export Plug-In . SVG Version: 6.00 Build 0)  -->
<svg version="1.1" id="Layer_1" xmlns="http://www.w3.org/2000/svg" xmlns:xlink="http://www.w3.org/1999/xlink" x="0px" y="0px"
	 viewBox="0 0 81.8 54.9" style="enable-background:new 0 0 81.8 54.9;" xml:space="preserve">
<style type="text/css">
	.st0{fill:#542C0B;}
	.st1{fill:none;}
</style>
<g>
	<polygon class="st0" points="40,25.3 38.2,24.3 37.4,25.9 39.2,26.9 	"/>
	<path class="st0" d="M47.7,22.8l0.5,0.2c0.1-0.3,0.1-0.6,0.2-1c0.1-0.4,0.1-0.8,0.1-1.2c-0.3-0.1-0.7-0.2-1.1-0.4
		c-0.5-0.2-0.7-0.6-0.7-1l-0.2-0.1c-0.2,0.4-0.3,0.8-0.4,1.3c-0.1,0.5-0.1,1-0.1,1.5l0.6,0.3l1.3,9.5h-3.8v-0.1c0-1-0.1-1.9-0.2-2.5
		c-0.1-0.7-0.4-1.3-0.8-1.9l-0.9,2.3c0.3,0.4,0.6,0.9,0.8,1.5c0.2,0.6,0.3,1.3,0.3,2.1c0,1.1-0.6,2-2,2.6c-1.1,0.5-2.4,0.8-3.8,0.8
		c-1.2,0-2.1-0.2-2.8-0.7s-1-1.2-1-2.1c0-0.5,0.1-1.1,0.3-1.7c0.1-0.6,0.5-1.4,1-2.5l-0.4-0.2c-0.5,0.9-0.7,1.5-0.9,1.9
		c-0.2,0.7-0.4,1.3-0.6,2c-0.1,0.7-0.2,1.4-0.2,2c0,1.2,0.4,2.1,1.3,2.7c0.8,0.5,1.9,0.8,3.4,0.8c2.3,0,4-0.5,5.1-1.3
		c1-0.8,1.5-2,1.5-3.7H49v-2.3L47.7,22.8z"/>
</g>
<rect class="st1" width="81.8" height="54.9"/>
</svg>
