<?xml version="1.0" encoding="utf-8"?>
<!-- Generator: Adobe Illustrator 22.0.1, SVG Export Plug-In . SVG Version: 6.00 Build 0)  -->
<svg version="1.1" id="Layer_1" xmlns="http://www.w3.org/2000/svg" xmlns:xlink="http://www.w3.org/1999/xlink" x="0px" y="0px"
	 viewBox="0 0 81.8 54.9" style="enable-background:new 0 0 81.8 54.9;" xml:space="preserve">
<style type="text/css">
	.st0{fill:#542C0B;}
	.st1{fill:none;}
</style>
<g>
	<polygon class="st0" points="6.9,22.2 5,21.3 4.2,22.9 6,23.8 	"/>
	<polygon class="st0" points="9.5,21.2 7.6,20.2 6.8,21.8 8.6,22.8 	"/>
	<polygon class="st0" points="15.2,37.5 17,38.5 17.9,36.8 16,35.9 	"/>
	<polygon class="st0" points="12.6,38.6 14.4,39.5 15.3,37.9 13.4,37 	"/>
	<polygon class="st0" points="19.7,38 21.5,39 22.4,37.3 20.5,36.4 	"/>
	<polygon class="st0" points="25.3,38 27.2,39 28,37.3 26.1,36.4 	"/>
	<path class="st0" d="M10.6,32.6c-0.2,0-0.5-0.5-0.7-1.3c-0.1-0.6-0.3-1.3-0.5-2.4L9.1,27c-0.1-0.4-0.2-0.9-0.3-1.3
		c0-0.4-0.1-0.8-0.2-1.3c-0.3,0.3-0.5,0.5-0.6,0.8c-0.2,0.4-0.3,0.6-0.3,0.9c0,0.1,0.1,0.2,0.1,0.5c0.1,0.3,0.1,0.4,0.1,0.5
		c-1.2,0.5-2.3,1.2-3.1,2c-0.9,0.7-1.3,1.5-1.3,2.1c0,0.1,0.3,0.3,0.9,0.4c0.6,0.1,1.3,0.2,2.2,0.2c0.4,0,0.8-0.1,1.1-0.3
		c0.4-0.3,0.7-0.6,0.9-1c0.1,1.1,0.4,2,0.7,2.7c0.4,0.9,0.9,1.4,1.4,1.4h0.9h0.6h0.1h4.9H18h4.8h0.8h4.8h0.8h1.4
		c0.7,0,1.2-0.1,1.5-0.2c0.3-0.1,0.6-0.3,1-0.6c0.3,0.2,0.6,0.4,0.9,0.5c0.4,0.1,0.8,0.2,1.2,0.2h0.7c0.7,0,1.2-0.1,1.6-0.2
		c0.2,0,0.5-0.2,0.9-0.5c0.2,0.3,0.6,0.5,0.9,0.6c0.3,0.1,0.7,0.2,1.2,0.2h0.2h0.6h0.1h4.7v-2.3l-1.3-8.8l0.5,0.2
		c0.1-0.3,0.1-0.6,0.2-1c0.1-0.4,0.1-0.8,0.1-1.2c-0.3-0.1-0.7-0.2-1.1-0.4c-0.5-0.2-0.7-0.6-0.7-1L43.6,20
		c-0.2,0.4-0.3,0.8-0.4,1.3c-0.1,0.5-0.1,1-0.1,1.5l0.6,0.3l1.3,9.5h-3.7v-0.9c0-0.8,0-1.5-0.2-2c-0.1-0.3-0.3-0.7-0.6-1.2l-0.7,1.2
		c0.4,0.4,0.5,0.6,0.6,0.7c0.3,0.4,0.5,0.9,0.5,1.3c0,0.2-0.1,0.4-0.2,0.5c-0.1,0.1-0.3,0.2-0.5,0.2c-0.4,0-0.7-0.1-1-0.4
		s-0.5-0.9-0.7-1.7l-0.2-1.1l-0.5,0.7c0,0.2,0.1,0.5,0.1,0.7s0,0.5,0,0.7c0,0.4-0.1,0.7-0.4,0.9c-0.2,0.2-0.6,0.3-1.2,0.3h-0.8
		c-0.4,0-0.9-0.2-1.2-0.5c-0.3-0.2-0.6-0.7-0.8-1.2c-0.1-0.3-0.3-0.8-0.5-1.5L32.5,30c0,0.2,0.1,0.5,0.1,0.7c0,0.3,0,0.5,0,0.7
		c0,0.5-0.3,0.8-0.7,1c-0.3,0.1-0.7,0.2-1.3,0.2h-1.4v-0.7c0-1.4-0.1-2.3-0.3-2.9c-0.1-0.4-0.5-0.9-1-1.6L27,29.2
		c0.6,0.6,1,1.1,1.1,1.4c0.2,0.4,0.3,1.1,0.3,2h-4.8v-0.7c0-1.4-0.1-2.3-0.3-2.9c-0.1-0.4-0.5-0.9-1-1.6l-0.9,1.8
		c0.6,0.6,1,1.1,1.1,1.4c0.2,0.4,0.3,1.1,0.3,2H18v-0.7c0-1.4-0.1-2.3-0.3-2.9c-0.1-0.4-0.5-0.9-1-1.6l-0.9,1.8
		c0.6,0.6,1,1.1,1.1,1.4c0.2,0.4,0.3,1.1,0.3,2h-5 M7.3,30.4c-0.4,0-0.7-0.1-0.9-0.1c-0.3-0.1-0.4-0.1-0.6-0.2
		c0.2-0.4,0.5-0.7,0.9-1c0.3-0.2,0.8-0.5,1.5-0.7l0.2,1.2C8,30.1,7.6,30.3,7.3,30.4z"/>
	<path class="st0" d="M49.3,24.3c-0.2-1.5-0.4-2.6-0.5-3.5c-0.1,0.4-0.3,0.7-0.5,1.1S48,22.7,47.8,23c0.1,1,0.2,1.9,0.4,2.6
		c0.1,1.5,0.3,3,0.4,4.4c0.1,1.4,0.2,2.5,0.2,3.3c0,0.1,0,0.3,0,0.6c-0.1,0.3-0.1,0.6-0.1,0.8l0.2,0.1c0.3-0.6,0.6-1.1,0.7-1.4
		c0.2-0.5,0.3-1.1,0.3-1.7c0-0.7,0-1.8-0.2-3.4C49.6,27.1,49.5,25.8,49.3,24.3z"/>
	<path class="st0" d="M61,32.5c-0.5-0.3-0.7-0.6-0.7-0.9s0.2-0.5,0.6-0.7c0.4-0.2,0.7-0.3,1.1-0.3c0.3,0,0.6,0.1,1.1,0.4
		c0.1,0,0.2,0.1,0.5,0.3l0.6-1.5c-0.3-0.3-0.5-0.5-0.6-0.6c-0.4-0.3-0.8-0.5-1.4-0.5s-1.2,0.4-1.8,1c-0.4,0.5-0.8,1.2-1.2,1.9
		c-0.3,0.6-0.4,1.1-0.4,1.3c0,0.3,0.2,0.5,0.6,0.8l1.3,0.7c-0.2,0.2-0.4,0.4-0.5,0.7c-0.2,0.3-0.3,0.7-0.4,1l0.3,0.2
		c0.7-0.7,1.5-1.2,2.3-1.6c0.7-0.4,1.7-0.7,2.8-1l0.5-1.8c-1.1,0.3-2.2,0.7-3.1,1.3C61.9,33,61.4,32.7,61,32.5z"/>
	<polygon class="st0" points="76.7,22.2 74.8,21.2 74,22.8 75.8,23.8 	"/>
	<path class="st0" d="M71.3,32.8h-0.7c-0.3,0-0.5-0.2-0.7-0.5c-0.3-0.4-0.5-1.3-0.6-2.6c-0.1-2.9-0.1-4.7-0.2-5.5
		C69,23,68.8,21.9,68.5,21l-1.4,2.2c0.3,0.2,0.5,0.5,0.7,0.9c0.1,0.3,0.2,0.6,0.3,1.1c0.1,0.4,0.2,1.1,0.2,2c0,0.9,0.1,1.8,0.1,2.6
		c0.1,1,0.2,1.9,0.3,2.6s0.3,1.2,0.6,1.6c0.3,0.4,0.7,0.6,1.2,0.6h0.8h0.8h0.1h6h0.1v-3c0-1.6-0.2-3-0.6-4.2
		c-0.5-1.4-1.2-2.1-2.1-2.1c-0.6,0-1.2,0.4-1.6,1.3c-0.4,0.7-0.6,1.7-0.6,2.7c0,0.6,0.2,1.1,0.6,1.4c0.3,0.3,0.8,0.4,1.3,0.4
		c0.3,0,0.6,0,0.9-0.1c0.2-0.1,0.5-0.2,0.9-0.3c0.1,0.6,0.2,1.4,0.2,2.1 M75.8,29.1c-0.1,0.1-0.3,0.1-0.5,0.1c-0.7,0-1-0.3-1-0.9
		c0-0.2,0.1-0.4,0.2-0.6s0.3-0.3,0.5-0.3c0.3,0,0.6,0.2,0.9,0.6c0.2,0.3,0.4,0.5,0.5,0.8C76.2,28.9,76,29,75.8,29.1z"/>
</g>
<rect class="st1" width="81.8" height="54.9"/>
</svg>
