<?xml version="1.0" encoding="utf-8"?>
<!-- Generator: Adobe Illustrator 22.0.1, SVG Export Plug-In . SVG Version: 6.00 Build 0)  -->
<svg version="1.1" id="Layer_1" xmlns="http://www.w3.org/2000/svg" xmlns:xlink="http://www.w3.org/1999/xlink" x="0px" y="0px"
	 viewBox="0 0 86.2 86.2" style="enable-background:new 0 0 86.2 86.2;" xml:space="preserve">
<style type="text/css">
	.st0{fill:#235958;}
</style>
<path class="st0" d="M69.2,32.9c-1.3-1.8-3-2.7-5-2.7c-2.6,0-6,2.1-10,6.4c-3.1,3.2-5.6,6.5-7.6,9.8c-0.7,0.1-2.4,0.1-5.3,0.1
	c-2,0-3.5-0.2-4.4-0.6c-1.2-0.6-2.1-1.7-2.7-3.5h-0.4c-0.1,2.1-0.3,3.3-0.6,3.5c-0.8,0.6-3.2,1-7.2,1H13.7v8.4h12.4h2.1h0.6
	c2.1,0,3.8-1.6,5.2-4.7c1.1,3.1,3.4,4.7,6.8,4.7h0.1h0.6h1.4c-0.9,2.1-1.4,3.3-1.4,3.3c0,0.6,0.3,0.9,0.8,0.9c0.4,0,0.9-0.6,1.7-1.9
	c0.6-1,1-1.8,1.1-2.3c6.1-0.4,11.5-1.8,16.4-4.2c6.4-3.2,9.7-7.3,9.7-12.5C71.1,36.6,70.5,34.7,69.2,32.9z M59.8,45.2
	c-3.9,0.8-7.2,1.1-10,1.1c6-4.9,10.3-7.3,13.2-7.3c3.1,0,4.7,0.8,4.7,2.5C67.7,43,65,44.3,59.8,45.2z"/>
<path class="st0" d="M47.6,23.1l-0.3,2.8c-0.5-0.3-1.3-0.8-2.3-1.4c-2.3,2.7-4.2,4-5.9,4c-0.4,0-1-0.1-1.8-0.3
	c1.8-1,3.9-2.4,6.3-4.4c-1.2-1-1.8-1.8-1.8-2.6c0-1,0.4-2,1.1-3.1c0.7-1.1,1.6-1.7,2.5-1.7c1.3,0,1.9,0.8,1.9,2.5
	c0,1.2-0.3,2.3-0.9,3.4C46.9,22.5,47.3,22.8,47.6,23.1z M45.6,20.5c0-0.4-0.2-0.8-0.5-1.2c-0.3-0.4-0.7-0.6-1-0.6
	c-0.4,0-0.6,0.3-0.6,0.8c0,0.4,0.7,1,2,1.9C45.6,21,45.6,20.7,45.6,20.5z"/>
</svg>
