<?xml version="1.0" encoding="utf-8"?>
<!-- Generator: Adobe Illustrator 22.0.1, SVG Export Plug-In . SVG Version: 6.00 Build 0)  -->
<svg version="1.1" id="Layer_1" xmlns="http://www.w3.org/2000/svg" xmlns:xlink="http://www.w3.org/1999/xlink" x="0px" y="0px"
	 viewBox="0 0 86.2 86.2" style="enable-background:new 0 0 86.2 86.2;" xml:space="preserve">
<style type="text/css">
	.st0{fill:#235958;}
</style>
<g>
	<path class="st0" d="M34.3,17.8c0,1.6-0.6,3-1.7,4.3c-1.1,1.2-2.5,1.9-4.1,1.9c-2.7,0-4-1.5-4-4.5c0-1.9,0.4-3.5,1.1-4.8
		c1-1.6,2.3-2.3,4.1-2.3c1.3,0,2.4,0.6,3.3,1.8C33.8,15.2,34.3,16.4,34.3,17.8z M32.2,18.8c0-0.6-0.5-1.4-1.6-2.1
		c-1.1-0.8-2-1.2-2.7-1.2c-0.6,0-1.1,0.3-1.6,0.8c-0.5,0.6-0.7,1.1-0.7,1.7c0,1.5,1.1,2.3,3.3,2.3C31.1,20.3,32.2,19.8,32.2,18.8z"
		/>
</g>
<g>
	<polygon class="st0" points="44.9,32.1 49.3,35.4 52.4,30.4 47.7,26.8 45,31.3 40.5,27.6 37.4,32.7 42.5,36.4 	"/>
	<polygon class="st0" points="47,22.8 42.2,19.1 39.2,24.1 44.1,27.9 	"/>
	<path class="st0" d="M64,48.1L64,48.1c-0.9,0.1-1.6,0.1-2.1,0.1c-2-0.1-3.4-0.6-4.4-1.5c-1.4-1.3-2.3-3-2.8-5h-0.9
		c-0.1,1.8-0.2,3-0.6,3.6c-0.5,1-1.6,1.5-3.1,1.5c-1.9,0-3.2-0.2-3.9-0.7c-2-1.5-3-2.7-3-3.9l-1-0.1c-0.3,2.6-0.5,4-0.6,4.2
		c-0.4,0.9-1.7,1.3-3.9,1.3h-2c-2,0-3.5-0.2-4.4-0.6c-1.2-0.6-2.1-1.7-2.7-3.5h-0.4c-0.1,2.1-0.3,3.3-0.6,3.5c-0.8,0.6-3.2,1-7.2,1
		H8.2v8.4h12.4h2.1h0.6c2.1,0,3.8-1.6,5.2-4.7c1.1,3.1,3.4,4.7,6.8,4.7h0.6l0,0c3.6-0.2,6.2-2,7.6-5.4c1,3,2.5,4.4,4.8,4.4
		c2.6,0,4.6-2.3,6.1-6.8c0.8,2.4,1.5,4.2,2.3,5.2c1.2,1.7,2.8,2.5,4.8,2.5H64h2.7h11.8v-8.4H64V48.1z"/>
</g>
</svg>
