<?xml version="1.0" encoding="utf-8"?>
<!-- Generator: Adobe Illustrator 21.0.0, SVG Export Plug-In . SVG Version: 6.00 Build 0)  -->
<svg version="1.1" id="Layer_1" xmlns="http://www.w3.org/2000/svg" xmlns:xlink="http://www.w3.org/1999/xlink" x="0px" y="0px"
	 viewBox="0 0 120.4 42.1" style="enable-background:new 0 0 120.4 42.1;" xml:space="preserve">
<g>
	<path d="M53.9,26.1h-2.5c-0.8,1.4-1.2,2.1-1.3,2.2c-0.5,0.8-1.2,1.5-2.1,2.1c-1.1,0.9-2.7,1.5-4.7,1.8c-0.5,0.1-1.1,0.1-1.7,0.1
		c-1.6,0-3-0.4-4.3-1.2c-1.5-0.9-2.2-2.2-2.2-3.7c0-0.6,0-1.1,0.1-1.5c0.3-1.2,0.7-2.5,1.3-3.9c0.8-1.7,1.5-2.6,2.3-2.9
		c0.1,0.1,0.2,0.2,0.2,0.4c-1.1,2.2-1.7,3.7-1.7,4.5c0,2.7,2,4.1,6,4.1c0.8,0,1.5,0,1.8-0.1c0.4-0.1,1-0.3,1.8-0.5
		c1.5-0.5,2.3-1.1,2.4-1.7l-2.1-15.4c0.6-1.3,1.6-2.6,3-4c0.1,0.9,0.2,2.1,0.4,3.7c0.2,2.4,0.6,6.2,1.1,11.3
		c0.1,0.6,0.5,0.9,1.4,0.9h0.8V26.1z"/>
	<path d="M73,29.7c0,0.3-0.1,0.7-0.3,1.2c-0.4,0.5-1,1-2,1.6c-0.7,0.4-1.4,0.8-2.2,1.3c-0.6,0.4-1.5,1-2.7,1.8l-0.2-0.1
		c0.2-0.8,0.8-1.6,1.6-2.2c0.7-0.5,1.5-0.9,2.2-1.4C70.4,31.5,71.5,30.8,73,29.7z"/>
	<path d="M64.3,21.9c0,0-0.1,0.1-0.2,0.2c-0.1,0.1-0.1,0.2-0.2,0.2v3.8H61c-0.3,0-0.6-0.2-0.9-0.5c-0.3-0.3-0.5-0.6-0.6-0.9
		c-0.8,0.9-1.5,1.4-1.9,1.4h-5.1v-3.8l6.5-0.1c0.4,0,0.6-0.4,0.8-1.2c0-0.4,0.1-0.9,0.1-1.3c0.6-0.8,1.7-1.9,3.3-3.4
		c0,0.5-0.1,1.3-0.5,2.4c-0.6,1.8-0.9,2.7-0.9,2.8c0.6,0.5,1.1,0.8,1.6,0.8c0.1,0,0.2-0.1,0.4-0.2C64.1,21.9,64.2,21.9,64.3,21.9z"
		/>
	<path d="M83.7,19.5c0,0.1-0.3,0.9-1,2.4c-0.5,1.3-1.2,2.4-1.9,3.5c-0.3,0.5-0.6,0.7-0.8,0.7H62.2v-3.9h2c2-1,3.5-1.8,4.4-2.3
		c1.2-0.8,3-1.9,5.5-3.4c1-0.6,2-1.1,2.9-1.4c0.2-0.1,0.5-0.1,0.9-0.1c0.4,0,0.8,0.1,1.2,0.2c1.7,0.7,3.1,1.8,4,3.1
		C83.5,18.8,83.7,19.2,83.7,19.5z M79.9,21.2c0-0.5-0.3-0.8-0.8-1.2c-1-0.6-1.9-1.1-2.7-1.3c-0.1,0-0.3,0-0.6,0
		c-0.6,0-1,0.1-1.4,0.2c-1.5,0.8-3.5,1.9-5.9,3.2h10c0.3,0,0.7-0.2,1.1-0.5C79.8,21.4,79.9,21.3,79.9,21.2z"/>
</g>
</svg>
