<?xml version="1.0" encoding="utf-8"?>
<!-- Generator: Adobe Illustrator 22.0.1, SVG Export Plug-In . SVG Version: 6.00 Build 0)  -->
<svg version="1.1" id="Layer_1" xmlns="http://www.w3.org/2000/svg" xmlns:xlink="http://www.w3.org/1999/xlink" x="0px" y="0px"
	 viewBox="0 0 86.2 86.2" style="enable-background:new 0 0 86.2 86.2;" xml:space="preserve">
<style type="text/css">
	.st0{fill:#235958;}
</style>
<g>
	<g>
		<path class="st0" d="M34.8,18c0,1.6-0.6,3-1.7,4.3c-1.1,1.2-2.5,1.9-4.1,1.9c-2.7,0-4-1.5-4-4.5c0-1.9,0.4-3.5,1.1-4.8
			c1-1.6,2.3-2.3,4.1-2.3c1.3,0,2.4,0.6,3.3,1.8C34.4,15.4,34.8,16.7,34.8,18z M32.8,19c0-0.6-0.5-1.4-1.6-2.1
			c-1.1-0.8-2-1.2-2.7-1.2c-0.6,0-1.1,0.3-1.6,0.8c-0.5,0.6-0.7,1.1-0.7,1.7c0,1.5,1.1,2.3,3.3,2.3C31.7,20.5,32.8,20,32.8,19z"/>
	</g>
	<g>
		<polygon class="st0" points="42.5,26.4 37.8,22.7 34.8,27.8 39.7,31.5 		"/>
		<path class="st0" d="M46.5,42.2h-1h-1c-1.9,0-3.7-1.5-5.2-4.5l-4.5,6.6c1.2,3.1,3,5.1,5.3,5.9c-1.3,2.1-2.7,4.3-3.9,6.4
			c-1.8,2.8-3.3,4.7-4.6,5.6c-3,2.3-5.9,3.5-8.8,3.5c-0.8,0-2-0.2-3.7-0.5l-0.6,1c4.2,2.8,7.8,4.3,10.7,4.3c4.1,0,7.4-2.4,9.8-7.3
			c1.7-3.4,2.9-7.6,3.6-12.6h2.8h1H60v-8.4C60,42.2,46.5,42.2,46.5,42.2z"/>
	</g>
</g>
</svg>
