<?xml version="1.0" encoding="utf-8"?>
<!-- Generator: Adobe Illustrator 22.0.1, SVG Export Plug-In . SVG Version: 6.00 Build 0)  -->
<svg version="1.1" id="Layer_1" xmlns="http://www.w3.org/2000/svg" xmlns:xlink="http://www.w3.org/1999/xlink" x="0px" y="0px"
	 viewBox="0 0 72.9 68.1" style="enable-background:new 0 0 72.9 68.1;" xml:space="preserve">
<style type="text/css">
	.st0{fill:#235958;}
	.st1{fill:#EF5316;}
</style>
<g>
	<path class="st0" d="M23.2,47.3c0,4.5-1.1,8.7-3.3,12.7c-2.6,4.8-6,7.2-10.2,7.2c-2.5,0-5.7-1.3-9.6-3.9l0.5-1
		c1.2,0.3,2.1,0.4,2.9,0.4c3.4,0,7.1-1.6,11.1-4.9c4-3.2,6-6.5,6-9.7c0-1.2-0.8-2.9-2.5-5.2c-1.2-1.6-2.5-3.1-3.7-4.7
		c0.8-3.6,1.4-6.5,1.9-8.6C20.8,34.7,23.2,40.6,23.2,47.3z M17.8,20.5L15,25.6L10,22l3-5L17.8,20.5z"/>
	<path class="st0" d="M52.8,49.2h-4.9c-2.5,12.6-7.2,18.9-14.2,18.9c-3.2,0-6.9-1.4-10.9-4.3l0.6-0.9c1.3,0.4,2.7,0.6,4.2,0.6
		c4.5,0,8.3-1.4,11.4-4.2c2.4-2.1,4.8-5.5,7.2-10.2c-2.9,0-4.8-0.2-5.8-0.5c-1.8-0.7-2.7-2.2-2.7-4.6c0-2.2,0.7-5.1,2.2-8.8
		c1.7-4.1,3.3-6.2,5.1-6.2c1.9,0,3.2,3.9,3.9,11.7h3.9L52.8,49.2L52.8,49.2z M46.5,40.8c-1.3-2.5-2.7-3.8-4.2-3.8
		c-1.3,0-1.9,0.6-1.9,1.7c0,1.4,1.2,2.1,3.5,2.1H46.5z"/>
	<path class="st1" d="M69.1,0c0,1.9-0.6,3.3-1.8,4l-10.9,6.2c0-1.1,0.2-2,0.5-2.4s1-1,2-1.6L69.1,0z"/>
	<path class="st1" d="M72.9,39.2c0,1.8-0.4,3.4-1.2,4.7c-0.9,1.7-2.2,2.5-3.8,2.5c-1.7,0-4.6-1-8.7-3.1c-0.3,1-1,2.2-2.2,3.5
		c-1.2,1.5-2.2,2.3-3.1,2.3h-2.7v-8.4h2.6c2.3,0,4-1.3,5.1-4c0.8-2,1.6-4,2.3-6c1.3-2.5,2.9-3.8,4.8-3.8c2,0,3.8,1.6,5.1,4.7
		C72.4,34.4,72.9,36.9,72.9,39.2z M68.4,37.6c0-1-0.4-1.8-1.2-2.5c-0.8-0.7-1.8-1-2.8-1c-1.2,0-2.1,0.8-2.9,2.3
		c2.8,1.6,4.7,2.4,5.7,2.4C68,38.8,68.4,38.4,68.4,37.6z"/>
</g>
<g>
	<path class="st0" d="M43.2,18.3c0,1.6-0.6,3-1.6,4.3c-1.1,1.2-2.5,1.8-4.1,1.8c-2.7,0-4-1.5-4-4.5c0-1.9,0.4-3.5,1.1-4.8
		c1-1.6,2.3-2.3,4.1-2.3c1.3,0,2.4,0.6,3.3,1.8C42.8,15.7,43.2,16.9,43.2,18.3z M41.1,19.3c0-0.6-0.5-1.4-1.6-2.1
		c-1.1-0.8-2-1.2-2.7-1.2c-0.6,0-1.1,0.3-1.6,0.8c-0.5,0.6-0.7,1.1-0.7,1.7c0,1.5,1.1,2.3,3.3,2.3C40.1,20.8,41.1,20.3,41.1,19.3z"
		/>
</g>
</svg>
