<?xml version="1.0" encoding="utf-8"?>
<!-- Generator: Adobe Illustrator 19.2.0, SVG Export Plug-In . SVG Version: 6.00 Build 0)  -->
<svg version="1.1" id="Layer_1" xmlns="http://www.w3.org/2000/svg" xmlns:xlink="http://www.w3.org/1999/xlink" x="0px" y="0px"
	 viewBox="0 0 46.8 27.1" style="enable-background:new 0 0 46.8 27.1;" xml:space="preserve">
<style type="text/css">
	.st0{fill:#010101;}
</style>
<g>
	<path class="st0" d="M14.8,4.1l-1.6,3.2l-0.6-0.1l0.5,8c0,0.5-0.2,1.3-0.7,2.5c-0.6,1.7-1.8,3-3.4,3.9c-1.4,0.7-2.8,1.1-4.2,1.1
		c-1.3,0-2.4-0.3-3.2-0.8c-1-0.7-1.5-1.7-1.5-3c0-1,0.3-2.2,0.8-3.6C1.4,14,2,12.9,2.8,12.2c0.1,0,0.2,0,0.4,0.1
		c-0.1,0.1-0.4,0.8-1,2.1c-0.4,1-0.6,1.7-0.6,2c0,1.1,0.5,1.9,1.4,2.4c0.7,0.4,1.6,0.6,2.5,0.6c0.7,0,1.7-0.1,2.9-0.4
		c1.8-0.4,2.6-0.9,2.6-1.5c0,0-0.1-0.7-0.3-2.2c-0.2-1.9-0.5-4.8-1.1-8.7C9.6,6.2,9.4,6,9.1,5.7C8.7,5.5,8.5,5.2,8.5,4.9
		c0-0.8,0.6-2,1.7-3.6c0.2,0.9,0.8,1.5,1.9,1.9C13.8,3.8,14.7,4.1,14.8,4.1z"/>
	<path class="st0" d="M23,17.6h-4.5L17.1,2.7c0-0.1,0.1-0.3,0.4-0.7c0.5-0.6,1.1-1.3,1.8-2c0.1,0.6,0.2,1.6,0.3,2.9
		c0.5,5.2,0.9,8.8,1.2,10.9c0,0.1,0.1,0.2,0.4,0.3c0.1,0,0.3,0.1,0.6,0.2c0.3,0.1,0.5,0.2,0.6,0.2H23V17.6z"/>
	<path class="st0" d="M33.2,17.6h-2.4c-0.3,0-0.7-0.2-1.1-0.6c-0.4-0.4-0.6-0.8-0.7-1.3c-0.3,0.5-0.7,1.1-1.1,1.9h-5.8v-3.2h6.4
		c0.1-0.3,0.2-0.7,0.2-1.3c0-0.6,0-1,0.1-1.3c0.1-0.3,0.8-1.2,2.1-2.6v2.2c0,0.1,0,0.4-0.1,0.9c-0.1,0.5-0.1,0.8-0.1,0.8
		c0,0.9,0.8,1.4,2.5,1.4V17.6z M31.2,5.7c-0.4,0.6-0.9,1.3-1.5,1.9c-0.2-0.1-0.7-0.4-1.5-0.8c-0.6-0.3-0.9-0.5-1-0.5
		c-0.1,0-0.6,0.4-1.3,1.3h-0.2l-2-1.2c0.6-0.8,1.1-1.4,1.5-1.8c0.3,0.2,0.7,0.4,1,0.7c0.6,0.4,1,0.6,1.2,0.6c0.2,0,0.5-0.2,0.9-0.7
		c0.4-0.4,0.6-0.7,0.7-0.7L31.2,5.7z M28.9,3c-0.5,0.5-1,1.1-1.6,1.6l-1.8-1.4c0,0,0.6-0.6,1.6-1.7L28.9,3z"/>
	<path class="st0" d="M43.3,22.1c0,0.3-0.1,0.6-0.2,1c-0.3,0.4-0.8,0.9-1.6,1.4c-0.6,0.3-1.1,0.7-1.7,1.1c-0.5,0.3-1.2,0.8-2.1,1.5
		L37.5,27c0.2-0.7,0.6-1.3,1.3-1.8c0.6-0.4,1.2-0.8,1.8-1.2C41.3,23.6,42.2,23,43.3,22.1z"/>
	<path class="st0" d="M46.8,13.6c0,0.2-0.1,0.5-0.3,0.8c-0.1,0.2-0.7,1.1-1.8,2.8L38.7,15c-0.4,0.2-0.8,0.5-1,1.1
		c-0.3,0.7-0.6,1.2-0.8,1.4h-5v-3.2h5.4c0.1-0.3,0.3-0.8,0.5-1.3c0.3-0.8,0.7-1.6,1.3-2.5c0.7-0.9,1.4-1.6,2.2-1.9
		c1.8-0.9,3-1.3,3.6-1.2c0.1,0.1,0.2,0.2,0.2,0.3c0.4,1.1,0.9,2.7,1.5,4.9C46.8,12.9,46.8,13.2,46.8,13.6z M43.8,13
		c-0.2-0.9-0.3-1.3-0.4-1.5c-0.2-0.6-0.6-0.9-1-0.9c-0.2,0-0.5,0.1-0.9,0.2c-0.4,0.2-0.7,0.3-1,0.5c-0.2,0.1-0.3,0.2-0.3,0.3
		L43.8,13z"/>
</g>
</svg>
