<?xml version="1.0" encoding="utf-8"?>
<!-- Generator: Adobe Illustrator 19.2.0, SVG Export Plug-In . SVG Version: 6.00 Build 0)  -->
<svg version="1.1" id="Layer_1" xmlns="http://www.w3.org/2000/svg" xmlns:xlink="http://www.w3.org/1999/xlink" x="0px" y="0px"
	 viewBox="0 0 39.1 28.8" style="enable-background:new 0 0 39.1 28.8;" xml:space="preserve">
<style type="text/css">
	.st0{opacity:0.5;}
	.st1{fill:#FFFFFF;}
</style>
<g class="st0">
	<path d="M39.1,13.7c0,1-0.3,2.5-0.8,4.5c-0.5,2.1-1,3.5-1.5,4.3c-1.3,1.9-4.8,3.6-10.4,4.8c-4.4,1-8.5,1.5-12,1.5
		c-3.8,0-6.9-0.6-9.4-1.8c-3.3-1.6-5-4-5-7.4c0-1.5,0.4-3,1.1-4.6c0.4-0.8,1.2-2.1,2.5-4l0.6,0.5c-0.7,1.5-1.1,2.9-1.1,4.4
		c0,3.9,4,5.9,12,5.9c5.3,0,10-0.5,14.1-1.5c5-1.2,7.5-2.6,7.5-4.1c0-0.4-0.4-1-1.1-1.8c-0.5-0.5-1-1.1-1.5-1.7
		c1-2.6,1.8-4.8,2.2-6.7C38.2,8.4,39.1,11,39.1,13.7z M25,5l-2.4,3.9l-3.7-2.6L17,9.7l-4-3l2.4-4l3.5,2.8L21.3,2L25,5z"/>
</g>
<path class="st1" d="M39.1,11.7c0,1-0.3,2.5-0.8,4.5c-0.5,2.1-1,3.5-1.5,4.3c-1.3,1.9-4.8,3.6-10.4,4.8c-4.4,1-8.5,1.5-12,1.5
	c-3.8,0-6.9-0.6-9.4-1.8c-3.3-1.6-5-4-5-7.4c0-1.5,0.4-3,1.1-4.6c0.4-0.8,1.2-2.1,2.5-4l0.6,0.5c-0.7,1.5-1.1,2.9-1.1,4.4
	c0,3.9,4,5.9,12,5.9c5.3,0,10-0.5,14.1-1.5c5-1.2,7.5-2.6,7.5-4.1c0-0.4-0.4-1-1.1-1.8c-0.5-0.5-1-1.1-1.5-1.7
	c1-2.6,1.8-4.8,2.2-6.7C38.2,6.4,39.1,9,39.1,11.7z M25,3l-2.4,3.9l-3.7-2.6L17,7.7l-4-3l2.4-4l3.5,2.8L21.3,0L25,3z"/>
</svg>
