<?xml version="1.0" encoding="utf-8"?>
<!-- Generator: Adobe Illustrator 19.2.0, SVG Export Plug-In . SVG Version: 6.00 Build 0)  -->
<svg version="1.1" id="Layer_1" xmlns="http://www.w3.org/2000/svg" xmlns:xlink="http://www.w3.org/1999/xlink" x="0px" y="0px"
	 viewBox="0 0 17 35.8" style="enable-background:new 0 0 17 35.8;" xml:space="preserve">
<style type="text/css">
	.st0{opacity:0.5;}
	.st1{fill:#FFFFFF;}
</style>
<g>
	<g class="st0">
		<path d="M17,26.7c0,2.6-0.5,4.5-1.6,5.7c-1,1.2-2.8,2.1-5.4,2.7c-1.9,0.5-4,0.7-6.2,0.7c-0.9,0-2.2-0.4-3.8-1.2L1.3,27
			c1.4,0.7,2.3,1,2.7,1c7.2,0,10.8-0.9,10.8-2.7c0-1.5-3.3-3.9-9.8-7.2L7.4,11C13.8,15.2,17,20.4,17,26.7z M9.9,4.8l-2.3,4L3.7,6
			l2.4-4L9.9,4.8z"/>
	</g>
	<g>
		<g>
			<g>
				<path class="st1" d="M17,24.7c0,2.6-0.5,4.5-1.6,5.7c-1,1.2-2.8,2.1-5.4,2.7c-1.9,0.5-4,0.7-6.2,0.7c-0.9,0-2.2-0.4-3.8-1.2
					L1.3,25c1.4,0.7,2.3,1,2.7,1c7.2,0,10.8-0.9,10.8-2.7c0-1.5-3.3-3.9-9.8-7.2L7.4,9C13.8,13.2,17,18.4,17,24.7z M9.9,2.8l-2.3,4
					L3.7,4l2.4-4L9.9,2.8z"/>
			</g>
		</g>
	</g>
</g>
</svg>
