<?xml version="1.0" encoding="utf-8"?>
<!-- Generator: Adobe Illustrator 22.0.1, SVG Export Plug-In . SVG Version: 6.00 Build 0)  -->
<svg version="1.1" id="Layer_1" xmlns="http://www.w3.org/2000/svg" xmlns:xlink="http://www.w3.org/1999/xlink" x="0px" y="0px"
	 viewBox="0 0 86.2 86.2" style="enable-background:new 0 0 86.2 86.2;" xml:space="preserve">
<style type="text/css">
	.st0{fill:#235958;}
</style>
<g>
	<polygon class="st0" points="39.4,62.1 44.6,66 47.8,60.6 42.6,56.8 	"/>
	<path class="st0" d="M52.3,44.9h-1.1H50c-4.5,0-7-1.6-7.5-4.9h-0.4c0,2.5-0.1,3.8-0.3,4c-0.6,0.7-2,1-4.1,1h-1.1h-2.2h-13v8.8h13
		h2.2h0.6c2.1,0,3.9-1.6,5.5-4.8c1.2,3.2,3.1,4.8,5.7,4.8h2.8h1.1h14.1V45L52.3,44.9L52.3,44.9z"/>
</g>
</svg>
