<?xml version="1.0" encoding="utf-8"?>
<!-- Generator: Adobe Illustrator 22.0.1, SVG Export Plug-In . SVG Version: 6.00 Build 0)  -->
<svg version="1.1" id="Layer_1" xmlns="http://www.w3.org/2000/svg" xmlns:xlink="http://www.w3.org/1999/xlink" x="0px" y="0px"
	 viewBox="0 0 86.2 86.2" style="enable-background:new 0 0 86.2 86.2;" xml:space="preserve">
<style type="text/css">
	.st0{fill:#235958;}
</style>
<g>
	<path class="st0" d="M45.7,54.6c3.2,0,5.6-1.3,7.2-4c1.3-2.2,2-5.1,2-8.5c0-3-0.9-6.5-2.8-10.6c-2.4,4.5-3.5,7.3-3.5,8.2
		c0,0.7,0.5,1.6,1.4,2.6c0.9,1.1,1.4,1.7,1.4,2c0,1.3-1.6,1.9-4.9,1.9h-1.4H43H30.7v8.3H43h2.1h0.6C45.7,54.5,45.7,54.6,45.7,54.6z"
		/>
	<polygon class="st0" points="53.4,57.5 50.6,61.9 46.2,58.4 43,63.3 48.1,67.1 50.4,62.9 55,66.1 58.1,61.1 	"/>
</g>
<g>
	<path class="st0" d="M46.1,25.8c0,1.6-0.5,3-1.6,4.2s-2.5,1.8-4.1,1.8c-2.7,0-4-1.5-4-4.5c0-1.9,0.4-3.5,1.1-4.8
		c1-1.5,2.3-2.3,4.1-2.3c1.3,0,2.4,0.6,3.2,1.8C45.6,23.3,46.1,24.5,46.1,25.8z M44,26.8c0-0.6-0.5-1.3-1.6-2.1
		c-1.1-0.8-2-1.2-2.6-1.2s-1.1,0.3-1.6,0.8c-0.5,0.6-0.7,1.1-0.7,1.7c0,1.5,1.1,2.2,3.3,2.2C42.9,28.3,44,27.8,44,26.8z"/>
</g>
</svg>
