<?xml version="1.0" encoding="utf-8"?>
<!-- Generator: Adobe Illustrator 22.0.1, SVG Export Plug-In . SVG Version: 6.00 Build 0)  -->
<svg version="1.1" id="Layer_1" xmlns="http://www.w3.org/2000/svg" xmlns:xlink="http://www.w3.org/1999/xlink" x="0px" y="0px"
	 viewBox="0 0 86.2 86.2" style="enable-background:new 0 0 86.2 86.2;" xml:space="preserve">
<style type="text/css">
	.st0{fill:#235958;}
</style>
<g>
	<path class="st0" d="M56.9,54.8c0,4.8-1.6,8.7-4.8,11.7s-7.3,4.4-12.1,4.4c-3.5,0-6.3-0.8-8.5-2.5c-2.4-1.8-3.7-4.4-3.7-7.8
		c0-4.1,1.5-9.2,4.6-15.4l1.1,0.7c-1.4,2.8-2.1,5.3-2.1,7.4c0,3.4,0.9,5.8,2.8,7.1c1.5,1.1,4.1,1.6,7.8,1.6c2.6,0,5.1-0.5,7.6-1.5
		c3.2-1.3,4.8-3,4.8-5.2c0-0.9-0.9-2.9-2.6-5.9c-1.5-2.6-2.7-4.5-3.6-5.7l3-7.6C55,41.3,56.9,47.5,56.9,54.8z M43.7,32.8l-3,5
		l-5-3.6l3.1-5L43.7,32.8z"/>
</g>
</svg>
