<?xml version="1.0" encoding="utf-8"?>
<!-- Generator: Adobe Illustrator 22.0.1, SVG Export Plug-In . SVG Version: 6.00 Build 0)  -->
<svg version="1.1" id="Layer_1" xmlns="http://www.w3.org/2000/svg" xmlns:xlink="http://www.w3.org/1999/xlink" x="0px" y="0px"
	 viewBox="0 0 86.2 86.2" style="enable-background:new 0 0 86.2 86.2;" xml:space="preserve">
<style type="text/css">
	.st0{fill:#235958;}
</style>
<g>
	<path class="st0" d="M45.7,53.6c3.2,0,5.6-1.3,7.2-4c1.3-2.2,2-5.1,2-8.5c0-3-0.9-6.5-2.8-10.6c-2.4,4.5-3.5,7.3-3.5,8.2
		c0,0.7,0.5,1.6,1.4,2.6c0.9,1.1,1.4,1.7,1.4,2c0,1.3-1.6,1.9-4.9,1.9h-1.4H43H30.7v8.3H43h2.1h0.6C45.7,53.5,45.7,53.6,45.7,53.6z"
		/>
	<polygon class="st0" points="53.4,56.5 50.6,60.9 46.2,57.4 43,62.3 48.1,66.1 50.4,61.9 55,65.1 58.1,60.1 	"/>
</g>
</svg>
