<?xml version="1.0" encoding="utf-8"?>
<!-- Generator: Adobe Illustrator 22.0.1, SVG Export Plug-In . SVG Version: 6.00 Build 0)  -->
<svg version="1.1" id="Layer_1" xmlns="http://www.w3.org/2000/svg" xmlns:xlink="http://www.w3.org/1999/xlink" x="0px" y="0px"
	 viewBox="0 0 86.2 86.2" style="enable-background:new 0 0 86.2 86.2;" xml:space="preserve">
<style type="text/css">
	.st0{fill:#235958;}
</style>
<g>
	<path class="st0" d="M40.8,66.9l-10.3,6.2c-1,0.6-1.7,1.1-2,1.6S28,76,28,77.1l11-6.2C40.2,70.2,40.8,68.8,40.8,66.9z"/>
</g>
<g>
	<path class="st0" d="M52.9,35.7c0,5.7-1.1,11.1-3.3,16c-2.8,6.3-6.7,9.5-11.7,9.5c-2.8,0-6.5-1.1-11.3-3.4l0.7-1
		c1.7,0.4,2.8,0.6,3.3,0.6c3.2,0,6.6-1.5,10.2-4.4c3.3-2.6,5.8-5.5,7.5-8.7c1.2-2.3,1.8-4.9,1.8-7.9c-1.4,2.4-3,3.5-4.7,3.5
		c-1.4,0-2.5-0.6-3.3-1.8c-0.7-1.1-1-2.3-1-3.8c0-2.5,0.5-5.1,1.4-7.6c1.2-3.3,2.8-5,4.9-5c1.9,0,3.3,2,4.3,5.9
		C52.6,30.3,52.9,33,52.9,35.7z M48.4,32.4c-0.5-2.1-1.5-3.1-3-3.1c-1.2,0-1.8,0.6-1.8,1.8c0,0.6,0.3,1.2,0.8,1.5
		c0.5,0.4,1.1,0.6,1.8,0.6S47.6,32.9,48.4,32.4z"/>
</g>
</svg>
