<?xml version="1.0" encoding="utf-8"?>
<!-- Generator: Adobe Illustrator 22.0.1, SVG Export Plug-In . SVG Version: 6.00 Build 0)  -->
<svg version="1.1" id="Layer_1" xmlns="http://www.w3.org/2000/svg" xmlns:xlink="http://www.w3.org/1999/xlink" x="0px" y="0px"
	 viewBox="0 0 86.2 86.2" style="enable-background:new 0 0 86.2 86.2;" xml:space="preserve">
<style type="text/css">
	.st0{fill:#235958;}
</style>
<g>
	<path class="st0" d="M48.5,27.2l-3.1,5.1L40.9,29l-2.4,4.2l-5-3.7l2.9-4.9L41,28l2.8-4.5L48.5,27.2z M50.6,51.5
		c0,3.6-0.7,6.6-2.2,8.9c-1.7,2.8-4.3,4.3-7.6,4.3c-2.3,0-4.1-0.8-5.3-2.3c-1.3-1.6-1.9-3.5-1.9-5.9s0.3-4.8,1-7.1
		c0.8-2.7,1.8-5.3,3.1-7.8c1.9-3.6,3.6-5.4,5.2-5.4c2.5,0,4.4,2,5.9,6C50,45.4,50.6,48.5,50.6,51.5z M48,52.6
		c-2.7-3.6-5.4-5.4-8.1-5.4c-0.9,0-1.7,0.4-2.5,1.2c-0.7,0.8-1.1,1.6-1.1,2.6c0,2.3,1.6,3.5,4.9,3.5C42.9,54.4,45.2,53.8,48,52.6z"
		/>
</g>
</svg>
