<?xml version="1.0" encoding="utf-8"?>
<!-- Generator: Adobe Illustrator 19.2.0, SVG Export Plug-In . SVG Version: 6.00 Build 0)  -->
<svg version="1.1" id="Layer_1" xmlns="http://www.w3.org/2000/svg" xmlns:xlink="http://www.w3.org/1999/xlink" x="0px" y="0px"
	 viewBox="0 0 269.2 46.1" style="enable-background:new 0 0 269.2 46.1;" xml:space="preserve">
<style type="text/css">
	.st0{fill:#FFFFFF;}
</style>
<g>
	<path class="st0" d="M3,25.7c0.4,0.4,0.5,0.9,0.5,1.4c0,0.3-0.1,0.9-0.5,1.2c-0.4,0.4-0.8,0.5-1.4,0.5c-0.4,0-0.8-0.1-1.2-0.5
		C0.2,28.1,0,27.6,0,27.1c0-0.5,0.2-1,0.5-1.3c0.4-0.3,0.8-0.5,1.2-0.5C2.2,25.3,2.7,25.5,3,25.7z M3,32.5c0.4,0.4,0.5,1,0.5,1.4
		c0,0.3-0.1,0.9-0.5,1.2c-0.4,0.4-0.9,0.5-1.4,0.5c-0.4,0-0.8-0.2-1.2-0.5C0.1,34.8,0,34.3,0,33.8c0-0.4,0.2-0.9,0.5-1.3
		C0.9,32.2,1.4,32,1.8,32C2.2,32,2.7,32.2,3,32.5z"/>
	<path class="st0" d="M21.4,41.3c0.1-0.1,0.2-0.1,0.2,0.1c0,0.7-0.3,1.5-0.7,1.7l-5.3,3c-0.1,0.1-0.1,0-0.1-0.1c0-0.4,0.1-1,0.3-1.3
		c0.1-0.2,0.4-0.4,0.9-0.7L21.4,41.3z"/>
	<path class="st0" d="M22.8,32.6c0,2.9-0.5,3.6-1.2,4.7c-1.6,2.5-4.6,3.7-7.6,3.7c-5.1,0-6.5-2.7-6.5-5.3c0-1.9,0.6-3.8,1.4-5.3
		c0.4-0.8,0.8-1.1,1-1.1c0.1,0,0.1,0.1,0.1,0.2c0,0.2-0.1,0.6-0.3,1c-0.4,0.9-0.9,2.2-0.9,3.2c0,2.3,1.8,4.3,5.7,4.3
		c2.8,0,6.3-1.8,7-3.3c0.1-0.2,0.1-0.3,0.1-0.4c-0.2-2.4-0.3-4.1-0.6-6.2c-0.5-3.9-0.6-4.9-1.1-8.5c0-0.5-0.4-1.7-0.5-2.2
		c0-0.1-0.1-0.2-0.1-0.3c0-0.1,0-0.1,0-0.2c0.1-0.2,0.2-0.5,0.5-1.1c0.3-0.7,0.9-1.4,1.1-1.4c0.1,0,0.2,0.1,0.2,0.3
		c0.3,1.2,0.7,1.8,1,2.3c0.1,0.1,0.1,0.2,0.1,0.3c0,0.1,0,0.2-0.1,0.3c-0.1,0.3-0.4,1-0.6,1.4C22,23.2,22.8,29.6,22.8,32.6z"/>
	<path class="st0" d="M31.9,35.3c-0.8,0-1.6-0.1-2.2-0.6c-0.9-0.8-1.4-2.2-1.7-4c-0.2-1.4-0.3-3-0.4-4.8c-0.1-2.6-0.3-6.6-0.7-8.9
		c0-0.1,0-0.2,0-0.3c0-0.1,0-0.2,0.2-0.5c0.4-0.6,0.7-1,0.9-1.5c0.2-0.4,0.3-0.4,0.4-0.4c0.1,0,0.2,0.2,0.4,0.8
		c0.6,4.5,0.1,10.8,0.8,14.3c0.2,0.9,0.3,1.2,0.5,1.7c0.3,0.8,0.9,1.2,1.8,1.2c1,0,1.5,0.5,1.5,1.4c0,1.2-0.5,1.5-1.4,1.5H31.9z"/>
	<path class="st0" d="M42.3,32.4c0.9,0,1.3,0.5,1.3,1.4c0,1-0.4,1.5-1.3,1.5h-0.4c-2.8,0-4.4-0.6-5.6-1.2c-1,0.6-2.4,1.2-4.1,1.2
		h-0.3c-0.8,0-1.2-0.5-1.2-1.5c0-0.9,0.4-1.4,1.2-1.4h0.3c1.1,0,1.9-0.2,2.2-0.5c-0.1-0.3-0.1-0.6-0.1-1c0-2.9,3.3-6.6,5.2-6.6
		c1.1,0,1.6,1.2,1.6,2.8c0,1.6-0.6,3.6-1.9,4.8c0.6,0.3,1.5,0.5,2.8,0.5H42.3z M39,18c0.1,0.1,0.1,0.1,0,0.2
		c-0.3,0.4-1.4,1.6-1.8,2.1c-0.1,0.1-0.2,0.1-0.3,0c-0.6-0.4-1.9-1.3-2.2-1.9c-0.1-0.1-0.1-0.2,0-0.3c0.4-0.7,1.2-1.5,1.7-2
		c0.2-0.2,0.3-0.3,0.4-0.2C37.2,16.6,38.1,17.4,39,18z M38.2,27.3c-1.1,0-2.1,1.1-2.1,1.6c0,0.7,0.5,1.2,1.6,1.8
		c0.4-0.2,1.8-1.2,1.8-1.7C39.5,27.9,39.1,27.3,38.2,27.3z"/>
	<path class="st0" d="M45.4,6.9c0.8,0,2.1,1.2,2.1,2.7c0,0.5-0.1,1-0.2,1.5c-0.4,1-1.2,1.6-2.3,1.6c-1,0-1.7-0.8-1.7-1.7
		C43.3,9.7,44.8,6.9,45.4,6.9z M45.1,9c-0.3,0-0.9,0.8-0.9,1.2c0,0.3,0.5,0.7,1,0.7c0.7,0,1.4-0.4,1.4-0.6C46.7,10.1,45.9,9,45.1,9z
		"/>
	<path class="st0" d="M47,26.2c0,1.2-0.1,2.2-0.4,3c2.8-2.3,4.9-3.4,6.3-3.4c0.7,0,1.6,0.1,2.3,0.5c1,0.5,1.5,1,1.5,2
		c0,1.5-0.7,2.7-1.5,3.9c-1.3,1.7-7.8,3.1-13,3.1h-0.3c-0.9,0-1.4-0.5-1.4-1.5c0-1,0.5-1.5,1.4-1.5c0.6,0,1.3,0,1.4,0
		c0.6-0.5,1.7-1.7,2.5-2.3c0-0.5,0-1,0-1.4c0-3.2-0.5-6-0.9-9.1c0-0.5-0.4-1.7-0.5-2.2c0-0.1-0.1-0.2-0.1-0.3c0-0.1,0-0.1,0-0.2
		c0.1-0.2,0.2-0.5,0.5-1.1c0.3-0.7,0.7-1.4,0.9-1.4c0.1,0,0.2,0.1,0.2,0.3c0.3,1.2,0.7,1.8,1,2.3c0.1,0.1,0.1,0.2,0.1,0.3
		c0,0.1,0,0.2-0.1,0.3c-0.1,0.3-0.5,1.1-0.7,1.4C46.6,21.4,47,24,47,26.2z M51.6,28.4c-2.5,0-4.7,1.8-7,4c4.4-0.3,8.6-1.1,10.4-2.3
		C54.4,29.1,52.9,28.4,51.6,28.4z"/>
	<path class="st0" d="M61.3,0C61.5,0,61.5,0,61.5,0.1c0,0.7-0.3,1.5-0.7,1.7l-5.3,3c-0.1,0.1-0.1,0-0.1-0.1c0-0.4,0.1-1,0.3-1.3
		c0.1-0.2,0.4-0.4,0.9-0.7L61.3,0z"/>
	<path class="st0" d="M61.2,10.5c-0.2,0.3-0.3,0.4-0.5,0.5c-1.1,0.6-3.4,1.9-5.2,3.3c-0.2,0.1-0.2,0.1-0.2-0.2
		c0-0.2,0.1-0.5,0.2-0.8c0.1-0.2,0.7-0.8,1.1-1.2c0.2-0.1,0.2-0.2-0.1-0.2c-0.9-0.3-1.2-0.7-1.2-1.4c0-1.1,1.2-2.8,2.2-3.7
		c0.4-0.3,0.8-0.6,1.4-0.6c0.7,0,1,0.3,1.1,0.9c0,0.3-0.1,0.8-0.3,1.3c-0.2,0.6-0.4,0.6-0.7,0.2c-0.2-0.2-0.5-0.3-0.7-0.3
		c-1,0-1.7,0.6-1.7,0.9c0,0.4,1.6,1.1,2.3,1.1c0.1,0,0.2,0,0.3-0.1C60,10,61,9.6,61.2,9.4c0.4-0.3,0.6-0.2,0.4,0.3
		C61.6,9.8,61.4,10.2,61.2,10.5z"/>
	<path class="st0" d="M71.2,16.7c0.1,0.2,0.1,0.3,0.1,0.4c0,0.1,0,0.2-0.1,0.3c-0.2,0.5-0.7,1.2-1.1,1.7c-0.2,3.1-0.6,5.5-2,9.1
		c0.4,1,0.7,2.4,0.7,3.7c0,0.9-0.1,1.7-0.4,2.4c-0.2,0.5-3.4,1.1-5.6,1.1c-0.6,0-1.1,0-1.4-0.1c-0.1,0-0.2-0.4-0.2-0.8
		c0-0.8,0.2-1.9,0.4-2.3c0-0.1,0.1-0.1,0.1-0.1c0.1,0,0.2,0,0.3,0c1.8,0,3.6-1.6,4.8-3.8c-1.5-2.9-4.5-6.7-7.2-8.5
		c-0.1,0.1-0.5,0.8-0.9,0.8c-0.4,0-2.8-2.3-2.9-2.8c-0.1-0.3-0.1-0.5-0.1-0.8c0-0.7,0.1-1.4,0.3-1.8c0.2-0.4,0.4-0.5,0.6-0.5
		c0.3,0,0.6,0.2,1,0.5c2,1.4,4.2,3.1,5.8,5.2c1.3,1.6,2.9,3.9,4.2,6.6c0.8-1.6,0.9-2.8,1.1-5c0.1-1.2,0.1-2.1,0.1-2.8
		c0-1.5-0.2-2-0.2-2.4c0-0.2,0.1-0.5,0.3-0.9c0.5-0.9,0.9-1.5,1.1-1.5c0.1,0,0.2,0.1,0.2,0.3C70.5,15.2,70.8,16,71.2,16.7z
		 M67.2,29.5c-1,1.4-1.1,1.7-2.2,2.6c1,0,2-0.1,2.8-0.4C67.8,31.3,67.8,30.5,67.2,29.5z"/>
	<path class="st0" d="M76.3,35.3c-0.1,0-0.2-0.2-0.2-0.9c0-3.9-1.4-14.6-1.4-16.4c0-0.9,0.6-2.2,1.1-3.2c0.2-0.3,0.4-0.7,0.6-0.7
		c0.2,0,0.2,0.2,0.2,1c0.1,2.8,0.9,9.4,0.9,14.1c0,1.9-0.1,3.5-0.5,4.4C76.7,34.8,76.5,35.3,76.3,35.3z"/>
	<path class="st0" d="M96.2,36.6c0.1-0.1,0.2-0.1,0.2,0.1c0,0.7-0.3,1.5-0.7,1.7l-5.3,3c-0.1,0.1-0.1,0-0.1-0.1c0-0.4,0.1-1,0.3-1.3
		c0.1-0.2,0.4-0.4,0.9-0.7L96.2,36.6z"/>
	<path class="st0" d="M94.7,15.8c0.2-0.2,0.3-0.3,0.4-0.1c0.6,0.7,1.3,1.4,2,1.8c0.2,0.1,0.2,0.2,0,0.4c-0.6,0.6-1.2,1.3-1.7,2
		c-0.1,0.2-0.2,0.2-0.4,0c-0.5-0.4-1.2-0.9-1.8-1.6c-0.4,0.4-1.1,1.3-1.5,1.5c-0.2,0.1-0.2,0.2-0.5,0.1c-0.7-0.4-1.5-1.1-2-1.8
		c-0.1-0.2-0.1-0.2,0-0.4c0.5-0.6,1.1-1.3,1.8-2c0.1-0.1,0.2-0.1,0.4,0.1c0.5,0.5,1.3,1.3,1.8,1.6C93.7,16.9,94.4,16.1,94.7,15.8z
		 M98.5,31.8c0.6,0.4,1.1,0.6,1.5,0.6h0.4c0.9,0,1.4,0.5,1.4,1.4c0,1.1-0.5,1.6-1.4,1.6H100c-1,0-2-0.4-2.9-1.2
		c-0.9-0.8-1.5-2.1-1.8-3.9c-0.3,0.5-0.5,0.9-1.1,1.3c-0.8,0.6-2.1,0.8-3.4,0.8c-0.9,0-1.8-0.2-1.8-0.8c0.4-2.9,0.8-3.3,2.2-4.4
		c0.6-0.5,2.3-1.5,3-2c0-0.3-0.1-0.5-0.1-0.7c0-0.7,0.2-1,0.5-1.6c0.2-0.4,0.4-0.6,0.5-0.6c0.1,0,0.2,0.2,0.3,0.7
		c0.4,2.6,0.7,4.8,1,6.2C96.8,30.1,97.5,31.1,98.5,31.8z M94.6,26.5c-1.2,0.8-3.2,2-3.3,2.4c0,0.2,0.4,0.3,0.9,0.3
		c0.8,0,2-0.2,2.8-0.6C94.9,27.8,94.8,27.5,94.6,26.5z"/>
	<path class="st0" d="M110.3,32.4c0.9,0,1.3,0.5,1.3,1.4c0,1-0.4,1.5-1.3,1.5H110c-2.8,0-4.4-0.6-5.6-1.2c-1,0.6-2.4,1.2-4.1,1.2
		H100c-0.8,0-1.2-0.5-1.2-1.5c0-0.9,0.4-1.4,1.2-1.4h0.3c1.1,0,1.9-0.2,2.2-0.5c-0.1-0.3-0.1-0.6-0.1-1c0-2.9,3.3-6.6,5.2-6.6
		c1.1,0,1.6,1.2,1.6,2.8c0,1.6-0.6,3.6-1.9,4.8c0.6,0.3,1.5,0.5,2.8,0.5H110.3z M107.1,18c0.1,0.1,0.1,0.1,0,0.2
		c-0.3,0.4-1.4,1.6-1.8,2.1c-0.1,0.1-0.2,0.1-0.3,0c-0.6-0.4-1.9-1.3-2.2-1.9c-0.1-0.1-0.1-0.2,0-0.3c0.4-0.7,1.2-1.5,1.7-2
		c0.2-0.2,0.3-0.3,0.4-0.2C105.2,16.6,106.2,17.4,107.1,18z M106.2,27.3c-1.1,0-2.1,1.1-2.1,1.6c0,0.7,0.5,1.2,1.6,1.8
		c0.4-0.2,1.8-1.2,1.8-1.7C107.5,27.9,107.2,27.3,106.2,27.3z"/>
	<path class="st0" d="M115,16.1c0.8,0,2.1,1.2,2.1,2.7c0,0.5-0.1,1-0.2,1.5c-0.4,1-1.2,1.6-2.3,1.6c-1,0-1.7-0.8-1.7-1.7
		C112.9,18.9,114.4,16.1,115,16.1z M114.8,18.1c-0.3,0-0.9,0.8-0.9,1.2c0,0.3,0.5,0.7,1,0.7c0.7,0,1.4-0.4,1.4-0.6
		C116.3,19.2,115.5,18.1,114.8,18.1z"/>
	<path class="st0" d="M126.6,5.1c0,0.7-0.1,1.3-0.4,1.9c0.3,0.2,0.5,0.3,0.5,0.5c0,0.5-0.2,0.9-0.4,1.3c-0.1,0.1-0.1,0.1-0.1,0.1
		l-0.7-0.4c-0.6,1-1.6,2.3-3.2,3c-0.6,0.3-1.2,0.5-1.9,0.5c-0.3,0-0.5-0.1-0.5-0.2c0-0.2,0.3-0.2,0.7-0.5c1.1-0.6,3.3-2.3,4-3.2
		c-0.6-0.4-1.4-0.9-1.4-1.8c0-0.6,0.3-1.1,0.8-1.7c0.5-0.7,1.1-1,1.6-1C126.3,3.5,126.6,4.4,126.6,5.1z M124.3,5.7
		C124.2,5.7,124.2,5.7,124.3,5.7c0,0.2,0.5,0.6,1,0.8c0.1-0.2,0.2-0.5,0.2-0.8c0-0.4-0.2-0.6-0.4-0.6C124.8,5.1,124.4,5.3,124.3,5.7
		z"/>
	<path class="st0" d="M125.6,12.8c0.2-0.2,0.3-0.3,0.4-0.1c0.6,0.7,1.3,1.4,2,1.8c0.2,0.1,0.2,0.2,0,0.4c-0.6,0.6-1.2,1.3-1.7,2
		c-0.1,0.2-0.2,0.2-0.4,0c-0.5-0.4-1.2-0.9-1.8-1.6c-0.4,0.4-1.1,1.3-1.5,1.5c-0.2,0.1-0.2,0.2-0.5,0.1c-0.7-0.4-1.5-1.1-2-1.8
		c-0.1-0.2-0.1-0.2,0-0.4c0.5-0.6,1.1-1.3,1.8-2c0.1-0.1,0.2-0.1,0.4,0.1c0.5,0.5,1.3,1.3,1.8,1.6C124.6,13.9,125.3,13.1,125.6,12.8
		z"/>
	<path class="st0" d="M124.9,24c-0.2,0-0.3-0.2-0.4-0.7c-0.1-0.8-0.5-1.6-1.1-1.6c-0.4,0-0.8,0.3-1.4,1.2c-1.4,2.2-3,3.7-4.3,4.5
		c-0.1,0.1,0,0.1,0.2,0.2c4.6,1.6,8.3,2.4,11.2,2.3c0.1,0,0.3,0,0.1,0.4c-0.2,0.4-0.8,1.1-1.7,2.1c-0.2,0.2-0.2,0.2-0.4,0.1
		c-1.2-0.2-2.3-0.3-3.3-0.3c-1.2,0-2.4,0.1-3.4,0.4c-0.9,0.3-2.1,0.7-3.6,1.2c-1.5,0.5-2.6,0.9-3.5,1.1c-0.8,0.2-1.9,0.3-3.2,0.3
		h-0.3c-0.8,0-1.1-0.5-1.1-1.5c0-0.9,0.4-1.4,1.1-1.4h0.4c2.8,0,5.6-0.4,8.5-1.3c0,0,0-0.1-0.2-0.1c-1.8-0.9-4-1.5-6.7-1.7
		c-0.2,0-0.2-0.1-0.1-0.3c0.2-0.4,0.8-1,1.7-1.9c0.4-0.4,1.3-0.9,2.8-1.5c2.4-1.1,5-2.8,6.4-5.4c0.4-0.8,1.1-1.4,1.8-1.4
		c1,0,1.4,1.5,1.4,2.3c0,0.7,0,1.2-0.1,1.6C125.5,23.4,125.2,24,124.9,24z"/>
	<path class="st0" d="M153.8,16.6c0,0.7-0.1,1.3-0.4,1.9c0.3,0.2,0.5,0.3,0.5,0.5c0,0.5-0.2,0.9-0.4,1.3c-0.1,0.1-0.1,0.1-0.1,0.1
		l-0.7-0.4c-0.6,1-1.6,2.3-3.2,3c-0.6,0.3-1.2,0.5-1.9,0.5c-0.3,0-0.5-0.1-0.5-0.2c0-0.2,0.3-0.2,0.7-0.5c1.1-0.6,3.3-2.3,4-3.2
		c-0.6-0.4-1.4-0.9-1.4-1.8c0-0.6,0.3-1.1,0.8-1.7c0.5-0.7,1.1-1,1.6-1C153.6,15,153.8,15.9,153.8,16.6z M151.5,17.2
		C151.5,17.2,151.5,17.2,151.5,17.2c0,0.2,0.5,0.6,1,0.8c0.1-0.2,0.2-0.5,0.2-0.8c0-0.4-0.2-0.6-0.4-0.6
		C152,16.6,151.7,16.8,151.5,17.2z"/>
	<path class="st0" d="M143.8,31.9c1.2,0.6,3.3,0.9,5.9,0.9c3.7,0,6.6-0.5,8.6-1.1c2.6-0.8,3.8-1.2,5.3-2.3c0.1-0.1,0.2-0.2,0.3-0.2
		c0.1,0,0.2,0.1,0.2,0.6c0,1.6,0.9,2.5,1.9,2.5h0.4c0.8,0,1.2,0.5,1.2,1.4c0,1-0.4,1.5-1.2,1.5h-0.5c-1.8,0-2.9-1-3.3-2.9
		c-1.4,0.7-3.1,1.6-4.7,2.1c-2.5,0.8-5.3,1.4-8.6,1.4c-2.7,0-4.9-0.4-6.3-1c-1.9-0.8-2.8-1.9-2.8-3.8c0-1.7,0.7-3.3,1.1-4
		c0.3-0.4,0.6-0.8,0.8-0.8c0.1,0,0.1,0.1,0.1,0.2c0,0.2-0.1,0.5-0.2,0.8c-0.3,0.6-0.5,1.4-0.5,2C141.5,30,142,31.1,143.8,31.9z
		 M153.9,41.4c0.1,0.1,0.1,0.1,0,0.2c-0.3,0.4-1.4,1.6-1.8,2.1c-0.1,0.1-0.2,0.1-0.3,0c-0.6-0.4-1.9-1.3-2.2-1.9
		c-0.1-0.1-0.1-0.2,0-0.3c0.4-0.7,1.2-1.5,1.7-2c0.2-0.2,0.3-0.3,0.4-0.2C152.1,40,153,40.8,153.9,41.4z"/>
	<path class="st0" d="M178,36.2c0.1-0.1,0.2-0.1,0.2,0.1c0,0.7-0.3,1.5-0.7,1.7l-5.3,3c-0.1,0.1-0.1,0-0.1-0.1c0-0.4,0.1-1,0.3-1.3
		c0.1-0.2,0.4-0.4,0.9-0.7L178,36.2z"/>
	<path class="st0" d="M169.8,28.5c-0.3,0-0.6,0-0.8,0.1c-0.2,0.1-0.7,0.4-1,0.4c-0.2,0-0.2-0.1-0.2-0.3c0-0.6,0.8-1.7,1.5-2.3
		c0.6-0.5,1.2-0.7,1.8-0.7c0.2,0,0.4,0,0.6,0.1c2.3,0.5,5.3,1.8,7.7,2.3c1.6,0.4,3.3,0.5,4.4,0.5c0.2,0,0.4,0,0.6,0
		c0.1,0,0.1,0,0.1,0.1c0,0.5-0.9,1.9-1.4,2.4c-0.1,0.1-0.4,0.1-0.7,0.1c-0.6,0-2.1-0.1-2.4-0.1c-1.1,0-2.1,0.1-2.9,0.4
		c-0.5,0.2-1.5,0.6-3,1.2c-2.1,1.1-3.7,1.8-4.6,2.1c-1,0.4-2,0.6-3.2,0.6h-0.3c-0.9,0-1.4-0.5-1.4-1.5c0-0.9,0.5-1.4,1.4-1.4h0.4
		c1.8,0,3.2-0.2,4.4-0.5c1.2-0.3,2.9-0.9,5.1-1.9C173.3,29.3,171.2,28.5,169.8,28.5z"/>
	<path class="st0" d="M192.3,35.3c-0.8,0-1.6-0.1-2.2-0.6c-0.9-0.8-1.4-2.2-1.7-4c-0.2-1.4-0.3-3-0.4-4.8c-0.1-2.6-0.3-6.6-0.7-8.9
		c0-0.1,0-0.2,0-0.3c0-0.1,0-0.2,0.2-0.5c0.4-0.6,0.7-1,0.9-1.5c0.2-0.4,0.3-0.4,0.4-0.4c0.1,0,0.2,0.2,0.4,0.8
		c0.6,4.5,0.1,10.8,0.8,14.3c0.2,0.9,0.3,1.2,0.5,1.7c0.3,0.8,0.9,1.2,1.8,1.2c1,0,1.5,0.5,1.5,1.4c0,1.2-0.5,1.5-1.4,1.5H192.3z"/>
	<path class="st0" d="M198.1,36.9c-0.1,0-0.2-0.1-0.2-0.3c0-0.1,0-0.3,0.1-0.4c0.1-0.4,0.3-0.9,0.6-1.4c-1.3-0.5-2.2-1.3-2.6-2.5
		c-1,2-2.1,2.9-3.4,2.9h-0.3c-0.8,0-1.3-0.5-1.3-1.5c0-1,0.4-1.5,1.3-1.5h0.3c1.6,0,2.8-1,3.6-3c0.3-0.8,0.6-1.2,0.8-1.2
		c0.3,0,0.4,0.3,0.4,0.9c0,1,0.6,2.5,2.9,2.9c2.5-3.2,7.2-7,9.2-7c0.7,0,1.7,0.3,2.5,0.8c0.9,0.6,1.2,1.3,1.2,1.9c0,1-0.5,2.8-1.4,4
		c-1,1.2-3.3,2.3-5.8,2.8c-1.5,0.4-3,0.5-4.2,0.5c-0.9,0-1.7-0.1-2.3-0.2c-0.3,0.4-0.5,0.9-0.7,1.2
		C198.5,36.5,198.3,36.9,198.1,36.9z M211.4,30c0-0.7-2-1.9-3.2-1.9c-1.9,0-5,2.3-6.8,4.2c0.3,0,0.6,0,0.8,0
		C205.9,32.3,210.4,30.8,211.4,30C211.4,30,211.4,30,211.4,30z"/>
	<path class="st0" d="M239,6.9c0,0.7-0.1,1.3-0.4,1.9c0.3,0.2,0.5,0.3,0.5,0.5c0,0.5-0.2,0.9-0.4,1.3c-0.1,0.1-0.1,0.1-0.1,0.1
		l-0.7-0.4c-0.6,1-1.6,2.3-3.2,3c-0.6,0.3-1.2,0.5-1.9,0.5c-0.3,0-0.5-0.1-0.5-0.2c0-0.2,0.3-0.2,0.7-0.5c1.1-0.6,3.3-2.3,4-3.2
		c-0.6-0.4-1.4-0.9-1.4-1.8c0-0.6,0.3-1.1,0.8-1.7c0.5-0.7,1.1-1,1.6-1C238.8,5.3,239,6.2,239,6.9z M236.7,7.5
		C236.7,7.5,236.7,7.6,236.7,7.5c0,0.2,0.5,0.6,1,0.8c0.1-0.2,0.2-0.5,0.2-0.8c0-0.4-0.2-0.6-0.4-0.6C237.2,6.9,236.9,7.2,236.7,7.5
		z"/>
	<path class="st0" d="M240.2,32.6c0,2.9-0.5,3.6-1.2,4.7c-1.6,2.5-4.6,3.7-7.6,3.7c-5.1,0-6.5-2.7-6.5-5.3c0-1.9,0.6-3.8,1.4-5.3
		c0.4-0.8,0.8-1.1,1-1.1c0.1,0,0.1,0.1,0.1,0.2c0,0.2-0.1,0.6-0.3,1c-0.4,0.9-0.9,2.2-0.9,3.2c0,2.3,1.8,4.3,5.7,4.3
		c2.8,0,6.3-1.8,7-3.3c0.1-0.2,0.1-0.3,0.1-0.4c-0.2-2.4-0.3-4.1-0.6-6.2c-0.5-3.9-0.6-4.9-1.1-8.5c0-0.5-0.4-1.7-0.5-2.2
		c0-0.1-0.1-0.2-0.1-0.3c0-0.1,0-0.1,0-0.2c0.1-0.2,0.2-0.5,0.5-1.1c0.3-0.7,0.9-1.4,1.1-1.4c0.1,0,0.2,0.1,0.2,0.3
		c0.3,1.2,0.7,1.8,1,2.3c0.1,0.1,0.1,0.2,0.1,0.3c0,0.1,0,0.2-0.1,0.3c-0.1,0.3-0.4,1-0.6,1.4C239.4,23.2,240.2,29.6,240.2,32.6z"/>
	<path class="st0" d="M238.7,43c-0.4-0.2-0.5-0.4-0.5-0.5c0-0.1,0.2-0.2,0.5-0.2c0.3,0,1.4,0.2,2.3,0.2c0.8,0,1.5-0.2,2.7-0.8
		c3.1-1.6,5-3.8,5-5.4c0-0.2,0-0.4-0.1-0.8h-0.9c-0.7,0-1.9-0.1-2.8-0.6c-0.9-0.5-1.2-1.2-1.2-2c0-0.7,0.3-1.9,0.8-2.8
		c0.7-1.6,1.6-2.8,2.4-2.8c0.9,0,1.7,0.6,2.3,1.5c0.6,0.9,0.9,2.4,0.9,3.6h1.2c0.8,0,1.2,0.4,1.2,1.3c0,1.1-0.4,1.6-1.2,1.6
		l-1.4,0.1c-0.2,4.5-1.7,7.4-5.3,8.8c-0.2,0.1-0.5,0.1-0.8,0.1C242.6,44.3,240.5,43.7,238.7,43z M246.7,30.5
		c-0.2-0.1-0.4-0.3-0.7-0.3c-0.6,0-1,0.7-1,1c0,0.3,0.3,0.6,1,0.9c0.5,0.2,1.1,0.3,1.5,0.3c0.2,0,0.3,0,0.3-0.1
		C247.9,32,247.3,31,246.7,30.5z"/>
	<path class="st0" d="M261.2,32.4c0.9,0,1.3,0.5,1.3,1.4c0,1-0.4,1.5-1.3,1.5h-0.4c-2.8,0-4.4-0.6-5.6-1.2c-1,0.6-2.4,1.2-4.1,1.2
		h-0.3c-0.8,0-1.2-0.5-1.2-1.5c0-0.9,0.4-1.4,1.2-1.4h0.3c1.1,0,1.9-0.2,2.2-0.5c-0.1-0.3-0.1-0.6-0.1-1c0-2.9,3.3-6.6,5.2-6.6
		c1.1,0,1.6,1.2,1.6,2.8c0,1.6-0.6,3.6-1.9,4.8c0.6,0.3,1.5,0.5,2.8,0.5H261.2z M257.9,17c0.2-0.2,0.3-0.3,0.4-0.1
		c0.6,0.7,1.3,1.4,2,1.8c0.2,0.1,0.2,0.2,0,0.4c-0.6,0.6-1.2,1.3-1.7,2c-0.1,0.2-0.2,0.2-0.4,0c-0.5-0.4-1.2-0.9-1.8-1.6
		c-0.4,0.4-1.1,1.3-1.5,1.5c-0.2,0.1-0.2,0.2-0.5,0.1c-0.7-0.4-1.5-1.1-2-1.8c-0.1-0.2-0.1-0.2,0-0.4c0.5-0.6,1.1-1.3,1.8-2
		c0.1-0.1,0.2-0.1,0.4,0.1c0.5,0.5,1.3,1.3,1.8,1.6C256.9,18.1,257.6,17.3,257.9,17z M257.1,27.3c-1.1,0-2.1,1.1-2.1,1.6
		c0,0.7,0.5,1.2,1.6,1.8c0.4-0.2,1.8-1.2,1.8-1.7C258.4,27.9,258,27.3,257.1,27.3z"/>
	<path class="st0" d="M267,18.4c0.1-0.1,0.2-0.1,0.2,0.1c0,0.7-0.3,1.5-0.7,1.7l-5.3,3c-0.1,0.1-0.1,0-0.1-0.1c0-0.4,0.1-1,0.3-1.3
		c0.1-0.2,0.4-0.4,0.9-0.7L267,18.4z"/>
	<path class="st0" d="M265.9,33.5c-0.6,0.8-1.5,1.5-3.3,1.7c-0.5,0.1-1.2,0.1-1.8,0.1c-0.8,0-1.2-0.7-1.2-1.5c0-0.7,0.4-1.5,1.2-1.5
		h0.7c1.3,0,3.4-0.1,4.1-0.8c-0.1-1.2-1-2.6-1.4-3.1c0,0,0-0.1,0-0.1c0-0.5,0.9-2.3,0.9-2.4c0-0.1,0.1-0.2,0.2-0.2
		c0.4,0,1.5,2.1,1.5,4.5C266.7,31.3,266.6,32.5,265.9,33.5z M266.6,36.8c0.2-0.2,0.3-0.3,0.4-0.1c0.6,0.7,1.3,1.4,2,1.8
		c0.2,0.1,0.2,0.2,0,0.4c-0.6,0.6-1.2,1.3-1.7,2c-0.1,0.2-0.2,0.2-0.4,0c-0.5-0.4-1.2-0.9-1.8-1.6c-0.4,0.4-1.1,1.3-1.5,1.5
		c-0.2,0.1-0.2,0.2-0.5,0.1c-0.7-0.4-1.5-1.1-2-1.8c-0.1-0.2-0.1-0.2,0-0.4c0.5-0.6,1.1-1.3,1.8-2c0.1-0.1,0.2-0.1,0.4,0.1
		c0.5,0.5,1.3,1.3,1.8,1.6C265.6,37.9,266.3,37.1,266.6,36.8z"/>
</g>
</svg>
