<?xml version="1.0" encoding="utf-8"?>
<!-- Generator: Adobe Illustrator 19.2.0, SVG Export Plug-In . SVG Version: 6.00 Build 0)  -->
<svg version="1.1" id="Layer_1" xmlns="http://www.w3.org/2000/svg" xmlns:xlink="http://www.w3.org/1999/xlink" x="0px" y="0px"
	 viewBox="0 0 403.9 49.9" style="enable-background:new 0 0 403.9 49.9;" xml:space="preserve">
<style type="text/css">
	.st0{fill:#002F3D;}
	.st1{fill:#FF0000;}
	.st2{fill:none;}
</style>
<g>
	<g>
		<path d="M166.9,37.6c0,0.1-0.1,0.1-0.2,0.1c-0.4,0-1.1-0.4-1.9-1.1c-0.6-0.5-1.1-1.1-1.5-1.6c-0.9-1.1-1.5-2.4-2.1-3.8
			c-1.3,0-2-0.2-2.1-0.5c0.4-0.3,0.7-0.7,0.9-1c0.3-0.4,0.4-0.8,0.4-1.2c-0.3,0-0.7,0.2-1.2,0.6c-0.1,0.1-0.4,0.4-1,0.9
			c-0.1,0-0.2-0.1-0.3-0.4c-0.1-0.3-0.2-0.7-0.2-1.2c-0.3-0.2-0.6-0.3-0.8-0.5c-0.2-0.2-0.3-0.3-0.3-0.4c0-0.2,0.2-0.4,0.5-0.7
			c0.2-0.1,0.4-0.3,0.6-0.4c0-0.4,0-0.7,0.1-1.1c0.1-0.3,0.2-0.5,0.3-0.5c0.4,0.4,0.8,0.7,1,0.9c0.4,0.3,0.9,0.5,1.2,0.5
			c0-0.4-0.2-0.8-0.5-1.2c-0.3-0.3-0.6-0.7-1-1c0-0.2,0.3-0.3,1-0.5c0.5-0.1,0.9-0.2,1.2-0.2c0.9-2.7,2.3-4.7,4-6.1
			c0.6-0.5,1-0.7,1.2-0.7c0.1,0,0.2,0.1,0.2,0.2c0,0.1-0.2,0.4-0.7,0.9c-1.5,1.7-2.3,3.6-2.7,5.7c0.4,0.1,0.7,0.1,0.8,0.2
			c0.1,0.1,0.2,0.2,0.2,0.3c-0.4,0.3-0.7,0.7-0.9,1c-0.3,0.4-0.5,0.8-0.5,1.2c0.4,0,0.8-0.2,1.1-0.5c0.2-0.2,0.6-0.6,1-1
			c0.2,0,0.3,0.2,0.5,0.7c0.1,0.4,0.1,0.7,0.1,0.9c0.7,0.3,1.1,0.7,1.1,1c0,0.3-0.3,0.6-1,1c0,0.6-0.1,1.1-0.2,1.3
			c-0.1,0.2-0.2,0.2-0.4,0.3c-0.7-0.9-1.5-1.3-2.2-1.4c0,0.3,0.2,0.8,0.5,1.2c0.1,0.2,0.5,0.5,1,1c0,0.1-0.1,0.1-0.2,0.2
			c-0.1,0.1-0.4,0.1-0.9,0.3c0.2,1.1,0.6,2.2,1.3,3.3c0.7,1.1,1.4,2.1,2.2,2.8C166.8,37.4,166.9,37.5,166.9,37.6z M160,28
			c-0.2-0.1-0.5-0.2-0.8-0.3c0,0-0.2-0.1-0.5-0.2s-0.4-0.2-0.4-0.3c0,0,0.3-0.2,1-0.3c0.1-0.1,0.4-0.2,0.7-0.3
			c-0.4-0.1-0.7-0.3-1-0.5c-0.1-0.1-0.4-0.4-0.7-0.6c-0.1,0-0.1,0.1-0.1,0.3c0,0.2,0,0.4,0,0.8c-0.6,0.3-0.9,0.6-0.9,0.7
			c0,0.1,0.1,0.2,0.3,0.3c0.2,0.1,0.4,0.2,0.7,0.3c0,0.1,0,0.4,0.1,0.7c0.1,0.4,0.1,0.6,0.2,0.6l0.7-0.7
			C159.4,28.3,159.7,28.1,160,28z M165.7,17.3c-1.8,1.2-3.2,3.4-4.3,6.5c-0.7,0-1.2,0-1.4,0.1c-0.2,0-0.3,0.1-0.3,0.2
			c0.5,0.4,0.9,0.9,1.2,1.4c0.1-0.3,0.3-0.5,0.4-0.6c0.1-0.2,0.2-0.5,0.4-0.7c0,0,0.1,0.1,0.1,0.3c0,0.2,0.1,0.3,0.1,0.3
			c0.1,0.1,0.2,0.3,0.4,0.7c0.1-0.3,0.3-0.6,0.5-0.9c0.1-0.1,0.3-0.4,0.6-0.6c0-0.1-0.1-0.1-0.3-0.2c-0.1,0-0.3,0-0.5-0.1
			c0.3-1.2,0.5-2,0.6-2.4C163.7,20.1,164.5,18.7,165.7,17.3z M166.1,37.2c-0.7-0.7-1.4-1.5-2-2.6c-0.7-1.2-1.1-2.5-1.4-3.8
			c0.5,0,0.8-0.1,0.8-0.2c-0.5-0.5-1-1-1.2-1.5c-0.1,0.2-0.2,0.4-0.3,0.7c0,0-0.1,0.2-0.2,0.4c-0.1,0.2-0.1,0.3-0.2,0.3
			c-0.2,0-0.4-0.4-0.7-1.3c-0.2,0.4-0.4,0.7-0.6,0.9c-0.2,0.2-0.4,0.4-0.6,0.6c0,0,0.1,0.1,0.3,0.1c0.1,0,0.4,0.1,0.6,0.1
			c0.2,0,0.3,0,0.4,0c0.1,0,0.3,0,0.3,0C162.4,33.6,163.9,35.8,166.1,37.2z M162.9,27.3c0-0.4-0.1-0.7-0.4-0.9
			c-0.3-0.2-0.6-0.4-0.9-0.4c-0.4,0-0.7,0.1-0.9,0.4c-0.2,0.2-0.4,0.6-0.4,0.9c0,0.3,0.1,0.6,0.4,0.9c0.3,0.2,0.6,0.4,0.9,0.4
			c0.4,0,0.7-0.1,0.9-0.4C162.8,28,162.9,27.7,162.9,27.3z M166,27.2c0-0.2-0.3-0.3-0.9-0.6c0-0.4,0-0.7-0.1-0.9
			c-0.1-0.2-0.1-0.4-0.2-0.4c-0.1,0.1-0.3,0.3-0.7,0.7c-0.3,0.3-0.6,0.4-0.9,0.6c0.1,0,0.4,0.2,1.1,0.4c0.4,0.1,0.6,0.3,0.6,0.3
			c0,0.1-0.2,0.2-0.6,0.3c-0.3,0.1-0.7,0.2-1.1,0.3c0.3,0.1,0.6,0.3,1,0.5c0.1,0.1,0.4,0.3,0.6,0.6c0.1,0,0.2-0.4,0.2-1.2
			C165.7,27.6,166,27.4,166,27.2z"/>
		<path class="st0" d="M186.4,24.1c0-0.1,0.1-0.1,0.3,0c0.4,0.4,0.7,0.9,1,1.4c0.3,0.5,0.4,1,0.5,1.6c0,0.2,0,0.3,0,0.6
			c0,0.2,0,0.5-0.1,0.7c0,0.2-0.1,0.4-0.2,0.6c-0.1,0.2-0.2,0.3-0.3,0.4c-0.8,0.5-1.7,0.8-2.5,1.1c-0.8,0.3-1.7,0.5-2.7,0.7
			c-0.9,0.2-1.8,0.3-2.7,0.4c-0.9,0.1-1.8,0.1-2.7,0c-0.5,0-1-0.2-1.4-0.3c-0.4-0.2-0.8-0.4-1.2-0.7c-0.3-0.3-0.6-0.7-0.8-1.1
			c-0.2-0.4-0.3-0.9-0.3-1.5c0-0.9,0.3-1.8,0.9-2.7c0.1-0.1,0.1-0.1,0.2,0c0.1,0.1,0.1,0.2,0.1,0.3c-0.3,0.5-0.4,1-0.4,1.5
			c0,0.5,0.1,1,0.3,1.4c0.2,0.4,0.5,0.7,0.8,0.9c0.3,0.2,0.7,0.4,1,0.5c0.4,0.1,0.8,0.2,1.2,0.2c0.4,0,0.8,0,1.2,0
			c0.8,0,1.5,0,2.2-0.1c0.7-0.1,1.4-0.2,2.1-0.3c0.7-0.1,1.4-0.3,2.1-0.5s1.4-0.5,2.1-0.8c0.2-0.1,0.3-0.2,0.3-0.4
			c-0.1-0.4-0.3-0.8-0.6-1.2c-0.3-0.4-0.6-0.7-0.9-1L186.4,24.1z M180.8,33.5l1.3,1.1c0.1,0,0.1,0.1,0,0.2l-0.9,1.1
			c0,0.1-0.1,0.1-0.2,0l-1.3-1.1c-0.1,0-0.1-0.1,0-0.2l0.9-1.1C180.7,33.5,180.7,33.5,180.8,33.5z"/>
		<path class="st0" d="M194.3,29.8c0.2,0,0.4,0.1,0.5,0.3c0.1,0.2,0.2,0.4,0.2,0.6c0,0.2,0,0.4-0.2,0.6c-0.1,0.2-0.3,0.3-0.5,0.3
			c0,0,0,0-0.1,0c0,0-0.1,0-0.1,0c-0.6,0-1.2-0.1-1.6-0.4c-0.4-0.2-0.7-0.6-1-0.9c-0.3-0.5-0.5-1-0.6-1.5c-0.1-0.5-0.2-1.1-0.2-1.6
			c-0.1-0.6-0.1-1.2-0.2-1.9c-0.1-0.6-0.1-1.2-0.2-1.9c-0.1-0.6-0.2-1.3-0.3-1.9c-0.1-0.7-0.3-1.4-0.5-2.1c0-0.1,0-0.1,0-0.1
			c0,0,0-0.1,0-0.1l0.6-1.4c0,0,0.1-0.1,0.1-0.1c0,0,0.1,0,0.1,0.1c0.1,0.4,0.2,0.8,0.3,1.2c0.1,0.4,0.2,0.9,0.2,1.3
			c0.1,0.5,0.1,1,0.2,1.6c0.1,0.6,0.1,1.2,0.2,1.9c0.1,0.5,0.1,1,0.2,1.5c0,0.5,0.1,1,0.2,1.5c0,0.4,0.1,0.8,0.2,1.2
			c0.1,0.4,0.2,0.8,0.4,1.1c0.2,0.3,0.4,0.5,0.7,0.7c0.3,0.2,0.8,0.2,1.3,0.2C194.2,29.8,194.3,29.8,194.3,29.8
			C194.3,29.8,194.3,29.8,194.3,29.8z"/>
		<path class="st1" d="M197,25.6c0.2,0.2,0.4,0.4,0.6,0.7c0.2,0.2,0.3,0.5,0.4,0.7c0.1,0.3,0.2,0.5,0.3,0.8c0.1,0.3,0.1,0.5,0.1,0.8
			c0,0.1,0,0.3,0,0.4c0,0.2,0,0.3-0.1,0.5c0,0.2-0.1,0.3-0.1,0.4c0,0.1-0.1,0.3-0.2,0.4c-0.2,0.3-0.4,0.5-0.7,0.6
			c-0.3,0.2-0.6,0.3-1,0.4c-0.4,0.1-0.7,0.1-1.1,0.2c-0.4,0-0.7,0-1,0H194c-0.2,0-0.4-0.1-0.5-0.3c-0.1-0.2-0.2-0.4-0.2-0.6
			c0-0.2,0.1-0.4,0.2-0.6c0.1-0.2,0.3-0.3,0.5-0.3h0.2c0.3,0,0.7,0,1,0c0.3,0,0.7,0,1-0.1c0.3,0,0.6-0.1,0.8-0.1
			c0.2-0.1,0.4-0.1,0.6-0.2c0.1,0,0.1-0.1,0.1-0.2c0-0.1,0-0.1,0-0.2c-0.1-0.2-0.2-0.4-0.2-0.5c-0.1-0.2-0.2-0.3-0.3-0.5
			c-0.1-0.2-0.2-0.3-0.4-0.4c-0.1-0.1-0.3-0.3-0.4-0.4l0.4-1.5c0-0.1,0.1-0.1,0.1-0.1S197,25.6,197,25.6z M198.1,23.5
			C198.1,23.5,198,23.5,198.1,23.5c-0.1,0.1-0.1,0.1-0.2,0l-1.3-1l-0.8,1.1c0,0.1-0.1,0.1-0.2,0l-1.4-1.1c0,0-0.1-0.1,0-0.1l0.9-1.2
			c0,0,0.1-0.1,0.1-0.1c0,0,0,0,0.1,0l1.3,1l0.9-1.1c0-0.1,0.1-0.1,0.1,0l1.4,1.1c0,0,0,0.1,0,0.2L198.1,23.5z"/>
		<path class="st0" d="M211.4,19.9c0,0.2,0,0.5-0.1,0.7c-0.1,0.2-0.2,0.4-0.3,0.6c-0.1,0.2-0.3,0.3-0.5,0.4
			c-0.2,0.1-0.5,0.2-0.8,0.2c-0.4,0-0.7-0.1-0.9-0.4c-0.3-0.2-0.4-0.6-0.4-0.9c0-0.2,0-0.4,0.1-0.7c0.1-0.3,0.2-0.6,0.3-0.8
			c0.1-0.3,0.3-0.5,0.5-0.7c0.2-0.2,0.5-0.3,0.7-0.3c0.3,0,0.5,0,0.7,0.2c0.2,0.1,0.3,0.3,0.4,0.5c0.1,0.2,0.2,0.4,0.2,0.7
			C211.4,19.5,211.4,19.7,211.4,19.9z M208.9,20.2c0,0.1,0,0.2,0.1,0.3c0.1,0.1,0.1,0.1,0.2,0.2c0.1,0,0.2,0.1,0.3,0.1
			c0.1,0,0.2,0,0.3,0c0.2,0,0.4,0,0.6-0.1c0.2-0.1,0.3-0.2,0.5-0.3c0-0.1,0-0.3,0-0.4c0-0.1-0.1-0.3-0.2-0.4s-0.2-0.2-0.3-0.3
			c-0.1-0.1-0.3-0.1-0.5-0.1c-0.1,0-0.2,0.1-0.3,0.2c-0.1,0.1-0.2,0.2-0.3,0.3c-0.1,0.1-0.2,0.2-0.2,0.3
			C208.9,20,208.9,20.1,208.9,20.2z"/>
		<path class="st0" d="M213.4,29.6l0.5-1.6c0-0.1,0.1-0.1,0.1-0.1c0,0,0.1,0,0.1,0.1c0.1,0.2,0.3,0.5,0.4,0.8
			c0.2,0.3,0.3,0.5,0.4,0.7c0.1,0.1,0.2,0.1,0.3,0.2c0.1,0,0.3,0.1,0.4,0.1c0.1,0,0.3,0,0.4,0c0.1,0,0.2,0,0.3,0h0.2
			c0.2,0,0.4,0.1,0.5,0.3c0.1,0.2,0.2,0.4,0.2,0.6c0,0.2-0.1,0.4-0.2,0.6c-0.1,0.2-0.3,0.3-0.5,0.3h-0.2c-0.4,0-0.7,0-1.1-0.1
			c0,0.4,0.1,0.8,0.1,1.3c0,0.5,0,0.9-0.1,1.3c-0.1,0.7-0.4,1.3-0.8,1.8c-0.4,0.5-0.9,0.9-1.5,1.3c-0.6,0.3-1.2,0.6-1.9,0.7
			c-0.7,0.2-1.3,0.2-2,0.2c-0.6,0-1.1-0.1-1.6-0.3c-0.5-0.2-0.9-0.4-1.3-0.8c-0.4-0.3-0.7-0.7-0.9-1.2c-0.2-0.5-0.3-1-0.3-1.6
			c0-0.7,0.1-1.3,0.3-2c0.2-0.6,0.5-1.2,0.9-1.8c0-0.1,0.1-0.1,0.1-0.1c0,0,0.1,0,0.1,0.1c0,0.1,0,0.1,0,0.2c-0.3,0.6-0.5,1.3-0.6,2
			c-0.1,0.7,0,1.3,0.2,1.9c0.2,0.6,0.6,1,1.1,1.4c0.5,0.4,1.2,0.5,2.1,0.5c0.5,0,1,0,1.5-0.1c0.5-0.1,1-0.2,1.4-0.4
			c0.5-0.2,0.9-0.4,1.3-0.7c0.4-0.3,0.8-0.6,1.1-1c0-0.4,0-0.8-0.1-1.2c-0.1-0.4-0.1-0.8-0.3-1.2c-0.1-0.4-0.2-0.8-0.4-1.1
			C213.8,30.3,213.6,30,213.4,29.6z M210.9,25.1l1.3,1.1c0.1,0,0.1,0.1,0,0.2l-0.9,1.1c0,0.1-0.1,0.1-0.2,0l-1.3-1.1
			c-0.1,0-0.1-0.1,0-0.2l0.9-1.1C210.8,25,210.8,25,210.9,25.1z"/>
		<path class="st0" d="M222.2,19.4c-0.4,0.2-0.7,0.3-1.1,0.5c-0.4,0.2-0.8,0.4-1.1,0.5c-0.4,0.2-0.7,0.3-1,0.5
			c-0.3,0.1-0.6,0.3-0.8,0.4c0,0-0.1,0-0.1,0c0,0,0-0.1,0-0.1l0.5-1.1c0-0.1,0.1-0.1,0.1-0.1c0,0,0.1,0,0.1-0.1l3.9-1.7
			c0.1,0,0.2,0,0.1,0.1l-0.4,1C222.4,19.3,222.3,19.4,222.2,19.4z"/>
		<path class="st0" d="M216.4,29.8c0.3,0,0.6,0,0.9,0c0.3,0,0.6-0.1,0.8-0.1c0.3-0.1,0.5-0.2,0.7-0.3c0.2-0.1,0.4-0.3,0.5-0.5
			c0.2-0.4,0.4-0.8,0.6-1.2c0.2-0.4,0.4-0.8,0.6-1.1c0.1-0.1,0.2-0.3,0.3-0.5c0.1-0.2,0.3-0.3,0.4-0.5c0.2-0.1,0.3-0.3,0.5-0.4
			c0.2-0.1,0.3-0.1,0.5-0.1c0.3,0,0.5,0.2,0.8,0.4c0.3,0.3,0.5,0.6,0.7,0.9c0.2,0.4,0.3,0.7,0.5,1.1c0.1,0.4,0.2,0.7,0.1,0.9
			c0,0.2,0,0.3-0.1,0.5c0,0.2-0.1,0.3-0.1,0.5c-0.1,0.2-0.1,0.3-0.2,0.4c-0.1,0.1-0.2,0.2-0.4,0.3c-0.3,0.1-0.6,0.1-1,0
			c-0.4-0.1-0.7-0.2-1-0.3c-0.3-0.1-0.6-0.2-0.8-0.3c-0.3-0.1-0.5-0.3-0.8-0.5c-0.3,0.8-0.7,1.4-1.3,1.8c-0.6,0.4-1.3,0.6-2.1,0.6
			h-0.2c-0.2,0-0.4-0.1-0.5-0.3c-0.1-0.2-0.2-0.4-0.2-0.6s0.1-0.4,0.2-0.6c0.1-0.2,0.3-0.3,0.5-0.3H216.4z M222.7,27.5
			c-0.1-0.2-0.3-0.3-0.4-0.5c-0.2-0.2-0.4-0.2-0.7-0.2c-0.2,0-0.4,0.1-0.6,0.3c-0.2,0.2-0.3,0.4-0.4,0.6c0.2,0.2,0.4,0.3,0.6,0.4
			c0.2,0.1,0.4,0.2,0.6,0.3c0.2,0.1,0.5,0.1,0.7,0.1c0.2,0,0.5,0,0.7,0c0,0,0-0.1,0-0.2c0-0.1-0.1-0.2-0.1-0.3
			c-0.1-0.1-0.1-0.2-0.2-0.3C222.8,27.6,222.7,27.5,222.7,27.5z"/>
		<path class="st0" d="M230.5,29.5c-0.1,0.3-0.3,0.6-0.5,0.8c-0.3,0.2-0.6,0.3-1,0.3c-0.2,0-0.4,0-0.6-0.2c-0.2-0.1-0.3-0.2-0.5-0.4
			c-0.1-0.2-0.2-0.3-0.3-0.6c-0.1-0.2-0.1-0.4-0.1-0.6c0-0.2,0-0.3,0.1-0.5c0-0.2,0.1-0.4,0.2-0.6c0.1-0.2,0.2-0.4,0.3-0.6
			c0.1-0.2,0.2-0.4,0.3-0.5c0.1-0.2,0.3-0.3,0.4-0.4c0.1-0.1,0.3-0.2,0.5-0.2c0.3,0,0.5,0.1,0.8,0.3c0.2,0.2,0.5,0.5,0.6,0.8
			c0.2,0.3,0.3,0.7,0.4,1.1c0.1,0.4,0.1,0.8,0.1,1.2c0,0.5-0.1,1.1-0.2,1.6c-0.1,0.6-0.3,1.1-0.5,1.6c-0.2,0.5-0.4,1-0.7,1.5
			c-0.3,0.5-0.6,0.9-0.9,1.2c-0.4,0.5-0.9,0.9-1.4,1.1c-0.5,0.3-1,0.4-1.6,0.5c-0.5,0.1-1.1,0.1-1.7,0c-0.6-0.1-1.2-0.2-1.8-0.4
			c-0.1,0-0.1-0.1-0.1-0.1c0,0,0-0.1,0-0.2c0-0.1,0.1-0.1,0.1-0.1c0.1,0,0.1-0.1,0.2,0c0.6,0,1.1,0,1.6,0c0.5-0.1,0.9-0.2,1.4-0.4
			c0.4-0.2,0.8-0.4,1.2-0.7c0.4-0.3,0.8-0.6,1.2-1c0.3-0.2,0.5-0.5,0.8-0.8c0.3-0.3,0.5-0.7,0.7-1c0.2-0.4,0.4-0.7,0.5-1.1
			c0.1-0.4,0.2-0.7,0.3-1c0-0.1,0-0.1,0-0.2c0-0.1,0-0.2,0-0.2c0-0.1,0-0.2-0.1-0.2C230.5,29.6,230.5,29.6,230.5,29.5z M229.1,27.7
			c-0.1,0-0.2,0-0.3,0.1c-0.1,0.1-0.2,0.2-0.2,0.3c-0.1,0.1-0.1,0.2-0.1,0.3c0,0.1,0,0.2,0,0.2c0.1,0.2,0.2,0.3,0.4,0.3
			c0.2,0.1,0.3,0.1,0.5,0.1c0.2,0,0.4-0.1,0.5-0.1c0.2-0.1,0.3-0.1,0.3-0.2c0-0.1,0-0.2-0.1-0.3c-0.1-0.1-0.2-0.2-0.3-0.3
			c-0.1-0.1-0.2-0.2-0.3-0.2C229.3,27.7,229.2,27.7,229.1,27.7z"/>
		<path d="M246.6,27c0,0.1-0.1,0.3-0.2,0.4c-0.2,0.2-0.4,0.4-0.8,0.6c0,0.4-0.1,0.7-0.2,1.1c-0.1,0.3-0.2,0.5-0.3,0.5
			c-0.4-0.4-0.7-0.7-1.1-1c-0.4-0.3-0.8-0.5-1.2-0.5c0,0.4,0.2,0.8,0.6,1.2c0.3,0.3,0.6,0.7,0.9,1c0,0.2-0.3,0.3-1,0.5
			c-0.5,0.1-0.9,0.1-1.2,0.1c-0.5,1.4-1.1,2.7-2,3.9c-0.4,0.5-0.9,1.1-1.5,1.7c-0.8,0.8-1.4,1.2-1.8,1.2c-0.1,0-0.2-0.1-0.2-0.2
			c0-0.1,0.2-0.4,0.7-0.9c0.7-0.8,1.2-1.4,1.5-2.1c0.6-1.1,1-2.3,1.2-3.7c-0.4-0.1-0.7-0.1-0.8-0.2c-0.1-0.1-0.2-0.1-0.2-0.3
			c0.9-0.8,1.4-1.5,1.4-2.2c-0.4,0-0.8,0.2-1.2,0.5c-0.2,0.2-0.6,0.6-1,1c-0.1,0-0.2-0.2-0.4-0.5c-0.1-0.4-0.2-0.7-0.2-1.1
			c-0.4-0.2-0.6-0.4-0.7-0.4c-0.3-0.2-0.4-0.4-0.4-0.6c0-0.1,0.1-0.3,0.2-0.4c0.1-0.1,0.4-0.3,0.8-0.5c0-1.1,0.2-1.6,0.6-1.6
			c0.8,0.9,1.5,1.3,2.2,1.4c0-0.3-0.2-0.8-0.5-1.2c0,0-0.3-0.4-0.9-1c0-0.1,0.1-0.2,0.2-0.2c0.2-0.1,0.4-0.1,0.9-0.2
			c-0.2-1.1-0.6-2.2-1.3-3.3c-0.6-1.1-1.4-2.1-2.2-2.8c-0.1-0.1-0.2-0.2-0.2-0.3c0-0.1,0.1-0.2,0.3-0.2c0.3,0,0.7,0.2,1.3,0.6
			c1.8,1.3,3.2,3.2,4.1,5.8c1.4,0,2.1,0.2,2.1,0.6c-0.4,0.3-0.7,0.7-0.9,1c-0.3,0.4-0.4,0.8-0.4,1.2c0.3,0,0.7-0.2,1-0.5l1.1-1
			c0.2,0,0.4,0.5,0.5,1.4c0,0.1,0,0.2,0,0.3C246.2,26.4,246.6,26.7,246.6,27z M243.4,23.7c0,0-0.1-0.1-0.4-0.1
			c-0.2,0-0.4-0.1-0.5-0.1h-0.4c-0.1,0-0.2,0-0.3,0.1c-0.4-1.2-0.9-2.4-1.7-3.5c-0.9-1.2-1.8-2.2-3-3c0.8,0.7,1.4,1.6,2,2.6
			c0.7,1.2,1.2,2.5,1.4,3.8c-0.5,0-0.8,0.1-0.8,0.2c0.6,0.5,1,1,1.3,1.5c0.1-0.2,0.2-0.5,0.3-0.7c0,0,0.1-0.1,0.1-0.3
			c0.1-0.2,0.1-0.3,0.2-0.3c0.2,0,0.4,0.5,0.7,1.4c0.2-0.3,0.3-0.7,0.6-0.9C243,24.2,243.1,24,243.4,23.7z M240,27.8
			c-0.1-0.1-0.5-0.2-1.1-0.4c-0.4-0.1-0.6-0.2-0.6-0.3c0,0,0.3-0.2,0.9-0.4c0.1-0.1,0.4-0.2,0.7-0.3c-0.3-0.1-0.7-0.3-1-0.5
			c-0.1-0.1-0.4-0.3-0.7-0.6c-0.1,0-0.2,0.4-0.2,1.2c-0.6,0.3-0.9,0.6-0.9,0.7c0,0.2,0.3,0.3,0.9,0.6c0,0.8,0.1,1.3,0.3,1.3
			c0,0,0.2-0.2,0.6-0.5C239.4,28.1,239.8,27.9,240,27.8z M243.5,30.3c-0.5-0.4-0.9-0.9-1.2-1.4c-0.1,0.2-0.2,0.4-0.3,0.7
			c0,0-0.1,0.2-0.2,0.4c-0.1,0.2-0.2,0.3-0.2,0.3c0,0-0.1-0.1-0.2-0.3c-0.1-0.2-0.1-0.3-0.2-0.3c0-0.1-0.1-0.3-0.3-0.7
			c-0.1,0.3-0.3,0.6-0.5,0.8c-0.2,0.2-0.4,0.4-0.6,0.6c0,0.1,0.3,0.1,0.8,0.3c-0.3,1.3-0.5,2.1-0.6,2.4c-0.5,1.4-1.3,2.8-2.4,4.1
			c1.9-1.3,3.3-3.4,4.3-6.5c0.7,0,1,0,0.9,0C243.2,30.5,243.5,30.4,243.5,30.3z M242.9,27c0-0.4-0.1-0.7-0.4-0.9
			c-0.2-0.2-0.6-0.3-0.9-0.3c-0.3,0-0.6,0.1-0.9,0.4c-0.3,0.2-0.4,0.5-0.4,0.9c0,0.4,0.1,0.7,0.4,0.9c0.3,0.2,0.6,0.4,0.9,0.4
			c0.4,0,0.7-0.1,0.9-0.4C242.8,27.7,242.9,27.4,242.9,27z M246,27c0-0.1-0.1-0.2-0.2-0.3c-0.2-0.1-0.4-0.2-0.7-0.3
			c0-0.4,0-0.7-0.1-0.9c-0.1-0.2-0.1-0.4-0.2-0.4c0,0-0.2,0.2-0.5,0.5c-0.3,0.3-0.7,0.6-1.1,0.7c0.2,0.1,0.4,0.2,0.8,0.4
			c0,0,0.2,0.1,0.6,0.2c0.3,0.1,0.4,0.2,0.4,0.2c0,0.1-0.2,0.2-0.6,0.3c-0.6,0.2-1,0.3-1.1,0.3c0.4,0.1,0.7,0.3,1,0.5
			c0.1,0.1,0.4,0.3,0.6,0.6c0.1,0,0.1-0.1,0.2-0.3c0-0.1,0-0.4,0-0.8C245.7,27.3,246,27.1,246,27z"/>
	</g>
	<rect class="st2" width="403.9" height="49.9"/>
</g>
</svg>
