<?xml version="1.0" encoding="utf-8"?>
<!-- Generator: Adobe Illustrator 19.2.0, SVG Export Plug-In . SVG Version: 6.00 Build 0)  -->
<svg version="1.1" id="Layer_1" xmlns="http://www.w3.org/2000/svg" xmlns:xlink="http://www.w3.org/1999/xlink" x="0px" y="0px"
	 viewBox="0 0 250.8 49.9" style="enable-background:new 0 0 250.8 49.9;" xml:space="preserve">
<style type="text/css">
	.st0{fill:#002F3D;}
	.st1{fill:none;}
</style>
<g>
	<g>
		<path class="st0" d="M62.2,37.3c0.1,0,0.1,0,0.1,0c0,0.5-0.2,0.9-0.4,1l-3.2,1.8c-0.1,0-0.1,0-0.1,0c0-0.2,0.1-0.6,0.2-0.8
			c0.1-0.1,0.2-0.2,0.5-0.4L62.2,37.3z"/>
		<path class="st0" d="M61.6,24.6c0.1,0,0.1,0.1,0,0.2c-0.2,0.2-0.8,1-1.1,1.3c-0.1,0.1-0.1,0.1-0.2,0c-0.4-0.2-1.2-0.8-1.4-1.1
			c-0.1-0.1-0.1-0.1,0-0.2c0.3-0.4,0.7-0.9,1-1.2c0.2-0.2,0.2-0.2,0.2-0.1C60.4,23.8,61,24.3,61.6,24.6z"/>
		<path class="st0" d="M67.8,34.8c0.1-0.1,0.2-0.2,0.3-0.1c0.4,0.4,0.8,0.8,1.2,1.1c0.1,0.1,0.1,0.1,0,0.2c-0.4,0.4-0.7,0.8-1.1,1.2
			c-0.1,0.1-0.1,0.1-0.2,0c-0.3-0.2-0.7-0.6-1.1-1c-0.2,0.3-0.7,0.8-0.9,0.9c-0.1,0.1-0.2,0.1-0.3,0c-0.4-0.2-0.9-0.7-1.2-1.1
			c-0.1-0.1-0.1-0.1,0-0.3c0.3-0.4,0.7-0.8,1.1-1.2c0.1-0.1,0.1-0.1,0.2,0c0.3,0.3,0.8,0.8,1.1,1C67.1,35.4,67.6,35,67.8,34.8z"/>
		<path class="st0" d="M70.9,30.6c0,0.6-0.2,0.9-0.7,0.9h-0.3c-0.3,0-0.6-0.1-1-0.3c-0.3-0.2-0.5-0.5-0.7-0.8
			c-0.2-0.3-0.3-0.8-0.4-1.5c-0.1-0.7-0.2-1-0.2-1c-0.3,0.7-0.6,1.1-0.9,1.3c-0.4,0.4-0.9,0.4-1.3,0.4c-0.1,0-0.2,0-0.3,0
			c0,0.3,0,0.5,0,0.8c0,0.3,0,0.7-0.1,1.2c-0.1,0.7-0.2,1.3-0.3,1.5c-0.1,0.4-0.3,0.7-0.5,0.9c-1.2,1.7-3.2,2.4-5.4,2.4
			c-1,0-1.7-0.2-2.3-0.7c-0.9-0.7-1.3-1.7-1.3-2.9c0-0.8,0.4-2,1-2.9c0.2-0.3,0.4-0.5,0.5-0.5c0.1,0,0.1,0,0.1,0.1
			c0,0.1-0.1,0.3-0.2,0.5c-0.3,0.6-0.7,1.4-0.7,2.1c0,1.2,1.4,2.3,3.2,2.3c1.9,0,4.5-0.8,5-2.1c0-0.1,0-0.2,0-0.3c0-1-0.3-2.3-0.8-3
			c-0.2-0.2-0.4-0.4-0.4-0.5c0,0-0.1-0.1-0.1-0.1c0-0.4,0.4-1.6,0.5-1.7c0.1-0.1,0.1-0.1,0.1,0c0.5,0.6,0.9,1,1.5,1
			c0.2,0,0.4,0,0.7-0.1c0.3-0.1,0.6-0.3,0.8-0.5c0.4-0.5,0.5-0.8,0.7-1.2c0.1-0.1,0.1-0.2,0.2-0.2c0.1,0,0.2,0.1,0.2,0.4
			c0.1,0.2,0.1,0.6,0.3,1.2c0.1,0.6,0.3,1.1,0.6,1.5c0.3,0.4,0.6,0.6,0.9,0.6h0.3C70.7,29.7,70.9,30,70.9,30.6z"/>
		<path class="st0" d="M73.7,28.6c0,0.5,0.5,1,1.1,1.1c0.2,0,0.3,0,0.4,0h0.1c0.7,0,0.7,0.5,0.7,0.8c0,0.2,0,1-0.7,1h-0.1
			c-0.1,0-0.2,0-0.5,0c-1.2-0.1-1.6-1.2-1.7-1.3c-0.2,0.5-1.2,1.3-2.9,1.3H70c-0.5,0-0.8-0.4-0.8-0.9s0.2-0.9,0.8-0.9h0.5
			c0.8,0,1.9-0.1,2.6-1.3c0.2-0.4,0.3-0.4,0.4-0.4C73.6,28,73.7,28.2,73.7,28.6z M73.5,23.2c0.1-0.1,0.2-0.2,0.3-0.1
			c0.4,0.4,0.8,0.8,1.2,1.1c0.1,0.1,0.1,0.1,0,0.2c-0.4,0.4-0.7,0.8-1.1,1.2c-0.1,0.1-0.1,0.1-0.2,0c-0.3-0.2-0.7-0.6-1.1-1
			c-0.2,0.3-0.7,0.8-0.9,0.9c-0.1,0.1-0.2,0.1-0.3,0c-0.4-0.2-0.9-0.7-1.2-1.1c-0.1-0.1-0.1-0.1,0-0.3c0.3-0.4,0.7-0.8,1.1-1.2
			c0.1-0.1,0.1-0.1,0.2,0c0.3,0.3,0.8,0.8,1.1,1C72.9,23.9,73.3,23.4,73.5,23.2z"/>
		<path class="st0" d="M79.9,22.6c0.1,0,0.1,0,0.1,0c0,0.5-0.2,0.9-0.4,1l-3.2,1.8c-0.1,0-0.1,0-0.1,0c0-0.2,0.1-0.6,0.2-0.8
			c0.1-0.1,0.2-0.2,0.5-0.4L79.9,22.6z"/>
		<path class="st0" d="M84.4,32.7c0.1,0,0.1,0,0.1,0c0,0.5-0.2,0.9-0.4,1l-3.2,1.8c-0.1,0-0.1,0-0.1,0c0-0.2,0.1-0.6,0.2-0.8
			c0.1-0.1,0.2-0.2,0.5-0.4L84.4,32.7z"/>
		<path class="st0" d="M88.1,16.2c0.1,0,0.1,0,0.1,0c0,0.5-0.2,0.9-0.4,1l-3.2,1.8c-0.1,0-0.1,0-0.1,0c0-0.2,0.1-0.6,0.2-0.8
			c0.1-0.1,0.2-0.2,0.5-0.4L88.1,16.2z"/>
		<path class="st0" d="M83.9,31.2c-0.4-0.3-0.8-0.7-1-1.3c-0.1-0.2-0.1-0.6-0.2-1.1c-0.1-0.9-0.2-1.7-0.3-2.5
			c-0.4,1.1-0.8,1.9-1.3,2.2c0.2,0.3,0.2,0.7,0.2,1.1c0,0.3-0.1,0.7-0.4,1.2c-0.3,0.5-0.6,0.7-0.9,0.7c-0.4,0-0.8-0.1-1.3-0.4
			c-0.5-0.2-0.9-0.6-1.2-1c-0.6,1.1-1.3,1.4-2.3,1.4h-0.2c-0.5,0-0.7-0.3-0.7-0.9c0-0.6,0.2-0.9,0.7-0.9h0.2c0.8,0,1.4-0.1,1.8-0.3
			c0.4-0.2,0.7-0.5,0.9-0.9c0.3-0.5,0.6-0.8,0.8-1c0,0,0.1-0.1,0.1-0.1c0.8-0.1,1.7-0.5,2.4-1.1c0.6-0.5,0.9-1.1,1-1.7L82,20.2
			c0,0,0-0.1,0-0.2c0.2-0.5,0.6-1.5,0.8-1.5c0.2,0,0.2,0.6,0.2,0.7c0,0.5,0.1,1.2,0.2,2c0,0.5,0.1,1.6,0.2,2.8l0.2-0.7
			c0.1-0.4,0.4-0.8,0.9-1.2c0.8-0.6,1.9-1.4,3.4-2.2c1.5-0.8,2.6-1.4,3.4-1.8c0.2-0.1,0.3-0.1,0.3,0c0,0.2-0.2,0.7-0.7,1.5
			c-0.1,0.1-0.1,0.1-0.2,0.2c-0.8,0.3-1.9,0.9-3.3,1.8c-1.5,0.9-2.5,1.6-3.2,2.1c2.9,1.1,4.3,2.6,4.3,4.3c0,0.9-0.2,1.7-0.6,2.3
			c-0.3,0.5-1.1,1.1-2.6,1.1C84.6,31.5,84.2,31.4,83.9,31.2z M78.5,28.8c0.2,0.2,0.4,0.4,0.8,0.6c0.4,0.2,0.7,0.3,0.9,0.3
			c-0.1-0.4-0.2-0.7-0.3-0.9c-0.2-0.2-0.4-0.4-0.7-0.4C78.8,28.5,78.6,28.6,78.5,28.8z M84.9,29.6c0.1,0,0.2,0,0.4,0
			c0.4,0,0.8-0.1,1.2-0.2c0.4-0.1,0.8-0.3,1-0.5c0,0,0,0,0-0.1c0-0.4-0.3-0.9-1-1.4c-0.7-0.6-1.6-1.1-2.8-1.7
			c-0.1-0.1-0.3-0.2-0.4-0.3c0.1,1.2,0.2,2.4,0.5,3.1C83.9,28.7,84.1,29.4,84.9,29.6z"/>
		<path class="st0" d="M100.3,37.3c0.1-0.1,0.2-0.2,0.3-0.1c0.4,0.4,0.8,0.8,1.2,1.1c0.1,0.1,0.1,0.1,0,0.2
			c-0.4,0.4-0.7,0.8-1.1,1.2c-0.1,0.1-0.1,0.1-0.2,0c-0.3-0.2-0.7-0.6-1.1-1c-0.2,0.3-0.7,0.8-0.9,0.9c-0.1,0.1-0.2,0.1-0.3,0
			c-0.4-0.2-0.9-0.7-1.2-1.1c-0.1-0.1-0.1-0.1,0-0.3c0.3-0.4,0.7-0.8,1.1-1.2c0.1-0.1,0.1-0.1,0.2,0c0.3,0.3,0.8,0.8,1.1,1
			C99.7,38,100.1,37.5,100.3,37.3z"/>
		<path class="st0" d="M104.7,19.3c0.1,0,0.1,0.1,0,0.2c-0.2,0.2-0.8,1-1.1,1.3c-0.1,0.1-0.1,0.1-0.2,0c-0.4-0.2-1.2-0.8-1.4-1.1
			c-0.1-0.1-0.1-0.1,0-0.2c0.3-0.4,0.7-0.9,1-1.2c0.2-0.2,0.2-0.2,0.2-0.1C103.6,18.5,104.2,19,104.7,19.3z"/>
		<path class="st0" d="M97.6,33.5c0.6,0.2,1.1,0.3,1.6,0.3c0.6,0,1.1-0.1,1.7-0.2c1.9-0.5,4-1.5,4.3-2c-0.5-0.5-2.1-1.1-3.4-1.2
			c-0.3,0-0.4-0.1-0.4-0.3c0-0.2,0.2-0.7,0.4-1c0.1-0.1,0.1-0.1,0.2-0.1c2.5-0.5,2.7-1.4,2.7-1.5c0-0.6-0.1-0.7-0.2-1.2
			c-0.3,0.4-0.8,0.8-1.4,0.8c-0.7,0-1.4-0.5-1.4-1.3c0-1.3,1.1-3.5,1.7-3.5c0.6,0,1.2,0.5,1.7,1.5c0.3,0.7,0.5,1.8,0.5,2.4
			c0,1.2-0.5,2.4-1.2,3.3c0.5,0.1,0.8,0.3,1.1,0.5c0.7,0.4,0.7,0.8,0.7,1.2c0,0.7-0.5,1.5-1.3,2.2c-1.6,1.3-4.2,2.3-6,2.3
			c-0.5,0-1.1-0.1-1.6-0.2c-1.3-0.4-2.5-1.4-2.5-3.5c0-1.3,0.5-3,1.2-4c0.2-0.3,0.4-0.5,0.5-0.5c0.2,0,0,0.3-0.1,0.6
			c-0.5,1-0.8,1.9-0.8,2.7C95.4,32.3,96.4,33.2,97.6,33.5z M103,24c-0.2,0-0.4,0.2-0.5,0.5c0,0.1-0.1,0.1-0.1,0.2
			c0,0.3,0.4,0.5,0.8,0.5c0.4,0,0.8-0.2,0.8-0.4C103.8,24.3,103.3,24,103,24z"/>
		<path class="st0" d="M115.5,15.2c0,0.4-0.1,0.8-0.2,1.2c0.2,0.1,0.3,0.2,0.3,0.3c0,0.3-0.1,0.6-0.3,0.8c0,0.1-0.1,0.1-0.1,0.1
			l-0.4-0.2c-0.4,0.6-1,1.4-1.9,1.8c-0.3,0.2-0.7,0.3-1.2,0.3c-0.2,0-0.3,0-0.3-0.1c0-0.1,0.2-0.2,0.4-0.3c0.7-0.4,2-1.4,2.4-2
			c-0.4-0.2-0.8-0.6-0.8-1.1c0-0.3,0.2-0.7,0.5-1c0.3-0.4,0.7-0.6,1-0.6C115.4,14.3,115.5,14.8,115.5,15.2z M114.1,15.6
			C114.1,15.6,114.1,15.6,114.1,15.6c0,0.2,0.3,0.4,0.6,0.5c0.1-0.1,0.1-0.3,0.1-0.5c0-0.2-0.1-0.3-0.3-0.3
			C114.4,15.2,114.2,15.4,114.1,15.6z"/>
		<path class="st0" d="M115.1,20.9c0.1-0.1,0.2-0.2,0.3-0.1c0.4,0.4,0.8,0.8,1.2,1.1c0.1,0.1,0.1,0.1,0,0.2
			c-0.4,0.4-0.7,0.8-1.1,1.2c-0.1,0.1-0.1,0.1-0.2,0c-0.3-0.2-0.7-0.6-1.1-1c-0.2,0.3-0.7,0.8-0.9,0.9c-0.1,0.1-0.2,0.1-0.3,0
			c-0.4-0.2-0.9-0.7-1.2-1.1c-0.1-0.1-0.1-0.1,0-0.3c0.3-0.4,0.7-0.8,1.1-1.2c0.1-0.1,0.1-0.1,0.2,0c0.3,0.3,0.8,0.8,1.1,1
			C114.5,21.5,114.9,21.1,115.1,20.9z M114.2,25.4c0.3,0,0.7,0.2,1.1,0.5c0.6,0.5,1.1,1.3,1.1,2.3c0,0.5-0.1,1.1-0.3,1.6
			c-0.4,1.1-1.3,1.7-2.4,1.7c-1.1,0-1.8-0.8-1.8-1.8C111.9,28.3,113.5,25.4,114.2,25.4z M115.6,28.9c-0.3-0.6-1-1.4-1.7-1.4
			c0,0-0.1,0-0.2,0.1c-0.6,0.4-0.9,1-0.9,1.4c0,0.4,0.6,0.8,1.2,0.8c0.4,0,1.3-0.2,1.6-0.6c0,0,0-0.1,0-0.1
			C115.6,29,115.6,28.9,115.6,28.9z"/>
		<path class="st0" d="M122.1,19.4c0.1,0,0.1,0,0.1,0c0,0.5-0.2,0.9-0.4,1l-3.2,1.8c-0.1,0-0.1,0-0.1,0c0-0.2,0.1-0.6,0.2-0.8
			c0.1-0.1,0.2-0.2,0.5-0.4L122.1,19.4z"/>
		<path class="st0" d="M123.5,28.3c0,0.7-0.1,1.4-0.2,1.6c-0.3,1.2-1.6,1.6-3.9,1.6c-0.5,0-0.8-0.1-0.9-0.2
			c-0.2-0.2-0.2-0.5-0.2-0.9c0-0.3,0-0.5,0.1-0.7c0.1-0.3,0.1-0.4,0.2-0.4c0.1,0,0.1,0.1,0.2,0.1c0.2,0.2,0.7,0.2,1.3,0.2
			c1,0,2.1-0.2,2.6-0.5c0.1,0,0.1-0.1,0.1-0.1c0,0,0-0.1,0-0.1c-0.3-1.1-1.7-3.1-2.8-3.1c-0.2,0-0.3,0.2-0.4,0.2c0,0-0.1,0-0.1-0.1
			c0-0.4,0.3-1.4,0.6-1.7c0.1-0.1,0.2-0.1,0.4-0.1c0.3,0,0.6,0.1,0.8,0.2c0.5,0.2,1.2,0.9,1.7,1.9C123.3,26.9,123.5,27.6,123.5,28.3
			z"/>
		<path class="st0" d="M128.8,20.8c-0.6,0-0.9-0.6-0.9-1.2c0-0.2,0-0.4,0.1-0.6c0-0.2,0.2-0.6,0.4-0.6c0.1,0,0.2,0.2,0.2,0.5V19
			c0,0.3,0.2,0.4,0.5,0.4h0c0.4,0,0.6-0.3,0.7-0.8c0-0.2,0.2-0.8,0.5-0.8c0.1,0,0.2,0.1,0.2,0.4c0,0.2,0.1,0.3,0.3,0.3
			c0.4,0,0.6-0.3,0.7-0.7c0.1-0.5,0.2-0.7,0.3-0.7c0.2,0,0.2,0.5,0.2,0.8c0,0.2,0,0.5-0.1,0.8c-0.2,0.5-0.5,0.9-1.2,0.9
			c-0.2,0-0.3-0.1-0.4-0.1c-0.1,0-0.1,0-0.2,0.1C129.7,20.4,129.4,20.8,128.8,20.8z M131.8,15.4C131.9,15.3,131.9,15.4,131.8,15.4
			c0,0.4-0.1,0.7-0.3,1c-0.1,0.1-0.2,0.2-0.4,0.2L128,18c0,0-0.1,0-0.1,0c0-0.1,0.1-0.4,0.2-0.6c0.1-0.3,0.2-0.3,0.2-0.4
			c0.1-0.1,0.1-0.1,0.3-0.2L131.8,15.4z"/>
		<path class="st0" d="M133.3,29.7h0.3c0.5,0,0.8,0.3,0.8,0.9c0,0.6-0.3,0.9-0.8,0.9h-0.2c-0.6,0-1.1-0.2-1.4-0.5
			c-0.4-0.3-0.6-0.8-0.9-1.5c-0.3,1.2-1.8,2.1-3.6,2.1c-0.5,0-1.1-0.1-1.7-0.4c-0.3-0.2-0.5-0.5-0.5-0.8c0-0.4,0.1-1,0.3-1.5
			c0.1-0.2,0.2-0.3,0.3-0.3s0.2,0.1,0.2,0.3c0.2,0.6,0.9,0.8,1.8,0.8c1.7,0,2.5-0.4,2.8-1c0-0.2,0-0.3,0-0.5c0-1-0.3-2.3-0.6-3.5
			c0-0.2,0-0.3,0-0.4c0-0.1,0-0.3,0.4-1.1c0.1-0.3,0.2-0.5,0.3-0.5c0.1,0,0.1,0.1,0.2,0.5c0.6,2.6,0.6,4.4,0.9,5.5
			c0.1,0.3,0.2,0.5,0.4,0.7C132.6,29.5,132.9,29.7,133.3,29.7z"/>
		<path class="st0" d="M141.2,15.2c0.1,0,0.1,0,0.1,0c0,0.5-0.2,0.9-0.4,1l-3.2,1.8c-0.1,0-0.1,0-0.1,0c0-0.2,0.1-0.6,0.2-0.8
			c0.1-0.1,0.2-0.2,0.5-0.4L141.2,15.2z"/>
		<path class="st0" d="M140.2,27.9c0.1,0,0.1,0.1,0.1,0.4c0,0.1,0,0.2,0,0.4c0,0.6,0.4,0.9,0.9,0.9c0.8,0,1.2-0.8,1.5-1.4
			c0-0.1,0.1-0.3,0.3-0.3c0.1,0,0.2,0.1,0.2,0.5c0.1,0.8,0.5,1.3,1.2,1.4h0.2c0.6,0,0.8,0.3,0.8,0.8c0,0.7-0.3,1-0.8,1h-0.2
			c-1,0-1.5-0.5-1.7-1.5c-0.3,0.7-0.9,1.5-1.8,1.5c-0.8,0-1.3-0.7-1.3-1.5c-0.3,0.9-1.2,1.5-2.1,1.5c-1,0-1.6-0.3-1.8-1.2
			c-0.1,0.3-0.3,0.6-0.6,0.9c-0.3,0.2-0.8,0.4-1.7,0.4h-0.2c-0.5,0-0.8-0.3-0.8-0.9c0-0.6,0.3-0.9,0.8-0.9h0.2
			c1.2,0,2.1-0.4,2.5-1.3c0-0.1,0.1-0.3,0.2-0.3c0.1,0,0.2,0.1,0.2,0.4c0,0.7,0.6,1,1.4,1c1,0,1.7-0.4,2.2-1.4
			C140,28.1,140.1,27.9,140.2,27.9z M140.8,23.5c0.1-0.1,0.2-0.2,0.3-0.1c0.4,0.4,0.8,0.8,1.2,1.1c0.1,0.1,0.1,0.1,0,0.2
			c-0.4,0.4-0.7,0.8-1.1,1.2c-0.1,0.1-0.1,0.1-0.2,0c-0.3-0.2-0.7-0.6-1.1-1c-0.2,0.3-0.7,0.8-0.9,0.9c-0.1,0.1-0.2,0.1-0.3,0
			c-0.4-0.2-0.9-0.7-1.2-1.1c-0.1-0.1-0.1-0.1,0-0.3c0.3-0.4,0.7-0.8,1.1-1.2c0.1-0.1,0.1-0.1,0.2,0c0.3,0.3,0.8,0.8,1.1,1
			C140.2,24.2,140.6,23.7,140.8,23.5z M141.1,21c0.1,0,0.1,0.1,0,0.2c-0.2,0.2-0.8,1-1.1,1.3c-0.1,0.1-0.1,0.1-0.2,0
			c-0.4-0.2-1.2-0.8-1.4-1.1c-0.1-0.1-0.1-0.1,0-0.2c0.3-0.4,0.7-0.9,1-1.2c0.2-0.2,0.2-0.2,0.2-0.1C140,20.1,140.6,20.6,141.1,21z"
			/>
		<path class="st0" d="M150.1,21.6c0,0.4-0.1,0.8-0.2,1.2c0.2,0.1,0.3,0.2,0.3,0.3c0,0.3-0.1,0.6-0.3,0.8c0,0.1-0.1,0.1-0.1,0.1
			l-0.4-0.2c-0.4,0.6-1,1.4-1.9,1.8c-0.3,0.2-0.7,0.3-1.2,0.3c-0.2,0-0.3,0-0.3-0.1c0-0.1,0.2-0.2,0.4-0.3c0.7-0.4,2-1.4,2.4-2
			c-0.4-0.2-0.8-0.6-0.8-1.1c0-0.3,0.2-0.7,0.5-1c0.3-0.4,0.7-0.6,1-0.6C149.9,20.6,150.1,21.1,150.1,21.6z M148.7,21.9
			C148.6,21.9,148.6,22,148.7,21.9c0,0.2,0.3,0.4,0.6,0.5c0.1-0.1,0.1-0.3,0.1-0.5c0-0.2-0.1-0.3-0.3-0.3
			C149,21.6,148.8,21.7,148.7,21.9z"/>
		<path class="st0" d="M153.8,14.4c0.5,0,1.3,0.8,1.3,1.6c0,0.3-0.1,0.6-0.2,0.9c-0.2,0.6-0.7,1-1.4,1c-0.6,0-1.1-0.5-1.1-1
			C152.5,16.1,153.4,14.4,153.8,14.4z M153.6,15.6c-0.2,0-0.6,0.5-0.6,0.8c0,0.2,0.3,0.4,0.6,0.4c0.4,0,0.9-0.2,0.9-0.4
			C154.5,16.3,154,15.6,153.6,15.6z"/>
		<path class="st0" d="M155.2,27.6c0,1.3-0.3,2.4-0.8,3.2c-0.4,0.5-1.2,0.8-1.8,0.8c-0.6,0-1.2-0.2-1.7-0.6c-0.1,0.5-0.6,1-0.9,1.2
			c-0.1,0-0.1,0-0.2,0c-0.9-0.2-2.6-0.8-3.3-1.7c-0.4,0.8-1,1.1-1.9,1.1h-0.3c-0.5,0-0.7-0.3-0.7-0.9c0-0.6,0.2-0.9,0.7-0.9h0.2
			c1.6,0,2.5-0.9,3.2-1.7c0.4-0.5,0.7-0.8,1.1-0.8c0.2,0,0.4,0.1,0.6,0.3c0.7,0.8,2,2.2,3.2,2.2c0.4,0,1.3-0.1,1.6-0.5v0
			c0-1.4-0.6-4.8-0.8-7.5c-0.1-0.3-0.2-0.8-0.2-1.2c0-0.1,0-0.1,0-0.2c0,0,0-0.1,0-0.1c0-0.1,0.1-0.4,0.3-0.7
			c0.2-0.4,0.5-0.8,0.6-0.8c0.1,0,0.1,0.1,0.1,0.2c0.2,0.8,0.5,1.1,0.7,1.4c0,0.1,0.1,0.1,0.1,0.2c0,0,0,0.1,0,0.2
			c-0.1,0.2-0.3,0.7-0.4,0.9C154.7,24.2,155.2,26.3,155.2,27.6z M148.3,28.7c-0.2,0-0.4,0.2-0.5,0.3c-0.1,0.1-0.1,0.2,0,0.4
			c0.3,0.2,1.4,0.7,1.7,0.8c0.2,0.1,0.3,0.1,0.3,0.1c0.2,0,0.1-0.2,0-0.3C149.6,29.6,148.9,28.7,148.3,28.7z"/>
		<path class="st0" d="M158.2,31.5c-0.1,0-0.1-0.1-0.1-0.5c0-2.4-0.9-8.9-0.9-10c0-0.5,0.4-1.4,0.7-1.9c0.1-0.2,0.3-0.4,0.4-0.4
			c0.1,0,0.1,0.2,0.1,0.6c0.1,1.7,0.6,5.7,0.6,8.6c0,1.2-0.1,2.1-0.3,2.7C158.5,31.2,158.4,31.5,158.2,31.5z"/>
		<path class="st0" d="M171.5,14.8c0,0.4-0.1,0.8-0.2,1.2c0.2,0.1,0.3,0.2,0.3,0.3c0,0.3-0.1,0.6-0.3,0.8c0,0.1-0.1,0.1-0.1,0.1
			l-0.4-0.2c-0.4,0.6-1,1.4-1.9,1.8c-0.3,0.2-0.7,0.3-1.2,0.3c-0.2,0-0.3,0-0.3-0.1c0-0.1,0.2-0.2,0.4-0.3c0.7-0.4,2-1.4,2.4-2
			c-0.4-0.2-0.8-0.6-0.8-1.1c0-0.3,0.2-0.7,0.5-1c0.3-0.4,0.7-0.6,1-0.6C171.3,13.8,171.5,14.4,171.5,14.8z M170.1,15.2
			C170.1,15.2,170.1,15.2,170.1,15.2c0,0.2,0.3,0.4,0.6,0.5c0.1-0.1,0.1-0.3,0.1-0.5c0-0.2-0.1-0.3-0.3-0.3
			C170.4,14.8,170.2,14.9,170.1,15.2z"/>
		<path class="st0" d="M166.5,32.1c-0.7-0.7-1.1-1.6-1.1-2.7c0-1.2,0.7-2.5,1.1-3.1c0.2-0.2,0.3-0.3,0.4-0.3c0.1,0,0.1,0.1,0.1,0.1
			c0,0.1-0.1,0.3-0.1,0.4c-0.3,0.7-0.7,1.4-0.7,2.2c0,0.7,0.5,1.3,1.1,1.7c0.6,0.4,1.3,0.6,2.1,0.6c1.9,0,4.5-0.8,5-2.1
			c0-0.1,0-0.2,0-0.3c0-0.8-0.3-1.8-0.7-2.5c-0.2-0.3-0.3-0.5-0.4-0.7c0,0,0-0.1,0-0.1c0-0.2,0.1-0.4,0.1-0.6
			c0.1-0.3,0.2-0.6,0.3-0.8c0.1-0.1,0.1-0.2,0.2-0.2c0,0,0.1,0,0.2,0.2c0.6,1.2,1,2.3,1,3.7c0,1.1-0.1,1.8-0.3,2.1
			c-0.3,0.7-0.5,1-0.9,1.4c-0.4,0.4-1.1,0.9-2,1.3c-0.9,0.4-1.9,0.6-3.2,0.6C168,32.9,167.2,32.7,166.5,32.1z M171.7,21.2
			c0.1,0,0.1,0.1,0,0.2c-0.2,0.2-0.8,1-1.1,1.3c-0.1,0.1-0.1,0.1-0.2,0c-0.4-0.2-1.2-0.8-1.4-1.1c-0.1-0.1-0.1-0.1,0-0.2
			c0.3-0.4,0.7-0.9,1-1.2c0.2-0.2,0.2-0.2,0.2-0.1C170.5,20.3,171.1,20.8,171.7,21.2z"/>
		<path class="st0" d="M174.4,36.2c-0.3-0.1-0.3-0.2-0.3-0.3c0-0.1,0.1-0.1,0.3-0.1c0.2,0,0.9,0.1,1.4,0.1c0.5,0,0.9-0.1,1.6-0.5
			c1.9-1,3.1-2.3,3.1-3.3c0-0.1,0-0.3-0.1-0.5h-0.6c-0.4,0-1.2-0.1-1.7-0.4c-0.5-0.3-0.8-0.7-0.8-1.2c0-0.5,0.2-1.1,0.5-1.7
			c0.4-1,1-1.7,1.5-1.7c0.6,0,1.1,0.4,1.4,0.9c0.4,0.6,0.5,1.4,0.6,2.2h0.8c0.5,0,0.7,0.3,0.7,0.8c0,0.6-0.2,1-0.7,1l-0.8,0
			c-0.1,2.8-1,4.5-3.3,5.4c-0.1,0-0.3,0.1-0.5,0.1C176.7,37,175.4,36.7,174.4,36.2z M179.3,28.6c-0.1-0.1-0.2-0.2-0.4-0.2
			c-0.4,0-0.6,0.4-0.6,0.6c0,0.2,0.2,0.4,0.6,0.5c0.3,0.1,0.7,0.2,0.9,0.2c0.1,0,0.2,0,0.2-0.1C179.9,29.5,179.6,28.9,179.3,28.6z"
			/>
		<path class="st0" d="M183,21.8c0,0-0.1,0-0.1,0c-0.2,0-0.5-0.1-0.6-0.3c-0.2-0.3-0.3-0.6-0.3-1c0-0.2,0-0.4,0.1-0.6
			c0.1-0.2,0.2-0.5,0.4-0.5c0.1,0,0.1,0.1,0.1,0.3c0,0.1,0,0.2,0,0.3c0,0.3,0.2,0.5,0.5,0.5h0c0.3,0,0.6-0.2,0.7-0.7
			c0.1-0.2,0.2-0.8,0.5-0.8c0.1,0,0.2,0.1,0.2,0.3v0.1c0,0.2,0.1,0.3,0.3,0.3c0,0,0.1,0,0.1,0c0.3-0.1,0.5-0.3,0.6-0.6
			c0.1-0.4,0.2-0.6,0.3-0.6c0.1,0,0.1,0.1,0.2,0.2c0,0.1,0,0.3,0,0.4c0,0.3-0.1,0.6-0.2,0.9c-0.2,0.5-0.5,0.8-1.1,0.8
			c-0.2,0-0.3-0.1-0.4-0.1c-0.1,0-0.1,0-0.1,0C183.8,21.4,183.4,21.7,183,21.8z M185.5,15.3c0,0.1,0,0.2,0,0.2c0,0.3-0.1,0.7-0.2,1
			c0.1,0.1,0.2,0.2,0.2,0.3c0,0.2-0.1,0.5-0.3,0.7l-0.4-0.2c-0.4,0.6-0.8,1.1-1,1.2c-0.3,0.2-0.7,0.3-1.3,0.3
			c-0.3,0-0.4-0.1-0.3-0.1c1.1-0.6,1.8-1.2,2.1-1.7c-0.3-0.2-0.7-0.5-0.7-0.9c0-0.2,0.1-0.5,0.4-0.9c0.3-0.4,0.5-0.5,0.8-0.5
			C185.3,14.7,185.5,15.1,185.5,15.3z M184.4,15.9c0.1,0.1,0.2,0.3,0.5,0.4c0.1-0.1,0.1-0.3,0.1-0.4c0-0.2-0.1-0.3-0.3-0.3
			C184.6,15.6,184.5,15.7,184.4,15.9z"/>
		<path class="st0" d="M185.5,28.6c0,0.5,0.5,1,1.1,1.1c0.2,0,0.3,0,0.4,0h0.1c0.7,0,0.7,0.5,0.7,0.8c0,0.2,0,1-0.7,1H187
			c-0.1,0-0.2,0-0.5,0c-1.2-0.1-1.6-1.2-1.7-1.3c-0.2,0.5-1.2,1.3-2.9,1.3h-0.1c-0.5,0-0.8-0.4-0.8-0.9s0.2-0.9,0.8-0.9h0.5
			c0.8,0,1.9-0.1,2.6-1.3c0.2-0.4,0.3-0.4,0.4-0.4C185.5,28,185.5,28.2,185.5,28.6z M186.2,24c0.1,0,0.1,0.1,0,0.2
			c-0.2,0.2-0.8,1-1.1,1.3c-0.1,0.1-0.1,0.1-0.2,0c-0.4-0.2-1.2-0.8-1.4-1.1c-0.1-0.1-0.1-0.1,0-0.2c0.3-0.4,0.7-0.9,1-1.2
			c0.2-0.2,0.2-0.2,0.2-0.1C185.1,23.1,185.7,23.7,186.2,24z"/>
		<path class="st0" d="M189,30.7c-0.4,0.5-0.9,0.8-1.8,0.8H187c-0.5,0-0.8-0.3-0.8-1c0-0.6,0.3-0.8,0.8-0.8h0.2
			c0.4,0,0.8-0.1,1.1-0.2c0.3-0.1,0.5-0.2,0.5-0.3c0-1.4-0.5-4.2-0.7-7c0-0.3-0.2-1.3-0.3-1.7c0-0.1,0-0.1,0-0.2
			c0-0.2,0.3-0.7,0.4-1c0.2-0.4,0.4-0.7,0.6-0.7c0.1,0,0.1,0.1,0.1,0.2c0.2,0.8,0.5,1.2,0.6,1.4c0,0.1,0.1,0.2,0.1,0.2
			c0,0,0,0.1,0,0.1c-0.1,0.2-0.3,0.6-0.4,0.8c0.1,2.7,0.6,4.9,0.6,6.1C189.7,28.8,189.5,29.9,189,30.7z"/>
		<path class="st0" d="M193.4,31.5c-0.1,0-0.1-0.1-0.1-0.5c0-2.4-0.9-8.9-0.9-10c0-0.5,0.4-1.4,0.7-1.9c0.1-0.2,0.3-0.4,0.4-0.4
			c0.1,0,0.1,0.2,0.1,0.6c0.1,1.7,0.6,5.7,0.6,8.6c0,1.2-0.1,2.1-0.3,2.7C193.6,31.2,193.5,31.5,193.4,31.5z"/>
	</g>
	<rect class="st1" width="250.8" height="49.9"/>
</g>
</svg>
