<?xml version="1.0" encoding="utf-8"?>
<!-- Generator: Adobe Illustrator 19.2.0, SVG Export Plug-In . SVG Version: 6.00 Build 0)  -->
<svg version="1.1" id="Layer_1" xmlns="http://www.w3.org/2000/svg" xmlns:xlink="http://www.w3.org/1999/xlink" x="0px" y="0px"
	 viewBox="0 0 250.8 49.9" style="enable-background:new 0 0 250.8 49.9;" xml:space="preserve">
<style type="text/css">
	.st0{fill:#002F3D;}
	.st1{fill:none;}
</style>
<g>
	<g>
		<path class="st0" d="M67.4,37.3c0.1,0,0.1,0,0.1,0c0,0.5-0.2,0.9-0.4,1l-3.2,1.8c-0.1,0-0.1,0-0.1,0c0-0.2,0.1-0.6,0.2-0.8
			c0.1-0.1,0.2-0.2,0.5-0.4L67.4,37.3z"/>
		<path class="st0" d="M66.7,24.6c0.1,0,0.1,0.1,0,0.2c-0.2,0.2-0.8,1-1.1,1.3c-0.1,0.1-0.1,0.1-0.2,0C65,25.9,64.2,25.3,64,25
			c-0.1-0.1-0.1-0.1,0-0.2c0.3-0.4,0.7-0.9,1-1.2c0.2-0.2,0.2-0.2,0.2-0.1C65.6,23.8,66.2,24.3,66.7,24.6z"/>
		<path class="st0" d="M72.9,34.8c0.1-0.1,0.2-0.2,0.3-0.1c0.4,0.4,0.8,0.8,1.2,1.1c0.1,0.1,0.1,0.1,0,0.2c-0.4,0.4-0.7,0.8-1.1,1.2
			c-0.1,0.1-0.1,0.1-0.2,0c-0.3-0.2-0.7-0.6-1.1-1c-0.2,0.3-0.7,0.8-0.9,0.9c-0.1,0.1-0.2,0.1-0.3,0c-0.4-0.2-0.9-0.7-1.2-1.1
			c-0.1-0.1-0.1-0.1,0-0.3c0.3-0.4,0.7-0.8,1.1-1.2c0.1-0.1,0.1-0.1,0.2,0c0.3,0.3,0.8,0.8,1.1,1C72.3,35.4,72.7,35,72.9,34.8z"/>
		<path class="st0" d="M76,30.6c0,0.6-0.2,0.9-0.7,0.9h-0.3c-0.3,0-0.6-0.1-1-0.3c-0.3-0.2-0.5-0.5-0.7-0.8
			c-0.2-0.3-0.3-0.8-0.4-1.5c-0.1-0.7-0.2-1-0.2-1c-0.3,0.7-0.6,1.1-0.9,1.3c-0.4,0.4-0.9,0.4-1.3,0.4c-0.1,0-0.2,0-0.3,0
			c0,0.3,0,0.5,0,0.8c0,0.3,0,0.7-0.1,1.2c-0.1,0.7-0.2,1.3-0.3,1.5c-0.1,0.4-0.3,0.7-0.5,0.9c-1.2,1.7-3.2,2.4-5.4,2.4
			c-1,0-1.7-0.2-2.3-0.7c-0.9-0.7-1.3-1.7-1.3-2.9c0-0.8,0.4-2,1-2.9c0.2-0.3,0.4-0.5,0.5-0.5c0.1,0,0.1,0,0.1,0.1
			c0,0.1-0.1,0.3-0.2,0.5c-0.3,0.6-0.7,1.4-0.7,2.1c0,1.2,1.4,2.3,3.2,2.3c1.9,0,4.5-0.8,5-2.1c0-0.1,0-0.2,0-0.3c0-1-0.3-2.3-0.8-3
			c-0.2-0.2-0.4-0.4-0.4-0.5c0,0-0.1-0.1-0.1-0.1c0-0.4,0.4-1.6,0.5-1.7c0.1-0.1,0.1-0.1,0.1,0c0.5,0.6,0.9,1,1.5,1
			c0.2,0,0.4,0,0.7-0.1c0.3-0.1,0.6-0.3,0.8-0.5c0.4-0.5,0.5-0.8,0.7-1.2C73,26.1,73,26,73.1,26c0.1,0,0.2,0.1,0.2,0.4
			c0.1,0.2,0.1,0.6,0.3,1.2c0.1,0.6,0.3,1.1,0.6,1.5c0.3,0.4,0.6,0.6,0.9,0.6h0.3C75.8,29.7,76,30,76,30.6z"/>
		<path class="st0" d="M78.8,28.6c0,0.5,0.5,1,1.1,1.1c0.2,0,0.3,0,0.4,0h0.1c0.7,0,0.7,0.5,0.7,0.8c0,0.2,0,1-0.7,1h-0.1
			c-0.1,0-0.2,0-0.5,0c-1.2-0.1-1.6-1.2-1.7-1.3c-0.2,0.5-1.2,1.3-2.9,1.3h-0.1c-0.5,0-0.8-0.4-0.8-0.9s0.2-0.9,0.8-0.9h0.5
			c0.8,0,1.9-0.1,2.6-1.3c0.2-0.4,0.3-0.4,0.4-0.4C78.8,28,78.8,28.2,78.8,28.6z M78.7,23.2c0.1-0.1,0.2-0.2,0.3-0.1
			c0.4,0.4,0.8,0.8,1.2,1.1c0.1,0.1,0.1,0.1,0,0.2c-0.4,0.4-0.7,0.8-1.1,1.2c-0.1,0.1-0.1,0.1-0.2,0c-0.3-0.2-0.7-0.6-1.1-1
			c-0.2,0.3-0.7,0.8-0.9,0.9c-0.1,0.1-0.2,0.1-0.3,0c-0.4-0.2-0.9-0.7-1.2-1.1c-0.1-0.1-0.1-0.1,0-0.3c0.3-0.4,0.7-0.8,1.1-1.2
			c0.1-0.1,0.1-0.1,0.2,0c0.3,0.3,0.8,0.8,1.1,1C78,23.9,78.5,23.4,78.7,23.2z"/>
		<path class="st0" d="M85.1,22.6c0.1,0,0.1,0,0.1,0c0,0.5-0.2,0.9-0.4,1l-3.2,1.8c-0.1,0-0.1,0-0.1,0c0-0.2,0.1-0.6,0.2-0.8
			c0.1-0.1,0.2-0.2,0.5-0.4L85.1,22.6z"/>
		<path class="st0" d="M89.5,32.7c0.1,0,0.1,0,0.1,0c0,0.5-0.2,0.9-0.4,1L86,35.6c-0.1,0-0.1,0-0.1,0c0-0.2,0.1-0.6,0.2-0.8
			c0.1-0.1,0.2-0.2,0.5-0.4L89.5,32.7z"/>
		<path class="st0" d="M93.2,16.2c0.1,0,0.1,0,0.1,0c0,0.5-0.2,0.9-0.4,1l-3.2,1.8c-0.1,0-0.1,0-0.1,0c0-0.2,0.1-0.6,0.2-0.8
			c0.1-0.1,0.2-0.2,0.5-0.4L93.2,16.2z"/>
		<path class="st0" d="M89.1,31.2c-0.4-0.3-0.8-0.7-1-1.3c-0.1-0.2-0.1-0.6-0.2-1.1c-0.1-0.9-0.2-1.7-0.3-2.5
			c-0.4,1.1-0.8,1.9-1.3,2.2c0.2,0.3,0.2,0.7,0.2,1.1c0,0.3-0.1,0.7-0.4,1.2c-0.3,0.5-0.6,0.7-0.9,0.7c-0.4,0-0.8-0.1-1.3-0.4
			c-0.5-0.2-0.9-0.6-1.2-1c-0.6,1.1-1.3,1.4-2.3,1.4h-0.2c-0.5,0-0.7-0.3-0.7-0.9c0-0.6,0.2-0.9,0.7-0.9h0.2c0.8,0,1.4-0.1,1.8-0.3
			c0.4-0.2,0.7-0.5,0.9-0.9c0.3-0.5,0.6-0.8,0.8-1c0,0,0.1-0.1,0.1-0.1c0.8-0.1,1.7-0.5,2.4-1.1c0.6-0.5,0.9-1.1,1-1.7l-0.3-4.5
			c0,0,0-0.1,0-0.2c0.2-0.5,0.6-1.5,0.8-1.5c0.2,0,0.2,0.6,0.2,0.7c0,0.5,0.1,1.2,0.2,2c0,0.5,0.1,1.6,0.2,2.8l0.2-0.7
			c0.1-0.4,0.4-0.8,0.9-1.2c0.8-0.6,1.9-1.4,3.4-2.2c1.5-0.8,2.6-1.4,3.4-1.8c0.2-0.1,0.3-0.1,0.3,0c0,0.2-0.2,0.7-0.7,1.5
			c-0.1,0.1-0.1,0.1-0.2,0.2c-0.8,0.3-1.9,0.9-3.3,1.8c-1.5,0.9-2.5,1.6-3.2,2.1c2.9,1.1,4.3,2.6,4.3,4.3c0,0.9-0.2,1.7-0.6,2.3
			c-0.3,0.5-1.1,1.1-2.6,1.1C89.8,31.5,89.4,31.4,89.1,31.2z M83.7,28.8c0.2,0.2,0.4,0.4,0.8,0.6c0.4,0.2,0.7,0.3,0.9,0.3
			c-0.1-0.4-0.2-0.7-0.3-0.9c-0.2-0.2-0.4-0.4-0.7-0.4C84,28.5,83.7,28.6,83.7,28.8z M90,29.6c0.1,0,0.2,0,0.4,0
			c0.4,0,0.8-0.1,1.2-0.2c0.4-0.1,0.8-0.3,1-0.5c0,0,0,0,0-0.1c0-0.4-0.3-0.9-1-1.4c-0.7-0.6-1.6-1.1-2.8-1.7
			c-0.1-0.1-0.3-0.2-0.4-0.3c0.1,1.2,0.2,2.4,0.5,3.1C89,28.7,89.3,29.4,90,29.6z"/>
		<path class="st0" d="M105.4,37.3c0.1-0.1,0.2-0.2,0.3-0.1c0.4,0.4,0.8,0.8,1.2,1.1c0.1,0.1,0.1,0.1,0,0.2
			c-0.4,0.4-0.7,0.8-1.1,1.2c-0.1,0.1-0.1,0.1-0.2,0c-0.3-0.2-0.7-0.6-1.1-1c-0.2,0.3-0.7,0.8-0.9,0.9c-0.1,0.1-0.2,0.1-0.3,0
			c-0.4-0.2-0.9-0.7-1.2-1.1c-0.1-0.1-0.1-0.1,0-0.3c0.3-0.4,0.7-0.8,1.1-1.2c0.1-0.1,0.1-0.1,0.2,0c0.3,0.3,0.8,0.8,1.1,1
			C104.8,38,105.2,37.5,105.4,37.3z"/>
		<path class="st0" d="M109.9,19.3c0.1,0,0.1,0.1,0,0.2c-0.2,0.2-0.8,1-1.1,1.3c-0.1,0.1-0.1,0.1-0.2,0c-0.4-0.2-1.2-0.8-1.4-1.1
			c-0.1-0.1-0.1-0.1,0-0.2c0.3-0.4,0.7-0.9,1-1.2c0.2-0.2,0.2-0.2,0.2-0.1C108.7,18.5,109.3,19,109.9,19.3z"/>
		<path class="st0" d="M102.7,33.5c0.6,0.2,1.1,0.3,1.6,0.3c0.6,0,1.1-0.1,1.7-0.2c1.9-0.5,4-1.5,4.3-2c-0.5-0.5-2.1-1.1-3.4-1.2
			c-0.3,0-0.4-0.1-0.4-0.3c0-0.2,0.2-0.7,0.4-1c0.1-0.1,0.1-0.1,0.2-0.1c2.5-0.5,2.7-1.4,2.7-1.5c0-0.6-0.1-0.7-0.2-1.2
			c-0.3,0.4-0.8,0.8-1.4,0.8c-0.7,0-1.4-0.5-1.4-1.3c0-1.3,1.1-3.5,1.7-3.5c0.6,0,1.2,0.5,1.7,1.5c0.3,0.7,0.5,1.8,0.5,2.4
			c0,1.2-0.5,2.4-1.2,3.3c0.5,0.1,0.8,0.3,1.1,0.5c0.7,0.4,0.7,0.8,0.7,1.2c0,0.7-0.5,1.5-1.3,2.2c-1.6,1.3-4.2,2.3-6,2.3
			c-0.5,0-1.1-0.1-1.6-0.2c-1.3-0.4-2.5-1.4-2.5-3.5c0-1.3,0.5-3,1.2-4c0.2-0.3,0.4-0.5,0.5-0.5c0.2,0,0,0.3-0.1,0.6
			c-0.5,1-0.8,1.9-0.8,2.7C100.6,32.3,101.5,33.2,102.7,33.5z M108.2,24c-0.2,0-0.4,0.2-0.5,0.5c0,0.1-0.1,0.1-0.1,0.2
			c0,0.3,0.4,0.5,0.8,0.5c0.4,0,0.8-0.2,0.8-0.4C109,24.3,108.5,24,108.2,24z"/>
		<path class="st0" d="M120.7,15.2c0,0.4-0.1,0.8-0.2,1.2c0.2,0.1,0.3,0.2,0.3,0.3c0,0.3-0.1,0.6-0.3,0.8c0,0.1-0.1,0.1-0.1,0.1
			l-0.4-0.2c-0.4,0.6-1,1.4-1.9,1.8c-0.3,0.2-0.7,0.3-1.2,0.3c-0.2,0-0.3,0-0.3-0.1c0-0.1,0.2-0.2,0.4-0.3c0.7-0.4,2-1.4,2.4-2
			c-0.4-0.2-0.8-0.6-0.8-1.1c0-0.3,0.2-0.7,0.5-1c0.3-0.4,0.7-0.6,1-0.6C120.5,14.3,120.6,14.8,120.7,15.2z M119.3,15.6
			C119.2,15.6,119.2,15.6,119.3,15.6c0,0.2,0.3,0.4,0.6,0.5c0.1-0.1,0.1-0.3,0.1-0.5c0-0.2-0.1-0.3-0.3-0.3
			C119.6,15.2,119.4,15.4,119.3,15.6z"/>
		<path class="st0" d="M120.2,20.9c0.1-0.1,0.2-0.2,0.3-0.1c0.4,0.4,0.8,0.8,1.2,1.1c0.1,0.1,0.1,0.1,0,0.2
			c-0.4,0.4-0.7,0.8-1.1,1.2c-0.1,0.1-0.1,0.1-0.2,0c-0.3-0.2-0.7-0.6-1.1-1c-0.2,0.3-0.7,0.8-0.9,0.9c-0.1,0.1-0.2,0.1-0.3,0
			c-0.4-0.2-0.9-0.7-1.2-1.1c-0.1-0.1-0.1-0.1,0-0.3c0.3-0.4,0.7-0.8,1.1-1.2c0.1-0.1,0.1-0.1,0.2,0c0.3,0.3,0.8,0.8,1.1,1
			C119.6,21.5,120,21.1,120.2,20.9z M119.3,25.4c0.3,0,0.7,0.2,1.1,0.5c0.6,0.5,1.1,1.3,1.1,2.3c0,0.5-0.1,1.1-0.3,1.6
			c-0.4,1.1-1.3,1.7-2.4,1.7c-1.1,0-1.8-0.8-1.8-1.8C117,28.3,118.6,25.4,119.3,25.4z M120.7,28.9c-0.3-0.6-1-1.4-1.7-1.4
			c0,0-0.1,0-0.2,0.1c-0.6,0.4-0.9,1-0.9,1.4c0,0.4,0.6,0.8,1.2,0.8c0.4,0,1.3-0.2,1.6-0.6c0,0,0-0.1,0-0.1
			C120.7,29,120.7,28.9,120.7,28.9z"/>
		<path class="st0" d="M127.2,19.4c0.1,0,0.1,0,0.1,0c0,0.5-0.2,0.9-0.4,1l-3.2,1.8c-0.1,0-0.1,0-0.1,0c0-0.2,0.1-0.6,0.2-0.8
			c0.1-0.1,0.2-0.2,0.5-0.4L127.2,19.4z"/>
		<path class="st0" d="M128.7,28.3c0,0.7-0.1,1.4-0.2,1.6c-0.3,1.2-1.6,1.6-3.9,1.6c-0.5,0-0.8-0.1-0.9-0.2
			c-0.2-0.2-0.2-0.5-0.2-0.9c0-0.3,0-0.5,0.1-0.7c0.1-0.3,0.1-0.4,0.2-0.4c0.1,0,0.1,0.1,0.2,0.1c0.2,0.2,0.7,0.2,1.3,0.2
			c1,0,2.1-0.2,2.6-0.5c0.1,0,0.1-0.1,0.1-0.1c0,0,0-0.1,0-0.1c-0.3-1.1-1.7-3.1-2.8-3.1c-0.2,0-0.3,0.2-0.4,0.2c0,0-0.1,0-0.1-0.1
			c0-0.4,0.3-1.4,0.6-1.7c0.1-0.1,0.2-0.1,0.4-0.1c0.3,0,0.6,0.1,0.8,0.2c0.5,0.2,1.2,0.9,1.7,1.9C128.4,26.9,128.7,27.6,128.7,28.3
			z"/>
		<path class="st0" d="M133.9,20.8c-0.6,0-0.9-0.6-0.9-1.2c0-0.2,0-0.4,0.1-0.6c0-0.2,0.2-0.6,0.4-0.6c0.1,0,0.2,0.2,0.2,0.5V19
			c0,0.3,0.2,0.4,0.5,0.4h0c0.4,0,0.6-0.3,0.7-0.8c0-0.2,0.2-0.8,0.5-0.8c0.1,0,0.2,0.1,0.2,0.4c0,0.2,0.1,0.3,0.3,0.3
			c0.4,0,0.6-0.3,0.7-0.7c0.1-0.5,0.2-0.7,0.3-0.7c0.2,0,0.2,0.5,0.2,0.8c0,0.2,0,0.5-0.1,0.8c-0.2,0.5-0.5,0.9-1.2,0.9
			c-0.2,0-0.3-0.1-0.4-0.1c-0.1,0-0.1,0-0.2,0.1C134.9,20.4,134.5,20.8,133.9,20.8z M137,15.4C137.1,15.3,137,15.4,137,15.4
			c0,0.4-0.1,0.7-0.3,1c-0.1,0.1-0.2,0.2-0.4,0.2l-3.1,1.5c0,0-0.1,0-0.1,0c0-0.1,0.1-0.4,0.2-0.6c0.1-0.3,0.2-0.3,0.2-0.4
			c0.1-0.1,0.1-0.1,0.3-0.2L137,15.4z"/>
		<path class="st0" d="M138.4,29.7h0.3c0.5,0,0.8,0.3,0.8,0.9c0,0.6-0.3,0.9-0.8,0.9h-0.2c-0.6,0-1.1-0.2-1.4-0.5
			c-0.4-0.3-0.6-0.8-0.9-1.5c-0.3,1.2-1.8,2.1-3.6,2.1c-0.5,0-1.1-0.1-1.7-0.4c-0.3-0.2-0.5-0.5-0.5-0.8c0-0.4,0.1-1,0.3-1.5
			c0.1-0.2,0.2-0.3,0.3-0.3c0.1,0,0.2,0.1,0.2,0.3c0.2,0.6,0.9,0.8,1.8,0.8c1.7,0,2.5-0.4,2.8-1c0-0.2,0-0.3,0-0.5
			c0-1-0.3-2.3-0.6-3.5c0-0.2,0-0.3,0-0.4c0-0.1,0-0.3,0.4-1.1c0.1-0.3,0.2-0.5,0.3-0.5c0.1,0,0.1,0.1,0.2,0.5
			c0.6,2.6,0.6,4.4,0.9,5.5c0.1,0.3,0.2,0.5,0.4,0.7C137.7,29.5,138.1,29.7,138.4,29.7z"/>
		<path class="st0" d="M146.4,15.2c0.1,0,0.1,0,0.1,0c0,0.5-0.2,0.9-0.4,1l-3.2,1.8c-0.1,0-0.1,0-0.1,0c0-0.2,0.1-0.6,0.2-0.8
			c0.1-0.1,0.2-0.2,0.5-0.4L146.4,15.2z"/>
		<path class="st0" d="M145.3,27.9c0.1,0,0.1,0.1,0.1,0.4c0,0.1,0,0.2,0,0.4c0,0.6,0.4,0.9,0.9,0.9c0.8,0,1.2-0.8,1.5-1.4
			c0-0.1,0.1-0.3,0.3-0.3c0.1,0,0.2,0.1,0.2,0.5c0.1,0.8,0.5,1.3,1.2,1.4h0.2c0.6,0,0.8,0.3,0.8,0.8c0,0.7-0.3,1-0.8,1h-0.2
			c-1,0-1.5-0.5-1.7-1.5c-0.3,0.7-0.9,1.5-1.8,1.5c-0.8,0-1.3-0.7-1.3-1.5c-0.3,0.9-1.2,1.5-2.1,1.5c-1,0-1.6-0.3-1.8-1.2
			c-0.1,0.3-0.3,0.6-0.6,0.9c-0.3,0.2-0.8,0.4-1.7,0.4h-0.2c-0.5,0-0.8-0.3-0.8-0.9c0-0.6,0.3-0.9,0.8-0.9h0.2
			c1.2,0,2.1-0.4,2.5-1.3c0-0.1,0.1-0.3,0.2-0.3c0.1,0,0.2,0.1,0.2,0.4c0,0.7,0.6,1,1.4,1c1,0,1.7-0.4,2.2-1.4
			C145.1,28.1,145.2,27.9,145.3,27.9z M146,23.5c0.1-0.1,0.2-0.2,0.3-0.1c0.4,0.4,0.8,0.8,1.2,1.1c0.1,0.1,0.1,0.1,0,0.2
			c-0.4,0.4-0.7,0.8-1.1,1.2c-0.1,0.1-0.1,0.1-0.2,0c-0.3-0.2-0.7-0.6-1.1-1c-0.2,0.3-0.7,0.8-0.9,0.9c-0.1,0.1-0.2,0.1-0.3,0
			c-0.4-0.2-0.9-0.7-1.2-1.1c-0.1-0.1-0.1-0.1,0-0.3c0.3-0.4,0.7-0.8,1.1-1.2c0.1-0.1,0.1-0.1,0.2,0c0.3,0.3,0.8,0.8,1.1,1
			C145.3,24.2,145.8,23.7,146,23.5z M146.2,21c0.1,0,0.1,0.1,0,0.2c-0.2,0.2-0.8,1-1.1,1.3c-0.1,0.1-0.1,0.1-0.2,0
			c-0.4-0.2-1.2-0.8-1.4-1.1c-0.1-0.1-0.1-0.1,0-0.2c0.3-0.4,0.7-0.9,1-1.2c0.2-0.2,0.2-0.2,0.2-0.1C145.1,20.1,145.7,20.6,146.2,21
			z"/>
		<path class="st0" d="M155.2,21.6c0,0.4-0.1,0.8-0.2,1.2c0.2,0.1,0.3,0.2,0.3,0.3c0,0.3-0.1,0.6-0.3,0.8c0,0.1-0.1,0.1-0.1,0.1
			l-0.4-0.2c-0.4,0.6-1,1.4-1.9,1.8c-0.3,0.2-0.7,0.3-1.2,0.3c-0.2,0-0.3,0-0.3-0.1c0-0.1,0.2-0.2,0.4-0.3c0.7-0.4,2-1.4,2.4-2
			c-0.4-0.2-0.8-0.6-0.8-1.1c0-0.3,0.2-0.7,0.5-1c0.3-0.4,0.7-0.6,1-0.6C155.1,20.6,155.2,21.1,155.2,21.6z M153.8,21.9
			C153.8,21.9,153.8,22,153.8,21.9c0,0.2,0.3,0.4,0.6,0.5c0.1-0.1,0.1-0.3,0.1-0.5c0-0.2-0.1-0.3-0.3-0.3
			C154.1,21.6,153.9,21.7,153.8,21.9z"/>
		<path class="st0" d="M158.9,14.4c0.5,0,1.3,0.8,1.3,1.6c0,0.3-0.1,0.6-0.2,0.9c-0.2,0.6-0.7,1-1.4,1c-0.6,0-1.1-0.5-1.1-1
			C157.6,16.1,158.5,14.4,158.9,14.4z M158.7,15.6c-0.2,0-0.6,0.5-0.6,0.8c0,0.2,0.3,0.4,0.6,0.4c0.4,0,0.9-0.2,0.9-0.4
			C159.7,16.3,159.2,15.6,158.7,15.6z"/>
		<path class="st0" d="M160.3,27.6c0,1.3-0.3,2.4-0.8,3.2c-0.4,0.5-1.2,0.8-1.8,0.8c-0.6,0-1.2-0.2-1.7-0.6c-0.1,0.5-0.6,1-0.9,1.2
			c-0.1,0-0.1,0-0.2,0c-0.9-0.2-2.6-0.8-3.3-1.7c-0.4,0.8-1,1.1-1.9,1.1h-0.3c-0.5,0-0.7-0.3-0.7-0.9c0-0.6,0.2-0.9,0.7-0.9h0.2
			c1.6,0,2.5-0.9,3.2-1.7c0.4-0.5,0.7-0.8,1.1-0.8c0.2,0,0.4,0.1,0.6,0.3c0.7,0.8,2,2.2,3.2,2.2c0.4,0,1.3-0.1,1.6-0.5v0
			c0-1.4-0.6-4.8-0.8-7.5c-0.1-0.3-0.2-0.8-0.2-1.2c0-0.1,0-0.1,0-0.2c0,0,0-0.1,0-0.1c0-0.1,0.1-0.4,0.3-0.7
			c0.2-0.4,0.5-0.8,0.6-0.8c0.1,0,0.1,0.1,0.1,0.2c0.2,0.8,0.5,1.1,0.7,1.4c0,0.1,0.1,0.1,0.1,0.2c0,0,0,0.1,0,0.2
			c-0.1,0.2-0.3,0.7-0.4,0.9C159.9,24.2,160.3,26.3,160.3,27.6z M153.5,28.7c-0.2,0-0.4,0.2-0.5,0.3c-0.1,0.1-0.1,0.2,0,0.4
			c0.3,0.2,1.4,0.7,1.7,0.8c0.2,0.1,0.3,0.1,0.3,0.1c0.2,0,0.1-0.2,0-0.3C154.7,29.6,154,28.7,153.5,28.7z"/>
		<path class="st0" d="M163.4,31.5c-0.1,0-0.1-0.1-0.1-0.5c0-2.4-0.9-8.9-0.9-10c0-0.5,0.4-1.4,0.7-1.9c0.1-0.2,0.3-0.4,0.4-0.4
			c0.1,0,0.1,0.2,0.1,0.6c0.1,1.7,0.6,5.7,0.6,8.6c0,1.2-0.1,2.1-0.3,2.7C163.6,31.2,163.5,31.5,163.4,31.5z"/>
		<path class="st0" d="M173.7,24.3c0,0.4-0.1,0.8-0.2,1.2c0.2,0.1,0.3,0.2,0.3,0.3c0,0.3-0.1,0.6-0.3,0.8c0,0.1-0.1,0.1-0.1,0.1
			l-0.4-0.2c-0.4,0.6-1,1.4-1.9,1.8c-0.3,0.2-0.7,0.3-1.2,0.3c-0.2,0-0.3,0-0.3-0.1c0-0.1,0.2-0.2,0.4-0.3c0.7-0.4,2-1.4,2.4-2
			c-0.4-0.2-0.8-0.6-0.8-1.1c0-0.3,0.2-0.7,0.5-1c0.3-0.4,0.7-0.6,1-0.6C173.6,23.3,173.7,23.8,173.7,24.3z M172.3,24.6
			C172.3,24.6,172.3,24.6,172.3,24.6c0,0.2,0.3,0.4,0.6,0.5c0.1-0.1,0.1-0.3,0.1-0.5c0-0.2-0.1-0.3-0.3-0.3
			C172.6,24.3,172.4,24.4,172.3,24.6z"/>
		<path class="st0" d="M178.5,35c0.1-0.1,0.2-0.2,0.3-0.1c0.4,0.4,0.8,0.8,1.2,1.1c0.1,0.1,0.1,0.1,0,0.2c-0.4,0.4-0.7,0.8-1.1,1.2
			c-0.1,0.1-0.1,0.1-0.2,0c-0.3-0.2-0.7-0.6-1.1-1c-0.2,0.3-0.7,0.8-0.9,0.9c-0.1,0.1-0.2,0.1-0.3,0c-0.4-0.2-0.9-0.7-1.2-1.1
			c-0.1-0.1-0.1-0.1,0-0.3c0.3-0.4,0.7-0.8,1.1-1.2c0.1-0.1,0.1-0.1,0.2,0c0.3,0.3,0.8,0.8,1.1,1C177.9,35.7,178.3,35.2,178.5,35z"
			/>
		<path class="st0" d="M176.2,32.5c0,0.1,0,0.2-0.1,0.4c-0.3,0.6-0.5,1.1-0.7,1.3c-0.1,0.1-0.1,0.1-0.2,0c-0.4-0.2-0.9-0.3-1.7-0.3
			c-1.4,0-2.2,0.2-2.4,0.7c0.2,1,0.3,1.6,0.4,2l0.3,1.7c0.1,0.9,0.2,1.7,0.3,2.4c0,0.7-0.1,1.5-0.3,2.2c-0.1,0.3-0.2,0.4-0.3,0.4
			c-0.1,0-0.1-0.1-0.1-0.4c0-0.2,0-0.5,0-0.9c0-0.7-0.1-1.6-0.5-3.6c-0.3-1.5-0.4-2.3-0.5-2.7c0-0.8,0.2-1.5,0.5-2.2
			c0.4-0.7,0.8-1.2,1.5-1.5l0.5-1.2c0.4-0.9,1-1.6,1.7-2c0.7-0.4,1.6-0.8,2.4-0.8c0.2,0,0.5,0.1,0.6,0.2c0.2,0.1,0.5,0.4,0.8,0.8
			c0.3,0.4,0.6,0.7,1,0.7h0.3c0.5,0,0.7,0.3,0.7,0.8c0,0.7-0.2,1-0.7,1h-0.3c-0.6,0-1.1-0.3-1.5-0.8c-0.4-0.4-0.7-0.7-0.9-0.8
			c-0.1-0.1-0.3-0.1-0.7-0.1c-0.8,0-1.6,0.3-2.3,0.9c0.7,0.3,1.2,0.6,1.7,1C175.9,32,176.2,32.3,176.2,32.5z"/>
		<path class="st0" d="M181.6,14.3c0.5,0,1.3,0.8,1.3,1.6c0,0.3-0.1,0.6-0.2,0.9c-0.2,0.6-0.7,1-1.4,1c-0.6,0-1.1-0.5-1.1-1
			C180.3,16,181.2,14.3,181.6,14.3z M181.5,15.5c-0.2,0-0.6,0.5-0.6,0.8c0,0.2,0.3,0.4,0.6,0.4c0.4,0,0.9-0.2,0.9-0.4
			C182.4,16.2,181.9,15.5,181.5,15.5z"/>
		<path class="st0" d="M182.8,27.8c0.1,0.4,0.3,0.7,0.6,0.9c0.2,0.2,0.5,0.3,0.8,0.5c0.3,0.1,0.5,0.2,0.6,0.3
			c0.2,0.1,0.2,0.6,0.2,0.9c0,0.3-0.1,0.8-0.3,1.1c-0.1,0.1-0.1,0.1-0.2,0c-1-0.5-1.8-0.9-2.3-0.9c-0.4,0-0.7,0.1-1.2,0.4
			c-0.5,0.3-1,0.5-1.6,0.5h-0.2c-0.5,0-0.7-0.3-0.7-0.9c0-0.6,0.2-0.9,0.7-0.9h0.2c0.7,0,1.5-0.2,2.4-0.6c0-0.2-0.1-0.6-0.2-1.2
			c-0.1-0.7-0.3-3.2-0.6-6.3c-0.1-0.3-0.2-0.8-0.2-1.1c0-0.1,0-0.1,0-0.2c0,0,0-0.1,0-0.1c0-0.1,0.1-0.3,0.3-0.7s0.5-0.8,0.6-0.8
			c0.1,0,0.1,0.1,0.1,0.2c0.2,0.7,0.4,1.1,0.6,1.4c0,0.1,0.1,0.1,0.1,0.2c0,0,0,0.1,0,0.2c-0.1,0.2-0.3,0.7-0.5,0.9
			C182.5,25.2,182.7,27.4,182.8,27.8z"/>
		<path class="st0" d="M188.2,31.5c-0.1,0-0.1-0.1-0.1-0.5c0-2.4-0.9-8.9-0.9-10c0-0.5,0.4-1.4,0.7-1.9c0.1-0.2,0.3-0.4,0.4-0.4
			c0.1,0,0.1,0.2,0.1,0.6c0.1,1.7,0.6,5.7,0.6,8.6c0,1.2-0.1,2.1-0.3,2.7C188.5,31.2,188.4,31.5,188.2,31.5z"/>
	</g>
	<rect class="st1" width="250.8" height="49.9"/>
</g>
</svg>
