<?xml version="1.0" encoding="utf-8"?>
<!-- Generator: Adobe Illustrator 19.2.0, SVG Export Plug-In . SVG Version: 6.00 Build 0)  -->
<svg version="1.1" id="Layer_1" xmlns="http://www.w3.org/2000/svg" xmlns:xlink="http://www.w3.org/1999/xlink" x="0px" y="0px"
	 viewBox="0 0 250.9 49.9" style="enable-background:new 0 0 250.9 49.9;" xml:space="preserve">
<style type="text/css">
	.st0{fill:#002F3D;}
	.st1{fill:none;}
</style>
<g>
	<g>
		<path class="st0" d="M67.7,25.6c0.1,0,0.1,0.1,0,0.2c-0.2,0.2-0.8,1-1.1,1.3c-0.1,0.1-0.1,0.1-0.2,0c-0.4-0.2-1.2-0.8-1.4-1.1
			c-0.1-0.1-0.1-0.1,0-0.2c0.3-0.4,0.7-0.9,1-1.2c0.2-0.2,0.2-0.2,0.2-0.1C66.6,24.8,67.2,25.3,67.7,25.6z"/>
		<path class="st0" d="M73.9,35.8c0.1-0.1,0.2-0.2,0.3-0.1c0.4,0.4,0.8,0.8,1.2,1.1c0.1,0.1,0.1,0.1,0,0.2c-0.4,0.4-0.7,0.8-1.1,1.2
			c-0.1,0.1-0.1,0.1-0.2,0c-0.3-0.2-0.7-0.6-1.1-1c-0.2,0.3-0.7,0.8-0.9,0.9c-0.1,0.1-0.2,0.1-0.3,0c-0.4-0.2-0.9-0.7-1.2-1.1
			c-0.1-0.1-0.1-0.1,0-0.3c0.3-0.4,0.7-0.8,1.1-1.2c0.1-0.1,0.1-0.1,0.2,0c0.3,0.3,0.8,0.8,1.1,1C73.3,36.4,73.7,36,73.9,35.8z"/>
		<path class="st0" d="M77.1,31.6c0,0.6-0.2,0.9-0.7,0.9h-0.3c-0.3,0-0.6-0.1-1-0.3c-0.3-0.2-0.5-0.5-0.7-0.8
			c-0.2-0.3-0.3-0.8-0.4-1.5c-0.1-0.7-0.2-1-0.2-1c-0.3,0.7-0.6,1.1-0.9,1.3c-0.4,0.4-0.9,0.4-1.3,0.4c-0.1,0-0.2,0-0.3,0
			c0,0.3,0,0.5,0,0.8c0,0.3,0,0.7-0.1,1.2c-0.1,0.7-0.2,1.3-0.3,1.5c-0.1,0.4-0.3,0.7-0.5,0.9c-1.2,1.7-3.2,2.4-5.4,2.4
			c-1,0-1.7-0.2-2.3-0.7c-0.9-0.7-1.3-1.7-1.3-2.9c0-0.8,0.4-2,1-2.9c0.2-0.3,0.4-0.5,0.5-0.5c0.1,0,0.1,0,0.1,0.1
			c0,0.1-0.1,0.3-0.2,0.5c-0.3,0.6-0.7,1.4-0.7,2.1c0,1.2,1.4,2.3,3.2,2.3c1.9,0,4.5-0.8,5-2.1c0-0.1,0-0.2,0-0.3c0-1-0.3-2.3-0.8-3
			c-0.2-0.2-0.4-0.4-0.4-0.5c0,0-0.1-0.1-0.1-0.1c0-0.4,0.4-1.6,0.5-1.7c0.1-0.1,0.1-0.1,0.1,0c0.5,0.6,0.9,1,1.5,1
			c0.2,0,0.4,0,0.7-0.1c0.3-0.1,0.6-0.3,0.8-0.5c0.4-0.5,0.5-0.8,0.7-1.2c0.1-0.1,0.1-0.2,0.2-0.2c0.1,0,0.2,0.1,0.2,0.4
			c0.1,0.2,0.1,0.6,0.3,1.2c0.1,0.6,0.3,1.1,0.6,1.5c0.3,0.4,0.6,0.6,0.9,0.6h0.3C76.8,30.7,77.1,31,77.1,31.6z"/>
		<path class="st0" d="M81.1,19.1c-0.3,0-0.5-0.1-0.7-0.3c-0.2-0.2-0.3-0.6-0.3-0.9c0-0.3,0-0.5,0.2-0.8c0.1-0.3,0.3-0.6,0.5-0.6
			c0.1,0,0.1,0.1,0.1,0.2c0,0.2-0.1,0.3-0.1,0.5c0,0.4,0.3,0.5,0.6,0.5c0.3,0,0.5-0.3,0.7-0.7c0.2-0.6,0.5-0.8,0.7-0.8
			c0.1,0,0.1,0.1,0.1,0.2c0,0.1,0,0.2,0,0.3c0,0.2,0.1,0.4,0.4,0.4c0.3,0,0.5-0.2,0.7-0.6c0.2-0.4,0.3-0.6,0.4-0.6
			c0.1,0,0.1,0.2,0.1,0.4c0,0.5-0.1,0.9-0.4,1.3c-0.2,0.3-0.5,0.7-1.1,0.7c-0.3,0-0.5-0.1-0.6-0.2c-0.1-0.1-0.1,0-0.2,0.1
			C81.9,18.8,81.5,19.1,81.1,19.1z"/>
		<path class="st0" d="M83,28.9c0.1,0,0.1,0.1,0.1,0.4c0,0.1,0,0.2,0,0.4c0,0.6,0.4,0.9,0.9,0.9c0.8,0,1.2-0.8,1.5-1.4
			c0-0.1,0.1-0.3,0.3-0.3c0.1,0,0.2,0.1,0.2,0.5c0.1,0.8,0.5,1.3,1.2,1.4h0.2c0.6,0,0.8,0.3,0.8,0.8c0,0.7-0.3,1-0.8,1h-0.2
			c-1,0-1.5-0.5-1.7-1.5c-0.3,0.7-0.9,1.5-1.8,1.5c-0.8,0-1.3-0.7-1.3-1.5c-0.3,0.9-1.2,1.5-2.1,1.5c-1,0-1.6-0.3-1.8-1.2
			c-0.1,0.3-0.3,0.6-0.6,0.9c-0.3,0.2-0.8,0.4-1.7,0.4h-0.2c-0.5,0-0.8-0.3-0.8-0.9c0-0.6,0.3-0.9,0.8-0.9h0.2
			c1.2,0,2.1-0.4,2.5-1.3c0-0.1,0.1-0.3,0.2-0.3c0.1,0,0.2,0.1,0.2,0.4c0,0.7,0.6,1,1.4,1c1,0,1.7-0.4,2.2-1.4
			C82.8,29.1,82.9,28.9,83,28.9z M83.7,24.5c0.1-0.1,0.2-0.2,0.3-0.1c0.4,0.4,0.8,0.8,1.2,1.1c0.1,0.1,0.1,0.1,0,0.2
			c-0.4,0.4-0.7,0.8-1.1,1.2c-0.1,0.1-0.1,0.1-0.2,0c-0.3-0.2-0.7-0.6-1.1-1c-0.2,0.3-0.7,0.8-0.9,0.9c-0.1,0.1-0.2,0.1-0.3,0
			c-0.4-0.2-0.9-0.7-1.2-1.1c-0.1-0.1-0.1-0.1,0-0.3c0.3-0.4,0.7-0.8,1.1-1.2c0.1-0.1,0.1-0.1,0.2,0c0.3,0.3,0.8,0.8,1.1,1
			C83.1,25.2,83.5,24.7,83.7,24.5z M84,22c0.1,0,0.1,0.1,0,0.2c-0.2,0.2-0.8,1-1.1,1.3c-0.1,0.1-0.1,0.1-0.2,0
			c-0.4-0.2-1.2-0.8-1.4-1.1c-0.1-0.1-0.1-0.1,0-0.2c0.3-0.4,0.7-0.9,1-1.2c0.2-0.2,0.2-0.2,0.2-0.1C82.8,21.1,83.4,21.6,84,22z"/>
		<path class="st0" d="M89.2,31.7c-0.4,0.5-0.9,0.8-1.8,0.8h-0.2c-0.5,0-0.8-0.3-0.8-1c0-0.6,0.3-0.8,0.8-0.8h0.2
			c0.4,0,0.8-0.1,1.1-0.2c0.3-0.1,0.5-0.2,0.5-0.3c0-1.4-0.5-4.2-0.7-7c0-0.3-0.2-1.3-0.3-1.7c0-0.1,0-0.1,0-0.2
			c0-0.2,0.3-0.7,0.4-1c0.2-0.4,0.4-0.7,0.6-0.7c0.1,0,0.1,0.1,0.1,0.2c0.2,0.8,0.5,1.2,0.6,1.4c0,0.1,0.1,0.2,0.1,0.2
			c0,0,0,0.1,0,0.1c-0.1,0.2-0.3,0.6-0.4,0.8c0.1,2.7,0.6,4.9,0.6,6.1C90,29.8,89.7,30.9,89.2,31.7z"/>
		<path class="st0" d="M93.6,32.5c-0.1,0-0.1-0.1-0.1-0.5c0-2.4-0.9-8.9-0.9-10c0-0.5,0.4-1.4,0.7-1.9c0.1-0.2,0.3-0.4,0.4-0.4
			c0.1,0,0.1,0.2,0.1,0.6c0.1,1.7,0.6,5.7,0.6,8.6c0,1.2-0.1,2.1-0.3,2.7C93.9,32.2,93.8,32.5,93.6,32.5z"/>
		<path class="st0" d="M111.3,15.4c0,0.4-0.1,0.8-0.2,1.2c0.2,0.1,0.3,0.2,0.3,0.3c0,0.3-0.1,0.6-0.3,0.8c0,0.1-0.1,0.1-0.1,0.1
			l-0.4-0.2c-0.4,0.6-1,1.4-1.9,1.8c-0.3,0.2-0.7,0.3-1.2,0.3c-0.2,0-0.3,0-0.3-0.1c0-0.1,0.2-0.2,0.4-0.3c0.7-0.4,2-1.4,2.4-2
			c-0.4-0.2-0.8-0.6-0.8-1.1c0-0.3,0.2-0.7,0.5-1c0.3-0.4,0.7-0.6,1-0.6C111.1,14.4,111.3,14.9,111.3,15.4z M109.9,15.7
			C109.9,15.7,109.9,15.8,109.9,15.7c0,0.2,0.3,0.4,0.6,0.5c0.1-0.1,0.1-0.3,0.1-0.5c0-0.2-0.1-0.3-0.3-0.3
			C110.2,15.4,110,15.5,109.9,15.7z"/>
		<path class="st0" d="M115.7,28c0,0.4-0.2,1.5-0.5,2.2c-0.2,0.5-0.3,0.7-0.9,1c-1.3,0.6-4.5,1.5-7.7,1.5c-4.2,0-5.8-1.4-5.8-3.3
			c0-0.7,0.3-1.9,0.8-2.6c0.2-0.2,0.3-0.5,0.5-0.5c0,0,0.1,0,0.1,0.1c0,0.1-0.1,0.2-0.1,0.4c-0.2,0.6-0.4,1.1-0.4,1.6
			c0,0.8,1.1,2.5,5.1,2.5c2.9,0,6-0.7,7.4-1.1c0.7-0.3,0.7-0.4,0.7-0.9c0-0.4-0.1-0.7-0.2-1c-0.2,0.4-0.7,0.8-1.4,0.8
			c-0.9,0-1.4-0.5-1.4-1.5c0-1.4,1.1-3.3,1.6-3.3C114.6,23.8,115.7,25.9,115.7,28z M111.7,21.6c0.1,0,0.1,0.1,0,0.2
			c-0.2,0.2-0.8,1-1.1,1.3c-0.1,0.1-0.1,0.1-0.2,0c-0.4-0.2-1.2-0.8-1.4-1.1c-0.1-0.1-0.1-0.1,0-0.2c0.3-0.4,0.7-0.9,1-1.2
			c0.2-0.2,0.2-0.2,0.2-0.1C110.6,20.8,111.2,21.3,111.7,21.6z M113.1,25.6c-0.2,0-0.5,0.3-0.6,0.6c0,0,0,0.1,0,0.1s0,0.1,0,0.1
			c0.1,0.2,0.4,0.4,0.8,0.4c0.3,0,0.6-0.1,0.7-0.3c0,0,0,0,0-0.1C114.1,26.3,113.8,25.6,113.1,25.6z"/>
		<path class="st0" d="M119.5,24.2c0.5,0,1.3,0.8,1.3,1.6c0,0.3-0.1,0.6-0.2,0.9c-0.2,0.6-0.7,1-1.4,1c-0.6,0-1.1-0.5-1.1-1
			C118.2,25.9,119.1,24.2,119.5,24.2z M119.4,25.4c-0.2,0-0.6,0.5-0.6,0.8c0,0.2,0.3,0.4,0.6,0.4c0.4,0,0.9-0.2,0.9-0.4
			C120.3,26.1,119.8,25.4,119.4,25.4z"/>
		<path class="st0" d="M122.4,30.7c0.6,0,0.9,0.3,0.9,0.9c0,0.6-0.3,0.9-0.9,0.9h-0.2c-0.5,0-0.8,0-1-0.1c0,0.1,0,0.2,0,0.3
			c0,0.6-0.1,1.2-0.3,1.6c-0.4,1-1,2.6-2.8,3.4c-0.3,0.2-0.6,0.2-1,0.2c-0.7,0-1.8-0.4-2.8-0.8c-0.3-0.1-0.3-0.2-0.3-0.3
			c0-0.1,0.1-0.2,0.3-0.2c0.2,0,0.6,0.1,1,0.1c2.5,0,4.9-2.2,5.2-3.9c0-0.4-0.8-1.3-1-1.5c0,0,0-0.1,0-0.2c0-0.4,0.3-1.2,0.5-1.5
			c0.1-0.1,0.2-0.2,0.2-0.2c0.1,0,0.2,0.1,0.5,0.5c0.3,0.5,0.7,0.7,1.5,0.7H122.4z"/>
		<path class="st0" d="M128.1,22c0.1,0,0.1,0,0.1,0c0,0.5-0.2,0.9-0.4,1l-3.2,1.8c-0.1,0-0.1,0-0.1,0c0-0.2,0.1-0.6,0.2-0.8
			c0.1-0.1,0.2-0.2,0.5-0.4L128.1,22z"/>
		<path class="st0" d="M124.5,28.3c-0.2,0-0.4,0-0.5,0.1c-0.2,0.1-0.5,0.2-0.6,0.2c-0.1,0-0.2-0.1-0.2-0.2c0-0.3,0.5-1,0.9-1.4
			c0.4-0.3,0.8-0.5,1.1-0.5c0.1,0,0.3,0,0.4,0c1.4,0.3,3.3,1.1,4.7,1.4c1,0.2,2,0.3,2.7,0.3c0.1,0,0.3,0,0.4,0c0,0,0.1,0,0.1,0.1
			c0,0.3-0.5,1.2-0.9,1.5c-0.1,0.1-0.2,0.1-0.4,0.1c-0.4,0-1.3-0.1-1.5-0.1c-0.7,0-1.3,0.1-1.8,0.2c-0.3,0.1-0.9,0.4-1.8,0.8
			c-1.3,0.7-2.2,1.1-2.8,1.3c-0.6,0.2-1.2,0.4-2,0.4h-0.2c-0.6,0-0.9-0.3-0.9-0.9c0-0.6,0.3-0.8,0.9-0.8h0.2c1.1,0,2-0.1,2.7-0.3
			c0.7-0.2,1.8-0.6,3.1-1.1C126.6,28.8,125.3,28.3,124.5,28.3z"/>
		<path class="st0" d="M141.6,26.7c0.3,0.3,0.3,0.6,0.3,0.9c0,0.2-0.1,0.5-0.3,0.7c-0.2,0.2-0.5,0.3-0.8,0.3c-0.2,0-0.5-0.1-0.7-0.3
			c-0.2-0.2-0.3-0.5-0.3-0.8c0-0.3,0.1-0.6,0.3-0.8c0.2-0.2,0.5-0.3,0.8-0.3C141.1,26.4,141.4,26.5,141.6,26.7z M141.6,30.8
			c0.3,0.2,0.3,0.6,0.3,0.8c0,0.2-0.1,0.5-0.3,0.8c-0.2,0.2-0.5,0.3-0.8,0.3c-0.2,0-0.5-0.1-0.7-0.3c-0.2-0.2-0.3-0.5-0.3-0.8
			c0-0.3,0.1-0.6,0.3-0.8c0.2-0.2,0.5-0.3,0.8-0.3C141.1,30.5,141.4,30.6,141.6,30.8z"/>
		<path class="st0" d="M152.4,22c0,0.4-0.1,0.8-0.2,1.2c0.2,0.1,0.3,0.2,0.3,0.3c0,0.3-0.1,0.6-0.3,0.8c0,0.1-0.1,0.1-0.1,0.1
			l-0.4-0.2c-0.4,0.6-1,1.4-1.9,1.8c-0.3,0.2-0.7,0.3-1.2,0.3c-0.2,0-0.3,0-0.3-0.1c0-0.1,0.2-0.2,0.4-0.3c0.7-0.4,2-1.4,2.4-2
			c-0.4-0.2-0.8-0.6-0.8-1.1c0-0.3,0.2-0.7,0.5-1c0.3-0.4,0.7-0.6,1-0.6C152.2,21.1,152.3,21.6,152.4,22z M150.9,22.4
			C150.9,22.4,150.9,22.4,150.9,22.4c0,0.2,0.3,0.4,0.6,0.5c0.1-0.1,0.1-0.3,0.1-0.5c0-0.2-0.1-0.3-0.3-0.3
			C151.2,22,151.1,22.2,150.9,22.4z"/>
		<path class="st0" d="M153.2,31.4c-0.9,0.5-2.7,1.6-4.2,2.7c-0.1,0-0.1,0.1-0.1,0.1c0,0-0.1,0-0.1-0.1c0-0.1,0.1-0.5,0.2-0.7
			c0.1-0.2,0.5-0.6,0.9-0.9c0,0,0.1-0.1,0.1-0.1c0,0,0-0.1-0.1-0.1c-0.6-0.2-1-0.5-1-1.1c0-0.9,1-2.3,1.9-3.1
			c0.4-0.3,0.7-0.5,1.1-0.5c0.6,0,0.8,0.3,0.8,0.8c0,0.3-0.1,0.7-0.3,1.1c-0.1,0.2-0.2,0.3-0.3,0.3c-0.1,0-0.1,0-0.2-0.1
			c-0.2-0.2-0.4-0.3-0.7-0.3c-0.6,0-1.4,0.4-1.4,0.7c0,0.3,1.3,0.9,1.9,0.9c0.1,0,0.1,0,0.2,0c0.3-0.1,1.1-0.4,1.6-0.7
			c0.2-0.1,0.3-0.2,0.3-0.2c0.1,0,0.1,0,0.1,0.1c0,0.1,0,0.3-0.1,0.5C153.5,31.3,153.4,31.3,153.2,31.4z"/>
		<path class="st0" d="M159.2,32.5c-0.5,0-1-0.1-1.3-0.4c-0.6-0.5-0.9-1.3-1-2.4c-0.1-0.8-0.2-1.8-0.2-2.9c-0.1-1.6-0.2-4-0.4-5.4
			c0-0.1,0-0.2,0-0.2c0-0.1,0-0.2,0.1-0.3c0.2-0.4,0.4-0.6,0.6-0.9c0.1-0.2,0.2-0.3,0.2-0.3c0.1,0,0.2,0.1,0.2,0.5
			c0.3,2.8,0.1,6.6,0.5,8.7c0.1,0.5,0.2,0.7,0.3,1.1c0.2,0.5,0.6,0.7,1.1,0.8c0.6,0,0.9,0.3,0.9,0.9c0,0.7-0.3,0.9-0.8,0.9H159.2z"
			/>
		<path class="st0" d="M165.5,30.7c0.5,0,0.8,0.3,0.8,0.9c0,0.6-0.3,0.9-0.8,0.9h-0.2c-1.7,0-2.7-0.3-3.4-0.8
			c-0.6,0.4-1.5,0.8-2.5,0.8h-0.2c-0.5,0-0.7-0.3-0.7-0.9c0-0.6,0.3-0.9,0.8-0.9h0.2c0.7,0,1.1-0.1,1.3-0.3
			c-0.1-0.2-0.1-0.4-0.1-0.6c0-1.8,2-4,3.2-4c0.7,0,1,0.8,1,1.7c0,1-0.4,2.2-1.2,2.9c0.4,0.2,0.9,0.3,1.7,0.3H165.5z M163.5,21.9
			c0.1,0,0.1,0.1,0,0.2c-0.2,0.2-0.8,1-1.1,1.3c-0.1,0.1-0.1,0.1-0.2,0c-0.4-0.2-1.2-0.8-1.4-1.1c-0.1-0.1-0.1-0.1,0-0.2
			c0.3-0.4,0.7-0.9,1-1.2c0.2-0.2,0.2-0.2,0.2-0.1C162.4,21.1,163,21.6,163.5,21.9z M163,27.6c-0.7,0-1.3,0.7-1.3,1
			c0,0.4,0.3,0.7,1,1.1c0.2-0.1,1.1-0.8,1.1-1C163.8,28,163.6,27.6,163,27.6z"/>
		<path class="st0" d="M171.4,17.6c0.5,0,1.3,0.8,1.3,1.6c0,0.3-0.1,0.6-0.2,0.9c-0.2,0.6-0.7,1-1.4,1c-0.6,0-1.1-0.5-1.1-1
			C170.1,19.3,171,17.6,171.4,17.6z M171.2,18.9c-0.2,0-0.6,0.5-0.6,0.8c0,0.2,0.3,0.4,0.6,0.4c0.4,0,0.9-0.2,0.9-0.4
			C172.2,19.5,171.7,18.9,171.2,18.9z"/>
		<path class="st0" d="M167.7,28.3c-0.2,0-0.4,0-0.5,0.1c-0.2,0.1-0.5,0.2-0.6,0.2c-0.1,0-0.2-0.1-0.2-0.2c0-0.3,0.5-1,0.9-1.4
			c0.4-0.3,0.8-0.5,1.1-0.5c0.1,0,0.3,0,0.4,0c1.4,0.3,3.3,1.1,4.7,1.4c1,0.2,2,0.3,2.7,0.3c0.1,0,0.3,0,0.4,0c0,0,0.1,0,0.1,0.1
			c0,0.3-0.5,1.2-0.9,1.5c-0.1,0.1-0.2,0.1-0.4,0.1c-0.4,0-1.3-0.1-1.5-0.1c-0.7,0-1.3,0.1-1.8,0.2c-0.3,0.1-0.9,0.4-1.8,0.8
			c-1.3,0.7-2.2,1.1-2.8,1.3c-0.6,0.2-1.2,0.4-2,0.4h-0.2c-0.6,0-0.9-0.3-0.9-0.9c0-0.6,0.3-0.8,0.9-0.8h0.2c1.1,0,2-0.1,2.7-0.3
			c0.7-0.2,1.8-0.6,3.1-1.1C169.8,28.8,168.5,28.3,167.7,28.3z M173,23.6c0.1,0,0.1,0.1,0,0.2c-0.2,0.2-0.8,1-1.1,1.3
			c-0.1,0.1-0.1,0.1-0.2,0c-0.4-0.2-1.2-0.8-1.4-1.1c-0.1-0.1-0.1-0.1,0-0.2c0.3-0.4,0.7-0.9,1-1.2c0.2-0.2,0.2-0.2,0.2-0.1
			C171.9,22.8,172.4,23.3,173,23.6z"/>
		<path class="st0" d="M181.2,38.5c0.1,0,0.1,0,0.1,0c0,0.5-0.2,0.9-0.4,1l-3.2,1.8c-0.1,0-0.1,0-0.1,0c0-0.2,0.1-0.6,0.2-0.8
			c0.1-0.1,0.2-0.2,0.5-0.4L181.2,38.5z"/>
		<path class="st0" d="M180.5,36.8c-0.7,0.3-2.1,1.2-3.2,2c0,0-0.1,0-0.1,0s0,0,0-0.1c0-0.1,0.1-0.3,0.2-0.5
			c0.1-0.1,0.4-0.5,0.7-0.7c0,0,0.1-0.1,0.1-0.1s0-0.1-0.1-0.1c-0.5-0.2-0.7-0.3-0.7-0.7c0,0,0-0.1,0-0.1c0-0.7,0.8-1.8,1.5-2.3
			c0.3-0.2,0.5-0.3,0.8-0.3c0.4,0,0.6,0.2,0.6,0.6c0,0.2-0.1,0.5-0.2,0.8c-0.1,0.2-0.1,0.3-0.2,0.3c-0.1,0-0.1,0-0.2-0.1
			c-0.1-0.1-0.2-0.2-0.5-0.2c-0.6,0-1,0.4-1,0.5c0,0.3,1,0.7,1.4,0.7c0,0,0.1,0,0.1,0c0.2-0.1,0.9-0.3,1.2-0.5
			c0.1-0.1,0.2-0.1,0.3-0.1c0,0,0.1,0,0.1,0.1c0,0.1,0,0.2-0.1,0.3C180.8,36.6,180.7,36.7,180.5,36.8z"/>
		<path class="st0" d="M184.4,21.2c0.1,0.1,0.1,0.2,0.1,0.2c0,0,0,0.1,0,0.2c-0.1,0.3-0.4,0.8-0.7,1.1c-0.1,1.9-0.4,3.4-1.2,5.5
			c0.2,0.6,0.4,1.5,0.4,2.3c0,0.5-0.1,1.1-0.2,1.4c-0.1,0.3-2.1,0.7-3.4,0.7c-0.4,0-0.7,0-0.9-0.1c-0.1,0-0.1-0.2-0.1-0.5
			c0-0.5,0.1-1.2,0.2-1.4c0,0,0.1-0.1,0.1-0.1c0.1,0,0.1,0,0.2,0c1.1,0,2.2-1,2.9-2.3c-0.9-1.8-2.8-4.1-4.4-5.2
			c0,0.1-0.3,0.5-0.6,0.5c-0.3,0-1.7-1.4-1.8-1.7c0-0.2,0-0.3,0-0.5c0-0.4,0.1-0.9,0.2-1.1c0.1-0.2,0.2-0.3,0.3-0.3
			c0.2,0,0.4,0.1,0.6,0.3c1.2,0.9,2.5,1.9,3.6,3.2c0.8,1,1.8,2.4,2.6,4c0.5-1,0.6-1.7,0.7-3.1c0.1-0.8,0.1-1.3,0.1-1.7
			c0-0.9-0.1-1.2-0.1-1.5c0-0.2,0.1-0.3,0.2-0.6c0.3-0.5,0.5-0.9,0.7-0.9c0,0,0.1,0.1,0.1,0.2C184,20.2,184.2,20.7,184.4,21.2z
			 M182,29c-0.6,0.9-0.7,1.1-1.3,1.6c0.6,0,1.2-0.1,1.7-0.2C182.3,30,182.3,29.5,182,29z"/>
		<path class="st0" d="M187.5,32.5c-0.1,0-0.1-0.1-0.1-0.5c0-2.4-0.9-8.9-0.9-10c0-0.5,0.4-1.4,0.7-1.9c0.1-0.2,0.3-0.4,0.4-0.4
			c0.1,0,0.1,0.2,0.1,0.6c0.1,1.7,0.6,5.7,0.6,8.6c0,1.2-0.1,2.1-0.3,2.7C187.8,32.2,187.7,32.5,187.5,32.5z"/>
	</g>
	<rect class="st1" width="250.9" height="49.9"/>
</g>
</svg>
