<?xml version="1.0" encoding="utf-8"?>
<!-- Generator: Adobe Illustrator 19.2.0, SVG Export Plug-In . SVG Version: 6.00 Build 0)  -->
<svg version="1.1" id="Layer_1" xmlns="http://www.w3.org/2000/svg" xmlns:xlink="http://www.w3.org/1999/xlink" x="0px" y="0px"
	 viewBox="0 0 404 49.9" style="enable-background:new 0 0 404 49.9;" xml:space="preserve">
<style type="text/css">
	.st0{fill:#002F3D;}
	.st1{fill:#FF0000;}
	.st2{fill:none;}
</style>
<g>
	<g>
		<path d="M120.6,37.6c0,0.1-0.1,0.1-0.2,0.1c-0.4,0-1.1-0.4-1.9-1.1c-0.6-0.5-1.1-1.1-1.5-1.6c-0.9-1.1-1.5-2.4-2.1-3.8
			c-1.3,0-2-0.2-2.1-0.5c0.4-0.3,0.7-0.7,0.9-1c0.3-0.4,0.4-0.8,0.4-1.2c-0.3,0-0.7,0.2-1.2,0.6c-0.1,0.1-0.4,0.4-1,0.9
			c-0.1,0-0.2-0.1-0.3-0.4c-0.1-0.3-0.2-0.7-0.2-1.2c-0.3-0.2-0.6-0.3-0.8-0.5c-0.2-0.2-0.3-0.3-0.3-0.4c0-0.2,0.2-0.4,0.5-0.7
			c0.2-0.1,0.4-0.3,0.6-0.4c0-0.4,0-0.7,0.1-1.1c0.1-0.3,0.2-0.5,0.3-0.5c0.4,0.4,0.8,0.7,1,0.9c0.4,0.3,0.9,0.5,1.2,0.5
			c0-0.4-0.2-0.8-0.5-1.2c-0.3-0.3-0.6-0.7-1-1c0-0.2,0.3-0.3,1-0.5c0.5-0.1,0.9-0.2,1.2-0.2c0.9-2.7,2.3-4.7,4-6.1
			c0.6-0.5,1-0.7,1.2-0.7c0.1,0,0.2,0.1,0.2,0.2c0,0.1-0.2,0.4-0.7,0.9c-1.5,1.7-2.3,3.6-2.7,5.7c0.4,0.1,0.7,0.1,0.8,0.2
			c0.1,0.1,0.2,0.2,0.2,0.3c-0.4,0.3-0.7,0.7-0.9,1c-0.3,0.4-0.5,0.8-0.5,1.2c0.4,0,0.8-0.2,1.1-0.5c0.2-0.2,0.6-0.6,1-1
			c0.2,0,0.3,0.2,0.5,0.7c0.1,0.4,0.1,0.7,0.1,0.9c0.7,0.3,1.1,0.7,1.1,1c0,0.3-0.3,0.6-1,1c0,0.6-0.1,1.1-0.2,1.3
			c-0.1,0.2-0.2,0.2-0.4,0.3c-0.7-0.9-1.5-1.3-2.2-1.4c0,0.3,0.2,0.8,0.5,1.2c0.1,0.2,0.5,0.5,1,1c0,0.1-0.1,0.1-0.2,0.2
			c-0.1,0.1-0.4,0.1-0.9,0.3c0.2,1.1,0.6,2.2,1.3,3.3c0.7,1.1,1.4,2.1,2.2,2.8C120.6,37.4,120.6,37.5,120.6,37.6z M113.8,28
			c-0.2-0.1-0.5-0.2-0.8-0.3c0,0-0.2-0.1-0.5-0.2c-0.3-0.1-0.4-0.2-0.4-0.3c0,0,0.3-0.2,1-0.3c0.1-0.1,0.4-0.2,0.7-0.3
			c-0.4-0.1-0.7-0.3-1-0.5c-0.1-0.1-0.4-0.4-0.7-0.6c-0.1,0-0.1,0.1-0.1,0.3c0,0.2,0,0.4,0,0.8c-0.6,0.3-0.9,0.6-0.9,0.7
			c0,0.1,0.1,0.2,0.3,0.3c0.2,0.1,0.4,0.2,0.7,0.3c0,0.1,0,0.4,0.1,0.7c0.1,0.4,0.1,0.6,0.2,0.6l0.7-0.7
			C113.2,28.3,113.5,28.1,113.8,28z M119.5,17.3c-1.8,1.2-3.2,3.4-4.3,6.5c-0.7,0-1.2,0-1.4,0.1c-0.2,0-0.3,0.1-0.3,0.2
			c0.5,0.4,0.9,0.9,1.2,1.4c0.1-0.3,0.3-0.5,0.4-0.6c0.1-0.2,0.2-0.5,0.4-0.7c0,0,0.1,0.1,0.1,0.3c0,0.2,0.1,0.3,0.1,0.3
			c0.1,0.1,0.2,0.3,0.4,0.7c0.1-0.3,0.3-0.6,0.5-0.9c0.1-0.1,0.3-0.4,0.6-0.6c0-0.1-0.1-0.1-0.3-0.2c-0.1,0-0.3,0-0.5-0.1
			c0.3-1.2,0.5-2,0.6-2.4C117.5,20.1,118.3,18.7,119.5,17.3z M119.9,37.2c-0.7-0.7-1.4-1.5-2-2.6c-0.7-1.2-1.1-2.5-1.4-3.8
			c0.5,0,0.8-0.1,0.8-0.2c-0.5-0.5-1-1-1.2-1.5c-0.1,0.2-0.2,0.4-0.3,0.7c0,0-0.1,0.2-0.2,0.4c-0.1,0.2-0.1,0.3-0.2,0.3
			c-0.2,0-0.4-0.4-0.7-1.3c-0.2,0.4-0.4,0.7-0.6,0.9c-0.2,0.2-0.4,0.4-0.6,0.6c0,0,0.1,0.1,0.3,0.1c0.1,0,0.4,0.1,0.6,0.1
			c0.2,0,0.3,0,0.4,0c0.1,0,0.3,0,0.3,0C116.2,33.6,117.7,35.8,119.9,37.2z M116.7,27.3c0-0.4-0.1-0.7-0.4-0.9
			c-0.3-0.2-0.6-0.4-0.9-0.4c-0.4,0-0.7,0.1-0.9,0.4c-0.2,0.2-0.4,0.6-0.4,0.9c0,0.3,0.1,0.6,0.4,0.9c0.3,0.2,0.6,0.4,0.9,0.4
			c0.4,0,0.7-0.1,0.9-0.4C116.6,28,116.7,27.7,116.7,27.3z M119.8,27.2c0-0.2-0.3-0.3-0.9-0.6c0-0.4,0-0.7-0.1-0.9
			c-0.1-0.2-0.1-0.4-0.2-0.4c-0.1,0.1-0.3,0.3-0.7,0.7c-0.3,0.3-0.6,0.4-0.9,0.6c0.1,0,0.4,0.2,1.1,0.4c0.4,0.1,0.6,0.3,0.6,0.3
			c0,0.1-0.2,0.2-0.6,0.3c-0.3,0.1-0.7,0.2-1.1,0.3c0.3,0.1,0.6,0.3,1,0.5c0.1,0.1,0.4,0.3,0.6,0.6c0.1,0,0.2-0.4,0.2-1.2
			C119.5,27.6,119.8,27.4,119.8,27.2z"/>
		<path class="st0" d="M127.9,17.6c0.1,0,0.2,0.1,0.2,0.4c0,0.3,0,0.5,0,0.8c0,0.3,0,0.5,0.1,0.8c0.1,0.6,0.2,1.3,0.3,2
			c0.1,0.7,0.2,1.4,0.3,2c0.1,0.7,0.2,1.4,0.3,2c0.1,0.7,0.2,1.3,0.2,2c0,0.3,0,0.5,0.1,0.9c0,0.3,0,0.7,0,1c0,0.3-0.1,0.7-0.1,1
			c-0.1,0.3-0.1,0.6-0.3,0.8c-0.1,0.1-0.1,0.2-0.2,0.2c-0.1,0-0.1,0-0.1-0.1c0-0.6-0.1-1.3-0.2-1.9c-0.1-0.6-0.1-1.3-0.2-1.9
			c-0.1-0.7-0.2-1.4-0.3-2c-0.1-0.7-0.2-1.3-0.3-2c-0.1-0.7-0.2-1.3-0.3-2c-0.1-0.7-0.2-1.3-0.3-2c0-0.2,0.1-0.3,0.1-0.5
			c0-0.2,0.1-0.4,0.2-0.5c0.2-0.5,0.3-0.7,0.3-0.8C127.9,17.6,127.9,17.6,127.9,17.6z"/>
		<path class="st0" d="M131.2,20.2c-0.1,0-0.2,0-0.1-0.1c0-0.1,0.1-0.2,0.1-0.2c0-0.1,0.1-0.2,0.2-0.3c0.1-0.1,0.1-0.2,0.2-0.2
			c0-0.1,0.1-0.1,0.1-0.2c0,0,0.1-0.1,0.1-0.1c0,0,0.1-0.1,0.1-0.1l4-1.8c0,0,0.1,0,0.1,0c0,0,0,0.1,0,0.1c0,0.1-0.1,0.2-0.2,0.4
			c-0.1,0.2-0.2,0.4-0.2,0.4c0,0,0,0.1,0,0.1c0,0-0.1,0.1-0.1,0.1c-0.7,0.3-1.4,0.6-2.1,0.9C132.5,19.5,131.8,19.8,131.2,20.2z
			 M131.3,18.2c-0.1,0-0.2,0-0.1-0.1c0-0.1,0.1-0.2,0.1-0.2c0-0.1,0.1-0.2,0.2-0.3c0.1-0.1,0.1-0.2,0.2-0.2c0-0.1,0.1-0.1,0.1-0.2
			c0,0,0.1-0.1,0.1-0.1c0,0,0.1-0.1,0.1-0.1l4-1.8c0,0,0.1,0,0.1,0c0,0,0,0.1,0,0.1c0,0.1-0.1,0.2-0.2,0.4c-0.1,0.2-0.2,0.4-0.2,0.4
			c0,0,0,0.1,0,0.1c0,0-0.1,0.1-0.1,0.1c-0.7,0.3-1.4,0.6-2.1,0.9C132.6,17.5,131.9,17.8,131.3,18.2z"/>
		<path class="st0" d="M133.1,25.1l0.1-1.5c0-0.1,0.1-0.2,0.1-0.2c0.1,0,0.2,0,0.3,0c0.5,0.2,0.9,0.4,1.4,0.7
			c0.4,0.3,0.8,0.7,1.1,1.2c0.3,0.5,0.6,0.9,0.8,1.4c0.2,0.5,0.3,1,0.4,1.4c0,0.2,0,0.4,0,0.6c0,0.2,0,0.4-0.1,0.7
			c0,0.2-0.1,0.4-0.2,0.6c-0.1,0.2-0.1,0.3-0.2,0.4c-0.2,0.2-0.5,0.4-0.9,0.5c-0.4,0.1-0.8,0.2-1.2,0.3c-0.4,0.1-0.8,0.1-1.3,0.2
			c-0.4,0-0.8,0.1-1.2,0.1c-0.1,0-0.2,0-0.3,0c-0.1,0-0.2,0-0.4-0.1c-0.1,0-0.2-0.1-0.3-0.2c-0.1-0.1-0.1-0.2-0.1-0.3
			c0-0.1,0-0.2,0-0.3c0-0.2,0-0.3,0-0.5c0-0.2,0-0.3,0.1-0.5c0-0.1,0-0.2,0.1-0.2c0,0,0,0,0.1,0c0,0,0,0.1,0.1,0.1
			c0.1,0.1,0.3,0.2,0.4,0.2c0.2,0,0.4,0.1,0.5,0.1c0.2,0,0.4,0,0.6,0c0.2,0,0.4,0,0.5,0c0.3,0,0.5,0,0.8-0.1c0.3,0,0.5-0.1,0.8-0.1
			c0.3-0.1,0.5-0.1,0.7-0.2c0.2-0.1,0.4-0.2,0.6-0.2c0.1,0,0.1-0.1,0.2-0.1c0.1-0.1,0.1-0.1,0.1-0.1c-0.1-0.4-0.2-0.8-0.4-1.2
			c-0.2-0.4-0.5-0.8-0.8-1.2c-0.3-0.4-0.7-0.7-1.1-0.9C133.9,25.3,133.5,25.2,133.1,25.1z"/>
		<path class="st0" d="M144,29.5c-0.1,0.3-0.3,0.6-0.5,0.8c-0.3,0.2-0.6,0.3-1,0.3c-0.2,0-0.4,0-0.6-0.2c-0.2-0.1-0.3-0.2-0.5-0.4
			c-0.1-0.2-0.2-0.3-0.3-0.6c-0.1-0.2-0.1-0.4-0.1-0.6c0-0.2,0-0.3,0.1-0.5c0-0.2,0.1-0.4,0.2-0.6c0.1-0.2,0.2-0.4,0.3-0.6
			c0.1-0.2,0.2-0.4,0.3-0.5c0.1-0.2,0.3-0.3,0.4-0.4c0.1-0.1,0.3-0.2,0.5-0.2c0.3,0,0.5,0.1,0.8,0.3c0.2,0.2,0.5,0.5,0.6,0.8
			c0.2,0.3,0.3,0.7,0.4,1.1c0.1,0.4,0.1,0.8,0.1,1.2c0,0.5-0.1,1.1-0.2,1.6c-0.1,0.6-0.3,1.1-0.5,1.6c-0.2,0.5-0.4,1-0.7,1.5
			c-0.3,0.5-0.6,0.9-0.9,1.2c-0.4,0.5-0.9,0.9-1.4,1.1c-0.5,0.3-1,0.4-1.6,0.5c-0.5,0.1-1.1,0.1-1.7,0c-0.6-0.1-1.2-0.2-1.8-0.4
			c-0.1,0-0.1-0.1-0.1-0.1c0,0,0-0.1,0-0.2c0-0.1,0.1-0.1,0.1-0.1c0.1,0,0.1-0.1,0.2,0c0.6,0,1.1,0,1.6,0c0.5-0.1,0.9-0.2,1.4-0.4
			c0.4-0.2,0.8-0.4,1.2-0.7c0.4-0.3,0.8-0.6,1.2-1c0.3-0.2,0.5-0.5,0.8-0.8c0.3-0.3,0.5-0.7,0.7-1c0.2-0.4,0.4-0.7,0.5-1.1
			c0.1-0.4,0.2-0.7,0.3-1c0-0.1,0-0.1,0-0.2c0-0.1,0-0.2,0-0.2c0-0.1,0-0.2-0.1-0.2C144,29.6,144,29.6,144,29.5z M142.6,27.7
			c-0.1,0-0.2,0-0.3,0.1c-0.1,0.1-0.2,0.2-0.2,0.3c-0.1,0.1-0.1,0.2-0.1,0.3c0,0.1,0,0.2,0,0.2c0.1,0.2,0.2,0.3,0.4,0.3
			c0.2,0.1,0.3,0.1,0.5,0.1c0.2,0,0.4-0.1,0.5-0.1c0.2-0.1,0.3-0.1,0.3-0.2c0-0.1,0-0.2-0.1-0.3c-0.1-0.1-0.2-0.2-0.3-0.3
			c-0.1-0.1-0.2-0.2-0.3-0.2C142.8,27.7,142.7,27.7,142.6,27.7z"/>
		<path class="st0" d="M149,21c0.2-0.1,0.5-0.3,0.7-0.4c0.2-0.1,0.5-0.3,0.7-0.4c0.2-0.2,0.4-0.3,0.7-0.5c0.2-0.2,0.4-0.4,0.6-0.6
			c-0.2-0.1-0.4-0.2-0.6-0.3c-0.2-0.1-0.4-0.3-0.5-0.4c-0.1-0.1-0.1-0.2-0.1-0.3c0-0.1,0-0.2,0-0.3c0.1-0.2,0.1-0.4,0.2-0.6
			c0.1-0.2,0.2-0.4,0.4-0.5c0.1-0.2,0.3-0.3,0.5-0.4c0.2-0.1,0.4-0.2,0.5-0.1c0.2,0,0.4,0.1,0.5,0.3c0.1,0.2,0.2,0.4,0.2,0.7
			c0,0.3,0,0.5,0,0.8c0,0.3,0,0.4-0.1,0.5c0,0,0,0.1,0,0.1c0.1,0,0.1,0.1,0.2,0.1c0,0,0.1,0.1,0.1,0.2c0,0.1,0.1,0.2,0,0.4
			c0,0.2-0.1,0.3-0.1,0.3c-0.1,0.1-0.1,0.1-0.2,0.1c0,0-0.1,0-0.1-0.1c0,0-0.1-0.1-0.1-0.1c0,0-0.1-0.1-0.1-0.1
			c-0.2,0.2-0.4,0.5-0.6,0.7c-0.2,0.2-0.5,0.4-0.7,0.6c-0.3,0.2-0.5,0.3-0.8,0.5c-0.3,0.1-0.6,0.3-0.9,0.4c-0.1,0-0.2,0.1-0.4,0.1
			c-0.1,0-0.2,0-0.2,0c0,0,0-0.1,0.1-0.2C148.8,21.1,148.9,21.1,149,21z M151,17.4c0.2,0.2,0.3,0.4,0.5,0.5c0.2,0.1,0.4,0.2,0.6,0.2
			h0c0-0.1,0-0.1,0-0.2c0-0.1,0-0.2,0-0.3c0-0.1,0-0.2,0-0.3c0-0.1-0.1-0.2-0.1-0.2c-0.1,0-0.1-0.1-0.2-0.1c-0.1,0-0.2,0-0.3,0.1
			c-0.1,0-0.2,0.1-0.3,0.1C151.1,17.3,151,17.3,151,17.4z"/>
		<path class="st0" d="M151.6,24.5l0.3-1.3c0-0.1,0.1-0.1,0.1-0.1c0.1,0,0.1,0,0.1,0.1l1.1,3.9c0.1,0.5,0.3,1,0.5,1.3
			c0.2,0.4,0.5,0.7,0.9,1c0.2,0.2,0.5,0.3,0.8,0.3c0.3,0.1,0.6,0.1,1,0.1h0.2c0.2,0,0.4,0.1,0.5,0.3c0.1,0.2,0.2,0.4,0.2,0.6
			s-0.1,0.4-0.2,0.6c-0.1,0.2-0.3,0.3-0.5,0.3h-0.2c-0.4,0-0.8,0-1.1-0.1c-0.3-0.1-0.7-0.2-1-0.4c-0.3-0.2-0.6-0.5-0.8-0.8
			c-0.2-0.3-0.5-0.8-0.7-1.3c-0.2,0.6-0.5,1-0.9,1.4c-0.3,0.3-0.7,0.5-1.2,0.7c-0.5,0.1-0.9,0.2-1.4,0.3c-0.4,0.1-0.9,0.1-1.2,0
			c-0.4,0-0.7-0.2-0.9-0.3c-0.1-0.1-0.2-0.2-0.2-0.4c0-0.2-0.1-0.4-0.1-0.5c0-0.2,0-0.4,0-0.6c0-0.2,0.1-0.3,0.1-0.5
			c0,0,0.1-0.1,0.1-0.1c0,0,0.1,0,0.1,0.1c0.1,0.2,0.3,0.4,0.4,0.5c0.2,0.1,0.4,0.1,0.6,0.2c0.3,0,0.7,0,1.2,0
			c0.4,0,0.9-0.1,1.3-0.3c0.4-0.1,0.8-0.3,1.1-0.5c0.3-0.2,0.6-0.4,0.7-0.7L151.6,24.5z"/>
		<path class="st0" d="M161.2,19.6c0,0.2,0,0.5-0.1,0.7c-0.1,0.2-0.2,0.4-0.3,0.6c-0.1,0.2-0.3,0.3-0.5,0.4
			c-0.2,0.1-0.5,0.2-0.8,0.2c-0.4,0-0.7-0.1-0.9-0.4c-0.3-0.2-0.4-0.6-0.4-0.9c0-0.2,0-0.4,0.1-0.7c0.1-0.3,0.2-0.6,0.3-0.8
			c0.1-0.3,0.3-0.5,0.5-0.7c0.2-0.2,0.5-0.3,0.7-0.3c0.3,0,0.5,0,0.7,0.2c0.2,0.1,0.3,0.3,0.4,0.5c0.1,0.2,0.2,0.4,0.2,0.7
			C161.2,19.3,161.2,19.5,161.2,19.6z M158.7,19.9c0,0.1,0,0.2,0.1,0.3c0.1,0.1,0.1,0.1,0.2,0.2c0.1,0,0.2,0.1,0.3,0.1
			c0.1,0,0.2,0,0.3,0c0.2,0,0.4,0,0.6-0.1c0.2-0.1,0.3-0.2,0.5-0.3c0-0.1,0-0.3,0-0.4c0-0.1-0.1-0.3-0.2-0.4
			c-0.1-0.1-0.2-0.2-0.3-0.3c-0.1-0.1-0.3-0.1-0.5-0.1c-0.1,0-0.2,0.1-0.3,0.2c-0.1,0.1-0.2,0.2-0.3,0.3c-0.1,0.1-0.2,0.2-0.2,0.3
			C158.7,19.7,158.7,19.8,158.7,19.9z"/>
		<path class="st0" d="M162.8,31c-0.1,0.2-0.1,0.3-0.2,0.5c-0.1,0.2-0.1,0.3-0.2,0.3c-0.2,0-0.5,0-0.9,0c-0.4-0.1-0.7-0.2-1.1-0.3
			c-0.4-0.2-0.7-0.3-1-0.5c-0.3-0.2-0.4-0.4-0.5-0.7c-0.2,0.3-0.4,0.5-0.6,0.6c-0.2,0.2-0.4,0.3-0.7,0.4c-0.2,0.1-0.5,0.2-0.7,0.2
			c-0.2,0-0.4,0.1-0.6,0.1h-0.2c-0.2,0-0.4-0.1-0.5-0.3c-0.1-0.2-0.2-0.4-0.2-0.6c0-0.2,0.1-0.4,0.2-0.6c0.1-0.2,0.3-0.3,0.5-0.3
			h0.2c0.3,0,0.5,0,0.8,0c0.3,0,0.5-0.1,0.8-0.1c0.3-0.1,0.5-0.2,0.7-0.3c0.2-0.2,0.5-0.4,0.7-0.6c0.1-0.2,0.2-0.3,0.4-0.5
			c0.1-0.2,0.3-0.3,0.4-0.4c0.1-0.1,0.3-0.2,0.4-0.3c0.1-0.1,0.3-0.1,0.4-0.1c0.1,0,0.3,0.1,0.4,0.2c0.2,0.1,0.3,0.3,0.5,0.4
			c0.2,0.2,0.3,0.3,0.4,0.5c0.1,0.2,0.3,0.3,0.4,0.4c0.2,0.2,0.4,0.3,0.5,0.4c0.2,0.1,0.4,0.2,0.6,0.3c0.2,0.1,0.4,0.1,0.7,0.2
			c0.2,0,0.5,0,0.7,0h0.2c0.2,0,0.4,0.1,0.5,0.3c0.1,0.2,0.2,0.4,0.2,0.6c0,0.2-0.1,0.4-0.2,0.6c-0.1,0.2-0.3,0.3-0.5,0.3h-0.2
			c-0.2,0-0.4,0-0.6,0c-0.2,0-0.4,0-0.6-0.1c-0.2,0-0.4-0.1-0.6-0.1C163.2,31.2,163,31.1,162.8,31z M161.8,30
			C161.8,30,161.8,30,161.8,30C161.8,30,161.8,30,161.8,30c-0.1-0.2-0.2-0.4-0.3-0.5c-0.1-0.1-0.2-0.3-0.2-0.4
			c-0.1-0.1-0.1-0.2-0.2-0.3c0-0.1-0.1-0.2-0.1-0.2c-0.1-0.1-0.2-0.2-0.3-0.2c-0.1,0-0.3,0.1-0.5,0.2c-0.2,0.1-0.3,0.3-0.5,0.4
			c0,0-0.1,0.1-0.1,0.1s0,0,0.1,0.1c0.1,0.1,0.3,0.2,0.4,0.3c0.2,0.1,0.3,0.2,0.5,0.3c0.2,0.1,0.4,0.1,0.5,0.2S161.6,30,161.8,30z"
			/>
		<path class="st1" d="M171.2,15.8c-0.4,0.2-0.7,0.3-1.1,0.5c-0.4,0.2-0.8,0.4-1.1,0.5c-0.4,0.2-0.7,0.3-1,0.5
			c-0.3,0.1-0.6,0.3-0.8,0.4c0,0-0.1,0-0.1,0s0-0.1,0-0.1l0.5-1.1c0-0.1,0.1-0.1,0.1-0.1c0,0,0.1,0,0.1-0.1l3.9-1.7
			c0.1,0,0.2,0,0.1,0.1l-0.4,1C171.3,15.7,171.2,15.8,171.2,15.8z M169.2,20.1c-0.2,0.3-0.3,0.6-0.5,0.7c-0.2,0.2-0.5,0.3-0.8,0.3
			c-0.2,0-0.4-0.1-0.6-0.2c-0.2-0.1-0.3-0.4-0.3-0.7c0-0.1,0-0.3,0-0.4c0-0.2,0.1-0.3,0.1-0.4c0.1-0.1,0.1-0.2,0.2-0.3
			c0.1-0.1,0.2-0.2,0.2-0.2c0.1,0,0.1,0.1,0,0.2c0,0.1-0.1,0.2-0.1,0.3c0,0.1,0,0.2,0,0.3c0,0.1,0,0.2,0,0.3c0,0.1,0.1,0.1,0.1,0.2
			c0.1,0.1,0.2,0.1,0.3,0.1c0.1,0,0.2,0,0.4-0.1c0.1,0,0.2-0.1,0.3-0.2c0.1-0.1,0.2-0.2,0.3-0.3c0.1-0.1,0.2-0.2,0.2-0.4
			c0-0.2,0.1-0.3,0.1-0.4c0-0.1,0-0.2,0.1-0.3c0-0.1,0.1-0.1,0.2-0.1c0,0,0,0,0,0.1c0,0,0,0.1,0,0.1c0,0,0,0.1,0,0.1
			c0,0,0,0.1,0,0.1c0,0.2,0,0.4,0.1,0.5c0.1,0.1,0.2,0.2,0.4,0.2c0.1,0,0.2,0,0.4,0c0.2,0,0.3-0.1,0.4-0.2c0,0,0-0.1,0-0.1
			c0-0.1,0-0.1,0-0.2c0-0.1,0-0.1-0.1-0.2c0-0.1-0.1-0.1-0.1-0.1l0.4-0.8c0.1,0,0.1,0.1,0.2,0.2c0,0.1,0.1,0.3,0.1,0.4
			c0,0.2,0,0.3,0,0.5c0,0.2,0,0.3-0.1,0.4c-0.1,0.3-0.2,0.5-0.3,0.7c-0.1,0.2-0.4,0.4-0.7,0.4c-0.3,0-0.5,0-0.7-0.1
			C169.5,20.4,169.3,20.3,169.2,20.1z"/>
		<path class="st1" d="M165.2,29.8c0.3,0,0.6,0,0.9,0c0.3,0,0.6-0.1,0.8-0.1c0.3-0.1,0.5-0.2,0.7-0.3c0.2-0.1,0.4-0.3,0.5-0.5
			c0.2-0.4,0.4-0.8,0.6-1.2c0.2-0.4,0.4-0.8,0.6-1.1c0.1-0.1,0.2-0.3,0.3-0.5c0.1-0.2,0.3-0.3,0.4-0.5c0.2-0.1,0.3-0.3,0.5-0.4
			c0.2-0.1,0.3-0.1,0.5-0.1c0.2,0,0.4,0.1,0.5,0.2c0.2,0.1,0.3,0.3,0.5,0.5c0.2,0.2,0.3,0.4,0.4,0.7c0.1,0.2,0.2,0.5,0.3,0.7
			c0.1,0.2,0.2,0.5,0.2,0.7c0,0.2,0.1,0.4,0.1,0.6c0,0.2,0,0.3-0.1,0.5c0,0.2-0.1,0.3-0.1,0.5c-0.1,0.2-0.1,0.3-0.2,0.4
			c-0.1,0.1-0.2,0.2-0.4,0.3c-0.2,0.1-0.4,0.1-0.7,0.1c-0.3,0-0.6-0.1-0.9-0.2c-0.3-0.1-0.7-0.2-1-0.4c-0.4-0.2-0.7-0.3-1-0.5
			c-0.3,0.8-0.7,1.4-1.3,1.8c-0.6,0.4-1.3,0.6-2.1,0.6H165c-0.2,0-0.4-0.1-0.5-0.3c-0.1-0.2-0.2-0.4-0.2-0.6c0-0.2,0.1-0.4,0.2-0.6
			c0.1-0.2,0.3-0.3,0.5-0.3H165.2z M171.9,28.5c0,0,0-0.1,0-0.2c0-0.1-0.1-0.2-0.1-0.3c-0.1-0.1-0.1-0.2-0.2-0.3
			c-0.1-0.1-0.1-0.2-0.1-0.2c-0.1-0.2-0.3-0.3-0.4-0.5c-0.2-0.2-0.4-0.2-0.7-0.2c-0.1,0-0.2,0-0.3,0.1c-0.1,0.1-0.2,0.1-0.3,0.2
			c-0.1,0.1-0.2,0.2-0.2,0.3c-0.1,0.1-0.1,0.2-0.2,0.3c0.4,0.3,0.8,0.5,1.2,0.6C171,28.5,171.5,28.5,171.9,28.5z"/>
		<path class="st0" d="M188.1,26.6c0.3-0.7,0.4-1.3,0.6-2c0.1-0.7,0.2-1.4,0.2-2.1c0.1-1.6,0-3-0.1-4.2c0-0.2-0.1-0.3-0.2-0.5
			c-0.1-0.1-0.2-0.3-0.2-0.4l0.9-1.4c0-0.1,0.1-0.1,0.1-0.1s0.1,0,0.1,0.1c0.1,0.4,0.2,0.8,0.4,1.2c0.2,0.4,0.4,0.7,0.6,0.9
			c0,0.1-0.1,0.1-0.2,0.2c-0.1,0.1-0.1,0.2-0.2,0.3c-0.1,0.1-0.1,0.2-0.2,0.3c0,0.1-0.1,0.3-0.1,0.4c0,0.7,0,1.4,0,2.1
			c0,0.7-0.1,1.4-0.2,2.1c-0.1,0.7-0.2,1.4-0.4,2c-0.2,0.6-0.4,1.2-0.6,1.7c0.2,0.4,0.4,0.8,0.6,1.2c0.2,0.4,0.3,0.9,0.4,1.4
			c0,0.3,0,0.6-0.1,0.9c-0.1,0.3-0.2,0.6-0.3,0.8c-0.3,0.1-0.6,0.1-0.9,0.2c-0.4,0-0.8,0.1-1.2,0.1c-0.4,0-0.8,0.1-1.2,0.1
			c-0.4,0-0.8,0-1.1,0.1c0,0,0-0.2,0-0.7c0.1-0.4,0.1-0.7,0.2-0.8c0-0.1,0.1-0.2,0.2-0.2c0.2,0,0.4,0,0.5-0.1c0.1,0,0.2-0.1,0.3-0.2
			c0.1-0.1,0.2-0.2,0.4-0.4c0.2-0.2,0.4-0.4,0.6-0.7c0.2-0.3,0.4-0.5,0.6-0.8c0.2-0.3,0.3-0.5,0.4-0.8c-0.3-0.5-0.7-1.1-1.1-1.7
			c-0.4-0.6-0.8-1.2-1.3-1.8c-0.4-0.6-0.9-1.1-1.4-1.7c-0.5-0.5-0.9-1-1.4-1.5c-0.2,0.1-0.4,0.1-0.7,0.1c-0.2,0-0.4-0.1-0.6-0.2
			c-0.2-0.1-0.4-0.2-0.6-0.3c-0.2-0.1-0.4-0.3-0.5-0.5c-0.1-0.2-0.2-0.3-0.2-0.5c0-0.3,0-0.7,0.1-1c0-0.4,0.1-0.6,0.1-0.8
			c0-0.2,0.1-0.2,0.2-0.3c0.1,0,0.2,0,0.3,0.1c0.7,0.5,1.4,1.1,2.1,1.8c0.7,0.7,1.4,1.5,2,2.3s1.3,1.6,1.8,2.5
			C187.2,25.1,187.7,25.9,188.1,26.6z M188.9,30.2c0-0.1,0-0.2-0.1-0.3c-0.1-0.2-0.1-0.3-0.2-0.5c-0.1-0.2-0.2-0.4-0.3-0.5
			c-0.1-0.2-0.2-0.3-0.2-0.4c-0.1,0.2-0.2,0.3-0.3,0.5c-0.1,0.2-0.2,0.3-0.4,0.5c-0.1,0.2-0.3,0.3-0.4,0.5c-0.1,0.2-0.3,0.3-0.4,0.5
			c0.2,0,0.4,0,0.5,0c0.2,0,0.4,0,0.6-0.1c0.2,0,0.4,0,0.6-0.1C188.5,30.3,188.7,30.2,188.9,30.2z"/>
		<path class="st0" d="M196.9,29.8c0.2,0,0.4,0.1,0.5,0.3c0.1,0.2,0.2,0.4,0.2,0.6c0,0.2,0,0.4-0.2,0.6c-0.1,0.2-0.3,0.3-0.5,0.3
			c0,0,0,0-0.1,0c0,0-0.1,0-0.1,0c-0.6,0-1.2-0.1-1.6-0.4c-0.4-0.2-0.7-0.6-1-0.9c-0.3-0.5-0.5-1-0.6-1.5c-0.1-0.5-0.2-1.1-0.2-1.6
			c-0.1-0.6-0.1-1.2-0.2-1.9c-0.1-0.6-0.1-1.2-0.2-1.9c-0.1-0.6-0.2-1.3-0.3-1.9c-0.1-0.7-0.3-1.4-0.5-2.1c0-0.1,0-0.1,0-0.1
			c0,0,0-0.1,0-0.1l0.6-1.4c0,0,0.1-0.1,0.1-0.1c0,0,0.1,0,0.1,0.1c0.1,0.4,0.2,0.8,0.3,1.2c0.1,0.4,0.2,0.9,0.2,1.3
			c0.1,0.5,0.1,1,0.2,1.6c0.1,0.6,0.1,1.2,0.2,1.9c0.1,0.5,0.1,1,0.2,1.5c0,0.5,0.1,1,0.2,1.5c0,0.4,0.1,0.8,0.2,1.2
			c0.1,0.4,0.2,0.8,0.4,1.1c0.2,0.3,0.4,0.5,0.7,0.7c0.3,0.2,0.8,0.2,1.3,0.2C196.7,29.8,196.8,29.8,196.9,29.8
			C196.8,29.8,196.8,29.8,196.9,29.8z"/>
		<path class="st0" d="M202.5,19.4c-0.4,0.2-0.7,0.3-1.1,0.5c-0.4,0.2-0.8,0.4-1.1,0.5c-0.4,0.2-0.7,0.3-1,0.5
			c-0.3,0.1-0.6,0.3-0.8,0.4c0,0-0.1,0-0.1,0c0,0,0-0.1,0-0.1l0.5-1.1c0-0.1,0.1-0.1,0.1-0.1c0,0,0.1,0,0.1-0.1l3.9-1.7
			c0.1,0,0.2,0,0.1,0.1l-0.4,1C202.7,19.3,202.6,19.4,202.5,19.4z"/>
		<path class="st0" d="M196.7,29.8c0.3,0,0.6,0,0.9,0c0.3,0,0.6-0.1,0.8-0.1c0.3-0.1,0.5-0.2,0.7-0.3c0.2-0.1,0.4-0.3,0.5-0.5
			c0.2-0.4,0.4-0.8,0.6-1.2c0.2-0.4,0.4-0.8,0.6-1.1c0.1-0.1,0.2-0.3,0.3-0.5c0.1-0.2,0.3-0.3,0.4-0.5c0.2-0.1,0.3-0.3,0.5-0.4
			c0.2-0.1,0.3-0.1,0.5-0.1c0.3,0,0.5,0.2,0.8,0.4c0.3,0.3,0.5,0.6,0.7,0.9c0.2,0.4,0.3,0.7,0.5,1.1c0.1,0.4,0.2,0.7,0.1,0.9
			c0,0.2,0,0.3-0.1,0.5c0,0.2-0.1,0.3-0.1,0.5c-0.1,0.2-0.1,0.3-0.2,0.4c-0.1,0.1-0.2,0.2-0.4,0.3c-0.3,0.1-0.6,0.1-1,0
			c-0.4-0.1-0.7-0.2-1-0.3c-0.3-0.1-0.6-0.2-0.8-0.3c-0.3-0.1-0.5-0.3-0.8-0.5c-0.3,0.8-0.7,1.4-1.3,1.8c-0.6,0.4-1.3,0.6-2.1,0.6
			h-0.2c-0.2,0-0.4-0.1-0.5-0.3c-0.1-0.2-0.2-0.4-0.2-0.6s0.1-0.4,0.2-0.6c0.1-0.2,0.3-0.3,0.5-0.3H196.7z M203,27.5
			c-0.1-0.2-0.3-0.3-0.4-0.5c-0.2-0.2-0.4-0.2-0.7-0.2c-0.2,0-0.4,0.1-0.6,0.3c-0.2,0.2-0.3,0.4-0.4,0.6c0.2,0.2,0.4,0.3,0.6,0.4
			c0.2,0.1,0.4,0.2,0.6,0.3c0.2,0.1,0.5,0.1,0.7,0.1c0.2,0,0.5,0,0.7,0c0,0,0-0.1,0-0.2c0-0.1-0.1-0.2-0.1-0.3
			c-0.1-0.1-0.1-0.2-0.2-0.3C203.1,27.6,203,27.5,203,27.5z"/>
		<path class="st0" d="M211.3,22.1c0.2-0.1,0.5-0.3,0.7-0.4c0.2-0.1,0.5-0.3,0.7-0.4c0.2-0.2,0.4-0.3,0.7-0.5
			c0.2-0.2,0.4-0.4,0.6-0.6c-0.2-0.1-0.4-0.2-0.6-0.3c-0.2-0.1-0.4-0.3-0.5-0.4c-0.1-0.1-0.1-0.2-0.1-0.3c0-0.1,0-0.2,0-0.3
			c0.1-0.2,0.1-0.4,0.2-0.6c0.1-0.2,0.2-0.4,0.4-0.5c0.1-0.2,0.3-0.3,0.5-0.4c0.2-0.1,0.4-0.2,0.5-0.1c0.2,0,0.4,0.1,0.5,0.3
			c0.1,0.2,0.2,0.4,0.2,0.7c0,0.3,0,0.5,0,0.8c0,0.3,0,0.4-0.1,0.5c0,0,0,0.1,0,0.1c0.1,0,0.1,0.1,0.2,0.1c0,0,0.1,0.1,0.1,0.2
			c0,0.1,0.1,0.2,0,0.4c0,0.2-0.1,0.3-0.1,0.3c-0.1,0.1-0.1,0.1-0.2,0.1c0,0-0.1,0-0.1-0.1c0,0-0.1-0.1-0.1-0.1c0,0-0.1-0.1-0.1-0.1
			c-0.2,0.2-0.4,0.5-0.6,0.7c-0.2,0.2-0.5,0.4-0.7,0.6c-0.3,0.2-0.5,0.3-0.8,0.5c-0.3,0.1-0.6,0.3-0.9,0.4c-0.1,0-0.2,0.1-0.4,0.1
			c-0.1,0-0.2,0-0.2,0c0,0,0-0.1,0.1-0.2C211.1,22.2,211.2,22.2,211.3,22.1z M213.3,18.5c0.2,0.2,0.3,0.4,0.5,0.5
			c0.2,0.1,0.4,0.2,0.6,0.2h0c0-0.1,0-0.1,0-0.2c0-0.1,0-0.2,0-0.3c0-0.1,0-0.2,0-0.3c0-0.1-0.1-0.2-0.1-0.2c-0.1,0-0.1-0.1-0.2-0.1
			c-0.1,0-0.2,0-0.3,0.1c-0.1,0-0.2,0.1-0.3,0.1C213.4,18.4,213.3,18.4,213.3,18.5z"/>
		<path class="st0" d="M220.2,13.5c-0.4,0.2-0.7,0.3-1.1,0.5c-0.4,0.2-0.8,0.4-1.1,0.5c-0.4,0.2-0.7,0.3-1,0.5
			c-0.3,0.1-0.6,0.3-0.8,0.4c0,0-0.1,0-0.1,0c0,0,0-0.1,0-0.1l0.5-1.1c0-0.1,0.1-0.1,0.1-0.1c0,0,0.1,0,0.1-0.1l3.9-1.7
			c0.1,0,0.2,0,0.1,0.1l-0.4,1C220.3,13.4,220.3,13.5,220.2,13.5z"/>
		<path class="st0" d="M219.7,29c-0.1-0.8-0.2-1.6-0.3-2.5c-0.1-0.9-0.2-1.8-0.4-2.7c-0.1-0.9-0.3-1.8-0.4-2.7
			c-0.1-0.9-0.3-1.7-0.4-2.5c0-0.2-0.1-0.4-0.1-0.6c-0.1-0.2-0.1-0.4-0.3-0.5c0-0.1-0.1-0.1-0.1-0.2c0,0,0-0.1,0.1-0.2
			c0.1-0.2,0.2-0.4,0.3-0.6c0.1-0.2,0.2-0.4,0.3-0.6c0-0.1,0.1-0.1,0.1-0.1c0,0,0.1,0,0.1,0.1c0.1,0.2,0.1,0.3,0.2,0.5
			c0.1,0.2,0.2,0.4,0.3,0.5c0.1,0.2,0.2,0.3,0.3,0.5c0.1,0.1,0.3,0.3,0.4,0.4c-0.1,0.2-0.2,0.3-0.3,0.5c-0.1,0.1-0.1,0.2-0.2,0.3
			c-0.1,0.1-0.1,0.2-0.1,0.3c0,0.1,0,0.2,0,0.3c0.1,0.6,0.1,1.2,0.2,1.9c0.1,0.7,0.2,1.4,0.3,2c0.1,0.7,0.2,1.4,0.3,2.1
			s0.2,1.4,0.2,2c0,0.2,0,0.5,0,0.8c0,0.3,0,0.7-0.1,1c-0.1,0.3-0.1,0.7-0.2,1c-0.1,0.3-0.2,0.6-0.4,0.7c-0.1,0.2-0.3,0.3-0.5,0.4
			c-0.2,0.1-0.4,0.1-0.7,0.2c-0.2,0-0.5,0-0.7,0c-0.2,0-0.5-0.1-0.7-0.2c-0.2-0.1-0.5-0.3-0.6-0.5c-0.2-0.2-0.4-0.4-0.5-0.6
			c-0.2-0.2-0.3-0.5-0.4-0.7c-0.1-0.3-0.2-0.5-0.3-0.8c-0.2,0.3-0.5,0.5-0.7,0.7c-0.2,0.2-0.5,0.4-0.7,0.5c-0.3,0.1-0.5,0.2-0.8,0.2
			c-0.3,0-0.7,0-1.1,0c-0.1,0-0.2,0-0.3-0.1c-0.1,0-0.2-0.1-0.3-0.2c-0.1-0.1-0.2-0.2-0.2-0.3c0-0.1-0.1-0.2,0-0.3
			c0.1-0.4,0.2-0.8,0.3-1.1c0.1-0.4,0.3-0.7,0.5-0.9c0.3-0.4,0.7-0.8,1.1-1.1c0.5-0.3,1-0.6,1.6-0.8l-0.1-0.8c0-0.1,0-0.1,0-0.3
			c0-0.1,0.1-0.2,0.1-0.3c0-0.1,0.1-0.2,0.1-0.3c0-0.1,0.1-0.2,0.1-0.3c0-0.1,0.1-0.1,0.1-0.1c0.1,0,0.1,0,0.1,0.1
			c0.1,0.6,0.2,1.3,0.3,1.9c0.1,0.7,0.3,1.3,0.4,2c0.1,0.4,0.2,0.7,0.3,1c0.1,0.3,0.2,0.6,0.4,0.8c0.2,0.2,0.3,0.4,0.6,0.6
			c0.2,0.2,0.5,0.3,0.8,0.3c0.1,0,0.3,0,0.5,0c0.2,0,0.5,0,0.7-0.1c0.2,0,0.4-0.1,0.6-0.2C219.7,29.3,219.7,29.2,219.7,29z
			 M215.1,27.7c-0.1-0.3-0.1-0.5-0.2-0.7c-0.1-0.2-0.1-0.5-0.2-0.8c-0.5,0.2-1,0.4-1.5,0.6c-0.4,0.3-0.8,0.6-1.2,1
			c0,0.1-0.1,0.1-0.1,0.2c0,0.1,0,0.1,0.1,0.1c0.2,0.1,0.5,0.1,0.8,0.1c0.3,0,0.6,0,0.9-0.1c0.3-0.1,0.5-0.1,0.8-0.2
			C214.8,27.9,215,27.8,215.1,27.7z"/>
		<path class="st0" d="M232.3,21.6c0.2-0.1,0.5-0.3,0.7-0.4c0.2-0.1,0.5-0.3,0.7-0.4c0.2-0.2,0.4-0.3,0.7-0.5
			c0.2-0.2,0.4-0.4,0.6-0.6c-0.2-0.1-0.4-0.2-0.6-0.3c-0.2-0.1-0.4-0.3-0.5-0.4c-0.1-0.1-0.1-0.2-0.1-0.3c0-0.1,0-0.2,0-0.3
			c0.1-0.2,0.1-0.4,0.2-0.6c0.1-0.2,0.2-0.4,0.4-0.5c0.1-0.2,0.3-0.3,0.5-0.4c0.2-0.1,0.4-0.2,0.5-0.1c0.2,0,0.4,0.1,0.5,0.3
			c0.1,0.2,0.2,0.4,0.2,0.7c0,0.3,0,0.5,0,0.8c0,0.3,0,0.4-0.1,0.5c0,0,0,0.1,0,0.1c0.1,0,0.1,0.1,0.2,0.1c0,0,0.1,0.1,0.1,0.2
			c0,0.1,0.1,0.2,0,0.4c0,0.2-0.1,0.3-0.1,0.3c-0.1,0.1-0.1,0.1-0.2,0.1c0,0-0.1,0-0.1-0.1c0,0-0.1-0.1-0.1-0.1c0,0-0.1-0.1-0.1-0.1
			c-0.2,0.2-0.4,0.5-0.6,0.7c-0.2,0.2-0.5,0.4-0.7,0.6c-0.3,0.2-0.5,0.3-0.8,0.5c-0.3,0.1-0.6,0.3-0.9,0.4c-0.1,0-0.2,0.1-0.4,0.1
			c-0.1,0-0.2,0-0.2,0c0,0,0-0.1,0.1-0.2C232.2,21.7,232.3,21.6,232.3,21.6z M234.4,18c0.2,0.2,0.3,0.4,0.5,0.5
			c0.2,0.1,0.4,0.2,0.6,0.2h0c0-0.1,0-0.1,0-0.2c0-0.1,0-0.2,0-0.3c0-0.1,0-0.2,0-0.3c0-0.1-0.1-0.2-0.1-0.2c-0.1,0-0.1-0.1-0.2-0.1
			c-0.1,0-0.2,0-0.3,0.1c-0.1,0-0.2,0.1-0.3,0.1C234.4,17.8,234.4,17.9,234.4,18z"/>
		<path class="st0" d="M228.6,24.9c-0.2,0.4-0.4,0.8-0.5,1.2c-0.1,0.4-0.2,0.8-0.1,1.3c0.1,0.5,0.3,1,0.6,1.3
			c0.3,0.3,0.7,0.6,1.2,0.8c0.5,0.2,1,0.3,1.5,0.4c0.5,0.1,1.1,0.1,1.6,0.1c0.8,0,1.5,0,2.3-0.1c0.7-0.1,1.5-0.2,2.2-0.4
			c0.7-0.2,1.4-0.4,2.2-0.7c0.7-0.3,1.4-0.6,2.1-0.9c0.1,0,0.1,0,0.1,0c0,0,0,0.1,0,0.1c-0.1,0.2-0.1,0.5,0,0.7
			c0,0.2,0.1,0.4,0.2,0.6c0.2,0.2,0.4,0.4,0.7,0.5c0.3,0.1,0.6,0.1,1,0.1h0.2c0.2,0,0.4,0.1,0.5,0.3c0.1,0.2,0.2,0.4,0.2,0.6
			c0,0.2-0.1,0.4-0.2,0.6c-0.1,0.2-0.3,0.3-0.5,0.3h-0.2c-0.8,0-1.4-0.2-1.9-0.5c-0.5-0.3-0.8-0.8-0.9-1.4c-0.7,0.3-1.3,0.6-1.9,0.9
			c-0.6,0.3-1.3,0.5-2,0.6c-0.7,0.2-1.4,0.3-2.1,0.4c-0.7,0.1-1.4,0.1-2.2,0.1c-0.6,0-1.2-0.1-1.9-0.2c-0.7-0.1-1.3-0.3-1.8-0.6
			c-0.6-0.3-1-0.7-1.4-1.1c-0.4-0.5-0.5-1.1-0.5-1.8c0-0.7,0.1-1.3,0.4-1.9c0.3-0.5,0.6-1,0.9-1.4c0,0,0.1-0.1,0.1-0.1
			c0,0,0.1,0,0.1,0c0,0,0,0.1,0,0.1C228.7,24.8,228.7,24.8,228.6,24.9z M236.1,25.8C236.1,25.8,236.1,25.9,236.1,25.8
			c-0.1,0.1-0.1,0.1-0.2,0l-1.3-1l-0.8,1.1c0,0.1-0.1,0.1-0.2,0l-1.4-1.1c0,0-0.1-0.1,0-0.1l0.9-1.2c0,0,0.1-0.1,0.1-0.1s0,0,0.1,0
			l1.3,1l0.9-1.1c0-0.1,0.1-0.1,0.1,0l1.4,1.1c0,0,0,0.1,0,0.2L236.1,25.8z"/>
		<path class="st0" d="M247.2,13.5c0,0.2,0,0.5-0.1,0.7c-0.1,0.2-0.2,0.4-0.3,0.6c-0.1,0.2-0.3,0.3-0.5,0.4
			c-0.2,0.1-0.5,0.2-0.8,0.2c-0.4,0-0.7-0.1-0.9-0.4c-0.3-0.2-0.4-0.6-0.4-0.9c0-0.2,0-0.4,0.1-0.7c0.1-0.3,0.2-0.6,0.3-0.8
			c0.1-0.3,0.3-0.5,0.5-0.7c0.2-0.2,0.5-0.3,0.7-0.3c0.3,0,0.5,0,0.7,0.2c0.2,0.1,0.3,0.3,0.4,0.5c0.1,0.2,0.2,0.4,0.2,0.7
			C247.2,13.1,247.2,13.3,247.2,13.5z M244.7,13.8c0,0.1,0,0.2,0.1,0.3c0.1,0.1,0.1,0.1,0.2,0.2c0.1,0,0.2,0.1,0.3,0.1
			c0.1,0,0.2,0,0.3,0c0.2,0,0.4,0,0.6-0.1c0.2-0.1,0.3-0.2,0.5-0.3c0-0.1,0-0.3,0-0.4c0-0.1-0.1-0.3-0.2-0.4
			c-0.1-0.1-0.2-0.2-0.3-0.3c-0.1-0.1-0.3-0.1-0.5-0.1c-0.1,0-0.2,0.1-0.3,0.2c-0.1,0.1-0.2,0.2-0.3,0.3c-0.1,0.1-0.2,0.2-0.2,0.3
			C244.7,13.5,244.7,13.6,244.7,13.8z"/>
		<path class="st0" d="M243.5,29.8h0.2c0.4,0,0.8,0,1.3-0.1c0.4-0.1,0.8-0.2,1.1-0.3c0.3-0.2,0.5-0.4,0.7-0.7
			c0.2-0.3,0.2-0.7,0.1-1.2l-1.1-8.8c0-0.1,0-0.2,0.1-0.3l0.5-1.1c0,0,0-0.1,0.1-0.1c0,0,0.1,0,0.1,0.1l1.2,9.8
			c0.1,0.5,0.1,0.9,0.3,1.2c0.1,0.3,0.3,0.6,0.5,0.9c0.2,0.2,0.5,0.4,0.9,0.5c0.3,0.1,0.8,0.2,1.3,0.2h0.2c0.2,0,0.4,0.1,0.5,0.3
			c0.1,0.2,0.2,0.4,0.2,0.6c0,0.2-0.1,0.4-0.2,0.6c-0.1,0.2-0.3,0.3-0.5,0.3h-0.2c-0.3,0-0.6,0-0.9-0.1c-0.3-0.1-0.6-0.2-0.9-0.3
			c-0.3-0.2-0.6-0.4-0.8-0.8c-0.3-0.3-0.5-0.8-0.6-1.4c-0.2,0.6-0.4,1.1-0.7,1.4c-0.3,0.3-0.6,0.6-1,0.8c-0.4,0.2-0.7,0.3-1.1,0.3
			c-0.4,0-0.7,0.1-1,0.1h-0.2c-0.2,0-0.4-0.1-0.5-0.3c-0.1-0.2-0.2-0.4-0.2-0.6c0-0.2,0.1-0.4,0.2-0.6
			C243.1,29.9,243.3,29.8,243.5,29.8z"/>
		<path class="st0" d="M256,19.4c-0.4,0.2-0.7,0.3-1.1,0.5c-0.4,0.2-0.8,0.4-1.1,0.5c-0.4,0.2-0.7,0.3-1,0.5
			c-0.3,0.1-0.6,0.3-0.8,0.4c0,0-0.1,0-0.1,0c0,0,0-0.1,0-0.1l0.5-1.1c0-0.1,0.1-0.1,0.1-0.1c0,0,0.1,0,0.1-0.1l3.9-1.7
			c0.1,0,0.2,0,0.1,0.1l-0.4,1C256.2,19.3,256.1,19.4,256,19.4z"/>
		<path class="st0" d="M250.6,31.5c-0.2,0-0.4-0.1-0.5-0.3c-0.1-0.2-0.2-0.4-0.2-0.6s0.1-0.4,0.2-0.6c0.1-0.2,0.3-0.3,0.5-0.3h0.2
			c0.2,0,0.5,0,0.7-0.1c0.3,0,0.5-0.1,0.8-0.2c0.3-0.1,0.6-0.2,0.9-0.3c0.3-0.1,0.6-0.3,0.9-0.5c-0.2-0.2-0.4-0.4-0.6-0.5
			c-0.2-0.2-0.4-0.2-0.6-0.3c-0.2,0-0.3,0-0.5,0c-0.2,0-0.3,0.1-0.4,0.2c-0.1,0.1-0.1,0.1-0.2,0c-0.1,0-0.1-0.1-0.1-0.2
			c0-0.1,0.1-0.2,0.1-0.4c0-0.2,0.1-0.3,0.2-0.5c0.1-0.2,0.2-0.3,0.3-0.5c0.1-0.2,0.2-0.3,0.4-0.4c0.6-0.6,1.4-0.8,2.3-0.8
			c0.3,0,0.5,0,0.8,0.1c0.3,0,0.6,0.1,0.8,0.2c0.3,0.1,0.5,0.3,0.7,0.5c0.2,0.2,0.3,0.4,0.3,0.7c0,0.4-0.1,0.8-0.3,1.1
			s-0.5,0.6-0.8,0.8c0.1,0.2,0.3,0.3,0.5,0.5c0.2,0.1,0.4,0.2,0.6,0.3c0.2,0.1,0.5,0.1,0.7,0.2c0.3,0,0.5,0,0.8,0h0.2
			c0.2,0,0.4,0.1,0.5,0.3c0.1,0.2,0.2,0.4,0.2,0.6s-0.1,0.4-0.2,0.6c-0.1,0.2-0.3,0.3-0.5,0.3h-0.2c-0.4,0-0.8,0-1.2-0.1
			c-0.4-0.1-0.7-0.2-1-0.3c-0.6-0.3-1.2-0.7-1.7-1.4c-0.7,0.6-1.5,1.1-2.2,1.4c-0.4,0.1-0.7,0.2-1.1,0.3c-0.4,0.1-0.7,0.1-1.1,0.1
			H250.6z"/>
		<path class="st0" d="M265.4,19.4c-0.4,0.2-0.7,0.3-1.1,0.5c-0.4,0.2-0.8,0.4-1.1,0.5c-0.4,0.2-0.7,0.3-1,0.5
			c-0.3,0.1-0.6,0.3-0.8,0.4c0,0-0.1,0-0.1,0c0,0,0-0.1,0-0.1l0.5-1.1c0-0.1,0.1-0.1,0.1-0.1c0,0,0.1,0,0.1-0.1l3.9-1.7
			c0.1,0,0.2,0,0.1,0.1l-0.4,1C265.6,19.3,265.5,19.4,265.4,19.4z"/>
		<path class="st0" d="M265.4,28.5c-0.2-0.1-0.4-0.2-0.7-0.4c-0.3-0.1-0.6-0.3-0.9-0.4c-0.3-0.1-0.6-0.2-1-0.3
			c-0.3-0.1-0.6-0.2-0.8-0.2c-0.4-0.1-0.7,0-1.1,0.1c-0.4,0.1-0.7,0.3-1,0.5c0,0-0.1,0-0.1,0c0,0-0.1-0.1-0.1-0.1
			c0-0.2,0.1-0.4,0.1-0.6c0.1-0.2,0.2-0.4,0.3-0.5c0.3-0.4,0.6-0.6,1-0.8c0.4-0.2,0.8-0.3,1.3-0.2c0.4,0.1,0.7,0.2,1.1,0.3
			c0.4,0.1,0.8,0.3,1.2,0.5c0.4,0.2,0.8,0.4,1.2,0.5c0.4,0.2,0.8,0.3,1.2,0.5c0.6,0.2,1.3,0.4,1.9,0.5c0.7,0.1,1.3,0.1,2,0.1
			c0.1,0,0.1,0,0.1,0.2l-0.8,1.5c-0.5-0.1-0.9-0.2-1.3-0.2c-0.4,0-0.8,0-1.2,0c-0.4,0-0.8,0.1-1.1,0.2c-0.4,0.1-0.8,0.2-1.2,0.4
			c-0.4,0.2-0.8,0.3-1.2,0.5c-0.4,0.2-0.8,0.3-1.2,0.4c-0.6,0.2-1.3,0.3-1.9,0.4c-0.6,0.1-1.3,0.2-2,0.2c0,0-0.1,0-0.1,0
			c0,0-0.1,0-0.1,0c-0.2,0-0.4-0.1-0.5-0.3c-0.1-0.2-0.2-0.4-0.2-0.6s0.1-0.4,0.2-0.6c0.1-0.2,0.3-0.3,0.5-0.3c0,0,0.1,0,0.1,0
			c0,0,0.1,0,0.1,0c0.5,0,1.1,0,1.6,0c0.5-0.1,1.1-0.1,1.6-0.3c0.5-0.1,1.1-0.3,1.6-0.4C264.4,28.9,264.9,28.8,265.4,28.5z M264,33
			l1.3,1.1c0.1,0,0.1,0.1,0,0.2l-0.9,1.1c0,0.1-0.1,0.1-0.2,0l-1.3-1.1c-0.1,0-0.1-0.1,0-0.2l0.9-1.1C263.9,33,263.9,33,264,33z"/>
		<path class="st0" d="M275.9,20.5c-0.4,0.2-0.7,0.3-1.1,0.5c-0.4,0.2-0.8,0.4-1.1,0.5c-0.4,0.2-0.7,0.3-1,0.5
			c-0.3,0.1-0.6,0.3-0.8,0.4c0,0-0.1,0-0.1,0c0,0,0-0.1,0-0.1l0.5-1.1c0-0.1,0.1-0.1,0.1-0.1c0,0,0.1,0,0.1-0.1l3.9-1.7
			c0.1,0,0.2,0,0.1,0.1l-0.4,1C276,20.4,276,20.5,275.9,20.5z"/>
		<path class="st0" d="M276.4,29.5c-0.1,0.3-0.3,0.6-0.5,0.8c-0.3,0.2-0.6,0.3-1,0.3c-0.2,0-0.4,0-0.6-0.2c-0.2-0.1-0.3-0.2-0.5-0.4
			c-0.1-0.2-0.2-0.3-0.3-0.6c-0.1-0.2-0.1-0.4-0.1-0.6c0-0.2,0-0.3,0.1-0.5c0-0.2,0.1-0.4,0.2-0.6c0.1-0.2,0.2-0.4,0.3-0.6
			c0.1-0.2,0.2-0.4,0.3-0.5c0.1-0.2,0.3-0.3,0.4-0.4c0.1-0.1,0.3-0.2,0.5-0.2c0.3,0,0.5,0.1,0.8,0.3c0.2,0.2,0.5,0.5,0.6,0.8
			c0.2,0.3,0.3,0.7,0.4,1.1c0.1,0.4,0.1,0.8,0.1,1.2c0,0.5-0.1,1.1-0.2,1.6c-0.1,0.6-0.3,1.1-0.5,1.6c-0.2,0.5-0.4,1-0.7,1.5
			c-0.3,0.5-0.6,0.9-0.9,1.2c-0.4,0.5-0.9,0.9-1.4,1.1c-0.5,0.3-1,0.4-1.6,0.5c-0.5,0.1-1.1,0.1-1.7,0c-0.6-0.1-1.2-0.2-1.8-0.4
			c-0.1,0-0.1-0.1-0.1-0.1c0,0,0-0.1,0-0.2c0-0.1,0.1-0.1,0.1-0.1c0.1,0,0.1-0.1,0.2,0c0.6,0,1.1,0,1.6,0c0.5-0.1,0.9-0.2,1.4-0.4
			c0.4-0.2,0.8-0.4,1.2-0.7c0.4-0.3,0.8-0.6,1.2-1c0.3-0.2,0.5-0.5,0.8-0.8c0.3-0.3,0.5-0.7,0.7-1c0.2-0.4,0.4-0.7,0.5-1.1
			c0.1-0.4,0.2-0.7,0.3-1c0-0.1,0-0.1,0-0.2c0-0.1,0-0.2,0-0.2c0-0.1,0-0.2-0.1-0.2C276.4,29.6,276.4,29.6,276.4,29.5z M275,27.7
			c-0.1,0-0.2,0-0.3,0.1c-0.1,0.1-0.2,0.2-0.2,0.3c-0.1,0.1-0.1,0.2-0.1,0.3c0,0.1,0,0.2,0,0.2c0.1,0.2,0.2,0.3,0.4,0.3
			c0.2,0.1,0.3,0.1,0.5,0.1c0.2,0,0.4-0.1,0.5-0.1c0.2-0.1,0.3-0.1,0.3-0.2c0-0.1,0-0.2-0.1-0.3c-0.1-0.1-0.2-0.2-0.3-0.3
			c-0.1-0.1-0.2-0.2-0.3-0.2C275.2,27.7,275.1,27.7,275,27.7z"/>
		<path d="M292.4,27c0,0.1-0.1,0.3-0.2,0.4c-0.2,0.2-0.4,0.4-0.8,0.6c0,0.4-0.1,0.7-0.2,1.1c-0.1,0.3-0.2,0.5-0.3,0.5
			c-0.4-0.4-0.7-0.7-1.1-1c-0.4-0.3-0.8-0.5-1.2-0.5c0,0.4,0.2,0.8,0.6,1.2c0.3,0.3,0.6,0.7,0.9,1c0,0.2-0.3,0.3-1,0.5
			c-0.5,0.1-0.9,0.1-1.2,0.1c-0.5,1.4-1.1,2.7-2,3.9c-0.4,0.5-0.9,1.1-1.5,1.7c-0.8,0.8-1.4,1.2-1.8,1.2c-0.1,0-0.2-0.1-0.2-0.2
			c0-0.1,0.2-0.4,0.7-0.9c0.7-0.8,1.2-1.4,1.5-2.1c0.6-1.1,1-2.3,1.2-3.7c-0.4-0.1-0.7-0.1-0.8-0.2c-0.1-0.1-0.2-0.1-0.2-0.3
			c0.9-0.8,1.4-1.5,1.4-2.2c-0.4,0-0.8,0.2-1.2,0.5c-0.2,0.2-0.6,0.6-1,1c-0.1,0-0.2-0.2-0.4-0.5c-0.1-0.4-0.2-0.7-0.2-1.1
			c-0.4-0.2-0.6-0.4-0.7-0.4c-0.3-0.2-0.4-0.4-0.4-0.6c0-0.1,0.1-0.3,0.2-0.4c0.1-0.1,0.4-0.3,0.8-0.5c0-1.1,0.2-1.6,0.6-1.6
			c0.8,0.9,1.5,1.3,2.2,1.4c0-0.3-0.2-0.8-0.5-1.2c0,0-0.3-0.4-0.9-1c0-0.1,0.1-0.2,0.2-0.2c0.2-0.1,0.4-0.1,0.9-0.2
			c-0.2-1.1-0.6-2.2-1.3-3.3c-0.6-1.1-1.4-2.1-2.2-2.8c-0.1-0.1-0.2-0.2-0.2-0.3c0-0.1,0.1-0.2,0.3-0.2c0.3,0,0.7,0.2,1.3,0.6
			c1.8,1.3,3.2,3.2,4.1,5.8c1.4,0,2.1,0.2,2.1,0.6c-0.4,0.3-0.7,0.7-0.9,1c-0.3,0.4-0.4,0.8-0.4,1.2c0.3,0,0.7-0.2,1-0.5l1.1-1
			c0.2,0,0.4,0.5,0.5,1.4c0,0.1,0,0.2,0,0.3C292.1,26.4,292.4,26.7,292.4,27z M289.3,23.7c0,0-0.1-0.1-0.4-0.1
			c-0.2,0-0.4-0.1-0.5-0.1h-0.4c-0.1,0-0.2,0-0.3,0.1c-0.4-1.2-0.9-2.4-1.7-3.5c-0.9-1.2-1.8-2.2-3-3c0.8,0.7,1.4,1.6,2,2.6
			c0.7,1.2,1.2,2.5,1.4,3.8c-0.5,0-0.8,0.1-0.8,0.2c0.6,0.5,1,1,1.3,1.5c0.1-0.2,0.2-0.5,0.3-0.7c0,0,0.1-0.1,0.1-0.3
			c0.1-0.2,0.1-0.3,0.2-0.3c0.2,0,0.4,0.5,0.7,1.4c0.2-0.3,0.3-0.7,0.6-0.9C288.8,24.2,289,24,289.3,23.7z M285.9,27.8
			c-0.1-0.1-0.5-0.2-1.1-0.4c-0.4-0.1-0.6-0.2-0.6-0.3c0,0,0.3-0.2,0.9-0.4c0.1-0.1,0.4-0.2,0.7-0.3c-0.3-0.1-0.7-0.3-1-0.5
			c-0.1-0.1-0.4-0.3-0.7-0.6c-0.1,0-0.2,0.4-0.2,1.2c-0.6,0.3-0.9,0.6-0.9,0.7c0,0.2,0.3,0.3,0.9,0.6c0,0.8,0.1,1.3,0.3,1.3
			c0,0,0.2-0.2,0.6-0.5C285.3,28.1,285.6,27.9,285.9,27.8z M289.4,30.3c-0.5-0.4-0.9-0.9-1.2-1.4c-0.1,0.2-0.2,0.4-0.3,0.7
			c0,0-0.1,0.2-0.2,0.4c-0.1,0.2-0.2,0.3-0.2,0.3c0,0-0.1-0.1-0.2-0.3c-0.1-0.2-0.1-0.3-0.2-0.3c0-0.1-0.1-0.3-0.3-0.7
			c-0.1,0.3-0.3,0.6-0.5,0.8c-0.2,0.2-0.4,0.4-0.6,0.6c0,0.1,0.3,0.1,0.8,0.3c-0.3,1.3-0.5,2.1-0.6,2.4c-0.5,1.4-1.3,2.8-2.4,4.1
			c1.9-1.3,3.3-3.4,4.3-6.5c0.7,0,1,0,0.9,0C289.1,30.5,289.4,30.4,289.4,30.3z M288.8,27c0-0.4-0.1-0.7-0.4-0.9
			c-0.2-0.2-0.6-0.3-0.9-0.3c-0.3,0-0.6,0.1-0.9,0.4c-0.3,0.2-0.4,0.5-0.4,0.9c0,0.4,0.1,0.7,0.4,0.9c0.3,0.2,0.6,0.4,0.9,0.4
			c0.4,0,0.7-0.1,0.9-0.4C288.6,27.7,288.8,27.4,288.8,27z M291.9,27c0-0.1-0.1-0.2-0.2-0.3c-0.2-0.1-0.4-0.2-0.7-0.3
			c0-0.4,0-0.7-0.1-0.9c-0.1-0.2-0.1-0.4-0.2-0.4c0,0-0.2,0.2-0.5,0.5c-0.3,0.3-0.7,0.6-1.1,0.7c0.2,0.1,0.4,0.2,0.8,0.4
			c0,0,0.2,0.1,0.6,0.2c0.3,0.1,0.4,0.2,0.4,0.2c0,0.1-0.2,0.2-0.6,0.3c-0.6,0.2-1,0.3-1.1,0.3c0.4,0.1,0.7,0.3,1,0.5
			c0.1,0.1,0.4,0.3,0.6,0.6c0.1,0,0.1-0.1,0.2-0.3c0-0.1,0-0.4,0-0.8C291.6,27.3,291.9,27.1,291.9,27z"/>
	</g>
	<rect class="st2" width="404" height="49.9"/>
</g>
</svg>
