<?xml version="1.0" encoding="utf-8"?>
<!-- Generator: Adobe Illustrator 19.2.0, SVG Export Plug-In . SVG Version: 6.00 Build 0)  -->
<svg version="1.1" id="Layer_1" xmlns="http://www.w3.org/2000/svg" xmlns:xlink="http://www.w3.org/1999/xlink" x="0px" y="0px"
	 viewBox="0 0 404 49.9" style="enable-background:new 0 0 404 49.9;" xml:space="preserve">
<style type="text/css">
	.st0{fill:#002F3D;}
	.st1{fill:#FF0000;}
	.st2{fill:none;}
</style>
<g>
	<g>
		<path d="M138.1,37.6c0,0.1-0.1,0.1-0.2,0.1c-0.4,0-1.1-0.4-1.9-1.1c-0.6-0.5-1.1-1.1-1.5-1.6c-0.9-1.1-1.5-2.4-2.1-3.8
			c-1.3,0-2-0.2-2.1-0.5c0.4-0.3,0.7-0.7,0.9-1c0.3-0.4,0.4-0.8,0.4-1.2c-0.3,0-0.7,0.2-1.2,0.6c-0.1,0.1-0.4,0.4-1,0.9
			c-0.1,0-0.2-0.1-0.3-0.4c-0.1-0.3-0.2-0.7-0.2-1.2c-0.3-0.2-0.6-0.3-0.8-0.5c-0.2-0.2-0.3-0.3-0.3-0.4c0-0.2,0.2-0.4,0.5-0.7
			c0.2-0.1,0.4-0.3,0.6-0.4c0-0.4,0-0.7,0.1-1.1c0.1-0.3,0.2-0.5,0.3-0.5c0.4,0.4,0.8,0.7,1,0.9c0.4,0.3,0.9,0.5,1.2,0.5
			c0-0.4-0.2-0.8-0.5-1.2c-0.3-0.3-0.6-0.7-1-1c0-0.2,0.3-0.3,1-0.5c0.5-0.1,0.9-0.2,1.2-0.2c0.9-2.7,2.3-4.7,4-6.1
			c0.6-0.5,1-0.7,1.2-0.7c0.1,0,0.2,0.1,0.2,0.2c0,0.1-0.2,0.4-0.7,0.9c-1.5,1.7-2.3,3.6-2.7,5.7c0.4,0.1,0.7,0.1,0.8,0.2
			c0.1,0.1,0.2,0.2,0.2,0.3c-0.4,0.3-0.7,0.7-0.9,1c-0.3,0.4-0.5,0.8-0.5,1.2c0.4,0,0.8-0.2,1.1-0.5c0.2-0.2,0.6-0.6,1-1
			c0.2,0,0.3,0.2,0.5,0.7c0.1,0.4,0.1,0.7,0.1,0.9c0.7,0.3,1.1,0.7,1.1,1c0,0.3-0.3,0.6-1,1c0,0.6-0.1,1.1-0.2,1.3
			c-0.1,0.2-0.2,0.2-0.4,0.3c-0.7-0.9-1.5-1.3-2.2-1.4c0,0.3,0.2,0.8,0.5,1.2c0.1,0.2,0.5,0.5,1,1c0,0.1-0.1,0.1-0.2,0.2
			c-0.1,0.1-0.4,0.1-0.9,0.3c0.2,1.1,0.6,2.2,1.3,3.3c0.7,1.1,1.4,2.1,2.2,2.8C138,37.4,138.1,37.5,138.1,37.6z M131.2,28
			c-0.2-0.1-0.5-0.2-0.8-0.3c0,0-0.2-0.1-0.5-0.2c-0.3-0.1-0.4-0.2-0.4-0.3c0,0,0.3-0.2,1-0.3c0.1-0.1,0.4-0.2,0.7-0.3
			c-0.4-0.1-0.7-0.3-1-0.5c-0.1-0.1-0.4-0.4-0.7-0.6c-0.1,0-0.1,0.1-0.1,0.3c0,0.2,0,0.4,0,0.8c-0.6,0.3-0.9,0.6-0.9,0.7
			c0,0.1,0.1,0.2,0.3,0.3c0.2,0.1,0.4,0.2,0.7,0.3c0,0.1,0,0.4,0.1,0.7c0.1,0.4,0.1,0.6,0.2,0.6l0.7-0.7
			C130.6,28.3,130.9,28.1,131.2,28z M136.9,17.3c-1.8,1.2-3.2,3.4-4.3,6.5c-0.7,0-1.2,0-1.4,0.1c-0.2,0-0.3,0.1-0.3,0.2
			c0.5,0.4,0.9,0.9,1.2,1.4c0.1-0.3,0.3-0.5,0.4-0.6c0.1-0.2,0.2-0.5,0.4-0.7c0,0,0.1,0.1,0.1,0.3c0,0.2,0.1,0.3,0.1,0.3
			c0.1,0.1,0.2,0.3,0.4,0.7c0.1-0.3,0.3-0.6,0.5-0.9c0.1-0.1,0.3-0.4,0.6-0.6c0-0.1-0.1-0.1-0.3-0.2c-0.1,0-0.3,0-0.5-0.1
			c0.3-1.2,0.5-2,0.6-2.4C134.9,20.1,135.7,18.7,136.9,17.3z M137.3,37.2c-0.7-0.7-1.4-1.5-2-2.6c-0.7-1.2-1.1-2.5-1.4-3.8
			c0.5,0,0.8-0.1,0.8-0.2c-0.5-0.5-1-1-1.2-1.5c-0.1,0.2-0.2,0.4-0.3,0.7c0,0-0.1,0.2-0.2,0.4c-0.1,0.2-0.1,0.3-0.2,0.3
			c-0.2,0-0.4-0.4-0.7-1.3c-0.2,0.4-0.4,0.7-0.6,0.9s-0.4,0.4-0.6,0.6c0,0,0.1,0.1,0.3,0.1c0.1,0,0.4,0.1,0.6,0.1c0.2,0,0.3,0,0.4,0
			c0.1,0,0.3,0,0.3,0C133.6,33.6,135.2,35.8,137.3,37.2z M134.2,27.3c0-0.4-0.1-0.7-0.4-0.9c-0.3-0.2-0.6-0.4-0.9-0.4
			c-0.4,0-0.7,0.1-0.9,0.4c-0.2,0.2-0.4,0.6-0.4,0.9c0,0.3,0.1,0.6,0.4,0.9c0.3,0.2,0.6,0.4,0.9,0.4c0.4,0,0.7-0.1,0.9-0.4
			C134,28,134.2,27.7,134.2,27.3z M137.2,27.2c0-0.2-0.3-0.3-0.9-0.6c0-0.4,0-0.7-0.1-0.9c-0.1-0.2-0.1-0.4-0.2-0.4
			c-0.1,0.1-0.3,0.3-0.7,0.7c-0.3,0.3-0.6,0.4-0.9,0.6c0.1,0,0.4,0.2,1.1,0.4c0.4,0.1,0.6,0.3,0.6,0.3c0,0.1-0.2,0.2-0.6,0.3
			c-0.3,0.1-0.7,0.2-1.1,0.3c0.3,0.1,0.6,0.3,1,0.5c0.1,0.1,0.4,0.3,0.6,0.6c0.1,0,0.2-0.4,0.2-1.2
			C136.9,27.6,137.2,27.4,137.2,27.2z"/>
		<path class="st0" d="M145.8,17.7c-0.1-0.1-0.1-0.2-0.1-0.3c0-0.1,0-0.2,0-0.3c0.1-0.2,0.2-0.3,0.3-0.5c0.1-0.2,0.2-0.3,0.4-0.5
			c0.1-0.2,0.3-0.3,0.5-0.4c0.2-0.1,0.3-0.1,0.5-0.1c0.2,0,0.4,0.1,0.5,0.3c0.1,0.2,0.2,0.4,0.2,0.6c0,0.2,0,0.5,0,0.7
			c0,0.2-0.1,0.4-0.1,0.5c0,0,0,0.1,0.1,0.1c0.1,0,0.1,0.1,0.2,0.1c0,0,0.1,0.1,0.1,0.2c0,0.1,0,0.2,0,0.3c0,0.1-0.1,0.2-0.1,0.3
			c0,0.1-0.1,0.1-0.1,0.1c-0.1,0-0.1,0-0.2-0.1c0,0-0.1-0.1-0.1-0.1c0,0-0.1-0.1-0.1-0.1c-0.2,0.3-0.5,0.5-0.7,0.7
			c-0.2,0.2-0.5,0.4-0.7,0.6c-0.3,0.2-0.5,0.3-0.8,0.5c-0.3,0.1-0.6,0.3-0.9,0.4c0,0-0.1,0-0.2,0.1c-0.1,0-0.1,0-0.2,0
			c-0.1,0-0.1,0-0.2,0c-0.1,0-0.1,0-0.1,0c-0.1,0-0.1-0.1,0-0.1c0.1,0,0.1-0.1,0.3-0.2c0.2-0.1,0.5-0.3,0.7-0.4
			c0.3-0.2,0.5-0.3,0.8-0.5c0.3-0.2,0.5-0.3,0.7-0.5c0.2-0.2,0.5-0.4,0.7-0.6c-0.2-0.1-0.4-0.1-0.6-0.3
			C146.1,18,146,17.8,145.8,17.7z M145,18.6c0,0.1-0.1,0.1-0.1,0.1c0,0-0.1,0-0.1-0.1c-0.2-0.1-0.3-0.3-0.5-0.5
			c-0.2-0.2-0.2-0.5-0.2-0.7c0-0.2,0.1-0.5,0.2-0.8c0.1-0.3,0.2-0.6,0.4-0.9c0.2-0.3,0.4-0.6,0.6-0.9c0.3-0.3,0.6-0.5,0.9-0.8
			c0.4-0.3,0.8-0.4,1.2-0.5c0.4,0,0.8,0,1,0.1c0.2,0.1,0.3,0.2,0.5,0.4c0.1,0.2,0.2,0.3,0.2,0.5c0,0.2,0,0.4,0,0.6
			c0,0.2-0.1,0.4-0.2,0.5c0,0-0.1,0.1-0.1,0.1c0,0,0,0,0-0.1c0-0.1,0-0.2,0-0.3c0-0.1,0-0.2-0.1-0.3c0-0.1-0.1-0.2-0.2-0.3
			c-0.1-0.1-0.1-0.2-0.2-0.2c-0.2-0.1-0.3-0.1-0.6-0.1c-0.2,0-0.5,0-0.7,0.1c-0.2,0.1-0.5,0.1-0.7,0.3c-0.2,0.1-0.4,0.2-0.6,0.4
			c-0.3,0.3-0.6,0.6-0.8,1c-0.2,0.4-0.3,0.8-0.3,1.2c0,0,0,0.1,0.1,0.2c0,0.1,0.1,0.1,0.2,0.2c0.1,0.1,0.1,0.1,0.2,0.2
			c0.1,0.1,0.1,0.1,0.2,0.2c0,0,0.1,0.1,0.1,0.1c0,0,0,0.1,0,0.1c0,0.1,0,0.1-0.1,0.2S145,18.6,145,18.6z M146.3,16.9
			c0.1,0.2,0.3,0.3,0.5,0.5c0.2,0.1,0.4,0.2,0.5,0.2h0c0,0,0-0.1,0-0.1c0-0.1,0-0.2,0-0.3c0-0.1,0-0.2,0-0.3c0-0.1-0.1-0.2-0.1-0.3
			c-0.1,0-0.1-0.1-0.2-0.1c-0.1,0-0.2,0-0.3,0.1c-0.1,0-0.2,0.1-0.3,0.2C146.4,16.8,146.4,16.8,146.3,16.9z"/>
		<path class="st0" d="M147.9,23.7C147.9,23.8,147.9,23.8,147.9,23.7c-0.1,0.1-0.1,0.1-0.2,0l-1.3-1l-0.8,1.1c0,0.1-0.1,0.1-0.2,0
			l-1.4-1.1c0,0-0.1-0.1,0-0.1l0.9-1.2c0,0,0.1-0.1,0.1-0.1c0,0,0,0,0.1,0l1.3,1l0.9-1.1c0-0.1,0.1-0.1,0.1,0l1.4,1.1
			c0,0,0,0.1,0,0.2L147.9,23.7z M145.3,27.1l0.5-1.4c0.5,0.1,0.9,0.2,1.3,0.4c0.4,0.2,0.7,0.3,1,0.6c0.3,0.2,0.5,0.5,0.6,0.8
			c0.1,0.3,0.2,0.6,0.2,1c0,0.2,0,0.5-0.1,0.7c-0.1,0.3-0.2,0.6-0.3,0.9c-0.1,0.2-0.2,0.4-0.3,0.5c-0.1,0.2-0.3,0.3-0.5,0.4
			c-0.2,0.1-0.4,0.2-0.6,0.3c-0.2,0.1-0.4,0.1-0.6,0.1c-0.4,0-0.7-0.1-0.9-0.2c-0.2-0.1-0.4-0.3-0.5-0.5c-0.1-0.2-0.2-0.5-0.2-0.8
			c0-0.3,0-0.6,0-0.9c0.1-0.3,0.1-0.7,0.2-1C145.1,27.8,145.2,27.5,145.3,27.1C145.3,27.1,145.3,27.1,145.3,27.1z M145.9,29.6
			c0.1,0.1,0.3,0.1,0.5,0.1c0.2,0,0.4,0,0.6,0c0.2,0,0.4-0.1,0.6-0.2s0.4-0.2,0.5-0.4c0-0.2-0.1-0.4-0.3-0.6
			c-0.2-0.2-0.4-0.4-0.6-0.5c-0.2-0.2-0.5-0.3-0.7-0.4c-0.3-0.1-0.5-0.2-0.6-0.2c-0.1,0.1-0.2,0.3-0.2,0.5c-0.1,0.2-0.1,0.4-0.1,0.6
			c0,0.2,0,0.4,0.1,0.6C145.6,29.4,145.7,29.5,145.9,29.6z"/>
		<path class="st0" d="M155,21c-0.4,0.2-0.7,0.3-1.1,0.5c-0.4,0.2-0.8,0.4-1.1,0.5c-0.4,0.2-0.7,0.3-1,0.5c-0.3,0.1-0.6,0.3-0.8,0.4
			c0,0-0.1,0-0.1,0c0,0,0-0.1,0-0.1l0.5-1.1c0-0.1,0.1-0.1,0.1-0.1c0,0,0.1,0,0.1-0.1l3.9-1.7c0.1,0,0.2,0,0.1,0.1l-0.4,1
			C155.1,20.9,155,21,155,21z"/>
		<path class="st0" d="M165.4,35.1c-0.7,0.2-1.4,0.4-2.1,0.7c-0.7,0.2-1.3,0.4-2,0.6c-0.1,0-0.1,0-0.1-0.1l0.4-0.8
			c0,0,0-0.1,0.1-0.1c0,0,0,0,0.1-0.1c0.2-0.1,0.4-0.2,0.8-0.3c0.3-0.1,0.7-0.2,1-0.3c0.4-0.1,0.7-0.2,1.1-0.4
			c0.4-0.1,0.8-0.2,1.1-0.3c0.1,0,0.1,0,0.1,0c0,0,0,0,0,0.1l-0.5,0.8C165.5,35,165.4,35.1,165.4,35.1
			C165.4,35.1,165.4,35.1,165.4,35.1z"/>
		<path class="st0" d="M154.7,29.2c0.3-0.1,0.6-0.2,1-0.3c0.4-0.1,0.8-0.2,1.2-0.3c0.4-0.1,0.9-0.3,1.3-0.4c0.4-0.1,0.9-0.3,1.3-0.5
			c0,0,0,0,0,0c0,0,0,0,0,0.1c-0.1,0.4-0.1,0.7,0,0.9c0.1,0.3,0.2,0.5,0.3,0.6c0.2,0.2,0.4,0.3,0.6,0.4c0.3,0.1,0.5,0.2,0.8,0.2
			c0.3-0.4,0.7-0.9,1.1-1.3c0.4-0.4,0.8-0.8,1.2-1.2c0.4-0.4,0.8-0.7,1.3-1.1c0.4-0.3,0.9-0.6,1.4-0.9c0.2-0.1,0.5-0.2,0.8-0.2
			c0.3,0,0.6,0,0.9,0c0.3,0,0.6,0.1,0.9,0.2c0.3,0.1,0.6,0.3,0.8,0.4c0.2,0.2,0.4,0.4,0.6,0.6c0.2,0.2,0.2,0.5,0.3,0.7
			c0,0.5-0.1,1-0.3,1.4c-0.2,0.4-0.4,0.8-0.6,1.1c-0.3,0.3-0.6,0.6-0.9,0.8c-0.3,0.2-0.7,0.4-1.1,0.6c-0.4,0.2-0.8,0.3-1.2,0.4
			c-0.4,0.1-0.9,0.2-1.3,0.2c-0.3,0-0.7,0.1-1,0.1c-0.4,0-0.7,0-1.1,0c-0.4,0-0.7-0.1-1-0.1c-0.3,0-0.6-0.1-0.8-0.2
			c-0.1,0.1-0.1,0.3-0.2,0.4c-0.1,0.1-0.1,0.3-0.2,0.4c-0.1,0.2-0.2,0.3-0.3,0.2c-0.1,0-0.2-0.2-0.1-0.4c0-0.1,0.1-0.2,0.1-0.4
			c0-0.1,0.1-0.3,0.2-0.5c-0.2-0.1-0.4-0.1-0.6-0.2c-0.2-0.1-0.4-0.2-0.5-0.4c-0.2-0.1-0.3-0.3-0.4-0.5c-0.1-0.2-0.2-0.5-0.2-0.7
			c-0.5,0.2-1.1,0.4-1.6,0.6c-0.5,0.2-1.1,0.3-1.8,0.5c-0.1,0.8-0.3,1.6-0.5,2.3c-0.2,0.8-0.5,1.5-0.8,2.1c-0.3,0.6-0.8,1.1-1.3,1.5
			c-0.5,0.4-1.2,0.7-2,0.8c-0.7,0.1-1.3,0.1-1.9,0c-0.6-0.1-1.1-0.2-1.6-0.4c-0.1,0-0.2-0.1-0.3-0.2c0-0.1,0-0.1,0-0.2
			c0-0.1,0.1-0.1,0.2-0.1c0.1,0,0.2,0,0.2,0c0.3,0,0.7,0,0.9,0c0.3,0,0.5,0,0.8-0.1c0.3,0,0.5-0.1,0.8-0.2c0.3-0.1,0.5-0.2,0.8-0.3
			c0.5-0.2,0.9-0.5,1.4-0.8c0.4-0.4,0.8-0.8,1.1-1.3c0.3-0.5,0.6-1,0.9-1.5c0.3-0.5,0.5-1,0.6-1.5c-0.1,0-0.2,0-0.3,0
			c-0.1,0-0.2,0-0.2,0c0,0,0,0-0.1,0c0,0,0,0,0-0.1c0-0.2,0.1-0.5,0.1-0.7c0.1-0.2,0.1-0.4,0.1-0.7
			C154.6,29.2,154.6,29.2,154.7,29.2z M163.2,21.8l1.3,1.1c0.1,0,0.1,0.1,0,0.2l-0.9,1.1c0,0.1-0.1,0.1-0.2,0l-1.3-1.1
			c-0.1,0-0.1-0.1,0-0.2l0.9-1.1C163.1,21.7,163.2,21.7,163.2,21.8z M169.6,28.2c-0.2-0.3-0.4-0.6-0.7-0.8c-0.3-0.2-0.6-0.4-0.9-0.5
			c-0.3-0.1-0.7-0.2-1-0.2c-0.3,0-0.6,0-0.9,0.1c-0.4,0.1-0.7,0.3-1.1,0.6c-0.3,0.2-0.7,0.5-1,0.8c-0.3,0.3-0.6,0.6-0.9,0.9
			c-0.3,0.3-0.6,0.6-0.8,0.9c0.3,0.1,0.7,0.1,1.1,0.1c0.4,0,0.9,0,1.3-0.1c0.5,0,0.9-0.1,1.4-0.2c0.5-0.1,0.9-0.2,1.4-0.4
			c0.4-0.2,0.8-0.3,1.2-0.5C169,28.7,169.4,28.5,169.6,28.2z"/>
		<path class="st0" d="M176.7,29.8c0.2,0,0.4,0.1,0.5,0.3c0.1,0.2,0.2,0.4,0.2,0.6c0,0.2,0,0.4-0.2,0.6c-0.1,0.2-0.3,0.3-0.5,0.3
			c0,0,0,0-0.1,0c0,0-0.1,0-0.1,0c-0.6,0-1.2-0.1-1.6-0.4c-0.4-0.2-0.7-0.6-1-0.9c-0.3-0.5-0.5-1-0.6-1.5c-0.1-0.5-0.2-1.1-0.2-1.6
			c-0.1-0.6-0.1-1.2-0.2-1.9c-0.1-0.6-0.1-1.2-0.2-1.9c-0.1-0.6-0.2-1.3-0.3-1.9c-0.1-0.7-0.3-1.4-0.5-2.1c0-0.1,0-0.1,0-0.1
			c0,0,0-0.1,0-0.1l0.6-1.4c0,0,0.1-0.1,0.1-0.1c0,0,0.1,0,0.1,0.1c0.1,0.4,0.2,0.8,0.3,1.2c0.1,0.4,0.2,0.9,0.2,1.3
			c0.1,0.5,0.1,1,0.2,1.6c0.1,0.6,0.1,1.2,0.2,1.9c0.1,0.5,0.1,1,0.2,1.5c0,0.5,0.1,1,0.2,1.5c0,0.4,0.1,0.8,0.2,1.2
			c0.1,0.4,0.2,0.8,0.4,1.1c0.2,0.3,0.4,0.5,0.7,0.7c0.3,0.2,0.8,0.2,1.3,0.2C176.6,29.8,176.6,29.8,176.7,29.8
			C176.6,29.8,176.7,29.8,176.7,29.8z"/>
		<path class="st1" d="M180.5,13.9c-0.4,0.2-0.7,0.3-1.1,0.5c-0.4,0.2-0.8,0.4-1.1,0.5c-0.4,0.2-0.7,0.3-1,0.5
			c-0.3,0.1-0.6,0.3-0.8,0.4c0,0-0.1,0-0.1,0c0,0,0-0.1,0-0.1l0.5-1.1c0-0.1,0.1-0.1,0.1-0.1c0,0,0.1,0,0.1-0.1l3.9-1.7
			c0.1,0,0.2,0,0.1,0.1l-0.4,1C180.6,13.8,180.6,13.9,180.5,13.9z M178.5,18.2c-0.2,0.3-0.3,0.6-0.5,0.7c-0.2,0.2-0.5,0.3-0.8,0.3
			c-0.2,0-0.4-0.1-0.6-0.2c-0.2-0.1-0.3-0.4-0.3-0.7c0-0.1,0-0.3,0-0.4c0-0.2,0.1-0.3,0.1-0.4c0.1-0.1,0.1-0.2,0.2-0.3
			c0.1-0.1,0.2-0.2,0.2-0.2c0.1,0,0.1,0.1,0,0.2c0,0.1-0.1,0.2-0.1,0.3c0,0.1,0,0.2,0,0.3c0,0.1,0,0.2,0,0.3c0,0.1,0.1,0.1,0.1,0.2
			c0.1,0.1,0.2,0.1,0.3,0.1c0.1,0,0.2,0,0.4-0.1c0.1,0,0.2-0.1,0.3-0.2c0.1-0.1,0.2-0.2,0.3-0.3c0.1-0.1,0.2-0.2,0.2-0.4
			c0-0.2,0.1-0.3,0.1-0.4c0-0.1,0-0.2,0.1-0.3c0-0.1,0.1-0.1,0.2-0.1c0,0,0,0,0,0.1c0,0,0,0.1,0,0.1c0,0,0,0.1,0,0.1
			c0,0,0,0.1,0,0.1c0,0.2,0,0.4,0.1,0.5c0.1,0.1,0.2,0.2,0.4,0.2c0.1,0,0.2,0,0.4,0c0.2,0,0.3-0.1,0.4-0.2c0,0,0-0.1,0-0.1
			c0-0.1,0-0.1,0-0.2c0-0.1,0-0.1-0.1-0.2c0-0.1-0.1-0.1-0.1-0.1l0.4-0.8c0.1,0,0.1,0.1,0.2,0.2c0,0.1,0.1,0.3,0.1,0.4
			c0,0.2,0,0.3,0,0.5c0,0.2,0,0.3-0.1,0.4c-0.1,0.3-0.2,0.5-0.3,0.7c-0.1,0.2-0.4,0.4-0.7,0.4c-0.3,0-0.5,0-0.7-0.1
			C178.8,18.5,178.7,18.4,178.5,18.2z"/>
		<path class="st1" d="M179.4,25.6c0.2,0.2,0.4,0.4,0.6,0.7c0.2,0.2,0.3,0.5,0.4,0.7c0.1,0.3,0.2,0.5,0.3,0.8
			c0.1,0.3,0.1,0.5,0.1,0.8c0,0.1,0,0.3,0,0.4c0,0.2,0,0.3-0.1,0.5c0,0.2-0.1,0.3-0.1,0.4c0,0.1-0.1,0.3-0.2,0.4
			c-0.2,0.3-0.4,0.5-0.7,0.6c-0.3,0.2-0.6,0.3-1,0.4c-0.4,0.1-0.7,0.1-1.1,0.2c-0.4,0-0.7,0-1,0h-0.2c-0.2,0-0.4-0.1-0.5-0.3
			c-0.1-0.2-0.2-0.4-0.2-0.6c0-0.2,0.1-0.4,0.2-0.6c0.1-0.2,0.3-0.3,0.5-0.3h0.2c0.3,0,0.7,0,1,0c0.3,0,0.7,0,1-0.1
			c0.3,0,0.6-0.1,0.8-0.1c0.2-0.1,0.4-0.1,0.6-0.2c0.1,0,0.1-0.1,0.1-0.2c0-0.1,0-0.1,0-0.2c-0.1-0.2-0.2-0.4-0.2-0.5
			c-0.1-0.2-0.2-0.3-0.3-0.5c-0.1-0.2-0.2-0.3-0.4-0.4c-0.1-0.1-0.3-0.3-0.4-0.4l0.4-1.5c0-0.1,0.1-0.1,0.1-0.1
			C179.2,25.5,179.3,25.6,179.4,25.6z M178.3,20.9l1.3,1.1c0.1,0,0.1,0.1,0,0.2l-0.9,1.1c0,0.1-0.1,0.1-0.2,0l-1.3-1.1
			c-0.1,0-0.1-0.1,0-0.2l0.9-1.1C178.2,20.8,178.2,20.8,178.3,20.9z"/>
		<path class="st0" d="M189.2,38.1c-0.1,0-0.1,0-0.1-0.1l0.4-0.8c0,0,0-0.1,0.1-0.1c0,0,0,0,0.1-0.1c0.2-0.1,0.4-0.2,0.7-0.3
			c0.3-0.1,0.6-0.2,1-0.3c0.4-0.1,0.7-0.2,1.1-0.4c0.4-0.1,0.8-0.2,1.1-0.4c0.1,0,0.1,0,0.1,0c0,0,0,0,0,0.1l-0.5,0.9
			c0,0,0,0.1-0.1,0.1c0,0,0,0-0.1,0c-0.7,0.2-1.3,0.4-2,0.7C190.5,37.6,189.9,37.9,189.2,38.1z M189.4,36.1c-0.1,0-0.1,0-0.1-0.1
			l0.4-0.8c0,0,0-0.1,0.1-0.1c0,0,0,0,0.1-0.1c0.2-0.1,0.4-0.1,0.7-0.2c0.3-0.1,0.6-0.2,1-0.3c0.4-0.1,0.7-0.2,1.1-0.4
			c0.4-0.1,0.8-0.2,1.1-0.4c0.1,0,0.1,0,0.1,0c0,0,0,0,0,0.1l-0.5,0.9c0,0,0,0.1-0.1,0.1c0,0,0,0-0.1,0c-0.7,0.2-1.3,0.4-2,0.7
			C190.7,35.6,190.1,35.9,189.4,36.1z"/>
		<path class="st0" d="M192.3,24.5l0.3-1.3c0-0.1,0.1-0.1,0.1-0.1c0.1,0,0.1,0,0.1,0.1l1.1,3.9c0.1,0.5,0.3,1,0.5,1.3
			c0.2,0.4,0.5,0.7,0.9,1c0.2,0.2,0.5,0.3,0.8,0.3c0.3,0.1,0.6,0.1,1,0.1h0.2c0.2,0,0.4,0.1,0.5,0.3c0.1,0.2,0.2,0.4,0.2,0.6
			s-0.1,0.4-0.2,0.6c-0.1,0.2-0.3,0.3-0.5,0.3h-0.2c-0.4,0-0.8,0-1.1-0.1c-0.3-0.1-0.7-0.2-1-0.4c-0.3-0.2-0.6-0.5-0.8-0.8
			c-0.2-0.3-0.5-0.8-0.7-1.3c-0.2,0.6-0.5,1-0.9,1.4c-0.3,0.3-0.7,0.5-1.2,0.7c-0.5,0.1-0.9,0.2-1.4,0.3c-0.4,0.1-0.9,0.1-1.2,0
			c-0.4,0-0.7-0.2-0.9-0.3c-0.1-0.1-0.2-0.2-0.2-0.4c0-0.2-0.1-0.4-0.1-0.5c0-0.2,0-0.4,0-0.6c0-0.2,0.1-0.3,0.1-0.5
			c0,0,0.1-0.1,0.1-0.1c0,0,0.1,0,0.1,0.1c0.1,0.2,0.3,0.4,0.4,0.5c0.2,0.1,0.4,0.1,0.6,0.2c0.3,0,0.7,0,1.2,0
			c0.4,0,0.9-0.1,1.3-0.3c0.4-0.1,0.8-0.3,1.1-0.5c0.3-0.2,0.6-0.4,0.7-0.7L192.3,24.5z M191.4,18.9l1.3,1.1c0.1,0,0.1,0.1,0,0.2
			l-0.9,1.1c0,0.1-0.1,0.1-0.2,0l-1.3-1.1c-0.1,0-0.1-0.1,0-0.2l0.9-1.1C191.3,18.8,191.4,18.8,191.4,18.9z"/>
		<path class="st0" d="M201.5,38.1c-0.7,0.2-1.4,0.4-2.1,0.7c-0.7,0.2-1.3,0.4-2,0.6c-0.1,0-0.1,0-0.1-0.1l0.4-0.8
			c0,0,0-0.1,0.1-0.1c0,0,0,0,0.1-0.1c0.2-0.1,0.4-0.2,0.8-0.3c0.3-0.1,0.7-0.2,1-0.3c0.4-0.1,0.7-0.2,1.1-0.4s0.8-0.2,1.1-0.3
			c0.1,0,0.1,0,0.1,0c0,0,0,0,0,0.1l-0.5,0.8C201.6,38,201.6,38,201.5,38.1C201.5,38.1,201.5,38.1,201.5,38.1z"/>
		<path class="st0" d="M200.8,27.6c0,0.1,0,0.2,0,0.3c0,0.1,0,0.2,0,0.3c0,0.2,0.1,0.4,0.2,0.6c0.1,0.2,0.2,0.4,0.4,0.5
			c0.2,0.2,0.4,0.3,0.7,0.4c0.3,0.1,0.7,0.1,1.1,0.1h0.2c0.2,0,0.4,0.1,0.5,0.3c0.1,0.2,0.2,0.4,0.2,0.6c0,0.2-0.1,0.4-0.2,0.6
			c-0.1,0.2-0.3,0.3-0.5,0.3h-0.2c-0.8,0-1.4-0.2-1.9-0.5c-0.5-0.3-0.8-0.7-1.1-1.3c-0.2,0.4-0.4,0.7-0.7,0.9
			c-0.3,0.2-0.5,0.4-0.8,0.5c-0.3,0.1-0.6,0.2-0.8,0.2c-0.3,0-0.5,0.1-0.7,0.1h-0.2c-0.2,0-0.4-0.1-0.5-0.3
			c-0.1-0.2-0.2-0.4-0.2-0.6c0-0.2,0.1-0.4,0.2-0.6c0.1-0.2,0.3-0.3,0.5-0.3h0.2c0.2,0,0.5,0,0.7,0c0.2,0,0.5-0.1,0.7-0.1
			c0.2-0.1,0.5-0.2,0.7-0.3c0.2-0.1,0.4-0.3,0.6-0.6c0.1-0.2,0.3-0.3,0.3-0.5c0.1-0.2,0.2-0.4,0.3-0.6c0-0.1,0.1-0.1,0.2-0.1
			C200.7,27.5,200.8,27.5,200.8,27.6z M198.2,35.7c0.1-0.1,0.2-0.1,0.4-0.2c0.2-0.1,0.3-0.2,0.4-0.2c-0.1-0.1-0.3-0.2-0.4-0.4
			c-0.1-0.1-0.2-0.3-0.3-0.5c0-0.1,0-0.2,0-0.3c0-0.1,0-0.2,0.1-0.3c0.1-0.1,0.2-0.3,0.3-0.4c0.1-0.1,0.3-0.3,0.4-0.4
			c0.2-0.1,0.3-0.2,0.5-0.3c0.2-0.1,0.3-0.1,0.5-0.1c0.1,0,0.2,0,0.2,0.1c0.1,0,0.1,0.1,0.2,0.2c0,0.1,0.1,0.1,0.1,0.2
			c0,0.1,0.1,0.1,0.1,0.2c0,0.2,0,0.3,0,0.4l-0.2,0.3c-0.1,0.1-0.1,0.2-0.3,0.2c-0.1,0-0.1,0-0.1-0.1c0-0.1,0-0.2-0.1-0.2
			c0-0.1-0.1-0.2-0.2-0.2c-0.1,0-0.2-0.1-0.2-0.1c-0.3,0-0.6,0.1-0.8,0.3c0,0.1,0.1,0.2,0.2,0.3c0.1,0.1,0.2,0.2,0.2,0.3
			c0.1,0.1,0.2,0.2,0.3,0.2c0.1,0.1,0.2,0.1,0.4,0.1c0.3,0,0.6,0,0.9,0c0.3-0.1,0.6-0.1,0.9-0.2c0,0,0,0.1,0,0.2
			c0,0.1-0.1,0.2-0.1,0.3c0,0.1-0.1,0.2-0.1,0.3c0,0.1-0.1,0.1-0.1,0.1c-0.3,0-0.5,0.1-0.8,0.1c-0.3,0.1-0.5,0.1-0.8,0.2
			c-0.3,0.1-0.6,0.2-0.9,0.3c-0.3,0.1-0.6,0.3-0.9,0.4c-0.1,0-0.1,0-0.1-0.1c0-0.1,0.1-0.2,0.1-0.4
			C198.1,35.9,198.2,35.8,198.2,35.7z"/>
		<path class="st0" d="M208.7,19.4c-0.4,0.2-0.7,0.3-1.1,0.5c-0.4,0.2-0.8,0.4-1.1,0.5c-0.4,0.2-0.7,0.3-1,0.5
			c-0.3,0.1-0.6,0.3-0.8,0.4c0,0-0.1,0-0.1,0c0,0,0-0.1,0-0.1l0.5-1.1c0-0.1,0.1-0.1,0.1-0.1c0,0,0.1,0,0.1-0.1l3.9-1.7
			c0.1,0,0.2,0,0.1,0.1l-0.4,1C208.8,19.3,208.8,19.4,208.7,19.4z"/>
		<path class="st0" d="M202.9,29.8c0.3,0,0.6,0,0.9,0c0.3,0,0.6-0.1,0.8-0.1c0.3-0.1,0.5-0.2,0.7-0.3c0.2-0.1,0.4-0.3,0.5-0.5
			c0.2-0.4,0.4-0.8,0.6-1.2c0.2-0.4,0.4-0.8,0.6-1.1c0.1-0.1,0.2-0.3,0.3-0.5c0.1-0.2,0.3-0.3,0.4-0.5c0.2-0.1,0.3-0.3,0.5-0.4
			c0.2-0.1,0.3-0.1,0.5-0.1c0.3,0,0.5,0.2,0.8,0.4c0.3,0.3,0.5,0.6,0.7,0.9c0.2,0.4,0.3,0.7,0.5,1.1c0.1,0.4,0.2,0.7,0.1,0.9
			c0,0.2,0,0.3-0.1,0.5c0,0.2-0.1,0.3-0.1,0.5c-0.1,0.2-0.1,0.3-0.2,0.4c-0.1,0.1-0.2,0.2-0.4,0.3c-0.3,0.1-0.6,0.1-1,0
			c-0.4-0.1-0.7-0.2-1-0.3c-0.3-0.1-0.6-0.2-0.8-0.3s-0.5-0.3-0.8-0.5c-0.3,0.8-0.7,1.4-1.3,1.8c-0.6,0.4-1.3,0.6-2.1,0.6h-0.2
			c-0.2,0-0.4-0.1-0.5-0.3c-0.1-0.2-0.2-0.4-0.2-0.6s0.1-0.4,0.2-0.6c0.1-0.2,0.3-0.3,0.5-0.3H202.9z M209.2,27.5
			c-0.1-0.2-0.3-0.3-0.4-0.5c-0.2-0.2-0.4-0.2-0.7-0.2c-0.2,0-0.4,0.1-0.6,0.3c-0.2,0.2-0.3,0.4-0.4,0.6c0.2,0.2,0.4,0.3,0.6,0.4
			c0.2,0.1,0.4,0.2,0.6,0.3c0.2,0.1,0.5,0.1,0.7,0.1c0.2,0,0.5,0,0.7,0c0,0,0-0.1,0-0.2c0-0.1-0.1-0.2-0.1-0.3
			c-0.1-0.1-0.1-0.2-0.2-0.3C209.2,27.6,209.2,27.5,209.2,27.5z"/>
		<path class="st0" d="M215.2,20.2c0,0.2,0,0.5-0.1,0.7c-0.1,0.2-0.2,0.4-0.3,0.6c-0.1,0.2-0.3,0.3-0.5,0.4
			c-0.2,0.1-0.5,0.2-0.8,0.2c-0.4,0-0.7-0.1-0.9-0.4c-0.3-0.2-0.4-0.6-0.4-0.9c0-0.2,0-0.4,0.1-0.7c0.1-0.3,0.2-0.6,0.3-0.8
			c0.1-0.3,0.3-0.5,0.5-0.7c0.2-0.2,0.5-0.3,0.7-0.3c0.3,0,0.5,0,0.7,0.2c0.2,0.1,0.3,0.3,0.4,0.5c0.1,0.2,0.2,0.4,0.2,0.7
			C215.2,19.8,215.2,20,215.2,20.2z M212.7,20.5c0,0.1,0,0.2,0.1,0.3c0.1,0.1,0.1,0.1,0.2,0.2c0.1,0,0.2,0.1,0.3,0.1
			c0.1,0,0.2,0,0.3,0c0.2,0,0.4,0,0.6-0.1c0.2-0.1,0.3-0.2,0.5-0.3c0-0.1,0-0.3,0-0.4c0-0.1-0.1-0.3-0.2-0.4
			c-0.1-0.1-0.2-0.2-0.3-0.3c-0.1-0.1-0.3-0.1-0.5-0.1c-0.1,0-0.2,0.1-0.3,0.2c-0.1,0.1-0.2,0.2-0.3,0.3c-0.1,0.1-0.2,0.2-0.2,0.3
			C212.8,20.2,212.7,20.3,212.7,20.5z"/>
		<path class="st0" d="M216.9,31.5l-1.1,0c-0.3,0-0.6,0-0.9-0.1c-0.3-0.1-0.5-0.2-0.7-0.3c-0.2-0.2-0.3-0.3-0.5-0.6
			c-0.1-0.2-0.1-0.5-0.1-0.8c0-0.2,0.1-0.4,0.2-0.7c0.1-0.3,0.3-0.6,0.5-0.9c0.2-0.3,0.4-0.5,0.6-0.7c0.2-0.2,0.5-0.3,0.7-0.3
			c0.3,0,0.5,0.1,0.7,0.3c0.2,0.2,0.4,0.4,0.6,0.7c0.2,0.3,0.3,0.6,0.4,0.9c0.1,0.3,0.2,0.6,0.2,0.8l0.9,0h0.2c0.1,0,0.2,0,0.3,0.1
			c0.1,0,0.2,0.1,0.2,0.2s0.1,0.2,0.1,0.3c0,0.1,0,0.2,0,0.3c0,0.2,0,0.4-0.2,0.6c-0.1,0.2-0.3,0.3-0.5,0.3h-0.2l-0.9,0
			c-0.1,0.6-0.3,1.2-0.4,1.8c-0.2,0.6-0.4,1.1-0.6,1.6c-0.3,0.5-0.6,0.9-1,1.3c-0.4,0.4-0.8,0.6-1.4,0.8c-0.4,0.1-0.8,0.2-1.2,0.2
			c-0.4,0-0.9,0-1.3,0c-0.4,0-0.9-0.1-1.3-0.2c-0.4-0.1-0.8-0.2-1.2-0.3c-0.1,0-0.2-0.1-0.2-0.1c0-0.1,0-0.1,0-0.2
			c0,0,0.1-0.1,0.1-0.1c0.1,0,0.2,0,0.3,0c0.3,0,0.7,0,1.1,0c0.4,0,0.8-0.1,1.2-0.2c0.4-0.1,0.8-0.2,1.2-0.3c0.4-0.1,0.7-0.3,1-0.4
			c0.4-0.2,0.8-0.5,1.1-0.8c0.3-0.3,0.6-0.6,0.8-1s0.5-0.7,0.7-1.1C216.7,32.3,216.8,31.9,216.9,31.5z M214.6,29.6
			c0,0.1,0.2,0.2,0.3,0.2c0.2,0,0.4,0.1,0.6,0.1c0.2,0,0.4,0,0.6,0c0.2,0,0.4,0,0.5,0c0,0,0-0.1-0.1-0.2c-0.1-0.1-0.2-0.2-0.3-0.4
			c-0.1-0.1-0.3-0.2-0.4-0.3c-0.1-0.1-0.3-0.2-0.4-0.2c-0.1,0-0.2,0-0.3,0.1c-0.1,0.1-0.2,0.1-0.3,0.2c-0.1,0.1-0.1,0.2-0.2,0.3
			C214.6,29.4,214.6,29.5,214.6,29.6z"/>
		<path class="st0" d="M222.3,19.7c-0.4,0.2-0.7,0.3-1.1,0.5c-0.4,0.2-0.8,0.4-1.1,0.5c-0.4,0.2-0.7,0.3-1,0.5
			c-0.3,0.1-0.6,0.3-0.8,0.4c0,0-0.1,0-0.1,0c0,0,0-0.1,0-0.1l0.5-1.1c0-0.1,0.1-0.1,0.1-0.1c0,0,0.1,0,0.1-0.1l3.9-1.7
			c0.1,0,0.2,0,0.1,0.1l-0.4,1C222.4,19.6,222.4,19.7,222.3,19.7z"/>
		<path class="st0" d="M221.3,25.6c0.2,0.2,0.4,0.4,0.6,0.7c0.2,0.2,0.3,0.5,0.4,0.7c0.1,0.3,0.2,0.5,0.3,0.8
			c0.1,0.3,0.1,0.5,0.1,0.8c0,0.1,0,0.3,0,0.4c0,0.2,0,0.3-0.1,0.5c0,0.2-0.1,0.3-0.1,0.4c0,0.1-0.1,0.3-0.2,0.4
			c-0.2,0.3-0.4,0.5-0.7,0.6c-0.3,0.2-0.6,0.3-1,0.4c-0.4,0.1-0.7,0.1-1.1,0.2c-0.4,0-0.7,0-1,0h-0.2c-0.2,0-0.4-0.1-0.5-0.3
			c-0.1-0.2-0.2-0.4-0.2-0.6c0-0.2,0.1-0.4,0.2-0.6c0.1-0.2,0.3-0.3,0.5-0.3h0.2c0.3,0,0.7,0,1,0c0.3,0,0.7,0,1-0.1
			c0.3,0,0.6-0.1,0.8-0.1c0.2-0.1,0.4-0.1,0.6-0.2c0.1,0,0.1-0.1,0.1-0.2c0-0.1,0-0.1,0-0.2c-0.1-0.2-0.2-0.4-0.2-0.5
			c-0.1-0.2-0.2-0.3-0.3-0.5c-0.1-0.2-0.2-0.3-0.4-0.4c-0.1-0.1-0.3-0.3-0.4-0.4l0.4-1.5c0-0.1,0.1-0.1,0.1-0.1
			S221.3,25.6,221.3,25.6z M222.4,35.7C222.4,35.8,222.4,35.8,222.4,35.7c-0.1,0.1-0.1,0.1-0.2,0l-1.3-1l-0.8,1.1
			c0,0.1-0.1,0.1-0.2,0l-1.4-1.1c0,0-0.1-0.1,0-0.1l0.9-1.2c0,0,0.1-0.1,0.1-0.1s0,0,0.1,0l1.3,1l0.9-1.1c0-0.1,0.1-0.1,0.1,0
			l1.4,1.1c0,0,0,0.1,0,0.2L222.4,35.7z"/>
		<path class="st0" d="M230.8,19.3c-0.1-0.1-0.1-0.2-0.1-0.3c0-0.1,0-0.2,0-0.3c0.1-0.2,0.2-0.3,0.3-0.5c0.1-0.2,0.2-0.3,0.4-0.5
			c0.1-0.2,0.3-0.3,0.5-0.4c0.2-0.1,0.3-0.1,0.5-0.1c0.2,0,0.4,0.1,0.5,0.3c0.1,0.2,0.2,0.4,0.2,0.6c0,0.2,0,0.5,0,0.7
			c0,0.2-0.1,0.4-0.1,0.5c0,0,0,0.1,0.1,0.1c0.1,0,0.1,0.1,0.2,0.1c0,0,0.1,0.1,0.1,0.2c0,0.1,0,0.2,0,0.3c0,0.1-0.1,0.2-0.1,0.3
			c0,0.1-0.1,0.1-0.1,0.1c-0.1,0-0.1,0-0.2-0.1c0,0-0.1-0.1-0.1-0.1c0,0-0.1-0.1-0.1-0.1c-0.2,0.3-0.5,0.5-0.7,0.7
			c-0.2,0.2-0.5,0.4-0.7,0.6c-0.3,0.2-0.5,0.3-0.8,0.5c-0.3,0.1-0.6,0.3-0.9,0.4c0,0-0.1,0-0.2,0.1c-0.1,0-0.1,0-0.2,0
			c-0.1,0-0.1,0-0.2,0c-0.1,0-0.1,0-0.1,0c-0.1,0-0.1-0.1,0-0.1c0.1,0,0.1-0.1,0.3-0.2c0.2-0.1,0.5-0.3,0.7-0.4
			c0.3-0.2,0.5-0.3,0.8-0.5c0.3-0.2,0.5-0.3,0.7-0.5c0.2-0.2,0.5-0.4,0.7-0.6c-0.2-0.1-0.4-0.1-0.6-0.3
			C231.1,19.6,230.9,19.5,230.8,19.3z M229.9,20.3c0,0.1-0.1,0.1-0.1,0.1c0,0-0.1,0-0.1-0.1c-0.2-0.1-0.3-0.3-0.5-0.5
			c-0.2-0.2-0.2-0.5-0.2-0.7c0-0.2,0.1-0.5,0.2-0.8c0.1-0.3,0.2-0.6,0.4-0.9c0.2-0.3,0.4-0.6,0.6-0.9c0.3-0.3,0.6-0.5,0.9-0.8
			c0.4-0.3,0.8-0.4,1.2-0.5c0.4,0,0.8,0,1,0.1c0.2,0.1,0.3,0.2,0.5,0.4c0.1,0.2,0.2,0.3,0.2,0.5c0,0.2,0,0.4,0,0.6
			c0,0.2-0.1,0.4-0.2,0.5c0,0-0.1,0.1-0.1,0.1c0,0,0,0,0-0.1c0-0.1,0-0.2,0-0.3c0-0.1,0-0.2-0.1-0.3c0-0.1-0.1-0.2-0.2-0.3
			c-0.1-0.1-0.1-0.2-0.2-0.2c-0.2-0.1-0.3-0.1-0.6-0.1c-0.2,0-0.5,0-0.7,0.1c-0.2,0.1-0.5,0.1-0.7,0.3c-0.2,0.1-0.4,0.2-0.6,0.4
			c-0.3,0.3-0.6,0.6-0.8,1c-0.2,0.4-0.3,0.8-0.3,1.2c0,0,0,0.1,0.1,0.2c0,0.1,0.1,0.1,0.2,0.2c0.1,0.1,0.1,0.1,0.2,0.2
			c0.1,0.1,0.1,0.1,0.2,0.2c0,0,0.1,0.1,0.1,0.1c0,0,0,0.1,0,0.1c0,0.1,0,0.1-0.1,0.2S229.9,20.2,229.9,20.3z M231.3,18.5
			c0.1,0.2,0.3,0.3,0.5,0.5c0.2,0.1,0.4,0.2,0.5,0.2h0c0,0,0-0.1,0-0.1c0-0.1,0-0.2,0-0.3c0-0.1,0-0.2,0-0.3c0-0.1-0.1-0.2-0.1-0.3
			c-0.1,0-0.1-0.1-0.2-0.1c-0.1,0-0.2,0-0.3,0.1c-0.1,0-0.2,0.1-0.3,0.2C231.4,18.4,231.3,18.4,231.3,18.5z"/>
		<path class="st0" d="M230.1,27.1l0.5-1.4c0.5,0.1,0.9,0.2,1.3,0.4c0.4,0.2,0.7,0.3,1,0.6c0.3,0.2,0.5,0.5,0.6,0.8
			c0.1,0.3,0.2,0.6,0.2,1c0,0.2,0,0.5-0.1,0.7c-0.1,0.3-0.2,0.6-0.3,0.9c-0.1,0.2-0.2,0.4-0.3,0.5c-0.1,0.2-0.3,0.3-0.5,0.4
			c-0.2,0.1-0.4,0.2-0.6,0.3c-0.2,0.1-0.4,0.1-0.6,0.1c-0.4,0-0.7-0.1-0.9-0.2c-0.2-0.1-0.4-0.3-0.5-0.5c-0.1-0.2-0.2-0.5-0.2-0.8
			c0-0.3,0-0.6,0-0.9c0.1-0.3,0.1-0.7,0.2-1C229.9,27.8,230,27.5,230.1,27.1C230.2,27.1,230.1,27.1,230.1,27.1z M230.8,29.6
			c0.1,0.1,0.3,0.1,0.5,0.1c0.2,0,0.4,0,0.6,0c0.2,0,0.4-0.1,0.6-0.2c0.2-0.1,0.4-0.2,0.5-0.4c0-0.2-0.1-0.4-0.3-0.6
			c-0.2-0.2-0.4-0.4-0.6-0.5c-0.2-0.2-0.5-0.3-0.7-0.4c-0.3-0.1-0.5-0.2-0.6-0.2c-0.1,0.1-0.2,0.3-0.2,0.5c-0.1,0.2-0.1,0.4-0.1,0.6
			c0,0.2,0,0.4,0.1,0.6C230.4,29.4,230.6,29.5,230.8,29.6z"/>
		<path class="st0" d="M240.1,31.5l-1.1,0c-0.3,0-0.6,0-0.9-0.1c-0.3-0.1-0.5-0.2-0.7-0.3c-0.2-0.2-0.3-0.3-0.5-0.6
			c-0.1-0.2-0.1-0.5-0.1-0.8c0-0.2,0.1-0.4,0.2-0.7c0.1-0.3,0.3-0.6,0.5-0.9c0.2-0.3,0.4-0.5,0.6-0.7c0.2-0.2,0.5-0.3,0.7-0.3
			c0.3,0,0.5,0.1,0.7,0.3c0.2,0.2,0.4,0.4,0.6,0.7c0.2,0.3,0.3,0.6,0.4,0.9c0.1,0.3,0.2,0.6,0.2,0.8l0.9,0h0.2c0.1,0,0.2,0,0.3,0.1
			c0.1,0,0.2,0.1,0.2,0.2s0.1,0.2,0.1,0.3c0,0.1,0,0.2,0,0.3c0,0.2,0,0.4-0.2,0.6c-0.1,0.2-0.3,0.3-0.5,0.3h-0.2l-0.9,0
			c-0.1,0.6-0.3,1.2-0.4,1.8c-0.2,0.6-0.4,1.1-0.6,1.6c-0.3,0.5-0.6,0.9-1,1.3c-0.4,0.4-0.8,0.6-1.4,0.8c-0.4,0.1-0.8,0.2-1.2,0.2
			c-0.4,0-0.9,0-1.3,0c-0.4,0-0.9-0.1-1.3-0.2c-0.4-0.1-0.8-0.2-1.2-0.3c-0.1,0-0.2-0.1-0.2-0.1c0-0.1,0-0.1,0-0.2
			c0,0,0.1-0.1,0.1-0.1c0.1,0,0.2,0,0.3,0c0.3,0,0.7,0,1.1,0c0.4,0,0.8-0.1,1.2-0.2c0.4-0.1,0.8-0.2,1.2-0.3c0.4-0.1,0.7-0.3,1-0.4
			c0.4-0.2,0.8-0.5,1.1-0.8c0.3-0.3,0.6-0.6,0.8-1c0.3-0.4,0.5-0.7,0.7-1.1C239.8,32.3,239.9,31.9,240.1,31.5z M237.7,29.6
			c0,0.1,0.2,0.2,0.3,0.2c0.2,0,0.4,0.1,0.6,0.1c0.2,0,0.4,0,0.6,0c0.2,0,0.4,0,0.5,0c0,0,0-0.1-0.1-0.2c-0.1-0.1-0.2-0.2-0.3-0.4
			c-0.1-0.1-0.3-0.2-0.4-0.3c-0.1-0.1-0.3-0.2-0.4-0.2c-0.1,0-0.2,0-0.3,0.1c-0.1,0.1-0.2,0.1-0.3,0.2c-0.1,0.1-0.1,0.2-0.2,0.3
			C237.7,29.4,237.7,29.5,237.7,29.6z"/>
		<path class="st0" d="M244.1,21c0.2-0.1,0.5-0.3,0.7-0.4c0.2-0.1,0.5-0.3,0.7-0.4c0.2-0.2,0.4-0.3,0.7-0.5c0.2-0.2,0.4-0.4,0.6-0.6
			c-0.2-0.1-0.4-0.2-0.6-0.3c-0.2-0.1-0.4-0.3-0.5-0.4c-0.1-0.1-0.1-0.2-0.1-0.3c0-0.1,0-0.2,0-0.3c0.1-0.2,0.1-0.4,0.2-0.6
			c0.1-0.2,0.2-0.4,0.4-0.5c0.1-0.2,0.3-0.3,0.5-0.4c0.2-0.1,0.4-0.2,0.5-0.1c0.2,0,0.4,0.1,0.5,0.3c0.1,0.2,0.2,0.4,0.2,0.7
			c0,0.3,0,0.5,0,0.8c0,0.3,0,0.4-0.1,0.5c0,0,0,0.1,0,0.1c0.1,0,0.1,0.1,0.2,0.1c0,0,0.1,0.1,0.1,0.2c0,0.1,0.1,0.2,0,0.4
			c0,0.2-0.1,0.3-0.1,0.3c-0.1,0.1-0.1,0.1-0.2,0.1c0,0-0.1,0-0.1-0.1c0,0-0.1-0.1-0.1-0.1c0,0-0.1-0.1-0.1-0.1
			c-0.2,0.2-0.4,0.5-0.6,0.7c-0.2,0.2-0.5,0.4-0.7,0.6c-0.3,0.2-0.5,0.3-0.8,0.5c-0.3,0.1-0.6,0.3-0.9,0.4c-0.1,0-0.2,0.1-0.4,0.1
			c-0.1,0-0.2,0-0.2,0c0,0,0-0.1,0.1-0.2C244,21.1,244.1,21.1,244.1,21z M246.2,17.4c0.2,0.2,0.3,0.4,0.5,0.5
			c0.2,0.1,0.4,0.2,0.6,0.2h0c0-0.1,0-0.1,0-0.2c0-0.1,0-0.2,0-0.3c0-0.1,0-0.2,0-0.3c0-0.1-0.1-0.2-0.1-0.2c-0.1,0-0.1-0.1-0.2-0.1
			c-0.1,0-0.2,0-0.3,0.1c-0.1,0-0.2,0.1-0.3,0.1C246.2,17.3,246.2,17.3,246.2,17.4z"/>
		<path class="st0" d="M248,28.5c-0.2-0.1-0.4-0.2-0.7-0.4c-0.3-0.1-0.6-0.3-0.9-0.4c-0.3-0.1-0.6-0.2-1-0.3
			c-0.3-0.1-0.6-0.2-0.8-0.2c-0.4-0.1-0.7,0-1.1,0.1c-0.4,0.1-0.7,0.3-1,0.5c0,0-0.1,0-0.1,0c0,0-0.1-0.1-0.1-0.1
			c0-0.2,0.1-0.4,0.1-0.6c0.1-0.2,0.2-0.4,0.3-0.5c0.3-0.4,0.6-0.6,1-0.8c0.4-0.2,0.8-0.3,1.3-0.2c0.4,0.1,0.7,0.2,1.1,0.3
			c0.4,0.1,0.8,0.3,1.2,0.5c0.4,0.2,0.8,0.4,1.2,0.5c0.4,0.2,0.8,0.3,1.2,0.5c0.6,0.2,1.3,0.4,1.9,0.5c0.7,0.1,1.3,0.1,2,0.1
			c0.1,0,0.1,0,0.1,0.2l-0.8,1.5c-0.5-0.1-0.9-0.2-1.3-0.2c-0.4,0-0.8,0-1.2,0c-0.4,0-0.8,0.1-1.1,0.2c-0.4,0.1-0.8,0.2-1.2,0.4
			s-0.8,0.3-1.2,0.5c-0.4,0.2-0.8,0.3-1.2,0.4c-0.6,0.2-1.3,0.3-1.9,0.4c-0.6,0.1-1.3,0.2-2,0.2c0,0-0.1,0-0.1,0c0,0-0.1,0-0.1,0
			c-0.2,0-0.4-0.1-0.5-0.3c-0.1-0.2-0.2-0.4-0.2-0.6s0.1-0.4,0.2-0.6c0.1-0.2,0.3-0.3,0.5-0.3c0,0,0.1,0,0.1,0c0,0,0.1,0,0.1,0
			c0.5,0,1.1,0,1.6,0c0.5-0.1,1.1-0.1,1.6-0.3c0.5-0.1,1.1-0.3,1.6-0.4C247,28.9,247.5,28.8,248,28.5z M246.6,33l1.3,1.1
			c0.1,0,0.1,0.1,0,0.2l-0.9,1.1c0,0.1-0.1,0.1-0.2,0l-1.3-1.1c-0.1,0-0.1-0.1,0-0.2l0.9-1.1C246.4,33,246.5,33,246.6,33z"/>
		<path class="st0" d="M254.6,22.1c0.2-0.1,0.5-0.3,0.7-0.4c0.2-0.1,0.5-0.3,0.7-0.4c0.2-0.2,0.4-0.3,0.7-0.5
			c0.2-0.2,0.4-0.4,0.6-0.6c-0.2-0.1-0.4-0.2-0.6-0.3c-0.2-0.1-0.4-0.3-0.5-0.4c-0.1-0.1-0.1-0.2-0.1-0.3c0-0.1,0-0.2,0-0.3
			c0.1-0.2,0.1-0.4,0.2-0.6c0.1-0.2,0.2-0.4,0.4-0.5c0.1-0.2,0.3-0.3,0.5-0.4c0.2-0.1,0.4-0.2,0.5-0.1c0.2,0,0.4,0.1,0.5,0.3
			c0.1,0.2,0.2,0.4,0.2,0.7c0,0.3,0,0.5,0,0.8c0,0.3,0,0.4-0.1,0.5c0,0,0,0.1,0,0.1c0.1,0,0.1,0.1,0.2,0.1c0,0,0.1,0.1,0.1,0.2
			c0,0.1,0.1,0.2,0,0.4c0,0.2-0.1,0.3-0.1,0.3c-0.1,0.1-0.1,0.1-0.2,0.1c0,0-0.1,0-0.1-0.1c0,0-0.1-0.1-0.1-0.1c0,0-0.1-0.1-0.1-0.1
			c-0.2,0.2-0.4,0.5-0.6,0.7c-0.2,0.2-0.5,0.4-0.7,0.6c-0.3,0.2-0.5,0.3-0.8,0.5c-0.3,0.1-0.6,0.3-0.9,0.4c-0.1,0-0.2,0.1-0.4,0.1
			c-0.1,0-0.2,0-0.2,0c0,0,0-0.1,0.1-0.2C254.4,22.2,254.5,22.2,254.6,22.1z M256.6,18.5c0.2,0.2,0.3,0.4,0.5,0.5
			c0.2,0.1,0.4,0.2,0.6,0.2h0c0-0.1,0-0.1,0-0.2c0-0.1,0-0.2,0-0.3c0-0.1,0-0.2,0-0.3c0-0.1-0.1-0.2-0.1-0.2c-0.1,0-0.1-0.1-0.2-0.1
			c-0.1,0-0.2,0-0.3,0.1c-0.1,0-0.2,0.1-0.3,0.1C256.7,18.4,256.7,18.4,256.6,18.5z"/>
		<path class="st0" d="M258.9,29.5c-0.1,0.3-0.3,0.6-0.5,0.8c-0.3,0.2-0.6,0.3-1,0.3c-0.2,0-0.4,0-0.6-0.2c-0.2-0.1-0.3-0.2-0.5-0.4
			c-0.1-0.2-0.2-0.3-0.3-0.6c-0.1-0.2-0.1-0.4-0.1-0.6c0-0.2,0-0.3,0.1-0.5c0-0.2,0.1-0.4,0.2-0.6c0.1-0.2,0.2-0.4,0.3-0.6
			c0.1-0.2,0.2-0.4,0.3-0.5c0.1-0.2,0.3-0.3,0.4-0.4c0.1-0.1,0.3-0.2,0.5-0.2c0.3,0,0.5,0.1,0.8,0.3c0.2,0.2,0.5,0.5,0.6,0.8
			c0.2,0.3,0.3,0.7,0.4,1.1c0.1,0.4,0.1,0.8,0.1,1.2c0,0.5-0.1,1.1-0.2,1.6c-0.1,0.6-0.3,1.1-0.5,1.6c-0.2,0.5-0.4,1-0.7,1.5
			c-0.3,0.5-0.6,0.9-0.9,1.2c-0.4,0.5-0.9,0.9-1.4,1.1c-0.5,0.3-1,0.4-1.6,0.5c-0.5,0.1-1.1,0.1-1.7,0c-0.6-0.1-1.2-0.2-1.8-0.4
			c-0.1,0-0.1-0.1-0.1-0.1c0,0,0-0.1,0-0.2c0-0.1,0.1-0.1,0.1-0.1c0.1,0,0.1-0.1,0.2,0c0.6,0,1.1,0,1.6,0c0.5-0.1,0.9-0.2,1.4-0.4
			c0.4-0.2,0.8-0.4,1.2-0.7c0.4-0.3,0.8-0.6,1.2-1c0.3-0.2,0.5-0.5,0.8-0.8c0.3-0.3,0.5-0.7,0.7-1c0.2-0.4,0.4-0.7,0.5-1.1
			c0.1-0.4,0.2-0.7,0.3-1c0-0.1,0-0.1,0-0.2c0-0.1,0-0.2,0-0.2c0-0.1,0-0.2-0.1-0.2C259,29.6,259,29.6,258.9,29.5z M257.5,27.7
			c-0.1,0-0.2,0-0.3,0.1c-0.1,0.1-0.2,0.2-0.2,0.3c-0.1,0.1-0.1,0.2-0.1,0.3c0,0.1,0,0.2,0,0.2c0.1,0.2,0.2,0.3,0.4,0.3
			c0.2,0.1,0.3,0.1,0.5,0.1c0.2,0,0.4-0.1,0.5-0.1c0.2-0.1,0.3-0.1,0.3-0.2c0-0.1,0-0.2-0.1-0.3c-0.1-0.1-0.2-0.2-0.3-0.3
			c-0.1-0.1-0.2-0.2-0.3-0.2C257.7,27.7,257.6,27.7,257.5,27.7z"/>
		<path d="M275,27c0,0.1-0.1,0.3-0.2,0.4c-0.2,0.2-0.4,0.4-0.8,0.6c0,0.4-0.1,0.7-0.2,1.1c-0.1,0.3-0.2,0.5-0.3,0.5
			c-0.4-0.4-0.7-0.7-1.1-1c-0.4-0.3-0.8-0.5-1.2-0.5c0,0.4,0.2,0.8,0.6,1.2c0.3,0.3,0.6,0.7,0.9,1c0,0.2-0.3,0.3-1,0.5
			c-0.5,0.1-0.9,0.1-1.2,0.1c-0.5,1.4-1.1,2.7-2,3.9c-0.4,0.5-0.9,1.1-1.5,1.7c-0.8,0.8-1.4,1.2-1.8,1.2c-0.1,0-0.2-0.1-0.2-0.2
			c0-0.1,0.2-0.4,0.7-0.9c0.7-0.8,1.2-1.4,1.5-2.1c0.6-1.1,1-2.3,1.2-3.7c-0.4-0.1-0.7-0.1-0.8-0.2c-0.1-0.1-0.2-0.1-0.2-0.3
			c0.9-0.8,1.4-1.5,1.4-2.2c-0.4,0-0.8,0.2-1.2,0.5c-0.2,0.2-0.6,0.6-1,1c-0.1,0-0.2-0.2-0.4-0.5c-0.1-0.4-0.2-0.7-0.2-1.1
			c-0.4-0.2-0.6-0.4-0.7-0.4c-0.3-0.2-0.4-0.4-0.4-0.6c0-0.1,0.1-0.3,0.2-0.4c0.1-0.1,0.4-0.3,0.8-0.5c0-1.1,0.2-1.6,0.6-1.6
			c0.8,0.9,1.5,1.3,2.2,1.4c0-0.3-0.2-0.8-0.5-1.2c0,0-0.3-0.4-0.9-1c0-0.1,0.1-0.2,0.2-0.2c0.2-0.1,0.4-0.1,0.9-0.2
			c-0.2-1.1-0.6-2.2-1.3-3.3c-0.6-1.1-1.4-2.1-2.2-2.8c-0.1-0.1-0.2-0.2-0.2-0.3c0-0.1,0.1-0.2,0.3-0.2c0.3,0,0.7,0.2,1.3,0.6
			c1.8,1.3,3.2,3.2,4.1,5.8c1.4,0,2.1,0.2,2.1,0.6c-0.4,0.3-0.7,0.7-0.9,1c-0.3,0.4-0.4,0.8-0.4,1.2c0.3,0,0.7-0.2,1-0.5l1.1-1
			c0.2,0,0.4,0.5,0.5,1.4c0,0.1,0,0.2,0,0.3C274.6,26.4,275,26.7,275,27z M271.8,23.7c0,0-0.1-0.1-0.4-0.1c-0.2,0-0.4-0.1-0.5-0.1
			h-0.4c-0.1,0-0.2,0-0.3,0.1c-0.4-1.2-0.9-2.4-1.7-3.5c-0.9-1.2-1.8-2.2-3-3c0.8,0.7,1.4,1.6,2,2.6c0.7,1.2,1.2,2.5,1.4,3.8
			c-0.5,0-0.8,0.1-0.8,0.2c0.6,0.5,1,1,1.3,1.5c0.1-0.2,0.2-0.5,0.3-0.7c0,0,0.1-0.1,0.1-0.3c0.1-0.2,0.1-0.3,0.2-0.3
			c0.2,0,0.4,0.5,0.7,1.4c0.2-0.3,0.3-0.7,0.6-0.9C271.4,24.2,271.6,24,271.8,23.7z M268.4,27.8c-0.1-0.1-0.5-0.2-1.1-0.4
			c-0.4-0.1-0.6-0.2-0.6-0.3c0,0,0.3-0.2,0.9-0.4c0.1-0.1,0.4-0.2,0.7-0.3c-0.3-0.1-0.7-0.3-1-0.5c-0.1-0.1-0.4-0.3-0.7-0.6
			c-0.1,0-0.2,0.4-0.2,1.2c-0.6,0.3-0.9,0.6-0.9,0.7c0,0.2,0.3,0.3,0.9,0.6c0,0.8,0.1,1.3,0.3,1.3c0,0,0.2-0.2,0.6-0.5
			C267.9,28.1,268.2,27.9,268.4,27.8z M271.9,30.3c-0.5-0.4-0.9-0.9-1.2-1.4c-0.1,0.2-0.2,0.4-0.3,0.7c0,0-0.1,0.2-0.2,0.4
			c-0.1,0.2-0.2,0.3-0.2,0.3c0,0-0.1-0.1-0.2-0.3c-0.1-0.2-0.1-0.3-0.2-0.3c0-0.1-0.1-0.3-0.3-0.7c-0.1,0.3-0.3,0.6-0.5,0.8
			c-0.2,0.2-0.4,0.4-0.6,0.6c0,0.1,0.3,0.1,0.8,0.3c-0.3,1.3-0.5,2.1-0.6,2.4c-0.5,1.4-1.3,2.8-2.4,4.1c1.9-1.3,3.3-3.4,4.3-6.5
			c0.7,0,1,0,0.9,0C271.7,30.5,271.9,30.4,271.9,30.3z M271.3,27c0-0.4-0.1-0.7-0.4-0.9c-0.2-0.2-0.6-0.3-0.9-0.3
			c-0.3,0-0.6,0.1-0.9,0.4c-0.3,0.2-0.4,0.5-0.4,0.9c0,0.4,0.1,0.7,0.4,0.9c0.3,0.2,0.6,0.4,0.9,0.4c0.4,0,0.7-0.1,0.9-0.4
			C271.2,27.7,271.3,27.4,271.3,27z M274.4,27c0-0.1-0.1-0.2-0.2-0.3c-0.2-0.1-0.4-0.2-0.7-0.3c0-0.4,0-0.7-0.1-0.9
			c-0.1-0.2-0.1-0.4-0.2-0.4c0,0-0.2,0.2-0.5,0.5c-0.3,0.3-0.7,0.6-1.1,0.7c0.2,0.1,0.4,0.2,0.8,0.4c0,0,0.2,0.1,0.6,0.2
			c0.3,0.1,0.4,0.2,0.4,0.2c0,0.1-0.2,0.2-0.6,0.3c-0.6,0.2-1,0.3-1.1,0.3c0.4,0.1,0.7,0.3,1,0.5c0.1,0.1,0.4,0.3,0.6,0.6
			c0.1,0,0.1-0.1,0.2-0.3c0-0.1,0-0.4,0-0.8C274.1,27.3,274.4,27.1,274.4,27z"/>
	</g>
	<rect class="st2" width="404" height="49.9"/>
</g>
</svg>
