<?xml version="1.0" encoding="utf-8"?>
<!-- Generator: Adobe Illustrator 19.2.0, SVG Export Plug-In . SVG Version: 6.00 Build 0)  -->
<svg version="1.1" id="Layer_1" xmlns="http://www.w3.org/2000/svg" xmlns:xlink="http://www.w3.org/1999/xlink" x="0px" y="0px"
	 viewBox="0 0 250.9 49.9" style="enable-background:new 0 0 250.9 49.9;" xml:space="preserve">
<style type="text/css">
	.st0{fill:#002F3D;}
	.st1{fill:none;}
</style>
<g>
	<g>
		<path class="st0" d="M69.1,30.4c-0.9,0.5-2.7,1.6-4.2,2.7c-0.1,0-0.1,0.1-0.1,0.1c0,0-0.1,0-0.1-0.1c0-0.1,0.1-0.5,0.2-0.7
			c0.1-0.2,0.5-0.6,0.9-0.9c0,0,0.1-0.1,0.1-0.1c0,0,0-0.1-0.1-0.1c-0.6-0.2-1-0.5-1-1.1c0-0.9,1-2.3,1.9-3.1
			c0.4-0.3,0.7-0.5,1.1-0.5c0.6,0,0.8,0.3,0.8,0.8c0,0.3-0.1,0.7-0.3,1.1c-0.1,0.2-0.2,0.3-0.3,0.3c-0.1,0-0.1,0-0.2-0.1
			c-0.2-0.2-0.4-0.3-0.7-0.3c-0.6,0-1.4,0.4-1.4,0.7c0,0.3,1.3,0.9,1.9,0.9c0.1,0,0.1,0,0.2,0c0.3-0.1,1.1-0.4,1.6-0.7
			c0.2-0.1,0.3-0.2,0.3-0.2c0.1,0,0.1,0,0.1,0.1c0,0.1,0,0.3-0.1,0.5C69.4,30.3,69.3,30.3,69.1,30.4z"/>
		<path class="st0" d="M75.1,31.5c-0.5,0-1-0.1-1.3-0.4c-0.6-0.5-0.9-1.3-1-2.4c-0.1-0.8-0.2-1.8-0.2-2.9c-0.1-1.6-0.2-4-0.4-5.4
			c0-0.1,0-0.2,0-0.2c0-0.1,0-0.2,0.1-0.3c0.2-0.4,0.4-0.6,0.6-0.9c0.1-0.2,0.2-0.3,0.2-0.3c0.1,0,0.2,0.1,0.2,0.5
			c0.3,2.8,0.1,6.6,0.5,8.7c0.1,0.5,0.2,0.7,0.3,1.1c0.2,0.5,0.6,0.7,1.1,0.8c0.6,0,0.9,0.3,0.9,0.9c0,0.7-0.3,0.9-0.8,0.9H75.1z"/>
		<path class="st0" d="M78.7,17.9c-0.3,0-0.5-0.1-0.7-0.3c-0.2-0.2-0.3-0.6-0.3-0.9c0-0.3,0-0.5,0.2-0.8c0.1-0.3,0.3-0.6,0.5-0.6
			c0.1,0,0.1,0.1,0.1,0.2c0,0.2-0.1,0.3-0.1,0.5c0,0.4,0.3,0.5,0.6,0.5s0.5-0.3,0.7-0.7c0.2-0.6,0.5-0.8,0.7-0.8
			c0.1,0,0.1,0.1,0.1,0.2c0,0.1,0,0.2,0,0.3c0,0.2,0.1,0.4,0.4,0.4c0.3,0,0.5-0.2,0.7-0.6c0.2-0.4,0.3-0.6,0.4-0.6
			c0.1,0,0.1,0.2,0.1,0.4c0,0.5-0.1,0.9-0.4,1.3c-0.2,0.3-0.5,0.7-1.1,0.7c-0.3,0-0.5-0.1-0.6-0.2c-0.1-0.1-0.1,0-0.2,0.1
			C79.5,17.6,79.1,17.9,78.7,17.9z"/>
		<path class="st0" d="M78.2,26c0,0.7-0.1,1.3-0.3,1.8c1.7-1.3,3.1-2.1,3.9-2.1c0.4,0,1,0.1,1.5,0.3c0.6,0.3,0.9,0.6,0.9,1.2
			c0,0.9-0.7,2.3-1.4,2.8c0.7-0.2,1.3-0.3,1.9-0.3H85c0.5,0,0.8,0.3,0.8,0.9c0,0.6-0.3,0.9-0.8,0.9h-0.3c-3.5,0.1-5.1,0.1-5.8,0.1
			c-0.9,0-2.1,0-3.6-0.1h-0.2c-0.5,0-0.8-0.3-0.8-0.9c0-0.6,0.3-0.9,0.8-0.9h0.9c0.3-0.3,0.9-0.9,1.5-1.4c0-0.3,0-0.7,0-0.9
			c0-2.3-0.4-4.3-0.6-5.6c0-0.3-0.2-1-0.3-1.3c0-0.1,0-0.1,0-0.2c0-0.1,0.2-0.5,0.3-0.8c0.2-0.4,0.5-0.8,0.6-0.8
			c0.1,0,0.1,0.1,0.1,0.2c0.2,0.7,0.4,1.1,0.6,1.4c0,0.1,0.1,0.1,0.1,0.2c0,0,0,0.1,0,0.2c-0.1,0.2-0.3,0.6-0.5,0.8
			C78,23,78.2,24.6,78.2,26z M81.1,27.3c-1.5,0-2.9,1.1-4.3,2.5c2.7-0.2,5.3-0.7,6.3-1.4C82.7,27.7,81.8,27.3,81.1,27.3z M83,22
			c0.1,0,0.1,0.1,0,0.2c-0.2,0.2-0.8,1-1.1,1.3c-0.1,0.1-0.1,0.1-0.2,0c-0.4-0.2-1.2-0.8-1.4-1.1c-0.1-0.1-0.1-0.1,0-0.2
			c0.3-0.4,0.7-0.9,1-1.2c0.2-0.2,0.2-0.2,0.2-0.1C81.9,21.2,82.5,21.7,83,22z"/>
		<path class="st0" d="M86.7,30.7c-0.4,0.5-0.9,0.8-1.8,0.8h-0.2c-0.5,0-0.8-0.3-0.8-1c0-0.6,0.3-0.8,0.8-0.8h0.2
			c0.4,0,0.8-0.1,1.1-0.2c0.3-0.1,0.5-0.2,0.5-0.3c0-1.4-0.5-4.2-0.7-7c0-0.3-0.2-1.3-0.3-1.7c0-0.1,0-0.1,0-0.2
			c0-0.2,0.3-0.7,0.4-1c0.2-0.4,0.4-0.7,0.6-0.7c0.1,0,0.1,0.1,0.1,0.2c0.2,0.8,0.5,1.2,0.6,1.4c0,0.1,0.1,0.2,0.1,0.2
			c0,0,0,0.1,0,0.1c-0.1,0.2-0.3,0.6-0.4,0.8c0.1,2.7,0.6,4.9,0.6,6.1C87.5,28.8,87.2,29.9,86.7,30.7z"/>
		<path class="st0" d="M91.1,31.5C91,31.5,91,31.4,91,31c0-2.4-0.9-8.9-0.9-10c0-0.5,0.4-1.4,0.7-1.9c0.1-0.2,0.3-0.4,0.4-0.4
			c0.1,0,0.1,0.2,0.1,0.6c0.1,1.7,0.6,5.7,0.6,8.6c0,1.2-0.1,2.1-0.3,2.7C91.4,31.2,91.2,31.5,91.1,31.5z"/>
		<path class="st0" d="M108.8,14.4c0,0.4-0.1,0.8-0.2,1.2c0.2,0.1,0.3,0.2,0.3,0.3c0,0.3-0.1,0.6-0.3,0.8c0,0.1-0.1,0.1-0.1,0.1
			l-0.4-0.2c-0.4,0.6-1,1.4-1.9,1.8c-0.3,0.2-0.7,0.3-1.2,0.3c-0.2,0-0.3,0-0.3-0.1c0-0.1,0.2-0.2,0.4-0.3c0.7-0.4,2-1.4,2.4-2
			c-0.4-0.2-0.8-0.6-0.8-1.1c0-0.3,0.2-0.7,0.5-1c0.3-0.4,0.7-0.6,1-0.6C108.6,13.4,108.8,13.9,108.8,14.4z M107.4,14.7
			C107.4,14.7,107.3,14.8,107.4,14.7c0,0.2,0.3,0.4,0.6,0.5c0.1-0.1,0.1-0.3,0.1-0.5c0-0.2-0.1-0.3-0.3-0.3
			C107.7,14.4,107.5,14.5,107.4,14.7z"/>
		<path class="st0" d="M113.2,27c0,0.4-0.2,1.5-0.5,2.2c-0.2,0.5-0.3,0.7-0.9,1c-1.3,0.6-4.5,1.5-7.7,1.5c-4.2,0-5.8-1.4-5.8-3.3
			c0-0.7,0.3-1.9,0.8-2.6c0.2-0.2,0.3-0.5,0.5-0.5c0,0,0.1,0,0.1,0.1c0,0.1-0.1,0.2-0.1,0.4c-0.2,0.6-0.4,1.1-0.4,1.6
			c0,0.8,1.1,2.5,5.1,2.5c2.9,0,6-0.7,7.4-1.1c0.7-0.3,0.7-0.4,0.7-0.9c0-0.4-0.1-0.7-0.2-1c-0.2,0.4-0.7,0.8-1.4,0.8
			c-0.9,0-1.4-0.5-1.4-1.5c0-1.4,1.1-3.3,1.6-3.3C112.1,22.8,113.2,24.9,113.2,27z M109.2,20.6c0.1,0,0.1,0.1,0,0.2
			c-0.2,0.2-0.8,1-1.1,1.3c-0.1,0.1-0.1,0.1-0.2,0c-0.4-0.2-1.2-0.8-1.4-1.1c-0.1-0.1-0.1-0.1,0-0.2c0.3-0.4,0.7-0.9,1-1.2
			c0.2-0.2,0.2-0.2,0.2-0.1C108.1,19.8,108.7,20.3,109.2,20.6z M110.6,24.6c-0.2,0-0.5,0.3-0.6,0.6c0,0,0,0.1,0,0.1s0,0.1,0,0.1
			c0.1,0.2,0.4,0.4,0.8,0.4c0.3,0,0.6-0.1,0.7-0.3c0,0,0,0,0-0.1C111.6,25.3,111.3,24.6,110.6,24.6z"/>
		<path class="st0" d="M117,23.2c0.5,0,1.3,0.8,1.3,1.6c0,0.3-0.1,0.6-0.2,0.9c-0.2,0.6-0.7,1-1.4,1c-0.6,0-1.1-0.5-1.1-1
			C115.7,24.9,116.6,23.2,117,23.2z M116.9,24.4c-0.2,0-0.6,0.5-0.6,0.8c0,0.2,0.3,0.4,0.6,0.4c0.4,0,0.9-0.2,0.9-0.4
			C117.8,25.1,117.3,24.4,116.9,24.4z"/>
		<path class="st0" d="M119.9,29.7c0.6,0,0.9,0.3,0.9,0.9c0,0.6-0.3,0.9-0.9,0.9h-0.2c-0.5,0-0.8,0-1-0.1c0,0.1,0,0.2,0,0.3
			c0,0.6-0.1,1.2-0.3,1.6c-0.4,1-1,2.6-2.8,3.4c-0.3,0.2-0.6,0.2-1,0.2c-0.7,0-1.8-0.4-2.8-0.8c-0.3-0.1-0.3-0.2-0.3-0.3
			c0-0.1,0.1-0.2,0.3-0.2c0.2,0,0.6,0.1,1,0.1c2.5,0,4.9-2.2,5.2-3.9c0-0.4-0.8-1.3-1-1.5c0,0,0-0.1,0-0.2c0-0.4,0.3-1.2,0.5-1.5
			c0.1-0.1,0.2-0.2,0.2-0.2c0.1,0,0.2,0.1,0.5,0.5c0.3,0.5,0.7,0.7,1.5,0.7H119.9z"/>
		<path class="st0" d="M125.6,21c0.1,0,0.1,0,0.1,0c0,0.5-0.2,0.9-0.4,1l-3.2,1.8c-0.1,0-0.1,0-0.1,0c0-0.2,0.1-0.6,0.2-0.8
			c0.1-0.1,0.2-0.2,0.5-0.4L125.6,21z"/>
		<path class="st0" d="M122,27.3c-0.2,0-0.4,0-0.5,0.1c-0.2,0.1-0.5,0.2-0.6,0.2c-0.1,0-0.2-0.1-0.2-0.2c0-0.3,0.5-1,0.9-1.4
			c0.4-0.3,0.8-0.5,1.1-0.5c0.1,0,0.3,0,0.4,0c1.4,0.3,3.3,1.1,4.7,1.4c1,0.2,2,0.3,2.7,0.3c0.1,0,0.3,0,0.4,0c0,0,0.1,0,0.1,0.1
			c0,0.3-0.5,1.2-0.9,1.5c-0.1,0.1-0.2,0.1-0.4,0.1c-0.4,0-1.3-0.1-1.5-0.1c-0.7,0-1.3,0.1-1.8,0.2c-0.3,0.1-0.9,0.4-1.8,0.8
			c-1.3,0.7-2.2,1.1-2.8,1.3c-0.6,0.2-1.2,0.4-2,0.4h-0.2c-0.6,0-0.9-0.3-0.9-0.9c0-0.6,0.3-0.8,0.9-0.8h0.2c1.1,0,2-0.1,2.7-0.3
			c0.7-0.2,1.8-0.6,3.1-1.1C124.1,27.8,122.8,27.3,122,27.3z"/>
		<path class="st0" d="M139.1,25.7c0.3,0.3,0.3,0.6,0.3,0.9c0,0.2-0.1,0.5-0.3,0.7c-0.2,0.2-0.5,0.3-0.8,0.3c-0.2,0-0.5-0.1-0.7-0.3
			c-0.2-0.2-0.3-0.5-0.3-0.8c0-0.3,0.1-0.6,0.3-0.8c0.2-0.2,0.5-0.3,0.8-0.3C138.6,25.4,138.9,25.5,139.1,25.7z M139.1,29.8
			c0.3,0.2,0.3,0.6,0.3,0.8c0,0.2-0.1,0.5-0.3,0.8c-0.2,0.2-0.5,0.3-0.8,0.3c-0.2,0-0.5-0.1-0.7-0.3c-0.2-0.2-0.3-0.5-0.3-0.8
			c0-0.3,0.1-0.6,0.3-0.8c0.2-0.2,0.5-0.3,0.8-0.3C138.6,29.5,138.9,29.6,139.1,29.8z"/>
		<path class="st0" d="M149.9,21c0,0.4-0.1,0.8-0.2,1.2c0.2,0.1,0.3,0.2,0.3,0.3c0,0.3-0.1,0.6-0.3,0.8c0,0.1-0.1,0.1-0.1,0.1
			l-0.4-0.2c-0.4,0.6-1,1.4-1.9,1.8c-0.3,0.2-0.7,0.3-1.2,0.3c-0.2,0-0.3,0-0.3-0.1c0-0.1,0.2-0.2,0.4-0.3c0.7-0.4,2-1.4,2.4-2
			c-0.4-0.2-0.8-0.6-0.8-1.1c0-0.3,0.2-0.7,0.5-1c0.3-0.4,0.7-0.6,1-0.6C149.7,20.1,149.8,20.6,149.9,21z M148.4,21.4
			C148.4,21.4,148.4,21.4,148.4,21.4c0,0.2,0.3,0.4,0.6,0.5c0.1-0.1,0.1-0.3,0.1-0.5c0-0.2-0.1-0.3-0.3-0.3
			C148.7,21,148.5,21.2,148.4,21.4z"/>
		<path class="st0" d="M150.7,30.4c-0.9,0.5-2.7,1.6-4.2,2.7c-0.1,0-0.1,0.1-0.1,0.1s-0.1,0-0.1-0.1c0-0.1,0.1-0.5,0.2-0.7
			c0.1-0.2,0.5-0.6,0.9-0.9c0,0,0.1-0.1,0.1-0.1c0,0,0-0.1-0.1-0.1c-0.6-0.2-1-0.5-1-1.1c0-0.9,1-2.3,1.9-3.1
			c0.4-0.3,0.7-0.5,1.1-0.5c0.6,0,0.8,0.3,0.8,0.8c0,0.3-0.1,0.7-0.3,1.1c-0.1,0.2-0.2,0.3-0.3,0.3c-0.1,0-0.1,0-0.2-0.1
			c-0.2-0.2-0.4-0.3-0.7-0.3c-0.6,0-1.4,0.4-1.4,0.7c0,0.3,1.3,0.9,1.9,0.9c0.1,0,0.1,0,0.2,0c0.3-0.1,1.1-0.4,1.6-0.7
			c0.2-0.1,0.3-0.2,0.3-0.2c0.1,0,0.1,0,0.1,0.1c0,0.1,0,0.3-0.1,0.5C151,30.3,150.9,30.3,150.7,30.4z"/>
		<path class="st0" d="M156.7,31.5c-0.5,0-1-0.1-1.3-0.4c-0.6-0.5-0.9-1.3-1-2.4c-0.1-0.8-0.2-1.8-0.2-2.9c-0.1-1.6-0.2-4-0.4-5.4
			c0-0.1,0-0.2,0-0.2c0-0.1,0-0.2,0.1-0.3c0.2-0.4,0.4-0.6,0.6-0.9c0.1-0.2,0.2-0.3,0.2-0.3c0.1,0,0.2,0.1,0.2,0.5
			c0.3,2.8,0.1,6.6,0.5,8.7c0.1,0.5,0.2,0.7,0.3,1.1c0.2,0.5,0.6,0.7,1.1,0.8c0.6,0,0.9,0.3,0.9,0.9c0,0.7-0.3,0.9-0.8,0.9H156.7z"
			/>
		<path class="st0" d="M163,29.7c0.5,0,0.8,0.3,0.8,0.9c0,0.6-0.3,0.9-0.8,0.9h-0.2c-1.7,0-2.7-0.3-3.4-0.8
			c-0.6,0.4-1.5,0.8-2.5,0.8h-0.2c-0.5,0-0.7-0.3-0.7-0.9c0-0.6,0.3-0.9,0.8-0.9h0.2c0.7,0,1.1-0.1,1.3-0.3
			c-0.1-0.2-0.1-0.4-0.1-0.6c0-1.8,2-4,3.2-4c0.7,0,1,0.8,1,1.7c0,1-0.4,2.2-1.2,2.9c0.4,0.2,0.9,0.3,1.7,0.3H163z M161,20.9
			c0.1,0,0.1,0.1,0,0.2c-0.2,0.2-0.8,1-1.1,1.3c-0.1,0.1-0.1,0.1-0.2,0c-0.4-0.2-1.2-0.8-1.4-1.1c-0.1-0.1-0.1-0.1,0-0.2
			c0.3-0.4,0.7-0.9,1-1.2c0.2-0.2,0.2-0.2,0.2-0.1C159.9,20.1,160.5,20.6,161,20.9z M160.5,26.6c-0.7,0-1.3,0.7-1.3,1
			c0,0.4,0.3,0.7,1,1.1c0.2-0.1,1.1-0.8,1.1-1C161.3,27,161.1,26.6,160.5,26.6z"/>
		<path class="st0" d="M168.9,16.6c0.5,0,1.3,0.8,1.3,1.6c0,0.3-0.1,0.6-0.2,0.9c-0.2,0.6-0.7,1-1.4,1c-0.6,0-1.1-0.5-1.1-1
			C167.6,18.3,168.5,16.6,168.9,16.6z M168.7,17.9c-0.2,0-0.6,0.5-0.6,0.8c0,0.2,0.3,0.4,0.6,0.4c0.4,0,0.9-0.2,0.9-0.4
			C169.7,18.5,169.2,17.9,168.7,17.9z"/>
		<path class="st0" d="M165.2,27.3c-0.2,0-0.4,0-0.5,0.1c-0.2,0.1-0.5,0.2-0.6,0.2c-0.1,0-0.2-0.1-0.2-0.2c0-0.3,0.5-1,0.9-1.4
			c0.4-0.3,0.8-0.5,1.1-0.5c0.1,0,0.3,0,0.4,0c1.4,0.3,3.3,1.1,4.7,1.4c1,0.2,2,0.3,2.7,0.3c0.1,0,0.3,0,0.4,0c0,0,0.1,0,0.1,0.1
			c0,0.3-0.5,1.2-0.9,1.5c-0.1,0.1-0.2,0.1-0.4,0.1c-0.4,0-1.3-0.1-1.5-0.1c-0.7,0-1.3,0.1-1.8,0.2c-0.3,0.1-0.9,0.4-1.8,0.8
			c-1.3,0.7-2.2,1.1-2.8,1.3c-0.6,0.2-1.2,0.4-2,0.4h-0.2c-0.6,0-0.9-0.3-0.9-0.9c0-0.6,0.3-0.8,0.9-0.8h0.2c1.1,0,2-0.1,2.7-0.3
			c0.7-0.2,1.8-0.6,3.1-1.1C167.3,27.8,166,27.3,165.2,27.3z M170.5,22.6c0.1,0,0.1,0.1,0,0.2c-0.2,0.2-0.8,1-1.1,1.3
			c-0.1,0.1-0.1,0.1-0.2,0c-0.4-0.2-1.2-0.8-1.4-1.1c-0.1-0.1-0.1-0.1,0-0.2c0.3-0.4,0.7-0.9,1-1.2c0.2-0.2,0.2-0.2,0.2-0.1
			C169.4,21.8,169.9,22.3,170.5,22.6z"/>
		<path class="st0" d="M178.7,37.5c0.1,0,0.1,0,0.1,0c0,0.5-0.2,0.9-0.4,1l-3.2,1.8c-0.1,0-0.1,0-0.1,0c0-0.2,0.1-0.6,0.2-0.8
			c0.1-0.1,0.2-0.2,0.5-0.4L178.7,37.5z"/>
		<path class="st0" d="M178,35.8c-0.7,0.3-2.1,1.2-3.2,2c0,0-0.1,0-0.1,0s0,0,0-0.1c0-0.1,0.1-0.3,0.2-0.5c0.1-0.1,0.4-0.5,0.7-0.7
			c0,0,0.1-0.1,0.1-0.1s0-0.1-0.1-0.1c-0.5-0.2-0.7-0.3-0.7-0.7c0,0,0-0.1,0-0.1c0-0.7,0.8-1.8,1.5-2.3c0.3-0.2,0.5-0.3,0.8-0.3
			c0.4,0,0.6,0.2,0.6,0.6c0,0.2-0.1,0.5-0.2,0.8c-0.1,0.2-0.1,0.3-0.2,0.3c-0.1,0-0.1,0-0.2-0.1c-0.1-0.1-0.2-0.2-0.5-0.2
			c-0.6,0-1,0.4-1,0.5c0,0.3,1,0.7,1.4,0.7c0,0,0.1,0,0.1,0c0.2-0.1,0.9-0.3,1.2-0.5c0.1-0.1,0.2-0.1,0.3-0.1c0,0,0.1,0,0.1,0.1
			c0,0.1,0,0.2-0.1,0.3C178.3,35.6,178.1,35.7,178,35.8z"/>
		<path class="st0" d="M181.9,20.2c0.1,0.1,0.1,0.2,0.1,0.2c0,0,0,0.1,0,0.2c-0.1,0.3-0.4,0.8-0.7,1.1c-0.1,1.9-0.4,3.4-1.2,5.5
			c0.2,0.6,0.4,1.5,0.4,2.3c0,0.5-0.1,1.1-0.2,1.4c-0.1,0.3-2.1,0.7-3.4,0.7c-0.4,0-0.7,0-0.9-0.1c-0.1,0-0.1-0.2-0.1-0.5
			c0-0.5,0.1-1.2,0.2-1.4c0,0,0.1-0.1,0.1-0.1c0.1,0,0.1,0,0.2,0c1.1,0,2.2-1,2.9-2.3c-0.9-1.8-2.8-4.1-4.4-5.2
			c0,0.1-0.3,0.5-0.6,0.5c-0.3,0-1.7-1.4-1.8-1.7c0-0.2,0-0.3,0-0.5c0-0.4,0.1-0.9,0.2-1.1c0.1-0.2,0.2-0.3,0.3-0.3
			c0.2,0,0.4,0.1,0.6,0.3c1.2,0.9,2.5,1.9,3.6,3.2c0.8,1,1.8,2.4,2.6,4c0.5-1,0.6-1.7,0.7-3.1c0.1-0.8,0.1-1.3,0.1-1.7
			c0-0.9-0.1-1.2-0.1-1.5c0-0.2,0.1-0.3,0.2-0.6c0.3-0.5,0.5-0.9,0.7-0.9c0,0,0.1,0.1,0.1,0.2C181.5,19.2,181.7,19.7,181.9,20.2z
			 M179.5,28c-0.6,0.9-0.7,1.1-1.3,1.6c0.6,0,1.2-0.1,1.7-0.2C179.8,29,179.8,28.5,179.5,28z"/>
		<path class="st0" d="M185,31.5c-0.1,0-0.1-0.1-0.1-0.5c0-2.4-0.9-8.9-0.9-10c0-0.5,0.4-1.4,0.7-1.9c0.1-0.2,0.3-0.4,0.4-0.4
			c0.1,0,0.1,0.2,0.1,0.6c0.1,1.7,0.6,5.7,0.6,8.6c0,1.2-0.1,2.1-0.3,2.7C185.3,31.2,185.1,31.5,185,31.5z"/>
	</g>
	<rect class="st1" width="250.9" height="49.9"/>
</g>
</svg>
