<?xml version="1.0" encoding="utf-8"?>
<!-- Generator: Adobe Illustrator 19.2.0, SVG Export Plug-In . SVG Version: 6.00 Build 0)  -->
<svg version="1.1" id="Layer_1" xmlns="http://www.w3.org/2000/svg" xmlns:xlink="http://www.w3.org/1999/xlink" x="0px" y="0px"
	 viewBox="0 0 250.8 49.9" style="enable-background:new 0 0 250.8 49.9;" xml:space="preserve">
<style type="text/css">
	.st0{fill:#002F3D;}
	.st1{fill:none;}
</style>
<g>
	<g>
		<path class="st0" d="M92.3,33.6c0.1,0,0.1,0,0.1,0c0,0.5-0.2,0.9-0.4,1l-3.2,1.8c-0.1,0-0.1,0-0.1,0c0-0.2,0.1-0.6,0.2-0.8
			c0.1-0.1,0.2-0.2,0.5-0.4L92.3,33.6z"/>
		<path class="st0" d="M92.5,30.4c-0.9,0.5-2.7,1.6-4.2,2.7c-0.1,0-0.1,0.1-0.1,0.1c0,0-0.1,0-0.1-0.1c0-0.1,0.1-0.5,0.2-0.7
			c0.1-0.2,0.5-0.6,0.9-0.9c0,0,0.1-0.1,0.1-0.1c0,0,0-0.1-0.1-0.1c-0.6-0.2-1-0.5-1-1.1c0-0.9,1-2.3,1.9-3.1
			c0.4-0.3,0.7-0.5,1.1-0.5c0.6,0,0.8,0.3,0.8,0.8c0,0.3-0.1,0.7-0.3,1.1c-0.1,0.2-0.2,0.3-0.3,0.3c-0.1,0-0.1,0-0.2-0.1
			c-0.2-0.2-0.4-0.3-0.7-0.3c-0.6,0-1.4,0.4-1.4,0.7c0,0.3,1.3,0.9,1.9,0.9c0.1,0,0.1,0,0.2,0c0.3-0.1,1.1-0.4,1.6-0.7
			c0.2-0.1,0.3-0.2,0.3-0.2c0.1,0,0.1,0,0.1,0.1c0,0.1,0,0.3-0.1,0.5C92.8,30.3,92.7,30.3,92.5,30.4z"/>
		<path class="st0" d="M98.5,31.5c-0.5,0-1-0.1-1.3-0.4c-0.6-0.5-0.9-1.3-1-2.4c-0.1-0.8-0.2-1.8-0.2-2.9c-0.1-1.6-0.2-4-0.4-5.4
			c0-0.1,0-0.2,0-0.2c0-0.1,0-0.2,0.1-0.3c0.2-0.4,0.4-0.6,0.6-0.9c0.1-0.2,0.2-0.3,0.2-0.3c0.1,0,0.2,0.1,0.2,0.5
			c0.3,2.8,0.1,6.6,0.5,8.7c0.1,0.5,0.2,0.7,0.3,1.1c0.2,0.5,0.6,0.7,1.1,0.8c0.6,0,0.9,0.3,0.9,0.9c0,0.7-0.3,0.9-0.8,0.9H98.5z"/>
		<path class="st0" d="M102.3,28.6c0,0.5,0.5,1,1.1,1.1c0.2,0,0.3,0,0.4,0h0.1c0.7,0,0.7,0.5,0.7,0.8c0,0.2,0,1-0.7,1h-0.1
			c-0.1,0-0.2,0-0.5,0c-1.2-0.1-1.6-1.2-1.7-1.3c-0.2,0.5-1.2,1.3-2.9,1.3h-0.1c-0.5,0-0.8-0.4-0.8-0.9s0.2-0.9,0.8-0.9h0.5
			c0.8,0,1.9-0.1,2.6-1.3c0.2-0.4,0.3-0.4,0.4-0.4C102.2,28,102.3,28.2,102.3,28.6z M103.1,34.8c0.1,0,0.1,0.1,0,0.2
			c-0.2,0.2-0.8,1-1.1,1.3c-0.1,0.1-0.1,0.1-0.2,0c-0.4-0.2-1.2-0.8-1.4-1.1c-0.1-0.1-0.1-0.1,0-0.2c0.3-0.4,0.7-0.9,1-1.2
			c0.2-0.2,0.2-0.2,0.2-0.1C102,33.9,102.6,34.4,103.1,34.8z"/>
		<path class="st0" d="M105.5,14c0.5,0,1.3,0.8,1.3,1.6c0,0.3-0.1,0.6-0.2,0.9c-0.2,0.6-0.7,1-1.4,1c-0.6,0-1.1-0.5-1.1-1
			C104.2,15.8,105.1,14,105.5,14z M105.3,15.3c-0.2,0-0.6,0.5-0.6,0.8c0,0.2,0.3,0.4,0.6,0.4c0.4,0,0.9-0.2,0.9-0.4
			C106.2,16,105.7,15.3,105.3,15.3z"/>
		<path class="st0" d="M105.7,30.7c-0.4,0.5-0.9,0.8-1.8,0.8h-0.2c-0.5,0-0.8-0.3-0.8-1c0-0.6,0.3-0.8,0.8-0.8h0.2
			c0.4,0,0.8-0.1,1.1-0.2c0.3-0.1,0.5-0.2,0.5-0.3c0-1.4-0.5-4.2-0.7-7c0-0.3-0.2-1.3-0.3-1.7c0-0.1,0-0.1,0-0.2
			c0-0.2,0.3-0.7,0.4-1c0.2-0.4,0.4-0.7,0.6-0.7c0.1,0,0.1,0.1,0.1,0.2c0.2,0.8,0.5,1.2,0.6,1.4c0,0.1,0.1,0.2,0.1,0.2
			c0,0,0,0.1,0,0.1c-0.1,0.2-0.3,0.6-0.4,0.8c0.1,2.7,0.6,4.9,0.6,6.1C106.5,28.8,106.2,29.9,105.7,30.7z"/>
		<path class="st0" d="M110.1,31.5c-0.1,0-0.1-0.1-0.1-0.5c0-2.4-0.9-8.9-0.9-10c0-0.5,0.4-1.4,0.7-1.9c0.1-0.2,0.3-0.4,0.4-0.4
			c0.1,0,0.1,0.2,0.1,0.6c0.1,1.7,0.6,5.7,0.6,8.6c0,1.2-0.1,2.1-0.3,2.7C110.4,31.2,110.2,31.5,110.1,31.5z"/>
		<path class="st0" d="M126.2,15.6c0.1,0,0.1,0,0.1,0c0,0.5-0.2,0.9-0.4,1l-3.2,1.8c-0.1,0-0.1,0-0.1,0c0-0.2,0.1-0.6,0.2-0.8
			c0.1-0.1,0.2-0.2,0.5-0.4L126.2,15.6z"/>
		<path class="st0" d="M121.3,35.4c1.9,0,4.5-1.4,4.5-2.3c-0.1-1.5-0.3-2.5-0.4-3.8c-0.3-2.4-0.5-4.3-0.9-7.5c0-0.4-0.1-0.6-0.1-0.8
			c0-0.2,0-0.3,0.1-0.5c0.2-0.4,0.6-1.4,0.8-1.4c0.1,0,0.1,0.1,0.1,0.2c0.1,0.7,0.1,1.2,0.2,2.5c0.1,1.4,0.3,3.4,0.6,5.3
			c0.2,1.5,1.1,2.5,2.1,2.5h0.2c0.5,0,0.8,0.3,0.8,0.9c0,0.6-0.3,0.9-0.8,0.9h-0.3c-0.7,0-1.4-0.4-1.8-1.2c0.1,0.8,0.1,1.3,0.1,1.7
			c0,1.5-0.3,2.1-0.7,2.8c-0.4,0.6-1.9,2.4-4.9,2.4c-3.1,0-4-1.6-4-3.2c0-1.1,0.4-2.4,0.9-3.3c0.3-0.5,0.5-0.7,0.6-0.7
			c0.1,0,0.1,0,0.1,0.1c0,0.1-0.1,0.3-0.2,0.6c-0.3,0.6-0.6,1.4-0.6,2C117.8,34.7,119.7,35.4,121.3,35.4z"/>
		<path class="st0" d="M131,21.7c0.5,0,1.3,0.8,1.3,1.6c0,0.3-0.1,0.6-0.2,0.9c-0.2,0.6-0.7,1-1.4,1c-0.6,0-1.1-0.5-1.1-1
			C129.7,23.4,130.6,21.7,131,21.7z M130.8,22.9c-0.2,0-0.6,0.5-0.6,0.8c0,0.2,0.3,0.4,0.6,0.4c0.4,0,0.9-0.2,0.9-0.4
			C131.7,23.6,131.3,22.9,130.8,22.9z"/>
		<path class="st0" d="M132.1,28.6c0,0.5,0.5,1,1.1,1.1c0.2,0,0.3,0,0.4,0h0.1c0.7,0,0.7,0.5,0.7,0.8c0,0.2,0,1-0.7,1h-0.1
			c-0.1,0-0.2,0-0.5,0c-1.2-0.1-1.6-1.2-1.7-1.3c-0.2,0.5-1.2,1.3-2.9,1.3h-0.1c-0.5,0-0.8-0.4-0.8-0.9s0.2-0.9,0.8-0.9h0.5
			c0.8,0,1.9-0.1,2.6-1.3c0.2-0.4,0.3-0.4,0.4-0.4C132,28,132.1,28.2,132.1,28.6z M132.9,34.8c0.1,0,0.1,0.1,0,0.2
			c-0.2,0.2-0.8,1-1.1,1.3c-0.1,0.1-0.1,0.1-0.2,0c-0.4-0.2-1.2-0.8-1.4-1.1c-0.1-0.1-0.1-0.1,0-0.2c0.3-0.4,0.7-0.9,1-1.2
			c0.2-0.2,0.2-0.2,0.2-0.1C131.8,33.9,132.4,34.4,132.9,34.8z"/>
		<path class="st0" d="M137.4,15c0.1,0,0.1,0,0.1,0c0,0.5-0.2,0.9-0.4,1l-3.2,1.8c-0.1,0-0.1,0-0.1,0c0-0.2,0.1-0.6,0.2-0.8
			c0.1-0.1,0.2-0.2,0.5-0.4L137.4,15z"/>
		<path class="st0" d="M138.1,27.4c0,0.9-0.3,2.3-0.7,2.9c-0.2,0.3-0.7,0.5-1.1,0.7c-1.1,0.3-1.9,0.5-2.6,0.5h-0.2
			c-0.5,0-0.8-0.3-0.8-0.9c0-0.6,0.2-0.9,0.8-0.9h0.2c1,0,2.2-0.2,2.9-0.4c0.6-0.2,0.7-0.3,0.7-0.8c0-0.4-0.1-0.7-0.2-1
			c-0.2,0.4-0.7,0.8-1.4,0.8c-0.8,0-1.4-0.5-1.4-1.5c0-1.4,1.1-3.3,1.6-3.3C137.2,23.5,138.1,26.1,138.1,27.4z M137,19.1
			c0.1-0.1,0.2-0.2,0.3-0.1c0.4,0.4,0.8,0.8,1.2,1.1c0.1,0.1,0.1,0.1,0,0.2c-0.4,0.4-0.7,0.8-1.1,1.2c-0.1,0.1-0.1,0.1-0.2,0
			c-0.3-0.2-0.7-0.6-1.1-1c-0.2,0.3-0.7,0.8-0.9,0.9c-0.1,0.1-0.2,0.1-0.3,0c-0.4-0.2-0.9-0.7-1.2-1.1c-0.1-0.1-0.1-0.1,0-0.3
			c0.3-0.4,0.7-0.8,1.1-1.2c0.1-0.1,0.1-0.1,0.2,0c0.3,0.3,0.8,0.8,1.1,1C136.3,19.8,136.8,19.3,137,19.1z M136.1,25.4
			c-0.2-0.1-0.4-0.2-0.6-0.2c-0.1,0-0.3,0.1-0.4,0.3c-0.1,0.2-0.2,0.3-0.2,0.4c0,0.4,0.4,0.5,0.8,0.5c0.4,0,0.7-0.2,0.7-0.4
			C136.5,26,136.4,25.6,136.1,25.4z"/>
		<path class="st0" d="M146.8,24.3c0,0.4-0.1,0.8-0.2,1.2c0.2,0.1,0.3,0.2,0.3,0.3c0,0.3-0.1,0.6-0.3,0.8c0,0.1-0.1,0.1-0.1,0.1
			l-0.4-0.2c-0.4,0.6-1,1.4-1.9,1.8c-0.3,0.2-0.7,0.3-1.2,0.3c-0.2,0-0.3,0-0.3-0.1c0-0.1,0.2-0.2,0.4-0.3c0.7-0.4,2-1.4,2.4-2
			c-0.4-0.2-0.8-0.6-0.8-1.1c0-0.3,0.2-0.7,0.5-1c0.3-0.4,0.7-0.6,1-0.6C146.7,23.3,146.8,23.8,146.8,24.3z M145.4,24.6
			C145.4,24.6,145.4,24.6,145.4,24.6c0,0.2,0.3,0.4,0.6,0.5c0.1-0.1,0.1-0.3,0.1-0.5c0-0.2-0.1-0.3-0.3-0.3
			C145.7,24.3,145.5,24.4,145.4,24.6z"/>
		<path class="st0" d="M151.6,35c0.1-0.1,0.2-0.2,0.3-0.1c0.4,0.4,0.8,0.8,1.2,1.1c0.1,0.1,0.1,0.1,0,0.2c-0.4,0.4-0.7,0.8-1.1,1.2
			c-0.1,0.1-0.1,0.1-0.2,0c-0.3-0.2-0.7-0.6-1.1-1c-0.2,0.3-0.7,0.8-0.9,0.9c-0.1,0.1-0.2,0.1-0.3,0c-0.4-0.2-0.9-0.7-1.2-1.1
			c-0.1-0.1-0.1-0.1,0-0.3c0.3-0.4,0.7-0.8,1.1-1.2c0.1-0.1,0.1-0.1,0.2,0c0.3,0.3,0.8,0.8,1.1,1C151,35.7,151.4,35.2,151.6,35z"/>
		<path class="st0" d="M149.3,32.5c0,0.1,0,0.2-0.1,0.4c-0.3,0.6-0.5,1.1-0.7,1.3c-0.1,0.1-0.1,0.1-0.2,0c-0.4-0.2-0.9-0.3-1.7-0.3
			c-1.4,0-2.2,0.2-2.4,0.7c0.2,1,0.3,1.6,0.4,2l0.3,1.7c0.1,0.9,0.2,1.7,0.3,2.4c0,0.7-0.1,1.5-0.3,2.2c-0.1,0.3-0.2,0.4-0.3,0.4
			c-0.1,0-0.1-0.1-0.1-0.4c0-0.2,0-0.5,0-0.9c0-0.7-0.1-1.6-0.5-3.6c-0.3-1.5-0.4-2.3-0.5-2.7c0-0.8,0.2-1.5,0.5-2.2
			c0.4-0.7,0.8-1.2,1.5-1.5l0.5-1.2c0.4-0.9,1-1.6,1.7-2c0.7-0.4,1.6-0.8,2.4-0.8c0.2,0,0.5,0.1,0.6,0.2c0.2,0.1,0.5,0.4,0.8,0.8
			c0.3,0.4,0.6,0.7,1,0.7h0.3c0.5,0,0.7,0.3,0.7,0.8c0,0.7-0.2,1-0.7,1h-0.3c-0.6,0-1.1-0.3-1.5-0.8c-0.4-0.4-0.7-0.7-0.9-0.8
			c-0.1-0.1-0.3-0.1-0.7-0.1c-0.8,0-1.6,0.3-2.3,0.9c0.7,0.3,1.2,0.6,1.7,1C149,32,149.2,32.3,149.3,32.5z"/>
		<path class="st0" d="M154.7,14.3c0.5,0,1.3,0.8,1.3,1.6c0,0.3-0.1,0.6-0.2,0.9c-0.2,0.6-0.7,1-1.4,1c-0.6,0-1.1-0.5-1.1-1
			C153.4,16,154.3,14.3,154.7,14.3z M154.6,15.5c-0.2,0-0.6,0.5-0.6,0.8c0,0.2,0.3,0.4,0.6,0.4c0.4,0,0.9-0.2,0.9-0.4
			C155.5,16.2,155,15.5,154.6,15.5z"/>
		<path class="st0" d="M155.9,27.8c0.1,0.4,0.3,0.7,0.6,0.9c0.2,0.2,0.5,0.3,0.8,0.5c0.3,0.1,0.5,0.2,0.6,0.3
			c0.2,0.1,0.2,0.6,0.2,0.9c0,0.3-0.1,0.8-0.3,1.1c-0.1,0.1-0.1,0.1-0.2,0c-1-0.5-1.8-0.9-2.3-0.9c-0.4,0-0.7,0.1-1.2,0.4
			c-0.5,0.3-1,0.5-1.6,0.5h-0.2c-0.5,0-0.7-0.3-0.7-0.9c0-0.6,0.2-0.9,0.7-0.9h0.2c0.7,0,1.5-0.2,2.4-0.6c0-0.2-0.1-0.6-0.2-1.2
			c-0.1-0.7-0.3-3.2-0.6-6.3c-0.1-0.3-0.2-0.8-0.2-1.1c0-0.1,0-0.1,0-0.2c0,0,0-0.1,0-0.1c0-0.1,0.1-0.3,0.3-0.7s0.5-0.8,0.6-0.8
			c0.1,0,0.1,0.1,0.1,0.2c0.2,0.7,0.4,1.1,0.6,1.4c0,0.1,0.1,0.1,0.1,0.2c0,0,0,0.1,0,0.2c-0.1,0.2-0.3,0.7-0.5,0.9
			C155.6,25.2,155.8,27.4,155.9,27.8z"/>
		<path class="st0" d="M161.3,31.5c-0.1,0-0.1-0.1-0.1-0.5c0-2.4-0.9-8.9-0.9-10c0-0.5,0.4-1.4,0.7-1.9c0.1-0.2,0.3-0.4,0.4-0.4
			c0.1,0,0.1,0.2,0.1,0.6c0.1,1.7,0.6,5.7,0.6,8.6c0,1.2-0.1,2.1-0.3,2.7C161.6,31.2,161.4,31.5,161.3,31.5z"/>
	</g>
	<rect class="st1" width="250.8" height="49.9"/>
</g>
</svg>
