<?xml version="1.0" encoding="utf-8"?>
<!-- Generator: Adobe Illustrator 19.2.0, SVG Export Plug-In . SVG Version: 6.00 Build 0)  -->
<svg version="1.1" id="Layer_1" xmlns="http://www.w3.org/2000/svg" xmlns:xlink="http://www.w3.org/1999/xlink" x="0px" y="0px"
	 viewBox="0 0 250.8 49.9" style="enable-background:new 0 0 250.8 49.9;" xml:space="preserve">
<style type="text/css">
	.st0{fill:#002F3D;}
	.st1{fill:none;}
</style>
<g>
	<g>
		<path class="st0" d="M81.5,28.7c-0.9,0.5-2.7,1.6-4.2,2.7c-0.1,0-0.1,0.1-0.1,0.1c0,0-0.1,0-0.1-0.1c0-0.1,0.1-0.5,0.2-0.7
			c0.1-0.2,0.5-0.6,0.9-0.9c0,0,0.1-0.1,0.1-0.1c0,0,0-0.1-0.1-0.1c-0.6-0.2-1-0.5-1-1.1c0-0.9,1-2.3,1.9-3.1
			c0.4-0.3,0.7-0.5,1.1-0.5c0.6,0,0.8,0.3,0.8,0.8c0,0.3-0.1,0.7-0.3,1.1c-0.1,0.2-0.2,0.3-0.3,0.3c-0.1,0-0.1,0-0.2-0.1
			c-0.2-0.2-0.4-0.3-0.7-0.3c-0.6,0-1.4,0.4-1.4,0.7c0,0.3,1.3,0.9,1.9,0.9c0.1,0,0.1,0,0.2,0c0.3-0.1,1.1-0.4,1.6-0.7
			c0.2-0.1,0.3-0.2,0.3-0.2c0.1,0,0.1,0,0.1,0.1c0,0.1,0,0.3-0.1,0.5C81.8,28.6,81.7,28.6,81.5,28.7z"/>
		<path class="st0" d="M89,32c0.1-0.1,0.2-0.2,0.3-0.1c0.4,0.4,0.8,0.8,1.2,1.1c0.1,0.1,0.1,0.1,0,0.2c-0.4,0.4-0.7,0.8-1.1,1.2
			c-0.1,0.1-0.1,0.1-0.2,0c-0.3-0.2-0.7-0.6-1.1-1c-0.2,0.3-0.7,0.8-0.9,0.9c-0.1,0.1-0.2,0.1-0.3,0c-0.4-0.2-0.9-0.7-1.2-1.1
			c-0.1-0.1-0.1-0.1,0-0.3c0.3-0.4,0.7-0.8,1.1-1.2c0.1-0.1,0.1-0.1,0.2,0c0.3,0.3,0.8,0.8,1.1,1C88.4,32.7,88.8,32.2,89,32z"/>
		<path class="st0" d="M84.9,24.1c-0.1-1.6-0.2-4.2-0.4-5.5c0,0,0-0.1,0-0.1c0-0.2,0.3-0.6,0.6-1.1c0.1-0.2,0.2-0.5,0.3-0.5
			c0.1,0,0.2,0.1,0.2,0.5c0.3,2.8,0.1,6.6,0.5,8.9c0.2,0.8,0.3,1.2,0.7,1.4c0.4,0.2,1,0.2,1.5,0.2c0.5,0,1.3,0,1.8-0.5
			c-0.1-0.7-0.6-1.6-0.8-1.9c0,0,0-0.1,0-0.1c0-0.2,0.4-1.1,0.6-1.5c0-0.1,0.1-0.1,0.1-0.1c0.1,0,0.2,0.1,0.3,0.4
			c0.4,0.7,0.6,1.5,0.6,2.4c0,0.7-0.1,1.5-0.6,2.1c-0.6,0.7-1.5,0.9-2.4,0.9c-0.6,0-1.3-0.1-1.8-0.6C85.3,28.5,85.1,27.6,84.9,24.1z
			"/>
		<path class="st0" d="M99.1,24c0.3,0.3,0.3,0.6,0.3,0.9c0,0.2-0.1,0.5-0.3,0.7c-0.2,0.2-0.5,0.3-0.8,0.3c-0.2,0-0.5-0.1-0.7-0.3
			c-0.2-0.2-0.3-0.5-0.3-0.8c0-0.3,0.1-0.6,0.3-0.8c0.2-0.2,0.5-0.3,0.8-0.3C98.6,23.7,98.9,23.8,99.1,24z M99.1,28.1
			c0.3,0.2,0.3,0.6,0.3,0.8c0,0.2-0.1,0.5-0.3,0.8c-0.2,0.2-0.5,0.3-0.8,0.3c-0.2,0-0.5-0.1-0.7-0.3c-0.2-0.2-0.3-0.5-0.3-0.8
			c0-0.3,0.1-0.6,0.3-0.8c0.2-0.2,0.5-0.3,0.8-0.3C98.6,27.8,98.9,27.9,99.1,28.1z"/>
		<path class="st0" d="M110,30.5c0.1,0,0.1,0,0.1,0c0,0.5-0.2,0.9-0.4,1l-3.3,1.9c-0.1,0-0.1,0-0.1,0c0-0.2,0.1-0.6,0.2-0.8
			c0.1-0.1,0.2-0.2,0.5-0.4L110,30.5z M110,32.1c0.1,0,0.1,0,0.1,0c0,0.5-0.2,0.9-0.4,1l-3.3,1.9c-0.1,0-0.1,0-0.1,0
			c0-0.2,0.1-0.6,0.2-0.8c0.1-0.1,0.2-0.2,0.5-0.4L110,32.1z"/>
		<path class="st0" d="M108.9,17.9c0.1-0.1,0.2-0.2,0.3-0.1c0.4,0.4,0.8,0.8,1.2,1.1c0.1,0.1,0.1,0.1,0,0.2
			c-0.4,0.4-0.7,0.8-1.1,1.2c-0.1,0.1-0.1,0.1-0.2,0c-0.3-0.2-0.7-0.6-1.1-1c-0.2,0.3-0.7,0.8-0.9,0.9c-0.1,0.1-0.2,0.1-0.3,0
			c-0.4-0.2-0.9-0.7-1.2-1.1c-0.1-0.1-0.1-0.1,0-0.3c0.3-0.4,0.7-0.8,1.1-1.2c0.1-0.1,0.1-0.1,0.2,0c0.3,0.3,0.8,0.8,1.1,1
			C108.3,18.6,108.7,18.1,108.9,17.9z M111.3,27.7c0.4,0.2,0.7,0.4,0.9,0.4h0.3c0.5,0,0.8,0.3,0.8,0.8c0,0.6-0.3,1-0.9,1h-0.2
			c-0.6,0-1.2-0.2-1.8-0.7c-0.6-0.5-0.9-1.3-1.1-2.4c-0.2,0.3-0.3,0.6-0.7,0.8c-0.5,0.3-1.3,0.5-2.1,0.5c-0.6,0-1.1-0.1-1.1-0.5
			c0.2-1.8,0.5-2,1.3-2.7c0.4-0.3,1.4-0.9,1.8-1.2c0-0.2,0-0.3,0-0.4c0-0.4,0.1-0.6,0.3-1c0.1-0.2,0.2-0.4,0.3-0.4
			c0.1,0,0.1,0.1,0.2,0.4c0.3,1.6,0.4,3,0.6,3.8C110.3,26.7,110.7,27.3,111.3,27.7z M108.9,24.5c-0.7,0.5-2,1.2-2,1.5
			c0,0.1,0.2,0.2,0.6,0.2c0.5,0,1.2-0.1,1.7-0.4C109.1,25.3,109,25.1,108.9,24.5z"/>
		<path class="st0" d="M113.3,20.1c-0.6,0-0.9-0.6-0.9-1.2c0-0.2,0-0.4,0.1-0.6c0-0.2,0.2-0.6,0.4-0.6c0.1,0,0.2,0.2,0.2,0.5v0.2
			c0,0.3,0.2,0.4,0.5,0.4h0c0.4,0,0.6-0.3,0.7-0.8c0-0.2,0.2-0.8,0.5-0.8c0.1,0,0.2,0.1,0.2,0.4c0,0.2,0.1,0.3,0.3,0.3
			c0.4,0,0.6-0.3,0.7-0.7c0.1-0.5,0.2-0.7,0.3-0.7c0.2,0,0.2,0.5,0.2,0.8c0,0.2,0,0.5-0.1,0.8c-0.2,0.5-0.5,0.9-1.2,0.9
			c-0.2,0-0.3-0.1-0.4-0.1c-0.1,0-0.1,0-0.2,0.1C114.2,19.7,113.9,20.1,113.3,20.1z M116.3,14.7C116.4,14.6,116.4,14.7,116.3,14.7
			c0,0.4-0.1,0.7-0.3,1c-0.1,0.1-0.2,0.2-0.4,0.2l-3.1,1.5c0,0-0.1,0-0.1,0c0-0.1,0.1-0.4,0.2-0.6c0.1-0.3,0.2-0.3,0.2-0.4
			c0.1-0.1,0.1-0.1,0.3-0.2L116.3,14.7z"/>
		<path class="st0" d="M116,27c0,0.5,0.5,1,1.1,1.1c0.2,0,0.3,0,0.4,0h0.1c0.7,0,0.7,0.5,0.7,0.8c0,0.2,0,1-0.7,1h-0.1
			c-0.1,0-0.2,0-0.5,0c-1.2-0.1-1.6-1.2-1.7-1.3c-0.2,0.5-1.2,1.3-2.9,1.3h-0.1c-0.5,0-0.8-0.4-0.8-0.9s0.2-0.9,0.8-0.9h0.5
			c0.8,0,1.9-0.1,2.6-1.3c0.2-0.4,0.3-0.4,0.4-0.4C115.9,26.4,116,26.5,116,27z M116.6,22.3c0.1,0,0.1,0.1,0,0.2
			c-0.2,0.2-0.8,1-1.1,1.3c-0.1,0.1-0.1,0.1-0.2,0c-0.4-0.2-1.2-0.8-1.4-1.1c-0.1-0.1-0.1-0.1,0-0.2c0.3-0.4,0.7-0.9,1-1.2
			c0.2-0.2,0.2-0.2,0.2-0.1C115.5,21.5,116.1,22,116.6,22.3z"/>
		<path class="st0" d="M122.6,13.4c0,0.4-0.1,0.8-0.2,1.2c0.2,0.1,0.3,0.2,0.3,0.3c0,0.3-0.1,0.6-0.3,0.8c0,0.1-0.1,0.1-0.1,0.1
			l-0.4-0.2c-0.4,0.6-1,1.4-1.9,1.8c-0.3,0.2-0.7,0.3-1.2,0.3c-0.2,0-0.3,0-0.3-0.1c0-0.1,0.2-0.2,0.4-0.3c0.7-0.4,2-1.4,2.4-2
			c-0.4-0.2-0.8-0.6-0.8-1.1c0-0.3,0.2-0.7,0.5-1c0.3-0.4,0.7-0.6,1-0.6C122.4,12.4,122.5,12.9,122.6,13.4z M121.1,13.7
			C121.1,13.7,121.1,13.7,121.1,13.7c0,0.2,0.3,0.4,0.6,0.5c0.1-0.1,0.1-0.3,0.1-0.5c0-0.2-0.1-0.3-0.3-0.3
			C121.4,13.4,121.2,13.5,121.1,13.7z"/>
		<path class="st0" d="M125.5,28c0.5,0,0.8,0.3,0.8,0.8c0,0.6-0.3,1-0.8,1h-0.2c-0.8,0-1.5-0.3-2.2-0.6c-0.6-0.4-0.9-0.7-1.3-1.3
			c-0.9,0.8-1.7,1.4-2.2,1.6c-0.6,0.2-1.3,0.4-2.2,0.4c-0.6,0-0.9-0.3-0.9-0.9c0-0.6,0.3-0.9,0.9-0.9h0.1c1.4,0,2.3-0.3,3.5-0.9
			c-0.4-0.5-1.3-0.8-1.8-0.8c-0.1,0-0.1-0.1-0.1-0.3c0-0.4,0.1-1.1,0.4-1.3c0.8-0.6,1.6-0.9,2.4-0.9c0.8,0,1.5,0.3,2.1,0.8
			c0.1,0.1,0.2,0.3,0.2,0.6c0,0.6-0.3,1.3-1,1.8c0.6,0.6,1.3,1,2.1,1H125.5z M122.8,20c0.1,0,0.1,0.1,0,0.2c-0.2,0.2-0.8,1-1.1,1.3
			c-0.1,0.1-0.1,0.1-0.2,0c-0.4-0.2-1.2-0.8-1.4-1.1c-0.1-0.1-0.1-0.1,0-0.2c0.3-0.4,0.7-0.9,1-1.2c0.2-0.2,0.2-0.2,0.2-0.1
			C121.7,19.2,122.2,19.7,122.8,20z"/>
		<path class="st0" d="M129.7,34.8c0.1,0,0.1,0,0.1,0c0,0.5-0.2,0.9-0.4,1l-3.2,1.8c-0.1,0-0.1,0-0.1,0c0-0.2,0.1-0.6,0.2-0.8
			c0.1-0.1,0.2-0.2,0.5-0.4L129.7,34.8z"/>
		<path class="st0" d="M128.4,28.7c-0.3,0.5-0.9,0.9-2,1.1c-0.3,0-0.7,0.1-1.1,0.1c-0.5,0-0.8-0.4-0.8-0.9s0.2-0.9,0.8-0.9h0.4
			c0.8,0,2.1,0,2.5-0.5c-0.1-0.7-0.6-1.6-0.8-1.9c0,0,0,0,0-0.1c0-0.3,0.5-1.4,0.5-1.5c0-0.1,0.1-0.1,0.1-0.1c0.3,0,0.9,1.3,0.9,2.8
			C128.9,27.4,128.8,28.1,128.4,28.7z M129.3,31.8c0.1,0,0.1,0.1,0,0.2c-0.2,0.2-0.8,1-1.1,1.3c-0.1,0.1-0.1,0.1-0.2,0
			c-0.4-0.2-1.2-0.8-1.4-1.1c-0.1-0.1-0.1-0.1,0-0.2c0.3-0.4,0.7-0.9,1-1.2c0.2-0.2,0.2-0.2,0.2-0.1
			C128.1,30.9,128.7,31.5,129.3,31.8z"/>
		<path class="st0" d="M138.3,17.6c0,0.4-0.1,0.8-0.2,1.2c0.2,0.1,0.3,0.2,0.3,0.3c0,0.3-0.1,0.6-0.3,0.8c0,0.1-0.1,0.1-0.1,0.1
			l-0.4-0.2c-0.4,0.6-1,1.4-1.9,1.8c-0.3,0.2-0.7,0.3-1.2,0.3c-0.2,0-0.3,0-0.3-0.1c0-0.1,0.2-0.2,0.4-0.3c0.7-0.4,2-1.4,2.4-2
			c-0.4-0.2-0.8-0.6-0.8-1.1c0-0.3,0.2-0.7,0.5-1c0.3-0.4,0.7-0.6,1-0.6C138.1,16.7,138.3,17.2,138.3,17.6z M136.9,18
			C136.9,18,136.8,18,136.9,18c0,0.2,0.3,0.4,0.6,0.5c0.1-0.1,0.1-0.3,0.1-0.5c0-0.2-0.1-0.3-0.3-0.3C137.2,17.7,137,17.8,136.9,18z
			"/>
		<path class="st0" d="M140.4,26.1c-0.1,0.5-0.4,1.3-0.7,1.6c-0.1,0.1-0.1,0.1-0.1,0.1c0,0-0.1,0-0.1,0c-0.2-0.1-0.6-0.2-1.2-0.2
			c-1.3,0-2.8,0.3-2.9,0.8c0,0.6,0.7,3.1,0.7,6.3c0,0.3,0,0.6,0,0.9c-0.1,1.3-0.5,2.1-0.7,2.1c-0.1,0-0.1-0.1-0.1-0.5
			c0-0.2,0-0.5,0-0.8c0-1.8-0.4-3.9-0.7-5.9c-0.1-0.6-0.2-1-0.2-1.5c0-1.5,0.6-2,0.9-2.3c0-0.1,0-0.2,0-0.2c0-1.2,0.7-3.1,1.9-3.1
			c1.4,0,2.5,1.6,3.1,2.6C140.4,26,140.4,26,140.4,26.1z M136.9,25.3c-0.5,0-0.7,0.5-0.8,0.9c0.5-0.3,1.4-0.4,1.8-0.4
			C137.6,25.5,137.3,25.3,136.9,25.3z"/>
		<path class="st0" d="M145.2,29.8c-0.5,0-1-0.1-1.3-0.4c-0.6-0.5-0.9-1.3-1-2.4c-0.1-0.8-0.2-1.8-0.2-2.9c-0.1-1.6-0.2-4-0.4-5.4
			c0-0.1,0-0.2,0-0.2c0-0.1,0-0.2,0.1-0.3c0.2-0.4,0.4-0.6,0.6-0.9c0.1-0.2,0.2-0.3,0.2-0.3c0.1,0,0.2,0.1,0.2,0.5
			c0.3,2.8,0.1,6.6,0.5,8.7c0.1,0.5,0.2,0.7,0.3,1.1c0.2,0.5,0.6,0.7,1.1,0.8c0.6,0,0.9,0.3,0.9,0.9c0,0.7-0.3,0.9-0.8,0.9H145.2z"
			/>
		<path class="st0" d="M146.4,26.3c0-0.4,0.2-1.3,0.5-1.9c0.6-1.1,1.5-1.7,2.3-1.7c0.6,0,1.6,0.3,2.2,0.8c0.2,0.2,0.3,0.3,0.3,0.4
			c0,0.1-0.1,0.1-0.2,0.1c-0.3,0-0.8-0.1-1.2-0.1c-0.9,0-2.9,0.8-2.9,1.3c0,0.3,1.1,1.8,2.6,1.8h0.1c1-0.4,2.2-0.9,2.9-1.3
			c0.3-0.2,0.5-0.2,0.7-0.2c0.1,0,0.1,0,0.1,0.1c0,0.2-0.4,0.9-0.6,1.3c-0.1,0.1-0.2,0.2-0.3,0.3c-0.5,0.3-1.4,0.7-2.5,1.2
			c-1.2,0.5-3.6,1.4-4.7,1.4h-0.2c-0.5,0-0.8-0.3-0.8-0.9c0-0.6,0.3-0.9,0.8-0.9h0.2c0.2,0,0.9,0,1.6-0.2
			C146.7,27.4,146.4,26.9,146.4,26.3z M150.2,18.7c0.1,0,0.1,0.1,0,0.2c-0.2,0.2-0.8,1-1.1,1.3c-0.1,0.1-0.1,0.1-0.2,0
			c-0.4-0.2-1.2-0.8-1.4-1.1c-0.1-0.1-0.1-0.1,0-0.2c0.3-0.4,0.7-0.9,1-1.2c0.2-0.2,0.2-0.2,0.2-0.1
			C149.1,17.9,149.6,18.4,150.2,18.7z"/>
		<path class="st0" d="M157.3,16.9c0.5,0,1.3,0.8,1.3,1.6c0,0.3-0.1,0.6-0.2,0.9c-0.2,0.6-0.7,1-1.4,1c-0.6,0-1.1-0.5-1.1-1
			C156,18.6,156.9,16.9,157.3,16.9z M157.1,18.1c-0.2,0-0.6,0.5-0.6,0.8c0,0.2,0.3,0.4,0.6,0.4c0.4,0,0.9-0.2,0.9-0.4
			C158.1,18.8,157.6,18.1,157.1,18.1z"/>
		<path class="st0" d="M160.4,26.6c0,0.7-0.1,1.4-0.2,1.6c-0.3,1.2-1.6,1.6-3.9,1.6c-0.5,0-0.8-0.1-0.9-0.2
			c-0.2-0.2-0.2-0.5-0.2-0.9c0-0.3,0-0.5,0.1-0.7c0.1-0.3,0.1-0.4,0.2-0.4c0.1,0,0.1,0.1,0.2,0.1c0.2,0.2,0.7,0.2,1.3,0.2
			c1,0,2.1-0.2,2.6-0.5c0.1,0,0.1-0.1,0.1-0.1c0,0,0-0.1,0-0.1c-0.3-1.1-1.7-3.1-2.8-3.1c-0.2,0-0.3,0.2-0.4,0.2c0,0-0.1,0-0.1-0.1
			c0-0.4,0.3-1.4,0.6-1.7c0.1-0.1,0.2-0.1,0.4-0.1c0.3,0,0.6,0.1,0.8,0.2c0.5,0.2,1.2,0.9,1.7,1.9C160.1,25.2,160.4,25.9,160.4,26.6
			z"/>
		<path class="st0" d="M165.9,35.8c0.1,0,0.1,0,0.1,0c0,0.5-0.2,0.9-0.4,1l-3.2,1.8c-0.1,0-0.1,0-0.1,0c0-0.2,0.1-0.6,0.2-0.8
			c0.1-0.1,0.2-0.2,0.5-0.4L165.9,35.8z"/>
		<path class="st0" d="M165.3,34.1c-0.7,0.3-2.1,1.2-3.2,2c0,0-0.1,0-0.1,0c0,0,0,0,0-0.1c0-0.1,0.1-0.3,0.2-0.5
			c0.1-0.1,0.4-0.5,0.7-0.7c0,0,0.1-0.1,0.1-0.1s0-0.1-0.1-0.1c-0.5-0.2-0.7-0.3-0.7-0.7c0,0,0-0.1,0-0.1c0-0.7,0.8-1.8,1.5-2.3
			c0.3-0.2,0.5-0.3,0.8-0.3c0.4,0,0.6,0.2,0.6,0.6c0,0.2-0.1,0.5-0.2,0.8c-0.1,0.2-0.1,0.3-0.2,0.3c-0.1,0-0.1,0-0.2-0.1
			c-0.1-0.1-0.2-0.2-0.5-0.2c-0.6,0-1,0.4-1,0.5c0,0.3,1,0.7,1.4,0.7c0,0,0.1,0,0.1,0c0.2-0.1,0.9-0.3,1.2-0.5
			c0.1-0.1,0.2-0.1,0.3-0.1c0,0,0.1,0,0.1,0.1c0,0.1,0,0.2-0.1,0.3C165.5,34,165.4,34.1,165.3,34.1z"/>
		<path class="st0" d="M169.2,18.5c0.1,0.1,0.1,0.2,0.1,0.2c0,0,0,0.1,0,0.2c-0.1,0.3-0.4,0.8-0.7,1.1c-0.1,1.9-0.4,3.4-1.2,5.5
			c0.2,0.6,0.4,1.5,0.4,2.3c0,0.5-0.1,1.1-0.2,1.4c-0.1,0.3-2.1,0.7-3.4,0.7c-0.4,0-0.7,0-0.9-0.1c-0.1,0-0.1-0.2-0.1-0.5
			c0-0.5,0.1-1.2,0.2-1.4c0,0,0.1-0.1,0.1-0.1c0.1,0,0.1,0,0.2,0c1.1,0,2.2-1,2.9-2.3c-0.9-1.8-2.8-4.1-4.4-5.2
			c0,0.1-0.3,0.5-0.6,0.5c-0.3,0-1.7-1.4-1.8-1.7c0-0.2,0-0.3,0-0.5c0-0.4,0.1-0.9,0.2-1.1c0.1-0.2,0.2-0.3,0.3-0.3
			c0.2,0,0.4,0.1,0.6,0.3c1.2,0.9,2.5,1.9,3.6,3.2c0.8,1,1.8,2.4,2.6,4c0.5-1,0.6-1.7,0.7-3.1c0.1-0.8,0.1-1.3,0.1-1.7
			c0-0.9-0.1-1.2-0.1-1.5c0-0.2,0.1-0.3,0.2-0.6c0.3-0.5,0.5-0.9,0.7-0.9c0,0,0.1,0.1,0.1,0.2C168.7,17.5,168.9,18,169.2,18.5z
			 M166.7,26.3c-0.6,0.9-0.7,1.1-1.3,1.6c0.6,0,1.2-0.1,1.7-0.2C167.1,27.4,167.1,26.9,166.7,26.3z"/>
		<path class="st0" d="M172.3,29.8c-0.1,0-0.1-0.1-0.1-0.5c0-2.4-0.9-8.9-0.9-10c0-0.5,0.4-1.4,0.7-1.9c0.1-0.2,0.3-0.4,0.4-0.4
			c0.1,0,0.1,0.2,0.1,0.6c0.1,1.7,0.6,5.7,0.6,8.6c0,1.2-0.1,2.1-0.3,2.7C172.5,29.5,172.4,29.8,172.3,29.8z"/>
	</g>
	<rect class="st1" width="250.8" height="49.9"/>
</g>
</svg>
