<?xml version="1.0" encoding="utf-8"?>
<!-- Generator: Adobe Illustrator 19.2.0, SVG Export Plug-In . SVG Version: 6.00 Build 0)  -->
<svg version="1.1" id="Layer_1" xmlns="http://www.w3.org/2000/svg" xmlns:xlink="http://www.w3.org/1999/xlink" x="0px" y="0px"
	 viewBox="0 0 687.7 87.6" style="enable-background:new 0 0 687.7 87.6;" xml:space="preserve">
<style type="text/css">
	.st0{fill:#FFFFFF;}
	.st1{fill:#F7931E;}
	.st2{fill:#BF8138;}
	.st3{fill:url(#SVGID_1_);}
	.st4{fill:#F2C671;}
	.st5{opacity:0.5;fill:#FFFFFF;}
	.st6{fill:none;stroke:#002640;stroke-width:2.398;stroke-linecap:round;stroke-linejoin:round;stroke-miterlimit:10;}
	.st7{fill:url(#SVGID_2_);}
	.st8{fill:url(#SVGID_3_);}
	.st9{fill:url(#SVGID_4_);}
</style>
<g>
	<path class="st0" d="M10,29.2c0.1-0.1,0.1,0,0.1,0.1c0,0.6-0.2,1.1-0.5,1.3l-4.1,2.3c-0.1,0-0.1,0-0.1-0.1c0-0.3,0.1-0.8,0.2-1
		c0.1-0.2,0.3-0.3,0.7-0.5L10,29.2z"/>
	<path class="st0" d="M1.4,26.8C0.4,26,0,24.8,0,23.5c0-1.5,0.9-3.2,1.4-3.9c0.2-0.3,0.4-0.4,0.5-0.4C2,19.1,2,19.2,2,19.3
		c0,0.1-0.1,0.3-0.2,0.5C1.4,20.6,1,21.6,1,22.6c0,0.8,0.6,1.6,1.4,2.1C3.1,25.3,4,25.5,5,25.5c2.4,0,5.7-1,6.4-2.7
		c0-0.2,0-0.3,0-0.4c0-1.1-0.3-2.3-0.9-3.1c-0.2-0.4-0.4-0.7-0.5-0.8c0,0,0-0.1,0-0.2c0-0.2,0.1-0.5,0.2-0.8
		c0.2-0.4,0.3-0.8,0.4-1.1c0.1-0.1,0.1-0.2,0.2-0.2c0.1,0,0.1,0,0.2,0.3c0.7,1.5,1.3,2.9,1.3,4.7c0,1.4-0.2,2.3-0.3,2.7
		c-0.4,0.9-0.6,1.3-1.1,1.8c-0.5,0.5-1.4,1.2-2.5,1.6c-1.1,0.5-2.4,0.7-4.1,0.7C3.3,27.9,2.2,27.6,1.4,26.8z M7.9,13
		c0.1,0.1,0.1,0.1,0,0.2c-0.2,0.3-1.1,1.2-1.4,1.7c-0.1,0.1-0.1,0.1-0.2,0c-0.5-0.3-1.5-1-1.7-1.4c-0.1-0.1-0.1-0.1,0-0.2
		c0.3-0.5,0.9-1.2,1.3-1.6C6,11.4,6,11.4,6.1,11.5C6.5,11.9,7.2,12.6,7.9,13z"/>
	<path class="st0" d="M11.3,32.1c-0.3-0.2-0.4-0.3-0.4-0.4c0-0.1,0.2-0.2,0.4-0.2c0.3,0,1.1,0.2,1.8,0.2c0.6,0,1.2-0.2,2.1-0.6
		c2.4-1.2,3.9-3,3.9-4.2c0-0.2,0-0.3-0.1-0.7h-0.7c-0.5,0-1.5-0.1-2.2-0.5c-0.7-0.4-1-0.9-1-1.5c0-0.6,0.3-1.4,0.6-2.2
		c0.6-1.3,1.2-2.2,1.9-2.2c0.7,0,1.3,0.5,1.8,1.1c0.5,0.7,0.7,1.8,0.7,2.8h1c0.6,0,0.9,0.3,0.9,1c0,0.8-0.3,1.2-0.9,1.2l-1.1,0.1
		C19.9,29.7,18.8,32,16,33c-0.2,0.1-0.4,0.1-0.6,0.1C14.3,33.1,12.7,32.7,11.3,32.1z M17.6,22.4c-0.1-0.1-0.3-0.2-0.6-0.2
		c-0.5,0-0.8,0.5-0.8,0.8c0,0.2,0.2,0.5,0.8,0.7c0.4,0.2,0.9,0.2,1.1,0.2c0.2,0,0.2,0,0.2-0.1C18.4,23.5,18,22.8,17.6,22.4z"/>
	<path class="st0" d="M22.4,13.7c0,0-0.1,0-0.1,0c-0.3,0-0.6-0.2-0.8-0.4c-0.3-0.3-0.4-0.7-0.4-1.2c0-0.2,0-0.5,0.1-0.7
		c0.1-0.2,0.3-0.7,0.5-0.7c0.1,0,0.1,0.1,0.1,0.4c0,0.1,0,0.3,0,0.4c0,0.4,0.2,0.6,0.7,0.6h0c0.4,0,0.8-0.3,0.9-0.9
		c0.1-0.2,0.3-1,0.6-1c0.1,0,0.2,0.1,0.2,0.4v0.1c0,0.3,0.1,0.4,0.4,0.4c0,0,0.1,0,0.2,0c0.4-0.1,0.6-0.4,0.7-0.8
		c0.2-0.5,0.3-0.7,0.4-0.7c0.1,0,0.2,0.1,0.2,0.3c0,0.2,0,0.3,0,0.5c0,0.4-0.1,0.8-0.3,1.2c-0.3,0.6-0.7,1.1-1.4,1.1
		c-0.3,0-0.4-0.1-0.6-0.2c-0.1-0.1-0.1-0.1-0.2,0C23.3,13.3,22.8,13.7,22.4,13.7z M25.6,5.5c0,0.2,0,0.2,0,0.3
		c0,0.4-0.1,0.8-0.3,1.2c0.2,0.1,0.3,0.2,0.3,0.3c0,0.3-0.1,0.6-0.3,0.9L24.8,8c-0.5,0.8-1,1.3-1.3,1.6c-0.3,0.2-0.9,0.4-1.6,0.4
		c-0.4,0-0.5-0.1-0.3-0.2c1.3-0.8,2.2-1.5,2.7-2.2c-0.4-0.3-0.9-0.6-0.9-1.1c0-0.3,0.2-0.7,0.5-1.1c0.3-0.5,0.7-0.7,1-0.7
		C25.3,4.8,25.5,5.2,25.6,5.5z M24.1,6.3c0.1,0.2,0.3,0.3,0.7,0.5c0.1-0.1,0.1-0.4,0.1-0.5c0-0.2-0.1-0.4-0.3-0.4
		C24.4,5.9,24.2,6,24.1,6.3z"/>
	<path class="st0" d="M25.6,22.5c0,0.6,0.6,1.2,1.4,1.4c0.2,0,0.3,0,0.5,0h0.1c0.9,0,0.9,0.7,0.9,1c0,0.3,0,1.3-0.8,1.3h-0.2
		c-0.2,0-0.3,0-0.6,0c-1.5-0.2-2.1-1.5-2.2-1.7c-0.2,0.6-1.5,1.7-3.7,1.7h-0.1c-0.6,0-1-0.6-1-1.1s0.3-1.1,1-1.1h0.7
		c1,0,2.4-0.2,3.3-1.6c0.3-0.5,0.4-0.5,0.5-0.5C25.5,21.7,25.6,21.9,25.6,22.5z M26.4,16.6c0.1,0.1,0.1,0.1,0,0.2
		c-0.2,0.3-1.1,1.2-1.4,1.7c-0.1,0.1-0.1,0.1-0.2,0c-0.5-0.3-1.5-1-1.7-1.4c-0.1-0.1-0.1-0.1,0-0.2c0.3-0.5,0.9-1.2,1.3-1.6
		c0.2-0.2,0.2-0.2,0.3-0.1C25,15.5,25.7,16.2,26.4,16.6z"/>
	<path class="st0" d="M29.9,25.1c-0.5,0.7-1.2,1-2.3,1h-0.2c-0.7,0-1-0.4-1-1.2c0-0.7,0.3-1.1,1-1.1h0.2c0.5,0,1-0.1,1.5-0.2
		c0.4-0.1,0.6-0.3,0.7-0.4c0-1.7-0.6-5.4-0.9-8.9c0-0.4-0.3-1.6-0.4-2.1c0-0.1,0-0.2,0-0.2c0-0.3,0.3-0.9,0.5-1.3
		c0.3-0.5,0.5-0.9,0.7-0.9c0.1,0,0.1,0.1,0.2,0.2c0.3,1,0.6,1.5,0.8,1.8c0.1,0.1,0.1,0.2,0.1,0.3c0,0,0,0.1,0,0.1
		c-0.1,0.2-0.4,0.8-0.6,1.1c0.2,3.4,0.7,6.2,0.7,7.8C30.9,22.8,30.6,24.1,29.9,25.1z"/>
	<path class="st0" d="M43.1,32.7c0.1-0.1,0.1,0,0.1,0.1c0,0.6-0.2,1.1-0.5,1.3l-4.1,2.3c-0.1,0-0.1,0-0.1-0.1c0-0.3,0.1-0.8,0.2-1
		c0.1-0.2,0.3-0.3,0.7-0.5L43.1,32.7z"/>
	<path class="st0" d="M42.4,30.3c0.1,0.1,0.1,0.1,0,0.2c-0.2,0.3-1.1,1.2-1.4,1.7c-0.1,0.1-0.1,0.1-0.2,0c-0.5-0.3-1.5-1-1.7-1.4
		c-0.1-0.1-0.1-0.1,0-0.2c0.3-0.5,0.9-1.2,1.3-1.6c0.2-0.2,0.2-0.2,0.3-0.1C40.9,29.2,41.7,29.9,42.4,30.3z"/>
	<path class="st0" d="M34.4,18.8c-0.1-2-0.2-5.3-0.5-6.9c0,0,0-0.1,0-0.1c0-0.3,0.4-0.8,0.7-1.4c0.2-0.3,0.3-0.6,0.4-0.6
		c0.1,0,0.2,0.2,0.3,0.7c0.4,3.5,0.2,8.4,0.7,11.3c0.2,1,0.4,1.5,0.9,1.8c0.5,0.2,1.2,0.3,1.9,0.3c0.6,0,1.7,0,2.3-0.6
		c-0.1-0.9-0.7-2-1.1-2.4c0,0,0-0.1,0-0.1c0-0.2,0.5-1.4,0.7-1.8c0-0.1,0.1-0.1,0.1-0.1c0.1,0,0.3,0.2,0.4,0.5
		c0.5,0.8,0.7,1.9,0.7,3.1c0,0.9-0.1,2-0.8,2.7c-0.8,0.8-1.8,1.2-3.1,1.2c-0.8,0-1.7-0.2-2.2-0.8C34.8,24.4,34.5,23.3,34.4,18.8z"/>
	<path class="st0" d="M59.5,7.6c0,0.5-0.1,1-0.3,1.5c0.2,0.1,0.4,0.3,0.4,0.4c0,0.4-0.2,0.7-0.3,1c-0.1,0.1-0.1,0.1-0.1,0.1
		l-0.5-0.3c-0.5,0.8-1.3,1.8-2.5,2.3c-0.4,0.2-0.9,0.4-1.5,0.4c-0.3,0-0.4-0.1-0.4-0.1c0-0.1,0.2-0.2,0.6-0.4
		c0.9-0.5,2.5-1.8,3.1-2.5c-0.5-0.3-1.1-0.7-1.1-1.4c0-0.4,0.2-0.9,0.6-1.3c0.4-0.5,0.8-0.8,1.2-0.8C59.3,6.4,59.4,7.1,59.5,7.6z
		 M57.7,8.1C57.6,8.1,57.6,8.1,57.7,8.1c0,0.2,0.4,0.5,0.8,0.7c0.1-0.2,0.1-0.4,0.1-0.7c0-0.3-0.1-0.4-0.3-0.4
		C58,7.6,57.8,7.8,57.7,8.1z"/>
	<path class="st0" d="M48.9,25.1c0.2-0.4,0.5-0.7,0.7-0.7c0.1,0,0.1,0.1,0.1,0.2c0,0.2-0.1,0.4-0.2,0.6c-0.5,1.1-0.7,1.8-0.7,2.4
		c0,1.9,2.2,3.1,3.9,3.1c2.7,0,6.2-1.1,7-2.9c0.1-0.2,0.1-0.5,0.1-0.7c0-0.4-0.1-0.7-0.1-0.9c-0.2,0-0.3,0-0.6,0
		c-0.6,0-1.6-0.1-2.3-0.4c-0.7-0.4-1-0.9-1-1.5c0-0.6,0.3-1.5,0.6-2.2c0.5-1.1,1.2-2.2,1.8-2.2c1.5,0,2.4,1.9,2.5,4h0.9
		c0.6,0,0.9,0.3,0.9,1c0,0.8-0.3,1.2-0.9,1.2l-1,0c-0.2,1-0.3,1.7-0.5,2.4c-0.1,0.3-0.2,0.7-0.4,1c-0.9,1.8-3.9,3.5-7,3.5
		c-2.7,0-4.9-1.2-4.9-4.2C48,27.8,48.3,26.3,48.9,25.1z M59.2,14.3c0.2-0.2,0.2-0.2,0.3-0.1c0.5,0.5,1,1.1,1.5,1.4
		c0.2,0.1,0.2,0.2,0,0.3c-0.5,0.5-0.9,1-1.3,1.5c-0.1,0.1-0.2,0.1-0.3,0c-0.4-0.3-0.9-0.7-1.4-1.2c-0.3,0.3-0.9,1-1.1,1.2
		c-0.1,0.1-0.2,0.2-0.4,0c-0.5-0.3-1.1-0.9-1.5-1.4c-0.1-0.1-0.1-0.2,0-0.3c0.4-0.5,0.9-1,1.4-1.5c0.1-0.1,0.2-0.1,0.3,0.1
		c0.4,0.4,1,1,1.4,1.2C58.4,15.2,59,14.6,59.2,14.3z M58.2,22.4c-0.2-0.1-0.3-0.2-0.5-0.2c-0.4,0-0.7,0.5-0.7,0.8
		c0,0.2,0.3,0.5,0.8,0.7c0.4,0.2,0.9,0.2,1.2,0.2c0.2,0,0.2,0,0.2-0.1C59.2,23.5,58.7,22.7,58.2,22.4z"/>
	<path class="st0" d="M69.7,13c0.1-0.1,0.1,0,0.1,0.1c0,0.6-0.2,1.1-0.5,1.3l-4.1,2.3c-0.1,0-0.1,0-0.1-0.1c0-0.3,0.1-0.8,0.2-1
		c0.1-0.2,0.3-0.3,0.7-0.5L69.7,13z"/>
	<path class="st0" d="M74.7,22.7c0,0-0.1,0.1-0.1,0.1c-0.2,0-0.3,0-0.4,0c-0.5,0-0.8,0-1.5-0.1c0,0.4,0.3,0.6,0.9,0.8
		c0.6,0.2,1.2,0.3,1.9,0.3h1.1c0.8,0,1.1,0.4,1.1,1.1c0,0.8-0.4,1.2-1.1,1.2h-1c-1.3,0-2.3-0.3-2.7-0.8c-0.5-0.5-0.7-1.4-0.7-2.6
		c-1.3,0-1.8,0.1-2.4,0.4c-0.4,0.2-0.9,0.3-2,0.9c-1.6,0.8-2.8,1.4-3.5,1.6c-0.8,0.3-1.7,0.5-2.6,0.5h-0.3c-0.7,0-1.1-0.4-1.1-1.2
		c0-0.7,0.4-1.1,1.1-1.1h0.3c1.4,0,2.5-0.1,3.4-0.4c1-0.3,2.3-0.7,3.9-1.4c-1.9-0.5-3.5-1.2-4.5-1.2c-0.2,0-0.4,0-0.6,0.1
		c-0.2,0.1-0.6,0.3-0.8,0.3c-0.1,0-0.2-0.1-0.2-0.2c0-0.4,0.4-1.1,1.2-1.8c0.5-0.4,1-0.6,1.4-0.6c0.2,0,0.3,0,0.5,0.1
		c1.8,0.4,4.1,1.4,6,1.8c1.3,0.3,2.6,0.4,3.4,0.4c0.2,0,0.3,0,0.5,0c0.1,0,0.1,0.1,0.1,0.1C75.8,21.2,75.1,22.4,74.7,22.7z"/>
	<path class="st0" d="M76.2,23.8h0.2c0.6,0,1-0.2,1.3-0.5c0.5-0.5,0.5-1.1,0.5-1.8c0-1.5-0.1-4.6-0.3-9.2c0-0.5,0.2-1,0.5-1.7
		c0.2-0.3,0.3-0.6,0.5-0.6c0.1,0,0.2,0.2,0.3,0.7c0.2,3.4,0.4,8,0.7,11.3c0.1,0.6,0.4,1.1,0.8,1.4c0.3,0.2,0.6,0.3,0.9,0.3h0.3
		c0.6,0,1,0.4,1,1.1c0,0.8-0.3,1.2-1,1.2h-0.3c-1.4,0-2.4-1-2.8-2.4c-0.3,1.6-1.1,2.4-2.4,2.4h-0.2c-0.7,0-1-0.4-1-1.2
		C75.2,24.2,75.5,23.8,76.2,23.8z"/>
	<path class="st0" d="M86.2,11.7c0,0.5-0.1,1-0.3,1.5c0.2,0.1,0.4,0.3,0.4,0.4c0,0.4-0.2,0.7-0.3,1c-0.1,0.1-0.1,0.1-0.1,0.1
		l-0.5-0.3c-0.5,0.8-1.3,1.8-2.5,2.3c-0.4,0.2-0.9,0.4-1.5,0.4c-0.3,0-0.4-0.1-0.4-0.1c0-0.1,0.2-0.2,0.6-0.4
		c0.9-0.5,2.5-1.8,3.1-2.5c-0.5-0.3-1.1-0.7-1.1-1.4c0-0.4,0.2-0.9,0.6-1.3c0.4-0.5,0.8-0.8,1.2-0.8C86,10.5,86.2,11.2,86.2,11.7z
		 M84.4,12.2C84.4,12.2,84.4,12.2,84.4,12.2c0,0.2,0.4,0.5,0.8,0.7c0.1-0.2,0.1-0.4,0.1-0.7c0-0.3-0.1-0.4-0.3-0.4
		C84.8,11.7,84.6,11.9,84.4,12.2z"/>
	<path class="st0" d="M85.6,24.7c-0.4,0.6-1.2,1.1-2.6,1.3c-0.4,0.1-0.9,0.1-1.4,0.1c-0.6,0-1-0.6-1-1.1s0.3-1.1,1-1.1h0.5
		c1,0,2.6,0,3.2-0.6c-0.1-0.9-0.8-2-1.1-2.4c0,0,0,0,0-0.1c0-0.4,0.7-1.8,0.7-1.9c0-0.1,0.1-0.1,0.1-0.1c0.3,0,1.1,1.6,1.1,3.5
		C86.2,23.1,86.1,24,85.6,24.7z M86.1,27.3c0.2-0.2,0.2-0.2,0.3-0.1c0.5,0.5,1,1.1,1.5,1.4c0.2,0.1,0.2,0.2,0,0.3
		c-0.5,0.5-0.9,1-1.3,1.5c-0.1,0.1-0.2,0.1-0.3,0c-0.4-0.3-0.9-0.7-1.4-1.2c-0.3,0.3-0.9,1-1.1,1.2c-0.1,0.1-0.2,0.2-0.4,0
		c-0.5-0.3-1.1-0.9-1.5-1.4c-0.1-0.1-0.1-0.2,0-0.3c0.4-0.5,0.9-1,1.4-1.5c0.1-0.1,0.2-0.1,0.3,0.1c0.4,0.4,1,1,1.4,1.2
		C85.3,28.2,85.9,27.5,86.1,27.3z"/>
	<path class="st0" d="M95.7,13.7c0.1-0.1,0.1,0,0.1,0.1c0,0.6-0.2,1.1-0.5,1.3l-4.1,2.3c-0.1,0-0.1,0-0.1-0.1c0-0.3,0.1-0.8,0.2-1
		c0.1-0.2,0.3-0.3,0.7-0.5L95.7,13.7z"/>
	<path class="st0" d="M96.4,22c0.3,0.9,0.5,1.8,0.5,3.1c0,4-1.1,6.5-4.2,7.7c-0.2,0.1-0.4,0.1-0.6,0.1c-1,0-2.6-0.5-4-1.1
		c-0.3-0.2-0.4-0.3-0.4-0.4c0-0.1,0.1-0.2,0.4-0.2c0.2,0,1.1,0.2,1.8,0.2c0.9,0,1.9-0.4,3.3-1.3c1.5-1,2.8-2.3,2.8-3.8
		c0-0.5-0.1-1-0.4-1.5c-0.3,0.7-0.8,1.1-1.5,1.1c-1.3,0-2.1-0.7-2.1-2.1c0-0.5,0.3-1.3,0.6-2.1c0.5-1,1.2-1.9,1.8-1.9
		C95.1,19.8,96,20.7,96.4,22z M93.9,22c-0.3,0-0.5,0.2-0.7,0.5c-0.1,0.1-0.2,0.4-0.2,0.5c0,0.4,0.6,0.6,1.1,0.6
		c0.4,0,0.7-0.2,0.8-0.4C94.9,22.5,94.2,22,93.9,22z"/>
	<path class="st0" d="M110.1,37.1c0.1-0.1,0.1,0,0.1,0.1c0,0.6-0.2,1.1-0.5,1.3l-4.1,2.3c-0.1,0-0.1,0-0.1-0.1c0-0.3,0.1-0.8,0.2-1
		c0.1-0.2,0.3-0.3,0.7-0.5L110.1,37.1z"/>
	<path class="st0" d="M113.2,30.6c0.2-0.2,0.2-0.2,0.3-0.1c0.5,0.5,1,1.1,1.5,1.4c0.2,0.1,0.2,0.2,0,0.3c-0.5,0.5-0.9,1-1.3,1.5
		c-0.1,0.1-0.2,0.1-0.3,0c-0.4-0.3-0.9-0.7-1.4-1.2c-0.3,0.3-0.9,1-1.1,1.2c-0.1,0.1-0.2,0.2-0.4,0c-0.5-0.3-1.1-0.9-1.5-1.4
		c-0.1-0.1-0.1-0.2,0-0.3c0.4-0.5,0.9-1,1.4-1.5c0.1-0.1,0.2-0.1,0.3,0.1c0.4,0.4,1,1,1.4,1.2C112.4,31.4,113,30.8,113.2,30.6z"/>
	<path class="st0" d="M110.3,27.4c0,0.1,0,0.2-0.1,0.5c-0.3,0.8-0.6,1.3-0.8,1.6c-0.1,0.1-0.1,0.1-0.2,0.1c-0.5-0.2-1.1-0.3-2.2-0.4
		c-1.7,0-2.8,0.3-3.1,0.9c0.2,1.2,0.4,2.1,0.5,2.6l0.4,2.1c0.2,1.1,0.3,2.2,0.3,3.1c0,0.9-0.1,1.9-0.4,2.8c-0.1,0.4-0.3,0.6-0.4,0.6
		c-0.1,0-0.1-0.2-0.1-0.5c0-0.3,0.1-0.7,0-1.2c0-0.9-0.2-2.1-0.6-4.6c-0.3-1.9-0.6-3-0.6-3.5c0-1,0.2-1.9,0.7-2.8
		c0.5-0.9,1.1-1.5,1.8-1.8l0.7-1.6c0.5-1.2,1.3-2,2.1-2.5c0.8-0.5,2.1-1.1,3.1-1.1c0.3,0,0.6,0.1,0.8,0.2c0.3,0.2,0.6,0.5,1,1.1
		c0.4,0.6,0.8,0.8,1.3,0.8h0.3c0.6,0,0.9,0.3,0.9,1c0,0.8-0.3,1.2-0.9,1.2h-0.3c-0.7,0-1.4-0.3-2-1c-0.5-0.5-0.8-0.9-1.2-1
		c-0.2-0.1-0.4-0.1-0.9-0.1c-1.1,0-2.1,0.4-2.9,1.1c0.9,0.4,1.6,0.8,2.1,1.3C109.9,26.8,110.2,27.1,110.3,27.4z"/>
	<path class="st0" d="M117.2,4.2c0.7,0,1.7,1,1.7,2.1c0,0.4-0.1,0.8-0.2,1.2c-0.3,0.8-0.9,1.3-1.8,1.3c-0.8,0-1.3-0.6-1.3-1.3
		C115.6,6.4,116.7,4.2,117.2,4.2z M117,5.8c-0.3,0-0.7,0.6-0.7,1c0,0.3,0.4,0.6,0.8,0.6c0.5,0,1.1-0.3,1.1-0.5
		C118.2,6.6,117.6,5.8,117,5.8z"/>
	<path class="st0" d="M118.7,21.4c0.1,0.5,0.4,0.9,0.7,1.1c0.3,0.2,0.7,0.4,1.1,0.6c0.4,0.2,0.7,0.3,0.8,0.4
		c0.2,0.1,0.3,0.8,0.3,1.2c0,0.4-0.1,1-0.4,1.4c-0.1,0.1-0.2,0.1-0.2,0.1c-1.3-0.7-2.3-1.1-3-1.1c-0.5,0-0.9,0.2-1.5,0.5
		c-0.6,0.3-1.3,0.6-2,0.6h-0.2c-0.6,0-0.9-0.4-0.9-1.1c0-0.8,0.3-1.2,0.9-1.2h0.2c0.9,0,1.9-0.3,3.1-0.8c0-0.2-0.1-0.7-0.2-1.6
		c-0.1-0.9-0.4-4.1-0.8-8c-0.1-0.4-0.2-1-0.3-1.4c0-0.1,0-0.2,0-0.3c0,0,0-0.1,0-0.2c0-0.1,0.1-0.4,0.4-0.8c0.3-0.5,0.6-1.1,0.8-1.1
		c0.1,0,0.1,0.1,0.2,0.2c0.3,0.9,0.5,1.4,0.7,1.8c0,0.1,0.1,0.2,0.1,0.2s0,0.1,0,0.2c-0.1,0.2-0.4,0.9-0.6,1.2
		C118.3,18.1,118.6,20.9,118.7,21.4z"/>
	<path class="st0" d="M125.6,26.1c-0.1,0-0.2-0.2-0.2-0.7c0-3-1.1-11.3-1.1-12.7c0-0.7,0.5-1.7,0.9-2.5c0.1-0.2,0.3-0.5,0.5-0.5
		c0.1,0,0.2,0.2,0.2,0.8c0.1,2.2,0.7,7.3,0.7,11c0,1.5-0.1,2.7-0.4,3.5C125.9,25.8,125.8,26.1,125.6,26.1z"/>
	<path class="st0" d="M140.9,12.2c0.1-0.1,0.1,0,0.1,0.1c0,0.6-0.2,1.1-0.5,1.3l-4.1,2.3c-0.1,0-0.1,0-0.1-0.1c0-0.3,0.1-0.8,0.2-1
		c0.1-0.2,0.3-0.3,0.7-0.5L140.9,12.2z"/>
	<path class="st0" d="M143.4,24c0-0.3,0.3-1.4,0.6-2c0.1-0.1,0.1-0.2,0.2-0.2c0.1,0,0.2,0.1,0.2,0.2c0.6,1.2,1.1,1.8,1.9,1.8h0.3
		c0.7,0,1,0.4,1,1.1c0,0.8-0.3,1.2-1,1.2h-0.3c-0.4,0-0.7,0-0.9-0.1c-0.1,1.8-0.2,2.6-0.4,3c-0.3,0.9-0.8,1.7-2.1,2.6
		c-1.2,0.9-3,1.5-5.5,1.5c-2.5,0-4.4-1.7-4.4-4.5c0-1.4,0.7-3.1,1.3-3.8c0.2-0.3,0.5-0.6,0.6-0.6c0.1,0,0.1,0.1,0.1,0.2
		c0,0.2-0.1,0.4-0.2,0.7c-0.5,0.9-0.8,1.7-0.8,2.7c0,1.9,2.3,3,3.9,3c2.7,0,5.6-1,6.4-2.5c0-0.1,0.1-0.2,0.1-0.4
		c-0.1-1.9-0.3-2.6-0.9-3.7C143.4,24.1,143.4,24.1,143.4,24z M141,18.9c0.1,0.1,0.1,0.1,0,0.2c-0.2,0.3-1.1,1.2-1.4,1.7
		c-0.1,0.1-0.1,0.1-0.2,0c-0.5-0.3-1.5-1-1.7-1.4c-0.1-0.1-0.1-0.1,0-0.2c0.3-0.5,0.9-1.2,1.3-1.6c0.2-0.2,0.2-0.2,0.3-0.1
		C139.6,17.8,140.3,18.4,141,18.9z"/>
	<path class="st0" d="M154.4,28.1c0.1-0.1,0.1,0,0.1,0.1c0,0.6-0.2,1.1-0.5,1.3l-4.1,2.3c-0.1,0-0.1,0-0.1-0.1c0-0.3,0.1-0.8,0.2-1
		c0.1-0.2,0.3-0.3,0.7-0.5L154.4,28.1z"/>
	<path class="st0" d="M146.4,26.1h-0.1c-0.7,0-1-0.4-1-1.2c0-0.7,0.4-1.1,1-1.1h0.1c1.2,0,2.2-0.5,2.9-1.4l1.3-2
		c0.7-1.1,1.7-1.5,2.2-1.5c1.7,0,2.4,2.9,2.4,4.1c0,1-1.1,2.4-1.6,2.4c-0.8,0-2.8-1-3.8-1.9C148.8,25.3,147.7,26.1,146.4,26.1z
		 M151.8,20.9c-0.2,0-0.3,0.1-0.5,0.3c-0.1,0.1-0.2,0.3-0.3,0.5c0.5,0.3,1.9,1,2.5,1.4C153.4,22.3,152.4,20.9,151.8,20.9z"/>
	<path class="st0" d="M164.8,15.9c0,0-0.1,0-0.1,0c-0.3,0-0.6-0.2-0.8-0.4c-0.3-0.3-0.4-0.7-0.4-1.2c0-0.2,0-0.5,0.1-0.7
		c0.1-0.2,0.3-0.7,0.5-0.7c0.1,0,0.1,0.1,0.1,0.4c0,0.1,0,0.3,0,0.4c0,0.4,0.2,0.6,0.7,0.6h0c0.4,0,0.8-0.3,0.9-0.9
		c0.1-0.2,0.3-1,0.6-1c0.1,0,0.2,0.1,0.2,0.4V13c0,0.3,0.1,0.4,0.4,0.4c0,0,0.1,0,0.2,0c0.4-0.1,0.6-0.4,0.7-0.8
		c0.2-0.5,0.3-0.7,0.4-0.7c0.1,0,0.2,0.1,0.2,0.3c0,0.2,0,0.3,0,0.5c0,0.4-0.1,0.8-0.3,1.2c-0.3,0.6-0.7,1.1-1.4,1.1
		c-0.3,0-0.4-0.1-0.6-0.2c-0.1-0.1-0.1-0.1-0.2,0C165.7,15.5,165.3,15.9,164.8,15.9z M168,7.7c0,0.2,0,0.2,0,0.3
		c0,0.4-0.1,0.8-0.3,1.2c0.2,0.1,0.3,0.2,0.3,0.3c0,0.3-0.1,0.6-0.3,0.9l-0.5-0.3c-0.5,0.8-1,1.3-1.3,1.6c-0.3,0.2-0.9,0.4-1.6,0.4
		c-0.4,0-0.5-0.1-0.3-0.2c1.3-0.8,2.2-1.5,2.7-2.2c-0.4-0.3-0.9-0.6-0.9-1.1c0-0.3,0.2-0.7,0.5-1.1c0.3-0.5,0.7-0.7,1-0.7
		C167.7,7,167.9,7.4,168,7.7z M166.5,8.5c0.1,0.2,0.3,0.3,0.7,0.5c0.1-0.1,0.1-0.4,0.1-0.5c0-0.2-0.1-0.4-0.3-0.4
		C166.8,8.1,166.6,8.2,166.5,8.5z"/>
	<path class="st0" d="M171,24c0-0.3,0.3-1.4,0.6-2c0.1-0.1,0.1-0.2,0.2-0.2c0.1,0,0.2,0.1,0.2,0.2c0.6,1.2,1.1,1.8,1.9,1.8h0.3
		c0.7,0,1,0.4,1,1.1c0,0.8-0.3,1.2-1,1.2h-0.3c-0.4,0-0.7,0-0.9-0.1c-0.1,1.8-0.2,2.6-0.4,3c-0.3,0.9-0.8,1.7-2.1,2.6
		c-1.2,0.9-3,1.5-5.5,1.5c-2.5,0-4.4-1.7-4.4-4.5c0-1.4,0.7-3.1,1.3-3.8c0.2-0.3,0.5-0.6,0.6-0.6c0.1,0,0.1,0.1,0.1,0.2
		c0,0.2-0.1,0.4-0.2,0.7c-0.5,0.9-0.8,1.7-0.8,2.7c0,1.9,2.3,3,3.9,3c2.7,0,5.6-1,6.4-2.5c0-0.1,0.1-0.2,0.1-0.4
		c-0.1-1.9-0.3-2.6-0.9-3.7C171,24.1,171,24.1,171,24z M168.6,18.9c0.1,0.1,0.1,0.1,0,0.2c-0.2,0.3-1.1,1.2-1.4,1.7
		c-0.1,0.1-0.1,0.1-0.2,0c-0.5-0.3-1.5-1-1.7-1.4c-0.1-0.1-0.1-0.1,0-0.2c0.3-0.5,0.9-1.2,1.3-1.6c0.2-0.2,0.2-0.2,0.3-0.1
		C167.2,17.8,167.9,18.4,168.6,18.9z"/>
	<path class="st0" d="M175.3,21.7c0-0.5,0.2-1.7,0.6-2.5c0.7-1.5,1.9-2.2,2.9-2.2c0.7,0,2.1,0.4,2.8,1c0.3,0.2,0.3,0.4,0.3,0.5
		c0,0.1-0.1,0.1-0.2,0.1c-0.4,0-1-0.1-1.6-0.1c-1.1,0-3.6,1-3.7,1.7c0.1,0.4,1.3,2.3,3.3,2.3h0.1c1.2-0.5,2.7-1.1,3.7-1.6
		c0.4-0.2,0.7-0.3,0.8-0.3c0.1,0,0.1,0,0.1,0.1c0,0.2-0.5,1.2-0.8,1.7c-0.1,0.1-0.2,0.3-0.4,0.4c-0.7,0.4-1.8,0.9-3.2,1.6
		c-1.5,0.7-4.6,1.8-5.9,1.8h-0.2c-0.7,0-1-0.4-1-1.1c0-0.8,0.4-1.1,1.1-1.1h0.2c0.2,0,1.2-0.1,2.1-0.3
		C175.6,23.1,175.3,22.5,175.3,21.7z M180.1,12c0.1,0.1,0.1,0.1,0,0.2c-0.2,0.3-1.1,1.2-1.4,1.7c-0.1,0.1-0.1,0.1-0.2,0
		c-0.5-0.3-1.5-1-1.7-1.4c-0.1-0.1-0.1-0.1,0-0.2c0.3-0.5,0.9-1.2,1.3-1.6c0.2-0.2,0.2-0.2,0.3-0.1C178.7,10.9,179.4,11.5,180.1,12z
		"/>
	<path class="st0" d="M189.9,0C190,0,190,0,190,0.1c0,0.6-0.2,1.1-0.5,1.3l-4.1,2.3c-0.1,0-0.1,0-0.1-0.1c0-0.3,0.1-0.8,0.2-1
		c0.1-0.2,0.3-0.3,0.7-0.5L189.9,0z"/>
	<path class="st0" d="M189.6,7.7c-0.8,0.4-2.6,1.5-4,2.5c-0.1,0-0.1,0-0.1,0c0,0-0.1,0-0.1-0.1c0-0.1,0.1-0.3,0.2-0.7
		c0.1-0.2,0.5-0.6,0.8-0.9c0,0,0.1-0.1,0.1-0.1c0,0,0-0.1-0.1-0.1c-0.6-0.2-0.9-0.4-0.9-0.9c0-0.1,0-0.1,0-0.2c0-0.9,1-2.2,1.8-2.9
		c0.3-0.3,0.7-0.4,1-0.4c0.5,0,0.8,0.3,0.8,0.7c0,0.3-0.1,0.6-0.2,1c-0.1,0.2-0.2,0.4-0.3,0.4s-0.2-0.1-0.3-0.2
		c-0.1-0.1-0.3-0.3-0.6-0.3c-0.8,0-1.3,0.5-1.3,0.7c0,0.3,1.3,0.8,1.8,0.8c0.1,0,0.1,0,0.1,0c0.2-0.1,1.1-0.4,1.5-0.6
		c0.2-0.1,0.3-0.2,0.3-0.2c0,0,0.1,0,0.1,0.1c0,0.1-0.1,0.2-0.1,0.4C190,7.5,189.8,7.6,189.6,7.7z M188.2,26.1
		c-0.1,0-0.2-0.2-0.2-0.7c0-3-1.1-11.3-1.1-12.7c0-0.7,0.5-1.7,0.9-2.5c0.1-0.2,0.3-0.5,0.5-0.5c0.1,0,0.2,0.2,0.2,0.8
		c0.1,2.2,0.7,7.3,0.7,11c0,1.5-0.1,2.7-0.4,3.5C188.5,25.8,188.3,26.1,188.2,26.1z"/>
	<path class="st0" d="M204,4.9c0,0.5-0.1,1-0.3,1.5c0.2,0.1,0.4,0.3,0.4,0.4c0,0.4-0.2,0.7-0.3,1c-0.1,0.1-0.1,0.1-0.1,0.1l-0.5-0.3
		c-0.5,0.8-1.3,1.7-2.5,2.3c-0.4,0.2-0.9,0.4-1.5,0.4c-0.3,0-0.4-0.1-0.4-0.1c0-0.1,0.2-0.2,0.6-0.4c0.9-0.5,2.5-1.8,3.1-2.5
		c-0.5-0.3-1.1-0.7-1.1-1.4c0-0.4,0.2-0.9,0.6-1.3c0.4-0.5,0.8-0.8,1.2-0.8C203.8,3.6,204,4.3,204,4.9z M202.2,5.3
		C202.2,5.4,202.2,5.4,202.2,5.3c0,0.2,0.4,0.5,0.8,0.7c0.1-0.2,0.1-0.4,0.1-0.7c0-0.3-0.1-0.4-0.3-0.4
		C202.6,4.9,202.3,5.1,202.2,5.3z"/>
	<path class="st0" d="M197.7,26.8c-0.9-0.8-1.4-2.1-1.4-3.4c0-1.5,0.9-3.2,1.4-3.9c0.2-0.3,0.4-0.4,0.5-0.4c0.1,0,0.1,0.1,0.1,0.2
		c0,0.1-0.1,0.3-0.2,0.5c-0.4,0.9-0.9,1.8-0.9,2.9c0,0.8,0.6,1.6,1.4,2.1c0.8,0.5,1.7,0.8,2.7,0.8c2.4,0,5.7-1,6.4-2.7
		c0-0.2,0-0.3,0-0.4c0-1.1-0.3-2.3-0.9-3.1c-0.2-0.4-0.4-0.7-0.5-0.8c0,0,0-0.1,0-0.2c0-0.2,0.1-0.5,0.2-0.8
		c0.2-0.4,0.3-0.8,0.4-1.1c0.1-0.1,0.1-0.2,0.2-0.2c0.1,0,0.1,0,0.2,0.3c0.7,1.5,1.3,2.9,1.3,4.7c0,1.4-0.2,2.3-0.3,2.7
		c-0.4,0.9-0.6,1.3-1.1,1.8c-0.5,0.5-1.4,1.2-2.5,1.6c-1.1,0.5-2.4,0.7-4.1,0.7C199.5,27.9,198.5,27.6,197.7,26.8z M204.2,13
		c0.1,0.1,0.1,0.1,0,0.2c-0.2,0.3-1.1,1.2-1.4,1.7c-0.1,0.1-0.1,0.1-0.2,0c-0.5-0.3-1.5-1-1.7-1.4c-0.1-0.1-0.1-0.1,0-0.2
		c0.3-0.5,0.9-1.2,1.3-1.6c0.2-0.2,0.2-0.2,0.3-0.1C202.8,11.9,203.5,12.6,204.2,13z"/>
	<path class="st0" d="M207.6,32.1c-0.3-0.2-0.4-0.3-0.4-0.4c0-0.1,0.2-0.2,0.4-0.2c0.3,0,1.1,0.2,1.8,0.2c0.6,0,1.2-0.2,2.1-0.6
		c2.4-1.2,3.9-3,3.9-4.2c0-0.2,0-0.3-0.1-0.7h-0.7c-0.5,0-1.5-0.1-2.2-0.5c-0.7-0.4-1-0.9-1-1.5c0-0.6,0.3-1.4,0.6-2.2
		c0.6-1.3,1.2-2.2,1.9-2.2c0.7,0,1.3,0.5,1.8,1.1c0.5,0.7,0.7,1.8,0.7,2.8h1c0.6,0,0.9,0.3,0.9,1c0,0.8-0.3,1.2-0.9,1.2l-1.1,0.1
		c-0.2,3.5-1.3,5.8-4.1,6.9c-0.2,0.1-0.4,0.1-0.6,0.1C210.6,33.1,209,32.7,207.6,32.1z M213.9,22.4c-0.1-0.1-0.3-0.2-0.6-0.2
		c-0.5,0-0.8,0.5-0.8,0.8c0,0.2,0.2,0.5,0.8,0.7c0.4,0.2,0.9,0.2,1.1,0.2c0.2,0,0.2,0,0.2-0.1C214.7,23.5,214.3,22.8,213.9,22.4z"/>
	<path class="st0" d="M218.7,13.7c0,0-0.1,0-0.1,0c-0.3,0-0.6-0.2-0.8-0.4c-0.3-0.3-0.4-0.7-0.4-1.2c0-0.2,0-0.5,0.1-0.7
		c0.1-0.2,0.3-0.7,0.5-0.7c0.1,0,0.1,0.1,0.1,0.4c0,0.1,0,0.3,0,0.4c0,0.4,0.2,0.6,0.7,0.6h0c0.4,0,0.8-0.3,0.9-0.9
		c0.1-0.2,0.3-1,0.6-1c0.1,0,0.2,0.1,0.2,0.4v0.1c0,0.3,0.1,0.4,0.4,0.4c0,0,0.1,0,0.2,0c0.4-0.1,0.6-0.4,0.7-0.8
		c0.2-0.5,0.3-0.7,0.4-0.7c0.1,0,0.2,0.1,0.2,0.3c0,0.2,0,0.3,0,0.5c0,0.4-0.1,0.8-0.3,1.2c-0.3,0.6-0.7,1.1-1.4,1.1
		c-0.3,0-0.4-0.1-0.6-0.2c-0.1-0.1-0.1-0.1-0.2,0C219.6,13.3,219.1,13.7,218.7,13.7z M221.9,5.5c0,0.2,0,0.2,0,0.3
		c0,0.4-0.1,0.8-0.3,1.2c0.2,0.1,0.3,0.2,0.3,0.3c0,0.3-0.1,0.6-0.3,0.9L221.1,8c-0.5,0.8-1,1.3-1.3,1.6c-0.3,0.2-0.9,0.4-1.6,0.4
		c-0.4,0-0.5-0.1-0.3-0.2c1.3-0.8,2.2-1.5,2.7-2.2c-0.4-0.3-0.9-0.6-0.9-1.1c0-0.3,0.2-0.7,0.5-1.1c0.3-0.5,0.7-0.7,1-0.7
		C221.6,4.8,221.8,5.2,221.9,5.5z M220.4,6.3c0.1,0.2,0.3,0.3,0.7,0.5c0.1-0.1,0.1-0.4,0.1-0.5c0-0.2-0.1-0.4-0.3-0.4
		C220.7,5.9,220.5,6,220.4,6.3z"/>
	<path class="st0" d="M221.9,22.5c0,0.6,0.6,1.2,1.4,1.4c0.2,0,0.3,0,0.5,0h0.1c0.9,0,0.9,0.7,0.9,1c0,0.3,0,1.3-0.8,1.3h-0.2
		c-0.2,0-0.3,0-0.6,0c-1.5-0.2-2.1-1.5-2.2-1.7c-0.2,0.6-1.5,1.7-3.7,1.7h-0.1c-0.6,0-1-0.6-1-1.1s0.3-1.1,1-1.1h0.7
		c1,0,2.4-0.2,3.3-1.6c0.3-0.5,0.4-0.5,0.5-0.5C221.8,21.7,221.9,21.9,221.9,22.5z M222.7,16.6c0.1,0.1,0.1,0.1,0,0.2
		c-0.2,0.3-1.1,1.2-1.4,1.7c-0.1,0.1-0.1,0.1-0.2,0c-0.5-0.3-1.5-1-1.7-1.4c-0.1-0.1-0.1-0.1,0-0.2c0.3-0.5,0.9-1.2,1.3-1.6
		c0.2-0.2,0.2-0.2,0.3-0.1C221.3,15.5,222,16.2,222.7,16.6z"/>
	<path class="st0" d="M226.2,25.1c-0.5,0.7-1.2,1-2.3,1h-0.2c-0.7,0-1-0.4-1-1.2c0-0.7,0.3-1.1,1-1.1h0.2c0.5,0,1-0.1,1.5-0.2
		c0.4-0.1,0.6-0.3,0.7-0.4c0-1.7-0.6-5.4-0.9-8.9c0-0.4-0.3-1.6-0.4-2.1c0-0.1,0-0.2,0-0.2c0-0.3,0.3-0.9,0.5-1.3
		c0.3-0.5,0.5-0.9,0.7-0.9c0.1,0,0.1,0.1,0.2,0.2c0.3,1,0.6,1.5,0.8,1.8c0.1,0.1,0.1,0.2,0.1,0.3c0,0,0,0.1,0,0.1
		c-0.1,0.2-0.4,0.8-0.6,1.1c0.2,3.4,0.7,6.2,0.7,7.8C227.2,22.8,226.9,24.1,226.2,25.1z"/>
	<path class="st0" d="M231.8,26.1c-0.1,0-0.2-0.2-0.2-0.7c0-3-1.1-11.3-1.1-12.7c0-0.7,0.5-1.7,0.9-2.5c0.1-0.2,0.3-0.5,0.5-0.5
		c0.1,0,0.2,0.2,0.2,0.8c0.1,2.2,0.7,7.3,0.7,11c0,1.5-0.1,2.7-0.4,3.5C232.2,25.8,232,26.1,231.8,26.1z"/>
	<path class="st0" d="M240.2,13.7c0.1-0.1,0.1,0,0.1,0.1c0,0.6-0.2,1.1-0.5,1.3l-4.1,2.3c-0.1,0-0.1,0-0.1-0.1c0-0.3,0.1-0.8,0.2-1
		c0.1-0.2,0.3-0.3,0.7-0.5L240.2,13.7z"/>
	<path class="st0" d="M240.9,22c0.3,0.9,0.5,1.8,0.5,3.1c0,4-1.1,6.5-4.2,7.7c-0.2,0.1-0.4,0.1-0.6,0.1c-1,0-2.6-0.5-4-1.1
		c-0.3-0.2-0.4-0.3-0.4-0.4c0-0.1,0.1-0.2,0.4-0.2c0.2,0,1.1,0.2,1.8,0.2c0.9,0,1.9-0.4,3.3-1.3c1.5-1,2.8-2.3,2.8-3.8
		c0-0.5-0.1-1-0.4-1.5c-0.3,0.7-0.8,1.1-1.5,1.1c-1.3,0-2.1-0.7-2.1-2.1c0-0.5,0.3-1.3,0.6-2.1c0.5-1,1.2-1.9,1.8-1.9
		C239.6,19.8,240.4,20.7,240.9,22z M238.4,22c-0.3,0-0.5,0.2-0.7,0.5c-0.1,0.1-0.2,0.4-0.2,0.5c0,0.4,0.6,0.6,1.1,0.6
		c0.4,0,0.7-0.2,0.8-0.4C239.4,22.5,238.7,22,238.4,22z"/>
	<path class="st0" d="M250,23.9c0.4,0.3,0.4,0.8,0.4,1.1c0,0.3-0.1,0.7-0.4,1c-0.3,0.3-0.7,0.4-1.1,0.4c-0.3,0-0.7-0.1-0.9-0.4
		c-0.3-0.3-0.4-0.7-0.4-1.1c0-0.4,0.2-0.7,0.4-1c0.3-0.2,0.6-0.4,1-0.4C249.4,23.5,249.8,23.7,250,23.9z"/>
	<path class="st0" d="M266.2,27.9c0.1-0.1,0.1,0,0.1,0.1c0,0.6-0.2,1.1-0.5,1.3l-4.1,2.3c-0.1,0-0.1,0-0.1-0.1c0-0.3,0.1-0.8,0.2-1
		c0.1-0.2,0.3-0.3,0.7-0.5L266.2,27.9z"/>
	<path class="st0" d="M271.2,20.5c0,0.5-0.3,1.8-0.6,2.8c-0.3,0.7-0.4,0.8-1.2,1.2c-1.7,0.8-5.7,2-9.8,2c-5.3,0-7.4-1.8-7.4-4.3
		c0-0.9,0.4-2.4,1-3.3c0.2-0.3,0.4-0.6,0.6-0.6c0.1,0,0.1,0,0.1,0.1c0,0.1-0.1,0.3-0.1,0.5c-0.2,0.7-0.5,1.4-0.5,2
		c0,1.1,1.4,3.1,6.5,3.2c3.7,0,7.7-0.8,9.4-1.4c0.9-0.3,0.9-0.5,0.9-1.1c0-0.5-0.1-0.8-0.3-1.3c-0.2,0.5-0.9,1-1.8,1
		c-1.1,0-1.8-0.7-1.8-2c0-1.8,1.4-4.1,2-4.1C269.8,15.1,271.2,17.7,271.2,20.5z M266.1,12.3c0.1,0.1,0.1,0.1,0,0.2
		c-0.2,0.3-1.1,1.2-1.4,1.7c-0.1,0.1-0.1,0.1-0.2,0c-0.5-0.3-1.5-1-1.7-1.4c-0.1-0.1-0.1-0.1,0-0.2c0.3-0.5,0.9-1.2,1.3-1.6
		c0.2-0.2,0.2-0.2,0.3-0.1C264.7,11.2,265.5,11.9,266.1,12.3z M267.9,17.3c-0.3,0-0.6,0.4-0.7,0.8c0,0,0,0.1,0,0.1s0,0.1,0,0.1
		c0.1,0.3,0.5,0.5,1,0.5c0.4,0,0.8-0.2,0.9-0.3c0,0,0.1-0.1,0.1-0.1C269.2,18.2,268.7,17.3,267.9,17.3z"/>
	<path class="st0" d="M279.2,22c0.3,0.9,0.5,1.8,0.5,3.1c0,4-1.1,6.5-4.2,7.7c-0.2,0.1-0.4,0.1-0.6,0.1c-1,0-2.6-0.5-4-1.1
		c-0.3-0.2-0.4-0.3-0.4-0.4c0-0.1,0.1-0.2,0.4-0.2c0.2,0,1.1,0.2,1.8,0.2c0.9,0,1.9-0.4,3.3-1.3c1.5-1,2.8-2.3,2.8-3.8
		c0-0.5-0.1-1-0.4-1.5c-0.3,0.7-0.8,1.1-1.5,1.1c-1.3,0-2.1-0.7-2.1-2.1c0-0.5,0.3-1.3,0.6-2.1c0.5-1,1.2-1.9,1.8-1.9
		C277.9,19.8,278.7,20.7,279.2,22z M276.7,22c-0.3,0-0.5,0.2-0.7,0.5c-0.1,0.1-0.2,0.4-0.2,0.5c0,0.4,0.6,0.6,1.1,0.6
		c0.4,0,0.7-0.2,0.8-0.4C277.7,22.5,277,22,276.7,22z"/>
	<path class="st0" d="M290.2,23.8c0.7,0,1.1,0.4,1.1,1.1c0,0.8-0.4,1.2-1.1,1.2H290c-0.6,0-1,0-1.3-0.1c0,0.1,0,0.2,0,0.3
		c0,0.7-0.1,1.5-0.4,2.1c-0.5,1.2-1.3,3.3-3.6,4.3c-0.4,0.2-0.8,0.3-1.2,0.3c-0.9,0-2.4-0.5-3.5-1c-0.3-0.2-0.4-0.3-0.4-0.4
		c0-0.1,0.1-0.2,0.4-0.2c0.3,0,0.8,0.1,1.3,0.1c3.1,0,6.2-2.7,6.6-5c0-0.5-1.1-1.6-1.3-1.9c0-0.1-0.1-0.2-0.1-0.3
		c0-0.5,0.4-1.5,0.6-1.8c0.1-0.2,0.2-0.2,0.3-0.2c0.2,0,0.3,0.2,0.6,0.7c0.4,0.6,0.9,0.9,1.8,0.9H290.2z"/>
	<path class="st0" d="M293.6,12.7c0,0.5-0.1,1-0.3,1.5c0.2,0.1,0.4,0.3,0.4,0.4c0,0.4-0.2,0.7-0.3,1c-0.1,0.1-0.1,0.1-0.1,0.1
		l-0.5-0.3c-0.5,0.8-1.3,1.7-2.5,2.3c-0.4,0.2-0.9,0.4-1.5,0.4c-0.3,0-0.4-0.1-0.4-0.1c0-0.1,0.2-0.2,0.6-0.4
		c0.9-0.5,2.5-1.8,3.1-2.5c-0.5-0.3-1.1-0.7-1.1-1.4c0-0.4,0.2-0.9,0.6-1.3c0.4-0.5,0.8-0.8,1.2-0.8
		C293.4,11.5,293.6,12.2,293.6,12.7z M291.8,13.2C291.8,13.2,291.8,13.2,291.8,13.2c0,0.2,0.4,0.5,0.8,0.7c0.1-0.2,0.1-0.4,0.1-0.7
		c0-0.3-0.1-0.4-0.3-0.4C292.2,12.7,292,12.9,291.8,13.2z"/>
	<path class="st0" d="M296,4.1c0.7,0,1.7,1,1.7,2.1c0,0.4-0.1,0.8-0.2,1.2c-0.3,0.8-0.9,1.3-1.8,1.3c-0.8,0-1.3-0.6-1.3-1.3
		C294.3,6.2,295.4,4.1,296,4.1z M295.7,5.7c-0.3,0-0.7,0.6-0.7,1c0,0.3,0.4,0.6,0.8,0.6c0.5,0,1.1-0.3,1.1-0.5
		C296.9,6.5,296.3,5.7,295.7,5.7z"/>
	<path class="st0" d="M296.8,16.7c0,0.6-0.1,1.1-0.2,1.4s-0.2,0.7-0.3,1c-0.1,0.3-0.4,0.6-0.9,1c0.9,0.2,1.8,0.5,2.8,0.8
		c1.1,0.3,2,0.6,2.6,0.7c0.6,0.2,1.4,0.2,2.4,0.3l1.7,0.1c0.2,0,0.2,0.1,0.2,0.2c-0.3,0.4-0.7,0.9-1.3,1.6c-0.1,0.2-0.2,0.2-0.4,0.2
		c-0.2,0-1.3-0.2-2.9-0.2c-0.8,0-1.5,0.1-2.3,0.3c-0.7,0.2-1.7,0.5-2.8,0.9c-1.1,0.4-2.1,0.7-2.7,0.9c-0.6,0.2-1.5,0.3-2.4,0.3h-0.2
		c-0.7,0-1-0.4-1-1.2c0-0.8,0.3-1.1,1-1.1h0.3c2.5,0,4.7-0.4,6.7-1c-0.2-0.2-0.9-0.4-2.3-0.8c-1.3-0.4-2.4-0.6-3.1-0.6
		c-0.2,0-0.2,0-0.2-0.1c0-0.3,0.4-0.8,1.3-1.6c0.1-0.1,0.2-0.2,0.3-0.2c0.2-0.1,0.5-0.2,0.9-0.3c0.3-0.1,0.7-0.2,1.3-0.5
		c0.6-0.2,0.8-0.5,0.8-0.8l-0.7-4.2c-0.1-0.4-0.3-1.3-0.4-1.7c0-0.1,0-0.2,0-0.3c0,0,0-0.1,0-0.2c0-0.1,0.1-0.4,0.4-0.9
		c0.2-0.5,0.6-1,0.8-1c0.1,0,0.1,0.1,0.2,0.2c0.3,0.9,0.6,1.4,0.8,1.8c0,0.1,0.1,0.2,0.1,0.2c0,0.1,0,0.1,0,0.2
		c-0.1,0.2-0.3,0.7-0.5,1C296.7,14.3,296.9,15.7,296.8,16.7z"/>
	<path class="st0" d="M308.7,26.1c-0.1,0-0.2-0.2-0.2-0.7c0-3-1.1-11.3-1.1-12.7c0-0.7,0.5-1.7,0.9-2.5c0.1-0.2,0.3-0.5,0.5-0.5
		c0.1,0,0.2,0.2,0.2,0.8c0.1,2.2,0.7,7.3,0.7,11c0,1.5-0.1,2.7-0.4,3.5C309.1,25.8,308.9,26.1,308.7,26.1z"/>
	<path class="st0" d="M324.1,12.2c0.1-0.1,0.1,0,0.1,0.1c0,0.6-0.2,1.1-0.5,1.3l-4.1,2.3c-0.1,0-0.1,0-0.1-0.1c0-0.3,0.1-0.8,0.2-1
		c0.1-0.2,0.3-0.3,0.7-0.5L324.1,12.2z"/>
	<path class="st0" d="M326.5,24c0-0.3,0.3-1.4,0.6-2c0.1-0.1,0.1-0.2,0.2-0.2c0.1,0,0.2,0.1,0.2,0.2c0.6,1.2,1.1,1.8,1.9,1.8h0.3
		c0.7,0,1,0.4,1,1.1c0,0.8-0.3,1.2-1,1.2h-0.3c-0.4,0-0.7,0-0.9-0.1c-0.1,1.8-0.2,2.6-0.4,3c-0.3,0.9-0.8,1.7-2.1,2.6
		c-1.2,0.9-3,1.5-5.5,1.5c-2.5,0-4.4-1.7-4.4-4.5c0-1.4,0.7-3.1,1.3-3.8c0.2-0.3,0.5-0.6,0.6-0.6c0.1,0,0.1,0.1,0.1,0.2
		c0,0.2-0.1,0.4-0.2,0.7c-0.5,0.9-0.8,1.7-0.8,2.7c0,1.9,2.3,3,3.9,3c2.7,0,5.6-1,6.4-2.5c0-0.1,0.1-0.2,0.1-0.4
		c-0.1-1.9-0.3-2.6-0.9-3.7C326.5,24.1,326.5,24.1,326.5,24z M324.1,18.9c0.1,0.1,0.1,0.1,0,0.2c-0.2,0.3-1.1,1.2-1.4,1.7
		c-0.1,0.1-0.1,0.1-0.2,0c-0.5-0.3-1.5-1-1.7-1.4c-0.1-0.1-0.1-0.1,0-0.2c0.3-0.5,0.9-1.2,1.3-1.6c0.2-0.2,0.2-0.2,0.3-0.1
		C322.7,17.8,323.4,18.4,324.1,18.9z"/>
	<path class="st0" d="M337.5,28.1c0.1-0.1,0.1,0,0.1,0.1c0,0.6-0.2,1.1-0.5,1.3l-4.1,2.3c-0.1,0-0.1,0-0.1-0.1c0-0.3,0.1-0.8,0.2-1
		c0.1-0.2,0.3-0.3,0.7-0.5L337.5,28.1z"/>
	<path class="st0" d="M329.6,26.1h-0.1c-0.7,0-1-0.4-1-1.2c0-0.7,0.4-1.1,1-1.1h0.1c1.2,0,2.2-0.5,2.9-1.4l1.3-2
		c0.7-1.1,1.7-1.5,2.2-1.5c1.7,0,2.4,2.9,2.4,4.1c0,1-1.1,2.4-1.6,2.4c-0.8,0-2.8-1-3.8-1.9C331.9,25.3,330.8,26.1,329.6,26.1z
		 M334.9,20.9c-0.2,0-0.3,0.1-0.5,0.3c-0.1,0.1-0.2,0.3-0.3,0.5c0.5,0.3,1.9,1,2.5,1.4C336.5,22.3,335.5,20.9,334.9,20.9z"/>
	<path class="st0" d="M348.9,26.1c-0.7,0-1.2-0.1-1.7-0.5c-0.7-0.6-1.1-1.7-1.3-3.1c-0.2-1.1-0.2-2.3-0.3-3.7
		c-0.1-2-0.2-5.1-0.5-6.9c0-0.1,0-0.2,0-0.2c0-0.1,0-0.2,0.2-0.4c0.3-0.5,0.5-0.8,0.7-1.2c0.2-0.3,0.2-0.3,0.3-0.3
		c0.1,0,0.2,0.2,0.3,0.7c0.4,3.5,0.1,8.4,0.6,11.1c0.1,0.7,0.2,0.9,0.4,1.3c0.3,0.6,0.7,0.9,1.4,1c0.8,0,1.2,0.4,1.2,1.1
		c0,0.9-0.4,1.2-1.1,1.2H348.9z"/>
	<path class="st0" d="M363.3,22.7c0.1-0.1,0.1,0,0.1,0.1c0,0.6-0.2,1.1-0.5,1.3l-4.1,2.3c-0.1,0-0.1,0-0.1-0.1c0-0.3,0.1-0.8,0.2-1
		c0.1-0.2,0.3-0.3,0.7-0.5L363.3,22.7z"/>
	<path class="st0" d="M355.6,17.8c0-1.2,0.6-2.7,1.1-3.4c-0.1-0.1-0.2-0.3-0.2-0.6c0-0.4,0.2-2.2,0.9-2.2c1.7,0,6.2,3.3,6.3,6.5
		c0,1.6-0.7,2.7-1.7,2.7c-0.4,0-0.8-0.1-1.2-0.2c-1-0.2-1.8-0.6-2.9-0.8c-0.3,0-0.8,0.1-1.4,0.3c-0.6,0.2-1.1,0.4-1.5,0.6
		c0.9,0,1.5,0.6,1.8,1.9c0.1,0.3,0.2,0.8,0.2,0.9c0,0.4-0.2,0.9-0.5,1.5c-0.4,0.6-0.7,0.9-1.1,0.9c-0.5,0-1-0.2-1.6-0.5
		c-0.6-0.3-1.1-0.8-1.5-1.3c-0.6,1.2-1.7,1.8-3,1.8h-0.3c-0.6,0-0.9-0.4-0.9-1.2c0-0.7,0.3-1.1,0.9-1.1h0.3c1.1,0,1.9-0.1,2.4-0.3
		c0.5-0.2,0.9-0.6,1.2-1.2c1.1-2,2.1-3.1,3.1-3.4C355.7,18.6,355.6,18.2,355.6,17.8z M353.3,22.7c0.2,0.3,0.5,0.5,1.1,0.8
		c0.5,0.3,0.9,0.4,1.2,0.4c-0.1-0.5-0.2-0.8-0.5-1.1c-0.3-0.3-0.5-0.5-0.9-0.5C353.8,22.2,353.5,22.4,353.3,22.7z M358.1,14.9
		c-0.4,0-1.4,1.1-1.4,1.5c0,0.5,0.4,1.2,1.5,1.4c0.5-0.2,1.1-0.6,1.3-1C359.5,15.9,358.3,14.9,358.1,14.9z M360.3,15.7
		c0.2,1.4-0.5,2.1-0.7,2.3c1.4,0.3,2.4,1.1,3.4,1C362.8,17.9,361.8,16.5,360.3,15.7z"/>
	<path class="st0" d="M368.8,33.1c0.1-0.1,0.1,0,0.1,0.1c0,0.6-0.2,1.1-0.5,1.3l-4.1,2.3c-0.1,0-0.1,0-0.1-0.1c0-0.3,0.1-0.8,0.2-1
		c0.1-0.2,0.3-0.3,0.7-0.5L368.8,33.1z"/>
	<path class="st0" d="M373.7,11.4c0.7,0,1.7,1,1.7,2.1c0,0.4-0.1,0.8-0.2,1.2c-0.3,0.8-0.9,1.3-1.8,1.3c-0.8,0-1.3-0.6-1.3-1.3
		C372.1,13.6,373.2,11.4,373.7,11.4z M373.5,13c-0.3,0-0.7,0.6-0.7,1c0,0.3,0.4,0.6,0.8,0.6c0.5,0,1.1-0.3,1.1-0.5
		C374.7,13.9,374.1,13,373.5,13z"/>
	<path class="st0" d="M374.8,29.1c0.2-0.2,0.2-0.2,0.3-0.1c0.5,0.5,1,1.1,1.5,1.4c0.2,0.1,0.2,0.2,0,0.3c-0.5,0.5-0.9,1-1.3,1.5
		c-0.1,0.1-0.2,0.1-0.3,0c-0.4-0.3-0.9-0.7-1.4-1.2c-0.3,0.3-0.9,1-1.1,1.2c-0.1,0.1-0.2,0.2-0.4,0c-0.5-0.3-1.1-0.9-1.5-1.4
		c-0.1-0.1-0.1-0.2,0-0.3c0.4-0.5,0.9-1,1.4-1.5c0.1-0.1,0.2-0.1,0.3,0.1c0.4,0.4,1,1,1.4,1.2C374,29.9,374.6,29.3,374.8,29.1z"/>
	<path class="st0" d="M370.5,23.9c0.1,0.7,0.1,1,0.1,1.4c0,3.5-1.5,6.1-4.2,7.2c-0.1,0.1-0.3,0.1-0.5,0.1c-1,0-2.7-0.4-4.1-1
		c-0.4-0.2-0.4-0.3-0.4-0.4c0-0.2,0.2-0.2,0.6-0.2c1.6,0.2,2.1,0.3,3.7-0.4c1.3-0.6,4-2.8,4-4.4c0-0.4-0.1-0.8-0.3-1.3
		c-0.2-0.5-0.9-1.5-1.5-2.4c0,0,0-0.1,0-0.3c0-0.2,0.1-0.5,0.3-0.9c0.2-0.7,0.4-1,0.5-1c0.1,0,0.3,0.2,0.6,0.7
		c0.2,0.3,0.3,0.5,0.5,0.6c0.2,0.2,0.5,0.2,0.8,0.2c0.6,0,1.4-0.2,1.9-0.8c0.4-0.5,0.7-1.1,0.9-1.4c0.1-0.1,0.2-0.3,0.3-0.3
		c0.1,0,0.2,0.2,0.3,0.5c0.1,0.3,0.2,0.8,0.3,1.6c0.1,0.8,0.4,1.4,0.7,1.9c0.3,0.5,0.7,0.8,1.2,0.8h0.4c0.6,0,0.9,0.4,0.9,1.1
		c0,0.8-0.3,1.2-1,1.2h-0.4c-0.8,0-1.8-0.6-2.2-1.4c-0.2-0.4-0.4-1-0.5-1.8c-0.1-0.8-0.2-1.3-0.3-1.3
		C372.8,23.1,372,23.8,370.5,23.9z"/>
	<path class="st0" d="M382.2,5c0.1-0.1,0.1,0,0.1,0.1c0,0.6-0.2,1.1-0.5,1.3l-4.1,2.3c-0.1,0-0.1,0-0.1-0.1c0-0.3,0.1-0.8,0.2-1
		c0.1-0.2,0.3-0.3,0.7-0.5L382.2,5z"/>
	<path class="st0" d="M377.7,21.7c0-0.5,0.2-1.7,0.6-2.5c0.7-1.5,1.9-2.2,2.9-2.2c0.7,0,2.1,0.4,2.8,1c0.3,0.2,0.3,0.4,0.3,0.5
		c0,0.1-0.1,0.1-0.2,0.1c-0.4,0-1-0.1-1.6-0.1c-1.1,0-3.6,1-3.7,1.7c0.1,0.4,1.3,2.3,3.3,2.3h0.1c1.2-0.5,2.7-1.1,3.7-1.6
		c0.4-0.2,0.7-0.3,0.8-0.3c0.1,0,0.1,0,0.1,0.1c0,0.2-0.5,1.2-0.8,1.7c-0.1,0.1-0.2,0.3-0.4,0.4c-0.7,0.4-1.8,0.9-3.2,1.6
		c-1.5,0.7-4.6,1.8-5.9,1.8h-0.2c-0.7,0-1-0.4-1-1.1c0-0.8,0.4-1.1,1.1-1.1h0.2c0.2,0,1.2-0.1,2.1-0.3
		C378,23.1,377.7,22.5,377.7,21.7z M382.5,12c0.1,0.1,0.1,0.1,0,0.2c-0.2,0.3-1.1,1.2-1.4,1.7c-0.1,0.1-0.1,0.1-0.2,0
		c-0.5-0.3-1.5-1-1.7-1.4c-0.1-0.1-0.1-0.1,0-0.2c0.3-0.5,0.9-1.2,1.3-1.6c0.2-0.2,0.2-0.2,0.3-0.1C381.1,10.9,381.8,11.5,382.5,12z
		"/>
	<path class="st0" d="M399.8,33.5c0.2-0.2,0.2-0.2,0.3-0.1c0.5,0.5,1,1.1,1.5,1.4c0.2,0.1,0.2,0.2,0,0.3c-0.5,0.5-0.9,1-1.3,1.5
		c-0.1,0.1-0.2,0.1-0.3,0c-0.4-0.3-0.9-0.7-1.4-1.2c-0.3,0.3-0.9,1-1.1,1.2c-0.1,0.1-0.2,0.2-0.4,0c-0.5-0.3-1.1-0.9-1.5-1.4
		c-0.1-0.1-0.1-0.2,0-0.3c0.4-0.5,0.9-1,1.4-1.5c0.1-0.1,0.2-0.1,0.3,0.1c0.4,0.4,1,1,1.4,1.2C399,34.3,399.6,33.7,399.8,33.5z"/>
	<path class="st0" d="M405.5,10.7c0.1,0.1,0.1,0.1,0,0.2c-0.2,0.3-1.1,1.2-1.4,1.7c-0.1,0.1-0.1,0.1-0.2,0c-0.5-0.3-1.5-1-1.7-1.4
		c-0.1-0.1-0.1-0.1,0-0.2c0.3-0.5,0.9-1.2,1.3-1.6c0.2-0.2,0.2-0.2,0.3-0.1C404,9.6,404.8,10.2,405.5,10.7z"/>
	<path class="st0" d="M396.4,28.7c0.7,0.2,1.4,0.3,2.1,0.3c0.8,0,1.4-0.1,2.2-0.3c2.4-0.6,5.1-1.9,5.5-2.5c-0.7-0.6-2.7-1.4-4.4-1.5
		c-0.3,0-0.5-0.1-0.5-0.4c0-0.3,0.3-0.9,0.5-1.2c0.1-0.1,0.1-0.1,0.3-0.2c3.2-0.6,3.4-1.8,3.4-1.9c0-0.7-0.1-0.9-0.3-1.5
		c-0.4,0.5-1,1-1.8,1c-0.9,0-1.8-0.6-1.8-1.7c0-1.6,1.5-4.4,2.2-4.4c0.8,0,1.6,0.7,2.1,1.9c0.4,0.9,0.7,2.2,0.7,3
		c0,1.5-0.7,3-1.5,4.2c0.6,0.2,1.1,0.4,1.4,0.6c0.9,0.5,0.9,1.1,0.9,1.5c0,0.9-0.7,1.9-1.7,2.8c-2,1.7-5.4,2.9-7.6,2.9
		c-0.6,0-1.4-0.1-2.1-0.3c-1.7-0.5-3.2-1.7-3.2-4.5c0-1.6,0.7-3.8,1.5-5c0.2-0.4,0.5-0.6,0.7-0.6c0.2,0,0.1,0.4-0.1,0.8
		c-0.6,1.3-1,2.5-1,3.4C393.6,27.1,394.8,28.3,396.4,28.7z M403.3,16.6c-0.2,0-0.5,0.2-0.7,0.7c0,0.1-0.1,0.2-0.1,0.3
		c0,0.4,0.5,0.6,1,0.7c0.5,0,1-0.2,1-0.5C404.3,16.9,403.7,16.6,403.3,16.6z"/>
	<path class="st0" d="M425.5,11.7c0.1,0.2,0.1,0.2,0.1,0.3c0,0.1,0,0.1-0.1,0.2c-0.2,0.4-0.5,1-0.8,1.3c-0.2,2.4-0.5,4.3-1.6,7
		c0.3,0.8,0.5,1.9,0.5,2.9c0,0.7-0.1,1.3-0.3,1.8c-0.2,0.4-2.7,0.8-4.4,0.8c-0.5,0-0.8,0-1.1-0.1c-0.1,0-0.2-0.3-0.2-0.7
		c0-0.6,0.1-1.5,0.3-1.8c0-0.1,0.1-0.1,0.1-0.1c0.1,0,0.1,0,0.2,0c1.4,0,2.8-1.3,3.7-2.9c-1.1-2.2-3.5-5.2-5.6-6.6
		c0,0.1-0.4,0.6-0.7,0.6c-0.3,0-2.2-1.8-2.2-2.2c0-0.2-0.1-0.4-0.1-0.6c0-0.6,0.1-1.1,0.2-1.4c0.1-0.3,0.3-0.4,0.4-0.4
		c0.2,0,0.5,0.2,0.8,0.4c1.6,1.1,3.2,2.4,4.5,4c1,1.3,2.3,3,3.3,5.1c0.6-1.3,0.7-2.2,0.9-3.9c0.1-1,0.1-1.7,0.1-2.2
		c0-1.1-0.1-1.5-0.1-1.8c0-0.2,0.1-0.4,0.2-0.7c0.4-0.7,0.7-1.2,0.8-1.2c0.1,0,0.1,0.1,0.2,0.2C424.9,10.5,425.2,11.1,425.5,11.7z
		 M422.4,21.6c-0.8,1.1-0.9,1.3-1.7,2.1c0.8,0,1.5-0.1,2.1-0.3C422.8,23,422.8,22.4,422.4,21.6z"/>
	<path class="st0" d="M438.6,37.1c0.1-0.1,0.1,0,0.1,0.1c0,0.6-0.2,1.1-0.5,1.3l-4.1,2.3c-0.1,0-0.1,0-0.1-0.1c0-0.3,0.1-0.8,0.2-1
		c0.1-0.2,0.3-0.3,0.7-0.5L438.6,37.1z"/>
	<path class="st0" d="M441.7,30.6c0.2-0.2,0.2-0.2,0.3-0.1c0.5,0.5,1,1.1,1.5,1.4c0.2,0.1,0.2,0.2,0,0.3c-0.5,0.5-0.9,1-1.3,1.5
		c-0.1,0.1-0.2,0.1-0.3,0c-0.4-0.3-0.9-0.7-1.4-1.2c-0.3,0.3-0.9,1-1.1,1.2c-0.1,0.1-0.2,0.2-0.4,0c-0.5-0.3-1.1-0.9-1.5-1.4
		c-0.1-0.1-0.1-0.2,0-0.3c0.4-0.5,0.9-1,1.4-1.5c0.1-0.1,0.2-0.1,0.3,0.1c0.4,0.4,1,1,1.4,1.2C440.9,31.4,441.5,30.8,441.7,30.6z"/>
	<path class="st0" d="M438.8,27.4c0,0.1,0,0.2-0.1,0.5c-0.3,0.8-0.6,1.3-0.8,1.6c-0.1,0.1-0.1,0.1-0.2,0.1c-0.5-0.2-1.1-0.3-2.2-0.4
		c-1.7,0-2.8,0.3-3.1,0.9c0.2,1.2,0.4,2.1,0.5,2.6l0.4,2.1c0.2,1.1,0.3,2.2,0.3,3.1c0,0.9-0.1,1.9-0.4,2.8c-0.1,0.4-0.3,0.6-0.4,0.6
		c-0.1,0-0.1-0.2-0.1-0.5c0-0.3,0.1-0.7,0-1.2c0-0.9-0.2-2.1-0.6-4.6c-0.3-1.9-0.6-3-0.6-3.5c0-1,0.2-1.9,0.7-2.8
		c0.5-0.9,1.1-1.5,1.8-1.8l0.7-1.6c0.5-1.2,1.3-2,2.1-2.5c0.8-0.5,2.1-1.1,3.1-1.1c0.3,0,0.6,0.1,0.8,0.2c0.3,0.2,0.6,0.5,1,1.1
		c0.4,0.6,0.8,0.8,1.3,0.8h0.3c0.6,0,0.9,0.3,0.9,1c0,0.8-0.3,1.2-0.9,1.2h-0.3c-0.7,0-1.4-0.3-2-1c-0.5-0.5-0.8-0.9-1.2-1
		c-0.2-0.1-0.4-0.1-0.9-0.1c-1.1,0-2.1,0.4-2.9,1.1c0.9,0.4,1.6,0.8,2.1,1.3C438.5,26.8,438.7,27.1,438.8,27.4z"/>
	<path class="st0" d="M445.7,4.2c0.7,0,1.7,1,1.7,2.1c0,0.4-0.1,0.8-0.2,1.2c-0.3,0.8-0.9,1.3-1.8,1.3c-0.8,0-1.3-0.6-1.3-1.3
		C444.1,6.4,445.2,4.2,445.7,4.2z M445.5,5.8c-0.3,0-0.7,0.6-0.7,1c0,0.3,0.4,0.6,0.8,0.6c0.5,0,1.1-0.3,1.1-0.5
		C446.7,6.6,446.1,5.8,445.5,5.8z"/>
	<path class="st0" d="M447.2,21.4c0.1,0.5,0.4,0.9,0.7,1.1c0.3,0.2,0.7,0.4,1.1,0.6c0.4,0.2,0.7,0.3,0.8,0.4
		c0.2,0.1,0.3,0.8,0.3,1.2c0,0.4-0.1,1-0.4,1.4c-0.1,0.1-0.2,0.1-0.2,0.1c-1.3-0.7-2.3-1.1-3-1.1c-0.5,0-0.9,0.2-1.5,0.5
		c-0.6,0.3-1.3,0.6-2,0.6h-0.2c-0.6,0-0.9-0.4-0.9-1.1c0-0.8,0.3-1.2,0.9-1.2h0.2c0.9,0,1.9-0.3,3.1-0.8c0-0.2-0.1-0.7-0.2-1.6
		s-0.4-4.1-0.8-8c-0.1-0.4-0.2-1-0.3-1.4c0-0.1,0-0.2,0-0.3c0,0,0-0.1,0-0.2c0-0.1,0.1-0.4,0.4-0.8c0.3-0.5,0.6-1.1,0.8-1.1
		c0.1,0,0.1,0.1,0.2,0.2c0.3,0.9,0.5,1.4,0.7,1.8c0,0.1,0.1,0.2,0.1,0.2s0,0.1,0,0.2c-0.1,0.2-0.4,0.9-0.6,1.2
		C446.8,18.1,447.1,20.9,447.2,21.4z"/>
	<path class="st0" d="M454.1,26.1c-0.1,0-0.2-0.2-0.2-0.7c0-3-1.1-11.3-1.1-12.7c0-0.7,0.5-1.7,0.9-2.5c0.1-0.2,0.3-0.5,0.5-0.5
		c0.1,0,0.2,0.2,0.2,0.8c0.1,2.2,0.7,7.3,0.7,11c0,1.5-0.1,2.7-0.4,3.5C454.4,25.8,454.3,26.1,454.1,26.1z"/>
	<path class="st0" d="M462.4,13.7c0.1-0.1,0.1,0,0.1,0.1c0,0.6-0.2,1.1-0.5,1.3l-4.1,2.3c-0.1,0-0.1,0-0.1-0.1c0-0.3,0.1-0.8,0.2-1
		c0.1-0.2,0.3-0.3,0.7-0.5L462.4,13.7z"/>
	<path class="st0" d="M463.2,22c0.3,0.9,0.5,1.8,0.5,3.1c0,4-1.1,6.5-4.2,7.7c-0.2,0.1-0.4,0.1-0.6,0.1c-1,0-2.6-0.5-4-1.1
		c-0.3-0.2-0.4-0.3-0.4-0.4c0-0.1,0.1-0.2,0.4-0.2c0.2,0,1.1,0.2,1.8,0.2c0.9,0,1.9-0.4,3.3-1.3c1.5-1,2.8-2.3,2.8-3.8
		c0-0.5-0.1-1-0.4-1.5c-0.3,0.7-0.8,1.1-1.5,1.1c-1.3,0-2.1-0.7-2.1-2.1c0-0.5,0.3-1.3,0.6-2.1c0.5-1,1.2-1.9,1.8-1.9
		C461.9,19.8,462.7,20.7,463.2,22z M460.7,22c-0.3,0-0.5,0.2-0.7,0.5c-0.1,0.1-0.2,0.4-0.2,0.5c0,0.4,0.6,0.6,1.1,0.6
		c0.4,0,0.7-0.2,0.8-0.4C461.7,22.5,461,22,460.7,22z"/>
	<path class="st0" d="M479.9,29.2c0.1-0.1,0.1,0,0.1,0.1c0,0.6-0.2,1.1-0.5,1.3l-4.1,2.3c-0.1,0-0.1,0-0.1-0.1c0-0.3,0.1-0.8,0.2-1
		c0.1-0.2,0.3-0.3,0.7-0.5L479.9,29.2z"/>
	<path class="st0" d="M471.3,26.8c-0.9-0.8-1.4-2.1-1.4-3.4c0-1.5,0.9-3.2,1.4-3.9c0.2-0.3,0.4-0.4,0.5-0.4c0.1,0,0.1,0.1,0.1,0.2
		c0,0.1-0.1,0.3-0.2,0.5c-0.4,0.9-0.9,1.8-0.9,2.9c0,0.8,0.6,1.6,1.4,2.1c0.8,0.5,1.7,0.8,2.7,0.8c2.4,0,5.7-1,6.4-2.7
		c0-0.2,0-0.3,0-0.4c0-1.1-0.3-2.3-0.9-3.1c-0.2-0.4-0.4-0.7-0.5-0.8c0,0,0-0.1,0-0.2c0-0.2,0.1-0.5,0.2-0.8
		c0.2-0.4,0.3-0.8,0.4-1.1c0.1-0.1,0.1-0.2,0.2-0.2c0.1,0,0.1,0,0.2,0.3c0.7,1.5,1.3,2.9,1.3,4.7c0,1.4-0.2,2.3-0.3,2.7
		c-0.4,0.9-0.6,1.3-1.1,1.8c-0.5,0.5-1.4,1.2-2.5,1.6c-1.1,0.5-2.4,0.7-4.1,0.7C473.2,27.9,472.1,27.6,471.3,26.8z M477.8,13
		c0.1,0.1,0.1,0.1,0,0.2c-0.2,0.3-1.1,1.2-1.4,1.7c-0.1,0.1-0.1,0.1-0.2,0c-0.5-0.3-1.5-1-1.7-1.4c-0.1-0.1-0.1-0.1,0-0.2
		c0.3-0.5,0.9-1.2,1.3-1.6c0.2-0.2,0.2-0.2,0.3-0.1C476.4,11.9,477.1,12.6,477.8,13z"/>
	<path class="st0" d="M481.2,32.1c-0.3-0.2-0.4-0.3-0.4-0.4c0-0.1,0.2-0.2,0.4-0.2c0.3,0,1.1,0.2,1.8,0.2c0.6,0,1.2-0.2,2.1-0.6
		c2.4-1.2,3.9-3,3.9-4.2c0-0.2,0-0.3-0.1-0.7h-0.7c-0.5,0-1.5-0.1-2.2-0.5c-0.7-0.4-1-0.9-1-1.5c0-0.6,0.3-1.4,0.6-2.2
		c0.6-1.3,1.2-2.2,1.9-2.2c0.7,0,1.3,0.5,1.8,1.1c0.5,0.7,0.7,1.8,0.7,2.8h1c0.6,0,0.9,0.3,0.9,1c0,0.8-0.3,1.2-0.9,1.2l-1.1,0.1
		c-0.2,3.5-1.3,5.8-4.1,6.9c-0.2,0.1-0.4,0.1-0.6,0.1C484.2,33.1,482.6,32.7,481.2,32.1z M487.5,22.4c-0.1-0.1-0.3-0.2-0.6-0.2
		c-0.5,0-0.8,0.5-0.8,0.8c0,0.2,0.2,0.5,0.8,0.7c0.4,0.2,0.9,0.2,1.1,0.2c0.2,0,0.2,0,0.2-0.1C488.3,23.5,487.9,22.8,487.5,22.4z"/>
	<path class="st0" d="M492.3,13.7c0,0-0.1,0-0.1,0c-0.3,0-0.6-0.2-0.8-0.4c-0.3-0.3-0.4-0.7-0.4-1.2c0-0.2,0-0.5,0.1-0.7
		c0.1-0.2,0.3-0.7,0.5-0.7c0.1,0,0.1,0.1,0.1,0.4c0,0.1,0,0.3,0,0.4c0,0.4,0.2,0.6,0.7,0.6h0c0.4,0,0.8-0.3,0.9-0.9
		c0.1-0.2,0.3-1,0.6-1c0.1,0,0.2,0.1,0.2,0.4v0.1c0,0.3,0.1,0.4,0.4,0.4c0,0,0.1,0,0.2,0c0.4-0.1,0.6-0.4,0.7-0.8
		c0.2-0.5,0.3-0.7,0.4-0.7c0.1,0,0.2,0.1,0.2,0.3c0,0.2,0,0.3,0,0.5c0,0.4-0.1,0.8-0.3,1.2c-0.3,0.6-0.7,1.1-1.4,1.1
		c-0.3,0-0.4-0.1-0.6-0.2c-0.1-0.1-0.1-0.1-0.2,0C493.2,13.3,492.7,13.7,492.3,13.7z M495.5,5.5c0,0.2,0,0.2,0,0.3
		c0,0.4-0.1,0.8-0.3,1.2c0.2,0.1,0.3,0.2,0.3,0.3c0,0.3-0.1,0.6-0.3,0.9L494.7,8c-0.5,0.8-1,1.3-1.3,1.6c-0.3,0.2-0.9,0.4-1.6,0.4
		c-0.4,0-0.5-0.1-0.3-0.2c1.3-0.8,2.2-1.5,2.7-2.2c-0.4-0.3-0.9-0.6-0.9-1.1c0-0.3,0.2-0.7,0.5-1.1c0.3-0.5,0.7-0.7,1-0.7
		C495.2,4.8,495.4,5.2,495.5,5.5z M494,6.3c0.1,0.2,0.3,0.3,0.7,0.5c0.1-0.1,0.1-0.4,0.1-0.5c0-0.2-0.1-0.4-0.3-0.4
		C494.3,5.9,494.1,6,494,6.3z"/>
	<path class="st0" d="M495.5,22.5c0,0.6,0.6,1.2,1.4,1.4c0.2,0,0.3,0,0.5,0h0.1c0.9,0,0.9,0.7,0.9,1c0,0.3,0,1.3-0.8,1.3h-0.2
		c-0.2,0-0.3,0-0.6,0c-1.5-0.2-2.1-1.5-2.2-1.7c-0.2,0.6-1.5,1.7-3.7,1.7h-0.1c-0.6,0-1-0.6-1-1.1s0.3-1.1,1-1.1h0.7
		c1,0,2.4-0.2,3.3-1.6c0.3-0.5,0.4-0.5,0.5-0.5C495.4,21.7,495.5,21.9,495.5,22.5z M496.3,16.6c0.1,0.1,0.1,0.1,0,0.2
		c-0.2,0.3-1.1,1.2-1.4,1.7c-0.1,0.1-0.1,0.1-0.2,0c-0.5-0.3-1.5-1-1.7-1.4c-0.1-0.1-0.1-0.1,0-0.2c0.3-0.5,0.9-1.2,1.3-1.6
		c0.2-0.2,0.2-0.2,0.3-0.1C494.9,15.5,495.6,16.2,496.3,16.6z"/>
	<path class="st0" d="M499.8,25.1c-0.5,0.7-1.2,1-2.3,1h-0.2c-0.7,0-1-0.4-1-1.2c0-0.7,0.3-1.1,1-1.1h0.2c0.5,0,1-0.1,1.5-0.2
		c0.4-0.1,0.6-0.3,0.7-0.4c0-1.7-0.6-5.4-0.9-8.9c0-0.4-0.3-1.6-0.4-2.1c0-0.1,0-0.2,0-0.2c0-0.3,0.3-0.9,0.5-1.3
		c0.3-0.5,0.5-0.9,0.7-0.9c0.1,0,0.1,0.1,0.2,0.2c0.3,1,0.6,1.5,0.8,1.8c0.1,0.1,0.1,0.2,0.1,0.3c0,0,0,0.1,0,0.1
		c-0.1,0.2-0.4,0.8-0.6,1.1c0.2,3.4,0.7,6.2,0.7,7.8C500.8,22.8,500.5,24.1,499.8,25.1z"/>
	<path class="st0" d="M505.4,26.1c-0.1,0-0.2-0.2-0.2-0.7c0-3-1.1-11.3-1.1-12.7c0-0.7,0.5-1.7,0.9-2.5c0.1-0.2,0.3-0.5,0.5-0.5
		c0.1,0,0.2,0.2,0.2,0.8c0.1,2.2,0.7,7.3,0.7,11c0,1.5-0.1,2.7-0.4,3.5C505.8,25.8,505.6,26.1,505.4,26.1z"/>
	<path class="st0" d="M521.2,36.3c0.2-0.2,0.2-0.2,0.3-0.1c0.5,0.5,1,1.1,1.5,1.4c0.2,0.1,0.2,0.2,0,0.3c-0.5,0.5-0.9,1-1.3,1.5
		c-0.1,0.1-0.2,0.1-0.3,0c-0.4-0.3-0.9-0.7-1.4-1.2c-0.3,0.3-0.9,1-1.1,1.2c-0.1,0.1-0.2,0.2-0.4,0c-0.5-0.3-1.1-0.9-1.5-1.4
		c-0.1-0.1-0.1-0.2,0-0.3c0.4-0.5,0.9-1,1.4-1.5c0.1-0.1,0.2-0.1,0.3,0.1c0.4,0.4,1,1,1.4,1.2C520.4,37.2,520.9,36.5,521.2,36.3z"/>
	<path class="st0" d="M530,7.7c0.1-0.1,0.1,0,0.1,0.1c0,0.6-0.2,1.1-0.5,1.3l-4.1,2.3c-0.1,0-0.1,0-0.1-0.1c0-0.3,0.1-0.8,0.2-1
		c0.1-0.2,0.3-0.3,0.7-0.5L530,7.7z"/>
	<path class="st0" d="M529.8,13.8c0.1,0.1,0.1,0.1,0,0.2c-0.2,0.3-1.1,1.2-1.4,1.7c-0.1,0.1-0.1,0.1-0.2,0c-0.5-0.3-1.5-1-1.7-1.4
		c-0.1-0.1-0.1-0.1,0-0.2c0.3-0.5,0.9-1.2,1.3-1.6c0.2-0.2,0.2-0.2,0.3-0.1C528.4,12.7,529.1,13.3,529.8,13.8z"/>
	<path class="st0" d="M514.8,24.8c0.4-0.6,0.6-0.8,0.7-0.8c0.3,0-0.1,0.9-0.2,1c-0.3,0.7-1,2.1-1,3.3c0,2.7,2.4,3.8,4.9,3.8
		c2.6,0,7-2.1,7.5-2.8c-0.7-0.6-2.7-1.3-4.5-1.2c-0.3,0-0.4-0.1-0.4-0.4c0-0.3,0.2-0.9,0.3-1.2c0.1-0.4,0.3-0.7,0.5-1
		c0.3-0.5,1.2-1.1,2.6-1.9h0c-0.1-0.3-0.2-0.6-0.2-0.9c0-2.1,2.5-5.1,4-5.1c0.8,0,1.3,1,1.3,2.1c0,1.3-0.5,2.8-1.5,3.7
		c0.5,0.2,1.1,0.4,2,0.4h0.4c0.6,0,0.9,0.4,0.9,1.1c0,0.8-0.3,1.2-0.9,1.2h-0.3c-2.1,0-3.4-0.4-4.3-1c-1.6,0.5-2.5,0.9-2.7,1.2
		c1.9,0.3,2.7,0.6,3.1,0.9c0.7,0.4,0.9,0.9,0.9,1.3c0,3.1-5.7,5.8-9.3,5.9c-2.4,0-5.3-1-5.3-4.8C513.4,27.7,514.1,25.9,514.8,24.8z
		 M528,19.9c-0.7,0-1.6,0.8-1.6,1.2c0,0.5,0.4,0.9,1.2,1.4c0.3-0.1,1.4-1,1.4-1.3C529,20.4,528.7,19.9,528,19.9z"/>
	<path class="st0" d="M536.7,20.9c0,1.2-0.4,2.9-0.9,3.7c-0.2,0.3-0.9,0.7-1.4,0.8c-1.4,0.4-2.5,0.6-3.3,0.6h-0.2
		c-0.6,0-1-0.4-1-1.2c0-0.7,0.3-1.1,1-1.1h0.2c1.3,0,2.8-0.2,3.7-0.5c0.8-0.3,0.9-0.3,0.9-1.1c0-0.5-0.1-0.8-0.3-1.3
		c-0.2,0.5-0.9,1-1.8,1c-1.1,0-1.8-0.7-1.8-2c0-1.8,1.4-4.1,2-4.1C535.6,15.9,536.7,19.3,536.7,20.9z M535.3,11
		c0.1,0.1,0.1,0.1,0,0.2c-0.2,0.3-1.1,1.2-1.4,1.7c-0.1,0.1-0.1,0.1-0.2,0c-0.5-0.3-1.5-1-1.7-1.4c-0.1-0.1-0.1-0.1,0-0.2
		c0.3-0.5,0.9-1.2,1.3-1.6c0.2-0.2,0.2-0.2,0.3-0.1C533.9,9.9,534.6,10.5,535.3,11z M534.2,18.4c-0.2-0.2-0.5-0.3-0.7-0.3
		c-0.2,0-0.4,0.1-0.5,0.4c-0.1,0.2-0.2,0.4-0.2,0.5c0,0.5,0.5,0.6,1,0.6c0.5,0,0.9-0.2,0.9-0.5C534.6,19.1,534.5,18.6,534.2,18.4z"
		/>
	<path class="st0" d="M547.1,26.1c-0.7,0-1.2-0.1-1.7-0.5c-0.7-0.6-1.1-1.7-1.3-3.1c-0.2-1.1-0.2-2.3-0.3-3.7
		c-0.1-2-0.2-5.1-0.5-6.9c0-0.1,0-0.2,0-0.2c0-0.1,0-0.2,0.2-0.4c0.3-0.5,0.5-0.8,0.7-1.2c0.2-0.3,0.2-0.3,0.3-0.3
		c0.1,0,0.2,0.2,0.3,0.7c0.4,3.5,0.1,8.4,0.6,11.1c0.1,0.7,0.2,0.9,0.4,1.3c0.3,0.6,0.7,0.9,1.4,1c0.8,0,1.2,0.4,1.2,1.1
		c0,0.9-0.4,1.2-1.1,1.2H547.1z"/>
	<path class="st0" d="M547.4,23.8c0.4,0,1,0,1.7-0.1c1.2-3.4,3.3-5.1,3.9-5.1c0.4,0,0.7,0.7,0.7,1.7c0,1.1-0.4,2.5-1.4,3.5h3.4
		c0.7,0,1.1,0.4,1.1,1.1c0,0.8-0.4,1.2-1.1,1.2h-1.4c0.3,0.4,0.4,1,0.4,2c0,0.7-0.9,2.7-1.8,2.8c-0.2,0-0.5,0.1-0.7,0.1
		c-2.6,0-3.5-2.8-3.6-4.5c-0.4,0.1-0.6,0.1-0.9,0.2c-0.1,0-0.1,0-0.1-0.1l0.1-0.4h-0.6c-0.7,0-1-0.4-1-1.2c0-0.8,0.3-1.1,1-1.1
		H547.4z M552.5,22.1c0-0.5-0.5-1.2-0.7-1.2c-0.4,0-1.2,1.2-1.9,2.7c0.7-0.2,2-0.5,2.5-1.3C552.5,22.3,552.5,22.2,552.5,22.1z
		 M552.8,28.6c0.2,0,0.4,0,0.6-0.1c0-0.9-1.1-1.8-3.2-2.2l-0.2,0C550.4,27.3,551.1,28.6,552.8,28.6z"/>
	<path class="st0" d="M556,9.2c0,0-0.1,0-0.1,0c-0.3,0-0.6-0.2-0.8-0.4c-0.3-0.3-0.4-0.7-0.4-1.2c0-0.2,0-0.5,0.1-0.7
		c0.1-0.2,0.3-0.7,0.5-0.7c0.1,0,0.1,0.1,0.1,0.4c0,0.1,0,0.3,0,0.4c0,0.4,0.2,0.6,0.7,0.6h0c0.4,0,0.8-0.3,0.9-0.9
		c0.1-0.2,0.3-1,0.6-1c0.1,0,0.2,0.1,0.2,0.4v0.1c0,0.3,0.1,0.4,0.4,0.4c0,0,0.1,0,0.2,0c0.4-0.1,0.6-0.4,0.7-0.8
		c0.2-0.5,0.3-0.7,0.4-0.7c0.1,0,0.2,0.1,0.2,0.3c0,0.2,0,0.3,0,0.5c0,0.4-0.1,0.8-0.3,1.2c-0.3,0.6-0.7,1.1-1.4,1.1
		c-0.3,0-0.4-0.1-0.6-0.2c-0.1-0.1-0.1-0.1-0.2,0C556.9,8.8,556.5,9.2,556,9.2z M559.2,1c0,0.2,0,0.2,0,0.3c0,0.4-0.1,0.8-0.3,1.2
		c0.2,0.1,0.3,0.2,0.3,0.3c0,0.3-0.1,0.6-0.3,0.9l-0.5-0.3c-0.5,0.8-1,1.3-1.3,1.6c-0.3,0.2-0.9,0.4-1.6,0.4c-0.4,0-0.5-0.1-0.3-0.2
		c1.3-0.8,2.2-1.5,2.7-2.2C557.5,3,557,2.6,557,2.1c0-0.3,0.2-0.7,0.5-1.1c0.3-0.5,0.7-0.7,1-0.7C558.9,0.3,559.1,0.7,559.2,1z
		 M557.7,1.8c0.1,0.2,0.3,0.3,0.7,0.5c0.1-0.1,0.1-0.4,0.1-0.5c0-0.2-0.1-0.4-0.3-0.4C558,1.4,557.8,1.5,557.7,1.8z"/>
	<path class="st0" d="M555.3,23.8h0.2c0.6,0,1-0.2,1.3-0.5c0.5-0.5,0.5-1.1,0.5-1.8c0-1.5-0.1-4.6-0.3-9.2c0-0.5,0.2-1,0.5-1.7
		c0.2-0.3,0.3-0.6,0.5-0.6c0.1,0,0.2,0.2,0.3,0.7c0.2,3.4,0.4,8,0.7,11.3c0.1,0.6,0.4,1.1,0.8,1.4c0.3,0.2,0.6,0.3,0.9,0.3h0.3
		c0.6,0,1,0.4,1,1.1c0,0.8-0.3,1.2-1,1.2h-0.3c-1.4,0-2.4-1-2.8-2.4c-0.3,1.6-1.1,2.4-2.4,2.4h-0.2c-0.7,0-1-0.4-1-1.2
		C554.3,24.2,554.7,23.8,555.3,23.8z"/>
	<path class="st0" d="M568.4,27.3c0.1-0.1,0.1,0,0.1,0.1c0,0.6-0.2,1.1-0.5,1.3l-4.1,2.3c-0.1,0-0.1,0-0.1-0.1c0-0.3,0.1-0.8,0.2-1
		c0.1-0.2,0.3-0.3,0.7-0.5L568.4,27.3z"/>
	<path class="st0" d="M572.8,7.8c0.1-0.1,0.1,0,0.1,0.1c0,0.6-0.2,1.1-0.5,1.3l-4.1,2.3c-0.1,0-0.1,0-0.1-0.1c0-0.3,0.1-0.8,0.2-1
		c0.1-0.2,0.3-0.3,0.7-0.5L572.8,7.8z"/>
	<path class="st0" d="M575.7,21.9c0.1,0,0.1,0.1,0.1,0.1c0,0.3-0.5,1-1.4,1.9c-0.1,0.1-0.1,0.1-0.3,0.1c-1-0.1-2.2-0.3-3-0.3
		c-0.8,0-1.5,0.1-2.3,0.3c-0.7,0.2-1.6,0.5-2.8,0.9c-1.1,0.4-1.9,0.6-2.6,0.8c-0.8,0.2-1.6,0.3-2.6,0.3h-0.3c-0.6,0-0.9-0.4-0.9-1.2
		c0-0.7,0.3-1.1,0.9-1.1h0.3c2,0,4.2-0.3,6.6-1c0,0,0,0-0.2-0.1c-1.4-0.7-3.1-1.1-5.2-1.3c-0.1,0-0.2-0.1-0.1-0.2
		c0.1-0.2,0.4-0.7,0.9-1.2c0.9-0.9,1.8-1.8,3-2.4c1-0.6,2.1-1.1,3.3-1.6l0.1-0.1c-0.2-0.1-0.2-0.4-0.2-0.6c0-0.2,0.1-0.5,0.1-0.7
		c0.3-0.9,0.9-1.8,1.4-1.8c1.5,0,3.1,1.4,3.2,2.1c-0.1,0.7-0.6,2.1-1.4,2.3c-0.4,0.1-1.4,0.3-1.7,0.3c-2,0.3-3.8,1.1-5.7,2.2
		c0.5,0.1,1.1,0.3,1.8,0.5C570.5,21.4,573.5,22,575.7,21.9z"/>
	<path class="st0" d="M586.2,26.1c-0.7,0-1.2-0.1-1.7-0.5c-0.7-0.6-1.1-1.7-1.3-3.1c-0.2-1.1-0.2-2.3-0.3-3.7
		c-0.1-2-0.2-5.1-0.5-6.9c0-0.1,0-0.2,0-0.2c0-0.1,0-0.2,0.2-0.4c0.3-0.5,0.5-0.8,0.7-1.2c0.2-0.3,0.2-0.3,0.3-0.3
		c0.1,0,0.2,0.2,0.3,0.7c0.4,3.5,0.1,8.4,0.6,11.1c0.1,0.7,0.2,0.9,0.4,1.3c0.3,0.6,0.7,0.9,1.4,1c0.8,0,1.2,0.4,1.2,1.1
		c0,0.9-0.4,1.2-1.1,1.2H586.2z"/>
	<path class="st0" d="M589.5,16.9c-0.7,0-1.1-0.7-1.1-1.5c0-0.2,0-0.5,0.1-0.8c0.1-0.2,0.2-0.8,0.5-0.8c0.1,0,0.2,0.2,0.2,0.6v0.3
		c0,0.3,0.2,0.5,0.6,0.5h0c0.5,0,0.8-0.3,0.9-1c0.1-0.3,0.2-1.1,0.6-1.1c0.1,0,0.2,0.2,0.2,0.5c0,0.2,0.1,0.3,0.4,0.3
		c0.5,0,0.8-0.3,0.9-0.8c0.1-0.7,0.2-0.8,0.4-0.8c0.2,0,0.3,0.7,0.3,1.1c0,0.3,0,0.6-0.2,1c-0.2,0.7-0.7,1.2-1.5,1.2
		c-0.2,0-0.4-0.1-0.5-0.1c-0.1-0.1-0.1,0-0.2,0.1C590.8,16.4,590.3,16.9,589.5,16.9z M593.4,10C593.5,9.9,593.5,10,593.4,10
		c0,0.5-0.2,0.9-0.4,1.2c-0.1,0.1-0.2,0.2-0.5,0.3l-4,1.9c0,0-0.1,0-0.1-0.1c0-0.2,0.1-0.5,0.2-0.7c0.2-0.3,0.2-0.4,0.3-0.5
		c0.1-0.1,0.2-0.1,0.3-0.2L593.4,10z"/>
	<path class="st0" d="M586.5,26.1h-0.1c-0.7,0-1-0.4-1-1.2c0-0.7,0.4-1.1,1-1.1h0.1c1.2,0,2.2-0.5,2.9-1.4l1.3-2
		c0.7-1.1,1.7-1.5,2.2-1.5c1.7,0,2.4,2.9,2.4,4.1c0,1-1.1,2.4-1.6,2.4c-0.8,0-2.8-1-3.8-1.9C588.8,25.3,587.7,26.1,586.5,26.1z
		 M591.8,20.9c-0.2,0-0.3,0.1-0.5,0.3c-0.1,0.1-0.2,0.3-0.3,0.5c0.5,0.3,1.9,1,2.5,1.4C593.4,22.3,592.4,20.9,591.8,20.9z"/>
	<path class="st0" d="M600.8,0c0.1-0.1,0.1,0,0.1,0.1c0,0.6-0.2,1.1-0.5,1.3l-4.1,2.3c-0.1,0-0.1,0-0.1-0.1c0-0.3,0.1-0.8,0.2-1
		c0.1-0.2,0.3-0.3,0.7-0.5L600.8,0z"/>
	<path class="st0" d="M600.5,7.7c-0.8,0.4-2.6,1.5-4,2.5c-0.1,0-0.1,0-0.1,0c0,0-0.1,0-0.1-0.1c0-0.1,0.1-0.3,0.2-0.7
		c0.1-0.2,0.5-0.6,0.8-0.9c0,0,0.1-0.1,0.1-0.1c0,0,0-0.1-0.1-0.1c-0.6-0.2-0.9-0.4-0.9-0.9c0-0.1,0-0.1,0-0.2c0-0.9,1-2.2,1.8-2.9
		c0.3-0.3,0.7-0.4,1-0.4c0.5,0,0.8,0.3,0.8,0.7c0,0.3-0.1,0.6-0.2,1c-0.1,0.2-0.2,0.4-0.3,0.4c-0.1,0-0.2-0.1-0.3-0.2
		c-0.1-0.1-0.3-0.3-0.6-0.3c-0.8,0-1.3,0.5-1.3,0.7c0,0.3,1.3,0.8,1.8,0.8c0.1,0,0.1,0,0.1,0c0.2-0.1,1.1-0.4,1.5-0.6
		c0.2-0.1,0.3-0.2,0.3-0.2c0,0,0.1,0,0.1,0.1c0,0.1-0.1,0.2-0.1,0.4C600.8,7.5,600.7,7.6,600.5,7.7z M599,26.1
		c-0.1,0-0.2-0.2-0.2-0.7c0-3-1.1-11.3-1.1-12.7c0-0.7,0.5-1.7,0.9-2.5c0.1-0.2,0.3-0.5,0.5-0.5c0.1,0,0.2,0.2,0.2,0.8
		c0.1,2.2,0.7,7.3,0.7,11c0,1.5-0.1,2.7-0.4,3.5C599.4,25.8,599.2,26.1,599,26.1z"/>
	<path class="st0" d="M610.2,18.7c0.3,0.3,0.4,0.7,0.4,1.1c0,0.2-0.1,0.7-0.4,0.9c-0.3,0.3-0.7,0.4-1.1,0.4c-0.3,0-0.7-0.1-0.9-0.4
		c-0.3-0.3-0.4-0.6-0.4-1c0-0.4,0.2-0.8,0.4-1c0.3-0.2,0.6-0.4,1-0.4C609.6,18.3,610,18.5,610.2,18.7z M610.2,23.9
		c0.3,0.3,0.4,0.8,0.4,1.1c0,0.3-0.1,0.7-0.4,1c-0.3,0.3-0.7,0.4-1.1,0.4c-0.3,0-0.6-0.2-0.9-0.4c-0.3-0.3-0.4-0.6-0.4-1
		c0-0.3,0.2-0.7,0.4-1c0.3-0.3,0.6-0.4,1-0.4C609.6,23.6,610,23.7,610.2,23.9z"/>
	<path class="st1" d="M622.2,26.1c-0.7,0-1.2-0.1-1.7-0.5c-0.7-0.6-1.1-1.7-1.3-3.1c-0.2-1.1-0.2-2.3-0.3-3.7
		c-0.1-2-0.2-5.1-0.5-6.9c0-0.1,0-0.2,0-0.2c0-0.1,0-0.2,0.2-0.4c0.3-0.5,0.5-0.8,0.7-1.2c0.2-0.3,0.2-0.3,0.3-0.3
		c0.1,0,0.2,0.2,0.3,0.7c0.4,3.5,0.1,8.4,0.6,11.1c0.1,0.7,0.2,0.9,0.4,1.3c0.3,0.6,0.7,0.9,1.4,1c0.8,0,1.2,0.4,1.2,1.1
		c0,0.9-0.4,1.2-1.1,1.2H622.2z"/>
	<path class="st1" d="M622.4,23.8c0.4,0,1,0,1.7-0.1c1.2-3.4,3.3-5.1,3.9-5.1c0.4,0,0.7,0.7,0.7,1.7c0,1.1-0.4,2.5-1.4,3.5h3.4
		c0.7,0,1.1,0.4,1.1,1.1c0,0.8-0.4,1.2-1.1,1.2h-1.4c0.3,0.4,0.4,1,0.4,2c0,0.7-0.9,2.7-1.8,2.8c-0.2,0-0.5,0.1-0.7,0.1
		c-2.6,0-3.5-2.8-3.6-4.5c-0.4,0.1-0.6,0.1-0.9,0.2c-0.1,0-0.1,0-0.1-0.1l0.1-0.4h-0.6c-0.7,0-1-0.4-1-1.2c0-0.8,0.3-1.1,1-1.1
		H622.4z M627.6,22.1c0-0.5-0.5-1.2-0.7-1.2c-0.4,0-1.2,1.2-1.9,2.7c0.7-0.2,2-0.5,2.5-1.3C627.6,22.3,627.6,22.2,627.6,22.1z
		 M627.9,28.6c0.2,0,0.4,0,0.6-0.1c0-0.9-1.1-1.8-3.2-2.2l-0.2,0C625.5,27.3,626.1,28.6,627.9,28.6z"/>
	<path class="st1" d="M631,9.2c0,0-0.1,0-0.1,0c-0.3,0-0.6-0.2-0.8-0.4c-0.3-0.3-0.4-0.7-0.4-1.2c0-0.2,0-0.5,0.1-0.7
		c0.1-0.2,0.3-0.7,0.5-0.7c0.1,0,0.1,0.1,0.1,0.4c0,0.1,0,0.3,0,0.4c0,0.4,0.2,0.6,0.7,0.6h0c0.4,0,0.8-0.3,0.9-0.9
		c0.1-0.2,0.3-1,0.6-1c0.1,0,0.2,0.1,0.2,0.4v0.1c0,0.3,0.1,0.4,0.4,0.4c0,0,0.1,0,0.2,0c0.4-0.1,0.6-0.4,0.7-0.8
		c0.2-0.5,0.3-0.7,0.4-0.7c0.1,0,0.2,0.1,0.2,0.3c0,0.2,0,0.3,0,0.5c0,0.4-0.1,0.8-0.3,1.2c-0.3,0.6-0.7,1.1-1.4,1.1
		c-0.3,0-0.4-0.1-0.6-0.2c-0.1-0.1-0.1-0.1-0.2,0C632,8.8,631.5,9.2,631,9.2z M634.2,1c0,0.2,0,0.2,0,0.3c0,0.4-0.1,0.8-0.3,1.2
		c0.2,0.1,0.3,0.2,0.3,0.3c0,0.3-0.1,0.6-0.3,0.9l-0.5-0.3c-0.5,0.8-1,1.3-1.3,1.6c-0.3,0.2-0.9,0.4-1.6,0.4c-0.4,0-0.5-0.1-0.3-0.2
		c1.3-0.8,2.2-1.5,2.7-2.2C632.5,3,632,2.6,632,2.1c0-0.3,0.2-0.7,0.5-1.1c0.3-0.5,0.7-0.7,1-0.7C634,0.3,634.2,0.7,634.2,1z
		 M632.7,1.8c0.1,0.2,0.3,0.3,0.7,0.5c0.1-0.1,0.1-0.4,0.1-0.5c0-0.2-0.1-0.4-0.3-0.4C633,1.4,632.8,1.5,632.7,1.8z"/>
	<path class="st1" d="M630.4,23.8h0.2c0.6,0,1-0.2,1.3-0.5c0.5-0.5,0.5-1.1,0.5-1.8c0-1.5-0.1-4.6-0.3-9.2c0-0.5,0.2-1,0.5-1.7
		c0.2-0.3,0.3-0.6,0.5-0.6c0.1,0,0.2,0.2,0.3,0.7c0.2,3.4,0.4,8,0.7,11.3c0.1,0.6,0.4,1.1,0.8,1.4c0.3,0.2,0.6,0.3,0.9,0.3h0.3
		c0.6,0,1,0.4,1,1.1c0,0.8-0.3,1.2-1,1.2h-0.3c-1.4,0-2.4-1-2.8-2.4c-0.3,1.6-1.1,2.4-2.4,2.4h-0.2c-0.7,0-1-0.4-1-1.2
		C629.3,24.2,629.7,23.8,630.4,23.8z"/>
	<path class="st1" d="M643.5,27.3c0.1-0.1,0.1,0,0.1,0.1c0,0.6-0.2,1.1-0.5,1.3l-4.1,2.3c-0.1,0-0.1,0-0.1-0.1c0-0.3,0.1-0.8,0.2-1
		c0.1-0.2,0.3-0.3,0.7-0.5L643.5,27.3z"/>
	<path class="st1" d="M647.8,7.8c0.1-0.1,0.1,0,0.1,0.1c0,0.6-0.2,1.1-0.5,1.3l-4.1,2.3c-0.1,0-0.1,0-0.1-0.1c0-0.3,0.1-0.8,0.2-1
		c0.1-0.2,0.3-0.3,0.7-0.5L647.8,7.8z"/>
	<path class="st1" d="M650.8,21.9c0.1,0,0.1,0.1,0.1,0.1c0,0.3-0.5,1-1.4,1.9c-0.1,0.1-0.1,0.1-0.3,0.1c-1-0.1-2.2-0.3-3-0.3
		c-0.8,0-1.5,0.1-2.3,0.3c-0.7,0.2-1.6,0.5-2.8,0.9c-1.1,0.4-1.9,0.6-2.6,0.8c-0.8,0.2-1.6,0.3-2.6,0.3h-0.3c-0.6,0-0.9-0.4-0.9-1.2
		c0-0.7,0.3-1.1,0.9-1.1h0.3c2,0,4.2-0.3,6.6-1c0,0,0,0-0.2-0.1c-1.4-0.7-3.1-1.1-5.2-1.3c-0.1,0-0.2-0.1-0.1-0.2
		c0.1-0.2,0.4-0.7,0.9-1.2c0.9-0.9,1.8-1.8,3-2.4c1-0.6,2.1-1.1,3.3-1.6l0.1-0.1c-0.2-0.1-0.2-0.4-0.2-0.6c0-0.2,0.1-0.5,0.1-0.7
		c0.3-0.9,0.9-1.8,1.4-1.8c1.5,0,3.1,1.4,3.2,2.1c-0.1,0.7-0.6,2.1-1.4,2.3c-0.4,0.1-1.4,0.3-1.7,0.3c-2,0.3-3.8,1.1-5.7,2.2
		c0.5,0.1,1.1,0.3,1.8,0.5C645.6,21.4,648.5,22,650.8,21.9z"/>
	<path class="st0" d="M599.2,75.9c0.4,0.3,0.4,0.8,0.4,1.1c0,0.3-0.1,0.7-0.4,1c-0.3,0.3-0.7,0.4-1.1,0.4c-0.3,0-0.7-0.1-0.9-0.4
		c-0.3-0.3-0.4-0.7-0.4-1.1c0-0.4,0.2-0.7,0.4-1c0.3-0.2,0.6-0.4,1-0.4C598.6,75.5,599,75.7,599.2,75.9z"/>
	<path class="st0" d="M609.2,62.9c0,0.5-0.1,1-0.3,1.5c0.2,0.1,0.4,0.3,0.4,0.4c0,0.4-0.2,0.7-0.3,1c-0.1,0.1-0.1,0.1-0.1,0.1
		l-0.5-0.3c-0.5,0.8-1.3,1.8-2.5,2.3c-0.4,0.2-0.9,0.4-1.5,0.4c-0.3,0-0.4-0.1-0.4-0.1c0-0.1,0.2-0.2,0.6-0.4
		c0.9-0.5,2.5-1.8,3.1-2.5c-0.5-0.3-1.1-0.7-1.1-1.4c0-0.4,0.2-0.9,0.6-1.3c0.4-0.5,0.8-0.8,1.2-0.8C609,61.7,609.2,62.4,609.2,62.9
		z M607.4,63.4C607.4,63.4,607.3,63.4,607.4,63.4c0,0.2,0.4,0.5,0.8,0.7c0.1-0.2,0.1-0.4,0.1-0.7c0-0.3-0.1-0.4-0.3-0.4
		C607.8,62.9,607.5,63.1,607.4,63.4z"/>
	<path class="st0" d="M609.3,70.2c0.1,0.1,0.1,0.1,0,0.2c-0.2,0.3-1.1,1.2-1.4,1.7c-0.1,0.1-0.1,0.1-0.2,0c-0.5-0.3-1.5-1-1.7-1.4
		c-0.1-0.1-0.1-0.1,0-0.2c0.3-0.5,0.9-1.2,1.3-1.6c0.2-0.2,0.2-0.2,0.3-0.1C607.8,69.1,608.6,69.8,609.3,70.2z"/>
	<path class="st0" d="M616.1,84.4c0.2-0.2,0.2-0.2,0.3-0.1c0.5,0.5,1,1.1,1.5,1.4c0.2,0.1,0.2,0.2,0,0.3c-0.5,0.5-0.9,1-1.3,1.5
		c-0.1,0.1-0.2,0.1-0.3,0c-0.4-0.3-0.9-0.7-1.4-1.2c-0.3,0.3-0.9,1-1.1,1.2c-0.1,0.1-0.2,0.2-0.4,0c-0.5-0.3-1.1-0.9-1.5-1.4
		c-0.1-0.1-0.1-0.2,0-0.3c0.4-0.5,0.9-1,1.4-1.5c0.1-0.1,0.2-0.1,0.3,0.1c0.4,0.4,1,1,1.4,1.2C615.3,85.2,615.9,84.6,616.1,84.4z"/>
	<path class="st0" d="M616.7,74.8c0,2-1.5,3.2-2.9,3.2h-0.2c0,0.1,0,0.4,0,0.7c0,0.3,0,0.6,0,1c0,0.8-0.2,1.4-0.4,1.9
		c-0.4,1-0.7,1.4-1.2,1.9c-1.7,1.7-4,2.3-6.4,2.3c-1.4,0-2.6-0.4-3.5-1.5c-0.5-0.6-0.9-1.7-0.9-2.9c0-1.4,0.5-2.7,1.2-3.8
		c0.3-0.4,0.5-0.6,0.7-0.6c0.1,0,0.1,0.1,0.1,0.2c0,0.1-0.1,0.4-0.3,0.7c-0.7,1.3-0.8,2.1-0.8,2.7c0,0.9,0.6,1.6,1.4,2.1
		c0.8,0.5,1.8,0.8,2.7,0.8c2.4,0,5.7-1,6.4-2.7c-0.1-1.7-0.4-2.3-1-3.8c0,0,0-0.1,0-0.2c0-0.5,0.3-1.3,0.6-1.9
		c0-0.1,0.1-0.2,0.2-0.2c0.1,0,0.1,0.1,0.2,0.1c0.5,0.6,0.9,0.9,1.4,1c0.1,0,0.1,0,0.2,0c0.8,0,1.5-0.6,1.7-1.6
		c0.1-0.5,0.2-0.7,0.3-0.7c0.2,0,0.4,0.4,0.5,1C616.7,74.6,616.7,74.7,616.7,74.8z"/>
	<path class="st0" d="M617.8,84.1c-0.3-0.2-0.4-0.3-0.4-0.4c0-0.1,0.2-0.2,0.4-0.2c0.3,0,1.1,0.2,1.8,0.2c0.6,0,1.2-0.2,2.1-0.6
		c2.4-1.2,3.9-3,3.9-4.2c0-0.2,0-0.3-0.1-0.7h-0.7c-0.5,0-1.5-0.1-2.2-0.5c-0.7-0.4-1-0.9-1-1.5c0-0.6,0.3-1.4,0.6-2.2
		c0.6-1.3,1.2-2.2,1.9-2.2c0.7,0,1.3,0.5,1.8,1.1c0.5,0.7,0.7,1.8,0.7,2.8h1c0.6,0,0.9,0.3,0.9,1c0,0.8-0.3,1.2-0.9,1.2l-1.1,0.1
		c-0.2,3.5-1.3,5.8-4.1,6.9c-0.2,0.1-0.4,0.1-0.6,0.1C620.8,85.1,619.2,84.7,617.8,84.1z M624.1,74.4c-0.1-0.1-0.3-0.2-0.6-0.2
		c-0.5,0-0.8,0.5-0.8,0.8c0,0.2,0.2,0.5,0.8,0.7c0.4,0.2,0.9,0.2,1.1,0.2c0.2,0,0.2,0,0.2-0.1C624.9,75.5,624.5,74.8,624.1,74.4z"/>
	<path class="st0" d="M632.1,74.5c0,0.6,0.6,1.2,1.4,1.4c0.2,0,0.3,0,0.5,0h0.1c0.9,0,0.9,0.7,0.9,1c0,0.3,0,1.3-0.8,1.3h-0.2
		c-0.2,0-0.3,0-0.6,0c-1.5-0.2-2.1-1.5-2.2-1.7c-0.2,0.6-1.5,1.7-3.7,1.7h-0.1c-0.6,0-1-0.6-1-1.1c0-0.6,0.3-1.1,1-1.1h0.7
		c1,0,2.4-0.2,3.3-1.6c0.3-0.5,0.4-0.5,0.5-0.5C632,73.7,632.1,73.9,632.1,74.5z M632.9,68.6c0.1,0.1,0.1,0.1,0,0.2
		c-0.2,0.3-1.1,1.2-1.4,1.7c-0.1,0.1-0.1,0.1-0.2,0c-0.5-0.3-1.5-1-1.7-1.4c-0.1-0.1-0.1-0.1,0-0.2c0.3-0.5,0.9-1.2,1.3-1.6
		c0.2-0.2,0.2-0.2,0.3-0.1C631.5,67.5,632.2,68.2,632.9,68.6z"/>
	<path class="st0" d="M635.5,65.9c-0.7,0-1.1-0.7-1.1-1.5c0-0.2,0-0.5,0.1-0.8c0.1-0.2,0.2-0.8,0.5-0.8c0.1,0,0.2,0.2,0.2,0.6v0.3
		c0,0.3,0.2,0.5,0.6,0.5h0c0.5,0,0.8-0.3,0.9-1c0.1-0.3,0.2-1.1,0.6-1.1c0.1,0,0.2,0.2,0.2,0.5c0,0.2,0.1,0.3,0.4,0.3
		c0.5,0,0.8-0.3,0.9-0.8c0.1-0.7,0.2-0.8,0.4-0.8c0.2,0,0.3,0.7,0.3,1.1c0,0.3,0,0.6-0.2,1c-0.2,0.7-0.7,1.2-1.5,1.2
		c-0.2,0-0.4-0.1-0.5-0.1c-0.1-0.1-0.1,0-0.2,0.1C636.7,65.4,636.2,65.9,635.5,65.9z M639.4,59C639.5,58.9,639.4,59,639.4,59
		c0,0.5-0.2,0.9-0.4,1.2c-0.1,0.1-0.2,0.2-0.5,0.3l-4,1.9c0,0-0.1,0-0.1-0.1c0-0.2,0.1-0.5,0.2-0.7c0.2-0.3,0.2-0.4,0.3-0.5
		c0.1-0.1,0.2-0.1,0.3-0.2L639.4,59z"/>
	<path class="st0" d="M638.8,74.5c0,0.6,0.6,1.2,1.4,1.4c0.2,0,0.3,0,0.5,0h0.1c0.9,0,0.9,0.7,0.9,1c0,0.3,0,1.3-0.8,1.3h-0.2
		c-0.2,0-0.3,0-0.6,0c-1.5-0.2-2.1-1.5-2.2-1.7c-0.2,0.6-1.5,1.7-3.7,1.7h-0.1c-0.6,0-1-0.6-1-1.1c0-0.6,0.3-1.1,1-1.1h0.7
		c1,0,2.4-0.2,3.3-1.6c0.3-0.5,0.4-0.5,0.5-0.5C638.7,73.7,638.8,73.9,638.8,74.5z M638.5,67.6c0.2-0.2,0.2-0.2,0.3-0.1
		c0.5,0.5,1,1.1,1.5,1.4c0.2,0.1,0.2,0.2,0,0.3c-0.5,0.5-0.9,1-1.3,1.5c-0.1,0.1-0.2,0.1-0.3,0c-0.4-0.3-0.9-0.7-1.4-1.2
		c-0.3,0.3-0.9,1-1.1,1.2c-0.1,0.1-0.2,0.2-0.4,0c-0.5-0.3-1.1-0.9-1.5-1.4c-0.1-0.1-0.1-0.2,0-0.3c0.4-0.5,0.9-1,1.4-1.5
		c0.1-0.1,0.2-0.1,0.3,0.1c0.4,0.4,1,1,1.4,1.2C637.7,68.5,638.3,67.9,638.5,67.6z"/>
	<path class="st0" d="M643.1,77.1c-0.5,0.7-1.2,1-2.3,1h-0.2c-0.7,0-1-0.4-1-1.2c0-0.7,0.3-1.1,1-1.1h0.2c0.5,0,1-0.1,1.5-0.2
		c0.4-0.1,0.6-0.3,0.7-0.4c0-1.7-0.6-5.4-0.9-8.9c0-0.4-0.3-1.6-0.4-2.1c0-0.1,0-0.2,0-0.2c0-0.3,0.3-0.9,0.5-1.3
		c0.3-0.5,0.5-0.9,0.7-0.9c0.1,0,0.1,0.1,0.2,0.2c0.3,1,0.6,1.5,0.8,1.8c0.1,0.1,0.1,0.2,0.1,0.3c0,0,0,0.1,0,0.1
		c-0.1,0.2-0.4,0.8-0.6,1.1c0.2,3.4,0.7,6.2,0.7,7.8C644.1,74.8,643.8,76.1,643.1,77.1z"/>
	<path class="st0" d="M648.7,78.1c-0.1,0-0.2-0.2-0.2-0.7c0-3-1.1-11.3-1.1-12.7c0-0.7,0.5-1.7,0.9-2.5c0.1-0.2,0.3-0.5,0.5-0.5
		c0.1,0,0.2,0.2,0.2,0.8c0.1,2.2,0.7,7.3,0.7,11c0,1.5-0.1,2.7-0.4,3.5C649,77.8,648.9,78.1,648.7,78.1z"/>
	<g>
		<g>
			<circle class="st2" cx="678.6" cy="18.1" r="9.1"/>
		</g>
		<g>
			<linearGradient id="SVGID_1_" gradientUnits="userSpaceOnUse" x1="678.5586" y1="27.2381" x2="678.5586" y2="14.4988">
				<stop  offset="0" style="stop-color:#B1650C;stop-opacity:0"/>
				<stop  offset="0.1413" style="stop-color:#B1650C;stop-opacity:0.1413"/>
				<stop  offset="1" style="stop-color:#B1650C"/>
			</linearGradient>
			<path class="st3" d="M678.6,20.4c-4.8,0-8.8-1.1-9.1-5.9c0,0.2,0,3.4,0,3.6c0,5,4.1,9.1,9.1,9.1s9.1-4.1,9.1-9.1
				c0-0.2,0-3.4,0-3.6C687.4,19.3,683.4,20.4,678.6,20.4z"/>
		</g>
		<g>
			<ellipse class="st4" cx="678.6" cy="13.9" rx="6.6" ry="4.7"/>
		</g>
		<ellipse class="st5" cx="678.3" cy="10" rx="1.3" ry="0.8"/>
		<g>
			<circle class="st6" cx="678.6" cy="18.2" r="5.6"/>
			<circle class="st6" cx="678.6" cy="17" r="5.6"/>
			<linearGradient id="SVGID_2_" gradientUnits="userSpaceOnUse" x1="678.5586" y1="22.5486" x2="678.5586" y2="11.4324">
				<stop  offset="0" style="stop-color:#428D6B"/>
				<stop  offset="0.2212" style="stop-color:#2E7568"/>
				<stop  offset="0.5194" style="stop-color:#195B65"/>
				<stop  offset="0.7881" style="stop-color:#0C4B63"/>
				<stop  offset="1" style="stop-color:#084662"/>
			</linearGradient>
			<circle class="st7" cx="678.6" cy="17" r="5.6"/>
			<linearGradient id="SVGID_3_" gradientUnits="userSpaceOnUse" x1="678.5586" y1="17.9705" x2="678.5586" y2="12.4129">
				<stop  offset="0" style="stop-color:#FFC27A;stop-opacity:0"/>
				<stop  offset="1" style="stop-color:#FFC27A"/>
			</linearGradient>
			<circle class="st8" cx="678.6" cy="15.2" r="2.8"/>
			<linearGradient id="SVGID_4_" gradientUnits="userSpaceOnUse" x1="678.5586" y1="17.9705" x2="678.5586" y2="12.4129">
				<stop  offset="0" style="stop-color:#FFC27A;stop-opacity:0"/>
				<stop  offset="1" style="stop-color:#FFC27A"/>
			</linearGradient>
			<circle class="st9" cx="678.6" cy="15.2" r="2.8"/>
		</g>
		<ellipse class="st0" cx="678.4" cy="13.6" rx="1.2" ry="0.8"/>
	</g>
</g>
</svg>
