<?xml version="1.0" encoding="utf-8"?>
<!-- Generator: Adobe Illustrator 19.2.0, SVG Export Plug-In . SVG Version: 6.00 Build 0)  -->
<svg version="1.1" id="Layer_1" xmlns="http://www.w3.org/2000/svg" xmlns:xlink="http://www.w3.org/1999/xlink" x="0px" y="0px"
	 viewBox="0 0 636.7 40.1" style="enable-background:new 0 0 636.7 40.1;" xml:space="preserve">
<style type="text/css">
	.st0{fill:#FFFFFF;}
	.st1{fill:#F7931E;}
	.st2{fill:#BF8138;}
	.st3{fill:url(#SVGID_1_);}
	.st4{fill:#F2C671;}
	.st5{opacity:0.5;fill:#FFFFFF;}
	.st6{fill:none;stroke:#002640;stroke-width:2.398;stroke-linecap:round;stroke-linejoin:round;stroke-miterlimit:10;}
	.st7{fill:url(#SVGID_2_);}
	.st8{fill:url(#SVGID_3_);}
	.st9{fill:url(#SVGID_4_);}
</style>
<g>
	<path class="st0" d="M2.4,22.8c0.4,0.3,0.4,0.8,0.4,1.1c0,0.3-0.1,0.7-0.4,1c-0.3,0.3-0.7,0.4-1.1,0.4c-0.3,0-0.7-0.1-0.9-0.4
		C0.1,24.7,0,24.3,0,23.9c0-0.4,0.2-0.7,0.4-1c0.3-0.2,0.6-0.4,1-0.4S2.1,22.6,2.4,22.8z"/>
	<path class="st0" d="M21.9,32.2c0.1-0.1,0.1,0,0.1,0.1c0,0.6-0.2,1.1-0.5,1.3l-4.1,2.3c-0.1,0-0.1,0-0.1-0.1c0-0.3,0.1-0.8,0.2-1
		c0.1-0.2,0.3-0.3,0.7-0.5L21.9,32.2z"/>
	<path class="st0" d="M11,24.1c0.2-0.4,0.5-0.7,0.7-0.7c0.1,0,0.1,0.1,0.1,0.2c0,0.2-0.1,0.4-0.2,0.6c-0.5,1.1-0.7,1.8-0.7,2.4
		c0,1.9,2.2,3.1,3.9,3.1c2.7,0,6.2-1.1,7-2.9c0.1-0.2,0.1-0.5,0.1-0.7c0-0.4-0.1-0.7-0.1-0.9c-0.2,0-0.3,0-0.6,0
		c-0.6,0-1.6-0.1-2.3-0.4c-0.7-0.4-1-0.9-1-1.5c0-0.6,0.3-1.5,0.6-2.2c0.5-1.1,1.2-2.2,1.8-2.2c1.5,0,2.4,1.9,2.5,4h0.9
		c0.6,0,0.9,0.3,0.9,1c0,0.8-0.3,1.2-0.9,1.2l-1,0c-0.2,1-0.3,1.7-0.5,2.4c-0.1,0.3-0.2,0.7-0.4,1c-0.9,1.8-3.9,3.5-7,3.5
		c-2.7,0-4.9-1.2-4.9-4.2C10,26.7,10.3,25.2,11,24.1z M21.3,13.3c0.2-0.2,0.2-0.2,0.3-0.1c0.5,0.5,1,1.1,1.5,1.4
		c0.2,0.1,0.2,0.2,0,0.3c-0.5,0.5-0.9,1-1.3,1.5c-0.1,0.1-0.2,0.1-0.3,0c-0.4-0.3-0.9-0.7-1.4-1.2c-0.3,0.3-0.9,1-1.1,1.2
		c-0.1,0.1-0.2,0.2-0.4,0c-0.5-0.3-1.1-0.9-1.5-1.4c-0.1-0.1-0.1-0.2,0-0.3c0.4-0.5,0.9-1,1.4-1.5c0.1-0.1,0.2-0.1,0.3,0.1
		c0.4,0.4,1,1,1.4,1.2C20.5,14.1,21,13.5,21.3,13.3z M20.3,21.3c-0.2-0.1-0.3-0.2-0.5-0.2c-0.4,0-0.7,0.5-0.7,0.8
		c0,0.2,0.3,0.5,0.8,0.7c0.4,0.2,0.9,0.2,1.2,0.2c0.2,0,0.2,0,0.2-0.1C21.2,22.5,20.8,21.7,20.3,21.3z"/>
	<path class="st0" d="M28.3,21.4c0,0.6,0.6,1.2,1.4,1.4c0.2,0,0.3,0,0.5,0h0.1c0.9,0,0.9,0.7,0.9,1c0,0.3,0,1.3-0.8,1.3h-0.2
		c-0.2,0-0.3,0-0.6,0c-1.5-0.2-2.1-1.5-2.2-1.7c-0.2,0.6-1.5,1.7-3.7,1.7h-0.1c-0.6,0-1-0.6-1-1.1s0.3-1.1,1-1.1h0.7
		c1,0,2.4-0.2,3.3-1.6c0.3-0.5,0.4-0.5,0.5-0.5C28.2,20.7,28.3,20.9,28.3,21.4z M28.1,28.2c0.2-0.2,0.2-0.2,0.3-0.1
		c0.5,0.5,1,1.1,1.5,1.4c0.2,0.1,0.2,0.2,0,0.3c-0.5,0.5-0.9,1-1.3,1.5c-0.1,0.1-0.2,0.1-0.3,0c-0.4-0.3-0.9-0.7-1.4-1.2
		c-0.3,0.3-0.9,1-1.1,1.2c-0.1,0.1-0.2,0.2-0.4,0c-0.5-0.3-1.1-0.9-1.5-1.4c-0.1-0.1-0.1-0.2,0-0.3c0.4-0.5,0.9-1,1.4-1.5
		c0.1-0.1,0.2-0.1,0.3,0.1c0.4,0.4,1,1,1.4,1.2C27.3,29,27.9,28.4,28.1,28.2z"/>
	<path class="st0" d="M35.9,19.9c0,1.2-0.4,2.9-0.9,3.7c-0.2,0.3-0.9,0.7-1.4,0.8c-1.4,0.4-2.5,0.6-3.3,0.6h-0.2c-0.6,0-1-0.4-1-1.2
		c0-0.7,0.3-1.1,1-1.1h0.2c1.3,0,2.8-0.2,3.7-0.5c0.8-0.3,0.9-0.3,0.9-1.1c0-0.5-0.1-0.8-0.3-1.3c-0.2,0.5-0.9,1-1.8,1
		c-1.1,0-1.8-0.7-1.8-2c0-1.8,1.4-4.1,2-4.1C34.8,14.8,35.9,18.3,35.9,19.9z M34.5,9.3c0.2-0.2,0.2-0.2,0.3-0.1
		c0.5,0.5,1,1.1,1.5,1.4c0.2,0.1,0.2,0.2,0,0.3c-0.5,0.5-0.9,1-1.3,1.5c-0.1,0.1-0.2,0.1-0.3,0c-0.4-0.3-0.9-0.7-1.4-1.2
		c-0.3,0.3-0.9,1-1.1,1.2c-0.1,0.1-0.2,0.2-0.4,0c-0.5-0.3-1.1-0.9-1.5-1.4c-0.1-0.1-0.1-0.2,0-0.3c0.4-0.5,0.9-1,1.4-1.5
		c0.1-0.1,0.2-0.1,0.3,0.1c0.4,0.4,1,1,1.4,1.2C33.7,10.2,34.3,9.6,34.5,9.3z M33.4,17.3c-0.2-0.2-0.5-0.3-0.7-0.3
		c-0.2,0-0.4,0.1-0.5,0.4C32,17.7,32,17.9,32,18c0,0.5,0.5,0.6,1,0.6c0.5,0,0.9-0.2,0.9-0.5C33.9,18.1,33.7,17.6,33.4,17.3z"/>
	<path class="st0" d="M43.8,11.4c-0.7,0-1.1-0.7-1.1-1.5c0-0.2,0-0.5,0.1-0.8c0.1-0.2,0.2-0.8,0.5-0.8c0.1,0,0.2,0.2,0.2,0.6v0.3
		c0,0.3,0.2,0.5,0.6,0.5h0c0.5,0,0.8-0.3,0.9-1c0.1-0.3,0.2-1.1,0.6-1.1c0.1,0,0.2,0.2,0.2,0.5c0,0.2,0.1,0.3,0.4,0.3
		c0.5,0,0.8-0.3,0.9-0.8c0.1-0.7,0.2-0.8,0.4-0.8c0.2,0,0.3,0.7,0.3,1.1c0,0.3,0,0.6-0.2,1c-0.2,0.7-0.7,1.2-1.5,1.2
		c-0.2,0-0.4-0.1-0.5-0.1c-0.1-0.1-0.1,0-0.2,0.1C45,10.9,44.6,11.4,43.8,11.4z M47.7,4.5C47.8,4.5,47.8,4.6,47.7,4.5
		c0,0.5-0.2,0.9-0.4,1.2c-0.1,0.1-0.2,0.2-0.5,0.3l-4,1.9c0,0-0.1,0-0.1-0.1c0-0.2,0.1-0.5,0.2-0.7c0.2-0.3,0.2-0.4,0.3-0.5
		c0.1-0.1,0.2-0.1,0.3-0.2L47.7,4.5z"/>
	<path class="st0" d="M46.8,12.4c0.2-0.2,0.2-0.2,0.3-0.1c0.5,0.5,1,1.1,1.5,1.4c0.2,0.1,0.2,0.2,0,0.3c-0.5,0.5-0.9,1-1.3,1.5
		c-0.1,0.1-0.2,0.1-0.3,0c-0.4-0.3-0.9-0.7-1.4-1.2c-0.3,0.3-0.9,1-1.1,1.2c-0.1,0.1-0.2,0.2-0.4,0c-0.5-0.3-1.1-0.9-1.5-1.4
		c-0.1-0.1-0.1-0.2,0-0.3c0.4-0.5,0.9-1,1.4-1.5c0.1-0.1,0.2-0.1,0.3,0.1c0.4,0.4,1,1,1.4,1.2C46,13.2,46.6,12.6,46.8,12.4z"/>
	<path class="st0" d="M42.5,22.8c0.1,0.7,0.1,1,0.1,1.4c0,3.5-1.5,6.1-4.2,7.2c-0.1,0.1-0.3,0.1-0.5,0.1c-1,0-2.7-0.4-4.1-1
		c-0.4-0.2-0.4-0.3-0.4-0.4c0-0.2,0.2-0.2,0.6-0.2c1.6,0.2,2.1,0.3,3.7-0.4c1.3-0.6,4-2.8,4-4.4c0-0.4-0.1-0.8-0.3-1.3
		c-0.2-0.5-0.9-1.5-1.5-2.4c0,0,0-0.1,0-0.3c0-0.2,0.1-0.5,0.3-0.9c0.2-0.7,0.4-1,0.5-1c0.1,0,0.3,0.2,0.6,0.7
		c0.2,0.3,0.3,0.5,0.5,0.6c0.2,0.2,0.5,0.2,0.8,0.2c0.6,0,1.4-0.2,1.9-0.8c0.4-0.5,0.7-1.1,0.9-1.4c0.1-0.1,0.2-0.3,0.3-0.3
		c0.1,0,0.2,0.2,0.3,0.5c0.1,0.3,0.2,0.8,0.3,1.6c0.1,0.8,0.4,1.4,0.7,1.9c0.3,0.5,0.7,0.8,1.2,0.8h0.4c0.6,0,0.9,0.4,0.9,1.1
		c0,0.8-0.3,1.2-1,1.2h-0.4c-0.8,0-1.8-0.6-2.2-1.4c-0.2-0.4-0.4-1-0.5-1.8c-0.1-0.8-0.2-1.3-0.3-1.3C44.8,22.1,44,22.8,42.5,22.8z"
		/>
	<path class="st0" d="M50.7,24c-0.5,0.7-1.2,1-2.3,1h-0.2c-0.7,0-1-0.4-1-1.2c0-0.7,0.3-1.1,1-1.1h0.2c0.5,0,1-0.1,1.5-0.2
		c0.4-0.1,0.6-0.3,0.7-0.4c0-1.7-0.6-5.4-0.9-8.9c0-0.4-0.3-1.6-0.4-2.1c0-0.1,0-0.2,0-0.2c0-0.3,0.3-0.9,0.5-1.3
		c0.3-0.5,0.5-0.9,0.7-0.9c0.1,0,0.1,0.1,0.2,0.2c0.3,1,0.6,1.5,0.8,1.8c0.1,0.1,0.1,0.2,0.1,0.3c0,0,0,0.1,0,0.1
		c-0.1,0.2-0.4,0.8-0.6,1.1c0.2,3.4,0.7,6.2,0.7,7.8C51.7,21.7,51.4,23,50.7,24z"/>
	<path class="st0" d="M56.3,25.1c-0.1,0-0.2-0.2-0.2-0.7c0-3-1.1-11.3-1.1-12.7c0-0.7,0.5-1.7,0.9-2.5c0.1-0.2,0.3-0.5,0.5-0.5
		c0.1,0,0.2,0.2,0.2,0.8c0.1,2.2,0.7,7.3,0.7,11c0,1.5-0.1,2.7-0.4,3.5C56.7,24.7,56.5,25.1,56.3,25.1z"/>
	<path class="st0" d="M64.7,12.7c0.1-0.1,0.1,0,0.1,0.1c0,0.6-0.2,1.1-0.5,1.3l-4.1,2.3c-0.1,0-0.1,0-0.1-0.1c0-0.3,0.1-0.8,0.2-1
		c0.1-0.2,0.3-0.3,0.7-0.5L64.7,12.7z"/>
	<path class="st0" d="M65.5,20.9c0.3,0.9,0.5,1.8,0.5,3.1c0,4-1.1,6.5-4.2,7.7c-0.2,0.1-0.4,0.1-0.6,0.1c-1,0-2.6-0.5-4-1.1
		c-0.3-0.2-0.4-0.3-0.4-0.4c0-0.1,0.1-0.2,0.4-0.2c0.2,0,1.1,0.2,1.8,0.2c0.9,0,1.9-0.4,3.3-1.3c1.5-1,2.8-2.3,2.8-3.8
		c0-0.5-0.1-1-0.4-1.5c-0.3,0.7-0.8,1.1-1.5,1.1c-1.3,0-2.1-0.7-2.1-2.1c0-0.5,0.3-1.3,0.6-2.1c0.5-1,1.2-1.9,1.8-1.9
		C64.1,18.7,65,19.6,65.5,20.9z M62.9,21c-0.3,0-0.5,0.2-0.7,0.5c-0.1,0.1-0.2,0.4-0.2,0.5c0,0.4,0.6,0.6,1.1,0.6
		c0.4,0,0.7-0.2,0.8-0.4C63.9,21.5,63.2,21,62.9,21z"/>
	<path class="st0" d="M80.2,36.1c0.1-0.1,0.1,0,0.1,0.1c0,0.6-0.2,1.1-0.5,1.3l-4.1,2.3c-0.1,0-0.1,0-0.1-0.1c0-0.3,0.1-0.8,0.2-1
		c0.1-0.2,0.3-0.3,0.7-0.5L80.2,36.1z"/>
	<path class="st0" d="M83.3,29.5c0.2-0.2,0.2-0.2,0.3-0.1c0.5,0.5,1,1.1,1.5,1.4c0.2,0.1,0.2,0.2,0,0.3c-0.5,0.5-0.9,1-1.3,1.5
		c-0.1,0.1-0.2,0.1-0.3,0c-0.4-0.3-0.9-0.7-1.4-1.2c-0.3,0.3-0.9,1-1.1,1.2c-0.1,0.1-0.2,0.2-0.4,0c-0.5-0.3-1.1-0.9-1.5-1.4
		c-0.1-0.1-0.1-0.2,0-0.3c0.4-0.5,0.9-1,1.4-1.5c0.1-0.1,0.2-0.1,0.3,0.1c0.4,0.4,1,1,1.4,1.2C82.5,30.4,83.1,29.8,83.3,29.5z"/>
	<path class="st0" d="M80.4,26.4c0,0.1,0,0.2-0.1,0.5c-0.3,0.8-0.6,1.3-0.8,1.6c-0.1,0.1-0.1,0.1-0.2,0.1c-0.5-0.2-1.1-0.3-2.2-0.4
		c-1.7,0-2.8,0.3-3.1,0.9c0.2,1.2,0.4,2.1,0.5,2.6l0.4,2.1c0.2,1.1,0.3,2.2,0.3,3.1c0,0.9-0.1,1.9-0.4,2.8c-0.1,0.4-0.3,0.6-0.4,0.6
		c-0.1,0-0.1-0.2-0.1-0.5c0-0.3,0.1-0.7,0-1.2c0-0.9-0.2-2.1-0.6-4.6c-0.3-1.9-0.6-3-0.6-3.5c0-1,0.2-1.9,0.7-2.8
		c0.5-0.9,1.1-1.5,1.8-1.8l0.7-1.6c0.5-1.2,1.3-2,2.1-2.5c0.8-0.5,2.1-1.1,3.1-1.1c0.3,0,0.6,0.1,0.8,0.2c0.3,0.2,0.6,0.5,1,1.1
		c0.4,0.6,0.8,0.8,1.3,0.8h0.3c0.6,0,0.9,0.3,0.9,1c0,0.8-0.3,1.2-0.9,1.2h-0.3c-0.7,0-1.4-0.3-2-1c-0.5-0.5-0.8-0.9-1.2-1
		c-0.2-0.1-0.4-0.1-0.9-0.1c-1.1,0-2.1,0.4-2.9,1.1c0.9,0.4,1.6,0.8,2.1,1.3C80,25.7,80.3,26.1,80.4,26.4z"/>
	<path class="st0" d="M97.7,21.7c0,0-0.1,0.1-0.1,0.1c-0.2,0-0.3,0-0.4,0c-0.5,0-0.8,0-1.5-0.1c0,0.4,0.3,0.6,0.9,0.8
		c0.6,0.2,1.2,0.3,1.9,0.3h1.1c0.8,0,1.1,0.4,1.1,1.1c0,0.8-0.4,1.2-1.1,1.2h-1c-1.3,0-2.3-0.3-2.7-0.8c-0.5-0.5-0.7-1.4-0.7-2.6
		c-1.3,0-1.8,0.1-2.4,0.4c-0.4,0.2-0.9,0.3-2,0.9c-1.6,0.8-2.8,1.4-3.5,1.6c-0.8,0.3-1.7,0.5-2.6,0.5h-0.3c-0.7,0-1.1-0.4-1.1-1.2
		c0-0.7,0.4-1.1,1.1-1.1h0.3c1.4,0,2.5-0.1,3.4-0.4c1-0.3,2.3-0.7,3.9-1.4c-1.9-0.5-3.5-1.2-4.5-1.2c-0.2,0-0.4,0-0.6,0.1
		c-0.2,0.1-0.6,0.3-0.8,0.3c-0.1,0-0.2-0.1-0.2-0.2c0-0.4,0.4-1.1,1.2-1.8c0.5-0.4,1-0.6,1.4-0.6c0.2,0,0.3,0,0.5,0.1
		c1.8,0.4,4.1,1.4,6,1.8c1.3,0.3,2.6,0.4,3.4,0.4c0.2,0,0.3,0,0.5,0c0.1,0,0.1,0.1,0.1,0.1C98.8,20.2,98.1,21.3,97.7,21.7z
		 M94.9,13.8c0.1,0.1,0.1,0.1,0,0.2c-0.2,0.3-1.1,1.2-1.4,1.7c-0.1,0.1-0.1,0.1-0.2,0c-0.5-0.3-1.5-1-1.7-1.4
		c-0.1-0.1-0.1-0.1,0-0.2c0.3-0.5,0.9-1.2,1.3-1.6c0.2-0.2,0.2-0.2,0.3-0.1C93.4,12.8,94.2,13.4,94.9,13.8z"/>
	<path class="st0" d="M107.3,22.8c0.7,0,1,0.4,1,1.1c0,0.8-0.3,1.2-1,1.2H107c-2.1,0-3.4-0.4-4.3-1c-0.8,0.5-1.9,1-3.2,1h-0.2
		c-0.6,0-0.9-0.4-0.9-1.2c0-0.7,0.3-1.1,1-1.1h0.2c0.9,0,1.4-0.1,1.7-0.4c-0.1-0.2-0.1-0.5-0.1-0.8c0-2.3,2.6-5.1,4-5.1
		c0.8,0,1.3,1,1.3,2.2c0,1.3-0.5,2.8-1.5,3.7c0.5,0.2,1.2,0.4,2.1,0.4H107.3z M104.7,11.6c0.1,0.1,0.1,0.1,0,0.2
		c-0.2,0.3-1.1,1.2-1.4,1.7c-0.1,0.1-0.1,0.1-0.2,0c-0.5-0.3-1.5-1-1.7-1.4c-0.1-0.1-0.1-0.1,0-0.2c0.3-0.5,0.9-1.2,1.3-1.6
		c0.2-0.2,0.2-0.2,0.3-0.1C103.3,10.6,104,11.2,104.7,11.6z M104.1,18.9c-0.8,0-1.6,0.9-1.6,1.2c0,0.5,0.4,0.9,1.2,1.4
		c0.3-0.1,1.4-1,1.4-1.3C105.1,19.3,104.8,18.9,104.1,18.9z"/>
	<path class="st0" d="M108.5,12.8c-0.7,0-1.1-0.7-1.1-1.5c0-0.2,0-0.5,0.1-0.8c0.1-0.2,0.2-0.8,0.5-0.8c0.1,0,0.2,0.2,0.2,0.6v0.3
		c0,0.3,0.2,0.5,0.6,0.5h0c0.5,0,0.8-0.3,0.9-1c0.1-0.3,0.2-1.1,0.6-1.1c0.1,0,0.2,0.2,0.2,0.5c0,0.2,0.1,0.3,0.4,0.3
		c0.5,0,0.8-0.3,0.9-0.8c0.1-0.7,0.2-0.8,0.4-0.8c0.2,0,0.3,0.7,0.3,1.1c0,0.3,0,0.6-0.2,1c-0.2,0.7-0.7,1.2-1.5,1.2
		c-0.2,0-0.4-0.1-0.5-0.1c-0.1-0.1-0.1,0-0.2,0.1C109.7,12.3,109.2,12.8,108.5,12.8z M112.4,5.9C112.5,5.9,112.5,6,112.4,5.9
		c0,0.5-0.2,0.9-0.4,1.2c-0.1,0.1-0.2,0.2-0.5,0.3l-4,1.9c0,0-0.1,0-0.1-0.1c0-0.2,0.1-0.5,0.2-0.7c0.2-0.3,0.2-0.4,0.3-0.5
		c0.1-0.1,0.2-0.1,0.3-0.2L112.4,5.9z"/>
	<path class="st0" d="M111.8,21.4c0,0.6,0.6,1.2,1.4,1.4c0.2,0,0.3,0,0.5,0h0.1c0.9,0,0.9,0.7,0.9,1c0,0.3,0,1.3-0.8,1.3h-0.2
		c-0.2,0-0.3,0-0.6,0c-1.5-0.2-2.1-1.5-2.2-1.7c-0.2,0.6-1.5,1.7-3.7,1.7h-0.1c-0.6,0-1-0.6-1-1.1s0.3-1.1,1-1.1h0.7
		c1,0,2.4-0.2,3.3-1.6c0.3-0.5,0.4-0.5,0.5-0.5C111.7,20.7,111.8,20.9,111.8,21.4z M111.5,14.6c0.2-0.2,0.2-0.2,0.3-0.1
		c0.5,0.5,1,1.1,1.5,1.4c0.2,0.1,0.2,0.2,0,0.3c-0.5,0.5-0.9,1-1.3,1.5c-0.1,0.1-0.2,0.1-0.3,0c-0.4-0.3-0.9-0.7-1.4-1.2
		c-0.3,0.3-0.9,1-1.1,1.2c-0.1,0.1-0.2,0.2-0.4,0c-0.5-0.3-1.1-0.9-1.5-1.4c-0.1-0.1-0.1-0.2,0-0.3c0.4-0.5,0.9-1,1.4-1.5
		c0.1-0.1,0.2-0.1,0.3,0.1c0.4,0.4,1,1,1.4,1.2C110.8,15.4,111.3,14.8,111.5,14.6z"/>
	<path class="st0" d="M116.1,24c-0.5,0.7-1.2,1-2.3,1h-0.2c-0.7,0-1-0.4-1-1.2c0-0.7,0.3-1.1,1-1.1h0.2c0.5,0,1-0.1,1.5-0.2
		c0.4-0.1,0.6-0.3,0.7-0.4c0-1.7-0.6-5.4-0.9-8.9c0-0.4-0.3-1.6-0.4-2.1c0-0.1,0-0.2,0-0.2c0-0.3,0.3-0.9,0.5-1.3
		c0.3-0.5,0.5-0.9,0.7-0.9c0.1,0,0.1,0.1,0.2,0.2c0.3,1,0.6,1.5,0.8,1.8c0.1,0.1,0.1,0.2,0.1,0.3c0,0,0,0.1,0,0.1
		c-0.1,0.2-0.4,0.8-0.6,1.1c0.2,3.4,0.7,6.2,0.7,7.8C117.1,21.7,116.8,23,116.1,24z"/>
	<path class="st0" d="M121.7,25.1c-0.1,0-0.2-0.2-0.2-0.7c0-3-1.1-11.3-1.1-12.7c0-0.7,0.5-1.7,0.9-2.5c0.1-0.2,0.3-0.5,0.5-0.5
		c0.1,0,0.2,0.2,0.2,0.8c0.1,2.2,0.7,7.3,0.7,11c0,1.5-0.1,2.7-0.4,3.5C122.1,24.7,121.9,25.1,121.7,25.1z"/>
	<path class="st0" d="M142,3.3c0,0.5-0.1,1-0.3,1.5c0.2,0.1,0.4,0.3,0.4,0.4c0,0.4-0.2,0.7-0.3,1c-0.1,0.1-0.1,0.1-0.1,0.1l-0.5-0.3
		c-0.5,0.8-1.3,1.8-2.5,2.3c-0.4,0.2-0.9,0.4-1.5,0.4c-0.3,0-0.4-0.1-0.4-0.1c0-0.1,0.2-0.2,0.6-0.4c0.9-0.5,2.5-1.8,3.1-2.5
		c-0.5-0.3-1.1-0.7-1.1-1.4c0-0.4,0.2-0.9,0.6-1.3c0.4-0.5,0.8-0.8,1.2-0.8C141.8,2.1,142,2.7,142,3.3z M140.2,3.7
		C140.2,3.8,140.2,3.8,140.2,3.7c0,0.2,0.4,0.5,0.8,0.7c0.1-0.2,0.1-0.4,0.1-0.7c0-0.3-0.1-0.4-0.3-0.4
		C140.6,3.3,140.4,3.5,140.2,3.7z"/>
	<path class="st0" d="M133.8,22.5c1,0.5,2.5,0.7,4.6,0.7c2.9,0,5.2-0.4,6.7-0.9c2.1-0.6,3-0.9,4.1-1.8c0.1,0,0.2-0.2,0.3-0.2
		c0.1,0,0.2,0.1,0.2,0.5c0,1.2,0.7,2,1.4,2h0.3c0.6,0,0.9,0.4,0.9,1.1c0,0.8-0.3,1.2-0.9,1.2H151c-1.4,0-2.3-0.8-2.6-2.3
		c-1.1,0.5-2.4,1.2-3.7,1.6c-2,0.6-4.1,1.1-6.7,1.1c-2.1,0-3.8-0.3-4.9-0.8c-1.4-0.6-2.2-1.5-2.2-3c0-1.3,0.5-2.6,0.8-3.1
		c0.2-0.3,0.4-0.6,0.6-0.6c0.1,0,0.1,0.1,0.1,0.2c0,0.1-0.1,0.4-0.2,0.6c-0.2,0.5-0.4,1.1-0.4,1.5C132,20.9,132.4,21.8,133.8,22.5z
		 M141.9,14.5c0.2-0.2,0.2-0.2,0.3-0.1c0.5,0.5,1,1.1,1.5,1.4c0.2,0.1,0.2,0.2,0,0.3c-0.5,0.5-0.9,1-1.3,1.5c-0.1,0.1-0.2,0.1-0.3,0
		c-0.4-0.3-0.9-0.7-1.4-1.2c-0.3,0.3-0.9,1-1.1,1.2c-0.1,0.1-0.2,0.2-0.4,0c-0.5-0.3-1.1-0.9-1.5-1.4c-0.1-0.1-0.1-0.2,0-0.3
		c0.4-0.5,0.9-1,1.4-1.5c0.1-0.1,0.2-0.1,0.3,0.1c0.4,0.4,1,1,1.4,1.2C141.1,15.4,141.6,14.7,141.9,14.5z M142.2,11.2
		c0.1,0.1,0.1,0.1,0,0.2c-0.2,0.3-1.1,1.2-1.4,1.7c-0.1,0.1-0.1,0.1-0.2,0c-0.5-0.3-1.5-1-1.7-1.4c-0.1-0.1-0.1-0.1,0-0.2
		c0.3-0.5,0.9-1.2,1.3-1.6c0.2-0.2,0.2-0.2,0.3-0.1C140.8,10.1,141.5,10.8,142.2,11.2z"/>
	<path class="st0" d="M155.9,21.4c0,0.6,0.6,1.2,1.4,1.4c0.2,0,0.3,0,0.5,0h0.1c0.9,0,0.9,0.7,0.9,1c0,0.3,0,1.3-0.8,1.3h-0.2
		c-0.2,0-0.3,0-0.6,0c-1.5-0.2-2.1-1.5-2.2-1.7c-0.2,0.6-1.5,1.7-3.7,1.7h-0.1c-0.6,0-1-0.6-1-1.1s0.3-1.1,1-1.1h0.7
		c1,0,2.4-0.2,3.3-1.6c0.3-0.5,0.4-0.5,0.5-0.5C155.8,20.7,155.9,20.9,155.9,21.4z M155.7,28.2c0.2-0.2,0.2-0.2,0.3-0.1
		c0.5,0.5,1,1.1,1.5,1.4c0.2,0.1,0.2,0.2,0,0.3c-0.5,0.5-0.9,1-1.3,1.5c-0.1,0.1-0.2,0.1-0.3,0c-0.4-0.3-0.9-0.7-1.4-1.2
		c-0.3,0.3-0.9,1-1.1,1.2c-0.1,0.1-0.2,0.2-0.4,0c-0.5-0.3-1.1-0.9-1.5-1.4c-0.1-0.1-0.1-0.2,0-0.3c0.4-0.5,0.9-1,1.4-1.5
		c0.1-0.1,0.2-0.1,0.3,0.1c0.4,0.4,1,1,1.4,1.2C154.9,29,155.5,28.4,155.7,28.2z"/>
	<path class="st0" d="M165.3,11.7c0.1-0.1,0.1,0,0.1,0.1c0,0.6-0.2,1.1-0.5,1.3l-4.1,2.3c-0.1,0-0.1,0-0.1-0.1c0-0.3,0.1-0.8,0.2-1
		c0.1-0.2,0.3-0.3,0.7-0.5L165.3,11.7z"/>
	<path class="st0" d="M160.8,19.8c-0.2,0-0.5,0-0.6,0.1c-0.2,0.1-0.6,0.3-0.8,0.3c-0.2,0-0.2-0.1-0.2-0.2c0-0.4,0.6-1.3,1.2-1.8
		c0.5-0.4,1-0.6,1.4-0.6c0.2,0,0.3,0,0.5,0.1c1.8,0.4,4.1,1.4,6,1.8c1.3,0.3,2.6,0.4,3.4,0.4c0.2,0,0.3,0,0.5,0c0.1,0,0.1,0,0.1,0.1
		c0,0.4-0.7,1.5-1.1,1.9c-0.1,0.1-0.3,0.1-0.6,0.1c-0.5,0-1.6-0.1-1.9-0.1c-0.9,0-1.6,0.1-2.2,0.3c-0.4,0.2-1.2,0.5-2.3,1
		c-1.7,0.8-2.8,1.4-3.6,1.7c-0.8,0.3-1.6,0.5-2.5,0.5h-0.3c-0.7,0-1.1-0.4-1.1-1.2c0-0.7,0.4-1.1,1.1-1.1h0.3c1.4,0,2.5-0.1,3.4-0.4
		c0.9-0.3,2.3-0.7,4-1.4C163.4,20.4,161.8,19.8,160.8,19.8z"/>
	<path class="st0" d="M184.6,10.1c0.7,0,1.7,1,1.7,2.1c0,0.4-0.1,0.8-0.2,1.2c-0.3,0.8-0.9,1.3-1.8,1.3c-0.8,0-1.3-0.6-1.3-1.3
		C182.9,12.3,184.1,10.1,184.6,10.1z M184.3,11.7c-0.3,0-0.7,0.6-0.7,1c0,0.3,0.4,0.6,0.8,0.6c0.5,0,1.1-0.3,1.1-0.5
		C185.5,12.6,184.9,11.7,184.3,11.7z"/>
	<path class="st0" d="M189.1,23c0-0.3,0.3-1.4,0.6-2c0.1-0.1,0.1-0.2,0.2-0.2c0.1,0,0.2,0.1,0.2,0.2c0.6,1.2,1.1,1.8,1.9,1.8h0.3
		c0.7,0,1,0.4,1,1.1c0,0.8-0.3,1.2-1,1.2H192c-0.4,0-0.7,0-0.9-0.1c-0.1,1.8-0.2,2.6-0.4,3c-0.3,0.9-0.8,1.7-2.1,2.6
		c-1.2,0.9-3,1.5-5.5,1.5c-2.5,0-4.4-1.7-4.4-4.5c0-1.4,0.7-3.1,1.3-3.8c0.2-0.3,0.5-0.6,0.6-0.6c0.1,0,0.1,0.1,0.1,0.2
		c0,0.2-0.1,0.4-0.2,0.7c-0.5,0.9-0.8,1.7-0.8,2.7c0,1.9,2.3,3,3.9,3c2.7,0,5.6-1,6.4-2.5c0-0.1,0.1-0.2,0.1-0.4
		c-0.1-1.9-0.3-2.6-0.9-3.7C189.1,23.1,189.1,23,189.1,23z M186.7,17.8c0.1,0.1,0.1,0.1,0,0.2c-0.2,0.3-1.1,1.2-1.4,1.7
		c-0.1,0.1-0.1,0.1-0.2,0c-0.5-0.3-1.5-1-1.7-1.4c-0.1-0.1-0.1-0.1,0-0.2c0.3-0.5,0.9-1.2,1.3-1.6c0.2-0.2,0.2-0.2,0.3-0.1
		C185.3,16.7,186,17.4,186.7,17.8z"/>
	<path class="st0" d="M200.1,27c0.1-0.1,0.1,0,0.1,0.1c0,0.6-0.2,1.1-0.5,1.3l-4.1,2.3c-0.1,0-0.1,0-0.1-0.1c0-0.3,0.1-0.8,0.2-1
		c0.1-0.2,0.3-0.3,0.7-0.5L200.1,27z"/>
	<path class="st0" d="M192.2,25.1H192c-0.7,0-1-0.4-1-1.2c0-0.7,0.4-1.1,1-1.1h0.1c1.2,0,2.2-0.5,2.9-1.4l1.3-2
		c0.7-1.1,1.7-1.5,2.2-1.5c1.7,0,2.4,2.9,2.4,4.1c0,1-1.1,2.4-1.6,2.4c-0.8,0-2.8-1-3.8-1.9C194.5,24.3,193.4,25.1,192.2,25.1z
		 M197.5,19.9c-0.2,0-0.3,0.1-0.5,0.3c-0.1,0.1-0.2,0.3-0.3,0.5c0.5,0.3,1.9,1,2.5,1.4C199.1,21.3,198.1,19.9,197.5,19.9z"/>
	<path class="st0" d="M212.5,25.1c-0.7,0-1.2-0.1-1.7-0.5c-0.7-0.6-1.1-1.7-1.3-3.1c-0.2-1.1-0.2-2.3-0.3-3.7
		c-0.1-2-0.2-5.1-0.5-6.9c0-0.1,0-0.2,0-0.2c0-0.1,0-0.2,0.2-0.4c0.3-0.5,0.5-0.8,0.7-1.2c0.2-0.3,0.2-0.3,0.3-0.3
		c0.1,0,0.2,0.2,0.3,0.7c0.4,3.5,0.1,8.4,0.6,11.1c0.1,0.7,0.2,0.9,0.4,1.3c0.3,0.6,0.7,0.9,1.4,1c0.8,0,1.2,0.4,1.2,1.1
		c0,0.9-0.4,1.2-1.1,1.2H212.5z"/>
	<path class="st0" d="M223.2,28.6c0.2-0.2,0.2-0.2,0.3-0.1c0.5,0.5,1,1.1,1.5,1.4c0.2,0.1,0.2,0.2,0,0.3c-0.5,0.5-0.9,1-1.3,1.5
		c-0.1,0.1-0.2,0.1-0.3,0c-0.4-0.3-0.9-0.7-1.4-1.2c-0.3,0.3-0.9,1-1.1,1.2c-0.1,0.1-0.2,0.2-0.4,0c-0.5-0.3-1.1-0.9-1.5-1.4
		c-0.1-0.1-0.1-0.2,0-0.3c0.4-0.5,0.9-1,1.4-1.5c0.1-0.1,0.2-0.1,0.3,0.1c0.4,0.4,1,1,1.4,1.2C222.4,29.4,222.9,28.8,223.2,28.6z"/>
	<path class="st0" d="M217.9,31c-0.1,0.1-0.1,0.2-0.2,0.2c-0.6,0-1.3-0.8-1.7-1.4c-0.5-0.8-0.7-2-0.7-3.2c0-1,0.1-2,0.3-2.9
		c-0.8,0.9-1.7,1.4-2.8,1.4h-0.3c-0.6,0-1-0.4-1-1.1c0-0.8,0.3-1.1,1-1.1h0.3c2.1,0,3.2-1.5,3.9-2.3c0.1-0.1,0.3-0.5,0.6-0.5
		c0.4,0,0.1,0.7,0.1,0.9c-0.3,0.9-1,2.5-1,4c0,0.6,0.1,1.2,0.3,1.8c0.5-3,1.8-4.8,3.6-5.5c0.4-0.2,0.8-0.2,1.1-0.2
		c0.4,0,0.7,0.1,1,0.2c0.3,0.1,0.6,0.4,0.9,0.9c0.4,0.5,0.8,0.7,1.2,0.7h0.5c0.6,0,0.9,0.3,0.9,1c0,0.8-0.3,1.2-1,1.2h-0.5
		c-0.7,0-1.3-0.3-1.9-0.9c-0.6-0.6-1-0.9-1.5-0.9c-1.1,0-2.1,0.5-3.1,1.4c-0.1,0.1-0.1,0.2-0.1,0.3c-0.3,1.7,0.5,2.8,0.6,4
		C218.5,29.4,218.1,30.5,217.9,31z"/>
	<path class="st0" d="M224.6,22.8h0.2c0.6,0,1-0.2,1.3-0.5c0.5-0.5,0.5-1.1,0.5-1.8c0-1.5-0.1-4.6-0.3-9.2c0-0.5,0.2-1,0.5-1.7
		c0.2-0.3,0.3-0.6,0.5-0.6c0.1,0,0.2,0.2,0.3,0.7c0.2,3.4,0.4,8,0.7,11.3c0.1,0.6,0.4,1.1,0.8,1.4c0.3,0.2,0.6,0.3,0.9,0.3h0.3
		c0.6,0,1,0.4,1,1.1c0,0.8-0.3,1.2-1,1.2H230c-1.4,0-2.4-1-2.8-2.4c-0.3,1.6-1.1,2.4-2.4,2.4h-0.2c-0.7,0-1-0.4-1-1.2
		C223.5,23.2,223.9,22.8,224.6,22.8z"/>
	<path class="st0" d="M234.8,12c0.1-0.1,0.1,0,0.1,0.1c0,0.6-0.2,1.1-0.5,1.3l-4.1,2.3c-0.1,0-0.1,0-0.1-0.1c0-0.3,0.1-0.8,0.2-1
		c0.1-0.2,0.3-0.3,0.7-0.5L234.8,12z"/>
	<path class="st0" d="M233.9,23.7c-0.4,0.6-1.2,1.1-2.6,1.3c-0.4,0.1-0.9,0.1-1.4,0.1c-0.6,0-1-0.6-1-1.1s0.3-1.1,1-1.1h0.5
		c1,0,2.6,0,3.2-0.6c-0.1-0.9-0.8-2-1.1-2.4c0,0,0,0,0-0.1c0-0.4,0.7-1.8,0.7-1.9c0-0.1,0.1-0.1,0.1-0.1c0.3,0,1.1,1.6,1.1,3.5
		C234.6,22,234.5,22.9,233.9,23.7z M234.5,26.3c0.2-0.2,0.2-0.2,0.3-0.1c0.5,0.5,1,1.1,1.5,1.4c0.2,0.1,0.2,0.2,0,0.3
		c-0.5,0.5-0.9,1-1.3,1.5c-0.1,0.1-0.2,0.1-0.3,0c-0.4-0.3-0.9-0.7-1.4-1.2c-0.3,0.3-0.9,1-1.1,1.2c-0.1,0.1-0.2,0.2-0.4,0
		c-0.5-0.3-1.1-0.9-1.5-1.4c-0.1-0.1-0.1-0.2,0-0.3c0.4-0.5,0.9-1,1.4-1.5c0.1-0.1,0.2-0.1,0.3,0.1c0.4,0.4,1,1,1.4,1.2
		C233.7,27.1,234.2,26.5,234.5,26.3z"/>
	<path class="st0" d="M246.9,29.6c-2.9,0-5.4-1.3-5.4-4.6c0-1.7,0.6-3.7,1.4-5c0.3-0.5,0.5-0.6,0.7-0.6c0.1,0,0.1,0.1,0.1,0.2
		c0,0.2-0.1,0.5-0.2,0.7c-0.7,1.3-1,2.4-1,3.4c0,2.7,2.5,3.8,4.9,3.8c2.5,0,6.7-1.9,7.3-2.7c0,0,0.1-0.1,0.1-0.1
		c0-0.4-1.1-0.4-2.3-0.5c-1.4-0.1-2.9-0.4-3.1-1.1c-0.1-0.4-0.2-0.8-0.2-1.2c0-3.3,3.8-6.2,5.7-6.2c0.6,0,1.1,0.3,1.1,1
		c0,0.4-0.1,0.9-0.4,1.4c-0.1,0.2-0.2,0.3-0.3,0.3s-0.2-0.1-0.2-0.2c-0.2-0.2-0.4-0.3-0.7-0.3c-1.3,0-4.1,1.8-4.3,3.1
		c0.1,0.9,1.4,1.2,2.7,1.3c1.1,0.1,2,0.2,2.3,0.3c0.5,0.2,0.8,0.7,0.9,1.4C255.8,26.8,250,29.6,246.9,29.6z M248.6,32
		c0.2-0.2,0.2-0.2,0.3-0.1c0.5,0.5,1,1.1,1.5,1.4c0.2,0.1,0.2,0.2,0,0.3c-0.5,0.5-0.9,1-1.3,1.5c-0.1,0.1-0.2,0.1-0.3,0
		c-0.4-0.3-0.9-0.7-1.4-1.2c-0.3,0.3-0.9,1-1.1,1.2c-0.1,0.1-0.2,0.2-0.4,0c-0.5-0.3-1.1-0.9-1.5-1.4c-0.1-0.1-0.1-0.2,0-0.3
		c0.4-0.5,0.9-1,1.4-1.5c0.1-0.1,0.2-0.1,0.3,0.1c0.4,0.4,1,1,1.4,1.2C247.8,32.9,248.3,32.2,248.6,32z"/>
	<path class="st0" d="M267.8,22.8h0.3c0.7,0,1,0.4,1,1.1c0,0.8-0.4,1.2-1,1.2h-0.3c-0.8,0-1.4-0.3-1.8-0.7c-0.5-0.4-0.8-1-1.1-1.9
		c-0.3,1.6-2.2,2.6-4.6,2.6c-0.7,0-1.5-0.1-2.1-0.5c-0.4-0.3-0.7-0.6-0.7-1.1c0-0.5,0.1-1.3,0.4-1.9c0.1-0.2,0.2-0.3,0.3-0.3
		c0.1,0,0.2,0.1,0.3,0.3c0.2,0.7,1.2,1,2.3,1c2.1,0,3.1-0.5,3.6-1.3c0-0.2,0.1-0.4,0.1-0.7c0-1.3-0.4-2.9-0.7-4.4
		c0-0.2-0.1-0.3-0.1-0.5c0-0.1,0.1-0.4,0.5-1.4c0.2-0.4,0.3-0.6,0.4-0.6c0.1,0,0.2,0.2,0.3,0.6c0.8,3.3,0.8,5.6,1.2,7
		c0.1,0.4,0.2,0.6,0.5,0.9C266.9,22.6,267.3,22.8,267.8,22.8z M265.8,8.8c0.1,0.1,0.1,0.1,0,0.2c-0.2,0.3-1.1,1.2-1.4,1.7
		c-0.1,0.1-0.1,0.1-0.2,0c-0.5-0.3-1.5-1-1.7-1.4c-0.1-0.1-0.1-0.1,0-0.2c0.3-0.5,0.9-1.2,1.3-1.6c0.2-0.2,0.2-0.2,0.3-0.1
		C264.4,7.7,265.1,8.4,265.8,8.8z"/>
	<path class="st0" d="M270.2,24c-0.5,0.7-1.2,1-2.3,1h-0.2c-0.7,0-1-0.4-1-1.2c0-0.7,0.3-1.1,1-1.1h0.2c0.5,0,1-0.1,1.5-0.2
		c0.4-0.1,0.6-0.3,0.7-0.4c0-1.7-0.6-5.4-0.9-8.9c0-0.4-0.3-1.6-0.4-2.1c0-0.1,0-0.2,0-0.2c0-0.3,0.3-0.9,0.5-1.3
		c0.3-0.5,0.5-0.9,0.7-0.9c0.1,0,0.1,0.1,0.2,0.2c0.3,1,0.6,1.5,0.8,1.8c0.1,0.1,0.1,0.2,0.1,0.3c0,0,0,0.1,0,0.1
		c-0.1,0.2-0.4,0.8-0.6,1.1c0.2,3.4,0.7,6.2,0.7,7.8C271.2,21.7,270.9,23,270.2,24z"/>
	<path class="st0" d="M275.8,25.1c-0.1,0-0.2-0.2-0.2-0.7c0-3-1.1-11.3-1.1-12.7c0-0.7,0.5-1.7,0.9-2.5c0.1-0.2,0.3-0.5,0.5-0.5
		c0.1,0,0.2,0.2,0.2,0.8c0.1,2.2,0.7,7.3,0.7,11c0,1.5-0.1,2.7-0.4,3.5C276.2,24.7,276,25.1,275.8,25.1z"/>
	<path class="st0" d="M299,26.9c0.1-0.1,0.1,0,0.1,0.1c0,0.6-0.2,1.1-0.5,1.3l-4.1,2.3c-0.1,0-0.1,0-0.1-0.1c0-0.3,0.1-0.8,0.2-1
		c0.1-0.2,0.3-0.3,0.7-0.5L299,26.9z"/>
	<path class="st0" d="M303.9,19.4c0,0.5-0.3,1.8-0.6,2.8c-0.3,0.7-0.4,0.8-1.2,1.2c-1.7,0.8-5.7,2-9.8,2c-5.3,0-7.4-1.8-7.4-4.3
		c0-0.9,0.4-2.4,1-3.3c0.2-0.3,0.4-0.6,0.6-0.6c0.1,0,0.1,0,0.1,0.1c0,0.1-0.1,0.3-0.1,0.5c-0.2,0.7-0.5,1.4-0.5,2
		c0,1.1,1.4,3.1,6.5,3.2c3.7,0,7.7-0.8,9.4-1.4c0.9-0.3,0.9-0.5,0.9-1.1c0-0.5-0.1-0.8-0.3-1.3c-0.2,0.5-0.9,1-1.8,1
		c-1.1,0-1.8-0.7-1.8-2c0-1.8,1.4-4.1,2-4.1C302.5,14.1,303.9,16.6,303.9,19.4z M298.9,11.3c0.1,0.1,0.1,0.1,0,0.2
		c-0.2,0.3-1.1,1.2-1.4,1.7c-0.1,0.1-0.1,0.1-0.2,0c-0.5-0.3-1.5-1-1.7-1.4c-0.1-0.1-0.1-0.1,0-0.2c0.3-0.5,0.9-1.2,1.3-1.6
		c0.2-0.2,0.2-0.2,0.3-0.1C297.5,10.2,298.2,10.8,298.9,11.3z M300.7,16.3c-0.3,0-0.6,0.4-0.7,0.8c0,0,0,0.1,0,0.1s0,0.1,0,0.1
		c0.1,0.3,0.5,0.5,1,0.5c0.4,0,0.8-0.2,0.9-0.3c0,0,0.1-0.1,0.1-0.1C301.9,17.2,301.5,16.3,300.7,16.3z"/>
	<path class="st0" d="M308.8,14.5c0.7,0,1.7,1,1.7,2.1c0,0.4-0.1,0.8-0.2,1.2c-0.3,0.8-0.9,1.3-1.8,1.3c-0.8,0-1.3-0.6-1.3-1.3
		C307.2,16.7,308.3,14.5,308.8,14.5z M308.6,16.1c-0.3,0-0.7,0.6-0.7,1c0,0.3,0.4,0.6,0.8,0.6c0.5,0,1.1-0.3,1.1-0.5
		C309.8,16.9,309.2,16.1,308.6,16.1z"/>
	<path class="st0" d="M312.4,22.8c0.7,0,1.1,0.4,1.1,1.1c0,0.8-0.4,1.2-1.1,1.2h-0.2c-0.6,0-1,0-1.3-0.1c0,0.1,0,0.2,0,0.3
		c0,0.7-0.1,1.5-0.4,2.1c-0.5,1.2-1.3,3.3-3.6,4.3c-0.4,0.2-0.8,0.3-1.2,0.3c-0.9,0-2.4-0.5-3.5-1c-0.3-0.2-0.4-0.3-0.4-0.4
		c0-0.1,0.1-0.2,0.4-0.2c0.3,0,0.8,0.1,1.3,0.1c3.1,0,6.2-2.7,6.6-5c0-0.5-1.1-1.6-1.3-1.9c0-0.1-0.1-0.2-0.1-0.3
		c0-0.5,0.4-1.5,0.6-1.8c0.1-0.2,0.2-0.2,0.3-0.2c0.2,0,0.3,0.2,0.6,0.7c0.4,0.6,0.9,0.9,1.8,0.9H312.4z"/>
	<path class="st0" d="M320.4,12c0.1-0.1,0.1,0,0.1,0.1c0,0.6-0.2,1.1-0.5,1.3l-4.1,2.3c-0.1,0-0.1,0-0.1-0.1c0-0.3,0.1-0.8,0.2-1
		c0.1-0.2,0.3-0.3,0.7-0.5L320.4,12z"/>
	<path class="st0" d="M325.4,21.7c0,0-0.1,0.1-0.1,0.1c-0.2,0-0.3,0-0.4,0c-0.5,0-0.8,0-1.5-0.1c0,0.4,0.3,0.6,0.9,0.8
		c0.6,0.2,1.2,0.3,1.9,0.3h1.1c0.8,0,1.1,0.4,1.1,1.1c0,0.8-0.4,1.2-1.1,1.2h-1c-1.3,0-2.3-0.3-2.7-0.8c-0.5-0.5-0.7-1.4-0.7-2.6
		c-1.3,0-1.8,0.1-2.4,0.4c-0.4,0.2-0.9,0.3-2,0.9c-1.6,0.8-2.8,1.4-3.5,1.6c-0.8,0.3-1.7,0.5-2.6,0.5H312c-0.7,0-1.1-0.4-1.1-1.2
		c0-0.7,0.4-1.1,1.1-1.1h0.3c1.4,0,2.5-0.1,3.4-0.4c1-0.3,2.3-0.7,3.9-1.4c-1.9-0.5-3.5-1.2-4.5-1.2c-0.2,0-0.4,0-0.6,0.1
		c-0.2,0.1-0.6,0.3-0.8,0.3c-0.1,0-0.2-0.1-0.2-0.2c0-0.4,0.4-1.1,1.2-1.8c0.5-0.4,1-0.6,1.4-0.6c0.2,0,0.3,0,0.5,0.1
		c1.8,0.4,4.1,1.4,6,1.8c1.3,0.3,2.6,0.4,3.4,0.4c0.2,0,0.3,0,0.5,0c0.1,0,0.1,0.1,0.1,0.1C326.5,20.2,325.8,21.3,325.4,21.7z"/>
	<path class="st0" d="M326.9,22.8h0.2c0.6,0,1-0.2,1.3-0.5c0.5-0.5,0.5-1.1,0.5-1.8c0-1.5-0.1-4.6-0.3-9.2c0-0.5,0.2-1,0.5-1.7
		c0.2-0.3,0.3-0.6,0.5-0.6c0.1,0,0.2,0.2,0.3,0.7c0.2,3.4,0.4,8,0.7,11.3c0.1,0.6,0.4,1.1,0.8,1.4c0.3,0.2,0.6,0.3,0.9,0.3h0.3
		c0.6,0,1,0.4,1,1.1c0,0.8-0.3,1.2-1,1.2h-0.3c-1.4,0-2.4-1-2.8-2.4c-0.3,1.6-1.1,2.4-2.4,2.4h-0.2c-0.7,0-1-0.4-1-1.2
		C325.9,23.2,326.2,22.8,326.9,22.8z"/>
	<path class="st0" d="M337.2,26.9c0.1-0.1,0.1,0,0.1,0.1c0,0.6-0.2,1.1-0.5,1.3l-4.1,2.3c-0.1,0-0.1,0-0.1-0.1c0-0.3,0.1-0.8,0.2-1
		c0.1-0.2,0.3-0.3,0.7-0.5L337.2,26.9z"/>
	<path class="st0" d="M335.8,20.1c0,1.7-0.3,3-1,4c-0.5,0.7-1.3,1-2.3,1h-0.2c-0.7,0-1-0.4-1-1.2c0-0.7,0.3-1.1,1-1.1h0.2
		c1.1,0,2-0.4,2.2-0.6v0c0-1.7-0.7-6-1-9.4c0-0.4-0.3-1.3-0.4-1.7c0-0.1,0-0.2,0-0.2c0,0,0-0.1,0-0.2c0-0.1,0.1-0.4,0.4-0.9
		c0.3-0.5,0.7-1.1,0.9-1.1c0.1,0,0.1,0.1,0.2,0.2c0.3,0.9,0.6,1.4,0.8,1.8c0,0.1,0.1,0.2,0.1,0.2c0,0.1,0,0.2,0,0.2
		c-0.1,0.2-0.3,0.8-0.5,1C335.2,15.7,335.8,18.4,335.8,20.1z"/>
	<path class="st0" d="M347.5,2.7c0.1,0.2,0.2,0.5,0.2,0.8c0,0.5-0.2,0.9-0.4,1.4c0.2,0.2,0.3,0.3,0.3,0.4c0,0.3-0.2,0.6-0.5,0.9
		l-0.5-0.4c-0.6,0.8-1.1,1.3-1.7,1.5c-0.6,0.3-1.9,0.6-2.8,0.8c-0.3,0-0.4,0-0.4-0.1c0,0,0-0.1,0.2-0.2c2.2-1.2,3.6-2.1,4.2-2.5
		c-0.4-0.3-0.8-0.7-0.8-1.3c0-0.5,0.3-0.8,0.7-1.2c0.4-0.4,0.8-0.6,1.1-0.6C347.2,2.3,347.3,2.4,347.5,2.7z M343.3,3
		c0.9-1.6,2.8-3,4.7-3c1,0,2.6,0.4,2.6,1.3c0,1.1-1.4,2.7-2.4,3.4c0,0,0,0-0.1,0c-0.1,0-0.2-0.2-0.2-0.3c0,0,0,0,0-0.1
		c0.9-0.8,1.4-1.3,1.4-1.9c-0.2-0.7-1.2-1.1-1.9-1.1c-1.5,0-3.7,1.3-3.8,3c0,0.2,0.2,0.5,0.7,0.9c0,0,0,0,0,0.1
		c-0.2,0.2-0.4,0.6-1,0.9c0,0-0.1,0.1-0.1,0.1c-0.1,0-0.7-0.4-0.7-1C342.6,4.7,342.9,3.7,343.3,3z M345.9,3.8
		c0.1,0.2,0.3,0.4,0.7,0.6c0.1-0.1,0.2-0.3,0.2-0.6c0-0.3-0.1-0.4-0.3-0.4C346.3,3.4,346.1,3.6,345.9,3.8z"/>
	<path class="st0" d="M347.6,9.9c0.2-0.2,0.2-0.2,0.3-0.1c0.5,0.5,1,1.1,1.5,1.4c0.2,0.1,0.2,0.2,0,0.3c-0.5,0.5-0.9,1-1.3,1.5
		c-0.1,0.1-0.2,0.1-0.3,0c-0.4-0.3-0.9-0.7-1.4-1.2c-0.3,0.3-0.9,1-1.1,1.2c-0.1,0.1-0.2,0.2-0.4,0c-0.5-0.3-1.1-0.9-1.5-1.4
		c-0.1-0.1-0.1-0.2,0-0.3c0.4-0.5,0.9-1,1.4-1.5c0.1-0.1,0.2-0.1,0.3,0.1c0.4,0.4,1,1,1.4,1.2C346.8,10.8,347.3,10.2,347.6,9.9z
		 M350.5,22.3c0.5,0.3,0.9,0.5,1.2,0.5h0.3c0.7,0,1.1,0.4,1.1,1.1c0,0.8-0.4,1.2-1.1,1.2h-0.3c-0.8,0-1.5-0.3-2.3-0.9
		c-0.7-0.6-1.2-1.6-1.4-3c-0.2,0.4-0.4,0.7-0.8,1c-0.6,0.4-1.6,0.6-2.6,0.6c-0.7,0-1.4-0.1-1.4-0.7c0.3-2.2,0.6-2.6,1.7-3.4
		c0.5-0.4,1.8-1.2,2.3-1.6c0-0.2,0-0.4,0-0.5c0-0.5,0.1-0.8,0.4-1.2c0.2-0.3,0.3-0.5,0.4-0.5c0.1,0,0.2,0.2,0.2,0.5
		c0.3,2.1,0.5,3.8,0.8,4.8C349.2,21.1,349.8,21.8,350.5,22.3z M347.5,18.3c-0.9,0.6-2.5,1.6-2.6,1.9c0,0.2,0.3,0.2,0.7,0.2
		c0.6,0,1.5-0.2,2.2-0.5C347.7,19.3,347.7,19,347.5,18.3z"/>
	<path class="st0" d="M362,22.8c0.6,0,1,0.4,1,1.1c0,0.8-0.3,1.2-1,1.2h-0.2c-1-0.1-1.9-0.3-2.7-0.8c-0.8-0.5-1.1-0.9-1.6-1.7
		c-1.2,1.1-2.1,1.7-2.9,2c-0.8,0.3-1.7,0.5-2.7,0.5c-0.8,0-1.1-0.4-1.1-1.2c0-0.7,0.4-1.1,1.1-1.1h0.2c1.8,0,3-0.3,4.5-1.2
		c-0.5-0.7-1.7-1-2.3-1.1c-0.1,0-0.1-0.2-0.1-0.4c0-0.5,0.2-1.4,0.5-1.6c1-0.7,2.1-1.1,3.1-1.1c1,0,1.9,0.4,2.6,1.1
		c0.2,0.2,0.2,0.4,0.2,0.7c0,0.7-0.4,1.7-1.3,2.3c0.8,0.8,1.7,1.2,2.6,1.2H362z"/>
	<path class="st0" d="M367.3,31.4c0.1-0.1,0.1,0,0.1,0.1c0,0.6-0.2,1.1-0.5,1.3l-4.1,2.3c-0.1,0-0.1,0-0.1-0.1c0-0.3,0.1-0.8,0.2-1
		c0.1-0.2,0.3-0.3,0.7-0.5L367.3,31.4z"/>
	<path class="st0" d="M365.6,23.7c-0.4,0.6-1.2,1.1-2.6,1.3c-0.4,0.1-0.9,0.1-1.4,0.1c-0.6,0-1-0.6-1-1.1s0.3-1.1,1-1.1h0.5
		c1,0,2.6,0,3.2-0.6c-0.1-0.9-0.8-2-1.1-2.4c0,0,0,0,0-0.1c0-0.4,0.7-1.8,0.7-1.9c0-0.1,0.1-0.1,0.1-0.1c0.3,0,1.1,1.6,1.1,3.5
		C366.2,22,366.2,22.9,365.6,23.7z M366.8,27.6c0.1,0.1,0.1,0.1,0,0.2c-0.2,0.3-1.1,1.2-1.4,1.7c-0.1,0.1-0.1,0.1-0.2,0
		c-0.5-0.3-1.5-1-1.7-1.4c-0.1-0.1-0.1-0.1,0-0.2c0.3-0.5,0.9-1.2,1.3-1.6c0.2-0.2,0.2-0.2,0.3-0.1
		C365.3,26.5,366.1,27.2,366.8,27.6z"/>
	<path class="st0" d="M375.6,12.8c0.2-0.2,0.2-0.2,0.3-0.1c0.5,0.5,1,1.1,1.5,1.4c0.2,0.1,0.2,0.2,0,0.3c-0.5,0.5-0.9,1-1.3,1.5
		c-0.1,0.1-0.2,0.1-0.3,0c-0.4-0.3-0.9-0.7-1.4-1.2c-0.3,0.3-0.9,1-1.1,1.2c-0.1,0.1-0.2,0.2-0.4,0c-0.5-0.3-1.1-0.9-1.5-1.4
		c-0.1-0.1-0.1-0.2,0-0.3c0.4-0.5,0.9-1,1.4-1.5c0.1-0.1,0.2-0.1,0.3,0.1c0.4,0.4,1,1,1.4,1.2C374.8,13.7,375.3,13,375.6,12.8z"/>
	<path class="st0" d="M369,17.8c-0.1-2-0.2-5.3-0.5-6.9c0,0,0-0.1,0-0.1c0-0.3,0.4-0.8,0.7-1.4c0.2-0.3,0.3-0.6,0.4-0.6
		c0.1,0,0.2,0.2,0.3,0.7c0.4,3.5,0.2,8.4,0.7,11.3c0.2,1,0.4,1.5,0.9,1.8c0.5,0.2,1.2,0.3,1.9,0.3c0.6,0,1.7,0,2.3-0.6
		c-0.1-0.9-0.7-2-1.1-2.4c0,0,0-0.1,0-0.1c0-0.2,0.5-1.4,0.7-1.8c0-0.1,0.1-0.1,0.1-0.1c0.1,0,0.3,0.2,0.4,0.5
		c0.5,0.8,0.7,1.9,0.7,3.1c0,0.9-0.1,2-0.8,2.7c-0.8,0.8-1.8,1.2-3.1,1.2c-0.8,0-1.7-0.2-2.2-0.8C369.4,23.4,369.1,22.3,369,17.8z"
		/>
	<path class="st0" d="M388.3,2.6c0,0.5-0.1,1-0.3,1.5c0.2,0.1,0.4,0.3,0.4,0.4c0,0.4-0.2,0.7-0.3,1c-0.1,0.1-0.1,0.1-0.1,0.1
		l-0.5-0.3c-0.5,0.8-1.3,1.8-2.5,2.3c-0.4,0.2-0.9,0.4-1.5,0.4c-0.3,0-0.4-0.1-0.4-0.1c0-0.1,0.2-0.2,0.6-0.4
		c0.9-0.5,2.5-1.8,3.1-2.5c-0.5-0.3-1.1-0.7-1.1-1.4c0-0.4,0.2-0.9,0.6-1.3c0.4-0.5,0.8-0.8,1.2-0.8C388.1,1.4,388.3,2.1,388.3,2.6z
		 M386.5,3.1C386.5,3.1,386.5,3.1,386.5,3.1c0,0.2,0.4,0.5,0.8,0.7c0.1-0.2,0.1-0.4,0.1-0.7c0-0.3-0.1-0.4-0.3-0.4
		C386.9,2.6,386.6,2.8,386.5,3.1z"/>
	<path class="st0" d="M387.8,9.9c0.2-0.2,0.2-0.2,0.3-0.1c0.5,0.5,1,1.1,1.5,1.4c0.2,0.1,0.2,0.2,0,0.3c-0.5,0.5-0.9,1-1.3,1.5
		c-0.1,0.1-0.2,0.1-0.3,0c-0.4-0.3-0.9-0.7-1.4-1.2c-0.3,0.3-0.9,1-1.1,1.2c-0.1,0.1-0.2,0.2-0.4,0c-0.5-0.3-1.1-0.9-1.5-1.4
		c-0.1-0.1-0.1-0.2,0-0.3c0.4-0.5,0.9-1,1.4-1.5c0.1-0.1,0.2-0.1,0.3,0.1c0.4,0.4,1,1,1.4,1.2C387,10.8,387.6,10.2,387.8,9.9z
		 M390.8,22.3c0.5,0.3,0.9,0.5,1.2,0.5h0.3c0.7,0,1.1,0.4,1.1,1.1c0,0.8-0.4,1.2-1.1,1.2H392c-0.8,0-1.5-0.3-2.3-0.9
		c-0.7-0.6-1.2-1.6-1.4-3c-0.2,0.4-0.4,0.7-0.8,1c-0.6,0.4-1.6,0.6-2.6,0.6c-0.7,0-1.4-0.1-1.4-0.7c0.3-2.2,0.6-2.6,1.7-3.4
		c0.5-0.4,1.8-1.2,2.3-1.6c0-0.2,0-0.4,0-0.5c0-0.5,0.1-0.8,0.4-1.2c0.2-0.3,0.3-0.5,0.4-0.5c0.1,0,0.2,0.2,0.2,0.5
		c0.3,2.1,0.5,3.8,0.8,4.8C389.5,21.1,390,21.8,390.8,22.3z M387.8,18.3c-0.9,0.6-2.5,1.6-2.6,1.9c0,0.2,0.3,0.2,0.7,0.2
		c0.6,0,1.5-0.2,2.2-0.5C388,19.3,387.9,19,387.8,18.3z"/>
	<path class="st0" d="M393.6,12.7c-0.4,0-0.7-0.2-0.8-0.4c-0.2-0.3-0.3-0.8-0.3-1.1c0-0.4,0-0.7,0.2-1c0.2-0.4,0.4-0.7,0.7-0.7
		c0.1,0,0.1,0.1,0.1,0.3c0,0.2-0.1,0.4-0.1,0.6c0,0.5,0.3,0.7,0.7,0.7c0.4,0,0.7-0.4,0.9-0.8c0.3-0.7,0.6-1,0.9-1
		c0.1,0,0.2,0.1,0.2,0.3c0,0.1,0,0.2,0,0.4c0,0.3,0.1,0.5,0.5,0.5c0.3,0,0.6-0.2,0.9-0.7c0.3-0.5,0.4-0.7,0.5-0.7
		c0.2,0,0.2,0.3,0.2,0.5c0,0.6-0.2,1.1-0.5,1.6c-0.3,0.4-0.7,0.9-1.4,0.9c-0.4,0-0.6-0.1-0.8-0.3c-0.1-0.1-0.2,0-0.3,0.2
		C394.6,12.4,394.1,12.7,393.6,12.7z"/>
	<path class="st0" d="M396.8,21.4c0,0.6,0.6,1.2,1.4,1.4c0.2,0,0.3,0,0.5,0h0.1c0.9,0,0.9,0.7,0.9,1c0,0.3,0,1.3-0.8,1.3h-0.2
		c-0.2,0-0.3,0-0.6,0c-1.5-0.2-2.1-1.5-2.2-1.7c-0.2,0.6-1.5,1.7-3.7,1.7h-0.1c-0.6,0-1-0.6-1-1.1s0.3-1.1,1-1.1h0.7
		c1,0,2.4-0.2,3.3-1.6c0.3-0.5,0.4-0.5,0.5-0.5C396.7,20.7,396.8,20.9,396.8,21.4z M397.6,15.6c0.1,0.1,0.1,0.1,0,0.2
		c-0.2,0.3-1.1,1.2-1.4,1.7c-0.1,0.1-0.1,0.1-0.2,0c-0.5-0.3-1.5-1-1.7-1.4c-0.1-0.1-0.1-0.1,0-0.2c0.3-0.5,0.9-1.2,1.3-1.6
		c0.2-0.2,0.2-0.2,0.3-0.1C396.2,14.5,396.9,15.1,397.6,15.6z"/>
	<path class="st0" d="M405.2,4.1c0,0.5-0.1,1-0.3,1.5c0.2,0.1,0.4,0.3,0.4,0.4c0,0.4-0.2,0.7-0.3,1C404.8,7,404.8,7,404.8,7
		l-0.5-0.3c-0.5,0.8-1.3,1.8-2.5,2.3c-0.4,0.2-0.9,0.4-1.5,0.4c-0.3,0-0.4-0.1-0.4-0.1c0-0.1,0.2-0.2,0.6-0.4
		c0.9-0.5,2.5-1.8,3.1-2.5c-0.5-0.3-1.1-0.7-1.1-1.4c0-0.4,0.2-0.9,0.6-1.3c0.4-0.5,0.8-0.8,1.2-0.8C404.9,2.9,405.1,3.6,405.2,4.1z
		 M403.3,4.6C403.3,4.6,403.3,4.6,403.3,4.6c0,0.2,0.4,0.5,0.8,0.7c0.1-0.2,0.1-0.4,0.1-0.7c0-0.3-0.1-0.4-0.3-0.4
		C403.7,4.1,403.5,4.3,403.3,4.6z"/>
	<path class="st0" d="M408.9,22.8c0.6,0,1,0.4,1,1.1c0,0.8-0.3,1.2-1,1.2h-0.2c-1-0.1-1.9-0.3-2.7-0.8c-0.8-0.5-1.1-0.9-1.6-1.7
		c-1.2,1.1-2.1,1.7-2.9,2c-0.8,0.3-1.7,0.5-2.7,0.5c-0.8,0-1.1-0.4-1.1-1.2c0-0.7,0.4-1.1,1.1-1.1h0.2c1.8,0,3-0.3,4.5-1.2
		c-0.5-0.7-1.7-1-2.3-1.1c-0.1,0-0.1-0.2-0.1-0.4c0-0.5,0.2-1.4,0.5-1.6c1-0.7,2.1-1.1,3.1-1.1c1,0,1.9,0.4,2.6,1.1
		c0.2,0.2,0.2,0.4,0.2,0.7c0,0.7-0.4,1.7-1.3,2.3c0.8,0.8,1.7,1.2,2.6,1.2H408.9z M405.5,12.6c0.1,0.1,0.1,0.1,0,0.2
		c-0.2,0.3-1.1,1.2-1.4,1.7c-0.1,0.1-0.1,0.1-0.2,0c-0.5-0.3-1.5-1-1.7-1.4c-0.1-0.1-0.1-0.1,0-0.2c0.3-0.5,0.9-1.2,1.3-1.6
		c0.2-0.2,0.2-0.2,0.3-0.1C404,11.5,404.8,12.2,405.5,12.6z"/>
	<path class="st0" d="M410.8,2.9c0.7,0,1.7,1,1.7,2.1c0,0.4-0.1,0.8-0.2,1.2c-0.3,0.8-0.9,1.3-1.8,1.3c-0.8,0-1.3-0.6-1.3-1.3
		C409.1,5.1,410.3,2.9,410.8,2.9z M410.6,4.5c-0.3,0-0.7,0.6-0.7,1c0,0.3,0.4,0.6,0.8,0.6c0.5,0,1.1-0.3,1.1-0.5
		C411.7,5.3,411.1,4.5,410.6,4.5z"/>
	<path class="st0" d="M411.1,24c-0.5,0.7-1.2,1-2.3,1h-0.2c-0.7,0-1-0.4-1-1.2c0-0.7,0.3-1.1,1-1.1h0.2c0.5,0,1-0.1,1.5-0.2
		c0.4-0.1,0.6-0.3,0.7-0.4c0-1.7-0.6-5.4-0.9-8.9c0-0.4-0.3-1.6-0.4-2.1c0-0.1,0-0.2,0-0.2c0-0.3,0.3-0.9,0.5-1.3
		c0.3-0.5,0.5-0.9,0.7-0.9c0.1,0,0.1,0.1,0.2,0.2c0.3,1,0.6,1.5,0.8,1.8c0.1,0.1,0.1,0.2,0.1,0.3c0,0,0,0.1,0,0.1
		c-0.1,0.2-0.4,0.8-0.6,1.1c0.2,3.4,0.7,6.2,0.7,7.8C412.1,21.7,411.7,23,411.1,24z"/>
	<path class="st0" d="M416.7,25.1c-0.1,0-0.2-0.2-0.2-0.7c0-3-1.1-11.3-1.1-12.7c0-0.7,0.5-1.7,0.9-2.5c0.1-0.2,0.3-0.5,0.5-0.5
		c0.1,0,0.2,0.2,0.2,0.8c0.1,2.2,0.7,7.3,0.7,11c0,1.5-0.1,2.7-0.4,3.5C417,24.7,416.8,25.1,416.7,25.1z"/>
	<path class="st0" d="M425,12.7c0.1-0.1,0.1,0,0.1,0.1c0,0.6-0.2,1.1-0.5,1.3l-4.1,2.3c-0.1,0-0.1,0-0.1-0.1c0-0.3,0.1-0.8,0.2-1
		c0.1-0.2,0.3-0.3,0.7-0.5L425,12.7z"/>
	<path class="st0" d="M425.8,20.9c0.3,0.9,0.5,1.8,0.5,3.1c0,4-1.1,6.5-4.2,7.7c-0.2,0.1-0.4,0.1-0.6,0.1c-1,0-2.6-0.5-4-1.1
		c-0.3-0.2-0.4-0.3-0.4-0.4c0-0.1,0.1-0.2,0.4-0.2c0.2,0,1.1,0.2,1.8,0.2c0.9,0,1.9-0.4,3.3-1.3c1.5-1,2.8-2.3,2.8-3.8
		c0-0.5-0.1-1-0.4-1.5c-0.3,0.7-0.8,1.1-1.5,1.1c-1.3,0-2.1-0.7-2.1-2.1c0-0.5,0.3-1.3,0.6-2.1c0.5-1,1.2-1.9,1.8-1.9
		C424.4,18.7,425.3,19.6,425.8,20.9z M423.3,21c-0.3,0-0.5,0.2-0.7,0.5c-0.1,0.1-0.2,0.4-0.2,0.5c0,0.4,0.6,0.6,1.1,0.6
		c0.4,0,0.7-0.2,0.8-0.4C424.3,21.5,423.6,21,423.3,21z"/>
	<path class="st0" d="M435.9,22.8c0.4,0.3,0.4,0.8,0.4,1.1c0,0.3-0.1,0.7-0.4,1c-0.3,0.3-0.7,0.4-1.1,0.4c-0.3,0-0.7-0.1-0.9-0.4
		c-0.3-0.3-0.4-0.7-0.4-1.1c0-0.4,0.2-0.7,0.4-1c0.3-0.2,0.6-0.4,1-0.4C435.3,22.4,435.7,22.6,435.9,22.8z"/>
	<path class="st0" d="M448.2,28.1c0.1-0.1,0.1,0,0.1,0.1c0,0.6-0.2,1.1-0.5,1.3l-4.1,2.3c-0.1,0-0.1,0-0.1-0.1c0-0.3,0.1-0.8,0.2-1
		c0.1-0.2,0.3-0.3,0.7-0.5L448.2,28.1z"/>
	<path class="st0" d="M439.6,25.8c-0.9-0.8-1.4-2.1-1.4-3.4c0-1.5,0.9-3.2,1.4-3.9c0.2-0.3,0.4-0.4,0.5-0.4c0.1,0,0.1,0.1,0.1,0.2
		c0,0.1-0.1,0.3-0.2,0.5c-0.4,0.9-0.9,1.8-0.9,2.9c0,0.8,0.6,1.6,1.4,2.1c0.8,0.5,1.7,0.8,2.7,0.8c2.4,0,5.7-1,6.4-2.7
		c0-0.2,0-0.3,0-0.4c0-1.1-0.3-2.3-0.9-3.1c-0.2-0.4-0.4-0.7-0.5-0.8c0,0,0-0.1,0-0.2c0-0.2,0.1-0.5,0.2-0.8
		c0.2-0.4,0.3-0.8,0.4-1.1c0.1-0.1,0.1-0.2,0.2-0.2c0.1,0,0.1,0,0.2,0.3c0.7,1.5,1.3,2.9,1.3,4.7c0,1.4-0.2,2.3-0.3,2.7
		c-0.4,0.9-0.6,1.3-1.1,1.8c-0.5,0.5-1.4,1.2-2.5,1.6c-1.1,0.5-2.4,0.7-4.1,0.7C441.5,26.9,440.4,26.6,439.6,25.8z M446.1,12
		c0.1,0.1,0.1,0.1,0,0.2c-0.2,0.3-1.1,1.2-1.4,1.7c-0.1,0.1-0.1,0.1-0.2,0c-0.5-0.3-1.5-1-1.7-1.4c-0.1-0.1-0.1-0.1,0-0.2
		c0.3-0.5,0.9-1.2,1.3-1.6c0.2-0.2,0.2-0.2,0.3-0.1C444.7,10.9,445.4,11.5,446.1,12z"/>
	<path class="st0" d="M456.7,25.1c-0.7,0-1.2-0.1-1.7-0.5c-0.7-0.6-1.1-1.7-1.3-3.1c-0.2-1.1-0.2-2.3-0.3-3.7
		c-0.1-2-0.2-5.1-0.5-6.9c0-0.1,0-0.2,0-0.2c0-0.1,0-0.2,0.2-0.4c0.3-0.5,0.5-0.8,0.7-1.2c0.2-0.3,0.2-0.3,0.3-0.3
		c0.1,0,0.2,0.2,0.3,0.7c0.4,3.5,0.1,8.4,0.6,11.1c0.1,0.7,0.2,0.9,0.4,1.3c0.3,0.6,0.7,0.9,1.4,1c0.8,0,1.2,0.4,1.2,1.1
		c0,0.9-0.4,1.2-1.1,1.2H456.7z"/>
	<path class="st0" d="M461.5,21.4c0,0.6,0.6,1.2,1.4,1.4c0.2,0,0.3,0,0.5,0h0.1c0.9,0,0.9,0.7,0.9,1c0,0.3,0,1.3-0.8,1.3h-0.2
		c-0.2,0-0.3,0-0.6,0c-1.5-0.2-2.1-1.5-2.2-1.7c-0.2,0.6-1.5,1.7-3.7,1.7h-0.1c-0.6,0-1-0.6-1-1.1s0.3-1.1,1-1.1h0.7
		c1,0,2.4-0.2,3.3-1.6c0.3-0.5,0.4-0.5,0.5-0.5C461.5,20.7,461.5,20.9,461.5,21.4z M461.3,14.6c0.2-0.2,0.2-0.2,0.3-0.1
		c0.5,0.5,1,1.1,1.5,1.4c0.2,0.1,0.2,0.2,0,0.3c-0.5,0.5-0.9,1-1.3,1.5c-0.1,0.1-0.2,0.1-0.3,0c-0.4-0.3-0.9-0.7-1.4-1.2
		c-0.3,0.3-0.9,1-1.1,1.2c-0.1,0.1-0.2,0.2-0.4,0c-0.5-0.3-1.1-0.9-1.5-1.4c-0.1-0.1-0.1-0.2,0-0.3c0.4-0.5,0.9-1,1.4-1.5
		c0.1-0.1,0.2-0.1,0.3,0.1c0.4,0.4,1,1,1.4,1.2C460.5,15.4,461.1,14.8,461.3,14.6z"/>
	<path class="st0" d="M475,9.2c0.1,0,0.1,0,0.1,0.1c0,0.3-0.5,1.3-0.7,1.6c0,0.1-0.1,0.1-0.2,0.2c-0.7,0.2-5.9,2.3-8.2,3.8
		c2.2,1.2,4.4,3.8,4.4,5.4c0,1.6-0.5,2.7-1.3,3.5c-1.4,0.8-3.2,1.2-5.4,1.2h-0.3c-0.4,0-0.7-0.5-0.7-1.1c0-0.6,0.3-1.1,0.7-1.1h0.2
		c3,0,5.4-0.7,5.9-1.2c0-1.4-2.4-3.7-4.2-4.6c-0.3-0.1-0.5-0.3-0.7-0.5c-0.1-0.2-0.2-0.5-0.2-0.9c0-0.5,0.1-1.1,0.4-1.4
		c0.7-0.7,1.4-1.2,2.9-2c2.8-1.5,5.7-2.5,6.8-2.9C474.6,9.3,474.9,9.2,475,9.2z"/>
	<path class="st0" d="M481.4,15.5c0.1-0.1,0.1,0,0.1,0.1c0,0.6-0.2,1.1-0.5,1.3l-4.1,2.3c-0.1,0-0.1,0-0.1-0.1c0-0.3,0.1-0.8,0.2-1
		c0.1-0.2,0.3-0.3,0.7-0.5L481.4,15.5z"/>
	<path class="st0" d="M482.9,22.8c0.7,0,1.1,0.4,1.1,1.1c0,0.8-0.4,1.2-1.1,1.2h-0.2c-0.6,0-1,0-1.3-0.1c0,0.1,0,0.2,0,0.3
		c0,0.7-0.1,1.5-0.4,2.1c-0.5,1.2-1.3,3.3-3.6,4.3c-0.4,0.2-0.8,0.3-1.2,0.3c-0.9,0-2.4-0.5-3.5-1c-0.3-0.2-0.4-0.3-0.4-0.4
		c0-0.1,0.1-0.2,0.4-0.2c0.3,0,0.8,0.1,1.3,0.1c3.1,0,6.2-2.7,6.6-5c0-0.5-1.1-1.6-1.3-1.9c0-0.1-0.1-0.2-0.1-0.3
		c0-0.5,0.4-1.5,0.6-1.8c0.1-0.2,0.2-0.2,0.3-0.2c0.2,0,0.3,0.2,0.6,0.7c0.4,0.6,0.9,0.9,1.8,0.9H482.9z"/>
	<path class="st0" d="M490.2,11.7c0.1-0.1,0.1,0,0.1,0.1c0,0.6-0.2,1.1-0.5,1.3l-4.1,2.3c-0.1,0-0.1,0-0.1-0.1c0-0.3,0.1-0.8,0.2-1
		c0.1-0.2,0.3-0.3,0.7-0.5L490.2,11.7z"/>
	<path class="st0" d="M485.7,19.8c-0.2,0-0.5,0-0.6,0.1c-0.2,0.1-0.6,0.3-0.8,0.3c-0.2,0-0.2-0.1-0.2-0.2c0-0.4,0.6-1.3,1.2-1.8
		c0.5-0.4,1-0.6,1.4-0.6c0.2,0,0.3,0,0.5,0.1c1.8,0.4,4.1,1.4,6,1.8c1.3,0.3,2.6,0.4,3.4,0.4c0.2,0,0.3,0,0.5,0c0.1,0,0.1,0,0.1,0.1
		c0,0.4-0.7,1.5-1.1,1.9c-0.1,0.1-0.3,0.1-0.6,0.1c-0.5,0-1.6-0.1-1.9-0.1c-0.9,0-1.6,0.1-2.2,0.3c-0.4,0.2-1.2,0.5-2.3,1
		c-1.7,0.8-2.8,1.4-3.6,1.7c-0.8,0.3-1.6,0.5-2.5,0.5h-0.3c-0.7,0-1.1-0.4-1.1-1.2c0-0.7,0.4-1.1,1.1-1.1h0.3c1.4,0,2.5-0.1,3.4-0.4
		c0.9-0.3,2.3-0.7,4-1.4C488.3,20.4,486.7,19.8,485.7,19.8z"/>
	<path class="st0" d="M507.4,17.7c0.3,0.3,0.4,0.7,0.4,1.1c0,0.2-0.1,0.7-0.4,0.9c-0.3,0.3-0.7,0.4-1.1,0.4c-0.3,0-0.7-0.1-0.9-0.4
		c-0.3-0.3-0.4-0.6-0.4-1c0-0.4,0.2-0.8,0.4-1c0.3-0.2,0.6-0.4,1-0.4C506.8,17.3,507.2,17.4,507.4,17.7z M507.4,22.9
		c0.3,0.3,0.4,0.8,0.4,1.1c0,0.3-0.1,0.7-0.4,1c-0.3,0.3-0.7,0.4-1.1,0.4c-0.3,0-0.6-0.2-0.9-0.4c-0.3-0.3-0.4-0.6-0.4-1
		c0-0.3,0.2-0.7,0.4-1c0.3-0.3,0.6-0.4,1-0.4C506.8,22.5,507.2,22.7,507.4,22.9z"/>
	<path class="st1" d="M521.1,26.1c0.1-0.1,0.1,0,0.1,0.1c0,0.6-0.2,1.1-0.5,1.3l-4.1,2.3c-0.1,0-0.1,0-0.1-0.1c0-0.3,0.1-0.8,0.2-1
		c0.1-0.2,0.3-0.3,0.7-0.5L521.1,26.1z"/>
	<path class="st1" d="M519.9,9.9c0.2-0.2,0.2-0.2,0.3-0.1c0.5,0.5,1,1.1,1.5,1.4c0.2,0.1,0.2,0.2,0,0.3c-0.5,0.5-0.9,1-1.3,1.5
		c-0.1,0.1-0.2,0.1-0.3,0c-0.4-0.3-0.9-0.7-1.4-1.2c-0.3,0.3-0.9,1-1.1,1.2c-0.1,0.1-0.2,0.2-0.4,0c-0.5-0.3-1.1-0.9-1.5-1.4
		c-0.1-0.1-0.1-0.2,0-0.3c0.4-0.5,0.9-1,1.4-1.5c0.1-0.1,0.2-0.1,0.3,0.1c0.4,0.4,1,1,1.4,1.2C519.1,10.8,519.7,10.2,519.9,9.9z
		 M522.9,22.3c0.5,0.3,0.9,0.5,1.2,0.5h0.3c0.7,0,1.1,0.4,1.1,1.1c0,0.8-0.4,1.2-1.1,1.2h-0.3c-0.8,0-1.5-0.3-2.3-0.9
		c-0.7-0.6-1.2-1.6-1.4-3c-0.2,0.4-0.4,0.7-0.8,1c-0.6,0.4-1.6,0.6-2.6,0.6c-0.7,0-1.4-0.1-1.4-0.7c0.3-2.2,0.6-2.6,1.7-3.4
		c0.5-0.4,1.8-1.2,2.3-1.6c0-0.2,0-0.4,0-0.5c0-0.5,0.1-0.8,0.4-1.2c0.2-0.3,0.3-0.5,0.4-0.5c0.1,0,0.2,0.2,0.2,0.5
		c0.3,2.1,0.5,3.8,0.8,4.8C521.6,21.1,522.1,21.8,522.9,22.3z M519.9,18.3c-0.9,0.6-2.5,1.6-2.6,1.9c0,0.2,0.3,0.2,0.7,0.2
		c0.6,0,1.5-0.2,2.2-0.5C520.1,19.3,520,19,519.9,18.3z"/>
	<path class="st1" d="M525.4,12.7c-0.7,0-1.1-0.7-1.1-1.5c0-0.2,0-0.5,0.1-0.8c0.1-0.2,0.2-0.8,0.5-0.8c0.1,0,0.2,0.2,0.2,0.6v0.3
		c0,0.3,0.2,0.5,0.6,0.5h0c0.5,0,0.8-0.3,0.9-1c0.1-0.3,0.2-1.1,0.6-1.1c0.1,0,0.2,0.2,0.2,0.5c0,0.2,0.1,0.3,0.4,0.3
		c0.5,0,0.8-0.3,0.9-0.8c0.1-0.7,0.2-0.8,0.4-0.8c0.2,0,0.3,0.7,0.3,1.1c0,0.3,0,0.6-0.2,1c-0.2,0.7-0.7,1.2-1.5,1.2
		c-0.2,0-0.4-0.1-0.5-0.1c-0.1-0.1-0.1,0-0.2,0.1C526.7,12.2,526.2,12.7,525.4,12.7z M529.3,5.8C529.4,5.8,529.4,5.8,529.3,5.8
		c0,0.5-0.2,0.9-0.4,1.2c-0.1,0.1-0.2,0.2-0.5,0.3l-4,1.9c0,0-0.1,0-0.1-0.1c0-0.2,0.1-0.5,0.2-0.7c0.2-0.3,0.2-0.4,0.3-0.5
		c0.1-0.1,0.2-0.1,0.3-0.2L529.3,5.8z"/>
	<path class="st1" d="M528.9,21.4c0,0.6,0.6,1.2,1.4,1.4c0.2,0,0.3,0,0.5,0h0.1c0.9,0,0.9,0.7,0.9,1c0,0.3,0,1.3-0.8,1.3h-0.2
		c-0.2,0-0.3,0-0.6,0c-1.5-0.2-2.1-1.5-2.2-1.7c-0.2,0.6-1.5,1.7-3.7,1.7h-0.1c-0.6,0-1-0.6-1-1.1s0.3-1.1,1-1.1h0.7
		c1,0,2.4-0.2,3.3-1.6c0.3-0.5,0.4-0.5,0.5-0.5C528.8,20.7,528.9,20.9,528.9,21.4z M529.7,15.6c0.1,0.1,0.1,0.1,0,0.2
		c-0.2,0.3-1.1,1.2-1.4,1.7c-0.1,0.1-0.1,0.1-0.2,0c-0.5-0.3-1.5-1-1.7-1.4c-0.1-0.1-0.1-0.1,0-0.2c0.3-0.5,0.9-1.2,1.3-1.6
		c0.2-0.2,0.2-0.2,0.3-0.1C528.3,14.5,529,15.1,529.7,15.6z"/>
	<path class="st1" d="M537.3,4.1c0,0.5-0.1,1-0.3,1.5c0.2,0.1,0.4,0.3,0.4,0.4c0,0.4-0.2,0.7-0.3,1C536.9,7,536.9,7,536.9,7
		l-0.5-0.3c-0.5,0.8-1.3,1.8-2.5,2.3c-0.4,0.2-0.9,0.4-1.5,0.4c-0.3,0-0.4-0.1-0.4-0.1c0-0.1,0.2-0.2,0.6-0.4
		c0.9-0.5,2.5-1.8,3.1-2.5c-0.5-0.3-1.1-0.7-1.1-1.4c0-0.4,0.2-0.9,0.6-1.3c0.4-0.5,0.8-0.8,1.2-0.8C537,2.9,537.2,3.6,537.3,4.1z
		 M535.4,4.6C535.4,4.6,535.4,4.6,535.4,4.6c0,0.2,0.4,0.5,0.8,0.7c0.1-0.2,0.1-0.4,0.1-0.7c0-0.3-0.1-0.4-0.3-0.4
		C535.8,4.1,535.6,4.3,535.4,4.6z"/>
	<path class="st1" d="M541,22.8c0.6,0,1,0.4,1,1.1c0,0.8-0.3,1.2-1,1.2h-0.2c-1-0.1-1.9-0.3-2.7-0.8c-0.8-0.5-1.1-0.9-1.6-1.7
		c-1.2,1.1-2.1,1.7-2.9,2c-0.8,0.3-1.7,0.5-2.7,0.5c-0.8,0-1.1-0.4-1.1-1.2c0-0.7,0.4-1.1,1.1-1.1h0.2c1.8,0,3-0.3,4.5-1.2
		c-0.5-0.7-1.7-1-2.3-1.1c-0.1,0-0.1-0.2-0.1-0.4c0-0.5,0.2-1.4,0.5-1.6c1-0.7,2.1-1.1,3.1-1.1c1,0,1.9,0.4,2.6,1.1
		c0.2,0.2,0.2,0.4,0.2,0.7c0,0.7-0.4,1.7-1.3,2.3c0.8,0.8,1.7,1.2,2.6,1.2H541z M537.6,12.6c0.1,0.1,0.1,0.1,0,0.2
		c-0.2,0.3-1.1,1.2-1.4,1.7c-0.1,0.1-0.1,0.1-0.2,0c-0.5-0.3-1.5-1-1.7-1.4c-0.1-0.1-0.1-0.1,0-0.2c0.3-0.5,0.9-1.2,1.3-1.6
		c0.2-0.2,0.2-0.2,0.3-0.1C536.1,11.5,536.9,12.2,537.6,12.6z"/>
	<path class="st1" d="M542.9,2.9c0.7,0,1.7,1,1.7,2.1c0,0.4-0.1,0.8-0.2,1.2c-0.3,0.8-0.9,1.3-1.8,1.3c-0.8,0-1.3-0.6-1.3-1.3
		C541.2,5.1,542.4,2.9,542.9,2.9z M542.7,4.5c-0.3,0-0.7,0.6-0.7,1c0,0.3,0.4,0.6,0.8,0.6c0.5,0,1.1-0.3,1.1-0.5
		C543.8,5.3,543.2,4.5,542.7,4.5z"/>
	<path class="st1" d="M543.2,24c-0.5,0.7-1.2,1-2.3,1h-0.2c-0.7,0-1-0.4-1-1.2c0-0.7,0.3-1.1,1-1.1h0.2c0.5,0,1-0.1,1.5-0.2
		c0.4-0.1,0.6-0.3,0.7-0.4c0-1.7-0.6-5.4-0.9-8.9c0-0.4-0.3-1.6-0.4-2.1c0-0.1,0-0.2,0-0.2c0-0.3,0.3-0.9,0.5-1.3
		c0.3-0.5,0.5-0.9,0.7-0.9c0.1,0,0.1,0.1,0.2,0.2c0.3,1,0.6,1.5,0.8,1.8c0.1,0.1,0.1,0.2,0.1,0.3c0,0,0,0.1,0,0.1
		c-0.1,0.2-0.4,0.8-0.6,1.1c0.2,3.4,0.7,6.2,0.7,7.8C544.2,21.7,543.8,23,543.2,24z"/>
	<path class="st1" d="M548.8,25.1c-0.1,0-0.2-0.2-0.2-0.7c0-3-1.1-11.3-1.1-12.7c0-0.7,0.5-1.7,0.9-2.5c0.1-0.2,0.3-0.5,0.5-0.5
		c0.1,0,0.2,0.2,0.2,0.8c0.1,2.2,0.7,7.3,0.7,11c0,1.5-0.1,2.7-0.4,3.5C549.1,24.7,548.9,25.1,548.8,25.1z"/>
	<path class="st1" d="M564.7,11.9c0,0.5-0.1,1-0.3,1.5c0.2,0.1,0.4,0.3,0.4,0.4c0,0.4-0.2,0.7-0.3,1c-0.1,0.1-0.1,0.1-0.1,0.1
		l-0.5-0.3c-0.5,0.8-1.3,1.8-2.5,2.3c-0.4,0.2-0.9,0.4-1.5,0.4c-0.3,0-0.4-0.1-0.4-0.1c0-0.1,0.2-0.2,0.6-0.4
		c0.9-0.5,2.5-1.8,3.1-2.5c-0.5-0.3-1.1-0.7-1.1-1.4c0-0.4,0.2-0.9,0.6-1.3c0.4-0.5,0.8-0.8,1.2-0.8
		C564.5,10.7,564.7,11.4,564.7,11.9z M562.9,12.4C562.9,12.4,562.9,12.4,562.9,12.4c0,0.2,0.4,0.5,0.8,0.7c0.1-0.2,0.1-0.4,0.1-0.7
		c0-0.3-0.1-0.4-0.3-0.4C563.3,11.9,563,12.1,562.9,12.4z"/>
	<path class="st1" d="M565.4,24.3c0,3.4-1.5,6-4.2,7.1c-0.2,0.1-0.4,0.1-0.6,0.1c-0.9,0-2.8-0.5-4.1-1.1c-0.3-0.2-0.4-0.3-0.4-0.4
		c0-0.1,0.2-0.2,0.3-0.2c0.3,0,1.1,0.2,1.8,0.2c0.7,0,1.2-0.2,2.2-0.6c1.1-0.5,3.3-2.3,3.8-3.8c0.1-0.2,0.1-0.6,0.1-0.7
		c0-0.1-0.1-1-1-2.4c-0.3-0.5-0.5-0.8-0.8-1.2c-0.1-0.1-0.1-0.1-0.1-0.2c0-0.3,0.4-1.3,0.6-1.7c0.1-0.1,0.1-0.2,0.2-0.2
		c0.5,0,1.4,1.7,1.8,3.1C565.4,23,565.4,23.6,565.4,24.3z"/>
	<path class="st1" d="M569.3,25.1c-0.1,0-0.2-0.2-0.2-0.7c0-3-1.1-11.3-1.1-12.7c0-0.7,0.5-1.7,0.9-2.5c0.1-0.2,0.3-0.5,0.5-0.5
		c0.1,0,0.2,0.2,0.2,0.8c0.1,2.2,0.7,7.3,0.7,11c0,1.5-0.1,2.7-0.4,3.5C569.6,24.7,569.5,25.1,569.3,25.1z"/>
	<path class="st1" d="M583,22.8h0.3c0.7,0,1,0.4,1,1.1c0,0.8-0.4,1.2-1,1.2H583c-0.8,0-1.4-0.3-1.8-0.7c-0.5-0.4-0.8-1-1.1-1.9
		c-0.3,1.6-2.2,2.6-4.6,2.6c-0.7,0-1.5-0.1-2.1-0.5c-0.4-0.3-0.7-0.6-0.7-1.1c0-0.5,0.1-1.3,0.4-1.9c0.1-0.2,0.2-0.3,0.3-0.3
		c0.1,0,0.2,0.1,0.3,0.3c0.2,0.7,1.2,1,2.3,1c2.1,0,3.1-0.5,3.6-1.3c0-0.2,0.1-0.4,0.1-0.7c0-1.3-0.4-2.9-0.7-4.4
		c0-0.2-0.1-0.3-0.1-0.5c0-0.1,0.1-0.4,0.5-1.4c0.2-0.4,0.3-0.6,0.4-0.6c0.1,0,0.2,0.2,0.3,0.6c0.8,3.3,0.8,5.6,1.2,7
		c0.1,0.4,0.2,0.6,0.5,0.9C582.2,22.6,582.6,22.8,583,22.8z"/>
	<path class="st1" d="M587.2,4.4c0.7,0,1.7,1,1.7,2.1c0,0.4-0.1,0.8-0.2,1.2c-0.3,0.8-0.9,1.3-1.8,1.3c-0.8,0-1.3-0.6-1.3-1.3
		C585.6,6.6,586.7,4.4,587.2,4.4z M587,6c-0.3,0-0.7,0.6-0.7,1c0,0.3,0.4,0.6,0.8,0.6c0.5,0,1.1-0.3,1.1-0.5
		C588.2,6.8,587.6,6,587,6z"/>
	<path class="st1" d="M591,22.8c0.7,0,1,0.4,1,1.1c0,0.8-0.3,1.2-1,1.2h-0.3c-2.1,0-3.4-0.4-4.3-1c-0.8,0.5-1.9,1-3.2,1H583
		c-0.6,0-0.9-0.4-0.9-1.2c0-0.7,0.3-1.1,1-1.1h0.2c0.9,0,1.4-0.1,1.7-0.4c-0.1-0.2-0.1-0.5-0.1-0.8c0-2.3,2.6-5.1,4-5.1
		c0.8,0,1.3,1,1.3,2.2c0,1.3-0.5,2.8-1.5,3.7c0.5,0.2,1.2,0.4,2.1,0.4H591z M588.5,10.9c0.2-0.2,0.2-0.2,0.3-0.1
		c0.5,0.5,1,1.1,1.5,1.4c0.2,0.1,0.2,0.2,0,0.3c-0.5,0.5-0.9,1-1.3,1.5c-0.1,0.1-0.2,0.1-0.3,0c-0.4-0.3-0.9-0.7-1.4-1.2
		c-0.3,0.3-0.9,1-1.1,1.2c-0.1,0.1-0.2,0.2-0.4,0c-0.5-0.3-1.1-0.9-1.5-1.4c-0.1-0.1-0.1-0.2,0-0.3c0.4-0.5,0.9-1,1.4-1.5
		c0.1-0.1,0.2-0.1,0.3,0.1c0.4,0.4,1,1,1.4,1.2C587.7,11.7,588.2,11.1,588.5,10.9z M587.8,18.9c-0.8,0-1.6,0.9-1.6,1.2
		c0,0.5,0.4,0.9,1.2,1.4c0.3-0.1,1.4-1,1.4-1.3C588.8,19.3,588.6,18.9,587.8,18.9z"/>
	<path class="st1" d="M598.9,27c0.1-0.1,0.1,0,0.1,0.1c0,0.6-0.2,1.1-0.5,1.3l-4.1,2.3c-0.1,0-0.1,0-0.1-0.1c0-0.3,0.1-0.8,0.2-1
		c0.1-0.2,0.3-0.3,0.7-0.5L598.9,27z"/>
	<path class="st1" d="M591,25.1h-0.1c-0.7,0-1-0.4-1-1.2c0-0.7,0.4-1.1,1-1.1h0.1c1.2,0,2.2-0.5,2.9-1.4l1.3-2
		c0.7-1.1,1.7-1.5,2.2-1.5c1.7,0,2.4,2.9,2.4,4.1c0,1-1.1,2.4-1.6,2.4c-0.8,0-2.8-1-3.8-1.9C593.3,24.3,592.2,25.1,591,25.1z
		 M596.3,19.9c-0.2,0-0.3,0.1-0.5,0.3c-0.1,0.1-0.2,0.3-0.3,0.5c0.5,0.3,1.9,1,2.5,1.4C597.9,21.3,596.9,19.9,596.3,19.9z"/>
	<g>
		<g>
			<circle class="st2" cx="627.6" cy="18.1" r="9.1"/>
		</g>
		<g>
			<linearGradient id="SVGID_1_" gradientUnits="userSpaceOnUse" x1="627.5723" y1="27.2354" x2="627.5723" y2="14.4961">
				<stop  offset="0" style="stop-color:#B1650C;stop-opacity:0"/>
				<stop  offset="0.1413" style="stop-color:#B1650C;stop-opacity:0.1413"/>
				<stop  offset="1" style="stop-color:#B1650C"/>
			</linearGradient>
			<path class="st3" d="M627.6,20.4c-4.8,0-8.8-1.1-9.1-5.9c0,0.2,0,3.4,0,3.6c0,5,4.1,9.1,9.1,9.1c5.1,0,9.1-4.1,9.1-9.1
				c0-0.2,0-3.4,0-3.6C636.4,19.3,632.4,20.4,627.6,20.4z"/>
		</g>
		<g>
			<ellipse class="st4" cx="627.6" cy="13.9" rx="6.6" ry="4.7"/>
		</g>
		<ellipse class="st5" cx="627.3" cy="10" rx="1.3" ry="0.8"/>
		<g>
			<circle class="st6" cx="627.6" cy="18.2" r="5.6"/>
			<circle class="st6" cx="627.6" cy="17" r="5.6"/>
			<linearGradient id="SVGID_2_" gradientUnits="userSpaceOnUse" x1="627.5723" y1="22.5459" x2="627.5723" y2="11.4297">
				<stop  offset="0" style="stop-color:#428D6B"/>
				<stop  offset="0.2212" style="stop-color:#2E7568"/>
				<stop  offset="0.5194" style="stop-color:#195B65"/>
				<stop  offset="0.7881" style="stop-color:#0C4B63"/>
				<stop  offset="1" style="stop-color:#084662"/>
			</linearGradient>
			<circle class="st7" cx="627.6" cy="17" r="5.6"/>
			<linearGradient id="SVGID_3_" gradientUnits="userSpaceOnUse" x1="627.5723" y1="17.9684" x2="627.5723" y2="12.4103">
				<stop  offset="0" style="stop-color:#FFC27A;stop-opacity:0"/>
				<stop  offset="1" style="stop-color:#FFC27A"/>
			</linearGradient>
			<circle class="st8" cx="627.6" cy="15.2" r="2.8"/>
			<linearGradient id="SVGID_4_" gradientUnits="userSpaceOnUse" x1="627.5723" y1="17.9684" x2="627.5723" y2="12.4103">
				<stop  offset="0" style="stop-color:#FFC27A;stop-opacity:0"/>
				<stop  offset="1" style="stop-color:#FFC27A"/>
			</linearGradient>
			<circle class="st9" cx="627.6" cy="15.2" r="2.8"/>
		</g>
		<ellipse class="st0" cx="627.4" cy="13.6" rx="1.2" ry="0.8"/>
	</g>
</g>
</svg>
