<?xml version="1.0" encoding="utf-8"?>
<!-- Generator: Adobe Illustrator 19.2.0, SVG Export Plug-In . SVG Version: 6.00 Build 0)  -->
<svg version="1.1" id="Layer_1" xmlns="http://www.w3.org/2000/svg" xmlns:xlink="http://www.w3.org/1999/xlink" x="0px" y="0px"
	 viewBox="0 0 646.8 42" style="enable-background:new 0 0 646.8 42;" xml:space="preserve">
<style type="text/css">
	.st0{fill:#FFFF00;}
	.st1{fill:#FFFFFF;}
	.st2{fill:#BF8138;}
	.st3{fill:url(#SVGID_1_);}
	.st4{fill:#F2C671;}
	.st5{opacity:0.5;fill:#FFFFFF;}
	.st6{fill:none;stroke:#002640;stroke-width:2.398;stroke-linecap:round;stroke-linejoin:round;stroke-miterlimit:10;}
	.st7{fill:url(#SVGID_2_);}
	.st8{fill:url(#SVGID_3_);}
	.st9{fill:url(#SVGID_4_);}
</style>
<g>
	<path class="st0" d="M537.8,19.6c0.3,0.3,0.4,0.7,0.4,1.1c0,0.2-0.1,0.7-0.4,0.9c-0.3,0.3-0.7,0.4-1.1,0.4c-0.3,0-0.7-0.1-0.9-0.4
		c-0.3-0.3-0.4-0.6-0.4-1c0-0.4,0.2-0.8,0.4-1c0.3-0.2,0.6-0.4,1-0.4C537.2,19.2,537.6,19.4,537.8,19.6z M537.8,24.8
		c0.3,0.3,0.4,0.8,0.4,1.1c0,0.3-0.1,0.7-0.4,1c-0.3,0.3-0.7,0.4-1.1,0.4c-0.3,0-0.6-0.2-0.9-0.4c-0.3-0.3-0.4-0.6-0.4-1
		c0-0.3,0.2-0.7,0.4-1c0.3-0.3,0.6-0.4,1-0.4C537.2,24.4,537.6,24.6,537.8,24.8z"/>
	<path class="st0" d="M550.3,4.8c0.1-0.1,0.1,0,0.1,0.1c0,0.6-0.2,1.1-0.5,1.3l-4,2.3c-0.1,0-0.1,0-0.1-0.1c0-0.3,0.1-0.8,0.2-1
		c0.1-0.2,0.3-0.3,0.7-0.5L550.3,4.8z M550.3,6.8c0.1-0.1,0.1,0,0.1,0.1c0,0.6-0.2,1.1-0.5,1.3l-4,2.3c-0.1,0-0.1,0-0.1-0.1
		c0-0.3,0.1-0.8,0.2-1c0.1-0.2,0.3-0.3,0.7-0.5L550.3,6.8z"/>
	<path class="st0" d="M550.9,27c-0.7,0-1.2-0.1-1.7-0.5c-0.7-0.6-1.1-1.7-1.3-3.1c-0.2-1.1-0.2-2.3-0.3-3.7c-0.1-2-0.2-5.1-0.5-6.9
		c0-0.1,0-0.2,0-0.2c0-0.1,0-0.2,0.2-0.4c0.3-0.5,0.5-0.8,0.7-1.2c0.2-0.3,0.2-0.3,0.3-0.3c0.1,0,0.2,0.2,0.3,0.7
		c0.4,3.5,0.1,8.4,0.6,11.1c0.1,0.7,0.2,0.9,0.4,1.3c0.3,0.6,0.7,0.9,1.4,1c0.8,0,1.2,0.4,1.2,1.1c0,0.9-0.4,1.2-1.1,1.2H550.9z"/>
	<path class="st0" d="M553.9,21.7c-0.2,0-0.5,0-0.6,0.1c-0.2,0.1-0.6,0.3-0.8,0.3c-0.2,0-0.2-0.1-0.2-0.2c0-0.4,0.6-1.3,1.2-1.8
		c0.5-0.4,1-0.6,1.4-0.6c0.2,0,0.3,0,0.5,0.1c1.8,0.4,4.1,1.4,6,1.8c1.3,0.3,2.6,0.4,3.4,0.4c0.2,0,0.3,0,0.5,0c0.1,0,0.1,0,0.1,0.1
		c0,0.4-0.7,1.5-1.1,1.9c-0.1,0.1-0.3,0.1-0.6,0.1c-0.5,0-1.6-0.1-1.9-0.1c-0.9,0-1.6,0.1-2.2,0.3c-0.4,0.2-1.2,0.5-2.3,1
		c-1.7,0.8-2.8,1.4-3.6,1.7c-0.8,0.3-1.6,0.5-2.5,0.5h-0.3c-0.7,0-1.1-0.4-1.1-1.2c0-0.7,0.4-1.1,1.1-1.1h0.3c1.4,0,2.5-0.1,3.4-0.4
		c0.9-0.3,2.3-0.7,4-1.4C556.6,22.3,555,21.7,553.9,21.7z"/>
	<path class="st0" d="M575.7,24.4c0.2,0.2,0.6,0.3,1,0.3h0.2c0.6,0,1,0.4,1,1.1c0,0.8-0.3,1.1-1,1.1h-0.3c-0.5,0-1-0.1-1.5-0.4
		c-0.8-0.5-1.1-1.3-1.4-3c-0.2-1.2-0.3-2.3-0.3-2.9c0-0.2-0.1-0.4-0.1-0.4c0,0-0.1,0.1-0.1,0.3c-0.2,2.6-0.6,4.1-2,6
		c-0.4,0.6-1.3,0.9-2.2,1.1c-0.8,0.2-2.4,0.4-3.3,0.4c-0.3,0-0.5,0-0.5-0.1c0-0.1,0.3-0.3,1-0.7c1.6-0.8,4.5-3,5.4-4.6
		c0-1.1-0.8-2.4-1.1-2.9c-1-1.9-2.7-3.4-4-4c-0.2,0.2-0.4,0.5-0.8,0.5c-0.5,0-1.5-0.5-2.4-1.6c-0.2-0.3-0.3-0.9-0.3-1.5
		c0-0.7,0.2-1.4,0.5-1.4c0.3,0,0.9,0.2,1.3,0.4c2.4,1,5.7,3.7,6.7,6.8c0.3,0.9,0.5,1.9,0.5,2.8c0.6-1.4,0.7-3,0.7-4.5
		c0-1.8-0.2-3.6-0.2-4.8c0.2-0.6,0.8-2.1,1.1-2.1c0.2,0,0.2,0.6,0.2,0.7c0.1,0.6,0.1,1.7,0.2,2.8c0.1,1.2,0.2,4.6,0.5,7.1
		C574.7,23.1,574.9,23.8,575.7,24.4z"/>
	<path class="st0" d="M583.1,28.8c0.1-0.1,0.1,0,0.1,0.1c0,0.6-0.2,1.1-0.5,1.3l-4.1,2.3c-0.1,0-0.1,0-0.1-0.1c0-0.3,0.1-0.8,0.2-1
		c0.1-0.2,0.3-0.3,0.7-0.5L583.1,28.8z"/>
	<path class="st0" d="M580.5,20c0,0.9-0.1,1.7-0.3,2.4c2.1-1.7,3.9-2.7,4.9-2.7c0.5,0,1.3,0.1,1.9,0.4c0.8,0.4,1.1,0.8,1.1,1.5
		c0,1.2-0.9,3-1.8,3.5c0.8-0.2,1.7-0.4,2.5-0.4h0.3c0.7,0,1,0.4,1,1.1c0,0.8-0.3,1.2-1,1.2h-0.4c-4.4,0.2-6.5,0.2-7.4,0.2
		c-1.2,0-2.7,0-4.6-0.2h-0.3c-0.7,0-1-0.4-1-1.1c0-0.8,0.3-1.1,1-1.1h1.1c0.4-0.4,1.1-1.1,1.9-1.8c0-0.4,0-0.9,0-1.2
		c0-2.9-0.5-5.5-0.7-7.1c-0.1-0.4-0.3-1.3-0.4-1.7c0-0.1,0-0.2,0-0.3c0-0.2,0.2-0.6,0.4-1c0.2-0.5,0.6-1.1,0.7-1.1
		c0.1,0,0.1,0.1,0.2,0.2c0.3,0.9,0.6,1.4,0.8,1.8c0,0.1,0.1,0.2,0.1,0.2s0,0.1,0,0.2c-0.1,0.2-0.4,0.8-0.6,1.1
		C580.2,16.2,580.5,18.3,580.5,20z M584.1,21.6c-1.9,0-3.7,1.4-5.4,3.1c3.4-0.2,6.7-0.8,8.1-1.8C586.2,22.2,585.1,21.6,584.1,21.6z"
		/>
	<path class="st0" d="M595.1,13c0.7,0,1.7,1,1.7,2.1c0,0.4-0.1,0.8-0.2,1.2c-0.3,0.8-0.9,1.3-1.8,1.3c-0.8,0-1.3-0.6-1.3-1.3
		C593.5,15.2,594.6,13,595.1,13z M594.9,14.6c-0.3,0-0.7,0.6-0.7,1c0,0.3,0.4,0.6,0.8,0.6c0.5,0,1.1-0.3,1.1-0.5
		C596.1,15.4,595.5,14.6,594.9,14.6z"/>
	<path class="st0" d="M593.3,28.2c-0.1,0-0.1-0.1-0.1-0.2c0-0.1,0-0.2,0.1-0.3c0.1-0.3,0.3-0.7,0.5-1.1c-1-0.4-1.7-1-2-1.9
		c-0.8,1.5-1.6,2.3-2.6,2.3h-0.2c-0.7,0-1-0.4-1-1.1c0-0.8,0.3-1.1,1-1.1h0.2c1.3,0,2.2-0.8,2.8-2.3c0.3-0.6,0.5-0.9,0.6-0.9
		c0.2,0,0.3,0.2,0.3,0.7c0,0.8,0.5,1.9,2.3,2.3c2-2.5,5.6-5.5,7.2-5.5c0.6,0,1.3,0.2,1.9,0.6c0.7,0.5,0.9,1,0.9,1.5
		c0,0.8-0.4,2.2-1.1,3.1c-0.8,0.9-2.6,1.8-4.5,2.2c-1.1,0.3-2.3,0.4-3.3,0.4c-0.7,0-1.3-0.1-1.8-0.2c-0.2,0.3-0.4,0.7-0.6,1
		C593.6,27.9,593.5,28.2,593.3,28.2z M603.7,22.9c0-0.6-1.6-1.5-2.5-1.5c-1.5,0-3.9,1.8-5.3,3.3c0.2,0,0.4,0,0.7,0
		C599.4,24.7,602.9,23.5,603.7,22.9C603.7,22.9,603.7,22.9,603.7,22.9z"/>
	<path class="st0" d="M609.1,27c-0.1,0-0.2-0.2-0.2-0.7c0-3-1.1-11.3-1.1-12.7c0-0.7,0.5-1.7,0.9-2.5c0.1-0.2,0.3-0.5,0.5-0.5
		c0.1,0,0.2,0.2,0.2,0.8c0.1,2.2,0.7,7.3,0.7,11c0,1.5-0.1,2.7-0.4,3.5C609.5,26.6,609.3,27,609.1,27z"/>
	<path class="st1" d="M2.4,24.7c0.4,0.3,0.4,0.8,0.4,1.1c0,0.3-0.1,0.7-0.4,1c-0.3,0.3-0.7,0.4-1.1,0.4c-0.3,0-0.7-0.1-0.9-0.4
		C0.1,26.6,0,26.2,0,25.8c0-0.4,0.2-0.7,0.4-1c0.3-0.2,0.6-0.4,1-0.4C1.7,24.4,2.1,24.5,2.4,24.7z"/>
	<path class="st1" d="M15.3,28.7c0.1-0.1,0.1,0,0.1,0.1c0,0.6-0.2,1.1-0.5,1.3l-4.1,2.3c-0.1,0-0.1,0-0.1-0.1c0-0.3,0.1-0.8,0.2-1
		c0.1-0.2,0.3-0.3,0.7-0.5L15.3,28.7z"/>
	<path class="st1" d="M17.1,24.3c0.5,0.3,0.9,0.5,1.2,0.5h0.3c0.7,0,1.1,0.4,1.1,1.1c0,0.8-0.4,1.2-1.1,1.2h-0.3
		c-0.8,0-1.5-0.3-2.3-0.9c-0.7-0.6-1.2-1.6-1.4-3c-0.2,0.4-0.4,0.7-0.8,1c-0.6,0.4-1.6,0.6-2.6,0.6c-0.7,0-1.4-0.1-1.4-0.7
		c0.3-2.2,0.6-2.6,1.7-3.4c0.5-0.4,1.8-1.2,2.3-1.6c0-0.2,0-0.4,0-0.5c0-0.5,0.1-0.8,0.4-1.2c0.2-0.3,0.3-0.5,0.4-0.5
		c0.1,0,0.2,0.2,0.2,0.5c0.3,2.1,0.5,3.8,0.8,4.8C15.9,23,16.4,23.7,17.1,24.3z M14.1,20.2c-0.9,0.6-2.5,1.6-2.6,1.9
		c0,0.2,0.3,0.2,0.7,0.2c0.6,0,1.5-0.2,2.2-0.5C14.3,21.2,14.3,20.9,14.1,20.2z"/>
	<path class="st1" d="M23.1,23.3c0,0.6,0.6,1.2,1.4,1.4c0.2,0,0.3,0,0.5,0h0.1c0.9,0,0.9,0.7,0.9,1c0,0.3,0,1.3-0.8,1.3H25
		c-0.2,0-0.3,0-0.6,0c-1.5-0.2-2.1-1.5-2.2-1.7C22,25.9,20.7,27,18.5,27h-0.1c-0.6,0-1-0.6-1-1.1c0-0.6,0.3-1.1,1-1.1h0.7
		c1,0,2.4-0.2,3.3-1.6c0.3-0.5,0.4-0.5,0.5-0.5C23,22.6,23.1,22.8,23.1,23.3z M23,30.1c0.2-0.2,0.2-0.2,0.3-0.1
		c0.5,0.5,1,1.1,1.5,1.4c0.2,0.1,0.2,0.2,0,0.3c-0.5,0.5-0.9,1-1.3,1.5c-0.1,0.1-0.2,0.1-0.3,0c-0.4-0.3-0.9-0.7-1.4-1.2
		c-0.3,0.3-0.9,1-1.1,1.2c-0.1,0.1-0.2,0.2-0.4,0c-0.5-0.3-1.1-0.9-1.5-1.4c-0.1-0.1-0.1-0.2,0-0.3c0.4-0.5,0.9-1,1.4-1.5
		c0.1-0.1,0.2-0.1,0.3,0.1c0.4,0.4,1,1,1.4,1.2C22.2,30.9,22.7,30.3,23,30.1z"/>
	<path class="st1" d="M30.9,28.7c0.1-0.1,0.1,0,0.1,0.1c0,0.6-0.2,1.1-0.5,1.3l-4.1,2.3c-0.1,0-0.1,0-0.1-0.1c0-0.3,0.1-0.8,0.2-1
		c0.1-0.2,0.3-0.3,0.7-0.5L30.9,28.7z"/>
	<path class="st1" d="M30.8,21.8c0,1.2-0.4,2.9-0.9,3.7c-0.2,0.3-0.9,0.7-1.4,0.8C27.1,26.8,26,27,25.2,27H25c-0.6,0-1-0.4-1-1.2
		c0-0.7,0.3-1.1,1-1.1h0.2c1.3,0,2.8-0.2,3.7-0.5c0.8-0.3,0.9-0.3,0.9-1.1c0-0.5-0.1-0.8-0.3-1.3c-0.2,0.5-0.9,1-1.8,1
		c-1.1,0-1.8-0.7-1.8-2c0-1.8,1.4-4.1,2-4.1C29.7,16.8,30.8,20.2,30.8,21.8z M29.4,11.9c0.1,0.1,0.1,0.1,0,0.2
		c-0.2,0.3-1.1,1.2-1.4,1.7c-0.1,0.1-0.1,0.1-0.2,0c-0.5-0.3-1.5-1-1.7-1.4c-0.1-0.1-0.1-0.1,0-0.2c0.3-0.5,0.9-1.2,1.3-1.6
		c0.2-0.2,0.2-0.2,0.3-0.1C28,10.8,28.7,11.4,29.4,11.9z M28.3,19.3c-0.2-0.2-0.5-0.3-0.7-0.3c-0.2,0-0.4,0.1-0.5,0.4
		c-0.1,0.2-0.2,0.4-0.2,0.5c0,0.5,0.5,0.6,1,0.6c0.5,0,0.9-0.2,0.9-0.5C28.8,20,28.6,19.5,28.3,19.3z"/>
	<path class="st1" d="M47.9,30C48,30,48,30,48,30.1c0,0.6-0.2,1.1-0.5,1.3l-4.1,2.3c-0.1,0-0.1,0-0.1-0.1c0-0.3,0.1-0.8,0.2-1
		c0.1-0.2,0.3-0.3,0.7-0.5L47.9,30z"/>
	<path class="st1" d="M39.3,27.7c-0.9-0.8-1.4-2.1-1.4-3.4c0-1.5,0.9-3.2,1.4-3.9c0.2-0.3,0.4-0.4,0.5-0.4c0.1,0,0.1,0.1,0.1,0.2
		c0,0.1-0.1,0.3-0.2,0.5c-0.4,0.9-0.9,1.8-0.9,2.9c0,0.8,0.6,1.6,1.4,2.1c0.8,0.5,1.7,0.8,2.7,0.8c2.4,0,5.7-1,6.4-2.7
		c0-0.2,0-0.3,0-0.4c0-1.1-0.3-2.3-0.9-3.1c-0.2-0.4-0.4-0.7-0.5-0.8c0,0,0-0.1,0-0.2c0-0.2,0.1-0.5,0.2-0.8
		c0.2-0.4,0.3-0.8,0.4-1.1c0.1-0.1,0.1-0.2,0.2-0.2c0.1,0,0.1,0,0.2,0.3c0.7,1.5,1.3,2.9,1.3,4.7c0,1.4-0.2,2.3-0.3,2.7
		c-0.4,0.9-0.6,1.3-1.1,1.8c-0.5,0.5-1.4,1.2-2.5,1.6c-1.1,0.5-2.4,0.7-4.1,0.7C41.2,28.8,40.1,28.5,39.3,27.7z M45.8,13.9
		c0.1,0.1,0.1,0.1,0,0.2c-0.2,0.3-1.1,1.2-1.4,1.7c-0.1,0.1-0.1,0.1-0.2,0c-0.5-0.3-1.5-1-1.7-1.4c-0.1-0.1-0.1-0.1,0-0.2
		c0.3-0.5,0.9-1.2,1.3-1.6c0.2-0.2,0.2-0.2,0.3-0.1C44.4,12.8,45.1,13.4,45.8,13.9z"/>
	<path class="st1" d="M56.4,27c-0.7,0-1.2-0.1-1.7-0.5c-0.7-0.6-1.1-1.7-1.3-3.1c-0.2-1.1-0.2-2.3-0.3-3.7c-0.1-2-0.2-5.1-0.5-6.9
		c0-0.1,0-0.2,0-0.2c0-0.1,0-0.2,0.2-0.4c0.3-0.5,0.5-0.8,0.7-1.2c0.2-0.3,0.2-0.3,0.3-0.3c0.1,0,0.2,0.2,0.3,0.7
		c0.4,3.5,0.1,8.4,0.6,11.1c0.1,0.7,0.2,0.9,0.4,1.3c0.3,0.6,0.7,0.9,1.4,1c0.8,0,1.2,0.4,1.2,1.1c0,0.9-0.4,1.2-1.1,1.2H56.4z"/>
	<path class="st1" d="M65.3,22.4c0.1,0,0.2,0.1,0.2,0.5c0,0.1,0,0.3,0,0.5c0,0.7,0.5,1.1,1.2,1.1c1,0,1.5-1,1.9-1.8
		c0-0.1,0.2-0.4,0.3-0.4c0.1,0,0.2,0.1,0.2,0.6c0.1,1.1,0.7,1.7,1.5,1.7h0.3c0.7,0,1.1,0.3,1.1,1c0,0.8-0.4,1.3-1.1,1.3h-0.3
		c-1.3,0-2-0.6-2.2-1.9c-0.3,0.9-1.2,2-2.3,2c-1.1,0-1.6-0.9-1.7-1.9C64.1,26.2,63,27,61.9,27c-1.2,0-2-0.4-2.3-1.6
		c-0.2,0.4-0.4,0.8-0.8,1.1c-0.4,0.3-1.1,0.5-2.1,0.5h-0.2c-0.7,0-1-0.4-1-1.2c0-0.7,0.3-1.1,1-1.1h0.3c1.6,0,2.6-0.6,3.2-1.7
		c0-0.1,0.2-0.3,0.3-0.3c0.2,0,0.2,0.2,0.2,0.5c0,0.9,0.8,1.3,1.8,1.3c1.2,0,2.1-0.5,2.8-1.7C65,22.7,65.1,22.4,65.3,22.4z"/>
	<path class="st1" d="M71.3,10.1c-0.4,0-0.7-0.2-0.8-0.4c-0.2-0.3-0.3-0.8-0.3-1.1c0-0.4,0-0.7,0.2-1c0.2-0.4,0.4-0.7,0.7-0.7
		c0.1,0,0.1,0.1,0.1,0.3c0,0.2-0.1,0.4-0.1,0.6c0,0.5,0.3,0.7,0.7,0.7c0.4,0,0.7-0.4,0.9-0.8c0.3-0.7,0.6-1,0.9-1
		c0.1,0,0.2,0.1,0.2,0.3c0,0.1,0,0.2,0,0.4c0,0.3,0.1,0.5,0.5,0.5c0.3,0,0.6-0.2,0.9-0.7c0.3-0.5,0.4-0.7,0.5-0.7
		c0.2,0,0.2,0.3,0.2,0.5c0,0.6-0.2,1.1-0.5,1.6c-0.3,0.4-0.7,0.9-1.4,0.9c-0.4,0-0.6-0.1-0.8-0.3c-0.1-0.1-0.2,0-0.3,0.2
		C72.3,9.8,71.8,10.1,71.3,10.1z"/>
	<path class="st1" d="M75.6,28.8c0.1-0.1,0.1,0,0.1,0.1c0,0.6-0.2,1.1-0.5,1.3l-4.1,2.3c-0.1,0-0.1,0-0.1-0.1c0-0.3,0.1-0.8,0.2-1
		c0.1-0.2,0.3-0.3,0.7-0.5L75.6,28.8z"/>
	<path class="st1" d="M70.6,24.7h0.2c0.6,0,1-0.2,1.3-0.5c0.5-0.5,0.5-1.1,0.5-1.8c0-1.5-0.1-4.6-0.3-9.2c0-0.5,0.2-1,0.5-1.7
		c0.2-0.3,0.3-0.6,0.5-0.6c0.1,0,0.2,0.2,0.3,0.7c0.2,3.4,0.4,8,0.7,11.3c0.1,0.6,0.4,1.1,0.8,1.4c0.3,0.2,0.6,0.3,0.9,0.3h0.3
		c0.6,0,1,0.4,1,1.1c0,0.8-0.3,1.2-1,1.2H76c-1.4,0-2.4-1-2.8-2.4c-0.3,1.6-1.1,2.4-2.4,2.4h-0.2c-0.7,0-1-0.4-1-1.2
		C69.6,25.1,69.9,24.7,70.6,24.7z"/>
	<path class="st1" d="M80.9,28.8c0.1-0.1,0.1,0,0.1,0.1c0,0.6-0.2,1.1-0.5,1.3l-4.1,2.3c-0.1,0-0.1,0-0.1-0.1c0-0.3,0.1-0.8,0.2-1
		c0.1-0.2,0.3-0.3,0.7-0.5L80.9,28.8z"/>
	<path class="st1" d="M79.5,22c0,1.7-0.3,3-1,4c-0.5,0.7-1.3,1-2.3,1H76c-0.7,0-1-0.4-1-1.2c0-0.7,0.3-1.1,1-1.1h0.2
		c1.1,0,2-0.4,2.2-0.6v0c0-1.7-0.7-6-1-9.4c0-0.4-0.3-1.3-0.4-1.7c0-0.1,0-0.2,0-0.2c0,0,0-0.1,0-0.2c0-0.1,0.1-0.4,0.4-0.9
		c0.3-0.5,0.7-1.1,0.9-1.1c0.1,0,0.1,0.1,0.2,0.2c0.3,0.9,0.6,1.4,0.8,1.8c0,0.1,0.1,0.2,0.1,0.2s0,0.2,0,0.2
		c-0.1,0.2-0.3,0.8-0.5,1C79,17.6,79.5,20.3,79.5,22z"/>
	<path class="st1" d="M98.7,6.8c0.1-0.1,0.1,0,0.1,0.1c0,0.6-0.2,1.1-0.5,1.3l-4.1,2.3c-0.1,0-0.1,0-0.1-0.1c0-0.3,0.1-0.8,0.2-1
		c0.1-0.2,0.3-0.3,0.7-0.5L98.7,6.8z"/>
	<path class="st1" d="M92.4,32c2.4,0,5.7-1.7,5.7-2.9c-0.2-2-0.3-3.2-0.5-4.9c-0.4-3.1-0.7-5.5-1.1-9.6c-0.1-0.5-0.1-0.7-0.1-1
		c0-0.2,0-0.4,0.1-0.6c0.2-0.5,0.8-1.8,1.1-1.8c0.1,0,0.1,0.1,0.2,0.3c0.1,0.9,0.1,1.5,0.2,3.2c0.2,1.8,0.4,4.3,0.7,6.8
		c0.3,2,1.4,3.2,2.7,3.2h0.3c0.7,0,1,0.4,1,1.1c0,0.8-0.3,1.2-1,1.2h-0.3c-0.9-0.1-1.8-0.6-2.2-1.5c0.1,1,0.1,1.7,0.1,2.2
		c0,2-0.4,2.7-0.9,3.5c-0.5,0.7-2.5,3-6.2,3c-3.9,0-5-2.1-5-4.1c0-1.4,0.5-3,1.1-4.2c0.3-0.6,0.6-0.8,0.8-0.8c0.1,0,0.1,0.1,0.1,0.2
		c0,0.2-0.1,0.4-0.3,0.8c-0.3,0.7-0.7,1.7-0.7,2.5C88,31.1,90.4,32,92.4,32z"/>
	<path class="st1" d="M106.1,15.1c0.1-0.1,0.1,0,0.1,0.1c0,0.6-0.2,1.1-0.5,1.3l-4.1,2.3c-0.1,0-0.1,0-0.1-0.1c0-0.3,0.1-0.8,0.2-1
		c0.1-0.2,0.3-0.3,0.7-0.5L106.1,15.1z"/>
	<path class="st1" d="M113.3,7.8c0.1-0.1,0.1,0,0.1,0.1c0,0.6-0.2,1.1-0.5,1.3l-4.1,2.3c-0.1,0-0.1,0-0.1-0.1c0-0.3,0.1-0.8,0.2-1
		c0.1-0.2,0.3-0.3,0.7-0.5L113.3,7.8z"/>
	<path class="st1" d="M107.4,18.2c0-0.3,0.1-0.6,0.2-1c0.7-2.4,2.2-3.5,3.6-3.5c0.2,0,0.6,0,0.8,0.1c0.4,0.1,1.4,0.5,2.1,1.2
		c0.4,0.5,0.3,0.6,0.2,0.6c-0.1,0-0.3,0-0.5-0.1c-0.5-0.1-0.8-0.2-1.2-0.2c-1.2-0.1-3.7,0.6-3.9,1.3c0,0.4,1.2,2.3,3.2,2.4
		c1.3-0.4,2.8-0.9,3.8-1.2c0.4-0.2,0.7-0.2,0.8-0.2c0.2,0,0.2,0.1,0.1,0.4c-0.2,0.3-0.6,0.9-1,1.4c-0.1,0.1-0.1,0.2-0.4,0.3
		c-0.1,0-0.6,0.2-1.7,0.6c-1,0.4-2.7,1-5,1.9c0.5,0.7,0.7,1.5,0.7,2.3c0,0.4-0.2,0.9-0.5,1.5c-0.4,0.6-0.7,0.9-1.1,0.9
		c-0.5,0-1-0.2-1.6-0.5c-0.6-0.3-1.1-0.8-1.5-1.3c-0.6,1.2-1.6,1.8-2.9,1.8h-0.2c-0.6,0-0.9-0.4-0.9-1.2c0-0.7,0.3-1.1,0.9-1.1h0.2
		c1.1,0,1.8-0.1,2.3-0.3c0.5-0.2,0.9-0.6,1.2-1.2c0.5-0.7,0.9-1.2,1.3-1.5c0.4-0.3,1.2-0.8,2.4-1.3c-0.3-0.2-0.5-0.4-0.7-0.5
		C107.7,19.5,107.4,18.9,107.4,18.2z M105.5,23.5c0.2,0.3,0.6,0.6,1.1,0.8c0.5,0.3,0.9,0.4,1.2,0.4c-0.2-0.9-0.7-1.6-1.3-1.6
		C106,23.1,105.7,23.2,105.5,23.5z"/>
	<path class="st1" d="M130.4,12.6c0.1,0.2,0.1,0.2,0.1,0.3c0,0.1,0,0.1-0.1,0.2c-0.2,0.4-0.5,1-0.8,1.3c-0.2,2.4-0.5,4.3-1.6,7
		c0.3,0.8,0.5,1.9,0.5,2.9c0,0.7-0.1,1.3-0.3,1.8c-0.2,0.4-2.7,0.8-4.4,0.8c-0.5,0-0.8,0-1.1-0.1c-0.1,0-0.2-0.3-0.2-0.7
		c0-0.6,0.1-1.5,0.3-1.8c0-0.1,0.1-0.1,0.1-0.1c0.1,0,0.1,0,0.2,0c1.4,0,2.8-1.3,3.7-2.9c-1.1-2.2-3.5-5.2-5.6-6.6
		c0,0.1-0.4,0.6-0.7,0.6c-0.3,0-2.2-1.8-2.2-2.2c0-0.2-0.1-0.4-0.1-0.6c0-0.6,0.1-1.1,0.2-1.4c0.1-0.3,0.3-0.4,0.4-0.4
		c0.2,0,0.5,0.2,0.8,0.4c1.6,1.1,3.2,2.4,4.5,4c1,1.3,2.3,3,3.3,5.1c0.6-1.3,0.7-2.2,0.9-3.9c0.1-1,0.1-1.7,0.1-2.2
		c0-1.1-0.1-1.5-0.1-1.8c0-0.2,0.1-0.4,0.2-0.7c0.4-0.7,0.7-1.2,0.8-1.2c0.1,0,0.1,0.1,0.2,0.2C129.9,11.4,130.1,12,130.4,12.6z
		 M127.3,22.5c-0.8,1.1-0.9,1.3-1.7,2.1c0.8,0,1.5-0.1,2.1-0.3C127.8,23.9,127.8,23.2,127.3,22.5z"/>
	<path class="st1" d="M141.8,25.7c0.2,0.3,0.3,0.6,0.3,1.1c0,0.5-0.2,0.9-0.5,1.1c-0.3,0.2-0.6,0.3-1,0.3c-0.6,0-1.2-0.4-1.5-1.1
		c-0.3-0.7-0.4-1.3-0.4-2c0-0.8,0.2-1.6,0.5-2.3c0.3-0.7,0.6-1.2,1-1.7c0.4-0.4,0.6-0.7,0.8-0.7c0.3,0,0.1,0.4-0.2,0.8
		c-0.8,1.1-1.1,2.1-1.1,3.2c0,0.6,0.1,0.7,0.2,1c0.3-0.1,0.6-0.2,0.8-0.2C141.2,25.3,141.6,25.4,141.8,25.7z"/>
	<path class="st1" d="M158.2,28.1c0.1-0.1,0.1,0,0.1,0.1c0,0.6-0.2,1.1-0.5,1.3l-4.1,2.3c-0.1,0-0.1,0-0.1-0.1c0-0.3,0.1-0.8,0.2-1
		c0.1-0.2,0.3-0.3,0.7-0.5L158.2,28.1z"/>
	<path class="st1" d="M158,22.2c-0.1,0.7-0.5,1.6-0.8,2.1c-0.1,0.1-0.1,0.1-0.2,0.1c0,0-0.1,0-0.1,0c-0.3-0.1-0.7-0.2-1.5-0.2
		c-1.6,0-3.6,0.4-3.7,1c0,0.8,0.9,4,0.9,8c0,0.4,0,0.8,0,1.1c-0.1,1.7-0.6,2.7-0.8,2.7c-0.1,0-0.2-0.2-0.2-0.6c0-0.3,0-0.6,0-1
		c0-2.3-0.5-5-0.9-7.6c-0.1-0.7-0.2-1.3-0.2-1.8c0-1.9,0.7-2.6,1.1-3c0-0.1,0-0.2,0-0.3c0-1.5,0.9-3.9,2.4-3.9c1.8,0,3.2,2.1,4,3.3
		C158,22.1,158,22.1,158,22.2z M153.5,21.3c-0.6,0-0.8,0.7-1,1.1c0.6-0.4,1.7-0.5,2.3-0.5C154.4,21.5,154,21.3,153.5,21.3z"/>
	<path class="st1" d="M159.3,33c-0.3-0.2-0.4-0.3-0.4-0.4c0-0.1,0.2-0.2,0.4-0.2c0.3,0,1.1,0.2,1.8,0.2c0.6,0,1.2-0.2,2.1-0.6
		c2.4-1.2,3.9-3,3.9-4.2c0-0.2,0-0.3-0.1-0.7h-0.7c-0.5,0-1.5-0.1-2.2-0.5c-0.7-0.4-1-0.9-1-1.5c0-0.6,0.3-1.4,0.6-2.2
		c0.6-1.3,1.2-2.2,1.9-2.2c0.7,0,1.3,0.5,1.8,1.1c0.5,0.7,0.7,1.8,0.7,2.8h1c0.6,0,0.9,0.3,0.9,1c0,0.8-0.3,1.2-0.9,1.2l-1.1,0.1
		c-0.2,3.5-1.3,5.8-4.1,6.9c-0.2,0.1-0.4,0.1-0.6,0.1C162.3,34,160.6,33.6,159.3,33z M165.5,23.3c-0.1-0.1-0.3-0.2-0.6-0.2
		c-0.5,0-0.8,0.5-0.8,0.8c0,0.2,0.2,0.5,0.8,0.7c0.4,0.2,0.9,0.2,1.1,0.2c0.2,0,0.2,0,0.2-0.1C166.4,24.4,165.9,23.7,165.5,23.3z"/>
	<path class="st1" d="M177.5,22.4c0.1,0,0.2,0.1,0.2,0.5c0,0.1,0,0.3,0,0.5c0,0.7,0.5,1.1,1.2,1.1c1,0,1.5-1,1.9-1.8
		c0-0.1,0.2-0.4,0.3-0.4c0.1,0,0.2,0.1,0.2,0.6c0.1,1.1,0.7,1.7,1.5,1.7h0.3c0.7,0,1.1,0.3,1.1,1c0,0.8-0.4,1.3-1.1,1.3h-0.3
		c-1.3,0-2-0.6-2.2-1.9c-0.3,0.9-1.2,2-2.3,2c-1.1,0-1.6-0.9-1.7-1.9c-0.4,1.1-1.5,1.9-2.7,1.9c-1.2,0-2-0.4-2.3-1.6
		c-0.2,0.4-0.4,0.8-0.8,1.1c-0.4,0.3-1.1,0.5-2.1,0.5h-0.2c-0.7,0-1-0.4-1-1.2c0-0.7,0.3-1.1,1-1.1h0.3c1.6,0,2.6-0.6,3.2-1.7
		c0-0.1,0.2-0.3,0.3-0.3c0.2,0,0.2,0.2,0.2,0.5c0,0.9,0.8,1.3,1.8,1.3c1.2,0,2.1-0.5,2.8-1.7C177.3,22.7,177.4,22.4,177.5,22.4z
		 M178.3,16.9c0.2-0.2,0.2-0.2,0.3-0.1c0.5,0.5,1,1.1,1.5,1.4c0.2,0.1,0.2,0.2,0,0.3c-0.5,0.5-0.9,1-1.3,1.5c-0.1,0.1-0.2,0.1-0.3,0
		c-0.4-0.3-0.9-0.7-1.4-1.2c-0.3,0.3-0.9,1-1.1,1.2c-0.1,0.1-0.2,0.2-0.4,0c-0.5-0.3-1.1-0.9-1.5-1.4c-0.1-0.1-0.1-0.2,0-0.3
		c0.4-0.5,0.9-1,1.4-1.5c0.1-0.1,0.2-0.1,0.3,0.1c0.4,0.4,1,1,1.4,1.2C177.6,17.7,178.1,17.1,178.3,16.9z M178.7,13.6
		c0.1,0.1,0.1,0.1,0,0.2c-0.2,0.3-1.1,1.2-1.4,1.7c-0.1,0.1-0.1,0.1-0.2,0c-0.5-0.3-1.5-1-1.7-1.4c-0.1-0.1-0.1-0.1,0-0.2
		c0.3-0.5,0.9-1.2,1.3-1.6c0.2-0.2,0.2-0.2,0.3-0.1C177.3,12.5,178,13.1,178.7,13.6z"/>
	<path class="st1" d="M188.6,24.7h0.1c0.6,0,0.9,0.6,0.9,1.1c0,0.6-0.3,1.1-0.9,1.1h-0.1c-0.6,0-1.2-0.1-1.8-0.5
		c-0.8-0.6-1.1-1.7-1.1-1.9c-0.1,0.7-1.1,2.4-2.6,2.4H183c-0.6,0-0.9-0.6-0.9-1.1c0-0.6,0.3-1.1,0.9-1.1h0.1c1.2,0,2-0.5,2.1-0.8
		c0,0,0-0.1,0-0.1c0-0.2-0.4-2.6-0.4-2.8c0-0.1,0-0.2,0-0.3c0.1-0.4,0.4-1,0.5-1.4c0.1-0.2,0.2-0.3,0.2-0.3s0.2,0.2,0.2,0.4
		c0.3,1,0.5,3.1,0.8,3.8C187.2,24.1,188.2,24.7,188.6,24.7z M187.1,28.6c0.2-0.2,0.2-0.2,0.3-0.1c0.5,0.5,1,1.1,1.5,1.4
		c0.2,0.1,0.2,0.2,0,0.3c-0.5,0.5-0.9,1-1.3,1.5c-0.1,0.1-0.2,0.1-0.3,0c-0.4-0.3-0.9-0.7-1.4-1.2c-0.3,0.3-0.9,1-1.1,1.2
		c-0.1,0.1-0.2,0.2-0.4,0c-0.5-0.3-1.1-0.9-1.5-1.4c-0.1-0.1-0.1-0.2,0-0.3c0.4-0.5,0.9-1,1.4-1.5c0.1-0.1,0.2-0.1,0.3,0.1
		c0.4,0.4,1,1,1.4,1.2C186.3,29.4,186.8,28.8,187.1,28.6z"/>
	<path class="st1" d="M192.2,11.2c0.1-0.1,0.1,0,0.1,0.1c0,0.6-0.2,1.1-0.5,1.3l-4.1,2.3c-0.1,0-0.1,0-0.1-0.1c0-0.3,0.1-0.8,0.2-1
		c0.1-0.2,0.3-0.3,0.7-0.5L192.2,11.2z"/>
	<path class="st1" d="M192.1,17.2c0.1,0.1,0.1,0.1,0,0.2c-0.2,0.3-1.1,1.2-1.4,1.7c-0.1,0.1-0.1,0.1-0.2,0c-0.5-0.3-1.5-1-1.7-1.4
		c-0.1-0.1-0.1-0.1,0-0.2c0.3-0.5,0.9-1.2,1.3-1.6c0.2-0.2,0.2-0.2,0.3-0.1C190.7,16.1,191.4,16.7,192.1,17.2z"/>
	<path class="st1" d="M194.6,4.9c0.7,0,1.7,1,1.7,2.1c0,0.4-0.1,0.8-0.2,1.2c-0.3,0.8-0.9,1.3-1.8,1.3c-0.8,0-1.3-0.6-1.3-1.3
		C193,7.1,194.1,4.9,194.6,4.9z M194.4,6.5c-0.3,0-0.7,0.6-0.7,1c0,0.3,0.4,0.6,0.8,0.6c0.5,0,1.1-0.3,1.1-0.5
		C195.6,7.4,195,6.5,194.4,6.5z"/>
	<path class="st1" d="M195.5,17.5c0,0.6-0.1,1.1-0.2,1.4c-0.1,0.4-0.2,0.7-0.3,1c-0.1,0.3-0.4,0.6-0.9,1c0.9,0.2,1.8,0.5,2.8,0.8
		c1.1,0.3,2,0.6,2.6,0.7c0.6,0.2,1.4,0.2,2.4,0.3l1.7,0.1c0.2,0,0.2,0.1,0.2,0.2c-0.3,0.4-0.7,0.9-1.3,1.6c-0.1,0.2-0.2,0.2-0.4,0.2
		c-0.2,0-1.3-0.2-2.9-0.2c-0.8,0-1.5,0.1-2.3,0.3c-0.7,0.2-1.7,0.5-2.8,0.9c-1.1,0.4-2.1,0.7-2.7,0.9c-0.6,0.2-1.5,0.3-2.4,0.3h-0.2
		c-0.7,0-1-0.4-1-1.2c0-0.8,0.3-1.1,1-1.1h0.3c2.5,0,4.7-0.4,6.7-1c-0.2-0.2-0.9-0.4-2.3-0.8c-1.3-0.4-2.4-0.6-3.1-0.6
		c-0.2,0-0.2,0-0.2-0.1c0-0.3,0.4-0.8,1.3-1.6c0.1-0.1,0.2-0.2,0.3-0.2c0.2-0.1,0.5-0.2,0.9-0.3c0.3-0.1,0.7-0.2,1.3-0.5
		c0.6-0.2,0.8-0.5,0.8-0.8l-0.7-4.2c-0.1-0.4-0.3-1.3-0.4-1.7c0-0.1,0-0.2,0-0.3c0,0,0-0.1,0-0.2c0-0.1,0.1-0.4,0.4-0.9
		c0.2-0.5,0.6-1,0.8-1c0.1,0,0.1,0.1,0.2,0.2c0.3,0.9,0.6,1.4,0.8,1.8c0,0.1,0.1,0.2,0.1,0.2c0,0.1,0,0.1,0,0.2
		c-0.1,0.2-0.3,0.7-0.5,1C195.4,15.2,195.5,16.5,195.5,17.5z"/>
	<path class="st1" d="M207.4,27c-0.1,0-0.2-0.2-0.2-0.7c0-3-1.1-11.3-1.1-12.7c0-0.7,0.5-1.7,0.9-2.5c0.1-0.2,0.3-0.5,0.5-0.5
		c0.1,0,0.2,0.2,0.2,0.8c0.1,2.2,0.7,7.3,0.7,11c0,1.5-0.1,2.7-0.4,3.5C207.7,26.6,207.6,27,207.4,27z"/>
	<path class="st1" d="M223.8,13.1c0.1-0.1,0.1,0,0.1,0.1c0,0.6-0.2,1.1-0.5,1.3l-4.1,2.3c-0.1,0-0.1,0-0.1-0.1c0-0.3,0.1-0.8,0.2-1
		c0.1-0.2,0.3-0.3,0.7-0.5L223.8,13.1z"/>
	<path class="st1" d="M226.3,24.9c0-0.3,0.3-1.4,0.6-2c0.1-0.1,0.1-0.2,0.2-0.2c0.1,0,0.2,0.1,0.2,0.2c0.6,1.2,1.1,1.8,1.9,1.8h0.3
		c0.7,0,1,0.4,1,1.1c0,0.8-0.3,1.2-1,1.2h-0.3c-0.4,0-0.7,0-0.9-0.1c-0.1,1.8-0.2,2.6-0.4,3c-0.3,0.9-0.8,1.7-2.1,2.6
		c-1.2,0.9-3,1.5-5.5,1.5c-2.5,0-4.4-1.7-4.4-4.5c0-1.4,0.7-3.1,1.3-3.8c0.2-0.3,0.5-0.6,0.6-0.6c0.1,0,0.1,0.1,0.1,0.2
		c0,0.2-0.1,0.4-0.2,0.7c-0.5,0.9-0.8,1.7-0.8,2.7c0,1.9,2.3,3,3.9,3c2.7,0,5.6-1,6.4-2.5c0-0.1,0.1-0.2,0.1-0.4
		c-0.1-1.9-0.3-2.6-0.9-3.7C226.3,25,226.3,24.9,226.3,24.9z M223.9,19.7c0.1,0.1,0.1,0.1,0,0.2c-0.2,0.3-1.1,1.2-1.4,1.7
		c-0.1,0.1-0.1,0.1-0.2,0c-0.5-0.3-1.5-1-1.7-1.4c-0.1-0.1-0.1-0.1,0-0.2c0.3-0.5,0.9-1.2,1.3-1.6c0.2-0.2,0.2-0.2,0.3-0.1
		C222.4,18.6,223.2,19.3,223.9,19.7z"/>
	<path class="st1" d="M237.2,28.9c0.1-0.1,0.1,0,0.1,0.1c0,0.6-0.2,1.1-0.5,1.3l-4.1,2.3c-0.1,0-0.1,0-0.1-0.1c0-0.3,0.1-0.8,0.2-1
		c0.1-0.2,0.3-0.3,0.7-0.5L237.2,28.9z"/>
	<path class="st1" d="M229.3,27h-0.1c-0.7,0-1-0.4-1-1.2c0-0.7,0.4-1.1,1-1.1h0.1c1.2,0,2.2-0.5,2.9-1.4l1.3-2
		c0.7-1.1,1.7-1.5,2.2-1.5c1.7,0,2.4,2.9,2.4,4.1c0,1-1.1,2.4-1.6,2.4c-0.8,0-2.8-1-3.8-1.9C231.6,26.2,230.6,27,229.3,27z
		 M234.6,21.8c-0.2,0-0.3,0.1-0.5,0.3c-0.1,0.1-0.2,0.3-0.3,0.5c0.5,0.3,1.9,1,2.5,1.4C236.3,23.2,235.3,21.8,234.6,21.8z"/>
	<path class="st1" d="M252.8,12.9c0,0.5-0.1,1-0.3,1.5c0.2,0.1,0.4,0.3,0.4,0.4c0,0.4-0.2,0.7-0.3,1c-0.1,0.1-0.1,0.1-0.1,0.1
		l-0.5-0.3c-0.5,0.8-1.3,1.8-2.5,2.3c-0.4,0.2-0.9,0.4-1.5,0.4c-0.3,0-0.4-0.1-0.4-0.1c0-0.1,0.2-0.2,0.6-0.4
		c0.9-0.5,2.5-1.8,3.1-2.5c-0.5-0.3-1.1-0.7-1.1-1.4c0-0.4,0.2-0.9,0.6-1.3c0.4-0.5,0.8-0.8,1.2-0.8
		C252.6,11.6,252.8,12.3,252.8,12.9z M251,13.3C251,13.3,251,13.4,251,13.3c0,0.2,0.4,0.5,0.8,0.7c0.1-0.2,0.1-0.4,0.1-0.7
		c0-0.3-0.1-0.4-0.3-0.4C251.4,12.9,251.2,13,251,13.3z"/>
	<path class="st1" d="M259.7,36.5c0.3,0,0.4,0.1,0.4,0.1c0,0.2-0.5,0.5-0.9,0.6c-1.5,0.6-3.9,1.6-6.4,1.6c-4.4,0-7.6-2.3-7.6-7.1
		c0-4.4,2.3-8.3,5.4-9.4c-0.8-0.2-1.5-0.2-2.1-0.2c-1.1,0-1.8,0.3-2.4,0.5c-0.5,0.2-0.6,0.2-0.7,0.2c-0.1,0-0.2,0-0.2-0.2
		c0-0.3,0.5-1.4,0.9-1.8c0.7-0.7,1.7-0.9,2.9-0.9c2.1,0,4.2,0.7,6.4,0.7c0.9,0,1.6-0.1,2.1-0.1c0.4,0,0.4,0,0.4,0.1
		c0,0.5-0.9,1.9-1.3,2c-1.4,0-2.9,0.2-4.4,0.7c-4.5,1.5-6,5.1-6,7.1c0,3.2,1.7,6.2,9.4,6.2C257.8,36.7,259.2,36.5,259.7,36.5z
		 M254.5,29.6c0.1,0.1,0.1,0.1,0,0.2c-0.2,0.3-1.1,1.2-1.4,1.7c-0.1,0.1-0.1,0.1-0.2,0c-0.5-0.3-1.5-1-1.7-1.4
		c-0.1-0.1-0.1-0.1,0-0.2c0.3-0.5,0.9-1.2,1.3-1.6c0.2-0.2,0.2-0.2,0.3-0.1C253.1,28.5,253.8,29.1,254.5,29.6z"/>
	<path class="st1" d="M263.8,16.1c0,0.5-0.1,1-0.3,1.5c0.2,0.1,0.4,0.3,0.4,0.4c0,0.4-0.2,0.7-0.3,1c-0.1,0.1-0.1,0.1-0.1,0.1
		l-0.5-0.3c-0.5,0.8-1.3,1.8-2.5,2.3c-0.4,0.2-0.9,0.4-1.5,0.4c-0.3,0-0.4-0.1-0.4-0.1c0-0.1,0.2-0.2,0.6-0.4
		c0.9-0.5,2.5-1.8,3.1-2.5c-0.5-0.3-1.1-0.7-1.1-1.4c0-0.4,0.2-0.9,0.6-1.3c0.4-0.5,0.8-0.8,1.2-0.8
		C263.6,14.9,263.7,15.6,263.8,16.1z M262,16.6C261.9,16.6,261.9,16.6,262,16.6c0,0.2,0.4,0.5,0.8,0.7c0.1-0.2,0.1-0.4,0.1-0.7
		c0-0.3-0.1-0.4-0.3-0.4C262.3,16.2,262.1,16.3,262,16.6z"/>
	<path class="st1" d="M265.5,24.7c0.7,0,1.1,0.4,1.1,1.1c0,0.8-0.4,1.2-1.1,1.2h-0.2c-0.6,0-1,0-1.3-0.1c0,0.1,0,0.2,0,0.3
		c0,0.7-0.1,1.5-0.4,2.1c-0.5,1.2-1.3,3.3-3.6,4.3c-0.4,0.2-0.8,0.3-1.2,0.3c-0.9,0-2.4-0.5-3.5-1c-0.3-0.2-0.4-0.3-0.4-0.4
		c0-0.1,0.1-0.2,0.4-0.2c0.3,0,0.8,0.1,1.3,0.1c3.1,0,6.2-2.7,6.6-5c0-0.5-1.1-1.6-1.3-1.9c0-0.1-0.1-0.2-0.1-0.3
		c0-0.5,0.4-1.5,0.6-1.8c0.1-0.2,0.2-0.2,0.3-0.2c0.2,0,0.3,0.2,0.6,0.7c0.4,0.6,0.9,0.9,1.8,0.9H265.5z"/>
	<path class="st1" d="M268.8,8.3c0.7,0,1.7,1,1.7,2.1c0,0.4-0.1,0.8-0.2,1.2c-0.3,0.8-0.9,1.3-1.8,1.3c-0.8,0-1.3-0.6-1.3-1.3
		C267.2,10.5,268.3,8.3,268.8,8.3z M268.6,9.9c-0.3,0-0.7,0.6-0.7,1c0,0.3,0.4,0.6,0.8,0.6c0.5,0,1.1-0.3,1.1-0.5
		C269.8,10.7,269.2,9.9,268.6,9.9z"/>
	<path class="st1" d="M270.8,15.4c0.1,0.1,0.1,0.1,0,0.2c-0.2,0.3-1.1,1.2-1.4,1.7c-0.1,0.1-0.1,0.1-0.2,0c-0.5-0.3-1.5-1-1.7-1.4
		c-0.1-0.1-0.1-0.1,0-0.2c0.3-0.5,0.9-1.2,1.3-1.6c0.2-0.2,0.2-0.2,0.3-0.1C269.4,14.3,270.1,14.9,270.8,15.4z"/>
	<path class="st1" d="M278.4,8.5c0.1-0.1,0.1,0,0.1,0.1c0,0.6-0.2,1.1-0.5,1.3l-4.1,2.3c-0.1,0-0.1,0-0.1-0.1c0-0.3,0.1-0.8,0.2-1
		c0.1-0.2,0.3-0.3,0.7-0.5L278.4,8.5z"/>
	<path class="st1" d="M279.6,26.9c0.2-0.2,0.2-0.2,0.3-0.1c0.5,0.5,1,1.1,1.5,1.4c0.2,0.1,0.2,0.2,0,0.3c-0.5,0.5-0.9,1-1.3,1.5
		c-0.1,0.1-0.2,0.1-0.3,0c-0.4-0.3-0.9-0.7-1.4-1.2c-0.3,0.3-0.9,1-1.1,1.2c-0.1,0.1-0.2,0.2-0.4,0c-0.5-0.3-1.1-0.9-1.5-1.4
		c-0.1-0.1-0.1-0.2,0-0.3c0.4-0.5,0.9-1,1.4-1.5c0.1-0.1,0.2-0.1,0.3,0.1c0.4,0.4,1,1,1.4,1.2C278.8,27.8,279.4,27.2,279.6,26.9z"/>
	<path class="st1" d="M276.8,18.2c-0.2,0-0.2-0.2-0.3-0.5c-0.1-0.6-0.4-1.2-0.8-1.2c-0.3,0-0.7,0.3-1.1,0.9
		c-1.1,1.7-2.3,2.8-3.3,3.5c-0.1,0,0,0.1,0.1,0.1c3.5,1.3,6.4,1.9,8.8,1.8c0.1,0,0.2,0,0.1,0.3c-0.2,0.3-0.6,0.9-1.3,1.7
		c-0.1,0.1-0.2,0.2-0.3,0.1c-0.9-0.1-1.8-0.2-2.5-0.3c-1,0-1.9,0.1-2.7,0.3c-0.7,0.2-1.7,0.5-2.8,0.9c-1.1,0.4-2.1,0.7-2.7,0.9
		c-0.6,0.2-1.5,0.3-2.5,0.3h-0.3c-0.6,0-0.9-0.4-0.9-1.2c0-0.7,0.3-1.1,0.9-1.1h0.3c2.1,0,4.3-0.3,6.6-1c0,0,0,0-0.2-0.1
		c-1.4-0.7-3.1-1.1-5.2-1.3c-0.2,0-0.1-0.1,0-0.3c0.2-0.3,0.6-0.8,1.3-1.5c0.3-0.3,1-0.7,2.2-1.1c1.9-0.8,3.9-2.1,5-4.2
		c0.3-0.6,0.9-1.1,1.4-1.1c0.8,0,1.1,1.2,1.1,1.8c0,0.6,0,0.9-0.1,1.3C277.3,17.7,277,18.2,276.8,18.2z"/>
	<path class="st1" d="M291.6,25.7c0.2,0.3,0.3,0.6,0.3,1.1c0,0.5-0.2,0.9-0.5,1.1c-0.3,0.2-0.6,0.3-1,0.3c-0.6,0-1.2-0.4-1.5-1.1
		c-0.3-0.7-0.4-1.3-0.4-2c0-0.8,0.2-1.6,0.5-2.3c0.3-0.7,0.6-1.2,1-1.7c0.4-0.4,0.6-0.7,0.8-0.7c0.3,0,0.1,0.4-0.2,0.8
		c-0.8,1.1-1.1,2.1-1.1,3.2c0,0.6,0.1,0.7,0.2,1c0.3-0.1,0.6-0.2,0.8-0.2C290.9,25.3,291.3,25.4,291.6,25.7z"/>
	<path class="st1" d="M306.4,9.1c0.1,0,0.1-0.1,0.2-0.1c0.1,0,0.3,0,0.4,0c0.1,0,0.1,0,0,0.1c-0.9,0.7-1.9,1.7-2.5,2.8
		c-0.2,0.3-0.2,0.5-0.2,0.7c0,0.4,0.4,0.6,0.8,0.8c0.1,0.1,0.2,0.2,0.2,0.3c0,0.5-0.5,1-1.3,1c-0.3,0-0.6-0.1-0.8-0.3
		c-0.2-0.2-0.2-0.4-0.2-0.7c0-0.7,0.3-1.4,0.9-2.3C304.7,10.3,305.9,9.4,306.4,9.1z M308.5,11.1c0,0.5-0.1,0.9-0.2,1.4
		c0.2,0.1,0.3,0.2,0.3,0.3c0,0.4-0.1,0.7-0.3,0.9c0,0.1-0.1,0.1-0.1,0.1l-0.5-0.3c-0.5,0.7-1.1,1.7-2.2,2.2c-0.3,0.2-0.7,0.3-1,0.3
		c-0.5,0.1-0.8,0-0.8-0.1c0-0.1,0.2-0.2,0.5-0.4c0.8-0.5,2.3-1.7,2.8-2.4c-0.4-0.3-1-0.6-1-1.2c0-0.4,0.2-0.8,0.5-1.2
		c0.4-0.5,0.8-0.8,1.1-0.8C308.3,9.9,308.4,10.6,308.5,11.1z M306.8,11.5C306.8,11.6,306.8,11.6,306.8,11.5c0,0.2,0.3,0.4,0.7,0.6
		c0.1-0.2,0.1-0.3,0.1-0.6c0-0.3-0.1-0.4-0.3-0.4C307.2,11.1,306.9,11.3,306.8,11.5z"/>
	<path class="st1" d="M307.8,18.3c0.1,0.1,0.1,0.1,0,0.2c-0.2,0.3-1.1,1.2-1.4,1.7c-0.1,0.1-0.1,0.1-0.2,0c-0.5-0.3-1.5-1-1.7-1.4
		c-0.1-0.1-0.1-0.1,0-0.2c0.3-0.5,0.9-1.2,1.3-1.6c0.2-0.2,0.2-0.2,0.3-0.1C306.4,17.2,307.1,17.8,307.8,18.3z"/>
	<path class="st1" d="M315.7,31.2c0.2-0.2,0.2-0.2,0.3-0.1c0.5,0.5,1,1.1,1.5,1.4c0.2,0.1,0.2,0.2,0,0.3c-0.5,0.5-0.9,1-1.3,1.5
		c-0.1,0.1-0.2,0.1-0.3,0c-0.4-0.3-0.9-0.7-1.4-1.2c-0.3,0.3-0.9,1-1.1,1.2c-0.1,0.1-0.2,0.2-0.4,0c-0.5-0.3-1.1-0.9-1.5-1.4
		c-0.1-0.1-0.1-0.2,0-0.3c0.4-0.5,0.9-1,1.4-1.5c0.1-0.1,0.2-0.1,0.3,0.1c0.4,0.4,1,1,1.4,1.2C314.9,32,315.4,31.4,315.7,31.2z"/>
	<path class="st1" d="M319.7,25.8c0,0.8-0.3,1.2-0.9,1.2h-0.3c-0.4,0-0.8-0.1-1.2-0.4c-0.4-0.3-0.7-0.6-0.9-1
		c-0.2-0.4-0.4-1-0.5-1.8c-0.1-0.8-0.2-1.3-0.3-1.3c-0.3,0.8-0.7,1.4-1.1,1.7c-0.6,0.5-1.2,0.6-1.6,0.6c-0.2,0-0.3,0-0.4,0
		c0,0.4,0,0.7,0,1c0,0.4,0,0.9-0.1,1.5c-0.1,0.9-0.2,1.6-0.3,2c-0.2,0.5-0.4,0.8-0.6,1.2c-1.6,2.2-4,3.1-6.8,3.1
		c-1.3,0-2.1-0.3-2.9-0.8c-1.1-0.8-1.6-2.2-1.6-3.7c0-1.1,0.5-2.5,1.3-3.7c0.2-0.4,0.5-0.6,0.7-0.6c0.1,0,0.1,0.1,0.1,0.1
		c0,0.2-0.1,0.4-0.2,0.7c-0.4,0.8-0.8,1.7-0.8,2.7c0,1.5,1.7,2.9,4.1,2.9c2.4,0,5.7-1,6.4-2.7c0-0.1,0-0.2,0-0.4c0-1.3-0.4-3-1-3.8
		c-0.2-0.3-0.5-0.6-0.5-0.6c0,0-0.1-0.1-0.1-0.2c0-0.5,0.5-2,0.7-2.2c0.1-0.1,0.1-0.1,0.2,0c0.6,0.8,1.2,1.2,1.9,1.3
		c0.2,0,0.5,0,0.9-0.1c0.4-0.1,0.8-0.4,1-0.7c0.5-0.6,0.7-1,0.9-1.5c0.1-0.1,0.2-0.3,0.3-0.3c0.1,0,0.2,0.2,0.3,0.5
		c0.1,0.3,0.2,0.8,0.3,1.6c0.1,0.8,0.4,1.4,0.7,1.9c0.3,0.5,0.7,0.8,1.2,0.8h0.3C319.4,24.7,319.7,25.1,319.7,25.8z"/>
	<path class="st1" d="M322.4,25.6c-0.4,0.6-1.2,1.1-2.6,1.3c-0.4,0.1-0.9,0.1-1.4,0.1c-0.6,0-1-0.6-1-1.1c0-0.6,0.3-1.1,1-1.1h0.5
		c1,0,2.6,0,3.2-0.6c-0.1-0.9-0.8-2-1.1-2.4c0,0,0,0,0-0.1c0-0.4,0.7-1.8,0.7-1.9c0-0.1,0.1-0.1,0.1-0.1c0.3,0,1.1,1.6,1.1,3.5
		C323,23.9,322.9,24.9,322.4,25.6z M323,14.5c0.1,0.1,0.1,0.1,0,0.2c-0.2,0.3-1.1,1.2-1.4,1.7c-0.1,0.1-0.1,0.1-0.2,0
		c-0.5-0.3-1.5-1-1.7-1.4c-0.1-0.1-0.1-0.1,0-0.2c0.3-0.5,0.9-1.2,1.3-1.6c0.2-0.2,0.2-0.2,0.3-0.1C321.6,13.4,322.3,14.1,323,14.5z
		"/>
	<path class="st1" d="M329.8,15.1c0.1-0.1,0.1,0,0.1,0.1c0,0.6-0.2,1.1-0.5,1.3l-4.1,2.3c-0.1,0-0.1,0-0.1-0.1c0-0.3,0.1-0.8,0.2-1
		c0.1-0.2,0.3-0.3,0.7-0.5L329.8,15.1z"/>
	<path class="st1" d="M330.3,26.2c0,3.4-1.5,6-4.2,7.1c-0.2,0.1-0.4,0.1-0.6,0.1c-0.9,0-2.8-0.5-4.1-1.1c-0.3-0.2-0.4-0.3-0.4-0.4
		c0-0.1,0.2-0.2,0.3-0.2c0.3,0,1.1,0.2,1.8,0.2c0.7,0,1.2-0.2,2.2-0.6c1.1-0.5,3.3-2.3,3.8-3.8c0.1-0.2,0.1-0.6,0.1-0.7
		c0-0.1-0.1-1-1-2.4c-0.3-0.5-0.5-0.8-0.8-1.2c-0.1-0.1-0.1-0.1-0.1-0.2c0-0.3,0.4-1.3,0.6-1.7c0.1-0.1,0.1-0.2,0.2-0.2
		c0.5,0,1.4,1.7,1.8,3.1C330.2,24.9,330.3,25.5,330.3,26.2z"/>
	<path class="st1" d="M341.9,11.7c0,0.5-0.1,1-0.3,1.5c0.2,0.1,0.4,0.3,0.4,0.4c0,0.4-0.2,0.7-0.3,1c-0.1,0.1-0.1,0.1-0.1,0.1
		l-0.5-0.3c-0.5,0.8-1.3,1.8-2.5,2.3c-0.4,0.2-0.9,0.4-1.5,0.4c-0.3,0-0.4-0.1-0.4-0.1c0-0.1,0.2-0.2,0.6-0.4
		c0.9-0.5,2.5-1.8,3.1-2.5c-0.5-0.3-1.1-0.7-1.1-1.4c0-0.4,0.2-0.9,0.6-1.3c0.4-0.5,0.8-0.8,1.2-0.8
		C341.7,10.4,341.9,11.1,341.9,11.7z M340.1,12.1C340.1,12.2,340.1,12.2,340.1,12.1c0,0.2,0.4,0.5,0.8,0.7c0.1-0.2,0.1-0.4,0.1-0.7
		c0-0.3-0.1-0.4-0.3-0.4C340.5,11.7,340.3,11.9,340.1,12.1z"/>
	<path class="st1" d="M348.2,6.4c0.1-0.1,0.1,0,0.1,0.1c0,0.6-0.2,1.1-0.5,1.3l-4.1,2.3c-0.1,0-0.1,0-0.1-0.1c0-0.3,0.1-0.8,0.2-1
		c0.1-0.2,0.3-0.3,0.7-0.5L348.2,6.4z"/>
	<path class="st1" d="M345.4,12.9c0-0.1,0-0.2,0-0.3c0,0,0-0.1,0-0.2c0-0.1,0.2-0.5,0.5-1c0.3-0.5,0.5-0.9,0.7-0.9
		c0.1,0,0.1,0.1,0.2,0.2c0.3,1,0.6,1.4,0.8,1.7c0,0.1,0.1,0.2,0.1,0.2c0,0.1,0,0.1,0,0.2c-0.1,0.2-0.4,0.8-0.6,1.1
		c0,0.6,0.2,2.2,0.5,4.3c0.2,2,0.3,3.1,0.3,3.6c0,1.7-0.4,3-1.1,4c-0.6,0.7-1.4,1-2.3,1c-0.7,0-1.3-0.2-1.8-0.8
		c-0.4-0.5-0.8-1.4-1.1-2.8c-0.5,1.2-1.2,1.8-2.2,1.8c-0.1,0-0.1,0-0.4,0c-0.7,0-1.1-0.1-1.4-0.2c-0.2-0.1-0.4-0.3-0.4-0.6
		c0-0.1,0-0.2,0.1-0.4c0.1-0.3,0.2-0.7,0.3-1c0.2-0.5,0.5-0.9,1-1.1c0.8-0.5,1.8-1,2.7-1.3c0-0.3,0.1-0.7,0.3-1.2
		c0.2-0.5,0.3-0.8,0.4-0.8c0.1,0,0.2,0.1,0.2,0.3c0.1,0.6,0.2,1.9,0.5,3.7c0.2,0.6,0.4,1.1,0.7,1.4c0.3,0.3,0.7,0.5,1.2,0.5
		c0.1,0,0.2,0,0.4,0c0.4,0,0.7,0,1-0.2c0.4-0.1,0.6-0.3,0.7-0.4c-0.1-1.9-0.9-8.8-1.1-10.3C345.5,13.4,345.5,13.4,345.4,12.9z
		 M340,23c0.7,0,1.1-0.2,1.4-0.5l-0.2-1.1c-1.2,0.6-2,1-2.3,1.4C339.2,23,339.5,23,340,23z"/>
	<path class="st1" d="M359.8,25.7c0.2,0.3,0.3,0.6,0.3,1.1c0,0.5-0.2,0.9-0.5,1.1c-0.3,0.2-0.6,0.3-1,0.3c-0.6,0-1.2-0.4-1.5-1.1
		c-0.3-0.7-0.4-1.3-0.4-2c0-0.8,0.2-1.6,0.5-2.3c0.3-0.7,0.6-1.2,1-1.7c0.4-0.4,0.6-0.7,0.8-0.7c0.3,0,0.1,0.4-0.2,0.8
		c-0.8,1.1-1.1,2.1-1.1,3.2c0,0.6,0.1,0.7,0.2,1c0.3-0.1,0.6-0.2,0.8-0.2C359.2,25.3,359.5,25.4,359.8,25.7z"/>
	<path class="st1" d="M371.1,16c0.1,0,0.1-0.1,0.2-0.1c0.1,0,0.3,0,0.4,0c0.1,0,0.1,0,0,0.1c-0.9,0.7-1.9,1.7-2.5,2.8
		c-0.2,0.3-0.2,0.5-0.2,0.7c0,0.4,0.4,0.6,0.8,0.8c0.1,0.1,0.2,0.2,0.2,0.3c0,0.5-0.5,1-1.3,1c-0.3,0-0.6-0.1-0.8-0.3
		c-0.2-0.2-0.2-0.4-0.2-0.7c0-0.7,0.3-1.4,0.9-2.3C369.4,17.1,370.6,16.2,371.1,16z M373.1,17.9c0,0.5-0.1,0.9-0.2,1.4
		c0.2,0.1,0.3,0.2,0.3,0.3c0,0.4-0.1,0.7-0.3,0.9c0,0.1-0.1,0.1-0.1,0.1l-0.5-0.3c-0.5,0.7-1.1,1.7-2.2,2.2c-0.3,0.2-0.7,0.3-1,0.3
		c-0.5,0.1-0.8,0-0.8-0.1c0-0.1,0.2-0.2,0.5-0.4c0.8-0.5,2.3-1.7,2.8-2.4c-0.4-0.3-1-0.6-1-1.2c0-0.4,0.2-0.8,0.5-1.2
		c0.4-0.5,0.8-0.8,1.1-0.8C372.9,16.8,373.1,17.4,373.1,17.9z M371.5,18.4C371.5,18.4,371.5,18.5,371.5,18.4c0,0.2,0.3,0.4,0.7,0.6
		c0.1-0.2,0.1-0.3,0.1-0.6c0-0.3-0.1-0.4-0.3-0.4C371.8,18,371.6,18.1,371.5,18.4z"/>
	<path class="st1" d="M378.5,31.4c0.2-0.2,0.2-0.2,0.3-0.1c0.5,0.5,1,1.1,1.5,1.4c0.2,0.1,0.2,0.2,0,0.3c-0.5,0.5-0.9,1-1.3,1.5
		c-0.1,0.1-0.2,0.1-0.3,0c-0.4-0.3-0.9-0.7-1.4-1.2c-0.3,0.3-0.9,1-1.1,1.2c-0.1,0.1-0.2,0.2-0.4,0c-0.5-0.3-1.1-0.9-1.5-1.4
		c-0.1-0.1-0.1-0.2,0-0.3c0.4-0.5,0.9-1,1.4-1.5c0.1-0.1,0.2-0.1,0.3,0.1c0.4,0.4,1,1,1.4,1.2C377.7,32.3,378.2,31.7,378.5,31.4z"/>
	<path class="st1" d="M375.6,28.3c0,0.1,0,0.2-0.1,0.5c-0.3,0.8-0.6,1.3-0.8,1.6c-0.1,0.1-0.1,0.1-0.2,0.1c-0.5-0.2-1.1-0.3-2.2-0.4
		c-1.7,0-2.8,0.3-3.1,0.9c0.2,1.2,0.4,2.1,0.5,2.6l0.4,2.1c0.2,1.1,0.3,2.2,0.3,3.1c0,0.9-0.1,1.9-0.4,2.8c-0.1,0.4-0.3,0.6-0.4,0.6
		c-0.1,0-0.1-0.2-0.1-0.5c0-0.3,0.1-0.7,0-1.2c0-0.9-0.2-2.1-0.6-4.6c-0.3-1.9-0.6-3-0.6-3.5c0-1,0.2-1.9,0.7-2.8
		c0.5-0.9,1.1-1.5,1.8-1.8l0.7-1.6c0.5-1.2,1.3-2,2.1-2.5c0.8-0.5,2.1-1.1,3.1-1.1c0.3,0,0.6,0.1,0.8,0.2c0.3,0.2,0.6,0.5,1,1.1
		c0.4,0.6,0.8,0.8,1.3,0.8h0.3c0.6,0,0.9,0.3,0.9,1c0,0.8-0.3,1.2-0.9,1.2h-0.3c-0.7,0-1.4-0.3-2-1c-0.5-0.5-0.8-0.9-1.2-1
		c-0.2-0.1-0.4-0.1-0.9-0.1c-1.1,0-2.1,0.4-2.9,1.1c0.9,0.4,1.6,0.8,2.1,1.3C375.2,27.7,375.5,28,375.6,28.3z"/>
	<path class="st1" d="M382.6,21.7c-0.2,0-0.5,0-0.6,0.1c-0.2,0.1-0.6,0.3-0.8,0.3c-0.2,0-0.2-0.1-0.2-0.2c0-0.4,0.6-1.3,1.2-1.8
		c0.5-0.4,1-0.6,1.4-0.6c0.2,0,0.3,0,0.5,0.1c1.8,0.4,4.1,1.4,6,1.8c1.3,0.3,2.6,0.4,3.4,0.4c0.2,0,0.3,0,0.5,0c0.1,0,0.1,0,0.1,0.1
		c0,0.4-0.7,1.5-1.1,1.9c-0.1,0.1-0.3,0.1-0.6,0.1c-0.5,0-1.6-0.1-1.9-0.1c-0.9,0-1.6,0.1-2.2,0.3c-0.4,0.2-1.2,0.5-2.3,1
		c-1.7,0.8-2.8,1.4-3.6,1.7c-0.8,0.3-1.6,0.5-2.5,0.5h-0.3c-0.7,0-1.1-0.4-1.1-1.2c0-0.7,0.4-1.1,1.1-1.1h0.3c1.4,0,2.5-0.1,3.4-0.4
		c0.9-0.3,2.3-0.7,4-1.4C385.3,22.3,383.7,21.7,382.6,21.7z M389.4,15.7c0.1,0.1,0.1,0.1,0,0.2c-0.2,0.3-1.1,1.2-1.4,1.7
		c-0.1,0.1-0.1,0.1-0.2,0c-0.5-0.3-1.5-1-1.7-1.4c-0.1-0.1-0.1-0.1,0-0.2c0.3-0.5,0.9-1.2,1.3-1.6c0.2-0.2,0.2-0.2,0.3-0.1
		C387.9,14.6,388.7,15.3,389.4,15.7z"/>
	<path class="st1" d="M399.5,15.1c0.1-0.1,0.1,0,0.1,0.1c0,0.6-0.2,1.1-0.5,1.3l-4.1,2.3c-0.1,0-0.1,0-0.1-0.1c0-0.3,0.1-0.8,0.2-1
		c0.1-0.2,0.3-0.3,0.7-0.5L399.5,15.1z"/>
	<path class="st1" d="M400,26.2c0,3.4-1.5,6-4.2,7.1c-0.2,0.1-0.4,0.1-0.6,0.1c-0.9,0-2.8-0.5-4.1-1.1c-0.3-0.2-0.4-0.3-0.4-0.4
		c0-0.1,0.2-0.2,0.3-0.2c0.3,0,1.1,0.2,1.8,0.2c0.7,0,1.2-0.2,2.2-0.6c1.1-0.5,3.3-2.3,3.8-3.8c0.1-0.2,0.1-0.6,0.1-0.7
		c0-0.1-0.1-1-1-2.4c-0.3-0.5-0.5-0.8-0.8-1.2c-0.1-0.1-0.1-0.1-0.1-0.2c0-0.3,0.4-1.3,0.6-1.7c0.1-0.1,0.1-0.2,0.2-0.2
		c0.5,0,1.4,1.7,1.8,3.1C399.9,24.9,400,25.5,400,26.2z"/>
	<path class="st1" d="M414.7,2.7c0.1,0.2,0.2,0.5,0.2,0.8c0,0.5-0.2,0.9-0.4,1.4c0.2,0.2,0.3,0.3,0.3,0.4c0,0.3-0.2,0.6-0.5,0.9
		l-0.5-0.4c-0.6,0.8-1.1,1.3-1.7,1.5c-0.6,0.3-1.9,0.6-2.8,0.8c-0.3,0-0.4,0-0.4-0.1c0,0,0-0.1,0.2-0.2c2.2-1.2,3.6-2.1,4.2-2.5
		c-0.4-0.3-0.8-0.7-0.8-1.3c0-0.5,0.3-0.8,0.7-1.2c0.4-0.4,0.8-0.6,1.1-0.6C414.4,2.3,414.5,2.4,414.7,2.7z M410.5,3
		c0.9-1.6,2.8-3,4.7-3c1,0,2.6,0.4,2.6,1.3c0,1.1-1.4,2.7-2.4,3.4c0,0,0,0-0.1,0c-0.1,0-0.2-0.2-0.2-0.3c0,0,0,0,0-0.1
		c0.9-0.8,1.4-1.3,1.4-1.9c-0.2-0.7-1.2-1.1-1.9-1.1c-1.5,0-3.7,1.3-3.8,3c0,0.2,0.2,0.5,0.7,0.9c0,0,0,0,0,0.1
		c-0.2,0.2-0.4,0.6-1,0.9c0,0-0.1,0.1-0.1,0.1c-0.1,0-0.7-0.4-0.7-1C409.7,4.7,410.1,3.7,410.5,3z M413.1,3.8
		c0.1,0.2,0.3,0.4,0.7,0.6c0.1-0.1,0.2-0.3,0.2-0.6c0-0.3-0.1-0.4-0.3-0.4C413.5,3.4,413.2,3.6,413.1,3.8z"/>
	<path class="st1" d="M417.3,24.7h0.3c0.7,0,1,0.4,1,1.1c0,0.8-0.4,1.2-1,1.2h-0.3c-0.8,0-1.4-0.3-1.8-0.7c-0.5-0.4-0.8-1-1.1-1.9
		c-0.3,1.6-2.2,2.6-4.6,2.6c-0.7,0-1.5-0.1-2.1-0.5c-0.4-0.3-0.7-0.6-0.7-1.1c0-0.5,0.1-1.3,0.4-1.9c0.1-0.2,0.2-0.3,0.3-0.3
		c0.1,0,0.2,0.1,0.3,0.3c0.2,0.7,1.2,1,2.3,1c2.1,0,3.1-0.5,3.6-1.3c0-0.2,0.1-0.4,0.1-0.7c0-1.3-0.4-2.9-0.7-4.4
		c0-0.2-0.1-0.3-0.1-0.5c0-0.1,0.1-0.4,0.5-1.4c0.2-0.4,0.3-0.6,0.4-0.6c0.1,0,0.2,0.2,0.3,0.6c0.8,3.3,0.8,5.6,1.2,7
		c0.1,0.4,0.2,0.6,0.5,0.9C416.4,24.5,416.9,24.7,417.3,24.7z M415.4,10.7c0.1,0.1,0.1,0.1,0,0.2c-0.2,0.3-1.1,1.2-1.4,1.7
		c-0.1,0.1-0.1,0.1-0.2,0c-0.5-0.3-1.5-1-1.7-1.4c-0.1-0.1-0.1-0.1,0-0.2c0.3-0.5,0.9-1.2,1.3-1.6c0.2-0.2,0.2-0.2,0.3-0.1
		C413.9,9.6,414.7,10.3,415.4,10.7z"/>
	<path class="st1" d="M421.2,25.6c-0.4,0.6-1.2,1.1-2.6,1.3c-0.4,0.1-0.9,0.1-1.4,0.1c-0.6,0-1-0.6-1-1.1c0-0.6,0.3-1.1,1-1.1h0.5
		c1,0,2.6,0,3.2-0.6c-0.1-0.9-0.8-2-1.1-2.4c0,0,0,0,0-0.1c0-0.4,0.7-1.8,0.7-1.9c0-0.1,0.1-0.1,0.1-0.1c0.3,0,1.1,1.6,1.1,3.5
		C421.9,23.9,421.8,24.9,421.2,25.6z M421.8,28.2c0.2-0.2,0.2-0.2,0.3-0.1c0.5,0.5,1,1.1,1.5,1.4c0.2,0.1,0.2,0.2,0,0.3
		c-0.5,0.5-0.9,1-1.3,1.5c-0.1,0.1-0.2,0.1-0.3,0c-0.4-0.3-0.9-0.7-1.4-1.2c-0.3,0.3-0.9,1-1.1,1.2c-0.1,0.1-0.2,0.2-0.4,0
		c-0.5-0.3-1.1-0.9-1.5-1.4c-0.1-0.1-0.1-0.2,0-0.3c0.4-0.5,0.9-1,1.4-1.5c0.1-0.1,0.2-0.1,0.3,0.1c0.4,0.4,1,1,1.4,1.2
		C421,29,421.5,28.4,421.8,28.2z"/>
	<path class="st1" d="M433.6,24.7h0.3c0.7,0,1,0.4,1,1.1c0,0.8-0.4,1.2-1,1.2h-0.3c-0.8,0-1.4-0.3-1.8-0.7c-0.5-0.4-0.8-1-1.1-1.9
		c-0.3,1.6-2.2,2.6-4.6,2.6c-0.7,0-1.5-0.1-2.1-0.5c-0.4-0.3-0.7-0.6-0.7-1.1c0-0.5,0.1-1.3,0.4-1.9c0.1-0.2,0.2-0.3,0.3-0.3
		c0.1,0,0.2,0.1,0.3,0.3c0.2,0.7,1.2,1,2.3,1c2.1,0,3.1-0.5,3.6-1.3c0-0.2,0.1-0.4,0.1-0.7c0-1.3-0.4-2.9-0.7-4.4
		c0-0.2-0.1-0.3-0.1-0.5c0-0.1,0.1-0.4,0.5-1.4c0.2-0.4,0.3-0.6,0.4-0.6c0.1,0,0.2,0.2,0.3,0.6c0.8,3.3,0.8,5.6,1.2,7
		c0.1,0.4,0.2,0.6,0.5,0.9C432.7,24.5,433.2,24.7,433.6,24.7z M431.7,10.7c0.1,0.1,0.1,0.1,0,0.2c-0.2,0.3-1.1,1.2-1.4,1.7
		c-0.1,0.1-0.1,0.1-0.2,0c-0.5-0.3-1.5-1-1.7-1.4c-0.1-0.1-0.1-0.1,0-0.2c0.3-0.5,0.9-1.2,1.3-1.6c0.2-0.2,0.2-0.2,0.3-0.1
		C430.2,9.6,431,10.3,431.7,10.7z"/>
	<path class="st1" d="M437.9,5.8c0.1-0.1,0.1,0,0.1,0.1c0,0.6-0.2,1.1-0.5,1.3l-4.1,2.3c-0.1,0-0.1,0-0.1-0.1c0-0.3,0.1-0.8,0.2-1
		c0.1-0.2,0.3-0.3,0.7-0.5L437.9,5.8z"/>
	<path class="st1" d="M436,26c-0.5,0.7-1.2,1-2.3,1h-0.2c-0.7,0-1-0.4-1-1.2c0-0.7,0.3-1.1,1-1.1h0.2c0.5,0,1-0.1,1.5-0.2
		c0.4-0.1,0.6-0.3,0.7-0.4c0-1.7-0.6-5.4-0.9-8.9c0-0.4-0.3-1.6-0.4-2.1c0-0.1,0-0.2,0-0.2c0-0.3,0.3-0.9,0.5-1.3
		c0.3-0.5,0.5-0.9,0.7-0.9c0.1,0,0.1,0.1,0.2,0.2c0.3,1,0.6,1.5,0.8,1.8c0.1,0.1,0.1,0.2,0.1,0.3c0,0,0,0.1,0,0.1
		c-0.1,0.2-0.4,0.8-0.6,1.1c0.2,3.4,0.7,6.2,0.7,7.8C437,23.6,436.7,25,436,26z"/>
	<path class="st1" d="M455.6,8.9c0.1,0.2,0.2,0.5,0.2,0.8c0,0.5-0.2,0.9-0.4,1.4c0.2,0.2,0.3,0.3,0.3,0.4c0,0.3-0.2,0.6-0.5,0.9
		l-0.5-0.4c-0.6,0.8-1.1,1.3-1.7,1.5c-0.6,0.3-1.9,0.6-2.8,0.8c-0.3,0-0.4,0-0.4-0.1c0,0,0-0.1,0.2-0.2c2.2-1.2,3.6-2.1,4.2-2.5
		c-0.4-0.3-0.8-0.7-0.8-1.3c0-0.5,0.3-0.8,0.7-1.2c0.4-0.4,0.8-0.6,1.1-0.6C455.3,8.6,455.5,8.7,455.6,8.9z M451.5,9.3
		c0.9-1.6,2.8-3,4.7-3c1,0,2.6,0.4,2.6,1.3c0,1.1-1.4,2.7-2.4,3.4c0,0,0,0-0.1,0c-0.1,0-0.2-0.2-0.2-0.3c0,0,0,0,0-0.1
		c0.9-0.8,1.4-1.3,1.4-1.9c-0.2-0.7-1.2-1.1-1.9-1.1c-1.5,0-3.7,1.3-3.8,3c0,0.2,0.2,0.5,0.7,0.9c0,0,0,0,0,0.1
		c-0.2,0.2-0.4,0.6-1,0.9c0,0-0.1,0.1-0.1,0.1c-0.1,0-0.7-0.4-0.7-1C450.7,11,451.1,10,451.5,9.3z M454.1,10.1
		c0.1,0.2,0.3,0.4,0.7,0.6c0.1-0.1,0.2-0.3,0.2-0.6c0-0.3-0.1-0.4-0.3-0.4C454.5,9.7,454.2,9.8,454.1,10.1z"/>
	<path class="st1" d="M447.5,26.3c-1.4-0.6-2.2-1.4-2.2-3.1c0-1.2,0.5-2.4,0.8-3c0.2-0.3,0.4-0.6,0.6-0.6c0.1,0,0.1,0.1,0.1,0.2
		c0,0.1-0.1,0.4-0.2,0.6c-0.2,0.5-0.4,1-0.4,1.6c0,0.5,0.4,1.4,1.8,2.1c1,0.4,2.5,0.7,4.6,0.7c4.7,0,9.9-1.4,10-2c0-0.1,0-0.3,0-0.4
		c0-1-0.8-2.1-1.1-2.6c0,0,0,0,0-0.1c0-0.3,0.7-1.9,1-1.9c0.3,0,1.2,1.6,1.2,3.5c0,1.6-0.5,2.7-0.8,3.2c-0.6,0.8-5.9,2.5-10.6,2.5
		C450.4,27.1,448.7,26.8,447.5,26.3z M455.9,15.3c0.2-0.2,0.2-0.2,0.3-0.1c0.5,0.5,1,1.1,1.5,1.4c0.2,0.1,0.2,0.2,0,0.3
		c-0.5,0.5-0.9,1-1.3,1.5c-0.1,0.1-0.2,0.1-0.3,0c-0.4-0.3-0.9-0.7-1.4-1.2c-0.3,0.3-0.9,1-1.1,1.2c-0.1,0.1-0.2,0.2-0.4,0
		c-0.5-0.3-1.1-0.9-1.5-1.4c-0.1-0.1-0.1-0.2,0-0.3c0.4-0.5,0.9-1,1.4-1.5c0.1-0.1,0.2-0.1,0.3,0.1c0.4,0.4,1,1,1.4,1.2
		C455.2,16.1,455.7,15.5,455.9,15.3z"/>
	<path class="st1" d="M463.4,33c-0.3-0.2-0.4-0.3-0.4-0.4c0-0.1,0.2-0.2,0.4-0.2c0.3,0,1.1,0.2,1.8,0.2c0.6,0,1.2-0.2,2.1-0.6
		c2.4-1.2,3.9-3,3.9-4.2c0-0.2,0-0.3-0.1-0.7h-0.7c-0.5,0-1.5-0.1-2.2-0.5c-0.7-0.4-1-0.9-1-1.5c0-0.6,0.3-1.4,0.6-2.2
		c0.6-1.3,1.2-2.2,1.9-2.2c0.7,0,1.3,0.5,1.8,1.1c0.5,0.7,0.7,1.8,0.7,2.8h1c0.6,0,0.9,0.3,0.9,1c0,0.8-0.3,1.2-0.9,1.2l-1.1,0.1
		c-0.2,3.5-1.3,5.8-4.1,6.9c-0.2,0.1-0.4,0.1-0.6,0.1C466.4,34,464.8,33.6,463.4,33z M469.6,23.3c-0.1-0.1-0.3-0.2-0.6-0.2
		c-0.5,0-0.8,0.5-0.8,0.8c0,0.2,0.2,0.5,0.8,0.7c0.4,0.2,0.9,0.2,1.1,0.2c0.2,0,0.2,0,0.2-0.1C470.5,24.4,470.1,23.7,469.6,23.3z"/>
	<path class="st1" d="M482.3,29.1c0.1-0.1,0.1,0,0.1,0.1c0,0.6-0.2,1.1-0.5,1.3l-4.1,2.3c-0.1,0-0.1,0-0.1-0.1c0-0.3,0.1-0.8,0.2-1
		c0.1-0.2,0.3-0.3,0.7-0.5L482.3,29.1z"/>
	<path class="st1" d="M477.3,28.2c-0.1,0-0.1-0.1-0.1-0.2c0-0.1,0-0.2,0.1-0.3c0.1-0.3,0.3-0.7,0.5-1.1c-1-0.4-1.7-1-2-1.9
		c-0.8,1.5-1.6,2.3-2.6,2.3h-0.2c-0.7,0-1-0.4-1-1.1c0-0.8,0.3-1.1,1-1.1h0.2c1.3,0,2.2-0.8,2.8-2.3c0.3-0.6,0.5-0.9,0.6-0.9
		c0.2,0,0.3,0.2,0.3,0.7c0,0.8,0.5,1.9,2.3,2.3c2-2.5,5.6-5.5,7.2-5.5c0.6,0,1.3,0.2,1.9,0.6c0.7,0.5,0.9,1,0.9,1.5
		c0,0.8-0.4,2.2-1.1,3.1c-0.8,0.9-2.6,1.8-4.5,2.2c-1.1,0.3-2.3,0.4-3.3,0.4c-0.7,0-1.3-0.1-1.8-0.2c-0.2,0.3-0.4,0.7-0.6,1
		C477.7,27.9,477.5,28.2,477.3,28.2z M487.7,22.9c0-0.6-1.6-1.5-2.5-1.5c-1.5,0-3.9,1.8-5.3,3.3c0.2,0,0.4,0,0.7,0
		C483.4,24.7,486.9,23.5,487.7,22.9C487.7,22.9,487.7,22.9,487.7,22.9z"/>
	<path class="st1" d="M504.4,18.8c0.1-0.1,0.1,0,0.1,0.1c0,0.6-0.2,1.1-0.5,1.3l-4.1,2.3c-0.1,0-0.1,0-0.1-0.1c0-0.3,0.1-0.8,0.2-1
		c0.1-0.2,0.3-0.3,0.7-0.5L504.4,18.8z"/>
	<path class="st1" d="M505.4,35.8c0.2-0.2,0.2-0.2,0.3-0.1c0.5,0.5,1,1.1,1.5,1.4c0.2,0.1,0.2,0.2,0,0.3c-0.5,0.5-0.9,1-1.3,1.5
		c-0.1,0.1-0.2,0.1-0.3,0c-0.4-0.3-0.9-0.7-1.4-1.2c-0.3,0.3-0.9,1-1.1,1.2c-0.1,0.1-0.2,0.2-0.4,0c-0.5-0.3-1.1-0.9-1.5-1.4
		c-0.1-0.1-0.1-0.2,0-0.3c0.4-0.5,0.9-1,1.4-1.5c0.1-0.1,0.2-0.1,0.3,0.1c0.4,0.4,1,1,1.4,1.2C504.6,36.7,505.2,36,505.4,35.8z"/>
	<path class="st1" d="M516.2,29.1c0.1-0.1,0.1,0,0.1,0.1c0,0.6-0.2,1.1-0.5,1.3l-4.1,2.3c-0.1,0-0.1,0-0.1-0.1c0-0.3,0.1-0.8,0.2-1
		c0.1-0.2,0.3-0.3,0.7-0.5L516.2,29.1z"/>
	<path class="st1" d="M498.1,24.2c0.3-0.6,0.6-0.8,0.7-0.8c0.3,0-0.1,0.9-0.2,1c-0.3,0.7-1,2.1-1,3.3c0,2.4,1.9,3.8,4.7,3.8
		c2.8,0,7-1.9,7.7-2.8c0-0.2-0.5-0.3-1.6-0.4c-2.2-0.2-3.4-0.6-3.4-1.4c0-0.4,0.1-1,0.4-1.6c0.5-1,1.3-1.8,2.5-2.3
		c-0.2-0.3-0.2-0.7-0.2-1.1c0-1.2,0.6-2.7,1.1-3.4c-0.1-0.1-0.2-0.3-0.2-0.6c0-0.4,0.2-2.2,0.9-2.2c1.7,0,6.2,3.3,6.3,6.5
		c0,1.6-0.7,2.7-1.7,2.7c-0.4,0-0.8-0.1-1.2-0.2c-1-0.2-1.8-0.6-2.9-0.8c-0.3,0-1,0.2-2,0.5c-0.8,0.3-1.4,0.6-1.6,0.8
		c-0.1,0.1-0.1,0.2-0.1,0.3c0,0.5,0.6,0.8,1.8,1c1.3,0.1,2.1,0.2,2.5,0.4c0.3,0.2,0.5,0.5,0.5,1c0,0.7-0.3,1.2-0.5,1.5
		c-1.5,2.4-6.1,4.3-8.9,4.3c-2.2,0-5.2-1-5.2-4.7C496.8,27.2,497.5,25.3,498.1,24.2z M510.2,19c-0.4,0-1.4,1.1-1.4,1.5
		c0,0.5,0.4,1.1,1.5,1.3c0.5-0.2,1.1-0.6,1.3-0.9C511.7,20.1,510.5,19,510.2,19z M512.6,19.8c0,0.1,0,0.3,0,0.4c0,1-0.6,1.8-0.8,1.9
		c1.4,0.3,2.4,1.1,3.4,1C515,22.1,514,20.6,512.6,19.8z"/>
	<g>
		<g>
			<circle class="st2" cx="637.7" cy="20.2" r="9.1"/>
		</g>
		<g>
			<linearGradient id="SVGID_1_" gradientUnits="userSpaceOnUse" x1="637.6992" y1="29.3731" x2="637.6992" y2="16.6338">
				<stop  offset="0" style="stop-color:#B1650C;stop-opacity:0"/>
				<stop  offset="0.1413" style="stop-color:#B1650C;stop-opacity:0.1413"/>
				<stop  offset="1" style="stop-color:#B1650C"/>
			</linearGradient>
			<path class="st3" d="M637.7,22.5c-4.8,0-8.8-1.1-9.1-5.9c0,0.2,0,3.4,0,3.6c0,5,4.1,9.1,9.1,9.1c5.1,0,9.1-4.1,9.1-9.1
				c0-0.2,0-3.4,0-3.6C646.5,21.4,642.5,22.5,637.7,22.5z"/>
		</g>
		<g>
			<ellipse class="st4" cx="637.7" cy="16.1" rx="6.6" ry="4.7"/>
		</g>
		<ellipse class="st5" cx="637.4" cy="12.2" rx="1.3" ry="0.8"/>
		<g>
			<circle class="st6" cx="637.7" cy="20.3" r="5.6"/>
			<circle class="st6" cx="637.7" cy="19.1" r="5.6"/>
			<linearGradient id="SVGID_2_" gradientUnits="userSpaceOnUse" x1="637.6992" y1="24.6836" x2="637.6992" y2="13.5674">
				<stop  offset="0" style="stop-color:#428D6B"/>
				<stop  offset="0.2212" style="stop-color:#2E7568"/>
				<stop  offset="0.5194" style="stop-color:#195B65"/>
				<stop  offset="0.7881" style="stop-color:#0C4B63"/>
				<stop  offset="1" style="stop-color:#084662"/>
			</linearGradient>
			<circle class="st7" cx="637.7" cy="19.1" r="5.6"/>
			<linearGradient id="SVGID_3_" gradientUnits="userSpaceOnUse" x1="637.6992" y1="20.1055" x2="637.6992" y2="14.5479">
				<stop  offset="0" style="stop-color:#FFC27A;stop-opacity:0"/>
				<stop  offset="1" style="stop-color:#FFC27A"/>
			</linearGradient>
			<circle class="st8" cx="637.7" cy="17.3" r="2.8"/>
			<linearGradient id="SVGID_4_" gradientUnits="userSpaceOnUse" x1="637.6992" y1="20.1055" x2="637.6992" y2="14.5479">
				<stop  offset="0" style="stop-color:#FFC27A;stop-opacity:0"/>
				<stop  offset="1" style="stop-color:#FFC27A"/>
			</linearGradient>
			<circle class="st9" cx="637.7" cy="17.3" r="2.8"/>
		</g>
		<ellipse class="st1" cx="637.5" cy="15.8" rx="1.2" ry="0.8"/>
	</g>
</g>
</svg>
