<?xml version="1.0" encoding="utf-8"?>
<!-- Generator: Adobe Illustrator 19.2.0, SVG Export Plug-In . SVG Version: 6.00 Build 0)  -->
<svg version="1.1" id="Layer_1" xmlns="http://www.w3.org/2000/svg" xmlns:xlink="http://www.w3.org/1999/xlink" x="0px" y="0px"
	 viewBox="0 0 250.8 49.9" style="enable-background:new 0 0 250.8 49.9;" xml:space="preserve">
<style type="text/css">
	.st0{fill:#002F3D;}
	.st1{fill:none;}
</style>
<g>
	<g>
		<path class="st0" d="M63.4,32.9c0.1,0,0.1,0,0.1,0c0,0.5-0.2,0.9-0.4,1l-3.3,1.9c-0.1,0-0.1,0-0.1,0c0-0.2,0.1-0.6,0.2-0.8
			c0.1-0.1,0.2-0.2,0.5-0.4L63.4,32.9z M63.4,34.6c0.1,0,0.1,0,0.1,0c0,0.5-0.2,0.9-0.4,1l-3.3,1.9c-0.1,0-0.1,0-0.1,0
			c0-0.2,0.1-0.6,0.2-0.8c0.1-0.1,0.2-0.2,0.5-0.4L63.4,34.6z"/>
		<path class="st0" d="M62.1,20.9c0.1-0.1,0.2-0.2,0.3-0.1c0.4,0.4,0.8,0.8,1.2,1.1c0.1,0.1,0.1,0.1,0,0.2c-0.4,0.4-0.7,0.8-1.1,1.2
			c-0.1,0.1-0.1,0.1-0.2,0c-0.3-0.2-0.7-0.6-1.1-1c-0.2,0.3-0.7,0.8-0.9,0.9c-0.1,0.1-0.2,0.1-0.3,0c-0.4-0.2-0.9-0.7-1.2-1.1
			c-0.1-0.1-0.1-0.1,0-0.3c0.3-0.4,0.7-0.8,1.1-1.2c0.1-0.1,0.1-0.1,0.2,0c0.3,0.3,0.8,0.8,1.1,1C61.4,21.5,61.9,21.1,62.1,20.9z
			 M61.1,25.4c0.3,0,0.7,0.2,1.1,0.5c0.6,0.5,1.1,1.3,1.1,2.3c0,0.5-0.1,1.1-0.3,1.6c-0.4,1.1-1.3,1.7-2.4,1.7
			c-1.1,0-1.8-0.8-1.8-1.8C58.9,28.3,60.5,25.4,61.1,25.4z M62.5,28.9c-0.3-0.6-1-1.4-1.7-1.4c0,0-0.1,0-0.2,0.1
			c-0.6,0.4-0.9,1-0.9,1.4c0,0.4,0.6,0.8,1.2,0.8c0.4,0,1.3-0.2,1.6-0.6c0,0,0-0.1,0-0.1C62.6,29,62.6,28.9,62.5,28.9z"/>
		<path class="st0" d="M71.5,17.9c0.1,0,0.1,0,0.1,0c0,0.5-0.2,0.9-0.4,1L68,20.8c-0.1,0-0.1,0-0.1,0c0-0.2,0.1-0.6,0.2-0.8
			c0.1-0.1,0.2-0.2,0.5-0.4L71.5,17.9z"/>
		<path class="st0" d="M72.9,29.7h0.3c0.5,0,0.8,0.3,0.8,0.9c0,0.6-0.3,0.9-0.8,0.9h-0.2c-0.6,0-1.1-0.2-1.4-0.5
			c-0.4-0.3-0.6-0.8-0.9-1.5c-0.3,1.2-1.8,2.1-3.6,2.1c-0.5,0-1.1-0.1-1.7-0.4c-0.3-0.2-0.5-0.5-0.5-0.8c0-0.4,0.1-1,0.3-1.5
			c0.1-0.2,0.2-0.3,0.3-0.3s0.2,0.1,0.2,0.3c0.2,0.6,0.9,0.8,1.8,0.8c1.7,0,2.5-0.4,2.8-1c0-0.2,0-0.3,0-0.5c0-1-0.3-2.3-0.6-3.5
			c0-0.2,0-0.3,0-0.4c0-0.1,0-0.3,0.4-1.1c0.1-0.3,0.2-0.5,0.3-0.5c0.1,0,0.1,0.1,0.2,0.5c0.6,2.6,0.6,4.4,0.9,5.5
			c0.1,0.3,0.2,0.5,0.4,0.7C72.2,29.5,72.5,29.7,72.9,29.7z"/>
		<path class="st0" d="M80.2,32.1c0.1,0,0.1,0,0.1,0c0,0.5-0.2,0.9-0.4,1l-3.2,1.8c-0.1,0-0.1,0-0.1,0c0-0.2,0.1-0.6,0.2-0.8
			c0.1-0.1,0.2-0.2,0.5-0.4L80.2,32.1z"/>
		<path class="st0" d="M75.2,27.3c-0.2,0-0.4,0-0.5,0.1c-0.2,0.1-0.5,0.2-0.6,0.2c-0.1,0-0.2-0.1-0.2-0.2c0-0.3,0.5-1,0.9-1.4
			c0.4-0.3,0.8-0.5,1.1-0.5c0.1,0,0.3,0,0.4,0c1.4,0.3,3.3,1.1,4.7,1.4c1,0.2,2,0.3,2.7,0.3c0.1,0,0.3,0,0.4,0c0,0,0.1,0,0.1,0.1
			c0,0.3-0.5,1.2-0.9,1.5c-0.1,0.1-0.2,0.1-0.4,0.1c-0.4,0-1.3-0.1-1.5-0.1c-0.7,0-1.3,0.1-1.8,0.2c-0.3,0.1-0.9,0.4-1.8,0.8
			c-1.3,0.7-2.2,1.1-2.8,1.3c-0.6,0.2-1.2,0.4-2,0.4h-0.2c-0.6,0-0.9-0.3-0.9-0.9c0-0.6,0.3-0.8,0.9-0.8H73c1.1,0,2-0.1,2.7-0.3
			c0.7-0.2,1.8-0.6,3.1-1.1C77.3,27.8,76.1,27.3,75.2,27.3z"/>
		<path class="st0" d="M87.3,31.5c-0.1,0-0.1-0.1-0.1-0.5c0-2.4-0.9-8.9-0.9-10c0-0.5,0.4-1.4,0.7-1.9c0.1-0.2,0.3-0.4,0.4-0.4
			c0.1,0,0.1,0.2,0.1,0.6c0.1,1.7,0.6,5.7,0.6,8.6c0,1.2-0.1,2.1-0.3,2.7C87.6,31.2,87.5,31.5,87.3,31.5z"/>
		<path class="st0" d="M94.5,28.2c0.3,0.7,0.4,1.4,0.4,2.4c0,3.1-0.9,5.1-3.3,6c-0.1,0-0.3,0.1-0.5,0.1c-0.8,0-2.1-0.4-3.1-0.8
			c-0.3-0.1-0.3-0.2-0.3-0.3c0-0.1,0.1-0.1,0.3-0.1c0.1,0,0.9,0.2,1.4,0.2c0.7,0,1.5-0.3,2.6-1c1.2-0.8,2.2-1.8,2.2-3
			c0-0.4-0.1-0.8-0.3-1.1c-0.2,0.6-0.6,0.9-1.2,0.9c-1,0-1.6-0.6-1.6-1.7c0-0.4,0.2-1.1,0.5-1.6c0.4-0.8,1-1.5,1.4-1.5
			C93.4,26.5,94.1,27.2,94.5,28.2z M92.5,28.3c-0.2,0-0.4,0.2-0.5,0.4c-0.1,0.1-0.2,0.3-0.2,0.4c0,0.3,0.5,0.5,0.9,0.5
			c0.3,0,0.5-0.1,0.6-0.3C93.3,28.6,92.7,28.3,92.5,28.3z"/>
		<path class="st0" d="M104.7,32.2c0.1,0,0.1,0,0.1,0c0,0.5-0.2,0.9-0.4,1l-3.3,1.9c-0.1,0-0.1,0-0.1,0c0-0.2,0.1-0.6,0.2-0.8
			c0.1-0.1,0.2-0.2,0.5-0.4L104.7,32.2z M104.7,33.8c0.1,0,0.1,0,0.1,0c0,0.5-0.2,0.9-0.4,1l-3.3,1.9c-0.1,0-0.1,0-0.1,0
			c0-0.2,0.1-0.6,0.2-0.8c0.1-0.1,0.2-0.2,0.5-0.4L104.7,33.8z"/>
		<path class="st0" d="M103.7,19.6c0.1-0.1,0.2-0.2,0.3-0.1c0.4,0.4,0.8,0.8,1.2,1.1c0.1,0.1,0.1,0.1,0,0.2
			c-0.4,0.4-0.7,0.8-1.1,1.2c-0.1,0.1-0.1,0.1-0.2,0c-0.3-0.2-0.7-0.6-1.1-1c-0.2,0.3-0.7,0.8-0.9,0.9c-0.1,0.1-0.2,0.1-0.3,0
			c-0.4-0.2-0.9-0.7-1.2-1.1c-0.1-0.1-0.1-0.1,0-0.3c0.3-0.4,0.7-0.8,1.1-1.2c0.1-0.1,0.1-0.1,0.2,0c0.3,0.3,0.8,0.8,1.1,1
			C103,20.3,103.5,19.8,103.7,19.6z M106,29.3c0.4,0.2,0.7,0.4,0.9,0.4h0.3c0.5,0,0.8,0.3,0.8,0.8c0,0.6-0.3,1-0.9,1h-0.2
			c-0.6,0-1.2-0.2-1.8-0.7c-0.6-0.5-0.9-1.3-1.1-2.4c-0.2,0.3-0.3,0.6-0.7,0.8c-0.5,0.3-1.3,0.5-2.1,0.5c-0.6,0-1.1-0.1-1.1-0.5
			c0.2-1.8,0.5-2,1.3-2.7c0.4-0.3,1.4-0.9,1.8-1.2c0-0.2,0-0.3,0-0.4c0-0.4,0.1-0.6,0.3-1c0.1-0.2,0.2-0.4,0.3-0.4
			c0.1,0,0.1,0.1,0.2,0.4c0.3,1.6,0.4,3,0.6,3.8C105,28.3,105.4,28.9,106,29.3z M103.6,26.1c-0.7,0.5-2,1.2-2,1.5
			c0,0.1,0.2,0.2,0.6,0.2c0.5,0,1.2-0.1,1.7-0.4C103.8,26.9,103.7,26.7,103.6,26.1z"/>
		<path class="st0" d="M111.7,22.6c0.1,0,0.1,0,0.1,0c0,0.5-0.2,0.9-0.4,1l-3.2,1.8c-0.1,0-0.1,0-0.1,0c0-0.2,0.1-0.6,0.2-0.8
			c0.1-0.1,0.2-0.2,0.5-0.4L111.7,22.6z"/>
		<path class="st0" d="M116.1,32.7c0.1,0,0.1,0,0.1,0c0,0.5-0.2,0.9-0.4,1l-3.2,1.8c-0.1,0-0.1,0-0.1,0c0-0.2,0.1-0.6,0.2-0.8
			c0.1-0.1,0.2-0.2,0.5-0.4L116.1,32.7z"/>
		<path class="st0" d="M119.8,16.2c0.1,0,0.1,0,0.1,0c0,0.5-0.2,0.9-0.4,1l-3.2,1.8c-0.1,0-0.1,0-0.1,0c0-0.2,0.1-0.6,0.2-0.8
			c0.1-0.1,0.2-0.2,0.5-0.4L119.8,16.2z"/>
		<path class="st0" d="M115.7,31.2c-0.4-0.3-0.8-0.7-1-1.3c-0.1-0.2-0.1-0.6-0.2-1.1c-0.1-0.9-0.2-1.7-0.3-2.5
			c-0.4,1.1-0.8,1.9-1.3,2.2c0.2,0.3,0.2,0.7,0.2,1.1c0,0.3-0.1,0.7-0.4,1.2c-0.3,0.5-0.6,0.7-0.9,0.7c-0.4,0-0.8-0.1-1.3-0.4
			c-0.5-0.2-0.9-0.6-1.2-1c-0.6,1.1-1.3,1.4-2.3,1.4h-0.2c-0.5,0-0.7-0.3-0.7-0.9c0-0.6,0.2-0.9,0.7-0.9h0.2c0.8,0,1.4-0.1,1.8-0.3
			c0.4-0.2,0.7-0.5,0.9-0.9c0.3-0.5,0.6-0.8,0.8-1c0,0,0.1-0.1,0.1-0.1c0.8-0.1,1.7-0.5,2.4-1.1c0.6-0.5,0.9-1.1,1-1.7l-0.3-4.5
			c0,0,0-0.1,0-0.2c0.2-0.5,0.6-1.5,0.8-1.5c0.2,0,0.2,0.6,0.2,0.7c0,0.5,0.1,1.2,0.2,2c0,0.5,0.1,1.6,0.2,2.8l0.2-0.7
			c0.1-0.4,0.4-0.8,0.9-1.2c0.8-0.6,1.9-1.4,3.4-2.2c1.5-0.8,2.6-1.4,3.4-1.8c0.2-0.1,0.3-0.1,0.3,0c0,0.2-0.2,0.7-0.7,1.5
			c-0.1,0.1-0.1,0.1-0.2,0.2c-0.8,0.3-1.9,0.9-3.3,1.8c-1.5,0.9-2.5,1.6-3.2,2.1c2.9,1.1,4.3,2.6,4.3,4.3c0,0.9-0.2,1.7-0.6,2.3
			c-0.3,0.5-1.1,1.1-2.6,1.1C116.4,31.5,116,31.4,115.7,31.2z M110.3,28.8c0.2,0.2,0.4,0.4,0.8,0.6c0.4,0.2,0.7,0.3,0.9,0.3
			c-0.1-0.4-0.2-0.7-0.3-0.9c-0.2-0.2-0.4-0.4-0.7-0.4C110.6,28.5,110.4,28.6,110.3,28.8z M116.6,29.6c0.1,0,0.2,0,0.4,0
			c0.4,0,0.8-0.1,1.2-0.2c0.4-0.1,0.8-0.3,1-0.5c0,0,0,0,0-0.1c0-0.4-0.3-0.9-1-1.4c-0.7-0.6-1.6-1.1-2.8-1.7
			c-0.1-0.1-0.3-0.2-0.4-0.3c0.1,1.2,0.2,2.4,0.5,3.1C115.6,28.7,115.9,29.4,116.6,29.6z"/>
		<path class="st0" d="M132,37.3c0.1-0.1,0.2-0.2,0.3-0.1c0.4,0.4,0.8,0.8,1.2,1.1c0.1,0.1,0.1,0.1,0,0.2c-0.4,0.4-0.7,0.8-1.1,1.2
			c-0.1,0.1-0.1,0.1-0.2,0c-0.3-0.2-0.7-0.6-1.1-1c-0.2,0.3-0.7,0.8-0.9,0.9c-0.1,0.1-0.2,0.1-0.3,0c-0.4-0.2-0.9-0.7-1.2-1.1
			c-0.1-0.1-0.1-0.1,0-0.3c0.3-0.4,0.7-0.8,1.1-1.2c0.1-0.1,0.1-0.1,0.2,0c0.3,0.3,0.8,0.8,1.1,1C131.4,38,131.8,37.5,132,37.3z"/>
		<path class="st0" d="M136.5,19.3c0.1,0,0.1,0.1,0,0.2c-0.2,0.2-0.8,1-1.1,1.3c-0.1,0.1-0.1,0.1-0.2,0c-0.4-0.2-1.2-0.8-1.4-1.1
			c-0.1-0.1-0.1-0.1,0-0.2c0.3-0.4,0.7-0.9,1-1.2c0.2-0.2,0.2-0.2,0.2-0.1C135.3,18.5,135.9,19,136.5,19.3z"/>
		<path class="st0" d="M129.3,33.5c0.6,0.2,1.1,0.3,1.6,0.3c0.6,0,1.1-0.1,1.7-0.2c1.9-0.5,4-1.5,4.3-2c-0.5-0.5-2.1-1.1-3.4-1.2
			c-0.3,0-0.4-0.1-0.4-0.3c0-0.2,0.2-0.7,0.4-1c0.1-0.1,0.1-0.1,0.2-0.1c2.5-0.5,2.7-1.4,2.7-1.5c0-0.6-0.1-0.7-0.2-1.2
			c-0.3,0.4-0.8,0.8-1.4,0.8c-0.7,0-1.4-0.5-1.4-1.3c0-1.3,1.1-3.5,1.7-3.5c0.6,0,1.2,0.5,1.7,1.5c0.3,0.7,0.5,1.8,0.5,2.4
			c0,1.2-0.5,2.4-1.2,3.3c0.5,0.1,0.8,0.3,1.1,0.5c0.7,0.4,0.7,0.8,0.7,1.2c0,0.7-0.5,1.5-1.3,2.2c-1.6,1.3-4.2,2.3-6,2.3
			c-0.5,0-1.1-0.1-1.6-0.2c-1.3-0.4-2.5-1.4-2.5-3.5c0-1.3,0.5-3,1.2-4c0.2-0.3,0.4-0.5,0.5-0.5c0.2,0,0,0.3-0.1,0.6
			c-0.5,1-0.8,1.9-0.8,2.7C127.2,32.3,128.1,33.2,129.3,33.5z M134.8,24c-0.2,0-0.4,0.2-0.5,0.5c0,0.1-0.1,0.1-0.1,0.2
			c0,0.3,0.4,0.5,0.8,0.5c0.4,0,0.8-0.2,0.8-0.4C135.6,24.3,135.1,24,134.8,24z"/>
		<path class="st0" d="M147.3,15.2c0,0.4-0.1,0.8-0.2,1.2c0.2,0.1,0.3,0.2,0.3,0.3c0,0.3-0.1,0.6-0.3,0.8c0,0.1-0.1,0.1-0.1,0.1
			l-0.4-0.2c-0.4,0.6-1,1.4-1.9,1.8c-0.3,0.2-0.7,0.3-1.2,0.3c-0.2,0-0.3,0-0.3-0.1c0-0.1,0.2-0.2,0.4-0.3c0.7-0.4,2-1.4,2.4-2
			c-0.4-0.2-0.8-0.6-0.8-1.1c0-0.3,0.2-0.7,0.5-1c0.3-0.4,0.7-0.6,1-0.6C147.1,14.3,147.3,14.8,147.3,15.2z M145.9,15.6
			C145.8,15.6,145.8,15.6,145.9,15.6c0,0.2,0.3,0.4,0.6,0.5c0.1-0.1,0.1-0.3,0.1-0.5c0-0.2-0.1-0.3-0.3-0.3
			C146.2,15.2,146,15.4,145.9,15.6z"/>
		<path class="st0" d="M146.8,20.9c0.1-0.1,0.2-0.2,0.3-0.1c0.4,0.4,0.8,0.8,1.2,1.1c0.1,0.1,0.1,0.1,0,0.2
			c-0.4,0.4-0.7,0.8-1.1,1.2c-0.1,0.1-0.1,0.1-0.2,0c-0.3-0.2-0.7-0.6-1.1-1c-0.2,0.3-0.7,0.8-0.9,0.9c-0.1,0.1-0.2,0.1-0.3,0
			c-0.4-0.2-0.9-0.7-1.2-1.1c-0.1-0.1-0.1-0.1,0-0.3c0.3-0.4,0.7-0.8,1.1-1.2c0.1-0.1,0.1-0.1,0.2,0c0.3,0.3,0.8,0.8,1.1,1
			C146.2,21.5,146.6,21.1,146.8,20.9z M145.9,25.4c0.3,0,0.7,0.2,1.1,0.5c0.6,0.5,1.1,1.3,1.1,2.3c0,0.5-0.1,1.1-0.3,1.6
			c-0.4,1.1-1.3,1.7-2.4,1.7c-1.1,0-1.8-0.8-1.8-1.8C143.7,28.3,145.2,25.4,145.9,25.4z M147.3,28.9c-0.3-0.6-1-1.4-1.7-1.4
			c0,0-0.1,0-0.2,0.1c-0.6,0.4-0.9,1-0.9,1.4c0,0.4,0.6,0.8,1.2,0.8c0.4,0,1.3-0.2,1.6-0.6c0,0,0-0.1,0-0.1
			C147.3,29,147.3,28.9,147.3,28.9z"/>
		<path class="st0" d="M153.8,19.4c0.1,0,0.1,0,0.1,0c0,0.5-0.2,0.9-0.4,1l-3.2,1.8c-0.1,0-0.1,0-0.1,0c0-0.2,0.1-0.6,0.2-0.8
			c0.1-0.1,0.2-0.2,0.5-0.4L153.8,19.4z"/>
		<path class="st0" d="M155.3,28.3c0,0.7-0.1,1.4-0.2,1.6c-0.3,1.2-1.6,1.6-3.9,1.6c-0.5,0-0.8-0.1-0.9-0.2
			c-0.2-0.2-0.2-0.5-0.2-0.9c0-0.3,0-0.5,0.1-0.7c0.1-0.3,0.1-0.4,0.2-0.4c0.1,0,0.1,0.1,0.2,0.1c0.2,0.2,0.7,0.2,1.3,0.2
			c1,0,2.1-0.2,2.6-0.5c0.1,0,0.1-0.1,0.1-0.1c0,0,0-0.1,0-0.1c-0.3-1.1-1.7-3.1-2.8-3.1c-0.2,0-0.3,0.2-0.4,0.2c0,0-0.1,0-0.1-0.1
			c0-0.4,0.3-1.4,0.6-1.7c0.1-0.1,0.2-0.1,0.4-0.1c0.3,0,0.6,0.1,0.8,0.2c0.5,0.2,1.2,0.9,1.7,1.9C155,26.9,155.3,27.6,155.3,28.3z"
			/>
		<path class="st0" d="M160.5,20.8c-0.6,0-0.9-0.6-0.9-1.2c0-0.2,0-0.4,0.1-0.6c0-0.2,0.2-0.6,0.4-0.6c0.1,0,0.2,0.2,0.2,0.5V19
			c0,0.3,0.2,0.4,0.5,0.4h0c0.4,0,0.6-0.3,0.7-0.8c0-0.2,0.2-0.8,0.5-0.8c0.1,0,0.2,0.1,0.2,0.4c0,0.2,0.1,0.3,0.3,0.3
			c0.4,0,0.6-0.3,0.7-0.7c0.1-0.5,0.2-0.7,0.3-0.7c0.2,0,0.2,0.5,0.2,0.8c0,0.2,0,0.5-0.1,0.8c-0.2,0.5-0.5,0.9-1.2,0.9
			c-0.2,0-0.3-0.1-0.4-0.1c-0.1,0-0.1,0-0.2,0.1C161.5,20.4,161.1,20.8,160.5,20.8z M163.6,15.4C163.7,15.3,163.6,15.4,163.6,15.4
			c0,0.4-0.1,0.7-0.3,1c-0.1,0.1-0.2,0.2-0.4,0.2l-3.1,1.5c0,0-0.1,0-0.1,0c0-0.1,0.1-0.4,0.2-0.6c0.1-0.3,0.2-0.3,0.2-0.4
			c0.1-0.1,0.1-0.1,0.3-0.2L163.6,15.4z"/>
		<path class="st0" d="M165,29.7h0.3c0.5,0,0.8,0.3,0.8,0.9c0,0.6-0.3,0.9-0.8,0.9H165c-0.6,0-1.1-0.2-1.4-0.5
			c-0.4-0.3-0.6-0.8-0.9-1.5c-0.3,1.2-1.8,2.1-3.6,2.1c-0.5,0-1.1-0.1-1.7-0.4c-0.3-0.2-0.5-0.5-0.5-0.8c0-0.4,0.1-1,0.3-1.5
			c0.1-0.2,0.2-0.3,0.3-0.3c0.1,0,0.2,0.1,0.2,0.3c0.2,0.6,0.9,0.8,1.8,0.8c1.7,0,2.5-0.4,2.8-1c0-0.2,0-0.3,0-0.5
			c0-1-0.3-2.3-0.6-3.5c0-0.2,0-0.3,0-0.4c0-0.1,0-0.3,0.4-1.1c0.1-0.3,0.2-0.5,0.3-0.5c0.1,0,0.1,0.1,0.2,0.5
			c0.6,2.6,0.6,4.4,0.9,5.5c0.1,0.3,0.2,0.5,0.4,0.7C164.3,29.5,164.7,29.7,165,29.7z"/>
		<path class="st0" d="M173,15.2c0.1,0,0.1,0,0.1,0c0,0.5-0.2,0.9-0.4,1l-3.2,1.8c-0.1,0-0.1,0-0.1,0c0-0.2,0.1-0.6,0.2-0.8
			c0.1-0.1,0.2-0.2,0.5-0.4L173,15.2z"/>
		<path class="st0" d="M171.9,27.9c0.1,0,0.1,0.1,0.1,0.4c0,0.1,0,0.2,0,0.4c0,0.6,0.4,0.9,0.9,0.9c0.8,0,1.2-0.8,1.5-1.4
			c0-0.1,0.1-0.3,0.3-0.3c0.1,0,0.2,0.1,0.2,0.5c0.1,0.8,0.5,1.3,1.2,1.4h0.2c0.6,0,0.8,0.3,0.8,0.8c0,0.7-0.3,1-0.8,1h-0.2
			c-1,0-1.5-0.5-1.7-1.5c-0.3,0.7-0.9,1.5-1.8,1.5c-0.8,0-1.3-0.7-1.3-1.5c-0.3,0.9-1.2,1.5-2.1,1.5c-1,0-1.6-0.3-1.8-1.2
			c-0.1,0.3-0.3,0.6-0.6,0.9c-0.3,0.2-0.8,0.4-1.7,0.4H165c-0.5,0-0.8-0.3-0.8-0.9c0-0.6,0.3-0.9,0.8-0.9h0.2c1.2,0,2.1-0.4,2.5-1.3
			c0-0.1,0.1-0.3,0.2-0.3c0.1,0,0.2,0.1,0.2,0.4c0,0.7,0.6,1,1.4,1c1,0,1.7-0.4,2.2-1.4C171.7,28.1,171.8,27.9,171.9,27.9z
			 M172.6,23.5c0.1-0.1,0.2-0.2,0.3-0.1c0.4,0.4,0.8,0.8,1.2,1.1c0.1,0.1,0.1,0.1,0,0.2c-0.4,0.4-0.7,0.8-1.1,1.2
			c-0.1,0.1-0.1,0.1-0.2,0c-0.3-0.2-0.7-0.6-1.1-1c-0.2,0.3-0.7,0.8-0.9,0.9c-0.1,0.1-0.2,0.1-0.3,0c-0.4-0.2-0.9-0.7-1.2-1.1
			c-0.1-0.1-0.1-0.1,0-0.3c0.3-0.4,0.7-0.8,1.1-1.2c0.1-0.1,0.1-0.1,0.2,0c0.3,0.3,0.8,0.8,1.1,1C171.9,24.2,172.4,23.7,172.6,23.5z
			 M172.9,21c0.1,0,0.1,0.1,0,0.2c-0.2,0.2-0.8,1-1.1,1.3c-0.1,0.1-0.1,0.1-0.2,0c-0.4-0.2-1.2-0.8-1.4-1.1c-0.1-0.1-0.1-0.1,0-0.2
			c0.3-0.4,0.7-0.9,1-1.2c0.2-0.2,0.2-0.2,0.2-0.1C171.7,20.1,172.3,20.6,172.9,21z"/>
		<path class="st0" d="M181.8,21.6c0,0.4-0.1,0.8-0.2,1.2c0.2,0.1,0.3,0.2,0.3,0.3c0,0.3-0.1,0.6-0.3,0.8c0,0.1-0.1,0.1-0.1,0.1
			l-0.4-0.2c-0.4,0.6-1,1.4-1.9,1.8c-0.3,0.2-0.7,0.3-1.2,0.3c-0.2,0-0.3,0-0.3-0.1c0-0.1,0.2-0.2,0.4-0.3c0.7-0.4,2-1.4,2.4-2
			c-0.4-0.2-0.8-0.6-0.8-1.1c0-0.3,0.2-0.7,0.5-1c0.3-0.4,0.7-0.6,1-0.6C181.7,20.6,181.8,21.1,181.8,21.6z M180.4,21.9
			C180.4,21.9,180.4,22,180.4,21.9c0,0.2,0.3,0.4,0.6,0.5c0.1-0.1,0.1-0.3,0.1-0.5c0-0.2-0.1-0.3-0.3-0.3
			C180.7,21.6,180.5,21.7,180.4,21.9z"/>
		<path class="st0" d="M185.5,14.4c0.5,0,1.3,0.8,1.3,1.6c0,0.3-0.1,0.6-0.2,0.9c-0.2,0.6-0.7,1-1.4,1c-0.6,0-1.1-0.5-1.1-1
			C184.2,16.1,185.1,14.4,185.5,14.4z M185.3,15.6c-0.2,0-0.6,0.5-0.6,0.8c0,0.2,0.3,0.4,0.6,0.4c0.4,0,0.9-0.2,0.9-0.4
			C186.3,16.3,185.8,15.6,185.3,15.6z"/>
		<path class="st0" d="M186.9,27.6c0,1.3-0.3,2.4-0.8,3.2c-0.4,0.5-1.2,0.8-1.8,0.8c-0.6,0-1.2-0.2-1.7-0.6c-0.1,0.5-0.6,1-0.9,1.2
			c-0.1,0-0.1,0-0.2,0c-0.9-0.2-2.6-0.8-3.3-1.7c-0.4,0.8-1,1.1-1.9,1.1h-0.3c-0.5,0-0.7-0.3-0.7-0.9c0-0.6,0.2-0.9,0.7-0.9h0.2
			c1.6,0,2.5-0.9,3.2-1.7c0.4-0.5,0.7-0.8,1.1-0.8c0.2,0,0.4,0.1,0.6,0.3c0.7,0.8,2,2.2,3.2,2.2c0.4,0,1.3-0.1,1.6-0.5v0
			c0-1.4-0.6-4.8-0.8-7.5c-0.1-0.3-0.2-0.8-0.2-1.2c0-0.1,0-0.1,0-0.2c0,0,0-0.1,0-0.1c0-0.1,0.1-0.4,0.3-0.7
			c0.2-0.4,0.5-0.8,0.6-0.8c0.1,0,0.1,0.1,0.1,0.2c0.2,0.8,0.5,1.1,0.7,1.4c0,0.1,0.1,0.1,0.1,0.2c0,0,0,0.1,0,0.2
			c-0.1,0.2-0.3,0.7-0.4,0.9C186.5,24.2,186.9,26.3,186.9,27.6z M180.1,28.7c-0.2,0-0.4,0.2-0.5,0.3c-0.1,0.1-0.1,0.2,0,0.4
			c0.3,0.2,1.4,0.7,1.7,0.8c0.2,0.1,0.3,0.1,0.3,0.1c0.2,0,0.1-0.2,0-0.3C181.3,29.6,180.6,28.7,180.1,28.7z"/>
		<path class="st0" d="M190,31.5c-0.1,0-0.1-0.1-0.1-0.5c0-2.4-0.9-8.9-0.9-10c0-0.5,0.4-1.4,0.7-1.9c0.1-0.2,0.3-0.4,0.4-0.4
			c0.1,0,0.1,0.2,0.1,0.6c0.1,1.7,0.6,5.7,0.6,8.6c0,1.2-0.1,2.1-0.3,2.7C190.2,31.2,190.1,31.5,190,31.5z"/>
		<path class="st0" d="M200.3,24.3c0,0.4-0.1,0.8-0.2,1.2c0.2,0.1,0.3,0.2,0.3,0.3c0,0.3-0.1,0.6-0.3,0.8c0,0.1-0.1,0.1-0.1,0.1
			l-0.4-0.2c-0.4,0.6-1,1.4-1.9,1.8c-0.3,0.2-0.7,0.3-1.2,0.3c-0.2,0-0.3,0-0.3-0.1c0-0.1,0.2-0.2,0.4-0.3c0.7-0.4,2-1.4,2.4-2
			c-0.4-0.2-0.8-0.6-0.8-1.1c0-0.3,0.2-0.7,0.5-1c0.3-0.4,0.7-0.6,1-0.6C200.2,23.3,200.3,23.8,200.3,24.3z M198.9,24.6
			C198.9,24.6,198.9,24.6,198.9,24.6c0,0.2,0.3,0.4,0.6,0.5c0.1-0.1,0.1-0.3,0.1-0.5c0-0.2-0.1-0.3-0.3-0.3
			C199.2,24.3,199,24.4,198.9,24.6z"/>
		<path class="st0" d="M205.1,35c0.1-0.1,0.2-0.2,0.3-0.1c0.4,0.4,0.8,0.8,1.2,1.1c0.1,0.1,0.1,0.1,0,0.2c-0.4,0.4-0.7,0.8-1.1,1.2
			c-0.1,0.1-0.1,0.1-0.2,0c-0.3-0.2-0.7-0.6-1.1-1c-0.2,0.3-0.7,0.8-0.9,0.9c-0.1,0.1-0.2,0.1-0.3,0c-0.4-0.2-0.9-0.7-1.2-1.1
			c-0.1-0.1-0.1-0.1,0-0.3c0.3-0.4,0.7-0.8,1.1-1.2c0.1-0.1,0.1-0.1,0.2,0c0.3,0.3,0.8,0.8,1.1,1C204.5,35.7,204.9,35.2,205.1,35z"
			/>
		<path class="st0" d="M202.8,32.5c0,0.1,0,0.2-0.1,0.4c-0.3,0.6-0.5,1.1-0.7,1.3c-0.1,0.1-0.1,0.1-0.2,0c-0.4-0.2-0.9-0.3-1.7-0.3
			c-1.4,0-2.2,0.2-2.4,0.7c0.2,1,0.3,1.6,0.4,2l0.3,1.7c0.1,0.9,0.2,1.7,0.3,2.4c0,0.7-0.1,1.5-0.3,2.2c-0.1,0.3-0.2,0.4-0.3,0.4
			c-0.1,0-0.1-0.1-0.1-0.4c0-0.2,0-0.5,0-0.9c0-0.7-0.1-1.6-0.5-3.6c-0.3-1.5-0.4-2.3-0.5-2.7c0-0.8,0.2-1.5,0.5-2.2
			c0.4-0.7,0.8-1.2,1.5-1.5l0.5-1.2c0.4-0.9,1-1.6,1.7-2c0.7-0.4,1.6-0.8,2.4-0.8c0.2,0,0.5,0.1,0.6,0.2c0.2,0.1,0.5,0.4,0.8,0.8
			c0.3,0.4,0.6,0.7,1,0.7h0.3c0.5,0,0.7,0.3,0.7,0.8c0,0.7-0.2,1-0.7,1H206c-0.6,0-1.1-0.3-1.5-0.8c-0.4-0.4-0.7-0.7-0.9-0.8
			c-0.1-0.1-0.3-0.1-0.7-0.1c-0.8,0-1.6,0.3-2.3,0.9c0.7,0.3,1.2,0.6,1.7,1C202.5,32,202.8,32.3,202.8,32.5z"/>
		<path class="st0" d="M208.2,14.3c0.5,0,1.3,0.8,1.3,1.6c0,0.3-0.1,0.6-0.2,0.9c-0.2,0.6-0.7,1-1.4,1c-0.6,0-1.1-0.5-1.1-1
			C206.9,16,207.8,14.3,208.2,14.3z M208.1,15.5c-0.2,0-0.6,0.5-0.6,0.8c0,0.2,0.3,0.4,0.6,0.4c0.4,0,0.9-0.2,0.9-0.4
			C209,16.2,208.5,15.5,208.1,15.5z"/>
		<path class="st0" d="M209.4,27.8c0.1,0.4,0.3,0.7,0.6,0.9c0.2,0.2,0.5,0.3,0.8,0.5c0.3,0.1,0.5,0.2,0.6,0.3
			c0.2,0.1,0.2,0.6,0.2,0.9c0,0.3-0.1,0.8-0.3,1.1c-0.1,0.1-0.1,0.1-0.2,0c-1-0.5-1.8-0.9-2.3-0.9c-0.4,0-0.7,0.1-1.2,0.4
			c-0.5,0.3-1,0.5-1.6,0.5H206c-0.5,0-0.7-0.3-0.7-0.9c0-0.6,0.2-0.9,0.7-0.9h0.2c0.7,0,1.5-0.2,2.4-0.6c0-0.2-0.1-0.6-0.2-1.2
			c-0.1-0.7-0.3-3.2-0.6-6.3c-0.1-0.3-0.2-0.8-0.2-1.1c0-0.1,0-0.1,0-0.2c0,0,0-0.1,0-0.1c0-0.1,0.1-0.3,0.3-0.7
			c0.2-0.4,0.5-0.8,0.6-0.8c0.1,0,0.1,0.1,0.1,0.2c0.2,0.7,0.4,1.1,0.6,1.4c0,0.1,0.1,0.1,0.1,0.2c0,0,0,0.1,0,0.2
			c-0.1,0.2-0.3,0.7-0.5,0.9C209.1,25.2,209.3,27.4,209.4,27.8z"/>
		<path class="st0" d="M214.8,31.5c-0.1,0-0.1-0.1-0.1-0.5c0-2.4-0.9-8.9-0.9-10c0-0.5,0.4-1.4,0.7-1.9c0.1-0.2,0.3-0.4,0.4-0.4
			c0.1,0,0.1,0.2,0.1,0.6c0.1,1.7,0.6,5.7,0.6,8.6c0,1.2-0.1,2.1-0.3,2.7C215.1,31.2,215,31.5,214.8,31.5z"/>
	</g>
	<rect class="st1" width="250.8" height="49.9"/>
</g>
</svg>
