<?xml version="1.0" encoding="utf-8"?>
<!-- Generator: Adobe Illustrator 19.2.0, SVG Export Plug-In . SVG Version: 6.00 Build 0)  -->
<svg version="1.1" id="Layer_1" xmlns="http://www.w3.org/2000/svg" xmlns:xlink="http://www.w3.org/1999/xlink" x="0px" y="0px"
	 viewBox="0 0 403.9 49.9" style="enable-background:new 0 0 403.9 49.9;" xml:space="preserve">
<style type="text/css">
	.st0{fill:#002F3D;}
	.st1{fill:#FF0000;}
	.st2{fill:none;}
</style>
<g>
	<g>
		<path d="M170.2,37.6c0,0.1-0.1,0.1-0.2,0.1c-0.4,0-1.1-0.4-1.9-1.1c-0.6-0.5-1.1-1.1-1.5-1.6c-0.9-1.1-1.5-2.4-2.1-3.8
			c-1.3,0-2-0.2-2.1-0.5c0.4-0.3,0.7-0.7,0.9-1c0.3-0.4,0.4-0.8,0.4-1.2c-0.3,0-0.7,0.2-1.2,0.6c-0.1,0.1-0.4,0.4-1,0.9
			c-0.1,0-0.2-0.1-0.3-0.4c-0.1-0.3-0.2-0.7-0.2-1.2c-0.3-0.2-0.6-0.3-0.8-0.5c-0.2-0.2-0.3-0.3-0.3-0.4c0-0.2,0.2-0.4,0.5-0.7
			c0.2-0.1,0.4-0.3,0.6-0.4c0-0.4,0-0.7,0.1-1.1c0.1-0.3,0.2-0.5,0.3-0.5c0.4,0.4,0.8,0.7,1,0.9c0.4,0.3,0.9,0.5,1.2,0.5
			c0-0.4-0.2-0.8-0.5-1.2c-0.3-0.3-0.6-0.7-1-1c0-0.2,0.3-0.3,1-0.5c0.5-0.1,0.9-0.2,1.2-0.2c0.9-2.7,2.3-4.7,4-6.1
			c0.6-0.5,1-0.7,1.2-0.7c0.1,0,0.2,0.1,0.2,0.2c0,0.1-0.2,0.4-0.7,0.9c-1.5,1.7-2.3,3.6-2.7,5.7c0.4,0.1,0.7,0.1,0.8,0.2
			c0.1,0.1,0.2,0.2,0.2,0.3c-0.4,0.3-0.7,0.7-0.9,1c-0.3,0.4-0.5,0.8-0.5,1.2c0.4,0,0.8-0.2,1.1-0.5c0.2-0.2,0.6-0.6,1-1
			c0.2,0,0.3,0.2,0.5,0.7c0.1,0.4,0.1,0.7,0.1,0.9c0.7,0.3,1.1,0.7,1.1,1c0,0.3-0.3,0.6-1,1c0,0.6-0.1,1.1-0.2,1.3
			c-0.1,0.2-0.2,0.2-0.4,0.3c-0.7-0.9-1.5-1.3-2.2-1.4c0,0.3,0.2,0.8,0.5,1.2c0.1,0.2,0.5,0.5,1,1c0,0.1-0.1,0.1-0.2,0.2
			c-0.1,0.1-0.4,0.1-0.9,0.3c0.2,1.1,0.6,2.2,1.3,3.3c0.7,1.1,1.4,2.1,2.2,2.8C170.2,37.4,170.2,37.5,170.2,37.6z M163.4,28
			c-0.2-0.1-0.5-0.2-0.8-0.3c0,0-0.2-0.1-0.5-0.2s-0.4-0.2-0.4-0.3c0,0,0.3-0.2,1-0.3c0.1-0.1,0.4-0.2,0.7-0.3
			c-0.4-0.1-0.7-0.3-1-0.5c-0.1-0.1-0.4-0.4-0.7-0.6c-0.1,0-0.1,0.1-0.1,0.3c0,0.2,0,0.4,0,0.8c-0.6,0.3-0.9,0.6-0.9,0.7
			c0,0.1,0.1,0.2,0.3,0.3c0.2,0.1,0.4,0.2,0.7,0.3c0,0.1,0,0.4,0.1,0.7c0.1,0.4,0.1,0.6,0.2,0.6l0.7-0.7
			C162.8,28.3,163.1,28.1,163.4,28z M169,17.3c-1.8,1.2-3.2,3.4-4.3,6.5c-0.7,0-1.2,0-1.4,0.1c-0.2,0-0.3,0.1-0.3,0.2
			c0.5,0.4,0.9,0.9,1.2,1.4c0.1-0.3,0.3-0.5,0.4-0.6c0.1-0.2,0.2-0.5,0.4-0.7c0,0,0.1,0.1,0.1,0.3c0,0.2,0.1,0.3,0.1,0.3
			c0.1,0.1,0.2,0.3,0.4,0.7c0.1-0.3,0.3-0.6,0.5-0.9c0.1-0.1,0.3-0.4,0.6-0.6c0-0.1-0.1-0.1-0.3-0.2c-0.1,0-0.3,0-0.5-0.1
			c0.3-1.2,0.5-2,0.6-2.4C167.1,20.1,167.9,18.7,169,17.3z M169.5,37.2c-0.7-0.7-1.4-1.5-2-2.6c-0.7-1.2-1.1-2.5-1.4-3.8
			c0.5,0,0.8-0.1,0.8-0.2c-0.5-0.5-1-1-1.2-1.5c-0.1,0.2-0.2,0.4-0.3,0.7c0,0-0.1,0.2-0.2,0.4c-0.1,0.2-0.1,0.3-0.2,0.3
			c-0.2,0-0.4-0.4-0.7-1.3c-0.2,0.4-0.4,0.7-0.6,0.9c-0.2,0.2-0.4,0.4-0.6,0.6c0,0,0.1,0.1,0.3,0.1c0.1,0,0.4,0.1,0.6,0.1
			c0.2,0,0.3,0,0.4,0c0.1,0,0.3,0,0.3,0C165.8,33.6,167.3,35.8,169.5,37.2z M166.3,27.3c0-0.4-0.1-0.7-0.4-0.9
			c-0.3-0.2-0.6-0.4-0.9-0.4c-0.4,0-0.7,0.1-0.9,0.4c-0.2,0.2-0.4,0.6-0.4,0.9c0,0.3,0.1,0.6,0.4,0.9c0.3,0.2,0.6,0.4,0.9,0.4
			c0.4,0,0.7-0.1,0.9-0.4C166.2,28,166.3,27.7,166.3,27.3z M169.4,27.2c0-0.2-0.3-0.3-0.9-0.6c0-0.4,0-0.7-0.1-0.9s-0.1-0.4-0.2-0.4
			c-0.1,0.1-0.3,0.3-0.7,0.7c-0.3,0.3-0.6,0.4-0.9,0.6c0.1,0,0.4,0.2,1.1,0.4c0.4,0.1,0.6,0.3,0.6,0.3c0,0.1-0.2,0.2-0.6,0.3
			c-0.3,0.1-0.7,0.2-1.1,0.3c0.3,0.1,0.6,0.3,1,0.5c0.1,0.1,0.4,0.3,0.6,0.6c0.1,0,0.2-0.4,0.2-1.2
			C169.1,27.6,169.4,27.4,169.4,27.2z"/>
		<path class="st0" d="M180.8,27.8c0.1,0,0.3,0,0.4,0.1c0.1,0.1,0.2,0.2,0.4,0.3c0.1,0.1,0.2,0.3,0.4,0.4c0.1,0.1,0.3,0.3,0.4,0.4
			c0.2,0.2,0.4,0.3,0.6,0.4c0.2,0.1,0.5,0.2,0.7,0.2c0.3,0,0.5,0.1,0.8,0.1c0.3,0,0.5,0,0.8,0h0.2c0.2,0,0.4,0.1,0.5,0.3
			c0.1,0.2,0.2,0.4,0.2,0.6c0,0.2-0.1,0.4-0.2,0.6c-0.1,0.2-0.3,0.3-0.5,0.3h-0.2c-0.2,0-0.3,0-0.5,0c-0.2,0-0.4,0-0.6,0
			c-0.2,0-0.5,0-0.7-0.1c-0.2,0-0.5-0.1-0.7-0.1c0,0.2,0,0.4-0.1,0.5c0,0.2-0.1,0.2-0.2,0.3c-0.3,0.1-0.6,0.1-1,0
			c-0.4,0-0.8-0.1-1.2-0.3c-0.4-0.1-0.7-0.3-1-0.5c-0.3-0.2-0.5-0.4-0.6-0.5c-0.1,0.1-0.3,0.1-0.5,0.2c-0.2,0.1-0.3,0.2-0.4,0.4
			c-0.1,0.1-0.2,0.3-0.3,0.5c-0.1,0.2-0.1,0.3-0.1,0.5c0,0.3,0,0.6,0.1,1.1c0.1,0.4,0.1,0.9,0.2,1.4c0.1,0.5,0.1,1,0.2,1.4
			c0.1,0.5,0.1,0.9,0.2,1.2c0,0.3,0.1,0.6,0.1,1c0,0.4,0.1,0.7,0.1,1.1c0,0.4,0,0.7,0,1c0,0.3,0,0.6-0.1,0.8c0,0.1-0.1,0.1-0.1,0.1
			c-0.1,0-0.1,0-0.1-0.1c0-0.1-0.1-0.3-0.1-0.4c0-0.1,0-0.3-0.1-0.4c0-0.1-0.1-0.4-0.1-0.8c-0.1-0.4-0.1-1-0.2-1.7
			c-0.1-0.7-0.2-1.3-0.3-1.8c-0.1-0.5-0.2-1-0.2-1.5s-0.1-0.8-0.2-1.1c0-0.3-0.1-0.6-0.1-0.8c0-0.7,0-1.2,0.2-1.7
			c0.2-0.5,0.4-0.9,0.8-1.2c0.1-0.1,0.3-0.3,0.6-0.5c0.3-0.2,0.6-0.5,0.9-0.7c0.3-0.2,0.6-0.4,0.9-0.6
			C180.4,27.9,180.6,27.8,180.8,27.8z M180.5,29c-0.2,0-0.4,0-0.6,0.1c-0.2,0.1-0.4,0.2-0.5,0.3c-0.1,0.1-0.1,0.1,0,0.2
			c0.2,0.1,0.4,0.2,0.6,0.3c0.2,0.1,0.5,0.2,0.7,0.2c0.2,0.1,0.5,0.1,0.7,0.2c0.2,0,0.3,0,0.4,0c-0.1-0.2-0.2-0.3-0.3-0.5
			c-0.1-0.2-0.3-0.3-0.4-0.4c-0.1-0.1-0.2-0.2-0.3-0.3C180.6,29,180.6,29,180.5,29z"/>
		<path class="st0" d="M190,34.9c-0.7,0.2-1.4,0.4-2.1,0.7c-0.7,0.2-1.3,0.4-2,0.6c-0.1,0-0.1,0-0.1-0.1l0.4-0.8c0,0,0-0.1,0.1-0.1
			c0,0,0,0,0.1-0.1c0.2-0.1,0.4-0.2,0.8-0.3c0.3-0.1,0.7-0.2,1-0.3c0.4-0.1,0.7-0.2,1.1-0.4c0.4-0.1,0.8-0.2,1.1-0.3
			c0.1,0,0.1,0,0.1,0c0,0,0,0,0,0.1l-0.5,0.8C190.1,34.8,190,34.8,190,34.9C190,34.8,190,34.9,190,34.9z"/>
		<path class="st0" d="M185.1,29.8h0.2c0.4,0,0.8,0,1.3-0.1c0.4-0.1,0.8-0.2,1.1-0.3c0.3-0.2,0.5-0.4,0.7-0.7
			c0.2-0.3,0.2-0.7,0.1-1.2l-1.1-8.8c0-0.1,0-0.2,0.1-0.3l0.5-1.1c0,0,0-0.1,0.1-0.1c0,0,0.1,0,0.1,0.1l1.2,9.8
			c0.1,0.5,0.1,0.9,0.3,1.2c0.1,0.3,0.3,0.6,0.5,0.9c0.2,0.2,0.5,0.4,0.9,0.5c0.3,0.1,0.8,0.2,1.3,0.2h0.2c0.2,0,0.4,0.1,0.5,0.3
			c0.1,0.2,0.2,0.4,0.2,0.6c0,0.2-0.1,0.4-0.2,0.6c-0.1,0.2-0.3,0.3-0.5,0.3h-0.2c-0.3,0-0.6,0-0.9-0.1c-0.3-0.1-0.6-0.2-0.9-0.3
			c-0.3-0.2-0.6-0.4-0.8-0.8c-0.3-0.3-0.5-0.8-0.6-1.4c-0.2,0.6-0.4,1.1-0.7,1.4c-0.3,0.3-0.6,0.6-1,0.8c-0.4,0.2-0.7,0.3-1.1,0.3
			c-0.4,0-0.7,0.1-1,0.1h-0.2c-0.2,0-0.4-0.1-0.5-0.3c-0.1-0.2-0.2-0.4-0.2-0.6c0-0.2,0.1-0.4,0.2-0.6
			C184.7,29.9,184.9,29.8,185.1,29.8z"/>
		<path class="st1" d="M197,19.4c0.2-0.1,0.5-0.3,0.7-0.4c0.2-0.1,0.5-0.3,0.7-0.4c0.2-0.2,0.4-0.3,0.7-0.5c0.2-0.2,0.4-0.4,0.6-0.6
			c-0.2-0.1-0.4-0.2-0.6-0.3c-0.2-0.1-0.4-0.3-0.5-0.4c-0.1-0.1-0.1-0.2-0.1-0.3c0-0.1,0-0.2,0-0.3c0.1-0.2,0.1-0.4,0.2-0.6
			c0.1-0.2,0.2-0.4,0.4-0.5c0.1-0.2,0.3-0.3,0.5-0.4c0.2-0.1,0.4-0.2,0.5-0.1c0.2,0,0.4,0.1,0.5,0.3c0.1,0.2,0.2,0.4,0.2,0.7
			c0,0.3,0,0.5,0,0.8c0,0.3,0,0.4-0.1,0.5c0,0,0,0.1,0,0.1c0.1,0,0.1,0.1,0.2,0.1c0,0,0.1,0.1,0.1,0.2c0,0.1,0.1,0.2,0,0.4
			c0,0.2-0.1,0.3-0.1,0.3c-0.1,0.1-0.1,0.1-0.2,0.1c0,0-0.1,0-0.1-0.1c0,0-0.1-0.1-0.1-0.1c0,0-0.1-0.1-0.1-0.1
			c-0.2,0.2-0.4,0.5-0.6,0.7c-0.2,0.2-0.5,0.4-0.7,0.6c-0.3,0.2-0.5,0.3-0.8,0.5c-0.3,0.1-0.6,0.3-0.9,0.4c-0.1,0-0.2,0.1-0.4,0.1
			c-0.1,0-0.2,0-0.2,0c0,0,0-0.1,0.1-0.2C196.8,19.5,196.9,19.5,197,19.4z M199,15.8c0.2,0.2,0.3,0.4,0.5,0.5
			c0.2,0.1,0.4,0.2,0.6,0.2h0c0-0.1,0-0.1,0-0.2c0-0.1,0-0.2,0-0.3c0-0.1,0-0.2,0-0.3c0-0.1-0.1-0.2-0.1-0.2c-0.1,0-0.1-0.1-0.2-0.1
			c-0.1,0-0.2,0-0.3,0.1c-0.1,0-0.2,0.1-0.3,0.1C199.1,15.7,199,15.7,199,15.8z"/>
		<path class="st1" d="M198.4,25.6c0.4-0.2,0.8-0.3,1.3-0.3c0.5,0,0.9,0.1,1.3,0.2c0.4,0.1,0.8,0.3,1.1,0.6c0.3,0.3,0.5,0.6,0.6,0.9
			c0,0.6-0.2,1.1-0.4,1.5c-0.2,0.5-0.6,0.8-1,1.1c-0.5,0.3-1.2,0.6-1.9,0.8c-0.7,0.2-1.5,0.4-2.3,0.6c-0.8,0.2-1.6,0.3-2.4,0.3
			c-0.8,0.1-1.6,0.1-2.3,0.1h-0.2c-0.2,0-0.4-0.1-0.5-0.3c-0.1-0.2-0.2-0.4-0.2-0.6s0.1-0.4,0.2-0.6c0.1-0.2,0.3-0.3,0.5-0.3h0.2
			c0.1,0,0.3,0,0.4,0c0.2,0,0.3,0,0.4,0l1.7-1.5c0.2-0.3,0.3-0.8,0.3-1.5c0-0.7,0-1.4-0.1-2.2c-0.1-0.8-0.2-1.6-0.3-2.4
			c-0.1-0.8-0.2-1.5-0.3-2.1c0-0.3-0.1-0.5-0.2-0.8c-0.1-0.3-0.2-0.5-0.3-0.8c-0.1-0.1-0.1-0.1-0.1-0.2c0,0,0-0.1,0.1-0.2l0.6-1.2
			c0.1-0.1,0.1-0.1,0.2,0c0.1,0.4,0.3,0.7,0.4,1c0.2,0.3,0.4,0.6,0.7,0.8c-0.2,0.3-0.4,0.6-0.5,0.8c-0.1,0.2-0.1,0.4-0.1,0.6
			c0.1,0.6,0.2,1.2,0.3,1.8c0.1,0.6,0.2,1.3,0.2,1.9c0,0.6,0,1.3,0,1.9c0,0.6-0.1,1.2-0.2,1.8c0.4-0.4,0.9-0.8,1.4-1.1
			C197.4,26.2,197.9,25.9,198.4,25.6z M201.6,28c-0.2-0.2-0.4-0.5-0.7-0.6c-0.3-0.2-0.5-0.3-0.8-0.4s-0.6-0.1-0.9-0.2
			c-0.3,0-0.6,0-0.9,0.1c-0.4,0.1-0.7,0.2-1,0.4c-0.3,0.2-0.7,0.4-1,0.7c-0.3,0.3-0.7,0.5-1,0.8c-0.3,0.3-0.7,0.6-1.1,1
			c0.6,0,1.2-0.1,1.9-0.2c0.7-0.1,1.4-0.2,2.1-0.3c0.7-0.1,1.3-0.3,1.9-0.5C200.6,28.6,201.2,28.3,201.6,28z M198.6,21l1.3,1.1
			c0.1,0,0.1,0.1,0,0.2l-0.9,1.1c0,0.1-0.1,0.1-0.2,0l-1.3-1.1c-0.1,0-0.1-0.1,0-0.2l0.9-1.1C198.5,21,198.6,21,198.6,21z"/>
		<path class="st0" d="M215.3,19.9c0,0.2,0,0.5-0.1,0.7c-0.1,0.2-0.2,0.4-0.3,0.6c-0.1,0.2-0.3,0.3-0.5,0.4
			c-0.2,0.1-0.5,0.2-0.8,0.2c-0.4,0-0.7-0.1-0.9-0.4c-0.3-0.2-0.4-0.6-0.4-0.9c0-0.2,0-0.4,0.1-0.7c0.1-0.3,0.2-0.6,0.3-0.8
			c0.1-0.3,0.3-0.5,0.5-0.7c0.2-0.2,0.5-0.3,0.7-0.3c0.3,0,0.5,0,0.7,0.2c0.2,0.1,0.3,0.3,0.4,0.5c0.1,0.2,0.2,0.4,0.2,0.7
			C215.3,19.5,215.3,19.7,215.3,19.9z M212.8,20.2c0,0.1,0,0.2,0.1,0.3c0.1,0.1,0.1,0.1,0.2,0.2c0.1,0,0.2,0.1,0.3,0.1
			c0.1,0,0.2,0,0.3,0c0.2,0,0.4,0,0.6-0.1c0.2-0.1,0.3-0.2,0.5-0.3c0-0.1,0-0.3,0-0.4c0-0.1-0.1-0.3-0.2-0.4
			c-0.1-0.1-0.2-0.2-0.3-0.3c-0.1-0.1-0.3-0.1-0.5-0.1c-0.1,0-0.2,0.1-0.3,0.2c-0.1,0.1-0.2,0.2-0.3,0.3c-0.1,0.1-0.2,0.2-0.2,0.3
			C212.8,20,212.8,20.1,212.8,20.2z"/>
		<path class="st0" d="M217.4,29.6l0.5-1.6c0-0.1,0.1-0.1,0.1-0.1c0,0,0.1,0,0.1,0.1c0.1,0.2,0.3,0.5,0.4,0.8
			c0.2,0.3,0.3,0.5,0.4,0.7c0.1,0.1,0.2,0.1,0.3,0.2c0.1,0,0.3,0.1,0.4,0.1c0.1,0,0.3,0,0.4,0c0.1,0,0.2,0,0.3,0h0.2
			c0.2,0,0.4,0.1,0.5,0.3c0.1,0.2,0.2,0.4,0.2,0.6c0,0.2-0.1,0.4-0.2,0.6c-0.1,0.2-0.3,0.3-0.5,0.3h-0.2c-0.4,0-0.7,0-1.1-0.1
			c0,0.4,0.1,0.8,0.1,1.3c0,0.5,0,0.9-0.1,1.3c-0.1,0.7-0.4,1.3-0.8,1.8c-0.4,0.5-0.9,0.9-1.5,1.3c-0.6,0.3-1.2,0.6-1.9,0.7
			c-0.7,0.2-1.3,0.2-2,0.2c-0.6,0-1.1-0.1-1.6-0.3c-0.5-0.2-0.9-0.4-1.3-0.8c-0.4-0.3-0.7-0.7-0.9-1.2c-0.2-0.5-0.3-1-0.3-1.6
			c0-0.7,0.1-1.3,0.3-2c0.2-0.6,0.5-1.2,0.9-1.8c0-0.1,0.1-0.1,0.1-0.1c0,0,0.1,0,0.1,0.1c0,0.1,0,0.1,0,0.2c-0.3,0.6-0.5,1.3-0.6,2
			c-0.1,0.7,0,1.3,0.2,1.9c0.2,0.6,0.6,1,1.1,1.4c0.5,0.4,1.2,0.5,2.1,0.5c0.5,0,1,0,1.5-0.1c0.5-0.1,1-0.2,1.4-0.4
			c0.5-0.2,0.9-0.4,1.3-0.7c0.4-0.3,0.8-0.6,1.1-1c0-0.4,0-0.8-0.1-1.2c-0.1-0.4-0.1-0.8-0.3-1.2c-0.1-0.4-0.2-0.8-0.4-1.1
			C217.7,30.3,217.6,30,217.4,29.6z M214.8,25.1l1.3,1.1c0.1,0,0.1,0.1,0,0.2l-0.9,1.1c0,0.1-0.1,0.1-0.2,0l-1.3-1.1
			c-0.1,0-0.1-0.1,0-0.2l0.9-1.1C214.7,25,214.8,25,214.8,25.1z"/>
		<path class="st0" d="M226.2,19.4c-0.4,0.2-0.7,0.3-1.1,0.5c-0.4,0.2-0.8,0.4-1.1,0.5c-0.4,0.2-0.7,0.3-1,0.5
			c-0.3,0.1-0.6,0.3-0.8,0.4c0,0-0.1,0-0.1,0c0,0,0-0.1,0-0.1l0.5-1.1c0-0.1,0.1-0.1,0.1-0.1c0,0,0.1,0,0.1-0.1l3.9-1.7
			c0.1,0,0.2,0,0.1,0.1l-0.4,1C226.3,19.3,226.3,19.4,226.2,19.4z"/>
		<path class="st0" d="M220.4,29.8c0.3,0,0.6,0,0.9,0c0.3,0,0.6-0.1,0.8-0.1c0.3-0.1,0.5-0.2,0.7-0.3c0.2-0.1,0.4-0.3,0.5-0.5
			c0.2-0.4,0.4-0.8,0.6-1.2c0.2-0.4,0.4-0.8,0.6-1.1c0.1-0.1,0.2-0.3,0.3-0.5c0.1-0.2,0.3-0.3,0.4-0.5c0.2-0.1,0.3-0.3,0.5-0.4
			c0.2-0.1,0.3-0.1,0.5-0.1c0.3,0,0.5,0.2,0.8,0.4c0.3,0.3,0.5,0.6,0.7,0.9c0.2,0.4,0.3,0.7,0.5,1.1c0.1,0.4,0.2,0.7,0.1,0.9
			c0,0.2,0,0.3-0.1,0.5c0,0.2-0.1,0.3-0.1,0.5c-0.1,0.2-0.1,0.3-0.2,0.4c-0.1,0.1-0.2,0.2-0.4,0.3c-0.3,0.1-0.6,0.1-1,0
			c-0.4-0.1-0.7-0.2-1-0.3c-0.3-0.1-0.6-0.2-0.8-0.3s-0.5-0.3-0.8-0.5c-0.3,0.8-0.7,1.4-1.3,1.8c-0.6,0.4-1.3,0.6-2.1,0.6h-0.2
			c-0.2,0-0.4-0.1-0.5-0.3c-0.1-0.2-0.2-0.4-0.2-0.6s0.1-0.4,0.2-0.6c0.1-0.2,0.3-0.3,0.5-0.3H220.4z M226.7,27.5
			c-0.1-0.2-0.3-0.3-0.4-0.5c-0.2-0.2-0.4-0.2-0.7-0.2c-0.2,0-0.4,0.1-0.6,0.3c-0.2,0.2-0.3,0.4-0.4,0.6c0.2,0.2,0.4,0.3,0.6,0.4
			c0.2,0.1,0.4,0.2,0.6,0.3c0.2,0.1,0.5,0.1,0.7,0.1c0.2,0,0.5,0,0.7,0c0,0,0-0.1,0-0.2c0-0.1-0.1-0.2-0.1-0.3
			c-0.1-0.1-0.1-0.2-0.2-0.3C226.7,27.6,226.7,27.5,226.7,27.5z"/>
		<path d="M243.2,27c0,0.1-0.1,0.3-0.2,0.4c-0.2,0.2-0.4,0.4-0.8,0.6c0,0.4-0.1,0.7-0.2,1.1c-0.1,0.3-0.2,0.5-0.3,0.5
			c-0.4-0.4-0.7-0.7-1.1-1c-0.4-0.3-0.8-0.5-1.2-0.5c0,0.4,0.2,0.8,0.6,1.2c0.3,0.3,0.6,0.7,0.9,1c0,0.2-0.3,0.3-1,0.5
			c-0.5,0.1-0.9,0.1-1.2,0.1c-0.5,1.4-1.1,2.7-2,3.9c-0.4,0.5-0.9,1.1-1.5,1.7c-0.8,0.8-1.4,1.2-1.8,1.2c-0.1,0-0.2-0.1-0.2-0.2
			c0-0.1,0.2-0.4,0.7-0.9c0.7-0.8,1.2-1.4,1.5-2.1c0.6-1.1,1-2.3,1.2-3.7c-0.4-0.1-0.7-0.1-0.8-0.2c-0.1-0.1-0.2-0.1-0.2-0.3
			c0.9-0.8,1.4-1.5,1.4-2.2c-0.4,0-0.8,0.2-1.2,0.5c-0.2,0.2-0.6,0.6-1,1c-0.1,0-0.2-0.2-0.4-0.5c-0.1-0.4-0.2-0.7-0.2-1.1
			c-0.4-0.2-0.6-0.4-0.7-0.4c-0.3-0.2-0.4-0.4-0.4-0.6c0-0.1,0.1-0.3,0.2-0.4c0.1-0.1,0.4-0.3,0.8-0.5c0-1.1,0.2-1.6,0.6-1.6
			c0.8,0.9,1.5,1.3,2.2,1.4c0-0.3-0.2-0.8-0.5-1.2c0,0-0.3-0.4-0.9-1c0-0.1,0.1-0.2,0.2-0.2c0.2-0.1,0.4-0.1,0.9-0.2
			c-0.2-1.1-0.6-2.2-1.3-3.3c-0.6-1.1-1.4-2.1-2.2-2.8c-0.1-0.1-0.2-0.2-0.2-0.3c0-0.1,0.1-0.2,0.3-0.2c0.3,0,0.7,0.2,1.3,0.6
			c1.8,1.3,3.2,3.2,4.1,5.8c1.4,0,2.1,0.2,2.1,0.6c-0.4,0.3-0.7,0.7-0.9,1c-0.3,0.4-0.4,0.8-0.4,1.2c0.3,0,0.7-0.2,1-0.5l1.1-1
			c0.2,0,0.4,0.5,0.5,1.4c0,0.1,0,0.2,0,0.3C242.8,26.4,243.2,26.7,243.2,27z M240,23.7c0,0-0.1-0.1-0.4-0.1c-0.2,0-0.4-0.1-0.5-0.1
			h-0.4c-0.1,0-0.2,0-0.3,0.1c-0.4-1.2-0.9-2.4-1.7-3.5c-0.9-1.2-1.8-2.2-3-3c0.8,0.7,1.4,1.6,2,2.6c0.7,1.2,1.2,2.5,1.4,3.8
			c-0.5,0-0.8,0.1-0.8,0.2c0.6,0.5,1,1,1.3,1.5c0.1-0.2,0.2-0.5,0.3-0.7c0,0,0.1-0.1,0.1-0.3c0.1-0.2,0.1-0.3,0.2-0.3
			c0.2,0,0.4,0.5,0.7,1.4c0.2-0.3,0.3-0.7,0.6-0.9C239.6,24.2,239.8,24,240,23.7z M236.6,27.8c-0.1-0.1-0.5-0.2-1.1-0.4
			c-0.4-0.1-0.6-0.2-0.6-0.3c0,0,0.3-0.2,0.9-0.4c0.1-0.1,0.4-0.2,0.7-0.3c-0.3-0.1-0.7-0.3-1-0.5c-0.1-0.1-0.4-0.3-0.7-0.6
			c-0.1,0-0.2,0.4-0.2,1.2c-0.6,0.3-0.9,0.6-0.9,0.7c0,0.2,0.3,0.3,0.9,0.6c0,0.8,0.1,1.3,0.3,1.3c0,0,0.2-0.2,0.6-0.5
			C236.1,28.1,236.4,27.9,236.6,27.8z M240.1,30.3c-0.5-0.4-0.9-0.9-1.2-1.4c-0.1,0.2-0.2,0.4-0.3,0.7c0,0-0.1,0.2-0.2,0.4
			c-0.1,0.2-0.2,0.3-0.2,0.3c0,0-0.1-0.1-0.2-0.3c-0.1-0.2-0.1-0.3-0.2-0.3c0-0.1-0.1-0.3-0.3-0.7c-0.1,0.3-0.3,0.6-0.5,0.8
			c-0.2,0.2-0.4,0.4-0.6,0.6c0,0.1,0.3,0.1,0.8,0.3c-0.3,1.3-0.5,2.1-0.6,2.4c-0.5,1.4-1.3,2.8-2.4,4.1c1.9-1.3,3.3-3.4,4.3-6.5
			c0.7,0,1,0,0.9,0C239.8,30.5,240.1,30.4,240.1,30.3z M239.5,27c0-0.4-0.1-0.7-0.4-0.9c-0.2-0.2-0.6-0.3-0.9-0.3
			c-0.3,0-0.6,0.1-0.9,0.4c-0.3,0.2-0.4,0.5-0.4,0.9c0,0.4,0.1,0.7,0.4,0.9c0.3,0.2,0.6,0.4,0.9,0.4c0.4,0,0.7-0.1,0.9-0.4
			C239.4,27.7,239.5,27.4,239.5,27z M242.6,27c0-0.1-0.1-0.2-0.2-0.3c-0.2-0.1-0.4-0.2-0.7-0.3c0-0.4,0-0.7-0.1-0.9
			c-0.1-0.2-0.1-0.4-0.2-0.4c0,0-0.2,0.2-0.5,0.5c-0.3,0.3-0.7,0.6-1.1,0.7c0.2,0.1,0.4,0.2,0.8,0.4c0,0,0.2,0.1,0.6,0.2
			c0.3,0.1,0.4,0.2,0.4,0.2c0,0.1-0.2,0.2-0.6,0.3c-0.6,0.2-1,0.3-1.1,0.3c0.4,0.1,0.7,0.3,1,0.5c0.1,0.1,0.4,0.3,0.6,0.6
			c0.1,0,0.1-0.1,0.2-0.3c0-0.1,0-0.4,0-0.8C242.3,27.3,242.6,27.1,242.6,27z"/>
	</g>
	<rect class="st2" width="403.9" height="49.9"/>
</g>
</svg>
