<?xml version="1.0" encoding="utf-8"?>
<!-- Generator: Adobe Illustrator 19.2.0, SVG Export Plug-In . SVG Version: 6.00 Build 0)  -->
<svg version="1.1" id="Layer_1" xmlns="http://www.w3.org/2000/svg" xmlns:xlink="http://www.w3.org/1999/xlink" x="0px" y="0px"
	 viewBox="0 0 250.8 49.9" style="enable-background:new 0 0 250.8 49.9;" xml:space="preserve">
<style type="text/css">
	.st0{fill:#002F3D;}
	.st1{fill:none;}
</style>
<g>
	<g>
		<path class="st0" d="M69,30.4c-0.9,0.5-2.7,1.6-4.2,2.7c-0.1,0-0.1,0.1-0.1,0.1c0,0-0.1,0-0.1-0.1c0-0.1,0.1-0.5,0.2-0.7
			c0.1-0.2,0.5-0.6,0.9-0.9c0,0,0.1-0.1,0.1-0.1c0,0,0-0.1-0.1-0.1c-0.6-0.2-1-0.5-1-1.1c0-0.9,1-2.3,1.9-3.1
			c0.4-0.3,0.7-0.5,1.1-0.5c0.6,0,0.8,0.3,0.8,0.8c0,0.3-0.1,0.7-0.3,1.1c-0.1,0.2-0.2,0.3-0.3,0.3c-0.1,0-0.1,0-0.2-0.1
			c-0.2-0.2-0.4-0.3-0.7-0.3c-0.6,0-1.4,0.4-1.4,0.7c0,0.3,1.3,0.9,1.9,0.9c0.1,0,0.1,0,0.2,0c0.3-0.1,1.1-0.4,1.6-0.7
			c0.2-0.1,0.3-0.2,0.3-0.2c0.1,0,0.1,0,0.1,0.1c0,0.1,0,0.3-0.1,0.5C69.3,30.3,69.2,30.3,69,30.4z"/>
		<path class="st0" d="M75,31.5c-0.5,0-1-0.1-1.3-0.4c-0.6-0.5-0.9-1.3-1-2.4c-0.1-0.8-0.2-1.8-0.2-2.9c-0.1-1.6-0.2-4-0.4-5.4
			c0-0.1,0-0.2,0-0.2c0-0.1,0-0.2,0.1-0.3c0.2-0.4,0.4-0.6,0.6-0.9c0.1-0.2,0.2-0.3,0.2-0.3c0.1,0,0.2,0.1,0.2,0.5
			c0.3,2.8,0.1,6.6,0.5,8.7c0.1,0.5,0.2,0.7,0.3,1.1c0.2,0.5,0.6,0.7,1.1,0.8c0.6,0,0.9,0.3,0.9,0.9c0,0.7-0.3,0.9-0.8,0.9H75z"/>
		<path class="st0" d="M76,17.8c-0.3,0-0.5-0.1-0.7-0.3c-0.2-0.2-0.3-0.6-0.3-0.9c0-0.3,0-0.5,0.2-0.8c0.1-0.3,0.3-0.6,0.5-0.6
			c0.1,0,0.1,0.1,0.1,0.2c0,0.2-0.1,0.3-0.1,0.5c0,0.4,0.3,0.5,0.6,0.5c0.3,0,0.5-0.3,0.7-0.7c0.2-0.6,0.5-0.8,0.7-0.8
			c0.1,0,0.1,0.1,0.1,0.2c0,0.1,0,0.2,0,0.3c0,0.2,0.1,0.4,0.4,0.4c0.3,0,0.5-0.2,0.7-0.6c0.2-0.4,0.3-0.6,0.4-0.6
			c0.1,0,0.1,0.2,0.1,0.4c0,0.5-0.1,0.9-0.4,1.3c-0.2,0.3-0.5,0.7-1.1,0.7c-0.3,0-0.5-0.1-0.6-0.2c-0.1-0.1-0.1,0-0.2,0.1
			C76.8,17.5,76.4,17.8,76,17.8z"/>
		<path class="st0" d="M78.1,26c0,0.7-0.1,1.3-0.3,1.8c1.7-1.3,3.1-2.1,3.9-2.1c0.4,0,1,0.1,1.5,0.3c0.6,0.3,0.9,0.6,0.9,1.2
			c0,0.9-0.7,2.3-1.4,2.8c0.7-0.2,1.3-0.3,1.9-0.3h0.2c0.5,0,0.8,0.3,0.8,0.9c0,0.6-0.3,0.9-0.8,0.9h-0.3c-3.5,0.1-5.1,0.1-5.8,0.1
			c-0.9,0-2.1,0-3.6-0.1H75c-0.5,0-0.8-0.3-0.8-0.9c0-0.6,0.3-0.9,0.8-0.9h0.9c0.3-0.3,0.9-0.9,1.5-1.4c0-0.3,0-0.7,0-0.9
			c0-2.3-0.4-4.3-0.6-5.6c0-0.3-0.2-1-0.3-1.3c0-0.1,0-0.1,0-0.2c0-0.1,0.2-0.5,0.3-0.8c0.2-0.4,0.5-0.8,0.6-0.8
			c0.1,0,0.1,0.1,0.1,0.2c0.2,0.7,0.4,1.1,0.6,1.4c0,0.1,0.1,0.1,0.1,0.2c0,0,0,0.1,0,0.2c-0.1,0.2-0.3,0.6-0.5,0.8
			C77.8,23,78.1,24.6,78.1,26z M80.9,27.3c-1.5,0-2.9,1.1-4.3,2.5c2.7-0.2,5.3-0.7,6.3-1.4C82.6,27.7,81.7,27.3,80.9,27.3z"/>
		<path class="st0" d="M86.6,30.7c-0.4,0.5-0.9,0.8-1.8,0.8h-0.2c-0.5,0-0.8-0.3-0.8-1c0-0.6,0.3-0.8,0.8-0.8h0.2
			c0.4,0,0.8-0.1,1.1-0.2c0.3-0.1,0.5-0.2,0.5-0.3c0-1.4-0.5-4.2-0.7-7c0-0.3-0.2-1.3-0.3-1.7c0-0.1,0-0.1,0-0.2
			c0-0.2,0.3-0.7,0.4-1c0.2-0.4,0.4-0.7,0.6-0.7c0.1,0,0.1,0.1,0.1,0.2c0.2,0.8,0.5,1.2,0.6,1.4c0,0.1,0.1,0.2,0.1,0.2
			c0,0,0,0.1,0,0.1c-0.1,0.2-0.3,0.6-0.4,0.8c0.1,2.7,0.6,4.9,0.6,6.1C87.4,28.8,87.1,29.9,86.6,30.7z"/>
		<path class="st0" d="M91,31.5c-0.1,0-0.1-0.1-0.1-0.5c0-2.4-0.9-8.9-0.9-10c0-0.5,0.4-1.4,0.7-1.9c0.1-0.2,0.3-0.4,0.4-0.4
			c0.1,0,0.1,0.2,0.1,0.6c0.1,1.7,0.6,5.7,0.6,8.6c0,1.2-0.1,2.1-0.3,2.7C91.3,31.2,91.1,31.5,91,31.5z"/>
		<path class="st0" d="M108.7,14.4c0,0.4-0.1,0.8-0.2,1.2c0.2,0.1,0.3,0.2,0.3,0.3c0,0.3-0.1,0.6-0.3,0.8c0,0.1-0.1,0.1-0.1,0.1
			l-0.4-0.2c-0.4,0.6-1,1.4-1.9,1.8c-0.3,0.2-0.7,0.3-1.2,0.3c-0.2,0-0.3,0-0.3-0.1c0-0.1,0.2-0.2,0.4-0.3c0.7-0.4,2-1.4,2.4-2
			c-0.4-0.2-0.8-0.6-0.8-1.1c0-0.3,0.2-0.7,0.5-1c0.3-0.4,0.7-0.6,1-0.6C108.5,13.4,108.6,13.9,108.7,14.4z M107.2,14.7
			C107.2,14.7,107.2,14.8,107.2,14.7c0,0.2,0.3,0.4,0.6,0.5c0.1-0.1,0.1-0.3,0.1-0.5c0-0.2-0.1-0.3-0.3-0.3
			C107.5,14.4,107.3,14.5,107.2,14.7z"/>
		<path class="st0" d="M113.1,27c0,0.4-0.2,1.5-0.5,2.2c-0.2,0.5-0.3,0.7-0.9,1c-1.3,0.6-4.5,1.5-7.7,1.5c-4.2,0-5.8-1.4-5.8-3.3
			c0-0.7,0.3-1.9,0.8-2.6c0.2-0.2,0.3-0.5,0.5-0.5c0,0,0.1,0,0.1,0.1c0,0.1-0.1,0.2-0.1,0.4c-0.2,0.6-0.4,1.1-0.4,1.6
			c0,0.8,1.1,2.5,5.1,2.5c2.9,0,6-0.7,7.4-1.1c0.7-0.3,0.7-0.4,0.7-0.9c0-0.4-0.1-0.7-0.2-1c-0.2,0.4-0.7,0.8-1.4,0.8
			c-0.9,0-1.4-0.5-1.4-1.5c0-1.4,1.1-3.3,1.6-3.3C111.9,22.8,113.1,24.9,113.1,27z M109.1,20.6c0.1,0,0.1,0.1,0,0.2
			c-0.2,0.2-0.8,1-1.1,1.3c-0.1,0.1-0.1,0.1-0.2,0c-0.4-0.2-1.2-0.8-1.4-1.1c-0.1-0.1-0.1-0.1,0-0.2c0.3-0.4,0.7-0.9,1-1.2
			c0.2-0.2,0.2-0.2,0.2-0.1C108,19.8,108.6,20.3,109.1,20.6z M110.5,24.6c-0.2,0-0.5,0.3-0.6,0.6c0,0,0,0.1,0,0.1s0,0.1,0,0.1
			c0.1,0.2,0.4,0.4,0.8,0.4c0.3,0,0.6-0.1,0.7-0.3c0,0,0,0,0-0.1C111.5,25.3,111.1,24.6,110.5,24.6z"/>
		<path class="st0" d="M116.9,23.2c0.5,0,1.3,0.8,1.3,1.6c0,0.3-0.1,0.6-0.2,0.9c-0.2,0.6-0.7,1-1.4,1c-0.6,0-1.1-0.5-1.1-1
			C115.6,24.9,116.5,23.2,116.9,23.2z M116.7,24.4c-0.2,0-0.6,0.5-0.6,0.8c0,0.2,0.3,0.4,0.6,0.4c0.4,0,0.9-0.2,0.9-0.4
			C117.7,25.1,117.2,24.4,116.7,24.4z"/>
		<path class="st0" d="M119.7,29.7c0.6,0,0.9,0.3,0.9,0.9c0,0.6-0.3,0.9-0.9,0.9h-0.2c-0.5,0-0.8,0-1-0.1c0,0.1,0,0.2,0,0.3
			c0,0.6-0.1,1.2-0.3,1.6c-0.4,1-1,2.6-2.8,3.4c-0.3,0.2-0.6,0.2-1,0.2c-0.7,0-1.8-0.4-2.8-0.8c-0.3-0.1-0.3-0.2-0.3-0.3
			c0-0.1,0.1-0.2,0.3-0.2c0.2,0,0.6,0.1,1,0.1c2.5,0,4.9-2.2,5.2-3.9c0-0.4-0.8-1.3-1-1.5c0,0,0-0.1,0-0.2c0-0.4,0.3-1.2,0.5-1.5
			c0.1-0.1,0.2-0.2,0.2-0.2c0.1,0,0.2,0.1,0.5,0.5c0.3,0.5,0.7,0.7,1.5,0.7H119.7z"/>
		<path class="st0" d="M125.4,21c0.1,0,0.1,0,0.1,0c0,0.5-0.2,0.9-0.4,1l-3.2,1.8c-0.1,0-0.1,0-0.1,0c0-0.2,0.1-0.6,0.2-0.8
			c0.1-0.1,0.2-0.2,0.5-0.4L125.4,21z"/>
		<path class="st0" d="M121.9,27.3c-0.2,0-0.4,0-0.5,0.1c-0.2,0.1-0.5,0.2-0.6,0.2c-0.1,0-0.2-0.1-0.2-0.2c0-0.3,0.5-1,0.9-1.4
			c0.4-0.3,0.8-0.5,1.1-0.5c0.1,0,0.3,0,0.4,0c1.4,0.3,3.3,1.1,4.7,1.4c1,0.2,2,0.3,2.7,0.3c0.1,0,0.3,0,0.4,0c0,0,0.1,0,0.1,0.1
			c0,0.3-0.5,1.2-0.9,1.5c-0.1,0.1-0.2,0.1-0.4,0.1c-0.4,0-1.3-0.1-1.5-0.1c-0.7,0-1.3,0.1-1.8,0.2c-0.3,0.1-0.9,0.4-1.8,0.8
			c-1.3,0.7-2.2,1.1-2.8,1.3c-0.6,0.2-1.2,0.4-2,0.4h-0.2c-0.6,0-0.9-0.3-0.9-0.9c0-0.6,0.3-0.8,0.9-0.8h0.2c1.1,0,2-0.1,2.7-0.3
			c0.7-0.2,1.8-0.6,3.1-1.1C124,27.8,122.7,27.3,121.9,27.3z"/>
		<path class="st0" d="M139,25.7c0.3,0.3,0.3,0.6,0.3,0.9c0,0.2-0.1,0.5-0.3,0.7c-0.2,0.2-0.5,0.3-0.8,0.3c-0.2,0-0.5-0.1-0.7-0.3
			c-0.2-0.2-0.3-0.5-0.3-0.8c0-0.3,0.1-0.6,0.3-0.8c0.2-0.2,0.5-0.3,0.8-0.3C138.5,25.4,138.8,25.5,139,25.7z M139,29.8
			c0.3,0.2,0.3,0.6,0.3,0.8c0,0.2-0.1,0.5-0.3,0.8c-0.2,0.2-0.5,0.3-0.8,0.3c-0.2,0-0.5-0.1-0.7-0.3c-0.2-0.2-0.3-0.5-0.3-0.8
			c0-0.3,0.1-0.6,0.3-0.8c0.2-0.2,0.5-0.3,0.8-0.3C138.5,29.5,138.8,29.6,139,29.8z"/>
		<path class="st0" d="M149.7,21c0,0.4-0.1,0.8-0.2,1.2c0.2,0.1,0.3,0.2,0.3,0.3c0,0.3-0.1,0.6-0.3,0.8c0,0.1-0.1,0.1-0.1,0.1
			l-0.4-0.2c-0.4,0.6-1,1.4-1.9,1.8c-0.3,0.2-0.7,0.3-1.2,0.3c-0.2,0-0.3,0-0.3-0.1c0-0.1,0.2-0.2,0.4-0.3c0.7-0.4,2-1.4,2.4-2
			c-0.4-0.2-0.8-0.6-0.8-1.1c0-0.3,0.2-0.7,0.5-1c0.3-0.4,0.7-0.6,1-0.6C149.6,20.1,149.7,20.6,149.7,21z M148.3,21.4
			C148.3,21.4,148.3,21.4,148.3,21.4c0,0.2,0.3,0.4,0.6,0.5c0.1-0.1,0.1-0.3,0.1-0.5c0-0.2-0.1-0.3-0.3-0.3
			C148.6,21,148.4,21.2,148.3,21.4z"/>
		<path class="st0" d="M150.6,30.4c-0.9,0.5-2.7,1.6-4.2,2.7c-0.1,0-0.1,0.1-0.1,0.1s-0.1,0-0.1-0.1c0-0.1,0.1-0.5,0.2-0.7
			c0.1-0.2,0.5-0.6,0.9-0.9c0,0,0.1-0.1,0.1-0.1c0,0,0-0.1-0.1-0.1c-0.6-0.2-1-0.5-1-1.1c0-0.9,1-2.3,1.9-3.1
			c0.4-0.3,0.7-0.5,1.1-0.5c0.6,0,0.8,0.3,0.8,0.8c0,0.3-0.1,0.7-0.3,1.1c-0.1,0.2-0.2,0.3-0.3,0.3c-0.1,0-0.1,0-0.2-0.1
			c-0.2-0.2-0.4-0.3-0.7-0.3c-0.6,0-1.4,0.4-1.4,0.7c0,0.3,1.3,0.9,1.9,0.9c0.1,0,0.1,0,0.2,0c0.3-0.1,1.1-0.4,1.6-0.7
			c0.2-0.1,0.3-0.2,0.3-0.2c0.1,0,0.1,0,0.1,0.1c0,0.1,0,0.3-0.1,0.5C150.9,30.3,150.8,30.3,150.6,30.4z"/>
		<path class="st0" d="M156.6,31.5c-0.5,0-1-0.1-1.3-0.4c-0.6-0.5-0.9-1.3-1-2.4c-0.1-0.8-0.2-1.8-0.2-2.9c-0.1-1.6-0.2-4-0.4-5.4
			c0-0.1,0-0.2,0-0.2c0-0.1,0-0.2,0.1-0.3c0.2-0.4,0.4-0.6,0.6-0.9c0.1-0.2,0.2-0.3,0.2-0.3c0.1,0,0.2,0.1,0.2,0.5
			c0.3,2.8,0.1,6.6,0.5,8.7c0.1,0.5,0.2,0.7,0.3,1.1c0.2,0.5,0.6,0.7,1.1,0.8c0.6,0,0.9,0.3,0.9,0.9c0,0.7-0.3,0.9-0.8,0.9H156.6z"
			/>
		<path class="st0" d="M162.9,29.7c0.5,0,0.8,0.3,0.8,0.9c0,0.6-0.3,0.9-0.8,0.9h-0.2c-1.7,0-2.7-0.3-3.4-0.8
			c-0.6,0.4-1.5,0.8-2.5,0.8h-0.2c-0.5,0-0.7-0.3-0.7-0.9c0-0.6,0.3-0.9,0.8-0.9h0.2c0.7,0,1.1-0.1,1.3-0.3
			c-0.1-0.2-0.1-0.4-0.1-0.6c0-1.8,2-4,3.2-4c0.7,0,1,0.8,1,1.7c0,1-0.4,2.2-1.2,2.9c0.4,0.2,0.9,0.3,1.7,0.3H162.9z M160.9,20.9
			c0.1,0,0.1,0.1,0,0.2c-0.2,0.2-0.8,1-1.1,1.3c-0.1,0.1-0.1,0.1-0.2,0c-0.4-0.2-1.2-0.8-1.4-1.1c-0.1-0.1-0.1-0.1,0-0.2
			c0.3-0.4,0.7-0.9,1-1.2c0.2-0.2,0.2-0.2,0.2-0.1C159.8,20.1,160.3,20.6,160.9,20.9z M160.4,26.6c-0.7,0-1.3,0.7-1.3,1
			c0,0.4,0.3,0.7,1,1.1c0.2-0.1,1.1-0.8,1.1-1C161.2,27,161,26.6,160.4,26.6z"/>
		<path class="st0" d="M168.8,16.6c0.5,0,1.3,0.8,1.3,1.6c0,0.3-0.1,0.6-0.2,0.9c-0.2,0.6-0.7,1-1.4,1c-0.6,0-1.1-0.5-1.1-1
			C167.5,18.3,168.4,16.6,168.8,16.6z M168.6,17.9c-0.2,0-0.6,0.5-0.6,0.8c0,0.2,0.3,0.4,0.6,0.4c0.4,0,0.9-0.2,0.9-0.4
			C169.5,18.5,169.1,17.9,168.6,17.9z"/>
		<path class="st0" d="M165,27.3c-0.2,0-0.4,0-0.5,0.1c-0.2,0.1-0.5,0.2-0.6,0.2c-0.1,0-0.2-0.1-0.2-0.2c0-0.3,0.5-1,0.9-1.4
			c0.4-0.3,0.8-0.5,1.1-0.5c0.1,0,0.3,0,0.4,0c1.4,0.3,3.3,1.1,4.7,1.4c1,0.2,2,0.3,2.7,0.3c0.1,0,0.3,0,0.4,0c0,0,0.1,0,0.1,0.1
			c0,0.3-0.5,1.2-0.9,1.5c-0.1,0.1-0.2,0.1-0.4,0.1c-0.4,0-1.3-0.1-1.5-0.1c-0.7,0-1.3,0.1-1.8,0.2c-0.3,0.1-0.9,0.4-1.8,0.8
			c-1.3,0.7-2.2,1.1-2.8,1.3c-0.6,0.2-1.2,0.4-2,0.4h-0.2c-0.6,0-0.9-0.3-0.9-0.9c0-0.6,0.3-0.8,0.9-0.8h0.2c1.1,0,2-0.1,2.7-0.3
			c0.7-0.2,1.8-0.6,3.1-1.1C167.1,27.8,165.9,27.3,165,27.3z M170.4,22.6c0.1,0,0.1,0.1,0,0.2c-0.2,0.2-0.8,1-1.1,1.3
			c-0.1,0.1-0.1,0.1-0.2,0c-0.4-0.2-1.2-0.8-1.4-1.1c-0.1-0.1-0.1-0.1,0-0.2c0.3-0.4,0.7-0.9,1-1.2c0.2-0.2,0.2-0.2,0.2-0.1
			C169.2,21.8,169.8,22.3,170.4,22.6z"/>
		<path class="st0" d="M178.6,37.5c0.1,0,0.1,0,0.1,0c0,0.5-0.2,0.9-0.4,1l-3.2,1.8c-0.1,0-0.1,0-0.1,0c0-0.2,0.1-0.6,0.2-0.8
			c0.1-0.1,0.2-0.2,0.5-0.4L178.6,37.5z"/>
		<path class="st0" d="M177.9,35.8c-0.7,0.3-2.1,1.2-3.2,2c0,0-0.1,0-0.1,0s0,0,0-0.1c0-0.1,0.1-0.3,0.2-0.5
			c0.1-0.1,0.4-0.5,0.7-0.7c0,0,0.1-0.1,0.1-0.1s0-0.1-0.1-0.1c-0.5-0.2-0.7-0.3-0.7-0.7c0,0,0-0.1,0-0.1c0-0.7,0.8-1.8,1.5-2.3
			c0.3-0.2,0.5-0.3,0.8-0.3c0.4,0,0.6,0.2,0.6,0.6c0,0.2-0.1,0.5-0.2,0.8c-0.1,0.2-0.1,0.3-0.2,0.3c-0.1,0-0.1,0-0.2-0.1
			c-0.1-0.1-0.2-0.2-0.5-0.2c-0.6,0-1,0.4-1,0.5c0,0.3,1,0.7,1.4,0.7c0,0,0.1,0,0.1,0c0.2-0.1,0.9-0.3,1.2-0.5
			c0.1-0.1,0.2-0.1,0.3-0.1c0,0,0.1,0,0.1,0.1c0,0.1,0,0.2-0.1,0.3C178.1,35.6,178,35.7,177.9,35.8z"/>
		<path class="st0" d="M181.8,20.2c0.1,0.1,0.1,0.2,0.1,0.2c0,0,0,0.1,0,0.2c-0.1,0.3-0.4,0.8-0.7,1.1c-0.1,1.9-0.4,3.4-1.2,5.5
			c0.2,0.6,0.4,1.5,0.4,2.3c0,0.5-0.1,1.1-0.2,1.4c-0.1,0.3-2.1,0.7-3.4,0.7c-0.4,0-0.7,0-0.9-0.1c-0.1,0-0.1-0.2-0.1-0.5
			c0-0.5,0.1-1.2,0.2-1.4c0,0,0.1-0.1,0.1-0.1c0.1,0,0.1,0,0.2,0c1.1,0,2.2-1,2.9-2.3c-0.9-1.8-2.8-4.1-4.4-5.2
			c0,0.1-0.3,0.5-0.6,0.5c-0.3,0-1.7-1.4-1.8-1.7c0-0.2,0-0.3,0-0.5c0-0.4,0.1-0.9,0.2-1.1c0.1-0.2,0.2-0.3,0.3-0.3
			c0.2,0,0.4,0.1,0.6,0.3c1.2,0.9,2.5,1.9,3.6,3.2c0.8,1,1.8,2.4,2.6,4c0.5-1,0.6-1.7,0.7-3.1c0.1-0.8,0.1-1.3,0.1-1.7
			c0-0.9-0.1-1.2-0.1-1.5c0-0.2,0.1-0.3,0.2-0.6c0.3-0.5,0.5-0.9,0.7-0.9c0,0,0.1,0.1,0.1,0.2C181.4,19.2,181.5,19.7,181.8,20.2z
			 M179.4,28c-0.6,0.9-0.7,1.1-1.3,1.6c0.6,0,1.2-0.1,1.7-0.2C179.7,29,179.7,28.5,179.4,28z"/>
		<path class="st0" d="M184.9,31.5c-0.1,0-0.1-0.1-0.1-0.5c0-2.4-0.9-8.9-0.9-10c0-0.5,0.4-1.4,0.7-1.9c0.1-0.2,0.3-0.4,0.4-0.4
			c0.1,0,0.1,0.2,0.1,0.6c0.1,1.7,0.6,5.7,0.6,8.6c0,1.2-0.1,2.1-0.3,2.7C185.2,31.2,185,31.5,184.9,31.5z"/>
	</g>
	<rect class="st1" width="250.8" height="49.9"/>
</g>
</svg>
