<?xml version="1.0" encoding="utf-8"?>
<!-- Generator: Adobe Illustrator 19.2.0, SVG Export Plug-In . SVG Version: 6.00 Build 0)  -->
<svg version="1.1" id="Layer_1" xmlns="http://www.w3.org/2000/svg" xmlns:xlink="http://www.w3.org/1999/xlink" x="0px" y="0px"
	 viewBox="0 0 617 46.8" style="enable-background:new 0 0 617 46.8;" xml:space="preserve">
<style type="text/css">
	.st0{fill:#FFFFFF;}
</style>
<g>
	<g>
		<path class="st0" d="M352.5,32.9c-0.1,0-0.2-0.2-0.2-0.9c0-3.9-1.4-14.6-1.4-16.4c0-0.9,0.6-2.2,1.1-3.2c0.2-0.3,0.4-0.7,0.6-0.7
			c0.2,0,0.2,0.2,0.2,1c0.1,2.8,0.9,9.4,0.9,14.1c0,1.9-0.1,3.5-0.5,4.4C353,32.4,352.7,32.9,352.5,32.9z"/>
		<path class="st0" d="M366.3,27.7c0,1.1-0.2,2.2-0.3,2.6c-0.6,2-2.6,2.7-6.3,2.7c-0.9,0-1.3-0.1-1.5-0.4c-0.3-0.3-0.4-0.9-0.4-1.5
			c0-0.5,0.1-0.9,0.1-1.1c0.1-0.4,0.2-0.6,0.3-0.6c0.1,0,0.2,0.1,0.3,0.2c0.4,0.3,1.2,0.4,2.2,0.4c1.6,0,3.5-0.3,4.3-0.8
			c0.1-0.1,0.1-0.1,0.1-0.1c0,0,0-0.1,0-0.2c-0.5-1.8-2.8-5.1-4.6-5.1c-0.2,0-0.5,0.3-0.7,0.3c-0.1,0-0.1-0.1-0.1-0.2
			c0-0.7,0.5-2.4,1-2.8c0.2-0.1,0.4-0.2,0.6-0.2c0.4,0,1,0.1,1.4,0.4c0.8,0.3,2,1.5,2.8,3.1C365.9,25.3,366.3,26.5,366.3,27.7z"/>
		<path class="st0" d="M375.2,15.3c-0.5,0-0.8-0.2-1.1-0.5c-0.3-0.4-0.4-1-0.4-1.4c0-0.5,0.1-0.8,0.2-1.3c0.2-0.5,0.5-0.9,0.9-0.9
			c0.2,0,0.2,0.2,0.1,0.3c-0.1,0.3-0.1,0.5-0.1,0.8c0,0.6,0.4,0.9,0.9,0.9c0.5,0,0.9-0.5,1.2-1.1c0.4-0.9,0.8-1.3,1.1-1.3
			c0.1,0,0.2,0.1,0.2,0.4c0,0.2,0,0.2,0,0.5c0,0.4,0.2,0.6,0.7,0.6c0.4,0,0.8-0.3,1.1-0.9c0.4-0.7,0.5-0.9,0.7-0.9
			c0.2,0,0.2,0.4,0.2,0.6c0,0.7-0.2,1.4-0.6,2.1c-0.3,0.6-0.9,1.2-1.8,1.2c-0.5,0-0.8-0.1-1-0.4c-0.1-0.1-0.2,0-0.4,0.2
			C376.5,14.9,375.9,15.3,375.2,15.3z"/>
		<path class="st0" d="M379.4,35.4c0.1-0.1,0.2-0.1,0.2,0.1c0,0.7-0.3,1.5-0.7,1.7l-5.3,3c-0.1,0.1-0.1,0-0.1-0.1
			c0-0.4,0.1-1,0.3-1.3c0.1-0.2,0.4-0.4,0.9-0.7L379.4,35.4z"/>
		<path class="st0" d="M382.2,29.9h0.4c0.9,0,1.3,0.5,1.3,1.4c0,1-0.5,1.5-1.3,1.5h-0.4c-1-0.1-1.7-0.3-2.3-0.8
			c-0.6-0.5-1.1-1.3-1.4-2.5c-0.4,2-2.9,3.4-5.9,3.4c-0.9,0-1.9-0.1-2.7-0.6c-0.5-0.4-0.8-0.8-0.8-1.4c0-0.7,0.2-1.7,0.5-2.4
			c0.1-0.2,0.2-0.4,0.4-0.4s0.2,0.2,0.3,0.4c0.3,0.9,1.5,1.2,3,1.2c2.7,0,4-0.6,4.6-1.6c0.1-0.3,0.1-0.6,0.1-0.9
			c0-1.6-0.5-3.7-0.9-5.7c-0.1-0.2-0.1-0.4-0.1-0.6c0-0.2,0.1-0.5,0.7-1.9c0.2-0.5,0.4-0.8,0.5-0.8c0.1,0,0.2,0.2,0.4,0.8
			c1,4.3,1.1,7.3,1.5,9c0.1,0.5,0.3,0.8,0.6,1.1C381.1,29.7,381.7,29.9,382.2,29.9z"/>
		<path class="st0" d="M385.5,31.6c-0.8,0.8-1.6,1.3-3,1.3h-0.3c-0.9,0-1.3-0.5-1.3-1.5c0-0.9,0.4-1.4,1.3-1.4h0.3
			c1.1,0,2-0.2,2.8-0.6c0.9-0.5,1.5-1.3,2.2-2.4c0.1-0.2,0.3-0.3,0.4-0.3c0.2,0,0.3,0.3,0.4,0.9c0.1,1.1,0.6,1.9,1.9,1.9
			c1.4,0,2.8-1.2,3.4-2.6c0.3-0.8,0.6-1.1,0.8-1.1c0.1,0,0.2,0.1,0.2,0.4c0,0.3-0.1,0.5-0.1,0.9c0,1.6,1.4,2.3,2.4,2.3
			c0.3,0,0.9-0.1,0.9-0.6c0-0.4-0.2-0.7-0.5-1.3c0-0.1-0.1-0.1-0.1-0.2c0-0.4,0.9-1.8,1.3-2.3c0.1-0.1,0.2-0.2,0.3-0.2
			c0.1,0,0.2,0.1,0.3,0.3c0.3,0.5,0.3,1.2,0.3,2c0,1.6-1.1,5-3.4,5c-1.4,0-2.4-0.7-2.7-2.1c-1,1.8-2.4,2.4-3.4,2.4
			c-1.4,0-2.3-0.8-2.6-2.8C386.5,30.5,386.1,31,385.5,31.6z M395.3,18.8c0.2-0.2,0.3-0.3,0.4-0.1c0.6,0.7,1.3,1.4,2,1.8
			c0.2,0.1,0.2,0.2,0,0.4c-0.6,0.6-1.2,1.3-1.7,2c-0.1,0.2-0.2,0.2-0.4,0c-0.5-0.4-1.2-0.9-1.8-1.6c-0.4,0.4-1.1,1.3-1.5,1.5
			c-0.2,0.1-0.2,0.2-0.5,0.1c-0.7-0.4-1.5-1.1-2-1.8c-0.1-0.2-0.1-0.2,0-0.4c0.5-0.6,1.1-1.3,1.8-2c0.1-0.1,0.2-0.1,0.4,0.1
			c0.5,0.5,1.3,1.3,1.8,1.6C394.3,19.9,395,19.1,395.3,18.8z M395.8,14.5c0.1,0.1,0.1,0.1,0,0.2c-0.3,0.4-1.4,1.6-1.8,2.1
			c-0.1,0.1-0.2,0.1-0.3,0c-0.6-0.4-1.9-1.3-2.2-1.9c-0.1-0.1-0.1-0.2,0-0.3c0.4-0.7,1.2-1.5,1.7-2c0.2-0.2,0.3-0.3,0.4-0.2
			C394,13.1,394.9,13.9,395.8,14.5z"/>
		<path class="st0" d="M434.5,8.8c0.1-0.1,0.2-0.1,0.2,0.1c0,0.7-0.3,1.5-0.7,1.7l-5.2,2.9c-0.1,0.1-0.1,0-0.1-0.1
			c0-0.4,0.1-1,0.3-1.3c0.1-0.2,0.4-0.4,0.9-0.7L434.5,8.8z M434.5,11.4c0.1-0.1,0.2-0.1,0.2,0.1c0,0.7-0.3,1.5-0.7,1.7l-5.2,2.9
			c-0.1,0.1-0.1,0-0.1-0.1c0-0.4,0.1-1,0.3-1.3c0.1-0.2,0.4-0.4,0.9-0.7L434.5,11.4z"/>
		<path class="st0" d="M434.4,18.8c0.1,0.1,0.1,0.1,0,0.2c-0.3,0.4-1.4,1.6-1.8,2.1c-0.1,0.1-0.2,0.1-0.3,0
			c-0.6-0.4-1.9-1.3-2.2-1.9c-0.1-0.1-0.1-0.2,0-0.3c0.4-0.7,1.2-1.5,1.7-2c0.2-0.2,0.3-0.3,0.4-0.2
			C432.6,17.4,433.5,18.2,434.4,18.8z"/>
		<path class="st0" d="M425.3,23.5c-0.1-2.6-0.3-6.8-0.7-8.9c0-0.1,0-0.1,0-0.2c0-0.4,0.5-1.1,0.9-1.8c0.2-0.4,0.4-0.7,0.5-0.7
			c0.1,0,0.3,0.2,0.4,0.9c0.5,4.5,0.2,10.8,0.8,14.5c0.3,1.2,0.5,1.9,1.2,2.3c0.6,0.3,1.6,0.4,2.4,0.4c0.8,0,2.2-0.1,2.9-0.8
			c-0.1-1.2-0.9-2.5-1.4-3.1c0,0-0.1-0.1-0.1-0.2c0-0.3,0.6-1.8,0.9-2.4c0.1-0.1,0.1-0.2,0.2-0.2c0.1,0,0.3,0.2,0.5,0.6
			c0.6,1.1,0.9,2.4,0.9,4c0,1.2-0.2,2.5-1.1,3.5c-1,1.1-2.4,1.5-4,1.5c-1,0-2.1-0.2-2.9-1C425.8,30.7,425.5,29.3,425.3,23.5z"/>
		<path class="st0" d="M433.5,40.5c-0.4-0.2-0.5-0.4-0.5-0.5c0-0.1,0.2-0.2,0.5-0.2c0.3,0,1.4,0.2,2.3,0.2c0.8,0,1.5-0.2,2.7-0.8
			c3.1-1.6,5-3.8,5-5.4c0-0.2,0-0.4-0.1-0.8h-0.9c-0.7,0-1.9-0.1-2.8-0.6c-0.9-0.5-1.2-1.2-1.2-2c0-0.7,0.3-1.9,0.8-2.8
			c0.7-1.6,1.6-2.8,2.4-2.8c0.9,0,1.7,0.6,2.3,1.5c0.6,0.9,0.9,2.4,0.9,3.6h1.2c0.8,0,1.2,0.4,1.2,1.3c0,1.1-0.4,1.6-1.2,1.6
			l-1.4,0.1c-0.2,4.5-1.7,7.4-5.3,8.8c-0.2,0.1-0.5,0.1-0.8,0.1C437.4,41.9,435.3,41.3,433.5,40.5z M441.5,28.1
			c-0.2-0.1-0.4-0.3-0.7-0.3c-0.6,0-1,0.7-1,1c0,0.3,0.3,0.6,1,0.9c0.5,0.2,1.1,0.3,1.5,0.3c0.2,0,0.3,0,0.3-0.1
			C442.7,29.6,442.1,28.6,441.5,28.1z"/>
		<path class="st0" d="M450.8,31.1c-0.6,0.8-1.5,1.5-3.3,1.7c-0.5,0.1-1.2,0.1-1.8,0.1c-0.8,0-1.2-0.7-1.2-1.5
			c0-0.7,0.4-1.5,1.2-1.5h0.7c1.3,0,3.4-0.1,4.1-0.8c-0.1-1.2-1-2.6-1.4-3.1c0,0,0-0.1,0-0.1c0-0.5,0.9-2.3,0.9-2.4
			c0-0.1,0.1-0.2,0.2-0.2c0.4,0,1.5,2.1,1.5,4.5C451.6,28.9,451.5,30.1,450.8,31.1z M451.6,16.9c0.1,0.1,0.1,0.1,0,0.2
			c-0.3,0.4-1.4,1.6-1.8,2.1c-0.1,0.1-0.2,0.1-0.3,0c-0.6-0.4-1.9-1.3-2.2-1.9c-0.1-0.1-0.1-0.2,0-0.3c0.4-0.7,1.2-1.5,1.7-2
			c0.2-0.2,0.3-0.3,0.4-0.2C449.7,15.4,450.7,16.3,451.6,16.9z"/>
		<path class="st0" d="M489.5,13.5c0.2-0.2,0.3-0.3,0.4-0.1c0.6,0.7,1.3,1.4,2,1.8c0.2,0.1,0.2,0.2,0,0.4c-0.6,0.6-1.2,1.3-1.7,2
			c-0.1,0.2-0.2,0.2-0.4,0c-0.5-0.4-1.2-0.9-1.8-1.6c-0.4,0.4-1.1,1.3-1.5,1.5c-0.2,0.1-0.2,0.2-0.5,0.1c-0.7-0.4-1.5-1.1-2-1.8
			c-0.1-0.2-0.1-0.2,0-0.4c0.5-0.6,1.1-1.3,1.8-2c0.1-0.1,0.2-0.1,0.4,0.1c0.5,0.5,1.3,1.3,1.8,1.6
			C488.5,14.6,489.2,13.8,489.5,13.5z M490,9.3c0.1,0.1,0.1,0.1,0,0.2c-0.3,0.4-1.4,1.6-1.8,2.1c-0.1,0.1-0.2,0.1-0.3,0
			c-0.6-0.4-1.9-1.3-2.2-1.9c-0.1-0.1-0.1-0.2,0-0.3c0.4-0.7,1.2-1.5,1.7-2c0.2-0.2,0.3-0.3,0.4-0.2C488.1,7.9,489.1,8.7,490,9.3z"
			/>
		<path class="st0" d="M479.8,25.7c1.2-2.5,5.6-5.1,9.4-5.1c1.1,0,1.8,0.4,1.8,1.5c0,0.6-0.2,1.3-0.8,2.1c-0.2,0.3-0.4,0.5-0.6,0.5
			c-0.3,0-0.5-0.3-0.7-0.6c-0.2-0.5-0.9-0.6-1.4-0.6c-1.7,0-4.4,0.8-5.7,2.1c0.8,0.2,1.5,0.7,2.3,1.4c0.7,0.7,1.1,1.2,1.1,1.6
			c0,0.2-0.7,1.7-1.2,2.4c-0.1,0.2-0.2,0.2-0.4,0.1c-0.6-0.2-1.6-0.5-2.8-0.5c-2.2,0-3.4,0.4-3.9,1.1l1.1,6.6c0.2,1.5,0.4,2.8,0.4,4
			c0,1.2-0.2,2.3-0.6,3.5c-0.1,0.4-0.4,0.8-0.5,0.8c-0.2,0-0.2-0.2-0.2-0.8c0.1-1.7-0.1-3.9-0.7-7.1c-0.4-2.4-0.7-4-0.8-5
			c0-1.3,0.3-2.5,0.9-3.6c0.6-1.1,1.4-1.9,2.4-2.4C479.3,26.9,479.6,26,479.8,25.7z"/>
		<path class="st0" d="M521,32.9c-0.8,0-1.6-0.1-2.2-0.6c-0.9-0.8-1.4-2.2-1.7-4c-0.2-1.4-0.3-3-0.4-4.8c-0.1-2.6-0.3-6.6-0.7-8.9
			c0-0.1,0-0.2,0-0.3c0-0.1,0-0.2,0.2-0.5c0.4-0.6,0.7-1,0.9-1.5c0.2-0.4,0.3-0.4,0.4-0.4c0.1,0,0.2,0.2,0.4,0.8
			c0.6,4.5,0.1,10.8,0.8,14.3c0.2,0.9,0.3,1.2,0.5,1.7c0.3,0.8,0.9,1.2,1.8,1.2c1,0,1.5,0.5,1.5,1.4c0,1.2-0.5,1.5-1.4,1.5H521z"/>
		<path class="st0" d="M530.3,16.2c0.1-0.1,0.2-0.1,0.2,0.1c0,0.7-0.3,1.5-0.7,1.7l-5.2,2.9c-0.1,0.1-0.1,0-0.1-0.1
			c0-0.4,0.1-1,0.3-1.3c0.1-0.2,0.4-0.4,0.9-0.7L530.3,16.2z M530.3,18.8c0.1-0.1,0.2-0.1,0.2,0.1c0,0.7-0.3,1.5-0.7,1.7l-5.2,2.9
			c-0.1,0.1-0.1,0-0.1-0.1c0-0.4,0.1-1,0.3-1.3c0.1-0.2,0.4-0.4,0.9-0.7L530.3,18.8z"/>
		<path class="st0" d="M521.4,32.9h-0.2c-0.8,0-1.2-0.5-1.2-1.4c0-1,0.4-1.5,1.2-1.5h0.2c2.1,0,3.4-1,4.5-2c1-1,1.7-2.1,2.5-2.1
			c0.2,0,0.5,0.1,0.7,0.4c1.2,1.2,3.7,3.7,4.9,3.7h0.1c0.9,0,1.4,0.5,1.4,1.4c0,1-0.5,1.6-1.4,1.6h-0.1c-1.1,0-2.3-0.8-2.5-1
			c-0.2,0.9-1.2,2-1.8,2c-0.5,0-4.3-1.1-5.4-2.8C524,32.2,522.6,32.9,521.4,32.9z M528.9,29.1c-0.4-0.4-0.9-0.8-1.4-0.8
			c-0.3,0-0.4,0.1-0.7,0.4c-0.2,0.2-0.4,0.4-0.4,0.5c0,0.2,0.4,0.4,1.5,1c0.5,0.2,1.6,0.8,2,0.8c0.1,0,0.2-0.1,0.2-0.2
			C530.1,30.5,529.3,29.5,528.9,29.1z"/>
		<path class="st0" d="M540.6,36.6c0.2-0.2,0.3-0.3,0.4-0.1c0.6,0.7,1.3,1.4,2,1.8c0.2,0.1,0.2,0.2,0,0.4c-0.6,0.6-1.2,1.3-1.7,2
			c-0.1,0.2-0.2,0.2-0.4,0c-0.5-0.4-1.2-0.9-1.8-1.6c-0.4,0.4-1.1,1.3-1.5,1.5c-0.2,0.1-0.2,0.2-0.5,0.1c-0.7-0.4-1.5-1.1-2-1.8
			c-0.1-0.2-0.1-0.2,0-0.4c0.5-0.6,1.1-1.3,1.8-2c0.1-0.1,0.2-0.1,0.4,0.1c0.5,0.5,1.3,1.3,1.8,1.6
			C539.5,37.8,540.2,36.9,540.6,36.6z"/>
		<path class="st0" d="M540.2,28.2c0,0.7,0.8,1.6,1.7,1.7c0.2,0,0.4,0,0.6,0h0.2c1.1,0,1.1,0.9,1.1,1.3c0,0.4,0,1.6-1.1,1.6h-0.2
			c-0.2,0-0.4,0-0.7,0c-2-0.2-2.7-1.9-2.8-2.1c-0.3,0.8-1.9,2.2-4.7,2.2h-0.1c-0.8,0-1.2-0.7-1.2-1.5c0-0.7,0.4-1.5,1.2-1.5h0.9
			c1.3,0,3.1-0.2,4.2-2.1c0.3-0.6,0.5-0.7,0.6-0.7C540.1,27.2,540.2,27.5,540.2,28.2z"/>
		<path class="st0" d="M542.9,32.9h-0.1c-0.8,0-1.3-0.5-1.3-1.5c0.1-0.9,0.5-1.4,1.3-1.4h0.1c1.6,0,2.8-0.6,3.8-1.9l1.6-2.5
			c0.9-1.4,2.2-1.9,2.8-1.9c2.2,0,3,3.7,3,5.3c0,1.3-1.4,3.1-2.1,3.1c-1,0-3.6-1.2-4.9-2.4C545.9,31.9,544.5,32.9,542.9,32.9z
			 M549.7,26.2c-0.2,0-0.4,0.1-0.6,0.4c-0.1,0.2-0.2,0.4-0.4,0.6c0.6,0.3,2.4,1.3,3.2,1.8C551.8,28,550.6,26.2,549.7,26.2z"/>
		<path class="st0" d="M582.7,19.8c-0.9,0-1.5-0.9-1.5-2c0-0.3,0.1-0.6,0.1-1c0.1-0.3,0.3-1,0.6-1c0.2,0,0.3,0.3,0.3,0.7v0.3
			c0,0.4,0.3,0.7,0.8,0.7h0.1c0.6,0,1-0.4,1.1-1.2c0.1-0.4,0.3-1.4,0.8-1.4c0.2,0,0.3,0.2,0.3,0.7c0,0.2,0.2,0.4,0.5,0.4
			c0.6,0,1.1-0.4,1.1-1.1c0.1-0.8,0.3-1.1,0.5-1.1c0.3,0,0.4,0.9,0.4,1.4c0,0.4-0.1,0.8-0.2,1.3c-0.3,0.9-0.9,1.5-2,1.5
			c-0.2,0-0.5-0.1-0.6-0.2c-0.1-0.1-0.2-0.1-0.3,0.1C584.3,19.1,583.6,19.8,582.7,19.8z M587.7,10.9c0.1-0.1,0.1,0.1,0.1,0.1
			c-0.1,0.5-0.3,1.1-0.6,1.5c-0.1,0.1-0.3,0.2-0.6,0.4l-5.1,2.4c-0.1,0-0.1,0-0.1-0.1c0-0.2,0.1-0.6,0.2-0.9
			c0.2-0.4,0.3-0.5,0.4-0.6c0.1-0.1,0.2-0.2,0.4-0.3L587.7,10.9z"/>
		<path class="st0" d="M591,30.1c0-0.4,0.4-1.7,0.8-2.5c0.1-0.2,0.2-0.3,0.2-0.3c0.1,0,0.2,0.2,0.2,0.2c0.7,1.5,1.4,2.4,2.4,2.4h0.4
			c0.9,0,1.3,0.5,1.3,1.4c0,1-0.4,1.5-1.3,1.5h-0.4c-0.5,0-0.9-0.1-1.1-0.1c-0.1,2.3-0.3,3.3-0.5,3.8c-0.4,1.2-1,2.1-2.7,3.4
			c-1.6,1.2-3.8,2-7,2c-3.3,0-5.7-2.2-5.7-5.7c0-1.9,0.9-4,1.6-4.9c0.3-0.4,0.6-0.7,0.8-0.7c0.1,0,0.2,0.1,0.2,0.2
			c0,0.2-0.1,0.5-0.3,0.9c-0.6,1.1-1.1,2.2-1.1,3.4c0,2.4,2.9,3.8,5.1,3.8c3.5,0,7.1-1.3,8.2-3.3c0-0.1,0.1-0.2,0.1-0.5
			c-0.1-2.5-0.4-3.4-1.2-4.7C591,30.3,591,30.2,591,30.1z M587.9,23.6c0.1,0.1,0.1,0.1,0,0.2c-0.3,0.4-1.4,1.6-1.8,2.1
			c-0.1,0.1-0.2,0.1-0.3,0c-0.6-0.4-1.9-1.3-2.2-1.9c-0.1-0.1-0.1-0.2,0-0.3c0.4-0.7,1.2-1.5,1.7-2c0.2-0.2,0.3-0.3,0.4-0.2
			C586.1,22.1,587,23,587.9,23.6z"/>
		<path class="st0" d="M596.4,27.2c0-0.7,0.3-2.2,0.8-3.2c0.9-1.9,2.4-2.8,3.7-2.8c0.9,0,2.6,0.5,3.6,1.3c0.4,0.3,0.4,0.5,0.4,0.6
			c0,0.1-0.1,0.1-0.3,0.1c-0.5,0-1.3-0.1-2-0.1c-1.4,0-4.7,1.3-4.8,2.2c0.1,0.5,1.7,2.9,4.2,2.9h0.2c1.6-0.6,3.5-1.5,4.7-2.1
			c0.5-0.3,0.9-0.4,1.1-0.4c0.1,0,0.2,0.1,0.2,0.2c0,0.3-0.7,1.5-1.1,2.2c-0.1,0.2-0.3,0.3-0.6,0.5c-0.8,0.5-2.3,1.2-4.1,2
			c-1.9,0.9-5.9,2.3-7.6,2.3h-0.2c-0.9,0-1.3-0.5-1.3-1.5c0-1,0.5-1.5,1.4-1.5h0.2c0.3,0,1.5-0.1,2.6-0.4
			C596.9,28.9,596.4,28.2,596.4,27.2z M602.6,14.7c0.1,0.1,0.1,0.1,0,0.2c-0.3,0.4-1.4,1.6-1.8,2.1c-0.1,0.1-0.2,0.1-0.3,0
			c-0.6-0.4-1.9-1.3-2.2-1.9c-0.1-0.1-0.1-0.2,0-0.3c0.4-0.7,1.2-1.5,1.7-2c0.2-0.2,0.3-0.3,0.4-0.2
			C600.8,13.3,601.8,14.1,602.6,14.7z"/>
		<path class="st0" d="M616.4,27.5c0.4,1.2,0.6,2.3,0.6,4c0,5.1-1.4,8.4-5.3,9.9c-0.2,0.1-0.5,0.1-0.8,0.1c-1.3,0-3.4-0.6-5.1-1.4
			c-0.4-0.2-0.6-0.4-0.6-0.5c0-0.1,0.2-0.2,0.5-0.2c0.2,0,1.4,0.2,2.3,0.2c1.2,0,2.4-0.5,4.2-1.7c2-1.3,3.6-3,3.6-4.9
			c0-0.6-0.2-1.2-0.5-1.9c-0.4,0.9-1,1.5-2,1.5c-1.6,0-2.6-0.9-2.6-2.7c0-0.7,0.3-1.7,0.8-2.7c0.7-1.3,1.6-2.4,2.3-2.4
			C614.7,24.7,615.8,25.9,616.4,27.5z M613.2,27.6c-0.3,0-0.6,0.3-0.8,0.6c-0.1,0.2-0.3,0.5-0.3,0.7c0,0.5,0.8,0.8,1.5,0.8
			c0.5,0,0.9-0.2,1-0.5C614.5,28.2,613.6,27.6,613.2,27.6z"/>
	</g>
	<g>
		<path class="st0" d="M1.6,32.9c-0.1,0-0.2-0.2-0.2-0.9C1.4,28.2,0,17.5,0,15.7c0-0.9,0.6-2.2,1.1-3.2c0.2-0.3,0.4-0.7,0.6-0.7
			c0.2,0,0.2,0.2,0.2,1c0.1,2.8,0.9,9.4,0.9,14.1c0,1.9-0.1,3.5-0.5,4.4C2.1,32.4,1.8,32.9,1.6,32.9z"/>
		<path class="st0" d="M19.3,29.9h0.4c0.9,0,1.3,0.5,1.3,1.4c0,1-0.5,1.5-1.3,1.5h-0.4c-1-0.1-1.7-0.3-2.3-0.8
			c-0.6-0.5-1.1-1.3-1.4-2.5c-0.4,2-2.9,3.4-5.9,3.4c-0.9,0-1.9-0.1-2.7-0.6c-0.5-0.4-0.8-0.8-0.8-1.4c0-0.7,0.2-1.7,0.5-2.4
			c0.1-0.2,0.2-0.4,0.4-0.4s0.2,0.2,0.3,0.4c0.3,0.9,1.5,1.2,3,1.2c2.7,0,4-0.6,4.6-1.6c0.1-0.3,0.1-0.6,0.1-0.9
			c0-1.6-0.5-3.7-0.9-5.7c-0.1-0.2-0.1-0.4-0.1-0.6c0-0.2,0.1-0.5,0.7-1.9c0.2-0.5,0.4-0.8,0.5-0.8c0.1,0,0.2,0.2,0.4,0.8
			c1,4.3,1.1,7.3,1.5,9c0.1,0.5,0.3,0.8,0.6,1.1C18.2,29.7,18.7,29.9,19.3,29.9z"/>
		<path class="st0" d="M24.3,31.1c-0.6,0.8-1.5,1.5-3.3,1.7c-0.5,0.1-1.2,0.1-1.8,0.1c-0.8,0-1.2-0.7-1.2-1.5c0-0.7,0.4-1.5,1.2-1.5
			h0.7c1.3,0,3.4-0.1,4.1-0.8c-0.1-1.2-1-2.6-1.4-3.1c0,0,0-0.1,0-0.1c0-0.5,0.9-2.3,0.9-2.4c0-0.1,0.1-0.2,0.2-0.2
			c0.4,0,1.5,2.1,1.5,4.5C25.2,28.9,25,30.1,24.3,31.1z M25.8,36.1c0.1,0.1,0.1,0.1,0,0.2c-0.3,0.4-1.4,1.6-1.8,2.1
			c-0.1,0.1-0.2,0.1-0.3,0c-0.6-0.4-1.9-1.3-2.2-1.9c-0.1-0.1-0.1-0.2,0-0.3c0.4-0.7,1.2-1.5,1.7-2c0.2-0.2,0.3-0.3,0.4-0.2
			C24,34.7,24.9,35.5,25.8,36.1z"/>
		<path class="st0" d="M56.2,34c0.1-0.1,0.2-0.1,0.2,0.1c0,0.7-0.3,1.5-0.7,1.7l-5.4,3.1c-0.1,0.1-0.1,0-0.1-0.1
			c0-0.4,0.1-1,0.3-1.3c0.1-0.2,0.4-0.4,0.9-0.7L56.2,34z M56.2,36.7c0.1-0.1,0.2-0.1,0.2,0.1c0,0.7-0.3,1.5-0.7,1.7l-5.4,3.1
			c-0.1,0.1-0.1,0-0.1-0.1c0-0.4,0.1-1,0.3-1.3c0.1-0.2,0.4-0.4,0.9-0.7L56.2,36.7z"/>
		<path class="st0" d="M54.4,13.4c0.2-0.2,0.3-0.3,0.4-0.1c0.6,0.7,1.3,1.4,2,1.8c0.2,0.1,0.2,0.2,0,0.4c-0.6,0.6-1.2,1.3-1.7,2
			c-0.1,0.2-0.2,0.2-0.4,0c-0.5-0.4-1.2-0.9-1.8-1.6c-0.4,0.4-1.1,1.3-1.5,1.5c-0.2,0.1-0.2,0.2-0.5,0.1c-0.7-0.4-1.5-1.1-2-1.8
			c-0.1-0.2-0.1-0.2,0-0.4c0.5-0.6,1.1-1.3,1.8-2c0.1-0.1,0.2-0.1,0.4,0.1c0.5,0.5,1.3,1.3,1.8,1.6C53.4,14.5,54.1,13.7,54.4,13.4z
			 M58.2,29.4c0.6,0.4,1.1,0.6,1.5,0.6h0.4c0.9,0,1.4,0.5,1.4,1.4c0,1.1-0.5,1.6-1.4,1.6h-0.4c-1,0-2-0.4-2.9-1.2
			c-0.9-0.8-1.5-2.1-1.8-3.9c-0.3,0.5-0.5,0.9-1.1,1.3c-0.8,0.6-2.1,0.8-3.4,0.8c-0.9,0-1.8-0.2-1.8-0.8c0.4-2.9,0.8-3.3,2.2-4.4
			c0.6-0.5,2.3-1.5,3-2c0-0.3-0.1-0.5-0.1-0.7c0-0.7,0.2-1,0.5-1.6c0.2-0.4,0.4-0.6,0.5-0.6c0.1,0,0.2,0.2,0.3,0.7
			c0.4,2.6,0.7,4.8,1,6.2C56.5,27.7,57.2,28.7,58.2,29.4z M54.3,24.1c-1.2,0.8-3.2,2-3.3,2.4c0,0.2,0.4,0.3,0.9,0.3
			c0.8,0,2-0.2,2.8-0.6C54.6,25.4,54.5,25.1,54.3,24.1z"/>
		<path class="st0" d="M65.9,28.2c0,0.7,0.8,1.6,1.7,1.7c0.2,0,0.4,0,0.6,0h0.2c1.1,0,1.1,0.9,1.1,1.3c0,0.4,0,1.6-1.1,1.6h-0.2
			c-0.2,0-0.4,0-0.7,0c-2-0.2-2.7-1.9-2.8-2.1c-0.3,0.8-1.9,2.2-4.7,2.2h-0.1c-0.8,0-1.2-0.7-1.2-1.5c0-0.7,0.4-1.5,1.2-1.5h0.9
			c1.3,0,3.1-0.2,4.2-2.1c0.3-0.6,0.5-0.7,0.6-0.7C65.8,27.2,65.9,27.5,65.9,28.2z M67,20.6c0.1,0.1,0.1,0.1,0,0.2
			c-0.3,0.4-1.4,1.6-1.8,2.1c-0.1,0.1-0.2,0.1-0.3,0c-0.6-0.4-1.9-1.3-2.2-1.9c-0.1-0.1-0.1-0.2,0-0.3c0.4-0.7,1.2-1.5,1.7-2
			c0.2-0.2,0.3-0.3,0.4-0.2C65.1,19.2,66.1,20.1,67,20.6z"/>
		<path class="st0" d="M70.1,27.2c0-0.7,0.3-2.2,0.8-3.2c0.9-1.9,2.4-2.8,3.7-2.8c0.9,0,2.6,0.5,3.6,1.3c0.4,0.3,0.4,0.5,0.4,0.6
			c0,0.1-0.1,0.1-0.3,0.1c-0.5,0-1.3-0.1-2-0.1c-1.4,0-4.7,1.3-4.8,2.2c0.1,0.5,1.7,2.9,4.2,2.9H76c1.6-0.6,3.5-1.5,4.7-2.1
			c0.5-0.3,0.9-0.4,1.1-0.4c0.1,0,0.2,0.1,0.2,0.2c0,0.3-0.7,1.5-1.1,2.2c-0.1,0.2-0.3,0.3-0.6,0.5c-0.8,0.5-2.3,1.2-4.1,2
			c-1.9,0.9-5.9,2.3-7.6,2.3h-0.2c-0.9,0-1.3-0.5-1.3-1.5c0-1,0.5-1.5,1.4-1.5h0.2c0.3,0,1.5-0.1,2.6-0.4
			C70.6,28.9,70.1,28.2,70.1,27.2z M76.3,14.7c0.1,0.1,0.1,0.1,0,0.2c-0.3,0.4-1.4,1.6-1.8,2.1c-0.1,0.1-0.2,0.1-0.3,0
			c-0.6-0.4-1.9-1.3-2.2-1.9c-0.1-0.1-0.1-0.2,0-0.3c0.4-0.7,1.2-1.5,1.7-2c0.2-0.2,0.3-0.3,0.4-0.2C74.5,13.3,75.4,14.1,76.3,14.7z
			"/>
		<path class="st0" d="M130.3,25.6c0,0.6-0.3,2.4-0.8,3.6c-0.3,0.9-0.5,1.1-1.5,1.6c-2.1,1-7.3,2.5-12.6,2.5c-6.8,0-9.5-2.3-9.5-5.5
			c0-1.1,0.5-3,1.3-4.3c0.2-0.4,0.6-0.7,0.7-0.7c0.1,0,0.1,0.1,0.1,0.1c0,0.1-0.1,0.4-0.2,0.6c-0.3,0.9-0.7,1.8-0.7,2.6
			c0,1.4,1.9,4,8.4,4.1c4.8,0,9.9-1.1,12.1-1.9c1.2-0.4,1.2-0.6,1.2-1.4c0-0.6-0.2-1.1-0.4-1.7c-0.3,0.7-1.2,1.3-2.3,1.3
			c-1.4,0-2.3-0.8-2.3-2.5c0-2.3,1.7-5.3,2.6-5.3C128.5,18.7,130.3,22,130.3,25.6z M123.8,15.1c0.1,0.1,0.1,0.1,0,0.2
			c-0.3,0.4-1.4,1.6-1.8,2.1c-0.1,0.1-0.2,0.1-0.3,0c-0.6-0.4-1.9-1.3-2.2-1.9c-0.1-0.1-0.1-0.2,0-0.3c0.4-0.7,1.2-1.5,1.7-2
			c0.2-0.2,0.3-0.3,0.4-0.2C122,13.7,123,14.6,123.8,15.1z M126.1,21.5c-0.4,0-0.8,0.5-0.9,1c0,0.1,0,0.1,0,0.2s0,0.1,0,0.2
			c0.1,0.4,0.6,0.7,1.3,0.7c0.5,0,1-0.2,1.2-0.4c0,0,0.1-0.1,0.1-0.1C127.7,22.7,127.2,21.5,126.1,21.5z"/>
		<path class="st0" d="M141.3,29.9c0.9,0,1.4,0.5,1.4,1.4c0,1-0.5,1.5-1.4,1.5H141c-0.8,0-1.3,0-1.7-0.1c0,0.1,0,0.3,0,0.4
			c0,0.9-0.2,1.9-0.5,2.7c-0.7,1.6-1.7,4.2-4.6,5.6c-0.5,0.2-1,0.4-1.6,0.4c-1.2,0-3-0.7-4.5-1.3c-0.4-0.2-0.5-0.4-0.5-0.5
			c0-0.2,0.2-0.3,0.5-0.3c0.4,0,1.1,0.1,1.7,0.1c4,0,8-3.5,8.5-6.4c0-0.7-1.4-2.1-1.7-2.4c-0.1-0.1-0.1-0.2-0.1-0.3
			c0-0.7,0.5-2,0.7-2.4c0.1-0.2,0.3-0.3,0.4-0.3c0.2,0,0.4,0.2,0.8,0.8c0.5,0.8,1.2,1.1,2.4,1.1H141.3z"/>
		<path class="st0" d="M150.6,15.7c0.1-0.1,0.2-0.1,0.2,0.1c0,0.7-0.3,1.5-0.7,1.7l-5.3,3c-0.1,0.1-0.1,0-0.1-0.1
			c0-0.4,0.1-1,0.3-1.3c0.1-0.2,0.4-0.4,0.9-0.7L150.6,15.7z"/>
		<path class="st0" d="M144.8,26.1c-0.3,0-0.6,0-0.8,0.1c-0.2,0.1-0.7,0.4-1,0.4c-0.2,0-0.2-0.1-0.2-0.3c0-0.6,0.8-1.7,1.5-2.3
			c0.6-0.5,1.2-0.7,1.8-0.7c0.2,0,0.4,0,0.6,0.1c2.3,0.5,5.3,1.8,7.7,2.3c1.6,0.4,3.3,0.5,4.4,0.5c0.2,0,0.4,0,0.6,0
			c0.1,0,0.1,0,0.1,0.1c0,0.5-0.9,1.9-1.4,2.4c-0.1,0.1-0.4,0.1-0.7,0.1c-0.6,0-2.1-0.1-2.4-0.1c-1.1,0-2.1,0.1-2.9,0.4
			c-0.5,0.2-1.5,0.6-3,1.2c-2.1,1.1-3.7,1.8-4.6,2.1c-1,0.4-2,0.6-3.2,0.6h-0.3c-0.9,0-1.4-0.5-1.4-1.5c0-0.9,0.5-1.4,1.4-1.4h0.4
			c1.8,0,3.2-0.2,4.4-0.5c1.2-0.3,2.9-0.9,5.1-1.9C148.2,26.8,146.1,26.1,144.8,26.1z"/>
		<path class="st0" d="M184.4,11.8c-0.9,0-1.5-0.9-1.5-2c0-0.3,0.1-0.6,0.1-1c0.1-0.3,0.3-1,0.6-1c0.2,0,0.3,0.3,0.3,0.7V9
			c0,0.4,0.3,0.7,0.8,0.7h0.1c0.6,0,1-0.4,1.1-1.2c0.1-0.4,0.3-1.4,0.8-1.4c0.2,0,0.3,0.2,0.3,0.7c0,0.2,0.2,0.4,0.5,0.4
			c0.6,0,1.1-0.4,1.1-1.1c0.1-0.8,0.3-1.1,0.5-1.1c0.3,0,0.4,0.9,0.4,1.4c0,0.4-0.1,0.8-0.2,1.3c-0.3,0.9-0.9,1.5-2,1.5
			c-0.2,0-0.5-0.1-0.6-0.2c-0.1-0.1-0.2-0.1-0.3,0.1C186,11.2,185.4,11.8,184.4,11.8z M189.6,0c0.1-0.1,0.1,0.1,0.1,0.1
			c-0.1,0.5-0.3,1.1-0.6,1.5c-0.1,0.1-0.3,0.2-0.6,0.4l-5.1,2.4c-0.1,0-0.1,0-0.1-0.1c0-0.2,0.1-0.6,0.2-0.9
			c0.2-0.4,0.3-0.5,0.4-0.6c0.1-0.1,0.2-0.2,0.4-0.3L189.6,0z M189.6,2.7c0.1-0.1,0.1,0.1,0.1,0.1c-0.1,0.5-0.3,1.1-0.6,1.5
			c-0.1,0.1-0.3,0.2-0.6,0.4l-5.1,2.4c-0.1,0-0.1,0-0.1-0.1c0-0.2,0.1-0.6,0.2-0.9c0.2-0.4,0.3-0.5,0.4-0.6c0.1-0.1,0.2-0.2,0.4-0.3
			L189.6,2.7z"/>
		<path class="st0" d="M198.2,19.5c0.2-0.7,0.7-1.4,1.5-2c2.5-2.1,8.3-5.3,11.1-6.4c0.3-0.1,0.5-0.1,0.5,0.1c0,0.4-0.4,1.2-1.2,2.5
			c-0.1,0.1-0.1,0.1-0.2,0.2c-2.2,0.9-8.9,4.9-10.7,6.4c4.7,1.8,7,4.2,7,7c0,1.5-0.3,2.7-0.9,3.8c-0.4,0.6-0.9,1.1-1.7,1.4
			c-0.8,0.3-1.7,0.4-2.6,0.4c-0.8,0-1.4-0.1-1.8-0.4c-1.2-0.8-1.6-2.3-1.8-4c-0.2-1.5-0.4-2.9-0.5-3.8c-0.1-0.5-0.2-0.6-0.2,0
			c-0.1,0.8-0.2,2.9-0.8,4.5c-0.4,1-0.9,2.1-1.8,3.3c-1.1,1.6-4.7,1.7-6.6,1.9c-0.7,0-1.1,0-1.1-0.2c0-0.1,0.3-0.4,1.3-0.9
			c1.5-0.8,3.5-2.2,5.7-4.4c0.5-0.5,0.9-1,1.2-1.6c0-1.5-1-3-1.4-3.8c-1.3-2.4-3.5-4.4-5.2-5.1c-0.2,0.3-0.5,0.6-1,0.6
			c-0.7,0-2-0.6-3.1-2c-0.3-0.3-0.4-1.2-0.4-2c0-0.9,0.2-1.8,0.6-1.8c0.6,0,1.2,0.3,1.9,0.6c3,1.3,7.2,4.8,8.5,8.7
			c0.4,1.1,0.6,2.5,0.7,3.1v0.5c1.6-3.9,0.6-9,0.6-11.9c0.2-0.9,1.2-3.1,1.5-2.7c0.2,0.2,0.3,2.2,0.4,4.5c0.1,0.9,0.1,2.6,0.3,4.6
			L198.2,19.5z M199.7,29.4c0.4,0.4,0.8,0.5,1.7,0.5c0.4,0,1-0.1,1.7-0.3c0.7-0.2,1.3-0.5,1.7-0.9c0-0.7-0.5-1.5-1.6-2.4
			c-1.1-0.9-2.6-1.8-4.3-2.6c-0.5-0.3-0.6-0.4-0.8-0.7c0.2,2,0.4,4,0.8,5C198.9,28.2,199.1,28.9,199.7,29.4z"/>
		<path class="st0" d="M233.9,20.8c-0.5,0-0.8-0.2-1.1-0.5c-0.3-0.4-0.4-1-0.4-1.4c0-0.5,0.1-0.8,0.2-1.3c0.2-0.5,0.5-0.9,0.9-0.9
			c0.2,0,0.2,0.2,0.1,0.3c-0.1,0.3-0.1,0.5-0.1,0.8c0,0.6,0.4,0.9,0.9,0.9c0.5,0,0.9-0.5,1.2-1.1c0.4-0.9,0.8-1.3,1.1-1.3
			c0.1,0,0.2,0.1,0.2,0.4c0,0.2,0,0.2,0,0.5c0,0.4,0.2,0.6,0.7,0.6c0.4,0,0.8-0.3,1.1-0.9c0.4-0.7,0.5-0.9,0.7-0.9
			c0.2,0,0.2,0.4,0.2,0.6c0,0.7-0.2,1.4-0.6,2.1c-0.3,0.6-0.9,1.2-1.8,1.2c-0.5,0-0.8-0.1-1-0.4c-0.1-0.1-0.2,0-0.4,0.2
			C235.2,20.4,234.6,20.8,233.9,20.8z"/>
		<path class="st0" d="M241.9,35c0.1-0.1,0.2-0.1,0.2,0.1c0,0.7-0.3,1.5-0.7,1.7l-5.3,3c-0.1,0.1-0.1,0-0.1-0.1c0-0.4,0.1-1,0.3-1.3
			c0.1-0.2,0.4-0.4,0.9-0.7L241.9,35z"/>
		<path class="st0" d="M240.1,27.4c0.6,0.6,1,1,1.1,1.4c0,0.1,0,0.2,0,0.3c-0.4,0.9-0.9,2-1.2,2.4c-0.1,0.1-0.1,0.1-0.2,0
			c-0.6-0.3-1.8-0.5-2.8-0.5c-2.2,0-3.6,0.4-4,1.1c0.6,3.4,1.3,6.6,1.5,10.4c0,1.3-0.1,2.6-0.6,3.8c-0.1,0.4-0.3,0.6-0.4,0.6
			c-0.2,0-0.2-0.4-0.2-0.6c0-0.3,0.1-0.7,0.1-0.9c0-1.1-0.3-3.1-0.8-6c-0.5-2.9-0.8-4.7-0.8-5.3c0-1.3,0.3-2.5,0.9-3.6
			c0.6-1.1,1.4-1.9,2.4-2.4c0.3-0.7,0.7-1.5,1.3-2.6c1-1.8,2.2-3,3.5-3.8c0.9-0.5,2-1,3.3-1c0.8,0,1.2,0.4,1.2,1
			c0,0.7,0.2,1.2,0.5,1.6c0.7,0.8,1.3,0.9,2,0.9c0.7,0,1.2-0.2,1.9-0.7c0.7-0.5,1.2-1.2,1.5-1.9c0.2-0.8,0.6-1.1,0.8-1.1
			c0.1,0,0.2,0.1,0.2,0.4c0,0.3-0.1,0.5-0.1,0.9c0,1.6,1.4,2.3,2.4,2.3c0.3,0,0.9-0.1,0.9-0.6c0-0.4-0.3-0.9-0.5-1.3
			c0,0-0.1-0.1-0.1-0.1c0-0.2,0.2-0.6,0.6-1.3c0.3-0.5,0.5-0.9,0.7-1.1c0.1-0.1,0.2-0.2,0.3-0.2c0.3,0,0.7,1,0.7,2.1
			c0,0.4-0.1,0.9-0.2,1.4c-0.4,1.9-1.1,3-2.2,3.6c-0.4,0.2-0.7,0.3-1.1,0.3c-1.2,0-2.3-0.8-2.7-2.1c-0.2,0.3-1.2,2.4-3.6,2.4
			c-0.7,0-1.2-0.2-1.7-0.5c-0.5-0.3-0.8-0.9-1.1-1.8c-0.2-0.7-0.5-1.4-1.5-1.4c-0.8,0-2.4,0.6-3.9,2.3
			C238.9,26.4,239.5,26.9,240.1,27.4z"/>
		<path class="st0" d="M265.5,27.5c0.4,1.2,0.6,2.3,0.6,4c0,5.1-1.4,8.4-5.3,9.9c-0.2,0.1-0.5,0.1-0.8,0.1c-1.3,0-3.4-0.6-5.1-1.4
			c-0.4-0.2-0.6-0.4-0.6-0.5c0-0.1,0.2-0.2,0.5-0.2c0.2,0,1.4,0.2,2.3,0.2c1.2,0,2.4-0.5,4.2-1.7c2-1.3,3.6-3,3.6-4.9
			c0-0.6-0.2-1.2-0.5-1.9c-0.4,0.9-1,1.5-2,1.5c-1.6,0-2.6-0.9-2.6-2.7c0-0.7,0.3-1.7,0.8-2.7c0.7-1.3,1.6-2.4,2.3-2.4
			C263.8,24.7,264.9,25.9,265.5,27.5z M262.3,27.6c-0.3,0-0.6,0.3-0.8,0.6c-0.1,0.2-0.3,0.5-0.3,0.7c0,0.5,0.8,0.8,1.5,0.8
			c0.5,0,0.9-0.2,1-0.5C263.6,28.2,262.7,27.6,262.3,27.6z"/>
	</g>
</g>
</svg>
