<?xml version="1.0" encoding="utf-8"?>
<!-- Generator: Adobe Illustrator 23.0.2, SVG Export Plug-In . SVG Version: 6.00 Build 0)  -->
<svg version="1.1" id="Layer_1" xmlns="http://www.w3.org/2000/svg" xmlns:xlink="http://www.w3.org/1999/xlink" x="0px" y="0px"
	 viewBox="0 0 36.6 28.6" style="enable-background:new 0 0 36.6 28.6;" xml:space="preserve">
<g>
	<g>
		<path d="M30.6,23.5h-9.3l0.1-0.1c0.6-0.8,0.8-1.8,0.6-3c-0.1-0.9-1.3-2.4-3.1-2.8c-2.5-0.6-5.4,1-8,4.6V4.6c0-0.3-0.2-0.5-0.5-0.5
			S9.9,4.3,9.9,4.6v18.9h-1h-3c-0.3,0-0.5,0.2-0.5,0.5s0.2,0.5,0.5,0.5H9h1.4l0,0l0,0h9h0.1c0.1,0,0.4-0.1,0.7-0.2
			c0,0,0.4,0.3,0.6,0.3s9.8,0,9.8,0c0.3,0,0.5-0.2,0.5-0.5C31.1,23.7,30.9,23.5,30.6,23.5z M17.9,18.5c0.3,0,0.5,0,0.8,0.1
			c1.5,0.3,2.2,1.5,2.3,1.9c0.1,0.9,0,1.7-0.4,2.2c-0.4,0.6-1.1,0.8-1.3,0.8h-8.1C13.5,20.2,15.8,18.5,17.9,18.5z"/>
	</g>
	<g>
		<g>
			<circle cx="18.3" cy="13.1" r="0.8"/>
		</g>
	</g>
</g>
</svg>
