<?xml version="1.0" encoding="utf-8"?>
<!-- Generator: Adobe Illustrator 19.2.0, SVG Export Plug-In . SVG Version: 6.00 Build 0)  -->
<svg version="1.1" id="Layer_1" xmlns="http://www.w3.org/2000/svg" xmlns:xlink="http://www.w3.org/1999/xlink" x="0px" y="0px"
	 viewBox="0 0 93.9 20.2" style="enable-background:new 0 0 93.9 20.2;" xml:space="preserve">
<style type="text/css">
	.st0{fill:#010101;}
</style>
<g>
	<path class="st0" d="M11.6,2.7C10.9,3.9,10.1,4.9,9,5.5L5.5,3.7l-2,1.8C2.3,5.1,1.1,4.4,0,3.5c0.6-0.7,1.4-1.6,2.6-2.8
		c1.5,1.2,2.6,1.8,3.1,1.8c0.1,0,0.5-0.3,1.1-0.8c0.4-0.3,0.8-0.7,1.1-1L11.6,2.7z M11.5,13.6c0,1.6-0.7,3.1-2.1,4.5
		c-1.4,1.4-2.9,2.1-4.6,2.1c-1.3,0-2.3-0.1-2.8-0.3c-1-0.3-1.5-1-1.5-2c0-1.3,0.8-3.1,2.3-5.4c1.1-1.7,2.4-3.3,3.7-4.8
		C9.9,9.4,11.5,11.4,11.5,13.6z M8.2,15.6c-0.3-1.2-1.4-2.5-3.5-3.9c-0.3,0.5-0.7,0.9-1,1.4C3.3,13.8,3,14.3,3,14.6
		C3,15.6,3.7,16,5.1,16C6,16,7.1,15.9,8.2,15.6z"/>
	<path class="st0" d="M31.9,19.8h-4.6c-0.2,0-0.5-0.4-0.7-1.1c-0.2-0.5-0.3-0.9-0.5-1.4c-0.2,0.1-0.5,0.6-0.9,1.3
		c-0.4,0.8-0.7,1.1-0.9,1.1h-8.7c-0.2,0-0.5-0.1-0.6-0.4c-0.2-0.3-0.3-0.5-0.3-0.8c0-1,0.2-2.3,0.6-3.9c0.4-2,1-3.1,1.6-3.1
		c0,0.2,0,0.6-0.1,1.1c0,0.5-0.1,0.9-0.1,1.1c0,0.9,0.2,1.4,0.6,1.4h8.1l0-0.3l-1.7-6.8l2.3-4.6c0.1,0.2,0.6,2.3,1.7,6.5
		c0.9,3.4,1.6,5.2,2,5.4h2.1V19.8z"/>
	<path class="st0" d="M50,15.2l-2.7,4.6H30.4v-4.5h3c0-0.5,0.1-1.2,0.2-2.1c0.4-1.2,1.5-2.5,3.4-4c1.9-1.4,3.4-2.2,4.7-2.2
		c1.5,0,2.8,0.7,3.9,2c1,1.1,1.7,2.5,2,4.1c-1.8-1-2.8-1.5-2.9-1.6c-0.8-0.3-1.9-0.5-3.3-0.5c-2,0-3.4,0.2-4.4,0.7l0,0
		c0,0,0,0.1,0,0.2c0,0.2,0.6,0.8,1.8,1.8c1.2,1,1.9,1.5,2.2,1.5H50z"/>
	<path class="st0" d="M60.8,19.8h-6.2L53.1,3.7c0-0.2,0.4-0.8,1.2-1.9c0.8-1,1.3-1.6,1.6-1.8c0.2,2.5,0.3,5,0.5,7.5
		c0.2,3.3,0.5,5.7,0.9,7.2c0.1,0.4,0.5,0.7,1.3,0.7h2.2V19.8z"/>
	<path class="st0" d="M68.3,19.8h-3.6c0-0.4-0.2-0.7-0.4-1.1c-0.1,0.1-0.4,0.3-0.7,0.6c-0.3,0.3-0.6,0.5-0.8,0.5h-3.6v-4.5h4.6
		c0.4-0.7,0.5-1.4,0.5-2.1c0-0.4,0.4-1,1.2-1.9c0.8-0.9,1.4-1.4,1.8-1.6l0.1,1c0,0.7-0.4,2.3-1.2,4.6h2V19.8z"/>
	<path class="st0" d="M81.4,19.8H78c-0.1-0.2-0.3-0.6-0.5-1.1c-0.2,0.2-0.5,0.6-0.8,1.1h-5.5c-0.4-0.5-0.6-0.7-0.8-0.7
		c-0.1,0-0.2,0.1-0.5,0.4c-0.2,0.2-0.4,0.4-0.5,0.4h-2.9v-4.5h3.2c0.2-0.2,0.4-0.7,0.4-1.5c0-0.4,0.4-1.1,1.2-2.3
		c0.7-1,1.3-1.7,1.8-2.1c0.1,0.2,0.1,0.3,0.1,0.5c0,1.7-0.2,3.4-0.7,5.3c0.2-0.1,1.2-0.1,3.1,0c0.1-0.2,0.2-0.3,0.2-0.5
		c0-0.2,0-0.4-0.1-0.7c-0.1-0.3-0.1-0.6-0.1-0.7c0-0.3,0.4-0.9,1.1-1.9c0.7-0.9,1.3-1.5,1.6-1.7c0.1,0.4,0.2,1,0.2,1.7
		c0,0.1,0,0.3,0,0.6c0,0.3,0,0.5,0,0.6c0,1.7,0.6,2.5,1.9,2.5h1.1V19.8z"/>
	<path class="st0" d="M93.9,15c0,0.5-0.3,1.4-1,2.5c-0.5,0.8-1,1.6-1.5,2.4c-0.1-0.3-2.3-1.2-6.7-2.9c-0.2,0.1-0.6,0.6-1,1.5
		c-0.4,0.9-0.8,1.3-1.1,1.3h-2.7v-4.5h3.1c0.2-0.2,0.6-1.1,1.4-2.7c0.4-1,1.4-2.1,2.9-3.2c1.5-1.1,2.8-1.6,3.9-1.6
		c0.6,0,0.9,0.2,1.1,0.7c0.1,0.5,0.2,0.9,0.3,1.4c0.3,0.9,0.6,1.7,0.9,2.6C93.7,13.4,93.9,14.3,93.9,15z M89.7,13.8
		c-0.1-0.5-0.4-1.1-0.8-2l-0.2,0c-0.5,0-1.1,0.2-1.9,0.7L89.7,13.8z"/>
</g>
</svg>
