<?xml version="1.0" encoding="utf-8"?>
<!-- Generator: Adobe Illustrator 19.2.0, SVG Export Plug-In . SVG Version: 6.00 Build 0)  -->
<svg version="1.1" id="Layer_1" xmlns="http://www.w3.org/2000/svg" xmlns:xlink="http://www.w3.org/1999/xlink" x="0px" y="0px"
	 viewBox="0 0 217.9 46.9" style="enable-background:new 0 0 217.9 46.9;" xml:space="preserve">
<style type="text/css">
	.st0{fill:#097B70;}
	.st1{fill:none;}
</style>
<g>
	<g>
		<path class="st0" d="M103,32.8c0,1.2-0.6,2.3-1.9,3.3c-1.3,0.9-2.7,1.4-4.3,1.4c-1.4,0-2.4-0.3-3.2-1c-0.8-0.7-1.1-1.6-1.1-2.9
			c0-1.2,0.1-2.2,0.4-3c0.3-1,1-2.2,1.9-3.6l0.7,0.5c-0.6,0.9-1.1,1.7-1.3,2.4c-0.3,0.7-0.4,1.4-0.4,2c0,0.7,0.3,1.3,0.8,1.7
			c0.5,0.4,1.3,0.6,2.3,0.6c1.4,0,2.5-0.3,3.4-0.8c0.9-0.5,1.3-1.2,1.3-2.1c0-0.2,0-0.3,0-0.4c0-0.1,0-0.2,0-0.2c0-0.3,0-0.7-0.1-1
			c-0.1-0.4-0.2-1.1-0.4-2.3c-0.3-1.9-0.7-3.8-1-5.7l-0.6-0.4c0-0.8,0.4-2,1.1-3.6l0.5,0.3c0,0.1,0,0.2,0,0.4c0,0.3,0.2,0.6,0.5,0.8
			c0.5,0.3,0.9,0.5,1.4,0.8c-0.1,0.7-0.2,1.2-0.3,1.5c-0.1,0.3-0.3,0.7-0.5,1.3l-0.4-0.1c0,0.1,0.1,0.8,0.3,2
			c0.2,1.2,0.4,2.3,0.6,3.2c0.2,1.3,0.3,2.1,0.3,2.3V32.8z"/>
		<path class="st0" d="M108.7,33.1h-1.7c-0.9,0-1.6-0.4-2-1.1c-0.5-0.8-0.7-2.3-0.7-4.3v-3.4c0-0.8-0.1-1.4-0.3-1.8
			c-0.1-0.2-0.3-0.5-0.7-0.9l1.3-3c0.5,0.6,0.8,1.3,1,1.9c0.2,0.7,0.3,1.6,0.3,2.8v2.3c0,1.7,0.1,2.8,0.3,3.5
			c0.2,0.5,0.5,0.8,0.8,0.8h1.7V33.1z"/>
		<path class="st0" d="M115.4,33.1h-7.5v-3.2h6.3c-0.1-0.5-0.2-1-0.5-1.4c-0.1-0.2-0.4-0.6-0.8-1.1l1-2.8c0.6,0.7,1,1.4,1.2,2.1
			c0.2,0.7,0.3,1.8,0.3,3.3V33.1z M115.2,20.4l-1.3,2.4l-1.7-1l-1,1.9l-2.2-1.2l1.2-2.3l1.8,0.9l1-1.9L115.2,20.4z M112.9,17.6
			l-1.2,2.5l-2.2-1.2l1.2-2.4L112.9,17.6z"/>
		<path class="st0" d="M125.5,33.1c-0.8,0-1.8-0.2-2.9-0.5c-1-0.3-1.9-0.6-2.6-1c-0.5,0.7-1,1.1-1.7,1.4c-0.3,0.1-0.8,0.2-1.3,0.2
			h-2.4v-3.2h2.4c0.7,0,1.3-0.1,1.7-0.3c0.5-0.2,0.9-0.6,1.1-1.2c0.5-1,1-1.8,1.7-2.5c0.6-0.6,1.2-0.9,1.6-0.9
			c0.4,0,0.9,0.6,1.5,1.8c0.6,1.3,0.9,2.5,0.9,3.6V33.1z M123.3,29.5c0-0.2-0.2-0.5-0.5-0.9c-0.4-0.5-0.7-0.7-1-0.7
			c-0.3,0-0.6,0.4-0.8,1.1c0.4,0.2,0.7,0.3,0.9,0.4c0.6,0.2,1,0.4,1.1,0.4C123.2,29.7,123.3,29.6,123.3,29.5z"/>
	</g>
	<rect class="st1" width="217.9" height="46.9"/>
</g>
</svg>
