<?xml version="1.0" encoding="utf-8"?>
<!-- Generator: Adobe Illustrator 22.0.1, SVG Export Plug-In . SVG Version: 6.00 Build 0)  -->
<svg version="1.1" id="Layer_1" xmlns="http://www.w3.org/2000/svg" xmlns:xlink="http://www.w3.org/1999/xlink" x="0px" y="0px"
	 viewBox="0 0 170.6 46.9" style="enable-background:new 0 0 170.6 46.9;" xml:space="preserve">
<style type="text/css">
	.st0{fill:#542C0B;}
	.st1{fill:none;}
</style>
<g>
	<g>
		<g>
			<path class="st0" d="M30.7,34.4H29c-0.9-1.4-1.7-2.9-2.2-4.5c-0.5-1.5-0.7-3-0.7-4.5c0-1.8,0.3-3.5,0.9-5.1
				c0.5-1.4,1.2-2.7,2-3.8h1.8c-0.8,1.9-1.4,3.5-1.7,4.8s-0.5,2.7-0.5,4.2c0,1,0.1,2.1,0.3,3.1c0.2,1.1,0.4,2.1,0.8,3
				C29.8,32.3,30.2,33.2,30.7,34.4z"/>
			<path class="st0" d="M44.5,27.7h-1.2c-0.2,0-0.4,0-0.6-0.1c-0.4-0.2-0.7-0.5-0.9-1c-0.3-0.7-0.5-1.6-0.6-2.7
				c-0.4,0.5-0.7,0.9-1,1.1c-0.3,0.3-0.6,0.5-0.9,0.5c-0.1,0-0.3,0-0.4-0.1l-1.1-0.2C37.3,25,37,25,36.9,24.9s-0.2-0.1-0.2-0.2
				c0-0.2,0.2-0.7,0.6-1.6c0.4-0.9,0.7-1.4,0.9-1.6s0.4-0.4,0.8-0.6c0.2-0.2,0.6-0.4,1-0.6l0.5-0.3c0-0.1,0-0.2,0-0.3
				c0-0.1,0-0.2,0-0.3c0-0.2,0.1-0.5,0.2-0.9c0.1-0.4,0.3-0.8,0.6-1.3l0.9,5.8c0.1,0.9,0.3,1.5,0.6,1.8c0.1,0.2,0.4,0.3,0.6,0.3h1.2
				L44.5,27.7L44.5,27.7z M42.4,14.6l-1,1.7l-1.3-0.7l-0.7,1.5l-1.7-0.9l1-1.6l1.4,0.7l0.8-1.4L42.4,14.6z M40.9,22.4l-0.2-1.1
				c-0.2,0.1-0.4,0.2-0.5,0.2c-0.3,0.2-0.6,0.3-0.8,0.5c-0.1,0.1-0.3,0.2-0.4,0.3c-0.1,0.1-0.2,0.2-0.2,0.3c0,0.1,0.1,0.2,0.3,0.2
				s0.4,0.1,0.6,0.1c0.1,0,0.3,0,0.4-0.1C40.5,22.8,40.7,22.6,40.9,22.4z"/>
			<path class="st0" d="M56.1,27.7c-0.7,0-1.3,0-1.7-0.1S53.5,27.3,53,27c-0.4,0.3-0.7,0.4-1,0.5s-0.7,0.1-1.3,0.1h-1.5
				c-0.4,0-0.7-0.1-1-0.3c-0.2-0.2-0.5-0.6-0.7-1.1c-0.3,0.5-0.7,0.9-1.1,1.1c-0.4,0.2-0.8,0.3-1.3,0.3h-1.3v-2.5h1.3
				c0.6,0,1.2-0.2,1.6-0.5c0.6-0.5,0.8-1.2,0.8-2.2l0.6,0.1c0,0.2,0,0.4,0,0.7c0,0.3,0,0.5,0,0.8s0.1,0.6,0.3,0.8s0.5,0.3,0.7,0.3
				h1.1c0.8,0,1.3-0.1,1.6-0.3c0.4-0.3,0.6-0.7,0.6-1.4c0-0.1,0-0.3,0.1-0.4s0.2-0.2,0.3-0.3l0.4-0.3c0,0.1,0,0.3,0,0.5s0,0.3,0,0.4
				c0,0.3,0,0.8-0.1,1.4c0.2,0.1,0.5,0.2,0.8,0.3c0.3,0.1,0.6,0.1,0.9,0.2c0-0.2-0.1-0.5-0.2-0.8c-0.2-0.3-0.2-0.6-0.2-0.7
				c0-0.2,0-0.3,0.1-0.4c0,0,0.1-0.1,0.2-0.3l0.8-1.1c0.2,0.4,0.3,0.7,0.4,1.1c0.1,0.3,0.1,0.7,0.1,1.2v3.5H56.1z"/>
			<path class="st0" d="M64,27.6c-0.6,0-1.4-0.1-2.3-0.4c-0.8-0.2-1.5-0.5-2-0.8c-0.4,0.5-0.8,0.9-1.3,1.1c-0.3,0.1-0.6,0.1-1,0.1
				h-1.8v-2.5h1.8c0.6,0,1-0.1,1.3-0.2c0.4-0.2,0.7-0.5,0.9-0.9c0.4-0.8,0.8-1.4,1.4-1.9c0.5-0.5,0.9-0.7,1.2-0.7s0.7,0.5,1.2,1.4
				c0.5,1,0.7,1.9,0.7,2.8v2H64z M62.3,24.8c0-0.1-0.1-0.4-0.4-0.7c-0.3-0.4-0.6-0.6-0.8-0.6s-0.4,0.3-0.6,0.8
				c0.3,0.1,0.6,0.2,0.7,0.3c0.5,0.2,0.8,0.3,0.8,0.3C62.2,25,62.3,24.9,62.3,24.8z"/>
			<path class="st0" d="M73.9,27.7H63.3v-2.5h6.6c-0.7-0.8-1.4-1.3-2.1-1.7c-0.6-0.3-1.1-0.5-1.7-0.5c-0.2,0-0.3,0-0.4,0
				s-0.3,0.1-0.6,0.1c0.3-0.8,0.7-1.4,1.1-1.7c0.4-0.4,0.9-0.6,1.4-0.6c0.4,0,0.8,0.1,1.2,0.3c0.4,0.2,0.8,0.5,1.3,1
				c0.4,0.3,0.9,0.9,1.6,1.6c0.5,0.5,0.8,0.9,1.1,1s0.6,0.3,1.1,0.4V27.7z M70.2,17.8l-1.1,2.1l-2.2-1.1l1.1-2.1L70.2,17.8z"/>
			<path class="st0" d="M78.4,27.7h-5.1v-2.5h4l-1.1-6.3l-0.6-0.4c0-0.4,0.1-0.7,0.2-1.1c0.1-0.5,0.4-1,0.7-1.7l0.4,0.2
				c0,0,0,0.1,0,0.3c0,0.2,0.1,0.4,0.4,0.6c0.2,0.2,0.6,0.4,1.1,0.6c-0.1,0.4-0.1,0.8-0.2,1.2c-0.1,0.4-0.2,0.7-0.4,1l-0.3-0.1
				l1,5.7L78.4,27.7L78.4,27.7z"/>
			<path class="st0" d="M81.8,25c0,0.6-0.1,1.1-0.2,1.5c-0.1,0.5-0.4,1.1-0.8,1.8l-0.6-0.2c0.1-0.8,0.2-1.4,0.2-1.9
				c0-0.4,0-0.9-0.1-1.7s-0.1-1.5-0.2-2.2s-0.2-1.6-0.5-2.6c-0.1-0.3-0.1-0.6-0.1-0.7c0-0.2,0.1-0.5,0.3-1c0.2-0.5,0.5-1,0.8-1.7
				l0.6,3.3c0.2,1.2,0.3,2.3,0.4,3.2C81.8,23.6,81.8,24.3,81.8,25z"/>
			<path class="st0" d="M95.8,24.1l-0.7,2.1c-1,0.2-1.7,0.5-2.4,0.8c-0.6,0.3-1.1,0.6-1.6,1.1c-0.3,0.3-0.8,0.8-1.4,1.4l-0.6-0.2
				c0-0.4,0.1-0.8,0.3-1.2c0.2-0.3,0.4-0.7,0.9-1.3c-0.6-0.6-1-1-1.2-1.3S89,25,89,24.7s0.2-0.9,0.7-1.8s0.9-1.4,1.2-1.8
				c0.3-0.3,0.7-0.5,1.2-0.5c0.4,0,0.8,0.1,1.2,0.3c0.3,0.2,0.7,0.5,1.1,1L93.1,24c-0.3-0.3-0.6-0.6-0.8-0.7s-0.5-0.2-0.7-0.2
				s-0.4,0.1-0.5,0.2c-0.2,0.1-0.2,0.2-0.2,0.4c0,0.2,0.1,0.4,0.4,0.6s0.7,0.5,1.3,0.8c0.8-0.4,1.4-0.6,1.8-0.7
				C94.7,24.2,95.2,24.1,95.8,24.1z"/>
			<path class="st0" d="M101.1,27.7h-1.3c-0.7,0-1.2-0.3-1.6-0.9c-0.4-0.7-0.5-1.8-0.5-3.3v-2.6c0-0.6-0.1-1.1-0.3-1.4
				c-0.1-0.2-0.3-0.4-0.6-0.7l1-2.3c0.4,0.5,0.6,1,0.8,1.5c0.2,0.6,0.3,1.3,0.3,2.2V22c0,1.3,0.1,2.2,0.3,2.7
				c0.1,0.4,0.4,0.6,0.6,0.6h1.3C101.1,25.3,101.1,27.7,101.1,27.7z"/>
			<path class="st0" d="M109,27.6c-0.6,0-1.4-0.1-2.3-0.4c-0.8-0.2-1.5-0.5-2-0.8c-0.4,0.5-0.8,0.9-1.3,1.1c-0.3,0.1-0.6,0.1-1,0.1
				h-1.8v-2.5h1.8c0.6,0,1-0.1,1.3-0.2c0.4-0.2,0.7-0.5,0.9-0.9c0.4-0.8,0.8-1.4,1.4-1.9c0.5-0.5,0.9-0.7,1.2-0.7
				c0.3,0,0.7,0.5,1.2,1.4c0.5,1,0.7,1.9,0.7,2.8L109,27.6L109,27.6z M107.3,24.8c0-0.1-0.1-0.4-0.4-0.7c-0.3-0.4-0.6-0.6-0.8-0.6
				c-0.2,0-0.4,0.3-0.6,0.8c0.3,0.1,0.6,0.2,0.7,0.3c0.5,0.2,0.8,0.3,0.8,0.3C107.2,25,107.3,24.9,107.3,24.8z"/>
			<path class="st0" d="M120.6,27.7c-0.7,0-1.3,0-1.7-0.1s-0.9-0.3-1.4-0.5c-0.4,0.3-0.7,0.4-1,0.5s-0.7,0.1-1.3,0.1h-1.5
				c-0.4,0-0.7-0.1-1-0.3c-0.2-0.2-0.5-0.6-0.7-1.1c-0.3,0.5-0.7,0.9-1.1,1.1s-0.8,0.3-1.3,0.3h-1.3v-2.5h1.3c0.6,0,1.2-0.2,1.6-0.5
				c0.6-0.5,0.8-1.2,0.8-2.2l0.6,0.1c0,0.2,0,0.4,0,0.7c0,0.3,0,0.5,0,0.8s0.1,0.6,0.3,0.8s0.5,0.3,0.7,0.3h1.1
				c0.8,0,1.3-0.1,1.6-0.3c0.4-0.3,0.6-0.7,0.6-1.4c0-0.1,0-0.3,0.1-0.4s0.2-0.2,0.3-0.3l0.4-0.3c0,0.1,0,0.3,0,0.5s0,0.3,0,0.4
				c0,0.3,0,0.8-0.1,1.4c0.2,0.1,0.5,0.2,0.8,0.3c0.3,0.1,0.6,0.1,0.9,0.2c0-0.2-0.1-0.5-0.2-0.8c-0.2-0.3-0.2-0.6-0.2-0.7
				c0-0.2,0-0.3,0.1-0.4c0,0,0.1-0.1,0.2-0.3L120,22c0.2,0.4,0.3,0.7,0.4,1.1c0.1,0.3,0.1,0.7,0.1,1.2L120.6,27.7L120.6,27.7z"/>
			<path class="st0" d="M129.5,17.8c0,0.4,0,0.9-0.1,1.3c0,0.2-0.1,0.5-0.3,1l-0.7-0.3c0,0.7-0.1,1.5-0.3,2.2s-0.5,1.4-0.8,2.1
				c0.3,0.6,0.5,1,0.6,1.1c0.1,0.3,0.2,0.5,0.2,0.8v0.3c0,0.2,0,0.8-0.1,1.9c-0.7,0.3-1.3,0.6-1.9,0.6c-0.6,0.1-1.4,0.1-2.5,0.1
				v-2.7c0.6-0.3,1.1-0.6,1.3-0.8c0.3-0.2,0.6-0.6,1.1-1.1c-0.7-0.9-1.2-1.5-1.5-1.9c-0.3-0.3-0.6-0.6-1-1c-0.1,0.2-0.2,0.3-0.2,0.4
				s-0.1,0.1-0.1,0.1c-0.1,0-0.4-0.1-0.8-0.4c-0.4-0.2-0.6-0.4-0.8-0.6c-0.2-0.2-0.3-0.5-0.4-1S121,18.8,121,18c0-0.3,0-0.6,0.1-0.7
				c0-0.1,0.1-0.2,0.3-0.2c0.2,0,0.7,0.3,1.5,1c0.6,0.6,1.2,1.2,1.7,1.8c0.4,0.4,0.7,0.9,1.1,1.3c0.3,0.4,0.7,1,1.3,1.9
				c0.3-0.5,0.5-1.2,0.6-2c0.1-0.5,0.1-1.1,0.1-1.8c-0.2-0.1-0.4-0.2-0.5-0.3c-0.1-0.1-0.1-0.2-0.1-0.4c0-0.4,0-0.7,0.1-1.1
				s0.2-0.8,0.4-1.2l0.4,0.1c0,0.4,0.1,0.7,0.3,0.8C128.2,17.4,128.7,17.5,129.5,17.8z M123.7,15.2c-0.1,0.2-0.1,0.3-0.2,0.4
				c-0.1,0.1-0.2,0.1-0.3,0.2l-2,0.6c0.1-0.2,0.2-0.4,0.3-0.5c0.1-0.1,0.3-0.2,0.5-0.3c-0.2-0.1-0.3-0.2-0.4-0.3s-0.1-0.2-0.1-0.3
				s0-0.2,0.1-0.3c0-0.1,0.1-0.2,0.2-0.3c0.4-0.5,0.8-0.8,1.2-0.8c0.1,0,0.2,0,0.3,0.1s0.1,0.2,0.1,0.3s0,0.2,0,0.3
				s-0.1,0.2-0.2,0.3c-0.3-0.2-0.5-0.2-0.6-0.2s-0.2,0-0.3,0.1c-0.1,0-0.1,0.1-0.2,0.1c0,0.1,0.1,0.2,0.4,0.4s0.5,0.3,0.6,0.3
				C123.1,15.3,123.3,15.3,123.7,15.2z M127.1,25.9l-0.4-0.7c-0.3,0.3-0.5,0.5-0.6,0.6s-0.4,0.3-0.8,0.6c0.5,0,0.8-0.1,1-0.2
				C126.5,26.2,126.8,26.1,127.1,25.9z"/>
			<path class="st0" d="M133.3,25c0,0.6-0.1,1.1-0.2,1.5c-0.1,0.5-0.4,1.1-0.8,1.8l-0.6-0.2c0.1-0.8,0.2-1.4,0.2-1.9
				c0-0.4,0-0.9-0.1-1.7s-0.1-1.5-0.2-2.2c-0.1-0.7-0.2-1.6-0.5-2.6c-0.1-0.3-0.1-0.6-0.1-0.7c0-0.2,0.1-0.5,0.3-1s0.5-1,0.8-1.7
				l0.6,3.3c0.2,1.2,0.3,2.3,0.4,3.2C133.2,23.6,133.3,24.3,133.3,25z"/>
			<path class="st0" d="M139.9,34.4c0.5-1.1,0.9-1.9,1.1-2.5s0.4-1.3,0.6-2c0.2-0.8,0.3-1.5,0.4-2.2c0.1-0.7,0.1-1.4,0.1-2.1
				c0-1.5-0.2-2.9-0.5-4.2s-0.9-2.9-1.7-4.8h1.8c0.9,1.3,1.7,2.7,2.2,4.2s0.8,3,0.8,4.5c0,1.3-0.2,2.7-0.6,4.2
				c-0.5,1.7-1.2,3.3-2.3,4.9C141.8,34.4,139.9,34.4,139.9,34.4z"/>
		</g>
	</g>
</g>
<rect class="st1" width="170.6" height="46.9"/>
</svg>
