<?xml version="1.0" encoding="utf-8"?>
<!-- Generator: Adobe Illustrator 23.0.2, SVG Export Plug-In . SVG Version: 6.00 Build 0)  -->
<svg version="1.1" id="Layer_1" xmlns="http://www.w3.org/2000/svg" xmlns:xlink="http://www.w3.org/1999/xlink" x="0px" y="0px"
	 viewBox="0 0 36.6 28.6" style="enable-background:new 0 0 36.6 28.6;" xml:space="preserve">
<g>
	<g>
		<path d="M19,26.1c-1.1,0-3.5-0.4-5.3-2c-1.3-1.2-1.9-2.7-1.9-4.6c0-2.2,0.9-4.1,2.7-5.3c0.6-0.4,1.2-0.7,1.7-0.9
			c-0.6-0.3-1-0.6-1.3-1.1c-0.7-1-0.5-2-0.5-2.3c0.2-1.1,0.7-2,1.6-2.5c0.6-0.4,1.4-0.6,2.3-0.6c1.1,0,2.1,0.3,2.4,0.4
			s0.4,0.4,0.3,0.6c-0.1,0.3-0.4,0.4-0.6,0.3c-0.2-0.1-1.1-0.3-2.1-0.3c-0.7,0-1.3,0.1-1.8,0.4c-0.6,0.4-1,1-1.1,1.8
			c0,0.2-0.1,0.9,0.3,1.5c0.4,0.6,1.2,1,2.4,1.2c0.4,0.1,0.8,0.1,1.1,0.1h0.2c0.3,0,0.4,0,0.8,0c0.2,0,0.4,0.1,0.5,0.3
			c0,0.1,0,0.1,0.1,0.2c0,0.1,0,0.3-0.1,0.4s-0.2,0.2-0.4,0.2c-0.5,0-0.6,0-0.9,0h-0.2c-0.3,0-0.7-0.1-1.1-0.1
			c-0.5,0.1-1.7,0.4-2.9,1.2c-1.5,1-2.3,2.6-2.3,4.5c0,1.6,0.5,2.9,1.6,3.9c1.5,1.4,3.6,1.8,4.6,1.8c0.1,0,0.2,0,0.2,0h0.2
			c1.3-0.1,2.8-0.2,4.3-2.8c0.1-0.2,0.4-0.3,0.7-0.2c0.2,0.1,0.3,0.4,0.2,0.7c-1.7,3-3.8,3.2-5.1,3.3h-0.2
			C19.2,26.1,19.1,26.1,19,26.1z"/>
	</g>
	<circle cx="17.6" cy="3.3" r="1"/>
</g>
</svg>
