<?xml version="1.0" encoding="utf-8"?>
<!-- Generator: Adobe Illustrator 22.0.1, SVG Export Plug-In . SVG Version: 6.00 Build 0)  -->
<svg version="1.1" id="Layer_1" xmlns="http://www.w3.org/2000/svg" xmlns:xlink="http://www.w3.org/1999/xlink" x="0px" y="0px"
	 viewBox="0 0 86.2 86.2" style="enable-background:new 0 0 86.2 86.2;" xml:space="preserve">
<style type="text/css">
	.st0{fill:#235958;}
</style>
<g>
	<path class="st0" d="M66.3,48.3c0,2.1-0.2,3.8-0.6,4.9c-0.4,1.1-1.1,2.2-2.1,3.1c-3.5,3.2-8.6,5.6-15.2,7.4
		c-5.6,1.4-11.2,2.2-16.9,2.2c-4.5,0-8-0.9-10.8-2.6c-3.3-2.1-4.9-5.3-4.9-9.5c0-2.2,0.4-4.2,1.2-6c0.5-1.3,1.6-3,3.2-5.2l0.9,0.6
		c-1.3,2.5-2,4.4-2,5.6c0,2.7,1.9,4.8,5.8,6.1c2.8,1,5.8,1.5,9.2,1.5c7.7,0,14.6-1.2,20.8-3.5s9.3-4.9,9.3-7.8
		c0-0.9-0.4-2.2-1.1-3.9c-0.9,2.1-1.7,3.6-2.4,4.3c-1.1,1.2-2.5,1.8-4.3,1.8c-3.4,0-5.1-1.6-5.1-4.9c0-1.6,0.3-3.4,1-5.5
		c0.7-1.7,1.4-3.5,2.1-5.2c1.2-3.3,2.7-4.9,4.5-4.9c2.7,0,4.7,3,6.1,9C65.9,40.1,66.3,44.2,66.3,48.3z M57,20l-2.8,5.1l-4.9-3.8l3-5
		L57,20z M59.8,36.7c-1-1-1.9-1.4-2.7-1.4c-0.4,0-0.7,0.2-1.1,0.6c-0.3,0.4-0.5,0.8-0.5,1.1c0,1.1,0.6,1.7,1.8,1.7
		C58.3,38.7,59.2,38,59.8,36.7z"/>
</g>
</svg>
