<?xml version="1.0" encoding="utf-8"?>
<!-- Generator: Adobe Illustrator 22.0.1, SVG Export Plug-In . SVG Version: 6.00 Build 0)  -->
<svg version="1.1" id="Layer_1" xmlns="http://www.w3.org/2000/svg" xmlns:xlink="http://www.w3.org/1999/xlink" x="0px" y="0px"
	 viewBox="0 0 108.8 88.4" style="enable-background:new 0 0 108.8 88.4;" xml:space="preserve">
<style type="text/css">
	.st0{fill:#235958;}
	.st1{fill:#EF5316;}
</style>
<g>
	<path class="st0" d="M50.4,51c0,2.1-0.2,3.8-0.6,4.9c-0.3,1.1-1,2.1-2,3.1c-3.5,3.2-8.6,5.6-15.2,7.4c-5.6,1.4-11.2,2.2-16.9,2.2
		c-4.4,0-8-0.9-10.8-2.6C1.6,63.9,0,60.7,0,56.5c0-2.2,0.4-4.2,1.2-6c0.5-1.3,1.6-3,3.2-5.2L5.3,46c-1.3,2.5-2,4.4-2,5.6
		c0,2.7,1.9,4.8,5.8,6.1c2.8,1,5.8,1.5,9.2,1.5c7.7,0,14.6-1.2,20.8-3.5s9.3-4.9,9.3-7.8c0-0.9-0.4-2.2-1.1-3.9
		c-0.9,2.1-1.7,3.6-2.4,4.3c-1.1,1.2-2.5,1.8-4.3,1.8c-3.4,0-5.1-1.6-5.1-4.9c0-1.6,0.3-3.4,1-5.5c0.7-1.7,1.4-3.5,2.1-5.2
		c1.2-3.3,2.7-4.9,4.5-4.9c2.7,0,4.7,3,6.1,9C50,42.7,50.4,46.8,50.4,51z M41.1,22.7l-2.8,5.1L33.4,24l3-5L41.1,22.7z M43.8,39.4
		c-1-1-1.9-1.4-2.7-1.4c-0.4,0-0.7,0.2-1.1,0.6c-0.3,0.4-0.5,0.8-0.5,1.1c0,1.1,0.6,1.7,1.8,1.7C42.4,41.3,43.2,40.7,43.8,39.4z"/>
	<path class="st0" d="M79.2,68.6h-3.9c-0.7,5-1.9,9.2-3.6,12.6c-2.5,4.8-5.7,7.2-9.8,7.2c-2.9,0-6.5-1.4-10.7-4.3l0.6-1
		c1.7,0.3,2.9,0.5,3.7,0.5c2.8,0,5.8-1.2,8.8-3.5c1.3-1,2.8-2.8,4.6-5.6c1.3-2.1,2.6-4.3,3.9-6.4c-2.4-0.8-4.1-2.8-5.3-5.9l4.5-6.6
		c1.5,3,3.2,4.5,5.1,4.5h2.1L79.2,68.6L79.2,68.6z"/>
	<path class="st1" d="M89.3,7.8c0,1.9-0.6,3.3-1.8,4L76.6,18c0-1.1,0.2-2,0.5-2.4c0.3-0.4,1-1,2-1.6L89.3,7.8z"/>
	<path class="st1" d="M108.8,51.6c0,5.5-3.4,9.9-10.1,13.1c-5.4,2.6-11.2,3.9-17.4,3.9h-3.1v-8.4h5.4c0.2-0.3,0.5-0.9,0.9-1.6
		c0.2-0.4,0.2-2,0.2-4.7s-0.6-6.7-1.6-12s-1.6-9.3-1.6-12.1c-0.4-0.5-0.7-1-0.8-1.4c0.8-3.2,2-5.2,3.6-6c0.1,1.9,0.9,3.5,2.3,4.9
		s3,1.9,4.9,1.6l-3.5,6l-1.4-0.7c-0.1,0.7-0.2,1.4-0.2,2c0,1,0.2,2.7,0.6,5.2s0.6,4.4,0.6,5.7c0,2.2-0.3,5.1-1,8.8
		c2.9-3.6,5-6,6.4-7.3c3.1-3,5.9-4.5,8.3-4.5c2.3,0,4.1,0.7,5.5,2.1C108.1,47.5,108.8,49.4,108.8,51.6z M105.1,55.1
		c0-0.9-0.6-1.7-1.7-2.3c-0.9-0.5-1.8-0.7-2.8-0.7c-2.2,0-4.5,0.9-7,2.7c-1,0.8-2.9,2.4-5.8,5.1c2.5,0,5.7-0.4,9.6-1.1
		C102.5,57.7,105.1,56.5,105.1,55.1z M99.8,35l-2.9,5.2L92,36.4l3-5.1L99.8,35z"/>
</g>
<g>
	<path class="st0" d="M70.9,42c0,1.6-0.5,3-1.6,4.2S66.8,48,65.2,48c-2.7,0-4-1.5-4-4.5c0-1.9,0.4-3.5,1.1-4.8
		c1-1.5,2.3-2.3,4.1-2.3c1.3,0,2.4,0.6,3.2,1.8C70.5,39.4,70.9,40.7,70.9,42z M68.8,43c0-0.6-0.5-1.3-1.6-2.1
		c-1.1-0.8-2-1.2-2.6-1.2c-0.6,0-1.1,0.3-1.6,0.8c-0.5,0.6-0.7,1.1-0.7,1.7c0,1.5,1.1,2.2,3.3,2.2C67.7,44.5,68.8,44,68.8,43z"/>
</g>
</svg>
