<?xml version="1.0" encoding="utf-8"?>
<!-- Generator: Adobe Illustrator 22.0.1, SVG Export Plug-In . SVG Version: 6.00 Build 0)  -->
<svg version="1.1" id="Layer_1" xmlns="http://www.w3.org/2000/svg" xmlns:xlink="http://www.w3.org/1999/xlink" x="0px" y="0px"
	 viewBox="0 0 86.2 86.2" style="enable-background:new 0 0 86.2 86.2;" xml:space="preserve">
<style type="text/css">
	.st0{fill:#235958;}
</style>
<g>
	<path class="st0" d="M38.4,20c0,1.6-0.6,3-1.6,4.3c-1.1,1.2-2.5,1.8-4.1,1.8c-2.7,0-4-1.5-4-4.5c0-1.9,0.4-3.5,1.1-4.8
		c1-1.6,2.3-2.3,4.1-2.3c1.3,0,2.4,0.6,3.3,1.8C38,17.4,38.4,18.7,38.4,20z M36.3,21c0-0.6-0.5-1.4-1.6-2.1c-1.1-0.8-2-1.2-2.7-1.2
		c-0.6,0-1.1,0.3-1.6,0.8c-0.5,0.6-0.7,1.1-0.7,1.7c0,1.5,1.1,2.3,3.3,2.3C35.3,22.5,36.3,22,36.3,21z"/>
</g>
<g>
	<polygon class="st0" points="49.6,22 44.7,18.3 41.7,23.3 46.5,27 	"/>
	<path class="st0" d="M54.6,50.9h-1.1h-0.4c-2.3,0-3.9-0.4-4.8-1.1c1.9-2.3,2.9-5,2.9-8.1c0-2.3-0.3-4.4-0.9-6.3
		c-0.8-2.7-2.1-4-3.8-4c-1,0-2.1,0.5-3.5,1.6c-2.1,1.7-3.9,3.9-5.5,6.8c-1.7,3-2.5,5.8-2.5,8.3c0,0.7,0.3,1.3,0.9,1.9
		c-1.1,0.6-2.9,1-5.5,1H18.1v8.4h12.4h2.1h0.6c2.3,0,5.2-1,8.7-3.1c2,2,5,3.1,9,3.1h2.7h1.1H68V51L54.6,50.9L54.6,50.9z M42.9,48
		c-2.7-2-4-3.6-4-4.8c0-1,0.6-1.8,1.7-2.4c1-0.6,2-0.9,3-0.9c1.3,0,2.4,0.4,3.3,1.2c0.9,0.8,1.4,1.9,1.4,3.1
		C48.3,45.7,46.5,47,42.9,48z"/>
</g>
</svg>
