<?xml version="1.0" encoding="utf-8"?>
<!-- Generator: Adobe Illustrator 22.0.1, SVG Export Plug-In . SVG Version: 6.00 Build 0)  -->
<svg version="1.1" id="Layer_1" xmlns="http://www.w3.org/2000/svg" xmlns:xlink="http://www.w3.org/1999/xlink" x="0px" y="0px"
	 viewBox="0 0 89.9 99.9" style="enable-background:new 0 0 89.9 99.9;" xml:space="preserve">
<style type="text/css">
	.st0{fill:#235958;}
	.st1{fill:#EF5316;}
</style>
<g>
	<path class="st0" d="M37.3,60h-3.7c-3.2,0-5.4-3.3-6.8-10.1c0,1.8,0.2,4.4,0.5,7.8c0.3,3.4,0.5,6,0.5,7.8c0,5.2-1.4,9.2-4.3,12.1
		c-2.8,2.8-6.9,4.3-12.1,4.3c-3.4,0-6.2-0.9-8.2-2.7C1.1,77.3,0,74.8,0,71.4c0-4.5,1.7-9.6,5-15.4l1.1,0.6c-2,3.8-3.1,6.9-3.1,9.2
		c0,4.5,3.3,6.7,9.8,6.7c8.4,0,12.6-2.5,12.6-7.5c0-2.1-0.2-4.6-0.6-7.6c-0.4-2.6-0.7-5.1-1-7.7c-0.2-1.3-0.3-3.7-0.5-7.2
		c-0.5-11.7-0.8-17.2-0.8-16.6c0-1.7,0.4-3.4,1.2-5c0.3-0.6,1.3-2.1,2.8-4.4c0.2,5.9,0.5,11.8,0.7,17.6c0.6,8.9,1.7,14.3,3.3,16.1
		c0.8,1,2.1,1.4,3.9,1.4h2.7L37.3,60L37.3,60z"/>
	<path class="st0" d="M60.4,60h-3.8c-4,0-7-1-9-3.1c-3.5,2-6.4,3.1-8.7,3.1h-2.7v-8.4c2.6,0,4.4-0.3,5.5-1c-0.6-0.6-0.9-1.2-0.9-1.9
		c0-2.5,0.8-5.3,2.5-8.3c1.6-2.8,3.4-5.1,5.5-6.8c1.3-1.1,2.5-1.6,3.5-1.6c1.7,0,3,1.3,3.8,4c0.6,1.9,0.9,4,0.9,6.3
		c0,3.1-1,5.8-2.9,8.1c0.9,0.8,2.5,1.1,4.8,1.1h1.5C60.4,51.5,60.4,60,60.4,60z M54,44.8c0-1.2-0.5-2.3-1.4-3.1
		c-0.9-0.8-2.1-1.2-3.3-1.2c-1,0-2,0.3-3,0.9c-1.1,0.6-1.7,1.4-1.7,2.4c0,1.2,1.3,2.8,4,4.8C52.2,47.7,54,46.5,54,44.8z M55.3,22.6
		l-3,5L47.4,24l3.1-5.1L55.3,22.6z"/>
	<path class="st1" d="M82.2,61.1c0,1.8-0.6,3.1-1.9,3.8l-10.9,6.3c0-1.2,0.1-2,0.4-2.4c0.3-0.5,1-1,2.1-1.6L82.2,61.1z"/>
	<path class="st1" d="M89.9,43c0,5.5-3.4,9.9-10.1,13.1c-5.4,2.6-11.2,3.9-17.4,3.9h-3.1v-8.4h5.4c0.2-0.3,0.5-0.9,0.9-1.6
		c0.2-0.4,0.2-2,0.2-4.7s-0.6-6.7-1.6-12c-1.1-5.3-1.6-9.3-1.6-12.1c-0.4-0.5-0.7-1-0.8-1.4c0.8-3.2,2-5.2,3.6-6
		c0.1,1.9,0.9,3.5,2.3,4.9s3,1.9,4.9,1.6l-3.5,6.1l-1.4-0.7c-0.1,0.7-0.2,1.4-0.2,2c0,1,0.2,2.7,0.6,5.2s0.6,4.4,0.6,5.7
		c0,2.2-0.3,5.1-1,8.8c2.9-3.6,5-6,6.4-7.4c3.1-3,5.9-4.5,8.3-4.5c2.3,0,4.1,0.7,5.5,2.1C89.2,39,89.9,40.8,89.9,43z M86.2,46.5
		c0-0.9-0.6-1.7-1.7-2.3c-0.9-0.5-1.8-0.7-2.8-0.7c-2.2,0-4.5,0.9-7,2.7c-1,0.8-2.9,2.4-5.8,5.1c2.5,0,5.7-0.4,9.6-1.1
		C83.6,49,86.2,47.8,86.2,46.5z"/>
</g>
<g>
	<path class="st0" d="M54.1,7.8c0,1.6-0.6,3-1.6,4.3c-1.1,1.2-2.5,1.8-4.1,1.8c-2.7,0-4-1.5-4-4.5c0-1.9,0.4-3.5,1.1-4.8
		c1-1.6,2.3-2.3,4.1-2.3c1.3,0,2.4,0.6,3.3,1.8C53.7,5.2,54.1,6.5,54.1,7.8z M52,8.8c0-0.6-0.5-1.4-1.6-2.1c-1.1-0.8-2-1.2-2.7-1.2
		c-0.6,0-1.1,0.3-1.6,0.8c-0.5,0.6-0.7,1.1-0.7,1.7c0,1.5,1.1,2.3,3.3,2.3C51,10.3,52,9.8,52,8.8z"/>
</g>
</svg>
