<?xml version="1.0" encoding="utf-8"?>
<!-- Generator: Adobe Illustrator 19.2.0, SVG Export Plug-In . SVG Version: 6.00 Build 0)  -->
<svg version="1.1" id="Layer_1" xmlns="http://www.w3.org/2000/svg" xmlns:xlink="http://www.w3.org/1999/xlink" x="0px" y="0px"
	 viewBox="0 0 296.4 71.5" style="enable-background:new 0 0 296.4 71.5;" xml:space="preserve">
<style type="text/css">
	.st0{fill:#C1272D;}
</style>
<g>
	<path class="st0" d="M11.9,27.3c0.1,0,0.1,0,0.1,0c0,0.5-0.2,1-0.5,1.2l-3.7,2.1c-0.1,0-0.1,0-0.1,0c0-0.3,0.1-0.7,0.2-0.9
		c0.1-0.2,0.3-0.3,0.6-0.5L11.9,27.3z"/>
	<path class="st0" d="M0,24c0-1.3,0.7-2.8,1.1-3.4c0.2-0.3,0.4-0.5,0.6-0.5c0.1,0,0.1,0,0.1,0.1c0,0.1-0.1,0.3-0.2,0.6
		c-0.4,0.8-0.8,1.5-0.8,2.4c0,1.7,2,2.6,3.5,2.6c2.4,0,5-0.9,5.7-2.2c0.1-0.1,0.1-0.3,0.1-0.4c0-1-0.3-2.3-0.9-3.3
		c0-0.1-0.1-0.2-0.1-0.3c0-0.7,0.5-1.8,0.6-2c0,0,0.1-0.1,0.1-0.1c0.1,0,0.1,0.1,0.2,0.2c0.1,0.3,0.3,0.7,0.7,1
		c0.2,0.1,0.8,0.6,1.5,0.7c1.7-2.2,5-4.9,6.4-4.9c0.5,0,1.2,0.2,1.7,0.6c0.5,0.3,0.9,0.7,0.9,1.4c0,0.7-0.4,2-1,2.8
		c-1.1,1.3-4.4,2.3-7,2.3c-0.8,0-1.6-0.1-2.4-0.4c0,2.1-0.1,2.3-0.4,3c-0.4,1-0.8,1.6-1.8,2.3C7.7,27.5,6.2,28,3.9,28
		C1.7,28,0,26.5,0,24z M14.1,12.4c0.1,0,0.1,0.1,0,0.2c-0.2,0.3-0.9,1.1-1.3,1.5c-0.1,0.1-0.1,0.1-0.2,0c-0.4-0.2-1.3-0.9-1.6-1.3
		c-0.1-0.1-0.1-0.1,0-0.2c0.3-0.5,0.8-1,1.2-1.4c0.2-0.2,0.2-0.2,0.3-0.1C12.8,11.4,13.5,12,14.1,12.4z M20.1,18.1
		c0-0.5-1.4-1.3-2.2-1.3c-1.3,0-3.5,1.6-4.7,2.9c0.2,0,0.4,0,0.6,0C16.3,19.7,19.4,18.7,20.1,18.1C20.1,18.1,20.1,18.1,20.1,18.1z"
		/>
	<path class="st0" d="M26.7,28.1c0.1,0,0.1,0,0.1,0c0,0.5-0.2,1-0.5,1.2l-3.7,2.1c-0.1,0-0.1,0-0.1,0c0-0.3,0.1-0.7,0.2-0.9
		c0.1-0.2,0.3-0.3,0.6-0.5L26.7,28.1z"/>
	<path class="st0" d="M27.1,21.1c0,3-1.4,5.4-3.7,6.3c-0.1,0.1-0.3,0.1-0.6,0.1c-0.8,0-2.5-0.4-3.6-1c-0.3-0.1-0.3-0.2-0.3-0.3
		c0-0.1,0.1-0.1,0.3-0.1c0.3,0,0.9,0.1,1.6,0.1c0.6,0,1.1-0.1,1.9-0.5c1-0.4,2.9-2,3.4-3.4c0.1-0.2,0.1-0.5,0.1-0.6
		c0-0.1,0-0.9-0.9-2.1c-0.3-0.4-0.5-0.7-0.7-1.1c0-0.1-0.1-0.1-0.1-0.2c0-0.3,0.4-1.2,0.5-1.5c0.1-0.1,0.1-0.2,0.2-0.2
		c0.4,0,1.2,1.5,1.6,2.8C27.1,19.9,27.1,20.4,27.1,21.1z"/>
	<path class="st0" d="M32.4,21.8c-0.6,0-1.1-0.1-1.5-0.4c-0.6-0.5-1-1.5-1.1-2.8c-0.1-1-0.2-2.1-0.3-3.3c-0.1-1.8-0.2-4.6-0.5-6.2
		c0-0.1,0-0.2,0-0.2c0-0.1,0-0.2,0.1-0.4c0.3-0.4,0.5-0.7,0.6-1.1c0.1-0.3,0.2-0.3,0.3-0.3c0.1,0,0.2,0.2,0.2,0.6
		c0.4,3.1,0.1,7.5,0.5,9.9c0.1,0.6,0.2,0.8,0.3,1.2c0.2,0.5,0.7,0.8,1.3,0.9c0.7,0,1.1,0.3,1.1,1c0,0.8-0.4,1.1-1,1.1H32.4z"/>
	<path class="st0" d="M41.6,19.7c0.6,0,0.9,0.3,0.9,1c0,0.7-0.3,1.1-0.9,1.1h-0.2c-0.9,0-1.7-0.3-2.5-0.7c-0.7-0.4-1-0.8-1.5-1.5
		c-1.1,0.9-1.9,1.5-2.6,1.8c-0.7,0.3-1.5,0.4-2.5,0.4c-0.7,0-1-0.4-1-1c0-0.7,0.3-1,1-1h0.2c1.6,0,2.6-0.3,4-1
		c-0.4-0.6-1.5-0.9-2.1-1c-0.1,0-0.1-0.2-0.1-0.4c0-0.5,0.2-1.2,0.4-1.4c0.9-0.7,1.8-1,2.7-1c0.9,0,1.7,0.3,2.3,1
		c0.1,0.1,0.2,0.4,0.2,0.7c0,0.6-0.4,1.5-1.1,2.1c0.7,0.7,1.5,1.1,2.3,1.1H41.6z"/>
	<path class="st0" d="M43.6,20.8c-0.5,0.6-1,0.9-2,0.9h-0.2c-0.6,0-0.9-0.4-0.9-1.1c0-0.6,0.3-1,0.9-1h0.2c0.5,0,0.9-0.1,1.3-0.2
		c0.3-0.1,0.5-0.2,0.6-0.4c0-1.5-0.6-4.8-0.8-7.9c0-0.4-0.3-1.5-0.3-1.9c0-0.1,0-0.1,0-0.2c0-0.2,0.3-0.8,0.5-1.2
		c0.2-0.5,0.5-0.8,0.6-0.8c0.1,0,0.1,0.1,0.2,0.2c0.2,0.9,0.5,1.3,0.7,1.6c0,0.1,0.1,0.2,0.1,0.3c0,0,0,0.1,0,0.1
		c-0.1,0.2-0.3,0.7-0.5,1c0.1,3,0.6,5.5,0.6,7C44.5,18.7,44.2,19.9,43.6,20.8z"/>
	<path class="st0" d="M48.6,21.8c-0.1,0-0.1-0.1-0.1-0.6c0-2.7-1-10.1-1-11.4c0-0.6,0.4-1.5,0.8-2.2c0.1-0.2,0.3-0.5,0.4-0.5
		c0.1,0,0.1,0.2,0.2,0.7c0.1,1.9,0.6,6.5,0.6,9.8c0,1.3-0.1,2.4-0.3,3.1C48.9,21.4,48.7,21.8,48.6,21.8z"/>
	<path class="st0" d="M65.7,24.5c0.1,0,0.1,0,0.1,0c0,0.5-0.2,1-0.5,1.2l-3.7,2.1c-0.1,0-0.1,0-0.1,0c0-0.3,0.1-0.7,0.2-0.9
		c0.1-0.2,0.3-0.3,0.6-0.5L65.7,24.5z"/>
	<path class="st0" d="M58,22.4c-0.8-0.7-1.2-1.8-1.2-3c0-1.3,0.8-2.9,1.2-3.5c0.2-0.3,0.3-0.4,0.4-0.4c0.1,0,0.1,0.1,0.1,0.1
		c0,0.1-0.1,0.3-0.1,0.5c-0.4,0.8-0.8,1.6-0.8,2.6c0,0.8,0.5,1.4,1.2,1.9c0.7,0.5,1.5,0.7,2.4,0.7c2.2,0,5.1-0.9,5.7-2.4
		c0-0.1,0-0.3,0-0.4c0-1-0.3-2-0.8-2.8c-0.2-0.3-0.4-0.6-0.4-0.7c0,0,0-0.1,0-0.1c0-0.2,0.1-0.4,0.1-0.7c0.1-0.4,0.2-0.7,0.4-1
		c0.1-0.1,0.1-0.2,0.2-0.2c0,0,0.1,0,0.2,0.2c0.6,1.3,1.1,2.6,1.1,4.2c0,1.2-0.1,2-0.3,2.4c-0.3,0.8-0.5,1.2-1,1.6
		c-0.4,0.4-1.2,1.1-2.2,1.5c-1,0.4-2.2,0.6-3.7,0.6C59.7,23.3,58.8,23.1,58,22.4z M63.8,10c0.1,0,0.1,0.1,0,0.2
		c-0.2,0.3-0.9,1.1-1.3,1.5c-0.1,0.1-0.1,0.1-0.2,0c-0.4-0.2-1.3-0.9-1.5-1.3c-0.1-0.1-0.1-0.1,0-0.2c0.3-0.5,0.8-1,1.2-1.4
		c0.2-0.2,0.2-0.2,0.3-0.1C62.6,9.1,63.2,9.6,63.8,10z"/>
	<path class="st0" d="M66.9,27.1c-0.3-0.1-0.4-0.3-0.4-0.4c0-0.1,0.1-0.1,0.3-0.1c0.2,0,1,0.2,1.6,0.2c0.6,0,1.1-0.1,1.9-0.5
		c2.1-1.1,3.5-2.7,3.5-3.7c0-0.2,0-0.3-0.1-0.6h-0.7c-0.5,0-1.3-0.1-1.9-0.4c-0.6-0.3-0.9-0.8-0.9-1.4c0-0.5,0.2-1.3,0.5-2
		c0.5-1.1,1.1-2,1.7-2c0.6,0,1.2,0.4,1.6,1c0.4,0.7,0.6,1.6,0.7,2.5h0.9c0.6,0,0.8,0.3,0.8,0.9c0,0.7-0.3,1.1-0.8,1.1l-0.9,0
		c-0.1,3.1-1.2,5.2-3.7,6.1c-0.1,0-0.3,0.1-0.6,0.1C69.6,28,68.1,27.6,66.9,27.1z M72.5,18.4c-0.1-0.1-0.3-0.2-0.5-0.2
		c-0.4,0-0.7,0.5-0.7,0.7c0,0.2,0.2,0.4,0.7,0.6c0.4,0.1,0.8,0.2,1,0.2c0.1,0,0.2,0,0.2-0.1C73.2,19.4,72.9,18.8,72.5,18.4z"/>
	<path class="st0" d="M86.2,5.5c0.1,0,0.1,0,0.1,0.1c0,0.3-0.4,1.2-0.6,1.5c0,0.1-0.1,0.1-0.1,0.1c-0.7,0.3-4.4,1.8-7.2,3.5
		c-0.5,0.3-1.1,0.7-1.5,1.1c0.6,0.6,1.5,1.2,2.1,1.7c2,1.6,3.3,2.6,4.9,4.2c1.4,1.4,2.3,2,2.7,2h0.3c0.5,0,0.8,0.3,0.8,1
		c0,0.7-0.3,1.1-0.8,1.1h-0.4c-0.5,0-1.2-0.3-1.9-0.9c-0.5-0.4-1.1-1-2-1.9c-0.9-0.9-1.5-1.5-2-1.8c0,0.4,0.1,0.7,0.1,1
		c0,0.6-0.1,1.1-0.3,1.6c-0.3,0.6-0.8,1.1-1.6,1.4c-1.1,0.4-2.1,0.5-3.1,0.5h-0.2c-0.5,0-0.8-0.4-0.8-1.1c0-0.6,0.3-1,0.9-1
		c0.8,0,1.9-0.1,3.1-0.4c0.8-0.2,1.3-0.5,1.4-1c-0.1-1-1.2-2.3-3.2-4.1c-0.4-0.4-0.6-0.8-0.6-1.2c0-1.6,0.2-2.1,0.5-2.4
		c0.8-0.8,1.5-1.3,2.3-1.8C81.7,7.1,85.7,5.6,86.2,5.5C86.1,5.5,86.2,5.5,86.2,5.5z"/>
	<path class="st0" d="M91.9,14.5c0,0-0.1,0-0.1,0c-0.2,0-0.5-0.1-0.7-0.3c-0.2-0.3-0.3-0.6-0.3-1.1c0-0.2,0-0.4,0.1-0.7
		c0.1-0.2,0.2-0.6,0.5-0.6c0.1,0,0.1,0.1,0.1,0.4c0,0.1,0,0.3,0,0.3c0,0.3,0.2,0.5,0.6,0.5h0c0.4,0,0.7-0.3,0.8-0.8
		c0.1-0.2,0.3-0.9,0.6-0.9c0.1,0,0.2,0.1,0.2,0.3v0.1c0,0.2,0.1,0.4,0.3,0.4c0,0,0.1,0,0.1,0c0.3-0.1,0.6-0.3,0.7-0.7
		c0.1-0.5,0.2-0.7,0.4-0.7c0.1,0,0.2,0.1,0.2,0.2c0,0.1,0,0.3,0,0.5c0,0.4-0.1,0.7-0.2,1.1c-0.2,0.5-0.6,0.9-1.3,0.9
		c-0.2,0-0.4-0.1-0.5-0.2c-0.1,0-0.1,0-0.2,0C92.7,14.1,92.3,14.4,91.9,14.5z M94.7,7.2c0,0.1,0,0.2,0,0.3c0,0.4-0.1,0.7-0.2,1.1
		c0.2,0.1,0.2,0.2,0.3,0.3c0,0.3-0.1,0.5-0.3,0.8l-0.4-0.3c-0.5,0.7-0.9,1.2-1.2,1.4c-0.3,0.2-0.8,0.4-1.5,0.4
		c-0.4,0-0.4-0.1-0.3-0.1c1.2-0.7,2-1.4,2.4-1.9c-0.3-0.2-0.8-0.5-0.8-1c0-0.3,0.1-0.6,0.5-1c0.3-0.4,0.6-0.6,0.9-0.6
		C94.5,6.5,94.7,6.9,94.7,7.2z M93.4,7.8C93.5,8,93.7,8.1,94,8.3c0.1-0.1,0.1-0.3,0.1-0.5c0-0.2-0.1-0.3-0.3-0.3
		C93.7,7.4,93.5,7.5,93.4,7.8z"/>
	<path class="st0" d="M94.4,17.7c0.1,0,0.2,0.1,0.2,0.4c0,0.1,0,0.2,0,0.4c0,0.6,0.5,1,1.1,1c0.9,0,1.4-0.9,1.7-1.6
		c0-0.1,0.1-0.3,0.3-0.3c0.1,0,0.2,0.1,0.2,0.6c0.1,0.9,0.6,1.5,1.4,1.5h0.3c0.6,0,1,0.3,1,0.9c0,0.7-0.3,1.1-1,1.1h-0.3
		c-1.2,0-1.7-0.6-1.9-1.7c-0.3,0.8-1,1.7-2,1.7c-0.9,0-1.4-0.8-1.5-1.7c-0.4,1-1.4,1.7-2.4,1.7c-1.1,0-1.8-0.4-2.1-1.4
		c-0.1,0.4-0.4,0.7-0.7,1c-0.3,0.3-1,0.4-1.9,0.4h-0.2c-0.6,0-0.9-0.4-0.9-1.1c0-0.6,0.3-1,0.9-1h0.3c1.4,0,2.4-0.5,2.8-1.5
		c0-0.1,0.2-0.3,0.3-0.3c0.1,0,0.2,0.2,0.2,0.5c0,0.8,0.7,1.2,1.6,1.2c1.1,0,1.9-0.5,2.5-1.6C94.2,17.9,94.3,17.7,94.4,17.7z"/>
	<path class="st0" d="M101.4,20.8c-0.5,0.6-1.1,0.9-2,0.9h-0.2c-0.6,0-0.9-0.4-0.9-1.1c0-0.6,0.3-1,0.9-1h0.2c0.5,0,0.9-0.1,1.3-0.2
		c0.3-0.1,0.5-0.2,0.6-0.4c0-1.5-0.6-4.8-0.8-7.9c0-0.4-0.3-1.5-0.3-1.9c0-0.1,0-0.1,0-0.2c0-0.2,0.3-0.8,0.5-1.2
		c0.2-0.5,0.5-0.8,0.6-0.8c0.1,0,0.1,0.1,0.2,0.2c0.2,0.9,0.5,1.3,0.7,1.6c0,0.1,0.1,0.2,0.1,0.3c0,0,0,0.1,0,0.1
		c-0.1,0.2-0.3,0.7-0.5,1c0.1,3,0.6,5.5,0.6,7C102.3,18.7,102,19.9,101.4,20.8z"/>
	<path class="st0" d="M106.4,21.8c-0.1,0-0.1-0.1-0.1-0.6c0-2.7-1-10.1-1-11.4c0-0.6,0.4-1.5,0.8-2.2c0.1-0.2,0.3-0.5,0.4-0.5
		c0.1,0,0.1,0.2,0.2,0.7c0.1,1.9,0.6,6.5,0.6,9.8c0,1.3-0.1,2.4-0.3,3.1C106.8,21.4,106.6,21.8,106.4,21.8z"/>
	<path d="M124.4,9.9c0.1,0,0.1,0,0.1,0c0,0.5-0.2,1-0.5,1.2l-3.7,2.1c-0.1,0-0.1,0-0.1,0c0-0.3,0.1-0.7,0.2-0.9
		c0.1-0.2,0.3-0.3,0.6-0.5L124.4,9.9z"/>
	<path d="M117.3,19.4c0.9,0.4,2.3,0.6,4.1,0.6c2.6,0,4.6-0.4,6-0.8c1.8-0.5,2.7-0.8,3.7-1.6c0,0,0.2-0.1,0.2-0.1
		c0.1,0,0.1,0.1,0.1,0.4c0,1.1,0.6,1.7,1.3,1.7h0.3c0.5,0,0.8,0.3,0.8,1c0,0.7-0.3,1.1-0.8,1.1h-0.4c-1.3,0-2-0.7-2.3-2
		c-0.9,0.5-2.2,1.1-3.3,1.4c-1.8,0.5-3.7,1-5.9,1c-1.8,0-3.4-0.3-4.4-0.7c-1.3-0.5-1.9-1.3-1.9-2.7c0-1.2,0.5-2.3,0.8-2.8
		c0.2-0.3,0.4-0.5,0.6-0.5c0.1,0,0.1,0,0.1,0.1c0,0.1-0.1,0.3-0.2,0.6c-0.2,0.4-0.3,0.9-0.3,1.4C115.6,18.1,116,18.8,117.3,19.4z
		 M124.3,26c0.1,0,0.1,0.1,0,0.2c-0.2,0.3-0.9,1.1-1.3,1.5c-0.1,0.1-0.1,0.1-0.2,0c-0.4-0.2-1.3-0.9-1.6-1.3c-0.1-0.1-0.1-0.1,0-0.2
		c0.3-0.5,0.8-1,1.2-1.4c0.2-0.2,0.2-0.2,0.3-0.1C123,25,123.7,25.6,124.3,26z"/>
	<path d="M136.8,9.3c0.1,0,0.1,0,0.1,0c0,0.5-0.2,1-0.5,1.2l-3.7,2.1c-0.1,0-0.1,0-0.1,0c0-0.3,0.1-0.7,0.2-0.9
		c0.1-0.2,0.3-0.3,0.6-0.5L136.8,9.3z"/>
	<path d="M137.7,19.7L137.7,19.7c0.6,0,0.9,0.5,0.9,1c0,0.5-0.3,1-0.8,1h-0.1c-0.5,0-1.1,0-1.6-0.4c-0.7-0.6-1-1.5-1-1.7
		c-0.1,0.6-1,2.1-2.3,2.1h-0.1c-0.5,0-0.8-0.5-0.8-1c0-0.5,0.3-1,0.8-1h0.1c1.1,0,1.8-0.5,1.9-0.7c0,0,0-0.1,0-0.1
		c0-0.2-0.4-2.3-0.4-2.5c0-0.1,0-0.2,0-0.3c0.1-0.4,0.3-0.9,0.5-1.2c0.1-0.2,0.1-0.3,0.2-0.3c0.1,0,0.2,0.1,0.2,0.4
		c0.3,0.9,0.5,2.8,0.7,3.4C136.4,19.2,137.3,19.7,137.7,19.7z M137,25.1c0.1,0,0.1,0.1,0,0.2c-0.2,0.3-0.9,1.1-1.3,1.5
		c-0.1,0.1-0.1,0.1-0.2,0c-0.4-0.2-1.3-0.9-1.6-1.3c-0.1-0.1-0.1-0.1,0-0.2c0.3-0.5,0.8-1,1.2-1.4c0.2-0.2,0.2-0.2,0.3-0.1
		C135.7,24.1,136.4,24.7,137,25.1z"/>
	<path d="M146.4,11.1c0.1,0,0.1,0,0.1,0c0,0.5-0.2,1-0.5,1.2l-3.7,2.1c-0.1,0-0.1,0-0.1,0c0-0.3,0.1-0.7,0.2-0.9
		c0.1-0.2,0.3-0.3,0.6-0.5L146.4,11.1z"/>
	<path d="M145.6,17.7c0.1,0,0.2,0.1,0.2,0.4c0,0.1,0,0.2,0,0.4c0,0.6,0.5,1,1,1c0.9,0,1.4-0.9,1.7-1.6c0-0.1,0.1-0.3,0.3-0.3
		c0.1,0,0.2,0.1,0.2,0.6c0.1,0.9,0.6,1.5,1.4,1.5h0.3c0.6,0,1,0.3,1,0.9c0,0.7-0.3,1.1-1,1.1h-0.3c-1.2,0-1.7-0.6-1.9-1.7
		c-0.3,0.8-1,1.7-2,1.7c-0.9,0-1.4-0.8-1.5-1.7c-0.4,1-1.4,1.7-2.4,1.7c-1.1,0-1.8-0.4-2.1-1.4c-0.1,0.4-0.4,0.7-0.7,1
		c-0.3,0.3-1,0.4-1.9,0.4h-0.2c-0.6,0-0.9-0.4-0.9-1.1c0-0.6,0.3-1,0.9-1h0.3c1.4,0,2.4-0.5,2.8-1.5c0-0.1,0.2-0.3,0.3-0.3
		c0.1,0,0.2,0.2,0.2,0.5c0,0.8,0.7,1.2,1.6,1.2c1.1,0,1.9-0.5,2.5-1.6C145.4,17.9,145.5,17.7,145.6,17.7z"/>
	<path d="M154.1,26.4c0.1,0,0.1,0,0.1,0c0,0.5-0.2,1-0.5,1.2l-3.7,2.1c-0.1,0-0.1,0-0.1,0c0-0.3,0.1-0.7,0.2-0.9
		c0.1-0.2,0.3-0.3,0.6-0.5L154.1,26.4z"/>
	<path d="M152.9,20.1c-0.3,0.8-0.8,1.6-2.3,1.6c-0.8,0-1.1-0.4-1.1-1c0-0.5,0.3-1,1.1-1h0c0.4,0,1.6-0.7,1.6-1.4v0
		c-0.1-1.6-0.6-2.1-1.4-3.4c0-0.1-0.1-0.1-0.1-0.2c0-0.3,0.2-1.1,0.5-1.6c0.1-0.1,0.2-0.2,0.2-0.2c0,0,0.1,0,0.1,0.1
		c1.2,1.1,1.6,3.4,1.6,5C153.2,18.6,153.1,19.6,152.9,20.1z M153.7,24c0.1,0,0.1,0.1,0,0.2c-0.2,0.3-0.9,1.1-1.3,1.5
		c-0.1,0.1-0.1,0.1-0.2,0c-0.4-0.2-1.3-0.9-1.6-1.3c-0.1-0.1-0.1-0.1,0-0.2c0.3-0.5,0.8-1,1.2-1.4c0.2-0.2,0.2-0.2,0.3-0.1
		C152.4,23,153.1,23.6,153.7,24z"/>
	<path d="M167.9,6.7c0.6,0,1.5,0.9,1.5,1.8c0,0.4-0.1,0.7-0.2,1.1c-0.3,0.7-0.8,1.1-1.6,1.1c-0.7,0-1.2-0.6-1.2-1.2
		C166.4,8.6,167.4,6.7,167.9,6.7z M167.7,8.1c-0.2,0-0.6,0.6-0.6,0.9c0,0.2,0.3,0.5,0.7,0.5c0.5,0,1-0.3,1-0.4
		C168.8,8.9,168.2,8.1,167.7,8.1z"/>
	<path d="M162.1,19.4c0.9,0.4,2.3,0.6,4.1,0.6c2.6,0,4.6-0.4,6-0.8c1.8-0.5,2.7-0.8,3.7-1.6c0,0,0.2-0.1,0.2-0.1
		c0.1,0,0.1,0.1,0.1,0.4c0,1.1,0.6,1.7,1.3,1.7h0.3c0.5,0,0.8,0.3,0.8,1c0,0.7-0.3,1.1-0.8,1.1h-0.4c-1.3,0-2-0.7-2.3-2
		c-0.9,0.5-2.2,1.1-3.3,1.4c-1.8,0.5-3.7,1-5.9,1c-1.8,0-3.4-0.3-4.4-0.7c-1.3-0.5-1.9-1.3-1.9-2.7c0-1.2,0.5-2.3,0.8-2.8
		c0.2-0.3,0.4-0.5,0.6-0.5c0.1,0,0.1,0,0.1,0.1c0,0.1-0.1,0.3-0.2,0.6c-0.2,0.4-0.3,0.9-0.3,1.4C160.5,18.1,160.8,18.8,162.1,19.4z
		 M169,12.5c0.2-0.2,0.2-0.2,0.3-0.1c0.4,0.5,0.9,1,1.4,1.3c0.1,0.1,0.1,0.1,0,0.3c-0.4,0.4-0.8,0.9-1.2,1.4c-0.1,0.1-0.1,0.1-0.3,0
		c-0.3-0.3-0.8-0.7-1.3-1.1c-0.3,0.3-0.8,0.9-1,1c-0.1,0.1-0.2,0.1-0.3,0c-0.5-0.3-1-0.8-1.4-1.2c-0.1-0.1-0.1-0.2,0-0.3
		c0.3-0.4,0.8-0.9,1.2-1.4c0.1-0.1,0.2-0.1,0.3,0c0.3,0.4,0.9,0.9,1.3,1.1C168.3,13.3,168.8,12.7,169,12.5z"/>
	<path d="M182.3,7.4c0.1,0,0.1,0,0.1,0c0,0.5-0.2,1-0.5,1.2l-3.7,2.1c-0.1,0-0.1,0-0.1,0c0-0.3,0.1-0.7,0.2-0.9
		c0.1-0.2,0.3-0.3,0.6-0.5L182.3,7.4z"/>
	<path d="M181.8,18.5c0,0.5,0.5,1.1,1.2,1.2c0.2,0,0.3,0,0.4,0h0.1c0.8,0,0.8,0.6,0.8,0.9c0,0.3,0,1.1-0.7,1.1h-0.2
		c-0.1,0-0.3,0-0.5,0c-1.4-0.1-1.9-1.3-1.9-1.5c-0.2,0.5-1.3,1.5-3.3,1.5h-0.1c-0.6,0-0.9-0.5-0.9-1c0-0.5,0.3-1,0.9-1h0.6
		c0.9,0,2.2-0.1,2.9-1.4c0.2-0.4,0.3-0.5,0.4-0.5C181.7,17.8,181.8,18,181.8,18.5z M182.5,13.2c0.1,0,0.1,0.1,0,0.2
		c-0.2,0.3-0.9,1.1-1.3,1.5c-0.1,0.1-0.1,0.1-0.2,0c-0.4-0.2-1.3-0.9-1.6-1.3c-0.1-0.1-0.1-0.1,0-0.2c0.3-0.5,0.8-1,1.2-1.4
		c0.2-0.2,0.2-0.2,0.3-0.1C181.3,12.3,181.9,12.8,182.5,13.2z"/>
	<path d="M185.4,6.7c-0.3,0-0.6-0.1-0.8-0.4c-0.2-0.3-0.3-0.7-0.3-1c0-0.3,0-0.6,0.2-0.9c0.1-0.3,0.3-0.7,0.6-0.7
		c0.1,0,0.1,0.1,0.1,0.2c0,0.2-0.1,0.3-0.1,0.6c0,0.4,0.3,0.6,0.7,0.6c0.4,0,0.6-0.3,0.8-0.8c0.3-0.6,0.6-0.9,0.8-0.9
		c0.1,0,0.1,0.1,0.1,0.3c0,0.1,0,0.2,0,0.3c0,0.3,0.1,0.4,0.5,0.4c0.3,0,0.5-0.2,0.8-0.6c0.2-0.5,0.3-0.6,0.5-0.6
		c0.1,0,0.1,0.3,0.1,0.4c0,0.5-0.1,1-0.4,1.5c-0.2,0.4-0.6,0.8-1.2,0.8c-0.4,0-0.5-0.1-0.7-0.3c-0.1-0.1-0.2,0-0.3,0.1
		C186.3,6.4,185.9,6.7,185.4,6.7z"/>
	<path d="M189,23.5c0.1,0,0.1,0,0.1,0c0,0.5-0.2,1-0.5,1.2l-3.7,2.1c-0.1,0-0.1,0-0.1,0c0-0.3,0.1-0.7,0.2-0.9
		c0.1-0.2,0.3-0.3,0.6-0.5L189,23.5z"/>
	<path d="M194.3,5.5c0.1,0,0.1,0,0.1,0.1c0,0.3-0.4,1.2-0.6,1.5c0,0.1-0.1,0.1-0.1,0.1c-0.7,0.3-4.4,1.8-7.2,3.5
		c-0.5,0.3-1.1,0.7-1.5,1.1c0.6,0.6,1.5,1.2,2.1,1.7c2,1.6,3.3,2.6,4.9,4.2c1.4,1.4,2.3,2,2.7,2h0.3c0.5,0,0.8,0.3,0.8,1
		c0,0.7-0.3,1.1-0.8,1.1h-0.4c-0.5,0-1.2-0.3-1.9-0.9c-0.5-0.4-1.1-1-2-1.9c-0.9-0.9-1.5-1.5-2-1.8c0,0.4,0.1,0.7,0.1,1
		c0,0.6-0.1,1.1-0.3,1.6c-0.3,0.6-0.8,1.1-1.6,1.4c-1.1,0.4-2.1,0.5-3.1,0.5h-0.2c-0.5,0-0.8-0.4-0.8-1.1c0-0.6,0.3-1,0.9-1
		c0.8,0,1.9-0.1,3.1-0.4c0.8-0.2,1.3-0.5,1.4-1c-0.1-1-1.2-2.3-3.2-4.1c-0.4-0.4-0.6-0.8-0.6-1.2c0-1.6,0.2-2.1,0.5-2.4
		c0.8-0.8,1.5-1.3,2.3-1.8C189.8,7.1,193.9,5.6,194.3,5.5C194.3,5.5,194.3,5.5,194.3,5.5z"/>
	<path d="M203.4,8.8c0,0.5-0.1,0.9-0.3,1.3c0.2,0.1,0.3,0.2,0.3,0.3c0,0.3-0.1,0.7-0.3,0.9c0,0.1-0.1,0.1-0.1,0.1l-0.5-0.3
		c-0.4,0.7-1.1,1.6-2.2,2.1c-0.4,0.2-0.8,0.3-1.3,0.3c-0.2,0-0.4,0-0.4-0.1c0-0.1,0.2-0.2,0.5-0.3c0.8-0.4,2.3-1.6,2.7-2.2
		c-0.4-0.3-0.9-0.6-0.9-1.2c0-0.4,0.2-0.8,0.5-1.2c0.4-0.5,0.7-0.7,1.1-0.7C203.2,7.7,203.4,8.3,203.4,8.8z M201.8,9.2
		C201.8,9.2,201.8,9.2,201.8,9.2c0,0.2,0.4,0.4,0.7,0.6c0.1-0.1,0.1-0.3,0.1-0.6c0-0.3-0.1-0.4-0.3-0.4
		C202.1,8.8,201.9,8.9,201.8,9.2z"/>
	<path d="M196.9,20.9c-0.6,0.5-1.1,0.9-2.1,0.9h-0.2c-0.6,0-0.9-0.4-0.9-1.1c0-0.6,0.3-1,0.9-1h0.2c0.8,0,1.4-0.1,1.9-0.4
		c0.7-0.3,1.1-0.9,1.5-1.7c0.1-0.1,0.2-0.2,0.3-0.2c0.2,0,0.2,0.2,0.2,0.6c0.1,0.7,0.4,1.3,1.3,1.3c1,0,2-0.9,2.3-1.8
		c0.2-0.5,0.4-0.8,0.6-0.8c0.1,0,0.1,0.1,0.1,0.2c0,0.2-0.1,0.4-0.1,0.7c0,1.1,1,1.6,1.6,1.6c0.2,0,0.6-0.1,0.6-0.4
		c0-0.2-0.1-0.5-0.4-0.9c0,0,0-0.1,0-0.1c0-0.3,0.6-1.3,0.9-1.6c0,0,0.1-0.1,0.2-0.1c0.1,0,0.1,0.1,0.2,0.2c0.2,0.4,0.2,0.8,0.2,1.4
		c0,1.1-0.7,3.5-2.3,3.5c-0.9,0-1.6-0.5-1.9-1.4c-0.7,1.3-1.6,1.7-2.4,1.7c-0.9,0-1.6-0.5-1.8-2C197.7,20.1,197.4,20.5,196.9,20.9z"
		/>
	<path d="M218.8,31.1c0.2-0.2,0.2-0.2,0.3-0.1c0.4,0.5,0.9,1,1.4,1.3c0.1,0.1,0.1,0.1,0,0.3c-0.4,0.4-0.8,0.9-1.2,1.4
		c-0.1,0.1-0.1,0.1-0.3,0c-0.3-0.3-0.8-0.7-1.3-1.1c-0.3,0.3-0.8,0.9-1,1c-0.1,0.1-0.2,0.1-0.3,0c-0.5-0.3-1-0.8-1.4-1.2
		c-0.1-0.1-0.1-0.2,0-0.3c0.3-0.4,0.8-0.9,1.2-1.4c0.1-0.1,0.2-0.1,0.3,0c0.3,0.4,0.9,0.9,1.3,1.1C218.1,31.9,218.6,31.3,218.8,31.1
		z"/>
	<path d="M225.3,13c0.2-0.2,0.2-0.2,0.3-0.1c0.4,0.5,0.9,1,1.4,1.3c0.1,0.1,0.1,0.1,0,0.3c-0.4,0.4-0.8,0.9-1.2,1.4
		c-0.1,0.1-0.1,0.1-0.3,0c-0.3-0.3-0.8-0.7-1.3-1.1c-0.3,0.3-0.8,0.9-1,1c-0.1,0.1-0.2,0.1-0.3,0c-0.5-0.3-1-0.8-1.4-1.2
		c-0.1-0.1-0.1-0.2,0-0.3c0.3-0.4,0.8-0.9,1.2-1.4c0.1-0.1,0.2-0.1,0.3,0c0.3,0.4,0.9,0.9,1.3,1.1C224.6,13.8,225.1,13.2,225.3,13z"
		/>
	<path d="M213.7,20.4c0.2-0.3,0.4-0.5,0.6-0.5c0.2,0,0,0.4-0.1,0.7c-0.5,1.1-0.9,2.2-0.9,3.1c0,1.4,0.7,2.4,2,3
		c0.8,0.3,1.5,0.5,2.2,0.5c2.4,0,6.1-1.7,6.8-2.5c0,0,0,0,0-0.1c0-0.2-0.5-0.3-1.4-0.3c-2-0.1-3-0.6-3-1.3c0-1.5,1.1-3.1,2.4-4.2
		c0.9-0.7,1.7-1,2.6-1c0.7,0,1,0.2,1.3,0.8c0.4,0.6,0.8,1.1,1.3,1.1h0.3c0.5,0,0.8,0.3,0.8,1c0,0.7-0.3,1.1-0.8,1.1h-0.3
		c-0.3,0-0.6-0.1-1-0.3c-0.4-0.2-0.7-0.5-0.9-0.8c-0.2-0.3-0.5-0.5-0.6-0.6c-0.2-0.1-0.4-0.2-0.9-0.2c-0.5,0-1.1,0.2-1.8,0.5
		c-0.6,0.4-1.1,0.7-1.3,1.1c-0.1,0.1-0.1,0.2-0.1,0.3c0,0.4,0.6,0.7,1.8,0.9c1.2,0.1,1.9,0.2,2.2,0.4c0.3,0.1,0.4,0.4,0.4,0.8
		c0,0.2,0,0.5-0.1,0.8c-0.8,2.5-5.5,4.6-8.2,4.6c-0.7,0-1.8-0.2-2.6-0.6c-1.1-0.6-2.1-1.7-2.1-3.6C212.4,23.4,213,21.4,213.7,20.4z"
		/>
	<path d="M227.8,6.2c-0.7,0-1-0.6-1-1.4c0-0.2,0-0.4,0.1-0.7c0-0.2,0.2-0.7,0.4-0.7c0.1,0,0.2,0.2,0.2,0.5v0.2
		c0,0.3,0.2,0.5,0.6,0.5h0c0.4,0,0.7-0.3,0.8-0.9c0-0.2,0.2-1,0.5-1c0.1,0,0.2,0.1,0.2,0.5c0,0.2,0.1,0.3,0.3,0.3
		c0.4,0,0.7-0.3,0.8-0.7c0.1-0.6,0.2-0.8,0.4-0.8c0.2,0,0.3,0.6,0.3,1c0,0.3,0,0.5-0.1,0.9C231,4.6,230.6,5,229.9,5
		c-0.2,0-0.3-0.1-0.4-0.1c-0.1,0-0.1,0-0.2,0.1C228.9,5.7,228.4,6.2,227.8,6.2z M231.2,0C231.3,0,231.3,0,231.2,0
		c0,0.4-0.1,0.8-0.4,1.1c-0.1,0.1-0.2,0.2-0.4,0.3L226.9,3c0,0-0.1,0-0.1,0c0-0.1,0.1-0.4,0.2-0.7c0.1-0.3,0.2-0.4,0.3-0.4
		c0.1-0.1,0.2-0.1,0.3-0.2L231.2,0z"/>
	<path d="M229.7,20.8c-0.5,0.6-1.1,0.9-2,0.9h-0.2c-0.6,0-0.9-0.4-0.9-1.1c0-0.6,0.3-1,0.9-1h0.2c0.5,0,0.9-0.1,1.3-0.2
		c0.3-0.1,0.5-0.2,0.6-0.4c0-1.5-0.6-4.8-0.8-7.9c0-0.4-0.3-1.5-0.3-1.9c0-0.1,0-0.1,0-0.2c0-0.2,0.3-0.8,0.5-1.2
		c0.2-0.5,0.5-0.8,0.6-0.8c0.1,0,0.1,0.1,0.2,0.2c0.2,0.9,0.5,1.3,0.7,1.6c0,0.1,0.1,0.2,0.1,0.3c0,0,0,0.1,0,0.1
		c-0.1,0.2-0.3,0.7-0.5,1c0.1,3,0.6,5.5,0.6,7C230.6,18.7,230.3,19.9,229.7,20.8z"/>
	<path d="M234.7,21.8c-0.1,0-0.1-0.1-0.1-0.6c0-2.7-1-10.1-1-11.4c0-0.6,0.4-1.5,0.8-2.2c0.1-0.2,0.3-0.5,0.4-0.5
		c0.1,0,0.1,0.2,0.2,0.7c0.1,1.9,0.6,6.5,0.6,9.8c0,1.3-0.1,2.4-0.3,3.1C235,21.4,234.9,21.8,234.7,21.8z"/>
	<path d="M249.8,2.8c0,0.5-0.1,0.9-0.3,1.3c0.2,0.1,0.3,0.2,0.3,0.3c0,0.3-0.1,0.7-0.3,0.9c0,0.1-0.1,0.1-0.1,0.1L249,5.1
		c-0.4,0.7-1.1,1.6-2.2,2.1c-0.4,0.2-0.8,0.3-1.3,0.3c-0.2,0-0.4,0-0.4-0.1c0-0.1,0.2-0.2,0.5-0.3c0.8-0.4,2.3-1.6,2.7-2.2
		c-0.4-0.3-0.9-0.6-0.9-1.2c0-0.4,0.2-0.8,0.5-1.2c0.4-0.5,0.7-0.7,1.1-0.7C249.6,1.7,249.8,2.3,249.8,2.8z M248.2,3.2
		C248.2,3.2,248.2,3.2,248.2,3.2c0,0.2,0.4,0.4,0.7,0.6c0.1-0.1,0.1-0.3,0.1-0.6c0-0.3-0.1-0.4-0.3-0.4
		C248.5,2.8,248.3,2.9,248.2,3.2z"/>
	<path d="M244.2,22.4c-0.8-0.7-1.2-1.8-1.2-3c0-1.3,0.8-2.9,1.2-3.5c0.2-0.3,0.3-0.4,0.4-0.4c0.1,0,0.1,0.1,0.1,0.1
		c0,0.1-0.1,0.3-0.1,0.5c-0.4,0.8-0.8,1.6-0.8,2.6c0,0.8,0.5,1.4,1.2,1.9c0.7,0.5,1.5,0.7,2.4,0.7c2.2,0,5.1-0.9,5.7-2.4
		c0-0.1,0-0.3,0-0.4c0-1-0.3-2-0.8-2.8c-0.2-0.3-0.4-0.6-0.4-0.7c0,0,0-0.1,0-0.1c0-0.2,0.1-0.4,0.1-0.7c0.1-0.4,0.2-0.7,0.4-1
		c0.1-0.1,0.1-0.2,0.2-0.2c0,0,0.1,0,0.2,0.2c0.6,1.3,1.1,2.6,1.1,4.2c0,1.2-0.1,2-0.3,2.4c-0.3,0.8-0.5,1.2-1,1.6
		c-0.4,0.4-1.2,1.1-2.2,1.5c-1,0.4-2.2,0.6-3.7,0.6C245.8,23.3,244.9,23.1,244.2,22.4z M250,10c0.1,0,0.1,0.1,0,0.2
		c-0.2,0.3-0.9,1.1-1.3,1.5c-0.1,0.1-0.1,0.1-0.2,0c-0.4-0.2-1.3-0.9-1.5-1.3c-0.1-0.1-0.1-0.1,0-0.2c0.3-0.5,0.8-1,1.2-1.4
		c0.2-0.2,0.2-0.2,0.3-0.1C248.7,9.1,249.4,9.6,250,10z"/>
	<path d="M253.1,27.1c-0.3-0.1-0.4-0.3-0.4-0.4c0-0.1,0.1-0.1,0.3-0.1c0.2,0,1,0.2,1.6,0.2c0.6,0,1.1-0.1,1.9-0.5
		c2.1-1.1,3.5-2.7,3.5-3.7c0-0.2,0-0.3-0.1-0.6h-0.7c-0.5,0-1.3-0.1-1.9-0.4c-0.6-0.3-0.9-0.8-0.9-1.4c0-0.5,0.2-1.3,0.5-2
		c0.5-1.1,1.1-2,1.7-2c0.6,0,1.2,0.4,1.6,1c0.4,0.7,0.6,1.6,0.7,2.5h0.9c0.6,0,0.8,0.3,0.8,0.9c0,0.7-0.3,1.1-0.8,1.1l-0.9,0
		c-0.1,3.1-1.2,5.2-3.7,6.1c-0.1,0-0.3,0.1-0.6,0.1C255.7,28,254.3,27.6,253.1,27.1z M258.6,18.4c-0.1-0.1-0.3-0.2-0.5-0.2
		c-0.4,0-0.7,0.5-0.7,0.7c0,0.2,0.2,0.4,0.7,0.6c0.4,0.1,0.8,0.2,1,0.2c0.1,0,0.2,0,0.2-0.1C259.4,19.4,259,18.8,258.6,18.4z"/>
	<path d="M262.9,10.7c0,0-0.1,0-0.1,0c-0.2,0-0.5-0.1-0.7-0.3c-0.2-0.3-0.3-0.6-0.3-1.1c0-0.2,0-0.4,0.1-0.7
		c0.1-0.2,0.2-0.6,0.5-0.6c0.1,0,0.1,0.1,0.1,0.4c0,0.1,0,0.3,0,0.3c0,0.3,0.2,0.5,0.6,0.5h0c0.4,0,0.7-0.3,0.8-0.8
		c0.1-0.2,0.3-0.9,0.6-0.9c0.1,0,0.2,0.1,0.2,0.3V8c0,0.2,0.1,0.4,0.3,0.4c0,0,0.1,0,0.1,0c0.3-0.1,0.6-0.3,0.7-0.7
		c0.1-0.5,0.2-0.7,0.4-0.7c0.1,0,0.2,0.1,0.2,0.2c0,0.1,0,0.3,0,0.5c0,0.4-0.1,0.7-0.2,1.1c-0.2,0.5-0.6,0.9-1.3,0.9
		c-0.2,0-0.4-0.1-0.5-0.2c-0.1,0-0.1,0-0.2,0C263.7,10.3,263.3,10.6,262.9,10.7z M265.8,3.4c0,0.1,0,0.2,0,0.3
		c0,0.4-0.1,0.7-0.2,1.1c0.2,0.1,0.2,0.2,0.3,0.3c0,0.3-0.1,0.5-0.3,0.8l-0.4-0.3c-0.5,0.7-0.9,1.2-1.2,1.4
		c-0.3,0.2-0.8,0.4-1.5,0.4c-0.4,0-0.4-0.1-0.3-0.1c1.2-0.7,2-1.4,2.4-1.9c-0.3-0.2-0.8-0.5-0.8-1c0-0.3,0.1-0.6,0.5-1
		c0.3-0.4,0.6-0.6,0.9-0.6C265.5,2.7,265.7,3.1,265.8,3.4z M264.4,4c0.1,0.1,0.3,0.3,0.6,0.4c0.1-0.1,0.1-0.3,0.1-0.5
		c0-0.2-0.1-0.3-0.3-0.3C264.7,3.7,264.5,3.8,264.4,4z"/>
	<path d="M265.8,18.5c0,0.5,0.5,1.1,1.2,1.2c0.2,0,0.3,0,0.4,0h0.1c0.8,0,0.8,0.6,0.8,0.9c0,0.3,0,1.1-0.7,1.1h-0.2
		c-0.1,0-0.3,0-0.5,0c-1.4-0.1-1.9-1.3-1.9-1.5c-0.2,0.5-1.3,1.5-3.3,1.5h-0.1c-0.6,0-0.9-0.5-0.9-1c0-0.5,0.3-1,0.9-1h0.6
		c0.9,0,2.2-0.1,2.9-1.4c0.2-0.4,0.3-0.5,0.4-0.5C265.7,17.8,265.8,18,265.8,18.5z M266.5,13.2c0.1,0,0.1,0.1,0,0.2
		c-0.2,0.3-0.9,1.1-1.3,1.5c-0.1,0.1-0.1,0.1-0.2,0c-0.4-0.2-1.3-0.9-1.6-1.3c-0.1-0.1-0.1-0.1,0-0.2c0.3-0.5,0.8-1,1.2-1.4
		c0.2-0.2,0.2-0.2,0.3-0.1C265.2,12.3,265.9,12.8,266.5,13.2z"/>
	<path d="M269.6,20.8c-0.5,0.6-1,0.9-2,0.9h-0.2c-0.6,0-0.9-0.4-0.9-1.1c0-0.6,0.3-1,0.9-1h0.2c0.5,0,0.9-0.1,1.3-0.2
		c0.3-0.1,0.5-0.2,0.6-0.4c0-1.5-0.6-4.8-0.8-7.9c0-0.4-0.3-1.5-0.3-1.9c0-0.1,0-0.1,0-0.2c0-0.2,0.3-0.8,0.5-1.2
		c0.2-0.5,0.5-0.8,0.6-0.8c0.1,0,0.1,0.1,0.2,0.2c0.2,0.9,0.5,1.3,0.7,1.6c0,0.1,0.1,0.2,0.1,0.3c0,0,0,0.1,0,0.1
		c-0.1,0.2-0.3,0.7-0.5,1c0.1,3,0.6,5.5,0.6,7C270.5,18.7,270.2,19.9,269.6,20.8z"/>
	<path d="M274.6,21.8c-0.1,0-0.1-0.1-0.1-0.6c0-2.7-1-10.1-1-11.4c0-0.6,0.4-1.5,0.8-2.2c0.1-0.2,0.3-0.5,0.4-0.5
		c0.1,0,0.1,0.2,0.2,0.7c0.1,1.9,0.6,6.5,0.6,9.8c0,1.3-0.1,2.4-0.3,3.1C275,21.4,274.8,21.8,274.6,21.8z"/>
	<path d="M286.9,17.2c0,0,0,0.2,0,0.2c0,0.3-0.2,1-0.3,1.1c-0.2,0.1-3.4,0.1-3.8,0.1c0,0,0-0.2,0-0.2c0-0.3,0.2-1.1,0.3-1.1
		C283.9,17.3,286.4,17.2,286.9,17.2z"/>
	<path d="M288.6,13.4c-0.1,0-0.4-0.3-0.4-0.4c0.8-1.3,2.2-2.5,3.7-2.5c1.7,0,3.1,1.3,3.1,3.4c0,1.3-0.7,2.5-2,3.9
		c-0.9,1-1.5,1.5-2.1,2.1c0,0,0,0.1,0,0.1c0.6,0.1,2.6,0.1,3.6,0.1c0.4,0,0.8-0.3,1.4-1.6c0.1,0,0.5,0.1,0.5,0.2
		c-0.1,0.6-0.7,2.4-1.1,2.9c-0.1,0.1-0.3,0.2-0.9,0.2c-1.3,0-3.4-0.1-5-0.1c-0.4,0-0.8,0-1.1,0c-0.1-0.1-0.1-0.4-0.1-0.5
		c1.3-1.1,2.1-1.9,3.3-3.3c0.9-1.1,1.4-2.4,1.4-3.6c0-1.2-0.6-2.3-2-2.3C290.1,12.1,289.3,12.5,288.6,13.4z"/>
	<path d="M44.2,54.7c0.3,0.3,0.4,0.7,0.4,1c0,0.3-0.1,0.7-0.3,0.9c-0.3,0.3-0.6,0.4-1,0.4c-0.3,0-0.6-0.1-0.8-0.3
		c-0.3-0.2-0.4-0.6-0.4-1c0-0.3,0.2-0.6,0.4-0.9c0.2-0.2,0.6-0.4,0.9-0.4S44,54.5,44.2,54.7z"/>
	<path d="M56.4,42.6c0.6,0,1.5,0.9,1.5,1.8c0,0.4-0.1,0.7-0.2,1.1c-0.3,0.7-0.8,1.1-1.6,1.1c-0.7,0-1.2-0.6-1.2-1.2
		C54.9,44.6,55.9,42.6,56.4,42.6z M56.2,44.1c-0.2,0-0.6,0.6-0.6,0.9c0,0.2,0.3,0.5,0.7,0.5c0.5,0,1-0.3,1-0.4
		C57.2,44.8,56.7,44.1,56.2,44.1z"/>
	<path d="M58.1,48.9c0.1,0,0.1,0.1,0,0.2c-0.2,0.3-0.9,1.1-1.3,1.5c-0.1,0.1-0.1,0.1-0.2,0c-0.4-0.2-1.3-0.9-1.5-1.3
		c-0.1-0.1-0.1-0.1,0-0.2c0.3-0.5,0.8-1,1.2-1.4c0.2-0.2,0.2-0.2,0.3-0.1C56.8,48,57.5,48.5,58.1,48.9z"/>
	<path d="M65.2,60.5c0.2-0.2,0.2-0.2,0.3-0.1c0.4,0.5,0.9,1,1.4,1.3c0.1,0.1,0.1,0.1,0,0.3c-0.4,0.4-0.8,0.9-1.2,1.4
		c-0.1,0.1-0.1,0.1-0.3,0c-0.3-0.3-0.8-0.7-1.3-1.1c-0.3,0.3-0.8,0.9-1,1c-0.1,0.1-0.2,0.1-0.3,0c-0.5-0.3-1-0.8-1.4-1.2
		c-0.1-0.1-0.1-0.2,0-0.3c0.3-0.4,0.8-0.9,1.2-1.4c0.1-0.1,0.2-0.1,0.3,0c0.3,0.4,0.9,0.9,1.3,1.1C64.5,61.2,64.9,60.7,65.2,60.5z"
		/>
	<path d="M68.7,55.7c0,0.7-0.3,1.1-0.8,1.1h-0.3c-0.3,0-0.7-0.1-1.1-0.3c-0.4-0.2-0.6-0.5-0.8-0.9c-0.2-0.4-0.3-0.9-0.5-1.6
		c-0.1-0.7-0.2-1.1-0.2-1.1c-0.3,0.8-0.6,1.2-1,1.5c-0.5,0.4-1.1,0.5-1.4,0.5c-0.1,0-0.2,0-0.3,0c0,0.4,0,0.6,0,0.9
		c0,0.4,0,0.8-0.1,1.4c-0.1,0.8-0.2,1.4-0.3,1.8c-0.2,0.4-0.3,0.8-0.5,1c-1.4,1.9-3.6,2.7-6.1,2.7c-1.1,0-1.9-0.3-2.6-0.8
		c-1-0.8-1.5-2-1.5-3.3c0-1,0.4-2.3,1.1-3.3c0.2-0.3,0.4-0.5,0.6-0.5c0.1,0,0.1,0,0.1,0.1c0,0.1-0.1,0.4-0.2,0.6
		c-0.4,0.7-0.7,1.5-0.7,2.4c0,1.3,1.5,2.6,3.6,2.6c2.2,0,5.1-0.9,5.7-2.4c0-0.1,0-0.2,0-0.3c0-1.1-0.3-2.6-0.9-3.4
		c-0.2-0.3-0.4-0.5-0.4-0.5c0,0-0.1-0.1-0.1-0.1c0-0.4,0.5-1.8,0.6-1.9c0.1-0.1,0.1-0.1,0.1,0c0.5,0.7,1.1,1.1,1.7,1.1
		c0.2,0,0.5,0,0.8-0.1c0.4-0.1,0.7-0.3,0.9-0.6c0.5-0.5,0.6-0.9,0.8-1.3c0.1-0.1,0.1-0.2,0.3-0.2c0.1,0,0.2,0.1,0.3,0.4
		c0.1,0.2,0.1,0.7,0.3,1.4c0.1,0.7,0.3,1.3,0.6,1.7c0.3,0.5,0.7,0.7,1,0.7h0.3C68.5,54.7,68.7,55,68.7,55.7z"/>
	<path d="M72.8,52.1c0,1.1-0.3,2.6-0.8,3.3c-0.2,0.3-0.8,0.6-1.2,0.7c-1.2,0.4-2.2,0.6-3,0.6h-0.2c-0.6,0-0.9-0.4-0.9-1.1
		c0-0.6,0.3-1,0.9-1h0.2c1.2,0,2.5-0.2,3.3-0.4c0.7-0.2,0.8-0.3,0.8-1c0-0.4-0.1-0.8-0.3-1.1c-0.2,0.5-0.8,0.9-1.6,0.9
		c-1,0-1.6-0.6-1.6-1.7c0-1.6,1.2-3.7,1.8-3.7C71.8,47.6,72.8,50.6,72.8,52.1z M71.5,42.7c0.2-0.2,0.2-0.2,0.3-0.1
		c0.4,0.5,0.9,1,1.4,1.3c0.1,0.1,0.1,0.1,0,0.3c-0.4,0.4-0.8,0.9-1.2,1.4c-0.1,0.1-0.1,0.1-0.3,0c-0.3-0.3-0.8-0.7-1.3-1.1
		c-0.3,0.3-0.8,0.9-1,1c-0.1,0.1-0.2,0.1-0.3,0c-0.5-0.3-1-0.8-1.4-1.2c-0.1-0.1-0.1-0.2,0-0.3c0.3-0.4,0.8-0.9,1.2-1.4
		c0.1-0.1,0.2-0.1,0.3,0c0.3,0.4,0.9,0.9,1.3,1.1C70.8,43.5,71.3,42.9,71.5,42.7z M70.6,49.8c-0.2-0.2-0.5-0.3-0.7-0.3
		c-0.2,0-0.3,0.1-0.5,0.4c-0.1,0.2-0.2,0.4-0.2,0.5c0,0.4,0.4,0.6,0.9,0.6c0.4,0,0.8-0.2,0.8-0.4C71,50.5,70.8,50.1,70.6,49.8z"/>
	<path d="M79.2,58.2c0.1,0,0.1,0,0.1,0c0,0.5-0.2,1-0.5,1.2l-3.7,2.1c-0.1,0-0.1,0-0.1,0c0-0.3,0.1-0.7,0.2-0.9
		c0.1-0.2,0.3-0.3,0.6-0.5L79.2,58.2z"/>
	<path d="M80.5,53.1c0,0.8-0.2,1.5-0.2,1.8c-0.4,1.4-1.8,1.9-4.4,1.9c-0.6,0-0.9-0.1-1.1-0.2c-0.2-0.2-0.3-0.6-0.3-1.1
		c0-0.3,0-0.6,0.1-0.7c0.1-0.3,0.1-0.4,0.2-0.4c0.1,0,0.1,0.1,0.2,0.1c0.2,0.2,0.8,0.3,1.5,0.3c1.1,0,2.4-0.2,3-0.5
		c0.1,0,0.1-0.1,0.1-0.1c0,0,0-0.1,0-0.1c-0.4-1.2-2-3.5-3.2-3.5c-0.2,0-0.4,0.2-0.5,0.2c0,0-0.1,0-0.1-0.1c0-0.5,0.3-1.6,0.7-1.9
		c0.1-0.1,0.2-0.1,0.4-0.1c0.3,0,0.7,0.1,1,0.2c0.5,0.2,1.4,1.1,1.9,2.1C80.2,51.5,80.5,52.3,80.5,53.1z"/>
	<path d="M86.4,56.8c-0.6,0-1.1-0.1-1.5-0.4c-0.6-0.5-1-1.5-1.1-2.8c-0.1-1-0.2-2.1-0.3-3.3c-0.1-1.8-0.2-4.6-0.5-6.2
		c0-0.1,0-0.2,0-0.2c0-0.1,0-0.2,0.1-0.4c0.3-0.4,0.5-0.7,0.6-1.1c0.1-0.3,0.2-0.3,0.3-0.3c0.1,0,0.2,0.2,0.2,0.6
		c0.4,3.1,0.1,7.5,0.5,9.9c0.1,0.6,0.2,0.8,0.3,1.2c0.2,0.5,0.7,0.8,1.3,0.9c0.7,0,1.1,0.3,1.1,1c0,0.8-0.4,1.1-1,1.1H86.4z"/>
	<path d="M90.5,57.8c-0.1,0-0.1-0.1-0.1-0.2c0-0.1,0-0.2,0-0.3c0.1-0.3,0.2-0.6,0.4-1c-0.9-0.3-1.5-0.9-1.8-1.7
		c-0.7,1.4-1.4,2-2.3,2h-0.2c-0.6,0-0.9-0.3-0.9-1c0-0.7,0.3-1,0.9-1h0.2c1.1,0,2-0.7,2.5-2.1c0.2-0.5,0.4-0.8,0.5-0.8
		c0.2,0,0.3,0.2,0.3,0.6c0,0.7,0.4,1.7,2,2c1.8-2.2,5-4.9,6.4-4.9c0.5,0,1.2,0.2,1.7,0.6c0.6,0.4,0.8,0.9,0.8,1.3c0,0.7-0.4,2-1,2.8
		c-0.7,0.8-2.3,1.6-4.1,2c-1,0.3-2.1,0.4-2.9,0.4c-0.6,0-1.2-0.1-1.6-0.2c-0.2,0.3-0.4,0.6-0.5,0.9C90.8,57.6,90.6,57.8,90.5,57.8z
		 M99.7,53.1c0-0.5-1.4-1.3-2.2-1.3c-1.3,0-3.5,1.6-4.7,2.9c0.2,0,0.4,0,0.6,0C95.9,54.7,99,53.6,99.7,53.1
		C99.7,53.1,99.7,53.1,99.7,53.1z"/>
	<path d="M110.3,50.1c0.3,0.3,0.4,0.7,0.4,1c0,0.2-0.1,0.6-0.3,0.8c-0.3,0.3-0.6,0.4-0.9,0.4c-0.3,0-0.6-0.1-0.8-0.3
		c-0.3-0.3-0.4-0.6-0.4-0.9c0-0.3,0.1-0.7,0.4-0.9c0.2-0.2,0.6-0.4,0.9-0.4C109.7,49.8,110.1,49.9,110.3,50.1z M110.3,54.8
		c0.3,0.3,0.4,0.7,0.4,1c0,0.2-0.1,0.6-0.3,0.9c-0.3,0.2-0.6,0.4-1,0.4c-0.3,0-0.6-0.1-0.8-0.3c-0.3-0.2-0.4-0.6-0.4-0.9
		c0-0.3,0.1-0.6,0.4-0.9c0.2-0.2,0.6-0.4,0.9-0.4C109.7,54.5,110.1,54.6,110.3,54.8z"/>
	<path d="M129.1,54.9c0,2-0.4,2.5-0.8,3.3c-1.1,1.7-3.2,2.6-5.3,2.6c-3.5,0-4.5-1.9-4.5-3.7c0-1.3,0.4-2.7,1-3.7
		c0.3-0.6,0.5-0.8,0.7-0.8c0.1,0,0.1,0.1,0.1,0.1c0,0.1-0.1,0.4-0.2,0.7c-0.3,0.6-0.6,1.5-0.6,2.2c0,1.6,1.2,3,3.9,3
		c1.9,0,4.4-1.3,4.9-2.3c0-0.1,0.1-0.2,0.1-0.3c-0.1-1.7-0.2-2.8-0.4-4.3c-0.4-2.7-0.4-3.4-0.7-5.9c0-0.4-0.3-1.2-0.3-1.5
		c0-0.1,0-0.1,0-0.2c0,0,0-0.1,0-0.1c0-0.1,0.1-0.3,0.3-0.8c0.2-0.5,0.6-0.9,0.8-0.9c0.1,0,0.1,0.1,0.2,0.2c0.2,0.8,0.5,1.3,0.7,1.6
		c0,0.1,0.1,0.1,0.1,0.2c0,0,0,0.1,0,0.2c-0.1,0.2-0.3,0.7-0.4,1C128.5,48.4,129.1,52.8,129.1,54.9z"/>
	<path d="M135.4,56.8c-0.6,0-1.1-0.1-1.5-0.4c-0.6-0.5-1-1.5-1.1-2.8c-0.1-1-0.2-2.1-0.3-3.3c-0.1-1.8-0.2-4.6-0.5-6.2
		c0-0.1,0-0.2,0-0.2c0-0.1,0-0.2,0.1-0.4c0.3-0.4,0.5-0.7,0.6-1.1c0.1-0.3,0.2-0.3,0.3-0.3c0.1,0,0.2,0.2,0.2,0.6
		c0.4,3.1,0.1,7.5,0.5,9.9c0.1,0.6,0.2,0.8,0.3,1.2c0.2,0.5,0.7,0.8,1.3,0.9c0.7,0,1.1,0.3,1.1,1c0,0.8-0.4,1.1-1,1.1H135.4z"/>
	<path d="M139.7,53.5c0,0.5,0.5,1.1,1.2,1.2c0.2,0,0.3,0,0.4,0h0.1c0.8,0,0.8,0.6,0.8,0.9c0,0.3,0,1.1-0.7,1.1h-0.2
		c-0.1,0-0.3,0-0.5,0c-1.4-0.1-1.9-1.3-1.9-1.5c-0.2,0.5-1.3,1.5-3.3,1.5h-0.1c-0.6,0-0.9-0.5-0.9-1c0-0.5,0.3-1,0.9-1h0.6
		c0.9,0,2.2-0.1,2.9-1.4c0.2-0.4,0.3-0.5,0.4-0.5C139.6,52.8,139.7,53,139.7,53.5z M139.5,47.7c0.2-0.2,0.2-0.2,0.3-0.1
		c0.4,0.5,0.9,1,1.4,1.3c0.1,0.1,0.1,0.1,0,0.3c-0.4,0.4-0.8,0.9-1.2,1.4c-0.1,0.1-0.1,0.1-0.3,0c-0.3-0.3-0.8-0.7-1.3-1.1
		c-0.3,0.3-0.8,0.9-1,1.1c-0.1,0.1-0.2,0.1-0.3,0c-0.5-0.3-1-0.8-1.4-1.2c-0.1-0.1-0.1-0.2,0-0.3c0.3-0.4,0.8-0.9,1.2-1.4
		c0.1-0.1,0.2-0.1,0.3,0c0.3,0.4,0.9,0.9,1.3,1.1C138.8,48.5,139.3,47.9,139.5,47.7z M139.9,44.8c0.1,0,0.1,0.1,0,0.2
		c-0.2,0.3-0.9,1.1-1.3,1.5c-0.1,0.1-0.1,0.1-0.2,0c-0.4-0.2-1.3-0.9-1.5-1.3c-0.1-0.1-0.1-0.1,0-0.2c0.3-0.5,0.8-1,1.2-1.4
		c0.2-0.2,0.2-0.2,0.3-0.1C138.6,43.8,139.2,44.3,139.9,44.8z"/>
	<path d="M141.6,56.8L141.6,56.8c-0.7,0-1-0.4-1-1.1c0-0.6,0.3-1,0.9-1h0.1c1.1,0,2-0.4,2.6-1.3l1.1-1.7c0.7-1,1.5-1.3,2-1.3
		c1.5,0,2.1,2.6,2.1,3.6c0,0.9-1,2.1-1.4,2.1c-0.7,0-2.5-0.9-3.4-1.7C143.7,56,142.7,56.8,141.6,56.8z M146.3,52.1
		c-0.2,0-0.3,0.1-0.4,0.3c-0.1,0.1-0.2,0.3-0.3,0.4c0.4,0.2,1.7,0.9,2.2,1.2C147.8,53.3,146.9,52.1,146.3,52.1z"/>
	<path d="M159.6,55.6c0.2,0.3,0.3,0.6,0.3,0.9c0,0.4-0.2,0.8-0.5,1c-0.3,0.2-0.5,0.3-0.9,0.3c-0.5,0-1.1-0.4-1.4-1
		c-0.3-0.6-0.4-1.2-0.4-1.8c0-0.7,0.1-1.4,0.4-2c0.3-0.6,0.6-1.1,0.9-1.5c0.3-0.4,0.6-0.6,0.7-0.6c0.2,0,0.1,0.3-0.2,0.7
		c-0.7,1-1,1.8-1,2.8c0,0.5,0.1,0.6,0.2,0.9c0.3-0.1,0.6-0.2,0.7-0.2C159,55.2,159.3,55.3,159.6,55.6z"/>
	<path d="M178.9,58.9c0.1,0,0.1,0,0.1,0c0,0.5-0.2,1-0.5,1.2l-3.7,2.1c-0.1,0-0.1,0-0.1,0c0-0.3,0.1-0.7,0.2-0.9
		c0.1-0.2,0.3-0.3,0.6-0.5L178.9,58.9z"/>
	<path d="M186.3,54.7c0.7,0,1,0.3,1,1c0,0.7-0.3,1-1,1h-0.2c-1.9,0-3.2-0.4-4-1c-1.7,0.8-5,1.7-8.1,1.7c-5.7,0-6.8-2.2-6.8-4.1
		c0-0.9,0.3-2.3,0.9-3.3c0.2-0.4,0.4-0.5,0.5-0.5c0.1,0,0.1,0,0.1,0.1c0,0.1-0.1,0.3-0.1,0.5c-0.2,0.5-0.4,1.1-0.4,1.7
		c0,3.1,4.4,3.5,6.8,3.5c2.3,0,4.5-0.5,6-1c-0.1-0.2-0.1-0.5-0.1-0.7c0-2,2.3-4.6,3.6-4.6c0.7,0,1.1,0.9,1.1,1.9
		c0,1.1-0.4,2.5-1.3,3.3c0.3,0.2,0.8,0.2,1.7,0.2H186.3z M182.2,46.2c0.1,0,0.1,0.1,0,0.2c-0.2,0.3-0.9,1.1-1.3,1.5
		c-0.1,0.1-0.1,0.1-0.2,0c-0.4-0.2-1.3-0.9-1.5-1.3c-0.1-0.1-0.1-0.1,0-0.2c0.3-0.5,0.8-1,1.2-1.4c0.2-0.2,0.2-0.2,0.3-0.1
		C180.9,45.3,181.5,45.8,182.2,46.2z M183.6,51.3c-0.7,0-1.5,0.8-1.5,1.1c0.1,0.6,0.4,0.8,1.1,1.3c0.3-0.1,1.3-0.9,1.3-1.2
		C184.5,51.7,184.3,51.3,183.6,51.3z"/>
	<path d="M188.6,37c0.6,0,1.5,0.9,1.5,1.8c0,0.4-0.1,0.7-0.2,1.1c-0.3,0.7-0.8,1.1-1.6,1.1c-0.7,0-1.2-0.6-1.2-1.2
		C187.1,39,188.1,37,188.6,37z M188.4,38.5c-0.2,0-0.6,0.6-0.6,0.9c0,0.2,0.3,0.5,0.7,0.5c0.5,0,1-0.3,1-0.4
		C189.5,39.2,188.9,38.5,188.4,38.5z"/>
	<path d="M191.2,52.1c0,1.1-0.3,2.6-0.8,3.3c-0.2,0.3-0.8,0.6-1.2,0.7c-1.2,0.4-2.2,0.6-3,0.6H186c-0.6,0-0.9-0.4-0.9-1.1
		c0-0.6,0.3-1,0.9-1h0.2c1.2,0,2.5-0.2,3.3-0.4c0.7-0.2,0.8-0.3,0.8-1c0-0.4-0.1-0.8-0.3-1.1c-0.2,0.5-0.8,0.9-1.6,0.9
		c-1,0-1.6-0.6-1.6-1.7c0-1.6,1.2-3.7,1.8-3.7C190.2,47.6,191.2,50.6,191.2,52.1z M189.9,42.7c0.2-0.2,0.2-0.2,0.3-0.1
		c0.4,0.5,0.9,1,1.4,1.3c0.1,0.1,0.1,0.1,0,0.3c-0.4,0.4-0.8,0.9-1.2,1.4c-0.1,0.1-0.1,0.1-0.3,0c-0.3-0.3-0.8-0.7-1.3-1.1
		c-0.3,0.3-0.8,0.9-1,1c-0.1,0.1-0.2,0.1-0.3,0c-0.5-0.3-1-0.8-1.4-1.2c-0.1-0.1-0.1-0.2,0-0.3c0.3-0.4,0.8-0.9,1.2-1.4
		c0.1-0.1,0.2-0.1,0.3,0c0.3,0.4,0.9,0.9,1.3,1.1C189.2,43.5,189.7,42.9,189.9,42.7z M189,49.8c-0.2-0.2-0.5-0.3-0.7-0.3
		c-0.2,0-0.3,0.1-0.5,0.4c-0.1,0.2-0.2,0.4-0.2,0.5c0,0.4,0.4,0.6,0.9,0.6c0.4,0,0.8-0.2,0.8-0.4C189.4,50.5,189.2,50.1,189,49.8z"
		/>
	<path d="M197.7,46.1c0.1,0,0.1,0,0.1,0c0,0.5-0.2,1-0.5,1.2l-3.7,2.1c-0.1,0-0.1,0-0.1,0c0-0.3,0.1-0.7,0.2-0.9
		c0.1-0.2,0.3-0.3,0.6-0.5L197.7,46.1z"/>
	<path d="M190.7,62.1c-0.3-0.1-0.4-0.3-0.4-0.4c0-0.1,0.1-0.1,0.3-0.1c0.2,0,1,0.2,1.6,0.2c0.6,0,1.1-0.1,1.9-0.5
		c2.1-1.1,3.5-2.7,3.5-3.7c0-0.2,0-0.3-0.1-0.6h-0.7c-0.5,0-1.3-0.1-1.9-0.4c-0.6-0.3-0.9-0.8-0.9-1.4c0-0.5,0.2-1.3,0.5-2
		c0.5-1.1,1.1-2,1.7-2c0.6,0,1.2,0.4,1.6,1c0.4,0.7,0.6,1.6,0.7,2.5h0.9c0.6,0,0.8,0.3,0.8,0.9c0,0.7-0.3,1.1-0.8,1.1l-0.9,0
		c-0.1,3.1-1.2,5.2-3.7,6.1c-0.1,0-0.3,0.1-0.6,0.1C193.4,63,191.9,62.6,190.7,62.1z M196.3,53.4c-0.1-0.1-0.3-0.2-0.5-0.2
		c-0.4,0-0.7,0.5-0.7,0.7c0,0.2,0.2,0.4,0.7,0.6c0.4,0.1,0.8,0.2,1,0.2c0.1,0,0.2,0,0.2-0.1C197,54.4,196.7,53.8,196.3,53.4z"/>
	<path d="M201.3,55.8c-0.5,0.6-1.1,0.9-2,0.9h-0.2c-0.6,0-0.9-0.4-0.9-1.1c0-0.6,0.3-1,0.9-1h0.2c0.5,0,0.9-0.1,1.3-0.2
		c0.3-0.1,0.5-0.2,0.6-0.4c0-1.5-0.6-4.8-0.8-7.9c0-0.4-0.3-1.5-0.3-1.9c0-0.1,0-0.1,0-0.2c0-0.2,0.3-0.8,0.5-1.2
		c0.2-0.5,0.5-0.8,0.6-0.8c0.1,0,0.1,0.1,0.2,0.2c0.2,0.9,0.5,1.3,0.7,1.6c0,0.1,0.1,0.2,0.1,0.3c0,0,0,0.1,0,0.1
		c-0.1,0.2-0.3,0.7-0.5,1c0.1,3,0.6,5.5,0.6,7C202.2,53.7,201.9,54.9,201.3,55.8z"/>
	<path d="M206.3,56.8c-0.1,0-0.1-0.1-0.1-0.6c0-2.7-1-10.1-1-11.4c0-0.6,0.4-1.5,0.8-2.2c0.1-0.2,0.3-0.5,0.4-0.5
		c0.1,0,0.1,0.2,0.2,0.7c0.1,1.9,0.6,6.5,0.6,9.8c0,1.3-0.1,2.4-0.3,3.1C206.7,56.4,206.5,56.8,206.3,56.8z"/>
	<path d="M222,63.7c0.1,0,0.1,0,0.1,0c0,0.5-0.2,1-0.5,1.2L218,67c-0.1,0-0.1,0-0.1,0c0-0.3,0.1-0.7,0.2-0.9
		c0.1-0.2,0.3-0.3,0.6-0.5L222,63.7z"/>
	<path d="M223.2,54.8c0-0.3,0.3-1.2,0.5-1.7c0.1-0.1,0.1-0.2,0.2-0.2c0.1,0,0.1,0.1,0.2,0.2c0.5,1.1,1,1.6,1.7,1.6h0.3
		c0.6,0,0.9,0.3,0.9,1c0,0.7-0.3,1-0.9,1h-0.3c-0.4,0-0.6,0-0.8-0.1c0,1.6-0.2,2.3-0.4,2.7c-0.3,0.8-0.7,1.5-1.9,2.4
		c-1.1,0.8-2.7,1.4-4.9,1.4c-2.3,0-3.9-1.6-3.9-4c0-1.3,0.7-2.8,1.1-3.4c0.2-0.3,0.4-0.5,0.6-0.5c0.1,0,0.1,0,0.1,0.1
		c0,0.1-0.1,0.3-0.2,0.6c-0.4,0.8-0.8,1.5-0.8,2.4c0,1.7,2,2.6,3.5,2.6c2.4,0,5-0.9,5.7-2.3c0,0,0.1-0.2,0.1-0.3
		c0-1.7-0.3-2.4-0.8-3.3C223.2,55,223.2,54.9,223.2,54.8z M221.1,50.3c0.1,0,0.1,0.1,0,0.2c-0.2,0.3-0.9,1.1-1.3,1.5
		c-0.1,0.1-0.1,0.1-0.2,0c-0.4-0.2-1.3-0.9-1.5-1.3c-0.1-0.1-0.1-0.1,0-0.2c0.3-0.5,0.8-1,1.2-1.4c0.2-0.2,0.2-0.2,0.3-0.1
		C219.8,49.3,220.4,49.9,221.1,50.3z"/>
	<path d="M231.3,43.1c0.1,0,0.1,0,0.1,0c0,0.5-0.2,1-0.5,1.2l-3.7,2.1c-0.1,0-0.1,0-0.1,0c0-0.3,0.1-0.7,0.2-0.9
		c0.1-0.2,0.3-0.3,0.6-0.5L231.3,43.1z"/>
	<path d="M227,52.8c0-0.5,0.2-1.5,0.6-2.2c0.6-1.3,1.7-1.9,2.6-1.9c0.6,0,1.8,0.4,2.5,0.9c0.2,0.2,0.3,0.3,0.3,0.4
		c0,0.1-0.1,0.1-0.2,0.1c-0.4,0-0.9-0.1-1.4-0.1c-1,0-3.2,0.9-3.3,1.5c0,0.4,1.2,2,2.9,2h0.1c1.1-0.4,2.5-1,3.3-1.4
		c0.4-0.2,0.6-0.3,0.7-0.3c0.1,0,0.1,0,0.1,0.1c0,0.2-0.5,1.1-0.7,1.5c-0.1,0.1-0.2,0.2-0.4,0.4c-0.6,0.4-1.6,0.8-2.9,1.4
		c-1.3,0.6-4.1,1.6-5.3,1.6h-0.2c-0.6,0-0.9-0.3-0.9-1c0-0.7,0.3-1,0.9-1h0.2c0.2,0,1.1,0,1.8-0.3C227.3,54,227,53.5,227,52.8z"/>
	<path d="M248.9,68.3c0.1,0,0.1,0,0.1,0c0,0.5-0.2,1-0.5,1.2l-3.7,2.1c-0.1,0-0.1,0-0.1,0c0-0.3,0.1-0.7,0.2-0.9
		c0.1-0.2,0.3-0.3,0.6-0.5L248.9,68.3z"/>
	<path d="M249.8,59.1c0.1,0,0.1,0.1,0,0.2c-0.2,0.3-0.9,1.1-1.3,1.5c-0.1,0.1-0.1,0.1-0.2,0c-0.4-0.2-1.3-0.9-1.6-1.3
		c-0.1-0.1-0.1-0.1,0-0.2c0.3-0.5,0.8-1,1.2-1.4c0.2-0.2,0.2-0.2,0.3-0.1C248.5,58.1,249.2,58.7,249.8,59.1z"/>
	<path d="M254.9,53.8c0.1,0,0.1,0,0.1,0c0,0.5-0.2,1-0.5,1.2l-3.7,2.1c-0.1,0-0.1,0-0.1,0c0-0.3,0.1-0.7,0.2-0.9
		c0.1-0.2,0.3-0.3,0.6-0.5L254.9,53.8z"/>
	<path d="M250.2,40.3c0.2-0.2,0.2-0.2,0.3-0.1c0.4,0.5,0.9,1,1.4,1.3c0.1,0.1,0.1,0.1,0,0.3c-0.4,0.4-0.8,0.9-1.2,1.4
		c-0.1,0.1-0.1,0.1-0.3,0c-0.3-0.3-0.8-0.7-1.3-1.1c-0.3,0.3-0.8,0.9-1,1c-0.1,0.1-0.2,0.1-0.3,0c-0.5-0.3-1-0.8-1.4-1.2
		c-0.1-0.1-0.1-0.2,0-0.3c0.3-0.4,0.8-0.9,1.2-1.4c0.1-0.1,0.2-0.1,0.3,0c0.3,0.4,0.9,0.9,1.3,1.1C249.5,41.1,250,40.5,250.2,40.3z"
		/>
	<path d="M246,52.9c-1.3-0.1-2.7-0.1-4,0c-0.1,0-0.2,0-0.2-0.2c0-0.6,0.5-2,0.7-2.2c0.2-0.3,0.6-0.6,1.2-1c1.7-0.9,3.5-2.2,4.3-4.3
		c0.2-0.6,0.8-1.1,1.2-1.1c0.5,0,1.1,1,1.1,2.2c0,0.2,0,0.4,0,0.6c-0.1,0.4-0.3,0.7-0.4,0.7c-0.1,0-0.2,0-0.3-0.4
		c-0.1-0.5-0.4-1-0.8-1c-0.3,0-0.6,0.2-0.9,0.9c-0.8,1.5-1.8,2.7-2.7,3.4c1.5,0.1,3,0.2,4.5,0.2c1.8,0,3.2-0.1,4.1-0.2
		c0.1,0,0.2,0,0.1,0.3c-0.1,0.3-0.5,0.9-1.2,1.7c0,0-0.1,0.1-0.2,0.1c-1,0-1.9,0.1-2.8,0.2c-0.6,0.1-1.1,0.3-1.6,0.4
		c-4,1.4-5.7,4.5-5.7,6.3c0,3.1,2.6,5.5,9.2,5.5c1,0,2.3,0,3.5-0.2c0.6-0.1,0.7,0,0.7,0.1c0,0.1-0.4,0.4-0.7,0.5
		c-0.9,0.4-3.6,1.5-6.2,1.5c-1.5,0-3.2-0.3-4.6-1.2c-1.9-1.3-2.6-3.1-2.6-5.1C241.5,57.4,243.5,54.1,246,52.9z"/>
	<path d="M261.1,56.8c-0.6,0-1.1-0.1-1.5-0.4c-0.6-0.5-1-1.5-1.1-2.8c-0.1-1-0.2-2.1-0.3-3.3c-0.1-1.8-0.2-4.6-0.5-6.2
		c0-0.1,0-0.2,0-0.2c0-0.1,0-0.2,0.1-0.4c0.3-0.4,0.5-0.7,0.6-1.1c0.1-0.3,0.2-0.3,0.3-0.3c0.1,0,0.2,0.2,0.2,0.6
		c0.4,3.1,0.1,7.5,0.5,9.9c0.1,0.6,0.2,0.8,0.3,1.2c0.2,0.5,0.7,0.8,1.3,0.9c0.7,0,1.1,0.3,1.1,1c0,0.8-0.4,1.1-1,1.1H261.1z"/>
	<path d="M262.3,45.7c-0.7,0-1-0.6-1-1.4c0-0.2,0-0.4,0.1-0.7c0-0.2,0.2-0.7,0.4-0.7c0.1,0,0.2,0.2,0.2,0.5v0.2
		c0,0.3,0.2,0.5,0.6,0.5h0c0.4,0,0.7-0.3,0.8-0.9c0-0.2,0.2-1,0.5-1c0.1,0,0.2,0.1,0.2,0.5c0,0.2,0.1,0.3,0.3,0.3
		c0.4,0,0.7-0.3,0.8-0.7c0.1-0.6,0.2-0.8,0.4-0.8c0.2,0,0.3,0.6,0.3,1c0,0.3,0,0.5-0.1,0.9c-0.2,0.6-0.6,1.1-1.4,1.1
		c-0.2,0-0.3-0.1-0.4-0.1c-0.1,0-0.1,0-0.2,0.1C263.4,45.2,263,45.7,262.3,45.7z M265.8,39.5C265.9,39.5,265.9,39.6,265.8,39.5
		c0,0.4-0.1,0.8-0.4,1.1c-0.1,0.1-0.2,0.2-0.4,0.3l-3.6,1.7c0,0-0.1,0-0.1,0c0-0.1,0.1-0.4,0.2-0.7c0.1-0.3,0.2-0.4,0.3-0.4
		c0.1-0.1,0.2-0.1,0.3-0.2L265.8,39.5z"/>
	<path d="M265.4,53.5c0,0.5,0.5,1.1,1.2,1.2c0.2,0,0.3,0,0.4,0h0.1c0.8,0,0.8,0.6,0.8,0.9c0,0.3,0,1.1-0.7,1.1H267
		c-0.1,0-0.3,0-0.5,0c-1.4-0.1-1.9-1.3-1.9-1.5c-0.2,0.5-1.3,1.5-3.3,1.5h-0.1c-0.6,0-0.9-0.5-0.9-1c0-0.5,0.3-1,0.9-1h0.6
		c0.9,0,2.2-0.1,2.9-1.4c0.2-0.4,0.3-0.5,0.4-0.5C265.3,52.8,265.4,53,265.4,53.5z M266.1,48.2c0.1,0,0.1,0.1,0,0.2
		c-0.2,0.3-0.9,1.1-1.3,1.5c-0.1,0.1-0.1,0.1-0.2,0c-0.4-0.2-1.3-0.9-1.5-1.3c-0.1-0.1-0.1-0.1,0-0.2c0.3-0.5,0.8-1,1.2-1.4
		c0.2-0.2,0.2-0.2,0.3-0.1C264.9,47.3,265.5,47.8,266.1,48.2z"/>
	<path d="M269.3,55.8c-0.5,0.6-1.1,0.9-2,0.9H267c-0.6,0-0.9-0.4-0.9-1.1c0-0.6,0.3-1,0.9-1h0.2c0.5,0,0.9-0.1,1.3-0.2
		c0.3-0.1,0.5-0.2,0.6-0.4c0-1.5-0.6-4.8-0.8-7.9c0-0.4-0.3-1.5-0.3-1.9c0-0.1,0-0.1,0-0.2c0-0.2,0.3-0.8,0.5-1.2
		c0.2-0.5,0.5-0.8,0.6-0.8c0.1,0,0.1,0.1,0.2,0.2c0.2,0.9,0.5,1.3,0.7,1.6c0,0.1,0.1,0.2,0.1,0.3c0,0,0,0.1,0,0.1
		c-0.1,0.2-0.3,0.7-0.5,1c0.1,3,0.6,5.5,0.6,7C270.2,53.7,269.9,54.9,269.3,55.8z"/>
	<path d="M274.3,56.8c-0.1,0-0.1-0.1-0.1-0.6c0-2.7-1-10.1-1-11.4c0-0.6,0.4-1.5,0.8-2.2c0.1-0.2,0.3-0.5,0.4-0.5
		c0.1,0,0.1,0.2,0.2,0.7c0.1,1.9,0.6,6.5,0.6,9.8c0,1.3-0.1,2.4-0.3,3.1C274.6,56.4,274.4,56.8,274.3,56.8z"/>
</g>
</svg>
