<?xml version="1.0" encoding="utf-8"?>
<!-- Generator: Adobe Illustrator 19.2.0, SVG Export Plug-In . SVG Version: 6.00 Build 0)  -->
<svg version="1.1" id="Layer_1" xmlns="http://www.w3.org/2000/svg" xmlns:xlink="http://www.w3.org/1999/xlink" x="0px" y="0px"
	 viewBox="0 0 52.8 25.6" style="enable-background:new 0 0 52.8 25.6;" xml:space="preserve">
<style type="text/css">
	.st0{fill:#00A99D;}
</style>
<g>
	<path class="st0" d="M2.1,10.5c0.3,0.3,0.4,0.7,0.4,1c0,0.2-0.1,0.6-0.3,0.8c-0.3,0.3-0.6,0.4-0.9,0.4c-0.3,0-0.6-0.1-0.8-0.3
		C0.1,12.1,0,11.8,0,11.4c0-0.3,0.1-0.7,0.4-0.9c0.2-0.2,0.6-0.4,0.9-0.4C1.5,10.2,1.9,10.3,2.1,10.5z M2.1,15.1
		c0.3,0.3,0.4,0.7,0.4,1c0,0.2-0.1,0.6-0.3,0.9c-0.3,0.2-0.6,0.4-1,0.4c-0.3,0-0.6-0.1-0.8-0.3C0.1,16.8,0,16.4,0,16.1
		c0-0.3,0.1-0.6,0.4-0.9c0.2-0.2,0.6-0.4,0.9-0.4C1.5,14.8,1.9,15,2.1,15.1z"/>
	<path class="st0" d="M16.7,10c0.1,0,0.1,0.1,0,0.2c-0.2,0.3-0.9,1.1-1.3,1.5c-0.1,0.1-0.1,0.1-0.2,0c-0.4-0.2-1.3-0.9-1.6-1.3
		c-0.1-0.1-0.1-0.1,0-0.2c0.3-0.5,0.8-1,1.2-1.4C15,8.7,15,8.6,15.1,8.7C15.4,9.1,16.1,9.6,16.7,10z"/>
	<path class="st0" d="M22.9,22.7c0.2-0.2,0.2-0.2,0.3-0.1c0.4,0.5,0.9,1,1.4,1.3c0.1,0.1,0.1,0.1,0,0.3c-0.4,0.4-0.8,0.9-1.2,1.4
		c-0.1,0.1-0.1,0.1-0.3,0c-0.3-0.3-0.8-0.7-1.3-1.1c-0.3,0.3-0.8,0.9-1,1c-0.1,0.1-0.2,0.1-0.3,0c-0.5-0.3-1-0.8-1.4-1.2
		c-0.1-0.1-0.1-0.2,0-0.3c0.3-0.4,0.8-0.9,1.2-1.4c0.1-0.1,0.2-0.1,0.3,0c0.3,0.4,0.9,0.9,1.3,1.1C22.1,23.4,22.6,22.9,22.9,22.7z"
		/>
	<path class="st0" d="M23.3,14.2c0,1.8-1.3,2.8-2.6,2.9h-0.1c0,0.1,0,0.4,0,0.6c0,0.3,0,0.5,0,0.9c0,0.7-0.2,1.3-0.3,1.7
		c-0.4,0.9-0.6,1.3-1.1,1.7c-1.5,1.5-3.6,2.1-5.7,2.1c-1.3,0-2.3-0.3-3.2-1.4c-0.5-0.6-0.8-1.5-0.8-2.6c0-1.2,0.4-2.4,1.1-3.4
		c0.3-0.4,0.5-0.6,0.6-0.6c0.1,0,0.1,0.1,0.1,0.2c0,0.1-0.1,0.3-0.2,0.6c-0.6,1.2-0.7,1.9-0.7,2.4c0,0.8,0.5,1.4,1.2,1.9
		c0.7,0.5,1.6,0.7,2.4,0.7c2.2,0,5.1-0.9,5.7-2.4c-0.1-1.5-0.3-2.1-0.9-3.4c0,0,0-0.1,0-0.1c0-0.4,0.3-1.2,0.5-1.7
		c0-0.1,0.1-0.2,0.2-0.2c0.1,0,0.1,0.1,0.1,0.1c0.4,0.5,0.8,0.8,1.3,0.9c0.1,0,0.1,0,0.2,0c0.7,0,1.4-0.5,1.5-1.5
		c0.1-0.4,0.1-0.6,0.3-0.6c0.2,0,0.4,0.4,0.4,0.9C23.3,13.9,23.3,14,23.3,14.2z"/>
	<path class="st0" d="M24.4,22.4c-0.3-0.1-0.4-0.3-0.4-0.4c0-0.1,0.1-0.1,0.3-0.1c0.2,0,1,0.2,1.6,0.2c0.6,0,1.1-0.1,1.9-0.5
		c2.1-1.1,3.5-2.7,3.5-3.7c0-0.2,0-0.3-0.1-0.6h-0.7c-0.5,0-1.3-0.1-1.9-0.4c-0.6-0.3-0.9-0.8-0.9-1.4c0-0.5,0.2-1.3,0.5-2
		c0.5-1.1,1.1-2,1.7-2c0.6,0,1.2,0.4,1.6,1c0.4,0.7,0.6,1.6,0.7,2.5h0.9c0.6,0,0.8,0.3,0.8,0.9c0,0.7-0.3,1.1-0.8,1.1l-0.9,0
		c-0.1,3.1-1.2,5.2-3.7,6.1c-0.1,0-0.3,0.1-0.6,0.1C27,23.4,25.6,23,24.4,22.4z M29.9,13.8c-0.1-0.1-0.3-0.2-0.5-0.2
		c-0.4,0-0.7,0.5-0.7,0.7c0,0.2,0.2,0.4,0.7,0.6c0.4,0.1,0.8,0.2,1,0.2c0.1,0,0.2,0,0.2-0.1C30.7,14.8,30.3,14.1,29.9,13.8z"/>
	<path class="st0" d="M37.1,13.8c0,0.5,0.5,1.1,1.2,1.2c0.2,0,0.3,0,0.4,0h0.1c0.8,0,0.8,0.6,0.8,0.9c0,0.3,0,1.1-0.7,1.1h-0.2
		c-0.1,0-0.3,0-0.5,0c-1.4-0.1-1.9-1.3-1.9-1.5c-0.2,0.5-1.3,1.5-3.3,1.5h-0.1c-0.6,0-0.9-0.5-0.9-1c0-0.5,0.3-1,0.9-1h0.6
		c0.9,0,2.2-0.1,2.9-1.4c0.2-0.4,0.3-0.5,0.4-0.5C37,13.2,37.1,13.4,37.1,13.8z M37.8,8.6c0.1,0,0.1,0.1,0,0.2
		c-0.2,0.3-0.9,1.1-1.3,1.5c-0.1,0.1-0.1,0.1-0.2,0C35.9,10,35,9.4,34.8,9c-0.1-0.1-0.1-0.1,0-0.2c0.3-0.5,0.8-1,1.2-1.4
		c0.2-0.2,0.2-0.2,0.3-0.1C36.6,7.6,37.2,8.2,37.8,8.6z"/>
	<path class="st0" d="M40.1,6.2c-0.7,0-1-0.6-1-1.4c0-0.2,0-0.4,0.1-0.7c0-0.2,0.2-0.7,0.4-0.7c0.1,0,0.2,0.2,0.2,0.5v0.2
		c0,0.3,0.2,0.5,0.6,0.5h0c0.4,0,0.7-0.3,0.8-0.9c0-0.2,0.2-1,0.5-1c0.1,0,0.2,0.1,0.2,0.5c0,0.2,0.1,0.3,0.3,0.3
		c0.4,0,0.7-0.3,0.8-0.7c0.1-0.6,0.2-0.8,0.4-0.8c0.2,0,0.3,0.6,0.3,1c0,0.3,0,0.5-0.1,0.9C43.4,4.6,43,5,42.2,5
		C42,5,41.9,5,41.8,4.9c-0.1,0-0.1,0-0.2,0.1C41.2,5.7,40.8,6.2,40.1,6.2z M43.6,0C43.7,0,43.7,0,43.6,0c0,0.4-0.1,0.8-0.4,1.1
		c-0.1,0.1-0.2,0.2-0.4,0.3L39.2,3c0,0-0.1,0-0.1,0c0-0.1,0.1-0.4,0.2-0.7C39.5,2,39.5,2,39.6,1.9c0.1-0.1,0.2-0.1,0.3-0.2L43.6,0z"
		/>
	<path class="st0" d="M43,13.8c0,0.5,0.5,1.1,1.2,1.2c0.2,0,0.3,0,0.4,0h0.1c0.8,0,0.8,0.6,0.8,0.9c0,0.3,0,1.1-0.7,1.1h-0.2
		c-0.1,0-0.3,0-0.5,0c-1.4-0.1-1.9-1.3-1.9-1.5c-0.2,0.5-1.3,1.5-3.3,1.5h-0.1c-0.6,0-0.9-0.5-0.9-1c0-0.5,0.3-1,0.9-1h0.6
		c0.9,0,2.2-0.1,2.9-1.4c0.2-0.4,0.3-0.5,0.4-0.5C43,13.2,43,13.4,43,13.8z M42.8,7.7c0.2-0.2,0.2-0.2,0.3-0.1
		c0.4,0.5,0.9,1,1.4,1.3c0.1,0.1,0.1,0.1,0,0.3c-0.4,0.4-0.8,0.9-1.2,1.4c-0.1,0.1-0.1,0.1-0.3,0c-0.3-0.3-0.8-0.7-1.3-1.1
		c-0.3,0.3-0.8,0.9-1,1c-0.1,0.1-0.2,0.1-0.3,0c-0.5-0.3-1-0.8-1.4-1.2C39,9.2,39,9.2,39.1,9c0.3-0.4,0.8-0.9,1.2-1.4
		c0.1-0.1,0.2-0.1,0.3,0c0.3,0.4,0.9,0.9,1.3,1.1C42.1,8.5,42.6,7.9,42.8,7.7z"/>
	<path class="st0" d="M46.9,16.2c-0.5,0.6-1,0.9-2,0.9h-0.2c-0.6,0-0.9-0.4-0.9-1.1c0-0.6,0.3-1,0.9-1h0.2c0.5,0,0.9-0.1,1.3-0.2
		c0.3-0.1,0.5-0.2,0.6-0.4c0-1.5-0.6-4.8-0.8-7.9c0-0.4-0.3-1.5-0.3-1.9c0-0.1,0-0.1,0-0.2c0-0.2,0.3-0.8,0.5-1.2
		c0.2-0.5,0.5-0.8,0.6-0.8c0.1,0,0.1,0.1,0.2,0.2c0.2,0.9,0.5,1.3,0.7,1.6c0,0.1,0.1,0.2,0.1,0.3c0,0,0,0.1,0,0.1
		c-0.1,0.2-0.3,0.7-0.5,1c0.1,3,0.6,5.5,0.6,7C47.8,14.1,47.5,15.3,46.9,16.2z"/>
	<path class="st0" d="M51.9,17.1c-0.1,0-0.1-0.1-0.1-0.6c0-2.7-1-10.1-1-11.4c0-0.6,0.4-1.5,0.8-2.2c0.1-0.2,0.3-0.5,0.4-0.5
		c0.1,0,0.1,0.2,0.2,0.7c0.1,1.9,0.6,6.5,0.6,9.8c0,1.3-0.1,2.4-0.3,3.1C52.2,16.8,52.1,17.1,51.9,17.1z"/>
</g>
</svg>
