<?xml version="1.0" encoding="utf-8"?>
<!-- Generator: Adobe Illustrator 19.2.0, SVG Export Plug-In . SVG Version: 6.00 Build 0)  -->
<svg version="1.1" id="Layer_1" xmlns="http://www.w3.org/2000/svg" xmlns:xlink="http://www.w3.org/1999/xlink" x="0px" y="0px"
	 viewBox="0 0 98.8 20.9" style="enable-background:new 0 0 98.8 20.9;" xml:space="preserve">
<style type="text/css">
	.st0{fill:#00A99D;}
</style>
<g>
	<path class="st0" d="M2.1,8c0.3,0.3,0.4,0.7,0.4,1c0,0.2-0.1,0.6-0.3,0.8c-0.3,0.3-0.6,0.4-0.9,0.4c-0.3,0-0.6-0.1-0.8-0.3
		C0.1,9.6,0,9.3,0,8.9C0,8.6,0.1,8.3,0.4,8c0.2-0.2,0.6-0.4,0.9-0.4C1.5,7.7,1.9,7.8,2.1,8z M2.1,12.7c0.3,0.3,0.4,0.7,0.4,1
		c0,0.2-0.1,0.6-0.3,0.9c-0.3,0.2-0.6,0.4-1,0.4c-0.3,0-0.6-0.1-0.8-0.3C0.1,14.3,0,14,0,13.6c0-0.3,0.1-0.6,0.4-0.9
		c0.2-0.2,0.6-0.4,0.9-0.4C1.5,12.4,1.9,12.5,2.1,12.7z"/>
	<path class="st0" d="M13.3,1.1C13.4,1,13.5,0.9,13.6,1c0.4,0.5,0.9,1,1.4,1.3c0.1,0.1,0.1,0.1,0,0.3c-0.4,0.4-0.8,0.9-1.2,1.4
		c-0.1,0.1-0.1,0.1-0.3,0c-0.3-0.3-0.8-0.7-1.3-1.1c-0.3,0.3-0.8,0.9-1,1C11.1,4,11,4.1,10.8,4c-0.5-0.3-1-0.8-1.4-1.2
		c-0.1-0.1-0.1-0.2,0-0.3c0.3-0.4,0.8-0.9,1.2-1.4C10.8,1,10.9,1,11,1.1c0.3,0.4,0.9,0.9,1.3,1.1C12.5,1.9,13,1.3,13.3,1.1z
		 M15.9,12.2c0.4,0.3,0.8,0.4,1.1,0.4h0.3c0.6,0,0.9,0.3,0.9,0.9c0,0.7-0.3,1.1-1,1.1H17c-0.7,0-1.4-0.3-2-0.8
		c-0.6-0.5-1-1.4-1.2-2.7c-0.2,0.3-0.4,0.6-0.7,0.9c-0.6,0.4-1.4,0.5-2.3,0.5c-0.7,0-1.2-0.1-1.2-0.6c0.3-2,0.5-2.3,1.5-3.1
		c0.4-0.3,1.6-1.1,2.1-1.4c0-0.2,0-0.3,0-0.5c0-0.5,0.1-0.7,0.3-1.1c0.1-0.2,0.3-0.4,0.4-0.4c0.1,0,0.2,0.1,0.2,0.5
		c0.3,1.8,0.5,3.4,0.7,4.3C14.8,11,15.2,11.7,15.9,12.2z M13.2,8.6c-0.8,0.5-2.2,1.4-2.3,1.7c0,0.1,0.3,0.2,0.7,0.2
		c0.6,0,1.4-0.1,1.9-0.4C13.4,9.5,13.4,9.2,13.2,8.6z"/>
	<path class="st0" d="M21.3,11.4c0,0.5,0.5,1.1,1.2,1.2c0.2,0,0.3,0,0.4,0H23c0.8,0,0.8,0.6,0.8,0.9c0,0.3,0,1.1-0.7,1.1h-0.2
		c-0.1,0-0.3,0-0.5,0c-1.4-0.1-1.9-1.3-1.9-1.5c-0.2,0.5-1.3,1.5-3.3,1.5h-0.1c-0.6,0-0.9-0.5-0.9-1c0-0.5,0.3-1,0.9-1h0.6
		c0.9,0,2.2-0.1,2.9-1.4c0.2-0.4,0.3-0.5,0.4-0.5C21.2,10.7,21.3,10.9,21.3,11.4z M22,6.1c0.1,0,0.1,0.1,0,0.2
		c-0.2,0.3-0.9,1.1-1.3,1.5c-0.1,0.1-0.1,0.1-0.2,0c-0.4-0.2-1.3-0.9-1.5-1.3c-0.1-0.1-0.1-0.1,0-0.2c0.3-0.5,0.8-1,1.2-1.4
		c0.2-0.2,0.2-0.2,0.3-0.1C20.7,5.2,21.4,5.7,22,6.1z"/>
	<path class="st0" d="M33.2,0.5C33.3,0.5,33.3,0.5,33.2,0.5c0.1,0.4-0.4,1.2-0.5,1.5c0,0.1-0.1,0.1-0.2,0.1c-0.6,0.2-5.2,2-7.3,3.4
		c2,1,3.9,3.4,3.9,4.8c0,1.4-0.4,2.4-1.2,3.2c-1.3,0.7-2.9,1.1-4.9,1.1h-0.2c-0.4,0-0.6-0.5-0.6-1c0-0.6,0.3-1,0.6-1h0.2
		c2.7,0,4.9-0.6,5.3-1c0-1.3-2.1-3.3-3.8-4.2C24.4,7.3,24.2,7.2,24,7c-0.1-0.2-0.1-0.4-0.1-0.8c0-0.5,0.1-1,0.3-1.2
		c0.6-0.6,1.3-1.1,2.6-1.8c2.5-1.4,5.1-2.3,6-2.6C32.9,0.5,33.1,0.5,33.2,0.5z"/>
	<path class="st0" d="M38.1,14.6c-0.6,0-1.1-0.1-1.5-0.4c-0.6-0.5-1-1.5-1.1-2.8c-0.1-1-0.2-2.1-0.3-3.3C35.1,6.3,35,3.6,34.7,2
		c0-0.1,0-0.2,0-0.2c0-0.1,0-0.2,0.1-0.4c0.3-0.4,0.5-0.7,0.6-1.1c0.1-0.3,0.2-0.3,0.3-0.3c0.1,0,0.2,0.2,0.2,0.6
		c0.4,3.1,0.1,7.5,0.5,9.9c0.1,0.6,0.2,0.8,0.3,1.2c0.2,0.5,0.7,0.8,1.3,0.9c0.7,0,1.1,0.3,1.1,1c0,0.8-0.4,1.1-1,1.1H38.1z"/>
	<path class="st0" d="M43.5,7.3c-0.3,0-0.6-0.1-0.8-0.4c-0.2-0.3-0.3-0.7-0.3-1s0-0.6,0.2-0.9c0.1-0.3,0.3-0.7,0.6-0.7
		c0.1,0,0.1,0.1,0.1,0.2c0,0.2-0.1,0.3-0.1,0.6c0,0.4,0.3,0.6,0.7,0.6c0.4,0,0.6-0.3,0.8-0.8c0.3-0.6,0.6-0.9,0.8-0.9
		c0.1,0,0.1,0.1,0.1,0.3c0,0.1,0,0.2,0,0.3c0,0.3,0.1,0.4,0.5,0.4c0.3,0,0.5-0.2,0.8-0.6c0.2-0.5,0.3-0.6,0.5-0.6
		c0.1,0,0.1,0.3,0.1,0.4c0,0.5-0.1,1-0.4,1.5c-0.2,0.4-0.6,0.8-1.2,0.8c-0.4,0-0.5-0.1-0.7-0.3c-0.1-0.1-0.2,0-0.3,0.1
		C44.4,7.1,43.9,7.3,43.5,7.3z"/>
	<path class="st0" d="M46,10.6c0.1,0,0.2,0.1,0.2,0.4c0,0.1,0,0.2,0,0.4c0,0.6,0.5,1,1,1c0.9,0,1.4-0.9,1.7-1.6
		c0-0.1,0.1-0.3,0.3-0.3c0.1,0,0.2,0.1,0.2,0.6c0.1,0.9,0.6,1.5,1.4,1.5h0.3c0.6,0,1,0.3,1,0.9c0,0.7-0.3,1.1-1,1.1h-0.3
		c-1.2,0-1.7-0.6-1.9-1.7c-0.3,0.8-1,1.7-2,1.7c-0.9,0-1.4-0.8-1.5-1.7c-0.4,1-1.4,1.7-2.4,1.7c-1.1,0-1.8-0.4-2.1-1.4
		c-0.1,0.4-0.4,0.7-0.7,1c-0.3,0.3-1,0.4-1.9,0.4h-0.2c-0.6,0-0.9-0.4-0.9-1.1c0-0.6,0.3-1,0.9-1h0.3c1.4,0,2.4-0.5,2.8-1.5
		c0-0.1,0.2-0.3,0.3-0.3c0.1,0,0.2,0.2,0.2,0.5c0,0.8,0.7,1.2,1.6,1.2c1.1,0,1.9-0.5,2.5-1.6C45.8,10.8,45.9,10.6,46,10.6z"/>
	<path class="st0" d="M53,13.7c-0.5,0.6-1,0.9-2,0.9h-0.2c-0.6,0-0.9-0.4-0.9-1.1c0-0.6,0.3-1,0.9-1H51c0.5,0,0.9-0.1,1.3-0.2
		c0.3-0.1,0.5-0.2,0.6-0.4c0-1.5-0.6-4.8-0.8-7.9c0-0.4-0.3-1.5-0.3-1.9c0-0.1,0-0.1,0-0.2c0-0.2,0.3-0.8,0.5-1.2
		C52.4,0.4,52.7,0,52.8,0c0.1,0,0.1,0.1,0.2,0.2c0.2,0.9,0.5,1.3,0.7,1.6c0,0.1,0.1,0.2,0.1,0.3c0,0,0,0.1,0,0.1
		c-0.1,0.2-0.3,0.7-0.5,1c0.1,3,0.6,5.5,0.6,7C53.9,11.6,53.6,12.8,53,13.7z"/>
	<path class="st0" d="M58,14.7c-0.1,0-0.1-0.1-0.1-0.6c0-2.7-1-10.1-1-11.4c0-0.6,0.4-1.5,0.8-2.2C57.8,0.3,58,0,58.1,0
		c0.1,0,0.1,0.2,0.2,0.7c0.1,1.9,0.6,6.5,0.6,9.8c0,1.3-0.1,2.4-0.3,3.1C58.3,14.3,58.2,14.7,58,14.7z"/>
	<path class="st0" d="M67.5,15.3c-0.8-0.7-1.2-1.8-1.2-3c0-1.3,0.8-2.9,1.2-3.5c0.2-0.3,0.3-0.4,0.4-0.4C68,8.4,68,8.4,68,8.5
		C68,8.6,68,8.8,67.9,9c-0.4,0.8-0.8,1.6-0.8,2.6c0,0.8,0.5,1.4,1.2,1.9c0.7,0.5,1.5,0.7,2.4,0.7c2.2,0,5.1-0.9,5.7-2.4
		c0-0.1,0-0.3,0-0.4c0-1-0.3-2-0.8-2.8c-0.2-0.3-0.4-0.6-0.4-0.7c0,0,0-0.1,0-0.1c0-0.2,0.1-0.4,0.1-0.7c0.1-0.4,0.2-0.7,0.4-1
		c0.1-0.1,0.1-0.2,0.2-0.2c0,0,0.1,0,0.2,0.2c0.6,1.3,1.1,2.6,1.1,4.2c0,1.2-0.1,2-0.3,2.4c-0.3,0.8-0.5,1.2-1,1.6
		c-0.4,0.4-1.2,1.1-2.2,1.5c-1,0.4-2.2,0.6-3.7,0.6C69.1,16.2,68.2,16,67.5,15.3z M73.3,2.9c0.1,0,0.1,0.1,0,0.2
		c-0.2,0.3-0.9,1.1-1.3,1.5c-0.1,0.1-0.1,0.1-0.2,0c-0.4-0.2-1.3-0.9-1.5-1.3c-0.1-0.1-0.1-0.1,0-0.2c0.3-0.5,0.8-1,1.2-1.4
		c0.2-0.2,0.2-0.2,0.3-0.1C72,2,72.7,2.5,73.3,2.9z"/>
	<path class="st0" d="M76.4,20c-0.3-0.1-0.4-0.3-0.4-0.4c0-0.1,0.1-0.1,0.3-0.1c0.2,0,1,0.2,1.6,0.2c0.6,0,1.1-0.1,1.9-0.5
		c2.1-1.1,3.5-2.7,3.5-3.7c0-0.2,0-0.3-0.1-0.6h-0.7c-0.5,0-1.3-0.1-1.9-0.4C80,14,79.8,13.5,79.8,13c0-0.5,0.2-1.3,0.5-2
		c0.5-1.1,1.1-2,1.7-2c0.6,0,1.2,0.4,1.6,1c0.4,0.7,0.6,1.6,0.7,2.5h0.9c0.6,0,0.8,0.3,0.8,0.9c0,0.7-0.3,1.1-0.8,1.1l-0.9,0
		c-0.1,3.1-1.2,5.2-3.7,6.1c-0.1,0-0.3,0.1-0.6,0.1C79,20.9,77.6,20.5,76.4,20z M81.9,11.3c-0.1-0.1-0.3-0.2-0.5-0.2
		c-0.4,0-0.7,0.5-0.7,0.7c0,0.2,0.2,0.4,0.7,0.6c0.4,0.1,0.8,0.2,1,0.2c0.1,0,0.2,0,0.2-0.1C82.7,12.3,82.3,11.7,81.9,11.3z"/>
	<path class="st0" d="M89.1,11.4c0,0.5,0.5,1.1,1.2,1.2c0.2,0,0.3,0,0.4,0h0.1c0.8,0,0.8,0.6,0.8,0.9c0,0.3,0,1.1-0.7,1.1h-0.2
		c-0.1,0-0.3,0-0.5,0c-1.4-0.1-1.9-1.3-1.9-1.5c-0.2,0.5-1.3,1.5-3.3,1.5h-0.1c-0.6,0-0.9-0.5-0.9-1c0-0.5,0.3-1,0.9-1h0.6
		c0.9,0,2.2-0.1,2.9-1.4c0.2-0.4,0.3-0.5,0.4-0.5C89,10.7,89.1,10.9,89.1,11.4z M89.8,6.1c0.1,0,0.1,0.1,0,0.2
		c-0.2,0.3-0.9,1.1-1.3,1.5c-0.1,0.1-0.1,0.1-0.2,0c-0.4-0.2-1.3-0.9-1.5-1.3c-0.1-0.1-0.1-0.1,0-0.2c0.3-0.5,0.8-1,1.2-1.4
		c0.2-0.2,0.2-0.2,0.3-0.1C88.6,5.2,89.2,5.7,89.8,6.1z"/>
	<path class="st0" d="M92.9,13.7c-0.5,0.6-1.1,0.9-2,0.9h-0.2c-0.6,0-0.9-0.4-0.9-1.1c0-0.6,0.3-1,0.9-1h0.2c0.5,0,0.9-0.1,1.3-0.2
		c0.3-0.1,0.5-0.2,0.6-0.4c0-1.5-0.6-4.8-0.8-7.9c0-0.4-0.3-1.5-0.3-1.9c0-0.1,0-0.1,0-0.2c0-0.2,0.3-0.8,0.5-1.2
		C92.4,0.4,92.6,0,92.8,0c0.1,0,0.1,0.1,0.2,0.2c0.2,0.9,0.5,1.3,0.7,1.6c0,0.1,0.1,0.2,0.1,0.3c0,0,0,0.1,0,0.1
		c-0.1,0.2-0.3,0.7-0.5,1c0.1,3,0.6,5.5,0.6,7C93.8,11.6,93.5,12.8,92.9,13.7z"/>
	<path class="st0" d="M97.9,14.7c-0.1,0-0.1-0.1-0.1-0.6c0-2.7-1-10.1-1-11.4c0-0.6,0.4-1.5,0.8-2.2C97.7,0.3,97.9,0,98,0
		c0.1,0,0.1,0.2,0.2,0.7c0.1,1.9,0.6,6.5,0.6,9.8c0,1.3-0.1,2.4-0.3,3.1C98.3,14.3,98.1,14.7,97.9,14.7z"/>
</g>
</svg>
