<?xml version="1.0" encoding="utf-8"?>
<!-- Generator: Adobe Illustrator 19.2.0, SVG Export Plug-In . SVG Version: 6.00 Build 0)  -->
<svg version="1.1" id="Layer_1" xmlns="http://www.w3.org/2000/svg" xmlns:xlink="http://www.w3.org/1999/xlink" x="0px" y="0px"
	 viewBox="0 0 283.5 71.5" style="enable-background:new 0 0 283.5 71.5;" xml:space="preserve">
<style type="text/css">
	.st0{fill:#002F3D;}
	.st1{fill:#C1272D;}
</style>
<g>
	<path class="st0" d="M11.4,29.2c0.1,0,0.1,0,0.1,0c0,0.5-0.2,1-0.5,1.2l-3.7,2.1c-0.1,0-0.1,0-0.1,0c0-0.3,0.1-0.7,0.2-0.9
		c0.1-0.2,0.3-0.3,0.6-0.5L11.4,29.2z"/>
	<path class="st0" d="M0,25.4c0-1.3,0.7-2.8,1.1-3.4c0.2-0.3,0.4-0.5,0.6-0.5c0.1,0,0.1,0,0.1,0.1c0,0.1-0.1,0.3-0.2,0.6
		c-0.4,0.8-0.8,1.5-0.8,2.4c0,1.7,2,2.6,3.5,2.6c2.4,0,5.2-0.9,5.8-2.5c0-0.2,0-0.4,0-0.5c0-0.9-0.2-1.9-0.7-2.7
		c0-0.1-0.1-0.2-0.1-0.3c0-0.7,0.5-1.9,0.6-2c0,0,0.1-0.1,0.1-0.1c0.1,0,0.1,0.1,0.2,0.3c0.2,0.4,0.5,0.7,0.8,1
		c0.7,0.6,1.4,0.8,1.8,0.9c2.1-2.4,4.9-4.6,6.3-4.6c0.5,0,1.1,0.2,1.6,0.5c0.5,0.3,0.9,0.8,0.9,1.4c0,0.6-0.4,1.8-0.8,2.6
		c0.4-0.1,0.9-0.1,1.4-0.2h0.2c0.6,0,1,0.3,1,1c0,0.7-0.3,1-0.9,1h-0.3c-1.9,0-2.3,0.1-4.6,0.4c-1.1,0.1-2.1,0.2-3.3,0.2
		c-1.2,0-2.3-0.2-3.4-0.7c0,0.9-0.1,2-0.4,2.7c-0.4,1-0.8,1.6-1.8,2.3c-1.1,0.8-2.7,1.4-4.9,1.4C1.7,29.4,0,27.8,0,25.4z M20.6,20.3
		c0-0.2-0.3-0.7-0.7-1c-0.6-0.4-1.2-0.5-1.5-0.5c-1,0-3.1,1-4.6,2.7c0.4,0.1,0.9,0.1,1.5,0.1C17.2,21.6,19.3,21,20.6,20.3
		C20.6,20.3,20.6,20.3,20.6,20.3z"/>
	<path class="st0" d="M22.9,8c0,0-0.1,0-0.1,0c-0.2,0-0.5-0.1-0.7-0.3c-0.2-0.3-0.3-0.6-0.3-1.1c0-0.2,0-0.4,0.1-0.7
		c0.1-0.2,0.2-0.6,0.5-0.6c0.1,0,0.1,0.1,0.1,0.4c0,0.1,0,0.3,0,0.3c0,0.3,0.2,0.5,0.6,0.5h0c0.4,0,0.7-0.3,0.8-0.8
		c0.1-0.2,0.3-0.9,0.6-0.9c0.1,0,0.2,0.1,0.2,0.3v0.1c0,0.2,0.1,0.4,0.3,0.4c0,0,0.1,0,0.1,0c0.3-0.1,0.6-0.3,0.7-0.7
		c0.1-0.5,0.2-0.7,0.4-0.7c0.1,0,0.2,0.1,0.2,0.2c0,0.1,0,0.3,0,0.5c0,0.4-0.1,0.7-0.2,1.1C25.9,6.6,25.5,7,24.9,7
		c-0.2,0-0.4-0.1-0.5-0.2c-0.1,0-0.1,0-0.2,0C23.8,7.6,23.3,7.9,22.9,8z M25.8,0.7c0,0.1,0,0.2,0,0.3c0,0.4-0.1,0.7-0.2,1.1
		c0.2,0.1,0.2,0.2,0.3,0.3c0,0.3-0.1,0.5-0.3,0.8l-0.4-0.3c-0.5,0.7-0.9,1.2-1.2,1.4c-0.3,0.2-0.8,0.4-1.5,0.4
		c-0.4,0-0.4-0.1-0.3-0.1c1.2-0.7,2-1.4,2.4-1.9c-0.3-0.2-0.8-0.5-0.8-1c0-0.3,0.1-0.6,0.5-1C24.6,0.2,24.9,0,25.2,0
		C25.6,0,25.7,0.4,25.8,0.7z M24.4,1.3c0.1,0.1,0.3,0.3,0.6,0.4c0.1-0.1,0.1-0.3,0.1-0.5C25.1,1.1,25,1,24.8,1
		C24.7,1,24.5,1,24.4,1.3z"/>
	<path class="st0" d="M22.3,21h0.2c0.5,0,0.9-0.1,1.2-0.4c0.4-0.4,0.4-1,0.4-1.6c0-1.3-0.1-4.1-0.3-8.2c0-0.5,0.2-0.9,0.5-1.5
		c0.1-0.3,0.3-0.5,0.4-0.5c0.1,0,0.2,0.2,0.2,0.7c0.2,3.1,0.3,7.2,0.6,10.1c0.1,0.6,0.3,1,0.7,1.3c0.3,0.2,0.5,0.3,0.8,0.3h0.2
		c0.6,0,0.9,0.3,0.9,1c0,0.7-0.3,1-0.9,1h-0.3c-1.3,0-2.2-0.9-2.5-2.1c-0.3,1.4-1,2.1-2.2,2.1h-0.2c-0.6,0-0.9-0.4-0.9-1.1
		C21.4,21.3,21.7,21,22.3,21z"/>
	<path class="st0" d="M36.4,7.3c0.1,0,0.1,0,0.1,0c0,0.5-0.2,1-0.5,1.2l-3.7,2.1c-0.1,0-0.1,0-0.1,0c0-0.3,0.1-0.7,0.2-0.9
		c0.1-0.2,0.3-0.3,0.6-0.5L36.4,7.3z"/>
	<path class="st0" d="M39,20c0,0,0,0-0.1,0.1c-0.1,0-0.3,0-0.4,0c-0.5,0-0.7,0-1.3-0.1c0,0.3,0.3,0.6,0.8,0.7
		c0.5,0.2,1.1,0.3,1.7,0.3h1c0.7,0,1,0.3,1,1c0,0.7-0.3,1.1-1,1.1h-0.9c-1.2,0-2-0.3-2.5-0.7c-0.4-0.5-0.6-1.2-0.6-2.3
		c-1.2,0-1.6,0.1-2.1,0.3c-0.4,0.1-0.8,0.3-1.8,0.8c-1.5,0.7-2.5,1.2-3.1,1.5c-0.7,0.3-1.5,0.4-2.3,0.5h-0.3c-0.6,0-1-0.4-1-1
		c0-0.7,0.3-1,1-1h0.3c1.2,0,2.2-0.1,3.1-0.4c0.9-0.2,2-0.6,3.5-1.3c-1.7-0.5-3.1-1-4.1-1c-0.2,0-0.4,0-0.5,0.1
		c-0.2,0.1-0.5,0.3-0.7,0.3c-0.1,0-0.2,0-0.2-0.2c0-0.4,0.4-1,1.1-1.6c0.4-0.4,0.9-0.5,1.3-0.5c0.1,0,0.3,0,0.4,0
		c1.6,0.4,3.7,1.3,5.3,1.6c1.1,0.2,2.3,0.3,3.1,0.3c0.2,0,0.2,0,0.4,0c0.1,0,0.1,0,0.1,0.1C40,18.7,39.4,19.7,39,20z M36.5,13
		c0.1,0,0.1,0.1,0,0.2c-0.2,0.3-0.9,1.1-1.3,1.5c-0.1,0.1-0.1,0.1-0.2,0c-0.4-0.2-1.3-0.9-1.6-1.3c-0.1-0.1-0.1-0.1,0-0.2
		c0.3-0.5,0.8-1,1.2-1.4c0.2-0.2,0.2-0.2,0.3-0.1C35.2,12.1,35.8,12.6,36.5,13z"/>
	<path class="st0" d="M41.7,12.1c-0.7,0-1-0.6-1-1.4c0-0.2,0-0.4,0.1-0.7c0-0.2,0.2-0.7,0.4-0.7c0.1,0,0.2,0.2,0.2,0.5v0.2
		c0,0.3,0.2,0.5,0.6,0.5h0c0.4,0,0.7-0.3,0.8-0.9c0-0.2,0.2-1,0.5-1c0.1,0,0.2,0.1,0.2,0.5c0,0.2,0.1,0.3,0.3,0.3
		c0.4,0,0.7-0.3,0.8-0.7c0.1-0.6,0.2-0.8,0.4-0.8c0.2,0,0.3,0.6,0.3,1c0,0.3,0,0.5-0.1,0.9C45,10.5,44.6,11,43.8,11
		c-0.2,0-0.3-0.1-0.4-0.1c-0.1,0-0.1,0-0.2,0.1C42.8,11.7,42.4,12.1,41.7,12.1z M45.2,6C45.3,5.9,45.3,6,45.2,6
		c0,0.4-0.1,0.8-0.4,1.1c-0.1,0.1-0.2,0.2-0.4,0.3L40.9,9c0,0-0.1,0-0.1,0c0-0.1,0.1-0.4,0.2-0.7c0.1-0.3,0.2-0.4,0.3-0.4
		c0.1-0.1,0.2-0.1,0.3-0.2L45.2,6z"/>
	<path class="st0" d="M44.7,19.8c0,0.5,0.5,1.1,1.2,1.2c0.2,0,0.3,0,0.4,0h0.1c0.8,0,0.8,0.6,0.8,0.9c0,0.3,0,1.1-0.7,1.1h-0.2
		c-0.1,0-0.3,0-0.5,0c-1.4-0.1-1.9-1.3-1.9-1.5c-0.2,0.5-1.3,1.5-3.3,1.5h-0.1c-0.6,0-0.9-0.5-0.9-1c0-0.5,0.3-1,0.9-1h0.6
		c0.9,0,2.2-0.1,2.9-1.4c0.2-0.4,0.3-0.5,0.4-0.5C44.6,19.2,44.7,19.3,44.7,19.8z M44.5,13.7c0.2-0.2,0.2-0.2,0.3-0.1
		c0.4,0.5,0.9,1,1.4,1.3c0.1,0.1,0.1,0.1,0,0.3c-0.4,0.4-0.8,0.9-1.2,1.4c-0.1,0.1-0.1,0.1-0.3,0c-0.3-0.3-0.8-0.7-1.3-1.1
		c-0.3,0.3-0.8,0.9-1,1c-0.1,0.1-0.2,0.1-0.3,0c-0.5-0.3-1-0.8-1.4-1.2c-0.1-0.1-0.1-0.2,0-0.3c0.3-0.4,0.8-0.9,1.2-1.4
		c0.1-0.1,0.2-0.1,0.3,0c0.3,0.4,0.9,0.9,1.3,1.1C43.8,14.5,44.3,13.9,44.5,13.7z"/>
	<path class="st0" d="M46.3,21h0.2c0.5,0,0.9-0.1,1.2-0.4c0.4-0.4,0.4-1,0.4-1.6c0-1.3-0.1-4.1-0.3-8.2c0-0.5,0.2-0.9,0.5-1.5
		c0.1-0.3,0.3-0.5,0.4-0.5c0.1,0,0.2,0.2,0.2,0.7c0.2,3.1,0.3,7.2,0.6,10.1c0.1,0.6,0.3,1,0.7,1.3c0.3,0.2,0.5,0.3,0.8,0.3h0.2
		c0.6,0,0.9,0.3,0.9,1c0,0.7-0.3,1-0.9,1h-0.3c-1.3,0-2.2-0.9-2.5-2.1c-0.3,1.4-1,2.1-2.2,2.1h-0.2c-0.6,0-0.9-0.4-0.9-1.1
		C45.4,21.3,45.7,21,46.3,21z"/>
	<path class="st0" d="M55.5,24.7c0.1,0,0.1,0,0.1,0c0,0.5-0.2,1-0.5,1.2L51.5,28c-0.1,0-0.1,0-0.1,0c0-0.3,0.1-0.7,0.2-0.9
		c0.1-0.2,0.3-0.3,0.6-0.5L55.5,24.7z"/>
	<path class="st0" d="M54.2,18.6c0,1.5-0.3,2.7-0.9,3.6c-0.5,0.6-1.1,0.9-2,0.9h-0.2c-0.6,0-0.9-0.4-0.9-1.1c0-0.6,0.3-1,0.9-1h0.2
		c1,0,1.8-0.3,1.9-0.6v0c0-1.5-0.6-5.4-0.9-8.4c0-0.4-0.3-1.2-0.4-1.5c0-0.1,0-0.1,0-0.2c0,0,0-0.1,0-0.1c0-0.1,0.1-0.3,0.4-0.8
		c0.3-0.5,0.6-0.9,0.8-0.9c0.1,0,0.1,0.1,0.2,0.2c0.2,0.8,0.5,1.3,0.7,1.6c0,0.1,0.1,0.1,0.1,0.2c0,0,0,0.1,0,0.2
		c-0.1,0.2-0.2,0.7-0.4,0.9C53.8,14.7,54.2,17.1,54.2,18.6z"/>
	<path class="st1" d="M65.2,23.1c-0.6,0-1.1-0.1-1.5-0.4c-0.6-0.5-1-1.5-1.1-2.8c-0.1-1-0.2-2.1-0.3-3.3c-0.1-1.8-0.2-4.6-0.5-6.2
		c0-0.1,0-0.2,0-0.2c0-0.1,0-0.2,0.1-0.4c0.3-0.4,0.5-0.7,0.6-1.1c0.1-0.3,0.2-0.3,0.3-0.3c0.1,0,0.2,0.2,0.2,0.6
		c0.4,3.1,0.1,7.5,0.5,9.9c0.1,0.6,0.2,0.8,0.3,1.2c0.2,0.5,0.7,0.8,1.3,0.9c0.7,0,1.1,0.3,1.1,1c0,0.8-0.4,1.1-1,1.1H65.2z"/>
	<path class="st1" d="M75.3,7.9c0,0.5-0.1,0.9-0.3,1.3c0.2,0.1,0.3,0.2,0.3,0.3c0,0.3-0.1,0.7-0.3,0.9c0,0.1-0.1,0.1-0.1,0.1
		l-0.5-0.3c-0.4,0.7-1.1,1.6-2.2,2.1c-0.4,0.2-0.8,0.3-1.3,0.3c-0.2,0-0.4,0-0.4-0.1c0-0.1,0.2-0.2,0.5-0.3c0.8-0.4,2.3-1.6,2.7-2.2
		c-0.4-0.3-0.9-0.6-0.9-1.2c0-0.4,0.2-0.8,0.5-1.2c0.4-0.5,0.7-0.7,1.1-0.7C75.1,6.8,75.3,7.4,75.3,7.9z M73.7,8.3
		C73.7,8.3,73.7,8.4,73.7,8.3c0,0.2,0.4,0.4,0.7,0.6c0.1-0.1,0.1-0.3,0.1-0.6c0-0.3-0.1-0.4-0.3-0.4C74,7.9,73.8,8.1,73.7,8.3z"/>
	<path class="st1" d="M75.4,14.5c0.1,0,0.1,0.1,0,0.2c-0.2,0.3-0.9,1.1-1.3,1.5c-0.1,0.1-0.1,0.1-0.2,0c-0.4-0.2-1.3-0.9-1.6-1.3
		c-0.1-0.1-0.1-0.1,0-0.2c0.3-0.5,0.8-1,1.2-1.4c0.2-0.2,0.2-0.2,0.3-0.1C74.1,13.5,74.8,14,75.4,14.5z"/>
	<path class="st1" d="M70,23c-0.3,1.5,0.4,2.5,0.5,3.5c0,0.4-0.3,1.3-0.5,1.7c-0.1,0.1-0.1,0.2-0.2,0.2c-0.6,0-1.2-0.7-1.5-1.2
		c-0.4-0.7-0.6-1.8-0.6-2.8c0-0.9,0.1-1.8,0.3-2.6c-0.7,0.8-1.6,1.3-2.5,1.3h-0.2c-0.6,0-0.9-0.3-0.9-1c0-0.7,0.3-1,0.9-1h0.2
		c1.8,0,2.9-1.3,3.5-2c0.1-0.1,0.3-0.4,0.5-0.4c0.3,0,0.1,0.6,0.1,0.8c-0.3,0.8-0.9,2.2-0.9,3.6c0,0.5,0.1,1.1,0.3,1.6
		c0.6-3.6,2.4-5.6,4.9-5.6c0.7,0,2.1,0.1,2.1,1.1c0,0.4-0.1,0.9-0.3,1.6c-0.1,0.5-0.2,0.4-1-0.1c-0.5-0.3-0.9-0.4-1.4-0.4
		c-1.1,0-2.4,0.8-3.1,1.5C70.1,22.8,70,23,70,23z"/>
	<path class="st1" d="M75.1,28.4c-0.3-0.1-0.4-0.3-0.4-0.4c0-0.1,0.1-0.1,0.3-0.1c0.2,0,1,0.2,1.6,0.2c0.6,0,1.1-0.1,1.9-0.5
		c2.1-1.1,3.5-2.7,3.5-3.7c0-0.2,0-0.3-0.1-0.6h-0.7c-0.5,0-1.3-0.1-1.9-0.4c-0.6-0.3-0.9-0.8-0.9-1.4c0-0.5,0.2-1.3,0.5-2
		c0.5-1.1,1.1-2,1.7-2c0.6,0,1.2,0.4,1.6,1c0.4,0.7,0.6,1.6,0.7,2.5h0.9c0.6,0,0.8,0.3,0.8,0.9c0,0.7-0.3,1.1-0.8,1.1l-0.9,0
		c-0.1,3.1-1.2,5.2-3.7,6.1c-0.1,0-0.3,0.1-0.6,0.1C77.8,29.3,76.3,28.9,75.1,28.4z M80.7,19.8c-0.1-0.1-0.3-0.2-0.5-0.2
		c-0.4,0-0.7,0.5-0.7,0.7c0,0.2,0.2,0.4,0.7,0.6c0.4,0.1,0.8,0.2,1,0.2c0.1,0,0.2,0,0.2-0.1C81.4,20.8,81.1,20.1,80.7,19.8z"/>
	<path class="st1" d="M94.4,6.8c0.1,0,0.1,0,0.1,0.1c0,0.3-0.4,1.2-0.6,1.5c0,0.1-0.1,0.1-0.1,0.1c-0.7,0.3-4.4,1.8-7.2,3.5
		c-0.5,0.3-1.1,0.7-1.5,1.1c0.6,0.6,1.5,1.2,2.1,1.7c2,1.6,3.3,2.6,4.9,4.2c1.4,1.4,2.3,2,2.7,2H95c0.5,0,0.8,0.3,0.8,1
		c0,0.7-0.3,1.1-0.8,1.1h-0.4c-0.5,0-1.2-0.3-1.9-0.9c-0.5-0.4-1.1-1-2-1.9c-0.9-0.9-1.5-1.5-2-1.8c0,0.4,0.1,0.7,0.1,1
		c0,0.6-0.1,1.1-0.3,1.6c-0.3,0.6-0.8,1.1-1.6,1.4c-1.1,0.4-2.1,0.5-3.1,0.5h-0.2c-0.5,0-0.8-0.4-0.8-1.1c0-0.6,0.3-1,0.9-1
		c0.8,0,1.9-0.1,3.1-0.4c0.8-0.2,1.3-0.5,1.4-1c-0.1-1-1.2-2.3-3.2-4.1c-0.4-0.4-0.6-0.8-0.6-1.2c0-1.6,0.2-2.1,0.5-2.4
		c0.8-0.8,1.5-1.3,2.3-1.8C89.9,8.4,93.9,6.9,94.4,6.8C94.3,6.8,94.4,6.8,94.4,6.8z"/>
	<path class="st1" d="M103.5,10.1c0,0.5-0.1,0.9-0.3,1.3c0.2,0.1,0.3,0.2,0.3,0.3c0,0.3-0.1,0.7-0.3,0.9c0,0.1-0.1,0.1-0.1,0.1
		l-0.5-0.3c-0.4,0.7-1.1,1.6-2.2,2.1c-0.4,0.2-0.8,0.3-1.3,0.3c-0.2,0-0.4,0-0.4-0.1c0-0.1,0.2-0.2,0.5-0.3c0.8-0.4,2.3-1.6,2.7-2.2
		c-0.4-0.3-0.9-0.6-0.9-1.2c0-0.4,0.2-0.8,0.5-1.2c0.4-0.5,0.7-0.7,1.1-0.7C103.3,9,103.5,9.6,103.5,10.1z M101.9,10.5
		C101.9,10.5,101.8,10.5,101.9,10.5c0,0.2,0.4,0.4,0.7,0.6c0.1-0.1,0.1-0.3,0.1-0.6c0-0.3-0.1-0.4-0.3-0.4
		C102.2,10.1,102,10.2,101.9,10.5z"/>
	<path class="st1" d="M97,22.2c-0.6,0.5-1.1,0.9-2.1,0.9h-0.2c-0.6,0-0.9-0.4-0.9-1.1c0-0.6,0.3-1,0.9-1h0.2c0.8,0,1.4-0.1,1.9-0.4
		c0.7-0.3,1.1-0.9,1.5-1.7c0.1-0.1,0.2-0.2,0.3-0.2c0.2,0,0.2,0.2,0.2,0.6c0.1,0.7,0.4,1.3,1.3,1.3c1,0,2-0.9,2.3-1.8
		c0.2-0.5,0.4-0.8,0.6-0.8c0.1,0,0.1,0.1,0.1,0.2c0,0.2-0.1,0.4-0.1,0.7c0,1.1,1,1.6,1.6,1.6c0.2,0,0.6-0.1,0.6-0.4
		c0-0.2-0.1-0.5-0.4-0.9c0,0,0-0.1,0-0.1c0-0.3,0.6-1.3,0.9-1.6c0,0,0.1-0.1,0.2-0.1c0.1,0,0.1,0.1,0.2,0.2c0.2,0.4,0.2,0.8,0.2,1.4
		c0,1.1-0.7,3.5-2.3,3.5c-0.9,0-1.6-0.5-1.9-1.4c-0.7,1.3-1.6,1.7-2.4,1.7c-0.9,0-1.6-0.5-1.8-2C97.7,21.4,97.4,21.8,97,22.2z"/>
	<path class="st1" d="M123.6,4.5c0.1,0,0.1,0,0.1,0c0,0.5-0.2,1-0.5,1.2l-3.7,2.1c-0.1,0-0.1,0-0.1,0c0-0.3,0.1-0.7,0.2-0.9
		c0.1-0.2,0.3-0.3,0.6-0.5L123.6,4.5z"/>
	<path class="st1" d="M124.2,21.2c0,2-0.4,2.5-0.8,3.3c-1.1,1.7-3.2,2.6-5.3,2.6c-3.5,0-4.5-1.9-4.5-3.7c0-1.3,0.4-2.7,1-3.7
		c0.3-0.6,0.5-0.8,0.7-0.8c0.1,0,0.1,0.1,0.1,0.1c0,0.1-0.1,0.4-0.2,0.7c-0.3,0.6-0.6,1.5-0.6,2.2c0,1.6,1.2,3,3.9,3
		c1.9,0,4.4-1.3,4.9-2.3c0-0.1,0.1-0.2,0.1-0.3c-0.1-1.7-0.2-2.8-0.4-4.3c-0.4-2.7-0.4-3.4-0.7-5.9c0-0.4-0.3-1.2-0.3-1.5
		c0-0.1,0-0.1,0-0.2c0,0,0-0.1,0-0.1c0-0.1,0.1-0.3,0.3-0.8c0.2-0.5,0.6-0.9,0.8-0.9c0.1,0,0.1,0.1,0.2,0.2c0.2,0.8,0.5,1.3,0.7,1.6
		c0,0.1,0.1,0.1,0.1,0.2c0,0,0,0.1,0,0.2c-0.1,0.2-0.3,0.7-0.4,1C123.6,14.7,124.2,19.1,124.2,21.2z"/>
	<path class="st1" d="M128.6,23.1c-0.1,0-0.1-0.1-0.1-0.6c0-2.7-1-10.1-1-11.4c0-0.6,0.4-1.5,0.8-2.2c0.1-0.2,0.3-0.5,0.4-0.5
		c0.1,0,0.1,0.2,0.2,0.7c0.1,1.9,0.6,6.5,0.6,9.8c0,1.3-0.1,2.4-0.3,3.1C129,22.7,128.8,23.1,128.6,23.1z"/>
	<path class="st1" d="M138.2,7c0.1,0,0.1,0,0.1,0c0,0.5-0.2,1-0.5,1.2l-3.7,2.1c-0.1,0-0.1,0-0.1,0c0-0.3,0.1-0.7,0.2-0.9
		c0.1-0.2,0.3-0.3,0.6-0.5L138.2,7z"/>
	<path class="st1" d="M138.5,22.4c0,3-1.4,5.4-3.7,6.3c-0.1,0.1-0.3,0.1-0.6,0.1c-0.8,0-2.5-0.4-3.6-1c-0.3-0.1-0.3-0.2-0.3-0.3
		c0-0.1,0.1-0.1,0.3-0.1c0.3,0,0.9,0.1,1.6,0.1c0.6,0,1.1-0.1,1.9-0.5c1-0.4,2.9-2,3.4-3.4c0.1-0.2,0.1-0.5,0.1-0.6
		c0-0.1,0-0.9-0.9-2.1c-0.3-0.4-0.5-0.7-0.7-1.1c0-0.1-0.1-0.1-0.1-0.2c0-0.3,0.4-1.2,0.5-1.5c0.1-0.1,0.1-0.2,0.2-0.2
		c0.4,0,1.2,1.5,1.6,2.8C138.5,21.2,138.5,21.8,138.5,22.4z M137.9,13.1c0.1,0,0.1,0.1,0,0.2c-0.2,0.3-0.9,1.1-1.3,1.5
		c-0.1,0.1-0.1,0.1-0.2,0c-0.4-0.2-1.3-0.9-1.6-1.3c-0.1-0.1-0.1-0.1,0-0.2c0.3-0.5,0.8-1,1.2-1.4c0.2-0.2,0.2-0.2,0.3-0.1
		C136.6,12.1,137.3,12.7,137.9,13.1z"/>
	<path class="st0" d="M150.7,32.5c0.2-0.2,0.2-0.2,0.3-0.1c0.4,0.5,0.9,1,1.4,1.3c0.1,0.1,0.1,0.1,0,0.3c-0.4,0.4-0.8,0.9-1.2,1.4
		c-0.1,0.1-0.1,0.1-0.3,0c-0.3-0.3-0.8-0.7-1.3-1.1c-0.3,0.3-0.8,0.9-1,1c-0.1,0.1-0.2,0.1-0.3,0c-0.5-0.3-1-0.8-1.4-1.2
		c-0.1-0.1-0.1-0.2,0-0.3c0.3-0.4,0.8-0.9,1.2-1.4c0.1-0.1,0.2-0.1,0.3,0c0.3,0.4,0.9,0.9,1.3,1.1C150,33.2,150.5,32.7,150.7,32.5z"
		/>
	<path class="st0" d="M157.2,14.3c0.2-0.2,0.2-0.2,0.3-0.1c0.4,0.5,0.9,1,1.4,1.3c0.1,0.1,0.1,0.1,0,0.3c-0.4,0.4-0.8,0.9-1.2,1.4
		c-0.1,0.1-0.1,0.1-0.3,0c-0.3-0.3-0.8-0.7-1.3-1.1c-0.3,0.3-0.8,0.9-1,1c-0.1,0.1-0.2,0.1-0.3,0c-0.5-0.3-1-0.8-1.4-1.2
		c-0.1-0.1-0.1-0.2,0-0.3c0.3-0.4,0.8-0.9,1.2-1.4c0.1-0.1,0.2-0.1,0.3,0c0.3,0.4,0.9,0.9,1.3,1.1C156.4,15.1,156.9,14.5,157.2,14.3
		z"/>
	<path class="st0" d="M145.6,21.7c0.2-0.3,0.4-0.5,0.6-0.5c0.2,0,0,0.4-0.1,0.7c-0.5,1.1-0.9,2.2-0.9,3.1c0,1.4,0.7,2.4,2,3
		c0.8,0.3,1.5,0.5,2.2,0.5c2.4,0,6.1-1.7,6.8-2.5c0,0,0,0,0-0.1c0-0.2-0.5-0.3-1.4-0.3c-2-0.1-3-0.6-3-1.3c0-1.5,1.1-3.1,2.4-4.2
		c0.9-0.7,1.7-1,2.6-1c0.7,0,1,0.2,1.3,0.8c0.4,0.6,0.8,1.1,1.3,1.1h0.3c0.5,0,0.8,0.3,0.8,1c0,0.7-0.3,1.1-0.8,1.1h-0.3
		c-0.3,0-0.6-0.1-1-0.3c-0.4-0.2-0.7-0.5-0.9-0.8c-0.2-0.3-0.5-0.5-0.6-0.6c-0.2-0.1-0.4-0.2-0.9-0.2c-0.5,0-1.1,0.2-1.8,0.5
		c-0.6,0.4-1.1,0.7-1.3,1.1c-0.1,0.1-0.1,0.2-0.1,0.3c0,0.4,0.6,0.7,1.8,0.9c1.2,0.1,1.9,0.2,2.2,0.4c0.3,0.1,0.4,0.4,0.4,0.8
		c0,0.2,0,0.5-0.1,0.8c-0.8,2.5-5.5,4.6-8.2,4.6c-0.7,0-1.8-0.2-2.6-0.6c-1.1-0.6-2.1-1.7-2.1-3.6C144.3,24.8,144.9,22.8,145.6,21.7
		z"/>
	<path class="st0" d="M159.6,7.5c-0.7,0-1-0.6-1-1.4c0-0.2,0-0.4,0.1-0.7c0-0.2,0.2-0.7,0.4-0.7c0.1,0,0.2,0.2,0.2,0.5v0.2
		c0,0.3,0.2,0.5,0.6,0.5h0c0.4,0,0.7-0.3,0.8-0.9c0-0.2,0.2-1,0.5-1c0.1,0,0.2,0.1,0.2,0.5c0,0.2,0.1,0.3,0.3,0.3
		c0.4,0,0.7-0.3,0.8-0.7c0.1-0.6,0.2-0.8,0.4-0.8c0.2,0,0.3,0.6,0.3,1c0,0.3,0,0.5-0.1,0.9c-0.2,0.6-0.6,1.1-1.4,1.1
		c-0.2,0-0.3-0.1-0.4-0.1c-0.1,0-0.1,0-0.2,0.1C160.7,7,160.3,7.5,159.6,7.5z M163.1,1.3C163.2,1.3,163.2,1.4,163.1,1.3
		c0,0.4-0.1,0.8-0.4,1.1c-0.1,0.1-0.2,0.2-0.4,0.3l-3.6,1.7c0,0-0.1,0-0.1,0c0-0.1,0.1-0.4,0.2-0.7c0.1-0.3,0.2-0.4,0.3-0.4
		c0.1-0.1,0.2-0.1,0.3-0.2L163.1,1.3z"/>
	<path class="st0" d="M161.6,22.1c-0.5,0.6-1.1,0.9-2,0.9h-0.2c-0.6,0-0.9-0.4-0.9-1.1c0-0.6,0.3-1,0.9-1h0.2c0.5,0,0.9-0.1,1.3-0.2
		c0.3-0.1,0.5-0.2,0.6-0.4c0-1.5-0.6-4.8-0.8-7.9c0-0.4-0.3-1.5-0.3-1.9c0-0.1,0-0.1,0-0.2c0-0.2,0.3-0.8,0.5-1.2
		c0.2-0.5,0.5-0.8,0.6-0.8c0.1,0,0.1,0.1,0.2,0.2c0.2,0.9,0.5,1.3,0.7,1.6c0,0.1,0.1,0.2,0.1,0.3c0,0,0,0.1,0,0.1
		c-0.1,0.2-0.3,0.7-0.5,1c0.1,3,0.6,5.5,0.6,7C162.5,20.1,162.2,21.2,161.6,22.1z"/>
	<path class="st0" d="M166.6,23.1c-0.1,0-0.1-0.1-0.1-0.6c0-2.7-1-10.1-1-11.4c0-0.6,0.4-1.5,0.8-2.2c0.1-0.2,0.3-0.5,0.4-0.5
		c0.1,0,0.1,0.2,0.2,0.7c0.1,1.9,0.6,6.5,0.6,9.8c0,1.3-0.1,2.4-0.3,3.1C166.9,22.7,166.7,23.1,166.6,23.1z"/>
	<path class="st0" d="M178.7,3c0,0.5-0.1,0.9-0.3,1.3c0.2,0.1,0.3,0.2,0.3,0.3c0,0.3-0.1,0.7-0.3,0.9c0,0.1-0.1,0.1-0.1,0.1L178,5.3
		c-0.4,0.7-1.1,1.6-2.2,2.1c-0.4,0.2-0.8,0.3-1.3,0.3c-0.2,0-0.4,0-0.4-0.1c0-0.1,0.2-0.2,0.5-0.3c0.8-0.4,2.3-1.6,2.7-2.2
		c-0.4-0.3-0.9-0.6-0.9-1.2c0-0.4,0.2-0.8,0.5-1.2c0.4-0.5,0.7-0.7,1.1-0.7C178.6,1.9,178.7,2.5,178.7,3z M177.1,3.4
		C177.1,3.4,177.1,3.4,177.1,3.4c0,0.2,0.4,0.4,0.7,0.6c0.1-0.1,0.1-0.3,0.1-0.6c0-0.3-0.1-0.4-0.3-0.4C177.5,3,177.3,3.2,177.1,3.4
		z"/>
	<path class="st0" d="M178.3,9.5c0.2-0.2,0.2-0.2,0.3-0.1c0.4,0.5,0.9,1,1.4,1.3c0.1,0.1,0.1,0.1,0,0.3c-0.4,0.4-0.8,0.9-1.2,1.4
		c-0.1,0.1-0.1,0.1-0.3,0c-0.3-0.3-0.8-0.7-1.3-1.1c-0.3,0.3-0.8,0.9-1,1c-0.1,0.1-0.2,0.1-0.3,0c-0.5-0.3-1-0.8-1.4-1.2
		c-0.1-0.1-0.1-0.2,0-0.3c0.3-0.4,0.8-0.9,1.2-1.4c0.1-0.1,0.2-0.1,0.3,0c0.3,0.4,0.9,0.9,1.3,1.1C177.6,10.3,178.1,9.8,178.3,9.5z
		 M181,20.6c0.4,0.3,0.8,0.4,1.1,0.4h0.3c0.6,0,0.9,0.3,0.9,0.9c0,0.7-0.3,1.1-1,1.1H182c-0.7,0-1.4-0.3-2-0.8
		c-0.6-0.5-1.1-1.4-1.2-2.7c-0.2,0.3-0.4,0.6-0.7,0.9c-0.6,0.4-1.4,0.5-2.3,0.5c-0.7,0-1.2-0.1-1.2-0.6c0.3-2,0.5-2.3,1.5-3.1
		c0.4-0.3,1.6-1.1,2.1-1.4c0-0.2,0-0.3,0-0.5c0-0.5,0.1-0.7,0.3-1.1c0.1-0.2,0.3-0.4,0.4-0.4c0.1,0,0.2,0.1,0.2,0.5
		c0.3,1.8,0.5,3.4,0.7,4.3C179.8,19.5,180.3,20.2,181,20.6z M178.3,17c-0.8,0.5-2.2,1.4-2.3,1.7c0,0.1,0.3,0.2,0.7,0.2
		c0.6,0,1.4-0.1,1.9-0.4C178.5,17.9,178.4,17.7,178.3,17z"/>
	<path class="st0" d="M186.8,8.7c0.1,0,0.1,0,0.1,0c0,0.5-0.2,1-0.5,1.2l-3.7,2.1c-0.1,0-0.1,0-0.1,0c0-0.3,0.1-0.7,0.2-0.9
		c0.1-0.2,0.3-0.3,0.6-0.5L186.8,8.7z"/>
	<path class="st0" d="M186.3,19.8c0,0.5,0.5,1.1,1.2,1.2c0.2,0,0.3,0,0.4,0h0.1c0.8,0,0.8,0.6,0.8,0.9c0,0.3,0,1.1-0.7,1.1h-0.2
		c-0.1,0-0.3,0-0.5,0c-1.4-0.1-1.9-1.3-1.9-1.5c-0.2,0.5-1.3,1.5-3.3,1.5h-0.1c-0.6,0-0.9-0.5-0.9-1c0-0.5,0.3-1,0.9-1h0.6
		c0.9,0,2.2-0.1,2.9-1.4c0.2-0.4,0.3-0.5,0.4-0.5C186.2,19.2,186.3,19.3,186.3,19.8z M187,14.6c0.1,0,0.1,0.1,0,0.2
		c-0.2,0.3-0.9,1.1-1.3,1.5c-0.1,0.1-0.1,0.1-0.2,0c-0.4-0.2-1.3-0.9-1.6-1.3c-0.1-0.1-0.1-0.1,0-0.2c0.3-0.5,0.8-1,1.2-1.4
		c0.2-0.2,0.2-0.2,0.3-0.1C185.8,13.6,186.4,14.2,187,14.6z"/>
	<path class="st0" d="M193.8,24.7c0.1,0,0.1,0,0.1,0c0,0.5-0.2,1-0.5,1.2l-3.7,2.1c-0.1,0-0.1,0-0.1,0c0-0.3,0.1-0.7,0.2-0.9
		c0.1-0.2,0.3-0.3,0.6-0.5L193.8,24.7z"/>
	<path class="st0" d="M198.3,8.9C198.4,8.9,198.4,8.9,198.3,8.9c0.1,0.4-0.4,1.2-0.5,1.5c0,0.1-0.1,0.1-0.2,0.1
		c-0.6,0.2-5.2,2-7.3,3.4c2,1,3.9,3.4,3.9,4.8c0,1.4-0.4,2.4-1.2,3.2c-1.3,0.7-2.9,1.1-4.9,1.1h-0.2c-0.4,0-0.6-0.5-0.6-1
		c0-0.6,0.3-1,0.6-1h0.2c2.7,0,4.9-0.6,5.3-1c0-1.3-2.1-3.3-3.8-4.2c-0.2-0.1-0.5-0.2-0.6-0.4c-0.1-0.2-0.1-0.4-0.1-0.8
		c0-0.5,0.1-1,0.3-1.2c0.6-0.6,1.3-1.1,2.6-1.8c2.5-1.4,5.1-2.3,6-2.6C198,9,198.2,8.9,198.3,8.9z"/>
	<path class="st0" d="M203.1,23.1c-0.6,0-1.1-0.1-1.5-0.4c-0.6-0.5-1-1.5-1.1-2.8c-0.1-1-0.2-2.1-0.3-3.3c-0.1-1.8-0.2-4.6-0.5-6.2
		c0-0.1,0-0.2,0-0.2c0-0.1,0-0.2,0.1-0.4c0.3-0.4,0.5-0.7,0.6-1.1c0.1-0.3,0.2-0.3,0.3-0.3c0.1,0,0.2,0.2,0.2,0.6
		c0.4,3.1,0.1,7.5,0.5,9.9c0.1,0.6,0.2,0.8,0.3,1.2c0.2,0.5,0.7,0.8,1.3,0.9c0.7,0,1.1,0.3,1.1,1c0,0.8-0.4,1.1-1,1.1H203.1z"/>
	<path class="st0" d="M208.3,15.8c-0.7,0-1-0.6-1-1.4c0-0.2,0-0.4,0.1-0.7c0-0.2,0.2-0.7,0.4-0.7c0.1,0,0.2,0.2,0.2,0.5v0.2
		c0,0.3,0.2,0.5,0.6,0.5h0c0.4,0,0.7-0.3,0.8-0.9c0-0.2,0.2-1,0.5-1c0.1,0,0.2,0.1,0.2,0.5c0,0.2,0.1,0.3,0.3,0.3
		c0.4,0,0.7-0.3,0.8-0.7c0.1-0.6,0.2-0.8,0.4-0.8c0.2,0,0.3,0.6,0.3,1c0,0.3,0,0.5-0.1,0.9c-0.2,0.6-0.6,1.1-1.4,1.1
		c-0.2,0-0.3-0.1-0.4-0.1c-0.1,0-0.1,0-0.2,0.1C209.4,15.3,209,15.8,208.3,15.8z M211.8,9.6C211.9,9.6,211.9,9.7,211.8,9.6
		c0,0.4-0.1,0.8-0.4,1.1c-0.1,0.1-0.2,0.2-0.4,0.3l-3.6,1.7c0,0-0.1,0-0.1,0c0-0.1,0.1-0.4,0.2-0.7c0.1-0.3,0.2-0.4,0.3-0.4
		c0.1-0.1,0.2-0.1,0.3-0.2L211.8,9.6z"/>
	<path class="st0" d="M211.1,19c0.1,0,0.2,0.1,0.2,0.4c0,0.1,0,0.2,0,0.4c0,0.6,0.5,1,1,1c0.9,0,1.4-0.9,1.7-1.6
		c0-0.1,0.1-0.3,0.3-0.3c0.1,0,0.2,0.1,0.2,0.6c0.1,0.9,0.6,1.5,1.4,1.5h0.3c0.6,0,1,0.3,1,0.9c0,0.7-0.3,1.1-1,1.1h-0.3
		c-1.2,0-1.7-0.6-1.9-1.7c-0.3,0.8-1,1.7-2,1.7c-0.9,0-1.4-0.8-1.5-1.7c-0.4,1-1.4,1.7-2.4,1.7c-1.1,0-1.8-0.4-2.1-1.4
		c-0.1,0.4-0.4,0.7-0.7,1c-0.3,0.3-1,0.4-1.9,0.4h-0.2c-0.6,0-0.9-0.4-0.9-1.1c0-0.6,0.3-1,0.9-1h0.3c1.4,0,2.4-0.5,2.8-1.5
		c0-0.1,0.2-0.3,0.3-0.3c0.1,0,0.2,0.2,0.2,0.5c0,0.8,0.7,1.2,1.6,1.2c1.1,0,1.9-0.5,2.5-1.6C210.8,19.2,210.9,19,211.1,19z"/>
	<path class="st0" d="M218.1,22.1c-0.5,0.6-1,0.9-2,0.9h-0.2c-0.6,0-0.9-0.4-0.9-1.1c0-0.6,0.3-1,0.9-1h0.2c0.5,0,0.9-0.1,1.3-0.2
		c0.3-0.1,0.5-0.2,0.6-0.4c0-1.5-0.6-4.8-0.8-7.9c0-0.4-0.3-1.5-0.3-1.9c0-0.1,0-0.1,0-0.2c0-0.2,0.3-0.8,0.5-1.2
		c0.2-0.5,0.5-0.8,0.6-0.8c0.1,0,0.1,0.1,0.2,0.2c0.2,0.9,0.5,1.3,0.7,1.6c0,0.1,0.1,0.2,0.1,0.3c0,0,0,0.1,0,0.1
		c-0.1,0.2-0.3,0.7-0.5,1c0.1,3,0.6,5.5,0.6,7C219,20.1,218.7,21.2,218.1,22.1z"/>
	<path class="st0" d="M223.1,23.1c-0.1,0-0.1-0.1-0.1-0.6c0-2.7-1-10.1-1-11.4c0-0.6,0.4-1.5,0.8-2.2c0.1-0.2,0.3-0.5,0.4-0.5
		c0.1,0,0.1,0.2,0.2,0.7c0.1,1.9,0.6,6.5,0.6,9.8c0,1.3-0.1,2.4-0.3,3.1C223.4,22.7,223.2,23.1,223.1,23.1z"/>
	<path class="st0" d="M238.2,4.1c0,0.5-0.1,0.9-0.3,1.3c0.2,0.1,0.3,0.2,0.3,0.3c0,0.3-0.1,0.7-0.3,0.9c0,0.1-0.1,0.1-0.1,0.1
		l-0.5-0.3c-0.4,0.7-1.1,1.6-2.2,2.1c-0.4,0.2-0.8,0.3-1.3,0.3c-0.2,0-0.4,0-0.4-0.1c0-0.1,0.2-0.2,0.5-0.3c0.8-0.4,2.3-1.6,2.7-2.2
		c-0.4-0.3-0.9-0.6-0.9-1.2c0-0.4,0.2-0.8,0.5-1.2c0.4-0.5,0.7-0.7,1.1-0.7C238,3,238.1,3.6,238.2,4.1z M236.5,4.5
		C236.5,4.5,236.5,4.5,236.5,4.5c0,0.2,0.4,0.4,0.7,0.6c0.1-0.1,0.1-0.3,0.1-0.6c0-0.3-0.1-0.4-0.3-0.4
		C236.9,4.1,236.7,4.3,236.5,4.5z"/>
	<path class="st0" d="M232.5,23.7c-0.8-0.7-1.2-1.8-1.2-3c0-1.3,0.8-2.9,1.2-3.5c0.2-0.3,0.3-0.4,0.4-0.4c0.1,0,0.1,0.1,0.1,0.1
		c0,0.1-0.1,0.3-0.1,0.5c-0.4,0.8-0.8,1.6-0.8,2.6c0,0.8,0.5,1.4,1.2,1.9c0.7,0.5,1.5,0.7,2.4,0.7c2.2,0,5.1-0.9,5.7-2.4
		c0-0.1,0-0.3,0-0.4c0-1-0.3-2-0.8-2.8c-0.2-0.3-0.4-0.6-0.4-0.7c0,0,0-0.1,0-0.1c0-0.2,0.1-0.4,0.1-0.7c0.1-0.4,0.2-0.7,0.4-1
		c0.1-0.1,0.1-0.2,0.2-0.2c0,0,0.1,0,0.2,0.2c0.6,1.3,1.1,2.6,1.1,4.2c0,1.2-0.1,2-0.3,2.4c-0.3,0.8-0.5,1.2-1,1.6
		c-0.4,0.4-1.2,1.1-2.2,1.5c-1,0.4-2.2,0.6-3.7,0.6C234.2,24.6,233.3,24.4,232.5,23.7z M238.3,11.4c0.1,0,0.1,0.1,0,0.2
		c-0.2,0.3-0.9,1.1-1.3,1.5c-0.1,0.1-0.1,0.1-0.2,0c-0.4-0.2-1.3-0.9-1.5-1.3c-0.1-0.1-0.1-0.1,0-0.2c0.3-0.5,0.8-1,1.2-1.4
		c0.2-0.2,0.2-0.2,0.3-0.1C237.1,10.4,237.7,10.9,238.3,11.4z"/>
	<path class="st0" d="M241.4,28.4c-0.3-0.1-0.4-0.3-0.4-0.4c0-0.1,0.1-0.1,0.3-0.1c0.2,0,1,0.2,1.6,0.2c0.6,0,1.1-0.1,1.9-0.5
		c2.1-1.1,3.5-2.7,3.5-3.7c0-0.2,0-0.3-0.1-0.6h-0.7c-0.5,0-1.3-0.1-1.9-0.4c-0.6-0.3-0.9-0.8-0.9-1.4c0-0.5,0.2-1.3,0.5-2
		c0.5-1.1,1.1-2,1.7-2c0.6,0,1.2,0.4,1.6,1c0.4,0.7,0.6,1.6,0.7,2.5h0.9c0.6,0,0.8,0.3,0.8,0.9c0,0.7-0.3,1.1-0.8,1.1l-0.9,0
		c-0.1,3.1-1.2,5.2-3.7,6.1c-0.1,0-0.3,0.1-0.6,0.1C244.1,29.3,242.6,28.9,241.4,28.4z M247,19.8c-0.1-0.1-0.3-0.2-0.5-0.2
		c-0.4,0-0.7,0.5-0.7,0.7c0,0.2,0.2,0.4,0.7,0.6c0.4,0.1,0.8,0.2,1,0.2c0.1,0,0.2,0,0.2-0.1C247.7,20.8,247.4,20.1,247,19.8z"/>
	<path class="st0" d="M251.3,12c0,0-0.1,0-0.1,0c-0.2,0-0.5-0.1-0.7-0.3c-0.2-0.3-0.3-0.6-0.3-1.1c0-0.2,0-0.4,0.1-0.7
		c0.1-0.2,0.2-0.6,0.5-0.6c0.1,0,0.1,0.1,0.1,0.4c0,0.1,0,0.3,0,0.3c0,0.3,0.2,0.5,0.6,0.5h0c0.4,0,0.7-0.3,0.8-0.8
		c0.1-0.2,0.3-0.9,0.6-0.9c0.1,0,0.2,0.1,0.2,0.3v0.1c0,0.2,0.1,0.4,0.3,0.4c0,0,0.1,0,0.1,0c0.3-0.1,0.6-0.3,0.7-0.7
		c0.1-0.5,0.2-0.7,0.4-0.7c0.1,0,0.2,0.1,0.2,0.2c0,0.1,0,0.3,0,0.5c0,0.4-0.1,0.7-0.2,1.1c-0.2,0.5-0.6,0.9-1.3,0.9
		c-0.2,0-0.4-0.1-0.5-0.2c-0.1,0-0.1,0-0.2,0C252.1,11.6,251.7,12,251.3,12z M254.1,4.7c0,0.1,0,0.2,0,0.3c0,0.4-0.1,0.7-0.2,1.1
		c0.2,0.1,0.2,0.2,0.3,0.3c0,0.3-0.1,0.5-0.3,0.8l-0.4-0.3c-0.5,0.7-0.9,1.2-1.2,1.4c-0.3,0.2-0.8,0.4-1.5,0.4
		c-0.4,0-0.4-0.1-0.3-0.1c1.2-0.7,2-1.4,2.4-1.9c-0.3-0.2-0.8-0.5-0.8-1c0-0.3,0.1-0.6,0.5-1c0.3-0.4,0.6-0.6,0.9-0.6
		C253.9,4,254.1,4.4,254.1,4.7z M252.8,5.4c0.1,0.1,0.3,0.3,0.6,0.4c0.1-0.1,0.1-0.3,0.1-0.5c0-0.2-0.1-0.3-0.3-0.3
		C253.1,5,252.9,5.1,252.8,5.4z"/>
	<path class="st0" d="M254.1,19.8c0,0.5,0.5,1.1,1.2,1.2c0.2,0,0.3,0,0.4,0h0.1c0.8,0,0.8,0.6,0.8,0.9c0,0.3,0,1.1-0.7,1.1h-0.2
		c-0.1,0-0.3,0-0.5,0c-1.4-0.1-1.9-1.3-1.9-1.5c-0.2,0.5-1.3,1.5-3.3,1.5h-0.1c-0.6,0-0.9-0.5-0.9-1c0-0.5,0.3-1,0.9-1h0.6
		c0.9,0,2.2-0.1,2.9-1.4c0.2-0.4,0.3-0.5,0.4-0.5C254,19.2,254.1,19.3,254.1,19.8z M254.9,14.6c0.1,0,0.1,0.1,0,0.2
		c-0.2,0.3-0.9,1.1-1.3,1.5c-0.1,0.1-0.1,0.1-0.2,0c-0.4-0.2-1.3-0.9-1.6-1.3c-0.1-0.1-0.1-0.1,0-0.2c0.3-0.5,0.8-1,1.2-1.4
		c0.2-0.2,0.2-0.2,0.3-0.1C253.6,13.6,254.2,14.2,254.9,14.6z"/>
	<path class="st0" d="M258,22.1c-0.5,0.6-1,0.9-2,0.9h-0.2c-0.6,0-0.9-0.4-0.9-1.1c0-0.6,0.3-1,0.9-1h0.2c0.5,0,0.9-0.1,1.3-0.2
		c0.3-0.1,0.5-0.2,0.6-0.4c0-1.5-0.6-4.8-0.8-7.9c0-0.4-0.3-1.5-0.3-1.9c0-0.1,0-0.1,0-0.2c0-0.2,0.3-0.8,0.5-1.2
		c0.2-0.5,0.5-0.8,0.6-0.8c0.1,0,0.1,0.1,0.2,0.2c0.2,0.9,0.5,1.3,0.7,1.6c0,0.1,0.1,0.2,0.1,0.3c0,0,0,0.1,0,0.1
		c-0.1,0.2-0.3,0.7-0.5,1c0.1,3,0.6,5.5,0.6,7C258.9,20.1,258.6,21.2,258,22.1z"/>
	<path class="st0" d="M263,23.1c-0.1,0-0.1-0.1-0.1-0.6c0-2.7-1-10.1-1-11.4c0-0.6,0.4-1.5,0.8-2.2c0.1-0.2,0.3-0.5,0.4-0.5
		c0.1,0,0.1,0.2,0.2,0.7c0.1,1.9,0.6,6.5,0.6,9.8c0,1.3-0.1,2.4-0.3,3.1C263.3,22.7,263.2,23.1,263,23.1z"/>
	<path class="st0" d="M275.2,18.5c0,0,0,0.2,0,0.2c0,0.3-0.2,1-0.3,1.1c-0.2,0.1-3.4,0.1-3.8,0.1c0,0,0-0.2,0-0.2
		c0-0.3,0.2-1.1,0.3-1.1C272.3,18.6,274.7,18.5,275.2,18.5z"/>
	<path class="st0" d="M283.4,23.1c-0.7,0-1.6-0.1-2.8-0.1c-1.2,0-2.2,0.1-2.8,0.1c-0.1-0.1-0.1-0.5,0-0.6c0.5,0,0.8-0.1,1.1-0.1
		c0.6-0.1,0.6-0.5,0.7-1.1c0-0.8,0-2.2,0.1-3.8c0-1.6,0-3.1-0.1-3.5c0-0.3-0.1-0.6-0.5-0.6c-0.2,0-0.7-0.1-1-0.1
		c-0.1-0.1,0-0.5,0-0.6c1.2-0.1,2.6-0.6,3.4-0.9c0,0,0.2,0,0.2,0.1c0,0.7-0.1,1.2-0.1,3.8c0,1.2,0,4.5,0.1,5.6c0,0.7,0.1,1,0.6,1.2
		c0.4,0.1,0.7,0.1,1.1,0.2C283.5,22.6,283.5,23.1,283.4,23.1z"/>
	<path class="st0" d="M16.8,56c0.3,0.3,0.4,0.7,0.4,1c0,0.3-0.1,0.7-0.3,0.9c-0.3,0.3-0.6,0.4-1,0.4c-0.3,0-0.6-0.1-0.8-0.3
		c-0.3-0.2-0.4-0.6-0.4-1c0-0.3,0.2-0.6,0.4-0.9c0.2-0.2,0.6-0.4,0.9-0.4C16.2,55.7,16.6,55.9,16.8,56z"/>
	<path class="st0" d="M20.1,49.8c-0.2,0.4-0.4,0.6-0.6,0.8c0,0-0.2,0-0.2,0c0-1.5-0.2-3.7-0.4-4.2c0.1-0.1,1-0.6,1.3-0.7
		c0,0,0.2,0,0.2,0c0.1,0.1,0.1,0.4,0.1,0.7C20.5,47.6,20.3,49.5,20.1,49.8z M22.7,49.6c-0.1,0.4-0.4,0.7-0.6,0.8c0,0-0.2,0-0.2,0
		c0-1.5-0.2-3.6-0.4-4.1c0.1-0.1,1.2-0.8,1.4-0.8c0,0,0.2,0,0.2,0c0.1,0.1,0.1,0.5,0.1,0.8C23.2,47.6,22.9,49.3,22.7,49.6z"/>
	<path class="st0" d="M31.2,50.1c0.6,0,1.5,0.9,1.5,1.8c0,0.4-0.1,0.7-0.2,1.1c-0.3,0.7-0.8,1.1-1.6,1.1c-0.7,0-1.2-0.6-1.2-1.2
		C29.7,52,30.7,50.1,31.2,50.1z M31,51.5c-0.2,0-0.6,0.6-0.6,0.9c0,0.2,0.3,0.5,0.7,0.5c0.5,0,1-0.3,1-0.4
		C32.1,52.3,31.5,51.5,31,51.5z"/>
	<path class="st0" d="M38.9,43.6c0,0.5-0.1,0.9-0.3,1.3c0.2,0.1,0.3,0.2,0.3,0.3c0,0.3-0.1,0.7-0.3,0.9c0,0.1-0.1,0.1-0.1,0.1
		l-0.5-0.3c-0.4,0.7-1.1,1.6-2.2,2.1c-0.4,0.2-0.8,0.3-1.3,0.3c-0.2,0-0.4,0-0.4-0.1c0-0.1,0.2-0.2,0.5-0.3c0.8-0.4,2.3-1.6,2.7-2.2
		c-0.4-0.3-0.9-0.6-0.9-1.2c0-0.4,0.2-0.8,0.5-1.2c0.4-0.5,0.7-0.7,1.1-0.7C38.7,42.5,38.9,43.2,38.9,43.6z M37.3,44
		C37.3,44.1,37.3,44.1,37.3,44c0,0.2,0.4,0.4,0.7,0.6c0.1-0.1,0.1-0.3,0.1-0.6c0-0.3-0.1-0.4-0.3-0.4C37.6,43.7,37.4,43.8,37.3,44z"
		/>
	<path class="st0" d="M38.2,49c0.2-0.2,0.2-0.2,0.3-0.1c0.4,0.5,0.9,1,1.4,1.3c0.1,0.1,0.1,0.1,0,0.3c-0.4,0.4-0.8,0.9-1.2,1.4
		c-0.1,0.1-0.1,0.1-0.3,0c-0.3-0.3-0.8-0.7-1.3-1.1c-0.3,0.3-0.8,0.9-1,1c-0.1,0.1-0.2,0.1-0.3,0c-0.5-0.3-1-0.8-1.4-1.2
		c-0.1-0.1-0.1-0.2,0-0.3c0.3-0.4,0.8-0.9,1.2-1.4c0.1-0.1,0.2-0.1,0.3,0c0.3,0.4,0.9,0.9,1.3,1.1C37.5,49.8,38,49.2,38.2,49z"/>
	<path class="st0" d="M35.7,59.2c0,0.1,0,0.2-0.1,0.4c-0.3,0.7-0.5,1.2-0.7,1.4c-0.1,0.1-0.1,0.1-0.2,0c-0.4-0.2-1-0.3-1.9-0.3
		c-1.5,0-2.5,0.3-2.8,0.8c0.2,1.1,0.3,1.9,0.4,2.3l0.3,1.9c0.1,1,0.2,1.9,0.3,2.7c0,0.8-0.1,1.7-0.4,2.5c-0.1,0.3-0.3,0.5-0.4,0.5
		c-0.1,0-0.1-0.1-0.1-0.4c0-0.3,0-0.6,0-1c0-0.8-0.1-1.8-0.5-4.1c-0.3-1.7-0.5-2.7-0.5-3.1c0-0.9,0.2-1.7,0.6-2.5
		c0.4-0.8,1-1.3,1.6-1.6l0.6-1.4c0.5-1.1,1.1-1.8,1.9-2.3c0.7-0.5,1.9-0.9,2.7-0.9c0.3,0,0.5,0.1,0.7,0.2c0.2,0.1,0.5,0.5,0.9,1
		c0.3,0.5,0.7,0.8,1.1,0.8h0.3c0.6,0,0.8,0.3,0.8,0.9c0,0.7-0.3,1.1-0.8,1.1h-0.3c-0.6,0-1.2-0.3-1.8-0.9c-0.4-0.5-0.7-0.8-1-0.9
		c-0.2-0.1-0.3-0.1-0.8-0.1c-1,0-1.8,0.3-2.6,1c0.8,0.3,1.4,0.7,1.9,1.1C35.4,58.7,35.6,59,35.7,59.2z"/>
	<path class="st0" d="M41.6,44.7c0.6,0,1.5,0.9,1.5,1.8c0,0.4-0.1,0.7-0.2,1.1c-0.3,0.7-0.8,1.1-1.6,1.1c-0.7,0-1.2-0.6-1.2-1.2
		C40.1,46.7,41.2,44.7,41.6,44.7z M41.4,46.1c-0.2,0-0.6,0.6-0.6,0.9c0,0.2,0.3,0.5,0.7,0.5c0.5,0,1-0.3,1-0.4
		C42.5,46.9,41.9,46.1,41.4,46.1z"/>
	<path class="st0" d="M44.4,56L44.4,56c0.6,0,0.9,0.5,0.9,1c0,0.5-0.3,1-0.8,1h-0.1c-0.5,0-1.1,0-1.6-0.4c-0.7-0.6-1-1.5-1-1.7
		c-0.1,0.6-1,2.1-2.3,2.1h-0.1c-0.5,0-0.8-0.5-0.8-1c0-0.5,0.3-1,0.8-1h0.1c1.1,0,1.8-0.5,1.9-0.7c0,0,0-0.1,0-0.1
		c0-0.2-0.4-2.3-0.4-2.5c0-0.1,0-0.2,0-0.3c0.1-0.4,0.3-0.9,0.5-1.2c0.1-0.2,0.1-0.3,0.2-0.3c0.1,0,0.2,0.1,0.2,0.4
		c0.3,0.9,0.5,2.8,0.7,3.4C43.1,55.5,44,56,44.4,56z M43.7,61.4c0.1,0,0.1,0.1,0,0.2c-0.2,0.3-0.9,1.1-1.3,1.5
		c-0.1,0.1-0.1,0.1-0.2,0c-0.4-0.2-1.3-0.9-1.6-1.3c-0.1-0.1-0.1-0.1,0-0.2c0.3-0.5,0.8-1,1.2-1.4C42,60,42,60,42.1,60.1
		C42.4,60.4,43,61,43.7,61.4z"/>
	<path class="st0" d="M48.6,41.6c0.1,0,0.1,0,0.1,0c0,0.5-0.2,1-0.5,1.2l-3.7,2.1c-0.1,0-0.1,0-0.1,0c0-0.3,0.1-0.7,0.2-0.9
		c0.1-0.2,0.3-0.3,0.6-0.5L48.6,41.6z"/>
	<path class="st0" d="M47.9,56.8c-0.4,0.5-1.1,1-2.3,1.2c-0.3,0-0.8,0.1-1.3,0.1c-0.6,0-0.9-0.5-0.9-1c0-0.5,0.3-1,0.9-1h0.5
		c0.9,0,2.3,0,2.9-0.5c-0.1-0.8-0.7-1.8-1-2.2c0,0,0,0,0-0.1c0-0.3,0.6-1.6,0.6-1.7c0-0.1,0.1-0.1,0.1-0.1c0.3,0,1,1.4,1,3.1
		C48.5,55.3,48.4,56.2,47.9,56.8z M47.8,46.6c0.2-0.2,0.2-0.2,0.3-0.1c0.4,0.5,0.9,1,1.4,1.3c0.1,0.1,0.1,0.1,0,0.3
		c-0.4,0.4-0.8,0.9-1.2,1.4c-0.1,0.1-0.1,0.1-0.3,0c-0.3-0.3-0.8-0.7-1.3-1.1c-0.3,0.3-0.8,0.9-1,1.1c-0.1,0.1-0.2,0.1-0.3,0
		c-0.5-0.3-1-0.8-1.4-1.2c-0.1-0.1-0.1-0.2,0-0.3c0.3-0.4,0.8-0.9,1.2-1.4c0.1-0.1,0.2-0.1,0.3,0c0.3,0.4,0.9,0.9,1.3,1.1
		C47.1,47.4,47.6,46.8,47.8,46.6z"/>
	<path class="st0" d="M52.6,46.5c0.6,0,1.5,0.9,1.5,1.8c0,0.4-0.1,0.7-0.2,1.1c-0.3,0.7-0.8,1.1-1.6,1.1c-0.7,0-1.2-0.6-1.2-1.2
		C51.1,48.5,52.2,46.5,52.6,46.5z M52.4,48c-0.2,0-0.6,0.6-0.6,0.9c0,0.2,0.3,0.5,0.7,0.5c0.5,0,1-0.3,1-0.4
		C53.5,48.7,52.9,48,52.4,48z"/>
	<path class="st0" d="M54.9,57.4c0,3-1.4,5.4-3.7,6.3c-0.1,0.1-0.3,0.1-0.6,0.1c-0.8,0-2.5-0.4-3.6-1c-0.3-0.1-0.3-0.2-0.3-0.3
		c0-0.1,0.1-0.1,0.3-0.1c0.3,0,0.9,0.1,1.6,0.1c0.6,0,1.1-0.1,1.9-0.5c1-0.4,2.9-2,3.4-3.4c0.1-0.2,0.1-0.5,0.1-0.6
		c0-0.1,0-0.9-0.9-2.1c-0.3-0.4-0.5-0.7-0.7-1.1c0-0.1-0.1-0.1-0.1-0.2c0-0.3,0.4-1.2,0.5-1.5c0.1-0.1,0.1-0.2,0.2-0.2
		c0.4,0,1.2,1.5,1.6,2.8C54.9,56.2,54.9,56.8,54.9,57.4z"/>
	<path class="st0" d="M58.4,58.1c-0.1,0-0.1-0.1-0.1-0.6c0-2.7-1-10.1-1-11.4c0-0.6,0.4-1.5,0.8-2.2c0.1-0.2,0.3-0.5,0.4-0.5
		c0.1,0,0.1,0.2,0.2,0.7c0.1,1.9,0.6,6.5,0.6,9.8c0,1.3-0.1,2.4-0.3,3.1C58.7,57.7,58.5,58.1,58.4,58.1z"/>
	<path class="st0" d="M75.5,60.8c0.1,0,0.1,0,0.1,0c0,0.5-0.2,1-0.5,1.2l-3.7,2.1c-0.1,0-0.1,0-0.1,0c0-0.3,0.1-0.7,0.2-0.9
		c0.1-0.2,0.3-0.3,0.6-0.5L75.5,60.8z"/>
	<path class="st0" d="M67.8,58.7c-0.8-0.7-1.2-1.8-1.2-3c0-1.3,0.8-2.9,1.2-3.5c0.2-0.3,0.3-0.4,0.4-0.4c0.1,0,0.1,0.1,0.1,0.1
		c0,0.1-0.1,0.3-0.1,0.5c-0.4,0.8-0.8,1.6-0.8,2.6c0,0.8,0.5,1.4,1.2,1.9c0.7,0.5,1.5,0.7,2.4,0.7c2.2,0,5.1-0.9,5.7-2.4
		c0-0.1,0-0.3,0-0.4c0-1-0.3-2-0.8-2.8c-0.2-0.3-0.4-0.6-0.4-0.7c0,0,0-0.1,0-0.1c0-0.2,0.1-0.4,0.1-0.7c0.1-0.4,0.2-0.7,0.4-1
		c0.1-0.1,0.1-0.2,0.2-0.2c0,0,0.1,0,0.2,0.2c0.6,1.3,1.1,2.6,1.1,4.2c0,1.2-0.1,2-0.3,2.4c-0.3,0.8-0.5,1.2-1,1.6
		c-0.4,0.4-1.2,1.1-2.2,1.5c-1,0.4-2.2,0.6-3.7,0.6C69.5,59.6,68.6,59.4,67.8,58.7z M73.6,46.4c0.1,0,0.1,0.1,0,0.2
		c-0.2,0.3-0.9,1.1-1.3,1.5c-0.1,0.1-0.1,0.1-0.2,0c-0.4-0.2-1.3-0.9-1.5-1.3c-0.1-0.1-0.1-0.1,0-0.2c0.3-0.5,0.8-1,1.2-1.4
		C71.9,45,72,44.9,72,45C72.4,45.4,73,45.9,73.6,46.4z"/>
	<path class="st0" d="M82.7,34.8c0.1,0,0.1,0,0.1,0c0,0.5-0.2,1-0.5,1.2l-3.7,2.1c-0.1,0-0.1,0-0.1,0c0-0.3,0.1-0.7,0.2-0.9
		c0.1-0.2,0.3-0.3,0.6-0.5L82.7,34.8z"/>
	<path class="st0" d="M82.4,41.6c-0.8,0.4-2.3,1.3-3.6,2.3c0,0-0.1,0-0.1,0s0,0,0-0.1c0-0.1,0.1-0.3,0.2-0.6
		c0.1-0.2,0.4-0.5,0.7-0.8c0,0,0.1-0.1,0.1-0.1c0,0,0-0.1-0.1-0.1c-0.5-0.2-0.8-0.3-0.8-0.8c0,0,0-0.1,0-0.1c0-0.8,0.9-2,1.6-2.6
		c0.3-0.2,0.6-0.4,0.9-0.4c0.5,0,0.7,0.2,0.7,0.6c0,0.2-0.1,0.5-0.2,0.9c-0.1,0.2-0.2,0.3-0.2,0.3c-0.1,0-0.1,0-0.3-0.1
		c-0.1-0.1-0.2-0.2-0.5-0.2c-0.7,0-1.1,0.4-1.1,0.6c0,0.3,1.1,0.8,1.6,0.8c0,0,0.1,0,0.1,0c0.2-0.1,1-0.4,1.3-0.6
		c0.2-0.1,0.2-0.2,0.3-0.2c0,0,0.1,0,0.1,0.1c0,0.1,0,0.2-0.1,0.4C82.7,41.4,82.6,41.5,82.4,41.6z M81.1,58.1
		c-0.1,0-0.1-0.1-0.1-0.6c0-2.7-1-10.1-1-11.4c0-0.6,0.4-1.5,0.8-2.2c0.1-0.2,0.3-0.5,0.4-0.5c0.1,0,0.1,0.2,0.2,0.7
		c0.1,1.9,0.6,6.5,0.6,9.8c0,1.3-0.1,2.4-0.3,3.1C81.4,57.7,81.3,58.1,81.1,58.1z"/>
	<path class="st0" d="M90.6,49.8c-0.2,0.4-0.4,0.6-0.6,0.8c0,0-0.2,0-0.2,0c0-1.5-0.2-3.7-0.4-4.2c0.1-0.1,1-0.6,1.3-0.7
		c0,0,0.2,0,0.2,0c0.1,0.1,0.1,0.4,0.1,0.7C91,47.6,90.8,49.5,90.6,49.8z M93.3,49.6c-0.1,0.4-0.4,0.7-0.6,0.8c0,0-0.2,0-0.2,0
		c0-1.5-0.2-3.6-0.4-4.1c0.1-0.1,1.2-0.8,1.4-0.8c0,0,0.2,0,0.2,0c0.1,0.1,0.1,0.5,0.1,0.8C93.7,47.6,93.4,49.3,93.3,49.6z"/>
	<path class="st0" d="M103.2,51.4c0.3,0.3,0.4,0.7,0.4,1c0,0.2-0.1,0.6-0.3,0.8c-0.3,0.3-0.6,0.4-0.9,0.4c-0.3,0-0.6-0.1-0.8-0.3
		c-0.3-0.3-0.4-0.6-0.4-0.9c0-0.3,0.1-0.7,0.4-0.9c0.2-0.2,0.6-0.4,0.9-0.4C102.7,51.1,103,51.2,103.2,51.4z M103.2,56.1
		c0.3,0.3,0.4,0.7,0.4,1c0,0.2-0.1,0.6-0.3,0.9c-0.3,0.2-0.6,0.4-1,0.4c-0.3,0-0.6-0.1-0.8-0.3c-0.3-0.2-0.4-0.6-0.4-0.9
		c0-0.3,0.1-0.6,0.4-0.9c0.2-0.2,0.6-0.4,0.9-0.4C102.7,55.8,103,55.9,103.2,56.1z"/>
	<path class="st0" d="M122,56.2c0,2-0.4,2.5-0.8,3.3c-1.1,1.7-3.2,2.6-5.3,2.6c-3.5,0-4.5-1.9-4.5-3.7c0-1.3,0.4-2.7,1-3.7
		c0.3-0.6,0.5-0.8,0.7-0.8c0.1,0,0.1,0.1,0.1,0.1c0,0.1-0.1,0.4-0.2,0.7c-0.3,0.6-0.6,1.5-0.6,2.2c0,1.6,1.2,3,3.9,3
		c1.9,0,4.4-1.3,4.9-2.3c0-0.1,0.1-0.2,0.1-0.3c-0.1-1.7-0.2-2.8-0.4-4.3c-0.4-2.7-0.4-3.4-0.7-5.9c0-0.4-0.3-1.2-0.3-1.5
		c0-0.1,0-0.1,0-0.2c0,0,0-0.1,0-0.1c0-0.1,0.1-0.3,0.3-0.8c0.2-0.5,0.6-0.9,0.8-0.9c0.1,0,0.1,0.1,0.2,0.2c0.2,0.8,0.5,1.3,0.7,1.6
		c0,0.1,0.1,0.1,0.1,0.2c0,0,0,0.1,0,0.2c-0.1,0.2-0.3,0.7-0.4,1C121.4,49.7,122,54.1,122,56.2z"/>
	<path class="st0" d="M128.3,58.1c-0.6,0-1.1-0.1-1.5-0.4c-0.6-0.5-1-1.5-1.1-2.8c-0.1-1-0.2-2.1-0.3-3.3c-0.1-1.8-0.2-4.6-0.5-6.2
		c0-0.1,0-0.2,0-0.2c0-0.1,0-0.2,0.1-0.4c0.3-0.4,0.5-0.7,0.6-1.1c0.1-0.3,0.2-0.3,0.3-0.3c0.1,0,0.2,0.2,0.2,0.6
		c0.4,3.1,0.1,7.5,0.5,9.9c0.1,0.6,0.2,0.8,0.3,1.2c0.2,0.5,0.7,0.8,1.3,0.9c0.7,0,1.1,0.3,1.1,1c0,0.8-0.4,1.1-1,1.1H128.3z"/>
	<path class="st0" d="M132.6,54.8c0,0.5,0.5,1.1,1.2,1.2c0.2,0,0.3,0,0.4,0h0.1c0.8,0,0.8,0.6,0.8,0.9c0,0.3,0,1.1-0.7,1.1h-0.2
		c-0.1,0-0.3,0-0.5,0c-1.4-0.1-1.9-1.3-1.9-1.5c-0.2,0.5-1.3,1.5-3.3,1.5h-0.1c-0.6,0-0.9-0.5-0.9-1c0-0.5,0.3-1,0.9-1h0.6
		c0.9,0,2.2-0.1,2.9-1.4c0.2-0.4,0.3-0.5,0.4-0.5C132.6,54.2,132.6,54.3,132.6,54.8z M132.5,49c0.2-0.2,0.2-0.2,0.3-0.1
		c0.4,0.5,0.9,1,1.4,1.3c0.1,0.1,0.1,0.1,0,0.3c-0.4,0.4-0.8,0.9-1.2,1.4c-0.1,0.1-0.1,0.1-0.3,0c-0.3-0.3-0.8-0.7-1.3-1.1
		c-0.3,0.3-0.8,0.9-1,1.1c-0.1,0.1-0.2,0.1-0.3,0c-0.5-0.3-1-0.8-1.4-1.2c-0.1-0.1-0.1-0.2,0-0.3c0.3-0.4,0.8-0.9,1.2-1.4
		c0.1-0.1,0.2-0.1,0.3,0c0.3,0.4,0.9,0.9,1.3,1.1C131.8,49.8,132.2,49.2,132.5,49z M132.8,46.1c0.1,0,0.1,0.1,0,0.2
		c-0.2,0.3-0.9,1.1-1.3,1.5c-0.1,0.1-0.1,0.1-0.2,0c-0.4-0.2-1.3-0.9-1.6-1.3c-0.1-0.1-0.1-0.1,0-0.2c0.3-0.5,0.8-1,1.2-1.4
		c0.2-0.2,0.2-0.2,0.3-0.1C131.5,45.1,132.2,45.7,132.8,46.1z"/>
	<path class="st0" d="M134.5,58.1L134.5,58.1c-0.7,0-1-0.4-1-1.1c0-0.6,0.3-1,0.9-1h0.1c1.1,0,2-0.4,2.6-1.3l1.1-1.7
		c0.7-1,1.5-1.3,2-1.3c1.5,0,2.1,2.6,2.1,3.6c0,0.9-1,2.1-1.4,2.1c-0.7,0-2.5-0.9-3.4-1.7C136.6,57.4,135.6,58.1,134.5,58.1z
		 M139.2,53.4c-0.2,0-0.3,0.1-0.4,0.3c-0.1,0.1-0.2,0.3-0.3,0.4c0.4,0.2,1.7,0.9,2.2,1.2C140.7,54.7,139.8,53.4,139.2,53.4z"/>
	<path class="st0" d="M156.3,64.6c0.1,0,0.1,0,0.1,0c0,0.5-0.2,1-0.5,1.2l-3.7,2.1c-0.1,0-0.1,0-0.1,0c0-0.3,0.1-0.7,0.2-0.9
		c0.1-0.2,0.3-0.3,0.6-0.5L156.3,64.6z"/>
	<path class="st0" d="M155.6,50.3c0.1,0,0.1,0.1,0,0.2c-0.2,0.3-0.9,1.1-1.3,1.5c-0.1,0.1-0.1,0.1-0.2,0c-0.4-0.2-1.3-0.9-1.5-1.3
		c-0.1-0.1-0.1-0.1,0-0.2c0.3-0.5,0.8-1,1.2-1.4c0.2-0.2,0.2-0.2,0.3-0.1C154.3,49.3,154.9,49.9,155.6,50.3z"/>
	<path class="st0" d="M162.6,61.8c0.2-0.2,0.2-0.2,0.3-0.1c0.4,0.5,0.9,1,1.4,1.3c0.1,0.1,0.1,0.1,0,0.3c-0.4,0.4-0.8,0.9-1.2,1.4
		c-0.1,0.1-0.1,0.1-0.3,0c-0.3-0.3-0.8-0.7-1.3-1.1c-0.3,0.3-0.8,0.9-1,1c-0.1,0.1-0.2,0.1-0.3,0c-0.5-0.3-1-0.8-1.4-1.2
		c-0.1-0.1-0.1-0.2,0-0.3c0.3-0.4,0.8-0.9,1.2-1.4c0.1-0.1,0.2-0.1,0.3,0c0.3,0.4,0.9,0.9,1.3,1.1C161.9,62.6,162.4,62,162.6,61.8z"
		/>
	<path class="st0" d="M166.2,57c0,0.7-0.3,1.1-0.8,1.1h-0.3c-0.3,0-0.7-0.1-1.1-0.3c-0.4-0.2-0.6-0.5-0.8-0.9
		c-0.2-0.4-0.3-0.9-0.5-1.6c-0.1-0.7-0.2-1.1-0.2-1.1c-0.3,0.8-0.6,1.2-1,1.5c-0.5,0.4-1.1,0.5-1.4,0.5c-0.1,0-0.2,0-0.3,0
		c0,0.4,0,0.6,0,0.9c0,0.4,0,0.8-0.1,1.4c-0.1,0.8-0.2,1.4-0.3,1.8c-0.2,0.4-0.3,0.8-0.5,1c-1.4,1.9-3.6,2.7-6.1,2.7
		c-1.1,0-1.9-0.3-2.6-0.8c-1-0.8-1.5-2-1.5-3.3c0-1,0.4-2.3,1.1-3.3c0.2-0.3,0.4-0.5,0.6-0.5c0.1,0,0.1,0,0.1,0.1
		c0,0.1-0.1,0.4-0.2,0.6c-0.4,0.7-0.7,1.5-0.7,2.4c0,1.3,1.5,2.6,3.6,2.6c2.2,0,5.1-0.9,5.7-2.4c0-0.1,0-0.2,0-0.3
		c0-1.1-0.3-2.6-0.9-3.4c-0.2-0.3-0.4-0.5-0.4-0.5c0,0-0.1-0.1-0.1-0.1c0-0.4,0.5-1.8,0.6-1.9c0.1-0.1,0.1-0.1,0.1,0
		c0.5,0.7,1.1,1.1,1.7,1.1c0.2,0,0.5,0,0.8-0.1c0.4-0.1,0.7-0.3,0.9-0.6c0.5-0.5,0.6-0.9,0.8-1.3c0.1-0.1,0.1-0.2,0.3-0.2
		c0.1,0,0.2,0.1,0.3,0.4c0.1,0.2,0.1,0.7,0.3,1.4c0.1,0.7,0.3,1.3,0.6,1.7c0.3,0.5,0.7,0.7,1,0.7h0.3C165.9,56,166.2,56.4,166.2,57z
		"/>
	<path class="st0" d="M169.4,54.8c0,0.5,0.5,1.1,1.2,1.2c0.2,0,0.3,0,0.4,0h0.1c0.8,0,0.8,0.6,0.8,0.9c0,0.3,0,1.1-0.7,1.1H171
		c-0.1,0-0.3,0-0.5,0c-1.4-0.1-1.9-1.3-1.9-1.5c-0.2,0.5-1.3,1.5-3.3,1.5h-0.1c-0.6,0-0.9-0.5-0.9-1c0-0.5,0.3-1,0.9-1h0.6
		c0.9,0,2.2-0.1,2.9-1.4c0.2-0.4,0.3-0.5,0.4-0.5C169.3,54.2,169.4,54.3,169.4,54.8z M170.1,49.6c0.1,0,0.1,0.1,0,0.2
		c-0.2,0.3-0.9,1.1-1.3,1.5c-0.1,0.1-0.1,0.1-0.2,0c-0.4-0.2-1.3-0.9-1.5-1.3c-0.1-0.1-0.1-0.1,0-0.2c0.3-0.5,0.8-1,1.2-1.4
		c0.2-0.2,0.2-0.2,0.3-0.1C168.8,48.6,169.5,49.2,170.1,49.6z"/>
	<path class="st0" d="M176.8,59.7c0.1,0,0.1,0,0.1,0c0,0.5-0.2,1-0.5,1.2l-3.7,2.1c-0.1,0-0.1,0-0.1,0c0-0.3,0.1-0.7,0.2-0.9
		c0.1-0.2,0.3-0.3,0.6-0.5L176.8,59.7z"/>
	<path class="st0" d="M181.3,43.9C181.4,43.9,181.4,43.9,181.3,43.9c0.1,0.4-0.4,1.2-0.5,1.5c0,0.1-0.1,0.1-0.2,0.1
		c-0.6,0.2-5.3,2-7.3,3.4c2,1,3.9,3.4,3.9,4.8c0,1.4-0.4,2.4-1.2,3.2c-1.3,0.7-2.9,1.1-4.9,1.1H171c-0.4,0-0.6-0.5-0.6-1
		c0-0.6,0.3-1,0.6-1h0.2c2.7,0,4.9-0.6,5.3-1c0-1.3-2.1-3.3-3.8-4.2c-0.2-0.1-0.5-0.2-0.6-0.4c-0.1-0.2-0.1-0.4-0.1-0.8
		c0-0.5,0.1-1,0.3-1.2c0.6-0.6,1.3-1.1,2.6-1.8c2.5-1.4,5.1-2.3,6-2.6C181,44,181.3,43.9,181.3,43.9z"/>
	<path class="st0" d="M186.2,58.1c-0.6,0-1.1-0.1-1.5-0.4c-0.6-0.5-1-1.5-1.1-2.8c-0.1-1-0.2-2.1-0.3-3.3c-0.1-1.8-0.2-4.6-0.5-6.2
		c0-0.1,0-0.2,0-0.2c0-0.1,0-0.2,0.1-0.4c0.3-0.4,0.5-0.7,0.6-1.1c0.1-0.3,0.2-0.3,0.3-0.3c0.1,0,0.2,0.2,0.2,0.6
		c0.4,3.1,0.1,7.5,0.5,9.9c0.1,0.6,0.2,0.8,0.3,1.2c0.2,0.5,0.7,0.8,1.3,0.9c0.7,0,1.1,0.3,1.1,1c0,0.8-0.4,1.1-1,1.1H186.2z"/>
	<path class="st0" d="M188.5,57.2c-0.6,0.5-1.1,0.9-2.1,0.9h-0.2c-0.6,0-0.9-0.4-0.9-1.1c0-0.6,0.3-1,0.9-1h0.2
		c0.8,0,1.4-0.1,1.9-0.4c0.7-0.3,1.1-0.9,1.5-1.7c0.1-0.1,0.2-0.2,0.3-0.2c0.2,0,0.2,0.2,0.2,0.6c0.1,0.7,0.4,1.3,1.3,1.3
		c1,0,2-0.9,2.3-1.8c0.2-0.5,0.4-0.8,0.6-0.8c0.1,0,0.1,0.1,0.1,0.2c0,0.2-0.1,0.4-0.1,0.7c0,1.1,1,1.6,1.6,1.6
		c0.2,0,0.6-0.1,0.6-0.4c0-0.2-0.1-0.5-0.4-0.9c0,0,0-0.1,0-0.1c0-0.3,0.6-1.3,0.9-1.6c0,0,0.1-0.1,0.2-0.1c0.1,0,0.1,0.1,0.2,0.2
		c0.2,0.4,0.2,0.8,0.2,1.4c0,1.1-0.7,3.5-2.3,3.5c-0.9,0-1.6-0.5-1.9-1.4c-0.7,1.3-1.6,1.7-2.4,1.7c-0.9,0-1.6-0.5-1.8-2
		C189.2,56.4,188.9,56.8,188.5,57.2z"/>
	<path class="st0" d="M209.8,60.4c0.1,0,0.1,0,0.1,0c0,0.5-0.2,1-0.5,1.2l-3.7,2.1c-0.1,0-0.1,0-0.1,0c0-0.3,0.1-0.7,0.2-0.9
		c0.1-0.2,0.3-0.3,0.6-0.5L209.8,60.4z"/>
	<path class="st0" d="M210.1,56.8c-1,0.5-3.1,1.8-4.8,3c-0.1,0-0.1,0.1-0.1,0.1c0,0-0.1,0-0.1-0.1c0-0.1,0.1-0.5,0.3-0.8
		c0.1-0.2,0.6-0.7,1-1.1c0,0,0.1-0.1,0.1-0.1c0,0,0-0.1-0.2-0.1c-0.7-0.3-1.1-0.5-1.1-1.3c0-1.1,1.1-2.7,2.1-3.5
		c0.4-0.3,0.8-0.5,1.3-0.5c0.6,0,1,0.3,1,0.9c0,0.3-0.1,0.8-0.3,1.2c-0.1,0.3-0.2,0.4-0.3,0.4c-0.1,0-0.1,0-0.2-0.1
		c-0.2-0.2-0.4-0.4-0.8-0.4c-0.7,0-1.6,0.4-1.6,0.8c0,0.4,1.5,1,2.2,1c0.1,0,0.1,0,0.2,0c0.4-0.1,1.3-0.5,1.8-0.8
		c0.2-0.1,0.3-0.2,0.4-0.2c0.1,0,0.1,0,0.1,0.1c0,0.1,0,0.3-0.1,0.5C210.4,56.7,210.3,56.7,210.1,56.8z"/>
	<path class="st0" d="M216.9,58.1c-0.6,0-1.1-0.1-1.5-0.4c-0.6-0.5-1-1.5-1.1-2.8c-0.1-1-0.2-2.1-0.3-3.3c-0.1-1.8-0.2-4.6-0.5-6.2
		c0-0.1,0-0.2,0-0.2c0-0.1,0-0.2,0.1-0.4c0.3-0.4,0.5-0.7,0.6-1.1c0.1-0.3,0.2-0.3,0.3-0.3c0.1,0,0.2,0.2,0.2,0.6
		c0.4,3.1,0.1,7.5,0.5,9.9c0.1,0.6,0.2,0.8,0.3,1.2c0.2,0.5,0.7,0.8,1.3,0.9c0.7,0,1.1,0.3,1.1,1c0,0.8-0.4,1.1-1,1.1H216.9z"/>
	<path class="st0" d="M224.1,56c0.6,0,0.9,0.3,0.9,1c0,0.7-0.3,1-0.9,1h-0.2c-1.9,0-3.1-0.4-3.9-0.9c-0.7,0.4-1.7,0.9-2.9,0.9h-0.2
		c-0.6,0-0.8-0.4-0.8-1.1c0-0.6,0.3-1,0.9-1h0.2c0.8,0,1.3-0.1,1.5-0.3c-0.1-0.2-0.1-0.4-0.1-0.7c0-2,2.3-4.6,3.6-4.6
		c0.7,0,1.1,0.9,1.1,1.9c0,1.1-0.4,2.5-1.3,3.3c0.4,0.2,1,0.3,1.9,0.3H224.1z M221.8,45.4c0.2-0.2,0.2-0.2,0.3-0.1
		c0.4,0.5,0.9,1,1.4,1.3c0.1,0.1,0.1,0.1,0,0.3c-0.4,0.4-0.8,0.9-1.2,1.4c-0.1,0.1-0.1,0.1-0.3,0c-0.3-0.3-0.8-0.7-1.3-1.1
		c-0.3,0.3-0.8,0.9-1,1c-0.1,0.1-0.2,0.1-0.3,0c-0.5-0.3-1-0.8-1.4-1.2c-0.1-0.1-0.1-0.2,0-0.3c0.3-0.4,0.8-0.9,1.2-1.4
		c0.1-0.1,0.2-0.1,0.3,0c0.3,0.4,0.9,0.9,1.3,1.1C221.1,46.1,221.6,45.6,221.8,45.4z M221.2,52.5c-0.7,0-1.5,0.8-1.5,1.1
		c0,0.5,0.3,0.8,1.1,1.3c0.3-0.1,1.3-0.9,1.3-1.2C222.1,52.9,221.9,52.5,221.2,52.5z"/>
	<path class="st0" d="M228.7,60.3c0.1,0,0.1,0,0.1,0c0,0.5-0.2,1-0.5,1.2l-3.7,2.1c-0.1,0-0.1,0-0.1,0c0-0.3,0.1-0.7,0.2-0.9
		c0.1-0.2,0.3-0.3,0.6-0.5L228.7,60.3z"/>
	<path class="st0" d="M228.1,54.8c0,0.5,0.5,1.1,1.2,1.2c0.2,0,0.3,0,0.4,0h0.1c0.8,0,0.8,0.6,0.8,0.9c0,0.3,0,1.1-0.7,1.1h-0.2
		c-0.1,0-0.3,0-0.5,0c-1.4-0.1-1.9-1.3-1.9-1.5c-0.2,0.5-1.3,1.5-3.3,1.5h-0.1c-0.6,0-0.9-0.5-0.9-1c0-0.5,0.3-1,0.9-1h0.6
		c0.9,0,2.2-0.1,2.9-1.4c0.2-0.4,0.3-0.5,0.4-0.5C228,54.2,228.1,54.3,228.1,54.8z M227.9,48.7c0.2-0.2,0.2-0.2,0.3-0.1
		c0.4,0.5,0.9,1,1.4,1.3c0.1,0.1,0.1,0.1,0,0.3c-0.4,0.4-0.8,0.9-1.2,1.4c-0.1,0.1-0.1,0.1-0.3,0c-0.3-0.3-0.8-0.7-1.3-1.1
		c-0.3,0.3-0.8,0.9-1,1c-0.1,0.1-0.2,0.1-0.3,0c-0.5-0.3-1-0.8-1.4-1.2c-0.1-0.1-0.1-0.2,0-0.3c0.3-0.4,0.8-0.9,1.2-1.4
		c0.1-0.1,0.2-0.1,0.3,0c0.3,0.4,0.9,0.9,1.3,1.1C227.2,49.5,227.7,48.9,227.9,48.7z"/>
	<path class="st0" d="M232,57.1c-0.5,0.6-1,0.9-2,0.9h-0.2c-0.6,0-0.9-0.4-0.9-1.1c0-0.6,0.3-1,0.9-1h0.2c0.5,0,0.9-0.1,1.3-0.2
		c0.3-0.1,0.5-0.2,0.6-0.4c0-1.5-0.6-4.8-0.8-7.9c0-0.4-0.3-1.5-0.3-1.9c0-0.1,0-0.1,0-0.2c0-0.2,0.3-0.8,0.5-1.2
		c0.2-0.5,0.5-0.8,0.6-0.8c0.1,0,0.1,0.1,0.2,0.2c0.2,0.9,0.5,1.3,0.7,1.6c0,0.1,0.1,0.2,0.1,0.3c0,0,0,0.1,0,0.1
		c-0.1,0.2-0.3,0.7-0.5,1c0.1,3,0.6,5.5,0.6,7C232.9,55.1,232.6,56.2,232,57.1z"/>
	<path class="st0" d="M237,58.1c-0.1,0-0.1-0.1-0.1-0.6c0-2.7-1-10.1-1-11.4c0-0.6,0.4-1.5,0.8-2.2c0.1-0.2,0.3-0.5,0.4-0.5
		c0.1,0,0.1,0.2,0.2,0.7c0.1,1.9,0.6,6.5,0.6,9.8c0,1.3-0.1,2.4-0.3,3.1C237.3,57.7,237.2,58.1,237,58.1z"/>
	<path class="st0" d="M251.7,45.6c0.1,0,0.1,0,0.1,0c0,0.5-0.2,1-0.5,1.2l-3.7,2.1c-0.1,0-0.1,0-0.1,0c0-0.3,0.1-0.7,0.2-0.9
		c0.1-0.2,0.3-0.3,0.6-0.5L251.7,45.6z"/>
	<path class="st0" d="M253.9,56.2c0-0.3,0.3-1.2,0.5-1.7c0.1-0.1,0.1-0.2,0.2-0.2c0.1,0,0.1,0.1,0.2,0.2c0.5,1.1,1,1.6,1.7,1.6h0.3
		c0.6,0,0.9,0.3,0.9,1c0,0.7-0.3,1-0.9,1h-0.3c-0.4,0-0.6,0-0.8-0.1c0,1.6-0.2,2.3-0.4,2.7c-0.3,0.8-0.7,1.5-1.9,2.4
		c-1.1,0.8-2.7,1.4-4.9,1.4c-2.3,0-3.9-1.6-3.9-4c0-1.3,0.7-2.8,1.1-3.4c0.2-0.3,0.4-0.5,0.6-0.5c0.1,0,0.1,0,0.1,0.1
		c0,0.1-0.1,0.3-0.2,0.6c-0.4,0.8-0.8,1.5-0.8,2.4c0,1.7,2,2.6,3.5,2.6c2.4,0,5-0.9,5.7-2.3c0,0,0.1-0.2,0.1-0.3
		c0-1.7-0.3-2.4-0.8-3.3C253.9,56.3,253.9,56.2,253.9,56.2z M251.7,51.6c0.1,0,0.1,0.1,0,0.2c-0.2,0.3-0.9,1.1-1.3,1.5
		c-0.1,0.1-0.1,0.1-0.2,0c-0.4-0.2-1.3-0.9-1.6-1.3c-0.1-0.1-0.1-0.1,0-0.2c0.3-0.5,0.8-1,1.2-1.4c0.2-0.2,0.2-0.2,0.3-0.1
		C250.5,50.6,251.1,51.2,251.7,51.6z"/>
	<path class="st0" d="M263.7,59.8c0.1,0,0.1,0,0.1,0c0,0.5-0.2,1-0.5,1.2l-3.7,2.1c-0.1,0-0.1,0-0.1,0c0-0.3,0.1-0.7,0.2-0.9
		c0.1-0.2,0.3-0.3,0.6-0.5L263.7,59.8z"/>
	<path class="st0" d="M256.6,58.1L256.6,58.1c-0.7,0-1-0.4-1-1.1c0-0.6,0.3-1,0.9-1h0.1c1.1,0,2-0.4,2.6-1.3l1.1-1.7
		c0.7-1,1.5-1.3,2-1.3c1.5,0,2.1,2.6,2.1,3.6c0,0.9-1,2.1-1.4,2.1c-0.7,0-2.5-0.9-3.4-1.7C258.7,57.4,257.7,58.1,256.6,58.1z
		 M261.3,53.4c-0.2,0-0.3,0.1-0.4,0.3c-0.1,0.1-0.2,0.3-0.3,0.4c0.4,0.2,1.7,0.9,2.2,1.2C262.8,54.7,261.9,53.4,261.3,53.4z"/>
</g>
</svg>
