<?xml version="1.0" encoding="utf-8"?>
<!-- Generator: Adobe Illustrator 19.2.0, SVG Export Plug-In . SVG Version: 6.00 Build 0)  -->
<svg version="1.1" id="Layer_1" xmlns="http://www.w3.org/2000/svg" xmlns:xlink="http://www.w3.org/1999/xlink" x="0px" y="0px"
	 viewBox="0 0 70.3 42" style="enable-background:new 0 0 70.3 42;" xml:space="preserve">
<style type="text/css">
	.st0{fill:none;stroke:#002F3C;stroke-width:1.275;stroke-linecap:round;stroke-linejoin:round;stroke-miterlimit:10;}
	.st1{fill:url(#SVGID_1_);}
	.st2{fill:url(#SVGID_2_);}
	.st3{fill:url(#SVGID_3_);}
	.st4{fill:url(#SVGID_4_);}
	.st5{fill:url(#SVGID_5_);}
	.st6{fill:none;stroke:#002C5F;stroke-width:2.1448;stroke-linecap:round;stroke-linejoin:round;stroke-miterlimit:10;}
	.st7{fill:url(#SVGID_6_);}
	.st8{fill:#002F3C;}
	.st9{fill:url(#SVGID_7_);}
	.st10{opacity:0.7;fill:url(#SVGID_8_);}
	.st11{opacity:0.3;}
	.st12{fill:#FFFFFF;}
	.st13{fill:#F1C471;}
	.st14{opacity:0.5;}
</style>
<g>
	<g>
		<g>
			<g>
				<g>
					<path class="st0" d="M49.3,0.6H21C9.8,0.6,0.6,9.8,0.6,21S9.8,41.4,21,41.4h28.3c11.2,0,20.4-9.2,20.4-20.4S60.5,0.6,49.3,0.6z
						"/>
				</g>
				<g>
					
						<linearGradient id="SVGID_1_" gradientUnits="userSpaceOnUse" x1="6968.1567" y1="59.0941" x2="6968.1567" y2="-17.0693" gradientTransform="matrix(-1 0 0 1 7003.314 0)">
						<stop  offset="5.618000e-003" style="stop-color:#F9C727"/>
						<stop  offset="0.2528" style="stop-color:#FFFACA"/>
						<stop  offset="0.3048" style="stop-color:#F8EEB9"/>
						<stop  offset="0.408" style="stop-color:#E6D08C"/>
						<stop  offset="0.5516" style="stop-color:#CAA044"/>
						<stop  offset="0.5955" style="stop-color:#C1902D"/>
						<stop  offset="0.8708" style="stop-color:#ECD487"/>
						<stop  offset="1" style="stop-color:#FFFACA"/>
					</linearGradient>
					<path class="st1" d="M49.3,0.6H21C9.8,0.6,0.6,9.8,0.6,21S9.8,41.4,21,41.4h28.3c11.2,0,20.4-9.2,20.4-20.4S60.5,0.6,49.3,0.6z
						"/>
				</g>
			</g>
			<g>
				<g>
					<g>
						
							<linearGradient id="SVGID_2_" gradientUnits="userSpaceOnUse" x1="6968.6919" y1="35.9539" x2="6968.6919" y2="6.4632" gradientTransform="matrix(-1 0 0 1 7003.314 -1)">
							<stop  offset="0" style="stop-color:#AF650C"/>
							<stop  offset="1" style="stop-color:#F1C471"/>
						</linearGradient>
						<path class="st2" d="M3.1,20.5c0-10.3,9-18.8,20.1-18.8h22.9c11.1,0,20.1,8.4,20.1,18.8c0,10.3-9,18.8-20.1,18.8H23.2
							C12.1,39.2,3.1,30.8,3.1,20.5z M23.2,9.8c-6.7,0-12.1,4.8-12.1,10.7s5.4,10.7,12.1,10.7h22.9c6.7,0,12.1-4.8,12.1-10.7
							S52.7,9.8,46.1,9.8H23.2z"/>
					</g>
					<g>
						
							<linearGradient id="SVGID_3_" gradientUnits="userSpaceOnUse" x1="6968.6924" y1="29.7489" x2="6968.6924" y2="12.8975" gradientTransform="matrix(-1 0 0 1 7003.314 -1)">
							<stop  offset="0" style="stop-color:#AF650C"/>
							<stop  offset="1" style="stop-color:#F1C471"/>
						</linearGradient>
						<path class="st3" d="M23.2,9.8c-6.7,0-12.1,4.8-12.1,10.7s5.4,10.7,12.1,10.7h22.9c6.7,0,12.1-4.8,12.1-10.7
							S52.7,9.8,46.1,9.8H23.2z"/>
					</g>
				</g>
				<g>
					<g>
						
							<linearGradient id="SVGID_4_" gradientUnits="userSpaceOnUse" x1="6968.6919" y1="35.4902" x2="6968.6919" y2="5.9997" gradientTransform="matrix(-1 0 0 1 7003.314 0)">
							<stop  offset="0" style="stop-color:#F1C471"/>
							<stop  offset="1" style="stop-color:#AF650C"/>
						</linearGradient>
						<path class="st4" d="M3.3,20.7c0-10.2,8.9-18.5,19.8-18.5h22.9c10.9,0,19.8,8.3,19.8,18.5S57,39.2,46.1,39.2H23.2
							C12.2,39.2,3.3,30.9,3.3,20.7z M23.2,9.8c-6.8,0-12.3,4.9-12.3,11c0,6.1,5.5,11,12.3,11h22.9c6.8,0,12.3-4.9,12.3-11
							c0-6.1-5.5-11-12.3-11H23.2z"/>
					</g>
					<g>
						
							<linearGradient id="SVGID_5_" gradientUnits="userSpaceOnUse" x1="6968.6919" y1="35.4902" x2="6968.6919" y2="5.9997" gradientTransform="matrix(-1 0 0 1 7003.314 0)">
							<stop  offset="5.618000e-003" style="stop-color:#F9C727"/>
							<stop  offset="0.2528" style="stop-color:#FFFACA"/>
							<stop  offset="0.3048" style="stop-color:#F8EEB9"/>
							<stop  offset="0.408" style="stop-color:#E6D08C"/>
							<stop  offset="0.5516" style="stop-color:#CAA044"/>
							<stop  offset="0.5955" style="stop-color:#C1902D"/>
							<stop  offset="0.8708" style="stop-color:#ECD487"/>
							<stop  offset="1" style="stop-color:#FFFACA"/>
						</linearGradient>
						<path class="st5" d="M3.3,20.7c0-10.2,8.9-18.5,19.8-18.5h22.9c10.9,0,19.8,8.3,19.8,18.5S57,39.2,46.1,39.2H23.2
							C12.2,39.2,3.3,30.9,3.3,20.7z M23.2,9.8c-6.8,0-12.3,4.9-12.3,11c0,6.1,5.5,11,12.3,11h22.9c6.8,0,12.3-4.9,12.3-11
							c0-6.1-5.5-11-12.3-11H23.2z"/>
					</g>
				</g>
				<g>
					<path class="st6" d="M46.1,5.5c8.8,0,16.1,6.6,16.1,14.7c0,8.1-7.2,14.7-16.1,14.7H23.2c-8.8,0-16.1-6.6-16.1-14.7
						c0-8.1,7.2-14.7,16.1-14.7H46.1z"/>
					<path class="st6" d="M46.1,5.5c8.8,0,16.1,6.6,16.1,14.7c0,8.1-7.2,14.7-16.1,14.7H23.2c-8.8,0-16.1-6.6-16.1-14.7
						c0-8.1,7.2-14.7,16.1-14.7H46.1z"/>
				</g>
				<g>
					<path class="st6" d="M46.1,6c8.8,0,16.1,6.6,16.1,14.7c0,8.1-7.2,14.7-16.1,14.7H23.2c-8.8,0-16.1-6.6-16.1-14.7
						C7.1,12.6,14.3,6,23.2,6H46.1z"/>
					<path class="st6" d="M46.1,6c8.8,0,16.1,6.6,16.1,14.7c0,8.1-7.2,14.7-16.1,14.7H23.2c-8.8,0-16.1-6.6-16.1-14.7
						C7.1,12.6,14.3,6,23.2,6H46.1z"/>
				</g>
				<g>
					
						<linearGradient id="SVGID_6_" gradientUnits="userSpaceOnUse" x1="6968.6929" y1="35.4891" x2="6968.6929" y2="5.9989" gradientTransform="matrix(-1 0 0 1 7003.314 0)">
						<stop  offset="0" style="stop-color:#0061A5"/>
						<stop  offset="1" style="stop-color:#004783"/>
					</linearGradient>
					<path class="st7" d="M46.1,6c8.8,0,16.1,6.6,16.1,14.7c0,8.1-7.2,14.7-16.1,14.7H23.2c-8.8,0-16.1-6.6-16.1-14.7
						C7.1,12.6,14.3,6,23.2,6H46.1z"/>
					<path class="st8" d="M46.1,6c8.8,0,16.1,6.6,16.1,14.7c0,8.1-7.2,14.7-16.1,14.7H23.2c-8.8,0-16.1-6.6-16.1-14.7
						C7.1,12.6,14.3,6,23.2,6H46.1z"/>
				</g>
				<g>
					
						<linearGradient id="SVGID_7_" gradientUnits="userSpaceOnUse" x1="7584.3345" y1="913.2288" x2="7584.3345" y2="883.7375" gradientTransform="matrix(-0.9 0 0 0.5 6860.5229 -433.8589)">
						<stop  offset="0" style="stop-color:#DEDCFF;stop-opacity:0"/>
						<stop  offset="1" style="stop-color:#FFFFFF;stop-opacity:0.2"/>
					</linearGradient>
					<path class="st9" d="M42.6,8.1c8,0,14.5,3.2,14.5,7.2c0,4.1-6.5,7.2-14.5,7.2h-16c-8,0-14.5-3.2-14.5-7.2
						c0-4.1,6.5-7.2,14.5-7.2H42.6z"/>
				</g>
			</g>
			
				<linearGradient id="SVGID_8_" gradientUnits="userSpaceOnUse" x1="6956.6943" y1="8.6802" x2="6980.6914" y2="8.6802" gradientTransform="matrix(-1 0 0 1 7003.314 0)">
				<stop  offset="0" style="stop-color:#FFFFFF;stop-opacity:0"/>
				<stop  offset="0.5" style="stop-color:#FFFFFF"/>
				<stop  offset="1" style="stop-color:#FFFFFF;stop-opacity:0"/>
			</linearGradient>
			<polygon class="st10" points="22.6,9.2 46.6,9.2 46.6,8.1 22.6,8.1 			"/>
			<g class="st11">
				<path class="st12" d="M36.5,8.7c0,0.3,2.3,0.5,5.9,0.5c3.6,0,5.9-0.3,5.9-0.6c0-0.3-2.4-0.5-5.9-0.5C38.8,8.2,36.5,8.4,36.5,8.7
					z"/>
			</g>
			<path class="st12" d="M40.8,8.6c0,0.3,0.7,0.6,1.6,0.6C43.3,9.2,44,9,44,8.7c0-0.3-0.7-0.6-1.6-0.6C41.5,8.1,40.8,8.3,40.8,8.6z"
				/>
		</g>
		<g>
			<g class="st11">
				<path class="st12" d="M25.8,0.6c-1.8,0-3.2,0.4-3.2,0.8s1.4,0.8,3.2,0.8h17.6c1.8,0,3.2-0.4,3.2-0.8s-1.4-0.8-3.2-0.8H25.8z"/>
			</g>
			<g class="st11">
				<path class="st12" d="M52.1,0.6c1.8,0,3.2,0.4,3.2,0.8s-1.4,0.8-3.2,0.8H32.8c-1.8,0-3.2-0.4-3.2-0.8s1.4-0.8,3.2-0.8H52.1z"/>
			</g>
		</g>
		<g>
			<g class="st11">
				<path class="st13" d="M25,36.6c-1.8,0-3.2,0.6-3.2,1.3c0,0.7,1.4,1.3,3.2,1.3h17.6c1.8,0,3.2-0.6,3.2-1.3c0-0.7-1.4-1.3-3.2-1.3
					H25z"/>
			</g>
			<g class="st14">
				<path class="st12" d="M35.5,36.6c1.8,0,3.2,0.6,3.2,1.3c0,0.7-1.4,1.3-3.2,1.3h-7c-1.8,0-3.2-0.6-3.2-1.3c0-0.7,1.4-1.3,3.2-1.3
					H35.5z"/>
			</g>
		</g>
	</g>
	<g id="_983676320_18_">
		<g>
			<path class="st12" d="M36.2,32.1c-1.1,0.7-2.2,0.7-2.2-1.8v-5.8H22h-1.5c-1.1,0-2.2-0.7-2.2-1.8v-1.5l0,0v-1.5
				c0-1.1,1.1-2.2,2.2-2.2H22H34v-6.2c0-1.8,0.7-2.2,1.8-1.5l13.5,10.2c0.7,0.7,0.7,1.5,0,2.2L36.2,32.1z"/>
		</g>
	</g>
</g>
</svg>
