<?xml version="1.0" encoding="utf-8"?>
<!-- Generator: Adobe Illustrator 19.2.0, SVG Export Plug-In . SVG Version: 6.00 Build 0)  -->
<svg version="1.1" id="Layer_1" xmlns="http://www.w3.org/2000/svg" xmlns:xlink="http://www.w3.org/1999/xlink" x="0px" y="0px"
	 viewBox="0 0 185 39.5" style="enable-background:new 0 0 185 39.5;" xml:space="preserve">
<style type="text/css">
	.st0{fill:#F7931E;}
</style>
<g>
	<path class="st0" d="M3,11.6C3.4,12,3.5,12.6,3.5,13c0,0.3-0.1,0.9-0.5,1.2c-0.4,0.4-0.8,0.5-1.4,0.5c-0.4,0-0.8-0.1-1.2-0.5
		C0.2,13.9,0,13.5,0,13c0-0.5,0.2-1,0.5-1.3c0.4-0.3,0.8-0.5,1.2-0.5C2.2,11.2,2.7,11.4,3,11.6z M3,18.4c0.4,0.4,0.5,1,0.5,1.4
		c0,0.3-0.1,0.9-0.5,1.2c-0.4,0.4-0.9,0.5-1.4,0.5c-0.4,0-0.8-0.2-1.2-0.5C0.1,20.7,0,20.2,0,19.7c0-0.4,0.2-0.9,0.5-1.3
		c0.4-0.3,0.8-0.5,1.2-0.5C2.2,17.9,2.7,18.1,3,18.4z"/>
	<path class="st0" d="M19.6,9.3c-0.5,0-0.8-0.2-1.1-0.5c-0.3-0.4-0.4-1-0.4-1.4c0-0.5,0.1-0.8,0.2-1.3C18.5,5.4,18.8,5,19.2,5
		c0.2,0,0.2,0.2,0.1,0.3c-0.1,0.3-0.1,0.5-0.1,0.8c0,0.6,0.4,0.9,0.9,0.9c0.5,0,0.9-0.5,1.2-1.1c0.4-0.9,0.8-1.3,1.1-1.3
		c0.1,0,0.2,0.1,0.2,0.4c0,0.2,0,0.2,0,0.5c0,0.4,0.2,0.6,0.7,0.6c0.4,0,0.8-0.3,1.1-0.9c0.4-0.7,0.5-0.9,0.7-0.9
		c0.2,0,0.2,0.4,0.2,0.6c0,0.7-0.2,1.4-0.6,2.1c-0.3,0.6-0.9,1.2-1.8,1.2c-0.5,0-0.8-0.1-1-0.4c-0.1-0.1-0.2,0-0.4,0.2
		C20.9,8.9,20.3,9.3,19.6,9.3z"/>
	<path class="st0" d="M25,34.8c0.1-0.1,0.2-0.1,0.2,0.1c0,0.7-0.3,1.5-0.7,1.7l-5.3,3c-0.1,0.1-0.1,0-0.1-0.1c0-0.4,0.1-1,0.3-1.3
		c0.1-0.2,0.4-0.4,0.9-0.7L25,34.8z"/>
	<path class="st0" d="M20.7,26.9c-3.8,0-7-1.6-7-6c0-2.2,0.8-4.8,1.9-6.5c0.4-0.6,0.7-0.8,0.9-0.8c0.1,0,0.1,0.1,0.1,0.2
		c0,0.2-0.2,0.7-0.3,0.9c-0.9,1.7-1.3,3.1-1.3,4.4c0,3.5,3.2,4.9,6.2,4.9c3.3,0,8.6-2.4,9.4-3.4c0,0,0.1-0.1,0.1-0.1
		c0-0.5-1.4-0.5-3-0.7c-1.8-0.2-3.7-0.5-4-1.5c-0.1-0.5-0.2-1-0.2-1.5c0-4.3,4.9-7.9,7.4-7.9c0.8,0,1.4,0.4,1.4,1.3
		c0,0.5-0.2,1.1-0.5,1.9c-0.1,0.3-0.2,0.4-0.4,0.4s-0.2-0.1-0.3-0.2c-0.3-0.3-0.5-0.4-0.9-0.4c-1.7,0-5.2,2.4-5.5,4
		c0.1,1.1,1.8,1.5,3.4,1.7c1.4,0.2,2.6,0.2,2.9,0.4c0.7,0.3,1.1,0.9,1.1,1.8C32.2,23.3,24.6,26.9,20.7,26.9z M22.8,30.1
		c0.2-0.2,0.3-0.3,0.4-0.1c0.6,0.7,1.3,1.4,2,1.8c0.2,0.1,0.2,0.2,0,0.4c-0.6,0.6-1.2,1.3-1.7,2c-0.1,0.2-0.2,0.2-0.4,0
		c-0.5-0.4-1.2-0.9-1.8-1.6c-0.4,0.4-1.1,1.3-1.5,1.5c-0.2,0.1-0.2,0.2-0.5,0.1c-0.7-0.4-1.5-1.1-2-1.8c-0.1-0.2-0.1-0.2,0-0.4
		c0.5-0.6,1.1-1.3,1.8-2c0.1-0.1,0.2-0.1,0.4,0.1c0.5,0.5,1.3,1.3,1.8,1.6C21.8,31.2,22.5,30.4,22.8,30.1z"/>
	<path class="st0" d="M41.6,30.4c0.1-0.1,0.2-0.1,0.2,0.1c0,0.7-0.3,1.5-0.7,1.7l-5.3,3c-0.1,0.1-0.1,0-0.1-0.1c0-0.4,0.1-1,0.3-1.3
		c0.1-0.2,0.4-0.4,0.9-0.7L41.6,30.4z"/>
	<path class="st0" d="M42.3,20.2c0,4.4-2,7.7-5.3,9.1c-0.2,0.1-0.5,0.1-0.8,0.1c-1.1,0-3.7-0.6-5.2-1.4c-0.4-0.2-0.5-0.4-0.5-0.5
		c0-0.1,0.2-0.2,0.4-0.2c0.4,0,1.4,0.2,2.4,0.2c0.8,0,1.6-0.2,2.8-0.8c1.4-0.6,4.2-2.9,4.9-4.8C41,21.7,41,21.2,41,21
		c0-0.2-0.1-1.3-1.3-3c-0.4-0.6-0.7-1-1-1.6c-0.1-0.1-0.1-0.2-0.1-0.3c0-0.4,0.5-1.7,0.8-2.2c0.1-0.2,0.2-0.2,0.3-0.2
		c0.6,0,1.8,2.2,2.3,4C42.2,18.5,42.3,19.3,42.3,20.2z"/>
	<path class="st0" d="M55.6,18.2c0.9,0,1.4,0.5,1.4,1.4c0,1-0.5,1.5-1.4,1.5h-0.3c-0.8,0-1.3,0-1.7-0.1c0,0.1,0,0.3,0,0.4
		c0,0.9-0.2,1.9-0.5,2.7c-0.7,1.6-1.7,4.2-4.6,5.6c-0.5,0.2-1,0.4-1.6,0.4c-1.2,0-3-0.7-4.5-1.3c-0.4-0.2-0.5-0.4-0.5-0.5
		c0-0.2,0.2-0.3,0.5-0.3c0.4,0,1.1,0.1,1.7,0.1c4,0,8-3.5,8.5-6.4c0-0.7-1.4-2.1-1.7-2.4c-0.1-0.1-0.1-0.2-0.1-0.3
		c0-0.7,0.5-2,0.7-2.4c0.1-0.2,0.3-0.3,0.4-0.3c0.2,0,0.4,0.2,0.8,0.8c0.5,0.8,1.2,1.1,2.4,1.1H55.6z M53.2,10.3
		c0.1,0.1,0.1,0.1,0,0.2c-0.3,0.4-1.4,1.6-1.8,2.1c-0.1,0.1-0.2,0.1-0.3,0c-0.6-0.4-1.9-1.3-2.2-1.9c-0.1-0.1-0.1-0.2,0-0.3
		c0.4-0.7,1.2-1.5,1.7-2c0.2-0.2,0.3-0.3,0.4-0.2C51.4,8.9,52.3,9.7,53.2,10.3z"/>
	<path class="st0" d="M60.3,5.6c0.1-0.1,0.2-0.1,0.2,0.1c0,0.7-0.3,1.5-0.7,1.7l-5.3,3c-0.1,0.1-0.1,0-0.1-0.1c0-0.4,0.1-1,0.3-1.3
		c0.1-0.2,0.4-0.4,0.9-0.7L60.3,5.6z"/>
	<path class="st0" d="M63.2,25.9c0.1,0.1,0.1,0.1,0,0.2c-0.3,0.4-1.4,1.6-1.8,2.1c-0.1,0.1-0.2,0.1-0.3,0c-0.6-0.4-1.9-1.3-2.2-1.9
		c-0.1-0.1-0.1-0.2,0-0.3c0.4-0.7,1.2-1.5,1.7-2c0.2-0.2,0.3-0.3,0.4-0.2C61.3,24.5,62.3,25.3,63.2,25.9z"/>
	<path class="st0" d="M64.1,9c-0.1,0.7-0.1,1.4-0.3,1.9c-0.1,0.5-0.3,0.9-0.4,1.3c-0.2,0.4-0.5,0.8-1.1,1.3c1.2,0.3,2.3,0.6,3.6,1.1
		c1.4,0.4,2.5,0.7,3.4,0.9c0.8,0.2,1.8,0.3,3,0.4l2.1,0.1c0.2,0,0.3,0.1,0.2,0.2c-0.4,0.5-0.9,1.2-1.7,2c-0.2,0.2-0.2,0.2-0.5,0.2
		c-0.3-0.1-1.6-0.2-3.7-0.3c-1,0-2,0.1-3,0.4c-0.9,0.3-2.1,0.7-3.6,1.2c-1.5,0.5-2.6,0.9-3.5,1.1c-0.8,0.2-1.9,0.3-3.1,0.3h-0.3
		c-0.9,0-1.3-0.5-1.3-1.5c0-1,0.4-1.4,1.3-1.4h0.3c3.2,0,6-0.5,8.6-1.3c-0.2-0.2-1.2-0.5-2.9-1c-1.7-0.5-3-0.7-4-0.7
		c-0.2,0-0.3-0.1-0.3-0.2c0-0.3,0.6-1,1.7-2.1c0.1-0.1,0.2-0.2,0.4-0.2c0.2-0.1,0.6-0.2,1.2-0.3c0.4-0.1,0.9-0.3,1.7-0.6
		c0.7-0.3,1.1-0.7,1.1-1.1L62,5.2c-0.1-0.5-0.4-1.7-0.5-2.2c0-0.1-0.1-0.2-0.1-0.3c0-0.1,0-0.1,0-0.2C61.6,2.3,61.7,2,62,1.4
		C62.3,0.8,62.8,0,63,0c0.1,0,0.2,0.1,0.2,0.3c0.3,1.2,0.8,1.8,1.1,2.3c0.1,0.1,0.1,0.2,0.1,0.3s0,0.2-0.1,0.3
		c-0.1,0.3-0.4,0.9-0.7,1.3C63.9,6,64.1,7.7,64.1,9z"/>
	<path class="st0" d="M79.3,21.2c-0.1,0-0.2-0.2-0.2-0.9c0-3.9-1.4-14.6-1.4-16.4c0-0.9,0.6-2.2,1.1-3.2c0.2-0.3,0.4-0.7,0.6-0.7
		c0.2,0,0.2,0.2,0.2,1c0.1,2.8,0.9,9.4,0.9,14.1c0,1.9-0.1,3.5-0.5,4.4C79.8,20.7,79.6,21.2,79.3,21.2z"/>
	<path class="st0" d="M101.1,1.6c0,0.7-0.1,1.3-0.4,1.9c0.3,0.2,0.5,0.3,0.5,0.5c0,0.5-0.2,0.9-0.4,1.3c-0.1,0.1-0.1,0.1-0.1,0.1
		l-0.7-0.4c-0.6,1-1.6,2.3-3.2,3c-0.6,0.3-1.2,0.5-1.9,0.5c-0.3,0-0.5-0.1-0.5-0.2c0-0.2,0.3-0.2,0.7-0.5c1.1-0.6,3.3-2.3,4-3.2
		c-0.6-0.4-1.4-0.9-1.4-1.8c0-0.6,0.3-1.1,0.8-1.7c0.5-0.7,1.1-1,1.6-1C100.8,0,101.1,0.9,101.1,1.6z M98.8,2.2
		C98.8,2.2,98.7,2.2,98.8,2.2c0,0.2,0.5,0.6,1,0.8c0.1-0.2,0.2-0.5,0.2-0.8c0-0.4-0.2-0.6-0.4-0.6C99.3,1.6,98.9,1.8,98.8,2.2z"/>
	<path class="st0" d="M101.2,11c0.1,0.1,0.1,0.1,0,0.2c-0.3,0.4-1.4,1.6-1.8,2.1c-0.1,0.1-0.2,0.1-0.3,0c-0.6-0.4-1.9-1.3-2.2-1.9
		c-0.1-0.1-0.1-0.2,0-0.3c0.4-0.7,1.2-1.5,1.7-2C98.7,9,98.8,9,98.9,9.1C99.4,9.6,100.3,10.4,101.2,11z"/>
	<path class="st0" d="M110.9,31c0.1,0.1,0.1,0.1,0,0.2c-0.3,0.4-1.4,1.6-1.8,2.1c-0.1,0.1-0.2,0.1-0.3,0c-0.6-0.4-1.9-1.3-2.2-1.9
		c-0.1-0.1-0.1-0.2,0-0.3c0.4-0.7,1.2-1.5,1.7-2c0.2-0.2,0.3-0.3,0.4-0.2C109.1,29.6,110,30.4,110.9,31z"/>
	<path class="st0" d="M110.7,16.9c0,2.6-1.9,4.1-3.7,4.1h-0.2c0,0.2,0.1,0.5,0.1,0.9c0,0.4,0,0.8-0.1,1.3c-0.1,1-0.2,1.8-0.5,2.4
		c-0.5,1.2-0.9,1.8-1.5,2.4c-2.1,2.2-5.2,3-8.2,3c-1.8,0-3.3-0.5-4.6-2c-0.7-0.8-1.2-2.2-1.2-3.7c0-1.8,0.6-3.5,1.6-4.9
		c0.4-0.6,0.7-0.8,0.8-0.8c0.1,0,0.2,0.1,0.2,0.3c0,0.2-0.1,0.5-0.4,0.9c-0.9,1.7-1,2.7-1,3.4c0,1.1,0.8,2.1,1.7,2.7
		c1,0.7,2.3,1,3.5,1c3.1,0,7.3-1.3,8.2-3.5c-0.1-2.1-0.5-3-1.2-4.9c0-0.1,0-0.1,0-0.2c0-0.6,0.4-1.7,0.8-2.5
		c0.1-0.1,0.1-0.2,0.2-0.2c0.1,0,0.1,0.1,0.2,0.2c0.6,0.7,1.1,1.1,1.8,1.3c0.1,0,0.2,0,0.3,0c1,0,2-0.8,2.2-2.1
		c0.1-0.6,0.2-0.8,0.4-0.8c0.3,0,0.6,0.5,0.6,1.3C110.7,16.6,110.7,16.8,110.7,16.9z"/>
	<path class="st0" d="M115.7,21.2c-0.1,0-0.2-0.2-0.2-0.9c0-3.9-1.4-14.6-1.4-16.4c0-0.9,0.6-2.2,1.1-3.2c0.2-0.3,0.4-0.7,0.6-0.7
		c0.2,0,0.2,0.2,0.2,1c0.1,2.8,0.9,9.4,0.9,14.1c0,1.9-0.1,3.5-0.5,4.4C116.2,20.7,116,21.2,115.7,21.2z"/>
	<path class="st0" d="M143.5,18.5c0,2.9-0.5,3.6-1.2,4.7c-1.6,2.5-4.6,3.7-7.6,3.7c-5.1,0-6.5-2.7-6.5-5.3c0-1.9,0.6-3.8,1.4-5.3
		c0.4-0.8,0.8-1.1,1-1.1c0.1,0,0.1,0.1,0.1,0.2c0,0.2-0.1,0.6-0.3,1c-0.4,0.9-0.9,2.2-0.9,3.2c0,2.3,1.8,4.3,5.7,4.3
		c2.8,0,6.3-1.8,7-3.3c0.1-0.2,0.1-0.3,0.1-0.4c-0.2-2.4-0.3-4.1-0.6-6.2c-0.5-3.9-0.6-4.9-1.1-8.5c0-0.5-0.4-1.7-0.5-2.2
		c0-0.1-0.1-0.2-0.1-0.3c0-0.1,0-0.1,0-0.2c0.1-0.2,0.2-0.5,0.5-1.1c0.3-0.7,0.9-1.4,1.1-1.4c0.1,0,0.2,0.1,0.2,0.3
		c0.3,1.2,0.7,1.8,1,2.3c0.1,0.1,0.1,0.2,0.1,0.3c0,0.1,0,0.2-0.1,0.3c-0.1,0.3-0.4,1-0.6,1.4C142.8,9.1,143.5,15.5,143.5,18.5z"/>
	<path class="st0" d="M142.1,28.8c-0.4-0.2-0.5-0.4-0.5-0.5c0-0.1,0.2-0.2,0.5-0.2c0.3,0,1.4,0.2,2.3,0.2c0.8,0,1.5-0.2,2.7-0.8
		c3.1-1.6,5-3.8,5-5.4c0-0.2,0-0.4-0.1-0.8H151c-0.7,0-1.9-0.1-2.8-0.6c-0.9-0.5-1.2-1.2-1.2-2c0-0.7,0.3-1.9,0.8-2.8
		c0.7-1.6,1.6-2.8,2.4-2.8c0.9,0,1.7,0.6,2.3,1.5c0.6,0.9,0.9,2.4,0.9,3.6h1.2c0.8,0,1.2,0.4,1.2,1.3c0,1.1-0.4,1.6-1.2,1.6
		l-1.4,0.1c-0.2,4.5-1.7,7.4-5.3,8.8c-0.2,0.1-0.5,0.1-0.8,0.1C145.9,30.2,143.8,29.6,142.1,28.8z M150.1,16.4
		c-0.2-0.1-0.4-0.3-0.7-0.3c-0.6,0-1,0.7-1,1c0,0.3,0.3,0.6,1,0.9c0.5,0.2,1.1,0.3,1.5,0.3c0.2,0,0.3,0,0.3-0.1
		C151.2,17.9,150.7,16.9,150.1,16.4z"/>
	<path class="st0" d="M164.5,18.2c0.9,0,1.3,0.5,1.3,1.4c0,1-0.4,1.5-1.3,1.5h-0.4c-2.8,0-4.4-0.6-5.6-1.2c-1,0.6-2.4,1.2-4.1,1.2
		h-0.3c-0.8,0-1.2-0.5-1.2-1.5c0-0.9,0.4-1.4,1.2-1.4h0.3c1.1,0,1.9-0.2,2.2-0.5c-0.1-0.3-0.1-0.6-0.1-1c0-2.9,3.3-6.6,5.2-6.6
		c1.1,0,1.6,1.2,1.6,2.8c0,1.6-0.6,3.6-1.9,4.8c0.6,0.3,1.5,0.5,2.8,0.5H164.5z M161.2,2.9c0.2-0.2,0.3-0.3,0.4-0.1
		c0.6,0.7,1.3,1.4,2,1.8c0.2,0.1,0.2,0.2,0,0.4c-0.6,0.6-1.2,1.3-1.7,2c-0.1,0.2-0.2,0.2-0.4,0c-0.5-0.4-1.2-0.9-1.8-1.6
		c-0.4,0.4-1.1,1.3-1.5,1.5C158.1,7,158,7.1,157.7,7c-0.7-0.4-1.5-1.1-2-1.8c-0.1-0.2-0.1-0.2,0-0.4c0.5-0.6,1.1-1.3,1.8-2
		c0.1-0.1,0.2-0.1,0.4,0.1c0.5,0.5,1.3,1.3,1.8,1.6C160.2,4,160.9,3.2,161.2,2.9z M160.4,13.2c-1.1,0-2.1,1.1-2.1,1.6
		c0,0.7,0.5,1.2,1.6,1.8c0.4-0.2,1.8-1.2,1.8-1.7C161.7,13.8,161.3,13.2,160.4,13.2z"/>
	<path class="st0" d="M169.2,19.4c-0.6,0.8-1.5,1.5-3.3,1.7c-0.5,0.1-1.2,0.1-1.8,0.1c-0.8,0-1.2-0.7-1.2-1.5c0-0.7,0.4-1.5,1.2-1.5
		h0.7c1.3,0,3.4-0.1,4.1-0.8c-0.1-1.2-1-2.6-1.4-3.1c0,0,0-0.1,0-0.1c0-0.5,0.9-2.3,0.9-2.4c0-0.1,0.1-0.2,0.2-0.2
		c0.4,0,1.5,2.1,1.5,4.5C170,17.2,169.9,18.4,169.2,19.4z M169.9,22.7c0.2-0.2,0.3-0.3,0.4-0.1c0.6,0.7,1.3,1.4,2,1.8
		c0.2,0.1,0.2,0.2,0,0.4c-0.6,0.6-1.2,1.3-1.7,2c-0.1,0.2-0.2,0.2-0.4,0c-0.5-0.4-1.2-0.9-1.8-1.6c-0.4,0.4-1.1,1.3-1.5,1.5
		c-0.2,0.1-0.2,0.2-0.5,0.1c-0.7-0.4-1.5-1.1-2-1.8c-0.1-0.2-0.1-0.2,0-0.4c0.5-0.6,1.1-1.3,1.8-2c0.1-0.1,0.2-0.1,0.4,0.1
		c0.5,0.5,1.3,1.3,1.8,1.6C168.9,23.8,169.6,23,169.9,22.7z"/>
	<path class="st0" d="M185,14.6c0,0,0,0.3,0,0.3c0,0.4-0.3,1.5-0.4,1.5c-0.2,0.1-4.9,0.2-5.5,0.2c0,0,0-0.2,0-0.3
		c0-0.4,0.2-1.5,0.4-1.5C180.8,14.7,184.3,14.6,185,14.6z"/>
</g>
</svg>
