<?xml version="1.0" encoding="utf-8"?>
<!-- Generator: Adobe Illustrator 19.2.0, SVG Export Plug-In . SVG Version: 6.00 Build 0)  -->
<svg version="1.1" id="Layer_1" xmlns="http://www.w3.org/2000/svg" xmlns:xlink="http://www.w3.org/1999/xlink" x="0px" y="0px"
	 viewBox="0 0 507.6 51.3" style="enable-background:new 0 0 507.6 51.3;" xml:space="preserve">
<style type="text/css">
	.st0{fill:#FFFFFF;}
</style>
<g>
	<path class="st0" d="M9.2,47.1c0.2-0.2,0.3-0.3,0.4-0.1c0.6,0.7,1.3,1.4,2,1.8c0.2,0.1,0.2,0.2,0,0.4c-0.6,0.6-1.2,1.3-1.7,2
		c-0.1,0.2-0.2,0.2-0.4,0c-0.5-0.4-1.2-0.9-1.8-1.6c-0.4,0.4-1.1,1.3-1.5,1.5c-0.2,0.1-0.2,0.2-0.5,0.1c-0.7-0.4-1.5-1.1-2-1.8
		c-0.1-0.2-0.1-0.2,0-0.4c0.5-0.6,1.1-1.3,1.8-2c0.1-0.1,0.2-0.1,0.4,0.1c0.5,0.5,1.3,1.3,1.8,1.6C8.2,48.2,8.9,47.4,9.2,47.1z"/>
	<path class="st0" d="M19.2,22.7c0.1,0.1,0.1,0.1,0,0.2c-0.3,0.4-1.4,1.6-1.8,2.1c-0.1,0.1-0.2,0.1-0.3,0c-0.6-0.4-1.9-1.3-2.2-1.9
		c-0.1-0.1-0.1-0.2,0-0.3c0.4-0.7,1.2-1.5,1.7-2c0.2-0.2,0.3-0.3,0.4-0.2C17.3,21.3,18.3,22.1,19.2,22.7z"/>
	<path class="st0" d="M1.9,31.6c0.3-0.5,0.6-0.8,0.9-0.8c0.3,0,0.1,0.6-0.2,1c-0.8,1.7-1.3,3.2-1.3,4.5c0,2,1.1,3.5,2.9,4.3
		c1.1,0.5,2.2,0.7,3.2,0.7c3.5,0,8.8-2.5,9.8-3.6c0,0,0,0,0-0.1c0-0.2-0.7-0.4-2-0.5c-2.9-0.2-4.3-0.8-4.3-1.8c0-2.2,1.6-4.5,3.5-6
		c1.3-1,2.5-1.5,3.7-1.5c1,0,1.4,0.3,1.9,1.2c0.5,0.8,1.1,1.6,1.8,1.7h0.5c0.8,0,1.2,0.5,1.2,1.4c0,1-0.4,1.6-1.2,1.6h-0.5
		c-0.4,0-0.9-0.2-1.4-0.5c-0.5-0.3-1-0.7-1.3-1.2c-0.4-0.5-0.7-0.8-0.9-0.9c-0.2-0.2-0.6-0.2-1.2-0.2c-0.8,0-1.7,0.3-2.6,0.8
		c-0.9,0.5-1.6,1.1-1.9,1.7c-0.1,0.2-0.1,0.3-0.1,0.4c0,0.6,0.9,1,2.6,1.3c1.7,0.2,2.7,0.3,3.2,0.5c0.4,0.2,0.6,0.6,0.6,1.2
		c0,0.3,0,0.7-0.1,1.1c-1.1,3.6-8,6.6-11.9,6.6c-1.1,0-2.5-0.2-3.7-0.8c-1.7-0.8-3-2.4-3-5.2C0,36,0.9,33.1,1.9,31.6z"/>
	<path class="st0" d="M27.9,28.9c0,0.7,0.8,1.6,1.7,1.7c0.2,0,0.4,0,0.6,0h0.2c1.1,0,1.1,0.9,1.1,1.3c0,0.4,0,1.6-1.1,1.6h-0.2
		c-0.2,0-0.4,0-0.7,0c-2-0.2-2.7-1.9-2.8-2.1c-0.3,0.8-1.9,2.2-4.7,2.2h-0.1c-0.8,0-1.2-0.7-1.2-1.5c0-0.7,0.4-1.5,1.2-1.5h0.9
		c1.3,0,3.1-0.2,4.2-2.1c0.3-0.6,0.5-0.7,0.6-0.7C27.8,28,27.9,28.2,27.9,28.9z M27.7,37.5c0.2-0.2,0.3-0.3,0.4-0.1
		c0.6,0.7,1.3,1.4,2,1.8c0.2,0.1,0.2,0.2,0,0.4c-0.6,0.6-1.2,1.3-1.7,2c-0.1,0.2-0.2,0.2-0.4,0c-0.5-0.4-1.2-0.9-1.8-1.6
		c-0.4,0.4-1.1,1.3-1.5,1.5c-0.2,0.1-0.2,0.2-0.5,0.1c-0.7-0.4-1.5-1.1-2-1.8c-0.1-0.2-0.1-0.2,0-0.4c0.5-0.6,1.1-1.3,1.8-2
		c0.1-0.1,0.2-0.1,0.4,0.1c0.5,0.5,1.3,1.3,1.8,1.6C26.7,38.6,27.4,37.8,27.7,37.5z"/>
	<path class="st0" d="M37.6,30.7h0.1c0.8,0,1.1,0.7,1.1,1.5c0,0.7-0.4,1.5-1.1,1.5h-0.1c-0.8,0-1.6-0.1-2.3-0.6
		c-1-0.8-1.4-2.2-1.5-2.4c-0.1,0.9-1.4,3.1-3.3,3.1h-0.1c-0.8,0-1.2-0.7-1.2-1.5c0-0.7,0.4-1.5,1.2-1.5h0.1c1.6,0,2.5-0.7,2.7-1
		c0,0,0.1-0.1,0.1-0.2c0-0.2-0.5-3.3-0.5-3.6c0-0.1,0-0.3,0.1-0.4c0.1-0.5,0.5-1.2,0.7-1.7c0.1-0.3,0.2-0.4,0.3-0.4
		c0.1,0,0.2,0.2,0.3,0.5c0.4,1.3,0.7,4,1,4.9C35.8,29.9,37.1,30.7,37.6,30.7z M35.6,35.6c0.2-0.2,0.3-0.3,0.4-0.1
		c0.6,0.7,1.3,1.4,2,1.8c0.2,0.1,0.2,0.2,0,0.4c-0.6,0.6-1.2,1.3-1.7,2c-0.1,0.2-0.2,0.2-0.4,0c-0.5-0.4-1.2-0.9-1.8-1.6
		c-0.4,0.4-1.1,1.3-1.5,1.5c-0.2,0.1-0.2,0.2-0.5,0.1c-0.7-0.4-1.5-1.1-2-1.8c-0.1-0.2-0.1-0.2,0-0.4c0.5-0.6,1.1-1.3,1.8-2
		c0.1-0.1,0.2-0.1,0.4,0.1c0.5,0.5,1.3,1.3,1.8,1.6C34.6,36.7,35.3,35.9,35.6,35.6z"/>
	<path class="st0" d="M43.8,28.9c0,0.7,0.8,1.6,1.7,1.7c0.2,0,0.4,0,0.6,0h0.2c1.1,0,1.1,0.9,1.1,1.3c0,0.4,0,1.6-1.1,1.6h-0.2
		c-0.2,0-0.4,0-0.7,0c-2-0.2-2.7-1.9-2.8-2.1c-0.3,0.8-1.9,2.2-4.7,2.2h-0.1c-0.8,0-1.2-0.7-1.2-1.5c0-0.7,0.4-1.5,1.2-1.5h0.9
		c1.3,0,3.1-0.2,4.2-2.1c0.3-0.6,0.5-0.7,0.6-0.7C43.7,28,43.8,28.2,43.8,28.9z M45.2,39c0.1,0.1,0.1,0.1,0,0.2
		c-0.3,0.4-1.4,1.6-1.8,2.1c-0.1,0.1-0.2,0.1-0.3,0c-0.6-0.4-1.9-1.3-2.2-1.9c-0.1-0.1-0.1-0.2,0-0.3c0.4-0.7,1.2-1.5,1.7-2
		c0.2-0.2,0.3-0.3,0.4-0.2C43.4,37.6,44.3,38.4,45.2,39z"/>
	<path class="st0" d="M52.3,9.9c0.1-0.1,0.2-0.1,0.2,0.1c0,0.7-0.3,1.5-0.7,1.7l-5.3,3c-0.1,0.1-0.1,0-0.1-0.1c0-0.4,0.1-1,0.3-1.3
		c0.1-0.2,0.4-0.4,0.9-0.7L52.3,9.9z"/>
	<path class="st0" d="M51.3,31.8c-0.6,0.8-1.5,1.5-3.3,1.7c-0.5,0.1-1.2,0.1-1.8,0.1c-0.8,0-1.2-0.7-1.2-1.5c0-0.7,0.4-1.5,1.2-1.5
		h0.7c1.3,0,3.4-0.1,4.1-0.8c-0.1-1.2-1-2.6-1.4-3.1c0,0,0-0.1,0-0.1c0-0.5,0.9-2.3,0.9-2.4c0-0.1,0.1-0.2,0.2-0.2
		c0.4,0,1.5,2.1,1.5,4.5C52.1,29.6,52,30.8,51.3,31.8z M51.2,17.1c0.2-0.2,0.3-0.3,0.4-0.1c0.6,0.7,1.3,1.4,2,1.8
		c0.2,0.1,0.2,0.2,0,0.4c-0.6,0.6-1.2,1.3-1.7,2c-0.1,0.2-0.2,0.2-0.4,0c-0.5-0.4-1.2-0.9-1.8-1.6c-0.4,0.4-1.1,1.3-1.5,1.5
		c-0.2,0.1-0.2,0.2-0.5,0.1c-0.7-0.4-1.5-1.1-2-1.8c-0.1-0.2-0.1-0.2,0-0.4c0.5-0.6,1.1-1.3,1.8-2c0.1-0.1,0.2-0.1,0.4,0.1
		c0.5,0.5,1.3,1.3,1.8,1.6C50.2,18.2,50.9,17.4,51.2,17.1z"/>
	<path class="st0" d="M69.4,2.6c0.8,0,2.1,1.2,2.1,2.7c0,0.5-0.1,1-0.2,1.5c-0.4,1-1.2,1.6-2.3,1.6c-1,0-1.7-0.8-1.7-1.7
		C67.2,5.4,68.7,2.6,69.4,2.6z M69.1,4.6c-0.3,0-0.9,0.8-0.9,1.2c0,0.3,0.5,0.7,1,0.7c0.7,0,1.4-0.4,1.4-0.6
		C70.6,5.7,69.8,4.6,69.1,4.6z"/>
	<path class="st0" d="M74.4,30.7h0.4c0.9,0,1.3,0.5,1.3,1.4c0,1-0.5,1.5-1.3,1.5h-0.4c-1-0.1-1.7-0.3-2.3-0.8
		c-0.6-0.5-1.1-1.3-1.4-2.5c-0.4,2-2.9,3.4-5.9,3.4c-0.9,0-1.9-0.1-2.7-0.6c-0.5-0.4-0.8-0.8-0.8-1.4c0-0.7,0.2-1.7,0.5-2.4
		c0.1-0.2,0.2-0.4,0.4-0.4c0.2,0,0.2,0.2,0.3,0.4c0.3,0.9,1.5,1.2,3,1.2c2.7,0,4-0.6,4.6-1.6c0.1-0.3,0.1-0.6,0.1-0.9
		c0-1.6-0.5-3.7-0.9-5.7c-0.1-0.2-0.1-0.4-0.1-0.6c0-0.2,0.1-0.5,0.7-1.9c0.2-0.5,0.4-0.8,0.5-0.8c0.1,0,0.2,0.2,0.4,0.8
		c1,4.3,1.1,7.3,1.5,9c0.1,0.5,0.3,0.8,0.6,1.1C73.4,30.4,73.9,30.6,74.4,30.7z M72,12.7c0.1,0.1,0.1,0.1,0,0.2
		c-0.3,0.4-1.4,1.6-1.8,2.1c-0.1,0.1-0.2,0.1-0.3,0c-0.6-0.4-1.9-1.3-2.2-1.9c-0.1-0.1-0.1-0.2,0-0.3c0.4-0.7,1.2-1.5,1.7-2
		c0.2-0.2,0.3-0.3,0.4-0.2C70.1,11.3,71.1,12.1,72,12.7z"/>
	<path class="st0" d="M80.5,11.9c0,0.7-0.1,1.3-0.4,1.9c0.3,0.2,0.5,0.3,0.5,0.5c0,0.5-0.2,0.9-0.4,1.3c-0.1,0.1-0.1,0.1-0.1,0.1
		l-0.7-0.4c-0.6,1-1.6,2.3-3.2,3c-0.6,0.3-1.2,0.5-1.9,0.5c-0.3,0-0.5-0.1-0.5-0.2c0-0.2,0.3-0.2,0.7-0.5c1.1-0.6,3.3-2.3,4-3.2
		C77.8,14.3,77,13.8,77,13c0-0.6,0.3-1.1,0.8-1.7c0.5-0.7,1.1-1,1.6-1C80.2,10.3,80.4,11.2,80.5,11.9z M78.2,12.4
		C78.1,12.5,78.1,12.5,78.2,12.4c0,0.2,0.5,0.6,1,0.8c0.1-0.2,0.2-0.5,0.2-0.8c0-0.4-0.2-0.6-0.4-0.6C78.6,11.9,78.3,12.1,78.2,12.4
		z"/>
	<path class="st0" d="M80.6,21.3c0.1,0.1,0.1,0.1,0,0.2c-0.3,0.4-1.4,1.6-1.8,2.1c-0.1,0.1-0.2,0.1-0.3,0c-0.6-0.4-1.9-1.3-2.2-1.9
		c-0.1-0.1-0.1-0.2,0-0.3c0.4-0.7,1.2-1.5,1.7-2c0.2-0.2,0.3-0.3,0.4-0.2C78.7,19.9,79.7,20.7,80.6,21.3z"/>
	<path class="st0" d="M86.7,2.8c0.1-0.1,0.2-0.1,0.2,0.1c0,0.7-0.3,1.5-0.7,1.7l-5.3,3c-0.1,0.1-0.1,0-0.1-0.1c0-0.4,0.1-1,0.3-1.3
		C81.3,6,81.5,5.8,82,5.5L86.7,2.8z"/>
	<path class="st0" d="M86.5,10.5c0.1,0.1,0.1,0.1,0,0.2c-0.3,0.4-1.4,1.6-1.8,2.1c-0.1,0.1-0.2,0.1-0.3,0c-0.6-0.4-1.9-1.3-2.2-1.9
		c-0.1-0.1-0.1-0.2,0-0.3c0.4-0.7,1.2-1.5,1.7-2c0.2-0.2,0.3-0.3,0.4-0.2C84.7,9.1,85.6,10,86.5,10.5z"/>
	<path class="st0" d="M85.9,26.6c4,1.3,7.3,1.9,9.8,1.8c0.1,0,0.2,0.1,0.2,0.2c0,0.3-0.6,1.1-1.7,2.2c-0.1,0.1-0.2,0.1-0.5,0.1
		c-1.1-0.2-2.8-0.3-3.4-0.3c-1-0.1-1.9,0.1-3.2,0.4c-0.9,0.3-2.2,0.7-3.7,1.2c-2.7,1-5.6,1.4-8.8,1.4h-0.3c-0.8,0-1.2-0.5-1.2-1.5
		c0-0.9,0.4-1.4,1.2-1.4h0.3c3.6,0,7.1-0.4,10.7-1.3c0,0,0-0.1-0.2-0.1c-1.8-0.9-4-1.5-6.7-1.7c-0.2,0-0.2-0.1,0-0.4
		c0.2-0.4,0.8-1,1.7-1.9c0.2-0.2,0.5-0.4,0.8-0.4c5.5-0.4,6.4-0.9,6.5-1.1c0.2-0.9,0.2-1.6-0.1-2.4C87,22.2,86,22.6,85,22.6
		c-1.2,0-2.3-0.7-2.3-2.4c0-2.4,1.7-5.4,2.6-5.4c1,0,2.2,0.9,2.9,2.5c0.5,1.2,0.8,2.5,0.8,3.6C89.1,23,87.9,25.6,85.9,26.6z
		 M85,17.6c-0.3,0-0.6,0.3-0.8,0.9c0,0.1-0.1,0.2-0.1,0.3c0,0.6,0.6,0.8,1.2,0.8c0.6,0,1.3-0.2,1.3-0.7C86.3,18,85.5,17.6,85,17.6z"
		/>
	<path class="st0" d="M115.3,34.9c0.1-0.1,0.2-0.1,0.2,0.1c0,0.7-0.3,1.5-0.7,1.7l-5.4,3.1c-0.1,0.1-0.1,0-0.1-0.1
		c0-0.4,0.1-1,0.3-1.3c0.1-0.2,0.4-0.4,0.9-0.7L115.3,34.9z M115.3,37.6c0.1-0.1,0.2-0.1,0.2,0.1c0,0.7-0.3,1.5-0.7,1.7l-5.4,3.1
		c-0.1,0.1-0.1,0-0.1-0.1c0-0.4,0.1-1,0.3-1.3c0.1-0.2,0.4-0.4,0.9-0.7L115.3,37.6z"/>
	<path class="st0" d="M114.7,27.5c-0.1,0.9-0.6,2.1-1.1,2.7c-0.1,0.1-0.1,0.1-0.2,0.1c0,0-0.1,0-0.2,0c-0.4-0.1-0.9-0.2-1.9-0.2
		c-2.1,0-4.6,0.5-4.7,1.3c0,1.1,1.2,5.1,1.2,10.2c0,0.5,0,1,0,1.4c-0.2,2.2-0.8,3.4-1.1,3.4c-0.2,0-0.2-0.2-0.2-0.8
		c0-0.4,0-0.8,0-1.3c0-3-0.6-6.5-1.2-9.7c-0.2-0.9-0.2-1.7-0.2-2.4c0-2.5,0.9-3.3,1.5-3.8c0-0.1,0-0.3,0-0.4c0-1.9,1.2-5,3-5
		c2.3,0,4.1,2.6,5.2,4.2C114.7,27.3,114.7,27.3,114.7,27.5z M108.9,26.3c-0.8,0-1.1,0.8-1.2,1.5c0.8-0.5,2.2-0.7,2.9-0.7
		C110.1,26.5,109.6,26.3,108.9,26.3z"/>
	<path class="st0" d="M120.8,32.9c-0.8-0.6-1.2-1.2-1.6-2.5c-0.4-1.4-0.9-5.5-1.2-12.6c-0.1-1.2-0.1-2-0.3-2.7c0-0.1,0-0.2,0-0.3
		c0.3-0.9,1.1-2.5,1.5-2.5c0.2,0,0.2,0.6,0.2,0.8c0.1,0.8,0.2,2.2,0.3,3.7c0.1,0.9,0.1,2.6,0.3,4.5l0.3-1.1c0.2-0.7,0.7-1.4,1.5-2
		c1.3-1,3.1-2.2,5.5-3.6c2.4-1.4,4.3-2.3,5.6-2.8c0.5-0.2,0.7-0.2,0.4,0.5c-0.2,0.5-0.5,1.2-1.1,2.1c-0.1,0.1-0.1,0.2-0.3,0.3
		c-1.2,0.5-3,1.5-5.3,2.9c-2.4,1.4-4.2,2.6-5.4,3.5c3.3,1.7,6.4,4,9.3,6.9c1,1.1,1.8,1.8,2.4,2.2c0.5,0.4,1.1,0.6,1.6,0.6h0.4
		c0.1,0,1,0,1,1.5c0,1.4-0.9,1.4-1,1.4h-0.4c-1,0-2-0.3-2.8-1c-0.9-0.7-2-1.7-3.4-3.2c-0.1,0.9-0.4,1.7-0.8,2.4
		c-0.6,1-2.1,1.7-4.3,1.8C122,33.6,121.4,33.4,120.8,32.9z M122.3,30.5c0.2,0.1,0.6,0.1,1,0.1c1.2,0,2.4-0.3,3.4-1.1
		c0.1-0.1,0.1-0.2,0-0.5c-0.2-0.6-0.7-1.2-1.5-2c-1.1-0.9-2.6-1.8-4.5-2.7c-0.2-0.1-0.4-0.3-0.6-0.6c0.2,2.1,0.4,3.9,0.8,5.1
		C121.2,29.7,121.7,30.3,122.3,30.5z"/>
	<path class="st0" d="M141.3,15.1c0.8,0,2.1,1.2,2.1,2.7c0,0.5-0.1,1-0.2,1.5c-0.4,1-1.2,1.6-2.3,1.6c-1,0-1.7-0.8-1.7-1.7
		C139.2,17.9,140.7,15.1,141.3,15.1z M141,17.1c-0.3,0-0.9,0.8-0.9,1.2c0,0.3,0.5,0.7,1,0.7c0.7,0,1.4-0.4,1.4-0.6
		C142.6,18.2,141.8,17.1,141,17.1z"/>
	<path class="st0" d="M138.2,26.8c-0.3,0-0.6,0-0.8,0.1c-0.2,0.1-0.7,0.4-1,0.4c-0.2,0-0.2-0.1-0.2-0.3c0-0.6,0.8-1.7,1.5-2.3
		c0.6-0.5,1.2-0.7,1.8-0.7c0.2,0,0.4,0,0.6,0.1c2.3,0.5,5.3,1.8,7.7,2.3c1.6,0.4,3.3,0.5,4.4,0.5c0.2,0,0.4,0,0.6,0
		c0.1,0,0.1,0,0.1,0.1c0,0.5-0.9,1.9-1.4,2.4c-0.1,0.1-0.4,0.1-0.7,0.1c-0.6,0-2.1-0.1-2.4-0.1c-1.1,0-2.1,0.1-2.9,0.4
		c-0.5,0.2-1.5,0.6-3,1.2c-2.1,1.1-3.7,1.8-4.6,2.1c-1,0.4-2,0.6-3.2,0.6h-0.3c-0.9,0-1.4-0.5-1.4-1.5c0-0.9,0.5-1.4,1.4-1.4h0.4
		c1.8,0,3.2-0.2,4.4-0.5c1.2-0.3,2.9-0.9,5.1-1.9C141.6,27.6,139.6,26.8,138.2,26.8z"/>
	<path class="st0" d="M160,0c0.1-0.1,0.2-0.1,0.2,0.1c0,0.7-0.3,1.5-0.7,1.7l-5.3,3c-0.1,0.1-0.1,0-0.1-0.1c0-0.4,0.1-1,0.3-1.3
		c0.1-0.2,0.4-0.4,0.9-0.7L160,0z"/>
	<path class="st0" d="M159.7,9.9c-1.1,0.6-3.4,1.9-5.2,3.3c-0.1,0-0.1,0.1-0.1,0.1c0,0-0.1,0-0.1-0.1c0-0.1,0.1-0.4,0.3-0.9
		c0.1-0.2,0.6-0.8,1.1-1.1c0.1-0.1,0.1-0.1,0.1-0.1c0,0-0.1-0.1-0.2-0.1c-0.8-0.3-1.1-0.5-1.2-1.2c0-0.1,0-0.1,0-0.2
		c0-1.2,1.2-2.9,2.4-3.8c0.4-0.3,0.8-0.5,1.3-0.5c0.7,0,1,0.3,1,0.9c0,0.3-0.1,0.7-0.3,1.2c-0.1,0.3-0.2,0.5-0.3,0.5
		c-0.1,0-0.2-0.1-0.4-0.2c-0.2-0.2-0.4-0.3-0.7-0.3c-1,0-1.7,0.6-1.7,0.9c0,0.4,1.7,1.1,2.3,1.1c0.1,0,0.1,0,0.2,0
		c0.3-0.1,1.4-0.5,1.9-0.8c0.2-0.1,0.3-0.2,0.4-0.2c0.1,0,0.1,0,0.1,0.1c0,0.1-0.1,0.3-0.2,0.5C160.1,9.6,159.9,9.8,159.7,9.9z
		 M157.8,33.6c-0.1,0-0.2-0.2-0.2-0.9c0-3.9-1.4-14.6-1.4-16.4c0-0.9,0.6-2.2,1.1-3.2c0.2-0.3,0.4-0.7,0.6-0.7c0.2,0,0.2,0.2,0.2,1
		c0.1,2.8,0.9,9.4,0.9,14.1c0,1.9-0.1,3.5-0.5,4.4C158.3,33.1,158,33.6,157.8,33.6z"/>
	<path class="st0" d="M177.8,14.9c0,0.7-0.1,1.3-0.4,1.9c0.3,0.2,0.5,0.3,0.5,0.5c0,0.5-0.2,0.9-0.4,1.3c-0.1,0.1-0.1,0.1-0.1,0.1
		l-0.7-0.4c-0.6,1-1.6,2.3-3.2,3c-0.6,0.3-1.2,0.5-1.9,0.5c-0.3,0-0.5-0.1-0.5-0.2c0-0.2,0.3-0.2,0.7-0.5c1.1-0.6,3.3-2.3,4-3.2
		c-0.6-0.4-1.4-0.9-1.4-1.8c0-0.6,0.3-1.1,0.8-1.7c0.5-0.7,1.1-1,1.6-1C177.5,13.3,177.8,14.2,177.8,14.9z M175.5,15.5
		C175.4,15.5,175.4,15.5,175.5,15.5c0,0.2,0.5,0.6,1,0.8c0.1-0.2,0.2-0.5,0.2-0.8c0-0.4-0.2-0.6-0.4-0.6
		C176,14.9,175.6,15.1,175.5,15.5z"/>
	<path class="st0" d="M181.8,30.7c0.9,0,1.3,0.5,1.3,1.4c0,1-0.4,1.6-1.3,1.6h-0.5c-1.1,0-2-0.2-2.7-0.7c-0.7-0.4-1.6-1.2-2.7-2.3
		c-5.2,3-5.5,6.4-5.5,8.3c0,3.6,2.6,7.7,12,7.7c1.2,0,2.7-0.1,4.1-0.2c0.4,0,0.7-0.1,0.9-0.1c0.2,0,0.3,0.1,0.3,0.2
		c0,0.3-0.9,0.8-1.3,1c-1.9,0.9-4.7,1.8-8,1.9c-6.6,0-9.3-4.5-9.3-8.7c0-5,1.7-8.4,5.3-11.3c-0.6-0.9-2.2-1.3-3-1.4
		c-0.1,0-0.1-0.2-0.1-0.5c0-0.7,0.2-1.8,0.6-2.1c1.2-0.9,2.6-1.3,3.9-1.3c1.4,0,2.6,0.5,3.4,1.3c0.2,0.2,0.3,0.6,0.3,1
		c0,0.9-0.5,2.2-1.6,3c1.1,1.1,2.2,1.6,3.5,1.6H181.8z"/>
	<path class="st0" d="M188.5,16.6c0.1-0.1,0.2-0.1,0.2,0.1c0,0.7-0.3,1.5-0.7,1.7l-5.3,3c-0.1,0.1-0.1,0-0.1-0.1
		c0-0.4,0.1-1,0.3-1.3c0.1-0.2,0.4-0.4,0.9-0.7L188.5,16.6z"/>
	<path class="st0" d="M186.5,31.8c-0.6,0.8-1.5,1.5-3.3,1.7c-0.5,0.1-1.2,0.1-1.8,0.1c-0.8,0-1.2-0.7-1.2-1.5c0-0.7,0.4-1.5,1.2-1.5
		h0.7c1.3,0,3.4-0.1,4.1-0.8c-0.1-1.2-1-2.6-1.4-3.1c0,0,0-0.1,0-0.1c0-0.5,0.9-2.3,0.9-2.4c0-0.1,0.1-0.2,0.2-0.2
		c0.4,0,1.5,2.1,1.5,4.5C187.3,29.6,187.2,30.8,186.5,31.8z M188,36.8c0.1,0.1,0.1,0.1,0,0.2c-0.3,0.4-1.4,1.6-1.8,2.1
		c-0.1,0.1-0.2,0.1-0.3,0c-0.6-0.4-1.9-1.3-2.2-1.9c-0.1-0.1-0.1-0.2,0-0.3c0.4-0.7,1.2-1.5,1.7-2c0.2-0.2,0.3-0.3,0.4-0.2
		C186.1,35.4,187.1,36.3,188,36.8z"/>
	<path class="st0" d="M199.1,17c0.8,0,2.1,1.2,2.1,2.7c0,0.5-0.1,1-0.2,1.5c-0.4,1-1.2,1.6-2.3,1.6c-1,0-1.7-0.8-1.7-1.7
		C196.9,19.8,198.4,17,199.1,17z M198.8,19c-0.3,0-0.9,0.8-0.9,1.2c0,0.3,0.5,0.7,1,0.7c0.7,0,1.4-0.4,1.4-0.6
		C200.3,20.1,199.5,19,198.8,19z"/>
	<path class="st0" d="M202.4,32.6c0,4.4-2,7.7-5.3,9.1c-0.2,0.1-0.5,0.1-0.8,0.1c-1.1,0-3.7-0.6-5.2-1.4c-0.4-0.2-0.5-0.4-0.5-0.5
		c0-0.1,0.2-0.2,0.4-0.2c0.4,0,1.4,0.2,2.4,0.2c0.8,0,1.6-0.2,2.8-0.8c1.4-0.6,4.2-2.9,4.9-4.8c0.1-0.3,0.2-0.7,0.2-0.9
		c0-0.2-0.1-1.3-1.3-3c-0.4-0.6-0.7-1-1-1.6c-0.1-0.1-0.1-0.2-0.1-0.3c0-0.4,0.5-1.7,0.8-2.2c0.1-0.2,0.2-0.2,0.3-0.2
		c0.6,0,1.8,2.2,2.3,4C202.3,30.9,202.4,31.7,202.4,32.6z"/>
	<path class="st0" d="M209.4,0c0.1-0.1,0.2-0.1,0.2,0.1c0,0.7-0.3,1.5-0.7,1.7l-5.3,3c-0.1,0.1-0.1,0-0.1-0.1c0-0.4,0.1-1,0.3-1.3
		c0.1-0.2,0.4-0.4,0.9-0.7L209.4,0z"/>
	<path class="st0" d="M209.1,9.9c-1.1,0.6-3.4,1.9-5.2,3.3c-0.1,0-0.1,0.1-0.1,0.1c0,0-0.1,0-0.1-0.1c0-0.1,0.1-0.4,0.3-0.9
		c0.1-0.2,0.6-0.8,1.1-1.1c0.1-0.1,0.1-0.1,0.1-0.1c0,0-0.1-0.1-0.2-0.1c-0.8-0.3-1.1-0.5-1.2-1.2c0-0.1,0-0.1,0-0.2
		c0-1.2,1.2-2.9,2.4-3.8c0.4-0.3,0.8-0.5,1.3-0.5c0.7,0,1,0.3,1,0.9c0,0.3-0.1,0.7-0.3,1.2c-0.1,0.3-0.2,0.5-0.3,0.5
		s-0.2-0.1-0.4-0.2c-0.2-0.2-0.4-0.3-0.7-0.3c-1,0-1.7,0.6-1.7,0.9c0,0.4,1.7,1.1,2.3,1.1c0.1,0,0.1,0,0.2,0
		c0.3-0.1,1.4-0.5,1.9-0.8c0.2-0.1,0.3-0.2,0.4-0.2c0.1,0,0.1,0,0.1,0.1c0,0.1-0.1,0.3-0.2,0.5C209.5,9.6,209.3,9.8,209.1,9.9z
		 M207.2,33.6c-0.1,0-0.2-0.2-0.2-0.9c0-3.9-1.4-14.6-1.4-16.4c0-0.9,0.6-2.2,1.1-3.2c0.2-0.3,0.4-0.7,0.6-0.7c0.2,0,0.2,0.2,0.2,1
		c0.1,2.8,0.9,9.4,0.9,14.1c0,1.9-0.1,3.5-0.5,4.4C207.7,33.1,207.4,33.6,207.2,33.6z"/>
	<path class="st0" d="M289.6,44.5c0.1-0.1,0.2-0.1,0.2,0.1c0,0.7-0.3,1.5-0.7,1.7l-5.3,3c-0.1,0.1-0.1,0-0.1-0.1
		c0-0.4,0.1-1,0.3-1.3c0.1-0.2,0.4-0.4,0.9-0.7L289.6,44.5z"/>
	<path class="st0" d="M287,23.4c0.1,0.1,0.1,0.1,0,0.2c-0.3,0.4-1.4,1.6-1.8,2.1c-0.1,0.1-0.2,0.1-0.3,0c-0.6-0.4-1.9-1.3-2.2-1.9
		c-0.1-0.1-0.1-0.2,0-0.3c0.4-0.7,1.2-1.5,1.7-2c0.2-0.2,0.3-0.3,0.4-0.2C285.2,22,286.1,22.8,287,23.4z"/>
	<path class="st0" d="M295.8,41.6c0.2-0.2,0.3-0.3,0.4-0.1c0.6,0.7,1.3,1.4,2,1.8c0.2,0.1,0.2,0.2,0,0.4c-0.6,0.6-1.2,1.3-1.7,2
		c-0.1,0.2-0.2,0.2-0.4,0c-0.5-0.4-1.2-0.9-1.8-1.6c-0.4,0.4-1.1,1.3-1.5,1.5c-0.2,0.1-0.2,0.2-0.5,0.1c-0.7-0.4-1.5-1.1-2-1.8
		c-0.1-0.2-0.1-0.2,0-0.4c0.5-0.6,1.1-1.3,1.8-2c0.1-0.1,0.2-0.1,0.4,0.1c0.5,0.5,1.3,1.3,1.8,1.6C294.8,42.7,295.5,41.9,295.8,41.6
		z"/>
	<path class="st0" d="M296.5,29.3c0,2.6-1.9,4.1-3.7,4.1h-0.2c0,0.2,0.1,0.5,0.1,0.9c0,0.4,0,0.8-0.1,1.3c-0.1,1-0.2,1.8-0.5,2.4
		c-0.5,1.2-0.9,1.8-1.5,2.4c-2.1,2.2-5.2,3-8.2,3c-1.8,0-3.3-0.5-4.6-2c-0.7-0.8-1.2-2.2-1.2-3.7c0-1.8,0.6-3.5,1.6-4.9
		c0.4-0.6,0.7-0.8,0.8-0.8c0.1,0,0.2,0.1,0.2,0.3c0,0.2-0.1,0.5-0.4,0.9c-0.9,1.7-1,2.7-1,3.4c0,1.1,0.8,2.1,1.7,2.7
		c1,0.7,2.3,1,3.5,1c3.1,0,7.3-1.3,8.2-3.5c-0.1-2.1-0.5-3-1.2-4.9c0-0.1,0-0.1,0-0.2c0-0.6,0.4-1.7,0.8-2.5
		c0.1-0.1,0.1-0.2,0.2-0.2c0.1,0,0.1,0.1,0.2,0.2c0.6,0.7,1.1,1.1,1.8,1.3c0.1,0,0.2,0,0.3,0c1,0,2-0.8,2.2-2.1
		c0.1-0.6,0.2-0.8,0.4-0.8c0.3,0,0.6,0.5,0.6,1.3C296.5,29,296.5,29.2,296.5,29.3z"/>
	<path class="st0" d="M298,41.3c-0.4-0.2-0.5-0.4-0.5-0.5c0-0.1,0.2-0.2,0.5-0.2c0.3,0,1.4,0.2,2.3,0.2c0.8,0,1.5-0.2,2.7-0.8
		c3.1-1.6,5-3.8,5-5.4c0-0.2,0-0.4-0.1-0.8H307c-0.7,0-1.9-0.1-2.8-0.6c-0.9-0.5-1.2-1.2-1.2-2c0-0.7,0.3-1.9,0.8-2.8
		c0.7-1.6,1.6-2.8,2.4-2.8c0.9,0,1.7,0.6,2.3,1.5c0.6,0.9,0.9,2.4,0.9,3.6h1.2c0.8,0,1.2,0.4,1.2,1.3c0,1.1-0.4,1.6-1.2,1.6
		l-1.4,0.1c-0.2,4.5-1.7,7.4-5.3,8.8c-0.2,0.1-0.5,0.1-0.8,0.1C301.9,42.6,299.8,42,298,41.3z M306,28.8c-0.2-0.1-0.4-0.3-0.7-0.3
		c-0.6,0-1,0.7-1,1c0,0.3,0.3,0.6,1,0.9c0.5,0.2,1.1,0.3,1.5,0.3c0.2,0,0.3,0,0.3-0.1C307.1,30.3,306.6,29.3,306,28.8z"/>
	<path class="st0" d="M316.3,28.9c0,0.7,0.8,1.6,1.7,1.7c0.2,0,0.4,0,0.6,0h0.2c1.1,0,1.1,0.9,1.1,1.3c0,0.4,0,1.6-1.1,1.6h-0.2
		c-0.2,0-0.4,0-0.7,0c-2-0.2-2.7-1.9-2.8-2.1c-0.3,0.8-1.9,2.2-4.7,2.2h-0.1c-0.8,0-1.2-0.7-1.2-1.5c0-0.7,0.4-1.5,1.2-1.5h0.9
		c1.3,0,3.1-0.2,4.2-2.1c0.3-0.6,0.5-0.7,0.6-0.7C316.2,28,316.3,28.2,316.3,28.9z M317.4,21.3c0.1,0.1,0.1,0.1,0,0.2
		c-0.3,0.4-1.4,1.6-1.8,2.1c-0.1,0.1-0.2,0.1-0.3,0c-0.6-0.4-1.9-1.3-2.2-1.9c-0.1-0.1-0.1-0.2,0-0.3c0.4-0.7,1.2-1.5,1.7-2
		c0.2-0.2,0.3-0.3,0.4-0.2C315.6,19.9,316.5,20.8,317.4,21.3z"/>
	<path class="st0" d="M320.7,17.8c-0.9,0-1.5-0.9-1.5-2c0-0.3,0.1-0.6,0.1-1c0.1-0.3,0.3-1,0.6-1c0.2,0,0.3,0.3,0.3,0.7V15
		c0,0.4,0.3,0.7,0.8,0.7h0.1c0.6,0,1-0.4,1.1-1.2c0.1-0.4,0.3-1.4,0.8-1.4c0.2,0,0.3,0.2,0.3,0.7c0,0.2,0.2,0.4,0.5,0.4
		c0.6,0,1.1-0.4,1.1-1.1c0.1-0.8,0.3-1.1,0.5-1.1c0.3,0,0.4,0.9,0.4,1.4c0,0.4-0.1,0.8-0.2,1.3c-0.3,0.9-0.9,1.5-2,1.5
		c-0.2,0-0.5-0.1-0.6-0.2c-0.1-0.1-0.2-0.1-0.3,0.1C322.3,17.2,321.6,17.8,320.7,17.8z M325.7,9c0.1-0.1,0.1,0.1,0.1,0.1
		c-0.1,0.5-0.3,1.1-0.6,1.5c-0.1,0.1-0.3,0.2-0.6,0.4l-5.1,2.4c-0.1,0-0.1,0-0.1-0.1c0-0.2,0.1-0.6,0.2-0.9c0.2-0.4,0.3-0.5,0.4-0.6
		c0.1-0.1,0.2-0.2,0.4-0.3L325.7,9z"/>
	<path class="st0" d="M324.9,28.9c0,0.7,0.8,1.6,1.7,1.7c0.2,0,0.4,0,0.6,0h0.2c1.1,0,1.1,0.9,1.1,1.3c0,0.4,0,1.6-1.1,1.6h-0.2
		c-0.2,0-0.4,0-0.7,0c-2-0.2-2.7-1.9-2.8-2.1c-0.3,0.8-1.9,2.2-4.7,2.2h-0.1c-0.8,0-1.2-0.7-1.2-1.5c0-0.7,0.4-1.5,1.2-1.5h0.9
		c1.3,0,3.1-0.2,4.2-2.1c0.3-0.6,0.5-0.7,0.6-0.7C324.8,28,324.9,28.2,324.9,28.9z M324.6,20.1c0.2-0.2,0.3-0.3,0.4-0.1
		c0.6,0.7,1.3,1.4,2,1.8c0.2,0.1,0.2,0.2,0,0.4c-0.6,0.6-1.2,1.3-1.7,2c-0.1,0.2-0.2,0.2-0.4,0c-0.5-0.4-1.2-0.9-1.8-1.6
		c-0.4,0.4-1.1,1.3-1.5,1.5c-0.2,0.1-0.2,0.2-0.5,0.1c-0.7-0.4-1.5-1.1-2-1.8c-0.1-0.2-0.1-0.2,0-0.4c0.5-0.6,1.1-1.3,1.8-2
		c0.1-0.1,0.2-0.1,0.4,0.1c0.5,0.5,1.3,1.3,1.8,1.6C323.6,21.2,324.3,20.4,324.6,20.1z"/>
	<path class="st0" d="M327.3,30.7h0.3c0.7,0,1.3-0.2,1.7-0.6c0.6-0.6,0.6-1.4,0.6-2.3c0-1.9-0.2-5.9-0.4-11.8c0-0.7,0.2-1.3,0.7-2.2
		c0.2-0.4,0.4-0.8,0.6-0.8c0.1,0,0.3,0.2,0.3,0.9c0.3,4.4,0.5,10.3,0.9,14.5c0.1,0.8,0.5,1.4,1,1.8c0.4,0.3,0.8,0.4,1.2,0.4h0.3
		c0.8,0,1.2,0.5,1.2,1.4c0,1-0.4,1.5-1.2,1.5h-0.4c-1.8,0-3.1-1.3-3.6-3c-0.4,2-1.4,3-3.1,3h-0.3c-0.9,0-1.3-0.5-1.3-1.5
		C326,31.1,326.4,30.7,327.3,30.7z"/>
	<path class="st0" d="M340.5,35.9c0.1-0.1,0.2-0.1,0.2,0.1c0,0.7-0.3,1.5-0.7,1.7l-5.3,3c-0.1,0.1-0.1,0-0.1-0.1
		c0-0.4,0.1-1,0.3-1.3c0.1-0.2,0.4-0.4,0.9-0.7L340.5,35.9z"/>
	<path class="st0" d="M338.7,27.1c0,2.1-0.4,3.8-1.3,5.1c-0.7,0.9-1.6,1.3-2.9,1.3h-0.3c-0.8,0-1.3-0.5-1.3-1.5
		c0-0.9,0.4-1.4,1.3-1.4h0.3c1.4,0,2.5-0.5,2.8-0.8v0c0-2.2-0.9-7.8-1.3-12.1c0-0.5-0.4-1.7-0.5-2.2c0-0.1,0-0.2,0-0.3
		c0-0.1,0-0.1,0-0.2c0.1-0.2,0.2-0.5,0.5-1.1c0.4-0.7,0.9-1.4,1.1-1.4c0.1,0,0.2,0.1,0.2,0.3c0.3,1.2,0.7,1.8,1,2.3
		c0.1,0.1,0.1,0.2,0.1,0.3s0,0.2-0.1,0.3c-0.1,0.3-0.4,1-0.6,1.3C338,21.5,338.7,25,338.7,27.1z"/>
	<path class="st0" d="M351.2,17.6c0.1-0.1,0.2-0.1,0.2,0.1c0,0.7-0.3,1.5-0.7,1.7l-5.3,3c-0.1,0.1-0.1,0-0.1-0.1
		c0-0.4,0.1-1,0.3-1.3c0.1-0.2,0.4-0.4,0.9-0.7L351.2,17.6z"/>
	<path class="st0" d="M352.2,28.2c0.4,1.2,0.6,2.3,0.6,4c0,5.1-1.4,8.4-5.3,9.9c-0.2,0.1-0.5,0.1-0.8,0.1c-1.3,0-3.4-0.6-5.1-1.4
		c-0.4-0.2-0.6-0.4-0.6-0.5c0-0.1,0.2-0.2,0.5-0.2c0.2,0,1.4,0.2,2.3,0.2c1.2,0,2.4-0.5,4.2-1.7c2-1.3,3.6-3,3.6-4.9
		c0-0.6-0.2-1.2-0.5-1.9c-0.4,0.9-1,1.5-2,1.5c-1.6,0-2.6-0.9-2.6-2.7c0-0.7,0.3-1.7,0.8-2.7c0.7-1.3,1.6-2.4,2.3-2.4
		C350.4,25.4,351.5,26.6,352.2,28.2z M348.9,28.3c-0.3,0-0.6,0.3-0.8,0.6c-0.1,0.2-0.3,0.5-0.3,0.7c0,0.5,0.8,0.8,1.5,0.8
		c0.5,0,0.9-0.2,1-0.5C350.2,28.9,349.3,28.3,348.9,28.3z"/>
	<path class="st0" d="M368.8,14.3c0.8,0,2.1,1.2,2.1,2.7c0,0.5-0.1,1-0.2,1.5c-0.4,1-1.2,1.6-2.3,1.6c-1,0-1.7-0.8-1.7-1.7
		C366.6,17.2,368.1,14.3,368.8,14.3z M368.5,16.4c-0.3,0-0.9,0.8-0.9,1.2c0,0.3,0.5,0.7,1,0.7c0.7,0,1.4-0.4,1.4-0.6
		C370,17.5,369.2,16.4,368.5,16.4z"/>
	<path class="st0" d="M374.6,30.9c0-0.4,0.4-1.7,0.8-2.5c0.1-0.2,0.2-0.3,0.2-0.3c0.1,0,0.2,0.2,0.2,0.2c0.7,1.5,1.4,2.4,2.4,2.4
		h0.4c0.9,0,1.3,0.5,1.3,1.4c0,1-0.4,1.5-1.3,1.5h-0.4c-0.5,0-0.9-0.1-1.1-0.1c-0.1,2.3-0.3,3.3-0.5,3.8c-0.4,1.2-1,2.1-2.7,3.4
		c-1.6,1.2-3.8,2-7,2c-3.3,0-5.7-2.2-5.7-5.7c0-1.9,0.9-4,1.6-4.9c0.3-0.4,0.6-0.7,0.8-0.7c0.1,0,0.2,0.1,0.2,0.2
		c0,0.2-0.1,0.5-0.3,0.9c-0.6,1.1-1.1,2.2-1.1,3.4c0,2.4,2.9,3.8,5.1,3.8c3.5,0,7.1-1.3,8.2-3.3c0-0.1,0.1-0.2,0.1-0.5
		c-0.1-2.5-0.4-3.4-1.2-4.7C374.6,31,374.6,30.9,374.6,30.9z M371.5,24.3c0.1,0.1,0.1,0.1,0,0.2c-0.3,0.4-1.4,1.6-1.8,2.1
		c-0.1,0.1-0.2,0.1-0.3,0c-0.6-0.4-1.9-1.3-2.2-1.9c-0.1-0.1-0.1-0.2,0-0.3c0.4-0.7,1.2-1.5,1.7-2c0.2-0.2,0.3-0.3,0.4-0.2
		C369.7,22.9,370.6,23.7,371.5,24.3z"/>
	<path class="st0" d="M393.9,10.2c0.1,0,0.1,0.1,0.1,0.2c0,0.5-0.6,1.8-0.8,2.2c-0.1,0.1-0.1,0.1-0.1,0.2c-1,0.4-6.3,2.6-10.4,5
		c-0.8,0.5-1.5,0.9-2.1,1.7c0.9,0.8,2.1,1.7,3,2.4c2.8,2.2,4.7,3.8,7,6.1c2,2.1,3.3,2.8,3.8,2.8h0.4c0.8,0,1.2,0.5,1.2,1.4
		c0,1-0.4,1.6-1.2,1.6h-0.6c-0.8,0-1.7-0.4-2.8-1.3c-0.7-0.6-1.7-1.5-2.8-2.7c-1.2-1.3-2.2-2.2-2.9-2.6c0.1,0.5,0.1,1,0.1,1.5
		c0,0.9-0.1,1.7-0.4,2.3c-0.4,0.9-1.2,1.6-2.4,2c-1.6,0.5-3.1,0.8-4.5,0.8h-0.3c-0.8,0-1.2-0.5-1.2-1.5c0-0.9,0.4-1.4,1.2-1.4
		c1.2,0,2.7-0.2,4.5-0.5c1.2-0.2,1.8-0.7,2-1.4c-0.2-1.4-1.7-3.3-4.7-5.9c-0.6-0.6-0.9-1.1-0.9-1.8c0-2.2,0.3-3.1,0.7-3.5
		c1.1-1.2,2.1-1.8,3.4-2.6c4.3-2.6,10.1-4.7,10.6-4.8C393.8,10.2,393.9,10.2,393.9,10.2z"/>
	<path class="st0" d="M404.2,17c0.8,0,2.1,1.2,2.1,2.7c0,0.5-0.1,1-0.2,1.5c-0.4,1-1.2,1.6-2.3,1.6c-1,0-1.7-0.8-1.7-1.7
		C402.1,19.8,403.6,17,404.2,17z M404,19c-0.3,0-0.9,0.8-0.9,1.2c0,0.3,0.5,0.7,1,0.7c0.7,0,1.4-0.4,1.4-0.6
		C405.5,20.1,404.7,19,404,19z"/>
	<path class="st0" d="M405.8,27.7c0.2,0,0.2,0.2,0.2,0.6c0,0.2,0,0.3,0,0.6c0,0.9,0.7,1.5,1.5,1.5c1.3,0,2-1.2,2.5-2.3
		c0.1-0.1,0.2-0.5,0.4-0.5c0.1,0,0.2,0.1,0.3,0.8c0.1,1.4,0.8,2.1,2,2.2h0.4c0.9,0,1.4,0.4,1.4,1.3c0,1.1-0.5,1.6-1.4,1.6h-0.4
		c-1.7,0-2.5-0.8-2.8-2.5c-0.4,1.2-1.5,2.5-2.9,2.5c-1.4,0-2.1-1.2-2.2-2.5c-0.5,1.4-2,2.4-3.4,2.4c-1.6,0-2.5-0.6-3-2
		c-0.2,0.5-0.5,1-1.1,1.4c-0.5,0.4-1.4,0.6-2.7,0.6h-0.3c-0.9,0-1.3-0.5-1.3-1.5c0-0.9,0.4-1.4,1.3-1.4h0.4c2,0,3.4-0.7,4.1-2.2
		c0.1-0.2,0.2-0.4,0.4-0.4c0.2,0,0.3,0.2,0.3,0.7c0.1,1.1,1,1.7,2.3,1.7c1.6,0,2.7-0.7,3.6-2.2C405.4,28,405.6,27.7,405.8,27.7z"/>
	<path class="st0" d="M416.7,8.5c0.1-0.1,0.2-0.1,0.2,0.1c0,0.7-0.3,1.5-0.7,1.7l-5.3,3c-0.1,0.1-0.1,0-0.1-0.1c0-0.4,0.1-1,0.3-1.3
		c0.1-0.2,0.4-0.4,0.9-0.7L416.7,8.5z"/>
	<path class="st0" d="M415.4,14.7c0.2-0.2,0.3-0.3,0.4-0.1c0.6,0.7,1.3,1.4,2,1.8c0.2,0.1,0.2,0.2,0,0.4c-0.6,0.6-1.2,1.3-1.7,2
		c-0.1,0.2-0.2,0.2-0.4,0c-0.5-0.4-1.2-0.9-1.8-1.6c-0.4,0.4-1.1,1.3-1.5,1.5c-0.2,0.1-0.2,0.2-0.5,0.1c-0.7-0.4-1.5-1.1-2-1.8
		c-0.1-0.2-0.1-0.2,0-0.4c0.5-0.6,1.1-1.3,1.8-2c0.1-0.1,0.2-0.1,0.4,0.1c0.5,0.5,1.3,1.3,1.8,1.6C414.3,15.8,415,15,415.4,14.7z
		 M416.2,31.2c-0.5,1.1-1.1,2.4-3.4,2.4c-1.1,0-1.6-0.6-1.6-1.5c0-0.7,0.5-1.5,1.6-1.5h0c0.6,0,2.4-1,2.4-2.1v-0.1
		c-0.2-2.3-0.9-3-2-4.9c-0.1-0.1-0.1-0.2-0.1-0.4c0-0.4,0.3-1.5,0.7-2.3c0.1-0.2,0.2-0.3,0.4-0.3c0.1,0,0.1,0,0.2,0.1
		c1.7,1.6,2.3,4.9,2.3,7.2C416.7,29.1,416.5,30.5,416.2,31.2z"/>
	<path class="st0" d="M427.6,34.5c-1.2-1.1-1.8-2.7-1.8-4.3c0-1.9,1.1-4.1,1.8-5.1c0.3-0.4,0.5-0.5,0.6-0.5c0.1,0,0.2,0.1,0.2,0.2
		c0,0.2-0.1,0.4-0.2,0.7c-0.6,1.1-1.1,2.3-1.1,3.7c0,1.1,0.8,2.1,1.7,2.7c1.1,0.7,2.2,1,3.5,1c3.1,0,7.3-1.3,8.2-3.5
		c0-0.2,0-0.4,0-0.6c0-1.4-0.4-2.9-1.1-4c-0.3-0.5-0.5-0.8-0.6-1.1c0-0.1,0-0.1,0-0.2c0-0.2,0.1-0.6,0.2-1c0.2-0.5,0.4-1,0.5-1.4
		c0.1-0.2,0.2-0.3,0.3-0.3c0.1,0,0.1,0.1,0.3,0.4c0.9,1.9,1.6,3.7,1.6,6c-0.1,1.8-0.2,2.9-0.4,3.5c-0.5,1.1-0.8,1.7-1.4,2.3
		c-0.6,0.6-1.8,1.5-3.2,2.1c-1.4,0.6-3.1,0.9-5.3,0.9C430,35.9,428.6,35.5,427.6,34.5z M436,16.7c0.1,0.1,0.1,0.1,0,0.2
		c-0.3,0.4-1.4,1.6-1.8,2.1c-0.1,0.1-0.2,0.1-0.3,0c-0.6-0.4-1.9-1.3-2.2-1.9c-0.1-0.1-0.1-0.2,0-0.3c0.4-0.7,1.2-1.5,1.7-2
		c0.2-0.2,0.3-0.3,0.4-0.2C434.1,15.3,435.1,16.1,436,16.7z"/>
	<path class="st0" d="M449.2,41.9c0.1-0.1,0.2-0.1,0.2,0.1c0,0.7-0.3,1.5-0.7,1.7l-5.3,3c-0.1,0.1-0.1,0-0.1-0.1
		c0-0.4,0.1-1,0.3-1.3c0.1-0.2,0.4-0.4,0.9-0.7L449.2,41.9z"/>
	<path class="st0" d="M448.9,39.4c-1.1,0.6-3.4,1.9-5.2,3.3c-0.1,0-0.1,0.1-0.1,0.1c0,0-0.1,0-0.1-0.1c0-0.1,0.1-0.4,0.3-0.9
		c0.1-0.2,0.6-0.8,1.1-1.1c0.1-0.1,0.1-0.1,0.1-0.1c0,0-0.1-0.1-0.2-0.1c-0.8-0.3-1.1-0.5-1.2-1.2c0-0.1,0-0.1,0-0.2
		c0-1.2,1.2-2.9,2.4-3.8c0.4-0.3,0.8-0.5,1.3-0.5c0.7,0,1,0.3,1,0.9c0,0.3-0.1,0.7-0.3,1.2c-0.1,0.3-0.2,0.5-0.3,0.5
		c-0.1,0-0.2-0.1-0.4-0.2c-0.2-0.2-0.4-0.3-0.7-0.3c-1,0-1.7,0.6-1.7,0.9c0,0.4,1.7,1.1,2.3,1.1c0.1,0,0.1,0,0.2,0
		c0.3-0.1,1.4-0.5,1.9-0.8c0.2-0.1,0.3-0.2,0.4-0.2c0.1,0,0.1,0,0.1,0.1c0,0.1-0.1,0.3-0.2,0.5C449.3,39.1,449.1,39.2,448.9,39.4z
		 M447,33.6c-0.1,0-0.2-0.2-0.2-0.9c0-3.9-1.4-14.6-1.4-16.4c0-0.9,0.6-2.2,1.1-3.2c0.2-0.3,0.4-0.7,0.6-0.7c0.2,0,0.2,0.2,0.2,1
		c0.1,2.8,0.9,9.4,0.9,14.1c0,1.9-0.1,3.5-0.5,4.4C447.4,33.1,447.2,33.6,447,33.6z"/>
	<path class="st0" d="M471.8,37.5c0.1-0.1,0.2-0.1,0.2,0.1c0,0.7-0.3,1.5-0.7,1.7l-5.3,3c-0.1,0.1-0.1,0-0.1-0.1
		c0-0.4,0.1-1,0.3-1.3c0.1-0.2,0.4-0.4,0.9-0.7L471.8,37.5z"/>
	<path class="st0" d="M460.7,34.5c-1.2-1.1-1.8-2.7-1.8-4.3c0-1.9,1.1-4.1,1.8-5.1c0.3-0.4,0.5-0.5,0.6-0.5c0.1,0,0.2,0.1,0.2,0.2
		c0,0.2-0.1,0.4-0.2,0.7c-0.6,1.1-1.1,2.3-1.1,3.7c0,1.1,0.8,2.1,1.7,2.7c1.1,0.7,2.2,1,3.5,1c3.1,0,7.3-1.3,8.2-3.5
		c0-0.2,0-0.4,0-0.6c0-1.4-0.4-2.9-1.1-4c-0.3-0.5-0.5-0.8-0.6-1.1c0-0.1,0-0.1,0-0.2c0-0.2,0.1-0.6,0.2-1c0.2-0.5,0.4-1,0.5-1.4
		c0.1-0.2,0.2-0.3,0.3-0.3c0.1,0,0.1,0.1,0.3,0.4c0.9,1.9,1.6,3.7,1.6,6c-0.1,1.8-0.2,2.9-0.4,3.5c-0.5,1.1-0.8,1.7-1.4,2.3
		c-0.6,0.6-1.8,1.5-3.2,2.1c-1.4,0.6-3.1,0.9-5.3,0.9C463.2,35.9,461.8,35.5,460.7,34.5z M469.1,16.7c0.1,0.1,0.1,0.1,0,0.2
		c-0.3,0.4-1.4,1.6-1.8,2.1c-0.1,0.1-0.2,0.1-0.3,0c-0.6-0.4-1.9-1.3-2.2-1.9c-0.1-0.1-0.1-0.2,0-0.3c0.4-0.7,1.2-1.5,1.7-2
		c0.2-0.2,0.3-0.3,0.4-0.2C467.3,15.3,468.2,16.1,469.1,16.7z"/>
	<path class="st0" d="M473.6,41.3c-0.4-0.2-0.5-0.4-0.5-0.5c0-0.1,0.2-0.2,0.5-0.2c0.3,0,1.4,0.2,2.3,0.2c0.8,0,1.5-0.2,2.7-0.8
		c3.1-1.6,5-3.8,5-5.4c0-0.2,0-0.4-0.1-0.8h-0.9c-0.7,0-1.9-0.1-2.8-0.6c-0.9-0.5-1.2-1.2-1.2-2c0-0.7,0.3-1.9,0.8-2.8
		c0.7-1.6,1.6-2.8,2.4-2.8c0.9,0,1.7,0.6,2.3,1.5c0.6,0.9,0.9,2.4,0.9,3.6h1.2c0.8,0,1.2,0.4,1.2,1.3c0,1.1-0.4,1.6-1.2,1.6
		l-1.4,0.1c-0.2,4.5-1.7,7.4-5.3,8.8c-0.2,0.1-0.5,0.1-0.8,0.1C477.4,42.6,475.3,42,473.6,41.3z M481.6,28.8
		c-0.2-0.1-0.4-0.3-0.7-0.3c-0.6,0-1,0.7-1,1c0,0.3,0.3,0.6,1,0.9c0.5,0.2,1.1,0.3,1.5,0.3c0.2,0,0.3,0,0.3-0.1
		C482.7,30.3,482.2,29.3,481.6,28.8z"/>
	<path class="st0" d="M487.7,17.7c-0.1,0-0.1,0-0.2,0c-0.3,0-0.7-0.2-1-0.5c-0.4-0.4-0.5-0.9-0.5-1.6c0-0.3,0.1-0.6,0.2-0.9
		c0.1-0.3,0.4-0.9,0.7-0.9c0.2,0,0.2,0.2,0.2,0.5c0,0.1,0,0.4,0,0.5c0,0.5,0.3,0.8,0.8,0.8h0c0.6,0,1-0.4,1.2-1.1
		c0.1-0.3,0.4-1.3,0.8-1.3c0.2,0,0.2,0.2,0.2,0.5v0.2c0,0.4,0.2,0.5,0.5,0.5c0.1,0,0.1,0,0.2,0c0.5-0.1,0.8-0.5,0.9-1
		c0.2-0.7,0.3-0.9,0.5-0.9c0.1,0,0.2,0.2,0.3,0.4c0.1,0.2,0.1,0.4,0.1,0.7c0,0.5-0.1,1-0.3,1.5c-0.3,0.8-0.9,1.4-1.8,1.4
		c-0.3,0-0.5-0.1-0.7-0.2c-0.1-0.1-0.2-0.1-0.2,0C488.9,17.1,488.3,17.6,487.7,17.7z M491.9,7.1c0,0.2,0.1,0.3,0.1,0.4
		c0,0.6-0.2,1.1-0.3,1.6c0.2,0.2,0.4,0.3,0.4,0.4c0,0.4-0.2,0.8-0.4,1.2l-0.6-0.4c-0.7,1.1-1.2,1.7-1.7,2c-0.4,0.3-1.1,0.5-2.1,0.6
		c-0.5,0-0.6-0.1-0.4-0.2c1.7-1,2.9-2,3.4-2.8c-0.5-0.3-1.1-0.8-1.1-1.5c0-0.4,0.2-0.9,0.7-1.4c0.4-0.6,0.9-0.9,1.3-0.9
		C491.5,6.2,491.8,6.7,491.9,7.1z M489.9,8.1c0.1,0.2,0.4,0.4,0.9,0.6c0.1-0.2,0.1-0.5,0.1-0.7c0-0.3-0.2-0.5-0.4-0.5
		C490.3,7.5,490.1,7.7,489.9,8.1z"/>
	<path class="st0" d="M491.9,28.9c0,0.7,0.8,1.6,1.7,1.7c0.2,0,0.4,0,0.6,0h0.2c1.1,0,1.1,0.9,1.1,1.3c0,0.4,0,1.6-1.1,1.6h-0.2
		c-0.2,0-0.4,0-0.7,0c-2-0.2-2.7-1.9-2.8-2.1c-0.3,0.8-1.9,2.2-4.7,2.2h-0.1c-0.8,0-1.2-0.7-1.2-1.5c0-0.7,0.4-1.5,1.2-1.5h0.9
		c1.3,0,3.1-0.2,4.2-2.1c0.3-0.6,0.5-0.7,0.6-0.7C491.7,28,491.9,28.2,491.9,28.9z M492.9,21.3c0.1,0.1,0.1,0.1,0,0.2
		c-0.3,0.4-1.4,1.6-1.8,2.1c-0.1,0.1-0.2,0.1-0.3,0c-0.6-0.4-1.9-1.3-2.2-1.9c-0.1-0.1-0.1-0.2,0-0.3c0.4-0.7,1.2-1.5,1.7-2
		c0.2-0.2,0.3-0.3,0.4-0.2C491.1,19.9,492,20.8,492.9,21.3z"/>
	<path class="st0" d="M494.2,30.7h0.3c0.7,0,1.3-0.2,1.7-0.6c0.6-0.6,0.6-1.4,0.6-2.3c0-1.9-0.2-5.9-0.4-11.8c0-0.7,0.2-1.3,0.7-2.2
		c0.2-0.4,0.4-0.8,0.6-0.8c0.1,0,0.3,0.2,0.3,0.9c0.3,4.4,0.5,10.3,0.9,14.5c0.1,0.8,0.5,1.4,1,1.8c0.4,0.3,0.8,0.4,1.2,0.4h0.3
		c0.8,0,1.2,0.5,1.2,1.4c0,1-0.4,1.5-1.2,1.5h-0.4c-1.8,0-3.1-1.3-3.6-3c-0.4,2-1.4,3-3.1,3h-0.3c-0.9,0-1.3-0.5-1.3-1.5
		C492.9,31.1,493.4,30.7,494.2,30.7z"/>
	<path class="st0" d="M507.4,35.9c0.1-0.1,0.2-0.1,0.2,0.1c0,0.7-0.3,1.5-0.7,1.7l-5.3,3c-0.1,0.1-0.1,0-0.1-0.1
		c0-0.4,0.1-1,0.3-1.3c0.1-0.2,0.4-0.4,0.9-0.7L507.4,35.9z"/>
	<path class="st0" d="M505.7,27.1c0,2.1-0.4,3.8-1.3,5.1c-0.7,0.9-1.6,1.3-2.9,1.3h-0.3c-0.8,0-1.3-0.5-1.3-1.5
		c0-0.9,0.4-1.4,1.3-1.4h0.3c1.4,0,2.5-0.5,2.8-0.8v0c0-2.2-0.9-7.8-1.3-12.1c0-0.5-0.4-1.7-0.5-2.2c0-0.1,0-0.2,0-0.3
		c0-0.1,0-0.1,0-0.2c0.1-0.2,0.2-0.5,0.5-1.1c0.4-0.7,0.9-1.4,1.1-1.4c0.1,0,0.2,0.1,0.2,0.3c0.3,1.2,0.7,1.8,1,2.3
		c0.1,0.1,0.1,0.2,0.1,0.3s0,0.2-0.1,0.3c-0.1,0.3-0.4,1-0.6,1.3C504.9,21.5,505.7,25,505.7,27.1z"/>
</g>
</svg>
