<?xml version="1.0" encoding="utf-8"?>
<!-- Generator: Adobe Illustrator 19.2.0, SVG Export Plug-In . SVG Version: 6.00 Build 0)  -->
<svg version="1.1" id="Layer_1" xmlns="http://www.w3.org/2000/svg" xmlns:xlink="http://www.w3.org/1999/xlink" x="0px" y="0px"
	 viewBox="0 0 230 38.1" style="enable-background:new 0 0 230 38.1;" xml:space="preserve">
<style type="text/css">
	.st0{fill:#FFFFFF;}
</style>
<g>
	<path class="st0" d="M2.7,22.8c0.4,0.4,0.5,0.9,0.5,1.3c0,0.3-0.1,0.8-0.4,1.1c-0.3,0.3-0.8,0.5-1.2,0.5c-0.3,0-0.8-0.2-1-0.4
		C0.1,24.9,0,24.5,0,24c0-0.4,0.2-0.8,0.5-1.2c0.3-0.3,0.7-0.5,1.1-0.5S2.4,22.6,2.7,22.8z"/>
	<path class="st0" d="M18.6,33.9c0.1-0.1,0.2,0,0.2,0.1c0,0.7-0.2,1.3-0.6,1.5l-4.7,2.6c-0.1,0-0.1,0-0.1-0.1c0-0.3,0.1-0.9,0.3-1.1
		c0.1-0.2,0.3-0.4,0.8-0.6L18.6,33.9z"/>
	<path class="st0" d="M11.1,31c2.8,0,6.5-2,6.5-3.3c-0.2-2.3-0.4-3.6-0.6-5.5c-0.4-3.5-0.8-6.3-1.3-10.9c-0.1-0.5-0.1-0.8-0.1-1.1
		c0-0.2,0-0.4,0.1-0.7c0.2-0.6,0.9-2,1.2-2c0.1,0,0.2,0.1,0.2,0.3c0.1,1,0.1,1.8,0.3,3.6c0.2,2,0.5,5,0.8,7.7
		c0.3,2.3,1.6,3.7,3.1,3.7h0.3c0.8,0,1.2,0.4,1.2,1.3c0,0.9-0.4,1.3-1.2,1.3h-0.4c-1-0.1-2.1-0.6-2.5-1.7c0.1,1.1,0.2,1.9,0.2,2.5
		c0,2.3-0.4,3-1,4c-0.5,0.8-2.8,3.5-7.1,3.5c-4.4,0-5.8-2.4-5.8-4.7c0-1.7,0.6-3.5,1.3-4.8c0.4-0.7,0.7-1,0.9-1
		c0.1,0,0.1,0.1,0.1,0.2c0,0.2-0.1,0.5-0.3,0.9c-0.4,0.8-0.8,2-0.8,2.9C6,30.1,8.8,31,11.1,31z"/>
	<path class="st0" d="M28.4,9.4c0.8,0,1.9,1.1,1.9,2.4c0,0.5-0.1,0.9-0.2,1.4c-0.3,0.9-1.1,1.4-2,1.4c-0.9,0-1.5-0.7-1.5-1.5
		C26.5,11.9,27.8,9.4,28.4,9.4z M28.2,11.2c-0.3,0-0.8,0.7-0.8,1.1c0,0.3,0.4,0.6,0.9,0.6c0.6,0,1.3-0.3,1.3-0.5
		C29.5,12.2,28.8,11.2,28.2,11.2z"/>
	<path class="st0" d="M26.3,26.8c-0.1,0-0.2-0.1-0.2-0.2c0-0.1,0-0.2,0.1-0.3c0.1-0.4,0.3-0.8,0.5-1.3c-1.2-0.4-2-1.2-2.3-2.2
		c-0.9,1.7-1.8,2.6-3,2.6h-0.3c-0.8,0-1.1-0.4-1.1-1.3c0-0.9,0.4-1.3,1.1-1.3h0.3c1.5,0,2.5-0.9,3.2-2.6c0.3-0.7,0.5-1,0.7-1
		c0.2,0,0.4,0.3,0.4,0.8c0,0.9,0.5,2.2,2.6,2.6c2.3-2.9,6.4-6.2,8.2-6.2c0.7,0,1.5,0.3,2.2,0.7c0.8,0.5,1.1,1.1,1.1,1.7
		c0,0.9-0.5,2.5-1.3,3.6c-0.9,1.1-2.9,2-5.2,2.5c-1.3,0.3-2.6,0.5-3.8,0.5c-0.8,0-1.5-0.1-2-0.2c-0.3,0.3-0.5,0.8-0.7,1.1
		C26.7,26.5,26.6,26.8,26.3,26.8z M38.2,20.7c0-0.7-1.8-1.7-2.8-1.7c-1.7,0-4.4,2.1-6.1,3.8c0.3,0,0.5,0,0.8,0
		C33.3,22.8,37.3,21.4,38.2,20.7C38.2,20.7,38.2,20.7,38.2,20.7z"/>
	<path class="st0" d="M47.1,11.8c0.1-0.1,0.2,0,0.2,0.1c0,0.7-0.2,1.3-0.6,1.5L42,16c-0.1,0-0.1,0-0.1-0.1c0-0.3,0.1-0.9,0.3-1.1
		c0.1-0.2,0.3-0.4,0.8-0.6L47.1,11.8z"/>
	<path class="st0" d="M38.2,32.2c-0.4-0.2-0.5-0.3-0.5-0.5c0-0.1,0.2-0.2,0.4-0.2c0.3,0,1.3,0.2,2.1,0.2c0.7,0,1.4-0.2,2.4-0.7
		c2.8-1.4,4.5-3.4,4.5-4.8c0-0.2,0-0.4-0.1-0.8h-0.8c-0.6,0-1.7-0.1-2.5-0.5c-0.8-0.4-1.1-1-1.1-1.8c0-0.7,0.3-1.7,0.7-2.5
		c0.6-1.4,1.4-2.5,2.1-2.5c0.8,0,1.5,0.6,2,1.3c0.5,0.8,0.8,2.1,0.8,3.2h1.1c0.7,0,1.1,0.4,1.1,1.2c0,0.9-0.3,1.4-1,1.4l-1.2,0.1
		c-0.2,4-1.5,6.6-4.7,7.8c-0.2,0.1-0.4,0.1-0.7,0.1C41.6,33.4,39.8,32.9,38.2,32.2z M45.3,21.2c-0.2-0.1-0.3-0.3-0.6-0.3
		c-0.5,0-0.9,0.6-0.9,0.9c0,0.3,0.3,0.5,0.9,0.8c0.5,0.2,1,0.3,1.3,0.3c0.2,0,0.3,0,0.3-0.1C46.3,22.4,45.8,21.6,45.3,21.2z"/>
	<path class="st0" d="M51.5,0c0.8,0,1.9,1.1,1.9,2.4c0,0.5-0.1,0.9-0.2,1.4c-0.3,0.9-1.1,1.4-2,1.4c-0.9,0-1.5-0.7-1.5-1.5
		C49.6,2.5,50.9,0,51.5,0z M51.2,1.8c-0.3,0-0.8,0.7-0.8,1.1c0,0.3,0.4,0.6,0.9,0.6c0.6,0,1.3-0.3,1.3-0.5
		C52.6,2.8,51.9,1.8,51.2,1.8z"/>
	<path class="st0" d="M51.8,24.2c-0.6,0.8-1.3,1.2-2.6,1.2H49c-0.8,0-1.1-0.5-1.1-1.4c0-0.8,0.4-1.2,1.1-1.2h0.3
		c0.6,0,1.2-0.1,1.7-0.3c0.4-0.1,0.7-0.3,0.8-0.5c0-2-0.7-6.1-1.1-10.2c0-0.5-0.3-1.9-0.4-2.4c0-0.1,0-0.2,0-0.3
		c0-0.3,0.4-1.1,0.6-1.5c0.3-0.6,0.6-1,0.8-1c0.1,0,0.1,0.1,0.2,0.2C52.1,8,52.4,8.6,52.7,9c0.1,0.1,0.1,0.2,0.1,0.3
		c0,0,0,0.1,0,0.2c-0.1,0.3-0.4,0.9-0.6,1.2c0.2,3.9,0.8,7.1,0.8,8.9C53,21.5,52.6,23,51.8,24.2z"/>
	<path class="st0" d="M58.2,25.4c-0.1,0-0.2-0.2-0.2-0.8c0-3.4-1.3-13-1.3-14.5c0-0.8,0.5-2,1-2.8c0.1-0.3,0.4-0.6,0.5-0.6
		c0.1,0,0.2,0.2,0.2,0.9c0.1,2.5,0.8,8.3,0.8,12.6c0,1.7-0.1,3.1-0.4,4C58.6,25,58.4,25.4,58.2,25.4z"/>
	<path class="st0" d="M67.8,11.2c0.1-0.1,0.2,0,0.2,0.1c0,0.7-0.2,1.3-0.6,1.5l-4.7,2.6c-0.1,0-0.1,0-0.1-0.1c0-0.3,0.1-0.9,0.3-1.1
		c0.1-0.2,0.3-0.4,0.8-0.6L67.8,11.2z"/>
	<path class="st0" d="M68.6,20.6c0.4,1,0.5,2,0.5,3.5c0,4.5-1.3,7.5-4.8,8.8C64.2,33,64,33,63.7,33c-1.1,0-3-0.5-4.5-1.2
		c-0.4-0.2-0.5-0.3-0.5-0.5c0-0.1,0.1-0.2,0.5-0.2c0.2,0,1.3,0.2,2.1,0.2c1.1,0,2.2-0.5,3.8-1.5c1.8-1.1,3.2-2.7,3.2-4.4
		c0-0.5-0.1-1.1-0.5-1.7c-0.3,0.8-0.9,1.3-1.8,1.3c-1.4,0-2.3-0.8-2.3-2.4c0-0.6,0.3-1.5,0.7-2.4c0.6-1.1,1.4-2.2,2-2.2
		C67.1,18.1,68.1,19.2,68.6,20.6z M65.8,20.7c-0.3,0-0.6,0.2-0.8,0.5c-0.1,0.2-0.3,0.4-0.3,0.6c0,0.4,0.7,0.7,1.3,0.7
		c0.5,0,0.8-0.2,0.9-0.5C66.9,21.2,66.1,20.7,65.8,20.7z"/>
	<path class="st0" d="M92.5,28.1c0.1-0.1,0.2,0,0.2,0.1c0,0.7-0.2,1.3-0.6,1.5l-4.7,2.6c-0.1,0-0.1,0-0.1-0.1c0-0.3,0.1-0.9,0.3-1.1
		c0.1-0.2,0.3-0.4,0.8-0.6L92.5,28.1z"/>
	<path class="st0" d="M101.9,22.8c0.9,0,1.3,0.4,1.3,1.3c0,0.9-0.4,1.3-1.3,1.3h-0.3c-2.5,0-4.2-0.5-5.1-1.2
		c-2.1,1-6.4,2.2-10.3,2.2c-7.3,0-8.7-2.8-8.7-5.2c0-1.2,0.4-2.9,1.2-4.2c0.3-0.5,0.5-0.7,0.7-0.7c0.1,0,0.1,0.1,0.1,0.2
		c0,0.2-0.1,0.4-0.2,0.7c-0.3,0.6-0.5,1.4-0.5,2.1c0,3.9,5.7,4.5,8.7,4.5c2.9,0,5.8-0.6,7.7-1.2c-0.1-0.3-0.1-0.6-0.1-0.9
		c0-2.6,2.9-5.9,4.6-5.9c1,0,1.5,1.1,1.5,2.5c0,1.4-0.5,3.2-1.7,4.3c0.3,0.2,1.1,0.3,2.2,0.3H101.9z M96.7,11.9
		c0.1,0.1,0.1,0.1,0,0.2c-0.3,0.4-1.2,1.4-1.6,1.9c-0.1,0.1-0.1,0.1-0.3,0c-0.5-0.3-1.7-1.2-2-1.7c-0.1-0.1-0.1-0.1,0-0.3
		c0.4-0.6,1-1.3,1.5-1.8c0.2-0.2,0.3-0.2,0.3-0.2C95,10.7,95.9,11.4,96.7,11.9z M98.5,18.4c-0.9,0-1.9,1-1.9,1.4
		c0.1,0.7,0.5,1,1.4,1.6c0.3-0.1,1.6-1.1,1.6-1.5C99.7,19,99.4,18.4,98.5,18.4z"/>
	<path class="st0" d="M104.9,0.2c0.8,0,1.9,1.1,1.9,2.4c0,0.5-0.1,0.9-0.2,1.4c-0.3,0.9-1.1,1.4-2,1.4c-0.9,0-1.5-0.7-1.5-1.5
		C103,2.7,104.3,0.2,104.9,0.2z M104.6,2c-0.3,0-0.8,0.7-0.8,1.1c0,0.3,0.4,0.6,0.9,0.6c0.6,0,1.3-0.3,1.3-0.5
		C106,3,105.3,2,104.6,2z"/>
	<path class="st0" d="M108.3,19.4c0,1.4-0.4,3.3-1.1,4.3c-0.2,0.4-1.1,0.8-1.6,1c-1.6,0.5-2.8,0.7-3.8,0.7h-0.2
		c-0.7,0-1.1-0.5-1.1-1.4c0-0.8,0.4-1.3,1.1-1.3h0.2c1.5,0,3.2-0.2,4.2-0.6c0.9-0.3,1-0.4,1-1.2c0-0.5-0.1-1-0.4-1.5
		c-0.2,0.6-1.1,1.1-2,1.1c-1.2,0-2-0.8-2-2.2c0-2.1,1.5-4.7,2.3-4.7C107,13.7,108.3,17.6,108.3,19.4z M106.6,7.4
		c0.2-0.2,0.3-0.3,0.4-0.1c0.5,0.6,1.2,1.2,1.8,1.6c0.2,0.1,0.2,0.2,0,0.4c-0.5,0.6-1,1.1-1.5,1.7c-0.1,0.2-0.2,0.2-0.3,0
		c-0.4-0.3-1.1-0.8-1.6-1.4c-0.3,0.4-1,1.1-1.3,1.3c-0.1,0.1-0.2,0.2-0.4,0c-0.6-0.4-1.3-1-1.8-1.6c-0.1-0.1-0.1-0.2,0-0.4
		c0.4-0.5,1-1.2,1.6-1.8c0.1-0.1,0.2-0.1,0.4,0.1c0.4,0.5,1.2,1.2,1.6,1.4C105.7,8.4,106.3,7.7,106.6,7.4z M105.4,16.5
		c-0.2-0.2-0.6-0.3-0.8-0.3c-0.2,0-0.4,0.2-0.6,0.5c-0.2,0.3-0.2,0.5-0.2,0.6c0,0.5,0.6,0.7,1.1,0.7c0.5,0,1.1-0.2,1.1-0.6
		C105.9,17.4,105.7,16.8,105.4,16.5z"/>
	<path class="st0" d="M116.5,11.8c0.1-0.1,0.2,0,0.2,0.1c0,0.7-0.2,1.3-0.6,1.5l-4.7,2.6c-0.1,0-0.1,0-0.1-0.1
		c0-0.3,0.1-0.9,0.3-1.1c0.1-0.2,0.3-0.4,0.8-0.6L116.5,11.8z"/>
	<path class="st0" d="M107.6,32.2c-0.4-0.2-0.5-0.3-0.5-0.5c0-0.1,0.2-0.2,0.4-0.2c0.3,0,1.3,0.2,2.1,0.2c0.7,0,1.4-0.2,2.4-0.7
		c2.8-1.4,4.5-3.4,4.5-4.8c0-0.2,0-0.4-0.1-0.8h-0.8c-0.6,0-1.7-0.1-2.5-0.5c-0.8-0.4-1.1-1-1.1-1.8c0-0.7,0.3-1.7,0.7-2.5
		c0.6-1.4,1.4-2.5,2.1-2.5c0.8,0,1.5,0.6,2,1.3c0.5,0.8,0.8,2.1,0.8,3.2h1.1c0.7,0,1.1,0.4,1.1,1.2c0,0.9-0.3,1.4-1,1.4l-1.2,0.1
		c-0.2,4-1.5,6.6-4.7,7.8c-0.2,0.1-0.4,0.1-0.7,0.1C111,33.4,109.1,32.9,107.6,32.2z M114.7,21.2c-0.2-0.1-0.3-0.3-0.6-0.3
		c-0.5,0-0.9,0.6-0.9,0.9c0,0.3,0.3,0.5,0.9,0.8c0.5,0.2,1,0.3,1.3,0.3c0.2,0,0.3,0,0.3-0.1C115.7,22.4,115.2,21.6,114.7,21.2z"/>
	<path class="st0" d="M121.2,24.2c-0.6,0.8-1.3,1.2-2.6,1.2h-0.3c-0.8,0-1.1-0.5-1.1-1.4c0-0.8,0.4-1.2,1.1-1.2h0.3
		c0.6,0,1.2-0.1,1.7-0.3c0.4-0.1,0.7-0.3,0.8-0.5c0-2-0.7-6.1-1.1-10.2c0-0.5-0.3-1.9-0.4-2.4c0-0.1,0-0.2,0-0.3
		c0-0.3,0.4-1.1,0.6-1.5c0.3-0.6,0.6-1,0.8-1c0.1,0,0.1,0.1,0.2,0.2c0.3,1.1,0.7,1.7,0.9,2.1c0.1,0.1,0.1,0.2,0.1,0.3
		c0,0,0,0.1,0,0.2c-0.1,0.3-0.4,0.9-0.6,1.2c0.2,3.9,0.8,7.1,0.8,8.9C122.4,21.5,122,23,121.2,24.2z"/>
	<path class="st0" d="M127.6,25.4c-0.1,0-0.2-0.2-0.2-0.8c0-3.4-1.3-13-1.3-14.5c0-0.8,0.5-2,1-2.8c0.1-0.3,0.4-0.6,0.5-0.6
		c0.1,0,0.2,0.2,0.2,0.9c0.1,2.5,0.8,8.3,0.8,12.6c0,1.7-0.1,3.1-0.4,4C128,25,127.8,25.4,127.6,25.4z"/>
	<path class="st0" d="M146,33.8c0.2-0.2,0.3-0.3,0.4-0.1c0.5,0.6,1.2,1.2,1.8,1.6c0.2,0.1,0.2,0.2,0,0.4c-0.5,0.6-1,1.1-1.5,1.7
		c-0.1,0.2-0.2,0.2-0.3,0c-0.4-0.3-1.1-0.8-1.6-1.4c-0.3,0.4-1,1.1-1.3,1.3c-0.1,0.1-0.2,0.2-0.4,0c-0.6-0.4-1.3-1-1.8-1.6
		c-0.1-0.1-0.1-0.2,0-0.4c0.4-0.5,1-1.2,1.6-1.8c0.1-0.1,0.2-0.1,0.4,0.1c0.4,0.5,1.2,1.2,1.6,1.4C145.1,34.8,145.8,34.1,146,33.8z"
		/>
	<path class="st0" d="M152.5,7.7c0.1,0.1,0.1,0.1,0,0.2c-0.3,0.4-1.2,1.4-1.6,1.9c-0.1,0.1-0.1,0.1-0.3,0c-0.5-0.3-1.7-1.2-2-1.7
		c-0.1-0.1-0.1-0.1,0-0.3c0.4-0.6,1-1.3,1.5-1.8c0.2-0.2,0.3-0.2,0.3-0.2C150.8,6.5,151.7,7.2,152.5,7.7z"/>
	<path class="st0" d="M142.1,28.4c0.8,0.3,1.6,0.4,2.4,0.4c0.9,0,1.6-0.1,2.5-0.3c2.7-0.7,5.8-2.2,6.2-2.9c-0.8-0.7-3.1-1.7-5-1.7
		c-0.4,0-0.5-0.2-0.5-0.4c0-0.4,0.3-1,0.6-1.4c0.1-0.1,0.1-0.2,0.3-0.2c3.7-0.7,3.9-2,3.9-2.2c0-0.8-0.1-1-0.3-1.8
		c-0.5,0.6-1.2,1.1-2.1,1.1c-1.1,0-2.1-0.7-2.1-1.9c0-1.8,1.7-5,2.5-5c0.9,0,1.8,0.8,2.5,2.2c0.5,1,0.8,2.5,0.8,3.5
		c0,1.8-0.8,3.5-1.8,4.8c0.7,0.2,1.2,0.5,1.6,0.7c1,0.6,1,1.2,1,1.7c0,1-0.8,2.2-1.9,3.2c-2.3,1.9-6.1,3.4-8.7,3.3
		c-0.7,0-1.6-0.1-2.4-0.4c-1.9-0.6-3.6-2-3.6-5.1c0-1.8,0.8-4.3,1.7-5.8c0.3-0.4,0.5-0.7,0.8-0.7c0.3,0,0.1,0.5-0.1,0.9
		c-0.7,1.5-1.2,2.8-1.2,3.9C139,26.5,140.3,27.8,142.1,28.4z M150,14.5c-0.2,0-0.5,0.3-0.8,0.8c0,0.1-0.1,0.2-0.1,0.3
		c0,0.5,0.5,0.7,1.1,0.8c0.6,0,1.1-0.2,1.1-0.6C151.2,14.9,150.4,14.5,150,14.5z"/>
	<path class="st0" d="M175.6,5.8c0,0.6-0.1,1.1-0.3,1.7c0.3,0.2,0.4,0.3,0.4,0.4c0,0.4-0.2,0.8-0.4,1.1c-0.1,0.1-0.1,0.1-0.1,0.1
		l-0.6-0.4c-0.6,0.9-1.5,2-2.8,2.6c-0.5,0.2-1.1,0.4-1.7,0.4c-0.3,0-0.5-0.1-0.5-0.2c0-0.2,0.2-0.2,0.6-0.4c1-0.5,2.9-2,3.5-2.9
		c-0.5-0.4-1.2-0.8-1.2-1.6c0-0.5,0.3-1,0.7-1.5c0.5-0.6,1-0.9,1.4-0.9C175.4,4.4,175.6,5.2,175.6,5.8z M173.5,6.3
		C173.5,6.3,173.5,6.4,173.5,6.3c0,0.2,0.5,0.6,0.9,0.8c0.1-0.2,0.1-0.4,0.1-0.8c0-0.3-0.1-0.5-0.4-0.5C174,5.8,173.7,6,173.5,6.3z"
		/>
	<path class="st0" d="M166.1,22.4c1.1,0.5,2.9,0.8,5.2,0.8c3.3,0,5.9-0.5,7.6-1c2.3-0.7,3.4-1.1,4.7-2c0.1,0,0.2-0.2,0.3-0.2
		c0.1,0,0.2,0.1,0.2,0.5c0,1.4,0.8,2.2,1.7,2.2h0.4c0.7,0,1.1,0.4,1.1,1.3c0,0.9-0.3,1.4-1,1.4h-0.5c-1.6,0-2.6-0.9-3-2.6
		c-1.2,0.6-2.8,1.4-4.2,1.8c-2.3,0.7-4.7,1.2-7.6,1.2c-2.4,0-4.4-0.3-5.6-0.9c-1.7-0.7-2.5-1.7-2.5-3.4c0-1.5,0.6-3,1-3.5
		c0.2-0.4,0.5-0.7,0.7-0.7c0.1,0,0.1,0.1,0.1,0.2c0,0.2-0.1,0.4-0.2,0.7c-0.2,0.5-0.4,1.2-0.4,1.8C164,20.7,164.4,21.6,166.1,22.4z
		 M174.9,13.6c0.2-0.2,0.3-0.3,0.4-0.1c0.5,0.6,1.2,1.2,1.8,1.6c0.2,0.1,0.2,0.2,0,0.4c-0.5,0.6-1,1.1-1.5,1.7
		c-0.1,0.2-0.2,0.2-0.3,0c-0.4-0.3-1.1-0.8-1.6-1.4c-0.3,0.4-1,1.1-1.3,1.3c-0.1,0.1-0.2,0.2-0.4,0c-0.6-0.4-1.3-1-1.8-1.6
		c-0.1-0.1-0.1-0.2,0-0.4c0.4-0.5,1-1.2,1.6-1.8c0.1-0.1,0.2-0.1,0.4,0.1c0.4,0.5,1.2,1.2,1.6,1.4C174,14.6,174.7,13.9,174.9,13.6z"
		/>
	<path class="st0" d="M190.9,8c0,0.6-0.1,1.1-0.3,1.7c0.3,0.2,0.4,0.3,0.4,0.4c0,0.4-0.2,0.8-0.4,1.1c-0.1,0.1-0.1,0.1-0.1,0.1
		l-0.6-0.4c-0.6,0.9-1.5,2-2.8,2.6c-0.5,0.2-1.1,0.4-1.7,0.4c-0.3,0-0.5-0.1-0.5-0.2c0-0.2,0.2-0.2,0.6-0.4c1-0.5,2.9-2,3.5-2.9
		c-0.5-0.4-1.2-0.8-1.2-1.6c0-0.5,0.3-1,0.7-1.5c0.5-0.6,1-0.9,1.4-0.9C190.6,6.6,190.8,7.4,190.9,8z M188.8,8.5
		C188.8,8.5,188.8,8.5,188.8,8.5c0,0.2,0.5,0.6,0.9,0.8c0.1-0.2,0.1-0.4,0.1-0.8c0-0.3-0.1-0.5-0.4-0.5C189.2,8,189,8.2,188.8,8.5z"
		/>
	<path class="st0" d="M192.3,22.8h0.1c0.7,0,1,0.7,1,1.3c0,0.7-0.3,1.3-1,1.3h-0.1c-0.7,0-1.4-0.1-2-0.6c-0.9-0.7-1.2-2-1.3-2.2
		c-0.1,0.8-1.2,2.7-2.9,2.7h-0.1c-0.7,0-1-0.6-1-1.3c0-0.7,0.3-1.3,1.1-1.3h0.1c1.4,0,2.3-0.6,2.4-0.9c0,0,0-0.1,0-0.2
		c0-0.2-0.5-2.9-0.5-3.2c0-0.1,0-0.3,0-0.4c0.1-0.5,0.4-1.1,0.6-1.5c0.1-0.3,0.2-0.4,0.3-0.4c0.1,0,0.2,0.2,0.3,0.5
		c0.3,1.2,0.6,3.6,0.9,4.3C190.6,22.1,191.8,22.8,192.3,22.8z M191.4,29.7c0.1,0.1,0.1,0.1,0,0.2c-0.3,0.4-1.2,1.4-1.6,1.9
		c-0.1,0.1-0.1,0.1-0.3,0c-0.5-0.3-1.7-1.2-2-1.7c-0.1-0.1-0.1-0.1,0-0.3c0.4-0.6,1-1.3,1.5-1.8c0.2-0.2,0.3-0.2,0.3-0.2
		C189.7,28.4,190.6,29.1,191.4,29.7z"/>
	<path class="st0" d="M195.4,0.9c0.8,0,1.9,1.1,1.9,2.4c0,0.5-0.1,0.9-0.2,1.4c-0.3,0.9-1.1,1.4-2,1.4c-0.9,0-1.5-0.7-1.5-1.5
		C193.5,3.4,194.8,0.9,195.4,0.9z M195.1,2.8c-0.3,0-0.8,0.7-0.8,1.1c0,0.3,0.4,0.6,0.9,0.6c0.6,0,1.3-0.3,1.3-0.5
		C196.5,3.7,195.8,2.8,195.1,2.8z"/>
	<path class="st0" d="M197.8,21.2c0,0.7,0.7,1.4,1.5,1.5c0.2,0,0.4,0,0.5,0h0.2c1,0,1,0.8,1,1.2c0,0.3,0,1.4-1,1.4h-0.2
		c-0.2,0-0.3,0-0.7,0c-1.8-0.2-2.4-1.7-2.5-1.9c-0.3,0.7-1.7,1.9-4.2,1.9h-0.1c-0.7,0-1.1-0.6-1.1-1.3c0-0.7,0.4-1.3,1.1-1.3h0.8
		c1.1,0,2.8-0.2,3.7-1.8c0.3-0.5,0.4-0.6,0.6-0.6C197.7,20.4,197.8,20.6,197.8,21.2z M197.5,13.8c0.2-0.2,0.3-0.3,0.4-0.1
		c0.5,0.6,1.2,1.2,1.8,1.6c0.2,0.1,0.2,0.2,0,0.4c-0.5,0.6-1,1.1-1.5,1.7c-0.1,0.2-0.2,0.2-0.3,0c-0.4-0.3-1.1-0.8-1.6-1.4
		c-0.3,0.4-1,1.1-1.3,1.3c-0.1,0.1-0.2,0.2-0.4,0c-0.6-0.4-1.3-1-1.8-1.6c-0.1-0.1-0.1-0.2,0-0.4c0.4-0.5,1-1.2,1.6-1.8
		c0.1-0.1,0.2-0.1,0.4,0.1c0.4,0.5,1.2,1.2,1.6,1.4C196.6,14.8,197.3,14.1,197.5,13.8z M197.9,10c0.1,0.1,0.1,0.1,0,0.2
		c-0.3,0.4-1.2,1.4-1.6,1.9c-0.1,0.1-0.1,0.1-0.3,0c-0.5-0.3-1.7-1.2-2-1.7c-0.1-0.1-0.1-0.1,0-0.3c0.4-0.6,1-1.3,1.5-1.8
		c0.2-0.2,0.3-0.2,0.3-0.2C196.3,8.8,197.1,9.5,197.9,10z"/>
	<path class="st0" d="M205.3,4.3c0.1-0.1,0.2,0,0.2,0.1c0,0.7-0.2,1.3-0.6,1.5l-4.7,2.6c-0.1,0-0.1,0-0.1-0.1c0-0.3,0.1-0.9,0.3-1.1
		c0.1-0.2,0.3-0.4,0.8-0.6L205.3,4.3z"/>
	<path class="st0" d="M204.4,23.8c-0.5,0.7-1.4,1.3-3,1.5c-0.4,0.1-1.1,0.1-1.6,0.1c-0.7,0-1.1-0.6-1.1-1.3c0-0.7,0.4-1.3,1.1-1.3
		h0.6c1.2,0,3,0,3.7-0.7c-0.1-1-0.9-2.3-1.2-2.8c0,0,0,0,0-0.1c0-0.4,0.8-2.1,0.8-2.2c0-0.1,0.1-0.1,0.1-0.1c0.4,0,1.3,1.8,1.3,4
		C205.1,21.9,205,22.9,204.4,23.8z M204.3,10.7c0.2-0.2,0.3-0.3,0.4-0.1c0.5,0.6,1.2,1.2,1.8,1.6c0.2,0.1,0.2,0.2,0,0.4
		c-0.5,0.6-1,1.1-1.5,1.7c-0.1,0.2-0.2,0.2-0.3,0c-0.4-0.3-1.1-0.8-1.6-1.4c-0.3,0.4-1,1.1-1.3,1.3c-0.1,0.1-0.2,0.2-0.4,0
		c-0.6-0.4-1.3-1-1.8-1.6c-0.1-0.1-0.1-0.2,0-0.4c0.4-0.5,1-1.2,1.6-1.8c0.1-0.1,0.2-0.1,0.4,0.1c0.4,0.5,1.2,1.2,1.6,1.4
		C203.4,11.7,204,11,204.3,10.7z"/>
	<path class="st0" d="M218.5,19.5c0,0,0,0.3,0,0.3c0,0.3-0.3,1.3-0.4,1.4c-0.2,0.1-4.3,0.2-4.9,0.2c0,0,0-0.2,0-0.3
		c0-0.4,0.2-1.4,0.3-1.4C214.7,19.7,217.8,19.6,218.5,19.5z"/>
	<path class="st0" d="M228.7,14.3c0,1.4-1.1,2.3-2.2,3.1c0,0,0,0.1,0,0.1c1.8,0.6,3.4,1.7,3.4,3.8c0,1.7-1,3.1-2.4,4
		c-1.1,0.7-2.4,1.2-3.8,1.2c-0.9,0-1.7-0.2-2.2-0.4c-0.4-0.2-0.5-0.4-0.8-0.9c-0.2-0.5-0.4-1.3-0.5-1.8c0-0.1,0.5-0.4,0.6-0.4
		c0.4,0.9,1,1.6,1.7,1.9c0.6,0.4,1.2,0.5,2.1,0.5c1.3,0,2.7-0.9,2.7-2.9c0-2-1.4-3.4-3.6-3.4c-0.3,0-0.4,0-0.8,0
		c0-0.1,0.3-1,0.4-1.1c2.2-0.5,3-1.3,3-2.7c0-1.3-0.8-2.5-2.4-2.5c-1,0-1.9,0.5-2.7,1.3c-0.2,0-0.4-0.5-0.4-0.6
		c0.8-1,2.4-2.5,4.4-2.5C227.3,10.9,228.7,12.4,228.7,14.3z"/>
</g>
</svg>
