<?xml version="1.0" encoding="utf-8"?>
<!-- Generator: Adobe Illustrator 19.2.0, SVG Export Plug-In . SVG Version: 6.00 Build 0)  -->
<svg version="1.1" id="Layer_1" xmlns="http://www.w3.org/2000/svg" xmlns:xlink="http://www.w3.org/1999/xlink" x="0px" y="0px"
	 viewBox="0 0 320.3 43.5" style="enable-background:new 0 0 320.3 43.5;" xml:space="preserve">
<style type="text/css">
	.st0{fill:#FFFFFF;}
</style>
<g>
	<path class="st0" d="M2.7,28.8c0.4,0.4,0.5,0.9,0.5,1.3c0,0.3-0.1,0.8-0.4,1.1c-0.3,0.3-0.8,0.5-1.2,0.5c-0.3,0-0.7-0.2-1-0.4
		C0.1,30.9,0,30.5,0,30c0-0.4,0.2-0.8,0.5-1.2c0.3-0.3,0.7-0.5,1.1-0.5S2.4,28.6,2.7,28.8z"/>
	<path class="st0" d="M21.2,33.4c0.1-0.1,0.2,0,0.2,0.1c0,0.7-0.2,1.3-0.6,1.5l-4.7,2.6c-0.1,0-0.1,0-0.1-0.1c0-0.3,0.1-0.9,0.3-1.1
		c0.1-0.2,0.3-0.4,0.8-0.6L21.2,33.4z"/>
	<path class="st0" d="M26.9,24.9c0,0.5-0.3,2.1-0.7,3.2c-0.3,0.8-0.5,1-1.4,1.4c-1.9,0.9-6.5,2.2-11.2,2.2c-6,0-8.5-2-8.5-4.9
		c0-1,0.5-2.7,1.2-3.8c0.2-0.4,0.5-0.7,0.7-0.7c0.1,0,0.1,0,0.1,0.1c0,0.1-0.1,0.3-0.2,0.5c-0.3,0.8-0.6,1.6-0.6,2.3
		c0,1.2,1.7,3.6,7.5,3.7c4.3,0,8.8-1,10.8-1.7c1-0.4,1.1-0.5,1.1-1.3c0-0.5-0.1-1-0.4-1.5c-0.3,0.6-1.1,1.1-2,1.1
		c-1.3,0-2-0.8-2-2.2c0-2.1,1.5-4.7,2.3-4.7C25.3,18.8,26.9,21.7,26.9,24.9z M21.1,15.6c0.1,0.1,0.1,0.1,0,0.2
		c-0.3,0.4-1.2,1.4-1.6,1.9c-0.1,0.1-0.1,0.1-0.3,0c-0.5-0.3-1.7-1.2-2-1.7c-0.1-0.1-0.1-0.1,0-0.3c0.4-0.6,1-1.3,1.5-1.8
		c0.2-0.2,0.3-0.2,0.3-0.2C19.5,14.3,20.3,15.1,21.1,15.6z M23.2,21.3c-0.3,0-0.7,0.5-0.8,0.9c0,0,0,0.1,0,0.2c0,0,0,0.1,0,0.1
		c0.1,0.4,0.5,0.6,1.1,0.6c0.5,0,0.9-0.2,1.1-0.4c0,0,0.1-0.1,0.1-0.1C24.6,22.3,24.1,21.3,23.2,21.3z"/>
	<path class="st0" d="M36.1,26.6c0.4,1,0.5,2,0.5,3.5c0,4.5-1.3,7.5-4.7,8.8C31.7,39,31.4,39,31.1,39c-1.1,0-3-0.5-4.5-1.2
		c-0.4-0.2-0.5-0.3-0.5-0.5c0-0.1,0.1-0.2,0.5-0.2c0.2,0,1.3,0.2,2.1,0.2c1.1,0,2.2-0.5,3.8-1.5c1.8-1.1,3.2-2.7,3.2-4.4
		c0-0.5-0.1-1.1-0.5-1.7c-0.3,0.8-0.9,1.3-1.8,1.3c-1.4,0-2.3-0.8-2.3-2.4c0-0.6,0.3-1.5,0.7-2.4c0.6-1.1,1.4-2.2,2-2.2
		C34.5,24.1,35.5,25.2,36.1,26.6z M33.2,26.7c-0.3,0-0.6,0.2-0.8,0.5c-0.1,0.2-0.3,0.4-0.3,0.6c0,0.4,0.7,0.7,1.3,0.7
		c0.5,0,0.8-0.2,0.9-0.5C34.3,27.2,33.5,26.7,33.2,26.7z"/>
	<path class="st0" d="M48.7,28.8c0.8,0,1.3,0.4,1.3,1.3c0,0.9-0.4,1.3-1.3,1.3h-0.3c-0.7,0-1.2,0-1.5-0.1c0,0.1,0,0.3,0,0.4
		c0,0.8-0.1,1.7-0.4,2.4c-0.6,1.4-1.5,3.8-4.1,5c-0.5,0.2-0.9,0.3-1.4,0.3c-1,0-2.7-0.6-4-1.2c-0.4-0.2-0.5-0.3-0.5-0.5
		c0-0.2,0.2-0.2,0.4-0.2c0.3,0,0.9,0.1,1.5,0.1c3.6,0,7.1-3.1,7.6-5.7c0-0.6-1.2-1.8-1.5-2.2c0-0.1-0.1-0.2-0.1-0.3
		c0-0.6,0.4-1.8,0.7-2.1c0.1-0.2,0.2-0.3,0.3-0.3c0.2,0,0.4,0.2,0.7,0.8c0.4,0.7,1,1,2.1,1H48.7z"/>
	<path class="st0" d="M52.5,16.1c0,0.6-0.1,1.1-0.3,1.7c0.3,0.2,0.4,0.3,0.4,0.4c0,0.4-0.2,0.8-0.4,1.1c-0.1,0.1-0.1,0.1-0.1,0.1
		L51.5,19c-0.6,0.9-1.5,2-2.8,2.6c-0.5,0.2-1.1,0.4-1.7,0.4c-0.3,0-0.5-0.1-0.5-0.2c0-0.2,0.2-0.2,0.6-0.4c1-0.5,2.9-2,3.5-2.9
		c-0.5-0.4-1.2-0.8-1.2-1.6c0-0.5,0.3-1,0.7-1.5c0.5-0.6,1-0.9,1.4-0.9C52.3,14.6,52.5,15.4,52.5,16.1z M50.5,16.6
		C50.5,16.6,50.4,16.6,50.5,16.6c0,0.2,0.5,0.6,0.9,0.8c0.1-0.2,0.1-0.4,0.1-0.8c0-0.3-0.1-0.5-0.4-0.5
		C50.9,16.1,50.6,16.3,50.5,16.6z"/>
	<path class="st0" d="M56.2,20.6c0,0.7-0.1,1.2-0.2,1.7c-0.1,0.5-0.2,0.8-0.4,1.2c-0.1,0.3-0.5,0.7-1,1.2c1,0.3,2,0.6,3.2,0.9
		c1.2,0.4,2.3,0.7,3,0.8c0.7,0.2,1.6,0.3,2.7,0.4l1.9,0.1c0.2,0,0.2,0.1,0.2,0.2c-0.3,0.4-0.8,1-1.5,1.8c-0.1,0.2-0.2,0.2-0.4,0.2
		c-0.3,0-1.5-0.2-3.3-0.3c-0.9,0-1.8,0.1-2.7,0.4c-0.8,0.2-1.9,0.6-3.2,1c-1.3,0.5-2.3,0.8-3.1,1c-0.7,0.2-1.7,0.3-2.8,0.3h-0.3
		c-0.8,0-1.2-0.4-1.2-1.3c0-0.9,0.4-1.3,1.1-1.3h0.3c2.8,0,5.3-0.4,7.6-1.2c-0.2-0.2-1.1-0.5-2.6-0.9C52,26.2,50.9,26,50,26
		c-0.2,0-0.3,0-0.3-0.2c0-0.3,0.5-0.9,1.5-1.9c0.1-0.1,0.2-0.2,0.4-0.2c0.2-0.1,0.5-0.2,1-0.3c0.3-0.1,0.8-0.3,1.5-0.5
		c0.6-0.3,1-0.6,1-0.9l-0.8-4.8c-0.1-0.5-0.4-1.5-0.4-2c0-0.1,0-0.2,0-0.3c0,0,0-0.1,0-0.2c0-0.1,0.1-0.4,0.4-1
		c0.3-0.5,0.7-1.2,0.9-1.2c0.1,0,0.1,0.1,0.2,0.2c0.3,1.1,0.7,1.6,0.9,2c0,0.1,0.1,0.2,0.1,0.2s0,0.1,0,0.2
		c-0.1,0.3-0.4,0.8-0.6,1.2C56.1,17.9,56.2,19.4,56.2,20.6z"/>
	<path class="st0" d="M69.8,31.4c-0.1,0-0.2-0.2-0.2-0.8c0-3.4-1.3-13-1.3-14.5c0-0.8,0.5-2,1-2.8c0.1-0.3,0.4-0.6,0.5-0.6
		c0.1,0,0.2,0.2,0.2,0.9c0.1,2.5,0.8,8.3,0.8,12.6c0,1.7-0.1,3.1-0.4,4C70.2,31,70,31.4,69.8,31.4z"/>
	<path class="st0" d="M80.2,26.6c0.4,1,0.5,2,0.5,3.5c0,4.5-1.3,7.5-4.8,8.8C75.8,39,75.5,39,75.2,39c-1.1,0-3-0.5-4.5-1.2
		c-0.4-0.2-0.5-0.3-0.5-0.5c0-0.1,0.1-0.2,0.5-0.2c0.2,0,1.3,0.2,2.1,0.2c1.1,0,2.2-0.5,3.8-1.5c1.8-1.1,3.2-2.7,3.2-4.4
		c0-0.5-0.1-1.1-0.5-1.7c-0.3,0.8-0.9,1.3-1.8,1.3c-1.4,0-2.3-0.8-2.3-2.4c0-0.6,0.3-1.5,0.7-2.4c0.6-1.1,1.4-2.2,2-2.2
		C78.6,24.1,79.6,25.2,80.2,26.6z M77.3,26.7c-0.3,0-0.6,0.2-0.8,0.5c-0.1,0.2-0.3,0.4-0.3,0.6c0,0.4,0.7,0.7,1.3,0.7
		c0.5,0,0.8-0.2,0.9-0.5C78.4,27.2,77.6,26.7,77.3,26.7z"/>
	<path class="st0" d="M102,36.7c0.1-0.1,0.2,0,0.2,0.1c0,0.7-0.2,1.3-0.6,1.5l-4.7,2.6c-0.1,0-0.1,0-0.1-0.1c0-0.3,0.1-0.9,0.3-1.1
		c0.1-0.2,0.3-0.4,0.8-0.6L102,36.7z"/>
	<path class="st0" d="M103.2,29c0,2.6-0.5,3.2-1.1,4.2c-1.4,2.2-4.1,3.3-6.7,3.3c-4.5,0-5.8-2.4-5.8-4.7c0-1.7,0.5-3.4,1.2-4.8
		c0.4-0.7,0.7-1,0.9-1c0.1,0,0.1,0.1,0.1,0.2c0,0.2-0.1,0.5-0.3,0.9c-0.4,0.8-0.8,2-0.8,2.9c0,2,1.6,3.8,5,3.8c2.5,0,5.6-1.6,6.2-3
		c0.1-0.1,0.1-0.3,0.1-0.4c-0.1-2.2-0.3-3.6-0.6-5.5c-0.5-3.5-0.5-4.3-0.9-7.6c0-0.5-0.4-1.5-0.4-2c0-0.1,0-0.2,0-0.3
		c0,0,0-0.1,0-0.2c0-0.1,0.1-0.4,0.4-1c0.3-0.6,0.8-1.2,1-1.2c0.1,0,0.1,0.1,0.2,0.2c0.3,1.1,0.6,1.6,0.9,2c0,0.1,0.1,0.2,0.1,0.2
		s0,0.1,0,0.2c-0.1,0.3-0.3,0.9-0.6,1.2C102.6,20.7,103.2,26.3,103.2,29z"/>
	<path class="st0" d="M111.4,31.4c-0.8,0-1.4-0.1-1.9-0.5c-0.8-0.7-1.3-1.9-1.5-3.5c-0.2-1.2-0.3-2.7-0.3-4.3
		c-0.1-2.3-0.2-5.8-0.6-7.9c0-0.1,0-0.2,0-0.3c0-0.1,0-0.2,0.2-0.5c0.4-0.5,0.6-0.9,0.8-1.4c0.2-0.3,0.2-0.4,0.3-0.4
		c0.1,0,0.2,0.2,0.3,0.8c0.5,4,0.1,9.6,0.7,12.7c0.2,0.8,0.2,1,0.4,1.5c0.3,0.7,0.8,1,1.6,1.1c0.9,0,1.4,0.4,1.4,1.3
		c0,1-0.5,1.4-1.2,1.4H111.4z"/>
	<path class="st0" d="M123.2,28.8c0.7,0,1.1,0.4,1.1,1.2c0,0.9-0.4,1.4-1.1,1.4h-0.3c-1.2-0.1-2.2-0.4-3.1-0.9
		c-0.9-0.5-1.3-1-1.9-1.9c-1.4,1.2-2.5,2-3.3,2.3c-0.9,0.4-2,0.5-3.1,0.5c-0.9,0-1.3-0.5-1.3-1.3c0-0.8,0.4-1.3,1.3-1.3h0.2
		c2.1,0,3.4-0.4,5.1-1.3c-0.6-0.8-1.9-1.1-2.6-1.2c-0.1,0-0.1-0.2-0.1-0.5c0-0.6,0.2-1.6,0.5-1.8c1.1-0.8,2.4-1.3,3.5-1.3
		c1.1,0,2.2,0.4,3,1.2c0.2,0.2,0.3,0.5,0.3,0.8c0,0.8-0.5,1.9-1.5,2.7c0.9,0.9,1.9,1.4,3,1.4H123.2z"/>
	<path class="st0" d="M125.4,5.5c0.8,0,1.9,1.1,1.9,2.4c0,0.5-0.1,0.9-0.2,1.4c-0.3,0.9-1.1,1.4-2,1.4c-0.9,0-1.5-0.7-1.5-1.5
		C123.5,8,124.9,5.5,125.4,5.5z M125.2,7.3c-0.3,0-0.8,0.7-0.8,1.1c0,0.3,0.4,0.6,0.9,0.6c0.6,0,1.3-0.3,1.3-0.5
		C126.5,8.3,125.8,7.3,125.2,7.3z"/>
	<path class="st0" d="M129.4,25.4c0,1.4-0.4,3.3-1.1,4.3c-0.2,0.4-1.1,0.8-1.6,1c-1.6,0.5-2.8,0.7-3.8,0.7h-0.2
		c-0.7,0-1.1-0.5-1.1-1.4c0-0.8,0.4-1.3,1.1-1.3h0.2c1.5,0,3.2-0.2,4.2-0.6c0.9-0.3,1-0.4,1-1.2c0-0.5-0.1-1-0.4-1.5
		c-0.2,0.6-1.1,1.1-2,1.1c-1.2,0-2-0.8-2-2.2c0-2.1,1.5-4.7,2.3-4.7C128.2,19.7,129.4,23.6,129.4,25.4z M127.8,14.1
		c0.1,0.1,0.1,0.1,0,0.2c-0.3,0.4-1.2,1.4-1.6,1.9c-0.1,0.1-0.1,0.1-0.3,0c-0.5-0.3-1.7-1.2-2-1.7c-0.1-0.1-0.1-0.1,0-0.3
		c0.4-0.6,1-1.3,1.5-1.8c0.2-0.2,0.3-0.2,0.3-0.2C126.2,12.8,127,13.6,127.8,14.1z M126.5,22.5c-0.2-0.2-0.6-0.3-0.8-0.3
		c-0.2,0-0.4,0.2-0.6,0.5c-0.2,0.3-0.2,0.5-0.2,0.6c0,0.5,0.6,0.7,1.1,0.7c0.5,0,1.1-0.2,1.1-0.6C127.1,23.3,126.9,22.8,126.5,22.5z
		"/>
	<path class="st0" d="M136.2,0c0.1-0.1,0.2,0,0.2,0.1c0,0.7-0.2,1.3-0.6,1.5L131,4.2c-0.1,0-0.1,0-0.1-0.1c0-0.3,0.1-0.9,0.3-1.1
		c0.1-0.2,0.3-0.4,0.8-0.6L136.2,0z"/>
	<path class="st0" d="M136,9.3c-0.2,0.3-0.3,0.3-0.4,0.4c-1,0.5-3,1.7-4.6,2.9c-0.2,0.1-0.2,0.1-0.2-0.2c0-0.1,0.1-0.4,0.2-0.7
		c0.1-0.2,0.6-0.7,1-1c0.1-0.1,0.2-0.1-0.1-0.2c-0.8-0.3-1.1-0.7-1.1-1.2c0-1,1-2.5,2-3.3c0.3-0.3,0.8-0.5,1.3-0.5
		c0.6,0,0.9,0.3,0.9,0.8c0,0.3-0.1,0.7-0.3,1.1c-0.2,0.5-0.3,0.5-0.7,0.2c-0.2-0.2-0.4-0.3-0.6-0.3c-0.9,0-1.5,0.5-1.5,0.8
		c0,0.4,1.4,1,2.1,1c0.1,0,0.2,0,0.3-0.1c0.5-0.1,1.4-0.6,1.6-0.7c0.4-0.3,0.5-0.2,0.3,0.2C136.4,8.7,136.2,9.1,136,9.3z"/>
	<path class="st0" d="M144.9,14.9c0.1,0.2,0.1,0.3,0.1,0.3c0,0.1,0,0.2-0.1,0.3c-0.2,0.5-0.6,1.1-1,1.5c-0.2,2.8-0.5,4.9-1.8,8
		c0.4,0.9,0.6,2.2,0.6,3.3c0,0.8-0.1,1.5-0.3,2.1c-0.2,0.5-3.1,1-5,1c-0.5,0-1,0-1.3-0.1c-0.1,0-0.2-0.3-0.2-0.8
		c0-0.7,0.2-1.7,0.3-2c0-0.1,0.1-0.1,0.1-0.1c0.1,0,0.2,0,0.3,0c1.6,0,3.2-1.5,4.3-3.3c-1.3-2.5-4-5.9-6.4-7.5
		c0,0.1-0.5,0.7-0.8,0.7c-0.4,0-2.5-2-2.5-2.5c0-0.2-0.1-0.5-0.1-0.7c0-0.6,0.1-1.3,0.3-1.6c0.1-0.3,0.3-0.5,0.5-0.5
		c0.3,0,0.5,0.2,0.9,0.4c1.8,1.3,3.7,2.7,5.2,4.6c1.1,1.5,2.6,3.4,3.7,5.9c0.7-1.5,0.8-2.5,1-4.4c0.1-1.1,0.1-1.9,0.1-2.5
		c0-1.3-0.1-1.8-0.1-2.1c0-0.2,0.1-0.4,0.3-0.8c0.4-0.8,0.8-1.4,1-1.4c0.1,0,0.2,0.1,0.2,0.3C144.3,13.5,144.6,14.2,144.9,14.9z
		 M141.4,26.2c-0.9,1.3-1,1.5-1.9,2.3c0.9,0,1.7-0.1,2.5-0.4C141.9,27.8,141.9,27.1,141.4,26.2z"/>
	<path class="st0" d="M149.4,31.4c-0.1,0-0.2-0.2-0.2-0.8c0-3.4-1.3-13-1.3-14.5c0-0.8,0.5-2,1-2.8c0.1-0.3,0.4-0.6,0.5-0.6
		c0.1,0,0.2,0.2,0.2,0.9c0.1,2.5,0.8,8.3,0.8,12.6c0,1.7-0.1,3.1-0.4,4C149.8,31,149.6,31.4,149.4,31.4z"/>
	<path class="st0" d="M159.9,26.6c0.4,1,0.5,2,0.5,3.5c0,4.5-1.3,7.5-4.8,8.8c-0.2,0.1-0.4,0.1-0.7,0.1c-1.1,0-3-0.5-4.5-1.2
		c-0.4-0.2-0.5-0.3-0.5-0.5c0-0.1,0.1-0.2,0.5-0.2c0.2,0,1.3,0.2,2.1,0.2c1.1,0,2.2-0.5,3.8-1.5c1.8-1.1,3.2-2.7,3.2-4.4
		c0-0.5-0.1-1.1-0.5-1.7c-0.3,0.8-0.9,1.3-1.8,1.3c-1.4,0-2.3-0.8-2.3-2.4c0-0.6,0.3-1.5,0.7-2.4c0.6-1.1,1.4-2.2,2-2.2
		C158.3,24.1,159.3,25.2,159.9,26.6z M157,26.7c-0.3,0-0.6,0.2-0.8,0.5c-0.1,0.2-0.3,0.4-0.3,0.6c0,0.4,0.7,0.7,1.3,0.7
		c0.5,0,0.8-0.2,0.9-0.5C158.1,27.2,157.3,26.7,157,26.7z"/>
	<path class="st0" d="M175.5,34.4c0.1-0.1,0.2,0,0.2,0.1c0,0.7-0.2,1.3-0.6,1.5l-4.7,2.6c-0.1,0-0.1,0-0.1-0.1
		c0-0.3,0.1-0.9,0.3-1.1c0.1-0.2,0.3-0.4,0.8-0.6L175.5,34.4z"/>
	<path class="st0" d="M175.8,29.8c-1.3,0.7-4,2.3-6.1,3.9c-0.1,0.1-0.1,0.1-0.2,0.1c0,0-0.1,0-0.1-0.1c0-0.2,0.2-0.7,0.3-1
		c0.1-0.3,0.8-0.9,1.3-1.4c0.1-0.1,0.1-0.1,0.1-0.2c0,0,0-0.1-0.2-0.1c-0.9-0.4-1.5-0.7-1.5-1.7c0-1.4,1.4-3.4,2.7-4.4
		c0.6-0.4,1-0.7,1.6-0.7c0.8,0,1.2,0.4,1.2,1.1c0,0.4-0.1,1-0.4,1.6c-0.2,0.3-0.3,0.5-0.4,0.5c-0.1,0-0.1,0-0.3-0.2
		c-0.3-0.3-0.6-0.5-1-0.5c-0.8,0-2,0.5-2,1.1c0,0.5,1.9,1.3,2.8,1.3c0.1,0,0.2,0,0.2,0c0.5-0.1,1.6-0.6,2.3-1
		c0.3-0.2,0.4-0.2,0.5-0.2c0.1,0,0.1,0,0.1,0.1c0,0.1-0.1,0.4-0.2,0.7C176.2,29.6,176.1,29.6,175.8,29.8z"/>
	<path class="st0" d="M194.1,16c0.8,0,1.9,1.1,1.9,2.4c0,0.5-0.1,0.9-0.2,1.4c-0.3,0.9-1.1,1.4-2,1.4c-0.9,0-1.5-0.7-1.5-1.5
		C192.2,18.5,193.5,16,194.1,16z M193.8,17.8c-0.3,0-0.8,0.7-0.8,1.1c0,0.3,0.4,0.6,0.9,0.6c0.6,0,1.3-0.3,1.3-0.5
		C195.2,18.8,194.5,17.8,193.8,17.8z"/>
	<path class="st0" d="M190.3,30.8c-0.9-0.2-1.6-0.8-2.2-1.8c-0.2-0.3-0.4-0.6-0.5-0.8c-0.2-0.2-0.5-0.4-0.8-0.4
		c-0.4,0-0.8,0.1-1.2,0.3c-1.5,0.5-2.3,1.2-2.3,2.1c0,0.4,0.1,0.8,0.6,1.5c0.1,0.2,0.3,0.3,0.4,0.4c0.6,0.4,1.1,0.8,1.7,1.1
		c0.2,0.1,0.2,0.1,0.2,0.3c0,0.5-0.5,2.4-0.7,2.4c-0.4,0-1.3-0.4-2.5-1.2c-1.3-0.8-2.1-1.9-2.5-3.1c-0.4-1.2-0.5-2.5-0.6-3.9
		c-0.1-0.9-0.1-2.8-0.2-5.9c-0.1-3.9-0.3-6.1-0.6-7.1c0-0.1,0-0.1,0-0.2l1.1-1.6c0.1-0.2,0.2-0.3,0.3-0.3c0.1,0,0.1,0.1,0.2,0.4
		c0.1,0.9,0.2,1.8,0.3,2.8c0.1,1.6,0.2,3.3,0.2,5.1c0.1,1.7,0.1,3.8,0.2,5.9c0,1.1,0.3,2.3,0.9,3.3c0.6-2.2,1.8-3.7,3.8-4.4
		c0.5-0.2,1.2-0.4,1.7-0.4c0.3,0,0.5,0.1,0.7,0.2c0.2,0.2,0.3,0.4,0.4,0.8c0.4,1.3,1.5,2,2.5,2c0.4,0,0.9-0.1,1.5-0.6
		c0.6-0.5,1.1-1.1,1.3-1.7c0.2-0.7,0.5-1,0.7-1c0.1,0,0.2,0.1,0.2,0.4c0,0.1,0,0.2,0,0.3c0,0.2,0,0.3,0,0.5c0,1.4,1.3,2,2.1,2
		c0.3,0,0.8-0.1,0.8-0.5c0-0.3-0.3-0.8-0.5-1.1c0,0-0.1-0.1-0.1-0.2c0-0.2,0.2-0.5,0.5-1.1c0.3-0.5,0.5-0.8,0.6-0.9
		c0-0.1,0.1-0.2,0.3-0.2c0.4,0,0.6,1.2,0.6,1.8c0,0.4,0,0.9-0.1,1.4c-0.4,1.5-1,2.6-1.9,3.1c-0.3,0.2-0.6,0.3-0.9,0.3
		c-0.3,0-0.6-0.1-0.9-0.2c-0.9-0.3-1.3-0.9-1.5-1.7c-0.7,1.3-1.8,2.2-3,2.2C190.5,30.8,190.4,30.8,190.3,30.8z"/>
	<path class="st0" d="M202.8,0c0.1-0.1,0.2,0,0.2,0.1c0,0.7-0.2,1.3-0.6,1.5l-4.7,2.6c-0.1,0-0.1,0-0.1-0.1c0-0.3,0.1-0.9,0.3-1.1
		c0.1-0.2,0.3-0.4,0.8-0.6L202.8,0z"/>
	<path class="st0" d="M202.6,9.3c-0.2,0.3-0.3,0.3-0.4,0.4c-1,0.5-3,1.7-4.6,2.9c-0.2,0.1-0.2,0.1-0.2-0.2c0-0.1,0.1-0.4,0.2-0.7
		c0.1-0.2,0.6-0.7,1-1c0.1-0.1,0.2-0.1-0.1-0.2c-0.8-0.3-1.1-0.7-1.1-1.2c0-1,1-2.5,2-3.3c0.3-0.3,0.8-0.5,1.3-0.5
		c0.6,0,0.9,0.3,0.9,0.8c0,0.3-0.1,0.7-0.3,1.1c-0.2,0.5-0.3,0.5-0.7,0.2c-0.2-0.2-0.4-0.3-0.6-0.3c-0.9,0-1.5,0.5-1.5,0.8
		c0,0.4,1.4,1,2.1,1c0.1,0,0.2,0,0.3-0.1c0.5-0.1,1.4-0.6,1.6-0.7c0.4-0.3,0.5-0.2,0.3,0.2C203,8.7,202.8,9.1,202.6,9.3z"/>
	<path class="st0" d="M211.5,14.9c0.1,0.2,0.1,0.3,0.1,0.3c0,0.1,0,0.2-0.1,0.3c-0.2,0.5-0.6,1.1-1,1.5c-0.2,2.8-0.5,4.9-1.8,8
		c0.4,0.9,0.6,2.2,0.6,3.3c0,0.8-0.1,1.5-0.3,2.1c-0.2,0.5-3.1,1-5,1c-0.5,0-1,0-1.3-0.1c-0.1,0-0.2-0.3-0.2-0.8
		c0-0.7,0.2-1.7,0.3-2c0-0.1,0.1-0.1,0.1-0.1c0.1,0,0.2,0,0.3,0c1.6,0,3.2-1.5,4.3-3.3c-1.3-2.5-4-5.9-6.4-7.5
		c0,0.1-0.5,0.7-0.8,0.7c-0.4,0-2.5-2-2.5-2.5c0-0.2-0.1-0.5-0.1-0.7c0-0.6,0.1-1.3,0.3-1.6c0.1-0.3,0.3-0.5,0.5-0.5
		c0.3,0,0.5,0.2,0.9,0.4c1.8,1.3,3.7,2.7,5.2,4.6c1.1,1.5,2.6,3.4,3.7,5.9c0.7-1.5,0.8-2.5,1-4.4c0.1-1.1,0.1-1.9,0.1-2.5
		c0-1.3-0.1-1.8-0.1-2.1c0-0.2,0.1-0.4,0.3-0.8c0.4-0.8,0.8-1.4,1-1.4c0.1,0,0.2,0.1,0.2,0.3C210.9,13.5,211.2,14.2,211.5,14.9z
		 M208,26.2c-0.9,1.3-1,1.5-1.9,2.3c0.9,0,1.7-0.1,2.5-0.4C208.5,27.8,208.5,27.1,208,26.2z"/>
	<path class="st0" d="M216,31.4c-0.1,0-0.2-0.2-0.2-0.8c0-3.4-1.3-13-1.3-14.5c0-0.8,0.5-2,1-2.8c0.1-0.3,0.4-0.6,0.5-0.6
		c0.1,0,0.2,0.2,0.2,0.9c0.1,2.5,0.8,8.3,0.8,12.6c0,1.7-0.1,3.1-0.4,4C216.4,31,216.2,31.4,216,31.4z"/>
	<path class="st0" d="M234.5,39.8c0.2-0.2,0.3-0.3,0.4-0.1c0.5,0.6,1.2,1.2,1.8,1.6c0.2,0.1,0.2,0.2,0,0.4c-0.5,0.6-1,1.1-1.5,1.7
		c-0.1,0.2-0.2,0.2-0.3,0c-0.4-0.3-1.1-0.8-1.6-1.4c-0.3,0.4-1,1.1-1.3,1.3c-0.1,0.1-0.2,0.2-0.4,0c-0.6-0.4-1.3-1-1.8-1.6
		c-0.1-0.1-0.1-0.2,0-0.4c0.4-0.5,1-1.2,1.6-1.8c0.1-0.1,0.2-0.1,0.4,0.1c0.4,0.5,1.2,1.2,1.6,1.4C233.5,40.8,234.2,40.1,234.5,39.8
		z"/>
	<path class="st0" d="M240.9,13.7c0.1,0.1,0.1,0.1,0,0.2c-0.3,0.4-1.2,1.4-1.6,1.9c-0.1,0.1-0.1,0.1-0.3,0c-0.5-0.3-1.7-1.2-2-1.7
		c-0.1-0.1-0.1-0.1,0-0.3c0.4-0.6,1-1.3,1.5-1.8c0.2-0.2,0.3-0.2,0.3-0.2C239.3,12.4,240.1,13.2,240.9,13.7z"/>
	<path class="st0" d="M230.5,34.3c0.8,0.3,1.6,0.4,2.4,0.4c0.9,0,1.6-0.1,2.5-0.3c2.7-0.7,5.8-2.2,6.2-2.9c-0.8-0.7-3.1-1.7-5-1.7
		c-0.4,0-0.5-0.2-0.5-0.4c0-0.4,0.3-1,0.6-1.4c0.1-0.1,0.1-0.2,0.3-0.2c3.7-0.7,3.9-2,3.9-2.2c0-0.8-0.1-1-0.3-1.8
		c-0.5,0.6-1.2,1.1-2.1,1.1c-1.1,0-2.1-0.7-2.1-1.9c0-1.8,1.7-5,2.5-5c0.9,0,1.8,0.8,2.5,2.2c0.5,1,0.8,2.5,0.8,3.5
		c0,1.8-0.8,3.5-1.8,4.8c0.7,0.2,1.2,0.5,1.6,0.7c1,0.6,1,1.2,1,1.7c0,1-0.8,2.2-1.9,3.2c-2.3,1.9-6.1,3.4-8.7,3.3
		c-0.7,0-1.6-0.1-2.4-0.4c-1.9-0.6-3.6-2-3.6-5.1c0-1.8,0.8-4.3,1.7-5.8c0.3-0.4,0.5-0.7,0.8-0.7c0.3,0,0.1,0.5-0.1,0.9
		c-0.7,1.5-1.2,2.8-1.2,3.9C227.4,32.5,228.8,33.8,230.5,34.3z M238.4,20.5c-0.2,0-0.5,0.3-0.8,0.8c0,0.1-0.1,0.2-0.1,0.3
		c0,0.5,0.5,0.7,1.1,0.8c0.6,0,1.1-0.2,1.1-0.6C239.6,20.9,238.8,20.5,238.4,20.5z"/>
	<path class="st0" d="M260,7.1c0,0.6-0.1,1.1-0.3,1.7c0.3,0.2,0.4,0.3,0.4,0.4c0,0.4-0.2,0.8-0.4,1.1c-0.1,0.1-0.1,0.1-0.1,0.1
		l-0.6-0.4c-0.6,0.9-1.5,2-2.8,2.6c-0.5,0.2-1.1,0.4-1.7,0.4c-0.3,0-0.5-0.1-0.5-0.2c0-0.2,0.2-0.2,0.6-0.4c1-0.5,2.9-2,3.5-2.9
		c-0.5-0.4-1.2-0.8-1.2-1.6c0-0.5,0.3-1,0.7-1.5c0.5-0.6,1-0.9,1.4-0.9C259.7,5.7,259.9,6.5,260,7.1z M257.9,7.6
		C257.9,7.6,257.9,7.7,257.9,7.6c0,0.2,0.5,0.6,0.9,0.7c0.1-0.2,0.1-0.4,0.1-0.7c0-0.3-0.1-0.5-0.4-0.5
		C258.3,7.1,258.1,7.3,257.9,7.6z"/>
	<path class="st0" d="M252.7,32.2c-1.1-1-1.6-2.4-1.6-3.9c0-1.7,1-3.7,1.6-4.5c0.2-0.3,0.4-0.5,0.6-0.5c0.1,0,0.1,0.1,0.1,0.2
		c0,0.2-0.1,0.4-0.2,0.6c-0.5,1-1,2.1-1,3.3c0,1,0.7,1.8,1.5,2.4c0.9,0.6,2,0.9,3.1,0.9c2.8,0,6.5-1.2,7.3-3.1c0-0.2,0-0.3,0-0.5
		c0-1.2-0.4-2.6-1-3.6c-0.3-0.4-0.5-0.8-0.5-1c0,0,0-0.1,0-0.2c0-0.2,0.1-0.5,0.2-0.9c0.2-0.5,0.3-0.9,0.5-1.2
		c0.1-0.2,0.2-0.3,0.2-0.3c0.1,0,0.1,0,0.3,0.3c0.8,1.7,1.4,3.3,1.4,5.4c0,1.6-0.2,2.6-0.4,3.1c-0.4,1-0.7,1.5-1.3,2.1
		c-0.5,0.6-1.6,1.3-2.8,1.9c-1.3,0.5-2.8,0.8-4.7,0.8C254.9,33.4,253.7,33.1,252.7,32.2z M260.2,16.4c0.1,0.1,0.1,0.1,0,0.2
		c-0.3,0.4-1.2,1.4-1.6,1.9c-0.1,0.1-0.1,0.1-0.3,0c-0.5-0.3-1.7-1.2-2-1.7c-0.1-0.1-0.1-0.1,0-0.3c0.4-0.6,1-1.3,1.5-1.8
		c0.2-0.2,0.3-0.2,0.3-0.2C258.6,15.1,259.4,15.9,260.2,16.4z"/>
	<path class="st0" d="M264.1,38.2c-0.4-0.2-0.5-0.3-0.5-0.5c0-0.1,0.2-0.2,0.4-0.2c0.3,0,1.3,0.2,2.1,0.2c0.7,0,1.4-0.2,2.4-0.7
		c2.8-1.4,4.5-3.4,4.5-4.8c0-0.2,0-0.4-0.1-0.8h-0.8c-0.6,0-1.7-0.1-2.5-0.5c-0.8-0.4-1.1-1-1.1-1.8c0-0.7,0.3-1.7,0.7-2.5
		c0.6-1.4,1.4-2.5,2.1-2.5c0.8,0,1.5,0.6,2,1.3c0.5,0.8,0.8,2.1,0.8,3.2h1.1c0.7,0,1.1,0.4,1.1,1.2c0,0.9-0.3,1.4-1,1.4l-1.2,0.1
		c-0.2,4-1.5,6.6-4.7,7.8c-0.2,0.1-0.4,0.1-0.7,0.1C267.5,39.4,265.7,38.9,264.1,38.2z M271.3,27.1c-0.2-0.1-0.3-0.3-0.6-0.3
		c-0.5,0-0.9,0.6-0.9,0.9c0,0.3,0.3,0.5,0.9,0.8c0.5,0.2,1,0.3,1.3,0.3c0.2,0,0.3,0,0.3-0.1C272.2,28.4,271.8,27.6,271.3,27.1z"/>
	<path class="st0" d="M288.8,10.6c0.1,0,0.1,0.1,0.1,0.2c0,0.4-0.6,1.6-0.8,1.9c0,0.1-0.1,0.1-0.1,0.1c-0.9,0.4-5.6,2.3-9.3,4.5
		c-0.7,0.4-1.4,0.8-1.9,1.5c0.8,0.7,1.9,1.5,2.7,2.1c2.5,2,4.2,3.4,6.3,5.4c1.8,1.8,2.9,2.5,3.4,2.5h0.3c0.7,0,1,0.4,1,1.2
		c0,0.9-0.3,1.4-1,1.4h-0.5c-0.7,0-1.5-0.4-2.5-1.1c-0.6-0.5-1.5-1.3-2.5-2.4c-1.1-1.2-2-1.9-2.5-2.3c0.1,0.5,0.1,0.9,0.1,1.3
		c0,0.8-0.1,1.5-0.4,2c-0.3,0.8-1,1.4-2.1,1.8c-1.4,0.5-2.7,0.7-4,0.7h-0.3c-0.7,0-1-0.5-1-1.4c0-0.8,0.4-1.2,1.1-1.2
		c1,0,2.4-0.1,4-0.5c1.1-0.2,1.6-0.7,1.7-1.3c-0.1-1.2-1.5-3-4.2-5.2c-0.5-0.5-0.8-1-0.8-1.6c0-2,0.3-2.7,0.6-3.1c1-1,1.9-1.6,3-2.3
		c3.8-2.3,9-4.1,9.4-4.3C288.8,10.6,288.8,10.6,288.8,10.6z"/>
	<path class="st0" d="M294.6,10.3c0.1-0.1,0.2,0,0.2,0.1c0,0.7-0.2,1.3-0.6,1.5l-4.7,2.6c-0.1,0-0.1,0-0.1-0.1
		c0-0.3,0.1-0.9,0.3-1.1c0.1-0.2,0.3-0.4,0.8-0.6L294.6,10.3z"/>
	<path class="st0" d="M293.8,29.8c-0.5,0.7-1.4,1.3-3,1.5c-0.4,0.1-1.1,0.1-1.6,0.1c-0.7,0-1.1-0.6-1.1-1.3c0-0.7,0.4-1.3,1.1-1.3
		h0.6c1.2,0,3,0,3.7-0.7c-0.1-1-0.9-2.3-1.2-2.8c0,0,0,0,0-0.1c0-0.4,0.8-2.1,0.8-2.2c0-0.1,0.1-0.1,0.1-0.1c0.4,0,1.3,1.8,1.3,4
		C294.5,27.9,294.4,28.9,293.8,29.8z M293.7,16.7c0.2-0.2,0.3-0.3,0.4-0.1c0.5,0.6,1.2,1.2,1.8,1.6c0.2,0.1,0.2,0.2,0,0.4
		c-0.5,0.6-1,1.1-1.5,1.7c-0.1,0.2-0.2,0.2-0.3,0c-0.4-0.3-1.1-0.8-1.6-1.4c-0.3,0.4-1,1.1-1.3,1.3c-0.1,0.1-0.2,0.2-0.4,0
		c-0.6-0.4-1.3-1-1.8-1.6c-0.1-0.1-0.1-0.2,0-0.4c0.4-0.5,1-1.2,1.6-1.8c0.1-0.1,0.2-0.1,0.4,0.1c0.4,0.5,1.2,1.2,1.6,1.4
		C292.8,17.7,293.4,17,293.7,16.7z"/>
	<path class="st0" d="M307.8,25.5c0,0,0,0.3,0,0.3c0,0.3-0.3,1.3-0.4,1.4c-0.2,0.1-4.3,0.2-4.9,0.2c0,0,0-0.2,0-0.3
		c0-0.4,0.2-1.4,0.3-1.4C304,25.6,307.2,25.6,307.8,25.5z"/>
	<path class="st0" d="M317.7,27.4c0,0-0.1,0-0.1,0.1c0,1.5,0,2.9,0,4.4c-0.8,0-2.1,0.2-2.7,0.3c0-1.5,0-3.1,0.1-4.7
		c0,0-0.1-0.1-0.1-0.1h-3.3h-2.6c0-0.1,0-0.7,0.1-0.9c1.5-2.2,6-8.3,6.8-9.3c0.3-0.1,1.3-0.2,1.6-0.2c0,1.6,0,7.1,0,8.8
		c0,0,0,0.1,0.1,0.1c1.1,0,2,0,2.6-0.1c-0.1,0.5-0.3,1.2-0.3,1.6C319.3,27.4,318.5,27.4,317.7,27.4z M313,25.9h1.8
		c0,0,0.1-0.1,0.1-0.1l0.1-5.9c0,0-0.1,0-0.1,0c-0.6,0.7-3.4,4.8-4,5.9c0,0,0,0.1,0,0.1C311.4,25.9,312.3,25.9,313,25.9z"/>
</g>
</svg>
