<?xml version="1.0" encoding="utf-8"?>
<!-- Generator: Adobe Illustrator 19.2.0, SVG Export Plug-In . SVG Version: 6.00 Build 0)  -->
<svg version="1.1" id="Layer_1" xmlns="http://www.w3.org/2000/svg" xmlns:xlink="http://www.w3.org/1999/xlink" x="0px" y="0px"
	 viewBox="0 0 237.5 38.7" style="enable-background:new 0 0 237.5 38.7;" xml:space="preserve">
<style type="text/css">
	.st0{fill:#FFFFFF;}
</style>
<g>
	<path class="st0" d="M2.7,23.1c0.4,0.4,0.5,0.9,0.5,1.3c0,0.3-0.1,0.8-0.4,1.1C2.4,25.8,2,26,1.5,26c-0.3,0-0.7-0.2-1-0.4
		C0.1,25.3,0,24.8,0,24.3c0-0.4,0.2-0.8,0.5-1.2c0.3-0.3,0.7-0.5,1.1-0.5S2.4,22.9,2.7,23.1z"/>
	<path class="st0" d="M14.4,17.5c0,1.3-0.2,2.2-0.5,3.1c2.4-2,4.7-3.4,5.9-3.4c0.6,0,1.4,0.2,2.1,0.5c1.1,0.5,1.5,1.1,1.5,1.7
		c0,1-0.9,3.2-1.9,4c0.7-0.2,1.5-0.3,2.7-0.3h0.4c0.8,0,1.2,0.4,1.2,1.3c0,0.9-0.4,1.3-1.2,1.3h-0.4c-0.9,0-1.8,0-2.7,0
		c-2.7,0-5.2,0-7.6,0.1c-1.1,0.1-2.1,0.2-3,0.2c-0.3,0-0.6,0-0.8,0c-0.7,0-3.4-1.1-4.7-2.2c-0.1-0.1-0.2-0.3-0.2-0.4
		c0-0.1,0-0.2,0.2-0.2c0.5,0,2.7,0.4,4.1,0.4c0.4,0,0.7,0,1.1-0.1c0.5-0.5,1.1-1.1,2.7-2.4c0-0.5,0-0.9,0-1.3c0-3.1-0.6-7-0.8-8.2
		c0-0.5-0.4-1.5-0.4-1.9c0-0.1,0-0.2,0-0.3c0,0,0-0.1,0-0.2c0-0.1,0.1-0.4,0.4-1C12.7,7.6,13.1,7,13.3,7c0.1,0,0.1,0.1,0.2,0.2
		c0.3,1.1,0.6,1.6,0.9,2c0,0.1,0.1,0.2,0.1,0.2s0,0.1,0,0.2C14.3,10,14,10.7,13.8,11C14,13.2,14.4,15.7,14.4,17.5z M18.3,19.7
		c-1.6,0-4.2,1.8-6.3,3.7c4-0.3,8.2-1.3,9.8-2.4C21.5,20.4,19.4,19.7,18.3,19.7z"/>
	<path class="st0" d="M33.4,23.1c0.8,0,1.1,0.4,1.1,1.3c0,0.9-0.4,1.3-1.1,1.3h-0.3c-2.5,0-3.9-0.5-5-1.1c-0.9,0.6-2.2,1.1-3.7,1.1
		h-0.3c-0.7,0-1.1-0.5-1.1-1.4c0-0.8,0.4-1.3,1.1-1.3h0.3c1,0,1.7-0.1,2-0.4c-0.1-0.3-0.1-0.6-0.1-0.9c0-2.6,2.9-5.9,4.6-5.9
		c1,0,1.5,1.1,1.5,2.5c0,1.4-0.5,3.2-1.7,4.3c0.5,0.3,1.3,0.4,2.5,0.4H33.4z M30.4,9.4c0.2-0.2,0.3-0.3,0.4-0.1
		c0.5,0.6,1.2,1.2,1.8,1.6c0.2,0.1,0.2,0.2,0,0.4c-0.5,0.6-1,1.1-1.5,1.7c-0.1,0.2-0.2,0.2-0.3,0c-0.4-0.3-1.1-0.8-1.6-1.4
		c-0.3,0.4-1,1.1-1.3,1.3c-0.1,0.1-0.2,0.2-0.4,0c-0.6-0.4-1.3-1-1.8-1.6c-0.1-0.1-0.1-0.2,0-0.4c0.4-0.5,1-1.2,1.6-1.8
		c0.1-0.1,0.2-0.1,0.4,0.1c0.4,0.5,1.2,1.2,1.6,1.4C29.5,10.4,30.2,9.7,30.4,9.4z M29.7,18.6c-1,0-1.9,1-1.9,1.4
		c0,0.6,0.4,1,1.4,1.6c0.3-0.1,1.6-1.1,1.6-1.5C30.9,19.1,30.6,18.6,29.7,18.6z"/>
	<path class="st0" d="M39.7,19.8c0,1.4-0.4,3.3-1.1,4.3c-0.2,0.4-1.1,0.8-1.6,1c-1.6,0.5-2.8,0.7-3.8,0.7H33c-0.7,0-1.1-0.5-1.1-1.4
		c0-0.8,0.4-1.3,1.1-1.3h0.2c1.5,0,3.2-0.2,4.2-0.6c0.9-0.3,1-0.4,1-1.2c0-0.5-0.1-1-0.4-1.5C37.8,20.5,37,21,36,21
		c-1.2,0-2-0.8-2-2.2c0-2.1,1.5-4.7,2.3-4.7C38.4,14,39.7,17.9,39.7,19.8z M38,8.4c0.1,0.1,0.1,0.1,0,0.2c-0.3,0.4-1.2,1.4-1.6,1.9
		c-0.1,0.1-0.1,0.1-0.3,0c-0.5-0.3-1.7-1.2-2-1.7c-0.1-0.1-0.1-0.1,0-0.3c0.4-0.6,1-1.3,1.5-1.8c0.2-0.2,0.3-0.2,0.3-0.2
		C36.4,7.1,37.3,7.9,38,8.4z M36.8,16.9c-0.2-0.2-0.6-0.3-0.8-0.3c-0.2,0-0.4,0.2-0.6,0.5c-0.2,0.3-0.2,0.5-0.2,0.6
		c0,0.5,0.6,0.7,1.1,0.7c0.5,0,1.1-0.2,1.1-0.6C37.3,17.7,37.1,17.1,36.8,16.9z"/>
	<path class="st0" d="M53.6,26.8c0.1-0.1,0.2,0,0.2,0.1c0,0.7-0.2,1.3-0.6,1.5L48.4,31c-0.1,0-0.1,0-0.1-0.1c0-0.3,0.1-0.9,0.3-1.1
		c0.1-0.2,0.3-0.4,0.8-0.6L53.6,26.8z"/>
	<path class="st0" d="M52.3,8.4c0.2-0.2,0.3-0.3,0.4-0.1c0.5,0.6,1.2,1.2,1.8,1.6c0.2,0.1,0.2,0.2,0,0.4c-0.5,0.6-1,1.1-1.5,1.7
		c-0.1,0.2-0.2,0.2-0.3,0c-0.4-0.3-1.1-0.8-1.6-1.4c-0.3,0.4-1,1.1-1.3,1.3c-0.1,0.1-0.2,0.2-0.4,0c-0.6-0.4-1.3-1-1.8-1.6
		c-0.1-0.1-0.1-0.2,0-0.4c0.4-0.5,1-1.2,1.6-1.8c0.1-0.1,0.2-0.1,0.4,0.1c0.4,0.5,1.2,1.2,1.6,1.4C51.4,9.4,52,8.7,52.3,8.4z
		 M55.7,22.6c0.5,0.4,1,0.5,1.4,0.5h0.4c0.8,0,1.2,0.4,1.2,1.2c0,0.9-0.4,1.4-1.3,1.4H57c-0.9,0-1.8-0.3-2.6-1
		c-0.8-0.7-1.3-1.8-1.6-3.5c-0.3,0.4-0.5,0.8-1,1.2c-0.7,0.5-1.8,0.7-3,0.7c-0.8,0-1.6-0.1-1.6-0.8c0.4-2.6,0.7-2.9,1.9-3.9
		c0.5-0.4,2.1-1.3,2.7-1.8c0-0.2,0-0.4,0-0.6c0-0.6,0.2-0.9,0.4-1.4c0.2-0.3,0.3-0.6,0.5-0.6c0.1,0,0.2,0.2,0.3,0.6
		c0.4,2.3,0.6,4.3,0.9,5.5C54.2,21.1,54.8,22,55.7,22.6z M52.2,17.9c-1.1,0.7-2.9,1.8-3,2.1c0,0.2,0.3,0.3,0.8,0.3
		c0.7,0,1.7-0.2,2.5-0.6C52.5,19.1,52.4,18.8,52.2,17.9z"/>
	<path class="st0" d="M64.6,12.4c0.1-0.1,0.2,0,0.2,0.1c0,0.7-0.2,1.3-0.6,1.5l-4.7,2.6c-0.1,0-0.1,0-0.1-0.1c0-0.3,0.1-0.9,0.3-1.1
		c0.1-0.2,0.3-0.4,0.8-0.6L64.6,12.4z"/>
	<path class="st0" d="M71.1,27.5c0.1-0.1,0.2,0,0.2,0.1c0,0.7-0.2,1.3-0.6,1.5L66,31.7c-0.1,0-0.1,0-0.1-0.1c0-0.3,0.1-0.9,0.3-1.1
		c0.1-0.2,0.3-0.4,0.8-0.6L71.1,27.5z"/>
	<path class="st0" d="M75.7,3.4c0.1-0.1,0.2,0,0.2,0.1c0,0.7-0.2,1.3-0.6,1.5l-4.7,2.6c-0.1,0-0.1,0-0.1-0.1c0-0.3,0.1-0.9,0.3-1.1
		c0.1-0.2,0.3-0.4,0.8-0.6L75.7,3.4z"/>
	<path class="st0" d="M69.1,13.8c0.2-0.6,0.6-1.2,1.3-1.8c1.1-0.9,2.8-2,4.9-3.2c2.1-1.2,3.8-2.1,5-2.5c0.3-0.1,0.4-0.1,0.4,0
		c0,0.3-0.3,1-1,2.2c-0.1,0.1-0.1,0.2-0.3,0.3c-1.1,0.5-2.7,1.3-4.7,2.6c-2.1,1.3-3.7,2.3-4.7,3.1c1.8,0.8,3.3,1.7,4.4,2.5
		c1.1,0.9,2.3,1.9,3.6,3.2c1.3,1.2,2.3,2,2.8,2.4c0.5,0.3,1,0.5,1.2,0.5h0.3c1.3,0,1.3,2.6,0,2.6h-0.4c-0.5,0-1.2-0.3-2.1-0.9
		c-1-0.6-2-1.5-3-2.6l-0.3-0.3l-0.3-0.3c-0.1,1-0.4,1.8-0.8,2.5c-0.8,1.2-2.4,1.6-3.8,1.6c-0.7,0-1.3-0.1-1.8-0.4
		c-0.6-0.4-1.1-1-1.5-1.9c-0.1-0.3-0.2-0.9-0.3-1.6c-0.2-1.3-0.3-2.4-0.4-3.7c-0.5,1.6-1.2,2.7-1.9,3.2c0.2,0.5,0.3,1,0.3,1.6
		c0,0.5-0.2,1-0.6,1.7c-0.4,0.7-0.8,1-1.3,1c-0.5,0-1.2-0.2-1.9-0.5c-0.7-0.4-1.3-0.9-1.7-1.5c-0.8,1.4-2,2.1-3.3,2.1h-0.3
		c-0.7,0-1.1-0.5-1.1-1.4c0-0.8,0.3-1.3,1-1.3h0.4c1.2,0,2-0.1,2.6-0.4c0.5-0.3,1-0.7,1.4-1.4c0.5-0.7,0.8-1.2,1.1-1.5
		c0,0,0.1-0.1,0.2-0.1c1.2-0.2,2.5-0.7,3.5-1.5c0.9-0.8,1.4-1.6,1.4-2.5l-0.5-6.5c0-0.1,0-0.2,0-0.2c0.2-0.8,0.9-2.2,1.2-2.3
		c0.2,0,0.3,0.9,0.3,1c0.1,0.7,0.1,1.8,0.2,3c0.1,0.8,0.1,2.3,0.2,4L69.1,13.8z M61.9,21.8c0.2,0.3,0.6,0.6,1.2,0.9
		c0.6,0.3,1,0.4,1.3,0.4c-0.1-0.5-0.3-1-0.5-1.3c-0.3-0.4-0.6-0.5-1-0.5C62.3,21.3,62,21.5,61.9,21.8z M71.1,23
		c0.2,0,0.4,0.1,0.6,0.1c0.5,0,1.1-0.1,1.8-0.3c0.6-0.2,1.1-0.4,1.5-0.7c0,0,0.1-0.1,0.1-0.1c0-0.6-0.5-1.3-1.4-2.1
		c-1-0.8-2.3-1.6-3.8-2.4c-0.3-0.1-0.5-0.3-0.8-0.6c0.2,1.8,0.4,3.5,0.7,4.5C69.7,21.6,70.1,22.7,71.1,23z"/>
	<path class="st0" d="M84.8,24.5c-0.6,0.8-1.3,1.2-2.6,1.2h-0.3c-0.8,0-1.1-0.5-1.1-1.4c0-0.8,0.4-1.2,1.1-1.2h0.3
		c0.6,0,1.2-0.1,1.7-0.3c0.4-0.1,0.7-0.3,0.8-0.5c0-2-0.7-6.1-1.1-10.2c0-0.5-0.3-1.9-0.4-2.4c0-0.1,0-0.2,0-0.3
		c0-0.3,0.4-1.1,0.6-1.5c0.3-0.6,0.6-1,0.8-1c0.1,0,0.1,0.1,0.2,0.2c0.3,1.1,0.7,1.7,0.9,2.1c0.1,0.1,0.1,0.2,0.1,0.3
		c0,0,0,0.1,0,0.2c-0.1,0.3-0.4,0.9-0.6,1.2c0.2,3.9,0.8,7.1,0.8,8.9C85.9,21.8,85.5,23.4,84.8,24.5z"/>
	<path class="st0" d="M91.2,25.7c-0.1,0-0.2-0.2-0.2-0.8c0-3.4-1.3-13-1.3-14.5c0-0.8,0.5-2,1-2.8C90.9,7.3,91.1,7,91.3,7
		c0.1,0,0.2,0.2,0.2,0.9c0.1,2.5,0.8,8.3,0.8,12.6c0,1.7-0.1,3.1-0.4,4C91.6,25.3,91.4,25.7,91.2,25.7z"/>
	<path class="st0" d="M109.2,34.5c0.1-0.1,0.2,0,0.2,0.1c0,0.7-0.2,1.3-0.6,1.5l-4.7,2.6c-0.1,0-0.1,0-0.1-0.1
		c0-0.3,0.1-0.9,0.3-1.1c0.1-0.2,0.3-0.4,0.8-0.6L109.2,34.5z"/>
	<path class="st0" d="M111.8,23.1c0.8,0,1.3,0.4,1.3,1.3c0,0.9-0.4,1.3-1.3,1.3h-0.3c-0.7,0-1.2,0-1.5-0.1c0,0.1,0,0.3,0,0.4
		c0,0.8-0.1,1.7-0.4,2.4c-0.6,1.4-1.5,3.8-4.1,5c-0.5,0.2-0.9,0.3-1.4,0.3c-1,0-2.7-0.6-4-1.2c-0.4-0.2-0.5-0.3-0.5-0.5
		c0-0.2,0.2-0.2,0.4-0.2c0.3,0,0.9,0.1,1.5,0.1c3.6,0,7.1-3.1,7.6-5.7c0-0.6-1.2-1.8-1.5-2.2c0-0.1-0.1-0.2-0.1-0.3
		c0-0.6,0.4-1.8,0.7-2.1c0.1-0.2,0.2-0.3,0.3-0.3c0.2,0,0.4,0.2,0.7,0.8c0.4,0.7,1,1,2.1,1H111.8z"/>
	<path class="st0" d="M123.5,25.7c0.1-0.1,0.2,0,0.2,0.1c0,0.7-0.2,1.3-0.6,1.5l-4.7,2.6c-0.1,0-0.1,0-0.1-0.1
		c0-0.3,0.1-0.9,0.3-1.1c0.1-0.2,0.3-0.4,0.8-0.6L123.5,25.7z"/>
	<path class="st0" d="M115,19.6c-0.3,0-0.5,0-0.7,0.1c-0.2,0.1-0.7,0.3-0.9,0.3c-0.2,0-0.2-0.1-0.2-0.3c0-0.5,0.7-1.5,1.4-2.1
		c0.6-0.5,1.1-0.7,1.6-0.7c0.2,0,0.4,0,0.5,0.1c2.1,0.5,4.7,1.6,6.8,2c1.4,0.3,2.9,0.4,3.9,0.4c0.2,0,0.4,0,0.5,0
		c0.1,0,0.1,0,0.1,0.1c0,0.4-0.8,1.7-1.3,2.2c-0.1,0.1-0.3,0.1-0.6,0.1c-0.5,0-1.9-0.1-2.2-0.1c-1,0-1.8,0.1-2.5,0.3
		c-0.5,0.2-1.4,0.5-2.6,1.1c-1.9,1-3.3,1.6-4.1,1.9c-0.9,0.3-1.8,0.5-2.8,0.5h-0.3c-0.8,0-1.3-0.5-1.3-1.4c0-0.8,0.4-1.2,1.3-1.2
		h0.3c1.6,0,2.9-0.2,3.9-0.5c1.1-0.3,2.6-0.8,4.6-1.7C118,20.3,116.2,19.6,115,19.6z M122.7,12.8c0.1,0.1,0.1,0.1,0,0.2
		c-0.3,0.4-1.2,1.4-1.6,1.9c-0.1,0.1-0.1,0.1-0.3,0c-0.5-0.3-1.7-1.2-2-1.7c-0.1-0.1-0.1-0.1,0-0.3c0.4-0.6,1-1.3,1.5-1.8
		c0.2-0.2,0.3-0.2,0.3-0.2C121.1,11.6,121.9,12.3,122.7,12.8z"/>
	<path class="st0" d="M129.3,6.7c-0.1,0.1-0.2,0.2-0.3,0.2c-0.2,0-0.1-0.2-0.1-0.3c0.2-0.8,0.6-1.4,1.1-2c0.5-0.6,1.2-0.9,2-0.9
		c0.4,0,1,0.1,1.8,0.3c0.9,0.2,1.1,0.3,1.4,0.3c0.4,0,0.8-0.1,1.1-0.4c0.3-0.3,0.5-0.5,0.6-0.7C137,3,137.1,3,137.2,3
		c0.2,0,0.1,0.2,0.1,0.3c-0.8,1.8-1.8,2.6-3.2,2.6c-0.3,0-0.8-0.1-1.5-0.3c-0.5-0.1-0.8-0.2-1.2-0.2C130.8,5.4,130,5.7,129.3,6.7z
		 M133.6,25.7c-0.1,0-0.2-0.2-0.2-0.8c0-3.4-1.3-13-1.3-14.5c0-0.8,0.5-2,1-2.8c0.1-0.3,0.4-0.6,0.5-0.6c0.1,0,0.2,0.2,0.2,0.9
		c0.1,2.5,0.8,8.3,0.8,12.6c0,1.7-0.1,3.1-0.4,4C134,25.3,133.8,25.7,133.6,25.7z"/>
	<path class="st0" d="M152.7,34.1c0.2-0.2,0.3-0.3,0.4-0.1c0.5,0.6,1.2,1.2,1.8,1.6c0.2,0.1,0.2,0.2,0,0.4c-0.5,0.6-1,1.1-1.5,1.7
		c-0.1,0.2-0.2,0.2-0.3,0c-0.4-0.3-1.1-0.8-1.6-1.4c-0.3,0.4-1,1.1-1.3,1.3c-0.1,0.1-0.2,0.2-0.4,0c-0.6-0.4-1.3-1-1.8-1.6
		c-0.1-0.1-0.1-0.2,0-0.4c0.4-0.5,1-1.2,1.6-1.8c0.1-0.1,0.2-0.1,0.4,0.1c0.4,0.5,1.2,1.2,1.6,1.4C151.8,35.1,152.4,34.4,152.7,34.1
		z"/>
	<path class="st0" d="M159.2,8c0.1,0.1,0.1,0.1,0,0.2c-0.3,0.4-1.2,1.4-1.6,1.9c-0.1,0.1-0.1,0.1-0.3,0c-0.5-0.3-1.7-1.2-2-1.7
		c-0.1-0.1-0.1-0.1,0-0.3c0.4-0.6,1-1.3,1.5-1.8c0.2-0.2,0.3-0.2,0.3-0.2C157.5,6.8,158.4,7.5,159.2,8z"/>
	<path class="st0" d="M148.8,28.7c0.8,0.3,1.6,0.4,2.4,0.4c0.9,0,1.6-0.1,2.5-0.3c2.7-0.7,5.8-2.2,6.2-2.9c-0.8-0.7-3.1-1.7-5-1.7
		c-0.4,0-0.5-0.2-0.5-0.4c0-0.4,0.3-1,0.6-1.4c0.1-0.1,0.1-0.2,0.3-0.2c3.7-0.7,3.9-2,3.9-2.2c0-0.8-0.1-1-0.3-1.8
		c-0.5,0.6-1.2,1.1-2.1,1.1c-1.1,0-2.1-0.7-2.1-1.9c0-1.8,1.7-5,2.5-5c0.9,0,1.8,0.8,2.5,2.2c0.5,1,0.8,2.5,0.8,3.5
		c0,1.8-0.8,3.5-1.8,4.8c0.7,0.2,1.2,0.5,1.6,0.7c1,0.6,1,1.2,1,1.7c0,1-0.8,2.2-1.9,3.2c-2.3,1.9-6.1,3.4-8.7,3.3
		c-0.7,0-1.6-0.1-2.4-0.4c-1.9-0.6-3.6-2-3.6-5.1c0-1.8,0.8-4.3,1.7-5.8c0.3-0.4,0.5-0.7,0.8-0.7c0.3,0,0.1,0.5-0.1,0.9
		c-0.7,1.5-1.2,2.8-1.2,3.9C145.6,26.8,147,28.1,148.8,28.7z M156.7,14.8c-0.2,0-0.5,0.3-0.8,0.8c0,0.1-0.1,0.2-0.1,0.3
		c0,0.5,0.5,0.7,1.1,0.8c0.6,0,1.1-0.2,1.1-0.6C157.9,15.2,157.1,14.8,156.7,14.8z"/>
	<path class="st0" d="M178.2,1.4c0,0.6-0.1,1.1-0.3,1.7c0.3,0.2,0.4,0.3,0.4,0.4c0,0.4-0.2,0.8-0.4,1.1c-0.1,0.1-0.1,0.1-0.1,0.1
		l-0.6-0.4c-0.6,0.9-1.5,2-2.8,2.6c-0.5,0.2-1.1,0.4-1.7,0.4c-0.3,0-0.5-0.1-0.5-0.2c0-0.2,0.2-0.2,0.6-0.4c1-0.5,2.9-2,3.5-2.9
		c-0.5-0.4-1.2-0.8-1.2-1.6c0-0.5,0.3-1,0.7-1.5c0.5-0.6,1-0.9,1.4-0.9C178,0,178.2,0.8,178.2,1.4z M176.2,1.9
		C176.2,2,176.1,2,176.2,1.9c0,0.2,0.5,0.6,0.9,0.8c0.1-0.2,0.1-0.4,0.1-0.8c0-0.3-0.1-0.5-0.4-0.5C176.6,1.4,176.3,1.6,176.2,1.9z"
		/>
	<path class="st0" d="M171,26.5c-1.1-1-1.6-2.4-1.6-3.9c0-1.7,1-3.7,1.6-4.5c0.2-0.3,0.4-0.5,0.6-0.5c0.1,0,0.1,0.1,0.1,0.2
		c0,0.2-0.1,0.4-0.2,0.6c-0.5,1-1,2.1-1,3.3c0,1,0.7,1.8,1.5,2.4c0.9,0.6,2,0.9,3.1,0.9c2.8,0,6.5-1.2,7.3-3.1c0-0.2,0-0.3,0-0.5
		c0-1.2-0.4-2.6-1-3.6c-0.3-0.4-0.5-0.8-0.5-1c0,0,0-0.1,0-0.2c0-0.2,0.1-0.5,0.2-0.9c0.2-0.5,0.3-0.9,0.5-1.2
		c0.1-0.2,0.2-0.3,0.2-0.3c0.1,0,0.1,0,0.3,0.3c0.8,1.7,1.4,3.3,1.4,5.4c0,1.6-0.2,2.6-0.4,3.1c-0.4,1-0.7,1.5-1.3,2.1
		c-0.5,0.6-1.6,1.3-2.8,1.9c-1.3,0.5-2.8,0.8-4.7,0.8C173.2,27.7,172,27.4,171,26.5z M178.5,10.7c0.1,0.1,0.1,0.1,0,0.2
		c-0.3,0.4-1.2,1.4-1.6,1.9c-0.1,0.1-0.1,0.1-0.3,0c-0.5-0.3-1.7-1.2-2-1.7c-0.1-0.1-0.1-0.1,0-0.3c0.4-0.6,1-1.3,1.5-1.8
		c0.2-0.2,0.3-0.2,0.3-0.2C176.8,9.5,177.7,10.2,178.5,10.7z"/>
	<path class="st0" d="M182.4,32.5c-0.4-0.2-0.5-0.3-0.5-0.5c0-0.1,0.2-0.2,0.4-0.2c0.3,0,1.3,0.2,2.1,0.2c0.7,0,1.4-0.2,2.4-0.7
		c2.8-1.4,4.5-3.4,4.5-4.8c0-0.2,0-0.4-0.1-0.8h-0.8c-0.6,0-1.7-0.1-2.5-0.5c-0.8-0.4-1.1-1-1.1-1.8c0-0.7,0.3-1.7,0.7-2.5
		c0.6-1.4,1.4-2.5,2.1-2.5c0.8,0,1.5,0.6,2,1.3c0.5,0.8,0.8,2.1,0.8,3.2h1.1c0.7,0,1.1,0.4,1.1,1.2c0,0.9-0.3,1.4-1,1.4l-1.2,0.1
		c-0.2,4-1.5,6.6-4.7,7.8c-0.2,0.1-0.4,0.1-0.7,0.1C185.8,33.7,183.9,33.2,182.4,32.5z M189.5,21.5c-0.2-0.1-0.3-0.3-0.6-0.3
		c-0.5,0-0.9,0.6-0.9,0.9c0,0.3,0.3,0.5,0.9,0.8c0.5,0.2,1,0.3,1.3,0.3c0.2,0,0.3,0,0.3-0.1C190.5,22.8,190,21.9,189.5,21.5z"/>
	<path class="st0" d="M207.1,4.9c0.1,0,0.1,0.1,0.1,0.2c0,0.4-0.6,1.6-0.8,1.9c0,0.1-0.1,0.1-0.1,0.1c-0.9,0.4-5.6,2.3-9.3,4.5
		c-0.7,0.4-1.4,0.8-1.9,1.5c0.8,0.7,1.9,1.5,2.7,2.1c2.5,2,4.2,3.4,6.3,5.4c1.8,1.8,2.9,2.5,3.4,2.5h0.3c0.7,0,1,0.4,1,1.2
		c0,0.9-0.3,1.4-1,1.4h-0.5c-0.7,0-1.5-0.4-2.5-1.1c-0.6-0.5-1.5-1.3-2.5-2.4c-1.1-1.2-2-1.9-2.5-2.3c0.1,0.5,0.1,0.9,0.1,1.3
		c0,0.8-0.1,1.5-0.4,2c-0.3,0.8-1,1.4-2.1,1.8c-1.4,0.5-2.7,0.7-4,0.7h-0.3c-0.7,0-1-0.5-1-1.4c0-0.8,0.4-1.2,1.1-1.2
		c1,0,2.4-0.1,4-0.5c1.1-0.2,1.6-0.7,1.7-1.3c-0.1-1.2-1.5-3-4.2-5.2c-0.5-0.5-0.8-1-0.8-1.6c0-2,0.3-2.7,0.6-3.1c1-1,1.9-1.6,3-2.3
		c3.8-2.3,9-4.1,9.4-4.3C207,4.9,207.1,4.9,207.1,4.9z"/>
	<path class="st0" d="M212.9,4.6c0.1-0.1,0.2,0,0.2,0.1c0,0.7-0.2,1.3-0.6,1.5l-4.7,2.6c-0.1,0-0.1,0-0.1-0.1c0-0.3,0.1-0.9,0.3-1.1
		c0.1-0.2,0.3-0.4,0.8-0.6L212.9,4.6z"/>
	<path class="st0" d="M212,24.1c-0.5,0.7-1.4,1.3-3,1.5c-0.4,0.1-1.1,0.1-1.6,0.1c-0.7,0-1.1-0.6-1.1-1.3c0-0.7,0.4-1.3,1.1-1.3h0.6
		c1.2,0,3,0,3.7-0.7c-0.1-1-0.9-2.3-1.2-2.8c0,0,0,0,0-0.1c0-0.4,0.8-2.1,0.8-2.2c0-0.1,0.1-0.1,0.1-0.1c0.4,0,1.3,1.8,1.3,4
		C212.8,22.2,212.7,23.3,212,24.1z M211.9,11c0.2-0.2,0.3-0.3,0.4-0.1c0.5,0.6,1.2,1.2,1.8,1.6c0.2,0.1,0.2,0.2,0,0.4
		c-0.5,0.6-1,1.1-1.5,1.7c-0.1,0.2-0.2,0.2-0.3,0c-0.4-0.3-1.1-0.8-1.6-1.4c-0.3,0.4-1,1.1-1.3,1.3c-0.1,0.1-0.2,0.2-0.4,0
		c-0.6-0.4-1.3-1-1.8-1.6c-0.1-0.1-0.1-0.2,0-0.4c0.4-0.5,1-1.2,1.6-1.8c0.1-0.1,0.2-0.1,0.4,0.1c0.4,0.5,1.2,1.2,1.6,1.4
		C211,12,211.7,11.3,211.9,11z"/>
	<path class="st0" d="M226.1,19.8c0,0,0,0.3,0,0.3c0,0.3-0.3,1.3-0.4,1.4c-0.2,0.1-4.3,0.2-4.9,0.2c0,0,0-0.2,0-0.3
		c0-0.4,0.2-1.4,0.3-1.4C222.3,20,225.4,19.9,226.1,19.8z"/>
	<path class="st0" d="M236.5,11.5c0,0.3-0.5,1.4-1.1,2c-0.3,0.3-0.7,0.5-1,0.5c-1.3,0-2.4-0.1-2.7-0.1c-0.1,0-0.3,0.1-0.3,0.2
		c-0.2,0.4-0.5,1.1-0.6,1.5c0,0.1,0.1,0.3,0.1,0.3c1,0.5,3.3,1.5,4.5,2.3c1.5,0.9,2.2,1.9,2.2,3.6c0,3.1-3.3,5.1-5.9,5.1
		c-1.7,0-2.7-0.6-3.2-1.2c-0.2-0.2-0.3-0.5-0.3-0.8c0-0.3,0.3-1.1,0.5-1.4c0,0,0.3-0.1,0.3-0.1c0.8,1.2,2.1,2.4,4,2.4
		c1.4,0,2.3-1,2.3-2.4c0-1.3-0.4-2.1-1.9-3.2c-1.3-0.9-3.4-1.8-4-2.2c0-0.1-0.1-0.6,0-0.8c0.4-1.4,1.7-4.4,2.3-5.3
		c0.2-0.2,0.4-0.3,0.6-0.3c0.4,0,1.7,0.2,2.8,0.2c0.7,0,0.9-0.1,1.3-0.4C236.2,11.2,236.5,11.3,236.5,11.5z"/>
</g>
</svg>
