<?xml version="1.0" encoding="utf-8"?>
<!-- Generator: Adobe Illustrator 19.2.0, SVG Export Plug-In . SVG Version: 6.00 Build 0)  -->
<svg version="1.1" id="Layer_1" xmlns="http://www.w3.org/2000/svg" xmlns:xlink="http://www.w3.org/1999/xlink" x="0px" y="0px"
	 viewBox="0 0 255.3 38.7" style="enable-background:new 0 0 255.3 38.7;" xml:space="preserve">
<style type="text/css">
	.st0{fill:#FFFFFF;}
</style>
<g>
	<path class="st0" d="M2.7,23.1c0.4,0.4,0.5,0.9,0.5,1.3c0,0.3-0.1,0.8-0.4,1.1C2.4,25.8,2,26,1.5,26c-0.3,0-0.7-0.2-1-0.4
		C0.1,25.3,0,24.8,0,24.3c0-0.4,0.2-0.8,0.5-1.2c0.3-0.3,0.7-0.5,1.1-0.5S2.4,22.9,2.7,23.1z"/>
	<path class="st0" d="M9.8,8.4C10,8.2,10,8.1,10.2,8.3c0.5,0.6,1.2,1.2,1.8,1.6c0.2,0.1,0.2,0.2,0,0.4c-0.5,0.6-1,1.1-1.5,1.7
		c-0.1,0.2-0.2,0.2-0.3,0c-0.4-0.3-1.1-0.8-1.6-1.4c-0.3,0.4-1,1.1-1.3,1.3c-0.1,0.1-0.2,0.2-0.4,0c-0.6-0.4-1.3-1-1.8-1.6
		c-0.1-0.1-0.1-0.2,0-0.4c0.4-0.5,1-1.2,1.6-1.8c0.1-0.1,0.2-0.1,0.4,0.1c0.4,0.5,1.2,1.2,1.6,1.4C8.9,9.4,9.5,8.7,9.8,8.4z
		 M13.2,22.6c0.5,0.4,1,0.5,1.4,0.5h0.4c0.8,0,1.2,0.4,1.2,1.2c0,0.9-0.4,1.4-1.3,1.4h-0.4c-0.9,0-1.8-0.3-2.6-1
		c-0.8-0.7-1.3-1.8-1.6-3.5c-0.3,0.4-0.5,0.8-1,1.2c-0.7,0.5-1.8,0.7-3,0.7c-0.8,0-1.6-0.1-1.6-0.8c0.4-2.6,0.7-2.9,1.9-3.9
		C7.3,18,8.8,17,9.4,16.6c0-0.2,0-0.4,0-0.6c0-0.6,0.2-0.9,0.4-1.4c0.2-0.3,0.3-0.6,0.5-0.6c0.1,0,0.2,0.2,0.3,0.6
		c0.4,2.3,0.6,4.3,0.9,5.5C11.7,21.1,12.3,22,13.2,22.6z M9.7,17.9c-1.1,0.7-2.9,1.8-3,2.1c0,0.2,0.3,0.3,0.8,0.3
		c0.7,0,1.7-0.2,2.5-0.6C10,19.1,9.9,18.8,9.7,17.9z"/>
	<path class="st0" d="M22.1,12.4c0.1-0.1,0.2,0,0.2,0.1c0,0.7-0.2,1.3-0.6,1.5l-4.7,2.6c-0.1,0-0.1,0-0.1-0.1c0-0.3,0.1-0.9,0.3-1.1
		c0.1-0.2,0.3-0.4,0.8-0.6L22.1,12.4z"/>
	<path class="st0" d="M28.6,27.5c0.1-0.1,0.2,0,0.2,0.1c0,0.7-0.2,1.3-0.6,1.5l-4.7,2.6c-0.1,0-0.1,0-0.1-0.1c0-0.3,0.1-0.9,0.3-1.1
		c0.1-0.2,0.3-0.4,0.8-0.6L28.6,27.5z"/>
	<path class="st0" d="M33.2,3.4c0.1-0.1,0.2,0,0.2,0.1c0,0.7-0.2,1.3-0.6,1.5l-4.7,2.6c-0.1,0-0.1,0-0.1-0.1c0-0.3,0.1-0.9,0.3-1.1
		c0.1-0.2,0.3-0.4,0.8-0.6L33.2,3.4z"/>
	<path class="st0" d="M26.6,13.8c0.2-0.6,0.6-1.2,1.3-1.8c1.1-0.9,2.8-2,4.9-3.2c2.1-1.2,3.8-2.1,5-2.5c0.3-0.1,0.4-0.1,0.4,0
		c0,0.3-0.3,1-1,2.2c-0.1,0.1-0.1,0.2-0.3,0.3c-1.1,0.5-2.7,1.3-4.7,2.6c-2.1,1.3-3.7,2.3-4.7,3.1c1.8,0.8,3.3,1.7,4.4,2.5
		c1.1,0.9,2.3,1.9,3.6,3.2c1.3,1.2,2.3,2,2.8,2.4c0.5,0.3,1,0.5,1.2,0.5h0.3c1.3,0,1.3,2.6,0,2.6h-0.4c-0.5,0-1.2-0.3-2.1-0.9
		c-1-0.6-2-1.5-3-2.6l-0.3-0.3l-0.3-0.3c-0.1,1-0.4,1.8-0.8,2.5c-0.8,1.2-2.4,1.6-3.8,1.6c-0.7,0-1.3-0.1-1.8-0.4
		c-0.6-0.4-1.1-1-1.5-1.9c-0.1-0.3-0.2-0.9-0.3-1.6c-0.2-1.3-0.3-2.4-0.4-3.7c-0.5,1.6-1.2,2.7-1.9,3.2c0.2,0.5,0.3,1,0.3,1.6
		c0,0.5-0.2,1-0.6,1.7c-0.4,0.7-0.8,1-1.3,1c-0.5,0-1.2-0.2-1.9-0.5s-1.3-0.9-1.7-1.5c-0.8,1.4-2,2.1-3.3,2.1h-0.3
		c-0.7,0-1.1-0.5-1.1-1.4c0-0.8,0.3-1.3,1-1.3h0.4c1.2,0,2-0.1,2.6-0.4c0.5-0.3,1-0.7,1.4-1.4c0.5-0.7,0.8-1.2,1.1-1.5
		c0,0,0.1-0.1,0.2-0.1c1.2-0.2,2.5-0.7,3.5-1.5c0.9-0.8,1.4-1.6,1.4-2.5l-0.5-6.5c0-0.1,0-0.2,0-0.2c0.2-0.8,0.9-2.2,1.2-2.3
		c0.2,0,0.3,0.9,0.3,1c0.1,0.7,0.1,1.8,0.2,3c0.1,0.8,0.1,2.3,0.2,4L26.6,13.8z M19.4,21.8c0.2,0.3,0.6,0.6,1.2,0.9s1,0.4,1.3,0.4
		c-0.1-0.5-0.3-1-0.5-1.3c-0.3-0.4-0.6-0.5-1-0.5C19.8,21.3,19.5,21.5,19.4,21.8z M28.6,23c0.2,0,0.4,0.1,0.6,0.1
		c0.5,0,1.1-0.1,1.8-0.3c0.6-0.2,1.1-0.4,1.5-0.7c0,0,0.1-0.1,0.1-0.1c0-0.6-0.5-1.3-1.4-2.1c-1-0.8-2.3-1.6-3.8-2.4
		c-0.3-0.1-0.5-0.3-0.8-0.6c0.2,1.8,0.4,3.5,0.7,4.5C27.2,21.6,27.6,22.7,28.6,23z"/>
	<path class="st0" d="M42.3,24.5c-0.6,0.8-1.3,1.2-2.6,1.2h-0.3c-0.8,0-1.1-0.5-1.1-1.4c0-0.8,0.4-1.2,1.1-1.2h0.3
		c0.6,0,1.2-0.1,1.7-0.3c0.4-0.1,0.7-0.3,0.8-0.5c0-2-0.7-6.1-1.1-10.2c0-0.5-0.3-1.9-0.4-2.4c0-0.1,0-0.2,0-0.3
		c0-0.3,0.4-1.1,0.6-1.5c0.3-0.6,0.6-1,0.8-1c0.1,0,0.1,0.1,0.2,0.2c0.3,1.1,0.7,1.7,0.9,2.1c0.1,0.1,0.1,0.2,0.1,0.3
		c0,0,0,0.1,0,0.2c-0.1,0.3-0.4,0.9-0.6,1.2c0.2,3.9,0.8,7.1,0.8,8.9C43.4,21.8,43,23.4,42.3,24.5z"/>
	<path class="st0" d="M48.7,25.7c-0.1,0-0.2-0.2-0.2-0.8c0-3.4-1.3-13-1.3-14.5c0-0.8,0.5-2,1-2.8C48.4,7.3,48.6,7,48.8,7
		C48.9,7,49,7.2,49,7.9c0.1,2.5,0.8,8.3,0.8,12.6c0,1.7-0.1,3.1-0.4,4C49.1,25.3,48.9,25.7,48.7,25.7z"/>
	<path class="st0" d="M66.7,34.5c0.1-0.1,0.2,0,0.2,0.1c0,0.7-0.2,1.3-0.6,1.5l-4.7,2.6c-0.1,0-0.1,0-0.1-0.1c0-0.3,0.1-0.9,0.3-1.1
		c0.1-0.2,0.3-0.4,0.8-0.6L66.7,34.5z"/>
	<path class="st0" d="M69.3,23.1c0.8,0,1.3,0.4,1.3,1.3c0,0.9-0.4,1.3-1.3,1.3h-0.3c-0.7,0-1.2,0-1.5-0.1c0,0.1,0,0.3,0,0.4
		c0,0.8-0.1,1.7-0.4,2.4c-0.6,1.4-1.5,3.8-4.1,5c-0.5,0.2-0.9,0.3-1.4,0.3c-1,0-2.7-0.6-4-1.2c-0.4-0.2-0.5-0.3-0.5-0.5
		c0-0.2,0.2-0.2,0.4-0.2c0.3,0,0.9,0.1,1.5,0.1c3.6,0,7.1-3.1,7.6-5.7c0-0.6-1.2-1.8-1.5-2.2c0-0.1-0.1-0.2-0.1-0.3
		c0-0.6,0.4-1.8,0.7-2.1c0.1-0.2,0.2-0.3,0.3-0.3c0.2,0,0.4,0.2,0.7,0.8c0.4,0.7,1,1,2.1,1H69.3z"/>
	<path class="st0" d="M81,25.7c0.1-0.1,0.2,0,0.2,0.1c0,0.7-0.2,1.3-0.6,1.5l-4.7,2.6c-0.1,0-0.1,0-0.1-0.1c0-0.3,0.1-0.9,0.3-1.1
		c0.1-0.2,0.3-0.4,0.8-0.6L81,25.7z"/>
	<path class="st0" d="M72.5,19.6c-0.3,0-0.5,0-0.7,0.1c-0.2,0.1-0.7,0.3-0.9,0.3c-0.2,0-0.2-0.1-0.2-0.3c0-0.5,0.7-1.5,1.4-2.1
		c0.6-0.5,1.1-0.7,1.6-0.7c0.2,0,0.4,0,0.5,0.1c2.1,0.5,4.7,1.6,6.8,2c1.4,0.3,2.9,0.4,3.9,0.4c0.2,0,0.4,0,0.5,0
		c0.1,0,0.1,0,0.1,0.1c0,0.4-0.8,1.7-1.3,2.2c-0.1,0.1-0.3,0.1-0.6,0.1c-0.5,0-1.9-0.1-2.2-0.1c-1,0-1.8,0.1-2.5,0.3
		c-0.5,0.2-1.4,0.5-2.6,1.1c-1.9,1-3.3,1.6-4.1,1.9c-0.9,0.3-1.8,0.5-2.8,0.5H69c-0.8,0-1.3-0.5-1.3-1.4c0-0.8,0.4-1.2,1.3-1.2h0.3
		c1.6,0,2.9-0.2,3.9-0.5c1.1-0.3,2.6-0.8,4.6-1.7C75.5,20.3,73.7,19.6,72.5,19.6z M80.2,12.8c0.1,0.1,0.1,0.1,0,0.2
		c-0.3,0.4-1.2,1.4-1.6,1.9c-0.1,0.1-0.1,0.1-0.3,0c-0.5-0.3-1.7-1.2-2-1.7c-0.1-0.1-0.1-0.1,0-0.3c0.4-0.6,1-1.3,1.5-1.8
		C78,11,78,11,78.1,11.1C78.6,11.6,79.4,12.3,80.2,12.8z"/>
	<path class="st0" d="M86.8,6.7c-0.1,0.1-0.2,0.2-0.3,0.2c-0.2,0-0.1-0.2-0.1-0.3c0.2-0.8,0.6-1.4,1.1-2c0.5-0.6,1.2-0.9,2-0.9
		c0.4,0,1,0.1,1.8,0.3c0.9,0.2,1.1,0.3,1.4,0.3c0.4,0,0.8-0.1,1.1-0.4c0.3-0.3,0.5-0.5,0.6-0.7C94.5,3,94.6,3,94.7,3
		c0.2,0,0.1,0.2,0.1,0.3C94,5,92.9,5.9,91.5,5.9c-0.3,0-0.8-0.1-1.5-0.3c-0.5-0.1-0.8-0.2-1.2-0.2C88.3,5.4,87.5,5.7,86.8,6.7z
		 M91.1,25.7c-0.1,0-0.2-0.2-0.2-0.8c0-3.4-1.3-13-1.3-14.5c0-0.8,0.5-2,1-2.8C90.8,7.3,91,7,91.2,7c0.1,0,0.2,0.2,0.2,0.9
		c0.1,2.5,0.8,8.3,0.8,12.6c0,1.7-0.1,3.1-0.4,4C91.5,25.3,91.3,25.7,91.1,25.7z"/>
	<path class="st0" d="M102.2,20.9c0.4,1,0.5,2,0.5,3.5c0,4.5-1.3,7.5-4.8,8.8c-0.2,0.1-0.4,0.1-0.7,0.1c-1.1,0-3-0.5-4.5-1.2
		c-0.4-0.2-0.5-0.3-0.5-0.5c0-0.1,0.1-0.2,0.5-0.2c0.2,0,1.3,0.2,2.1,0.2c1.1,0,2.2-0.5,3.8-1.5c1.8-1.1,3.2-2.7,3.2-4.4
		c0-0.5-0.1-1.1-0.5-1.7c-0.3,0.8-0.9,1.3-1.8,1.3c-1.4,0-2.3-0.8-2.3-2.4c0-0.6,0.3-1.5,0.7-2.4c0.6-1.1,1.4-2.2,2-2.2
		C100.7,18.5,101.7,19.5,102.2,20.9z M99.3,21c-0.3,0-0.6,0.2-0.8,0.5c-0.1,0.2-0.3,0.4-0.3,0.6c0,0.4,0.7,0.7,1.3,0.7
		c0.5,0,0.8-0.2,0.9-0.5C100.5,21.5,99.7,21,99.3,21z"/>
	<path class="st0" d="M122.6,28.2c0.1-0.1,0.2,0,0.2,0.1c0,0.7-0.2,1.3-0.6,1.5l-4.7,2.6c-0.1,0-0.1,0-0.1-0.1
		c0-0.3,0.1-0.9,0.3-1.1c0.1-0.2,0.3-0.4,0.8-0.6L122.6,28.2z"/>
	<path class="st0" d="M120.2,17.5c0,1.3-0.2,2.2-0.5,3.1c2.4-2,4.7-3.4,5.9-3.4c0.6,0,1.4,0.2,2.1,0.5c1.1,0.5,1.5,1.1,1.5,1.7
		c0,1-0.9,3.2-1.9,4c0.7-0.2,1.5-0.3,2.7-0.3h0.4c0.8,0,1.2,0.4,1.2,1.3c0,0.9-0.4,1.3-1.2,1.3H130c-0.9,0-1.8,0-2.7,0
		c-2.7,0-5.2,0-7.6,0.1c-1.1,0.1-2.1,0.2-3,0.2c-0.3,0-0.6,0-0.8,0c-0.7,0-3.4-1.1-4.7-2.2c-0.1-0.1-0.2-0.3-0.2-0.4
		c0-0.1,0-0.2,0.2-0.2c0.5,0,2.7,0.4,4.1,0.4c0.4,0,0.7,0,1.1-0.1c0.5-0.5,1.1-1.1,2.7-2.4c0-0.5,0-0.9,0-1.3c0-3.1-0.6-7-0.8-8.2
		c0-0.5-0.4-1.5-0.4-1.9c0-0.1,0-0.2,0-0.3c0,0,0-0.1,0-0.2c0-0.1,0.1-0.4,0.4-1c0.3-0.6,0.7-1.2,0.8-1.2c0.1,0,0.1,0.1,0.2,0.2
		c0.3,1.1,0.6,1.6,0.9,2c0,0.1,0.1,0.2,0.1,0.2s0,0.1,0,0.2c-0.1,0.3-0.4,0.9-0.7,1.2C119.8,13.2,120.2,15.7,120.2,17.5z
		 M124.2,19.7c-1.6,0-4.2,1.8-6.3,3.7c4-0.3,8.2-1.3,9.8-2.4C127.3,20.4,125.2,19.7,124.2,19.7z"/>
	<path class="st0" d="M141.5,10.6c0.1-0.1,0.2,0,0.2,0.1c0,0.7-0.2,1.3-0.6,1.5l-4.7,2.6c-0.1,0-0.1,0-0.1-0.1
		c0-0.3,0.1-0.9,0.3-1.1c0.1-0.2,0.3-0.4,0.8-0.6L141.5,10.6z"/>
	<path class="st0" d="M132.9,24.6c-0.7,0.7-1.4,1.1-2.7,1.1H130c-0.8,0-1.2-0.5-1.2-1.4c0-0.8,0.4-1.3,1.2-1.3h0.3
		c1,0,1.8-0.2,2.5-0.5c0.8-0.4,1.4-1.1,2-2.1c0.1-0.2,0.3-0.3,0.4-0.3c0.2,0,0.3,0.2,0.3,0.8c0.1,1,0.5,1.7,1.7,1.7
		c1.3,0,2.5-1.1,3-2.3c0.3-0.7,0.5-1,0.7-1c0.1,0,0.2,0.1,0.2,0.3c0,0.3-0.1,0.5-0.1,0.8c0,1.4,1.3,2,2.1,2c0.3,0,0.8-0.1,0.8-0.5
		c0-0.3-0.2-0.7-0.5-1.1c0,0,0-0.1,0-0.2c0-0.3,0.8-1.6,1.1-2.1c0-0.1,0.2-0.2,0.3-0.2c0.1,0,0.1,0.1,0.3,0.3c0.2,0.5,0.3,1,0.3,1.8
		c0,1.4-1,4.4-3,4.4c-1.2,0-2.1-0.7-2.4-1.8c-0.9,1.6-2.1,2.2-3,2.2c-1.2,0-2-0.7-2.3-2.5C133.9,23.5,133.5,24,132.9,24.6z"/>
	<path class="st0" d="M152.9,11.5c0.1-0.1,0.2,0,0.2,0.1c0,0.7-0.2,1.3-0.6,1.5l-4.7,2.6c-0.1,0-0.1,0-0.1-0.1
		c0-0.3,0.1-0.9,0.3-1.1c0.1-0.2,0.3-0.4,0.8-0.6L152.9,11.5z"/>
	<path class="st0" d="M153.7,20.9c0.4,1,0.5,2,0.5,3.5c0,4.5-1.3,7.5-4.8,8.8c-0.2,0.1-0.4,0.1-0.7,0.1c-1.1,0-3-0.5-4.5-1.2
		c-0.4-0.2-0.5-0.3-0.5-0.5c0-0.1,0.1-0.2,0.5-0.2c0.2,0,1.3,0.2,2.1,0.2c1.1,0,2.2-0.5,3.8-1.5c1.8-1.1,3.2-2.7,3.2-4.4
		c0-0.5-0.1-1.1-0.5-1.7c-0.3,0.8-0.9,1.3-1.8,1.3c-1.4,0-2.3-0.8-2.3-2.4c0-0.6,0.3-1.5,0.7-2.4c0.6-1.1,1.4-2.2,2-2.2
		C152.2,18.5,153.2,19.5,153.7,20.9z M150.9,21c-0.3,0-0.6,0.2-0.8,0.5c-0.1,0.2-0.3,0.4-0.3,0.6c0,0.4,0.7,0.7,1.3,0.7
		c0.5,0,0.8-0.2,0.9-0.5C152,21.5,151.2,21,150.9,21z"/>
	<path class="st0" d="M170.5,34.1c0.2-0.2,0.3-0.3,0.4-0.1c0.5,0.6,1.2,1.2,1.8,1.6c0.2,0.1,0.2,0.2,0,0.4c-0.5,0.6-1,1.1-1.5,1.7
		c-0.1,0.2-0.2,0.2-0.3,0c-0.4-0.3-1.1-0.8-1.6-1.4c-0.3,0.4-1,1.1-1.3,1.3c-0.1,0.1-0.2,0.2-0.4,0c-0.6-0.4-1.3-1-1.8-1.6
		c-0.1-0.1-0.1-0.2,0-0.4c0.4-0.5,1-1.2,1.6-1.8c0.1-0.1,0.2-0.1,0.4,0.1c0.4,0.5,1.2,1.2,1.6,1.4C169.6,35.1,170.2,34.4,170.5,34.1
		z"/>
	<path class="st0" d="M177,8c0.1,0.1,0.1,0.1,0,0.2c-0.3,0.4-1.2,1.4-1.6,1.9c-0.1,0.1-0.1,0.1-0.3,0c-0.5-0.3-1.7-1.2-2-1.7
		c-0.1-0.1-0.1-0.1,0-0.3c0.4-0.6,1-1.3,1.5-1.8c0.2-0.2,0.3-0.2,0.3-0.2C175.3,6.8,176.2,7.5,177,8z"/>
	<path class="st0" d="M166.6,28.7c0.8,0.3,1.6,0.4,2.4,0.4c0.9,0,1.6-0.1,2.5-0.3c2.7-0.7,5.8-2.2,6.2-2.9c-0.8-0.7-3.1-1.7-5-1.7
		c-0.4,0-0.5-0.2-0.5-0.4c0-0.4,0.3-1,0.6-1.4c0.1-0.1,0.1-0.2,0.3-0.2c3.7-0.7,3.9-2,3.9-2.2c0-0.8-0.1-1-0.3-1.8
		c-0.5,0.6-1.2,1.1-2.1,1.1c-1.1,0-2.1-0.7-2.1-1.9c0-1.8,1.7-5,2.5-5c0.9,0,1.8,0.8,2.5,2.2c0.5,1,0.8,2.5,0.8,3.5
		c0,1.8-0.8,3.5-1.8,4.8c0.7,0.2,1.2,0.5,1.6,0.7c1,0.6,1,1.2,1,1.7c0,1-0.8,2.2-1.9,3.2c-2.3,1.9-6.1,3.4-8.7,3.3
		c-0.7,0-1.6-0.1-2.4-0.4c-1.9-0.6-3.6-2-3.6-5.1c0-1.8,0.8-4.3,1.7-5.8c0.3-0.4,0.5-0.7,0.8-0.7c0.3,0,0.1,0.5-0.1,0.9
		c-0.7,1.5-1.2,2.8-1.2,3.9C163.4,26.8,164.8,28.1,166.6,28.7z M174.5,14.8c-0.2,0-0.5,0.3-0.8,0.8c0,0.1-0.1,0.2-0.1,0.3
		c0,0.5,0.5,0.7,1.1,0.8c0.6,0,1.1-0.2,1.1-0.6C175.7,15.2,174.9,14.8,174.5,14.8z"/>
	<path class="st0" d="M196,1.4c0,0.6-0.1,1.1-0.3,1.7c0.3,0.2,0.4,0.3,0.4,0.4c0,0.4-0.2,0.8-0.4,1.1c-0.1,0.1-0.1,0.1-0.1,0.1
		L195,4.4c-0.6,0.9-1.5,2-2.8,2.6c-0.5,0.2-1.1,0.4-1.7,0.4c-0.3,0-0.5-0.1-0.5-0.2c0-0.2,0.2-0.2,0.6-0.4c1-0.5,2.9-2,3.5-2.9
		c-0.5-0.4-1.2-0.8-1.2-1.6c0-0.5,0.3-1,0.7-1.5c0.5-0.6,1-0.9,1.4-0.9C195.8,0,196,0.8,196,1.4z M194,1.9C194,2,193.9,2,194,1.9
		c0,0.2,0.5,0.6,0.9,0.8c0.1-0.2,0.1-0.4,0.1-0.8c0-0.3-0.1-0.5-0.4-0.5C194.4,1.4,194.1,1.6,194,1.9z"/>
	<path class="st0" d="M188.8,26.5c-1.1-1-1.6-2.4-1.6-3.9c0-1.7,1-3.7,1.6-4.5c0.2-0.3,0.4-0.5,0.6-0.5c0.1,0,0.1,0.1,0.1,0.2
		c0,0.2-0.1,0.4-0.2,0.6c-0.5,1-1,2.1-1,3.3c0,1,0.7,1.8,1.5,2.4c0.9,0.6,2,0.9,3.1,0.9c2.8,0,6.5-1.2,7.3-3.1c0-0.2,0-0.3,0-0.5
		c0-1.2-0.4-2.6-1-3.6c-0.3-0.4-0.5-0.8-0.5-1c0,0,0-0.1,0-0.2c0-0.2,0.1-0.5,0.2-0.9c0.2-0.5,0.3-0.9,0.5-1.2
		c0.1-0.2,0.2-0.3,0.2-0.3c0.1,0,0.1,0,0.3,0.3c0.8,1.7,1.4,3.3,1.4,5.4c0,1.6-0.2,2.6-0.4,3.1c-0.4,1-0.7,1.5-1.3,2.1
		c-0.5,0.6-1.6,1.3-2.8,1.9s-2.8,0.8-4.7,0.8C191,27.7,189.8,27.4,188.8,26.5z M196.3,10.7c0.1,0.1,0.1,0.1,0,0.2
		c-0.3,0.4-1.2,1.4-1.6,1.9c-0.1,0.1-0.1,0.1-0.3,0c-0.5-0.3-1.7-1.2-2-1.7c-0.1-0.1-0.1-0.1,0-0.3c0.4-0.6,1-1.3,1.5-1.8
		c0.2-0.2,0.3-0.2,0.3-0.2C194.6,9.5,195.5,10.2,196.3,10.7z"/>
	<path class="st0" d="M200.2,32.5c-0.4-0.2-0.5-0.3-0.5-0.5c0-0.1,0.2-0.2,0.4-0.2c0.3,0,1.3,0.2,2.1,0.2c0.7,0,1.4-0.2,2.4-0.7
		c2.8-1.4,4.5-3.4,4.5-4.8c0-0.2,0-0.4-0.1-0.8h-0.8c-0.6,0-1.7-0.1-2.5-0.5c-0.8-0.4-1.1-1-1.1-1.8c0-0.7,0.3-1.7,0.7-2.5
		c0.6-1.4,1.4-2.5,2.1-2.5c0.8,0,1.5,0.6,2,1.3c0.5,0.8,0.8,2.1,0.8,3.2h1.1c0.7,0,1.1,0.4,1.1,1.2c0,0.9-0.3,1.4-1,1.4l-1.2,0.1
		c-0.2,4-1.5,6.6-4.7,7.8c-0.2,0.1-0.4,0.1-0.7,0.1C203.6,33.7,201.7,33.2,200.2,32.5z M207.3,21.5c-0.2-0.1-0.3-0.3-0.6-0.3
		c-0.5,0-0.9,0.6-0.9,0.9c0,0.3,0.3,0.5,0.9,0.8c0.5,0.2,1,0.3,1.3,0.3c0.2,0,0.3,0,0.3-0.1C208.3,22.8,207.8,21.9,207.3,21.5z"/>
	<path class="st0" d="M224.9,4.9c0.1,0,0.1,0.1,0.1,0.2c0,0.4-0.6,1.6-0.8,1.9c0,0.1-0.1,0.1-0.1,0.1c-0.9,0.4-5.6,2.3-9.3,4.5
		c-0.7,0.4-1.4,0.8-1.9,1.5c0.8,0.7,1.9,1.5,2.7,2.1c2.5,2,4.2,3.4,6.3,5.4c1.8,1.8,2.9,2.5,3.4,2.5h0.3c0.7,0,1,0.4,1,1.2
		c0,0.9-0.3,1.4-1,1.4h-0.5c-0.7,0-1.5-0.4-2.5-1.1c-0.6-0.5-1.5-1.3-2.5-2.4c-1.1-1.2-2-1.9-2.5-2.3c0.1,0.5,0.1,0.9,0.1,1.3
		c0,0.8-0.1,1.5-0.4,2c-0.3,0.8-1,1.4-2.1,1.8c-1.4,0.5-2.7,0.7-4,0.7h-0.3c-0.7,0-1-0.5-1-1.4c0-0.8,0.4-1.2,1.1-1.2
		c1,0,2.4-0.1,4-0.5c1.1-0.2,1.6-0.7,1.7-1.3c-0.1-1.2-1.5-3-4.2-5.2c-0.5-0.5-0.8-1-0.8-1.6c0-2,0.3-2.7,0.6-3.1c1-1,1.9-1.6,3-2.3
		c3.8-2.3,9-4.1,9.4-4.3C224.8,4.9,224.9,4.9,224.9,4.9z"/>
	<path class="st0" d="M230.7,4.6c0.1-0.1,0.2,0,0.2,0.1c0,0.7-0.2,1.3-0.6,1.5l-4.7,2.6c-0.1,0-0.1,0-0.1-0.1c0-0.3,0.1-0.9,0.3-1.1
		c0.1-0.2,0.3-0.4,0.8-0.6L230.7,4.6z"/>
	<path class="st0" d="M229.8,24.1c-0.5,0.7-1.4,1.3-3,1.5c-0.4,0.1-1.1,0.1-1.6,0.1c-0.7,0-1.1-0.6-1.1-1.3c0-0.7,0.4-1.3,1.1-1.3
		h0.6c1.2,0,3,0,3.7-0.7c-0.1-1-0.9-2.3-1.2-2.8c0,0,0,0,0-0.1c0-0.4,0.8-2.1,0.8-2.2c0-0.1,0.1-0.1,0.1-0.1c0.4,0,1.3,1.8,1.3,4
		C230.6,22.2,230.5,23.3,229.8,24.1z M229.7,11c0.2-0.2,0.3-0.3,0.4-0.1c0.5,0.6,1.2,1.2,1.8,1.6c0.2,0.1,0.2,0.2,0,0.4
		c-0.5,0.6-1,1.1-1.5,1.7c-0.1,0.2-0.2,0.2-0.3,0c-0.4-0.3-1.1-0.8-1.6-1.4c-0.3,0.4-1,1.1-1.3,1.3c-0.1,0.1-0.2,0.2-0.4,0
		c-0.6-0.4-1.3-1-1.8-1.6c-0.1-0.1-0.1-0.2,0-0.4c0.4-0.5,1-1.2,1.6-1.8c0.1-0.1,0.2-0.1,0.4,0.1c0.4,0.5,1.2,1.2,1.6,1.4
		C228.8,12,229.5,11.3,229.7,11z"/>
	<path class="st0" d="M243.9,19.8c0,0,0,0.3,0,0.3c0,0.3-0.3,1.3-0.4,1.4c-0.2,0.1-4.3,0.2-4.9,0.2c0,0,0-0.2,0-0.3
		c0-0.4,0.2-1.4,0.3-1.4C240.1,20,243.2,19.9,243.9,19.8z"/>
	<path class="st0" d="M254.3,11.5c0,0.3-0.5,1.4-1.1,2c-0.3,0.3-0.7,0.5-1,0.5c-1.3,0-2.4-0.1-2.7-0.1c-0.1,0-0.3,0.1-0.3,0.2
		c-0.2,0.4-0.5,1.1-0.6,1.5c0,0.1,0.1,0.3,0.1,0.3c1,0.5,3.3,1.5,4.5,2.3c1.5,0.9,2.2,1.9,2.2,3.6c0,3.1-3.3,5.1-5.9,5.1
		c-1.7,0-2.7-0.6-3.2-1.2c-0.2-0.2-0.3-0.5-0.3-0.8c0-0.3,0.3-1.1,0.5-1.4c0,0,0.3-0.1,0.3-0.1c0.8,1.2,2.1,2.4,4,2.4
		c1.4,0,2.3-1,2.3-2.4c0-1.3-0.4-2.1-1.9-3.2c-1.3-0.9-3.4-1.8-4-2.2c0-0.1-0.1-0.6,0-0.8c0.4-1.4,1.7-4.4,2.3-5.3
		c0.2-0.2,0.4-0.3,0.6-0.3c0.4,0,1.7,0.2,2.8,0.2c0.7,0,0.9-0.1,1.3-0.4C254,11.2,254.3,11.3,254.3,11.5z"/>
</g>
</svg>
