<?xml version="1.0" encoding="utf-8"?>
<!-- Generator: Adobe Illustrator 19.2.0, SVG Export Plug-In . SVG Version: 6.00 Build 0)  -->
<svg version="1.1" id="Layer_1" xmlns="http://www.w3.org/2000/svg" xmlns:xlink="http://www.w3.org/1999/xlink" x="0px" y="0px"
	 viewBox="0 0 203.1 38.1" style="enable-background:new 0 0 203.1 38.1;" xml:space="preserve">
<style type="text/css">
	.st0{fill:#FFFFFF;}
</style>
<g>
	<path class="st0" d="M2.7,22.8c0.4,0.4,0.5,0.9,0.5,1.3c0,0.3-0.1,0.8-0.4,1.1c-0.3,0.3-0.8,0.5-1.2,0.5c-0.3,0-0.8-0.2-1-0.4
		C0.1,24.9,0,24.5,0,24c0-0.4,0.2-0.8,0.5-1.2c0.3-0.3,0.7-0.5,1.1-0.5S2.4,22.6,2.7,22.8z"/>
	<path class="st0" d="M14.4,17.2c0,1.3-0.2,2.2-0.5,3.1c2.4-2,4.7-3.4,5.9-3.4c0.6,0,1.4,0.2,2.1,0.5c1.1,0.5,1.5,1.1,1.5,1.7
		c0,1-0.9,3.2-1.9,4c0.7-0.2,1.5-0.3,2.7-0.3h0.4c0.8,0,1.2,0.4,1.2,1.3c0,0.9-0.4,1.3-1.2,1.3h-0.4c-0.9,0-1.8,0-2.7,0
		c-2.7,0-5.2,0-7.6,0.1c-1.1,0.1-2.1,0.2-3,0.2c-0.3,0-0.6,0-0.8,0c-0.7,0-3.4-1.1-4.7-2.2c-0.1-0.1-0.2-0.3-0.2-0.4
		c0-0.1,0-0.2,0.2-0.2c0.5,0,2.7,0.4,4.1,0.4c0.4,0,0.7,0,1.1-0.1c0.5-0.5,1.1-1.1,2.7-2.4c0-0.5,0-0.9,0-1.3c0-3.1-0.6-7-0.8-8.2
		c0-0.5-0.4-1.5-0.4-1.9c0-0.1,0-0.2,0-0.3c0,0,0-0.1,0-0.2c0-0.1,0.1-0.4,0.4-1c0.3-0.6,0.7-1.2,0.8-1.2c0.1,0,0.1,0.1,0.2,0.2
		c0.3,1.1,0.6,1.6,0.9,2c0,0.1,0.1,0.2,0.1,0.2s0,0.1,0,0.2c-0.1,0.3-0.4,0.9-0.7,1.2C14,12.9,14.4,15.4,14.4,17.2z M18.3,19.4
		c-1.6,0-4.2,1.8-6.3,3.7c4-0.3,8.2-1.3,9.8-2.4C21.5,20.1,19.4,19.4,18.3,19.4z"/>
	<path class="st0" d="M33.4,22.8c0.8,0,1.1,0.4,1.1,1.3c0,0.9-0.4,1.3-1.1,1.3h-0.3c-2.5,0-3.9-0.5-5-1.1c-0.9,0.6-2.2,1.1-3.7,1.1
		h-0.3c-0.7,0-1.1-0.5-1.1-1.4c0-0.8,0.4-1.3,1.1-1.3h0.3c1,0,1.7-0.1,2-0.4c-0.1-0.3-0.1-0.6-0.1-0.9c0-2.6,2.9-5.9,4.6-5.9
		c1,0,1.5,1.1,1.5,2.5c0,1.4-0.5,3.2-1.7,4.3c0.5,0.3,1.3,0.4,2.5,0.4H33.4z M30.4,9.1c0.2-0.2,0.3-0.3,0.4-0.1
		c0.5,0.6,1.2,1.2,1.8,1.6c0.2,0.1,0.2,0.2,0,0.4c-0.5,0.6-1,1.1-1.5,1.7c-0.1,0.2-0.2,0.2-0.3,0c-0.4-0.3-1.1-0.8-1.6-1.4
		c-0.3,0.4-1,1.1-1.3,1.3c-0.1,0.1-0.2,0.2-0.4,0c-0.6-0.4-1.3-1-1.8-1.6c-0.1-0.1-0.1-0.2,0-0.4c0.4-0.5,1-1.2,1.6-1.8
		c0.1-0.1,0.2-0.1,0.4,0.1c0.4,0.5,1.2,1.2,1.6,1.4C29.5,10.1,30.2,9.4,30.4,9.1z M29.7,18.3c-1,0-1.9,1-1.9,1.4
		c0,0.6,0.4,1,1.4,1.6c0.3-0.1,1.6-1.1,1.6-1.5C30.9,18.8,30.6,18.3,29.7,18.3z"/>
	<path class="st0" d="M39.7,19.4c0,1.4-0.4,3.3-1.1,4.3c-0.2,0.4-1.1,0.8-1.6,1c-1.6,0.5-2.8,0.7-3.8,0.7H33c-0.7,0-1.1-0.5-1.1-1.4
		c0-0.8,0.4-1.3,1.1-1.3h0.2c1.5,0,3.2-0.2,4.2-0.6c0.9-0.3,1-0.4,1-1.2c0-0.5-0.1-1-0.4-1.5c-0.2,0.6-1.1,1.1-2,1.1
		c-1.2,0-2-0.8-2-2.2c0-2.1,1.5-4.7,2.3-4.7C38.4,13.7,39.7,17.6,39.7,19.4z M38,8.1c0.1,0.1,0.1,0.1,0,0.2
		c-0.3,0.4-1.2,1.4-1.6,1.9c-0.1,0.1-0.1,0.1-0.3,0c-0.5-0.3-1.7-1.2-2-1.7c-0.1-0.1-0.1-0.1,0-0.3c0.4-0.6,1-1.3,1.5-1.8
		c0.2-0.2,0.3-0.2,0.3-0.2C36.4,6.8,37.3,7.6,38,8.1z M36.8,16.5c-0.2-0.2-0.6-0.3-0.8-0.3c-0.2,0-0.4,0.2-0.6,0.5
		c-0.2,0.3-0.2,0.5-0.2,0.6c0,0.5,0.6,0.7,1.1,0.7c0.5,0,1.1-0.2,1.1-0.6C37.3,17.4,37.1,16.8,36.8,16.5z"/>
	<path class="st0" d="M61.1,33.9c0.1-0.1,0.2,0,0.2,0.1c0,0.7-0.2,1.3-0.6,1.5l-4.7,2.6c-0.1,0-0.1,0-0.1-0.1c0-0.3,0.1-0.9,0.3-1.1
		c0.1-0.2,0.3-0.4,0.8-0.6L61.1,33.9z"/>
	<path class="st0" d="M53.6,31c2.8,0,6.5-2,6.5-3.3c-0.2-2.3-0.4-3.6-0.6-5.5c-0.4-3.5-0.8-6.3-1.3-10.9c-0.1-0.5-0.1-0.8-0.1-1.1
		c0-0.2,0-0.4,0.1-0.7c0.2-0.6,0.9-2,1.2-2c0.1,0,0.2,0.1,0.2,0.3c0.1,1,0.1,1.8,0.3,3.6c0.2,2,0.5,5,0.8,7.7
		c0.3,2.3,1.6,3.7,3.1,3.7h0.3c0.8,0,1.2,0.4,1.2,1.3c0,0.9-0.4,1.3-1.2,1.3h-0.4c-1-0.1-2.1-0.6-2.5-1.7c0.1,1.1,0.2,1.9,0.2,2.5
		c0,2.3-0.4,3-1,4c-0.5,0.8-2.8,3.5-7.1,3.5c-4.4,0-5.8-2.4-5.8-4.7c0-1.7,0.6-3.5,1.3-4.8c0.4-0.7,0.7-1,0.9-1
		c0.1,0,0.1,0.1,0.1,0.2c0,0.2-0.1,0.5-0.3,0.9c-0.4,0.8-0.8,2-0.8,2.9C48.5,30.1,51.3,31,53.6,31z"/>
	<path class="st0" d="M70.9,9.4c0.8,0,1.9,1.1,1.9,2.4c0,0.5-0.1,0.9-0.2,1.4c-0.3,0.9-1.1,1.4-2,1.4c-0.9,0-1.5-0.7-1.5-1.5
		C69,11.9,70.3,9.4,70.9,9.4z M70.7,11.2c-0.3,0-0.8,0.7-0.8,1.1c0,0.3,0.4,0.6,0.9,0.6c0.6,0,1.3-0.3,1.3-0.5
		C72,12.2,71.3,11.2,70.7,11.2z"/>
	<path class="st0" d="M68.8,26.8c-0.1,0-0.2-0.1-0.2-0.2c0-0.1,0-0.2,0.1-0.3c0.1-0.4,0.3-0.8,0.5-1.3c-1.2-0.4-2-1.2-2.3-2.2
		c-0.9,1.7-1.8,2.6-3,2.6h-0.3c-0.8,0-1.1-0.4-1.1-1.3c0-0.9,0.4-1.3,1.1-1.3H64c1.5,0,2.5-0.9,3.2-2.6c0.3-0.7,0.5-1,0.7-1
		c0.2,0,0.4,0.3,0.4,0.8c0,0.9,0.5,2.2,2.6,2.6c2.3-2.9,6.4-6.2,8.2-6.2c0.7,0,1.5,0.3,2.2,0.7c0.8,0.5,1.1,1.1,1.1,1.7
		c0,0.9-0.5,2.5-1.3,3.6c-0.9,1.1-2.9,2-5.2,2.5c-1.3,0.3-2.6,0.5-3.8,0.5c-0.8,0-1.5-0.1-2-0.2c-0.3,0.3-0.5,0.8-0.7,1.1
		C69.2,26.5,69.1,26.8,68.8,26.8z M80.7,20.7c0-0.7-1.8-1.7-2.8-1.7c-1.7,0-4.4,2.1-6.1,3.8c0.3,0,0.5,0,0.8,0
		C75.8,22.8,79.8,21.4,80.7,20.7C80.7,20.7,80.7,20.7,80.7,20.7z"/>
	<path class="st0" d="M89.6,11.8c0.1-0.1,0.2,0,0.2,0.1c0,0.7-0.2,1.3-0.6,1.5L84.5,16c-0.1,0-0.1,0-0.1-0.1c0-0.3,0.1-0.9,0.3-1.1
		c0.1-0.2,0.3-0.4,0.8-0.6L89.6,11.8z"/>
	<path class="st0" d="M80.7,32.2c-0.4-0.2-0.5-0.3-0.5-0.5c0-0.1,0.2-0.2,0.4-0.2c0.3,0,1.3,0.2,2.1,0.2c0.7,0,1.4-0.2,2.4-0.7
		c2.8-1.4,4.5-3.4,4.5-4.8c0-0.2,0-0.4-0.1-0.8h-0.8c-0.6,0-1.7-0.1-2.5-0.5c-0.8-0.4-1.1-1-1.1-1.8c0-0.7,0.3-1.7,0.7-2.5
		c0.6-1.4,1.4-2.5,2.1-2.5c0.8,0,1.5,0.6,2,1.3c0.5,0.8,0.8,2.1,0.8,3.2h1.1c0.7,0,1.1,0.4,1.1,1.2c0,0.9-0.3,1.4-1,1.4l-1.2,0.1
		c-0.2,4-1.5,6.6-4.7,7.8c-0.2,0.1-0.4,0.1-0.7,0.1C84.1,33.4,82.3,32.9,80.7,32.2z M87.8,21.2c-0.2-0.1-0.3-0.3-0.6-0.3
		c-0.5,0-0.9,0.6-0.9,0.9c0,0.3,0.3,0.5,0.9,0.8c0.5,0.2,1,0.3,1.3,0.3c0.2,0,0.3,0,0.3-0.1C88.8,22.4,88.3,21.6,87.8,21.2z"/>
	<path class="st0" d="M94,0c0.8,0,1.9,1.1,1.9,2.4c0,0.5-0.1,0.9-0.2,1.4c-0.3,0.9-1.1,1.4-2,1.4c-0.9,0-1.5-0.7-1.5-1.5
		C92.1,2.5,93.4,0,94,0z M93.7,1.8c-0.3,0-0.8,0.7-0.8,1.1c0,0.3,0.4,0.6,0.9,0.6c0.6,0,1.3-0.3,1.3-0.5C95.1,2.8,94.4,1.8,93.7,1.8
		z"/>
	<path class="st0" d="M94.3,24.2c-0.6,0.8-1.3,1.2-2.6,1.2h-0.3c-0.8,0-1.1-0.5-1.1-1.4c0-0.8,0.4-1.2,1.1-1.2h0.3
		c0.6,0,1.2-0.1,1.7-0.3c0.4-0.1,0.7-0.3,0.8-0.5c0-2-0.7-6.1-1.1-10.2c0-0.5-0.3-1.9-0.4-2.4c0-0.1,0-0.2,0-0.3
		c0-0.3,0.4-1.1,0.6-1.5c0.3-0.6,0.6-1,0.8-1c0.1,0,0.1,0.1,0.2,0.2C94.6,8,94.9,8.6,95.2,9c0.1,0.1,0.1,0.2,0.1,0.3
		c0,0,0,0.1,0,0.2c-0.1,0.3-0.4,0.9-0.6,1.2c0.2,3.9,0.8,7.1,0.8,8.9C95.5,21.5,95.1,23,94.3,24.2z"/>
	<path class="st0" d="M100.7,25.4c-0.1,0-0.2-0.2-0.2-0.8c0-3.4-1.3-13-1.3-14.5c0-0.8,0.5-2,1-2.8c0.1-0.3,0.4-0.6,0.5-0.6
		c0.1,0,0.2,0.2,0.2,0.9c0.1,2.5,0.8,8.3,0.8,12.6c0,1.7-0.1,3.1-0.4,4C101.1,25,100.9,25.4,100.7,25.4z"/>
	<path class="st0" d="M119.1,33.8c0.2-0.2,0.3-0.3,0.4-0.1c0.5,0.6,1.2,1.2,1.8,1.6c0.2,0.1,0.2,0.2,0,0.4c-0.5,0.6-1,1.1-1.5,1.7
		c-0.1,0.2-0.2,0.2-0.3,0c-0.4-0.3-1.1-0.8-1.6-1.4c-0.3,0.4-1,1.1-1.3,1.3c-0.1,0.1-0.2,0.2-0.4,0c-0.6-0.4-1.3-1-1.8-1.6
		c-0.1-0.1-0.1-0.2,0-0.4c0.4-0.5,1-1.2,1.6-1.8c0.1-0.1,0.2-0.1,0.4,0.1c0.4,0.5,1.2,1.2,1.6,1.4C118.2,34.8,118.9,34.1,119.1,33.8
		z"/>
	<path class="st0" d="M125.6,7.7c0.1,0.1,0.1,0.1,0,0.2c-0.3,0.4-1.2,1.4-1.6,1.9c-0.1,0.1-0.1,0.1-0.3,0c-0.5-0.3-1.7-1.2-2-1.7
		c-0.1-0.1-0.1-0.1,0-0.3c0.4-0.6,1-1.3,1.5-1.8c0.2-0.2,0.3-0.2,0.3-0.2C124,6.5,124.8,7.2,125.6,7.7z"/>
	<path class="st0" d="M115.2,28.4c0.8,0.3,1.6,0.4,2.4,0.4c0.9,0,1.6-0.1,2.5-0.3c2.7-0.7,5.8-2.2,6.2-2.9c-0.8-0.7-3.1-1.7-5-1.7
		c-0.4,0-0.5-0.2-0.5-0.4c0-0.4,0.3-1,0.6-1.4c0.1-0.1,0.1-0.2,0.3-0.2c3.7-0.7,3.9-2,3.9-2.2c0-0.8-0.1-1-0.3-1.8
		c-0.5,0.6-1.2,1.1-2.1,1.1c-1.1,0-2.1-0.7-2.1-1.9c0-1.8,1.7-5,2.5-5c0.9,0,1.8,0.8,2.5,2.2c0.5,1,0.8,2.5,0.8,3.5
		c0,1.8-0.8,3.5-1.8,4.8c0.7,0.2,1.2,0.5,1.6,0.7c1,0.6,1,1.2,1,1.7c0,1-0.8,2.2-1.9,3.2c-2.3,1.9-6.1,3.4-8.7,3.3
		c-0.7,0-1.6-0.1-2.4-0.4c-1.9-0.6-3.6-2-3.6-5.1c0-1.8,0.8-4.3,1.7-5.8c0.3-0.4,0.5-0.7,0.8-0.7c0.3,0,0.1,0.5-0.1,0.9
		c-0.7,1.5-1.2,2.8-1.2,3.9C112.1,26.5,113.4,27.8,115.2,28.4z M123.1,14.5c-0.2,0-0.5,0.3-0.8,0.8c0,0.1-0.1,0.2-0.1,0.3
		c0,0.5,0.5,0.7,1.1,0.8c0.6,0,1.1-0.2,1.1-0.6C124.3,14.9,123.5,14.5,123.1,14.5z"/>
	<path class="st0" d="M148.7,5.8c0,0.6-0.1,1.1-0.3,1.7c0.3,0.2,0.4,0.3,0.4,0.4c0,0.4-0.2,0.8-0.4,1.1c-0.1,0.1-0.1,0.1-0.1,0.1
		l-0.6-0.4c-0.6,0.9-1.5,2-2.8,2.6c-0.5,0.2-1.1,0.4-1.7,0.4c-0.3,0-0.5-0.1-0.5-0.2c0-0.2,0.2-0.2,0.6-0.4c1-0.5,2.9-2,3.5-2.9
		c-0.5-0.4-1.2-0.8-1.2-1.6c0-0.5,0.3-1,0.7-1.5c0.5-0.6,1-0.9,1.4-0.9C148.5,4.4,148.7,5.2,148.7,5.8z M146.7,6.3
		C146.6,6.3,146.6,6.4,146.7,6.3c0,0.2,0.5,0.6,0.9,0.8c0.1-0.2,0.1-0.4,0.1-0.8c0-0.3-0.1-0.5-0.4-0.5C147.1,5.8,146.8,6,146.7,6.3
		z"/>
	<path class="st0" d="M139.2,22.4c1.1,0.5,2.9,0.8,5.2,0.8c3.3,0,5.9-0.5,7.6-1c2.3-0.7,3.4-1.1,4.7-2c0.1,0,0.2-0.2,0.3-0.2
		c0.1,0,0.2,0.1,0.2,0.5c0,1.4,0.8,2.2,1.7,2.2h0.4c0.7,0,1.1,0.4,1.1,1.3c0,0.9-0.3,1.4-1,1.4h-0.5c-1.6,0-2.6-0.9-3-2.6
		c-1.2,0.6-2.8,1.4-4.2,1.8c-2.3,0.7-4.7,1.2-7.6,1.2c-2.4,0-4.4-0.3-5.6-0.9c-1.7-0.7-2.5-1.7-2.5-3.4c0-1.5,0.6-3,1-3.5
		c0.2-0.4,0.5-0.7,0.7-0.7c0.1,0,0.1,0.1,0.1,0.2c0,0.2-0.1,0.4-0.2,0.7c-0.2,0.5-0.4,1.2-0.4,1.8C137.1,20.7,137.5,21.6,139.2,22.4
		z M148,13.6c0.2-0.2,0.3-0.3,0.4-0.1c0.5,0.6,1.2,1.2,1.8,1.6c0.2,0.1,0.2,0.2,0,0.4c-0.5,0.6-1,1.1-1.5,1.7
		c-0.1,0.2-0.2,0.2-0.3,0c-0.4-0.3-1.1-0.8-1.6-1.4c-0.3,0.4-1,1.1-1.3,1.3c-0.1,0.1-0.2,0.2-0.4,0c-0.6-0.4-1.3-1-1.8-1.6
		c-0.1-0.1-0.1-0.2,0-0.4c0.4-0.5,1-1.2,1.6-1.8c0.1-0.1,0.2-0.1,0.4,0.1c0.4,0.5,1.2,1.2,1.6,1.4C147.1,14.6,147.8,13.9,148,13.6z"
		/>
	<path class="st0" d="M164,8c0,0.6-0.1,1.1-0.3,1.7c0.3,0.2,0.4,0.3,0.4,0.4c0,0.4-0.2,0.8-0.4,1.1c-0.1,0.1-0.1,0.1-0.1,0.1
		l-0.6-0.4c-0.6,0.9-1.5,2-2.8,2.6c-0.5,0.2-1.1,0.4-1.7,0.4c-0.3,0-0.5-0.1-0.5-0.2c0-0.2,0.2-0.2,0.6-0.4c1-0.5,2.9-2,3.5-2.9
		c-0.5-0.4-1.2-0.8-1.2-1.6c0-0.5,0.3-1,0.7-1.5c0.5-0.6,1-0.9,1.4-0.9C163.7,6.6,163.9,7.4,164,8z M161.9,8.5
		C161.9,8.5,161.9,8.5,161.9,8.5c0,0.2,0.5,0.6,0.9,0.8c0.1-0.2,0.1-0.4,0.1-0.8c0-0.3-0.1-0.5-0.4-0.5C162.3,8,162.1,8.2,161.9,8.5
		z"/>
	<path class="st0" d="M165.4,22.8h0.1c0.7,0,1,0.7,1,1.3c0,0.7-0.3,1.3-1,1.3h-0.1c-0.7,0-1.4-0.1-2-0.6c-0.9-0.7-1.2-2-1.3-2.2
		c-0.1,0.8-1.2,2.7-2.9,2.7H159c-0.7,0-1-0.6-1-1.3c0-0.7,0.3-1.3,1.1-1.3h0.1c1.4,0,2.3-0.6,2.4-0.9c0,0,0-0.1,0-0.2
		c0-0.2-0.5-2.9-0.5-3.2c0-0.1,0-0.3,0-0.4c0.1-0.5,0.4-1.1,0.6-1.5c0.1-0.3,0.2-0.4,0.3-0.4c0.1,0,0.2,0.2,0.3,0.5
		c0.3,1.2,0.6,3.6,0.9,4.3C163.7,22.1,164.9,22.8,165.4,22.8z M164.5,29.7c0.1,0.1,0.1,0.1,0,0.2c-0.3,0.4-1.2,1.4-1.6,1.9
		c-0.1,0.1-0.1,0.1-0.3,0c-0.5-0.3-1.7-1.2-2-1.7c-0.1-0.1-0.1-0.1,0-0.3c0.4-0.6,1-1.3,1.5-1.8c0.2-0.2,0.3-0.2,0.3-0.2
		C162.8,28.4,163.7,29.1,164.5,29.7z"/>
	<path class="st0" d="M168.5,0.9c0.8,0,1.9,1.1,1.9,2.4c0,0.5-0.1,0.9-0.2,1.4c-0.3,0.9-1.1,1.4-2,1.4c-0.9,0-1.5-0.7-1.5-1.5
		C166.6,3.4,167.9,0.9,168.5,0.9z M168.3,2.8c-0.3,0-0.8,0.7-0.8,1.1c0,0.3,0.4,0.6,0.9,0.6c0.6,0,1.3-0.3,1.3-0.5
		C169.6,3.7,168.9,2.8,168.3,2.8z"/>
	<path class="st0" d="M170.9,21.2c0,0.7,0.7,1.4,1.5,1.5c0.2,0,0.4,0,0.5,0h0.2c1,0,1,0.8,1,1.2c0,0.3,0,1.4-1,1.4H173
		c-0.2,0-0.3,0-0.7,0c-1.8-0.2-2.4-1.7-2.5-1.9c-0.3,0.7-1.7,1.9-4.2,1.9h-0.1c-0.7,0-1.1-0.6-1.1-1.3c0-0.7,0.4-1.3,1.1-1.3h0.8
		c1.1,0,2.8-0.2,3.7-1.8c0.3-0.5,0.4-0.6,0.6-0.6C170.8,20.4,170.9,20.6,170.9,21.2z M170.6,13.8c0.2-0.2,0.3-0.3,0.4-0.1
		c0.5,0.6,1.2,1.2,1.8,1.6c0.2,0.1,0.2,0.2,0,0.4c-0.5,0.6-1,1.1-1.5,1.7c-0.1,0.2-0.2,0.2-0.3,0c-0.4-0.3-1.1-0.8-1.6-1.4
		c-0.3,0.4-1,1.1-1.3,1.3c-0.1,0.1-0.2,0.2-0.4,0c-0.6-0.4-1.3-1-1.8-1.6c-0.1-0.1-0.1-0.2,0-0.4c0.4-0.5,1-1.2,1.6-1.8
		c0.1-0.1,0.2-0.1,0.4,0.1c0.4,0.5,1.2,1.2,1.6,1.4C169.7,14.8,170.4,14.1,170.6,13.8z M171,10c0.1,0.1,0.1,0.1,0,0.2
		c-0.3,0.4-1.2,1.4-1.6,1.9c-0.1,0.1-0.1,0.1-0.3,0c-0.5-0.3-1.7-1.2-2-1.7c-0.1-0.1-0.1-0.1,0-0.3c0.4-0.6,1-1.3,1.5-1.8
		c0.2-0.2,0.3-0.2,0.3-0.2C169.4,8.8,170.3,9.5,171,10z"/>
	<path class="st0" d="M178.4,4.3c0.1-0.1,0.2,0,0.2,0.1c0,0.7-0.2,1.3-0.6,1.5l-4.7,2.6c-0.1,0-0.1,0-0.1-0.1c0-0.3,0.1-0.9,0.3-1.1
		c0.1-0.2,0.3-0.4,0.8-0.6L178.4,4.3z"/>
	<path class="st0" d="M177.5,23.8c-0.5,0.7-1.4,1.3-3,1.5c-0.4,0.1-1.1,0.1-1.6,0.1c-0.7,0-1.1-0.6-1.1-1.3c0-0.7,0.4-1.3,1.1-1.3
		h0.6c1.2,0,3,0,3.7-0.7c-0.1-1-0.9-2.3-1.2-2.8c0,0,0,0,0-0.1c0-0.4,0.8-2.1,0.8-2.2c0-0.1,0.1-0.1,0.1-0.1c0.4,0,1.3,1.8,1.3,4
		C178.3,21.9,178.2,22.9,177.5,23.8z M177.4,10.7c0.2-0.2,0.3-0.3,0.4-0.1c0.5,0.6,1.2,1.2,1.8,1.6c0.2,0.1,0.2,0.2,0,0.4
		c-0.5,0.6-1,1.1-1.5,1.7c-0.1,0.2-0.2,0.2-0.3,0c-0.4-0.3-1.1-0.8-1.6-1.4c-0.3,0.4-1,1.1-1.3,1.3c-0.1,0.1-0.2,0.2-0.4,0
		c-0.6-0.4-1.3-1-1.8-1.6c-0.1-0.1-0.1-0.2,0-0.4c0.4-0.5,1-1.2,1.6-1.8c0.1-0.1,0.2-0.1,0.4,0.1c0.4,0.5,1.2,1.2,1.6,1.4
		C176.5,11.7,177.1,11,177.4,10.7z"/>
	<path class="st0" d="M191.6,19.5c0,0,0,0.3,0,0.3c0,0.3-0.3,1.3-0.4,1.4c-0.2,0.1-4.3,0.2-4.9,0.2c0,0,0-0.2,0-0.3
		c0-0.4,0.2-1.4,0.3-1.4C187.8,19.7,190.9,19.6,191.6,19.5z"/>
	<path class="st0" d="M201.8,14.3c0,1.4-1.1,2.3-2.2,3.1c0,0,0,0.1,0,0.1c1.8,0.6,3.4,1.7,3.4,3.8c0,1.7-1,3.1-2.4,4
		c-1.1,0.7-2.4,1.2-3.8,1.2c-0.9,0-1.7-0.2-2.2-0.4c-0.4-0.2-0.5-0.4-0.8-0.9c-0.2-0.5-0.4-1.3-0.5-1.8c0-0.1,0.5-0.4,0.6-0.4
		c0.4,0.9,1,1.6,1.7,1.9c0.6,0.4,1.2,0.5,2.1,0.5c1.3,0,2.7-0.9,2.7-2.9c0-2-1.4-3.4-3.6-3.4c-0.3,0-0.4,0-0.8,0
		c0-0.1,0.3-1,0.4-1.1c2.2-0.5,3-1.3,3-2.7c0-1.3-0.8-2.5-2.4-2.5c-1,0-1.9,0.5-2.7,1.3c-0.2,0-0.4-0.5-0.4-0.6
		c0.8-1,2.4-2.5,4.4-2.5C200.4,10.9,201.8,12.4,201.8,14.3z"/>
</g>
</svg>
