<?xml version="1.0" encoding="utf-8"?>
<!-- Generator: Adobe Illustrator 19.2.0, SVG Export Plug-In . SVG Version: 6.00 Build 0)  -->
<svg version="1.1" id="Layer_1" xmlns="http://www.w3.org/2000/svg" xmlns:xlink="http://www.w3.org/1999/xlink" x="0px" y="0px"
	 viewBox="0 0 145.4 43.6" style="enable-background:new 0 0 145.4 43.6;" xml:space="preserve">
<style type="text/css">
	.st0{fill:#FFFFFF;}
</style>
<g>
	<path class="st0" d="M2.7,27.3c0.4,0.4,0.5,0.9,0.5,1.3c0,0.3-0.1,0.8-0.4,1.1C2.4,30,2,30.2,1.5,30.2c-0.3,0-0.7-0.2-1-0.4
		C0.1,29.4,0,29,0,28.5c0-0.4,0.2-0.8,0.5-1.2c0.3-0.3,0.7-0.5,1.1-0.5S2.4,27,2.7,27.3z"/>
	<path class="st0" d="M9.7,4.2c0.1,0.2,0.2,0.5,0.2,0.9c0,0.6-0.2,1.1-0.5,1.6c0.2,0.2,0.3,0.3,0.3,0.4c0,0.4-0.2,0.7-0.5,1.1
		L8.6,7.8C8,8.7,7.4,9.3,6.7,9.6C6,9.9,4.5,10.3,3.5,10.5c-0.3,0-0.5,0-0.5-0.1c0,0,0-0.1,0.2-0.2c2.6-1.4,4.2-2.3,4.8-2.9
		C7.5,7,7,6.6,7,5.9c0-0.5,0.4-1,0.8-1.4c0.4-0.4,0.9-0.7,1.3-0.7C9.3,3.9,9.5,4,9.7,4.2z M5,4.6C6,2.8,8.1,1.2,10.3,1.2
		c1.2,0,3,0.5,3,1.5c0,1.3-1.6,3.1-2.8,3.9c0,0,0,0-0.1,0c-0.1,0-0.3-0.2-0.3-0.3c0,0,0,0,0-0.1c1-0.9,1.6-1.5,1.6-2.2
		c-0.2-0.8-1.4-1.2-2.2-1.2C8,2.7,5.4,4.2,5.4,6.2c0,0.3,0.2,0.6,0.8,1c0,0,0,0,0,0.1C6,7.5,5.6,7.9,5,8.3c0,0-0.1,0.1-0.1,0.1
		c-0.1,0-0.8-0.5-0.8-1.1C4.1,6.5,4.5,5.4,5,4.6z M7.9,5.5C8,5.8,8.2,6,8.7,6.3c0.1-0.1,0.2-0.4,0.2-0.7c0-0.3-0.1-0.5-0.3-0.5
		C8.3,5.1,8.1,5.3,7.9,5.5z"/>
	<path class="st0" d="M9.8,12.6c0.2-0.2,0.3-0.3,0.4-0.1c0.5,0.6,1.2,1.2,1.8,1.6c0.2,0.1,0.2,0.2,0,0.4c-0.5,0.6-1,1.1-1.5,1.7
		c-0.1,0.2-0.2,0.2-0.3,0c-0.4-0.3-1.1-0.8-1.6-1.4c-0.3,0.4-1,1.1-1.3,1.3c-0.1,0.1-0.2,0.2-0.4,0c-0.6-0.4-1.3-1-1.8-1.6
		c-0.1-0.1-0.1-0.2,0-0.4c0.4-0.5,1-1.2,1.6-1.8c0.1-0.1,0.2-0.1,0.4,0.1c0.4,0.5,1.2,1.2,1.6,1.4C8.9,13.5,9.5,12.8,9.8,12.6z
		 M13.2,26.7c0.5,0.4,1,0.5,1.4,0.5h0.4c0.8,0,1.2,0.4,1.2,1.2c0,0.9-0.4,1.4-1.3,1.4h-0.4c-0.9,0-1.8-0.3-2.6-1
		c-0.8-0.7-1.3-1.8-1.6-3.5c-0.3,0.4-0.5,0.8-1,1.2c-0.7,0.5-1.8,0.7-3,0.7c-0.8,0-1.6-0.1-1.6-0.8c0.4-2.6,0.7-2.9,1.9-3.9
		c0.5-0.4,2.1-1.3,2.7-1.8c0-0.2,0-0.4,0-0.6c0-0.6,0.2-0.9,0.4-1.4c0.2-0.3,0.3-0.6,0.5-0.6c0.1,0,0.2,0.2,0.3,0.6
		c0.4,2.3,0.6,4.3,0.9,5.5C11.7,25.3,12.3,26.1,13.2,26.7z M9.7,22.1c-1.1,0.7-2.9,1.8-3,2.1c0,0.2,0.3,0.3,0.8,0.3
		c0.7,0,1.7-0.2,2.5-0.6C10,23.2,9.9,22.9,9.7,22.1z"/>
	<path class="st0" d="M16.6,21c-0.8,0-1.3-0.8-1.3-1.8c0-0.3,0-0.6,0.1-0.9c0.1-0.3,0.3-0.9,0.6-0.9c0.2,0,0.2,0.2,0.2,0.7v0.3
		c0,0.4,0.3,0.6,0.7,0.6h0c0.5,0,0.9-0.4,1-1.1c0.1-0.3,0.3-1.2,0.7-1.2c0.2,0,0.2,0.2,0.3,0.6c0,0.2,0.2,0.4,0.4,0.4
		c0.5,0,0.9-0.4,1-1c0.1-0.8,0.3-1,0.5-1c0.3,0,0.4,0.8,0.4,1.2c0,0.3,0,0.7-0.2,1.2c-0.3,0.8-0.8,1.4-1.7,1.4
		c-0.2,0-0.4-0.1-0.5-0.2c-0.1-0.1-0.1,0-0.2,0.1C18,20.4,17.4,21,16.6,21z M21,13.1C21.1,13.1,21.1,13.1,21,13.1
		c0,0.5-0.2,1-0.5,1.4c-0.1,0.1-0.3,0.2-0.5,0.4L15.5,17c0,0-0.1,0-0.1-0.1c0-0.2,0.1-0.5,0.2-0.8c0.2-0.4,0.3-0.5,0.3-0.5
		c0.1-0.1,0.2-0.2,0.4-0.2L21,13.1z"/>
	<path class="st0" d="M20,25.7c0,0.7,0.7,1.4,1.5,1.5c0.2,0,0.4,0,0.5,0h0.2c1,0,1,0.8,1,1.2c0,0.3,0,1.4-1,1.4h-0.2
		c-0.2,0-0.3,0-0.7,0c-1.8-0.2-2.4-1.7-2.5-1.9c-0.3,0.7-1.7,1.9-4.2,1.9h-0.1c-0.7,0-1.1-0.6-1.1-1.3c0-0.7,0.4-1.3,1.1-1.3h0.8
		c1.1,0,2.8-0.2,3.7-1.8c0.3-0.5,0.4-0.6,0.6-0.6C19.9,24.8,20,25.1,20,25.7z M19.8,33.4c0.2-0.2,0.3-0.3,0.4-0.1
		c0.5,0.6,1.2,1.2,1.8,1.6c0.2,0.1,0.2,0.2,0,0.4c-0.5,0.6-1,1.1-1.5,1.7c-0.1,0.2-0.2,0.2-0.3,0c-0.4-0.3-1.1-0.8-1.6-1.4
		c-0.3,0.4-1,1.1-1.3,1.3C17,37,17,37.1,16.7,37c-0.6-0.4-1.3-1-1.8-1.6c-0.1-0.1-0.1-0.2,0-0.4c0.4-0.5,1-1.2,1.6-1.8
		c0.1-0.1,0.2-0.1,0.4,0.1c0.4,0.5,1.2,1.2,1.6,1.4C18.9,34.3,19.5,33.6,19.8,33.4z"/>
	<path class="st0" d="M27.8,31.9c0.1-0.1,0.2,0,0.2,0.1c0,0.7-0.2,1.3-0.6,1.5l-4.7,2.6c-0.1,0-0.1,0-0.1-0.1c0-0.3,0.1-0.9,0.3-1.1
		c0.1-0.2,0.3-0.4,0.8-0.6L27.8,31.9z"/>
	<path class="st0" d="M22.1,27.3h0.3c0.7,0,1.2-0.2,1.5-0.5c0.5-0.5,0.5-1.2,0.5-2.1c0-1.7-0.1-5.2-0.4-10.5c0-0.6,0.2-1.2,0.6-2
		c0.2-0.4,0.4-0.7,0.5-0.7c0.1,0,0.3,0.2,0.3,0.8c0.3,3.9,0.4,9.2,0.8,12.9c0.1,0.7,0.4,1.3,0.9,1.6c0.3,0.3,0.7,0.4,1.1,0.4h0.3
		c0.7,0,1.1,0.4,1.1,1.3c0,0.9-0.4,1.3-1.1,1.3h-0.3c-1.6,0-2.8-1.2-3.2-2.7c-0.4,1.8-1.3,2.7-2.8,2.7h-0.2c-0.8,0-1.2-0.5-1.2-1.4
		C20.9,27.7,21.3,27.3,22.1,27.3z"/>
	<path class="st0" d="M35.5,13.8c0.8,0,1.9,1.1,1.9,2.4c0,0.5-0.1,0.9-0.2,1.4c-0.3,0.9-1.1,1.4-2,1.4c-0.9,0-1.5-0.7-1.5-1.5
		C33.6,16.3,34.9,13.8,35.5,13.8z M35.2,15.7c-0.3,0-0.8,0.7-0.8,1.1c0,0.3,0.4,0.6,0.9,0.6c0.6,0,1.3-0.3,1.3-0.5
		C36.6,16.6,35.9,15.7,35.2,15.7z"/>
	<path class="st0" d="M33.4,31.3c-0.1,0-0.2-0.1-0.2-0.2c0-0.1,0-0.2,0.1-0.3c0.1-0.4,0.3-0.8,0.5-1.3c-1.2-0.4-2-1.2-2.3-2.2
		c-0.9,1.7-1.8,2.6-3,2.6h-0.3c-0.8,0-1.1-0.4-1.1-1.3c0-0.9,0.4-1.3,1.1-1.3h0.3c1.5,0,2.5-0.9,3.2-2.6c0.3-0.7,0.5-1,0.7-1
		c0.2,0,0.4,0.3,0.4,0.8c0,0.9,0.5,2.2,2.6,2.6c2.3-2.9,6.4-6.2,8.2-6.2c0.7,0,1.5,0.3,2.2,0.7c0.8,0.5,1.1,1.1,1.1,1.7
		c0,0.9-0.5,2.5-1.3,3.6c-0.9,1.1-2.9,2-5.2,2.5c-1.3,0.3-2.6,0.5-3.8,0.5c-0.8,0-1.5-0.1-2-0.2c-0.3,0.3-0.5,0.8-0.7,1.1
		C33.8,30.9,33.6,31.3,33.4,31.3z M45.3,25.1c0-0.7-1.8-1.7-2.8-1.7c-1.7,0-4.4,2.1-6.1,3.8c0.3,0,0.5,0,0.8,0
		C40.3,27.2,44.3,25.8,45.3,25.1C45.2,25.2,45.3,25.2,45.3,25.1z"/>
	<path class="st0" d="M53.3,0c0.1-0.1,0.2,0,0.2,0.1c0,0.7-0.2,1.3-0.6,1.5l-4.7,2.6c-0.1,0-0.1,0-0.1-0.1c0-0.3,0.1-0.9,0.3-1.1
		c0.1-0.2,0.3-0.4,0.8-0.6L53.3,0z"/>
	<path class="st0" d="M53,8.8c-1,0.5-3,1.7-4.6,2.9c-0.1,0-0.1,0-0.1,0c0,0-0.1,0-0.1-0.1c0-0.1,0.1-0.4,0.2-0.8
		c0.1-0.2,0.6-0.7,1-1c0,0,0.1-0.1,0.1-0.1c0,0,0-0.1-0.2-0.1c-0.7-0.3-1-0.4-1.1-1.1c0-0.1,0-0.1,0-0.2c0-1.1,1.1-2.6,2.1-3.4
		c0.4-0.3,0.8-0.5,1.2-0.5c0.6,0,0.9,0.3,0.9,0.8c0,0.3-0.1,0.7-0.3,1.1c-0.1,0.3-0.2,0.4-0.3,0.4c-0.1,0-0.2-0.1-0.3-0.2
		c-0.2-0.2-0.3-0.3-0.7-0.3c-0.9,0-1.5,0.5-1.5,0.8c0,0.4,1.5,1,2.1,1c0.1,0,0.1,0,0.2,0C52,8.1,53,7.7,53.4,7.5
		c0.2-0.1,0.3-0.2,0.4-0.2c0,0,0.1,0,0.1,0.1c0,0.1-0.1,0.3-0.1,0.5C53.4,8.6,53.2,8.7,53,8.8z M51.3,29.9c-0.1,0-0.2-0.2-0.2-0.8
		c0-3.4-1.3-13-1.3-14.5c0-0.8,0.5-2,1-2.8c0.1-0.3,0.4-0.6,0.5-0.6c0.1,0,0.2,0.2,0.2,0.9c0.1,2.5,0.8,8.3,0.8,12.6
		c0,1.7-0.1,3.1-0.4,4C51.8,29.4,51.5,29.9,51.3,29.9z"/>
	<path class="st0" d="M70,5.6c0.1,0.2,0.2,0.5,0.2,0.9c0,0.6-0.2,1.1-0.5,1.6C69.9,8.3,70,8.5,70,8.6c0,0.4-0.2,0.7-0.5,1.1L69,9.2
		c-0.7,0.9-1.3,1.5-1.9,1.8c-0.7,0.3-2.2,0.7-3.2,0.9c-0.3,0-0.5,0-0.5-0.1c0,0,0-0.1,0.2-0.2c2.6-1.4,4.2-2.3,4.8-2.9
		c-0.4-0.4-0.9-0.8-0.9-1.4c0-0.5,0.4-1,0.8-1.4c0.4-0.4,0.9-0.7,1.3-0.7C69.7,5.3,69.9,5.4,70,5.6z M65.3,6
		c1.1-1.9,3.2-3.4,5.4-3.4c1.2,0,3,0.5,3,1.5c0,1.3-1.6,3.1-2.8,3.9c0,0,0,0-0.1,0c-0.1,0-0.3-0.2-0.3-0.3c0,0,0,0,0-0.1
		c1-0.9,1.6-1.5,1.6-2.2C72,4.5,70.8,4.1,70,4.1c-1.7,0-4.3,1.5-4.3,3.5c0,0.3,0.2,0.6,0.8,1c0,0,0,0,0,0.1
		c-0.2,0.3-0.5,0.7-1.1,1.1c0,0-0.1,0.1-0.1,0.1c-0.1,0-0.8-0.5-0.8-1.1C64.4,7.9,64.8,6.8,65.3,6z M68.3,6.9
		c0.1,0.2,0.3,0.5,0.8,0.7c0.1-0.1,0.2-0.4,0.2-0.7c0-0.3-0.1-0.5-0.3-0.5C68.7,6.5,68.4,6.7,68.3,6.9z"/>
	<path class="st0" d="M63.4,30.7c-1.1-1-1.6-2.4-1.6-3.9c0-1.7,1-3.7,1.6-4.5c0.2-0.3,0.4-0.5,0.6-0.5c0.1,0,0.1,0.1,0.1,0.2
		c0,0.2-0.1,0.4-0.2,0.6c-0.5,1-1,2.1-1,3.3c0,1,0.7,1.8,1.5,2.4c0.9,0.6,2,0.9,3.1,0.9c2.8,0,6.5-1.2,7.3-3.1c0-0.2,0-0.3,0-0.5
		c0-1.2-0.4-2.6-1-3.6c-0.3-0.4-0.5-0.8-0.5-1c0,0,0-0.1,0-0.2c0-0.2,0.1-0.5,0.2-0.9c0.2-0.5,0.3-0.9,0.5-1.2
		c0.1-0.2,0.2-0.3,0.2-0.3c0.1,0,0.1,0,0.3,0.3c0.8,1.7,1.4,3.3,1.4,5.4c0,1.6-0.2,2.6-0.4,3.1c-0.4,1-0.7,1.5-1.3,2.1
		c-0.5,0.6-1.6,1.3-2.8,1.9s-2.8,0.8-4.7,0.8C65.6,31.9,64.4,31.6,63.4,30.7z M70.9,14.9c0.1,0.1,0.1,0.1,0,0.2
		c-0.3,0.4-1.2,1.4-1.6,1.9c-0.1,0.1-0.1,0.1-0.3,0c-0.5-0.3-1.7-1.2-2-1.7c-0.1-0.1-0.1-0.1,0-0.3c0.4-0.6,1-1.3,1.5-1.8
		c0.2-0.2,0.3-0.2,0.3-0.2C69.3,13.6,70.1,14.3,70.9,14.9z"/>
	<path class="st0" d="M74.8,36.7c-0.4-0.2-0.5-0.3-0.5-0.5c0-0.1,0.2-0.2,0.4-0.2c0.3,0,1.3,0.2,2.1,0.2c0.7,0,1.4-0.2,2.4-0.7
		c2.8-1.4,4.5-3.4,4.5-4.8c0-0.2,0-0.4-0.1-0.8h-0.8c-0.6,0-1.7-0.1-2.5-0.5c-0.8-0.4-1.1-1-1.1-1.8c0-0.7,0.3-1.7,0.7-2.5
		c0.6-1.4,1.4-2.5,2.1-2.5c0.8,0,1.5,0.6,2,1.3c0.5,0.8,0.8,2.1,0.8,3.2H86c0.7,0,1.1,0.4,1.1,1.2c0,0.9-0.3,1.4-1,1.4l-1.2,0.1
		c-0.2,4-1.5,6.6-4.7,7.8c-0.2,0.1-0.4,0.1-0.7,0.1C78.3,37.9,76.4,37.4,74.8,36.7z M82,25.6c-0.2-0.1-0.3-0.3-0.6-0.3
		c-0.5,0-0.9,0.6-0.9,0.9c0,0.3,0.3,0.5,0.9,0.8c0.5,0.2,1,0.3,1.3,0.3c0.2,0,0.3,0,0.3-0.1C82.9,26.9,82.5,26.1,82,25.6z"/>
	<path class="st0" d="M90.7,6.5c0,0.6-0.1,1.1-0.3,1.7c0.3,0.2,0.4,0.3,0.4,0.4c0,0.4-0.2,0.8-0.4,1.1c-0.1,0.1-0.1,0.1-0.1,0.1
		l-0.6-0.4c-0.6,0.9-1.5,2-2.8,2.6c-0.5,0.2-1.1,0.4-1.7,0.4c-0.3,0-0.5-0.1-0.5-0.2c0-0.2,0.2-0.2,0.6-0.4c1-0.5,2.9-2,3.5-2.9
		c-0.5-0.4-1.2-0.8-1.2-1.6c0-0.5,0.3-1,0.7-1.5c0.5-0.6,1-0.9,1.4-0.9C90.5,5.1,90.7,5.9,90.7,6.5z M88.7,7
		C88.6,7.1,88.6,7.1,88.7,7c0,0.2,0.5,0.6,0.9,0.8c0.1-0.2,0.1-0.4,0.1-0.8c0-0.3-0.1-0.5-0.4-0.5C89.1,6.5,88.8,6.7,88.7,7z"/>
	<path class="st0" d="M90.1,28.3c-0.5,0.7-1.4,1.3-3,1.5c-0.4,0.1-1.1,0.1-1.6,0.1c-0.7,0-1.1-0.6-1.1-1.3c0-0.7,0.4-1.3,1.1-1.3
		h0.6c1.2,0,3,0,3.7-0.7c-0.1-1-0.9-2.3-1.2-2.8c0,0,0,0,0-0.1c0-0.4,0.8-2.1,0.8-2.2c0-0.1,0.1-0.1,0.1-0.1c0.4,0,1.3,1.8,1.3,4
		C90.9,26.3,90.8,27.4,90.1,28.3z M90.9,15.6c0.1,0.1,0.1,0.1,0,0.2c-0.3,0.4-1.2,1.4-1.6,1.9c-0.1,0.1-0.1,0.1-0.3,0
		c-0.5-0.3-1.7-1.2-2-1.7c-0.1-0.1-0.1-0.1,0-0.3c0.4-0.6,1-1.3,1.5-1.8c0.2-0.2,0.3-0.2,0.3-0.2C89.2,14.4,90.1,15.1,90.9,15.6z"/>
	<path class="st0" d="M108.1,20.5c0.1-0.1,0.2,0,0.2,0.1c0,0.7-0.2,1.3-0.6,1.5l-4.7,2.6c-0.1,0-0.1,0-0.1-0.1
		c0-0.3,0.1-0.9,0.3-1.1c0.1-0.2,0.3-0.4,0.8-0.6L108.1,20.5z"/>
	<path class="st0" d="M109.3,39.9c0.2-0.2,0.3-0.3,0.4-0.1c0.5,0.6,1.2,1.2,1.8,1.6c0.2,0.1,0.2,0.2,0,0.4c-0.5,0.6-1,1.1-1.5,1.7
		c-0.1,0.2-0.2,0.2-0.3,0c-0.4-0.3-1.1-0.8-1.6-1.4c-0.3,0.4-1,1.1-1.3,1.3c-0.1,0.1-0.2,0.2-0.4,0c-0.6-0.4-1.3-1-1.8-1.6
		c-0.1-0.1-0.1-0.2,0-0.4c0.4-0.5,1-1.2,1.6-1.8c0.1-0.1,0.2-0.1,0.4,0.1c0.4,0.5,1.2,1.2,1.6,1.4C108.4,40.9,109,40.2,109.3,39.9z"
		/>
	<path class="st0" d="M121.6,32.2c0.1-0.1,0.2,0,0.2,0.1c0,0.7-0.2,1.3-0.6,1.5l-4.7,2.6c-0.1,0-0.1,0-0.1-0.1
		c0-0.3,0.1-0.9,0.3-1.1c0.1-0.2,0.3-0.4,0.8-0.6L121.6,32.2z"/>
	<path class="st0" d="M101,26.7c0.4-0.7,0.7-0.9,0.8-0.9c0.3,0-0.1,1-0.2,1.1c-0.4,0.8-1.1,2.4-1.1,3.8c0,2.7,2.2,4.3,5.3,4.4
		c3.2,0,8-2.2,8.8-3.2c0-0.2-0.5-0.4-1.8-0.5c-2.6-0.2-3.8-0.7-3.8-1.6c0-0.5,0.1-1.1,0.4-1.8c0.6-1.2,1.5-2,2.9-2.6
		c-0.2-0.4-0.3-0.8-0.3-1.3c0-1.4,0.6-3.1,1.3-3.9c-0.1-0.1-0.2-0.3-0.2-0.6c0-0.5,0.3-2.5,1-2.5c1.9,0,7.1,3.8,7.2,7.5
		c0,1.9-0.8,3-1.9,3c-0.4,0-0.9-0.1-1.3-0.2c-1.2-0.3-2.1-0.7-3.3-0.9c-0.4,0-1.1,0.2-2.3,0.6c-1,0.3-1.6,0.7-1.8,0.9
		c-0.1,0.1-0.1,0.2-0.1,0.3c0,0.5,0.7,0.9,2,1.1c1.5,0.1,2.5,0.3,2.9,0.5c0.4,0.2,0.6,0.5,0.6,1.2c0,0.8-0.3,1.4-0.6,1.8
		c-1.7,2.8-6.9,5-10.1,4.9c-2.6,0-5.9-1.1-6-5.4C99.4,30.1,100.3,28,101,26.7z M114.8,20.8c-0.5,0-1.7,1.3-1.7,1.8
		c0,0.6,0.5,1.3,1.7,1.5c0.5-0.3,1.3-0.7,1.5-1.1C116.5,22,115.1,20.8,114.8,20.8z M117.5,21.7c0,0.2,0,0.3,0,0.5
		c0,1.2-0.7,2.1-0.9,2.2c1.7,0.4,2.8,1.2,3.9,1.1C120.3,24.3,119.1,22.6,117.5,21.7z"/>
	<path class="st0" d="M134.8,24c0,0,0,0.3,0,0.3c0,0.3-0.3,1.3-0.4,1.4c-0.2,0.1-4.3,0.2-4.9,0.2c0,0,0-0.2,0-0.3
		c0-0.4,0.2-1.4,0.3-1.4C131,24.1,134.2,24,134.8,24z"/>
	<path class="st0" d="M145.3,29.9c-0.9,0-2.1-0.1-3.6-0.1c-1.6,0-2.8,0.1-3.5,0.1c-0.1-0.1-0.1-0.7,0-0.8c0.6-0.1,1-0.1,1.4-0.2
		c0.7-0.1,0.8-0.7,0.9-1.4c0-1,0-2.8,0.1-4.9c0-2.1,0-4-0.1-4.5c0-0.4-0.2-0.7-0.6-0.8c-0.3,0-0.9-0.1-1.3-0.1c-0.1-0.1,0-0.7,0-0.8
		c1.5-0.1,3.4-0.7,4.4-1.2c0.1,0,0.3,0,0.3,0.1c-0.1,0.8-0.1,1.6-0.1,4.8c0,1.6,0,5.8,0.1,7.1c0,0.9,0.2,1.3,0.8,1.5
		c0.5,0.1,0.9,0.2,1.5,0.2C145.4,29.3,145.4,29.8,145.3,29.9z"/>
</g>
</svg>
