<?xml version="1.0" encoding="utf-8"?>
<!-- Generator: Adobe Illustrator 19.2.0, SVG Export Plug-In . SVG Version: 6.00 Build 0)  -->
<svg version="1.1" id="Layer_1" xmlns="http://www.w3.org/2000/svg" xmlns:xlink="http://www.w3.org/1999/xlink" x="0px" y="0px"
	 viewBox="0 0 136 41" style="enable-background:new 0 0 136 41;" xml:space="preserve">
<style type="text/css">
	.st0{fill:#FFFFFF;}
</style>
<g>
	<path class="st0" d="M2.7,24.7c0.4,0.4,0.5,0.9,0.5,1.3c0,0.3-0.1,0.8-0.4,1.1c-0.3,0.3-0.8,0.5-1.2,0.5c-0.3,0-0.7-0.2-1-0.4
		C0.1,26.8,0,26.4,0,25.9c0-0.4,0.2-0.8,0.5-1.2c0.3-0.3,0.7-0.5,1.1-0.5S2.4,24.4,2.7,24.7z"/>
	<path class="st0" d="M10.1,3.7c0.1,0.2,0.2,0.5,0.2,0.9c0,0.6-0.2,1.1-0.5,1.6c0.2,0.2,0.3,0.3,0.3,0.4C10,7,9.9,7.3,9.6,7.7L9,7.3
		C8.4,8.2,7.8,8.7,7.1,9C6.4,9.3,4.9,9.8,3.9,9.9c-0.3,0-0.5,0-0.5-0.1c0,0,0-0.1,0.2-0.2c2.6-1.4,4.2-2.3,4.8-2.9
		C7.9,6.4,7.4,6,7.4,5.3c0-0.5,0.4-1,0.8-1.4C8.6,3.5,9,3.3,9.5,3.3C9.7,3.3,9.9,3.4,10.1,3.7z M5.3,4c1.1-1.9,3.2-3.4,5.4-3.4
		c1.2,0,3,0.5,3,1.5c0,1.3-1.6,3.1-2.8,3.9c0,0,0,0-0.1,0c-0.1,0-0.3-0.2-0.3-0.3c0,0,0,0,0-0.1c1-0.9,1.6-1.5,1.6-2.2
		c-0.2-0.8-1.4-1.2-2.2-1.2c-1.7,0-4.3,1.5-4.3,3.5c0,0.3,0.2,0.6,0.8,1c0,0,0,0,0,0.1C6.3,7,6,7.4,5.4,7.8c0,0-0.1,0.1-0.1,0.1
		c-0.1,0-0.8-0.5-0.8-1.1C4.5,6,4.9,4.8,5.3,4z M8.3,5c0.1,0.2,0.3,0.5,0.8,0.7C9.2,5.6,9.3,5.3,9.3,5c0-0.3-0.1-0.5-0.3-0.5
		C8.7,4.5,8.5,4.7,8.3,5z"/>
	<path class="st0" d="M10.1,11.8c0.2-0.2,0.3-0.3,0.4-0.1c0.5,0.6,1.2,1.2,1.8,1.6c0.2,0.1,0.2,0.2,0,0.4c-0.5,0.6-1,1.1-1.5,1.7
		c-0.1,0.2-0.2,0.2-0.3,0c-0.4-0.3-1.1-0.8-1.6-1.4c-0.3,0.4-1,1.1-1.3,1.3c-0.1,0.1-0.2,0.2-0.4,0c-0.6-0.4-1.3-1-1.8-1.6
		c-0.1-0.1-0.1-0.2,0-0.4c0.4-0.5,1-1.2,1.6-1.8C7,11.6,7,11.6,7.2,11.8c0.4,0.5,1.2,1.2,1.6,1.4C9.2,12.8,9.8,12.1,10.1,11.8z
		 M8.8,18.4c0.4,0,1.1,0.3,1.6,0.7c0.9,0.7,1.7,1.9,1.7,3.4c0,0.8-0.1,1.6-0.4,2.4c-0.5,1.6-1.8,2.5-3.5,2.5c-1.6,0-2.7-1.2-2.7-2.6
		C5.5,22.7,7.8,18.4,8.8,18.4z M10.8,23.5c-0.5-0.9-1.5-2.1-2.5-2.1c-0.1,0-0.2,0-0.3,0.1c-0.8,0.5-1.3,1.5-1.3,2
		c0,0.5,0.8,1.2,1.7,1.2c0.5,0,1.9-0.3,2.3-0.8c0-0.1,0.1-0.1,0.1-0.2C10.8,23.6,10.8,23.5,10.8,23.5z"/>
	<path class="st0" d="M23.9,7.4C24,7.4,24,7.4,24,7.5c0,0.7-0.2,1.3-0.6,1.5l-4.7,2.6c-0.1,0-0.1,0-0.1-0.1c0-0.3,0.1-0.9,0.3-1.1
		c0.1-0.2,0.3-0.4,0.8-0.6L23.9,7.4z"/>
	<path class="st0" d="M25.8,24.7h0.4c0.8,0,1.1,0.4,1.1,1.3c0,0.9-0.4,1.3-1.2,1.3h-0.3c-0.9,0-1.5-0.3-2-0.8
		c-0.5-0.4-0.9-1.1-1.3-2.2c-0.4,1.8-2.5,3-5.2,3c-0.8,0-1.7-0.1-2.4-0.6c-0.5-0.3-0.8-0.7-0.8-1.2c0-0.6,0.2-1.5,0.5-2.2
		c0.1-0.2,0.2-0.4,0.4-0.4c0.2,0,0.2,0.1,0.3,0.4c0.3,0.8,1.4,1.1,2.6,1.1c2.4,0,3.6-0.5,4.1-1.5c0-0.2,0.1-0.5,0.1-0.8
		c0-1.4-0.5-3.3-0.8-5.1c0-0.2-0.1-0.4-0.1-0.5c0-0.1,0.1-0.4,0.6-1.7c0.2-0.4,0.3-0.7,0.4-0.7c0.1,0,0.2,0.2,0.3,0.7
		c0.9,3.8,0.9,6.5,1.4,8c0.1,0.4,0.3,0.7,0.5,1C24.8,24.4,25.3,24.6,25.8,24.7z"/>
	<path class="st0" d="M31.5,29.5c0.1-0.1,0.2,0,0.2,0.1c0,0.7-0.2,1.3-0.6,1.5l-4.7,2.6c-0.1,0-0.1,0-0.1-0.1c0-0.3,0.1-0.9,0.3-1.1
		c0.1-0.2,0.3-0.4,0.8-0.6L31.5,29.5z"/>
	<path class="st0" d="M30.3,25.7c-0.5,0.7-1.4,1.3-3,1.5c-0.4,0.1-1.1,0.1-1.6,0.1c-0.7,0-1.1-0.6-1.1-1.3c0-0.7,0.4-1.3,1.1-1.3
		h0.6c1.2,0,3,0,3.7-0.7c-0.1-1-0.9-2.3-1.2-2.8c0,0,0,0,0-0.1c0-0.4,0.8-2.1,0.8-2.2c0-0.1,0.1-0.1,0.1-0.1c0.4,0,1.3,1.8,1.3,4
		C31,23.8,30.9,24.8,30.3,25.7z M31,14.3c-1,0.5-3,1.7-4.6,2.9c-0.1,0-0.1,0-0.1,0c0,0-0.1,0-0.1-0.1c0-0.1,0.1-0.4,0.2-0.8
		c0.1-0.2,0.6-0.7,1-1c0,0,0.1-0.1,0.1-0.1c0,0,0-0.1-0.2-0.1c-0.7-0.3-1-0.4-1.1-1.1c0-0.1,0-0.1,0-0.2c0-1.1,1.1-2.6,2.1-3.4
		c0.4-0.3,0.8-0.5,1.2-0.5c0.6,0,0.9,0.3,0.9,0.8c0,0.3-0.1,0.7-0.3,1.1c-0.1,0.3-0.2,0.4-0.3,0.4c-0.1,0-0.2-0.1-0.3-0.2
		c-0.2-0.2-0.3-0.3-0.7-0.3c-0.9,0-1.5,0.5-1.5,0.8c0,0.4,1.5,1,2.1,1c0.1,0,0.1,0,0.2,0c0.3-0.1,1.3-0.5,1.7-0.7
		c0.2-0.1,0.3-0.2,0.4-0.2c0,0,0.1,0,0.1,0.1c0,0.1-0.1,0.3-0.1,0.5C31.4,14,31.2,14.2,31,14.3z"/>
	<path class="st0" d="M35.5,27.3c-0.1,0-0.2-0.2-0.2-0.8c0-3.4-1.3-13-1.3-14.5c0-0.8,0.5-2,1-2.8c0.1-0.3,0.4-0.6,0.5-0.6
		c0.1,0,0.2,0.2,0.2,0.9c0.1,2.5,0.8,8.3,0.8,12.6c0,1.7-0.1,3.1-0.4,4C35.9,26.8,35.7,27.3,35.5,27.3z"/>
	<path class="st0" d="M44.3,26.4c0,3.9-1.8,6.9-4.8,8.1c-0.2,0.1-0.4,0.1-0.7,0.1c-1,0-3.3-0.6-4.6-1.3c-0.4-0.2-0.4-0.3-0.4-0.4
		c0-0.1,0.2-0.2,0.3-0.2c0.3,0,1.2,0.2,2.1,0.2c0.8,0,1.4-0.2,2.5-0.7c1.3-0.6,3.7-2.6,4.4-4.3c0.1-0.2,0.2-0.6,0.2-0.8
		c0-0.2-0.1-1.2-1.1-2.7c-0.4-0.5-0.6-0.9-0.9-1.4c-0.1-0.1-0.1-0.2-0.1-0.3c0-0.3,0.5-1.5,0.7-1.9c0.1-0.1,0.2-0.2,0.2-0.2
		c0.5,0,1.6,2,2,3.6C44.3,24.9,44.3,25.6,44.3,26.4z M43.5,14.5c0.1,0.1,0.1,0.1,0,0.2c-0.3,0.4-1.2,1.4-1.6,1.9
		c-0.1,0.1-0.1,0.1-0.3,0c-0.5-0.3-1.7-1.2-2-1.7c-0.1-0.1-0.1-0.1,0-0.3c0.4-0.6,1-1.3,1.5-1.8c0.2-0.2,0.3-0.2,0.3-0.2
		C41.9,13.2,42.8,14,43.5,14.5z"/>
	<path class="st0" d="M60.7,3c0.1,0.2,0.2,0.5,0.2,0.9c0,0.6-0.2,1.1-0.5,1.6c0.2,0.2,0.3,0.3,0.3,0.4c0,0.4-0.2,0.7-0.5,1.1
		l-0.5-0.4c-0.7,0.9-1.3,1.5-1.9,1.8c-0.7,0.3-2.2,0.7-3.2,0.9c-0.3,0-0.5,0-0.5-0.1c0,0,0-0.1,0.2-0.2c2.6-1.4,4.2-2.3,4.8-2.9
		C58.5,5.8,58,5.4,58,4.7c0-0.5,0.4-1,0.8-1.4c0.4-0.4,0.9-0.7,1.3-0.7C60.3,2.7,60.5,2.8,60.7,3z M55.9,3.4C57,1.6,59.1,0,61.3,0
		c1.2,0,3,0.5,3,1.5c0,1.3-1.6,3.1-2.8,3.9c0,0,0,0-0.1,0c-0.1,0-0.3-0.2-0.3-0.3c0,0,0,0,0-0.1c1-0.9,1.6-1.5,1.6-2.2
		c-0.2-0.8-1.4-1.2-2.2-1.2C59,1.5,56.4,3,56.3,5c0,0.3,0.2,0.6,0.8,1c0,0,0,0,0,0.1c-0.2,0.3-0.5,0.7-1.1,1.1c0,0-0.1,0.1-0.1,0.1
		c-0.1,0-0.8-0.5-0.8-1.1C55,5.3,55.5,4.2,55.9,3.4z M58.9,4.3c0.1,0.2,0.3,0.5,0.8,0.7c0.1-0.1,0.2-0.4,0.2-0.7
		c0-0.3-0.1-0.5-0.3-0.5C59.3,3.9,59,4.1,58.9,4.3z"/>
	<path class="st0" d="M54.1,28.1c-1.1-1-1.6-2.4-1.6-3.9c0-1.7,1-3.7,1.6-4.5c0.2-0.3,0.4-0.5,0.6-0.5c0.1,0,0.1,0.1,0.1,0.2
		c0,0.2-0.1,0.4-0.2,0.6c-0.5,1-1,2.1-1,3.3c0,1,0.7,1.8,1.5,2.4c0.9,0.6,2,0.9,3.1,0.9c2.8,0,6.5-1.2,7.3-3.1c0-0.2,0-0.3,0-0.5
		c0-1.2-0.4-2.6-1-3.6c-0.3-0.4-0.5-0.8-0.5-1c0,0,0-0.1,0-0.2c0-0.2,0.1-0.5,0.2-0.9c0.2-0.5,0.3-0.9,0.5-1.2
		c0.1-0.2,0.2-0.3,0.2-0.3c0.1,0,0.1,0,0.3,0.3c0.8,1.7,1.4,3.3,1.4,5.4c0,1.6-0.2,2.6-0.4,3.1c-0.4,1-0.7,1.5-1.3,2.1
		c-0.5,0.6-1.6,1.3-2.8,1.9c-1.3,0.5-2.8,0.8-4.7,0.8C56.2,29.3,55,29,54.1,28.1z M61.5,12.3c0.1,0.1,0.1,0.1,0,0.2
		c-0.3,0.4-1.2,1.4-1.6,1.9c-0.1,0.1-0.1,0.1-0.3,0c-0.5-0.3-1.7-1.2-2-1.7c-0.1-0.1-0.1-0.1,0-0.3c0.4-0.6,1-1.3,1.5-1.8
		c0.2-0.2,0.3-0.2,0.3-0.2C59.9,11,60.7,11.8,61.5,12.3z"/>
	<path class="st0" d="M74.1,12.2c0,0.6-0.1,1.1-0.3,1.7c0.3,0.2,0.4,0.3,0.4,0.4c0,0.4-0.2,0.8-0.4,1.1c-0.1,0.1-0.1,0.1-0.1,0.1
		l-0.6-0.4c-0.6,0.9-1.5,2-2.8,2.6c-0.5,0.2-1.1,0.4-1.7,0.4c-0.3,0-0.5-0.1-0.5-0.2c0-0.2,0.2-0.2,0.6-0.4c1-0.5,2.9-2,3.5-2.9
		c-0.5-0.4-1.2-0.8-1.2-1.6c0-0.5,0.3-1,0.7-1.5c0.5-0.6,1-0.9,1.4-0.9C73.8,10.8,74,11.6,74.1,12.2z M72,12.7
		C72,12.8,72,12.8,72,12.7c0,0.2,0.5,0.6,0.9,0.8c0.1-0.2,0.1-0.4,0.1-0.8c0-0.3-0.1-0.5-0.4-0.5C72.5,12.2,72.2,12.4,72,12.7z"/>
	<path class="st0" d="M65.5,34.1c-0.4-0.2-0.5-0.3-0.5-0.5c0-0.1,0.2-0.2,0.4-0.2c0.3,0,1.3,0.2,2.1,0.2c0.7,0,1.4-0.2,2.4-0.7
		c2.8-1.4,4.5-3.4,4.5-4.8c0-0.2,0-0.4-0.1-0.8h-0.8c-0.6,0-1.7-0.1-2.5-0.5c-0.8-0.4-1.1-1-1.1-1.8c0-0.7,0.3-1.7,0.7-2.5
		c0.6-1.4,1.4-2.5,2.1-2.5c0.8,0,1.5,0.6,2,1.3c0.5,0.8,0.8,2.1,0.8,3.2h1.1c0.7,0,1.1,0.4,1.1,1.2c0,0.9-0.3,1.4-1,1.4l-1.2,0.1
		c-0.2,4-1.5,6.6-4.7,7.8c-0.2,0.1-0.4,0.1-0.7,0.1C68.9,35.3,67,34.8,65.5,34.1z M72.6,23c-0.2-0.1-0.3-0.3-0.6-0.3
		c-0.5,0-0.9,0.6-0.9,0.9c0,0.3,0.3,0.5,0.9,0.8c0.5,0.2,1,0.3,1.3,0.3c0.2,0,0.3,0,0.3-0.1C73.6,24.3,73.1,23.5,72.6,23z"/>
	<path class="st0" d="M80.8,25.7c-0.5,0.7-1.4,1.3-3,1.5c-0.4,0.1-1.1,0.1-1.6,0.1c-0.7,0-1.1-0.6-1.1-1.3c0-0.7,0.4-1.3,1.1-1.3
		h0.6c1.2,0,3,0,3.7-0.7c-0.1-1-0.9-2.3-1.2-2.8c0,0,0,0,0-0.1c0-0.4,0.8-2.1,0.8-2.2c0-0.1,0.1-0.1,0.1-0.1c0.4,0,1.3,1.8,1.3,4
		C81.5,23.8,81.4,24.8,80.8,25.7z M81.5,13c0.1,0.1,0.1,0.1,0,0.2c-0.3,0.4-1.2,1.4-1.6,1.9c-0.1,0.1-0.1,0.1-0.3,0
		c-0.5-0.3-1.7-1.2-2-1.7c-0.1-0.1-0.1-0.1,0-0.3c0.4-0.6,1-1.3,1.5-1.8c0.2-0.2,0.3-0.2,0.3-0.2C79.9,11.8,80.7,12.5,81.5,13z"/>
	<path class="st0" d="M98.8,17.9c0.1-0.1,0.2,0,0.2,0.1c0,0.7-0.2,1.3-0.6,1.5l-4.7,2.6c-0.1,0-0.1,0-0.1-0.1c0-0.3,0.1-0.9,0.3-1.1
		c0.1-0.2,0.3-0.4,0.8-0.6L98.8,17.9z"/>
	<path class="st0" d="M100,37.3c0.2-0.2,0.3-0.3,0.4-0.1c0.5,0.6,1.2,1.2,1.8,1.6c0.2,0.1,0.2,0.2,0,0.4c-0.5,0.6-1,1.1-1.5,1.7
		c-0.1,0.2-0.2,0.2-0.3,0c-0.4-0.3-1.1-0.8-1.6-1.4c-0.3,0.4-1,1.1-1.3,1.3c-0.1,0.1-0.2,0.2-0.4,0c-0.6-0.4-1.3-1-1.8-1.6
		c-0.1-0.1-0.1-0.2,0-0.4c0.4-0.5,1-1.2,1.6-1.8c0.1-0.1,0.2-0.1,0.4,0.1c0.4,0.5,1.2,1.2,1.6,1.4C99,38.3,99.7,37.6,100,37.3z"/>
	<path class="st0" d="M112.2,29.6c0.1-0.1,0.2,0,0.2,0.1c0,0.7-0.2,1.3-0.6,1.5l-4.7,2.6c-0.1,0-0.1,0-0.1-0.1
		c0-0.3,0.1-0.9,0.3-1.1c0.1-0.2,0.3-0.4,0.8-0.6L112.2,29.6z"/>
	<path class="st0" d="M91.6,24.1c0.4-0.7,0.7-0.9,0.8-0.9c0.3,0-0.1,1-0.2,1.1c-0.4,0.8-1.1,2.4-1.1,3.8c0,2.7,2.2,4.3,5.3,4.4
		c3.2,0,8-2.2,8.8-3.2c0-0.2-0.5-0.4-1.8-0.5c-2.6-0.2-3.8-0.7-3.8-1.6c0-0.5,0.1-1.1,0.4-1.8c0.6-1.2,1.5-2,2.9-2.6
		c-0.2-0.4-0.3-0.8-0.3-1.3c0-1.4,0.6-3.1,1.3-3.9c-0.1-0.1-0.2-0.3-0.2-0.6c0-0.5,0.3-2.5,1-2.5c1.9,0,7.1,3.8,7.2,7.5
		c0,1.9-0.8,3-1.9,3c-0.4,0-0.9-0.1-1.3-0.2c-1.2-0.3-2.1-0.7-3.3-0.9c-0.4,0-1.1,0.2-2.3,0.6c-1,0.3-1.6,0.7-1.8,0.9
		c-0.1,0.1-0.1,0.2-0.1,0.3c0,0.5,0.7,0.9,2,1.1c1.5,0.1,2.5,0.3,2.9,0.5c0.4,0.2,0.6,0.5,0.6,1.2c0,0.8-0.3,1.4-0.6,1.8
		c-1.7,2.8-6.9,5-10.1,4.9c-2.6,0-5.9-1.1-6-5.4C90,27.5,90.9,25.4,91.6,24.1z M105.5,18.2c-0.5,0-1.7,1.3-1.7,1.8
		c0,0.6,0.5,1.3,1.7,1.5c0.5-0.3,1.3-0.7,1.5-1.1C107.1,19.4,105.8,18.2,105.5,18.2z M108.1,19.1c0,0.2,0,0.3,0,0.5
		c0,1.2-0.7,2.1-0.9,2.2c1.7,0.4,2.8,1.2,3.9,1.1C110.9,21.7,109.7,20,108.1,19.1z"/>
	<path class="st0" d="M125.4,21.4c0,0,0,0.3,0,0.3c0,0.3-0.3,1.3-0.4,1.4c-0.2,0.1-4.3,0.2-4.9,0.2c0,0,0-0.2,0-0.3
		c0-0.4,0.2-1.4,0.3-1.4C121.6,21.5,124.8,21.4,125.4,21.4z"/>
	<path class="st0" d="M135.9,27.3c-0.9,0-2.1-0.1-3.6-0.1c-1.6,0-2.8,0.1-3.5,0.1c-0.1-0.1-0.1-0.7,0-0.8c0.6-0.1,1-0.1,1.4-0.2
		c0.7-0.1,0.8-0.7,0.9-1.4c0-1,0-2.8,0.1-4.9c0-2.1,0-4-0.1-4.5c0-0.4-0.2-0.7-0.6-0.8c-0.3,0-0.9-0.1-1.3-0.1c-0.1-0.1,0-0.7,0-0.8
		c1.5-0.1,3.4-0.7,4.4-1.2c0.1,0,0.3,0,0.3,0.1c-0.1,0.8-0.1,1.6-0.1,4.8c0,1.6,0,5.8,0.1,7.1c0,0.9,0.2,1.3,0.8,1.5
		c0.5,0.1,0.9,0.2,1.5,0.2C136,26.7,136,27.3,135.9,27.3z"/>
</g>
</svg>
