<?xml version="1.0" encoding="utf-8"?>
<!-- Generator: Adobe Illustrator 19.2.0, SVG Export Plug-In . SVG Version: 6.00 Build 0)  -->
<svg version="1.1" id="Layer_1" xmlns="http://www.w3.org/2000/svg" xmlns:xlink="http://www.w3.org/1999/xlink" x="0px" y="0px"
	 viewBox="0 0 76 36.8" style="enable-background:new 0 0 76 36.8;" xml:space="preserve">
<style type="text/css">
	.st0{fill:#F7931E;}
</style>
<g>
	<path class="st0" d="M3,15.1c0.4,0.4,0.5,0.9,0.5,1.4c0,0.3-0.1,0.9-0.5,1.2c-0.4,0.4-0.8,0.5-1.4,0.5c-0.4,0-0.8-0.1-1.2-0.5
		C0.2,17.4,0,16.9,0,16.4c0-0.5,0.2-1,0.5-1.3c0.4-0.3,0.8-0.5,1.2-0.5C2.2,14.6,2.7,14.8,3,15.1z M3,21.8c0.4,0.4,0.5,1,0.5,1.4
		c0,0.3-0.1,0.9-0.5,1.2C2.7,24.8,2.2,25,1.7,25c-0.4,0-0.8-0.2-1.2-0.5C0.1,24.1,0,23.7,0,23.1c0-0.4,0.2-0.9,0.5-1.3
		c0.4-0.3,0.8-0.5,1.2-0.5C2.2,21.4,2.7,21.5,3,21.8z"/>
	<path class="st0" d="M24,5.1c0,0.7-0.1,1.3-0.4,1.9C23.9,7.1,24,7.3,24,7.4c0,0.5-0.2,0.9-0.4,1.3c-0.1,0.1-0.1,0.1-0.1,0.1
		l-0.7-0.4c-0.6,1-1.6,2.3-3.2,3c-0.6,0.3-1.2,0.5-1.9,0.5c-0.3,0-0.5-0.1-0.5-0.2c0-0.2,0.3-0.2,0.7-0.5c1.1-0.6,3.3-2.3,4-3.2
		c-0.6-0.4-1.4-0.9-1.4-1.8c0-0.6,0.3-1.1,0.8-1.7c0.5-0.7,1.1-1,1.6-1C23.7,3.5,23.9,4.4,24,5.1z M21.6,5.6
		C21.6,5.7,21.6,5.7,21.6,5.6c0,0.2,0.5,0.6,1,0.8c0.1-0.2,0.2-0.5,0.2-0.8c0-0.4-0.2-0.6-0.4-0.6C22.1,5.1,21.8,5.3,21.6,5.6z"/>
	<path class="st0" d="M24,14.5c0.1,0.1,0.1,0.1,0,0.2c-0.3,0.4-1.4,1.6-1.8,2.1c-0.1,0.1-0.2,0.1-0.3,0c-0.6-0.4-1.9-1.3-2.2-1.9
		c-0.1-0.1-0.1-0.2,0-0.3c0.4-0.7,1.2-1.5,1.7-2c0.2-0.2,0.3-0.3,0.4-0.2C22.2,13.1,23.2,13.9,24,14.5z"/>
	<path class="st0" d="M32.9,32.6c0.2-0.2,0.3-0.3,0.4-0.1c0.6,0.7,1.3,1.4,2,1.8c0.2,0.1,0.2,0.2,0,0.4c-0.6,0.6-1.2,1.3-1.7,2
		c-0.1,0.2-0.2,0.2-0.4,0c-0.5-0.4-1.2-0.9-1.8-1.6c-0.4,0.4-1.1,1.3-1.5,1.5c-0.2,0.1-0.2,0.2-0.5,0.1c-0.7-0.4-1.5-1.1-2-1.8
		c-0.1-0.2-0.1-0.2,0-0.4c0.5-0.6,1.1-1.3,1.8-2c0.1-0.1,0.2-0.1,0.4,0.1c0.5,0.5,1.3,1.3,1.8,1.6C31.9,33.7,32.6,32.9,32.9,32.6z"
		/>
	<path class="st0" d="M33.6,20.4c0,2.6-1.9,4.1-3.7,4.1h-0.2c0,0.2,0.1,0.5,0.1,0.9c0,0.4,0,0.8-0.1,1.3c-0.1,1-0.2,1.8-0.5,2.4
		c-0.5,1.2-0.9,1.8-1.5,2.4c-2.1,2.2-5.2,3-8.2,3c-1.8,0-3.3-0.5-4.6-2c-0.7-0.8-1.2-2.2-1.2-3.7c0-1.8,0.6-3.5,1.6-4.9
		c0.4-0.6,0.7-0.8,0.8-0.8c0.1,0,0.2,0.1,0.2,0.3s-0.1,0.5-0.4,0.9c-0.9,1.7-1,2.7-1,3.4c0,1.1,0.8,2.1,1.7,2.7c1,0.7,2.3,1,3.5,1
		c3.1,0,7.3-1.3,8.2-3.5c-0.1-2.1-0.5-3-1.2-4.9c0-0.1,0-0.1,0-0.2c0-0.6,0.4-1.7,0.8-2.5c0.1-0.1,0.1-0.2,0.2-0.2
		c0.1,0,0.1,0.1,0.2,0.2c0.6,0.7,1.1,1.1,1.8,1.3c0.1,0,0.2,0,0.3,0c1,0,2-0.8,2.2-2.1c0.1-0.6,0.2-0.8,0.4-0.8
		c0.3,0,0.6,0.5,0.6,1.3C33.6,20.1,33.6,20.2,33.6,20.4z"/>
	<path class="st0" d="M35.1,32.3c-0.4-0.2-0.5-0.4-0.5-0.5c0-0.1,0.2-0.2,0.5-0.2c0.3,0,1.4,0.2,2.3,0.2c0.8,0,1.5-0.2,2.7-0.8
		c3.1-1.6,5-3.8,5-5.4c0-0.2,0-0.4-0.1-0.8H44c-0.7,0-1.9-0.1-2.8-0.6c-0.9-0.5-1.2-1.2-1.2-2c0-0.7,0.3-1.9,0.8-2.8
		c0.7-1.6,1.6-2.8,2.4-2.8c0.9,0,1.7,0.6,2.3,1.5c0.6,0.9,0.9,2.4,0.9,3.6h1.2c0.8,0,1.2,0.4,1.2,1.3c0,1.1-0.4,1.6-1.2,1.6
		l-1.4,0.1c-0.2,4.5-1.7,7.4-5.3,8.8c-0.2,0.1-0.5,0.1-0.8,0.1C38.9,33.7,36.8,33.1,35.1,32.3z M43.1,19.9c-0.2-0.1-0.4-0.3-0.7-0.3
		c-0.6,0-1,0.7-1,1c0,0.3,0.3,0.6,1,0.9c0.5,0.2,1.1,0.3,1.5,0.3c0.2,0,0.3,0,0.3-0.1C44.2,21.3,43.7,20.4,43.1,19.9z"/>
	<path class="st0" d="M51.4,2.6c0.8,0,2.1,1.2,2.1,2.7c0,0.5-0.1,1-0.2,1.5c-0.4,1-1.2,1.6-2.3,1.6c-1,0-1.7-0.8-1.7-1.7
		C49.3,5.4,50.8,2.6,51.4,2.6z M51.2,4.6c-0.3,0-0.9,0.8-0.9,1.2c0,0.3,0.5,0.7,1,0.7c0.7,0,1.4-0.4,1.4-0.6
		C52.7,5.7,51.9,4.6,51.2,4.6z"/>
	<path class="st0" d="M53.4,19.9c0,0.7,0.8,1.6,1.7,1.7c0.2,0,0.4,0,0.6,0h0.2c1.1,0,1.1,0.9,1.1,1.3c0,0.4,0,1.6-1.1,1.6h-0.2
		c-0.2,0-0.4,0-0.7,0c-2-0.2-2.7-1.9-2.8-2.1c-0.3,0.8-1.9,2.2-4.7,2.2h-0.1c-0.8,0-1.2-0.7-1.2-1.5c0-0.7,0.4-1.5,1.2-1.5h0.9
		c1.3,0,3.1-0.2,4.2-2.1c0.3-0.6,0.5-0.7,0.6-0.7C53.3,19,53.4,19.3,53.4,19.9z M54.5,12.4c0.1,0.1,0.1,0.1,0,0.2
		c-0.3,0.4-1.4,1.6-1.8,2.1c-0.1,0.1-0.2,0.1-0.3,0c-0.6-0.4-1.9-1.3-2.2-1.9c-0.1-0.1-0.1-0.2,0-0.3c0.4-0.7,1.2-1.5,1.7-2
		c0.2-0.2,0.3-0.3,0.4-0.2C52.6,11,53.6,11.8,54.5,12.4z"/>
	<path class="st0" d="M57.7,8.9c-0.9,0-1.5-0.9-1.5-2c0-0.3,0.1-0.6,0.1-1c0.1-0.3,0.3-1,0.6-1c0.2,0,0.3,0.3,0.3,0.7V6
		c0,0.4,0.3,0.7,0.8,0.7h0.1c0.6,0,1-0.4,1.1-1.2c0.1-0.4,0.3-1.4,0.8-1.4c0.2,0,0.3,0.2,0.3,0.7c0,0.2,0.2,0.4,0.5,0.4
		c0.6,0,1.1-0.4,1.1-1.1C62.1,3.3,62.3,3,62.5,3c0.3,0,0.4,0.9,0.4,1.4c0,0.4-0.1,0.8-0.2,1.3c-0.3,0.9-0.9,1.5-2,1.5
		c-0.2,0-0.5-0.1-0.6-0.2C60.1,7,60,7,59.9,7.2C59.3,8.2,58.7,8.9,57.7,8.9z M62.8,0c0.1-0.1,0.1,0.1,0.1,0.1
		c-0.1,0.5-0.3,1.1-0.6,1.5c-0.1,0.1-0.3,0.2-0.6,0.4l-5.1,2.4c-0.1,0-0.1,0-0.1-0.1c0-0.2,0.1-0.6,0.2-0.9c0.2-0.4,0.3-0.5,0.4-0.6
		c0.1-0.1,0.2-0.2,0.4-0.3L62.8,0z"/>
	<path class="st0" d="M62,19.9c0,0.7,0.8,1.6,1.7,1.7c0.2,0,0.4,0,0.6,0h0.2c1.1,0,1.1,0.9,1.1,1.3c0,0.4,0,1.6-1.1,1.6h-0.2
		c-0.2,0-0.4,0-0.7,0c-2-0.2-2.7-1.9-2.8-2.1c-0.3,0.8-1.9,2.2-4.7,2.2h-0.1c-0.8,0-1.2-0.7-1.2-1.5c0-0.7,0.4-1.5,1.2-1.5h0.9
		c1.3,0,3.1-0.2,4.2-2.1c0.3-0.6,0.5-0.7,0.6-0.7C61.9,19,62,19.3,62,19.9z M61.7,11.1c0.2-0.2,0.3-0.3,0.4-0.1
		c0.6,0.7,1.3,1.4,2,1.8c0.2,0.1,0.2,0.2,0,0.4c-0.6,0.6-1.2,1.3-1.7,2c-0.1,0.2-0.2,0.2-0.4,0c-0.5-0.4-1.2-0.9-1.8-1.6
		c-0.4,0.4-1.1,1.3-1.5,1.5c-0.2,0.1-0.2,0.2-0.5,0.1c-0.7-0.4-1.5-1.1-2-1.8c-0.1-0.2-0.1-0.2,0-0.4c0.5-0.6,1.1-1.3,1.8-2
		c0.1-0.1,0.2-0.1,0.4,0.1c0.5,0.5,1.3,1.3,1.8,1.6C60.7,12.2,61.4,11.4,61.7,11.1z"/>
	<path class="st0" d="M67.6,23.3c-0.7,0.9-1.5,1.3-2.9,1.3h-0.3c-0.8,0-1.3-0.5-1.3-1.6c0-0.9,0.4-1.4,1.3-1.4h0.3
		c0.7,0,1.3-0.1,1.9-0.3c0.5-0.2,0.8-0.4,0.9-0.5c0-2.2-0.8-6.9-1.2-11.4c0-0.5-0.4-2.1-0.5-2.7c0-0.1,0-0.2,0-0.3
		c0-0.3,0.4-1.2,0.7-1.7c0.4-0.7,0.7-1.2,0.9-1.2c0.1,0,0.2,0.1,0.2,0.3c0.4,1.3,0.8,1.9,1.1,2.4c0.1,0.1,0.1,0.2,0.1,0.4
		c0,0.1,0,0.1,0,0.2c-0.1,0.3-0.5,1.1-0.7,1.4c0.2,4.4,0.9,7.9,0.9,10.1C68.9,20.3,68.4,22,67.6,23.3z"/>
	<path class="st0" d="M74.8,24.7c-0.1,0-0.2-0.2-0.2-0.9c0-3.9-1.4-14.6-1.4-16.4c0-0.9,0.6-2.2,1.1-3.2c0.2-0.3,0.4-0.7,0.6-0.7
		c0.2,0,0.2,0.2,0.2,1C75.2,7.4,76,14,76,18.8c0,1.9-0.1,3.5-0.5,4.4C75.2,24.2,75,24.7,74.8,24.7z"/>
</g>
</svg>
