<?xml version="1.0" encoding="utf-8"?>
<!-- Generator: Adobe Illustrator 19.2.0, SVG Export Plug-In . SVG Version: 6.00 Build 0)  -->
<svg version="1.1" id="Layer_1" xmlns="http://www.w3.org/2000/svg" xmlns:xlink="http://www.w3.org/1999/xlink" x="0px" y="0px"
	 viewBox="0 0 142.3 39.5" style="enable-background:new 0 0 142.3 39.5;" xml:space="preserve">
<style type="text/css">
	.st0{fill:#F7931E;}
</style>
<g>
	<path class="st0" d="M3,20.9c0.4,0.4,0.5,0.9,0.5,1.4c0,0.3-0.1,0.9-0.5,1.2c-0.4,0.4-0.8,0.5-1.4,0.5c-0.4,0-0.8-0.1-1.2-0.5
		C0.2,23.3,0,22.8,0,22.3c0-0.5,0.2-1,0.5-1.3c0.4-0.3,0.8-0.5,1.2-0.5C2.2,20.5,2.7,20.7,3,20.9z M3,27.7c0.4,0.4,0.5,1,0.5,1.4
		c0,0.3-0.1,0.9-0.5,1.2c-0.4,0.4-0.9,0.5-1.4,0.5c-0.4,0-0.8-0.2-1.2-0.5C0.1,30,0,29.5,0,29c0-0.4,0.2-0.9,0.5-1.3
		c0.4-0.3,0.8-0.5,1.2-0.5C2.2,27.2,2.7,27.4,3,27.7z"/>
	<path class="st0" d="M19.7,1.6c0,0.7-0.1,1.3-0.4,1.9c0.3,0.2,0.5,0.3,0.5,0.5c0,0.5-0.2,0.9-0.4,1.3c-0.1,0.1-0.1,0.1-0.1,0.1
		l-0.7-0.4c-0.6,1-1.6,2.3-3.2,3c-0.6,0.3-1.2,0.5-1.9,0.5c-0.3,0-0.5-0.1-0.5-0.2c0-0.2,0.3-0.2,0.7-0.5c1.1-0.6,3.3-2.3,4-3.2
		c-0.6-0.4-1.4-0.9-1.4-1.8c0-0.6,0.3-1.1,0.8-1.7c0.5-0.7,1.1-1,1.6-1C19.5,0,19.7,0.9,19.7,1.6z M17.4,2.2
		C17.4,2.2,17.4,2.2,17.4,2.2c0,0.2,0.5,0.6,1,0.8c0.1-0.2,0.2-0.5,0.2-0.8c0-0.4-0.2-0.6-0.4-0.6C17.9,1.6,17.6,1.8,17.4,2.2z"/>
	<path class="st0" d="M19.1,11c0.2-0.2,0.3-0.3,0.4-0.1c0.6,0.7,1.3,1.4,2,1.8c0.2,0.1,0.2,0.2,0,0.4c-0.6,0.6-1.2,1.3-1.7,2
		c-0.1,0.2-0.2,0.2-0.4,0c-0.5-0.4-1.2-0.9-1.8-1.6c-0.4,0.4-1.1,1.3-1.5,1.5c-0.2,0.1-0.2,0.2-0.5,0.1c-0.7-0.4-1.5-1.1-2-1.8
		c-0.1-0.2-0.1-0.2,0-0.4c0.5-0.6,1.1-1.3,1.8-2c0.1-0.1,0.2-0.1,0.4,0.1c0.5,0.5,1.3,1.3,1.8,1.6C18.1,12.1,18.8,11.3,19.1,11z
		 M22.9,27c0.6,0.4,1.1,0.6,1.5,0.6h0.4c0.9,0,1.4,0.5,1.4,1.4c0,1.1-0.5,1.6-1.4,1.6h-0.4c-1,0-2-0.4-2.9-1.2
		c-0.9-0.8-1.5-2.1-1.8-3.9c-0.3,0.5-0.5,0.9-1.1,1.3c-0.8,0.6-2.1,0.8-3.4,0.8c-0.9,0-1.8-0.2-1.8-0.8c0.4-2.9,0.8-3.3,2.2-4.4
		c0.6-0.5,2.3-1.5,3-2c0-0.3-0.1-0.5-0.1-0.7c0-0.7,0.2-1,0.5-1.6c0.2-0.4,0.4-0.6,0.5-0.6c0.1,0,0.2,0.2,0.3,0.7
		c0.4,2.6,0.7,4.8,1,6.2C21.3,25.3,21.9,26.3,22.9,27z M19,21.7c-1.2,0.8-3.2,2-3.3,2.4c0,0.2,0.4,0.3,0.9,0.3c0.8,0,2-0.2,2.8-0.6
		C19.3,23,19.2,22.7,19,21.7z"/>
	<path class="st0" d="M31.3,9.8c0.1-0.1,0.2-0.1,0.2,0.1c0,0.7-0.3,1.5-0.7,1.7l-5.3,3c-0.1,0.1-0.1,0-0.1-0.1c0-0.4,0.1-1,0.3-1.3
		c0.1-0.2,0.4-0.4,0.9-0.7L31.3,9.8z"/>
	<path class="st0" d="M30.6,25.8c0,0.7,0.8,1.6,1.7,1.7c0.2,0,0.4,0,0.6,0h0.2c1.1,0,1.1,0.9,1.1,1.3c0,0.4,0,1.6-1.1,1.6h-0.2
		c-0.2,0-0.4,0-0.7,0c-2-0.2-2.7-1.9-2.8-2.1c-0.3,0.8-1.9,2.2-4.7,2.2h-0.1c-0.8,0-1.2-0.7-1.2-1.5s0.4-1.5,1.2-1.5h0.9
		c1.3,0,3.1-0.2,4.2-2.1c0.3-0.6,0.5-0.7,0.6-0.7C30.5,24.9,30.6,25.1,30.6,25.8z M31.7,18.2c0.1,0.1,0.1,0.1,0,0.2
		c-0.3,0.4-1.4,1.6-1.8,2.1c-0.1,0.1-0.2,0.1-0.3,0c-0.6-0.4-1.9-1.3-2.2-1.9c-0.1-0.1-0.1-0.2,0-0.3c0.4-0.7,1.2-1.5,1.7-2
		c0.2-0.2,0.3-0.3,0.4-0.2C29.8,16.8,30.8,17.7,31.7,18.2z"/>
	<path class="st0" d="M41.3,32.8c0.1-0.1,0.2-0.1,0.2,0.1c0,0.7-0.3,1.5-0.7,1.7l-5.3,3c-0.1,0.1-0.1,0-0.1-0.1c0-0.4,0.1-1,0.3-1.3
		c0.1-0.2,0.4-0.4,0.9-0.7L41.3,32.8z"/>
	<path class="st0" d="M47.9,10.1c0.1,0,0.1,0.1,0.1,0.1c0,0.4-0.7,1.6-0.9,2.1c-0.1,0.1-0.1,0.2-0.2,0.2c-0.9,0.3-7.6,2.9-10.5,4.9
		c2.9,1.5,5.7,4.9,5.7,7c0,2-0.6,3.5-1.7,4.6c-1.8,1-4.2,1.5-7,1.5H33c-0.5,0-0.9-0.7-0.9-1.5c0-0.8,0.4-1.5,0.8-1.5h0.3
		c3.9,0,7-0.8,7.6-1.5c-0.1-1.8-3.1-4.8-5.4-6c-0.3-0.2-0.7-0.3-0.8-0.6c-0.2-0.2-0.2-0.6-0.2-1.1c0-0.7,0.1-1.4,0.5-1.8
		c0.9-0.9,1.8-1.6,3.7-2.6c3.6-2,7.3-3.3,8.7-3.8C47.4,10.2,47.7,10.1,47.9,10.1z"/>
	<path class="st0" d="M54.8,30.5c-0.8,0-1.6-0.1-2.2-0.6c-0.9-0.8-1.4-2.2-1.7-4c-0.2-1.4-0.3-3-0.4-4.8c-0.1-2.6-0.3-6.6-0.7-8.9
		c0-0.1,0-0.2,0-0.3c0-0.1,0-0.2,0.2-0.5c0.4-0.6,0.7-1,0.9-1.5c0.2-0.4,0.3-0.4,0.4-0.4c0.1,0,0.2,0.2,0.4,0.8
		c0.6,4.5,0.1,10.8,0.8,14.3c0.2,0.9,0.3,1.2,0.5,1.7c0.3,0.8,0.9,1.2,1.8,1.2c1,0,1.5,0.5,1.5,1.4c0,1.2-0.5,1.5-1.4,1.5H54.8z"/>
	<path class="st0" d="M62.3,20c-0.9,0-1.5-0.9-1.5-2c0-0.3,0.1-0.6,0.1-1c0.1-0.3,0.3-1,0.6-1c0.2,0,0.3,0.3,0.3,0.7v0.3
		c0,0.4,0.3,0.7,0.8,0.7h0.1c0.6,0,1-0.4,1.1-1.2c0.1-0.4,0.3-1.4,0.8-1.4c0.2,0,0.3,0.2,0.3,0.7c0,0.2,0.2,0.4,0.5,0.4
		c0.6,0,1.1-0.4,1.1-1.1c0.1-0.8,0.3-1.1,0.5-1.1c0.3,0,0.4,0.9,0.4,1.4c0,0.4-0.1,0.8-0.2,1.3c-0.3,0.9-0.9,1.5-2,1.5
		c-0.2,0-0.5-0.1-0.6-0.2c-0.1-0.1-0.2-0.1-0.3,0.1C63.9,19.4,63.2,20,62.3,20z M67.3,11.1c0.1-0.1,0.1,0.1,0.1,0.1
		c-0.1,0.5-0.3,1.1-0.6,1.5c-0.1,0.1-0.3,0.2-0.6,0.4L61,15.5c-0.1,0-0.1,0-0.1-0.1c0-0.2,0.1-0.6,0.2-0.9c0.2-0.4,0.3-0.5,0.4-0.6
		c0.1-0.1,0.2-0.2,0.4-0.3L67.3,11.1z"/>
	<path class="st0" d="M66.3,24.6c0.2,0,0.2,0.2,0.2,0.6c0,0.2,0,0.3,0,0.6c0,0.9,0.7,1.5,1.5,1.5c1.3,0,2-1.2,2.5-2.3
		c0.1-0.1,0.2-0.5,0.4-0.5c0.1,0,0.2,0.1,0.3,0.8c0.1,1.4,0.8,2.1,2,2.2h0.4c0.9,0,1.4,0.4,1.4,1.3c0,1.1-0.5,1.6-1.4,1.6h-0.4
		c-1.7,0-2.5-0.8-2.8-2.5c-0.4,1.2-1.5,2.5-2.9,2.5c-1.4,0-2.1-1.2-2.2-2.5c-0.5,1.4-2,2.4-3.4,2.4c-1.6,0-2.5-0.6-3-2
		c-0.2,0.5-0.5,1-1.1,1.4c-0.5,0.4-1.4,0.6-2.7,0.6h-0.3c-0.9,0-1.3-0.5-1.3-1.5c0-0.9,0.4-1.4,1.3-1.4h0.4c2,0,3.4-0.7,4.1-2.2
		c0.1-0.2,0.2-0.4,0.4-0.4c0.2,0,0.3,0.2,0.3,0.7c0.1,1.1,1,1.7,2.3,1.7c1.6,0,2.7-0.7,3.6-2.2C65.9,24.9,66.1,24.6,66.3,24.6z"/>
	<path class="st0" d="M76.3,29.2c-0.7,0.9-1.5,1.3-2.9,1.3h-0.3c-0.8,0-1.3-0.5-1.3-1.6c0-0.9,0.4-1.4,1.3-1.4h0.3
		c0.7,0,1.3-0.1,1.9-0.3c0.5-0.2,0.8-0.4,0.9-0.5c0-2.2-0.8-6.9-1.2-11.4c0-0.5-0.4-2.1-0.5-2.7c0-0.1,0-0.2,0-0.3
		c0-0.3,0.4-1.2,0.7-1.7c0.4-0.7,0.7-1.2,0.9-1.2c0.1,0,0.2,0.1,0.2,0.3c0.4,1.3,0.8,1.9,1.1,2.4c0.1,0.1,0.1,0.2,0.1,0.4
		c0,0.1,0,0.1,0,0.2c-0.1,0.3-0.5,1.1-0.7,1.4c0.2,4.4,0.9,7.9,0.9,10.1C77.6,26.2,77.2,27.9,76.3,29.2z"/>
	<path class="st0" d="M83.5,30.5c-0.1,0-0.2-0.2-0.2-0.9c0-3.9-1.4-14.6-1.4-16.4c0-0.9,0.6-2.2,1.1-3.2c0.2-0.3,0.4-0.7,0.6-0.7
		c0.2,0,0.2,0.2,0.2,1c0.1,2.8,0.9,9.4,0.9,14.1c0,1.9-0.1,3.5-0.5,4.4C84,30,83.8,30.5,83.5,30.5z"/>
	<path class="st0" d="M105.3,3.2c0,0.7-0.1,1.3-0.4,1.9c0.3,0.2,0.5,0.3,0.5,0.5c0,0.5-0.2,0.9-0.4,1.3c-0.1,0.1-0.1,0.1-0.1,0.1
		l-0.7-0.4c-0.6,1-1.6,2.2-3.2,3c-0.6,0.3-1.2,0.5-1.9,0.5c-0.3,0-0.5-0.1-0.5-0.2c0-0.2,0.3-0.2,0.7-0.5c1.1-0.6,3.3-2.3,4-3.2
		c-0.6-0.4-1.4-0.9-1.4-1.8c0-0.6,0.3-1.1,0.8-1.7c0.5-0.7,1.1-1,1.6-1C105,1.6,105.2,2.5,105.3,3.2z M103,3.8
		C102.9,3.8,102.9,3.8,103,3.8c0,0.2,0.5,0.6,1,0.8c0.1-0.2,0.2-0.5,0.2-0.8c0-0.4-0.2-0.6-0.4-0.6C103.4,3.2,103.1,3.4,103,3.8z"/>
	<path class="st0" d="M97.1,31.4c-1.2-1.1-1.8-2.7-1.8-4.3c0-1.9,1.1-4.1,1.8-5.1c0.3-0.4,0.5-0.5,0.6-0.5c0.1,0,0.2,0.1,0.2,0.2
		c0,0.2-0.1,0.4-0.2,0.7c-0.6,1.1-1.1,2.3-1.1,3.7c0,1.1,0.8,2.1,1.7,2.7c1.1,0.7,2.2,1,3.5,1c3.1,0,7.3-1.3,8.2-3.5
		c0-0.2,0-0.4,0-0.6c0-1.4-0.4-2.9-1.1-4c-0.3-0.5-0.5-0.8-0.6-1.1c0-0.1,0-0.1,0-0.2c0-0.2,0.1-0.6,0.2-1c0.2-0.5,0.4-1,0.5-1.4
		c0.1-0.2,0.2-0.3,0.3-0.3c0.1,0,0.1,0.1,0.3,0.4c0.9,1.9,1.6,3.7,1.6,6c-0.1,1.8-0.2,2.9-0.4,3.5c-0.5,1.1-0.8,1.7-1.4,2.3
		c-0.6,0.6-1.8,1.5-3.2,2.1c-1.4,0.6-3.1,0.9-5.3,0.9C99.6,32.8,98.2,32.4,97.1,31.4z M105.5,13.6c0.1,0.1,0.1,0.1,0,0.2
		c-0.3,0.4-1.4,1.6-1.8,2.1c-0.1,0.1-0.2,0.1-0.3,0c-0.6-0.4-1.9-1.3-2.2-1.9c-0.1-0.1-0.1-0.2,0-0.3c0.4-0.7,1.2-1.5,1.7-2
		c0.2-0.2,0.3-0.3,0.4-0.2C103.7,12.2,104.6,13,105.5,13.6z"/>
	<path class="st0" d="M110,38.2c-0.4-0.2-0.5-0.4-0.5-0.5c0-0.1,0.2-0.2,0.5-0.2c0.3,0,1.4,0.2,2.3,0.2c0.8,0,1.5-0.2,2.7-0.8
		c3.1-1.6,5-3.8,5-5.4c0-0.2,0-0.4-0.1-0.8h-0.9c-0.7,0-1.9-0.1-2.8-0.6c-0.9-0.5-1.2-1.2-1.2-2c0-0.7,0.3-1.9,0.8-2.8
		c0.7-1.6,1.6-2.8,2.4-2.8c0.9,0,1.7,0.6,2.3,1.5c0.6,0.9,0.9,2.4,0.9,3.6h1.2c0.8,0,1.2,0.4,1.2,1.3c0,1.1-0.4,1.6-1.2,1.6
		l-1.4,0.1c-0.2,4.5-1.7,7.4-5.3,8.8c-0.2,0.1-0.5,0.1-0.8,0.1C113.8,39.5,111.7,38.9,110,38.2z M118,25.7c-0.2-0.1-0.4-0.3-0.7-0.3
		c-0.6,0-1,0.7-1,1c0,0.3,0.3,0.6,1,0.9c0.5,0.2,1.1,0.3,1.5,0.3c0.2,0,0.3,0,0.3-0.1C119.1,27.2,118.5,26.2,118,25.7z"/>
	<path class="st0" d="M124.1,14.6c-0.1,0-0.1,0-0.2,0c-0.3,0-0.7-0.2-1-0.5c-0.4-0.4-0.5-0.9-0.5-1.6c0-0.3,0.1-0.6,0.2-0.9
		c0.1-0.3,0.4-0.9,0.7-0.9c0.2,0,0.2,0.2,0.2,0.5c0,0.1,0,0.4,0,0.5c0,0.5,0.3,0.8,0.8,0.8h0c0.6,0,1-0.4,1.2-1.1
		c0.1-0.3,0.4-1.3,0.8-1.3c0.2,0,0.2,0.2,0.2,0.5v0.2c0,0.4,0.2,0.5,0.5,0.5c0.1,0,0.1,0,0.2,0c0.5-0.1,0.8-0.5,0.9-1
		c0.2-0.7,0.3-0.9,0.5-0.9c0.1,0,0.2,0.2,0.3,0.4c0.1,0.2,0.1,0.4,0.1,0.7c0,0.5-0.1,1-0.3,1.5c-0.3,0.8-0.9,1.4-1.8,1.4
		c-0.3,0-0.5-0.1-0.7-0.2c-0.1-0.1-0.2-0.1-0.2,0C125.3,14,124.7,14.5,124.1,14.6z M128.3,4c0,0.2,0.1,0.3,0.1,0.4
		c0,0.6-0.2,1.1-0.3,1.6c0.2,0.2,0.4,0.3,0.4,0.4c0,0.4-0.2,0.8-0.4,1.2l-0.6-0.4c-0.7,1.1-1.2,1.7-1.7,2c-0.4,0.3-1.1,0.5-2.1,0.6
		c-0.5,0-0.6-0.1-0.4-0.2c1.7-1,2.9-2,3.4-2.8c-0.5-0.3-1.1-0.8-1.1-1.5c0-0.4,0.2-0.9,0.7-1.4c0.4-0.6,0.9-0.9,1.3-0.9
		C127.9,3.1,128.2,3.6,128.3,4z M126.3,5c0.1,0.2,0.4,0.4,0.9,0.6c0.1-0.2,0.1-0.5,0.1-0.7c0-0.3-0.2-0.5-0.4-0.5
		C126.7,4.4,126.5,4.6,126.3,5z"/>
	<path class="st0" d="M128.3,25.8c0,0.7,0.8,1.6,1.7,1.7c0.2,0,0.4,0,0.6,0h0.2c1.1,0,1.1,0.9,1.1,1.3c0,0.4,0,1.6-1.1,1.6h-0.2
		c-0.2,0-0.4,0-0.7,0c-2-0.2-2.7-1.9-2.8-2.1c-0.3,0.8-1.9,2.2-4.7,2.2h-0.1c-0.8,0-1.2-0.7-1.2-1.5s0.4-1.5,1.2-1.5h0.9
		c1.3,0,3.1-0.2,4.2-2.1c0.3-0.6,0.5-0.7,0.6-0.7C128.1,24.9,128.3,25.1,128.3,25.8z M129.3,18.2c0.1,0.1,0.1,0.1,0,0.2
		c-0.3,0.4-1.4,1.6-1.8,2.1c-0.1,0.1-0.2,0.1-0.3,0c-0.6-0.4-1.9-1.3-2.2-1.9c-0.1-0.1-0.1-0.2,0-0.3c0.4-0.7,1.2-1.5,1.7-2
		c0.2-0.2,0.3-0.3,0.4-0.2C127.5,16.8,128.4,17.7,129.3,18.2z"/>
	<path class="st0" d="M133.8,29.2c-0.7,0.9-1.5,1.3-2.9,1.3h-0.3c-0.8,0-1.3-0.5-1.3-1.6c0-0.9,0.4-1.4,1.3-1.4h0.3
		c0.7,0,1.3-0.1,1.9-0.3c0.5-0.2,0.8-0.4,0.9-0.5c0-2.2-0.8-6.9-1.2-11.4c0-0.5-0.4-2.1-0.5-2.7c0-0.1,0-0.2,0-0.3
		c0-0.3,0.4-1.2,0.7-1.7c0.4-0.7,0.7-1.2,0.9-1.2c0.1,0,0.2,0.1,0.2,0.3c0.4,1.3,0.8,1.9,1.1,2.4c0.1,0.1,0.1,0.2,0.1,0.4
		c0,0.1,0,0.1,0,0.2c-0.1,0.3-0.5,1.1-0.7,1.4c0.2,4.4,0.9,7.9,0.9,10.1C135.1,26.2,134.7,27.9,133.8,29.2z"/>
	<path class="st0" d="M141,30.5c-0.1,0-0.2-0.2-0.2-0.9c0-3.9-1.4-14.6-1.4-16.4c0-0.9,0.6-2.2,1.1-3.2c0.2-0.3,0.4-0.7,0.6-0.7
		c0.2,0,0.2,0.2,0.2,1c0.1,2.8,0.9,9.4,0.9,14.1c0,1.9-0.1,3.5-0.5,4.4C141.5,30,141.3,30.5,141,30.5z"/>
</g>
</svg>
