<?xml version="1.0" encoding="utf-8"?>
<!-- Generator: Adobe Illustrator 22.0.1, SVG Export Plug-In . SVG Version: 6.00 Build 0)  -->
<svg version="1.1" id="Layer_1" xmlns="http://www.w3.org/2000/svg" xmlns:xlink="http://www.w3.org/1999/xlink" x="0px" y="0px"
	 viewBox="0 0 61.6 72.4" style="enable-background:new 0 0 61.6 72.4;" xml:space="preserve">
<style type="text/css">
	.st0{fill:#235958;}
	.st1{fill:#EF5316;}
</style>
<g>
	<path class="st0" d="M28,32.2h-3.9c-0.7,5-1.9,9.2-3.6,12.6C18,49.6,14.8,52,10.7,52C7.8,52,4.2,50.6,0,47.7l0.6-1
		c1.7,0.3,2.9,0.5,3.7,0.5c2.8,0,5.8-1.2,8.8-3.5c1.3-1,2.8-2.8,4.6-5.6c1.3-2.1,2.6-4.3,3.9-6.4c-2.4-0.8-4.1-2.8-5.3-5.9l4.5-6.6
		c1.5,3,3.2,4.5,5.1,4.5H28V32.2z"/>
	<path class="st0" d="M38.8,19.7c0,3.4-0.7,6.3-2,8.5c-1.6,2.7-4,4-7.2,4h-2.7v-8.4h3.5c3.3,0,4.9-0.6,4.9-1.9c0-0.3-0.5-0.9-1.4-2
		s-1.4-2-1.4-2.7c0-1,1.2-3.7,3.5-8.3C37.9,13.1,38.8,16.7,38.8,19.7z M42.1,38.8l-3.1,5l-4.7-3.2L32,44.8L27,41l3.1-5l4.5,3.6
		l2.8-4.5L42.1,38.8z"/>
	<path class="st1" d="M61.6,30.3c0,4.5-1.1,8.7-3.3,12.7c-2.6,4.8-6,7.2-10.2,7.2c-2.5,0-5.7-1.3-9.7-3.9l0.5-1
		c1.2,0.3,2.1,0.4,2.9,0.4c3.4,0,7.1-1.6,11.1-4.9c4-3.2,6-6.5,6-9.7c0-1.2-0.8-2.9-2.5-5.2c-1.2-1.6-2.5-3.1-3.7-4.7
		c0.8-3.6,1.4-6.5,1.8-8.6C59.2,17.7,61.6,23.7,61.6,30.3z M56.2,3.5l-2.8,5.1l-5-3.7l3-5L56.2,3.5z"/>
</g>
<g>
	<path class="st1" d="M53.5,55.1c0,1.9-0.6,3.3-1.8,4l-11,6.2c0-1.1,0.2-1.9,0.5-2.4s1-1,2-1.6L53.5,55.1z"/>
</g>
</svg>
