<?xml version="1.0" encoding="utf-8"?>
<!-- Generator: Adobe Illustrator 22.0.1, SVG Export Plug-In . SVG Version: 6.00 Build 0)  -->
<svg version="1.1" id="Layer_1" xmlns="http://www.w3.org/2000/svg" xmlns:xlink="http://www.w3.org/1999/xlink" x="0px" y="0px"
	 viewBox="0 0 91.7 59.9" style="enable-background:new 0 0 91.7 59.9;" xml:space="preserve">
<style type="text/css">
	.st0{fill:#235958;}
	.st1{fill:#EF5316;}
</style>
<path class="st0" d="M54.4,44.3h-4.6c-2.4,0-4-0.9-5.1-2.6c-0.7-1.2-1.2-3.1-1.5-5.8c0,8-8.8,12-26.5,12c-5.4,0-9.3-0.8-11.8-2.3
	C1.6,43.7,0,40.2,0,35.3c0-2.3,0.2-4,0.7-5.4C1.1,28.6,2,27,3.2,25.2l1,0.7c-0.9,1.6-1.4,3.2-1.4,4.7c0,5.4,5.7,8,17.1,8
	c3.6,0,7.3-0.3,11.1-1c5.4-0.9,8.6-2.3,9.6-4c0.8-1.4,1.1-3.8,1.1-7.2c0-2.6-0.2-6.6-0.7-11.9s-0.7-9.3-0.7-11.9
	c0-0.2,0.6-0.6,1.7-1.3L44.1,0c0.1,0.4,0.2,1.6,0.3,3.5c0.2,1.1,0.4,2.8,0.6,5.1c0.2,4.4,0.4,8.8,0.6,13.1c0.4,6.4,1,10.5,1.8,12.3
	c0.5,1.3,1.3,1.9,2.3,1.9h4.7C54.4,35.9,54.4,44.3,54.4,44.3z M26.6,21.5c0,1.9-0.7,3.7-2.1,5.2c-1.4,1.6-3.1,2.3-5,2.3
	c-1.7,0-3.8-0.8-6.4-2.4c5.8-1,8.8-1.9,8.8-2.8c0-0.4-0.5-0.6-1.5-0.8c-1.4-0.2-2.4-0.4-2.9-0.6c-1-0.5-1.5-1.3-1.5-2.6
	c0-2.1,0.7-4.1,2.2-6c1.4-1.9,3.2-3.3,5.1-4.1l1,3.7c-3.1,0.8-4.6,1.7-4.6,2.8c0,0.3,0.2,0.7,0.6,1s1.8,0.7,4.1,1.2
	C25.9,18.6,26.6,19.7,26.6,21.5z"/>
<path class="st0" d="M64.5,31.8c0,3.4-0.7,6.3-2,8.5c-1.6,2.7-4,4-7.2,4h-2.7v-8.4h3.5c3.3,0,4.9-0.6,4.9-1.9c0-0.3-0.5-0.9-1.4-2
	c-0.9-1.1-1.4-2-1.4-2.7c0-1,1.2-3.7,3.5-8.3C63.6,25.2,64.5,28.8,64.5,31.8z M67.7,50.8l-3.1,5.1L60,52.7l-2.3,4.2l-5-3.8l3.1-5
	l4.5,3.6l2.8-4.5L67.7,50.8z"/>
<path class="st1" d="M91.7,33.2c0,3.3-0.7,5.7-2,7.2c-1.3,1.6-3.6,2.7-6.8,3.5c-2.4,0.6-5,0.9-7.9,0.9c-1.2,0-2.8-0.5-4.8-1.5
	l1.6-9.6c1.7,0.9,2.9,1.3,3.5,1.3c9.1,0,13.7-1.1,13.7-3.4c0-1.9-4.1-5-12.4-9.1l3-9.2C87.6,18.7,91.7,25.3,91.7,33.2z"/>
<g>
	<path class="st1" d="M85,46.9c0,1.9-0.6,3.3-1.8,4l-10.9,6.2c0-1.1,0.2-1.9,0.5-2.4c0.3-0.5,1-1,2-1.6L85,46.9z"/>
</g>
</svg>
