<?xml version="1.0" encoding="utf-8"?>
<!-- Generator: Adobe Illustrator 22.0.1, SVG Export Plug-In . SVG Version: 6.00 Build 0)  -->
<svg version="1.1" id="Layer_1" xmlns="http://www.w3.org/2000/svg" xmlns:xlink="http://www.w3.org/1999/xlink" x="0px" y="0px"
	 viewBox="0 0 65.7 96" style="enable-background:new 0 0 65.7 96;" xml:space="preserve">
<style type="text/css">
	.st0{fill:#235958;}
	.st1{fill:#EF5316;}
</style>
<g>
	<path class="st0" d="M30.9,67.4H27c-3.5,0-6-0.6-7.4-1.7c0.5,2.5,0.8,4.1,0.8,4.7c0,1.4-0.4,2.8-1.1,4c-0.9,1.3-2,2-3.4,2
		c-2.6,0-4.6-1.4-6.1-4.1C8.6,70.1,8,67.6,8,64.7C5.9,65.3,4.5,66,3.7,67c-0.8,0.9-1.2,2.4-1.2,4.4c0,0.4,0.3,2.3,0.8,5.5l1.4,8.4
		c0.5,1.9,1.1,4.7,1.8,8.6L4.4,96C1.5,84.2,0,75.2,0,69.1c0-3.3,0.6-5.9,1.9-8C3.1,59,5.2,57.2,8,55.7c0.7-0.4,1.6-1,2.8-1.8
		c0.4-0.5,0.9-1.4,1.3-2.5c4.2,3.8,6.9,5.9,8.1,6.5c1.6,0.7,4.6,1,9.2,1h1.4L30.9,67.4L30.9,67.4z"/>
	<path class="st0" d="M49.9,67.4h-3.7c-3.6,0-6-3-7.1-9c-1.7,6-3.9,9-6.6,9h-2.7V59h2.7c3.4,0,5.1-3.2,5.1-9.7
		c0-2.6-0.2-6.6-0.7-11.9s-0.7-9.2-0.7-11.9c0-0.1,1.3-1.3,3.9-3.5c0.5,3.7,0.8,6.9,0.8,9.5c0,5.6,0.2,10.7,0.7,15.1
		C42.5,54.9,44,59,46.2,59h3.7V67.4L49.9,67.4z"/>
	<path class="st1" d="M64.5,0c0,1.9-0.6,3.3-1.8,4l-10.9,6.2c0-1.1,0.2-2,0.5-2.4s1-1,2-1.6L64.5,0z"/>
	<path class="st1" d="M65.7,54.3c0,8.7-4.7,13.1-14.2,13.1h-2.7V59h3.7c7,0,10.5-1.3,10.5-3.9c0-0.6-0.5-2.1-1.6-4.5
		c-0.8,1.7-1.5,2.9-2.3,3.5c-0.9,0.8-2.2,1.2-3.9,1.2c-3.1,0-4.6-1.4-4.6-4.2c0-0.6,0.2-1.8,0.5-3.6c1.5-8.8,3.8-13.3,6.8-13.3
		c2.5,0,4.5,2.8,6,8.4C65.1,46.7,65.7,50.6,65.7,54.3z M64.5,26l-3,5.2L56.8,28l-2.2,4.1l-5.1-3.7l2.9-5.1l4.6,3.6l2.7-4.6L64.5,26z
		 M58.6,45.1c-1-1.6-2-2.4-3-2.4c-1.1,0-1.6,0.7-1.6,2c0,1.6,0.7,2.4,2.1,2.4C57,47.1,57.8,46.4,58.6,45.1z"/>
</g>
<g>
	<g>
		<path class="st0" d="M39.1,10.7c0,1.9-0.6,3.3-1.8,4l-11,6.3c0-1.1,0.2-2,0.5-2.4s1-1,2-1.6L39.1,10.7z"/>
	</g>
</g>
</svg>
