<?xml version="1.0" encoding="utf-8"?>
<!-- Generator: Adobe Illustrator 22.0.1, SVG Export Plug-In . SVG Version: 6.00 Build 0)  -->
<svg version="1.1" id="Layer_1" xmlns="http://www.w3.org/2000/svg" xmlns:xlink="http://www.w3.org/1999/xlink" x="0px" y="0px"
	 viewBox="0 0 86.2 86.2" style="enable-background:new 0 0 86.2 86.2;" xml:space="preserve">
<style type="text/css">
	.st0{fill:#235958;}
</style>
<path class="st0" d="M46.5,39.9h-1.1h-1.1c-2,0-3.8-1.6-5.4-4.7l-4.7,6.9c1.2,3.3,3.1,5.3,5.6,6.2c-1.4,2.3-2.8,4.5-4.2,6.8
	C33.7,58,32.1,60,30.8,61c-3.2,2.4-6.2,3.6-9.2,3.6c-0.8,0-2.1-0.2-3.9-0.5l-0.6,1c4.5,3,8.2,4.5,11.3,4.5c4.3,0,7.7-2.5,10.3-7.6
	c1.8-3.6,3.1-8,3.8-13.3h3h1.1h14.1v-8.8C60.7,39.9,46.5,39.9,46.5,39.9z"/>
</svg>
