<?xml version="1.0" encoding="utf-8"?>
<!-- Generator: Adobe Illustrator 22.0.1, SVG Export Plug-In . SVG Version: 6.00 Build 0)  -->
<svg version="1.1" id="Layer_1" xmlns="http://www.w3.org/2000/svg" xmlns:xlink="http://www.w3.org/1999/xlink" x="0px" y="0px"
	 viewBox="0 0 80.6 94.3" style="enable-background:new 0 0 80.6 94.3;" xml:space="preserve">
<style type="text/css">
	.st0{fill:#235958;}
	.st1{fill:#EF5316;}
</style>
<g>
	<path class="st0" d="M28,74.5h-3.9c-0.7,5-1.9,9.2-3.6,12.6c-2.5,4.8-5.7,7.2-9.8,7.2C7.8,94.3,4.2,92.9,0,90l0.6-1
		c1.7,0.3,2.9,0.5,3.7,0.5c2.8,0,5.8-1.2,8.8-3.5c1.3-1,2.8-2.8,4.6-5.6c1.3-2.1,2.6-4.3,3.9-6.4c-2.4-0.8-4.1-2.8-5.3-5.9l4.5-6.6
		c1.5,3,3.2,4.5,5.1,4.5H28V74.5L28,74.5z"/>
	<path class="st0" d="M51.1,74.5h-3.8c-4,0-7-1-9-3.1c-3.5,2-6.4,3.1-8.7,3.1h-2.7v-8.4c2.6,0,4.4-0.3,5.5-1
		c-0.6-0.6-0.9-1.2-0.9-1.9c0-2.5,0.8-5.3,2.5-8.3c1.6-2.8,3.4-5.1,5.5-6.8c1.3-1.1,2.5-1.6,3.5-1.6c1.7,0,3,1.3,3.8,4
		c0.6,1.9,0.9,4,0.9,6.3c0,3.1-1,5.8-2.9,8.1c0.9,0.8,2.5,1.1,4.8,1.1h1.5C51.1,66.1,51.1,74.5,51.1,74.5z M44.7,59.4
		c0-1.2-0.5-2.3-1.4-3.1c-0.9-0.9-2-1.3-3.3-1.3c-1,0-2,0.3-3,0.9c-1.1,0.6-1.7,1.4-1.7,2.4c0,1.2,1.3,2.8,4,4.8
		C42.9,62.2,44.7,60.9,44.7,59.4z M46,37.1l-3,5l-4.9-3.6l3.1-5.1L46,37.1z"/>
	<path class="st1" d="M64.2,14l-0.3,3.7c-0.6-0.4-1.6-1-3-1.9c-2.9,3.6-5.4,5.4-7.5,5.4c-0.5,0-1.2-0.1-2.3-0.4c2.4-1.3,5-3.2,8-5.9
		c-1.6-1.3-2.3-2.4-2.3-3.5c0-1.3,0.5-2.7,1.4-4.2c0.9-1.4,2-2.2,3.3-2.2c1.6,0,2.4,1.1,2.4,3.3c0,1.6-0.4,3.1-1.1,4.5
		C63.3,13.3,63.8,13.7,64.2,14z M61.6,10.6c0-0.5-0.2-1-0.6-1.6c-0.4-0.6-0.8-0.8-1.3-0.8s-0.8,0.3-0.8,1c0,0.5,0.9,1.3,2.6,2.6
		C61.6,11.2,61.6,10.8,61.6,10.6z"/>
	<path class="st1" d="M80.6,57.5c0,5.5-3.4,9.9-10.1,13.1c-5.4,2.6-11.2,3.9-17.4,3.9H50v-8.4h5.4c0.2-0.3,0.5-0.9,0.9-1.6
		c0.2-0.4,0.2-2,0.2-4.7s-0.5-6.7-1.6-12s-1.6-9.3-1.6-12.1c-0.4-0.5-0.7-1-0.8-1.4c0.8-3.2,2-5.2,3.6-6c0.1,1.9,0.9,3.5,2.3,4.9
		c1.4,1.4,3,1.9,4.9,1.6l-3.5,6.1l-1.4-0.7c-0.1,0.7-0.2,1.4-0.2,2c0,1,0.2,2.7,0.6,5.2c0.4,2.5,0.6,4.4,0.6,5.7
		c0,2.2-0.3,5.1-1,8.8c2.9-3.6,5-6,6.4-7.3c3.1-3,5.9-4.5,8.3-4.5c2.3,0,4.1,0.7,5.5,2.1C79.9,53.4,80.6,55.3,80.6,57.5z M76.9,61
		c0-0.9-0.6-1.7-1.7-2.3c-0.9-0.5-1.8-0.7-2.8-0.7c-2.2,0-4.5,0.9-7,2.7c-1,0.8-2.9,2.4-5.8,5.1c2.5,0,5.7-0.4,9.6-1.1
		C74.3,63.6,76.9,62.4,76.9,61z M71.6,40.9l-3,5.1l-4.9-3.7l3-5.1L71.6,40.9z"/>
</g>
<g>
	<path class="st0" d="M38.9,23.2c0,1.6-0.5,3-1.6,4.2s-2.5,1.8-4.1,1.8c-2.7,0-4-1.5-4-4.5c0-1.9,0.4-3.5,1.1-4.8
		c1-1.5,2.3-2.3,4.1-2.3c1.3,0,2.4,0.6,3.2,1.8C38.5,20.6,38.9,21.9,38.9,23.2z M36.8,24.2c0-0.6-0.5-1.3-1.6-2.1
		c-1.1-0.8-2-1.2-2.6-1.2s-1.1,0.3-1.6,0.8c-0.5,0.6-0.7,1.1-0.7,1.7c0,1.5,1.1,2.2,3.3,2.2C35.7,25.7,36.8,25.2,36.8,24.2z"/>
</g>
</svg>
