<?xml version="1.0" encoding="utf-8"?>
<!-- Generator: Adobe Illustrator 23.0.2, SVG Export Plug-In . SVG Version: 6.00 Build 0)  -->
<svg version="1.1" id="Layer_1" xmlns="http://www.w3.org/2000/svg" xmlns:xlink="http://www.w3.org/1999/xlink" x="0px" y="0px"
	 viewBox="0 0 36.6 28.6" style="enable-background:new 0 0 36.6 28.6;" xml:space="preserve">
<g>
	<g>
		<g>
			<path d="M30.9,22.4h-7.7c-1.1,0-3-0.2-4.8-0.8c-1.7,0.5-3.7,0.8-6.1,0.8H5.7c-0.5,0-0.9-0.4-0.9-0.8s0.4-0.8,0.9-0.8h6.6
				c1.2,0,2.5-0.1,3.6-0.3c-1.3-0.9-2.2-2.1-2.2-3.9c0-4.4,3.5-5.4,4.7-5.4c1.4,0,4.8,1.5,4.8,5.4c0,1.6-0.8,2.9-2.3,3.9
				c1,0.2,1.9,0.3,2.3,0.3h7.7c0.5,0,0.8,0.4,0.8,0.8S31.3,22.4,30.9,22.4z M18.4,12.9c0,0-3,0.1-3,3.7c0,1.6,1.4,2.6,3.1,3.2
				c1.9-0.7,3.1-1.7,3.1-3.2C21.6,13.6,18.8,12.9,18.4,12.9z"/>
		</g>
	</g>
	<g>
		<path d="M16.8,9.1C17.6,8.8,18,8,17.7,7.2c-0.3-0.8-1.1-1.2-1.9-0.9c-0.8,0.3-1.2,1.1-0.9,1.9C15.2,8.9,16,9.3,16.8,9.1"/>
		<path d="M19.5,9c0.7,0.4,1.6,0.2,2-0.5c0.4-0.7,0.2-1.6-0.5-2c-0.7-0.4-1.6-0.2-2,0.5C18.6,7.7,18.8,8.6,19.5,9"/>
	</g>
</g>
</svg>
