<?xml version="1.0" encoding="utf-8"?>
<!-- Generator: Adobe Illustrator 23.0.2, SVG Export Plug-In . SVG Version: 6.00 Build 0)  -->
<svg version="1.1" id="Layer_1" xmlns="http://www.w3.org/2000/svg" xmlns:xlink="http://www.w3.org/1999/xlink" x="0px" y="0px"
	 viewBox="0 0 36.6 28.5" style="enable-background:new 0 0 36.6 28.5;" xml:space="preserve">
<g>
	<g>
		<g id="Group_1_1_">
			<path d="M27.1,22.3L27.1,22.3h-18c-0.5,0-0.8-0.4-0.8-0.8c0-0.5,0.4-0.8,0.8-0.8l0,0h12.8c-0.5-0.2-1-0.5-1.4-0.9
				c-1.3-1.2-1.8-3.1-1.3-4.8s1.9-2.9,3.8-3.2c1.4-0.2,2.6,0.1,3.5,1c2.4,2.4,1.5,8.3,1.3,9c0,0.2-0.1,0.3-0.2,0.4
				C27.6,22.3,27.4,22.3,27.1,22.3z M24,13.3c-0.2,0-0.4,0-0.6,0.1c-1.3,0.2-2.2,0.9-2.5,2s0,2.3,0.8,3.1c0.7,0.6,1.8,1.3,4.9,0.6
				c0.1-2-0.1-4.2-1.1-5.2C25.1,13.5,24.6,13.3,24,13.3z"/>
		</g>
	</g>
	<g>
		<path d="M21.8,9c0.8-0.3,1.2-1.1,0.9-1.9c-0.3-0.8-1.1-1.2-1.9-0.9c-0.8,0.3-1.2,1.1-0.9,1.9C20.2,8.9,21,9.3,21.8,9"/>
		<path d="M24.5,8.9c0.7,0.4,1.6,0.2,2-0.5c0.4-0.7,0.2-1.6-0.5-2c-0.7-0.4-1.6-0.2-2,0.5C23.6,7.6,23.8,8.5,24.5,8.9"/>
	</g>
</g>
</svg>
