<?xml version="1.0" encoding="utf-8"?>
<!-- Generator: Adobe Illustrator 22.0.1, SVG Export Plug-In . SVG Version: 6.00 Build 0)  -->
<svg version="1.1" id="Layer_1" xmlns="http://www.w3.org/2000/svg" xmlns:xlink="http://www.w3.org/1999/xlink" x="0px" y="0px"
	 viewBox="0 0 77.9 65.6" style="enable-background:new 0 0 77.9 65.6;" xml:space="preserve">
<style type="text/css">
	.st0{display:none;enable-background:new    ;}
	.st1{display:inline;fill:#EF5316;}
	.st2{fill:none;}
	.st3{clip-path:url(#SVGID_2_);}
	.st4{fill:#235958;}
	.st5{fill:#EF5316;}
</style>
<text transform="matrix(1.0494 0 0 1 325.731 38.4302)" style="display:none;fill:#EF5316;enable-background:new    ; font-family:'AdobeArabic-Regular'; font-size:60px;">أأ</text>
<rect x="97.7" y="-28.4" class="st2" width="76.7" height="86"/>
<rect x="-9.3" y="-23.7" class="st2" width="104" height="94"/>
<rect x="-9.6" y="-29.4" class="st2" width="98" height="93"/>
<rect x="3.4" y="-22.4" class="st2" width="79" height="88"/>
<rect x="-4.6" y="-25.4" class="st2" width="96" height="89"/>
<rect x="-5.6" y="-15.4" class="st2" width="106" height="82"/>
<rect x="-10" y="-19.7" class="st2" width="116" height="81.3"/>
<rect x="-9.6" y="-19.7" class="st2" width="109.7" height="83.3"/>
<rect x="100" y="-22.4" class="st2" width="159.3" height="91.3"/>
<rect x="-9.6" y="-18.4" class="st2" width="105.3" height="82.7"/>
<rect x="100" y="-26.4" class="st2" width="125.3" height="90"/>
<rect x="-3" y="-23.1" class="st2" width="100" height="84.7"/>
<g>
	<g>
		<g>
			<defs>
				<rect id="SVGID_1_" x="-4" y="-17.1" width="91.3" height="83.3"/>
			</defs>
			<clipPath id="SVGID_2_">
				<use xlink:href="#SVGID_1_"  style="overflow:visible;"/>
			</clipPath>
			<g class="st3">
				<path class="st4" d="M-79.4,34.3h-4.8c-0.6,4.2-1.7,7.7-3.2,10.5c-2.2,4-5,6-8.6,6c-2.5,0-5.7-1.2-9.4-3.6l0.5-0.8
					c1.5,0.3,2.5,0.4,3.2,0.4c2.5,0,5-1,7.7-2.9c1.1-0.8,2.5-2.4,4-4.7c1.1-1.8,2.3-3.6,3.4-5.4c-2.1-0.7-3.6-2.3-4.6-4.9l3.9-5.5
					c0.9,1.8,1.9,3,3,3.4c0.7,0.3,2.3,0.4,4.8,0.4C-79.4,27.4-79.4,34.3-79.4,34.3z"/>
				<path class="st4" d="M-53,34.3h-4.7c-1.9,0-3.4-0.6-4.3-1.7c-0.3,2.6-1.5,4-3.7,4c-2,0-4.7-1.9-8.2-5.6
					c-0.3,0.5-1.2,1.4-2.5,2.5c-0.8,0.6-2.5,0.9-5.2,0.9v-7h2.4c1.7,0,3.1-0.8,4.3-2.3c0.9-1.4,1.8-2.9,2.7-4.3
					c1.1-1.5,2.5-2.3,4.1-2.3c0.8,0,1.8,0.7,3,2.2s2.2,2.9,3.2,4.4c1.4,1.6,2.8,2.3,4.3,2.3h4.7v6.9H-53z M-66.1,27.4
					c0-1-0.2-2.1-0.5-3.4c-0.4-1.6-1-2.4-1.7-2.4c-0.6,0-1.2,0.6-1.8,1.7c-0.4,0.8-0.8,1.7-1.2,2.5c2.1,2.1,3.6,3.1,4.4,3.1
					C-66.4,28.9-66.1,28.4-66.1,27.4z"/>
				<path class="st5" d="M-44.1-6.3c0,1.3-0.5,2.5-1.4,3.6c-1,1-2.2,1.5-3.6,1.5c-2.3,0-3.5-1.3-3.5-3.8c0-1.6,0.3-2.9,1-4
					c0.8-1.3,2-1.9,3.6-1.9c1.1,0,2.1,0.5,2.9,1.5C-44.5-8.5-44.1-7.4-44.1-6.3z M-45.9-5.5c0-0.5-0.5-1.1-1.4-1.8
					c-0.9-0.6-1.7-1-2.3-1c-0.5,0-1,0.2-1.4,0.7s-0.6,1-0.6,1.4c0,1.3,1,1.9,2.9,1.9C-46.8-4.2-45.9-4.6-45.9-5.5z"/>
				<path class="st5" d="M-39.1,34.3h-4.6c-2.2,0-3.7-1.3-4.7-3.8c-1.3,2.5-2.8,3.8-4.6,3.8h-2.3v-7c2.7,0,3.8,0,3.2,0
					c1.5,0,2.5-0.3,3-0.8c0.1-0.1,0.2-1.2,0.2-3.2l0.4,0.1c0.3,2,1.5,3.2,3.7,3.6c0.7,0.2,2.6,0.3,5.8,0.3L-39.1,34.3L-39.1,34.3z
					 M-41.9,16.6l-2.5,4.2l-4.1-2.8l-2,3.6l-4.4-3.2l2.6-4.2l3.9,3l2.4-3.8L-41.9,16.6z M-46.5,10.2l-2.5,4.3l-4.3-3.1l2.7-4.2
					L-46.5,10.2z"/>
				<path class="st4" d="M-22.5,26c0,1.5-0.4,2.8-1.1,4c-0.8,1.4-1.9,2.1-3.3,2.1c-1.5,0-4-0.8-7.6-2.5c-0.3,0.9-0.9,1.8-1.9,3
					c-1,1.3-1.9,1.9-2.7,1.9h-2.3v-7c2.1,0,3.5-0.1,4.2-0.4c1-0.4,1.9-1.4,2.6-3s1.3-3.2,2-4.9c1.2-2.1,2.6-3.2,4.2-3.2
					c1.8,0,3.3,1.3,4.5,4C-23,22-22.5,24.1-22.5,26z M-26.4,24.7c0-0.8-0.4-1.5-1.1-2.1s-1.5-0.9-2.4-0.9c-1,0-1.9,0.6-2.5,1.9
					c2.4,1.3,4.1,2,5,2C-26.8,25.6-26.4,25.3-26.4,24.7z"/>
				<path class="st4" d="M20.9,32.7c0,3.8-1,7.3-2.9,10.6c-2.3,4-5.3,6-8.9,6c-2.2,0-5-1.1-8.4-3.3L1,45.1c1,0.2,1.9,0.3,2.5,0.3
					c3,0,6.2-1.4,9.7-4.1c3.5-2.7,5.2-5.4,5.2-8.1c0-1-0.7-2.4-2.2-4.4c-1.1-1.3-2.2-2.6-3.2-3.9c0.7-3,1.2-5.4,1.6-7.2
					C18.8,22.2,20.9,27.2,20.9,32.7z"/>
				<path class="st4" d="M39.6,34.3h-4.7c-2.2,0-3.8-0.9-4.9-2.7c-0.8-1.4-1.4-4.1-1.5-8.1c0-1.7-0.4-4.7-0.9-9.1
					c-0.6-4-0.8-7-0.8-9.1c0-0.6,0-1.1,0.1-1.4c0-0.3,1.2-1.4,3.5-3.2c0,0.2,0.3,3.8,0.9,10.7c0.6,6.3,0.8,10.1,0.8,11.4
					c0,1.5,0.3,2.6,0.8,3.4c0.5,0.7,1.6,1.1,3.1,1.1c-2.4,0-1.2-0.1,3.6-0.1L39.6,34.3L39.6,34.3z"/>
				<path class="st4" d="M65.8,34.3h-4.7c-1.9,0-3.4-0.6-4.3-1.7c-0.3,2.6-1.5,4-3.7,4c-2,0-4.7-1.9-8.2-5.6
					c-0.3,0.5-1.2,1.4-2.5,2.5c-0.8,0.6-2.5,0.9-5.2,0.9v-7h2.4c1.7,0,3.1-0.8,4.3-2.3c0.9-1.4,1.8-2.9,2.7-4.3
					c1.1-1.5,2.5-2.3,4.1-2.3c0.8,0,1.8,0.7,3,2.2c1.1,1.5,2.2,2.9,3.2,4.4c1.4,1.6,2.8,2.3,4.3,2.3h4.7L65.8,34.3L65.8,34.3z
					 M52.7,27.4c0-1-0.2-2.1-0.5-3.4c-0.4-1.6-1-2.4-1.7-2.4c-0.6,0-1.2,0.6-1.8,1.7c-0.4,0.8-0.8,1.7-1.2,2.5
					c2.1,2.1,3.6,3.1,4.4,3.1C52.4,28.9,52.7,28.4,52.7,27.4z"/>
				<path class="st5" d="M72.7,36.8c0,1.5-0.5,2.6-1.6,3.2l-9.6,5.3c0-1,0.1-1.7,0.4-2c0.3-0.4,0.9-0.8,1.8-1.4L72.7,36.8z"/>
				<path class="st5" d="M73.9,23.9c0,2.9-0.6,5.2-1.8,7.1c-1.4,2.2-3.5,3.4-6.3,3.4h-2.3v-7c4.9,0,7.3-0.5,7.3-1.6
					c0-0.2-0.4-0.8-1.2-1.7c-0.8-0.9-1.2-1.6-1.2-2.2c0-0.8,1-3.1,3.1-6.9C73.1,18.4,73.9,21.4,73.9,23.9z M76.9,9.7l-2.7,4.1
					l-4.1-2.7l-2,3.5l-4.4-3.1l2.7-4.2l3.9,2.9l2.5-3.8L76.9,9.7z M72.1,3.2l-2.5,4.2l-4.3-3.1l2.6-4.2L72.1,3.2z"/>
				<path class="st4" d="M125.5,22.9c0,4-1.4,7.2-4.2,9.6s-6.3,3.7-10.5,3.7c-3,0-5.4-0.7-7.3-2.1c-2.1-1.5-3.2-3.7-3.2-6.4
					c0-3.4,1.3-7.6,3.9-12.7l0.9,0.6c-1.2,2.3-1.8,4.4-1.8,6.1c0,2.8,0.8,4.8,2.5,5.8c1.3,0.9,3.6,1.3,6.8,1.3
					c2.3,0,4.4-0.4,6.5-1.2c2.8-1.1,4.2-2.5,4.2-4.3c0-0.8-0.8-2.4-2.3-4.8c-1.3-2.1-2.3-3.7-3.1-4.7l2.6-6.2
					C123.9,11.8,125.5,16.9,125.5,22.9z M114,4.8l-2.6,4.1l-4.3-3l2.7-4.2L114,4.8z"/>
				<path class="st4" d="M144.4,34.3h-4.7c-2.2,0-3.8-0.9-4.9-2.7c-0.8-1.4-1.4-4.1-1.5-8.1c0-1.7-0.4-4.7-0.9-9.1
					c-0.6-4-0.8-7-0.8-9.1c0-0.6,0-1.1,0.1-1.4c0-0.3,1.2-1.4,3.5-3.2c0,0.2,0.3,3.8,0.9,10.7c0.6,6.3,0.8,10.1,0.8,11.4
					c0,1.5,0.3,2.6,0.8,3.4c0.5,0.7,1.6,1.1,3.1,1.1c-2.4,0-1.2-0.1,3.6-0.1L144.4,34.3L144.4,34.3z"/>
				<path class="st4" d="M158.2,34.3h-4.6c-2.2,0-3.7-1.3-4.7-3.8c-1.3,2.5-2.8,3.8-4.6,3.8H142v-7c2.7,0,3.8,0,3.2,0
					c1.5,0,2.5-0.3,3-0.8c0.1-0.1,0.2-1.2,0.2-3.2l0.4,0.1c0.3,2,1.5,3.2,3.7,3.7c0.7,0.1,2.6,0.2,5.8,0.2L158.2,34.3L158.2,34.3z
					 M153,39.8l-2.6,4.2l-4.3-3l2.7-4.2L153,39.8z"/>
				<path class="st4" d="M178.4,34.3h-4.7c-0.9,0-2.1-0.7-3.7-2.1c-0.1,0-1.2-1.1-3.3-3.3c-3.9,3.6-6.7,5.4-8.4,5.4H156v-7
					c2.2,0,3.5,0,3.9-0.1c0.9-0.2,2.1-0.7,3.4-1.6c-1.5-2.2-3.5-3.3-5.8-3.3c0.2-2.7,1-4.7,2.5-5.8c1.4-1,3.5-1.5,6.5-1.5
					c2.2,0,4,0.5,5.4,1.5c1.6,1.2,2.5,2.8,2.5,4.8c0,2.1-1.3,3.8-3.9,5c1.2,0.6,2.5,0.9,3.7,0.9c-0.6,0,0.8,0,4.2,0L178.4,34.3
					L178.4,34.3z"/>
				<path class="st5" d="M188.1-12.5l-0.3,3.1c-0.6-0.3-1.4-0.8-2.6-1.6c-2.5,3-4.7,4.5-6.5,4.5c-0.4,0-1.1-0.1-2-0.3
					c2.1-1.1,4.4-2.7,7-4.9c-1.4-1.1-2-2-2-2.9c0-1.1,0.4-2.2,1.2-3.5s1.7-1.9,2.8-1.9c1.4,0,2.1,0.9,2.1,2.8c0,1.3-0.3,2.5-1,3.8
					C187.3-13.1,187.7-12.7,188.1-12.5z M185.8-15.3c0-0.4-0.2-0.8-0.5-1.3c-0.4-0.5-0.7-0.7-1.2-0.7s-0.7,0.3-0.7,0.9
					c0,0.4,0.8,1.1,2.3,2.1C185.8-14.8,185.8-15.2,185.8-15.3z"/>
				<path class="st5" d="M186.5,23.9c0,2.9-0.6,5.2-1.8,7.1c-1.4,2.2-3.5,3.4-6.3,3.4H176v-7c4.9,0,7.3-0.5,7.3-1.6
					c0-0.2-0.4-0.8-1.2-1.7c-0.8-0.9-1.2-1.6-1.2-2.2c0-0.8,1-3.1,3.1-6.9C185.6,18.4,186.5,21.4,186.5,23.9z M189.5,9.7l-2.7,4.1
					l-4.1-2.7l-2,3.5l-4.4-3.1l2.7-4.2l3.9,2.9l2.5-3.8L189.5,9.7z M184.6,3.2l-2.5,4.2l-4.3-3.1l2.6-4.2L184.6,3.2z"/>
				<path class="st4" d="M272.6,34.3h-4.7c-2.5,0-4-1.1-4.6-3.2c-5.8,3.8-13,5.8-21.5,5.8c-4.7,0-8.6-0.8-11.7-2.3
					c-3.9-2-5.8-5-5.8-9.1c0-2.5,1-5.9,3.1-9.9l0.9,0.4c-0.8,2-1.3,3.8-1.3,5.5c0,3,2,5.3,6,6.6c2.8,1,6.1,1.5,10,1.5
					c7.1,0,12.4-0.6,15.8-1.8c1.1-0.4,1.7-0.6,1.8-0.6c0.8-0.4,1.2-0.7,1.4-1.2c0.2-0.4,0.3-1.2,0.2-2.4h0.7c0.7,2.5,2.7,3.8,6,3.8
					c0.4,0,1,0,1.8-0.1c0.8,0,1.4,0,1.8,0L272.6,34.3L272.6,34.3z M250.2,43.9l-2.5,4.2l-4.3-3.1l2.7-4.1L250.2,43.9z"/>
				<path class="st4" d="M289.2,34.3h-4.6c-3.1,0-5.2-2.5-6.2-7.5c-1.5,5-3.4,7.5-5.8,7.5h-2.3v-7h2.3c3,0,4.5-2.7,4.5-8
					c0-2.2-0.2-5.5-0.6-9.9s-0.6-7.7-0.6-9.9c0-0.1,1.1-1,3.4-2.9c0.5,3.1,0.7,5.7,0.7,7.9c0,4.7,0.2,8.9,0.6,12.6
					c0.8,6.8,2.1,10.2,3.9,10.2h4.6v7H289.2z"/>
				<path class="st4" d="M309.4,34.3h-4.7c-0.9,0-2.1-0.7-3.7-2.1c-0.1,0-1.2-1.1-3.3-3.3c-3.9,3.6-6.7,5.4-8.4,5.4H287v-7
					c2.2,0,3.5,0,3.9-0.1c0.9-0.2,2.1-0.7,3.4-1.6c-1.5-2.2-3.5-3.3-5.8-3.3c0.2-2.7,1-4.7,2.5-5.8c1.4-1,3.5-1.5,6.5-1.5
					c2.2,0,4,0.5,5.4,1.5c1.6,1.2,2.5,2.8,2.5,4.8c0,2.1-1.3,3.8-3.9,5c1.2,0.6,2.5,0.9,3.7,0.9c-0.6,0,0.8,0,4.2,0L309.4,34.3
					L309.4,34.3z"/>
				<path class="st5" d="M318.9-15c0,1.6-0.5,2.7-1.6,3.4l-9.6,5.2c0-0.9,0.1-1.6,0.4-2s0.9-0.8,1.8-1.3L318.9-15z"/>
				<path class="st5" d="M317.4,23.9c0,2.9-0.6,5.2-1.8,7.1c-1.4,2.2-3.5,3.4-6.3,3.4H307v-7c4.9,0,7.3-0.5,7.3-1.6
					c0-0.2-0.4-0.8-1.2-1.7c-0.8-0.9-1.2-1.6-1.2-2.2c0-0.8,1-3.1,3.1-6.9C316.6,18.4,317.4,21.4,317.4,23.9z M320.4,9.7l-2.7,4.1
					l-4.1-2.7l-2,3.5l-4.4-3.1l2.7-4.2l3.9,2.9l2.5-3.8L320.4,9.7z M315.6,3.2l-2.5,4.2l-4.3-3.1l2.6-4.2L315.6,3.2z"/>
				<path class="st4" d="M367.6,34.3h-4.8c-0.6,4.2-1.7,7.7-3.2,10.5c-2.2,4-5,6-8.6,6c-2.5,0-5.7-1.2-9.4-3.6l0.5-0.8
					c1.5,0.3,2.5,0.4,3.2,0.4c2.5,0,5-1,7.7-2.9c1.1-0.8,2.5-2.4,4-4.7c1.1-1.8,2.3-3.6,3.4-5.4c-2.1-0.7-3.6-2.3-4.6-4.9l3.9-5.5
					c0.9,1.8,1.9,3,3,3.4c0.7,0.3,2.3,0.4,4.8,0.4L367.6,34.3L367.6,34.3z"/>
				<path class="st4" d="M404.2,34.3h-7.7c-6,0-8.9-1.7-8.9-5c0-1.1,0.4-2.8,1.3-5.1c-3,0.4-5.5,1.2-7.5,2.1c-1.2,0.6-3.3,2-6.3,4.2
					c-1,0.7-2.5,1.7-4.5,3c-1,0.5-2.7,0.7-5.2,0.7v-7c3.1,0,5.6-0.3,7.5-0.8c1.6-0.4,4-1.4,7-2.9c-2.7-1.3-4.8-1.9-6.3-1.9
					c-0.9,0-1.7,0.4-2.2,1.2H367c0.7-2.6,1.4-4.4,2.1-5.6c1.2-1.7,3-2.6,5.2-2.6c1.4,0,3.5,0.5,6.2,1.5c4.4,1.6,8.2,2.4,11.6,2.4
					c0.6,0,1.4,0,2.5-0.1s1.9-0.1,2.5-0.1l-0.8,5.4c-2.2,0.2-3.8,0.3-4.9,0.5c0.7,1.3,1.5,2.2,2.5,2.6c0.8,0.3,2.1,0.5,3.8,0.5h6.6
					L404.2,34.3L404.2,34.3z M385.8,37.1l-2.5,4.2l-4.3-3.2l2.7-4.2L385.8,37.1z"/>
				<path class="st5" d="M413.1-1.5c0,1.3-0.5,2.5-1.4,3.6c-1,1-2.2,1.5-3.6,1.5c-2.3,0-3.5-1.3-3.5-3.8c0-1.6,0.3-2.9,1-4
					c0.8-1.3,2-1.9,3.6-1.9c1.1,0,2.1,0.5,2.9,1.5C412.7-3.7,413.1-2.6,413.1-1.5z M411.2-0.7c0-0.5-0.5-1.1-1.4-1.8
					c-0.9-0.6-1.7-1-2.3-1c-0.5,0-1,0.2-1.4,0.7s-0.6,1-0.6,1.4c0,1.3,1,1.9,2.9,1.9C410.3,0.6,411.2,0.2,411.2-0.7z"/>
				<path class="st5" d="M418.1,34.3h-4.6c-2.2,0-3.7-1.3-4.7-3.8c-1.3,2.5-2.8,3.8-4.6,3.8h-2.3v-7c2.7,0,3.8,0,3.2,0
					c1.5,0,2.5-0.3,3-0.8c0.1-0.1,0.2-1.2,0.2-3.2l0.4,0.1c0.3,2,1.5,3.2,3.7,3.6c0.7,0.2,2.6,0.3,5.8,0.3v7H418.1z M415.2,16.6
					l-2.5,4.2l-4.1-2.8l-2,3.6l-4.4-3.2l2.6-4.2l3.9,3l2.4-3.8L415.2,16.6z"/>
				<path class="st4" d="M434.7,26c0,1.5-0.4,2.8-1.1,4c-0.8,1.4-1.9,2.1-3.3,2.1c-1.5,0-4-0.8-7.6-2.5c-0.3,0.9-0.9,1.8-1.9,3
					c-1,1.3-1.9,1.9-2.7,1.9h-2.3v-7c2.1,0,3.5-0.1,4.2-0.4c1-0.4,1.9-1.4,2.6-3s1.3-3.2,2-4.9c1.2-2.1,2.6-3.2,4.2-3.2
					c1.8,0,3.3,1.3,4.5,4C434.2,22,434.7,24.1,434.7,26z M430.7,24.7c0-0.8-0.4-1.5-1.1-2.1s-1.5-0.9-2.4-0.9c-1,0-1.9,0.6-2.5,1.9
					c2.4,1.3,4.1,2,5,2C430.4,25.6,430.7,25.3,430.7,24.7z"/>
				<path class="st4" d="M463.5,24.9h-4.4c0.7-2.6,1.4-4.5,2.1-5.6c1.2-1.8,3-2.7,5.2-2.7c1.7,0,3.9,0.2,6.6,0.7
					c3.5,0.6,5.7,0.9,6.6,1c1.5,0,3.7,0.1,6.5,0.3L485,24c-2.6,0-5.1,0.2-7.3,0.6c-4.1,0.7-7.7,2.3-10.7,4.8
					c-3.4,2.8-5.1,6.1-5.1,9.9c0,4.5,2.8,7.9,8.3,10.1c4,1.6,8.8,2.3,14.4,2.3c1.5,0,4.9-0.2,10.4-0.6l0.1,0.8l-13.9,6.4h-1.7
					c-6.1,0-10.9-1.1-14.4-3.2c-4.3-2.6-6.5-6.6-6.5-12.1c0-7.5,4-13.7,11.9-18.6c-2.5-0.5-4.2-0.8-5-0.8c-0.7,0-1.2,0.1-1.4,0.2
					C464,24,463.7,24.4,463.5,24.9z"/>
				<path class="st4" d="M511.8,34.3h-4.7c-2.2,0-3.8-0.9-4.9-2.7c-0.8-1.4-1.4-4.1-1.5-8.1c0-1.7-0.4-4.7-0.9-9.1
					c-0.6-4-0.8-7-0.8-9.1c0-0.6,0-1.1,0.1-1.4c0-0.3,1.2-1.4,3.5-3.2c0,0.2,0.3,3.8,0.9,10.7c0.6,6.3,0.8,10.1,0.8,11.4
					c0,1.5,0.3,2.6,0.8,3.4c0.5,0.7,1.6,1.1,3.1,1.1c-2.4,0-1.2-0.1,3.6-0.1V34.3L511.8,34.3z"/>
				<path class="st4" d="M522.2,34.3c-3,0-4.9-1.3-5.9-3.9c-1.2,2.6-2.7,3.9-4.6,3.9h-2.3v-7c3.5,0,5.6-0.3,6.3-0.8
					c0.3-0.2,0.5-1.2,0.6-3h0.4c0.5,1.4,1.3,2.4,2.3,2.9c0.8,0.4,2.1,0.5,3.9,0.5v7.3C522.8,34.3,522.2,34.3,522.2,34.3z"/>
				<path class="st4" d="M522.2,27h2.3c1.9,0,3.1-0.4,3.4-1.1c0.1-0.2,0.3-1.3,0.5-3.5l0.8,0.1c0,0.9,0.9,2,2.6,3.2
					c0.6,0.4,1.7,0.6,3.4,0.6c1.3,0,2.2-0.4,2.7-1.3c0.3-0.5,0.4-1.5,0.5-3h0.8c0.4,1.7,1.2,3.1,2.5,4.2c0.8,0.7,2.1,1.1,3.8,1.2
					c-1.5,0-0.1-0.1,4.2-0.1v7h-4.6c-1.7,0-3.1-0.7-4.2-2.1c-0.7-0.9-1.3-2.3-2-4.4c-1.3,3.8-3.1,5.6-5.4,5.6
					c-1.9,0-3.3-1.2-4.2-3.7c-1.3,3-3.7,4.5-7.2,4.5L522.2,27L522.2,27z"/>
				<path class="st4" d="M576,34.3h-4.7c-1.9,0-3.4-0.6-4.3-1.7c-0.3,2.6-1.5,4-3.7,4c-2,0-4.7-1.9-8.2-5.6
					c-0.3,0.5-1.2,1.4-2.5,2.5c-0.8,0.6-2.5,0.9-5.2,0.9v-7h2.4c1.7,0,3.1-0.8,4.3-2.3c0.9-1.4,1.8-2.9,2.7-4.3
					c1.1-1.5,2.5-2.3,4.1-2.3c0.8,0,1.8,0.7,3,2.2s2.2,2.9,3.2,4.4c1.4,1.6,2.8,2.3,4.3,2.3h4.7L576,34.3L576,34.3z M562.9,27.4
					c0-1-0.2-2.1-0.5-3.4c-0.4-1.6-1-2.4-1.7-2.4c-0.6,0-1.2,0.6-1.8,1.7c-0.4,0.8-0.8,1.7-1.2,2.5c2.1,2.1,3.6,3.1,4.4,3.1
					C562.7,28.9,562.9,28.4,562.9,27.4z"/>
				<path class="st4" d="M573.7,34.3v-7h14.1v7H573.7z"/>
				<path class="st5" d="M596.4,56.2c0,1.5-0.5,2.6-1.6,3.2l-9.6,5.3c0-1,0.1-1.7,0.4-2c0.3-0.4,0.9-0.8,1.8-1.4L596.4,56.2z"/>
				<path class="st5" d="M595,23.9c0,2.9-0.6,5.2-1.8,7.1c-1.4,2.2-3.5,3.4-6.3,3.4h-2.3v-7c4.9,0,7.3-0.5,7.3-1.6
					c0-0.2-0.4-0.8-1.2-1.7c-0.8-0.9-1.2-1.6-1.2-2.2c0-0.8,1-3.1,3.1-6.9C594.1,18.4,595,21.4,595,23.9z M598,9.7l-2.7,4.1
					l-4.1-2.7l-2,3.5l-4.4-3.1l2.7-4.2l3.9,2.9l2.5-3.8L598,9.7z"/>
				<path class="st4" d="M624.7,24.9h-4.4c0.7-2.6,1.4-4.5,2.1-5.6c1.2-1.8,3-2.7,5.2-2.7c1.7,0,3.9,0.2,6.6,0.7
					c3.5,0.6,5.7,0.9,6.6,1c1.5,0,3.7,0.1,6.5,0.3l-1.1,5.4c-2.6,0-5.1,0.2-7.3,0.6c-4.1,0.7-7.7,2.3-10.7,4.8
					c-3.4,2.8-5.1,6.1-5.1,9.9c0,4.5,2.8,7.9,8.3,10.1c4,1.6,8.8,2.3,14.4,2.3c1.5,0,4.9-0.2,10.4-0.6l0.1,0.8l-13.9,6.4h-1.7
					c-6.1,0-10.9-1.1-14.4-3.2c-4.3-2.6-6.5-6.6-6.5-12.1c0-7.5,4-13.7,11.9-18.6c-2.5-0.5-4.2-0.8-5-0.8c-0.7,0-1.2,0.1-1.4,0.2
					C625.3,24,625,24.4,624.7,24.9z"/>
				<path class="st4" d="M673.1,34.3h-4.7c-2.2,0-3.8-0.9-4.9-2.7c-0.8-1.4-1.4-4.1-1.5-8.1c0-1.7-0.4-4.7-0.9-9.1
					c-0.6-4-0.8-7-0.8-9.1c0-0.6,0-1.1,0.1-1.4s1.2-1.4,3.5-3.2c0,0.2,0.3,3.8,0.9,10.7c0.6,6.3,0.8,10.1,0.8,11.4
					c0,1.5,0.3,2.6,0.8,3.4c0.5,0.7,1.6,1.1,3.1,1.1c-2.4,0-1.2-0.1,3.6-0.1L673.1,34.3L673.1,34.3z"/>
				<path class="st4" d="M693.2,34.3h-4.7c-3.5,0-6.1-0.8-7.9-2.5c-3.1,1.7-5.6,2.5-7.6,2.5h-2.3v-7c2.3,0,3.8-0.3,4.8-0.8
					c-0.5-0.5-0.8-1-0.8-1.6c0-2.1,0.7-4.4,2.2-6.9c1.4-2.4,3-4.2,4.8-5.6c1.2-0.9,2.2-1.3,3-1.3c1.5,0,2.6,1.1,3.3,3.4
					c0.5,1.6,0.8,3.3,0.8,5.2c0,2.6-0.8,4.9-2.5,6.8c0.8,0.6,2,1,3.4,1c-2.2,0-1-0.1,3.6-0.1L693.2,34.3L693.2,34.3z M686.3,21.7
					c0-1-0.4-1.9-1.2-2.6s-1.8-1-2.9-1c-0.9,0-1.8,0.2-2.6,0.7c-1,0.5-1.5,1.2-1.5,2c0,1,1.2,2.3,3.5,4
					C684.7,24.1,686.3,23,686.3,21.7z M687.4,3.2l-2.6,4.2l-4.3-3l2.7-4.2L687.4,3.2z"/>
				<path class="st5" d="M702.8-7.7l-0.3,3.1C702-5,701.1-5.5,700-6.2c-2.5,3-4.7,4.5-6.5,4.5c-0.4,0-1.1-0.1-2-0.3
					c2.1-1.1,4.4-2.7,7-4.9c-1.4-1.1-2-2-2-2.9c0-1.1,0.4-2.2,1.2-3.5s1.7-1.9,2.8-1.9c1.4,0,2.1,0.9,2.1,2.8c0,1.3-0.3,2.5-1,3.8
					C702-8.3,702.5-8,702.8-7.7z M700.6-10.5c0-0.4-0.2-0.8-0.5-1.3c-0.4-0.5-0.7-0.7-1.2-0.7s-0.7,0.3-0.7,0.9
					c0,0.4,0.8,1.1,2.3,2.1C700.5-10.1,700.6-10.4,700.6-10.5z"/>
				<path class="st5" d="M701.3,23.9c0,2.9-0.6,5.2-1.8,7.1c-1.4,2.2-3.5,3.4-6.3,3.4h-2.3v-7c4.9,0,7.3-0.5,7.3-1.6
					c0-0.2-0.4-0.8-1.2-1.7c-0.8-0.9-1.2-1.6-1.2-2.2c0-0.8,1-3.1,3.1-6.9C700.4,18.4,701.3,21.4,701.3,23.9z M704.3,9.7l-2.7,4.1
					l-4.1-2.7l-2,3.5l-4.4-3.1l2.7-4.2l3.9,2.9l2.5-3.8L704.3,9.7z"/>
				<path class="st4" d="M751.4,34.3h-4.8c-0.6,4.2-1.7,7.7-3.2,10.5c-2.2,4-5,6-8.6,6c-2.5,0-5.7-1.2-9.4-3.6l0.5-0.8
					c1.5,0.3,2.5,0.4,3.2,0.4c2.5,0,5-1,7.7-2.9c1.1-0.8,2.5-2.4,4-4.7c1.1-1.8,2.3-3.6,3.4-5.4c-2.1-0.7-3.6-2.3-4.6-4.9l3.9-5.5
					c0.9,1.8,1.9,3,3,3.4c0.7,0.3,2.3,0.4,4.8,0.4L751.4,34.3L751.4,34.3z"/>
				<path class="st4" d="M777.8,34.3h-4.7c-1.9,0-3.4-0.6-4.3-1.7c-0.3,2.6-1.5,4-3.7,4c-2,0-4.7-1.9-8.2-5.6
					c-0.3,0.5-1.2,1.4-2.5,2.5c-0.8,0.6-2.5,0.9-5.2,0.9v-7h2.4c1.7,0,3.1-0.8,4.3-2.3c0.9-1.4,1.8-2.9,2.7-4.3
					c1.1-1.5,2.5-2.3,4.1-2.3c0.8,0,1.8,0.7,3,2.2c1.1,1.5,2.2,2.9,3.2,4.4c1.4,1.6,2.8,2.3,4.3,2.3h4.7L777.8,34.3L777.8,34.3z
					 M764.8,27.4c0-1-0.2-2.1-0.5-3.4c-0.4-1.6-1-2.4-1.7-2.4c-0.6,0-1.2,0.6-1.8,1.7c-0.4,0.8-0.8,1.7-1.2,2.5
					c2.1,2.1,3.6,3.1,4.4,3.1C764.5,28.9,764.8,28.4,764.8,27.4z"/>
				<path class="st4" d="M775.5,34.3v-7h14.1v7H775.5z"/>
				<path class="st5" d="M798.3-10.3c0,1.6-0.5,2.7-1.6,3.4l-9.6,5.2c0-0.9,0.1-1.6,0.4-2c0.3-0.4,0.9-0.8,1.8-1.3L798.3-10.3z"/>
				<path class="st5" d="M796.8,23.9c0,2.9-0.6,5.2-1.8,7.1c-1.4,2.2-3.5,3.4-6.3,3.4h-2.3v-7c4.9,0,7.3-0.5,7.3-1.6
					c0-0.2-0.4-0.8-1.2-1.7c-0.8-0.9-1.2-1.6-1.2-2.2c0-0.8,1-3.1,3.1-6.9C796,18.4,796.8,21.4,796.8,23.9z M799.8,9.7l-2.7,4.1
					l-4.1-2.7l-2,3.5l-4.4-3.1l2.7-4.2l3.9,2.9l2.5-3.8L799.8,9.7z"/>
				<path class="st4" d="M857.8,34.3H853c-0.6,4.2-1.7,7.7-3.2,10.5c-2.2,4-5,6-8.6,6c-2.5,0-5.7-1.2-9.4-3.6l0.5-0.8
					c1.5,0.3,2.5,0.4,3.2,0.4c2.5,0,5-1,7.7-2.9c1.1-0.8,2.5-2.4,4-4.7c1.1-1.8,2.3-3.6,3.4-5.4c-2.1-0.7-3.6-2.3-4.6-4.9l3.9-5.5
					c0.9,1.8,1.9,3,3,3.4c0.7,0.3,2.3,0.4,4.8,0.4L857.8,34.3L857.8,34.3z M853,14.2l-2.5,4.2l-4.3-3.1l2.5-4.2L853,14.2z"/>
				<path class="st5" d="M872.2,34.3h-4.6c-2.2,0-3.7-1.3-4.7-3.8c-1.3,2.5-2.8,3.8-4.6,3.8H856v-7c2.7,0,3.8,0,3.2,0
					c1.5,0,2.5-0.3,3-0.8c0.1-0.1,0.2-1.2,0.2-3.2l0.4,0.1c0.3,2,1.5,3.2,3.7,3.7c0.7,0.1,2.6,0.2,5.8,0.2L872.2,34.3L872.2,34.3z
					 M867,39.8l-2.6,4.2l-4.3-3l2.7-4.2L867,39.8z"/>
				<path class="st4" d="M890.5-7.5c0,1.3-0.5,2.5-1.4,3.6c-1,1-2.2,1.5-3.6,1.5c-2.3,0-3.5-1.3-3.5-3.8c0-1.6,0.3-2.9,1-4
					c0.8-1.3,2-1.9,3.6-1.9c1.1,0,2.1,0.5,2.9,1.5C890.2-9.6,890.5-8.6,890.5-7.5z M888.7-6.7c0-0.5-0.5-1.1-1.4-1.8
					c-0.9-0.6-1.7-1-2.3-1c-0.5,0-1,0.2-1.4,0.7s-0.6,1-0.6,1.4c0,1.3,1,1.9,2.9,1.9C887.8-5.4,888.7-5.8,888.7-6.7z"/>
				<path class="st4" d="M900.3,18.4l-0.8,5.4c-0.9,0.1-2.2,0.2-3.9,0.2c-3.3,0-6.4,0.7-9.2,2c-1.4,0.7-3.3,1.9-5.7,3.8
					s-4.3,3.1-5.6,3.7c-0.9,0.5-2.7,0.7-5.2,0.7v-7c3.1,0,5.6-0.3,7.5-0.8c1.6-0.4,4-1.4,7-2.9c-2.7-1.3-4.8-1.9-6.3-1.9
					c-1.2,0-1.9,0.4-2.2,1.2h-4.4c0.7-2.6,1.4-4.4,2.1-5.6c1.2-1.7,3-2.6,5.2-2.6c1.4,0,3.5,0.5,6.2,1.5c4.4,1.6,8.2,2.4,11.6,2.4
					c0.4,0,1,0,1.8-0.1C899.3,18.5,899.9,18.4,900.3,18.4z M892.8,8.6l-2.5,4.2l-4.3-3l2.6-4.2L892.8,8.6z"/>
				<path class="st4" d="M975.7,34.3H971c-2.5,0-4-1.1-4.6-3.2c-5.8,3.8-13,5.8-21.5,5.8c-4.7,0-8.6-0.8-11.7-2.3
					c-3.9-2-5.8-5-5.8-9.1c0-2.5,1-5.9,3.1-9.9l0.9,0.4c-0.8,2-1.3,3.8-1.3,5.5c0,3,2,5.3,6,6.6c2.8,1,6.1,1.5,10,1.5
					c7.1,0,12.4-0.6,15.8-1.8c1.1-0.4,1.7-0.6,1.8-0.6c0.8-0.4,1.2-0.7,1.4-1.2c0.2-0.4,0.3-1.2,0.2-2.4h0.7c0.7,2.5,2.7,3.8,6,3.8
					c0.4,0,1,0,1.8-0.1c0.8,0,1.4,0,1.8,0L975.7,34.3L975.7,34.3z M954.6,11.4l-2.6,4.1l-4.1-2.7l-2,3.5l-4.4-3.1L944,9l3.9,3
					l2.4-3.7L954.6,11.4z"/>
				<path class="st4" d="M989.6,34.3H985c-2.2,0-3.7-1.3-4.7-3.8c-1.3,2.5-2.8,3.8-4.6,3.8h-2.3v-7c2.7,0,3.8,0,3.2,0
					c1.5,0,2.5-0.3,3-0.8c0.1-0.1,0.2-1.2,0.2-3.2l0.4,0.1c0.3,2,1.5,3.2,3.7,3.6c0.7,0.2,2.6,0.3,5.8,0.3L989.6,34.3L989.6,34.3z
					 M984.7,16.2l-2.4,4.2l-4.3-3.1l2.5-4.1L984.7,16.2z"/>
				<path class="st5" d="M999.2,55.6c0,1.5-0.5,2.6-1.6,3.2l-9.6,5.3c0-1,0.1-1.7,0.4-2c0.3-0.4,0.9-0.8,1.8-1.4L999.2,55.6z"/>
				<path class="st5" d="M997.7,23.9c0,2.9-0.6,5.2-1.8,7.1c-1.4,2.2-3.5,3.4-6.3,3.4h-2.3v-7c4.9,0,7.3-0.5,7.3-1.6
					c0-0.2-0.4-0.8-1.2-1.7c-0.8-0.9-1.2-1.6-1.2-2.2c0-0.8,1-3.1,3.1-6.9C996.9,18.4,997.7,21.4,997.7,23.9z M997.6,39.8L995,44
					l-4.3-3l2.7-4.2L997.6,39.8z"/>
				<path class="st4" d="M1061,18.8l-1.1,5.4c-2.6,0-5.1,0.2-7.3,0.6c-4.1,0.7-7.7,2.3-10.7,4.8c-3.4,2.8-5.1,6.1-5.1,9.9
					c0,4.5,2.8,7.9,8.3,10.1c4,1.6,8.8,2.3,14.4,2.3c1.5,0,4.9-0.2,10.4-0.6l0.1,0.8l-13.9,6.4h-1.7c-6.1,0-10.9-1.1-14.4-3.2
					c-4.3-2.6-6.5-6.6-6.5-12.1c0-7.5,4-13.7,11.9-18.6l-4.3-0.9c-1.5,0-2.4,0.4-2.9,1.3h-4.4c0.7-2.6,1.4-4.4,2.1-5.6
					c1.2-1.8,3-2.7,5.2-2.7c1.7,0,3.9,0.2,6.7,0.7c3.5,0.6,5.7,0.9,6.6,1C1056,18.4,1058.2,18.6,1061,18.8z M1053.4,37.6l-2.5,4.2
					l-4.3-3.1l2.5-4.2L1053.4,37.6z"/>
				<path class="st4" d="M1096.5,34.3h-4.8c-0.6,4.2-1.7,7.7-3.2,10.5c-2.2,4-5,6-8.6,6c-2.5,0-5.7-1.2-9.4-3.6l0.5-0.8
					c1.5,0.3,2.5,0.4,3.2,0.4c2.5,0,5-1,7.7-2.9c1.1-0.8,2.5-2.4,4-4.7c1.1-1.8,2.3-3.6,3.4-5.4c-2.1-0.7-3.6-2.3-4.6-4.9l3.9-5.5
					c0.9,1.8,1.9,3,3,3.4c0.7,0.3,2.3,0.4,4.8,0.4L1096.5,34.3L1096.5,34.3z"/>
				<path class="st5" d="M1106.3-1.3l-0.3,3.1c-0.6-0.3-1.4-0.8-2.6-1.6c-2.5,3-4.7,4.5-6.5,4.5c-0.4,0-1.1-0.1-2-0.3
					c2.1-1.1,4.4-2.7,7-4.9c-1.4-1.1-2-2-2-2.9c0-1.1,0.4-2.2,1.2-3.5c0.8-1.3,1.7-1.9,2.8-1.9c1.4,0,2.1,0.9,2.1,2.8
					c0,1.3-0.3,2.5-1,3.8C1105.5-1.9,1105.9-1.6,1106.3-1.3z M1104-4.1c0-0.4-0.2-0.8-0.5-1.3c-0.4-0.5-0.7-0.7-1.2-0.7
					s-0.7,0.3-0.7,0.9c0,0.4,0.8,1.1,2.3,2.1C1104-3.6,1104-4,1104-4.1z"/>
				<path class="st5" d="M1104.7,23.9c0,2.9-0.6,5.2-1.8,7.1c-1.4,2.2-3.5,3.4-6.3,3.4h-2.3v-7c4.9,0,7.3-0.5,7.3-1.6
					c0-0.2-0.4-0.8-1.2-1.7c-0.8-0.9-1.2-1.6-1.2-2.2c0-0.8,1-3.1,3.1-6.9C1103.9,18.4,1104.7,21.4,1104.7,23.9z M1104.6,39.8
					L1102,44l-4.3-3l2.7-4.2L1104.6,39.8z"/>
				<path class="st4" d="M1151.1,34.3h-4.7c-2,0-3.5-0.9-4.4-2.7c-0.6-1.1-1-2.8-1.3-5.3c-2.5,3.3-4.6,5-6.1,5c-1,0-2.1-0.3-3.1-0.8
					c-1.2-0.6-1.8-1.4-1.8-2.3c0-1,0.6-2.8,1.8-5.3c0.6-1.4,1.6-2.6,3.1-3.6c0.5-0.3,1.9-1.1,4.4-2.4c-0.4-1.8-0.6-2.9-0.6-3.4
					c0-0.8,1.1-2.3,3.3-4.4c0,0,0.5,3.2,1.4,9.4c0.8,5,1.3,7.7,1.7,8.2c0.4,0.4,1,0.7,1.8,0.8c0.6,0.1,1.4,0.1,2.5,0.1
					c1.5,0,2.1-0.1,2-0.1L1151.1,34.3L1151.1,34.3z M1144.5,3.1l-2.7,4.2l-4.1-2.8l-2,3.5l-4.5-3.1l2.6-4.1l4,2.9l2.5-3.8
					L1144.5,3.1z M1140.2,23.7c0-1-0.2-2.4-0.7-4.3c-3.5,1.8-5.2,3.1-5.2,4s1.6,1.3,4.8,1.3C1139.9,24.7,1140.2,24.3,1140.2,23.7z"
					/>
				<path class="st4" d="M1151.5,2c-0.4-0.5-0.6-0.9-0.7-1.2c0.7-2.7,1.7-4.4,3.2-5c0.1,1.6,0.8,2.9,2,4.1c1.2,1.1,2.7,1.6,4.3,1.3
					l-3,5.1c-0.4-0.1-0.9-0.4-1.4-0.7l-0.1,0.5c0,1.3,0.1,3,0.5,5.2c0.4,2.4,0.6,4.2,0.6,5.2c0,2.3-0.3,4.8-0.8,7.4
					c2.8-3.2,4.7-5.2,5.7-6.1c2.7-2.5,5.1-3.8,7.2-3.8c2,0,3.6,0.6,4.8,1.7c1.2,1.2,1.8,2.7,1.8,4.6c0,1.6-0.3,3-0.8,4.1
					c-0.4,0.8-1.3,1.9-2.5,3.3c1.9-0.1,3.1-0.2,3.7-0.2h5.5v7h-6.5c-0.6,0-1.5,0-2.7-0.1c-1.2,0-2.1-0.1-2.7-0.1
					c-2.9,0-4.6-0.6-5.2-1.7c-2.4,1.3-6.5,1.9-12.3,1.9h-3.1v-7h4.2c0.4-0.8,0.8-1.5,1.3-2.3c0.1-0.3,0.2-1.3,0.2-3
					c0-2.2-0.5-5.6-1.4-10C1152,7.7,1151.5,4.3,1151.5,2z M1172.2,23.1c0-0.8-0.5-1.4-1.4-1.9c-0.8-0.4-1.5-0.6-2.4-0.6
					c-3.2,0-7,2.1-11.3,6.4c2.2,0,5-0.3,8.4-0.9C1169.9,25.2,1172.2,24.2,1172.2,23.1z"/>
				<path class="st5" d="M1190.7-3.8c0,1.6-0.5,2.7-1.6,3.4l-9.6,5.2c0-0.9,0.1-1.6,0.4-2s0.9-0.8,1.8-1.3L1190.7-3.8z"/>
				<path class="st5" d="M1189.2,23.9c0,2.9-0.6,5.2-1.8,7.1c-1.4,2.2-3.5,3.4-6.3,3.4h-2.3v-7c4.9,0,7.3-0.5,7.3-1.6
					c0-0.2-0.4-0.8-1.2-1.7c-0.8-0.9-1.2-1.6-1.2-2.2c0-0.8,1-3.1,3.1-6.9C1188.4,18.4,1189.2,21.4,1189.2,23.9z M1189.2,39.8
					l-2.6,4.2l-4.3-3l2.7-4.2L1189.2,39.8z"/>
				<path class="st4" d="M1235.7,34.8c-0.7,5-2,8.6-4,10.9c-2.4,2.7-6,4.1-11,4.1c-2.6,0-4.8-0.6-6.5-1.7c-1.9-1.3-2.9-3.1-2.9-5.5
					c0-2.5,1.4-6.2,4.2-11.2l0.8,0.4c-1.3,2.5-2,4.4-2,5.9c0,2.3,0.5,3.9,1.6,4.6c1.4,1,3.7,1.4,6.9,1.4c3.4,0,6-0.5,7.9-1.6
					c1.4-0.8,2.3-2.2,2.8-4.4c0.2-1.1,0.3-1.8,0.3-2.2c0-0.7-0.4-1.5-1.1-2.5c-1-1.3-1.6-2.1-1.7-2.4c0.6-1.2,1.5-3,2.8-5.4
					c0.5,0.7,1,1.4,1.5,2.1s1.3,1,2.4,1v6.5L1235.7,34.8L1235.7,34.8z"/>
				<path class="st4" d="M1237.1,28.2c3.6,0,5.4-0.9,5.4-2.8c0-0.3,0-0.8-0.1-1.4s-0.1-1-0.2-1.2l0.8-0.1c0.4,1.6,1.1,2.9,2.1,4
					c1.1,1.2,2.5,1.7,4.1,1.7c0.3,0,0.8-0.1,1.4-0.4s0.9-0.6,0.9-0.8c0-0.5-0.3-1.2-0.9-2.2c-0.5-0.6-0.9-1.3-1.4-1.9
					c0.4-1.1,0.9-2.7,1.5-4.9c2,1.7,3,4.1,3,7.2c0,2-0.4,3.8-1.3,5.4c-1,2-2.5,2.9-4.4,2.9s-3.5-1.1-4.6-3.4c-1.5,3-3.5,4.4-6.2,4.4
					L1237.1,28.2L1237.1,28.2z"/>
				<path class="st5" d="M1266.3-18.4c0,1.2-0.4,2.3-1.3,3.2c-0.9,0.9-1.9,1.4-3.2,1.4c-2.1,0-3.1-1.1-3.1-3.4
					c0-1.4,0.3-2.6,0.9-3.6c0.8-1.2,1.8-1.7,3.2-1.7c1,0,1.9,0.4,2.6,1.3C1266-20.3,1266.3-19.4,1266.3-18.4z M1264.7-17.7
					c0-0.5-0.4-1-1.3-1.6c-0.8-0.6-1.5-0.9-2.1-0.9c-0.5,0-0.9,0.2-1.2,0.6c-0.4,0.4-0.5,0.9-0.5,1.3c0,1.1,0.9,1.7,2.6,1.7
					C1263.9-16.5,1264.7-16.9,1264.7-17.7z"/>
				<path class="st5" d="M1268.5-0.5c-0.2,0.8-0.4,1.3-0.7,1.6c-0.3,0.3-0.8,0.5-1.6,0.7l-8,2.3c0.7-1.4,1.7-2.2,3.2-2.6
					c-1.4-1-2.1-1.8-2.1-2.4c0-0.9,0.7-2,2.2-3.3c1.4-1.3,2.7-2,3.6-2c1.1,0,1.7,0.5,1.7,1.6c0,0.4-0.3,1.2-0.8,2.3
					c-1.1-0.7-2-1.1-2.7-1.1c-0.8,0-1.5,0.4-2.1,1.2c2,1.5,3.5,2.2,4.5,2.2C1266.6,0,1267.6-0.2,1268.5-0.5z"/>
				<path class="st5" d="M1265.3,26.8c0,2.2-0.5,4.4-1.4,6.7h-1.1c0-3.4-0.4-7.1-1.1-11c-1.2-6.3-1.8-10.3-1.8-12.1
					c0-1,0.4-2.1,1.1-3.1c0.3-0.4,1-1.3,2.3-2.6c0,2.3,0.3,6,1,11C1264.9,20.8,1265.3,24.5,1265.3,26.8z"/>
				<path class="st4" d="M1286.2,33.3c0,3.4-0.9,6.5-2.6,9.5c-2.1,3.6-4.7,5.3-8,5.3c-2,0-4.5-1-7.6-2.9l0.4-0.8
					c0.9,0.2,1.7,0.3,2.3,0.3c2.6,0,5.5-1.2,8.7-3.6c3.1-2.4,4.7-4.8,4.7-7.2c0-0.9-0.7-2.2-2-3.9c-1-1.2-1.9-2.3-2.9-3.5
					c0.6-2.7,1.1-4.9,1.4-6.4C1284.3,24,1286.2,28.4,1286.2,33.3z"/>
				<path class="st4" d="M1357.2,34.8h-4c-0.4,4.2-2.1,7.7-4.9,10.4c-3,2.8-6.7,4.2-11.1,4.2c-6.2,0-9.3-3.1-9.3-9.4
					c0-2.3,0.4-4.4,1.3-6.2c0.6-1.5,1.7-3.3,3.3-5.5l0.7,0.7c-2,3.1-3,5.5-3,7.3c0,2.2,0.9,3.9,2.7,5c1.6,1,3.5,1.5,5.9,1.5
					c8.4,0,12.6-2.6,12.6-7.9c-2.9,0-4.6-0.1-5.2-0.2c-2.1-0.4-3.1-1.4-3.1-3.1c0-1.1,0.5-2.9,1.5-5.3c1-2.5,1.8-4,2.5-4.5
					c0.5-0.4,1.2-0.7,2-0.7c1.3,0,2.3,1,3,3c0.2,0.6,0.6,2.1,1.1,4.5h4V34.8L1357.2,34.8z M1353.5,14.3l-2.3,3.7l-3.7-2.4l-1.8,3.1
					l-3.9-2.8l2.3-3.8l3.6,2.7l2.3-3.4L1353.5,14.3z M1350.8,28.4c-0.5-1.8-1.6-2.6-3.2-2.6c-0.8,0-1.3,0.4-1.3,1.1
					c0,1,1,1.6,2.9,1.6C1349.2,28.4,1350.8,28.4,1350.8,28.4z"/>
				<path class="st4" d="M1364.4,25.4c0,2.6-0.5,4.7-1.6,6.4c-1.3,2-3.1,3-5.7,3h-2.1v-6.2c4.4,0,6.5-0.5,6.5-1.4
					c0-0.2-0.4-0.7-1.1-1.5s-1.1-1.5-1.1-2c0-0.7,0.9-2.8,2.8-6.2C1363.6,20.5,1364.4,23.2,1364.4,25.4z M1366.9,39.6l-2.4,3.8
					l-3.7-2.4l-1.8,3.1l-4-2.8l2.5-3.7l3.5,2.7l2.2-3.4L1366.9,39.6z"/>
				<path class="st4" d="M1389.9,34.8h-4.3c-0.5,3.8-1.5,6.9-2.8,9.4c-1.9,3.6-4.5,5.4-7.7,5.4c-2.3,0-5.1-1.1-8.4-3.2l0.4-0.7
					c1.3,0.2,2.3,0.4,2.9,0.4c2.2,0,4.5-0.9,6.9-2.6c1-0.7,2.2-2.1,3.6-4.2c1-1.6,2-3.2,3.1-4.8c-1.8-0.6-3.2-2.1-4.2-4.4l3.5-4.9
					c0.8,1.6,1.7,2.6,2.6,3c0.6,0.2,2,0.4,4.3,0.4L1389.9,34.8L1389.9,34.8z"/>
				<path class="st4" d="M1397.2,25.4c0,2.6-0.5,4.7-1.6,6.4c-1.3,2-3.1,3-5.7,3h-2.1v-6.2c4.4,0,6.5-0.5,6.5-1.4
					c0-0.2-0.4-0.7-1.1-1.5s-1.1-1.5-1.1-2c0-0.7,0.9-2.8,2.8-6.2C1396.4,20.5,1397.2,23.2,1397.2,25.4z M1397.1,39.6l-2.3,3.8
					l-3.8-2.7l2.4-3.8L1397.1,39.6z"/>
				<path class="st5" d="M1408.7,56.4c0,1.4-0.5,2.3-1.4,2.8l-8.6,4.7c0-0.9,0.1-1.5,0.3-1.8c0.2-0.3,0.8-0.8,1.6-1.2L1408.7,56.4z"
					/>
				<path class="st5" d="M1411.8,44.6c-0.2,0.8-0.4,1.4-0.7,1.7c-0.2,0.3-0.8,0.5-1.6,0.8l-8,2.2c0.5-0.9,0.9-1.5,1.3-1.8
					s1.1-0.6,2.1-0.9c-1.4-0.7-2.1-1.5-2.1-2.3c0-0.9,0.7-2,2.1-3.3s2.6-1.9,3.7-1.9s1.7,0.5,1.7,1.6c0,0.4-0.3,1.1-0.9,2.2
					c-1.1-0.6-2.1-1-2.8-1c-0.7,0-1.3,0.4-2,1.1c2,1.5,3.5,2.2,4.6,2.2C1410.1,45.1,1411,44.9,1411.8,44.6z"/>
				<path class="st5" d="M1407.8,26.8c0,2.2-0.5,4.4-1.4,6.7h-1.1c0-3.4-0.4-7.1-1.1-11c-1.2-6.3-1.8-10.3-1.8-12.1
					c0-1,0.4-2.1,1.1-3.1c0.3-0.4,1-1.3,2.3-2.6c0,2.3,0.3,6,1,11C1407.5,20.8,1407.8,24.5,1407.8,26.8z"/>
				<path class="st4" d="M1454.6,24.5c0,3.6-1.2,6.4-3.7,8.6s-5.6,3.3-9.4,3.3c-2.7,0-4.9-0.6-6.5-1.9c-1.9-1.4-2.8-3.3-2.8-5.8
					c0-3,1.2-6.8,3.5-11.4l0.8,0.5c-1.1,2.1-1.6,3.9-1.6,5.5c0,2.5,0.7,4.3,2.2,5.2c1.2,0.8,3.2,1.2,6,1.2c2,0,4-0.4,5.9-1.1
					c2.5-1,3.7-2.2,3.7-3.8c0-0.7-0.7-2.1-2-4.3c-1.1-1.9-2.1-3.3-2.8-4.2l2.3-5.6C1453.1,14.6,1454.6,19.2,1454.6,24.5z
					 M1444.3,8.3L1442,12l-3.8-2.6l2.4-3.7L1444.3,8.3z"/>
				<path class="st4" d="M1476.1,26.5c0,2.4-0.5,4.2-1.5,5.4s-2.8,2-5.3,2.6c-1.9,0.4-3.9,0.7-6.2,0.7c-0.9,0-2.2-0.4-3.8-1.1
					l1.3-7.1c1.3,0.6,2.2,1,2.7,1c7.1,0,10.7-0.8,10.7-2.5c0-1.4-3.2-3.7-9.7-6.8l2.3-6.8C1472.9,15.6,1476.1,20.6,1476.1,26.5z
					 M1469.1,5.8l-2.3,3.8l-3.8-2.7l2.3-3.8L1469.1,5.8z"/>
				<path class="st5" d="M1490.4-19.2l-0.3,2.8c-0.5-0.3-1.3-0.8-2.3-1.4c-2.3,2.7-4.2,4-5.9,4c-0.4,0-1-0.1-1.8-0.3
					c1.8-1,3.9-2.4,6.3-4.4c-1.2-1-1.8-1.8-1.8-2.6c0-1,0.4-2,1.1-3.1s1.6-1.7,2.5-1.7c1.3,0,1.9,0.8,1.9,2.5c0,1.2-0.3,2.3-0.9,3.4
					C1489.7-19.7,1490.1-19.4,1490.4-19.2z M1488.4-21.7c0-0.4-0.2-0.8-0.5-1.2c-0.3-0.4-0.7-0.6-1-0.6c-0.4,0-0.6,0.3-0.6,0.8
					c0,0.4,0.7,1,2,1.9C1488.4-21.3,1488.4-21.6,1488.4-21.7z"/>
				<path class="st5" d="M1490-0.5c-0.2,0.8-0.4,1.3-0.7,1.6c-0.3,0.3-0.8,0.5-1.6,0.7l-8,2.3c0.7-1.4,1.7-2.2,3.2-2.6
					c-1.4-1-2.1-1.8-2.1-2.4c0-0.9,0.7-2,2.2-3.3c1.4-1.3,2.7-2,3.6-2c1.1,0,1.7,0.5,1.7,1.6c0,0.4-0.3,1.2-0.8,2.3
					c-1.1-0.7-2-1.1-2.7-1.1c-0.8,0-1.5,0.4-2.1,1.2c2,1.5,3.5,2.2,4.5,2.2S1489.1-0.2,1490-0.5z"/>
				<path class="st5" d="M1486.8,26.8c0,2.2-0.5,4.4-1.4,6.7h-1.1c0-3.4-0.4-7.1-1.1-11c-1.2-6.3-1.8-10.3-1.8-12.1
					c0-1,0.4-2.1,1.1-3.1c0.3-0.4,1-1.3,2.3-2.6c0,2.3,0.3,6,1,11C1486.5,20.8,1486.8,24.5,1486.8,26.8z"/>
				<path class="st4" d="M1554,4.1c0,1.2-0.4,2.3-1.3,3.2c-0.9,0.9-1.9,1.4-3.2,1.4c-2.1,0-3.1-1.1-3.1-3.4c0-1.4,0.3-2.6,0.9-3.6
					c0.8-1.2,1.8-1.7,3.2-1.7c1,0,1.9,0.4,2.6,1.3C1553.6,2.1,1554,3.1,1554,4.1z M1552.4,4.8c0-0.5-0.4-1-1.3-1.6
					c-0.8-0.6-1.5-0.9-2.1-0.9c-0.5,0-0.9,0.2-1.2,0.6c-0.4,0.4-0.5,0.8-0.5,1.3c0,1.1,0.9,1.7,2.6,1.7
					C1551.5,5.9,1552.4,5.6,1552.4,4.8z"/>
				<path class="st4" d="M1574.2,34.8h-4.2c-2.2,0-3.6-1-4.1-2.9c-5.2,3.4-11.6,5.2-19.2,5.2c-4.2,0-7.7-0.7-10.5-2.1
					c-3.5-1.8-5.2-4.5-5.2-8.1c0-2.3,0.9-5.2,2.8-8.9l0.8,0.4c-0.8,1.8-1.1,3.4-1.1,4.9c0,2.7,1.8,4.7,5.4,5.9
					c2.5,0.9,5.5,1.3,8.9,1.3c6.4,0,11.1-0.5,14.2-1.6c1-0.3,1.5-0.5,1.6-0.5c0.7-0.3,1.1-0.7,1.3-1c0.2-0.4,0.2-1.1,0.2-2.1h0.6
					c0.6,2.3,2.4,3.4,5.4,3.4c0.4,0,0.9,0,1.6-0.1c0.7,0,1.2,0,1.6,0v6.2H1574.2z M1554.1,43.3l-2.3,3.8l-3.8-2.8l2.4-3.7
					L1554.1,43.3z"/>
				<path class="st4" d="M1582.7-5.7c0,1.4-0.5,2.4-1.4,3l-8.6,4.6c0-0.8,0.1-1.4,0.4-1.8s0.8-0.8,1.6-1.2L1582.7-5.7z"/>
				<path class="st4" d="M1581.4,25.4c0,2.6-0.5,4.7-1.6,6.4c-1.3,2-3.1,3-5.7,3h-2.1v-6.2c4.4,0,6.5-0.5,6.5-1.4
					c0-0.2-0.4-0.7-1.1-1.5s-1.1-1.5-1.1-2c0-0.7,0.9-2.8,2.8-6.2C1580.7,20.5,1581.4,23.2,1581.4,25.4z M1580.6,11.8l-2.1,3.7
					l-3.8-2.7l2.2-3.7L1580.6,11.8z"/>
				<path class="st4" d="M1597.3,5.7c0,1.2-0.4,2.3-1.3,3.2s-1.9,1.4-3.2,1.4c-2.1,0-3.1-1.1-3.1-3.4c0-1.4,0.3-2.6,0.9-3.6
					c0.8-1.2,1.8-1.7,3.2-1.7c1,0,1.9,0.4,2.5,1.3C1597,3.7,1597.3,4.7,1597.3,5.7z M1595.7,6.4c0-0.5-0.4-1-1.3-1.6
					c-0.8-0.6-1.5-0.9-2.1-0.9c-0.5,0-0.9,0.2-1.2,0.6c-0.4,0.4-0.5,0.8-0.5,1.3c0,1.1,0.9,1.7,2.6,1.7
					C1594.9,7.5,1595.7,7.1,1595.7,6.4z"/>
				<path class="st4" d="M1601.7,33.3c0,3.4-0.9,6.5-2.6,9.5c-2.1,3.6-4.7,5.3-8,5.3c-2,0-4.5-1-7.6-2.9l0.4-0.8
					c0.9,0.2,1.7,0.3,2.3,0.3c2.6,0,5.5-1.2,8.7-3.6c3.1-2.4,4.7-4.8,4.7-7.2c0-0.9-0.7-2.2-2-3.9c-1-1.2-1.9-2.3-2.9-3.5
					c0.6-2.7,1.1-4.9,1.4-6.4C1599.8,24,1601.7,28.4,1601.7,33.3z"/>
				<path class="st5" d="M1615.7-21.5c0,1.4-0.5,2.4-1.4,3l-8.6,4.6c0-0.8,0.1-1.4,0.4-1.8s0.8-0.8,1.6-1.2L1615.7-21.5z"/>
				<path class="st5" d="M1615.5-0.5c-0.2,0.8-0.4,1.3-0.7,1.6c-0.3,0.3-0.8,0.5-1.6,0.7l-8,2.3c0.7-1.4,1.7-2.2,3.2-2.6
					c-1.4-1-2.1-1.8-2.1-2.4c0-0.9,0.7-2,2.2-3.3c1.4-1.3,2.7-2,3.6-2c1.1,0,1.7,0.5,1.7,1.6c0,0.4-0.3,1.2-0.8,2.3
					c-1.1-0.7-2-1.1-2.7-1.1c-0.8,0-1.5,0.4-2.1,1.2c2,1.5,3.5,2.2,4.5,2.2S1614.6-0.2,1615.5-0.5z"/>
				<path class="st5" d="M1612.3,26.8c0,2.2-0.5,4.4-1.4,6.7h-1.1c0-3.4-0.4-7.1-1.1-11c-1.2-6.3-1.8-10.3-1.8-12.1
					c0-1,0.4-2.1,1.1-3.1c0.3-0.4,1-1.3,2.3-2.6c0,2.3,0.3,6,1,11C1612,20.8,1612.3,24.5,1612.3,26.8z"/>
			</g>
		</g>
	</g>
</g>
</svg>
