<?xml version="1.0" encoding="utf-8"?>
<!-- Generator: Adobe Illustrator 22.0.1, SVG Export Plug-In . SVG Version: 6.00 Build 0)  -->
<svg version="1.1" id="Layer_1" xmlns="http://www.w3.org/2000/svg" xmlns:xlink="http://www.w3.org/1999/xlink" x="0px" y="0px"
	 viewBox="0 0 86.2 86.2" style="enable-background:new 0 0 86.2 86.2;" xml:space="preserve">
<style type="text/css">
	.st0{fill:#235958;}
</style>
<path class="st0" d="M51.6,31.5c-2.8-1.8-5.3-2.7-7.5-2.7c-1.6,0-2.8,2.3-3.7,7c1-0.1,2.4,0.2,4.1,0.9c-3.5,4.2-5.3,7.2-5.3,9
	c0,0.9,0.3,1.7,0.9,2.6c-1.6,0.5-2.8,0.7-3.6,0.7h-0.6h-2H21.5v8.4H34h2h0.6c1.2,0,2.8-0.6,4.9-1.9c1.7-1,3.1-2.1,4.3-3.2
	C51.3,54.7,55,56,56.9,56c1.4,0,2.6-1.2,3.5-3.5c0.6-1.8,1-3.5,1-5.2C61.4,41,58.1,35.8,51.6,31.5z M46.2,45.9
	c-2.5-0.9-3.8-1.8-3.8-3c0-0.9,0.5-1.6,1.4-2.2c1-0.6,1.9-0.9,2.8-0.9c1.8,0,2.7,0.8,2.7,2.5C49.4,43.3,48.3,44.5,46.2,45.9z
	 M57.6,49.5c-0.3,0-2.7-0.7-7.2-2.2c0.8-1,1.2-1.9,1.4-2.7c0.1-0.1,0.2-1.1,0.5-3c4.3,3,6.4,5.3,6.4,7
	C58.8,49.2,58.4,49.5,57.6,49.5z"/>
<path class="st0" d="M45.9,16.4c0,1.4-0.5,2.4-1.4,3L35.9,24c0-0.8,0.1-1.4,0.4-1.8c0.3-0.4,0.8-0.8,1.6-1.2L45.9,16.4z"/>
</svg>
