<?xml version="1.0" encoding="utf-8"?>
<!-- Generator: Adobe Illustrator 22.0.1, SVG Export Plug-In . SVG Version: 6.00 Build 0)  -->
<svg version="1.1" id="Layer_1" xmlns="http://www.w3.org/2000/svg" xmlns:xlink="http://www.w3.org/1999/xlink" x="0px" y="0px"
	 viewBox="0 0 86.2 86.2" style="enable-background:new 0 0 86.2 86.2;" xml:space="preserve">
<style type="text/css">
	.st0{fill:#235958;}
</style>
<path class="st0" d="M42.1,50.3H41h-1.5c-1.9,0-3.2-0.5-3.8-1.4c-0.7-0.9-1-2.3-1-4.2c0-0.6-0.3-4.8-0.9-12.7
	c-0.7-8.8-1.1-13.3-1.1-13.6c-2.8,2.3-4.2,3.7-4.2,4.1c-0.1,0.4-0.1,1-0.1,1.8c0,2.5,0.3,6.1,1,10.6c0.7,4.9,1,8.4,1.1,10.6
	c0.2,5.1,0.8,8.5,1.9,10.2c1.2,2.3,3.2,3.4,5.8,3.4H41h1.2h14.1v-8.8C56.3,50.3,42.1,50.3,42.1,50.3z"/>
</svg>
