<?xml version="1.0" encoding="utf-8"?>
<!-- Generator: Adobe Illustrator 22.0.1, SVG Export Plug-In . SVG Version: 6.00 Build 0)  -->
<svg version="1.1" id="Layer_1" xmlns="http://www.w3.org/2000/svg" xmlns:xlink="http://www.w3.org/1999/xlink" x="0px" y="0px"
	 viewBox="0 0 86.2 86.2" style="enable-background:new 0 0 86.2 86.2;" xml:space="preserve">
<style type="text/css">
	.st0{fill:#235958;}
</style>
<path class="st0" d="M53.9,56.2h-1.1H50c-2.3,0-3.8-4.3-4.7-12.9c-0.5-4.7-0.8-10-0.8-15.9c0-2.8-0.3-6.1-0.8-10
	c-2.8,2.3-4.2,3.5-4.2,3.6c0,2.8,0.3,6.9,0.8,12.5C40.8,39.1,41,43.2,41,46c0,6.8-1.8,10.2-5.4,10.2H35h-2.2h-13V65h13H35h0.6
	c2.9,0,5.2-3.2,6.9-9.5c1.2,6.3,3.7,9.5,7.5,9.5h2.8h1.1H68v-8.8H53.9z"/>
<g>
	<path class="st0" d="M39.2,7.6c0,2-0.6,3.5-1.9,4.3l-11.5,6.6c0-1.2,0.2-2.1,0.5-2.6s1-1.1,2.1-1.7L39.2,7.6z"/>
</g>
</svg>
