<?xml version="1.0" encoding="utf-8"?>
<!-- Generator: Adobe Illustrator 22.0.1, SVG Export Plug-In . SVG Version: 6.00 Build 0)  -->
<svg version="1.1" id="Layer_1" xmlns="http://www.w3.org/2000/svg" xmlns:xlink="http://www.w3.org/1999/xlink" x="0px" y="0px"
	 viewBox="0 0 86.2 86.2" style="enable-background:new 0 0 86.2 86.2;" xml:space="preserve">
<style type="text/css">
	.st0{fill:#235958;}
</style>
<g>
	<polygon class="st0" points="31.7,69.4 36.8,73.3 39.9,67.9 34.9,64.2 	"/>
	<path class="st0" d="M65.1,47.1H64h-2c-3.7,0-5.9-1.6-6.7-4.7h-0.8c0.1,1.5,0,2.5-0.2,3c-0.3,0.5-0.8,1-1.7,1.5
		c-0.2,0.1-0.9,0.3-2.2,0.8C46.3,49.2,39.9,50,31.3,50c-4.7,0-8.7-0.6-12-1.9c-4.8-1.8-7.2-4.5-7.2-8.4c0-2.1,0.5-4.5,1.5-6.9
		l-1.1-0.5c-2.5,5.1-3.7,9.3-3.7,12.5c0,5.1,2.3,9,7,11.4c3.7,2,8.4,3,14.1,3c10.2,0,18.8-2.4,25.8-7.3c0.7,2.7,2.5,4.1,5.5,4.1H64
		h1.1h14.1v-8.8L65.1,47.1L65.1,47.1z"/>
</g>
</svg>
