<?xml version="1.0" encoding="utf-8"?>
<!-- Generator: Adobe Illustrator 22.0.1, SVG Export Plug-In . SVG Version: 6.00 Build 0)  -->
<svg version="1.1" id="Layer_1" xmlns="http://www.w3.org/2000/svg" xmlns:xlink="http://www.w3.org/1999/xlink" x="0px" y="0px"
	 viewBox="0 0 86.2 86.2" style="enable-background:new 0 0 86.2 86.2;" xml:space="preserve">
<style type="text/css">
	.st0{fill:#235958;}
</style>
<g>
	<g>
		<g>
			<path class="st0" d="M47.7,20.7c0,1.9-0.6,3.3-1.8,4L35,31c0-1.1,0.2-2,0.5-2.4s1-1,2-1.6L47.7,20.7z"/>
		</g>
	</g>
</g>
<path class="st0" d="M58.4,39.3c-1.4-3.2-3.1-4.7-5.1-4.7c-1.9,0-3.5,1.3-4.8,3.8c-0.8,2-1.5,4-2.3,6c-1.1,2.7-2.8,4-5.1,4h-0.6h-2
	H26v8.4h12.5h2h0.6c0.9,0,2-0.8,3.1-2.3c1.1-1.3,1.8-2.5,2.2-3.5c4.1,2,7,3.1,8.7,3.1c1.6,0,2.9-0.8,3.8-2.5c0.8-1.4,1.2-3,1.2-4.7
	C60.1,44.4,59.6,41.9,58.4,39.3z M54.4,46.3c-1,0-2.9-0.8-5.7-2.4c0.8-1.5,1.7-2.3,2.9-2.3c1,0,1.9,0.3,2.8,1
	c0.8,0.7,1.2,1.5,1.2,2.5C55.6,45.9,55.2,46.3,54.4,46.3z"/>
</svg>
