<?xml version="1.0" encoding="utf-8"?>
<!-- Generator: Adobe Illustrator 22.0.1, SVG Export Plug-In . SVG Version: 6.00 Build 0)  -->
<svg version="1.1" id="Layer_1" xmlns="http://www.w3.org/2000/svg" xmlns:xlink="http://www.w3.org/1999/xlink" x="0px" y="0px"
	 viewBox="0 0 86.2 86.2" style="enable-background:new 0 0 86.2 86.2;" xml:space="preserve">
<style type="text/css">
	.st0{fill:#235958;}
</style>
<g>
	<g>
		<path class="st0" d="M33.2,15.3c0,1.6-0.6,3-1.6,4.3c-1.1,1.2-2.5,1.8-4.1,1.8c-2.7,0-4-1.5-4-4.5c0-1.9,0.4-3.5,1.1-4.8
			c1-1.6,2.3-2.3,4.1-2.3c1.3,0,2.4,0.6,3.3,1.8C32.7,12.7,33.2,13.9,33.2,15.3z M31.1,16.3c0-0.6-0.5-1.4-1.6-2.1
			c-1.1-0.8-2-1.2-2.7-1.2c-0.6,0-1.1,0.3-1.6,0.8c-0.5,0.6-0.7,1.1-0.7,1.7c0,1.5,1.1,2.3,3.3,2.3C30,17.8,31.1,17.3,31.1,16.3z"/>
	</g>
	<path class="st0" d="M59.4,58.9h-0.7H56c-1.2,0-3.2-1.2-6.2-3.7c-2-1.8-4-3.5-6-5.3c-3.3-2.8-6.8-5.1-10.4-7
		c-1.6-0.6-3.1-1.3-4.7-2c-2.4-1.1-3.6-1.8-3.6-2.3c0-1.3,4.6-4.1,13.9-8.4c9.7-4.5,14.8-7.2,15.3-8c0.5-0.8,1.3-3.3,2.3-7.5
		c-6.9,2.5-13.5,5.6-19.9,9.5C27.6,29.7,23,34.7,23,39.2c0,3,1.3,5.6,3.9,7.8c0.8,0.6,3.2,2.1,7.3,4.6c2.6,1.6,3.9,3,3.9,4.4
		c0,2-3.2,3-9.7,3h-5.1h-2.1H9v8.4h12.4h2.1h5.1c8,0,12.1-3.3,12.1-10c0-0.9-0.3-2.1-0.8-3.8c0.8,0.8,2.8,2.9,6,6.4
		c2.6,2.8,4.6,4.8,6,5.8s2.8,1.5,4.1,1.5h2.7h0.7h13.8v-8.4H59.4z"/>
</g>
</svg>
