<?xml version="1.0" encoding="utf-8"?>
<!-- Generator: Adobe Illustrator 22.0.1, SVG Export Plug-In . SVG Version: 6.00 Build 0)  -->
<svg version="1.1" id="Layer_1" xmlns="http://www.w3.org/2000/svg" xmlns:xlink="http://www.w3.org/1999/xlink" x="0px" y="0px"
	 viewBox="0 0 112.5 87.9" style="enable-background:new 0 0 112.5 87.9;" xml:space="preserve">
<style type="text/css">
	.st0{fill:#235958;}
	.st1{fill:#F5712E;}
</style>
<g>
	<path class="st0" d="M22.8,76.3H19c-2.3,0-4-1.1-5-3.2c-0.6-1.3-1.1-3.4-1.4-6.4c-2.9,4-5.2,6-7,6c-1.2,0-2.4-0.3-3.5-1
		C0.7,71,0,70,0,68.9c0-1.2,0.7-3.3,2.1-6.4c0.7-1.7,1.9-3.1,3.5-4.3c0.5-0.4,2.2-1.3,5-2.9c-0.5-2.1-0.7-3.5-0.7-4.1
		c0-1,1.3-2.8,3.8-5.2c0,0.1,0.5,3.8,1.6,11.3c0.9,6,1.5,9.3,2,9.9s1.6,0.8,3.3,0.8h2.2L22.8,76.3L22.8,76.3z M16.7,38.8l-3,5.1
		l-4.6-3.3l-2.2,4.2l-5.2-3.7l3-4.9l4.6,3.5l2.8-4.5L16.7,38.8z M12,63.5c0-1.2-0.3-2.9-0.8-5.1c-4,2.1-6,3.8-6,4.8
		c0,1,1.8,1.5,5.5,1.5C11.6,64.7,12,64.3,12,63.5z"/>
	<path class="st0" d="M38.6,76.3h-3.7c-2.5,0-4.3-1.5-5.4-4.6c-1.5,3.1-3.2,4.6-5.2,4.6h-2.7V68h3.1c2,0,3.3-0.3,3.9-1
		c0.2-0.2,0.2-1.4,0.2-3.8l0.5,0.1c0.4,3.1,2.8,4.7,7.1,4.7h2.2V76.3L38.6,76.3z M34.3,82.8l-3,5.1l-4.9-3.6l3.1-5L34.3,82.8z"/>
	<path class="st0" d="M54.5,76.3h-3.7c-2.5,0-4.3-1.5-5.4-4.6c-1.5,3.1-3.2,4.6-5.2,4.6h-2.7V68H41c1.8,0,2.9-0.3,3.5-1
		c0.2-0.2,0.2-1.4,0.2-3.8l0.5,0.1c0.4,3.1,2.8,4.7,7.2,4.7h2L54.5,76.3L54.5,76.3z M52.9,55.1l-2.8,5l-4.7-3.3L43.1,61L38,57.3l3-5
		l4.5,3.6l2.7-4.5L52.9,55.1z"/>
	<path class="st1" d="M69.5,17.1c0,1.6-0.6,3-1.6,4.3c-1.1,1.2-2.5,1.9-4.1,1.9c-2.7,0-4-1.5-4-4.5c0-1.9,0.4-3.5,1.1-4.8
		c1-1.6,2.3-2.3,4.1-2.3c1.3,0,2.4,0.6,3.3,1.8C69.1,14.5,69.5,15.8,69.5,17.1z M67.5,18.1c0-0.6-0.5-1.4-1.6-2.1
		c-1.1-0.8-2-1.2-2.7-1.2c-0.6,0-1.1,0.3-1.6,0.8c-0.5,0.6-0.7,1.1-0.7,1.7c0,1.5,1.1,2.3,3.3,2.3C66.4,19.6,67.5,19.1,67.5,18.1z"
		/>
	<path class="st1" d="M91.5,76.3H88c-1.3,0-2.7-0.5-4.1-1.5s-3.4-2.9-6-5.8c-3.2-3.5-5.1-5.7-6-6.4c0.5,1.7,0.8,2.9,0.8,3.8
		c0,6.6-4,10-12.1,10h-7.2V68h7.2c6.4,0,9.6-1,9.6-3c0-1.4-1.3-2.9-3.9-4.4c-4.1-2.5-6.6-4-7.3-4.6c-2.6-2.2-3.9-4.8-3.9-7.8
		c0-4.5,4.6-9.4,13.7-15c6.4-3.9,13.1-7,19.9-9.5c-1,4.2-1.8,6.7-2.3,7.5s-5.6,3.5-15.3,8c-9.3,4.3-13.9,7.2-13.9,8.4
		c0,0.5,1.2,1.3,3.6,2.3c1.6,0.7,3.1,1.4,4.7,2c3.6,1.9,7.1,4.2,10.4,7c2,1.8,4,3.5,6,5.3c2.9,2.5,5,3.7,6.2,3.7h3.4L91.5,76.3
		L91.5,76.3z"/>
	<path class="st0" d="M112.5,66.4c0,1.8-0.4,3.4-1.2,4.7c-0.9,1.7-2.2,2.5-3.8,2.5c-1.7,0-4.6-1-8.7-3.1c-0.3,1-1,2.2-2.2,3.5
		c-1.2,1.5-2.2,2.3-3.1,2.3h-2.7V68h2.6c2.3,0,4-1.3,5.1-4c0.8-2,1.6-4,2.3-6c1.3-2.5,2.9-3.8,4.8-3.8c2,0,3.8,1.6,5.1,4.7
		C111.9,61.5,112.5,64,112.5,66.4z M108,64.7c0-1-0.4-1.8-1.2-2.5c-0.8-0.7-1.8-1-2.8-1c-1.2,0-2.1,0.8-2.9,2.3
		c2.8,1.6,4.7,2.4,5.7,2.4C107.6,65.9,108,65.5,108,64.7z"/>
</g>
<g>
	<g>
		<path class="st0" d="M105.7,38.8l-10.3,6.2c-1,0.6-1.7,1.1-2,1.6c-0.3,0.5-0.5,1.3-0.5,2.4l10.9-6.2
			C105.1,42.2,105.7,40.8,105.7,38.8z"/>
	</g>
</g>
<g>
	<g>
		<path class="st0" d="M51.8,34.9l-10.3,6.2c-1,0.6-1.7,1.1-2,1.6c-0.3,0.5-0.5,1.3-0.5,2.4l10.9-6.2C51.2,38.2,51.8,36.9,51.8,34.9
			z"/>
	</g>
</g>
<g>
	<g>
		<path class="st0" d="M31.6,37.6l-10.3,6.2c-1,0.6-1.7,1.1-2,1.6s-0.5,1.3-0.5,2.4l10.9-6.2C31,40.9,31.6,39.6,31.6,37.6z"/>
	</g>
</g>
</svg>
