<?xml version="1.0" encoding="utf-8"?>
<!-- Generator: Adobe Illustrator 22.0.1, SVG Export Plug-In . SVG Version: 6.00 Build 0)  -->
<svg version="1.1" id="Layer_1" xmlns="http://www.w3.org/2000/svg" xmlns:xlink="http://www.w3.org/1999/xlink" x="0px" y="0px"
	 viewBox="0 0 86.2 86.2" style="enable-background:new 0 0 86.2 86.2;" xml:space="preserve">
<style type="text/css">
	.st0{fill:#235958;}
</style>
<g>
	<polygon class="st0" points="32.4,27.7 37.2,31.1 40.4,25.7 35.5,21.9 32.5,26.6 27.7,23 24.6,28.2 30,32 	"/>
	<path class="st0" d="M46.8,56.5h-1.2h-1.1c-1.9,0-3-0.3-3.5-0.9c-0.5-0.6-1.2-4.1-2.1-10.4c-1.1-7.8-1.7-11.8-1.7-11.9
		c-2.7,2.6-4,4.4-4,5.5c0,0.6,0.3,2.1,0.8,4.3c-2.9,1.6-4.7,2.7-5.3,3c-1.8,1.3-3,2.8-3.7,4.6c-1.5,3.2-2.2,5.5-2.2,6.7
		s0.7,2.2,2.1,3c1.2,0.7,2.5,1,3.7,1c1.9,0,4.3-2.1,7.4-6.3c0.3,3.1,0.8,5.3,1.5,6.7c1.1,2.3,2.8,3.4,5.3,3.4h2.8h1.2h14.1v-8.8
		H46.8V56.5z M34.1,53.1c-3.8,0-5.8-0.5-5.8-1.6s2.1-2.8,6.3-5.1c0.6,2.4,0.8,4.2,0.8,5.4C35.4,52.6,35,53.1,34.1,53.1z"/>
</g>
</svg>
