<?xml version="1.0" encoding="utf-8"?>
<!-- Generator: Adobe Illustrator 22.0.1, SVG Export Plug-In . SVG Version: 6.00 Build 0)  -->
<svg version="1.1" id="Layer_1" xmlns="http://www.w3.org/2000/svg" xmlns:xlink="http://www.w3.org/1999/xlink" x="0px" y="0px"
	 viewBox="0 0 63 71.9" style="enable-background:new 0 0 63 71.9;" xml:space="preserve">
<style type="text/css">
	.st0{display:none;enable-background:new    ;}
	.st1{display:inline;fill:#EF5316;}
	.st2{fill:none;}
	.st3{clip-path:url(#SVGID_2_);}
	.st4{fill:#235958;}
	.st5{fill:#EF5316;}
</style>
<text transform="matrix(1.0494 0 0 1 317.0229 66.2467)" style="display:none;fill:#EF5316;enable-background:new    ; font-family:'AdobeArabic-Regular'; font-size:60px;">أأ</text>
<rect x="89" y="-0.6" class="st2" width="76.7" height="86"/>
<rect x="-18" y="4" class="st2" width="104" height="94"/>
<rect x="-18.3" y="-1.6" class="st2" width="98" height="93"/>
<g>
	<g>
		<g>
			<defs>
				<rect id="SVGID_1_" x="-5.3" y="5.5" width="79" height="88"/>
			</defs>
			<clipPath id="SVGID_2_">
				<use xlink:href="#SVGID_1_"  style="overflow:visible;"/>
			</clipPath>
			<g class="st3">
				<path class="st4" d="M-1207.1,62.2h-4.8c-0.6,4.2-1.7,7.7-3.2,10.5c-2.2,4-5,6-8.6,6c-2.5,0-5.7-1.2-9.4-3.6l0.5-0.8
					c1.5,0.3,2.5,0.4,3.2,0.4c2.5,0,5-1,7.7-2.9c1.1-0.8,2.5-2.4,4-4.7c1.1-1.8,2.3-3.6,3.4-5.4c-2.1-0.7-3.6-2.3-4.6-4.9l3.9-5.5
					c0.9,1.8,1.9,3,3,3.4c0.7,0.3,2.3,0.4,4.8,0.4L-1207.1,62.2L-1207.1,62.2z"/>
				<path class="st4" d="M-1180.7,62.2h-4.7c-1.9,0-3.4-0.6-4.3-1.7c-0.3,2.6-1.5,4-3.7,4c-2,0-4.7-1.9-8.2-5.6
					c-0.3,0.5-1.2,1.4-2.5,2.5c-0.8,0.6-2.5,0.9-5.2,0.9v-7h2.4c1.7,0,3.1-0.8,4.3-2.3c0.9-1.4,1.8-2.9,2.7-4.3
					c1.1-1.5,2.5-2.3,4.1-2.3c0.8,0,1.8,0.7,3,2.2s2.2,2.9,3.2,4.4c1.4,1.6,2.8,2.3,4.3,2.3h4.7L-1180.7,62.2L-1180.7,62.2z
					 M-1193.8,55.2c0-1-0.2-2.1-0.5-3.4c-0.4-1.6-1-2.4-1.7-2.4c-0.6,0-1.2,0.6-1.8,1.7c-0.4,0.8-0.8,1.7-1.2,2.5
					c2.1,2.1,3.6,3.1,4.4,3.1C-1194.1,56.8-1193.8,56.2-1193.8,55.2z"/>
				<path class="st5" d="M-1171.8,21.5c0,1.3-0.5,2.5-1.4,3.6c-1,1-2.2,1.5-3.6,1.5c-2.3,0-3.5-1.3-3.5-3.8c0-1.6,0.3-2.9,1-4
					c0.8-1.3,2-1.9,3.6-1.9c1.1,0,2.1,0.5,2.9,1.5C-1172.2,19.4-1171.8,20.5-1171.8,21.5z M-1173.6,22.4c0-0.5-0.5-1.1-1.4-1.8
					c-0.9-0.6-1.7-1-2.3-1c-0.5,0-1,0.2-1.4,0.7s-0.6,1-0.6,1.4c0,1.3,1,1.9,2.9,1.9C-1174.6,23.6-1173.6,23.1-1173.6,22.4z"/>
				<path class="st5" d="M-1166.8,62.2h-4.6c-2.2,0-3.7-1.3-4.7-3.8c-1.3,2.5-2.8,3.8-4.6,3.8h-2.3v-7c2.7,0,3.8,0,3.2,0
					c1.5,0,2.5-0.3,3-0.8c0.1-0.1,0.2-1.2,0.2-3.2l0.4,0.1c0.3,2,1.5,3.2,3.7,3.6c0.7,0.2,2.6,0.3,5.8,0.3L-1166.8,62.2
					L-1166.8,62.2z M-1169.6,44.5l-2.5,4.2l-4.1-2.8l-2,3.6l-4.4-3.2l2.6-4.2l3.9,3l2.4-3.8L-1169.6,44.5z M-1174.2,38l-2.5,4.3
					l-4.3-3.1l2.7-4.2L-1174.2,38z"/>
				<path class="st4" d="M-1150.2,53.9c0,1.5-0.4,2.8-1.1,4c-0.8,1.4-1.9,2.1-3.3,2.1c-1.5,0-4-0.8-7.6-2.5c-0.3,0.9-0.9,1.8-1.9,3
					c-1,1.3-1.9,1.9-2.7,1.9h-2.3v-7c2.1,0,3.5-0.1,4.2-0.4c1-0.4,1.9-1.4,2.6-3c0.7-1.6,1.3-3.2,2-4.9c1.2-2.1,2.6-3.2,4.2-3.2
					c1.8,0,3.3,1.3,4.5,4C-1150.7,49.9-1150.2,51.9-1150.2,53.9z M-1154.1,52.5c0-0.8-0.4-1.5-1.1-2.1c-0.7-0.6-1.5-0.9-2.4-0.9
					c-1,0-1.9,0.6-2.5,1.9c2.4,1.3,4.1,2,5,2C-1154.5,53.5-1154.1,53.2-1154.1,52.5z"/>
				<path class="st4" d="M-1106.8,60.6c0,3.8-1,7.3-2.9,10.6c-2.3,4-5.3,6-8.9,6c-2.2,0-5-1.1-8.4-3.3l0.4-0.9
					c1,0.2,1.9,0.3,2.5,0.3c3,0,6.2-1.4,9.7-4.1c3.5-2.7,5.2-5.4,5.2-8.1c0-1-0.7-2.4-2.2-4.4c-1.1-1.3-2.2-2.6-3.2-3.9
					c0.7-3,1.2-5.4,1.6-7.2C-1108.9,50-1106.8,55.1-1106.8,60.6z"/>
				<path class="st4" d="M-1088.2,62.2h-4.7c-2.2,0-3.8-0.9-4.9-2.7c-0.8-1.4-1.4-4.1-1.5-8.1c0-1.7-0.4-4.7-0.9-9.1
					c-0.6-4-0.8-7-0.8-9.1c0-0.6,0-1.1,0.1-1.4c0-0.3,1.2-1.4,3.5-3.2c0,0.2,0.3,3.8,0.9,10.7c0.6,6.3,0.8,10.1,0.8,11.4
					c0,1.5,0.3,2.6,0.8,3.4c0.5,0.7,1.6,1.1,3.1,1.1c-2.4,0-1.2-0.1,3.6-0.1V62.2L-1088.2,62.2z"/>
				<path class="st4" d="M-1061.9,62.2h-4.7c-1.9,0-3.4-0.6-4.3-1.7c-0.3,2.6-1.5,4-3.7,4c-2,0-4.7-1.9-8.2-5.6
					c-0.3,0.5-1.2,1.4-2.5,2.5c-0.8,0.6-2.5,0.9-5.2,0.9v-7h2.4c1.7,0,3.1-0.8,4.3-2.3c0.9-1.4,1.8-2.9,2.7-4.3
					c1.1-1.5,2.5-2.3,4.1-2.3c0.8,0,1.8,0.7,3,2.2s2.2,2.9,3.2,4.4c1.4,1.6,2.8,2.3,4.3,2.3h4.7L-1061.9,62.2L-1061.9,62.2z
					 M-1075,55.2c0-1-0.2-2.1-0.5-3.4c-0.4-1.6-1-2.4-1.7-2.4c-0.6,0-1.2,0.6-1.8,1.7c-0.4,0.8-0.8,1.7-1.2,2.5
					c2.1,2.1,3.6,3.1,4.4,3.1C-1075.3,56.8-1075,56.2-1075,55.2z"/>
				<path class="st5" d="M-1052.3,84.1c0,1.5-0.5,2.6-1.6,3.2l-9.6,5.3c0-1,0.1-1.7,0.4-2c0.3-0.4,0.9-0.8,1.8-1.4L-1052.3,84.1z"/>
				<path class="st5" d="M-1053.8,51.7c0,2.9-0.6,5.2-1.8,7.1c-1.4,2.2-3.5,3.4-6.3,3.4h-2.3v-7c4.9,0,7.3-0.5,7.3-1.6
					c0-0.2-0.4-0.8-1.2-1.7c-0.8-0.9-1.2-1.6-1.2-2.2c0-0.8,1-3.1,3.1-6.9C-1054.6,46.2-1053.8,49.2-1053.8,51.7z M-1050.8,37.5
					l-2.7,4.1l-4.1-2.7l-2,3.5l-4.4-3.1l2.7-4.2l3.9,2.9l2.5-3.8L-1050.8,37.5z M-1055.6,31l-2.5,4.2l-4.3-3.1l2.6-4.2L-1055.6,31z"
					/>
				<path class="st4" d="M-1002.2,50.7c0,4-1.4,7.2-4.2,9.6c-2.8,2.4-6.3,3.7-10.5,3.7c-3,0-5.4-0.7-7.3-2.1
					c-2.1-1.5-3.2-3.7-3.2-6.4c0-3.4,1.3-7.6,3.9-12.7l0.9,0.6c-1.2,2.3-1.8,4.4-1.8,6.1c0,2.8,0.8,4.8,2.5,5.8
					c1.3,0.9,3.6,1.3,6.8,1.3c2.3,0,4.4-0.4,6.5-1.2c2.8-1.1,4.2-2.5,4.2-4.3c0-0.8-0.8-2.4-2.3-4.8c-1.3-2.1-2.3-3.7-3.1-4.7
					l2.6-6.2C-1003.8,39.5-1002.2,44.7-1002.2,50.7z M-1013.7,32.5l-2.6,4.1l-4.3-3l2.7-4.2L-1013.7,32.5z"/>
				<path class="st4" d="M-983.3,62.2h-4.7c-2.2,0-3.8-0.9-4.9-2.7c-0.8-1.4-1.4-4.1-1.5-8.1c0-1.7-0.4-4.7-0.9-9.1
					c-0.6-4-0.8-7-0.8-9.1c0-0.6,0-1.1,0.1-1.4c0-0.3,1.2-1.4,3.5-3.2c0,0.2,0.3,3.8,0.9,10.7c0.6,6.3,0.8,10.1,0.8,11.4
					c0,1.5,0.3,2.6,0.8,3.4c0.5,0.7,1.6,1.1,3.1,1.1c-2.4,0-1.2-0.1,3.6-0.1L-983.3,62.2L-983.3,62.2z"/>
				<path class="st4" d="M-969.5,62.2h-4.6c-2.2,0-3.7-1.3-4.7-3.8c-1.3,2.5-2.8,3.8-4.6,3.8h-2.3v-7c2.7,0,3.8,0,3.2,0
					c1.5,0,2.5-0.3,3-0.8c0.1-0.1,0.2-1.2,0.2-3.2l0.4,0.1c0.3,2,1.5,3.2,3.7,3.7c0.7,0.1,2.6,0.2,5.8,0.2L-969.5,62.2L-969.5,62.2z
					 M-974.7,67.6l-2.6,4.2l-4.3-3l2.7-4.2L-974.7,67.6z"/>
				<path class="st4" d="M-949.3,62.2h-4.7c-0.9,0-2.1-0.7-3.7-2.1c-0.1,0-1.2-1.1-3.3-3.3c-3.8,3.6-6.7,5.4-8.4,5.4h-2.3v-7
					c2.2,0,3.5,0,3.9-0.1c0.9-0.2,2.1-0.7,3.4-1.6c-1.5-2.2-3.5-3.3-5.8-3.3c0.2-2.7,1-4.7,2.5-5.8c1.4-1,3.5-1.5,6.5-1.5
					c2.2,0,4,0.5,5.4,1.5c1.6,1.2,2.5,2.8,2.5,4.8c0,2.1-1.3,3.8-3.9,5c1.2,0.6,2.5,0.9,3.7,0.9c-0.6,0,0.8,0,4.2,0L-949.3,62.2
					L-949.3,62.2z"/>
				<path class="st5" d="M-939.7,15.4l-0.3,3.1c-0.6-0.3-1.4-0.8-2.6-1.6c-2.5,3-4.7,4.5-6.5,4.5c-0.4,0-1.1-0.1-2-0.3
					c2.1-1.1,4.4-2.7,7-4.9c-1.4-1.1-2-2-2-2.9c0-1.1,0.4-2.2,1.2-3.5c0.8-1.3,1.7-1.9,2.8-1.9c1.4,0,2.1,0.9,2.1,2.8
					c0,1.3-0.3,2.5-1,3.8C-940.5,14.8-940,15.1-939.7,15.4z M-941.9,12.5c0-0.4-0.2-0.8-0.5-1.3s-0.7-0.7-1.2-0.7s-0.7,0.3-0.7,0.9
					c0,0.4,0.8,1.1,2.3,2.1C-942,13-941.9,12.6-941.9,12.5z"/>
				<path class="st5" d="M-941.2,51.7c0,2.9-0.6,5.2-1.8,7.1c-1.4,2.2-3.5,3.4-6.3,3.4h-2.3v-7c4.9,0,7.3-0.5,7.3-1.6
					c0-0.2-0.4-0.8-1.2-1.7s-1.2-1.6-1.2-2.2c0-0.8,1-3.1,3.1-6.9C-942.1,46.2-941.2,49.2-941.2,51.7z M-938.2,37.5l-2.7,4.1
					l-4.1-2.7l-2,3.5l-4.4-3.1l2.7-4.2l3.9,2.9l2.5-3.8L-938.2,37.5z M-943.1,31l-2.5,4.2l-4.3-3.1l2.6-4.2L-943.1,31z"/>
				<path class="st4" d="M-855.1,62.2h-4.7c-2.5,0-4-1.1-4.6-3.2c-5.8,3.8-13,5.8-21.5,5.8c-4.7,0-8.6-0.8-11.7-2.3
					c-3.9-2-5.8-5-5.8-9.1c0-2.6,1-5.9,3.1-9.9l0.9,0.4c-0.8,2-1.3,3.8-1.3,5.5c0,3,2,5.3,6,6.6c2.8,1,6.1,1.5,10,1.5
					c7.1,0,12.4-0.6,15.8-1.8c1.1-0.4,1.7-0.6,1.8-0.6c0.8-0.4,1.2-0.7,1.4-1.2c0.2-0.4,0.3-1.2,0.2-2.4h0.7c0.7,2.6,2.7,3.8,6,3.8
					c0.4,0,1,0,1.8-0.1c0.8,0,1.4,0,1.8,0L-855.1,62.2L-855.1,62.2z M-877.5,71.7l-2.5,4.2l-4.3-3.1l2.7-4.1L-877.5,71.7z"/>
				<path class="st4" d="M-838.5,62.2h-4.6c-3.1,0-5.2-2.5-6.2-7.5c-1.5,5-3.4,7.5-5.8,7.5h-2.3v-7h2.3c3,0,4.5-2.7,4.5-8.1
					c0-2.2-0.2-5.5-0.6-9.9c-0.4-4.4-0.6-7.7-0.6-9.9c0-0.1,1.1-1,3.4-2.9c0.5,3.1,0.7,5.7,0.7,7.9c0,4.7,0.2,8.9,0.6,12.6
					c0.8,6.8,2.1,10.2,3.9,10.2h4.6L-838.5,62.2L-838.5,62.2z"/>
				<path class="st4" d="M-818.3,62.2h-4.7c-0.9,0-2.1-0.7-3.7-2.1c-0.1,0-1.2-1.1-3.3-3.3c-3.8,3.6-6.7,5.4-8.4,5.4h-2.3v-7
					c2.2,0,3.5,0,3.9-0.1c0.9-0.2,2.1-0.7,3.4-1.6c-1.5-2.2-3.5-3.3-5.8-3.3c0.2-2.7,1-4.7,2.5-5.8c1.4-1,3.5-1.5,6.5-1.5
					c2.2,0,4,0.5,5.4,1.5c1.6,1.2,2.5,2.8,2.5,4.8c0,2.1-1.3,3.8-3.9,5c1.2,0.6,2.5,0.9,3.7,0.9c-0.6,0,0.8,0,4.2,0L-818.3,62.2
					L-818.3,62.2z"/>
				<path class="st5" d="M-808.8,12.8c0,1.6-0.5,2.7-1.6,3.4l-9.6,5.2c0-0.9,0.1-1.6,0.4-2c0.3-0.4,0.9-0.8,1.8-1.3L-808.8,12.8z"/>
				<path class="st5" d="M-810.3,51.7c0,2.9-0.6,5.2-1.8,7.1c-1.4,2.2-3.5,3.4-6.3,3.4h-2.3v-7c4.9,0,7.3-0.5,7.3-1.6
					c0-0.2-0.4-0.8-1.2-1.7s-1.2-1.6-1.2-2.2c0-0.8,1-3.1,3.1-6.9C-811.1,46.2-810.3,49.2-810.3,51.7z M-807.3,37.5l-2.7,4.1
					l-4.1-2.7l-2,3.5l-4.4-3.1l2.7-4.2l3.9,2.9l2.5-3.8L-807.3,37.5z M-812.1,31l-2.5,4.2l-4.3-3.1l2.6-4.2L-812.1,31z"/>
				<path class="st4" d="M-760.1,62.2h-4.8c-0.6,4.2-1.7,7.7-3.2,10.5c-2.2,4-5,6-8.6,6c-2.5,0-5.7-1.2-9.4-3.6l0.5-0.8
					c1.5,0.3,2.5,0.4,3.2,0.4c2.5,0,5-1,7.7-2.9c1.1-0.8,2.5-2.4,4-4.7c1.1-1.8,2.3-3.6,3.4-5.4c-2.1-0.7-3.6-2.3-4.6-4.9l3.9-5.5
					c0.9,1.8,1.9,3,3,3.4c0.7,0.3,2.3,0.4,4.8,0.4L-760.1,62.2L-760.1,62.2z"/>
				<path class="st4" d="M-723.5,62.2h-7.7c-6,0-8.9-1.7-8.9-5c0-1.1,0.4-2.8,1.3-5.1c-3,0.4-5.5,1.2-7.5,2.1
					c-1.2,0.6-3.3,2-6.3,4.2c-1,0.7-2.5,1.7-4.5,3c-1,0.5-2.7,0.7-5.2,0.7v-7c3.1,0,5.6-0.3,7.5-0.8c1.6-0.4,4-1.4,7-2.9
					c-2.7-1.3-4.8-1.9-6.3-1.9c-0.9,0-1.7,0.4-2.2,1.2h-4.4c0.7-2.6,1.4-4.4,2.1-5.6c1.2-1.7,3-2.6,5.2-2.6c1.4,0,3.5,0.5,6.2,1.5
					c4.4,1.6,8.2,2.4,11.6,2.4c0.6,0,1.4,0,2.5-0.1c1.1-0.1,1.9-0.1,2.5-0.1l-0.8,5.4c-2.2,0.2-3.8,0.3-4.9,0.5
					c0.7,1.3,1.5,2.2,2.5,2.6c0.8,0.3,2.1,0.5,3.8,0.5h6.6L-723.5,62.2L-723.5,62.2z M-742,64.9l-2.5,4.2l-4.3-3.2l2.7-4.2
					L-742,64.9z"/>
				<path class="st5" d="M-714.6,26.4c0,1.3-0.5,2.5-1.4,3.6c-1,1-2.2,1.5-3.6,1.5c-2.3,0-3.5-1.3-3.5-3.8c0-1.6,0.3-2.9,1-4
					c0.8-1.3,2-1.9,3.6-1.9c1.1,0,2.1,0.5,2.9,1.5C-715,24.1-714.6,25.2-714.6,26.4z M-716.5,27.1c0-0.5-0.5-1.1-1.4-1.8
					c-0.9-0.6-1.7-1-2.3-1c-0.5,0-1,0.2-1.4,0.7s-0.6,1-0.6,1.4c0,1.3,1,1.9,2.9,1.9C-717.4,28.5-716.5,28-716.5,27.1z"/>
				<path class="st5" d="M-709.6,62.2h-4.6c-2.2,0-3.7-1.3-4.7-3.8c-1.3,2.5-2.8,3.8-4.6,3.8h-2.3v-7c2.7,0,3.8,0,3.2,0
					c1.5,0,2.5-0.3,3-0.8c0.1-0.1,0.2-1.2,0.2-3.2l0.4,0.1c0.3,2,1.5,3.2,3.7,3.6c0.7,0.2,2.6,0.3,5.8,0.3v7H-709.6z M-712.5,44.5
					l-2.5,4.2l-4.1-2.8l-2,3.6l-4.4-3.2l2.6-4.2l3.9,3l2.4-3.8L-712.5,44.5z"/>
				<path class="st4" d="M-693,53.9c0,1.5-0.4,2.8-1.1,4c-0.8,1.4-1.9,2.1-3.3,2.1c-1.5,0-4-0.8-7.6-2.5c-0.3,0.9-0.9,1.8-1.9,3
					c-1,1.3-1.9,1.9-2.7,1.9h-2.3v-7c2.1,0,3.5-0.1,4.2-0.4c1-0.4,1.9-1.4,2.6-3c0.7-1.6,1.3-3.2,2-4.9c1.2-2.1,2.6-3.2,4.2-3.2
					c1.8,0,3.3,1.3,4.5,4C-693.5,49.9-693,51.9-693,53.9z M-697,52.5c0-0.8-0.4-1.5-1.1-2.1c-0.7-0.6-1.5-0.9-2.4-0.9
					c-1,0-1.9,0.6-2.5,1.9c2.4,1.3,4.1,2,5,2C-697.3,53.5-697,53.2-697,52.5z"/>
				<path class="st4" d="M-664.2,52.8h-4.4c0.7-2.6,1.4-4.5,2.1-5.6c1.2-1.8,3-2.7,5.2-2.7c1.7,0,3.9,0.2,6.6,0.7
					c3.5,0.6,5.7,0.9,6.6,1c1.5,0,3.7,0.1,6.5,0.3l-1.1,5.4c-2.6,0-5.1,0.2-7.3,0.6c-4.1,0.7-7.7,2.3-10.7,4.8
					c-3.4,2.8-5.1,6.1-5.1,9.9c0,4.5,2.8,7.9,8.3,10.1c4,1.6,8.8,2.3,14.4,2.3c1.5,0,4.9-0.2,10.4-0.6l0.1,0.8l-13.9,6.4h-1.7
					c-6.1,0-10.9-1.1-14.4-3.2c-4.3-2.6-6.5-6.6-6.5-12.1c0-7.5,4-13.7,11.9-18.6c-2.5-0.5-4.2-0.8-5-0.8c-0.7,0-1.2,0.1-1.4,0.2
					C-663.7,51.9-664,52.2-664.2,52.8z"/>
				<path class="st4" d="M-615.9,62.2h-4.7c-2.2,0-3.8-0.9-4.9-2.7c-0.8-1.4-1.4-4.1-1.5-8.1c0-1.7-0.4-4.7-0.9-9.1
					c-0.6-4-0.8-7-0.8-9.1c0-0.6,0-1.1,0.1-1.4c0-0.3,1.2-1.4,3.5-3.2c0,0.2,0.3,3.8,0.9,10.7c0.6,6.3,0.8,10.1,0.8,11.4
					c0,1.5,0.3,2.6,0.8,3.4c0.5,0.7,1.6,1.1,3.1,1.1c-2.4,0-1.2-0.1,3.6-0.1L-615.9,62.2L-615.9,62.2z"/>
				<path class="st4" d="M-605.5,62.2c-3,0-4.9-1.3-5.9-3.9c-1.2,2.6-2.7,3.9-4.6,3.9h-2.3v-7c3.5,0,5.6-0.3,6.3-0.8
					c0.3-0.2,0.5-1.2,0.6-3h0.4c0.5,1.4,1.3,2.4,2.3,2.9c0.8,0.4,2.1,0.5,3.9,0.5v7.3C-604.9,62.2-605.5,62.2-605.5,62.2z"/>
				<path class="st4" d="M-605.5,54.9h2.3c1.9,0,3.1-0.4,3.4-1.1c0.1-0.2,0.3-1.3,0.5-3.5l0.8,0.1c0,0.9,0.9,2,2.6,3.2
					c0.6,0.4,1.7,0.6,3.4,0.6c1.3,0,2.2-0.4,2.7-1.3c0.3-0.5,0.4-1.5,0.5-3h0.8c0.4,1.7,1.2,3.1,2.5,4.2c0.8,0.7,2.1,1.1,3.8,1.2
					c-1.5,0-0.1-0.1,4.2-0.1v7h-4.6c-1.7,0-3.1-0.7-4.2-2.1c-0.7-0.9-1.3-2.3-2-4.4c-1.3,3.8-3.1,5.6-5.3,5.6
					c-1.9,0-3.3-1.2-4.2-3.7c-1.3,3-3.7,4.5-7.2,4.5V54.9L-605.5,54.9z"/>
				<path class="st4" d="M-551.7,62.2h-4.7c-1.9,0-3.4-0.6-4.3-1.7c-0.3,2.6-1.5,4-3.7,4c-2,0-4.7-1.9-8.2-5.6
					c-0.3,0.5-1.2,1.4-2.5,2.5c-0.8,0.6-2.5,0.9-5.2,0.9v-7h2.4c1.7,0,3.1-0.8,4.3-2.3c0.9-1.4,1.8-2.9,2.7-4.3
					c1.1-1.5,2.5-2.3,4.1-2.3c0.8,0,1.8,0.7,3,2.2s2.2,2.9,3.2,4.4c1.4,1.6,2.8,2.3,4.3,2.3h4.7L-551.7,62.2L-551.7,62.2z
					 M-564.8,55.2c0-1-0.2-2.1-0.5-3.4c-0.4-1.6-1-2.4-1.7-2.4c-0.6,0-1.2,0.6-1.8,1.7c-0.4,0.8-0.8,1.7-1.2,2.5
					c2.1,2.1,3.6,3.1,4.4,3.1C-565.1,56.8-564.8,56.2-564.8,55.2z"/>
				<path class="st4" d="M-554,62.2v-7h14.1v7H-554z"/>
				<path class="st5" d="M-531.3,84.1c0,1.5-0.5,2.6-1.6,3.2l-9.6,5.3c0-1,0.1-1.7,0.4-2c0.3-0.4,0.9-0.8,1.8-1.4L-531.3,84.1z"/>
				<path class="st5" d="M-532.7,51.7c0,2.9-0.6,5.2-1.8,7.1c-1.4,2.2-3.5,3.4-6.3,3.4h-2.3v-7c4.9,0,7.3-0.5,7.3-1.6
					c0-0.2-0.4-0.8-1.2-1.7s-1.2-1.6-1.2-2.2c0-0.8,1-3.1,3.1-6.9C-533.6,46.2-532.7,49.2-532.7,51.7z M-529.7,37.5l-2.7,4.1
					l-4.1-2.7l-2,3.5l-4.4-3.1l2.7-4.2l3.9,2.9l2.5-3.8L-529.7,37.5z"/>
				<path class="st4" d="M-503,52.8h-4.4c0.7-2.6,1.4-4.5,2.1-5.6c1.2-1.8,3-2.7,5.2-2.7c1.7,0,3.9,0.2,6.6,0.7
					c3.5,0.6,5.7,0.9,6.6,1c1.5,0,3.7,0.1,6.5,0.3l-1.1,5.4c-2.6,0-5.1,0.2-7.3,0.6c-4.1,0.7-7.7,2.3-10.7,4.8
					c-3.4,2.8-5.1,6.1-5.1,9.9c0,4.5,2.8,7.9,8.3,10.1c4,1.6,8.8,2.3,14.4,2.3c1.5,0,4.9-0.2,10.4-0.6l0.1,0.8l-13.9,6.4h-1.7
					c-6.1,0-10.9-1.1-14.4-3.2c-4.3-2.6-6.5-6.6-6.5-12.1c0-7.5,4-13.7,11.9-18.6c-2.5-0.5-4.2-0.8-5-0.8c-0.7,0-1.2,0.1-1.4,0.2
					C-502.4,51.9-502.7,52.2-503,52.8z"/>
				<path class="st4" d="M-454.6,62.2h-4.7c-2.2,0-3.8-0.9-4.9-2.7c-0.8-1.4-1.4-4.1-1.5-8.1c0-1.7-0.4-4.7-0.9-9.1
					c-0.6-4-0.8-7-0.8-9.1c0-0.6,0-1.1,0.1-1.4c0-0.3,1.2-1.4,3.5-3.2c0,0.2,0.3,3.8,0.9,10.7c0.6,6.3,0.8,10.1,0.8,11.4
					c0,1.5,0.3,2.6,0.8,3.4c0.5,0.7,1.6,1.1,3.1,1.1c-2.4,0-1.2-0.1,3.6-0.1V62.2L-454.6,62.2z"/>
				<path class="st4" d="M-434.5,62.2h-4.7c-3.5,0-6.1-0.8-7.9-2.5c-3.1,1.7-5.6,2.5-7.6,2.5h-2.3v-7c2.3,0,3.8-0.3,4.8-0.8
					c-0.5-0.5-0.8-1-0.8-1.6c0-2.1,0.7-4.4,2.2-6.9c1.4-2.4,3-4.2,4.8-5.6c1.2-0.9,2.2-1.3,3-1.3c1.5,0,2.6,1.1,3.3,3.4
					c0.5,1.6,0.8,3.3,0.8,5.2c0,2.6-0.8,4.9-2.5,6.8c0.8,0.6,2,1,3.4,1c-2.2,0-1-0.1,3.6-0.1L-434.5,62.2L-434.5,62.2z M-441.4,49.5
					c0-1-0.4-1.9-1.2-2.6c-0.8-0.7-1.8-1-2.9-1c-0.9,0-1.8,0.2-2.6,0.7c-1,0.5-1.5,1.2-1.5,2c0,1,1.2,2.3,3.5,4
					C-443,51.9-441.4,50.9-441.4,49.5z M-440.3,31l-2.6,4.2l-4.3-3l2.7-4.2L-440.3,31z"/>
				<path class="st5" d="M-424.9,20l-0.3,3.1c-0.6-0.3-1.4-0.8-2.6-1.6c-2.5,3-4.7,4.5-6.5,4.5c-0.4,0-1.1-0.1-2-0.3
					c2.1-1.1,4.4-2.7,7-4.9c-1.4-1.1-2-2-2-2.9c0-1.1,0.4-2.2,1.2-3.5c0.8-1.3,1.7-1.9,2.8-1.9c1.4,0,2.1,0.9,2.1,2.7
					c0,1.3-0.3,2.5-1,3.8C-425.7,19.5-425.2,19.9-424.9,20z M-427.1,17.2c0-0.4-0.2-0.8-0.5-1.3s-0.7-0.7-1.2-0.7s-0.7,0.3-0.7,0.9
					c0,0.4,0.8,1.1,2.3,2.1C-427.2,17.8-427.1,17.5-427.1,17.2z"/>
				<path class="st5" d="M-426.4,51.7c0,2.9-0.6,5.2-1.8,7.1c-1.4,2.2-3.5,3.4-6.3,3.4h-2.3v-7c4.9,0,7.3-0.5,7.3-1.6
					c0-0.2-0.4-0.8-1.2-1.7c-0.8-0.9-1.2-1.6-1.2-2.2c0-0.8,1-3.1,3.1-6.9C-427.3,46.2-426.4,49.2-426.4,51.7z M-423.4,37.5
					l-2.7,4.1l-4.1-2.7l-2,3.5l-4.4-3.1l2.7-4.2l3.9,2.9l2.5-3.8L-423.4,37.5z"/>
				<path class="st4" d="M-376.3,62.2h-4.8c-0.6,4.2-1.7,7.7-3.2,10.5c-2.2,4-5,6-8.6,6c-2.5,0-5.7-1.2-9.4-3.6l0.5-0.8
					c1.5,0.3,2.5,0.4,3.2,0.4c2.5,0,5-1,7.7-2.9c1.1-0.8,2.5-2.4,4-4.7c1.1-1.8,2.3-3.6,3.4-5.4c-2.1-0.7-3.6-2.3-4.6-4.9l3.9-5.5
					c0.9,1.8,1.9,3,3,3.4c0.7,0.3,2.3,0.4,4.8,0.4v7.1H-376.3z"/>
				<path class="st4" d="M-349.9,62.2h-4.7c-1.9,0-3.4-0.6-4.3-1.7c-0.3,2.6-1.5,4-3.7,4c-2,0-4.7-1.9-8.2-5.6
					c-0.3,0.5-1.2,1.4-2.5,2.5c-0.8,0.6-2.5,0.9-5.2,0.9v-7h2.4c1.7,0,3.1-0.8,4.3-2.3c0.9-1.4,1.8-2.9,2.7-4.3
					c1.1-1.5,2.5-2.3,4.1-2.3c0.8,0,1.8,0.7,3,2.2s2.2,2.9,3.2,4.4c1.4,1.6,2.8,2.3,4.3,2.3h4.7L-349.9,62.2L-349.9,62.2z
					 M-363,55.2c0-1-0.2-2.1-0.5-3.4c-0.4-1.6-1-2.4-1.7-2.4c-0.6,0-1.2,0.6-1.8,1.7c-0.4,0.8-0.8,1.7-1.2,2.5
					c2.1,2.1,3.6,3.1,4.4,3.1C-363.2,56.8-363,56.2-363,55.2z"/>
				<path class="st4" d="M-352.2,62.2v-7h14.1v7H-352.2z"/>
				<path class="st5" d="M-329.4,17.5c0,1.6-0.5,2.7-1.6,3.4l-9.6,5.2c0-0.9,0.1-1.6,0.4-2s0.9-0.8,1.8-1.3L-329.4,17.5z"/>
				<path class="st5" d="M-330.9,51.7c0,2.9-0.6,5.2-1.8,7.1c-1.4,2.2-3.5,3.4-6.3,3.4h-2.3v-7c4.9,0,7.3-0.5,7.3-1.6
					c0-0.2-0.4-0.8-1.2-1.7c-0.8-0.9-1.2-1.6-1.2-2.2c0-0.8,1-3.1,3.1-6.9C-331.7,46.2-330.9,49.2-330.9,51.7z M-327.9,37.5
					l-2.7,4.1l-4.1-2.7l-2,3.5l-4.4-3.1l2.7-4.2l3.9,2.9l2.5-3.8L-327.9,37.5z"/>
				<path class="st4" d="M-269.9,62.2h-4.8c-0.6,4.2-1.7,7.7-3.2,10.5c-2.2,4-5,6-8.6,6c-2.5,0-5.7-1.2-9.4-3.6l0.5-0.8
					c1.5,0.3,2.5,0.4,3.2,0.4c2.5,0,5-1,7.7-2.9c1.1-0.8,2.5-2.4,4-4.7c1.1-1.8,2.3-3.6,3.4-5.4c-2.1-0.7-3.6-2.3-4.6-4.9l3.9-5.5
					c0.9,1.8,1.9,3,3,3.4c0.7,0.3,2.3,0.4,4.8,0.4L-269.9,62.2L-269.9,62.2z M-274.8,42l-2.5,4.2l-4.3-3.1l2.5-4.2L-274.8,42z"/>
				<path class="st5" d="M-255.5,62.2h-4.6c-2.2,0-3.7-1.3-4.7-3.8c-1.3,2.5-2.8,3.8-4.6,3.8h-2.3v-7c2.7,0,3.8,0,3.2,0
					c1.5,0,2.5-0.3,3-0.8c0.1-0.1,0.2-1.2,0.2-3.2l0.4,0.1c0.3,2,1.5,3.2,3.7,3.7c0.7,0.1,2.6,0.2,5.8,0.2L-255.5,62.2L-255.5,62.2z
					 M-260.7,67.6l-2.6,4.2l-4.3-3l2.7-4.2L-260.7,67.6z"/>
				<path class="st4" d="M-237.2,20.4c0,1.3-0.5,2.5-1.4,3.6c-1,1-2.2,1.5-3.6,1.5c-2.3,0-3.5-1.3-3.5-3.8c0-1.6,0.3-2.9,1-4
					c0.8-1.3,2-1.9,3.6-1.9c1.1,0,2.1,0.5,2.9,1.5C-237.5,18.1-237.2,19.2-237.2,20.4z M-239,21.1c0-0.5-0.5-1.1-1.4-1.8
					c-0.9-0.6-1.7-1-2.3-1c-0.5,0-1,0.2-1.4,0.7s-0.6,1-0.6,1.4c0,1.3,1,1.9,2.9,1.9C-239.9,22.5-239,22-239,21.1z"/>
				<path class="st4" d="M-227.4,46.2l-0.8,5.4c-0.9,0.1-2.2,0.2-3.9,0.2c-3.3,0-6.4,0.7-9.2,2c-1.4,0.7-3.3,1.9-5.7,3.8
					c-2.4,1.9-4.3,3.1-5.6,3.7c-0.9,0.5-2.7,0.7-5.2,0.7v-7c3.1,0,5.6-0.3,7.5-0.8c1.6-0.4,4-1.4,7-2.9c-2.7-1.3-4.8-1.9-6.3-1.9
					c-1.2,0-1.9,0.4-2.2,1.2h-4.4c0.7-2.6,1.4-4.4,2.1-5.6c1.2-1.7,3-2.6,5.2-2.6c1.4,0,3.5,0.5,6.2,1.5c4.4,1.6,8.2,2.4,11.6,2.4
					c0.4,0,1,0,1.8-0.1C-228.4,46.2-227.8,46.2-227.4,46.2z M-234.9,36.5l-2.5,4.2l-4.3-3l2.6-4.2L-234.9,36.5z"/>
				<path class="st4" d="M-152.1,62.2h-4.7c-2.5,0-4-1.1-4.6-3.2c-5.8,3.8-13,5.8-21.5,5.8c-4.7,0-8.6-0.8-11.7-2.3
					c-3.9-2-5.8-5-5.8-9.1c0-2.6,1-5.9,3.1-9.9l0.9,0.4c-0.8,2-1.3,3.8-1.3,5.5c0,3,2,5.3,6,6.6c2.8,1,6.1,1.5,10,1.5
					c7.1,0,12.4-0.6,15.8-1.8c1.1-0.4,1.7-0.6,1.8-0.6c0.8-0.4,1.2-0.7,1.4-1.2c0.2-0.4,0.3-1.2,0.2-2.4h0.7c0.7,2.6,2.7,3.8,6,3.8
					c0.4,0,1,0,1.8-0.1c0.8,0,1.4,0,1.8,0L-152.1,62.2L-152.1,62.2z M-173.1,39.2l-2.6,4.1l-4.1-2.7l-2,3.5l-4.4-3.1l2.6-4.2l3.9,3
					l2.4-3.7L-173.1,39.2z"/>
				<path class="st4" d="M-138.1,62.2h-4.6c-2.2,0-3.7-1.3-4.7-3.8c-1.3,2.5-2.8,3.8-4.6,3.8h-2.3v-7c2.7,0,3.8,0,3.2,0
					c1.5,0,2.5-0.3,3-0.8c0.1-0.1,0.2-1.2,0.2-3.2l0.4,0.1c0.3,2,1.5,3.2,3.7,3.6c0.7,0.2,2.6,0.3,5.8,0.3L-138.1,62.2L-138.1,62.2z
					 M-143,44l-2.4,4.2l-4.3-3.1l2.5-4.1L-143,44z"/>
				<path class="st5" d="M-128.5,83.4c0,1.5-0.5,2.6-1.6,3.2l-9.6,5.3c0-1,0.1-1.7,0.4-2c0.3-0.4,0.9-0.8,1.8-1.4L-128.5,83.4z"/>
				<path class="st5" d="M-130,51.7c0,2.9-0.6,5.2-1.8,7.1c-1.4,2.2-3.5,3.4-6.3,3.4h-2.3v-7c4.9,0,7.3-0.5,7.3-1.6
					c0-0.2-0.4-0.8-1.2-1.7s-1.2-1.6-1.2-2.2c0-0.8,1-3.1,3.1-6.9C-130.8,46.2-130,49.2-130,51.7z M-130.1,67.6l-2.6,4.2l-4.3-3
					l2.7-4.2L-130.1,67.6z"/>
				<path class="st4" d="M-66.7,46.5l-1.1,5.4c-2.6,0-5.1,0.2-7.3,0.6c-4.1,0.7-7.7,2.3-10.7,4.8c-3.4,2.8-5.1,6.1-5.1,9.9
					c0,4.5,2.8,7.9,8.3,10.1c4,1.6,8.8,2.3,14.4,2.3c1.5,0,4.9-0.2,10.4-0.6l0.1,0.8l-13.9,6.4h-1.7c-6.1,0-10.9-1.1-14.4-3.2
					c-4.3-2.6-6.5-6.6-6.5-12.1c0-7.5,4-13.7,11.9-18.6l-4.3-0.9c-1.5,0-2.4,0.4-2.9,1.3h-4.4c0.7-2.6,1.4-4.4,2.1-5.6
					c1.2-1.8,3-2.7,5.2-2.7c1.7,0,3.9,0.2,6.7,0.7c3.5,0.6,5.7,0.9,6.6,1C-71.7,46.2-69.5,46.4-66.7,46.5z M-74.3,65.4l-2.5,4.2
					l-4.3-3.1l2.5-4.2L-74.3,65.4z"/>
				<path class="st4" d="M-31.2,62.2H-36c-0.6,4.2-1.7,7.7-3.2,10.5c-2.2,4-5,6-8.6,6c-2.5,0-5.7-1.2-9.4-3.6l0.5-0.8
					c1.5,0.3,2.5,0.4,3.2,0.4c2.5,0,5-1,7.7-2.9c1.1-0.8,2.5-2.4,4-4.7c1.1-1.8,2.3-3.6,3.4-5.4c-2.1-0.7-3.6-2.3-4.6-4.9l3.9-5.5
					c0.9,1.8,1.9,3,3,3.4c0.7,0.3,2.3,0.4,4.8,0.4L-31.2,62.2L-31.2,62.2z"/>
				<path class="st5" d="M-21.4,26.5l-0.3,3.1c-0.6-0.3-1.4-0.8-2.6-1.6c-2.5,3-4.7,4.5-6.5,4.5c-0.4,0-1.1-0.1-2-0.3
					c2.1-1.1,4.4-2.7,7-4.9c-1.4-1.1-2-2-2-2.9c0-1.1,0.4-2.2,1.2-3.5c0.8-1.3,1.7-1.9,2.8-1.9c1.4,0,2.1,0.9,2.1,2.8
					c0,1.3-0.3,2.5-1,3.8C-22.2,26-21.8,26.2-21.4,26.5z M-23.7,23.8c0-0.4-0.2-0.8-0.5-1.3s-0.8-0.8-1.2-0.8
					c-0.5,0-0.7,0.3-0.7,0.9c0,0.4,0.8,1.1,2.3,2.1C-23.7,24.1-23.7,23.9-23.7,23.8z"/>
				<path class="st5" d="M-23,51.7c0,2.9-0.6,5.2-1.8,7.1c-1.4,2.2-3.5,3.4-6.3,3.4h-2.3v-7c4.9,0,7.3-0.5,7.3-1.6
					c0-0.2-0.4-0.8-1.2-1.7c-0.8-0.9-1.2-1.6-1.2-2.2c0-0.8,1-3.1,3.1-6.9C-23.8,46.2-23,49.2-23,51.7z M-23.1,67.6l-2.6,4.2l-4.3-3
					l2.7-4.2L-23.1,67.6z"/>
				<path class="st4" d="M23.4,62.2h-4.7c-2,0-3.5-0.9-4.4-2.7c-0.6-1.1-1-2.8-1.3-5.3c-2.5,3.3-4.6,5-6.1,5c-1,0-2.1-0.3-3.1-0.8
					C2.6,57.8,2,57,2,56s0.6-2.8,1.8-5.3C4.4,49.2,5.4,48,6.9,47c0.5-0.3,1.9-1.1,4.4-2.4c-0.4-1.8-0.6-2.9-0.6-3.4
					c0-0.8,1.1-2.3,3.3-4.4c0,0,0.5,3.2,1.4,9.4c0.7,5,1.3,7.7,1.7,8.2c0.4,0.4,1,0.7,1.8,0.8c0.6,0.1,1.4,0.1,2.5,0.1
					c1.5,0,2.1-0.1,2-0.1L23.4,62.2L23.4,62.2z M16.8,30.9L14.1,35L10,32.3l-2,3.5l-4.5-3.1l2.6-4.1l4,2.9l2.5-3.8L16.8,30.9z
					 M12.5,51.5c0-1-0.2-2.4-0.7-4.3c-3.5,1.8-5.2,3.1-5.2,4c0,0.9,1.6,1.3,4.8,1.3C12.2,52.5,12.5,52.2,12.5,51.5z"/>
				<path class="st4" d="M23.8,29.9c-0.4-0.5-0.6-0.9-0.7-1.2c0.7-2.7,1.7-4.4,3.2-5c0.1,1.6,0.8,2.9,2,4.1c1.2,1.1,2.7,1.6,4.3,1.3
					l-3,5.1c-0.4-0.1-0.9-0.4-1.4-0.7L28,33.8c0,1.3,0.1,3,0.5,5.2c0.4,2.4,0.6,4.2,0.6,5.2c0,2.3-0.3,4.8-0.8,7.4
					c2.8-3.2,4.7-5.2,5.7-6.1c2.7-2.5,5.1-3.8,7.2-3.8c2,0,3.6,0.6,4.8,1.7c1.2,1.2,1.8,2.7,1.8,4.6c0,1.6-0.3,3-0.8,4.1
					c-0.4,0.8-1.3,1.9-2.5,3.3c1.9-0.1,3.1-0.2,3.7-0.2h5.5v7H47c-0.6,0-1.5,0-2.7-0.1c-1.2,0-2.1-0.1-2.7-0.1
					c-2.9,0-4.6-0.6-5.2-1.7c-2.4,1.3-6.5,1.9-12.3,1.9H21v-7h4.2c0.4-0.8,0.8-1.5,1.3-2.3c0.1-0.3,0.2-1.3,0.2-3
					c0-2.2-0.5-5.6-1.4-10C24.3,35.5,23.8,32.2,23.8,29.9z M44.5,50.9c0-0.8-0.5-1.4-1.4-1.9c-0.8-0.4-1.5-0.6-2.4-0.6
					c-3.2,0-7,2.1-11.3,6.4c2.2,0,5-0.3,8.4-0.9C42.2,53.1,44.5,52,44.5,50.9z"/>
				<path class="st5" d="M63,24c0,1.6-0.5,2.7-1.6,3.4l-9.6,5.2c0-0.9,0.1-1.6,0.4-2c0.3-0.5,0.9-0.9,1.8-1.4L63,24z"/>
				<path class="st5" d="M61.5,51.7c0,2.9-0.6,5.2-1.8,7.1c-1.4,2.2-3.5,3.4-6.3,3.4h-2.3v-7c4.9,0,7.3-0.5,7.3-1.6
					c0-0.2-0.4-0.8-1.2-1.7S56,50.2,56,49.7c0-0.8,1-3.1,3.1-6.9C60.7,46.2,61.5,49.2,61.5,51.7z M61.5,67.6l-2.6,4.2l-4.3-3
					l2.7-4.2L61.5,67.6z"/>
				<path class="st4" d="M108,62.6c-0.7,5-2,8.6-4,10.9c-2.4,2.7-6,4.1-11,4.1c-2.6,0-4.8-0.6-6.5-1.7c-1.9-1.3-2.9-3.1-2.9-5.5
					c0-2.5,1.4-6.2,4.2-11.2l0.8,0.4c-1.3,2.5-2,4.4-2,5.9c0,2.3,0.5,3.9,1.6,4.6c1.4,1,3.7,1.4,6.9,1.4c3.4,0,6-0.5,7.9-1.6
					c1.4-0.8,2.3-2.2,2.8-4.4c0.2-1.1,0.3-1.8,0.3-2.2c0-0.7-0.4-1.5-1.1-2.5c-1-1.3-1.6-2.1-1.7-2.4c0.6-1.2,1.5-3,2.8-5.4
					c0.5,0.7,1,1.4,1.5,2.1c0.5,0.7,1.3,1,2.4,1v6.5L108,62.6L108,62.6z"/>
				<path class="st4" d="M109.4,56.1c3.6,0,5.4-0.9,5.4-2.8c0-0.3,0-0.8-0.1-1.4c-0.1-0.6-0.1-1-0.2-1.2l0.8-0.1
					c0.4,1.6,1.1,2.9,2.1,4c1.1,1.2,2.5,1.7,4.1,1.7c0.3,0,0.8-0.1,1.4-0.4c0.6-0.3,0.9-0.6,0.9-0.8c0-0.5-0.3-1.2-0.9-2.2
					c-0.5-0.6-0.9-1.3-1.4-1.9c0.4-1.1,0.9-2.7,1.5-4.9c2,1.7,3,4.1,3,7.2c0,2-0.4,3.8-1.3,5.4c-1,2-2.5,2.9-4.4,2.9
					s-3.5-1.1-4.6-3.4c-1.5,3-3.5,4.4-6.2,4.4L109.4,56.1L109.4,56.1z"/>
				<path class="st5" d="M138.6,9.5c0,1.2-0.4,2.3-1.3,3.2c-0.9,0.9-1.9,1.4-3.2,1.4c-2.1,0-3.1-1.1-3.1-3.4c0-1.4,0.3-2.6,0.9-3.6
					c0.8-1.2,1.8-1.7,3.2-1.7c1,0,1.9,0.4,2.6,1.3C138.3,7.5,138.6,8.5,138.6,9.5z M137,10.1c0-0.5-0.4-1-1.3-1.6
					c-0.8-0.6-1.5-0.9-2.1-0.9c-0.5,0-0.9,0.2-1.2,0.6c-0.4,0.4-0.5,0.9-0.5,1.3c0,1.1,0.9,1.7,2.6,1.7C136.2,11.2,137,11,137,10.1z
					"/>
				<path class="st5" d="M140.8,27.4c-0.2,0.8-0.4,1.3-0.7,1.6c-0.3,0.3-0.8,0.5-1.6,0.7l-8,2.3c0.7-1.4,1.7-2.2,3.2-2.6
					c-1.4-1-2.1-1.8-2.1-2.4c0-0.9,0.7-2,2.2-3.3c1.4-1.3,2.7-2,3.6-2c1.1,0,1.7,0.5,1.7,1.6c0,0.4-0.3,1.2-0.8,2.3
					c-1.1-0.7-2-1.1-2.7-1.1c-0.8,0-1.5,0.4-2.1,1.2c2,1.5,3.5,2.2,4.5,2.2C138.9,27.8,139.8,27.6,140.8,27.4z"/>
				<path class="st5" d="M137.6,54.7c0,2.2-0.5,4.4-1.4,6.7H135c0-3.4-0.4-7.1-1.1-11c-1.2-6.3-1.8-10.3-1.8-12.1
					c0-1,0.4-2.1,1.1-3.1c0.3-0.4,1-1.3,2.3-2.6c0,2.3,0.3,6,1,10.9C137.2,48.7,137.6,52.4,137.6,54.7z"/>
				<path class="st4" d="M158.5,61.2c0,3.4-0.9,6.5-2.6,9.5c-2.1,3.6-4.7,5.3-8,5.3c-2,0-4.5-1-7.6-2.9l0.4-0.8
					c0.9,0.2,1.7,0.3,2.3,0.3c2.6,0,5.5-1.2,8.7-3.6c3.1-2.4,4.7-4.8,4.7-7.2c0-0.9-0.7-2.2-2-3.9c-1-1.2-1.9-2.3-2.9-3.5
					c0.6-2.7,1.1-4.9,1.4-6.4C156.6,51.8,158.5,56.2,158.5,61.2z"/>
				<path class="st4" d="M229.5,62.6h-4c-0.4,4.2-2.1,7.7-4.9,10.4c-3,2.8-6.7,4.2-11.1,4.2c-6.2,0-9.3-3.1-9.3-9.4
					c0-2.3,0.4-4.4,1.3-6.2c0.6-1.5,1.7-3.3,3.3-5.5l0.7,0.7c-2,3.1-3,5.5-3,7.3c0,2.2,0.9,3.9,2.7,5c1.6,1,3.5,1.5,5.9,1.5
					c8.4,0,12.6-2.6,12.6-7.9c-2.9,0-4.6-0.1-5.2-0.2c-2.1-0.4-3.1-1.4-3.1-3.1c0-1.1,0.5-2.9,1.5-5.3c1-2.5,1.8-4,2.5-4.5
					c0.5-0.4,1.2-0.7,2-0.7c1.3,0,2.3,1,3,3c0.2,0.6,0.6,2.1,1.1,4.5h4V62.6L229.5,62.6z M225.8,42l-2.3,3.7l-3.7-2.4l-1.8,3.1
					l-3.9-2.8l2.3-3.8l3.6,2.8l2.3-3.4L225.8,42z M223.1,56.2c-0.5-1.8-1.6-2.6-3.2-2.6c-0.8,0-1.3,0.4-1.3,1.1c0,1,1,1.6,2.9,1.6
					C221.5,56.2,223.1,56.2,223.1,56.2z"/>
				<path class="st4" d="M236.7,53.2c0,2.6-0.5,4.7-1.6,6.4c-1.3,2-3.1,3-5.7,3h-2.1v-6.2c4.4,0,6.5-0.5,6.5-1.4
					c0-0.2-0.4-0.7-1.1-1.5c-0.7-0.8-1.1-1.5-1.1-2c0-0.7,0.9-2.8,2.8-6.2C235.9,48.4,236.7,51,236.7,53.2z M239.2,67.4l-2.4,3.8
					l-3.7-2.4l-1.8,3.1l-4-2.8l2.5-3.7l3.5,2.7l2.2-3.4L239.2,67.4z"/>
				<path class="st4" d="M262.2,62.6h-4.3c-0.5,3.8-1.5,6.9-2.8,9.4c-1.9,3.6-4.5,5.4-7.7,5.4c-2.3,0-5.1-1.1-8.4-3.2l0.4-0.7
					c1.3,0.2,2.3,0.4,2.9,0.4c2.2,0,4.5-0.9,6.9-2.6c1-0.7,2.2-2.1,3.6-4.2c1-1.6,2-3.2,3.1-4.8c-1.8-0.6-3.2-2.1-4.2-4.4l3.5-4.9
					c0.8,1.6,1.7,2.6,2.6,3c0.6,0.2,2,0.4,4.3,0.4L262.2,62.6L262.2,62.6z"/>
				<path class="st4" d="M269.5,53.2c0,2.6-0.5,4.7-1.6,6.4c-1.3,2-3.1,3-5.7,3h-2.1v-6.2c4.4,0,6.5-0.5,6.5-1.4
					c0-0.2-0.4-0.7-1.1-1.5s-1.1-1.5-1.1-2c0-0.7,0.9-2.8,2.8-6.2C268.7,48.4,269.5,51,269.5,53.2z M269.4,67.4l-2.3,3.8l-3.8-2.7
					l2.4-3.8L269.4,67.4z"/>
				<path class="st5" d="M281,84.2c0,1.4-0.5,2.3-1.4,2.8l-8.6,4.7c0-0.9,0.1-1.5,0.3-1.8c0.2-0.3,0.8-0.8,1.6-1.2L281,84.2z"/>
				<path class="st5" d="M284.1,72.4c-0.2,0.8-0.4,1.4-0.7,1.7c-0.2,0.3-0.8,0.5-1.6,0.8l-8,2.2c0.5-0.9,0.9-1.5,1.3-1.8
					c0.4-0.3,1.1-0.6,2.1-0.9c-1.4-0.7-2.1-1.5-2.1-2.3c0-0.9,0.7-2,2.1-3.3c1.4-1.3,2.6-1.9,3.7-1.9s1.7,0.5,1.7,1.6
					c0,0.4-0.3,1.1-0.9,2.2c-1.1-0.6-2.1-1-2.8-1c-0.7,0-1.3,0.4-2,1.1c2,1.5,3.5,2.2,4.6,2.2C282.4,72.9,283.3,72.8,284.1,72.4z"/>
				<path class="st5" d="M280.1,54.7c0,2.2-0.5,4.4-1.4,6.7h-1.1c0-3.4-0.4-7.1-1.1-11c-1.2-6.3-1.8-10.3-1.8-12.1
					c0-1,0.4-2.1,1.1-3.1c0.3-0.4,1-1.3,2.3-2.6c0,2.3,0.3,6,1,10.9C279.8,48.7,280.1,52.4,280.1,54.7z"/>
				<path class="st4" d="M326.9,52.4c0,3.6-1.2,6.4-3.7,8.6s-5.6,3.3-9.4,3.3c-2.7,0-4.9-0.6-6.5-1.9c-1.9-1.4-2.8-3.3-2.8-5.8
					c0-3,1.2-6.8,3.5-11.4l0.8,0.5c-1.1,2.1-1.6,3.9-1.6,5.5c0,2.5,0.7,4.3,2.2,5.2c1.2,0.8,3.2,1.2,6,1.2c2,0,4-0.4,5.9-1.1
					c2.5-1,3.7-2.2,3.7-3.8c0-0.7-0.7-2.1-2-4.3c-1.1-1.9-2.1-3.3-2.8-4.2l2.3-5.6C325.4,42.4,326.9,47,326.9,52.4z M316.6,36.2
					l-2.3,3.7l-3.8-2.6l2.4-3.7L316.6,36.2z"/>
				<path class="st4" d="M348.4,54.4c0,2.4-0.5,4.2-1.5,5.4s-2.8,2-5.3,2.6c-1.9,0.4-3.9,0.7-6.2,0.7c-0.9,0-2.2-0.4-3.8-1.1
					l1.3-7.1c1.3,0.6,2.2,1,2.7,1c7.1,0,10.7-0.8,10.7-2.5c0-1.4-3.2-3.7-9.7-6.8l2.3-6.8C345.2,43.5,348.4,48.4,348.4,54.4z
					 M341.4,33.7l-2.3,3.8l-3.8-2.7l2.3-3.8L341.4,33.7z"/>
				<path class="st5" d="M362.7,8.6l-0.3,2.8c-0.5-0.3-1.3-0.8-2.3-1.4c-2.3,2.7-4.2,4-5.9,4c-0.4,0-1-0.1-1.8-0.3
					c1.8-1,3.9-2.4,6.3-4.4c-1.2-1-1.8-1.8-1.8-2.6c0-1,0.4-2,1.1-3.1s1.6-1.7,2.5-1.7c1.3,0,1.9,0.8,1.9,2.5c0,1.2-0.3,2.3-0.9,3.4
					C362,8.1,362.4,8.5,362.7,8.6z M360.7,6.2c0-0.4-0.2-0.8-0.5-1.2c-0.3-0.4-0.7-0.6-1-0.6c-0.4,0-0.6,0.3-0.6,0.8
					c0,0.4,0.7,1,2,1.9C360.7,6.5,360.7,6.3,360.7,6.2z"/>
				<path class="st5" d="M362.3,27.4c-0.2,0.8-0.4,1.3-0.7,1.6c-0.3,0.3-0.8,0.5-1.6,0.7l-8,2.3c0.7-1.4,1.7-2.2,3.2-2.6
					c-1.4-1-2.1-1.8-2.1-2.4c0-0.9,0.7-2,2.2-3.3c1.4-1.3,2.7-2,3.6-2c1.1,0,1.7,0.5,1.7,1.6c0,0.4-0.3,1.2-0.8,2.3
					c-1.1-0.7-2-1.1-2.7-1.1c-0.8,0-1.5,0.4-2.1,1.2c2,1.5,3.5,2.2,4.5,2.2C360.5,27.8,361.4,27.6,362.3,27.4z"/>
				<path class="st5" d="M359.1,54.7c0,2.2-0.5,4.4-1.4,6.7h-1.1c0-3.4-0.4-7.1-1.1-11c-1.2-6.3-1.8-10.3-1.8-12.1
					c0-1,0.4-2.1,1.1-3.1c0.3-0.4,1-1.3,2.3-2.6c0,2.3,0.3,6,1,10.9C358.8,48.7,359.1,52.4,359.1,54.7z"/>
				<path class="st4" d="M426.3,32c0,1.2-0.4,2.3-1.3,3.2c-0.9,0.9-1.9,1.4-3.2,1.4c-2.1,0-3.1-1.1-3.1-3.4c0-1.4,0.3-2.6,0.9-3.6
					c0.8-1.2,1.8-1.7,3.2-1.7c1,0,1.9,0.4,2.6,1.3C425.9,30,426.3,31,426.3,32z M424.6,32.7c0-0.5-0.4-1-1.3-1.6
					c-0.8-0.6-1.5-0.9-2.1-0.9c-0.5,0-0.9,0.2-1.2,0.6c-0.4,0.4-0.5,0.8-0.5,1.3c0,1.1,0.9,1.7,2.6,1.7
					C423.8,33.8,424.6,33.3,424.6,32.7z"/>
				<path class="st4" d="M446.5,62.6h-4.2c-2.2,0-3.6-1-4.1-2.9c-5.2,3.4-11.6,5.2-19.2,5.2c-4.2,0-7.7-0.7-10.5-2.1
					c-3.5-1.8-5.2-4.5-5.2-8.1c0-2.3,0.9-5.2,2.8-8.9l0.8,0.4c-0.8,1.8-1.1,3.4-1.1,4.9c0,2.7,1.8,4.7,5.4,5.9
					c2.5,0.9,5.5,1.3,8.9,1.3c6.4,0,11.1-0.5,14.2-1.6c1-0.3,1.5-0.5,1.6-0.5c0.7-0.3,1.1-0.7,1.3-1c0.2-0.4,0.2-1.1,0.2-2.1h0.6
					c0.6,2.3,2.4,3.4,5.4,3.4c0.4,0,0.9,0,1.6-0.1c0.7,0,1.2,0,1.6,0L446.5,62.6L446.5,62.6z M426.4,71.2l-2.3,3.8l-3.8-2.8l2.4-3.7
					L426.4,71.2z"/>
				<path class="st4" d="M455,22.1c0,1.4-0.5,2.4-1.4,3l-8.6,4.6c0-0.8,0.1-1.4,0.4-1.8c0.3-0.4,0.8-0.8,1.6-1.2L455,22.1z"/>
				<path class="st4" d="M453.7,53.2c0,2.6-0.5,4.7-1.6,6.4c-1.3,2-3.1,3-5.7,3h-2.1v-6.2c4.4,0,6.5-0.5,6.5-1.4
					c0-0.2-0.4-0.7-1.1-1.5s-1.1-1.5-1.1-2c0-0.7,0.9-2.8,2.8-6.2C453,48.4,453.7,51,453.7,53.2z M452.9,39.7l-2.1,3.7l-3.8-2.7
					l2.2-3.7L452.9,39.7z"/>
				<path class="st4" d="M469.6,33.5c0,1.2-0.4,2.3-1.3,3.2c-0.9,0.9-1.9,1.4-3.2,1.4c-2.1,0-3.1-1.1-3.1-3.4c0-1.4,0.3-2.6,0.9-3.6
					c0.8-1.2,1.8-1.7,3.2-1.7c1,0,1.9,0.4,2.5,1.3C469.3,31.5,469.6,32.5,469.6,33.5z M468,34.2c0-0.5-0.4-1-1.3-1.6
					c-0.8-0.6-1.5-0.9-2.1-0.9c-0.5,0-0.9,0.2-1.2,0.6c-0.4,0.4-0.5,0.8-0.5,1.3c0,1.1,0.9,1.7,2.6,1.7C467.2,35.3,468,35,468,34.2z
					"/>
				<path class="st4" d="M474,61.2c0,3.4-0.9,6.5-2.6,9.5c-2.1,3.6-4.7,5.3-8,5.3c-2,0-4.5-1-7.6-2.9l0.4-0.8
					c0.9,0.2,1.7,0.3,2.3,0.3c2.6,0,5.5-1.2,8.7-3.6c3.1-2.4,4.7-4.8,4.7-7.2c0-0.9-0.7-2.2-2-3.9c-1-1.2-1.9-2.3-2.9-3.5
					c0.6-2.7,1.1-4.9,1.4-6.4C472.1,51.8,474,56.2,474,61.2z"/>
				<path class="st5" d="M488,6.3c0,1.4-0.5,2.4-1.4,3L478,14c0-0.8,0.1-1.4,0.4-1.8c0.3-0.4,0.8-0.8,1.6-1.2L488,6.3z"/>
				<path class="st5" d="M487.8,27.4c-0.2,0.8-0.4,1.3-0.7,1.6c-0.3,0.3-0.8,0.5-1.6,0.7l-8,2.3c0.7-1.4,1.7-2.2,3.2-2.6
					c-1.4-1-2.1-1.8-2.1-2.4c0-0.9,0.7-2,2.2-3.3c1.4-1.3,2.7-2,3.6-2c1.1,0,1.7,0.5,1.7,1.6c0,0.4-0.3,1.2-0.8,2.3
					c-1.1-0.7-2-1.1-2.7-1.1c-0.8,0-1.5,0.4-2.1,1.2c2,1.5,3.5,2.2,4.5,2.2C486,27.8,486.9,27.6,487.8,27.4z"/>
				<path class="st5" d="M484.6,54.7c0,2.2-0.5,4.4-1.4,6.7h-1.1c0-3.4-0.4-7.1-1.1-11c-1.2-6.3-1.8-10.3-1.8-12.1
					c0-1,0.4-2.1,1.1-3.1c0.3-0.4,1-1.3,2.3-2.6c0,2.3,0.3,6,1,10.9C484.3,48.7,484.6,52.4,484.6,54.7z"/>
			</g>
		</g>
	</g>
</g>
<path class="st4" d="M29.5,0c0,2-0.6,3.3-1.8,4.1l-11,6.3c0-1.1,0.2-2,0.5-2.5s1-1,2-1.6L29.5,0z"/>
<g>
	<path class="st4" d="M31.5,12.6c0,4.4-1.4,6.6-4.2,6.6c-0.6,0-1.5-0.3-2.5-0.8c-1,2.3-2.5,3.5-4.3,3.5c-2.1,0-3.1-1.5-3.1-4.6
		c0-0.7,0.3-2,0.9-3.8l0.8-0.2c0,3,0.5,4.5,1.6,4.5s2-0.8,2.7-2.5c0.6-1.4,0.8-2.7,0.8-4L25,11c0.6,2.7,1.4,4,2.5,4
		c1.5,0,2.4-2,2.6-5.9l0.8-0.4C31.3,9.9,31.5,11.3,31.5,12.6z"/>
</g>
</svg>
