<?xml version="1.0" encoding="utf-8"?>
<!-- Generator: Adobe Illustrator 19.2.0, SVG Export Plug-In . SVG Version: 6.00 Build 0)  -->
<svg version="1.1" id="Layer_1" xmlns="http://www.w3.org/2000/svg" xmlns:xlink="http://www.w3.org/1999/xlink" x="0px" y="0px"
	 viewBox="0 0 29.5 39.9" style="enable-background:new 0 0 29.5 39.9;" xml:space="preserve">
<style type="text/css">
	.st0{opacity:0.3;}
	.st1{fill:#010101;}
	.st2{fill:#FBDB5C;}
</style>
<g>
	<g class="st0">
		<path class="st1" d="M0,37.3c0,1,0.5,1.9,1.4,2.3c0.9,0.5,1.9,0.4,2.7-0.1l24.2-16.4c0.7-0.5,1.2-1.3,1.2-2.2
			c0-0.9-0.4-1.7-1.2-2.2L4.1,2.3C3.3,1.8,2.3,1.7,1.4,2.2C0.5,2.6,0,3.5,0,4.5V37.3z"/>
	</g>
	<g>
		<g>
			<g>
				<path class="st2" d="M0,35.5c0,1,0.5,1.9,1.4,2.3c0.9,0.5,1.9,0.4,2.7-0.1l24.2-16.4c0.7-0.5,1.2-1.3,1.2-2.2
					c0-0.9-0.4-1.7-1.2-2.2L4.1,0.5C3.3-0.1,2.3-0.1,1.4,0.3C0.5,0.8,0,1.7,0,2.6V35.5z"/>
			</g>
		</g>
	</g>
</g>
</svg>
