<?xml version="1.0" encoding="utf-8"?>
<!-- Generator: Adobe Illustrator 22.0.1, SVG Export Plug-In . SVG Version: 6.00 Build 0)  -->
<svg version="1.1" id="Layer_1" xmlns="http://www.w3.org/2000/svg" xmlns:xlink="http://www.w3.org/1999/xlink" x="0px" y="0px"
	 viewBox="0 0 117.6 74.1" style="enable-background:new 0 0 117.6 74.1;" xml:space="preserve">
<style type="text/css">
	.st0{fill:#235958;}
	.st1{fill:#EF5316;}
</style>
<g>
	<path class="st0" d="M38.1,45.5c0,4.7-2.7,8.7-8,12c-5.4,3.3-11.9,5-19.5,5c-2.4,0-4.5-1-6.4-2.9c-0.1-0.1-1.5-2-4.3-5.9
		c2,0.4,3.8,0.6,5.4,0.6c1.5,0,4-0.2,7.6-0.5c0.8-2.1,1.1-4,1.1-5.5c0-2.7-0.6-6.8-1.6-12.2c-1.1-5.4-1.6-9.5-1.6-12.2l-1-1.6
		c0.7-3.2,1.9-5.2,3.7-6c0.1,1.9,0.8,3.5,2.2,4.9s3.1,1.9,4.9,1.6l-3.5,6.1l-1.2-0.6c-0.2,0.6-0.2,1.2-0.2,1.8
		c0,1.1,0.2,2.9,0.6,5.5c0.4,2.6,0.6,4.7,0.6,6.2c0,2.5-0.3,5.1-0.9,8C21.6,41.9,26.5,38,30.6,38c2.3,0,4.1,0.7,5.4,2.1
		C37.4,41.5,38.1,43.3,38.1,45.5z M34.4,49c0-0.9-0.6-1.7-1.8-2.3c-1-0.4-2-0.6-3-0.6c-4,0-8.2,2.5-12.5,7.6c2.6,0,5.8-0.4,9.6-1.1
		C31.9,51.6,34.4,50.4,34.4,49z"/>
	<path class="st0" d="M57.8,62.5H54c-2.5,0-4.4-1.1-5.5-3.2c-1-1.7-1.6-4.9-1.8-9.7c-0.1-2-0.4-5.4-1-10.1c-0.6-4.3-1-7.6-1-10.1
		c0-0.8,0-1.3,0.1-1.7c0.1-0.4,1.4-1.7,4-3.9c0,0.2,0.3,4.5,1,12.9c0.6,7.5,0.9,11.5,0.9,12.1c0,1.8,0.3,3.2,0.9,4
		c0.6,0.9,1.8,1.3,3.6,1.3h2.5L57.8,62.5L57.8,62.5z"/>
	<path class="st0" d="M73.7,62.5H70c-2.5,0-4.3-1.5-5.4-4.6c-1.5,3.1-3.2,4.6-5.2,4.6h-2.7v-8.4h3.1c2,0,3.3-0.3,3.9-1
		c0.2-0.2,0.2-1.4,0.2-3.8l0.5,0.1c0.4,3.1,2.8,4.7,7.1,4.7h2.2L73.7,62.5L73.7,62.5z M69.3,69l-3,5.1l-4.9-3.6l3.1-5L69.3,69z"/>
	<path class="st1" d="M103.7,9l-0.3,3.7c-0.6-0.4-1.6-1-3-1.9c-2.9,3.6-5.4,5.4-7.5,5.4c-0.5,0-1.2-0.1-2.3-0.4c2.4-1.3,5-3.2,8-5.9
		c-1.6-1.3-2.3-2.4-2.3-3.5c0-1.3,0.5-2.7,1.4-4.2s2-2.3,3.2-2.3c1.6,0,2.4,1.1,2.4,3.3c0,1.6-0.4,3.1-1.1,4.5
		C102.8,8.3,103.2,8.7,103.7,9z M101.1,5.6c0-0.5-0.2-1-0.6-1.6s-0.8-0.8-1.3-0.8s-0.8,0.3-0.8,1c0,0.5,0.9,1.3,2.6,2.6
		C101,6.2,101.1,5.8,101.1,5.6z"/>
	<path class="st1" d="M87.9,62.5h-0.6c-3.4,0-5.6-1.6-6.8-4.7c-1.4,3.1-3.1,4.7-5.2,4.7h-2.7v-8.4c4,0,6.4-0.3,7.2-1
		c0.3-0.3,0.5-1.4,0.6-3.5h0.4c0.6,1.7,1.5,2.9,2.7,3.5c0.9,0.4,2.4,0.6,4.4,0.6V62.5L87.9,62.5z"/>
	<path class="st1" d="M117.6,45.9c0,5.1-3.2,9.3-9.7,12.5c-4.8,2.4-10.3,3.8-16.3,4.2c-0.1,0.5-0.5,1.3-1.1,2.3
		c-0.8,1.2-1.3,1.8-1.7,1.8c-0.5,0-0.8-0.3-0.8-0.9c0-0.1,0.5-1.2,1.4-3.3h-2v-8.8c3.2,0,5.1,0,5.8-0.1c2-3.3,4.5-6.6,7.6-9.8
		c4-4.2,7.3-6.4,10-6.4c2,0,3.7,0.9,5,2.7S117.6,43.8,117.6,45.9z M99,33.9l-3,5l-4.8-3.7l3-5L99,33.9z M114.1,48.7
		c0-1.7-1.6-2.5-4.7-2.5c-2.8,0-7.2,2.5-13.1,7.4c2.8,0,6.1-0.4,10-1.1C111.5,51.5,114.1,50.2,114.1,48.7z"/>
</g>
<g>
	<path class="st0" d="M72.1,26.8c0,4.2-1.3,6.3-3.9,6.3c-0.6,0-1.4-0.3-2.4-0.8c-1,2.2-2.3,3.3-4.1,3.3c-2,0-3-1.5-3-4.4
		c0-0.7,0.3-1.9,0.9-3.6l0.8-0.2c0,2.8,0.5,4.3,1.5,4.3s1.9-0.8,2.6-2.4c0.5-1.3,0.8-2.6,0.8-3.8l0.7-0.2c0.6,2.5,1.4,3.8,2.3,3.8
		c1.5,0,2.3-1.9,2.5-5.6l0.7-0.4C71.9,24.2,72.1,25.5,72.1,26.8z"/>
</g>
</svg>
