<?xml version="1.0" encoding="utf-8"?>
<!-- Generator: Adobe Illustrator 22.0.1, SVG Export Plug-In . SVG Version: 6.00 Build 0)  -->
<svg version="1.1" id="Layer_1" xmlns="http://www.w3.org/2000/svg" xmlns:xlink="http://www.w3.org/1999/xlink" x="0px" y="0px"
	 viewBox="0 0 86.2 86.2" style="enable-background:new 0 0 86.2 86.2;" xml:space="preserve">
<style type="text/css">
	.st0{fill:#235958;}
</style>
<g>
	<path class="st0" d="M67.8,40c0,1.3-0.3,3.2-1,5.7c-0.6,2.7-1.3,4.5-1.9,5.4c-1.7,2.5-6,4.5-13.1,6.1c-5.6,1.2-10.7,1.9-15.2,1.9
		c-4.8,0-8.8-0.8-11.9-2.3c-4.2-2-6.3-5.1-6.3-9.3c0-1.9,0.5-3.9,1.4-5.8c0.5-1,1.5-2.7,3.1-5.1l0.8,0.6c-1,1.9-1.5,3.7-1.5,5.6
		c0,5,5.1,7.5,15.2,7.5c6.7,0,12.6-0.6,17.9-1.9c6.3-1.5,9.5-3.2,9.5-5.2c0-0.5-0.5-1.3-1.4-2.3c-0.6-0.7-1.3-1.4-1.9-2.2
		c1.3-3.3,2.2-6.1,2.8-8.5C66.7,33.3,67.8,36.6,67.8,40z M49.3,66.8l-3,4.9L41.4,68l3-5L49.3,66.8z"/>
</g>
</svg>
