<?xml version="1.0" encoding="utf-8"?>
<!-- Generator: Adobe Illustrator 22.0.1, SVG Export Plug-In . SVG Version: 6.00 Build 0)  -->
<svg version="1.1" id="Layer_1" xmlns="http://www.w3.org/2000/svg" xmlns:xlink="http://www.w3.org/1999/xlink" x="0px" y="0px"
	 viewBox="0 0 120.3 81.1" style="enable-background:new 0 0 120.3 81.1;" xml:space="preserve">
<style type="text/css">
	.st0{fill:#235958;}
	.st1{fill:#EF5316;}
</style>
<g>
	<path class="st0" d="M55.1,41h-4.7c-4.1,0-7.1-0.9-9-2.8c-9.4,5.5-18.3,8.2-26.7,8.2c-4,0-7.4-0.8-10.1-2.5c-3-2-4.6-4.9-4.6-8.7
		c0-3.9,2-8.2,5.9-13.1L7,22.9c-1.8,2.6-2.7,4.7-2.7,6.2c0,3.1,2,5.3,5.9,6.8c2.8,1,6,1.5,9.7,1.5c5.1,0,10.1-0.9,15-2.7
		c-0.7-1.1-1-2-1-2.7c0-2.4,1.3-5.8,4-10.5c2.8-4.9,5.2-7.3,7.3-7.3c1.6,0,2.8,1.4,3.9,4.1c0.8,2.1,1.1,4.1,1.1,6
		c0,2.8-0.8,5.3-2.5,7.5c1.5,0.5,3.4,0.8,5.6,0.8h1.8V41L55.1,41z M46.2,3.7l-3,5L38.3,5l3.1-5L46.2,3.7z M47.5,25.7
		c0-0.7-0.5-1.5-1.4-2.4s-1.7-1.4-2.4-1.4c-1,0-2.1,0.5-3.3,1.5s-1.8,2-1.8,2.9c0,1.4,1.6,2.7,4.7,3.9C46,28.5,47.5,27,47.5,25.7z"
		/>
	<path class="st0" d="M71,41h-3.7c-2.5,0-4.3-1.5-5.4-4.6c-1.5,3.1-3.2,4.6-5.2,4.6H54v-8.4h3.1c2,0,3.3-0.3,3.9-1
		c0.2-0.2,0.2-1.4,0.2-3.8l0.5,0.1c0.4,3.1,2.9,4.7,7.3,4.7h2V41L71,41z M69.9,47.5l-3,5.1l-4.7-3.2L60,53.6l-5-3.8l2.9-5l4.5,3.6
		l2.8-4.5L69.9,47.5z"/>
	<path class="st0" d="M98.6,23.5c-0.4,4.2-1.1,6.7-2.1,7.6c-0.8,0.8-4.7,2.6-11.7,5.5c-7,2.9-11,4.4-12.1,4.4H70v-8.4h2.9
		c1.7,0,3-0.5,3.9-1.4c-2.5-2-3.7-3.7-3.7-4.9c0-2.5,1.5-5.6,4.5-9.3s5.7-5.6,8.2-5.6c2.6,0,5.5,2.7,8.8,8c-2-0.8-3.7-1.2-5.1-1.2
		c-2,0-4.1,0.2-6.3,0.7c-3.2,0.8-4.7,1.8-4.7,3.1c0,1,1,2.2,3.1,3.5c2,1.3,3.6,2,4.8,2C88.7,27.6,92.8,26.2,98.6,23.5z M85.6,3.7
		l-2.8,5l-4.9-3.6l3-5.1L85.6,3.7z"/>
	<path class="st1" d="M115.1,6.3c0,1.8-0.6,3.1-1.9,3.8l-10.9,6.3c0-1.2,0.1-2,0.4-2.4c0.3-0.5,1-1,2.1-1.6L115.1,6.3z"/>
	<path class="st1" d="M120.3,39.1c0,4.5-1.1,8.7-3.3,12.7c-2.6,4.8-6,7.2-10.2,7.2c-2.5,0-5.7-1.3-9.7-3.9l0.5-1
		c1.2,0.3,2.1,0.4,2.9,0.4c3.4,0,7.1-1.6,11.1-4.9c4-3.2,6-6.5,6-9.7c0-1.2-0.8-2.9-2.5-5.2c-1.2-1.6-2.5-3.1-3.7-4.7
		c0.8-3.6,1.4-6.5,1.8-8.6C118,26.5,120.3,32.4,120.3,39.1z"/>
</g>
</svg>
