<?xml version="1.0" encoding="utf-8"?>
<!-- Generator: Adobe Illustrator 22.0.1, SVG Export Plug-In . SVG Version: 6.00 Build 0)  -->
<svg version="1.1" id="Layer_1" xmlns="http://www.w3.org/2000/svg" xmlns:xlink="http://www.w3.org/1999/xlink" x="0px" y="0px"
	 viewBox="0 0 86.2 86.2" style="enable-background:new 0 0 86.2 86.2;" xml:space="preserve">
<style type="text/css">
	.st0{fill:#235958;}
</style>
<g>
	<path class="st0" d="M58.5,18.2l-3.7,6.4L54,24.3c0.1,1.8,0.3,3.7,0.6,5.8c1.3,9.9,1.9,18,1.9,24.1c0,5.6-1.6,9.9-4.8,13
		c-3.2,3-7.7,4.6-13.3,4.6c-4,0-7.3-0.8-9.7-2.5c-2.9-1.9-4.4-4.8-4.4-8.6c0-5.2,2.3-10.9,7-17l0.9,0.9c-1.4,2.2-2.2,3.7-2.6,4.4
		c-0.8,1.6-1.2,3.2-1.2,5c0,2.7,1.3,4.7,3.9,6.1c2.1,1.2,4.6,1.8,7.4,1.8c2.2,0,4.6-0.4,7.3-1.2c3.3-1,5.3-2.2,6.2-3.6
		c0.4-0.7,0.7-1.9,0.7-3.5c0-5.6-0.5-11.1-1.6-16.4c-1.1-3.8-2.5-9.7-4.3-17.4L47,18c0.8-3.4,2.1-5.5,3.8-6.4c0.1,2,0.9,3.8,2.4,5.2
		C54.8,18,56.5,18.6,58.5,18.2z"/>
</g>
<g>
	<path class="st0" d="M38.8,22.8c0,1.9-0.6,3.3-1.8,4L26,33c0-1.1,0.2-1.9,0.5-2.4s1-1,2-1.6L38.8,22.8z"/>
</g>
</svg>
