<?xml version="1.0" encoding="utf-8"?>
<!-- Generator: Adobe Illustrator 22.0.1, SVG Export Plug-In . SVG Version: 6.00 Build 0)  -->
<svg version="1.1" id="Layer_1" xmlns="http://www.w3.org/2000/svg" xmlns:xlink="http://www.w3.org/1999/xlink" x="0px" y="0px"
	 viewBox="0 0 69.1 84.1" style="enable-background:new 0 0 69.1 84.1;" xml:space="preserve">
<style type="text/css">
	.st0{fill:#235958;}
	.st1{fill:#EF5316;}
</style>
<g>
	<path class="st0" d="M37.3,44.1h-3.7c-3.2,0-5.4-3.3-6.8-10.1c0,1.8,0.2,4.4,0.5,7.8c0.3,3.4,0.5,6,0.5,7.8c0,5.2-1.4,9.2-4.3,12.1
		c-2.8,2.8-6.9,4.3-12.1,4.3c-3.4,0-6.2-0.9-8.2-2.7C1.1,61.5,0,58.9,0,55.5c0-4.5,1.7-9.6,5-15.4l1.1,0.6c-2,3.8-3.1,6.9-3.1,9.2
		c0,4.5,3.3,6.7,9.8,6.7c8.4,0,12.6-2.5,12.6-7.5c0-2.1-0.2-4.6-0.6-7.6c-0.4-2.6-0.7-5.1-1-7.7c-0.2-1.3-0.3-3.7-0.5-7.2
		C22.9,14.9,22.6,9.4,22.6,10c0-1.7,0.4-3.4,1.2-5c0.3-0.6,1.3-2.1,2.8-4.4c0.2,5.9,0.5,11.8,0.7,17.6c0.6,8.9,1.7,14.3,3.3,16.1
		c0.8,1,2.1,1.4,3.9,1.4h2.7L37.3,44.1L37.3,44.1z"/>
	<path class="st0" d="M53.2,44.1h-3.7c-2.5,0-4.3-1.5-5.4-4.6c-1.5,3.1-3.2,4.6-5.2,4.6h-2.7v-8.4h3.1c2,0,3.3-0.3,3.9-1
		c0.2-0.2,0.2-1.4,0.2-3.8L44,31c0.4,3.1,2.9,4.7,7.3,4.7h1.9V44.1L53.2,44.1z M52.1,50.6l-3,5.1l-4.7-3.2l-2.3,4.2l-5-3.8l2.9-5
		l4.5,3.6l2.8-4.5L52.1,50.6z"/>
	<path class="st1" d="M69.1,31c0,8.7-4.7,13.1-14.2,13.1h-2.7v-8.4h3.6c7.1,0,10.6-1.3,10.6-3.9c0-0.6-0.5-2.1-1.6-4.5
		c-0.8,1.7-1.5,2.9-2.3,3.5c-0.9,0.8-2.2,1.2-3.9,1.2c-3.1,0-4.6-1.4-4.6-4.2c0-0.6,0.2-1.8,0.5-3.6c1.5-8.8,3.8-13.3,6.8-13.3
		c2.5,0,4.5,2.8,6,8.4C68.5,23.4,69.1,27.3,69.1,31z M63.7,3.7l-2.8,5L56,5l3-5L63.7,3.7z M62,21.8c-1-1.6-2-2.4-3-2.4
		c-1.1,0-1.6,0.7-1.6,2c0,1.6,0.7,2.4,2.1,2.4C60.4,23.8,61.2,23.1,62,21.8z"/>
</g>
<path class="st1" d="M65.6,54.8c0,1.4-0.5,2.3-1.4,2.8l-8.6,4.7c0-0.9,0.1-1.5,0.3-1.8s0.8-0.8,1.6-1.2L65.6,54.8z"/>
</svg>
