<?xml version="1.0" encoding="utf-8"?>
<!-- Generator: Adobe Illustrator 22.0.1, SVG Export Plug-In . SVG Version: 6.00 Build 0)  -->
<svg version="1.1" id="Layer_1" xmlns="http://www.w3.org/2000/svg" xmlns:xlink="http://www.w3.org/1999/xlink" x="0px" y="0px"
	 viewBox="0 0 86.2 86.2" style="enable-background:new 0 0 86.2 86.2;" xml:space="preserve">
<style type="text/css">
	.st0{fill:#235958;}
</style>
<g>
	<path class="st0" d="M37.4,19.6c0,1.7-0.6,3.2-1.7,4.5c-1.2,1.3-2.6,1.9-4.4,1.9c-2.8,0-4.2-1.6-4.2-4.7c0-2,0.4-3.7,1.2-5.1
		c1-1.6,2.5-2.5,4.3-2.5c1.4,0,2.5,0.6,3.4,1.9C37,16.9,37.4,18.2,37.4,19.6z M35.2,20.6c0-0.7-0.6-1.4-1.7-2.2
		c-1.1-0.8-2.1-1.2-2.8-1.2c-0.6,0-1.2,0.3-1.7,0.9s-0.7,1.2-0.7,1.8c0,1.6,1.2,2.4,3.5,2.4C34.1,22.2,35.2,21.7,35.2,20.6z"/>
</g>
<g>
	<polygon class="st0" points="45.6,29.4 40.6,25.5 37.4,30.9 42.6,34.8 	"/>
	<polygon class="st0" points="43.4,39.3 48.3,42.8 51.2,37.5 46.3,33.6 43.4,38.3 38.7,34.5 35.6,39.8 40.9,43.7 	"/>
	<path class="st0" d="M52.9,51h-1.1H51c-4.7,0-7.3-1.6-7.8-4.9L42.7,46c0,2.5-0.1,3.8-0.3,4c-0.6,0.7-2.2,1-4.7,1h-0.5H35H22v8.8h13
		h2.2h0.6c2.1,0,3.9-1.6,5.5-4.8c1.2,3.2,3.1,4.8,5.7,4.8h2.8h1.1H67V51H52.9z"/>
</g>
</svg>
