<?xml version="1.0" encoding="utf-8"?>
<!-- Generator: Adobe Illustrator 19.2.0, SVG Export Plug-In . SVG Version: 6.00 Build 0)  -->
<svg version="1.1" id="Layer_1" xmlns="http://www.w3.org/2000/svg" xmlns:xlink="http://www.w3.org/1999/xlink" x="0px" y="0px"
	 viewBox="0 0 651.3 90.7" style="enable-background:new 0 0 651.3 90.7;" xml:space="preserve">
<style type="text/css">
	.st0{fill:#FFFFFF;}
	.st1{fill:#F7931E;}
</style>
<g>
	<path class="st0" d="M6.7,12.9c0,0.5-0.1,1-0.3,1.5c0.2,0.1,0.4,0.3,0.4,0.4c0,0.4-0.2,0.7-0.3,1c-0.1,0.1-0.1,0.1-0.1,0.1
		l-0.5-0.3c-0.5,0.8-1.3,1.8-2.5,2.3c-0.4,0.2-0.9,0.4-1.5,0.4c-0.3,0-0.4-0.1-0.4-0.1c0-0.1,0.2-0.2,0.6-0.4
		c0.9-0.5,2.5-1.8,3.1-2.5c-0.5-0.3-1.1-0.7-1.1-1.4c0-0.4,0.2-0.9,0.6-1.3c0.4-0.5,0.8-0.8,1.2-0.8C6.5,11.7,6.7,12.4,6.7,12.9z
		 M4.9,13.4C4.9,13.4,4.9,13.4,4.9,13.4c0,0.2,0.4,0.5,0.8,0.7c0.1-0.2,0.1-0.4,0.1-0.7c0-0.3-0.1-0.4-0.3-0.4
		C5.3,12.9,5.1,13.1,4.9,13.4z"/>
	<path class="st0" d="M9.8,25.2c0.7,0,1,0.4,1,1.1c0,0.8-0.3,1.2-1,1.2H9.4c-0.8,0-1.5-0.2-2.1-0.5c-0.5-0.3-1.2-0.9-2.1-1.8
		c-4,2.4-4.3,4.9-4.3,6.5c0,2.8,2,6,9.4,6c1,0,2.1-0.1,3.2-0.2c0.3,0,0.6-0.1,0.7-0.1c0.2,0,0.2,0.1,0.2,0.1c0,0.2-0.7,0.6-1,0.8
		c-1.5,0.7-3.6,1.4-6.2,1.4c-5.2,0-7.2-3.5-7.2-6.8C0,29,1.3,26.3,4.1,24c-0.5-0.7-1.7-1-2.3-1.1c-0.1,0-0.1-0.2-0.1-0.4
		c0-0.5,0.2-1.4,0.5-1.6c0.9-0.7,2-1,3-1c1.1,0,2.1,0.4,2.6,1C8,21,8.1,21.3,8.1,21.6c0,0.7-0.4,1.7-1.3,2.3
		c0.8,0.8,1.7,1.2,2.7,1.2H9.8z"/>
	<path class="st0" d="M14.3,23.8c0,0.6,0.6,1.2,1.4,1.4c0.2,0,0.3,0,0.5,0h0.1c0.9,0,0.9,0.7,0.9,1c0,0.3,0,1.3-0.8,1.3h-0.2
		c-0.2,0-0.3,0-0.6,0c-1.5-0.2-2.1-1.5-2.2-1.7c-0.2,0.6-1.5,1.7-3.7,1.7H9.6c-0.6,0-1-0.6-1-1.1s0.3-1.1,1-1.1h0.7
		c1,0,2.4-0.2,3.3-1.6c0.3-0.5,0.4-0.5,0.5-0.5C14.2,23.1,14.3,23.3,14.3,23.8z M14.2,30.5c0.2-0.2,0.2-0.2,0.3-0.1
		c0.5,0.5,1,1.1,1.5,1.4c0.2,0.1,0.2,0.2,0,0.3c-0.5,0.5-0.9,1-1.3,1.5c-0.1,0.1-0.2,0.1-0.3,0c-0.4-0.3-0.9-0.7-1.4-1.2
		c-0.3,0.3-0.9,1-1.1,1.2c-0.1,0.1-0.2,0.2-0.4,0c-0.5-0.3-1.1-0.9-1.5-1.4c-0.1-0.1-0.1-0.2,0-0.3c0.4-0.5,0.9-1,1.4-1.5
		c0.1-0.1,0.2-0.1,0.3,0.1c0.4,0.4,1,1,1.4,1.2C13.4,31.4,13.9,30.8,14.2,30.5z"/>
	<path class="st0" d="M29.9,13.1c0.1-0.1,0.1,0,0.1,0.1c0,0.6-0.2,1.1-0.5,1.3l-4.1,2.3c-0.1,0-0.1,0-0.1-0.1c0-0.3,0.1-0.8,0.2-1
		c0.1-0.2,0.3-0.3,0.7-0.5L29.9,13.1z"/>
	<path class="st0" d="M29.9,27.9c0.1,0.1,0.1,0.1,0,0.2c-0.2,0.3-1.1,1.2-1.4,1.7c-0.1,0.1-0.1,0.1-0.2,0c-0.5-0.3-1.5-1-1.7-1.4
		c-0.1-0.1-0.1-0.1,0-0.2c0.3-0.5,0.9-1.2,1.3-1.6c0.2-0.2,0.2-0.2,0.3-0.1C28.5,26.9,29.2,27.5,29.9,27.9z"/>
	<path class="st0" d="M21.4,20.3c-0.4,0.1-0.5,0.1-0.6,0.1c-0.1,0-0.2-0.1-0.2-0.2c0-0.1,0-0.2,0.1-0.3c0.3-0.5,0.7-1.1,1.4-1.5
		c0.4-0.3,0.8-0.4,1.2-0.4c0.3,0,0.6,0,1.1,0.2c1.5,0.7,3.7,2,5.5,2.7c1.5,0.5,3,0.9,3.8,1c0.1,0,0.1,0,0.1,0.1
		c0,0.2-0.2,0.5-0.5,0.9c-0.2,0.2-0.4,0.4-0.6,0.7c-0.2,0.2-0.3,0.3-0.4,0.3h0c-1.6-0.5-3-0.7-4.3-0.8c-0.3,0-0.6,0-0.9,0
		c-1,0-2.1,0-3.4,0.2c0.3,0.3,0.5,0.8,0.5,1.7c0,0.4-0.2,0.9-0.5,1.5c-0.4,0.6-0.7,0.9-1.1,0.9c-0.5,0-1-0.2-1.6-0.5
		c-0.6-0.3-1.1-0.7-1.5-1.3c-0.6,1.2-1.5,1.8-2.8,1.8h-0.3c-0.6,0-0.9-0.4-0.9-1.2c0-0.7,0.3-1.1,0.9-1.1h0.3c1,0,1.7-0.1,2.2-0.4
		c0.5-0.3,0.9-0.6,1.2-1.1c0.3-0.5,0.6-0.9,0.9-1.2c0.3-0.3,1-0.5,2-0.7c0.7-0.1,1.4-0.2,2.1-0.2c0.4,0,0.9,0,1.3,0.1
		c-1.4-0.8-2.4-1.2-3-1.3c-0.4-0.1-0.7-0.1-1-0.1C21.9,20.3,21.7,20.3,21.4,20.3z M21.5,24.8c0.5,0.3,0.9,0.4,1.2,0.4
		c-0.1-0.5-0.2-0.8-0.5-1.1c-0.2-0.3-0.7-0.5-1.1-0.5c-0.4,0-0.6,0.1-0.7,0.4C20.6,24.3,21,24.5,21.5,24.8z"/>
	<path class="st0" d="M46.6,24.8c1,0.5,2.5,0.7,4.6,0.7c2.9,0,5.2-0.4,6.7-0.9c2.1-0.6,3-0.9,4.1-1.8c0.1,0,0.2-0.2,0.3-0.2
		c0.1,0,0.2,0.1,0.2,0.5c0,1.2,0.7,2,1.4,2h0.3c0.6,0,0.9,0.4,0.9,1.1c0,0.8-0.3,1.2-0.9,1.2h-0.4c-1.4,0-2.3-0.8-2.6-2.3
		c-1.1,0.5-2.4,1.2-3.7,1.6c-2,0.6-4.1,1.1-6.7,1.1c-2.1,0-3.8-0.3-4.9-0.8c-1.4-0.6-2.2-1.5-2.2-3c0-1.3,0.5-2.6,0.8-3.1
		c0.2-0.3,0.4-0.6,0.6-0.6c0.1,0,0.1,0.1,0.1,0.2c0,0.1-0.1,0.4-0.2,0.6c-0.2,0.5-0.4,1.1-0.4,1.5C44.8,23.3,45.2,24.2,46.6,24.8z
		 M54.4,17.1c0.2-0.2,0.2-0.2,0.3-0.1c0.5,0.5,1,1.1,1.5,1.4c0.2,0.1,0.2,0.2,0,0.3c-0.5,0.5-0.9,1-1.3,1.5c-0.1,0.1-0.2,0.1-0.3,0
		c-0.4-0.3-0.9-0.7-1.4-1.2c-0.3,0.3-0.9,1-1.1,1.2c-0.1,0.1-0.2,0.2-0.4,0c-0.5-0.3-1.1-0.9-1.5-1.4c-0.1-0.1-0.1-0.2,0-0.3
		c0.4-0.5,0.9-1,1.4-1.5c0.1-0.1,0.2-0.1,0.3,0.1c0.4,0.4,1,1,1.4,1.2C53.6,18,54.1,17.4,54.4,17.1z"/>
	<path class="st0" d="M71.9,25.2c0.7,0,1,0.4,1,1.1c0,0.8-0.3,1.2-1,1.2h-0.3c-2.1,0-3.4-0.4-4.3-1c-0.8,0.5-1.9,1-3.2,1h-0.2
		c-0.6,0-0.9-0.4-0.9-1.2c0-0.7,0.3-1.1,1-1.1H64c0.9,0,1.4-0.1,1.7-0.4c-0.1-0.2-0.1-0.5-0.1-0.8c0-2.3,2.6-5.1,4-5.1
		c0.8,0,1.3,1,1.3,2.2c0,1.3-0.5,2.8-1.5,3.7c0.5,0.2,1.2,0.4,2.1,0.4H71.9z M69.3,14c0.1,0.1,0.1,0.1,0,0.2
		c-0.2,0.3-1.1,1.2-1.4,1.7c-0.1,0.1-0.1,0.1-0.2,0c-0.5-0.3-1.5-1-1.7-1.4c-0.1-0.1-0.1-0.1,0-0.2c0.3-0.5,0.9-1.2,1.3-1.6
		c0.2-0.2,0.2-0.2,0.3-0.1C67.9,12.9,68.6,13.6,69.3,14z M68.7,21.2c-0.8,0-1.6,0.9-1.6,1.2c0,0.5,0.4,0.9,1.2,1.4
		c0.3-0.1,1.4-1,1.4-1.3C69.7,21.7,69.4,21.2,68.7,21.2z"/>
	<path class="st0" d="M80.4,15.3c0.1-0.1,0.1,0,0.1,0.1c0,0.6-0.2,1.1-0.5,1.3L75.9,19c-0.1,0-0.1,0-0.1-0.1c0-0.3,0.1-0.8,0.2-1
		c0.1-0.2,0.3-0.3,0.7-0.5L80.4,15.3z"/>
	<path class="st0" d="M88.3,27.5c-1.5,0-2.9,0-4.4,0.3c-1.3,0.2-2.6,0.4-4.1,0.4c-1,0-2-0.1-2.9-0.3c-0.2,0.2-0.4,0.5-0.6,0.8
		c-0.2,0.3-0.3,0.5-0.5,0.5c-0.1,0-0.2-0.1-0.2-0.2c0-0.1,0-0.2,0.1-0.3c0.1-0.3,0.3-0.7,0.5-1.1c-1.1-0.4-1.8-1-2.2-2
		c-0.6,1.2-1.4,1.9-2.3,1.9h-0.2c-0.6,0-0.9-0.4-0.9-1.1s0.3-1.1,0.9-1.1h0.2c1.2-0.1,2-0.7,2.4-1.7c0.3-0.6,0.5-1.1,0.8-1.1
		c0.2,0,0.2,0.3,0.2,0.8c0,1.3,1.2,2.1,2.4,2.4c1.6-2,5.4-5.2,7-5.2c0.5,0,1.1,0.2,1.7,0.5c0.6,0.3,1.2,0.9,1.2,1.6
		c0,0.7-0.4,2.1-0.9,2.9c0.7-0.1,1.3-0.2,1.8-0.2h0.2c0.7,0,1.1,0.4,1.1,1.1c0,0.8-0.4,1.2-1.1,1.2H88.3z M86.2,24.3
		c0-0.3-0.4-0.8-0.8-1.1c-0.6-0.4-1.3-0.6-1.7-0.6c-1.6,0-4,1.8-5.2,3c0.5,0.1,1.2,0.2,1.6,0.2C82.8,25.8,84.8,25,86.2,24.3
		C86.2,24.4,86.2,24.4,86.2,24.3z"/>
	<path class="st0" d="M89.2,12.7c-0.4,0-0.7-0.2-0.8-0.4c-0.2-0.3-0.3-0.8-0.3-1.1c0-0.4,0-0.7,0.2-1c0.2-0.4,0.4-0.7,0.7-0.7
		c0.1,0,0.1,0.1,0.1,0.3C89,9.9,89,10,89,10.3c0,0.5,0.3,0.7,0.7,0.7s0.7-0.4,0.9-0.8c0.3-0.7,0.6-1,0.9-1c0.1,0,0.2,0.1,0.2,0.3
		c0,0.1,0,0.2,0,0.4c0,0.3,0.1,0.5,0.5,0.5c0.3,0,0.6-0.2,0.9-0.7c0.3-0.5,0.4-0.7,0.5-0.7c0.2,0,0.2,0.3,0.2,0.5
		c0,0.6-0.2,1.1-0.5,1.6c-0.3,0.4-0.7,0.9-1.4,0.9c-0.4,0-0.6-0.1-0.8-0.3c-0.1-0.1-0.2,0-0.3,0.2C90.3,12.4,89.7,12.7,89.2,12.7z"
		/>
	<path class="st0" d="M92.2,26c-0.4,0.6-1.2,1.1-2.6,1.3c-0.4,0.1-0.9,0.1-1.4,0.1c-0.6,0-1-0.6-1-1.1s0.3-1.1,1-1.1h0.5
		c1,0,2.6,0,3.2-0.6c-0.1-0.9-0.8-2-1.1-2.4c0,0,0,0,0-0.1c0-0.4,0.7-1.8,0.7-1.9c0-0.1,0.1-0.1,0.1-0.1c0.3,0,1.1,1.6,1.1,3.5
		C92.9,24.4,92.8,25.3,92.2,26z M92.2,14.6c0.2-0.2,0.2-0.2,0.3-0.1c0.5,0.5,1,1.1,1.5,1.4c0.2,0.1,0.2,0.2,0,0.3
		c-0.5,0.5-0.9,1-1.3,1.5c-0.1,0.1-0.2,0.1-0.3,0c-0.4-0.3-0.9-0.7-1.4-1.2c-0.3,0.3-0.9,1-1.1,1.2c-0.1,0.1-0.2,0.2-0.4,0
		c-0.5-0.3-1.1-0.9-1.5-1.4c-0.1-0.1-0.1-0.2,0-0.3c0.4-0.5,0.9-1,1.4-1.5c0.1-0.1,0.2-0.1,0.3,0.1c0.4,0.4,1,1,1.4,1.2
		C91.4,15.5,91.9,14.9,92.2,14.6z"/>
	<path class="st0" d="M98.9,27.5c-0.7,0-1.2-0.1-1.7-0.5c-0.7-0.6-1.1-1.7-1.3-3.1c-0.2-1.1-0.2-2.3-0.3-3.7c-0.1-2-0.2-5.1-0.5-6.9
		c0-0.1,0-0.2,0-0.2c0-0.1,0-0.2,0.2-0.4c0.3-0.5,0.5-0.8,0.7-1.2c0.2-0.3,0.2-0.3,0.3-0.3c0.1,0,0.2,0.2,0.3,0.7
		c0.4,3.5,0.1,8.4,0.6,11.1c0.1,0.7,0.2,0.9,0.4,1.3c0.3,0.6,0.7,0.9,1.4,1c0.8,0,1.2,0.4,1.2,1.1c0,0.9-0.4,1.2-1.1,1.2H98.9z"/>
	<path class="st0" d="M104.7,22.2c0,1.2-0.4,2.9-0.9,3.7c-0.2,0.3-0.9,0.7-1.4,0.8c-1.4,0.4-2.5,0.6-3.3,0.6h-0.2
		c-0.6,0-1-0.4-1-1.2c0-0.7,0.3-1.1,1-1.1h0.2c1.3,0,2.8-0.2,3.7-0.5c0.8-0.3,0.9-0.3,0.9-1.1c0-0.5-0.1-0.8-0.3-1.3
		c-0.2,0.5-0.9,1-1.8,1c-1.1,0-1.8-0.7-1.8-2c0-1.8,1.4-4.1,2-4.1C103.6,17.2,104.7,20.6,104.7,22.2z M103.3,12.3
		c0.1,0.1,0.1,0.1,0,0.2c-0.2,0.3-1.1,1.2-1.4,1.7c-0.1,0.1-0.1,0.1-0.2,0c-0.5-0.3-1.5-1-1.7-1.4c-0.1-0.1-0.1-0.1,0-0.2
		c0.3-0.5,0.9-1.2,1.3-1.6c0.2-0.2,0.2-0.2,0.3-0.1C101.9,11.2,102.6,11.9,103.3,12.3z M102.2,19.7c-0.2-0.2-0.5-0.3-0.7-0.3
		c-0.2,0-0.4,0.1-0.5,0.4c-0.1,0.2-0.2,0.4-0.2,0.5c0,0.5,0.5,0.6,1,0.6c0.5,0,0.9-0.2,0.9-0.5C102.7,20.4,102.5,20,102.2,19.7z"/>
	<path class="st0" d="M119,26.2c0.2,0.3,0.3,0.6,0.3,1.1c0,0.5-0.2,0.9-0.5,1.1c-0.3,0.2-0.6,0.3-1,0.3c-0.6,0-1.2-0.4-1.5-1.1
		c-0.3-0.7-0.4-1.3-0.4-2c0-0.8,0.2-1.6,0.5-2.3c0.3-0.7,0.6-1.2,1-1.7c0.4-0.4,0.6-0.7,0.8-0.7c0.3,0,0.1,0.4-0.2,0.8
		c-0.8,1.1-1.1,2.1-1.1,3.2c0,0.6,0.1,0.7,0.2,1c0.3-0.1,0.6-0.2,0.8-0.2C118.3,25.7,118.7,25.9,119,26.2z"/>
	<path class="st0" d="M139,34.8c0.1-0.1,0.1,0,0.1,0.1c0,0.6-0.2,1.1-0.5,1.3l-4.1,2.3c-0.1,0-0.1,0-0.1-0.1c0-0.3,0.1-0.8,0.2-1
		c0.1-0.2,0.3-0.3,0.7-0.5L139,34.8z"/>
	<path class="st0" d="M138.2,18.7c0.1,0.1,0.1,0.1,0,0.2c-0.2,0.3-1.1,1.2-1.4,1.7c-0.1,0.1-0.1,0.1-0.2,0c-0.5-0.3-1.5-1-1.7-1.4
		c-0.1-0.1-0.1-0.1,0-0.2c0.3-0.5,0.9-1.2,1.3-1.6c0.2-0.2,0.2-0.2,0.3-0.1C136.7,17.6,137.5,18.3,138.2,18.7z"/>
	<path class="st0" d="M146.1,31.6c0.2-0.2,0.2-0.2,0.3-0.1c0.5,0.5,1,1.1,1.5,1.4c0.2,0.1,0.2,0.2,0,0.3c-0.5,0.5-0.9,1-1.3,1.5
		c-0.1,0.1-0.2,0.1-0.3,0c-0.4-0.3-0.9-0.7-1.4-1.2c-0.3,0.3-0.9,1-1.1,1.2c-0.1,0.1-0.2,0.2-0.4,0c-0.5-0.3-1.1-0.9-1.5-1.4
		c-0.1-0.1-0.1-0.2,0-0.3c0.4-0.5,0.9-1,1.4-1.5c0.1-0.1,0.2-0.1,0.3,0.1c0.4,0.4,1,1,1.4,1.2C145.3,32.5,145.8,31.9,146.1,31.6z"/>
	<path class="st0" d="M150.1,26.3c0,0.8-0.3,1.2-0.9,1.2h-0.3c-0.4,0-0.8-0.1-1.2-0.4c-0.4-0.3-0.7-0.6-0.9-1
		c-0.2-0.4-0.4-1-0.5-1.8c-0.1-0.8-0.2-1.3-0.3-1.3c-0.3,0.8-0.7,1.4-1.1,1.7c-0.6,0.5-1.2,0.6-1.6,0.6c-0.2,0-0.3,0-0.4,0
		c0,0.4,0,0.7,0,1c0,0.4,0,0.9-0.1,1.5c-0.1,0.9-0.2,1.6-0.3,2c-0.2,0.5-0.4,0.8-0.6,1.2c-1.6,2.2-4,3.1-6.8,3.1
		c-1.3,0-2.1-0.3-2.9-0.8c-1.1-0.8-1.6-2.2-1.6-3.7c0-1.1,0.5-2.5,1.3-3.7c0.2-0.4,0.5-0.6,0.7-0.6c0.1,0,0.1,0.1,0.1,0.1
		c0,0.2-0.1,0.4-0.2,0.7c-0.4,0.8-0.8,1.7-0.8,2.7c0,1.5,1.7,2.9,4.1,2.9c2.4,0,5.7-1,6.4-2.7c0-0.1,0-0.2,0-0.4c0-1.3-0.4-3-1-3.8
		c-0.2-0.3-0.5-0.6-0.5-0.6c0,0-0.1-0.1-0.1-0.2c0-0.5,0.5-2,0.7-2.2c0.1-0.1,0.1-0.1,0.2,0c0.6,0.8,1.2,1.2,1.9,1.3
		c0.2,0,0.5,0,0.9-0.1c0.4-0.1,0.8-0.4,1-0.7c0.5-0.6,0.7-1,0.9-1.5c0.1-0.1,0.2-0.3,0.3-0.3c0.1,0,0.2,0.2,0.3,0.5
		c0.1,0.3,0.2,0.8,0.3,1.6c0.1,0.8,0.4,1.4,0.7,1.9c0.3,0.5,0.7,0.8,1.2,0.8h0.3C149.8,25.2,150.1,25.5,150.1,26.3z"/>
	<path class="st0" d="M153.6,23.8c0,0.6,0.6,1.2,1.4,1.4c0.2,0,0.3,0,0.5,0h0.1c0.9,0,0.9,0.7,0.9,1c0,0.3,0,1.3-0.8,1.3h-0.2
		c-0.2,0-0.3,0-0.6,0c-1.5-0.2-2.1-1.5-2.2-1.7c-0.2,0.6-1.5,1.7-3.7,1.7h-0.1c-0.6,0-1-0.6-1-1.1s0.3-1.1,1-1.1h0.7
		c1,0,2.4-0.2,3.3-1.6c0.3-0.5,0.4-0.5,0.5-0.5C153.5,23.1,153.6,23.3,153.6,23.8z M153.4,17c0.2-0.2,0.2-0.2,0.3-0.1
		c0.5,0.5,1,1.1,1.5,1.4c0.2,0.1,0.2,0.2,0,0.3c-0.5,0.5-0.9,1-1.3,1.5c-0.1,0.1-0.2,0.1-0.3,0c-0.4-0.3-0.9-0.7-1.4-1.2
		c-0.3,0.3-0.9,1-1.1,1.2c-0.1,0.1-0.2,0.2-0.4,0c-0.5-0.3-1.1-0.9-1.5-1.4c-0.1-0.1-0.1-0.2,0-0.3c0.4-0.5,0.9-1,1.4-1.5
		c0.1-0.1,0.2-0.1,0.3,0.1c0.4,0.4,1,1,1.4,1.2C152.6,17.8,153.1,17.2,153.4,17z"/>
	<path class="st0" d="M163.5,25.2c0.7,0,1,0.4,1,1.1c0,0.8-0.3,1.2-1,1.2h-0.3c-2.1,0-3.4-0.4-4.3-1c-0.8,0.5-1.9,1-3.2,1h-0.2
		c-0.6,0-0.9-0.4-0.9-1.2c0-0.7,0.3-1.1,1-1.1h0.2c0.9,0,1.4-0.1,1.7-0.4c-0.1-0.2-0.1-0.5-0.1-0.8c0-2.3,2.6-5.1,4-5.1
		c0.8,0,1.3,1,1.3,2.2c0,1.3-0.5,2.8-1.5,3.7c0.5,0.2,1.2,0.4,2.1,0.4H163.5z M161,14c0.1,0.1,0.1,0.1,0,0.2
		c-0.2,0.3-1.1,1.2-1.4,1.7c-0.1,0.1-0.1,0.1-0.2,0c-0.5-0.3-1.5-1-1.7-1.4c-0.1-0.1-0.1-0.1,0-0.2c0.3-0.5,0.9-1.2,1.3-1.6
		c0.2-0.2,0.2-0.2,0.3-0.1C159.5,12.9,160.3,13.6,161,14z M160.3,21.2c-0.8,0-1.6,0.9-1.6,1.2c0,0.5,0.4,0.9,1.2,1.4
		c0.3-0.1,1.4-1,1.4-1.3C161.3,21.7,161.1,21.2,160.3,21.2z"/>
	<path class="st0" d="M169.6,10.4c-0.4,0-0.7-0.2-0.8-0.4c-0.2-0.3-0.3-0.8-0.3-1.1c0-0.4,0-0.7,0.2-1c0.2-0.4,0.4-0.7,0.7-0.7
		c0.1,0,0.1,0.1,0.1,0.3c0,0.2-0.1,0.4-0.1,0.6c0,0.5,0.3,0.7,0.7,0.7s0.7-0.4,0.9-0.8c0.3-0.7,0.6-1,0.9-1c0.1,0,0.2,0.1,0.2,0.3
		c0,0.1,0,0.2,0,0.4c0,0.3,0.1,0.5,0.5,0.5c0.3,0,0.6-0.2,0.9-0.7c0.3-0.5,0.4-0.7,0.5-0.7c0.2,0,0.2,0.3,0.2,0.5
		c0,0.6-0.2,1.1-0.5,1.6c-0.3,0.4-0.7,0.9-1.4,0.9c-0.4,0-0.6-0.1-0.8-0.3c-0.1-0.1-0.2,0-0.3,0.2C170.6,10.1,170.1,10.4,169.6,10.4
		z"/>
	<path class="st0" d="M172.1,22.9c0.1,0,0.2,0.1,0.2,0.5c0,0.1,0,0.3,0,0.5c0,0.7,0.5,1.1,1.2,1.1c1,0,1.5-1,1.9-1.8
		c0-0.1,0.2-0.4,0.3-0.4c0.1,0,0.2,0.1,0.2,0.6c0.1,1.1,0.7,1.7,1.5,1.7h0.3c0.7,0,1.1,0.3,1.1,1c0,0.8-0.4,1.3-1.1,1.3h-0.3
		c-1.3,0-2-0.6-2.2-1.9c-0.3,0.9-1.2,2-2.3,2c-1.1,0-1.6-0.9-1.7-1.9c-0.4,1.1-1.5,1.9-2.7,1.9c-1.2,0-2-0.4-2.3-1.6
		c-0.2,0.4-0.4,0.8-0.8,1.1c-0.4,0.3-1.1,0.5-2.1,0.5h-0.2c-0.7,0-1-0.4-1-1.2c0-0.7,0.3-1.1,1-1.1h0.3c1.6,0,2.6-0.6,3.2-1.7
		c0-0.1,0.2-0.3,0.3-0.3c0.2,0,0.2,0.2,0.2,0.5c0,0.9,0.8,1.3,1.8,1.3c1.2,0,2.1-0.5,2.8-1.7C171.8,23.1,171.9,22.9,172.1,22.9z
		 M172.9,17.3c0.2-0.2,0.2-0.2,0.3-0.1c0.5,0.5,1,1.1,1.5,1.4c0.2,0.1,0.2,0.2,0,0.3c-0.5,0.5-0.9,1-1.3,1.5c-0.1,0.1-0.2,0.1-0.3,0
		c-0.4-0.3-0.9-0.7-1.4-1.2c-0.3,0.3-0.9,1-1.1,1.2c-0.1,0.1-0.2,0.2-0.4,0c-0.5-0.3-1.1-0.9-1.5-1.4c-0.1-0.1-0.1-0.2,0-0.3
		c0.4-0.5,0.9-1,1.4-1.5c0.1-0.1,0.2-0.1,0.3,0.1c0.4,0.4,1,1,1.4,1.2C172.1,18.2,172.6,17.6,172.9,17.3z M173.2,14
		c0.1,0.1,0.1,0.1,0,0.2c-0.2,0.3-1.1,1.2-1.4,1.7c-0.1,0.1-0.1,0.1-0.2,0c-0.5-0.3-1.5-1-1.7-1.4c-0.1-0.1-0.1-0.1,0-0.2
		c0.3-0.5,0.9-1.2,1.3-1.6c0.2-0.2,0.2-0.2,0.3-0.1C171.8,13,172.5,13.6,173.2,14z"/>
	<path class="st0" d="M179.9,26.4c-0.5,0.7-1.2,1-2.3,1h-0.2c-0.7,0-1-0.4-1-1.2c0-0.7,0.3-1.1,1-1.1h0.2c0.5,0,1-0.1,1.5-0.2
		c0.4-0.1,0.6-0.3,0.7-0.4c0-1.7-0.6-5.4-0.9-8.9c0-0.4-0.3-1.6-0.4-2.1c0-0.1,0-0.2,0-0.2c0-0.3,0.3-0.9,0.5-1.3
		c0.3-0.5,0.5-0.9,0.7-0.9c0.1,0,0.1,0.1,0.2,0.2c0.3,1,0.6,1.5,0.8,1.8c0.1,0.1,0.1,0.2,0.1,0.3c0,0,0,0.1,0,0.1
		c-0.1,0.2-0.4,0.8-0.6,1.1c0.2,3.4,0.7,6.2,0.7,7.8C180.9,24.1,180.6,25.4,179.9,26.4z"/>
	<path class="st0" d="M185.5,27.5c-0.1,0-0.2-0.2-0.2-0.7c0-3-1.1-11.3-1.1-12.7c0-0.7,0.5-1.7,0.9-2.5c0.1-0.2,0.3-0.5,0.5-0.5
		c0.1,0,0.2,0.2,0.2,0.8c0.1,2.2,0.7,7.3,0.7,11c0,1.5-0.1,2.7-0.4,3.5C185.9,27.1,185.7,27.5,185.5,27.5z"/>
	<path class="st0" d="M209.2,31.3c0.1-0.1,0.1,0,0.1,0.1c0,0.6-0.2,1.1-0.5,1.3l-4.1,2.3c-0.1,0-0.1,0-0.1-0.1c0-0.3,0.1-0.8,0.2-1
		c0.1-0.2,0.3-0.3,0.7-0.5L209.2,31.3z"/>
	<path class="st0" d="M197.9,26.3c0-1.1,0.3-2.7,1-3.8c0.2-0.4,0.5-0.6,0.7-0.6c0.1,0,0.1,0.1,0.1,0.2c0,0.2-0.1,0.4-0.2,0.6
		c-0.5,1.1-0.7,1.8-0.7,2.5c0.1,1.9,2.1,3.2,3.9,3.2c2.7,0,6.1-1.3,6.9-3.1c0.1-0.2,0.1-0.4,0.1-0.8c0-1-0.3-2.4-0.5-2.7
		c-0.2,0.6-0.8,1.2-1.7,1.2c-1.3,0-1.8-0.9-1.8-2.2c0-1.4,1.2-3.9,2.3-3.9c1.5,0,2.7,2.9,2.7,5.9c0,1.4-0.3,3.1-0.8,4.2
		c-0.9,1.8-3.8,3.5-7,3.5C200.1,30.6,197.9,29.3,197.9,26.3z M207.9,11.5c0.2-0.2,0.2-0.2,0.3-0.1c0.5,0.5,1,1.1,1.5,1.4
		c0.2,0.1,0.2,0.2,0,0.3c-0.5,0.5-0.9,1-1.3,1.5c-0.1,0.1-0.2,0.1-0.3,0c-0.4-0.3-0.9-0.7-1.4-1.2c-0.3,0.3-0.9,1-1.1,1.2
		c-0.1,0.1-0.2,0.2-0.4,0c-0.5-0.3-1.1-0.9-1.5-1.4c-0.1-0.1-0.1-0.2,0-0.3c0.4-0.5,0.9-1,1.4-1.5c0.1-0.1,0.2-0.1,0.3,0.1
		c0.4,0.4,1,1,1.4,1.2C207.1,12.4,207.6,11.8,207.9,11.5z M207.6,19.3c-0.6,0-1,0.6-1,0.8c0,0.5,0.5,0.7,1,0.7
		c0.5,0,0.9-0.2,0.9-0.5C208.5,20,208.1,19.3,207.6,19.3z"/>
	<path class="st0" d="M216.8,27.5c-0.7,0-1.2-0.1-1.7-0.5c-0.7-0.6-1.1-1.7-1.3-3.1c-0.2-1.1-0.2-2.3-0.3-3.7
		c-0.1-2-0.2-5.1-0.5-6.9c0-0.1,0-0.2,0-0.2c0-0.1,0-0.2,0.2-0.4c0.3-0.5,0.5-0.8,0.7-1.2c0.2-0.3,0.2-0.3,0.3-0.3
		c0.1,0,0.2,0.2,0.3,0.7c0.4,3.5,0.1,8.4,0.6,11.1c0.1,0.7,0.2,0.9,0.4,1.3c0.3,0.6,0.7,0.9,1.4,1c0.8,0,1.2,0.4,1.2,1.1
		c0,0.9-0.4,1.2-1.1,1.2H216.8z"/>
	<path class="st0" d="M221.6,23.8c0,0.6,0.6,1.2,1.4,1.4c0.2,0,0.3,0,0.5,0h0.1c0.9,0,0.9,0.7,0.9,1c0,0.3,0,1.3-0.8,1.3h-0.2
		c-0.2,0-0.3,0-0.6,0c-1.5-0.2-2.1-1.5-2.2-1.7c-0.2,0.6-1.5,1.7-3.7,1.7h-0.1c-0.6,0-1-0.6-1-1.1s0.3-1.1,1-1.1h0.7
		c1,0,2.4-0.2,3.3-1.6c0.3-0.5,0.4-0.5,0.5-0.5C221.5,23.1,221.6,23.3,221.6,23.8z M222.7,31.6c0.1,0.1,0.1,0.1,0,0.2
		c-0.2,0.3-1.1,1.2-1.4,1.7c-0.1,0.1-0.1,0.1-0.2,0c-0.5-0.3-1.5-1-1.7-1.4c-0.1-0.1-0.1-0.1,0-0.2c0.3-0.5,0.9-1.2,1.3-1.6
		c0.2-0.2,0.2-0.2,0.3-0.1C221.3,30.5,222,31.2,222.7,31.6z"/>
	<path class="st0" d="M226.2,5.4c0.7,0,1.7,1,1.7,2.1c0,0.4-0.1,0.8-0.2,1.2c-0.3,0.8-0.9,1.3-1.8,1.3c-0.8,0-1.3-0.6-1.3-1.3
		C224.5,7.6,225.7,5.4,226.2,5.4z M226,7c-0.3,0-0.7,0.6-0.7,1c0,0.3,0.4,0.6,0.8,0.6c0.5,0,1.1-0.3,1.1-0.5
		C227.2,7.8,226.6,7,226,7z"/>
	<path class="st0" d="M227.5,20.4c0,0.9-0.1,1.7-0.3,2.3c2.2-1.8,3.8-2.7,4.9-2.7c0.5,0,1.2,0.1,1.8,0.4c0.8,0.4,1.2,0.8,1.2,1.6
		c0,1.1-0.5,2.1-1.2,3c-1,1.3-6.1,2.4-10.1,2.4h-0.3c-0.7,0-1.1-0.4-1.1-1.1c0-0.8,0.4-1.1,1.1-1.1c0.5,0,1,0,1.1,0
		c0.5-0.4,1.4-1.3,1.9-1.8c0-0.4,0-0.8,0-1.1c0-2.5-0.4-4.7-0.7-7.1c0-0.4-0.3-1.3-0.4-1.7c0-0.1,0-0.2,0-0.3c0,0,0-0.1,0-0.2
		c0-0.1,0.1-0.4,0.4-0.9c0.2-0.5,0.6-1.1,0.7-1.1c0.1,0,0.1,0.1,0.2,0.2c0.3,0.9,0.6,1.4,0.8,1.8c0,0.1,0.1,0.2,0.1,0.2s0,0.1,0,0.2
		c-0.1,0.2-0.4,0.8-0.6,1.1C227.2,16.6,227.5,18.7,227.5,20.4z M231,22.1c-1.9,0-3.7,1.4-5.4,3.1c3.4-0.2,6.7-0.8,8.1-1.8
		C233.2,22.7,232,22.1,231,22.1z"/>
	<path class="st0" d="M240.7,33.9c0.1-0.1,0.1,0,0.1,0.1c0,0.6-0.2,1.1-0.5,1.3l-4.1,2.3c-0.1,0-0.1,0-0.1-0.1c0-0.3,0.1-0.8,0.2-1
		c0.1-0.2,0.3-0.3,0.7-0.5L240.7,33.9z"/>
	<path class="st0" d="M240.5,32c-0.8,0.4-2.6,1.5-4,2.5c-0.1,0-0.1,0-0.1,0c0,0-0.1,0-0.1-0.1c0-0.1,0.1-0.3,0.2-0.7
		c0.1-0.2,0.5-0.6,0.8-0.9c0,0,0.1-0.1,0.1-0.1c0,0,0-0.1-0.1-0.1c-0.6-0.2-0.9-0.4-0.9-0.9c0-0.1,0-0.1,0-0.2c0-0.9,1-2.2,1.8-2.9
		c0.3-0.3,0.7-0.4,1-0.4c0.5,0,0.8,0.3,0.8,0.7c0,0.3-0.1,0.6-0.2,1c-0.1,0.2-0.2,0.4-0.3,0.4s-0.2-0.1-0.3-0.2
		c-0.1-0.1-0.3-0.3-0.6-0.3c-0.8,0-1.3,0.5-1.3,0.7c0,0.3,1.3,0.8,1.8,0.8c0.1,0,0.1,0,0.1,0c0.2-0.1,1.1-0.4,1.5-0.6
		c0.2-0.1,0.3-0.2,0.3-0.2c0,0,0.1,0,0.1,0.1c0,0.1-0.1,0.2-0.1,0.4C240.9,31.7,240.7,31.8,240.5,32z M239,27.5
		c-0.1,0-0.2-0.2-0.2-0.7c0-3-1.1-11.3-1.1-12.7c0-0.7,0.5-1.7,0.9-2.5c0.1-0.2,0.3-0.5,0.5-0.5c0.1,0,0.2,0.2,0.2,0.8
		c0.1,2.2,0.7,7.3,0.7,11c0,1.5-0.1,2.7-0.4,3.5C239.4,27.1,239.2,27.5,239,27.5z"/>
	<path class="st0" d="M260.8,25.2c0.7,0,1,0.4,1,1.1c0,0.8-0.3,1.2-1,1.2h-0.4c-0.8,0-1.5-0.2-2.1-0.5c-0.5-0.3-1.2-0.9-2.1-1.8
		c-4,2.4-4.3,4.9-4.3,6.5c0,2.8,2,6,9.4,6c1,0,2.1-0.1,3.2-0.2c0.3,0,0.6-0.1,0.7-0.1c0.2,0,0.2,0.1,0.2,0.1c0,0.2-0.7,0.6-1,0.8
		c-1.5,0.7-3.6,1.4-6.2,1.4c-5.2,0-7.2-3.5-7.2-6.8c0-3.9,1.3-6.5,4.1-8.8c-0.5-0.7-1.7-1-2.3-1.1c-0.1,0-0.1-0.2-0.1-0.4
		c0-0.5,0.2-1.4,0.5-1.6c0.9-0.7,2-1,3-1c1.1,0,2.1,0.4,2.6,1c0.2,0.2,0.2,0.4,0.2,0.8c0,0.7-0.4,1.7-1.3,2.3
		c0.8,0.8,1.7,1.2,2.7,1.2H260.8z"/>
	<path class="st0" d="M267.8,14.5c0.1-0.1,0.1,0,0.1,0.1c0,0.6-0.2,1.1-0.5,1.3l-4.1,2.3c-0.1,0-0.1,0-0.1-0.1c0-0.3,0.1-0.8,0.2-1
		c0.1-0.2,0.3-0.3,0.7-0.5L267.8,14.5z"/>
	<path class="st0" d="M260.7,27.5h-0.1c-0.7,0-1-0.4-1-1.2c0-0.7,0.4-1.1,1-1.1h0.1c1.2,0,2.2-0.5,2.9-1.4l1.3-2
		c0.7-1.1,1.7-1.5,2.2-1.5c1.7,0,2.4,2.9,2.4,4.1c0,1-1.1,2.4-1.6,2.4c-0.8,0-2.8-1-3.8-1.9C263.1,26.7,262,27.5,260.7,27.5z
		 M266,22.3c-0.2,0-0.3,0.1-0.5,0.3c-0.1,0.1-0.2,0.3-0.3,0.5c0.5,0.3,1.9,1,2.5,1.4C267.7,23.6,266.7,22.3,266,22.3z"/>
	<path class="st0" d="M287.2,13.3c0,0.5-0.1,1-0.3,1.5c0.2,0.1,0.4,0.3,0.4,0.4c0,0.4-0.2,0.7-0.3,1c-0.1,0.1-0.1,0.1-0.1,0.1
		l-0.5-0.3c-0.5,0.8-1.3,1.8-2.5,2.3c-0.4,0.2-0.9,0.4-1.5,0.4c-0.3,0-0.4-0.1-0.4-0.1c0-0.1,0.2-0.2,0.6-0.4
		c0.9-0.5,2.5-1.8,3.1-2.5c-0.5-0.3-1.1-0.7-1.1-1.4c0-0.4,0.2-0.9,0.6-1.3c0.4-0.5,0.8-0.8,1.2-0.8C287,12.1,287.2,12.8,287.2,13.3
		z M285.4,13.8C285.4,13.8,285.4,13.8,285.4,13.8c0,0.2,0.4,0.5,0.8,0.7c0.1-0.2,0.1-0.4,0.1-0.7c0-0.3-0.1-0.4-0.3-0.4
		C285.8,13.3,285.6,13.5,285.4,13.8z"/>
	<path class="st0" d="M294.1,36.9c0.3,0,0.4,0.1,0.4,0.1c0,0.2-0.5,0.5-0.9,0.6c-1.5,0.6-3.9,1.6-6.4,1.6c-4.4,0-7.6-2.3-7.6-7.1
		c0-4.4,2.3-8.3,5.4-9.4c-0.8-0.2-1.5-0.2-2.1-0.2c-1.1,0-1.8,0.3-2.4,0.5c-0.5,0.2-0.6,0.2-0.7,0.2c-0.1,0-0.2,0-0.2-0.2
		c0-0.3,0.5-1.4,0.9-1.8c0.7-0.7,1.7-0.9,2.9-0.9c2.1,0,4.2,0.7,6.4,0.7c0.9,0,1.6-0.1,2.1-0.1c0.4,0,0.4,0,0.4,0.1
		c0,0.5-0.9,1.9-1.3,2c-1.4,0-2.9,0.2-4.4,0.7c-4.5,1.5-6,5.1-6,7.1c0,3.2,1.7,6.2,9.4,6.2C292.2,37.2,293.6,36.9,294.1,36.9z
		 M288.9,30c0.1,0.1,0.1,0.1,0,0.2c-0.2,0.3-1.1,1.2-1.4,1.7c-0.1,0.1-0.1,0.1-0.2,0c-0.5-0.3-1.5-1-1.7-1.4c-0.1-0.1-0.1-0.1,0-0.2
		c0.3-0.5,0.9-1.2,1.3-1.6c0.2-0.2,0.2-0.2,0.3-0.1C287.5,28.9,288.3,29.6,288.9,30z"/>
	<path class="st0" d="M298.2,16.6c0,0.5-0.1,1-0.3,1.5c0.2,0.1,0.4,0.3,0.4,0.4c0,0.4-0.2,0.7-0.3,1c-0.1,0.1-0.1,0.1-0.1,0.1
		l-0.5-0.3c-0.5,0.8-1.3,1.8-2.5,2.3c-0.4,0.2-0.9,0.4-1.5,0.4c-0.3,0-0.4-0.1-0.4-0.1c0-0.1,0.2-0.2,0.6-0.4
		c0.9-0.5,2.5-1.8,3.1-2.5c-0.5-0.3-1.1-0.7-1.1-1.4c0-0.4,0.2-0.9,0.6-1.3c0.4-0.5,0.8-0.8,1.2-0.8C298,15.4,298.1,16.1,298.2,16.6
		z M296.4,17.1C296.3,17.1,296.3,17.1,296.4,17.1c0,0.2,0.4,0.5,0.8,0.7c0.1-0.2,0.1-0.4,0.1-0.7c0-0.3-0.1-0.4-0.3-0.4
		C296.7,16.6,296.5,16.8,296.4,17.1z"/>
	<path class="st0" d="M299.9,25.2c0.7,0,1.1,0.4,1.1,1.1c0,0.8-0.4,1.2-1.1,1.2h-0.2c-0.6,0-1,0-1.3-0.1c0,0.1,0,0.2,0,0.3
		c0,0.7-0.1,1.5-0.4,2.1c-0.5,1.2-1.3,3.3-3.6,4.3c-0.4,0.2-0.8,0.3-1.2,0.3c-0.9,0-2.4-0.5-3.5-1c-0.3-0.2-0.4-0.3-0.4-0.4
		c0-0.1,0.1-0.2,0.4-0.2c0.3,0,0.8,0.1,1.3,0.1c3.1,0,6.2-2.7,6.6-5c0-0.5-1.1-1.6-1.3-1.9c0-0.1-0.1-0.2-0.1-0.3
		c0-0.5,0.4-1.5,0.6-1.8c0.1-0.2,0.2-0.2,0.3-0.2c0.2,0,0.3,0.2,0.6,0.7c0.4,0.6,0.9,0.9,1.8,0.9H299.9z"/>
	<path class="st0" d="M305.2,15.8c0.1,0.1,0.1,0.1,0,0.2c-0.2,0.3-1.1,1.2-1.4,1.7c-0.1,0.1-0.1,0.1-0.2,0c-0.5-0.3-1.5-1-1.7-1.4
		c-0.1-0.1-0.1-0.1,0-0.2c0.3-0.5,0.9-1.2,1.3-1.6c0.2-0.2,0.2-0.2,0.3-0.1C303.8,14.7,304.5,15.4,305.2,15.8z"/>
	<path class="st0" d="M312.8,9c0.1-0.1,0.1,0,0.1,0.1c0,0.6-0.2,1.1-0.5,1.3l-4.1,2.3c-0.1,0-0.1,0-0.1-0.1c0-0.3,0.1-0.8,0.2-1
		c0.1-0.2,0.3-0.3,0.7-0.5L312.8,9z"/>
	<path class="st0" d="M314,27.4c0.2-0.2,0.2-0.2,0.3-0.1c0.5,0.5,1,1.1,1.5,1.4c0.2,0.1,0.2,0.2,0,0.3c-0.5,0.5-0.9,1-1.3,1.5
		c-0.1,0.1-0.2,0.1-0.3,0c-0.4-0.3-0.9-0.7-1.4-1.2c-0.3,0.3-0.9,1-1.1,1.2c-0.1,0.1-0.2,0.2-0.4,0c-0.5-0.3-1.1-0.9-1.5-1.4
		c-0.1-0.1-0.1-0.2,0-0.3c0.4-0.5,0.9-1,1.4-1.5c0.1-0.1,0.2-0.1,0.3,0.1c0.4,0.4,1,1,1.4,1.2C313.2,28.3,313.8,27.6,314,27.4z"/>
	<path class="st0" d="M311.2,18.6c-0.2,0-0.2-0.2-0.3-0.5c-0.1-0.6-0.4-1.2-0.8-1.2c-0.3,0-0.7,0.3-1.1,0.9
		c-1.1,1.7-2.3,2.8-3.3,3.5c-0.1,0,0,0.1,0.1,0.1c3.5,1.3,6.4,1.9,8.8,1.8c0.1,0,0.2,0,0.1,0.3c-0.2,0.3-0.6,0.9-1.3,1.7
		c-0.1,0.1-0.2,0.2-0.3,0.1c-0.9-0.1-1.8-0.2-2.5-0.3c-1,0-1.9,0.1-2.7,0.3c-0.7,0.2-1.7,0.5-2.8,0.9c-1.1,0.4-2.1,0.7-2.7,0.9
		c-0.6,0.2-1.5,0.3-2.5,0.3h-0.3c-0.6,0-0.9-0.4-0.9-1.2c0-0.7,0.3-1.1,0.9-1.1h0.3c2.1,0,4.3-0.3,6.6-1c0,0,0,0-0.2-0.1
		c-1.4-0.7-3.1-1.1-5.2-1.3c-0.2,0-0.1-0.1,0-0.3c0.2-0.3,0.6-0.8,1.3-1.5c0.3-0.3,1-0.7,2.2-1.1c1.9-0.8,3.9-2.1,5-4.2
		c0.3-0.6,0.9-1.1,1.4-1.1c0.8,0,1.1,1.2,1.1,1.8c0,0.6,0,0.9-0.1,1.3C311.7,18.2,311.5,18.6,311.2,18.6z"/>
	<path class="st0" d="M329.9,28.4c0.1-0.1,0.1,0,0.1,0.1c0,0.6-0.2,1.1-0.5,1.3l-4.1,2.3c-0.1,0-0.1,0-0.1-0.1c0-0.3,0.1-0.8,0.2-1
		c0.1-0.2,0.3-0.3,0.7-0.5L329.9,28.4z"/>
	<path class="st0" d="M328.7,12.3c0.2-0.2,0.2-0.2,0.3-0.1c0.5,0.5,1,1.1,1.5,1.4c0.2,0.1,0.2,0.2,0,0.3c-0.5,0.5-0.9,1-1.3,1.5
		c-0.1,0.1-0.2,0.1-0.3,0c-0.4-0.3-0.9-0.7-1.4-1.2c-0.3,0.3-0.9,1-1.1,1.2c-0.1,0.1-0.2,0.2-0.4,0c-0.5-0.3-1.1-0.9-1.5-1.4
		c-0.1-0.1-0.1-0.2,0-0.3c0.4-0.5,0.9-1,1.4-1.5c0.1-0.1,0.2-0.1,0.3,0.1c0.4,0.4,1,1,1.4,1.2C327.9,13.2,328.5,12.5,328.7,12.3z
		 M331.7,24.7c0.5,0.3,0.9,0.5,1.2,0.5h0.3c0.7,0,1.1,0.4,1.1,1.1c0,0.8-0.4,1.2-1.1,1.2h-0.3c-0.8,0-1.5-0.3-2.3-0.9
		c-0.7-0.6-1.2-1.6-1.4-3c-0.2,0.4-0.4,0.7-0.8,1c-0.6,0.4-1.6,0.6-2.6,0.6c-0.7,0-1.4-0.1-1.4-0.7c0.3-2.2,0.6-2.6,1.7-3.4
		c0.5-0.4,1.8-1.2,2.3-1.6c0-0.2,0-0.4,0-0.5c0-0.5,0.1-0.8,0.4-1.2c0.2-0.3,0.3-0.5,0.4-0.5c0.1,0,0.2,0.2,0.2,0.5
		c0.3,2.1,0.5,3.8,0.8,4.8C330.4,23.4,330.9,24.2,331.7,24.7z M328.7,20.6c-0.9,0.6-2.5,1.6-2.6,1.9c0,0.2,0.3,0.2,0.7,0.2
		c0.6,0,1.5-0.2,2.2-0.5C328.9,21.6,328.8,21.4,328.7,20.6z"/>
	<path class="st0" d="M333.7,18.1c-0.7,0-1.1-0.7-1.1-1.5c0-0.2,0-0.5,0.1-0.8c0.1-0.2,0.2-0.8,0.5-0.8c0.1,0,0.2,0.2,0.2,0.6v0.3
		c0,0.3,0.2,0.5,0.6,0.5h0c0.5,0,0.8-0.3,0.9-1c0.1-0.3,0.2-1.1,0.6-1.1c0.1,0,0.2,0.2,0.2,0.5c0,0.2,0.1,0.3,0.4,0.3
		c0.5,0,0.8-0.3,0.9-0.8c0.1-0.7,0.2-0.8,0.4-0.8c0.2,0,0.3,0.7,0.3,1.1c0,0.3,0,0.6-0.2,1c-0.2,0.7-0.7,1.2-1.5,1.2
		c-0.2,0-0.4-0.1-0.5-0.1c-0.1-0.1-0.1,0-0.2,0.1C334.9,17.6,334.5,18.1,333.7,18.1z M337.6,11.2C337.7,11.1,337.7,11.2,337.6,11.2
		c0,0.5-0.2,0.9-0.4,1.2c-0.1,0.1-0.2,0.2-0.5,0.3l-4,1.9c0,0-0.1,0-0.1-0.1c0-0.2,0.1-0.5,0.2-0.7c0.2-0.3,0.2-0.4,0.3-0.5
		c0.1-0.1,0.2-0.1,0.3-0.2L337.6,11.2z"/>
	<path class="st0" d="M336.8,26c-0.4,0.6-1.2,1.1-2.6,1.3c-0.4,0.1-0.9,0.1-1.4,0.1c-0.6,0-1-0.6-1-1.1s0.3-1.1,1-1.1h0.5
		c1,0,2.6,0,3.2-0.6c-0.1-0.9-0.8-2-1.1-2.4c0,0,0,0,0-0.1c0-0.4,0.7-1.8,0.7-1.9c0-0.1,0.1-0.1,0.1-0.1c0.3,0,1.1,1.6,1.1,3.5
		C337.5,24.4,337.4,25.3,336.8,26z M337.4,28.6c0.2-0.2,0.2-0.2,0.3-0.1c0.5,0.5,1,1.1,1.5,1.4c0.2,0.1,0.2,0.2,0,0.3
		c-0.5,0.5-0.9,1-1.3,1.5c-0.1,0.1-0.2,0.1-0.3,0c-0.4-0.3-0.9-0.7-1.4-1.2c-0.3,0.3-0.9,1-1.1,1.2c-0.1,0.1-0.2,0.2-0.4,0
		c-0.5-0.3-1.1-0.9-1.5-1.4c-0.1-0.1-0.1-0.2,0-0.3c0.4-0.5,0.9-1,1.4-1.5c0.1-0.1,0.2-0.1,0.3,0.1c0.4,0.4,1,1,1.4,1.2
		C336.6,29.5,337.1,28.9,337.4,28.6z"/>
	<path class="st0" d="M339,33.4c-0.3-0.2-0.4-0.3-0.4-0.4c0-0.1,0.2-0.2,0.4-0.2c0.3,0,1.1,0.2,1.8,0.2c0.6,0,1.2-0.2,2.1-0.6
		c2.4-1.2,3.9-3,3.9-4.2c0-0.2,0-0.3-0.1-0.7H346c-0.5,0-1.5-0.1-2.2-0.5c-0.7-0.4-1-0.9-1-1.5c0-0.6,0.3-1.4,0.6-2.2
		c0.6-1.3,1.2-2.2,1.9-2.2c0.7,0,1.3,0.5,1.8,1.1c0.5,0.7,0.7,1.8,0.7,2.8h1c0.6,0,0.9,0.3,0.9,1c0,0.8-0.3,1.2-0.9,1.2l-1.1,0.1
		c-0.2,3.5-1.3,5.8-4.1,6.9c-0.2,0.1-0.4,0.1-0.6,0.1C342,34.5,340.4,34,339,33.4z M345.3,23.8c-0.1-0.1-0.3-0.2-0.6-0.2
		c-0.5,0-0.8,0.5-0.8,0.8c0,0.2,0.2,0.5,0.8,0.7c0.4,0.2,0.9,0.2,1.1,0.2c0.2,0,0.2,0,0.2-0.1C346.1,24.9,345.7,24.1,345.3,23.8z"/>
	<path class="st0" d="M356.5,25.2c0.7,0,1,0.4,1,1.1c0,0.8-0.3,1.2-1,1.2h-0.3c-2.1,0-3.4-0.4-4.3-1c-0.8,0.5-1.9,1-3.2,1h-0.2
		c-0.6,0-0.9-0.4-0.9-1.2c0-0.7,0.3-1.1,1-1.1h0.2c0.9,0,1.4-0.1,1.7-0.4c-0.1-0.2-0.1-0.5-0.1-0.8c0-2.3,2.6-5.1,4-5.1
		c0.8,0,1.3,1,1.3,2.2c0,1.3-0.5,2.8-1.5,3.7c0.5,0.2,1.2,0.4,2.1,0.4H356.5z M353.9,14c0.1,0.1,0.1,0.1,0,0.2
		c-0.2,0.3-1.1,1.2-1.4,1.7c-0.1,0.1-0.1,0.1-0.2,0c-0.5-0.3-1.5-1-1.7-1.4c-0.1-0.1-0.1-0.1,0-0.2c0.3-0.5,0.9-1.2,1.3-1.6
		c0.2-0.2,0.2-0.2,0.3-0.1C352.5,12.9,353.3,13.6,353.9,14z M353.3,21.2c-0.8,0-1.6,0.9-1.6,1.2c0,0.5,0.4,0.9,1.2,1.4
		c0.3-0.1,1.4-1,1.4-1.3C354.3,21.7,354,21.2,353.3,21.2z"/>
	<path class="st0" d="M362.4,10.4c-0.7,0-1.1-0.7-1.1-1.5c0-0.2,0-0.5,0.1-0.8c0.1-0.2,0.2-0.8,0.5-0.8c0.1,0,0.2,0.2,0.2,0.6v0.3
		c0,0.3,0.2,0.5,0.6,0.5h0c0.5,0,0.8-0.3,0.9-1c0.1-0.3,0.2-1.1,0.6-1.1c0.1,0,0.2,0.2,0.2,0.5c0,0.2,0.1,0.3,0.4,0.3
		c0.5,0,0.8-0.3,0.9-0.8c0.1-0.7,0.2-0.8,0.4-0.8c0.2,0,0.3,0.7,0.3,1.1c0,0.3,0,0.6-0.2,1c-0.2,0.7-0.7,1.2-1.5,1.2
		c-0.2,0-0.4-0.1-0.5-0.1c-0.1-0.1-0.1,0-0.2,0.1C363.6,9.9,363.1,10.4,362.4,10.4z M366.3,3.5C366.3,3.5,366.3,3.6,366.3,3.5
		c0,0.5-0.2,0.9-0.4,1.2c-0.1,0.1-0.2,0.2-0.5,0.3l-4,1.9c0,0-0.1,0-0.1-0.1c0-0.2,0.1-0.5,0.2-0.7c0.2-0.3,0.2-0.4,0.3-0.5
		c0.1-0.1,0.2-0.1,0.3-0.2L366.3,3.5z"/>
	<path class="st0" d="M365,22.9c0.1,0,0.2,0.1,0.2,0.5c0,0.1,0,0.3,0,0.5c0,0.7,0.5,1.1,1.2,1.1c1,0,1.5-1,1.9-1.8
		c0-0.1,0.2-0.4,0.3-0.4c0.1,0,0.2,0.1,0.2,0.6c0.1,1.1,0.7,1.7,1.5,1.7h0.3c0.7,0,1.1,0.3,1.1,1c0,0.8-0.4,1.3-1.1,1.3h-0.3
		c-1.3,0-2-0.6-2.2-1.9c-0.3,0.9-1.2,2-2.3,2c-1.1,0-1.6-0.9-1.7-1.9c-0.4,1.1-1.5,1.9-2.7,1.9c-1.2,0-2-0.4-2.3-1.6
		c-0.2,0.4-0.4,0.8-0.8,1.1c-0.4,0.3-1.1,0.5-2.1,0.5h-0.2c-0.7,0-1-0.4-1-1.2c0-0.7,0.3-1.1,1-1.1h0.3c1.6,0,2.6-0.6,3.2-1.7
		c0-0.1,0.2-0.3,0.3-0.3c0.2,0,0.2,0.2,0.2,0.5c0,0.9,0.8,1.3,1.8,1.3c1.2,0,2.1-0.5,2.8-1.7C364.8,23.1,364.9,22.9,365,22.9z
		 M365.8,17.3c0.2-0.2,0.2-0.2,0.3-0.1c0.5,0.5,1,1.1,1.5,1.4c0.2,0.1,0.2,0.2,0,0.3c-0.5,0.5-0.9,1-1.3,1.5c-0.1,0.1-0.2,0.1-0.3,0
		c-0.4-0.3-0.9-0.7-1.4-1.2c-0.3,0.3-0.9,1-1.1,1.2c-0.1,0.1-0.2,0.2-0.4,0c-0.5-0.3-1.1-0.9-1.5-1.4c-0.1-0.1-0.1-0.2,0-0.3
		c0.4-0.5,0.9-1,1.4-1.5c0.1-0.1,0.2-0.1,0.3,0.1c0.4,0.4,1,1,1.4,1.2C365,18.2,365.6,17.6,365.8,17.3z M366.2,14
		c0.1,0.1,0.1,0.1,0,0.2c-0.2,0.3-1.1,1.2-1.4,1.7c-0.1,0.1-0.1,0.1-0.2,0c-0.5-0.3-1.5-1-1.7-1.4c-0.1-0.1-0.1-0.1,0-0.2
		c0.3-0.5,0.9-1.2,1.3-1.6c0.2-0.2,0.2-0.2,0.3-0.1C364.8,13,365.5,13.6,366.2,14z"/>
	<path class="st0" d="M372.9,26.4c-0.5,0.7-1.2,1-2.3,1h-0.2c-0.7,0-1-0.4-1-1.2c0-0.7,0.3-1.1,1-1.1h0.2c0.5,0,1-0.1,1.5-0.2
		c0.4-0.1,0.6-0.3,0.7-0.4c0-1.7-0.6-5.4-0.9-8.9c0-0.4-0.3-1.6-0.4-2.1c0-0.1,0-0.2,0-0.2c0-0.3,0.3-0.9,0.5-1.3
		c0.3-0.5,0.5-0.9,0.7-0.9c0.1,0,0.1,0.1,0.2,0.2c0.3,1,0.6,1.5,0.8,1.8c0.1,0.1,0.1,0.2,0.1,0.3c0,0,0,0.1,0,0.1
		c-0.1,0.2-0.4,0.8-0.6,1.1c0.2,3.4,0.7,6.2,0.7,7.8C373.9,24.1,373.6,25.4,372.9,26.4z"/>
	<path class="st0" d="M378.5,27.5c-0.1,0-0.2-0.2-0.2-0.7c0-3-1.1-11.3-1.1-12.7c0-0.7,0.5-1.7,0.9-2.5c0.1-0.2,0.3-0.5,0.5-0.5
		c0.1,0,0.2,0.2,0.2,0.8c0.1,2.2,0.7,7.3,0.7,11c0,1.5-0.1,2.7-0.4,3.5C378.8,27.1,378.7,27.5,378.5,27.5z"/>
	<path class="st0" d="M404.6,29.3c0.1-0.1,0.1,0,0.1,0.1c0,0.6-0.2,1.1-0.5,1.3l-4.1,2.3c-0.1,0-0.1,0-0.1-0.1c0-0.3,0.1-0.8,0.2-1
		c0.1-0.2,0.3-0.3,0.7-0.5L404.6,29.3z"/>
	<path class="st0" d="M409.6,21.8c0,0.5-0.3,1.8-0.6,2.8c-0.3,0.7-0.4,0.8-1.2,1.2c-1.7,0.8-5.7,2-9.8,2c-5.3,0-7.4-1.8-7.4-4.3
		c0-0.9,0.4-2.4,1-3.3c0.2-0.3,0.4-0.6,0.6-0.6c0.1,0,0.1,0,0.1,0.1c0,0.1-0.1,0.3-0.1,0.5c-0.2,0.7-0.5,1.4-0.5,2
		c0,1.1,1.4,3.1,6.5,3.2c3.7,0,7.7-0.8,9.4-1.4c0.9-0.3,0.9-0.5,0.9-1.1c0-0.5-0.1-0.8-0.3-1.3c-0.2,0.5-0.9,1-1.8,1
		c-1.1,0-1.8-0.7-1.8-2c0-1.8,1.4-4.1,2-4.1C408.2,16.4,409.6,19,409.6,21.8z M404.6,13.6c0.1,0.1,0.1,0.1,0,0.2
		c-0.2,0.3-1.1,1.2-1.4,1.7c-0.1,0.1-0.1,0.1-0.2,0c-0.5-0.3-1.5-1-1.7-1.4c-0.1-0.1-0.1-0.1,0-0.2c0.3-0.5,0.9-1.2,1.3-1.6
		c0.2-0.2,0.2-0.2,0.3-0.1C403.1,12.6,403.9,13.2,404.6,13.6z M406.3,18.6c-0.3,0-0.6,0.4-0.7,0.8c0,0,0,0.1,0,0.1c0,0,0,0.1,0,0.1
		c0.1,0.3,0.5,0.5,1,0.5c0.4,0,0.8-0.2,0.9-0.3c0,0,0.1-0.1,0.1-0.1C407.6,19.6,407.1,18.6,406.3,18.6z"/>
	<path class="st0" d="M417.6,23.3c0.3,0.9,0.5,1.8,0.5,3.1c0,4-1.1,6.5-4.2,7.7c-0.2,0.1-0.4,0.1-0.6,0.1c-1,0-2.6-0.5-4-1.1
		c-0.3-0.2-0.4-0.3-0.4-0.4c0-0.1,0.1-0.2,0.4-0.2c0.2,0,1.1,0.2,1.8,0.2c0.9,0,1.9-0.4,3.3-1.3c1.5-1,2.8-2.3,2.8-3.8
		c0-0.5-0.1-1-0.4-1.5c-0.3,0.7-0.8,1.1-1.5,1.1c-1.3,0-2.1-0.7-2.1-2.1c0-0.5,0.3-1.3,0.6-2.1c0.5-1,1.2-1.9,1.8-1.9
		C416.3,21.1,417.1,22,417.6,23.3z M415.1,23.4c-0.3,0-0.5,0.2-0.7,0.5c-0.1,0.1-0.2,0.4-0.2,0.5c0,0.4,0.6,0.6,1.1,0.6
		c0.4,0,0.7-0.2,0.8-0.4C416.1,23.8,415.4,23.4,415.1,23.4z"/>
	<path class="st0" d="M428.6,25.2c0.7,0,1.1,0.4,1.1,1.1c0,0.8-0.4,1.2-1.1,1.2h-0.2c-0.6,0-1,0-1.3-0.1c0,0.1,0,0.2,0,0.3
		c0,0.7-0.1,1.5-0.4,2.1c-0.5,1.2-1.3,3.3-3.6,4.3c-0.4,0.2-0.8,0.3-1.2,0.3c-0.9,0-2.4-0.5-3.5-1c-0.3-0.2-0.4-0.3-0.4-0.4
		c0-0.1,0.1-0.2,0.4-0.2c0.3,0,0.8,0.1,1.3,0.1c3.1,0,6.2-2.7,6.6-5c0-0.5-1.1-1.6-1.3-1.9c0-0.1-0.1-0.2-0.1-0.3
		c0-0.5,0.4-1.5,0.6-1.8c0.1-0.2,0.2-0.2,0.3-0.2c0.2,0,0.3,0.2,0.6,0.7c0.4,0.6,0.9,0.9,1.8,0.9H428.6z"/>
	<path class="st0" d="M432,14c0,0.5-0.1,1-0.3,1.5c0.2,0.1,0.4,0.3,0.4,0.4c0,0.4-0.2,0.7-0.3,1c-0.1,0.1-0.1,0.1-0.1,0.1l-0.5-0.3
		c-0.5,0.8-1.3,1.8-2.5,2.3c-0.4,0.2-0.9,0.4-1.5,0.4c-0.3,0-0.4-0.1-0.4-0.1c0-0.1,0.2-0.2,0.6-0.4c0.9-0.5,2.5-1.8,3.1-2.5
		c-0.5-0.3-1.1-0.7-1.1-1.4c0-0.4,0.2-0.9,0.6-1.3c0.4-0.5,0.8-0.8,1.2-0.8C431.8,12.8,432,13.5,432,14z M430.2,14.5
		C430.2,14.5,430.2,14.5,430.2,14.5c0,0.2,0.4,0.5,0.8,0.7c0.1-0.2,0.1-0.4,0.1-0.7c0-0.3-0.1-0.4-0.3-0.4
		C430.6,14.1,430.4,14.2,430.2,14.5z"/>
	<path class="st0" d="M434.4,5.4c0.7,0,1.7,1,1.7,2.1c0,0.4-0.1,0.8-0.2,1.2c-0.3,0.8-0.9,1.3-1.8,1.3c-0.8,0-1.3-0.6-1.3-1.3
		C432.7,7.6,433.8,5.4,434.4,5.4z M434.1,7c-0.3,0-0.7,0.6-0.7,1c0,0.3,0.4,0.6,0.8,0.6c0.5,0,1.1-0.3,1.1-0.5
		C435.3,7.8,434.7,7,434.1,7z"/>
	<path class="st0" d="M435.2,18c0,0.6-0.1,1.1-0.2,1.4c-0.1,0.4-0.2,0.7-0.3,1c-0.1,0.3-0.4,0.6-0.9,1c0.9,0.2,1.8,0.5,2.8,0.8
		c1.1,0.3,2,0.6,2.6,0.7c0.6,0.2,1.4,0.2,2.4,0.3l1.7,0.1c0.2,0,0.2,0.1,0.2,0.2c-0.3,0.4-0.7,0.9-1.3,1.6c-0.1,0.2-0.2,0.2-0.4,0.2
		c-0.2,0-1.3-0.2-2.9-0.2c-0.8,0-1.5,0.1-2.3,0.3c-0.7,0.2-1.7,0.5-2.8,0.9s-2.1,0.7-2.7,0.9c-0.6,0.2-1.5,0.3-2.4,0.3h-0.2
		c-0.7,0-1-0.4-1-1.2c0-0.8,0.3-1.1,1-1.1h0.3c2.5,0,4.7-0.4,6.7-1c-0.2-0.2-0.9-0.4-2.3-0.8c-1.3-0.4-2.4-0.6-3.1-0.6
		c-0.2,0-0.2,0-0.2-0.1c0-0.3,0.4-0.8,1.3-1.6c0.1-0.1,0.2-0.2,0.3-0.2c0.2-0.1,0.5-0.2,0.9-0.3c0.3-0.1,0.7-0.2,1.3-0.5
		c0.6-0.2,0.8-0.5,0.8-0.8l-0.7-4.2c-0.1-0.4-0.3-1.3-0.4-1.7c0-0.1,0-0.2,0-0.3c0,0,0-0.1,0-0.2c0-0.1,0.1-0.4,0.4-0.9
		c0.2-0.5,0.6-1,0.8-1c0.1,0,0.1,0.1,0.2,0.2c0.3,0.9,0.6,1.4,0.8,1.8c0,0.1,0.1,0.2,0.1,0.2c0,0.1,0,0.1,0,0.2
		c-0.1,0.2-0.3,0.7-0.5,1C435.1,15.7,435.3,17,435.2,18z"/>
	<path class="st0" d="M447.1,27.5c-0.1,0-0.2-0.2-0.2-0.7c0-3-1.1-11.3-1.1-12.7c0-0.7,0.5-1.7,0.9-2.5c0.1-0.2,0.3-0.5,0.5-0.5
		c0.1,0,0.2,0.2,0.2,0.8c0.1,2.2,0.7,7.3,0.7,11c0,1.5-0.1,2.7-0.4,3.5C447.5,27.1,447.3,27.5,447.1,27.5z"/>
	<path class="st0" d="M469,25.3c0-0.3,0.3-1.4,0.6-2c0.1-0.1,0.1-0.2,0.2-0.2c0.1,0,0.2,0.1,0.2,0.2c0.6,1.2,1.1,1.8,1.9,1.8h0.3
		c0.7,0,1,0.4,1,1.1c0,0.8-0.3,1.2-1,1.2h-0.3c-0.4,0-0.7,0-0.9-0.1c-0.1,1.8-0.2,2.6-0.4,3c-0.3,0.9-0.8,1.7-2.1,2.6
		c-1.2,0.9-3,1.5-5.5,1.5c-2.5,0-4.4-1.7-4.4-4.5c0-1.4,0.7-3.1,1.3-3.8c0.2-0.3,0.5-0.6,0.6-0.6c0.1,0,0.1,0.1,0.1,0.2
		c0,0.2-0.1,0.4-0.2,0.7c-0.5,0.9-0.8,1.7-0.8,2.7c0,1.9,2.3,3,3.9,3c2.7,0,5.6-1,6.4-2.5c0-0.1,0.1-0.2,0.1-0.4
		c-0.1-1.9-0.3-2.6-0.9-3.7C469,25.4,469,25.4,469,25.3z M466.6,20.2c0.1,0.1,0.1,0.1,0,0.2c-0.2,0.3-1.1,1.2-1.4,1.7
		c-0.1,0.1-0.1,0.1-0.2,0c-0.5-0.3-1.5-1-1.7-1.4c-0.1-0.1-0.1-0.1,0-0.2c0.3-0.5,0.9-1.2,1.3-1.6c0.2-0.2,0.2-0.2,0.3-0.1
		C465.2,19.1,465.9,19.7,466.6,20.2z"/>
	<path class="st0" d="M480,29.4c0.1-0.1,0.1,0,0.1,0.1c0,0.6-0.2,1.1-0.5,1.3l-4.1,2.3c-0.1,0-0.1,0-0.1-0.1c0-0.3,0.1-0.8,0.2-1
		c0.1-0.2,0.3-0.3,0.7-0.5L480,29.4z"/>
	<path class="st0" d="M472,27.5h-0.1c-0.7,0-1-0.4-1-1.2c0-0.7,0.4-1.1,1-1.1h0.1c1.2,0,2.2-0.5,2.9-1.4l1.3-2
		c0.7-1.1,1.7-1.5,2.2-1.5c1.7,0,2.4,2.9,2.4,4.1c0,1-1.1,2.4-1.6,2.4c-0.8,0-2.8-1-3.8-1.9C474.4,26.7,473.3,27.5,472,27.5z
		 M477.3,22.3c-0.2,0-0.3,0.1-0.5,0.3c-0.1,0.1-0.2,0.3-0.3,0.5c0.5,0.3,1.9,1,2.5,1.4C479,23.6,478,22.3,477.3,22.3z"/>
	<path class="st0" d="M503.7,5.7c0.1,0.2,0.2,0.5,0.2,0.8c0,0.5-0.2,0.9-0.4,1.4c0.2,0.2,0.3,0.3,0.3,0.4c0,0.3-0.2,0.6-0.5,0.9
		l-0.5-0.4c-0.6,0.8-1.1,1.3-1.7,1.5c-0.6,0.3-1.9,0.6-2.8,0.8c-0.3,0-0.4,0-0.4-0.1c0,0,0-0.1,0.2-0.2c2.2-1.2,3.6-2.1,4.2-2.5
		c-0.4-0.3-0.8-0.7-0.8-1.3c0-0.5,0.3-0.8,0.7-1.2c0.4-0.4,0.8-0.6,1.1-0.6C503.4,5.4,503.6,5.5,503.7,5.7z M499.6,6
		c0.9-1.6,2.8-3,4.7-3c1,0,2.6,0.4,2.6,1.3c0,1.1-1.4,2.7-2.4,3.4c0,0,0,0-0.1,0c-0.1,0-0.2-0.2-0.2-0.3c0,0,0,0,0-0.1
		c0.9-0.8,1.4-1.3,1.4-1.9c-0.2-0.7-1.2-1.1-1.9-1.1c-1.5,0-3.7,1.3-3.8,3c0,0.2,0.2,0.5,0.7,0.9c0,0,0,0,0,0.1
		c-0.2,0.2-0.4,0.6-1,0.9c0,0-0.1,0.1-0.1,0.1c-0.1,0-0.7-0.4-0.7-1C498.8,7.7,499.2,6.7,499.6,6z M502.2,6.9
		c0.1,0.2,0.3,0.4,0.7,0.6c0.1-0.1,0.2-0.3,0.2-0.6c0-0.3-0.1-0.4-0.3-0.4C502.6,6.5,502.3,6.6,502.2,6.9z"/>
	<path class="st0" d="M509.9,21.8c0,0.5-0.3,1.8-0.6,2.8c-0.3,0.7-0.4,0.8-1.2,1.2c-1.7,0.8-5.7,2-9.8,2c-5.3,0-7.4-1.8-7.4-4.3
		c0-0.9,0.4-2.4,1-3.3c0.2-0.3,0.4-0.6,0.6-0.6c0.1,0,0.1,0,0.1,0.1c0,0.1-0.1,0.3-0.1,0.5c-0.2,0.7-0.5,1.4-0.5,2
		c0,1.1,1.4,3.1,6.5,3.2c3.7,0,7.7-0.8,9.4-1.4c0.9-0.3,0.9-0.5,0.9-1.1c0-0.5-0.1-0.8-0.3-1.3c-0.2,0.5-0.9,1-1.8,1
		c-1.1,0-1.8-0.7-1.8-2c0-1.8,1.4-4.1,2-4.1C508.5,16.4,509.9,19,509.9,21.8z M504.9,13.6c0.1,0.1,0.1,0.1,0,0.2
		c-0.2,0.3-1.1,1.2-1.4,1.7c-0.1,0.1-0.1,0.1-0.2,0c-0.5-0.3-1.5-1-1.7-1.4c-0.1-0.1-0.1-0.1,0-0.2c0.3-0.5,0.9-1.2,1.3-1.6
		c0.2-0.2,0.2-0.2,0.3-0.1C503.4,12.6,504.2,13.2,504.9,13.6z M506.6,18.6c-0.3,0-0.6,0.4-0.7,0.8c0,0,0,0.1,0,0.1c0,0,0,0.1,0,0.1
		c0.1,0.3,0.5,0.5,1,0.5c0.4,0,0.8-0.2,0.9-0.3c0,0,0.1-0.1,0.1-0.1C507.9,19.6,507.4,18.6,506.6,18.6z"/>
	<path class="st0" d="M514.8,16.9c0.7,0,1.7,1,1.7,2.1c0,0.4-0.1,0.8-0.2,1.2c-0.3,0.8-0.9,1.3-1.8,1.3c-0.8,0-1.3-0.6-1.3-1.3
		C513.1,19,514.3,16.9,514.8,16.9z M514.6,18.5c-0.3,0-0.7,0.6-0.7,1c0,0.3,0.4,0.6,0.8,0.6c0.5,0,1.1-0.3,1.1-0.5
		C515.8,19.3,515.1,18.5,514.6,18.5z"/>
	<path class="st0" d="M518.4,25.2c0.7,0,1.1,0.4,1.1,1.1c0,0.8-0.4,1.2-1.1,1.2h-0.2c-0.6,0-1,0-1.3-0.1c0,0.1,0,0.2,0,0.3
		c0,0.7-0.1,1.5-0.4,2.1c-0.5,1.2-1.3,3.3-3.6,4.3c-0.4,0.2-0.8,0.3-1.2,0.3c-0.9,0-2.4-0.5-3.5-1c-0.3-0.2-0.4-0.3-0.4-0.4
		c0-0.1,0.1-0.2,0.4-0.2c0.3,0,0.8,0.1,1.3,0.1c3.1,0,6.2-2.7,6.6-5c0-0.5-1.1-1.6-1.3-1.9c0-0.1-0.1-0.2-0.1-0.3
		c0-0.5,0.4-1.5,0.6-1.8c0.1-0.2,0.2-0.2,0.3-0.2c0.2,0,0.3,0.2,0.6,0.7c0.4,0.6,0.9,0.9,1.8,0.9H518.4z"/>
	<path class="st0" d="M525.7,14.1c0.1-0.1,0.1,0,0.1,0.1c0,0.6-0.2,1.1-0.5,1.3l-4.1,2.3c-0.1,0-0.1,0-0.1-0.1c0-0.3,0.1-0.8,0.2-1
		c0.1-0.2,0.3-0.3,0.7-0.5L525.7,14.1z"/>
	<path class="st0" d="M521.1,22.2c-0.2,0-0.5,0-0.6,0.1c-0.2,0.1-0.6,0.3-0.8,0.3c-0.2,0-0.2-0.1-0.2-0.2c0-0.4,0.6-1.3,1.2-1.8
		c0.5-0.4,1-0.6,1.4-0.6c0.2,0,0.3,0,0.5,0.1c1.8,0.4,4.1,1.4,6,1.8c1.3,0.3,2.6,0.4,3.4,0.4c0.2,0,0.3,0,0.5,0c0.1,0,0.1,0,0.1,0.1
		c0,0.4-0.7,1.5-1.1,1.9c-0.1,0.1-0.3,0.1-0.6,0.1c-0.5,0-1.6-0.1-1.9-0.1c-0.9,0-1.6,0.1-2.2,0.3c-0.4,0.2-1.2,0.5-2.3,1
		c-1.7,0.8-2.8,1.4-3.6,1.7c-0.8,0.3-1.6,0.5-2.5,0.5H518c-0.7,0-1.1-0.4-1.1-1.2c0-0.7,0.4-1.1,1.1-1.1h0.3c1.4,0,2.5-0.1,3.4-0.4
		c0.9-0.3,2.3-0.7,4-1.4C523.8,22.8,522.2,22.2,521.1,22.2z"/>
	<path class="st0" d="M547,19.5c0.1-0.1,0.1,0,0.1,0.1c0,0.6-0.2,1.1-0.5,1.3l-4.1,2.3c-0.1,0-0.1,0-0.1-0.1c0-0.3,0.1-0.8,0.2-1
		c0.1-0.2,0.3-0.3,0.7-0.5L547,19.5z"/>
	<path class="st0" d="M552.9,31.9c0.2-0.2,0.2-0.2,0.3-0.1c0.5,0.5,1,1.1,1.5,1.4c0.2,0.1,0.2,0.2,0,0.3c-0.5,0.5-0.9,1-1.3,1.5
		c-0.1,0.1-0.2,0.1-0.3,0c-0.4-0.3-0.9-0.7-1.4-1.2c-0.3,0.3-0.9,1-1.1,1.2c-0.1,0.1-0.2,0.2-0.4,0c-0.5-0.3-1.1-0.9-1.5-1.4
		c-0.1-0.1-0.1-0.2,0-0.3c0.4-0.5,0.9-1,1.4-1.5c0.1-0.1,0.2-0.1,0.3,0.1c0.4,0.4,1,1,1.4,1.2C552.1,32.7,552.6,32.1,552.9,31.9z"/>
	<path class="st0" d="M550,28.7c0,0.1,0,0.2-0.1,0.5c-0.3,0.8-0.6,1.3-0.8,1.6c-0.1,0.1-0.1,0.1-0.2,0.1c-0.5-0.2-1.1-0.3-2.2-0.4
		c-1.7,0-2.8,0.3-3.1,0.9c0.2,1.2,0.4,2.1,0.5,2.6l0.4,2.1c0.2,1.1,0.3,2.2,0.3,3.1c0,0.9-0.1,1.9-0.4,2.8c-0.1,0.4-0.3,0.6-0.4,0.6
		c-0.1,0-0.1-0.2-0.1-0.5c0-0.3,0.1-0.7,0-1.2c0-0.9-0.2-2.1-0.6-4.6c-0.3-1.9-0.6-3-0.6-3.5c0-1,0.2-1.9,0.7-2.8
		c0.5-0.9,1.1-1.5,1.8-1.8l0.7-1.6c0.5-1.2,1.3-2,2.1-2.5c0.8-0.5,2.1-1.1,3.1-1.1c0.3,0,0.6,0.1,0.8,0.2c0.3,0.2,0.6,0.5,1,1.1
		c0.4,0.6,0.8,0.8,1.3,0.8h0.3c0.6,0,0.9,0.3,0.9,1c0,0.8-0.3,1.2-0.9,1.2H554c-0.7,0-1.4-0.3-2-1c-0.5-0.5-0.8-0.9-1.2-1
		c-0.2-0.1-0.4-0.1-0.9-0.1c-1.1,0-2.1,0.4-2.9,1.1c0.9,0.4,1.6,0.8,2.1,1.3C549.6,28.1,549.9,28.5,550,28.7z"/>
	<path class="st0" d="M556.9,5.5c0.7,0,1.7,1,1.7,2.1c0,0.4-0.1,0.8-0.2,1.2c-0.3,0.8-0.9,1.3-1.8,1.3c-0.8,0-1.3-0.6-1.3-1.3
		C555.2,7.7,556.3,5.5,556.9,5.5z M556.6,7.1c-0.3,0-0.7,0.6-0.7,1c0,0.3,0.4,0.6,0.8,0.6c0.5,0,1.1-0.3,1.1-0.5
		C557.8,8,557.2,7.1,556.6,7.1z"/>
	<path class="st0" d="M558.4,22.8c0.1,0.5,0.4,0.9,0.7,1.1c0.3,0.2,0.7,0.4,1.1,0.6c0.4,0.2,0.7,0.3,0.8,0.4
		c0.2,0.1,0.3,0.8,0.3,1.2c0,0.4-0.1,1-0.4,1.4c-0.1,0.1-0.2,0.1-0.2,0.1c-1.3-0.7-2.3-1.1-3-1.1c-0.5,0-0.9,0.2-1.5,0.5
		c-0.6,0.3-1.3,0.6-2,0.6h-0.2c-0.6,0-0.9-0.4-0.9-1.1c0-0.8,0.3-1.2,0.9-1.2h0.2c0.9,0,1.9-0.3,3.1-0.8c0-0.2-0.1-0.7-0.2-1.6
		c-0.1-0.9-0.4-4.1-0.8-8c-0.1-0.4-0.2-1-0.3-1.4c0-0.1,0-0.2,0-0.3c0,0,0-0.1,0-0.2c0-0.1,0.1-0.4,0.4-0.8c0.3-0.5,0.6-1.1,0.8-1.1
		c0.1,0,0.1,0.1,0.2,0.2c0.3,0.9,0.5,1.4,0.7,1.8c0,0.1,0.1,0.2,0.1,0.2c0,0.1,0,0.1,0,0.2c-0.1,0.2-0.4,0.9-0.6,1.2
		C557.9,19.4,558.2,22.2,558.4,22.8z"/>
	<path class="st0" d="M565.2,27.5c-0.1,0-0.2-0.2-0.2-0.7c0-3-1.1-11.3-1.1-12.7c0-0.7,0.5-1.7,0.9-2.5c0.1-0.2,0.3-0.5,0.5-0.5
		c0.1,0,0.2,0.2,0.2,0.8c0.1,2.2,0.7,7.3,0.7,11c0,1.5-0.1,2.7-0.4,3.5C565.6,27.1,565.4,27.5,565.2,27.5z"/>
	<path class="st0" d="M581.3,11.2c-0.7,0-1.1-0.7-1.1-1.5c0-0.2,0-0.5,0.1-0.8c0.1-0.2,0.2-0.8,0.5-0.8c0.1,0,0.2,0.2,0.2,0.6V9
		c0,0.3,0.2,0.5,0.6,0.5h0c0.5,0,0.8-0.3,0.9-1c0.1-0.3,0.2-1.1,0.6-1.1c0.1,0,0.2,0.2,0.2,0.5c0,0.2,0.1,0.3,0.4,0.3
		c0.5,0,0.8-0.3,0.9-0.8c0.1-0.7,0.2-0.8,0.4-0.8c0.2,0,0.3,0.7,0.3,1.1c0,0.3,0,0.6-0.2,1c-0.2,0.7-0.7,1.2-1.5,1.2
		c-0.2,0-0.4-0.1-0.5-0.1c-0.1-0.1-0.1,0-0.2,0.1C582.6,10.7,582.1,11.2,581.3,11.2z M585.2,4.3C585.3,4.3,585.3,4.4,585.2,4.3
		c0,0.5-0.2,0.9-0.4,1.2c-0.1,0.1-0.2,0.2-0.5,0.3l-4,1.9c0,0-0.1,0-0.1-0.1c0-0.2,0.1-0.5,0.2-0.7c0.2-0.3,0.2-0.4,0.3-0.5
		c0.1-0.1,0.2-0.1,0.3-0.2L585.2,4.3z"/>
	<path class="st0" d="M578.8,28.2c-0.9-0.8-1.4-2.1-1.4-3.4c0-1.5,0.9-3.2,1.4-3.9c0.2-0.3,0.4-0.4,0.5-0.4c0.1,0,0.1,0.1,0.1,0.2
		c0,0.1-0.1,0.3-0.2,0.5c-0.4,0.9-0.9,1.8-0.9,2.9c0,0.8,0.6,1.6,1.4,2.1c0.8,0.5,1.7,0.8,2.7,0.8c2.4,0,5.7-1,6.4-2.7
		c0-0.2,0-0.3,0-0.4c0-1.1-0.3-2.3-0.9-3.1c-0.2-0.4-0.4-0.7-0.5-0.8c0,0,0-0.1,0-0.2c0-0.2,0.1-0.5,0.2-0.8
		c0.2-0.4,0.3-0.8,0.4-1.1c0.1-0.1,0.1-0.2,0.2-0.2c0.1,0,0.1,0,0.2,0.3c0.7,1.5,1.3,2.9,1.3,4.7c0,1.4-0.2,2.3-0.3,2.7
		c-0.4,0.9-0.6,1.3-1.1,1.8c-0.5,0.5-1.4,1.2-2.5,1.6c-1.1,0.5-2.4,0.7-4.1,0.7C580.7,29.2,579.6,29,578.8,28.2z M585.3,14.3
		c0.1,0.1,0.1,0.1,0,0.2c-0.2,0.3-1.1,1.2-1.4,1.7c-0.1,0.1-0.1,0.1-0.2,0c-0.5-0.3-1.5-1-1.7-1.4c-0.1-0.1-0.1-0.1,0-0.2
		c0.3-0.5,0.9-1.2,1.3-1.6c0.2-0.2,0.2-0.2,0.3-0.1C583.9,13.2,584.6,13.9,585.3,14.3z"/>
	<path class="st0" d="M593.4,0c0.1-0.1,0.1,0,0.1,0.1c0,0.6-0.2,1.1-0.5,1.3l-4.1,2.3c-0.1,0-0.1,0-0.1-0.1c0-0.3,0.1-0.8,0.2-1
		c0.1-0.2,0.3-0.3,0.7-0.5L593.4,0z"/>
	<path class="st0" d="M593.3,8.2c-0.2,0.2-0.2,0.3-0.4,0.4c-0.8,0.4-2.6,1.5-4,2.5c-0.1,0.1-0.2,0.1-0.2-0.1c0-0.1,0.1-0.4,0.2-0.6
		c0.1-0.2,0.5-0.6,0.8-0.9c0.1-0.1,0.1-0.1-0.1-0.2c-0.7-0.2-0.9-0.6-0.9-1.1c0-0.9,0.9-2.2,1.7-2.9c0.3-0.2,0.7-0.5,1.1-0.5
		c0.5,0,0.8,0.2,0.8,0.7c0,0.3-0.1,0.6-0.2,1c-0.2,0.5-0.3,0.5-0.6,0.2c-0.2-0.2-0.4-0.2-0.5-0.2c-0.8,0-1.3,0.5-1.3,0.7
		c0,0.3,1.3,0.8,1.8,0.8c0.1,0,0.1,0,0.3-0.1c0.4-0.1,1.2-0.5,1.4-0.6c0.3-0.2,0.4-0.2,0.3,0.2C593.6,7.6,593.5,7.9,593.3,8.2z"/>
	<path class="st0" d="M600.5,27.8c0.1-0.1,0.1,0,0.1,0.1c0,0.6-0.2,1.1-0.5,1.3l-4.1,2.3c-0.1,0-0.1,0-0.1-0.1c0-0.3,0.1-0.8,0.2-1
		c0.1-0.2,0.3-0.3,0.7-0.5L600.5,27.8z"/>
	<path class="st0" d="M601.1,13c0.1,0.2,0.1,0.2,0.1,0.3c0,0.1,0,0.1-0.1,0.2c-0.2,0.4-0.5,1-0.8,1.3c-0.2,2.4-0.5,4.3-1.6,7
		c0.3,0.8,0.5,1.9,0.5,2.9c0,0.7-0.1,1.3-0.3,1.8c-0.2,0.4-2.7,0.8-4.4,0.8c-0.5,0-0.8,0-1.1-0.1c-0.1,0-0.2-0.3-0.2-0.7
		c0-0.6,0.1-1.5,0.3-1.8c0-0.1,0.1-0.1,0.1-0.1c0.1,0,0.1,0,0.2,0c1.4,0,2.8-1.3,3.7-2.9c-1.1-2.2-3.5-5.2-5.6-6.6
		c0,0.1-0.4,0.6-0.7,0.6c-0.3,0-2.2-1.8-2.2-2.2c0-0.2-0.1-0.4-0.1-0.6c0-0.6,0.1-1.1,0.2-1.4c0.1-0.3,0.3-0.4,0.4-0.4
		c0.2,0,0.5,0.2,0.8,0.4c1.6,1.1,3.2,2.4,4.5,4c1,1.3,2.3,3,3.3,5.1c0.6-1.3,0.7-2.2,0.9-3.9c0.1-1,0.1-1.7,0.1-2.2
		c0-1.1-0.1-1.5-0.1-1.8c0-0.2,0.1-0.4,0.2-0.7c0.4-0.7,0.7-1.2,0.8-1.2c0.1,0,0.1,0.1,0.2,0.2C600.6,11.8,600.8,12.4,601.1,13z
		 M598,22.9c-0.8,1.1-0.9,1.3-1.7,2.1c0.8,0,1.5-0.1,2.1-0.3C598.4,24.3,598.4,23.7,598,22.9z"/>
	<path class="st0" d="M622.4,7.8c0.1-0.1,0.1,0,0.1,0.1c0,0.6-0.2,1.1-0.5,1.3l-4.1,2.3c-0.1,0-0.1,0-0.1-0.1c0-0.3,0.1-0.8,0.2-1
		c0.1-0.2,0.3-0.3,0.7-0.5L622.4,7.8z"/>
	<path class="st0" d="M618.2,25.9c2.5,0,5.1-0.5,6.7-1.4c0.8-0.4,1.4-1,1.5-1.6c0.1-0.4,0.2-0.9,0.2-1.1c0-0.3-0.5-6.3-0.6-8.2
		c0,0,0-0.1,0-0.2c0.1-0.3,0.4-0.8,0.6-1.2c0.1-0.3,0.3-0.6,0.4-0.6c0.1,0,0.1,0.1,0.2,0.7c0.2,4.1,0.4,7.6,0.6,9.2
		c0.1,0.9,0.3,1.8,0.5,2.4c0.4,0.9,1.1,1.3,1.8,1.3h0.3c0.7,0,1.1,0.3,1.1,1c0,0.8-0.4,1.3-1.1,1.3h-0.3c-1,0-1.9-0.4-2.4-1.3
		c-0.3-0.5-0.5-1.3-0.7-2.4c-0.3,1.3-1.4,2.2-2.8,3c-2.1,1-4.9,1.6-7.7,1.6c-2.7,0-5.4-1-5.4-4.3c0-1.2,0.3-2.1,0.5-2.5
		c0.2-0.5,0.4-0.7,0.5-0.7c0.2,0,0.1,0.6,0.1,0.8c-0.1,0.4-0.2,0.9-0.2,1.1C612,25,615,25.9,618.2,25.9z M619.6,20.9
		c-0.4,0.2-1,0.3-1.6,0.3c-0.3,0-0.5,0-0.8-0.1c-0.3,0-0.6-0.2-0.6-0.3c0-0.1,0.2-0.2,0.7-0.4c0.6-0.2,2.8-1,3.3-1.5
		c0.1-0.1,0.1-0.1,0.1-0.2c0,0,0,0-0.1-0.1c-0.1-0.1-0.4-0.1-0.8-0.2c-0.7-0.1-1.4-0.2-1.4-1c0-0.9,1.7-3.2,2.6-3.8
		c0.2-0.1,0.4-0.2,0.5-0.2c0.1,0,0.2,0.1,0.2,0.2c0,0.4-0.4,1.2-0.5,1.5c-0.1,0.1-0.1,0.2-0.2,0.2c-0.1,0-0.3,0.1-0.5,0.2
		c-0.3,0.2-0.5,0.4-0.6,0.5c0,0.3,0.3,0.5,0.6,0.5c0.6,0.1,1.3,0,1.3,1C621.6,18.8,620.4,20.6,619.6,20.9z"/>
	<path class="st0" d="M632.6,26.4c-0.5,0.7-1.2,1-2.3,1h-0.2c-0.7,0-1-0.4-1-1.2c0-0.7,0.3-1.1,1-1.1h0.2c0.5,0,1-0.1,1.5-0.2
		c0.4-0.1,0.6-0.3,0.7-0.4c0-1.7-0.6-5.4-0.9-8.9c0-0.4-0.3-1.6-0.4-2.1c0-0.1,0-0.2,0-0.2c0-0.3,0.3-0.9,0.5-1.3
		c0.3-0.5,0.5-0.9,0.7-0.9c0.1,0,0.1,0.1,0.2,0.2c0.3,1,0.6,1.5,0.8,1.8c0.1,0.1,0.1,0.2,0.1,0.3c0,0,0,0.1,0,0.1
		c-0.1,0.2-0.4,0.8-0.6,1.1c0.2,3.4,0.7,6.2,0.7,7.8C633.6,24.1,633.3,25.4,632.6,26.4z"/>
	<path class="st0" d="M643,23.4c0,0.9-0.2,1.7-0.3,2c-0.4,1.5-2,2.1-4.9,2.1c-0.7,0-1-0.1-1.2-0.3c-0.2-0.2-0.3-0.7-0.3-1.2
		c0-0.4,0.1-0.7,0.1-0.8c0.1-0.3,0.2-0.5,0.2-0.5c0.1,0,0.1,0.1,0.2,0.2c0.3,0.2,0.9,0.3,1.7,0.3c1.2,0,2.7-0.2,3.3-0.6
		c0.1,0,0.1-0.1,0.1-0.1c0,0,0-0.1,0-0.1c-0.4-1.4-2.2-3.9-3.6-3.9c-0.2,0-0.4,0.2-0.6,0.2c-0.1,0-0.1,0-0.1-0.2
		c0-0.5,0.4-1.8,0.8-2.2c0.1-0.1,0.3-0.1,0.5-0.1c0.3,0,0.8,0.1,1.1,0.3c0.6,0.2,1.5,1.2,2.2,2.4C642.7,21.6,643,22.5,643,23.4z
		 M640.8,12.9c0.1,0.1,0.1,0.1,0,0.2c-0.2,0.3-1.1,1.2-1.4,1.7c-0.1,0.1-0.1,0.1-0.2,0c-0.5-0.3-1.5-1-1.7-1.4
		c-0.1-0.1-0.1-0.1,0-0.2c0.3-0.5,0.9-1.2,1.3-1.6c0.2-0.2,0.2-0.2,0.3-0.1C639.4,11.8,640.1,12.5,640.8,12.9z"/>
	<path class="st0" d="M649.8,15c0.1-0.1,0.1,0,0.1,0.1c0,0.6-0.2,1.1-0.5,1.3l-4.1,2.3c-0.1,0-0.1,0-0.1-0.1c0-0.3,0.1-0.8,0.2-1
		c0.1-0.2,0.3-0.3,0.7-0.5L649.8,15z"/>
	<path class="st0" d="M650.5,23.3c0.3,0.9,0.5,1.8,0.5,3.1c0,4-1.1,6.5-4.2,7.7c-0.2,0.1-0.4,0.1-0.6,0.1c-1,0-2.6-0.5-4-1.1
		c-0.3-0.2-0.4-0.3-0.4-0.4c0-0.1,0.1-0.2,0.4-0.2c0.2,0,1.1,0.2,1.8,0.2c0.9,0,1.9-0.4,3.3-1.3c1.5-1,2.8-2.3,2.8-3.8
		c0-0.5-0.1-1-0.4-1.5c-0.3,0.7-0.8,1.1-1.5,1.1c-1.3,0-2.1-0.7-2.1-2.1c0-0.5,0.3-1.3,0.6-2.1c0.5-1,1.2-1.9,1.8-1.9
		C649.2,21.1,650,22,650.5,23.3z M648,23.4c-0.3,0-0.5,0.2-0.7,0.5c-0.1,0.1-0.2,0.4-0.2,0.5c0,0.4,0.6,0.6,1.1,0.6
		c0.4,0,0.7-0.2,0.8-0.4C649,23.8,648.3,23.4,648,23.4z"/>
	<path class="st0" d="M10.7,77.2c0.4,0.3,0.4,0.8,0.4,1.1c0,0.3-0.1,0.7-0.4,1c-0.3,0.3-0.7,0.4-1.1,0.4c-0.3,0-0.7-0.1-0.9-0.4
		c-0.3-0.3-0.4-0.7-0.4-1.1c0-0.4,0.2-0.7,0.4-1c0.3-0.2,0.6-0.4,1-0.4C10.1,76.8,10.5,77,10.7,77.2z"/>
	<path class="st1" d="M22.9,70.2c-0.4,0-0.7-0.2-0.8-0.4c-0.2-0.3-0.3-0.8-0.3-1.1s0-0.7,0.2-1c0.2-0.4,0.4-0.7,0.7-0.7
		c0.1,0,0.1,0.1,0.1,0.3c0,0.2-0.1,0.4-0.1,0.6c0,0.5,0.3,0.7,0.7,0.7s0.7-0.4,0.9-0.8c0.3-0.7,0.6-1,0.9-1c0.1,0,0.2,0.1,0.2,0.3
		c0,0.1,0,0.2,0,0.4c0,0.3,0.1,0.5,0.5,0.5c0.3,0,0.6-0.2,0.9-0.7c0.3-0.5,0.4-0.7,0.5-0.7c0.2,0,0.2,0.3,0.2,0.5
		c0,0.6-0.2,1.1-0.5,1.6c-0.3,0.4-0.7,0.9-1.4,0.9c-0.4,0-0.6-0.1-0.8-0.3c-0.1-0.1-0.2,0-0.3,0.2C23.9,69.9,23.4,70.2,22.9,70.2z"
		/>
	<path class="st1" d="M23.8,83.9c-2.9,0-5.4-1.3-5.4-4.6c0-1.7,0.6-3.7,1.4-5c0.3-0.5,0.5-0.6,0.7-0.6c0.1,0,0.1,0.1,0.1,0.2
		c0,0.2-0.1,0.5-0.2,0.7c-0.7,1.3-1,2.4-1,3.4c0,2.7,2.5,3.8,4.9,3.8c2.5,0,6.7-1.9,7.3-2.7c0,0,0.1-0.1,0.1-0.1
		c0-0.4-1.1-0.4-2.3-0.5c-1.4-0.1-2.9-0.4-3.1-1.1C26.1,76.8,26,76.4,26,76c0-3.3,3.8-6.2,5.7-6.2c0.6,0,1.1,0.3,1.1,1
		c0,0.4-0.1,0.9-0.4,1.4c-0.1,0.2-0.2,0.3-0.3,0.3c-0.1,0-0.2-0.1-0.2-0.2c-0.2-0.2-0.4-0.3-0.7-0.3c-1.3,0-4.1,1.8-4.3,3.1
		c0.1,0.9,1.4,1.2,2.7,1.3c1.1,0.1,2,0.2,2.3,0.3c0.5,0.2,0.8,0.7,0.9,1.4C32.7,81.1,26.8,83.9,23.8,83.9z M25.4,86.4
		c0.2-0.2,0.2-0.2,0.3-0.1c0.5,0.5,1,1.1,1.5,1.4c0.2,0.1,0.2,0.2,0,0.3c-0.5,0.5-0.9,1-1.3,1.5c-0.1,0.1-0.2,0.1-0.3,0
		c-0.4-0.3-0.9-0.7-1.4-1.2c-0.3,0.3-0.9,1-1.1,1.2c-0.1,0.1-0.2,0.2-0.4,0c-0.5-0.3-1.1-0.9-1.5-1.4c-0.1-0.1-0.1-0.2,0-0.3
		c0.4-0.5,0.9-1,1.4-1.5c0.1-0.1,0.2-0.1,0.3,0.1c0.4,0.4,1,1,1.4,1.2C24.7,87.2,25.2,86.6,25.4,86.4z"/>
	<path class="st1" d="M32,85.4c-0.3-0.2-0.4-0.3-0.4-0.4c0-0.1,0.2-0.2,0.4-0.2c0.3,0,1.1,0.2,1.8,0.2c0.6,0,1.2-0.2,2.1-0.6
		c2.4-1.2,3.9-3,3.9-4.2c0-0.2,0-0.3-0.1-0.7H39c-0.5,0-1.5-0.1-2.2-0.5c-0.7-0.4-1-0.9-1-1.5c0-0.6,0.3-1.4,0.6-2.2
		c0.6-1.3,1.2-2.2,1.9-2.2c0.7,0,1.3,0.5,1.8,1.1c0.5,0.7,0.7,1.8,0.7,2.8h1c0.6,0,0.9,0.3,0.9,1c0,0.8-0.3,1.2-0.9,1.2l-1.1,0.1
		c-0.2,3.5-1.3,5.8-4.1,6.9c-0.2,0.1-0.4,0.1-0.6,0.1C35,86.5,33.4,86,32,85.4z M38.2,75.8c-0.1-0.1-0.3-0.2-0.6-0.2
		c-0.5,0-0.8,0.5-0.8,0.8c0,0.2,0.2,0.5,0.8,0.7c0.4,0.2,0.9,0.2,1.1,0.2c0.2,0,0.2,0,0.2-0.1C39.1,76.9,38.7,76.1,38.2,75.8z"/>
	<path class="st1" d="M49.5,77.2c0.7,0,1,0.4,1,1.1c0,0.8-0.3,1.2-1,1.2h-0.3c-2.1,0-3.4-0.4-4.3-1c-0.8,0.5-1.9,1-3.2,1h-0.2
		c-0.6,0-0.9-0.4-0.9-1.2c0-0.7,0.3-1.1,1-1.1h0.2c0.9,0,1.4-0.1,1.7-0.4c-0.1-0.2-0.1-0.5-0.1-0.8c0-2.3,2.6-5.1,4-5.1
		c0.8,0,1.3,1,1.3,2.2c0,1.3-0.5,2.8-1.5,3.7c0.5,0.2,1.2,0.4,2.1,0.4H49.5z M46.9,66c0.1,0.1,0.1,0.1,0,0.2
		c-0.2,0.3-1.1,1.2-1.4,1.7c-0.1,0.1-0.1,0.1-0.2,0c-0.5-0.3-1.5-1-1.7-1.4c-0.1-0.1-0.1-0.1,0-0.2c0.3-0.5,0.9-1.2,1.3-1.6
		c0.2-0.2,0.2-0.2,0.3-0.1C45.5,64.9,46.2,65.6,46.9,66z M46.3,73.2c-0.8,0-1.6,0.9-1.6,1.2c0,0.5,0.4,0.9,1.2,1.4
		c0.3-0.1,1.4-1,1.4-1.3C47.3,73.7,47,73.2,46.3,73.2z"/>
	<path class="st1" d="M55.3,62.4c-0.7,0-1.1-0.7-1.1-1.5c0-0.2,0-0.5,0.1-0.8c0.1-0.2,0.2-0.8,0.5-0.8c0.1,0,0.2,0.2,0.2,0.6v0.3
		c0,0.3,0.2,0.5,0.6,0.5h0c0.5,0,0.8-0.3,0.9-1c0.1-0.3,0.2-1.1,0.6-1.1c0.1,0,0.2,0.2,0.2,0.5c0,0.2,0.1,0.3,0.4,0.3
		c0.5,0,0.8-0.3,0.9-0.8c0.1-0.7,0.2-0.8,0.4-0.8c0.2,0,0.3,0.7,0.3,1.1c0,0.3,0,0.6-0.2,1c-0.2,0.7-0.7,1.2-1.5,1.2
		c-0.2,0-0.4-0.1-0.5-0.1c-0.1-0.1-0.1,0-0.2,0.1C56.6,61.9,56.1,62.4,55.3,62.4z M59.2,55.5C59.3,55.5,59.3,55.6,59.2,55.5
		c0,0.5-0.2,0.9-0.4,1.2c-0.1,0.1-0.2,0.2-0.5,0.3l-4,1.9c0,0-0.1,0-0.1-0.1c0-0.2,0.1-0.5,0.2-0.7c0.2-0.3,0.2-0.4,0.3-0.5
		c0.1-0.1,0.2-0.1,0.3-0.2L59.2,55.5z"/>
	<path class="st1" d="M58,74.9c0.1,0,0.2,0.1,0.2,0.5c0,0.1,0,0.3,0,0.5c0,0.7,0.5,1.1,1.2,1.1c1,0,1.5-1,1.9-1.8
		c0-0.1,0.2-0.4,0.3-0.4c0.1,0,0.2,0.1,0.2,0.6c0.1,1.1,0.7,1.7,1.5,1.7h0.3c0.7,0,1.1,0.3,1.1,1c0,0.8-0.4,1.3-1.1,1.3h-0.3
		c-1.3,0-2-0.6-2.2-1.9c-0.3,0.9-1.2,2-2.3,2c-1.1,0-1.6-0.9-1.7-1.9c-0.4,1.1-1.5,1.9-2.7,1.9c-1.2,0-2-0.4-2.3-1.6
		c-0.2,0.4-0.4,0.8-0.8,1.1c-0.4,0.3-1.1,0.5-2.1,0.5h-0.2c-0.7,0-1-0.4-1-1.2c0-0.7,0.3-1.1,1-1.1h0.3c1.6,0,2.6-0.6,3.2-1.7
		c0-0.1,0.2-0.3,0.3-0.3c0.2,0,0.2,0.2,0.2,0.5c0,0.9,0.8,1.3,1.8,1.3c1.2,0,2.1-0.5,2.8-1.7C57.7,75.1,57.9,74.9,58,74.9z
		 M58.8,69.3c0.2-0.2,0.2-0.2,0.3-0.1c0.5,0.5,1,1.1,1.5,1.4c0.2,0.1,0.2,0.2,0,0.3c-0.5,0.5-0.9,1-1.3,1.5c-0.1,0.1-0.2,0.1-0.3,0
		c-0.4-0.3-0.9-0.7-1.4-1.2c-0.3,0.3-0.9,1-1.1,1.2c-0.1,0.1-0.2,0.2-0.4,0c-0.5-0.3-1.1-0.9-1.5-1.4c-0.1-0.1-0.1-0.2,0-0.3
		c0.4-0.5,0.9-1,1.4-1.5c0.1-0.1,0.2-0.1,0.3,0.1c0.4,0.4,1,1,1.4,1.2C58,70.2,58.6,69.6,58.8,69.3z M59.2,66c0.1,0.1,0.1,0.1,0,0.2
		c-0.2,0.3-1.1,1.2-1.4,1.7c-0.1,0.1-0.1,0.1-0.2,0c-0.5-0.3-1.5-1-1.7-1.4c-0.1-0.1-0.1-0.1,0-0.2c0.3-0.5,0.9-1.2,1.3-1.6
		c0.2-0.2,0.2-0.2,0.3-0.1C57.8,65,58.5,65.6,59.2,66z"/>
	<path class="st1" d="M65.9,78.4c-0.5,0.7-1.2,1-2.3,1h-0.2c-0.7,0-1-0.4-1-1.2c0-0.7,0.3-1.1,1-1.1h0.2c0.5,0,1-0.1,1.5-0.2
		c0.4-0.1,0.6-0.3,0.7-0.4c0-1.7-0.6-5.4-0.9-8.9c0-0.4-0.3-1.6-0.4-2.1c0-0.1,0-0.2,0-0.2c0-0.3,0.3-0.9,0.5-1.3
		c0.3-0.5,0.5-0.9,0.7-0.9c0.1,0,0.1,0.1,0.2,0.2c0.3,1,0.6,1.5,0.8,1.8c0.1,0.1,0.1,0.2,0.1,0.3c0,0,0,0.1,0,0.1
		c-0.1,0.2-0.4,0.8-0.6,1.1c0.2,3.4,0.7,6.2,0.7,7.8C66.9,76.1,66.5,77.4,65.9,78.4z"/>
	<path class="st1" d="M71.5,79.5c-0.1,0-0.2-0.2-0.2-0.7c0-3-1.1-11.3-1.1-12.7c0-0.7,0.5-1.7,0.9-2.5c0.1-0.2,0.3-0.5,0.5-0.5
		c0.1,0,0.2,0.2,0.2,0.8c0.1,2.2,0.7,7.3,0.7,11c0,1.5-0.1,2.7-0.4,3.5C71.8,79.1,71.6,79.5,71.5,79.5z"/>
	<path class="st1" d="M87.4,66.3c0,0.5-0.1,1-0.3,1.5c0.2,0.1,0.4,0.3,0.4,0.4c0,0.4-0.2,0.7-0.3,1c-0.1,0.1-0.1,0.1-0.1,0.1
		l-0.5-0.3c-0.5,0.8-1.3,1.8-2.5,2.3c-0.4,0.2-0.9,0.4-1.5,0.4c-0.3,0-0.4-0.1-0.4-0.1c0-0.1,0.2-0.2,0.6-0.4
		c0.9-0.5,2.5-1.8,3.1-2.5c-0.5-0.3-1.1-0.7-1.1-1.4c0-0.4,0.2-0.9,0.6-1.3c0.4-0.5,0.8-0.8,1.2-0.8C87.2,65,87.4,65.7,87.4,66.3z
		 M85.6,66.7C85.6,66.8,85.6,66.8,85.6,66.7c0,0.2,0.4,0.5,0.8,0.7c0.1-0.2,0.1-0.4,0.1-0.7c0-0.3-0.1-0.4-0.3-0.4
		C86,66.3,85.7,66.5,85.6,66.7z"/>
	<path class="st1" d="M88.1,78.7c0,3.4-1.5,6-4.2,7.1c-0.2,0.1-0.4,0.1-0.6,0.1c-0.9,0-2.8-0.5-4.1-1.1c-0.3-0.2-0.4-0.3-0.4-0.4
		c0-0.1,0.2-0.2,0.3-0.2c0.3,0,1.1,0.2,1.8,0.2c0.7,0,1.2-0.2,2.2-0.6c1.1-0.5,3.3-2.3,3.8-3.8c0.1-0.2,0.1-0.6,0.1-0.7
		c0-0.1-0.1-1-1-2.4c-0.3-0.5-0.5-0.8-0.8-1.2c-0.1-0.1-0.1-0.1-0.1-0.2c0-0.3,0.4-1.3,0.6-1.7c0.1-0.1,0.1-0.2,0.2-0.2
		c0.5,0,1.4,1.7,1.8,3.1C88.1,77.4,88.1,78,88.1,78.7z"/>
	<path class="st1" d="M94.1,79.5c-0.7,0-1.2-0.1-1.7-0.5c-0.7-0.6-1.1-1.7-1.3-3.1c-0.2-1.1-0.2-2.3-0.3-3.7c-0.1-2-0.2-5.1-0.5-6.9
		c0-0.1,0-0.2,0-0.2c0-0.1,0-0.2,0.2-0.4c0.3-0.5,0.5-0.8,0.7-1.2c0.2-0.3,0.2-0.3,0.3-0.3c0.1,0,0.2,0.2,0.3,0.7
		c0.4,3.5,0.1,8.4,0.6,11.1c0.1,0.7,0.2,0.9,0.4,1.3c0.3,0.6,0.7,0.9,1.4,1c0.8,0,1.2,0.4,1.2,1.1c0,0.9-0.4,1.2-1.1,1.2H94.1z"/>
	<path class="st1" d="M109.2,58.8c0.7,0,1.7,1,1.7,2.1c0,0.4-0.1,0.8-0.2,1.2c-0.3,0.8-0.9,1.3-1.8,1.3c-0.8,0-1.3-0.6-1.3-1.3
		C107.6,61,108.7,58.8,109.2,58.8z M109,60.4c-0.3,0-0.7,0.6-0.7,1c0,0.3,0.4,0.6,0.8,0.6c0.5,0,1.1-0.3,1.1-0.5
		C110.2,61.2,109.6,60.4,109,60.4z"/>
	<path class="st1" d="M111.2,65.8c0.1,0.1,0.1,0.1,0,0.2c-0.2,0.3-1.1,1.2-1.4,1.7c-0.1,0.1-0.1,0.1-0.2,0c-0.5-0.3-1.5-1-1.7-1.4
		c-0.1-0.1-0.1-0.1,0-0.2c0.3-0.5,0.9-1.2,1.3-1.6c0.2-0.2,0.2-0.2,0.3-0.1C109.7,64.7,110.5,65.4,111.2,65.8z"/>
	<path class="st1" d="M105.2,71.9c0,0.8-0.1,1.4-0.2,2c1.1-0.9,2-1.5,2.8-1.9c0.8-0.5,1.5-0.7,2.1-0.7c0.8,0,2,0.3,2.6,0.9
		c0.3,0.2,0.4,0.6,0.4,1.1c0,1.1-0.5,2.1-1.2,3c-0.5,0.7-2.1,1.2-3.9,1.6c-0.6,0.1-1.2,0.2-4,0.5c-1.4,0.1-2,0.2-2.8,0.5
		c-0.6,0.3-1,0.7-1.2,1.1c-0.1,0.3-0.2,0.6-0.2,0.9c0,0.2,0,0.4,0.1,0.6c0.1,0.5,0.2,0.9,0.3,1.1c0.1,0.2,0.1,0.5,0.2,0.7v0.1
		c0,0.5-0.4,1.5-0.6,1.9c0,0.1-0.1,0.1-0.2,0.1c-0.4,0-0.8-0.4-1.1-0.7c-0.8-0.8-1.2-2.1-1.2-3.9c0-0.6,0-1.2,0.1-1.9
		c0-0.3,0.1-0.6,0.2-1c-0.7,0.8-1.6,1.4-2.8,1.4h-0.3c-0.6,0-0.9-0.4-0.9-1.1c0-0.8,0.3-1.1,1-1.1h0.3c0.6,0,1.1-0.1,1.6-0.3
		c1.1-0.5,1.7-1,2.4-2c0.1-0.2,0.3-0.5,0.5-0.5c0.1,0,0.2,0.1,0.2,0.3c0,0.3-0.2,0.7-0.4,1.3c-0.3,0.9-0.7,2.1-0.7,3.3
		c0,0.8,0.2,1.5,0.6,2.3c0-0.4,0-0.7,0-1.2c0.1-0.9,0.4-1.5,1-2.2c0.7-0.7,1.6-1.4,2.7-1.7c0.7-0.8,1.3-1.4,1.9-2c0-0.3,0-0.6,0-0.9
		c0-3.1-0.5-5.1-0.7-7.1c0-0.4-0.3-1.3-0.4-1.7c0-0.1,0-0.2,0-0.3c0,0,0-0.1,0-0.2c0-0.1,0.1-0.4,0.4-0.9c0.2-0.5,0.6-1.1,0.7-1.1
		c0.1,0,0.1,0.1,0.2,0.2c0.3,0.9,0.6,1.4,0.8,1.8c0,0.1,0.1,0.2,0.1,0.2c0,0.1,0,0.1,0,0.2c-0.1,0.2-0.4,0.8-0.6,1.1
		C104.9,68.2,105.2,70.2,105.2,71.9z M108.8,73.3c-1.9,0-3.7,1.4-5.5,3.1c3.4-0.2,6.7-0.8,8.1-1.8C110.9,73.9,109.8,73.3,108.8,73.3
		z"/>
	<path class="st1" d="M120.1,87c0.1-0.1,0.1,0,0.1,0.1c0,0.6-0.2,1.1-0.5,1.3l-4.1,2.3c-0.1,0-0.1,0-0.1-0.1c0-0.3,0.1-0.8,0.2-1
		c0.1-0.2,0.3-0.3,0.7-0.5L120.1,87z"/>
	<path class="st1" d="M119.3,85c-0.8,0.4-2.6,1.5-4,2.5c-0.1,0-0.1,0-0.1,0c0,0-0.1,0-0.1-0.1c0-0.1,0.1-0.3,0.2-0.7
		c0.1-0.2,0.5-0.6,0.8-0.9c0,0,0.1-0.1,0.1-0.1c0,0,0-0.1-0.1-0.1c-0.6-0.2-0.9-0.4-0.9-0.9c0-0.1,0-0.1,0-0.2c0-0.9,1-2.2,1.8-2.9
		c0.3-0.3,0.7-0.4,1-0.4c0.5,0,0.8,0.3,0.8,0.7c0,0.3-0.1,0.6-0.2,1c-0.1,0.2-0.2,0.4-0.3,0.4s-0.2-0.1-0.3-0.2
		c-0.1-0.1-0.3-0.3-0.6-0.3c-0.8,0-1.3,0.5-1.3,0.7c0,0.3,1.3,0.8,1.8,0.8c0.1,0,0.1,0,0.1,0c0.2-0.1,1.1-0.4,1.5-0.6
		c0.2-0.1,0.3-0.2,0.3-0.2c0,0,0.1,0,0.1,0.1c0,0.1-0.1,0.2-0.1,0.4C119.6,84.7,119.4,84.8,119.3,85z"/>
	<path class="st1" d="M124.2,65c0.1,0.2,0.1,0.2,0.1,0.3c0,0.1,0,0.1-0.1,0.2c-0.2,0.4-0.5,1-0.8,1.3c-0.2,2.4-0.5,4.3-1.6,7
		c0.3,0.8,0.5,1.9,0.5,2.9c0,0.7-0.1,1.3-0.3,1.8c-0.2,0.4-2.7,0.8-4.4,0.8c-0.5,0-0.8,0-1.1-0.1c-0.1,0-0.2-0.3-0.2-0.7
		c0-0.6,0.1-1.5,0.3-1.8c0-0.1,0.1-0.1,0.1-0.1c0.1,0,0.1,0,0.2,0c1.4,0,2.8-1.3,3.7-2.9c-1.1-2.2-3.5-5.2-5.6-6.6
		c0,0.1-0.4,0.6-0.7,0.6c-0.3,0-2.2-1.8-2.2-2.2c0-0.2-0.1-0.4-0.1-0.6c0-0.6,0.1-1.1,0.2-1.4c0.1-0.3,0.3-0.4,0.4-0.4
		c0.2,0,0.5,0.2,0.8,0.4c1.6,1.1,3.2,2.4,4.5,4c1,1.3,2.3,3,3.3,5.1c0.6-1.3,0.7-2.2,0.9-3.9c0.1-1,0.1-1.7,0.1-2.2
		c0-1.1-0.1-1.5-0.1-1.8c0-0.2,0.1-0.4,0.2-0.7c0.4-0.7,0.7-1.2,0.8-1.2c0.1,0,0.1,0.1,0.2,0.2C123.7,63.8,123.9,64.4,124.2,65z
		 M121.1,74.9c-0.8,1.1-0.9,1.3-1.7,2.1c0.8,0,1.5-0.1,2.1-0.3C121.6,76.3,121.6,75.7,121.1,74.9z"/>
	<path class="st1" d="M128.2,79.5c-0.1,0-0.2-0.2-0.2-0.7c0-3-1.1-11.3-1.1-12.7c0-0.7,0.5-1.7,0.9-2.5c0.1-0.2,0.3-0.5,0.5-0.5
		c0.1,0,0.2,0.2,0.2,0.8c0.1,2.2,0.7,7.3,0.7,11c0,1.5-0.1,2.7-0.4,3.5C128.5,79.1,128.4,79.5,128.2,79.5z"/>
	<path class="st0" d="M141.5,78.2c0.2,0.3,0.3,0.6,0.3,1.1c0,0.5-0.2,0.9-0.5,1.1c-0.3,0.2-0.6,0.3-1,0.3c-0.6,0-1.2-0.4-1.5-1.1
		c-0.3-0.7-0.4-1.3-0.4-2c0-0.8,0.2-1.6,0.5-2.3c0.3-0.7,0.6-1.2,1-1.7c0.4-0.4,0.6-0.7,0.8-0.7c0.3,0,0.1,0.4-0.2,0.8
		c-0.8,1.1-1.1,2.1-1.1,3.2c0,0.6,0.1,0.7,0.2,1c0.3-0.1,0.6-0.2,0.8-0.2C140.9,77.7,141.3,77.9,141.5,78.2z"/>
	<path class="st1" d="M154.4,70.2c-0.4,0-0.7-0.2-0.8-0.4c-0.2-0.3-0.3-0.8-0.3-1.1s0-0.7,0.2-1c0.2-0.4,0.4-0.7,0.7-0.7
		c0.1,0,0.1,0.1,0.1,0.3c0,0.2-0.1,0.4-0.1,0.6c0,0.5,0.3,0.7,0.7,0.7s0.7-0.4,0.9-0.8c0.3-0.7,0.6-1,0.9-1c0.1,0,0.2,0.1,0.2,0.3
		c0,0.1,0,0.2,0,0.4c0,0.3,0.1,0.5,0.5,0.5c0.3,0,0.6-0.2,0.9-0.7c0.3-0.5,0.4-0.7,0.5-0.7c0.2,0,0.2,0.3,0.2,0.5
		c0,0.6-0.2,1.1-0.5,1.6c-0.3,0.4-0.7,0.9-1.4,0.9c-0.4,0-0.6-0.1-0.8-0.3c-0.1-0.1-0.2,0-0.3,0.2C155.5,69.9,154.9,70.2,154.4,70.2
		z"/>
	<path class="st1" d="M155.3,83.9c-2.9,0-5.4-1.3-5.4-4.6c0-1.7,0.6-3.7,1.4-5c0.3-0.5,0.5-0.6,0.7-0.6c0.1,0,0.1,0.1,0.1,0.2
		c0,0.2-0.1,0.5-0.2,0.7c-0.7,1.3-1,2.4-1,3.4c0,2.7,2.5,3.8,4.9,3.8c2.5,0,6.7-1.9,7.3-2.7c0,0,0.1-0.1,0.1-0.1
		c0-0.4-1.1-0.4-2.3-0.5c-1.4-0.1-2.9-0.4-3.1-1.1c-0.1-0.4-0.2-0.8-0.2-1.2c0-3.3,3.8-6.2,5.7-6.2c0.6,0,1.1,0.3,1.1,1
		c0,0.4-0.1,0.9-0.4,1.4c-0.1,0.2-0.2,0.3-0.3,0.3s-0.2-0.1-0.2-0.2c-0.2-0.2-0.4-0.3-0.7-0.3c-1.3,0-4.1,1.8-4.3,3.1
		c0.1,0.9,1.4,1.2,2.7,1.3c1.1,0.1,2,0.2,2.3,0.3c0.5,0.2,0.8,0.7,0.9,1.4C164.2,81.1,158.4,83.9,155.3,83.9z M157,86.4
		c0.2-0.2,0.2-0.2,0.3-0.1c0.5,0.5,1,1.1,1.5,1.4c0.2,0.1,0.2,0.2,0,0.3c-0.5,0.5-0.9,1-1.3,1.5c-0.1,0.1-0.2,0.1-0.3,0
		c-0.4-0.3-0.9-0.7-1.4-1.2c-0.3,0.3-0.9,1-1.1,1.2c-0.1,0.1-0.2,0.2-0.4,0c-0.5-0.3-1.1-0.9-1.5-1.4c-0.1-0.1-0.1-0.2,0-0.3
		c0.4-0.5,0.9-1,1.4-1.5c0.1-0.1,0.2-0.1,0.3,0.1c0.4,0.4,1,1,1.4,1.2C156.2,87.2,156.7,86.6,157,86.4z"/>
	<path class="st1" d="M163.5,85.4c-0.3-0.2-0.4-0.3-0.4-0.4c0-0.1,0.2-0.2,0.4-0.2c0.3,0,1.1,0.2,1.8,0.2c0.6,0,1.2-0.2,2.1-0.6
		c2.4-1.2,3.9-3,3.9-4.2c0-0.2,0-0.3-0.1-0.7h-0.7c-0.5,0-1.5-0.1-2.2-0.5c-0.7-0.4-1-0.9-1-1.5c0-0.6,0.3-1.4,0.6-2.2
		c0.6-1.3,1.2-2.2,1.9-2.2c0.7,0,1.3,0.5,1.8,1.1c0.5,0.7,0.7,1.8,0.7,2.8h1c0.6,0,0.9,0.3,0.9,1c0,0.8-0.3,1.2-0.9,1.2l-1.1,0.1
		c-0.2,3.5-1.3,5.8-4.1,6.9c-0.2,0.1-0.4,0.1-0.6,0.1C166.5,86.5,164.9,86,163.5,85.4z M169.8,75.8c-0.1-0.1-0.3-0.2-0.6-0.2
		c-0.5,0-0.8,0.5-0.8,0.8c0,0.2,0.2,0.5,0.8,0.7c0.4,0.2,0.9,0.2,1.1,0.2c0.2,0,0.2,0,0.2-0.1C170.6,76.9,170.2,76.1,169.8,75.8z"/>
	<path class="st1" d="M181,77.2c0.7,0,1,0.4,1,1.1c0,0.8-0.3,1.2-1,1.2h-0.3c-2.1,0-3.4-0.4-4.3-1c-0.8,0.5-1.9,1-3.2,1h-0.2
		c-0.6,0-0.9-0.4-0.9-1.2c0-0.7,0.3-1.1,1-1.1h0.2c0.9,0,1.4-0.1,1.7-0.4c-0.1-0.2-0.1-0.5-0.1-0.8c0-2.3,2.6-5.1,4-5.1
		c0.8,0,1.3,1,1.3,2.2c0,1.3-0.5,2.8-1.5,3.7c0.5,0.2,1.2,0.4,2.1,0.4H181z M178.4,66c0.1,0.1,0.1,0.1,0,0.2
		c-0.2,0.3-1.1,1.2-1.4,1.7c-0.1,0.1-0.1,0.1-0.2,0c-0.5-0.3-1.5-1-1.7-1.4c-0.1-0.1-0.1-0.1,0-0.2c0.3-0.5,0.9-1.2,1.3-1.6
		c0.2-0.2,0.2-0.2,0.3-0.1C177,64.9,177.7,65.6,178.4,66z M177.8,73.2c-0.8,0-1.6,0.9-1.6,1.2c0,0.5,0.4,0.9,1.2,1.4
		c0.3-0.1,1.4-1,1.4-1.3C178.8,73.7,178.5,73.2,177.8,73.2z"/>
	<path class="st1" d="M186.8,62.4c-0.7,0-1.1-0.7-1.1-1.5c0-0.2,0-0.5,0.1-0.8c0.1-0.2,0.2-0.8,0.5-0.8c0.1,0,0.2,0.2,0.2,0.6v0.3
		c0,0.3,0.2,0.5,0.6,0.5h0c0.5,0,0.8-0.3,0.9-1c0.1-0.3,0.2-1.1,0.6-1.1c0.1,0,0.2,0.2,0.2,0.5c0,0.2,0.1,0.3,0.4,0.3
		c0.5,0,0.8-0.3,0.9-0.8c0.1-0.7,0.2-0.8,0.4-0.8c0.2,0,0.3,0.7,0.3,1.1c0,0.3,0,0.6-0.2,1c-0.2,0.7-0.7,1.2-1.5,1.2
		c-0.2,0-0.4-0.1-0.5-0.1c-0.1-0.1-0.1,0-0.2,0.1C188.1,61.9,187.6,62.4,186.8,62.4z M190.7,55.5C190.8,55.5,190.8,55.6,190.7,55.5
		c0,0.5-0.2,0.9-0.4,1.2c-0.1,0.1-0.2,0.2-0.5,0.3l-4,1.9c0,0-0.1,0-0.1-0.1c0-0.2,0.1-0.5,0.2-0.7c0.2-0.3,0.2-0.4,0.3-0.5
		c0.1-0.1,0.2-0.1,0.3-0.2L190.7,55.5z"/>
	<path class="st1" d="M189.5,74.9c0.1,0,0.2,0.1,0.2,0.5c0,0.1,0,0.3,0,0.5c0,0.7,0.5,1.1,1.2,1.1c1,0,1.5-1,1.9-1.8
		c0-0.1,0.2-0.4,0.3-0.4c0.1,0,0.2,0.1,0.2,0.6c0.1,1.1,0.7,1.7,1.5,1.7h0.3c0.7,0,1.1,0.3,1.1,1c0,0.8-0.4,1.3-1.1,1.3h-0.3
		c-1.3,0-2-0.6-2.2-1.9c-0.3,0.9-1.2,2-2.3,2c-1.1,0-1.6-0.9-1.7-1.9c-0.4,1.1-1.5,1.9-2.7,1.9c-1.2,0-2-0.4-2.3-1.6
		c-0.2,0.4-0.4,0.8-0.8,1.1c-0.4,0.3-1.1,0.5-2.1,0.5h-0.2c-0.7,0-1-0.4-1-1.2c0-0.7,0.3-1.1,1-1.1h0.3c1.6,0,2.6-0.6,3.2-1.7
		c0-0.1,0.2-0.3,0.3-0.3c0.2,0,0.2,0.2,0.2,0.5c0,0.9,0.8,1.3,1.8,1.3c1.2,0,2.1-0.5,2.8-1.7C189.3,75.1,189.4,74.9,189.5,74.9z
		 M190.3,69.3c0.2-0.2,0.2-0.2,0.3-0.1c0.5,0.5,1,1.1,1.5,1.4c0.2,0.1,0.2,0.2,0,0.3c-0.5,0.5-0.9,1-1.3,1.5c-0.1,0.1-0.2,0.1-0.3,0
		c-0.4-0.3-0.9-0.7-1.4-1.2c-0.3,0.3-0.9,1-1.1,1.2c-0.1,0.1-0.2,0.2-0.4,0c-0.5-0.3-1.1-0.9-1.5-1.4c-0.1-0.1-0.1-0.2,0-0.3
		c0.4-0.5,0.9-1,1.4-1.5c0.1-0.1,0.2-0.1,0.3,0.1c0.4,0.4,1,1,1.4,1.2C189.5,70.2,190.1,69.6,190.3,69.3z M190.7,66
		c0.1,0.1,0.1,0.1,0,0.2c-0.2,0.3-1.1,1.2-1.4,1.7c-0.1,0.1-0.1,0.1-0.2,0c-0.5-0.3-1.5-1-1.7-1.4c-0.1-0.1-0.1-0.1,0-0.2
		c0.3-0.5,0.9-1.2,1.3-1.6c0.2-0.2,0.2-0.2,0.3-0.1C189.3,65,190,65.6,190.7,66z"/>
	<path class="st1" d="M197.4,78.4c-0.5,0.7-1.2,1-2.3,1h-0.2c-0.7,0-1-0.4-1-1.2c0-0.7,0.3-1.1,1-1.1h0.2c0.5,0,1-0.1,1.5-0.2
		c0.4-0.1,0.6-0.3,0.7-0.4c0-1.7-0.6-5.4-0.9-8.9c0-0.4-0.3-1.6-0.4-2.1c0-0.1,0-0.2,0-0.2c0-0.3,0.3-0.9,0.5-1.3
		c0.3-0.5,0.5-0.9,0.7-0.9c0.1,0,0.1,0.1,0.2,0.2c0.3,1,0.6,1.5,0.8,1.8c0.1,0.1,0.1,0.2,0.1,0.3c0,0,0,0.1,0,0.1
		c-0.1,0.2-0.4,0.8-0.6,1.1c0.2,3.4,0.7,6.2,0.7,7.8C198.4,76.1,198,77.4,197.4,78.4z"/>
	<path class="st1" d="M203,79.5c-0.1,0-0.2-0.2-0.2-0.7c0-3-1.1-11.3-1.1-12.7c0-0.7,0.5-1.7,0.9-2.5c0.1-0.2,0.3-0.5,0.5-0.5
		c0.1,0,0.2,0.2,0.2,0.8c0.1,2.2,0.7,7.3,0.7,11c0,1.5-0.1,2.7-0.4,3.5C203.3,79.1,203.2,79.5,203,79.5z"/>
	<path class="st1" d="M217,64c0,0.5-0.1,1-0.3,1.5c0.2,0.1,0.4,0.3,0.4,0.4c0,0.4-0.2,0.7-0.3,1c-0.1,0.1-0.1,0.1-0.1,0.1l-0.5-0.3
		c-0.5,0.8-1.3,1.8-2.5,2.3c-0.4,0.2-0.9,0.4-1.5,0.4c-0.3,0-0.4-0.1-0.4-0.1c0-0.1,0.2-0.2,0.6-0.4c0.9-0.5,2.5-1.8,3.1-2.5
		c-0.5-0.3-1.1-0.7-1.1-1.4c0-0.4,0.2-0.9,0.6-1.3c0.4-0.5,0.8-0.8,1.2-0.8C216.8,62.7,217,63.4,217,64z M215.2,64.4
		C215.2,64.4,215.2,64.4,215.2,64.4c0,0.2,0.4,0.5,0.8,0.7c0.1-0.2,0.1-0.4,0.1-0.7c0-0.3-0.1-0.4-0.3-0.4
		C215.6,64,215.3,64.1,215.2,64.4z"/>
	<path class="st1" d="M219.7,74.7c-0.1,0.7-0.5,1.6-0.8,2.1c-0.1,0.1-0.1,0.1-0.2,0.1c0,0-0.1,0-0.1,0c-0.3-0.1-0.7-0.2-1.5-0.2
		c-1.6,0-3.6,0.4-3.7,1c0,0.8,0.9,4,0.9,8c0,0.4,0,0.8,0,1.1c-0.1,1.7-0.6,2.7-0.8,2.7c-0.1,0-0.2-0.2-0.2-0.6c0-0.3,0-0.6,0-1
		c0-2.3-0.5-5-0.9-7.6c-0.1-0.7-0.2-1.3-0.2-1.8c0-1.9,0.7-2.6,1.1-3c0-0.1,0-0.2,0-0.3c0-1.5,0.9-3.9,2.4-3.9c1.8,0,3.2,2.1,4,3.3
		C219.7,74.5,219.7,74.6,219.7,74.7z M215.2,73.7c-0.6,0-0.8,0.7-1,1.1c0.6-0.4,1.7-0.5,2.3-0.5C216.2,74,215.8,73.7,215.2,73.7z"/>
	<path class="st1" d="M225.8,79.5c-0.7,0-1.2-0.1-1.7-0.5c-0.7-0.6-1.1-1.7-1.3-3.1c-0.2-1.1-0.2-2.3-0.3-3.7
		c-0.1-2-0.2-5.1-0.5-6.9c0-0.1,0-0.2,0-0.2c0-0.1,0-0.2,0.2-0.4c0.3-0.5,0.5-0.8,0.7-1.2c0.2-0.3,0.2-0.3,0.3-0.3
		c0.1,0,0.2,0.2,0.3,0.7c0.4,3.5,0.1,8.4,0.6,11.1c0.1,0.7,0.2,0.9,0.4,1.3c0.3,0.6,0.7,0.9,1.4,1c0.8,0,1.2,0.4,1.2,1.1
		c0,0.9-0.4,1.2-1.1,1.2H225.8z"/>
	<path class="st1" d="M227.3,75c0-0.5,0.2-1.7,0.6-2.5c0.7-1.5,1.9-2.2,2.9-2.2c0.7,0,2.1,0.4,2.8,1c0.3,0.2,0.3,0.4,0.3,0.5
		s-0.1,0.1-0.2,0.1c-0.4,0-1-0.1-1.6-0.1c-1.1,0-3.6,1-3.7,1.7c0.1,0.4,1.3,2.3,3.3,2.3h0.1c1.2-0.5,2.7-1.1,3.7-1.6
		c0.4-0.2,0.7-0.3,0.8-0.3c0.1,0,0.1,0,0.1,0.1c0,0.2-0.5,1.2-0.8,1.7c-0.1,0.1-0.2,0.3-0.4,0.4c-0.7,0.4-1.8,0.9-3.2,1.6
		c-1.5,0.7-4.6,1.8-5.9,1.8h-0.2c-0.7,0-1-0.4-1-1.1c0-0.8,0.4-1.1,1.1-1.1h0.2c0.2,0,1.2-0.1,2.1-0.3
		C227.7,76.4,227.3,75.8,227.3,75z M232.1,65.3c0.1,0.1,0.1,0.1,0,0.2c-0.2,0.3-1.1,1.2-1.4,1.7c-0.1,0.1-0.1,0.1-0.2,0
		c-0.5-0.3-1.5-1-1.7-1.4c-0.1-0.1-0.1-0.1,0-0.2c0.3-0.5,0.9-1.2,1.3-1.6c0.2-0.2,0.2-0.2,0.3-0.1
		C230.7,64.2,231.4,64.9,232.1,65.3z"/>
	<path class="st1" d="M241.2,63c0.7,0,1.7,1,1.7,2.1c0,0.4-0.1,0.8-0.2,1.2c-0.3,0.8-0.9,1.3-1.8,1.3c-0.8,0-1.3-0.6-1.3-1.3
		C239.5,65.2,240.7,63,241.2,63z M241,64.6c-0.3,0-0.7,0.6-0.7,1c0,0.3,0.4,0.6,0.8,0.6c0.5,0,1.1-0.3,1.1-0.5
		C242.2,65.4,241.6,64.6,241,64.6z"/>
	<path class="st1" d="M245.1,75.4c0,0.9-0.2,1.7-0.3,2c-0.4,1.5-2,2.1-4.9,2.1c-0.7,0-1-0.1-1.2-0.3c-0.2-0.2-0.3-0.7-0.3-1.2
		c0-0.4,0.1-0.7,0.1-0.8c0.1-0.3,0.2-0.5,0.2-0.5c0.1,0,0.1,0.1,0.2,0.2c0.3,0.2,0.9,0.3,1.7,0.3c1.2,0,2.7-0.2,3.3-0.6
		c0.1,0,0.1-0.1,0.1-0.1c0,0,0-0.1,0-0.1c-0.4-1.4-2.2-3.9-3.6-3.9c-0.2,0-0.4,0.2-0.6,0.2c-0.1,0-0.1,0-0.1-0.2
		c0-0.5,0.4-1.8,0.8-2.2c0.1-0.1,0.3-0.1,0.5-0.1c0.3,0,0.8,0.1,1.1,0.3c0.6,0.2,1.5,1.2,2.2,2.4C244.8,73.6,245.1,74.5,245.1,75.4z
		"/>
	<path class="st1" d="M252.2,87c0.1-0.1,0.1,0,0.1,0.1c0,0.6-0.2,1.1-0.5,1.3l-4.1,2.3c-0.1,0-0.1,0-0.1-0.1c0-0.3,0.1-0.8,0.2-1
		c0.1-0.2,0.3-0.3,0.7-0.5L252.2,87z"/>
	<path class="st1" d="M251.3,85c-0.8,0.4-2.6,1.5-4,2.5c-0.1,0-0.1,0-0.1,0c0,0-0.1,0-0.1-0.1c0-0.1,0.1-0.3,0.2-0.7
		c0.1-0.2,0.5-0.6,0.8-0.9c0,0,0.1-0.1,0.1-0.1c0,0,0-0.1-0.1-0.1c-0.6-0.2-0.9-0.4-0.9-0.9c0-0.1,0-0.1,0-0.2c0-0.9,1-2.2,1.8-2.9
		c0.3-0.3,0.7-0.4,1-0.4c0.5,0,0.8,0.3,0.8,0.7c0,0.3-0.1,0.6-0.2,1c-0.1,0.2-0.2,0.4-0.3,0.4s-0.2-0.1-0.3-0.2
		c-0.1-0.1-0.3-0.3-0.6-0.3c-0.8,0-1.3,0.5-1.3,0.7c0,0.3,1.3,0.8,1.8,0.8c0.1,0,0.1,0,0.1,0c0.2-0.1,1.1-0.4,1.5-0.6
		c0.2-0.1,0.3-0.2,0.3-0.2c0,0,0.1,0,0.1,0.1c0,0.1-0.1,0.2-0.1,0.4C251.7,84.7,251.5,84.8,251.3,85z"/>
	<path class="st1" d="M256.3,65c0.1,0.2,0.1,0.2,0.1,0.3c0,0.1,0,0.1-0.1,0.2c-0.2,0.4-0.5,1-0.8,1.3c-0.2,2.4-0.5,4.3-1.6,7
		c0.3,0.8,0.5,1.9,0.5,2.9c0,0.7-0.1,1.3-0.3,1.8c-0.2,0.4-2.7,0.8-4.4,0.8c-0.5,0-0.8,0-1.1-0.1c-0.1,0-0.2-0.3-0.2-0.7
		c0-0.6,0.1-1.5,0.3-1.8c0-0.1,0.1-0.1,0.1-0.1c0.1,0,0.1,0,0.2,0c1.4,0,2.8-1.3,3.7-2.9c-1.1-2.2-3.5-5.2-5.6-6.6
		c0,0.1-0.4,0.6-0.7,0.6c-0.3,0-2.2-1.8-2.2-2.2c0-0.2-0.1-0.4-0.1-0.6c0-0.6,0.1-1.1,0.2-1.4c0.1-0.3,0.3-0.4,0.4-0.4
		c0.2,0,0.5,0.2,0.8,0.4c1.6,1.1,3.2,2.4,4.5,4c1,1.3,2.3,3,3.3,5.1c0.6-1.3,0.7-2.2,0.9-3.9c0.1-1,0.1-1.7,0.1-2.2
		c0-1.1-0.1-1.5-0.1-1.8c0-0.2,0.1-0.4,0.2-0.7c0.4-0.7,0.7-1.2,0.8-1.2c0.1,0,0.1,0.1,0.2,0.2C255.8,63.8,256,64.4,256.3,65z
		 M253.2,74.9c-0.8,1.1-0.9,1.3-1.7,2.1c0.8,0,1.5-0.1,2.1-0.3C253.6,76.3,253.6,75.7,253.2,74.9z"/>
	<path class="st1" d="M260.2,79.5c-0.1,0-0.2-0.2-0.2-0.7c0-3-1.1-11.3-1.1-12.7c0-0.7,0.5-1.7,0.9-2.5c0.1-0.2,0.3-0.5,0.5-0.5
		c0.1,0,0.2,0.2,0.2,0.8c0.1,2.2,0.7,7.3,0.7,11c0,1.5-0.1,2.7-0.4,3.5C260.6,79.1,260.4,79.5,260.2,79.5z"/>
	<path class="st0" d="M273.6,78.2c0.2,0.3,0.3,0.6,0.3,1.1c0,0.5-0.2,0.9-0.5,1.1c-0.3,0.2-0.6,0.3-1,0.3c-0.6,0-1.2-0.4-1.5-1.1
		c-0.3-0.7-0.4-1.3-0.4-2c0-0.8,0.2-1.6,0.5-2.3c0.3-0.7,0.6-1.2,1-1.7c0.4-0.4,0.6-0.7,0.8-0.7c0.3,0,0.1,0.4-0.2,0.8
		c-0.8,1.1-1.1,2.1-1.1,3.2c0,0.6,0.1,0.7,0.2,1c0.3-0.1,0.6-0.2,0.8-0.2C273,77.7,273.3,77.9,273.6,78.2z"/>
	<path class="st1" d="M286.5,70.2c-0.4,0-0.7-0.2-0.8-0.4c-0.2-0.3-0.3-0.8-0.3-1.1s0-0.7,0.2-1c0.2-0.4,0.4-0.7,0.7-0.7
		c0.1,0,0.1,0.1,0.1,0.3c0,0.2-0.1,0.4-0.1,0.6c0,0.5,0.3,0.7,0.7,0.7c0.4,0,0.7-0.4,0.9-0.8c0.3-0.7,0.6-1,0.9-1
		c0.1,0,0.2,0.1,0.2,0.3c0,0.1,0,0.2,0,0.4c0,0.3,0.1,0.5,0.5,0.5c0.3,0,0.6-0.2,0.9-0.7c0.3-0.5,0.4-0.7,0.5-0.7
		c0.2,0,0.2,0.3,0.2,0.5c0,0.6-0.2,1.1-0.5,1.6c-0.3,0.4-0.7,0.9-1.4,0.9c-0.4,0-0.6-0.1-0.8-0.3c-0.1-0.1-0.2,0-0.3,0.2
		C287.5,69.9,287,70.2,286.5,70.2z"/>
	<path class="st1" d="M287.4,83.9c-2.9,0-5.4-1.3-5.4-4.6c0-1.7,0.6-3.7,1.4-5c0.3-0.5,0.5-0.6,0.7-0.6c0.1,0,0.1,0.1,0.1,0.2
		c0,0.2-0.1,0.5-0.2,0.7c-0.7,1.3-1,2.4-1,3.4c0,2.7,2.5,3.8,4.9,3.8c2.5,0,6.7-1.9,7.3-2.7c0,0,0.1-0.1,0.1-0.1
		c0-0.4-1.1-0.4-2.3-0.5c-1.4-0.1-2.9-0.4-3.1-1.1c-0.1-0.4-0.2-0.8-0.2-1.2c0-3.3,3.8-6.2,5.7-6.2c0.6,0,1.1,0.3,1.1,1
		c0,0.4-0.1,0.9-0.4,1.4c-0.1,0.2-0.2,0.3-0.3,0.3c-0.1,0-0.2-0.1-0.2-0.2c-0.2-0.2-0.4-0.3-0.7-0.3c-1.3,0-4.1,1.8-4.3,3.1
		c0.1,0.9,1.4,1.2,2.7,1.3c1.1,0.1,2,0.2,2.3,0.3c0.5,0.2,0.8,0.7,0.9,1.4C296.3,81.1,290.4,83.9,287.4,83.9z M289,86.4
		c0.2-0.2,0.2-0.2,0.3-0.1c0.5,0.5,1,1.1,1.5,1.4c0.2,0.1,0.2,0.2,0,0.3c-0.5,0.5-0.9,1-1.3,1.5c-0.1,0.1-0.2,0.1-0.3,0
		c-0.4-0.3-0.9-0.7-1.4-1.2c-0.3,0.3-0.9,1-1.1,1.2c-0.1,0.1-0.2,0.2-0.4,0c-0.5-0.3-1.1-0.9-1.5-1.4c-0.1-0.1-0.1-0.2,0-0.3
		c0.4-0.5,0.9-1,1.4-1.5c0.1-0.1,0.2-0.1,0.3,0.1c0.4,0.4,1,1,1.4,1.2C288.2,87.2,288.8,86.6,289,86.4z"/>
	<path class="st1" d="M295.6,85.4c-0.3-0.2-0.4-0.3-0.4-0.4c0-0.1,0.2-0.2,0.4-0.2c0.3,0,1.1,0.2,1.8,0.2c0.6,0,1.2-0.2,2.1-0.6
		c2.4-1.2,3.9-3,3.9-4.2c0-0.2,0-0.3-0.1-0.7h-0.7c-0.5,0-1.5-0.1-2.2-0.5c-0.7-0.4-1-0.9-1-1.5c0-0.6,0.3-1.4,0.6-2.2
		c0.6-1.3,1.2-2.2,1.9-2.2c0.7,0,1.3,0.5,1.8,1.1c0.5,0.7,0.7,1.8,0.7,2.8h1c0.6,0,0.9,0.3,0.9,1c0,0.8-0.3,1.2-0.9,1.2l-1.1,0.1
		c-0.2,3.5-1.3,5.8-4.1,6.9c-0.2,0.1-0.4,0.1-0.6,0.1C298.6,86.5,296.9,86,295.6,85.4z M301.8,75.8c-0.1-0.1-0.3-0.2-0.6-0.2
		c-0.5,0-0.8,0.5-0.8,0.8c0,0.2,0.2,0.5,0.8,0.7c0.4,0.2,0.9,0.2,1.1,0.2c0.2,0,0.2,0,0.2-0.1C302.7,76.9,302.3,76.1,301.8,75.8z"/>
	<path class="st1" d="M313,77.2c0.7,0,1,0.4,1,1.1c0,0.8-0.3,1.2-1,1.2h-0.3c-2.1,0-3.4-0.4-4.3-1c-0.8,0.5-1.9,1-3.2,1H305
		c-0.6,0-0.9-0.4-0.9-1.2c0-0.7,0.3-1.1,1-1.1h0.2c0.9,0,1.4-0.1,1.7-0.4c-0.1-0.2-0.1-0.5-0.1-0.8c0-2.3,2.6-5.1,4-5.1
		c0.8,0,1.3,1,1.3,2.2c0,1.3-0.5,2.8-1.5,3.7c0.5,0.2,1.2,0.4,2.1,0.4H313z M310.5,66c0.1,0.1,0.1,0.1,0,0.2
		c-0.2,0.3-1.1,1.2-1.4,1.7c-0.1,0.1-0.1,0.1-0.2,0c-0.5-0.3-1.5-1-1.7-1.4c-0.1-0.1-0.1-0.1,0-0.2c0.3-0.5,0.9-1.2,1.3-1.6
		c0.2-0.2,0.2-0.2,0.3-0.1C309.1,64.9,309.8,65.6,310.5,66z M309.8,73.2c-0.8,0-1.6,0.9-1.6,1.2c0,0.5,0.4,0.9,1.2,1.4
		c0.3-0.1,1.4-1,1.4-1.3C310.9,73.7,310.6,73.2,309.8,73.2z"/>
	<path class="st1" d="M318.9,62.4c-0.7,0-1.1-0.7-1.1-1.5c0-0.2,0-0.5,0.1-0.8c0.1-0.2,0.2-0.8,0.5-0.8c0.1,0,0.2,0.2,0.2,0.6v0.3
		c0,0.3,0.2,0.5,0.6,0.5h0c0.5,0,0.8-0.3,0.9-1c0.1-0.3,0.2-1.1,0.6-1.1c0.1,0,0.2,0.2,0.2,0.5c0,0.2,0.1,0.3,0.4,0.3
		c0.5,0,0.8-0.3,0.9-0.8c0.1-0.7,0.2-0.8,0.4-0.8c0.2,0,0.3,0.7,0.3,1.1c0,0.3,0,0.6-0.2,1c-0.2,0.7-0.7,1.2-1.5,1.2
		c-0.2,0-0.4-0.1-0.5-0.1c-0.1-0.1-0.1,0-0.2,0.1C320.1,61.9,319.7,62.4,318.9,62.4z M322.8,55.5C322.9,55.5,322.9,55.6,322.8,55.5
		c0,0.5-0.2,0.9-0.4,1.2c-0.1,0.1-0.2,0.2-0.5,0.3l-4,1.9c0,0-0.1,0-0.1-0.1c0-0.2,0.1-0.5,0.2-0.7c0.2-0.3,0.2-0.4,0.3-0.5
		c0.1-0.1,0.2-0.1,0.3-0.2L322.8,55.5z"/>
	<path class="st1" d="M321.6,74.9c0.1,0,0.2,0.1,0.2,0.5c0,0.1,0,0.3,0,0.5c0,0.7,0.5,1.1,1.2,1.1c1,0,1.5-1,1.9-1.8
		c0-0.1,0.2-0.4,0.3-0.4c0.1,0,0.2,0.1,0.2,0.6c0.1,1.1,0.7,1.7,1.5,1.7h0.3c0.7,0,1.1,0.3,1.1,1c0,0.8-0.4,1.3-1.1,1.3H327
		c-1.3,0-2-0.6-2.2-1.9c-0.3,0.9-1.2,2-2.3,2c-1.1,0-1.6-0.9-1.7-1.9c-0.4,1.1-1.5,1.9-2.7,1.9c-1.2,0-2-0.4-2.3-1.6
		c-0.2,0.4-0.4,0.8-0.8,1.1c-0.4,0.3-1.1,0.5-2.1,0.5h-0.2c-0.7,0-1-0.4-1-1.2c0-0.7,0.3-1.1,1-1.1h0.3c1.6,0,2.6-0.6,3.2-1.7
		c0-0.1,0.2-0.3,0.3-0.3c0.2,0,0.2,0.2,0.2,0.5c0,0.9,0.8,1.3,1.8,1.3c1.2,0,2.1-0.5,2.8-1.7C321.3,75.1,321.5,74.9,321.6,74.9z
		 M322.4,69.3c0.2-0.2,0.2-0.2,0.3-0.1c0.5,0.5,1,1.1,1.5,1.4c0.2,0.1,0.2,0.2,0,0.3c-0.5,0.5-0.9,1-1.3,1.5c-0.1,0.1-0.2,0.1-0.3,0
		c-0.4-0.3-0.9-0.7-1.4-1.2c-0.3,0.3-0.9,1-1.1,1.2c-0.1,0.1-0.2,0.2-0.4,0c-0.5-0.3-1.1-0.9-1.5-1.4c-0.1-0.1-0.1-0.2,0-0.3
		c0.4-0.5,0.9-1,1.4-1.5c0.1-0.1,0.2-0.1,0.3,0.1c0.4,0.4,1,1,1.4,1.2C321.6,70.2,322.2,69.6,322.4,69.3z M322.8,66
		c0.1,0.1,0.1,0.1,0,0.2c-0.2,0.3-1.1,1.2-1.4,1.7c-0.1,0.1-0.1,0.1-0.2,0c-0.5-0.3-1.5-1-1.7-1.4c-0.1-0.1-0.1-0.1,0-0.2
		c0.3-0.5,0.9-1.2,1.3-1.6c0.2-0.2,0.2-0.2,0.3-0.1C321.3,65,322.1,65.6,322.8,66z"/>
	<path class="st1" d="M329.4,78.4c-0.5,0.7-1.2,1-2.3,1h-0.2c-0.7,0-1-0.4-1-1.2c0-0.7,0.3-1.1,1-1.1h0.2c0.5,0,1-0.1,1.5-0.2
		c0.4-0.1,0.6-0.3,0.7-0.4c0-1.7-0.6-5.4-0.9-8.9c0-0.4-0.3-1.6-0.4-2.1c0-0.1,0-0.2,0-0.2c0-0.3,0.3-0.9,0.5-1.3
		c0.3-0.5,0.5-0.9,0.7-0.9c0.1,0,0.1,0.1,0.2,0.2c0.3,1,0.6,1.5,0.8,1.8c0.1,0.1,0.1,0.2,0.1,0.3c0,0,0,0.1,0,0.1
		c-0.1,0.2-0.4,0.8-0.6,1.1c0.2,3.4,0.7,6.2,0.7,7.8C330.5,76.1,330.1,77.4,329.4,78.4z"/>
	<path class="st1" d="M335,79.5c-0.1,0-0.2-0.2-0.2-0.7c0-3-1.1-11.3-1.1-12.7c0-0.7,0.5-1.7,0.9-2.5c0.1-0.2,0.3-0.5,0.5-0.5
		c0.1,0,0.2,0.2,0.2,0.8c0.1,2.2,0.7,7.3,0.7,11c0,1.5-0.1,2.7-0.4,3.5C335.4,79.1,335.2,79.5,335,79.5z"/>
	<path class="st1" d="M349.3,66.1c0,0.5-0.1,1-0.3,1.5c0.2,0.1,0.4,0.3,0.4,0.4c0,0.4-0.2,0.7-0.3,1c-0.1,0.1-0.1,0.1-0.1,0.1
		l-0.5-0.3c-0.5,0.8-1.3,1.8-2.5,2.3c-0.4,0.2-0.9,0.4-1.5,0.4c-0.3,0-0.4-0.1-0.4-0.1c0-0.1,0.2-0.2,0.6-0.4
		c0.9-0.5,2.5-1.8,3.1-2.5c-0.5-0.3-1.1-0.7-1.1-1.4c0-0.4,0.2-0.9,0.6-1.3c0.4-0.5,0.8-0.8,1.2-0.8
		C349.1,64.9,349.3,65.6,349.3,66.1z M347.5,66.6C347.5,66.6,347.5,66.6,347.5,66.6c0,0.2,0.4,0.5,0.8,0.7c0.1-0.2,0.1-0.4,0.1-0.7
		c0-0.3-0.1-0.4-0.3-0.4C347.9,66.2,347.7,66.3,347.5,66.6z"/>
	<path class="st1" d="M350.4,78c-1.1,0.6-3.5,2-5.4,3.4c-0.1,0.1-0.1,0.1-0.2,0.1c0,0-0.1,0-0.1-0.1c0-0.2,0.1-0.6,0.3-0.9
		c0.1-0.2,0.7-0.8,1.1-1.2c0.1-0.1,0.1-0.1,0.1-0.1s0-0.1-0.2-0.1c-0.8-0.3-1.3-0.6-1.3-1.4c0-1.2,1.2-3,2.4-3.9
		c0.5-0.4,0.9-0.6,1.4-0.6c0.7,0,1.1,0.3,1.1,1c0,0.3-0.1,0.9-0.3,1.4c-0.1,0.3-0.2,0.4-0.3,0.4c-0.1,0-0.1,0-0.3-0.2
		c-0.2-0.2-0.5-0.4-0.8-0.4c-0.7,0-1.7,0.5-1.7,0.9c0,0.4,1.7,1.1,2.4,1.1c0.1,0,0.1,0,0.2,0c0.4-0.1,1.4-0.5,2-0.9
		c0.2-0.1,0.3-0.2,0.4-0.2c0.1,0,0.1,0,0.1,0.1c0,0.1-0.1,0.3-0.2,0.6C350.8,77.9,350.7,77.9,350.4,78z"/>
	<path class="st1" d="M358,79.5c-0.7,0-1.2-0.1-1.7-0.5c-0.7-0.6-1.1-1.7-1.3-3.1c-0.2-1.1-0.2-2.3-0.3-3.7c-0.1-2-0.2-5.1-0.5-6.9
		c0-0.1,0-0.2,0-0.2c0-0.1,0-0.2,0.2-0.4c0.3-0.5,0.5-0.8,0.7-1.2c0.2-0.3,0.2-0.3,0.3-0.3c0.1,0,0.2,0.2,0.3,0.7
		c0.4,3.5,0.1,8.4,0.6,11.1c0.1,0.7,0.2,0.9,0.4,1.3c0.3,0.6,0.7,0.9,1.4,1c0.8,0,1.2,0.4,1.2,1.1c0,0.9-0.4,1.2-1.1,1.2H358z"/>
	<path class="st1" d="M366.1,77.2c0.7,0,1,0.4,1,1.1c0,0.8-0.3,1.2-1,1.2h-0.3c-2.1,0-3.4-0.4-4.3-1c-0.8,0.5-1.9,1-3.2,1H358
		c-0.6,0-0.9-0.4-0.9-1.2c0-0.7,0.3-1.1,1-1.1h0.2c0.9,0,1.4-0.1,1.7-0.4c-0.1-0.2-0.1-0.5-0.1-0.8c0-2.3,2.6-5.1,4-5.1
		c0.8,0,1.3,1,1.3,2.2c0,1.3-0.5,2.8-1.5,3.7c0.5,0.2,1.2,0.4,2.1,0.4H366.1z M363.6,66c0.1,0.1,0.1,0.1,0,0.2
		c-0.2,0.3-1.1,1.2-1.4,1.7c-0.1,0.1-0.1,0.1-0.2,0c-0.5-0.3-1.5-1-1.7-1.4c-0.1-0.1-0.1-0.1,0-0.2c0.3-0.5,0.9-1.2,1.3-1.6
		c0.2-0.2,0.2-0.2,0.3-0.1C362.1,64.9,362.9,65.6,363.6,66z M362.9,73.2c-0.8,0-1.6,0.9-1.6,1.2c0,0.5,0.4,0.9,1.2,1.4
		c0.3-0.1,1.4-1,1.4-1.3C363.9,73.7,363.6,73.2,362.9,73.2z"/>
	<path class="st1" d="M373.6,60.5c0.7,0,1.7,1,1.7,2.1c0,0.4-0.1,0.8-0.2,1.2c-0.3,0.8-0.9,1.3-1.8,1.3c-0.8,0-1.3-0.6-1.3-1.3
		C371.9,62.7,373.1,60.5,373.6,60.5z M373.4,62.1c-0.3,0-0.7,0.6-0.7,1c0,0.3,0.4,0.6,0.8,0.6c0.5,0,1.1-0.3,1.1-0.5
		C374.6,63,374,62.1,373.4,62.1z"/>
	<path class="st1" d="M368.8,74.2c-0.2,0-0.5,0-0.6,0.1c-0.2,0.1-0.6,0.3-0.8,0.3c-0.2,0-0.2-0.1-0.2-0.2c0-0.4,0.6-1.3,1.2-1.8
		c0.5-0.4,1-0.6,1.4-0.6c0.2,0,0.3,0,0.5,0.1c1.8,0.4,4.1,1.4,6,1.8c1.3,0.3,2.6,0.4,3.4,0.4c0.2,0,0.3,0,0.5,0c0.1,0,0.1,0,0.1,0.1
		c0,0.4-0.7,1.5-1.1,1.9c-0.1,0.1-0.3,0.1-0.6,0.1c-0.5,0-1.6-0.1-1.9-0.1c-0.9,0-1.6,0.1-2.2,0.3c-0.4,0.2-1.2,0.5-2.3,1
		c-1.7,0.8-2.8,1.4-3.6,1.7c-0.8,0.3-1.6,0.5-2.5,0.5h-0.3c-0.7,0-1.1-0.4-1.1-1.2c0-0.7,0.4-1.1,1.1-1.1h0.3c1.4,0,2.5-0.1,3.4-0.4
		c0.9-0.3,2.3-0.7,4-1.4C371.5,74.8,369.9,74.2,368.8,74.2z M375.6,68.2c0.1,0.1,0.1,0.1,0,0.2c-0.2,0.3-1.1,1.2-1.4,1.7
		c-0.1,0.1-0.1,0.1-0.2,0c-0.5-0.3-1.5-1-1.7-1.4c-0.1-0.1-0.1-0.1,0-0.2c0.3-0.5,0.9-1.2,1.3-1.6c0.2-0.2,0.2-0.2,0.3-0.1
		C374.2,67.1,374.9,67.7,375.6,68.2z"/>
	<path class="st1" d="M386,87c0.1-0.1,0.1,0,0.1,0.1c0,0.6-0.2,1.1-0.5,1.3l-4.1,2.3c-0.1,0-0.1,0-0.1-0.1c0-0.3,0.1-0.8,0.2-1
		c0.1-0.2,0.3-0.3,0.7-0.5L386,87z"/>
	<path class="st1" d="M385.2,85c-0.8,0.4-2.6,1.5-4,2.5c-0.1,0-0.1,0-0.1,0c0,0-0.1,0-0.1-0.1c0-0.1,0.1-0.3,0.2-0.7
		c0.1-0.2,0.5-0.6,0.8-0.9c0,0,0.1-0.1,0.1-0.1c0,0,0-0.1-0.1-0.1c-0.6-0.2-0.9-0.4-0.9-0.9c0-0.1,0-0.1,0-0.2c0-0.9,1-2.2,1.8-2.9
		c0.3-0.3,0.7-0.4,1-0.4c0.5,0,0.8,0.3,0.8,0.7c0,0.3-0.1,0.6-0.2,1c-0.1,0.2-0.2,0.4-0.3,0.4c-0.1,0-0.2-0.1-0.3-0.2
		c-0.1-0.1-0.3-0.3-0.6-0.3c-0.8,0-1.3,0.5-1.3,0.7c0,0.3,1.3,0.8,1.8,0.8c0.1,0,0.1,0,0.1,0c0.2-0.1,1.1-0.4,1.5-0.6
		c0.2-0.1,0.3-0.2,0.3-0.2c0,0,0.1,0,0.1,0.1c0,0.1-0.1,0.2-0.1,0.4C385.5,84.7,385.4,84.8,385.2,85z"/>
	<path class="st1" d="M390.1,65c0.1,0.2,0.1,0.2,0.1,0.3c0,0.1,0,0.1-0.1,0.2c-0.2,0.4-0.5,1-0.8,1.3c-0.2,2.4-0.5,4.3-1.6,7
		c0.3,0.8,0.5,1.9,0.5,2.9c0,0.7-0.1,1.3-0.3,1.8c-0.2,0.4-2.7,0.8-4.4,0.8c-0.5,0-0.8,0-1.1-0.1c-0.1,0-0.2-0.3-0.2-0.7
		c0-0.6,0.1-1.5,0.3-1.8c0-0.1,0.1-0.1,0.1-0.1c0.1,0,0.1,0,0.2,0c1.4,0,2.8-1.3,3.7-2.9c-1.1-2.2-3.5-5.2-5.6-6.6
		c0,0.1-0.4,0.6-0.7,0.6c-0.3,0-2.2-1.8-2.2-2.2c0-0.2-0.1-0.4-0.1-0.6c0-0.6,0.1-1.1,0.2-1.4c0.1-0.3,0.3-0.4,0.4-0.4
		c0.2,0,0.5,0.2,0.8,0.4c1.6,1.1,3.2,2.4,4.5,4c1,1.3,2.3,3,3.3,5.1c0.6-1.3,0.7-2.2,0.9-3.9c0.1-1,0.1-1.7,0.1-2.2
		c0-1.1-0.1-1.5-0.1-1.8c0-0.2,0.1-0.4,0.2-0.7c0.4-0.7,0.7-1.2,0.8-1.2c0.1,0,0.1,0.1,0.2,0.2C389.6,63.8,389.8,64.4,390.1,65z
		 M387.1,74.9c-0.8,1.1-0.9,1.3-1.7,2.1c0.8,0,1.5-0.1,2.1-0.3C387.5,76.3,387.5,75.7,387.1,74.9z"/>
	<path class="st1" d="M394.1,79.5c-0.1,0-0.2-0.2-0.2-0.7c0-3-1.1-11.3-1.1-12.7c0-0.7,0.5-1.7,0.9-2.5c0.1-0.2,0.3-0.5,0.5-0.5
		c0.1,0,0.2,0.2,0.2,0.8c0.1,2.2,0.7,7.3,0.7,11c0,1.5-0.1,2.7-0.4,3.5C394.5,79.1,394.3,79.5,394.1,79.5z"/>
	<path class="st0" d="M406.4,72c0.3,0.3,0.4,0.7,0.4,1.1c0,0.2-0.1,0.7-0.4,0.9c-0.3,0.3-0.7,0.4-1.1,0.4c-0.3,0-0.7-0.1-0.9-0.4
		c-0.3-0.3-0.4-0.6-0.4-1c0-0.4,0.2-0.8,0.4-1c0.3-0.2,0.6-0.4,1-0.4C405.8,71.7,406.1,71.8,406.4,72z M406.4,77.3
		c0.3,0.3,0.4,0.8,0.4,1.1c0,0.3-0.1,0.7-0.4,1c-0.3,0.3-0.7,0.4-1.1,0.4c-0.3,0-0.6-0.2-0.9-0.4c-0.3-0.3-0.4-0.6-0.4-1
		c0-0.3,0.2-0.7,0.4-1c0.3-0.3,0.6-0.4,1-0.4C405.8,76.9,406.1,77,406.4,77.3z"/>
	<path class="st0" d="M420.9,57.4c0,0.5-0.1,1-0.3,1.5c0.2,0.1,0.4,0.3,0.4,0.4c0,0.4-0.2,0.7-0.3,1c-0.1,0.1-0.1,0.1-0.1,0.1
		L420,60c-0.5,0.8-1.3,1.8-2.5,2.3c-0.4,0.2-0.9,0.4-1.5,0.4c-0.3,0-0.4-0.1-0.4-0.1c0-0.1,0.2-0.2,0.6-0.4c0.9-0.5,2.5-1.8,3.1-2.5
		c-0.5-0.3-1.1-0.7-1.1-1.4c0-0.4,0.2-0.9,0.6-1.3c0.4-0.5,0.8-0.8,1.2-0.8C420.7,56.1,420.8,56.8,420.9,57.4z M419.1,57.8
		C419,57.9,419,57.9,419.1,57.8c0,0.2,0.4,0.5,0.8,0.7c0.1-0.2,0.1-0.4,0.1-0.7c0-0.3-0.1-0.4-0.3-0.4
		C419.4,57.4,419.2,57.6,419.1,57.8z"/>
	<path class="st0" d="M421.8,77.4c0,2.3-0.4,2.8-0.9,3.7c-1.3,2-3.6,2.9-5.9,2.9c-4,0-5.1-2.1-5.1-4.1c0-1.4,0.5-3,1.1-4.2
		c0.3-0.6,0.6-0.8,0.8-0.8c0.1,0,0.1,0.1,0.1,0.2c0,0.2-0.1,0.5-0.3,0.8c-0.3,0.7-0.7,1.7-0.7,2.5c0,1.8,1.4,3.3,4.4,3.3
		c2.2,0,4.9-1.4,5.4-2.6c0.1-0.1,0.1-0.2,0.1-0.3c-0.1-1.9-0.3-3.2-0.5-4.9c-0.4-3.1-0.5-3.8-0.8-6.6c0-0.4-0.3-1.3-0.4-1.7
		c0-0.1,0-0.2,0-0.3c0,0,0-0.1,0-0.2c0-0.1,0.1-0.4,0.4-0.9c0.2-0.5,0.7-1.1,0.8-1.1c0.1,0,0.1,0.1,0.2,0.2c0.3,0.9,0.6,1.4,0.8,1.8
		c0,0.1,0.1,0.2,0.1,0.2c0,0.1,0,0.1,0,0.2c-0.1,0.2-0.3,0.8-0.5,1.1C421.2,70.1,421.8,75,421.8,77.4z"/>
	<path class="st0" d="M420.6,85.4c-0.3-0.2-0.4-0.3-0.4-0.4c0-0.1,0.2-0.2,0.4-0.2c0.3,0,1.1,0.2,1.8,0.2c0.6,0,1.2-0.2,2.1-0.6
		c2.4-1.2,3.9-3,3.9-4.2c0-0.2,0-0.3-0.1-0.7h-0.7c-0.5,0-1.5-0.1-2.2-0.5c-0.7-0.4-1-0.9-1-1.5c0-0.6,0.3-1.4,0.6-2.2
		c0.6-1.3,1.2-2.2,1.9-2.2c0.7,0,1.3,0.5,1.8,1.1c0.5,0.7,0.7,1.8,0.7,2.8h1c0.6,0,0.9,0.3,0.9,1c0,0.8-0.3,1.2-0.9,1.2l-1.1,0.1
		c-0.2,3.5-1.3,5.8-4.1,6.9c-0.2,0.1-0.4,0.1-0.6,0.1C423.6,86.5,422,86,420.6,85.4z M426.9,75.8c-0.1-0.1-0.3-0.2-0.6-0.2
		c-0.5,0-0.8,0.5-0.8,0.8c0,0.2,0.2,0.5,0.8,0.7c0.4,0.2,0.9,0.2,1.1,0.2c0.2,0,0.2,0,0.2-0.1C427.7,76.9,427.3,76.1,426.9,75.8z"/>
	<path class="st0" d="M438.1,77.2c0.7,0,1,0.4,1,1.1c0,0.8-0.3,1.2-1,1.2h-0.3c-2.1,0-3.4-0.4-4.3-1c-0.8,0.5-1.9,1-3.2,1H430
		c-0.6,0-0.9-0.4-0.9-1.2c0-0.7,0.3-1.1,1-1.1h0.2c0.9,0,1.4-0.1,1.7-0.4c-0.1-0.2-0.1-0.5-0.1-0.8c0-2.3,2.6-5.1,4-5.1
		c0.8,0,1.3,1,1.3,2.2c0,1.3-0.5,2.8-1.5,3.7c0.5,0.2,1.2,0.4,2.1,0.4H438.1z M435.5,65.2c0.2-0.2,0.2-0.2,0.3-0.1
		c0.5,0.5,1,1.1,1.5,1.4c0.2,0.1,0.2,0.2,0,0.3c-0.5,0.5-0.9,1-1.3,1.5c-0.1,0.1-0.2,0.1-0.3,0c-0.4-0.3-0.9-0.7-1.4-1.2
		c-0.3,0.3-0.9,1-1.1,1.2c-0.1,0.1-0.2,0.2-0.4,0c-0.5-0.3-1.1-0.9-1.5-1.4c-0.1-0.1-0.1-0.2,0-0.3c0.4-0.5,0.9-1,1.4-1.5
		c0.1-0.1,0.2-0.1,0.3,0.1c0.4,0.4,1,1,1.4,1.2C434.7,66.1,435.3,65.5,435.5,65.2z M434.9,73.2c-0.8,0-1.6,0.9-1.6,1.2
		c0,0.5,0.4,0.9,1.2,1.4c0.3-0.1,1.4-1,1.4-1.3C435.9,73.7,435.6,73.2,434.9,73.2z"/>
	<path class="st0" d="M441.7,78c-0.4,0.6-1.2,1.1-2.6,1.3c-0.4,0.1-0.9,0.1-1.4,0.1c-0.6,0-1-0.6-1-1.1c0-0.6,0.3-1.1,1-1.1h0.5
		c1,0,2.6,0,3.2-0.6c-0.1-0.9-0.8-2-1.1-2.4c0,0,0,0,0-0.1c0-0.4,0.7-1.8,0.7-1.9c0-0.1,0.1-0.1,0.1-0.1c0.3,0,1.1,1.6,1.1,3.5
		C442.4,76.4,442.3,77.3,441.7,78z M442.4,67c0.1,0.1,0.1,0.1,0,0.2c-0.2,0.3-1.1,1.2-1.4,1.7c-0.1,0.1-0.1,0.1-0.2,0
		c-0.5-0.3-1.5-1-1.7-1.4c-0.1-0.1-0.1-0.1,0-0.2c0.3-0.5,0.9-1.2,1.3-1.6c0.2-0.2,0.2-0.2,0.3-0.1C440.9,65.9,441.7,66.5,442.4,67z
		"/>
	<path class="st0" d="M454,79.5c-0.7,0-1.2-0.1-1.7-0.5c-0.7-0.6-1.1-1.7-1.3-3.1c-0.2-1.1-0.2-2.3-0.3-3.7c-0.1-2-0.2-5.1-0.5-6.9
		c0-0.1,0-0.2,0-0.2c0-0.1,0-0.2,0.2-0.4c0.3-0.5,0.5-0.8,0.7-1.2c0.2-0.3,0.2-0.3,0.3-0.3c0.1,0,0.2,0.2,0.3,0.7
		c0.4,3.5,0.1,8.4,0.6,11.1c0.1,0.7,0.2,0.9,0.4,1.3c0.3,0.6,0.7,0.9,1.4,1c0.8,0,1.2,0.4,1.2,1.1c0,0.9-0.4,1.2-1.1,1.2H454z"/>
	<path class="st0" d="M458.8,75.8c0,0.6,0.6,1.2,1.4,1.4c0.2,0,0.3,0,0.5,0h0.1c0.9,0,0.9,0.7,0.9,1c0,0.3,0,1.3-0.8,1.3h-0.2
		c-0.2,0-0.3,0-0.6,0c-1.5-0.2-2.1-1.5-2.2-1.7c-0.2,0.6-1.5,1.7-3.7,1.7h-0.1c-0.6,0-1-0.6-1-1.1c0-0.6,0.3-1.1,1-1.1h0.7
		c1,0,2.4-0.2,3.3-1.6c0.3-0.5,0.4-0.5,0.5-0.5C458.7,75.1,458.8,75.3,458.8,75.8z M459.7,69.9c0.1,0.1,0.1,0.1,0,0.2
		c-0.2,0.3-1.1,1.2-1.4,1.7c-0.1,0.1-0.1,0.1-0.2,0c-0.5-0.3-1.5-1-1.7-1.4c-0.1-0.1-0.1-0.1,0-0.2c0.3-0.5,0.9-1.2,1.3-1.6
		c0.2-0.2,0.2-0.2,0.3-0.1C458.2,68.8,459,69.5,459.7,69.9z"/>
	<path class="st0" d="M474,76.1c0,0-0.1,0.1-0.1,0.1c-0.2,0-0.3,0-0.4,0c-0.5,0-0.8,0-1.5-0.1c0,0.4,0.3,0.6,0.9,0.8
		c0.6,0.2,1.2,0.3,1.9,0.3h1.1c0.8,0,1.1,0.4,1.1,1.1c0,0.8-0.4,1.2-1.1,1.2h-1c-1.3,0-2.3-0.3-2.7-0.8c-0.5-0.5-0.7-1.4-0.7-2.6
		c-1.3,0-1.8,0.1-2.4,0.4c-0.4,0.2-0.9,0.3-2,0.9c-1.6,0.8-2.8,1.4-3.5,1.6c-0.8,0.3-1.7,0.5-2.6,0.5h-0.3c-0.7,0-1.1-0.4-1.1-1.2
		c0-0.7,0.4-1.1,1.1-1.1h0.3c1.4,0,2.5-0.1,3.4-0.4c1-0.3,2.3-0.7,3.9-1.4c-1.9-0.5-3.5-1.2-4.5-1.2c-0.2,0-0.4,0-0.6,0.1
		c-0.2,0.1-0.6,0.3-0.8,0.3c-0.1,0-0.2-0.1-0.2-0.2c0-0.4,0.4-1.1,1.2-1.8c0.5-0.4,1-0.6,1.4-0.6c0.2,0,0.3,0,0.5,0.1
		c1.8,0.4,4.1,1.4,6,1.8c1.3,0.3,2.6,0.4,3.4,0.4c0.2,0,0.3,0,0.5,0c0.1,0,0.1,0.1,0.1,0.1C475.1,74.6,474.4,75.7,474,76.1z"/>
	<path class="st0" d="M481,68c0.1-0.1,0.1,0,0.1,0.1c0,0.6-0.2,1.1-0.5,1.3l-4.1,2.3c-0.1,0-0.1,0-0.1-0.1c0-0.3,0.1-0.8,0.2-1
		c0.1-0.2,0.3-0.3,0.7-0.5L481,68z"/>
	<path class="st0" d="M480.3,75.8c0,0.6,0.6,1.2,1.4,1.4c0.2,0,0.3,0,0.5,0h0.1c0.9,0,0.9,0.7,0.9,1c0,0.3,0,1.3-0.8,1.3h-0.2
		c-0.2,0-0.3,0-0.6,0c-1.5-0.2-2.1-1.5-2.2-1.7c-0.2,0.6-1.5,1.7-3.7,1.7h-0.1c-0.6,0-1-0.6-1-1.1c0-0.6,0.3-1.1,1-1.1h0.7
		c1,0,2.4-0.2,3.3-1.6c0.3-0.5,0.4-0.5,0.5-0.5C480.2,75.1,480.3,75.3,480.3,75.8z M481.4,83.6c0.1,0.1,0.1,0.1,0,0.2
		c-0.2,0.3-1.1,1.2-1.4,1.7c-0.1,0.1-0.1,0.1-0.2,0c-0.5-0.3-1.5-1-1.7-1.4c-0.1-0.1-0.1-0.1,0-0.2c0.3-0.5,0.9-1.2,1.3-1.6
		c0.2-0.2,0.2-0.2,0.3-0.1C480,82.5,480.7,83.2,481.4,83.6z"/>
	<path class="st0" d="M488.5,65.4c0.7,0,1.7,1,1.7,2.1c0,0.4-0.1,0.8-0.2,1.2c-0.3,0.8-0.9,1.3-1.8,1.3c-0.8,0-1.3-0.6-1.3-1.3
		C486.8,67.6,488,65.4,488.5,65.4z M488.3,67c-0.3,0-0.7,0.6-0.7,1c0,0.3,0.4,0.6,0.8,0.6c0.5,0,1.1-0.3,1.1-0.5
		C489.4,67.9,488.8,67,488.3,67z"/>
	<path class="st0" d="M486.7,80.7c-0.1,0-0.1-0.1-0.1-0.2c0-0.1,0-0.2,0.1-0.3c0.1-0.3,0.3-0.7,0.5-1.1c-1-0.4-1.7-1-2-1.9
		c-0.8,1.5-1.6,2.3-2.6,2.3h-0.2c-0.7,0-1-0.4-1-1.1c0-0.8,0.3-1.1,1-1.1h0.2c1.3,0,2.2-0.8,2.8-2.3c0.3-0.6,0.5-0.9,0.6-0.9
		c0.2,0,0.3,0.2,0.3,0.7c0,0.8,0.5,1.9,2.3,2.3c2-2.5,5.6-5.5,7.2-5.5c0.6,0,1.3,0.2,1.9,0.6c0.7,0.5,0.9,1,0.9,1.5
		c0,0.8-0.4,2.2-1.1,3.1c-0.8,0.9-2.6,1.8-4.5,2.2c-1.1,0.3-2.3,0.4-3.3,0.4c-0.7,0-1.3-0.1-1.8-0.2c-0.2,0.3-0.4,0.7-0.6,1
		C487,80.4,486.8,80.7,486.7,80.7z M497,75.3c0-0.6-1.6-1.5-2.5-1.5c-1.5,0-3.9,1.8-5.3,3.3c0.2,0,0.4,0,0.7,0
		C492.7,77.1,496.2,75.9,497,75.3C497,75.4,497,75.3,497,75.3z"/>
	<path class="st0" d="M503.7,61c-0.8,0.4-2.6,1.5-4,2.5c-0.1,0-0.1,0-0.1,0c0,0-0.1,0-0.1-0.1c0-0.1,0.1-0.3,0.2-0.7
		c0.1-0.2,0.5-0.6,0.8-0.9c0,0,0.1-0.1,0.1-0.1c0,0,0-0.1-0.1-0.1c-0.6-0.2-0.9-0.4-0.9-0.9c0-0.1,0-0.1,0-0.2c0-0.9,1-2.2,1.8-2.9
		c0.3-0.3,0.7-0.4,1-0.4c0.5,0,0.8,0.3,0.8,0.7c0,0.3-0.1,0.6-0.2,1c-0.1,0.2-0.2,0.4-0.3,0.4s-0.2-0.1-0.3-0.2
		c-0.1-0.1-0.3-0.3-0.6-0.3c-0.8,0-1.3,0.5-1.3,0.7c0,0.3,1.3,0.8,1.8,0.8c0.1,0,0.1,0,0.1,0c0.2-0.1,1.1-0.4,1.5-0.6
		c0.2-0.1,0.3-0.2,0.3-0.2c0,0,0.1,0,0.1,0.1c0,0.1-0.1,0.2-0.1,0.4C504.1,60.7,503.9,60.9,503.7,61z M504.6,79.5
		c-0.7,0-1.2-0.1-1.7-0.5c-0.7-0.6-1.1-1.7-1.3-3.1c-0.2-1.1-0.2-2.3-0.3-3.7c-0.1-2-0.2-5.1-0.5-6.9c0-0.1,0-0.2,0-0.2
		c0-0.1,0-0.2,0.2-0.4c0.3-0.5,0.5-0.8,0.7-1.2c0.2-0.3,0.2-0.3,0.3-0.3c0.1,0,0.2,0.2,0.3,0.7c0.4,3.5,0.1,8.4,0.6,11.1
		c0.1,0.7,0.2,0.9,0.4,1.3c0.3,0.6,0.7,0.9,1.4,1c0.8,0,1.2,0.4,1.2,1.1c0,0.9-0.4,1.2-1.1,1.2H504.6z"/>
	<path class="st0" d="M510.4,74.2c0,1.2-0.4,2.9-0.9,3.7c-0.2,0.3-0.9,0.7-1.4,0.8c-1.4,0.4-2.5,0.6-3.3,0.6h-0.2
		c-0.6,0-1-0.4-1-1.2c0-0.7,0.3-1.1,1-1.1h0.2c1.3,0,2.8-0.2,3.7-0.5c0.8-0.3,0.9-0.3,0.9-1.1c0-0.5-0.1-0.8-0.3-1.3
		c-0.2,0.5-0.9,1-1.8,1c-1.1,0-1.8-0.7-1.8-2c0-1.8,1.4-4.1,2-4.1C509.3,69.2,510.4,72.6,510.4,74.2z M509,64.3
		c0.1,0.1,0.1,0.1,0,0.2c-0.2,0.3-1.1,1.2-1.4,1.7c-0.1,0.1-0.1,0.1-0.2,0c-0.5-0.3-1.5-1-1.7-1.4c-0.1-0.1-0.1-0.1,0-0.2
		c0.3-0.5,0.9-1.2,1.3-1.6c0.2-0.2,0.2-0.2,0.3-0.1C507.6,63.2,508.3,63.9,509,64.3z M507.9,71.7c-0.2-0.2-0.5-0.3-0.7-0.3
		c-0.2,0-0.4,0.1-0.5,0.4c-0.1,0.2-0.2,0.4-0.2,0.5c0,0.5,0.5,0.6,1,0.6c0.5,0,0.9-0.2,0.9-0.5C508.4,72.4,508.2,72,507.9,71.7z"/>
	<path class="st0" d="M521.7,78.2c0.2,0.3,0.3,0.6,0.3,1.1c0,0.5-0.2,0.9-0.5,1.1c-0.3,0.2-0.6,0.3-1,0.3c-0.6,0-1.2-0.4-1.5-1.1
		c-0.3-0.7-0.4-1.3-0.4-2c0-0.8,0.2-1.6,0.5-2.3c0.3-0.7,0.6-1.2,1-1.7c0.4-0.4,0.6-0.7,0.8-0.7c0.3,0,0.1,0.4-0.2,0.8
		c-0.8,1.1-1.1,2.1-1.1,3.2c0,0.6,0.1,0.7,0.2,1c0.3-0.1,0.6-0.2,0.8-0.2C521.1,77.7,521.4,77.9,521.7,78.2z"/>
	<path class="st0" d="M535.4,80.4c0.1-0.1,0.1,0,0.1,0.1c0,0.6-0.2,1.1-0.5,1.3l-4.1,2.3c-0.1,0-0.1,0-0.1-0.1c0-0.3,0.1-0.8,0.2-1
		c0.1-0.2,0.3-0.3,0.7-0.5L535.4,80.4z"/>
	<path class="st0" d="M534.2,64.3c0.2-0.2,0.2-0.2,0.3-0.1c0.5,0.5,1,1.1,1.5,1.4c0.2,0.1,0.2,0.2,0,0.3c-0.5,0.5-0.9,1-1.3,1.5
		c-0.1,0.1-0.2,0.1-0.3,0c-0.4-0.3-0.9-0.7-1.4-1.2c-0.3,0.3-0.9,1-1.1,1.2c-0.1,0.1-0.2,0.2-0.4,0c-0.5-0.3-1.1-0.9-1.5-1.4
		c-0.1-0.1-0.1-0.2,0-0.3c0.4-0.5,0.9-1,1.4-1.5c0.1-0.1,0.2-0.1,0.3,0.1c0.4,0.4,1,1,1.4,1.2C533.4,65.2,534,64.5,534.2,64.3z
		 M537.2,76.7c0.5,0.3,0.9,0.5,1.2,0.5h0.3c0.7,0,1.1,0.4,1.1,1.1c0,0.8-0.4,1.2-1.1,1.2h-0.3c-0.8,0-1.5-0.3-2.3-0.9
		c-0.7-0.6-1.2-1.6-1.4-3c-0.2,0.4-0.4,0.7-0.8,1c-0.6,0.4-1.6,0.6-2.6,0.6c-0.7,0-1.4-0.1-1.4-0.7c0.3-2.2,0.6-2.6,1.7-3.4
		c0.5-0.4,1.8-1.2,2.3-1.6c0-0.2,0-0.4,0-0.5c0-0.5,0.1-0.8,0.4-1.2c0.2-0.3,0.3-0.5,0.4-0.5c0.1,0,0.2,0.2,0.2,0.5
		c0.3,2.1,0.5,3.8,0.8,4.8C535.9,75.4,536.4,76.2,537.2,76.7z M534.2,72.6c-0.9,0.6-2.5,1.6-2.6,1.9c0,0.2,0.3,0.2,0.7,0.2
		c0.6,0,1.5-0.2,2.2-0.5C534.4,73.6,534.3,73.4,534.2,72.6z"/>
	<path class="st0" d="M539.2,70.1c-0.7,0-1.1-0.7-1.1-1.5c0-0.2,0-0.5,0.1-0.8c0.1-0.2,0.2-0.8,0.5-0.8c0.1,0,0.2,0.2,0.2,0.6v0.3
		c0,0.3,0.2,0.5,0.6,0.5h0c0.5,0,0.8-0.3,0.9-1c0.1-0.3,0.2-1.1,0.6-1.1c0.1,0,0.2,0.2,0.2,0.5c0,0.2,0.1,0.3,0.4,0.3
		c0.5,0,0.8-0.3,0.9-0.8c0.1-0.7,0.2-0.8,0.4-0.8c0.2,0,0.3,0.7,0.3,1.1c0,0.3,0,0.6-0.2,1c-0.2,0.7-0.7,1.2-1.5,1.2
		c-0.2,0-0.4-0.1-0.5-0.1c-0.1-0.1-0.1,0-0.2,0.1C540.4,69.6,539.9,70.1,539.2,70.1z M543.1,63.2C543.2,63.1,543.2,63.2,543.1,63.2
		c0,0.5-0.2,0.9-0.4,1.2c-0.1,0.1-0.2,0.2-0.5,0.3l-4,1.9c0,0-0.1,0-0.1-0.1c0-0.2,0.1-0.5,0.2-0.7c0.2-0.3,0.2-0.4,0.3-0.5
		c0.1-0.1,0.2-0.1,0.3-0.2L543.1,63.2z"/>
	<path class="st0" d="M542.3,78c-0.4,0.6-1.2,1.1-2.6,1.3c-0.4,0.1-0.9,0.1-1.4,0.1c-0.6,0-1-0.6-1-1.1c0-0.6,0.3-1.1,1-1.1h0.5
		c1,0,2.6,0,3.2-0.6c-0.1-0.9-0.8-2-1.1-2.4c0,0,0,0,0-0.1c0-0.4,0.7-1.8,0.7-1.9c0-0.1,0.1-0.1,0.1-0.1c0.3,0,1.1,1.6,1.1,3.5
		C542.9,76.4,542.9,77.3,542.3,78z M542.8,80.6c0.2-0.2,0.2-0.2,0.3-0.1c0.5,0.5,1,1.1,1.5,1.4c0.2,0.1,0.2,0.2,0,0.3
		c-0.5,0.5-0.9,1-1.3,1.5c-0.1,0.1-0.2,0.1-0.3,0c-0.4-0.3-0.9-0.7-1.4-1.2c-0.3,0.3-0.9,1-1.1,1.2c-0.1,0.1-0.2,0.2-0.4,0
		c-0.5-0.3-1.1-0.9-1.5-1.4c-0.1-0.1-0.1-0.2,0-0.3c0.4-0.5,0.9-1,1.4-1.5c0.1-0.1,0.2-0.1,0.3,0.1c0.4,0.4,1,1,1.4,1.2
		C542.1,81.5,542.6,80.9,542.8,80.6z"/>
	<path class="st0" d="M544.5,85.4c-0.3-0.2-0.4-0.3-0.4-0.4c0-0.1,0.2-0.2,0.4-0.2c0.3,0,1.1,0.2,1.8,0.2c0.6,0,1.2-0.2,2.1-0.6
		c2.4-1.2,3.9-3,3.9-4.2c0-0.2,0-0.3-0.1-0.7h-0.7c-0.5,0-1.5-0.1-2.2-0.5c-0.7-0.4-1-0.9-1-1.5c0-0.6,0.3-1.4,0.6-2.2
		c0.6-1.3,1.2-2.2,1.9-2.2c0.7,0,1.3,0.5,1.8,1.1c0.5,0.7,0.7,1.8,0.7,2.8h1c0.6,0,0.9,0.3,0.9,1c0,0.8-0.3,1.2-0.9,1.2l-1.1,0.1
		c-0.2,3.5-1.3,5.8-4.1,6.9c-0.2,0.1-0.4,0.1-0.6,0.1C547.5,86.5,545.9,86,544.5,85.4z M550.7,75.8c-0.1-0.1-0.3-0.2-0.6-0.2
		c-0.5,0-0.8,0.5-0.8,0.8c0,0.2,0.2,0.5,0.8,0.7c0.4,0.2,0.9,0.2,1.1,0.2c0.2,0,0.2,0,0.2-0.1C551.6,76.9,551.2,76.1,550.7,75.8z"/>
	<path class="st0" d="M562,77.2c0.7,0,1,0.4,1,1.1c0,0.8-0.3,1.2-1,1.2h-0.3c-2.1,0-3.4-0.4-4.3-1c-0.8,0.5-1.9,1-3.2,1h-0.2
		c-0.6,0-0.9-0.4-0.9-1.2c0-0.7,0.3-1.1,1-1.1h0.2c0.9,0,1.4-0.1,1.7-0.4c-0.1-0.2-0.1-0.5-0.1-0.8c0-2.3,2.6-5.1,4-5.1
		c0.8,0,1.3,1,1.3,2.2c0,1.3-0.5,2.8-1.5,3.7c0.5,0.2,1.2,0.4,2.1,0.4H562z M559.4,66c0.1,0.1,0.1,0.1,0,0.2
		c-0.2,0.3-1.1,1.2-1.4,1.7c-0.1,0.1-0.1,0.1-0.2,0c-0.5-0.3-1.5-1-1.7-1.4c-0.1-0.1-0.1-0.1,0-0.2c0.3-0.5,0.9-1.2,1.3-1.6
		c0.2-0.2,0.2-0.2,0.3-0.1C558,64.9,558.7,65.6,559.4,66z M558.8,73.2c-0.8,0-1.6,0.9-1.6,1.2c0,0.5,0.4,0.9,1.2,1.4
		c0.3-0.1,1.4-1,1.4-1.3C559.8,73.7,559.5,73.2,558.8,73.2z"/>
	<path class="st0" d="M567.8,62.4c-0.7,0-1.1-0.7-1.1-1.5c0-0.2,0-0.5,0.1-0.8c0.1-0.2,0.2-0.8,0.5-0.8c0.1,0,0.2,0.2,0.2,0.6v0.3
		c0,0.3,0.2,0.5,0.6,0.5h0c0.5,0,0.8-0.3,0.9-1c0.1-0.3,0.2-1.1,0.6-1.1c0.1,0,0.2,0.2,0.2,0.5c0,0.2,0.1,0.3,0.4,0.3
		c0.5,0,0.8-0.3,0.9-0.8c0.1-0.7,0.2-0.8,0.4-0.8c0.2,0,0.3,0.7,0.3,1.1c0,0.3,0,0.6-0.2,1c-0.2,0.7-0.7,1.2-1.5,1.2
		c-0.2,0-0.4-0.1-0.5-0.1c-0.1-0.1-0.1,0-0.2,0.1C569.1,61.9,568.6,62.4,567.8,62.4z M571.7,55.5C571.8,55.5,571.8,55.6,571.7,55.5
		c0,0.5-0.2,0.9-0.4,1.2c-0.1,0.1-0.2,0.2-0.5,0.3l-4,1.9c0,0-0.1,0-0.1-0.1c0-0.2,0.1-0.5,0.2-0.7c0.2-0.3,0.2-0.4,0.3-0.5
		c0.1-0.1,0.2-0.1,0.3-0.2L571.7,55.5z"/>
	<path class="st0" d="M570.5,74.9c0.1,0,0.2,0.1,0.2,0.5c0,0.1,0,0.3,0,0.5c0,0.7,0.5,1.1,1.2,1.1c1,0,1.5-1,1.9-1.8
		c0-0.1,0.2-0.4,0.3-0.4c0.1,0,0.2,0.1,0.2,0.6c0.1,1.1,0.7,1.7,1.5,1.7h0.3c0.7,0,1.1,0.3,1.1,1c0,0.8-0.4,1.3-1.1,1.3h-0.3
		c-1.3,0-2-0.6-2.2-1.9c-0.3,0.9-1.2,2-2.3,2c-1.1,0-1.6-0.9-1.7-1.9c-0.4,1.1-1.5,1.9-2.7,1.9c-1.2,0-2-0.4-2.3-1.6
		c-0.2,0.4-0.4,0.8-0.8,1.1c-0.4,0.3-1.1,0.5-2.1,0.5h-0.2c-0.7,0-1-0.4-1-1.2c0-0.7,0.3-1.1,1-1.1h0.3c1.6,0,2.6-0.6,3.2-1.7
		c0-0.1,0.2-0.3,0.3-0.3c0.2,0,0.2,0.2,0.2,0.5c0,0.9,0.8,1.3,1.8,1.3c1.2,0,2.1-0.5,2.8-1.7C570.2,75.1,570.4,74.9,570.5,74.9z
		 M571.3,69.3c0.2-0.2,0.2-0.2,0.3-0.1c0.5,0.5,1,1.1,1.5,1.4c0.2,0.1,0.2,0.2,0,0.3c-0.5,0.5-0.9,1-1.3,1.5c-0.1,0.1-0.2,0.1-0.3,0
		c-0.4-0.3-0.9-0.7-1.4-1.2c-0.3,0.3-0.9,1-1.1,1.2c-0.1,0.1-0.2,0.2-0.4,0c-0.5-0.3-1.1-0.9-1.5-1.4c-0.1-0.1-0.1-0.2,0-0.3
		c0.4-0.5,0.9-1,1.4-1.5c0.1-0.1,0.2-0.1,0.3,0.1c0.4,0.4,1,1,1.4,1.2C570.5,70.2,571.1,69.6,571.3,69.3z M571.7,66
		c0.1,0.1,0.1,0.1,0,0.2c-0.2,0.3-1.1,1.2-1.4,1.7c-0.1,0.1-0.1,0.1-0.2,0c-0.5-0.3-1.5-1-1.7-1.4c-0.1-0.1-0.1-0.1,0-0.2
		c0.3-0.5,0.9-1.2,1.3-1.6c0.2-0.2,0.2-0.2,0.3-0.1C570.2,65,571,65.6,571.7,66z"/>
	<path class="st0" d="M578.4,78.4c-0.5,0.7-1.2,1-2.3,1h-0.2c-0.7,0-1-0.4-1-1.2c0-0.7,0.3-1.1,1-1.1h0.2c0.5,0,1-0.1,1.5-0.2
		c0.4-0.1,0.6-0.3,0.7-0.4c0-1.7-0.6-5.4-0.9-8.9c0-0.4-0.3-1.6-0.4-2.1c0-0.1,0-0.2,0-0.2c0-0.3,0.3-0.9,0.5-1.3
		c0.3-0.5,0.5-0.9,0.7-0.9c0.1,0,0.1,0.1,0.2,0.2c0.3,1,0.6,1.5,0.8,1.8c0.1,0.1,0.1,0.2,0.1,0.3c0,0,0,0.1,0,0.1
		c-0.1,0.2-0.4,0.8-0.6,1.1c0.2,3.4,0.7,6.2,0.7,7.8C579.4,76.1,579,77.4,578.4,78.4z"/>
	<path class="st0" d="M591.5,86c0.1-0.1,0.1,0,0.1,0.1c0,0.6-0.2,1.1-0.5,1.3l-4.1,2.3c-0.1,0-0.1,0-0.1-0.1c0-0.3,0.1-0.8,0.2-1
		c0.1-0.2,0.3-0.3,0.7-0.5L591.5,86z"/>
	<path class="st0" d="M590.8,83.6c0.1,0.1,0.1,0.1,0,0.2c-0.2,0.3-1.1,1.2-1.4,1.7c-0.1,0.1-0.1,0.1-0.2,0c-0.5-0.3-1.5-1-1.7-1.4
		c-0.1-0.1-0.1-0.1,0-0.2c0.3-0.5,0.9-1.2,1.3-1.6c0.2-0.2,0.2-0.2,0.3-0.1C589.4,82.5,590.1,83.2,590.8,83.6z"/>
	<path class="st0" d="M582.8,72.2c-0.1-2-0.2-5.3-0.5-6.9c0,0,0-0.1,0-0.1c0-0.3,0.4-0.8,0.7-1.4c0.2-0.3,0.3-0.6,0.4-0.6
		c0.1,0,0.2,0.2,0.3,0.7c0.4,3.5,0.2,8.4,0.7,11.3c0.2,1,0.4,1.5,0.9,1.8c0.5,0.2,1.2,0.3,1.9,0.3c0.6,0,1.7,0,2.3-0.6
		c-0.1-0.9-0.7-2-1.1-2.4c0,0,0-0.1,0-0.1c0-0.2,0.5-1.4,0.7-1.8c0-0.1,0.1-0.1,0.1-0.1c0.1,0,0.3,0.2,0.4,0.5
		c0.5,0.8,0.7,1.9,0.7,3.1c0,0.9-0.1,2-0.8,2.7c-0.8,0.8-1.8,1.2-3.1,1.2c-0.8,0-1.7-0.2-2.2-0.8C583.2,77.7,583,76.6,582.8,72.2z"
		/>
	<path class="st0" d="M602.2,79.5c-0.7,0-1.2-0.1-1.7-0.5c-0.7-0.6-1.1-1.7-1.3-3.1c-0.2-1.1-0.2-2.3-0.3-3.7
		c-0.1-2-0.2-5.1-0.5-6.9c0-0.1,0-0.2,0-0.2c0-0.1,0-0.2,0.2-0.4c0.3-0.5,0.5-0.8,0.7-1.2c0.2-0.3,0.2-0.3,0.3-0.3
		c0.1,0,0.2,0.2,0.3,0.7c0.4,3.5,0.1,8.4,0.6,11.1c0.1,0.7,0.2,0.9,0.4,1.3c0.3,0.6,0.7,0.9,1.4,1c0.8,0,1.2,0.4,1.2,1.1
		c0,0.9-0.4,1.2-1.1,1.2H602.2z"/>
	<path class="st0" d="M615.1,78.3c0.1-0.1,0.1,0,0.1,0.1c0,0.6-0.2,1.1-0.5,1.3l-4.1,2.3c-0.1,0-0.1,0-0.1-0.1c0-0.3,0.1-0.8,0.2-1
		c0.1-0.2,0.3-0.3,0.7-0.5L615.1,78.3z"/>
	<path class="st0" d="M606.5,79.9c0.1-0.8,0.4-2,1-2.9c0.9-1.3,2.4-2.4,3.8-3.1c-0.1-0.1-0.5-0.4-0.5-0.7c0-0.1,0-0.2,0-0.3
		c0.2-0.9,0.8-2.3,1.4-2.3c1.5,0,3,1.4,3.1,2.1c-0.1,0.7-0.6,2.1-1.3,2.4c-1,0.4-3.8,0.9-5.9,3.4c-0.4,0.5-0.6,1.1-0.6,1.8
		c0,0.8,0.2,1.5,0.4,2.1c0.1,0.3,0.2,0.6,0.2,1c0,0.5-0.4,1.5-0.6,1.9c0,0.1-0.1,0.1-0.2,0.1c-0.4,0-0.8-0.4-1.1-0.7
		c-0.8-0.8-1.2-2.1-1.2-3.9c0-0.6,0-1.2,0.1-1.9c0-0.3,0.1-0.6,0.2-1c-0.7,0.9-1.6,1.4-2.8,1.4H602c-0.6,0-0.9-0.4-0.9-1.1
		c0-0.8,0.3-1.1,1-1.1h0.4c0.6,0,1.4-0.1,1.8-0.3c0.8-0.3,1.4-1,2.1-2c0.1-0.2,0.3-0.5,0.5-0.5c0.1,0,0.2,0.1,0.2,0.3
		c0,0.3-0.2,0.7-0.4,1.3c-0.3,0.9-0.7,2.1-0.7,3.3c0,0.7,0.1,1.1,0.3,1.7C606.4,80.5,606.5,80.2,606.5,79.9z"/>
	<path class="st0" d="M620.3,78.9c-0.6-0.4-0.9-0.9-1.2-1.9c-0.3-1.1-0.7-4.3-1-9.8c0-0.9-0.1-1.5-0.2-2.1c0-0.1,0-0.1,0-0.2
		c0.2-0.7,0.9-2,1.1-2c0.2,0,0.2,0.4,0.2,0.6c0.1,0.6,0.1,1.7,0.2,2.9c0.1,0.7,0.1,2,0.2,3.5l0.2-0.8c0.1-0.6,0.5-1.1,1.1-1.6
		c1-0.8,2.4-1.7,4.3-2.8c1.9-1.1,3.3-1.8,4.3-2.2c0.4-0.2,0.5-0.1,0.3,0.4c-0.1,0.4-0.4,0.9-0.9,1.6c-0.1,0.1-0.1,0.1-0.2,0.2
		c-1,0.4-2.4,1.2-4.1,2.2c-1.9,1.1-3.3,2-4.2,2.7c2.6,1.3,5,3.1,7.2,5.4c0.8,0.8,1.4,1.4,1.8,1.7c0.4,0.3,0.8,0.4,1.2,0.4h0.3
		c0.1,0,0.8,0,0.8,1.2c0,1.1-0.7,1.1-0.8,1.1h-0.3c-0.8,0-1.5-0.3-2.2-0.8c-0.7-0.5-1.5-1.4-2.6-2.5c-0.1,0.7-0.3,1.3-0.6,1.9
		c-0.5,0.8-1.6,1.4-3.3,1.4C621.2,79.4,620.7,79.3,620.3,78.9z M621.5,77c0.2,0.1,0.4,0.1,0.8,0.1c0.9,0,1.9-0.3,2.6-0.9
		c0.1-0.1,0.1-0.2,0-0.4c-0.1-0.5-0.5-1-1.2-1.5c-0.8-0.7-2-1.4-3.5-2.1c-0.2-0.1-0.3-0.2-0.5-0.4c0.2,1.6,0.3,3.1,0.6,4
		C620.6,76.4,621,76.9,621.5,77z"/>
	<path class="st0" d="M633.8,74.2c-0.2,0-0.5,0-0.6,0.1c-0.2,0.1-0.6,0.3-0.8,0.3c-0.2,0-0.2-0.1-0.2-0.2c0-0.4,0.6-1.3,1.2-1.8
		c0.5-0.4,1-0.6,1.4-0.6c0.2,0,0.3,0,0.5,0.1c1.8,0.4,4.1,1.4,6,1.8c1.3,0.3,2.6,0.4,3.4,0.4c0.2,0,0.3,0,0.5,0c0.1,0,0.1,0,0.1,0.1
		c0,0.4-0.7,1.5-1.1,1.9c-0.1,0.1-0.3,0.1-0.6,0.1c-0.5,0-1.6-0.1-1.9-0.1c-0.9,0-1.6,0.1-2.2,0.3c-0.4,0.2-1.2,0.5-2.3,1
		c-1.7,0.8-2.8,1.4-3.6,1.7c-0.8,0.3-1.6,0.5-2.5,0.5h-0.3c-0.7,0-1.1-0.4-1.1-1.2c0-0.7,0.4-1.1,1.1-1.1h0.3c1.4,0,2.5-0.1,3.4-0.4
		c0.9-0.3,2.3-0.7,4-1.4C636.5,74.8,634.9,74.2,633.8,74.2z"/>
	<path class="st0" d="M650.6,61c-0.8,0.4-2.6,1.5-4,2.5c-0.1,0-0.1,0-0.1,0c0,0-0.1,0-0.1-0.1c0-0.1,0.1-0.3,0.2-0.7
		c0.1-0.2,0.5-0.6,0.8-0.9c0,0,0.1-0.1,0.1-0.1c0,0,0-0.1-0.1-0.1c-0.6-0.2-0.9-0.4-0.9-0.9c0-0.1,0-0.1,0-0.2c0-0.9,1-2.2,1.8-2.9
		c0.3-0.3,0.7-0.4,1-0.4c0.5,0,0.8,0.3,0.8,0.7c0,0.3-0.1,0.6-0.2,1c-0.1,0.2-0.2,0.4-0.3,0.4c-0.1,0-0.2-0.1-0.3-0.2
		c-0.1-0.1-0.3-0.3-0.6-0.3c-0.8,0-1.3,0.5-1.3,0.7c0,0.3,1.3,0.8,1.8,0.8c0.1,0,0.1,0,0.1,0c0.2-0.1,1.1-0.4,1.5-0.6
		c0.2-0.1,0.3-0.2,0.3-0.2c0,0,0.1,0,0.1,0.1c0,0.1-0.1,0.2-0.1,0.4C650.9,60.8,650.7,60.9,650.6,61z M649.1,79.5
		c-0.1,0-0.2-0.2-0.2-0.7c0-3-1.1-11.3-1.1-12.7c0-0.7,0.5-1.7,0.9-2.5c0.1-0.2,0.3-0.5,0.5-0.5c0.1,0,0.2,0.2,0.2,0.8
		c0.1,2.2,0.7,7.3,0.7,11c0,1.5-0.1,2.7-0.4,3.5C649.4,79.1,649.3,79.5,649.1,79.5z"/>
</g>
</svg>
