<?xml version="1.0" encoding="utf-8"?>
<!-- Generator: Adobe Illustrator 19.2.0, SVG Export Plug-In . SVG Version: 6.00 Build 0)  -->
<svg version="1.1" id="Layer_1" xmlns="http://www.w3.org/2000/svg" xmlns:xlink="http://www.w3.org/1999/xlink" x="0px" y="0px"
	 viewBox="0 0 485.1 35.5" style="enable-background:new 0 0 485.1 35.5;" xml:space="preserve">
<style type="text/css">
	.st0{fill:#FFFFFF;}
	.st1{fill:#F7931E;}
</style>
<g>
	<path class="st0" d="M2.4,20.9c0.4,0.3,0.4,0.8,0.4,1.1c0,0.3-0.1,0.7-0.4,1c-0.3,0.3-0.7,0.4-1.1,0.4c-0.3,0-0.7-0.1-0.9-0.4
		C0.1,22.8,0,22.4,0,22c0-0.4,0.2-0.7,0.4-1c0.3-0.2,0.6-0.4,1-0.4C1.7,20.6,2.1,20.7,2.4,20.9z"/>
	<path class="st0" d="M12.3,14.5c0.1,0.1,0.1,0.1,0,0.2c-0.2,0.3-1.1,1.2-1.4,1.7c-0.1,0.1-0.1,0.1-0.2,0c-0.5-0.3-1.5-1-1.7-1.4
		c-0.1-0.1-0.1-0.1,0-0.2c0.3-0.5,0.9-1.2,1.3-1.6c0.2-0.2,0.2-0.2,0.3-0.1C10.8,13.4,11.6,14,12.3,14.5z"/>
	<path class="st0" d="M20.2,27.4c0.2-0.2,0.2-0.2,0.3-0.1c0.5,0.5,1,1.1,1.5,1.4c0.2,0.1,0.2,0.2,0,0.3c-0.5,0.5-0.9,1-1.3,1.5
		c-0.1,0.1-0.2,0.1-0.3,0c-0.4-0.3-0.9-0.7-1.4-1.2c-0.3,0.3-0.9,1-1.1,1.2c-0.1,0.1-0.2,0.2-0.4,0c-0.5-0.3-1.1-0.9-1.5-1.4
		c-0.1-0.1-0.1-0.2,0-0.3c0.4-0.5,0.9-1,1.4-1.5c0.1-0.1,0.2-0.1,0.3,0.1c0.4,0.4,1,1,1.4,1.2C19.4,28.2,19.9,27.6,20.2,27.4z"/>
	<path class="st0" d="M24.1,22c0,0.8-0.3,1.2-0.9,1.2h-0.3c-0.4,0-0.8-0.1-1.2-0.4c-0.4-0.3-0.7-0.6-0.9-1c-0.2-0.4-0.4-1-0.5-1.8
		c-0.1-0.8-0.2-1.3-0.3-1.3c-0.3,0.8-0.7,1.4-1.1,1.7c-0.6,0.5-1.2,0.6-1.6,0.6c-0.2,0-0.3,0-0.4,0c0,0.4,0,0.7,0,1
		c0,0.4,0,0.9-0.1,1.5c-0.1,0.9-0.2,1.6-0.3,2c-0.2,0.5-0.4,0.8-0.6,1.2c-1.6,2.2-4,3.1-6.8,3.1c-1.3,0-2.1-0.3-2.9-0.8
		c-1.1-0.8-1.6-2.2-1.6-3.7c0-1.1,0.5-2.5,1.3-3.7c0.2-0.4,0.5-0.6,0.7-0.6c0.1,0,0.1,0.1,0.1,0.1c0,0.2-0.1,0.4-0.2,0.7
		c-0.4,0.8-0.8,1.7-0.8,2.7c0,1.5,1.7,2.9,4.1,2.9c2.4,0,5.7-1,6.4-2.7c0-0.1,0-0.2,0-0.4c0-1.3-0.4-3-1-3.8
		c-0.2-0.3-0.5-0.6-0.5-0.6c0,0-0.1-0.1-0.1-0.2c0-0.5,0.5-2,0.7-2.2c0.1-0.1,0.1-0.1,0.2,0c0.6,0.8,1.2,1.2,1.9,1.3
		c0.2,0,0.5,0,0.9-0.1c0.4-0.1,0.8-0.4,1-0.7c0.5-0.6,0.7-1,0.9-1.5c0.1-0.1,0.2-0.3,0.3-0.3c0.1,0,0.2,0.2,0.3,0.5
		c0.1,0.3,0.2,0.8,0.3,1.6c0.1,0.8,0.4,1.4,0.7,1.9c0.3,0.5,0.7,0.8,1.2,0.8h0.3C23.9,20.9,24.1,21.3,24.1,22z"/>
	<path class="st0" d="M30.8,29.8c0.1-0.1,0.1,0,0.1,0.1c0,0.6-0.2,1.1-0.5,1.3l-4.1,2.3c-0.1,0-0.1,0-0.1-0.1c0-0.3,0.1-0.8,0.2-1
		c0.1-0.2,0.3-0.3,0.7-0.5L30.8,29.8z"/>
	<path class="st0" d="M31.7,12.4c-0.7,0-1.1-0.7-1.1-1.5c0-0.2,0-0.5,0.1-0.8c0.1-0.2,0.2-0.8,0.5-0.8c0.1,0,0.2,0.2,0.2,0.6v0.3
		c0,0.3,0.2,0.5,0.6,0.5h0c0.5,0,0.8-0.3,0.9-1c0.1-0.3,0.2-1.1,0.6-1.1c0.1,0,0.2,0.2,0.2,0.5c0,0.2,0.1,0.3,0.4,0.3
		c0.5,0,0.8-0.3,0.9-0.8c0.1-0.7,0.2-0.8,0.4-0.8c0.2,0,0.3,0.7,0.3,1.1c0,0.3,0,0.6-0.2,1c-0.2,0.7-0.7,1.2-1.5,1.2
		c-0.2,0-0.4-0.1-0.5-0.1c-0.1-0.1-0.1,0-0.2,0.1C32.9,11.9,32.4,12.4,31.7,12.4z M35.6,5.5C35.7,5.5,35.6,5.5,35.6,5.5
		c0,0.5-0.2,0.9-0.4,1.2c-0.1,0.1-0.2,0.2-0.5,0.3l-4,1.9c0,0-0.1,0-0.1-0.1c0-0.2,0.1-0.5,0.2-0.7c0.2-0.3,0.2-0.4,0.3-0.5
		c0.1-0.1,0.2-0.1,0.3-0.2L35.6,5.5z"/>
	<path class="st0" d="M27.2,23.6c0.1-0.8,0.4-2,1-2.9c0.9-1.3,2.4-2.4,3.8-3.1c-0.1-0.1-0.5-0.4-0.5-0.7c0-0.1,0-0.2,0-0.3
		c0.2-0.9,0.8-2.3,1.4-2.3c1.5,0,3,1.4,3.1,2.1c-0.1,0.7-0.6,2.1-1.3,2.4c-1,0.4-3.8,0.9-5.9,3.4c-0.4,0.5-0.6,1.1-0.6,1.8
		c0,0.8,0.2,1.5,0.4,2.1c0.1,0.3,0.2,0.6,0.2,1c0,0.5-0.4,1.5-0.6,1.9c0,0.1-0.1,0.1-0.2,0.1c-0.4,0-0.8-0.4-1.1-0.7
		c-0.8-0.8-1.2-2.1-1.2-3.9c0-0.6,0-1.2,0.1-1.9c0-0.3,0.1-0.6,0.2-1c-0.7,0.9-1.6,1.4-2.8,1.4h-0.4c-0.6,0-0.9-0.4-0.9-1.1
		c0-0.8,0.3-1.1,1-1.1h0.4c0.6,0,1.4-0.1,1.8-0.3c0.8-0.3,1.4-1,2.1-2c0.1-0.2,0.3-0.5,0.5-0.5c0.1,0,0.2,0.1,0.2,0.3
		c0,0.3-0.2,0.7-0.4,1.3c-0.3,0.9-0.7,2.1-0.7,3.3c0,0.7,0.1,1.1,0.3,1.7C27.1,24.3,27.2,23.9,27.2,23.6z"/>
	<path class="st0" d="M46.4,8.9c0.7,0,1.7,1,1.7,2.1c0,0.4-0.1,0.8-0.2,1.2c-0.3,0.8-0.9,1.3-1.8,1.3c-0.8,0-1.3-0.6-1.3-1.3
		C44.7,11.1,45.9,8.9,46.4,8.9z M46.2,10.5c-0.3,0-0.7,0.6-0.7,1c0,0.3,0.4,0.6,0.8,0.6c0.5,0,1.1-0.3,1.1-0.5
		C47.3,11.4,46.7,10.5,46.2,10.5z"/>
	<path class="st0" d="M55.7,22c0.1-0.1,0.1,0,0.1,0.1c0,0.6-0.2,1.1-0.5,1.3l-4.1,2.3c-0.1,0-0.1,0-0.1-0.1c0-0.3,0.1-0.8,0.2-1
		c0.1-0.2,0.3-0.3,0.7-0.5L55.7,22z"/>
	<path class="st0" d="M54.7,8.9c-0.2,0.2-0.2,0.3-0.4,0.4c-0.8,0.4-2.6,1.5-4,2.5c-0.1,0.1-0.2,0.1-0.2-0.1c0-0.1,0.1-0.4,0.2-0.6
		c0.1-0.2,0.5-0.6,0.8-0.9c0.1-0.1,0.1-0.1-0.1-0.2c-0.7-0.2-0.9-0.6-0.9-1.1c0-0.9,0.9-2.2,1.7-2.9c0.3-0.2,0.7-0.5,1.1-0.5
		c0.5,0,0.8,0.2,0.8,0.7c0,0.3-0.1,0.6-0.2,1c-0.2,0.5-0.3,0.5-0.6,0.2c-0.2-0.2-0.4-0.2-0.5-0.2c-0.8,0-1.3,0.5-1.3,0.7
		c0,0.3,1.3,0.8,1.8,0.8c0.1,0,0.1,0,0.3-0.1c0.4-0.1,1.2-0.5,1.4-0.6C55,7.8,55.1,7.9,55,8.3C54.9,8.4,54.8,8.7,54.7,8.9z"/>
	<path class="st0" d="M46.6,17.6c0.9-2,4.3-3.9,7.3-3.9c0.8,0,1.4,0.3,1.4,1.1c0,0.5-0.2,1-0.6,1.7c-0.2,0.3-0.3,0.4-0.5,0.4
		c-0.2,0-0.4-0.2-0.5-0.5C53.5,16,53,16,52.6,16c-1.3,0-3.4,0.6-4.4,1.7c0.6,0.2,1.2,0.5,1.8,1.1c0.6,0.5,0.9,0.9,0.9,1.2
		c0,0.1-0.6,1.4-0.9,1.8c-0.1,0.1-0.2,0.1-0.3,0.1c-0.5-0.2-1.3-0.4-2.2-0.4c-1.7,0-2.7,0.3-3,0.9l0.8,5.1c0.2,1.1,0.3,2.2,0.3,3.1
		c0,0.9-0.1,1.8-0.5,2.7c-0.1,0.3-0.3,0.7-0.4,0.6c-0.1,0-0.2-0.2-0.1-0.6c0.1-1.3-0.1-3-0.5-5.5c-0.3-1.9-0.6-3.1-0.6-3.9
		c0-1,0.2-1.9,0.7-2.8c0.5-0.9,1.1-1.5,1.8-1.8C46.2,18.6,46.4,17.9,46.6,17.6z"/>
	<path class="st0" d="M61.3,23.2c-0.7,0-1.2-0.1-1.7-0.5c-0.7-0.6-1.1-1.7-1.3-3.1c-0.2-1.1-0.2-2.3-0.3-3.7c-0.1-2-0.2-5.1-0.5-6.9
		c0-0.1,0-0.2,0-0.2c0-0.1,0-0.2,0.2-0.4c0.3-0.5,0.5-0.8,0.7-1.2c0.2-0.3,0.2-0.3,0.3-0.3c0.1,0,0.2,0.2,0.3,0.7
		c0.4,3.5,0.1,8.4,0.6,11.1c0.1,0.7,0.2,0.9,0.4,1.3c0.3,0.6,0.7,0.9,1.4,1c0.8,0,1.2,0.4,1.2,1.1c0,0.9-0.4,1.2-1.1,1.2H61.3z"/>
	<path class="st0" d="M64.8,13.9c-0.4,0-0.7-0.2-0.8-0.4c-0.2-0.3-0.3-0.8-0.3-1.1s0-0.7,0.2-1c0.2-0.4,0.4-0.7,0.7-0.7
		c0.1,0,0.1,0.1,0.1,0.3c0,0.2-0.1,0.4-0.1,0.6c0,0.5,0.3,0.7,0.7,0.7c0.4,0,0.7-0.4,0.9-0.8c0.3-0.7,0.6-1,0.9-1
		c0.1,0,0.2,0.1,0.2,0.3c0,0.1,0,0.2,0,0.4c0,0.3,0.1,0.5,0.5,0.5c0.3,0,0.6-0.2,0.9-0.7c0.3-0.5,0.4-0.7,0.5-0.7
		c0.2,0,0.2,0.3,0.2,0.5c0,0.6-0.2,1.1-0.5,1.6c-0.3,0.4-0.7,0.9-1.4,0.9c-0.4,0-0.6-0.1-0.8-0.3c-0.1-0.1-0.2,0-0.3,0.2
		C65.9,13.6,65.4,13.9,64.8,13.9z"/>
	<path class="st0" d="M61.5,23.2h-0.1c-0.7,0-1-0.4-1-1.2c0-0.7,0.4-1.1,1-1.1h0.1c1.2,0,2.2-0.5,2.9-1.4l1.3-2
		c0.7-1.1,1.7-1.5,2.2-1.5c1.7,0,2.4,2.9,2.4,4.1c0,1-1.1,2.4-1.6,2.4c-0.8,0-2.8-1-3.8-1.9C63.8,22.4,62.8,23.2,61.5,23.2z
		 M66.8,18c-0.2,0-0.3,0.1-0.5,0.3c-0.1,0.1-0.2,0.3-0.3,0.5c0.5,0.3,1.9,1,2.5,1.4C68.5,19.4,67.5,18,66.8,18z"/>
	<path class="st0" d="M79.7,10.3c0.7,0,1.7,1,1.7,2.1c0,0.4-0.1,0.8-0.2,1.2c-0.3,0.8-0.9,1.3-1.8,1.3c-0.8,0-1.3-0.6-1.3-1.3
		C78.1,12.5,79.2,10.3,79.7,10.3z M79.5,11.9c-0.3,0-0.7,0.6-0.7,1c0,0.3,0.4,0.6,0.8,0.6c0.5,0,1.1-0.3,1.1-0.5
		C80.7,12.7,80.1,11.9,79.5,11.9z"/>
	<path class="st0" d="M90.2,20.8c0.1-0.1,0.1,0,0.1,0.1c0,0.6-0.2,1.1-0.5,1.3l-4.1,2.3c-0.1,0-0.1,0-0.1-0.1c0-0.3,0.1-0.8,0.2-1
		c0.1-0.2,0.3-0.3,0.7-0.5L90.2,20.8z"/>
	<path class="st0" d="M87.2,15.3c-0.9,0.2-3.4,0.4-5.5,2.5c1,0.3,2.6,1.2,3,2.1c0.1,0.2,0,0.3-0.1,0.5c-0.4,0.8-0.6,1.3-0.8,1.6
		c-0.1,0.1-0.1,0.1-0.3,0.1c-0.4-0.2-1.1-0.3-2.1-0.4c-1.7,0-2.8,0.3-3.1,0.9c0.4,2.8,1.1,6.6,1.1,8.2c0,1-0.1,2-0.5,2.9
		c-0.1,0.3-0.3,0.5-0.4,0.5c-0.1,0-0.1-0.1-0.1-0.4c0-0.4,0.1-0.8,0.1-1.2c0-0.9-0.2-2.1-0.6-4.5c-0.4-2.1-0.6-3.1-0.6-4.1
		c0-1,0.2-1.9,0.7-2.8c0.5-0.9,1.1-1.5,1.8-1.8c0.2-0.8,0.5-1.5,1-2.2c0.7-1,2.6-2.6,3.7-3.2c-0.1-0.1-0.6-0.5-0.5-0.7
		c0.1-0.9,0.8-2.4,1.4-2.4c1.5,0,3,1.3,3,2C88.5,13.8,87.9,15.1,87.2,15.3z"/>
	<path class="st0" d="M98.9,15.8c0.3,0.3,0.4,0.7,0.4,1.1c0,0.2-0.1,0.7-0.4,0.9c-0.3,0.3-0.7,0.4-1.1,0.4c-0.3,0-0.7-0.1-0.9-0.4
		c-0.3-0.3-0.4-0.6-0.4-1c0-0.4,0.2-0.8,0.4-1c0.3-0.2,0.6-0.4,1-0.4C98.3,15.4,98.7,15.6,98.9,15.8z M98.9,21
		c0.3,0.3,0.4,0.8,0.4,1.1c0,0.3-0.1,0.7-0.4,1c-0.3,0.3-0.7,0.4-1.1,0.4c-0.3,0-0.6-0.2-0.9-0.4c-0.3-0.3-0.4-0.6-0.4-1
		c0-0.3,0.2-0.7,0.4-1c0.3-0.3,0.6-0.4,1-0.4C98.3,20.7,98.7,20.8,98.9,21z"/>
	<path class="st0" d="M105.8,1c0.1-0.1,0.1,0,0.1,0.1c0,0.6-0.2,1.1-0.5,1.3l-4,2.3c-0.1,0-0.1,0-0.1-0.1c0-0.3,0.1-0.8,0.2-1
		c0.1-0.2,0.3-0.3,0.7-0.5L105.8,1z M105.8,3c0.1-0.1,0.1,0,0.1,0.1c0,0.6-0.2,1.1-0.5,1.3l-4,2.3c-0.1,0-0.1,0-0.1-0.1
		c0-0.3,0.1-0.8,0.2-1c0.1-0.2,0.3-0.3,0.7-0.5L105.8,3z"/>
	<path class="st0" d="M106.3,23.2c-0.7,0-1.2-0.1-1.7-0.5c-0.7-0.6-1.1-1.7-1.3-3.1c-0.2-1.1-0.2-2.3-0.3-3.7
		c-0.1-2-0.2-5.1-0.5-6.9c0-0.1,0-0.2,0-0.2c0-0.1,0-0.2,0.2-0.4c0.3-0.5,0.5-0.8,0.7-1.2c0.2-0.3,0.2-0.3,0.3-0.3
		c0.1,0,0.2,0.2,0.3,0.7c0.4,3.5,0.1,8.4,0.6,11.1c0.1,0.7,0.2,0.9,0.4,1.3c0.3,0.6,0.7,0.9,1.4,1c0.8,0,1.2,0.4,1.2,1.1
		c0,0.9-0.4,1.2-1.1,1.2H106.3z"/>
	<path class="st0" d="M110.3,16.2c0,0.9-0.1,1.7-0.3,2.4c2.1-1.7,3.9-2.7,4.9-2.7c0.5,0,1.3,0.1,1.9,0.4c0.8,0.4,1.1,0.8,1.1,1.5
		c0,1.2-0.9,3-1.8,3.5c0.8-0.2,1.7-0.4,2.5-0.4h0.3c0.7,0,1,0.4,1,1.1c0,0.8-0.3,1.2-1,1.2h-0.4c-4.4,0.2-6.5,0.2-7.4,0.2
		c-1.2,0-2.7,0-4.6-0.2h-0.3c-0.7,0-1-0.4-1-1.1c0-0.8,0.3-1.1,1-1.1h1.1c0.4-0.4,1.1-1.1,1.9-1.8c0-0.4,0-0.9,0-1.2
		c0-2.9-0.5-5.5-0.7-7.1c-0.1-0.4-0.3-1.3-0.4-1.7c0-0.1,0-0.2,0-0.3c0-0.2,0.2-0.6,0.4-1c0.2-0.5,0.6-1.1,0.7-1.1
		c0.1,0,0.1,0.1,0.2,0.2c0.3,0.9,0.6,1.4,0.8,1.8c0,0.1,0.1,0.2,0.1,0.2s0,0.1,0,0.2c-0.1,0.2-0.4,0.8-0.6,1.1
		C110,12.4,110.3,14.5,110.3,16.2z M113.9,17.8c-1.9,0-3.7,1.4-5.4,3.1c3.4-0.2,6.7-0.8,8.1-1.8C116,18.4,114.9,17.8,113.9,17.8z
		 M116.4,11.2c0.1,0.1,0.1,0.1,0,0.2c-0.2,0.3-1.1,1.2-1.4,1.7c-0.1,0.1-0.1,0.1-0.2,0c-0.5-0.3-1.5-1-1.7-1.4
		c-0.1-0.1-0.1-0.1,0-0.2c0.3-0.5,0.9-1.2,1.3-1.6c0.2-0.2,0.2-0.2,0.3-0.1C115,10.1,115.7,10.7,116.4,11.2z"/>
	<path class="st0" d="M126.6,20.9c0.7,0,1,0.4,1,1.1c0,0.8-0.3,1.2-1,1.2h-0.3c-2.1,0-3.4-0.4-4.3-1c-0.8,0.5-1.9,1-3.2,1h-0.2
		c-0.6,0-0.9-0.4-0.9-1.2c0-0.7,0.3-1.1,1-1.1h0.2c0.9,0,1.4-0.1,1.7-0.4c-0.1-0.2-0.1-0.5-0.1-0.8c0-2.3,2.6-5.1,4-5.1
		c0.8,0,1.3,1,1.3,2.2c0,1.3-0.5,2.8-1.5,3.7c0.5,0.2,1.2,0.4,2.1,0.4H126.6z M124.1,9.8c0.1,0.1,0.1,0.1,0,0.2
		c-0.2,0.3-1.1,1.2-1.4,1.7c-0.1,0.1-0.1,0.1-0.2,0c-0.5-0.3-1.5-1-1.7-1.4c-0.1-0.1-0.1-0.1,0-0.2c0.3-0.5,0.9-1.2,1.3-1.6
		c0.2-0.2,0.2-0.2,0.3-0.1C122.7,8.7,123.4,9.3,124.1,9.8z M123.4,17c-0.8,0-1.6,0.9-1.6,1.2c0,0.5,0.4,0.9,1.2,1.4
		c0.3-0.1,1.4-1,1.4-1.3C124.4,17.5,124.2,17,123.4,17z"/>
	<path class="st0" d="M128.8,22.2c-0.5,0.7-1.2,1-2.3,1h-0.2c-0.7,0-1-0.4-1-1.2c0-0.7,0.3-1.1,1-1.1h0.2c0.5,0,1-0.1,1.5-0.2
		c0.4-0.1,0.6-0.3,0.7-0.4c0-1.7-0.6-5.4-0.9-8.9c0-0.4-0.3-1.6-0.4-2.1c0-0.1,0-0.2,0-0.2c0-0.3,0.3-0.9,0.5-1.3
		c0.3-0.5,0.5-0.9,0.7-0.9c0.1,0,0.1,0.1,0.2,0.2c0.3,1,0.6,1.5,0.8,1.8c0.1,0.1,0.1,0.2,0.1,0.3c0,0,0,0.1,0,0.1
		c-0.1,0.2-0.4,0.8-0.6,1.1c0.2,3.4,0.7,6.2,0.7,7.8C129.8,19.8,129.5,21.2,128.8,22.2z"/>
	<path class="st0" d="M145.4,9.3c0,0.5-0.1,1-0.3,1.5c0.2,0.1,0.4,0.3,0.4,0.4c0,0.4-0.2,0.7-0.3,1c-0.1,0.1-0.1,0.1-0.1,0.1
		l-0.5-0.3c-0.5,0.8-1.3,1.8-2.5,2.3c-0.4,0.2-0.9,0.4-1.5,0.4c-0.3,0-0.4-0.1-0.4-0.1c0-0.1,0.2-0.2,0.6-0.4
		c0.9-0.5,2.5-1.8,3.1-2.5c-0.5-0.3-1.1-0.7-1.1-1.4c0-0.4,0.2-0.9,0.6-1.3c0.4-0.5,0.8-0.8,1.2-0.8C145.2,8.1,145.4,8.8,145.4,9.3z
		 M143.6,9.8C143.6,9.8,143.6,9.8,143.6,9.8c0,0.2,0.4,0.5,0.8,0.7c0.1-0.2,0.1-0.4,0.1-0.7c0-0.3-0.1-0.4-0.3-0.4
		C144,9.4,143.7,9.5,143.6,9.8z"/>
	<path class="st0" d="M152.1,33.1c0.3,0,0.4,0.1,0.4,0.1c0,0.2-0.5,0.5-0.9,0.6c-1.5,0.6-3.9,1.6-6.4,1.6c-4.4,0-7.6-2.3-7.6-7.1
		c0-4.4,2.3-8.3,5.4-9.4c-0.8-0.2-1.5-0.2-2.1-0.2c-1.1,0-1.8,0.3-2.4,0.5c-0.5,0.2-0.6,0.2-0.7,0.2c-0.1,0-0.2,0-0.2-0.2
		c0-0.3,0.5-1.4,0.9-1.8c0.7-0.7,1.7-0.9,2.9-0.9c2.1,0,4.2,0.7,6.4,0.7c0.9,0,1.6-0.1,2.1-0.1c0.4,0,0.4,0,0.4,0.1
		c0,0.5-0.9,1.9-1.3,2c-0.5,0-1,0-1.5,0.1c0,0.5,0.2,0.9,0.5,1.1c0.3,0.2,1,0.4,2.2,0.4h0.8c0.7,0,1,0.4,1,1.1c0,0.8-0.3,1.2-1,1.2
		h-1.5c-0.9,0-1.6-0.3-2.1-0.8c-0.4-0.4-0.5-1.1-0.5-2c0-0.3,0-0.6,0.1-1c-0.8,0.1-1.6,0.3-2.4,0.6c-4.5,1.5-6,5.1-6,7.1
		c0,3.2,1.7,6.2,9.4,6.2C150.2,33.3,151.6,33.1,152.1,33.1z"/>
	<path class="st0" d="M155.5,19.5c0,0.6,0.6,1.2,1.4,1.4c0.2,0,0.3,0,0.5,0h0.1c0.9,0,0.9,0.7,0.9,1c0,0.3,0,1.3-0.8,1.3h-0.2
		c-0.2,0-0.3,0-0.6,0c-1.5-0.2-2.1-1.5-2.2-1.7c-0.2,0.6-1.5,1.7-3.7,1.7h-0.1c-0.6,0-1-0.6-1-1.1s0.3-1.1,1-1.1h0.7
		c1,0,2.4-0.2,3.3-1.6c0.3-0.5,0.4-0.5,0.5-0.5C155.4,18.8,155.5,19,155.5,19.5z M156.6,27.4c0.1,0.1,0.1,0.1,0,0.2
		c-0.2,0.3-1.1,1.2-1.4,1.7c-0.1,0.1-0.1,0.1-0.2,0c-0.5-0.3-1.5-1-1.7-1.4c-0.1-0.1-0.1-0.1,0-0.2c0.3-0.5,0.9-1.2,1.3-1.6
		c0.2-0.2,0.2-0.2,0.3-0.1C155.2,26.3,155.9,26.9,156.6,27.4z"/>
	<path class="st0" d="M174.1,23.2c-1.5,0-2.9,0-4.4,0.3c-1.3,0.2-2.6,0.4-4.1,0.4c-1,0-2-0.1-2.9-0.3c-0.2,0.2-0.4,0.5-0.6,0.8
		c-0.2,0.3-0.3,0.5-0.5,0.5c-0.1,0-0.2-0.1-0.2-0.2c0-0.1,0-0.2,0.1-0.3c0.1-0.3,0.3-0.7,0.5-1.1c-1.1-0.4-1.8-1-2.2-2
		c-0.6,1.2-1.4,1.9-2.3,1.9h-0.2c-0.6,0-0.9-0.4-0.9-1.1s0.3-1.1,0.9-1.1h0.2c1.2-0.1,2-0.7,2.4-1.7c0.3-0.6,0.5-1.1,0.8-1.1
		c0.2,0,0.2,0.3,0.2,0.8c0,1.3,1.2,2.1,2.4,2.4c1.6-2,5.4-5.2,7-5.2c0.5,0,1.1,0.2,1.7,0.5c0.6,0.3,1.2,0.9,1.2,1.6
		c0,0.7-0.4,2.1-0.9,2.9c0.7-0.1,1.3-0.2,1.8-0.2h0.2c0.7,0,1.1,0.4,1.1,1.1c0,0.8-0.4,1.2-1.1,1.2H174.1z M172,20.1
		c0-0.3-0.4-0.8-0.8-1.1c-0.6-0.4-1.3-0.6-1.7-0.6c-1.6,0-4,1.8-5.2,3c0.5,0.1,1.2,0.2,1.6,0.2C168.6,21.6,170.6,20.8,172,20.1
		C172,20.1,172,20.1,172,20.1z"/>
	<path class="st0" d="M178.9,19.5c0,0.6,0.6,1.2,1.4,1.4c0.2,0,0.3,0,0.5,0h0.1c0.9,0,0.9,0.7,0.9,1c0,0.3,0,1.3-0.8,1.3h-0.2
		c-0.2,0-0.3,0-0.6,0c-1.5-0.2-2.1-1.5-2.2-1.7c-0.2,0.6-1.5,1.7-3.7,1.7h-0.1c-0.6,0-1-0.6-1-1.1s0.3-1.1,1-1.1h0.7
		c1,0,2.4-0.2,3.3-1.6c0.3-0.5,0.4-0.5,0.5-0.5C178.8,18.8,178.9,19,178.9,19.5z M178.7,12.7c0.2-0.2,0.2-0.2,0.3-0.1
		c0.5,0.5,1,1.1,1.5,1.4c0.2,0.1,0.2,0.2,0,0.3c-0.5,0.5-0.9,1-1.3,1.5c-0.1,0.1-0.2,0.1-0.3,0c-0.4-0.3-0.9-0.7-1.4-1.2
		c-0.3,0.3-0.9,1-1.1,1.2c-0.1,0.1-0.2,0.2-0.4,0c-0.5-0.3-1.1-0.9-1.5-1.4c-0.1-0.1-0.1-0.2,0-0.3c0.4-0.5,0.9-1,1.4-1.5
		c0.1-0.1,0.2-0.1,0.3,0.1c0.4,0.4,1,1,1.4,1.2C177.9,13.6,178.4,12.9,178.7,12.7z"/>
	<path class="st0" d="M186.6,18c0,1.2-0.4,2.9-0.9,3.7c-0.2,0.3-0.9,0.7-1.4,0.8c-1.4,0.4-2.5,0.6-3.3,0.6h-0.2c-0.6,0-1-0.4-1-1.2
		c0-0.7,0.3-1.1,1-1.1h0.2c1.3,0,2.8-0.2,3.7-0.5c0.8-0.3,0.9-0.3,0.9-1.1c0-0.5-0.1-0.8-0.3-1.3c-0.2,0.5-0.9,1-1.8,1
		c-1.1,0-1.8-0.7-1.8-2c0-1.8,1.4-4.1,2-4.1C185.5,13,186.6,16.4,186.6,18z M185.1,8.1c0.1,0.1,0.1,0.1,0,0.2
		c-0.2,0.3-1.1,1.2-1.4,1.7c-0.1,0.1-0.1,0.1-0.2,0c-0.5-0.3-1.5-1-1.7-1.4c-0.1-0.1-0.1-0.1,0-0.2c0.3-0.5,0.9-1.2,1.3-1.6
		c0.2-0.2,0.2-0.2,0.3-0.1C183.7,7,184.4,7.6,185.1,8.1z M184.1,15.5c-0.2-0.2-0.5-0.3-0.7-0.3c-0.2,0-0.4,0.1-0.5,0.4
		c-0.1,0.2-0.2,0.4-0.2,0.5c0,0.5,0.5,0.6,1,0.6c0.5,0,0.9-0.2,0.9-0.5C184.5,16.2,184.4,15.7,184.1,15.5z"/>
	<path class="st0" d="M209.5,32.8c0,0.1-0.1,0.2-0.3,0.2c-0.7,0-1.6-0.6-2.9-1.7c-0.9-0.8-1.7-1.7-2.4-2.5c-1.3-1.7-2.4-3.7-3.2-5.9
		c-2.1,0-3.2-0.3-3.2-0.8c0.6-0.5,1.1-1,1.5-1.6c0.4-0.6,0.7-1.2,0.7-1.9c-0.5,0-1.1,0.3-1.8,0.9c-0.2,0.1-0.7,0.6-1.5,1.4
		c-0.2,0-0.4-0.2-0.5-0.7c-0.1-0.4-0.3-1.1-0.3-1.9c-0.5-0.2-0.9-0.5-1.3-0.8c-0.3-0.2-0.4-0.5-0.4-0.7c0-0.3,0.2-0.7,0.7-1.1
		c0.2-0.2,0.5-0.4,0.9-0.6c0-0.6,0.1-1.1,0.2-1.7c0.2-0.5,0.3-0.7,0.5-0.7c0.7,0.7,1.2,1.1,1.6,1.4c0.7,0.5,1.3,0.7,1.9,0.8
		c0-0.6-0.3-1.3-0.8-1.9c-0.5-0.5-1-1-1.5-1.6c0-0.3,0.5-0.5,1.5-0.7c0.7-0.1,1.3-0.2,1.8-0.3c1.5-4.2,3.5-7.3,6.2-9.4
		c0.9-0.7,1.5-1.1,1.9-1.1c0.2,0,0.3,0.1,0.3,0.3c0,0.1-0.4,0.6-1.1,1.4c-2.3,2.6-3.6,5.6-4.2,8.9c0.7,0.1,1.1,0.2,1.3,0.3
		c0.2,0.1,0.3,0.2,0.3,0.4c-0.6,0.5-1.1,1-1.5,1.5c-0.5,0.6-0.7,1.3-0.7,1.9c0.6,0,1.2-0.2,1.8-0.7c0.4-0.4,0.9-0.9,1.6-1.6
		c0.3,0,0.5,0.4,0.7,1.1c0.2,0.6,0.2,1.1,0.2,1.5c1.1,0.5,1.7,1,1.7,1.6c0,0.4-0.5,0.9-1.5,1.5c0,1-0.1,1.7-0.3,2.1
		c-0.2,0.2-0.3,0.4-0.6,0.4c-1.2-1.3-2.3-2.1-3.4-2.2c0,0.5,0.3,1.2,0.8,1.9c0.2,0.2,0.7,0.8,1.5,1.6c0,0.1-0.1,0.2-0.3,0.3
		c-0.2,0.1-0.7,0.2-1.4,0.4c0.3,1.7,1,3.4,2,5.2c1,1.8,2.2,3.2,3.5,4.3C209.4,32.4,209.5,32.6,209.5,32.8z M198.8,17.8
		c-0.3-0.1-0.7-0.3-1.2-0.5c-0.1-0.1-0.3-0.2-0.8-0.4c-0.4-0.2-0.7-0.3-0.7-0.4s0.5-0.3,1.6-0.5c0.2-0.1,0.5-0.2,1.1-0.4
		c-0.6-0.2-1.1-0.5-1.5-0.8c-0.2-0.2-0.6-0.5-1-1c-0.1,0-0.2,0.2-0.2,0.5c0,0.2,0,0.7-0.1,1.3c-0.9,0.5-1.4,0.9-1.5,1.1
		c0,0.1,0.1,0.3,0.4,0.4c0.3,0.2,0.6,0.3,1,0.4c0,0.2,0,0.6,0.1,1c0.1,0.6,0.2,0.9,0.3,1l1.1-1.1C197.9,18.2,198.3,18,198.8,17.8z
		 M207.6,1.1c-2.8,1.9-5,5.3-6.6,10.1c-1.2,0-1.9,0-2.2,0.1c-0.3,0-0.4,0.1-0.4,0.3c0.8,0.7,1.4,1.4,1.8,2.2c0.2-0.4,0.4-0.8,0.6-1
		c0.1-0.4,0.3-0.7,0.6-1.1c0.1,0,0.1,0.2,0.2,0.4c0.1,0.3,0.1,0.5,0.1,0.5c0.1,0.1,0.3,0.5,0.7,1.1c0.2-0.5,0.4-1,0.8-1.3
		c0.2-0.2,0.5-0.6,1-1c0-0.1-0.1-0.2-0.4-0.3c-0.2,0-0.4-0.1-0.8-0.1c0.5-1.9,0.8-3.1,1-3.7C204.5,5.5,205.8,3.4,207.6,1.1z
		 M208.3,32.1c-1.2-1.1-2.2-2.4-3.1-4c-1.1-1.8-1.8-3.8-2.1-6c0.8-0.1,1.2-0.2,1.2-0.3c-0.8-0.7-1.5-1.5-1.9-2.3
		c-0.1,0.3-0.3,0.6-0.5,1c-0.1,0.1-0.1,0.2-0.3,0.5c-0.1,0.3-0.2,0.5-0.3,0.5c-0.3,0-0.7-0.7-1.1-2c-0.3,0.6-0.6,1.1-0.9,1.4
		c-0.3,0.3-0.6,0.6-0.9,1c0.1,0.1,0.2,0.1,0.4,0.1c0.2,0,0.6,0.1,1,0.1c0.2,0,0.4,0,0.6,0c0.2,0,0.4,0,0.5,0
		C202.5,26.6,204.9,29.9,208.3,32.1z M203.4,16.7c0-0.6-0.2-1.1-0.6-1.4c-0.4-0.4-0.9-0.6-1.4-0.6c-0.6,0-1.1,0.2-1.4,0.6
		c-0.4,0.4-0.6,0.9-0.6,1.4c0,0.5,0.2,1,0.6,1.4c0.4,0.4,0.9,0.6,1.4,0.6c0.6,0,1.1-0.2,1.5-0.5C203.2,17.7,203.4,17.3,203.4,16.7z
		 M208.2,16.5c0-0.2-0.5-0.5-1.5-0.9c0-0.6,0-1-0.1-1.4c-0.1-0.4-0.2-0.6-0.2-0.6c-0.1,0.1-0.5,0.5-1.1,1c-0.4,0.4-0.9,0.7-1.3,0.9
		c0.1,0.1,0.7,0.3,1.7,0.6c0.6,0.2,1,0.4,1,0.5c0,0.1-0.3,0.3-0.9,0.5c-0.5,0.2-1.1,0.3-1.7,0.5c0.5,0.2,1,0.4,1.5,0.8
		c0.2,0.2,0.6,0.5,1,1c0.2,0,0.3-0.6,0.3-1.8C207.7,17.2,208.2,16.8,208.2,16.5z"/>
	<path class="st0" d="M223.6,35.3c-0.1,0-0.2,0-0.1-0.1l0.6-1c0,0,0.1-0.1,0.1-0.1c0,0,0.1-0.1,0.1-0.1c0.2-0.1,0.5-0.2,0.9-0.3
		c0.4-0.1,0.8-0.3,1.3-0.4c0.5-0.1,1-0.3,1.5-0.5c0.5-0.2,1-0.3,1.5-0.5c0.1,0,0.1,0,0.1,0c0,0,0,0.1,0,0.1l-0.6,1.1
		c0,0-0.1,0.1-0.1,0.1c0,0-0.1,0-0.1,0c-0.9,0.3-1.7,0.5-2.5,0.8C225.3,34.8,224.5,35.1,223.6,35.3z M223.9,32.8
		c-0.1,0-0.2,0-0.1-0.1l0.6-1c0,0,0.1-0.1,0.1-0.1c0,0,0.1-0.1,0.1-0.1c0.2-0.1,0.5-0.2,0.9-0.3c0.4-0.1,0.8-0.3,1.3-0.4
		c0.5-0.1,1-0.3,1.5-0.5c0.5-0.2,1-0.3,1.5-0.5c0.1,0,0.1,0,0.1,0c0,0,0,0.1,0,0.1l-0.6,1.1c0,0-0.1,0.1-0.1,0.1c0,0-0.1,0-0.1,0
		c-0.9,0.3-1.7,0.6-2.5,0.8C225.6,32.3,224.8,32.5,223.9,32.8z"/>
	<path class="st0" d="M230.3,16c0-0.1,0.1-0.1,0.1-0.1c0,0,0.1,0.1,0.1,0.1c0.1,0.2,0.2,0.3,0.3,0.5c0.1,0.2,0.2,0.3,0.3,0.5
		c0.1,0.1,0.2,0.3,0.3,0.4c0.1,0.1,0.2,0.2,0.3,0.2c0.4,0,0.8,0,1.2-0.1c0.4-0.1,0.8-0.2,1.1-0.5c0.3-0.2,0.6-0.5,0.9-0.9
		c0.3-0.4,0.5-0.8,0.6-1.3c0.1-0.2,0.1-0.3,0.3-0.3c0.1,0,0.2,0.1,0.2,0.3c0.1,0.9,0.2,1.7,0.2,2.5c0.1,0.8,0.3,1.5,0.5,2
		c0.2,0.6,0.6,1,1,1.4c0.4,0.3,1,0.5,1.8,0.5h0.2c0.2,0,0.4,0.1,0.5,0.2c0.1,0.1,0.2,0.2,0.3,0.4c0.1,0.2,0.1,0.3,0.1,0.5
		c0,0.2,0,0.4-0.1,0.5c-0.1,0.2-0.2,0.3-0.3,0.4c-0.1,0.1-0.3,0.1-0.5,0.1h-0.2c-0.7,0-1.4-0.1-1.9-0.4c-0.5-0.3-0.9-0.7-1.3-1.2
		c-0.3-0.5-0.6-1.1-0.8-1.8c-0.2-0.7-0.3-1.4-0.4-2.2c-0.1,0.3-0.3,0.5-0.5,0.7c-0.2,0.2-0.5,0.4-0.8,0.6c-0.3,0.2-0.6,0.3-0.9,0.5
		c-0.3,0.1-0.6,0.2-1,0.2c0.1,0.5,0.1,1,0.1,1.6s0,1.1-0.1,1.6c-0.1,0.6-0.3,1.2-0.5,1.7c-0.3,0.5-0.6,0.9-1,1.3
		c-0.4,0.4-0.8,0.7-1.3,1c-0.5,0.3-1,0.5-1.6,0.7s-1.1,0.3-1.7,0.4c-0.6,0.1-1.1,0.1-1.7,0.1c-0.8,0-1.5-0.1-2.1-0.3
		c-0.6-0.2-1.2-0.6-1.7-1c-0.5-0.4-0.8-1-1.1-1.6c-0.3-0.6-0.4-1.3-0.4-2.1c0-0.9,0.1-1.7,0.4-2.5c0.3-0.8,0.7-1.5,1.1-2.2
		c0.1-0.1,0.1-0.1,0.2-0.1c0,0,0.1,0,0.1,0.1c0,0,0,0.1,0.1,0.2c0,0.1,0,0.1,0,0.1c-0.5,0.9-0.8,1.7-0.8,2.6c-0.1,0.9,0,1.6,0.3,2.4
		c0.3,0.7,0.7,1.3,1.4,1.7c0.7,0.5,1.6,0.7,2.7,0.7c0.6,0,1.3,0,1.9-0.1c0.6-0.1,1.3-0.3,1.9-0.5c0.6-0.2,1.2-0.5,1.7-0.9
		c0.5-0.4,1-0.8,1.3-1.4c0-0.4,0-0.9-0.1-1.3c-0.1-0.5-0.2-0.9-0.4-1.3c-0.2-0.4-0.4-0.9-0.6-1.3c-0.2-0.4-0.5-0.8-0.7-1.2L230.3,16
		z M226.7,12.2l1.7,1.4c0.1,0.1,0.1,0.1,0,0.2l-1.1,1.4c-0.1,0.1-0.1,0.1-0.2,0l-1.7-1.4c-0.1-0.1-0.1-0.1,0-0.2l1.1-1.4
		C226.5,12.2,226.6,12.1,226.7,12.2z M237.7,27.9c0,0.1-0.1,0.1-0.1,0.1c0,0-0.1,0-0.2-0.1l-1.6-1.3l-1.1,1.5
		c-0.1,0.1-0.1,0.1-0.2,0l-1.7-1.3c-0.1,0-0.1-0.1,0-0.2l1.1-1.6c0-0.1,0.1-0.1,0.1-0.1c0,0,0.1,0,0.1,0.1l1.6,1.2l1.1-1.4
		c0.1-0.1,0.1-0.1,0.2,0l1.7,1.4c0.1,0,0.1,0.1,0,0.2L237.7,27.9z"/>
	<path class="st0" d="M247,31.9c-0.9,0.3-1.8,0.6-2.6,0.9c-0.9,0.3-1.7,0.6-2.5,0.8c-0.1,0-0.2,0-0.1-0.1l0.6-1
		c0-0.1,0.1-0.1,0.1-0.1c0,0,0.1,0,0.1-0.1c0.2-0.1,0.6-0.2,1-0.3c0.4-0.1,0.8-0.3,1.3-0.4c0.5-0.2,1-0.3,1.4-0.5
		c0.5-0.2,1-0.3,1.4-0.4c0.1,0,0.1,0,0.1,0c0,0,0,0.1,0,0.1l-0.6,1.1C247.2,31.8,247.2,31.9,247,31.9
		C247.1,31.9,247.1,31.9,247,31.9z"/>
	<path class="st0" d="M247.3,17.6c0,0.4-0.1,0.8-0.2,1.1c-0.1,0.3-0.2,0.7-0.3,1c-0.1,0.3-0.3,0.6-0.5,0.8c-0.2,0.3-0.4,0.5-0.7,0.7
		c0.4,0,0.7-0.1,1.1-0.1c0.4,0,0.8,0,1.2,0c0.4,0,0.8,0,1.1,0c0.4,0,0.7,0,1,0h0.2c0.3,0,0.5,0.1,0.6,0.3c0.1,0.2,0.2,0.5,0.2,0.7
		c0,0.3-0.1,0.5-0.2,0.7c-0.1,0.2-0.4,0.3-0.6,0.3h-0.2h-1.3l-1.3,0c0.6,0.6,0.9,1.4,0.8,2.2c0,0.3-0.1,0.5-0.1,0.8
		c-0.1,0.3-0.2,0.6-0.3,0.8c-0.1,0.3-0.3,0.5-0.5,0.6S247,28,246.8,28c-0.6,0.1-1.2,0-1.6-0.2c-0.5-0.2-0.9-0.6-1.3-1
		c-0.4-0.4-0.7-0.9-1-1.5c-0.3-0.6-0.4-1.2-0.5-1.7c-0.2,0-0.5,0.1-0.8,0.2c-0.3,0.1-0.4,0.1-0.5,0c0-0.1,0-0.2,0.1-0.3
		c0.1-0.1,0.1-0.2,0.1-0.3l-1.4,0h-0.2c-0.3,0-0.6-0.1-0.7-0.3c-0.2-0.2-0.2-0.5-0.2-0.7c0-0.3,0.1-0.5,0.2-0.7
		c0.2-0.2,0.4-0.3,0.7-0.3h0.2c0.5,0,1,0,1.4,0c0.5,0,0.9,0,1.2-0.1c0.1-0.3,0.1-0.7,0.2-1c0.1-0.3,0.2-0.7,0.3-1
		c0.1-0.3,0.3-0.7,0.4-1c0.2-0.3,0.3-0.6,0.5-0.9c0.1-0.2,0.3-0.4,0.5-0.7c0.2-0.3,0.4-0.5,0.6-0.8c0.2-0.3,0.5-0.5,0.7-0.7
		c0.2-0.2,0.5-0.3,0.7-0.3c0.2,0,0.3,0.2,0.5,0.4c0.1,0.3,0.2,0.5,0.3,0.9c0.1,0.3,0.1,0.6,0.1,1C247.3,17.2,247.3,17.4,247.3,17.6z
		 M246.4,18.9c0-0.3,0-0.7-0.1-1c-0.1-0.3-0.2-0.6-0.3-0.8c0-0.1-0.1-0.1-0.1-0.2c0,0-0.1-0.1-0.2,0c-0.3,0.1-0.5,0.2-0.8,0.5
		c-0.3,0.3-0.5,0.7-0.7,1.1c-0.2,0.4-0.4,0.8-0.6,1.2c-0.2,0.4-0.3,0.8-0.3,1.1c0.2-0.1,0.5-0.2,0.8-0.3c0.3-0.1,0.6-0.3,0.9-0.5
		c0.3-0.2,0.6-0.4,0.9-0.6C246,19.3,246.2,19.1,246.4,18.9z M243.3,23.5c0.2,0.3,0.3,0.6,0.5,0.9c0.1,0.3,0.3,0.5,0.5,0.7
		c0.2,0.2,0.4,0.4,0.7,0.6c0.3,0.2,0.6,0.3,1,0.3c0.1,0,0.2,0,0.4,0c0.2,0,0.3,0,0.5-0.1c0.2,0,0.3-0.1,0.4-0.2
		c0.1-0.1,0.2-0.2,0.2-0.3c0-0.2-0.2-0.5-0.5-0.7c-0.3-0.2-0.7-0.4-1.2-0.6c-0.4-0.2-0.9-0.3-1.4-0.4
		C243.9,23.6,243.6,23.5,243.3,23.5z"/>
	<path class="st1" d="M257.7,3.2c-0.5,0.2-0.9,0.4-1.4,0.7c-0.5,0.2-1,0.4-1.4,0.7c-0.5,0.2-0.9,0.4-1.3,0.6c-0.4,0.2-0.7,0.3-1,0.5
		c-0.1,0-0.1,0-0.1,0c0,0,0-0.1,0-0.1l0.7-1.3c0-0.1,0.1-0.1,0.1-0.2c0,0,0.1-0.1,0.1-0.1l5-2.2c0.1-0.1,0.2,0,0.1,0.1L257.9,3
		C257.9,3.1,257.8,3.2,257.7,3.2z M255.3,8.7c-0.2,0.4-0.4,0.7-0.7,0.9c-0.3,0.2-0.6,0.3-1,0.3c-0.3,0-0.6-0.1-0.8-0.2
		c-0.2-0.2-0.4-0.5-0.4-0.9c0-0.2,0-0.4,0-0.6c0-0.2,0.1-0.4,0.2-0.6c0.1-0.2,0.2-0.3,0.3-0.4c0.1-0.1,0.2-0.2,0.3-0.2
		c0.1,0,0.1,0.1,0,0.2c-0.1,0.1-0.1,0.2-0.1,0.4c0,0.1,0,0.3-0.1,0.4c0,0.1,0,0.2,0,0.3c0,0.1,0.1,0.2,0.2,0.3
		c0.1,0.1,0.3,0.1,0.4,0.1c0.2,0,0.3,0,0.5-0.1c0.2-0.1,0.3-0.1,0.4-0.2c0.1-0.1,0.2-0.2,0.4-0.3c0.1-0.1,0.2-0.3,0.3-0.5
		c0.1-0.2,0.1-0.4,0.1-0.5c0-0.1,0-0.2,0.1-0.4c0.1-0.1,0.1-0.2,0.3-0.2c0,0,0,0,0.1,0.1s0,0.1,0,0.2c0,0.1,0,0.1,0,0.2
		c0,0.1,0,0.1,0,0.1c0,0.3,0,0.5,0.1,0.6c0.1,0.2,0.2,0.3,0.5,0.3c0.1,0,0.3,0,0.5,0c0.2-0.1,0.4-0.1,0.5-0.3c0,0,0-0.1,0-0.2
		c0-0.1,0-0.2,0-0.3c0-0.1-0.1-0.2-0.1-0.3c0-0.1-0.1-0.2-0.1-0.2l0.5-1c0.1,0,0.2,0.1,0.2,0.3c0,0.2,0.1,0.3,0.1,0.5
		c0,0.2,0,0.4,0,0.6c0,0.2,0,0.4-0.1,0.5c-0.1,0.3-0.3,0.6-0.4,0.9c-0.2,0.3-0.5,0.4-0.9,0.5c-0.3,0.1-0.6,0-0.8-0.1
		C255.6,9.1,255.4,8.9,255.3,8.7z"/>
	<path class="st1" d="M250.1,21.1c0.4,0,0.8,0,1.1,0c0.4,0,0.7-0.1,1.1-0.2c0.3-0.1,0.6-0.2,0.9-0.4c0.3-0.2,0.5-0.4,0.6-0.6
		c0.3-0.5,0.5-1,0.7-1.5c0.2-0.5,0.5-1,0.7-1.4c0.1-0.2,0.2-0.4,0.4-0.6c0.2-0.2,0.4-0.4,0.6-0.6c0.2-0.2,0.4-0.3,0.6-0.5
		c0.2-0.1,0.4-0.2,0.6-0.2c0.2,0,0.5,0.1,0.7,0.2c0.2,0.2,0.4,0.4,0.6,0.6c0.2,0.2,0.4,0.5,0.5,0.8c0.2,0.3,0.3,0.6,0.4,0.9
		c0.1,0.3,0.2,0.6,0.3,0.9c0.1,0.3,0.1,0.5,0.1,0.7c0,0.2,0,0.4-0.1,0.6c0,0.2-0.1,0.4-0.2,0.6c-0.1,0.2-0.2,0.4-0.3,0.5
		c-0.1,0.2-0.3,0.3-0.5,0.4c-0.2,0.1-0.5,0.1-0.9,0.1c-0.4,0-0.8-0.1-1.2-0.2c-0.4-0.1-0.9-0.3-1.3-0.5c-0.4-0.2-0.9-0.4-1.2-0.7
		c-0.4,1-0.9,1.8-1.6,2.3c-0.7,0.5-1.6,0.7-2.7,0.7h-0.2c-0.3,0-0.5-0.1-0.6-0.3c-0.1-0.2-0.2-0.5-0.2-0.7c0-0.3,0.1-0.5,0.2-0.7
		c0.1-0.2,0.4-0.3,0.6-0.3H250.1z M258.7,19.5c0,0,0-0.1,0-0.2c0-0.1-0.1-0.3-0.2-0.4c-0.1-0.1-0.1-0.3-0.2-0.4
		c-0.1-0.1-0.1-0.2-0.2-0.3c-0.2-0.2-0.3-0.4-0.6-0.6c-0.2-0.2-0.5-0.3-0.8-0.3c-0.1,0-0.3,0-0.4,0.1c-0.1,0.1-0.3,0.2-0.4,0.3
		c-0.1,0.1-0.2,0.2-0.3,0.4c-0.1,0.1-0.2,0.3-0.2,0.4c0.5,0.4,1,0.7,1.6,0.8C257.5,19.4,258.1,19.5,258.7,19.5z"/>
	<path class="st1" d="M269.3,21.9c0.1-0.1,0.2-0.2,0.3-0.2c0.1-0.1,0.3-0.2,0.4-0.2c0.2-0.1,0.3-0.1,0.4-0.2
		c0.1-0.1,0.2-0.1,0.3-0.2c-0.3-0.3-0.5-0.5-0.8-0.8c-0.2-0.3-0.4-0.6-0.5-0.9c-0.1-0.4-0.1-0.7,0.1-1c0.2-0.3,0.4-0.6,0.6-0.9
		c0.3-0.3,0.5-0.6,0.9-0.9c0.3-0.3,0.6-0.5,1-0.6c0.4-0.2,0.7-0.2,1.1-0.2c0.2,0,0.3,0,0.4,0.1c0.1,0.1,0.2,0.2,0.3,0.3
		s0.2,0.3,0.2,0.4c0.1,0.2,0.1,0.3,0.2,0.4c0.1,0.2,0.1,0.4,0,0.6c0,0.2-0.1,0.4-0.2,0.6c-0.1,0.2-0.2,0.3-0.3,0.4
		c-0.1,0.1-0.2,0.2-0.3,0.2c-0.1,0-0.1,0-0.2-0.1c0,0-0.1-0.1-0.1-0.2c0-0.1,0-0.2-0.1-0.2c0-0.1,0-0.2-0.1-0.2
		c-0.1-0.2-0.2-0.3-0.3-0.4c-0.2-0.1-0.3-0.1-0.5-0.1c-0.3,0-0.6,0.1-0.8,0.2c-0.3,0.1-0.5,0.2-0.7,0.4c0.1,0.4,0.4,0.9,0.8,1.2
		c0.2,0.2,0.4,0.3,0.6,0.4c0.2,0.1,0.4,0.2,0.7,0.2c0.6,0.1,1.2,0.1,1.8,0c0.6-0.1,1.2-0.2,1.8-0.4c0,0-0.1,0.3-0.3,0.9
		c-0.2,0.6-0.3,0.8-0.4,0.8c-0.9,0.1-1.8,0.3-2.6,0.5c-0.8,0.2-1.7,0.5-2.5,0.9c-0.3,0.1-0.7,0.3-1,0.4c-0.3,0.1-0.6,0.3-0.8,0.4
		c0,0-0.1,0-0.1,0c0,0-0.1-0.1-0.1-0.1c0-0.2,0.1-0.5,0.2-0.7C269,22.3,269.2,22.1,269.3,21.9z"/>
	<path class="st0" d="M284.7,21.1c0.3,0,0.5,0.1,0.6,0.3c0.1,0.2,0.2,0.5,0.2,0.7c0,0.3-0.1,0.5-0.2,0.7c-0.1,0.2-0.3,0.3-0.6,0.3
		c0,0-0.1,0-0.1,0c0,0-0.1,0-0.1,0c-0.8,0-1.5-0.2-2-0.5c-0.5-0.3-0.9-0.7-1.3-1.2c-0.4-0.6-0.6-1.3-0.7-1.9
		c-0.1-0.7-0.2-1.4-0.3-2.1c-0.1-0.8-0.2-1.6-0.3-2.4c-0.1-0.8-0.2-1.6-0.3-2.4c-0.1-0.8-0.2-1.6-0.3-2.5c-0.1-0.8-0.3-1.7-0.6-2.7
		c0-0.1,0-0.1,0-0.2c0,0,0-0.1,0-0.1l0.7-1.8c0-0.1,0.1-0.1,0.1-0.1s0.1,0,0.1,0.1c0.1,0.5,0.2,1,0.3,1.6c0.1,0.5,0.2,1.1,0.3,1.7
		c0.1,0.6,0.2,1.3,0.3,2c0.1,0.7,0.2,1.5,0.3,2.5c0.1,0.6,0.1,1.3,0.2,1.9c0.1,0.6,0.1,1.2,0.2,1.9c0.1,0.5,0.1,1,0.2,1.5
		c0.1,0.5,0.2,1,0.5,1.4c0.2,0.4,0.5,0.7,0.9,0.8c0.4,0.2,1,0.3,1.7,0.3C284.6,21.1,284.6,21.1,284.7,21.1
		C284.7,21.1,284.7,21.1,284.7,21.1z"/>
	<path class="st1" d="M292.2,3.2c-0.5,0.2-0.9,0.4-1.4,0.7c-0.5,0.2-1,0.4-1.4,0.7c-0.5,0.2-0.9,0.4-1.3,0.6c-0.4,0.2-0.7,0.3-1,0.5
		c-0.1,0-0.1,0-0.1,0c0,0,0-0.1,0-0.1l0.7-1.3c0-0.1,0.1-0.1,0.1-0.2c0,0,0.1-0.1,0.1-0.1l5-2.2c0.1-0.1,0.2,0,0.1,0.1L292.3,3
		C292.3,3.1,292.3,3.2,292.2,3.2z M289.7,8.7c-0.2,0.4-0.4,0.7-0.7,0.9c-0.3,0.2-0.6,0.3-1,0.3c-0.3,0-0.6-0.1-0.8-0.2
		c-0.2-0.2-0.4-0.5-0.4-0.9c0-0.2,0-0.4,0-0.6c0-0.2,0.1-0.4,0.2-0.6c0.1-0.2,0.2-0.3,0.3-0.4c0.1-0.1,0.2-0.2,0.3-0.2
		c0.1,0,0.1,0.1,0,0.2c-0.1,0.1-0.1,0.2-0.1,0.4c0,0.1,0,0.3-0.1,0.4c0,0.1,0,0.2,0,0.3c0,0.1,0.1,0.2,0.2,0.3
		c0.1,0.1,0.3,0.1,0.4,0.1c0.2,0,0.3,0,0.5-0.1c0.2-0.1,0.3-0.1,0.4-0.2c0.1-0.1,0.2-0.2,0.4-0.3c0.1-0.1,0.2-0.3,0.3-0.5
		c0.1-0.2,0.1-0.4,0.1-0.5c0-0.1,0-0.2,0.1-0.4c0.1-0.1,0.1-0.2,0.3-0.2c0,0,0,0,0.1,0.1c0,0,0,0.1,0,0.2c0,0.1,0,0.1,0,0.2
		c0,0.1,0,0.1,0,0.1c0,0.3,0,0.5,0.1,0.6c0.1,0.2,0.2,0.3,0.5,0.3c0.1,0,0.3,0,0.5,0c0.2-0.1,0.4-0.1,0.5-0.3c0,0,0-0.1,0-0.2
		c0-0.1,0-0.2,0-0.3c0-0.1-0.1-0.2-0.1-0.3c0-0.1-0.1-0.2-0.1-0.2l0.5-1c0.1,0,0.2,0.1,0.2,0.3c0,0.2,0.1,0.3,0.1,0.5
		c0,0.2,0,0.4,0,0.6c0,0.2,0,0.4-0.1,0.5c-0.1,0.3-0.3,0.6-0.4,0.9c-0.2,0.3-0.5,0.4-0.9,0.5c-0.3,0.1-0.6,0-0.8-0.1
		C290,9.1,289.8,8.9,289.7,8.7z"/>
	<path class="st1" d="M284.6,21.1c0.4,0,0.8,0,1.1,0c0.4,0,0.7-0.1,1.1-0.2c0.3-0.1,0.6-0.2,0.9-0.4c0.3-0.2,0.5-0.4,0.6-0.6
		c0.3-0.5,0.5-1,0.7-1.5c0.2-0.5,0.5-1,0.7-1.4c0.1-0.2,0.2-0.4,0.4-0.6c0.2-0.2,0.3-0.4,0.5-0.6c0.2-0.2,0.4-0.3,0.6-0.5
		c0.2-0.1,0.4-0.2,0.6-0.2c0.3,0,0.7,0.2,1,0.5c0.3,0.3,0.6,0.7,0.8,1.2c0.2,0.4,0.4,0.9,0.6,1.4c0.1,0.5,0.2,0.9,0.2,1.2
		c0,0.2,0,0.4-0.1,0.6c0,0.2-0.1,0.4-0.2,0.6c-0.1,0.2-0.2,0.4-0.3,0.5c-0.1,0.2-0.3,0.3-0.5,0.4c-0.4,0.1-0.8,0.1-1.3,0
		c-0.5-0.1-0.9-0.2-1.3-0.3c-0.4-0.1-0.7-0.3-1.1-0.4c-0.4-0.2-0.7-0.4-1-0.6c-0.4,1-0.9,1.8-1.6,2.3c-0.7,0.5-1.6,0.7-2.7,0.7h-0.2
		c-0.3,0-0.5-0.1-0.6-0.3c-0.1-0.2-0.2-0.5-0.2-0.7c0-0.3,0.1-0.5,0.2-0.7c0.1-0.2,0.4-0.3,0.6-0.3H284.6z M292.5,18.1
		c-0.2-0.2-0.3-0.4-0.6-0.6c-0.2-0.2-0.5-0.3-0.8-0.3c-0.3,0-0.6,0.2-0.8,0.4c-0.3,0.2-0.4,0.5-0.5,0.8c0.2,0.2,0.5,0.4,0.7,0.5
		c0.3,0.1,0.5,0.2,0.8,0.3c0.3,0.1,0.6,0.1,0.9,0.2c0.3,0,0.6,0.1,0.9,0.1c0,0,0-0.1,0-0.2c0-0.1-0.1-0.3-0.2-0.4
		c-0.1-0.1-0.1-0.3-0.2-0.4C292.6,18.3,292.6,18.2,292.5,18.1z"/>
	<path class="st1" d="M313.2,20.8l0.6-2c0-0.1,0.1-0.2,0.1-0.2s0.1,0,0.2,0.1c0.2,0.3,0.4,0.6,0.6,1s0.4,0.7,0.5,0.9
		c0.1,0.1,0.2,0.2,0.4,0.2c0.2,0,0.4,0.1,0.5,0.1c0.2,0,0.4,0,0.5,0c0.2,0,0.3,0,0.3,0h0.2c0.3,0,0.5,0.1,0.6,0.3
		c0.1,0.2,0.2,0.5,0.2,0.7c0,0.3-0.1,0.5-0.2,0.7c-0.1,0.2-0.4,0.3-0.6,0.3H317c-0.5,0-0.9,0-1.3-0.1c0.1,0.5,0.1,1.1,0.1,1.6
		c0,0.6,0,1.1-0.1,1.7c-0.1,0.9-0.5,1.7-1,2.4c-0.5,0.7-1.1,1.2-1.9,1.6s-1.5,0.7-2.4,0.9c-0.9,0.2-1.7,0.3-2.6,0.3
		c-0.7,0-1.4-0.1-2.1-0.3c-0.6-0.2-1.2-0.6-1.7-1c-0.5-0.4-0.8-1-1.1-1.6c-0.3-0.6-0.4-1.3-0.4-2.1c0-0.9,0.1-1.7,0.4-2.5
		c0.3-0.8,0.7-1.6,1.1-2.3c0.1-0.1,0.1-0.1,0.2-0.1c0,0,0.1,0,0.1,0.1c0,0.1,0,0.2,0,0.2c-0.4,0.8-0.7,1.7-0.8,2.5
		c-0.1,0.9,0,1.7,0.2,2.4c0.3,0.7,0.7,1.3,1.4,1.7c0.7,0.5,1.6,0.7,2.7,0.7c0.6,0,1.3,0,1.9-0.2c0.6-0.1,1.2-0.3,1.8-0.5
		c0.6-0.2,1.1-0.5,1.7-0.9c0.5-0.4,1-0.8,1.4-1.3c0-0.5,0-1-0.1-1.5c-0.1-0.5-0.2-1-0.3-1.5c-0.1-0.5-0.3-1-0.5-1.5
		C313.7,21.7,313.5,21.3,313.2,20.8z M310,15l1.7,1.4c0.1,0.1,0.1,0.1,0,0.2l-1.1,1.4c-0.1,0.1-0.1,0.1-0.2,0l-1.7-1.4
		c-0.1-0.1-0.1-0.1,0-0.2l1.1-1.4C309.8,15,309.9,15,310,15z"/>
	<path class="st0" d="M322.1,8.7c-0.2,0.4-0.4,0.7-0.7,0.9c-0.3,0.2-0.6,0.3-1,0.3c-0.3,0-0.6-0.1-0.8-0.2c-0.2-0.2-0.4-0.5-0.4-0.9
		c0-0.2,0-0.4,0-0.6c0-0.2,0.1-0.4,0.2-0.6c0.1-0.2,0.2-0.3,0.3-0.4c0.1-0.1,0.2-0.2,0.3-0.2c0.1,0,0.1,0.1,0,0.2
		c-0.1,0.1-0.1,0.2-0.1,0.4c0,0.1,0,0.3-0.1,0.4c0,0.1,0,0.2,0,0.3c0,0.1,0.1,0.2,0.2,0.3c0.1,0.1,0.3,0.1,0.4,0.1
		c0.2,0,0.3,0,0.5-0.1c0.2-0.1,0.3-0.1,0.4-0.2c0.1-0.1,0.2-0.2,0.4-0.3c0.1-0.1,0.2-0.3,0.3-0.5c0.1-0.2,0.1-0.4,0.1-0.5
		c0-0.1,0-0.2,0.1-0.4c0.1-0.1,0.1-0.2,0.3-0.2c0,0,0,0,0.1,0.1s0,0.1,0,0.2c0,0.1,0,0.1,0,0.2c0,0.1,0,0.1,0,0.1
		c0,0.3,0,0.5,0.1,0.6c0.1,0.2,0.2,0.3,0.5,0.3c0.1,0,0.3,0,0.5,0c0.2-0.1,0.4-0.1,0.5-0.3c0,0,0-0.1,0-0.2c0-0.1,0-0.2,0-0.3
		c0-0.1-0.1-0.2-0.1-0.3c0-0.1-0.1-0.2-0.1-0.2l0.5-1c0.1,0,0.2,0.1,0.2,0.3c0,0.2,0.1,0.3,0.1,0.5c0,0.2,0,0.4,0,0.6
		c0,0.2,0,0.4-0.1,0.5c-0.1,0.3-0.3,0.6-0.4,0.9c-0.2,0.3-0.5,0.4-0.9,0.5c-0.3,0.1-0.6,0-0.8-0.1C322.4,9.1,322.2,8.9,322.1,8.7z"
		/>
	<path class="st0" d="M324.3,26.5c-0.9,0.3-1.8,0.6-2.6,0.9c-0.9,0.3-1.7,0.6-2.5,0.8c-0.1,0-0.2,0-0.1-0.1l0.6-1
		c0-0.1,0.1-0.1,0.1-0.1c0,0,0.1,0,0.1-0.1c0.2-0.1,0.6-0.2,1-0.3c0.4-0.1,0.8-0.3,1.3-0.4s1-0.3,1.4-0.5c0.5-0.2,1-0.3,1.4-0.4
		c0.1,0,0.1,0,0.1,0c0,0,0,0.1,0,0.1l-0.6,1.1C324.5,26.4,324.4,26.4,324.3,26.5C324.4,26.5,324.4,26.5,324.3,26.5z"/>
	<path class="st0" d="M317,21.1c0.4,0,0.8,0,1.1,0c0.4,0,0.7-0.1,1.1-0.2c0.3-0.1,0.6-0.2,0.9-0.4c0.3-0.2,0.5-0.4,0.6-0.6
		c0.3-0.5,0.5-1,0.7-1.5c0.2-0.5,0.5-1,0.7-1.4c0.1-0.2,0.2-0.4,0.4-0.6c0.2-0.2,0.3-0.4,0.5-0.6c0.2-0.2,0.4-0.3,0.6-0.5
		c0.2-0.1,0.4-0.2,0.6-0.2c0.3,0,0.7,0.2,1,0.5c0.3,0.3,0.6,0.7,0.8,1.2c0.2,0.4,0.4,0.9,0.6,1.4c0.1,0.5,0.2,0.9,0.2,1.2
		c0,0.2,0,0.4-0.1,0.6c0,0.2-0.1,0.4-0.2,0.6c-0.1,0.2-0.2,0.4-0.3,0.5c-0.1,0.2-0.3,0.3-0.5,0.4c-0.4,0.1-0.8,0.1-1.3,0
		c-0.5-0.1-0.9-0.2-1.3-0.3c-0.4-0.1-0.7-0.3-1.1-0.4c-0.4-0.2-0.7-0.4-1-0.6c-0.4,1-0.9,1.8-1.6,2.3c-0.7,0.5-1.6,0.7-2.7,0.7h-0.2
		c-0.3,0-0.5-0.1-0.6-0.3c-0.1-0.2-0.2-0.5-0.2-0.7c0-0.3,0.1-0.5,0.2-0.7c0.1-0.2,0.4-0.3,0.6-0.3H317z M325,18.1
		c-0.2-0.2-0.3-0.4-0.6-0.6c-0.2-0.2-0.5-0.3-0.8-0.3c-0.3,0-0.6,0.2-0.8,0.4c-0.3,0.2-0.4,0.5-0.5,0.8c0.2,0.2,0.5,0.4,0.7,0.5
		c0.3,0.1,0.5,0.2,0.8,0.3c0.3,0.1,0.6,0.1,0.9,0.2c0.3,0,0.6,0.1,0.9,0.1c0,0,0-0.1,0-0.2c0-0.1-0.1-0.3-0.2-0.4
		c-0.1-0.1-0.1-0.3-0.2-0.4C325.1,18.3,325,18.2,325,18.1z"/>
	<path class="st0" d="M350,16.2c0,0.2-0.1,0.5-0.3,0.7c-0.3,0.3-0.7,0.6-1.3,1c0,0.6-0.1,1.1-0.3,1.7c-0.1,0.5-0.3,0.7-0.5,0.7
		c-0.6-0.6-1.2-1.1-1.7-1.5c-0.6-0.5-1.2-0.7-1.9-0.7c0.1,0.6,0.4,1.2,0.9,1.9c0.5,0.5,1,1.1,1.5,1.6c0,0.3-0.5,0.5-1.5,0.7
		c-0.8,0.2-1.4,0.2-1.8,0.2c-0.7,2.2-1.7,4.2-3.1,6c-0.6,0.8-1.3,1.7-2.3,2.6c-1.3,1.2-2.2,1.8-2.8,1.8c-0.2,0-0.3-0.1-0.3-0.3
		c0-0.1,0.4-0.6,1.1-1.4c1-1.2,1.8-2.2,2.3-3.2c0.9-1.7,1.5-3.6,1.8-5.7c-0.7-0.1-1.1-0.2-1.3-0.3c-0.2-0.1-0.3-0.2-0.3-0.4
		c1.5-1.2,2.2-2.4,2.2-3.4c-0.6,0-1.2,0.2-1.8,0.7c-0.4,0.4-0.9,0.9-1.6,1.6c-0.2,0-0.4-0.3-0.6-0.8c-0.2-0.6-0.3-1.1-0.3-1.7
		c-0.7-0.4-1-0.5-1.1-0.6c-0.4-0.3-0.6-0.6-0.6-1c0-0.2,0.1-0.4,0.3-0.6c0.1-0.1,0.6-0.4,1.3-0.8c0-1.7,0.3-2.5,0.9-2.5
		c1.2,1.3,2.4,2.1,3.4,2.2c0-0.5-0.3-1.2-0.8-1.9c0-0.1-0.5-0.6-1.5-1.6c0-0.1,0.1-0.3,0.4-0.4c0.2-0.1,0.7-0.2,1.3-0.3
		c-0.3-1.7-1-3.4-2-5.2c-1-1.8-2.2-3.2-3.4-4.4c-0.2-0.2-0.3-0.4-0.3-0.5s0.1-0.2,0.4-0.3c0.4,0,1.1,0.3,2,1c2.8,2,4.9,5,6.4,9.1
		c2.2,0,3.2,0.3,3.2,0.9c-0.6,0.5-1.1,1-1.4,1.5c-0.4,0.6-0.7,1.2-0.7,1.9c0.5,0,1-0.3,1.6-0.8l1.7-1.5c0.4,0,0.6,0.7,0.8,2.2
		c0,0.1,0,0.3,0.1,0.4C349.5,15.3,350,15.8,350,16.2z M345.1,11.1c0-0.1-0.2-0.1-0.6-0.2c-0.4-0.1-0.7-0.1-0.9-0.1H343
		c-0.1,0-0.3,0-0.4,0.1c-0.6-1.9-1.5-3.7-2.6-5.4c-1.3-1.9-2.9-3.4-4.6-4.6c1.2,1.1,2.2,2.5,3.1,4c1.1,1.9,1.8,3.9,2.2,5.9
		c-0.8,0.1-1.2,0.2-1.3,0.4c0.9,0.7,1.6,1.5,2,2.3c0.1-0.3,0.3-0.7,0.5-1.1c0-0.1,0.1-0.2,0.2-0.5c0.1-0.3,0.2-0.4,0.3-0.4
		c0.3,0,0.6,0.7,1.1,2.1c0.2-0.5,0.5-1,0.9-1.5C344.4,11.8,344.7,11.5,345.1,11.1z M339.8,17.4c-0.2-0.1-0.8-0.3-1.7-0.6
		c-0.6-0.2-1-0.4-1-0.5c0-0.1,0.5-0.3,1.5-0.7c0.2-0.1,0.6-0.2,1.1-0.4c-0.5-0.2-1-0.4-1.5-0.8c-0.2-0.2-0.6-0.5-1-1
		c-0.2,0-0.3,0.6-0.3,1.8c-0.9,0.5-1.4,0.9-1.4,1.1c0,0.2,0.5,0.5,1.4,0.9c0,1.3,0.1,2,0.4,2c0,0,0.3-0.3,1-0.8
		C339,17.9,339.5,17.5,339.8,17.4z M345.3,21.3c-0.7-0.6-1.4-1.3-1.8-2.2c-0.1,0.2-0.3,0.6-0.5,1c-0.1,0.1-0.2,0.3-0.3,0.6
		c-0.1,0.3-0.3,0.4-0.3,0.4c-0.1,0-0.2-0.2-0.3-0.5c-0.1-0.3-0.2-0.5-0.2-0.5c0-0.2-0.2-0.5-0.5-1.1c-0.1,0.4-0.4,0.9-0.8,1.3
		c-0.3,0.3-0.6,0.7-1,1c0,0.1,0.4,0.2,1.2,0.4c-0.5,2-0.8,3.2-1,3.7c-0.7,2.2-2,4.3-3.7,6.3c2.9-2,5.1-5.3,6.7-10.1
		c1.1,0,1.6,0,1.4,0C344.8,21.7,345.3,21.6,345.3,21.3z M344.3,16.3c0-0.6-0.2-1-0.6-1.4c-0.4-0.4-0.9-0.5-1.4-0.5
		c-0.5,0-1,0.2-1.4,0.6c-0.4,0.4-0.6,0.8-0.6,1.4c0,0.6,0.2,1,0.6,1.4c0.4,0.4,0.9,0.6,1.4,0.6c0.6,0,1.1-0.2,1.4-0.6
		C344.1,17.3,344.3,16.8,344.3,16.3z M349.2,16.2c0-0.1-0.1-0.3-0.4-0.4c-0.3-0.2-0.6-0.3-1-0.5c0-0.6,0-1-0.1-1.4
		c-0.1-0.4-0.2-0.6-0.3-0.6c-0.1,0-0.3,0.3-0.8,0.8c-0.5,0.5-1,0.9-1.7,1.1c0.3,0.1,0.7,0.3,1.2,0.6c0.1,0,0.4,0.1,0.9,0.3
		c0.4,0.1,0.6,0.3,0.6,0.3c0,0.1-0.3,0.3-1,0.5c-1,0.3-1.6,0.4-1.7,0.5c0.6,0.2,1.1,0.4,1.5,0.8c0.2,0.2,0.6,0.5,1,1
		c0.1,0,0.2-0.2,0.3-0.5c0-0.2,0-0.6,0-1.3C348.7,16.8,349.2,16.4,349.2,16.2z"/>
	<path class="st0" d="M376.1,17.4c0,2.2,0,2.9-1,3.9c1,0.3,2.8,0.9,2.8,2.3c0,2.7-5.8,5.7-9.3,5.7c-2.1,0-5.3-0.8-5.3-4.8
		c0-1.7,0.7-3.8,1.5-5c0.2-0.4,0.5-0.6,0.7-0.6c0.2,0,0.1,0.4-0.1,0.8c-0.6,1.3-1,2.5-1,3.4c0,2.7,2.4,3.8,4.8,3.8
		c2.7,0,7.1-2.1,7.6-2.8c-0.7-0.6-2.7-1.5-4.4-1.5c-0.3,0-0.4-0.1-0.4-0.3c0-0.3,0.3-0.9,0.5-1.3c0.1-0.1,0.1-0.2,0.2-0.2l1-0.3
		c0.8-0.3,1.4-0.7,1.4-1c-0.3-2.7-0.7-7-0.9-8.6c-0.1-0.4-0.2-0.7-0.2-1.1c0-0.1,0-0.2,0-0.3c0,0,0-0.1,0-0.2c0-0.1,0.2-0.6,0.5-1.1
		c0.3-0.5,0.5-0.9,0.7-0.9c0.1,0,0.1,0.1,0.2,0.2c0.2,0.8,0.6,1.4,0.8,1.8c0,0.1,0.1,0.1,0.1,0.2c0,0.1,0,0.1,0,0.2
		c-0.1,0.2-0.4,0.8-0.6,1.2C375.9,13.6,376,15.7,376.1,17.4z"/>
	<path class="st0" d="M384,23.2c-0.7,0-1.2-0.1-1.7-0.5c-0.7-0.6-1.1-1.7-1.3-3.1c-0.2-1.1-0.2-2.3-0.3-3.7c-0.1-2-0.2-5.1-0.5-6.9
		c0-0.1,0-0.2,0-0.2c0-0.1,0-0.2,0.2-0.4c0.3-0.5,0.5-0.8,0.7-1.2c0.2-0.3,0.2-0.3,0.3-0.3c0.1,0,0.2,0.2,0.3,0.7
		c0.4,3.5,0.1,8.4,0.6,11.1c0.1,0.7,0.2,0.9,0.4,1.3c0.3,0.6,0.7,0.9,1.4,1c0.8,0,1.2,0.4,1.2,1.1c0,0.9-0.4,1.2-1.1,1.2H384z"/>
	<path class="st0" d="M394.3,20.9c0.6,0,1,0.4,1,1.1c0,0.8-0.3,1.2-1,1.2h-0.2c-1-0.1-1.9-0.3-2.7-0.8c-0.8-0.5-1.1-0.9-1.6-1.7
		c-1.2,1.1-2.1,1.7-2.9,2c-0.8,0.3-1.7,0.5-2.7,0.5c-0.8,0-1.1-0.4-1.1-1.2c0-0.7,0.4-1.1,1.1-1.1h0.2c1.8,0,3-0.3,4.5-1.2
		c-0.5-0.7-1.7-1-2.3-1.1c-0.1,0-0.1-0.2-0.1-0.4c0-0.5,0.2-1.4,0.5-1.6c1-0.7,2.1-1.1,3.1-1.1c1,0,1.9,0.4,2.6,1.1
		c0.2,0.2,0.2,0.4,0.2,0.7c0,0.7-0.4,1.7-1.3,2.3c0.8,0.8,1.7,1.2,2.6,1.2H394.3z"/>
	<path class="st0" d="M398.7,4.8c0.1-0.1,0.1,0,0.1,0.1c0,0.6-0.2,1.1-0.5,1.3l-4.1,2.3c-0.1,0-0.1,0-0.1-0.1c0-0.3,0.1-0.8,0.2-1
		c0.1-0.2,0.3-0.3,0.7-0.5L398.7,4.8z"/>
	<path class="st0" d="M398,21.8c-0.4,0.6-1.2,1.1-2.6,1.3c-0.4,0.1-0.9,0.1-1.4,0.1c-0.6,0-1-0.6-1-1.1s0.3-1.1,1-1.1h0.5
		c1,0,2.6,0,3.2-0.6c-0.1-0.9-0.8-2-1.1-2.4c0,0,0,0,0-0.1c0-0.4,0.7-1.8,0.7-1.9c0-0.1,0.1-0.1,0.1-0.1c0.3,0,1.1,1.6,1.1,3.5
		C398.6,20.1,398.5,21.1,398,21.8z M397.9,10.4c0.2-0.2,0.2-0.2,0.3-0.1c0.5,0.5,1,1.1,1.5,1.4c0.2,0.1,0.2,0.2,0,0.3
		c-0.5,0.5-0.9,1-1.3,1.5c-0.1,0.1-0.2,0.1-0.3,0c-0.4-0.3-0.9-0.7-1.4-1.2c-0.3,0.3-0.9,1-1.1,1.2c-0.1,0.1-0.2,0.2-0.4,0
		c-0.5-0.3-1.1-0.9-1.5-1.4c-0.1-0.1-0.1-0.2,0-0.3c0.4-0.5,0.9-1,1.4-1.5c0.1-0.1,0.2-0.1,0.3,0.1c0.4,0.4,1,1,1.4,1.2
		C397.1,11.2,397.6,10.6,397.9,10.4z"/>
	<path class="st0" d="M410.3,7.9c0,0.5-0.1,1-0.3,1.5c0.2,0.1,0.4,0.3,0.4,0.4c0,0.4-0.2,0.7-0.3,1c-0.1,0.1-0.1,0.1-0.1,0.1
		l-0.5-0.3c-0.5,0.8-1.3,1.8-2.5,2.3c-0.4,0.2-0.9,0.4-1.5,0.4c-0.3,0-0.4-0.1-0.4-0.1c0-0.1,0.2-0.2,0.6-0.4
		c0.9-0.5,2.5-1.8,3.1-2.5c-0.5-0.3-1.1-0.7-1.1-1.4c0-0.4,0.2-0.9,0.6-1.3c0.4-0.5,0.8-0.8,1.2-0.8C410.1,6.6,410.3,7.3,410.3,7.9z
		 M408.5,8.3C408.5,8.4,408.5,8.4,408.5,8.3c0,0.2,0.4,0.5,0.8,0.7c0.1-0.2,0.1-0.4,0.1-0.7c0-0.3-0.1-0.4-0.3-0.4
		C408.9,7.9,408.6,8.1,408.5,8.3z"/>
	<path class="st0" d="M416.3,1.3c0,0.5-0.1,1-0.3,1.5c0.2,0.1,0.4,0.3,0.4,0.4c0,0.4-0.2,0.7-0.3,1C416,4.2,416,4.2,416,4.2
		l-0.5-0.3c-0.5,0.8-1.3,1.8-2.5,2.3c-0.4,0.2-0.9,0.4-1.5,0.4c-0.3,0-0.4-0.1-0.4-0.1c0-0.1,0.2-0.2,0.6-0.4
		c0.9-0.5,2.5-1.8,3.1-2.5c-0.5-0.3-1.1-0.7-1.1-1.4c0-0.4,0.2-0.9,0.6-1.3c0.4-0.5,0.8-0.8,1.2-0.8C416.1,0,416.3,0.7,416.3,1.3z
		 M414.5,1.7C414.5,1.8,414.5,1.8,414.5,1.7c0,0.2,0.4,0.5,0.8,0.7c0.1-0.2,0.1-0.4,0.1-0.7c0-0.3-0.1-0.4-0.3-0.4
		C414.9,1.3,414.7,1.5,414.5,1.7z"/>
	<path class="st0" d="M413.8,9.1c0-0.1,0-0.2,0-0.3c0,0,0-0.1,0-0.2c0-0.1,0.2-0.5,0.5-1c0.3-0.5,0.5-0.9,0.7-0.9
		c0.1,0,0.1,0.1,0.2,0.2c0.3,1,0.6,1.4,0.8,1.7c0,0.1,0.1,0.2,0.1,0.2s0,0.1,0,0.2c-0.1,0.2-0.4,0.8-0.6,1.1c0,0.6,0.2,2.2,0.5,4.3
		c0.2,2,0.3,3.1,0.3,3.6c0,1.7-0.4,3-1.1,4c-0.6,0.7-1.4,1-2.3,1c-0.7,0-1.3-0.2-1.8-0.8c-0.4-0.5-0.8-1.4-1.1-2.8
		c-0.5,1.2-1.2,1.8-2.2,1.8c-0.1,0-0.1,0-0.4,0c-0.7,0-1.1-0.1-1.4-0.2c-0.2-0.1-0.4-0.3-0.4-0.6c0-0.1,0-0.2,0.1-0.4
		c0.1-0.3,0.2-0.7,0.3-1c0.2-0.5,0.5-0.9,1-1.1c0.8-0.5,1.8-1,2.7-1.3c0-0.3,0.1-0.7,0.3-1.2c0.2-0.5,0.3-0.8,0.4-0.8
		c0.1,0,0.2,0.1,0.2,0.3c0.1,0.6,0.2,1.9,0.5,3.7c0.2,0.6,0.4,1.1,0.7,1.4c0.3,0.3,0.7,0.5,1.2,0.5c0.1,0,0.2,0,0.4,0
		c0.4,0,0.7,0,1-0.2c0.4-0.1,0.6-0.3,0.7-0.4c-0.1-1.9-0.9-8.8-1.1-10.3C413.9,9.6,413.9,9.6,413.8,9.1z M408.4,19.2
		c0.7,0,1.1-0.2,1.4-0.5l-0.2-1.1c-1.2,0.6-2,1-2.3,1.4C407.5,19.2,407.9,19.2,408.4,19.2z"/>
	<path class="st0" d="M421.6,10.3c0.7,0,1.7,1,1.7,2.1c0,0.4-0.1,0.8-0.2,1.2c-0.3,0.8-0.9,1.3-1.8,1.3c-0.8,0-1.3-0.6-1.3-1.3
		C419.9,12.5,421.1,10.3,421.6,10.3z M421.4,11.9c-0.3,0-0.7,0.6-0.7,1c0,0.3,0.4,0.6,0.8,0.6c0.5,0,1.1-0.3,1.1-0.5
		C422.6,12.7,421.9,11.9,421.4,11.9z"/>
	<path class="st0" d="M415.9,29.2c-0.3-0.2-0.4-0.3-0.4-0.4c0-0.1,0.2-0.2,0.4-0.2c0.3,0,1.1,0.2,1.8,0.2c0.6,0,1.2-0.2,2.1-0.6
		c2.4-1.2,3.9-3,3.9-4.2c0-0.2,0-0.3-0.1-0.7h-0.7c-0.5,0-1.5-0.1-2.2-0.5c-0.7-0.4-1-0.9-1-1.5c0-0.6,0.3-1.4,0.6-2.2
		c0.6-1.3,1.2-2.2,1.9-2.2c0.7,0,1.3,0.5,1.8,1.1c0.5,0.7,0.7,1.8,0.7,2.8h1c0.6,0,0.9,0.3,0.9,1c0,0.8-0.3,1.2-0.9,1.2l-1.1,0.1
		c-0.2,3.5-1.3,5.8-4.1,6.9c-0.2,0.1-0.4,0.1-0.6,0.1C418.9,30.2,417.3,29.8,415.9,29.2z M422.1,19.5c-0.1-0.1-0.3-0.2-0.6-0.2
		c-0.5,0-0.8,0.5-0.8,0.8c0,0.2,0.2,0.5,0.8,0.7c0.4,0.2,0.9,0.2,1.1,0.2c0.2,0,0.2,0,0.2-0.1C423,20.6,422.6,19.9,422.1,19.5z"/>
	<path class="st0" d="M430.3,2.2c0.1-0.1,0.1,0,0.1,0.1c0,0.6-0.2,1.1-0.5,1.3l-4.1,2.3c-0.1,0-0.1,0-0.1-0.1c0-0.3,0.1-0.8,0.2-1
		c0.1-0.2,0.3-0.3,0.7-0.5L430.3,2.2z"/>
	<path class="st0" d="M431.2,18c0,1.2-0.4,2.9-0.9,3.7c-0.2,0.3-0.9,0.7-1.4,0.8c-1.4,0.4-2.5,0.6-3.3,0.6h-0.2c-0.6,0-1-0.4-1-1.2
		c0-0.7,0.3-1.1,1-1.1h0.2c1.3,0,2.8-0.2,3.7-0.5c0.8-0.3,0.9-0.3,0.9-1.1c0-0.5-0.1-0.8-0.3-1.3c-0.2,0.5-0.9,1-1.8,1
		c-1.1,0-1.8-0.7-1.8-2c0-1.8,1.4-4.1,2-4.1C430,13,431.2,16.4,431.2,18z M429.7,7.5c0.2-0.2,0.2-0.2,0.3-0.1c0.5,0.5,1,1.1,1.5,1.4
		c0.2,0.1,0.2,0.2,0,0.3c-0.5,0.5-0.9,1-1.3,1.5c-0.1,0.1-0.2,0.1-0.3,0c-0.4-0.3-0.9-0.7-1.4-1.2c-0.3,0.3-0.9,1-1.1,1.2
		c-0.1,0.1-0.2,0.2-0.4,0c-0.5-0.3-1.1-0.9-1.5-1.4c-0.1-0.1-0.1-0.2,0-0.3c0.4-0.5,0.9-1,1.4-1.5c0.1-0.1,0.2-0.1,0.3,0.1
		c0.4,0.4,1,1,1.4,1.2C428.9,8.3,429.5,7.7,429.7,7.5z M428.6,15.5c-0.2-0.2-0.5-0.3-0.7-0.3c-0.2,0-0.4,0.1-0.5,0.4
		c-0.1,0.2-0.2,0.4-0.2,0.5c0,0.5,0.5,0.6,1,0.6c0.5,0,0.9-0.2,0.9-0.5C429.1,16.2,428.9,15.7,428.6,15.5z"/>
	<path class="st0" d="M441.3,15.8c0.3,0.3,0.4,0.7,0.4,1.1c0,0.2-0.1,0.7-0.4,0.9c-0.3,0.3-0.7,0.4-1.1,0.4c-0.3,0-0.7-0.1-0.9-0.4
		c-0.3-0.3-0.4-0.6-0.4-1c0-0.4,0.2-0.8,0.4-1c0.3-0.2,0.6-0.4,1-0.4C440.7,15.4,441.1,15.6,441.3,15.8z M441.3,21
		c0.3,0.3,0.4,0.8,0.4,1.1c0,0.3-0.1,0.7-0.4,1c-0.3,0.3-0.7,0.4-1.1,0.4c-0.3,0-0.6-0.2-0.9-0.4c-0.3-0.3-0.4-0.6-0.4-1
		c0-0.3,0.2-0.7,0.4-1c0.3-0.3,0.6-0.4,1-0.4C440.7,20.7,441.1,20.8,441.3,21z"/>
	<path class="st0" d="M462.3,21.1c0,2.3-0.4,2.8-0.9,3.7c-1.3,2-3.6,2.9-5.9,2.9c-4,0-5.1-2.1-5.1-4.1c0-1.4,0.5-3,1.1-4.2
		c0.3-0.6,0.6-0.8,0.8-0.8c0.1,0,0.1,0.1,0.1,0.2c0,0.2-0.1,0.5-0.3,0.8c-0.3,0.7-0.7,1.7-0.7,2.5c0,1.8,1.4,3.3,4.4,3.3
		c2.2,0,4.9-1.4,5.4-2.6c0.1-0.1,0.1-0.2,0.1-0.3c-0.1-1.9-0.3-3.2-0.5-4.9c-0.4-3.1-0.5-3.8-0.8-6.6c0-0.4-0.3-1.3-0.4-1.7
		c0-0.1,0-0.2,0-0.3c0,0,0-0.1,0-0.2c0-0.1,0.1-0.4,0.4-0.9c0.2-0.5,0.7-1.1,0.8-1.1c0.1,0,0.1,0.1,0.2,0.2c0.3,0.9,0.6,1.4,0.8,1.8
		c0,0.1,0.1,0.2,0.1,0.2c0,0.1,0,0.1,0,0.2c-0.1,0.2-0.3,0.8-0.5,1.1C461.8,13.8,462.3,18.8,462.3,21.1z"/>
	<path class="st0" d="M469.5,23.2c-0.7,0-1.2-0.1-1.7-0.5c-0.7-0.6-1.1-1.7-1.3-3.1c-0.2-1.1-0.2-2.3-0.3-3.7
		c-0.1-2-0.2-5.1-0.5-6.9c0-0.1,0-0.2,0-0.2c0-0.1,0-0.2,0.2-0.4c0.3-0.5,0.5-0.8,0.7-1.2c0.2-0.3,0.2-0.3,0.3-0.3
		c0.1,0,0.2,0.2,0.3,0.7c0.4,3.5,0.1,8.4,0.6,11.1c0.1,0.7,0.2,0.9,0.4,1.3c0.3,0.6,0.7,0.9,1.4,1c0.8,0,1.2,0.4,1.2,1.1
		c0,0.9-0.4,1.2-1.1,1.2H469.5z"/>
	<path class="st0" d="M474.3,19.5c0,0.6,0.6,1.2,1.4,1.4c0.2,0,0.3,0,0.5,0h0.1c0.9,0,0.9,0.7,0.9,1c0,0.3,0,1.3-0.8,1.3h-0.2
		c-0.2,0-0.3,0-0.6,0c-1.5-0.2-2.1-1.5-2.2-1.7c-0.2,0.6-1.5,1.7-3.7,1.7h-0.1c-0.6,0-1-0.6-1-1.1s0.3-1.1,1-1.1h0.7
		c1,0,2.4-0.2,3.3-1.6c0.3-0.5,0.4-0.5,0.5-0.5C474.2,18.8,474.3,19,474.3,19.5z M474.1,13.1c0.2-0.2,0.2-0.2,0.3-0.1
		c0.5,0.5,1,1.1,1.5,1.4c0.2,0.1,0.2,0.2,0,0.3c-0.5,0.5-0.9,1-1.3,1.5c-0.1,0.1-0.2,0.1-0.3,0c-0.4-0.3-0.9-0.7-1.4-1.2
		c-0.3,0.3-0.9,1-1.1,1.2c-0.1,0.1-0.2,0.2-0.4,0c-0.5-0.3-1.1-0.9-1.5-1.4c-0.1-0.1-0.1-0.2,0-0.3c0.4-0.5,0.9-1,1.4-1.5
		c0.1-0.1,0.2-0.1,0.3,0.1c0.4,0.4,1,1,1.4,1.2C473.3,13.9,473.9,13.3,474.1,13.1z M474.5,9.8c0.1,0.1,0.1,0.1,0,0.2
		c-0.2,0.3-1.1,1.2-1.4,1.7c-0.1,0.1-0.1,0.1-0.2,0c-0.5-0.3-1.5-1-1.7-1.4c-0.1-0.1-0.1-0.1,0-0.2c0.3-0.5,0.9-1.2,1.3-1.6
		c0.2-0.2,0.2-0.2,0.3-0.1C473,8.7,473.8,9.3,474.5,9.8z"/>
	<path class="st0" d="M484.3,25.2c0.1-0.1,0.1,0,0.1,0.1c0,0.6-0.2,1.1-0.5,1.3l-4.1,2.3c-0.1,0-0.1,0-0.1-0.1c0-0.3,0.1-0.8,0.2-1
		c0.1-0.2,0.3-0.3,0.7-0.5L484.3,25.2z"/>
	<path class="st0" d="M476.4,23.2h-0.1c-0.7,0-1-0.4-1-1.2c0-0.7,0.4-1.1,1-1.1h0.1c1.2,0,2.2-0.5,2.9-1.4l1.3-2
		c0.7-1.1,1.7-1.5,2.2-1.5c1.7,0,2.4,2.9,2.4,4.1c0,1-1.1,2.4-1.6,2.4c-0.8,0-2.8-1-3.8-1.9C478.7,22.4,477.6,23.2,476.4,23.2z
		 M481.7,18c-0.2,0-0.3,0.1-0.5,0.3c-0.1,0.1-0.2,0.3-0.3,0.5c0.5,0.3,1.9,1,2.5,1.4C483.3,19.4,482.4,18,481.7,18z"/>
</g>
</svg>
