<?xml version="1.0" encoding="utf-8"?>
<!-- Generator: Adobe Illustrator 19.2.0, SVG Export Plug-In . SVG Version: 6.00 Build 0)  -->
<svg version="1.1" id="Layer_1" xmlns="http://www.w3.org/2000/svg" xmlns:xlink="http://www.w3.org/1999/xlink" x="0px" y="0px"
	 viewBox="0 0 379.6 35.9" style="enable-background:new 0 0 379.6 35.9;" xml:space="preserve">
<style type="text/css">
	.st0{fill:#FFFFFF;}
	.st1{fill:#F7931E;}
</style>
<g>
	<path class="st0" d="M15.8,32.8c0,0.1-0.1,0.2-0.3,0.2c-0.7,0-1.6-0.6-2.9-1.7c-0.9-0.8-1.7-1.7-2.4-2.5C8.9,27,7.8,25,7,22.8
		c-2.1,0-3.2-0.3-3.2-0.8c0.6-0.5,1.1-1,1.5-1.6c0.4-0.6,0.7-1.2,0.7-1.9c-0.5,0-1.1,0.3-1.8,0.9C4,19.5,3.5,20,2.6,20.8
		c-0.2,0-0.4-0.2-0.5-0.7c-0.1-0.4-0.3-1.1-0.3-1.9c-0.5-0.2-0.9-0.5-1.3-0.8C0.1,17.2,0,17,0,16.8c0-0.3,0.2-0.7,0.7-1.1
		c0.2-0.2,0.5-0.4,0.9-0.6c0-0.6,0.1-1.1,0.2-1.7c0.2-0.5,0.3-0.7,0.5-0.7c0.7,0.7,1.2,1.1,1.6,1.4c0.7,0.5,1.3,0.7,1.9,0.8
		c0-0.6-0.3-1.3-0.8-1.9c-0.5-0.5-1-1-1.5-1.6c0-0.3,0.5-0.5,1.5-0.7c0.7-0.1,1.3-0.2,1.8-0.3c1.5-4.2,3.5-7.3,6.2-9.4
		C14.1,0.4,14.7,0,15.1,0c0.2,0,0.3,0.1,0.3,0.3c0,0.1-0.4,0.6-1.1,1.4c-2.3,2.6-3.6,5.6-4.2,8.9c0.7,0.1,1.1,0.2,1.3,0.3
		c0.2,0.1,0.3,0.2,0.3,0.4c-0.6,0.5-1.1,1-1.5,1.5c-0.5,0.6-0.7,1.3-0.7,1.9c0.6,0,1.2-0.2,1.8-0.7c0.4-0.4,0.9-0.9,1.6-1.6
		c0.3,0,0.5,0.4,0.7,1.1c0.1,0.6,0.2,1.1,0.2,1.5c1.1,0.5,1.7,1,1.7,1.6c0,0.4-0.5,0.9-1.5,1.5c0,1-0.1,1.7-0.3,2.1
		c-0.1,0.2-0.3,0.4-0.6,0.4c-1.2-1.3-2.3-2.1-3.4-2.2c0,0.5,0.3,1.2,0.8,1.9c0.2,0.2,0.7,0.8,1.5,1.6c0,0.1-0.1,0.2-0.3,0.3
		c-0.2,0.1-0.7,0.2-1.4,0.4c0.3,1.7,1,3.4,2,5.2c1,1.8,2.2,3.2,3.5,4.3C15.8,32.4,15.8,32.6,15.8,32.8z M5.2,17.8
		c-0.3-0.1-0.7-0.3-1.2-0.5c-0.1-0.1-0.3-0.2-0.8-0.4c-0.4-0.2-0.7-0.3-0.7-0.4S3,16.3,4,16c0.2-0.1,0.5-0.2,1.1-0.4
		c-0.6-0.2-1.1-0.5-1.5-0.8c-0.2-0.2-0.6-0.5-1-1c-0.1,0-0.2,0.2-0.2,0.5c0,0.2,0,0.7-0.1,1.3c-0.9,0.5-1.4,0.9-1.5,1.1
		c0,0.1,0.1,0.3,0.4,0.4c0.3,0.2,0.6,0.3,1,0.4c0,0.2,0,0.6,0.1,1c0.1,0.6,0.2,0.9,0.3,1l1.1-1.1C4.3,18.2,4.7,18,5.2,17.8z M14,1.1
		c-2.8,1.9-5,5.3-6.6,10.1c-1.2,0-1.9,0-2.2,0.1c-0.3,0-0.4,0.1-0.4,0.3c0.8,0.7,1.4,1.4,1.8,2.2c0.2-0.4,0.4-0.8,0.6-1
		c0.1-0.4,0.3-0.7,0.6-1.1c0.1,0,0.1,0.2,0.2,0.4c0.1,0.3,0.1,0.5,0.1,0.5c0.1,0.1,0.3,0.5,0.7,1.1c0.2-0.5,0.4-1,0.8-1.3
		c0.2-0.2,0.5-0.6,1-1c0-0.1-0.1-0.2-0.4-0.3c-0.2,0-0.4-0.1-0.8-0.1c0.5-1.9,0.8-3.1,1-3.7C10.9,5.5,12.2,3.4,14,1.1z M14.7,32.1
		c-1.2-1.1-2.2-2.4-3.1-4c-1.1-1.8-1.8-3.8-2.1-6c0.8-0.1,1.2-0.2,1.2-0.3c-0.8-0.7-1.5-1.5-1.9-2.3c-0.1,0.3-0.3,0.6-0.5,1
		c-0.1,0.1-0.1,0.2-0.3,0.5c-0.1,0.3-0.2,0.5-0.3,0.5c-0.3,0-0.7-0.7-1.1-2c-0.3,0.6-0.6,1.1-0.9,1.4c-0.3,0.3-0.6,0.6-0.9,1
		C5,21.9,5.1,22,5.3,22c0.2,0,0.6,0.1,1,0.1c0.2,0,0.4,0,0.6,0c0.2,0,0.4,0,0.5,0C8.9,26.6,11.3,29.9,14.7,32.1z M9.7,16.7
		c0-0.6-0.2-1.1-0.6-1.4c-0.4-0.4-0.9-0.6-1.4-0.6c-0.6,0-1.1,0.2-1.4,0.6c-0.4,0.4-0.6,0.9-0.6,1.4c0,0.5,0.2,1,0.6,1.4
		c0.4,0.4,0.9,0.6,1.4,0.6c0.6,0,1.1-0.2,1.5-0.5C9.5,17.7,9.7,17.3,9.7,16.7z M14.5,16.5c0-0.2-0.5-0.5-1.5-0.9c0-0.6,0-1-0.1-1.4
		c-0.1-0.4-0.2-0.6-0.2-0.6c-0.1,0.1-0.5,0.5-1.1,1c-0.4,0.4-0.9,0.7-1.3,0.9c0.1,0.1,0.7,0.3,1.7,0.6c0.6,0.2,1,0.4,1,0.5
		c0,0.1-0.3,0.3-0.9,0.5c-0.5,0.2-1.1,0.3-1.7,0.5c0.5,0.2,1,0.4,1.5,0.8c0.2,0.2,0.6,0.5,1,1c0.2,0,0.3-0.6,0.3-1.8
		C14,17.2,14.5,16.8,14.5,16.5z"/>
	<path class="st0" d="M29.3,34.7c-0.1,0-0.2,0-0.1-0.1l0.6-1c0,0,0.1-0.1,0.1-0.1c0,0,0.1-0.1,0.1-0.1c0.2-0.1,0.5-0.2,0.9-0.3
		c0.4-0.1,0.8-0.3,1.3-0.4c0.5-0.1,1-0.3,1.5-0.5c0.5-0.2,1-0.3,1.5-0.5c0.1,0,0.1,0,0.1,0c0,0,0,0.1,0,0.1l-0.6,1.1
		c0,0-0.1,0.1-0.1,0.1c0,0-0.1,0-0.1,0c-0.9,0.3-1.7,0.5-2.5,0.8C31,34.1,30.2,34.4,29.3,34.7z M29.6,32.1c-0.1,0-0.2,0-0.1-0.1
		l0.6-1c0,0,0.1-0.1,0.1-0.1c0,0,0.1-0.1,0.1-0.1c0.2-0.1,0.5-0.2,0.9-0.3c0.4-0.1,0.8-0.3,1.3-0.4c0.5-0.1,1-0.3,1.5-0.5
		c0.5-0.2,1-0.3,1.5-0.5c0.1,0,0.1,0,0.1,0c0,0,0,0.1,0,0.1l-0.6,1.1c0,0-0.1,0.1-0.1,0.1c0,0-0.1,0-0.1,0c-0.9,0.3-1.7,0.6-2.5,0.8
		C31.3,31.6,30.4,31.9,29.6,32.1z"/>
	<path class="st0" d="M38.4,21.7c-0.1,0.9-0.5,1.6-1,2.3c-0.5,0.7-1.1,1.2-1.8,1.6c-0.7,0.4-1.5,0.8-2.3,1c-0.8,0.2-1.6,0.3-2.4,0.3
		c-0.7,0-1.4-0.1-2-0.3c-0.6-0.2-1.2-0.6-1.7-1s-0.8-1-1.1-1.6c-0.3-0.6-0.4-1.3-0.4-2.1c0-0.8,0.1-1.7,0.4-2.5
		c0.3-0.8,0.7-1.6,1.1-2.3c0.1-0.1,0.1-0.1,0.2-0.1s0.1,0,0.1,0.1s0,0.1,0.1,0.2c0,0.1,0,0.1,0,0.1c-0.4,0.9-0.7,1.7-0.8,2.6
		c-0.1,0.8,0,1.6,0.3,2.3c0.3,0.7,0.7,1.3,1.4,1.7c0.7,0.5,1.6,0.7,2.7,0.7c0.6,0,1.2-0.1,1.8-0.2c0.6-0.1,1.2-0.3,1.8-0.5
		c0.6-0.2,1.1-0.5,1.6-0.9c0.5-0.3,1-0.7,1.3-1.2c0-0.5-0.1-1.1-0.2-1.7c-0.1-0.6-0.3-1.2-0.5-1.8c-0.2-0.6-0.5-1.2-0.8-1.7
		c-0.3-0.5-0.6-1-0.8-1.5c0.1-0.3,0.2-0.6,0.3-1c0.1-0.3,0.2-0.6,0.3-1c0-0.1,0.1-0.1,0.1-0.1c0,0,0.1,0.1,0.1,0.1
		c0.4,0.6,0.8,1.2,1.1,1.9c0.3,0.7,0.6,1.3,0.8,2c0.2,0.7,0.3,1.4,0.4,2.2C38.5,20.3,38.5,21,38.4,21.7z M32.1,9.8l1.7,1.4
		c0,0,0.1,0.1,0.1,0.1c0,0,0,0.1,0,0.1l-1.1,1.4c-0.1,0.1-0.1,0.1-0.2,0l-1.7-1.4c-0.1-0.1-0.1-0.1,0-0.2l1.1-1.4
		C32,9.7,32.1,9.7,32.1,9.8z"/>
	<path class="st0" d="M47.9,23.2l-1.4,0c-0.4,0-0.7,0-1.1-0.1c-0.3-0.1-0.6-0.2-0.9-0.4c-0.3-0.2-0.4-0.4-0.6-0.7
		c-0.1-0.3-0.2-0.6-0.1-1c0-0.3,0.1-0.6,0.3-0.9c0.2-0.4,0.4-0.7,0.6-1.1c0.2-0.4,0.5-0.7,0.8-0.9s0.6-0.4,0.9-0.4
		c0.3,0,0.6,0.1,0.9,0.4c0.3,0.3,0.5,0.6,0.7,0.9c0.2,0.4,0.4,0.7,0.5,1.1s0.2,0.7,0.3,1l1.1,0h0.3c0.1,0,0.3,0,0.4,0.1
		c0.1,0.1,0.2,0.1,0.3,0.2c0.1,0.1,0.1,0.2,0.2,0.3c0,0.1,0.1,0.3,0.1,0.4c0,0.3-0.1,0.5-0.2,0.7c-0.1,0.2-0.4,0.3-0.7,0.3h-0.3
		l-1.1,0c-0.2,0.8-0.4,1.5-0.6,2.3c-0.2,0.7-0.5,1.4-0.8,2.1c-0.3,0.6-0.7,1.2-1.2,1.7c-0.5,0.5-1.1,0.8-1.8,1
		c-0.5,0.2-1,0.3-1.5,0.3c-0.6,0-1.1,0.1-1.7,0c-0.6,0-1.1-0.1-1.7-0.2c-0.6-0.1-1.1-0.2-1.5-0.3c-0.1,0-0.2-0.1-0.2-0.2
		c0-0.1,0-0.1,0-0.2c0-0.1,0.1-0.1,0.2-0.2s0.2-0.1,0.3-0.1c0.4,0,0.9,0.1,1.4,0c0.5,0,1-0.1,1.5-0.2c0.5-0.1,1-0.2,1.5-0.4
		c0.5-0.2,0.9-0.3,1.3-0.5c0.5-0.3,1-0.6,1.4-1c0.4-0.4,0.8-0.8,1.1-1.3c0.3-0.5,0.6-0.9,0.8-1.4C47.5,24.2,47.7,23.7,47.9,23.2z
		 M44.9,20.8c0.1,0.1,0.2,0.2,0.4,0.3c0.2,0.1,0.5,0.1,0.7,0.1c0.3,0,0.5,0,0.8,0c0.3,0,0.5,0,0.6,0c0,0,0-0.1-0.1-0.3
		c-0.1-0.1-0.2-0.3-0.4-0.5c-0.2-0.2-0.3-0.3-0.5-0.4c-0.2-0.1-0.4-0.2-0.6-0.2c-0.1,0-0.2,0-0.3,0.1c-0.1,0.1-0.2,0.2-0.3,0.3
		c-0.1,0.1-0.2,0.2-0.3,0.3C44.9,20.6,44.9,20.7,44.9,20.8z"/>
	<path class="st0" d="M50.7,9.5C51,9.4,51.3,9.2,51.6,9c0.3-0.2,0.6-0.4,0.8-0.6C52.7,8.3,53,8,53.3,7.8c0.3-0.2,0.5-0.5,0.8-0.8
		c-0.2-0.1-0.5-0.2-0.8-0.4c-0.3-0.2-0.5-0.4-0.7-0.6c-0.1-0.1-0.1-0.2-0.2-0.4c0-0.2,0-0.3,0-0.4c0.1-0.2,0.2-0.5,0.3-0.7
		c0.1-0.3,0.3-0.5,0.5-0.7c0.2-0.2,0.4-0.4,0.6-0.5c0.2-0.1,0.4-0.2,0.7-0.2c0.3,0,0.5,0.2,0.6,0.4c0.1,0.3,0.2,0.5,0.2,0.9
		c0,0.3,0,0.7,0,1c0,0.3-0.1,0.6-0.1,0.7c0,0,0,0.1,0,0.1c0.1,0.1,0.2,0.1,0.2,0.2c0,0.1,0.1,0.1,0.1,0.2c0.1,0.1,0.1,0.3,0,0.5
		c0,0.2-0.1,0.3-0.2,0.4c-0.1,0.1-0.1,0.1-0.2,0.1c-0.1,0-0.1,0-0.2-0.1c0-0.1-0.1-0.1-0.1-0.2S55,7.2,54.9,7.2
		c-0.3,0.3-0.5,0.6-0.8,0.9c-0.3,0.3-0.6,0.5-0.9,0.8c-0.3,0.2-0.7,0.4-1,0.6c-0.4,0.2-0.7,0.3-1.1,0.5c-0.2,0-0.3,0.1-0.5,0.1
		c-0.2,0-0.3,0-0.3,0c0-0.1,0-0.1,0.1-0.2C50.5,9.7,50.6,9.6,50.7,9.5z M53.3,4.9c0.2,0.3,0.4,0.5,0.7,0.6c0.3,0.2,0.5,0.3,0.7,0.3
		h0c0-0.1,0-0.2,0-0.3c0-0.1,0-0.2,0-0.4c0-0.1,0-0.3-0.1-0.4c0-0.1-0.1-0.2-0.2-0.3c-0.1-0.1-0.2-0.1-0.3-0.1c-0.1,0-0.3,0-0.4,0.1
		s-0.2,0.1-0.3,0.2C53.3,4.8,53.3,4.9,53.3,4.9z"/>
	<path class="st0" d="M49.9,23.2h-0.2c-0.3,0-0.5-0.1-0.6-0.3c-0.1-0.2-0.2-0.5-0.2-0.7c0-0.1,0-0.3,0-0.4c0-0.1,0.1-0.2,0.2-0.3
		c0.1-0.1,0.2-0.2,0.3-0.2c0.1-0.1,0.2-0.1,0.4-0.1h0.2c0.3,0,0.6,0,1,0c0.4,0,0.7-0.1,1-0.2c0.3-0.1,0.6-0.2,0.9-0.4
		c0.3-0.2,0.6-0.4,0.8-0.7c0.2-0.2,0.3-0.4,0.4-0.7c0.1-0.2,0.2-0.5,0.3-0.8c0-0.1,0.1-0.2,0.2-0.2c0.1,0,0.2,0,0.2,0.1
		c0,0.1,0,0.2,0,0.4c0,0.2,0,0.3,0,0.4c0,0.2,0.1,0.5,0.2,0.7c0.1,0.2,0.3,0.5,0.5,0.6c0.2,0.2,0.6,0.3,1,0.5
		c0.4,0.1,0.9,0.2,1.5,0.2h0.3c0.1,0,0.3,0,0.4,0.1c0.1,0.1,0.2,0.1,0.3,0.2c0.1,0.1,0.1,0.2,0.2,0.3c0,0.1,0,0.3,0,0.4
		c0,0.3-0.1,0.5-0.2,0.7c-0.1,0.2-0.3,0.3-0.6,0.3h-0.3c-0.5,0-1,0-1.4-0.1c-0.4-0.1-0.8-0.2-1.1-0.4c-0.6-0.4-1.1-0.9-1.4-1.6
		c-0.2,0.4-0.4,0.8-0.7,1c-0.3,0.3-0.6,0.5-0.9,0.7c-0.3,0.2-0.7,0.3-1.1,0.4C50.7,23.2,50.3,23.2,49.9,23.2z M53.5,12l1.7,1.4
		c0.1,0.1,0.1,0.1,0,0.2L54.1,15c-0.1,0.1-0.1,0.1-0.2,0l-1.7-1.4c-0.1-0.1-0.1-0.1,0-0.2l1.1-1.4C53.4,11.9,53.4,11.9,53.5,12z"/>
	<path class="st0" d="M65.4,6.8c0,0.3,0,0.6-0.1,0.9C65.2,8,65,8.2,64.9,8.4c-0.2,0.2-0.4,0.4-0.7,0.5c-0.3,0.1-0.6,0.2-1,0.2
		c-0.5,0-0.9-0.2-1.2-0.5c-0.3-0.3-0.5-0.7-0.5-1.2c0-0.3,0-0.6,0.1-0.9c0.1-0.4,0.2-0.7,0.4-1c0.2-0.3,0.4-0.6,0.6-0.9
		c0.3-0.3,0.6-0.4,0.9-0.4c0.3,0,0.6,0,0.9,0.2c0.2,0.2,0.4,0.4,0.5,0.7c0.1,0.3,0.2,0.6,0.3,0.9C65.3,6.3,65.4,6.5,65.4,6.8z
		 M62.2,7.1c0,0.2,0,0.3,0.1,0.4c0.1,0.1,0.2,0.2,0.3,0.2c0.1,0,0.2,0.1,0.4,0.1c0.1,0,0.3,0,0.4,0c0.3,0,0.5-0.1,0.7-0.2
		c0.2-0.1,0.4-0.3,0.6-0.4c0-0.2,0-0.3-0.1-0.5c-0.1-0.2-0.1-0.3-0.3-0.5c-0.1-0.1-0.3-0.3-0.4-0.3c-0.2-0.1-0.4-0.1-0.6-0.1
		c-0.1,0-0.3,0.1-0.4,0.2c-0.1,0.1-0.3,0.2-0.4,0.3c-0.1,0.1-0.2,0.3-0.3,0.4C62.2,6.8,62.2,7,62.2,7.1z"/>
	<path class="st0" d="M66.3,18.3c-0.7-0.2-1.5-0.4-2.3-0.6c-0.8-0.2-1.5-0.3-2.2-0.3c-0.5,0-1,0.1-1.5,0.2s-0.9,0.4-1.3,0.8
		c-0.1,0.1-0.1,0.1-0.2,0.1c-0.1,0-0.1-0.1-0.1-0.2c0.1-0.4,0.2-0.9,0.4-1.3c0.2-0.4,0.4-0.7,0.7-1c0.3-0.3,0.6-0.5,1-0.7
		c0.4-0.2,0.8-0.2,1.3-0.2c0.5,0,1,0.1,1.5,0.2c0.5,0.1,1,0.3,1.5,0.4c0.5,0.1,1,0.3,1.5,0.5c0.5,0.2,1,0.3,1.5,0.4
		c0.8,0.2,1.7,0.3,2.5,0.4c0.8,0.1,1.7,0.1,2.6,0c0.1,0,0.2,0.1,0.1,0.2L72.5,19c-0.2,0-0.5-0.1-0.7-0.1c-0.2,0-0.5-0.1-0.7-0.1
		c-0.1,0.3,0,0.6,0,0.9c0.1,0.3,0.3,0.6,0.6,0.8c0.2,0.2,0.5,0.3,0.7,0.3C72.7,21,73,21,73.3,21c0.3,0,0.6,0,0.9,0
		c0.3,0,0.6,0,0.8,0h0.2c0.3,0,0.5,0.1,0.6,0.3c0.1,0.2,0.2,0.5,0.2,0.7c0,0.3-0.1,0.5-0.2,0.7c-0.1,0.2-0.3,0.3-0.6,0.3
		c0,0-0.1,0-0.1,0s-0.1,0-0.1,0c-0.4,0-0.8,0-1.2,0c-0.4,0-0.8-0.1-1.2-0.1c-0.4-0.1-0.7-0.2-1.1-0.4c-0.3-0.2-0.6-0.4-0.8-0.7
		c-0.3-0.4-0.5-0.9-0.5-1.5c0-0.6-0.1-1.1,0-1.6c-0.5,0-1,0.1-1.5,0.2c-0.5,0.2-1,0.4-1.5,0.6c-0.8,0.4-1.6,0.9-2.4,1.3
		c-0.8,0.5-1.6,0.9-2.4,1.2c-0.7,0.3-1.4,0.5-2.1,0.7c-0.7,0.2-1.5,0.2-2.3,0.2h-0.2c-0.3,0-0.5-0.1-0.7-0.3
		c-0.1-0.2-0.2-0.5-0.2-0.7c0-0.3,0.1-0.5,0.2-0.7c0.1-0.2,0.4-0.3,0.7-0.3c0,0,0.1,0,0.1,0c0,0,0.1,0,0.1,0c0.6,0,1.2-0.1,1.9-0.2
		c0.7-0.1,1.3-0.3,1.9-0.5c0.8-0.3,1.6-0.6,2.3-0.9C64.8,19.1,65.5,18.7,66.3,18.3z M64.8,24.9l1.7,1.4c0.1,0.1,0.1,0.1,0,0.2
		l-1.1,1.4c-0.1,0.1-0.1,0.1-0.2,0l-1.7-1.4c-0.1-0.1-0.1-0.1,0-0.2l1.1-1.4C64.7,24.8,64.8,24.8,64.8,24.9z"/>
	<path class="st0" d="M82.1,9.2c-0.5,0.2-0.9,0.4-1.4,0.7c-0.5,0.2-1,0.4-1.4,0.7c-0.5,0.2-0.9,0.4-1.3,0.6c-0.4,0.2-0.7,0.3-1,0.5
		c-0.1,0-0.1,0-0.1,0c0,0,0-0.1,0-0.1l0.7-1.3c0-0.1,0.1-0.1,0.1-0.2c0,0,0.1-0.1,0.1-0.1l5-2.2c0.1-0.1,0.2,0,0.1,0.1L82.3,9
		C82.2,9.1,82.2,9.2,82.1,9.2z"/>
	<path class="st0" d="M83.2,22.6c-0.1,0.2-0.2,0.4-0.3,0.6c-0.1,0.2-0.2,0.3-0.3,0.4c-0.3,0.1-0.7,0-1.2-0.1
		c-0.5-0.1-0.9-0.2-1.4-0.4c-0.5-0.2-0.9-0.4-1.2-0.7c-0.4-0.3-0.5-0.5-0.6-0.8c-0.2,0.3-0.5,0.6-0.8,0.8c-0.3,0.2-0.6,0.4-0.8,0.5
		c-0.3,0.1-0.6,0.2-0.9,0.2c-0.3,0-0.5,0.1-0.8,0.1h-0.2c-0.3,0-0.5-0.1-0.7-0.3c-0.1-0.2-0.2-0.5-0.2-0.7c0-0.3,0.1-0.5,0.2-0.7
		c0.1-0.2,0.4-0.3,0.7-0.3H75c0.3,0,0.7,0,1,0c0.3,0,0.7-0.1,1-0.2c0.3-0.1,0.6-0.2,0.9-0.4c0.3-0.2,0.6-0.5,0.8-0.8
		c0.1-0.2,0.3-0.4,0.5-0.6c0.2-0.2,0.3-0.4,0.5-0.5c0.2-0.2,0.4-0.3,0.5-0.4c0.2-0.1,0.4-0.1,0.5-0.1c0.2,0,0.3,0.1,0.5,0.2
		c0.2,0.2,0.4,0.3,0.6,0.5c0.2,0.2,0.4,0.4,0.6,0.6c0.2,0.2,0.3,0.4,0.5,0.5c0.2,0.2,0.5,0.4,0.7,0.6c0.2,0.1,0.5,0.3,0.8,0.4
		c0.3,0.1,0.5,0.2,0.8,0.2c0.3,0,0.6,0.1,0.9,0.1h0.2c0.3,0,0.5,0.1,0.6,0.3c0.1,0.2,0.2,0.5,0.2,0.7c0,0.3-0.1,0.5-0.2,0.7
		c-0.1,0.2-0.4,0.3-0.6,0.3h-0.2c-0.3,0-0.5,0-0.8,0c-0.3,0-0.5,0-0.8-0.1c-0.3,0-0.5-0.1-0.7-0.2C83.6,22.9,83.4,22.7,83.2,22.6z
		 M81.8,21.3C81.9,21.3,81.9,21.3,81.8,21.3c0.1,0,0.1-0.1,0.1-0.1c-0.2-0.2-0.3-0.4-0.4-0.5c-0.1-0.2-0.2-0.4-0.3-0.5
		c-0.1-0.2-0.2-0.3-0.2-0.4c-0.1-0.1-0.1-0.2-0.1-0.3c-0.1-0.2-0.2-0.2-0.4-0.2c-0.2,0-0.4,0.1-0.6,0.3c-0.2,0.2-0.4,0.3-0.6,0.5
		c-0.1,0.1-0.1,0.1-0.1,0.1s0,0.1,0.1,0.1c0.1,0.1,0.3,0.2,0.5,0.3c0.2,0.1,0.4,0.2,0.7,0.3c0.2,0.1,0.5,0.2,0.7,0.2
		C81.4,21.3,81.6,21.3,81.8,21.3z"/>
	<path class="st1" d="M91.2,31.6c-0.9,0.3-1.8,0.6-2.6,0.9c-0.9,0.3-1.7,0.6-2.5,0.8c-0.1,0-0.2,0-0.1-0.1l0.6-1
		c0-0.1,0.1-0.1,0.1-0.1c0,0,0.1,0,0.1-0.1c0.2-0.1,0.6-0.2,1-0.3c0.4-0.1,0.8-0.3,1.3-0.4c0.5-0.2,1-0.3,1.4-0.5
		c0.5-0.2,1-0.3,1.4-0.4c0.1,0,0.1,0,0.1,0c0,0,0,0.1,0,0.1l-0.6,1.1C91.4,31.5,91.3,31.5,91.2,31.6C91.3,31.6,91.3,31.6,91.2,31.6z
		"/>
	<path class="st1" d="M89.8,15.8c0.3,0.3,0.5,0.5,0.7,0.8c0.2,0.3,0.4,0.6,0.6,0.9c0.2,0.3,0.3,0.7,0.4,1c0.1,0.3,0.1,0.7,0.1,1.1
		c0,0.2,0,0.3,0,0.5c0,0.2,0,0.4-0.1,0.6c0,0.2-0.1,0.4-0.1,0.6s-0.1,0.3-0.2,0.5c-0.2,0.3-0.5,0.6-0.9,0.8
		c-0.4,0.2-0.8,0.4-1.3,0.5c-0.5,0.1-0.9,0.2-1.4,0.2c-0.5,0-0.9,0-1.3,0h-0.2c-0.3,0-0.5-0.1-0.6-0.3c-0.1-0.2-0.2-0.5-0.2-0.7
		c0-0.3,0.1-0.5,0.2-0.7c0.1-0.2,0.4-0.3,0.6-0.3h0.2c0.4,0,0.9,0,1.3,0c0.4,0,0.8,0,1.2-0.1c0.4,0,0.7-0.1,1.1-0.2
		c0.3-0.1,0.6-0.2,0.7-0.3c0.1-0.1,0.2-0.1,0.2-0.2c0-0.1,0-0.2-0.1-0.3c-0.1-0.2-0.2-0.5-0.3-0.7c-0.1-0.2-0.2-0.4-0.4-0.6
		c-0.1-0.2-0.3-0.4-0.5-0.5c-0.2-0.2-0.3-0.3-0.5-0.5l0.5-1.9c0-0.1,0.1-0.2,0.1-0.2C89.6,15.6,89.7,15.7,89.8,15.8z M88.3,25.9
		l1.7,1.4c0.1,0.1,0.1,0.1,0,0.2l-1.1,1.4c-0.1,0.1-0.1,0.1-0.2,0L87,27.6c-0.1-0.1-0.1-0.1,0-0.2l1.1-1.4
		C88.2,25.9,88.3,25.8,88.3,25.9z"/>
	<path class="st1" d="M105.3,18.5c0.2,0,0.3,0,0.5,0.2c0.1,0.1,0.3,0.2,0.5,0.4c0.2,0.2,0.3,0.3,0.5,0.5c0.2,0.2,0.3,0.4,0.5,0.5
		c0.3,0.2,0.5,0.4,0.8,0.5c0.3,0.1,0.6,0.2,0.9,0.3c0.3,0.1,0.7,0.1,1,0.1c0.3,0,0.7,0,1,0h0.2c0.3,0,0.5,0.1,0.6,0.3
		c0.1,0.2,0.2,0.5,0.2,0.7c0,0.3-0.1,0.5-0.2,0.7c-0.1,0.2-0.4,0.3-0.6,0.3H111c-0.2,0-0.4,0-0.7,0c-0.2,0-0.5,0-0.8,0
		c-0.3,0-0.6,0-0.9-0.1s-0.6-0.1-1-0.2c0,0.2-0.1,0.5-0.1,0.7c0,0.2-0.1,0.3-0.2,0.3c-0.3,0.1-0.8,0.1-1.3,0c-0.5-0.1-1-0.2-1.5-0.3
		c-0.5-0.2-0.9-0.4-1.3-0.6c-0.4-0.2-0.6-0.5-0.8-0.7c-0.2,0.1-0.4,0.2-0.6,0.3c-0.2,0.1-0.4,0.3-0.6,0.5c-0.2,0.2-0.3,0.4-0.4,0.6
		c-0.1,0.2-0.2,0.4-0.2,0.6c0,0.3,0,0.8,0.1,1.4c0.1,0.6,0.2,1.1,0.3,1.8c0.1,0.6,0.2,1.2,0.3,1.8c0.1,0.6,0.2,1.1,0.3,1.6
		c0.1,0.4,0.1,0.8,0.2,1.3c0.1,0.5,0.1,0.9,0.1,1.4c0,0.5,0,0.9,0,1.3c0,0.4-0.1,0.7-0.1,1c0,0.1-0.1,0.2-0.2,0.2
		c-0.1,0-0.1-0.1-0.2-0.2c-0.1-0.2-0.1-0.4-0.1-0.5c0-0.2,0-0.4-0.1-0.5c0-0.2-0.1-0.5-0.2-1c-0.1-0.5-0.2-1.2-0.3-2.1
		c-0.1-0.8-0.2-1.6-0.4-2.3c-0.1-0.7-0.2-1.3-0.3-1.9c-0.1-0.5-0.2-1-0.2-1.4c-0.1-0.4-0.1-0.8-0.1-1.1c0-0.8,0-1.5,0.3-2.1
		c0.2-0.6,0.6-1.1,1-1.5c0.2-0.2,0.4-0.4,0.8-0.7c0.4-0.3,0.7-0.6,1.1-0.9c0.4-0.3,0.8-0.5,1.2-0.8
		C104.7,18.6,105.1,18.5,105.3,18.5z M105,20c-0.2,0-0.5,0-0.8,0.2c-0.3,0.1-0.5,0.3-0.7,0.4c-0.1,0.1-0.1,0.2,0,0.2
		c0.2,0.1,0.4,0.3,0.7,0.4c0.3,0.1,0.6,0.2,0.9,0.3c0.3,0.1,0.6,0.2,0.8,0.2c0.3,0,0.4,0,0.6,0c-0.1-0.2-0.2-0.4-0.4-0.6
		c-0.2-0.2-0.3-0.4-0.5-0.5s-0.3-0.3-0.4-0.4C105.1,20,105,20,105,20z"/>
	<path class="st0" d="M114.6,8.5c0.3-0.2,0.6-0.3,0.9-0.5c0.3-0.2,0.6-0.4,0.8-0.6c0.3-0.2,0.6-0.4,0.8-0.7s0.5-0.5,0.8-0.8
		c-0.2-0.1-0.5-0.2-0.8-0.4c-0.3-0.2-0.5-0.4-0.7-0.6c-0.1-0.1-0.1-0.2-0.2-0.4c0-0.2,0-0.3,0-0.4c0.1-0.2,0.2-0.5,0.3-0.7
		c0.1-0.3,0.3-0.5,0.5-0.7c0.2-0.2,0.4-0.4,0.6-0.5c0.2-0.1,0.4-0.2,0.7-0.2c0.3,0,0.5,0.2,0.6,0.4c0.1,0.3,0.2,0.5,0.2,0.9
		c0,0.3,0,0.7,0,1c0,0.3-0.1,0.6-0.1,0.7c0,0,0,0.1,0,0.1c0.1,0.1,0.2,0.1,0.2,0.2c0,0.1,0.1,0.1,0.1,0.2c0.1,0.1,0.1,0.3,0,0.5
		c0,0.2-0.1,0.3-0.2,0.4c-0.1,0.1-0.1,0.1-0.2,0.1c-0.1,0-0.1,0-0.2-0.1c0-0.1-0.1-0.1-0.1-0.2c0,0-0.1-0.1-0.2-0.1
		c-0.3,0.3-0.5,0.6-0.8,0.9c-0.3,0.3-0.6,0.5-0.9,0.8c-0.3,0.2-0.7,0.4-1,0.6c-0.4,0.2-0.7,0.3-1.1,0.5c-0.2,0-0.3,0.1-0.5,0.1
		c-0.2,0-0.3,0-0.3,0c0-0.1,0-0.1,0.1-0.2C114.3,8.7,114.4,8.6,114.6,8.5z M117.1,3.9c0.2,0.3,0.4,0.5,0.7,0.6
		c0.3,0.2,0.5,0.3,0.7,0.3h0c0-0.1,0-0.2,0-0.3c0-0.1,0-0.2,0-0.4c0-0.1,0-0.3-0.1-0.4c0-0.1-0.1-0.2-0.2-0.3
		c-0.1-0.1-0.2-0.1-0.3-0.1c-0.1,0-0.3,0-0.4,0.1c-0.1,0-0.2,0.1-0.3,0.2C117.2,3.8,117.2,3.8,117.1,3.9z"/>
	<path class="st0" d="M111,21.1c0.9,0,2,0,3.1,0s2.4,0,3.8-0.1c1.3,0,2.8-0.1,4.2-0.2c1.5-0.1,3-0.2,4.5-0.3
		c1.5-0.1,3.1-0.3,4.7-0.4c1.6-0.2,3.2-0.4,4.7-0.6c0-0.3-0.1-0.6-0.2-0.9c-0.1-0.3-0.3-0.5-0.5-0.6c-0.2-0.2-0.5-0.3-0.7-0.4
		c-0.3-0.1-0.6-0.1-0.9-0.1c-0.8,0-1.6,0.1-2.5,0.2s-1.9,0.2-2.9,0.3c-1,0.1-2.1,0.2-3.2,0.3c-1.1,0.1-2.2,0.2-3.2,0.2
		c-1.1,0.1-2.1,0.1-3.2,0.1c-1,0-2,0-2.9-0.1c-0.1,0-0.3,0-0.5,0c-0.2,0-0.5-0.1-0.8-0.1c-0.3,0-0.6-0.1-0.9-0.1
		c-0.3-0.1-0.6-0.1-0.8-0.2c-0.3-0.1-0.5-0.2-0.6-0.3c-0.2-0.1-0.2-0.2-0.2-0.4c0-0.3,0-0.7,0.2-1.1c0.1-0.4,0.3-0.8,0.5-1.1
		c0.2-0.4,0.4-0.7,0.7-1c0.3-0.3,0.5-0.6,0.7-0.8c1.9-1.6,4.1-2.7,6.5-3.4c0.1,0,0.2,0,0.2,0c0.1,0,0.1,0,0.1,0.1c0,0,0,0.1,0,0.2
		c0,0.1,0,0.1,0,0.2c-0.1,0.2-0.2,0.5-0.3,0.8c-0.1,0.3-0.3,0.5-0.4,0.8c-0.2,0-0.4,0.1-0.7,0.2c-0.3,0.1-0.6,0.2-1,0.3
		c-0.4,0.1-0.8,0.3-1.2,0.5c-0.4,0.2-0.9,0.4-1.3,0.6c-0.3,0.2-0.7,0.3-1,0.5c-0.3,0.2-0.6,0.4-0.8,0.6c-0.2,0.2-0.4,0.4-0.6,0.6
		s-0.2,0.4-0.2,0.5c0.1,0.2,0.2,0.3,0.5,0.4c0.3,0.1,0.5,0.2,0.8,0.3c0.3,0.1,0.6,0.1,0.9,0.2c0.3,0,0.5,0.1,0.7,0.1
		c0.7,0.1,1.4,0.1,2.2,0.1c0.8,0,1.6,0,2.5,0c0.9,0,1.7-0.1,2.6-0.1c0.9,0,1.7-0.1,2.5-0.2c0.8-0.1,1.6-0.1,2.3-0.2
		c0.7-0.1,1.4-0.1,1.9-0.2c0.5,0,1-0.1,1.5-0.1c0.5,0,1-0.1,1.5-0.1c0.5,0,1,0,1.4,0.1c0.5,0.1,0.9,0.2,1.2,0.4
		c0.4,0.2,0.6,0.4,0.9,0.8c0.2,0.3,0.4,0.7,0.4,1.2c0,0.2,0,0.5,0,0.8c0,0.3-0.1,0.5-0.2,0.8c-0.1,0.3-0.2,0.5-0.3,0.7
		c-0.1,0.2-0.2,0.4-0.3,0.6c0,0.1,0.1,0.1,0.2,0.2c0.1,0,0.2,0,0.4,0.1c0.2,0,0.3,0,0.6,0c0.2,0,0.5,0,0.8,0h0.3
		c0.3,0,0.5,0.1,0.6,0.3c0.1,0.2,0.2,0.5,0.2,0.7c0,0.3-0.1,0.5-0.2,0.7c-0.1,0.2-0.3,0.3-0.6,0.3h-0.3c-0.5,0-1,0-1.3-0.1
		c-0.3,0-0.6-0.1-0.8-0.3c-0.2-0.1-0.3-0.3-0.4-0.5c-0.1-0.2-0.1-0.5-0.1-0.9c-1.5,0.2-3,0.5-4.6,0.6c-1.6,0.2-3.2,0.3-4.8,0.5
		c-1.6,0.1-3.2,0.2-4.7,0.3c-1.5,0.1-3,0.2-4.3,0.2c-1.3,0-2.6,0.1-3.7,0.1c-1.1,0-2,0-2.7,0h-0.2c-0.3,0-0.5-0.1-0.6-0.3
		c-0.1-0.2-0.2-0.5-0.2-0.7c0-0.3,0.1-0.5,0.2-0.7c0.1-0.2,0.4-0.3,0.6-0.3H111z"/>
	<path class="st0" d="M139.3,10.6c0.3-0.2,0.6-0.3,0.9-0.5c0.3-0.2,0.6-0.4,0.8-0.6c0.3-0.2,0.6-0.4,0.8-0.7
		c0.3-0.2,0.5-0.5,0.8-0.8c-0.2-0.1-0.5-0.2-0.8-0.4c-0.3-0.2-0.5-0.4-0.7-0.6c-0.1-0.1-0.1-0.2-0.2-0.4c0-0.2,0-0.3,0-0.4
		c0.1-0.2,0.2-0.5,0.3-0.7c0.1-0.3,0.3-0.5,0.5-0.7c0.2-0.2,0.4-0.4,0.6-0.5c0.2-0.1,0.4-0.2,0.7-0.2c0.3,0,0.5,0.2,0.6,0.4
		c0.1,0.3,0.2,0.5,0.2,0.9c0,0.3,0,0.7,0,1c0,0.3-0.1,0.6-0.1,0.7c0,0,0,0.1,0,0.1c0.1,0.1,0.2,0.1,0.2,0.2s0.1,0.1,0.1,0.2
		c0.1,0.1,0.1,0.3,0,0.5c0,0.2-0.1,0.3-0.2,0.4c-0.1,0.1-0.1,0.1-0.2,0.1c-0.1,0-0.1,0-0.2-0.1c0-0.1-0.1-0.1-0.1-0.2
		c0,0-0.1-0.1-0.2-0.1c-0.3,0.3-0.5,0.6-0.8,0.9s-0.6,0.5-0.9,0.8c-0.3,0.2-0.7,0.4-1,0.6c-0.4,0.2-0.7,0.3-1.1,0.5
		c-0.2,0-0.3,0.1-0.5,0.1c-0.2,0-0.3,0-0.3,0c0-0.1,0-0.1,0.1-0.2C139.1,10.7,139.2,10.6,139.3,10.6z M141.9,6
		c0.2,0.3,0.4,0.5,0.7,0.6c0.3,0.2,0.5,0.3,0.7,0.3h0c0-0.1,0-0.2,0-0.3c0-0.1,0-0.2,0-0.4c0-0.1,0-0.3-0.1-0.4
		c0-0.1-0.1-0.2-0.2-0.3c-0.1-0.1-0.2-0.1-0.3-0.1c-0.1,0-0.3,0-0.4,0.1c-0.1,0-0.2,0.1-0.3,0.2C142,5.8,141.9,5.9,141.9,6z"/>
	<path class="st0" d="M138.5,23.2h-0.2c-0.3,0-0.5-0.1-0.6-0.3c-0.1-0.2-0.2-0.5-0.2-0.7c0-0.1,0-0.3,0-0.4c0-0.1,0.1-0.2,0.2-0.3
		c0.1-0.1,0.2-0.2,0.3-0.2c0.1-0.1,0.2-0.1,0.4-0.1h0.2c0.3,0,0.6,0,1,0c0.4,0,0.7-0.1,1-0.2c0.3-0.1,0.6-0.2,0.9-0.4
		c0.3-0.2,0.6-0.4,0.8-0.7c0.2-0.2,0.3-0.4,0.4-0.7c0.1-0.2,0.2-0.5,0.3-0.8c0-0.1,0.1-0.2,0.2-0.2c0.1,0,0.2,0,0.2,0.1
		c0,0.1,0,0.2,0,0.4c0,0.2,0,0.3,0,0.4c0,0.2,0.1,0.5,0.2,0.7c0.1,0.2,0.3,0.5,0.5,0.6c0.2,0.2,0.6,0.3,1,0.5
		c0.4,0.1,0.9,0.2,1.5,0.2h0.3c0.1,0,0.3,0,0.4,0.1c0.1,0.1,0.2,0.1,0.3,0.2c0.1,0.1,0.1,0.2,0.2,0.3c0,0.1,0,0.3,0,0.4
		c0,0.3-0.1,0.5-0.2,0.7c-0.1,0.2-0.3,0.3-0.6,0.3h-0.3c-0.5,0-1,0-1.4-0.1c-0.4-0.1-0.8-0.2-1.1-0.4c-0.6-0.4-1.1-0.9-1.4-1.6
		c-0.2,0.4-0.4,0.8-0.7,1c-0.3,0.3-0.6,0.5-0.9,0.7c-0.3,0.2-0.7,0.3-1.1,0.4C139.4,23.2,138.9,23.2,138.5,23.2z M142.3,25.1
		l1.7,1.4c0.1,0.1,0.1,0.1,0,0.2l-1.1,1.4c-0.1,0.1-0.1,0.1-0.2,0l-1.7-1.4c-0.1-0.1-0.1-0.1,0-0.2l1.1-1.4
		C142.1,25.1,142.2,25.1,142.3,25.1z"/>
	<path class="st0" d="M154.8,27.5c-0.9,0.3-1.8,0.6-2.6,0.9c-0.9,0.3-1.7,0.6-2.5,0.8c-0.1,0-0.2,0-0.1-0.1l0.6-1
		c0-0.1,0.1-0.1,0.1-0.1c0,0,0.1,0,0.1-0.1c0.2-0.1,0.6-0.2,1-0.3c0.4-0.1,0.8-0.3,1.3-0.4c0.5-0.2,1-0.3,1.4-0.5
		c0.5-0.2,1-0.3,1.4-0.4c0.1,0,0.1,0,0.1,0c0,0,0,0.1,0,0.1l-0.6,1.1C154.9,27.4,154.9,27.4,154.8,27.5
		C154.9,27.5,154.8,27.5,154.8,27.5z"/>
	<path class="st0" d="M154.5,19.5c-0.3-0.1-0.6-0.3-1-0.5c-0.4-0.2-0.8-0.3-1.2-0.5c-0.4-0.1-0.8-0.3-1.2-0.4
		c-0.4-0.1-0.7-0.2-1-0.2c-0.5-0.1-0.9,0-1.4,0.1c-0.5,0.1-0.9,0.3-1.3,0.6c-0.1,0-0.1,0-0.2,0c-0.1,0-0.1-0.1-0.1-0.2
		c0-0.2,0.1-0.5,0.2-0.7c0.1-0.2,0.2-0.5,0.4-0.7c0.3-0.4,0.8-0.8,1.3-1.1c0.5-0.3,1.1-0.3,1.6-0.2c0.5,0.1,0.9,0.2,1.4,0.4
		c0.5,0.2,1,0.4,1.5,0.6c0.5,0.2,1,0.5,1.5,0.7c0.5,0.2,1,0.4,1.6,0.6c0.8,0.3,1.6,0.4,2.5,0.6c0.9,0.1,1.7,0.2,2.5,0.1
		c0.1,0,0.2,0.1,0.1,0.2l-1.1,1.9c-0.6-0.2-1.2-0.3-1.7-0.3c-0.5-0.1-1.1-0.1-1.6,0c-0.5,0-1,0.1-1.5,0.3c-0.5,0.1-1,0.3-1.5,0.5
		c-0.5,0.2-1,0.4-1.5,0.6c-0.5,0.2-1,0.4-1.5,0.5c-0.8,0.2-1.6,0.4-2.4,0.5c-0.8,0.1-1.7,0.2-2.5,0.2c0,0-0.1,0-0.1,0s-0.1,0-0.1,0
		c-0.3,0-0.5-0.1-0.6-0.3c-0.1-0.2-0.2-0.5-0.2-0.7c0-0.3,0.1-0.5,0.2-0.7c0.1-0.2,0.4-0.3,0.6-0.3c0,0,0.1,0,0.1,0s0.1,0,0.1,0
		c0.7,0,1.4,0,2-0.1c0.7-0.1,1.4-0.2,2.1-0.3c0.7-0.1,1.4-0.3,2-0.5C153.3,20,153.9,19.7,154.5,19.5z"/>
	<path class="st0" d="M169.7,21.1c0.3,0,0.5,0.1,0.6,0.3c0.1,0.2,0.2,0.5,0.2,0.7c0,0.3-0.1,0.5-0.2,0.7c-0.1,0.2-0.3,0.3-0.6,0.3
		c0,0-0.1,0-0.1,0c0,0-0.1,0-0.1,0c-0.8,0-1.5-0.2-2-0.5c-0.5-0.3-0.9-0.7-1.3-1.2c-0.4-0.6-0.6-1.3-0.7-1.9
		c-0.1-0.7-0.2-1.4-0.3-2.1c-0.1-0.8-0.2-1.6-0.3-2.4c-0.1-0.8-0.2-1.6-0.3-2.4c-0.1-0.8-0.2-1.6-0.3-2.5c-0.1-0.8-0.3-1.7-0.6-2.7
		c0-0.1,0-0.1,0-0.2c0,0,0-0.1,0-0.1l0.7-1.8c0-0.1,0.1-0.1,0.1-0.1c0,0,0.1,0,0.1,0.1c0.1,0.5,0.2,1,0.3,1.6s0.2,1.1,0.3,1.7
		c0.1,0.6,0.2,1.3,0.3,2s0.2,1.5,0.3,2.5c0.1,0.6,0.1,1.3,0.2,1.9c0.1,0.6,0.1,1.2,0.2,1.9c0.1,0.5,0.1,1,0.2,1.5
		c0.1,0.5,0.2,1,0.5,1.4c0.2,0.4,0.5,0.7,0.9,0.8s1,0.3,1.7,0.3C169.5,21.1,169.6,21.1,169.7,21.1C169.6,21.1,169.7,21.1,169.7,21.1
		z"/>
	<path class="st0" d="M181.3,7.8c-0.5,0.2-0.9,0.4-1.4,0.7c-0.5,0.2-1,0.4-1.4,0.7c-0.5,0.2-0.9,0.4-1.3,0.6c-0.4,0.2-0.7,0.3-1,0.5
		c-0.1,0-0.1,0-0.1,0c0,0,0-0.1,0-0.1l0.7-1.3c0-0.1,0.1-0.1,0.1-0.2c0,0,0.1-0.1,0.1-0.1l5-2.2c0.1-0.1,0.2,0,0.1,0.1l-0.6,1.3
		C181.5,7.7,181.5,7.8,181.3,7.8z"/>
	<path class="st0" d="M176.7,20.9c0.4-0.5,0.9-1.1,1.5-1.7c0.5-0.6,1.1-1.1,1.6-1.6c0.6-0.5,1.1-1,1.7-1.4s1.1-0.8,1.6-1
		c0.4-0.2,0.9-0.3,1.5-0.3c0.6,0,1.2,0.2,1.7,0.4c0.6,0.2,1,0.5,1.4,0.9c0.4,0.4,0.6,0.8,0.6,1.3c0,0.8-0.2,1.6-0.6,2.2
		c-0.4,0.6-0.8,1.2-1.4,1.6c-0.6,0.4-1.3,0.8-2,1.1c-0.8,0.3-1.5,0.5-2.3,0.6c-1,0.2-2,0.2-3.1,0.2c-1,0-1.9-0.1-2.7-0.3
		c-0.1,0.1-0.2,0.3-0.2,0.5c-0.1,0.2-0.2,0.4-0.2,0.5c-0.1,0.2-0.2,0.3-0.4,0.3c-0.1,0-0.1-0.1-0.2-0.2c0-0.1,0-0.2,0-0.3
		c0-0.2,0.1-0.3,0.1-0.5c0-0.2,0.1-0.3,0.2-0.5c-0.5-0.2-0.9-0.4-1.2-0.6c-0.3-0.2-0.6-0.5-1-1c-0.2,0.3-0.5,0.6-0.7,0.9
		c-0.3,0.2-0.5,0.5-0.9,0.6c-0.6,0.3-1.4,0.5-2.3,0.5h-0.2c-0.3,0-0.5-0.1-0.6-0.3c-0.1-0.2-0.2-0.5-0.2-0.7c0-0.3,0.1-0.5,0.2-0.7
		c0.1-0.2,0.4-0.3,0.6-0.3h0.2c0.5,0,0.9,0,1.3-0.1c0.4,0,0.8-0.2,1.2-0.4c0.4-0.2,0.7-0.6,1-1c0.2-0.4,0.5-0.8,0.7-1.2
		c0.1-0.1,0.1-0.2,0.3-0.3c0.1,0,0.2,0,0.2,0.1c0,0.4,0.1,0.7,0.3,1c0.2,0.3,0.4,0.6,0.7,0.8c0.3,0.2,0.5,0.4,0.9,0.6
		S176.5,20.9,176.7,20.9z M187.2,18.7c-0.2-0.4-0.5-0.7-0.9-1c-0.4-0.3-0.8-0.5-1.2-0.6c-0.4-0.1-0.8-0.2-1.3-0.2
		c-0.4,0-0.8,0-1.1,0.2c-0.4,0.2-0.9,0.4-1.3,0.7c-0.4,0.3-0.9,0.6-1.3,1c-0.4,0.4-0.8,0.7-1.2,1.1c-0.4,0.4-0.7,0.8-1.1,1.2
		c0.6,0.1,1.3,0.1,2.2,0.1s1.8-0.2,2.7-0.3c0.9-0.2,1.7-0.5,2.5-0.8C186.1,19.6,186.7,19.2,187.2,18.7z"/>
	<path class="st0" d="M202.4,21.1c0.3,0,0.5,0.1,0.6,0.3c0.1,0.2,0.2,0.5,0.2,0.7c0,0.3-0.1,0.5-0.2,0.7c-0.1,0.2-0.3,0.3-0.6,0.3
		c0,0-0.1,0-0.1,0s-0.1,0-0.1,0c-0.8,0-1.5-0.2-2-0.5c-0.5-0.3-0.9-0.7-1.3-1.2c-0.4-0.6-0.6-1.3-0.7-1.9c-0.1-0.7-0.2-1.4-0.3-2.1
		c-0.1-0.8-0.2-1.6-0.3-2.4c-0.1-0.8-0.2-1.6-0.3-2.4c-0.1-0.8-0.2-1.6-0.3-2.5c-0.1-0.8-0.3-1.7-0.6-2.7c0-0.1,0-0.1,0-0.2
		c0,0,0-0.1,0-0.1l0.7-1.8c0-0.1,0.1-0.1,0.1-0.1c0,0,0.1,0,0.1,0.1c0.1,0.5,0.2,1,0.3,1.6s0.2,1.1,0.3,1.7c0.1,0.6,0.2,1.3,0.3,2
		s0.2,1.5,0.3,2.5c0.1,0.6,0.1,1.3,0.2,1.9c0.1,0.6,0.1,1.2,0.2,1.9c0.1,0.5,0.1,1,0.2,1.5c0.1,0.5,0.2,1,0.5,1.4
		c0.2,0.4,0.5,0.7,0.9,0.8c0.4,0.2,1,0.3,1.7,0.3C202.2,21.1,202.3,21.1,202.4,21.1C202.3,21.1,202.3,21.1,202.4,21.1z"/>
	<path class="st0" d="M209.6,7.8c-0.5,0.2-0.9,0.4-1.4,0.7c-0.5,0.2-1,0.4-1.4,0.7c-0.5,0.2-0.9,0.4-1.3,0.6c-0.4,0.2-0.7,0.3-1,0.5
		c-0.1,0-0.1,0-0.1,0c0,0,0-0.1,0-0.1l0.7-1.3c0-0.1,0.1-0.1,0.1-0.2c0,0,0.1-0.1,0.1-0.1l5-2.2c0.1-0.1,0.2,0,0.1,0.1l-0.6,1.3
		C209.8,7.7,209.7,7.8,209.6,7.8z"/>
	<path class="st0" d="M202.2,21.1c0.4,0,0.8,0,1.1,0c0.4,0,0.7-0.1,1.1-0.2c0.3-0.1,0.6-0.2,0.9-0.4c0.3-0.2,0.5-0.4,0.6-0.6
		c0.3-0.5,0.5-1,0.7-1.5c0.2-0.5,0.5-1,0.7-1.4c0.1-0.2,0.2-0.4,0.4-0.6c0.2-0.2,0.3-0.4,0.5-0.6c0.2-0.2,0.4-0.3,0.6-0.5
		c0.2-0.1,0.4-0.2,0.6-0.2c0.3,0,0.7,0.2,1,0.5c0.3,0.3,0.6,0.7,0.8,1.2c0.2,0.4,0.4,0.9,0.6,1.4c0.1,0.5,0.2,0.9,0.2,1.2
		c0,0.2,0,0.4-0.1,0.6c0,0.2-0.1,0.4-0.2,0.6c-0.1,0.2-0.2,0.4-0.3,0.5c-0.1,0.2-0.3,0.3-0.5,0.4c-0.4,0.1-0.8,0.1-1.3,0
		c-0.5-0.1-0.9-0.2-1.3-0.3c-0.4-0.1-0.7-0.3-1.1-0.4c-0.4-0.2-0.7-0.4-1-0.6c-0.4,1-0.9,1.8-1.6,2.3c-0.7,0.5-1.6,0.7-2.7,0.7H202
		c-0.3,0-0.5-0.1-0.6-0.3c-0.1-0.2-0.2-0.5-0.2-0.7c0-0.3,0.1-0.5,0.2-0.7c0.1-0.2,0.4-0.3,0.6-0.3H202.2z M210.2,18.1
		c-0.2-0.2-0.3-0.4-0.6-0.6c-0.2-0.2-0.5-0.3-0.8-0.3c-0.3,0-0.6,0.2-0.8,0.4c-0.3,0.2-0.4,0.5-0.5,0.8c0.2,0.2,0.5,0.4,0.7,0.5
		c0.3,0.1,0.5,0.2,0.8,0.3c0.3,0.1,0.6,0.1,0.9,0.2c0.3,0,0.6,0.1,0.9,0.1c0,0,0-0.1,0-0.2c0-0.1-0.1-0.3-0.2-0.4
		c-0.1-0.1-0.1-0.3-0.2-0.4C210.3,18.3,210.2,18.2,210.2,18.1z"/>
	<path class="st0" d="M219.5,9.2c-0.5,0.2-0.9,0.4-1.4,0.7s-1,0.4-1.4,0.7c-0.5,0.2-0.9,0.4-1.3,0.6c-0.4,0.2-0.7,0.3-1,0.5
		c-0.1,0-0.1,0-0.1,0c0,0,0-0.1,0-0.1l0.7-1.3c0-0.1,0.1-0.1,0.1-0.2c0,0,0.1-0.1,0.1-0.1l5-2.2c0.1-0.1,0.2,0,0.1,0.1L219.7,9
		C219.7,9.1,219.6,9.2,219.5,9.2z"/>
	<path class="st0" d="M220.1,20.7c-0.1,0.4-0.4,0.7-0.7,1c-0.3,0.3-0.8,0.4-1.2,0.4c-0.2,0-0.5-0.1-0.7-0.2
		c-0.2-0.1-0.4-0.3-0.6-0.5c-0.2-0.2-0.3-0.4-0.4-0.7c-0.1-0.3-0.1-0.5-0.1-0.8c0-0.2,0.1-0.4,0.1-0.7c0.1-0.3,0.1-0.5,0.2-0.8
		c0.1-0.3,0.2-0.5,0.3-0.8c0.1-0.3,0.3-0.5,0.4-0.7c0.2-0.2,0.3-0.4,0.5-0.5c0.2-0.1,0.4-0.2,0.6-0.2c0.4,0,0.7,0.1,1,0.4
		c0.3,0.3,0.6,0.6,0.8,1.1c0.2,0.4,0.4,0.9,0.5,1.4c0.1,0.5,0.2,1,0.2,1.5c0,0.7-0.1,1.3-0.3,2c-0.2,0.7-0.4,1.4-0.6,2.1
		c-0.3,0.7-0.6,1.3-0.9,1.9c-0.3,0.6-0.7,1.1-1.1,1.5c-0.6,0.6-1.2,1.1-1.8,1.4c-0.6,0.3-1.3,0.5-2,0.6c-0.7,0.1-1.4,0.1-2.2,0
		c-0.8-0.1-1.5-0.3-2.3-0.5c-0.1,0-0.1-0.1-0.1-0.1c0-0.1,0-0.1,0-0.2c0-0.1,0.1-0.1,0.2-0.2c0.1,0,0.2-0.1,0.3-0.1
		c0.8,0.1,1.5,0,2.1,0c0.6-0.1,1.2-0.2,1.8-0.5c0.5-0.2,1.1-0.5,1.6-0.9c0.5-0.3,1-0.8,1.5-1.2c0.4-0.3,0.7-0.7,1-1.1
		c0.3-0.4,0.6-0.8,0.9-1.3c0.3-0.4,0.5-0.9,0.7-1.3c0.2-0.4,0.3-0.9,0.4-1.2c0-0.1,0-0.2,0-0.3c0-0.1,0-0.2,0-0.3
		c0-0.1,0-0.2-0.1-0.3C220.2,20.8,220.1,20.8,220.1,20.7z M218.3,18.3c-0.1,0-0.3,0.1-0.4,0.2c-0.1,0.1-0.2,0.2-0.3,0.3
		c-0.1,0.1-0.1,0.2-0.2,0.4c0,0.1-0.1,0.2-0.1,0.3c0.1,0.2,0.3,0.3,0.5,0.4c0.2,0.1,0.4,0.1,0.6,0.1c0.2,0,0.5-0.1,0.6-0.2
		c0.2-0.1,0.3-0.2,0.4-0.3c0-0.1,0-0.2-0.1-0.4c-0.1-0.1-0.2-0.3-0.3-0.4c-0.1-0.1-0.3-0.2-0.4-0.3
		C218.6,18.4,218.4,18.3,218.3,18.3z"/>
	<path class="st0" d="M244.6,16.2c0,0.2-0.1,0.5-0.3,0.7c-0.3,0.3-0.7,0.6-1.3,1c0,0.6-0.1,1.1-0.3,1.7c-0.1,0.5-0.3,0.7-0.5,0.7
		c-0.6-0.6-1.2-1.1-1.7-1.5c-0.6-0.5-1.2-0.7-1.9-0.7c0.1,0.6,0.4,1.2,0.9,1.9c0.5,0.5,1,1.1,1.5,1.6c0,0.3-0.5,0.5-1.5,0.7
		c-0.8,0.2-1.4,0.2-1.8,0.2c-0.7,2.2-1.7,4.2-3.1,6c-0.6,0.8-1.3,1.7-2.3,2.6c-1.3,1.2-2.2,1.8-2.8,1.8c-0.2,0-0.3-0.1-0.3-0.3
		c0-0.1,0.4-0.6,1.1-1.4c1-1.2,1.8-2.2,2.3-3.2c0.9-1.7,1.5-3.6,1.8-5.7c-0.7-0.1-1.1-0.2-1.3-0.3c-0.2-0.1-0.3-0.2-0.3-0.4
		c1.5-1.2,2.2-2.4,2.2-3.4c-0.6,0-1.2,0.2-1.8,0.7c-0.4,0.4-0.9,0.9-1.6,1.6c-0.2,0-0.4-0.3-0.6-0.8c-0.2-0.6-0.3-1.1-0.3-1.7
		c-0.7-0.4-1-0.5-1.1-0.6c-0.4-0.3-0.6-0.6-0.6-1c0-0.2,0.1-0.4,0.3-0.6c0.1-0.1,0.6-0.4,1.3-0.8c0-1.7,0.3-2.5,0.9-2.5
		c1.2,1.3,2.4,2.1,3.4,2.2c0-0.5-0.3-1.2-0.8-1.9c0-0.1-0.5-0.6-1.5-1.6c0-0.1,0.1-0.3,0.4-0.4c0.2-0.1,0.7-0.2,1.3-0.3
		c-0.3-1.7-1-3.4-2-5.2c-1-1.8-2.2-3.2-3.4-4.4c-0.2-0.2-0.3-0.4-0.3-0.5s0.1-0.2,0.4-0.3c0.4,0,1.1,0.3,2,1c2.8,2,4.9,5,6.4,9.1
		c2.2,0,3.2,0.3,3.2,0.9c-0.6,0.5-1.1,1-1.4,1.5c-0.4,0.6-0.7,1.2-0.7,1.9c0.5,0,1-0.3,1.6-0.8l1.7-1.5c0.4,0,0.6,0.7,0.8,2.2
		c0,0.1,0,0.3,0.1,0.4C244,15.3,244.6,15.8,244.6,16.2z M239.6,11.1c0-0.1-0.2-0.1-0.6-0.2c-0.4-0.1-0.7-0.1-0.9-0.1h-0.6
		c-0.1,0-0.3,0-0.4,0.1c-0.6-1.9-1.5-3.7-2.6-5.4c-1.3-1.9-2.9-3.4-4.6-4.6c1.2,1.1,2.2,2.5,3.1,4c1.1,1.9,1.8,3.9,2.2,5.9
		c-0.8,0.1-1.2,0.2-1.3,0.4c0.9,0.7,1.6,1.5,2,2.3c0.1-0.3,0.3-0.7,0.5-1.1c0-0.1,0.1-0.2,0.2-0.5c0.1-0.3,0.2-0.4,0.3-0.4
		c0.3,0,0.6,0.7,1.1,2.1c0.2-0.5,0.5-1,0.9-1.5C238.9,11.8,239.2,11.5,239.6,11.1z M234.3,17.4c-0.2-0.1-0.8-0.3-1.7-0.6
		c-0.6-0.2-1-0.4-1-0.5c0-0.1,0.5-0.3,1.5-0.7c0.2-0.1,0.6-0.2,1.1-0.4c-0.5-0.2-1-0.4-1.5-0.8c-0.2-0.2-0.6-0.5-1-1
		c-0.2,0-0.3,0.6-0.3,1.8c-0.9,0.5-1.4,0.9-1.4,1.1c0,0.2,0.5,0.5,1.4,0.9c0,1.3,0.1,2,0.4,2c0,0,0.3-0.3,1-0.8
		C233.5,17.9,234,17.5,234.3,17.4z M239.8,21.3c-0.7-0.6-1.4-1.3-1.8-2.2c-0.1,0.2-0.3,0.6-0.5,1c-0.1,0.1-0.2,0.3-0.3,0.6
		c-0.1,0.3-0.3,0.4-0.3,0.4c-0.1,0-0.2-0.2-0.3-0.5c-0.1-0.3-0.2-0.5-0.2-0.5c0-0.2-0.2-0.5-0.5-1.1c-0.1,0.4-0.4,0.9-0.8,1.3
		c-0.3,0.3-0.6,0.7-1,1c0,0.1,0.4,0.2,1.2,0.4c-0.5,2-0.8,3.2-1,3.7c-0.7,2.2-2,4.3-3.7,6.3c2.9-2,5.1-5.3,6.7-10.1
		c1.1,0,1.6,0,1.4,0C239.3,21.7,239.8,21.6,239.8,21.3z M238.8,16.3c0-0.6-0.2-1-0.6-1.4c-0.4-0.4-0.9-0.5-1.4-0.5
		c-0.5,0-1,0.2-1.4,0.6c-0.4,0.4-0.6,0.8-0.6,1.4c0,0.6,0.2,1,0.6,1.4c0.4,0.4,0.9,0.6,1.4,0.6c0.6,0,1.1-0.2,1.4-0.6
		C238.6,17.3,238.8,16.8,238.8,16.3z M243.7,16.2c0-0.1-0.1-0.3-0.4-0.4c-0.3-0.2-0.6-0.3-1-0.5c0-0.6,0-1-0.1-1.4
		c-0.1-0.4-0.2-0.6-0.3-0.6c-0.1,0-0.3,0.3-0.8,0.8c-0.5,0.5-1,0.9-1.7,1.1c0.3,0.1,0.7,0.3,1.2,0.6c0.1,0,0.4,0.1,0.9,0.3
		c0.4,0.1,0.6,0.3,0.6,0.3c0,0.1-0.3,0.3-1,0.5c-1,0.3-1.6,0.4-1.7,0.5c0.6,0.2,1.1,0.4,1.5,0.8c0.2,0.2,0.6,0.5,1,1
		c0.1,0,0.2-0.2,0.3-0.5c0-0.2,0-0.6,0-1.3C243.2,16.8,243.7,16.4,243.7,16.2z"/>
	<path class="st0" d="M270.6,17.4c0,2.2,0,2.9-1,3.9c1,0.3,2.8,0.9,2.8,2.3c0,2.7-5.8,5.7-9.3,5.7c-2.1,0-5.3-0.8-5.3-4.8
		c0-1.7,0.7-3.8,1.5-5c0.2-0.4,0.5-0.6,0.7-0.6c0.2,0,0.1,0.4-0.1,0.8c-0.6,1.3-1,2.5-1,3.4c0,2.7,2.4,3.8,4.8,3.8
		c2.7,0,7.1-2.1,7.6-2.8c-0.7-0.6-2.7-1.5-4.4-1.5c-0.3,0-0.4-0.1-0.4-0.3c0-0.3,0.3-0.9,0.5-1.3c0.1-0.1,0.1-0.2,0.2-0.2l1-0.3
		c0.8-0.3,1.4-0.7,1.4-1c-0.3-2.7-0.7-7-0.9-8.6c-0.1-0.4-0.2-0.7-0.2-1.1c0-0.1,0-0.2,0-0.3c0,0,0-0.1,0-0.2c0-0.1,0.2-0.6,0.5-1.1
		c0.3-0.5,0.5-0.9,0.7-0.9c0.1,0,0.1,0.1,0.2,0.2c0.2,0.8,0.6,1.4,0.8,1.8c0,0.1,0.1,0.1,0.1,0.2c0,0.1,0,0.1,0,0.2
		c-0.1,0.2-0.4,0.8-0.6,1.2C270.4,13.6,270.5,15.7,270.6,17.4z"/>
	<path class="st0" d="M278.5,23.2c-0.7,0-1.2-0.1-1.7-0.5c-0.7-0.6-1.1-1.7-1.3-3.1c-0.2-1.1-0.2-2.3-0.3-3.7
		c-0.1-2-0.2-5.1-0.5-6.9c0-0.1,0-0.2,0-0.2c0-0.1,0-0.2,0.2-0.4c0.3-0.5,0.5-0.8,0.7-1.2c0.2-0.3,0.2-0.3,0.3-0.3
		c0.1,0,0.2,0.2,0.3,0.7c0.4,3.5,0.1,8.4,0.6,11.1c0.1,0.7,0.2,0.9,0.4,1.3c0.3,0.6,0.7,0.9,1.4,1c0.8,0,1.2,0.4,1.2,1.1
		c0,0.9-0.4,1.2-1.1,1.2H278.5z"/>
	<path class="st0" d="M288.8,20.9c0.6,0,1,0.4,1,1.1c0,0.8-0.3,1.2-1,1.2h-0.2c-1-0.1-1.9-0.3-2.7-0.8c-0.8-0.5-1.1-0.9-1.6-1.7
		c-1.2,1.1-2.1,1.7-2.9,2c-0.8,0.3-1.7,0.5-2.7,0.5c-0.8,0-1.1-0.4-1.1-1.2c0-0.7,0.4-1.1,1.1-1.1h0.2c1.8,0,3-0.3,4.5-1.2
		c-0.5-0.7-1.7-1-2.3-1.1c-0.1,0-0.1-0.2-0.1-0.4c0-0.5,0.2-1.4,0.5-1.6c1-0.7,2.1-1.1,3.1-1.1c1,0,1.9,0.4,2.6,1.1
		c0.2,0.2,0.2,0.4,0.2,0.7c0,0.7-0.4,1.7-1.3,2.3c0.8,0.8,1.7,1.2,2.6,1.2H288.8z"/>
	<path class="st0" d="M293.2,4.8c0.1-0.1,0.1,0,0.1,0.1c0,0.6-0.2,1.1-0.5,1.3l-4.1,2.3c-0.1,0-0.1,0-0.1-0.1c0-0.3,0.1-0.8,0.2-1
		c0.1-0.2,0.3-0.3,0.7-0.5L293.2,4.8z"/>
	<path class="st0" d="M292.5,21.8c-0.4,0.6-1.2,1.1-2.6,1.3c-0.4,0.1-0.9,0.1-1.4,0.1c-0.6,0-1-0.6-1-1.1s0.3-1.1,1-1.1h0.5
		c1,0,2.6,0,3.2-0.6c-0.1-0.9-0.8-2-1.1-2.4c0,0,0,0,0-0.1c0-0.4,0.7-1.8,0.7-1.9c0-0.1,0.1-0.1,0.1-0.1c0.3,0,1.1,1.6,1.1,3.5
		C293.1,20.1,293,21.1,292.5,21.8z M292.4,10.4c0.2-0.2,0.2-0.2,0.3-0.1c0.5,0.5,1,1.1,1.5,1.4c0.2,0.1,0.2,0.2,0,0.3
		c-0.5,0.5-0.9,1-1.3,1.5c-0.1,0.1-0.2,0.1-0.3,0c-0.4-0.3-0.9-0.7-1.4-1.2c-0.3,0.3-0.9,1-1.1,1.2c-0.1,0.1-0.2,0.2-0.4,0
		c-0.5-0.3-1.1-0.9-1.5-1.4c-0.1-0.1-0.1-0.2,0-0.3c0.4-0.5,0.9-1,1.4-1.5c0.1-0.1,0.2-0.1,0.3,0.1c0.4,0.4,1,1,1.4,1.2
		C291.6,11.2,292.1,10.6,292.4,10.4z"/>
	<path class="st0" d="M304.8,7.9c0,0.5-0.1,1-0.3,1.5c0.2,0.1,0.4,0.3,0.4,0.4c0,0.4-0.2,0.7-0.3,1c-0.1,0.1-0.1,0.1-0.1,0.1
		l-0.5-0.3c-0.5,0.8-1.3,1.8-2.5,2.3c-0.4,0.2-0.9,0.4-1.5,0.4c-0.3,0-0.4-0.1-0.4-0.1c0-0.1,0.2-0.2,0.6-0.4
		c0.9-0.5,2.5-1.8,3.1-2.5c-0.5-0.3-1.1-0.7-1.1-1.4c0-0.4,0.2-0.9,0.6-1.3c0.4-0.5,0.8-0.8,1.2-0.8C304.6,6.6,304.8,7.3,304.8,7.9z
		 M303,8.3C303,8.4,303,8.4,303,8.3c0,0.2,0.4,0.5,0.8,0.7c0.1-0.2,0.1-0.4,0.1-0.7c0-0.3-0.1-0.4-0.3-0.4
		C303.4,7.9,303.1,8.1,303,8.3z"/>
	<path class="st0" d="M310.8,1.3c0,0.5-0.1,1-0.3,1.5c0.2,0.1,0.4,0.3,0.4,0.4c0,0.4-0.2,0.7-0.3,1c-0.1,0.1-0.1,0.1-0.1,0.1
		L310,3.9c-0.5,0.8-1.3,1.8-2.5,2.3c-0.4,0.2-0.9,0.4-1.5,0.4c-0.3,0-0.4-0.1-0.4-0.1c0-0.1,0.2-0.2,0.6-0.4
		c0.9-0.5,2.5-1.8,3.1-2.5c-0.5-0.3-1.1-0.7-1.1-1.4c0-0.4,0.2-0.9,0.6-1.3c0.4-0.5,0.8-0.8,1.2-0.8C310.6,0,310.8,0.7,310.8,1.3z
		 M309,1.7C309,1.8,309,1.8,309,1.7c0,0.2,0.4,0.5,0.8,0.7c0.1-0.2,0.1-0.4,0.1-0.7c0-0.3-0.1-0.4-0.3-0.4
		C309.4,1.3,309.2,1.5,309,1.7z"/>
	<path class="st0" d="M308.3,9.1c0-0.1,0-0.2,0-0.3c0,0,0-0.1,0-0.2c0-0.1,0.2-0.5,0.5-1s0.5-0.9,0.7-0.9c0.1,0,0.1,0.1,0.2,0.2
		c0.3,1,0.6,1.4,0.8,1.7c0,0.1,0.1,0.2,0.1,0.2s0,0.1,0,0.2c-0.1,0.2-0.4,0.8-0.6,1.1c0,0.6,0.2,2.2,0.5,4.3c0.2,2,0.3,3.1,0.3,3.6
		c0,1.7-0.4,3-1.1,4c-0.6,0.7-1.4,1-2.3,1c-0.7,0-1.3-0.2-1.8-0.8c-0.4-0.5-0.8-1.4-1.1-2.8c-0.5,1.2-1.2,1.8-2.2,1.8
		c-0.1,0-0.1,0-0.4,0c-0.7,0-1.1-0.1-1.4-0.2c-0.2-0.1-0.4-0.3-0.4-0.6c0-0.1,0-0.2,0.1-0.4c0.1-0.3,0.2-0.7,0.3-1
		c0.2-0.5,0.5-0.9,1-1.1c0.8-0.5,1.8-1,2.7-1.3c0-0.3,0.1-0.7,0.3-1.2c0.2-0.5,0.3-0.8,0.4-0.8c0.1,0,0.2,0.1,0.2,0.3
		c0.1,0.6,0.2,1.9,0.5,3.7c0.2,0.6,0.4,1.1,0.7,1.4c0.3,0.3,0.7,0.5,1.2,0.5c0.1,0,0.2,0,0.4,0c0.4,0,0.7,0,1-0.2
		c0.4-0.1,0.6-0.3,0.7-0.4c-0.1-1.9-0.9-8.8-1.1-10.3C308.4,9.6,308.4,9.6,308.3,9.1z M302.9,19.2c0.7,0,1.1-0.2,1.4-0.5l-0.2-1.1
		c-1.2,0.6-2,1-2.3,1.4C302,19.2,302.4,19.2,302.9,19.2z"/>
	<path class="st0" d="M316.1,10.3c0.7,0,1.7,1,1.7,2.1c0,0.4-0.1,0.8-0.2,1.2c-0.3,0.8-0.9,1.3-1.8,1.3c-0.8,0-1.3-0.6-1.3-1.3
		C314.4,12.5,315.6,10.3,316.1,10.3z M315.9,11.9c-0.3,0-0.7,0.6-0.7,1c0,0.3,0.4,0.6,0.8,0.6c0.5,0,1.1-0.3,1.1-0.5
		C317.1,12.7,316.4,11.9,315.9,11.9z"/>
	<path class="st0" d="M310.4,29.2c-0.3-0.2-0.4-0.3-0.4-0.4c0-0.1,0.2-0.2,0.4-0.2c0.3,0,1.1,0.2,1.8,0.2c0.6,0,1.2-0.2,2.1-0.6
		c2.4-1.2,3.9-3,3.9-4.2c0-0.2,0-0.3-0.1-0.7h-0.7c-0.5,0-1.5-0.1-2.2-0.5c-0.7-0.4-1-0.9-1-1.5c0-0.6,0.3-1.4,0.6-2.2
		c0.6-1.3,1.2-2.2,1.9-2.2c0.7,0,1.3,0.5,1.8,1.1c0.5,0.7,0.7,1.8,0.7,2.8h1c0.6,0,0.9,0.3,0.9,1c0,0.8-0.3,1.2-0.9,1.2l-1.1,0.1
		c-0.2,3.5-1.3,5.8-4.1,6.9c-0.2,0.1-0.4,0.1-0.6,0.1C313.4,30.2,311.8,29.8,310.4,29.2z M316.6,19.5c-0.1-0.1-0.3-0.2-0.6-0.2
		c-0.5,0-0.8,0.5-0.8,0.8c0,0.2,0.2,0.5,0.8,0.7c0.4,0.2,0.9,0.2,1.1,0.2c0.2,0,0.2,0,0.2-0.1C317.5,20.6,317.1,19.9,316.6,19.5z"/>
	<path class="st0" d="M324.8,2.2c0.1-0.1,0.1,0,0.1,0.1c0,0.6-0.2,1.1-0.5,1.3l-4.1,2.3c-0.1,0-0.1,0-0.1-0.1c0-0.3,0.1-0.8,0.2-1
		c0.1-0.2,0.3-0.3,0.7-0.5L324.8,2.2z"/>
	<path class="st0" d="M325.7,18c0,1.2-0.4,2.9-0.9,3.7c-0.2,0.3-0.9,0.7-1.4,0.8c-1.4,0.4-2.5,0.6-3.3,0.6h-0.2c-0.6,0-1-0.4-1-1.2
		c0-0.7,0.3-1.1,1-1.1h0.2c1.3,0,2.8-0.2,3.7-0.5c0.8-0.3,0.9-0.3,0.9-1.1c0-0.5-0.1-0.8-0.3-1.3c-0.2,0.5-0.9,1-1.8,1
		c-1.1,0-1.8-0.7-1.8-2c0-1.8,1.4-4.1,2-4.1C324.6,13,325.7,16.4,325.7,18z M324.2,7.5c0.2-0.2,0.2-0.2,0.3-0.1
		c0.5,0.5,1,1.1,1.5,1.4c0.2,0.1,0.2,0.2,0,0.3c-0.5,0.5-0.9,1-1.3,1.5c-0.1,0.1-0.2,0.1-0.3,0c-0.4-0.3-0.9-0.7-1.4-1.2
		c-0.3,0.3-0.9,1-1.1,1.2c-0.1,0.1-0.2,0.2-0.4,0c-0.5-0.3-1.1-0.9-1.5-1.4c-0.1-0.1-0.1-0.2,0-0.3c0.4-0.5,0.9-1,1.4-1.5
		c0.1-0.1,0.2-0.1,0.3,0.1c0.4,0.4,1,1,1.4,1.2C323.4,8.3,324,7.7,324.2,7.5z M323.1,15.5c-0.2-0.2-0.5-0.3-0.7-0.3
		c-0.2,0-0.4,0.1-0.5,0.4c-0.1,0.2-0.2,0.4-0.2,0.5c0,0.5,0.5,0.6,1,0.6c0.5,0,0.9-0.2,0.9-0.5C323.6,16.2,323.4,15.7,323.1,15.5z"
		/>
	<path class="st0" d="M335.8,15.8c0.3,0.3,0.4,0.7,0.4,1.1c0,0.2-0.1,0.7-0.4,0.9c-0.3,0.3-0.7,0.4-1.1,0.4c-0.3,0-0.7-0.1-0.9-0.4
		c-0.3-0.3-0.4-0.6-0.4-1c0-0.4,0.2-0.8,0.4-1c0.3-0.2,0.6-0.4,1-0.4C335.2,15.4,335.6,15.6,335.8,15.8z M335.8,21
		c0.3,0.3,0.4,0.8,0.4,1.1c0,0.3-0.1,0.7-0.4,1c-0.3,0.3-0.7,0.4-1.1,0.4c-0.3,0-0.6-0.2-0.9-0.4c-0.3-0.3-0.4-0.6-0.4-1
		c0-0.3,0.2-0.7,0.4-1c0.3-0.3,0.6-0.4,1-0.4C335.2,20.7,335.6,20.8,335.8,21z"/>
	<path class="st0" d="M356.8,21.1c0,2.3-0.4,2.8-0.9,3.7c-1.3,2-3.6,2.9-5.9,2.9c-4,0-5.1-2.1-5.1-4.1c0-1.4,0.5-3,1.1-4.2
		c0.3-0.6,0.6-0.8,0.8-0.8c0.1,0,0.1,0.1,0.1,0.2c0,0.2-0.1,0.5-0.3,0.8c-0.3,0.7-0.7,1.7-0.7,2.5c0,1.8,1.4,3.3,4.4,3.3
		c2.2,0,4.9-1.4,5.4-2.6c0.1-0.1,0.1-0.2,0.1-0.3c-0.1-1.9-0.3-3.2-0.5-4.9c-0.4-3.1-0.5-3.8-0.8-6.6c0-0.4-0.3-1.3-0.4-1.7
		c0-0.1,0-0.2,0-0.3c0,0,0-0.1,0-0.2c0-0.1,0.1-0.4,0.4-0.9c0.2-0.5,0.7-1.1,0.8-1.1c0.1,0,0.1,0.1,0.2,0.2c0.3,0.9,0.6,1.4,0.8,1.8
		c0,0.1,0.1,0.2,0.1,0.2c0,0.1,0,0.1,0,0.2c-0.1,0.2-0.3,0.8-0.5,1.1C356.3,13.8,356.8,18.8,356.8,21.1z"/>
	<path class="st0" d="M364,23.2c-0.7,0-1.2-0.1-1.7-0.5c-0.7-0.6-1.1-1.7-1.3-3.1c-0.2-1.1-0.2-2.3-0.3-3.7c-0.1-2-0.2-5.1-0.5-6.9
		c0-0.1,0-0.2,0-0.2c0-0.1,0-0.2,0.2-0.4c0.3-0.5,0.5-0.8,0.7-1.2c0.2-0.3,0.2-0.3,0.3-0.3c0.1,0,0.2,0.2,0.3,0.7
		c0.4,3.5,0.1,8.4,0.6,11.1c0.1,0.7,0.2,0.9,0.4,1.3c0.3,0.6,0.7,0.9,1.4,1c0.8,0,1.2,0.4,1.2,1.1c0,0.9-0.4,1.2-1.1,1.2H364z"/>
	<path class="st0" d="M368.8,19.5c0,0.6,0.6,1.2,1.4,1.4c0.2,0,0.3,0,0.5,0h0.1c0.9,0,0.9,0.7,0.9,1c0,0.3,0,1.3-0.8,1.3h-0.2
		c-0.2,0-0.3,0-0.6,0c-1.5-0.2-2.1-1.5-2.2-1.7c-0.2,0.6-1.5,1.7-3.7,1.7h-0.1c-0.6,0-1-0.6-1-1.1s0.3-1.1,1-1.1h0.7
		c1,0,2.4-0.2,3.3-1.6c0.3-0.5,0.4-0.5,0.5-0.5C368.7,18.8,368.8,19,368.8,19.5z M368.6,13.1c0.2-0.2,0.2-0.2,0.3-0.1
		c0.5,0.5,1,1.1,1.5,1.4c0.2,0.1,0.2,0.2,0,0.3c-0.5,0.5-0.9,1-1.3,1.5c-0.1,0.1-0.2,0.1-0.3,0c-0.4-0.3-0.9-0.7-1.4-1.2
		c-0.3,0.3-0.9,1-1.1,1.2c-0.1,0.1-0.2,0.2-0.4,0c-0.5-0.3-1.1-0.9-1.5-1.4c-0.1-0.1-0.1-0.2,0-0.3c0.4-0.5,0.9-1,1.4-1.5
		c0.1-0.1,0.2-0.1,0.3,0.1c0.4,0.4,1,1,1.4,1.2C367.8,13.9,368.4,13.3,368.6,13.1z M369,9.8c0.1,0.1,0.1,0.1,0,0.2
		c-0.2,0.3-1.1,1.2-1.4,1.7c-0.1,0.1-0.1,0.1-0.2,0c-0.5-0.3-1.5-1-1.7-1.4c-0.1-0.1-0.1-0.1,0-0.2c0.3-0.5,0.9-1.2,1.3-1.6
		c0.2-0.2,0.2-0.2,0.3-0.1C367.5,8.7,368.3,9.3,369,9.8z"/>
	<path class="st0" d="M378.8,25.2c0.1-0.1,0.1,0,0.1,0.1c0,0.6-0.2,1.1-0.5,1.3l-4.1,2.3c-0.1,0-0.1,0-0.1-0.1c0-0.3,0.1-0.8,0.2-1
		c0.1-0.2,0.3-0.3,0.7-0.5L378.8,25.2z"/>
	<path class="st0" d="M370.9,23.2h-0.1c-0.7,0-1-0.4-1-1.2c0-0.7,0.4-1.1,1-1.1h0.1c1.2,0,2.2-0.5,2.9-1.4l1.3-2
		c0.7-1.1,1.7-1.5,2.2-1.5c1.7,0,2.4,2.9,2.4,4.1c0,1-1.1,2.4-1.6,2.4c-0.8,0-2.8-1-3.8-1.9C373.2,22.4,372.1,23.2,370.9,23.2z
		 M376.2,18c-0.2,0-0.3,0.1-0.5,0.3c-0.1,0.1-0.2,0.3-0.3,0.5c0.5,0.3,1.9,1,2.5,1.4C377.8,19.4,376.9,18,376.2,18z"/>
</g>
</svg>
