<?xml version="1.0" encoding="utf-8"?>
<!-- Generator: Adobe Illustrator 19.2.0, SVG Export Plug-In . SVG Version: 6.00 Build 0)  -->
<svg version="1.1" id="Layer_1" xmlns="http://www.w3.org/2000/svg" xmlns:xlink="http://www.w3.org/1999/xlink" x="0px" y="0px"
	 viewBox="0 0 539 50" style="enable-background:new 0 0 539 50;" xml:space="preserve">
<style type="text/css">
	.st0{fill:none;stroke:#F7931E;stroke-width:2;stroke-miterlimit:10;}
	.st1{fill:#FFFFFF;}
	.st2{fill:#F7931E;}
</style>
<g>
	<path class="st0" d="M538,27c0,12.2-9.8,22-22,22H23C10.8,49,1,39.2,1,27v-4C1,10.8,10.8,1,23,1h493c12.2,0,22,9.8,22,22V27z"/>
	<g>
		<path class="st1" d="M24.9,29.5c0.4,0.3,0.4,0.8,0.4,1.1c0,0.3-0.1,0.7-0.4,1c-0.3,0.3-0.7,0.4-1.1,0.4c-0.3,0-0.7-0.1-0.9-0.4
			c-0.3-0.3-0.4-0.7-0.4-1.1c0-0.4,0.2-0.7,0.4-1c0.3-0.2,0.6-0.4,1-0.4C24.3,29.1,24.7,29.3,24.9,29.5z"/>
		<path class="st1" d="M48.6,41.3c0,0.1-0.1,0.2-0.3,0.2c-0.7,0-1.6-0.6-2.9-1.7c-0.9-0.8-1.7-1.7-2.4-2.5c-1.3-1.7-2.4-3.7-3.2-5.9
			c-2.1,0-3.2-0.3-3.2-0.8c0.6-0.5,1.1-1,1.5-1.6c0.4-0.6,0.7-1.2,0.7-1.9c-0.5,0-1.1,0.3-1.8,0.9c-0.1,0.1-0.7,0.6-1.5,1.4
			c-0.2,0-0.4-0.2-0.5-0.7c-0.1-0.4-0.3-1.1-0.3-1.9c-0.5-0.2-0.9-0.5-1.3-0.8c-0.3-0.2-0.4-0.5-0.4-0.7c0-0.3,0.2-0.7,0.7-1.1
			c0.2-0.2,0.6-0.4,0.9-0.6c0-0.6,0.1-1.1,0.2-1.7c0.2-0.5,0.3-0.7,0.5-0.7c0.7,0.7,1.2,1.1,1.6,1.4c0.7,0.5,1.3,0.7,1.9,0.8
			c0-0.6-0.3-1.3-0.8-1.9c-0.5-0.5-1-1-1.5-1.6c0-0.3,0.5-0.5,1.5-0.7c0.7-0.1,1.3-0.2,1.8-0.3c1.5-4.2,3.5-7.3,6.2-9.4
			c0.9-0.7,1.5-1.1,1.9-1.1c0.2,0,0.3,0.1,0.3,0.3c0,0.1-0.4,0.6-1.1,1.4c-2.3,2.6-3.7,5.6-4.2,8.9c0.7,0.1,1.1,0.2,1.3,0.3
			c0.2,0.1,0.3,0.2,0.3,0.4c-0.6,0.5-1.1,1-1.5,1.5c-0.5,0.6-0.7,1.3-0.7,1.9c0.6,0,1.2-0.2,1.8-0.7c0.4-0.4,0.9-0.9,1.6-1.6
			c0.3,0,0.5,0.4,0.7,1.1c0.1,0.6,0.2,1.1,0.2,1.5c1.1,0.5,1.7,1,1.7,1.6c0,0.4-0.5,0.9-1.5,1.5c0,1-0.1,1.7-0.3,2.1
			c-0.2,0.2-0.3,0.4-0.6,0.4c-1.2-1.3-2.3-2.1-3.4-2.2c0,0.5,0.3,1.2,0.8,1.9c0.2,0.2,0.7,0.8,1.5,1.6c0,0.1-0.1,0.2-0.3,0.3
			c-0.2,0.1-0.7,0.2-1.4,0.4c0.3,1.7,1,3.4,2,5.2c1,1.8,2.2,3.2,3.5,4.3C48.6,40.9,48.6,41.1,48.6,41.3z M38,26.4
			c-0.3-0.1-0.7-0.3-1.2-0.5c-0.1-0.1-0.3-0.2-0.8-0.4c-0.4-0.2-0.7-0.3-0.7-0.4s0.5-0.3,1.6-0.5c0.2-0.1,0.6-0.2,1.1-0.4
			c-0.6-0.2-1.1-0.5-1.5-0.8c-0.2-0.2-0.6-0.5-1-1c-0.1,0-0.2,0.2-0.2,0.5c0,0.2,0,0.7-0.1,1.3c-0.9,0.5-1.4,0.9-1.5,1.1
			c0,0.1,0.1,0.3,0.4,0.4c0.3,0.2,0.6,0.3,1,0.4c0,0.2,0,0.6,0.1,1c0.1,0.6,0.2,0.9,0.3,1l1.1-1.1C37.1,26.8,37.5,26.5,38,26.4z
			 M46.8,9.7c-2.8,1.9-5,5.3-6.6,10.1c-1.2,0-1.9,0-2.2,0.1c-0.3,0-0.4,0.1-0.4,0.3c0.8,0.7,1.4,1.4,1.8,2.2c0.2-0.4,0.4-0.8,0.6-1
			c0.2-0.4,0.3-0.7,0.6-1.1c0.1,0,0.1,0.2,0.2,0.4c0.1,0.3,0.1,0.5,0.1,0.5c0.1,0.1,0.3,0.5,0.7,1.1c0.2-0.5,0.4-1,0.8-1.3
			c0.2-0.2,0.5-0.6,1-1c0-0.1-0.1-0.2-0.4-0.3c-0.2,0-0.4-0.1-0.8-0.1c0.5-1.9,0.8-3.1,1-3.7C43.7,14,45,11.9,46.8,9.7z M47.5,40.6
			c-1.2-1.1-2.2-2.4-3.1-4c-1.1-1.8-1.8-3.8-2.1-6c0.8-0.1,1.2-0.2,1.2-0.3c-0.8-0.7-1.5-1.5-1.9-2.3c-0.1,0.3-0.3,0.6-0.5,1
			c-0.1,0.1-0.1,0.2-0.3,0.5c-0.1,0.3-0.2,0.5-0.3,0.5c-0.3,0-0.7-0.7-1.1-2c-0.3,0.6-0.6,1.1-0.9,1.4c-0.3,0.3-0.6,0.6-0.9,1
			c0.1,0.1,0.2,0.1,0.4,0.1c0.2,0,0.6,0.1,1,0.1c0.2,0,0.4,0,0.6,0c0.2,0,0.4,0,0.5,0C41.7,35.1,44.1,38.4,47.5,40.6z M42.5,25.3
			c0-0.6-0.2-1.1-0.6-1.4c-0.4-0.4-0.9-0.6-1.4-0.6c-0.6,0-1.1,0.2-1.4,0.6c-0.4,0.4-0.6,0.9-0.6,1.4c0,0.5,0.2,1,0.6,1.4
			c0.4,0.4,0.9,0.6,1.4,0.6c0.6,0,1.1-0.2,1.5-0.5C42.3,26.3,42.5,25.8,42.5,25.3z M47.3,25.1c0-0.2-0.5-0.5-1.5-0.9
			c0-0.6,0-1-0.1-1.4c-0.1-0.4-0.2-0.6-0.2-0.6c-0.1,0.1-0.5,0.5-1.1,1c-0.4,0.4-0.9,0.7-1.3,0.9c0.1,0.1,0.7,0.3,1.7,0.6
			c0.6,0.2,1,0.4,1,0.5c0,0.1-0.3,0.3-0.9,0.5c-0.5,0.2-1.1,0.3-1.7,0.5c0.5,0.2,1,0.4,1.5,0.8c0.2,0.2,0.6,0.5,1,1
			c0.2,0,0.3-0.6,0.3-1.8C46.8,25.7,47.3,25.3,47.3,25.1z"/>
		<path class="st1" d="M64,17c0,0.3,0,0.6-0.1,0.9c-0.1,0.3-0.2,0.6-0.4,0.8c-0.2,0.2-0.4,0.4-0.7,0.5c-0.3,0.1-0.6,0.2-1,0.2
			c-0.5,0-0.9-0.2-1.2-0.5c-0.3-0.3-0.5-0.7-0.5-1.2c0-0.3,0-0.6,0.1-0.9c0.1-0.4,0.2-0.7,0.4-1c0.2-0.3,0.4-0.6,0.6-0.9
			c0.3-0.3,0.6-0.4,0.9-0.4c0.3,0,0.6,0,0.9,0.2c0.2,0.2,0.4,0.4,0.5,0.7c0.1,0.3,0.2,0.6,0.3,0.9C64,16.5,64,16.8,64,17z
			 M60.8,17.4c0,0.2,0,0.3,0.1,0.4c0.1,0.1,0.2,0.2,0.3,0.2c0.1,0,0.2,0.1,0.4,0.1c0.1,0,0.3,0,0.4,0c0.3,0,0.5-0.1,0.7-0.2
			c0.2-0.1,0.4-0.3,0.6-0.4c0-0.2,0-0.3-0.1-0.5c-0.1-0.2-0.1-0.3-0.3-0.5c-0.1-0.1-0.3-0.3-0.4-0.3C62.4,16,62.2,16,62,16
			c-0.1,0-0.3,0.1-0.4,0.2c-0.1,0.1-0.3,0.2-0.4,0.3c-0.1,0.1-0.2,0.3-0.3,0.4C60.8,17.1,60.8,17.2,60.8,17.4z"/>
		<path class="st1" d="M63.7,27.1c0.2,0,0.3,0,0.5,0.2c0.1,0.1,0.3,0.2,0.5,0.4c0.2,0.2,0.3,0.3,0.5,0.5c0.2,0.2,0.3,0.4,0.5,0.5
			c0.3,0.2,0.5,0.4,0.8,0.5c0.3,0.1,0.6,0.2,0.9,0.3c0.3,0.1,0.7,0.1,1,0.1c0.3,0,0.7,0,1,0h0.2c0.3,0,0.5,0.1,0.6,0.3
			c0.1,0.2,0.2,0.5,0.2,0.7c0,0.3-0.1,0.5-0.2,0.7c-0.1,0.2-0.4,0.3-0.6,0.3h-0.2c-0.2,0-0.4,0-0.7,0s-0.5,0-0.8,0
			c-0.3,0-0.6,0-0.9-0.1c-0.3,0-0.6-0.1-1-0.2c0,0.2-0.1,0.5-0.1,0.7c0,0.2-0.1,0.3-0.2,0.3c-0.3,0.1-0.8,0.1-1.3,0
			c-0.5-0.1-1-0.2-1.5-0.3c-0.5-0.2-0.9-0.4-1.3-0.6c-0.4-0.2-0.6-0.5-0.8-0.7c-0.2,0.1-0.4,0.2-0.6,0.3c-0.2,0.1-0.4,0.3-0.6,0.5
			c-0.2,0.2-0.3,0.4-0.4,0.6c-0.1,0.2-0.2,0.4-0.2,0.6c0,0.3,0,0.8,0.1,1.4c0.1,0.6,0.2,1.1,0.3,1.8c0.1,0.6,0.2,1.2,0.3,1.8
			c0.1,0.6,0.2,1.1,0.3,1.6c0.1,0.4,0.1,0.8,0.2,1.3c0.1,0.5,0.1,0.9,0.1,1.4c0,0.5,0,0.9,0,1.3c0,0.4-0.1,0.7-0.1,1
			c0,0.1-0.1,0.2-0.2,0.2c-0.1,0-0.1-0.1-0.2-0.2c-0.1-0.2-0.1-0.4-0.1-0.5c0-0.2,0-0.4-0.1-0.5c0-0.2-0.1-0.5-0.2-1
			c-0.1-0.5-0.2-1.2-0.3-2.1c-0.1-0.8-0.2-1.6-0.4-2.3c-0.1-0.7-0.2-1.3-0.3-1.9c-0.1-0.5-0.2-1-0.2-1.4c-0.1-0.4-0.1-0.8-0.1-1.1
			c0-0.8,0-1.5,0.3-2.1c0.2-0.6,0.6-1.1,1-1.5c0.2-0.2,0.4-0.4,0.8-0.7s0.7-0.6,1.1-0.9c0.4-0.3,0.8-0.5,1.2-0.8
			C63.1,27.2,63.5,27.1,63.7,27.1z M63.4,28.6c-0.2,0-0.5,0-0.8,0.2c-0.3,0.1-0.5,0.3-0.7,0.4c-0.1,0.1-0.1,0.2,0,0.2
			c0.2,0.1,0.4,0.3,0.7,0.4c0.3,0.1,0.6,0.2,0.9,0.3c0.3,0.1,0.6,0.2,0.8,0.2c0.3,0,0.4,0,0.6,0c-0.1-0.2-0.2-0.4-0.4-0.6
			c-0.2-0.2-0.3-0.4-0.5-0.5c-0.2-0.2-0.3-0.3-0.4-0.4C63.5,28.6,63.4,28.6,63.4,28.6z"/>
		<path class="st1" d="M73,17.1c0.3-0.2,0.6-0.3,0.9-0.5c0.3-0.2,0.6-0.4,0.8-0.6c0.3-0.2,0.6-0.4,0.8-0.7c0.3-0.2,0.5-0.5,0.8-0.8
			c-0.2-0.1-0.5-0.2-0.8-0.4c-0.3-0.2-0.5-0.4-0.7-0.6c-0.1-0.1-0.1-0.2-0.2-0.4c0-0.2,0-0.3,0-0.4c0.1-0.2,0.2-0.5,0.3-0.7
			c0.1-0.3,0.3-0.5,0.5-0.7c0.2-0.2,0.4-0.4,0.6-0.5c0.2-0.1,0.4-0.2,0.7-0.2c0.3,0,0.5,0.2,0.6,0.4c0.1,0.3,0.2,0.5,0.2,0.9
			c0,0.3,0,0.7,0,1c0,0.3-0.1,0.6-0.1,0.7c0,0,0,0.1,0,0.1c0.1,0.1,0.2,0.1,0.2,0.2c0,0.1,0.1,0.1,0.1,0.2c0.1,0.1,0.1,0.3,0,0.5
			c0,0.2-0.1,0.3-0.2,0.4c-0.1,0.1-0.1,0.1-0.2,0.1s-0.1,0-0.2-0.1c0-0.1-0.1-0.1-0.1-0.2s-0.1-0.1-0.2-0.1
			c-0.3,0.3-0.5,0.6-0.8,0.9s-0.6,0.5-0.9,0.8c-0.3,0.2-0.7,0.4-1,0.6c-0.4,0.2-0.7,0.3-1.1,0.5c-0.2,0-0.3,0.1-0.5,0.1
			c-0.2,0-0.3,0-0.3,0c0-0.1,0-0.1,0.1-0.2C72.7,17.2,72.8,17.1,73,17.1z M75.5,12.5c0.2,0.3,0.4,0.5,0.7,0.6
			c0.3,0.2,0.5,0.3,0.7,0.3h0c0-0.1,0-0.2,0-0.3c0-0.1,0-0.2,0-0.4c0-0.1,0-0.3-0.1-0.4c0-0.1-0.1-0.2-0.2-0.3
			C76.7,12,76.6,12,76.5,12c-0.1,0-0.3,0-0.4,0.1c-0.1,0-0.2,0.1-0.3,0.2C75.6,12.3,75.5,12.4,75.5,12.5z"/>
		<path class="st1" d="M69.4,29.6c0.9,0,2,0,3.1,0s2.4,0,3.8-0.1c1.3,0,2.8-0.1,4.2-0.2c1.5-0.1,3-0.2,4.5-0.3
			c1.5-0.1,3.1-0.3,4.7-0.4c1.6-0.2,3.2-0.4,4.7-0.6c0-0.3-0.1-0.6-0.2-0.9c-0.1-0.3-0.3-0.5-0.5-0.6c-0.2-0.2-0.5-0.3-0.7-0.4
			C92.8,26,92.5,26,92.1,26c-0.8,0-1.6,0.1-2.5,0.2c-0.9,0.1-1.9,0.2-2.9,0.3c-1,0.1-2.1,0.2-3.2,0.3c-1.1,0.1-2.2,0.2-3.2,0.2
			c-1.1,0.1-2.1,0.1-3.2,0.1c-1,0-2,0-2.9-0.1c-0.1,0-0.3,0-0.5,0c-0.2,0-0.5-0.1-0.8-0.1c-0.3,0-0.6-0.1-0.9-0.1
			c-0.3-0.1-0.6-0.1-0.8-0.2c-0.3-0.1-0.5-0.2-0.6-0.3c-0.2-0.1-0.2-0.2-0.2-0.4c0-0.3,0-0.7,0.2-1.1c0.1-0.4,0.3-0.8,0.5-1.1
			c0.2-0.4,0.4-0.7,0.7-1c0.3-0.3,0.5-0.6,0.7-0.8c1.9-1.6,4.1-2.7,6.5-3.4c0.1,0,0.2,0,0.2,0c0.1,0,0.1,0,0.1,0.1c0,0,0,0.1,0,0.2
			c0,0.1,0,0.1,0,0.2c-0.1,0.2-0.2,0.5-0.3,0.8c-0.1,0.3-0.3,0.5-0.4,0.8c-0.2,0-0.4,0.1-0.7,0.2c-0.3,0.1-0.6,0.2-1,0.3
			c-0.4,0.1-0.8,0.3-1.2,0.5c-0.4,0.2-0.9,0.4-1.3,0.6c-0.3,0.2-0.7,0.3-1,0.5c-0.3,0.2-0.6,0.4-0.8,0.6c-0.2,0.2-0.4,0.4-0.6,0.6
			c-0.1,0.2-0.2,0.4-0.2,0.5c0.1,0.2,0.2,0.3,0.5,0.4c0.3,0.1,0.5,0.2,0.8,0.3c0.3,0.1,0.6,0.1,0.9,0.2c0.3,0,0.5,0.1,0.7,0.1
			c0.7,0.1,1.4,0.1,2.2,0.1c0.8,0,1.6,0,2.5,0c0.9,0,1.7-0.1,2.6-0.1c0.9,0,1.7-0.1,2.5-0.2c0.8-0.1,1.6-0.1,2.3-0.2
			c0.7-0.1,1.4-0.1,1.9-0.2c0.5,0,1-0.1,1.5-0.1c0.5,0,1-0.1,1.5-0.1c0.5,0,1,0,1.4,0.1c0.5,0.1,0.9,0.2,1.2,0.4
			c0.4,0.2,0.6,0.4,0.9,0.8c0.2,0.3,0.4,0.7,0.4,1.2c0,0.2,0,0.5,0,0.8c0,0.3-0.1,0.5-0.2,0.8c-0.1,0.3-0.2,0.5-0.3,0.7
			c-0.1,0.2-0.2,0.4-0.3,0.6c0,0.1,0.1,0.1,0.2,0.2c0.1,0,0.2,0,0.4,0.1c0.2,0,0.3,0,0.6,0c0.2,0,0.5,0,0.8,0h0.3
			c0.3,0,0.5,0.1,0.6,0.3c0.1,0.2,0.2,0.5,0.2,0.7c0,0.3-0.1,0.5-0.2,0.7c-0.1,0.2-0.3,0.3-0.6,0.3h-0.3c-0.5,0-1,0-1.3-0.1
			c-0.3,0-0.6-0.1-0.8-0.3c-0.2-0.1-0.3-0.3-0.4-0.5c-0.1-0.2-0.1-0.5-0.1-0.9c-1.5,0.2-3,0.5-4.6,0.6c-1.6,0.2-3.2,0.3-4.8,0.5
			c-1.6,0.1-3.2,0.2-4.7,0.3c-1.5,0.1-3,0.2-4.3,0.2c-1.3,0-2.6,0.1-3.7,0.1c-1.1,0-2,0-2.7,0h-0.2c-0.3,0-0.5-0.1-0.6-0.3
			c-0.1-0.2-0.2-0.5-0.2-0.7c0-0.3,0.1-0.5,0.2-0.7c0.1-0.2,0.4-0.3,0.6-0.3H69.4z"/>
		<path class="st1" d="M102.3,9.9c-0.5,0.2-0.9,0.4-1.4,0.7c-0.5,0.2-1,0.4-1.4,0.7c-0.5,0.2-0.9,0.4-1.3,0.6
			c-0.4,0.2-0.7,0.3-1,0.5c-0.1,0-0.1,0-0.1,0c0,0,0-0.1,0-0.1l0.7-1.3c0-0.1,0.1-0.1,0.1-0.2c0,0,0.1-0.1,0.1-0.1l5-2.2
			c0.1-0.1,0.2,0,0.1,0.1l-0.6,1.3C102.4,9.8,102.4,9.9,102.3,9.9z"/>
		<path class="st1" d="M100.2,13.3c0-0.1,0.1-0.1,0.1-0.1c0,0,0.1,0,0.1,0.1c0.1,0.4,0.3,0.9,0.6,1.3c0.2,0.5,0.6,0.8,1,1.1
			c-0.2,0.4-0.4,0.8-0.6,1c-0.1,0.2-0.2,0.5-0.2,0.8l1.2,10.5c0,0.2,0,0.5-0.1,0.8c-0.1,0.3-0.1,0.5-0.2,0.8
			c-0.1,0.3-0.2,0.5-0.3,0.7c-0.1,0.2-0.2,0.4-0.3,0.5c-0.3,0.2-0.6,0.4-1,0.6c-0.4,0.1-0.8,0.2-1.3,0.3c-0.4,0.1-0.9,0.1-1.3,0.1
			c-0.4,0-0.8,0-1.1,0h-0.2c-0.3,0-0.5-0.1-0.7-0.3s-0.2-0.5-0.2-0.7c0-0.3,0.1-0.5,0.2-0.7c0.1-0.2,0.4-0.3,0.7-0.3h0.2
			c0.2,0,0.5,0,1,0c0.5,0,1,0,1.5-0.1c0.5-0.1,1-0.1,1.4-0.2s0.7-0.3,0.8-0.5c-0.3-1.9-0.5-3.8-0.8-5.7c-0.3-1.9-0.5-3.8-0.8-5.7
			c-0.1-0.4-0.1-0.8-0.2-1.1c-0.1-0.4-0.2-0.7-0.5-1.1c-0.1-0.1-0.1-0.2-0.1-0.2c0,0,0-0.1,0.1-0.2c0.1-0.3,0.3-0.5,0.5-0.8
			C99.9,13.8,100.1,13.5,100.2,13.3z"/>
		<path class="st2" d="M111.7,17.8c-0.5,0.2-0.9,0.4-1.4,0.7c-0.5,0.2-1,0.4-1.4,0.7c-0.5,0.2-0.9,0.4-1.3,0.6
			c-0.4,0.2-0.7,0.3-1,0.5c-0.1,0-0.1,0-0.1,0c0,0,0-0.1,0-0.1l0.7-1.3c0-0.1,0.1-0.1,0.1-0.2c0,0,0.1-0.1,0.1-0.1l5-2.2
			c0.1-0.1,0.2,0,0.1,0.1l-0.6,1.3C111.9,17.7,111.8,17.7,111.7,17.8z"/>
		<path class="st2" d="M112.3,29.3c-0.1,0.4-0.4,0.7-0.7,1c-0.3,0.3-0.8,0.4-1.2,0.4c-0.2,0-0.5-0.1-0.7-0.2
			c-0.2-0.1-0.4-0.3-0.6-0.5c-0.2-0.2-0.3-0.4-0.4-0.7c-0.1-0.3-0.1-0.5-0.1-0.8c0-0.2,0.1-0.4,0.1-0.7s0.1-0.5,0.2-0.8
			c0.1-0.3,0.2-0.5,0.3-0.8c0.1-0.3,0.3-0.5,0.4-0.7c0.2-0.2,0.3-0.4,0.5-0.5c0.2-0.1,0.4-0.2,0.6-0.2c0.4,0,0.7,0.1,1,0.4
			c0.3,0.3,0.6,0.6,0.8,1.1s0.4,0.9,0.5,1.4c0.1,0.5,0.2,1,0.2,1.5c0,0.7-0.1,1.3-0.3,2c-0.2,0.7-0.4,1.4-0.6,2.1
			c-0.3,0.7-0.6,1.3-0.9,1.9c-0.3,0.6-0.7,1.1-1.1,1.5c-0.6,0.6-1.2,1.1-1.8,1.4c-0.6,0.3-1.3,0.5-2,0.6c-0.7,0.1-1.4,0.1-2.2,0
			c-0.8-0.1-1.5-0.3-2.3-0.5c-0.1,0-0.1-0.1-0.1-0.1c0-0.1,0-0.1,0-0.2c0-0.1,0.1-0.1,0.2-0.2c0.1,0,0.2-0.1,0.3-0.1
			c0.8,0.1,1.5,0,2.1,0c0.6-0.1,1.2-0.2,1.8-0.5c0.5-0.2,1.1-0.5,1.6-0.9c0.5-0.3,1-0.8,1.5-1.2c0.4-0.3,0.7-0.7,1-1.1
			c0.3-0.4,0.6-0.8,0.9-1.3c0.3-0.4,0.5-0.9,0.7-1.3c0.2-0.4,0.3-0.9,0.4-1.2c0-0.1,0-0.2,0-0.3c0-0.1,0-0.2,0-0.3
			c0-0.1,0-0.2-0.1-0.3C112.4,29.4,112.4,29.3,112.3,29.3z M110.6,26.9c-0.1,0-0.3,0.1-0.4,0.2c-0.1,0.1-0.2,0.2-0.3,0.3
			c-0.1,0.1-0.1,0.2-0.2,0.4c0,0.1-0.1,0.2-0.1,0.3c0.1,0.2,0.3,0.3,0.5,0.4c0.2,0.1,0.4,0.1,0.6,0.1c0.2,0,0.5-0.1,0.6-0.2
			c0.2-0.1,0.3-0.2,0.4-0.3c0-0.1,0-0.2-0.1-0.4c-0.1-0.1-0.2-0.3-0.3-0.4c-0.1-0.1-0.3-0.2-0.4-0.3
			C110.8,26.9,110.7,26.9,110.6,26.9z"/>
		<path class="st2" d="M127.4,17c0,0.3,0,0.6-0.1,0.9c-0.1,0.3-0.2,0.6-0.4,0.8c-0.2,0.2-0.4,0.4-0.7,0.5c-0.3,0.1-0.6,0.2-1,0.2
			c-0.5,0-0.9-0.2-1.2-0.5s-0.5-0.7-0.5-1.2c0-0.3,0-0.6,0.1-0.9c0.1-0.4,0.2-0.7,0.4-1c0.2-0.3,0.4-0.6,0.6-0.9
			c0.3-0.3,0.6-0.4,0.9-0.4c0.3,0,0.6,0,0.9,0.2c0.2,0.2,0.4,0.4,0.5,0.7c0.1,0.3,0.2,0.6,0.3,0.9C127.4,16.5,127.4,16.8,127.4,17z
			 M124.2,17.4c0,0.2,0,0.3,0.1,0.4c0.1,0.1,0.2,0.2,0.3,0.2c0.1,0,0.2,0.1,0.4,0.1c0.1,0,0.3,0,0.4,0c0.3,0,0.5-0.1,0.7-0.2
			c0.2-0.1,0.4-0.3,0.6-0.4c0-0.2,0-0.3-0.1-0.5s-0.1-0.3-0.3-0.5c-0.1-0.1-0.3-0.3-0.4-0.3c-0.2-0.1-0.4-0.1-0.6-0.1
			c-0.1,0-0.3,0.1-0.4,0.2c-0.1,0.1-0.3,0.2-0.4,0.3c-0.1,0.1-0.2,0.3-0.3,0.4C124.3,17.1,124.2,17.2,124.2,17.4z"/>
		<path class="st2" d="M127.1,27.1c0.2,0,0.3,0,0.5,0.2c0.1,0.1,0.3,0.2,0.5,0.4c0.2,0.2,0.3,0.3,0.5,0.5c0.2,0.2,0.3,0.4,0.5,0.5
			c0.3,0.2,0.5,0.4,0.8,0.5c0.3,0.1,0.6,0.2,0.9,0.3c0.3,0.1,0.7,0.1,1,0.1c0.3,0,0.7,0,1,0h0.2c0.3,0,0.5,0.1,0.6,0.3
			c0.1,0.2,0.2,0.5,0.2,0.7c0,0.3-0.1,0.5-0.2,0.7c-0.1,0.2-0.4,0.3-0.6,0.3h-0.2c-0.2,0-0.4,0-0.7,0c-0.2,0-0.5,0-0.8,0
			c-0.3,0-0.6,0-0.9-0.1c-0.3,0-0.6-0.1-1-0.2c0,0.2-0.1,0.5-0.1,0.7c0,0.2-0.1,0.3-0.2,0.3c-0.3,0.1-0.8,0.1-1.3,0
			c-0.5-0.1-1-0.2-1.5-0.3c-0.5-0.2-0.9-0.4-1.3-0.6c-0.4-0.2-0.6-0.5-0.8-0.7c-0.2,0.1-0.4,0.2-0.6,0.3c-0.2,0.1-0.4,0.3-0.6,0.5
			c-0.2,0.2-0.3,0.4-0.4,0.6c-0.1,0.2-0.2,0.4-0.2,0.6c0,0.3,0,0.8,0.1,1.4c0.1,0.6,0.2,1.1,0.3,1.8c0.1,0.6,0.2,1.2,0.3,1.8
			c0.1,0.6,0.2,1.1,0.3,1.6c0.1,0.4,0.1,0.8,0.2,1.3c0.1,0.5,0.1,0.9,0.1,1.4c0,0.5,0,0.9,0,1.3c0,0.4-0.1,0.7-0.1,1
			c0,0.1-0.1,0.2-0.2,0.2c-0.1,0-0.1-0.1-0.2-0.2c-0.1-0.2-0.1-0.4-0.1-0.5c0-0.2,0-0.4-0.1-0.5c0-0.2-0.1-0.5-0.2-1
			c-0.1-0.5-0.2-1.2-0.3-2.1c-0.1-0.8-0.2-1.6-0.4-2.3c-0.1-0.7-0.2-1.3-0.3-1.9c-0.1-0.5-0.2-1-0.2-1.4c-0.1-0.4-0.1-0.8-0.1-1.1
			c0-0.8,0-1.5,0.3-2.1c0.2-0.6,0.6-1.1,1-1.5c0.2-0.2,0.4-0.4,0.8-0.7s0.7-0.6,1.1-0.9c0.4-0.3,0.8-0.5,1.2-0.8
			C126.6,27.2,126.9,27.1,127.1,27.1z M126.8,28.6c-0.2,0-0.5,0-0.8,0.2c-0.3,0.1-0.5,0.3-0.7,0.4c-0.1,0.1-0.1,0.2,0,0.2
			c0.2,0.1,0.4,0.3,0.7,0.4c0.3,0.1,0.6,0.2,0.9,0.3c0.3,0.1,0.6,0.2,0.8,0.2s0.4,0,0.6,0c-0.1-0.2-0.2-0.4-0.4-0.6
			c-0.2-0.2-0.3-0.4-0.5-0.5c-0.2-0.2-0.3-0.3-0.4-0.4C126.9,28.6,126.9,28.6,126.8,28.6z"/>
		<path class="st1" d="M136.4,17.1c0.3-0.2,0.6-0.3,0.9-0.5c0.3-0.2,0.6-0.4,0.8-0.6c0.3-0.2,0.6-0.4,0.8-0.7
			c0.3-0.2,0.5-0.5,0.8-0.8c-0.2-0.1-0.5-0.2-0.8-0.4c-0.3-0.2-0.5-0.4-0.7-0.6c-0.1-0.1-0.1-0.2-0.2-0.4c0-0.2,0-0.3,0-0.4
			c0.1-0.2,0.2-0.5,0.3-0.7c0.1-0.3,0.3-0.5,0.5-0.7c0.2-0.2,0.4-0.4,0.6-0.5c0.2-0.1,0.4-0.2,0.7-0.2c0.3,0,0.5,0.2,0.6,0.4
			c0.1,0.3,0.2,0.5,0.2,0.9c0,0.3,0,0.7,0,1c0,0.3-0.1,0.6-0.1,0.7c0,0,0,0.1,0,0.1c0.1,0.1,0.2,0.1,0.2,0.2c0,0.1,0.1,0.1,0.1,0.2
			c0.1,0.1,0.1,0.3,0,0.5c0,0.2-0.1,0.3-0.2,0.4c-0.1,0.1-0.1,0.1-0.2,0.1c-0.1,0-0.1,0-0.2-0.1c0-0.1-0.1-0.1-0.1-0.2
			s-0.1-0.1-0.2-0.1c-0.3,0.3-0.5,0.6-0.8,0.9c-0.3,0.3-0.6,0.5-0.9,0.8c-0.3,0.2-0.7,0.4-1,0.6c-0.4,0.2-0.7,0.3-1.1,0.5
			c-0.2,0-0.3,0.1-0.5,0.1c-0.2,0-0.3,0-0.3,0c0-0.1,0-0.1,0.1-0.2C136.2,17.2,136.3,17.1,136.4,17.1z M139,12.5
			c0.2,0.3,0.4,0.5,0.7,0.6c0.3,0.2,0.5,0.3,0.7,0.3h0c0-0.1,0-0.2,0-0.3c0-0.1,0-0.2,0-0.4c0-0.1,0-0.3-0.1-0.4
			c0-0.1-0.1-0.2-0.2-0.3c-0.1-0.1-0.2-0.1-0.3-0.1c-0.1,0-0.3,0-0.4,0.1c-0.1,0-0.2,0.1-0.3,0.2C139.1,12.3,139,12.4,139,12.5z"/>
		<path class="st1" d="M132.9,29.6c0.9,0,2,0,3.1,0c1.2,0,2.4,0,3.8-0.1c1.3,0,2.8-0.1,4.2-0.2c1.5-0.1,3-0.2,4.5-0.3
			c1.5-0.1,3.1-0.3,4.7-0.4c1.6-0.2,3.2-0.4,4.7-0.6c0-0.3-0.1-0.6-0.2-0.9c-0.1-0.3-0.3-0.5-0.5-0.6c-0.2-0.2-0.5-0.3-0.7-0.4
			c-0.3-0.1-0.6-0.1-0.9-0.1c-0.8,0-1.6,0.1-2.5,0.2c-0.9,0.1-1.9,0.2-2.9,0.3c-1,0.1-2.1,0.2-3.2,0.3c-1.1,0.1-2.2,0.2-3.2,0.2
			c-1.1,0.1-2.1,0.1-3.2,0.1c-1,0-2,0-2.9-0.1c-0.1,0-0.3,0-0.5,0c-0.2,0-0.5-0.1-0.8-0.1c-0.3,0-0.6-0.1-0.9-0.1
			c-0.3-0.1-0.6-0.1-0.8-0.2c-0.3-0.1-0.5-0.2-0.6-0.3c-0.2-0.1-0.2-0.2-0.2-0.4c0-0.3,0-0.7,0.2-1.1c0.1-0.4,0.3-0.8,0.5-1.1
			c0.2-0.4,0.4-0.7,0.7-1c0.3-0.3,0.5-0.6,0.7-0.8c1.9-1.6,4.1-2.7,6.5-3.4c0.1,0,0.2,0,0.2,0c0.1,0,0.1,0,0.1,0.1c0,0,0,0.1,0,0.2
			c0,0.1,0,0.1,0,0.2c-0.1,0.2-0.2,0.5-0.3,0.8c-0.1,0.3-0.3,0.5-0.4,0.8c-0.2,0-0.4,0.1-0.7,0.2c-0.3,0.1-0.6,0.2-1,0.3
			c-0.4,0.1-0.8,0.3-1.2,0.5c-0.4,0.2-0.9,0.4-1.3,0.6c-0.3,0.2-0.7,0.3-1,0.5c-0.3,0.2-0.6,0.4-0.8,0.6c-0.2,0.2-0.4,0.4-0.6,0.6
			c-0.1,0.2-0.2,0.4-0.2,0.5c0.1,0.2,0.2,0.3,0.5,0.4c0.3,0.1,0.5,0.2,0.8,0.3c0.3,0.1,0.6,0.1,0.9,0.2c0.3,0,0.5,0.1,0.7,0.1
			c0.7,0.1,1.4,0.1,2.2,0.1c0.8,0,1.6,0,2.5,0c0.9,0,1.7-0.1,2.6-0.1c0.9,0,1.7-0.1,2.5-0.2c0.8-0.1,1.6-0.1,2.3-0.2
			c0.7-0.1,1.4-0.1,1.9-0.2c0.5,0,1-0.1,1.5-0.1c0.5,0,1-0.1,1.5-0.1c0.5,0,1,0,1.4,0.1c0.5,0.1,0.9,0.2,1.2,0.4
			c0.4,0.2,0.6,0.4,0.9,0.8c0.2,0.3,0.4,0.7,0.4,1.2c0,0.2,0,0.5,0,0.8c0,0.3-0.1,0.5-0.2,0.8c-0.1,0.3-0.2,0.5-0.3,0.7
			c-0.1,0.2-0.2,0.4-0.3,0.6c0,0.1,0.1,0.1,0.2,0.2c0.1,0,0.2,0,0.4,0.1c0.2,0,0.3,0,0.6,0c0.2,0,0.5,0,0.8,0h0.3
			c0.3,0,0.5,0.1,0.6,0.3c0.1,0.2,0.2,0.5,0.2,0.7c0,0.3-0.1,0.5-0.2,0.7c-0.1,0.2-0.3,0.3-0.6,0.3h-0.3c-0.5,0-1,0-1.3-0.1
			s-0.6-0.1-0.8-0.3c-0.2-0.1-0.3-0.3-0.4-0.5c-0.1-0.2-0.1-0.5-0.1-0.9c-1.5,0.2-3,0.5-4.6,0.6c-1.6,0.2-3.2,0.3-4.8,0.5
			c-1.6,0.1-3.2,0.2-4.7,0.3c-1.5,0.1-3,0.2-4.3,0.2c-1.3,0-2.6,0.1-3.7,0.1c-1.1,0-2,0-2.7,0h-0.2c-0.3,0-0.5-0.1-0.6-0.3
			c-0.1-0.2-0.2-0.5-0.2-0.7c0-0.3,0.1-0.5,0.2-0.7c0.1-0.2,0.4-0.3,0.6-0.3H132.9z"/>
		<path class="st1" d="M166,19.1c0.3-0.2,0.6-0.3,0.9-0.5c0.3-0.2,0.6-0.4,0.8-0.6c0.3-0.2,0.6-0.4,0.8-0.7c0.3-0.2,0.5-0.5,0.8-0.8
			c-0.2-0.1-0.5-0.2-0.8-0.4c-0.3-0.2-0.5-0.4-0.7-0.6c-0.1-0.1-0.1-0.2-0.2-0.4c0-0.2,0-0.3,0-0.4c0.1-0.2,0.2-0.5,0.3-0.7
			c0.1-0.3,0.3-0.5,0.5-0.7c0.2-0.2,0.4-0.4,0.6-0.5c0.2-0.1,0.4-0.2,0.7-0.2c0.3,0,0.5,0.2,0.6,0.4c0.1,0.3,0.2,0.5,0.2,0.9
			c0,0.3,0,0.7,0,1c0,0.3-0.1,0.6-0.1,0.7c0,0,0,0.1,0,0.1c0.1,0.1,0.2,0.1,0.2,0.2c0,0.1,0.1,0.1,0.1,0.2c0.1,0.1,0.1,0.3,0,0.5
			c0,0.2-0.1,0.3-0.2,0.4c-0.1,0.1-0.1,0.1-0.2,0.1s-0.1,0-0.2-0.1c0-0.1-0.1-0.1-0.1-0.2c0,0-0.1-0.1-0.2-0.1
			c-0.3,0.3-0.5,0.6-0.8,0.9c-0.3,0.3-0.6,0.5-0.9,0.8c-0.3,0.2-0.7,0.4-1,0.6s-0.7,0.3-1.1,0.5c-0.2,0-0.3,0.1-0.5,0.1
			c-0.2,0-0.3,0-0.3,0c0-0.1,0-0.1,0.1-0.2C165.7,19.3,165.8,19.2,166,19.1z M168.5,14.5c0.2,0.3,0.4,0.5,0.7,0.6
			c0.3,0.2,0.5,0.3,0.7,0.3h0c0-0.1,0-0.2,0-0.3c0-0.1,0-0.2,0-0.4c0-0.1,0-0.3-0.1-0.4c0-0.1-0.1-0.2-0.2-0.3
			c-0.1-0.1-0.2-0.1-0.3-0.1c-0.1,0-0.3,0-0.4,0.1c-0.1,0-0.2,0.1-0.3,0.2C168.6,14.4,168.5,14.4,168.5,14.5z"/>
		<path class="st1" d="M169.9,27.2c0.1-0.2,0.2-0.3,0.3-0.3c0.1,0,0.1,0.1,0.1,0.3c0,0.2-0.1,0.4-0.2,0.6c-0.1,0.2-0.2,0.4-0.3,0.7
			c0.1,0.2,0.2,0.3,0.4,0.5c0.2,0.2,0.5,0.3,0.8,0.4c0.3,0.1,0.6,0.2,0.8,0.2c0.3,0,0.5,0,0.7,0c0.3-0.1,0.6-0.4,0.8-0.8
			c0.2-0.5,0.4-0.9,0.5-1.5c0.1-0.3,0.2-0.4,0.3-0.5s0.2,0.1,0.2,0.3c0,0.5,0.1,0.8,0.2,1.2c0.1,0.3,0.3,0.6,0.6,0.8
			c0.5,0.4,1.3,0.6,2.4,0.6h0.2c0.3,0,0.5,0.1,0.7,0.3c0.1,0.2,0.2,0.5,0.2,0.7c0,0.3-0.1,0.5-0.2,0.7c-0.1,0.2-0.4,0.3-0.7,0.3
			h-0.2c-0.5,0-0.9,0-1.2-0.1c-0.3-0.1-0.7-0.2-1-0.3c-0.8-0.3-1.3-0.9-1.7-1.6c-0.1,0.1-0.1,0.3-0.2,0.5c-0.1,0.2-0.2,0.4-0.3,0.6
			c-0.1,0.2-0.3,0.3-0.4,0.5c-0.2,0.1-0.3,0.2-0.5,0.2c-0.2,0-0.5,0-0.8-0.1c-0.3-0.1-0.6-0.1-0.9-0.3c-0.3-0.1-0.6-0.3-0.9-0.4
			c-0.3-0.2-0.5-0.4-0.7-0.6c-0.3,0.4-0.7,0.7-1.1,0.9c-0.4,0.2-0.8,0.4-1.3,0.5c-0.5,0.1-0.9,0.1-1.4,0c-0.5-0.1-1-0.3-1.5-0.5
			c-0.2,0.2-0.5,0.3-0.8,0.4c-0.3,0.1-0.6,0.2-0.8,0.2c-0.3,0.1-0.6,0.1-0.8,0.1c-0.3,0-0.5,0-0.7,0h-0.2c-0.3,0-0.5-0.1-0.6-0.3
			c-0.1-0.2-0.2-0.5-0.2-0.7c0-0.3,0.1-0.5,0.2-0.7c0.1-0.2,0.3-0.3,0.6-0.3h0.2c0.5,0,1.1,0,1.5-0.1c0.5,0,0.9-0.1,1.3-0.3
			c0.4-0.1,0.8-0.4,1.1-0.7c0.4-0.3,0.7-0.7,1-1.2c0.1-0.2,0.2-0.3,0.3-0.3c0.1,0,0.1,0.1,0.1,0.3c-0.1,0.3-0.2,0.7-0.3,1.1
			c-0.1,0.4-0.3,0.7-0.5,1c0.2,0.1,0.4,0.1,0.7,0.1c0.3,0,0.6,0,0.9,0c0.4,0,0.9-0.1,1.3-0.3s0.8-0.4,1.1-0.7
			c0.2-0.2,0.4-0.4,0.6-0.6C169.5,27.7,169.7,27.5,169.9,27.2z"/>
		<path class="st1" d="M180.4,15.7c0.3-0.2,0.6-0.3,0.9-0.5c0.3-0.2,0.6-0.4,0.8-0.6c0.3-0.2,0.6-0.4,0.8-0.7
			c0.3-0.2,0.5-0.5,0.8-0.8c-0.2-0.1-0.5-0.2-0.8-0.4c-0.3-0.2-0.5-0.4-0.7-0.6c-0.1-0.1-0.1-0.2-0.2-0.4c0-0.2,0-0.3,0-0.4
			c0.1-0.2,0.2-0.5,0.3-0.7c0.1-0.3,0.3-0.5,0.5-0.7c0.2-0.2,0.4-0.4,0.6-0.5c0.2-0.1,0.4-0.2,0.7-0.2c0.3,0,0.5,0.2,0.6,0.4
			s0.2,0.5,0.2,0.9c0,0.3,0,0.7,0,1c0,0.3-0.1,0.6-0.1,0.7c0,0,0,0.1,0,0.1c0.1,0.1,0.2,0.1,0.2,0.2c0,0.1,0.1,0.1,0.1,0.2
			c0.1,0.1,0.1,0.3,0,0.5c0,0.2-0.1,0.3-0.2,0.4c-0.1,0.1-0.1,0.1-0.2,0.1c-0.1,0-0.1,0-0.2-0.1c0-0.1-0.1-0.1-0.1-0.2
			s-0.1-0.1-0.2-0.1c-0.3,0.3-0.5,0.6-0.8,0.9c-0.3,0.3-0.6,0.5-0.9,0.8c-0.3,0.2-0.7,0.4-1,0.6c-0.4,0.2-0.7,0.3-1.1,0.5
			c-0.2,0-0.3,0.1-0.5,0.1c-0.2,0-0.3,0-0.3,0c0-0.1,0-0.1,0.1-0.2C180.2,15.9,180.3,15.8,180.4,15.7z M183,11.1
			c0.2,0.3,0.4,0.5,0.7,0.6c0.3,0.2,0.5,0.3,0.7,0.3h0c0-0.1,0-0.2,0-0.3c0-0.1,0-0.2,0-0.4c0-0.1,0-0.3-0.1-0.4
			c0-0.1-0.1-0.2-0.2-0.3c-0.1-0.1-0.2-0.1-0.3-0.1c-0.1,0-0.3,0-0.4,0.1c-0.1,0-0.2,0.1-0.3,0.2C183,10.9,183,11,183,11.1z"/>
		<path class="st1" d="M186.3,27.2c-0.1,0.4-0.3,0.8-0.5,1.1c-0.2,0.3-0.4,0.7-0.7,1c0.2,0.1,0.3,0.2,0.6,0.2
			c0.2,0.1,0.5,0.1,0.7,0.1c0.2,0,0.5,0,0.8,0c0.3,0,0.5,0,0.7,0h0.2c0.3,0,0.5,0.1,0.6,0.4c0.1,0.2,0.2,0.5,0.2,0.7
			c0,0.3-0.1,0.5-0.2,0.7c-0.1,0.2-0.4,0.3-0.6,0.3H188c-1,0-2-0.1-2.9-0.3c-0.9-0.2-1.7-0.5-2.4-0.9c-0.4,0.2-0.8,0.4-1.1,0.5
			c-0.4,0.2-0.8,0.3-1.2,0.4c-0.4,0.1-0.8,0.2-1.3,0.3c-0.5,0.1-1,0.1-1.5,0.1h-0.2c-0.3,0-0.5-0.1-0.7-0.3
			c-0.1-0.2-0.2-0.5-0.2-0.8c0-0.3,0.1-0.5,0.2-0.7c0.1-0.2,0.4-0.3,0.7-0.3h0.2c0.3,0,0.6,0,0.8,0c0.3,0,0.5,0,0.8-0.1
			c0.3,0,0.6-0.1,0.8-0.1c0.3-0.1,0.6-0.2,0.9-0.3c-0.1-0.2-0.2-0.3-0.2-0.6c0-0.2-0.1-0.5,0-0.7c0-0.6,0.2-1.2,0.5-1.8
			c0.3-0.6,0.6-1.1,1.1-1.6c0.4-0.5,0.9-0.8,1.3-1.1c0.5-0.3,0.9-0.4,1.3-0.4c0.4,0,0.8,0.2,1,0.6c0.2,0.3,0.4,0.7,0.5,1.2
			c0.1,0.4,0.1,0.9,0.1,1.4C186.4,26.6,186.4,26.9,186.3,27.2z M184.8,25.5c-0.1-0.1-0.2-0.2-0.3-0.2c-0.1,0-0.3-0.1-0.4-0.1
			c-0.2,0-0.4,0.1-0.6,0.2c-0.2,0.1-0.4,0.2-0.7,0.3c-0.2,0.1-0.4,0.3-0.6,0.5c-0.2,0.2-0.3,0.4-0.4,0.6c0,0.2,0.1,0.4,0.2,0.6
			c0.1,0.2,0.2,0.3,0.4,0.5c0.1,0.1,0.3,0.2,0.4,0.3c0.2,0.1,0.3,0.1,0.4,0.2c0.1,0,0.3-0.1,0.5-0.2c0.2-0.1,0.4-0.2,0.7-0.3
			c0.2-0.1,0.5-0.3,0.7-0.4c0.2-0.2,0.3-0.3,0.4-0.5c0-0.3,0-0.5-0.2-0.8C185.1,25.9,185,25.7,184.8,25.5z M183.2,17.5l1.6,1.4
			c0.1,0.1,0.1,0.1,0,0.2l-1.1,1.4c-0.1,0.1-0.1,0.1-0.2,0l-1.6-1.4c-0.1-0.1-0.1-0.1,0-0.2l1.1-1.4
			C183.1,17.4,183.2,17.4,183.2,17.5z"/>
		<path class="st1" d="M191.5,24.3c0.3,0.3,0.5,0.5,0.7,0.8c0.2,0.3,0.4,0.6,0.6,0.9c0.2,0.3,0.3,0.7,0.4,1c0.1,0.3,0.1,0.7,0.1,1.1
			c0,0.2,0,0.3,0,0.5c0,0.2,0,0.4-0.1,0.6c0,0.2-0.1,0.4-0.1,0.6c-0.1,0.2-0.1,0.3-0.2,0.5c-0.2,0.3-0.5,0.6-0.9,0.8
			c-0.4,0.2-0.8,0.4-1.3,0.5c-0.5,0.1-0.9,0.2-1.4,0.2c-0.5,0-0.9,0-1.3,0h-0.2c-0.3,0-0.5-0.1-0.6-0.3c-0.1-0.2-0.2-0.5-0.2-0.7
			c0-0.3,0.1-0.5,0.2-0.7c0.1-0.2,0.4-0.3,0.6-0.3h0.2c0.4,0,0.9,0,1.3,0c0.4,0,0.8,0,1.2-0.1c0.4,0,0.7-0.1,1.1-0.2
			c0.3-0.1,0.6-0.2,0.7-0.3c0.1-0.1,0.2-0.1,0.2-0.2c0-0.1,0-0.2-0.1-0.3c-0.1-0.2-0.2-0.5-0.3-0.7c-0.1-0.2-0.2-0.4-0.4-0.6
			c-0.1-0.2-0.3-0.4-0.5-0.5c-0.2-0.2-0.3-0.3-0.5-0.5l0.5-1.9c0-0.1,0.1-0.2,0.1-0.2C191.4,24.2,191.5,24.2,191.5,24.3z
			 M190.2,18.2l1.7,1.4c0.1,0.1,0.1,0.1,0,0.2l-1.1,1.4c-0.1,0.1-0.1,0.1-0.2,0l-1.7-1.4c-0.1-0.1-0.1-0.1,0-0.2l1.1-1.4
			C190.1,18.2,190.1,18.2,190.2,18.2z"/>
		<path class="st1" d="M199.3,4.1c-0.5,0.2-0.9,0.4-1.4,0.7c-0.5,0.2-1,0.4-1.4,0.7c-0.5,0.2-0.9,0.4-1.3,0.6
			c-0.4,0.2-0.7,0.3-1,0.5c-0.1,0-0.1,0-0.1,0c0,0,0-0.1,0-0.1l0.7-1.3c0-0.1,0.1-0.1,0.1-0.2c0,0,0.1-0.1,0.1-0.1l5-2.2
			c0.1-0.1,0.2,0,0.1,0.1l-0.6,1.3C199.4,4,199.4,4,199.3,4.1z"/>
		<path class="st1" d="M195,12c0.1,0,0.1-0.1,0.2-0.1c0.1,0,0.2-0.1,0.3-0.2c0.1-0.1,0.2-0.1,0.3-0.2c0.1-0.1,0.2-0.1,0.3-0.2
			c-0.2-0.2-0.4-0.4-0.6-0.6c-0.2-0.2-0.3-0.5-0.4-0.7c-0.1-0.2-0.1-0.3,0-0.5c0-0.2,0.1-0.3,0.2-0.5c0.1-0.2,0.3-0.4,0.5-0.6
			c0.2-0.2,0.4-0.4,0.6-0.6c0.2-0.2,0.5-0.3,0.7-0.4c0.3-0.1,0.5-0.2,0.8-0.2c0.1,0,0.2,0,0.3,0.1c0.1,0.1,0.2,0.2,0.3,0.2
			c0.1,0.1,0.1,0.2,0.2,0.3c0.1,0.1,0.1,0.2,0.1,0.3c0.1,0.2,0.1,0.4,0,0.5c-0.2,0.3-0.3,0.5-0.4,0.6c-0.1,0.1-0.2,0.1-0.2,0.1
			c-0.1,0-0.1-0.1-0.2-0.2c0-0.1-0.1-0.2-0.1-0.4c-0.1-0.2-0.2-0.3-0.3-0.3c-0.1,0-0.2-0.1-0.4-0.1c-0.4,0-0.8,0.2-1.2,0.5
			c0.1,0.2,0.2,0.3,0.3,0.5c0.1,0.2,0.2,0.3,0.4,0.4c0.1,0.1,0.3,0.2,0.5,0.3c0.2,0.1,0.3,0.1,0.5,0.2c0.5,0,0.9,0,1.3,0
			c0.4-0.1,0.9-0.2,1.3-0.3c0,0,0,0.1,0,0.2c0,0.1-0.1,0.3-0.1,0.4c-0.1,0.2-0.1,0.3-0.2,0.4c-0.1,0.1-0.1,0.2-0.1,0.2
			c-0.4,0-0.8,0.1-1.2,0.2c-0.4,0.1-0.8,0.2-1.3,0.3c-0.4,0.1-0.9,0.3-1.3,0.5c-0.5,0.2-0.9,0.4-1.3,0.6c-0.1,0-0.1,0-0.1,0
			c0,0,0-0.1,0-0.1c0-0.1,0-0.1,0.1-0.2c0-0.1,0.1-0.2,0.1-0.3c0-0.1,0.1-0.2,0.1-0.3C194.9,12.2,194.9,12.1,195,12z M197.4,14
			c0.1,0,0.2,0.2,0.2,0.5c0,0.3,0,0.7,0,1c0,0.3,0.1,0.7,0.1,1c0.1,0.8,0.2,1.6,0.3,2.5c0.1,0.9,0.2,1.7,0.3,2.6
			c0.1,0.9,0.2,1.7,0.3,2.6c0.1,0.9,0.2,1.7,0.2,2.5c0,0.3,0.1,0.7,0.1,1.1s0,0.9,0,1.3c0,0.4-0.1,0.9-0.2,1.3
			c-0.1,0.4-0.2,0.8-0.3,1c-0.1,0.2-0.2,0.3-0.3,0.3c-0.1,0-0.1,0-0.1-0.1c0-0.8-0.1-1.6-0.1-2.4c-0.1-0.8-0.1-1.6-0.2-2.5
			c-0.1-0.9-0.2-1.7-0.3-2.6c-0.1-0.8-0.2-1.7-0.3-2.5c-0.1-0.8-0.2-1.7-0.3-2.5c-0.1-0.8-0.2-1.7-0.3-2.6c0-0.2,0.1-0.4,0.1-0.6
			c0.1-0.2,0.1-0.5,0.3-0.7c0.2-0.6,0.4-1,0.5-1.1S197.4,14,197.4,14z"/>
		<path class="st1" d="M222.2,24.7c0,0.2-0.1,0.5-0.3,0.7c-0.3,0.3-0.7,0.6-1.3,1c0,0.6-0.1,1.1-0.3,1.7c-0.1,0.5-0.3,0.7-0.5,0.7
			c-0.6-0.6-1.2-1.1-1.7-1.5c-0.6-0.5-1.2-0.7-1.9-0.7c0.1,0.6,0.4,1.2,0.9,1.9c0.5,0.5,1,1.1,1.5,1.6c0,0.3-0.5,0.5-1.5,0.7
			c-0.8,0.2-1.4,0.2-1.8,0.2c-0.7,2.2-1.7,4.2-3.1,6c-0.6,0.8-1.3,1.7-2.3,2.6c-1.3,1.2-2.2,1.8-2.8,1.8c-0.2,0-0.3-0.1-0.3-0.3
			c0-0.1,0.4-0.6,1.1-1.4c1-1.2,1.8-2.2,2.3-3.2c0.9-1.7,1.5-3.6,1.8-5.7c-0.7-0.1-1.1-0.2-1.3-0.3c-0.2-0.1-0.3-0.2-0.3-0.4
			c1.5-1.2,2.2-2.4,2.2-3.4c-0.6,0-1.2,0.2-1.8,0.7c-0.4,0.4-0.9,0.9-1.6,1.6c-0.2,0-0.4-0.3-0.6-0.8c-0.2-0.6-0.3-1.1-0.3-1.7
			c-0.7-0.4-1-0.5-1.1-0.6c-0.4-0.3-0.6-0.6-0.6-1c0-0.2,0.1-0.4,0.3-0.6c0.1-0.1,0.6-0.4,1.3-0.8c0-1.7,0.3-2.5,0.9-2.5
			c1.2,1.3,2.4,2.1,3.4,2.2c0-0.5-0.3-1.2-0.8-1.9c0-0.1-0.5-0.6-1.5-1.6c0-0.1,0.1-0.3,0.4-0.4c0.2-0.1,0.7-0.2,1.3-0.3
			c-0.3-1.7-1-3.4-2-5.2c-1-1.8-2.2-3.2-3.4-4.4c-0.2-0.2-0.3-0.4-0.3-0.5c0-0.1,0.1-0.2,0.4-0.3c0.4,0,1.1,0.3,2,1
			c2.8,2,4.9,5,6.4,9.1c2.2,0,3.2,0.3,3.2,0.9c-0.6,0.5-1.1,1-1.4,1.5c-0.4,0.6-0.7,1.2-0.7,1.9c0.5,0,1-0.3,1.6-0.8l1.7-1.5
			c0.4,0,0.6,0.7,0.8,2.2c0,0.1,0,0.3,0.1,0.4C221.6,23.8,222.2,24.3,222.2,24.7z M217.2,19.7c0-0.1-0.2-0.1-0.6-0.2
			c-0.4-0.1-0.7-0.1-0.9-0.1h-0.6c-0.1,0-0.3,0-0.4,0.1c-0.6-1.9-1.5-3.7-2.6-5.4c-1.3-1.9-2.9-3.4-4.6-4.6c1.2,1.1,2.2,2.5,3.1,4
			c1.1,1.9,1.8,3.9,2.2,5.9c-0.8,0.1-1.2,0.2-1.3,0.4c0.9,0.7,1.6,1.5,2,2.3c0.1-0.3,0.3-0.7,0.5-1.1c0-0.1,0.1-0.2,0.2-0.5
			c0.1-0.3,0.2-0.4,0.3-0.4c0.3,0,0.6,0.7,1.1,2.1c0.2-0.5,0.5-1,0.9-1.5C216.6,20.4,216.8,20.1,217.2,19.7z M211.9,26
			c-0.2-0.1-0.8-0.3-1.7-0.6c-0.6-0.2-1-0.4-1-0.5c0-0.1,0.5-0.3,1.5-0.7c0.2-0.1,0.6-0.2,1.1-0.4c-0.5-0.2-1-0.4-1.5-0.8
			c-0.2-0.2-0.6-0.5-1-1c-0.2,0-0.3,0.6-0.3,1.8c-0.9,0.5-1.4,0.9-1.4,1.1c0,0.2,0.5,0.5,1.4,0.9c0,1.3,0.1,2,0.4,2
			c0,0,0.3-0.3,1-0.8C211.1,26.4,211.6,26.1,211.9,26z M217.4,29.9c-0.7-0.6-1.4-1.3-1.8-2.2c-0.1,0.2-0.3,0.6-0.5,1
			c-0.1,0.1-0.2,0.3-0.3,0.6c-0.2,0.3-0.3,0.4-0.3,0.4c-0.1,0-0.2-0.2-0.3-0.5c-0.1-0.3-0.2-0.5-0.2-0.5c0-0.2-0.2-0.5-0.5-1.1
			c-0.1,0.4-0.4,0.9-0.8,1.3c-0.3,0.3-0.6,0.7-1,1c0,0.1,0.4,0.2,1.2,0.4c-0.5,2-0.8,3.2-1,3.7c-0.7,2.2-2,4.3-3.7,6.3
			c2.9-2,5.1-5.3,6.7-10.1c1.1,0,1.6,0,1.4,0C217,30.2,217.4,30.1,217.4,29.9z M216.5,24.8c0-0.6-0.2-1-0.6-1.4
			c-0.4-0.4-0.9-0.5-1.4-0.5c-0.5,0-1,0.2-1.4,0.6c-0.4,0.4-0.6,0.8-0.6,1.4c0,0.6,0.2,1,0.6,1.4c0.4,0.4,0.9,0.6,1.4,0.6
			c0.6,0,1.1-0.2,1.4-0.6C216.3,25.9,216.5,25.4,216.5,24.8z M221.3,24.7c0-0.1-0.1-0.3-0.4-0.4c-0.3-0.2-0.6-0.3-1-0.5
			c0-0.6,0-1-0.1-1.4c-0.1-0.4-0.2-0.6-0.3-0.6c-0.1,0-0.3,0.3-0.8,0.8c-0.5,0.5-1,0.9-1.7,1.1c0.3,0.1,0.7,0.3,1.2,0.6
			c0.1,0,0.4,0.1,0.9,0.3c0.4,0.1,0.6,0.3,0.6,0.3c0,0.1-0.3,0.3-1,0.5c-1,0.3-1.6,0.4-1.7,0.5c0.6,0.2,1.1,0.4,1.5,0.8
			c0.2,0.2,0.6,0.5,1,1c0.1,0,0.2-0.2,0.3-0.5c0-0.2,0-0.6,0-1.3C220.8,25.3,221.3,24.9,221.3,24.7z"/>
		<path class="st1" d="M234.1,16.4c0,0.5-0.1,1-0.3,1.5c0.2,0.1,0.4,0.3,0.4,0.4c0,0.4-0.2,0.7-0.3,1c-0.1,0.1-0.1,0.1-0.1,0.1
			l-0.5-0.3c-0.5,0.8-1.3,1.8-2.5,2.3c-0.4,0.2-0.9,0.4-1.5,0.4c-0.3,0-0.4-0.1-0.4-0.1c0-0.1,0.2-0.2,0.6-0.4
			c0.9-0.5,2.5-1.8,3.1-2.5c-0.5-0.3-1.1-0.7-1.1-1.4c0-0.4,0.2-0.9,0.6-1.3c0.4-0.5,0.8-0.8,1.2-0.8
			C233.9,15.2,234.1,15.9,234.1,16.4z M232.3,16.9C232.3,16.9,232.3,16.9,232.3,16.9c0,0.2,0.4,0.5,0.8,0.7c0.1-0.2,0.1-0.4,0.1-0.7
			c0-0.3-0.1-0.4-0.3-0.4C232.7,16.5,232.4,16.6,232.3,16.9z"/>
		<path class="st1" d="M240.1,9.8c0,0.5-0.1,1-0.3,1.5c0.2,0.1,0.4,0.3,0.4,0.4c0,0.4-0.2,0.7-0.3,1c-0.1,0.1-0.1,0.1-0.1,0.1
			l-0.5-0.3c-0.5,0.8-1.3,1.8-2.5,2.3c-0.4,0.2-0.9,0.4-1.5,0.4c-0.3,0-0.4-0.1-0.4-0.1c0-0.1,0.2-0.2,0.6-0.4
			c0.9-0.5,2.5-1.8,3.1-2.5c-0.5-0.3-1.1-0.7-1.1-1.4c0-0.4,0.2-0.9,0.6-1.3c0.4-0.5,0.8-0.8,1.2-0.8C239.9,8.6,240.1,9.3,240.1,9.8
			z M238.3,10.3C238.3,10.3,238.3,10.3,238.3,10.3c0,0.2,0.4,0.5,0.8,0.7c0.1-0.2,0.1-0.4,0.1-0.7c0-0.3-0.1-0.4-0.3-0.4
			C238.7,9.9,238.5,10,238.3,10.3z"/>
		<path class="st1" d="M237.6,17.7c0-0.1,0-0.2,0-0.3c0,0,0-0.1,0-0.2c0-0.1,0.2-0.5,0.5-1c0.3-0.5,0.5-0.9,0.7-0.9
			c0.1,0,0.1,0.1,0.2,0.2c0.3,1,0.6,1.4,0.8,1.7c0,0.1,0.1,0.2,0.1,0.2c0,0.1,0,0.1,0,0.2c-0.1,0.2-0.4,0.8-0.6,1.1
			c0,0.6,0.2,2.2,0.5,4.3c0.2,2,0.3,3.1,0.3,3.6c0,1.7-0.4,3-1.1,4c-0.6,0.7-1.4,1-2.3,1c-0.7,0-1.3-0.2-1.8-0.8
			c-0.4-0.5-0.8-1.4-1.1-2.8c-0.5,1.2-1.2,1.8-2.2,1.8c-0.1,0-0.1,0-0.4,0c-0.7,0-1.1-0.1-1.4-0.2c-0.2-0.1-0.4-0.3-0.4-0.6
			c0-0.1,0-0.2,0.1-0.4c0.1-0.3,0.2-0.7,0.3-1c0.2-0.5,0.5-0.9,1-1.1c0.8-0.5,1.8-1,2.7-1.3c0-0.3,0.1-0.7,0.3-1.2
			c0.2-0.5,0.3-0.8,0.4-0.8c0.1,0,0.2,0.1,0.2,0.3c0.1,0.6,0.2,1.9,0.5,3.7c0.2,0.6,0.4,1.1,0.7,1.4c0.3,0.3,0.7,0.5,1.2,0.5
			c0.1,0,0.2,0,0.4,0c0.4,0,0.7,0,1-0.2c0.4-0.1,0.6-0.3,0.7-0.4c-0.1-1.9-0.9-8.8-1.1-10.3C237.7,18.1,237.7,18.2,237.6,17.7z
			 M232.2,27.8c0.7,0,1.1-0.2,1.4-0.5l-0.2-1.1c-1.2,0.6-2,1-2.3,1.4C231.4,27.7,231.7,27.8,232.2,27.8z"/>
		<path class="st1" d="M239.7,37.7c-0.3-0.2-0.4-0.3-0.4-0.4c0-0.1,0.2-0.2,0.4-0.2c0.3,0,1.1,0.2,1.8,0.2c0.6,0,1.2-0.2,2.1-0.6
			c2.4-1.2,3.9-3,3.9-4.2c0-0.2,0-0.3-0.1-0.7h-0.7c-0.5,0-1.5-0.1-2.2-0.5c-0.7-0.4-1-0.9-1-1.5c0-0.6,0.3-1.4,0.6-2.2
			c0.6-1.3,1.2-2.2,1.9-2.2c0.7,0,1.3,0.5,1.8,1.1c0.5,0.7,0.7,1.8,0.7,2.8h1c0.6,0,0.9,0.3,0.9,1c0,0.8-0.3,1.2-0.9,1.2l-1.1,0.1
			c-0.2,3.5-1.3,5.8-4.1,6.9c-0.2,0.1-0.4,0.1-0.6,0.1C242.7,38.8,241.1,38.3,239.7,37.7z M246,28.1c-0.1-0.1-0.3-0.2-0.6-0.2
			c-0.5,0-0.8,0.5-0.8,0.8c0,0.2,0.2,0.5,0.8,0.7c0.4,0.2,0.9,0.2,1.1,0.2c0.2,0,0.2,0,0.2-0.1C246.8,29.2,246.4,28.4,246,28.1z"/>
		<path class="st1" d="M254.1,10.7c0.1-0.1,0.1,0,0.1,0.1c0,0.6-0.2,1.1-0.5,1.3l-4.1,2.3c-0.1,0-0.1,0-0.1-0.1c0-0.3,0.1-0.8,0.2-1
			c0.1-0.2,0.3-0.3,0.7-0.5L254.1,10.7z"/>
		<path class="st1" d="M255,26.6c0,1.2-0.4,2.9-0.9,3.7c-0.2,0.3-0.9,0.7-1.4,0.8c-1.4,0.4-2.5,0.6-3.3,0.6h-0.2c-0.6,0-1-0.4-1-1.2
			c0-0.7,0.3-1.1,1-1.1h0.2c1.3,0,2.8-0.2,3.7-0.5c0.8-0.3,0.9-0.3,0.9-1.1c0-0.5-0.1-0.8-0.3-1.3c-0.2,0.5-0.9,1-1.8,1
			c-1.1,0-1.8-0.7-1.8-2c0-1.8,1.4-4.1,2-4.1C253.9,21.5,255,24.9,255,26.6z M253.5,16c0.2-0.2,0.2-0.2,0.3-0.1
			c0.5,0.5,1,1.1,1.5,1.4c0.2,0.1,0.2,0.2,0,0.3c-0.5,0.5-0.9,1-1.3,1.5c-0.1,0.1-0.2,0.1-0.3,0c-0.4-0.3-0.9-0.7-1.4-1.2
			c-0.3,0.3-0.9,1-1.1,1.2c-0.1,0.1-0.2,0.2-0.4,0c-0.5-0.3-1.1-0.9-1.5-1.4c-0.1-0.1-0.1-0.2,0-0.3c0.4-0.5,0.9-1,1.4-1.5
			c0.1-0.1,0.2-0.1,0.3,0.1c0.4,0.4,1,1,1.4,1.2C252.7,16.9,253.3,16.2,253.5,16z M252.4,24c-0.2-0.2-0.5-0.3-0.7-0.3
			c-0.2,0-0.4,0.1-0.5,0.4c-0.1,0.2-0.2,0.4-0.2,0.5c0,0.5,0.5,0.6,1,0.6c0.5,0,0.9-0.2,0.9-0.5C252.9,24.7,252.7,24.3,252.4,24z"/>
		<path class="st1" d="M262.3,19.3c0.1-0.1,0.1,0,0.1,0.1c0,0.6-0.2,1.1-0.5,1.3l-4.1,2.3c-0.1,0-0.1,0-0.1-0.1c0-0.3,0.1-0.8,0.2-1
			c0.1-0.2,0.3-0.3,0.7-0.5L262.3,19.3z"/>
		<path class="st1" d="M263.1,27.6c0.3,0.9,0.5,1.8,0.5,3.1c0,4-1.1,6.5-4.2,7.7c-0.2,0.1-0.4,0.1-0.6,0.1c-1,0-2.6-0.5-4-1.1
			c-0.3-0.2-0.4-0.3-0.4-0.4c0-0.1,0.1-0.2,0.4-0.2c0.2,0,1.1,0.2,1.8,0.2c0.9,0,1.9-0.4,3.3-1.3c1.5-1,2.8-2.3,2.8-3.8
			c0-0.5-0.1-1-0.4-1.5c-0.3,0.7-0.8,1.1-1.5,1.1c-1.3,0-2.1-0.7-2.1-2.1c0-0.5,0.3-1.3,0.6-2.1c0.5-1,1.2-1.9,1.8-1.9
			C261.7,25.4,262.6,26.3,263.1,27.6z M260.6,27.7c-0.3,0-0.5,0.2-0.7,0.5c-0.1,0.1-0.2,0.4-0.2,0.5c0,0.4,0.6,0.6,1.1,0.6
			c0.4,0,0.7-0.2,0.8-0.4C261.6,28.1,260.9,27.7,260.6,27.7z"/>
		<path class="st1" d="M286.6,41.3c0,0.1-0.1,0.2-0.3,0.2c-0.7,0-1.6-0.6-2.9-1.7c-0.9-0.8-1.7-1.7-2.4-2.5
			c-1.3-1.7-2.4-3.7-3.2-5.9c-2.1,0-3.2-0.3-3.2-0.8c0.6-0.5,1.1-1,1.5-1.6c0.4-0.6,0.7-1.2,0.7-1.9c-0.5,0-1.1,0.3-1.8,0.9
			c-0.1,0.1-0.7,0.6-1.5,1.4c-0.2,0-0.4-0.2-0.5-0.7c-0.1-0.4-0.3-1.1-0.3-1.9c-0.5-0.2-0.9-0.5-1.3-0.8c-0.3-0.2-0.4-0.5-0.4-0.7
			c0-0.3,0.2-0.7,0.7-1.1c0.2-0.2,0.5-0.4,0.9-0.6c0-0.6,0.1-1.1,0.2-1.7c0.2-0.5,0.3-0.7,0.5-0.7c0.7,0.7,1.2,1.1,1.6,1.4
			c0.7,0.5,1.3,0.7,1.9,0.8c0-0.6-0.3-1.3-0.8-1.9c-0.5-0.5-1-1-1.5-1.6c0-0.3,0.5-0.5,1.5-0.7c0.7-0.1,1.3-0.2,1.8-0.3
			c1.5-4.2,3.5-7.3,6.2-9.4c0.9-0.7,1.5-1.1,1.9-1.1c0.2,0,0.3,0.1,0.3,0.3c0,0.1-0.4,0.6-1.1,1.4c-2.3,2.6-3.6,5.6-4.2,8.9
			c0.7,0.1,1.1,0.2,1.3,0.3c0.2,0.1,0.3,0.2,0.3,0.4c-0.6,0.5-1.1,1-1.5,1.5c-0.5,0.6-0.7,1.3-0.7,1.9c0.6,0,1.2-0.2,1.8-0.7
			c0.4-0.4,0.9-0.9,1.6-1.6c0.3,0,0.5,0.4,0.7,1.1c0.1,0.6,0.2,1.1,0.2,1.5c1.1,0.5,1.7,1,1.7,1.6c0,0.4-0.5,0.9-1.5,1.5
			c0,1-0.1,1.7-0.3,2.1c-0.1,0.2-0.3,0.4-0.6,0.4c-1.2-1.3-2.3-2.1-3.4-2.2c0,0.5,0.3,1.2,0.8,1.9c0.2,0.2,0.7,0.8,1.5,1.6
			c0,0.1-0.1,0.2-0.3,0.3c-0.2,0.1-0.7,0.2-1.4,0.4c0.3,1.7,1,3.4,2,5.2c1,1.8,2.2,3.2,3.5,4.3C286.6,40.9,286.6,41.1,286.6,41.3z
			 M276,26.4c-0.3-0.1-0.7-0.3-1.2-0.5c-0.1-0.1-0.3-0.2-0.8-0.4c-0.4-0.2-0.7-0.3-0.7-0.4s0.5-0.3,1.6-0.5c0.2-0.1,0.5-0.2,1.1-0.4
			c-0.6-0.2-1.1-0.5-1.5-0.8c-0.2-0.2-0.6-0.5-1-1c-0.1,0-0.2,0.2-0.2,0.5c0,0.2,0,0.7-0.1,1.3c-0.9,0.5-1.4,0.9-1.5,1.1
			c0,0.1,0.1,0.3,0.4,0.4c0.3,0.2,0.6,0.3,1,0.4c0,0.2,0,0.6,0.1,1c0.1,0.6,0.2,0.9,0.3,1l1.1-1.1C275.1,26.8,275.5,26.5,276,26.4z
			 M284.8,9.7c-2.8,1.9-5,5.3-6.6,10.1c-1.2,0-1.9,0-2.2,0.1c-0.3,0-0.4,0.1-0.4,0.3c0.8,0.7,1.4,1.4,1.8,2.2c0.2-0.4,0.4-0.8,0.6-1
			c0.1-0.4,0.3-0.7,0.6-1.1c0.1,0,0.1,0.2,0.2,0.4c0.1,0.3,0.1,0.5,0.1,0.5c0.1,0.1,0.3,0.5,0.7,1.1c0.2-0.5,0.4-1,0.8-1.3
			c0.2-0.2,0.5-0.6,1-1c0-0.1-0.1-0.2-0.4-0.3c-0.2,0-0.4-0.1-0.8-0.1c0.5-1.9,0.8-3.1,1-3.7C281.7,14,283,11.9,284.8,9.7z
			 M285.5,40.6c-1.2-1.1-2.2-2.4-3.1-4c-1.1-1.8-1.8-3.8-2.1-6c0.8-0.1,1.2-0.2,1.2-0.3c-0.8-0.7-1.5-1.5-1.9-2.3
			c-0.1,0.3-0.3,0.6-0.5,1c-0.1,0.1-0.1,0.2-0.3,0.5c-0.1,0.3-0.2,0.5-0.3,0.5c-0.3,0-0.7-0.7-1.1-2c-0.3,0.6-0.6,1.1-0.9,1.4
			c-0.3,0.3-0.6,0.6-0.9,1c0.1,0.1,0.2,0.1,0.4,0.1c0.2,0,0.6,0.1,1,0.1c0.2,0,0.4,0,0.6,0c0.2,0,0.4,0,0.5,0
			C279.7,35.1,282.1,38.4,285.5,40.6z M280.5,25.3c0-0.6-0.2-1.1-0.6-1.4c-0.4-0.4-0.9-0.6-1.4-0.6c-0.6,0-1.1,0.2-1.4,0.6
			c-0.4,0.4-0.6,0.9-0.6,1.4c0,0.5,0.2,1,0.6,1.4c0.4,0.4,0.9,0.6,1.4,0.6c0.6,0,1.1-0.2,1.5-0.5C280.4,26.3,280.5,25.8,280.5,25.3z
			 M285.3,25.1c0-0.2-0.5-0.5-1.5-0.9c0-0.6,0-1-0.1-1.4c-0.1-0.4-0.2-0.6-0.2-0.6c-0.1,0.1-0.5,0.5-1.1,1c-0.4,0.4-0.9,0.7-1.3,0.9
			c0.1,0.1,0.7,0.3,1.7,0.6c0.6,0.2,1,0.4,1,0.5c0,0.1-0.3,0.3-0.9,0.5c-0.5,0.2-1.1,0.3-1.7,0.5c0.5,0.2,1,0.4,1.5,0.8
			c0.2,0.2,0.6,0.5,1,1c0.2,0,0.3-0.6,0.3-1.8C284.8,25.7,285.3,25.3,285.3,25.1z"/>
		<path class="st1" d="M302.3,29.6c0.3,0,0.5,0.1,0.6,0.3c0.1,0.2,0.2,0.5,0.2,0.7c0,0.3-0.1,0.5-0.2,0.7c-0.1,0.2-0.3,0.3-0.6,0.3
			c0,0-0.1,0-0.1,0c0,0-0.1,0-0.1,0c-0.8,0-1.5-0.2-2-0.5c-0.5-0.3-0.9-0.7-1.3-1.2c-0.4-0.6-0.6-1.3-0.7-1.9
			c-0.1-0.7-0.2-1.4-0.3-2.1c-0.1-0.8-0.2-1.6-0.3-2.4c-0.1-0.8-0.2-1.6-0.3-2.4c-0.1-0.8-0.2-1.6-0.3-2.5c-0.1-0.8-0.3-1.7-0.6-2.7
			c0-0.1,0-0.1,0-0.2c0,0,0-0.1,0-0.1L297,14c0-0.1,0.1-0.1,0.1-0.1s0.1,0,0.1,0.1c0.1,0.5,0.2,1,0.3,1.6c0.1,0.5,0.2,1.1,0.3,1.7
			c0.1,0.6,0.2,1.3,0.3,2c0.1,0.7,0.2,1.5,0.3,2.5c0.1,0.6,0.1,1.3,0.2,1.9c0.1,0.6,0.1,1.2,0.2,1.9c0.1,0.5,0.1,1,0.2,1.5
			c0.1,0.5,0.2,1,0.5,1.4c0.2,0.4,0.5,0.7,0.9,0.8c0.4,0.2,1,0.3,1.7,0.3C302.1,29.6,302.1,29.6,302.3,29.6
			C302.2,29.6,302.2,29.6,302.3,29.6z"/>
		<path class="st1" d="M309.1,17.1c-0.5,0.2-0.9,0.4-1.4,0.7c-0.5,0.2-1,0.4-1.4,0.7c-0.5,0.2-0.9,0.4-1.3,0.6
			c-0.4,0.2-0.7,0.3-1,0.5c-0.1,0-0.1,0-0.1,0c0,0,0-0.1,0-0.1l0.7-1.3c0-0.1,0.1-0.1,0.1-0.2s0.1-0.1,0.1-0.1l5-2.2
			c0.1-0.1,0.2,0,0.1,0.1l-0.6,1.3C309.3,17,309.2,17,309.1,17.1z"/>
		<path class="st1" d="M309.6,26.1c0,0.4-0.1,0.8-0.2,1.1c-0.1,0.3-0.2,0.7-0.3,1c-0.1,0.3-0.3,0.6-0.5,0.8
			c-0.2,0.3-0.4,0.5-0.7,0.7c0.4,0,0.7-0.1,1.1-0.1c0.4,0,0.8,0,1.2,0c0.4,0,0.8,0,1.1,0c0.4,0,0.7,0,1,0h0.2c0.3,0,0.5,0.1,0.6,0.3
			c0.1,0.2,0.2,0.5,0.2,0.7c0,0.3-0.1,0.5-0.2,0.7c-0.1,0.2-0.4,0.3-0.6,0.3h-0.2h-1.3l-1.3,0c0.6,0.6,0.9,1.4,0.8,2.2
			c0,0.3,0,0.5-0.1,0.8c-0.1,0.3-0.2,0.6-0.3,0.8c-0.1,0.3-0.3,0.5-0.5,0.6c-0.2,0.2-0.4,0.3-0.7,0.3c-0.6,0.1-1.2,0-1.6-0.2
			c-0.5-0.2-0.9-0.6-1.3-1c-0.4-0.4-0.7-0.9-1-1.5c-0.3-0.6-0.4-1.2-0.5-1.7c-0.2,0-0.5,0.1-0.8,0.2c-0.3,0.1-0.4,0.1-0.5,0
			c0-0.1,0-0.2,0.1-0.3c0.1-0.1,0.1-0.2,0.1-0.3l-1.4,0h-0.2c-0.3,0-0.6-0.1-0.7-0.3c-0.2-0.2-0.2-0.5-0.2-0.7
			c0-0.3,0.1-0.5,0.2-0.7c0.2-0.2,0.4-0.3,0.7-0.3h0.2c0.5,0,1,0,1.4,0c0.5,0,0.9,0,1.2-0.1c0.1-0.3,0.1-0.7,0.2-1s0.2-0.7,0.3-1
			c0.1-0.3,0.3-0.7,0.4-1c0.2-0.3,0.3-0.6,0.5-0.9c0.1-0.2,0.3-0.4,0.5-0.7c0.2-0.3,0.4-0.5,0.6-0.8c0.2-0.3,0.5-0.5,0.7-0.7
			c0.2-0.2,0.5-0.3,0.7-0.3c0.2,0,0.3,0.2,0.5,0.4c0.1,0.3,0.2,0.5,0.3,0.9c0.1,0.3,0.1,0.6,0.1,1C309.6,25.8,309.6,26,309.6,26.1z
			 M308.7,27.4c0-0.3,0-0.7-0.1-1c-0.1-0.3-0.2-0.6-0.3-0.8c0-0.1-0.1-0.1-0.1-0.2c0,0-0.1-0.1-0.2,0c-0.3,0.1-0.5,0.2-0.8,0.5
			s-0.5,0.7-0.7,1.1c-0.2,0.4-0.4,0.8-0.6,1.2c-0.2,0.4-0.3,0.8-0.3,1.1c0.2-0.1,0.5-0.2,0.8-0.3c0.3-0.1,0.6-0.3,0.9-0.5
			c0.3-0.2,0.6-0.4,0.9-0.6C308.4,27.9,308.5,27.7,308.7,27.4z M305.6,32.1c0.2,0.3,0.3,0.6,0.5,0.9c0.1,0.3,0.3,0.5,0.5,0.7
			c0.2,0.2,0.4,0.4,0.7,0.6c0.3,0.2,0.6,0.3,1,0.3c0.1,0,0.2,0,0.4,0c0.2,0,0.3,0,0.5-0.1c0.2,0,0.3-0.1,0.4-0.2
			c0.1-0.1,0.2-0.2,0.2-0.3c0-0.2-0.2-0.5-0.5-0.7c-0.3-0.2-0.7-0.4-1.2-0.6c-0.4-0.2-0.9-0.3-1.4-0.4
			C306.3,32.1,305.9,32.1,305.6,32.1z"/>
		<path class="st1" d="M312.5,31.8h-0.2c-0.3,0-0.5-0.1-0.6-0.3c-0.1-0.2-0.2-0.5-0.2-0.7c0-0.1,0-0.3,0-0.4c0-0.1,0.1-0.2,0.2-0.3
			c0.1-0.1,0.2-0.2,0.3-0.2c0.1-0.1,0.2-0.1,0.4-0.1h0.2c0.3,0,0.6,0,1,0c0.4,0,0.7-0.1,1-0.2c0.3-0.1,0.6-0.2,0.9-0.4
			c0.3-0.2,0.6-0.4,0.8-0.7c0.2-0.2,0.3-0.4,0.4-0.7c0.1-0.2,0.2-0.5,0.3-0.8c0-0.1,0.1-0.2,0.2-0.2s0.2,0,0.2,0.1
			c0,0.1,0,0.2,0,0.4c0,0.2,0,0.3,0,0.4c0,0.2,0.1,0.5,0.2,0.7c0.1,0.2,0.3,0.5,0.5,0.6c0.2,0.2,0.6,0.3,1,0.5
			c0.4,0.1,0.9,0.2,1.5,0.2h0.3c0.1,0,0.3,0,0.4,0.1c0.1,0.1,0.2,0.1,0.3,0.2c0.1,0.1,0.1,0.2,0.2,0.3c0,0.1,0,0.3,0,0.4
			c0,0.3-0.1,0.5-0.2,0.7c-0.1,0.2-0.3,0.3-0.6,0.3h-0.3c-0.5,0-1,0-1.4-0.1c-0.4-0.1-0.8-0.2-1.1-0.4c-0.6-0.4-1.1-0.9-1.4-1.6
			c-0.2,0.4-0.4,0.8-0.7,1c-0.3,0.3-0.6,0.5-0.9,0.7c-0.3,0.2-0.7,0.3-1.1,0.4C313.3,31.7,312.9,31.8,312.5,31.8z M318.2,37.2
			c0,0.1-0.1,0.1-0.1,0.1c0,0-0.1,0-0.2-0.1l-1.6-1.3l-1.1,1.5c-0.1,0.1-0.1,0.1-0.2,0l-1.7-1.3c-0.1,0-0.1-0.1,0-0.2l1.1-1.6
			c0-0.1,0.1-0.1,0.1-0.1c0,0,0.1,0,0.1,0.1l1.6,1.2l1.1-1.4c0.1-0.1,0.1-0.1,0.2,0l1.7,1.4c0.1,0,0.1,0.1,0,0.2L318.2,37.2z"/>
		<path class="st2" d="M327,35.5c-0.9,0.3-1.8,0.6-2.6,0.9c-0.9,0.3-1.7,0.6-2.5,0.8c-0.1,0-0.2,0-0.1-0.1l0.6-1
			c0-0.1,0.1-0.1,0.1-0.1c0,0,0.1,0,0.1-0.1c0.2-0.1,0.6-0.2,1-0.3c0.4-0.1,0.8-0.3,1.3-0.4c0.5-0.2,1-0.3,1.4-0.5
			c0.5-0.2,1-0.3,1.4-0.4c0.1,0,0.1,0,0.1,0c0,0,0,0.1,0,0.1l-0.6,1.1C327.2,35.4,327.1,35.4,327,35.5
			C327.1,35.5,327.1,35.5,327,35.5z"/>
		<path class="st2" d="M320.4,29.6c0.2,0,0.5,0,0.8,0c0.4,0,0.8,0,1.3-0.1c0.5,0,1-0.1,1.6-0.2c0.6-0.1,1.1-0.2,1.6-0.3
			c0.5-0.1,1-0.3,1.3-0.5c0.4-0.2,0.7-0.4,0.8-0.6c0-0.1,0-0.2,0-0.4c0-0.2,0-0.3-0.1-0.5c0-0.2-0.1-0.3-0.1-0.5
			c0-0.2-0.1-0.3-0.1-0.4c-0.1,0.2-0.2,0.3-0.3,0.5c-0.1,0.2-0.3,0.3-0.4,0.5c-0.2,0.1-0.3,0.3-0.5,0.4c-0.2,0.1-0.4,0.2-0.6,0.2
			c-0.2,0-0.5,0-0.7-0.1c-0.2-0.1-0.4-0.2-0.6-0.3c-0.2-0.1-0.3-0.3-0.5-0.5c-0.1-0.2-0.2-0.4-0.3-0.7c-0.1-0.3-0.1-0.5-0.1-0.9
			c0-0.3,0.1-0.6,0.2-1c0.1-0.3,0.2-0.6,0.3-1c0.1-0.3,0.3-0.6,0.5-0.8c0.2-0.2,0.4-0.4,0.7-0.6c0.2-0.1,0.5-0.2,0.8-0.2
			c0.2,0,0.5,0.1,0.7,0.2c0.2,0.2,0.4,0.4,0.6,0.6c0.2,0.3,0.4,0.5,0.6,0.8c0.2,0.3,0.3,0.6,0.5,1c0.1,0.3,0.2,0.6,0.3,0.9
			c0.1,0.3,0.1,0.6,0.2,0.8c0.1,0.9,0,1.7-0.2,2.4c-0.2,0.7-0.6,1.4-1.2,1.8c-0.3,0.3-0.8,0.5-1.4,0.7c-0.6,0.2-1.2,0.3-1.9,0.4
			c-0.7,0.1-1.3,0.2-2,0.2c-0.7,0-1.3,0.1-1.8,0.1h-0.3c-0.3,0-0.5-0.1-0.7-0.3c-0.1-0.2-0.2-0.5-0.2-0.7c0-0.3,0.1-0.5,0.2-0.7
			c0.1-0.2,0.4-0.3,0.7-0.3H320.4z M324.9,16.1l1.7,1.4c0.1,0.1,0.1,0.1,0,0.2l-1.1,1.4c-0.1,0.1-0.2,0.1-0.2,0l-1.7-1.4
			c-0.1-0.1-0.1-0.1,0-0.2l1.1-1.4C324.7,16.1,324.8,16.1,324.9,16.1z M326.9,24.9c0-0.1-0.1-0.2-0.2-0.4c-0.1-0.1-0.2-0.2-0.3-0.4
			s-0.3-0.2-0.4-0.3c-0.1-0.1-0.3-0.1-0.4-0.1c-0.1,0-0.2,0-0.4,0.1c-0.1,0.1-0.2,0.2-0.4,0.3c-0.1,0.1-0.2,0.2-0.3,0.4
			c-0.1,0.1-0.1,0.3-0.1,0.4c0.1,0.2,0.3,0.4,0.5,0.5s0.4,0.2,0.7,0.2c0.2,0,0.5,0,0.7-0.2C326.6,25.3,326.8,25.1,326.9,24.9z"/>
		<path class="st2" d="M343,17c0,0.3,0,0.6-0.1,0.9c-0.1,0.3-0.2,0.6-0.4,0.8c-0.2,0.2-0.4,0.4-0.7,0.5c-0.3,0.1-0.6,0.2-1,0.2
			c-0.5,0-0.9-0.2-1.2-0.5c-0.3-0.3-0.5-0.7-0.5-1.2c0-0.3,0-0.6,0.1-0.9c0.1-0.4,0.2-0.7,0.4-1c0.2-0.3,0.4-0.6,0.6-0.9
			c0.3-0.3,0.6-0.4,0.9-0.4c0.3,0,0.6,0,0.9,0.2c0.2,0.2,0.4,0.4,0.5,0.7c0.1,0.3,0.2,0.6,0.3,0.9C343,16.5,343,16.8,343,17z
			 M339.8,17.4c0,0.2,0,0.3,0.1,0.4c0.1,0.1,0.2,0.2,0.3,0.2c0.1,0,0.2,0.1,0.4,0.1s0.3,0,0.4,0c0.3,0,0.5-0.1,0.7-0.2
			c0.2-0.1,0.4-0.3,0.6-0.4c0-0.2,0-0.3-0.1-0.5c-0.1-0.2-0.1-0.3-0.3-0.5c-0.1-0.1-0.3-0.3-0.4-0.3c-0.2-0.1-0.4-0.1-0.6-0.1
			c-0.1,0-0.3,0.1-0.4,0.2c-0.1,0.1-0.3,0.2-0.4,0.3c-0.1,0.1-0.2,0.3-0.3,0.4C339.8,17.1,339.8,17.2,339.8,17.4z"/>
		<path class="st2" d="M342.7,27.1c0.2,0,0.3,0,0.5,0.2c0.1,0.1,0.3,0.2,0.5,0.4c0.2,0.2,0.3,0.3,0.5,0.5c0.2,0.2,0.3,0.4,0.5,0.5
			c0.3,0.2,0.5,0.4,0.8,0.5c0.3,0.1,0.6,0.2,0.9,0.3c0.3,0.1,0.7,0.1,1,0.1c0.3,0,0.7,0,1,0h0.2c0.3,0,0.5,0.1,0.6,0.3
			c0.1,0.2,0.2,0.5,0.2,0.7c0,0.3-0.1,0.5-0.2,0.7c-0.1,0.2-0.4,0.3-0.6,0.3h-0.2c-0.2,0-0.4,0-0.7,0s-0.5,0-0.8,0
			c-0.3,0-0.6,0-0.9-0.1c-0.3,0-0.6-0.1-1-0.2c0,0.2-0.1,0.5-0.1,0.7c0,0.2-0.1,0.3-0.2,0.3c-0.3,0.1-0.8,0.1-1.3,0
			c-0.5-0.1-1-0.2-1.5-0.3c-0.5-0.2-0.9-0.4-1.3-0.6c-0.4-0.2-0.6-0.5-0.8-0.7c-0.2,0.1-0.4,0.2-0.6,0.3c-0.2,0.1-0.4,0.3-0.6,0.5
			c-0.2,0.2-0.3,0.4-0.4,0.6c-0.1,0.2-0.2,0.4-0.2,0.6c0,0.3,0,0.8,0.1,1.4c0.1,0.6,0.2,1.1,0.3,1.8c0.1,0.6,0.2,1.2,0.3,1.8
			c0.1,0.6,0.2,1.1,0.3,1.6c0.1,0.4,0.1,0.8,0.2,1.3c0.1,0.5,0.1,0.9,0.1,1.4c0,0.5,0,0.9,0,1.3c0,0.4-0.1,0.7-0.1,1
			c0,0.1-0.1,0.2-0.2,0.2c-0.1,0-0.1-0.1-0.2-0.2c-0.1-0.2-0.1-0.4-0.1-0.5c0-0.2,0-0.4-0.1-0.5c0-0.2-0.1-0.5-0.2-1
			c-0.1-0.5-0.2-1.2-0.3-2.1c-0.1-0.8-0.2-1.6-0.4-2.3c-0.1-0.7-0.2-1.3-0.3-1.9c-0.1-0.5-0.2-1-0.2-1.4c-0.1-0.4-0.1-0.8-0.1-1.1
			c0-0.8,0-1.5,0.3-2.1c0.2-0.6,0.6-1.1,1-1.5c0.2-0.2,0.4-0.4,0.8-0.7c0.4-0.3,0.7-0.6,1.1-0.9c0.4-0.3,0.8-0.5,1.2-0.8
			C342.2,27.2,342.5,27.1,342.7,27.1z M342.4,28.6c-0.2,0-0.5,0-0.8,0.2c-0.3,0.1-0.5,0.3-0.7,0.4c-0.1,0.1-0.1,0.2,0,0.2
			c0.2,0.1,0.4,0.3,0.7,0.4c0.3,0.1,0.6,0.2,0.9,0.3c0.3,0.1,0.6,0.2,0.8,0.2s0.4,0,0.6,0c-0.1-0.2-0.2-0.4-0.4-0.6
			c-0.2-0.2-0.3-0.4-0.5-0.5c-0.2-0.2-0.3-0.3-0.4-0.4C342.5,28.6,342.4,28.6,342.4,28.6z"/>
		<path class="st1" d="M350.6,19.1c0.3-0.2,0.6-0.3,0.9-0.5c0.3-0.2,0.6-0.4,0.8-0.6c0.3-0.2,0.6-0.4,0.8-0.7
			c0.3-0.2,0.5-0.5,0.8-0.8c-0.2-0.1-0.5-0.2-0.8-0.4c-0.3-0.2-0.5-0.4-0.7-0.6c-0.1-0.1-0.1-0.2-0.2-0.4c0-0.2,0-0.3,0-0.4
			c0.1-0.2,0.2-0.5,0.3-0.7c0.1-0.3,0.3-0.5,0.5-0.7c0.2-0.2,0.4-0.4,0.6-0.5c0.2-0.1,0.4-0.2,0.7-0.2c0.3,0,0.5,0.2,0.6,0.4
			c0.1,0.3,0.2,0.5,0.2,0.9c0,0.3,0,0.7,0,1c0,0.3-0.1,0.6-0.1,0.7c0,0,0,0.1,0,0.1c0.1,0.1,0.2,0.1,0.2,0.2c0,0.1,0.1,0.1,0.1,0.2
			c0.1,0.1,0.1,0.3,0,0.5c0,0.2-0.1,0.3-0.2,0.4c-0.1,0.1-0.1,0.1-0.2,0.1s-0.1,0-0.2-0.1c0-0.1-0.1-0.1-0.1-0.2
			c0,0-0.1-0.1-0.2-0.1c-0.3,0.3-0.5,0.6-0.8,0.9c-0.3,0.3-0.6,0.5-0.9,0.8c-0.3,0.2-0.7,0.4-1,0.6c-0.4,0.2-0.7,0.3-1.1,0.5
			c-0.2,0-0.3,0.1-0.5,0.1c-0.2,0-0.3,0-0.3,0c0-0.1,0-0.1,0.1-0.2C350.4,19.3,350.5,19.2,350.6,19.1z M353.2,14.5
			c0.2,0.3,0.4,0.5,0.7,0.6c0.3,0.2,0.5,0.3,0.7,0.3h0c0-0.1,0-0.2,0-0.3c0-0.1,0-0.2,0-0.4c0-0.1,0-0.3-0.1-0.4
			c0-0.1-0.1-0.2-0.2-0.3c-0.1-0.1-0.2-0.1-0.3-0.1c-0.1,0-0.3,0-0.4,0.1c-0.1,0-0.2,0.1-0.3,0.2C353.3,14.4,353.2,14.4,353.2,14.5z
			"/>
		<path class="st1" d="M356,26.1c0,0.4-0.1,0.8-0.2,1.1c-0.1,0.3-0.2,0.7-0.3,1c-0.1,0.3-0.3,0.6-0.5,0.8c-0.2,0.3-0.4,0.5-0.7,0.7
			c0.4,0,0.7-0.1,1.1-0.1c0.4,0,0.8,0,1.2,0c0.4,0,0.8,0,1.1,0c0.4,0,0.7,0,1,0h0.2c0.3,0,0.5,0.1,0.6,0.3c0.1,0.2,0.2,0.5,0.2,0.7
			c0,0.3-0.1,0.5-0.2,0.7c-0.1,0.2-0.4,0.3-0.6,0.3h-0.2h-1.3l-1.3,0c0.6,0.6,0.9,1.4,0.8,2.2c0,0.3,0,0.5-0.1,0.8
			c-0.1,0.3-0.2,0.6-0.3,0.8s-0.3,0.5-0.5,0.6c-0.2,0.2-0.4,0.3-0.7,0.3c-0.6,0.1-1.2,0-1.6-0.2c-0.5-0.2-0.9-0.6-1.3-1
			c-0.4-0.4-0.7-0.9-1-1.5c-0.3-0.6-0.4-1.2-0.5-1.7c-0.2,0-0.5,0.1-0.8,0.2c-0.3,0.1-0.4,0.1-0.5,0c0-0.1,0-0.2,0.1-0.3
			c0.1-0.1,0.1-0.2,0.1-0.3l-1.4,0h-0.2c-0.3,0-0.6-0.1-0.7-0.3c-0.2-0.2-0.2-0.5-0.2-0.7c0-0.3,0.1-0.5,0.2-0.7
			c0.2-0.2,0.4-0.3,0.7-0.3h0.2c0.5,0,1,0,1.4,0c0.5,0,0.9,0,1.2-0.1c0.1-0.3,0.1-0.7,0.2-1s0.2-0.7,0.3-1c0.1-0.3,0.3-0.7,0.4-1
			c0.2-0.3,0.3-0.6,0.5-0.9c0.1-0.2,0.3-0.4,0.5-0.7c0.2-0.3,0.4-0.5,0.6-0.8c0.2-0.3,0.5-0.5,0.7-0.7c0.2-0.2,0.5-0.3,0.7-0.3
			c0.2,0,0.3,0.2,0.5,0.4c0.1,0.3,0.2,0.5,0.3,0.9c0.1,0.3,0.1,0.6,0.1,1C356,25.8,356,26,356,26.1z M355,27.4c0-0.3,0-0.7-0.1-1
			c-0.1-0.3-0.2-0.6-0.3-0.8c0-0.1-0.1-0.1-0.1-0.2c0,0-0.1-0.1-0.2,0c-0.3,0.1-0.5,0.2-0.8,0.5c-0.3,0.3-0.5,0.7-0.7,1.1
			c-0.2,0.4-0.4,0.8-0.6,1.2c-0.2,0.4-0.3,0.8-0.3,1.1c0.2-0.1,0.5-0.2,0.8-0.3c0.3-0.1,0.6-0.3,0.9-0.5c0.3-0.2,0.6-0.4,0.9-0.6
			C354.7,27.9,354.9,27.7,355,27.4z M352,32.1c0.2,0.3,0.3,0.6,0.5,0.9c0.1,0.3,0.3,0.5,0.5,0.7c0.2,0.2,0.4,0.4,0.7,0.6
			c0.3,0.2,0.6,0.3,1,0.3c0.1,0,0.2,0,0.4,0c0.2,0,0.3,0,0.5-0.1c0.2,0,0.3-0.1,0.4-0.2c0.1-0.1,0.2-0.2,0.2-0.3
			c0-0.2-0.2-0.5-0.5-0.7c-0.3-0.2-0.7-0.4-1.2-0.6c-0.4-0.2-0.9-0.3-1.4-0.4C352.6,32.1,352.3,32.1,352,32.1z"/>
		<path class="st1" d="M362.3,9.6c-0.5,0.2-0.9,0.4-1.4,0.7c-0.5,0.2-1,0.4-1.4,0.7c-0.5,0.2-0.9,0.4-1.3,0.6s-0.7,0.3-1,0.5
			c-0.1,0-0.1,0-0.1,0c0,0,0-0.1,0-0.1l0.7-1.3c0-0.1,0.1-0.1,0.1-0.2s0.1-0.1,0.1-0.1l5-2.2c0.1-0.1,0.2,0,0.1,0.1l-0.6,1.3
			C362.5,9.5,362.4,9.5,362.3,9.6z"/>
		<path class="st1" d="M360.1,13.3c0-0.1,0.1-0.1,0.1-0.2c0,0,0.1,0,0.1,0.2c0.1,0.2,0.2,0.4,0.2,0.7c0.1,0.2,0.2,0.5,0.3,0.7
			c0.1,0.2,0.3,0.4,0.4,0.6c0.2,0.2,0.4,0.3,0.6,0.5c-0.1,0.2-0.2,0.4-0.3,0.6c-0.1,0.2-0.2,0.3-0.2,0.4c-0.1,0.1-0.1,0.3-0.1,0.4
			c0,0.1,0,0.3,0,0.4c0.1,0.9,0.2,1.8,0.3,2.6c0.1,0.9,0.3,1.8,0.4,2.6c0.1,0.9,0.2,1.8,0.3,2.6c0.1,0.9,0.2,1.8,0.2,2.6
			c0,0.3,0,0.6-0.1,0.9s-0.1,0.6-0.2,0.9c-0.1,0.3-0.2,0.5-0.4,0.8c-0.2,0.2-0.3,0.4-0.5,0.6c-0.3,0.2-0.6,0.4-1,0.5
			c-0.4,0.1-0.9,0.1-1.4,0.1h-0.2c-0.3,0-0.5-0.1-0.7-0.3c-0.2-0.2-0.2-0.5-0.2-0.7c0-0.3,0.1-0.5,0.2-0.7c0.2-0.2,0.4-0.3,0.7-0.3
			h0.2c0.3,0,0.6,0,0.9,0c0.3,0,0.5-0.1,0.8-0.1c0.2-0.1,0.4-0.1,0.6-0.2c0.2-0.1,0.3-0.2,0.4-0.4c-0.2-1.9-0.4-3.8-0.7-5.7
			c-0.3-1.9-0.6-3.8-0.8-5.7c-0.1-0.4-0.1-0.8-0.2-1.1c-0.1-0.4-0.2-0.7-0.4-1.1c-0.1-0.1-0.1-0.2-0.1-0.2c0,0,0-0.1,0.1-0.2
			c0.2-0.3,0.3-0.5,0.4-0.8C359.8,13.8,359.9,13.5,360.1,13.3z"/>
		<path class="st1" d="M385.9,24.7c0,0.2-0.1,0.5-0.3,0.7c-0.3,0.3-0.7,0.6-1.3,1c0,0.6-0.1,1.1-0.3,1.7c-0.1,0.5-0.3,0.7-0.5,0.7
			c-0.6-0.6-1.2-1.1-1.7-1.5c-0.6-0.5-1.2-0.7-1.9-0.7c0.1,0.6,0.4,1.2,0.9,1.9c0.5,0.5,1,1.1,1.5,1.6c0,0.3-0.5,0.5-1.5,0.7
			c-0.8,0.2-1.4,0.2-1.8,0.2c-0.7,2.2-1.7,4.2-3.1,6c-0.6,0.8-1.3,1.7-2.3,2.6c-1.3,1.2-2.2,1.8-2.8,1.8c-0.2,0-0.3-0.1-0.3-0.3
			c0-0.1,0.4-0.6,1.1-1.4c1-1.2,1.8-2.2,2.3-3.2c0.9-1.7,1.5-3.6,1.8-5.7c-0.7-0.1-1.1-0.2-1.3-0.3c-0.2-0.1-0.3-0.2-0.3-0.4
			c1.5-1.2,2.2-2.4,2.2-3.4c-0.6,0-1.2,0.2-1.8,0.7c-0.4,0.4-0.9,0.9-1.6,1.6c-0.2,0-0.4-0.3-0.6-0.8c-0.2-0.6-0.3-1.1-0.3-1.7
			c-0.7-0.4-1-0.5-1.1-0.6c-0.4-0.3-0.6-0.6-0.6-1c0-0.2,0.1-0.4,0.3-0.6c0.1-0.1,0.6-0.4,1.3-0.8c0-1.7,0.3-2.5,0.9-2.5
			c1.2,1.3,2.4,2.1,3.4,2.2c0-0.5-0.3-1.2-0.8-1.9c0-0.1-0.5-0.6-1.5-1.6c0-0.1,0.1-0.3,0.4-0.4c0.2-0.1,0.7-0.2,1.3-0.3
			c-0.3-1.7-1-3.4-2-5.2c-1-1.8-2.2-3.2-3.4-4.4C370.1,9.1,370,9,370,8.8c0-0.1,0.1-0.2,0.4-0.3c0.4,0,1.1,0.3,2,1
			c2.8,2,4.9,5,6.4,9.1c2.2,0,3.2,0.3,3.2,0.9c-0.6,0.5-1.1,1-1.4,1.5c-0.4,0.6-0.7,1.2-0.7,1.9c0.5,0,1-0.3,1.6-0.8l1.7-1.5
			c0.4,0,0.6,0.7,0.8,2.2c0,0.1,0,0.3,0.1,0.4C385.3,23.8,385.9,24.3,385.9,24.7z M380.9,19.7c0-0.1-0.2-0.1-0.6-0.2
			c-0.4-0.1-0.7-0.1-0.9-0.1h-0.6c-0.1,0-0.3,0-0.4,0.1c-0.6-1.9-1.5-3.7-2.6-5.4c-1.3-1.9-2.9-3.4-4.6-4.6c1.2,1.1,2.2,2.5,3.1,4
			c1.1,1.9,1.8,3.9,2.2,5.9c-0.8,0.1-1.2,0.2-1.3,0.4c0.9,0.7,1.6,1.5,2,2.3c0.1-0.3,0.3-0.7,0.5-1.1c0-0.1,0.1-0.2,0.2-0.5
			c0.1-0.3,0.2-0.4,0.3-0.4c0.3,0,0.6,0.7,1.1,2.1c0.2-0.5,0.5-1,0.9-1.5C380.3,20.4,380.5,20.1,380.9,19.7z M375.6,26
			c-0.2-0.1-0.8-0.3-1.7-0.6c-0.6-0.2-1-0.4-1-0.5c0-0.1,0.5-0.3,1.5-0.7c0.2-0.1,0.6-0.2,1.1-0.4c-0.5-0.2-1-0.4-1.5-0.8
			c-0.2-0.2-0.6-0.5-1-1c-0.2,0-0.3,0.6-0.3,1.8c-0.9,0.5-1.4,0.9-1.4,1.1c0,0.2,0.5,0.5,1.4,0.9c0,1.3,0.1,2,0.4,2
			c0,0,0.3-0.3,1-0.8C374.8,26.4,375.3,26.1,375.6,26z M381.1,29.9c-0.7-0.6-1.4-1.3-1.8-2.2c-0.1,0.2-0.3,0.6-0.5,1
			c-0.1,0.1-0.2,0.3-0.3,0.6c-0.1,0.3-0.3,0.4-0.3,0.4c-0.1,0-0.2-0.2-0.3-0.5c-0.1-0.3-0.2-0.5-0.2-0.5c0-0.2-0.2-0.5-0.5-1.1
			c-0.1,0.4-0.4,0.9-0.8,1.3c-0.3,0.3-0.6,0.7-1,1c0,0.1,0.4,0.2,1.2,0.4c-0.5,2-0.8,3.2-1,3.7c-0.7,2.2-2,4.3-3.7,6.3
			c2.9-2,5.1-5.3,6.7-10.1c1.1,0,1.6,0,1.4,0C380.7,30.2,381.1,30.1,381.1,29.9z M380.2,24.8c0-0.6-0.2-1-0.6-1.4
			c-0.4-0.4-0.9-0.5-1.4-0.5c-0.5,0-1,0.2-1.4,0.6c-0.4,0.4-0.6,0.8-0.6,1.4c0,0.6,0.2,1,0.6,1.4c0.4,0.4,0.9,0.6,1.4,0.6
			c0.6,0,1.1-0.2,1.4-0.6C380,25.9,380.2,25.4,380.2,24.8z M385,24.7c0-0.1-0.1-0.3-0.4-0.4c-0.3-0.2-0.6-0.3-1-0.5
			c0-0.6,0-1-0.1-1.4c-0.1-0.4-0.2-0.6-0.3-0.6c-0.1,0-0.3,0.3-0.8,0.8c-0.5,0.5-1,0.9-1.7,1.1c0.3,0.1,0.7,0.3,1.2,0.6
			c0.1,0,0.4,0.1,0.9,0.3c0.4,0.1,0.6,0.3,0.6,0.3c0,0.1-0.3,0.3-1,0.5c-1,0.3-1.6,0.4-1.7,0.5c0.6,0.2,1.1,0.4,1.5,0.8
			c0.2,0.2,0.6,0.5,1,1c0.1,0,0.2-0.2,0.3-0.5c0-0.2,0-0.6,0-1.3C384.5,25.3,385,24.9,385,24.7z"/>
		<path class="st1" d="M406.3,26c0,2.2,0,2.9-1,3.9c1,0.3,2.8,0.9,2.8,2.3c0,2.7-5.8,5.7-9.3,5.7c-2.1,0-5.3-0.8-5.3-4.8
			c0-1.7,0.7-3.8,1.5-5c0.2-0.4,0.5-0.6,0.7-0.6c0.2,0,0.1,0.4-0.1,0.8c-0.6,1.3-1,2.5-1,3.4c0,2.7,2.4,3.8,4.8,3.8
			c2.7,0,7.1-2.1,7.6-2.8c-0.7-0.6-2.7-1.5-4.4-1.5c-0.3,0-0.4-0.1-0.4-0.3c0-0.3,0.3-0.9,0.5-1.3c0.1-0.1,0.1-0.2,0.2-0.2l1-0.3
			c0.8-0.3,1.4-0.7,1.4-1c-0.3-2.7-0.7-7-0.9-8.6c-0.1-0.4-0.2-0.7-0.2-1.1c0-0.1,0-0.2,0-0.3c0,0,0-0.1,0-0.2
			c0-0.1,0.2-0.6,0.5-1.1c0.3-0.5,0.5-0.9,0.7-0.9c0.1,0,0.1,0.1,0.2,0.2c0.2,0.8,0.6,1.4,0.8,1.8c0,0.1,0.1,0.1,0.1,0.2
			c0,0.1,0,0.1,0,0.2c-0.1,0.2-0.4,0.8-0.6,1.2C406.1,22.2,406.2,24.2,406.3,26z"/>
		<path class="st1" d="M414.2,31.8c-0.7,0-1.2-0.1-1.7-0.5c-0.7-0.6-1.1-1.7-1.3-3.1c-0.2-1.1-0.2-2.3-0.3-3.7
			c-0.1-2-0.2-5.1-0.5-6.9c0-0.1,0-0.2,0-0.2c0-0.1,0-0.2,0.2-0.4c0.3-0.5,0.5-0.8,0.7-1.2c0.2-0.3,0.2-0.3,0.3-0.3
			c0.1,0,0.2,0.2,0.3,0.7c0.4,3.5,0.1,8.4,0.6,11.1c0.1,0.7,0.2,0.9,0.4,1.3c0.3,0.6,0.7,0.9,1.4,1c0.8,0,1.2,0.4,1.2,1.1
			c0,0.9-0.4,1.2-1.1,1.2H414.2z"/>
		<path class="st1" d="M424.5,29.5c0.6,0,1,0.4,1,1.1c0,0.8-0.3,1.2-1,1.2h-0.2c-1-0.1-1.9-0.3-2.7-0.8c-0.8-0.5-1.1-0.9-1.6-1.7
			c-1.2,1.1-2.1,1.7-2.9,2c-0.8,0.3-1.7,0.5-2.7,0.5c-0.8,0-1.1-0.4-1.1-1.2c0-0.7,0.4-1.1,1.1-1.1h0.2c1.8,0,3-0.3,4.5-1.2
			c-0.5-0.7-1.7-1-2.3-1.1c-0.1,0-0.1-0.2-0.1-0.4c0-0.5,0.2-1.4,0.5-1.6c1-0.7,2.1-1.1,3.1-1.1c1,0,1.9,0.4,2.6,1.1
			c0.2,0.2,0.2,0.4,0.2,0.7c0,0.7-0.4,1.7-1.3,2.3c0.8,0.8,1.7,1.2,2.6,1.2H424.5z"/>
		<path class="st1" d="M428.2,30.4c-0.4,0.6-1.2,1.1-2.6,1.3c-0.4,0.1-0.9,0.1-1.4,0.1c-0.6,0-1-0.6-1-1.1s0.3-1.1,1-1.1h0.5
			c1,0,2.6,0,3.2-0.6c-0.1-0.9-0.8-2-1.1-2.4c0,0,0,0,0-0.1c0-0.4,0.7-1.8,0.7-1.9c0-0.1,0.1-0.1,0.1-0.1c0.3,0,1.1,1.6,1.1,3.5
			C428.8,28.7,428.7,29.6,428.2,30.4z M428.1,18.9c0.2-0.2,0.2-0.2,0.3-0.1c0.5,0.5,1,1.1,1.5,1.4c0.2,0.1,0.2,0.2,0,0.3
			c-0.5,0.5-0.9,1-1.3,1.5c-0.1,0.1-0.2,0.1-0.3,0c-0.4-0.3-0.9-0.7-1.4-1.2c-0.3,0.3-0.9,1-1.1,1.2c-0.1,0.1-0.2,0.2-0.4,0
			c-0.5-0.3-1.1-0.9-1.5-1.4c-0.1-0.1-0.1-0.2,0-0.3c0.4-0.5,0.9-1,1.4-1.5c0.1-0.1,0.2-0.1,0.3,0.1c0.4,0.4,1,1,1.4,1.2
			C427.3,19.8,427.8,19.2,428.1,18.9z"/>
		<path class="st1" d="M440.5,16.4c0,0.5-0.1,1-0.3,1.5c0.2,0.1,0.4,0.3,0.4,0.4c0,0.4-0.2,0.7-0.3,1c-0.1,0.1-0.1,0.1-0.1,0.1
			l-0.5-0.3c-0.5,0.8-1.3,1.8-2.5,2.3c-0.4,0.2-0.9,0.4-1.5,0.4c-0.3,0-0.4-0.1-0.4-0.1c0-0.1,0.2-0.2,0.6-0.4
			c0.9-0.5,2.5-1.8,3.1-2.5c-0.5-0.3-1.1-0.7-1.1-1.4c0-0.4,0.2-0.9,0.6-1.3c0.4-0.5,0.8-0.8,1.2-0.8
			C440.3,15.2,440.5,15.9,440.5,16.4z M438.7,16.9C438.7,16.9,438.7,16.9,438.7,16.9c0,0.2,0.4,0.5,0.8,0.7c0.1-0.2,0.1-0.4,0.1-0.7
			c0-0.3-0.1-0.4-0.3-0.4C439.1,16.5,438.8,16.6,438.7,16.9z"/>
		<path class="st1" d="M446.5,9.8c0,0.5-0.1,1-0.3,1.5c0.2,0.1,0.4,0.3,0.4,0.4c0,0.4-0.2,0.7-0.3,1c-0.1,0.1-0.1,0.1-0.1,0.1
			l-0.5-0.3c-0.5,0.8-1.3,1.8-2.5,2.3c-0.4,0.2-0.9,0.4-1.5,0.4c-0.3,0-0.4-0.1-0.4-0.1c0-0.1,0.2-0.2,0.6-0.4
			c0.9-0.5,2.5-1.8,3.1-2.5c-0.5-0.3-1.1-0.7-1.1-1.4c0-0.4,0.2-0.9,0.6-1.3c0.4-0.5,0.8-0.8,1.2-0.8C446.3,8.6,446.5,9.3,446.5,9.8
			z M444.7,10.3C444.7,10.3,444.7,10.3,444.7,10.3c0,0.2,0.4,0.5,0.8,0.7c0.1-0.2,0.1-0.4,0.1-0.7c0-0.3-0.1-0.4-0.3-0.4
			C445.1,9.9,444.9,10,444.7,10.3z"/>
		<path class="st1" d="M444,17.7c0-0.1,0-0.2,0-0.3c0,0,0-0.1,0-0.2c0-0.1,0.2-0.5,0.5-1c0.3-0.5,0.5-0.9,0.7-0.9
			c0.1,0,0.1,0.1,0.2,0.2c0.3,1,0.6,1.4,0.8,1.7c0,0.1,0.1,0.2,0.1,0.2c0,0.1,0,0.1,0,0.2c-0.1,0.2-0.4,0.8-0.6,1.1
			c0,0.6,0.2,2.2,0.5,4.3c0.2,2,0.3,3.1,0.3,3.6c0,1.7-0.4,3-1.1,4c-0.6,0.7-1.4,1-2.3,1c-0.7,0-1.3-0.2-1.8-0.8
			c-0.4-0.5-0.8-1.4-1.1-2.8c-0.5,1.2-1.2,1.8-2.2,1.8c-0.1,0-0.1,0-0.4,0c-0.7,0-1.1-0.1-1.4-0.2c-0.2-0.1-0.4-0.3-0.4-0.6
			c0-0.1,0-0.2,0.1-0.4c0.1-0.3,0.2-0.7,0.3-1c0.2-0.5,0.5-0.9,1-1.1c0.8-0.5,1.8-1,2.7-1.3c0-0.3,0.1-0.7,0.3-1.2
			c0.2-0.5,0.3-0.8,0.4-0.8c0.1,0,0.2,0.1,0.2,0.3c0.1,0.6,0.2,1.9,0.5,3.7c0.2,0.6,0.4,1.1,0.7,1.4c0.3,0.3,0.7,0.5,1.2,0.5
			c0.1,0,0.2,0,0.4,0c0.4,0,0.7,0,1-0.2c0.4-0.1,0.6-0.3,0.7-0.4c-0.1-1.9-0.9-8.8-1.1-10.3C444.1,18.1,444.1,18.2,444,17.7z
			 M438.5,27.8c0.7,0,1.1-0.2,1.4-0.5l-0.2-1.1c-1.2,0.6-2,1-2.3,1.4C437.7,27.7,438.1,27.8,438.5,27.8z"/>
		<path class="st1" d="M446.1,37.7c-0.3-0.2-0.4-0.3-0.4-0.4c0-0.1,0.2-0.2,0.4-0.2c0.3,0,1.1,0.2,1.8,0.2c0.6,0,1.2-0.2,2.1-0.6
			c2.4-1.2,3.9-3,3.9-4.2c0-0.2,0-0.3-0.1-0.7h-0.7c-0.5,0-1.5-0.1-2.2-0.5c-0.7-0.4-1-0.9-1-1.5c0-0.6,0.3-1.4,0.6-2.2
			c0.6-1.3,1.2-2.2,1.9-2.2c0.7,0,1.3,0.5,1.8,1.1c0.5,0.7,0.7,1.8,0.7,2.8h1c0.6,0,0.9,0.3,0.9,1c0,0.8-0.3,1.2-0.9,1.2l-1.1,0.1
			c-0.2,3.5-1.3,5.8-4.1,6.9c-0.2,0.1-0.4,0.1-0.6,0.1C449.1,38.8,447.5,38.3,446.1,37.7z M452.3,28.1c-0.1-0.1-0.3-0.2-0.6-0.2
			c-0.5,0-0.8,0.5-0.8,0.8c0,0.2,0.2,0.5,0.8,0.7c0.4,0.2,0.9,0.2,1.1,0.2c0.2,0,0.2,0,0.2-0.1C453.2,29.2,452.8,28.4,452.3,28.1z"
			/>
		<path class="st1" d="M460.5,10.7c0.1-0.1,0.1,0,0.1,0.1c0,0.6-0.2,1.1-0.5,1.3l-4.1,2.3c-0.1,0-0.1,0-0.1-0.1c0-0.3,0.1-0.8,0.2-1
			c0.1-0.2,0.3-0.3,0.7-0.5L460.5,10.7z"/>
		<path class="st1" d="M461.4,26.6c0,1.2-0.4,2.9-0.9,3.7c-0.2,0.3-0.9,0.7-1.4,0.8c-1.4,0.4-2.5,0.6-3.3,0.6h-0.2
			c-0.6,0-1-0.4-1-1.2c0-0.7,0.3-1.1,1-1.1h0.2c1.3,0,2.8-0.2,3.7-0.5c0.8-0.3,0.9-0.3,0.9-1.1c0-0.5-0.1-0.8-0.3-1.3
			c-0.2,0.5-0.9,1-1.8,1c-1.1,0-1.8-0.7-1.8-2c0-1.8,1.4-4.1,2-4.1C460.2,21.5,461.4,24.9,461.4,26.6z M459.9,16
			c0.2-0.2,0.2-0.2,0.3-0.1c0.5,0.5,1,1.1,1.5,1.4c0.2,0.1,0.2,0.2,0,0.3c-0.5,0.5-0.9,1-1.3,1.5c-0.1,0.1-0.2,0.1-0.3,0
			c-0.4-0.3-0.9-0.7-1.4-1.2c-0.3,0.3-0.9,1-1.1,1.2c-0.1,0.1-0.2,0.2-0.4,0c-0.5-0.3-1.1-0.9-1.5-1.4c-0.1-0.1-0.1-0.2,0-0.3
			c0.4-0.5,0.9-1,1.4-1.5c0.1-0.1,0.2-0.1,0.3,0.1c0.4,0.4,1,1,1.4,1.2C459.1,16.9,459.7,16.2,459.9,16z M458.8,24
			c-0.2-0.2-0.5-0.3-0.7-0.3c-0.2,0-0.4,0.1-0.5,0.4c-0.1,0.2-0.2,0.4-0.2,0.5c0,0.5,0.5,0.6,1,0.6c0.5,0,0.9-0.2,0.9-0.5
			C459.3,24.7,459.1,24.3,458.8,24z"/>
		<path class="st1" d="M471.5,24.3c0.3,0.3,0.4,0.7,0.4,1.1c0,0.2-0.1,0.7-0.4,0.9c-0.3,0.3-0.7,0.4-1.1,0.4c-0.3,0-0.7-0.1-0.9-0.4
			c-0.3-0.3-0.4-0.6-0.4-1c0-0.4,0.2-0.8,0.4-1c0.3-0.2,0.6-0.4,1-0.4C470.9,24,471.3,24.1,471.5,24.3z M471.5,29.6
			c0.3,0.3,0.4,0.8,0.4,1.1c0,0.3-0.1,0.7-0.4,1c-0.3,0.3-0.7,0.4-1.1,0.4c-0.3,0-0.6-0.2-0.9-0.4c-0.3-0.3-0.4-0.6-0.4-1
			c0-0.3,0.2-0.7,0.4-1c0.3-0.3,0.6-0.4,1-0.4C470.9,29.2,471.3,29.3,471.5,29.6z"/>
		<path class="st1" d="M492.5,29.7c0,2.3-0.4,2.8-0.9,3.7c-1.3,2-3.6,2.9-5.9,2.9c-4,0-5.1-2.1-5.1-4.1c0-1.4,0.5-3,1.1-4.2
			c0.3-0.6,0.6-0.8,0.8-0.8c0.1,0,0.1,0.1,0.1,0.2c0,0.2-0.1,0.5-0.3,0.8c-0.3,0.7-0.7,1.7-0.7,2.5c0,1.8,1.4,3.3,4.4,3.3
			c2.2,0,4.9-1.4,5.4-2.6c0.1-0.1,0.1-0.2,0.1-0.3c-0.1-1.9-0.3-3.2-0.5-4.9c-0.4-3.1-0.5-3.8-0.8-6.6c0-0.4-0.3-1.3-0.4-1.7
			c0-0.1,0-0.2,0-0.3c0,0,0-0.1,0-0.2c0-0.1,0.1-0.4,0.4-0.9c0.2-0.5,0.7-1.1,0.8-1.1c0.1,0,0.1,0.1,0.2,0.2
			c0.3,0.9,0.6,1.4,0.8,1.8c0,0.1,0.1,0.2,0.1,0.2s0,0.1,0,0.2c-0.1,0.2-0.3,0.8-0.5,1.1C492,22.4,492.5,27.3,492.5,29.7z"/>
		<path class="st1" d="M499.6,31.8c-0.7,0-1.2-0.1-1.7-0.5c-0.7-0.6-1.1-1.7-1.3-3.1c-0.2-1.1-0.2-2.3-0.3-3.7
			c-0.1-2-0.2-5.1-0.5-6.9c0-0.1,0-0.2,0-0.2c0-0.1,0-0.2,0.2-0.4c0.3-0.5,0.5-0.8,0.7-1.2c0.2-0.3,0.2-0.3,0.3-0.3
			c0.1,0,0.2,0.2,0.3,0.7c0.4,3.5,0.1,8.4,0.6,11.1c0.1,0.7,0.2,0.9,0.4,1.3c0.3,0.6,0.7,0.9,1.4,1c0.8,0,1.2,0.4,1.2,1.1
			c0,0.9-0.4,1.2-1.1,1.2H499.6z"/>
		<path class="st1" d="M504.5,28.1c0,0.6,0.6,1.2,1.4,1.4c0.2,0,0.3,0,0.5,0h0.1c0.9,0,0.9,0.7,0.9,1c0,0.3,0,1.3-0.8,1.3h-0.2
			c-0.2,0-0.3,0-0.6,0c-1.5-0.2-2.1-1.5-2.2-1.7c-0.2,0.6-1.5,1.7-3.7,1.7h-0.1c-0.6,0-1-0.6-1-1.1s0.3-1.1,1-1.1h0.7
			c1,0,2.4-0.2,3.3-1.6c0.3-0.5,0.4-0.5,0.5-0.5C504.4,27.4,504.5,27.6,504.5,28.1z M504.3,21.6c0.2-0.2,0.2-0.2,0.3-0.1
			c0.5,0.5,1,1.1,1.5,1.4c0.2,0.1,0.2,0.2,0,0.3c-0.5,0.5-0.9,1-1.3,1.5c-0.1,0.1-0.2,0.1-0.3,0c-0.4-0.3-0.9-0.7-1.4-1.2
			c-0.3,0.3-0.9,1-1.1,1.2c-0.1,0.1-0.2,0.2-0.4,0c-0.5-0.3-1.1-0.9-1.5-1.4c-0.1-0.1-0.1-0.2,0-0.3c0.4-0.5,0.9-1,1.4-1.5
			c0.1-0.1,0.2-0.1,0.3,0.1c0.4,0.4,1,1,1.4,1.2C503.5,22.5,504.1,21.9,504.3,21.6z M504.7,18.3c0.1,0.1,0.1,0.1,0,0.2
			c-0.2,0.3-1.1,1.2-1.4,1.7c-0.1,0.1-0.1,0.1-0.2,0c-0.5-0.3-1.5-1-1.7-1.4c-0.1-0.1-0.1-0.1,0-0.2c0.3-0.5,0.9-1.2,1.3-1.6
			c0.2-0.2,0.2-0.2,0.3-0.1C503.2,17.2,504,17.9,504.7,18.3z"/>
		<path class="st1" d="M506.6,31.8h-0.1c-0.7,0-1-0.4-1-1.2c0-0.7,0.4-1.1,1-1.1h0.1c1.2,0,2.2-0.5,2.9-1.4l1.3-2
			c0.7-1.1,1.7-1.5,2.2-1.5c1.7,0,2.4,2.9,2.4,4.1c0,1-1.1,2.4-1.6,2.4c-0.8,0-2.8-1-3.8-1.9C508.9,31,507.8,31.8,506.6,31.8z
			 M511.9,26.6c-0.2,0-0.3,0.1-0.5,0.3c-0.1,0.1-0.2,0.3-0.3,0.5c0.5,0.3,1.9,1,2.5,1.4C513.5,27.9,512.6,26.6,511.9,26.6z"/>
	</g>
</g>
</svg>
