<?xml version="1.0" encoding="utf-8"?>
<!-- Generator: Adobe Illustrator 19.2.0, SVG Export Plug-In . SVG Version: 6.00 Build 0)  -->
<svg version="1.1" id="Layer_1" xmlns="http://www.w3.org/2000/svg" xmlns:xlink="http://www.w3.org/1999/xlink" x="0px" y="0px"
	 viewBox="0 0 632.5 87.9" style="enable-background:new 0 0 632.5 87.9;" xml:space="preserve">
<style type="text/css">
	.st0{fill:#FFFFFF;}
	.st1{fill:#F7931E;}
</style>
<g>
	<path class="st0" d="M5.5,25.9c0.1-0.1,0.1,0,0.1,0.1c0,0.6-0.2,1.1-0.5,1.3L1,29.5c-0.1,0-0.1,0-0.1-0.1c0-0.3,0.1-0.8,0.2-1
		c0.1-0.2,0.3-0.3,0.7-0.5L5.5,25.9z"/>
	<path class="st0" d="M4.3,9.7c0.2-0.2,0.2-0.2,0.3-0.1c0.5,0.5,1,1.1,1.5,1.4c0.2,0.1,0.2,0.2,0,0.3c-0.5,0.5-0.9,1-1.3,1.5
		c-0.1,0.1-0.2,0.1-0.3,0c-0.4-0.3-0.9-0.7-1.4-1.2c-0.3,0.3-0.9,1-1.1,1.2c-0.1,0.1-0.2,0.2-0.4,0c-0.5-0.3-1.1-0.9-1.5-1.4
		c-0.1-0.1-0.1-0.2,0-0.3c0.4-0.5,0.9-1,1.4-1.5c0.1-0.1,0.2-0.1,0.3,0.1c0.4,0.4,1,1,1.4,1.2C3.5,10.6,4.1,10,4.3,9.7z M7.3,22.1
		c0.5,0.3,0.9,0.5,1.2,0.5h0.3c0.7,0,1.1,0.4,1.1,1.1c0,0.8-0.4,1.2-1.1,1.2H8.5c-0.8,0-1.5-0.3-2.3-0.9c-0.7-0.6-1.2-1.6-1.4-3
		c-0.2,0.4-0.4,0.7-0.8,1c-0.6,0.4-1.6,0.6-2.6,0.6c-0.7,0-1.4-0.1-1.4-0.7c0.3-2.2,0.6-2.6,1.7-3.4c0.5-0.4,1.8-1.2,2.3-1.6
		c0-0.2,0-0.4,0-0.5c0-0.5,0.1-0.8,0.4-1.2c0.2-0.3,0.3-0.5,0.4-0.5c0.1,0,0.2,0.2,0.2,0.5C5.4,17.3,5.5,19,5.8,20
		C6,20.8,6.5,21.6,7.3,22.1z M4.3,18.1c-0.9,0.6-2.5,1.6-2.6,1.9c0,0.2,0.3,0.2,0.7,0.2c0.6,0,1.5-0.2,2.2-0.5
		C4.5,19.1,4.4,18.8,4.3,18.1z"/>
	<path class="st0" d="M10.5,17.1c-0.4,0-0.7-0.2-0.8-0.4c-0.2-0.3-0.3-0.8-0.3-1.1c0-0.4,0-0.7,0.2-1s0.4-0.7,0.7-0.7
		c0.1,0,0.1,0.1,0.1,0.3c0,0.2-0.1,0.4-0.1,0.6c0,0.5,0.3,0.7,0.7,0.7c0.4,0,0.7-0.4,0.9-0.8c0.3-0.7,0.6-1,0.9-1
		c0.1,0,0.2,0.1,0.2,0.3c0,0.1,0,0.2,0,0.4c0,0.3,0.1,0.5,0.5,0.5c0.3,0,0.6-0.2,0.9-0.7c0.3-0.5,0.4-0.7,0.5-0.7
		c0.2,0,0.2,0.3,0.2,0.5c0,0.6-0.2,1.1-0.5,1.6c-0.3,0.4-0.7,0.9-1.4,0.9c-0.4,0-0.6-0.1-0.8-0.3c-0.1-0.1-0.2,0-0.3,0.2
		C11.6,16.8,11,17.1,10.5,17.1z"/>
	<path class="st0" d="M13.3,21.2c0,0.6,0.6,1.2,1.4,1.4c0.2,0,0.3,0,0.5,0h0.1c0.9,0,0.9,0.7,0.9,1c0,0.3,0,1.3-0.8,1.3h-0.2
		c-0.2,0-0.3,0-0.6,0c-1.5-0.2-2.1-1.5-2.2-1.7c-0.2,0.6-1.5,1.7-3.7,1.7H8.6c-0.6,0-1-0.6-1-1.1c0-0.6,0.3-1.1,1-1.1h0.7
		c1,0,2.4-0.2,3.3-1.6c0.3-0.5,0.4-0.5,0.5-0.5C13.2,20.5,13.3,20.7,13.3,21.2z M13.1,27.9c0.2-0.2,0.2-0.2,0.3-0.1
		c0.5,0.5,1,1.1,1.5,1.4c0.2,0.1,0.2,0.2,0,0.3c-0.5,0.5-0.9,1-1.3,1.5c-0.1,0.1-0.2,0.1-0.3,0c-0.4-0.3-0.9-0.7-1.4-1.2
		c-0.3,0.3-0.9,1-1.1,1.2c-0.1,0.1-0.2,0.2-0.4,0c-0.5-0.3-1.1-0.9-1.5-1.4c-0.1-0.1-0.1-0.2,0-0.3c0.4-0.5,0.9-1,1.4-1.5
		c0.1-0.1,0.2-0.1,0.3,0.1c0.4,0.4,1,1,1.4,1.2C12.3,28.8,12.9,28.2,13.1,27.9z"/>
	<path class="st0" d="M19.1,23.5c-0.4,0.6-1.2,1.1-2.6,1.3c-0.4,0.1-0.9,0.1-1.4,0.1c-0.6,0-1-0.6-1-1.1c0-0.6,0.3-1.1,1-1.1h0.5
		c1,0,2.6,0,3.2-0.6c-0.1-0.9-0.8-2-1.1-2.4c0,0,0,0,0-0.1c0-0.4,0.7-1.8,0.7-1.9c0-0.1,0.1-0.1,0.1-0.1c0.3,0,1.1,1.6,1.1,3.5
		C19.7,21.8,19.6,22.7,19.1,23.5z M20.2,27.4c0.1,0.1,0.1,0.1,0,0.2c-0.2,0.3-1.1,1.2-1.4,1.7c-0.1,0.1-0.1,0.1-0.2,0
		c-0.5-0.3-1.5-1-1.7-1.4c-0.1-0.1-0.1-0.1,0-0.2c0.3-0.5,0.9-1.2,1.3-1.6c0.2-0.2,0.2-0.2,0.3-0.1C18.8,26.3,19.6,26.9,20.2,27.4z"
		/>
	<path class="st0" d="M32.9,22.6c0.7,0,1.1,0.4,1.1,1.1c0,0.8-0.4,1.2-1.1,1.2h-0.2c-0.6,0-1,0-1.3-0.1c0,0.1,0,0.2,0,0.3
		c0,0.7-0.1,1.5-0.4,2.1c-0.5,1.2-1.3,3.3-3.6,4.3c-0.4,0.2-0.8,0.3-1.2,0.3c-0.9,0-2.4-0.5-3.5-1c-0.3-0.2-0.4-0.3-0.4-0.4
		c0-0.1,0.1-0.2,0.4-0.2c0.3,0,0.8,0.1,1.3,0.1c3.1,0,6.2-2.7,6.6-5c0-0.5-1.1-1.6-1.3-1.9c0-0.1-0.1-0.2-0.1-0.3
		c0-0.5,0.4-1.5,0.6-1.8c0.1-0.2,0.2-0.2,0.3-0.2c0.2,0,0.3,0.2,0.6,0.7c0.4,0.6,0.9,0.9,1.8,0.9H32.9z"/>
	<path class="st0" d="M39.9,11c0.1-0.1,0.1,0,0.1,0.1c0,0.6-0.2,1.1-0.5,1.3l-4.1,2.3c-0.1,0-0.1,0-0.1-0.1c0-0.3,0.1-0.8,0.2-1
		c0.1-0.2,0.3-0.3,0.7-0.5L39.9,11z"/>
	<path class="st0" d="M42.9,22.6c0.6,0,1,0.4,1,1.1c0,0.8-0.3,1.2-1,1.2h-0.2c-1-0.1-1.9-0.3-2.7-0.8c-0.8-0.5-1.1-0.9-1.6-1.7
		c-1.2,1.1-2.1,1.7-2.9,2c-0.8,0.3-1.7,0.5-2.7,0.5c-0.8,0-1.1-0.4-1.1-1.2c0-0.7,0.4-1.1,1.1-1.1h0.2c1.8,0,3-0.3,4.5-1.2
		c-0.5-0.7-1.7-1-2.3-1.1c-0.1,0-0.1-0.2-0.1-0.4c0-0.5,0.2-1.4,0.5-1.6c1-0.7,2.1-1.1,3.1-1.1c1,0,1.9,0.4,2.6,1.1
		c0.2,0.2,0.2,0.4,0.2,0.7c0,0.7-0.4,1.7-1.3,2.3c0.8,0.8,1.7,1.2,2.6,1.2H42.9z"/>
	<path class="st0" d="M44.7,2.7c0.7,0,1.7,1,1.7,2.1c0,0.4-0.1,0.8-0.2,1.2c-0.3,0.8-0.9,1.3-1.8,1.3c-0.8,0-1.3-0.6-1.3-1.3
		C43.1,4.9,44.2,2.7,44.7,2.7z M44.5,4.3c-0.3,0-0.7,0.6-0.7,1c0,0.3,0.4,0.6,0.8,0.6c0.5,0,1.1-0.3,1.1-0.5
		C45.7,5.1,45.1,4.3,44.5,4.3z"/>
	<path class="st0" d="M45,23.8c-0.5,0.7-1.2,1-2.3,1h-0.2c-0.7,0-1-0.4-1-1.2c0-0.7,0.3-1.1,1-1.1h0.2c0.5,0,1-0.1,1.5-0.2
		c0.4-0.1,0.6-0.3,0.7-0.4c0-1.7-0.6-5.4-0.9-8.9c0-0.4-0.3-1.6-0.4-2.1c0-0.1,0-0.2,0-0.2c0-0.3,0.3-0.9,0.5-1.3
		c0.3-0.5,0.5-0.9,0.7-0.9c0.1,0,0.1,0.1,0.2,0.2c0.3,1,0.6,1.5,0.8,1.8c0.1,0.1,0.1,0.2,0.1,0.3c0,0,0,0.1,0,0.1
		c-0.1,0.2-0.4,0.8-0.6,1.1c0.2,3.4,0.7,6.2,0.7,7.8C46,21.5,45.7,22.8,45,23.8z"/>
	<path class="st0" d="M50.6,24.9c-0.1,0-0.2-0.2-0.2-0.7c0-3-1.1-11.3-1.1-12.7c0-0.7,0.5-1.7,0.9-2.5c0.1-0.2,0.3-0.5,0.5-0.5
		c0.1,0,0.2,0.2,0.2,0.8c0.1,2.2,0.7,7.3,0.7,11c0,1.5-0.1,2.7-0.4,3.5C51,24.5,50.8,24.9,50.6,24.9z"/>
	<path class="st0" d="M73.8,26.7c0.1-0.1,0.1,0,0.1,0.1c0,0.6-0.2,1.1-0.5,1.3l-4.1,2.3c-0.1,0-0.1,0-0.1-0.1c0-0.3,0.1-0.8,0.2-1
		c0.1-0.2,0.3-0.3,0.7-0.5L73.8,26.7z"/>
	<path class="st0" d="M78.7,19.2c0,0.5-0.3,1.8-0.6,2.8c-0.3,0.7-0.4,0.8-1.2,1.2c-1.7,0.8-5.7,2-9.8,2c-5.3,0-7.4-1.8-7.4-4.3
		c0-0.9,0.4-2.4,1-3.3c0.2-0.3,0.4-0.6,0.6-0.6c0.1,0,0.1,0,0.1,0.1c0,0.1-0.1,0.3-0.1,0.5c-0.2,0.7-0.5,1.4-0.5,2
		c0,1.1,1.4,3.1,6.5,3.2c3.7,0,7.7-0.8,9.4-1.4c0.9-0.3,0.9-0.5,0.9-1.1c0-0.5-0.1-0.8-0.3-1.3c-0.2,0.5-0.9,1-1.8,1
		c-1.1,0-1.8-0.7-1.8-2c0-1.8,1.4-4.1,2-4.1C77.3,13.8,78.7,16.4,78.7,19.2z M73.7,11.1c0.1,0.1,0.1,0.1,0,0.2
		c-0.2,0.3-1.1,1.2-1.4,1.7C72.2,13,72.1,13,72,13c-0.5-0.3-1.5-1-1.7-1.4c-0.1-0.1-0.1-0.1,0-0.2c0.3-0.5,0.9-1.2,1.3-1.6
		c0.2-0.2,0.2-0.2,0.3-0.1C72.3,10,73,10.6,73.7,11.1z M75.5,16.1c-0.3,0-0.6,0.4-0.7,0.8c0,0,0,0.1,0,0.1s0,0.1,0,0.1
		c0.1,0.3,0.5,0.5,1,0.5c0.4,0,0.8-0.2,0.9-0.3c0,0,0.1-0.1,0.1-0.1C76.7,17,76.3,16.1,75.5,16.1z"/>
	<path class="st0" d="M86.8,20.7c0.3,0.9,0.5,1.8,0.5,3.1c0,4-1.1,6.5-4.2,7.7c-0.2,0.1-0.4,0.1-0.6,0.1c-1,0-2.6-0.5-4-1.1
		c-0.3-0.2-0.4-0.3-0.4-0.4c0-0.1,0.1-0.2,0.4-0.2c0.2,0,1.1,0.2,1.8,0.2c0.9,0,1.9-0.4,3.3-1.3c1.5-1,2.8-2.3,2.8-3.8
		c0-0.5-0.1-1-0.4-1.5c-0.3,0.7-0.8,1.1-1.5,1.1c-1.3,0-2.1-0.7-2.1-2.1c0-0.5,0.3-1.3,0.6-2.1c0.5-1,1.2-1.9,1.8-1.9
		C85.4,18.5,86.3,19.4,86.8,20.7z M84.2,20.8c-0.3,0-0.5,0.2-0.7,0.5c-0.1,0.1-0.2,0.4-0.2,0.5c0,0.4,0.6,0.6,1.1,0.6
		c0.4,0,0.7-0.2,0.8-0.4C85.2,21.2,84.5,20.8,84.2,20.8z"/>
	<path class="st0" d="M97.8,22.6c0.7,0,1.1,0.4,1.1,1.1c0,0.8-0.4,1.2-1.1,1.2h-0.2c-0.6,0-1,0-1.3-0.1c0,0.1,0,0.2,0,0.3
		c0,0.7-0.1,1.5-0.4,2.1c-0.5,1.2-1.3,3.3-3.6,4.3c-0.4,0.2-0.8,0.3-1.2,0.3c-0.9,0-2.4-0.5-3.5-1c-0.3-0.2-0.4-0.3-0.4-0.4
		c0-0.1,0.1-0.2,0.4-0.2c0.3,0,0.8,0.1,1.3,0.1c3.1,0,6.2-2.7,6.6-5c0-0.5-1.1-1.6-1.3-1.9c0-0.1-0.1-0.2-0.1-0.3
		c0-0.5,0.4-1.5,0.6-1.8c0.1-0.2,0.2-0.2,0.3-0.2c0.2,0,0.3,0.2,0.6,0.7c0.4,0.6,0.9,0.9,1.8,0.9H97.8z"/>
	<path class="st0" d="M101.2,11.5c0,0.5-0.1,1-0.3,1.5c0.2,0.1,0.4,0.3,0.4,0.4c0,0.4-0.2,0.7-0.3,1c-0.1,0.1-0.1,0.1-0.1,0.1
		l-0.5-0.3c-0.5,0.8-1.3,1.8-2.5,2.3c-0.4,0.2-0.9,0.4-1.5,0.4c-0.3,0-0.4-0.1-0.4-0.1c0-0.1,0.2-0.2,0.6-0.4
		c0.9-0.5,2.5-1.8,3.1-2.5c-0.5-0.3-1.1-0.7-1.1-1.4c0-0.4,0.2-0.9,0.6-1.3c0.4-0.5,0.8-0.8,1.2-0.8C101,10.2,101.1,10.9,101.2,11.5
		z M99.4,11.9C99.3,11.9,99.3,12,99.4,11.9c0,0.2,0.4,0.5,0.8,0.7c0.1-0.2,0.1-0.4,0.1-0.7c0-0.3-0.1-0.4-0.3-0.4
		C99.7,11.5,99.5,11.6,99.4,11.9z"/>
	<path class="st0" d="M103.5,2.8c0.7,0,1.7,1,1.7,2.1c0,0.4-0.1,0.8-0.2,1.2c-0.3,0.8-0.9,1.3-1.8,1.3c-0.8,0-1.3-0.6-1.3-1.3
		C101.8,5,103,2.8,103.5,2.8z M103.3,4.4c-0.3,0-0.7,0.6-0.7,1c0,0.3,0.4,0.6,0.8,0.6c0.5,0,1.1-0.3,1.1-0.5
		C104.5,5.3,103.8,4.4,103.3,4.4z"/>
	<path class="st0" d="M104.4,15.4c0,0.6-0.1,1.1-0.2,1.4c-0.1,0.4-0.2,0.7-0.3,1c-0.1,0.3-0.4,0.6-0.9,1c0.9,0.2,1.8,0.5,2.8,0.8
		c1.1,0.3,2,0.6,2.6,0.7c0.6,0.2,1.4,0.2,2.4,0.3l1.7,0.1c0.2,0,0.2,0.1,0.2,0.2c-0.3,0.4-0.7,0.9-1.3,1.6c-0.1,0.2-0.2,0.2-0.4,0.2
		c-0.2,0-1.3-0.2-2.9-0.2c-0.8,0-1.5,0.1-2.3,0.3c-0.7,0.2-1.7,0.5-2.8,0.9c-1.1,0.4-2.1,0.7-2.7,0.9c-0.6,0.2-1.5,0.3-2.4,0.3h-0.2
		c-0.7,0-1-0.4-1-1.2c0-0.8,0.3-1.1,1-1.1h0.3c2.5,0,4.7-0.4,6.7-1c-0.2-0.2-0.9-0.4-2.3-0.8c-1.3-0.4-2.4-0.6-3.1-0.6
		c-0.2,0-0.2,0-0.2-0.1c0-0.3,0.4-0.8,1.3-1.6c0.1-0.1,0.2-0.2,0.3-0.2c0.2-0.1,0.5-0.2,0.9-0.3c0.3-0.1,0.7-0.2,1.3-0.5
		c0.6-0.2,0.8-0.5,0.8-0.8l-0.7-4.2c-0.1-0.4-0.3-1.3-0.4-1.7c0-0.1,0-0.2,0-0.3c0,0,0-0.1,0-0.2c0-0.1,0.1-0.4,0.4-0.9
		c0.2-0.5,0.6-1,0.8-1c0.1,0,0.1,0.1,0.2,0.2c0.3,0.9,0.6,1.4,0.8,1.8c0,0.1,0.1,0.2,0.1,0.2s0,0.1,0,0.2c-0.1,0.2-0.3,0.7-0.5,1
		C104.2,13.1,104.4,14.4,104.4,15.4z"/>
	<path class="st0" d="M116.2,24.9c-0.1,0-0.2-0.2-0.2-0.7c0-3-1.1-11.3-1.1-12.7c0-0.7,0.5-1.7,0.9-2.5c0.1-0.2,0.3-0.5,0.5-0.5
		c0.1,0,0.2,0.2,0.2,0.8c0.1,2.2,0.7,7.3,0.7,11c0,1.5-0.1,2.7-0.4,3.5C116.6,24.5,116.4,24.9,116.2,24.9z"/>
	<path class="st0" d="M132.9,8.9c0,0-0.1,0-0.1,0c-0.3,0-0.6-0.2-0.8-0.4c-0.3-0.3-0.4-0.7-0.4-1.2c0-0.2,0-0.5,0.1-0.7
		c0.1-0.2,0.3-0.7,0.5-0.7c0.1,0,0.1,0.1,0.1,0.4c0,0.1,0,0.3,0,0.4c0,0.4,0.2,0.6,0.7,0.6h0c0.4,0,0.8-0.3,0.9-0.9
		c0.1-0.2,0.3-1,0.6-1c0.1,0,0.2,0.1,0.2,0.4V6c0,0.3,0.1,0.4,0.4,0.4c0,0,0.1,0,0.2,0c0.4-0.1,0.6-0.4,0.7-0.8
		c0.2-0.5,0.3-0.7,0.4-0.7c0.1,0,0.2,0.1,0.2,0.3c0,0.2,0,0.3,0,0.5c0,0.4-0.1,0.8-0.3,1.2c-0.3,0.6-0.7,1.1-1.4,1.1
		c-0.3,0-0.4-0.1-0.6-0.2c-0.1-0.1-0.1-0.1-0.2,0C133.8,8.5,133.4,8.9,132.9,8.9z M136.1,0.7c0,0.2,0,0.2,0,0.3
		c0,0.4-0.1,0.8-0.3,1.2c0.2,0.1,0.3,0.2,0.3,0.3c0,0.3-0.1,0.6-0.3,0.9l-0.5-0.3c-0.5,0.8-1,1.3-1.3,1.6c-0.3,0.2-0.9,0.4-1.6,0.4
		c-0.4,0-0.5-0.1-0.3-0.2c1.3-0.8,2.2-1.5,2.7-2.2c-0.4-0.3-0.9-0.6-0.9-1.1c0-0.3,0.2-0.7,0.5-1.1c0.3-0.5,0.7-0.7,1-0.7
		C135.9,0,136.1,0.4,136.1,0.7z M134.6,1.5c0.1,0.2,0.3,0.3,0.7,0.5c0.1-0.1,0.1-0.4,0.1-0.5c0-0.2-0.1-0.4-0.3-0.4
		C134.9,1.1,134.7,1.2,134.6,1.5z"/>
	<path class="st0" d="M142.8,4.1c0,0.5-0.1,1-0.3,1.5c0.2,0.1,0.4,0.3,0.4,0.4c0,0.4-0.2,0.7-0.3,1C142.5,7,142.5,7,142.5,7L142,6.7
		c-0.5,0.8-1.3,1.8-2.5,2.3c-0.4,0.2-0.9,0.4-1.5,0.4c-0.3,0-0.4-0.1-0.4-0.1c0-0.1,0.2-0.2,0.6-0.4c0.9-0.5,2.5-1.8,3.1-2.5
		c-0.5-0.3-1.1-0.7-1.1-1.4c0-0.4,0.2-0.9,0.6-1.3c0.4-0.5,0.8-0.8,1.2-0.8C142.6,2.8,142.8,3.5,142.8,4.1z M141,4.5
		C141,4.6,141,4.6,141,4.5c0,0.2,0.4,0.5,0.8,0.7c0.1-0.2,0.1-0.4,0.1-0.7c0-0.3-0.1-0.4-0.3-0.4C141.4,4.1,141.2,4.3,141,4.5z"/>
	<path class="st0" d="M130.7,29.8c2.4,0,5.7-1.7,5.7-2.9c-0.2-2-0.3-3.2-0.6-4.9c-0.3-3.1-0.7-5.5-1.1-9.6c-0.1-0.9-0.1-1.1,0-1.6
		c0.2-0.5,0.8-1.8,1.1-1.8c0.1,0,0.1,0.1,0.2,0.3c0.1,0.9,0.1,1.5,0.2,3.2c0.1,0.9,0.2,1.9,0.3,3.1c0.1-0.2,0.1-0.6,0.3-1.1
		c0.2-0.6,0.5-1.1,1.1-1.6c1.4-1,2.9-1.9,4.6-2.8c1.7-0.9,3-1.6,4.1-2c0.3-0.1,0.3-0.1,0.3,0.1c0,0.1,0,0.2-0.1,0.3
		c-0.1,0.4-0.4,0.8-0.8,1.4c-0.1,0.1-0.1,0.2-0.3,0.2c-1.7,0.7-6.9,3.7-8.2,4.8c3.9,1.7,5.9,3.5,6.1,5.4c0,1.1-0.2,2.1-0.7,2.9
		c-0.4,0.7-1.2,1.1-2.3,1.3c-0.4,0.1-0.7,0.1-1,0.1c-0.6,0-1.1-0.1-1.3-0.3c-0.4-0.3-0.7-0.6-1-1c0.1,0.9,0.1,1.8,0.1,2.3
		c-0.1,1.9-0.4,2.4-0.9,3.3c-0.5,0.7-2.4,3.1-6.2,3c-4,0-5.1-2.1-5.1-4.1c0-1.4,0.5-3.1,1.1-4.2c0.3-0.6,0.6-0.8,0.7-0.8
		c0.3,0-0.1,0.9-0.2,1c-0.3,0.7-0.7,1.7-0.7,2.5C126.3,29,128.8,29.8,130.7,29.8z M139,22.4c0.3,0.1,0.5,0.2,1.1,0.2
		c0.3,0,0.8-0.1,1.3-0.2c0.5-0.2,0.9-0.4,1.3-0.7c0-0.6-0.4-1.1-1.2-1.8c-0.8-0.7-2.3-1.4-4.2-2.1c-0.2-0.1-0.4-0.3-0.6-0.5
		c0.1,1.6,0.4,3,1,3.9C137.7,21.2,138.4,22.2,139,22.4z"/>
	<path class="st0" d="M156,24.9c-0.7,0-1.2-0.1-1.7-0.5c-0.7-0.6-1.1-1.7-1.3-3.1c-0.2-1.1-0.2-2.3-0.3-3.7c-0.1-2-0.2-5.1-0.5-6.9
		c0-0.1,0-0.2,0-0.2c0-0.1,0-0.2,0.2-0.4c0.3-0.5,0.5-0.8,0.7-1.2c0.2-0.3,0.2-0.3,0.3-0.3c0.1,0,0.2,0.2,0.3,0.7
		c0.4,3.5,0.1,8.4,0.6,11.1c0.1,0.7,0.2,0.9,0.4,1.3c0.3,0.6,0.7,0.9,1.4,1c0.8,0,1.2,0.4,1.2,1.1c0,0.9-0.4,1.2-1.1,1.2H156z"/>
	<path class="st0" d="M166.2,21.4c0,1.6-0.8,2.6-1.7,2.6c-0.3,0-1-0.1-1.6-0.3c-0.8-0.2-1.5-0.5-2.4-0.6c-1.7,1.2-3.1,1.9-4.4,1.9
		H156c-0.7,0-1-0.4-1-1.1c0-0.8,0.3-1.1,1-1.1h0.2c0.6,0,1.3-0.2,2.2-0.5c-0.2-0.3-0.3-0.7-0.3-1.2c0-1.2,0.6-2.7,1.1-3.4
		c-0.1-0.1-0.2-0.4-0.2-0.6c0-0.3,0.1-1.1,0.4-1.6c0.1-0.3,0.3-0.5,0.6-0.5C161.6,14.8,166.2,18,166.2,21.4z M162.1,19.9
		c0-0.9-1.2-1.9-1.5-1.9c-0.2,0-0.5,0.2-0.9,0.5c-0.4,0.4-0.7,0.8-0.7,1c0.1,1,1,1.2,1.7,1.3C160.9,20.8,162.1,20.3,162.1,19.9z
		 M165.4,22.2C165.5,22.2,165.5,22.1,165.4,22.2c-0.1-1.1-1.2-2.6-2.6-3.3c0,1.4-0.7,2.3-0.7,2.3C163.5,21.5,164.5,22.2,165.4,22.2z
		"/>
	<path class="st0" d="M176.3,7.5c0.1-0.1,0.1,0,0.1,0.1c0,0.6-0.2,1.1-0.5,1.3l-4.1,2.3c-0.1,0-0.1,0-0.1-0.1c0-0.3,0.1-0.8,0.2-1
		c0.1-0.2,0.3-0.3,0.7-0.5L176.3,7.5z"/>
	<path class="st0" d="M178,22.6h0.3c0.7,0,1,0.4,1,1.1c0,0.8-0.4,1.2-1,1.2H178c-0.8,0-1.4-0.3-1.8-0.7c-0.5-0.4-0.8-1-1.1-1.9
		c-0.3,1.6-2.2,2.6-4.6,2.6c-0.7,0-1.5-0.1-2.1-0.5c-0.4-0.3-0.7-0.6-0.7-1.1c0-0.5,0.1-1.3,0.4-1.9c0.1-0.2,0.2-0.3,0.3-0.3
		c0.1,0,0.2,0.1,0.3,0.3c0.2,0.7,1.2,1,2.3,1c2.1,0,3.1-0.5,3.6-1.3c0-0.2,0.1-0.4,0.1-0.7c0-1.3-0.4-2.9-0.7-4.4
		c0-0.2-0.1-0.3-0.1-0.5c0-0.1,0.1-0.4,0.5-1.4c0.2-0.4,0.3-0.6,0.4-0.6c0.1,0,0.2,0.2,0.3,0.6c0.8,3.3,0.8,5.6,1.2,7
		c0.1,0.4,0.2,0.6,0.5,0.9C177.1,22.4,177.6,22.6,178,22.6z"/>
	<path class="st0" d="M183.2,9.9c0.7,0,1.7,1,1.7,2.1c0,0.4-0.1,0.8-0.2,1.2c-0.3,0.8-0.9,1.3-1.8,1.3c-0.8,0-1.3-0.6-1.3-1.3
		C181.5,12.1,182.7,9.9,183.2,9.9z M182.9,11.5c-0.3,0-0.7,0.6-0.7,1c0,0.3,0.4,0.6,0.8,0.6c0.5,0,1.1-0.3,1.1-0.5
		C184.1,12.4,183.5,11.5,182.9,11.5z"/>
	<path class="st0" d="M188.2,22.6c0.6,0,1,0.4,1,1.1c0,0.8-0.3,1.2-1,1.2H188c-1-0.1-1.9-0.3-2.7-0.8c-0.8-0.5-1.1-0.9-1.6-1.7
		c-1.2,1.1-2.1,1.7-2.9,2c-0.8,0.3-1.7,0.5-2.7,0.5c-0.8,0-1.1-0.4-1.1-1.2c0-0.7,0.4-1.1,1.1-1.1h0.2c1.8,0,3-0.3,4.5-1.2
		c-0.5-0.7-1.7-1-2.3-1.1c-0.1,0-0.1-0.2-0.1-0.4c0-0.5,0.2-1.4,0.5-1.6c1-0.7,2.1-1.1,3.1-1.1c1,0,1.9,0.4,2.6,1.1
		c0.2,0.2,0.2,0.4,0.2,0.7c0,0.7-0.4,1.7-1.3,2.3c0.8,0.8,1.7,1.2,2.6,1.2H188.2z"/>
	<path class="st0" d="M193.4,11.6c0.1-0.1,0.1,0,0.1,0.1c0,0.6-0.2,1.1-0.5,1.3l-4.1,2.3c-0.1,0-0.1,0-0.1-0.1c0-0.3,0.1-0.8,0.2-1
		c0.1-0.2,0.3-0.3,0.7-0.5L193.4,11.6z"/>
	<path class="st0" d="M191.9,23.5c-0.4,0.6-1.2,1.1-2.6,1.3c-0.4,0.1-0.9,0.1-1.4,0.1c-0.6,0-1-0.6-1-1.1c0-0.6,0.3-1.1,1-1.1h0.5
		c1,0,2.6,0,3.2-0.6c-0.1-0.9-0.8-2-1.1-2.4c0,0,0,0,0-0.1c0-0.4,0.7-1.8,0.7-1.9c0-0.1,0.1-0.1,0.1-0.1c0.3,0,1.1,1.6,1.1,3.5
		C192.5,21.8,192.4,22.7,191.9,23.5z M193,27.4c0.1,0.1,0.1,0.1,0,0.2c-0.2,0.3-1.1,1.2-1.4,1.7c-0.1,0.1-0.1,0.1-0.2,0
		c-0.5-0.3-1.5-1-1.7-1.4c-0.1-0.1-0.1-0.1,0-0.2c0.3-0.5,0.9-1.2,1.3-1.6c0.2-0.2,0.2-0.2,0.3-0.1C191.6,26.3,192.3,26.9,193,27.4z
		"/>
	<path class="st0" d="M205,12.9c0.1-0.1,0.1,0,0.1,0.1c0,0.6-0.2,1.1-0.5,1.3l-4.1,2.3c-0.1,0-0.1,0-0.1-0.1c0-0.3,0.1-0.8,0.2-1
		c0.1-0.2,0.3-0.3,0.7-0.5L205,12.9z"/>
	<path class="st0" d="M205.9,23.5c-1.1,0.6-3.5,2-5.4,3.4c-0.1,0.1-0.1,0.1-0.2,0.1c0,0-0.1,0-0.1-0.1c0-0.2,0.1-0.6,0.3-0.9
		c0.1-0.2,0.7-0.8,1.1-1.2c0.1-0.1,0.1-0.1,0.1-0.1c0,0,0-0.1-0.2-0.1c-0.8-0.3-1.3-0.6-1.3-1.4c0-1.2,1.2-3,2.4-3.9
		c0.5-0.4,0.9-0.6,1.4-0.6c0.7,0,1.1,0.3,1.1,1c0,0.3-0.1,0.9-0.3,1.4c-0.1,0.3-0.2,0.4-0.3,0.4c-0.1,0-0.1,0-0.3-0.2
		c-0.2-0.2-0.5-0.4-0.8-0.4c-0.7,0-1.7,0.5-1.7,0.9c0,0.4,1.7,1.1,2.4,1.1c0.1,0,0.1,0,0.2,0c0.4-0.1,1.4-0.5,2-0.9
		c0.2-0.1,0.3-0.2,0.4-0.2c0.1,0,0.1,0,0.1,0.1c0,0.1-0.1,0.3-0.2,0.6C206.3,23.3,206.1,23.3,205.9,23.5z"/>
	<path class="st0" d="M213.5,24.9c-0.7,0-1.2-0.1-1.7-0.5c-0.7-0.6-1.1-1.7-1.3-3.1c-0.2-1.1-0.2-2.3-0.3-3.7
		c-0.1-2-0.2-5.1-0.5-6.9c0-0.1,0-0.2,0-0.2c0-0.1,0-0.2,0.2-0.4c0.3-0.5,0.5-0.8,0.7-1.2c0.2-0.3,0.2-0.3,0.3-0.3
		c0.1,0,0.2,0.2,0.3,0.7c0.4,3.5,0.1,8.4,0.6,11.1c0.1,0.7,0.2,0.9,0.4,1.3c0.3,0.6,0.7,0.9,1.4,1c0.8,0,1.2,0.4,1.2,1.1
		c0,0.9-0.4,1.2-1.1,1.2H213.5z"/>
	<path class="st0" d="M222.7,10.8c0.1-0.1,0.1,0,0.1,0.1c0,0.6-0.2,1.1-0.5,1.3l-4.1,2.3c-0.1,0-0.1,0-0.1-0.1c0-0.3,0.1-0.8,0.2-1
		c0.1-0.2,0.3-0.3,0.7-0.5L222.7,10.8z"/>
	<path class="st0" d="M216.6,19.6c-0.2,0-0.5,0-0.6,0.1c-0.2,0.1-0.6,0.3-0.8,0.3c-0.2,0-0.2-0.1-0.2-0.2c0-0.4,0.6-1.3,1.2-1.8
		c0.5-0.4,1-0.6,1.4-0.6c0.2,0,0.3,0,0.5,0.1c1.8,0.4,4.1,1.4,6,1.8c1.3,0.3,2.6,0.4,3.4,0.4c0.2,0,0.3,0,0.5,0c0.1,0,0.1,0,0.1,0.1
		c0,0.4-0.7,1.5-1.1,1.9c-0.1,0.1-0.3,0.1-0.6,0.1c-0.5,0-1.6-0.1-1.9-0.1c-0.9,0-1.6,0.1-2.2,0.3c-0.4,0.2-1.2,0.5-2.3,1
		c-1.7,0.8-2.8,1.4-3.6,1.7c-0.8,0.3-1.6,0.5-2.5,0.5h-0.3c-0.7,0-1.1-0.4-1.1-1.2c0-0.7,0.4-1.1,1.1-1.1h0.3c1.4,0,2.5-0.1,3.4-0.4
		c0.9-0.3,2.3-0.7,4-1.4C219.2,20.2,217.6,19.6,216.6,19.6z M223.4,26.3c0.1,0.1,0.1,0.1,0,0.2c-0.2,0.3-1.1,1.2-1.4,1.7
		c-0.1,0.1-0.1,0.1-0.2,0c-0.5-0.3-1.5-1-1.7-1.4c-0.1-0.1-0.1-0.1,0-0.2c0.3-0.5,0.9-1.2,1.3-1.6c0.2-0.2,0.2-0.2,0.3-0.1
		C222,25.2,222.7,25.9,223.4,26.3z"/>
	<path class="st0" d="M237.6,24.9c-0.1,0-0.2-0.2-0.2-0.7c0-3-1.1-11.3-1.1-12.7c0-0.7,0.5-1.7,0.9-2.5c0.1-0.2,0.3-0.5,0.5-0.5
		c0.1,0,0.2,0.2,0.2,0.8c0.1,2.2,0.7,7.3,0.7,11c0,1.5-0.1,2.7-0.4,3.5C237.9,24.5,237.7,24.9,237.6,24.9z"/>
	<path class="st0" d="M248.3,20.8c0,0.9-0.2,1.7-0.3,2c-0.4,1.5-2,2.1-4.9,2.1c-0.7,0-1-0.1-1.2-0.3c-0.2-0.2-0.3-0.7-0.3-1.2
		c0-0.4,0.1-0.7,0.1-0.8c0.1-0.3,0.2-0.5,0.2-0.5c0.1,0,0.1,0.1,0.2,0.2c0.3,0.2,0.9,0.3,1.7,0.3c1.2,0,2.7-0.2,3.3-0.6
		c0.1,0,0.1-0.1,0.1-0.1c0,0,0-0.1,0-0.1c-0.4-1.4-2.2-3.9-3.6-3.9c-0.2,0-0.4,0.2-0.6,0.2c-0.1,0-0.1,0-0.1-0.2
		c0-0.5,0.4-1.8,0.8-2.2c0.1-0.1,0.3-0.1,0.5-0.1c0.3,0,0.8,0.1,1.1,0.3c0.6,0.2,1.5,1.2,2.2,2.4C248,19,248.3,19.9,248.3,20.8z
		 M246.1,10.3c0.1,0.1,0.1,0.1,0,0.2c-0.2,0.3-1.1,1.2-1.4,1.7c-0.1,0.1-0.1,0.1-0.2,0c-0.5-0.3-1.5-1-1.7-1.4
		c-0.1-0.1-0.1-0.1,0-0.2c0.3-0.5,0.9-1.2,1.3-1.6c0.2-0.2,0.2-0.2,0.3-0.1C244.6,9.2,245.4,9.9,246.1,10.3z"/>
	<path class="st0" d="M254.6,31.3c0.1-0.1,0.1,0,0.1,0.1c0,0.6-0.2,1.1-0.5,1.3l-4.1,2.3c-0.1,0-0.1,0-0.1-0.1c0-0.3,0.1-0.8,0.2-1
		c0.1-0.2,0.3-0.3,0.7-0.5L254.6,31.3z"/>
	<path class="st0" d="M254.4,29.4c-0.8,0.4-2.6,1.5-4,2.5c-0.1,0-0.1,0-0.1,0c0,0-0.1,0-0.1-0.1c0-0.1,0.1-0.3,0.2-0.7
		c0.1-0.2,0.5-0.6,0.8-0.9c0,0,0.1-0.1,0.1-0.1s0-0.1-0.1-0.1c-0.6-0.2-0.9-0.4-0.9-0.9c0-0.1,0-0.1,0-0.2c0-0.9,1-2.2,1.8-2.9
		c0.3-0.3,0.7-0.4,1-0.4c0.5,0,0.8,0.3,0.8,0.7c0,0.3-0.1,0.6-0.2,1c-0.1,0.2-0.2,0.4-0.3,0.4c-0.1,0-0.2-0.1-0.3-0.2
		c-0.1-0.1-0.3-0.3-0.6-0.3c-0.8,0-1.3,0.5-1.3,0.7c0,0.3,1.3,0.8,1.8,0.8c0.1,0,0.1,0,0.1,0c0.2-0.1,1.1-0.4,1.5-0.6
		c0.2-0.1,0.3-0.2,0.3-0.2c0,0,0.1,0,0.1,0.1c0,0.1-0.1,0.2-0.1,0.4C254.7,29.2,254.6,29.3,254.4,29.4z M252.9,24.9
		c-0.1,0-0.2-0.2-0.2-0.7c0-3-1.1-11.3-1.1-12.7c0-0.7,0.5-1.7,0.9-2.5c0.1-0.2,0.3-0.5,0.5-0.5c0.1,0,0.2,0.2,0.2,0.8
		c0.1,2.2,0.7,7.3,0.7,11c0,1.5-0.1,2.7-0.4,3.5C253.3,24.5,253.1,24.9,252.9,24.9z"/>
	<path class="st0" d="M266.6,20.8c-0.4,0-0.7-0.2-0.8-0.4c-0.2-0.3-0.3-0.8-0.3-1.1c0-0.4,0-0.7,0.2-1c0.2-0.4,0.4-0.7,0.7-0.7
		c0.1,0,0.1,0.1,0.1,0.3c0,0.2-0.1,0.4-0.1,0.6c0,0.5,0.3,0.7,0.7,0.7c0.4,0,0.7-0.4,0.9-0.8c0.3-0.7,0.6-1,0.9-1
		c0.1,0,0.2,0.1,0.2,0.3c0,0.1,0,0.2,0,0.4c0,0.3,0.1,0.5,0.5,0.5c0.3,0,0.6-0.2,0.9-0.7c0.3-0.5,0.4-0.7,0.5-0.7
		c0.2,0,0.2,0.3,0.2,0.5c0,0.6-0.2,1.1-0.5,1.6c-0.3,0.4-0.7,0.9-1.4,0.9c-0.4,0-0.6-0.1-0.8-0.3c-0.1-0.1-0.2,0-0.3,0.2
		C267.6,20.5,267.1,20.8,266.6,20.8z"/>
	<path class="st0" d="M269,34.4c0.2-0.2,0.2-0.2,0.3-0.1c0.5,0.5,1,1.1,1.5,1.4c0.2,0.1,0.2,0.2,0,0.3c-0.5,0.5-0.9,1-1.3,1.5
		c-0.1,0.1-0.2,0.1-0.3,0c-0.4-0.3-0.9-0.7-1.4-1.2c-0.3,0.3-0.9,1-1.1,1.2c-0.1,0.1-0.2,0.2-0.4,0c-0.5-0.3-1.1-0.9-1.5-1.4
		c-0.1-0.1-0.1-0.2,0-0.3c0.4-0.5,0.9-1,1.4-1.5c0.1-0.1,0.2-0.1,0.3,0.1c0.4,0.4,1,1,1.4,1.2C268.3,35.2,268.8,34.6,269,34.4z"/>
	<path class="st0" d="M267.8,30c2.7,0,7.1-2.1,7.6-2.8c-0.7-0.6-2.6-1.5-4.4-1.5c-0.3,0-0.4-0.1-0.4-0.3c0-0.3,0.3-0.9,0.5-1.3
		c0.1-0.1,0.1-0.2,0.2-0.2c0.7-0.2,1.6-0.7,2.4-1.3c0.8-0.7,1.2-1.6,1.2-2.8c0-1.1-0.1-2.8-0.2-5c-0.1-1.7-0.2-3.4-0.3-3.9
		c0-0.2,0-0.3,0.1-0.4c0.4-1.1,0.8-1.6,0.9-1.6c0.1,0,0.1,0.1,0.1,0.3c0.2,2.9,0.5,8.1,0.8,10.5c0.3,2.1,1.1,3.1,2.3,3.1h0.4
		c0.6,0,0.9,0.4,0.9,1.1c0,0.8-0.3,1.2-0.9,1.2h-0.4c-1,0-1.7-0.3-2.1-0.9c-0.5-0.6-0.9-1.4-1-2.6c-0.1,1.4-0.6,2.4-1.6,3
		c1,0.2,1.4,0.5,1.8,0.7c0.9,0.5,0.9,1.1,0.9,1.5c0,2.8-5.9,5.7-9.3,5.7c-2.2,0-5.3-0.8-5.3-4.8c0-1.7,0.7-3.8,1.5-5
		c0.2-0.4,0.5-0.6,0.7-0.6c0.2,0,0.1,0.4-0.1,0.8c-0.6,1.3-1,2.5-1,3.4C263,28.8,265.4,30,267.8,30z"/>
	<path class="st0" d="M287.9,10.8c0.1-0.1,0.1,0,0.1,0.1c0,0.6-0.2,1.1-0.5,1.3l-4.1,2.3c-0.1,0-0.1,0-0.1-0.1c0-0.3,0.1-0.8,0.2-1
		c0.1-0.2,0.3-0.3,0.7-0.5L287.9,10.8z"/>
	<path class="st0" d="M281.7,19.6c-0.2,0-0.5,0-0.6,0.1c-0.2,0.1-0.6,0.3-0.8,0.3c-0.2,0-0.2-0.1-0.2-0.2c0-0.4,0.6-1.3,1.2-1.8
		c0.5-0.4,1-0.6,1.4-0.6c0.2,0,0.3,0,0.5,0.1c1.8,0.4,4.1,1.4,6,1.8c1.3,0.3,2.6,0.4,3.4,0.4c0.2,0,0.3,0,0.5,0c0.1,0,0.1,0,0.1,0.1
		c0,0.4-0.7,1.5-1.1,1.9c-0.1,0.1-0.3,0.1-0.6,0.1c-0.5,0-1.6-0.1-1.9-0.1c-0.9,0-1.6,0.1-2.2,0.3c-0.4,0.2-1.2,0.5-2.3,1
		c-1.7,0.8-2.8,1.4-3.6,1.7c-0.8,0.3-1.6,0.5-2.5,0.5h-0.3c-0.7,0-1.1-0.4-1.1-1.2c0-0.7,0.4-1.1,1.1-1.1h0.3c1.4,0,2.5-0.1,3.4-0.4
		c0.9-0.3,2.3-0.7,4-1.4C284.4,20.2,282.8,19.6,281.7,19.6z M288.6,26.3c0.1,0.1,0.1,0.1,0,0.2c-0.2,0.3-1.1,1.2-1.4,1.7
		c-0.1,0.1-0.1,0.1-0.2,0c-0.5-0.3-1.5-1-1.7-1.4c-0.1-0.1-0.1-0.1,0-0.2c0.3-0.5,0.9-1.2,1.3-1.6c0.2-0.2,0.2-0.2,0.3-0.1
		C287.2,25.2,287.9,25.9,288.6,26.3z"/>
	<path class="st0" d="M299.1,12.5c0.1-0.1,0.1,0,0.1,0.1c0,0.6-0.2,1.1-0.5,1.3l-4.1,2.3c-0.1,0-0.1,0-0.1-0.1c0-0.3,0.1-0.8,0.2-1
		c0.1-0.2,0.3-0.3,0.7-0.5L299.1,12.5z"/>
	<path class="st0" d="M299.9,20.7c0.3,0.9,0.5,1.8,0.5,3.1c0,4-1.1,6.5-4.2,7.7c-0.2,0.1-0.4,0.1-0.6,0.1c-1,0-2.6-0.5-4-1.1
		c-0.3-0.2-0.4-0.3-0.4-0.4c0-0.1,0.1-0.2,0.4-0.2c0.2,0,1.1,0.2,1.8,0.2c0.9,0,1.9-0.4,3.3-1.3c1.5-1,2.8-2.3,2.8-3.8
		c0-0.5-0.1-1-0.4-1.5c-0.3,0.7-0.8,1.1-1.5,1.1c-1.3,0-2.1-0.7-2.1-2.1c0-0.5,0.3-1.3,0.6-2.1c0.5-1,1.2-1.9,1.8-1.9
		C298.6,18.5,299.4,19.4,299.9,20.7z M297.4,20.8c-0.3,0-0.5,0.2-0.7,0.5c-0.1,0.1-0.2,0.4-0.2,0.5c0,0.4,0.6,0.6,1.1,0.6
		c0.4,0,0.7-0.2,0.8-0.4C298.4,21.2,297.7,20.8,297.4,20.8z"/>
	<path class="st0" d="M318.4,37.4c0.1-0.1,0.1,0,0.1,0.1c0,0.6-0.2,1.1-0.5,1.3l-4.2,2.4c-0.1,0-0.1,0-0.1-0.1c0-0.3,0.1-0.8,0.2-1
		c0.1-0.2,0.3-0.3,0.7-0.5L318.4,37.4z M318.4,39.4c0.1-0.1,0.1,0,0.1,0.1c0,0.6-0.2,1.1-0.5,1.3l-4.2,2.4c-0.1,0-0.1,0-0.1-0.1
		c0-0.3,0.1-0.8,0.2-1c0.1-0.2,0.3-0.3,0.7-0.5L318.4,39.4z"/>
	<path class="st0" d="M327.1,17.8c0.1-0.1,0.1,0,0.1,0.1c0,0.6-0.2,1.1-0.5,1.3l-4.1,2.3c-0.1,0-0.1,0-0.1-0.1c0-0.3,0.1-0.8,0.2-1
		c0.1-0.2,0.3-0.3,0.7-0.5L327.1,17.8z"/>
	<path class="st0" d="M321.3,7.5c0.1,0.1,0.1,0.1,0,0.2c-0.2,0.3-1.1,1.2-1.4,1.7c-0.1,0.1-0.1,0.1-0.2,0c-0.5-0.3-1.5-1-1.7-1.4
		c-0.1-0.1-0.1-0.1,0-0.2c0.3-0.5,0.9-1.2,1.3-1.6c0.2-0.2,0.2-0.2,0.3-0.1C319.9,6.5,320.6,7.1,321.3,7.5z"/>
	<path class="st0" d="M316.9,18.5c1.7,0,3.1-0.1,4.3-0.2c0.1,0,0.2,0,0.2,0.1c0,0.3-0.5,1-1.5,2.1c0,0.1-0.1,0.1-0.1,0.1
		c-1.7,0-3.3,0.2-5.1,0.7c-4.5,1.6-6.1,5.1-6.1,7.1c0,3.2,2.2,6.2,10.1,6.2c1.1,0,2.3-0.1,3.7-0.2c0.2,0,0.4,0,0.5,0
		c0.2,0,0.3,0.1,0.3,0.1c0,0.2-0.5,0.5-0.9,0.6c-1.4,0.6-4,1.7-6.5,1.7c-0.5,0-1,0-1.5-0.1c-5.1-0.6-6.5-3.8-6.5-7
		c0-4.1,2-7.8,4.7-9.2c-0.7-0.1-1.5-0.1-2.3-0.1c-0.7,0-1.3,0.1-2,0.1c-0.2,0-0.2,0-0.2-0.2c0-0.6,0.5-2,0.7-2.4
		c0.1-0.1,0.2-0.3,0.3-0.4c0.3-0.3,0.9-0.5,2-1.2c0.5-0.4,1.2-0.9,2-1.6c0.8-0.7,1.4-1.4,1.6-2c0.3-0.6,0.5-0.9,0.7-1.1
		c0.1-0.2,0.3-0.2,0.5-0.2c0.3,0,0.6,0.2,0.8,0.8c0.3,0.6,0.6,1.1,1.1,1.4c0.4,0.3,0.8,0.5,1.1,0.5c0.1,0,0.4-0.2,0.7-0.5l2-1.8
		c0.9-0.9,1.8-1.6,2.5-2.1c0.6-0.4,1.3-0.7,1.8-0.7c0.6,0,1.3,0.2,2,0.6c0.7,0.4,1.1,1,1.1,1.8c-0.1,1.2-0.6,2.2-1.4,3
		c-0.6,0.7-1.6,1.2-3,1.6c-1.2,0.4-2.5,0.6-3.7,0.7c-0.4,0-1,0-1.7,0c-1.4-0.1-2.5-0.9-3.2-2.3c-0.2-0.4-0.3-0.5-0.4-0.5
		c-0.2,0-0.3,0.2-0.6,0.7c-0.3,0.5-0.6,1-1.2,1.7c-0.6,0.7-1.3,1.4-2.1,2.1C313.9,18.4,315,18.5,316.9,18.5z M325.1,13.7
		c1.4-0.4,2.1-0.6,2.1-0.8c0-0.5-0.3-0.9-0.8-1.3c-0.5-0.4-1-0.5-1.5-0.5c-0.6,0-1.1,0.1-1.5,0.3c-1.2,0.5-2.1,1.7-3.4,2.8
		C321.6,14.4,323.4,14.2,325.1,13.7z"/>
	<path class="st0" d="M332.6,24.9c-0.1,0-0.2-0.2-0.2-0.7c0-3-1.1-11.3-1.1-12.7c0-0.7,0.5-1.7,0.9-2.5c0.1-0.2,0.3-0.5,0.5-0.5
		c0.1,0,0.2,0.2,0.2,0.8c0.1,2.2,0.7,7.3,0.7,11c0,1.5-0.1,2.7-0.4,3.5C333,24.5,332.8,24.9,332.6,24.9z"/>
	<path class="st0" d="M341,12.5c0.1-0.1,0.1,0,0.1,0.1c0,0.6-0.2,1.1-0.5,1.3l-4.1,2.3c-0.1,0-0.1,0-0.1-0.1c0-0.3,0.1-0.8,0.2-1
		c0.1-0.2,0.3-0.3,0.7-0.5L341,12.5z"/>
	<path class="st0" d="M341.7,20.7c0.3,0.9,0.5,1.8,0.5,3.1c0,4-1.1,6.5-4.2,7.7c-0.2,0.1-0.4,0.1-0.6,0.1c-1,0-2.6-0.5-4-1.1
		c-0.3-0.2-0.4-0.3-0.4-0.4c0-0.1,0.1-0.2,0.4-0.2c0.2,0,1.1,0.2,1.8,0.2c0.9,0,1.9-0.4,3.3-1.3c1.5-1,2.8-2.3,2.8-3.8
		c0-0.5-0.1-1-0.4-1.5c-0.3,0.7-0.8,1.1-1.5,1.1c-1.3,0-2.1-0.7-2.1-2.1c0-0.5,0.3-1.3,0.6-2.1c0.5-1,1.2-1.9,1.8-1.9
		C340.4,18.5,341.2,19.4,341.7,20.7z M339.2,20.8c-0.3,0-0.5,0.2-0.7,0.5c-0.1,0.1-0.2,0.4-0.2,0.5c0,0.4,0.6,0.6,1.1,0.6
		c0.4,0,0.7-0.2,0.8-0.4C340.2,21.2,339.5,20.8,339.2,20.8z"/>
	<path class="st0" d="M361.1,32c0.1-0.1,0.1,0,0.1,0.1c0,0.6-0.2,1.1-0.5,1.3l-4.2,2.4c-0.1,0-0.1,0-0.1-0.1c0-0.3,0.1-0.8,0.2-1
		c0.1-0.2,0.3-0.3,0.7-0.5L361.1,32z M361.1,34.1c0.1-0.1,0.1,0,0.1,0.1c0,0.6-0.2,1.1-0.5,1.3l-4.2,2.4c-0.1,0-0.1,0-0.1-0.1
		c0-0.3,0.1-0.8,0.2-1c0.1-0.2,0.3-0.3,0.7-0.5L361.1,34.1z"/>
	<path class="st0" d="M354.8,29.4c2.4,0,5.7-1.7,5.7-2.9c-0.2-2-0.3-3.2-0.6-4.9c-0.3-3.1-0.7-5.5-1.1-9.6c-0.1-0.9-0.1-1.1,0-1.6
		c0.1-0.4,0.5-1.1,0.7-1.5c0.1-0.2,0.2-0.3,0.3-0.3s0.1,0.1,0.2,0.3c0.1,0.9,0.1,1.5,0.2,3.2c0.1,0.9,0.1,1.7,0.3,2.8l0.3-1.1
		c0.1-0.6,0.5-1.1,1.1-1.6c1.4-1,3-2,4.8-2.9c1.8-0.9,3.2-1.5,4.3-2c0.3-0.1,0.5-0.2,0.4,0.2c-0.1,0.5-0.5,1.1-0.9,1.7
		c0,0-0.1,0.1-0.1,0.1c-1.1,0.5-2.5,1.2-4.4,2.2c-2,1.1-3.5,2-4.3,2.7c0.1,0.1,0.2,0.1,0.3,0.2c2.6,0.9,5.4,2.9,8.6,5.8
		c0.8,0.8,1.5,1.4,2,1.7c0.5,0.3,0.8,0.5,1,0.5h0.3c0,0,0.7,0,0.7,1.1c0,1.1-0.7,1.1-0.7,1.1h-0.3c-0.7,0-1.4-0.3-2.1-0.8
		c-0.6-0.5-1.4-1.3-2.4-2.3c-1-1-1.7-1.7-2.2-2c0.2,1,0.1,1.9-0.2,2.8s-0.8,1.5-1.7,1.8c-0.3,0.1-0.7,0.2-1.1,0.2
		c-1.1,0-1.9-0.5-2.4-1.5c0.1,0.9,0.1,1.8,0.1,2.3c-0.1,1.9-0.4,2.4-0.9,3.3c-0.5,0.7-2.4,3-6.2,3c-4,0-5.1-2.1-5.1-4.1
		c0-1.4,0.5-3.1,1.1-4.2c0.3-0.6,0.6-0.8,0.7-0.8c0.3,0-0.1,0.9-0.2,1c-0.3,0.7-0.7,1.7-0.7,2.5C350.5,28.7,352.9,29.4,354.8,29.4z
		 M364,22.1c1.1,0,1.8-0.8,1.8-2.1c-0.5-1.6-2.1-2.7-4.7-3.3c-0.1-0.1-0.3-0.2-0.5-0.5c0.1,1.6,0.5,3.7,1,4.5
		C362.2,21.6,362.8,22.1,364,22.1z"/>
	<path class="st0" d="M383.7,4.1c0.1-0.1,0.1,0,0.1,0.1c0,0.6-0.2,1.1-0.5,1.3l-4.1,2.3c-0.1,0-0.1,0-0.1-0.1c0-0.3,0.1-0.8,0.2-1
		c0.1-0.2,0.3-0.3,0.7-0.5L383.7,4.1z"/>
	<path class="st0" d="M382.4,20.3c0.1,0,0.2,0.1,0.2,0.5c0,0.1,0,0.3,0,0.5c0,0.7,0.5,1.1,1.2,1.1c1,0,1.5-1,1.9-1.8
		c0-0.1,0.2-0.4,0.3-0.4c0.1,0,0.2,0.1,0.2,0.6c0.1,1.1,0.7,1.7,1.5,1.7h0.3c0.7,0,1.1,0.3,1.1,1c0,0.8-0.4,1.3-1.1,1.3h-0.3
		c-1.3,0-2-0.6-2.2-1.9c-0.3,0.9-1.2,2-2.3,2c-1.1,0-1.6-0.9-1.7-1.9c-0.4,1.1-1.5,1.9-2.7,1.9c-1.2,0-2-0.4-2.3-1.6
		c-0.2,0.4-0.4,0.8-0.8,1.1c-0.4,0.3-1.1,0.5-2.1,0.5h-0.2c-0.7,0-1-0.4-1-1.2c0-0.7,0.3-1.1,1-1.1h0.3c1.6,0,2.6-0.6,3.2-1.7
		c0-0.1,0.2-0.3,0.3-0.3c0.2,0,0.2,0.2,0.2,0.5c0,0.9,0.8,1.3,1.8,1.3c1.2,0,2.1-0.5,2.8-1.7C382.1,20.5,382.2,20.3,382.4,20.3z
		 M383.2,14.8c0.2-0.2,0.2-0.2,0.3-0.1c0.5,0.5,1,1.1,1.5,1.4c0.2,0.1,0.2,0.2,0,0.3c-0.5,0.5-0.9,1-1.3,1.5c-0.1,0.1-0.2,0.1-0.3,0
		c-0.4-0.3-0.9-0.7-1.4-1.2c-0.3,0.3-0.9,1-1.1,1.2c-0.1,0.1-0.2,0.2-0.4,0c-0.5-0.3-1.1-0.9-1.5-1.4c-0.1-0.1-0.1-0.2,0-0.3
		c0.4-0.5,0.9-1,1.4-1.5c0.1-0.1,0.2-0.1,0.3,0.1c0.4,0.4,1,1,1.4,1.2C382.4,15.6,382.9,15,383.2,14.8z M383.5,11.5
		c0.1,0.1,0.1,0.1,0,0.2c-0.2,0.3-1.1,1.2-1.4,1.7c-0.1,0.1-0.1,0.1-0.2,0c-0.5-0.3-1.5-1-1.7-1.4c-0.1-0.1-0.1-0.1,0-0.2
		c0.3-0.5,0.9-1.2,1.3-1.6c0.2-0.2,0.2-0.2,0.3-0.1C382.1,10.4,382.8,11,383.5,11.5z"/>
	<path class="st0" d="M391.8,30c0.1-0.1,0.1,0,0.1,0.1c0,0.6-0.2,1.1-0.5,1.3l-4.1,2.3c-0.1,0-0.1,0-0.1-0.1c0-0.3,0.1-0.8,0.2-1
		c0.1-0.2,0.3-0.3,0.7-0.5L391.8,30z"/>
	<path class="st0" d="M390.5,23c-0.4,0.9-0.9,1.8-2.6,1.8c-0.9,0-1.2-0.5-1.2-1.1c0-0.5,0.4-1.1,1.2-1.1h0c0.5,0,1.8-0.8,1.8-1.6
		v-0.1c-0.1-1.8-0.7-2.3-1.6-3.8c-0.1-0.1-0.1-0.2-0.1-0.3c0-0.3,0.2-1.2,0.6-1.8c0.1-0.2,0.2-0.2,0.3-0.2c0.1,0,0.1,0,0.2,0.1
		c1.3,1.3,1.8,3.8,1.8,5.6C390.9,21.4,390.7,22.5,390.5,23z M391.4,27.4c0.1,0.1,0.1,0.1,0,0.2c-0.2,0.3-1.1,1.2-1.4,1.7
		c-0.1,0.1-0.1,0.1-0.2,0c-0.5-0.3-1.5-1-1.7-1.4c-0.1-0.1-0.1-0.1,0-0.2c0.3-0.5,0.9-1.2,1.3-1.6c0.2-0.2,0.2-0.2,0.3-0.1
		C390,26.3,390.7,27,391.4,27.4z"/>
	<path class="st0" d="M403,25.9c0.1-0.1,0.1,0,0.1,0.1c0,0.6-0.2,1.1-0.5,1.3l-4.1,2.3c-0.1,0-0.1,0-0.1-0.1c0-0.3,0.1-0.8,0.2-1
		c0.1-0.2,0.3-0.3,0.7-0.5L403,25.9z"/>
	<path class="st0" d="M401.9,9.7c0.2-0.2,0.2-0.2,0.3-0.1c0.5,0.5,1,1.1,1.5,1.4c0.2,0.1,0.2,0.2,0,0.3c-0.5,0.5-0.9,1-1.3,1.5
		c-0.1,0.1-0.2,0.1-0.3,0c-0.4-0.3-0.9-0.7-1.4-1.2c-0.3,0.3-0.9,1-1.1,1.2c-0.1,0.1-0.2,0.2-0.4,0c-0.5-0.3-1.1-0.9-1.5-1.4
		c-0.1-0.1-0.1-0.2,0-0.3c0.4-0.5,0.9-1,1.4-1.5c0.1-0.1,0.2-0.1,0.3,0.1c0.4,0.4,1,1,1.4,1.2C401.1,10.6,401.6,10,401.9,9.7z
		 M404.8,22.1c0.5,0.3,0.9,0.5,1.2,0.5h0.3c0.7,0,1.1,0.4,1.1,1.1c0,0.8-0.4,1.2-1.1,1.2H406c-0.8,0-1.5-0.3-2.3-0.9
		c-0.7-0.6-1.2-1.6-1.4-3c-0.2,0.4-0.4,0.7-0.8,1c-0.6,0.4-1.6,0.6-2.6,0.6c-0.7,0-1.4-0.1-1.4-0.7c0.3-2.2,0.6-2.6,1.7-3.4
		c0.5-0.4,1.8-1.2,2.3-1.6c0-0.2,0-0.4,0-0.5c0-0.5,0.1-0.8,0.4-1.2c0.2-0.3,0.3-0.5,0.4-0.5c0.1,0,0.2,0.2,0.2,0.5
		c0.3,2.1,0.5,3.8,0.8,4.8C403.6,20.8,404.1,21.6,404.8,22.1z M401.8,18.1c-0.9,0.6-2.5,1.6-2.6,1.9c0,0.2,0.3,0.2,0.7,0.2
		c0.6,0,1.5-0.2,2.2-0.5C402,19.1,402,18.8,401.8,18.1z"/>
	<path class="st0" d="M411.4,8.8c0.1-0.1,0.1,0,0.1,0.1c0,0.6-0.2,1.1-0.5,1.3l-4.1,2.3c-0.1,0-0.1,0-0.1-0.1c0-0.3,0.1-0.8,0.2-1
		c0.1-0.2,0.3-0.3,0.7-0.5L411.4,8.8z"/>
	<path class="st0" d="M410.8,21.2c0,0.6,0.6,1.2,1.4,1.4c0.2,0,0.3,0,0.5,0h0.1c0.9,0,0.9,0.7,0.9,1c0,0.3,0,1.3-0.8,1.3h-0.2
		c-0.2,0-0.3,0-0.6,0c-1.5-0.2-2.1-1.5-2.2-1.7c-0.2,0.6-1.5,1.7-3.7,1.7h-0.1c-0.6,0-1-0.6-1-1.1c0-0.6,0.3-1.1,1-1.1h0.7
		c1,0,2.4-0.2,3.3-1.6c0.3-0.5,0.4-0.5,0.5-0.5C410.7,20.5,410.8,20.7,410.8,21.2z M411.7,15.4c0.1,0.1,0.1,0.1,0,0.2
		c-0.2,0.3-1.1,1.2-1.4,1.7c-0.1,0.1-0.1,0.1-0.2,0c-0.5-0.3-1.5-1-1.7-1.4c-0.1-0.1-0.1-0.1,0-0.2c0.3-0.5,0.9-1.2,1.3-1.6
		c0.2-0.2,0.2-0.2,0.3-0.1C410.2,14.3,411,14.9,411.7,15.4z"/>
	<path class="st0" d="M419.2,26.7c0.1-0.1,0.1,0,0.1,0.1c0,0.6-0.2,1.1-0.5,1.3l-4.1,2.3c-0.1,0-0.1,0-0.1-0.1c0-0.3,0.1-0.8,0.2-1
		c0.1-0.2,0.3-0.3,0.7-0.5L419.2,26.7z"/>
	<path class="st0" d="M424.3,9c0.1,0,0.1,0,0.1,0.1c0,0.3-0.5,1.3-0.7,1.6c0,0.1-0.1,0.1-0.2,0.2c-0.7,0.2-5.9,2.3-8.2,3.8
		c2.2,1.2,4.4,3.8,4.4,5.4c0,1.6-0.5,2.7-1.3,3.5c-1.4,0.8-3.2,1.2-5.4,1.2h-0.3c-0.4,0-0.7-0.5-0.7-1.1c0-0.6,0.3-1.1,0.7-1.1h0.2
		c3,0,5.4-0.7,5.9-1.2c0-1.4-2.4-3.7-4.2-4.6c-0.3-0.1-0.5-0.3-0.7-0.5c-0.1-0.2-0.2-0.5-0.2-0.9c0-0.5,0.1-1.1,0.4-1.4
		c0.7-0.7,1.4-1.2,2.9-2c2.8-1.5,5.7-2.5,6.8-2.9C423.9,9.1,424.1,9,424.3,9z"/>
	<path class="st0" d="M429.7,24.9c-0.7,0-1.2-0.1-1.7-0.5c-0.7-0.6-1.1-1.7-1.3-3.1c-0.2-1.1-0.2-2.3-0.3-3.7
		c-0.1-2-0.2-5.1-0.5-6.9c0-0.1,0-0.2,0-0.2c0-0.1,0-0.2,0.2-0.4c0.3-0.5,0.5-0.8,0.7-1.2c0.2-0.3,0.2-0.3,0.3-0.3
		c0.1,0,0.2,0.2,0.3,0.7c0.4,3.5,0.1,8.4,0.6,11.1c0.1,0.7,0.2,0.9,0.4,1.3c0.3,0.6,0.7,0.9,1.4,1c0.8,0,1.2,0.4,1.2,1.1
		c0,0.9-0.4,1.2-1.1,1.2H429.7z"/>
	<path class="st0" d="M435.5,16.7c-0.7,0-1.1-0.7-1.1-1.5c0-0.2,0-0.5,0.1-0.8c0.1-0.2,0.2-0.8,0.5-0.8c0.1,0,0.2,0.2,0.2,0.6v0.3
		c0,0.3,0.2,0.5,0.6,0.5h0c0.5,0,0.8-0.3,0.9-1c0.1-0.3,0.2-1.1,0.6-1.1c0.1,0,0.2,0.2,0.2,0.5c0,0.2,0.1,0.3,0.4,0.3
		c0.5,0,0.8-0.3,0.9-0.8c0.1-0.7,0.2-0.8,0.4-0.8c0.2,0,0.3,0.7,0.3,1.1c0,0.3,0,0.6-0.2,1c-0.2,0.7-0.7,1.2-1.5,1.2
		c-0.2,0-0.4-0.1-0.5-0.1c-0.1-0.1-0.1,0-0.2,0.1C436.7,16.2,436.2,16.7,435.5,16.7z M439.4,9.8C439.5,9.8,439.4,9.9,439.4,9.8
		c0,0.5-0.2,0.9-0.4,1.2c-0.1,0.1-0.2,0.2-0.5,0.3l-4,1.9c0,0-0.1,0-0.1-0.1c0-0.2,0.1-0.5,0.2-0.7c0.2-0.3,0.2-0.4,0.3-0.5
		c0.1-0.1,0.2-0.1,0.3-0.2L439.4,9.8z"/>
	<path class="st0" d="M438.6,20.3c0.1,0,0.2,0.1,0.2,0.5c0,0.1,0,0.3,0,0.5c0,0.7,0.5,1.1,1.2,1.1c1,0,1.5-1,1.9-1.8
		c0-0.1,0.2-0.4,0.3-0.4c0.1,0,0.2,0.1,0.2,0.6c0.1,1.1,0.7,1.7,1.5,1.7h0.3c0.7,0,1.1,0.3,1.1,1c0,0.8-0.4,1.3-1.1,1.3h-0.3
		c-1.3,0-2-0.6-2.2-1.9c-0.3,0.9-1.2,2-2.3,2c-1.1,0-1.6-0.9-1.7-1.9c-0.4,1.1-1.5,1.9-2.7,1.9c-1.2,0-2-0.4-2.3-1.6
		c-0.2,0.4-0.4,0.8-0.8,1.1c-0.4,0.3-1.1,0.5-2.1,0.5h-0.2c-0.7,0-1-0.4-1-1.2c0-0.7,0.3-1.1,1-1.1h0.3c1.6,0,2.6-0.6,3.2-1.7
		c0-0.1,0.2-0.3,0.3-0.3c0.2,0,0.2,0.2,0.2,0.5c0,0.9,0.8,1.3,1.8,1.3c1.2,0,2.1-0.5,2.8-1.7C438.3,20.5,438.4,20.3,438.6,20.3z"/>
	<path class="st0" d="M446.4,23.8c-0.5,0.7-1.2,1-2.3,1h-0.2c-0.7,0-1-0.4-1-1.2c0-0.7,0.3-1.1,1-1.1h0.2c0.5,0,1-0.1,1.5-0.2
		c0.4-0.1,0.6-0.3,0.7-0.4c0-1.7-0.6-5.4-0.9-8.9c0-0.4-0.3-1.6-0.4-2.1c0-0.1,0-0.2,0-0.2c0-0.3,0.3-0.9,0.5-1.3
		c0.3-0.5,0.5-0.9,0.7-0.9c0.1,0,0.1,0.1,0.2,0.2c0.3,1,0.6,1.5,0.8,1.8c0.1,0.1,0.1,0.2,0.1,0.3c0,0,0,0.1,0,0.1
		c-0.1,0.2-0.4,0.8-0.6,1.1c0.2,3.4,0.7,6.2,0.7,7.8C447.4,21.5,447.1,22.8,446.4,23.8z"/>
	<path class="st0" d="M452,24.9c-0.1,0-0.2-0.2-0.2-0.7c0-3-1.1-11.3-1.1-12.7c0-0.7,0.5-1.7,0.9-2.5c0.1-0.2,0.3-0.5,0.5-0.5
		c0.1,0,0.2,0.2,0.2,0.8c0.1,2.2,0.7,7.3,0.7,11c0,1.5-0.1,2.7-0.4,3.5C452.4,24.5,452.2,24.9,452,24.9z"/>
	<path class="st0" d="M468.2,35.8c0.1-0.1,0.1,0,0.1,0.1c0,0.6-0.2,1.1-0.5,1.3l-4.1,2.3c-0.1,0-0.1,0-0.1-0.1c0-0.3,0.1-0.8,0.2-1
		c0.1-0.2,0.3-0.3,0.7-0.5L468.2,35.8z"/>
	<path class="st0" d="M471.3,29.3c0.2-0.2,0.2-0.2,0.3-0.1c0.5,0.5,1,1.1,1.5,1.4c0.2,0.1,0.2,0.2,0,0.3c-0.5,0.5-0.9,1-1.3,1.5
		c-0.1,0.1-0.2,0.1-0.3,0c-0.4-0.3-0.9-0.7-1.4-1.2c-0.3,0.3-0.9,1-1.1,1.2c-0.1,0.1-0.2,0.2-0.4,0c-0.5-0.3-1.1-0.9-1.5-1.4
		c-0.1-0.1-0.1-0.2,0-0.3c0.4-0.5,0.9-1,1.4-1.5c0.1-0.1,0.2-0.1,0.3,0.1c0.4,0.4,1,1,1.4,1.2C470.5,30.2,471,29.5,471.3,29.3z"/>
	<path class="st0" d="M468.4,26.2c0,0.1,0,0.2-0.1,0.5c-0.3,0.8-0.6,1.3-0.8,1.6c-0.1,0.1-0.1,0.1-0.2,0.1c-0.5-0.2-1.1-0.3-2.2-0.4
		c-1.7,0-2.8,0.3-3.1,0.9c0.2,1.2,0.4,2.1,0.5,2.6l0.4,2.1c0.2,1.1,0.3,2.2,0.3,3.1c0,0.9-0.1,1.9-0.4,2.8c-0.1,0.4-0.3,0.6-0.4,0.6
		c-0.1,0-0.1-0.2-0.1-0.5c0-0.3,0.1-0.7,0-1.2c0-0.9-0.2-2.1-0.6-4.6c-0.3-1.9-0.6-3-0.6-3.5c0-1,0.2-1.9,0.7-2.8
		c0.5-0.9,1.1-1.5,1.8-1.8l0.7-1.6c0.5-1.2,1.3-2,2.1-2.5c0.8-0.5,2.1-1.1,3.1-1.1c0.3,0,0.6,0.1,0.8,0.2c0.3,0.2,0.6,0.5,1,1.1
		c0.4,0.6,0.8,0.8,1.3,0.8h0.3c0.6,0,0.9,0.3,0.9,1c0,0.8-0.3,1.2-0.9,1.2h-0.3c-0.7,0-1.4-0.3-2-1c-0.5-0.5-0.8-0.9-1.2-1
		c-0.2-0.1-0.4-0.1-0.9-0.1c-1.1,0-2.1,0.4-2.9,1.1c0.9,0.4,1.6,0.8,2.1,1.3C468,25.5,468.3,25.9,468.4,26.2z"/>
	<path class="st0" d="M475.3,2.9c0.7,0,1.7,1,1.7,2.1c0,0.4-0.1,0.8-0.2,1.2c-0.3,0.8-0.9,1.3-1.8,1.3c-0.8,0-1.3-0.6-1.3-1.3
		C473.6,5.1,474.8,2.9,475.3,2.9z M475.1,4.5c-0.3,0-0.7,0.6-0.7,1c0,0.3,0.4,0.6,0.8,0.6c0.5,0,1.1-0.3,1.1-0.5
		C476.2,5.4,475.6,4.5,475.1,4.5z"/>
	<path class="st0" d="M476.8,20.2c0.1,0.5,0.4,0.9,0.7,1.1c0.3,0.2,0.7,0.4,1.1,0.6c0.4,0.2,0.7,0.3,0.8,0.4
		c0.2,0.1,0.3,0.8,0.3,1.2c0,0.4-0.1,1-0.4,1.4c-0.1,0.1-0.2,0.1-0.2,0.1c-1.3-0.7-2.3-1.1-3-1.1c-0.5,0-0.9,0.2-1.5,0.5
		c-0.6,0.3-1.3,0.6-2,0.6h-0.2c-0.6,0-0.9-0.4-0.9-1.1c0-0.8,0.3-1.2,0.9-1.2h0.2c0.9,0,1.9-0.3,3.1-0.8c0-0.2-0.1-0.7-0.2-1.6
		c-0.1-0.9-0.4-4.1-0.8-8c-0.1-0.4-0.2-1-0.3-1.4c0-0.1,0-0.2,0-0.3c0,0,0-0.1,0-0.2c0-0.1,0.1-0.4,0.4-0.8c0.3-0.5,0.6-1.1,0.8-1.1
		c0.1,0,0.1,0.1,0.2,0.2c0.3,0.9,0.5,1.4,0.7,1.8c0,0.1,0.1,0.2,0.1,0.2c0,0.1,0,0.1,0,0.2c-0.1,0.2-0.4,0.9-0.6,1.2
		C476.3,16.9,476.7,19.6,476.8,20.2z"/>
	<path class="st0" d="M483.6,24.9c-0.1,0-0.2-0.2-0.2-0.7c0-3-1.1-11.3-1.1-12.7c0-0.7,0.5-1.7,0.9-2.5c0.1-0.2,0.3-0.5,0.5-0.5
		c0.1,0,0.2,0.2,0.2,0.8c0.1,2.2,0.7,7.3,0.7,11c0,1.5-0.1,2.7-0.4,3.5C484,24.5,483.8,24.9,483.6,24.9z"/>
	<path class="st0" d="M499.6,11.7c0,0.5-0.1,1-0.3,1.5c0.2,0.1,0.4,0.3,0.4,0.4c0,0.4-0.2,0.7-0.3,1c-0.1,0.1-0.1,0.1-0.1,0.1
		l-0.5-0.3c-0.5,0.8-1.3,1.8-2.5,2.3c-0.4,0.2-0.9,0.4-1.5,0.4c-0.3,0-0.4-0.1-0.4-0.1c0-0.1,0.2-0.2,0.6-0.4
		c0.9-0.5,2.5-1.8,3.1-2.5c-0.5-0.3-1.1-0.7-1.1-1.4c0-0.4,0.2-0.9,0.6-1.3c0.4-0.5,0.8-0.8,1.2-0.8
		C499.4,10.5,499.6,11.2,499.6,11.7z M497.8,12.2C497.8,12.2,497.8,12.2,497.8,12.2c0,0.2,0.4,0.5,0.8,0.7c0.1-0.2,0.1-0.4,0.1-0.7
		c0-0.3-0.1-0.4-0.3-0.4C498.2,11.7,497.9,11.9,497.8,12.2z"/>
	<path class="st0" d="M500.3,24.1c0,3.4-1.5,6-4.2,7.1c-0.2,0.1-0.4,0.1-0.6,0.1c-0.9,0-2.8-0.5-4.1-1.1c-0.3-0.2-0.4-0.3-0.4-0.4
		c0-0.1,0.2-0.2,0.3-0.2c0.3,0,1.1,0.2,1.8,0.2c0.7,0,1.2-0.2,2.2-0.6c1.1-0.5,3.3-2.3,3.8-3.8c0.1-0.2,0.1-0.6,0.1-0.7
		c0-0.1-0.1-1-1-2.4c-0.3-0.5-0.5-0.8-0.8-1.2c-0.1-0.1-0.1-0.1-0.1-0.2c0-0.3,0.4-1.3,0.6-1.7c0.1-0.1,0.1-0.2,0.2-0.2
		c0.5,0,1.4,1.7,1.8,3.1C500.3,22.8,500.3,23.4,500.3,24.1z"/>
	<path class="st0" d="M506.3,24.9c-0.7,0-1.2-0.1-1.7-0.5c-0.7-0.6-1.1-1.7-1.3-3.1c-0.2-1.1-0.2-2.3-0.3-3.7
		c-0.1-2-0.2-5.1-0.5-6.9c0-0.1,0-0.2,0-0.2c0-0.1,0-0.2,0.2-0.4c0.3-0.5,0.5-0.8,0.7-1.2c0.2-0.3,0.2-0.3,0.3-0.3
		c0.1,0,0.2,0.2,0.3,0.7c0.4,3.5,0.1,8.4,0.6,11.1c0.1,0.7,0.2,0.9,0.4,1.3c0.3,0.6,0.7,0.9,1.4,1c0.8,0,1.2,0.4,1.2,1.1
		c0,0.9-0.4,1.2-1.1,1.2H506.3z"/>
	<path class="st0" d="M521.4,4.2c0.7,0,1.7,1,1.7,2.1c0,0.4-0.1,0.8-0.2,1.2c-0.3,0.8-0.9,1.3-1.8,1.3c-0.8,0-1.3-0.6-1.3-1.3
		C519.7,6.4,520.9,4.2,521.4,4.2z M521.2,5.8c-0.3,0-0.7,0.6-0.7,1c0,0.3,0.4,0.6,0.8,0.6c0.5,0,1.1-0.3,1.1-0.5
		C522.4,6.6,521.7,5.8,521.2,5.8z"/>
	<path class="st0" d="M523.3,11.3c0.1,0.1,0.1,0.1,0,0.2c-0.2,0.3-1.1,1.2-1.4,1.7c-0.1,0.1-0.1,0.1-0.2,0c-0.5-0.3-1.5-1-1.7-1.4
		c-0.1-0.1-0.1-0.1,0-0.2c0.3-0.5,0.9-1.2,1.3-1.6c0.2-0.2,0.2-0.2,0.3-0.1C521.9,10.2,522.6,10.8,523.3,11.3z"/>
	<path class="st0" d="M517.4,17.3c0,0.8-0.1,1.4-0.2,2c1.1-0.9,2-1.5,2.8-1.9c0.8-0.5,1.5-0.7,2.1-0.7c0.8,0,2,0.3,2.6,0.9
		c0.3,0.2,0.4,0.6,0.4,1.1c0,1.1-0.5,2.1-1.2,3c-0.5,0.7-2.1,1.2-3.9,1.6c-0.6,0.1-1.2,0.2-4,0.5c-1.4,0.1-2,0.2-2.8,0.5
		c-0.6,0.3-1,0.7-1.2,1.1c-0.1,0.3-0.2,0.6-0.2,0.9c0,0.2,0,0.4,0.1,0.6c0.1,0.5,0.2,0.9,0.3,1.1c0.1,0.2,0.1,0.5,0.2,0.7v0.1
		c0,0.5-0.4,1.5-0.6,1.9c0,0.1-0.1,0.1-0.2,0.1c-0.4,0-0.8-0.4-1.1-0.7c-0.8-0.8-1.2-2.1-1.2-3.9c0-0.6,0-1.2,0.1-1.9
		c0-0.3,0.1-0.6,0.2-1c-0.7,0.8-1.6,1.4-2.8,1.4h-0.3c-0.6,0-0.9-0.4-0.9-1.1c0-0.8,0.3-1.1,1-1.1h0.3c0.6,0,1.1-0.1,1.6-0.3
		c1.1-0.5,1.7-1,2.4-2c0.1-0.2,0.3-0.5,0.5-0.5c0.1,0,0.2,0.1,0.2,0.3c0,0.3-0.2,0.7-0.4,1.3c-0.3,0.9-0.7,2.1-0.7,3.3
		c0,0.8,0.2,1.5,0.6,2.3c0-0.4,0-0.7,0-1.2c0.1-0.9,0.4-1.5,1-2.2c0.7-0.7,1.6-1.4,2.7-1.7c0.7-0.8,1.3-1.4,1.9-2c0-0.3,0-0.6,0-0.9
		c0-3.1-0.5-5.1-0.7-7.1c0-0.4-0.3-1.3-0.4-1.7c0-0.1,0-0.2,0-0.3c0,0,0-0.1,0-0.2c0-0.1,0.1-0.4,0.4-0.9c0.2-0.5,0.6-1.1,0.7-1.1
		c0.1,0,0.1,0.1,0.2,0.2c0.3,0.9,0.6,1.4,0.8,1.8c0,0.1,0.1,0.2,0.1,0.2c0,0.1,0,0.1,0,0.2c-0.1,0.2-0.4,0.8-0.6,1.1
		C517.1,13.7,517.4,15.6,517.4,17.3z M521,18.8c-1.9,0-3.7,1.4-5.5,3.1c3.4-0.2,6.7-0.8,8.1-1.8C523.1,19.3,522,18.8,521,18.8z"/>
	<path class="st0" d="M530.9,31.3c0.1-0.1,0.1,0,0.1,0.1c0,0.6-0.2,1.1-0.5,1.3l-4.1,2.3c-0.1,0-0.1,0-0.1-0.1c0-0.3,0.1-0.8,0.2-1
		c0.1-0.2,0.3-0.3,0.7-0.5L530.9,31.3z"/>
	<path class="st0" d="M530.7,29.4c-0.8,0.4-2.6,1.5-4,2.5c-0.1,0-0.1,0-0.1,0c0,0-0.1,0-0.1-0.1c0-0.1,0.1-0.3,0.2-0.7
		c0.1-0.2,0.5-0.6,0.8-0.9c0,0,0.1-0.1,0.1-0.1s0-0.1-0.1-0.1c-0.6-0.2-0.9-0.4-0.9-0.9c0-0.1,0-0.1,0-0.2c0-0.9,1-2.2,1.8-2.9
		c0.3-0.3,0.7-0.4,1-0.4c0.5,0,0.8,0.3,0.8,0.7c0,0.3-0.1,0.6-0.2,1c-0.1,0.2-0.2,0.4-0.3,0.4c-0.1,0-0.2-0.1-0.3-0.2
		c-0.1-0.1-0.3-0.3-0.6-0.3c-0.8,0-1.3,0.5-1.3,0.7c0,0.3,1.3,0.8,1.8,0.8c0.1,0,0.1,0,0.1,0c0.2-0.1,1.1-0.4,1.5-0.6
		c0.2-0.1,0.3-0.2,0.3-0.2c0,0,0.1,0,0.1,0.1c0,0.1-0.1,0.2-0.1,0.4C531,29.2,530.9,29.3,530.7,29.4z M529.2,24.9
		c-0.1,0-0.2-0.2-0.2-0.7c0-3-1.1-11.3-1.1-12.7c0-0.7,0.5-1.7,0.9-2.5c0.1-0.2,0.3-0.5,0.5-0.5c0.1,0,0.2,0.2,0.2,0.8
		c0.1,2.2,0.7,7.3,0.7,11c0,1.5-0.1,2.7-0.4,3.5C529.5,24.5,529.3,24.9,529.2,24.9z"/>
	<path class="st0" d="M545.9,13c0.1-0.1,0.1,0,0.1,0.1c0,0.6-0.2,1.1-0.5,1.3l-4.1,2.3c-0.1,0-0.1,0-0.1-0.1c0-0.3,0.1-0.8,0.2-1
		c0.1-0.2,0.3-0.3,0.7-0.5L545.9,13z"/>
	<path class="st0" d="M538.1,30.8c-0.3-0.2-0.4-0.3-0.4-0.4c0-0.1,0.2-0.2,0.4-0.2c0.3,0,1.1,0.2,1.8,0.2c0.6,0,1.2-0.2,2.1-0.6
		c2.4-1.2,3.9-3,3.9-4.2c0-0.2,0-0.3-0.1-0.7h-0.7c-0.5,0-1.5-0.1-2.2-0.5c-0.7-0.4-1-0.9-1-1.5c0-0.6,0.3-1.4,0.6-2.2
		c0.6-1.3,1.2-2.2,1.9-2.2c0.7,0,1.3,0.5,1.8,1.1c0.5,0.7,0.7,1.8,0.7,2.8h1c0.6,0,0.9,0.3,0.9,1c0,0.8-0.3,1.2-0.9,1.2l-1.1,0.1
		c-0.2,3.5-1.3,5.8-4.1,6.9c-0.2,0.1-0.4,0.1-0.6,0.1C541.1,31.9,539.5,31.4,538.1,30.8z M544.4,21.2c-0.1-0.1-0.3-0.2-0.6-0.2
		c-0.5,0-0.8,0.5-0.8,0.8c0,0.2,0.2,0.5,0.8,0.7c0.4,0.2,0.9,0.2,1.1,0.2c0.2,0,0.2,0,0.2-0.1C545.2,22.3,544.8,21.5,544.4,21.2z"/>
	<path class="st0" d="M553.4,7.3c0,0.5-0.1,1-0.3,1.5c0.2,0.1,0.4,0.3,0.4,0.4c0,0.4-0.2,0.7-0.3,1c-0.1,0.1-0.1,0.1-0.1,0.1
		l-0.5-0.3c-0.5,0.8-1.3,1.8-2.5,2.3c-0.4,0.2-0.9,0.4-1.5,0.4c-0.3,0-0.4-0.1-0.4-0.1c0-0.1,0.2-0.2,0.6-0.4
		c0.9-0.5,2.5-1.8,3.1-2.5c-0.5-0.3-1.1-0.7-1.1-1.4c0-0.4,0.2-0.9,0.6-1.3c0.4-0.5,0.8-0.8,1.2-0.8C553.2,6.1,553.4,6.8,553.4,7.3z
		 M551.6,7.8C551.6,7.8,551.6,7.8,551.6,7.8c0,0.2,0.4,0.5,0.8,0.7c0.1-0.2,0.1-0.4,0.1-0.7c0-0.3-0.1-0.4-0.3-0.4
		C552,7.3,551.7,7.5,551.6,7.8z"/>
	<path class="st0" d="M557.7,21.4c0,1.6-0.8,2.6-1.7,2.6c-0.3,0-1-0.1-1.6-0.3c-0.8-0.2-1.5-0.5-2.4-0.6c-1.7,1.2-3.1,1.9-4.4,1.9
		h-0.2c-0.7,0-1-0.4-1-1.1c0-0.8,0.3-1.1,1-1.1h0.2c0.6,0,1.3-0.2,2.2-0.5c-0.2-0.3-0.3-0.7-0.3-1.2c0-1.2,0.6-2.7,1.1-3.4
		c-0.1-0.1-0.2-0.4-0.2-0.6c0-0.3,0.1-1.1,0.4-1.6c0.1-0.3,0.3-0.5,0.6-0.5C553.1,14.8,557.7,18,557.7,21.4z M553.6,19.9
		c0-0.9-1.2-1.9-1.5-1.9c-0.2,0-0.5,0.2-0.9,0.5c-0.4,0.4-0.7,0.8-0.7,1c0.1,1,1,1.2,1.7,1.3C552.4,20.8,553.6,20.3,553.6,19.9z
		 M556.9,22.2C557,22.2,557,22.1,556.9,22.2c-0.1-1.1-1.2-2.6-2.6-3.3c0,1.4-0.7,2.3-0.7,2.3C555,21.5,556,22.2,556.9,22.2z"/>
	<path class="st1" d="M574.8,17.4c0.3,0.3,0.4,0.7,0.4,1.1c0,0.2-0.1,0.7-0.4,0.9c-0.3,0.3-0.7,0.4-1.1,0.4c-0.3,0-0.7-0.1-0.9-0.4
		c-0.3-0.3-0.4-0.6-0.4-1c0-0.4,0.2-0.8,0.4-1c0.3-0.2,0.6-0.4,1-0.4C574.2,17.1,574.6,17.2,574.8,17.4z M574.8,22.7
		c0.3,0.3,0.4,0.8,0.4,1.1c0,0.3-0.1,0.7-0.4,1c-0.3,0.3-0.7,0.4-1.1,0.4c-0.3,0-0.6-0.2-0.9-0.4c-0.3-0.3-0.4-0.6-0.4-1
		c0-0.3,0.2-0.7,0.4-1c0.3-0.3,0.6-0.4,1-0.4C574.2,22.3,574.6,22.5,574.8,22.7z"/>
	<path class="st1" d="M588.1,7.5c0,0.5-0.1,1-0.3,1.5c0.2,0.1,0.4,0.3,0.4,0.4c0,0.4-0.2,0.7-0.3,1c-0.1,0.1-0.1,0.1-0.1,0.1
		l-0.5-0.3c-0.5,0.8-1.3,1.8-2.5,2.3c-0.4,0.2-0.9,0.4-1.5,0.4c-0.3,0-0.4-0.1-0.4-0.1c0-0.1,0.2-0.2,0.6-0.4
		c0.9-0.5,2.5-1.8,3.1-2.5c-0.5-0.3-1.1-0.7-1.1-1.4c0-0.4,0.2-0.9,0.6-1.3c0.4-0.5,0.8-0.8,1.2-0.8C587.9,6.2,588.1,6.9,588.1,7.5z
		 M586.3,7.9C586.3,7.9,586.3,8,586.3,7.9c0,0.2,0.4,0.5,0.8,0.7c0.1-0.2,0.1-0.4,0.1-0.7c0-0.3-0.1-0.4-0.3-0.4
		C586.7,7.5,586.4,7.6,586.3,7.9z"/>
	<path class="st1" d="M590.3,22.1c0.5,0.3,0.9,0.5,1.2,0.5h0.3c0.7,0,1.1,0.4,1.1,1.1c0,0.8-0.4,1.2-1.1,1.2h-0.3
		c-0.8,0-1.5-0.3-2.3-0.9c-0.7-0.6-1.2-1.6-1.4-3c-0.2,0.4-0.4,0.7-0.8,1c-0.6,0.4-1.6,0.6-2.6,0.6c-0.7,0-1.4-0.1-1.4-0.7
		c0.3-2.2,0.6-2.6,1.7-3.4c0.5-0.4,1.8-1.2,2.3-1.6c0-0.2,0-0.4,0-0.5c0-0.5,0.1-0.8,0.4-1.2c0.2-0.3,0.3-0.5,0.4-0.5
		c0.1,0,0.2,0.2,0.2,0.5c0.3,2.1,0.5,3.8,0.8,4.8C589,20.8,589.5,21.6,590.3,22.1z M587.3,18.1c-0.9,0.6-2.5,1.6-2.6,1.9
		c0,0.2,0.3,0.2,0.7,0.2c0.6,0,1.5-0.2,2.2-0.5C587.5,19.1,587.4,18.8,587.3,18.1z"/>
	<path class="st1" d="M596.5,3.2c0,0.5-0.1,1-0.3,1.5c0.2,0.1,0.4,0.3,0.4,0.4c0,0.4-0.2,0.7-0.3,1c-0.1,0.1-0.1,0.1-0.1,0.1
		l-0.5-0.3c-0.5,0.8-1.3,1.8-2.5,2.3c-0.4,0.2-0.9,0.4-1.5,0.4c-0.3,0-0.4-0.1-0.4-0.1c0-0.1,0.2-0.2,0.6-0.4
		c0.9-0.5,2.5-1.8,3.1-2.5c-0.5-0.3-1.1-0.7-1.1-1.4c0-0.4,0.2-0.9,0.6-1.3c0.4-0.5,0.8-0.8,1.2-0.8C596.3,2,596.5,2.7,596.5,3.2z
		 M594.7,3.7C594.7,3.7,594.6,3.7,594.7,3.7c0,0.2,0.4,0.5,0.8,0.7c0.1-0.2,0.1-0.4,0.1-0.7c0-0.3-0.1-0.4-0.3-0.4
		C595.1,3.2,594.8,3.4,594.7,3.7z"/>
	<path class="st1" d="M599.5,22.6c0.7,0,1,0.4,1,1.1c0,0.8-0.3,1.2-1,1.2h-0.3c-2.1,0-3.4-0.4-4.3-1c-0.8,0.5-1.9,1-3.2,1h-0.2
		c-0.6,0-0.9-0.4-0.9-1.2c0-0.7,0.3-1.1,1-1.1h0.2c0.9,0,1.4-0.1,1.7-0.4c-0.1-0.2-0.1-0.5-0.1-0.8c0-2.3,2.6-5.1,4-5.1
		c0.8,0,1.3,1,1.3,2.2c0,1.3-0.5,2.8-1.5,3.7c0.5,0.2,1.2,0.4,2.1,0.4H599.5z M596.9,11.4c0.1,0.1,0.1,0.1,0,0.2
		c-0.2,0.3-1.1,1.2-1.4,1.7c-0.1,0.1-0.1,0.1-0.2,0c-0.5-0.3-1.5-1-1.7-1.4c-0.1-0.1-0.1-0.1,0-0.2c0.3-0.5,0.9-1.2,1.3-1.6
		c0.2-0.2,0.2-0.2,0.3-0.1C595.5,10.3,596.2,11,596.9,11.4z M596.3,18.6c-0.8,0-1.6,0.9-1.6,1.2c0,0.5,0.4,0.9,1.2,1.4
		c0.3-0.1,1.4-1,1.4-1.3C597.3,19.1,597,18.6,596.3,18.6z"/>
	<path class="st1" d="M603.2,23.5c-0.4,0.6-1.2,1.1-2.6,1.3c-0.4,0.1-0.9,0.1-1.4,0.1c-0.6,0-1-0.6-1-1.1c0-0.6,0.3-1.1,1-1.1h0.5
		c1,0,2.6,0,3.2-0.6c-0.1-0.9-0.8-2-1.1-2.4c0,0,0,0,0-0.1c0-0.4,0.7-1.8,0.7-1.9c0-0.1,0.1-0.1,0.1-0.1c0.3,0,1.1,1.6,1.1,3.5
		C603.8,21.8,603.7,22.7,603.2,23.5z M603.7,26c0.2-0.2,0.2-0.2,0.3-0.1c0.5,0.5,1,1.1,1.5,1.4c0.2,0.1,0.2,0.2,0,0.3
		c-0.5,0.5-0.9,1-1.3,1.5c-0.1,0.1-0.2,0.1-0.3,0c-0.4-0.3-0.9-0.7-1.4-1.2c-0.3,0.3-0.9,1-1.1,1.2c-0.1,0.1-0.2,0.2-0.4,0
		c-0.5-0.3-1.1-0.9-1.5-1.4c-0.1-0.1-0.1-0.2,0-0.3c0.4-0.5,0.9-1,1.4-1.5c0.1-0.1,0.2-0.1,0.3,0.1c0.4,0.4,1,1,1.4,1.2
		C602.9,26.9,603.4,26.3,603.7,26z"/>
	<path class="st1" d="M616.9,22.6c0.7,0,1.1,0.4,1.1,1.1c0,0.8-0.4,1.2-1.1,1.2h-0.2c-0.6,0-1,0-1.3-0.1c0,0.1,0,0.2,0,0.3
		c0,0.7-0.1,1.5-0.4,2.1c-0.5,1.2-1.3,3.3-3.6,4.3c-0.4,0.2-0.8,0.3-1.2,0.3c-0.9,0-2.4-0.5-3.5-1c-0.3-0.2-0.4-0.3-0.4-0.4
		c0-0.1,0.1-0.2,0.4-0.2c0.3,0,0.8,0.1,1.3,0.1c3.1,0,6.2-2.7,6.6-5c0-0.5-1.1-1.6-1.3-1.9c0-0.1-0.1-0.2-0.1-0.3
		c0-0.5,0.4-1.5,0.6-1.8c0.1-0.2,0.2-0.2,0.3-0.2c0.2,0,0.3,0.2,0.6,0.7c0.4,0.6,0.9,0.9,1.8,0.9H616.9z"/>
	<path class="st1" d="M621.8,9.9c0.7,0,1.7,1,1.7,2.1c0,0.4-0.1,0.8-0.2,1.2c-0.3,0.8-0.9,1.3-1.8,1.3c-0.8,0-1.3-0.6-1.3-1.3
		C620.2,12.1,621.3,9.9,621.8,9.9z M621.6,11.5c-0.3,0-0.7,0.6-0.7,1c0,0.3,0.4,0.6,0.8,0.6c0.5,0,1.1-0.3,1.1-0.5
		C622.8,12.4,622.2,11.5,621.6,11.5z"/>
	<path class="st1" d="M626.9,22.6c0.6,0,1,0.4,1,1.1c0,0.8-0.3,1.2-1,1.2h-0.2c-1-0.1-1.9-0.3-2.7-0.8c-0.8-0.5-1.1-0.9-1.6-1.7
		c-1.2,1.1-2.1,1.7-2.9,2c-0.8,0.3-1.7,0.5-2.7,0.5c-0.8,0-1.1-0.4-1.1-1.2c0-0.7,0.4-1.1,1.1-1.1h0.2c1.8,0,3-0.3,4.5-1.2
		c-0.5-0.7-1.7-1-2.3-1.1c-0.1,0-0.1-0.2-0.1-0.4c0-0.5,0.2-1.4,0.5-1.6c1-0.7,2.1-1.1,3.1-1.1c1,0,1.9,0.4,2.6,1.1
		c0.2,0.2,0.2,0.4,0.2,0.7c0,0.7-0.4,1.7-1.3,2.3c0.8,0.8,1.7,1.2,2.6,1.2H626.9z"/>
	<path class="st1" d="M631.3,6.4c0.1-0.1,0.1,0,0.1,0.1c0,0.6-0.2,1.1-0.5,1.3l-4.1,2.3c-0.1,0-0.1,0-0.1-0.1c0-0.3,0.1-0.8,0.2-1
		c0.1-0.2,0.3-0.3,0.7-0.5L631.3,6.4z"/>
	<path class="st1" d="M630.6,23.5c-0.4,0.6-1.2,1.1-2.6,1.3c-0.4,0.1-0.9,0.1-1.4,0.1c-0.6,0-1-0.6-1-1.1c0-0.6,0.3-1.1,1-1.1h0.5
		c1,0,2.6,0,3.2-0.6c-0.1-0.9-0.8-2-1.1-2.4c0,0,0,0,0-0.1c0-0.4,0.7-1.8,0.7-1.9c0-0.1,0.1-0.1,0.1-0.1c0.3,0,1.1,1.6,1.1,3.5
		C631.2,21.8,631.1,22.7,630.6,23.5z M630.5,12.1c0.2-0.2,0.2-0.2,0.3-0.1c0.5,0.5,1,1.1,1.5,1.4c0.2,0.1,0.2,0.2,0,0.3
		c-0.5,0.5-0.9,1-1.3,1.5c-0.1,0.1-0.2,0.1-0.3,0c-0.4-0.3-0.9-0.7-1.4-1.2c-0.3,0.3-0.9,1-1.1,1.2c-0.1,0.1-0.2,0.2-0.4,0
		c-0.5-0.3-1.1-0.9-1.5-1.4c-0.1-0.1-0.1-0.2,0-0.3c0.4-0.5,0.9-1,1.4-1.5c0.1-0.1,0.2-0.1,0.3,0.1c0.4,0.4,1,1,1.4,1.2
		C629.7,12.9,630.2,12.3,630.5,12.1z"/>
	<path class="st0" d="M18.7,70.6c0.4,0.3,0.4,0.8,0.4,1.1c0,0.3-0.1,0.7-0.4,1c-0.3,0.3-0.7,0.4-1.1,0.4c-0.3,0-0.7-0.1-0.9-0.4
		c-0.3-0.3-0.4-0.7-0.4-1.1c0-0.4,0.2-0.7,0.4-1c0.3-0.2,0.6-0.4,1-0.4S18.5,70.4,18.7,70.6z"/>
	<path class="st0" d="M31.7,73.9c0.1-0.1,0.1,0,0.1,0.1c0,0.6-0.2,1.1-0.5,1.3l-4.1,2.3c-0.1,0-0.1,0-0.1-0.1c0-0.3,0.1-0.8,0.2-1
		c0.1-0.2,0.3-0.3,0.7-0.5L31.7,73.9z"/>
	<path class="st0" d="M30.6,57.7c0.2-0.2,0.2-0.2,0.3-0.1c0.5,0.5,1,1.1,1.5,1.4c0.2,0.1,0.2,0.2,0,0.3c-0.5,0.5-0.9,1-1.3,1.5
		C31,61,31,61,30.8,60.9c-0.4-0.3-0.9-0.7-1.4-1.2c-0.3,0.3-0.9,1-1.1,1.2c-0.1,0.1-0.2,0.2-0.4,0c-0.5-0.3-1.1-0.9-1.5-1.4
		c-0.1-0.1-0.1-0.2,0-0.3c0.4-0.5,0.9-1,1.4-1.5c0.1-0.1,0.2-0.1,0.3,0.1c0.4,0.4,1,1,1.4,1.2C29.8,58.6,30.3,58,30.6,57.7z
		 M33.5,70.1c0.5,0.3,0.9,0.5,1.2,0.5h0.3c0.7,0,1.1,0.4,1.1,1.1c0,0.8-0.4,1.2-1.1,1.2h-0.3c-0.8,0-1.5-0.3-2.3-0.9
		c-0.7-0.6-1.2-1.6-1.4-3c-0.2,0.4-0.4,0.7-0.8,1c-0.6,0.4-1.6,0.6-2.6,0.6c-0.7,0-1.4-0.1-1.4-0.7c0.3-2.2,0.6-2.6,1.7-3.4
		c0.5-0.4,1.8-1.2,2.3-1.6c0-0.2,0-0.4,0-0.5c0-0.5,0.1-0.8,0.4-1.2c0.2-0.3,0.3-0.5,0.4-0.5c0.1,0,0.2,0.2,0.2,0.5
		c0.3,2.1,0.5,3.8,0.8,4.8C32.3,68.8,32.8,69.6,33.5,70.1z M30.5,66.1c-0.9,0.6-2.5,1.6-2.6,1.9c0,0.2,0.3,0.2,0.7,0.2
		c0.6,0,1.5-0.2,2.2-0.5C30.7,67.1,30.7,66.8,30.5,66.1z"/>
	<path class="st0" d="M36.4,60.5c-0.4,0-0.7-0.2-0.8-0.4c-0.2-0.3-0.3-0.8-0.3-1.1c0-0.4,0-0.7,0.2-1c0.2-0.4,0.4-0.7,0.7-0.7
		c0.1,0,0.1,0.1,0.1,0.3c0,0.2-0.1,0.4-0.1,0.6c0,0.5,0.3,0.7,0.7,0.7c0.4,0,0.7-0.4,0.9-0.8c0.3-0.7,0.6-1,0.9-1
		c0.1,0,0.2,0.1,0.2,0.3c0,0.1,0,0.2,0,0.4c0,0.3,0.1,0.5,0.5,0.5c0.3,0,0.6-0.2,0.9-0.7c0.3-0.5,0.4-0.7,0.5-0.7
		c0.2,0,0.2,0.3,0.2,0.5c0,0.6-0.2,1.1-0.5,1.6c-0.3,0.4-0.7,0.9-1.4,0.9c-0.4,0-0.6-0.1-0.8-0.3c-0.1-0.1-0.2,0-0.3,0.2
		C37.4,60.2,36.9,60.5,36.4,60.5z"/>
	<path class="st0" d="M39.5,69.2c0,0.6,0.6,1.2,1.4,1.4c0.2,0,0.3,0,0.5,0h0.1c0.9,0,0.9,0.7,0.9,1c0,0.3,0,1.3-0.8,1.3h-0.2
		c-0.2,0-0.3,0-0.6,0c-1.5-0.2-2.1-1.5-2.2-1.7c-0.2,0.6-1.5,1.7-3.7,1.7h-0.1c-0.6,0-1-0.6-1-1.1c0-0.6,0.3-1.1,1-1.1h0.7
		c1,0,2.4-0.2,3.3-1.6c0.3-0.5,0.4-0.5,0.5-0.5C39.4,68.5,39.5,68.7,39.5,69.2z M40.4,63.4c0.1,0.1,0.1,0.1,0,0.2
		c-0.2,0.3-1.1,1.2-1.4,1.7c-0.1,0.1-0.1,0.1-0.2,0c-0.5-0.3-1.5-1-1.7-1.4c-0.1-0.1-0.1-0.1,0-0.2c0.3-0.5,0.9-1.2,1.3-1.6
		c0.2-0.2,0.2-0.2,0.3-0.1C38.9,62.3,39.7,62.9,40.4,63.4z"/>
	<path class="st0" d="M47.9,51.9c0,0.5-0.1,1-0.3,1.5c0.2,0.1,0.4,0.3,0.4,0.4c0,0.4-0.2,0.7-0.3,1c-0.1,0.1-0.1,0.1-0.1,0.1
		L47,54.5c-0.5,0.8-1.3,1.8-2.5,2.3c-0.4,0.2-0.9,0.4-1.5,0.4c-0.3,0-0.4-0.1-0.4-0.1c0-0.1,0.2-0.2,0.6-0.4
		c0.9-0.5,2.5-1.8,3.1-2.5c-0.5-0.3-1.1-0.7-1.1-1.4c0-0.4,0.2-0.9,0.6-1.3c0.4-0.5,0.8-0.8,1.2-0.8C47.7,50.7,47.9,51.4,47.9,51.9z
		 M46.1,52.4C46.1,52.4,46.1,52.4,46.1,52.4c0,0.2,0.4,0.5,0.8,0.7c0.1-0.2,0.1-0.4,0.1-0.7c0-0.3-0.1-0.4-0.3-0.4
		C46.5,51.9,46.2,52.1,46.1,52.4z"/>
	<path class="st0" d="M51.7,70.6c0.6,0,1,0.4,1,1.1c0,0.8-0.3,1.2-1,1.2h-0.2c-1-0.1-1.9-0.3-2.7-0.8c-0.8-0.5-1.1-0.9-1.6-1.7
		c-1.2,1.1-2.1,1.7-2.9,2c-0.8,0.3-1.7,0.5-2.7,0.5c-0.8,0-1.1-0.4-1.1-1.2c0-0.7,0.4-1.1,1.1-1.1h0.2c1.8,0,3-0.3,4.5-1.2
		c-0.5-0.7-1.7-1-2.3-1.1c-0.1,0-0.1-0.2-0.1-0.4c0-0.5,0.2-1.4,0.5-1.6c1-0.7,2.1-1.1,3.1-1.1c1,0,1.9,0.4,2.6,1.1
		c0.2,0.2,0.2,0.4,0.2,0.7c0,0.7-0.4,1.7-1.3,2.3c0.8,0.8,1.7,1.2,2.6,1.2H51.7z M48.2,60.4c0.1,0.1,0.1,0.1,0,0.2
		c-0.2,0.3-1.1,1.2-1.4,1.7c-0.1,0.1-0.1,0.1-0.2,0c-0.5-0.3-1.5-1-1.7-1.4c-0.1-0.1-0.1-0.1,0-0.2c0.3-0.5,0.9-1.2,1.3-1.6
		c0.2-0.2,0.2-0.2,0.3-0.1C46.8,59.3,47.5,60,48.2,60.4z"/>
	<path class="st0" d="M53.5,50.7c0.7,0,1.7,1,1.7,2.1c0,0.4-0.1,0.8-0.2,1.2c-0.3,0.8-0.9,1.3-1.8,1.3c-0.8,0-1.3-0.6-1.3-1.3
		C51.9,52.9,53,50.7,53.5,50.7z M53.3,52.3c-0.3,0-0.7,0.6-0.7,1c0,0.3,0.4,0.6,0.8,0.6c0.5,0,1.1-0.3,1.1-0.5
		C54.5,53.1,53.9,52.3,53.3,52.3z"/>
	<path class="st0" d="M53.8,71.8c-0.5,0.7-1.2,1-2.3,1h-0.2c-0.7,0-1-0.4-1-1.2c0-0.7,0.3-1.1,1-1.1h0.2c0.5,0,1-0.1,1.5-0.2
		c0.4-0.1,0.6-0.3,0.7-0.4c0-1.7-0.6-5.4-0.9-8.9c0-0.4-0.3-1.6-0.4-2.1c0-0.1,0-0.2,0-0.2c0-0.3,0.3-0.9,0.5-1.3
		c0.3-0.5,0.5-0.9,0.7-0.9c0.1,0,0.1,0.1,0.2,0.2c0.3,1,0.6,1.5,0.8,1.8c0.1,0.1,0.1,0.2,0.1,0.3c0,0,0,0.1,0,0.1
		c-0.1,0.2-0.4,0.8-0.6,1.1c0.2,3.4,0.7,6.2,0.7,7.8C54.8,69.5,54.5,70.8,53.8,71.8z"/>
	<path class="st0" d="M59.4,72.9c-0.1,0-0.2-0.2-0.2-0.7c0-3-1.1-11.3-1.1-12.7c0-0.7,0.5-1.7,0.9-2.5c0.1-0.2,0.3-0.5,0.5-0.5
		c0.1,0,0.2,0.2,0.2,0.8c0.1,2.2,0.7,7.3,0.7,11c0,1.5-0.1,2.7-0.4,3.5C59.8,72.5,59.6,72.9,59.4,72.9z"/>
	<path class="st0" d="M75.5,80.2c0.2-0.2,0.2-0.2,0.3-0.1c0.5,0.5,1,1.1,1.5,1.4c0.2,0.1,0.2,0.2,0,0.3c-0.5,0.5-0.9,1-1.3,1.5
		c-0.1,0.1-0.2,0.1-0.3,0c-0.4-0.3-0.9-0.7-1.4-1.2c-0.3,0.3-0.9,1-1.1,1.2c-0.1,0.1-0.2,0.2-0.4,0c-0.5-0.3-1.1-0.9-1.5-1.4
		c-0.1-0.1-0.1-0.2,0-0.3c0.4-0.5,0.9-1,1.4-1.5c0.1-0.1,0.2-0.1,0.3,0.1c0.4,0.4,1,1,1.4,1.2C74.7,81.1,75.3,80.5,75.5,80.2z"/>
	<path class="st0" d="M81.2,57.4c0.1,0.1,0.1,0.1,0,0.2c-0.2,0.3-1.1,1.2-1.4,1.7c-0.1,0.1-0.1,0.1-0.2,0c-0.5-0.3-1.5-1-1.7-1.4
		c-0.1-0.1-0.1-0.1,0-0.2c0.3-0.5,0.9-1.2,1.3-1.6c0.2-0.2,0.2-0.2,0.3-0.1C79.7,56.3,80.5,57,81.2,57.4z"/>
	<path class="st0" d="M72.1,75.5c0.7,0.2,1.4,0.3,2.1,0.3c0.8,0,1.4-0.1,2.2-0.3c2.4-0.6,5.1-1.9,5.5-2.5c-0.7-0.6-2.7-1.4-4.4-1.5
		c-0.3,0-0.5-0.1-0.5-0.4c0-0.3,0.3-0.9,0.5-1.2c0.1-0.1,0.1-0.1,0.3-0.2c3.2-0.6,3.4-1.8,3.4-1.9c0-0.7-0.1-0.9-0.3-1.5
		c-0.4,0.5-1,1-1.8,1c-0.9,0-1.8-0.6-1.8-1.7c0-1.6,1.5-4.4,2.2-4.4c0.8,0,1.6,0.7,2.1,1.9c0.4,0.9,0.7,2.2,0.7,3
		c0,1.5-0.7,3-1.5,4.2c0.6,0.2,1.1,0.4,1.4,0.6c0.9,0.5,0.9,1.1,0.9,1.5c0,0.9-0.7,1.9-1.7,2.8c-2,1.7-5.4,2.9-7.6,2.9
		c-0.6,0-1.4-0.1-2.1-0.3c-1.7-0.5-3.2-1.7-3.2-4.5c0-1.6,0.7-3.8,1.5-5c0.2-0.4,0.5-0.6,0.7-0.6c0.2,0,0.1,0.4-0.1,0.8
		c-0.6,1.3-1,2.5-1,3.4C69.3,73.9,70.5,75,72.1,75.5z M79,63.4c-0.2,0-0.5,0.2-0.7,0.7c0,0.1-0.1,0.2-0.1,0.3c0,0.4,0.5,0.6,1,0.7
		c0.5,0,1-0.2,1-0.5C80,63.7,79.4,63.4,79,63.4z"/>
	<path class="st0" d="M96,74.7c0.1-0.1,0.1,0,0.1,0.1c0,0.6-0.2,1.1-0.5,1.3l-4.2,2.4c-0.1,0-0.1,0-0.1-0.1c0-0.3,0.1-0.8,0.2-1
		c0.1-0.2,0.3-0.3,0.7-0.5L96,74.7z M96,76.8c0.1-0.1,0.1,0,0.1,0.1c0,0.6-0.2,1.1-0.5,1.3l-4.2,2.4c-0.1,0-0.1,0-0.1-0.1
		c0-0.3,0.1-0.8,0.2-1c0.1-0.2,0.3-0.3,0.7-0.5L96,76.8z"/>
	<path class="st0" d="M94.4,59.4c0.2-0.2,0.2-0.2,0.3-0.1c0.5,0.5,1,1.1,1.5,1.4c0.2,0.1,0.2,0.2,0,0.3c-0.5,0.5-0.9,1-1.3,1.5
		c-0.1,0.1-0.2,0.1-0.3,0c-0.4-0.3-0.9-0.7-1.4-1.2c-0.3,0.3-0.9,1-1.1,1.2c-0.1,0.1-0.2,0.2-0.4,0c-0.5-0.3-1.1-0.9-1.5-1.4
		C90,61,90,61,90.1,60.8c0.4-0.5,0.9-1,1.4-1.5c0.1-0.1,0.2-0.1,0.3,0.1c0.4,0.4,1,1,1.4,1.2C93.6,60.2,94.1,59.6,94.4,59.4z
		 M93.2,65.1c0.3,0,0.9,0.2,1.4,0.6c0.8,0.6,1.5,1.7,1.5,2.9c0,0.7-0.1,1.4-0.4,2.1c-0.5,1.4-1.6,2.2-3.1,2.2
		c-1.4,0-2.3-1.1-2.3-2.3C90.3,68.9,92.3,65.1,93.2,65.1z M95,69.6c-0.4-0.8-1.3-1.8-2.2-1.8c-0.1,0-0.2,0-0.2,0.1
		c-0.7,0.5-1.1,1.3-1.1,1.7c0,0.5,0.7,1,1.5,1c0.5,0,1.6-0.3,2-0.7c0-0.1,0.1-0.1,0.1-0.1C95,69.7,95,69.6,95,69.6z"/>
	<path class="st0" d="M103.3,57.4c0.1-0.1,0.1,0,0.1,0.1c0,0.6-0.2,1.1-0.5,1.3l-4.1,2.3c-0.1,0-0.1,0-0.1-0.1c0-0.3,0.1-0.8,0.2-1
		c0.1-0.2,0.3-0.3,0.7-0.5L103.3,57.4z"/>
	<path class="st0" d="M105.1,68.8c0,0.9-0.2,1.7-0.3,2c-0.4,1.5-2,2.1-4.9,2.1c-0.7,0-1-0.1-1.2-0.3c-0.2-0.2-0.3-0.7-0.3-1.2
		c0-0.4,0.1-0.7,0.1-0.8c0.1-0.3,0.2-0.5,0.2-0.5c0.1,0,0.1,0.1,0.2,0.2c0.3,0.2,0.9,0.3,1.7,0.3c1.2,0,2.7-0.2,3.3-0.6
		c0.1,0,0.1-0.1,0.1-0.1c0,0,0-0.1,0-0.1c-0.4-1.4-2.2-3.9-3.6-3.9c-0.2,0-0.4,0.2-0.6,0.2c-0.1,0-0.1,0-0.1-0.2
		c0-0.5,0.4-1.8,0.8-2.2c0.1-0.1,0.3-0.1,0.5-0.1c0.3,0,0.8,0.1,1.1,0.3c0.6,0.2,1.5,1.2,2.2,2.4C104.8,67,105.1,67.9,105.1,68.8z"
		/>
	<path class="st0" d="M113.7,75.7c0.2-0.2,0.2-0.2,0.3-0.1c0.5,0.5,1,1.1,1.5,1.4c0.2,0.1,0.2,0.2,0,0.3c-0.5,0.5-0.9,1-1.3,1.5
		c-0.1,0.1-0.2,0.1-0.3,0c-0.4-0.3-0.9-0.7-1.4-1.2c-0.3,0.3-0.9,1-1.1,1.2c-0.1,0.1-0.2,0.2-0.4,0c-0.5-0.3-1.1-0.9-1.5-1.4
		c-0.1-0.1-0.1-0.2,0-0.3c0.4-0.5,0.9-1,1.4-1.5c0.1-0.1,0.2-0.1,0.3,0.1c0.4,0.4,1,1,1.4,1.2C112.9,76.5,113.4,75.9,113.7,75.7z"/>
	<path class="st0" d="M108.5,65.6c-0.1-2-0.2-5.3-0.5-6.9c0,0,0-0.1,0-0.1c0-0.3,0.4-0.8,0.7-1.4c0.2-0.3,0.3-0.6,0.4-0.6
		c0.1,0,0.2,0.2,0.3,0.7c0.4,3.5,0.2,8.4,0.7,11.3c0.2,1,0.4,1.5,0.9,1.8c0.5,0.2,1.2,0.3,1.9,0.3c0.6,0,1.7,0,2.3-0.6
		c-0.1-0.9-0.7-2-1.1-2.4c0,0,0-0.1,0-0.1c0-0.2,0.5-1.4,0.7-1.8c0-0.1,0.1-0.1,0.1-0.1c0.1,0,0.3,0.2,0.4,0.5
		c0.5,0.8,0.7,1.9,0.7,3.1c0,0.9-0.1,2-0.8,2.7c-0.8,0.8-1.8,1.2-3.1,1.2c-0.8,0-1.7-0.2-2.2-0.8C108.9,71.2,108.7,70.1,108.5,65.6z
		"/>
	<path class="st0" d="M125,80.2c0.1-0.1,0.1,0,0.1,0.1c0,0.6-0.2,1.1-0.5,1.3l-4.1,2.3c-0.1,0-0.1,0-0.1-0.1c0-0.3,0.1-0.8,0.2-1
		c0.1-0.2,0.3-0.3,0.7-0.5L125,80.2z"/>
	<path class="st0" d="M125.2,72.1c0,3.4-1.5,6-4.2,7.1c-0.2,0.1-0.4,0.1-0.6,0.1c-0.9,0-2.8-0.5-4.1-1.1c-0.3-0.2-0.4-0.3-0.4-0.4
		c0-0.1,0.2-0.2,0.3-0.2c0.3,0,1.1,0.2,1.8,0.2c0.7,0,1.2-0.2,2.2-0.6c1.1-0.5,3.3-2.3,3.8-3.8c0.1-0.2,0.1-0.6,0.1-0.7
		c0-0.1-0.1-1-1-2.4c-0.3-0.5-0.5-0.8-0.8-1.2c-0.1-0.1-0.1-0.1-0.1-0.2c0-0.3,0.4-1.3,0.6-1.7c0.1-0.1,0.1-0.2,0.2-0.2
		c0.5,0,1.4,1.7,1.8,3.1C125.2,70.8,125.2,71.4,125.2,72.1z M124.6,61.7c0.1,0.1,0.1,0.1,0,0.2c-0.2,0.3-1.1,1.2-1.4,1.7
		c-0.1,0.1-0.1,0.1-0.2,0c-0.5-0.3-1.5-1-1.7-1.4c-0.1-0.1-0.1-0.1,0-0.2c0.3-0.5,0.9-1.2,1.3-1.6c0.2-0.2,0.2-0.2,0.3-0.1
		C123.1,60.6,123.9,61.2,124.6,61.7z"/>
	<path class="st0" d="M137.6,79.9c0.1-0.1,0.1,0,0.1,0.1c0,0.6-0.2,1.1-0.5,1.3l-4.1,2.3c-0.1,0-0.1,0-0.1-0.1c0-0.3,0.1-0.8,0.2-1
		c0.1-0.2,0.3-0.3,0.7-0.5L137.6,79.9z"/>
	<path class="st0" d="M143.6,75.8c0.2-0.2,0.2-0.2,0.3-0.1c0.5,0.5,1,1.1,1.5,1.4c0.2,0.1,0.2,0.2,0,0.3c-0.5,0.5-0.9,1-1.3,1.5
		c-0.1,0.1-0.2,0.1-0.3,0c-0.4-0.3-0.9-0.7-1.4-1.2c-0.3,0.3-0.9,1-1.1,1.2c-0.1,0.1-0.2,0.2-0.4,0c-0.5-0.3-1.1-0.9-1.5-1.4
		c-0.1-0.1-0.1-0.2,0-0.3c0.4-0.5,0.9-1,1.4-1.5c0.1-0.1,0.2-0.1,0.3,0.1c0.4,0.4,1,1,1.4,1.2C142.8,76.7,143.3,76,143.6,75.8z"/>
	<path class="st0" d="M139.3,70.6c0.1,0.7,0.1,1,0.1,1.4c0,3.5-1.5,6.1-4.2,7.2c-0.1,0.1-0.3,0.1-0.5,0.1c-1,0-2.7-0.4-4.1-1
		c-0.4-0.2-0.4-0.3-0.4-0.4c0-0.2,0.2-0.2,0.6-0.2c1.6,0.2,2.1,0.3,3.7-0.4c1.3-0.6,4-2.8,4-4.4c0-0.4-0.1-0.8-0.3-1.3
		c-0.2-0.5-0.9-1.5-1.5-2.4c0,0,0-0.1,0-0.3c0-0.2,0.1-0.5,0.3-0.9c0.2-0.7,0.4-1,0.5-1c0.1,0,0.3,0.2,0.6,0.7
		c0.2,0.3,0.3,0.5,0.5,0.6c0.2,0.2,0.5,0.2,0.8,0.2c0.6,0,1.4-0.2,1.9-0.8c0.4-0.5,0.7-1.1,0.9-1.4c0.1-0.1,0.2-0.3,0.3-0.3
		c0.1,0,0.2,0.2,0.3,0.5c0.1,0.3,0.2,0.8,0.3,1.6c0.1,0.8,0.4,1.4,0.7,1.9c0.3,0.5,0.7,0.8,1.2,0.8h0.4c0.6,0,0.9,0.4,0.9,1.1
		c0,0.8-0.3,1.2-1,1.2H145c-0.8,0-1.8-0.6-2.2-1.4c-0.2-0.4-0.4-1-0.5-1.8c-0.1-0.8-0.2-1.3-0.3-1.3
		C141.5,69.9,140.7,70.6,139.3,70.6z"/>
	<path class="st0" d="M151,51.7c0.1-0.1,0.1,0,0.1,0.1c0,0.6-0.2,1.1-0.5,1.3l-4.1,2.3c-0.1,0-0.1,0-0.1-0.1c0-0.3,0.1-0.8,0.2-1
		c0.1-0.2,0.3-0.3,0.7-0.5L151,51.7z"/>
	<path class="st0" d="M146.5,68.4c0-0.5,0.2-1.7,0.6-2.5c0.7-1.5,1.9-2.2,2.9-2.2c0.7,0,2.1,0.4,2.8,1c0.3,0.2,0.3,0.4,0.3,0.5
		c0,0.1-0.1,0.1-0.2,0.1c-0.4,0-1-0.1-1.6-0.1c-1.1,0-3.6,1-3.7,1.7c0.1,0.4,1.3,2.3,3.3,2.3h0.1c1.2-0.5,2.7-1.1,3.7-1.6
		c0.4-0.2,0.7-0.3,0.8-0.3c0.1,0,0.1,0,0.1,0.1c0,0.2-0.5,1.2-0.8,1.7c-0.1,0.1-0.2,0.3-0.4,0.4c-0.7,0.4-1.8,0.9-3.2,1.6
		c-1.5,0.7-4.6,1.8-5.9,1.8H145c-0.7,0-1-0.4-1-1.1c0-0.8,0.4-1.1,1.1-1.1h0.2c0.2,0,1.2-0.1,2.1-0.3
		C146.8,69.8,146.5,69.2,146.5,68.4z M151.3,58.7c0.1,0.1,0.1,0.1,0,0.2c-0.2,0.3-1.1,1.2-1.4,1.7c-0.1,0.1-0.1,0.1-0.2,0
		c-0.5-0.3-1.5-1-1.7-1.4c-0.1-0.1-0.1-0.1,0-0.2c0.3-0.5,0.9-1.2,1.3-1.6c0.2-0.2,0.2-0.2,0.3-0.1
		C149.9,57.6,150.6,58.3,151.3,58.7z"/>
	<path class="st0" d="M167.9,57.9c0.7,0,1.7,1,1.7,2.1c0,0.4-0.1,0.8-0.2,1.2c-0.3,0.8-0.9,1.3-1.8,1.3c-0.8,0-1.3-0.6-1.3-1.3
		C166.2,60.1,167.4,57.9,167.9,57.9z M167.7,59.5c-0.3,0-0.7,0.6-0.7,1c0,0.3,0.4,0.6,0.8,0.6c0.5,0,1.1-0.3,1.1-0.5
		C168.9,60.4,168.2,59.5,167.7,59.5z"/>
	<path class="st0" d="M172.4,70.8c0-0.3,0.3-1.4,0.6-2c0.1-0.1,0.1-0.2,0.2-0.2c0.1,0,0.2,0.1,0.2,0.2c0.6,1.2,1.1,1.8,1.9,1.8h0.3
		c0.7,0,1,0.4,1,1.1c0,0.8-0.3,1.2-1,1.2h-0.3c-0.4,0-0.7,0-0.9-0.1c-0.1,1.8-0.2,2.6-0.4,3c-0.3,0.9-0.8,1.7-2.1,2.6
		c-1.2,0.9-3,1.5-5.5,1.5c-2.5,0-4.4-1.7-4.4-4.5c0-1.4,0.7-3.1,1.3-3.8c0.2-0.3,0.5-0.6,0.6-0.6c0.1,0,0.1,0.1,0.1,0.2
		c0,0.2-0.1,0.4-0.2,0.7c-0.5,0.9-0.8,1.7-0.8,2.7c0,1.9,2.3,3,3.9,3c2.7,0,5.6-1,6.4-2.5c0-0.1,0.1-0.2,0.1-0.4
		c-0.1-1.9-0.3-2.6-0.9-3.7C172.4,70.9,172.4,70.8,172.4,70.8z M170,65.6c0.1,0.1,0.1,0.1,0,0.2c-0.2,0.3-1.1,1.2-1.4,1.7
		c-0.1,0.1-0.1,0.1-0.2,0c-0.5-0.3-1.5-1-1.7-1.4c-0.1-0.1-0.1-0.1,0-0.2c0.3-0.5,0.9-1.2,1.3-1.6c0.2-0.2,0.2-0.2,0.3-0.1
		C168.6,64.5,169.3,65.2,170,65.6z"/>
	<path class="st0" d="M183.4,74.8c0.1-0.1,0.1,0,0.1,0.1c0,0.6-0.2,1.1-0.5,1.3l-4.1,2.3c-0.1,0-0.1,0-0.1-0.1c0-0.3,0.1-0.8,0.2-1
		c0.1-0.2,0.3-0.3,0.7-0.5L183.4,74.8z"/>
	<path class="st0" d="M175.5,72.9h-0.1c-0.7,0-1-0.4-1-1.2c0-0.7,0.4-1.1,1-1.1h0.1c1.2,0,2.2-0.5,2.9-1.4l1.3-2
		c0.7-1.1,1.7-1.5,2.2-1.5c1.7,0,2.4,2.9,2.4,4.1c0,1-1.1,2.4-1.6,2.4c-0.8,0-2.8-1-3.8-1.9C177.8,72.1,176.7,72.9,175.5,72.9z
		 M180.8,67.7c-0.2,0-0.3,0.1-0.5,0.3c-0.1,0.1-0.2,0.3-0.3,0.5c0.5,0.3,1.9,1,2.5,1.4C182.4,69.1,181.5,67.7,180.8,67.7z"/>
	<path class="st0" d="M200,80.2c0.1-0.1,0.1,0,0.1,0.1c0,0.6-0.2,1.1-0.5,1.3l-4.1,2.3c-0.1,0-0.1,0-0.1-0.1c0-0.3,0.1-0.8,0.2-1
		c0.1-0.2,0.3-0.3,0.7-0.5L200,80.2z"/>
	<path class="st0" d="M199.1,64.1c0.1,0.1,0.1,0.1,0,0.2c-0.2,0.3-1.1,1.2-1.4,1.7c-0.1,0.1-0.1,0.1-0.2,0c-0.5-0.3-1.5-1-1.7-1.4
		c-0.1-0.1-0.1-0.1,0-0.2c0.3-0.5,0.9-1.2,1.3-1.6c0.2-0.2,0.2-0.2,0.3-0.1C197.7,63,198.4,63.7,199.1,64.1z"/>
	<path class="st0" d="M207,77.1c0.2-0.2,0.2-0.2,0.3-0.1c0.5,0.5,1,1.1,1.5,1.4c0.2,0.1,0.2,0.2,0,0.3c-0.5,0.5-0.9,1-1.3,1.5
		c-0.1,0.1-0.2,0.1-0.3,0c-0.4-0.3-0.9-0.7-1.4-1.2c-0.3,0.3-0.9,1-1.1,1.2c-0.1,0.1-0.2,0.2-0.4,0c-0.5-0.3-1.1-0.9-1.5-1.4
		c-0.1-0.1-0.1-0.2,0-0.3c0.4-0.5,0.9-1,1.4-1.5c0.1-0.1,0.2-0.1,0.3,0.1c0.4,0.4,1,1,1.4,1.2C206.2,77.9,206.7,77.3,207,77.1z"/>
	<path class="st0" d="M211,71.7c0,0.8-0.3,1.2-0.9,1.2h-0.3c-0.4,0-0.8-0.1-1.2-0.4c-0.4-0.3-0.7-0.6-0.9-1c-0.2-0.4-0.4-1-0.5-1.8
		c-0.1-0.8-0.2-1.3-0.3-1.3c-0.3,0.8-0.7,1.4-1.1,1.7c-0.6,0.5-1.2,0.6-1.6,0.6c-0.2,0-0.3,0-0.4,0c0,0.4,0,0.7,0,1
		c0,0.4,0,0.9-0.1,1.5c-0.1,0.9-0.2,1.6-0.3,2c-0.2,0.5-0.4,0.8-0.6,1.2c-1.6,2.2-4,3.1-6.8,3.1c-1.3,0-2.1-0.3-2.9-0.8
		c-1.1-0.8-1.6-2.2-1.6-3.7c0-1.1,0.5-2.5,1.3-3.7c0.2-0.4,0.5-0.6,0.7-0.6c0.1,0,0.1,0.1,0.1,0.1c0,0.2-0.1,0.4-0.2,0.7
		c-0.4,0.8-0.8,1.7-0.8,2.7c0,1.5,1.7,2.9,4.1,2.9c2.4,0,5.7-1,6.4-2.7c0-0.1,0-0.2,0-0.4c0-1.3-0.4-3-1-3.8
		c-0.2-0.3-0.5-0.6-0.5-0.6c0,0-0.1-0.1-0.1-0.2c0-0.5,0.5-2,0.7-2.2c0.1-0.1,0.1-0.1,0.2,0c0.6,0.8,1.2,1.2,1.9,1.3
		c0.2,0,0.5,0,0.9-0.1c0.4-0.1,0.8-0.4,1-0.7c0.5-0.6,0.7-1,0.9-1.5c0.1-0.1,0.2-0.3,0.3-0.3c0.1,0,0.2,0.2,0.3,0.5
		c0.1,0.3,0.2,0.8,0.3,1.6c0.1,0.8,0.4,1.4,0.7,1.9c0.3,0.5,0.7,0.8,1.2,0.8h0.3C210.7,70.6,211,71,211,71.7z"/>
	<path class="st0" d="M214.5,69.2c0,0.6,0.6,1.2,1.4,1.4c0.2,0,0.3,0,0.5,0h0.1c0.9,0,0.9,0.7,0.9,1c0,0.3,0,1.3-0.8,1.3h-0.2
		c-0.2,0-0.3,0-0.6,0c-1.5-0.2-2.1-1.5-2.2-1.7c-0.2,0.6-1.5,1.7-3.7,1.7h-0.1c-0.6,0-1-0.6-1-1.1c0-0.6,0.3-1.1,1-1.1h0.7
		c1,0,2.4-0.2,3.3-1.6c0.3-0.5,0.4-0.5,0.5-0.5C214.4,68.5,214.5,68.7,214.5,69.2z M214.3,62.4c0.2-0.2,0.2-0.2,0.3-0.1
		c0.5,0.5,1,1.1,1.5,1.4c0.2,0.1,0.2,0.2,0,0.3c-0.5,0.5-0.9,1-1.3,1.5c-0.1,0.1-0.2,0.1-0.3,0c-0.4-0.3-0.9-0.7-1.4-1.2
		c-0.3,0.3-0.9,1-1.1,1.2c-0.1,0.1-0.2,0.2-0.4,0c-0.5-0.3-1.1-0.9-1.5-1.4c-0.1-0.1-0.1-0.2,0-0.3c0.4-0.5,0.9-1,1.4-1.5
		c0.1-0.1,0.2-0.1,0.3,0.1c0.4,0.4,1,1,1.4,1.2C213.5,63.2,214.1,62.6,214.3,62.4z"/>
	<path class="st0" d="M228.1,74.4c0.1-0.1,0.1,0,0.1,0.1c0,0.6-0.2,1.1-0.5,1.3l-4.1,2.3c-0.1,0-0.1,0-0.1-0.1c0-0.3,0.1-0.8,0.2-1
		c0.1-0.2,0.3-0.3,0.7-0.5L228.1,74.4z"/>
	<path class="st0" d="M232.8,53.4c0.1-0.1,0.1,0,0.1,0.1c0,0.6-0.2,1.1-0.5,1.3l-4.1,2.3c-0.1,0-0.1,0-0.1-0.1c0-0.3,0.1-0.8,0.2-1
		c0.1-0.2,0.3-0.3,0.7-0.5L232.8,53.4z"/>
	<path class="st0" d="M227.6,72.5c-0.6-0.3-1-0.8-1.3-1.7c-0.1-0.3-0.2-0.8-0.3-1.4c-0.2-1.1-0.3-2.1-0.4-3.2
		c-0.5,1.4-1.1,2.4-1.6,2.8c0.2,0.4,0.3,0.9,0.3,1.4c0,0.4-0.2,0.9-0.5,1.5c-0.4,0.6-0.7,0.9-1.1,0.9c-0.5,0-1-0.2-1.6-0.5
		c-0.6-0.3-1.1-0.7-1.5-1.3c-0.7,1.3-1.7,1.8-2.9,1.8h-0.2c-0.6,0-0.9-0.4-0.9-1.2c0-0.7,0.3-1.1,0.9-1.1h0.3c1,0,1.8-0.1,2.3-0.3
		c0.5-0.2,0.8-0.6,1.2-1.2c0.4-0.6,0.7-1.1,1-1.3c0,0,0.1-0.1,0.2-0.1c1.1-0.2,2.2-0.6,3-1.4c0.8-0.7,1.2-1.4,1.2-2.2l-0.4-5.7
		c0-0.1,0-0.2,0-0.2c0.2-0.7,0.8-1.9,1.1-2c0.2,0,0.2,0.8,0.2,0.9c0.1,0.6,0.1,1.6,0.2,2.6c0.1,0.7,0.1,2,0.2,3.5l0.2-0.8
		c0.1-0.6,0.5-1.1,1.1-1.6c1-0.8,2.4-1.7,4.3-2.8c1.9-1.1,3.3-1.8,4.4-2.2c0.2-0.1,0.4-0.1,0.4,0c0,0.2-0.2,0.9-0.9,1.9
		c-0.1,0.1-0.1,0.2-0.3,0.2c-1,0.4-2.4,1.2-4.1,2.2c-1.9,1.1-3.2,2-4.1,2.7c3.6,1.4,5.5,3.3,5.5,5.5c0,1.1-0.2,2.1-0.7,2.9
		c-0.4,0.7-1.4,1.4-3.3,1.4C228.5,72.9,227.9,72.8,227.6,72.5z M220.7,69.4c0.2,0.3,0.5,0.5,1.1,0.8c0.5,0.3,0.9,0.4,1.2,0.4
		c-0.1-0.5-0.2-0.8-0.4-1.1c-0.3-0.3-0.6-0.5-0.9-0.5C221.1,69,220.8,69.2,220.7,69.4z M228.7,70.5c0.2,0,0.3,0.1,0.5,0.1
		c0.5,0,1-0.1,1.6-0.2c0.5-0.2,1-0.4,1.3-0.6c0,0,0-0.1,0-0.1c0-0.5-0.4-1.1-1.2-1.8c-0.8-0.7-2-1.4-3.5-2.1
		c-0.2-0.1-0.3-0.2-0.5-0.4c0.1,1.6,0.3,3.1,0.6,3.9C227.5,69.3,227.8,70.2,228.7,70.5z"/>
	<path class="st0" d="M249.7,68.7c0.3,0.9,0.5,1.8,0.5,3.1c0,4-1.1,6.5-4.2,7.7c-0.2,0.1-0.4,0.1-0.6,0.1c-1,0-2.6-0.5-4-1.1
		c-0.3-0.2-0.4-0.3-0.4-0.4c0-0.1,0.1-0.2,0.4-0.2c0.2,0,1.1,0.2,1.8,0.2c0.9,0,1.9-0.4,3.3-1.3c1.5-1,2.8-2.3,2.8-3.8
		c0-0.5-0.1-1-0.4-1.5c-0.3,0.7-0.8,1.1-1.5,1.1c-1.3,0-2.1-0.7-2.1-2.1c0-0.5,0.3-1.3,0.6-2.1c0.5-1,1.2-1.9,1.8-1.9
		C248.4,66.5,249.3,67.4,249.7,68.7z M247.2,68.8c-0.3,0-0.5,0.2-0.7,0.5c-0.1,0.1-0.2,0.4-0.2,0.5c0,0.4,0.6,0.6,1.1,0.6
		c0.4,0,0.7-0.2,0.8-0.4C248.2,69.2,247.5,68.8,247.2,68.8z"/>
	<path class="st0" d="M255.8,46.8c0.1-0.1,0.1,0,0.1,0.1c0,0.6-0.2,1.1-0.5,1.3l-4.1,2.3c-0.1,0-0.1,0-0.1-0.1c0-0.3,0.1-0.8,0.2-1
		c0.1-0.2,0.3-0.3,0.7-0.5L255.8,46.8z"/>
	<path class="st0" d="M255.6,54.5c-0.8,0.4-2.6,1.5-4,2.5c-0.1,0-0.1,0-0.1,0c0,0-0.1,0-0.1-0.1c0-0.1,0.1-0.3,0.2-0.7
		c0.1-0.2,0.5-0.6,0.8-0.9c0,0,0.1-0.1,0.1-0.1c0,0,0-0.1-0.1-0.1c-0.6-0.2-0.9-0.4-0.9-0.9c0-0.1,0-0.1,0-0.2c0-0.9,1-2.2,1.8-2.9
		c0.3-0.3,0.7-0.4,1-0.4c0.5,0,0.8,0.3,0.8,0.7c0,0.3-0.1,0.6-0.2,1c-0.1,0.2-0.2,0.4-0.3,0.4c-0.1,0-0.2-0.1-0.3-0.2
		c-0.1-0.1-0.3-0.3-0.6-0.3c-0.8,0-1.3,0.5-1.3,0.7c0,0.3,1.3,0.8,1.8,0.8c0.1,0,0.1,0,0.1,0c0.2-0.1,1.1-0.4,1.5-0.6
		c0.2-0.1,0.3-0.2,0.3-0.2c0,0,0.1,0,0.1,0.1c0,0.1-0.1,0.2-0.1,0.4C255.9,54.2,255.7,54.3,255.6,54.5z M254.1,72.9
		c-0.1,0-0.2-0.2-0.2-0.7c0-3-1.1-11.3-1.1-12.7c0-0.7,0.5-1.7,0.9-2.5c0.1-0.2,0.3-0.5,0.5-0.5c0.1,0,0.2,0.2,0.2,0.8
		c0.1,2.2,0.7,7.3,0.7,11c0,1.5-0.1,2.7-0.4,3.5C254.4,72.5,254.3,72.9,254.1,72.9z"/>
	<path class="st0" d="M268.6,73.7c0.1-0.1,0.1,0,0.1,0.1c0,0.6-0.2,1.1-0.5,1.3l-4.2,2.4c-0.1,0-0.1,0-0.1-0.1c0-0.3,0.1-0.8,0.2-1
		c0.1-0.2,0.3-0.3,0.7-0.5L268.6,73.7z M268.6,75.8c0.1-0.1,0.1,0,0.1,0.1c0,0.6-0.2,1.1-0.5,1.3l-4.2,2.4c-0.1,0-0.1,0-0.1-0.1
		c0-0.3,0.1-0.8,0.2-1c0.1-0.2,0.3-0.3,0.7-0.5L268.6,75.8z"/>
	<path class="st0" d="M267.2,57.7c0.2-0.2,0.2-0.2,0.3-0.1c0.5,0.5,1,1.1,1.5,1.4c0.2,0.1,0.2,0.2,0,0.3c-0.5,0.5-0.9,1-1.3,1.5
		c-0.1,0.1-0.2,0.1-0.3,0c-0.4-0.3-0.9-0.7-1.4-1.2c-0.3,0.3-0.9,1-1.1,1.2c-0.1,0.1-0.2,0.2-0.4,0c-0.5-0.3-1.1-0.9-1.5-1.4
		c-0.1-0.1-0.1-0.2,0-0.3c0.4-0.5,0.9-1,1.4-1.5c0.1-0.1,0.2-0.1,0.3,0.1c0.4,0.4,1,1,1.4,1.2C266.4,58.6,267,58,267.2,57.7z
		 M270.2,70.1c0.5,0.3,0.9,0.5,1.2,0.5h0.3c0.7,0,1.1,0.4,1.1,1.1c0,0.8-0.4,1.2-1.1,1.2h-0.3c-0.8,0-1.5-0.3-2.3-0.9
		c-0.7-0.6-1.2-1.6-1.4-3c-0.2,0.4-0.4,0.7-0.8,1c-0.6,0.4-1.6,0.6-2.6,0.6c-0.7,0-1.4-0.1-1.4-0.7c0.3-2.2,0.6-2.6,1.7-3.4
		c0.5-0.4,1.8-1.2,2.3-1.6c0-0.2,0-0.4,0-0.5c0-0.5,0.1-0.8,0.4-1.2c0.2-0.3,0.3-0.5,0.4-0.5c0.1,0,0.2,0.2,0.2,0.5
		c0.3,2.1,0.5,3.8,0.8,4.8C268.9,68.8,269.4,69.6,270.2,70.1z M267.2,66.1c-0.9,0.6-2.5,1.6-2.6,1.9c0,0.2,0.3,0.2,0.7,0.2
		c0.6,0,1.5-0.2,2.2-0.5C267.4,67.1,267.3,66.8,267.2,66.1z"/>
	<path class="st0" d="M283.1,74.4c0.1-0.1,0.1,0,0.1,0.1c0,0.6-0.2,1.1-0.5,1.3l-4.1,2.3c-0.1,0-0.1,0-0.1-0.1c0-0.3,0.1-0.8,0.2-1
		c0.1-0.2,0.3-0.3,0.7-0.5L283.1,74.4z"/>
	<path class="st0" d="M287.8,53.4c0.1-0.1,0.1,0,0.1,0.1c0,0.6-0.2,1.1-0.5,1.3l-4.1,2.3c-0.1,0-0.1,0-0.1-0.1c0-0.3,0.1-0.8,0.2-1
		c0.1-0.2,0.3-0.3,0.7-0.5L287.8,53.4z"/>
	<path class="st0" d="M282.5,72.5c-0.6-0.3-1-0.8-1.3-1.7c-0.1-0.3-0.2-0.8-0.3-1.4c-0.2-1.1-0.3-2.1-0.4-3.2
		c-0.5,1.4-1.1,2.4-1.6,2.8c0.2,0.4,0.3,0.9,0.3,1.4c0,0.4-0.2,0.9-0.5,1.5c-0.4,0.6-0.7,0.9-1.1,0.9c-0.5,0-1-0.2-1.6-0.5
		c-0.6-0.3-1.1-0.7-1.5-1.3c-0.7,1.3-1.7,1.8-2.9,1.8h-0.2c-0.6,0-0.9-0.4-0.9-1.2c0-0.7,0.3-1.1,0.9-1.1h0.3c1,0,1.8-0.1,2.3-0.3
		c0.5-0.2,0.8-0.6,1.2-1.2c0.4-0.6,0.7-1.1,1-1.3c0,0,0.1-0.1,0.2-0.1c1.1-0.2,2.2-0.6,3-1.4c0.8-0.7,1.2-1.4,1.2-2.2l-0.4-5.7
		c0-0.1,0-0.2,0-0.2c0.2-0.7,0.8-1.9,1.1-2c0.2,0,0.2,0.8,0.2,0.9c0.1,0.6,0.1,1.6,0.2,2.6c0.1,0.7,0.1,2,0.2,3.5l0.2-0.8
		c0.1-0.6,0.5-1.1,1.1-1.6c1-0.8,2.4-1.7,4.3-2.8c1.9-1.1,3.3-1.8,4.4-2.2c0.2-0.1,0.4-0.1,0.4,0c0,0.2-0.2,0.9-0.9,1.9
		c-0.1,0.1-0.1,0.2-0.3,0.2c-1,0.4-2.4,1.2-4.1,2.2c-1.9,1.1-3.2,2-4.1,2.7c3.6,1.4,5.5,3.3,5.5,5.5c0,1.1-0.2,2.1-0.7,2.9
		c-0.4,0.7-1.4,1.4-3.3,1.4C283.4,72.9,282.9,72.8,282.5,72.5z M275.6,69.4c0.2,0.3,0.5,0.5,1.1,0.8c0.5,0.3,0.9,0.4,1.2,0.4
		c-0.1-0.5-0.2-0.8-0.4-1.1c-0.3-0.3-0.6-0.5-0.9-0.5C276,69,275.7,69.2,275.6,69.4z M283.7,70.5c0.2,0,0.3,0.1,0.5,0.1
		c0.5,0,1-0.1,1.6-0.2c0.5-0.2,1-0.4,1.3-0.6c0,0,0-0.1,0-0.1c0-0.5-0.4-1.1-1.2-1.8c-0.8-0.7-2-1.4-3.5-2.1
		c-0.2-0.1-0.3-0.2-0.5-0.4c0.1,1.6,0.3,3.1,0.6,3.9C282.5,69.3,282.8,70.2,283.7,70.5z"/>
	<path class="st0" d="M303.4,80.2c0.2-0.2,0.2-0.2,0.3-0.1c0.5,0.5,1,1.1,1.5,1.4c0.2,0.1,0.2,0.2,0,0.3c-0.5,0.5-0.9,1-1.3,1.5
		c-0.1,0.1-0.2,0.1-0.3,0c-0.4-0.3-0.9-0.7-1.4-1.2c-0.3,0.3-0.9,1-1.1,1.2c-0.1,0.1-0.2,0.2-0.4,0c-0.5-0.3-1.1-0.9-1.5-1.4
		c-0.1-0.1-0.1-0.2,0-0.3c0.4-0.5,0.9-1,1.4-1.5c0.1-0.1,0.2-0.1,0.3,0.1c0.4,0.4,1,1,1.4,1.2C302.6,81.1,303.1,80.5,303.4,80.2z"/>
	<path class="st0" d="M309,57.4c0.1,0.1,0.1,0.1,0,0.2c-0.2,0.3-1.1,1.2-1.4,1.7c-0.1,0.1-0.1,0.1-0.2,0c-0.5-0.3-1.5-1-1.7-1.4
		c-0.1-0.1-0.1-0.1,0-0.2c0.3-0.5,0.9-1.2,1.3-1.6c0.2-0.2,0.2-0.2,0.3-0.1C307.6,56.3,308.3,57,309,57.4z"/>
	<path class="st0" d="M299.9,75.5c0.7,0.2,1.4,0.3,2.1,0.3c0.8,0,1.4-0.1,2.2-0.3c2.4-0.6,5.1-1.9,5.5-2.5c-0.7-0.6-2.7-1.4-4.4-1.5
		c-0.3,0-0.5-0.1-0.5-0.4c0-0.3,0.3-0.9,0.5-1.2c0.1-0.1,0.1-0.1,0.3-0.2c3.2-0.6,3.4-1.8,3.4-1.9c0-0.7-0.1-0.9-0.3-1.5
		c-0.4,0.5-1,1-1.8,1c-0.9,0-1.8-0.6-1.8-1.7c0-1.6,1.5-4.4,2.2-4.4c0.8,0,1.6,0.7,2.1,1.9c0.4,0.9,0.7,2.2,0.7,3
		c0,1.5-0.7,3-1.5,4.2c0.6,0.2,1.1,0.4,1.4,0.6c0.9,0.5,0.9,1.1,0.9,1.5c0,0.9-0.7,1.9-1.7,2.8c-2,1.7-5.4,2.9-7.6,2.9
		c-0.6,0-1.4-0.1-2.1-0.3c-1.7-0.5-3.2-1.7-3.2-4.5c0-1.6,0.7-3.8,1.5-5c0.2-0.4,0.5-0.6,0.7-0.6c0.2,0,0.1,0.4-0.1,0.8
		c-0.6,1.3-1,2.5-1,3.4C297.2,73.9,298.4,75,299.9,75.5z M306.8,63.4c-0.2,0-0.5,0.2-0.7,0.7c0,0.1-0.1,0.2-0.1,0.3
		c0,0.4,0.5,0.6,1,0.7c0.5,0,1-0.2,1-0.5C307.8,63.7,307.2,63.4,306.8,63.4z"/>
	<path class="st0" d="M325.7,51.6c0,0.5-0.1,1-0.3,1.5c0.2,0.1,0.4,0.3,0.4,0.4c0,0.4-0.2,0.7-0.3,1c-0.1,0.1-0.1,0.1-0.1,0.1
		l-0.5-0.3c-0.5,0.8-1.3,1.8-2.5,2.3c-0.4,0.2-0.9,0.4-1.5,0.4c-0.3,0-0.4-0.1-0.4-0.1c0-0.1,0.2-0.2,0.6-0.4
		c0.9-0.5,2.5-1.8,3.1-2.5c-0.5-0.3-1.1-0.7-1.1-1.4c0-0.4,0.2-0.9,0.6-1.3c0.4-0.5,0.8-0.8,1.2-0.8
		C325.5,50.4,325.7,51.1,325.7,51.6z M323.9,52.1C323.9,52.1,323.8,52.1,323.9,52.1c0,0.2,0.4,0.5,0.8,0.7c0.1-0.2,0.1-0.4,0.1-0.7
		c0-0.3-0.1-0.4-0.3-0.4C324.3,51.7,324,51.8,323.9,52.1z"/>
	<path class="st0" d="M319.3,73.6c-0.9-0.8-1.4-2.1-1.4-3.4c0-1.5,0.9-3.2,1.4-3.9c0.2-0.3,0.4-0.4,0.5-0.4c0.1,0,0.1,0.1,0.1,0.2
		c0,0.1-0.1,0.3-0.2,0.5c-0.4,0.9-0.9,1.8-0.9,2.9c0,0.8,0.6,1.6,1.4,2.1c0.8,0.5,1.7,0.8,2.7,0.8c2.4,0,5.7-1,6.4-2.7
		c0-0.2,0-0.3,0-0.4c0-1.1-0.3-2.3-0.9-3.1c-0.2-0.4-0.4-0.7-0.5-0.8c0,0,0-0.1,0-0.2c0-0.2,0.1-0.5,0.2-0.8
		c0.2-0.4,0.3-0.8,0.4-1.1c0.1-0.1,0.1-0.2,0.2-0.2c0.1,0,0.1,0,0.2,0.3c0.7,1.5,1.3,2.9,1.3,4.7c0,1.4-0.2,2.3-0.3,2.7
		c-0.4,0.9-0.6,1.3-1.1,1.8c-0.5,0.5-1.4,1.2-2.5,1.6c-1.1,0.5-2.4,0.7-4.1,0.7C321.2,74.6,320.2,74.4,319.3,73.6z M325.9,59.8
		c0.1,0.1,0.1,0.1,0,0.2c-0.2,0.3-1.1,1.2-1.4,1.7c-0.1,0.1-0.1,0.1-0.2,0c-0.5-0.3-1.5-1-1.7-1.4c-0.1-0.1-0.1-0.1,0-0.2
		c0.3-0.5,0.9-1.2,1.3-1.6c0.2-0.2,0.2-0.2,0.3-0.1C324.5,58.7,325.2,59.3,325.9,59.8z"/>
	<path class="st0" d="M329.3,78.8c-0.3-0.2-0.4-0.3-0.4-0.4c0-0.1,0.2-0.2,0.4-0.2c0.3,0,1.1,0.2,1.8,0.2c0.6,0,1.2-0.2,2.1-0.6
		c2.4-1.2,3.9-3,3.9-4.2c0-0.2,0-0.3-0.1-0.7h-0.7c-0.5,0-1.5-0.1-2.2-0.5c-0.7-0.4-1-0.9-1-1.5c0-0.6,0.3-1.4,0.6-2.2
		c0.6-1.3,1.2-2.2,1.9-2.2c0.7,0,1.3,0.5,1.8,1.1c0.5,0.7,0.7,1.8,0.7,2.8h1c0.6,0,0.9,0.3,0.9,1c0,0.8-0.3,1.2-0.9,1.2l-1.1,0.1
		c-0.2,3.5-1.3,5.8-4.1,6.9c-0.2,0.1-0.4,0.1-0.6,0.1C332.3,79.9,330.7,79.4,329.3,78.8z M335.5,69.2c-0.1-0.1-0.3-0.2-0.6-0.2
		c-0.5,0-0.8,0.5-0.8,0.8c0,0.2,0.2,0.5,0.8,0.7c0.4,0.2,0.9,0.2,1.1,0.2c0.2,0,0.2,0,0.2-0.1C336.4,70.3,336,69.5,335.5,69.2z"/>
	<path class="st0" d="M350.9,54.7c0.1,0,0.1,0.1,0.1,0.1c0,0.4-0.5,1.4-0.7,1.7c0,0.1-0.1,0.1-0.1,0.1c-0.8,0.3-4.9,2-8.1,3.9
		c-0.6,0.4-1.2,0.7-1.6,1.3c0.7,0.6,1.6,1.3,2.3,1.9c2.2,1.7,3.7,3,5.5,4.8c1.6,1.6,2.5,2.2,3,2.2h0.3c0.6,0,0.9,0.4,0.9,1.1
		c0,0.8-0.3,1.2-0.9,1.2h-0.5c-0.6,0-1.3-0.3-2.2-1c-0.5-0.4-1.3-1.1-2.2-2.1c-1-1-1.7-1.7-2.2-2c0.1,0.4,0.1,0.8,0.1,1.2
		c0,0.7-0.1,1.3-0.3,1.8c-0.3,0.7-0.9,1.2-1.8,1.6c-1.2,0.4-2.4,0.6-3.5,0.6h-0.3c-0.6,0-0.9-0.4-0.9-1.2c0-0.7,0.3-1.1,1-1.1
		c0.9,0,2.1-0.1,3.5-0.4c0.9-0.2,1.4-0.6,1.5-1.1c-0.1-1.1-1.3-2.6-3.6-4.6c-0.5-0.5-0.7-0.9-0.7-1.4c0-1.8,0.3-2.4,0.5-2.7
		c0.9-0.9,1.6-1.4,2.6-2c3.3-2,7.8-3.6,8.2-3.8C350.9,54.7,350.9,54.7,350.9,54.7z"/>
	<path class="st0" d="M355.3,71.5c-0.4,0.6-1.2,1.1-2.6,1.3c-0.4,0.1-0.9,0.1-1.4,0.1c-0.6,0-1-0.6-1-1.1c0-0.6,0.3-1.1,1-1.1h0.5
		c1,0,2.6,0,3.2-0.6c-0.1-0.9-0.8-2-1.1-2.4c0,0,0,0,0-0.1c0-0.4,0.7-1.8,0.7-1.9c0-0.1,0.1-0.1,0.1-0.1c0.3,0,1.1,1.6,1.1,3.5
		C355.9,69.8,355.8,70.7,355.3,71.5z M355.8,74c0.2-0.2,0.2-0.2,0.3-0.1c0.5,0.5,1,1.1,1.5,1.4c0.2,0.1,0.2,0.2,0,0.3
		c-0.5,0.5-0.9,1-1.3,1.5c-0.1,0.1-0.2,0.1-0.3,0c-0.4-0.3-0.9-0.7-1.4-1.2c-0.3,0.3-0.9,1-1.1,1.2c-0.1,0.1-0.2,0.2-0.4,0
		c-0.5-0.3-1.1-0.9-1.5-1.4c-0.1-0.1-0.1-0.2,0-0.3c0.4-0.5,0.9-1,1.4-1.5c0.1-0.1,0.2-0.1,0.3,0.1c0.4,0.4,1,1,1.4,1.2
		C355,74.9,355.6,74.3,355.8,74z"/>
	<path class="st0" d="M365.4,60.5c0.1-0.1,0.1,0,0.1,0.1c0,0.6-0.2,1.1-0.5,1.3l-4.1,2.3c-0.1,0-0.1,0-0.1-0.1c0-0.3,0.1-0.8,0.2-1
		c0.1-0.2,0.3-0.3,0.7-0.5L365.4,60.5z"/>
	<path class="st0" d="M366.1,68.7c0.3,0.9,0.5,1.8,0.5,3.1c0,4-1.1,6.5-4.2,7.7c-0.2,0.1-0.4,0.1-0.6,0.1c-1,0-2.6-0.5-4-1.1
		c-0.3-0.2-0.4-0.3-0.4-0.4c0-0.1,0.1-0.2,0.4-0.2c0.2,0,1.1,0.2,1.8,0.2c0.9,0,1.9-0.4,3.3-1.3c1.5-1,2.8-2.3,2.8-3.8
		c0-0.5-0.1-1-0.4-1.5c-0.3,0.7-0.8,1.1-1.5,1.1c-1.3,0-2.1-0.7-2.1-2.1c0-0.5,0.3-1.3,0.6-2.1c0.5-1,1.2-1.9,1.8-1.9
		C364.8,66.5,365.6,67.4,366.1,68.7z M363.6,68.8c-0.3,0-0.5,0.2-0.7,0.5c-0.1,0.1-0.2,0.4-0.2,0.5c0,0.4,0.6,0.6,1.1,0.6
		c0.4,0,0.7-0.2,0.8-0.4C364.6,69.2,363.9,68.8,363.6,68.8z"/>
	<path class="st0" d="M376.3,70.6c0.4,0.3,0.4,0.8,0.4,1.1c0,0.3-0.1,0.7-0.4,1c-0.3,0.3-0.7,0.4-1.1,0.4c-0.3,0-0.7-0.1-0.9-0.4
		c-0.3-0.3-0.4-0.7-0.4-1.1c0-0.4,0.2-0.7,0.4-1c0.3-0.2,0.6-0.4,1-0.4C375.7,70.2,376.1,70.4,376.3,70.6z"/>
	<path class="st0" d="M385.5,83.8c0.1-0.1,0.1,0,0.1,0.1c0,0.6-0.2,1.1-0.5,1.3l-4.1,2.3c-0.1,0-0.1,0-0.1-0.1c0-0.3,0.1-0.8,0.2-1
		c0.1-0.2,0.3-0.3,0.7-0.5L385.5,83.8z"/>
	<path class="st0" d="M388.6,77.3c0.2-0.2,0.2-0.2,0.3-0.1c0.5,0.5,1,1.1,1.5,1.4c0.2,0.1,0.2,0.2,0,0.3c-0.5,0.5-0.9,1-1.3,1.5
		c-0.1,0.1-0.2,0.1-0.3,0c-0.4-0.3-0.9-0.7-1.4-1.2c-0.3,0.3-0.9,1-1.1,1.2c-0.1,0.1-0.2,0.2-0.4,0c-0.5-0.3-1.1-0.9-1.5-1.4
		c-0.1-0.1-0.1-0.2,0-0.3c0.4-0.5,0.9-1,1.4-1.5c0.1-0.1,0.2-0.1,0.3,0.1c0.4,0.4,1,1,1.4,1.2C387.8,78.2,388.4,77.5,388.6,77.3z"/>
	<path class="st0" d="M385.7,74.2c0,0.1,0,0.2-0.1,0.5c-0.3,0.8-0.6,1.3-0.8,1.6c-0.1,0.1-0.1,0.1-0.2,0.1c-0.5-0.2-1.1-0.3-2.2-0.4
		c-1.7,0-2.8,0.3-3.1,0.9c0.2,1.2,0.4,2.1,0.5,2.6l0.4,2.1c0.2,1.1,0.3,2.2,0.3,3.1c0,0.9-0.1,1.9-0.4,2.8c-0.1,0.4-0.3,0.6-0.4,0.6
		c-0.1,0-0.1-0.2-0.1-0.5c0-0.3,0.1-0.7,0-1.2c0-0.9-0.2-2.1-0.6-4.6c-0.3-1.9-0.6-3-0.6-3.5c0-1,0.2-1.9,0.7-2.8
		c0.5-0.9,1.1-1.5,1.8-1.8l0.7-1.6c0.5-1.2,1.3-2,2.1-2.5c0.8-0.5,2.1-1.1,3.1-1.1c0.3,0,0.6,0.1,0.8,0.2c0.3,0.2,0.6,0.5,1,1.1
		c0.4,0.6,0.8,0.8,1.3,0.8h0.3c0.6,0,0.9,0.3,0.9,1c0,0.8-0.3,1.2-0.9,1.2h-0.3c-0.7,0-1.4-0.3-2-1c-0.5-0.5-0.8-0.9-1.2-1
		c-0.2-0.1-0.4-0.1-0.9-0.1c-1.1,0-2.1,0.4-2.9,1.1c0.9,0.4,1.6,0.8,2.1,1.3C385.4,73.5,385.6,73.9,385.7,74.2z"/>
	<path class="st0" d="M392.6,50.9c0.7,0,1.7,1,1.7,2.1c0,0.4-0.1,0.8-0.2,1.2c-0.3,0.8-0.9,1.3-1.8,1.3c-0.8,0-1.3-0.6-1.3-1.3
		C391,53.1,392.1,50.9,392.6,50.9z M392.4,52.5c-0.3,0-0.7,0.6-0.7,1c0,0.3,0.4,0.6,0.8,0.6c0.5,0,1.1-0.3,1.1-0.5
		C393.6,53.4,393,52.5,392.4,52.5z"/>
	<path class="st0" d="M394.1,68.2c0.1,0.5,0.4,0.9,0.7,1.1c0.3,0.2,0.7,0.4,1.1,0.6c0.4,0.2,0.7,0.3,0.8,0.4
		c0.2,0.1,0.3,0.8,0.3,1.2c0,0.4-0.1,1-0.4,1.4c-0.1,0.1-0.2,0.1-0.2,0.1c-1.3-0.7-2.3-1.1-3-1.1c-0.5,0-0.9,0.2-1.5,0.5
		c-0.6,0.3-1.3,0.6-2,0.6h-0.2c-0.6,0-0.9-0.4-0.9-1.1c0-0.8,0.3-1.2,0.9-1.2h0.2c0.9,0,1.9-0.3,3.1-0.8c0-0.2-0.1-0.7-0.2-1.6
		c-0.1-0.9-0.4-4.1-0.8-8c-0.1-0.4-0.2-1-0.3-1.4c0-0.1,0-0.2,0-0.3c0,0,0-0.1,0-0.2c0-0.1,0.1-0.4,0.4-0.8c0.3-0.5,0.6-1.1,0.8-1.1
		c0.1,0,0.1,0.1,0.2,0.2c0.3,0.9,0.5,1.4,0.7,1.8c0,0.1,0.1,0.2,0.1,0.2c0,0.1,0,0.1,0,0.2c-0.1,0.2-0.4,0.9-0.6,1.2
		C393.7,64.9,394,67.6,394.1,68.2z"/>
	<path class="st0" d="M401,72.9c-0.1,0-0.2-0.2-0.2-0.7c0-3-1.1-11.3-1.1-12.7c0-0.7,0.5-1.7,0.9-2.5c0.1-0.2,0.3-0.5,0.5-0.5
		c0.1,0,0.2,0.2,0.2,0.8c0.1,2.2,0.7,7.3,0.7,11c0,1.5-0.1,2.7-0.4,3.5C401.4,72.5,401.2,72.9,401,72.9z"/>
	<path class="st0" d="M409.3,60.5c0.1-0.1,0.1,0,0.1,0.1c0,0.6-0.2,1.1-0.5,1.3l-4.1,2.3c-0.1,0-0.1,0-0.1-0.1c0-0.3,0.1-0.8,0.2-1
		c0.1-0.2,0.3-0.3,0.7-0.5L409.3,60.5z"/>
	<path class="st0" d="M410.1,68.7c0.3,0.9,0.5,1.8,0.5,3.1c0,4-1.1,6.5-4.2,7.7c-0.2,0.1-0.4,0.1-0.6,0.1c-1,0-2.6-0.5-4-1.1
		c-0.3-0.2-0.4-0.3-0.4-0.4c0-0.1,0.1-0.2,0.4-0.2c0.2,0,1.1,0.2,1.8,0.2c0.9,0,1.9-0.4,3.3-1.3c1.5-1,2.8-2.3,2.8-3.8
		c0-0.5-0.1-1-0.4-1.5c-0.3,0.7-0.8,1.1-1.5,1.1c-1.3,0-2.1-0.7-2.1-2.1c0-0.5,0.3-1.3,0.6-2.1c0.5-1,1.2-1.9,1.8-1.9
		C408.8,66.5,409.6,67.4,410.1,68.7z M407.6,68.8c-0.3,0-0.5,0.2-0.7,0.5c-0.1,0.1-0.2,0.4-0.2,0.5c0,0.4,0.6,0.6,1.1,0.6
		c0.4,0,0.7-0.2,0.8-0.4C408.6,69.2,407.9,68.8,407.6,68.8z"/>
	<path class="st0" d="M423.8,75.5c0.1-0.1,0.1,0,0.1,0.1c0,0.6-0.2,1.1-0.5,1.3l-4.1,2.3c-0.1,0-0.1,0-0.1-0.1c0-0.3,0.1-0.8,0.2-1
		c0.1-0.2,0.3-0.3,0.7-0.5L423.8,75.5z"/>
	<path class="st0" d="M424.1,71.5c-1.1,0.6-3.5,2-5.4,3.4c-0.1,0.1-0.1,0.1-0.2,0.1c0,0-0.1,0-0.1-0.1c0-0.2,0.1-0.6,0.3-0.9
		c0.1-0.2,0.7-0.8,1.1-1.2c0.1-0.1,0.1-0.1,0.1-0.1s0-0.1-0.2-0.1c-0.8-0.3-1.3-0.6-1.3-1.4c0-1.2,1.2-3,2.4-3.9
		c0.5-0.4,0.9-0.6,1.4-0.6c0.7,0,1.1,0.3,1.1,1c0,0.3-0.1,0.9-0.3,1.4c-0.1,0.3-0.2,0.4-0.3,0.4c-0.1,0-0.1,0-0.3-0.2
		c-0.2-0.2-0.5-0.4-0.8-0.4c-0.7,0-1.7,0.5-1.7,0.9c0,0.4,1.7,1.1,2.4,1.1c0.1,0,0.1,0,0.2,0c0.4-0.1,1.4-0.5,2-0.9
		c0.2-0.1,0.3-0.2,0.4-0.2c0.1,0,0.1,0,0.1,0.1c0,0.1-0.1,0.3-0.2,0.6C424.4,71.3,424.3,71.3,424.1,71.5z"/>
	<path class="st0" d="M431.7,72.9c-0.7,0-1.2-0.1-1.7-0.5c-0.7-0.6-1.1-1.7-1.3-3.1c-0.2-1.1-0.2-2.3-0.3-3.7
		c-0.1-2-0.2-5.1-0.5-6.9c0-0.1,0-0.2,0-0.2c0-0.1,0-0.2,0.2-0.4c0.3-0.5,0.5-0.8,0.7-1.2c0.2-0.3,0.2-0.3,0.3-0.3
		c0.1,0,0.2,0.2,0.3,0.7c0.4,3.5,0.1,8.4,0.6,11.1c0.1,0.7,0.2,0.9,0.4,1.3c0.3,0.6,0.7,0.9,1.4,1c0.8,0,1.2,0.4,1.2,1.1
		c0,0.9-0.4,1.2-1.1,1.2H431.7z"/>
	<path class="st0" d="M436.5,69.2c0,0.6,0.6,1.2,1.4,1.4c0.2,0,0.3,0,0.5,0h0.1c0.9,0,0.9,0.7,0.9,1c0,0.3,0,1.3-0.8,1.3h-0.2
		c-0.2,0-0.3,0-0.6,0c-1.5-0.2-2.1-1.5-2.2-1.7c-0.2,0.6-1.5,1.7-3.7,1.7h-0.1c-0.6,0-1-0.6-1-1.1c0-0.6,0.3-1.1,1-1.1h0.7
		c1,0,2.4-0.2,3.3-1.6c0.3-0.5,0.4-0.5,0.5-0.5C436.4,68.5,436.5,68.7,436.5,69.2z M437.6,77.1c0.1,0.1,0.1,0.1,0,0.2
		c-0.2,0.3-1.1,1.2-1.4,1.7c-0.1,0.1-0.1,0.1-0.2,0c-0.5-0.3-1.5-1-1.7-1.4c-0.1-0.1-0.1-0.1,0-0.2c0.3-0.5,0.9-1.2,1.3-1.6
		c0.2-0.2,0.2-0.2,0.3-0.1C436.2,76,436.9,76.6,437.6,77.1z"/>
	<path class="st0" d="M440.6,50.7c0.7,0,1.7,1,1.7,2.1c0,0.4-0.1,0.8-0.2,1.2c-0.3,0.8-0.9,1.3-1.8,1.3c-0.8,0-1.3-0.6-1.3-1.3
		C438.9,52.9,440.1,50.7,440.6,50.7z M440.4,52.3c-0.3,0-0.7,0.6-0.7,1c0,0.3,0.4,0.6,0.8,0.6c0.5,0,1.1-0.3,1.1-0.5
		C441.5,53.1,440.9,52.3,440.4,52.3z"/>
	<path class="st0" d="M440.9,71.8c-0.5,0.7-1.2,1-2.3,1h-0.2c-0.7,0-1-0.4-1-1.2c0-0.7,0.3-1.1,1-1.1h0.2c0.5,0,1-0.1,1.5-0.2
		c0.4-0.1,0.6-0.3,0.7-0.4c0-1.7-0.6-5.4-0.9-8.9c0-0.4-0.3-1.6-0.4-2.1c0-0.1,0-0.2,0-0.2c0-0.3,0.3-0.9,0.5-1.3
		c0.3-0.5,0.5-0.9,0.7-0.9c0.1,0,0.1,0.1,0.2,0.2c0.3,1,0.6,1.5,0.8,1.8c0.1,0.1,0.1,0.2,0.1,0.3c0,0,0,0.1,0,0.1
		c-0.1,0.2-0.4,0.8-0.6,1.1c0.2,3.4,0.7,6.2,0.7,7.8C441.9,69.5,441.5,70.8,440.9,71.8z"/>
	<path class="st0" d="M446.5,72.9c-0.1,0-0.2-0.2-0.2-0.7c0-3-1.1-11.3-1.1-12.7c0-0.7,0.5-1.7,0.9-2.5c0.1-0.2,0.3-0.5,0.5-0.5
		c0.1,0,0.2,0.2,0.2,0.8c0.1,2.2,0.7,7.3,0.7,11c0,1.5-0.1,2.7-0.4,3.5C446.8,72.5,446.6,72.9,446.5,72.9z"/>
	<path class="st0" d="M458.7,66.2c-0.4,0-0.7-0.2-0.8-0.4c-0.2-0.3-0.3-0.8-0.3-1.1c0-0.4,0-0.7,0.2-1c0.2-0.4,0.4-0.7,0.7-0.7
		c0.1,0,0.1,0.1,0.1,0.3c0,0.2-0.1,0.4-0.1,0.6c0,0.5,0.3,0.7,0.7,0.7c0.4,0,0.7-0.4,0.9-0.8c0.3-0.7,0.6-1,0.9-1
		c0.1,0,0.2,0.1,0.2,0.3c0,0.1,0,0.2,0,0.4c0,0.3,0.1,0.5,0.5,0.5c0.3,0,0.6-0.2,0.9-0.7c0.3-0.5,0.4-0.7,0.5-0.7
		c0.2,0,0.2,0.3,0.2,0.5c0,0.6-0.2,1.1-0.5,1.6c-0.3,0.4-0.7,0.9-1.4,0.9c-0.4,0-0.6-0.1-0.8-0.3c-0.1-0.1-0.2,0-0.3,0.2
		C459.7,65.9,459.2,66.2,458.7,66.2z"/>
	<path class="st0" d="M462.6,80.2c0.2-0.2,0.2-0.2,0.3-0.1c0.5,0.5,1,1.1,1.5,1.4c0.2,0.1,0.2,0.2,0,0.3c-0.5,0.5-0.9,1-1.3,1.5
		c-0.1,0.1-0.2,0.1-0.3,0c-0.4-0.3-0.9-0.7-1.4-1.2c-0.3,0.3-0.9,1-1.1,1.2c-0.1,0.1-0.2,0.2-0.4,0c-0.5-0.3-1.1-0.9-1.5-1.4
		c-0.1-0.1-0.1-0.2,0-0.3c0.4-0.5,0.9-1,1.4-1.5c0.1-0.1,0.2-0.1,0.3,0.1c0.4,0.4,1,1,1.4,1.2C461.8,81.1,462.3,80.5,462.6,80.2z"/>
	<path class="st0" d="M468.2,57.4c0.1,0.1,0.1,0.1,0,0.2c-0.2,0.3-1.1,1.2-1.4,1.7c-0.1,0.1-0.1,0.1-0.2,0c-0.5-0.3-1.5-1-1.7-1.4
		c-0.1-0.1-0.1-0.1,0-0.2c0.3-0.5,0.9-1.2,1.3-1.6c0.2-0.2,0.2-0.2,0.3-0.1C466.8,56.3,467.5,57,468.2,57.4z"/>
	<path class="st0" d="M459.1,75.5c0.7,0.2,1.4,0.3,2.1,0.3c0.8,0,1.4-0.1,2.2-0.3c2.4-0.6,5.1-1.9,5.5-2.5c-0.7-0.6-2.7-1.4-4.4-1.5
		c-0.3,0-0.5-0.1-0.5-0.4c0-0.3,0.3-0.9,0.5-1.2c0.1-0.1,0.1-0.1,0.3-0.2c3.2-0.6,3.4-1.8,3.4-1.9c0-0.7-0.1-0.9-0.3-1.5
		c-0.4,0.5-1,1-1.8,1c-0.9,0-1.8-0.6-1.8-1.7c0-1.6,1.5-4.4,2.2-4.4c0.8,0,1.6,0.7,2.1,1.9c0.4,0.9,0.7,2.2,0.7,3
		c0,1.5-0.7,3-1.5,4.2c0.6,0.2,1.1,0.4,1.4,0.6c0.9,0.5,0.9,1.1,0.9,1.5c0,0.9-0.7,1.9-1.7,2.8c-2,1.7-5.4,2.9-7.6,2.9
		c-0.6,0-1.4-0.1-2.1-0.3c-1.7-0.5-3.2-1.7-3.2-4.5c0-1.6,0.7-3.8,1.5-5c0.2-0.4,0.5-0.6,0.7-0.6c0.2,0,0.1,0.4-0.1,0.8
		c-0.6,1.3-1,2.5-1,3.4C456.4,73.9,457.6,75,459.1,75.5z M466,63.4c-0.2,0-0.5,0.2-0.7,0.7c0,0.1-0.1,0.2-0.1,0.3
		c0,0.4,0.5,0.6,1,0.7c0.5,0,1-0.2,1-0.5C467.1,63.7,466.4,63.4,466,63.4z"/>
	<path class="st0" d="M479.6,70.6c0.7,0,1.1,0.4,1.1,1.1c0,0.8-0.4,1.2-1.1,1.2h-0.2c-0.6,0-1,0-1.3-0.1c0,0.1,0,0.2,0,0.3
		c0,0.7-0.1,1.5-0.4,2.1c-0.5,1.2-1.3,3.3-3.6,4.3c-0.4,0.2-0.8,0.3-1.2,0.3c-0.9,0-2.4-0.5-3.5-1c-0.3-0.2-0.4-0.3-0.4-0.4
		c0-0.1,0.1-0.2,0.4-0.2c0.3,0,0.8,0.1,1.3,0.1c3.1,0,6.2-2.7,6.6-5c0-0.5-1.1-1.6-1.3-1.9c0-0.1-0.1-0.2-0.1-0.3
		c0-0.5,0.4-1.5,0.6-1.8c0.1-0.2,0.2-0.2,0.3-0.2c0.2,0,0.3,0.2,0.6,0.7c0.4,0.6,0.9,0.9,1.8,0.9H479.6z"/>
	<path class="st0" d="M486.9,59.5c0.1-0.1,0.1,0,0.1,0.1c0,0.6-0.2,1.1-0.5,1.3l-4.1,2.3c-0.1,0-0.1,0-0.1-0.1c0-0.3,0.1-0.8,0.2-1
		c0.1-0.2,0.3-0.3,0.7-0.5L486.9,59.5z"/>
	<path class="st0" d="M482.4,67.6c-0.2,0-0.5,0-0.6,0.1c-0.2,0.1-0.6,0.3-0.8,0.3c-0.2,0-0.2-0.1-0.2-0.2c0-0.4,0.6-1.3,1.2-1.8
		c0.5-0.4,1-0.6,1.4-0.6c0.2,0,0.3,0,0.5,0.1c1.8,0.4,4.1,1.4,6,1.8c1.3,0.3,2.6,0.4,3.4,0.4c0.2,0,0.3,0,0.5,0c0.1,0,0.1,0,0.1,0.1
		c0,0.4-0.7,1.5-1.1,1.9c-0.1,0.1-0.3,0.1-0.6,0.1c-0.5,0-1.6-0.1-1.9-0.1c-0.9,0-1.6,0.1-2.2,0.3c-0.4,0.2-1.2,0.5-2.3,1
		c-1.7,0.8-2.8,1.4-3.6,1.7c-0.8,0.3-1.6,0.5-2.5,0.5h-0.3c-0.7,0-1.1-0.4-1.1-1.2c0-0.7,0.4-1.1,1.1-1.1h0.3c1.4,0,2.5-0.1,3.4-0.4
		c0.9-0.3,2.3-0.7,4-1.4C485.1,68.2,483.4,67.6,482.4,67.6z"/>
	<path class="st0" d="M506.4,60.9c0.1-0.1,0.1,0,0.1,0.1c0,0.6-0.2,1.1-0.5,1.3l-4.1,2.3c-0.1,0-0.1,0-0.1-0.1c0-0.3,0.1-0.8,0.2-1
		c0.1-0.2,0.3-0.3,0.7-0.5L506.4,60.9z"/>
	<path class="st0" d="M507.2,71.5c-1.1,0.6-3.5,2-5.4,3.4c-0.1,0.1-0.1,0.1-0.2,0.1c0,0-0.1,0-0.1-0.1c0-0.2,0.1-0.6,0.3-0.9
		c0.1-0.2,0.7-0.8,1.1-1.2c0.1-0.1,0.1-0.1,0.1-0.1s0-0.1-0.2-0.1c-0.8-0.3-1.3-0.6-1.3-1.4c0-1.2,1.2-3,2.4-3.9
		c0.5-0.4,0.9-0.6,1.4-0.6c0.7,0,1.1,0.3,1.1,1c0,0.3-0.1,0.9-0.3,1.4c-0.1,0.3-0.2,0.4-0.3,0.4c-0.1,0-0.1,0-0.3-0.2
		c-0.2-0.2-0.5-0.4-0.8-0.4c-0.7,0-1.7,0.5-1.7,0.9c0,0.4,1.7,1.1,2.4,1.1c0.1,0,0.1,0,0.2,0c0.4-0.1,1.4-0.5,2-0.9
		c0.2-0.1,0.3-0.2,0.4-0.2c0.1,0,0.1,0,0.1,0.1c0,0.1-0.1,0.3-0.2,0.6C507.6,71.3,507.5,71.3,507.2,71.5z"/>
	<path class="st0" d="M514.8,72.9c-0.7,0-1.2-0.1-1.7-0.5c-0.7-0.6-1.1-1.7-1.3-3.1c-0.2-1.1-0.2-2.3-0.3-3.7
		c-0.1-2-0.2-5.1-0.5-6.9c0-0.1,0-0.2,0-0.2c0-0.1,0-0.2,0.2-0.4c0.3-0.5,0.5-0.8,0.7-1.2c0.2-0.3,0.2-0.3,0.3-0.3
		c0.1,0,0.2,0.2,0.3,0.7c0.4,3.5,0.1,8.4,0.6,11.1c0.1,0.7,0.2,0.9,0.4,1.3c0.3,0.6,0.7,0.9,1.4,1c0.8,0,1.2,0.4,1.2,1.1
		c0,0.9-0.4,1.2-1.1,1.2H514.8z"/>
	<path class="st0" d="M519.7,69.2c0,0.6,0.6,1.2,1.4,1.4c0.2,0,0.3,0,0.5,0h0.1c0.9,0,0.9,0.7,0.9,1c0,0.3,0,1.3-0.8,1.3h-0.2
		c-0.2,0-0.3,0-0.6,0c-1.5-0.2-2.1-1.5-2.2-1.7c-0.2,0.6-1.5,1.7-3.7,1.7H515c-0.6,0-1-0.6-1-1.1c0-0.6,0.3-1.1,1-1.1h0.7
		c1,0,2.4-0.2,3.3-1.6c0.3-0.5,0.4-0.5,0.5-0.5C519.6,68.5,519.7,68.7,519.7,69.2z M520.5,63.4c0.1,0.1,0.1,0.1,0,0.2
		c-0.2,0.3-1.1,1.2-1.4,1.7c-0.1,0.1-0.1,0.1-0.2,0c-0.5-0.3-1.5-1-1.7-1.4c-0.1-0.1-0.1-0.1,0-0.2c0.3-0.5,0.9-1.2,1.3-1.6
		c0.2-0.2,0.2-0.2,0.3-0.1C519.1,62.3,519.8,62.9,520.5,63.4z"/>
	<path class="st0" d="M526.4,69.2c0,0.6,0.6,1.2,1.4,1.4c0.2,0,0.3,0,0.5,0h0.1c0.9,0,0.9,0.7,0.9,1c0,0.3,0,1.3-0.8,1.3h-0.2
		c-0.2,0-0.3,0-0.6,0c-1.5-0.2-2.1-1.5-2.2-1.7c-0.2,0.6-1.5,1.7-3.7,1.7h-0.1c-0.6,0-1-0.6-1-1.1c0-0.6,0.3-1.1,1-1.1h0.7
		c1,0,2.4-0.2,3.3-1.6c0.3-0.5,0.4-0.5,0.5-0.5C526.3,68.5,526.4,68.7,526.4,69.2z M526.1,62.7c0.2-0.2,0.2-0.2,0.3-0.1
		c0.5,0.5,1,1.1,1.5,1.4c0.2,0.1,0.2,0.2,0,0.3c-0.5,0.5-0.9,1-1.3,1.5c-0.1,0.1-0.2,0.1-0.3,0c-0.4-0.3-0.9-0.7-1.4-1.2
		c-0.3,0.3-0.9,1-1.1,1.2c-0.1,0.1-0.2,0.2-0.4,0c-0.5-0.3-1.1-0.9-1.5-1.4c-0.1-0.1-0.1-0.2,0-0.3c0.4-0.5,0.9-1,1.4-1.5
		c0.1-0.1,0.2-0.1,0.3,0.1c0.4,0.4,1,1,1.4,1.2C525.4,63.6,525.9,63,526.1,62.7z M526.5,59.4c0.1,0.1,0.1,0.1,0,0.2
		c-0.2,0.3-1.1,1.2-1.4,1.7c-0.1,0.1-0.1,0.1-0.2,0c-0.5-0.3-1.5-1-1.7-1.4c-0.1-0.1-0.1-0.1,0-0.2c0.3-0.5,0.9-1.2,1.3-1.6
		c0.2-0.2,0.2-0.2,0.3-0.1C525.1,58.3,525.8,59,526.5,59.4z"/>
	<path class="st0" d="M533.9,70.6h0.1c0.6,0,0.9,0.6,0.9,1.1c0,0.6-0.3,1.1-0.9,1.1h-0.1c-0.6,0-1.2-0.1-1.8-0.5
		c-0.8-0.6-1.1-1.7-1.1-1.9c-0.1,0.7-1.1,2.4-2.6,2.4h-0.1c-0.6,0-0.9-0.6-0.9-1.1c0-0.6,0.3-1.1,0.9-1.1h0.1c1.2,0,2-0.5,2.1-0.8
		c0,0,0-0.1,0-0.1c0-0.2-0.4-2.6-0.4-2.8c0-0.1,0-0.2,0-0.3c0.1-0.4,0.4-1,0.5-1.4c0.1-0.2,0.2-0.3,0.2-0.3c0.1,0,0.2,0.2,0.2,0.4
		c0.3,1,0.5,3.1,0.8,3.8C532.5,70,533.5,70.6,533.9,70.6z M532.4,58.8c0.2-0.2,0.2-0.2,0.3-0.1c0.5,0.5,1,1.1,1.5,1.4
		c0.2,0.1,0.2,0.2,0,0.3c-0.5,0.5-0.9,1-1.3,1.5c-0.1,0.1-0.2,0.1-0.3,0c-0.4-0.3-0.9-0.7-1.4-1.2c-0.3,0.3-0.9,1-1.1,1.2
		c-0.1,0.1-0.2,0.2-0.4,0c-0.5-0.3-1.1-0.9-1.5-1.4c-0.1-0.1-0.1-0.2,0-0.3c0.4-0.5,0.9-1,1.4-1.5c0.1-0.1,0.2-0.1,0.3,0.1
		c0.4,0.4,1,1,1.4,1.2C531.6,59.6,532.1,59,532.4,58.8z"/>
	<path class="st0" d="M541.8,58.6c0.7,0,1.7,1,1.7,2.1c0,0.4-0.1,0.8-0.2,1.2c-0.3,0.8-0.9,1.3-1.8,1.3c-0.8,0-1.3-0.6-1.3-1.3
		C540.2,60.8,541.3,58.6,541.8,58.6z M541.6,60.2c-0.3,0-0.7,0.6-0.7,1c0,0.3,0.4,0.6,0.8,0.6c0.5,0,1.1-0.3,1.1-0.5
		C542.8,61,542.2,60.2,541.6,60.2z"/>
	<path class="st0" d="M536.5,71.9c-0.6,0.6-1.3,1-2.3,1h-0.3c-0.7,0-1-0.4-1-1.2c0-0.7,0.3-1.1,1-1.1h0.2c0.9,0,1.6-0.2,2.1-0.5
		c0.7-0.4,1.2-1,1.7-1.9c0.1-0.1,0.2-0.2,0.3-0.2c0.2,0,0.2,0.2,0.3,0.7c0.1,0.8,0.5,1.5,1.5,1.5c1.1,0,2.2-1,2.6-2
		c0.2-0.6,0.5-0.9,0.6-0.9c0.1,0,0.2,0.1,0.2,0.3c0,0.2-0.1,0.4-0.1,0.7c0,1.3,1.1,1.8,1.8,1.8c0.2,0,0.7-0.1,0.7-0.4
		c0-0.3-0.2-0.6-0.4-1c0,0,0-0.1,0-0.1c0-0.3,0.7-1.4,1-1.8c0-0.1,0.1-0.2,0.2-0.2c0.1,0,0.1,0.1,0.2,0.2c0.2,0.4,0.3,0.9,0.3,1.6
		c0,1.3-0.8,3.9-2.6,3.9c-1.1,0-1.8-0.6-2.1-1.6c-0.8,1.4-1.8,1.9-2.6,1.9c-1.1,0-1.8-0.6-2-2.2C537.3,71,536.9,71.4,536.5,71.9z"/>
	<path class="st0" d="M558.7,79.4c0.1-0.1,0.1,0,0.1,0.1c0,0.6-0.2,1.1-0.5,1.3l-4.1,2.3c-0.1,0-0.1,0-0.1-0.1c0-0.3,0.1-0.8,0.2-1
		c0.1-0.2,0.3-0.3,0.7-0.5L558.7,79.4z"/>
	<path class="st0" d="M558,77.1c0.1,0.1,0.1,0.1,0,0.2c-0.2,0.3-1.1,1.2-1.4,1.7c-0.1,0.1-0.1,0.1-0.2,0c-0.5-0.3-1.5-1-1.7-1.4
		c-0.1-0.1-0.1-0.1,0-0.2c0.3-0.5,0.9-1.2,1.3-1.6c0.2-0.2,0.2-0.2,0.3-0.1C556.6,76,557.3,76.6,558,77.1z"/>
	<path class="st0" d="M550,65.6c-0.1-2-0.2-5.3-0.5-6.9c0,0,0-0.1,0-0.1c0-0.3,0.4-0.8,0.7-1.4c0.2-0.3,0.3-0.6,0.4-0.6
		c0.1,0,0.2,0.2,0.3,0.7c0.4,3.5,0.2,8.4,0.7,11.3c0.2,1,0.4,1.5,0.9,1.8c0.5,0.2,1.2,0.3,1.9,0.3c0.6,0,1.7,0,2.3-0.6
		c-0.1-0.9-0.7-2-1.1-2.4c0,0,0-0.1,0-0.1c0-0.2,0.5-1.4,0.7-1.8c0-0.1,0.1-0.1,0.1-0.1c0.1,0,0.3,0.2,0.4,0.5
		c0.5,0.8,0.7,1.9,0.7,3.1c0,0.9-0.1,2-0.8,2.7c-0.8,0.8-1.8,1.2-3.1,1.2c-0.8,0-1.7-0.2-2.2-0.8C550.5,71.2,550.2,70.1,550,65.6z"
		/>
</g>
</svg>
