<?xml version="1.0" encoding="utf-8"?>
<!-- Generator: Adobe Illustrator 19.2.0, SVG Export Plug-In . SVG Version: 6.00 Build 0)  -->
<svg version="1.1" id="Layer_1" xmlns="http://www.w3.org/2000/svg" xmlns:xlink="http://www.w3.org/1999/xlink" x="0px" y="0px"
	 viewBox="0 0 195.8 51.8" style="enable-background:new 0 0 195.8 51.8;" xml:space="preserve">
<style type="text/css">
	.st0{opacity:0.75;}
	.st1{fill:#FFFFFF;}
	.st2{fill:#BF8138;}
	.st3{fill:#F2C671;fill-opacity:0.5;}
	.st4{opacity:0.5;}
	.st5{fill:#F2C671;}
</style>
<g>
	<g>
		<g class="st0">
			<path d="M70.2,3.7c0,0.9-0.2,1.8-0.5,2.6c0.4,0.2,0.6,0.5,0.6,0.7c0,0.7-0.3,1.3-0.6,1.8c-0.1,0.1-0.1,0.1-0.2,0.1l-0.9-0.6
				c-0.9,1.4-2.3,3.1-4.4,4.1c-0.8,0.4-1.7,0.7-2.6,0.7c-0.5,0-0.7-0.1-0.7-0.2c0-0.2,0.4-0.3,1-0.7c1.5-0.9,4.5-3.1,5.5-4.5
				c-0.8-0.6-1.9-1.3-1.9-2.4c0-0.8,0.4-1.5,1.1-2.3c0.7-1,1.5-1.4,2.2-1.4C69.8,1.5,70.2,2.7,70.2,3.7z M67,4.5c0,0,0,0.1,0,0.1
				c0,0.2,0.8,0.8,1.4,1c0.2-0.3,0.2-0.6,0.2-1.2c0-0.5-0.2-0.8-0.6-0.8C67.7,3.7,67.2,4,67,4.5z"/>
			<path d="M79.5,35.3c1.4,0,2.1,0.7,2.1,2c0,1.4-0.7,2.1-2.1,2.1H79c-3.8,0-6.5-0.9-7.9-1.9c-3.3,1.6-10.1,3.4-16.1,3.4
				c-11.4,0-13.6-4.3-13.6-8.2c0-1.9,0.6-4.6,1.9-6.6c0.5-0.8,0.8-1,1.1-1c0.2,0,0.2,0.1,0.2,0.3c0,0.3-0.1,0.7-0.3,1
				c-0.5,1-0.9,2.1-0.9,3.3c0,6.1,8.9,7.1,13.6,7.1c4.6,0,9-1,12-1.9c-0.1-0.4-0.2-0.9-0.2-1.4c0-4.1,4.6-9.2,7.2-9.2
				c1.5,0,2.3,1.7,2.3,3.9c0,2.2-0.9,5-2.7,6.6c0.5,0.3,1.7,0.5,3.4,0.5H79.5z M71.2,18.4c0.2,0.1,0.1,0.2,0,0.3
				c-0.4,0.6-1.9,2.2-2.5,3c-0.1,0.2-0.2,0.2-0.4,0c-0.8-0.5-2.6-1.9-3.1-2.6c-0.1-0.2-0.1-0.2,0-0.4c0.6-0.9,1.6-2.1,2.3-2.8
				c0.3-0.3,0.4-0.4,0.5-0.2C68.7,16.4,70,17.6,71.2,18.4z M74.2,28.5c-1.5,0-2.9,1.6-2.9,2.2c0.1,1.1,0.7,1.6,2.2,2.5
				C74,33,76,31.5,76,30.9C76,29.4,75.5,28.5,74.2,28.5z"/>
			<path d="M86.1,36.9c-0.8,1.1-2.1,2-4.6,2.4c-0.7,0.1-1.7,0.1-2.5,0.1c-1.1,0-1.7-1-1.7-2c0-1,0.6-2.1,1.7-2.1h1
				c1.8,0,4.7-0.1,5.7-1.1c-0.1-1.6-1.3-3.6-1.9-4.4c0,0,0-0.1,0-0.1c0-0.7,1.2-3.2,1.2-3.4c0-0.1,0.1-0.2,0.2-0.2
				c0.6,0,2.1,2.9,2.1,6.3C87.2,33.9,87,35.6,86.1,36.9z M87,41.5c0.3-0.3,0.4-0.4,0.6-0.2c0.9,0.9,1.8,1.9,2.8,2.5
				c0.3,0.2,0.3,0.3,0,0.6c-0.8,0.9-1.6,1.8-2.4,2.7c-0.2,0.2-0.3,0.2-0.5,0c-0.7-0.5-1.7-1.3-2.6-2.2c-0.5,0.6-1.6,1.8-2,2.1
				c-0.2,0.1-0.3,0.3-0.7,0.1c-0.9-0.6-2.1-1.5-2.8-2.5c-0.2-0.2-0.2-0.3,0-0.6c0.7-0.8,1.6-1.9,2.5-2.7c0.2-0.2,0.3-0.2,0.6,0.1
				c0.7,0.7,1.9,1.8,2.6,2.2C85.6,43,86.6,41.9,87,41.5z"/>
			<path d="M110.7,35.3c1.3,0,2,0.7,2,2c0,1.4-0.7,2.1-2,2.1h-0.4c-1.1,0-1.9,0-2.3-0.2c0,0.2,0,0.4,0,0.6c0,1.3-0.2,2.6-0.7,3.7
				c-1,2.2-2.3,5.9-6.4,7.8c-0.7,0.3-1.4,0.5-2.2,0.5c-1.6,0-4.2-0.9-6.3-1.9c-0.6-0.3-0.8-0.5-0.8-0.7c0-0.2,0.2-0.4,0.7-0.4
				c0.5,0,1.5,0.1,2.3,0.1c5.6,0,11.1-4.9,11.8-8.9c0-1-1.9-2.9-2.3-3.4c-0.1-0.1-0.1-0.3-0.1-0.5c0-0.9,0.7-2.7,1-3.3
				c0.2-0.3,0.4-0.4,0.5-0.4c0.3,0,0.6,0.3,1.1,1.2c0.6,1.1,1.6,1.5,3.3,1.5H110.7z"/>
			<path d="M119.4,12.7c1.2,0,3,1.7,3,3.7c0,0.7-0.1,1.4-0.3,2.1c-0.5,1.4-1.7,2.2-3.2,2.2c-1.4,0-2.4-1.1-2.4-2.4
				C116.4,16.6,118.5,12.7,119.4,12.7z M119,15.5c-0.5,0-1.3,1.1-1.3,1.7c0,0.5,0.7,1,1.4,1c0.9,0,2-0.5,2-0.9
				C121.1,17.1,120,15.5,119,15.5z"/>
			<path d="M128.5,35.3c1.1,0,1.7,0.6,1.7,1.9c0,1.4-0.6,2.2-1.8,2.2H128c-1.8-0.1-3.5-0.6-4.9-1.4c-1.4-0.9-2-1.6-2.9-3
				c-2.1,1.9-3.8,3.1-5.1,3.6c-1.4,0.6-3.1,0.9-4.9,0.9c-1.3,0-2-0.7-2-2.1c0-1.3,0.7-2,2-2h0.3c3.2,0,5.3-0.6,8-2.1
				c-0.9-1.2-3-1.7-4.1-1.9c-0.1,0-0.2-0.3-0.2-0.7c0-0.9,0.3-2.5,0.8-2.9c1.7-1.3,3.7-2,5.5-2c1.8,0,3.4,0.6,4.7,1.9
				c0.3,0.3,0.4,0.8,0.4,1.3c0,1.3-0.7,3-2.3,4.2c1.5,1.5,3,2.2,4.7,2.2H128.5z"/>
			<path d="M130.6,17.5c-1.3,0-2-1.3-2-2.7c0-0.4,0.1-0.9,0.2-1.4c0.1-0.4,0.4-1.4,0.9-1.4c0.2,0,0.4,0.4,0.4,1v0.5
				c0,0.6,0.4,1,1.1,1h0.1c0.8,0,1.4-0.6,1.6-1.7c0.1-0.5,0.4-1.9,1.1-1.9c0.2,0,0.4,0.3,0.4,1c0,0.3,0.2,0.6,0.7,0.6
				c0.8,0,1.5-0.6,1.6-1.5c0.2-1.2,0.4-1.5,0.7-1.5c0.4,0,0.6,1.2,0.6,1.9c0,0.5-0.1,1.1-0.3,1.8c-0.4,1.2-1.2,2.1-2.7,2.1
				c-0.3,0-0.6-0.1-0.8-0.2c-0.1-0.1-0.2-0.1-0.4,0.2C132.8,16.6,131.9,17.5,130.6,17.5z M137.6,5.2c0.2-0.1,0.1,0.1,0.1,0.1
				c-0.1,0.7-0.4,1.5-0.9,2.1c-0.1,0.2-0.4,0.3-0.9,0.6l-7.1,3.3c-0.1,0-0.1,0-0.1-0.1c0-0.3,0.1-0.8,0.3-1.3
				c0.3-0.6,0.4-0.8,0.5-0.9c0.1-0.1,0.3-0.2,0.6-0.4L137.6,5.2z"/>
			<path d="M136.5,32.9c0,1,1.1,2.2,2.4,2.4c0.3,0,0.6,0,0.9,0h0.2c1.5,0,1.5,1.2,1.5,1.8c0,0.5,0,2.2-1.5,2.2h-0.3
				c-0.3,0-0.5,0-1,0c-2.7-0.3-3.7-2.7-3.9-3c-0.4,1.1-2.6,3-6.6,3h-0.2c-1.1,0-1.7-1-1.7-2c0-1,0.6-2.1,1.7-2.1h1.2
				c1.8,0,4.3-0.3,5.8-2.9c0.5-0.8,0.7-0.9,0.9-0.9C136.3,31.6,136.5,32,136.5,32.9z M136.1,20.7c0.3-0.3,0.4-0.4,0.6-0.2
				c0.9,0.9,1.8,1.9,2.8,2.5c0.3,0.2,0.3,0.3,0,0.6c-0.8,0.9-1.6,1.8-2.4,2.7c-0.2,0.2-0.3,0.2-0.5,0c-0.7-0.5-1.7-1.3-2.6-2.2
				c-0.5,0.6-1.6,1.8-2,2.1c-0.2,0.1-0.3,0.3-0.7,0.1c-0.9-0.6-2.1-1.5-2.8-2.5c-0.2-0.2-0.2-0.3,0-0.6c0.7-0.8,1.6-1.9,2.5-2.7
				c0.2-0.2,0.3-0.2,0.6,0.1c0.7,0.7,1.9,1.8,2.6,2.2C134.7,22.2,135.6,21.1,136.1,20.7z"/>
			<path d="M144.2,37.6c-1,1.2-2.1,1.9-4.1,1.9h-0.4c-1.2,0-1.8-0.7-1.8-2.2c0-1.3,0.6-1.9,1.8-1.9h0.4c1,0,1.8-0.1,2.6-0.4
				c0.7-0.2,1.1-0.5,1.2-0.8c0-3.1-1.1-9.6-1.7-15.9c0-0.7-0.5-2.9-0.7-3.8c0-0.1,0-0.3,0-0.4c0-0.5,0.6-1.7,1-2.4
				c0.5-0.9,0.9-1.6,1.3-1.6c0.1,0,0.2,0.1,0.3,0.4c0.5,1.8,1,2.6,1.5,3.3c0.1,0.2,0.2,0.3,0.2,0.5c0,0.1,0,0.1,0,0.2
				c-0.1,0.4-0.7,1.5-1,1.9c0.3,6.1,1.3,11,1.3,14C146,33.4,145.4,35.8,144.2,37.6z"/>
			<path d="M154.2,39.4c-0.2,0-0.3-0.3-0.3-1.2c0-5.4-2-20.3-2-22.7c0-1.2,0.8-3.1,1.5-4.4c0.2-0.4,0.6-0.9,0.8-0.9
				c0.2,0,0.3,0.3,0.3,1.4c0.2,3.9,1.3,13,1.3,19.6c0,2.6-0.2,4.9-0.6,6.2C154.9,38.8,154.6,39.4,154.2,39.4z"/>
		</g>
		<g>
			<g>
				<path class="st1" d="M68.7,2.2c0,0.9-0.2,1.8-0.5,2.6c0.4,0.2,0.6,0.5,0.6,0.7c0,0.7-0.3,1.3-0.6,1.8c-0.1,0.1-0.1,0.1-0.2,0.1
					l-0.9-0.6c-0.9,1.4-2.3,3.1-4.4,4.1c-0.8,0.4-1.7,0.7-2.6,0.7c-0.5,0-0.7-0.1-0.7-0.2c0-0.2,0.4-0.3,1-0.7
					c1.5-0.9,4.5-3.1,5.5-4.5C65.1,5.6,64,4.9,64,3.8C64,3,64.4,2.2,65,1.4c0.7-1,1.5-1.4,2.2-1.4C68.4,0,68.7,1.2,68.7,2.2z
					 M65.5,3c0,0,0,0.1,0,0.1c0,0.2,0.8,0.8,1.4,1c0.2-0.3,0.2-0.6,0.2-1.2c0-0.5-0.2-0.8-0.6-0.8C66.2,2.2,65.8,2.5,65.5,3z"/>
				<path class="st1" d="M78,33.9c1.4,0,2.1,0.7,2.1,2c0,1.4-0.7,2.1-2.1,2.1h-0.4c-3.8,0-6.5-0.9-7.9-1.9
					c-3.3,1.6-10.1,3.4-16.1,3.4c-11.4,0-13.6-4.3-13.6-8.2c0-1.9,0.6-4.6,1.9-6.6c0.5-0.8,0.8-1,1.1-1c0.2,0,0.2,0.1,0.2,0.3
					c0,0.3-0.1,0.7-0.3,1c-0.5,1-0.9,2.1-0.9,3.3c0,6.1,8.9,7.1,13.6,7.1c4.6,0,9-1,12-1.9c-0.1-0.4-0.2-0.9-0.2-1.4
					c0-4.1,4.6-9.2,7.2-9.2c1.5,0,2.3,1.7,2.3,3.9c0,2.2-0.9,5-2.7,6.6c0.5,0.3,1.7,0.5,3.4,0.5H78z M69.8,16.9
					c0.2,0.1,0.1,0.2,0,0.3c-0.4,0.6-1.9,2.2-2.5,3c-0.1,0.2-0.2,0.2-0.4,0c-0.8-0.5-2.6-1.9-3.1-2.6c-0.1-0.2-0.1-0.2,0-0.4
					c0.6-0.9,1.6-2.1,2.3-2.8c0.3-0.3,0.4-0.4,0.5-0.2C67.2,15,68.5,16.1,69.8,16.9z M72.7,27c-1.5,0-2.9,1.6-2.9,2.2
					c0.1,1.1,0.7,1.6,2.2,2.5c0.5-0.2,2.6-1.7,2.6-2.4C74.5,27.9,74,27,72.7,27z"/>
				<path class="st1" d="M84.6,35.4c-0.8,1.1-2.1,2-4.6,2.4c-0.7,0.1-1.7,0.1-2.5,0.1c-1.1,0-1.7-1-1.7-2s0.6-2.1,1.7-2.1h1
					c1.8,0,4.7-0.1,5.7-1.1c-0.1-1.6-1.3-3.6-1.9-4.4c0,0,0-0.1,0-0.1c0-0.7,1.2-3.2,1.2-3.4c0-0.1,0.1-0.2,0.2-0.2
					c0.6,0,2.1,2.9,2.1,6.3C85.7,32.5,85.6,34.1,84.6,35.4z M85.5,40c0.3-0.3,0.4-0.4,0.6-0.2c0.9,0.9,1.8,1.9,2.8,2.5
					c0.3,0.2,0.3,0.3,0,0.6c-0.8,0.9-1.6,1.8-2.4,2.7c-0.2,0.2-0.3,0.2-0.5,0c-0.7-0.5-1.7-1.3-2.6-2.2c-0.5,0.6-1.6,1.8-2,2.1
					c-0.2,0.1-0.3,0.3-0.7,0.1c-0.9-0.6-2.1-1.5-2.8-2.5c-0.2-0.2-0.2-0.3,0-0.6c0.7-0.8,1.6-1.9,2.5-2.7c0.2-0.2,0.3-0.2,0.6,0.1
					c0.7,0.7,1.9,1.8,2.6,2.2C84.1,41.6,85.1,40.5,85.5,40z"/>
				<path class="st1" d="M109.2,33.9c1.3,0,2,0.7,2,2c0,1.4-0.7,2.1-2,2.1h-0.4c-1.1,0-1.9,0-2.3-0.2c0,0.2,0,0.4,0,0.6
					c0,1.3-0.2,2.6-0.7,3.7c-1,2.2-2.3,5.9-6.4,7.8c-0.7,0.3-1.4,0.5-2.2,0.5c-1.6,0-4.2-0.9-6.3-1.9c-0.6-0.3-0.8-0.5-0.8-0.7
					c0-0.2,0.2-0.4,0.7-0.4c0.5,0,1.5,0.1,2.3,0.1c5.6,0,11.1-4.9,11.8-8.9c0-1-1.9-2.9-2.3-3.4c-0.1-0.1-0.1-0.3-0.1-0.5
					c0-0.9,0.7-2.7,1-3.3c0.2-0.3,0.4-0.4,0.5-0.4c0.3,0,0.6,0.3,1.1,1.2c0.6,1.1,1.6,1.5,3.3,1.5H109.2z"/>
				<path class="st1" d="M117.9,11.2c1.2,0,3,1.7,3,3.7c0,0.7-0.1,1.4-0.3,2.1c-0.5,1.4-1.7,2.2-3.2,2.2c-1.4,0-2.4-1.1-2.4-2.4
					C115,15.1,117,11.2,117.9,11.2z M117.6,14.1c-0.5,0-1.3,1.1-1.3,1.7c0,0.5,0.7,1,1.4,1c0.9,0,2-0.5,2-0.9
					C119.7,15.6,118.6,14.1,117.6,14.1z"/>
				<path class="st1" d="M127,33.9c1.1,0,1.7,0.6,1.7,1.9c0,1.4-0.6,2.2-1.8,2.2h-0.4c-1.8-0.1-3.5-0.6-4.9-1.4
					c-1.4-0.9-2-1.6-2.9-3c-2.1,1.9-3.8,3.1-5.1,3.6c-1.4,0.6-3.1,0.9-4.9,0.9c-1.3,0-2-0.7-2-2.1c0-1.3,0.7-2,2-2h0.3
					c3.2,0,5.3-0.6,8-2.1c-0.9-1.2-3-1.7-4.1-1.9c-0.1,0-0.2-0.3-0.2-0.7c0-0.9,0.3-2.5,0.8-2.9c1.7-1.3,3.7-2,5.5-2
					c1.8,0,3.4,0.6,4.7,1.9c0.3,0.3,0.4,0.8,0.4,1.3c0,1.3-0.7,3-2.3,4.2c1.5,1.5,3,2.2,4.7,2.2H127z"/>
				<path class="st1" d="M129.1,16.1c-1.3,0-2-1.3-2-2.7c0-0.4,0.1-0.9,0.2-1.4c0.1-0.4,0.4-1.4,0.9-1.4c0.2,0,0.4,0.4,0.4,1v0.5
					c0,0.6,0.4,1,1.1,1h0.1c0.8,0,1.4-0.6,1.6-1.7c0.1-0.5,0.4-1.9,1.1-1.9c0.2,0,0.4,0.3,0.4,1c0,0.3,0.2,0.6,0.7,0.6
					c0.8,0,1.5-0.6,1.6-1.5c0.2-1.2,0.4-1.5,0.7-1.5c0.4,0,0.6,1.2,0.6,1.9c0,0.5-0.1,1.1-0.3,1.8c-0.4,1.2-1.2,2.1-2.7,2.1
					c-0.3,0-0.6-0.1-0.8-0.2c-0.1-0.1-0.2-0.1-0.4,0.2C131.3,15.2,130.5,16.1,129.1,16.1z M136.1,3.8c0.2-0.1,0.1,0.1,0.1,0.1
					c-0.1,0.7-0.4,1.5-0.9,2.1c-0.1,0.2-0.4,0.3-0.9,0.6l-7.1,3.3c-0.1,0-0.1,0-0.1-0.1c0-0.3,0.1-0.8,0.3-1.3
					c0.3-0.6,0.4-0.8,0.5-0.9c0.1-0.1,0.3-0.2,0.6-0.4L136.1,3.8z"/>
				<path class="st1" d="M135,31.4c0,1,1.1,2.2,2.4,2.4c0.3,0,0.6,0,0.9,0h0.2c1.5,0,1.5,1.2,1.5,1.8c0,0.5,0,2.2-1.5,2.2h-0.3
					c-0.3,0-0.5,0-1,0c-2.7-0.3-3.7-2.7-3.9-3c-0.4,1.1-2.6,3-6.6,3h-0.2c-1.1,0-1.7-1-1.7-2s0.6-2.1,1.7-2.1h1.2
					c1.8,0,4.3-0.3,5.8-2.9c0.5-0.8,0.7-0.9,0.9-0.9C134.9,30.1,135,30.5,135,31.4z M134.6,19.2c0.3-0.3,0.4-0.4,0.6-0.2
					c0.9,0.9,1.8,1.9,2.8,2.5c0.3,0.2,0.3,0.3,0,0.6c-0.8,0.9-1.6,1.8-2.4,2.7c-0.2,0.2-0.3,0.2-0.5,0c-0.7-0.5-1.7-1.3-2.6-2.2
					c-0.5,0.6-1.6,1.8-2,2.1c-0.2,0.1-0.3,0.3-0.7,0.1c-0.9-0.6-2.1-1.5-2.8-2.5c-0.2-0.2-0.2-0.3,0-0.6c0.7-0.8,1.6-1.9,2.5-2.7
					c0.2-0.2,0.3-0.2,0.6,0.1c0.7,0.7,1.9,1.8,2.6,2.2C133.2,20.8,134.2,19.6,134.6,19.2z"/>
				<path class="st1" d="M142.8,36.1c-1,1.2-2.1,1.9-4.1,1.9h-0.4c-1.2,0-1.8-0.7-1.8-2.2c0-1.3,0.6-1.9,1.8-1.9h0.4
					c1,0,1.8-0.1,2.6-0.4c0.7-0.2,1.1-0.5,1.2-0.8c0-3.1-1.1-9.6-1.7-15.9c0-0.7-0.5-2.9-0.7-3.8c0-0.1,0-0.3,0-0.4
					c0-0.5,0.6-1.7,1-2.4c0.5-0.9,0.9-1.6,1.3-1.6c0.1,0,0.2,0.1,0.3,0.4c0.5,1.8,1,2.6,1.5,3.3c0.1,0.2,0.2,0.3,0.2,0.5
					c0,0.1,0,0.1,0,0.2c-0.1,0.4-0.7,1.5-1,1.9c0.3,6.1,1.3,11,1.3,14C144.6,31.9,144,34.3,142.8,36.1z"/>
				<path class="st1" d="M152.8,38c-0.2,0-0.3-0.3-0.3-1.2c0-5.4-2-20.3-2-22.7c0-1.2,0.8-3.1,1.5-4.4c0.2-0.4,0.6-0.9,0.8-0.9
					c0.2,0,0.3,0.3,0.3,1.4c0.2,3.9,1.3,13,1.3,19.6c0,2.6-0.2,4.9-0.6,6.2C153.4,37.3,153.1,38,152.8,38z"/>
			</g>
		</g>
	</g>
	<g>
		<g>
			<g>
				<g>
					<path class="st2" d="M8.7,29.4c0,0,1.5-3,4.6-1.4c-1.3-2.1-0.6-4.8,0-5.6c1,3.4,2.8,6.3,6.9,7h2.4l-1,0c3,0,5.8-2.2,5.8-6
						c0-3.8-2.3-5-3.6-5.1c-0.6,0-1.2,0.1-1.7,0.3c-1.3,0.3-2.2,1.5-2.2,2.8c0,1.6,1.4,2.9,3.1,2.9c0.6,0,1.2-0.2,1.7-0.5
						c-0.1,1.6-1.4,3-3.4,3c-2.5,0-5.5-2.5-4.3-7.5c-1.1-0.9-4.6-1.2-5.4,1.8c0,0,0,0,0,0c-0.3-0.2-0.6-0.3-1-0.3
						c-1.1,0-2.1,1.2-2.1,2.6c0,0.8,0.3,1.4,0.7,1.9c-5-0.9-9.1,4.2-9.1,4.2s0,0,0,0H8.7z M21.5,29.6l1,0h-2.4c-4,0.7-5.9,3.6-6.9,7
						c-0.6-0.8-1.3-3.5,0-5.6c-3.1,1.6-4.6-1.4-4.6-1.4H0c0,0,0,0,0,0s4,5,9,4.2c-0.4,0.5-0.6,1.1-0.6,1.8c0,1.4,0.9,2.6,2.1,2.6
						c0.4,0,0.7-0.1,1-0.4c0,0.1,0,0.1,0,0.1c0.8,3,4.2,2.8,5.4,1.8c-1.2-5,1.8-7.5,4.3-7.5c2,0,3.3,1.4,3.4,3
						c-0.5-0.3-1.1-0.5-1.7-0.5c-1.7,0-3.1,1.3-3.1,2.9c0,1.3,0.9,2.4,2.2,2.8c0.5,0.2,1.1,0.3,1.7,0.3c1.3-0.1,3.6-1.3,3.6-5.1
						C27.4,31.8,24.6,29.6,21.5,29.6z"/>
				</g>
			</g>
			<path class="st3" d="M11.7,32c0,0-0.1,2.2-0.2,2.7c0,0.8-0.6,1.3-1.2,1.3c-0.7,0-1.1-0.7-1.1-1.4c0-0.5,0.2-0.9,0.6-1.1
				C9.9,33.4,10.8,32.6,11.7,32z"/>
			<path class="st3" d="M11.4,32.4c0,0-0.1,1.3-0.1,1.5c0,0.4-0.3,0.8-0.7,0.7c-0.4,0-0.6-0.4-0.6-0.8c0-0.3,0.1-0.5,0.3-0.6
				C10.4,33.2,10.9,32.7,11.4,32.4z"/>
			<g>
				<g class="st4">
					<path class="st5" d="M10.1,25.8c-1.1-0.5-2.5-1.2-5.8,0.1C3.1,26.3,2,27.3,1.3,28c-1,1,0.3,1.7,2.5,1.7c2.2,0,2.6-0.6,3.9-1.9
						C9.2,26.3,10.9,26.2,10.1,25.8z"/>
				</g>
			</g>
			<g class="st4">
				<g>
					<path class="st5" d="M24.7,18.7c-0.4-0.3-0.9-0.4-1.5-0.4c-0.1,0-0.2,0-0.2,0c0,0,0,0,0,0c0,0,0,0,0,0c-0.1,0-0.2,0-0.3,0
						c-0.1,0-0.3,0-0.4,0c0,0,0,0,0,0.1c-1,0.3-1.8,1-1.7,1.8c0,1,1.2,1.7,2.6,1.6c0.9,0,1.7-0.4,2.1-0.9c0.2,0.5,0.4,1.2,0.4,1.8
						c0.1,2.1-1.5,4.2-4,4.2c-1.7,0-2.6-0.1-3.9-1.2c-1.3-1.1-0.3,2.4,4.1,2.4c3.2,0,5.3-2.9,5.3-5.1C27.1,21.2,26.2,19.5,24.7,18.7
						z"/>
				</g>
			</g>
			<g>
				
					<ellipse transform="matrix(0.9999 -1.343745e-002 1.343745e-002 0.9999 -0.2588 0.3111)" class="st5" cx="23" cy="19.4" rx="1.8" ry="1.2"/>
			</g>
			
				<ellipse transform="matrix(0.9999 -1.348834e-002 1.348834e-002 0.9999 -0.2509 0.3105)" class="st1" cx="22.9" cy="18.8" rx="1" ry="0.5"/>
			<g>
				<path class="st5" d="M4.7,25.6c-1.2,0.4-2,1.2-1.8,1.8c0.2,0.6,1.4,0.7,2.6,0.3c1.2-0.4,2-1.2,1.8-1.8
					C7.1,25.4,5.9,25.2,4.7,25.6z"/>
			</g>
			<path class="st1" d="M4.9,26.6C5.6,26.4,6,26,6,25.7c-0.1-0.3-0.7-0.3-1.4-0.1c-0.7,0.2-1.1,0.6-1,0.9
				C3.7,26.8,4.3,26.8,4.9,26.6z"/>
			<g>
				<g class="st4">
					<path class="st5" d="M26.9,34.7c0-2.1-2.1-4.9-5.3-4.9c-4.1,0-5.6,2.2-4.2,2.2c1.4,0,1.3-0.9,3.7-0.9c2.3,0,4.5,2.1,4.4,4.1
						c0,0.3-0.1,0.5-0.1,0.8c-0.3-0.7-1.1-1.2-2.2-1.2c-1.3-0.1-2.4,0.6-2.5,1.5c0,0.8,0.7,1.4,1.7,1.7c0,0,0,0,0,0
						c0.1,0,0.3,0,0.4,0c0,0,0.1,0,0.1,0c0,0,0.1,0,0.1,0c0.2,0,0.4,0,0.6,0C25.8,37.9,26.9,36.6,26.9,34.7z"/>
				</g>
			</g>
			<g>
				
					<ellipse transform="matrix(0.9999 -1.344265e-002 1.344265e-002 0.9999 -0.4794 0.3127)" class="st5" cx="23" cy="35.8" rx="1.8" ry="1.2"/>
			</g>
			<g>
				<path class="st5" d="M21.5,29.8c-0.9,0-1.6,0.3-1.6,0.6c0,0.3,0.7,0.6,1.6,0.6c0.9,0,1.6-0.3,1.6-0.6
					C23.1,30,22.4,29.8,21.5,29.8z"/>
			</g>
			<path class="st1" d="M21.4,30.3c0.5,0,0.9-0.1,0.9-0.2c0-0.1-0.4-0.2-0.9-0.2c-0.5,0-0.9,0.1-0.9,0.3
				C20.5,30.2,20.9,30.3,21.4,30.3z"/>
			
				<ellipse transform="matrix(0.9999 -1.348834e-002 1.348834e-002 0.9999 -0.4722 0.312)" class="st1" cx="22.9" cy="35.2" rx="1" ry="0.5"/>
			<path class="st3" d="M16.9,19.2c0,0-2-1.1-3.6-0.2c-1.6,0.8-1.4,1.6-1.4,2.1c0,0.6,0.3-0.4,1.6-0.3c0.6,0,0.9,1.9,1.8,1.9
				C16.6,22.5,15.1,20.9,16.9,19.2z"/>
			<g>
				<path class="st5" d="M14.5,18.7c-0.9,0-1.6,0.3-1.6,0.7c0,0.4,0.7,0.6,1.6,0.6c0.9,0,1.6-0.3,1.6-0.7
					C16.1,19,15.4,18.7,14.5,18.7z"/>
			</g>
			<path class="st1" d="M14.4,19.3c0.5,0,0.9-0.1,0.9-0.3c0-0.2-0.4-0.3-0.9-0.3c-0.5,0-0.9,0.1-0.9,0.3
				C13.5,19.1,13.9,19.3,14.4,19.3z"/>
			
				<ellipse transform="matrix(4.956940e-002 -0.9988 0.9988 4.956940e-002 -12.8108 31.456)" class="st3" cx="10.1" cy="22.5" rx="1.8" ry="1.5"/>
			<g>
				<path class="st5" d="M10.1,20.7c-0.6,0-1,0.5-1,1.1c0,0.6,0.5,1.1,1.1,1c0.6,0,1-0.5,1-1.1C11.2,21.2,10.7,20.7,10.1,20.7z"/>
			</g>
			
				<ellipse transform="matrix(1 -8.491202e-003 8.491202e-003 1 -0.1788 8.639032e-002)" class="st1" cx="10.1" cy="21.1" rx="0.5" ry="0.4"/>
		</g>
		<g>
			<g>
				<g>
					<path class="st2" d="M174.2,29.3l-1,0h2.4c4-0.7,5.9-3.6,6.9-7c0.6,0.8,1.3,3.5,0,5.6c3.1-1.6,4.6,1.4,4.6,1.4h8.7c0,0,0,0,0,0
						s-4.1-5.1-9.1-4.2c0.4-0.5,0.7-1.1,0.7-1.9c0-1.4-0.9-2.6-2.1-2.6c-0.4,0-0.7,0.1-1,0.3c0,0,0,0,0,0c-0.8-3-4.2-2.8-5.4-1.8
						c1.2,5-1.8,7.5-4.3,7.5c-2,0-3.3-1.4-3.4-3c0.5,0.3,1.1,0.5,1.7,0.5c1.7,0,3.1-1.3,3.1-2.9c0-1.3-1-2.4-2.2-2.8
						c-0.5-0.2-1.1-0.3-1.7-0.3c-1.3,0.1-3.6,1.3-3.6,5.1C168.4,27.1,171.2,29.3,174.2,29.3z M187.1,29.6c0,0-1.5,3-4.6,1.4
						c1.3,2.1,0.6,4.8,0,5.6c-1-3.4-2.8-6.3-6.9-7h-2.4l1,0c-3,0-5.8,2.2-5.8,6c0,3.8,2.3,5,3.6,5.1c0.6,0,1.2-0.1,1.7-0.3
						c1.3-0.3,2.2-1.5,2.2-2.8c0-1.6-1.4-2.9-3.1-2.9c-0.6,0-1.2,0.2-1.7,0.5c0.1-1.6,1.4-3,3.4-3c2.5,0,5.5,2.5,4.3,7.5
						c1.1,0.9,4.6,1.2,5.4-1.8c0,0,0,0,0-0.1c0.3,0.2,0.7,0.4,1,0.4c1.1,0,2.1-1.2,2.1-2.6c0-0.7-0.2-1.3-0.6-1.8c5,0.8,9-4.2,9-4.2
						s0,0,0,0H187.1z"/>
				</g>
			</g>
			<path class="st3" d="M184.1,32c0,0,0.1,2.2,0.2,2.7c0,0.8,0.6,1.3,1.2,1.3c0.6,0,1.1-0.7,1.1-1.4c0-0.5-0.2-0.9-0.6-1.1
				C185.9,33.4,185,32.6,184.1,32z"/>
			<path class="st3" d="M184.4,32.4c0,0,0.1,1.3,0.1,1.5c0,0.4,0.3,0.8,0.7,0.7c0.4,0,0.6-0.4,0.6-0.8c0-0.3-0.1-0.5-0.3-0.6
				C185.4,33.2,184.8,32.7,184.4,32.4z"/>
			<g>
				<g class="st4">
					<path class="st5" d="M194.4,28c-0.7-0.7-1.8-1.6-2.9-2.1c-3.3-1.3-4.7-0.6-5.8-0.1c-0.8,0.4,0.9,0.5,2.4,2
						c1.3,1.3,1.8,1.9,3.9,1.9C194.1,29.7,195.4,28.9,194.4,28z"/>
				</g>
			</g>
			<g class="st4">
				<g>
					<path class="st5" d="M178.2,25.6c-1.3,1.1-2.2,1.2-3.9,1.2c-2.5,0-4.1-2.1-4-4.2c0-0.7,0.2-1.3,0.4-1.8
						c0.4,0.5,1.2,0.9,2.1,0.9c1.4,0.1,2.5-0.7,2.6-1.6c0-0.8-0.7-1.5-1.7-1.8c0,0,0,0,0-0.1c-0.1,0-0.3,0-0.4,0c-0.1,0-0.2,0-0.3,0
						c0,0,0,0,0,0c0,0,0,0,0,0c-0.1,0-0.2,0-0.2,0c-0.6,0-1.1,0.2-1.5,0.4c-1.5,0.8-2.3,2.5-2.3,4.1c0,2.2,2.1,5.1,5.3,5.1
						C178.5,28,179.5,24.5,178.2,25.6z"/>
				</g>
			</g>
			<g>
				
					<ellipse transform="matrix(1.382376e-002 -0.9999 0.9999 1.382376e-002 150.9787 191.9032)" class="st5" cx="172.8" cy="19.4" rx="1.2" ry="1.8"/>
			</g>
			
				<ellipse transform="matrix(1.348834e-002 -0.9999 0.9999 1.348834e-002 151.8158 191.3917)" class="st1" cx="172.9" cy="18.8" rx="0.5" ry="1"/>
			<g>
				<path class="st5" d="M191.1,25.6c1.2,0.4,2,1.2,1.8,1.8c-0.2,0.6-1.4,0.7-2.6,0.3c-1.2-0.4-2-1.2-1.8-1.8
					C188.7,25.4,189.8,25.2,191.1,25.6z"/>
			</g>
			<path class="st1" d="M190.9,26.6c-0.7-0.2-1.1-0.6-1-0.9c0.1-0.3,0.7-0.3,1.4-0.1c0.7,0.2,1.1,0.6,1,0.9
				C192.1,26.8,191.5,26.8,190.9,26.6z"/>
			<g>
				<g class="st4">
					<path class="st5" d="M174.2,29.8c-3.2,0-5.3,2.8-5.3,4.9c0,1.9,1.1,3.1,3.4,3.3c0.2,0,0.4,0,0.6,0c0,0,0.1,0,0.1,0
						c0,0,0.1,0,0.1,0c0.1,0,0.3,0,0.4,0c0,0,0,0,0,0c1-0.2,1.7-0.9,1.7-1.7c0-0.9-1.2-1.6-2.5-1.5c-1,0.1-1.9,0.6-2.2,1.2
						c0-0.2-0.1-0.5-0.1-0.8c-0.1-2,2.1-4.1,4.4-4.1c2.4,0,2.4,0.9,3.7,0.9C179.8,32,178.3,29.8,174.2,29.8z"/>
				</g>
			</g>
			<g>
				
					<ellipse transform="matrix(1.382910e-002 -0.9999 0.9999 1.382910e-002 134.5714 208.0841)" class="st5" cx="172.8" cy="35.8" rx="1.2" ry="1.8"/>
			</g>
			<g>
				<path class="st5" d="M174.3,29.8c0.9,0,1.6,0.3,1.6,0.6c0,0.3-0.7,0.6-1.6,0.6c-0.9,0-1.6-0.3-1.6-0.6
					C172.7,30,173.4,29.8,174.3,29.8z"/>
			</g>
			<path class="st1" d="M174.4,30.3c-0.5,0-0.9-0.1-0.9-0.2c0-0.1,0.4-0.2,0.9-0.2c0.5,0,0.9,0.1,0.9,0.3
				C175.3,30.2,174.9,30.3,174.4,30.3z"/>
			
				<ellipse transform="matrix(1.348834e-002 -0.9999 0.9999 1.348834e-002 135.4101 207.5776)" class="st1" cx="172.9" cy="35.2" rx="0.5" ry="1"/>
			<path class="st3" d="M178.9,19.2c0,0,2-1.1,3.6-0.2c1.6,0.8,1.4,1.6,1.4,2.1c0,0.6-0.3-0.4-1.6-0.3c-0.6,0-0.9,1.9-1.8,1.9
				C179.2,22.5,180.7,20.9,178.9,19.2z"/>
			<g>
				<path class="st5" d="M181.3,18.7c0.9,0,1.6,0.3,1.6,0.7c0,0.4-0.7,0.6-1.6,0.6c-0.9,0-1.6-0.3-1.6-0.7
					C179.7,19,180.4,18.7,181.3,18.7z"/>
			</g>
			<path class="st1" d="M181.4,19.3c-0.5,0-0.9-0.1-0.9-0.3c0-0.2,0.4-0.3,0.9-0.3c0.5,0,0.9,0.1,0.9,0.3
				C182.3,19.1,181.9,19.3,181.4,19.3z"/>
			
				<ellipse transform="matrix(0.9988 -4.985374e-002 4.985374e-002 0.9988 -0.8888 9.2844)" class="st3" cx="185.7" cy="22.5" rx="1.5" ry="1.8"/>
			<g>
				<path class="st5" d="M185.7,20.7c0.6,0,1,0.5,1,1.1c0,0.6-0.5,1.1-1.1,1c-0.6,0-1-0.5-1-1.1C184.6,21.2,185.1,20.7,185.7,20.7z"
					/>
			</g>
			
				<ellipse transform="matrix(9.864655e-003 -1 1 9.864655e-003 162.7773 206.5965)" class="st1" cx="185.7" cy="21.1" rx="0.4" ry="0.5"/>
		</g>
	</g>
</g>
</svg>
