<?xml version="1.0" encoding="utf-8"?>
<!-- Generator: Adobe Illustrator 19.2.0, SVG Export Plug-In . SVG Version: 6.00 Build 0)  -->
<svg version="1.1" id="Layer_1" xmlns="http://www.w3.org/2000/svg" xmlns:xlink="http://www.w3.org/1999/xlink" x="0px" y="0px"
	 viewBox="0 0 544.8 71" style="enable-background:new 0 0 544.8 71;" xml:space="preserve">
<style type="text/css">
	.st0{opacity:0.75;}
	.st1{fill:#FFFFFF;}
	.st2{fill:#BF8138;}
	.st3{fill:#F2C671;fill-opacity:0.5;}
	.st4{opacity:0.5;}
	.st5{fill:#F2C671;}
</style>
<g>
	<g>
		<g class="st0">
			<path d="M55.3,46c0.2-0.1,0.2-0.1,0.2,0.1c0,1-0.4,2-0.9,2.3l-7.4,4.1c-0.1,0.1-0.2,0-0.2-0.1c0-0.5,0.2-1.4,0.4-1.8
				c0.2-0.3,0.5-0.6,1.2-1L55.3,46z"/>
			<path d="M53.3,17.2c0.3-0.3,0.4-0.4,0.6-0.2c0.9,0.9,1.8,1.9,2.8,2.5c0.3,0.2,0.3,0.3,0,0.6c-0.8,0.9-1.6,1.8-2.4,2.7
				c-0.2,0.2-0.3,0.2-0.5,0c-0.7-0.5-1.7-1.3-2.6-2.2c-0.5,0.6-1.6,1.8-2,2.1c-0.2,0.1-0.3,0.3-0.7,0.1c-0.9-0.6-2.1-1.5-2.8-2.5
				c-0.2-0.2-0.2-0.3,0-0.6c0.7-0.8,1.6-1.9,2.5-2.7c0.2-0.2,0.3-0.2,0.6,0.1c0.7,0.7,1.9,1.8,2.6,2.2
				C51.9,18.7,52.9,17.6,53.3,17.2z M58.6,39.3c0.9,0.6,1.6,0.8,2.1,0.8h0.6c1.2,0,1.9,0.6,1.9,1.9c0,1.5-0.7,2.2-2,2.2h-0.6
				c-1.4,0-2.7-0.5-4-1.6c-1.3-1.1-2.1-2.9-2.4-5.4c-0.4,0.6-0.7,1.3-1.5,1.8c-1.1,0.8-2.9,1.1-4.7,1.1c-1.3,0-2.5-0.2-2.5-1.2
				c0.6-4,1.1-4.6,3-6.2c0.8-0.7,3.2-2.1,4.2-2.8c0-0.4-0.1-0.7-0.1-1c0-0.9,0.2-1.4,0.7-2.2c0.3-0.5,0.5-0.9,0.7-0.9
				c0.2,0,0.3,0.3,0.4,1c0.6,3.7,0.9,6.7,1.4,8.5C56.3,37,57.2,38.4,58.6,39.3z M53.2,32c-1.7,1.1-4.5,2.8-4.6,3.3
				c0,0.3,0.5,0.4,1.3,0.4c1.1,0,2.7-0.3,3.9-0.9C53.6,33.9,53.5,33.4,53.2,32z"/>
			<path d="M62.2,27.5c-1.3,0-2-1.3-2-2.7c0-0.4,0.1-0.9,0.2-1.4c0.1-0.4,0.4-1.4,0.9-1.4c0.2,0,0.4,0.4,0.4,1v0.5
				c0,0.6,0.4,1,1.1,1h0.1c0.8,0,1.4-0.6,1.6-1.7c0.1-0.5,0.4-1.9,1.1-1.9c0.2,0,0.4,0.3,0.4,1c0,0.3,0.2,0.6,0.7,0.6
				c0.8,0,1.5-0.6,1.6-1.5c0.2-1.2,0.4-1.5,0.7-1.5c0.4,0,0.6,1.2,0.6,1.9c0,0.5-0.1,1.1-0.3,1.8c-0.4,1.2-1.2,2.1-2.7,2.1
				c-0.3,0-0.6-0.1-0.8-0.2c-0.1-0.1-0.2-0.1-0.4,0.2C64.4,26.6,63.5,27.5,62.2,27.5z M69.1,15.2c0.2-0.1,0.1,0.1,0.1,0.1
				c-0.1,0.7-0.4,1.5-0.9,2.1c-0.1,0.2-0.4,0.3-0.9,0.6l-7.1,3.3c-0.1,0-0.1,0-0.1-0.1c0-0.3,0.1-0.8,0.3-1.3
				c0.3-0.6,0.4-0.8,0.5-0.9c0.1-0.1,0.3-0.2,0.6-0.4L69.1,15.2z"/>
			<path d="M67.8,41.7c-0.8,1.1-2.1,2-4.6,2.4c-0.7,0.1-1.7,0.1-2.5,0.1c-1.1,0-1.7-1-1.7-2c0-1,0.6-2.1,1.7-2.1h1
				c1.8,0,4.7-0.1,5.7-1.1c-0.1-1.6-1.3-3.6-1.9-4.4c0,0,0-0.1,0-0.1c0-0.7,1.2-3.2,1.2-3.4c0-0.1,0.1-0.2,0.2-0.2
				c0.6,0,2.1,2.9,2.1,6.3C68.9,38.7,68.7,40.4,67.8,41.7z M68.7,46.3c0.3-0.3,0.4-0.4,0.6-0.2c0.9,0.9,1.8,1.9,2.8,2.5
				c0.3,0.2,0.3,0.3,0,0.6c-0.8,0.9-1.6,1.8-2.4,2.7c-0.2,0.2-0.3,0.2-0.5,0c-0.7-0.5-1.7-1.3-2.6-2.2c-0.5,0.6-1.6,1.8-2,2.1
				c-0.2,0.1-0.3,0.3-0.7,0.1c-0.9-0.6-2.1-1.5-2.8-2.5c-0.2-0.2-0.2-0.3,0-0.6c0.7-0.8,1.6-1.9,2.5-2.7c0.2-0.2,0.3-0.2,0.6,0.1
				c0.7,0.7,1.9,1.8,2.6,2.2C67.3,47.8,68.3,46.7,68.7,46.3z"/>
			<path d="M86.6,57.2c0.2-0.1,0.2-0.1,0.2,0.1c0,1-0.4,2-0.9,2.3l-7.4,4.1c-0.1,0.1-0.2,0-0.2-0.1c0-0.5,0.2-1.4,0.4-1.8
				c0.2-0.3,0.5-0.6,1.2-1L86.6,57.2z"/>
			<path d="M71.7,54.9c-0.6-0.3-0.7-0.5-0.7-0.7c0-0.2,0.3-0.3,0.7-0.3c0.5,0,2,0.3,3.2,0.3c1.1,0,2.1-0.3,3.7-1.1
				c4.3-2.2,7-5.3,7-7.5c0-0.3,0-0.6-0.2-1.2h-1.3c-1,0-2.7-0.2-3.9-0.8C79,43,78.5,42,78.5,40.9c0-1,0.5-2.6,1.1-3.9
				c1-2.2,2.2-3.9,3.3-3.9c1.3,0,2.4,0.9,3.2,2.1c0.9,1.3,1.2,3.3,1.3,5.1h1.7c1.1,0,1.7,0.6,1.7,1.9c0,1.5-0.5,2.2-1.6,2.2
				l-1.9,0.1c-0.3,6.3-2.3,10.3-7.4,12.3c-0.3,0.1-0.7,0.2-1.1,0.2C77,56.8,74.1,55.9,71.7,54.9z M82.8,37.6c-0.2-0.2-0.5-0.4-1-0.4
				c-0.9,0-1.3,0.9-1.3,1.4c0,0.4,0.4,0.9,1.4,1.2c0.7,0.3,1.6,0.4,2.1,0.4c0.3,0,0.4,0,0.4-0.1C84.3,39.6,83.6,38.3,82.8,37.6z"/>
			<path d="M97.9,7.9c0.2-0.1,0.2-0.1,0.2,0.1c0,1-0.4,2-0.9,2.3l-7.4,4.1c-0.1,0.1-0.2,0-0.2-0.1c0-0.5,0.2-1.4,0.4-1.8
				c0.2-0.3,0.5-0.6,1.2-1L97.9,7.9z"/>
			<path d="M102.9,40.2c1.2,0,1.8,0.7,1.8,2c0,1.4-0.6,2.1-1.8,2.1h-0.5c-3.8,0-6.1-0.8-7.8-1.7c-1.4,0.9-3.4,1.7-5.8,1.7h-0.4
				c-1.1,0-1.7-0.7-1.7-2.1c0-1.3,0.6-2,1.7-2h0.4c1.6,0,2.6-0.2,3.1-0.7c-0.1-0.4-0.2-0.9-0.2-1.3c0-4.1,4.6-9.2,7.2-9.2
				c1.5,0,2.3,1.7,2.3,3.9c0,2.2-0.9,5-2.7,6.6c0.8,0.4,2.1,0.7,3.8,0.7H102.9z M98.3,20.2c0.2,0.1,0.1,0.2,0,0.3
				c-0.4,0.6-1.9,2.2-2.5,3c-0.1,0.2-0.2,0.2-0.4,0c-0.8-0.5-2.6-1.9-3.1-2.6c-0.1-0.2-0.1-0.2,0-0.4c0.6-0.9,1.6-2.1,2.3-2.8
				c0.3-0.3,0.4-0.4,0.5-0.2C95.8,18.3,97.1,19.4,98.3,20.2z M97.1,33.1c-1.5,0-2.9,1.6-2.9,2.2c0,0.9,0.7,1.6,2.2,2.5
				c0.5-0.2,2.6-1.7,2.6-2.4C98.9,34,98.5,33.1,97.1,33.1z"/>
			<path d="M113.3,13.8c-1.3,0-2-1.3-2-2.7c0-0.4,0.1-0.9,0.2-1.4c0.1-0.4,0.4-1.4,0.9-1.4c0.2,0,0.4,0.4,0.4,1v0.5
				c0,0.6,0.4,1,1.1,1h0.1c0.8,0,1.4-0.6,1.6-1.7c0.1-0.5,0.4-1.9,1.1-1.9c0.2,0,0.4,0.3,0.4,1c0,0.3,0.2,0.6,0.7,0.6
				c0.8,0,1.5-0.6,1.6-1.5c0.2-1.2,0.4-1.5,0.7-1.5c0.4,0,0.6,1.2,0.6,1.9c0,0.5-0.1,1.1-0.3,1.8c-0.4,1.2-1.2,2.1-2.7,2.1
				c-0.3,0-0.6-0.1-0.8-0.2c-0.1-0.1-0.2-0.1-0.4,0.2C115.5,12.9,114.7,13.8,113.3,13.8z M120.3,1.5c0.2-0.1,0.1,0.1,0.1,0.1
				c-0.1,0.7-0.4,1.5-0.9,2.1c-0.1,0.2-0.4,0.3-0.9,0.6l-7.1,3.3c-0.1,0-0.1,0-0.1-0.1c0-0.3,0.1-0.8,0.3-1.3
				c0.3-0.6,0.4-0.8,0.5-0.9c0.1-0.1,0.3-0.2,0.6-0.4L120.3,1.5z"/>
			<path d="M118.1,36.1c0.2,0,0.3,0.2,0.3,0.9c0,0.2,0,0.5,0,0.8c0,1.3,1,2,2.1,2c1.8,0,2.7-1.7,3.5-3.2c0.1-0.2,0.3-0.6,0.6-0.6
				c0.2,0,0.3,0.2,0.4,1.1c0.1,1.9,1.2,3,2.8,3.1h0.5c1.3,0,1.9,0.6,1.9,1.8c0,1.5-0.6,2.2-1.9,2.2h-0.5c-2.3,0-3.5-1.1-3.9-3.5
				c-0.6,1.7-2.1,3.5-4,3.5c-1.9,0-2.9-1.6-3.1-3.5c-0.7,2-2.8,3.4-4.8,3.4c-2.2,0-3.5-0.8-4.1-2.8c-0.3,0.8-0.8,1.4-1.5,2
				c-0.7,0.6-1.9,0.9-3.8,0.9h-0.4c-1.2,0-1.9-0.7-1.9-2.1c0-1.3,0.6-2,1.8-2h0.5c2.8,0,4.7-1,5.7-3.1c0.1-0.2,0.3-0.6,0.6-0.6
				c0.3,0,0.4,0.3,0.4,1c0.1,1.6,1.4,2.4,3.2,2.4c2.2,0,3.8-1,4.9-3.1C117.6,36.5,117.9,36.1,118.1,36.1z M119.6,26.2
				c0.3-0.3,0.4-0.4,0.6-0.2c0.9,0.9,1.8,1.9,2.8,2.5c0.3,0.2,0.3,0.3,0,0.6c-0.8,0.9-1.6,1.8-2.4,2.7c-0.2,0.2-0.3,0.2-0.5,0
				c-0.7-0.5-1.7-1.3-2.6-2.2c-0.5,0.6-1.6,1.8-2,2.1c-0.2,0.1-0.3,0.3-0.7,0.1c-0.9-0.6-2.1-1.5-2.8-2.5c-0.2-0.2-0.2-0.3,0-0.6
				c0.7-0.8,1.6-1.9,2.5-2.7c0.2-0.2,0.3-0.2,0.6,0.1c0.7,0.7,1.9,1.8,2.6,2.2C118.1,27.7,119.1,26.6,119.6,26.2z M120.2,20.3
				c0.2,0.1,0.1,0.2,0,0.3c-0.4,0.6-1.9,2.2-2.5,3c-0.1,0.2-0.2,0.2-0.4,0c-0.8-0.5-2.6-1.9-3.1-2.6c-0.1-0.2-0.1-0.2,0-0.4
				c0.6-0.9,1.6-2.1,2.3-2.8c0.3-0.3,0.4-0.4,0.5-0.2C117.6,18.3,118.9,19.5,120.2,20.3z"/>
			<path d="M132.1,42.4c-1,1.2-2.1,1.9-4.1,1.9h-0.4c-1.2,0-1.8-0.7-1.8-2.2c0-1.3,0.6-1.9,1.8-1.9h0.4c1,0,1.8-0.1,2.6-0.4
				c0.7-0.2,1.1-0.5,1.2-0.8c0-3.1-1.1-9.6-1.7-15.9c0-0.7-0.5-2.9-0.7-3.8c0-0.1,0-0.3,0-0.4c0-0.5,0.6-1.7,1-2.4
				c0.5-0.9,0.9-1.6,1.3-1.6c0.1,0,0.2,0.1,0.3,0.4c0.5,1.8,1.1,2.6,1.5,3.3c0.1,0.2,0.2,0.3,0.2,0.5c0,0.1,0,0.1,0,0.2
				c-0.1,0.4-0.7,1.5-1,1.9c0.3,6.1,1.3,11,1.3,14C133.9,38.2,133.3,40.6,132.1,42.4z"/>
			<path d="M155.6,55.9c0.2-0.1,0.2-0.1,0.2,0.1c0,1-0.4,2-0.9,2.3l-7.4,4.1c-0.1,0.1-0.2,0-0.2-0.1c0-0.5,0.2-1.4,0.4-1.8
				c0.2-0.3,0.5-0.6,1.2-1L155.6,55.9z"/>
			<path d="M154.3,51.7c0.2,0.1,0.1,0.2,0,0.3c-0.4,0.6-1.9,2.2-2.5,3c-0.1,0.2-0.2,0.2-0.4,0c-0.8-0.5-2.6-1.9-3.1-2.6
				c-0.1-0.2-0.1-0.2,0-0.4c0.6-0.9,1.6-2.1,2.3-2.8c0.3-0.3,0.4-0.4,0.5-0.2C151.8,49.7,153.1,50.9,154.3,51.7z"/>
			<path d="M140.1,31.2c-0.1-3.6-0.4-9.4-1-12.4c0-0.1,0-0.2,0-0.2c0-0.6,0.7-1.5,1.3-2.5c0.3-0.5,0.5-1,0.7-1
				c0.2,0,0.4,0.3,0.5,1.2c0.8,6.3,0.3,15,1.2,20.2c0.4,1.7,0.7,2.6,1.7,3.2c0.8,0.4,2.2,0.5,3.3,0.5c1.1,0,3.1-0.1,4.1-1.1
				c-0.1-1.6-1.3-3.5-1.9-4.3c0,0-0.1-0.1-0.1-0.2c0-0.4,0.9-2.5,1.3-3.3c0.1-0.1,0.1-0.2,0.2-0.2c0.2,0,0.5,0.3,0.8,0.8
				c0.9,1.5,1.3,3.4,1.3,5.5c0,1.7-0.2,3.5-1.5,4.9c-1.4,1.5-3.3,2.1-5.5,2.1c-1.4,0-3-0.3-4-1.4C140.9,41.2,140.4,39.2,140.1,31.2z
				"/>
			<path d="M175.8,46c0.2-0.1,0.2-0.1,0.2,0.1c0,1-0.4,2-0.9,2.3l-7.4,4.1c-0.1,0.1-0.2,0-0.2-0.1c0-0.5,0.2-1.4,0.4-1.8
				c0.2-0.3,0.5-0.6,1.2-1L175.8,46z"/>
			<path d="M173.7,17.2c0.3-0.3,0.4-0.4,0.6-0.2c0.9,0.9,1.8,1.9,2.8,2.5c0.3,0.2,0.3,0.3,0,0.6c-0.8,0.9-1.6,1.8-2.4,2.7
				c-0.2,0.2-0.3,0.2-0.5,0c-0.7-0.5-1.7-1.3-2.6-2.2c-0.5,0.6-1.6,1.8-2,2.1c-0.2,0.1-0.3,0.3-0.7,0.1c-0.9-0.6-2.1-1.5-2.8-2.5
				c-0.2-0.2-0.2-0.3,0-0.6c0.7-0.8,1.6-1.9,2.5-2.7c0.2-0.2,0.3-0.2,0.6,0.1c0.7,0.7,1.9,1.8,2.6,2.2
				C172.3,18.7,173.3,17.6,173.7,17.2z M179,39.3c0.9,0.6,1.6,0.8,2.1,0.8h0.6c1.2,0,1.9,0.6,1.9,1.9c0,1.5-0.7,2.2-2,2.2h-0.6
				c-1.4,0-2.7-0.5-4-1.6c-1.3-1.1-2.1-2.9-2.4-5.4c-0.4,0.6-0.7,1.3-1.5,1.8c-1.1,0.8-2.9,1.1-4.7,1.1c-1.3,0-2.5-0.2-2.5-1.2
				c0.6-4,1.1-4.6,3-6.2c0.8-0.7,3.2-2.1,4.2-2.8c0-0.4-0.1-0.7-0.1-1c0-0.9,0.2-1.4,0.7-2.2c0.3-0.5,0.5-0.9,0.7-0.9
				c0.2,0,0.3,0.3,0.4,1c0.6,3.7,0.9,6.7,1.4,8.5C176.7,37,177.7,38.4,179,39.3z M173.7,32c-1.7,1.1-4.5,2.8-4.6,3.3
				c0,0.3,0.5,0.4,1.3,0.4c1.1,0,2.7-0.3,3.9-0.9C174,33.9,173.9,33.4,173.7,32z"/>
			<path d="M190.7,15.4c0.2-0.1,0.2-0.1,0.2,0.1c0,1-0.4,2-0.9,2.3l-7.4,4.1c-0.1,0.1-0.2,0-0.2-0.1c0-0.5,0.2-1.4,0.4-1.8
				c0.2-0.3,0.5-0.6,1.2-1L190.7,15.4z"/>
			<path d="M189.7,37.7c0,1,1.1,2.2,2.4,2.4c0.3,0,0.6,0,0.9,0h0.2c1.5,0,1.5,1.2,1.5,1.8c0,0.5,0,2.2-1.5,2.2H193c-0.3,0-0.5,0-1,0
				c-2.7-0.3-3.7-2.7-3.9-3c-0.4,1.1-2.6,3-6.6,3h-0.2c-1.1,0-1.7-1-1.7-2c0-1,0.6-2.1,1.7-2.1h1.2c1.8,0,4.3-0.3,5.8-2.9
				c0.5-0.8,0.7-0.9,0.9-0.9C189.5,36.4,189.7,36.8,189.7,37.7z M191.2,27.2c0.2,0.1,0.1,0.2,0,0.3c-0.4,0.6-1.9,2.2-2.5,3
				c-0.1,0.2-0.2,0.2-0.4,0c-0.8-0.5-2.6-1.9-3.1-2.6c-0.1-0.2-0.1-0.2,0-0.4c0.6-0.9,1.6-2.1,2.3-2.8c0.3-0.3,0.4-0.4,0.5-0.2
				C188.7,25.3,190,26.4,191.2,27.2z"/>
			<path d="M204.6,47.5c0.2-0.1,0.2-0.1,0.2,0.1c0,1-0.4,2-0.9,2.3l-7.4,4.1c-0.1,0.1-0.2,0-0.2-0.1c0-0.5,0.2-1.4,0.4-1.8
				c0.2-0.3,0.5-0.6,1.2-1L204.6,47.5z"/>
			<path d="M213.7,15.9c0.1,0,0.2,0.1,0.2,0.2c0,0.6-0.9,2.3-1.2,2.9c-0.1,0.1-0.2,0.2-0.3,0.3c-1.2,0.4-10.5,4-14.6,6.9
				c4,2.1,7.9,6.8,7.9,9.7c0,2.8-0.8,4.9-2.4,6.3c-2.5,1.4-5.8,2.1-9.7,2.1H193c-0.7,0-1.2-0.9-1.2-2c0-1.1,0.5-2.1,1.2-2.1h0.4
				c5.4,0,9.7-1.2,10.6-2.1c-0.1-2.5-4.2-6.7-7.6-8.3c-0.5-0.2-0.9-0.5-1.2-0.9c-0.2-0.3-0.3-0.8-0.3-1.5c0-0.9,0.1-1.9,0.7-2.5
				c1.2-1.2,2.5-2.2,5.1-3.6c5.1-2.7,10.1-4.5,12.1-5.2C213.1,16,213.5,15.9,213.7,15.9z"/>
			<path d="M223.4,44.2c-1.2,0-2.2-0.2-3-0.9c-1.3-1-2-3-2.3-5.5c-0.3-1.9-0.4-4.2-0.5-6.6c-0.1-3.6-0.4-9.1-0.9-12.3
				c0-0.1,0-0.3,0-0.4c0-0.2,0-0.3,0.3-0.7c0.6-0.8,0.9-1.4,1.3-2.1c0.3-0.5,0.4-0.6,0.5-0.6c0.2,0,0.3,0.3,0.5,1.2
				c0.8,6.3,0.1,15,1.1,19.8c0.2,1.2,0.4,1.6,0.7,2.4c0.5,1.1,1.3,1.6,2.6,1.7c1.4,0,2.1,0.7,2.1,2c0,1.6-0.8,2.1-1.9,2.1H223.4z"/>
			<path d="M233.7,29.7c-1.3,0-2-1.3-2-2.7c0-0.4,0.1-0.9,0.2-1.4c0.1-0.4,0.4-1.4,0.9-1.4c0.2,0,0.4,0.4,0.4,1v0.5
				c0,0.6,0.4,1,1.1,1h0.1c0.8,0,1.4-0.6,1.6-1.7c0.1-0.5,0.4-1.9,1.1-1.9c0.2,0,0.4,0.3,0.4,1c0,0.3,0.2,0.6,0.7,0.6
				c0.8,0,1.5-0.6,1.6-1.5c0.2-1.2,0.4-1.5,0.7-1.5c0.4,0,0.6,1.2,0.6,1.9c0,0.5-0.1,1.1-0.3,1.8c-0.4,1.2-1.2,2.1-2.7,2.1
				c-0.3,0-0.6-0.1-0.8-0.2c-0.1-0.1-0.2-0.1-0.4,0.2C235.9,28.8,235.1,29.7,233.7,29.7z M240.7,17.3c0.2-0.1,0.1,0.1,0.1,0.1
				c-0.1,0.7-0.4,1.5-0.9,2.1c-0.1,0.2-0.4,0.3-0.9,0.6l-7.1,3.3c-0.1,0-0.1,0-0.1-0.1c0-0.3,0.1-0.8,0.3-1.3
				c0.3-0.6,0.4-0.8,0.5-0.9c0.1-0.1,0.3-0.2,0.6-0.4L240.7,17.3z"/>
			<path d="M239.2,36.1c0.2,0,0.3,0.2,0.3,0.9c0,0.2,0,0.5,0,0.8c0,1.3,1,2,2.1,2c1.8,0,2.7-1.7,3.5-3.2c0.1-0.2,0.3-0.6,0.6-0.6
				c0.2,0,0.3,0.2,0.4,1.1c0.1,1.9,1.2,3,2.8,3.1h0.5c1.3,0,1.9,0.6,1.9,1.8c0,1.5-0.6,2.2-1.9,2.2h-0.5c-2.3,0-3.5-1.1-3.9-3.5
				c-0.6,1.7-2.1,3.5-4,3.5c-1.9,0-2.9-1.6-3.1-3.5c-0.7,2-2.8,3.4-4.8,3.4c-2.2,0-3.5-0.8-4.1-2.8c-0.3,0.8-0.8,1.4-1.5,2
				c-0.7,0.6-1.9,0.9-3.8,0.9h-0.4c-1.2,0-1.9-0.7-1.9-2.1c0-1.3,0.6-2,1.8-2h0.5c2.8,0,4.7-1,5.7-3.1c0.1-0.2,0.3-0.6,0.6-0.6
				c0.3,0,0.4,0.3,0.4,1c0.1,1.6,1.4,2.4,3.2,2.4c2.2,0,3.8-1,4.9-3.1C238.7,36.5,239,36.1,239.2,36.1z"/>
			<path d="M253.2,42.4c-1,1.2-2.1,1.9-4.1,1.9h-0.4c-1.2,0-1.8-0.7-1.8-2.2c0-1.3,0.6-1.9,1.8-1.9h0.4c1,0,1.8-0.1,2.6-0.4
				c0.7-0.2,1.1-0.5,1.2-0.8c0-3.1-1.1-9.6-1.7-15.9c0-0.7-0.5-2.9-0.7-3.8c0-0.1,0-0.3,0-0.4c0-0.5,0.6-1.7,1-2.4
				c0.5-0.9,0.9-1.6,1.3-1.6c0.1,0,0.2,0.1,0.3,0.4c0.5,1.8,1,2.6,1.5,3.3c0.1,0.2,0.2,0.3,0.2,0.5c0,0.1,0,0.1,0,0.2
				c-0.1,0.4-0.7,1.5-1,1.9c0.3,6.1,1.3,11,1.3,14C255.1,38.2,254.4,40.6,253.2,42.4z"/>
			<path d="M263.3,44.3c-0.2,0-0.3-0.3-0.3-1.2c0-5.4-2-20.3-2-22.7c0-1.2,0.8-3.1,1.5-4.4c0.2-0.4,0.6-0.9,0.8-0.9
				c0.2,0,0.3,0.3,0.3,1.4c0.2,3.9,1.3,13,1.3,19.6c0,2.6-0.2,4.9-0.6,6.2C263.9,43.6,263.6,44.3,263.3,44.3z"/>
			<path d="M292.2,63.8c0.2-0.1,0.2-0.1,0.2,0.1c0,1-0.4,2-0.9,2.3l-7.4,4.1c-0.1,0.1-0.2,0-0.2-0.1c0-0.5,0.2-1.4,0.4-1.8
				c0.2-0.3,0.5-0.6,1.2-1L292.2,63.8z"/>
			<path d="M297.7,52.1c0.3-0.3,0.4-0.4,0.6-0.2c0.9,0.9,1.8,1.9,2.8,2.5c0.3,0.2,0.3,0.3,0,0.6c-0.8,0.9-1.6,1.8-2.4,2.7
				c-0.2,0.2-0.3,0.2-0.5,0c-0.7-0.5-1.7-1.3-2.6-2.2c-0.5,0.6-1.6,1.8-2,2.1c-0.2,0.1-0.3,0.3-0.7,0.1c-0.9-0.6-2.1-1.5-2.8-2.5
				c-0.2-0.2-0.2-0.3,0-0.6c0.7-0.8,1.6-1.9,2.5-2.7c0.2-0.2,0.3-0.2,0.6,0.1c0.7,0.7,1.9,1.8,2.6,2.2
				C296.3,53.7,297.2,52.6,297.7,52.1z"/>
			<path d="M292.5,46.5c0.1,0.2,0,0.4-0.1,0.8c-0.6,1.5-1.1,2.4-1.5,2.9c-0.1,0.1-0.2,0.2-0.4,0.1c-0.9-0.4-2.1-0.6-3.9-0.7
				c-3.1,0-4.9,0.5-5.6,1.5c0.4,2.2,0.7,3.7,0.8,4.6l0.7,3.8c0.3,2,0.5,3.9,0.6,5.5c0,1.7-0.1,3.4-0.8,5.1c-0.2,0.6-0.5,1-0.8,1
				c-0.2,0-0.2-0.3-0.1-0.8c0.1-0.6,0.1-1.2,0.1-2.1c0-1.6-0.3-3.7-1.1-8.1c-0.6-3.3-1-5.3-1.1-6.2c0-1.8,0.4-3.4,1.2-5
				c0.8-1.5,1.9-2.6,3.3-3.3l1.2-2.8c0.9-2.1,2.3-3.5,3.8-4.5c1.5-1,3.7-1.9,5.5-1.9c0.5,0,1,0.1,1.5,0.4c0.5,0.3,1,0.9,1.7,1.9
				c0.7,1,1.4,1.5,2.2,1.5h0.6c1.1,0,1.7,0.6,1.7,1.9c0,1.5-0.6,2.2-1.7,2.2h-0.6c-1.3,0-2.5-0.6-3.5-1.8c-0.8-0.9-1.5-1.6-2.1-1.8
				c-0.3-0.1-0.6-0.2-1.6-0.2c-1.9,0-3.7,0.7-5.3,2.1c1.6,0.7,2.8,1.4,3.8,2.2C291.8,45.4,292.3,46,292.5,46.5z"/>
			<path d="M304.8,5c1.2,0,3,1.7,3,3.7c0,0.7-0.1,1.4-0.3,2.1c-0.5,1.4-1.7,2.2-3.2,2.2c-1.4,0-2.4-1.1-2.4-2.4
				C301.9,9,303.9,5,304.8,5z M304.4,7.9c-0.5,0-1.3,1.1-1.3,1.7c0,0.5,0.7,1,1.4,1c0.9,0,2-0.5,2-0.9
				C306.5,9.4,305.4,7.9,304.4,7.9z"/>
			<path d="M307.5,35.8c0.2,1,0.7,1.6,1.3,2.1c0.6,0.4,1.2,0.7,1.9,1c0.7,0.3,1.2,0.6,1.5,0.7c0.4,0.2,0.5,1.4,0.5,2.1
				c0,0.8-0.2,1.9-0.7,2.5c-0.1,0.1-0.3,0.2-0.4,0.1c-2.4-1.2-4.2-2-5.3-2c-0.9,0-1.6,0.3-2.8,0.9c-1.1,0.6-2.3,1-3.6,1h-0.4
				c-1.1,0-1.6-0.7-1.6-2c0-1.4,0.5-2.1,1.6-2.1h0.4c1.6,0,3.4-0.5,5.5-1.4c-0.1-0.4-0.2-1.3-0.4-2.8c-0.2-1.5-0.7-7.3-1.3-14.3
				c-0.1-0.7-0.3-1.8-0.5-2.5c0-0.1,0-0.3,0-0.5c0-0.1,0-0.2,0-0.3c0.1-0.2,0.2-0.6,0.7-1.5c0.5-0.9,1.1-1.9,1.4-1.9
				c0.1,0,0.2,0.1,0.3,0.4c0.5,1.6,0.9,2.6,1.3,3.2c0.1,0.1,0.1,0.3,0.1,0.4c0,0.1,0,0.2-0.1,0.4c-0.1,0.4-0.7,1.6-1.1,2.1
				C306.7,29.9,307.3,34.9,307.5,35.8z"/>
			<path d="M319.7,44.3c-0.2,0-0.3-0.3-0.3-1.2c0-5.4-2-20.3-2-22.7c0-1.2,0.8-3.1,1.5-4.4c0.2-0.4,0.6-0.9,0.8-0.9
				c0.2,0,0.3,0.3,0.3,1.4c0.2,3.9,1.3,13,1.3,19.6c0,2.6-0.2,4.9-0.6,6.2C320.4,43.6,320.1,44.3,319.7,44.3z"/>
			<path d="M350.1,46.2c0.2-0.1,0.2-0.1,0.2,0.1c0,1-0.4,2-0.9,2.3l-7.4,4.1c-0.1,0.1-0.2,0-0.2-0.1c0-0.5,0.2-1.4,0.4-1.8
				c0.2-0.3,0.5-0.6,1.2-1L350.1,46.2z"/>
			<path d="M349.7,35.7c-0.2,1.2-0.8,2.9-1.5,3.7c-0.1,0.1-0.2,0.2-0.3,0.2c0,0-0.2,0-0.2,0c-0.5-0.1-1.3-0.3-2.7-0.3
				c-2.9,0-6.4,0.7-6.6,1.8c0,1.5,1.7,7.1,1.7,14.2c0,0.6,0,1.3,0,2c-0.2,3-1.1,4.8-1.5,4.8c-0.2,0-0.3-0.3-0.3-1c0-0.5,0-1.1,0-1.9
				c0-4.1-0.9-9-1.7-13.5c-0.2-1.3-0.3-2.4-0.3-3.3c0-3.4,1.3-4.6,2-5.3c0-0.2,0-0.4,0-0.6c0-2.7,1.7-7,4.2-7c3.2,0,5.6,3.7,7.2,5.9
				C349.7,35.4,349.7,35.5,349.7,35.7z M341.6,34c-1.1,0-1.5,1.2-1.7,2.1c1.1-0.7,3.1-0.9,4.1-1C343.3,34.4,342.6,34,341.6,34z"/>
			<path d="M358.2,43.3c-1-0.8-1.6-1.7-2.2-3.5c-0.6-1.9-1.2-7.7-1.7-17.5c-0.1-1.7-0.2-2.7-0.4-3.8c0-0.1,0-0.2,0-0.4
				c0.4-1.2,1.6-3.5,2-3.5c0.3,0,0.3,0.8,0.3,1.1c0.1,1.1,0.2,3.1,0.4,5.2c0.1,1.2,0.2,3.6,0.4,6.3l0.4-1.5c0.2-1,0.9-1.9,2-2.8
				c1.8-1.4,4.3-3.1,7.6-5c3.3-1.9,5.9-3.2,7.7-4c0.8-0.3,0.9-0.2,0.6,0.7c-0.2,0.6-0.7,1.7-1.5,2.9c-0.1,0.2-0.2,0.2-0.4,0.4
				c-1.7,0.8-4.2,2.1-7.4,4c-3.3,2-5.8,3.6-7.5,4.9c4.6,2.4,8.9,5.6,12.9,9.6c1.4,1.5,2.5,2.5,3.3,3c0.8,0.5,1.5,0.8,2.2,0.8h0.5
				c0.1,0,1.3,0,1.3,2.1c0,2-1.2,2-1.3,2h-0.5c-1.4,0-2.7-0.5-3.9-1.4c-1.2-1-2.8-2.4-4.7-4.4c-0.2,1.2-0.6,2.4-1.1,3.3
				c-0.9,1.4-2.9,2.4-5.9,2.4C359.9,44.2,359,43.9,358.2,43.3z M360.3,39.9c0.3,0.1,0.8,0.1,1.3,0.1c1.6,0,3.4-0.5,4.7-1.6
				c0.1-0.1,0.1-0.3,0-0.7c-0.2-0.8-0.9-1.7-2.1-2.7c-1.5-1.3-3.6-2.6-6.3-3.8c-0.3-0.2-0.6-0.4-0.9-0.8c0.3,2.9,0.5,5.5,1.1,7.1
				C358.7,38.8,359.4,39.6,360.3,39.9z"/>
			<path d="M382.3,34.8c-0.4,0-0.8,0-1.1,0.2c-0.3,0.1-1,0.5-1.4,0.5c-0.3,0-0.3-0.2-0.3-0.4c0-0.8,1.1-2.3,2.1-3.2
				c0.9-0.8,1.7-1,2.5-1c0.3,0,0.6,0,0.8,0.1c3.2,0.7,7.4,2.5,10.6,3.1c2.2,0.5,4.6,0.7,6.1,0.7c0.3,0,0.6,0,0.8,0
				c0.1,0,0.1,0,0.1,0.1c0,0.7-1.2,2.7-2,3.4c-0.1,0.1-0.5,0.1-1,0.1c-0.9,0-2.9-0.1-3.4-0.1c-1.6,0-2.9,0.1-4,0.5
				c-0.8,0.3-2.1,0.8-4.1,1.7c-3,1.5-5.1,2.5-6.4,3c-1.3,0.5-2.8,0.8-4.4,0.9h-0.5c-1.3,0-2-0.7-2-2.1c0-1.3,0.7-1.9,2-1.9h0.5
				c2.4,0,4.5-0.2,6.2-0.8c1.7-0.5,4.1-1.3,7.1-2.6C387.1,35.8,384.2,34.8,382.3,34.8z"/>
			<path d="M412.2,11.3c-1.5,0.8-4.7,2.7-7.2,4.5c-0.1,0-0.1,0.1-0.2,0.1s-0.1,0-0.1-0.1c0-0.2,0.1-0.6,0.4-1.2
				c0.1-0.3,0.9-1.1,1.5-1.6c0.1-0.1,0.2-0.1,0.2-0.2c0,0-0.1-0.1-0.2-0.2c-1-0.4-1.5-0.7-1.7-1.7c0-0.1,0-0.2,0-0.3
				c0-1.7,1.7-4,3.3-5.2c0.6-0.5,1.2-0.7,1.8-0.7c1,0,1.4,0.5,1.4,1.3c0,0.5-0.1,1-0.4,1.7c-0.2,0.4-0.3,0.7-0.5,0.7
				c-0.1,0-0.3-0.1-0.5-0.3c-0.2-0.2-0.5-0.5-1-0.5c-1.4,0-2.3,0.8-2.3,1.2c0,0.6,2.3,1.5,3.2,1.5c0.1,0,0.2,0,0.2,0
				c0.4-0.1,2-0.7,2.6-1.1c0.3-0.2,0.5-0.3,0.6-0.3c0.1,0,0.1,0,0.1,0.2c0,0.1-0.1,0.4-0.2,0.8C412.8,10.9,412.5,11.1,412.2,11.3z
				 M409.6,44.3c-0.2,0-0.3-0.3-0.3-1.2c0-5.4-2-20.3-2-22.7c0-1.2,0.8-3.1,1.5-4.4c0.2-0.4,0.6-0.9,0.8-0.9c0.2,0,0.3,0.3,0.3,1.4
				c0.2,3.9,1.3,13,1.3,19.6c0,2.6-0.2,4.9-0.6,6.2C410.2,43.6,409.9,44.3,409.6,44.3z"/>
			<path d="M433.9,4.1c0,0.9-0.2,1.8-0.5,2.6c0.4,0.2,0.6,0.5,0.6,0.7c0,0.7-0.3,1.3-0.6,1.8c-0.1,0.1-0.1,0.1-0.2,0.1l-0.9-0.6
				c-0.9,1.4-2.3,3.1-4.4,4.1c-0.8,0.4-1.7,0.7-2.6,0.7c-0.5,0-0.7-0.1-0.7-0.2c0-0.2,0.4-0.3,1-0.7c1.5-0.9,4.5-3.1,5.5-4.5
				c-0.8-0.6-1.9-1.3-1.9-2.4c0-0.8,0.4-1.5,1-2.3c0.7-1,1.5-1.4,2.2-1.4C433.5,1.9,433.9,3.1,433.9,4.1z M430.7,4.9
				c0,0,0,0.1,0,0.1c0,0.2,0.8,0.8,1.4,1c0.2-0.3,0.2-0.6,0.2-1.2c0-0.5-0.2-0.8-0.6-0.8C431.4,4.1,430.9,4.4,430.7,4.9z"/>
			<path d="M433,17.2c0.3-0.3,0.4-0.4,0.6-0.2c0.9,0.9,1.8,1.9,2.8,2.5c0.3,0.2,0.3,0.3,0,0.6c-0.8,0.9-1.6,1.8-2.4,2.7
				c-0.2,0.2-0.3,0.2-0.5,0c-0.7-0.5-1.7-1.3-2.6-2.2c-0.5,0.6-1.6,1.8-2,2.1c-0.2,0.1-0.3,0.3-0.7,0.1c-0.9-0.6-2.1-1.5-2.8-2.5
				c-0.2-0.2-0.2-0.3,0-0.6c0.7-0.8,1.6-1.9,2.5-2.7c0.2-0.2,0.3-0.2,0.6,0.1c0.7,0.7,1.9,1.8,2.6,2.2
				C431.6,18.7,432.6,17.6,433,17.2z M438.3,39.3c0.9,0.6,1.6,0.8,2.1,0.8h0.6c1.2,0,1.9,0.6,1.9,1.9c0,1.5-0.7,2.2-2,2.2h-0.6
				c-1.4,0-2.7-0.5-4-1.6c-1.3-1.1-2.1-2.9-2.4-5.4c-0.4,0.6-0.7,1.3-1.5,1.8c-1.1,0.8-2.9,1.1-4.7,1.1c-1.3,0-2.5-0.2-2.5-1.2
				c0.6-4,1.1-4.6,3-6.2c0.8-0.7,3.2-2.1,4.2-2.8c0-0.4-0.1-0.7-0.1-1c0-0.9,0.2-1.4,0.7-2.2c0.3-0.5,0.5-0.9,0.7-0.9
				c0.2,0,0.3,0.3,0.4,1c0.6,3.7,0.9,6.7,1.4,8.5C436,37,437,38.4,438.3,39.3z M433,32c-1.7,1.1-4.5,2.8-4.6,3.3
				c0,0.3,0.5,0.4,1.3,0.4c1.1,0,2.7-0.3,3.9-0.9C433.3,33.9,433.2,33.4,433,32z"/>
			<path d="M450.8,23.7c0.2-0.1,0.2-0.1,0.2,0.1c0,1-0.4,2-0.9,2.3l-7.4,4.1c-0.1,0.1-0.2,0-0.2-0.1c0-0.5,0.2-1.4,0.4-1.8
				c0.2-0.3,0.5-0.6,1.2-1L450.8,23.7z"/>
			<path d="M449,37.7c0,1,1.1,2.2,2.4,2.4c0.3,0,0.6,0,0.9,0h0.2c1.5,0,1.5,1.2,1.5,1.8c0,0.5,0,2.2-1.5,2.2h-0.3c-0.3,0-0.5,0-1,0
				c-2.7-0.3-3.7-2.7-3.9-3c-0.4,1.1-2.6,3-6.6,3h-0.2c-1.1,0-1.7-1-1.7-2c0-1,0.6-2.1,1.7-2.1h1.2c1.8,0,4.3-0.3,5.8-2.9
				c0.5-0.8,0.7-0.9,0.9-0.9C448.9,36.4,449,36.8,449,37.7z M448.8,49.7c0.3-0.3,0.4-0.4,0.6-0.2c0.9,0.9,1.8,1.9,2.8,2.5
				c0.3,0.2,0.3,0.3,0,0.6c-0.8,0.9-1.6,1.8-2.4,2.7c-0.2,0.2-0.3,0.2-0.5,0c-0.7-0.5-1.7-1.3-2.6-2.2c-0.5,0.6-1.6,1.8-2,2.1
				c-0.2,0.1-0.3,0.3-0.7,0.1c-0.9-0.6-2.1-1.5-2.8-2.5c-0.2-0.2-0.2-0.3,0-0.6c0.7-0.8,1.6-1.9,2.5-2.7c0.2-0.2,0.3-0.2,0.6,0.1
				c0.7,0.7,1.9,1.8,2.6,2.2C447.3,51.2,448.3,50.1,448.8,49.7z"/>
			<path d="M466.4,49.6c0.2-0.1,0.2-0.1,0.2,0.1c0,1-0.4,2-0.9,2.3l-7.4,4.1c-0.1,0.1-0.2,0-0.2-0.1c0-0.5,0.2-1.4,0.4-1.8
				c0.2-0.3,0.5-0.6,1.2-1L466.4,49.6z"/>
			<path d="M452.8,44.2h-0.3c-1.1,0-1.7-0.7-1.7-2c0-1.4,0.6-2.1,1.7-2.1h0.3c2.9,0,4.8-1.4,6.2-2.8c1.4-1.4,2.4-2.9,3.4-2.9
				c0.3,0,0.7,0.1,1,0.5c1.7,1.7,5.1,5.2,6.8,5.2h0.2c1.2,0,1.9,0.6,1.9,1.9c0,1.4-0.6,2.2-1.9,2.2h-0.2c-1.6,0-3.2-1.1-3.5-1.4
				c-0.3,1.2-1.7,2.7-2.4,2.7c-0.6,0-5.9-1.6-7.5-3.9C456.5,43.2,454.5,44.2,452.8,44.2z M463.2,39c-0.6-0.6-1.3-1.1-1.9-1.1
				c-0.4,0-0.5,0.1-1,0.5c-0.3,0.3-0.5,0.5-0.5,0.7c0,0.3,0.5,0.6,2.1,1.3c0.7,0.3,2.3,1,2.7,1c0.2,0,0.2-0.1,0.2-0.2
				C464.9,40.9,463.7,39.6,463.2,39z"/>
			<path d="M484.1,21.2c1.2,0,3,1.7,3,3.7c0,0.7-0.1,1.4-0.3,2.1c-0.5,1.4-1.7,2.2-3.2,2.2c-1.4,0-2.4-1.1-2.4-2.4
				C481.1,25.1,483.2,21.2,484.1,21.2z M483.7,24c-0.5,0-1.3,1.1-1.3,1.7c0,0.5,0.7,1,1.4,1c0.9,0,2-0.5,2-0.9
				C485.8,25.5,484.7,24,483.7,24z"/>
			<path d="M486.2,36.1c0.2,0,0.3,0.2,0.3,0.9c0,0.2,0,0.5,0,0.8c0,1.3,1,2,2.1,2c1.8,0,2.7-1.7,3.5-3.2c0.1-0.2,0.3-0.6,0.6-0.6
				c0.2,0,0.3,0.2,0.4,1.1c0.1,1.9,1.2,3,2.8,3.1h0.5c1.3,0,1.9,0.6,1.9,1.8c0,1.5-0.6,2.2-1.9,2.2h-0.5c-2.3,0-3.5-1.1-3.9-3.5
				c-0.6,1.7-2.1,3.5-4,3.5c-1.9,0-2.9-1.6-3.1-3.5c-0.7,2-2.8,3.4-4.8,3.4c-2.2,0-3.5-0.8-4.1-2.8c-0.3,0.8-0.8,1.4-1.5,2
				c-0.7,0.6-1.9,0.9-3.8,0.9h-0.4c-1.2,0-1.9-0.7-1.9-2.1c0-1.3,0.6-2,1.8-2h0.5c2.8,0,4.7-1,5.7-3.1c0.1-0.2,0.3-0.6,0.6-0.6
				c0.3,0,0.4,0.3,0.4,1c0.1,1.6,1.4,2.4,3.2,2.4c2.2,0,3.8-1,4.9-3.1C485.7,36.5,485.9,36.1,486.2,36.1z"/>
			<path d="M501.4,9.3c0.2-0.1,0.2-0.1,0.2,0.1c0,1-0.4,2-0.9,2.3l-7.4,4.1c-0.1,0.1-0.2,0-0.2-0.1c0-0.5,0.2-1.4,0.4-1.8
				c0.2-0.3,0.5-0.6,1.2-1L501.4,9.3z"/>
			<path d="M499.5,18c0.3-0.3,0.4-0.4,0.6-0.2c0.9,0.9,1.8,1.9,2.8,2.5c0.3,0.2,0.3,0.3,0,0.6c-0.8,0.9-1.6,1.8-2.4,2.7
				c-0.2,0.2-0.3,0.2-0.5,0c-0.7-0.5-1.7-1.3-2.6-2.2c-0.5,0.6-1.6,1.8-2,2.1c-0.2,0.1-0.3,0.3-0.7,0.1c-0.9-0.6-2.1-1.5-2.8-2.5
				c-0.2-0.2-0.2-0.3,0-0.6c0.7-0.8,1.6-1.9,2.5-2.7c0.2-0.2,0.3-0.2,0.6,0.1c0.7,0.7,1.9,1.8,2.6,2.2C498.1,19.5,499,18.4,499.5,18
				z M500.7,40.9c-0.7,1.6-1.5,3.3-4.7,3.3c-1.5,0-2.2-0.9-2.2-2.1c0-1,0.6-2,2.2-2h0c0.9,0,3.3-1.4,3.3-2.9v-0.1
				c-0.2-3.1-1.3-4.2-2.8-6.8c-0.1-0.1-0.1-0.3-0.1-0.5c0-0.5,0.4-2.1,1-3.2c0.2-0.3,0.3-0.4,0.5-0.4c0.1,0,0.2,0,0.3,0.1
				c2.4,2.3,3.2,6.9,3.2,10.1C501.4,38,501.1,39.9,500.7,40.9z"/>
		</g>
		<g>
			<g>
				<path class="st1" d="M53.9,44.5c0.2-0.1,0.2-0.1,0.2,0.1c0,1-0.4,2-0.9,2.3l-7.4,4.1c-0.1,0.1-0.2,0-0.2-0.1
					c0-0.5,0.2-1.4,0.4-1.8c0.2-0.3,0.5-0.6,1.2-1L53.9,44.5z"/>
				<path class="st1" d="M51.8,15.7c0.3-0.3,0.4-0.4,0.6-0.2c0.9,0.9,1.8,1.9,2.8,2.5c0.3,0.2,0.3,0.3,0,0.6
					c-0.8,0.9-1.6,1.8-2.4,2.7c-0.2,0.2-0.3,0.2-0.5,0c-0.7-0.5-1.7-1.3-2.6-2.2c-0.5,0.6-1.6,1.8-2,2.1c-0.2,0.1-0.3,0.3-0.7,0.1
					c-0.9-0.6-2.1-1.5-2.8-2.5c-0.2-0.2-0.2-0.3,0-0.6c0.7-0.8,1.6-1.9,2.5-2.7c0.2-0.2,0.3-0.2,0.6,0.1c0.7,0.7,1.9,1.8,2.6,2.2
					C50.4,17.3,51.4,16.1,51.8,15.7z M57.1,37.9c0.9,0.6,1.6,0.8,2.1,0.8h0.6c1.2,0,1.9,0.6,1.9,1.9c0,1.5-0.7,2.2-2,2.2h-0.6
					c-1.4,0-2.7-0.5-4-1.6c-1.3-1.1-2.1-2.9-2.4-5.4c-0.4,0.6-0.7,1.3-1.5,1.8c-1.1,0.8-2.9,1.1-4.7,1.1c-1.3,0-2.5-0.2-2.5-1.2
					c0.6-4,1.1-4.6,3-6.2c0.8-0.7,3.2-2.1,4.2-2.8c0-0.4-0.1-0.7-0.1-1c0-0.9,0.2-1.4,0.7-2.2c0.3-0.5,0.5-0.9,0.7-0.9
					c0.2,0,0.3,0.3,0.4,1c0.6,3.7,0.9,6.7,1.4,8.5C54.8,35.6,55.8,36.9,57.1,37.9z M51.8,30.6c-1.7,1.1-4.5,2.8-4.6,3.3
					c0,0.3,0.5,0.4,1.3,0.4c1.1,0,2.7-0.3,3.9-0.9C52.1,32.4,52,32,51.8,30.6z"/>
				<path class="st1" d="M60.7,26c-1.3,0-2-1.3-2-2.7c0-0.4,0.1-0.9,0.2-1.4c0.1-0.4,0.4-1.4,0.9-1.4c0.2,0,0.4,0.4,0.4,1V22
					c0,0.6,0.4,1,1.1,1h0.1c0.8,0,1.4-0.6,1.6-1.7c0.1-0.5,0.4-1.9,1.1-1.9c0.2,0,0.4,0.3,0.4,1c0,0.3,0.2,0.6,0.7,0.6
					c0.8,0,1.5-0.6,1.6-1.5c0.2-1.2,0.4-1.5,0.7-1.5c0.4,0,0.6,1.2,0.6,1.9c0,0.5-0.1,1.1-0.3,1.8c-0.4,1.2-1.2,2.1-2.7,2.1
					c-0.3,0-0.6-0.1-0.8-0.2c-0.1-0.1-0.2-0.1-0.4,0.2C62.9,25.1,62.1,26,60.7,26z M67.7,13.7c0.2-0.1,0.1,0.1,0.1,0.1
					c-0.1,0.7-0.4,1.5-0.9,2.1c-0.1,0.2-0.4,0.3-0.9,0.6L59,19.8c-0.1,0-0.1,0-0.1-0.1c0-0.3,0.1-0.8,0.3-1.3
					c0.3-0.6,0.4-0.8,0.5-0.9c0.1-0.1,0.3-0.2,0.6-0.4L67.7,13.7z"/>
				<path class="st1" d="M66.3,40.3c-0.8,1.1-2.1,2-4.6,2.4c-0.7,0.1-1.7,0.1-2.5,0.1c-1.1,0-1.7-1-1.7-2c0-1,0.6-2.1,1.7-2.1h1
					c1.8,0,4.7-0.1,5.7-1.1c-0.1-1.6-1.3-3.6-1.9-4.4c0,0,0-0.1,0-0.1c0-0.7,1.2-3.2,1.2-3.4c0-0.1,0.1-0.2,0.2-0.2
					c0.6,0,2.1,2.9,2.1,6.3C67.4,37.3,67.3,38.9,66.3,40.3z M67.3,44.8c0.3-0.3,0.4-0.4,0.6-0.2c0.9,0.9,1.8,1.9,2.8,2.5
					c0.3,0.2,0.3,0.3,0,0.6c-0.8,0.9-1.6,1.8-2.4,2.7c-0.2,0.2-0.3,0.2-0.5,0C67,50,66,49.2,65.1,48.3c-0.5,0.6-1.6,1.8-2,2.1
					c-0.2,0.1-0.3,0.3-0.7,0.1c-0.9-0.6-2.1-1.5-2.8-2.5c-0.2-0.2-0.2-0.3,0-0.6c0.7-0.8,1.6-1.9,2.5-2.7c0.2-0.2,0.3-0.2,0.6,0.1
					c0.7,0.7,1.9,1.8,2.6,2.2C65.8,46.4,66.8,45.3,67.3,44.8z"/>
				<path class="st1" d="M85.1,55.8c0.2-0.1,0.2-0.1,0.2,0.1c0,1-0.4,2-0.9,2.3l-7.4,4.1c-0.1,0.1-0.2,0-0.2-0.1
					c0-0.5,0.2-1.4,0.4-1.8c0.2-0.3,0.5-0.6,1.2-1L85.1,55.8z"/>
				<path class="st1" d="M70.2,53.4c-0.6-0.3-0.7-0.5-0.7-0.7c0-0.2,0.3-0.3,0.7-0.3c0.5,0,2,0.3,3.2,0.3c1.1,0,2.1-0.3,3.7-1.1
					c4.3-2.2,7-5.3,7-7.5c0-0.3,0-0.6-0.2-1.2h-1.3c-1,0-2.7-0.2-3.9-0.8c-1.2-0.7-1.7-1.6-1.7-2.7c0-1,0.5-2.6,1.1-3.9
					c1-2.2,2.2-3.9,3.3-3.9c1.3,0,2.4,0.9,3.2,2.1c0.9,1.3,1.2,3.3,1.3,5.1h1.7c1.1,0,1.7,0.6,1.7,1.9c0,1.5-0.5,2.2-1.6,2.2
					l-1.9,0.1c-0.3,6.3-2.3,10.3-7.4,12.3c-0.3,0.1-0.7,0.2-1.1,0.2C75.6,55.3,72.6,54.5,70.2,53.4z M81.4,36.2
					c-0.2-0.2-0.5-0.4-1-0.4c-0.9,0-1.3,0.9-1.3,1.4c0,0.4,0.4,0.9,1.4,1.2c0.7,0.3,1.6,0.4,2.1,0.4c0.3,0,0.4,0,0.4-0.1
					C82.9,38.2,82.2,36.8,81.4,36.2z"/>
				<path class="st1" d="M96.4,6.4c0.2-0.1,0.2-0.1,0.2,0.1c0,1-0.4,2-0.9,2.3L88.4,13c-0.1,0.1-0.2,0-0.2-0.1
					c0-0.5,0.2-1.4,0.4-1.8c0.2-0.3,0.5-0.6,1.2-1L96.4,6.4z"/>
				<path class="st1" d="M101.4,38.7c1.2,0,1.8,0.7,1.8,2c0,1.4-0.6,2.1-1.8,2.1h-0.5c-3.8,0-6.1-0.8-7.8-1.7
					c-1.4,0.9-3.4,1.7-5.8,1.7H87c-1.1,0-1.7-0.7-1.7-2.1c0-1.3,0.6-2,1.7-2h0.4c1.6,0,2.6-0.2,3.1-0.7c-0.1-0.4-0.2-0.9-0.2-1.3
					c0-4.1,4.6-9.2,7.2-9.2c1.5,0,2.3,1.7,2.3,3.9c0,2.2-0.9,5-2.7,6.6c0.8,0.4,2.1,0.7,3.8,0.7H101.4z M96.9,18.8
					c0.2,0.1,0.1,0.2,0,0.3c-0.4,0.6-1.9,2.2-2.5,3c-0.1,0.2-0.2,0.2-0.4,0c-0.8-0.5-2.6-1.9-3.1-2.6c-0.1-0.2-0.1-0.2,0-0.4
					c0.6-0.9,1.6-2.1,2.3-2.8c0.3-0.3,0.4-0.4,0.5-0.2C94.3,16.8,95.6,18,96.9,18.8z M95.7,31.6c-1.5,0-2.9,1.6-2.9,2.2
					c0,0.9,0.7,1.6,2.2,2.5c0.5-0.2,2.6-1.7,2.6-2.4C97.5,32.5,97,31.6,95.7,31.6z"/>
				<path class="st1" d="M111.9,12.3c-1.3,0-2-1.3-2-2.7c0-0.4,0.1-0.9,0.2-1.4c0.1-0.4,0.4-1.4,0.9-1.4c0.2,0,0.4,0.4,0.4,1v0.5
					c0,0.6,0.4,1,1.1,1h0.1c0.8,0,1.4-0.6,1.6-1.7c0.1-0.5,0.4-1.9,1.1-1.9c0.2,0,0.4,0.3,0.4,1c0,0.3,0.2,0.6,0.7,0.6
					c0.8,0,1.5-0.6,1.6-1.5c0.2-1.2,0.4-1.5,0.7-1.5c0.4,0,0.6,1.2,0.6,1.9c0,0.5-0.1,1.1-0.3,1.8c-0.4,1.2-1.2,2.1-2.7,2.1
					c-0.3,0-0.6-0.1-0.8-0.2c-0.1-0.1-0.2-0.1-0.4,0.2C114.1,11.4,113.2,12.3,111.9,12.3z M118.8,0c0.2-0.1,0.1,0.1,0.1,0.1
					c-0.1,0.7-0.4,1.5-0.9,2.1c-0.1,0.2-0.4,0.3-0.9,0.6l-7.1,3.3c-0.1,0-0.1,0-0.1-0.1c0-0.3,0.1-0.8,0.3-1.3
					c0.3-0.6,0.4-0.8,0.5-0.9c0.1-0.1,0.3-0.2,0.6-0.4L118.8,0z"/>
				<path class="st1" d="M116.7,34.6c0.2,0,0.3,0.2,0.3,0.9c0,0.2,0,0.5,0,0.8c0,1.3,1,2,2.1,2c1.8,0,2.7-1.7,3.5-3.2
					c0.1-0.2,0.3-0.6,0.6-0.6c0.2,0,0.3,0.2,0.4,1.1c0.1,1.9,1.2,3,2.8,3.1h0.5c1.3,0,1.9,0.6,1.9,1.8c0,1.5-0.6,2.2-1.9,2.2h-0.5
					c-2.3,0-3.5-1.1-3.9-3.5c-0.6,1.7-2.1,3.5-4,3.5c-1.9,0-2.9-1.6-3.1-3.5c-0.7,2-2.8,3.4-4.8,3.4c-2.2,0-3.5-0.8-4.1-2.8
					c-0.3,0.8-0.8,1.4-1.5,2c-0.7,0.6-1.9,0.9-3.8,0.9h-0.4c-1.2,0-1.9-0.7-1.9-2.1c0-1.3,0.6-2,1.8-2h0.5c2.8,0,4.7-1,5.7-3.1
					c0.1-0.2,0.3-0.6,0.6-0.6c0.3,0,0.4,0.3,0.4,1c0.1,1.6,1.4,2.4,3.2,2.4c2.2,0,3.8-1,4.9-3.1C116.2,35,116.4,34.6,116.7,34.6z
					 M118.1,24.7c0.3-0.3,0.4-0.4,0.6-0.2c0.9,0.9,1.8,1.9,2.8,2.5c0.3,0.2,0.3,0.3,0,0.6c-0.8,0.9-1.6,1.8-2.4,2.7
					c-0.2,0.2-0.3,0.2-0.5,0c-0.7-0.5-1.7-1.3-2.6-2.2c-0.5,0.6-1.6,1.8-2,2.1c-0.2,0.1-0.3,0.3-0.7,0.1c-0.9-0.6-2.1-1.5-2.8-2.5
					c-0.2-0.2-0.2-0.3,0-0.6c0.7-0.8,1.6-1.9,2.5-2.7c0.2-0.2,0.3-0.2,0.6,0.1c0.7,0.7,1.9,1.8,2.6,2.2
					C116.7,26.2,117.7,25.1,118.1,24.7z M118.7,18.8c0.2,0.1,0.1,0.2,0,0.3c-0.4,0.6-1.9,2.2-2.5,3c-0.1,0.2-0.2,0.2-0.4,0
					c-0.8-0.5-2.6-1.9-3.1-2.6c-0.1-0.2-0.1-0.2,0-0.4c0.6-0.9,1.6-2.1,2.3-2.8c0.3-0.3,0.4-0.4,0.5-0.2
					C116.2,16.9,117.5,18,118.7,18.8z"/>
				<path class="st1" d="M130.7,40.9c-1,1.2-2.1,1.9-4.1,1.9h-0.4c-1.2,0-1.8-0.7-1.8-2.2c0-1.3,0.6-1.9,1.8-1.9h0.4
					c1,0,1.8-0.1,2.6-0.4c0.7-0.2,1.1-0.5,1.2-0.8c0-3.1-1.1-9.6-1.7-15.9c0-0.7-0.5-2.9-0.7-3.8c0-0.1,0-0.3,0-0.4
					c0-0.5,0.6-1.7,1-2.4c0.5-0.9,0.9-1.6,1.3-1.6c0.1,0,0.2,0.1,0.3,0.4c0.5,1.8,1.1,2.6,1.5,3.3c0.1,0.2,0.2,0.3,0.2,0.5
					c0,0.1,0,0.1,0,0.2c-0.1,0.4-0.7,1.5-1,1.9c0.3,6.1,1.3,11,1.3,14C132.5,36.7,131.9,39.1,130.7,40.9z"/>
				<path class="st1" d="M154.1,54.4c0.2-0.1,0.2-0.1,0.2,0.1c0,1-0.4,2-0.9,2.3l-7.4,4.1c-0.1,0.1-0.2,0-0.2-0.1
					c0-0.5,0.2-1.4,0.4-1.8c0.2-0.3,0.5-0.6,1.2-1L154.1,54.4z"/>
				<path class="st1" d="M152.9,50.2c0.2,0.1,0.1,0.2,0,0.3c-0.4,0.6-1.9,2.2-2.5,3c-0.1,0.2-0.2,0.2-0.4,0
					c-0.8-0.5-2.6-1.9-3.1-2.6c-0.1-0.2-0.1-0.2,0-0.4c0.6-0.9,1.6-2.1,2.3-2.8c0.3-0.3,0.4-0.4,0.5-0.2
					C150.3,48.3,151.6,49.4,152.9,50.2z"/>
				<path class="st1" d="M138.6,29.8c-0.1-3.6-0.4-9.4-1-12.4c0-0.1,0-0.2,0-0.2c0-0.6,0.7-1.5,1.3-2.5c0.3-0.5,0.5-1,0.7-1
					c0.2,0,0.4,0.3,0.5,1.2c0.8,6.3,0.3,15,1.2,20.2c0.4,1.7,0.7,2.6,1.7,3.2c0.8,0.4,2.2,0.5,3.3,0.5c1.1,0,3.1-0.1,4.1-1.1
					c-0.1-1.6-1.3-3.5-1.9-4.3c0,0-0.1-0.1-0.1-0.2c0-0.4,0.9-2.5,1.3-3.3c0.1-0.1,0.1-0.2,0.2-0.2c0.2,0,0.5,0.3,0.8,0.8
					c0.9,1.5,1.3,3.4,1.3,5.5c0,1.7-0.2,3.5-1.5,4.9c-1.4,1.5-3.3,2.1-5.5,2.1c-1.4,0-3-0.3-4-1.4C139.4,39.7,138.9,37.7,138.6,29.8
					z"/>
				<path class="st1" d="M174.3,44.5c0.2-0.1,0.2-0.1,0.2,0.1c0,1-0.4,2-0.9,2.3l-7.4,4.1c-0.1,0.1-0.2,0-0.2-0.1
					c0-0.5,0.2-1.4,0.4-1.8c0.2-0.3,0.5-0.6,1.2-1L174.3,44.5z"/>
				<path class="st1" d="M172.3,15.7c0.3-0.3,0.4-0.4,0.6-0.2c0.9,0.9,1.8,1.9,2.8,2.5c0.3,0.2,0.3,0.3,0,0.6
					c-0.8,0.9-1.6,1.8-2.4,2.7c-0.2,0.2-0.3,0.2-0.5,0c-0.7-0.5-1.7-1.3-2.6-2.2c-0.5,0.6-1.6,1.8-2,2.1c-0.2,0.1-0.3,0.3-0.7,0.1
					c-0.9-0.6-2.1-1.5-2.8-2.5c-0.2-0.2-0.2-0.3,0-0.6c0.7-0.8,1.6-1.9,2.5-2.7c0.2-0.2,0.3-0.2,0.6,0.1c0.7,0.7,1.9,1.8,2.6,2.2
					C170.9,17.3,171.8,16.1,172.3,15.7z M177.6,37.9c0.9,0.6,1.6,0.8,2.1,0.8h0.6c1.2,0,1.9,0.6,1.9,1.9c0,1.5-0.7,2.2-2,2.2h-0.6
					c-1.4,0-2.7-0.5-4-1.6c-1.3-1.1-2.1-2.9-2.4-5.4c-0.4,0.6-0.7,1.3-1.5,1.8c-1.1,0.8-2.9,1.1-4.7,1.1c-1.3,0-2.5-0.2-2.5-1.2
					c0.6-4,1.1-4.6,3-6.2c0.8-0.7,3.2-2.1,4.2-2.8c0-0.4-0.1-0.7-0.1-1c0-0.9,0.2-1.4,0.7-2.2c0.3-0.5,0.5-0.9,0.7-0.9
					c0.2,0,0.3,0.3,0.4,1c0.6,3.7,0.9,6.7,1.4,8.5C175.3,35.6,176.2,36.9,177.6,37.9z M172.2,30.6c-1.7,1.1-4.5,2.8-4.6,3.3
					c0,0.3,0.5,0.4,1.3,0.4c1.1,0,2.7-0.3,3.9-0.9C172.6,32.4,172.5,32,172.2,30.6z"/>
				<path class="st1" d="M189.3,14c0.2-0.1,0.2-0.1,0.2,0.1c0,1-0.4,2-0.9,2.3l-7.4,4.1c-0.1,0.1-0.2,0-0.2-0.1
					c0-0.5,0.2-1.4,0.4-1.8c0.2-0.3,0.5-0.6,1.2-1L189.3,14z"/>
				<path class="st1" d="M188.3,36.2c0,1,1.1,2.2,2.4,2.4c0.3,0,0.6,0,0.9,0h0.2c1.5,0,1.5,1.2,1.5,1.8c0,0.5,0,2.2-1.5,2.2h-0.3
					c-0.3,0-0.5,0-1,0c-2.7-0.3-3.7-2.7-3.9-3c-0.4,1.1-2.6,3-6.6,3h-0.2c-1.1,0-1.7-1-1.7-2c0-1,0.6-2.1,1.7-2.1h1.2
					c1.8,0,4.3-0.3,5.8-2.9c0.5-0.8,0.7-0.9,0.9-0.9C188.1,34.9,188.3,35.3,188.3,36.2z M189.7,25.8c0.2,0.1,0.1,0.2,0,0.3
					c-0.4,0.6-1.9,2.2-2.5,3c-0.1,0.2-0.2,0.2-0.4,0c-0.8-0.5-2.6-1.9-3.1-2.6c-0.1-0.2-0.1-0.2,0-0.4c0.6-0.9,1.6-2.1,2.3-2.8
					c0.3-0.3,0.4-0.4,0.5-0.2C187.2,23.8,188.5,24.9,189.7,25.8z"/>
				<path class="st1" d="M203.2,46c0.2-0.1,0.2-0.1,0.2,0.1c0,1-0.4,2-0.9,2.3l-7.4,4.1c-0.1,0.1-0.2,0-0.2-0.1
					c0-0.5,0.2-1.4,0.4-1.8c0.2-0.3,0.5-0.6,1.2-1L203.2,46z"/>
				<path class="st1" d="M212.2,14.4c0.1,0,0.2,0.1,0.2,0.2c0,0.6-0.9,2.3-1.2,2.9c-0.1,0.1-0.2,0.2-0.3,0.3
					c-1.2,0.4-10.5,4-14.6,6.9c4,2.1,7.9,6.8,7.9,9.7c0,2.8-0.8,4.9-2.4,6.3c-2.5,1.4-5.8,2.1-9.7,2.1h-0.5c-0.7,0-1.2-0.9-1.2-2
					c0-1.1,0.5-2.1,1.2-2.1h0.4c5.4,0,9.7-1.2,10.6-2.1c-0.1-2.5-4.2-6.7-7.6-8.3c-0.5-0.2-0.9-0.5-1.2-0.9
					c-0.2-0.3-0.3-0.8-0.3-1.5c0-0.9,0.1-1.9,0.7-2.5c1.2-1.2,2.5-2.2,5.1-3.6c5.1-2.7,10.1-4.5,12.1-5.2
					C211.6,14.6,212,14.4,212.2,14.4z"/>
				<path class="st1" d="M221.9,42.8c-1.2,0-2.2-0.2-3-0.9c-1.3-1-2-3-2.3-5.5c-0.3-1.9-0.4-4.2-0.5-6.6c-0.1-3.6-0.4-9.1-0.9-12.3
					c0-0.1,0-0.3,0-0.4c0-0.2,0-0.3,0.3-0.7c0.6-0.8,0.9-1.4,1.3-2.1c0.3-0.5,0.4-0.6,0.5-0.6c0.2,0,0.3,0.3,0.5,1.2
					c0.8,6.3,0.1,15,1.1,19.8c0.2,1.2,0.4,1.6,0.7,2.4c0.5,1.1,1.3,1.6,2.6,1.7c1.4,0,2.1,0.7,2.1,2c0,1.6-0.8,2.1-1.9,2.1H221.9z"
					/>
				<path class="st1" d="M232.3,28.2c-1.3,0-2-1.3-2-2.7c0-0.4,0.1-0.9,0.2-1.4c0.1-0.4,0.4-1.4,0.9-1.4c0.2,0,0.4,0.4,0.4,1v0.5
					c0,0.6,0.4,1,1.1,1h0.1c0.8,0,1.4-0.6,1.6-1.7c0.1-0.5,0.4-1.9,1.1-1.9c0.2,0,0.4,0.3,0.4,1c0,0.3,0.2,0.6,0.7,0.6
					c0.8,0,1.5-0.6,1.6-1.5c0.2-1.2,0.4-1.5,0.7-1.5c0.4,0,0.6,1.2,0.6,1.9c0,0.5-0.1,1.1-0.3,1.8c-0.4,1.2-1.2,2.1-2.7,2.1
					c-0.3,0-0.6-0.1-0.8-0.2c-0.1-0.1-0.2-0.1-0.4,0.2C234.5,27.3,233.6,28.2,232.3,28.2z M239.2,15.9c0.2-0.1,0.1,0.1,0.1,0.1
					c-0.1,0.7-0.4,1.5-0.9,2.1c-0.1,0.2-0.4,0.3-0.9,0.6l-7.1,3.3c-0.1,0-0.1,0-0.1-0.1c0-0.3,0.1-0.8,0.3-1.3
					c0.3-0.6,0.4-0.8,0.5-0.9c0.1-0.1,0.3-0.2,0.6-0.4L239.2,15.9z"/>
				<path class="st1" d="M237.8,34.6c0.2,0,0.3,0.2,0.3,0.9c0,0.2,0,0.5,0,0.8c0,1.3,1,2,2.1,2c1.8,0,2.7-1.7,3.5-3.2
					c0.1-0.2,0.3-0.6,0.6-0.6c0.2,0,0.3,0.2,0.4,1.1c0.1,1.9,1.2,3,2.8,3.1h0.5c1.3,0,1.9,0.6,1.9,1.8c0,1.5-0.6,2.2-1.9,2.2h-0.5
					c-2.3,0-3.5-1.1-3.9-3.5c-0.6,1.7-2.1,3.5-4,3.5c-1.9,0-2.9-1.6-3.1-3.5c-0.7,2-2.8,3.4-4.8,3.4c-2.2,0-3.5-0.8-4.1-2.8
					c-0.3,0.8-0.8,1.4-1.5,2c-0.7,0.6-1.9,0.9-3.8,0.9h-0.4c-1.2,0-1.9-0.7-1.9-2.1c0-1.3,0.6-2,1.8-2h0.5c2.8,0,4.7-1,5.7-3.1
					c0.1-0.2,0.3-0.6,0.6-0.6c0.3,0,0.4,0.3,0.4,1c0.1,1.6,1.4,2.4,3.2,2.4c2.2,0,3.8-1,4.9-3.1C237.3,35,237.5,34.6,237.8,34.6z"/>
				<path class="st1" d="M251.8,40.9c-1,1.2-2.1,1.9-4.1,1.9h-0.4c-1.2,0-1.8-0.7-1.8-2.2c0-1.3,0.6-1.9,1.8-1.9h0.4
					c1,0,1.8-0.1,2.6-0.4c0.7-0.2,1.1-0.5,1.2-0.8c0-3.1-1.1-9.6-1.7-15.9c0-0.7-0.5-2.9-0.7-3.8c0-0.1,0-0.3,0-0.4
					c0-0.5,0.6-1.7,1-2.4c0.5-0.9,0.9-1.6,1.3-1.6c0.1,0,0.2,0.1,0.3,0.4c0.5,1.8,1,2.6,1.5,3.3c0.1,0.2,0.2,0.3,0.2,0.5
					c0,0.1,0,0.1,0,0.2c-0.1,0.4-0.7,1.5-1,1.9c0.3,6.1,1.3,11,1.3,14C253.6,36.7,253,39.1,251.8,40.9z"/>
				<path class="st1" d="M261.8,42.8c-0.2,0-0.3-0.3-0.3-1.2c0-5.4-2-20.3-2-22.7c0-1.2,0.8-3.1,1.5-4.4c0.2-0.4,0.6-0.9,0.8-0.9
					c0.2,0,0.3,0.3,0.3,1.4c0.2,3.9,1.3,13,1.3,19.6c0,2.6-0.2,4.9-0.6,6.2C262.4,42.1,262.1,42.8,261.8,42.8z"/>
				<path class="st1" d="M290.7,62.3c0.2-0.1,0.2-0.1,0.2,0.1c0,1-0.4,2-0.9,2.3l-7.4,4.1c-0.1,0.1-0.2,0-0.2-0.1
					c0-0.5,0.2-1.4,0.4-1.8c0.2-0.3,0.5-0.6,1.2-1L290.7,62.3z"/>
				<path class="st1" d="M296.2,50.7c0.3-0.3,0.4-0.4,0.6-0.2c0.9,0.9,1.8,1.9,2.8,2.5c0.3,0.2,0.3,0.3,0,0.6
					c-0.8,0.9-1.6,1.8-2.4,2.7c-0.2,0.2-0.3,0.2-0.5,0c-0.7-0.5-1.7-1.3-2.6-2.2c-0.5,0.6-1.6,1.8-2,2.1c-0.2,0.1-0.3,0.3-0.7,0.1
					c-0.9-0.6-2.1-1.5-2.8-2.5c-0.2-0.2-0.2-0.3,0-0.6c0.7-0.8,1.6-1.9,2.5-2.7c0.2-0.2,0.3-0.2,0.6,0.1c0.7,0.7,1.9,1.8,2.6,2.2
					C294.8,52.2,295.8,51.1,296.2,50.7z"/>
				<path class="st1" d="M291,45c0.1,0.2,0,0.4-0.1,0.8c-0.6,1.5-1.1,2.4-1.5,2.9c-0.1,0.1-0.2,0.2-0.4,0.1
					c-0.9-0.4-2.1-0.6-3.9-0.7c-3.1,0-4.9,0.5-5.6,1.5c0.4,2.2,0.7,3.7,0.8,4.6l0.7,3.8c0.3,2,0.5,3.9,0.6,5.5
					c0,1.7-0.1,3.4-0.8,5.1c-0.2,0.6-0.5,1-0.8,1c-0.2,0-0.2-0.3-0.1-0.8c0.1-0.6,0.1-1.2,0.1-2.1c0-1.6-0.3-3.7-1.1-8.1
					c-0.6-3.3-1-5.3-1.1-6.2c0-1.8,0.4-3.4,1.2-5c0.8-1.5,1.9-2.6,3.3-3.3l1.2-2.8c0.9-2.1,2.3-3.5,3.8-4.5c1.5-1,3.7-1.9,5.5-1.9
					c0.5,0,1,0.1,1.5,0.4c0.5,0.3,1,0.9,1.7,1.9c0.7,1,1.4,1.5,2.2,1.5h0.6c1.1,0,1.7,0.6,1.7,1.9c0,1.5-0.6,2.2-1.7,2.2h-0.6
					c-1.3,0-2.5-0.6-3.5-1.8c-0.8-0.9-1.5-1.6-2.1-1.8c-0.3-0.1-0.6-0.2-1.6-0.2c-1.9,0-3.7,0.7-5.3,2.1c1.6,0.7,2.8,1.4,3.8,2.2
					C290.4,43.9,290.9,44.6,291,45z"/>
				<path class="st1" d="M303.3,3.6c1.2,0,3,1.7,3,3.7c0,0.7-0.1,1.4-0.3,2.1c-0.5,1.4-1.7,2.2-3.2,2.2c-1.4,0-2.4-1.1-2.4-2.4
					C300.4,7.5,302.4,3.6,303.3,3.6z M303,6.4c-0.5,0-1.3,1.1-1.3,1.7c0,0.5,0.7,1,1.4,1c0.9,0,2-0.5,2-0.9C305.1,8,304,6.4,303,6.4
					z"/>
				<path class="st1" d="M306.1,34.4c0.2,1,0.7,1.6,1.3,2.1c0.6,0.4,1.2,0.7,1.9,1c0.7,0.3,1.2,0.6,1.5,0.7c0.4,0.2,0.5,1.4,0.5,2.1
					c0,0.8-0.2,1.9-0.7,2.5c-0.1,0.1-0.3,0.2-0.4,0.1c-2.4-1.2-4.2-2-5.3-2c-0.9,0-1.6,0.3-2.8,0.9c-1.1,0.6-2.3,1-3.6,1h-0.4
					c-1.1,0-1.6-0.7-1.6-2c0-1.4,0.5-2.1,1.6-2.1h0.4c1.6,0,3.4-0.5,5.5-1.4c-0.1-0.4-0.2-1.3-0.4-2.8c-0.2-1.5-0.7-7.3-1.3-14.3
					c-0.1-0.7-0.3-1.8-0.5-2.5c0-0.1,0-0.3,0-0.5c0-0.1,0-0.2,0-0.3c0.1-0.2,0.2-0.6,0.7-1.5c0.5-0.9,1.1-1.9,1.4-1.9
					c0.1,0,0.2,0.1,0.3,0.4c0.5,1.6,0.9,2.6,1.3,3.2c0.1,0.1,0.1,0.3,0.1,0.4c0,0.1,0,0.2-0.1,0.4c-0.1,0.4-0.7,1.6-1.1,2.1
					C305.2,28.5,305.8,33.4,306.1,34.4z"/>
				<path class="st1" d="M318.3,42.8c-0.2,0-0.3-0.3-0.3-1.2c0-5.4-2-20.3-2-22.7c0-1.2,0.8-3.1,1.5-4.4c0.2-0.4,0.6-0.9,0.8-0.9
					c0.2,0,0.3,0.3,0.3,1.4c0.2,3.9,1.3,13,1.3,19.6c0,2.6-0.2,4.9-0.6,6.2C318.9,42.1,318.6,42.8,318.3,42.8z"/>
				<path class="st1" d="M348.7,44.8c0.2-0.1,0.2-0.1,0.2,0.1c0,1-0.4,2-0.9,2.3l-7.4,4.1c-0.1,0.1-0.2,0-0.2-0.1
					c0-0.5,0.2-1.4,0.4-1.8c0.2-0.3,0.5-0.6,1.2-1L348.7,44.8z"/>
				<path class="st1" d="M348.2,34.2c-0.2,1.2-0.8,2.9-1.5,3.7c-0.1,0.1-0.2,0.2-0.3,0.2c0,0-0.2,0-0.2,0c-0.5-0.1-1.3-0.3-2.7-0.3
					c-2.9,0-6.4,0.7-6.6,1.8c0,1.5,1.7,7.1,1.7,14.2c0,0.6,0,1.3,0,2c-0.2,3-1.1,4.8-1.5,4.8c-0.2,0-0.3-0.3-0.3-1
					c0-0.5,0-1.1,0-1.9c0-4.1-0.9-9-1.7-13.5c-0.2-1.3-0.3-2.4-0.3-3.3c0-3.4,1.3-4.6,2-5.3c0-0.2,0-0.4,0-0.6c0-2.7,1.7-7,4.2-7
					c3.2,0,5.6,3.7,7.2,5.9C348.2,34,348.2,34.1,348.2,34.2z M340.2,32.6c-1.1,0-1.5,1.2-1.7,2.1c1.1-0.7,3.1-0.9,4.1-1
					C341.8,33,341.1,32.6,340.2,32.6z"/>
				<path class="st1" d="M356.7,41.8c-1-0.8-1.6-1.7-2.2-3.5c-0.6-1.9-1.2-7.7-1.7-17.5c-0.1-1.7-0.2-2.7-0.4-3.8c0-0.1,0-0.2,0-0.4
					c0.4-1.2,1.6-3.5,2-3.5c0.3,0,0.3,0.8,0.3,1.1c0.1,1.1,0.2,3.1,0.4,5.2c0.1,1.2,0.2,3.6,0.4,6.3l0.4-1.5c0.2-1,0.9-1.9,2-2.8
					c1.8-1.4,4.3-3.1,7.6-5c3.3-1.9,5.9-3.2,7.7-4c0.8-0.3,0.9-0.2,0.6,0.7c-0.2,0.6-0.7,1.7-1.5,2.9c-0.1,0.2-0.2,0.2-0.4,0.4
					c-1.7,0.8-4.2,2.1-7.4,4c-3.3,2-5.8,3.6-7.5,4.9c4.6,2.4,8.9,5.6,12.9,9.6c1.4,1.5,2.5,2.5,3.3,3c0.8,0.5,1.5,0.8,2.2,0.8h0.5
					c0.1,0,1.3,0,1.3,2.1c0,2-1.2,2-1.3,2h-0.5c-1.4,0-2.7-0.5-3.9-1.4c-1.2-1-2.8-2.4-4.7-4.4c-0.2,1.2-0.6,2.4-1.1,3.3
					c-0.9,1.4-2.9,2.4-5.9,2.4C358.4,42.7,357.5,42.4,356.7,41.8z M358.9,38.4c0.3,0.1,0.8,0.1,1.3,0.1c1.6,0,3.4-0.5,4.7-1.6
					c0.1-0.1,0.1-0.3,0-0.7c-0.2-0.8-0.9-1.7-2.1-2.7c-1.5-1.3-3.6-2.6-6.3-3.8c-0.3-0.2-0.6-0.4-0.9-0.8c0.3,2.9,0.5,5.5,1.1,7.1
					C357.2,37.3,357.9,38.1,358.9,38.4z"/>
				<path class="st1" d="M380.9,33.3c-0.4,0-0.8,0-1.1,0.2c-0.3,0.1-1,0.5-1.4,0.5c-0.3,0-0.3-0.2-0.3-0.4c0-0.8,1.1-2.3,2.1-3.2
					c0.9-0.8,1.7-1,2.5-1c0.3,0,0.6,0,0.8,0.1c3.2,0.7,7.4,2.5,10.6,3.1c2.2,0.5,4.6,0.7,6.1,0.7c0.3,0,0.6,0,0.8,0
					c0.1,0,0.1,0,0.1,0.1c0,0.7-1.2,2.7-2,3.4c-0.1,0.1-0.5,0.1-1,0.1c-0.9,0-2.9-0.1-3.4-0.1c-1.6,0-2.9,0.1-4,0.5
					c-0.8,0.3-2.1,0.8-4.1,1.7c-3,1.5-5.1,2.5-6.4,3c-1.3,0.5-2.8,0.8-4.4,0.9h-0.5c-1.3,0-2-0.7-2-2.1c0-1.3,0.7-1.9,2-1.9h0.5
					c2.4,0,4.5-0.2,6.2-0.8c1.7-0.5,4.1-1.3,7.1-2.6C385.7,34.4,382.8,33.3,380.9,33.3z"/>
				<path class="st1" d="M410.7,9.9c-1.5,0.8-4.7,2.7-7.2,4.5c-0.1,0-0.1,0.1-0.2,0.1s-0.1,0-0.1-0.1c0-0.2,0.1-0.6,0.4-1.2
					c0.1-0.3,0.9-1.1,1.5-1.6c0.1-0.1,0.2-0.1,0.2-0.2c0,0-0.1-0.1-0.2-0.2c-1-0.4-1.5-0.7-1.7-1.7c0-0.1,0-0.2,0-0.3
					c0-1.7,1.7-4,3.3-5.2c0.6-0.5,1.2-0.7,1.8-0.7c1,0,1.4,0.5,1.4,1.3c0,0.5-0.1,1-0.4,1.7c-0.2,0.4-0.3,0.7-0.5,0.7
					c-0.1,0-0.3-0.1-0.5-0.3c-0.2-0.2-0.5-0.5-1-0.5c-1.4,0-2.3,0.8-2.3,1.2c0,0.6,2.3,1.5,3.2,1.5c0.1,0,0.2,0,0.2,0
					c0.4-0.1,2-0.7,2.6-1.1c0.3-0.2,0.5-0.3,0.6-0.3c0.1,0,0.1,0,0.1,0.2c0,0.1-0.1,0.4-0.2,0.8C411.4,9.5,411.1,9.7,410.7,9.9z
					 M408.1,42.8c-0.2,0-0.3-0.3-0.3-1.2c0-5.4-2-20.3-2-22.7c0-1.2,0.8-3.1,1.5-4.4c0.2-0.4,0.6-0.9,0.8-0.9c0.2,0,0.3,0.3,0.3,1.4
					c0.2,3.9,1.3,13,1.3,19.6c0,2.6-0.2,4.9-0.6,6.2C408.7,42.1,408.4,42.8,408.1,42.8z"/>
				<path class="st1" d="M432.4,2.6c0,0.9-0.2,1.8-0.5,2.6c0.4,0.2,0.6,0.5,0.6,0.7c0,0.7-0.3,1.3-0.6,1.8c-0.1,0.1-0.1,0.1-0.2,0.1
					l-0.9-0.6c-0.9,1.4-2.3,3.1-4.4,4.1c-0.8,0.4-1.7,0.7-2.6,0.7c-0.5,0-0.7-0.1-0.7-0.2c0-0.2,0.4-0.3,1-0.7
					c1.5-0.9,4.5-3.1,5.5-4.5c-0.8-0.6-1.9-1.3-1.9-2.4c0-0.8,0.4-1.5,1-2.3c0.7-1,1.5-1.4,2.2-1.4C432.1,0.4,432.4,1.7,432.4,2.6z
					 M429.2,3.4c0,0,0,0.1,0,0.1c0,0.2,0.8,0.8,1.4,1c0.2-0.3,0.2-0.6,0.2-1.2c0-0.5-0.2-0.8-0.6-0.8C429.9,2.7,429.5,2.9,429.2,3.4
					z"/>
				<path class="st1" d="M431.6,15.7c0.3-0.3,0.4-0.4,0.6-0.2c0.9,0.9,1.8,1.9,2.8,2.5c0.3,0.2,0.3,0.3,0,0.6
					c-0.8,0.9-1.6,1.8-2.4,2.7c-0.2,0.2-0.3,0.2-0.5,0c-0.7-0.5-1.7-1.3-2.6-2.2c-0.5,0.6-1.6,1.8-2,2.1c-0.2,0.1-0.3,0.3-0.7,0.1
					c-0.9-0.6-2.1-1.5-2.8-2.5c-0.2-0.2-0.2-0.3,0-0.6c0.7-0.8,1.6-1.9,2.5-2.7c0.2-0.2,0.3-0.2,0.6,0.1c0.7,0.7,1.9,1.8,2.6,2.2
					C430.2,17.3,431.1,16.1,431.6,15.7z M436.9,37.9c0.9,0.6,1.6,0.8,2.1,0.8h0.6c1.2,0,1.9,0.6,1.9,1.9c0,1.5-0.7,2.2-2,2.2H439
					c-1.4,0-2.7-0.5-4-1.6c-1.3-1.1-2.1-2.9-2.4-5.4c-0.4,0.6-0.7,1.3-1.5,1.8c-1.1,0.8-2.9,1.1-4.7,1.1c-1.3,0-2.5-0.2-2.5-1.2
					c0.6-4,1.1-4.6,3-6.2c0.8-0.7,3.2-2.1,4.2-2.8c0-0.4-0.1-0.7-0.1-1c0-0.9,0.2-1.4,0.7-2.2c0.3-0.5,0.5-0.9,0.7-0.9
					c0.2,0,0.3,0.3,0.4,1c0.6,3.7,0.9,6.7,1.4,8.5C434.6,35.6,435.5,36.9,436.9,37.9z M431.5,30.6c-1.7,1.1-4.5,2.8-4.6,3.3
					c0,0.3,0.5,0.4,1.3,0.4c1.1,0,2.7-0.3,3.9-0.9C431.9,32.4,431.8,32,431.5,30.6z"/>
				<path class="st1" d="M449.4,22.2c0.2-0.1,0.2-0.1,0.2,0.1c0,1-0.4,2-0.9,2.3l-7.4,4.1c-0.1,0.1-0.2,0-0.2-0.1
					c0-0.5,0.2-1.4,0.4-1.8c0.2-0.3,0.5-0.6,1.2-1L449.4,22.2z"/>
				<path class="st1" d="M447.6,36.2c0,1,1.1,2.2,2.4,2.4c0.3,0,0.6,0,0.9,0h0.2c1.5,0,1.5,1.2,1.5,1.8c0,0.5,0,2.2-1.5,2.2h-0.3
					c-0.3,0-0.5,0-1,0c-2.7-0.3-3.7-2.7-3.9-3c-0.4,1.1-2.6,3-6.6,3h-0.2c-1.1,0-1.7-1-1.7-2c0-1,0.6-2.1,1.7-2.1h1.2
					c1.8,0,4.3-0.3,5.8-2.9c0.5-0.8,0.7-0.9,0.9-0.9C447.4,34.9,447.6,35.3,447.6,36.2z M447.3,48.2c0.3-0.3,0.4-0.4,0.6-0.2
					c0.9,0.9,1.8,1.9,2.8,2.5c0.3,0.2,0.3,0.3,0,0.6c-0.8,0.9-1.6,1.8-2.4,2.7c-0.2,0.2-0.3,0.2-0.5,0c-0.7-0.5-1.7-1.3-2.6-2.2
					c-0.5,0.6-1.6,1.8-2,2.1c-0.2,0.1-0.3,0.3-0.7,0.1c-0.9-0.6-2.1-1.5-2.8-2.5c-0.2-0.2-0.2-0.3,0-0.6c0.7-0.8,1.6-1.9,2.5-2.7
					c0.2-0.2,0.3-0.2,0.6,0.1c0.7,0.7,1.9,1.8,2.6,2.2C445.9,49.8,446.9,48.7,447.3,48.2z"/>
				<path class="st1" d="M464.9,48.2c0.2-0.1,0.2-0.1,0.2,0.1c0,1-0.4,2-0.9,2.3l-7.4,4.1c-0.1,0.1-0.2,0-0.2-0.1
					c0-0.5,0.2-1.4,0.4-1.8c0.2-0.3,0.5-0.6,1.2-1L464.9,48.2z"/>
				<path class="st1" d="M451.4,42.8h-0.3c-1.1,0-1.7-0.7-1.7-2c0-1.4,0.6-2.1,1.7-2.1h0.3c2.9,0,4.8-1.4,6.2-2.8
					c1.4-1.4,2.4-2.9,3.4-2.9c0.3,0,0.7,0.1,1,0.5c1.7,1.7,5.1,5.2,6.8,5.2h0.2c1.2,0,1.9,0.6,1.9,1.9c0,1.4-0.6,2.2-1.9,2.2h-0.2
					c-1.6,0-3.2-1.1-3.5-1.4c-0.3,1.2-1.7,2.7-2.4,2.7c-0.6,0-5.9-1.6-7.5-3.9C455,41.8,453,42.8,451.4,42.8z M461.7,37.5
					c-0.6-0.6-1.3-1.1-1.9-1.1c-0.4,0-0.5,0.1-1,0.5c-0.3,0.3-0.5,0.5-0.5,0.7c0,0.3,0.5,0.6,2.1,1.3c0.7,0.3,2.3,1,2.7,1
					c0.2,0,0.2-0.1,0.2-0.2C463.4,39.5,462.3,38.1,461.7,37.5z"/>
				<path class="st1" d="M482.6,19.7c1.2,0,3,1.7,3,3.7c0,0.7-0.1,1.4-0.3,2.1c-0.5,1.4-1.7,2.2-3.2,2.2c-1.4,0-2.4-1.1-2.4-2.4
					C479.6,23.6,481.7,19.7,482.6,19.7z M482.2,22.6c-0.5,0-1.3,1.1-1.3,1.7c0,0.5,0.7,1,1.4,1c0.9,0,2-0.5,2-0.9
					C484.3,24.1,483.2,22.6,482.2,22.6z"/>
				<path class="st1" d="M484.7,34.6c0.2,0,0.3,0.2,0.3,0.9c0,0.2,0,0.5,0,0.8c0,1.3,1,2,2.1,2c1.8,0,2.7-1.7,3.5-3.2
					c0.1-0.2,0.3-0.6,0.6-0.6c0.2,0,0.3,0.2,0.4,1.1c0.1,1.9,1.2,3,2.8,3.1h0.5c1.3,0,1.9,0.6,1.9,1.8c0,1.5-0.6,2.2-1.9,2.2h-0.5
					c-2.3,0-3.5-1.1-3.9-3.5c-0.6,1.7-2.1,3.5-4,3.5c-1.9,0-2.9-1.6-3.1-3.5c-0.7,2-2.8,3.4-4.8,3.4c-2.2,0-3.5-0.8-4.1-2.8
					c-0.3,0.8-0.8,1.4-1.5,2c-0.7,0.6-1.9,0.9-3.8,0.9h-0.4c-1.2,0-1.9-0.7-1.9-2.1c0-1.3,0.6-2,1.8-2h0.5c2.8,0,4.7-1,5.7-3.1
					c0.1-0.2,0.3-0.6,0.6-0.6c0.3,0,0.4,0.3,0.4,1c0.1,1.6,1.4,2.4,3.2,2.4c2.2,0,3.8-1,4.9-3.1C484.2,35,484.5,34.6,484.7,34.6z"/>
				<path class="st1" d="M499.9,7.9c0.2-0.1,0.2-0.1,0.2,0.1c0,1-0.4,2-0.9,2.3l-7.4,4.1c-0.1,0.1-0.2,0-0.2-0.1
					c0-0.5,0.2-1.4,0.4-1.8c0.2-0.3,0.5-0.6,1.2-1L499.9,7.9z"/>
				<path class="st1" d="M498,16.5c0.3-0.3,0.4-0.4,0.6-0.2c0.9,0.9,1.8,1.9,2.8,2.5c0.3,0.2,0.3,0.3,0,0.6
					c-0.8,0.9-1.6,1.8-2.4,2.7c-0.2,0.2-0.3,0.2-0.5,0c-0.7-0.5-1.7-1.3-2.6-2.2c-0.5,0.6-1.6,1.8-2,2.1c-0.2,0.1-0.3,0.3-0.7,0.1
					c-0.9-0.6-2.1-1.5-2.8-2.5c-0.2-0.2-0.2-0.3,0-0.6c0.7-0.8,1.6-1.9,2.5-2.7c0.2-0.2,0.3-0.2,0.6,0.1c0.7,0.7,1.9,1.8,2.6,2.2
					C496.6,18.1,497.6,16.9,498,16.5z M499.2,39.5c-0.7,1.6-1.5,3.3-4.7,3.3c-1.5,0-2.2-0.9-2.2-2.1c0-1,0.6-2,2.2-2h0
					c0.9,0,3.3-1.4,3.3-2.9v-0.1c-0.2-3.1-1.3-4.2-2.8-6.8c-0.1-0.1-0.1-0.3-0.1-0.5c0-0.5,0.4-2.1,1-3.2c0.2-0.3,0.3-0.4,0.5-0.4
					c0.1,0,0.2,0,0.3,0.1c2.4,2.3,3.2,6.9,3.2,10.1C499.9,36.5,499.6,38.5,499.2,39.5z"/>
			</g>
		</g>
	</g>
	<g>
		<g>
			<g>
				<g>
					<path class="st2" d="M8.7,34.2c0,0,1.5-3,4.6-1.4c-1.3-2.1-0.6-4.8,0-5.6c1,3.4,2.8,6.3,6.9,7h2.4l-1,0c3,0,5.8-2.2,5.8-6
						c0-3.8-2.3-5-3.6-5.1c-0.6,0-1.2,0.1-1.7,0.3c-1.3,0.3-2.2,1.5-2.2,2.8c0,1.6,1.4,2.9,3.1,2.9c0.6,0,1.2-0.2,1.7-0.5
						c-0.1,1.6-1.4,3-3.4,3c-2.5,0-5.5-2.5-4.3-7.5c-1.1-0.9-4.6-1.2-5.4,1.8c0,0,0,0,0,0c-0.3-0.2-0.6-0.3-1-0.3
						c-1.1,0-2.1,1.2-2.1,2.6c0,0.8,0.3,1.4,0.7,1.9c-5-0.9-9.1,4.2-9.1,4.2s0,0,0,0H8.7z M21.6,34.4l1,0h-2.4c-4,0.7-5.9,3.6-6.9,7
						c-0.6-0.8-1.3-3.5,0-5.6c-3.1,1.6-4.6-1.4-4.6-1.4H0c0,0,0,0,0,0s4,5,9,4.2c-0.4,0.5-0.6,1.1-0.6,1.8c0,1.4,0.9,2.6,2.1,2.6
						c0.4,0,0.7-0.1,1-0.4c0,0.1,0,0.1,0,0.1c0.8,3,4.2,2.8,5.4,1.8c-1.2-5,1.8-7.5,4.3-7.5c2,0,3.3,1.4,3.4,3
						c-0.5-0.3-1.1-0.5-1.7-0.5c-1.7,0-3.1,1.3-3.1,2.9c0,1.3,0.9,2.4,2.2,2.8c0.5,0.2,1.1,0.3,1.7,0.3c1.3-0.1,3.6-1.3,3.6-5.1
						C27.4,36.6,24.6,34.4,21.6,34.4z"/>
				</g>
			</g>
			<path class="st3" d="M11.7,36.8c0,0-0.1,2.2-0.2,2.7c0,0.8-0.6,1.3-1.2,1.3c-0.7,0-1.1-0.7-1.1-1.4c0-0.5,0.2-0.9,0.6-1.1
				C9.9,38.2,10.8,37.4,11.7,36.8z"/>
			<path class="st3" d="M11.4,37.2c0,0-0.1,1.3-0.1,1.5c0,0.4-0.3,0.8-0.7,0.7c-0.4,0-0.6-0.4-0.6-0.8c0-0.3,0.1-0.5,0.3-0.6
				C10.4,38,10.9,37.5,11.4,37.2z"/>
			<g>
				<g class="st4">
					<path class="st5" d="M10.1,30.6c-1.1-0.5-2.5-1.2-5.8,0.1c-1.1,0.5-2.3,1.4-2.9,2.1c-1,1,0.3,1.7,2.5,1.7
						c2.2,0,2.6-0.6,3.9-1.9C9.2,31.1,10.9,31,10.1,30.6z"/>
				</g>
			</g>
			<g class="st4">
				<g>
					<path class="st5" d="M24.7,23.5c-0.4-0.3-0.9-0.4-1.5-0.4c-0.1,0-0.2,0-0.2,0c0,0,0,0,0,0c0,0,0,0,0,0c-0.1,0-0.2,0-0.3,0
						c-0.1,0-0.3,0-0.4,0c0,0,0,0,0,0.1c-1,0.3-1.8,1-1.7,1.8c0,1,1.2,1.7,2.6,1.6c0.9,0,1.7-0.4,2.1-0.9c0.2,0.5,0.4,1.2,0.4,1.8
						c0.1,2.1-1.5,4.2-4,4.2c-1.7,0-2.6-0.1-3.9-1.2c-1.3-1.1-0.3,2.4,4.1,2.4c3.2,0,5.3-2.9,5.3-5.1C27.1,26,26.2,24.3,24.7,23.5z"
						/>
				</g>
			</g>
			<g>
				
					<ellipse transform="matrix(0.9999 -1.343745e-002 1.343745e-002 0.9999 -0.3233 0.3115)" class="st5" cx="23" cy="24.2" rx="1.8" ry="1.2"/>
			</g>
			
				<ellipse transform="matrix(0.9999 -1.338990e-002 1.338990e-002 0.9999 -0.3134 0.3087)" class="st1" cx="22.9" cy="23.6" rx="1" ry="0.5"/>
			<g>
				<path class="st5" d="M4.7,30.4c-1.2,0.4-2,1.2-1.8,1.8c0.2,0.6,1.4,0.7,2.6,0.3c1.2-0.4,2-1.2,1.8-1.8S5.9,30,4.7,30.4z"/>
			</g>
			<path class="st1" d="M4.9,31.4c0.7-0.2,1.1-0.6,1-0.9c-0.1-0.3-0.7-0.3-1.4-0.1c-0.7,0.2-1.1,0.6-1,0.9
				C3.7,31.6,4.3,31.6,4.9,31.4z"/>
			<g>
				<g class="st4">
					<path class="st5" d="M26.9,39.5c0-2.1-2.1-4.9-5.3-4.9c-4.1,0-5.6,2.2-4.2,2.2c1.4,0,1.3-0.9,3.7-0.9c2.3,0,4.5,2.1,4.4,4.1
						c0,0.3-0.1,0.5-0.1,0.8c-0.3-0.7-1.1-1.2-2.2-1.2c-1.3-0.1-2.4,0.6-2.5,1.5c0,0.8,0.7,1.4,1.7,1.7c0,0,0,0,0,0
						c0.1,0,0.3,0,0.4,0c0,0,0.1,0,0.1,0c0,0,0.1,0,0.1,0c0.2,0,0.4,0,0.6,0C25.8,42.7,26.9,41.4,26.9,39.5z"/>
				</g>
			</g>
			<g>
				
					<ellipse transform="matrix(0.9999 -1.344265e-002 1.344265e-002 0.9999 -0.544 0.3131)" class="st5" cx="23" cy="40.6" rx="1.8" ry="1.2"/>
			</g>
			<g>
				<path class="st5" d="M21.5,34.6c-0.9,0-1.6,0.3-1.6,0.6c0,0.3,0.7,0.6,1.6,0.6c0.9,0,1.6-0.3,1.6-0.6
					C23.1,34.8,22.4,34.6,21.5,34.6z"/>
			</g>
			<path class="st1" d="M21.4,35.1c0.5,0,0.9-0.1,0.9-0.2c0-0.1-0.4-0.2-0.9-0.2c-0.5,0-0.9,0.1-0.9,0.3
				C20.5,35,20.9,35.1,21.4,35.1z"/>
			
				<ellipse transform="matrix(0.9999 -1.338990e-002 1.338990e-002 0.9999 -0.5331 0.3101)" class="st1" cx="22.9" cy="40" rx="1" ry="0.5"/>
			<path class="st3" d="M16.9,24c0,0-2-1.1-3.6-0.2c-1.6,0.8-1.4,1.6-1.4,2.1c0,0.6,0.3-0.4,1.6-0.3c0.6,0,0.9,1.9,1.8,1.9
				C16.6,27.3,15.1,25.7,16.9,24z"/>
			<g>
				<path class="st5" d="M14.5,23.5c-0.9,0-1.6,0.3-1.6,0.7c0,0.4,0.7,0.6,1.6,0.6c0.9,0,1.6-0.3,1.6-0.7
					C16.1,23.8,15.4,23.5,14.5,23.5z"/>
			</g>
			<path class="st1" d="M14.4,24.1c0.5,0,0.9-0.1,0.9-0.3c0-0.2-0.4-0.3-0.9-0.3c-0.5,0-0.9,0.1-0.9,0.3
				C13.5,23.9,13.9,24.1,14.4,24.1z"/>
			
				<ellipse transform="matrix(5.010963e-002 -0.9987 0.9987 5.010963e-002 -17.6147 36.008)" class="st3" cx="10.1" cy="27.3" rx="1.8" ry="1.5"/>
			<g>
				<path class="st5" d="M10.1,25.5c-0.6,0-1,0.5-1,1.1c0,0.6,0.5,1.1,1.1,1c0.6,0,1-0.5,1-1.1C11.2,26,10.7,25.5,10.1,25.5z"/>
			</g>
			
				<ellipse transform="matrix(1 -9.739798e-003 9.739798e-003 1 -0.2519 9.945942e-002)" class="st1" cx="10.1" cy="25.9" rx="0.5" ry="0.4"/>
		</g>
		<g>
			<g>
				<g>
					<path class="st2" d="M523.3,34.1l-1,0h2.4c4-0.7,5.9-3.6,6.9-7c0.6,0.8,1.3,3.5,0,5.6c3.1-1.6,4.6,1.4,4.6,1.4h8.7c0,0,0,0,0,0
						s-4.1-5.1-9.1-4.2c0.4-0.5,0.7-1.1,0.7-1.9c0-1.4-0.9-2.6-2.1-2.6c-0.4,0-0.7,0.1-1,0.3c0,0,0,0,0,0c-0.8-3-4.2-2.8-5.4-1.8
						c1.2,5-1.8,7.5-4.3,7.5c-2,0-3.3-1.4-3.4-3c0.5,0.3,1.1,0.5,1.7,0.5c1.7,0,3.1-1.3,3.1-2.9c0-1.3-1-2.4-2.2-2.8
						c-0.5-0.2-1.1-0.3-1.7-0.3c-1.3,0.1-3.6,1.3-3.6,5.1C517.4,31.9,520.2,34.1,523.3,34.1z M536.1,34.4c0,0-1.5,3-4.6,1.4
						c1.3,2.1,0.6,4.8,0,5.6c-1-3.4-2.8-6.3-6.9-7h-2.4l1,0c-3,0-5.8,2.2-5.8,6c0,3.8,2.3,5,3.6,5.1c0.6,0,1.2-0.1,1.7-0.3
						c1.3-0.3,2.2-1.5,2.2-2.8c0-1.6-1.4-2.9-3.1-2.9c-0.6,0-1.2,0.2-1.7,0.5c0.1-1.6,1.4-3,3.4-3c2.5,0,5.5,2.5,4.3,7.5
						c1.1,0.9,4.6,1.2,5.4-1.8c0,0,0,0,0-0.1c0.3,0.2,0.7,0.4,1,0.4c1.1,0,2.1-1.2,2.1-2.6c0-0.7-0.2-1.3-0.6-1.8c5,0.8,9-4.2,9-4.2
						s0,0,0,0H536.1z"/>
				</g>
			</g>
			<path class="st3" d="M533.2,36.8c0,0,0.1,2.2,0.2,2.7c0,0.8,0.6,1.3,1.2,1.3c0.6,0,1.1-0.7,1.1-1.4c0-0.5-0.2-0.9-0.6-1.1
				C534.9,38.2,534,37.4,533.2,36.8z"/>
			<path class="st3" d="M533.4,37.2c0,0,0.1,1.3,0.1,1.5c0,0.4,0.3,0.8,0.7,0.7c0.4,0,0.6-0.4,0.6-0.8c0-0.3-0.1-0.5-0.3-0.6
				C534.4,38,533.9,37.5,533.4,37.2z"/>
			<g>
				<g class="st4">
					<path class="st5" d="M543.5,32.8c-0.7-0.7-1.8-1.6-2.9-2.1c-3.3-1.3-4.7-0.6-5.8-0.1c-0.8,0.4,0.9,0.5,2.4,2
						c1.3,1.3,1.8,1.9,3.9,1.9S544.5,33.7,543.5,32.8z"/>
				</g>
			</g>
			<g class="st4">
				<g>
					<path class="st5" d="M527.2,30.4c-1.3,1.1-2.2,1.2-3.9,1.2c-2.5,0-4.1-2.1-4-4.2c0-0.7,0.2-1.3,0.4-1.8
						c0.4,0.5,1.2,0.9,2.1,0.9c1.4,0.1,2.5-0.7,2.6-1.6c0-0.8-0.7-1.5-1.7-1.8c0,0,0,0,0-0.1c-0.1,0-0.3,0-0.4,0c-0.1,0-0.2,0-0.3,0
						c0,0,0,0,0,0c0,0,0,0,0,0c-0.1,0-0.2,0-0.2,0c-0.6,0-1.1,0.2-1.6,0.4c-1.5,0.8-2.3,2.5-2.3,4.1c0,2.2,2.1,5.1,5.3,5.1
						C527.5,32.8,528.5,29.3,527.2,30.4z"/>
				</g>
			</g>
			<g>
				
					<ellipse transform="matrix(1.425298e-002 -0.9999 0.9999 1.425298e-002 490.1602 545.6299)" class="st5" cx="521.8" cy="24.2" rx="1.2" ry="1.8"/>
			</g>
			
				<ellipse transform="matrix(1.338990e-002 -0.9999 0.9999 1.338990e-002 491.3887 545.1374)" class="st1" cx="521.9" cy="23.6" rx="0.5" ry="1"/>
			<g>
				<path class="st5" d="M540.1,30.4c1.2,0.4,2,1.2,1.8,1.8c-0.2,0.6-1.4,0.7-2.6,0.3c-1.2-0.4-2-1.2-1.8-1.8S538.9,30,540.1,30.4z"
					/>
			</g>
			<path class="st1" d="M539.9,31.4c-0.7-0.2-1.1-0.6-1-0.9c0.1-0.3,0.7-0.3,1.4-0.1c0.7,0.2,1.1,0.6,1,0.9
				C541.2,31.6,540.6,31.6,539.9,31.4z"/>
			<g>
				<g class="st4">
					<path class="st5" d="M523.3,34.6c-3.2,0-5.3,2.8-5.3,4.9c0,1.9,1.1,3.1,3.4,3.3c0.2,0,0.4,0,0.6,0c0,0,0.1,0,0.1,0
						c0,0,0.1,0,0.1,0c0.1,0,0.3,0,0.4,0c0,0,0,0,0,0c1-0.2,1.7-0.9,1.7-1.7c0-0.9-1.2-1.6-2.5-1.5c-1,0.1-1.9,0.6-2.2,1.2
						c0-0.2-0.1-0.5-0.1-0.8c-0.1-2,2.1-4.1,4.4-4.1c2.4,0,2.4,0.9,3.7,0.9C528.8,36.8,527.3,34.6,523.3,34.6z"/>
				</g>
			</g>
			<g>
				
					<ellipse transform="matrix(1.425849e-002 -0.9999 0.9999 1.425849e-002 473.751 561.8038)" class="st5" cx="521.8" cy="40.6" rx="1.2" ry="1.8"/>
			</g>
			<g>
				<path class="st5" d="M523.3,34.6c0.9,0,1.6,0.3,1.6,0.6c0,0.3-0.7,0.6-1.6,0.6c-0.9,0-1.6-0.3-1.6-0.6
					C521.7,34.8,522.4,34.6,523.3,34.6z"/>
			</g>
			<path class="st1" d="M523.4,35.1c-0.5,0-0.9-0.1-0.9-0.2c0-0.1,0.4-0.2,0.9-0.2c0.5,0,0.9,0.1,0.9,0.3
				C524.3,35,523.9,35.1,523.4,35.1z"/>
			
				<ellipse transform="matrix(1.338990e-002 -0.9999 0.9999 1.338990e-002 474.983 561.325)" class="st1" cx="521.9" cy="40" rx="0.5" ry="1"/>
			<path class="st3" d="M528,24c0,0,2-1.1,3.6-0.2c1.6,0.8,1.4,1.6,1.4,2.1c0,0.6-0.3-0.4-1.6-0.3c-0.6,0-0.9,1.9-1.8,1.9
				C528.2,27.3,529.8,25.7,528,24z"/>
			<g>
				<path class="st5" d="M530.4,23.5c0.9,0,1.6,0.3,1.6,0.7c0,0.4-0.7,0.6-1.6,0.6c-0.9,0-1.6-0.3-1.6-0.7
					C528.7,23.8,529.5,23.5,530.4,23.5z"/>
			</g>
			<path class="st1" d="M530.5,24.1c-0.5,0-0.9-0.1-0.9-0.3c0-0.2,0.4-0.3,0.9-0.3c0.5,0,0.9,0.1,0.9,0.3
				C531.4,23.9,531,24.1,530.5,24.1z"/>
			
				<ellipse transform="matrix(0.9988 -4.956940e-002 4.956940e-002 0.9988 -0.6942 26.5387)" class="st3" cx="534.7" cy="27.3" rx="1.5" ry="1.8"/>
			<g>
				<path class="st5" d="M534.7,25.5c0.6,0,1,0.5,1,1.1c0,0.6-0.5,1.1-1.1,1c-0.6,0-1-0.5-1-1.1C533.6,26,534.1,25.5,534.7,25.5z"/>
			</g>
			
				<ellipse transform="matrix(9.739798e-003 -1 1 9.739798e-003 503.6311 560.3763)" class="st1" cx="534.7" cy="25.9" rx="0.4" ry="0.5"/>
		</g>
	</g>
</g>
</svg>
