<?xml version="1.0" encoding="utf-8"?>
<!-- Generator: Adobe Illustrator 19.2.0, SVG Export Plug-In . SVG Version: 6.00 Build 0)  -->
<svg version="1.1" id="Layer_1" xmlns="http://www.w3.org/2000/svg" xmlns:xlink="http://www.w3.org/1999/xlink" x="0px" y="0px"
	 viewBox="0 0 175.8 69.7" style="enable-background:new 0 0 175.8 69.7;" xml:space="preserve">
<style type="text/css">
	.st0{opacity:0.75;}
	.st1{fill:#FFFFFF;}
	.st2{fill:#BF8138;}
	.st3{fill:#F2C671;fill-opacity:0.5;}
	.st4{opacity:0.5;}
	.st5{fill:#F2C671;}
</style>
<g>
	<g>
		<g>
			<g class="st0">
				<path d="M52.2,24.3c0,0.9-0.2,1.8-0.5,2.6c0.4,0.2,0.6,0.5,0.6,0.7c0,0.7-0.3,1.3-0.6,1.8c-0.1,0.1-0.1,0.1-0.2,0.1L50.6,29
					c-0.9,1.4-2.3,3.1-4.4,4.1c-0.8,0.4-1.7,0.7-2.6,0.7c-0.5,0-0.7-0.1-0.7-0.2c0-0.2,0.4-0.3,1-0.7c1.5-0.9,4.5-3.1,5.5-4.5
					c-0.8-0.6-1.9-1.3-1.9-2.4c0-0.8,0.4-1.5,1.1-2.3c0.7-1,1.5-1.4,2.2-1.4C51.8,22.1,52.1,23.4,52.2,24.3z M49,25.2
					c0,0,0,0.1,0,0.1c0,0.2,0.8,0.8,1.4,1c0.2-0.3,0.2-0.6,0.2-1.2c0-0.5-0.2-0.8-0.6-0.8C49.6,24.4,49.2,24.7,49,25.2z"/>
				<path d="M57.1,43.5c-0.2,1.2-0.8,2.9-1.5,3.7c-0.1,0.1-0.2,0.2-0.3,0.2c0,0-0.2,0-0.2,0c-0.5-0.1-1.3-0.3-2.7-0.3
					c-2.9,0-6.4,0.7-6.6,1.8c0,1.5,1.7,7.1,1.7,14.2c0,0.6,0,1.3,0,2c-0.2,3-1,4.8-1.5,4.8c-0.2,0-0.3-0.3-0.3-1c0-0.5,0-1.1,0-1.9
					c0-4.1-0.9-9-1.7-13.5c-0.2-1.3-0.3-2.4-0.3-3.3c0-3.4,1.3-4.6,2-5.3c0-0.2,0-0.4,0-0.6c0-2.7,1.7-7,4.2-7
					c3.1,0,5.6,3.7,7.2,5.9C57,43.2,57.1,43.3,57.1,43.5z M49,41.8c-1.1,0-1.5,1.2-1.7,2.1c1.1-0.7,3.1-0.9,4.1-1
					C50.7,42.2,50,41.8,49,41.8z"/>
				<path d="M68,52c-1.2,0-2.2-0.2-3-0.9c-1.3-1-2-3-2.3-5.5c-0.3-1.9-0.4-4.2-0.5-6.6c-0.1-3.6-0.4-9.1-0.9-12.3c0-0.1,0-0.3,0-0.4
					c0-0.2,0-0.3,0.3-0.7c0.6-0.8,0.9-1.4,1.3-2.1c0.3-0.5,0.4-0.6,0.5-0.6c0.2,0,0.3,0.3,0.5,1.2c0.8,6.3,0.1,15,1.1,19.8
					c0.2,1.2,0.4,1.6,0.7,2.4c0.5,1.1,1.3,1.6,2.6,1.7c1.4,0,2.1,0.7,2.1,2c0,1.6-0.8,2.1-1.9,2.1H68z"/>
				<path d="M83.8,43.9c0.2,0,0.3,0.2,0.3,0.9c0,0.2,0,0.5,0,0.8c0,1.3,1,2,2.1,2c1.8,0,2.7-1.7,3.5-3.2c0.1-0.2,0.3-0.6,0.6-0.6
					c0.2,0,0.3,0.2,0.4,1.1c0.1,1.9,1.2,3,2.8,3.1H94c1.3,0,1.9,0.6,1.9,1.8c0,1.5-0.6,2.2-1.9,2.2h-0.5c-2.3,0-3.5-1.1-3.9-3.5
					c-0.6,1.7-2.1,3.5-4,3.5c-1.9,0-2.9-1.6-3.1-3.5c-0.7,2-2.8,3.4-4.8,3.4c-2.2,0-3.5-0.8-4.1-2.8c-0.3,0.8-0.8,1.4-1.5,2
					c-0.7,0.6-1.9,0.9-3.8,0.9H68c-1.2,0-1.9-0.7-1.9-2.1c0-1.3,0.6-2,1.8-2h0.5c2.8,0,4.7-1,5.7-3.1c0.1-0.2,0.3-0.6,0.6-0.6
					c0.3,0,0.4,0.3,0.4,1c0.1,1.6,1.4,2.4,3.2,2.4c2.2,0,3.8-1,4.9-3.1C83.4,44.3,83.6,43.9,83.8,43.9z"/>
				<path d="M98.6,12.6c1.2,0,3,1.7,3,3.7c0,0.7-0.1,1.4-0.3,2.1c-0.5,1.4-1.7,2.2-3.2,2.2c-1.4,0-2.4-1.1-2.4-2.4
					C95.6,16.5,97.7,12.6,98.6,12.6z M98.2,15.5c-0.5,0-1.3,1.1-1.3,1.7c0,0.5,0.7,1,1.4,1c0.9,0,2-0.5,2-0.9
					C100.3,17,99.2,15.5,98.2,15.5z"/>
				<path d="M103.8,42.7c0,2.1-0.7,5.2-1.7,6.7c-0.4,0.6-1.7,1.2-2.5,1.5c-2.4,0.8-4.4,1.1-5.9,1.1h-0.4c-1.1,0-1.7-0.7-1.7-2.1
					c0-1.3,0.6-2,1.7-2h0.3c2.4,0,5.1-0.4,6.5-0.9c1.3-0.5,1.6-0.6,1.6-1.9c0-0.8-0.2-1.5-0.6-2.3c-0.4,1-1.7,1.8-3.2,1.8
					c-1.9,0-3.2-1.2-3.2-3.5c0-3.2,2.4-7.4,3.6-7.4C101.8,33.7,103.8,39.8,103.8,42.7z M101.3,23.9c0.3-0.3,0.4-0.4,0.6-0.2
					c0.9,0.9,1.8,1.9,2.8,2.5c0.3,0.2,0.3,0.3,0,0.6c-0.8,0.9-1.6,1.8-2.4,2.7c-0.2,0.2-0.3,0.2-0.5,0c-0.7-0.5-1.7-1.3-2.6-2.2
					c-0.5,0.6-1.6,1.8-2,2.1c-0.2,0.1-0.3,0.3-0.7,0.1c-0.9-0.6-2.1-1.5-2.8-2.5c-0.2-0.2-0.2-0.3,0-0.6c0.7-0.8,1.6-1.9,2.5-2.7
					c0.2-0.2,0.3-0.2,0.6,0.1c0.7,0.7,1.9,1.8,2.6,2.2C99.8,25.4,100.8,24.3,101.3,23.9z M99.3,38.2c-0.4-0.3-0.9-0.5-1.3-0.5
					c-0.3,0-0.6,0.2-1,0.8c-0.2,0.4-0.3,0.7-0.3,0.9c0,0.8,0.9,1.1,1.8,1.1c0.9,0,1.7-0.3,1.7-0.9C100.2,39.5,99.9,38.7,99.3,38.2z"
					/>
				<path d="M114.3,3.1c0.2-0.1,0.2-0.1,0.2,0.1c0,1-0.4,2-0.9,2.3l-7.4,4.1c-0.1,0.1-0.2,0-0.2-0.1c0-0.5,0.2-1.4,0.4-1.8
					c0.2-0.3,0.5-0.6,1.2-1L114.3,3.1z"/>
				<path d="M114.2,17.6c-0.3,0.4-0.4,0.5-0.6,0.6c-1.5,0.8-4.7,2.7-7.2,4.5c-0.2,0.2-0.3,0.1-0.3-0.2c0-0.2,0.2-0.7,0.3-1
					c0.1-0.3,0.9-1.1,1.5-1.6c0.2-0.2,0.2-0.2-0.1-0.3c-1.2-0.4-1.7-1-1.7-1.9c0-1.6,1.6-3.9,3.1-5.1c0.5-0.4,1.2-0.9,2-0.9
					c1,0,1.4,0.4,1.5,1.2c0,0.5-0.1,1.1-0.4,1.8c-0.3,0.8-0.5,0.8-1,0.3c-0.3-0.3-0.7-0.4-1-0.4c-1.4,0-2.3,0.8-2.3,1.3
					c0,0.6,2.2,1.5,3.2,1.5c0.1,0,0.2,0,0.5-0.1c0.8-0.2,2.2-0.9,2.5-1.1c0.6-0.4,0.8-0.3,0.5,0.4C114.7,16.6,114.4,17.2,114.2,17.6
					z"/>
				<path d="M128,26.3c0.1,0.3,0.2,0.4,0.2,0.5c0,0.1,0,0.2-0.1,0.4c-0.3,0.8-1,1.7-1.5,2.4c-0.3,4.3-0.9,7.7-2.8,12.6
					c0.6,1.4,0.9,3.4,0.9,5.2c0,1.2-0.2,2.4-0.5,3.3c-0.3,0.7-4.8,1.5-7.8,1.5c-0.8,0-1.5,0-2-0.2c-0.2,0-0.3-0.5-0.3-1.2
					c0-1.1,0.2-2.7,0.5-3.2c0-0.1,0.1-0.1,0.2-0.1c0.2,0,0.2,0,0.4,0c2.5,0,5-2.3,6.6-5.2c-2-4-6.3-9.3-10-11.8
					c-0.1,0.1-0.8,1-1.3,1c-0.6,0-3.9-3.2-4-3.9c-0.1-0.4-0.1-0.8-0.1-1.1c0-1,0.2-2,0.4-2.5c0.2-0.5,0.5-0.7,0.8-0.7
					c0.4,0,0.9,0.3,1.4,0.7c2.8,2,5.8,4.2,8.1,7.2c1.8,2.3,4.1,5.4,5.8,9.2c1-2.3,1.3-3.9,1.5-6.9c0.1-1.7,0.2-3,0.2-3.9
					c0-2.1-0.2-2.8-0.2-3.3c0-0.3,0.1-0.7,0.4-1.3c0.7-1.2,1.2-2.1,1.5-2.1c0.1,0,0.2,0.1,0.3,0.4C127.1,24.1,127.5,25.2,128,26.3z
					 M122.5,44c-1.4,2-1.6,2.4-3,3.7c1.3,0,2.7-0.1,3.8-0.6C123.3,46.4,123.3,45.3,122.5,44z"/>
				<path d="M135.1,52.1c-0.2,0-0.3-0.3-0.3-1.2c0-5.4-2-20.3-2-22.7c0-1.2,0.8-3.1,1.5-4.4c0.2-0.4,0.6-0.9,0.8-0.9
					c0.2,0,0.3,0.3,0.3,1.4c0.2,3.9,1.3,13,1.3,19.6c0,2.6-0.2,4.9-0.6,6.2C135.7,51.4,135.4,52.1,135.1,52.1z"/>
			</g>
			<g>
				<g>
					<path class="st1" d="M49.2,21.3c0,0.9-0.2,1.8-0.5,2.6c0.4,0.2,0.6,0.5,0.6,0.7c0,0.7-0.3,1.3-0.6,1.8
						c-0.1,0.1-0.1,0.1-0.2,0.1L47.6,26c-0.9,1.4-2.3,3.1-4.4,4.1c-0.8,0.4-1.7,0.7-2.6,0.7c-0.5,0-0.7-0.1-0.7-0.2
						c0-0.2,0.4-0.3,1-0.7c1.5-0.9,4.5-3.1,5.5-4.5c-0.8-0.6-1.9-1.3-1.9-2.4c0-0.8,0.4-1.5,1.1-2.3c0.7-1,1.5-1.4,2.2-1.4
						C48.8,19.1,49.1,20.4,49.2,21.3z M46,22.2c0,0,0,0.1,0,0.1c0,0.2,0.8,0.8,1.4,1c0.2-0.3,0.2-0.6,0.2-1.2c0-0.5-0.2-0.8-0.6-0.8
						C46.6,21.4,46.2,21.7,46,22.2z"/>
					<path class="st1" d="M54.1,40.5c-0.2,1.2-0.8,2.9-1.5,3.7c-0.1,0.1-0.2,0.2-0.3,0.2c0,0-0.2,0-0.2,0c-0.5-0.1-1.3-0.3-2.7-0.3
						c-2.9,0-6.4,0.7-6.6,1.8c0,1.5,1.7,7.1,1.7,14.2c0,0.6,0,1.3,0,2c-0.2,3-1,4.8-1.5,4.8c-0.2,0-0.3-0.3-0.3-1c0-0.5,0-1.1,0-1.9
						c0-4.1-0.9-9-1.7-13.5c-0.2-1.3-0.3-2.4-0.3-3.3c0-3.4,1.3-4.6,2-5.3c0-0.2,0-0.4,0-0.6c0-2.7,1.7-7,4.2-7
						c3.1,0,5.6,3.7,7.2,5.9C54,40.2,54.1,40.3,54.1,40.5z M46,38.8c-1.1,0-1.5,1.2-1.7,2.1c1.1-0.7,3.1-0.9,4.1-1
						C47.7,39.2,47,38.8,46,38.8z"/>
					<path class="st1" d="M65,49c-1.2,0-2.2-0.2-3-0.9c-1.3-1-2-3-2.3-5.5c-0.3-1.9-0.4-4.2-0.5-6.6c-0.1-3.6-0.4-9.1-0.9-12.3
						c0-0.1,0-0.3,0-0.4c0-0.2,0-0.3,0.3-0.7c0.6-0.8,0.9-1.4,1.3-2.1c0.3-0.5,0.4-0.6,0.5-0.6c0.2,0,0.3,0.3,0.5,1.2
						c0.8,6.3,0.1,15,1.1,19.8c0.2,1.2,0.4,1.6,0.7,2.4c0.5,1.1,1.3,1.6,2.6,1.7c1.4,0,2.1,0.7,2.1,2c0,1.6-0.8,2.1-1.9,2.1H65z"/>
					<path class="st1" d="M80.8,40.9c0.2,0,0.3,0.2,0.3,0.9c0,0.2,0,0.5,0,0.8c0,1.3,1,2,2.1,2c1.8,0,2.7-1.7,3.5-3.2
						c0.1-0.2,0.3-0.6,0.6-0.6c0.2,0,0.3,0.2,0.4,1.1c0.1,1.9,1.2,3,2.8,3.1H91c1.3,0,1.9,0.6,1.9,1.8c0,1.5-0.6,2.2-1.9,2.2h-0.5
						c-2.3,0-3.5-1.1-3.9-3.5c-0.6,1.7-2.1,3.5-4,3.5c-1.9,0-2.9-1.6-3.1-3.5c-0.7,2-2.8,3.4-4.8,3.4c-2.2,0-3.5-0.8-4.1-2.8
						c-0.3,0.8-0.8,1.4-1.5,2c-0.7,0.6-1.9,0.9-3.8,0.9H65c-1.2,0-1.9-0.7-1.9-2.1c0-1.3,0.6-2,1.8-2h0.5c2.8,0,4.7-1,5.7-3.1
						c0.1-0.2,0.3-0.6,0.6-0.6c0.3,0,0.4,0.3,0.4,1c0.1,1.6,1.4,2.4,3.2,2.4c2.2,0,3.8-1,4.9-3.1C80.4,41.3,80.6,40.9,80.8,40.9z"/>
					<path class="st1" d="M95.6,9.6c1.2,0,3,1.7,3,3.7c0,0.7-0.1,1.4-0.3,2.1c-0.5,1.4-1.7,2.2-3.2,2.2c-1.4,0-2.4-1.1-2.4-2.4
						C92.6,13.5,94.7,9.6,95.6,9.6z M95.2,12.5c-0.5,0-1.3,1.1-1.3,1.7c0,0.5,0.7,1,1.4,1c0.9,0,2-0.5,2-0.9
						C97.3,14,96.2,12.5,95.2,12.5z"/>
					<path class="st1" d="M100.8,39.7c0,2.1-0.7,5.2-1.7,6.7c-0.4,0.6-1.7,1.2-2.5,1.5c-2.4,0.8-4.4,1.1-5.9,1.1h-0.4
						c-1.1,0-1.7-0.7-1.7-2.1c0-1.3,0.6-2,1.7-2h0.3c2.4,0,5.1-0.4,6.5-0.9c1.3-0.5,1.6-0.6,1.6-1.9c0-0.8-0.2-1.5-0.6-2.3
						c-0.4,1-1.7,1.8-3.2,1.8c-1.9,0-3.2-1.2-3.2-3.5c0-3.2,2.4-7.4,3.6-7.4C98.8,30.7,100.8,36.8,100.8,39.7z M98.3,20.9
						c0.3-0.3,0.4-0.4,0.6-0.2c0.9,0.9,1.8,1.9,2.8,2.5c0.3,0.2,0.3,0.3,0,0.6c-0.8,0.9-1.6,1.8-2.4,2.7c-0.2,0.2-0.3,0.2-0.5,0
						c-0.7-0.5-1.7-1.3-2.6-2.2c-0.5,0.6-1.6,1.8-2,2.1c-0.2,0.1-0.3,0.3-0.7,0.1c-0.9-0.6-2.1-1.5-2.8-2.5c-0.2-0.2-0.2-0.3,0-0.6
						c0.7-0.8,1.6-1.9,2.5-2.7c0.2-0.2,0.3-0.2,0.6,0.1c0.7,0.7,1.9,1.8,2.6,2.2C96.8,22.4,97.8,21.3,98.3,20.9z M96.3,35.2
						c-0.4-0.3-0.9-0.5-1.3-0.5c-0.3,0-0.6,0.2-1,0.8c-0.2,0.4-0.3,0.7-0.3,0.9c0,0.8,0.9,1.1,1.8,1.1c0.9,0,1.7-0.3,1.7-0.9
						C97.2,36.5,96.9,35.7,96.3,35.2z"/>
					<path class="st1" d="M111.3,0.1c0.2-0.1,0.2-0.1,0.2,0.1c0,1-0.4,2-0.9,2.3l-7.4,4.1c-0.1,0.1-0.2,0-0.2-0.1
						c0-0.5,0.2-1.4,0.4-1.8c0.2-0.3,0.5-0.6,1.2-1L111.3,0.1z"/>
					<path class="st1" d="M111.2,14.6c-0.3,0.4-0.4,0.5-0.6,0.6c-1.5,0.8-4.7,2.7-7.2,4.5c-0.2,0.2-0.3,0.1-0.3-0.2
						c0-0.2,0.2-0.7,0.3-1c0.1-0.3,0.9-1.1,1.5-1.6c0.2-0.2,0.2-0.2-0.1-0.3c-1.2-0.4-1.7-1-1.7-1.9c0-1.6,1.6-3.9,3.1-5.1
						c0.5-0.4,1.2-0.9,2-0.9c1,0,1.4,0.4,1.5,1.2c0,0.5-0.1,1.1-0.4,1.8c-0.3,0.8-0.5,0.8-1,0.3c-0.3-0.3-0.7-0.4-1-0.4
						c-1.4,0-2.3,0.8-2.3,1.3c0,0.6,2.2,1.5,3.2,1.5c0.1,0,0.2,0,0.5-0.1c0.8-0.2,2.2-0.9,2.5-1.1c0.6-0.4,0.8-0.3,0.5,0.4
						C111.7,13.6,111.4,14.2,111.2,14.6z"/>
					<path class="st1" d="M125,23.3c0.1,0.3,0.2,0.4,0.2,0.5c0,0.1,0,0.2-0.1,0.4c-0.3,0.8-1,1.7-1.5,2.4c-0.3,4.3-0.9,7.7-2.8,12.6
						c0.6,1.4,0.9,3.4,0.9,5.2c0,1.2-0.2,2.4-0.5,3.3c-0.3,0.7-4.8,1.5-7.8,1.5c-0.8,0-1.5,0-2-0.2c-0.2,0-0.3-0.5-0.3-1.2
						c0-1.1,0.2-2.7,0.5-3.2c0-0.1,0.1-0.1,0.2-0.1c0.2,0,0.2,0,0.4,0c2.5,0,5-2.3,6.6-5.2c-2-4-6.3-9.3-10-11.8
						c-0.1,0.1-0.8,1-1.3,1c-0.6,0-3.9-3.2-4-3.9c-0.1-0.4-0.1-0.8-0.1-1.1c0-1,0.2-2,0.4-2.5c0.2-0.5,0.5-0.7,0.8-0.7
						c0.4,0,0.9,0.3,1.4,0.7c2.8,2,5.8,4.2,8.1,7.2c1.8,2.3,4.1,5.4,5.8,9.2c1-2.3,1.3-3.9,1.5-6.9c0.1-1.7,0.2-3,0.2-3.9
						c0-2.1-0.2-2.8-0.2-3.3c0-0.3,0.1-0.7,0.4-1.3c0.7-1.2,1.2-2.1,1.5-2.1c0.1,0,0.2,0.1,0.3,0.4C124.1,21.1,124.5,22.2,125,23.3z
						 M119.5,41c-1.4,2-1.6,2.4-3,3.7c1.3,0,2.7-0.1,3.8-0.6C120.3,43.4,120.3,42.3,119.5,41z"/>
					<path class="st1" d="M132.1,49.1c-0.2,0-0.3-0.3-0.3-1.2c0-5.4-2-20.3-2-22.7c0-1.2,0.8-3.1,1.5-4.4c0.2-0.4,0.6-0.9,0.8-0.9
						c0.2,0,0.3,0.3,0.3,1.4c0.2,3.9,1.3,13,1.3,19.6c0,2.6-0.2,4.9-0.6,6.2C132.7,48.4,132.4,49.1,132.1,49.1z"/>
				</g>
			</g>
		</g>
	</g>
	<g>
		<g>
			<g>
				<g>
					<path class="st2" d="M8.7,38.7c0,0,1.5-3,4.6-1.4c-1.3-2.1-0.6-4.8,0-5.6c1,3.4,2.8,6.3,6.9,7h2.4l-1,0c3,0,5.8-2.2,5.8-6
						c0-3.8-2.3-5-3.6-5.1c-0.6,0-1.2,0.1-1.7,0.3c-1.3,0.3-2.2,1.5-2.2,2.8c0,1.6,1.4,2.9,3.1,2.9c0.6,0,1.2-0.2,1.7-0.5
						c-0.1,1.6-1.4,3-3.4,3c-2.5,0-5.5-2.5-4.3-7.5c-1.1-0.9-4.6-1.2-5.4,1.8c0,0,0,0,0,0c-0.3-0.2-0.6-0.3-1-0.3
						c-1.1,0-2.1,1.2-2.1,2.6c0,0.8,0.3,1.4,0.7,1.9c-5-0.9-9.1,4.2-9.1,4.2s0,0,0,0H8.7z M21.6,38.9l1,0h-2.4c-4,0.7-5.9,3.6-6.9,7
						c-0.6-0.8-1.3-3.5,0-5.6c-3.1,1.6-4.6-1.4-4.6-1.4H0c0,0,0,0,0,0s4,5,9,4.2c-0.4,0.5-0.6,1.1-0.6,1.8c0,1.4,0.9,2.6,2.1,2.6
						c0.4,0,0.7-0.1,1-0.4c0,0.1,0,0.1,0,0.1c0.8,3,4.2,2.8,5.4,1.8c-1.2-5,1.8-7.5,4.3-7.5c2,0,3.3,1.4,3.4,3
						c-0.5-0.3-1.1-0.5-1.7-0.5c-1.7,0-3.1,1.3-3.1,2.9c0,1.3,0.9,2.4,2.2,2.8c0.5,0.2,1.1,0.3,1.7,0.3c1.3-0.1,3.6-1.3,3.6-5.1
						C27.4,41.1,24.6,38.9,21.6,38.9z"/>
				</g>
			</g>
			<path class="st3" d="M11.7,41.3c0,0-0.1,2.2-0.2,2.7c0,0.8-0.6,1.3-1.2,1.3c-0.7,0-1.1-0.7-1.1-1.4c0-0.5,0.2-0.9,0.6-1.1
				C9.9,42.7,10.8,41.9,11.7,41.3z"/>
			<path class="st3" d="M11.4,41.7c0,0-0.1,1.3-0.1,1.5c0,0.4-0.3,0.8-0.7,0.7c-0.4,0-0.6-0.4-0.6-0.8c0-0.3,0.1-0.5,0.3-0.6
				C10.4,42.5,10.9,42,11.4,41.7z"/>
			<g>
				<g class="st4">
					<path class="st5" d="M10.1,35.1c-1.1-0.5-2.5-1.2-5.8,0.1c-1.1,0.5-2.3,1.4-2.9,2.1c-1,1,0.3,1.7,2.5,1.7
						c2.2,0,2.6-0.6,3.9-1.9C9.2,35.6,10.9,35.5,10.1,35.1z"/>
				</g>
			</g>
			<g class="st4">
				<g>
					<path class="st5" d="M24.7,28c-0.4-0.3-0.9-0.4-1.5-0.4c-0.1,0-0.2,0-0.2,0c0,0,0,0,0,0c0,0,0,0,0,0c-0.1,0-0.2,0-0.3,0
						c-0.1,0-0.3,0-0.4,0c0,0,0,0,0,0.1c-1,0.3-1.8,1-1.7,1.8c0,1,1.2,1.7,2.6,1.6c0.9,0,1.7-0.4,2.1-0.9c0.2,0.5,0.4,1.2,0.4,1.8
						c0.1,2.1-1.5,4.2-4,4.2c-1.7,0-2.6-0.1-3.9-1.2c-1.3-1.1-0.3,2.4,4.1,2.4c3.2,0,5.3-2.9,5.3-5.1C27.1,30.5,26.2,28.8,24.7,28z"
						/>
				</g>
			</g>
			<g>
				
					<ellipse transform="matrix(0.9999 -1.343745e-002 1.343745e-002 0.9999 -0.3837 0.3119)" class="st5" cx="23" cy="28.7" rx="1.8" ry="1.2"/>
			</g>
			
				<ellipse transform="matrix(0.9999 -1.348834e-002 1.348834e-002 0.9999 -0.3763 0.3113)" class="st1" cx="22.9" cy="28.1" rx="1" ry="0.5"/>
			<g>
				<path class="st5" d="M4.7,34.9c-1.2,0.4-2,1.2-1.8,1.8c0.2,0.6,1.4,0.7,2.6,0.3c1.2-0.4,2-1.2,1.8-1.8
					C7.1,34.6,5.9,34.5,4.7,34.9z"/>
			</g>
			<path class="st1" d="M4.9,35.9c0.7-0.2,1.1-0.6,1-0.9c-0.1-0.3-0.7-0.3-1.4-0.1c-0.7,0.2-1.1,0.6-1,0.9
				C3.7,36.1,4.3,36.1,4.9,35.9z"/>
			<g>
				<g class="st4">
					<path class="st5" d="M26.9,44c0-2.1-2.1-4.9-5.3-4.9c-4.1,0-5.6,2.2-4.2,2.2c1.4,0,1.3-0.9,3.7-0.9c2.3,0,4.5,2.1,4.4,4.1
						c0,0.3-0.1,0.5-0.1,0.8C25,44.6,24.2,44,23.1,44c-1.3-0.1-2.4,0.6-2.5,1.5c0,0.8,0.7,1.4,1.7,1.7c0,0,0,0,0,0
						c0.1,0,0.3,0,0.4,0c0,0,0.1,0,0.1,0c0,0,0.1,0,0.1,0c0.2,0,0.4,0,0.6,0C25.8,47.2,26.9,45.9,26.9,44z"/>
				</g>
			</g>
			<g>
				
					<ellipse transform="matrix(0.9999 -1.344265e-002 1.344265e-002 0.9999 -0.6044 0.3135)" class="st5" cx="23" cy="45.1" rx="1.8" ry="1.2"/>
			</g>
			<g>
				<path class="st5" d="M21.5,39.1c-0.9,0-1.6,0.3-1.6,0.6c0,0.3,0.7,0.6,1.6,0.6c0.9,0,1.6-0.3,1.6-0.6
					C23.1,39.3,22.4,39.1,21.5,39.1z"/>
			</g>
			<path class="st1" d="M21.4,39.6c0.5,0,0.9-0.1,0.9-0.2c0-0.1-0.4-0.2-0.9-0.2c-0.5,0-0.9,0.1-0.9,0.3
				C20.5,39.5,20.9,39.6,21.4,39.6z"/>
			
				<ellipse transform="matrix(0.9999 -1.348834e-002 1.348834e-002 0.9999 -0.5976 0.3128)" class="st1" cx="22.9" cy="44.5" rx="1" ry="0.5"/>
			<path class="st3" d="M16.9,28.5c0,0-2-1.1-3.6-0.2c-1.6,0.8-1.4,1.6-1.4,2.1c0,0.6,0.3-0.4,1.6-0.3c0.6,0,0.9,1.9,1.8,1.9
				C16.6,31.8,15.1,30.2,16.9,28.5z"/>
			<g>
				<path class="st5" d="M14.5,28c-0.9,0-1.6,0.3-1.6,0.7c0,0.4,0.7,0.6,1.6,0.6c0.9,0,1.6-0.3,1.6-0.7C16.1,28.3,15.4,28,14.5,28z"
					/>
			</g>
			<path class="st1" d="M14.4,28.6c0.5,0,0.9-0.1,0.9-0.3c0-0.2-0.4-0.3-0.9-0.3c-0.5,0-0.9,0.1-0.9,0.3
				C13.5,28.4,13.9,28.6,14.4,28.6z"/>
			
				<ellipse transform="matrix(5.008120e-002 -0.9987 0.9987 5.008120e-002 -22.1021 40.277)" class="st3" cx="10.1" cy="31.8" rx="1.8" ry="1.5"/>
			<g>
				<path class="st5" d="M10.1,30c-0.6,0-1,0.5-1,1.1c0,0.6,0.5,1.1,1.1,1c0.6,0,1-0.5,1-1.1C11.2,30.5,10.7,30,10.1,30z"/>
			</g>
			
				<ellipse transform="matrix(1 -9.864655e-003 9.864655e-003 1 -0.2994 0.101)" class="st1" cx="10.1" cy="30.4" rx="0.5" ry="0.4"/>
		</g>
		<g>
			<g>
				<g>
					<path class="st2" d="M154.2,38.6l-1,0h2.4c4-0.7,5.9-3.6,6.9-7c0.6,0.8,1.3,3.5,0,5.6c3.1-1.6,4.6,1.4,4.6,1.4h8.7c0,0,0,0,0,0
						s-4.1-5.1-9.1-4.2c0.4-0.5,0.7-1.1,0.7-1.9c0-1.4-0.9-2.6-2.1-2.6c-0.4,0-0.7,0.1-1,0.3c0,0,0,0,0,0c-0.8-3-4.2-2.8-5.4-1.8
						c1.2,5-1.8,7.5-4.3,7.5c-2,0-3.3-1.4-3.4-3c0.5,0.3,1.1,0.5,1.7,0.5c1.7,0,3.1-1.3,3.1-2.9c0-1.3-1-2.4-2.2-2.8
						c-0.5-0.2-1.1-0.3-1.7-0.3c-1.3,0.1-3.6,1.3-3.6,5.1C148.4,36.4,151.2,38.6,154.2,38.6z M167.1,38.9c0,0-1.5,3-4.6,1.4
						c1.3,2.1,0.6,4.8,0,5.6c-1-3.4-2.8-6.3-6.9-7h-2.4l1,0c-3,0-5.8,2.2-5.8,6c0,3.8,2.3,5,3.6,5.1c0.6,0,1.2-0.1,1.7-0.3
						c1.3-0.3,2.2-1.5,2.2-2.8c0-1.6-1.4-2.9-3.1-2.9c-0.6,0-1.2,0.2-1.7,0.5c0.1-1.6,1.4-3,3.4-3c2.5,0,5.5,2.5,4.3,7.5
						c1.1,0.9,4.6,1.2,5.4-1.8c0,0,0,0,0-0.1c0.3,0.2,0.7,0.4,1,0.4c1.1,0,2.1-1.2,2.1-2.6c0-0.7-0.2-1.3-0.6-1.8c5,0.8,9-4.2,9-4.2
						s0,0,0,0H167.1z"/>
				</g>
			</g>
			<path class="st3" d="M164.1,41.3c0,0,0.1,2.2,0.2,2.7c0,0.8,0.6,1.3,1.2,1.3c0.7,0,1.1-0.7,1.1-1.4c0-0.5-0.2-0.9-0.6-1.1
				C165.9,42.7,165,41.9,164.1,41.3z"/>
			<path class="st3" d="M164.4,41.7c0,0,0.1,1.3,0.1,1.5c0,0.4,0.3,0.8,0.7,0.7c0.4,0,0.6-0.4,0.6-0.8c0-0.3-0.1-0.5-0.3-0.6
				C165.4,42.5,164.8,42,164.4,41.7z"/>
			<g>
				<g class="st4">
					<path class="st5" d="M174.4,37.3c-0.7-0.7-1.8-1.6-2.9-2.1c-3.3-1.3-4.7-0.6-5.8-0.1c-0.8,0.4,0.9,0.5,2.4,2
						c1.3,1.3,1.8,1.9,3.9,1.9C174.1,39,175.4,38.2,174.4,37.3z"/>
				</g>
			</g>
			<g class="st4">
				<g>
					<path class="st5" d="M158.2,34.9c-1.3,1.1-2.2,1.2-3.9,1.2c-2.5,0-4.1-2.1-4-4.2c0-0.7,0.2-1.3,0.4-1.8
						c0.4,0.5,1.2,0.9,2.1,0.9c1.4,0.1,2.5-0.7,2.6-1.6c0-0.8-0.7-1.5-1.7-1.8c0,0,0,0,0-0.1c-0.1,0-0.3,0-0.4,0c-0.1,0-0.2,0-0.3,0
						c0,0,0,0,0,0c0,0,0,0,0,0c-0.1,0-0.2,0-0.2,0c-0.6,0-1.1,0.2-1.5,0.4c-1.5,0.8-2.3,2.5-2.3,4.1c0,2.2,2.1,5.1,5.3,5.1
						C158.5,37.3,159.5,33.8,158.2,34.9z"/>
				</g>
			</g>
			<g>
				
					<ellipse transform="matrix(1.339453e-002 -0.9999 0.9999 1.339453e-002 122.0219 181.0868)" class="st5" cx="152.8" cy="28.7" rx="1.2" ry="1.8"/>
			</g>
			
				<ellipse transform="matrix(1.348834e-002 -0.9999 0.9999 1.348834e-002 122.7861 180.5644)" class="st1" cx="152.9" cy="28.1" rx="0.5" ry="1"/>
			<g>
				<path class="st5" d="M171.1,34.9c1.2,0.4,2,1.2,1.8,1.8c-0.2,0.6-1.4,0.7-2.6,0.3c-1.2-0.4-2-1.2-1.8-1.8
					C168.7,34.6,169.8,34.5,171.1,34.9z"/>
			</g>
			<path class="st1" d="M170.9,35.9c-0.7-0.2-1.1-0.6-1-0.9c0.1-0.3,0.7-0.3,1.4-0.1c0.7,0.2,1.1,0.6,1,0.9
				C172.1,36.1,171.5,36.1,170.9,35.9z"/>
			<g>
				<g class="st4">
					<path class="st5" d="M154.2,39.1c-3.2,0-5.3,2.8-5.3,4.9c0,1.9,1.1,3.1,3.4,3.3c0.2,0,0.4,0,0.6,0c0,0,0.1,0,0.1,0
						c0,0,0.1,0,0.1,0c0.1,0,0.3,0,0.4,0c0,0,0,0,0,0c1-0.2,1.7-0.9,1.7-1.7c0-0.9-1.2-1.6-2.5-1.5c-1,0.1-1.9,0.6-2.2,1.2
						c0-0.2-0.1-0.5-0.1-0.8c-0.1-2,2.1-4.1,4.4-4.1c2.4,0,2.4,0.9,3.7,0.9C159.8,41.3,158.3,39.1,154.2,39.1z"/>
				</g>
			</g>
			<g>
				
					<ellipse transform="matrix(1.339971e-002 -0.9999 0.9999 1.339971e-002 105.6146 197.2748)" class="st5" cx="152.8" cy="45.1" rx="1.2" ry="1.8"/>
			</g>
			<g>
				<path class="st5" d="M154.3,39.1c0.9,0,1.6,0.3,1.6,0.6c0,0.3-0.7,0.6-1.6,0.6c-0.9,0-1.6-0.3-1.6-0.6
					C152.7,39.3,153.4,39.1,154.3,39.1z"/>
			</g>
			<path class="st1" d="M154.4,39.6c-0.5,0-0.9-0.1-0.9-0.2c0-0.1,0.4-0.2,0.9-0.2c0.5,0,0.9,0.1,0.9,0.3
				C155.3,39.5,154.9,39.6,154.4,39.6z"/>
			
				<ellipse transform="matrix(1.348834e-002 -0.9999 0.9999 1.348834e-002 106.3804 196.7504)" class="st1" cx="152.9" cy="44.5" rx="0.5" ry="1"/>
			<path class="st3" d="M158.9,28.5c0,0,2-1.1,3.6-0.2c1.6,0.8,1.4,1.6,1.4,2.1c0,0.6-0.3-0.4-1.6-0.3c-0.6,0-0.9,1.9-1.8,1.9
				C159.2,31.8,160.7,30.2,158.9,28.5z"/>
			<g>
				<path class="st5" d="M161.3,28c0.9,0,1.6,0.3,1.6,0.7c0,0.4-0.7,0.6-1.6,0.6c-0.9,0-1.6-0.3-1.6-0.7
					C159.7,28.3,160.4,28,161.3,28z"/>
			</g>
			<path class="st1" d="M161.4,28.6c-0.5,0-0.9-0.1-0.9-0.3c0-0.2,0.4-0.3,0.9-0.3c0.5,0,0.9,0.1,0.9,0.3
				C162.3,28.4,161.9,28.6,161.4,28.6z"/>
			
				<ellipse transform="matrix(0.9988 -4.956940e-002 4.956940e-002 0.9988 -1.3705 8.2513)" class="st3" cx="165.7" cy="31.8" rx="1.5" ry="1.8"/>
			<g>
				<path class="st5" d="M165.7,30c0.6,0,1,0.5,1,1.1c0,0.6-0.5,1.1-1.1,1c-0.6,0-1-0.5-1-1.1C164.6,30.5,165.1,30,165.7,30z"/>
			</g>
			
				<ellipse transform="matrix(7.367433e-003 -1 1 7.367433e-003 134.0888 195.8826)" class="st1" cx="165.7" cy="30.4" rx="0.4" ry="0.5"/>
		</g>
	</g>
</g>
</svg>
