<?xml version="1.0" encoding="utf-8"?>
<!-- Generator: Adobe Illustrator 16.0.0, SVG Export Plug-In . SVG Version: 6.00 Build 0)  -->
<!DOCTYPE svg PUBLIC "-//W3C//DTD SVG 1.1//EN" "http://www.w3.org/Graphics/SVG/1.1/DTD/svg11.dtd">
<svg version="1.1" id="Layer_1" xmlns="http://www.w3.org/2000/svg" xmlns:xlink="http://www.w3.org/1999/xlink" x="0px" y="0px"
	 width="514.09px" height="771.134px" viewBox="253.388 0 514.09 771.134" enable-background="new 253.388 0 514.09 771.134"
	 xml:space="preserve">
<g>
	<g>
		<g>
			<path fill="#FFFFFF" d="M767.478,636.343v134.791h-514.09c3.135-53.289,12.539-94.04,21.943-125.388
				c15.673-47.021,47.021-90.906,94.041-128.522c103.445-68.963,172.408-122.253,206.89-163.004
				c28.212-31.347,43.885-68.963,43.885-109.714c0-81.502-34.481-122.253-103.444-122.253c-31.347,0-56.425,9.404-75.232,31.347
				c-21.943,21.943-31.347,53.29-31.347,97.176v28.212H265.927c-3.135-90.906,15.673-159.869,59.559-206.89S428.931,0,510.433,0
				c87.771,0,153.601,25.077,200.62,72.098c37.617,40.751,56.425,94.041,56.425,153.6c0,53.29-12.539,97.176-34.481,134.792
				c-18.809,31.347-50.155,65.829-97.176,100.311c-34.481,28.212-72.098,53.289-106.579,81.502
				c-47.021,37.616-75.233,68.963-84.637,90.906h322.873V636.343z"/>
		</g>
	</g>
</g>
</svg>
