<?xml version="1.0" encoding="utf-8"?>
<!-- Generator: Adobe Illustrator 22.0.1, SVG Export Plug-In . SVG Version: 6.00 Build 0)  -->
<svg version="1.1" id="Layer_1" xmlns="http://www.w3.org/2000/svg" xmlns:xlink="http://www.w3.org/1999/xlink" x="0px" y="0px"
	 viewBox="0 0 241.9 31.5" style="enable-background:new 0 0 241.9 31.5;" xml:space="preserve">
<style type="text/css">
	.st0{fill:#BA0017;}
	.st1{fill:none;}
</style>
<g>
	<g>
		<g>
			<g>
				<g>
					<path class="st0" d="M59.2,25.7c0,0.3-0.1,0.5-0.4,0.8c-0.5,0.2-1.3,0.5-2.4,1c0-0.2,0.1-0.5,0.4-0.7
						C57.2,26.5,58,26.2,59.2,25.7z"/>
					<path class="st0" d="M63.3,20.5c0,1.2-0.4,2.1-1.1,2.7c-0.8,0.6-2,0.9-3.8,0.9c-1.1,0-2-0.2-2.5-0.6c-0.6-0.4-1-1.1-1-2
						c0-0.5,0.1-1,0.2-1.4s0.3-1,0.5-1.5c0.1-0.3,0.3-0.8,0.6-1.4l0.3,0.2c-0.4,0.8-0.6,1.4-0.8,1.9c-0.1,0.5-0.2,0.9-0.2,1.3
						c0,0.7,0.2,1.2,0.7,1.6c0.5,0.4,1.2,0.5,2.1,0.5c1,0,2-0.2,2.8-0.6c1-0.5,1.5-1.1,1.5-1.9c0-0.6-0.1-1.1-0.2-1.6
						c-0.1-0.4-0.3-0.8-0.6-1.1l0.7-1.7c0.3,0.4,0.5,0.9,0.6,1.4s0.2,1.1,0.2,1.9V20.5z M60.2,14.2l-0.6,1.2l-1.3-0.7l0.6-1.2
						L60.2,14.2z"/>
					<path class="st0" d="M67.4,11.2c0,0.3-0.1,0.7-0.4,0.9s-0.6,0.4-0.9,0.4c-0.3,0-0.5-0.1-0.7-0.2s-0.2-0.4-0.2-0.7
						c0-0.4,0.1-0.8,0.3-1.1s0.5-0.5,0.8-0.5c0.3,0,0.6,0.1,0.8,0.4S67.4,10.9,67.4,11.2z M66.9,11.4c0-0.2-0.1-0.3-0.3-0.5
						s-0.4-0.3-0.5-0.3c-0.1,0-0.3,0.1-0.4,0.2c-0.1,0.1-0.1,0.3-0.1,0.4c0,0.2,0.1,0.3,0.3,0.4c0.1,0.1,0.4,0.1,0.6,0.1
						c0.1,0,0.3,0,0.3-0.1S66.9,11.5,66.9,11.4z"/>
					<path class="st0" d="M67.5,20.5h-4.7v-1.4h4.1c0-0.7-0.1-1.2-0.2-1.5c-0.1-0.2-0.4-0.6-0.8-1l0.6-1.4c0.4,0.5,0.6,0.9,0.7,1.2
						c0.1,0.4,0.2,1.1,0.2,2.1V20.5z M65.5,23l-0.6,1.2l-1.3-0.7l0.6-1.2L65.5,23z M67.4,22.2l-0.6,1.2l-1.3-0.7l0.6-1.2L67.4,22.2z
						"/>
					<path class="st0" d="M71.4,8.2c0,0.3-0.1,0.5-0.4,0.8c-0.5,0.2-1.3,0.5-2.4,1c0-0.2,0.1-0.5,0.4-0.7C69.3,9,70.2,8.7,71.4,8.2z
						"/>
					<path class="st0" d="M72,20.5h-5.1v-1.4h4.4c0-0.5-0.1-1-0.2-1.4c-0.3,0.1-0.5,0.2-0.7,0.2C70.2,18,70,18,69.8,18
						c-0.4,0-0.7-0.1-1-0.3c-0.3-0.2-0.4-0.6-0.4-1c0-0.8,0.1-1.4,0.4-2c0.3-0.6,0.7-1,1.2-1c0.7,0,1.2,0.5,1.6,1.6
						c0.3,0.9,0.5,1.9,0.5,3.1V20.5z M69.8,11.8L69.2,13l-1.3-0.7l0.6-1.2L69.8,11.8z M70.7,16.2c-0.1-0.2-0.2-0.4-0.4-0.6
						c-0.2-0.3-0.5-0.4-0.7-0.4c-0.1,0-0.3,0.1-0.4,0.2c-0.1,0.1-0.1,0.3-0.1,0.4c0,0.4,0.2,0.7,0.7,0.7c0.1,0,0.3,0,0.4-0.1
						C70.4,16.4,70.5,16.3,70.7,16.2z M71.7,11.1l-0.6,1.2l-1.3-0.7l0.6-1.2L71.7,11.1z"/>
					<path class="st0" d="M78.1,26.1c0,0.3-0.1,0.5-0.4,0.8c-0.5,0.2-1.3,0.5-2.4,1c0-0.2,0.1-0.5,0.4-0.7
						C76,26.9,76.9,26.6,78.1,26.1z"/>
					<path class="st0" d="M80.3,20.5c0,0.6-0.3,1.2-0.8,1.9c-0.5,0.6-1,1.1-1.7,1.5c-0.6,0.4-1.2,0.6-1.6,0.6
						c-0.4,0-0.8-0.1-1.2-0.2c-0.3-0.1-0.7-0.2-1.2-0.4c-0.4-0.2-0.8-0.3-1.2-0.4l0.1-0.3c0.4,0.1,0.7,0.1,1.1,0.2
						c0.4,0.1,0.8,0.1,1.1,0.1c0.7,0,1.4-0.2,2.2-0.7c0.7-0.4,1.3-0.9,1.8-1.6s0.7-1.2,0.7-1.7c0-0.4-0.1-0.9-0.4-1.4
						c-0.2-0.4-0.5-0.8-0.9-1.2l0.5-1.3c0.5,0.4,0.8,0.8,1,1.3c0.2,0.5,0.4,1,0.4,1.6V20.5z"/>
					<path class="st0" d="M84.2,20.5h-1.2c-0.4,0-0.7-0.2-0.9-0.5c-0.2-0.3-0.4-0.7-0.5-1.2c-0.1-0.5-0.2-1.2-0.2-1.9
						c0-0.6-0.1-1.3-0.1-1.9c0-0.7-0.1-1.2-0.1-1.5c-0.1-0.3-0.1-0.6-0.2-0.8c-0.1-0.3-0.3-0.5-0.5-0.7l1-1.6
						c0.2,0.7,0.4,1.5,0.5,2.4c0.1,0.6,0.1,1.9,0.2,4.1c0.1,1,0.2,1.6,0.4,1.9c0.2,0.2,0.3,0.3,0.5,0.3h1.2V20.5z"/>
					<path class="st0" d="M89.3,10.8c0,0.4-0.1,0.8-0.2,1c-0.2,0.3-0.4,0.4-0.7,0.4c-0.1,0-0.2,0-0.3-0.1c-0.1,0-0.2-0.1-0.3-0.2
						c-0.1,0.2-0.2,0.3-0.3,0.4c-0.2,0.2-0.4,0.3-0.6,0.3c-0.2,0-0.4-0.1-0.5-0.2c-0.1-0.2-0.2-0.4-0.2-0.6c0-0.1,0-0.3,0.1-0.5
						c0-0.1,0.1-0.2,0.2-0.4l0.2-0.1c0,0,0,0.1,0,0.2s0,0.2,0,0.2c0,0.1,0,0.2,0.1,0.3s0.1,0.1,0.2,0.1c0.2,0,0.4-0.2,0.6-0.5
						c0.1-0.1,0.1-0.4,0.2-0.8l0.2,0c0,0.3,0.1,0.4,0.1,0.5c0.1,0.2,0.2,0.3,0.3,0.3c0.2,0,0.4-0.1,0.5-0.4c0.1-0.2,0.1-0.5,0.1-0.7
						l0.2,0c0,0.1,0,0.2,0.1,0.4C89.3,10.6,89.3,10.7,89.3,10.8z M89.2,8.8c0,0.3-0.1,0.5-0.4,0.8c-0.5,0.2-1.3,0.5-2.4,1
						c0-0.2,0.1-0.5,0.4-0.7C87.2,9.6,88,9.3,89.2,8.8z"/>
					<path class="st0" d="M93.2,20.5h-0.6c-0.4,0-0.7,0-0.9-0.1S91.2,20.2,91,20c-0.3,0.2-0.5,0.3-0.7,0.4c-0.3,0.1-0.7,0.2-1.2,0.2
						h-0.5c-0.3,0-0.6-0.1-0.9-0.2c-0.2-0.1-0.4-0.2-0.7-0.4c-0.3,0.2-0.5,0.3-0.7,0.4c-0.2,0.1-0.6,0.1-1.1,0.1h-1.6v-1.4h1.6
						c0.4,0,0.8,0,1-0.1c0.3-0.1,0.5-0.4,0.5-0.8c0-0.2,0-0.3,0-0.5c0-0.2,0-0.3-0.1-0.5l0.3-0.5c0.2,0.5,0.3,0.9,0.4,1.1
						c0.2,0.4,0.4,0.7,0.6,0.9c0.3,0.2,0.6,0.4,0.9,0.4h0.6c0.4,0,0.7-0.1,0.9-0.2c0.2-0.1,0.3-0.4,0.3-0.7c0-0.2,0-0.3,0-0.5
						c0-0.2-0.1-0.3-0.1-0.5l0.3-0.5l0.2,0.8c0.1,0.6,0.3,1,0.5,1.3c0.2,0.2,0.4,0.3,0.8,0.3c0.1,0,0.3,0,0.4-0.1
						c0.1-0.1,0.1-0.2,0.1-0.4c0-0.3-0.1-0.6-0.3-1c0-0.1-0.2-0.2-0.4-0.5l0.5-0.9c0.2,0.3,0.4,0.6,0.5,0.9c0.1,0.4,0.2,0.9,0.2,1.5
						V20.5z"/>
					<path class="st0" d="M96.8,20.5h-4.1v-1.4h3.3l-1-7l-0.4-0.2c0-0.4,0-0.7,0.1-1.1s0.2-0.7,0.3-1L95,9.9c0,0.3,0.2,0.6,0.5,0.7
						c0.3,0.1,0.6,0.2,0.8,0.3c0,0.3,0,0.6-0.1,0.9s-0.1,0.6-0.2,0.7l-0.4-0.1l1,6.5V20.5z"/>
					<path class="st0" d="M99.6,18.4c0,0.4-0.1,0.9-0.2,1.3c-0.1,0.2-0.3,0.6-0.5,1.1l-0.1-0.1c0-0.2,0-0.3,0-0.6c0-0.2,0-0.4,0-0.4
						c0-0.6,0-1.4-0.1-2.4c-0.1-1-0.2-2.1-0.3-3.2c-0.1-0.7-0.2-1.4-0.3-2.1c0.1-0.2,0.2-0.5,0.4-0.8c0.1-0.3,0.3-0.5,0.4-0.8
						c0.1,0.6,0.2,1.5,0.3,2.6c0.1,1.1,0.2,2.1,0.3,3C99.5,17,99.6,17.9,99.6,18.4z"/>
					<path d="M115,20.5h-1.5c-0.9,0-1.5,0-1.9,0.1c-0.4,0-0.6,0.1-0.6,0.3c0,0.2,0.3,0.3,0.8,0.3c0.2,0,0.4,0,0.5,0s0.4,0,0.9,0.1
						c0.3,0,0.4,0.1,0.5,0.1c0.2,0.1,0.2,0.2,0.2,0.4c0,1-0.3,1.8-1,2.3c-0.7,0.5-2,0.8-3.7,0.8c-1.2,0-2.1-0.2-2.8-0.6
						c-0.7-0.4-1.1-1-1.1-1.8c0-0.6,0.2-1.3,0.5-2c0.1-0.3,0.5-0.8,1-1.7l0.3,0.2c-0.2,0.4-0.4,0.7-0.6,1.1
						c-0.3,0.6-0.5,1.1-0.5,1.5c0,0.7,0.4,1.2,1.1,1.6c0.7,0.3,1.6,0.5,2.8,0.5c0.8,0,1.5-0.1,2.1-0.2c0.7-0.1,1.1-0.4,1.1-0.6
						c0-0.1,0-0.2-0.1-0.2s-0.2-0.1-0.4-0.1c-0.1,0-0.4,0-0.7-0.1c-0.3,0-0.5,0-0.6,0c-0.3,0-0.6,0-0.7-0.1
						c-0.1-0.1-0.2-0.2-0.2-0.4c0-0.7,0.2-1.2,0.6-1.7c0.3-0.4,0.8-0.6,1.3-0.8c0.4-0.1,0.9-0.2,1.3-0.2h1.5V20.5z M109.9,25.9
						l-0.8,0.7l-1-0.6l0.8-0.8L109.9,25.9z M111.6,25.9l-0.8,0.7l-0.9-0.6l0.7-0.8L111.6,25.9z"/>
					<path d="M129.4,20.5h-10c-0.3,0-0.6-0.1-0.9-0.2c-0.2-0.1-0.4-0.2-0.7-0.4c-0.2,0.2-0.5,0.3-0.7,0.4c-0.2,0.1-0.6,0.1-1.1,0.1
						h-1.6v-1.4h1.6c0.4,0,0.8,0,1-0.1c0.3-0.1,0.5-0.4,0.5-0.8c0-0.2,0-0.3,0-0.5c0-0.2,0-0.3-0.1-0.5l0.3-0.5
						c0.2,0.8,0.5,1.3,0.8,1.7c0.4,0.4,0.8,0.7,1.3,0.7c0.5,0,1-0.1,1.6-0.3c0.7-0.2,1.3-0.5,1.7-0.9c0.8-0.6,1.3-0.9,1.5-1
						c0.4-0.3,0.9-0.5,1.2-0.6c0.4-0.1,0.9-0.2,1.3-0.2c0.8,0,1.3,0.2,1.7,0.7c0.4,0.4,0.5,1,0.5,1.7V20.5z M124.1,13.6l-0.6,1.2
						l-1.3-0.7l0.6-1.2L124.1,13.6z M128,18.5c0-0.3-0.2-0.5-0.5-0.6s-0.7-0.2-1.2-0.2c-0.6,0-1.2,0.2-2,0.6
						c-0.6,0.3-1.2,0.6-1.9,0.9h3.8c0.6,0,1-0.1,1.3-0.2S128,18.7,128,18.5z"/>
					<path d="M133.3,20.5h-1.2c-0.4,0-0.7-0.2-0.9-0.5c-0.2-0.3-0.4-0.7-0.5-1.2c-0.1-0.5-0.2-1.2-0.2-1.9c0-0.6-0.1-1.3-0.1-1.9
						c0-0.7-0.1-1.2-0.1-1.5c-0.1-0.3-0.1-0.6-0.2-0.8c-0.1-0.3-0.3-0.5-0.5-0.7l1-1.6c0.2,0.7,0.4,1.5,0.5,2.4
						c0.1,0.6,0.1,1.9,0.2,4.1c0.1,1,0.2,1.6,0.4,1.9c0.2,0.2,0.3,0.3,0.5,0.3h1.2V20.5z"/>
					<path d="M137.8,20.5h-5v-1.4h2.8c0.3,0,0.6,0,0.9,0c0.2,0,0.5-0.1,0.8-0.2c-1-0.1-1.6-0.3-1.9-0.4c-0.6-0.3-1-0.7-1-1.4
						c0-0.6,0.2-1.1,0.5-1.6c0.3-0.6,0.8-0.9,1.3-0.9c0.6,0,1,0.4,1.3,1.1c0.2,0.6,0.3,1.2,0.3,2V20.5z M135.5,11.8l-0.7,1.1l-1-0.7
						l0.7-1.1L135.5,11.8z M137,17.6c-0.1-0.4-0.2-0.8-0.4-1c-0.2-0.4-0.5-0.6-0.8-0.6c-0.2,0-0.3,0.1-0.4,0.2s-0.2,0.3-0.2,0.4
						c0,0.4,0.2,0.7,0.7,0.8C136.1,17.5,136.4,17.6,137,17.6z M137.4,11.3l-0.7,1.1l-1-0.7l0.7-1.1L137.4,11.3z"/>
					<path d="M141.3,20.5h-4.1v-1.4h3.3l-1-7l-0.4-0.2c0-0.4,0-0.7,0.1-1.1s0.2-0.7,0.3-1l0.1,0.1c0,0.3,0.2,0.6,0.5,0.7
						c0.3,0.1,0.6,0.2,0.8,0.3c0,0.3,0,0.6-0.1,0.9s-0.1,0.6-0.2,0.7l-0.4-0.1l1,6.5V20.5z"/>
					<path d="M144.1,18.4c0,0.4-0.1,0.9-0.2,1.3c-0.1,0.2-0.3,0.6-0.5,1.1l-0.1-0.1c0-0.2,0-0.3,0-0.6c0-0.2,0-0.4,0-0.4
						c0-0.6,0-1.4-0.1-2.4c-0.1-1-0.2-2.1-0.3-3.2c-0.1-0.7-0.2-1.4-0.3-2.1c0.1-0.2,0.2-0.5,0.4-0.8c0.1-0.3,0.3-0.5,0.4-0.8
						c0.1,0.6,0.2,1.5,0.3,2.6c0.1,1.1,0.2,2.1,0.3,3C144,17,144.1,17.9,144.1,18.4z"/>
					<path d="M155.9,10.7c0,0.3-0.1,0.5-0.4,0.8c-0.5,0.2-1.3,0.5-2.4,1c0-0.2,0.1-0.5,0.4-0.7C153.9,11.5,154.7,11.2,155.9,10.7z"
						/>
					<path d="M162.9,20.5h-7.6c-1.2,0-2.1-0.1-2.8-0.2c-0.9-0.2-1.5-0.5-1.9-0.9c-0.5-0.4-0.7-1-0.7-1.8c0-0.5,0.1-1.1,0.4-1.7
						c0.2-0.4,0.4-0.8,0.5-1l0.3,0.2c-0.2,0.5-0.4,0.8-0.5,1.1s-0.1,0.5-0.1,0.7c0,0.7,0.4,1.3,1.2,1.6s2.1,0.5,3.8,0.5h6.1
						c-0.6-0.2-1.1-0.4-1.4-0.6c-0.3-0.3-0.5-0.6-0.5-1c0-0.5,0.2-1.1,0.5-1.7c0.4-0.7,0.8-1,1.3-1c0.5,0,0.9,0.3,1.2,1
						c0.2,0.5,0.3,1.3,0.3,2.3V20.5z M161.3,12.1l-0.7,1.2l-1.3-0.7l0.7-1.2L161.3,12.1z M162.1,18c0-0.5-0.1-0.9-0.2-1.1
						c-0.1-0.3-0.3-0.5-0.6-0.5c-0.2,0-0.3,0.1-0.4,0.2c-0.1,0.1-0.1,0.3-0.1,0.5c0,0.3,0.1,0.5,0.3,0.6
						C161.3,17.8,161.6,17.9,162.1,18z"/>
					<path d="M167.2,8.2c0,0.3-0.1,0.5-0.4,0.8c-0.5,0.2-1.3,0.5-2.4,1c0-0.2,0.1-0.5,0.4-0.7C165.2,9,166,8.7,167.2,8.2z"/>
					<path d="M172,20.5h-0.6c-0.4,0-0.7,0-0.9-0.1s-0.5-0.2-0.7-0.4c-0.3,0.2-0.5,0.3-0.7,0.4c-0.3,0.1-0.7,0.2-1.2,0.2h-0.5
						c-0.3,0-0.6-0.1-0.9-0.2c-0.2-0.1-0.4-0.2-0.7-0.4c-0.3,0.2-0.5,0.3-0.7,0.4c-0.2,0.1-0.6,0.1-1.1,0.1h-1.6v-1.4h1.6
						c0.4,0,0.8,0,1-0.1c0.3-0.1,0.5-0.4,0.5-0.8c0-0.2,0-0.3,0-0.5c0-0.2,0-0.3-0.1-0.5l0.3-0.5c0.2,0.5,0.3,0.9,0.4,1.1
						c0.2,0.4,0.4,0.7,0.6,0.9c0.3,0.2,0.6,0.4,0.9,0.4h0.6c0.4,0,0.7-0.1,0.9-0.2c0.2-0.1,0.3-0.4,0.3-0.7c0-0.2,0-0.3,0-0.5
						c0-0.2-0.1-0.3-0.1-0.5l0.3-0.5l0.2,0.8c0.1,0.6,0.3,1,0.5,1.3c0.2,0.2,0.4,0.3,0.8,0.3c0.1,0,0.3,0,0.4-0.1
						c0.1-0.1,0.1-0.2,0.1-0.4c0-0.3-0.1-0.6-0.3-1c0-0.1-0.2-0.2-0.4-0.5l0.5-0.9c0.2,0.3,0.4,0.6,0.5,0.9c0.1,0.4,0.2,0.9,0.2,1.5
						V20.5z M169.3,13.8l-0.6,1.2l-1.3-0.7l0.6-1.2L169.3,13.8z M169.6,11.5l-0.6,1.2l-1.3-0.7l0.6-1.2L169.6,11.5z M171.2,13
						l-0.6,1.2l-1.3-0.7l0.6-1.2L171.2,13z"/>
					<path d="M176.3,8.2c0,0.3-0.1,0.5-0.4,0.8c-0.5,0.2-1.3,0.5-2.4,1c0-0.2,0.1-0.5,0.4-0.7C174.2,9,175.1,8.7,176.3,8.2z"/>
					<path d="M176.1,20.5h-4.7v-1.4h4.1c0-0.7-0.1-1.2-0.2-1.5c-0.1-0.2-0.4-0.6-0.8-1l0.6-1.4c0.4,0.5,0.6,0.9,0.7,1.2
						c0.1,0.4,0.2,1.1,0.2,2.1V20.5z M174.2,13.1l-0.6,1.2l-1.3-0.7l0.6-1.2L174.2,13.1z M176.1,12.3l-0.6,1.2l-1.3-0.7l0.6-1.2
						L176.1,12.3z"/>
					<path d="M180.6,8.7c0,0.3-0.1,0.7-0.4,0.9s-0.6,0.4-0.9,0.4c-0.3,0-0.5-0.1-0.7-0.2s-0.2-0.4-0.2-0.7c0-0.4,0.1-0.8,0.3-1.1
						s0.5-0.5,0.8-0.5c0.3,0,0.6,0.1,0.8,0.4S180.6,8.4,180.6,8.7z M180.1,8.9c0-0.2-0.1-0.3-0.3-0.5s-0.4-0.3-0.5-0.3
						c-0.1,0-0.3,0.1-0.4,0.2c-0.1,0.1-0.1,0.3-0.1,0.4c0,0.2,0.1,0.3,0.3,0.4c0.1,0.1,0.4,0.1,0.6,0.1c0.1,0,0.3,0,0.3-0.1
						S180.1,9,180.1,8.9z"/>
					<path d="M182.8,20.5h-7.3v-1.4h6.3c-0.4-0.6-0.8-1.1-1.3-1.5s-1.2-0.9-2-1.4l-0.3,0.3l-1-0.7c-0.3-0.3-0.5-0.5-0.5-0.7
						c0-1,0.2-1.7,0.7-2.2c0.4-0.5,1.2-0.9,2.2-1.3l2.3-0.9v1.4l-1.7,0.6c-0.7,0.2-1.3,0.4-1.7,0.6c-0.5,0.2-0.8,0.4-0.8,0.5
						c0,0.1,0.2,0.3,0.5,0.6c0.2,0.2,0.4,0.3,0.7,0.5c0.8,0.6,1.6,1.3,2.2,2c0.7,0.7,1.2,1.5,1.6,2.3V20.5z"/>
					<path d="M185.6,18.4c0,0.4-0.1,0.9-0.2,1.3c-0.1,0.2-0.3,0.6-0.5,1.1l-0.1-0.1c0-0.2,0-0.3,0-0.6c0-0.2,0-0.4,0-0.4
						c0-0.6,0-1.4-0.1-2.4c-0.1-1-0.2-2.1-0.3-3.2c-0.1-0.7-0.2-1.4-0.3-2.1c0.1-0.2,0.2-0.5,0.4-0.8c0.1-0.3,0.3-0.5,0.4-0.8
						c0.1,0.6,0.2,1.5,0.3,2.6c0.1,1.1,0.2,2.1,0.3,3C185.6,17,185.6,17.9,185.6,18.4z"/>
				</g>
			</g>
		</g>
	</g>
	<rect class="st1" width="241.9" height="31.5"/>
</g>
</svg>
