<?xml version="1.0" encoding="utf-8"?>
<!-- Generator: Adobe Illustrator 22.0.1, SVG Export Plug-In . SVG Version: 6.00 Build 0)  -->
<svg version="1.1" id="Layer_1" xmlns="http://www.w3.org/2000/svg" xmlns:xlink="http://www.w3.org/1999/xlink" x="0px" y="0px"
	 viewBox="0 0 241.9 31.5" style="enable-background:new 0 0 241.9 31.5;" xml:space="preserve">
<style type="text/css">
	.st0{fill:#BA0017;}
</style>
<g>
	<g>
		<path d="M27.5,26c-0.6,0.2-1.1,0.4-1.6,0.6c-0.5,0.2-1,0.4-1.5,0.6c-0.1,0-0.1,0-0.1-0.1c0-0.1,0.1-0.2,0.2-0.3s0.1-0.2,0.2-0.3
			c0,0,0.1-0.1,0.1-0.1c0.1-0.1,0.3-0.1,0.6-0.2c0.2-0.1,0.5-0.2,0.8-0.3c0.3-0.1,0.6-0.2,0.9-0.3s0.6-0.2,0.9-0.3
			c0.1,0,0.1,0,0.1,0c0,0.1-0.1,0.1-0.1,0.2s-0.1,0.1-0.1,0.2s-0.1,0.1-0.1,0.2s-0.1,0.1-0.1,0.1C27.6,25.9,27.6,25.9,27.5,26
			C27.6,26,27.5,26,27.5,26z"/>
		<path d="M29.8,16.4c0.1-0.2,0.1-0.4,0.2-0.5s0.1-0.4,0.2-0.6c0,0,0-0.1,0.1-0.1c0,0,0.1,0,0.1,0.1c0.3,0.3,0.6,0.7,0.8,1.1
			c0.2,0.4,0.3,0.8,0.3,1.2c0,0.1,0,0.3,0,0.4c0,0.2,0,0.3-0.1,0.5c0,0.2-0.1,0.3-0.1,0.5s-0.2,0.3-0.3,0.3
			c-0.6,0.4-1.3,0.6-1.9,0.9c-0.7,0.2-1.3,0.4-2,0.5c-0.7,0.1-1.4,0.2-2.1,0.3c-0.7,0.1-1.4,0-2.1,0c-0.4,0-0.7-0.1-1.1-0.3
			s-0.6-0.3-0.9-0.5c-0.3-0.2-0.5-0.5-0.6-0.8C20.1,19,20,18.6,20,18.2c0-0.7,0.2-1.4,0.7-2.1c0.1-0.1,0.1-0.1,0.2,0
			c0.1,0.1,0.1,0.1,0,0.2c-0.1,0.2-0.2,0.3-0.2,0.5c-0.1,0.2-0.1,0.4-0.1,0.6c0,0.2,0,0.4,0,0.6c0,0.2,0.1,0.4,0.2,0.5
			c0.2,0.3,0.3,0.5,0.6,0.7c0.3,0.2,0.5,0.3,0.8,0.4c0.3,0.1,0.6,0.1,0.9,0.1c0.3,0,0.6,0,0.9,0c0.6,0,1.1,0,1.7-0.1
			s1.1-0.1,1.6-0.2c0.5-0.1,1.1-0.2,1.6-0.4s1.1-0.4,1.6-0.6c0.2-0.1,0.3-0.2,0.2-0.3c-0.1-0.3-0.3-0.6-0.5-0.9
			C30.3,16.9,30,16.6,29.8,16.4z M25.8,22.6l1,0.8c0,0,0,0.1,0,0.1l-0.7,0.9c0,0.1-0.1,0.1-0.1,0l-1-0.8c0,0,0-0.1,0-0.1l0.7-0.8
			C25.8,22.6,25.8,22.6,25.8,22.6z"/>
		<path d="M32.7,11.3c0-0.2,0.1-0.4,0.2-0.6s0.2-0.4,0.3-0.6c0,0,0,0,0.1,0s0.1,0,0.1,0c0.1,0.3,0.1,0.6,0.2,1
			c0.1,0.3,0.1,0.7,0.2,1c0.1,0.4,0.1,0.8,0.2,1.2c0.1,0.4,0.1,1,0.2,1.5c0,0.4,0.1,0.8,0.1,1.1c0,0.3,0.1,0.6,0.1,0.8
			c0,0.2,0.1,0.5,0.1,0.7c0,0.2,0.1,0.4,0.1,0.6c0,0.3,0.1,0.5,0.2,0.7c0.1,0.2,0.2,0.4,0.4,0.5s0.3,0.2,0.5,0.3
			c0.2,0.1,0.4,0.1,0.7,0.1h0.1c0.2,0,0.3,0.1,0.4,0.2c0.1,0.1,0.1,0.3,0.1,0.4c0,0.2,0,0.3-0.1,0.4c-0.1,0.1-0.2,0.2-0.4,0.2h-0.1
			c-0.4,0-0.8-0.1-1.1-0.2c-0.3-0.1-0.5-0.3-0.7-0.6c-0.2-0.2-0.3-0.5-0.5-0.8s-0.2-0.7-0.2-1c0-0.3-0.1-0.7-0.1-1
			c0-0.3-0.1-0.7-0.1-1s-0.1-0.6-0.1-1c0-0.3-0.1-0.6-0.1-0.9c-0.1-0.5-0.1-1-0.2-1.5s-0.2-1.1-0.4-1.6
			C32.7,11.4,32.7,11.4,32.7,11.3C32.7,11.3,32.7,11.3,32.7,11.3z"/>
		<path d="M39.8,13.3c-0.3,0.1-0.6,0.2-0.9,0.4S38.3,14,38,14.1c-0.3,0.1-0.6,0.3-0.8,0.4c-0.3,0.1-0.5,0.2-0.6,0.3c0,0-0.1,0-0.1,0
			s0,0,0-0.1c0,0,0-0.1,0.1-0.2c0-0.1,0.1-0.2,0.1-0.3c0-0.1,0.1-0.2,0.1-0.2c0-0.1,0.1-0.1,0.1-0.1c0-0.1,0.1-0.1,0.2-0.1l3.2-1.4
			c0.1,0,0.1,0,0.1,0.1c0,0,0,0.1-0.1,0.2s-0.1,0.1-0.1,0.2c0,0.1-0.1,0.1-0.1,0.2s-0.1,0.1-0.1,0.2C39.9,13.2,39.9,13.3,39.8,13.3z
			"/>
		<path d="M43.4,6.7c0,0.2,0,0.4-0.1,0.6c0,0.2-0.1,0.3-0.2,0.5C43,7.8,42.9,7.9,42.8,8s-0.4,0.1-0.6,0.1c-0.3,0-0.5-0.1-0.7-0.3
			c-0.2-0.2-0.3-0.4-0.3-0.7c0-0.2,0-0.4,0.1-0.6c0-0.2,0.1-0.4,0.2-0.6c0.1-0.2,0.2-0.4,0.4-0.5c0.2-0.2,0.3-0.2,0.6-0.3
			c0.2,0,0.4,0,0.5,0.1c0.1,0.1,0.2,0.2,0.3,0.4c0.1,0.2,0.1,0.3,0.2,0.5S43.4,6.5,43.4,6.7z M42.2,6c-0.1,0-0.2,0.1-0.3,0.1
			c-0.1,0.1-0.2,0.1-0.2,0.2c-0.1,0.1-0.1,0.2-0.2,0.3c0,0.1-0.1,0.2-0.1,0.3s0,0.2,0.1,0.2c0.1,0.1,0.1,0.1,0.2,0.1
			c0.1,0,0.2,0,0.2,0.1c0.1,0,0.2,0,0.2,0c0.3,0,0.6-0.1,0.8-0.4c0-0.1,0-0.2,0-0.3c0-0.1-0.1-0.2-0.2-0.3c-0.1-0.1-0.2-0.2-0.3-0.2
			C42.5,6.1,42.4,6,42.2,6z"/>
		<path d="M36.2,19.7c0.2,0,0.4,0,0.7,0s0.6-0.1,0.9-0.1c0.3-0.1,0.7-0.2,1-0.3c0.4-0.2,0.8-0.4,1.2-0.6c0.1-0.1,0.2-0.1,0.3-0.1
			c0.1,0,0.2,0,0.3,0.1c0.1,0.1,0.3,0.1,0.5,0.2c0.2,0.1,0.4,0.1,0.6,0.2c0.2,0.1,0.4,0.1,0.6,0.2c0.2,0.1,0.3,0.1,0.5,0.1
			c0.2,0,0.4,0,0.5,0s0.2-0.1,0.2-0.2c-0.1-0.6-0.1-1.2-0.2-1.7c-0.1-0.5-0.1-1.1-0.2-1.6c-0.1-0.5-0.1-1.1-0.2-1.6
			c-0.1-0.6-0.1-1.2-0.2-1.9c0-0.2-0.1-0.5-0.1-0.7s-0.1-0.4-0.3-0.6c0-0.1-0.1-0.1-0.1-0.1c0,0,0-0.1,0.1-0.1l0.5-1
			c0,0,0-0.1,0.1-0.1c0,0,0.1,0,0.1,0.1c0,0.1,0.1,0.3,0.2,0.4c0.1,0.1,0.1,0.3,0.2,0.4s0.2,0.3,0.3,0.4s0.2,0.2,0.4,0.3
			c-0.1,0.1-0.2,0.2-0.2,0.3c-0.1,0.1-0.1,0.2-0.2,0.3c0,0.1-0.1,0.2-0.1,0.2c0,0.1,0,0.2,0,0.2c0.1,0.5,0.1,1,0.2,1.5
			c0.1,0.5,0.1,1.1,0.2,1.6c0.1,0.5,0.1,1,0.2,1.4s0.1,0.8,0.1,1c0,0.3,0,0.5,0,0.9c0,0.3-0.1,0.6-0.2,0.9c-0.1,0.3-0.2,0.5-0.4,0.7
			c-0.2,0.2-0.4,0.3-0.6,0.3c-0.1,0-0.3,0-0.5-0.1s-0.4-0.1-0.7-0.2s-0.5-0.2-0.7-0.3c-0.2-0.1-0.4-0.2-0.5-0.2
			c-0.1-0.1-0.2-0.1-0.2-0.1s-0.1,0-0.2,0.1c-0.3,0.2-0.6,0.3-0.8,0.4c-0.3,0.1-0.6,0.3-0.8,0.4c-0.3,0.1-0.6,0.2-0.9,0.2
			C37,21,36.6,21,36.2,21h-0.1c-0.2,0-0.3-0.1-0.4-0.2c-0.1-0.1-0.1-0.3-0.1-0.4c0-0.2,0-0.3,0.1-0.4S36,19.7,36.2,19.7L36.2,19.7z
			 M38.2,22.4l1,0.8c0,0,0,0.1,0,0.1l-0.7,0.9c0,0.1-0.1,0.1-0.1,0l-1-0.8c0,0,0-0.1,0-0.1l0.7-0.8C38.1,22.3,38.1,22.3,38.2,22.4z"
			/>
		<path d="M48.5,4.4c-0.3,0.1-0.6,0.2-0.9,0.4S47,5,46.7,5.2s-0.6,0.3-0.8,0.4c-0.3,0.1-0.5,0.2-0.6,0.3c0,0-0.1,0-0.1,0
			c0,0,0,0,0-0.1c0,0,0-0.1,0.1-0.2c0-0.1,0.1-0.2,0.1-0.3s0.1-0.2,0.1-0.2C45.5,5,45.5,5,45.5,5c0-0.1,0.1-0.1,0.2-0.1l3.2-1.4
			c0.1,0,0.1,0,0.1,0.1c0,0,0,0.1-0.1,0.2c0,0.1-0.1,0.1-0.1,0.2c0,0.1-0.1,0.1-0.1,0.2s-0.1,0.1-0.1,0.2
			C48.6,4.3,48.6,4.4,48.5,4.4z"/>
		<path d="M53.7,6.5c0,0.2,0,0.4-0.1,0.6c0,0.2-0.1,0.3-0.2,0.5S53.2,7.7,53,7.8c-0.2,0.1-0.4,0.1-0.6,0.1c-0.3,0-0.5-0.1-0.7-0.3
			c-0.2-0.2-0.3-0.4-0.3-0.7c0-0.2,0-0.3,0.1-0.6s0.1-0.4,0.2-0.6c0.1-0.2,0.2-0.4,0.4-0.5c0.2-0.2,0.3-0.2,0.6-0.3
			c0.2,0,0.4,0,0.5,0.1c0.1,0.1,0.2,0.2,0.3,0.4c0.1,0.2,0.1,0.3,0.2,0.5C53.7,6.2,53.7,6.3,53.7,6.5z M52.5,5.8
			c-0.1,0-0.2,0.1-0.3,0.1C52.2,6,52.1,6.1,52,6.2s-0.1,0.2-0.2,0.3c0,0.1-0.1,0.2-0.1,0.3s0,0.2,0.1,0.2C51.9,6.9,52,7,52.1,7
			c0.1,0,0.2,0,0.2,0.1c0.1,0,0.2,0,0.2,0c0.3,0,0.6-0.1,0.8-0.4c0-0.1,0-0.2,0-0.3c0-0.1-0.1-0.2-0.2-0.3C53.1,6,53,6,52.9,5.9
			C52.8,5.9,52.6,5.8,52.5,5.8z"/>
		<path d="M45.5,8.8c0,0,0.1-0.1,0.1-0.1s0.1-0.1,0.2-0.1c0.1,0,0.1-0.1,0.2-0.1s0.1-0.1,0.2-0.1c-0.1-0.1-0.2-0.2-0.3-0.3
			s-0.2-0.3-0.2-0.4c0-0.1,0-0.1,0-0.2c0-0.1,0-0.1,0.1-0.2c0.1-0.1,0.2-0.2,0.3-0.4c0.1-0.1,0.2-0.2,0.4-0.3
			c0.1-0.1,0.3-0.2,0.4-0.3c0.1-0.1,0.3-0.1,0.5-0.1c0.1,0,0.1,0,0.2,0.1c0.1,0,0.1,0.1,0.1,0.1s0.1,0.1,0.1,0.2s0.1,0.1,0.1,0.2
			c0,0.1,0,0.2,0,0.3l-0.1,0.3c-0.1,0.1-0.1,0.2-0.2,0.2c-0.1,0-0.1,0-0.1-0.1c0-0.1,0-0.1-0.1-0.2C47.1,7.1,47.1,7,47,7
			c-0.1,0-0.1,0-0.2,0c-0.3,0-0.5,0.1-0.7,0.3c0.1,0.2,0.2,0.4,0.4,0.5S46.8,8,47,8c0.3,0,0.5,0,0.8,0c0.2,0,0.5-0.1,0.8-0.2
			c0,0,0,0.1,0,0.1c0,0.1-0.1,0.2-0.1,0.3c0,0.1-0.1,0.2-0.1,0.2c0,0.1-0.1,0.1-0.1,0.1c-0.2,0-0.4,0.1-0.7,0.1
			c-0.2,0-0.5,0.1-0.7,0.2c-0.3,0.1-0.5,0.2-0.8,0.3c-0.3,0.1-0.5,0.2-0.8,0.3c0,0-0.1,0-0.1-0.1c0-0.1,0.1-0.2,0.1-0.3
			C45.4,9,45.5,8.9,45.5,8.8z M52.1,17.3c0.2-0.5,0.3-1,0.4-1.6s0.1-1.1,0.2-1.6c0-0.5,0-1.1,0-1.6c0-0.5,0-1.1-0.1-1.6
			c0-0.1-0.1-0.3-0.1-0.4c-0.1-0.1-0.1-0.2-0.2-0.3c0.1-0.2,0.2-0.3,0.3-0.5c0.1-0.2,0.2-0.4,0.4-0.5c0.1-0.1,0.1-0.1,0.2,0
			c0,0.1,0.1,0.3,0.1,0.4c0,0.2,0.1,0.3,0.2,0.4c0.1,0.1,0.1,0.3,0.2,0.4c0.1,0.1,0.2,0.2,0.3,0.3c0,0-0.1,0.1-0.1,0.2
			c-0.1,0.1-0.1,0.1-0.2,0.2c-0.1,0.1-0.1,0.2-0.1,0.3s-0.1,0.2-0.1,0.3c0,0.5,0,1.1,0,1.6s-0.1,1.1-0.2,1.7
			c-0.1,0.5-0.2,1.1-0.3,1.6c-0.1,0.5-0.3,0.9-0.5,1.3c0.2,0.3,0.3,0.6,0.4,1c0.1,0.3,0.2,0.7,0.3,1.1c0,0.2,0,0.5-0.1,0.7
			c-0.1,0.2-0.1,0.4-0.3,0.6c-0.2,0-0.4,0.1-0.7,0.1c-0.3,0-0.6,0.1-0.9,0.1c-0.3,0-0.6,0.1-0.9,0.1c-0.3,0-0.6,0-0.8,0
			c0,0,0-0.1,0-0.2c0-0.1,0-0.2,0-0.3c0-0.1,0-0.2,0.1-0.4s0.1-0.2,0.1-0.3c0-0.1,0.1-0.1,0.2-0.1c0.2,0,0.3,0,0.4-0.1
			s0.2-0.1,0.2-0.1c0.1-0.1,0.2-0.2,0.3-0.3c0.1-0.2,0.2-0.3,0.4-0.5c0.1-0.2,0.3-0.4,0.4-0.6c0.1-0.2,0.2-0.4,0.3-0.6
			c-0.3-0.4-0.5-0.9-0.9-1.3c-0.3-0.5-0.6-0.9-1-1.4c-0.3-0.5-0.7-0.9-1.1-1.3s-0.7-0.8-1.1-1.1c-0.2,0.1-0.3,0.1-0.5,0.1
			c-0.1,0-0.3-0.1-0.4-0.2c-0.2-0.1-0.3-0.2-0.5-0.3c-0.2-0.1-0.3-0.2-0.4-0.4s-0.2-0.3-0.2-0.4c0,0,0-0.1,0-0.2c0-0.1,0-0.2,0-0.4
			c0-0.1,0-0.3,0-0.4c0-0.1,0-0.3,0.1-0.4c0-0.1,0.1-0.2,0.1-0.2c0,0,0.1,0,0.3,0.1c0.4,0.3,0.7,0.6,1.1,0.9
			c0.4,0.3,0.7,0.7,1.1,1.1c0.4,0.4,0.7,0.8,1,1.2c0.3,0.4,0.6,0.8,1,1.3s0.6,0.9,0.9,1.3C51.6,16.5,51.9,16.9,52.1,17.3z
			 M51.1,20.2c0.3,0,0.6,0,0.8-0.1c0.3,0,0.5-0.1,0.7-0.1c0-0.1,0-0.1,0-0.3c0-0.1-0.1-0.3-0.2-0.4c-0.1-0.1-0.1-0.3-0.2-0.4
			c-0.1-0.1-0.1-0.2-0.1-0.3c-0.1,0.3-0.3,0.5-0.5,0.8C51.5,19.7,51.3,20,51.1,20.2z"/>
		<path d="M56.3,10.2C56.4,10.2,56.4,10.3,56.3,10.2c0.1,0.1,0.1,0.1,0.1,0.1c0,0,0,0.1,0,0.1s0,0.1,0,0.1c0,0.2,0,0.4,0,0.6
			s0,0.4,0.1,0.6c0.1,0.5,0.1,1,0.2,1.5c0.1,0.5,0.1,1,0.2,1.6s0.1,1.1,0.2,1.6c0.1,0.5,0.1,1,0.2,1.5c0,0.2,0,0.4,0,0.7
			c0,0.3,0,0.5,0,0.8c0,0.3,0,0.5-0.1,0.8c0,0.2-0.1,0.5-0.2,0.6C57.1,21,57,21,57,21c0,0-0.1,0-0.1-0.1c-0.1-1-0.2-1.9-0.3-2.9
			c-0.1-1-0.3-2.1-0.4-3.1c-0.1-1-0.3-2.1-0.4-3.1c0-0.3,0.1-0.5,0.2-0.8c0.1-0.2,0.1-0.3,0.2-0.4C56.2,10.5,56.3,10.3,56.3,10.2z"
			/>
		<path class="st0" d="M70.9,27.7c-0.6,0.2-1.1,0.4-1.6,0.6c-0.5,0.2-1,0.4-1.5,0.6c-0.1,0-0.1,0-0.1-0.1c0-0.1,0.1-0.2,0.2-0.3
			s0.1-0.2,0.2-0.3c0,0,0.1-0.1,0.1-0.1c0.1-0.1,0.3-0.1,0.6-0.2c0.2-0.1,0.5-0.2,0.8-0.3c0.3-0.1,0.6-0.2,0.9-0.3s0.6-0.2,0.9-0.3
			c0.1,0,0.1,0,0.1,0c0,0.1-0.1,0.1-0.1,0.2s-0.1,0.1-0.1,0.2s-0.1,0.1-0.1,0.2s-0.1,0.1-0.1,0.1C71.1,27.6,71,27.6,70.9,27.7
			C71,27.7,71,27.7,70.9,27.7z"/>
		<path class="st0" d="M70.1,18.9c0.5,0.1,0.9,0.3,1.1,0.5c0.2,0.2,0.3,0.5,0.3,0.9c0,0.3-0.1,0.7-0.3,1c-0.2,0.3-0.4,0.6-0.7,0.9
			c-0.3,0.3-0.6,0.5-1,0.7s-0.8,0.4-1.2,0.6s-0.8,0.3-1.3,0.4c-0.4,0.1-0.8,0.1-1.2,0.1c-0.5,0-0.9-0.1-1.4-0.2
			c-0.4-0.1-0.8-0.3-1.1-0.6c-0.3-0.3-0.5-0.6-0.7-1c-0.2-0.4-0.3-0.9-0.3-1.4c0-0.6,0.1-1.1,0.3-1.6c0.2-0.5,0.5-1,0.8-1.4
			c0,0,0,0,0.1,0c0,0,0,0,0.1,0c0,0,0,0.1,0,0.1c0,0,0,0.1,0,0.1c-0.2,0.4-0.4,0.8-0.5,1.2c-0.1,0.4-0.2,0.8-0.2,1.3
			c0,0.4,0.1,0.8,0.3,1s0.4,0.5,0.7,0.7c0.3,0.2,0.6,0.3,0.9,0.4c0.3,0.1,0.7,0.1,1,0.1c0.3,0,0.7,0,1-0.1c0.3-0.1,0.6-0.1,0.9-0.2
			c0.3-0.1,0.6-0.2,0.9-0.3s0.6-0.3,0.9-0.4c0.1,0,0.2-0.1,0.3-0.2c0.1-0.1,0.3-0.2,0.4-0.3c0.1-0.1,0.3-0.2,0.4-0.3
			c0.1-0.1,0.2-0.2,0.2-0.2c0-0.1-0.1-0.1-0.1-0.2c-0.1,0-0.2-0.1-0.3-0.2c-0.1,0-0.2-0.1-0.4-0.1c-0.2,0-0.3-0.1-0.5-0.1
			c-0.2,0-0.4-0.1-0.6-0.1c-0.2,0-0.4,0-0.6-0.1c-0.2,0-0.3,0-0.5,0c-0.1,0-0.2,0-0.3,0c0-0.1,0-0.1,0.1-0.2c0-0.1,0.1-0.2,0.1-0.3
			c0-0.1,0.1-0.2,0.2-0.3c0.1-0.1,0.1-0.1,0.2-0.2c0.1,0,0.3-0.1,0.5-0.2c0.2-0.1,0.4-0.1,0.6-0.2c0.2-0.1,0.4-0.2,0.5-0.2
			c0.1-0.1,0.2-0.1,0.2-0.2c0-0.1,0-0.3,0-0.5c0-0.2-0.1-0.5-0.1-0.8c0-0.3-0.1-0.6-0.1-0.8c0-0.3-0.1-0.5-0.1-0.8
			c-0.1-0.6-0.2-1.2-0.3-1.8c-0.1-0.6-0.2-1.2-0.3-1.8c0-0.2-0.1-0.5-0.1-0.7c0-0.2-0.1-0.4-0.2-0.7c0,0,0-0.1,0-0.1c0,0,0,0,0,0
			s0,0,0,0c0,0,0,0,0-0.1c0.1-0.2,0.2-0.3,0.3-0.5C68.9,9.3,69,9.1,69.1,9c0,0,0-0.1,0.1-0.1c0,0,0,0,0.1,0.1c0,0.1,0.1,0.3,0.2,0.4
			c0.1,0.1,0.1,0.3,0.2,0.4c0.1,0.1,0.2,0.3,0.3,0.4s0.2,0.2,0.3,0.3c-0.1,0.1-0.1,0.2-0.2,0.3c-0.1,0.1-0.1,0.2-0.2,0.3
			c0,0.1-0.1,0.2-0.1,0.2c0,0.1,0,0.2,0,0.2c0.1,0.9,0.2,1.7,0.3,2.6c0.1,0.9,0.3,1.7,0.3,2.6c0,0.2,0,0.4,0,0.6
			c0,0.2,0,0.4-0.1,0.6c0,0.2-0.1,0.4-0.1,0.6S70.1,18.8,70.1,18.9z M67.5,26.7C67.4,26.8,67.4,26.8,67.5,26.7c-0.1,0.1-0.1,0-0.2,0
			l-1-0.8l-0.6,0.9c0,0-0.1,0.1-0.1,0l-1.1-0.8c0,0,0-0.1,0-0.1l0.7-1c0,0,0,0,0.1,0c0,0,0,0,0.1,0l1,0.8l0.7-0.9c0,0,0.1-0.1,0.1,0
			l1.1,0.9c0,0,0,0.1,0,0.1L67.5,26.7z"/>
		<path class="st0" d="M77.2,19.5c-0.1,0.2-0.2,0.4-0.4,0.6c-0.2,0.2-0.5,0.2-0.8,0.2c-0.1,0-0.3,0-0.4-0.1
			c-0.1-0.1-0.3-0.2-0.4-0.3c-0.1-0.1-0.2-0.3-0.2-0.4c-0.1-0.2-0.1-0.3-0.1-0.5c0-0.1,0-0.3,0.1-0.4c0-0.2,0.1-0.3,0.1-0.5
			c0.1-0.2,0.1-0.3,0.2-0.5c0.1-0.2,0.2-0.3,0.3-0.4c0.1-0.1,0.2-0.2,0.3-0.3c0.1-0.1,0.2-0.1,0.3-0.1c0.2,0,0.4,0.1,0.6,0.3
			s0.4,0.4,0.5,0.7c0.1,0.3,0.2,0.6,0.3,0.9s0.1,0.6,0.1,0.9c0,0.4-0.1,0.8-0.2,1.2s-0.2,0.9-0.4,1.3c-0.2,0.4-0.3,0.8-0.6,1.2
			c-0.2,0.4-0.4,0.7-0.7,0.9c-0.2,0.2-0.5,0.4-0.7,0.6c-0.3,0.2-0.5,0.3-0.8,0.4c-0.3,0.1-0.6,0.2-0.9,0.2c-0.3,0-0.6,0-0.9,0
			c-0.3,0-0.7-0.1-1-0.1c-0.3-0.1-0.6-0.1-0.9-0.2c0,0-0.1,0-0.1-0.1c0,0,0-0.1,0-0.1s0-0.1,0.1-0.1s0.1,0,0.2,0c0.4,0,0.9,0,1.3,0
			c0.4-0.1,0.9-0.2,1.3-0.3c0.3-0.1,0.7-0.3,1-0.5c0.3-0.2,0.6-0.4,0.9-0.7c0.2-0.2,0.4-0.4,0.6-0.7c0.2-0.2,0.4-0.5,0.5-0.8
			s0.3-0.5,0.4-0.8c0.1-0.3,0.2-0.5,0.2-0.8c0,0,0-0.1,0-0.2c0-0.1,0-0.1,0-0.2c0-0.1,0-0.1,0-0.2S77.2,19.5,77.2,19.5z M76.9,18.8
			c0,0,0-0.1-0.1-0.2c0-0.1-0.1-0.2-0.2-0.2s-0.2-0.2-0.2-0.2c-0.1-0.1-0.2-0.1-0.3-0.1c-0.1,0-0.2,0-0.2,0.1
			c-0.1,0.1-0.1,0.1-0.2,0.2c0,0.1-0.1,0.2-0.1,0.2c0,0.1,0,0.1,0,0.2c0.1,0.1,0.2,0.2,0.3,0.2c0.1,0,0.3,0.1,0.4,0.1
			c0.1,0,0.3,0,0.4-0.1C76.7,18.9,76.8,18.8,76.9,18.8z"/>
		<path class="st0" d="M78.5,5.9C78.5,5.9,78.5,5.9,78.5,5.9c0-0.2,0.1-0.2,0.2-0.3c0.2-0.1,0.4-0.2,0.5-0.3
			c0.2-0.1,0.3-0.2,0.5-0.3c0.2-0.1,0.3-0.2,0.5-0.4s0.3-0.3,0.5-0.5c-0.1,0-0.3-0.1-0.5-0.2c-0.2-0.1-0.3-0.2-0.4-0.3
			c-0.1-0.1-0.1-0.1-0.1-0.2c0-0.1,0-0.2,0-0.3c0-0.1,0.1-0.3,0.2-0.4c0.1-0.2,0.2-0.3,0.3-0.4c0.1-0.1,0.2-0.2,0.4-0.3
			s0.3-0.1,0.4-0.1c0.1,0,0.2,0,0.3,0.1c0.1,0.1,0.1,0.2,0.2,0.3c0,0.1,0.1,0.2,0.1,0.4c0,0.1,0,0.3,0,0.4s0,0.3,0,0.4
			c0,0.1,0,0.2,0,0.3c0,0,0,0,0,0.1c0.1,0,0.1,0.1,0.1,0.1s0,0.1,0.1,0.1c0,0.1,0,0.2,0,0.3s-0.1,0.2-0.1,0.3c0,0.1-0.1,0.1-0.1,0.1
			c0,0-0.1,0-0.1-0.1c0,0,0-0.1-0.1-0.1c0,0-0.1,0-0.1-0.1c-0.2,0.2-0.3,0.4-0.5,0.6c-0.2,0.2-0.3,0.3-0.5,0.4
			c-0.2,0.1-0.4,0.2-0.5,0.3s-0.4,0.2-0.7,0.3c-0.1,0-0.2,0.1-0.3,0.1C78.7,5.9,78.6,5.9,78.5,5.9z M80.3,2.9
			c0.1,0.2,0.2,0.3,0.4,0.4c0.2,0.1,0.3,0.2,0.4,0.2h0c0,0,0-0.1,0-0.2c0-0.1,0-0.1,0-0.2s0-0.2,0-0.2c0-0.1-0.1-0.1-0.1-0.2
			c0,0-0.1-0.1-0.2-0.1c-0.1,0-0.2,0-0.2,0c-0.1,0-0.2,0.1-0.2,0.1C80.4,2.8,80.3,2.8,80.3,2.9z"/>
		<path class="st0" d="M79.1,9.1c0,0,0.1-0.1,0.1-0.1s0.1-0.1,0.2-0.1s0.1-0.1,0.2-0.1s0.1-0.1,0.2-0.1c-0.1-0.1-0.2-0.2-0.3-0.3
			s-0.2-0.3-0.3-0.5c0-0.1,0-0.1,0-0.2c0-0.1,0-0.2,0.1-0.2c0.1-0.1,0.2-0.3,0.3-0.4c0.1-0.1,0.2-0.3,0.4-0.4
			c0.1-0.1,0.3-0.2,0.4-0.3c0.2-0.1,0.3-0.1,0.5-0.1c0.1,0,0.1,0,0.2,0.1c0.1,0,0.1,0.1,0.2,0.1c0,0.1,0.1,0.1,0.1,0.2
			s0.1,0.1,0.1,0.2c0,0.1,0,0.2,0,0.3l-0.1,0.3c-0.1,0.1-0.1,0.2-0.2,0.2c-0.1,0-0.1,0-0.1-0.1c0-0.1,0-0.1-0.1-0.2
			c0-0.1-0.1-0.1-0.2-0.2s-0.1,0-0.2,0c-0.3,0-0.5,0.1-0.7,0.3c0.1,0.2,0.2,0.4,0.4,0.6c0.2,0.2,0.4,0.3,0.6,0.3c0.3,0,0.6,0,0.8,0
			s0.5-0.1,0.8-0.2c0,0,0,0.1,0,0.1c0,0.1-0.1,0.2-0.1,0.3s-0.1,0.2-0.1,0.3C82,8.8,82,8.9,82,8.9c-0.2,0-0.5,0.1-0.7,0.1
			s-0.5,0.1-0.8,0.2c-0.3,0.1-0.5,0.2-0.8,0.3c-0.3,0.1-0.6,0.3-0.8,0.4c0,0-0.1,0-0.1-0.1c0-0.1,0.1-0.2,0.1-0.3
			C78.9,9.3,79,9.2,79.1,9.1z M80.2,10.4C80.3,10.4,80.3,10.4,80.2,10.4c0.1,0.1,0.1,0.1,0.1,0.1c0,0,0,0.1,0,0.1c0,0,0,0.1,0,0.1
			c0,0.2,0,0.4,0,0.6s0,0.4,0.1,0.6c0.1,0.5,0.1,1,0.2,1.5c0.1,0.5,0.1,1,0.2,1.6s0.1,1,0.2,1.6c0.1,0.5,0.1,1,0.2,1.5
			c0,0.2,0,0.4,0,0.7c0,0.3,0,0.5,0,0.8c0,0.3,0,0.5-0.1,0.8c0,0.2-0.1,0.5-0.2,0.6c0,0.1-0.1,0.2-0.2,0.2c0,0-0.1,0-0.1-0.1
			c-0.1-0.9-0.2-1.9-0.3-2.9c-0.1-1-0.3-2-0.4-3.1c-0.1-1-0.3-2-0.4-3.1c0-0.3,0.1-0.5,0.2-0.8c0.1-0.2,0.1-0.3,0.2-0.4
			C80.1,10.6,80.2,10.5,80.2,10.4z"/>
		<path d="M86.3,11.3c0-0.2,0.1-0.4,0.2-0.6s0.2-0.4,0.3-0.6c0,0,0,0,0.1,0s0.1,0,0.1,0c0.1,0.3,0.1,0.6,0.2,1
			c0.1,0.3,0.1,0.7,0.2,1c0.1,0.4,0.1,0.8,0.2,1.2c0.1,0.4,0.1,1,0.2,1.5c0,0.4,0.1,0.8,0.1,1.1c0,0.3,0.1,0.6,0.1,0.8
			c0,0.2,0.1,0.5,0.1,0.7c0,0.2,0.1,0.4,0.1,0.6c0,0.3,0.1,0.5,0.2,0.7c0.1,0.2,0.2,0.4,0.4,0.5s0.3,0.2,0.5,0.3
			c0.2,0.1,0.4,0.1,0.7,0.1h0.1c0.2,0,0.3,0.1,0.4,0.2c0.1,0.1,0.1,0.3,0.1,0.4c0,0.2,0,0.3-0.1,0.4c-0.1,0.1-0.2,0.2-0.4,0.2h-0.1
			c-0.4,0-0.8-0.1-1.1-0.2c-0.3-0.1-0.5-0.3-0.7-0.6c-0.2-0.2-0.3-0.5-0.5-0.8s-0.2-0.7-0.2-1c0-0.3-0.1-0.7-0.1-1
			c0-0.3-0.1-0.7-0.1-1s-0.1-0.6-0.1-1c0-0.3-0.1-0.6-0.1-0.9c-0.1-0.5-0.1-1-0.2-1.5s-0.2-1.1-0.4-1.6
			C86.3,11.4,86.3,11.4,86.3,11.3C86.3,11.3,86.3,11.3,86.3,11.3z"/>
		<path d="M92.9,11.9c-0.3,0.1-0.6,0.2-0.9,0.4s-0.6,0.3-0.9,0.4s-0.6,0.3-0.8,0.4c-0.3,0.1-0.5,0.2-0.6,0.3c0,0-0.1,0-0.1,0
			c0,0,0,0,0-0.1c0,0,0-0.1,0.1-0.2c0-0.1,0.1-0.2,0.1-0.3s0.1-0.2,0.1-0.2c0-0.1,0.1-0.1,0.1-0.1c0-0.1,0.1-0.1,0.2-0.1l3.2-1.4
			c0.1,0,0.1,0,0.1,0.1c0,0,0,0.1-0.1,0.2c0,0.1-0.1,0.1-0.1,0.2c0,0.1-0.1,0.1-0.1,0.2S93,11.7,93,11.8
			C93,11.8,92.9,11.8,92.9,11.9z"/>
		<path d="M91.8,16.5C91.8,16.4,91.8,16.4,91.8,16.5c0.1-0.1,0.1,0,0.2,0c0.1,0.2,0.3,0.3,0.4,0.5s0.2,0.4,0.3,0.6s0.2,0.4,0.2,0.6
			c0.1,0.2,0.1,0.4,0.1,0.6c0,0.1,0,0.2,0,0.3s0,0.2-0.1,0.4c0,0.1-0.1,0.2-0.1,0.3c0,0.1-0.1,0.2-0.1,0.3c-0.1,0.2-0.3,0.4-0.5,0.5
			c-0.2,0.1-0.5,0.2-0.8,0.3c-0.3,0.1-0.6,0.1-0.9,0.1c-0.3,0-0.6,0-0.8,0h-0.1c-0.2,0-0.3-0.1-0.4-0.2c-0.1-0.1-0.1-0.3-0.1-0.4
			c0-0.2,0-0.3,0.1-0.4c0.1-0.1,0.2-0.2,0.4-0.2h0.1c0.1,0,0.3,0,0.5,0s0.5,0,0.7,0c0.3,0,0.5-0.1,0.8-0.1c0.2,0,0.4-0.1,0.6-0.2
			c0.1,0,0.1-0.1,0.1-0.2c-0.1-0.3-0.2-0.6-0.4-0.8s-0.4-0.5-0.6-0.7c0-0.2,0.1-0.4,0.1-0.6S91.7,16.7,91.8,16.5z M92.8,24.2
			C92.8,24.3,92.7,24.3,92.8,24.2c-0.1,0.1-0.1,0-0.2,0l-1-0.8l-0.6,0.9c0,0-0.1,0.1-0.1,0l-1-0.8c0,0,0-0.1,0-0.1l0.6-0.9
			c0,0,0,0,0.1,0c0,0,0,0,0.1,0l1,0.7l0.7-0.9c0,0,0.1-0.1,0.1,0l1,0.9c0,0,0,0.1,0,0.1L92.8,24.2z"/>
		<path d="M97.5,12.1C97.4,12.1,97.4,12,97.5,12.1c0-0.1,0.1-0.2,0.2-0.2c0.2-0.1,0.4-0.2,0.6-0.4c0.2-0.1,0.4-0.2,0.6-0.4
			c0.2-0.1,0.4-0.3,0.6-0.4c0.2-0.1,0.4-0.3,0.5-0.4c-0.1,0-0.3-0.1-0.5-0.2s-0.3-0.2-0.4-0.3c-0.1-0.1-0.1-0.1-0.1-0.2
			c0-0.1,0-0.2,0-0.2c0.1-0.1,0.1-0.3,0.2-0.4c0.1-0.1,0.2-0.3,0.3-0.4c0.1-0.1,0.2-0.2,0.4-0.3c0.1-0.1,0.3-0.1,0.4-0.1
			c0.2,0,0.3,0.1,0.4,0.2c0.1,0.1,0.1,0.3,0.1,0.5c0,0.2,0,0.4,0,0.6s0,0.3-0.1,0.4c0,0,0,0,0.1,0.1c0.1,0,0.1,0.1,0.1,0.1
			c0,0,0,0.1,0.1,0.1c0,0,0,0.1,0,0.1s0,0.1,0,0.1c0,0,0,0.1,0,0.1c0,0,0,0.1-0.1,0.1c0,0-0.1,0.1-0.1,0.1c0,0-0.1,0-0.1-0.1
			c0-0.1-0.1-0.1-0.2-0.1c-0.3,0.4-0.7,0.7-1.1,1C99,11.6,98.5,11.8,98,12c0,0-0.1,0-0.1,0c-0.1,0-0.1,0-0.2,0c-0.1,0-0.1,0-0.2,0
			S97.5,12.1,97.5,12.1z M98.6,10.2c0,0.1,0,0.1-0.1,0.2c0,0.1,0,0.1,0,0.2c0,0.1-0.1,0.1-0.1,0.1s-0.1,0-0.1-0.1
			c-0.1-0.1-0.2-0.2-0.4-0.4c-0.1-0.2-0.2-0.4-0.2-0.6c0-0.2,0-0.4,0.1-0.6c0.1-0.2,0.2-0.5,0.3-0.7c0.1-0.2,0.3-0.5,0.5-0.7
			C99,7.3,99.2,7.1,99.5,7c0.2-0.1,0.4-0.2,0.6-0.3c0.2-0.1,0.4-0.1,0.5-0.1c0.2,0,0.3,0,0.5,0.1c0.1,0,0.3,0.1,0.4,0.2
			c0.1,0.1,0.2,0.2,0.2,0.3c0,0.1,0.1,0.3,0.1,0.4c0,0.1,0,0.3-0.1,0.4c0,0.1-0.1,0.3-0.2,0.4c0,0,0,0-0.1,0c0,0,0,0,0-0.1
			c0-0.1,0-0.1,0-0.2c0-0.1,0-0.2,0-0.3s0-0.2-0.1-0.2c0-0.1-0.1-0.1-0.2-0.2c-0.1-0.1-0.3-0.1-0.4-0.1c-0.2,0-0.3,0-0.5,0
			c-0.2,0-0.4,0.1-0.5,0.2c-0.2,0.1-0.3,0.2-0.5,0.3C99,7.9,98.9,8,98.8,8.1s-0.2,0.3-0.3,0.4S98.3,8.9,98.3,9c0,0.2-0.1,0.3,0,0.5
			c0,0,0,0.1,0.1,0.1c0,0,0.1,0.1,0.1,0.1c0,0,0.1,0.1,0.1,0.1c0,0,0.1,0.1,0.1,0.1C98.7,10,98.7,10.1,98.6,10.2
			C98.7,10.2,98.7,10.2,98.6,10.2z M99.5,9.1c0.1,0.1,0.2,0.3,0.4,0.3c0.2,0.1,0.3,0.1,0.4,0.2h0c0,0,0-0.1,0-0.2c0-0.1,0-0.1,0-0.2
			c0-0.1,0-0.1,0-0.2c0-0.1-0.1-0.1-0.1-0.2c-0.1,0-0.1,0-0.2,0s-0.2,0-0.2,0c-0.1,0-0.1,0.1-0.2,0.1C99.6,9,99.6,9,99.5,9.1z"/>
		<path d="M100.6,15C100.5,15,100.5,15,100.6,15c-0.1,0.1-0.1,0-0.2,0l-1-0.7l-0.6,0.9c0,0-0.1,0.1-0.1,0l-1-0.8c0,0,0-0.1,0-0.1
			l0.6-0.9c0,0,0,0,0.1,0c0,0,0,0,0.1,0l1,0.7l0.7-0.8c0,0,0.1-0.1,0.1,0l1,0.9c0,0,0,0.1,0,0.1L100.6,15z M98.5,17.7
			C98.5,17.7,98.5,17.6,98.5,17.7c-0.1,0,0-0.1,0-0.2c0-0.1,0.1-0.2,0.1-0.4c0-0.1,0.1-0.2,0.1-0.3c0-0.1,0.1-0.1,0.1-0.1
			c0.8,0.1,1.4,0.4,1.8,0.7c0.4,0.3,0.6,0.8,0.6,1.4c0,0.4-0.1,0.8-0.3,1.3c-0.1,0.1-0.1,0.3-0.3,0.4c-0.1,0.1-0.2,0.2-0.4,0.3
			c-0.1,0.1-0.3,0.2-0.5,0.2c-0.2,0.1-0.3,0.1-0.5,0.1c-0.3,0-0.5-0.1-0.7-0.2c-0.2-0.1-0.3-0.2-0.4-0.4C98.1,20.2,98,20,98,19.8
			c0-0.2,0-0.5,0-0.7c0.1-0.3,0.1-0.5,0.2-0.8S98.4,17.9,98.5,17.7z M98.9,17.9c-0.1,0.2-0.2,0.3-0.2,0.5c0,0.2-0.1,0.3-0.1,0.5
			c0,0.1,0,0.3,0.1,0.4c0.1,0.1,0.1,0.2,0.3,0.3c0.1,0.1,0.2,0.1,0.4,0.1c0.1,0,0.3,0,0.4,0c0.2,0,0.3-0.1,0.5-0.2
			c0.1-0.1,0.3-0.2,0.4-0.3c0-0.1-0.1-0.3-0.2-0.4c-0.1-0.1-0.3-0.3-0.5-0.4c-0.2-0.1-0.4-0.2-0.6-0.3C99.2,18,99,17.9,98.9,17.9z"
			/>
		<path d="M102.4,11.3c0-0.2,0.1-0.4,0.2-0.6s0.2-0.4,0.3-0.6c0,0,0,0,0.1,0s0.1,0,0.1,0c0.1,0.3,0.1,0.6,0.2,1
			c0.1,0.3,0.1,0.7,0.2,1c0.1,0.4,0.1,0.8,0.2,1.2c0.1,0.4,0.1,1,0.2,1.5c0,0.4,0.1,0.8,0.1,1.1c0,0.3,0.1,0.6,0.1,0.8
			c0,0.2,0.1,0.5,0.1,0.7c0,0.2,0.1,0.4,0.1,0.6c0,0.3,0.1,0.5,0.2,0.7c0.1,0.2,0.2,0.4,0.4,0.5s0.3,0.2,0.5,0.3
			c0.2,0.1,0.4,0.1,0.7,0.1h0.1c0.2,0,0.3,0.1,0.4,0.2c0.1,0.1,0.1,0.3,0.1,0.4c0,0.2,0,0.3-0.1,0.4c-0.1,0.1-0.2,0.2-0.4,0.2h-0.1
			c-0.4,0-0.8-0.1-1.1-0.2c-0.3-0.1-0.5-0.3-0.7-0.6c-0.2-0.2-0.3-0.5-0.5-0.8s-0.2-0.7-0.2-1c0-0.3-0.1-0.7-0.1-1
			c0-0.3-0.1-0.7-0.1-1s-0.1-0.6-0.1-1c0-0.3-0.1-0.6-0.1-0.9c-0.1-0.5-0.1-1-0.2-1.5s-0.2-1.1-0.4-1.6
			C102.4,11.4,102.3,11.4,102.4,11.3C102.3,11.3,102.3,11.3,102.4,11.3z"/>
		<path d="M109.2,11.7c-0.3,0.1-0.6,0.2-0.9,0.4s-0.6,0.3-0.9,0.4c-0.3,0.1-0.6,0.3-0.8,0.4c-0.3,0.1-0.5,0.2-0.6,0.3
			c0,0-0.1,0-0.1,0s0,0,0-0.1c0,0,0-0.1,0.1-0.2c0-0.1,0.1-0.2,0.1-0.3c0-0.1,0.1-0.2,0.1-0.2c0-0.1,0.1-0.1,0.1-0.1
			c0-0.1,0.1-0.1,0.2-0.1l3.2-1.4c0.1,0,0.1,0,0.1,0.1c0,0,0,0.1-0.1,0.2s-0.1,0.1-0.1,0.2c0,0.1-0.1,0.1-0.1,0.2s-0.1,0.1-0.1,0.2
			C109.3,11.6,109.3,11.6,109.2,11.7z"/>
		<path d="M108.7,18c0,0.1,0,0.1,0,0.2c0,0.1,0,0.2,0,0.3c0,0.1,0,0.3,0.1,0.4s0.2,0.3,0.3,0.4s0.3,0.2,0.6,0.3
			c0.2,0.1,0.5,0.1,0.9,0.1h0.1c0.2,0,0.3,0.1,0.4,0.2c0.1,0.1,0.1,0.3,0.1,0.4c0,0.2,0,0.3-0.1,0.4c-0.1,0.1-0.2,0.2-0.4,0.2h-0.1
			c-0.6,0-1.1-0.1-1.5-0.3s-0.7-0.6-0.9-1c-0.1,0.3-0.3,0.5-0.5,0.7c-0.2,0.2-0.4,0.3-0.6,0.4c-0.2,0.1-0.4,0.2-0.6,0.2
			c-0.2,0-0.4,0-0.6,0h-0.1c-0.2,0-0.3-0.1-0.4-0.2c-0.1-0.1-0.1-0.3-0.1-0.4c0-0.2,0-0.3,0.1-0.4c0.1-0.1,0.2-0.2,0.4-0.2h0.1
			c0.2,0,0.4,0,0.5,0c0.2,0,0.4,0,0.6-0.1s0.4-0.1,0.5-0.2c0.2-0.1,0.3-0.2,0.5-0.4c0.1-0.1,0.2-0.3,0.3-0.4
			c0.1-0.1,0.1-0.3,0.2-0.5c0,0,0,0,0-0.1c0,0,0.1,0,0.1,0C108.6,18,108.6,18,108.7,18C108.7,18,108.7,18,108.7,18z M109.3,24.3
			C109.3,24.4,109.2,24.4,109.3,24.3c-0.1,0.1-0.1,0-0.2,0l-1-0.8l-0.6,0.9c0,0.1-0.1,0.1-0.1,0l-1.1-0.8c0,0,0-0.1,0-0.1l0.7-1
			c0,0,0,0,0.1,0s0,0,0.1,0l1,0.8l0.7-0.9c0,0,0.1-0.1,0.1,0l1.1,0.9c0,0,0,0.1,0,0.1L109.3,24.3z"/>
		<path d="M115.6,11.3c-0.3,0.1-0.6,0.2-0.9,0.4s-0.6,0.3-0.9,0.4c-0.3,0.1-0.6,0.3-0.8,0.4c-0.3,0.1-0.5,0.2-0.6,0.3
			c0,0-0.1,0-0.1,0s0,0,0-0.1c0,0,0-0.1,0.1-0.2c0-0.1,0.1-0.2,0.1-0.3c0-0.1,0.1-0.2,0.1-0.2c0-0.1,0.1-0.1,0.1-0.1
			c0-0.1,0.1-0.1,0.2-0.1l3.2-1.4c0.1,0,0.1,0,0.1,0.1c0,0,0,0.1-0.1,0.2s-0.1,0.1-0.1,0.2c0,0.1-0.1,0.1-0.1,0.2s-0.1,0.1-0.1,0.2
			C115.7,11.2,115.7,11.2,115.6,11.3z"/>
		<path d="M115.4,18.7c-0.1-0.1-0.3-0.2-0.5-0.3c-0.2-0.1-0.4-0.2-0.6-0.3c-0.2-0.1-0.4-0.2-0.7-0.2c-0.2-0.1-0.4-0.1-0.6-0.1
			c-0.3,0-0.6,0-0.9,0c-0.3,0.1-0.6,0.2-0.9,0.4c0,0-0.1,0-0.1,0s0,0,0-0.1c0-0.1,0-0.1,0-0.2c0-0.1,0.1-0.2,0.1-0.2
			c0-0.1,0.1-0.2,0.1-0.2c0-0.1,0.1-0.1,0.1-0.2c0.1-0.1,0.2-0.3,0.3-0.4c0.1-0.1,0.3-0.2,0.4-0.3c0.2-0.1,0.3-0.1,0.5-0.2
			c0.2,0,0.3,0,0.5,0c0.3,0,0.6,0.1,0.9,0.2c0.3,0.1,0.6,0.2,0.9,0.4c0.3,0.1,0.6,0.3,0.9,0.4c0.3,0.1,0.6,0.3,0.9,0.4
			c0.5,0.2,1,0.3,1.5,0.3c0.5,0.1,1.1,0.1,1.5,0.1c0.1,0,0.1,0,0.1,0.1c-0.1,0.2-0.2,0.4-0.3,0.6c-0.1,0.2-0.2,0.4-0.4,0.6
			c-0.3-0.1-0.6-0.1-0.9-0.2c-0.3,0-0.7,0-1.1,0c-0.4,0-0.8,0.1-1.2,0.3c-0.4,0.2-0.9,0.3-1.5,0.5c-0.3,0.1-0.6,0.2-0.9,0.3
			c-0.3,0.1-0.6,0.2-0.9,0.2c-0.3,0.1-0.7,0.1-1,0.2c-0.4,0-0.7,0.1-1.2,0.1h-0.1c-0.2,0-0.3-0.1-0.4-0.2c-0.1-0.1-0.1-0.3-0.1-0.4
			c0-0.2,0-0.3,0.1-0.4c0.1-0.1,0.2-0.2,0.4-0.2h0.1c0.2,0,0.5,0,0.8,0s0.7-0.1,1.1-0.1c0.4-0.1,0.9-0.2,1.4-0.3
			C114.4,19.1,114.9,19,115.4,18.7z"/>
		<path d="M136.9,22.9c-0.6,0.2-1.1,0.4-1.6,0.6c-0.5,0.2-1,0.4-1.5,0.6c-0.1,0-0.1,0-0.1-0.1c0-0.1,0.1-0.2,0.2-0.3
			s0.1-0.2,0.2-0.3c0,0,0.1-0.1,0.1-0.1c0.1-0.1,0.3-0.1,0.6-0.2c0.2-0.1,0.5-0.2,0.8-0.3c0.3-0.1,0.6-0.2,0.9-0.3s0.6-0.2,0.9-0.3
			c0.1,0,0.1,0,0.1,0c0,0-0.1,0.1-0.1,0.2s-0.1,0.1-0.1,0.2c0,0.1-0.1,0.1-0.1,0.2s-0.1,0.1-0.1,0.1C137,22.8,137,22.8,136.9,22.9
			C136.9,22.9,136.9,22.9,136.9,22.9z"/>
		<path d="M132.8,19.1c0.3-0.3,0.5-0.7,0.8-1c0.3-0.3,0.6-0.6,0.9-0.9c0.3-0.3,0.6-0.6,1-0.8c0.3-0.3,0.7-0.5,1.1-0.7
			c0.2-0.1,0.4-0.2,0.6-0.2c0.2,0,0.5,0,0.7,0c0.2,0,0.5,0.1,0.7,0.2c0.2,0.1,0.4,0.2,0.6,0.3s0.3,0.3,0.5,0.5
			c0.1,0.2,0.2,0.4,0.2,0.6c0,0.6-0.2,1.1-0.4,1.5s-0.6,0.8-1,1c-0.4,0.3-0.9,0.5-1.4,0.6c-0.5,0.1-1.1,0.2-1.7,0.3
			c-0.5,0-1,0.1-1.5,0c-0.5,0-1-0.1-1.5-0.2c0,0.3,0.1,0.6,0.1,0.9s0,0.6-0.1,0.9s-0.1,0.5-0.2,0.8s-0.2,0.5-0.3,0.6
			c-0.2,0.3-0.5,0.6-0.8,0.8c-0.3,0.2-0.7,0.4-1,0.6s-0.7,0.3-1.1,0.4c-0.4,0.1-0.8,0.1-1.2,0.1c-0.5,0-0.9-0.1-1.3-0.2
			c-0.4-0.1-0.7-0.3-1-0.6s-0.5-0.6-0.7-1c-0.2-0.4-0.2-0.8-0.2-1.3c0-0.5,0.1-1,0.3-1.5s0.4-1,0.7-1.4c0,0,0.1-0.1,0.1-0.1
			c0,0,0,0,0.1,0c0,0,0,0.1,0,0.1c0,0,0,0.1,0,0.1c-0.1,0.3-0.2,0.5-0.3,0.8c-0.1,0.3-0.1,0.5-0.2,0.8s0,0.5,0,0.8s0.1,0.5,0.2,0.7
			c0.1,0.2,0.2,0.4,0.3,0.6c0.1,0.2,0.3,0.3,0.5,0.5c0.2,0.1,0.4,0.2,0.7,0.3c0.3,0.1,0.6,0.1,0.9,0.1c0.4,0,0.8,0,1.2-0.1
			s0.8-0.2,1.1-0.4c0.4-0.2,0.7-0.4,1-0.6c0.3-0.2,0.6-0.5,0.8-0.8c0-0.3,0-0.6-0.1-0.9c-0.1-0.3-0.1-0.6-0.2-0.8
			c-0.1-0.3-0.2-0.5-0.3-0.8c-0.1-0.3-0.2-0.5-0.4-0.7c0-0.2,0.1-0.4,0.2-0.6c0.1-0.2,0.1-0.4,0.2-0.6c0,0,0-0.1,0.1-0.1
			s0.1,0,0.1,0.1c0.1,0.2,0.2,0.4,0.3,0.5c0.1,0.2,0.2,0.3,0.3,0.5c0.1,0.1,0.2,0.1,0.4,0.2C132.6,19,132.7,19.1,132.8,19.1z
			 M139.1,17.8c-0.1-0.2-0.3-0.4-0.5-0.6s-0.5-0.3-0.7-0.4c-0.3-0.1-0.5-0.1-0.8-0.1c-0.3,0-0.5,0-0.7,0.1c-0.3,0.1-0.6,0.3-0.8,0.4
			c-0.3,0.2-0.5,0.4-0.8,0.6c-0.2,0.2-0.5,0.4-0.7,0.7s-0.4,0.5-0.6,0.7c0.3,0,0.5,0.1,0.9,0.1c0.3,0,0.7,0,1-0.1
			c0.4,0,0.7-0.1,1.1-0.2c0.4-0.1,0.7-0.2,1-0.3s0.6-0.3,0.9-0.4C138.7,18.2,139,18,139.1,17.8z"/>
		<path d="M141,11.3c0-0.2,0.1-0.4,0.2-0.6s0.2-0.4,0.3-0.6c0,0,0,0,0.1,0s0.1,0,0.1,0c0.1,0.3,0.1,0.6,0.2,1c0.1,0.3,0.1,0.7,0.2,1
			c0.1,0.4,0.1,0.8,0.2,1.2c0.1,0.4,0.1,1,0.2,1.5c0,0.4,0.1,0.8,0.1,1.1c0,0.3,0.1,0.6,0.1,0.8c0,0.2,0.1,0.5,0.1,0.7
			c0,0.2,0.1,0.4,0.1,0.6c0,0.3,0.1,0.5,0.2,0.7c0.1,0.2,0.2,0.4,0.4,0.5s0.3,0.2,0.5,0.3c0.2,0.1,0.4,0.1,0.7,0.1h0.1
			c0.2,0,0.3,0.1,0.4,0.2c0.1,0.1,0.1,0.3,0.1,0.4c0,0.2,0,0.3-0.1,0.4c-0.1,0.1-0.2,0.2-0.4,0.2h-0.1c-0.4,0-0.8-0.1-1.1-0.2
			c-0.3-0.1-0.5-0.3-0.7-0.6c-0.2-0.2-0.3-0.5-0.5-0.8s-0.2-0.7-0.2-1c0-0.3-0.1-0.7-0.1-1c0-0.3-0.1-0.7-0.1-1s-0.1-0.6-0.1-1
			c0-0.3-0.1-0.6-0.1-0.9c-0.1-0.5-0.1-1-0.2-1.5s-0.2-1.1-0.4-1.6C141,11.4,141,11.4,141,11.3C141,11.3,141,11.3,141,11.3z"/>
		<path d="M152.3,11.5c-0.3,0.1-0.6,0.2-0.9,0.4s-0.6,0.3-0.9,0.4s-0.6,0.3-0.8,0.4c-0.3,0.1-0.5,0.2-0.6,0.3c0,0-0.1,0-0.1,0
			c0,0,0,0,0-0.1c0,0,0-0.1,0.1-0.2c0-0.1,0.1-0.2,0.1-0.3s0.1-0.2,0.1-0.2c0-0.1,0.1-0.1,0.1-0.1c0-0.1,0.1-0.1,0.2-0.1l3.2-1.4
			c0.1,0,0.1,0,0.1,0.1c0,0,0,0.1-0.1,0.2c0,0.1-0.1,0.1-0.1,0.2c0,0.1-0.1,0.1-0.1,0.2s-0.1,0.1-0.1,0.2
			C152.4,11.4,152.3,11.4,152.3,11.5z"/>
		<path d="M148.9,19.6c0.3-0.3,0.5-0.6,0.8-1s0.6-0.6,0.9-0.9c0.3-0.3,0.6-0.6,1-0.8c0.3-0.3,0.7-0.5,1.1-0.7
			c0.2-0.1,0.4-0.2,0.6-0.2s0.5,0,0.7,0c0.2,0,0.5,0.1,0.7,0.2c0.2,0.1,0.5,0.2,0.6,0.3s0.3,0.3,0.5,0.5c0.1,0.2,0.2,0.4,0.2,0.6
			c0,0.4-0.1,0.8-0.3,1.2c-0.2,0.3-0.4,0.6-0.7,0.9c0.3,0,0.6,0,0.8,0c0.3,0,0.5,0,0.8,0h0.1c0.2,0,0.3,0.1,0.4,0.2
			c0.1,0.1,0.1,0.3,0.1,0.4c0,0.2,0,0.3-0.1,0.4c-0.1,0.1-0.2,0.2-0.4,0.2h-0.1c-0.3,0-0.6,0-1,0c-0.4,0-0.7,0-1.1,0
			c-0.4,0-0.8,0-1.3,0c-0.4,0-0.9,0-1.3,0c-0.6,0.1-1.2,0.1-1.8,0.1s-1.1-0.1-1.6-0.2c0,0.1-0.1,0.2-0.1,0.3
			c-0.1,0.1-0.1,0.2-0.1,0.3c-0.1,0.2-0.1,0.2-0.3,0.2c0,0-0.1,0-0.1-0.1c0-0.1,0-0.1,0-0.2c0-0.1,0.1-0.2,0.1-0.3
			c0-0.1,0.1-0.2,0.1-0.3c-0.1-0.1-0.3-0.1-0.4-0.2c-0.1-0.1-0.2-0.1-0.3-0.2c-0.1-0.1-0.2-0.2-0.3-0.3c-0.1-0.1-0.2-0.2-0.3-0.3
			c-0.3,0.4-0.7,0.8-1,0.9c-0.4,0.2-0.8,0.3-1.3,0.3h-0.1c-0.2,0-0.3-0.1-0.4-0.2c-0.1-0.1-0.1-0.3-0.1-0.4c0-0.2,0-0.3,0.1-0.4
			c0.1-0.1,0.2-0.2,0.4-0.2h0.1c0.3,0,0.6,0,0.9-0.1c0.2,0,0.4-0.1,0.6-0.2c0.2-0.1,0.4-0.3,0.6-0.5c0.2-0.2,0.3-0.5,0.5-0.8
			c0-0.1,0.1-0.1,0.1-0.2c0.1,0,0.1,0,0.1,0.1c0,0.2,0.1,0.4,0.2,0.6c0.1,0.2,0.2,0.4,0.4,0.5c0.2,0.1,0.3,0.3,0.5,0.4
			C148.6,19.6,148.7,19.6,148.9,19.6z M149.6,19.7c0.3,0,0.6,0.1,0.9,0.1s0.7,0,1-0.1c0.4,0,0.7-0.1,1.1-0.2c0.4-0.1,0.7-0.2,1-0.3
			s0.6-0.3,0.9-0.4c0.3-0.2,0.5-0.3,0.7-0.5c-0.1-0.2-0.3-0.4-0.5-0.6c-0.2-0.2-0.5-0.3-0.7-0.4c-0.3-0.1-0.5-0.1-0.8-0.1
			s-0.5,0-0.7,0.1c-0.3,0.1-0.6,0.3-0.8,0.4c-0.3,0.2-0.5,0.4-0.8,0.6c-0.2,0.2-0.5,0.4-0.7,0.7S149.8,19.4,149.6,19.7z"/>
		<path d="M161,23.5c-0.6,0.2-1.1,0.4-1.6,0.6c-0.5,0.2-1,0.4-1.5,0.6c-0.1,0-0.1,0-0.1-0.1c0-0.1,0.1-0.2,0.2-0.3s0.1-0.2,0.2-0.3
			c0,0,0.1-0.1,0.1-0.1c0.1-0.1,0.3-0.1,0.6-0.2c0.2-0.1,0.5-0.2,0.8-0.3c0.3-0.1,0.6-0.2,0.9-0.3s0.6-0.2,0.9-0.3
			c0.1,0,0.1,0,0.1,0c0,0.1-0.1,0.1-0.1,0.2s-0.1,0.1-0.1,0.2s-0.1,0.1-0.1,0.2s-0.1,0.1-0.1,0.1C161.1,23.4,161.1,23.5,161,23.5
			C161.1,23.5,161,23.5,161,23.5z"/>
		<path d="M161.2,15.7c0.2,0,0.4,0.1,0.5,0.3c0.1,0.2,0.2,0.4,0.3,0.7c0.1,0.3,0.1,0.5,0.1,0.8s0,0.5-0.1,0.8
			c-0.1,0.2-0.2,0.5-0.3,0.7c-0.1,0.2-0.3,0.4-0.4,0.6c0.1,0.1,0.2,0.1,0.3,0.1s0.3,0.1,0.4,0.1s0.3,0,0.5,0s0.3,0,0.4,0h0.1
			c0.1,0,0.2,0,0.3,0.1s0.1,0.1,0.2,0.2c0,0.1,0.1,0.2,0.1,0.3c0,0.1,0,0.2-0.1,0.3c0,0.1-0.1,0.2-0.2,0.2s-0.2,0.1-0.3,0.1H163
			c-0.6,0-1.2-0.1-1.8-0.2s-1-0.3-1.5-0.6c-0.2,0.1-0.5,0.2-0.7,0.3c-0.2,0.1-0.5,0.2-0.7,0.2s-0.5,0.1-0.8,0.2
			c-0.3,0-0.6,0.1-0.9,0.1h-0.1c-0.2,0-0.3-0.1-0.4-0.2c-0.1-0.1-0.1-0.3-0.1-0.4c0-0.2,0-0.3,0.1-0.4c0.1-0.1,0.2-0.2,0.4-0.2h0.1
			c0.2,0,0.4,0,0.5,0c0.2,0,0.3,0,0.5,0c0.2,0,0.3-0.1,0.5-0.1c0.2,0,0.4-0.1,0.6-0.2c-0.1-0.1-0.1-0.2-0.1-0.4c0-0.1,0-0.3,0-0.4
			c0-0.4,0.1-0.8,0.3-1.1c0.2-0.4,0.4-0.7,0.6-0.9c0.3-0.3,0.5-0.5,0.8-0.7C160.7,15.8,160.9,15.7,161.2,15.7z M161.4,14
			c-0.1,0-0.1,0-0.2,0l-1-0.7l-0.6,0.9c0,0,0,0-0.1,0c0,0,0,0-0.1,0l-1.1-0.8c0,0,0,0,0,0c0,0,0,0,0-0.1l0.6-0.9c0,0,0,0,0.1-0.1
			c0,0,0,0,0.1,0l1,0.7l0.6-0.9c0,0,0,0,0,0c0,0,0,0,0.1,0L162,13c0,0,0,0.1,0,0.1L161.4,14z M161.5,18.2c0-0.2,0-0.3-0.1-0.5
			c-0.1-0.2-0.2-0.3-0.3-0.5c0-0.1-0.1-0.1-0.2-0.1c-0.1,0-0.2,0-0.3,0c-0.1,0-0.2,0-0.3,0.1c-0.1,0.1-0.3,0.1-0.4,0.2
			c-0.1,0.1-0.3,0.2-0.4,0.3s-0.2,0.2-0.2,0.4c0,0.1,0,0.3,0.1,0.4c0.1,0.1,0.1,0.2,0.2,0.3s0.2,0.1,0.3,0.2
			c0.1,0.1,0.2,0.1,0.2,0.1c0.1,0,0.2,0,0.3-0.1s0.3-0.1,0.4-0.2s0.3-0.2,0.4-0.3C161.4,18.3,161.4,18.3,161.5,18.2z"/>
		<path d="M165.7,7.1c0,0.2,0,0.4-0.1,0.6c0,0.2-0.1,0.3-0.2,0.5c-0.1,0.1-0.2,0.2-0.4,0.3s-0.4,0.1-0.6,0.1c-0.3,0-0.5-0.1-0.7-0.3
			c-0.2-0.2-0.3-0.4-0.3-0.7c0-0.2,0-0.4,0.1-0.6c0-0.2,0.1-0.4,0.2-0.6c0.1-0.2,0.2-0.4,0.4-0.5c0.2-0.2,0.3-0.2,0.6-0.3
			c0.2,0,0.4,0,0.5,0.1c0.1,0.1,0.2,0.2,0.3,0.4c0.1,0.2,0.1,0.3,0.2,0.5S165.7,6.9,165.7,7.1z M164.5,6.5c-0.1,0-0.2,0.1-0.3,0.1
			c-0.1,0.1-0.2,0.1-0.2,0.2c-0.1,0.1-0.1,0.2-0.2,0.3c0,0.1-0.1,0.2-0.1,0.3s0,0.2,0.1,0.2c0.1,0.1,0.1,0.1,0.2,0.1
			c0.1,0,0.2,0,0.2,0.1c0.1,0,0.2,0,0.2,0c0.3,0,0.6-0.1,0.8-0.4c0-0.1,0-0.2,0-0.3c0-0.1-0.1-0.2-0.2-0.3c-0.1-0.1-0.2-0.2-0.3-0.2
			C164.7,6.5,164.6,6.5,164.5,6.5z"/>
		<path d="M165,9.8C165.1,9.7,165.1,9.7,165,9.8c0.1-0.1,0.1-0.1,0.1,0c0,0.1,0.1,0.3,0.1,0.4c0.1,0.1,0.1,0.3,0.2,0.4
			c0.1,0.1,0.2,0.3,0.3,0.4s0.2,0.2,0.3,0.3c-0.1,0.1-0.1,0.2-0.2,0.3c-0.1,0.1-0.1,0.2-0.1,0.3s-0.1,0.2-0.1,0.2c0,0.1,0,0.2,0,0.2
			c0.1,0.5,0.1,1.1,0.2,1.6s0.2,1.1,0.2,1.6c0.1,0.5,0.1,1.1,0.2,1.6c0.1,0.5,0.1,1.1,0.1,1.6c0,0.1,0,0.3,0,0.4
			c0,0.2-0.1,0.3-0.1,0.5c0,0.2-0.1,0.3-0.2,0.5c-0.1,0.1-0.2,0.3-0.2,0.3c-0.2,0.1-0.4,0.3-0.6,0.4c-0.2,0.1-0.5,0.1-0.8,0.2
			c-0.3,0-0.5,0.1-0.8,0.1c-0.3,0-0.5,0-0.7,0h-0.1c-0.2,0-0.3-0.1-0.4-0.2c-0.1-0.1-0.1-0.3-0.1-0.4c0-0.2,0-0.3,0.1-0.4
			c0.1-0.1,0.2-0.2,0.4-0.2h0.1c0.1,0,0.2,0,0.3,0s0.3,0,0.5,0c0.2,0,0.4,0,0.6,0s0.4,0,0.6-0.1s0.3-0.1,0.5-0.1
			c0.1-0.1,0.2-0.1,0.3-0.2c-0.1-1.2-0.3-2.3-0.4-3.5c-0.2-1.1-0.3-2.3-0.5-3.4c0-0.2-0.1-0.5-0.1-0.7c-0.1-0.2-0.1-0.4-0.3-0.7
			c0-0.1-0.1-0.1-0.1-0.1c0,0,0-0.1,0-0.1c0.1-0.2,0.2-0.3,0.3-0.5C164.9,10.1,165,9.9,165,9.8z"/>
		<path d="M168.9,10.2C168.9,10.2,168.9,10.3,168.9,10.2c0.1,0.1,0.1,0.1,0.1,0.1c0,0,0,0.1,0,0.1s0,0.1,0,0.1c0,0.2,0,0.4,0,0.6
			s0,0.4,0.1,0.6c0.1,0.5,0.1,1,0.2,1.5c0.1,0.5,0.1,1,0.2,1.6s0.1,1.1,0.2,1.6c0.1,0.5,0.1,1,0.2,1.5c0,0.2,0,0.4,0,0.7
			c0,0.3,0,0.5,0,0.8c0,0.3,0,0.5-0.1,0.8c0,0.2-0.1,0.5-0.2,0.6c0,0.1-0.1,0.2-0.2,0.2c0,0-0.1,0-0.1-0.1c-0.1-1-0.2-1.9-0.3-2.9
			c-0.1-1-0.3-2.1-0.4-3.1c-0.1-1-0.3-2.1-0.4-3.1c0-0.3,0.1-0.5,0.2-0.8c0.1-0.2,0.1-0.3,0.2-0.4C168.8,10.5,168.8,10.3,168.9,10.2
			z"/>
		<path d="M184.8,24.8c-0.6,0.2-1.1,0.4-1.6,0.6c-0.5,0.2-1,0.4-1.5,0.6c-0.1,0-0.1,0-0.1-0.1c0-0.1,0.1-0.2,0.2-0.3
			s0.1-0.2,0.2-0.3c0,0,0.1-0.1,0.1-0.1c0.1-0.1,0.3-0.1,0.6-0.2c0.2-0.1,0.5-0.2,0.8-0.3c0.3-0.1,0.6-0.2,0.9-0.3s0.6-0.2,0.9-0.3
			c0.1,0,0.1,0,0.1,0c0,0.1-0.1,0.1-0.1,0.2s-0.1,0.1-0.1,0.2s-0.1,0.1-0.1,0.2s-0.1,0.1-0.1,0.1C184.9,24.7,184.9,24.7,184.8,24.8
			C184.8,24.7,184.8,24.8,184.8,24.8z"/>
		<path d="M180.2,19.9c0,0,0-0.1,0-0.2s0.1-0.2,0.1-0.3c0-0.1,0.1-0.2,0.1-0.3c0.1-0.1,0.1-0.2,0.2-0.2c0.1-0.1,0.3-0.1,0.5-0.2
			c0.2-0.1,0.4-0.2,0.6-0.3c0.2-0.1,0.4-0.3,0.6-0.4c0.2-0.1,0.2-0.3,0.3-0.5c0-0.1,0-0.2,0-0.3c0-0.1,0-0.2-0.1-0.3
			c0-0.1-0.1-0.2-0.1-0.3c0-0.1-0.1-0.2-0.1-0.3c-0.1,0.3-0.3,0.5-0.5,0.7s-0.5,0.3-0.8,0.3c-0.1,0-0.3,0-0.4-0.1
			c-0.1-0.1-0.3-0.2-0.4-0.3s-0.2-0.3-0.2-0.4c-0.1-0.1-0.1-0.3-0.1-0.4c0-0.1,0-0.3,0-0.4s0.1-0.3,0.1-0.5c0.1-0.2,0.1-0.3,0.2-0.5
			s0.2-0.3,0.3-0.4c0.1-0.1,0.2-0.2,0.4-0.3s0.3-0.1,0.4-0.1c0.2,0,0.4,0.1,0.6,0.2c0.2,0.2,0.4,0.4,0.5,0.6
			c0.2,0.2,0.3,0.5,0.4,0.7c0.1,0.2,0.2,0.5,0.2,0.6c0.1,0.2,0.1,0.5,0.1,0.7c0,0.3,0,0.5,0,0.8c0,0.3-0.1,0.5-0.2,0.8
			s-0.2,0.5-0.4,0.7c0.5,0.1,0.8,0.2,1,0.5c0.2,0.2,0.3,0.5,0.3,0.9c0,0.3-0.1,0.7-0.3,1c-0.2,0.3-0.4,0.6-0.7,0.9
			c-0.3,0.3-0.6,0.5-1,0.7c-0.4,0.2-0.8,0.4-1.2,0.6c-0.4,0.2-0.8,0.3-1.3,0.4c-0.4,0.1-0.8,0.1-1.2,0.1c-0.5,0-1-0.1-1.4-0.2
			s-0.8-0.3-1.1-0.6c-0.3-0.3-0.5-0.6-0.7-1c-0.2-0.4-0.3-0.9-0.3-1.4c0-0.3,0-0.5,0.1-0.8c0.1-0.3,0.1-0.5,0.2-0.8s0.2-0.5,0.3-0.7
			c0.1-0.2,0.3-0.5,0.4-0.7c0,0,0,0,0.1,0c0,0,0,0,0.1,0c0,0,0,0.1,0,0.1c0,0,0,0.1,0,0.1c-0.2,0.4-0.4,0.8-0.5,1.2
			c-0.1,0.4-0.2,0.9-0.2,1.3c0,0.4,0.1,0.8,0.3,1c0.2,0.3,0.4,0.5,0.7,0.7c0.3,0.2,0.6,0.3,0.9,0.4c0.3,0.1,0.7,0.1,1,0.1
			c0.3,0,0.7,0,1-0.1s0.6-0.1,0.9-0.2c0.3-0.1,0.6-0.2,0.9-0.3c0.3-0.1,0.6-0.3,0.9-0.4c0.1,0,0.2-0.1,0.3-0.2
			c0.1-0.1,0.3-0.2,0.4-0.3s0.3-0.2,0.4-0.3s0.2-0.2,0.2-0.2c0-0.1-0.1-0.1-0.1-0.2s-0.2-0.1-0.3-0.2c-0.1,0-0.2-0.1-0.4-0.1
			c-0.2,0-0.3-0.1-0.5-0.1c-0.2,0-0.4,0-0.6-0.1c-0.2,0-0.4,0-0.6,0c-0.2,0-0.3,0-0.4,0C180.4,19.9,180.3,19.9,180.2,19.9z
			 M180,26.7C180,26.8,180,26.8,180,26.7c-0.1,0.1-0.1,0-0.2,0l-1-0.8l-0.6,0.9c0,0-0.1,0.1-0.1,0l-1.1-0.8c0,0,0-0.1,0-0.1l0.7-1
			c0,0,0,0,0.1,0c0,0,0,0,0.1,0l1,0.8l0.7-0.9c0,0,0.1-0.1,0.1,0l1.1,0.9c0,0,0,0.1,0,0.1L180,26.7z M180.5,10.7c0,0,0.1-0.1,0.1,0
			l1,0.8c0,0,0,0,0,0.1c0,0,0,0,0,0.1l-0.7,0.8c0,0-0.1,0-0.1,0l-1-0.8c0,0,0,0,0,0c0,0,0,0,0-0.1L180.5,10.7z M180.6,15.7
			c0,0.1,0.1,0.2,0.2,0.3c0.1,0.1,0.2,0.1,0.4,0.2c0.1,0,0.3,0,0.4,0c0.1,0,0.3-0.1,0.4-0.2c0,0,0,0,0-0.1c0,0,0-0.1,0-0.1
			c0-0.1-0.1-0.2-0.2-0.2c-0.1-0.1-0.1-0.1-0.2-0.2c-0.2-0.1-0.4-0.2-0.6-0.2c-0.1,0-0.2,0.1-0.3,0.2
			C180.7,15.4,180.6,15.5,180.6,15.7z"/>
		<path d="M192.2,11.9c0,0.2,0,0.4-0.1,0.6c0,0.2-0.1,0.3-0.2,0.5s-0.2,0.2-0.4,0.3c-0.2,0.1-0.4,0.1-0.6,0.1
			c-0.3,0-0.5-0.1-0.7-0.3c-0.2-0.2-0.3-0.4-0.3-0.7c0-0.2,0-0.3,0.1-0.6s0.1-0.4,0.2-0.6c0.1-0.2,0.2-0.4,0.4-0.5
			c0.2-0.2,0.3-0.2,0.6-0.3c0.2,0,0.4,0,0.5,0.1c0.1,0.1,0.2,0.2,0.3,0.4c0.1,0.2,0.1,0.3,0.2,0.5C192.2,11.6,192.2,11.7,192.2,11.9
			z M191,11.2c-0.1,0-0.2,0.1-0.3,0.1c-0.1,0.1-0.2,0.1-0.2,0.2s-0.1,0.2-0.2,0.3c0,0.1-0.1,0.2-0.1,0.3s0,0.2,0.1,0.2
			c0.1,0.1,0.1,0.1,0.2,0.1c0.1,0,0.2,0,0.2,0.1c0.1,0,0.2,0,0.2,0c0.3,0,0.6-0.1,0.8-0.4c0-0.1,0-0.2,0-0.3c0-0.1-0.1-0.2-0.2-0.3
			c-0.1-0.1-0.2-0.2-0.3-0.2C191.3,11.2,191.1,11.2,191,11.2z"/>
		<path d="M191.8,18.1c0.1,0,0.2,0,0.3,0.1c0.1,0.1,0.2,0.1,0.3,0.2c0.1,0.1,0.2,0.2,0.3,0.3c0.1,0.1,0.2,0.2,0.3,0.3
			c0.2,0.1,0.3,0.2,0.5,0.3s0.4,0.1,0.6,0.2c0.2,0,0.4,0.1,0.6,0.1c0.2,0,0.4,0,0.6,0h0.1c0.2,0,0.3,0.1,0.4,0.2
			c0.1,0.1,0.1,0.3,0.1,0.4c0,0.2,0,0.3-0.1,0.4c-0.1,0.1-0.2,0.2-0.4,0.2h-0.1c-0.3,0-0.5,0-0.9,0s-0.7-0.1-1.1-0.2
			c0,0.1,0,0.3-0.1,0.4s-0.1,0.2-0.1,0.2c-0.2,0-0.5,0-0.8,0s-0.6-0.1-0.9-0.2c-0.3-0.1-0.6-0.2-0.8-0.4c-0.2-0.1-0.4-0.3-0.5-0.4
			c-0.1,0-0.2,0.1-0.3,0.2s-0.2,0.2-0.3,0.3c-0.1,0.1-0.2,0.2-0.3,0.4c-0.1,0.1-0.1,0.3-0.1,0.4c0,0.2,0,0.5,0.1,0.8
			c0,0.3,0.1,0.7,0.1,1.1c0.1,0.4,0.1,0.7,0.2,1.1c0.1,0.4,0.1,0.7,0.2,0.9c0,0.2,0.1,0.5,0.1,0.8s0.1,0.6,0.1,0.8
			c0,0.3,0,0.5,0,0.8c0,0.2,0,0.4-0.1,0.6c0,0.1-0.1,0.1-0.1,0.1c0,0-0.1,0-0.1-0.1c0-0.1-0.1-0.2-0.1-0.3c0-0.1,0-0.2-0.1-0.3
			c0-0.1-0.1-0.3-0.1-0.6c0-0.3-0.1-0.7-0.2-1.3c-0.2-1-0.3-1.9-0.4-2.5c-0.1-0.7-0.2-1.2-0.2-1.5c0-0.5,0-0.9,0.2-1.3
			c0.1-0.4,0.3-0.7,0.6-0.9c0.1-0.1,0.2-0.1,0.3-0.2c0.1-0.1,0.3-0.2,0.4-0.3c0.1-0.1,0.3-0.2,0.5-0.4c0.2-0.1,0.3-0.2,0.5-0.3
			c0.2-0.1,0.3-0.2,0.4-0.2C191.6,18.2,191.7,18.1,191.8,18.1z M191.6,19.1c-0.1,0-0.3,0-0.5,0.1c-0.2,0.1-0.3,0.2-0.4,0.3
			c0,0,0,0,0,0.1c0,0,0,0,0,0.1c0.1,0.1,0.3,0.2,0.4,0.2c0.2,0.1,0.4,0.1,0.5,0.2c0.2,0.1,0.4,0.1,0.5,0.1c0.2,0,0.3,0,0.3,0
			c-0.1-0.1-0.1-0.3-0.2-0.4c-0.1-0.1-0.2-0.2-0.3-0.3c-0.1-0.1-0.2-0.2-0.3-0.2C191.7,19.1,191.7,19.1,191.6,19.1z"/>
		<path d="M197.1,12.4C197,12.4,197,12.3,197.1,12.4c0-0.2,0.1-0.2,0.2-0.3c0.2-0.1,0.4-0.2,0.5-0.3c0.2-0.1,0.3-0.2,0.5-0.3
			c0.2-0.1,0.3-0.2,0.5-0.4c0.2-0.1,0.3-0.3,0.5-0.5c-0.1,0-0.3-0.1-0.5-0.2c-0.2-0.1-0.3-0.2-0.4-0.3c-0.1-0.1-0.1-0.1-0.1-0.2
			c0-0.1,0-0.2,0-0.3c0-0.1,0.1-0.3,0.2-0.4c0.1-0.2,0.2-0.3,0.3-0.4c0.1-0.1,0.2-0.2,0.4-0.3s0.3-0.1,0.4-0.1c0.1,0,0.2,0,0.3,0.1
			c0.1,0.1,0.1,0.2,0.2,0.3c0,0.1,0.1,0.2,0.1,0.4s0,0.3,0,0.4s0,0.3,0,0.4c0,0.1,0,0.2,0,0.3c0,0,0,0,0,0.1c0.1,0,0.1,0.1,0.1,0.1
			s0,0.1,0.1,0.1c0,0.1,0,0.2,0,0.3s-0.1,0.2-0.1,0.3c0,0.1-0.1,0.1-0.1,0.1c0,0-0.1,0-0.1-0.1c0,0,0-0.1-0.1-0.1c0,0-0.1,0-0.1-0.1
			c-0.2,0.2-0.3,0.4-0.5,0.6c-0.2,0.2-0.3,0.3-0.5,0.4s-0.4,0.2-0.5,0.3c-0.2,0.1-0.4,0.2-0.7,0.3c-0.1,0-0.2,0.1-0.3,0.1
			C197.2,12.4,197.1,12.4,197.1,12.4z M198.8,9.3c0.1,0.2,0.2,0.3,0.4,0.4c0.2,0.1,0.3,0.2,0.4,0.2h0c0,0,0-0.1,0-0.2
			c0-0.1,0-0.1,0-0.2c0-0.1,0-0.2,0-0.2c0-0.1-0.1-0.1-0.1-0.2c0,0-0.1-0.1-0.2-0.1c-0.1,0-0.2,0-0.2,0c-0.1,0-0.2,0.1-0.2,0.1
			C198.9,9.2,198.8,9.3,198.8,9.3z"/>
		<path d="M195.3,19.7c0.6,0,1.2,0,1.9,0c0.7,0,1.5,0,2.3,0c0.8,0,1.7-0.1,2.6-0.1s1.8-0.1,2.8-0.2c0.9-0.1,1.9-0.2,2.9-0.3
			c1-0.1,1.9-0.2,2.9-0.4c0-0.2-0.1-0.4-0.1-0.5c-0.1-0.2-0.2-0.3-0.3-0.4c-0.1-0.1-0.3-0.2-0.4-0.2c-0.2-0.1-0.3-0.1-0.5-0.1
			c-0.8,0-1.7,0.1-2.6,0.1c-0.9,0.1-1.9,0.2-2.8,0.2c-0.9,0.1-1.9,0.1-2.8,0.2c-0.9,0-1.8,0-2.6,0c-0.1,0-0.2,0-0.3,0
			s-0.3,0-0.5-0.1c-0.2,0-0.3-0.1-0.5-0.1c-0.2,0-0.3-0.1-0.5-0.1s-0.3-0.1-0.4-0.2s-0.1-0.1-0.1-0.2c0-0.2,0-0.4,0.1-0.7
			c0.1-0.2,0.2-0.5,0.3-0.7c0.1-0.2,0.3-0.4,0.4-0.6s0.3-0.4,0.4-0.5c1.1-1,2.5-1.7,3.9-2c0.1,0,0.1,0,0.1,0c0,0,0.1,0,0.1,0.1
			c0,0,0,0.1,0,0.1c0,0,0,0.1,0,0.1c-0.1,0.1-0.1,0.3-0.2,0.5c-0.1,0.2-0.2,0.3-0.2,0.5c-0.1,0-0.2,0-0.4,0.1
			c-0.2,0.1-0.4,0.1-0.6,0.2s-0.5,0.2-0.7,0.3c-0.3,0.1-0.5,0.2-0.8,0.3c-0.2,0.1-0.4,0.2-0.6,0.3c-0.2,0.1-0.4,0.2-0.5,0.4
			c-0.1,0.1-0.3,0.3-0.4,0.4c-0.1,0.1-0.1,0.2-0.1,0.3c0,0.1,0.1,0.2,0.3,0.2s0.3,0.1,0.5,0.2c0.2,0,0.4,0.1,0.6,0.1s0.3,0,0.4,0
			c0.6,0,1.3,0.1,2,0.1c0.7,0,1.5,0,2.2-0.1c0.8,0,1.5-0.1,2.2-0.2s1.4-0.1,2.1-0.2c0.2,0,0.5,0,0.8,0c0.3,0,0.6,0,0.9,0
			c0.3,0,0.6,0,0.9,0.1c0.3,0,0.6,0.1,0.8,0.2c0.2,0.1,0.4,0.3,0.6,0.5c0.2,0.2,0.3,0.4,0.3,0.7c0,0.1,0,0.3,0,0.5
			c0,0.2-0.1,0.3-0.1,0.5c0,0.2-0.1,0.3-0.2,0.4s-0.1,0.2-0.2,0.3c0,0,0.1,0.1,0.1,0.1s0.1,0,0.2,0c0.1,0,0.2,0,0.3,0
			c0.1,0,0.3,0,0.5,0h0.2c0.2,0,0.3,0.1,0.4,0.2c0.1,0.1,0.1,0.3,0.1,0.4c0,0.2,0,0.3-0.1,0.4c-0.1,0.1-0.2,0.2-0.4,0.2H212
			c-0.3,0-0.6,0-0.8,0c-0.2,0-0.4-0.1-0.5-0.2c-0.1-0.1-0.2-0.2-0.3-0.3c0-0.1-0.1-0.3-0.1-0.6c-0.9,0.1-1.8,0.3-2.8,0.4
			c-1,0.1-1.9,0.2-2.9,0.3c-1,0.1-1.9,0.1-2.9,0.2c-0.9,0.1-1.8,0.1-2.6,0.1c-0.8,0-1.6,0.1-2.2,0.1c-0.7,0-1.2,0-1.7,0h-0.1
			c-0.2,0-0.3-0.1-0.4-0.2c-0.1-0.1-0.1-0.3-0.1-0.4c0-0.2,0-0.3,0.1-0.4c0.1-0.1,0.2-0.2,0.4-0.2H195.3z"/>
		<path d="M215.2,7.7c-0.3,0.1-0.6,0.2-0.9,0.4s-0.6,0.3-0.9,0.4s-0.6,0.3-0.8,0.4c-0.3,0.1-0.5,0.2-0.6,0.3c0,0-0.1,0-0.1,0
			c0,0,0,0,0-0.1c0,0,0-0.1,0.1-0.2c0-0.1,0.1-0.2,0.1-0.3s0.1-0.2,0.1-0.2c0-0.1,0.1-0.1,0.1-0.1c0-0.1,0.1-0.1,0.2-0.1l3.2-1.4
			c0.1,0,0.1,0,0.1,0.1c0,0,0,0.1-0.1,0.2c0,0.1-0.1,0.1-0.1,0.2c0,0.1-0.1,0.1-0.1,0.2s-0.1,0.1-0.1,0.2
			C215.3,7.6,215.3,7.7,215.2,7.7z"/>
		<path d="M214,9.8C214,9.7,214.1,9.7,214,9.8c0.1-0.1,0.1-0.1,0.1,0c0,0.1,0.1,0.3,0.1,0.4c0.1,0.1,0.1,0.3,0.2,0.4
			c0.1,0.1,0.2,0.3,0.3,0.4s0.2,0.2,0.3,0.3c-0.1,0.1-0.1,0.2-0.2,0.3c-0.1,0.1-0.1,0.2-0.1,0.3s-0.1,0.2-0.1,0.2c0,0.1,0,0.2,0,0.2
			c0.1,0.5,0.1,1.1,0.2,1.6s0.2,1.1,0.2,1.6c0.1,0.5,0.1,1.1,0.2,1.6c0.1,0.5,0.1,1.1,0.1,1.6c0,0.1,0,0.3,0,0.4
			c0,0.2-0.1,0.3-0.1,0.5c0,0.2-0.1,0.3-0.2,0.5c-0.1,0.1-0.2,0.3-0.2,0.3c-0.2,0.1-0.4,0.3-0.6,0.4c-0.2,0.1-0.5,0.1-0.8,0.2
			c-0.3,0-0.5,0.1-0.8,0.1c-0.3,0-0.5,0-0.7,0h-0.1c-0.2,0-0.3-0.1-0.4-0.2c-0.1-0.1-0.1-0.3-0.1-0.4c0-0.2,0-0.3,0.1-0.4
			c0.1-0.1,0.2-0.2,0.4-0.2h0.1c0.1,0,0.2,0,0.3,0s0.3,0,0.5,0c0.2,0,0.4,0,0.6,0s0.4,0,0.6-0.1s0.3-0.1,0.5-0.1
			c0.1-0.1,0.2-0.1,0.3-0.2c-0.1-1.2-0.3-2.3-0.4-3.5c-0.2-1.1-0.3-2.3-0.5-3.4c0-0.2-0.1-0.5-0.1-0.7c-0.1-0.2-0.1-0.4-0.3-0.7
			c0-0.1-0.1-0.1-0.1-0.1c0,0,0-0.1,0-0.1c0.1-0.2,0.2-0.3,0.3-0.5C213.9,10.1,214,9.9,214,9.8z"/>
		<path d="M220.7,12.9c-0.3,0.1-0.6,0.2-0.9,0.4s-0.6,0.3-0.9,0.4c-0.3,0.1-0.6,0.3-0.8,0.4c-0.3,0.1-0.5,0.2-0.6,0.3
			c0,0-0.1,0-0.1,0s0,0,0-0.1c0,0,0-0.1,0.1-0.2c0-0.1,0.1-0.2,0.1-0.3c0-0.1,0.1-0.2,0.1-0.2c0-0.1,0.1-0.1,0.1-0.1
			c0-0.1,0.1-0.1,0.2-0.1l3.2-1.4c0.1,0,0.1,0,0.1,0.1c0,0,0,0.1-0.1,0.2s-0.1,0.1-0.1,0.2c0,0.1-0.1,0.1-0.1,0.2s-0.1,0.1-0.1,0.2
			C220.8,12.8,220.8,12.9,220.7,12.9z"/>
		<path d="M221.4,19.5c-0.1,0.2-0.2,0.4-0.4,0.6c-0.2,0.2-0.5,0.2-0.8,0.2c-0.1,0-0.3,0-0.4-0.1c-0.1-0.1-0.3-0.2-0.4-0.3
			c-0.1-0.1-0.2-0.3-0.2-0.4c-0.1-0.2-0.1-0.3-0.1-0.5c0-0.1,0-0.3,0.1-0.4c0-0.2,0.1-0.3,0.1-0.5c0.1-0.2,0.1-0.3,0.2-0.5
			c0.1-0.2,0.2-0.3,0.3-0.4c0.1-0.1,0.2-0.2,0.3-0.3c0.1-0.1,0.2-0.1,0.3-0.1c0.2,0,0.4,0.1,0.6,0.3s0.4,0.4,0.5,0.7
			c0.1,0.3,0.2,0.6,0.3,0.9s0.1,0.6,0.1,0.9c0,0.4-0.1,0.8-0.2,1.2s-0.2,0.9-0.4,1.3c-0.2,0.4-0.3,0.8-0.6,1.2
			c-0.2,0.4-0.4,0.7-0.7,0.9c-0.2,0.2-0.5,0.4-0.7,0.6c-0.3,0.2-0.5,0.3-0.8,0.4c-0.3,0.1-0.6,0.2-0.9,0.2c-0.3,0-0.6,0-0.9,0
			c-0.3,0-0.7-0.1-1-0.1c-0.3-0.1-0.6-0.1-0.9-0.2c0,0-0.1,0-0.1-0.1c0,0,0-0.1,0-0.1s0-0.1,0.1-0.1s0.1,0,0.2,0c0.4,0,0.9,0,1.3,0
			c0.4-0.1,0.9-0.2,1.3-0.3c0.3-0.1,0.7-0.3,1-0.5c0.3-0.2,0.6-0.4,0.9-0.7c0.2-0.2,0.4-0.4,0.6-0.7c0.2-0.2,0.4-0.5,0.5-0.8
			s0.3-0.5,0.4-0.8c0.1-0.3,0.2-0.5,0.2-0.8c0,0,0-0.1,0-0.2c0-0.1,0-0.1,0-0.2c0-0.1,0-0.1,0-0.2S221.4,19.5,221.4,19.5z
			 M221.1,18.8c0,0,0-0.1-0.1-0.2c0-0.1-0.1-0.2-0.2-0.2s-0.2-0.2-0.2-0.2c-0.1-0.1-0.2-0.1-0.3-0.1c-0.1,0-0.2,0-0.2,0.1
			c-0.1,0.1-0.1,0.1-0.2,0.2c0,0.1-0.1,0.2-0.1,0.2c0,0.1,0,0.1,0,0.2c0.1,0.1,0.2,0.2,0.3,0.2c0.1,0,0.3,0.1,0.4,0.1
			c0.1,0,0.3,0,0.4-0.1C220.9,18.9,221,18.8,221.1,18.8z"/>
	</g>
	<g>
		<path d="M235.7,18.2c0,0.1-0.1,0.3-0.2,0.4c-0.2,0.2-0.4,0.4-0.8,0.6c0,0.4-0.1,0.7-0.2,1.1c-0.1,0.3-0.2,0.4-0.3,0.4
			c-0.4-0.4-0.7-0.7-1.1-0.9c-0.4-0.3-0.8-0.4-1.2-0.5c0,0.4,0.2,0.8,0.6,1.2c0.3,0.3,0.6,0.7,0.9,1c0,0.2-0.3,0.3-0.9,0.4
			c-0.5,0.1-0.9,0.1-1.2,0.1c-0.5,1.4-1.1,2.6-1.9,3.8c-0.4,0.5-0.8,1-1.4,1.6c-0.8,0.8-1.4,1.2-1.8,1.2c-0.1,0-0.2-0.1-0.2-0.2
			c0-0.1,0.2-0.4,0.7-0.9c0.6-0.7,1.1-1.4,1.5-2c0.6-1.1,1-2.2,1.2-3.6c-0.4-0.1-0.7-0.1-0.8-0.2c-0.1-0.1-0.2-0.1-0.2-0.3
			c0.9-0.8,1.4-1.5,1.4-2.2c-0.4,0-0.8,0.1-1.1,0.4c-0.2,0.2-0.5,0.6-1,1c-0.1,0-0.2-0.2-0.4-0.5c-0.1-0.3-0.2-0.7-0.2-1.1
			c-0.4-0.2-0.6-0.3-0.7-0.4c-0.2-0.2-0.4-0.4-0.4-0.6c0-0.1,0.1-0.3,0.2-0.4c0.1-0.1,0.3-0.2,0.8-0.5c0-1,0.2-1.6,0.5-1.6
			c0.8,0.8,1.5,1.3,2.1,1.4c0-0.3-0.2-0.7-0.5-1.2c0,0-0.3-0.4-0.9-1c0-0.1,0.1-0.2,0.2-0.2c0.2-0.1,0.4-0.1,0.8-0.2
			c-0.2-1-0.6-2.1-1.2-3.2c-0.6-1.1-1.3-2-2.2-2.7c-0.1-0.1-0.2-0.2-0.2-0.3c0-0.1,0.1-0.1,0.2-0.2c0.2,0,0.7,0.2,1.2,0.6
			c1.7,1.2,3.1,3.1,4,5.7c1.4,0,2,0.2,2,0.6c-0.4,0.3-0.7,0.6-0.9,1c-0.3,0.4-0.4,0.8-0.4,1.2c0.3,0,0.7-0.2,1-0.5l1.1-1
			c0.2,0,0.4,0.5,0.5,1.3c0,0.1,0,0.2,0,0.2C235.4,17.6,235.7,17.9,235.7,18.2z M232.6,15c0,0-0.1-0.1-0.4-0.1
			c-0.2,0-0.4-0.1-0.5-0.1h-0.4c-0.1,0-0.2,0-0.3,0.1c-0.4-1.2-0.9-2.3-1.6-3.4c-0.8-1.2-1.8-2.2-2.9-2.9c0.7,0.7,1.4,1.5,1.9,2.5
			c0.7,1.2,1.2,2.4,1.3,3.7c-0.5,0-0.8,0.1-0.8,0.2c0.6,0.5,1,0.9,1.2,1.5c0.1-0.2,0.2-0.4,0.3-0.7c0,0,0.1-0.1,0.1-0.3
			c0.1-0.2,0.1-0.3,0.2-0.3c0.2,0,0.4,0.4,0.7,1.3c0.2-0.3,0.3-0.6,0.5-0.9C232.2,15.4,232.4,15.3,232.6,15z M229.3,18.9
			c-0.1-0.1-0.5-0.2-1.1-0.4c-0.4-0.1-0.6-0.2-0.6-0.3c0,0,0.3-0.2,0.9-0.4c0.1-0.1,0.4-0.2,0.7-0.3c-0.3-0.1-0.6-0.3-0.9-0.5
			c-0.1-0.1-0.4-0.3-0.6-0.6c-0.1,0-0.2,0.4-0.2,1.1c-0.6,0.3-0.9,0.5-0.9,0.7c0,0.2,0.3,0.3,0.9,0.6c0,0.8,0.1,1.2,0.2,1.2
			c0,0,0.2-0.2,0.6-0.5C228.8,19.2,229.1,19,229.3,18.9z M232.8,21.4c-0.5-0.4-0.9-0.8-1.2-1.4c-0.1,0.2-0.2,0.4-0.3,0.6
			c0,0-0.1,0.2-0.2,0.4c-0.1,0.2-0.2,0.3-0.2,0.3c0,0-0.1-0.1-0.2-0.3c-0.1-0.2-0.1-0.3-0.1-0.3c0-0.1-0.1-0.3-0.3-0.7
			c-0.1,0.3-0.3,0.5-0.5,0.8c-0.2,0.2-0.4,0.4-0.6,0.6c0,0.1,0.3,0.1,0.8,0.2c-0.3,1.2-0.5,2-0.6,2.3c-0.5,1.4-1.2,2.7-2.3,3.9
			c1.8-1.2,3.2-3.3,4.2-6.3c0.7,0,1,0,0.9,0C232.5,21.6,232.7,21.5,232.8,21.4z M232.2,18.2c0-0.4-0.1-0.7-0.4-0.9
			c-0.2-0.2-0.5-0.3-0.9-0.3c-0.3,0-0.6,0.1-0.9,0.4c-0.2,0.2-0.4,0.5-0.4,0.9c0,0.4,0.1,0.6,0.4,0.9c0.2,0.2,0.5,0.4,0.9,0.4
			c0.4,0,0.7-0.1,0.9-0.4C232,18.9,232.2,18.6,232.2,18.2z M235.2,18.2c0-0.1-0.1-0.2-0.2-0.3c-0.2-0.1-0.4-0.2-0.7-0.3
			c0-0.4,0-0.6-0.1-0.9c-0.1-0.2-0.1-0.4-0.2-0.4c0,0-0.2,0.2-0.5,0.5c-0.3,0.3-0.7,0.6-1,0.7c0.2,0.1,0.4,0.2,0.7,0.4
			c0,0,0.2,0.1,0.6,0.2c0.3,0.1,0.4,0.2,0.4,0.2c0,0.1-0.2,0.2-0.6,0.3c-0.6,0.2-1,0.3-1.1,0.3c0.4,0.1,0.7,0.3,1,0.5
			c0.1,0.1,0.4,0.3,0.6,0.6c0.1,0,0.1-0.1,0.2-0.3c0-0.1,0-0.4,0-0.8C234.9,18.5,235.2,18.3,235.2,18.2z"/>
	</g>
	<g>
		<path d="M6.3,18.5c0-0.1,0.1-0.3,0.2-0.4c0.2-0.2,0.4-0.4,0.8-0.6c0-0.4,0.1-0.7,0.2-1.1C7.5,16.1,7.7,16,7.8,16
			c0.4,0.4,0.7,0.7,1.1,0.9c0.4,0.3,0.8,0.4,1.2,0.5c0-0.4-0.2-0.8-0.6-1.2c-0.3-0.3-0.6-0.7-0.9-1c0-0.2,0.3-0.3,0.9-0.4
			c0.5-0.1,0.9-0.1,1.2-0.1c0.5-1.4,1.1-2.6,1.9-3.8c0.4-0.5,0.8-1,1.4-1.6C14.8,8.4,15.4,8,15.7,8c0.1,0,0.2,0.1,0.2,0.2
			c0,0.1-0.2,0.4-0.7,0.9c-0.6,0.7-1.1,1.4-1.5,2c-0.6,1.1-1,2.2-1.2,3.6c0.4,0.1,0.7,0.1,0.8,0.2c0.1,0.1,0.2,0.1,0.2,0.3
			c-0.9,0.8-1.4,1.5-1.4,2.2c0.4,0,0.8-0.1,1.1-0.4c0.2-0.2,0.5-0.6,1-1c0.1,0,0.2,0.2,0.4,0.5c0.1,0.3,0.2,0.7,0.2,1.1
			c0.4,0.2,0.6,0.3,0.7,0.4c0.2,0.2,0.4,0.4,0.4,0.6c0,0.1-0.1,0.3-0.2,0.4c-0.1,0.1-0.3,0.2-0.8,0.5c0,1-0.2,1.6-0.5,1.6
			c-0.8-0.8-1.5-1.3-2.1-1.4c0,0.3,0.2,0.7,0.5,1.2c0,0,0.3,0.4,0.9,1c0,0.1-0.1,0.2-0.2,0.2c-0.2,0.1-0.4,0.1-0.8,0.2
			c0.2,1,0.6,2.1,1.2,3.2c0.6,1.1,1.3,2,2.2,2.7c0.1,0.1,0.2,0.2,0.2,0.3c0,0.1-0.1,0.1-0.2,0.2c-0.2,0-0.7-0.2-1.2-0.6
			c-1.7-1.2-3.1-3.1-4-5.7c-1.4,0-2-0.2-2-0.6c0.4-0.3,0.7-0.6,0.9-1c0.3-0.4,0.4-0.8,0.4-1.2c-0.3,0-0.7,0.2-1,0.5l-1.1,1
			c-0.2,0-0.4-0.5-0.5-1.3c0-0.1,0-0.2,0-0.2C6.7,19.1,6.3,18.8,6.3,18.5z M9.4,21.7c0,0,0.1,0.1,0.4,0.1c0.2,0,0.4,0.1,0.5,0.1h0.4
			c0.1,0,0.2,0,0.3-0.1c0.4,1.2,0.9,2.3,1.6,3.4c0.8,1.2,1.8,2.2,2.9,2.9c-0.7-0.7-1.4-1.5-1.9-2.5c-0.7-1.2-1.2-2.4-1.3-3.7
			c0.5,0,0.8-0.1,0.8-0.2c-0.6-0.5-1-0.9-1.2-1.5c-0.1,0.2-0.2,0.4-0.3,0.7c0,0-0.1,0.1-0.1,0.3c-0.1,0.2-0.1,0.3-0.2,0.3
			c-0.2,0-0.4-0.4-0.7-1.3c-0.2,0.3-0.3,0.6-0.5,0.9C9.8,21.3,9.6,21.5,9.4,21.7z M12.7,17.8c0.1,0.1,0.5,0.2,1.1,0.4
			c0.4,0.1,0.6,0.2,0.6,0.3c0,0-0.3,0.2-0.9,0.4c-0.1,0.1-0.4,0.2-0.7,0.3c0.3,0.1,0.6,0.3,0.9,0.5c0.1,0.1,0.4,0.3,0.6,0.6
			c0.1,0,0.2-0.4,0.2-1.1c0.6-0.3,0.9-0.5,0.9-0.7c0-0.2-0.3-0.3-0.9-0.6c0-0.8-0.1-1.2-0.2-1.2c0,0-0.2,0.2-0.6,0.5
			C13.2,17.5,12.9,17.7,12.7,17.8z M9.3,15.3c0.5,0.4,0.9,0.8,1.2,1.4c0.1-0.2,0.2-0.4,0.3-0.6c0,0,0.1-0.2,0.2-0.4
			c0.1-0.2,0.2-0.3,0.2-0.3c0,0,0.1,0.1,0.2,0.3c0.1,0.2,0.1,0.3,0.1,0.3c0,0.1,0.1,0.3,0.3,0.7c0.1-0.3,0.3-0.5,0.5-0.8
			c0.2-0.2,0.4-0.4,0.6-0.6c0-0.1-0.3-0.1-0.8-0.2c0.3-1.2,0.5-2,0.6-2.3c0.5-1.4,1.2-2.7,2.3-3.9c-1.8,1.2-3.2,3.3-4.2,6.3
			c-0.7,0-1,0-0.9,0C9.6,15.1,9.3,15.2,9.3,15.3z M9.9,18.5c0,0.4,0.1,0.7,0.4,0.9c0.2,0.2,0.5,0.3,0.9,0.3c0.3,0,0.6-0.1,0.9-0.4
			c0.2-0.2,0.4-0.5,0.4-0.9c0-0.4-0.1-0.6-0.4-0.9c-0.2-0.2-0.5-0.4-0.9-0.4c-0.4,0-0.7,0.1-0.9,0.4C10,17.8,9.9,18.1,9.9,18.5z
			 M6.8,18.5c0,0.1,0.1,0.2,0.2,0.3c0.2,0.1,0.4,0.2,0.7,0.3c0,0.4,0,0.6,0.1,0.9c0.1,0.2,0.1,0.4,0.2,0.4c0,0,0.2-0.2,0.5-0.5
			c0.3-0.3,0.7-0.6,1-0.7c-0.2-0.1-0.4-0.2-0.7-0.4c0,0-0.2-0.1-0.6-0.2c-0.3-0.1-0.4-0.2-0.4-0.2c0-0.1,0.2-0.2,0.6-0.3
			c0.6-0.2,1-0.3,1.1-0.3c-0.4-0.1-0.7-0.3-1-0.5c-0.1-0.1-0.4-0.3-0.6-0.6c-0.1,0-0.1,0.1-0.2,0.3c0,0.1,0,0.4,0,0.8
			C7.1,18.2,6.8,18.4,6.8,18.5z"/>
	</g>
</g>
</svg>
