<?xml version="1.0" encoding="utf-8"?>
<!-- Generator: Adobe Illustrator 22.0.1, SVG Export Plug-In . SVG Version: 6.00 Build 0)  -->
<svg version="1.1" id="Layer_1" xmlns="http://www.w3.org/2000/svg" xmlns:xlink="http://www.w3.org/1999/xlink" x="0px" y="0px"
	 viewBox="0 0 241.9 31.5" style="enable-background:new 0 0 241.9 31.5;" xml:space="preserve">
<style type="text/css">
	.st0{fill:#097B70;}
</style>
<g>
	<path class="st0" d="M116.7,14.8c-0.2-1-0.3-1.6-0.3-1.7l0.3,0.1c0.2-0.5,0.4-0.9,0.5-1.1c0.1-0.2,0.1-0.7,0.2-1.2
		c-0.4-0.2-0.7-0.4-1.1-0.6c-0.3-0.2-0.4-0.4-0.4-0.6c0-0.1,0-0.2,0-0.3l-0.5-0.2c-0.6,1.3-0.9,2.3-0.9,3l0.5,0.4
		c0.3,1.6,0.6,3.1,0.9,4.7c0.2,1,0.3,1.6,0.3,1.9c0,0.3,0.1,0.6,0.1,0.9c0,0,0,0.1,0,0.2s0,0.2,0,0.3c0,0.7-0.4,1.3-1.1,1.8
		c-0.7,0.5-1.7,0.7-2.8,0.7c-0.8,0-1.4-0.2-1.9-0.5c-0.4-0.3-0.7-0.8-0.7-1.4c0-0.6,0.1-1.1,0.3-1.7c0.2-0.6,0.6-1.2,1.1-2l-0.6-0.4
		c-0.8,1.2-1.3,2.2-1.6,3c-0.2,0.7-0.4,1.6-0.4,2.5c0,1,0.3,1.8,1,2.4c0.6,0.6,1.5,0.9,2.7,0.9c1.4,0,2.6-0.4,3.6-1.2
		c1.1-0.8,1.6-1.7,1.6-2.7v-2.2c0-0.2-0.1-0.9-0.3-2C117.1,16.8,116.9,15.9,116.7,14.8z"/>
	<polygon class="st0" points="125.1,12.5 126.5,13.3 127.6,11.3 125.8,10.3 125,11.9 123.5,11.2 122.5,13.1 124.3,14.1 	"/>
	<polygon class="st0" points="125.7,9 123.8,8 122.8,10 124.7,11 	"/>
	<path class="st0" d="M135.4,16.8c-0.5-1-0.9-1.5-1.3-1.5c-0.4,0-0.8,0.2-1.3,0.7c-0.6,0.5-1.1,1.2-1.5,2.1c-0.2,0.5-0.5,0.8-0.9,1
		c-0.4,0.1-0.8,0.2-1.4,0.2h-1.3c0-1.2-0.1-2-0.3-2.6c-0.2-0.6-0.5-1.2-1-1.8l-0.8,2.4c0.4,0.4,0.6,0.7,0.7,0.9
		c0.2,0.3,0.3,0.7,0.4,1.1h-4.5h-0.7h-0.7c-0.3,0-0.5-0.2-0.7-0.6c-0.2-0.5-0.3-1.5-0.3-2.9v-2c0-0.9-0.1-1.7-0.3-2.3
		c-0.2-0.5-0.4-1-0.8-1.6l-1.1,2.5c0.3,0.3,0.5,0.6,0.6,0.7c0.2,0.4,0.3,0.9,0.3,1.5v2.8c0,1.7,0.2,2.8,0.6,3.5c0.3,0.6,0.9,1,1.7,1
		h0.7h0.7h4.8h0.7h1.3c0.5,0,0.8,0,1.1-0.1c0.6-0.2,1-0.6,1.4-1.1c0.6,0.3,1.4,0.6,2.2,0.8c0.9,0.3,1.8,0.4,2.5,0.4v-2.2
		C136.2,18.8,136,17.9,135.4,16.8z M134.1,19.1c-0.1,0-0.4-0.1-0.9-0.3c-0.2-0.1-0.4-0.2-0.8-0.3c0.2-0.6,0.4-0.9,0.7-0.9
		c0.2,0,0.5,0.2,0.8,0.6c0.3,0.4,0.4,0.6,0.4,0.8C134.4,19,134.3,19.1,134.1,19.1z"/>
</g>
</svg>
