<?xml version="1.0" encoding="utf-8"?>
<!-- Generator: Adobe Illustrator 22.0.1, SVG Export Plug-In . SVG Version: 6.00 Build 0)  -->
<svg version="1.1" id="Layer_1" xmlns="http://www.w3.org/2000/svg" xmlns:xlink="http://www.w3.org/1999/xlink" x="0px" y="0px"
	 viewBox="0 0 187.9 31.5" style="enable-background:new 0 0 187.9 31.5;" xml:space="preserve">
<style type="text/css">
	.st0{fill:#542C0B;}
</style>
<g>
	<path class="st0" d="M73.3,9.6h-1.5c-0.7,1-1.3,2.1-1.7,3.2c-0.5,1.3-0.8,2.8-0.8,4.3c0,1.2,0.2,2.5,0.6,3.8s1,2.5,1.8,3.8h1.5
		c-0.5-1-0.8-1.8-1-2.3c-0.3-0.8-0.5-1.7-0.7-2.6s-0.2-1.8-0.2-2.6c0-1.2,0.1-2.4,0.4-3.5S72.6,11.2,73.3,9.6z"/>
	<polygon class="st0" points="91.5,10.5 89.7,9.5 88.7,11.3 90.6,12.2 	"/>
	<polygon class="st0" points="94.2,8.8 92.7,8 91.9,9.6 93.4,10.4 	"/>
	<polygon class="st0" points="93.7,11.6 94.8,12.2 95.7,10.7 94.3,9.9 93.6,11.1 92.4,10.5 91.6,12.1 93.1,12.9 	"/>
	<path class="st0" d="M105.6,12.2c0.1-0.3,0.2-0.5,0.3-0.9s0.2-0.6,0.2-1c-0.4-0.2-0.7-0.3-0.9-0.5c-0.2-0.2-0.3-0.3-0.3-0.5
		c0-0.1,0-0.2,0-0.3l-0.4-0.2c-0.3,0.5-0.5,1-0.6,1.4c-0.1,0.3-0.1,0.6-0.1,0.9l0.5,0.3l0.9,5.3h-2.8c-0.1-0.6-0.3-1.2-0.6-1.9
		c-0.4-0.8-0.7-1.2-1-1.2s-0.6,0.2-1,0.6c-0.5,0.4-0.8,1-1.1,1.6c-0.1,0.4-0.4,0.6-0.7,0.8c-0.3,0.1-0.6,0.2-1.1,0.2h-1
		c0-0.9-0.1-1.6-0.2-2.1s-0.4-0.9-0.8-1.4l-0.6,1.9c0.3,0.3,0.5,0.6,0.5,0.7c0.2,0.2,0.3,0.5,0.3,0.9h-3.6c0-0.9-0.1-1.6-0.2-2.1
		s-0.4-0.9-0.8-1.4l-0.6,1.9c0.3,0.3,0.5,0.6,0.5,0.7c0.2,0.2,0.3,0.5,0.3,0.9h-3.6h-0.5h-0.3c-0.4,0-0.9,0.2-1.4,0.5
		s-0.9,0.6-1.2,1.1c-0.1,0.2-0.3,0.4-0.4,0.7s-0.2,0.6-0.2,0.9c0,0.2,0.1,0.2,0.2,0.3s0.5,0.1,1.1,0.1c0.2,0,0.5,0,0.8,0
		s0.4,0,0.4,0.1c0,0.2-0.2,0.4-0.7,0.6s-1.1,0.5-1.8,0.7c-0.8,0.2-1.5,0.3-2.1,0.3c-0.5,0-1-0.1-1.3-0.4s-0.5-0.7-0.5-1.1
		s0.1-1,0.3-1.5s0.5-1.2,1-2l-0.4-0.3c-0.7,1.2-1.2,2.1-1.5,2.9c-0.2,0.6-0.3,1.3-0.3,2.1c0,0.8,0.2,1.3,0.6,1.7s1.1,0.6,1.9,0.6
		c0.7,0,1.5-0.1,2.3-0.4c0.7-0.2,1.4-0.5,1.9-0.9c0.5-0.3,0.8-0.6,1-0.9s0.3-0.7,0.4-1.1s0.1-0.7,0.1-1c0-0.2-0.1-0.4-0.4-0.5
		s-0.4-0.2-0.4-0.2c0-0.1,0.1-0.1,0.2-0.1s0.3,0,0.5,0h0.1H87h3.8h0.5h3.8h0.5h1c0.4,0,0.7,0,0.9-0.1c0.4-0.1,0.8-0.4,1.1-0.9
		c0.5,0.3,1.1,0.5,1.7,0.7c0.5,0.1,1,0.2,1.4,0.3v0h4.3v-2.1l-0.9-4.8L105.6,12.2z M100.8,16.7c-0.1,0-0.3-0.1-0.7-0.2
		c-0.1-0.1-0.3-0.1-0.6-0.2c0.1-0.5,0.3-0.7,0.5-0.7s0.4,0.2,0.6,0.5s0.3,0.5,0.3,0.6C101,16.7,100.9,16.7,100.8,16.7z"/>
	<path class="st0" d="M108.6,12.3l-0.5-2.8c-0.3,0.6-0.5,1-0.7,1.4s-0.2,0.7-0.2,0.8s0,0.3,0.1,0.6c0.2,0.8,0.3,1.6,0.4,2.2
		s0.1,1.2,0.2,1.8c0.1,0.6,0.1,1.1,0.1,1.4c0,0.4-0.1,1-0.2,1.6l0.5,0.2c0.3-0.6,0.5-1.2,0.6-1.5s0.2-0.8,0.2-1.3s0-1.1-0.1-1.7
		C108.9,14.2,108.8,13.3,108.6,12.3z"/>
	<path class="st0" d="M118,13.2c-0.4-1.3-1-2.4-1.8-3.6h-1.5c0.7,1.6,1.2,2.9,1.5,4s0.4,2.3,0.4,3.5c0,0.6,0,1.2-0.1,1.8
		s-0.2,1.2-0.3,1.8s-0.3,1.2-0.5,1.7s-0.5,1.2-0.9,2.1h1.5c0.9-1.4,1.5-2.7,1.9-4.1c0.3-1.2,0.5-2.4,0.5-3.5
		C118.6,15.7,118.4,14.5,118,13.2z"/>
</g>
</svg>
