<?xml version="1.0" encoding="utf-8"?>
<!-- Generator: Adobe Illustrator 23.0.2, SVG Export Plug-In . SVG Version: 6.00 Build 0)  -->
<svg version="1.1" id="Layer_1" xmlns="http://www.w3.org/2000/svg" xmlns:xlink="http://www.w3.org/1999/xlink" x="0px" y="0px"
	 viewBox="0 0 36.6 28.6" style="enable-background:new 0 0 36.6 28.6;" xml:space="preserve">
<style type="text/css">
	.st0{fill:#FFFFFF;}
</style>
<g>
	<path class="st0" d="M11.3,24.2c-0.4,0-0.8-0.4-0.8-0.8c0-0.4,0.3-0.8,0.8-0.8l0.2,0c4,0,5.5-0.3,6-0.4c2.2-0.6,3.7-1.5,4.8-2.9
		c0.9-1.1,1.5-2.6,1.8-4.8c-0.6,0.1-1.2,0.2-1.7,0.2c-1.4,0-2.7-0.5-3.7-1.4c-1.5-1.4-2.1-3.7-1.5-5.6c0.5-1.7,1.9-2.9,3.7-3.2
		c1.5-0.2,2.7,0.1,3.5,1c2,2,1.6,6.3,1.4,7.6l-0.1,0.4c0,0,0,0.1,0,0.1c-0.4,3.1-1.1,5.2-2.3,6.8c-1.3,1.6-3,2.7-5.6,3.4
		c-1.1,0.3-3.3,0.5-6.4,0.5L11.3,24.2C11.3,24.2,11.3,24.2,11.3,24.2z M21.9,6c-0.2,0-0.4,0-0.6,0.1C20,6.2,19.2,7,18.8,8.1
		c-0.4,1.4,0,3.1,1,4c0.7,0.6,1.6,0.9,2.6,0.9c0.5,0,1.3-0.1,1.9-0.3l0,0c0.3-2.1,0.2-5-1-6.2C23,6.2,22.5,6,21.9,6z"/>
</g>
</svg>
