<?xml version="1.0" encoding="utf-8"?>
<!-- Generator: Adobe Illustrator 22.0.1, SVG Export Plug-In . SVG Version: 6.00 Build 0)  -->
<svg version="1.1" id="Layer_1" xmlns="http://www.w3.org/2000/svg" xmlns:xlink="http://www.w3.org/1999/xlink" x="0px" y="0px"
	 viewBox="0 0 86.2 86.2" style="enable-background:new 0 0 86.2 86.2;" xml:space="preserve">
<style type="text/css">
	.st0{fill:#235958;}
</style>
<g>
	<path class="st0" d="M46,18.1c0,1.9-0.6,3.3-1.8,4l-10.9,6.2c0-1.1,0.2-1.9,0.5-2.4s1-1,2-1.6L46,18.1z"/>
</g>
<g>
	<polygon class="st0" points="57.9,30.7 53.2,27.2 50.2,32.1 55.1,35.7 	"/>
	<path class="st0" d="M64.4,42.5c-0.9,0.1-1.6,0.1-2.1,0.1c-3.9,0-8.3-1-13.2-2.9C46,38.6,43.6,38,42,38c-2.6,0-4.5,1-5.9,3.1
		c-0.9,1.3-1.7,3.5-2.4,6.6h5c0.6-1,1.4-1.5,2.6-1.5c1.7,0,4,0.8,7.1,2.4c-3.5,1.8-5.7,2.9-6.4,3.2c-2,0.8-4,1.2-6,1.2h-2.1h-2H19.4
		v8.3h12.4h2h1.8c0.3,0,1-0.3,2.1-0.9c1.5-0.7,3.6-2.2,6.4-4.4c2.8-2.2,4.9-3.7,6.5-4.5c3.2-1.6,6.7-2.4,10.5-2.4
		c1.9,0,3.3-0.1,4.4-0.2l0.9-6.5C66,42.4,65.3,42.5,64.4,42.5z"/>
</g>
</svg>
