<?xml version="1.0" encoding="utf-8"?>
<!-- Generator: Adobe Illustrator 22.0.1, SVG Export Plug-In . SVG Version: 6.00 Build 0)  -->
<svg version="1.1" id="Layer_1" xmlns="http://www.w3.org/2000/svg" xmlns:xlink="http://www.w3.org/1999/xlink" x="0px" y="0px"
	 viewBox="0 0 407.8 49.5" style="enable-background:new 0 0 407.8 49.5;" xml:space="preserve">
<style type="text/css">
	.st0{fill:#542C0B;}
</style>
<g>
	<g>
		<g>
			<path class="st0" d="M75.9,38H74c-1-1.5-1.8-3.1-2.3-4.7c-0.5-1.6-0.8-3.2-0.8-4.7c0-1.9,0.3-3.7,1-5.3c0.6-1.5,1.3-2.8,2.1-4
				h1.9c-0.9,2-1.5,3.7-1.8,5c-0.3,1.4-0.5,2.9-0.5,4.4c0,1.1,0.1,2.2,0.3,3.3c0.2,1.1,0.5,2.2,0.8,3.2C74.9,35.8,75.3,36.7,75.9,38
				z"/>
			<path class="st0" d="M95.1,30.9h-8.3c-0.9,0-1.5-0.1-2-0.2c-0.4-0.1-0.8-0.3-1.2-0.6c-0.3-0.3-0.6-0.7-0.8-1.1
				c-0.2-0.4-0.3-0.9-0.3-1.5s0.1-1.2,0.3-1.7c0.2-0.5,0.5-1.2,1-1.9l0.5,0.4c-0.3,0.6-0.5,1-0.6,1.3s-0.1,0.6-0.1,0.8
				c0,0.6,0.3,1.1,0.8,1.4s1.3,0.4,2.5,0.4H94c-0.1-0.5-0.3-0.8-0.4-1s-0.4-0.6-0.7-1l0.9-2.2c0.3,0.4,0.4,0.6,0.6,0.8
				c0.1,0.2,0.2,0.5,0.3,0.9c0.1,0.4,0.2,0.7,0.2,1.1s0.1,0.9,0.1,1.5L95.1,30.9L95.1,30.9z M91.6,21.7l-1.1,2l-1.4-0.8l-0.8,1.5
				l-1.8-1l1-1.9l1.4,0.7l0.8-1.6L91.6,21.7z M89.7,19.4l-1,2l-1.8-1l1-2L89.7,19.4z"/>
			<path class="st0" d="M100.5,30.9h-6.1v-2.7h5.1c-0.1-0.4-0.2-0.8-0.4-1.1c-0.1-0.2-0.3-0.5-0.7-0.9l0.8-2.3
				c0.5,0.6,0.8,1.1,1,1.7s0.3,1.5,0.3,2.7C100.5,28.3,100.5,30.9,100.5,30.9z M100.4,32.6l-1.1,2l-1.4-0.8l-0.8,1.5l-1.8-1l1-1.9
				l1.4,0.7l0.8-1.6L100.4,32.6z"/>
			<path class="st0" d="M111,30.9H99.8v-2.7h6.9c-0.8-0.8-1.5-1.4-2.2-1.8c-0.6-0.3-1.2-0.5-1.7-0.5c-0.2,0-0.3,0-0.5,0
				c-0.1,0-0.3,0.1-0.6,0.1c0.4-0.8,0.8-1.4,1.2-1.8s0.9-0.6,1.5-0.6c0.4,0,0.8,0.1,1.2,0.3c0.4,0.2,0.8,0.5,1.3,1
				c0.4,0.4,0.9,0.9,1.7,1.7c0.5,0.5,0.9,0.9,1.1,1.1c0.3,0.2,0.6,0.3,1.2,0.4L111,30.9L111,30.9z"/>
			<path class="st0" d="M124.8,30.9h-1.3c-0.2,0-0.4,0-0.6-0.1c-0.4-0.2-0.7-0.5-1-1c-0.4-0.7-0.6-1.6-0.7-2.8
				c-0.4,0.5-0.8,0.9-1,1.2c-0.4,0.3-0.7,0.5-0.9,0.5c-0.1,0-0.3,0-0.5-0.1l-1.2-0.2c-0.5-0.1-0.8-0.2-0.9-0.2s-0.2-0.1-0.2-0.2
				c0-0.2,0.2-0.7,0.7-1.7c0.5-0.9,0.8-1.5,1-1.7s0.5-0.4,0.9-0.7c0.2-0.2,0.6-0.4,1.1-0.7l0.5-0.3c0-0.1,0-0.2,0-0.3
				c0-0.1,0-0.2,0-0.3c0-0.2,0.1-0.6,0.2-0.9c0.1-0.4,0.3-0.8,0.6-1.4l0.9,6.1c0.1,1,0.3,1.6,0.6,1.9c0.2,0.2,0.4,0.3,0.6,0.3h1.3
				L124.8,30.9L124.8,30.9z M122.6,17.2l-1.1,1.8l-1.4-0.8l-0.8,1.5l-1.8-1l1-1.7l1.4,0.7l0.8-1.5L122.6,17.2z M121,25.4l-0.2-1.2
				c-0.2,0.1-0.4,0.2-0.5,0.2c-0.4,0.2-0.6,0.4-0.9,0.5c-0.2,0.1-0.3,0.3-0.4,0.4s-0.2,0.3-0.2,0.3c0,0.1,0.1,0.2,0.3,0.2
				c0.2,0.1,0.5,0.1,0.7,0.1c0.1,0,0.3,0,0.4-0.1C120.5,25.8,120.8,25.6,121,25.4z"/>
			<path class="st0" d="M130.9,30.9h-6.8v-2.7h5.9c0-0.6,0-1,0-1.2c-0.1-0.4-0.2-0.7-0.3-1c-0.2,0.4-0.5,0.7-0.8,0.9
				s-0.7,0.3-1.1,0.3c-0.5,0-1-0.2-1.3-0.5c-0.4-0.3-0.5-0.8-0.5-1.3c0-0.8,0.2-1.7,0.7-2.7c0.5-1.2,1-1.7,1.6-1.7
				c0.7,0,1.3,0.6,1.9,1.8s0.9,2.5,0.9,3.8v4.3H130.9z M129.5,18l-1.2,2.2L126,19l1.3-2.2L129.5,18z M128.8,24.4
				c-0.2-0.3-0.3-0.5-0.5-0.6c-0.1-0.1-0.3-0.2-0.4-0.2c-0.2,0-0.4,0.1-0.5,0.3s-0.2,0.4-0.2,0.6c0,0.1,0.1,0.3,0.2,0.4
				s0.3,0.2,0.5,0.2c0.1,0,0.3,0,0.5-0.1S128.6,24.6,128.8,24.4z"/>
			<path class="st0" d="M135.6,30.9h-1.4c-0.8,0-1.3-0.3-1.7-0.9c-0.4-0.7-0.6-1.9-0.6-3.5v-2.8c0-0.6-0.1-1.1-0.3-1.5
				c-0.1-0.2-0.3-0.4-0.6-0.7l1.1-2.4c0.4,0.5,0.6,1,0.8,1.5c0.2,0.6,0.3,1.3,0.3,2.3v1.9c0,1.4,0.1,2.3,0.3,2.8
				c0.1,0.4,0.4,0.6,0.7,0.6h1.4V30.9z"/>
			<path class="st0" d="M151.1,30.9h-10.3c-0.5,0-0.8-0.1-1.1-0.3c-0.3-0.2-0.5-0.6-0.7-1.1c-0.4,0.6-0.8,1-1.2,1.2
				c-0.3,0.2-0.8,0.3-1.4,0.3H135v-2.7h1.4c0.8,0,1.3-0.2,1.7-0.6c0.5-0.4,0.7-1.2,0.9-2.3l0.7,0.1c0,0.2,0,0.4,0,0.6
				c0,0.4,0,0.8,0,1c0,0.4,0.1,0.7,0.3,0.9c0.2,0.2,0.5,0.3,0.8,0.3s0.6-0.1,0.9-0.2c0.3-0.1,0.7-0.4,1.3-0.8l3.5-2.5
				c0.4-0.3,0.7-0.5,0.9-0.6c0.5-0.3,0.9-0.4,1.4-0.4c0.7,0,1.3,0.3,1.7,0.8c0.5,0.6,0.8,1.5,0.8,2.7v3.6H151.1z M146.2,20.4
				l-1.2,2.2l-2.3-1.2l1.2-2.2L146.2,20.4z M149.7,27.3c0-0.3-0.2-0.5-0.7-0.7c-0.4-0.2-0.8-0.2-1.3-0.2c-0.4,0-0.9,0.1-1.5,0.4
				c-0.5,0.3-1.3,0.8-2.3,1.5h2.6C148.6,28.3,149.7,27.9,149.7,27.3z"/>
			<path class="st0" d="M160.5,20.5c0,0.5,0,0.9-0.1,1.4c0,0.2-0.1,0.5-0.3,1.1l-0.7-0.3c0,0.8-0.1,1.5-0.3,2.3s-0.5,1.5-0.9,2.3
				c0.4,0.6,0.6,1,0.6,1.1c0.2,0.3,0.2,0.6,0.2,0.8v0.3c0,0.2-0.1,0.8-0.2,2c-0.7,0.4-1.4,0.6-2,0.7s-1.5,0.2-2.6,0.2v-2.9
				c0.7-0.3,1.1-0.6,1.4-0.9c0.3-0.2,0.7-0.6,1.1-1.2c-0.7-0.9-1.3-1.6-1.6-2c-0.3-0.3-0.6-0.7-1.1-1.1c-0.1,0.2-0.2,0.4-0.2,0.4
				l-0.1,0.1c-0.2,0-0.4-0.1-0.9-0.4c-0.4-0.2-0.7-0.5-0.9-0.6c-0.2-0.2-0.4-0.5-0.5-1.1s-0.2-1.2-0.2-2c0-0.4,0-0.6,0.1-0.7
				s0.1-0.2,0.3-0.2c0.3,0,0.8,0.4,1.5,1.1c0.7,0.6,1.3,1.3,1.8,1.9c0.4,0.4,0.8,0.9,1.1,1.3s0.8,1.1,1.4,2.1
				c0.3-0.6,0.5-1.3,0.6-2.1c0.1-0.5,0.1-1.1,0.1-1.9c-0.2-0.1-0.4-0.2-0.5-0.3s-0.1-0.3-0.1-0.4c0-0.4,0-0.8,0.1-1.2
				c0.1-0.4,0.2-0.8,0.4-1.3l0.4,0.1c0,0.4,0.1,0.7,0.3,0.8C159.1,20.1,159.6,20.3,160.5,20.5z M157.6,34.9
				c-0.1,0.2-0.1,0.4-0.2,0.5c-0.1,0.1-0.2,0.1-0.3,0.2l-2.1,0.6c0.1-0.2,0.2-0.4,0.3-0.5s0.3-0.2,0.5-0.3c-0.2-0.1-0.3-0.2-0.4-0.3
				c-0.1-0.1-0.1-0.2-0.1-0.3s0-0.2,0.1-0.3s0.1-0.2,0.2-0.3c0.4-0.6,0.8-0.8,1.3-0.8c0.1,0,0.2,0,0.3,0.1s0.1,0.2,0.1,0.3
				s0,0.2,0,0.3s-0.1,0.2-0.2,0.3c-0.3-0.2-0.5-0.2-0.7-0.2s-0.2,0-0.4,0.1c-0.1,0-0.1,0.1-0.2,0.2c0,0.1,0.2,0.2,0.5,0.4
				s0.5,0.3,0.7,0.3C157,35.1,157.2,35,157.6,34.9z M157.9,29l-0.5-0.7c-0.3,0.3-0.5,0.5-0.7,0.7c-0.2,0.1-0.4,0.3-0.8,0.6
				c0.5-0.1,0.8-0.1,1.1-0.2C157.2,29.4,157.5,29.2,157.9,29z"/>
			<path class="st0" d="M164.4,28.1c0,0.6-0.1,1.1-0.2,1.6s-0.4,1.1-0.8,1.9l-0.6-0.2c0.2-0.8,0.2-1.5,0.2-2c0-0.4,0-1-0.1-1.7
				c-0.1-0.8-0.1-1.5-0.2-2.3s-0.3-1.6-0.5-2.7c-0.1-0.4-0.1-0.6-0.1-0.8c0-0.2,0.1-0.5,0.3-1s0.5-1.1,0.8-1.8l0.6,3.5
				c0.2,1.3,0.4,2.5,0.4,3.4C164.4,26.7,164.4,27.4,164.4,28.1z"/>
			<path class="st0" d="M181.5,30.4c0,0.9-0.1,1.6-0.3,2.2c-0.2,0.5-0.5,1-0.9,1.3s-1,0.6-1.8,0.8s-1.6,0.3-2.4,0.3
				c-1.6,0-2.8-0.3-3.7-0.9s-1.3-1.4-1.3-2.5c0-0.9,0.1-1.7,0.4-2.5c0.3-0.8,0.9-1.9,1.8-3.2l0.6,0.4c-0.6,1.1-1.1,1.9-1.3,2.4
				s-0.3,1-0.3,1.5c0,0.7,0.4,1.2,1.1,1.7c0.7,0.4,1.7,0.7,2.9,0.7s2.2-0.2,3-0.7c0.8-0.4,1.2-1,1.2-1.7c0-0.4-0.1-0.8-0.2-1.2
				c-0.1-0.4-0.4-1-0.9-1.9l0.9-2.6c0.5,0.8,0.7,1.4,0.8,1.7c0.2,0.6,0.3,1.3,0.3,2.2L181.5,30.4L181.5,30.4z M178.3,22.8l-1.2,2.2
				l-2.3-1.2l1.2-2.2L178.3,22.8z"/>
			<path class="st0" d="M191.2,26.3l-1.1,2.8c-1.8,0.5-3.2,1-4.3,1.3c-1,0.3-1.8,0.4-2.5,0.5c-0.5,0.1-1,0.1-1.5,0.1h-0.9v-2.7h1.1
				c0.2,0,0.3,0,0.4,0c0.2,0,0.4,0,0.6-0.1c-0.3-0.5-0.5-0.9-0.7-1.2s-0.2-0.6-0.2-1c0-1,0.4-1.8,1.2-2.5s1.7-1.1,2.8-1.1
				c0.7,0,1.4,0.2,2.1,0.7c0.6,0.4,1,1,1.3,1.6L189,25c-0.5-0.2-0.9-0.3-1.2-0.4s-0.7-0.1-1.1-0.1c-0.8,0-1.5,0.1-2.1,0.2
				c-0.7,0.2-1.1,0.4-1.1,0.7c0,0.4,0.9,1.2,2.7,2.2L191.2,26.3z"/>
			<path class="st0" d="M206.2,30.9h-1.3c-0.2,0-0.4,0-0.6-0.1c-0.4-0.2-0.7-0.5-1-1c-0.4-0.7-0.6-1.6-0.7-2.8
				c-0.4,0.5-0.8,0.9-1,1.2c-0.4,0.3-0.7,0.5-0.9,0.5c-0.1,0-0.3,0-0.5-0.1l-1.2-0.2c-0.5-0.1-0.8-0.2-0.9-0.2
				c-0.1,0-0.2-0.1-0.2-0.2c0-0.2,0.2-0.7,0.7-1.7c0.5-0.9,0.8-1.5,1-1.7s0.5-0.4,0.9-0.7c0.2-0.2,0.6-0.4,1.1-0.7l0.5-0.3
				c0-0.1,0-0.2,0-0.3c0-0.1,0-0.2,0-0.3c0-0.2,0.1-0.6,0.2-0.9c0.1-0.4,0.3-0.8,0.6-1.4l0.9,6.1c0.1,1,0.3,1.6,0.6,1.9
				c0.2,0.2,0.4,0.3,0.6,0.3h1.3v2.6H206.2z M203.9,17.2l-1.1,1.8l-1.4-0.8l-0.8,1.5l-1.8-1l1-1.7l1.4,0.7l0.8-1.5L203.9,17.2z
				 M202.4,25.4l-0.2-1.2c-0.2,0.1-0.4,0.2-0.5,0.2c-0.4,0.2-0.6,0.4-0.9,0.5c-0.2,0.1-0.3,0.3-0.4,0.4c-0.1,0.1-0.2,0.3-0.2,0.3
				c0,0.1,0.1,0.2,0.3,0.2c0.2,0.1,0.5,0.1,0.7,0.1c0.1,0,0.3,0,0.4-0.1C201.9,25.8,202.1,25.6,202.4,25.4z"/>
			<path class="st0" d="M215.8,26.3l-1.1,2.8c-1.8,0.5-3.2,1-4.3,1.3c-1,0.3-1.8,0.4-2.5,0.5c-0.5,0.1-1,0.1-1.5,0.1h-0.9v-2.7h1.1
				c0.2,0,0.3,0,0.4,0c0.2,0,0.4,0,0.6-0.1c-0.3-0.5-0.5-0.9-0.7-1.2s-0.2-0.6-0.2-1c0-1,0.4-1.8,1.2-2.5s1.7-1.1,2.8-1.1
				c0.7,0,1.4,0.2,2.1,0.7c0.6,0.4,1,1,1.3,1.6l-0.4,0.4c-0.5-0.2-0.9-0.3-1.2-0.4s-0.7-0.1-1.1-0.1c-0.8,0-1.5,0.1-2.1,0.2
				c-0.7,0.2-1.1,0.4-1.1,0.7c0,0.4,0.9,1.2,2.7,2.2L215.8,26.3z"/>
			<path class="st0" d="M226,30.2c0,1.1-0.5,2.2-1.4,3.3s-1.9,1.6-2.8,1.6c-0.5,0-1.1-0.2-1.8-0.5c-0.6-0.3-1.6-1-3-2l0.4-0.6
				c0.7,0.5,1.3,0.8,1.7,0.9s0.8,0.2,1.3,0.2c0.6,0,1.3-0.2,1.9-0.5c0.7-0.4,1.5-1.1,2.3-2c-0.3,0-0.5,0.1-0.7,0.1
				c-0.6,0-1.2-0.2-1.5-0.6s-0.6-1-0.6-1.7c0-1,0.2-1.9,0.7-2.8c0.5-1,1-1.5,1.7-1.5c0.5,0,1,0.4,1.3,1.1c0.4,0.7,0.5,1.6,0.5,2.6
				L226,30.2L226,30.2z M224.8,28.3c-0.2-1-0.6-1.6-1.1-1.6c-0.2,0-0.4,0.1-0.5,0.2c-0.1,0.2-0.2,0.3-0.2,0.5s0.1,0.4,0.4,0.6
				c0.3,0.2,0.6,0.2,1,0.2L224.8,28.3L224.8,28.3z"/>
			<path class="st0" d="M236.5,30.9h-11.2v-2.7h1.3c0.2,0,0.6-0.3,1.3-0.8c0.2-0.2,0.6-0.4,1-0.8c0-0.8,0-1.5-0.1-2
				c-0.1-0.6-0.2-1.1-0.3-1.7c0-0.1-0.2-0.8-0.5-2.1l-0.6-0.4c0.1-0.7,0.3-1.2,0.4-1.5c0.1-0.3,0.3-0.8,0.6-1.4l0.4,0.2
				c0,0,0,0.1,0,0.3c0,0.2,0.3,0.5,1,0.8c0.2,0.1,0.5,0.2,1,0.4c-0.1,0.5-0.2,1-0.3,1.4c-0.1,0.2-0.2,0.6-0.4,1l-0.4-0.1
				c0.2,0.9,0.3,1.6,0.4,2s0.1,0.8,0.1,1.2v0.1c0,0.2,0,0.3,0,0.4s0,0.3-0.1,0.5c0.3-0.2,0.7-0.5,1-0.7c0.5-0.4,1-0.7,1.4-0.9
				c0.5-0.3,1-0.4,1.3-0.4c0.8,0,1.4,0.2,1.8,0.6c0.5,0.4,0.8,1.1,0.8,1.9v4.7H236.5z M235.1,27.3c0-0.2-0.2-0.4-0.7-0.6
				s-0.9-0.3-1.3-0.3c-0.4,0-0.9,0.1-1.5,0.4c-0.5,0.3-1.3,0.8-2.3,1.5h2.6C234,28.3,235.1,27.9,235.1,27.3z"/>
			<path class="st0" d="M243,30.9h-7.2v-2.7h1.8c0.3,0,0.6,0,0.8,0c0.7,0.1,1.5,0.2,2.5,0.3c-1-0.2-1.6-0.5-2-0.9s-0.6-0.9-0.6-1.5
				c0-1,0.2-1.9,0.7-2.7s1-1.2,1.6-1.2c0.7,0,1.2,0.6,1.7,1.7s0.7,2.5,0.7,4.1V30.9z M241.7,19.2l-1.1,2l-1.4-0.8l-0.8,1.5l-1.8-1
				l1-1.9l1.4,0.7l0.8-1.6L241.7,19.2z M241.6,26.9c-0.2-0.6-0.5-1-0.8-1.3s-0.6-0.5-0.9-0.5c-0.1,0-0.2,0-0.3,0.1s-0.1,0.2-0.1,0.3
				c0,0.3,0.2,0.6,0.6,0.8S241.1,26.8,241.6,26.9z"/>
			<path class="st0" d="M251.3,30.9c-0.7,0-1.5-0.1-2.4-0.4c-0.8-0.2-1.5-0.5-2.1-0.8c-0.4,0.6-0.8,0.9-1.4,1.1
				c-0.3,0.1-0.6,0.1-1.1,0.1h-1.9v-2.7h1.9c0.6,0,1.1-0.1,1.4-0.2c0.4-0.2,0.7-0.5,0.9-0.9c0.4-0.8,0.8-1.5,1.4-2
				c0.5-0.5,1-0.7,1.3-0.7s0.7,0.5,1.2,1.5c0.5,1.1,0.8,2,0.8,2.9L251.3,30.9L251.3,30.9z M249.4,28c0-0.1-0.1-0.4-0.4-0.7
				c-0.3-0.4-0.6-0.6-0.8-0.6c-0.3,0-0.5,0.3-0.6,0.9c0.3,0.1,0.6,0.2,0.8,0.3c0.5,0.2,0.8,0.3,0.9,0.3
				C249.4,28.1,249.4,28.1,249.4,28z"/>
			<path class="st0" d="M256,30.9h-5.4v-2.7h4.2l-1.2-6.6l-0.6-0.4c0-0.4,0.1-0.8,0.2-1.2c0.1-0.5,0.4-1.1,0.8-1.8l0.4,0.2
				c0,0,0,0.1,0,0.3c0,0.2,0.1,0.4,0.4,0.6c0.2,0.2,0.6,0.4,1.2,0.6c-0.1,0.4-0.1,0.8-0.3,1.2c-0.1,0.4-0.2,0.8-0.4,1.1l-0.4-0.1
				l1.1,6V30.9z"/>
			<path class="st0" d="M259.6,28.1c0,0.6-0.1,1.1-0.2,1.6s-0.4,1.1-0.8,1.9l-0.6-0.2c0.2-0.8,0.2-1.5,0.2-2c0-0.4,0-1-0.1-1.7
				c-0.1-0.8-0.1-1.5-0.2-2.3s-0.3-1.6-0.5-2.7c-0.1-0.4-0.1-0.6-0.1-0.8c0-0.2,0.1-0.5,0.3-1c0.2-0.5,0.5-1.1,0.8-1.8l0.6,3.5
				c0.2,1.3,0.4,2.5,0.4,3.4C259.5,26.7,259.6,27.4,259.6,28.1z"/>
			<path class="st0" d="M281,30.9h-1.3c-1.1,0-2.4,0-3.9,0.1c-0.9,0-2,0.1-3.4,0.1c-1.4,0.1-2.1,0.1-2.2,0.1c-1.4,0-2.4-0.2-3-0.7
				s-0.9-1.2-0.9-2.1c0-0.7,0.1-1.4,0.2-1.9c0.1-0.6,0.5-1.4,1-2.7l0.6,0.3c-0.5,1.1-0.7,1.9-0.7,2.4c0,0.7,0.3,1.2,0.8,1.4
				c0.6,0.3,1.6,0.5,3,0.5c1-0.1,2-0.1,2.9-0.2c0.9,0,1.8-0.1,2.7-0.1c-0.3-0.1-0.5-0.3-0.6-0.4c-0.1-0.2-0.2-0.4-0.2-0.7
				c0-0.9,0.3-1.9,0.8-2.8c0.6-1,1.3-1.5,2-1.5s1.2,0.5,1.5,1.4s0.4,2.2,0.4,4v2.8H281z M280.2,19.4l-1.2,2.2l-2.3-1.2l1.2-2.2
				L280.2,19.4z M279.5,27c-0.2-0.6-0.4-1.1-0.6-1.3c-0.1-0.2-0.3-0.3-0.6-0.3c-0.1,0-0.2,0-0.3,0.1c-0.1,0.1-0.1,0.2-0.1,0.4
				c0,0.2,0.1,0.4,0.4,0.6S279,26.9,279.5,27z"/>
			<path class="st0" d="M290,30.2c0,1.1-0.5,2.2-1.4,3.3s-1.9,1.6-2.8,1.6c-0.5,0-1.1-0.2-1.8-0.5c-0.6-0.3-1.6-1-3-2l0.4-0.6
				c0.7,0.5,1.3,0.8,1.7,0.9c0.4,0.1,0.8,0.2,1.3,0.2c0.6,0,1.3-0.2,1.9-0.5c0.7-0.4,1.5-1.1,2.3-2c-0.3,0-0.5,0.1-0.7,0.1
				c-0.6,0-1.2-0.2-1.5-0.6s-0.6-1-0.6-1.7c0-1,0.2-1.9,0.7-2.8c0.5-1,1-1.5,1.7-1.5c0.5,0,1,0.4,1.3,1.1c0.4,0.7,0.5,1.6,0.5,2.6
				V30.2z M288.9,28.3c-0.2-1-0.6-1.6-1.1-1.6c-0.2,0-0.4,0.1-0.5,0.2c-0.1,0.2-0.2,0.3-0.2,0.5s0.1,0.4,0.4,0.6s0.6,0.2,1,0.2
				L288.9,28.3L288.9,28.3z"/>
			<path class="st0" d="M298.7,31.1c0,0.4-0.2,0.9-0.7,1.6s-1,1.2-1.6,1.7c-0.7,0.5-1.3,0.8-1.7,0.8c-0.6,0-1.2-0.2-1.8-0.5
				c-0.6-0.3-1.5-0.8-2.7-1.7l0.4-0.6c0.6,0.4,1.1,0.7,1.4,0.8s0.7,0.2,1.2,0.2c0.4,0,0.9-0.1,1.3-0.4s1.1-0.7,1.8-1.4
				c1.1-1,1.6-1.7,1.6-2.2c0-0.3-0.1-0.6-0.3-1c-0.2-0.5-0.5-0.9-0.9-1.2l0.5-2.6c0.4,0.5,0.8,1,1,1.6s0.4,1.3,0.4,2v2.9H298.7z"/>
			<path class="st0" d="M309.1,30.9H298v-2.7h1.3c0.2,0,0.6-0.3,1.3-0.8c0.2-0.2,0.6-0.4,1-0.8c0-0.8,0-1.5-0.1-2
				c-0.1-0.6-0.2-1.1-0.3-1.7c0-0.1-0.2-0.8-0.5-2.1l-0.6-0.4c0.1-0.7,0.3-1.2,0.4-1.5s0.3-0.8,0.6-1.4l0.4,0.2c0,0,0,0.1,0,0.3
				c0,0.2,0.3,0.5,1,0.8c0.2,0.1,0.5,0.2,1,0.4c-0.1,0.5-0.2,1-0.3,1.4c-0.1,0.2-0.2,0.6-0.4,1l-0.4-0.1c0.2,0.9,0.3,1.6,0.4,2
				s0.1,0.8,0.1,1.2v0.1c0,0.2,0,0.3,0,0.4s0,0.3-0.1,0.5c0.3-0.2,0.7-0.5,1-0.7c0.5-0.4,1-0.7,1.4-0.9c0.5-0.3,1-0.4,1.3-0.4
				c0.8,0,1.4,0.2,1.8,0.6c0.5,0.4,0.8,1.1,0.8,1.9L309.1,30.9L309.1,30.9z M307.8,27.3c0-0.2-0.2-0.4-0.7-0.6s-0.9-0.3-1.3-0.3
				s-0.9,0.1-1.5,0.4c-0.5,0.3-1.3,0.8-2.3,1.5h2.6C306.7,28.3,307.8,27.9,307.8,27.3z M307.6,20.4l-1.2,2.2l-2.3-1.2l1.2-2.2
				L307.6,20.4z"/>
			<path class="st0" d="M313.8,30.9h-5.4v-2.7h4.2l-1.2-6.6l-0.6-0.4c0-0.4,0.1-0.8,0.2-1.2c0.1-0.5,0.4-1.1,0.8-1.8l0.4,0.2
				c0,0,0,0.1,0,0.3c0,0.2,0.1,0.4,0.4,0.6c0.2,0.2,0.6,0.4,1.2,0.6c-0.1,0.4-0.1,0.8-0.3,1.2c-0.1,0.4-0.2,0.8-0.4,1.1l-0.4-0.1
				l1.1,6L313.8,30.9L313.8,30.9z"/>
			<path class="st0" d="M318.5,30.9h-1.4c-0.8,0-1.3-0.3-1.7-0.9c-0.4-0.7-0.6-1.9-0.6-3.5v-2.8c0-0.6-0.1-1.1-0.3-1.5
				c-0.1-0.2-0.3-0.4-0.6-0.7l1.1-2.4c0.4,0.5,0.6,1,0.8,1.5c0.2,0.6,0.3,1.3,0.3,2.3v1.9c0,1.4,0.1,2.3,0.3,2.8
				c0.1,0.4,0.4,0.6,0.7,0.6h1.4L318.5,30.9L318.5,30.9z"/>
			<path class="st0" d="M325.7,30.9h-7.9v-2.7h6.3c-0.3-0.3-0.5-0.6-0.7-0.8c-0.2-0.2-0.5-0.4-0.8-0.7c-0.4-0.3-0.7-0.6-1.1-0.9
				l-0.3,0.4c-0.6-0.6-0.9-0.9-1-1c-0.3-0.4-0.5-0.8-0.5-1.3c0-0.7,0-1.1,0.1-1.4c0.1-0.4,0.4-0.7,0.8-1s0.8-0.5,1.2-0.7
				c0.3-0.2,0.8-0.4,1.3-0.6c0.3-0.1,0.8-0.3,1.7-0.6v2.3c0,0-0.3,0.1-0.8,0.3c-0.6,0.2-1.1,0.4-1.5,0.5c-0.5,0.2-0.8,0.4-0.8,0.5
				s0.2,0.3,0.7,0.8c0.6,0.6,1.2,1.2,1.6,1.7c0.7,0.8,1.3,1.7,1.7,2.5L325.7,30.9L325.7,30.9z"/>
			<path class="st0" d="M332,38c0.5-1.2,0.9-2,1.1-2.7c0.2-0.6,0.4-1.3,0.6-2.1s0.3-1.6,0.4-2.3c0.1-0.7,0.1-1.5,0.1-2.2
				c0-1.5-0.2-3-0.5-4.4s-0.9-3.1-1.8-5h1.9c1,1.4,1.7,2.9,2.3,4.5c0.5,1.6,0.8,3.2,0.8,4.8c0,1.4-0.2,2.8-0.6,4.4
				c-0.5,1.7-1.3,3.5-2.4,5.2H332V38z"/>
		</g>
	</g>
</g>
</svg>
