<?xml version="1.0" encoding="utf-8"?>
<!-- Generator: Adobe Illustrator 19.2.0, SVG Export Plug-In . SVG Version: 6.00 Build 0)  -->
<svg version="1.1" id="Layer_1" xmlns="http://www.w3.org/2000/svg" xmlns:xlink="http://www.w3.org/1999/xlink" x="0px" y="0px"
	 viewBox="0 0 407.8 49.8" style="enable-background:new 0 0 407.8 49.8;" xml:space="preserve">
<style type="text/css">
	.st0{fill:#BA0017;}
	.st1{fill:none;}
</style>
<g>
	<g>
		<g>
			<g>
				<g>
					<path d="M108.6,33.4v-2h2v2H108.6z"/>
					<path class="st0" d="M119.6,19c0,0.3-0.2,0.6-0.5,0.9c-0.6,0.2-1.5,0.6-2.8,1.1c0-0.3,0.1-0.6,0.4-0.8
						C117.3,19.9,118.2,19.5,119.6,19z"/>
					<path class="st0" d="M122.9,30.6c0,1.5-0.4,2.5-1.3,3.2c-0.9,0.7-2.4,1.1-4.4,1.1c-1.3,0-2.3-0.2-3-0.7
						c-0.8-0.5-1.1-1.3-1.1-2.3c0-0.6,0.1-1.1,0.2-1.7c0.1-0.6,0.3-1.1,0.6-1.7c0.1-0.4,0.4-0.9,0.7-1.6l0.4,0.2
						c-0.5,0.9-0.8,1.7-0.9,2.2c-0.1,0.5-0.2,1-0.2,1.5c0,0.8,0.3,1.4,0.9,1.8s1.4,0.6,2.5,0.6c1.2,0,2.3-0.2,3.3-0.7
						c1.2-0.5,1.8-1.3,1.8-2.3c0-0.7-0.1-1.3-0.3-1.9c-0.2-0.5-0.4-0.9-0.7-1.3l0.8-2c0.3,0.5,0.6,1.1,0.7,1.6s0.2,1.3,0.2,2.2V30.6
						z M119.3,23.1l-0.7,1.4l-1.5-0.8l0.7-1.4L119.3,23.1z"/>
					<path class="st0" d="M127.7,19.5c0,0.4-0.1,0.8-0.4,1.1c-0.3,0.3-0.7,0.5-1.1,0.5c-0.4,0-0.6-0.1-0.8-0.3s-0.3-0.5-0.3-0.8
						c0-0.5,0.1-0.9,0.4-1.3c0.3-0.4,0.6-0.6,1-0.6c0.4,0,0.6,0.1,0.9,0.4S127.7,19.2,127.7,19.5z M127.1,19.8
						c0-0.2-0.1-0.4-0.4-0.6c-0.3-0.2-0.5-0.3-0.6-0.3c-0.2,0-0.3,0.1-0.4,0.2s-0.2,0.3-0.2,0.5c0,0.2,0.1,0.4,0.3,0.5
						c0.2,0.1,0.4,0.1,0.7,0.1c0.2,0,0.3,0,0.4-0.1C127.1,20,127.1,19.9,127.1,19.8z"/>
					<path class="st0" d="M127.8,30.6h-5.6v-1.7h4.9c0-0.8-0.1-1.4-0.3-1.8c-0.1-0.3-0.4-0.7-0.9-1.2l0.8-1.6
						c0.5,0.6,0.8,1.1,0.9,1.4c0.2,0.5,0.3,1.3,0.3,2.5V30.6z M125.5,33.4l-0.7,1.4l-1.6-0.8l0.7-1.4L125.5,33.4z M127.7,32.5
						l-0.8,1.4l-1.6-0.8l0.7-1.4L127.7,32.5z"/>
					<path class="st0" d="M132.8,19c0,0.3-0.2,0.6-0.5,0.9c-0.6,0.2-1.5,0.6-2.8,1.1c0-0.3,0.1-0.6,0.4-0.8
						C130.5,19.9,131.5,19.5,132.8,19z"/>
					<path class="st0" d="M132.7,30.6h-5.6v-1.7h4.9c0-0.8-0.1-1.4-0.3-1.8c-0.1-0.3-0.4-0.7-0.9-1.2l0.8-1.6
						c0.5,0.6,0.8,1.1,0.9,1.4c0.2,0.5,0.3,1.3,0.3,2.5V30.6z M131.7,32.9l-0.8,1.4l-1.6-0.8l0.7-1.4L131.7,32.9z"/>
					<path class="st0" d="M145.5,19c0,0.3-0.2,0.6-0.5,0.9c-0.6,0.2-1.5,0.6-2.8,1.1c0-0.3,0.1-0.6,0.4-0.8
						C143.1,19.9,144.1,19.5,145.5,19z"/>
					<path class="st0" d="M148.7,30.6c0,1.5-0.4,2.5-1.3,3.2c-0.9,0.7-2.4,1.1-4.4,1.1c-1.3,0-2.3-0.2-3-0.7
						c-0.8-0.5-1.1-1.3-1.1-2.3c0-0.6,0.1-1.1,0.2-1.7c0.1-0.6,0.3-1.1,0.6-1.7c0.1-0.4,0.4-0.9,0.7-1.6l0.4,0.2
						c-0.5,0.9-0.8,1.7-0.9,2.2c-0.1,0.5-0.2,1-0.2,1.5c0,0.8,0.3,1.4,0.9,1.8s1.4,0.6,2.5,0.6c1.2,0,2.3-0.2,3.3-0.7
						c1.2-0.5,1.8-1.3,1.8-2.3c0-0.7-0.1-1.3-0.3-1.9c-0.2-0.5-0.4-0.9-0.7-1.3l0.8-2c0.3,0.5,0.6,1.1,0.7,1.6
						c0.1,0.5,0.2,1.3,0.2,2.2V30.6z M145.1,23.1l-0.7,1.4l-1.5-0.8l0.7-1.4L145.1,23.1z"/>
					<path class="st0" d="M153.5,19.5c0,0.4-0.1,0.8-0.4,1.1c-0.3,0.3-0.7,0.5-1.1,0.5c-0.4,0-0.6-0.1-0.8-0.3s-0.3-0.5-0.3-0.8
						c0-0.5,0.1-0.9,0.4-1.3c0.3-0.4,0.6-0.6,1-0.6c0.4,0,0.6,0.1,0.9,0.4S153.5,19.2,153.5,19.5z M153,19.8c0-0.2-0.1-0.4-0.4-0.6
						c-0.3-0.2-0.5-0.3-0.6-0.3c-0.2,0-0.3,0.1-0.4,0.2s-0.2,0.3-0.2,0.5c0,0.2,0.1,0.4,0.3,0.5c0.2,0.1,0.4,0.1,0.7,0.1
						c0.2,0,0.3,0,0.4-0.1C152.9,20,153,19.9,153,19.8z"/>
					<path class="st0" d="M153.6,30.6h-5.6v-1.7h4.9c0-0.8-0.1-1.4-0.3-1.8c-0.1-0.3-0.4-0.7-0.9-1.2l0.8-1.6
						c0.5,0.6,0.8,1.1,0.9,1.4c0.2,0.5,0.3,1.3,0.3,2.5V30.6z M151.3,33.4l-0.7,1.4L149,34l0.7-1.4L151.3,33.4z M153.6,32.5
						l-0.8,1.4l-1.6-0.8l0.7-1.4L153.6,32.5z"/>
					<path class="st0" d="M158.7,19c0,0.3-0.2,0.6-0.5,0.9c-0.6,0.2-1.5,0.6-2.8,1.1c0-0.3,0.1-0.6,0.4-0.8
						C156.3,19.9,157.3,19.5,158.7,19z"/>
					<path class="st0" d="M158.5,30.6h-5.6v-1.7h4.9c0-0.8-0.1-1.4-0.3-1.8c-0.1-0.3-0.4-0.7-0.9-1.2l0.8-1.6
						c0.5,0.6,0.8,1.1,0.9,1.4c0.2,0.5,0.3,1.3,0.3,2.5V30.6z M157.5,32.9l-0.8,1.4l-1.6-0.8l0.7-1.4L157.5,32.9z"/>
					<path d="M169.7,36.6c0,0.3-0.2,0.6-0.5,0.9c-0.6,0.2-1.5,0.6-2.8,1.1c0-0.3,0.1-0.5,0.4-0.8C167.3,37.6,168.3,37.2,169.7,36.6z
						"/>
					<path d="M174.6,30.6c0,1.5-0.4,2.5-1.3,3.2c-0.9,0.7-2.4,1.1-4.4,1.1c-1.3,0-2.3-0.2-3-0.7c-0.8-0.5-1.1-1.3-1.1-2.3
						c0-0.6,0.1-1.1,0.2-1.7c0.1-0.6,0.3-1.1,0.6-1.7c0.1-0.4,0.4-0.9,0.7-1.6l0.4,0.2c-0.5,0.9-0.8,1.7-0.9,2.2
						c-0.1,0.5-0.2,1-0.2,1.5c0,0.8,0.3,1.4,0.9,1.8s1.4,0.6,2.5,0.6c1.2,0,2.3-0.2,3.3-0.7c1.2-0.5,1.8-1.3,1.8-2.3
						c0-0.7-0.1-1.3-0.3-1.9c-0.2-0.5-0.4-0.9-0.7-1.3l0.8-2c0.3,0.5,0.6,1.1,0.7,1.6s0.2,1.3,0.2,2.2V30.6z M170.9,23.1l-0.7,1.4
						l-1.5-0.8l0.7-1.4L170.9,23.1z"/>
					<path d="M179.2,30.6h-1.4c-0.4,0-0.8-0.2-1.1-0.5c-0.2-0.3-0.4-0.8-0.5-1.4c-0.1-0.6-0.2-1.4-0.3-2.3c0-0.7-0.1-1.5-0.1-2.3
						c0-0.8-0.1-1.4-0.2-1.8s-0.2-0.7-0.3-1c-0.1-0.3-0.3-0.6-0.6-0.8l1.2-1.9c0.3,0.8,0.4,1.7,0.5,2.8c0.1,0.7,0.1,2.3,0.2,4.8
						c0.1,1.2,0.3,1.9,0.5,2.2c0.2,0.3,0.4,0.4,0.6,0.4h1.4V30.6z"/>
					<path d="M185.7,19c0,0.3-0.2,0.6-0.5,0.9c-0.6,0.2-1.5,0.6-2.8,1.1c0-0.3,0.1-0.6,0.4-0.8C183.3,19.9,184.3,19.5,185.7,19z"/>
					<path d="M189.8,30.6h-11.3v-1.7h8c-0.7-0.5-1.2-0.9-1.7-1.2c-0.6-0.4-1.1-0.6-1.6-0.8c-0.5-0.2-1.1-0.3-1.6-0.3
						c-0.3,0-0.7,0-1,0.1c0.2-0.5,0.4-0.9,0.7-1.2c0.4-0.4,1-0.6,1.7-0.6c0.7,0,1.4,0.3,2.4,1c0.4,0.3,1.2,0.9,2.2,1.9
						c0.8,0.7,1.3,1.1,1.6,1.2h0.6V30.6z"/>
					<path d="M193.9,32.3c0,0.3-0.2,0.6-0.5,0.9c-0.6,0.2-1.5,0.6-2.8,1.1c0-0.3,0.1-0.5,0.4-0.8C191.6,33.3,192.5,32.9,193.9,32.3z
						"/>
					<path d="M194.6,30.6h-5.6v-1.7h4.9c0-0.8-0.1-1.4-0.3-1.8c-0.1-0.3-0.4-0.7-0.9-1.2l0.8-1.6c0.5,0.6,0.8,1.1,0.9,1.4
						c0.2,0.5,0.3,1.3,0.3,2.5V30.6z M192.4,21.8l-0.7,1.4l-1.6-0.8l0.7-1.4L192.4,21.8z M194.6,20.9l-0.8,1.4l-1.6-0.8l0.7-1.4
						L194.6,20.9z"/>
					<path d="M202.5,30.6h-1c-0.4,0-0.9-0.1-1.5-0.3c-0.6-0.2-1.2-0.5-1.7-0.9c-0.4,0.5-0.8,0.8-1.2,1c-0.4,0.2-1,0.3-1.7,0.3H194
						v-1.7h1.5c0.6,0,1.1-0.1,1.6-0.4c0.4-0.2,0.7-0.6,1-1c0.4-0.6,0.9-1.1,1.5-1.5c0.5-0.4,1-0.6,1.4-0.7c0.4,0.7,0.8,1.3,1.1,1.8
						c0.4,0.7,0.5,1.3,0.5,1.8V30.6z M201.4,28.6c-0.1-0.4-0.2-0.7-0.4-1.1c-0.1-0.3-0.3-0.6-0.6-0.9c-0.3,0.1-0.6,0.2-0.8,0.4
						c-0.1,0.1-0.3,0.4-0.5,0.7c0.2,0.3,0.6,0.5,1,0.7c0.4,0.2,0.8,0.3,1.2,0.4L201.4,28.6z"/>
					<path d="M205.6,17.4c0,0.2-0.1,0.3-0.3,0.4c-0.1,0.1-0.3,0.2-0.6,0.3l-1.8,0.6c0-0.3,0.3-0.6,1-0.8c-0.2-0.1-0.4-0.2-0.5-0.3
						c-0.1-0.1-0.2-0.3-0.2-0.4c0-0.2,0.2-0.5,0.5-0.8c0.4-0.4,0.7-0.6,1-0.6c0.1,0,0.2,0,0.3,0.1s0.1,0.2,0.1,0.3
						c0,0.1,0,0.2-0.1,0.3c0,0.1-0.1,0.2-0.2,0.3c-0.2-0.2-0.4-0.3-0.7-0.3c-0.1,0-0.3,0-0.4,0.1s-0.2,0.1-0.2,0.2
						c0,0.1,0.2,0.2,0.5,0.4c0.3,0.2,0.6,0.3,0.8,0.3c0.1,0,0.2,0,0.3,0S205.4,17.5,205.6,17.4z M212.7,20.2l-0.5,1.8l-0.6-0.3
						l0,0.9c0,0.9-0.1,1.7-0.3,2.5c-0.2,0.9-0.6,1.8-1.1,2.7c0.2,0.5,0.4,0.8,0.5,1.1c0.1,0.4,0.2,0.8,0.2,1.3c0,0.2,0,0.4,0,0.6
						c0,0.2,0,0.4-0.1,0.6c-0.7,0.2-1.4,0.3-2.2,0.4s-1.5,0.1-2.3,0.1c0-0.1,0-0.2,0-0.3c0-0.5,0.1-1,0.2-1.4c1.1-0.6,2-1.4,2.8-2.3
						c-0.5-0.9-0.8-1.5-1-1.8c-0.2-0.4-0.6-1-1.2-1.8c-0.2-0.3-0.4-0.5-0.5-0.7c-0.2-0.2-0.4-0.3-0.5-0.3c-0.1,0-0.2,0-0.4,0.1
						c-0.1,0.1-0.2,0.1-0.3,0.1c-0.1,0-0.4-0.1-0.7-0.4c-0.3-0.3-0.5-0.6-0.8-0.9c-0.2-0.3-0.4-0.5-0.5-0.7
						c-0.1-0.2-0.1-0.4-0.1-0.7c0-0.4,0-0.7,0.1-0.9c0.1-0.3,0.2-0.5,0.4-0.5c0.3,0,0.7,0.3,1.2,0.8c0.4,0.5,1,1.1,1.5,1.8
						c0.5,0.7,1,1.4,1.4,2.1l1,1.6c0.3,0.5,0.6,1,0.9,1.6c0.4-0.9,0.7-1.8,0.9-2.7c0.1-0.8,0.2-1.8,0.2-3l-0.6-0.3
						c0-0.4,0-0.8,0.1-1.2c0.1-0.3,0.2-0.7,0.3-1L211,19c0,0.3,0.2,0.5,0.5,0.7c0.2,0.1,0.4,0.2,0.6,0.3S212.5,20.2,212.7,20.2z
						 M210.1,29.7c0-0.1,0-0.3-0.1-0.4c-0.1-0.2-0.2-0.4-0.4-0.8c-0.2,0.3-0.5,0.5-0.9,0.9s-0.8,0.6-1.1,0.8c0.8,0,1.3,0,1.6-0.1
						C209.8,30.1,210.1,30,210.1,29.7z"/>
					<path d="M216.7,28.1c0,0.5-0.1,1-0.3,1.5c-0.1,0.3-0.3,0.7-0.6,1.2l-0.2-0.1c0-0.2,0-0.4,0.1-0.7c0-0.2,0-0.4,0-0.5
						c0-0.7-0.1-1.6-0.2-2.8c-0.1-1.2-0.2-2.5-0.4-3.8c-0.1-0.8-0.2-1.6-0.3-2.5c0.1-0.3,0.3-0.6,0.4-0.9s0.3-0.6,0.5-0.9
						c0.1,0.7,0.2,1.8,0.4,3s0.3,2.5,0.4,3.5C216.6,26.4,216.7,27.4,216.7,28.1z"/>
					<path d="M230.6,30.6h-1.4c-0.5,0-0.9-0.4-1.2-1.2c-0.3-0.6-0.5-1.4-0.6-2.3c-0.2,0.4-0.4,0.6-0.7,0.8c-0.3,0.2-0.6,0.3-0.9,0.3
						c-0.7,0-1.4-0.1-1.9-0.2c-0.5-0.1-0.7-0.2-0.7-0.4c0-0.6,0.4-1.2,1.1-1.9c0.7-0.7,1.6-1.3,2.7-1.8c0-0.1,0-0.2-0.1-0.4
						c0-0.2-0.1-0.4-0.1-0.4c0-0.2,0.1-0.5,0.2-0.7c0.1-0.2,0.3-0.4,0.5-0.7c0.1,0.4,0.1,0.8,0.2,1.2c0.1,0.4,0.1,0.8,0.2,1.2
						l0.3,1.7c0.2,0.9,0.3,1.6,0.4,2.1c0.2,0.7,0.4,1,0.6,1h1.4V30.6z M225.9,19.8l-0.7,1.4l-1.6-0.8l0.7-1.4L225.9,19.8z
						 M227.2,26.2l-0.2-1.1c-0.6,0.2-1,0.4-1.3,0.6c-0.3,0.2-0.6,0.5-0.8,0.9c0.1,0.1,0.3,0.1,0.5,0.1c0.2,0,0.4,0,0.8,0
						C226.5,26.8,226.8,26.6,227.2,26.2z M228.1,18.9l-0.8,1.4l-1.6-0.8l0.7-1.4L228.1,18.9z"/>
					<path d="M241.2,30.6h-11.3v-1.7h8c-0.7-0.5-1.2-0.9-1.7-1.2c-0.6-0.4-1.1-0.6-1.6-0.8c-0.5-0.2-1.1-0.3-1.6-0.3
						c-0.3,0-0.7,0-1,0.1c0.2-0.5,0.4-0.9,0.7-1.2c0.4-0.4,1-0.6,1.7-0.6c0.7,0,1.4,0.3,2.4,1c0.4,0.3,1.2,0.9,2.2,1.9
						c0.8,0.7,1.3,1.1,1.6,1.2h0.6V30.6z M236.2,32.7l-0.7,1.4l-1.6-0.8l0.8-1.4L236.2,32.7z"/>
					<path d="M246.1,30.6h-5.6v-1.7h4.9c0-0.8-0.1-1.4-0.3-1.8c-0.1-0.3-0.4-0.7-0.9-1.2l0.8-1.6c0.5,0.6,0.8,1.1,0.9,1.4
						c0.2,0.5,0.3,1.3,0.3,2.5V30.6z M243.8,33.4l-0.7,1.4l-1.6-0.8l0.7-1.4L243.8,33.4z M246,32.5l-0.8,1.4l-1.6-0.8l0.7-1.4
						L246,32.5z"/>
					<path d="M250.3,32.3c0,0.3-0.2,0.6-0.5,0.9c-0.6,0.2-1.5,0.6-2.8,1.1c0-0.3,0.1-0.5,0.4-0.8C247.9,33.3,248.9,32.9,250.3,32.3z
						"/>
					<path d="M251,30.6h-5.6v-1.7h4.9c0-0.8-0.1-1.4-0.3-1.8c-0.1-0.3-0.4-0.7-0.9-1.2l0.8-1.6c0.5,0.6,0.8,1.1,0.9,1.4
						c0.2,0.5,0.3,1.3,0.3,2.5V30.6z M248.7,21.8l-0.7,1.4l-1.6-0.8l0.7-1.4L248.7,21.8z M250.9,20.9l-0.8,1.4l-1.6-0.8l0.7-1.4
						L250.9,20.9z"/>
					<path d="M256,16c0,0.3-0.2,0.6-0.5,0.9c-0.6,0.2-1.5,0.6-2.8,1.1c0-0.3,0.1-0.6,0.4-0.8C253.7,17,254.6,16.6,256,16z"/>
					<path d="M255.8,30.6h-5.6v-1.7h4.9c0-0.8-0.1-1.4-0.3-1.8c-0.1-0.3-0.4-0.7-0.9-1.2l0.8-1.6c0.5,0.6,0.8,1.1,0.9,1.4
						c0.2,0.5,0.3,1.3,0.3,2.5V30.6z M255.1,21.5l-0.7,1.4l-1.6-0.8l0.7-1.4L255.1,21.5z"/>
					<path d="M268.2,17.6c0,0.4-0.1,0.8-0.4,1.1c-0.3,0.3-0.7,0.5-1.1,0.5c-0.4,0-0.6-0.1-0.8-0.3s-0.3-0.5-0.3-0.8
						c0-0.5,0.1-0.9,0.4-1.3c0.3-0.4,0.6-0.6,1-0.6c0.4,0,0.6,0.1,0.9,0.4S268.2,17.2,268.2,17.6z M267.6,17.9
						c0-0.2-0.1-0.4-0.4-0.6c-0.3-0.2-0.5-0.3-0.6-0.3c-0.2,0-0.3,0.1-0.4,0.2s-0.2,0.3-0.2,0.5c0,0.2,0.1,0.4,0.3,0.5
						c0.2,0.1,0.4,0.1,0.7,0.1c0.2,0,0.3,0,0.4-0.1C267.5,18.1,267.6,18,267.6,17.9z"/>
					<path d="M275.7,30.6h-9.3c-1.3,0-2.2-0.2-3-0.7c-0.9-0.5-1.4-1.4-1.4-2.6c0-0.6,0.1-1.2,0.4-1.9c0.1-0.2,0.3-0.7,0.7-1.3
						l0.3,0.2c-0.1,0.3-0.3,0.6-0.4,0.9c-0.2,0.5-0.3,0.9-0.3,1.2c0,0.8,0.4,1.4,1.2,1.8c0.7,0.4,1.6,0.6,2.7,0.6h8.3v-0.3
						c0-0.7-0.1-1.3-0.3-1.8s-0.5-0.9-0.9-1.2l0.8-1.6c0.3,0.4,0.5,0.6,0.5,0.7c0.4,0.7,0.7,1.8,0.7,3.2V30.6z M268.8,22.6l-0.7,1.4
						l-1.6-0.8l0.7-1.4L268.8,22.6z M271.1,21.7l-0.8,1.4l-1.6-0.8l0.7-1.4L271.1,21.7z"/>
					<path d="M282.9,28.2l-0.5,1.6c-1,0.2-1.8,0.5-2.4,0.8c-0.7,0.4-1.4,0.8-2,1.4l-0.3-0.2c0.1-0.3,0.2-0.6,0.3-0.8
						c0.1-0.2,0.3-0.4,0.4-0.6l-1.1-0.6c-0.3-0.2-0.5-0.5-0.5-0.7c0-0.2,0.1-0.6,0.4-1.1c0.3-0.7,0.7-1.2,1.1-1.6
						c0.5-0.6,1-0.8,1.6-0.8c0.5,0,0.9,0.1,1.2,0.4c0.1,0.1,0.2,0.2,0.5,0.5l-0.5,1.3c-0.2-0.2-0.4-0.3-0.4-0.3
						c-0.4-0.3-0.7-0.4-1-0.4c-0.3,0-0.6,0.1-1,0.3s-0.5,0.4-0.5,0.6c0,0.3,0.2,0.5,0.6,0.8c0.3,0.2,0.8,0.4,1.4,0.6
						C281.1,28.8,282,28.4,282.9,28.2z"/>
					<path d="M288.5,30.6h-1.4c-0.4,0-0.8-0.2-1.1-0.5c-0.2-0.3-0.4-0.8-0.5-1.4c-0.1-0.6-0.2-1.4-0.3-2.3c0-0.7-0.1-1.5-0.1-2.3
						c0-0.8-0.1-1.4-0.2-1.8s-0.2-0.7-0.3-1c-0.1-0.3-0.3-0.6-0.6-0.8l1.2-1.9c0.3,0.8,0.4,1.7,0.5,2.8c0.1,0.7,0.1,2.3,0.2,4.8
						c0.1,1.2,0.3,1.9,0.5,2.2c0.2,0.3,0.4,0.4,0.6,0.4h1.4V30.6z"/>
					<path d="M295,19c0,0.3-0.2,0.6-0.5,0.9c-0.6,0.2-1.5,0.6-2.8,1.1c0-0.3,0.1-0.6,0.4-0.8C292.7,19.9,293.6,19.5,295,19z"/>
					<path d="M299.1,30.6h-11.3v-1.7h8c-0.7-0.5-1.2-0.9-1.7-1.2c-0.6-0.4-1.1-0.6-1.6-0.8c-0.5-0.2-1.1-0.3-1.6-0.3
						c-0.3,0-0.7,0-1,0.1c0.2-0.5,0.4-0.9,0.7-1.2c0.4-0.4,1-0.6,1.7-0.6c0.7,0,1.4,0.3,2.4,1c0.4,0.3,1.2,0.9,2.2,1.9
						c0.8,0.7,1.3,1.1,1.6,1.2h0.6V30.6z M294.1,32.7l-0.7,1.4l-1.6-0.8l0.8-1.4L294.1,32.7z"/>
				</g>
			</g>
		</g>
	</g>
	<rect class="st1" width="407.8" height="49.8"/>
</g>
</svg>
