<?xml version="1.0" encoding="utf-8"?>
<!-- Generator: Adobe Illustrator 22.0.1, SVG Export Plug-In . SVG Version: 6.00 Build 0)  -->
<svg version="1.1" id="Layer_1" xmlns="http://www.w3.org/2000/svg" xmlns:xlink="http://www.w3.org/1999/xlink" x="0px" y="0px"
	 viewBox="0 0 407.8 49.5" style="enable-background:new 0 0 407.8 49.5;" xml:space="preserve">
<style type="text/css">
	.st0{fill:#542C0B;}
	.st1{fill:none;}
</style>
<g>
	<g>
		<g>
			<path class="st0" d="M82,38.4h-1.9c-1-1.5-1.8-3.1-2.3-4.7S77,30.5,77,29c0-1.9,0.3-3.7,1-5.3c0.6-1.5,1.3-2.8,2.1-4H82
				c-0.9,2-1.5,3.7-1.8,5s-0.5,2.9-0.5,4.4c0,1.1,0.1,2.2,0.3,3.3c0.2,1.1,0.5,2.2,0.8,3.2C81.1,36.2,81.5,37.2,82,38.4z"/>
			<path class="st0" d="M98.7,31.3H87.6v-2.7h1.3c0.2,0,0.6-0.3,1.3-0.8c0.2-0.2,0.6-0.4,1-0.8c0-0.8,0-1.5-0.1-2s-0.2-1.1-0.3-1.7
				c0-0.1-0.2-0.8-0.5-2.1l-0.6-0.4c0.1-0.7,0.3-1.2,0.4-1.5s0.3-0.8,0.6-1.4l0.4,0.2c0,0,0,0.1,0,0.3c0,0.2,0.3,0.5,1,0.8
				c0.2,0.1,0.5,0.2,1,0.4c-0.1,0.5-0.2,1-0.3,1.4c-0.1,0.2-0.2,0.6-0.4,1L92,21.9c0.2,0.9,0.3,1.6,0.4,2s0.1,0.8,0.1,1.2v0.1
				c0,0.2,0,0.3,0,0.4s0,0.3-0.1,0.5c0.3-0.2,0.7-0.5,1-0.7c0.5-0.4,1-0.7,1.4-0.9c0.5-0.3,1-0.4,1.3-0.4c0.8,0,1.4,0.2,1.8,0.6
				c0.5,0.4,0.8,1.1,0.8,1.9L98.7,31.3L98.7,31.3z M97.4,27.7c0-0.2-0.2-0.4-0.7-0.6s-0.9-0.3-1.3-0.3s-0.9,0.1-1.5,0.4
				s-1.3,0.8-2.3,1.5h2.6C96.3,28.7,97.4,28.4,97.4,27.7z"/>
			<path class="st0" d="M104.8,31.3H98v-2.7h5.9c0-0.6,0-1,0-1.2c-0.1-0.4-0.2-0.7-0.3-1c-0.2,0.4-0.5,0.7-0.8,0.9s-0.7,0.3-1.1,0.3
				c-0.5,0-1-0.2-1.3-0.5s-0.5-0.8-0.5-1.3c0-0.8,0.2-1.7,0.7-2.7c0.5-1.2,1-1.7,1.6-1.7c0.7,0,1.3,0.6,1.9,1.8s0.9,2.5,0.9,3.8v4.3
				H104.8z M103.9,18.3l-1.1,2l-1.4-0.8l-0.8,1.5l-1.8-1l1-1.9l1.4,0.7l0.8-1.6L103.9,18.3z M102.7,24.8c-0.2-0.3-0.3-0.5-0.5-0.6
				s-0.3-0.2-0.4-0.2c-0.2,0-0.4,0.1-0.5,0.3s-0.2,0.4-0.2,0.6s0.1,0.3,0.2,0.4s0.3,0.2,0.5,0.2c0.1,0,0.3,0,0.5-0.1
				S102.5,25,102.7,24.8z"/>
			<path class="st0" d="M118.7,31.3h-1.3c-0.2,0-0.4,0-0.6-0.1c-0.4-0.2-0.7-0.5-1-1c-0.4-0.7-0.6-1.6-0.7-2.8
				c-0.4,0.5-0.8,0.9-1,1.2c-0.4,0.3-0.7,0.5-0.9,0.5c-0.1,0-0.3,0-0.5-0.1l-1.2-0.2c-0.5-0.1-0.8-0.2-0.9-0.2s-0.2-0.1-0.2-0.2
				c0-0.2,0.2-0.7,0.7-1.7s0.8-1.5,1-1.7s0.5-0.4,0.9-0.7c0.2-0.2,0.6-0.4,1.1-0.7l0.5-0.3c0-0.1,0-0.2,0-0.3s0-0.2,0-0.3
				c0-0.2,0.1-0.6,0.2-0.9s0.3-0.8,0.6-1.4l0.9,6.1c0.1,1,0.3,1.6,0.6,1.9c0.2,0.2,0.4,0.3,0.6,0.3h1.3L118.7,31.3L118.7,31.3z
				 M116.4,17.7l-1.1,1.8l-1.4-0.8l-0.8,1.5l-1.8-1l1-1.7l1.4,0.7l0.8-1.5L116.4,17.7z M114.9,25.8l-0.2-1.2
				c-0.2,0.1-0.4,0.2-0.5,0.2c-0.4,0.2-0.6,0.4-0.9,0.5c-0.2,0.1-0.3,0.3-0.4,0.4s-0.2,0.3-0.2,0.3c0,0.1,0.1,0.2,0.3,0.2
				s0.5,0.1,0.7,0.1c0.1,0,0.3,0,0.4-0.1S114.6,26,114.9,25.8z"/>
			<path class="st0" d="M124.8,31.3H118v-2.7h5.9c0-0.6,0-1,0-1.2c-0.1-0.4-0.2-0.7-0.3-1c-0.2,0.4-0.5,0.7-0.8,0.9
				s-0.7,0.3-1.1,0.3c-0.5,0-1-0.2-1.3-0.5s-0.5-0.8-0.5-1.3c0-0.8,0.2-1.7,0.7-2.7c0.5-1.2,1-1.7,1.6-1.7c0.7,0,1.3,0.6,1.9,1.8
				s0.9,2.5,0.9,3.8v4.3H124.8z M123.4,18.4l-1.2,2.2l-2.3-1.2l1.3-2.2L123.4,18.4z M122.7,24.8c-0.2-0.3-0.3-0.5-0.5-0.6
				s-0.3-0.2-0.4-0.2c-0.2,0-0.4,0.1-0.5,0.3s-0.2,0.4-0.2,0.6s0.1,0.3,0.2,0.4s0.3,0.2,0.5,0.2c0.1,0,0.3,0,0.5-0.1
				S122.4,25,122.7,24.8z"/>
			<path class="st0" d="M129.5,31.3h-1.4c-0.8,0-1.3-0.3-1.7-0.9c-0.4-0.7-0.6-1.9-0.6-3.5v-2.8c0-0.6-0.1-1.1-0.3-1.5
				c-0.1-0.2-0.3-0.4-0.6-0.7l1.1-2.4c0.4,0.5,0.6,1,0.8,1.5c0.2,0.6,0.3,1.3,0.3,2.3v1.9c0,1.4,0.1,2.3,0.3,2.8
				c0.1,0.4,0.4,0.6,0.7,0.6h1.4L129.5,31.3L129.5,31.3z"/>
			<path class="st0" d="M144.9,31.3h-10.3c-0.5,0-0.8-0.1-1.1-0.3s-0.5-0.6-0.7-1.1c-0.4,0.6-0.8,1-1.2,1.2
				c-0.3,0.2-0.8,0.3-1.4,0.3h-1.4v-2.7h1.4c0.8,0,1.3-0.2,1.7-0.6c0.5-0.4,0.7-1.2,0.9-2.3l0.7,0.1c0,0.2,0,0.4,0,0.6
				c0,0.4,0,0.8,0,1c0,0.4,0.1,0.7,0.3,0.9s0.5,0.3,0.8,0.3s0.6-0.1,0.9-0.2s0.7-0.4,1.3-0.8l3.5-2.5c0.4-0.3,0.7-0.5,0.9-0.6
				c0.5-0.3,0.9-0.4,1.4-0.4c0.7,0,1.3,0.3,1.7,0.8c0.5,0.6,0.8,1.5,0.8,2.7v3.6H144.9z M140,20.9l-1.2,2.2l-2.3-1.2l1.2-2.2
				L140,20.9z M143.5,27.7c0-0.3-0.2-0.5-0.7-0.7c-0.4-0.2-0.8-0.2-1.3-0.2c-0.4,0-0.9,0.1-1.5,0.4s-1.3,0.8-2.3,1.5h2.6
				C142.4,28.7,143.5,28.4,143.5,27.7z"/>
			<path class="st0" d="M154.3,21c0,0.5,0,0.9-0.1,1.4c0,0.2-0.1,0.6-0.3,1.1l-0.7-0.3c0,0.8-0.1,1.5-0.3,2.3s-0.5,1.5-0.9,2.3
				c0.4,0.6,0.6,1,0.6,1.1c0.2,0.3,0.2,0.6,0.2,0.8V30c0,0.2-0.1,0.8-0.2,2c-0.7,0.4-1.4,0.6-2,0.7s-1.5,0.2-2.6,0.2V30
				c0.7-0.3,1.1-0.6,1.4-0.9s0.7-0.6,1.1-1.2c-0.7-0.9-1.3-1.6-1.6-2c-0.3-0.3-0.6-0.7-1.1-1.1c-0.1,0.2-0.2,0.4-0.2,0.4l-0.1,0.1
				c-0.2,0-0.4-0.1-0.9-0.4c-0.4-0.2-0.7-0.5-0.9-0.6c-0.2-0.2-0.4-0.5-0.5-1.1s-0.2-1.2-0.2-2c0-0.4,0-0.6,0.1-0.7s0.1-0.2,0.3-0.2
				c0.3,0,0.8,0.4,1.5,1.1c0.7,0.6,1.3,1.3,1.8,1.9c0.4,0.4,0.8,0.9,1.1,1.3s0.8,1.1,1.4,2.1c0.3-0.6,0.5-1.3,0.6-2.1
				c0.1-0.5,0.1-1.1,0.1-1.9c-0.2-0.1-0.4-0.2-0.5-0.3s-0.1-0.3-0.1-0.4c0-0.4,0-0.8,0.1-1.2s0.2-0.8,0.4-1.3l0.4,0.1
				c0,0.4,0.1,0.7,0.3,0.8C152.9,20.5,153.4,20.7,154.3,21z M151.4,35.3c-0.1,0.2-0.1,0.4-0.2,0.5c-0.1,0.1-0.2,0.1-0.3,0.2
				l-2.1,0.6c0.1-0.2,0.2-0.4,0.3-0.5s0.3-0.2,0.5-0.3c-0.2-0.1-0.3-0.2-0.4-0.3s-0.1-0.2-0.1-0.3s0-0.2,0.1-0.3s0.1-0.2,0.2-0.3
				c0.4-0.6,0.8-0.8,1.3-0.8c0.1,0,0.2,0,0.3,0.1s0.1,0.2,0.1,0.3s0,0.2,0,0.3s-0.1,0.2-0.2,0.3c-0.3-0.2-0.5-0.2-0.7-0.2
				s-0.2,0-0.4,0.1c-0.1,0-0.1,0.1-0.2,0.2c0,0.1,0.2,0.2,0.5,0.4s0.5,0.3,0.7,0.3C150.8,35.5,151,35.4,151.4,35.3z M151.7,29.5
				l-0.5-0.7c-0.3,0.3-0.5,0.5-0.7,0.7s-0.4,0.3-0.8,0.6c0.5-0.1,0.8-0.1,1.1-0.2S151.4,29.7,151.7,29.5z"/>
			<path class="st0" d="M158.2,28.5c0,0.6-0.1,1.1-0.2,1.6s-0.4,1.1-0.8,1.9l-0.6-0.2c0.2-0.8,0.2-1.5,0.2-2c0-0.4,0-1-0.1-1.7
				s-0.1-1.5-0.2-2.3s-0.3-1.6-0.5-2.7c-0.1-0.4-0.1-0.6-0.1-0.8c0-0.2,0.1-0.5,0.3-1s0.5-1.1,0.8-1.8l0.6,3.5
				c0.2,1.3,0.4,2.5,0.4,3.4C158.2,27.1,158.2,27.8,158.2,28.5z"/>
			<path class="st0" d="M175.3,30.9c0,0.9-0.1,1.6-0.3,2.2s-0.5,1-0.9,1.3s-1,0.6-1.8,0.8s-1.6,0.3-2.4,0.3c-1.6,0-2.8-0.3-3.7-0.9
				s-1.3-1.4-1.3-2.5c0-0.9,0.1-1.7,0.4-2.5c0.3-0.8,0.9-1.9,1.8-3.2l0.6,0.4c-0.6,1.1-1.1,1.9-1.3,2.4s-0.3,1-0.3,1.5
				c0,0.7,0.4,1.2,1.1,1.7s1.7,0.6,2.9,0.6s2.2-0.2,3-0.7c0.8-0.4,1.2-1,1.2-1.7c0-0.4-0.1-0.8-0.2-1.2s-0.4-1-0.9-1.9l0.9-2.6
				c0.5,0.8,0.7,1.4,0.8,1.7c0.2,0.6,0.3,1.3,0.3,2.2L175.3,30.9L175.3,30.9z M172.1,23.2l-1.2,2.2l-2.3-1.2l1.2-2.2L172.1,23.2z"/>
			<path class="st0" d="M185,26.7l-1.1,2.8c-1.8,0.5-3.2,1-4.3,1.3c-1,0.3-1.8,0.4-2.5,0.5c-0.5,0.1-1,0.1-1.5,0.1h-0.9v-2.7h1.1
				c0.2,0,0.3,0,0.4,0c0.2,0,0.4,0,0.6-0.1c-0.3-0.5-0.5-0.9-0.7-1.2s-0.2-0.6-0.2-1c0-1,0.4-1.8,1.2-2.5s1.7-1.1,2.8-1.1
				c0.7,0,1.4,0.2,2.1,0.7c0.6,0.4,1,1,1.3,1.6l-0.4,0.4c-0.5-0.2-0.9-0.3-1.2-0.4S181,25,180.5,25c-0.8,0-1.5,0.1-2.1,0.2
				c-0.7,0.2-1.1,0.4-1.1,0.7c0,0.4,0.9,1.2,2.7,2.2L185,26.7z"/>
			<path class="st0" d="M200,31.3h-1.3c-0.2,0-0.4,0-0.6-0.1c-0.4-0.2-0.7-0.5-1-1c-0.4-0.7-0.6-1.6-0.7-2.8c-0.4,0.5-0.8,0.9-1,1.2
				c-0.4,0.3-0.7,0.5-0.9,0.5c-0.1,0-0.3,0-0.5-0.1l-1.2-0.2c-0.5-0.1-0.8-0.2-0.9-0.2s-0.2-0.1-0.2-0.2c0-0.2,0.2-0.7,0.7-1.7
				s0.8-1.5,1-1.7s0.5-0.4,0.9-0.7c0.2-0.2,0.6-0.4,1.1-0.7l0.5-0.3c0-0.1,0-0.2,0-0.3s0-0.2,0-0.3c0-0.2,0.1-0.6,0.2-0.9
				s0.3-0.8,0.6-1.4l0.9,6.1c0.1,1,0.3,1.6,0.6,1.9c0.2,0.2,0.4,0.3,0.6,0.3h1.3v2.6H200z M197.7,17.7l-1.1,1.8l-1.4-0.8l-0.8,1.5
				l-1.8-1l1-1.7l1.4,0.7l0.8-1.5L197.7,17.7z M196.2,25.8l-0.2-1.2c-0.2,0.1-0.4,0.2-0.5,0.2c-0.4,0.2-0.6,0.4-0.9,0.5
				c-0.2,0.1-0.3,0.3-0.4,0.4c-0.1,0.1-0.2,0.3-0.2,0.3c0,0.1,0.1,0.2,0.3,0.2s0.5,0.1,0.7,0.1c0.1,0,0.3,0,0.4-0.1
				S195.9,26,196.2,25.8z"/>
			<path class="st0" d="M209.7,26.7l-1.1,2.8c-1.8,0.5-3.2,1-4.3,1.3c-1,0.3-1.8,0.4-2.5,0.5c-0.5,0.1-1,0.1-1.5,0.1h-0.9v-2.7h1.1
				c0.2,0,0.3,0,0.4,0c0.2,0,0.4,0,0.6-0.1c-0.3-0.5-0.5-0.9-0.7-1.2s-0.2-0.6-0.2-1c0-1,0.4-1.8,1.2-2.5s1.7-1.1,2.8-1.1
				c0.7,0,1.4,0.2,2.1,0.7c0.6,0.4,1,1,1.3,1.6l-0.4,0.4c-0.5-0.2-0.9-0.3-1.2-0.4s-0.7-0.1-1.1-0.1c-0.8,0-1.5,0.1-2.1,0.2
				c-0.7,0.2-1.1,0.4-1.1,0.7c0,0.4,0.9,1.2,2.7,2.2L209.7,26.7z"/>
			<path class="st0" d="M219.8,30.7c0,1.1-0.5,2.2-1.4,3.3s-1.9,1.6-2.8,1.6c-0.5,0-1.1-0.2-1.8-0.5c-0.6-0.3-1.6-1-3-2l0.4-0.6
				c0.7,0.5,1.3,0.8,1.7,0.9c0.4,0.1,0.8,0.2,1.3,0.2c0.6,0,1.3-0.2,1.9-0.5c0.7-0.4,1.5-1.1,2.3-2c-0.3,0-0.5,0.1-0.7,0.1
				c-0.6,0-1.2-0.2-1.5-0.6s-0.6-1-0.6-1.7c0-1,0.2-1.9,0.7-2.8c0.5-1,1-1.5,1.7-1.5c0.5,0,1,0.4,1.3,1.1s0.5,1.6,0.5,2.6
				L219.8,30.7L219.8,30.7z M218.7,28.7c-0.2-1-0.6-1.6-1.1-1.6c-0.2,0-0.4,0.1-0.5,0.2s-0.2,0.3-0.2,0.5s0.1,0.4,0.4,0.6
				s0.6,0.2,1,0.2L218.7,28.7L218.7,28.7z"/>
			<path class="st0" d="M230.3,31.3h-11.2v-2.7h1.3c0.2,0,0.6-0.3,1.3-0.8c0.2-0.2,0.6-0.4,1-0.8c0-0.8,0-1.5-0.1-2
				s-0.2-1.1-0.3-1.7c0-0.1-0.2-0.8-0.5-2.1l-0.6-0.4c0.1-0.7,0.3-1.2,0.4-1.5s0.3-0.8,0.6-1.4l0.4,0.2c0,0,0,0.1,0,0.3
				c0,0.2,0.3,0.5,1,0.8c0.2,0.1,0.5,0.2,1,0.4c-0.1,0.5-0.2,1-0.3,1.4c-0.1,0.2-0.2,0.6-0.4,1l-0.4-0.1c0.2,0.9,0.3,1.6,0.4,2
				s0.1,0.8,0.1,1.2v0.1c0,0.2,0,0.3,0,0.4s0,0.3-0.1,0.5c0.3-0.2,0.7-0.5,1-0.7c0.5-0.4,1-0.7,1.4-0.9c0.5-0.3,1-0.4,1.3-0.4
				c0.8,0,1.4,0.2,1.8,0.6c0.5,0.4,0.8,1.1,0.8,1.9v4.7H230.3z M229,27.7c0-0.2-0.2-0.4-0.7-0.6s-0.9-0.3-1.3-0.3
				c-0.4,0-0.9,0.1-1.5,0.4s-1.3,0.8-2.3,1.5h2.6C227.9,28.7,229,28.4,229,27.7z"/>
			<path class="st0" d="M236.8,31.3h-7.2v-2.7h1.8c0.3,0,0.6,0,0.8,0c0.7,0.1,1.5,0.2,2.5,0.3c-1-0.2-1.6-0.5-2-0.9
				s-0.6-0.9-0.6-1.5c0-1,0.2-1.9,0.7-2.7s1-1.2,1.6-1.2c0.7,0,1.2,0.6,1.7,1.7s0.7,2.5,0.7,4.1V31.3z M235.6,19.6l-1.1,2l-1.4-0.8
				l-0.8,1.5l-1.8-1l1-1.9l1.4,0.7l0.8-1.6L235.6,19.6z M235.5,27.3c-0.2-0.6-0.5-1-0.8-1.3s-0.6-0.5-0.9-0.5c-0.1,0-0.2,0-0.3,0.1
				s-0.1,0.2-0.1,0.3c0,0.3,0.2,0.6,0.6,0.8S234.9,27.2,235.5,27.3z"/>
			<path class="st0" d="M245.1,31.3c-0.7,0-1.5-0.1-2.4-0.4c-0.8-0.2-1.5-0.5-2.1-0.8c-0.4,0.6-0.8,0.9-1.4,1.1
				c-0.3,0.1-0.6,0.1-1.1,0.1h-1.9v-2.7h1.9c0.6,0,1.1-0.1,1.4-0.2c0.4-0.2,0.7-0.5,0.9-0.9c0.4-0.8,0.8-1.5,1.4-2
				c0.5-0.5,1-0.7,1.3-0.7s0.7,0.5,1.2,1.5c0.5,1.1,0.8,2,0.8,2.9L245.1,31.3L245.1,31.3z M243.3,28.4c0-0.1-0.1-0.4-0.4-0.7
				c-0.3-0.4-0.6-0.6-0.8-0.6c-0.3,0-0.5,0.3-0.6,0.9c0.3,0.1,0.6,0.2,0.8,0.3c0.5,0.2,0.8,0.3,0.9,0.3
				C243.2,28.5,243.3,28.5,243.3,28.4z"/>
			<path class="st0" d="M249.8,31.3h-5.4v-2.7h4.2l-1.2-6.6l-0.6-0.4c0-0.4,0.1-0.8,0.2-1.2c0.1-0.5,0.4-1.1,0.8-1.8l0.4,0.2
				c0,0,0,0.1,0,0.3c0,0.2,0.1,0.4,0.4,0.6c0.2,0.2,0.6,0.4,1.2,0.6c-0.1,0.4-0.1,0.8-0.3,1.2s-0.2,0.8-0.4,1.1l-0.4-0.1l1.1,6V31.3
				z"/>
			<path class="st0" d="M253.4,28.5c0,0.6-0.1,1.1-0.2,1.6s-0.4,1.1-0.8,1.9l-0.6-0.2c0.2-0.8,0.2-1.5,0.2-2c0-0.4,0-1-0.1-1.7
				s-0.1-1.5-0.2-2.3s-0.3-1.6-0.5-2.7c-0.1-0.4-0.1-0.6-0.1-0.8c0-0.2,0.1-0.5,0.3-1s0.5-1.1,0.8-1.8l0.6,3.5
				c0.2,1.3,0.4,2.5,0.4,3.4C253.4,27.1,253.4,27.8,253.4,28.5z"/>
			<path class="st0" d="M274.8,31.3h-1.3c-1.1,0-2.4,0-3.9,0.1c-0.9,0-2,0.1-3.4,0.1s-2.1,0.1-2.2,0.1c-1.4,0-2.4-0.2-3-0.7
				s-0.9-1.2-0.9-2.1c0-0.7,0.1-1.4,0.2-1.9s0.5-1.4,1-2.7l0.6,0.3c-0.5,1.1-0.7,1.9-0.7,2.4c0,0.7,0.3,1.2,0.8,1.4
				c0.6,0.3,1.6,0.5,3,0.5c1-0.1,2-0.1,2.9-0.2s1.8-0.1,2.7-0.1c-0.3-0.1-0.5-0.3-0.6-0.4s-0.2-0.4-0.2-0.7c0-0.9,0.3-1.9,0.8-2.8
				c0.6-1,1.3-1.5,2-1.5s1.2,0.5,1.5,1.4s0.4,2.2,0.4,4v2.8H274.8z M274.1,19.8l-1.2,2.2l-2.3-1.2l1.2-2.2L274.1,19.8z M273.3,27.4
				c-0.2-0.6-0.4-1.1-0.6-1.3s-0.3-0.3-0.6-0.3c-0.1,0-0.2,0-0.3,0.1s-0.1,0.2-0.1,0.4c0,0.2,0.1,0.4,0.4,0.6S272.8,27.3,273.3,27.4
				z"/>
			<path class="st0" d="M283.9,30.7c0,1.1-0.5,2.2-1.4,3.3s-1.9,1.6-2.8,1.6c-0.5,0-1.1-0.2-1.8-0.5s-1.6-1-3-2l0.4-0.6
				c0.7,0.5,1.3,0.8,1.7,0.9c0.4,0.1,0.8,0.2,1.3,0.2c0.6,0,1.3-0.2,1.9-0.5c0.7-0.4,1.5-1.1,2.3-2c-0.3,0-0.5,0.1-0.7,0.1
				c-0.6,0-1.2-0.2-1.5-0.6s-0.6-1-0.6-1.7c0-1,0.2-1.9,0.7-2.8c0.5-1,1-1.5,1.7-1.5c0.5,0,1,0.4,1.3,1.1s0.5,1.6,0.5,2.6V30.7z
				 M282.7,28.7c-0.2-1-0.6-1.6-1.1-1.6c-0.2,0-0.4,0.1-0.5,0.2s-0.2,0.3-0.2,0.5s0.1,0.4,0.4,0.6s0.6,0.2,1,0.2L282.7,28.7
				L282.7,28.7z"/>
			<path class="st0" d="M292.5,31.6c0,0.4-0.2,0.9-0.7,1.6s-1,1.2-1.6,1.7c-0.7,0.5-1.3,0.8-1.7,0.8c-0.6,0-1.2-0.2-1.8-0.5
				c-0.6-0.3-1.5-0.8-2.7-1.7l0.4-0.6c0.6,0.4,1.1,0.7,1.4,0.8s0.7,0.2,1.2,0.2c0.4,0,0.9-0.1,1.3-0.4s1.1-0.7,1.8-1.4
				c1.1-1,1.6-1.7,1.6-2.2c0-0.3-0.1-0.6-0.3-1c-0.2-0.5-0.5-0.9-0.9-1.2l0.5-2.6c0.4,0.5,0.8,1,1,1.6s0.4,1.3,0.4,2v2.9H292.5z"/>
			<path class="st0" d="M303,31.3h-11.2v-2.7h1.3c0.2,0,0.6-0.3,1.3-0.8c0.2-0.2,0.6-0.4,1-0.8c0-0.8,0-1.5-0.1-2s-0.2-1.1-0.3-1.7
				c0-0.1-0.2-0.8-0.5-2.1l-0.6-0.4c0.1-0.7,0.3-1.2,0.4-1.5s0.3-0.8,0.6-1.4l0.4,0.2c0,0,0,0.1,0,0.3c0,0.2,0.3,0.5,1,0.8
				c0.2,0.1,0.5,0.2,1,0.4c-0.1,0.5-0.2,1-0.3,1.4c-0.1,0.2-0.2,0.6-0.4,1l-0.4-0.1c0.2,0.9,0.3,1.6,0.4,2s0.1,0.8,0.1,1.2v0.1
				c0,0.2,0,0.3,0,0.4s0,0.3-0.1,0.5c0.3-0.2,0.7-0.5,1-0.7c0.5-0.4,1-0.7,1.4-0.9c0.5-0.3,1-0.4,1.3-0.4c0.8,0,1.4,0.2,1.8,0.6
				c0.5,0.4,0.8,1.1,0.8,1.9v4.7H303z M301.6,27.7c0-0.2-0.2-0.4-0.7-0.6s-0.9-0.3-1.3-0.3s-0.9,0.1-1.5,0.4s-1.3,0.8-2.3,1.5h2.6
				C300.6,28.7,301.6,28.4,301.6,27.7z M301.5,20.9l-1.2,2.2l-2.3-1.2l1.2-2.2L301.5,20.9z"/>
			<path class="st0" d="M307.7,31.3h-5.4v-2.7h4.2l-1.2-6.6l-0.6-0.4c0-0.4,0.1-0.8,0.2-1.2c0.1-0.5,0.4-1.1,0.8-1.8l0.4,0.2
				c0,0,0,0.1,0,0.3c0,0.2,0.1,0.4,0.4,0.6c0.2,0.2,0.6,0.4,1.2,0.6c-0.1,0.4-0.1,0.8-0.3,1.2s-0.2,0.8-0.4,1.1l-0.4-0.1l1.1,6
				L307.7,31.3L307.7,31.3z"/>
			<path class="st0" d="M312.4,31.3H311c-0.8,0-1.3-0.3-1.7-0.9c-0.4-0.7-0.6-1.9-0.6-3.5v-2.8c0-0.6-0.1-1.1-0.3-1.5
				c-0.1-0.2-0.3-0.4-0.6-0.7l1.1-2.4c0.4,0.5,0.6,1,0.8,1.5c0.2,0.6,0.3,1.3,0.3,2.3v1.9c0,1.4,0.1,2.3,0.3,2.8
				c0.1,0.4,0.4,0.6,0.7,0.6h1.4L312.4,31.3L312.4,31.3z"/>
			<path class="st0" d="M319.6,31.3h-7.9v-2.7h6.3c-0.3-0.3-0.5-0.6-0.7-0.8c-0.2-0.2-0.5-0.4-0.8-0.7c-0.4-0.3-0.7-0.6-1.1-0.9
				l-0.3,0.4c-0.6-0.6-0.9-0.9-1-1c-0.3-0.4-0.5-0.8-0.5-1.3c0-0.7,0-1.1,0.1-1.4c0.1-0.4,0.4-0.7,0.8-1s0.8-0.5,1.2-0.7
				c0.3-0.2,0.8-0.4,1.3-0.6c0.3-0.1,0.8-0.3,1.7-0.6v2.3c0,0-0.3,0.1-0.8,0.3c-0.6,0.2-1.1,0.4-1.5,0.5c-0.5,0.2-0.8,0.4-0.8,0.5
				s0.2,0.3,0.7,0.8c0.6,0.6,1.2,1.2,1.6,1.7c0.7,0.8,1.3,1.7,1.7,2.5L319.6,31.3L319.6,31.3z"/>
			<path class="st0" d="M325.8,38.4c0.5-1.2,0.9-2,1.1-2.7s0.4-1.3,0.6-2.1s0.3-1.6,0.4-2.3s0.1-1.5,0.1-2.2c0-1.5-0.2-3-0.5-4.4
				s-0.9-3.1-1.8-5h1.9c1,1.4,1.7,2.9,2.3,4.5s0.8,3.2,0.8,4.8c0,1.4-0.2,2.8-0.6,4.4c-0.5,1.7-1.3,3.5-2.4,5.2h-1.9V38.4z"/>
		</g>
	</g>
</g>
<rect class="st1" width="407.8" height="49.5"/>
</svg>
