<?xml version="1.0" encoding="utf-8"?>
<!-- Generator: Adobe Illustrator 19.2.0, SVG Export Plug-In . SVG Version: 6.00 Build 0)  -->
<svg version="1.1" id="Layer_1" xmlns="http://www.w3.org/2000/svg" xmlns:xlink="http://www.w3.org/1999/xlink" x="0px" y="0px"
	 viewBox="0 0 316.7 59.7" style="enable-background:new 0 0 316.7 59.7;" xml:space="preserve">
<style type="text/css">
	.st0{fill:#BA0017;}
	.st1{fill:none;}
</style>
<g>
	<g>
		<g>
			<g>
				<g>
					<path d="M130.4,27.4c0,0.4-0.1,0.8-0.4,1.1c-0.3,0.3-0.6,0.5-1,0.5c-0.3,0-0.6-0.1-0.8-0.3c-0.2-0.2-0.3-0.5-0.3-0.8
						c0-0.4,0.2-0.8,0.5-1c0.4-0.2,0.5-0.4,0.5-0.5c0-0.2-0.1-0.4-0.3-0.5s-0.5-0.2-0.8-0.2c-0.4,0-0.8,0.1-1,0.4
						c-0.3,0.2-0.4,0.5-0.4,0.9c0,0.3,0.1,0.7,0.4,1.2c0.4,0.8,0.7,1.2,0.8,1.5c0.3,0.7,0.4,1.4,0.4,2.2c0,0.4,0,0.9-0.1,1.4l-0.6,0
						c0-0.1,0-0.2,0-0.3l0-0.5c0-0.4-0.2-0.8-0.7-1.2c-0.8-0.7-1.3-1.1-1.3-1.2c-0.5-0.6-0.7-1.2-0.7-2c0-0.9,0.3-1.6,0.9-2.2
						c0.6-0.6,1.3-0.9,2.2-0.9c0.8,0,1.4,0.2,2,0.7C130.1,26.1,130.4,26.7,130.4,27.4z M128.6,35.3c0,0.3-0.1,0.6-0.4,0.9
						c-0.2,0.2-0.5,0.4-0.9,0.4c-0.3,0-0.6-0.1-0.8-0.4c-0.2-0.2-0.4-0.5-0.4-0.8c0-0.3,0.1-0.6,0.4-0.9c0.2-0.2,0.5-0.4,0.9-0.4
						c0.3,0,0.6,0.1,0.8,0.4C128.5,34.6,128.6,34.9,128.6,35.3z"/>
					<path d="M141.2,27.4c0,0.1,0,0.2,0,0.3s0,0.2-0.1,0.4l-0.8-0.5c-0.3,0.4-0.5,0.6-0.7,0.7c-0.5,0.5-0.9,0.7-1.2,0.7h-0.7
						c0.3-0.2,0.7-0.4,1.2-0.8c0.4-0.3,0.7-0.6,0.9-0.9c-0.2-0.1-0.4-0.3-0.5-0.4c-0.1-0.2-0.2-0.4-0.2-0.6c0-0.4,0.1-0.8,0.4-1.1
						c0.3-0.3,0.5-0.5,0.8-0.5c0.2,0,0.3,0.1,0.5,0.3c0.1,0.2,0.2,0.4,0.2,0.7c0,0.1,0,0.3-0.1,0.4c0,0.1-0.1,0.4-0.2,0.7
						c0.1,0.1,0.2,0.2,0.3,0.3C141.1,27.2,141.2,27.3,141.2,27.4z M140.4,26.3c0-0.2-0.1-0.3-0.2-0.5c-0.1-0.1-0.2-0.2-0.4-0.2
						c-0.1,0-0.1,0-0.2,0.1c0,0-0.1,0.1-0.1,0.1c0,0.1,0.1,0.3,0.2,0.4l0.4,0.3C140.4,26.5,140.4,26.4,140.4,26.3z"/>
					<path d="M143.3,36.3h-1.2c-1.1,0-2,0.1-2.8,0.3c-1,0.3-1.5,0.6-1.5,1.1c0,0.4,0.1,0.9,0.2,1.4s0.3,1,0.4,1.5
						c0.2,0.5,0.2,1,0.2,1.4c0,0.2,0,0.5-0.1,0.7c0,0.2-0.1,0.5-0.2,0.8c-0.2-0.5-0.3-1.1-0.5-1.6c-0.3-1-0.5-1.8-0.7-2.3
						c-0.2-0.8-0.4-1.3-0.4-1.5c0-0.8,0.2-1.5,0.5-1.9c0.3-0.4,0.9-0.8,1.6-1c0.6-0.2,1.4-0.3,2.6-0.4c-0.4-0.4-0.7-0.7-0.8-0.7
						c-0.3-0.3-0.7-0.4-1-0.4c-0.2,0-0.4,0.1-0.6,0.2c-0.2,0.1-0.3,0.3-0.6,0.5l-0.4-0.3c0.2-0.5,0.4-0.9,0.7-1.2
						c0.4-0.5,0.9-0.7,1.5-0.7c0.4,0,0.8,0.2,1.2,0.4c0.3,0.2,0.7,0.6,1,1c0.2,0.2,0.4,0.6,0.8,1.1V36.3z"/>
					<path d="M149,38.1c0,0.3-0.2,0.6-0.5,0.9c-0.6,0.2-1.5,0.6-2.8,1.1c0-0.3,0.1-0.5,0.4-0.8C146.6,39.1,147.6,38.7,149,38.1z"/>
					<path d="M150.1,36.3h-4.4c-0.4,0-0.7-0.1-1-0.3s-0.4-0.5-0.4-0.8c0-0.2,0-0.5,0-0.7c0-0.2,0.1-0.4,0.1-0.7h0.2
						c0.1,0.3,0.2,0.5,0.4,0.6c0.2,0.1,0.4,0.1,0.6,0.1h3.8c0-1.2-0.2-2.1-0.5-2.8c-0.4-0.9-1.1-1.5-2-1.8l0.1-1.9
						c1.1,0.6,1.9,1.4,2.4,2.6c0.4,1,0.6,2.3,0.6,3.8V36.3z"/>
					<path d="M154.7,36.3h-1.4c-0.4,0-0.8-0.2-1.1-0.5c-0.2-0.3-0.4-0.8-0.5-1.4c-0.1-0.6-0.2-1.4-0.3-2.3c0-0.7-0.1-1.5-0.1-2.3
						c0-0.8-0.1-1.4-0.2-1.8s-0.2-0.7-0.3-1c-0.1-0.3-0.3-0.6-0.6-0.8l1.2-1.9c0.3,0.8,0.4,1.7,0.5,2.8c0.1,0.7,0.1,2.3,0.2,4.8
						c0.1,1.2,0.3,1.9,0.5,2.2c0.2,0.3,0.4,0.4,0.6,0.4h1.4V36.3z"/>
					<path d="M159.2,21.8c0,0.3-0.2,0.6-0.5,0.9c-0.6,0.2-1.5,0.6-2.8,1.1c0-0.3,0.1-0.6,0.4-0.8C156.9,22.8,157.8,22.4,159.2,21.8z
						"/>
					<path d="M159.9,36.3H154v-1.7h3.3c0.4,0,0.7,0,1,0s0.6-0.1,0.9-0.2c-1.1-0.2-1.8-0.3-2.2-0.5c-0.7-0.3-1.1-0.9-1.1-1.7
						c0-0.7,0.2-1.3,0.5-1.9c0.4-0.7,0.9-1,1.5-1c0.7,0,1.2,0.4,1.5,1.3c0.3,0.7,0.4,1.5,0.4,2.4V36.3z M157.2,26l-0.8,1.3l-1.2-0.8
						l0.8-1.3L157.2,26z M159,32.9c-0.1-0.5-0.3-0.9-0.4-1.2c-0.3-0.5-0.6-0.7-1-0.7c-0.2,0-0.3,0.1-0.5,0.2
						c-0.1,0.1-0.2,0.3-0.2,0.5c0,0.5,0.3,0.8,0.8,1C157.9,32.8,158.3,32.9,159,32.9z M159.5,25.5l-0.8,1.3l-1.2-0.8l0.8-1.3
						L159.5,25.5z"/>
					<path d="M164,36.3h-4.8v-1.7h3.8l-1.2-8.3l-0.5-0.2c0-0.4,0-0.9,0.1-1.3c0.1-0.4,0.2-0.8,0.4-1.1l0.1,0.1
						c0,0.4,0.2,0.7,0.6,0.8c0.3,0.1,0.7,0.3,1,0.4c0,0.3,0,0.7-0.1,1s-0.1,0.6-0.2,0.8l-0.5-0.2l1.2,7.7V36.3z"/>
					<path d="M167.3,33.9c0,0.5-0.1,1-0.3,1.5c-0.1,0.3-0.3,0.7-0.6,1.2l-0.2-0.1c0-0.2,0-0.4,0.1-0.7c0-0.2,0-0.4,0-0.5
						c0-0.7-0.1-1.6-0.2-2.8c-0.1-1.2-0.2-2.5-0.4-3.8c-0.1-0.8-0.2-1.6-0.3-2.5c0.1-0.3,0.3-0.6,0.4-0.9s0.3-0.6,0.5-0.9
						c0.1,0.7,0.2,1.8,0.4,3s0.3,2.5,0.4,3.5C167.3,32.2,167.3,33.2,167.3,33.9z"/>
					<path class="st0" d="M180.7,25.3c0,0.4-0.1,0.8-0.4,1.1c-0.3,0.3-0.7,0.5-1.1,0.5c-0.4,0-0.6-0.1-0.8-0.3s-0.3-0.5-0.3-0.8
						c0-0.5,0.1-0.9,0.4-1.3c0.3-0.4,0.6-0.6,1-0.6c0.4,0,0.6,0.1,0.9,0.4S180.7,24.9,180.7,25.3z M180.2,25.6
						c0-0.2-0.1-0.4-0.4-0.6c-0.3-0.2-0.5-0.3-0.6-0.3c-0.2,0-0.3,0.1-0.4,0.2s-0.2,0.3-0.2,0.5c0,0.2,0.1,0.4,0.3,0.5
						c0.2,0.1,0.4,0.1,0.7,0.1c0.2,0,0.3,0,0.4-0.1C180.1,25.8,180.2,25.7,180.2,25.6z"/>
					<path class="st0" d="M184.3,36.3c0,1.5-0.4,2.5-1.3,3.2c-0.9,0.7-2.4,1.1-4.4,1.1c-1.3,0-2.3-0.2-3-0.7
						c-0.8-0.5-1.1-1.3-1.1-2.3c0-0.6,0.1-1.1,0.2-1.7c0.1-0.6,0.3-1.1,0.6-1.7c0.1-0.4,0.4-0.9,0.7-1.6l0.4,0.2
						c-0.5,0.9-0.8,1.7-0.9,2.2c-0.1,0.5-0.2,1-0.2,1.5c0,0.8,0.3,1.4,0.9,1.8s1.4,0.6,2.5,0.6c1.2,0,2.3-0.2,3.3-0.7
						c1.2-0.5,1.8-1.3,1.8-2.3c0-0.7-0.1-1.3-0.3-1.9c-0.2-0.5-0.4-0.9-0.7-1.3l0.8-2c0.3,0.5,0.6,1.1,0.7,1.6
						c0.1,0.5,0.2,1.3,0.2,2.2V36.3z M180.6,28.9l-0.7,1.4l-1.5-0.8l0.7-1.4L180.6,28.9z"/>
					<path class="st0" d="M189.8,24.8c0,0.3-0.2,0.6-0.5,0.9c-0.6,0.2-1.5,0.6-2.8,1.1c0-0.3,0.1-0.6,0.4-0.8
						C187.4,25.7,188.4,25.3,189.8,24.8z"/>
					<path class="st0" d="M192.1,36.3h-1c-0.4,0-0.9-0.1-1.5-0.3c-0.6-0.2-1.2-0.5-1.7-0.9c-0.4,0.5-0.8,0.8-1.2,1
						c-0.4,0.2-1,0.3-1.7,0.3h-1.5v-1.7h1.5c0.6,0,1.1-0.1,1.6-0.4c0.4-0.2,0.7-0.6,1-1c0.4-0.6,0.9-1.1,1.5-1.5
						c0.5-0.4,1-0.6,1.4-0.7c0.4,0.7,0.8,1.3,1.1,1.8c0.4,0.7,0.5,1.3,0.5,1.8V36.3z M191,34.4c-0.1-0.4-0.2-0.7-0.4-1.1
						c-0.1-0.3-0.3-0.6-0.6-0.9c-0.3,0.1-0.6,0.2-0.8,0.4c-0.1,0.1-0.3,0.4-0.5,0.7c0.2,0.3,0.6,0.5,1,0.7c0.4,0.2,0.8,0.3,1.2,0.4
						L191,34.4z"/>
				</g>
			</g>
		</g>
	</g>
	<rect class="st1" width="316.7" height="59.7"/>
</g>
</svg>
