<?xml version="1.0" encoding="utf-8"?>
<!-- Generator: Adobe Illustrator 19.2.0, SVG Export Plug-In . SVG Version: 6.00 Build 0)  -->
<svg version="1.1" id="Layer_1" xmlns="http://www.w3.org/2000/svg" xmlns:xlink="http://www.w3.org/1999/xlink" x="0px" y="0px"
	 viewBox="0 0 407.8 49.8" style="enable-background:new 0 0 407.8 49.8;" xml:space="preserve">
<style type="text/css">
	.st0{fill:#097B70;}
	.st1{fill:none;}
</style>
<g>
	<g>
		<path class="st0" d="M196.8,34.2c0,1.5-0.8,2.7-2.3,3.9s-3.2,1.7-5.2,1.7c-1.6,0-2.9-0.4-3.8-1.2c-0.9-0.8-1.4-2-1.4-3.4
			c0-1.4,0.2-2.6,0.5-3.6c0.4-1.2,1.1-2.6,2.3-4.2l0.9,0.6c-0.7,1.1-1.3,2.1-1.6,2.9s-0.5,1.6-0.5,2.4c0,0.9,0.3,1.5,1,2
			c0.6,0.5,1.5,0.7,2.7,0.7c1.7,0,3-0.3,4-1c1-0.6,1.6-1.5,1.6-2.5c0-0.2,0-0.3,0-0.4s0-0.2,0-0.2c0-0.4,0-0.8-0.1-1.2
			s-0.2-1.4-0.5-2.7c-0.4-2.2-0.8-4.5-1.2-6.7l-0.7-0.5c0-0.9,0.4-2.3,1.3-4.2l0.7,0.3c0,0.1-0.1,0.3-0.1,0.5c0,0.4,0.2,0.7,0.6,0.9
			c0.6,0.3,1.1,0.6,1.6,0.9c-0.1,0.8-0.2,1.4-0.3,1.7c-0.1,0.3-0.3,0.9-0.7,1.6l-0.4-0.2c0,0.1,0.1,0.9,0.4,2.4
			c0.3,1.5,0.5,2.7,0.7,3.8c0.3,1.5,0.4,2.5,0.4,2.8V34.2z"/>
		<path class="st0" d="M203.6,34.6h-2c-1.1,0-1.9-0.5-2.4-1.4c-0.5-1-0.8-2.7-0.8-5.1v-4c0-0.9-0.1-1.6-0.4-2.1
			c-0.1-0.2-0.4-0.6-0.8-1.1l1.5-3.5c0.5,0.8,0.9,1.5,1.1,2.2c0.3,0.9,0.4,2,0.4,3.3v2.8c0,2,0.1,3.3,0.4,4.1c0.2,0.6,0.5,0.9,1,0.9
			h2V34.6z"/>
		<path class="st0" d="M211.5,34.6h-8.9v-3.9h7.4c-0.1-0.6-0.3-1.2-0.6-1.6c-0.1-0.2-0.5-0.7-1-1.3l1.1-3.4c0.7,0.8,1.2,1.6,1.5,2.5
			s0.4,2.2,0.4,3.9V34.6z M211.3,19.4l-1.6,2.9l-2-1.1l-1.1,2.2l-2.6-1.4l1.5-2.7l2.1,1l1.2-2.3L211.3,19.4z M208.5,16.1l-1.4,2.9
			l-2.7-1.4l1.4-2.9L208.5,16.1z"/>
		<path class="st0" d="M223.5,34.6c-1,0-2.2-0.2-3.5-0.6c-1.2-0.3-2.2-0.7-3.1-1.2c-0.5,0.8-1.2,1.4-2,1.6c-0.4,0.1-0.9,0.2-1.6,0.2
			h-2.8v-3.9h2.8c0.8,0,1.5-0.1,2-0.3c0.6-0.3,1.1-0.7,1.3-1.4c0.5-1.2,1.2-2.2,2.1-3c0.7-0.7,1.4-1,1.9-1c0.5,0,1.1,0.7,1.8,2.2
			c0.7,1.5,1.1,3,1.1,4.2V34.6z M220.9,30.3c0-0.2-0.2-0.6-0.6-1.1c-0.5-0.6-0.8-0.8-1.2-0.8c-0.4,0-0.7,0.4-0.9,1.3
			c0.5,0.2,0.9,0.3,1.1,0.4c0.8,0.3,1.2,0.4,1.3,0.4C220.8,30.5,220.9,30.4,220.9,30.3z"/>
	</g>
	<rect class="st1" width="407.8" height="49.8"/>
</g>
</svg>
