<?xml version="1.0" encoding="utf-8"?>
<!-- Generator: Adobe Illustrator 19.2.0, SVG Export Plug-In . SVG Version: 6.00 Build 0)  -->
<svg version="1.1" id="Layer_1" xmlns="http://www.w3.org/2000/svg" xmlns:xlink="http://www.w3.org/1999/xlink" x="0px" y="0px"
	 viewBox="0 0 407.8 49.5" style="enable-background:new 0 0 407.8 49.5;" xml:space="preserve">
<style type="text/css">
	.st0{fill:#BA0017;}
	.st1{fill:none;}
</style>
<g>
	<g>
		<path d="M106.9,32.1v-2h2v2H106.9z"/>
		<path class="st0" d="M116.7,18.4c0,0.1,0,0.2,0,0.3s0,0.2-0.1,0.4l-0.8-0.5c-0.3,0.4-0.5,0.6-0.7,0.7c-0.5,0.5-0.9,0.7-1.2,0.7
			h-0.7c0.3-0.2,0.7-0.4,1.2-0.8c0.4-0.3,0.7-0.6,0.9-0.9c-0.2-0.1-0.4-0.3-0.5-0.4c-0.1-0.2-0.2-0.4-0.2-0.6c0-0.4,0.1-0.8,0.4-1.1
			c0.3-0.3,0.5-0.5,0.8-0.5c0.2,0,0.3,0.1,0.5,0.3c0.1,0.2,0.2,0.4,0.2,0.7c0,0.1,0,0.3-0.1,0.4s-0.1,0.4-0.2,0.7
			c0.1,0.1,0.2,0.2,0.3,0.3C116.7,18.2,116.7,18.3,116.7,18.4z M116,17.3c0-0.2-0.1-0.3-0.2-0.5s-0.2-0.2-0.4-0.2
			c-0.1,0-0.1,0-0.2,0.1s-0.1,0.1-0.1,0.1c0,0.1,0.1,0.3,0.2,0.4l0.4,0.3C116,17.4,116,17.4,116,17.3z"/>
		<path class="st0" d="M120.4,29.3c0,0.7-0.3,1.5-0.9,2.2c-0.5,0.7-1.2,1.3-2,1.7c-0.8,0.5-1.4,0.7-1.9,0.7c-0.4,0-0.9-0.1-1.5-0.2
			c-0.4-0.1-0.9-0.3-1.4-0.5c-0.5-0.2-0.9-0.4-1.4-0.5l0.2-0.4c0.4,0.1,0.9,0.2,1.3,0.3s0.9,0.1,1.3,0.1c0.8,0,1.7-0.3,2.6-0.8
			c0.8-0.5,1.5-1.1,2.1-1.9s0.9-1.4,0.9-2c0-0.5-0.1-1.1-0.4-1.6c-0.2-0.5-0.6-0.9-1-1.4l0.6-1.5c0.5,0.5,0.9,1,1.2,1.5
			c0.3,0.6,0.4,1.2,0.4,1.9V29.3z"/>
		<path class="st0" d="M125.2,18.3c0,0.4-0.1,0.8-0.4,1.1s-0.7,0.5-1.1,0.5c-0.4,0-0.6-0.1-0.8-0.3s-0.3-0.5-0.3-0.8
			c0-0.5,0.1-0.9,0.4-1.3s0.6-0.6,1-0.6c0.4,0,0.6,0.1,0.9,0.4S125.2,17.9,125.2,18.3z M124.7,18.5c0-0.2-0.1-0.4-0.4-0.6
			s-0.5-0.3-0.6-0.3c-0.2,0-0.3,0.1-0.4,0.2s-0.2,0.3-0.2,0.5c0,0.2,0.1,0.4,0.3,0.5c0.2,0.1,0.4,0.1,0.7,0.1c0.2,0,0.3,0,0.4-0.1
			S124.7,18.7,124.7,18.5z"/>
		<path class="st0" d="M125.3,29.3h-5.6v-1.7h4.9c0-0.8-0.1-1.4-0.3-1.8c-0.1-0.3-0.4-0.7-0.9-1.2l0.8-1.6c0.5,0.6,0.8,1.1,0.9,1.4
			c0.2,0.5,0.3,1.3,0.3,2.5V29.3z M123,32.1l-0.7,1.4l-1.6-0.8l0.7-1.4L123,32.1z M125.3,31.2l-0.8,1.4l-1.6-0.8l0.7-1.4L125.3,31.2
			z"/>
		<path class="st0" d="M131.4,15.7c0,0.3-0.2,0.6-0.5,0.9c-0.6,0.2-1.5,0.6-2.8,1.1c0-0.3,0.1-0.6,0.4-0.8
			C129,16.7,130,16.3,131.4,15.7z"/>
		<path class="st0" d="M134.7,26.2L134,28c-1,0.4-2.1,0.7-3.4,0.9s-2.5,0.4-3.6,0.4h-2.4v-1.7h2.3c-0.2-0.3-0.3-0.7-0.5-1
			s-0.2-0.8-0.2-1.1c0-0.8,0.3-1.4,1-1.9s1.5-0.8,2.5-0.8c0.8,0,1.5,0.2,2,0.6c0.2,0.2,0.6,0.6,1.1,1.2l-0.2,0.2
			c-0.4-0.1-0.9-0.2-1.2-0.3s-0.7-0.1-1.1-0.1c-0.9,0-1.6,0.1-2.1,0.3c-0.5,0.2-0.8,0.5-0.8,0.8c0,0.3,0.2,0.7,0.5,1.1
			c0.3,0.4,0.7,0.7,1.2,1c1.1-0.2,1.9-0.3,2.6-0.5S133.5,26.6,134.7,26.2z M130.6,20.2l-0.7,1.4l-1.6-0.8l0.7-1.4L130.6,20.2z"/>
		<path d="M151.5,19l-0.5,1.8l-0.6-0.3l0,0.9c0,0.9-0.1,1.7-0.3,2.5c-0.2,0.9-0.6,1.8-1.1,2.7c0.2,0.5,0.4,0.8,0.5,1.1
			c0.1,0.4,0.2,0.8,0.2,1.3c0,0.2,0,0.4,0,0.6s0,0.4-0.1,0.6c-0.7,0.2-1.4,0.3-2.2,0.4s-1.5,0.1-2.3,0.1c0-0.1,0-0.2,0-0.3
			c0-0.5,0.1-1,0.2-1.4c1.1-0.6,2-1.4,2.8-2.3c-0.5-0.9-0.8-1.5-1-1.8c-0.2-0.4-0.6-1-1.2-1.8c-0.2-0.3-0.4-0.5-0.5-0.7
			c-0.2-0.2-0.4-0.3-0.5-0.3c-0.1,0-0.2,0-0.4,0.1c-0.1,0.1-0.2,0.1-0.3,0.1c-0.1,0-0.4-0.1-0.7-0.4c-0.3-0.3-0.5-0.6-0.8-0.9
			c-0.2-0.3-0.4-0.5-0.5-0.7c-0.1-0.2-0.1-0.4-0.1-0.7c0-0.4,0-0.7,0.1-0.9c0.1-0.3,0.2-0.5,0.4-0.5c0.3,0,0.7,0.3,1.2,0.8
			c0.4,0.5,1,1.1,1.5,1.8c0.5,0.7,1,1.4,1.4,2.1l1,1.6c0.3,0.5,0.6,1,0.9,1.6c0.4-0.9,0.7-1.8,0.9-2.7c0.1-0.8,0.2-1.8,0.2-3
			l-0.6-0.3c0-0.4,0-0.8,0.1-1.2s0.2-0.7,0.3-1l0.2,0.1c0,0.3,0.2,0.5,0.5,0.7c0.2,0.1,0.4,0.2,0.6,0.3S151.4,18.9,151.5,19z
			 M149,28.5c0-0.1,0-0.3-0.1-0.4s-0.2-0.4-0.4-0.8c-0.2,0.3-0.5,0.5-0.9,0.9s-0.8,0.6-1.1,0.8c0.8,0,1.3,0,1.6-0.1
			C148.7,28.8,149,28.7,149,28.5z"/>
		<path d="M169.6,29.3h-1.7c-1,0-1.8,0-2.3,0.1s-0.8,0.2-0.8,0.3c0,0.2,0.3,0.3,0.9,0.3c0.3,0,0.5,0,0.6,0s0.5,0,1,0.1
			c0.3,0,0.5,0.1,0.6,0.1c0.2,0.1,0.3,0.3,0.3,0.5c0,1.2-0.4,2.1-1.2,2.7c-0.9,0.6-2.3,0.9-4.3,0.9c-1.4,0-2.5-0.2-3.3-0.7
			c-0.9-0.5-1.3-1.2-1.3-2.2c0-0.8,0.2-1.6,0.6-2.4c0.1-0.3,0.5-1,1.2-2l0.4,0.2c-0.2,0.4-0.5,0.8-0.7,1.3c-0.4,0.7-0.6,1.3-0.6,1.8
			c0,0.8,0.4,1.4,1.3,1.8c0.8,0.4,1.9,0.6,3.3,0.6c0.9,0,1.8-0.1,2.5-0.2c0.9-0.2,1.3-0.4,1.3-0.7c0-0.1,0-0.2-0.1-0.2
			c-0.1-0.1-0.3-0.1-0.5-0.1c-0.2,0-0.5,0-0.8-0.1s-0.6,0-0.7,0c-0.4,0-0.7-0.1-0.9-0.2s-0.3-0.3-0.3-0.5c0-0.8,0.2-1.5,0.7-2
			c0.4-0.4,0.9-0.7,1.6-0.9c0.5-0.1,1-0.2,1.6-0.2h1.7V29.3z"/>
		<path d="M174.7,14.8c0,0.3-0.2,0.6-0.5,0.9c-0.6,0.2-1.5,0.6-2.8,1.1c0-0.3,0.1-0.6,0.4-0.8C172.3,15.7,173.3,15.3,174.7,14.8z"/>
		<path d="M174.5,29.3h-5.6v-1.7h4.9c0-0.8-0.1-1.4-0.3-1.8c-0.1-0.3-0.4-0.7-0.9-1.2l0.8-1.6c0.5,0.6,0.8,1.1,0.9,1.4
			c0.2,0.5,0.3,1.3,0.3,2.5V29.3z M173.7,20.3l-0.7,1.4l-1.6-0.8l0.7-1.4L173.7,20.3z"/>
		<path d="M179.8,18.3c0,0.4-0.1,0.8-0.4,1.1s-0.7,0.5-1.1,0.5c-0.4,0-0.6-0.1-0.8-0.3s-0.3-0.5-0.3-0.8c0-0.5,0.1-0.9,0.4-1.3
			s0.6-0.6,1-0.6c0.4,0,0.6,0.1,0.9,0.4S179.8,17.9,179.8,18.3z M179.2,18.5c0-0.2-0.1-0.4-0.4-0.6s-0.5-0.3-0.6-0.3
			c-0.2,0-0.3,0.1-0.4,0.2s-0.2,0.3-0.2,0.5c0,0.2,0.1,0.4,0.3,0.5c0.2,0.1,0.4,0.1,0.7,0.1c0.2,0,0.3,0,0.4-0.1
			S179.2,18.7,179.2,18.5z"/>
		<path d="M182.4,29.3h-1c-0.4,0-0.9-0.1-1.5-0.3c-0.6-0.2-1.2-0.5-1.7-0.9c-0.4,0.5-0.8,0.8-1.2,1s-1,0.3-1.7,0.3h-1.5v-1.7h1.5
			c0.6,0,1.1-0.1,1.6-0.4c0.4-0.2,0.7-0.6,1-1c0.4-0.6,0.9-1.1,1.5-1.5c0.5-0.4,1-0.6,1.4-0.7c0.4,0.7,0.8,1.3,1.1,1.8
			c0.4,0.7,0.5,1.3,0.5,1.8V29.3z M181.2,27.4c-0.1-0.4-0.2-0.7-0.4-1.1c-0.1-0.3-0.3-0.6-0.6-0.9c-0.3,0.1-0.6,0.2-0.8,0.4
			c-0.1,0.1-0.3,0.4-0.5,0.7c0.2,0.3,0.6,0.5,1,0.7s0.8,0.3,1.2,0.4L181.2,27.4z"/>
		<path d="M187,18.4c0,0.1,0,0.2,0,0.3s0,0.2-0.1,0.4l-0.8-0.5c-0.3,0.4-0.5,0.6-0.7,0.7c-0.5,0.5-0.9,0.7-1.2,0.7h-0.7
			c0.3-0.2,0.7-0.4,1.2-0.8c0.4-0.3,0.7-0.6,0.9-0.9c-0.2-0.1-0.4-0.3-0.5-0.4c-0.1-0.2-0.2-0.4-0.2-0.6c0-0.4,0.1-0.8,0.4-1.1
			c0.3-0.3,0.5-0.5,0.8-0.5c0.2,0,0.3,0.1,0.5,0.3c0.1,0.2,0.2,0.4,0.2,0.7c0,0.1,0,0.3-0.1,0.4s-0.1,0.4-0.2,0.7
			c0.1,0.1,0.2,0.2,0.3,0.3C186.9,18.2,187,18.3,187,18.4z M186.2,17.3c0-0.2-0.1-0.3-0.2-0.5s-0.2-0.2-0.4-0.2
			c-0.1,0-0.1,0-0.2,0.1s-0.1,0.1-0.1,0.1c0,0.1,0.1,0.3,0.2,0.4l0.4,0.3C186.2,17.4,186.2,17.4,186.2,17.3z"/>
		<path d="M187.2,29.3h-5.6v-1.7h4.9c0-0.8-0.1-1.4-0.3-1.8c-0.1-0.3-0.4-0.7-0.9-1.2l0.8-1.6c0.5,0.6,0.8,1.1,0.9,1.4
			c0.2,0.5,0.3,1.3,0.3,2.5V29.3z M184.9,32.1l-0.7,1.4l-1.6-0.8l0.7-1.4L184.9,32.1z M187.2,31.2l-0.8,1.4l-1.6-0.8l0.7-1.4
			L187.2,31.2z"/>
		<path d="M191.4,29.3h-4.8v-1.7h3.8l-1.2-8.3l-0.5-0.2c0-0.4,0-0.9,0.1-1.3s0.2-0.8,0.4-1.1l0.1,0.1c0,0.4,0.2,0.7,0.6,0.8
			c0.3,0.1,0.7,0.3,1,0.4c0,0.3,0,0.7-0.1,1s-0.1,0.6-0.2,0.8l-0.5-0.2l1.2,7.7V29.3z"/>
		<path d="M194.7,26.8c0,0.5-0.1,1-0.3,1.5c-0.1,0.3-0.3,0.7-0.6,1.2l-0.2-0.1c0-0.2,0-0.4,0.1-0.7s0-0.4,0-0.5
			c0-0.7-0.1-1.6-0.2-2.8s-0.2-2.5-0.4-3.8c-0.1-0.8-0.2-1.6-0.3-2.5c0.1-0.3,0.3-0.6,0.4-0.9s0.3-0.6,0.5-0.9
			c0.1,0.7,0.2,1.8,0.4,3s0.3,2.5,0.4,3.5C194.6,25.2,194.7,26.1,194.7,26.8z"/>
		<path d="M205.7,31c0,0.3-0.2,0.6-0.5,0.9c-0.6,0.2-1.5,0.6-2.8,1.1c0-0.3,0.1-0.5,0.4-0.8C203.4,32,204.3,31.6,205.7,31z"/>
		<path d="M208.6,29.3h-1.4c-0.5,0-0.9-0.4-1.2-1.2c-0.3-0.6-0.5-1.4-0.6-2.3c-0.2,0.4-0.4,0.6-0.7,0.8s-0.6,0.3-0.9,0.3
			c-0.7,0-1.4-0.1-1.9-0.2s-0.7-0.2-0.7-0.4c0-0.6,0.4-1.2,1.1-1.9s1.6-1.3,2.7-1.8c0-0.1,0-0.2-0.1-0.4s-0.1-0.4-0.1-0.4
			c0-0.2,0.1-0.5,0.2-0.7c0.1-0.2,0.3-0.4,0.5-0.7c0.1,0.4,0.1,0.8,0.2,1.2s0.1,0.8,0.2,1.2l0.3,1.7c0.2,0.9,0.3,1.6,0.4,2.1
			c0.2,0.7,0.4,1,0.6,1h1.4V29.3z M203.9,18.5l-0.7,1.4l-1.6-0.8l0.7-1.4L203.9,18.5z M205.2,24.9l-0.2-1.1c-0.6,0.2-1,0.4-1.3,0.6
			s-0.6,0.5-0.8,0.9c0.1,0.1,0.3,0.1,0.5,0.1s0.4,0,0.8,0C204.4,25.5,204.8,25.3,205.2,24.9z M206.1,17.6l-0.8,1.4l-1.6-0.8l0.7-1.4
			L206.1,17.6z"/>
		<path d="M213.6,17.7c0,0.3-0.2,0.6-0.5,0.9c-0.6,0.2-1.5,0.6-2.8,1.1c0-0.3,0.1-0.6,0.4-0.8C211.2,18.7,212.2,18.3,213.6,17.7z"/>
		<path d="M216.5,29.3h-3.6c0.4,0.2,0.8,0.5,1.1,0.8c0.4,0.4,0.6,0.9,0.6,1.5c0,0.5-0.1,0.9-0.2,1.2c-0.2,0.4-0.5,0.6-0.9,0.6
			c-0.8,0-1.5-0.3-2.1-0.8c-0.8-0.7-1.2-1.5-1.2-2.6l0-0.7h-2.2v-1.7h2.5c0.2-0.6,0.5-1.2,0.8-1.7c0.3-0.7,0.7-1.2,1.1-1.6
			c0.4-0.5,0.8-0.7,1.2-0.7c0.2,0,0.4,0.2,0.5,0.5s0.2,0.7,0.2,1.1c0,0.6-0.1,1-0.4,1.4c-0.2,0.2-0.7,0.5-1.6,1h4.3V29.3z
			 M213.6,31.4c0-0.5-0.4-1-1.1-1.5c-0.6-0.4-1.2-0.6-1.8-0.7c0,0.7,0.2,1.3,0.5,1.8c0.4,0.6,1,0.8,1.9,0.8c0.2,0,0.3,0,0.4-0.1
			S213.6,31.5,213.6,31.4z M213.2,25.9c0-0.6-0.1-0.9-0.4-0.9c-0.3,0-0.6,0.3-1,0.9c-0.2,0.3-0.5,0.8-0.8,1.5
			c0.6-0.2,1.1-0.4,1.5-0.6C213,26.5,213.2,26.2,213.2,25.9z"/>
		<path d="M221.1,34.4c0,0.3-0.2,0.6-0.5,0.9c-0.6,0.2-1.5,0.6-2.8,1.1c0-0.3,0.1-0.5,0.4-0.8C218.8,35.3,219.7,34.9,221.1,34.4z"/>
		<path d="M227.1,29.3h-11.3v-1.7h8c-0.7-0.5-1.2-0.9-1.7-1.2c-0.6-0.4-1.1-0.6-1.6-0.8c-0.5-0.2-1.1-0.3-1.6-0.3
			c-0.3,0-0.7,0-1,0.1c0.2-0.5,0.4-0.9,0.7-1.2c0.4-0.4,1-0.6,1.7-0.6c0.7,0,1.4,0.3,2.4,1c0.4,0.3,1.2,0.9,2.2,1.9
			c0.8,0.7,1.3,1.1,1.6,1.2h0.6V29.3z M222.1,31.4l-0.7,1.4l-1.6-0.8l0.8-1.4L222.1,31.4z"/>
		<path d="M231.2,29.3h-4.8v-1.7h3.8l-1.2-8.3l-0.5-0.2c0-0.4,0-0.9,0.1-1.3c0.1-0.4,0.2-0.8,0.4-1.1l0.1,0.1c0,0.4,0.2,0.7,0.6,0.8
			c0.3,0.1,0.7,0.3,1,0.4c0,0.3,0,0.7-0.1,1s-0.1,0.6-0.2,0.8l-0.5-0.2l1.2,7.7V29.3z"/>
		<path d="M234.5,26.8c0,0.5-0.1,1-0.3,1.5c-0.1,0.3-0.3,0.7-0.6,1.2l-0.2-0.1c0-0.2,0-0.4,0.1-0.7s0-0.4,0-0.5
			c0-0.7-0.1-1.6-0.2-2.8s-0.2-2.5-0.4-3.8c-0.1-0.8-0.2-1.6-0.3-2.5c0.1-0.3,0.3-0.6,0.4-0.9s0.3-0.6,0.5-0.9
			c0.1,0.7,0.2,1.8,0.4,3s0.3,2.5,0.4,3.5C234.4,25.2,234.5,26.1,234.5,26.8z"/>
		<path d="M248.2,17.7c0,0.3-0.2,0.6-0.5,0.9c-0.6,0.2-1.5,0.6-2.8,1.1c0-0.3,0.1-0.6,0.4-0.8C245.8,18.7,246.8,18.3,248.2,17.7z"/>
		<path d="M251.4,29.3c0,1.5-0.4,2.5-1.3,3.2c-0.9,0.7-2.4,1.1-4.4,1.1c-1.3,0-2.3-0.2-3-0.7c-0.8-0.5-1.1-1.3-1.1-2.3
			c0-0.6,0.1-1.1,0.2-1.7s0.3-1.1,0.6-1.7c0.1-0.4,0.4-0.9,0.7-1.6l0.4,0.2c-0.5,0.9-0.8,1.7-0.9,2.2s-0.2,1-0.2,1.5
			c0,0.8,0.3,1.4,0.9,1.8s1.4,0.6,2.5,0.6c1.2,0,2.3-0.2,3.3-0.7c1.2-0.5,1.8-1.3,1.8-2.3c0-0.7-0.1-1.3-0.3-1.9
			c-0.2-0.5-0.4-1-0.7-1.3l0.8-2c0.3,0.5,0.6,1.1,0.7,1.6s0.2,1.3,0.2,2.2V29.3z M247.8,21.8l-0.7,1.4l-1.5-0.8l0.7-1.4L247.8,21.8z
			"/>
		<path d="M257.1,31c0,0.3-0.2,0.6-0.5,0.9c-0.6,0.2-1.5,0.6-2.8,1.1c0-0.3,0.1-0.5,0.4-0.8C254.7,32,255.7,31.6,257.1,31z"/>
		<path d="M259.3,29.3h-1c-0.4,0-0.9-0.1-1.5-0.3c-0.6-0.2-1.2-0.5-1.7-0.9c-0.4,0.5-0.8,0.8-1.2,1s-1,0.3-1.7,0.3h-1.5v-1.7h1.5
			c0.6,0,1.1-0.1,1.6-0.4c0.4-0.2,0.7-0.6,1-1c0.4-0.6,0.9-1.1,1.5-1.5c0.5-0.4,1-0.6,1.4-0.7c0.4,0.7,0.8,1.3,1.1,1.8
			c0.4,0.7,0.5,1.3,0.5,1.8V29.3z M258.2,27.4c-0.1-0.4-0.2-0.7-0.4-1.1c-0.1-0.3-0.3-0.6-0.6-0.9c-0.3,0.1-0.6,0.2-0.8,0.4
			c-0.1,0.1-0.3,0.4-0.5,0.7c0.2,0.3,0.6,0.5,1,0.7s0.8,0.3,1.2,0.4L258.2,27.4z"/>
		<path d="M268.2,26.8c0,0.5-0.1,1-0.3,1.5c-0.1,0.3-0.3,0.7-0.6,1.2l-0.2-0.1c0-0.2,0-0.4,0.1-0.7s0-0.4,0-0.5
			c0-0.7-0.1-1.6-0.2-2.8s-0.2-2.5-0.4-3.8c-0.1-0.8-0.2-1.6-0.3-2.5c0.1-0.3,0.3-0.6,0.4-0.9s0.3-0.6,0.5-0.9
			c0.1,0.7,0.2,1.8,0.4,3s0.3,2.5,0.4,3.5C268.1,25.2,268.2,26.1,268.2,26.8z"/>
		<path d="M277.6,28.7c0,1.1-0.4,2.1-1.2,3.2c-0.9,1.2-1.9,1.8-3.1,1.8c-0.4,0-0.9,0-1.3-0.1c-0.3-0.1-0.8-0.2-1.3-0.4
			c-0.4-0.1-0.8-0.3-1.3-0.4l0.2-0.3c0.4,0.1,0.7,0.2,1.1,0.3s0.8,0.1,1.1,0.1c0.8,0,1.5-0.2,2.3-0.6c0.6-0.3,1.1-0.8,1.7-1.4
			c0.3-0.3,0.7-0.8,1.2-1.5c-0.9,0-1.5-0.1-2-0.4c-0.5-0.3-0.7-0.8-0.7-1.6c0-0.7,0.2-1.3,0.5-1.9c0.4-0.7,0.8-1,1.4-1
			c0.6,0,1,0.3,1.2,1c0.2,0.5,0.3,1.2,0.3,2.1V28.7z M277,27.6c-0.1-0.6-0.3-1.1-0.5-1.3c-0.2-0.2-0.4-0.3-0.6-0.3
			c-0.2,0-0.3,0.1-0.5,0.2s-0.2,0.3-0.2,0.5c0,0.3,0.1,0.6,0.4,0.7S276.4,27.6,277,27.6z"/>
		<path d="M283.2,18.4c0,0.1,0,0.2,0,0.3s0,0.2-0.1,0.4l-0.8-0.5c-0.3,0.4-0.5,0.6-0.7,0.7c-0.5,0.5-0.9,0.7-1.2,0.7h-0.7
			c0.3-0.2,0.7-0.4,1.2-0.8c0.4-0.3,0.7-0.6,0.9-0.9c-0.2-0.1-0.4-0.3-0.5-0.4c-0.1-0.2-0.2-0.4-0.2-0.6c0-0.4,0.1-0.8,0.4-1.1
			c0.3-0.3,0.5-0.5,0.8-0.5c0.2,0,0.3,0.1,0.5,0.3c0.1,0.2,0.2,0.4,0.2,0.7c0,0.1,0,0.3-0.1,0.4s-0.1,0.4-0.2,0.7
			c0.1,0.1,0.2,0.2,0.3,0.3C283.2,18.2,283.2,18.3,283.2,18.4z M282.5,17.3c0-0.2-0.1-0.3-0.2-0.5s-0.2-0.2-0.4-0.2
			c-0.1,0-0.1,0-0.2,0.1s-0.1,0.1-0.1,0.1c0,0.1,0.1,0.3,0.2,0.4l0.4,0.3C282.5,17.4,282.5,17.4,282.5,17.3z"/>
		<path d="M285.5,29.3h-1.4c-0.4,0-0.9-0.1-1.3-0.3c-0.5-0.2-0.9-0.6-1.1-1c-0.4,0.4-0.9,0.7-1.5,0.9c-0.7,0.3-1.5,0.4-2.3,0.4h-0.9
			v-1.7h0.9c0.5,0,1.1-0.1,1.5-0.2c0.5-0.1,1.1-0.4,1.6-0.7l-0.4-0.5c-0.2-0.2-0.4-0.4-0.7-0.4c-0.1,0-0.2,0-0.3,0.1
			s-0.2,0.1-0.3,0.3H279v-0.6c0-0.7,0.2-1.2,0.6-1.5c0.3-0.2,0.9-0.4,1.8-0.4c0.7,0,1.3,0.1,1.8,0.3c0.6,0.3,0.9,0.6,0.9,1.2
			c0,0.3-0.1,0.6-0.4,0.9c-0.2,0.2-0.5,0.5-1,0.9c0.1,0.2,0.3,0.3,0.6,0.4s0.5,0.2,0.7,0.2h1.4V29.3z"/>
		<path d="M290.1,14.8c0,0.3-0.2,0.6-0.5,0.9c-0.6,0.2-1.5,0.6-2.8,1.1c0-0.3,0.1-0.6,0.4-0.8C287.7,15.7,288.7,15.3,290.1,14.8z"/>
		<path d="M290.9,29.3h-6v-1.7h5.2c0-0.6-0.1-1.1-0.2-1.6c-0.3,0.1-0.6,0.2-0.8,0.2c-0.3,0.1-0.6,0.1-0.8,0.1
			c-0.5,0-0.9-0.1-1.2-0.4c-0.3-0.3-0.5-0.7-0.5-1.2c0-0.9,0.2-1.7,0.5-2.4c0.4-0.8,0.8-1.1,1.4-1.1c0.8,0,1.4,0.6,1.8,1.9
			c0.4,1,0.5,2.2,0.5,3.6V29.3z M289.6,18.5l-0.8,1.4l-1.6-0.8l0.7-1.4L289.6,18.5z M289.3,24.2c-0.1-0.2-0.2-0.5-0.4-0.7
			c-0.3-0.3-0.5-0.5-0.8-0.5c-0.2,0-0.3,0.1-0.4,0.2s-0.2,0.3-0.2,0.5c0,0.5,0.3,0.8,0.9,0.8c0.1,0,0.3,0,0.5-0.1
			S289.1,24.3,289.3,24.2z"/>
		<path d="M296.6,17.3c0,0.4-0.1,0.8-0.4,1.1s-0.7,0.5-1.1,0.5c-0.4,0-0.6-0.1-0.8-0.3s-0.3-0.5-0.3-0.8c0-0.5,0.1-0.9,0.4-1.3
			s0.6-0.6,1-0.6c0.4,0,0.6,0.1,0.9,0.4C296.5,16.6,296.6,16.9,296.6,17.3z M296.1,17.6c0-0.2-0.1-0.4-0.4-0.6s-0.5-0.3-0.6-0.3
			c-0.2,0-0.3,0.1-0.4,0.2s-0.2,0.3-0.2,0.5c0,0.2,0.1,0.4,0.3,0.5c0.2,0.1,0.4,0.1,0.7,0.1c0.2,0,0.3,0,0.4-0.1
			S296.1,17.7,296.1,17.6z"/>
		<path d="M297.6,29.3h-4.4c-0.4,0-0.7-0.1-1-0.3s-0.4-0.5-0.4-0.8c0-0.2,0-0.5,0-0.7s0.1-0.4,0.1-0.7h0.2c0.1,0.3,0.2,0.5,0.4,0.6
			c0.2,0.1,0.4,0.1,0.6,0.1h3.8c0-1.2-0.2-2.1-0.5-2.8c-0.4-0.9-1.1-1.5-2-1.8l0.1-1.9c1.1,0.6,1.9,1.4,2.4,2.6
			c0.4,1,0.6,2.3,0.6,3.8V29.3z"/>
		<path d="M300.9,26.8c0,0.5-0.1,1-0.3,1.5c-0.1,0.3-0.3,0.7-0.6,1.2l-0.2-0.1c0-0.2,0-0.4,0.1-0.7s0-0.4,0-0.5
			c0-0.7-0.1-1.6-0.2-2.8s-0.2-2.5-0.4-3.8c-0.1-0.8-0.2-1.6-0.3-2.5c0.1-0.3,0.3-0.6,0.4-0.9s0.3-0.6,0.5-0.9
			c0.1,0.7,0.2,1.8,0.4,3s0.3,2.5,0.4,3.5C300.9,25.2,300.9,26.1,300.9,26.8z"/>
	</g>
	<rect class="st1" width="407.8" height="49.5"/>
</g>
</svg>
