<?xml version="1.0" encoding="utf-8"?>
<!-- Generator: Adobe Illustrator 19.2.0, SVG Export Plug-In . SVG Version: 6.00 Build 0)  -->
<svg version="1.1" id="Layer_1" xmlns="http://www.w3.org/2000/svg" xmlns:xlink="http://www.w3.org/1999/xlink" x="0px" y="0px"
	 viewBox="0 0 407.8 49.8" style="enable-background:new 0 0 407.8 49.8;" xml:space="preserve">
<style type="text/css">
	.st0{fill:#BA0017;}
	.st1{fill:none;}
</style>
<g>
	<g>
		<g>
			<g>
				<g>
					<path d="M98.2,32.9v-2h2v2H98.2z"/>
					<path d="M105.1,14.2c0,0.3-0.2,0.6-0.5,0.9c-0.6,0.2-1.5,0.6-2.8,1.1c0-0.3,0.1-0.5,0.4-0.8C102.7,15.1,103.7,14.7,105.1,14.2z
						 M105.1,15.6c0,0.3,0,0.5-0.1,0.6c-0.1,0.1-0.2,0.2-0.4,0.3c-0.6,0.2-1.5,0.6-2.9,1.1c0-0.3,0.1-0.5,0.4-0.8
						C102.7,16.6,103.7,16.2,105.1,15.6z"/>
					<path d="M106.6,30.1h-1.4c-0.4,0-0.8-0.2-1.1-0.5c-0.2-0.3-0.4-0.8-0.5-1.4c-0.1-0.6-0.2-1.4-0.3-2.3c0-0.7-0.1-1.5-0.1-2.3
						c0-0.8-0.1-1.4-0.2-1.8s-0.2-0.7-0.3-1c-0.1-0.3-0.3-0.6-0.6-0.8l1.2-1.9c0.3,0.8,0.4,1.7,0.5,2.8c0.1,0.7,0.1,2.3,0.2,4.8
						c0.1,1.2,0.3,1.9,0.5,2.2c0.2,0.3,0.4,0.4,0.6,0.4h1.4V30.1z"/>
					<path d="M111.4,30.1h-5.6v-1.7h4.9c0-0.8-0.1-1.4-0.3-1.8c-0.1-0.3-0.4-0.7-0.9-1.2l0.8-1.6c0.5,0.6,0.8,1.1,0.9,1.4
						c0.2,0.5,0.3,1.3,0.3,2.5V30.1z M110.5,32.4l-0.8,1.4l-1.6-0.8l0.7-1.4L110.5,32.4z"/>
					<path d="M115.6,30.1h-4.8v-1.7h3.8l-1.2-8.3l-0.5-0.2c0-0.4,0-0.9,0.1-1.3c0.1-0.4,0.2-0.8,0.4-1.1l0.1,0.1
						c0,0.4,0.2,0.7,0.6,0.8c0.3,0.1,0.7,0.3,1,0.4c0,0.3,0,0.7-0.1,1s-0.1,0.6-0.2,0.8l-0.5-0.2l1.2,7.7V30.1z"/>
					<path d="M120.2,30.1h-1.4c-0.4,0-0.8-0.2-1.1-0.5c-0.2-0.3-0.4-0.8-0.5-1.4c-0.1-0.6-0.2-1.4-0.3-2.3c0-0.7-0.1-1.5-0.1-2.3
						c0-0.8-0.1-1.4-0.2-1.8s-0.2-0.7-0.3-1c-0.1-0.3-0.3-0.6-0.6-0.8l1.2-1.9c0.3,0.8,0.4,1.7,0.5,2.8c0.1,0.7,0.1,2.3,0.2,4.8
						c0.1,1.2,0.3,1.9,0.5,2.2c0.2,0.3,0.4,0.4,0.6,0.4h1.4V30.1z"/>
					<path d="M131.8,30.1h-12.3v-1.7l1.5,0c0.4,0,0.9-0.1,1.2-0.2c0.4-0.1,0.9-0.4,1.5-0.7c0.1-0.3,0.2-0.6,0.3-0.9
						c0.1-0.3,0.1-0.6,0.1-1c0-0.7-0.1-1.5-0.2-2.3c-0.1-0.6-0.2-1.3-0.4-2.2c-0.1-0.4-0.2-1-0.4-1.6l-0.6-0.3
						c0-0.4,0.1-0.8,0.2-1.1c0.1-0.4,0.2-0.7,0.4-1.1c0.1,0.3,0.3,0.5,0.7,0.7c0.3,0.1,0.7,0.2,1.2,0.3c-0.1,0.7-0.1,1.1-0.1,1.3
						c0,0.2-0.1,0.4-0.2,0.7c0,0-0.2,0-0.4-0.1l-0.1,0c0.2,0.8,0.4,1.5,0.6,2.3c0.1,0.8,0.2,1.5,0.2,2c0,0.5,0,1-0.1,1.5
						c0,0.2-0.1,0.5-0.2,0.9c1.1-0.7,1.9-1.1,2.2-1.2c1-0.5,1.8-0.7,2.5-0.7c0.9,0,1.5,0.3,2,0.8c0.4,0.5,0.6,1.1,0.6,2V30.1z
						 M130.3,27.6c0-0.3-0.2-0.6-0.5-0.8c-0.3-0.2-0.8-0.3-1.5-0.3c-0.5,0-1,0.1-1.6,0.3c-0.5,0.2-1,0.4-1.6,0.7
						c-0.4,0.2-0.9,0.5-1.3,0.8h4.2C129.5,28.4,130.3,28.1,130.3,27.6z"/>
					<path class="st0" d="M143.9,18.5c0,0.3-0.2,0.6-0.5,0.9c-0.6,0.2-1.5,0.6-2.8,1.1c0-0.3,0.1-0.6,0.4-0.8
						C141.5,19.4,142.5,19,143.9,18.5z"/>
					<path class="st0" d="M147.1,30.1c0,0.7-0.3,1.5-0.9,2.2c-0.5,0.7-1.2,1.3-2,1.7c-0.8,0.5-1.4,0.7-1.9,0.7
						c-0.4,0-0.9-0.1-1.5-0.2c-0.4-0.1-0.9-0.3-1.4-0.5c-0.5-0.2-0.9-0.4-1.4-0.5l0.2-0.4c0.4,0.1,0.9,0.2,1.3,0.3s0.9,0.1,1.3,0.1
						c0.8,0,1.7-0.3,2.6-0.8c0.8-0.5,1.5-1.1,2.1-1.8c0.6-0.7,0.9-1.4,0.9-2c0-0.5-0.1-1.1-0.4-1.6c-0.2-0.5-0.6-0.9-1-1.4l0.6-1.5
						c0.5,0.5,0.9,1,1.2,1.5c0.3,0.6,0.4,1.2,0.4,1.9V30.1z"/>
					<path class="st0" d="M157.8,30.1H157c-0.4,0-0.8-0.1-1.1-0.2c-0.3-0.1-0.6-0.3-0.8-0.5c-0.3,0.2-0.6,0.4-0.8,0.5
						c-0.3,0.1-0.8,0.2-1.4,0.2h-0.6c-0.3,0-0.7-0.1-1-0.2c-0.2-0.1-0.5-0.2-0.8-0.4c-0.3,0.2-0.6,0.4-0.9,0.5s-0.7,0.1-1.3,0.1
						h-1.9v-1.7h1.9c0.5,0,0.9,0,1.1-0.1c0.4-0.1,0.6-0.4,0.6-0.9c0-0.2,0-0.4,0-0.6c0-0.2-0.1-0.4-0.1-0.6l0.4-0.6
						c0.2,0.6,0.3,1,0.4,1.3c0.2,0.5,0.4,0.8,0.7,1.1c0.3,0.3,0.7,0.4,1.1,0.4h0.7c0.5,0,0.8-0.1,1.1-0.2c0.3-0.2,0.4-0.4,0.4-0.8
						c0-0.2,0-0.4,0-0.6c0-0.2-0.1-0.4-0.1-0.6l0.4-0.6l0.2,0.9c0.2,0.7,0.4,1.2,0.6,1.5c0.2,0.2,0.5,0.4,0.9,0.4
						c0.2,0,0.3-0.1,0.4-0.2s0.2-0.2,0.2-0.4c0-0.4-0.1-0.7-0.4-1.2c0-0.1-0.2-0.3-0.5-0.6l0.6-1.1c0.3,0.4,0.4,0.8,0.5,1
						c0.1,0.4,0.2,1,0.2,1.8V30.1z M154.6,22.1l-0.7,1.4l-1.6-0.8l0.7-1.4L154.6,22.1z M155,19.4l-0.8,1.4l-1.6-0.8l0.7-1.4
						L155,19.4z M156.9,21.2l-0.8,1.4l-1.6-0.8l0.7-1.4L156.9,21.2z"/>
					<path class="st0" d="M167.2,27l-0.7,1.8c-1,0.4-2.1,0.7-3.4,0.9c-1.3,0.2-2.5,0.4-3.6,0.4h-2.4v-1.7h2.3
						c-0.2-0.3-0.3-0.7-0.5-1c-0.1-0.4-0.2-0.8-0.2-1.1c0-0.8,0.3-1.4,1-1.9c0.6-0.5,1.5-0.8,2.5-0.8c0.8,0,1.5,0.2,2,0.6
						c0.2,0.2,0.6,0.6,1.1,1.2l-0.2,0.2c-0.4-0.1-0.9-0.2-1.2-0.3c-0.4-0.1-0.7-0.1-1.1-0.1c-0.9,0-1.6,0.1-2.1,0.3
						c-0.5,0.2-0.8,0.5-0.8,0.8c0,0.3,0.2,0.7,0.5,1.1c0.3,0.4,0.7,0.7,1.2,1c1.1-0.2,1.9-0.3,2.6-0.5C165,27.6,165.9,27.4,167.2,27
						z"/>
					<path class="st0" d="M179.4,14.6c0,0.3-0.2,0.6-0.5,0.9c-0.6,0.2-1.5,0.6-2.8,1.1c0-0.3,0.1-0.6,0.4-0.8
						C177,15.5,178,15.1,179.4,14.6z"/>
					<path class="st0" d="M181.3,30.1h-1.4c-0.5,0-0.9-0.4-1.2-1.2c-0.3-0.6-0.5-1.4-0.6-2.3c-0.2,0.4-0.4,0.6-0.7,0.8
						c-0.3,0.2-0.6,0.3-0.9,0.3c-0.7,0-1.4-0.1-1.9-0.2c-0.5-0.1-0.7-0.2-0.7-0.4c0-0.6,0.4-1.2,1.1-1.9c0.7-0.7,1.6-1.3,2.7-1.8
						c0-0.1,0-0.2-0.1-0.4c0-0.2-0.1-0.4-0.1-0.4c0-0.2,0.1-0.5,0.2-0.7c0.1-0.2,0.3-0.4,0.5-0.7c0.1,0.4,0.1,0.8,0.2,1.2
						c0.1,0.4,0.1,0.8,0.2,1.2l0.3,1.7c0.2,0.9,0.3,1.6,0.4,2.1c0.2,0.7,0.4,1,0.6,1h1.4V30.1z M176.6,19.3l-0.7,1.4l-1.6-0.8
						l0.7-1.4L176.6,19.3z M177.9,25.7l-0.2-1.1c-0.6,0.2-1,0.4-1.3,0.6c-0.3,0.2-0.6,0.5-0.8,0.9c0.1,0.1,0.3,0.1,0.5,0.1
						c0.2,0,0.4,0,0.8,0C177.2,26.3,177.6,26.1,177.9,25.7z M178.9,18.4l-0.8,1.4l-1.6-0.8l0.7-1.4L178.9,18.4z"/>
					<path class="st0" d="M191.9,30.1h-0.8c-0.4,0-0.8-0.1-1.1-0.2c-0.3-0.1-0.6-0.3-0.8-0.5c-0.3,0.2-0.6,0.4-0.8,0.5
						c-0.3,0.1-0.8,0.2-1.4,0.2h-0.6c-0.3,0-0.7-0.1-1-0.2c-0.2-0.1-0.5-0.2-0.8-0.4c-0.3,0.2-0.6,0.4-0.9,0.5s-0.7,0.1-1.3,0.1
						h-1.9v-1.7h1.9c0.5,0,0.9,0,1.1-0.1c0.4-0.1,0.6-0.4,0.6-0.9c0-0.2,0-0.4,0-0.6c0-0.2-0.1-0.4-0.1-0.6l0.4-0.6
						c0.2,0.6,0.3,1,0.4,1.3c0.2,0.5,0.4,0.8,0.7,1.1c0.3,0.3,0.7,0.4,1.1,0.4h0.7c0.5,0,0.8-0.1,1.1-0.2c0.3-0.2,0.4-0.4,0.4-0.8
						c0-0.2,0-0.4,0-0.6c0-0.2-0.1-0.4-0.1-0.6l0.4-0.6l0.2,0.9c0.2,0.7,0.4,1.2,0.6,1.5c0.2,0.2,0.5,0.4,0.9,0.4
						c0.2,0,0.3-0.1,0.4-0.2s0.2-0.2,0.2-0.4c0-0.4-0.1-0.7-0.4-1.2c0-0.1-0.2-0.3-0.5-0.6l0.6-1.1c0.3,0.4,0.4,0.8,0.5,1
						c0.1,0.4,0.2,1,0.2,1.8V30.1z"/>
					<path class="st0" d="M199.8,30.1h-1c-0.4,0-0.9-0.1-1.5-0.3c-0.6-0.2-1.2-0.5-1.7-0.9c-0.4,0.5-0.8,0.8-1.2,1
						c-0.4,0.2-1,0.3-1.7,0.3h-1.5v-1.7h1.5c0.6,0,1.1-0.1,1.6-0.4c0.4-0.2,0.7-0.6,1-1c0.4-0.6,0.9-1.1,1.5-1.5
						c0.5-0.4,1-0.6,1.4-0.7c0.4,0.7,0.8,1.3,1.1,1.8c0.4,0.7,0.5,1.3,0.5,1.8V30.1z M198.7,28.1c-0.1-0.4-0.2-0.7-0.4-1.1
						c-0.1-0.3-0.3-0.6-0.6-0.9c-0.3,0.1-0.6,0.2-0.8,0.4c-0.1,0.1-0.3,0.4-0.5,0.7c0.2,0.3,0.6,0.5,1,0.7c0.4,0.2,0.8,0.3,1.2,0.4
						L198.7,28.1z"/>
					<path class="st0" d="M210.4,30.1h-11.3v-1.7h8c-0.7-0.5-1.2-0.9-1.7-1.2c-0.6-0.4-1.1-0.6-1.6-0.8c-0.5-0.2-1.1-0.3-1.6-0.3
						c-0.3,0-0.7,0-1,0.1c0.2-0.5,0.4-0.9,0.7-1.2c0.4-0.4,1-0.6,1.7-0.6c0.7,0,1.4,0.3,2.4,1c0.4,0.3,1.2,0.9,2.2,1.9
						c0.8,0.7,1.3,1.1,1.6,1.2h0.6V30.1z M205.7,21l-0.7,1.4l-1.6-0.8l0.7-1.4L205.7,21z"/>
					<path d="M226.5,30.1c0,1.5-0.4,2.5-1.3,3.2c-0.9,0.7-2.4,1.1-4.4,1.1c-1.3,0-2.3-0.2-3-0.7c-0.8-0.5-1.1-1.3-1.1-2.3
						c0-0.6,0.1-1.1,0.2-1.7c0.1-0.6,0.3-1.1,0.6-1.7c0.1-0.4,0.4-0.9,0.7-1.6l0.4,0.2c-0.5,0.9-0.8,1.7-0.9,2.2
						c-0.1,0.5-0.2,1-0.2,1.5c0,0.8,0.3,1.4,0.9,1.8s1.4,0.6,2.5,0.6c1.2,0,2.3-0.2,3.3-0.7c1.2-0.5,1.8-1.3,1.8-2.3
						c0-0.7-0.1-1.3-0.3-1.9c-0.2-0.5-0.4-0.9-0.7-1.3l0.8-2c0.3,0.5,0.6,1.1,0.7,1.6s0.2,1.3,0.2,2.2V30.1z M222.9,22.6l-0.7,1.4
						l-1.5-0.8l0.7-1.4L222.9,22.6z"/>
					<path d="M234.4,30.1h-1c-0.4,0-0.9-0.1-1.5-0.3c-0.6-0.2-1.2-0.5-1.7-0.9c-0.4,0.5-0.8,0.8-1.2,1c-0.4,0.2-1,0.3-1.7,0.3h-1.5
						v-1.7h1.5c0.6,0,1.1-0.1,1.6-0.4c0.4-0.2,0.7-0.6,1-1c0.4-0.6,0.9-1.1,1.5-1.5c0.5-0.4,1-0.6,1.4-0.7c0.4,0.7,0.8,1.3,1.1,1.8
						c0.4,0.7,0.5,1.3,0.5,1.8V30.1z M233.3,28.1c-0.1-0.4-0.2-0.7-0.4-1.1c-0.1-0.3-0.3-0.6-0.6-0.9c-0.3,0.1-0.6,0.2-0.8,0.4
						c-0.1,0.1-0.3,0.4-0.5,0.7c0.2,0.3,0.6,0.5,1,0.7c0.4,0.2,0.8,0.3,1.2,0.4L233.3,28.1z"/>
					<path d="M245.6,13.3c0,0.2,0,0.5-0.1,0.7c-0.1,0.2-0.2,0.4-0.3,0.6c0.1,0.1,0.2,0.1,0.2,0.2c0.1,0.1,0.1,0.2,0.1,0.2
						c0,0.3,0,0.6-0.1,0.9l-0.8-0.7c-0.3,0.4-0.6,0.6-1,0.8c-0.5,0.2-1,0.4-1.5,0.4c0.3-0.4,0.4-0.7,0.4-0.7
						c0.1-0.2,0.1-0.3,0.1-0.5s0-0.3-0.1-0.4c-0.1-0.1-0.2-0.2-0.3-0.2c-0.1,0-0.3,0.1-0.4,0.2c0,0.1-0.1,0.2-0.3,0.4
						c0-0.5,0.1-0.8,0.2-1c0.1-0.4,0.3-0.5,0.6-0.5c0.2,0,0.4,0.1,0.5,0.3s0.2,0.5,0.2,0.7c0,0.1,0,0.3,0,0.4c0,0.2-0.1,0.3-0.1,0.4
						c0.4-0.1,0.9-0.3,1.3-0.7c-0.1-0.1-0.2-0.2-0.3-0.3c-0.2-0.2-0.3-0.4-0.3-0.6c0-0.3,0.1-0.6,0.4-0.9c0.3-0.3,0.6-0.5,0.9-0.5
						c0.2,0,0.3,0.1,0.4,0.2C245.5,13,245.6,13.1,245.6,13.3z M244.9,13.9c0-0.1,0-0.3-0.1-0.4c-0.1-0.1-0.2-0.2-0.3-0.2
						c-0.1,0-0.2,0.1-0.2,0.3c0,0.1,0.1,0.2,0.2,0.4c0,0,0.1,0.1,0.3,0.3C244.9,14.1,244.9,14,244.9,13.9z"/>
					<path d="M247.4,30.1H246c-0.5,0-0.9-0.4-1.2-1.2c-0.3-0.6-0.5-1.4-0.6-2.3c-0.2,0.4-0.4,0.6-0.7,0.8c-0.3,0.2-0.6,0.3-0.9,0.3
						c-0.7,0-1.4-0.1-1.9-0.2c-0.5-0.1-0.7-0.2-0.7-0.4c0-0.6,0.4-1.2,1.1-1.9c0.7-0.7,1.6-1.3,2.7-1.8c0-0.1,0-0.2-0.1-0.4
						c0-0.2-0.1-0.4-0.1-0.4c0-0.2,0.1-0.5,0.2-0.7c0.1-0.2,0.3-0.4,0.5-0.7c0.1,0.4,0.1,0.8,0.2,1.2c0.1,0.4,0.1,0.8,0.2,1.2
						l0.3,1.7c0.2,0.9,0.3,1.6,0.4,2.1c0.2,0.7,0.4,1,0.6,1h1.4V30.1z M242.7,19.3l-0.7,1.4l-1.6-0.8l0.7-1.4L242.7,19.3z M244,25.7
						l-0.2-1.1c-0.6,0.2-1,0.4-1.3,0.6c-0.3,0.2-0.6,0.5-0.8,0.9c0.1,0.1,0.3,0.1,0.5,0.1c0.2,0,0.4,0,0.8,0
						C243.3,26.3,243.7,26.1,244,25.7z M245,18.4l-0.8,1.4l-1.6-0.8l0.7-1.4L245,18.4z"/>
					<path d="M252.3,30.1h-5.6v-1.7h4.9c0-0.8-0.1-1.4-0.3-1.8c-0.1-0.3-0.4-0.7-0.9-1.2l0.8-1.6c0.5,0.6,0.8,1.1,0.9,1.4
						c0.2,0.5,0.3,1.3,0.3,2.5V30.1z M251.5,21l-0.7,1.4l-1.6-0.8l0.7-1.4L251.5,21z"/>
					<path d="M262.9,30.1h-11.3v-1.7h8c-0.7-0.5-1.2-0.9-1.7-1.2c-0.6-0.4-1.1-0.6-1.6-0.8c-0.5-0.2-1.1-0.3-1.6-0.3
						c-0.3,0-0.7,0-1,0.1c0.2-0.5,0.4-0.9,0.7-1.2c0.4-0.4,1-0.6,1.7-0.6c0.7,0,1.4,0.3,2.4,1c0.4,0.3,1.2,0.9,2.2,1.9
						c0.8,0.7,1.3,1.1,1.6,1.2h0.6V30.1z M257.9,32.2l-0.7,1.4l-1.6-0.8l0.8-1.4L257.9,32.2z"/>
					<path d="M267.1,30.1h-4.8v-1.7h3.8l-1.2-8.3l-0.5-0.2c0-0.4,0-0.9,0.1-1.3c0.1-0.4,0.2-0.8,0.4-1.1l0.1,0.1
						c0,0.4,0.2,0.7,0.6,0.8c0.3,0.1,0.7,0.3,1,0.4c0,0.3,0,0.7-0.1,1s-0.1,0.6-0.2,0.8l-0.5-0.2l1.2,7.7V30.1z"/>
					<path d="M286.9,30.1h-9.3c-1.3,0-2.2-0.2-3-0.7c-0.9-0.5-1.4-1.4-1.4-2.6c0-0.6,0.1-1.2,0.4-1.9c0.1-0.2,0.3-0.7,0.7-1.3
						l0.3,0.2c-0.1,0.3-0.3,0.6-0.4,0.9c-0.2,0.5-0.3,0.9-0.3,1.2c0,0.8,0.4,1.4,1.2,1.8c0.7,0.4,1.6,0.6,2.7,0.6h8.3v-0.3
						c0-0.7-0.1-1.3-0.3-1.8s-0.5-0.9-0.9-1.2l0.8-1.6c0.3,0.4,0.5,0.6,0.5,0.7c0.4,0.7,0.7,1.8,0.7,3.2V30.1z M280,22.1l-0.7,1.4
						l-1.6-0.8l0.7-1.4L280,22.1z M282.3,21.2l-0.8,1.4l-1.6-0.8l0.7-1.4L282.3,21.2z"/>
					<path d="M291,30.1h-4.8v-1.7h3.8l-1.2-8.3l-0.5-0.2c0-0.4,0-0.9,0.1-1.3c0.1-0.4,0.2-0.8,0.4-1.1l0.1,0.1
						c0,0.4,0.2,0.7,0.6,0.8c0.3,0.1,0.7,0.3,1,0.4c0,0.3,0,0.7-0.1,1s-0.1,0.6-0.2,0.8l-0.5-0.2l1.2,7.7V30.1z"/>
					<path d="M296.5,13.7c0,0.5-0.1,0.9-0.3,1.2c-0.2,0.3-0.4,0.5-0.8,0.5c-0.1,0-0.2,0-0.3-0.1s-0.2-0.1-0.3-0.2
						c-0.1,0.2-0.3,0.4-0.4,0.5c-0.2,0.2-0.4,0.3-0.7,0.3c-0.3,0-0.5-0.1-0.6-0.3c-0.1-0.2-0.2-0.4-0.2-0.8c0-0.2,0-0.3,0.1-0.5
						c0-0.1,0.1-0.3,0.2-0.5l0.2-0.1c0,0.1,0,0.1,0,0.3s0,0.2,0,0.3c0,0.1,0,0.3,0.1,0.4s0.1,0.2,0.3,0.2c0.3,0,0.5-0.2,0.7-0.5
						c0.1-0.2,0.2-0.5,0.3-1l0.2-0.1c0.1,0.3,0.1,0.5,0.1,0.6c0.1,0.2,0.2,0.3,0.4,0.3c0.2,0,0.4-0.2,0.6-0.5
						c0.1-0.3,0.2-0.5,0.2-0.8l0.2-0.1c0,0.1,0.1,0.3,0.1,0.4C296.4,13.4,296.5,13.6,296.5,13.7z M296.3,15.8c0,0.3-0.2,0.6-0.5,0.9
						c-0.6,0.2-1.5,0.6-2.8,1.1c0-0.3,0.1-0.5,0.4-0.8C293.9,16.8,294.9,16.4,296.3,15.8z"/>
					<path d="M298.9,30.1h-8.6v-1.7h7.4c-0.5-0.7-1-1.3-1.6-1.8c-0.6-0.5-1.4-1.1-2.4-1.7l-0.3,0.3l-1.2-0.9
						c-0.4-0.3-0.6-0.6-0.6-0.8c0-1.1,0.3-2,0.8-2.6c0.5-0.6,1.4-1.1,2.6-1.6l2.8-1.1v1.7l-2,0.7c-0.8,0.3-1.5,0.5-2,0.7
						c-0.6,0.3-1,0.5-1,0.6c0,0.2,0.2,0.4,0.6,0.7c0.3,0.2,0.5,0.4,0.8,0.6c1,0.8,1.9,1.5,2.6,2.4c0.8,0.9,1.4,1.8,1.9,2.7V30.1z"/>
					<path d="M303.5,16.2c0,0.1,0,0.2,0,0.3s0,0.2-0.1,0.4l-0.8-0.5c-0.3,0.4-0.5,0.6-0.7,0.7c-0.5,0.5-0.9,0.7-1.2,0.7H300
						c0.3-0.2,0.7-0.4,1.2-0.8c0.4-0.3,0.7-0.6,0.9-0.9c-0.2-0.1-0.4-0.3-0.5-0.4c-0.1-0.2-0.2-0.4-0.2-0.6c0-0.4,0.1-0.8,0.4-1.1
						c0.3-0.3,0.5-0.5,0.8-0.5c0.2,0,0.3,0.1,0.5,0.3c0.1,0.2,0.2,0.4,0.2,0.7c0,0.1,0,0.3-0.1,0.4c0,0.1-0.1,0.4-0.2,0.7
						c0.1,0.1,0.2,0.2,0.3,0.3C303.5,16,303.5,16.1,303.5,16.2z M302.8,15.1c0-0.2-0.1-0.3-0.2-0.5c-0.1-0.1-0.2-0.2-0.4-0.2
						c-0.1,0-0.1,0-0.2,0.1c0,0-0.1,0.1-0.1,0.1c0,0.1,0.1,0.3,0.2,0.4l0.4,0.3C302.8,15.3,302.8,15.2,302.8,15.1z"/>
					<path d="M309.5,30.1h-0.8c-0.4,0-0.8-0.1-1.1-0.2c-0.3-0.1-0.6-0.3-0.8-0.5c-0.3,0.2-0.6,0.4-0.8,0.5c-0.3,0.1-0.8,0.2-1.4,0.2
						h-0.6c-0.3,0-0.7-0.1-1-0.2c-0.2-0.1-0.5-0.2-0.8-0.4c-0.3,0.2-0.6,0.4-0.9,0.5s-0.7,0.1-1.3,0.1h-1.9v-1.7h1.9
						c0.5,0,0.9,0,1.1-0.1c0.4-0.1,0.6-0.4,0.6-0.9c0-0.2,0-0.4,0-0.6c0-0.2-0.1-0.4-0.1-0.6l0.4-0.6c0.2,0.6,0.3,1,0.4,1.3
						c0.2,0.5,0.4,0.8,0.7,1.1c0.3,0.3,0.7,0.4,1.1,0.4h0.7c0.5,0,0.8-0.1,1.1-0.2c0.3-0.2,0.4-0.4,0.4-0.8c0-0.2,0-0.4,0-0.6
						c0-0.2-0.1-0.4-0.1-0.6l0.4-0.6l0.2,0.9c0.2,0.7,0.4,1.2,0.6,1.5c0.2,0.2,0.5,0.4,0.9,0.4c0.2,0,0.3-0.1,0.4-0.2
						s0.2-0.2,0.2-0.4c0-0.4-0.1-0.7-0.4-1.2c0-0.1-0.2-0.3-0.5-0.6l0.6-1.1c0.3,0.4,0.4,0.8,0.5,1c0.1,0.4,0.2,1,0.2,1.8V30.1z
						 M306.4,22.1l-0.7,1.4l-1.6-0.8l0.7-1.4L306.4,22.1z M306.7,19.4l-0.8,1.4l-1.6-0.8l0.7-1.4L306.7,19.4z M308.6,21.2l-0.8,1.4
						l-1.6-0.8l0.7-1.4L308.6,21.2z"/>
				</g>
			</g>
		</g>
	</g>
	<rect class="st1" width="407.8" height="49.8"/>
</g>
</svg>
