<?xml version="1.0" encoding="utf-8"?>
<!-- Generator: Adobe Illustrator 22.0.1, SVG Export Plug-In . SVG Version: 6.00 Build 0)  -->
<svg version="1.1" id="Layer_1" xmlns="http://www.w3.org/2000/svg" xmlns:xlink="http://www.w3.org/1999/xlink" x="0px" y="0px"
	 viewBox="0 0 316.5 60.2" style="enable-background:new 0 0 316.5 60.2;" xml:space="preserve">
<style type="text/css">
	.st0{fill:#542C0B;}
	.st1{fill:none;}
</style>
<g>
	<g>
		<g>
			<path class="st0" d="M93,43.8h-1.9c-1-1.5-1.8-3.1-2.3-4.7S88,35.9,88,34.4c0-1.9,0.3-3.7,1-5.3c0.6-1.5,1.3-2.8,2.1-4H93
				c-0.9,2-1.5,3.7-1.8,5c-0.3,1.4-0.5,2.8-0.5,4.4c0,1.1,0.1,2.2,0.3,3.3c0.2,1.1,0.5,2.2,0.8,3.2C92.1,41.6,92.5,42.5,93,43.8z"/>
			<path class="st0" d="M107.6,36.7h-1.3c-0.2,0-0.4,0-0.6-0.1c-0.4-0.2-0.7-0.5-1-1c-0.4-0.7-0.6-1.6-0.7-2.8
				c-0.4,0.5-0.8,0.9-1,1.2c-0.4,0.3-0.7,0.5-0.9,0.5c-0.1,0-0.3,0-0.5-0.1l-1.2-0.2c-0.5-0.1-0.8-0.2-0.9-0.2s-0.2-0.1-0.2-0.2
				c0-0.2,0.2-0.7,0.7-1.7c0.5-0.9,0.8-1.5,1-1.7s0.5-0.4,0.9-0.7c0.2-0.2,0.6-0.4,1.1-0.7l0.5-0.3c0-0.1,0-0.2,0-0.3
				c0-0.1,0-0.2,0-0.3c0-0.2,0.1-0.6,0.2-0.9c0.1-0.4,0.3-0.8,0.6-1.4l0.9,6.1c0.1,1,0.3,1.6,0.6,1.9c0.2,0.2,0.4,0.3,0.6,0.3h1.3
				L107.6,36.7L107.6,36.7z M105.3,23l-1.1,1.8l-1.4-0.8l-0.8,1.5l-1.8-1l1-1.7l1.4,0.7l0.8-1.5L105.3,23z M103.8,31.2l-0.2-1.2
				c-0.2,0.1-0.4,0.2-0.5,0.2c-0.4,0.2-0.6,0.4-0.9,0.5c-0.2,0.1-0.3,0.3-0.4,0.4s-0.2,0.3-0.2,0.3c0,0.1,0.1,0.2,0.3,0.2
				c0.2,0.1,0.5,0.1,0.7,0.1c0.1,0,0.3,0,0.4-0.1C103.3,31.5,103.5,31.4,103.8,31.2z"/>
			<path class="st0" d="M112.3,36.7h-5.4V34h4.2l-1.2-6.6l-0.6-0.4c0-0.4,0.1-0.8,0.2-1.2c0.1-0.5,0.4-1.1,0.8-1.8l0.4,0.2
				c0,0,0,0.1,0,0.3c0,0.2,0.1,0.4,0.4,0.6c0.2,0.2,0.6,0.4,1.2,0.6c-0.1,0.4-0.1,0.8-0.3,1.2c-0.1,0.4-0.2,0.8-0.4,1.1l-0.4-0.1
				l1.1,6C112.3,33.9,112.3,36.7,112.3,36.7z"/>
			<path class="st0" d="M121.3,36c0,1.1-0.5,2.2-1.4,3.3S118,41,117,41c-0.5,0-1.1-0.2-1.8-0.5c-0.6-0.3-1.6-1-3-2l0.4-0.6
				c0.7,0.5,1.3,0.8,1.7,0.9c0.4,0.1,0.8,0.2,1.3,0.2c0.6,0,1.3-0.2,1.9-0.5c0.7-0.4,1.5-1.1,2.3-2c-0.3,0-0.5,0.1-0.7,0.1
				c-0.6,0-1.2-0.2-1.5-0.6s-0.6-1-0.6-1.7c0-1,0.2-1.9,0.7-2.8c0.5-1,1-1.5,1.7-1.5c0.5,0,1,0.4,1.3,1.1c0.4,0.7,0.5,1.6,0.5,2.6
				L121.3,36L121.3,36z M120.1,34c-0.2-1-0.6-1.6-1.1-1.6c-0.2,0-0.4,0.1-0.5,0.2c-0.1,0.2-0.2,0.3-0.2,0.5s0.1,0.4,0.4,0.6
				c0.3,0.2,0.6,0.2,1,0.2L120.1,34L120.1,34z"/>
			<path class="st0" d="M136.7,36.7h-10.3c-0.5,0-0.8-0.1-1.1-0.3c-0.3-0.2-0.5-0.6-0.7-1.1c-0.4,0.6-0.8,1-1.2,1.2
				c-0.3,0.2-0.8,0.3-1.4,0.3h-1.4V34h1.4c0.8,0,1.3-0.2,1.7-0.6c0.5-0.4,0.7-1.2,0.9-2.3l0.7,0.1c0,0.2,0,0.4,0,0.6
				c0,0.4,0,0.8,0,1c0,0.4,0.1,0.7,0.3,0.9c0.2,0.2,0.5,0.3,0.8,0.3s0.6-0.1,0.9-0.2c0.3-0.1,0.7-0.4,1.3-0.8l3.5-2.5
				c0.4-0.3,0.7-0.5,0.9-0.6c0.5-0.3,0.9-0.4,1.4-0.4c0.7,0,1.3,0.3,1.7,0.8c0.5,0.6,0.8,1.5,0.8,2.7v3.7H136.7z M135.3,33
				c0-0.3-0.2-0.5-0.7-0.7c-0.4-0.2-0.8-0.2-1.3-0.2c-0.4,0-0.9,0.1-1.5,0.4c-0.5,0.3-1.3,0.8-2.3,1.5h2.6
				C134.3,34,135.3,33.7,135.3,33z"/>
			<path class="st0" d="M145.7,36c0,1.1-0.5,2.2-1.4,3.3s-1.9,1.6-2.8,1.6c-0.5,0-1.1-0.2-1.8-0.5c-0.6-0.3-1.6-1-3-2l0.4-0.6
				c0.7,0.5,1.3,0.8,1.7,0.9c0.4,0.1,0.8,0.2,1.3,0.2c0.6,0,1.3-0.2,1.9-0.5c0.7-0.4,1.5-1.1,2.3-2c-0.3,0-0.5,0.1-0.7,0.1
				c-0.6,0-1.2-0.2-1.5-0.6s-0.6-1-0.6-1.7c0-1,0.2-1.9,0.7-2.8c0.5-1,1-1.5,1.7-1.5c0.5,0,1,0.4,1.3,1.1c0.4,0.7,0.5,1.6,0.5,2.6
				L145.7,36L145.7,36z M144.6,34c-0.2-1-0.6-1.6-1.1-1.6c-0.2,0-0.4,0.1-0.5,0.2c-0.1,0.2-0.2,0.3-0.2,0.5s0.1,0.4,0.4,0.6
				c0.3,0.2,0.6,0.2,1,0.2L144.6,34L144.6,34z"/>
			<path class="st0" d="M154,36.7c-0.7,0-1.5-0.1-2.4-0.4c-0.8-0.2-1.5-0.5-2.1-0.8c-0.4,0.6-0.8,0.9-1.4,1.1
				c-0.3,0.1-0.6,0.1-1.1,0.1h-1.9V34h1.9c0.6,0,1.1-0.1,1.4-0.2c0.4-0.2,0.7-0.5,0.9-0.9c0.4-0.8,0.8-1.5,1.4-2
				c0.5-0.5,1-0.7,1.3-0.7s0.7,0.5,1.2,1.5c0.5,1.1,0.8,2,0.8,2.9L154,36.7L154,36.7z M152.2,33.7c0-0.1-0.1-0.4-0.4-0.7
				c-0.3-0.4-0.6-0.6-0.8-0.6c-0.3,0-0.5,0.3-0.6,0.9c0.3,0.1,0.6,0.2,0.8,0.3c0.5,0.2,0.8,0.3,0.9,0.3
				C152.1,33.9,152.2,33.8,152.2,33.7z"/>
			<path class="st0" d="M158.7,36.7h-5.4V34h4.2l-1.2-6.6l-0.6-0.4c0-0.4,0.1-0.8,0.2-1.2c0.1-0.5,0.4-1.1,0.8-1.8l0.4,0.2
				c0,0,0,0.1,0,0.3c0,0.2,0.1,0.4,0.4,0.6c0.2,0.2,0.6,0.4,1.2,0.6c-0.1,0.4-0.1,0.8-0.3,1.2c-0.1,0.4-0.2,0.8-0.4,1.1l-0.4-0.1
				l1.1,6V36.7z"/>
			<path class="st0" d="M162.3,33.9c0,0.6-0.1,1.1-0.2,1.6s-0.4,1.1-0.8,1.9l-0.6-0.2c0.2-0.8,0.2-1.5,0.2-2c0-0.4,0-1-0.1-1.7
				c-0.1-0.8-0.1-1.5-0.2-2.3s-0.3-1.6-0.5-2.7c-0.1-0.4-0.1-0.6-0.1-0.8c0-0.2,0.1-0.5,0.3-1s0.5-1.1,0.8-1.8l0.6,3.5
				c0.2,1.3,0.4,2.5,0.4,3.4C162.3,32.5,162.3,33.2,162.3,33.9z"/>
			<path class="st0" d="M177.1,32.9l-0.8,2.2c-1,0.2-1.8,0.5-2.5,0.8c-0.6,0.3-1.1,0.7-1.7,1.1c-0.3,0.3-0.8,0.8-1.4,1.5l-0.6-0.2
				c0-0.4,0.1-0.9,0.3-1.3c0.2-0.3,0.5-0.8,0.9-1.3c-0.6-0.6-1-1.1-1.2-1.3c-0.2-0.3-0.3-0.6-0.3-0.8c0-0.4,0.3-1,0.8-1.9
				s0.9-1.5,1.3-1.9s0.8-0.5,1.3-0.5s0.9,0.1,1.2,0.3s0.7,0.5,1.1,1.1l-1.3,2.2c-0.3-0.3-0.6-0.6-0.9-0.8c-0.3-0.2-0.5-0.2-0.8-0.2
				c-0.2,0-0.4,0.1-0.5,0.2c-0.2,0.1-0.2,0.2-0.2,0.4s0.1,0.4,0.4,0.6s0.7,0.5,1.4,0.8c0.8-0.4,1.4-0.6,1.8-0.8
				C175.9,33.1,176.4,33,177.1,32.9z"/>
			<path class="st0" d="M182.7,36.7h-1.4c-0.8,0-1.3-0.3-1.7-0.9c-0.4-0.7-0.6-1.9-0.6-3.5v-2.8c0-0.6-0.1-1.1-0.3-1.5
				c-0.1-0.2-0.3-0.4-0.6-0.7l1.1-2.4c0.4,0.5,0.6,1,0.8,1.5c0.2,0.6,0.3,1.3,0.3,2.3v1.9c0,1.4,0.1,2.3,0.3,2.8
				c0.1,0.4,0.4,0.6,0.7,0.6h1.4V36.7z"/>
			<path class="st0" d="M191,36.7c-0.7,0-1.5-0.1-2.4-0.4c-0.8-0.2-1.5-0.5-2.1-0.8c-0.4,0.6-0.8,0.9-1.4,1.1
				c-0.3,0.1-0.6,0.1-1.1,0.1h-2V34h1.9c0.6,0,1.1-0.1,1.4-0.2c0.4-0.2,0.7-0.5,0.9-0.9c0.4-0.8,0.8-1.5,1.4-2
				c0.5-0.5,1-0.7,1.3-0.7s0.7,0.5,1.2,1.5c0.5,1.1,0.8,2,0.8,2.9v2.1H191z M189.2,33.7c0-0.1-0.1-0.4-0.4-0.7
				c-0.3-0.4-0.6-0.6-0.8-0.6c-0.3,0-0.5,0.3-0.6,0.9c0.3,0.1,0.6,0.2,0.8,0.3c0.5,0.2,0.8,0.3,0.9,0.3
				C189.1,33.9,189.2,33.8,189.2,33.7z"/>
			<path class="st0" d="M203.2,36.7c-0.7,0-1.3-0.1-1.8-0.2c-0.5-0.1-1-0.3-1.4-0.5c-0.4,0.3-0.7,0.4-1,0.5s-0.7,0.1-1.3,0.1H196
				c-0.4,0-0.8-0.1-1-0.3c-0.3-0.2-0.5-0.6-0.7-1.1c-0.4,0.5-0.8,0.9-1.2,1.2c-0.4,0.2-0.8,0.3-1.4,0.3h-1.4V34h1.4
				c0.7,0,1.3-0.2,1.7-0.6c0.6-0.5,0.9-1.3,0.9-2.3l0.6,0.1c0,0.2,0,0.4,0,0.7s0,0.6,0,0.9s0.1,0.6,0.3,0.8s0.5,0.3,0.8,0.3h1.2
				c0.8,0,1.4-0.1,1.7-0.3c0.4-0.3,0.6-0.8,0.6-1.5c0-0.2,0-0.3,0.1-0.4s0.2-0.2,0.4-0.3l0.4-0.3c0,0.1,0,0.3,0,0.5s0,0.3,0,0.4
				c0,0.4-0.1,0.8-0.2,1.4c0.2,0.1,0.5,0.2,0.8,0.3s0.6,0.1,0.9,0.2c0-0.2-0.1-0.5-0.2-0.9s-0.2-0.6-0.2-0.7c0-0.2,0-0.3,0.1-0.4
				c0,0,0.1-0.1,0.2-0.3l0.8-1.1c0.2,0.4,0.3,0.8,0.4,1.1c0.1,0.3,0.1,0.8,0.1,1.3L203.2,36.7L203.2,36.7z"/>
			<path class="st0" d="M212.6,26.3c0,0.5,0,0.9-0.1,1.4c0,0.2-0.1,0.5-0.3,1.1l-0.7-0.3c0,0.8-0.1,1.5-0.3,2.3s-0.5,1.5-0.9,2.3
				c0.4,0.6,0.6,1,0.6,1.1c0.2,0.3,0.2,0.6,0.2,0.8v0.3c0,0.2-0.1,0.8-0.2,2c-0.7,0.4-1.4,0.6-2,0.7c-0.6,0.1-1.5,0.2-2.6,0.2v-2.9
				c0.7-0.3,1.1-0.6,1.4-0.9c0.3-0.2,0.7-0.6,1.1-1.2c-0.7-0.9-1.3-1.6-1.6-2c-0.3-0.3-0.6-0.7-1.1-1.1c-0.1,0.2-0.2,0.4-0.2,0.4
				l-0.1,0.1c-0.2,0-0.4-0.1-0.9-0.4c-0.4-0.2-0.7-0.5-0.9-0.6c-0.2-0.2-0.4-0.5-0.5-1.1s-0.2-1.2-0.2-2c0-0.4,0-0.6,0.1-0.7
				s0.1-0.2,0.3-0.2c0.3,0,0.8,0.4,1.5,1.1c0.7,0.6,1.3,1.3,1.8,1.9c0.4,0.4,0.8,0.9,1.1,1.3s0.8,1.1,1.4,2.1
				c0.3-0.6,0.5-1.3,0.6-2.1c0.1-0.5,0.1-1.1,0.1-1.9c-0.2-0.1-0.4-0.2-0.5-0.3s-0.1-0.3-0.1-0.4c0-0.4,0-0.8,0.1-1.2
				c0.1-0.4,0.2-0.8,0.4-1.3l0.4,0.1c0,0.4,0.1,0.7,0.3,0.8C211.2,25.9,211.7,26,212.6,26.3z M206.4,23.6c-0.1,0.2-0.1,0.4-0.2,0.5
				c-0.1,0.1-0.2,0.1-0.3,0.2l-2.1,0.6c0.1-0.2,0.2-0.4,0.3-0.5s0.3-0.2,0.5-0.3c-0.2-0.1-0.3-0.2-0.4-0.3c-0.1-0.1-0.1-0.2-0.1-0.3
				c0-0.1,0-0.2,0.1-0.3s0.1-0.2,0.2-0.3c0.4-0.6,0.8-0.8,1.3-0.8c0.1,0,0.2,0,0.3,0.1s0.1,0.2,0.1,0.3c0,0.1,0,0.2,0,0.3
				c0,0.1-0.1,0.2-0.2,0.3c-0.3-0.2-0.5-0.2-0.7-0.2s-0.2,0-0.4,0.1c-0.1,0-0.1,0.1-0.2,0.2c0,0.1,0.2,0.2,0.5,0.4s0.5,0.3,0.7,0.3
				C205.8,23.7,206,23.7,206.4,23.6z M210,34.8l-0.5-0.7c-0.3,0.3-0.5,0.5-0.7,0.7c-0.2,0.1-0.4,0.3-0.8,0.6
				c0.5-0.1,0.8-0.1,1.1-0.2C209.3,35.1,209.6,35,210,34.8z"/>
			<path class="st0" d="M216.5,33.9c0,0.6-0.1,1.1-0.2,1.6s-0.4,1.1-0.8,1.9l-0.6-0.2c0.2-0.8,0.2-1.5,0.2-2c0-0.4,0-1-0.1-1.7
				c-0.1-0.8-0.1-1.5-0.2-2.3s-0.3-1.6-0.5-2.7c-0.1-0.4-0.1-0.6-0.1-0.8c0-0.2,0.1-0.5,0.3-1s0.5-1.1,0.8-1.8l0.6,3.5
				c0.2,1.3,0.4,2.5,0.4,3.4C216.5,32.5,216.5,33.2,216.5,33.9z"/>
			<path class="st0" d="M223.4,43.8c0.5-1.2,0.9-2,1.1-2.7c0.2-0.6,0.4-1.3,0.6-2.1c0.2-0.8,0.3-1.6,0.4-2.3
				c0.1-0.7,0.1-1.5,0.1-2.2c0-1.5-0.2-3-0.5-4.4s-0.9-3.1-1.8-5h1.9c1,1.4,1.7,2.9,2.3,4.5c0.5,1.6,0.8,3.2,0.8,4.8
				c0,1.4-0.2,2.8-0.6,4.4c-0.5,1.7-1.3,3.5-2.4,5.2h-1.9V43.8z"/>
		</g>
	</g>
</g>
<rect class="st1" width="316.5" height="60.2"/>
</svg>
