<?xml version="1.0" encoding="utf-8"?>
<!-- Generator: Adobe Illustrator 19.2.0, SVG Export Plug-In . SVG Version: 6.00 Build 0)  -->
<svg version="1.1" id="Layer_1" xmlns="http://www.w3.org/2000/svg" xmlns:xlink="http://www.w3.org/1999/xlink" x="0px" y="0px"
	 viewBox="0 0 407.8 49.5" style="enable-background:new 0 0 407.8 49.5;" xml:space="preserve">
<style type="text/css">
	.st0{fill:#BA0017;}
	.st1{fill:none;}
</style>
<g>
	<g>
		<g>
			<g>
				<g>
					<path d="M118.2,19.5c0,0.1,0,0.2,0,0.3s0,0.2-0.1,0.4l-0.8-0.5c-0.3,0.4-0.5,0.6-0.7,0.7c-0.5,0.5-0.9,0.7-1.2,0.7h-0.7
						c0.3-0.2,0.7-0.4,1.2-0.8c0.4-0.3,0.7-0.6,0.9-0.9c-0.2-0.1-0.4-0.3-0.5-0.4c-0.1-0.2-0.2-0.4-0.2-0.6c0-0.4,0.1-0.8,0.4-1.1
						c0.3-0.3,0.5-0.5,0.8-0.5c0.2,0,0.3,0.1,0.5,0.3c0.1,0.2,0.2,0.4,0.2,0.7c0,0.1,0,0.3-0.1,0.4c0,0.1-0.1,0.4-0.2,0.7
						c0.1,0.1,0.2,0.2,0.3,0.3C118.2,19.2,118.2,19.3,118.2,19.5z M117.5,18.4c0-0.2-0.1-0.3-0.2-0.5c-0.1-0.1-0.2-0.2-0.4-0.2
						c-0.1,0-0.1,0-0.2,0.1c0,0-0.1,0.1-0.1,0.1c0,0.1,0.1,0.3,0.2,0.4l0.4,0.3C117.4,18.5,117.5,18.4,117.5,18.4z"/>
					<path d="M127.6,30.3h-0.8c-0.4,0-0.7-0.1-1-0.2s-0.6-0.3-0.9-0.5c-0.3,0.2-0.5,0.4-0.7,0.5c-0.3,0.1-0.8,0.2-1.3,0.2h-1.2
						c0,0.6-0.1,1.2-0.4,1.7c-0.4,0.7-0.9,1.3-1.7,1.7c-1,0.5-2.2,0.8-3.6,0.8c-1.3,0-2.3-0.2-3-0.7c-0.8-0.5-1.1-1.3-1.1-2.3
						c0-0.6,0.1-1.1,0.2-1.7c0.1-0.6,0.3-1.1,0.6-1.7c0.1-0.4,0.4-0.9,0.7-1.6l0.4,0.2c-0.5,0.9-0.8,1.7-0.9,2.2
						c-0.1,0.5-0.2,1-0.2,1.5c0,0.8,0.3,1.4,0.9,1.8c0.6,0.4,1.4,0.6,2.5,0.6c1.3,0,2.4-0.2,3.3-0.7c1.2-0.5,1.8-1.3,1.8-2.3
						c0-0.7-0.1-1.3-0.4-1.9c-0.2-0.5-0.5-0.9-0.8-1.3l0.8-2c0.3,0.5,0.5,1,0.7,1.4c0.2,0.6,0.2,1.4,0.2,2.4h1.2
						c0.6,0,1.1-0.1,1.3-0.3c0.2-0.2,0.3-0.4,0.3-0.8c0-0.2,0-0.4,0-0.6c0-0.2-0.1-0.4-0.1-0.6l0.4-0.6l0.2,0.9
						c0.1,0.6,0.3,1.1,0.6,1.4c0.3,0.3,0.6,0.5,1.1,0.5c0.1,0,0.3,0,0.3-0.1c0.1-0.1,0.1-0.2,0.1-0.4c0-0.3-0.1-0.7-0.3-1
						c-0.1-0.3-0.3-0.5-0.6-0.8l0.7-1.1c0.3,0.5,0.5,0.8,0.6,1c0.1,0.4,0.2,1,0.2,1.8V30.3z"/>
					<path d="M131.5,32.1c0,0.3-0.2,0.6-0.5,0.9c-0.6,0.2-1.5,0.6-2.8,1.1c0-0.3,0.1-0.5,0.4-0.8C129.1,33.1,130.1,32.7,131.5,32.1z
						"/>
					<path d="M131.7,30.3h-4.8v-1.7h3.8l-1.2-8.3l-0.5-0.2c0-0.4,0-0.9,0.1-1.3c0.1-0.4,0.2-0.8,0.4-1.1l0.1,0.1
						c0,0.4,0.2,0.7,0.6,0.8c0.3,0.1,0.7,0.3,1,0.4c0,0.3,0,0.7-0.1,1s-0.1,0.6-0.2,0.8l-0.5-0.2l1.2,7.7V30.3z"/>
					<path d="M138,19.3c0,0.4-0.1,0.8-0.4,1.1c-0.3,0.3-0.7,0.5-1.1,0.5c-0.4,0-0.6-0.1-0.8-0.3s-0.3-0.5-0.3-0.8
						c0-0.5,0.1-0.9,0.4-1.3c0.3-0.4,0.6-0.6,1-0.6c0.4,0,0.6,0.1,0.9,0.4S138,18.9,138,19.3z M137.4,19.6c0-0.2-0.1-0.4-0.4-0.6
						c-0.3-0.2-0.5-0.3-0.6-0.3c-0.2,0-0.3,0.1-0.4,0.2s-0.2,0.3-0.2,0.5c0,0.2,0.1,0.4,0.3,0.5c0.2,0.1,0.4,0.1,0.7,0.1
						c0.2,0,0.3,0,0.4-0.1C137.3,19.8,137.4,19.7,137.4,19.6z"/>
					<path d="M142.3,30.3H131v-1.7h8c-0.7-0.5-1.2-0.9-1.7-1.2c-0.6-0.4-1.1-0.6-1.6-0.8c-0.5-0.2-1.1-0.3-1.6-0.3
						c-0.3,0-0.7,0-1,0.1c0.2-0.5,0.4-0.9,0.7-1.2c0.4-0.4,1-0.6,1.7-0.6c0.7,0,1.4,0.3,2.4,1c0.4,0.3,1.2,0.9,2.2,1.9
						c0.8,0.7,1.3,1.1,1.6,1.2h0.6V30.3z M137.3,32.5l-0.7,1.4L135,33l0.8-1.4L137.3,32.5z"/>
					<path d="M147.9,18.8c0,0.3-0.2,0.6-0.5,0.9c-0.6,0.2-1.5,0.6-2.8,1.1c0-0.3,0.1-0.6,0.4-0.8C145.5,19.7,146.5,19.3,147.9,18.8z
						"/>
					<path d="M150.2,30.3h-1c-0.4,0-0.9-0.1-1.5-0.3c-0.6-0.2-1.2-0.5-1.7-0.9c-0.4,0.5-0.8,0.8-1.2,1c-0.4,0.2-1,0.3-1.7,0.3h-1.5
						v-1.7h1.5c0.6,0,1.1-0.1,1.6-0.4c0.4-0.2,0.7-0.6,1-1c0.4-0.6,0.9-1.1,1.5-1.5c0.5-0.4,1-0.6,1.4-0.7c0.4,0.7,0.8,1.3,1.1,1.8
						c0.4,0.7,0.5,1.3,0.5,1.8V30.3z M149.1,28.4c-0.1-0.4-0.2-0.7-0.4-1.1c-0.1-0.3-0.3-0.6-0.6-0.9c-0.3,0.1-0.6,0.2-0.8,0.4
						c-0.1,0.1-0.3,0.4-0.5,0.7c0.2,0.3,0.6,0.5,1,0.7c0.4,0.2,0.8,0.3,1.2,0.4L149.1,28.4z"/>
					<path d="M154.3,30.3h-4.8v-1.7h3.8l-1.2-8.3l-0.5-0.2c0-0.4,0-0.9,0.1-1.3c0.1-0.4,0.2-0.8,0.4-1.1l0.1,0.1
						c0,0.4,0.2,0.7,0.6,0.8c0.3,0.1,0.7,0.3,1,0.4c0,0.3,0,0.7-0.1,1s-0.1,0.6-0.2,0.8l-0.5-0.2l1.2,7.7V30.3z"/>
					<path d="M157.6,27.9c0,0.5-0.1,1-0.3,1.5c-0.1,0.3-0.3,0.7-0.6,1.2l-0.2-0.1c0-0.2,0-0.4,0.1-0.7c0-0.2,0-0.4,0-0.5
						c0-0.7-0.1-1.6-0.2-2.8c-0.1-1.2-0.2-2.5-0.4-3.8c-0.1-0.8-0.2-1.6-0.3-2.5c0.1-0.3,0.3-0.6,0.4-0.9s0.3-0.6,0.5-0.9
						c0.1,0.7,0.2,1.8,0.4,3c0.2,1.3,0.3,2.5,0.4,3.5C157.6,26.2,157.6,27.2,157.6,27.9z"/>
					<path d="M170.1,18.8c0,0.3-0.2,0.6-0.5,0.9c-0.6,0.2-1.5,0.6-2.8,1.1c0-0.3,0.1-0.6,0.4-0.8C167.7,19.7,168.7,19.3,170.1,18.8z
						"/>
					<path d="M176,30.3h-7.2c-1.6,0-2.7-0.2-3.3-0.6c-0.7-0.4-1.1-1.1-1.1-2c0-0.6,0.2-1.2,0.5-2c0.1-0.2,0.3-0.6,0.5-1.1l0.3,0.2
						c-0.2,0.5-0.4,0.9-0.4,1.2s-0.1,0.5-0.1,0.8c0,0.7,0.4,1.2,1.1,1.5c0.6,0.2,1.4,0.3,2.5,0.3h6.2l-1.2-8.3l-0.5-0.2
						c0-0.4,0-0.9,0.1-1.3c0.1-0.4,0.2-0.8,0.4-1.1l0.1,0.1c0,0.4,0.2,0.7,0.7,0.8l1.1,0.4c0,0.3,0,0.6-0.1,1s-0.2,0.7-0.2,0.9
						l-0.5-0.2l1.2,7.7V30.3z M172.5,24.4c0,0.7-0.2,1.3-0.7,1.7s-1.1,0.6-2,0.6c-0.4,0-0.8-0.1-1.3-0.2c-0.3-0.1-0.7-0.2-1.3-0.4
						l0.2-0.2c0.2,0,0.3,0,0.6,0c0.5,0,0.8,0.1,1,0.1c0.7,0,1.4-0.1,1.9-0.3c0.5-0.2,0.8-0.5,0.8-0.8c0-0.1-0.1-0.3-0.2-0.4
						s-0.2-0.1-0.4-0.1c-0.2,0-0.3,0-0.4,0l-0.7,0c-0.2,0-0.3,0-0.4-0.1c-0.1-0.1-0.2-0.2-0.2-0.4c0-0.5,0.3-1.2,0.9-2
						s1.2-1.2,1.8-1.5l-0.2,1.3c-0.4,0.1-0.8,0.3-1,0.4c-0.4,0.2-0.6,0.5-0.6,0.8c0,0.1,0.1,0.2,0.2,0.2s0.2,0.1,0.4,0.1
						c0.1,0,0.2,0,0.3,0l0.5-0.1c0.3,0,0.6,0.1,0.7,0.3S172.5,23.9,172.5,24.4z"/>
					<path d="M180.9,30.3h-5.6v-1.7h4.9c0-0.8-0.1-1.4-0.3-1.8c-0.1-0.3-0.4-0.7-0.9-1.2l0.8-1.6c0.5,0.6,0.8,1.1,0.9,1.4
						c0.2,0.5,0.3,1.3,0.3,2.5V30.3z M179.9,32.7l-0.8,1.4l-1.6-0.8l0.7-1.4L179.9,32.7z"/>
					<path d="M184.9,31.6c0,0.3-0.2,0.6-0.5,0.9c-0.6,0.2-1.5,0.6-2.8,1.1c0-0.3,0.1-0.5,0.4-0.8C182.6,32.6,183.5,32.2,184.9,31.6z
						"/>
					<path d="M198.2,30.3h-1.7c-1,0-1.8,0-2.3,0.1c-0.5,0.1-0.8,0.2-0.8,0.3c0,0.2,0.3,0.3,0.9,0.3c0.3,0,0.5,0,0.6,0
						c0.2,0,0.5,0,1,0.1c0.3,0,0.5,0.1,0.6,0.1c0.2,0.1,0.3,0.3,0.3,0.5c0,1.2-0.4,2.1-1.2,2.7c-0.9,0.6-2.3,0.9-4.3,0.9
						c-1.4,0-2.5-0.2-3.3-0.7c-0.9-0.5-1.3-1.2-1.3-2.2c0-0.8,0.2-1.6,0.6-2.4c0.1-0.3,0.5-1,1.2-2l0.4,0.2
						c-0.2,0.4-0.5,0.8-0.7,1.3c-0.4,0.7-0.6,1.3-0.6,1.8c0,0.8,0.4,1.4,1.3,1.8c0.8,0.4,1.9,0.6,3.3,0.6c0.9,0,1.8-0.1,2.5-0.2
						c0.9-0.2,1.3-0.4,1.3-0.7c0-0.1,0-0.2-0.1-0.2c-0.1-0.1-0.3-0.1-0.5-0.1c-0.2,0-0.5,0-0.8-0.1c-0.4,0-0.6,0-0.7,0
						c-0.4,0-0.7-0.1-0.9-0.2s-0.3-0.3-0.3-0.5c0-0.8,0.2-1.5,0.7-2c0.4-0.4,0.9-0.7,1.6-0.9c0.5-0.1,1-0.2,1.6-0.2h1.7V30.3z
						 M192.2,36.6l-0.9,0.8l-1.1-0.7l0.9-0.9L192.2,36.6z M194.2,36.6l-0.9,0.8l-1.1-0.7l0.9-0.9L194.2,36.6z"/>
					<path d="M206.1,30.3h-3.6c0.4,0.2,0.8,0.5,1.1,0.8c0.4,0.4,0.6,0.9,0.6,1.5c0,0.5-0.1,0.9-0.2,1.2c-0.2,0.4-0.5,0.6-0.9,0.6
						c-0.8,0-1.5-0.3-2.1-0.8c-0.8-0.7-1.2-1.5-1.2-2.6l0-0.7h-2.2v-1.7h2.5c0.2-0.6,0.5-1.2,0.8-1.7c0.3-0.7,0.7-1.2,1.1-1.6
						c0.4-0.5,0.8-0.7,1.2-0.7c0.2,0,0.4,0.2,0.5,0.5c0.2,0.4,0.2,0.7,0.2,1.1c0,0.6-0.1,1-0.4,1.4c-0.2,0.2-0.7,0.5-1.6,1h4.3V30.3
						z M203.3,32.5c0-0.5-0.4-1-1.1-1.5c-0.6-0.4-1.2-0.6-1.8-0.7c0,0.7,0.2,1.3,0.5,1.8c0.4,0.6,1,0.8,1.9,0.8c0.2,0,0.3,0,0.4-0.1
						C203.2,32.7,203.3,32.6,203.3,32.5z M202.9,27c0-0.6-0.1-0.9-0.4-0.9c-0.3,0-0.6,0.3-1,0.9c-0.2,0.3-0.5,0.8-0.8,1.5
						c0.6-0.2,1.1-0.4,1.5-0.6C202.7,27.5,202.9,27.3,202.9,27z"/>
					<path d="M211.2,15.8c0,0.3-0.2,0.6-0.5,0.9c-0.6,0.2-1.5,0.6-2.8,1.1c0-0.3,0.1-0.6,0.4-0.8C208.8,16.8,209.8,16.4,211.2,15.8z
						"/>
					<path d="M211,30.3h-5.6v-1.7h4.9c0-0.8-0.1-1.4-0.3-1.8c-0.1-0.3-0.4-0.7-0.9-1.2l0.8-1.6c0.5,0.6,0.8,1.1,0.9,1.4
						c0.2,0.5,0.3,1.3,0.3,2.5V30.3z M208.7,21.6L208,23l-1.6-0.8l0.7-1.4L208.7,21.6z M211,20.7l-0.8,1.4l-1.6-0.8l0.7-1.4
						L211,20.7z"/>
					<path d="M215.8,16.4c0,0.4-0.1,0.8-0.4,1.1c-0.3,0.3-0.7,0.5-1.1,0.5c-0.4,0-0.6-0.1-0.8-0.3s-0.3-0.5-0.3-0.8
						c0-0.5,0.1-0.9,0.4-1.3c0.3-0.4,0.6-0.6,1-0.6c0.4,0,0.6,0.1,0.9,0.4S215.8,16,215.8,16.4z M215.2,16.7c0-0.2-0.1-0.4-0.4-0.6
						c-0.3-0.2-0.5-0.3-0.6-0.3c-0.2,0-0.3,0.1-0.4,0.2c-0.1,0.1-0.2,0.3-0.2,0.5c0,0.2,0.1,0.4,0.3,0.5c0.2,0.1,0.4,0.1,0.7,0.1
						c0.2,0,0.3,0,0.4-0.1C215.2,16.9,215.2,16.8,215.2,16.7z"/>
					<path d="M215.9,30.3h-5.6v-1.7h4.9c0-0.8-0.1-1.4-0.3-1.8c-0.1-0.3-0.4-0.7-0.9-1.2l0.8-1.6c0.5,0.6,0.8,1.1,0.9,1.4
						c0.2,0.5,0.3,1.3,0.3,2.5V30.3z M215.1,21.3l-0.7,1.4l-1.6-0.8l0.7-1.4L215.1,21.3z"/>
					<path d="M221,18.8c0,0.3-0.2,0.6-0.5,0.9c-0.6,0.2-1.5,0.6-2.8,1.1c0-0.3,0.1-0.6,0.4-0.8C218.6,19.7,219.6,19.3,221,18.8z"/>
					<path d="M220.8,30.3h-5.6v-1.7h4.9c0-0.8-0.1-1.4-0.3-1.8c-0.1-0.3-0.4-0.7-0.9-1.2l0.8-1.6c0.5,0.6,0.8,1.1,0.9,1.4
						c0.2,0.5,0.3,1.3,0.3,2.5V30.3z M218.5,33.2l-0.7,1.4l-1.6-0.8l0.7-1.4L218.5,33.2z M220.7,32.3l-0.8,1.4l-1.6-0.8l0.7-1.4
						L220.7,32.3z"/>
					<path class="st0" d="M232.9,15.6c0,0.1,0,0.2,0,0.3c0,0.1,0,0.2-0.1,0.4l-0.8-0.5c-0.3,0.4-0.5,0.6-0.7,0.7
						c-0.5,0.5-0.9,0.7-1.2,0.7h-0.7c0.3-0.2,0.7-0.4,1.2-0.8c0.4-0.3,0.7-0.6,0.9-0.9c-0.2-0.1-0.4-0.3-0.5-0.4
						c-0.1-0.2-0.2-0.4-0.2-0.6c0-0.4,0.1-0.8,0.4-1.1c0.3-0.3,0.5-0.5,0.8-0.5c0.2,0,0.3,0.1,0.5,0.3c0.1,0.2,0.2,0.4,0.2,0.7
						c0,0.1,0,0.3-0.1,0.4c0,0.1-0.1,0.4-0.2,0.7c0.1,0.1,0.2,0.2,0.3,0.3C232.9,15.3,232.9,15.4,232.9,15.6z M232.2,14.5
						c0-0.2-0.1-0.3-0.2-0.5c-0.1-0.1-0.2-0.2-0.4-0.2c-0.1,0-0.1,0-0.2,0.1c0,0-0.1,0.1-0.1,0.1c0,0.1,0.1,0.3,0.2,0.4l0.4,0.3
						C232.1,14.6,232.2,14.5,232.2,14.5z"/>
					<path class="st0" d="M240.6,30.3h-9.3c-1.3,0-2.2-0.2-3-0.7c-0.9-0.5-1.4-1.4-1.4-2.6c0-0.6,0.1-1.2,0.4-1.9
						c0.1-0.2,0.3-0.7,0.7-1.3l0.3,0.2c-0.1,0.3-0.3,0.6-0.4,0.9c-0.2,0.5-0.3,0.9-0.3,1.2c0,0.8,0.4,1.4,1.2,1.8
						c0.7,0.4,1.6,0.6,2.7,0.6h8.3v-0.3c0-0.7-0.1-1.3-0.3-1.8s-0.5-0.9-0.9-1.2l0.8-1.6c0.3,0.4,0.5,0.6,0.5,0.7
						c0.4,0.7,0.7,1.8,0.7,3.2V30.3z M233.8,22.4l-0.7,1.4l-1.6-0.8l0.7-1.4L233.8,22.4z M234.1,19.7l-0.8,1.4l-1.6-0.8l0.7-1.4
						L234.1,19.7z M236,21.5l-0.8,1.4l-1.6-0.8l0.7-1.4L236,21.5z"/>
					<path class="st0" d="M245.4,19.3c0,0.4-0.1,0.8-0.4,1.1c-0.3,0.3-0.7,0.5-1.1,0.5c-0.4,0-0.6-0.1-0.8-0.3s-0.3-0.5-0.3-0.8
						c0-0.5,0.1-0.9,0.4-1.3c0.3-0.4,0.6-0.6,1-0.6c0.4,0,0.6,0.1,0.9,0.4S245.4,18.9,245.4,19.3z M244.8,19.6
						c0-0.2-0.1-0.4-0.4-0.6c-0.3-0.2-0.5-0.3-0.6-0.3c-0.2,0-0.3,0.1-0.4,0.2s-0.2,0.3-0.2,0.5c0,0.2,0.1,0.4,0.3,0.5
						c0.2,0.1,0.4,0.1,0.7,0.1c0.2,0,0.3,0,0.4-0.1C244.8,19.8,244.8,19.7,244.8,19.6z"/>
					<path class="st0" d="M245.5,30.3h-5.6v-1.7h4.9c0-0.8-0.1-1.4-0.3-1.8c-0.1-0.3-0.4-0.7-0.9-1.2l0.8-1.6
						c0.5,0.6,0.8,1.1,0.9,1.4c0.2,0.5,0.3,1.3,0.3,2.5V30.3z M243.2,33.2l-0.7,1.4l-1.6-0.8l0.7-1.4L243.2,33.2z M245.4,32.3
						l-0.8,1.4l-1.6-0.8l0.7-1.4L245.4,32.3z"/>
					<path class="st0" d="M252,18.8c0,0.3-0.2,0.6-0.5,0.9c-0.6,0.2-1.5,0.6-2.8,1.1c0-0.3,0.1-0.6,0.4-0.8
						C249.6,19.7,250.6,19.3,252,18.8z"/>
					<path class="st0" d="M256.1,30.3h-11.3v-1.7h8c-0.7-0.5-1.2-0.9-1.7-1.2c-0.6-0.4-1.1-0.6-1.6-0.8c-0.5-0.2-1.1-0.3-1.6-0.3
						c-0.3,0-0.7,0-1,0.1c0.2-0.5,0.4-0.9,0.7-1.2c0.4-0.4,1-0.6,1.7-0.6c0.7,0,1.4,0.3,2.4,1c0.4,0.3,1.2,0.9,2.2,1.9
						c0.8,0.7,1.3,1.1,1.6,1.2h0.6V30.3z"/>
					<path d="M268.9,19.3c0,0.4-0.1,0.8-0.4,1.1c-0.3,0.3-0.7,0.5-1.1,0.5c-0.4,0-0.6-0.1-0.8-0.3s-0.3-0.5-0.3-0.8
						c0-0.5,0.1-0.9,0.4-1.3c0.3-0.4,0.6-0.6,1-0.6c0.4,0,0.6,0.1,0.9,0.4S268.9,18.9,268.9,19.3z M268.3,19.6
						c0-0.2-0.1-0.4-0.4-0.6c-0.3-0.2-0.5-0.3-0.6-0.3c-0.2,0-0.3,0.1-0.4,0.2s-0.2,0.3-0.2,0.5c0,0.2,0.1,0.4,0.3,0.5
						c0.2,0.1,0.4,0.1,0.7,0.1c0.2,0,0.3,0,0.4-0.1C268.2,19.8,268.3,19.7,268.3,19.6z"/>
					<path d="M278.1,30.3h-0.8c-0.4,0-0.7-0.1-1-0.2s-0.6-0.3-0.9-0.5c-0.3,0.2-0.5,0.4-0.7,0.5c-0.3,0.1-0.8,0.2-1.3,0.2h-1.2
						c0,0.6-0.1,1.2-0.4,1.7c-0.4,0.7-0.9,1.3-1.7,1.7c-1,0.5-2.2,0.8-3.6,0.8c-1.3,0-2.3-0.2-3-0.7c-0.8-0.5-1.1-1.3-1.1-2.3
						c0-0.6,0.1-1.1,0.2-1.7c0.1-0.6,0.3-1.1,0.6-1.7c0.1-0.4,0.4-0.9,0.7-1.6l0.4,0.2c-0.5,0.9-0.8,1.7-0.9,2.2
						c-0.1,0.5-0.2,1-0.2,1.5c0,0.8,0.3,1.4,0.9,1.8c0.6,0.4,1.4,0.6,2.5,0.6c1.3,0,2.4-0.2,3.3-0.7c1.2-0.5,1.8-1.3,1.8-2.3
						c0-0.7-0.1-1.3-0.4-1.9c-0.2-0.5-0.5-0.9-0.8-1.3l0.8-2c0.3,0.5,0.5,1,0.7,1.4c0.2,0.6,0.2,1.4,0.2,2.4h1.2
						c0.6,0,1.1-0.1,1.3-0.3c0.2-0.2,0.3-0.4,0.3-0.8c0-0.2,0-0.4,0-0.6c0-0.2-0.1-0.4-0.1-0.6l0.4-0.6l0.2,0.9
						c0.1,0.6,0.3,1.1,0.6,1.4c0.3,0.3,0.6,0.5,1.1,0.5c0.1,0,0.3,0,0.3-0.1c0.1-0.1,0.1-0.2,0.1-0.4c0-0.3-0.1-0.7-0.3-1
						c-0.1-0.3-0.3-0.5-0.6-0.8l0.7-1.1c0.3,0.5,0.5,0.8,0.6,1c0.1,0.4,0.2,1,0.2,1.8V30.3z"/>
					<path d="M282,32.1c0,0.3-0.2,0.6-0.5,0.9c-0.6,0.2-1.5,0.6-2.8,1.1c0-0.3,0.1-0.5,0.4-0.8C279.6,33.1,280.6,32.7,282,32.1z"/>
					<path d="M282.2,30.3h-4.8v-1.7h3.8l-1.2-8.3l-0.5-0.2c0-0.4,0-0.9,0.1-1.3c0.1-0.4,0.2-0.8,0.4-1.1l0.1,0.1
						c0,0.4,0.2,0.7,0.6,0.8c0.3,0.1,0.7,0.3,1,0.4c0,0.3,0,0.7-0.1,1s-0.1,0.6-0.2,0.8l-0.5-0.2l1.2,7.7V30.3z"/>
					<path d="M288.5,19.3c0,0.4-0.1,0.8-0.4,1.1c-0.3,0.3-0.7,0.5-1.1,0.5c-0.4,0-0.6-0.1-0.8-0.3s-0.3-0.5-0.3-0.8
						c0-0.5,0.1-0.9,0.4-1.3c0.3-0.4,0.6-0.6,1-0.6c0.4,0,0.6,0.1,0.9,0.4S288.5,18.9,288.5,19.3z M287.9,19.6
						c0-0.2-0.1-0.4-0.4-0.6c-0.3-0.2-0.5-0.3-0.6-0.3c-0.2,0-0.3,0.1-0.4,0.2s-0.2,0.3-0.2,0.5c0,0.2,0.1,0.4,0.3,0.5
						c0.2,0.1,0.4,0.1,0.7,0.1c0.2,0,0.3,0,0.4-0.1C287.8,19.8,287.9,19.7,287.9,19.6z"/>
					<path d="M292.8,30.3h-11.3v-1.7h8c-0.7-0.5-1.2-0.9-1.7-1.2c-0.6-0.4-1.1-0.6-1.6-0.8c-0.5-0.2-1.1-0.3-1.6-0.3
						c-0.3,0-0.7,0-1,0.1c0.2-0.5,0.4-0.9,0.7-1.2c0.4-0.4,1-0.6,1.7-0.6c0.7,0,1.4,0.3,2.4,1c0.4,0.3,1.2,0.9,2.2,1.9
						c0.8,0.7,1.3,1.1,1.6,1.2h0.6V30.3z M287.8,32.5l-0.7,1.4l-1.6-0.8l0.8-1.4L287.8,32.5z"/>
					<path d="M296.1,27.9c0,0.5-0.1,1-0.3,1.5c-0.1,0.3-0.3,0.7-0.6,1.2l-0.2-0.1c0-0.2,0-0.4,0.1-0.7c0-0.2,0-0.4,0-0.5
						c0-0.7-0.1-1.6-0.2-2.8c-0.1-1.2-0.2-2.5-0.4-3.8c-0.1-0.8-0.2-1.6-0.3-2.5c0.1-0.3,0.3-0.6,0.4-0.9s0.3-0.6,0.5-0.9
						c0.1,0.7,0.2,1.8,0.4,3s0.3,2.5,0.4,3.5C296,26.2,296.1,27.2,296.1,27.9z"/>
				</g>
			</g>
		</g>
	</g>
	<rect class="st1" width="407.8" height="49.5"/>
</g>
</svg>
