<?xml version="1.0" encoding="utf-8"?>
<!-- Generator: Adobe Illustrator 22.0.1, SVG Export Plug-In . SVG Version: 6.00 Build 0)  -->
<svg version="1.1" id="Layer_1" xmlns="http://www.w3.org/2000/svg" xmlns:xlink="http://www.w3.org/1999/xlink" x="0px" y="0px"
	 viewBox="0 0 316.5 60.2" style="enable-background:new 0 0 316.5 60.2;" xml:space="preserve">
<style type="text/css">
	.st0{fill:#542C0B;}
	.st1{fill:none;}
</style>
<g>
	<g>
		<g>
			<path class="st0" d="M144.8,42.2h-1.9c-1-1.5-1.8-3.1-2.3-4.7s-0.8-3.2-0.8-4.7c0-1.9,0.3-3.7,1-5.3c0.6-1.5,1.3-2.8,2.1-4h1.9
				c-0.9,2-1.5,3.7-1.8,5c-0.3,1.4-0.5,2.8-0.5,4.4c0,1.1,0.1,2.2,0.3,3.3s0.5,2.2,0.8,3.2C143.8,40,144.2,40.9,144.8,42.2z"/>
			<path class="st0" d="M158.2,35.1h-1.3c-1.2,0-2.2,0.1-3.2,0.3c-0.9,0.2-1.4,0.4-1.4,0.7c0.3,0.8,0.5,1.5,0.7,2.2s0.3,1.3,0.3,1.9
				c0,0.4,0,0.8-0.1,1.1s-0.3,0.6-0.5,0.9c-0.1-0.9-0.2-1.8-0.5-2.7c-0.1-0.3-0.3-1-0.6-2.1c-0.2-0.7-0.3-1.1-0.3-1.3
				c0-0.3,0.1-0.7,0.3-1.1c0.1-0.4,0.3-0.7,0.5-1s0.6-0.6,1.1-0.8s1.3-0.3,2.4-0.5c-0.5-0.7-1-1.1-1.4-1.1c-0.2,0-0.3,0.1-0.5,0.2
				c-0.1,0.1-0.4,0.4-0.7,0.9l-0.5-0.2c0.3-1,0.6-1.8,1.1-2.3s0.9-0.8,1.4-0.8c0.4,0,0.9,0.3,1.5,0.8c0.5,0.5,1.2,1.3,1.9,2.3v2.6
				H158.2z"/>
			<path class="st0" d="M165.5,35.1h-7.9v-2.7h6.3c-0.3-0.3-0.5-0.6-0.7-0.8c-0.2-0.2-0.5-0.4-0.8-0.7c-0.4-0.3-0.7-0.6-1.1-0.9
				l-0.3,0.4c-0.6-0.6-0.9-0.9-1-1c-0.3-0.4-0.5-0.8-0.5-1.3c0-0.7,0-1.1,0.1-1.4c0.1-0.4,0.4-0.7,0.8-1c0.4-0.3,0.8-0.5,1.2-0.7
				c0.3-0.2,0.8-0.4,1.3-0.6c0.3-0.1,0.8-0.3,1.7-0.6v2.3c0,0-0.3,0.1-0.8,0.3c-0.6,0.2-1.1,0.4-1.5,0.5c-0.5,0.2-0.8,0.4-0.8,0.5
				s0.2,0.3,0.7,0.8c0.6,0.6,1.2,1.2,1.6,1.7c0.7,0.8,1.3,1.7,1.7,2.5V35.1z"/>
			<path class="st0" d="M171.7,42.2c0.5-1.2,0.9-2,1.1-2.7c0.2-0.6,0.4-1.3,0.6-2.1c0.2-0.8,0.3-1.6,0.4-2.3
				c0.1-0.7,0.1-1.5,0.1-2.2c0-1.5-0.2-3-0.5-4.4s-0.9-3.1-1.8-5h1.9c1,1.4,1.7,2.9,2.3,4.5c0.5,1.6,0.8,3.2,0.8,4.8
				c0,1.4-0.2,2.8-0.6,4.4c-0.5,1.7-1.3,3.5-2.4,5.2h-1.9V42.2z"/>
		</g>
	</g>
</g>
<rect class="st1" width="316.5" height="60.2"/>
</svg>
