<?xml version="1.0" encoding="utf-8"?>
<!-- Generator: Adobe Illustrator 22.0.1, SVG Export Plug-In . SVG Version: 6.00 Build 0)  -->
<svg version="1.1" id="Layer_1" xmlns="http://www.w3.org/2000/svg" xmlns:xlink="http://www.w3.org/1999/xlink" x="0px" y="0px"
	 viewBox="0 0 316.4 59.4" style="enable-background:new 0 0 316.4 59.4;" xml:space="preserve">
<style type="text/css">
	.st0{fill:#542C0B;}
	.st1{fill:none;}
</style>
<g>
	<g>
		<g>
			<path class="st0" d="M37.1,43.2h-1.9c-1-1.5-1.8-3.1-2.3-4.7s-0.8-3.2-0.8-4.7c0-1.9,0.3-3.7,1-5.3c0.6-1.5,1.3-2.8,2.1-4h1.9
				c-0.9,2-1.5,3.7-1.8,5c-0.3,1.4-0.5,2.8-0.5,4.4c0,1.1,0.1,2.2,0.3,3.3s0.5,2.2,0.8,3.2C36.1,41,36.5,42,37.1,43.2z"/>
			<path class="st0" d="M55.6,36.4c0,1.3-0.1,2.1-0.2,2.5c-0.1,0.4-0.5,0.8-1,1.3c-1.2,0.9-2.8,1.4-5,1.4c-1.8,0-3.2-0.3-4.2-0.9
				c-1-0.6-1.5-1.4-1.5-2.5c0-1,0.1-1.8,0.4-2.6c0.3-0.9,1-1.9,1.9-3.2l0.6,0.4c-0.6,0.9-1,1.6-1.3,2.2c-0.3,0.6-0.4,1.2-0.4,1.7
				c0,0.8,0.4,1.4,1.2,1.9c0.8,0.4,2,0.7,3.5,0.7c1.3,0,2.5-0.3,3.6-0.8c1-0.5,1.5-1.1,1.5-1.8c0-0.1,0-0.2,0-0.3s0-0.2-0.1-0.3
				c-0.7,0.1-1.2,0.1-1.5,0.1c-0.7,0-1.3-0.2-1.7-0.5c-0.4-0.4-0.6-0.9-0.6-1.5c0-1,0.2-1.9,0.7-2.9c0.5-1,1.1-1.5,1.7-1.5
				c0.7,0,1.3,0.5,1.7,1.5c0.4,0.9,0.6,2.1,0.6,3.4L55.6,36.4L55.6,36.4z M55.2,26.9l-1.1,2l-1.4-0.8l-0.8,1.5l-1.8-1l1-1.9l1.4,0.7
				l0.8-1.6L55.2,26.9z M53.8,33.5c-0.2-0.4-0.4-0.7-0.5-0.9c-0.2-0.2-0.4-0.3-0.7-0.3c-0.2,0-0.3,0-0.4,0.2
				c-0.1,0.1-0.1,0.2-0.1,0.4c0,0.4,0.3,0.6,0.8,0.6c0.2,0,0.3,0,0.4,0S53.6,33.5,53.8,33.5z"/>
			<path class="st0" d="M61,36.2h-6.1v-2.7H60c-0.1-0.4-0.2-0.8-0.4-1.1c-0.1-0.2-0.3-0.5-0.7-0.9l0.8-2.3c0.5,0.6,0.8,1.1,1,1.7
				s0.3,1.5,0.3,2.7C61,33.6,61,36.2,61,36.2z M60,38.2l-1.2,2.2l-2.3-1.2l1.2-2.2L60,38.2z"/>
			<path class="st0" d="M65.7,36.2h-1.4c-0.8,0-1.3-0.3-1.7-0.9c-0.4-0.7-0.6-1.9-0.6-3.5V29c0-0.6-0.1-1.1-0.3-1.5
				c-0.1-0.2-0.3-0.4-0.6-0.7l1.1-2.4c0.4,0.5,0.6,1,0.8,1.5c0.2,0.6,0.3,1.3,0.3,2.3v1.9c0,1.4,0.1,2.3,0.3,2.8
				c0.1,0.4,0.4,0.6,0.7,0.6h1.4V36.2z"/>
			<path class="st0" d="M77.9,36.2c-0.7,0-1.3-0.1-1.8-0.2c-0.5-0.1-1-0.3-1.4-0.5c-0.4,0.3-0.7,0.4-1,0.5s-0.7,0.1-1.3,0.1h-1.6
				c-0.4,0-0.8-0.1-1-0.3c-0.3-0.2-0.5-0.6-0.7-1.1c-0.4,0.5-0.8,0.9-1.2,1.2c-0.4,0.2-0.8,0.3-1.4,0.3H65v-2.7h1.4
				c0.7,0,1.3-0.2,1.7-0.6c0.6-0.5,0.9-1.3,0.9-2.3l0.6,0.1c0,0.2,0,0.4,0,0.7c0,0.3,0,0.6,0,0.9s0.1,0.6,0.3,0.8
				c0.2,0.2,0.5,0.3,0.8,0.3h1.2c0.8,0,1.4-0.1,1.7-0.3c0.4-0.3,0.6-0.8,0.6-1.5c0-0.2,0-0.3,0.1-0.4s0.2-0.2,0.4-0.3l0.4-0.3
				c0,0.1,0,0.3,0,0.5s0,0.3,0,0.4c0,0.4-0.1,0.8-0.2,1.4c0.2,0.1,0.5,0.2,0.8,0.3s0.6,0.1,0.9,0.2c0-0.2-0.1-0.5-0.2-0.9
				s-0.2-0.6-0.2-0.7c0-0.2,0-0.3,0.1-0.4c0,0,0.1-0.1,0.2-0.3l0.8-1.1c0.2,0.4,0.3,0.8,0.4,1.1c0.1,0.3,0.1,0.8,0.1,1.3L77.9,36.2
				L77.9,36.2z"/>
			<path class="st0" d="M82.5,36.2h-5.4v-2.7h4.2l-1.2-6.6l-0.6-0.4c0-0.4,0.1-0.8,0.2-1.2c0.1-0.5,0.4-1.1,0.8-1.8l0.4,0.2
				c0,0,0,0.1,0,0.3c0,0.2,0.1,0.4,0.4,0.6c0.2,0.2,0.6,0.4,1.2,0.6c-0.1,0.4-0.1,0.8-0.3,1.2c-0.1,0.4-0.2,0.8-0.4,1.1l-0.4-0.1
				l1.1,6C82.5,33.4,82.5,36.2,82.5,36.2z"/>
			<path class="st0" d="M86.2,33.3c0,0.6-0.1,1.1-0.2,1.6s-0.4,1.1-0.8,1.9l-0.6-0.2c0.2-0.8,0.2-1.5,0.2-2c0-0.4,0-1-0.1-1.7
				c-0.1-0.8-0.1-1.5-0.2-2.3S84.2,29,84,27.9c-0.1-0.4-0.1-0.6-0.1-0.8c0-0.2,0.1-0.5,0.3-1c0.2-0.5,0.5-1.1,0.8-1.8l0.6,3.5
				c0.2,1.3,0.4,2.5,0.4,3.4C86.1,31.9,86.2,32.7,86.2,33.3z"/>
			<path class="st0" d="M99.6,36.2h-1.3c-1.2,0-2.2,0.1-3.2,0.3c-0.9,0.2-1.4,0.4-1.4,0.7c0.3,0.8,0.5,1.5,0.7,2.2s0.3,1.3,0.3,1.9
				c0,0.4,0,0.8-0.1,1.1s-0.3,0.6-0.5,0.9c-0.1-0.9-0.2-1.8-0.5-2.7c-0.1-0.3-0.3-1-0.6-2.1c-0.2-0.7-0.3-1.1-0.3-1.3
				c0-0.3,0.1-0.7,0.3-1.1c0.1-0.4,0.3-0.7,0.5-1s0.6-0.6,1.1-0.8s1.3-0.3,2.4-0.5c-0.5-0.7-1-1.1-1.4-1.1c-0.2,0-0.3,0.1-0.5,0.2
				c-0.1,0.1-0.4,0.4-0.7,0.9l-0.5-0.2c0.3-1,0.6-1.8,1.1-2.3s0.9-0.8,1.4-0.8c0.4,0,0.9,0.3,1.5,0.8c0.5,0.5,1.2,1.3,1.9,2.3v2.6
				H99.6z"/>
			<path class="st0" d="M108.7,35.5c0,1.1-0.5,2.2-1.4,3.3s-1.9,1.6-2.8,1.6c-0.5,0-1.1-0.2-1.8-0.5c-0.6-0.3-1.6-1-3-2l0.4-0.6
				c0.7,0.5,1.3,0.8,1.7,0.9c0.4,0.1,0.8,0.2,1.3,0.2c0.6,0,1.3-0.2,1.9-0.5c0.7-0.4,1.5-1.1,2.3-2c-0.3,0-0.5,0.1-0.7,0.1
				c-0.6,0-1.2-0.2-1.5-0.6s-0.6-1-0.6-1.7c0-1,0.2-1.9,0.7-2.8c0.5-1,1-1.5,1.7-1.5c0.5,0,1,0.4,1.3,1.1c0.4,0.7,0.5,1.6,0.5,2.6
				V35.5z M107.5,33.5c-0.2-1-0.6-1.6-1.1-1.6c-0.2,0-0.4,0.1-0.5,0.2c-0.1,0.2-0.2,0.3-0.2,0.5s0.1,0.4,0.4,0.6
				c0.3,0.2,0.6,0.2,1,0.2h0.4V33.5z"/>
			<path class="st0" d="M114.1,36.2H108v-2.7h5.1c-0.1-0.4-0.2-0.8-0.4-1.1c-0.1-0.2-0.3-0.5-0.7-0.9l0.8-2.3c0.5,0.6,0.8,1.1,1,1.7
				s0.3,1.5,0.3,2.7C114.1,33.6,114.1,36.2,114.1,36.2z M113.9,37.9l-1.1,2l-1.4-0.8l-0.8,1.5l-1.8-1l1-1.9l1.4,0.7l0.8-1.6
				L113.9,37.9z"/>
			<path class="st0" d="M118.8,36.2h-5.4v-2.7h4.2l-1.2-6.6l-0.6-0.4c0-0.4,0.1-0.8,0.2-1.2c0.1-0.5,0.4-1.1,0.8-1.8l0.4,0.2
				c0,0,0,0.1,0,0.3c0,0.2,0.1,0.4,0.4,0.6c0.2,0.2,0.6,0.4,1.2,0.6c-0.1,0.4-0.1,0.8-0.3,1.2c-0.1,0.4-0.2,0.8-0.4,1.1l-0.4-0.1
				l1.1,6C118.8,33.4,118.8,36.2,118.8,36.2z"/>
			<path class="st0" d="M122.4,33.3c0,0.6-0.1,1.1-0.2,1.6s-0.4,1.1-0.8,1.9l-0.6-0.2c0.2-0.8,0.2-1.5,0.2-2c0-0.4,0-1-0.1-1.7
				c-0.1-0.8-0.1-1.5-0.2-2.3s-0.3-1.6-0.5-2.7c-0.1-0.4-0.1-0.6-0.1-0.8c0-0.2,0.1-0.5,0.3-1c0.2-0.5,0.5-1.1,0.8-1.8l0.6,3.5
				c0.2,1.3,0.4,2.5,0.4,3.4C122.4,31.9,122.4,32.7,122.4,33.3z"/>
			<path class="st0" d="M133.4,36.2H132c-0.8,0-1.3-0.3-1.7-0.9c-0.4-0.7-0.6-1.9-0.6-3.5V29c0-0.6-0.1-1.1-0.3-1.5
				c-0.1-0.2-0.3-0.4-0.6-0.7l1.1-2.4c0.4,0.5,0.6,1,0.8,1.5c0.2,0.6,0.3,1.3,0.3,2.3v1.9c0,1.4,0.1,2.3,0.3,2.8
				c0.1,0.4,0.4,0.6,0.7,0.6h1.4V36.2z"/>
			<path class="st0" d="M142.4,36.2h-2c-0.1,0-0.3,0-0.5,0s-0.4,0-0.7,0c0.2,0.1,0.5,0.3,0.7,0.4c0.2,0.2,0.3,0.4,0.3,0.7
				s0,0.5-0.1,0.8c0,0.2-0.1,0.5-0.3,0.9c-0.3,0.8-0.5,1.4-0.8,1.7c-0.2,0.3-0.5,0.4-0.9,0.4c-0.9,0-1.7-0.5-2.3-1.4
				c-0.7-1-1-2.1-1-3.4h-2.2v-2.7h0.9c0.4,0,0.7,0,1.1-0.1c0.4-0.1,0.7-0.2,0.9-0.2c0.7-2,1.4-3.4,1.9-4.2c0.5-0.8,0.9-1.1,1.3-1.1
				c0.3,0,0.6,0.3,0.9,1c0.2,0.6,0.3,1.1,0.3,1.7c0,0.8-0.1,1.4-0.4,1.9c-0.3,0.6-0.8,1-1.5,1.3c0.5-0.1,0.9-0.1,1.3-0.2
				c0.4,0,0.8,0,1.1,0h2V36.2z M138.8,38.3c0-0.4-0.2-0.7-0.6-1c-0.5-0.4-1.2-0.7-2.2-0.9c0.1,0.6,0.4,1.1,0.9,1.5s1,0.6,1.6,0.6
				C138.7,38.5,138.8,38.4,138.8,38.3z M138.4,31.7c0-0.2-0.1-0.4-0.2-0.6c-0.1-0.2-0.3-0.4-0.4-0.4c-0.2,0-0.4,0.2-0.6,0.6
				c-0.2,0.4-0.5,0.9-0.8,1.7c0.7-0.3,1.3-0.5,1.5-0.7S138.4,31.9,138.4,31.7z"/>
			<path class="st0" d="M147.8,36.2h-6.1v-2.7h5.1c-0.1-0.4-0.2-0.8-0.4-1.1c-0.1-0.2-0.3-0.5-0.7-0.9l0.8-2.3
				c0.5,0.6,0.8,1.1,1,1.7s0.3,1.5,0.3,2.7L147.8,36.2L147.8,36.2z M146.8,38.2l-1.2,2.2l-2.3-1.2l1.2-2.2L146.8,38.2z"/>
			<path class="st0" d="M160.2,36.2h-4.4c-0.4,0-0.8-0.1-1-0.3c-0.3-0.2-0.4-0.6-0.4-1.1c0-0.3,0-0.6,0-0.9s0.1-0.7,0.1-1h0.4
				c0.1,0.2,0.2,0.4,0.3,0.5c0.2,0.1,0.4,0.2,0.6,0.2h3.4c-0.1-1-0.4-1.7-0.8-2.3c-0.3-0.5-0.7-0.9-1.3-1.2l0.7-3
				c0.8,0.6,1.4,1.4,1.8,2.4c0.3,0.9,0.5,2.1,0.5,3.7L160.2,36.2L160.2,36.2z"/>
			<path class="st0" d="M175.7,36.2h-10.3c-0.5,0-0.8-0.1-1.1-0.3s-0.5-0.6-0.7-1.1c-0.4,0.6-0.8,1-1.2,1.2
				c-0.3,0.2-0.8,0.3-1.4,0.3h-1.4v-2.7h1.4c0.8,0,1.3-0.2,1.7-0.6c0.5-0.4,0.7-1.2,0.9-2.3l0.7,0.1c0,0.2,0,0.4,0,0.6
				c0,0.4,0,0.8,0,1c0,0.4,0.1,0.7,0.3,0.9s0.5,0.3,0.8,0.3s0.6-0.1,0.9-0.2c0.3-0.1,0.7-0.4,1.3-0.8l3.5-2.5
				c0.4-0.3,0.7-0.5,0.9-0.6c0.5-0.3,0.9-0.4,1.4-0.4c0.7,0,1.3,0.3,1.7,0.8c0.5,0.6,0.8,1.5,0.8,2.7v3.6H175.7z M174.3,32.5
				c0-0.3-0.2-0.5-0.7-0.7c-0.4-0.2-0.8-0.2-1.3-0.2c-0.4,0-0.9,0.1-1.5,0.4c-0.5,0.3-1.3,0.8-2.3,1.5h2.6
				C173.2,33.5,174.3,33.2,174.3,32.5z"/>
			<path class="st0" d="M181.8,36.2H175v-2.7h5.9c0-0.6,0-1,0-1.2c-0.1-0.4-0.2-0.7-0.3-1c-0.2,0.4-0.5,0.7-0.8,0.9
				s-0.7,0.3-1.1,0.3c-0.5,0-1-0.2-1.3-0.5c-0.4-0.3-0.5-0.8-0.5-1.3c0-0.8,0.2-1.7,0.7-2.7c0.5-1.2,1-1.7,1.6-1.7
				c0.7,0,1.3,0.6,1.9,1.8s0.9,2.5,0.9,3.8v4.3H181.8z M180.8,23.2l-1.1,2l-1.4-0.8l-0.8,1.5l-1.8-1l1-1.9l1.4,0.7l0.8-1.6
				L180.8,23.2z M179.6,29.6c-0.2-0.3-0.3-0.5-0.5-0.6c-0.1-0.1-0.3-0.2-0.4-0.2c-0.2,0-0.4,0.1-0.5,0.3s-0.2,0.4-0.2,0.6
				c0,0.1,0.1,0.3,0.2,0.4c0.1,0.1,0.3,0.2,0.5,0.2c0.1,0,0.3,0,0.5-0.1S179.4,29.8,179.6,29.6z"/>
			<path class="st0" d="M190.9,33.3c0,0.6-0.1,1.1-0.2,1.6s-0.4,1.1-0.8,1.9l-0.6-0.2c0.2-0.8,0.2-1.5,0.2-2c0-0.4,0-1-0.1-1.7
				c-0.1-0.8-0.1-1.5-0.2-2.3s-0.3-1.6-0.5-2.7c-0.1-0.4-0.1-0.6-0.1-0.8c0-0.2,0.1-0.5,0.3-1s0.5-1.1,0.8-1.8l0.6,3.5
				c0.2,1.3,0.4,2.5,0.4,3.4C190.9,31.9,190.9,32.7,190.9,33.3z"/>
			<path class="st0" d="M198.5,36.2h-4.4c-0.4,0-0.8-0.1-1-0.3c-0.3-0.2-0.4-0.6-0.4-1.1c0-0.3,0-0.6,0-0.9s0.1-0.7,0.1-1h0.4
				c0.1,0.2,0.2,0.4,0.3,0.5c0.2,0.1,0.4,0.2,0.6,0.2h3.4c-0.1-1-0.4-1.7-0.8-2.3c-0.3-0.5-0.7-0.9-1.3-1.2l0.7-3
				c0.8,0.6,1.4,1.4,1.8,2.4c0.3,0.9,0.5,2.1,0.5,3.7L198.5,36.2L198.5,36.2z M196.8,23.3l-1.2,2.2l-2.3-1.2l1.2-2.2L196.8,23.3z"/>
			<path class="st0" d="M202.1,39.5c-0.1,0.2-0.1,0.4-0.2,0.5c-0.1,0.1-0.2,0.1-0.3,0.2l-2.1,0.6c0.1-0.2,0.2-0.4,0.3-0.5
				s0.3-0.2,0.5-0.3c-0.2-0.1-0.3-0.2-0.4-0.3c-0.1-0.1-0.1-0.2-0.1-0.3s0-0.2,0.1-0.3s0.1-0.2,0.2-0.3c0.4-0.6,0.8-0.8,1.3-0.8
				c0.1,0,0.2,0,0.3,0.1s0.1,0.2,0.1,0.3s0,0.2,0,0.3s-0.1,0.2-0.2,0.3c-0.3-0.2-0.5-0.2-0.7-0.2s-0.2,0-0.4,0.1
				c-0.1,0-0.1,0.1-0.2,0.2c0,0.1,0.2,0.2,0.5,0.4s0.5,0.3,0.7,0.3C201.5,39.7,201.7,39.6,202.1,39.5z M202.1,33.3
				c0,0.6-0.1,1.1-0.2,1.6s-0.4,1.1-0.8,1.9l-0.6-0.2c0.2-0.8,0.2-1.5,0.2-2c0-0.4,0-1-0.1-1.7c-0.1-0.8-0.1-1.5-0.2-2.3
				s-0.3-1.6-0.5-2.7c-0.1-0.4-0.1-0.6-0.1-0.8c0-0.2,0.1-0.5,0.3-1s0.5-1.1,0.8-1.8l0.6,3.5c0.2,1.3,0.4,2.5,0.4,3.4
				C202.1,31.9,202.1,32.7,202.1,33.3z"/>
			<path class="st0" d="M226.4,36.2c-0.7,0-1.2,0-1.5-0.1s-0.9-0.2-1.7-0.5c-0.4,0.3-0.7,0.4-1,0.5s-0.7,0.1-1.3,0.1h-1.6
				c0,1.5-0.5,2.6-1.4,3.3c-0.8,0.6-2.1,0.9-3.8,0.9c-1.6,0-2.8-0.3-3.7-0.9S209,38,209,37c0-0.9,0.1-1.7,0.4-2.5
				c0.3-0.8,0.9-1.9,1.8-3.2l0.6,0.4c-0.6,1.1-1.1,1.9-1.3,2.4s-0.3,1-0.3,1.5c0,0.7,0.4,1.2,1.1,1.7c0.7,0.4,1.7,0.6,2.9,0.6
				s2.2-0.2,3-0.7s1.2-1,1.2-1.7c0-0.4-0.1-0.8-0.2-1.2c-0.1-0.4-0.4-1-0.9-1.9l0.9-2.6c0.5,0.8,0.8,1.4,0.9,1.9
				c0.1,0.4,0.2,1,0.2,1.7h0.9c1,0,1.7-0.1,2.1-0.3c0.4-0.2,0.6-0.6,0.6-1.2c0-0.3,0-0.5,0.1-0.6c0-0.1,0.2-0.2,0.3-0.4l0.5-0.3
				c0,0.1,0,0.3,0,0.5s0,0.3,0,0.4c0,0.4-0.1,0.8-0.2,1.4c0.3,0.1,0.6,0.2,0.9,0.3c0.3,0.1,0.6,0.1,0.9,0.2c0-0.2-0.1-0.5-0.2-0.9
				c-0.2-0.3-0.2-0.6-0.2-0.7s0-0.2,0-0.2c0-0.1,0.1-0.2,0.2-0.3l0.9-1.3c0.2,0.4,0.3,0.8,0.4,1.1c0.1,0.3,0.1,0.8,0.1,1.3v3.8
				H226.4z"/>
			<path class="st0" d="M234.7,36.2c-0.7,0-1.5-0.1-2.4-0.4c-0.8-0.2-1.5-0.5-2.1-0.8c-0.4,0.6-0.8,0.9-1.4,1.1
				c-0.3,0.1-0.6,0.1-1.1,0.1h-1.9v-2.7h1.9c0.6,0,1.1-0.1,1.4-0.2c0.4-0.2,0.7-0.5,0.9-0.9c0.4-0.8,0.8-1.5,1.4-2
				c0.5-0.5,1-0.7,1.3-0.7s0.7,0.5,1.2,1.5c0.5,1.1,0.8,2,0.8,2.9L234.7,36.2L234.7,36.2z M232.9,33.2c0-0.1-0.1-0.4-0.4-0.7
				c-0.3-0.4-0.6-0.6-0.8-0.6c-0.3,0-0.5,0.3-0.6,0.9c0.3,0.1,0.6,0.2,0.8,0.3c0.5,0.2,0.8,0.3,0.9,0.3
				C232.8,33.4,232.9,33.3,232.9,33.2z"/>
			<path class="st0" d="M238.3,23.1c-0.1,0.2-0.2,0.3-0.3,0.4s-0.2,0.1-0.3,0.2l-2.1,0.6c0.1-0.2,0.2-0.4,0.3-0.5s0.3-0.2,0.5-0.2
				c-0.2-0.1-0.3-0.2-0.4-0.3c-0.1-0.1-0.1-0.2-0.1-0.3c0-0.1,0-0.2,0.1-0.3s0.1-0.2,0.2-0.3c0.4-0.6,0.8-0.8,1.3-0.8
				c0.1,0,0.2,0,0.3,0.1s0.1,0.2,0.1,0.3c0,0.1,0,0.2,0,0.3c0,0.1-0.1,0.2-0.2,0.3c-0.3-0.2-0.5-0.2-0.7-0.2s-0.2,0-0.4,0.1
				c-0.1,0-0.1,0.1-0.2,0.2c0,0.1,0.2,0.2,0.5,0.4s0.5,0.3,0.7,0.3C237.7,23.2,237.9,23.2,238.3,23.1z M238.3,33.3
				c0,0.6-0.1,1.1-0.2,1.6s-0.4,1.1-0.8,1.9l-0.6-0.2c0.2-0.8,0.2-1.5,0.2-2c0-0.4,0-1-0.1-1.7c-0.1-0.8-0.1-1.5-0.2-2.3
				s-0.3-1.6-0.5-2.7c-0.1-0.4-0.1-0.6-0.1-0.8c0-0.2,0.1-0.5,0.3-1s0.5-1.1,0.8-1.8l0.6,3.5c0.2,1.3,0.4,2.5,0.4,3.4
				C238.3,31.9,238.3,32.7,238.3,33.3z"/>
			<path class="st0" d="M252.9,36.2h-1.3c-0.2,0-0.4,0-0.6-0.1c-0.4-0.2-0.7-0.5-1-1c-0.4-0.7-0.6-1.6-0.7-2.8
				c-0.4,0.5-0.8,0.9-1,1.2c-0.4,0.3-0.7,0.5-0.9,0.5c-0.1,0-0.3,0-0.5-0.1l-1.2-0.2c-0.5-0.1-0.8-0.2-0.9-0.2
				c-0.1,0-0.2-0.1-0.2-0.2c0-0.2,0.2-0.7,0.7-1.7c0.5-0.9,0.8-1.5,1-1.7s0.5-0.4,0.9-0.7c0.2-0.2,0.6-0.4,1.1-0.7l0.5-0.3
				c0-0.1,0-0.2,0-0.3c0-0.1,0-0.2,0-0.3c0-0.2,0.1-0.6,0.2-0.9c0.1-0.4,0.3-0.8,0.6-1.4l0.9,6.1c0.1,1,0.3,1.6,0.6,1.9
				c0.2,0.2,0.4,0.3,0.6,0.3h1.3v2.6H252.9z M250.6,22.5l-1.1,1.8l-1.4-0.8l-0.8,1.5l-1.8-1l1-1.7l1.4,0.7l0.8-1.5L250.6,22.5z
				 M249.1,30.7l-0.2-1.2c-0.2,0.1-0.4,0.2-0.5,0.2c-0.4,0.2-0.6,0.4-0.9,0.5c-0.2,0.1-0.3,0.3-0.4,0.4c-0.1,0.1-0.2,0.3-0.2,0.3
				c0,0.1,0.1,0.2,0.3,0.2c0.2,0.1,0.5,0.1,0.7,0.1c0.1,0,0.3,0,0.4-0.1C248.6,31,248.8,30.9,249.1,30.7z"/>
			<path class="st0" d="M261.2,36.2c-0.7,0-1.5-0.1-2.4-0.4c-0.8-0.2-1.5-0.5-2.1-0.8c-0.4,0.6-0.8,0.9-1.4,1.1
				c-0.3,0.1-0.6,0.1-1.1,0.1h-1.9v-2.7h1.9c0.6,0,1.1-0.1,1.4-0.2c0.4-0.2,0.7-0.5,0.9-0.9c0.4-0.8,0.8-1.5,1.4-2
				c0.5-0.5,1-0.7,1.3-0.7s0.7,0.5,1.2,1.5c0.5,1.1,0.8,2,0.8,2.9L261.2,36.2L261.2,36.2z M259.4,33.2c0-0.1-0.1-0.4-0.4-0.7
				c-0.3-0.4-0.6-0.6-0.8-0.6c-0.3,0-0.5,0.3-0.6,0.9c0.3,0.1,0.6,0.2,0.8,0.3c0.5,0.2,0.8,0.3,0.9,0.3
				C259.3,33.4,259.4,33.3,259.4,33.2z"/>
			<path class="st0" d="M265.9,36.2h-5.4v-2.7h4.2l-1.2-6.6l-0.6-0.4c0-0.4,0.1-0.8,0.2-1.2c0.1-0.5,0.4-1.1,0.8-1.8l0.4,0.2
				c0,0,0,0.1,0,0.3c0,0.2,0.1,0.4,0.4,0.6c0.2,0.2,0.6,0.4,1.2,0.6c-0.1,0.4-0.1,0.8-0.3,1.2c-0.1,0.4-0.2,0.8-0.4,1.1l-0.4-0.1
				l1.1,6L265.9,36.2L265.9,36.2z"/>
			<path class="st0" d="M273.1,36.2h-7.9v-2.7h6.3c-0.3-0.3-0.5-0.6-0.7-0.8s-0.5-0.4-0.8-0.7c-0.4-0.3-0.7-0.6-1.1-0.9l-0.3,0.4
				c-0.6-0.6-0.9-0.9-1-1c-0.3-0.4-0.5-0.8-0.5-1.3c0-0.7,0-1.1,0.1-1.4c0.1-0.4,0.4-0.7,0.8-1s0.8-0.5,1.2-0.7
				c0.3-0.2,0.8-0.4,1.3-0.6c0.3-0.1,0.8-0.3,1.7-0.6v2.3c0,0-0.3,0.1-0.8,0.3c-0.6,0.2-1.1,0.4-1.5,0.5c-0.5,0.2-0.8,0.4-0.8,0.5
				s0.2,0.3,0.7,0.8c0.6,0.6,1.2,1.2,1.6,1.7c0.7,0.8,1.3,1.7,1.7,2.5L273.1,36.2L273.1,36.2z"/>
			<path class="st0" d="M279.3,43.2c0.5-1.2,0.9-2,1.1-2.7c0.2-0.6,0.4-1.3,0.6-2.1s0.3-1.6,0.4-2.3s0.1-1.5,0.1-2.2
				c0-1.5-0.2-3-0.5-4.4s-0.9-3.1-1.8-5h1.9c1,1.4,1.7,2.9,2.3,4.5c0.5,1.6,0.8,3.2,0.8,4.8c0,1.4-0.2,2.8-0.6,4.4
				c-0.5,1.7-1.3,3.5-2.4,5.2h-1.9V43.2z"/>
		</g>
	</g>
</g>
<rect class="st1" width="316.4" height="59.4"/>
</svg>
