<?xml version="1.0" encoding="utf-8"?>
<!-- Generator: Adobe Illustrator 22.0.1, SVG Export Plug-In . SVG Version: 6.00 Build 0)  -->
<svg version="1.1" id="Layer_1" xmlns="http://www.w3.org/2000/svg" xmlns:xlink="http://www.w3.org/1999/xlink" x="0px" y="0px"
	 viewBox="0 0 407.8 49.8" style="enable-background:new 0 0 407.8 49.8;" xml:space="preserve">
<style type="text/css">
	.st0{fill:#542C0B;}
	.st1{fill:none;}
</style>
<g>
	<g>
		<g>
			<path class="st0" d="M138.2,37.5h-1.9c-1-1.5-1.8-3.1-2.3-4.7s-0.8-3.2-0.8-4.7c0-1.9,0.3-3.7,1-5.3c0.6-1.5,1.3-2.8,2.1-4h1.9
				c-0.9,2-1.5,3.7-1.8,5c-0.3,1.4-0.5,2.9-0.5,4.4c0,1.1,0.1,2.2,0.3,3.3c0.2,1.1,0.5,2.2,0.8,3.2
				C137.2,35.3,137.6,36.3,138.2,37.5z"/>
			<path class="st0" d="M154.1,30.5h-1.3c-1.1,0-2.4,0-3.9,0.1c-0.9,0-2,0.1-3.4,0.1c-1.4,0.1-2.1,0.1-2.2,0.1c-1.4,0-2.4-0.2-3-0.7
				s-0.9-1.2-0.9-2.1c0-0.7,0.1-1.4,0.2-1.9c0.1-0.6,0.5-1.4,1-2.7l0.6,0.3c-0.5,1.1-0.7,1.9-0.7,2.4c0,0.7,0.3,1.2,0.8,1.4
				c0.6,0.3,1.6,0.5,3,0.5c1-0.1,2-0.1,2.9-0.2c0.9,0,1.8-0.1,2.7-0.1c-0.3-0.1-0.5-0.3-0.6-0.4c-0.1-0.2-0.2-0.4-0.2-0.7
				c0-0.9,0.3-1.9,0.8-2.8c0.6-1,1.3-1.5,2-1.5s1.2,0.5,1.5,1.4s0.4,2.2,0.4,4v2.8H154.1z M153.3,19l-1.2,2.2l-2.3-1.2l1.2-2.2
				L153.3,19z M152.5,26.6c-0.2-0.6-0.4-1.1-0.6-1.3c-0.1-0.2-0.3-0.3-0.6-0.3c-0.1,0-0.2,0-0.3,0.1s-0.1,0.2-0.1,0.4
				c0,0.2,0.1,0.4,0.4,0.6S152,26.4,152.5,26.6z"/>
			<path class="st0" d="M163.1,29.8c0,1.1-0.5,2.2-1.4,3.3s-1.9,1.6-2.8,1.6c-0.5,0-1.1-0.2-1.8-0.5c-0.6-0.3-1.6-1-3-2l0.4-0.6
				c0.7,0.5,1.3,0.8,1.7,0.9s0.8,0.2,1.3,0.2c0.6,0,1.3-0.2,1.9-0.5c0.7-0.4,1.5-1.1,2.3-2c-0.3,0-0.5,0.1-0.7,0.1
				c-0.6,0-1.2-0.2-1.5-0.6s-0.6-1-0.6-1.7c0-1,0.2-1.9,0.7-2.8c0.5-1,1-1.5,1.7-1.5c0.5,0,1,0.4,1.3,1.1c0.4,0.7,0.5,1.6,0.5,2.6
				L163.1,29.8L163.1,29.8z M161.9,27.8c-0.2-1-0.6-1.6-1.1-1.6c-0.2,0-0.4,0.1-0.5,0.2c-0.1,0.2-0.2,0.3-0.2,0.5s0.1,0.4,0.4,0.6
				c0.3,0.2,0.6,0.2,1,0.2L161.9,27.8L161.9,27.8z"/>
			<path class="st0" d="M171.7,30.7c0,0.4-0.2,0.9-0.7,1.6c-0.5,0.7-1,1.2-1.6,1.7c-0.7,0.5-1.3,0.8-1.7,0.8c-0.6,0-1.2-0.2-1.8-0.5
				s-1.5-0.8-2.7-1.7l0.4-0.6c0.6,0.4,1.1,0.7,1.4,0.8s0.7,0.2,1.2,0.2c0.4,0,0.9-0.1,1.3-0.4s1.1-0.7,1.8-1.4
				c1.1-1,1.6-1.7,1.6-2.2c0-0.3-0.1-0.6-0.3-1c-0.2-0.5-0.5-0.9-0.9-1.2l0.5-2.6c0.4,0.5,0.8,1,1,1.6s0.4,1.3,0.4,2v2.9H171.7z"/>
			<path class="st0" d="M182.2,30.5H171v-2.7h1.3c0.2,0,0.6-0.3,1.3-0.8c0.2-0.2,0.6-0.4,1-0.8c0-0.8,0-1.5-0.1-2
				c-0.1-0.6-0.2-1.1-0.3-1.7c0-0.1-0.2-0.8-0.5-2.1l-0.6-0.4c0.1-0.7,0.3-1.2,0.4-1.5c0.1-0.3,0.3-0.8,0.6-1.4l0.4,0.2
				c0,0,0,0.1,0,0.3c0,0.2,0.3,0.5,1,0.8c0.2,0.1,0.5,0.2,1,0.4c-0.1,0.5-0.2,1-0.3,1.4c-0.1,0.2-0.2,0.6-0.4,1l-0.4-0.1
				c0.2,0.9,0.3,1.6,0.4,2s0.1,0.8,0.1,1.2v0.1c0,0.2,0,0.3,0,0.4s0,0.3-0.1,0.5c0.3-0.2,0.7-0.5,1-0.7c0.5-0.4,1-0.7,1.4-0.9
				c0.5-0.3,1-0.4,1.3-0.4c0.8,0,1.4,0.2,1.8,0.6c0.5,0.4,0.8,1.1,0.8,1.9v4.7H182.2z M180.8,26.8c0-0.2-0.2-0.4-0.7-0.6
				s-0.9-0.3-1.3-0.3c-0.4,0-0.9,0.1-1.5,0.4c-0.5,0.3-1.3,0.8-2.3,1.5h2.6C179.8,27.8,180.8,27.5,180.8,26.8z M180.7,20l-1.2,2.2
				l-2.3-1.2l1.2-2.2L180.7,20z"/>
			<path class="st0" d="M186.9,30.5h-5.4v-2.7h4.2l-1.2-6.6l-0.6-0.4c0-0.4,0.1-0.8,0.2-1.2c0.1-0.5,0.4-1.1,0.8-1.8l0.4,0.2
				c0,0,0,0.1,0,0.3c0,0.2,0.1,0.4,0.4,0.6c0.2,0.2,0.6,0.4,1.2,0.6c-0.1,0.4-0.1,0.8-0.3,1.2c-0.1,0.4-0.2,0.8-0.4,1.1l-0.4-0.1
				l1.1,6V30.5z"/>
			<path class="st0" d="M190.5,27.6c0,0.6-0.1,1.1-0.2,1.6s-0.4,1.1-0.8,1.9l-0.6-0.2c0.2-0.8,0.2-1.5,0.2-2c0-0.4,0-1-0.1-1.7
				c-0.1-0.8-0.1-1.5-0.2-2.3s-0.3-1.6-0.5-2.7c-0.1-0.4-0.1-0.6-0.1-0.8c0-0.2,0.1-0.5,0.3-1s0.5-1.1,0.8-1.8l0.6,3.5
				c0.2,1.3,0.4,2.5,0.4,3.4C190.5,26.2,190.5,26.9,190.5,27.6z"/>
			<path class="st0" d="M207.6,30c0,0.9-0.1,1.6-0.3,2.2c-0.2,0.5-0.5,1-0.9,1.3s-1,0.6-1.8,0.8s-1.6,0.3-2.4,0.3
				c-1.6,0-2.8-0.3-3.7-0.9s-1.3-1.4-1.3-2.5c0-0.9,0.1-1.7,0.4-2.5c0.3-0.8,0.9-1.9,1.8-3.2l0.6,0.4c-0.6,1.1-1.1,1.9-1.3,2.4
				s-0.3,1-0.3,1.5c0,0.7,0.4,1.2,1.1,1.7c0.7,0.4,1.7,0.6,2.9,0.6s2.2-0.2,3-0.7s1.2-1,1.2-1.7c0-0.4-0.1-0.8-0.2-1.2
				c-0.1-0.4-0.4-1-0.9-1.9l0.9-2.6c0.5,0.8,0.7,1.4,0.8,1.7c0.2,0.6,0.3,1.3,0.3,2.2L207.6,30L207.6,30z M204.4,22.3l-1.2,2.2
				l-2.3-1.2l1.2-2.2L204.4,22.3z"/>
			<path class="st0" d="M215.9,30.5c-0.7,0-1.5-0.1-2.4-0.4c-0.8-0.2-1.5-0.5-2.1-0.8c-0.4,0.6-0.8,0.9-1.4,1.1
				c-0.3,0.1-0.6,0.1-1.1,0.1H207v-2.7h1.9c0.6,0,1.1-0.1,1.4-0.2c0.4-0.2,0.7-0.5,0.9-0.9c0.4-0.8,0.8-1.5,1.4-2
				c0.5-0.5,1-0.7,1.3-0.7s0.7,0.5,1.2,1.5c0.5,1.1,0.8,2,0.8,2.9L215.9,30.5L215.9,30.5z M214.1,27.5c0-0.1-0.1-0.4-0.4-0.7
				c-0.3-0.4-0.6-0.6-0.8-0.6c-0.3,0-0.5,0.3-0.6,0.9c0.3,0.1,0.6,0.2,0.8,0.3c0.5,0.2,0.8,0.3,0.9,0.3
				C214,27.6,214.1,27.6,214.1,27.5z"/>
			<path class="st0" d="M234.4,30.5h-8.2c-0.8,0-1.3,0-1.6,0s-0.5-0.1-0.8-0.2c-0.5-0.2-1-0.6-1.3-1.1c-0.3-0.6-0.5-1.2-0.5-1.9
				c0-0.3,0-0.5,0-0.7s0.1-0.5,0.2-0.7c0.1-0.4,0.2-0.8,0.4-1.1c0.1-0.3,0.4-0.7,0.7-1.2l0.5,0.4c-0.3,0.5-0.5,0.9-0.6,1.2
				c-0.1,0.3-0.2,0.6-0.2,0.9c0,0.4,0.1,0.7,0.4,1c0.2,0.3,0.5,0.5,0.9,0.6c0.2,0.1,0.5,0.1,0.9,0.1s0.8,0,1.2,0h7.1
				c-0.2-0.5-0.3-0.8-0.4-1.1c-0.1-0.2-0.4-0.6-0.7-0.9l0.9-2.3c0.5,0.7,0.8,1.3,1,1.9c0.1,0.5,0.2,1.3,0.2,2.2L234.4,30.5
				L234.4,30.5z M230.6,32.5l-1.2,2.2l-2.3-1.2l1.2-2.2L230.6,32.5z"/>
			<path class="st0" d="M241.6,30.5h-7.9v-2.7h6.3c-0.3-0.3-0.5-0.6-0.7-0.8c-0.2-0.2-0.5-0.4-0.8-0.7c-0.4-0.3-0.7-0.6-1.1-0.9
				l-0.3,0.4c-0.6-0.6-0.9-0.9-1-1c-0.3-0.4-0.5-0.8-0.5-1.3c0-0.7,0-1.1,0.1-1.4c0.1-0.4,0.4-0.7,0.8-1c0.4-0.3,0.8-0.5,1.2-0.7
				c0.3-0.2,0.8-0.4,1.3-0.6c0.3-0.1,0.8-0.3,1.7-0.6v2.3c0,0-0.3,0.1-0.8,0.3c-0.6,0.2-1.1,0.4-1.5,0.5c-0.5,0.2-0.8,0.4-0.8,0.5
				s0.2,0.3,0.7,0.8c0.6,0.6,1.2,1.2,1.6,1.7c0.7,0.8,1.3,1.7,1.7,2.5V30.5z"/>
			<path class="st0" d="M250.3,30.7c0,0.4-0.2,0.9-0.7,1.6c-0.5,0.7-1,1.2-1.6,1.7c-0.7,0.5-1.3,0.8-1.7,0.8c-0.6,0-1.2-0.2-1.8-0.5
				s-1.5-0.8-2.7-1.7l0.4-0.6c0.6,0.4,1.1,0.7,1.4,0.8s0.7,0.2,1.2,0.2c0.4,0,0.9-0.1,1.3-0.4s1.1-0.7,1.8-1.4
				c1.1-1,1.6-1.7,1.6-2.2c0-0.3-0.1-0.6-0.3-1c-0.2-0.5-0.5-0.9-0.9-1.2l0.5-2.6c0.4,0.5,0.8,1,1,1.6s0.4,1.3,0.4,2v2.9H250.3z"/>
			<path class="st0" d="M260.5,30.5h-1.4c-0.8,0-1.3-0.3-1.7-0.9c-0.4-0.7-0.6-1.9-0.6-3.5v-2.8c0-0.6-0.1-1.1-0.3-1.5
				c-0.1-0.2-0.3-0.4-0.6-0.7l1.1-2.4c0.4,0.5,0.6,1,0.8,1.5c0.2,0.6,0.3,1.3,0.3,2.3v1.9c0,1.4,0.1,2.3,0.3,2.8
				c0.1,0.4,0.4,0.6,0.7,0.6h1.4L260.5,30.5L260.5,30.5z"/>
			<path class="st0" d="M268.8,30.5c-0.7,0-1.5-0.1-2.4-0.4c-0.8-0.2-1.5-0.5-2.1-0.8c-0.4,0.6-0.8,0.9-1.4,1.1
				c-0.3,0.1-0.6,0.1-1.1,0.1h-1.9v-2.7h1.9c0.6,0,1.1-0.1,1.4-0.2c0.4-0.2,0.7-0.5,0.9-0.9c0.4-0.8,0.8-1.5,1.4-2
				c0.5-0.5,1-0.7,1.3-0.7s0.7,0.5,1.2,1.5c0.5,1.1,0.8,2,0.8,2.9L268.8,30.5L268.8,30.5z M267,27.5c0-0.1-0.1-0.4-0.4-0.7
				c-0.3-0.4-0.6-0.6-0.8-0.6c-0.3,0-0.5,0.3-0.6,0.9c0.3,0.1,0.6,0.2,0.8,0.3c0.5,0.2,0.8,0.3,0.9,0.3
				C266.9,27.6,267,27.6,267,27.5z"/>
			<path class="st0" d="M269.5,37.5c0.5-1.2,0.9-2,1.1-2.7c0.2-0.6,0.4-1.3,0.6-2.1s0.3-1.6,0.4-2.3c0.1-0.7,0.1-1.5,0.1-2.2
				c0-1.5-0.2-3-0.5-4.4s-0.9-3.1-1.8-5h1.9c1,1.4,1.7,2.9,2.3,4.5c0.5,1.6,0.8,3.2,0.8,4.8c0,1.4-0.2,2.8-0.6,4.4
				c-0.5,1.7-1.3,3.5-2.4,5.2h-1.9V37.5z"/>
		</g>
	</g>
</g>
<rect class="st1" width="407.8" height="49.8"/>
</svg>
