<?xml version="1.0" encoding="utf-8"?>
<!-- Generator: Adobe Illustrator 22.0.1, SVG Export Plug-In . SVG Version: 6.00 Build 0)  -->
<svg version="1.1" id="Layer_1" xmlns="http://www.w3.org/2000/svg" xmlns:xlink="http://www.w3.org/1999/xlink" x="0px" y="0px"
	 viewBox="0 0 316.4 59.4" style="enable-background:new 0 0 316.4 59.4;" xml:space="preserve">
<style type="text/css">
	.st0{fill:#542C0B;}
	.st1{fill:none;}
</style>
<g>
	<g>
		<g>
			<path class="st0" d="M38.5,41.9h-1.9c-1-1.5-1.8-3.1-2.3-4.7s-0.8-3.2-0.8-4.7c0-1.9,0.3-3.7,1-5.3c0.6-1.5,1.3-2.8,2.1-4h1.9
				c-0.9,2-1.5,3.7-1.8,5c-0.3,1.4-0.5,2.9-0.5,4.4c0,1.1,0.1,2.2,0.3,3.3s0.5,2.2,0.8,3.2C37.5,39.7,37.9,40.7,38.5,41.9z"/>
			<path class="st0" d="M53.8,34.6c0,1-0.5,1.9-1.6,2.7c-1,0.8-2.2,1.2-3.6,1.2c-1.1,0-2-0.3-2.6-0.8c-0.6-0.6-0.9-1.3-0.9-2.4
				c0-0.9,0.1-1.8,0.4-2.5c0.3-0.8,0.8-1.8,1.6-2.9l0.6,0.4c-0.5,0.8-0.9,1.4-1.1,2c-0.2,0.6-0.3,1.1-0.3,1.7c0,0.6,0.2,1,0.7,1.4
				c0.4,0.3,1.1,0.5,1.9,0.5c1.1,0,2.1-0.2,2.8-0.7c0.7-0.4,1.1-1,1.1-1.7c0-0.1,0-0.2,0-0.3s0-0.1,0-0.2c0-0.3,0-0.5-0.1-0.8
				c0-0.3-0.2-0.9-0.3-1.9c-0.3-1.5-0.6-3.1-0.8-4.6l-0.5-0.4c0-0.6,0.3-1.6,0.9-2.9l0.4,0.2c0,0.1,0,0.2,0,0.3
				c0,0.3,0.1,0.5,0.4,0.6c0.4,0.2,0.8,0.4,1.1,0.6c-0.1,0.6-0.1,1-0.2,1.2c-0.1,0.2-0.2,0.6-0.4,1.1L53,26.3c0,0.1,0.1,0.7,0.3,1.7
				s0.3,1.9,0.5,2.6c0.2,1.1,0.3,1.7,0.3,1.9v2.1H53.8z"/>
			<path class="st0" d="M61,34.8h-1.4c-0.5,0-1-0.1-1.4-0.3s-0.7-0.5-0.9-1c-0.4,0.5-1,0.9-1.7,1.1c-0.4,0.1-0.9,0.2-1.5,0.2h-1
				v-2.7h1c0.5,0,0.9,0,1.1-0.1c0.2-0.1,0.5-0.2,0.9-0.4c-0.2-0.4-0.4-0.7-0.5-0.8c-0.2-0.2-0.4-0.3-0.5-0.3s-0.1,0-0.2,0.1
				s-0.1,0.1-0.2,0.3l-0.4-0.1c0-1.2,0.2-2,0.6-2.5c0.4-0.5,1-0.8,1.9-0.8s1.6,0.2,2.1,0.5c0.5,0.4,0.8,0.8,0.8,1.5
				c0,0.3-0.1,0.6-0.2,1s-0.4,0.7-0.8,1.2c0.1,0.1,0.2,0.2,0.4,0.3s0.3,0.1,0.4,0.1H61V34.8z"/>
			<path class="st0" d="M67.1,34.8h-6.8v-2.7h5.9c0-0.6,0-1,0-1.2c-0.1-0.4-0.2-0.7-0.3-1c-0.2,0.4-0.5,0.7-0.8,0.9
				s-0.7,0.3-1.1,0.3c-0.5,0-1-0.2-1.3-0.5C62.1,30.4,62,30,62,29.4c0-0.8,0.2-1.7,0.7-2.7c0.5-1.2,1-1.7,1.6-1.7
				c0.7,0,1.3,0.6,1.9,1.8s0.9,2.5,0.9,3.8C67.1,30.6,67.1,34.8,67.1,34.8z M65.6,21.9l-1.2,2.2l-2.3-1.2l1.3-2.2L65.6,21.9z
				 M64.9,28.3c-0.2-0.3-0.3-0.5-0.5-0.6c-0.1-0.1-0.3-0.2-0.4-0.2c-0.2,0-0.4,0.1-0.5,0.3s-0.2,0.4-0.2,0.6s0.1,0.3,0.2,0.4
				c0.1,0.1,0.3,0.2,0.5,0.2c0.1,0,0.3,0,0.5-0.1S64.7,28.5,64.9,28.3z"/>
			<path class="st0" d="M79.8,34.8h-1.3c-1.2,0-2.2,0.1-3.2,0.3c-0.9,0.2-1.4,0.4-1.4,0.7c0.3,0.8,0.5,1.5,0.7,2.2s0.4,1.4,0.4,2
				c0,0.4,0,0.8-0.1,1.1s-0.3,0.6-0.5,0.9c-0.1-0.9-0.2-1.8-0.5-2.7c-0.1-0.3-0.3-1-0.6-2.1c-0.2-0.7-0.3-1.1-0.3-1.3
				c0-0.3,0.1-0.7,0.3-1.1c0.1-0.4,0.3-0.7,0.5-1s0.6-0.6,1.1-0.8s1.3-0.3,2.4-0.5c-0.5-0.7-1-1.1-1.4-1.1c-0.2,0-0.3,0.1-0.5,0.2
				c-0.1,0.1-0.4,0.4-0.7,0.9l-0.5-0.2c0.3-1,0.6-1.8,1.1-2.3s0.9-0.8,1.4-0.8c0.4,0,0.9,0.3,1.5,0.8c0.5,0.5,1.2,1.3,1.9,2.3v2.5
				H79.8z"/>
			<path class="st0" d="M92,34.8c-0.7,0-1.3-0.1-1.8-0.2c-0.5-0.1-1-0.3-1.4-0.5c-0.4,0.3-0.7,0.4-1,0.5s-0.7,0.1-1.3,0.1h-1.6
				c-0.4,0-0.8-0.1-1-0.3c-0.3-0.2-0.5-0.6-0.7-1.1c-0.4,0.5-0.8,0.9-1.2,1.2c-0.4,0.2-0.8,0.3-1.4,0.3h-1.4v-2.7h1.4
				c0.7,0,1.3-0.2,1.7-0.6c0.6-0.5,0.9-1.3,0.9-2.3l0.6,0.1c0,0.2,0,0.4,0,0.7c0,0.3,0,0.6,0,0.9s0.1,0.6,0.3,0.8
				c0.2,0.2,0.5,0.3,0.8,0.3H86c0.8,0,1.4-0.1,1.7-0.3c0.4-0.3,0.6-0.8,0.6-1.5c0-0.2,0-0.3,0.1-0.4s0.2-0.2,0.4-0.3l0.4-0.3
				c0,0.1,0,0.3,0,0.5s0,0.4,0,0.4c0,0.4-0.1,0.8-0.2,1.4c0.2,0.1,0.5,0.2,0.8,0.3c0.3,0.1,0.6,0.2,0.9,0.2c0-0.2-0.1-0.5-0.2-0.9
				s-0.2-0.6-0.2-0.7c0-0.2,0-0.3,0.1-0.4c0,0,0.1-0.1,0.2-0.3l0.8-1.1c0.2,0.4,0.3,0.8,0.4,1.1c0.1,0.3,0.1,0.8,0.1,1.3L92,34.8
				L92,34.8z"/>
			<path class="st0" d="M95.6,32c0,0.6-0.1,1.1-0.2,1.6s-0.4,1.1-0.8,1.9L94,35.3c0.2-0.8,0.2-1.5,0.2-2c0-0.4,0-1-0.1-1.7
				c-0.1-0.8-0.1-1.5-0.2-2.3s-0.3-1.6-0.5-2.7c-0.1-0.4-0.1-0.6-0.1-0.8c0-0.2,0.1-0.5,0.3-1c0.2-0.5,0.5-1.1,0.8-1.8l0.6,3.5
				c0.2,1.3,0.4,2.5,0.4,3.4C95.6,30.6,95.6,31.3,95.6,32z"/>
			<path class="st0" d="M110.9,34.2c0,1.1-0.5,2.2-1.4,3.3s-1.9,1.6-2.8,1.6c-0.5,0-1.1-0.2-1.8-0.5c-0.6-0.3-1.6-1-3-2l0.4-0.6
				c0.7,0.5,1.3,0.8,1.7,0.9c0.4,0.1,0.8,0.2,1.3,0.2c0.6,0,1.3-0.2,1.9-0.5c0.7-0.4,1.5-1.1,2.3-2c-0.3,0-0.5,0.1-0.7,0.1
				c-0.6,0-1.2-0.2-1.5-0.6s-0.6-1-0.6-1.7c0-1,0.2-1.9,0.7-2.8c0.5-1,1-1.5,1.7-1.5c0.5,0,1,0.4,1.3,1.1c0.4,0.7,0.5,1.6,0.5,2.6
				V34.2z M109.7,32.2c-0.2-1-0.6-1.6-1.1-1.6c-0.2,0-0.4,0.1-0.5,0.2c-0.1,0.2-0.2,0.3-0.2,0.5s0.1,0.4,0.4,0.6s0.6,0.2,1,0.2
				L109.7,32.2L109.7,32.2z"/>
			<path class="st0" d="M114.5,21.7c-0.1,0.2-0.2,0.3-0.3,0.4c-0.1,0.1-0.2,0.1-0.3,0.2l-2.1,0.6c0.1-0.2,0.2-0.4,0.3-0.5
				s0.3-0.2,0.5-0.2c-0.2-0.1-0.3-0.2-0.4-0.3c-0.1-0.1-0.1-0.2-0.1-0.3c0-0.1,0-0.2,0.1-0.3s0.1-0.2,0.2-0.3
				c0.4-0.6,0.8-0.8,1.3-0.8c0.1,0,0.2,0,0.3,0.1c0.1,0.1,0.1,0.2,0.1,0.3c0,0.1,0,0.2,0,0.3c0,0.1-0.1,0.2-0.2,0.3
				c-0.3-0.2-0.5-0.2-0.7-0.2s-0.2,0-0.4,0.1c-0.1,0-0.1,0.1-0.2,0.2c0,0.1,0.2,0.2,0.5,0.4s0.5,0.3,0.7,0.3
				C113.9,21.9,114.1,21.8,114.5,21.7z M114.5,32c0,0.6-0.1,1.1-0.2,1.6s-0.4,1.1-0.8,1.9l-0.6-0.2c0.2-0.8,0.2-1.5,0.2-2
				c0-0.4,0-1-0.1-1.7c-0.1-0.8-0.1-1.5-0.2-2.3s-0.3-1.6-0.5-2.7c-0.1-0.4-0.1-0.6-0.1-0.8c0-0.2,0.1-0.5,0.3-1
				c0.2-0.5,0.5-1.1,0.8-1.8l0.6,3.5c0.2,1.3,0.4,2.5,0.4,3.4C114.5,30.6,114.5,31.3,114.5,32z"/>
			<path class="st0" d="M129.8,34.6c0,1-0.5,1.9-1.6,2.7c-1,0.8-2.2,1.2-3.6,1.2c-1.1,0-2-0.3-2.6-0.8c-0.6-0.6-0.9-1.3-0.9-2.4
				c0-0.9,0.1-1.8,0.4-2.5c0.3-0.8,0.8-1.8,1.6-2.9l0.6,0.4c-0.5,0.8-0.9,1.4-1.1,2c-0.2,0.6-0.3,1.1-0.3,1.7c0,0.6,0.2,1,0.7,1.4
				c0.4,0.3,1.1,0.5,1.9,0.5c1.1,0,2.1-0.2,2.8-0.7c0.7-0.4,1.1-1,1.1-1.7c0-0.1,0-0.2,0-0.3s0-0.1,0-0.2c0-0.3,0-0.5-0.1-0.8
				c0-0.3-0.2-0.9-0.3-1.9c-0.3-1.5-0.6-3.1-0.8-4.6l-0.5-0.4c0-0.6,0.3-1.6,0.9-2.9l0.4,0.2c0,0.1,0,0.2,0,0.3
				c0,0.3,0.1,0.5,0.4,0.6c0.4,0.2,0.8,0.4,1.1,0.6c-0.1,0.6-0.1,1-0.2,1.2c-0.1,0.2-0.2,0.6-0.4,1.1l-0.3-0.1
				c0,0.1,0.1,0.7,0.3,1.7s0.3,1.9,0.5,2.6c0.2,1.1,0.3,1.7,0.3,1.9v2.1H129.8z"/>
			<path class="st0" d="M134.5,34.8h-1.4c-0.8,0-1.3-0.3-1.7-0.9c-0.4-0.7-0.6-1.9-0.6-3.5v-2.8c0-0.6-0.1-1.1-0.3-1.5
				c-0.1-0.2-0.3-0.4-0.6-0.7L131,23c0.4,0.5,0.6,1,0.8,1.5c0.2,0.6,0.3,1.3,0.3,2.3v1.9c0,1.4,0.1,2.3,0.3,2.8
				c0.1,0.4,0.4,0.6,0.7,0.6h1.4V34.8z"/>
			<path class="st0" d="M141.7,34.8h-1.4c-0.5,0-1-0.1-1.4-0.3s-0.7-0.5-0.9-1c-0.4,0.5-1,0.9-1.7,1.1c-0.4,0.1-0.9,0.2-1.5,0.2h-1
				v-2.7h1c0.5,0,0.9,0,1.1-0.1c0.2-0.1,0.5-0.2,0.9-0.4c-0.2-0.4-0.4-0.7-0.5-0.8c-0.2-0.2-0.4-0.3-0.5-0.3s-0.1,0-0.2,0.1
				s-0.1,0.1-0.2,0.3l-0.4-0.1c0-1.2,0.2-2,0.6-2.5c0.4-0.5,1-0.8,1.9-0.8s1.6,0.2,2.1,0.5c0.5,0.4,0.8,0.8,0.8,1.5
				c0,0.3-0.1,0.6-0.2,1s-0.4,0.7-0.8,1.2c0.1,0.1,0.2,0.2,0.4,0.3s0.3,0.1,0.4,0.1h1.4L141.7,34.8L141.7,34.8z"/>
			<path class="st0" d="M147.8,34.8H141v-2.7h5.9c0-0.6,0-1,0-1.2c-0.1-0.4-0.2-0.7-0.3-1c-0.2,0.4-0.5,0.7-0.8,0.9
				s-0.7,0.3-1.1,0.3c-0.5,0-1-0.2-1.3-0.5c-0.4-0.3-0.5-0.8-0.5-1.3c0-0.8,0.2-1.7,0.7-2.7c0.5-1.2,1-1.7,1.6-1.7
				c0.7,0,1.3,0.6,1.9,1.8s0.9,2.5,0.9,3.8v4.3H147.8z M146.4,21.9l-1.2,2.2l-2.3-1.2l1.3-2.2L146.4,21.9z M145.7,28.3
				c-0.2-0.3-0.3-0.5-0.5-0.6c-0.1-0.1-0.3-0.2-0.4-0.2c-0.2,0-0.4,0.1-0.5,0.3s-0.2,0.4-0.2,0.6s0.1,0.3,0.2,0.4
				c0.1,0.1,0.3,0.2,0.5,0.2c0.1,0,0.3,0,0.5-0.1S145.5,28.5,145.7,28.3z"/>
			<path class="st0" d="M164.2,34.4c0,0.9-0.1,1.6-0.3,2.2c-0.2,0.5-0.5,1-0.9,1.3s-1,0.6-1.8,0.8s-1.6,0.3-2.4,0.3
				c-1.6,0-2.8-0.3-3.7-0.9s-1.3-1.4-1.3-2.5c0-0.9,0.1-1.7,0.4-2.5c0.3-0.8,0.9-1.9,1.8-3.2l0.6,0.4c-0.6,1.1-1.1,1.9-1.3,2.4
				s-0.3,1-0.3,1.5c0,0.7,0.4,1.2,1.1,1.7c0.7,0.4,1.7,0.6,2.9,0.6s2.2-0.2,3-0.7s1.2-1,1.2-1.7c0-0.4-0.1-0.8-0.2-1.2
				c-0.1-0.4-0.4-1-0.9-1.9l0.9-2.6c0.5,0.8,0.7,1.4,0.8,1.7c0.2,0.6,0.3,1.3,0.3,2.2L164.2,34.4L164.2,34.4z M161,26.7l-1.2,2.2
				l-2.3-1.2l1.2-2.2L161,26.7z"/>
			<path class="st0" d="M172.8,35.1c0,0.4-0.2,0.9-0.7,1.6s-1,1.2-1.6,1.7c-0.7,0.5-1.3,0.8-1.7,0.8c-0.6,0-1.2-0.2-1.8-0.5
				s-1.5-0.8-2.7-1.7l0.4-0.6c0.6,0.4,1.1,0.7,1.4,0.8s0.7,0.2,1.2,0.2c0.4,0,0.9-0.1,1.3-0.4s1.1-0.7,1.8-1.4
				c1.1-1,1.6-1.7,1.6-2.2c0-0.3-0.1-0.6-0.3-1c-0.2-0.5-0.5-0.9-0.9-1.2l0.5-2.6c0.4,0.5,0.8,1,1,1.6s0.4,1.3,0.4,2v2.9H172.8z
				 M172.3,25.1l-1.2,2.2l-2.3-1.2l1.2-2.2L172.3,25.1z"/>
			<path class="st0" d="M181.9,34.2c0,1.1-0.5,2.2-1.4,3.3s-1.9,1.6-2.8,1.6c-0.5,0-1.1-0.2-1.8-0.5c-0.6-0.3-1.6-1-3-2l0.4-0.6
				c0.7,0.5,1.3,0.8,1.7,0.9c0.4,0.1,0.8,0.2,1.3,0.2c0.6,0,1.3-0.2,1.9-0.5c0.7-0.4,1.5-1.1,2.3-2c-0.3,0-0.5,0.1-0.7,0.1
				c-0.6,0-1.2-0.2-1.5-0.6s-0.6-1-0.6-1.7c0-1,0.2-1.9,0.7-2.8c0.5-1,1-1.5,1.7-1.5c0.5,0,1,0.4,1.3,1.1c0.4,0.7,0.5,1.6,0.5,2.6
				L181.9,34.2L181.9,34.2z M180.7,32.2c-0.2-1-0.6-1.6-1.1-1.6c-0.2,0-0.4,0.1-0.5,0.2c-0.1,0.2-0.2,0.3-0.2,0.5s0.1,0.4,0.4,0.6
				c0.3,0.2,0.6,0.2,1,0.2L180.7,32.2L180.7,32.2z"/>
			<path class="st0" d="M198.5,34.8h-0.8c-0.2,0-0.4,0-0.6,0.1s-0.2,0.1-0.2,0.2c0,0,0.2,0.1,0.5,0.2c0.3,0.1,0.5,0.3,0.5,0.6
				c0,0.4-0.1,0.8-0.2,1.3c-0.1,0.5-0.3,1-0.4,1.4c-0.1,0.3-0.5,0.7-1.2,1.1c-0.7,0.4-1.5,0.8-2.4,1.1c-1,0.3-2,0.5-2.9,0.5
				c-1.1,0-1.9-0.2-2.4-0.7s-0.8-1.2-0.8-2.1c0-1,0.1-1.9,0.4-2.7c0.3-0.9,0.9-2.1,1.8-3.6l0.5,0.4c-0.6,1-1,1.9-1.3,2.5
				c-0.2,0.6-0.3,1.2-0.3,1.8s0.2,1.1,0.6,1.4c0.4,0.3,0.9,0.5,1.6,0.5c0.8,0,1.7-0.1,2.7-0.4c0.9-0.2,1.6-0.5,2.2-0.8
				s0.9-0.6,0.9-0.8c0-0.1-0.2-0.1-0.5-0.1c-0.4,0-0.7,0-1,0c-0.7,0-1.1,0-1.3-0.1s-0.3-0.2-0.3-0.4c0-0.4,0.1-0.7,0.2-1.1
				c0.1-0.4,0.3-0.7,0.5-0.9c0.4-0.5,0.9-1,1.5-1.3c0.7-0.4,1.2-0.6,1.8-0.6h1.1v2.5H198.5z"/>
			<path class="st0" d="M203.2,34.8h-5.4v-2.7h4.2l-1.2-6.6l-0.6-0.4c0-0.4,0.1-0.8,0.2-1.2c0.1-0.5,0.4-1.1,0.8-1.8l0.4,0.2
				c0,0,0,0.1,0,0.3c0,0.2,0.1,0.4,0.4,0.6c0.2,0.2,0.6,0.4,1.2,0.6c-0.1,0.4-0.1,0.8-0.3,1.2c-0.1,0.4-0.2,0.8-0.4,1.1l-0.4-0.1
				l1.1,6V34.8z"/>
			<path class="st0" d="M212.9,30.2l-1.1,2.8c-1.8,0.5-3.2,1-4.3,1.3c-1,0.3-1.8,0.4-2.5,0.5c-0.5,0.1-1,0.1-1.5,0.1h-0.9v-2.7h1.1
				c0.2,0,0.3,0,0.4,0c0.2,0,0.4,0,0.6-0.1c-0.3-0.5-0.5-0.9-0.7-1.2s-0.2-0.6-0.2-1c0-1,0.4-1.8,1.2-2.5s1.7-1.1,2.8-1.1
				c0.7,0,1.4,0.2,2.1,0.7c0.6,0.4,1,1,1.3,1.6l-0.4,0.4c-0.5-0.2-0.9-0.3-1.2-0.4s-0.7-0.1-1.1-0.1c-0.8,0-1.5,0.1-2.1,0.2
				c-0.7,0.2-1.1,0.4-1.1,0.7c0,0.4,0.9,1.2,2.7,2.2L212.9,30.2z"/>
			<path class="st0" d="M228,31.1l-0.8,2.2c-1,0.2-1.8,0.5-2.5,0.8c-0.6,0.3-1.1,0.7-1.7,1.1c-0.3,0.3-0.8,0.8-1.4,1.5l-0.6-0.2
				c0-0.4,0.1-0.9,0.3-1.3c0.2-0.3,0.5-0.8,0.9-1.3c-0.6-0.6-1-1.1-1.2-1.3c-0.2-0.3-0.3-0.6-0.3-0.8c0-0.4,0.3-1,0.8-1.9
				s0.9-1.5,1.3-1.9s0.8-0.5,1.3-0.5s0.9,0.1,1.2,0.3s0.7,0.5,1.1,1.1l-1.3,2.2c-0.3-0.3-0.6-0.6-0.9-0.8c-0.3-0.2-0.5-0.2-0.8-0.2
				c-0.2,0-0.4,0.1-0.5,0.2c-0.2,0.1-0.2,0.2-0.2,0.4c0,0.2,0.1,0.4,0.4,0.6s0.7,0.5,1.4,0.8c0.8-0.4,1.4-0.6,1.8-0.8
				C226.8,31.2,227.3,31.1,228,31.1z"/>
			<path class="st0" d="M233.6,34.8h-1.4c-0.8,0-1.3-0.3-1.7-0.9c-0.4-0.7-0.6-1.9-0.6-3.5v-2.8c0-0.6-0.1-1.1-0.3-1.5
				c-0.1-0.2-0.3-0.4-0.6-0.7l1.1-2.4c0.4,0.5,0.6,1,0.8,1.5c0.2,0.6,0.3,1.3,0.3,2.3v1.9c0,1.4,0.1,2.3,0.3,2.8
				c0.1,0.4,0.4,0.6,0.7,0.6h1.4V34.8z"/>
			<path class="st0" d="M244.1,34.8h-11.2v-2.7h6.9c-0.8-0.8-1.5-1.4-2.2-1.8c-0.6-0.3-1.2-0.5-1.7-0.5c-0.2,0-0.3,0-0.5,0
				c-0.1,0-0.3,0.1-0.6,0.1c0.4-0.8,0.8-1.4,1.2-1.8s0.9-0.6,1.5-0.6c0.4,0,0.8,0.1,1.2,0.3c0.4,0.2,0.8,0.5,1.3,1
				c0.4,0.4,0.9,0.9,1.7,1.7c0.5,0.5,0.9,0.9,1.1,1.1c0.3,0.2,0.6,0.3,1.2,0.4v2.8H244.1z M240.5,37l-1.2,2.2L237,38l1.2-2.2
				L240.5,37z"/>
			<path class="st0" d="M254.3,34.8H253c-0.8,0-1.3-0.3-1.7-0.9c-0.4-0.7-0.6-1.9-0.6-3.5v-2.8c0-0.6-0.1-1.1-0.3-1.5
				c-0.1-0.2-0.3-0.4-0.6-0.7L251,23c0.4,0.5,0.6,1,0.8,1.5c0.2,0.6,0.3,1.3,0.3,2.3v1.9c0,1.4,0.1,2.3,0.3,2.8
				c0.1,0.4,0.4,0.6,0.7,0.6h1.4v2.7H254.3z"/>
			<path class="st0" d="M262.6,34.8c-0.7,0-1.5-0.1-2.4-0.4c-0.8-0.2-1.5-0.5-2.1-0.8c-0.4,0.6-0.8,0.9-1.4,1.1
				c-0.3,0.1-0.6,0.1-1.1,0.1h-1.9v-2.7h1.9c0.6,0,1.1-0.1,1.4-0.2c0.4-0.2,0.7-0.5,0.9-0.9c0.4-0.8,0.8-1.5,1.4-2
				c0.5-0.5,1-0.7,1.3-0.7s0.7,0.5,1.2,1.5c0.5,1.1,0.8,2,0.8,2.9L262.6,34.8L262.6,34.8z M260.8,31.9c0-0.1-0.1-0.4-0.4-0.7
				c-0.3-0.4-0.6-0.6-0.8-0.6c-0.3,0-0.5,0.3-0.6,0.9c0.3,0.1,0.6,0.2,0.8,0.3c0.5,0.2,0.8,0.3,0.9,0.3
				C260.7,32,260.8,32,260.8,31.9z"/>
			<path class="st0" d="M271.7,34.2c0,1.1-0.5,2.2-1.4,3.3s-1.9,1.6-2.8,1.6c-0.5,0-1.1-0.2-1.8-0.5c-0.6-0.3-1.6-1-3-2l0.4-0.6
				c0.7,0.5,1.3,0.8,1.7,0.9c0.4,0.1,0.8,0.2,1.3,0.2c0.6,0,1.3-0.2,1.9-0.5c0.7-0.4,1.5-1.1,2.3-2c-0.3,0-0.5,0.1-0.7,0.1
				c-0.6,0-1.2-0.2-1.5-0.6s-0.6-1-0.6-1.7c0-1,0.2-1.9,0.7-2.8c0.5-1,1-1.5,1.7-1.5c0.5,0,1,0.4,1.3,1.1c0.4,0.7,0.5,1.6,0.5,2.6
				V34.2z M270.5,32.2c-0.2-1-0.6-1.6-1.1-1.6c-0.2,0-0.4,0.1-0.5,0.2c-0.1,0.2-0.2,0.3-0.2,0.5s0.1,0.4,0.4,0.6s0.6,0.2,1,0.2
				L270.5,32.2L270.5,32.2z"/>
			<path class="st0" d="M277.9,41.9c0.5-1.2,0.9-2,1.1-2.7c0.2-0.6,0.4-1.3,0.6-2.1s0.3-1.6,0.4-2.3s0.1-1.5,0.1-2.2
				c0-1.5-0.2-3-0.5-4.4s-0.9-3.1-1.8-5h1.9c1,1.4,1.7,2.9,2.3,4.5c0.5,1.6,0.8,3.2,0.8,4.8c0,1.4-0.2,2.8-0.6,4.4
				c-0.5,1.7-1.3,3.5-2.4,5.2h-1.9V41.9z"/>
		</g>
	</g>
</g>
<rect class="st1" width="316.4" height="59.4"/>
</svg>
