<?xml version="1.0" encoding="utf-8"?>
<!-- Generator: Adobe Illustrator 19.2.0, SVG Export Plug-In . SVG Version: 6.00 Build 0)  -->
<svg version="1.1" id="Layer_1" xmlns="http://www.w3.org/2000/svg" xmlns:xlink="http://www.w3.org/1999/xlink" x="0px" y="0px"
	 viewBox="0 0 407.8 49.5" style="enable-background:new 0 0 407.8 49.5;" xml:space="preserve">
<style type="text/css">
	.st0{fill:#BA0017;}
	.st1{fill:none;}
</style>
<g>
	<g>
		<g>
			<g>
				<path class="st0" d="M132,21.9c-0.1,0-0.1,0,0-0.1c0.1-0.1,0.1-0.1,0.2-0.2c0.2-0.1,0.4-0.3,0.6-0.4s0.4-0.2,0.6-0.4
					c0.2-0.1,0.4-0.3,0.5-0.4c0.2-0.1,0.4-0.3,0.5-0.5c-0.2,0-0.3-0.1-0.5-0.2s-0.3-0.2-0.4-0.4c-0.1-0.1-0.1-0.2-0.1-0.3
					c0-0.1,0-0.2,0-0.3c0.1-0.1,0.1-0.3,0.2-0.5c0.1-0.2,0.2-0.3,0.3-0.5c0.1-0.1,0.2-0.3,0.4-0.3c0.1-0.1,0.3-0.1,0.5-0.1
					c0.1,0,0.2,0,0.3,0.1c0.1,0.1,0.1,0.2,0.2,0.3s0.1,0.3,0.1,0.4c0,0.1,0,0.3,0,0.4s0,0.3,0,0.4c0,0.1,0,0.2,0,0.3c0,0,0,0,0,0.1
					c0.1,0,0.1,0.1,0.2,0.1s0,0.1,0.1,0.1c0,0.1,0,0.2,0,0.3c0,0.1-0.1,0.2-0.1,0.3c0,0.1-0.1,0.1-0.1,0.1c0,0-0.1,0-0.1-0.1
					c0,0-0.1-0.1-0.1-0.1s-0.1-0.1-0.1-0.1c-0.2,0.2-0.4,0.4-0.5,0.6c-0.2,0.2-0.3,0.3-0.5,0.4c-0.2,0.1-0.4,0.2-0.6,0.4
					c-0.2,0.1-0.5,0.2-0.7,0.3c-0.1,0-0.2,0.1-0.3,0.1S132.1,22,132,21.9z M134,18.6c0.1,0.2,0.3,0.3,0.4,0.4
					c0.2,0.1,0.3,0.2,0.5,0.2h0c0-0.1,0-0.1,0-0.2s0-0.2,0-0.2c0-0.1,0-0.2,0-0.2c0-0.1-0.1-0.1-0.1-0.2c0,0-0.1-0.1-0.2-0.1
					s-0.2,0-0.3,0c-0.1,0-0.2,0.1-0.2,0.1S134,18.5,134,18.6z"/>
				<path class="st0" d="M134.7,25.2c0-0.2,0.1-0.4,0.1-0.6c0-0.2,0.1-0.3,0.1-0.5c0-0.1,0.1-0.1,0.1-0.1c0.1,0,0.1,0,0.1,0.1
					c0,0.1,0.1,0.2,0.1,0.3c0,0.1,0.1,0.2,0.1,0.4s0.1,0.3,0.1,0.4c0,0.1,0.1,0.3,0.1,0.4c0.1,0.5,0.2,0.9,0.4,1.3
					c0.1,0.4,0.3,0.9,0.5,1.2c0.2,0.5,0.5,0.9,0.9,1.2c0.4,0.3,0.8,0.4,1.4,0.4h0.2c0.2,0,0.3,0.1,0.4,0.2c0.1,0.1,0.1,0.3,0.1,0.5
					s0,0.3-0.1,0.5c-0.1,0.1-0.2,0.2-0.4,0.2h-0.2c-0.3,0-0.6,0-0.9-0.1s-0.5-0.2-0.8-0.3s-0.5-0.4-0.7-0.7
					c-0.2-0.3-0.4-0.7-0.6-1.1c-0.1,0.4-0.3,0.7-0.6,1c-0.3,0.2-0.6,0.4-0.9,0.6c-0.2,0.1-0.4,0.2-0.7,0.2c-0.3,0.1-0.6,0.1-0.9,0.2
					s-0.6,0-0.9,0s-0.5-0.1-0.7-0.3c-0.1-0.1-0.2-0.2-0.2-0.3c0-0.1-0.1-0.3-0.1-0.5c0-0.2,0-0.3,0-0.5c0-0.2,0.1-0.3,0.1-0.4
					c0,0,0-0.1,0.1-0.1s0.1,0,0.1,0.1c0.1,0.2,0.2,0.3,0.4,0.4s0.3,0.1,0.5,0.1c0.2,0,0.4,0,0.6,0c0.2,0,0.5,0,0.7-0.1
					c0.2,0,0.5-0.1,0.7-0.2c0.2-0.1,0.5-0.2,0.7-0.2c0.2-0.1,0.4-0.2,0.5-0.3c0.2-0.1,0.3-0.3,0.3-0.4c-0.2-0.5-0.3-1-0.4-1.5
					C134.9,26.3,134.8,25.8,134.7,25.2z"/>
				<path class="st0" d="M138.5,31.1c-0.2,0-0.3-0.1-0.4-0.2c-0.1-0.1-0.1-0.3-0.1-0.5s0-0.3,0.1-0.5s0.2-0.2,0.4-0.2h0.2
					c0.2,0,0.4,0,0.6,0s0.5-0.1,0.7-0.1c0.2-0.1,0.5-0.2,0.7-0.3s0.5-0.2,0.7-0.4c-0.1-0.2-0.3-0.3-0.5-0.4
					c-0.2-0.1-0.4-0.2-0.5-0.2c-0.1,0-0.3,0-0.4,0c-0.1,0-0.2,0.1-0.4,0.2c-0.1,0-0.1,0.1-0.2,0c0,0-0.1-0.1-0.1-0.2
					c0-0.1,0-0.2,0.1-0.3c0-0.1,0.1-0.3,0.1-0.4c0.1-0.1,0.1-0.3,0.2-0.4c0.1-0.1,0.2-0.3,0.3-0.4c0.5-0.5,1.2-0.7,1.9-0.7
					c0.2,0,0.4,0,0.7,0.1c0.2,0,0.5,0.1,0.7,0.2c0.2,0.1,0.4,0.2,0.6,0.4c0.2,0.2,0.2,0.4,0.2,0.6c0,0.4-0.1,0.7-0.2,0.9
					c-0.2,0.3-0.4,0.5-0.7,0.7c0.1,0.2,0.2,0.3,0.4,0.4c0.2,0.1,0.3,0.2,0.5,0.2c0.2,0.1,0.4,0.1,0.6,0.1c0.2,0,0.5,0,0.7,0h0.2
					c0.2,0,0.3,0.1,0.4,0.2c0.1,0.1,0.1,0.3,0.1,0.5s0,0.3-0.1,0.5c-0.1,0.1-0.2,0.2-0.4,0.2h-0.2c-0.7,0-1.3-0.1-1.9-0.4
					c-0.5-0.2-1-0.6-1.4-1.1c-0.3,0.3-0.6,0.5-0.9,0.7s-0.6,0.3-0.9,0.5S140,31,139.7,31c-0.3,0.1-0.6,0.1-0.9,0.1H138.5z"/>
				<path class="st0" d="M149,21.2c-0.3,0.1-0.6,0.3-1,0.4c-0.3,0.1-0.7,0.3-1,0.4s-0.6,0.3-0.9,0.4s-0.5,0.2-0.7,0.3
					c0,0-0.1,0-0.1,0c0,0,0,0,0-0.1c0,0,0-0.1,0.1-0.2c0-0.1,0.1-0.2,0.1-0.3c0-0.1,0.1-0.2,0.1-0.3c0-0.1,0.1-0.1,0.1-0.1
					c0.1-0.1,0.1-0.1,0.2-0.2l3.5-1.5c0.1,0,0.1,0,0.1,0.1c0,0.1-0.1,0.1-0.1,0.2s-0.1,0.2-0.1,0.2s-0.1,0.2-0.1,0.2
					c0,0.1-0.1,0.1-0.1,0.2C149.2,21.1,149.1,21.1,149,21.2z"/>
				<path class="st0" d="M147.9,26.2C147.9,26.1,147.9,26.1,147.9,26.2c0.1-0.1,0.1,0,0.2,0c0.2,0.2,0.3,0.4,0.5,0.6
					c0.1,0.2,0.3,0.4,0.4,0.6s0.2,0.4,0.3,0.7c0.1,0.2,0.1,0.5,0.1,0.7c0,0.1,0,0.2,0,0.3c0,0.1,0,0.3-0.1,0.4
					c0,0.1-0.1,0.3-0.1,0.4c0,0.1-0.1,0.2-0.1,0.3c-0.1,0.2-0.3,0.4-0.6,0.5c-0.3,0.1-0.5,0.2-0.8,0.3c-0.3,0.1-0.6,0.1-0.9,0.1
					c-0.3,0-0.6,0-0.9,0h-0.2c-0.2,0-0.3-0.1-0.4-0.2c-0.1-0.1-0.1-0.3-0.1-0.5s0-0.3,0.1-0.5c0.1-0.1,0.2-0.2,0.4-0.2h0.2
					c0.1,0,0.3,0,0.6,0s0.5,0,0.8,0c0.3,0,0.6-0.1,0.8-0.1c0.3,0,0.5-0.1,0.6-0.2c0.1-0.1,0.1-0.1,0.1-0.2c-0.1-0.3-0.3-0.6-0.5-0.9
					c-0.2-0.3-0.4-0.5-0.7-0.8c0-0.2,0.1-0.4,0.2-0.6C147.8,26.6,147.8,26.4,147.9,26.2z M147.1,32.9l1.1,0.9c0,0,0.1,0.1,0,0.1
					l-0.7,0.9c0,0.1-0.1,0.1-0.1,0l-1.1-0.9c0,0,0-0.1,0-0.2l0.7-0.9C147,32.9,147.1,32.9,147.1,32.9z"/>
				<path d="M161.4,29.6c0.1-0.3,0.1-0.5,0.2-0.7c0.1-0.2,0.1-0.4,0.2-0.6c0-0.1,0-0.1,0.1-0.1c0,0,0.1,0,0.1,0.1
					c0.1,0.2,0.3,0.4,0.4,0.6s0.2,0.4,0.4,0.6c0.1,0.1,0.2,0.1,0.3,0.1s0.2,0.1,0.4,0.1c0.1,0,0.2,0,0.3,0s0.2,0,0.2,0h0.2
					c0.2,0,0.3,0.1,0.4,0.2c0.1,0.1,0.1,0.3,0.1,0.5s0,0.3-0.1,0.5c-0.1,0.1-0.2,0.2-0.4,0.2h-0.2c-0.3,0-0.6,0-0.9-0.1
					c0,0.3,0.1,0.7,0.1,1.1c0,0.4,0,0.8-0.1,1.1c-0.1,0.6-0.3,1.1-0.7,1.6c-0.3,0.4-0.8,0.8-1.2,1.1c-0.5,0.3-1,0.5-1.6,0.6
					c-0.6,0.1-1.1,0.2-1.7,0.2c-0.5,0-0.9-0.1-1.4-0.2c-0.4-0.2-0.8-0.4-1.1-0.7c-0.3-0.3-0.5-0.6-0.7-1s-0.3-0.9-0.3-1.4
					c0-0.6,0.1-1.1,0.3-1.6c0.2-0.5,0.4-1,0.8-1.5c0-0.1,0.1-0.1,0.1-0.1s0,0,0.1,0c0,0,0,0.1,0,0.1c0,0,0,0.1,0,0.1
					c-0.3,0.5-0.5,1.1-0.5,1.7c-0.1,0.6,0,1.1,0.2,1.6c0.1,0.2,0.2,0.4,0.4,0.6c0.2,0.2,0.3,0.4,0.6,0.5s0.5,0.3,0.8,0.3
					c0.3,0.1,0.6,0.1,1,0.1c0.4,0,0.8,0,1.3-0.1c0.4-0.1,0.8-0.2,1.2-0.3c0.4-0.2,0.8-0.3,1.1-0.6c0.3-0.2,0.7-0.5,0.9-0.9
					c0-0.3,0-0.6-0.1-0.9c-0.1-0.3-0.1-0.7-0.2-1s-0.2-0.7-0.4-1C161.7,30.2,161.5,29.9,161.4,29.6z M159.5,25.6l1.1,0.9
					c0,0,0.1,0.1,0,0.1l-0.7,0.9c0,0.1-0.1,0.1-0.1,0l-1.1-0.9c0,0,0-0.1,0-0.2l0.7-0.9C159.4,25.6,159.5,25.6,159.5,25.6z"/>
				<path d="M168.8,33.2c-0.6,0.2-1.2,0.4-1.8,0.7c-0.6,0.2-1.1,0.4-1.7,0.6c-0.1,0-0.1,0-0.1-0.1c0-0.1,0.1-0.2,0.2-0.4
					c0.1-0.1,0.1-0.3,0.2-0.3c0,0,0.1-0.1,0.1-0.1c0.2-0.1,0.4-0.1,0.6-0.2c0.3-0.1,0.5-0.2,0.9-0.3c0.3-0.1,0.6-0.2,1-0.4
					c0.3-0.1,0.7-0.2,1-0.3c0.1,0,0.1,0,0.1,0.1c0,0.1-0.1,0.1-0.1,0.2s-0.1,0.1-0.1,0.2c0,0.1-0.1,0.1-0.1,0.2
					c0,0.1-0.1,0.1-0.1,0.1C168.9,33.1,168.9,33.1,168.8,33.2C168.9,33.1,168.8,33.2,168.8,33.2z"/>
				<path d="M163.9,29.7c0.3,0,0.5,0,0.8,0c0.3,0,0.5,0,0.7-0.1c0.2-0.1,0.4-0.1,0.6-0.2s0.3-0.2,0.4-0.4c0.2-0.3,0.3-0.7,0.5-1
					c0.1-0.3,0.3-0.6,0.5-1c0.1-0.1,0.2-0.2,0.3-0.4c0.1-0.1,0.2-0.3,0.4-0.4c0.1-0.1,0.3-0.2,0.4-0.3c0.1-0.1,0.3-0.1,0.4-0.1
					c0.2,0,0.3,0.1,0.4,0.2s0.3,0.2,0.4,0.4c0.1,0.2,0.2,0.3,0.4,0.5c0.1,0.2,0.2,0.4,0.3,0.6c0.1,0.2,0.1,0.4,0.2,0.6
					s0.1,0.4,0,0.5c0,0.1,0,0.3-0.1,0.4c0,0.1-0.1,0.3-0.1,0.4s-0.1,0.2-0.2,0.3s-0.2,0.2-0.3,0.2c-0.1,0-0.3,0.1-0.6,0
					c-0.2,0-0.5-0.1-0.8-0.1c-0.3-0.1-0.6-0.2-0.9-0.3c-0.3-0.1-0.6-0.3-0.8-0.5c-0.2,0.7-0.6,1.2-1.1,1.5c-0.5,0.3-1.1,0.5-1.8,0.5
					h-0.2c-0.2,0-0.3-0.1-0.4-0.2c-0.1-0.1-0.1-0.3-0.1-0.5s0-0.3,0.1-0.5c0.1-0.1,0.2-0.2,0.4-0.2H163.9z M169.6,28.6
					c0,0,0-0.1,0-0.1s-0.1-0.2-0.1-0.3c0-0.1-0.1-0.2-0.1-0.3c0-0.1-0.1-0.1-0.1-0.2c-0.1-0.1-0.1-0.1-0.2-0.2
					c-0.1-0.1-0.1-0.1-0.2-0.2c-0.1-0.1-0.2-0.1-0.2-0.1c-0.1,0-0.2-0.1-0.3,0c-0.1,0-0.2,0-0.3,0.1c-0.1,0-0.2,0.1-0.3,0.2
					s-0.1,0.2-0.2,0.2c-0.1,0.1-0.1,0.2-0.1,0.3c0.3,0.3,0.6,0.4,1,0.5C168.8,28.6,169.2,28.6,169.6,28.6z"/>
				<path d="M176,22.3c-0.3,0.1-0.6,0.3-1,0.4c-0.3,0.1-0.7,0.3-1,0.4s-0.6,0.3-0.9,0.4s-0.5,0.2-0.7,0.3c0,0-0.1,0-0.1,0
					c0,0,0,0,0-0.1c0,0,0-0.1,0.1-0.2c0-0.1,0.1-0.2,0.1-0.3c0-0.1,0.1-0.2,0.1-0.3c0-0.1,0.1-0.1,0.1-0.1c0.1-0.1,0.1-0.1,0.2-0.2
					l3.5-1.5c0.1,0,0.1,0,0.1,0.1c0,0.1-0.1,0.1-0.1,0.2s-0.1,0.2-0.1,0.2s-0.1,0.2-0.1,0.2c0,0.1-0.1,0.1-0.1,0.2
					C176.1,22.2,176.1,22.3,176,22.3z"/>
				<path d="M176.7,29.5c-0.1,0.3-0.2,0.5-0.5,0.6s-0.5,0.3-0.8,0.3c-0.2,0-0.3,0-0.5-0.1c-0.1-0.1-0.3-0.2-0.4-0.3
					s-0.2-0.3-0.2-0.5c-0.1-0.2-0.1-0.4-0.1-0.5c0-0.1,0-0.3,0.1-0.4c0-0.2,0.1-0.3,0.2-0.5s0.1-0.3,0.2-0.5
					c0.1-0.2,0.2-0.3,0.3-0.5c0.1-0.1,0.2-0.2,0.3-0.3c0.1-0.1,0.2-0.1,0.4-0.1c0.2,0,0.5,0.1,0.7,0.3c0.2,0.2,0.4,0.4,0.5,0.7
					s0.3,0.6,0.4,1c0.1,0.3,0.1,0.7,0.1,1c0,0.4-0.1,0.9-0.2,1.3s-0.2,0.9-0.4,1.4c-0.2,0.5-0.4,0.9-0.6,1.3s-0.5,0.7-0.7,1
					c-0.2,0.3-0.5,0.5-0.8,0.7c-0.3,0.2-0.6,0.3-0.9,0.4c-0.3,0.1-0.6,0.2-1,0.2c-0.3,0-0.7,0-1,0c-0.4,0-0.7-0.1-1.1-0.1
					c-0.4-0.1-0.7-0.1-1-0.2c0,0-0.1,0-0.1-0.1c0,0,0-0.1,0-0.1c0,0,0.1-0.1,0.1-0.1s0.1,0,0.2,0c0.5,0.1,1,0.1,1.4,0
					c0.5-0.1,0.9-0.2,1.4-0.3c0.4-0.1,0.7-0.3,1.1-0.5s0.7-0.5,1-0.8c0.2-0.2,0.5-0.4,0.7-0.7c0.2-0.3,0.4-0.6,0.6-0.8
					c0.2-0.3,0.3-0.6,0.5-0.9c0.1-0.3,0.2-0.6,0.3-0.8c0-0.1,0-0.1,0-0.2c0-0.1,0-0.1,0-0.2c0-0.1,0-0.1,0-0.2
					C176.7,29.5,176.7,29.5,176.7,29.5z M176.4,28.7c0,0,0-0.1-0.1-0.2c0-0.1-0.1-0.2-0.2-0.3c-0.1-0.1-0.2-0.2-0.3-0.2
					c-0.1-0.1-0.2-0.1-0.3-0.1c-0.1,0-0.2,0-0.2,0.1s-0.1,0.1-0.2,0.2c-0.1,0.1-0.1,0.2-0.1,0.2c0,0.1,0,0.1,0,0.2
					c0.1,0.1,0.2,0.2,0.3,0.3c0.1,0,0.3,0.1,0.4,0.1c0.2,0,0.3,0,0.4-0.1S176.3,28.7,176.4,28.7z"/>
				<g>
					<g>
						<path class="st0" d="M186.3,19.9c-0.1,0-0.1,0,0-0.1c0.1-0.1,0.1-0.1,0.2-0.2c0.2-0.1,0.4-0.3,0.6-0.4s0.4-0.2,0.6-0.4
							c0.2-0.1,0.4-0.3,0.5-0.4c0.2-0.1,0.4-0.3,0.5-0.5c-0.2,0-0.3-0.1-0.5-0.2s-0.3-0.2-0.4-0.4c-0.1-0.1-0.1-0.2-0.1-0.3
							c0-0.1,0-0.2,0-0.3c0.1-0.1,0.1-0.3,0.2-0.5c0.1-0.2,0.2-0.3,0.3-0.5c0.1-0.1,0.2-0.3,0.4-0.3c0.1-0.1,0.3-0.1,0.5-0.1
							c0.1,0,0.2,0,0.3,0.1c0.1,0.1,0.1,0.2,0.2,0.3s0.1,0.3,0.1,0.4c0,0.1,0,0.3,0,0.4s0,0.3,0,0.4c0,0.1,0,0.2,0,0.3
							c0,0,0,0,0,0.1c0.1,0,0.1,0.1,0.2,0.1s0,0.1,0.1,0.1c0,0.1,0,0.2,0,0.3c0,0.1-0.1,0.2-0.1,0.3c0,0.1-0.1,0.1-0.1,0.1
							c0,0-0.1,0-0.1-0.1c0,0-0.1-0.1-0.1-0.1s-0.1-0.1-0.1-0.1c-0.2,0.2-0.4,0.4-0.5,0.6c-0.2,0.2-0.3,0.3-0.5,0.4
							c-0.2,0.1-0.4,0.2-0.6,0.4c-0.2,0.1-0.5,0.2-0.7,0.3c-0.1,0-0.2,0.1-0.3,0.1S186.4,19.9,186.3,19.9z M188.2,16.6
							c0.1,0.2,0.3,0.3,0.4,0.4c0.2,0.1,0.3,0.2,0.5,0.2h0c0-0.1,0-0.1,0-0.2s0-0.2,0-0.2c0-0.1,0-0.2,0-0.2c0-0.1-0.1-0.1-0.1-0.2
							c0,0-0.1-0.1-0.2-0.1s-0.2,0-0.3,0c-0.1,0-0.2,0.1-0.2,0.1S188.3,16.5,188.2,16.6z"/>
					</g>
				</g>
				<path class="st0" d="M188.8,20.3C188.8,20.2,188.9,20.2,188.8,20.3c0.1-0.1,0.2,0,0.2,0.1l0.5,4.1l0.4,2.8
					c0,0.3,0.1,0.6,0.2,0.9s0.2,0.5,0.3,0.8c0.2,0.2,0.3,0.4,0.6,0.6c0.2,0.1,0.5,0.2,0.9,0.2h0.2c0.2,0,0.3,0.1,0.4,0.2
					c0.1,0.1,0.1,0.3,0.1,0.5s0,0.3-0.1,0.5c-0.1,0.1-0.2,0.2-0.4,0.2h-0.2c-0.3,0-0.7-0.1-1-0.2s-0.6-0.3-0.8-0.6l0.2,2.4
					c0,0.6-0.2,1.1-0.4,1.6c-0.2,0.5-0.5,0.9-0.9,1.2c-0.4,0.3-0.8,0.6-1.3,0.8c-0.5,0.2-1,0.3-1.6,0.3c-0.5,0-1-0.1-1.4-0.2
					c-0.4-0.2-0.8-0.4-1.1-0.7s-0.5-0.6-0.7-1.1c-0.2-0.4-0.3-0.9-0.3-1.4c0-0.6,0.1-1.1,0.3-1.6c0.2-0.5,0.4-1,0.8-1.5
					c0-0.1,0.1-0.1,0.1-0.1c0,0,0,0,0.1,0c0,0,0,0.1,0,0.1s0,0.1,0,0.1c-0.3,0.6-0.5,1.1-0.5,1.7c-0.1,0.6,0,1.1,0.2,1.6
					c0.1,0.2,0.2,0.5,0.4,0.6c0.2,0.2,0.3,0.4,0.6,0.5c0.2,0.1,0.5,0.3,0.8,0.3s0.6,0.1,1,0.1c0.7,0,1.4-0.1,2-0.4
					c0.6-0.3,1.1-0.7,1.6-1.3l-1.3-12c0.1-0.2,0.1-0.4,0.2-0.6S188.7,20.5,188.8,20.3z"/>
				<path class="st0" d="M194.9,27.8c0,0.1,0,0.1,0,0.2c0,0.1,0,0.2,0,0.3c0,0.2,0,0.3,0.1,0.5c0.1,0.2,0.2,0.3,0.4,0.4
					c0.2,0.1,0.4,0.2,0.6,0.3c0.3,0.1,0.6,0.1,0.9,0.1h0.2c0.2,0,0.3,0.1,0.4,0.2c0.1,0.1,0.1,0.3,0.1,0.5s0,0.3-0.1,0.5
					c-0.1,0.1-0.2,0.2-0.4,0.2h-0.2c-0.7,0-1.2-0.1-1.6-0.4c-0.4-0.3-0.7-0.6-0.9-1.1c-0.2,0.3-0.3,0.6-0.6,0.8s-0.4,0.3-0.7,0.4
					c-0.2,0.1-0.5,0.2-0.7,0.2c-0.2,0-0.4,0-0.6,0h-0.2c-0.2,0-0.3-0.1-0.4-0.2c-0.1-0.1-0.1-0.3-0.1-0.5s0-0.3,0.1-0.5
					c0.1-0.1,0.2-0.2,0.4-0.2h0.2c0.2,0,0.4,0,0.6,0c0.2,0,0.4,0,0.6-0.1c0.2-0.1,0.4-0.1,0.6-0.2c0.2-0.1,0.4-0.3,0.5-0.5
					c0.1-0.2,0.2-0.3,0.3-0.5s0.2-0.3,0.2-0.5c0,0,0-0.1,0-0.1c0,0,0.1,0,0.1,0C194.8,27.8,194.8,27.8,194.9,27.8
					C194.9,27.8,194.9,27.8,194.9,27.8z M194.1,32.4l1.1,0.9c0,0,0.1,0.1,0,0.1l-0.7,0.9c0,0.1-0.1,0.1-0.1,0l-1.1-0.9
					c0,0,0-0.1,0-0.2l0.7-0.9C194,32.3,194.1,32.3,194.1,32.4z"/>
				<path class="st0" d="M200.6,18.5c-0.3,0.1-0.6,0.3-1,0.4c-0.3,0.1-0.7,0.3-1,0.4s-0.6,0.3-0.9,0.4s-0.5,0.2-0.7,0.3
					c0,0-0.1,0-0.1,0c0,0,0,0,0-0.1c0,0,0-0.1,0.1-0.2c0-0.1,0.1-0.2,0.1-0.3c0-0.1,0.1-0.2,0.1-0.3c0-0.1,0.1-0.1,0.1-0.1
					c0.1-0.1,0.1-0.1,0.2-0.2l3.5-1.5c0.1,0,0.1,0,0.1,0.1c0,0.1-0.1,0.1-0.1,0.2s-0.1,0.2-0.1,0.2s-0.1,0.2-0.1,0.2
					c0,0.1-0.1,0.1-0.1,0.2C200.7,18.4,200.7,18.4,200.6,18.5z"/>
				<path class="st0" d="M196.9,29.7c0.1,0,0.3,0,0.5,0s0.4,0,0.7,0s0.5,0,0.8-0.1c0.3,0,0.6-0.1,0.8-0.2s0.5-0.2,0.7-0.3
					s0.4-0.2,0.5-0.4c0-0.1,0-0.2,0-0.3c0-0.1,0-0.2-0.1-0.3c0-0.1-0.1-0.2-0.1-0.3s-0.1-0.2-0.1-0.3c-0.1,0.1-0.1,0.2-0.2,0.3
					s-0.2,0.2-0.3,0.3c-0.1,0.1-0.2,0.2-0.4,0.2c-0.1,0.1-0.3,0.1-0.4,0.1c-0.2,0-0.3,0-0.5-0.1c-0.2-0.1-0.3-0.1-0.4-0.2
					c-0.1-0.1-0.2-0.2-0.3-0.3c-0.1-0.1-0.1-0.3-0.2-0.4c0-0.2,0-0.4,0-0.6c0-0.2,0-0.4,0.1-0.6c0.1-0.2,0.1-0.4,0.2-0.6
					c0.1-0.2,0.2-0.4,0.3-0.5c0.1-0.2,0.3-0.3,0.4-0.4c0.2-0.1,0.3-0.1,0.5-0.1c0.2,0,0.3,0.1,0.5,0.2s0.3,0.2,0.4,0.4
					c0.1,0.2,0.3,0.4,0.4,0.6c0.1,0.2,0.2,0.4,0.3,0.6c0.1,0.2,0.2,0.4,0.2,0.6c0.1,0.2,0.1,0.4,0.1,0.5c0,0.3,0,0.6,0,0.8
					c0,0.3-0.1,0.5-0.1,0.8c-0.1,0.2-0.2,0.5-0.3,0.7c-0.1,0.2-0.3,0.4-0.5,0.5c-0.2,0.2-0.5,0.3-0.8,0.4c-0.3,0.1-0.6,0.2-0.9,0.2
					c-0.3,0-0.7,0.1-1,0.1c-0.3,0-0.7,0-1,0h-0.2c-0.2,0-0.3-0.1-0.4-0.2c-0.1-0.1-0.1-0.3-0.1-0.5s0-0.3,0.1-0.5
					c0.1-0.1,0.2-0.2,0.4-0.2H196.9z M200.6,22.9c-0.1,0-0.1,0-0.2,0l-1.1-0.8l-0.7,1c0,0,0,0-0.1,0c0,0-0.1,0-0.1,0l-1.2-0.8
					c0,0,0,0,0,0c0,0,0,0,0-0.1l0.7-0.9c0,0,0,0,0.1-0.1c0,0,0,0,0.1,0l1.1,0.8l0.7-0.9c0,0,0,0,0,0s0,0,0.1,0l1.2,0.8
					c0,0,0,0.1,0,0.1L200.6,22.9z M200.2,26.8c0-0.1,0-0.2-0.1-0.2c-0.1-0.1-0.1-0.2-0.2-0.2c-0.1-0.1-0.2-0.1-0.3-0.2
					c-0.1,0-0.2-0.1-0.2-0.1c-0.1,0-0.2,0-0.2,0.1c-0.1,0-0.2,0.1-0.2,0.2s-0.1,0.2-0.2,0.2c0,0.1-0.1,0.2-0.1,0.2
					c0.1,0.1,0.2,0.2,0.3,0.3s0.3,0.1,0.5,0.1s0.3,0,0.5-0.1S200.1,26.9,200.2,26.8z"/>
				<path d="M213.6,29.6c0.1-0.3,0.1-0.5,0.2-0.7c0.1-0.2,0.1-0.4,0.2-0.6c0-0.1,0-0.1,0.1-0.1c0,0,0.1,0,0.1,0.1
					c0.1,0.2,0.3,0.4,0.4,0.6s0.2,0.4,0.4,0.6c0.1,0.1,0.2,0.1,0.3,0.1s0.2,0.1,0.4,0.1c0.1,0,0.2,0,0.3,0s0.2,0,0.2,0h0.2
					c0.2,0,0.3,0.1,0.4,0.2c0.1,0.1,0.1,0.3,0.1,0.5s0,0.3-0.1,0.5c-0.1,0.1-0.2,0.2-0.4,0.2h-0.2c-0.3,0-0.6,0-0.9-0.1
					c0,0.3,0.1,0.7,0.1,1.1c0,0.4,0,0.8-0.1,1.1c-0.1,0.6-0.3,1.1-0.7,1.6c-0.3,0.4-0.8,0.8-1.2,1.1c-0.5,0.3-1,0.5-1.6,0.6
					c-0.6,0.1-1.1,0.2-1.7,0.2c-0.5,0-0.9-0.1-1.4-0.2c-0.4-0.2-0.8-0.4-1.1-0.7c-0.3-0.3-0.5-0.6-0.7-1s-0.3-0.9-0.3-1.4
					c0-0.6,0.1-1.1,0.3-1.6c0.2-0.5,0.4-1,0.8-1.5c0-0.1,0.1-0.1,0.1-0.1s0,0,0.1,0c0,0,0,0.1,0,0.1c0,0,0,0.1,0,0.1
					c-0.3,0.5-0.5,1.1-0.5,1.7c-0.1,0.6,0,1.1,0.2,1.6c0.1,0.2,0.2,0.4,0.4,0.6c0.2,0.2,0.3,0.4,0.6,0.5s0.5,0.3,0.8,0.3
					c0.3,0.1,0.6,0.1,1,0.1c0.4,0,0.8,0,1.3-0.1c0.4-0.1,0.8-0.2,1.2-0.3c0.4-0.2,0.8-0.3,1.1-0.6c0.3-0.2,0.7-0.5,0.9-0.9
					c0-0.3,0-0.6-0.1-0.9c-0.1-0.3-0.1-0.7-0.2-1s-0.2-0.7-0.4-1C213.9,30.2,213.8,29.9,213.6,29.6z M211.8,25.6l1.1,0.9
					c0,0,0.1,0.1,0,0.1l-0.7,0.9c0,0.1-0.1,0.1-0.1,0l-1.1-0.9c0,0,0-0.1,0-0.2l0.7-0.9C211.7,25.6,211.7,25.6,211.8,25.6z"/>
				<path d="M221.1,33.2c-0.6,0.2-1.2,0.4-1.8,0.7c-0.6,0.2-1.1,0.4-1.7,0.6c-0.1,0-0.1,0-0.1-0.1c0-0.1,0.1-0.2,0.2-0.4
					c0.1-0.1,0.1-0.3,0.2-0.3c0,0,0.1-0.1,0.1-0.1c0.2-0.1,0.4-0.1,0.6-0.2c0.3-0.1,0.5-0.2,0.9-0.3c0.3-0.1,0.6-0.2,1-0.4
					c0.3-0.1,0.7-0.2,1-0.3c0.1,0,0.1,0,0.1,0.1c0,0.1-0.1,0.1-0.1,0.2s-0.1,0.1-0.1,0.2c0,0.1-0.1,0.1-0.1,0.2
					c0,0.1-0.1,0.1-0.1,0.1C221.2,33.1,221.2,33.1,221.1,33.2C221.1,33.1,221.1,33.2,221.1,33.2z"/>
				<path d="M216.2,29.7c0.3,0,0.5,0,0.8,0c0.3,0,0.5,0,0.7-0.1c0.2-0.1,0.4-0.1,0.6-0.2s0.3-0.2,0.4-0.4c0.2-0.3,0.3-0.7,0.5-1
					c0.1-0.3,0.3-0.6,0.5-1c0.1-0.1,0.2-0.2,0.3-0.4c0.1-0.1,0.2-0.3,0.4-0.4c0.1-0.1,0.3-0.2,0.4-0.3c0.1-0.1,0.3-0.1,0.4-0.1
					c0.2,0,0.3,0.1,0.4,0.2s0.3,0.2,0.4,0.4c0.1,0.2,0.2,0.3,0.4,0.5c0.1,0.2,0.2,0.4,0.3,0.6c0.1,0.2,0.1,0.4,0.2,0.6
					s0.1,0.4,0,0.5c0,0.1,0,0.3-0.1,0.4c0,0.1-0.1,0.3-0.1,0.4s-0.1,0.2-0.2,0.3s-0.2,0.2-0.3,0.2c-0.1,0-0.3,0.1-0.6,0
					c-0.2,0-0.5-0.1-0.8-0.1c-0.3-0.1-0.6-0.2-0.9-0.3c-0.3-0.1-0.6-0.3-0.8-0.5c-0.2,0.7-0.6,1.2-1.1,1.5c-0.5,0.3-1.1,0.5-1.8,0.5
					H216c-0.2,0-0.3-0.1-0.4-0.2c-0.1-0.1-0.1-0.3-0.1-0.5s0-0.3,0.1-0.5c0.1-0.1,0.2-0.2,0.4-0.2H216.2z M221.8,28.6
					c0,0,0-0.1,0-0.1s-0.1-0.2-0.1-0.3c0-0.1-0.1-0.2-0.1-0.3c0-0.1-0.1-0.1-0.1-0.2c-0.1-0.1-0.1-0.1-0.2-0.2
					c-0.1-0.1-0.1-0.1-0.2-0.2c-0.1-0.1-0.2-0.1-0.2-0.1c-0.1,0-0.2-0.1-0.3,0c-0.1,0-0.2,0-0.3,0.1c-0.1,0-0.2,0.1-0.3,0.2
					s-0.1,0.2-0.2,0.2c-0.1,0.1-0.1,0.2-0.1,0.3c0.3,0.3,0.6,0.4,1,0.5C221,28.6,221.4,28.6,221.8,28.6z"/>
				<path d="M228.7,24c-0.1,0-0.1,0,0-0.1c0.1-0.1,0.1-0.1,0.2-0.2c0.2-0.1,0.4-0.3,0.6-0.4s0.4-0.2,0.6-0.4
					c0.2-0.1,0.4-0.3,0.5-0.4c0.2-0.1,0.4-0.3,0.5-0.5c-0.2,0-0.3-0.1-0.5-0.2s-0.3-0.2-0.4-0.4c-0.1-0.1-0.1-0.2-0.1-0.3
					c0-0.1,0-0.2,0-0.3c0.1-0.1,0.1-0.3,0.2-0.5c0.1-0.2,0.2-0.3,0.3-0.5c0.1-0.1,0.2-0.3,0.4-0.3c0.1-0.1,0.3-0.1,0.5-0.1
					c0.1,0,0.2,0,0.3,0.1c0.1,0.1,0.1,0.2,0.2,0.3s0.1,0.3,0.1,0.4c0,0.1,0,0.3,0,0.4s0,0.3,0,0.4c0,0.1,0,0.2,0,0.3c0,0,0,0,0,0.1
					c0.1,0,0.1,0.1,0.2,0.1s0,0.1,0.1,0.1c0,0.1,0,0.2,0,0.3c0,0.1-0.1,0.2-0.1,0.3c0,0.1-0.1,0.1-0.1,0.1c0,0-0.1,0-0.1-0.1
					c0,0-0.1-0.1-0.1-0.1s-0.1-0.1-0.1-0.1c-0.2,0.2-0.4,0.4-0.5,0.6c-0.2,0.2-0.3,0.3-0.5,0.4c-0.2,0.1-0.4,0.2-0.6,0.4
					c-0.2,0.1-0.5,0.2-0.7,0.3c-0.1,0-0.2,0.1-0.3,0.1S228.8,24,228.7,24z M230.6,20.6c0.1,0.2,0.3,0.3,0.4,0.4
					c0.2,0.1,0.3,0.2,0.5,0.2h0c0-0.1,0-0.1,0-0.2s0-0.2,0-0.2c0-0.1,0-0.2,0-0.2c0-0.1-0.1-0.1-0.1-0.2c0,0-0.1-0.1-0.2-0.1
					s-0.2,0-0.3,0c-0.1,0-0.2,0.1-0.2,0.1S230.7,20.6,230.6,20.6z"/>
				<path d="M231.7,28.7C231.7,28.6,231.7,28.6,231.7,28.7c0.1,0,0.1,0,0.2,0.1c0.2,0.2,0.4,0.4,0.6,0.5c0.2,0.1,0.4,0.2,0.6,0.3
					c0.2,0.1,0.4,0.1,0.6,0.1c0.2,0,0.4,0,0.6,0h0.2c0.2,0,0.3,0.1,0.4,0.2c0.1,0.1,0.1,0.3,0.1,0.5s0,0.3-0.1,0.5
					c-0.1,0.1-0.2,0.2-0.4,0.2h-0.2c-0.1,0-0.1,0-0.2,0c-0.1,0-0.2,0-0.3,0c-0.1,0-0.2,0-0.4,0c-0.1,0-0.2,0-0.3,0
					c-0.1,0.4-0.2,0.8-0.3,1.2c-0.1,0.4-0.2,0.7-0.3,1c-0.1,0.3-0.2,0.5-0.3,0.7s-0.2,0.3-0.2,0.4c-0.2,0.3-0.5,0.5-0.7,0.8
					c-0.3,0.2-0.5,0.4-0.8,0.5c-0.3,0.1-0.6,0.2-0.9,0.3s-0.6,0.1-0.9,0.1c-0.4,0-0.9,0-1.4,0c-0.5-0.1-1-0.2-1.6-0.4
					c-0.1,0-0.1-0.1-0.2-0.1s0-0.1,0-0.1s0.1-0.1,0.2-0.1c0.1,0,0.2,0,0.3,0c0.7,0.1,1.4,0.1,2-0.1c0.6-0.1,1.2-0.4,1.9-0.7
					c0.7-0.4,1.3-0.9,1.7-1.5s0.7-1.2,0.9-1.9c-0.2-0.1-0.5-0.2-0.7-0.4c-0.2-0.2-0.4-0.3-0.5-0.5c0-0.2,0.1-0.4,0.1-0.6
					C231.5,29.2,231.6,28.9,231.7,28.7z"/>
				<path d="M234.3,29.7c0.3,0,0.5,0,0.8,0c0.3,0,0.5,0,0.7-0.1c0.2-0.1,0.4-0.1,0.6-0.2s0.3-0.2,0.4-0.4c0.2-0.3,0.3-0.7,0.5-1
					c0.1-0.3,0.3-0.6,0.5-1c0.1-0.1,0.2-0.2,0.3-0.4c0.1-0.1,0.2-0.3,0.4-0.4c0.1-0.1,0.3-0.2,0.4-0.3c0.1-0.1,0.3-0.1,0.4-0.1
					c0.2,0,0.3,0.1,0.4,0.2s0.3,0.2,0.4,0.4c0.1,0.2,0.2,0.3,0.4,0.5c0.1,0.2,0.2,0.4,0.3,0.6c0.1,0.2,0.1,0.4,0.2,0.6
					s0.1,0.4,0,0.5c0,0.1,0,0.3-0.1,0.4c0,0.1-0.1,0.3-0.1,0.4s-0.1,0.2-0.2,0.3s-0.2,0.2-0.3,0.2c-0.1,0-0.3,0.1-0.6,0
					c-0.2,0-0.5-0.1-0.8-0.1c-0.3-0.1-0.6-0.2-0.9-0.3c-0.3-0.1-0.6-0.3-0.8-0.5c-0.2,0.7-0.6,1.2-1.1,1.5c-0.5,0.3-1.1,0.5-1.8,0.5
					h-0.2c-0.2,0-0.3-0.1-0.4-0.2c-0.1-0.1-0.1-0.3-0.1-0.5s0-0.3,0.1-0.5c0.1-0.1,0.2-0.2,0.4-0.2H234.3z M240,28.6
					c0,0,0-0.1,0-0.1s-0.1-0.2-0.1-0.3c0-0.1-0.1-0.2-0.1-0.3c0-0.1-0.1-0.1-0.1-0.2c-0.1-0.1-0.1-0.1-0.2-0.2
					c-0.1-0.1-0.1-0.1-0.2-0.2c-0.1-0.1-0.2-0.1-0.2-0.1c-0.1,0-0.2-0.1-0.3,0c-0.1,0-0.2,0-0.3,0.1c-0.1,0-0.2,0.1-0.3,0.2
					s-0.1,0.2-0.2,0.2c-0.1,0.1-0.1,0.2-0.1,0.3c0.3,0.3,0.6,0.4,1,0.5C239.2,28.6,239.6,28.6,240,28.6z"/>
				<path d="M245.6,13c-0.3,0.1-0.6,0.3-1,0.4c-0.3,0.1-0.7,0.3-1,0.4s-0.6,0.3-0.9,0.4s-0.5,0.2-0.7,0.3c0,0-0.1,0-0.1,0
					c0,0,0,0,0-0.1c0,0,0-0.1,0.1-0.2c0-0.1,0.1-0.2,0.1-0.3c0-0.1,0.1-0.2,0.1-0.3c0-0.1,0.1-0.1,0.1-0.1c0.1-0.1,0.1-0.1,0.2-0.2
					L246,12c0.1,0,0.1,0,0.1,0.1c0,0.1-0.1,0.1-0.1,0.2s-0.1,0.2-0.1,0.2s-0.1,0.2-0.1,0.2c0,0.1-0.1,0.1-0.1,0.2
					C245.7,13,245.7,13,245.6,13z"/>
				<path d="M242.4,17.8c0,0,0.1-0.1,0.2-0.1c0.1,0,0.1-0.1,0.2-0.1c0.1,0,0.1-0.1,0.2-0.1c0.1,0,0.1-0.1,0.2-0.1
					c-0.1-0.1-0.3-0.2-0.4-0.3c-0.1-0.1-0.2-0.3-0.3-0.5c0-0.1,0-0.2,0-0.2c0-0.1,0-0.2,0.1-0.2c0.1-0.1,0.2-0.3,0.3-0.4
					s0.2-0.3,0.4-0.4c0.1-0.1,0.3-0.2,0.4-0.3c0.2-0.1,0.3-0.1,0.5-0.1c0.1,0,0.1,0,0.2,0.1c0.1,0,0.1,0.1,0.2,0.2
					c0,0.1,0.1,0.1,0.1,0.2c0,0.1,0.1,0.1,0.1,0.2c0,0.1,0,0.2,0,0.3l-0.2,0.3c-0.1,0.1-0.1,0.2-0.2,0.2c-0.1,0-0.1,0-0.1-0.1
					c0-0.1,0-0.1-0.1-0.2c-0.1-0.1-0.1-0.2-0.2-0.2c-0.1,0-0.1-0.1-0.2-0.1c-0.3,0-0.5,0.1-0.7,0.3c0.1,0.2,0.2,0.4,0.4,0.6
					c0.2,0.2,0.4,0.3,0.6,0.3c0.3,0,0.6,0,0.8,0c0.3-0.1,0.5-0.1,0.8-0.2c0,0,0,0.1,0,0.1c0,0.1-0.1,0.2-0.1,0.3
					c0,0.1-0.1,0.2-0.1,0.3s-0.1,0.1-0.1,0.1c-0.2,0-0.5,0.1-0.7,0.1c-0.3,0.1-0.5,0.1-0.8,0.2c-0.3,0.1-0.6,0.2-0.9,0.3
					c-0.3,0.1-0.6,0.3-0.8,0.4c-0.1,0-0.1,0-0.1-0.1c0-0.1,0.1-0.2,0.1-0.3C242.2,18,242.3,17.9,242.4,17.8z M249.6,27
					c0.2-0.6,0.4-1.1,0.5-1.7c0.1-0.6,0.2-1.2,0.2-1.7c0-0.6,0-1.2,0-1.8s0-1.2-0.1-1.8c0-0.2-0.1-0.3-0.1-0.4
					c-0.1-0.1-0.1-0.2-0.2-0.4c0.1-0.2,0.2-0.4,0.4-0.6c0.1-0.2,0.3-0.4,0.4-0.6c0.1-0.1,0.1-0.1,0.2,0c0,0.2,0.1,0.3,0.1,0.5
					c0.1,0.2,0.1,0.3,0.2,0.5c0.1,0.2,0.2,0.3,0.2,0.4c0.1,0.1,0.2,0.3,0.3,0.4c0,0.1-0.1,0.1-0.1,0.2s-0.1,0.2-0.2,0.2
					c-0.1,0.1-0.1,0.2-0.2,0.3c0,0.1-0.1,0.2-0.1,0.3c0,0.6,0,1.2,0,1.8s-0.1,1.2-0.2,1.8s-0.2,1.2-0.3,1.7c-0.1,0.5-0.3,1-0.5,1.5
					c0.2,0.3,0.3,0.7,0.5,1c0.1,0.4,0.2,0.7,0.3,1.2c0,0.3,0,0.5-0.1,0.7c-0.1,0.2-0.2,0.5-0.3,0.7c-0.2,0-0.5,0.1-0.8,0.1
					s-0.6,0.1-1,0.1c-0.3,0-0.7,0.1-1,0.1c-0.3,0-0.6,0-0.9,0c0,0,0-0.1,0-0.2c0-0.1,0-0.2,0-0.4c0-0.1,0-0.3,0.1-0.4
					c0-0.1,0.1-0.2,0.1-0.3c0-0.1,0.1-0.1,0.2-0.1c0.2,0,0.4,0,0.4-0.1s0.2-0.1,0.2-0.1c0.1-0.1,0.2-0.2,0.3-0.4
					c0.1-0.2,0.3-0.4,0.4-0.6s0.3-0.4,0.4-0.7s0.2-0.4,0.3-0.6c-0.3-0.5-0.6-0.9-0.9-1.4c-0.3-0.5-0.7-1-1.1-1.5
					c-0.4-0.5-0.8-1-1.2-1.4c-0.4-0.5-0.8-0.9-1.2-1.2c-0.2,0.1-0.4,0.1-0.6,0.1c-0.1,0-0.3-0.1-0.5-0.2c-0.2-0.1-0.4-0.2-0.5-0.3
					c-0.2-0.1-0.3-0.2-0.4-0.4c-0.1-0.1-0.2-0.3-0.2-0.5c0,0,0-0.1,0-0.2s0-0.2,0-0.4c0-0.1,0-0.3,0-0.5c0-0.2,0-0.3,0.1-0.4
					c0-0.1,0.1-0.2,0.1-0.2c0.1,0,0.1,0,0.3,0.1c0.4,0.3,0.8,0.6,1.2,1s0.8,0.8,1.2,1.2c0.4,0.4,0.8,0.9,1.1,1.3
					c0.4,0.5,0.7,0.9,1,1.4c0.3,0.5,0.6,0.9,0.9,1.4C249,26.2,249.3,26.6,249.6,27z M248.5,30.3c0.3,0,0.6-0.1,0.9-0.1
					c0.3,0,0.6-0.1,0.8-0.1c0-0.1,0-0.2-0.1-0.3c0-0.1-0.1-0.3-0.2-0.4s-0.1-0.3-0.2-0.4s-0.1-0.2-0.2-0.3c-0.2,0.3-0.3,0.6-0.5,0.9
					S248.7,30,248.5,30.3z"/>
				<path d="M254.1,19.4C254.2,19.4,254.2,19.4,254.1,19.4c0.1,0.1,0.1,0.1,0.1,0.1s0,0.1,0,0.1s0,0.1,0,0.1c0,0.2,0,0.5,0,0.7
					c0,0.2,0,0.4,0.1,0.7c0.1,0.5,0.1,1.1,0.2,1.7c0.1,0.6,0.2,1.1,0.2,1.7c0.1,0.6,0.2,1.2,0.2,1.7s0.2,1.1,0.2,1.7
					c0,0.2,0,0.5,0,0.7c0,0.3,0,0.6,0,0.9c0,0.3,0,0.6-0.1,0.8c0,0.3-0.1,0.5-0.2,0.7c0,0.1-0.1,0.2-0.2,0.2c0,0-0.1,0-0.1-0.1
					c-0.1-1-0.2-2.1-0.3-3.2c-0.2-1.1-0.3-2.3-0.5-3.4s-0.3-2.3-0.4-3.4c0-0.3,0.1-0.6,0.2-0.9c0.1-0.2,0.1-0.3,0.2-0.5
					C254,19.6,254,19.5,254.1,19.4z"/>
				<path d="M263.9,33.9c-0.6,0.2-1.2,0.4-1.8,0.7c-0.6,0.2-1.1,0.4-1.7,0.6c-0.1,0-0.1,0-0.1-0.1c0-0.1,0.1-0.2,0.2-0.4
					c0.1-0.1,0.1-0.3,0.2-0.3c0,0,0.1-0.1,0.1-0.1c0.2-0.1,0.4-0.1,0.6-0.2c0.3-0.1,0.5-0.2,0.9-0.3c0.3-0.1,0.6-0.2,1-0.4
					c0.3-0.1,0.7-0.2,1-0.3c0.1,0,0.1,0,0.1,0.1c0,0.1-0.1,0.1-0.1,0.2s-0.1,0.1-0.1,0.2c0,0.1-0.1,0.1-0.1,0.2
					c0,0.1-0.1,0.1-0.1,0.1C264.1,33.8,264,33.8,263.9,33.9C264,33.8,264,33.8,263.9,33.9z"/>
				<path d="M274.3,33.2c-0.6,0.2-1.2,0.4-1.8,0.7c-0.6,0.2-1.1,0.4-1.7,0.6c-0.1,0-0.1,0-0.1-0.1c0-0.1,0.1-0.2,0.2-0.4
					c0.1-0.1,0.1-0.3,0.2-0.3c0,0,0.1-0.1,0.1-0.1c0.2-0.1,0.4-0.1,0.6-0.2c0.3-0.1,0.5-0.2,0.9-0.3c0.3-0.1,0.6-0.2,1-0.4
					c0.3-0.1,0.7-0.2,1-0.3c0.1,0,0.1,0,0.1,0.1c0,0.1-0.1,0.1-0.1,0.2s-0.1,0.1-0.1,0.2c0,0.1-0.1,0.1-0.1,0.2
					c0,0.1-0.1,0.1-0.1,0.1C274.4,33.1,274.4,33.1,274.3,33.2C274.4,33.1,274.4,33.2,274.3,33.2z"/>
				<path d="M272,31.2c-0.6,0-1.1-0.1-1.6-0.4c-0.5-0.3-0.8-0.8-1.2-1.5c-0.3,0.7-0.6,1.3-1,1.7c-0.4,0.4-0.9,0.7-1.5,0.7
					c-0.4,0-0.8,0-1.1-0.2s-0.6-0.3-0.7-0.6c-0.2-0.3-0.3-0.6-0.5-0.9c-0.1-0.3-0.2-0.7-0.2-1.1c-0.2,0.3-0.3,0.5-0.5,0.7
					c-0.2,0.2-0.4,0.4-0.6,0.5c-0.2,0-0.4,0.1-0.6,0.1c-0.2,0-0.4,0-0.7,0c-0.2,0-0.5,0-0.7-0.1c-0.2-0.1-0.4-0.1-0.5-0.3
					c0-0.2,0-0.5,0.1-0.8c0.1-0.3,0.2-0.5,0.4-0.8c0.2-0.3,0.4-0.5,0.6-0.7c0.2-0.2,0.4-0.4,0.6-0.5c0.3-0.2,0.6-0.3,0.9-0.5
					c0.3-0.1,0.6-0.3,1-0.4c0-0.2,0-0.3,0-0.5c0-0.2,0-0.3,0-0.5c0.1-0.2,0.2-0.5,0.3-0.7c0.1-0.2,0.2-0.5,0.4-0.6
					c0-0.1,0.1-0.1,0.1,0c0,0.5,0,1,0,1.4s0,0.9,0,1.3c0,0.4,0,0.8,0,1.1c0,0.4,0.1,0.8,0.2,1.1c0.1,0.2,0.2,0.4,0.3,0.6
					s0.2,0.3,0.4,0.4c0.2,0.1,0.3,0.2,0.6,0.2c0.2,0,0.5,0,0.7-0.1c0.2,0,0.4-0.1,0.6-0.2s0.4-0.3,0.6-0.4c0.2-0.2,0.3-0.3,0.4-0.5
					s0.1-0.4,0.1-0.6c-0.1-0.7-0.2-1.5-0.3-2.2c-0.1-0.7-0.2-1.5-0.3-2.2c0,0,0-0.1,0.1-0.2s0.1-0.3,0.1-0.4c0-0.1,0.1-0.3,0.2-0.4
					c0.1-0.1,0.1-0.2,0.1-0.3c0-0.1,0.1-0.1,0.1-0.1c0,0,0.1,0,0.1,0.1c0.1,0.4,0.1,0.8,0.2,1.2c0.1,0.4,0.1,0.8,0.2,1.2
					c0.1,0.4,0.1,0.8,0.2,1.2c0.1,0.4,0.1,0.8,0.2,1.2c0.1,0.7,0.3,1.2,0.7,1.7c0.3,0.4,0.8,0.7,1.4,0.8c0.1,0,0.3,0.1,0.5,0.1
					c0.2,0,0.4,0,0.5,0c0.2,0,0.3-0.1,0.4-0.1c0.1-0.1,0.1-0.2,0.1-0.3c0-0.2-0.1-0.4-0.1-0.6c-0.1-0.2-0.1-0.4-0.2-0.7
					c-0.1-0.2-0.1-0.5-0.2-0.7c-0.1-0.2-0.1-0.5-0.2-0.7c0-0.2-0.1-0.4-0.2-0.6c-0.1-0.2-0.1-0.5-0.2-0.8c-0.1-0.3-0.1-0.5-0.2-0.8
					c0-0.3-0.1-0.5-0.1-0.7c0,0,0-0.2,0.1-0.3c0.1-0.2,0.1-0.3,0.2-0.5c0.1-0.2,0.1-0.3,0.2-0.5c0.1-0.1,0.1-0.2,0.1-0.2
					c0.1,0,0.1,0,0.1,0.1c0,0,0,0.1,0,0.1c0.1,0.5,0.2,1.1,0.3,1.6s0.3,1,0.4,1.5c0.2,0.5,0.3,1,0.4,1.4s0.2,0.8,0.3,1.2
					c0.1,0.3,0.1,0.7,0,1.1c0,0.4-0.2,0.7-0.3,1c-0.2,0.3-0.4,0.6-0.7,0.8C272.8,31.1,272.4,31.2,272,31.2z M264.2,27.1
					C264.2,27.1,264.2,27.1,264.2,27.1C264.1,27.1,264.1,27.1,264.2,27.1c-0.3,0.1-0.5,0.2-0.7,0.2s-0.4,0.2-0.6,0.3
					c-0.2,0.1-0.4,0.2-0.6,0.3c-0.2,0.1-0.4,0.3-0.5,0.4c0,0,0,0.1,0,0.1c0.2,0.1,0.3,0.1,0.6,0.1c0.2,0,0.5,0,0.7,0
					c0.2,0,0.5,0,0.7-0.1c0.2-0.1,0.4-0.1,0.5-0.3L264.2,27.1z M268.8,19.4c0,0-0.1,0-0.1,0c0,0,0,0.1-0.1,0.1c0,0,0,0.1,0,0.1
					s0,0.1,0,0.1c0,0.1-0.1,0.2-0.1,0.3c0,0.1-0.1,0.2-0.1,0.3c-0.1,0.1-0.1,0.1-0.2,0.2c-0.1,0.1-0.2,0.1-0.3,0.1
					c-0.1,0-0.2,0.1-0.3,0c-0.1,0-0.2,0-0.3-0.1c0,0-0.1-0.1-0.1-0.2c0-0.1,0-0.1,0-0.2s0-0.2,0-0.2c0-0.1,0-0.1,0.1-0.2
					c0,0,0.1-0.1,0.1-0.1s0,0,0,0c-0.1,0-0.1,0.1-0.2,0.1c-0.1,0.1-0.1,0.2-0.2,0.3s-0.1,0.2-0.1,0.3s0,0.2,0,0.4
					c0,0.3,0.1,0.5,0.2,0.6c0.1,0.1,0.3,0.2,0.5,0.2c0.3,0,0.5-0.1,0.6-0.2s0.3-0.3,0.4-0.5c0.1,0.1,0.2,0.2,0.3,0.3
					c0.1,0.1,0.3,0.1,0.5,0.1c0.1,0,0.2-0.1,0.3-0.1c0.1-0.1,0.2-0.1,0.2-0.2c0.1-0.1,0.1-0.2,0.2-0.3c0-0.1,0.1-0.2,0.1-0.3
					c0-0.1,0-0.2,0-0.3s0-0.3,0-0.4c0-0.1,0-0.2-0.1-0.3s-0.1-0.1-0.1-0.1c0,0,0,0-0.1,0.1c0,0.1-0.1,0.1-0.1,0.2s-0.1,0.1-0.1,0.2
					c0,0.1,0,0.1,0,0.1c0,0,0,0.1,0,0.1s0,0.1,0,0.2c0,0.1,0,0.1,0,0.2s0,0.1,0,0.1c-0.1,0.1-0.2,0.1-0.3,0.1c-0.1,0-0.2,0-0.3,0
					c-0.2,0-0.3-0.1-0.3-0.2c-0.1-0.1-0.1-0.2-0.1-0.4c0,0,0,0,0-0.1c0,0,0-0.1,0-0.1S268.8,19.5,268.8,19.4
					C268.8,19.5,268.8,19.4,268.8,19.4z M268,19.3C268,19.3,268,19.3,268,19.3c0-0.1,0-0.1,0-0.2c0-0.1,0-0.1,0-0.2
					c0-0.1,0-0.1,0-0.1c0.1-0.5,0.1-1,0.1-1.5c-0.1-0.4-0.3-0.9-0.6-1.3c0,0,0-0.1,0.1-0.1c0-0.1,0.1-0.1,0.1-0.2
					c0.1-0.1,0.1-0.1,0.2-0.2c0.1-0.1,0.1-0.1,0.1-0.1c0,0,0,0,0.1,0.1c0.3,0.4,0.5,0.7,0.6,1.2c0.1,0.4,0.1,0.9,0.1,1.4
					c0,0.1-0.1,0.2-0.1,0.4c-0.1,0.1-0.1,0.3-0.2,0.4s-0.1,0.2-0.2,0.3S268.1,19.3,268,19.3z"/>
			</g>
		</g>
		<g>
			<path d="M290,27.2c0,0.1-0.1,0.2-0.2,0.4c-0.1,0.2-0.4,0.3-0.7,0.5c0,0.3,0,0.6-0.1,0.9c-0.1,0.2-0.2,0.4-0.3,0.4
				c-0.3-0.3-0.6-0.6-0.9-0.8c-0.3-0.2-0.6-0.4-1-0.4c0,0.3,0.2,0.7,0.5,1c0.3,0.3,0.5,0.6,0.8,0.8c0,0.1-0.3,0.3-0.8,0.4
				c-0.4,0.1-0.7,0.1-1,0.1c-0.4,1.2-0.9,2.2-1.6,3.2c-0.3,0.4-0.7,0.9-1.2,1.4c-0.7,0.7-1.2,1-1.5,1c-0.1,0-0.2-0.1-0.2-0.2
				c0-0.1,0.2-0.3,0.6-0.8c0.5-0.6,1-1.2,1.2-1.7c0.5-0.9,0.8-1.9,1-3c-0.4,0-0.6-0.1-0.7-0.1c-0.1,0-0.1-0.1-0.1-0.2
				c0.8-0.6,1.2-1.3,1.2-1.8c-0.3,0-0.7,0.1-0.9,0.4c-0.2,0.2-0.5,0.5-0.8,0.8c-0.1,0-0.2-0.1-0.3-0.4c-0.1-0.3-0.2-0.6-0.2-0.9
				c-0.3-0.2-0.5-0.3-0.6-0.3c-0.2-0.2-0.3-0.3-0.3-0.5c0-0.1,0.1-0.2,0.2-0.3c0.1-0.1,0.3-0.2,0.7-0.4c0-0.9,0.2-1.3,0.5-1.3
				c0.7,0.7,1.3,1.1,1.8,1.2c0-0.3-0.1-0.6-0.4-1c0,0-0.3-0.3-0.8-0.9c0-0.1,0.1-0.1,0.2-0.2c0.1-0.1,0.4-0.1,0.7-0.2
				c-0.2-0.9-0.5-1.8-1.1-2.7c-0.5-0.9-1.1-1.7-1.8-2.3c-0.1-0.1-0.2-0.2-0.2-0.3c0-0.1,0.1-0.1,0.2-0.1c0.2,0,0.6,0.2,1.1,0.5
				c1.5,1.1,2.6,2.7,3.4,4.8c1.1,0,1.7,0.2,1.7,0.5c-0.3,0.3-0.6,0.5-0.8,0.8c-0.2,0.3-0.4,0.7-0.4,1c0.3,0,0.6-0.1,0.9-0.4l0.9-0.8
				c0.2,0,0.3,0.4,0.4,1.1c0,0.1,0,0.1,0,0.2C289.7,26.7,290,26.9,290,27.2z M287.4,24.5c0,0-0.1-0.1-0.3-0.1s-0.4-0.1-0.5-0.1h-0.3
				c-0.1,0-0.1,0-0.2,0c-0.3-1-0.8-2-1.4-2.9c-0.7-1-1.5-1.8-2.4-2.4c0.6,0.6,1.2,1.3,1.6,2.1c0.6,1,1,2.1,1.1,3.1
				c-0.4,0-0.6,0.1-0.7,0.2c0.5,0.4,0.8,0.8,1,1.2c0.1-0.2,0.1-0.4,0.3-0.6c0,0,0.1-0.1,0.1-0.3c0.1-0.2,0.1-0.2,0.1-0.2
				c0.1,0,0.3,0.4,0.6,1.1c0.1-0.3,0.3-0.5,0.5-0.8C287.1,24.9,287.2,24.7,287.4,24.5z M284.6,27.8c-0.1,0-0.4-0.2-0.9-0.3
				c-0.3-0.1-0.5-0.2-0.5-0.3c0,0,0.3-0.1,0.8-0.4c0.1,0,0.3-0.1,0.6-0.2c-0.3-0.1-0.5-0.2-0.8-0.4c-0.1-0.1-0.3-0.3-0.5-0.5
				c-0.1,0-0.1,0.3-0.1,1c-0.5,0.3-0.7,0.5-0.8,0.6c0,0.1,0.3,0.3,0.8,0.5c0,0.7,0.1,1,0.2,1c0,0,0.2-0.1,0.5-0.4
				C284.2,28.1,284.4,27.9,284.6,27.8z M287.5,29.9c-0.4-0.3-0.7-0.7-1-1.2c0,0.1-0.1,0.3-0.3,0.5c0,0-0.1,0.1-0.2,0.3
				c-0.1,0.2-0.1,0.2-0.2,0.2c0,0-0.1-0.1-0.2-0.3c-0.1-0.2-0.1-0.3-0.1-0.3c0-0.1-0.1-0.3-0.3-0.6c-0.1,0.2-0.2,0.5-0.4,0.7
				c-0.1,0.2-0.3,0.3-0.5,0.5c0,0,0.2,0.1,0.6,0.2c-0.3,1-0.4,1.7-0.5,2c-0.4,1.2-1,2.3-2,3.3c1.5-1,2.7-2.8,3.5-5.3
				c0.6,0,0.8,0,0.7,0C287.3,30.1,287.5,30,287.5,29.9z M287,27.2c0-0.3-0.1-0.6-0.3-0.7c-0.2-0.2-0.5-0.3-0.8-0.3
				c-0.3,0-0.5,0.1-0.7,0.3c-0.2,0.2-0.3,0.4-0.3,0.7c0,0.3,0.1,0.5,0.3,0.7c0.2,0.2,0.5,0.3,0.8,0.3c0.3,0,0.6-0.1,0.8-0.3
				C286.9,27.8,287,27.5,287,27.2z M289.6,27.2c0-0.1-0.1-0.1-0.2-0.2c-0.1-0.1-0.3-0.2-0.6-0.3c0-0.3,0-0.5-0.1-0.7
				c0-0.2-0.1-0.3-0.1-0.3c0,0-0.2,0.1-0.4,0.4c-0.3,0.3-0.6,0.5-0.9,0.6c0.1,0.1,0.4,0.2,0.6,0.3c0,0,0.2,0.1,0.5,0.2
				c0.2,0.1,0.3,0.1,0.3,0.2c0,0.1-0.2,0.2-0.5,0.3c-0.5,0.1-0.8,0.2-0.9,0.3c0.3,0.1,0.6,0.2,0.8,0.4c0.1,0.1,0.3,0.3,0.5,0.5
				c0.1,0,0.1-0.1,0.1-0.3c0-0.1,0-0.3,0-0.7C289.3,27.5,289.6,27.3,289.6,27.2z"/>
		</g>
		<g>
			<path d="M117.8,27.5c0-0.1,0.1-0.2,0.2-0.4c0.1-0.2,0.4-0.3,0.7-0.5c0-0.3,0-0.6,0.1-0.9c0.1-0.2,0.2-0.4,0.3-0.4
				c0.3,0.3,0.6,0.6,0.9,0.8c0.3,0.2,0.6,0.4,1,0.4c0-0.3-0.2-0.7-0.5-1c-0.3-0.3-0.5-0.6-0.8-0.8c0-0.1,0.3-0.3,0.8-0.4
				c0.4-0.1,0.7-0.1,1-0.1c0.4-1.2,0.9-2.2,1.6-3.2c0.3-0.4,0.7-0.9,1.2-1.4c0.7-0.7,1.2-1,1.5-1c0.1,0,0.2,0.1,0.2,0.2
				c0,0.1-0.2,0.3-0.6,0.8c-0.5,0.6-1,1.2-1.2,1.7c-0.5,0.9-0.8,1.9-1,3c0.4,0,0.6,0.1,0.7,0.1c0.1,0,0.1,0.1,0.1,0.2
				c-0.8,0.6-1.2,1.3-1.2,1.8c0.3,0,0.7-0.1,0.9-0.4c0.2-0.2,0.5-0.5,0.8-0.8c0.1,0,0.2,0.1,0.3,0.4c0.1,0.3,0.2,0.6,0.2,0.9
				c0.3,0.2,0.5,0.3,0.6,0.3c0.2,0.2,0.3,0.3,0.3,0.5c0,0.1-0.1,0.2-0.2,0.3c-0.1,0.1-0.3,0.2-0.7,0.4c0,0.9-0.2,1.3-0.5,1.3
				c-0.7-0.7-1.3-1.1-1.8-1.2c0,0.3,0.1,0.6,0.4,1c0,0,0.3,0.3,0.8,0.9c0,0.1-0.1,0.1-0.2,0.2c-0.1,0.1-0.4,0.1-0.7,0.2
				c0.2,0.9,0.5,1.8,1.1,2.7c0.5,0.9,1.1,1.7,1.8,2.3c0.1,0.1,0.2,0.2,0.2,0.3c0,0.1-0.1,0.1-0.2,0.1c-0.2,0-0.6-0.2-1.1-0.5
				c-1.5-1.1-2.6-2.7-3.4-4.8c-1.1,0-1.7-0.2-1.7-0.5c0.3-0.3,0.6-0.5,0.8-0.8c0.2-0.3,0.4-0.7,0.4-1c-0.3,0-0.6,0.1-0.9,0.4
				l-0.9,0.8c-0.2,0-0.3-0.4-0.4-1.1c0-0.1,0-0.1,0-0.2C118.1,28,117.8,27.7,117.8,27.5z M120.4,30.2c0,0,0.1,0.1,0.3,0.1
				c0.2,0,0.4,0.1,0.5,0.1h0.3c0.1,0,0.1,0,0.2,0c0.3,1,0.8,2,1.4,2.9c0.7,1,1.5,1.8,2.4,2.4c-0.6-0.6-1.2-1.3-1.6-2.1
				c-0.6-1-1-2.1-1.1-3.1c0.4,0,0.6-0.1,0.7-0.2c-0.5-0.4-0.8-0.8-1-1.2c-0.1,0.2-0.1,0.4-0.3,0.6c0,0-0.1,0.1-0.1,0.3
				c-0.1,0.2-0.1,0.2-0.1,0.2c-0.1,0-0.3-0.4-0.6-1.1c-0.1,0.3-0.3,0.5-0.5,0.8C120.8,29.8,120.6,29.9,120.4,30.2z M123.2,26.8
				c0.1,0,0.4,0.2,0.9,0.3c0.3,0.1,0.5,0.2,0.5,0.3c0,0-0.3,0.1-0.8,0.4c-0.1,0-0.3,0.1-0.6,0.2c0.3,0.1,0.5,0.2,0.8,0.4
				c0.1,0.1,0.3,0.3,0.5,0.5c0.1,0,0.1-0.3,0.1-1c0.5-0.3,0.7-0.5,0.8-0.6c0-0.1-0.3-0.3-0.8-0.5c0-0.7-0.1-1-0.2-1
				c0,0-0.2,0.1-0.5,0.4C123.7,26.6,123.4,26.8,123.2,26.8z M120.3,24.7c0.4,0.3,0.7,0.7,1,1.2c0-0.1,0.1-0.3,0.3-0.5
				c0,0,0.1-0.1,0.2-0.3c0.1-0.2,0.1-0.2,0.2-0.2c0,0,0.1,0.1,0.2,0.3c0.1,0.2,0.1,0.3,0.1,0.3c0,0.1,0.1,0.3,0.3,0.6
				c0.1-0.2,0.2-0.5,0.4-0.7c0.1-0.2,0.3-0.3,0.5-0.5c0,0-0.2-0.1-0.6-0.2c0.3-1,0.4-1.7,0.5-2c0.4-1.2,1-2.3,2-3.3
				c-1.5,1-2.7,2.8-3.5,5.3c-0.6,0-0.8,0-0.7,0C120.6,24.6,120.3,24.6,120.3,24.7z M120.8,27.4c0,0.3,0.1,0.6,0.3,0.7
				c0.2,0.2,0.5,0.3,0.8,0.3c0.3,0,0.5-0.1,0.7-0.3c0.2-0.2,0.3-0.4,0.3-0.7c0-0.3-0.1-0.5-0.3-0.7c-0.2-0.2-0.5-0.3-0.8-0.3
				c-0.3,0-0.6,0.1-0.8,0.3C120.9,26.9,120.8,27.1,120.8,27.4z M118.3,27.5c0,0.1,0.1,0.1,0.2,0.2s0.3,0.2,0.6,0.3
				c0,0.3,0,0.5,0.1,0.7c0,0.2,0.1,0.3,0.1,0.3c0,0,0.2-0.1,0.4-0.4c0.3-0.3,0.6-0.5,0.9-0.6c-0.1-0.1-0.4-0.2-0.6-0.3
				c0,0-0.2-0.1-0.5-0.2c-0.2-0.1-0.3-0.1-0.3-0.2c0-0.1,0.2-0.2,0.5-0.3c0.5-0.1,0.8-0.2,0.9-0.3c-0.3-0.1-0.6-0.2-0.8-0.4
				c-0.1-0.1-0.3-0.3-0.5-0.5c-0.1,0-0.1,0.1-0.1,0.3c0,0.1,0,0.3,0,0.7C118.5,27.2,118.3,27.4,118.3,27.5z"/>
		</g>
	</g>
	<rect class="st1" width="407.8" height="49.5"/>
</g>
</svg>
