<?xml version="1.0" encoding="utf-8"?>
<!-- Generator: Adobe Illustrator 19.2.0, SVG Export Plug-In . SVG Version: 6.00 Build 0)  -->
<svg version="1.1" id="Layer_1" xmlns="http://www.w3.org/2000/svg" xmlns:xlink="http://www.w3.org/1999/xlink" x="0px" y="0px"
	 viewBox="0 0 316.4 59.4" style="enable-background:new 0 0 316.4 59.4;" xml:space="preserve">
<style type="text/css">
	.st0{fill:#BA0017;}
	.st1{fill:none;}
</style>
<g>
	<g>
		<g>
			<g>
				<g>
					<g>
						<path class="st0" d="M84.3,39.7v-2h2v2H84.3z"/>
						<path d="M92.6,36.8h-1.4c-0.4,0-0.8-0.2-1.1-0.5c-0.2-0.3-0.4-0.8-0.5-1.4c-0.1-0.6-0.2-1.4-0.3-2.3c0-0.7-0.1-1.5-0.1-2.3
							c0-0.8-0.1-1.4-0.2-1.8s-0.2-0.7-0.3-1c-0.1-0.3-0.3-0.6-0.6-0.8l1.2-1.9c0.3,0.8,0.4,1.7,0.5,2.8c0.1,0.7,0.1,2.3,0.2,4.8
							c0.1,1.2,0.3,1.9,0.5,2.2c0.2,0.3,0.4,0.4,0.6,0.4h1.4V36.8z"/>
						<path d="M98.4,25.3c0,0.3-0.2,0.6-0.5,0.9c-0.6,0.2-1.5,0.6-2.8,1.1c0-0.3,0.1-0.6,0.4-0.8C96,26.2,97,25.8,98.4,25.3z"/>
						<path d="M100.3,35.2c0,0.4-0.1,0.8-0.4,1.3c-0.3,0.5-0.5,0.8-0.8,0.8c-0.3,0-0.8-0.2-1.5-0.5c-0.7-0.3-1.2-0.6-1.7-0.9
							c-0.8,0.4-1.3,0.7-1.7,0.8c-0.4,0.2-1,0.2-1.5,0.2H92v-1.7h0.9c0.3,0,0.5,0,0.8-0.1c0.2,0,0.6-0.1,1-0.2
							c-0.2-0.1-0.3-0.3-0.5-0.4c-0.2-0.2-0.3-0.3-0.3-0.5c0-0.1,0-0.2,0-0.2c0-0.1,0.1-0.1,0.1-0.3l1-1.7c0.1-0.2,0.2-0.4,0.4-0.5
							s0.3-0.2,0.4-0.2c-0.4-0.3-0.7-0.5-0.7-0.7c0-0.1,0.1-0.5,0.4-1c0.1-0.2,0.2-0.5,0.4-0.8c0.4,0.4,0.9,1,1.6,1.7
							c0.8,1,1.4,1.8,1.9,2.5C100,33.9,100.3,34.6,100.3,35.2z M96.9,33.1c0-0.3-0.1-0.5-0.2-0.7c-0.1-0.2-0.4-0.3-0.7-0.3
							s-0.6,0.1-0.8,0.3c-0.3,0.2-0.4,0.4-0.4,0.7c0,0.3,0.4,0.6,1.2,1.1c0.3-0.2,0.5-0.4,0.6-0.5C96.8,33.5,96.9,33.3,96.9,33.1z
							 M99.2,35.3c0-0.2-0.2-0.6-0.5-1.1c-0.2-0.3-0.5-0.6-0.8-1c0,0.3-0.1,0.6-0.2,0.9c-0.1,0.3-0.3,0.5-0.6,0.6
							c0.4,0.2,0.8,0.4,1.2,0.6c0.3,0.1,0.6,0.2,0.7,0.2c0.1,0,0.1,0,0.2-0.1S99.2,35.4,99.2,35.3z"/>
						<path d="M110.3,36.3c0,1.1-0.4,2.1-1.2,3.2c-0.9,1.2-1.9,1.8-3.1,1.8c-0.4,0-0.9,0-1.3-0.1c-0.3-0.1-0.8-0.2-1.3-0.4
							c-0.4-0.1-0.8-0.3-1.3-0.4l0.2-0.3c0.4,0.1,0.7,0.2,1.1,0.3c0.4,0.1,0.8,0.1,1.1,0.1c0.8,0,1.5-0.2,2.3-0.6
							c0.6-0.3,1.1-0.8,1.7-1.4c0.3-0.3,0.7-0.8,1.2-1.5c-0.9,0-1.5-0.1-2-0.4c-0.5-0.3-0.7-0.8-0.7-1.6c0-0.7,0.2-1.3,0.5-1.9
							c0.4-0.7,0.8-1,1.4-1c0.6,0,1,0.3,1.2,1c0.2,0.5,0.3,1.2,0.3,2.1V36.3z M109.7,35.2c-0.1-0.6-0.3-1.1-0.5-1.3
							c-0.2-0.2-0.4-0.3-0.6-0.3c-0.2,0-0.3,0.1-0.5,0.2c-0.1,0.1-0.2,0.3-0.2,0.5c0,0.3,0.1,0.6,0.4,0.7S109,35.2,109.7,35.2z"/>
						<path d="M114.4,23c0,0.1,0,0.2,0,0.3s0,0.2-0.1,0.4l-0.8-0.5c-0.3,0.4-0.5,0.6-0.7,0.7c-0.5,0.5-0.9,0.7-1.2,0.7h-0.7
							c0.3-0.2,0.7-0.4,1.2-0.8c0.4-0.3,0.7-0.6,0.9-0.9c-0.2-0.1-0.4-0.3-0.5-0.4c-0.1-0.2-0.2-0.4-0.2-0.6c0-0.4,0.1-0.8,0.4-1.1
							c0.3-0.3,0.5-0.5,0.8-0.5c0.2,0,0.3,0.1,0.5,0.3c0.1,0.2,0.2,0.4,0.2,0.7c0,0.1,0,0.3-0.1,0.4c0,0.1-0.1,0.4-0.2,0.7
							c0.1,0.1,0.2,0.2,0.3,0.3C114.4,22.8,114.4,22.9,114.4,23z M113.7,21.9c0-0.2-0.1-0.3-0.2-0.5c-0.1-0.1-0.2-0.2-0.4-0.2
							c-0.1,0-0.1,0-0.2,0.1c0,0-0.1,0.1-0.1,0.1c0,0.1,0.1,0.3,0.2,0.4l0.4,0.3C113.7,22.1,113.7,22,113.7,21.9z"/>
						<path d="M115.6,36.8h-6v-1.7h5.2c0-0.6-0.1-1.1-0.2-1.6c-0.3,0.1-0.6,0.2-0.8,0.2c-0.3,0.1-0.6,0.1-0.8,0.1
							c-0.5,0-0.9-0.1-1.2-0.4c-0.3-0.3-0.5-0.7-0.5-1.2c0-0.9,0.2-1.7,0.5-2.4c0.4-0.8,0.8-1.1,1.4-1.1c0.8,0,1.4,0.6,1.8,1.9
							c0.4,1,0.5,2.2,0.5,3.6V36.8z M113.1,26.6l-0.7,1.4l-1.6-0.8l0.7-1.4L113.1,26.6z M114,31.8c-0.1-0.2-0.2-0.5-0.4-0.7
							c-0.3-0.3-0.5-0.5-0.8-0.5c-0.2,0-0.3,0.1-0.4,0.2s-0.2,0.3-0.2,0.5c0,0.5,0.3,0.8,0.9,0.8c0.1,0,0.3,0,0.5-0.1
							C113.7,31.9,113.9,31.9,114,31.8z M115.3,25.7l-0.8,1.4l-1.6-0.8l0.7-1.4L115.3,25.7z"/>
						<path d="M121.7,24.3c0,0.3-0.2,0.6-0.5,0.9c-0.6,0.2-1.5,0.6-2.8,1.1c0-0.3,0.1-0.6,0.4-0.8C119.3,25.3,120.3,24.9,121.7,24.3
							z"/>
						<path d="M122.4,36.8H118c-0.4,0-0.7-0.1-1-0.3s-0.4-0.5-0.4-0.8c0-0.2,0-0.5,0-0.7c0-0.2,0.1-0.4,0.1-0.7h0.2
							c0.1,0.3,0.2,0.5,0.4,0.6c0.2,0.1,0.4,0.1,0.6,0.1h3.8c0-1.2-0.2-2.1-0.5-2.8c-0.4-0.9-1.1-1.5-2-1.8l0.1-1.9
							c1.1,0.6,1.9,1.4,2.4,2.6c0.4,1,0.6,2.3,0.6,3.8V36.8z"/>
						<path d="M128.4,25.3c0,0.3-0.2,0.6-0.5,0.9c-0.6,0.2-1.5,0.6-2.8,1.1c0-0.3,0.1-0.6,0.4-0.8C126.1,26.2,127,25.8,128.4,25.3z"
							/>
						<path d="M139.3,36.8h-11.7c-0.4,0-0.7-0.1-1-0.2c-0.2-0.1-0.5-0.2-0.8-0.4c-0.3,0.2-0.5,0.4-0.8,0.5s-0.7,0.1-1.3,0.1h-1.9
							v-1.7h1.9c0.5,0,0.9,0,1.1-0.1c0.4-0.1,0.6-0.4,0.6-0.9c0-0.2,0-0.4,0-0.6c0-0.2-0.1-0.4-0.1-0.6l0.4-0.6
							c0.2,0.9,0.5,1.6,0.9,2.1c0.4,0.5,0.9,0.8,1.5,0.8c0.5,0,1.2-0.1,1.9-0.4c0.8-0.3,1.5-0.6,2.1-1c0.9-0.7,1.5-1.1,1.7-1.2
							c0.5-0.3,1-0.6,1.4-0.7c0.5-0.2,1-0.2,1.6-0.2c0.9,0,1.6,0.3,2,0.8c0.4,0.5,0.6,1.1,0.6,2V36.8z M137.7,34.4
							c0-0.3-0.2-0.6-0.6-0.7c-0.4-0.2-0.9-0.3-1.4-0.3c-0.7,0-1.4,0.2-2.4,0.7c-0.7,0.4-1.5,0.7-2.2,1.1h4.5c0.7,0,1.2-0.1,1.6-0.2
							C137.6,34.8,137.7,34.6,137.7,34.4z"/>
						<path d="M143.9,22.3c0,0.3-0.2,0.6-0.5,0.9c-0.6,0.2-1.5,0.6-2.8,1.1c0-0.3,0.1-0.6,0.4-0.8C141.5,23.3,142.5,22.9,143.9,22.3
							z"/>
						<path d="M144.7,36.8h-6v-1.7h5.2c0-0.6-0.1-1.1-0.2-1.6c-0.3,0.1-0.6,0.2-0.8,0.2c-0.3,0.1-0.6,0.1-0.8,0.1
							c-0.5,0-0.9-0.1-1.2-0.4c-0.3-0.3-0.5-0.7-0.5-1.2c0-0.9,0.2-1.7,0.5-2.4c0.4-0.8,0.8-1.1,1.4-1.1c0.8,0,1.4,0.6,1.8,1.9
							c0.4,1,0.5,2.2,0.5,3.6V36.8z M143.4,26l-0.8,1.4l-1.6-0.8l0.7-1.4L143.4,26z M143.1,31.8c-0.1-0.2-0.2-0.5-0.4-0.7
							c-0.3-0.3-0.5-0.5-0.8-0.5c-0.2,0-0.3,0.1-0.4,0.2s-0.2,0.3-0.2,0.5c0,0.5,0.3,0.8,0.9,0.8c0.1,0,0.3,0,0.5-0.1
							C142.7,31.9,142.9,31.9,143.1,31.8z"/>
						<path class="st0" d="M157,36.8h-1.2c-1.1,0-2,0.1-2.8,0.3c-1,0.3-1.5,0.6-1.5,1.1c0,0.4,0.1,0.9,0.2,1.4s0.3,1,0.4,1.5
							c0.2,0.5,0.2,1,0.2,1.4c0,0.2,0,0.5-0.1,0.7c0,0.2-0.1,0.5-0.2,0.8c-0.2-0.5-0.3-1.1-0.5-1.6c-0.3-1-0.5-1.8-0.7-2.3
							c-0.2-0.8-0.4-1.3-0.4-1.5c0-0.8,0.2-1.5,0.5-1.9c0.3-0.4,0.9-0.8,1.6-1c0.6-0.2,1.4-0.3,2.6-0.4c-0.4-0.4-0.7-0.7-0.8-0.7
							c-0.3-0.3-0.7-0.4-1-0.4c-0.2,0-0.4,0.1-0.6,0.2c-0.2,0.1-0.3,0.3-0.6,0.5l-0.4-0.3c0.2-0.5,0.4-0.9,0.7-1.2
							c0.4-0.5,0.9-0.7,1.5-0.7c0.4,0,0.8,0.2,1.2,0.4c0.3,0.2,0.7,0.6,1,1c0.2,0.2,0.4,0.6,0.8,1.1V36.8z"/>
						<path class="st0" d="M160.3,34.4c0,0.5-0.1,1-0.3,1.5c-0.1,0.3-0.3,0.7-0.6,1.2l-0.2-0.1c0-0.2,0-0.4,0.1-0.7
							c0-0.2,0-0.4,0-0.5c0-0.7-0.1-1.6-0.2-2.8c-0.1-1.2-0.2-2.5-0.4-3.8c-0.1-0.8-0.2-1.6-0.3-2.5c0.1-0.3,0.3-0.6,0.4-0.9
							s0.3-0.6,0.5-0.9c0.1,0.7,0.2,1.8,0.4,3s0.3,2.5,0.4,3.5C160.2,32.7,160.3,33.7,160.3,34.4z"/>
						<path class="st0" d="M167.2,20.4c0,0.3-0.2,0.6-0.5,0.9c-0.6,0.2-1.5,0.6-2.8,1.1c0-0.3,0.1-0.6,0.4-0.8
							C164.8,21.4,165.8,21,167.2,20.4z"/>
						<path class="st0" d="M167.9,36.8h-4.4c-0.4,0-0.7-0.1-1-0.3s-0.4-0.5-0.4-0.8c0-0.2,0-0.5,0-0.7c0-0.2,0.1-0.4,0.1-0.7h0.2
							c0.1,0.3,0.2,0.5,0.4,0.6c0.2,0.1,0.4,0.1,0.6,0.1h3.8c0-1.2-0.2-2.1-0.5-2.8c-0.4-0.9-1.1-1.5-2-1.8l0.1-1.9
							c1.1,0.6,1.9,1.4,2.4,2.6c0.4,1,0.6,2.3,0.6,3.8V36.8z M165.3,25.4l-0.8,1.4l-1.6-0.8l0.7-1.4L165.3,25.4z"/>
						<path class="st0" d="M174.4,25.3c0,0.3-0.2,0.6-0.5,0.9c-0.6,0.2-1.5,0.6-2.8,1.1c0-0.3,0.1-0.6,0.4-0.8
							C172,26.2,173,25.8,174.4,25.3z"/>
						<path class="st0" d="M178.5,36.8h-11.3v-1.7h8c-0.7-0.5-1.2-0.9-1.7-1.2c-0.6-0.4-1.1-0.6-1.6-0.8c-0.5-0.2-1.1-0.3-1.6-0.3
							c-0.3,0-0.7,0-1,0.1c0.2-0.5,0.4-0.9,0.7-1.2c0.4-0.4,1-0.6,1.7-0.6c0.7,0,1.4,0.3,2.4,1c0.4,0.3,1.2,0.9,2.2,1.9
							c0.8,0.7,1.3,1.1,1.6,1.2h0.6V36.8z"/>
						<path d="M190.8,23.9c0,0.4-0.1,0.8-0.4,1.1c-0.3,0.3-0.7,0.5-1.1,0.5c-0.4,0-0.6-0.1-0.8-0.3s-0.3-0.5-0.3-0.8
							c0-0.5,0.1-0.9,0.4-1.3c0.3-0.4,0.6-0.6,1-0.6c0.4,0,0.6,0.1,0.9,0.4S190.8,23.5,190.8,23.9z M190.2,24.1
							c0-0.2-0.1-0.4-0.4-0.6c-0.3-0.2-0.5-0.3-0.6-0.3c-0.2,0-0.3,0.1-0.4,0.2s-0.2,0.3-0.2,0.5c0,0.2,0.1,0.4,0.3,0.5
							c0.2,0.1,0.4,0.1,0.7,0.1c0.2,0,0.3,0,0.4-0.1C190.1,24.4,190.2,24.3,190.2,24.1z"/>
						<path d="M198.3,36.8H189c-1.3,0-2.2-0.2-3-0.7c-0.9-0.5-1.4-1.4-1.4-2.6c0-0.6,0.1-1.2,0.4-1.9c0.1-0.2,0.3-0.7,0.7-1.3
							l0.3,0.2c-0.1,0.3-0.3,0.6-0.4,0.9c-0.2,0.5-0.3,0.9-0.3,1.2c0,0.8,0.4,1.4,1.2,1.8c0.7,0.4,1.6,0.6,2.7,0.6h8.3v-0.3
							c0-0.7-0.1-1.3-0.3-1.8s-0.5-0.9-0.9-1.2l0.8-1.6c0.3,0.4,0.5,0.6,0.5,0.7c0.4,0.7,0.7,1.8,0.7,3.2V36.8z M191.4,28.9
							l-0.7,1.4l-1.6-0.8l0.7-1.4L191.4,28.9z M193.7,28l-0.8,1.4l-1.6-0.8l0.7-1.4L193.7,28z"/>
						<path d="M202.4,21.4c0,0.3-0.2,0.6-0.5,0.9c-0.6,0.2-1.5,0.6-2.8,1.1c0-0.3,0.1-0.6,0.4-0.8C200,22.3,201,21.9,202.4,21.4z"/>
						<path d="M202.4,36.8h-4.8v-1.7h3.8l-1.2-8.3l-0.5-0.2c0-0.4,0-0.9,0.1-1.3c0.1-0.4,0.2-0.8,0.4-1.1l0.1,0.1
							c0,0.4,0.2,0.7,0.6,0.8c0.3,0.1,0.7,0.3,1,0.4c0,0.3,0,0.7-0.1,1s-0.1,0.6-0.2,0.8l-0.5-0.2l1.2,7.7V36.8z"/>
						<path d="M207,36.8h-1.4c-0.4,0-0.8-0.2-1.1-0.5c-0.2-0.3-0.4-0.8-0.5-1.4c-0.1-0.6-0.2-1.4-0.3-2.3c0-0.7-0.1-1.5-0.1-2.3
							c0-0.8-0.1-1.4-0.2-1.8s-0.2-0.7-0.3-1c-0.1-0.3-0.3-0.6-0.6-0.8l1.2-1.9c0.3,0.8,0.4,1.7,0.5,2.8c0.1,0.7,0.1,2.3,0.2,4.8
							c0.1,1.2,0.3,1.9,0.5,2.2c0.2,0.3,0.4,0.4,0.6,0.4h1.4V36.8z"/>
						<path d="M211.6,22.3c0,0.3-0.2,0.6-0.5,0.9c-0.6,0.2-1.5,0.6-2.8,1.1c0-0.3,0.1-0.6,0.4-0.8C209.2,23.3,210.2,22.9,211.6,22.3
							z"/>
						<path d="M212.4,36.8h-6v-1.7h5.2c0-0.6-0.1-1.1-0.2-1.6c-0.3,0.1-0.6,0.2-0.8,0.2c-0.3,0.1-0.6,0.1-0.8,0.1
							c-0.5,0-0.9-0.1-1.2-0.4c-0.3-0.3-0.5-0.7-0.5-1.2c0-0.9,0.2-1.7,0.5-2.4c0.4-0.8,0.8-1.1,1.4-1.1c0.8,0,1.4,0.6,1.8,1.9
							c0.4,1,0.5,2.2,0.5,3.6V36.8z M209.8,26.6l-0.7,1.4l-1.6-0.8l0.7-1.4L209.8,26.6z M210.8,31.8c-0.1-0.2-0.2-0.5-0.4-0.7
							c-0.3-0.3-0.5-0.5-0.8-0.5c-0.2,0-0.3,0.1-0.4,0.2s-0.2,0.3-0.2,0.5c0,0.5,0.3,0.8,0.9,0.8c0.1,0,0.3,0,0.5-0.1
							C210.5,31.9,210.6,31.9,210.8,31.8z M212.1,25.7l-0.8,1.4l-1.6-0.8l0.7-1.4L212.1,25.7z"/>
						<path d="M221.2,34.4c0,0.5-0.1,1-0.3,1.5c-0.1,0.3-0.3,0.7-0.6,1.2l-0.2-0.1c0-0.2,0-0.4,0.1-0.7c0-0.2,0-0.4,0-0.5
							c0-0.7-0.1-1.6-0.2-2.8c-0.1-1.2-0.2-2.5-0.4-3.8c-0.1-0.8-0.2-1.6-0.3-2.5c0.1-0.3,0.3-0.6,0.4-0.9s0.3-0.6,0.5-0.9
							c0.1,0.7,0.2,1.8,0.4,3s0.3,2.5,0.4,3.5C221.2,32.7,221.2,33.7,221.2,34.4z"/>
						<path d="M228.8,36.8h-4.4c-0.4,0-0.7-0.1-1-0.3s-0.4-0.5-0.4-0.8c0-0.2,0-0.5,0-0.7c0-0.2,0.1-0.4,0.1-0.7h0.2
							c0.1,0.3,0.2,0.5,0.4,0.6c0.2,0.1,0.4,0.1,0.6,0.1h3.8c0-1.2-0.2-2.1-0.5-2.8c-0.4-0.9-1.1-1.5-2-1.8l0.1-1.9
							c1.1,0.6,1.9,1.4,2.4,2.6c0.4,1,0.6,2.3,0.6,3.8V36.8z M226.2,25.4l-0.8,1.4l-1.6-0.8l0.7-1.4L226.2,25.4z"/>
						<path d="M232,40.2c0,0.2-0.1,0.3-0.3,0.4c-0.1,0.1-0.3,0.2-0.6,0.3l-1.8,0.6c0-0.3,0.3-0.6,1-0.8c-0.2-0.1-0.4-0.2-0.5-0.3
							c-0.1-0.1-0.2-0.3-0.2-0.4c0-0.2,0.2-0.5,0.5-0.8c0.4-0.4,0.7-0.6,1-0.6c0.1,0,0.2,0,0.3,0.1s0.1,0.2,0.1,0.3
							c0,0.1,0,0.2-0.1,0.3c0,0.1-0.1,0.2-0.2,0.3c-0.2-0.2-0.4-0.3-0.7-0.3c-0.1,0-0.3,0-0.4,0.1s-0.2,0.1-0.2,0.2
							c0,0.1,0.2,0.2,0.5,0.4c0.3,0.2,0.6,0.3,0.8,0.3c0.1,0,0.2,0,0.3,0S231.8,40.3,232,40.2z M232.1,34.4c0,0.5-0.1,1-0.3,1.5
							c-0.1,0.3-0.3,0.7-0.6,1.2L231,37c0-0.2,0-0.4,0.1-0.7c0-0.2,0-0.4,0-0.5c0-0.7-0.1-1.6-0.2-2.8c-0.1-1.2-0.2-2.5-0.4-3.8
							c-0.1-0.8-0.2-1.6-0.3-2.5c0.1-0.3,0.3-0.6,0.4-0.9s0.3-0.6,0.5-0.9c0.1,0.7,0.2,1.8,0.4,3s0.3,2.5,0.4,3.5
							C232.1,32.7,232.1,33.7,232.1,34.4z"/>
					</g>
				</g>
			</g>
		</g>
	</g>
	<rect class="st1" width="316.4" height="59.4"/>
</g>
</svg>
