<?xml version="1.0" encoding="utf-8"?>
<!-- Generator: Adobe Illustrator 22.0.1, SVG Export Plug-In . SVG Version: 6.00 Build 0)  -->
<svg version="1.1" id="Layer_1" xmlns="http://www.w3.org/2000/svg" xmlns:xlink="http://www.w3.org/1999/xlink" x="0px" y="0px"
	 viewBox="0 0 316.5 60.2" style="enable-background:new 0 0 316.5 60.2;" xml:space="preserve">
<style type="text/css">
	.st0{fill:#542C0B;}
	.st1{fill:none;}
</style>
<g>
	<g>
		<g>
			<path class="st0" d="M86,43.3h-1.9c-1-1.5-1.8-3.1-2.3-4.7S81,35.4,81,33.9c0-1.9,0.3-3.7,1-5.3c0.6-1.5,1.3-2.8,2.1-4H86
				c-0.9,2-1.5,3.7-1.8,5c-0.3,1.4-0.5,2.9-0.5,4.4c0,1.1,0.1,2.2,0.3,3.3c0.2,1.1,0.5,2.2,0.8,3.2C85,41.1,85.4,42,86,43.3z"/>
			<path class="st0" d="M103,35.7c0,0.9-0.1,1.6-0.3,2.2c-0.2,0.5-0.5,1-0.9,1.3s-1,0.6-1.8,0.8s-1.6,0.3-2.4,0.3
				c-1.6,0-2.8-0.3-3.7-0.9s-1.3-1.4-1.3-2.5c0-0.9,0.1-1.7,0.4-2.5s0.9-1.9,1.8-3.2l0.6,0.4c-0.6,1.1-1.1,1.9-1.3,2.4
				c-0.2,0.5-0.3,1-0.3,1.5c0,0.7,0.4,1.2,1.1,1.7c0.7,0.4,1.7,0.7,2.9,0.7c1.2,0,2.2-0.2,3-0.7s1.2-1,1.2-1.7
				c0-0.4-0.1-0.8-0.2-1.2s-0.4-1-0.9-1.9l0.9-2.6c0.5,0.8,0.7,1.4,0.8,1.7c0.2,0.6,0.3,1.3,0.3,2.2v2H103z M99.8,28l-1.2,2.2
				L96.3,29l1.2-2.2L99.8,28z"/>
			<path class="st0" d="M107.7,36.2h-1.4c-0.8,0-1.3-0.3-1.7-0.9c-0.4-0.7-0.6-1.9-0.6-3.5V29c0-0.6-0.1-1.1-0.3-1.5
				c-0.1-0.2-0.3-0.4-0.6-0.7l1.1-2.4c0.4,0.5,0.6,1,0.8,1.5c0.2,0.6,0.3,1.3,0.3,2.3v1.9c0,1.4,0.1,2.3,0.3,2.8
				c0.1,0.4,0.4,0.6,0.7,0.6h1.4C107.7,33.5,107.7,36.2,107.7,36.2z"/>
			<path class="st0" d="M113.1,36.2H107v-2.7h5.1c-0.1-0.4-0.2-0.8-0.4-1.1c-0.1-0.2-0.3-0.5-0.7-0.9l0.8-2.3c0.5,0.6,0.8,1.1,1,1.7
				s0.3,1.5,0.3,2.7C113.1,33.6,113.1,36.2,113.1,36.2z M113,25.8l-1.1,2l-1.4-0.8l-0.8,1.5l-1.8-1l1-1.9l1.4,0.7l0.8-1.6L113,25.8z
				"/>
			<path class="st0" d="M117.8,36.2h-5.4v-2.7h4.2l-1.2-6.6l-0.6-0.4c0-0.4,0.1-0.8,0.2-1.2c0.1-0.5,0.4-1.1,0.8-1.8l0.4,0.2
				c0,0,0,0.1,0,0.3c0,0.2,0.1,0.4,0.4,0.6c0.2,0.2,0.6,0.4,1.2,0.6c-0.1,0.4-0.1,0.8-0.3,1.2c-0.1,0.4-0.2,0.8-0.4,1.1l-0.4-0.1
				l1.1,6C117.8,33.4,117.8,36.2,117.8,36.2z"/>
			<path class="st0" d="M122.5,36.2h-5.4v-2.7h4.2l-1.2-6.6l-0.6-0.4c0-0.4,0.1-0.8,0.2-1.2c0.1-0.5,0.4-1.1,0.8-1.8l0.4,0.2
				c0,0,0,0.1,0,0.3c0,0.2,0.1,0.4,0.4,0.6c0.2,0.2,0.6,0.4,1.2,0.6c-0.1,0.4-0.1,0.8-0.3,1.2c-0.1,0.4-0.2,0.8-0.4,1.1l-0.4-0.1
				l1.1,6C122.5,33.4,122.5,36.2,122.5,36.2z"/>
			<path class="st0" d="M126.1,33.3c0,0.6-0.1,1.1-0.2,1.6s-0.4,1.1-0.8,1.9l-0.6-0.2c0.2-0.8,0.2-1.5,0.2-2c0-0.4,0-1-0.1-1.7
				c-0.1-0.8-0.1-1.5-0.2-2.3s-0.3-1.6-0.5-2.7c-0.1-0.4-0.1-0.6-0.1-0.8c0-0.2,0.1-0.5,0.3-1c0.2-0.5,0.5-1.1,0.8-1.8l0.6,3.5
				c0.2,1.3,0.4,2.5,0.4,3.4C126.1,32,126.1,32.7,126.1,33.3z"/>
			<path class="st0" d="M135.9,35.5c0,1.1-0.5,2.2-1.4,3.3s-1.9,1.6-2.8,1.6c-0.5,0-1.1-0.2-1.8-0.5c-0.6-0.3-1.6-1-3-2l0.4-0.6
				c0.7,0.5,1.3,0.8,1.7,0.9c0.4,0.1,0.8,0.2,1.3,0.2c0.6,0,1.3-0.2,1.9-0.5c0.7-0.4,1.5-1.1,2.3-2c-0.3,0-0.5,0.1-0.7,0.1
				c-0.6,0-1.2-0.2-1.5-0.6s-0.6-1-0.6-1.7c0-1,0.2-1.9,0.7-2.8c0.5-1,1-1.5,1.7-1.5c0.5,0,1,0.4,1.3,1.1c0.4,0.7,0.5,1.6,0.5,2.6
				V35.5z M134.7,33.5c-0.2-1-0.6-1.6-1.1-1.6c-0.2,0-0.4,0.1-0.5,0.2c-0.1,0.2-0.2,0.3-0.2,0.5s0.1,0.4,0.4,0.6
				c0.3,0.2,0.6,0.2,1,0.2h0.4V33.5z"/>
			<path class="st0" d="M152.2,35.7c0,0.9-0.1,1.6-0.3,2.2c-0.2,0.5-0.5,1-0.9,1.3s-1,0.6-1.8,0.8s-1.6,0.3-2.4,0.3
				c-1.6,0-2.8-0.3-3.7-0.9S142,38.1,142,37c0-0.9,0.1-1.7,0.4-2.5c0.3-0.8,0.9-1.9,1.8-3.2l0.6,0.4c-0.6,1.1-1.1,1.9-1.3,2.4
				s-0.3,1-0.3,1.5c0,0.7,0.4,1.2,1.1,1.7c0.7,0.4,1.7,0.7,2.9,0.7s2.2-0.2,3-0.7s1.2-1,1.2-1.7c0-0.4-0.1-0.8-0.2-1.2
				c-0.1-0.4-0.4-1-0.9-1.9l0.9-2.6c0.5,0.8,0.7,1.4,0.8,1.7c0.2,0.6,0.3,1.3,0.3,2.2v1.9H152.2z M149,28l-1.2,2.2l-2.3-1.2l1.2-2.2
				L149,28z"/>
			<path class="st0" d="M155.9,33.3c0,0.6-0.1,1.1-0.2,1.6s-0.4,1.1-0.8,1.9l-0.6-0.2c0.2-0.8,0.2-1.5,0.2-2c0-0.4,0-1-0.1-1.7
				c-0.1-0.8-0.1-1.5-0.2-2.3s-0.3-1.6-0.5-2.7c-0.1-0.4-0.1-0.6-0.1-0.8c0-0.2,0.1-0.5,0.3-1s0.5-1.1,0.8-1.8l0.6,3.5
				c0.2,1.3,0.4,2.5,0.4,3.4C155.8,32,155.9,32.7,155.9,33.3z"/>
			<path class="st0" d="M163.4,36.2H159c-0.4,0-0.8-0.1-1-0.3c-0.3-0.2-0.4-0.6-0.4-1.1c0-0.3,0-0.6,0-0.9s0.1-0.7,0.1-1h0.4
				c0.1,0.2,0.2,0.4,0.3,0.5c0.2,0.1,0.4,0.2,0.6,0.2h3.4c-0.1-1-0.4-1.7-0.8-2.3c-0.3-0.5-0.7-0.9-1.3-1.2l0.7-3
				c0.8,0.6,1.4,1.4,1.8,2.4c0.3,0.9,0.5,2.1,0.5,3.7L163.4,36.2L163.4,36.2z M161.8,23.4l-1.2,2.2l-2.3-1.2l1.2-2.2L161.8,23.4z"/>
			<path class="st0" d="M168.1,36.2h-5.4v-2.7h4.2l-1.2-6.6l-0.6-0.4c0-0.4,0.1-0.8,0.2-1.2c0.1-0.5,0.4-1.1,0.8-1.8l0.4,0.2
				c0,0,0,0.1,0,0.3c0,0.2,0.1,0.4,0.4,0.6c0.2,0.2,0.6,0.4,1.2,0.6c-0.1,0.4-0.1,0.8-0.3,1.2c-0.1,0.4-0.2,0.8-0.4,1.1l-0.4-0.1
				l1.1,6V36.2z"/>
			<path class="st0" d="M172.8,36.2h-5.4v-2.7h4.2l-1.2-6.6l-0.6-0.4c0-0.4,0.1-0.8,0.2-1.2c0.1-0.5,0.4-1.1,0.8-1.8l0.4,0.2
				c0,0,0,0.1,0,0.3c0,0.2,0.1,0.4,0.4,0.6c0.2,0.2,0.6,0.4,1.2,0.6c-0.1,0.4-0.1,0.8-0.3,1.2c-0.1,0.4-0.2,0.8-0.4,1.1l-0.4-0.1
				l1.1,6V36.2z"/>
			<path class="st0" d="M176.4,33.3c0,0.6-0.1,1.1-0.2,1.6s-0.4,1.1-0.8,1.9l-0.6-0.2c0.2-0.8,0.2-1.5,0.2-2c0-0.4,0-1-0.1-1.7
				c-0.1-0.8-0.1-1.5-0.2-2.3s-0.3-1.6-0.5-2.7c-0.1-0.4-0.1-0.6-0.1-0.8c0-0.2,0.1-0.5,0.3-1s0.5-1.1,0.8-1.8l0.6,3.5
				c0.2,1.3,0.4,2.5,0.4,3.4C176.4,32,176.4,32.7,176.4,33.3z"/>
			<path class="st0" d="M183.4,43.3c0.5-1.2,0.9-2,1.1-2.7c0.2-0.6,0.4-1.3,0.6-2.1c0.2-0.8,0.3-1.6,0.4-2.3
				c0.1-0.7,0.1-1.5,0.1-2.2c0-1.5-0.2-3-0.5-4.4s-0.9-3.1-1.8-5h1.9c1,1.4,1.7,2.9,2.3,4.5c0.5,1.6,0.8,3.2,0.8,4.8
				c0,1.4-0.2,2.8-0.6,4.4c-0.5,1.7-1.3,3.5-2.4,5.2h-1.9V43.3z"/>
			<path class="st0" d="M198.5,33.3c0,0.6-0.1,1.1-0.2,1.6s-0.4,1.1-0.8,1.9l-0.6-0.2c0.2-0.8,0.2-1.5,0.2-2c0-0.4,0-1-0.1-1.7
				c-0.1-0.8-0.1-1.5-0.2-2.3s-0.3-1.6-0.5-2.7c-0.1-0.4-0.1-0.6-0.1-0.8c0-0.2,0.1-0.5,0.3-1s0.5-1.1,0.8-1.8l0.6,3.5
				c0.2,1.3,0.4,2.5,0.4,3.4C198.5,32,198.5,32.7,198.5,33.3z"/>
			<path class="st0" d="M206.1,36.2h-4.4c-0.4,0-0.8-0.1-1-0.3c-0.3-0.2-0.4-0.6-0.4-1.1c0-0.3,0-0.6,0-0.9s0.1-0.7,0.1-1h0.4
				c0.1,0.2,0.2,0.4,0.3,0.5c0.2,0.1,0.4,0.2,0.6,0.2h3.4c-0.1-1-0.4-1.7-0.8-2.3c-0.3-0.5-0.7-0.9-1.3-1.2l0.7-3
				c0.8,0.6,1.4,1.4,1.8,2.4c0.3,0.9,0.5,2.1,0.5,3.7L206.1,36.2L206.1,36.2z"/>
			<path class="st0" d="M215.8,31.5l-1.1,2.8c-1.8,0.5-3.2,1-4.3,1.3c-1,0.3-1.8,0.4-2.5,0.5c-0.5,0.1-1,0.1-1.5,0.1h-0.9v-2.7h1.1
				c0.2,0,0.3,0,0.4,0c0.2,0,0.4,0,0.6-0.1c-0.3-0.5-0.5-0.9-0.7-1.2c-0.1-0.3-0.2-0.6-0.2-1c0-1,0.4-1.8,1.2-2.5s1.7-1.1,2.8-1.1
				c0.7,0,1.4,0.2,2.1,0.7c0.6,0.4,1,1,1.3,1.6l-0.4,0.4c-0.5-0.2-0.9-0.3-1.2-0.4s-0.7-0.1-1.1-0.1c-0.8,0-1.5,0.1-2.1,0.2
				c-0.7,0.2-1.1,0.4-1.1,0.7c0,0.4,0.9,1.2,2.7,2.2L215.8,31.5z"/>
			<path class="st0" d="M227.2,36.2h-1.4c-0.8,0-1.3-0.3-1.7-0.9c-0.4-0.7-0.6-1.9-0.6-3.5V29c0-0.6-0.1-1.1-0.3-1.5
				c-0.1-0.2-0.3-0.4-0.6-0.7l1.1-2.4c0.4,0.5,0.6,1,0.8,1.5c0.2,0.6,0.3,1.3,0.3,2.3v1.9c0,1.4,0.1,2.3,0.3,2.8
				c0.1,0.4,0.4,0.6,0.7,0.6h1.4V36.2z"/>
			<path class="st0" d="M235.5,36.2c-0.7,0-1.5-0.1-2.4-0.4c-0.8-0.2-1.5-0.5-2.1-0.8c-0.4,0.6-0.8,0.9-1.4,1.1
				c-0.3,0.1-0.6,0.1-1.1,0.1h-1.9v-2.7h1.9c0.6,0,1.1-0.1,1.4-0.2c0.4-0.2,0.7-0.5,0.9-0.9c0.4-0.8,0.8-1.5,1.4-2
				c0.5-0.5,1-0.7,1.3-0.7s0.7,0.5,1.2,1.5c0.5,1.1,0.8,2,0.8,2.9L235.5,36.2L235.5,36.2z M233.6,33.2c0-0.1-0.1-0.4-0.4-0.7
				c-0.3-0.4-0.6-0.6-0.8-0.6c-0.3,0-0.5,0.3-0.6,0.9c0.3,0.1,0.6,0.2,0.8,0.3c0.5,0.2,0.8,0.3,0.9,0.3
				C233.6,33.4,233.6,33.3,233.6,33.2z"/>
		</g>
	</g>
</g>
<rect class="st1" width="316.5" height="60.2"/>
</svg>
