<?xml version="1.0" encoding="utf-8"?>
<!-- Generator: Adobe Illustrator 19.2.0, SVG Export Plug-In . SVG Version: 6.00 Build 0)  -->
<svg version="1.1" id="Layer_1" xmlns="http://www.w3.org/2000/svg" xmlns:xlink="http://www.w3.org/1999/xlink" x="0px" y="0px"
	 viewBox="0 0 407.8 49.8" style="enable-background:new 0 0 407.8 49.8;" xml:space="preserve">
<style type="text/css">
	.st0{fill:#BA0017;}
	.st1{fill:none;}
</style>
<g>
	<g>
		<g>
			<g>
				<g>
					<path d="M164,31.6v-2h2v2H164z"/>
					<path d="M172.4,28.8H171c-0.4,0-0.8-0.2-1.1-0.5c-0.2-0.3-0.4-0.8-0.5-1.4s-0.2-1.4-0.3-2.3c0-0.7-0.1-1.5-0.1-2.3
						s-0.1-1.4-0.2-1.8s-0.2-0.7-0.3-1c-0.1-0.3-0.3-0.6-0.6-0.8l1.2-1.9c0.3,0.8,0.4,1.7,0.5,2.8c0.1,0.7,0.1,2.3,0.2,4.8
						c0.1,1.2,0.3,1.9,0.5,2.2c0.2,0.3,0.4,0.4,0.6,0.4h1.4V28.8z"/>
					<path d="M177.4,14.2c0,0.3-0.2,0.6-0.5,0.9c-0.6,0.2-1.5,0.6-2.8,1.1c0-0.3,0.1-0.6,0.4-0.8C175.1,15.2,176,14.8,177.4,14.2z"
						/>
					<path d="M177.2,28.8h-5.6v-1.7h4.9c0-0.8-0.1-1.4-0.3-1.8c-0.1-0.3-0.4-0.7-0.9-1.2l0.8-1.6c0.5,0.6,0.8,1.1,0.9,1.4
						c0.2,0.5,0.3,1.3,0.3,2.5V28.8z M176.5,19.7l-0.7,1.4l-1.6-0.8l0.7-1.4L176.5,19.7z"/>
					<path d="M182.3,14.2c0,0.3-0.2,0.6-0.5,0.9c-0.6,0.2-1.5,0.6-2.8,1.1c0-0.3,0.1-0.6,0.4-0.8C179.9,15.2,180.9,14.8,182.3,14.2z
						"/>
					<path d="M182.1,28.8h-5.6v-1.7h4.9c0-0.8-0.1-1.4-0.3-1.8c-0.1-0.3-0.4-0.7-0.9-1.2l0.8-1.6c0.5,0.6,0.8,1.1,0.9,1.4
						c0.2,0.5,0.3,1.3,0.3,2.5V28.8z M181.3,19.7l-0.7,1.4l-1.6-0.8l0.7-1.4L181.3,19.7z"/>
					<path d="M186.9,17.7c0,0.4-0.1,0.8-0.4,1.1s-0.7,0.5-1.1,0.5c-0.4,0-0.6-0.1-0.8-0.3s-0.3-0.5-0.3-0.8c0-0.5,0.1-0.9,0.4-1.3
						s0.6-0.6,1-0.6c0.4,0,0.6,0.1,0.9,0.4S186.9,17.4,186.9,17.7z M186.3,18c0-0.2-0.1-0.4-0.4-0.6s-0.5-0.3-0.6-0.3
						c-0.2,0-0.3,0.1-0.4,0.2s-0.2,0.3-0.2,0.5c0,0.2,0.1,0.4,0.3,0.5c0.2,0.1,0.4,0.1,0.7,0.1c0.2,0,0.3,0,0.4-0.1
						S186.3,18.1,186.3,18z"/>
					<path d="M187,28.8h-5.6v-1.7h4.9c0-0.8-0.1-1.4-0.3-1.8c-0.1-0.3-0.4-0.7-0.9-1.2l0.8-1.6c0.5,0.6,0.8,1.1,0.9,1.4
						c0.2,0.5,0.3,1.3,0.3,2.5V28.8z M184.7,31.6L184,33l-1.6-0.8l0.7-1.4L184.7,31.6z M187,30.7l-0.8,1.4l-1.6-0.8l0.7-1.4
						L187,30.7z"/>
					<path d="M192.1,17.2c0,0.3-0.2,0.6-0.5,0.9c-0.6,0.2-1.5,0.6-2.8,1.1c0-0.3,0.1-0.6,0.4-0.8C189.7,18.1,190.7,17.7,192.1,17.2z
						"/>
					<path d="M191.9,28.8h-5.6v-1.7h4.9c0-0.8-0.1-1.4-0.3-1.8c-0.1-0.3-0.4-0.7-0.9-1.2l0.8-1.6c0.5,0.6,0.8,1.1,0.9,1.4
						c0.2,0.5,0.3,1.3,0.3,2.5V28.8z M190.9,31.1l-0.8,1.4l-1.6-0.8l0.7-1.4L190.9,31.1z"/>
					<path class="st0" d="M204.7,17.2c0,0.3-0.2,0.6-0.5,0.9c-0.6,0.2-1.5,0.6-2.8,1.1c0-0.3,0.1-0.6,0.4-0.8
						C202.3,18.1,203.3,17.7,204.7,17.2z"/>
					<path class="st0" d="M208,28.8c0,1.5-0.4,2.5-1.3,3.2c-0.9,0.7-2.4,1.1-4.4,1.1c-1.3,0-2.3-0.2-3-0.7c-0.8-0.5-1.1-1.3-1.1-2.3
						c0-0.6,0.1-1.1,0.2-1.7s0.3-1.1,0.6-1.7c0.1-0.4,0.4-0.9,0.7-1.6l0.4,0.2c-0.5,0.9-0.8,1.7-0.9,2.2s-0.2,1-0.2,1.5
						c0,0.8,0.3,1.4,0.9,1.8s1.4,0.6,2.5,0.6c1.2,0,2.3-0.2,3.3-0.7c1.2-0.5,1.8-1.3,1.8-2.3c0-0.7-0.1-1.3-0.3-1.9
						c-0.2-0.5-0.4-1-0.7-1.3l0.8-2c0.3,0.5,0.6,1.1,0.7,1.6s0.2,1.3,0.2,2.2V28.8z M204.3,21.3l-0.7,1.4l-1.5-0.8l0.7-1.4
						L204.3,21.3z"/>
					<path class="st0" d="M212.8,28.8h-5.6v-1.7h4.9c0-0.8-0.1-1.4-0.3-1.8c-0.1-0.3-0.4-0.7-0.9-1.2l0.8-1.6
						c0.5,0.6,0.8,1.1,0.9,1.4c0.2,0.5,0.3,1.3,0.3,2.5V28.8z M211.8,19.8c0,0.2-0.1,0.3-0.3,0.4c-0.1,0.1-0.3,0.2-0.6,0.3l-1.8,0.6
						c0-0.3,0.3-0.6,1-0.8c-0.2-0.1-0.4-0.2-0.5-0.3c-0.1-0.1-0.2-0.3-0.2-0.4c0-0.2,0.2-0.5,0.5-0.8c0.4-0.4,0.7-0.6,1-0.6
						c0.1,0,0.2,0,0.3,0.1s0.1,0.2,0.1,0.3c0,0.1,0,0.2-0.1,0.3s-0.1,0.2-0.2,0.3c-0.2-0.2-0.4-0.3-0.7-0.3c-0.1,0-0.3,0-0.4,0.1
						s-0.2,0.1-0.2,0.2c0,0.1,0.2,0.2,0.5,0.4s0.6,0.3,0.8,0.3c0.1,0,0.2,0,0.3,0S211.6,19.9,211.8,19.8z"/>
					<path class="st0" d="M217.4,28.8h-1.4c-0.4,0-0.8-0.2-1.1-0.5c-0.2-0.3-0.4-0.8-0.5-1.4s-0.2-1.4-0.3-2.3
						c0-0.7-0.1-1.5-0.1-2.3s-0.1-1.4-0.2-1.8s-0.2-0.7-0.3-1c-0.1-0.3-0.3-0.6-0.6-0.8l1.2-1.9c0.3,0.8,0.4,1.7,0.5,2.8
						c0.1,0.7,0.1,2.3,0.2,4.8c0.1,1.2,0.3,1.9,0.5,2.2c0.2,0.3,0.4,0.4,0.6,0.4h1.4V28.8z"/>
					<path class="st0" d="M224,14.2c0,0.3-0.2,0.6-0.5,0.9c-0.6,0.2-1.5,0.6-2.8,1.1c0-0.3,0.1-0.6,0.4-0.8
						C221.6,15.2,222.6,14.8,224,14.2z"/>
					<path class="st0" d="M228,28.8h-11.3v-1.7h8c-0.7-0.5-1.2-0.9-1.7-1.2c-0.6-0.4-1.1-0.6-1.6-0.8c-0.5-0.2-1.1-0.3-1.6-0.3
						c-0.3,0-0.7,0-1,0.1c0.2-0.5,0.4-0.9,0.7-1.2c0.4-0.4,1-0.6,1.7-0.6c0.7,0,1.4,0.3,2.4,1c0.4,0.3,1.2,0.9,2.2,1.9
						c0.8,0.7,1.3,1.1,1.6,1.2h0.6V28.8z M223.4,19.7l-0.7,1.4l-1.6-0.8l0.7-1.4L223.4,19.7z"/>
					<path d="M243.7,18.4l-0.5,1.8l-0.6-0.3l0,0.9c0,0.9-0.1,1.7-0.3,2.5c-0.2,0.9-0.6,1.8-1.1,2.7c0.2,0.5,0.4,0.8,0.5,1.1
						c0.1,0.4,0.2,0.8,0.2,1.3c0,0.2,0,0.4,0,0.6s0,0.4-0.1,0.6c-0.7,0.2-1.4,0.3-2.2,0.4s-1.5,0.1-2.3,0.1c0-0.1,0-0.2,0-0.3
						c0-0.5,0.1-1,0.2-1.4c1.1-0.6,2-1.4,2.8-2.3c-0.5-0.9-0.8-1.5-1-1.8c-0.2-0.4-0.6-1-1.2-1.8c-0.2-0.3-0.4-0.5-0.5-0.7
						c-0.2-0.2-0.4-0.3-0.5-0.3c-0.1,0-0.2,0-0.4,0.1c-0.1,0.1-0.2,0.1-0.3,0.1c-0.1,0-0.4-0.1-0.7-0.4c-0.3-0.3-0.5-0.6-0.8-0.9
						c-0.2-0.3-0.4-0.5-0.5-0.7s-0.1-0.4-0.1-0.7c0-0.4,0-0.7,0.1-0.9c0.1-0.3,0.2-0.5,0.4-0.5c0.3,0,0.7,0.3,1.2,0.8
						c0.4,0.5,1,1.1,1.5,1.8c0.5,0.7,1,1.4,1.4,2.1l1,1.6c0.3,0.5,0.6,1,0.9,1.6c0.4-0.9,0.7-1.8,0.9-2.7c0.1-0.8,0.2-1.8,0.2-3
						l-0.6-0.3c0-0.4,0-0.8,0.1-1.2s0.2-0.7,0.3-1l0.2,0.1c0,0.3,0.2,0.5,0.5,0.7c0.2,0.1,0.4,0.2,0.6,0.3S243.6,18.4,243.7,18.4z
						 M241.2,27.9c0-0.1,0-0.3-0.1-0.4s-0.2-0.4-0.4-0.8c-0.2,0.3-0.5,0.5-0.9,0.9s-0.8,0.6-1.1,0.8c0.8,0,1.3,0,1.6-0.1
						C240.9,28.3,241.2,28.2,241.2,27.9z"/>
				</g>
			</g>
		</g>
	</g>
	<rect class="st1" width="407.8" height="49.8"/>
</g>
</svg>
