<?xml version="1.0" encoding="utf-8"?>
<!-- Generator: Adobe Illustrator 22.0.1, SVG Export Plug-In . SVG Version: 6.00 Build 0)  -->
<svg version="1.1" id="Layer_1" xmlns="http://www.w3.org/2000/svg" xmlns:xlink="http://www.w3.org/1999/xlink" x="0px" y="0px"
	 viewBox="0 0 407.8 49.5" style="enable-background:new 0 0 407.8 49.5;" xml:space="preserve">
<style type="text/css">
	.st0{fill:#542C0B;}
	.st1{fill:none;}
</style>
<g>
	<g>
		<g>
			<path class="st0" d="M77.9,36.4H76c-1-1.5-1.8-3.1-2.3-4.7c-0.5-1.6-0.8-3.2-0.8-4.7c0-1.9,0.3-3.7,1-5.3c0.6-1.5,1.3-2.8,2.1-4
				h1.9c-0.9,2-1.5,3.7-1.8,5c-0.3,1.4-0.5,2.9-0.5,4.4c0,1.1,0.1,2.2,0.3,3.3c0.2,1.1,0.5,2.2,0.8,3.2
				C76.9,34.2,77.3,35.1,77.9,36.4z"/>
			<path class="st0" d="M92.7,29.5c0,0.4-0.2,0.9-0.7,1.6s-1,1.2-1.6,1.7c-0.7,0.5-1.3,0.8-1.7,0.8c-0.6,0-1.2-0.2-1.8-0.5
				c-0.6-0.3-1.5-0.8-2.7-1.7l0.4-0.6c0.6,0.4,1.1,0.7,1.4,0.8s0.7,0.2,1.2,0.2c0.4,0,0.9-0.1,1.3-0.4s1.1-0.7,1.8-1.4
				c1.1-1,1.6-1.7,1.6-2.2c0-0.3-0.1-0.6-0.3-1c-0.2-0.5-0.5-0.9-0.9-1.2l0.5-2.6c0.4,0.5,0.8,1,1,1.6s0.4,1.3,0.4,2L92.7,29.5
				L92.7,29.5z"/>
			<path class="st0" d="M98.2,29.3h-6.1v-2.7h5.1c-0.1-0.4-0.2-0.8-0.4-1.1c-0.1-0.2-0.3-0.5-0.7-0.9l0.8-2.3c0.5,0.6,0.8,1.1,1,1.7
				s0.3,1.5,0.3,2.7C98.2,26.7,98.2,29.3,98.2,29.3z M98,31l-1.1,2l-1.4-0.8l-0.8,1.5l-1.8-1l1-1.9l1.4,0.7l0.8-1.6L98,31z"/>
			<path class="st0" d="M107.8,24.6l-1.1,2.8c-1.8,0.5-3.2,1-4.3,1.3c-1,0.3-1.8,0.4-2.5,0.5c-0.5,0.1-1,0.1-1.5,0.1h-0.9v-2.7h1.1
				c0.2,0,0.3,0,0.4,0c0.2,0,0.4,0,0.6-0.1c-0.3-0.5-0.5-0.9-0.7-1.2s-0.2-0.6-0.2-1c0-1,0.4-1.8,1.2-2.5c0.8-0.7,1.7-1.1,2.8-1.1
				c0.7,0,1.4,0.2,2.1,0.7c0.6,0.4,1,1,1.3,1.6l-0.4,0.4c-0.5-0.2-0.9-0.3-1.2-0.4s-0.7-0.1-1.1-0.1c-0.8,0-1.5,0.1-2.1,0.2
				c-0.7,0.2-1.1,0.4-1.1,0.7c0,0.4,0.9,1.2,2.7,2.2L107.8,24.6z M103.9,17.4l-1.2,2.2l-2.3-1.2l1.2-2.2L103.9,17.4z"/>
			<path class="st0" d="M122.8,29.3h-1.3c-0.2,0-0.4,0-0.6-0.1c-0.4-0.2-0.7-0.5-1-1c-0.4-0.7-0.6-1.6-0.7-2.8
				c-0.4,0.5-0.8,0.9-1,1.2c-0.4,0.3-0.7,0.5-0.9,0.5c-0.1,0-0.3,0-0.5-0.1l-1.2-0.2c-0.5-0.1-0.8-0.2-0.9-0.2s-0.2-0.1-0.2-0.2
				c0-0.2,0.2-0.7,0.7-1.7c0.5-0.9,0.8-1.5,1-1.7s0.5-0.4,0.9-0.7c0.2-0.2,0.6-0.4,1.1-0.7l0.5-0.3c0-0.1,0-0.2,0-0.3
				c0-0.1,0-0.2,0-0.3c0-0.2,0.1-0.6,0.2-0.9c0.1-0.4,0.3-0.8,0.6-1.4l0.9,6.1c0.1,1,0.3,1.6,0.6,1.9c0.2,0.2,0.4,0.3,0.6,0.3h1.3
				L122.8,29.3L122.8,29.3z M120.6,15.6l-1.1,1.8l-1.4-0.8l-0.8,1.5l-1.8-1l1-1.7l1.4,0.7l0.8-1.5L120.6,15.6z M119,23.8l-0.2-1.2
				c-0.2,0.1-0.4,0.2-0.5,0.2c-0.4,0.2-0.6,0.4-0.9,0.5c-0.2,0.1-0.3,0.3-0.4,0.4s-0.2,0.3-0.2,0.3c0,0.1,0.1,0.2,0.3,0.2
				c0.2,0.1,0.5,0.1,0.7,0.1c0.1,0,0.3,0,0.4-0.1C118.5,24.1,118.8,24,119,23.8z"/>
			<path class="st0" d="M128.9,29.3h-6.8v-2.7h5.9c0-0.6,0-1,0-1.2c-0.1-0.4-0.2-0.7-0.3-1c-0.2,0.4-0.5,0.7-0.8,0.9
				s-0.7,0.3-1.1,0.3c-0.5,0-1-0.2-1.3-0.5c-0.4-0.3-0.5-0.8-0.5-1.3c0-0.8,0.2-1.7,0.7-2.7c0.5-1.2,1-1.7,1.6-1.7
				c0.7,0,1.3,0.6,1.9,1.8c0.6,1.2,0.9,2.5,0.9,3.8v4.3H128.9z M127.5,16.4l-1.2,2.2l-2.3-1.2l1.3-2.2L127.5,16.4z M126.8,22.7
				c-0.2-0.3-0.3-0.5-0.5-0.6c-0.1-0.1-0.3-0.2-0.4-0.2c-0.2,0-0.4,0.1-0.5,0.3s-0.2,0.4-0.2,0.6c0,0.1,0.1,0.3,0.2,0.4
				s0.3,0.2,0.5,0.2c0.1,0,0.3,0,0.5-0.1S126.6,22.9,126.8,22.7z"/>
			<path class="st0" d="M133.6,29.3h-1.4c-0.8,0-1.3-0.3-1.7-0.9c-0.4-0.7-0.6-1.9-0.6-3.5v-2.8c0-0.6-0.1-1.1-0.3-1.5
				c-0.1-0.2-0.3-0.4-0.6-0.7l1.1-2.4c0.4,0.5,0.6,1,0.8,1.5c0.2,0.6,0.3,1.3,0.3,2.3v1.9c0,1.4,0.1,2.3,0.3,2.8
				c0.1,0.4,0.4,0.6,0.7,0.6h1.4V29.3z"/>
			<path class="st0" d="M149.1,29.3h-10.3c-0.5,0-0.8-0.1-1.1-0.3c-0.3-0.2-0.5-0.6-0.7-1.1c-0.4,0.6-0.8,1-1.2,1.2
				c-0.3,0.2-0.8,0.3-1.4,0.3H133v-2.7h1.4c0.8,0,1.3-0.2,1.7-0.6c0.5-0.4,0.7-1.2,0.9-2.3l0.7,0.1c0,0.2,0,0.4,0,0.6
				c0,0.4,0,0.8,0,1c0,0.4,0.1,0.7,0.3,0.9c0.2,0.2,0.5,0.3,0.8,0.3s0.6-0.1,0.9-0.2c0.3-0.1,0.7-0.4,1.3-0.8l3.5-2.5
				c0.4-0.3,0.7-0.5,0.9-0.6c0.5-0.3,0.9-0.4,1.4-0.4c0.7,0,1.3,0.3,1.7,0.8c0.5,0.6,0.8,1.5,0.8,2.7v3.6H149.1z M144.2,18.8L143,21
				l-2.3-1.2l1.2-2.2L144.2,18.8z M147.7,25.6c0-0.3-0.2-0.5-0.7-0.7c-0.4-0.2-0.8-0.2-1.3-0.2c-0.4,0-0.9,0.1-1.5,0.4
				c-0.5,0.3-1.3,0.8-2.3,1.5h2.6C146.6,26.6,147.7,26.3,147.7,25.6z"/>
			<path class="st0" d="M158.5,18.9c0,0.5,0,0.9-0.1,1.4c0,0.2-0.1,0.5-0.3,1.1l-0.7-0.3c0,0.8-0.1,1.5-0.3,2.3s-0.5,1.5-0.9,2.3
				c0.4,0.6,0.6,1,0.6,1.1c0.2,0.3,0.2,0.6,0.2,0.8v0.3c0,0.2-0.1,0.8-0.2,2c-0.7,0.4-1.4,0.6-2,0.7s-1.5,0.2-2.6,0.2v-2.9
				c0.7-0.3,1.1-0.6,1.4-0.9c0.3-0.2,0.7-0.6,1.1-1.2c-0.7-0.9-1.3-1.6-1.6-2c-0.3-0.3-0.6-0.7-1.1-1.1c-0.1,0.2-0.2,0.4-0.2,0.4
				l-0.1,0.1c-0.2,0-0.4-0.1-0.9-0.4c-0.4-0.2-0.7-0.5-0.9-0.6c-0.2-0.2-0.4-0.5-0.5-1.1s-0.2-1.2-0.2-2c0-0.4,0-0.6,0.1-0.7
				s0.1-0.2,0.3-0.2c0.3,0,0.8,0.4,1.5,1.1c0.7,0.6,1.3,1.3,1.8,1.9c0.4,0.4,0.8,0.9,1.1,1.3s0.8,1.1,1.4,2.1
				c0.3-0.6,0.5-1.3,0.6-2.1c0.1-0.5,0.1-1.1,0.1-1.9c-0.2-0.1-0.4-0.2-0.5-0.3s-0.1-0.3-0.1-0.4c0-0.4,0-0.8,0.1-1.2
				c0.1-0.4,0.2-0.8,0.4-1.3l0.4,0.1c0,0.4,0.1,0.7,0.3,0.8C157.1,18.4,157.6,18.6,158.5,18.9z M155.6,33.3
				c-0.1,0.2-0.1,0.4-0.2,0.5c-0.1,0.1-0.2,0.1-0.3,0.2l-2.1,0.6c0.1-0.2,0.2-0.4,0.3-0.5s0.3-0.2,0.5-0.3c-0.2-0.1-0.3-0.2-0.4-0.3
				c-0.1-0.1-0.1-0.2-0.1-0.3s0-0.2,0.1-0.3s0.1-0.2,0.2-0.3c0.4-0.6,0.8-0.8,1.3-0.8c0.1,0,0.2,0,0.3,0.1s0.1,0.2,0.1,0.3
				c0,0.1,0,0.2,0,0.3s-0.1,0.2-0.2,0.3c-0.3-0.2-0.5-0.2-0.7-0.2s-0.2,0-0.4,0.1c-0.1,0-0.1,0.1-0.2,0.2c0,0.1,0.2,0.2,0.5,0.4
				s0.5,0.3,0.7,0.3C155,33.4,155.2,33.4,155.6,33.3z M155.9,27.4l-0.5-0.7c-0.3,0.3-0.5,0.5-0.7,0.7c-0.2,0.1-0.4,0.3-0.8,0.6
				c0.5-0.1,0.8-0.1,1.1-0.2C155.3,27.7,155.5,27.6,155.9,27.4z"/>
			<path class="st0" d="M162.4,26.4c0,0.6-0.1,1.1-0.2,1.6s-0.4,1.1-0.8,1.9l-0.6-0.2c0.2-0.8,0.2-1.5,0.2-2c0-0.4,0-1-0.1-1.7
				c-0.1-0.8-0.1-1.5-0.2-2.3s-0.3-1.6-0.5-2.7c-0.1-0.4-0.1-0.6-0.1-0.8c0-0.2,0.1-0.5,0.3-1s0.5-1.1,0.8-1.8l0.6,3.5
				c0.2,1.3,0.4,2.5,0.4,3.4C162.4,25,162.4,25.8,162.4,26.4z"/>
			<path class="st0" d="M179.5,28.8c0,0.9-0.1,1.6-0.3,2.2c-0.2,0.5-0.5,1-0.9,1.3s-1,0.6-1.8,0.8s-1.6,0.3-2.4,0.3
				c-1.6,0-2.8-0.3-3.7-0.9c-0.9-0.6-1.3-1.4-1.3-2.5c0-0.9,0.1-1.7,0.4-2.5c0.3-0.8,0.9-1.9,1.8-3.2l0.6,0.4
				c-0.6,1.1-1.1,1.9-1.3,2.4s-0.3,1-0.3,1.5c0,0.7,0.4,1.2,1.1,1.7c0.7,0.4,1.7,0.7,2.9,0.7s2.2-0.2,3-0.7s1.2-1,1.2-1.7
				c0-0.4-0.1-0.8-0.2-1.2c-0.1-0.4-0.4-1-0.9-1.9l0.9-2.6c0.5,0.8,0.7,1.4,0.8,1.7c0.2,0.6,0.3,1.3,0.3,2.2L179.5,28.8L179.5,28.8z
				 M176.3,21.1l-1.2,2.2l-2.3-1.2l1.2-2.2L176.3,21.1z"/>
			<path class="st0" d="M189.2,24.6l-1.1,2.8c-1.8,0.5-3.2,1-4.3,1.3c-1,0.3-1.8,0.4-2.5,0.5c-0.5,0.1-1,0.1-1.5,0.1h-0.9v-2.7h1.1
				c0.2,0,0.3,0,0.4,0c0.2,0,0.4,0,0.6-0.1c-0.3-0.5-0.5-0.9-0.7-1.2s-0.2-0.6-0.2-1c0-1,0.4-1.8,1.2-2.5s1.7-1.1,2.8-1.1
				c0.7,0,1.4,0.2,2.1,0.7c0.6,0.4,1,1,1.3,1.6l-0.4,0.4c-0.5-0.2-0.9-0.3-1.2-0.4s-0.7-0.1-1.1-0.1c-0.8,0-1.5,0.1-2.1,0.2
				c-0.7,0.2-1.1,0.4-1.1,0.7c0,0.4,0.9,1.2,2.7,2.2L189.2,24.6z"/>
			<path class="st0" d="M204.2,29.3h-1.3c-0.2,0-0.4,0-0.6-0.1c-0.4-0.2-0.7-0.5-1-1c-0.4-0.7-0.6-1.6-0.7-2.8
				c-0.4,0.5-0.8,0.9-1,1.2c-0.4,0.3-0.7,0.5-0.9,0.5c-0.1,0-0.3,0-0.5-0.1l-1.2-0.2c-0.5-0.1-0.8-0.2-0.9-0.2
				c-0.1,0-0.2-0.1-0.2-0.2c0-0.2,0.2-0.7,0.7-1.7c0.5-0.9,0.8-1.5,1-1.7s0.5-0.4,0.9-0.7c0.2-0.2,0.6-0.4,1.1-0.7l0.5-0.3
				c0-0.1,0-0.2,0-0.3c0-0.1,0-0.2,0-0.3c0-0.2,0.1-0.6,0.2-0.9c0.1-0.4,0.3-0.8,0.6-1.4l0.9,6.1c0.1,1,0.3,1.6,0.6,1.9
				c0.2,0.2,0.4,0.3,0.6,0.3h1.3v2.6H204.2z M201.9,15.6l-1.1,1.8l-1.4-0.8l-0.8,1.5l-1.8-1l1-1.7l1.4,0.7l0.8-1.5L201.9,15.6z
				 M200.4,23.8l-0.2-1.2c-0.2,0.1-0.4,0.2-0.5,0.2c-0.4,0.2-0.6,0.4-0.9,0.5c-0.2,0.1-0.3,0.3-0.4,0.4c-0.1,0.1-0.2,0.3-0.2,0.3
				c0,0.1,0.1,0.2,0.3,0.2c0.2,0.1,0.5,0.1,0.7,0.1c0.1,0,0.3,0,0.4-0.1C199.9,24.1,200.1,24,200.4,23.8z"/>
			<path class="st0" d="M213.8,24.6l-1.1,2.8c-1.8,0.5-3.2,1-4.3,1.3c-1,0.3-1.8,0.4-2.5,0.5c-0.5,0.1-1,0.1-1.5,0.1h-0.9v-2.7h1.1
				c0.2,0,0.3,0,0.4,0c0.2,0,0.4,0,0.6-0.1c-0.3-0.5-0.5-0.9-0.7-1.2s-0.2-0.6-0.2-1c0-1,0.4-1.8,1.2-2.5s1.7-1.1,2.8-1.1
				c0.7,0,1.4,0.2,2.1,0.7c0.6,0.4,1,1,1.3,1.6l-0.4,0.4c-0.5-0.2-0.9-0.3-1.2-0.4s-0.7-0.1-1.1-0.1c-0.8,0-1.5,0.1-2.1,0.2
				c-0.7,0.2-1.1,0.4-1.1,0.7c0,0.4,0.9,1.2,2.7,2.2L213.8,24.6z"/>
			<path class="st0" d="M224,28.6c0,1.1-0.5,2.2-1.4,3.3c-1,1.1-1.9,1.6-2.8,1.6c-0.5,0-1.1-0.2-1.8-0.5c-0.6-0.3-1.6-1-3-2l0.4-0.6
				c0.7,0.5,1.3,0.8,1.7,0.9s0.8,0.2,1.3,0.2c0.6,0,1.3-0.2,1.9-0.5c0.7-0.4,1.5-1.1,2.3-2c-0.3,0-0.5,0.1-0.7,0.1
				c-0.6,0-1.2-0.2-1.5-0.6s-0.6-1-0.6-1.7c0-1,0.2-1.9,0.7-2.8c0.5-1,1-1.5,1.7-1.5c0.5,0,1,0.4,1.3,1.1c0.4,0.7,0.5,1.6,0.5,2.6
				L224,28.6L224,28.6z M222.8,26.6c-0.2-1-0.6-1.6-1.1-1.6c-0.2,0-0.4,0.1-0.5,0.2c-0.1,0.2-0.2,0.3-0.2,0.5s0.1,0.4,0.4,0.6
				c0.3,0.2,0.6,0.2,1,0.2L222.8,26.6L222.8,26.6z"/>
			<path class="st0" d="M234.5,29.3h-11.2v-2.7h1.3c0.2,0,0.6-0.3,1.3-0.8c0.2-0.2,0.6-0.4,1-0.8c0-0.8,0-1.5-0.1-2
				c-0.1-0.6-0.2-1.1-0.3-1.7c0-0.1-0.2-0.8-0.5-2.1l-0.6-0.4c0.1-0.7,0.3-1.2,0.4-1.5c0.1-0.3,0.3-0.8,0.6-1.4l0.4,0.2
				c0,0,0,0.1,0,0.3c0,0.2,0.3,0.5,1,0.8c0.2,0.1,0.5,0.2,1,0.4c-0.1,0.5-0.2,1-0.3,1.4c-0.1,0.2-0.2,0.6-0.4,1l-0.4-0.1
				c0.2,0.9,0.3,1.6,0.4,2s0.1,0.8,0.1,1.2v0.1c0,0.2,0,0.3,0,0.4s0,0.3-0.1,0.5c0.3-0.2,0.7-0.5,1-0.7c0.5-0.4,1-0.7,1.4-0.9
				c0.5-0.3,1-0.4,1.3-0.4c0.8,0,1.4,0.2,1.8,0.6c0.5,0.4,0.8,1.1,0.8,1.9v4.7H234.5z M233.1,25.6c0-0.2-0.2-0.4-0.7-0.6
				s-0.9-0.3-1.3-0.3c-0.4,0-0.9,0.1-1.5,0.4c-0.5,0.3-1.3,0.8-2.3,1.5h2.6C232.1,26.6,233.1,26.3,233.1,25.6z"/>
			<path class="st0" d="M241,29.3h-7.2v-2.7h1.8c0.3,0,0.6,0,0.8,0c0.7,0.1,1.5,0.2,2.5,0.3c-1-0.2-1.6-0.5-2-0.9s-0.6-0.9-0.6-1.5
				c0-1,0.2-1.9,0.7-2.7s1-1.2,1.6-1.2c0.7,0,1.2,0.6,1.7,1.7s0.7,2.5,0.7,4.1V29.3z M239.8,17.5l-1.1,2l-1.4-0.8l-0.8,1.5l-1.8-1
				l1-1.9l1.4,0.7l0.8-1.6L239.8,17.5z M239.6,25.2c-0.2-0.6-0.5-1-0.8-1.3s-0.6-0.5-0.9-0.5c-0.1,0-0.2,0-0.3,0.1s-0.1,0.2-0.1,0.3
				c0,0.3,0.2,0.6,0.6,0.8S239.1,25.1,239.6,25.2z"/>
			<path class="st0" d="M249.3,29.3c-0.7,0-1.5-0.1-2.4-0.4c-0.8-0.2-1.5-0.5-2.1-0.8c-0.4,0.6-0.8,0.9-1.4,1.1
				c-0.3,0.1-0.6,0.1-1.1,0.1h-1.9v-2.7h1.9c0.6,0,1.1-0.1,1.4-0.2c0.4-0.2,0.7-0.5,0.9-0.9c0.4-0.8,0.8-1.5,1.4-2
				c0.5-0.5,1-0.7,1.3-0.7s0.7,0.5,1.2,1.5c0.5,1.1,0.8,2,0.8,2.9L249.3,29.3L249.3,29.3z M247.4,26.3c0-0.1-0.1-0.4-0.4-0.7
				c-0.3-0.4-0.6-0.6-0.8-0.6c-0.3,0-0.5,0.3-0.6,0.9c0.3,0.1,0.6,0.2,0.8,0.3c0.5,0.2,0.8,0.3,0.9,0.3
				C247.4,26.5,247.4,26.4,247.4,26.3z"/>
			<path class="st0" d="M254,29.3h-5.4v-2.7h4.2l-1.2-6.6l-0.6-0.4c0-0.4,0.1-0.8,0.2-1.2c0.1-0.5,0.4-1.1,0.8-1.8l0.4,0.2
				c0,0,0,0.1,0,0.3c0,0.2,0.1,0.4,0.4,0.6c0.2,0.2,0.6,0.4,1.2,0.6c-0.1,0.4-0.1,0.8-0.3,1.2c-0.1,0.4-0.2,0.8-0.4,1.1l-0.4-0.1
				l1.1,6V29.3z"/>
			<path class="st0" d="M257.6,26.4c0,0.6-0.1,1.1-0.2,1.6s-0.4,1.1-0.8,1.9l-0.6-0.2c0.2-0.8,0.2-1.5,0.2-2c0-0.4,0-1-0.1-1.7
				c-0.1-0.8-0.1-1.5-0.2-2.3s-0.3-1.6-0.5-2.7c-0.1-0.4-0.1-0.6-0.1-0.8c0-0.2,0.1-0.5,0.3-1s0.5-1.1,0.8-1.8l0.6,3.5
				c0.2,1.3,0.4,2.5,0.4,3.4C257.5,25,257.6,25.8,257.6,26.4z"/>
			<path class="st0" d="M279,29.3h-1.3c-1.1,0-2.4,0-3.9,0.1c-0.9,0-2,0.1-3.4,0.1c-1.4,0.1-2.1,0.1-2.2,0.1c-1.4,0-2.4-0.2-3-0.7
				s-0.9-1.2-0.9-2.1c0-0.7,0.1-1.4,0.2-1.9c0.1-0.6,0.5-1.4,1-2.7l0.6,0.3c-0.5,1.1-0.7,1.9-0.7,2.4c0,0.7,0.3,1.2,0.8,1.4
				c0.6,0.3,1.6,0.5,3,0.5c1-0.1,2-0.1,2.9-0.2c0.9,0,1.8-0.1,2.7-0.1c-0.3-0.1-0.5-0.3-0.6-0.4c-0.1-0.2-0.2-0.4-0.2-0.7
				c0-0.9,0.3-1.9,0.8-2.8c0.6-1,1.3-1.5,2-1.5s1.2,0.5,1.5,1.4s0.4,2.2,0.4,4v2.8H279z M278.2,17.8L277,20l-2.3-1.2l1.2-2.2
				L278.2,17.8z M277.5,25.4c-0.2-0.6-0.4-1.1-0.6-1.3c-0.1-0.2-0.3-0.3-0.6-0.3c-0.1,0-0.2,0-0.3,0.1c-0.1,0.1-0.1,0.2-0.1,0.4
				c0,0.2,0.1,0.4,0.4,0.6S277,25.2,277.5,25.4z"/>
			<path class="st0" d="M288,28.6c0,1.1-0.5,2.2-1.4,3.3c-1,1.1-1.9,1.6-2.8,1.6c-0.5,0-1.1-0.2-1.8-0.5c-0.6-0.3-1.6-1-3-2l0.4-0.6
				c0.7,0.5,1.3,0.8,1.7,0.9c0.4,0.1,0.8,0.2,1.3,0.2c0.6,0,1.3-0.2,1.9-0.5c0.7-0.4,1.5-1.1,2.3-2c-0.3,0-0.5,0.1-0.7,0.1
				c-0.6,0-1.2-0.2-1.5-0.6s-0.6-1-0.6-1.7c0-1,0.2-1.9,0.7-2.8c0.5-1,1-1.5,1.7-1.5c0.5,0,1,0.4,1.3,1.1c0.4,0.7,0.5,1.6,0.5,2.6
				V28.6z M286.9,26.6c-0.2-1-0.6-1.6-1.1-1.6c-0.2,0-0.4,0.1-0.5,0.2c-0.1,0.2-0.2,0.3-0.2,0.5s0.1,0.4,0.4,0.6s0.6,0.2,1,0.2
				L286.9,26.6L286.9,26.6z"/>
			<path class="st0" d="M296.7,29.5c0,0.4-0.2,0.9-0.7,1.6s-1,1.2-1.6,1.7c-0.7,0.5-1.3,0.8-1.7,0.8c-0.6,0-1.2-0.2-1.8-0.5
				c-0.6-0.3-1.5-0.8-2.7-1.7l0.4-0.6c0.6,0.4,1.1,0.7,1.4,0.8s0.7,0.2,1.2,0.2c0.4,0,0.9-0.1,1.3-0.4s1.1-0.7,1.8-1.4
				c1.1-1,1.6-1.7,1.6-2.2c0-0.3-0.1-0.6-0.3-1c-0.2-0.5-0.5-0.9-0.9-1.2l0.5-2.6c0.4,0.5,0.8,1,1,1.6s0.4,1.3,0.4,2v2.9H296.7z"/>
			<path class="st0" d="M307.2,29.3H296v-2.7h1.3c0.2,0,0.6-0.3,1.3-0.8c0.2-0.2,0.6-0.4,1-0.8c0-0.8,0-1.5-0.1-2
				c-0.1-0.6-0.2-1.1-0.3-1.7c0-0.1-0.2-0.8-0.5-2.1l-0.6-0.4c0.1-0.7,0.3-1.2,0.4-1.5s0.3-0.8,0.6-1.4l0.4,0.2c0,0,0,0.1,0,0.3
				c0,0.2,0.3,0.5,1,0.8c0.2,0.1,0.5,0.2,1,0.4c-0.1,0.5-0.2,1-0.3,1.4c-0.1,0.2-0.2,0.6-0.4,1l-0.4-0.1c0.2,0.9,0.3,1.6,0.4,2
				s0.1,0.8,0.1,1.2v0.1c0,0.2,0,0.3,0,0.4s0,0.3-0.1,0.5c0.3-0.2,0.7-0.5,1-0.7c0.5-0.4,1-0.7,1.4-0.9c0.5-0.3,1-0.4,1.3-0.4
				c0.8,0,1.4,0.2,1.8,0.6c0.5,0.4,0.8,1.1,0.8,1.9v4.7H307.2z M305.8,25.6c0-0.2-0.2-0.4-0.7-0.6s-0.9-0.3-1.3-0.3
				s-0.9,0.1-1.5,0.4c-0.5,0.3-1.3,0.8-2.3,1.5h2.6C304.7,26.6,305.8,26.3,305.8,25.6z M305.6,18.8l-1.2,2.2l-2.3-1.2l1.2-2.2
				L305.6,18.8z"/>
			<path class="st0" d="M311.8,29.3h-5.4v-2.7h4.2l-1.2-6.6l-0.6-0.4c0-0.4,0.1-0.8,0.2-1.2c0.1-0.5,0.4-1.1,0.8-1.8l0.4,0.2
				c0,0,0,0.1,0,0.3c0,0.2,0.1,0.4,0.4,0.6c0.2,0.2,0.6,0.4,1.2,0.6c-0.1,0.4-0.1,0.8-0.3,1.2c-0.1,0.4-0.2,0.8-0.4,1.1l-0.4-0.1
				l1.1,6L311.8,29.3L311.8,29.3z"/>
			<path class="st0" d="M316.5,29.3h-1.4c-0.8,0-1.3-0.3-1.7-0.9c-0.4-0.7-0.6-1.9-0.6-3.5v-2.8c0-0.6-0.1-1.1-0.3-1.5
				c-0.1-0.2-0.3-0.4-0.6-0.7l1.1-2.4c0.4,0.5,0.6,1,0.8,1.5c0.2,0.6,0.3,1.3,0.3,2.3v1.9c0,1.4,0.1,2.3,0.3,2.8
				c0.1,0.4,0.4,0.6,0.7,0.6h1.4L316.5,29.3L316.5,29.3z"/>
			<path class="st0" d="M323.7,29.3h-7.9v-2.7h6.3c-0.3-0.3-0.5-0.6-0.7-0.8c-0.2-0.2-0.5-0.4-0.8-0.7c-0.4-0.3-0.7-0.6-1.1-0.9
				l-0.3,0.4c-0.6-0.6-0.9-0.9-1-1c-0.3-0.4-0.5-0.8-0.5-1.3c0-0.7,0-1.1,0.1-1.4c0.1-0.4,0.4-0.7,0.8-1s0.8-0.5,1.2-0.7
				c0.3-0.2,0.8-0.4,1.3-0.6c0.3-0.1,0.8-0.3,1.7-0.6v2.3c0,0-0.3,0.1-0.8,0.3c-0.6,0.2-1.1,0.4-1.5,0.5c-0.5,0.2-0.8,0.4-0.8,0.5
				s0.2,0.3,0.7,0.8c0.6,0.6,1.2,1.2,1.6,1.7c0.7,0.8,1.3,1.7,1.7,2.5L323.7,29.3L323.7,29.3z"/>
			<path class="st0" d="M330,36.4c0.5-1.2,0.9-2,1.1-2.7c0.2-0.6,0.4-1.3,0.6-2.1c0.2-0.8,0.3-1.6,0.4-2.3c0.1-0.7,0.1-1.5,0.1-2.2
				c0-1.5-0.2-3-0.5-4.4s-0.9-3.1-1.8-5h1.9c1,1.4,1.7,2.9,2.3,4.5c0.5,1.6,0.8,3.2,0.8,4.8c0,1.4-0.2,2.8-0.6,4.4
				c-0.5,1.7-1.3,3.5-2.4,5.2H330V36.4z"/>
		</g>
	</g>
</g>
<rect class="st1" width="407.8" height="49.5"/>
</svg>
