<?xml version="1.0" encoding="utf-8"?>
<!-- Generator: Adobe Illustrator 19.2.0, SVG Export Plug-In . SVG Version: 6.00 Build 0)  -->
<svg version="1.1" id="Layer_1" xmlns="http://www.w3.org/2000/svg" xmlns:xlink="http://www.w3.org/1999/xlink" x="0px" y="0px"
	 viewBox="0 0 407.8 49.8" style="enable-background:new 0 0 407.8 49.8;" xml:space="preserve">
<style type="text/css">
	.st0{fill:#097B70;}
	.st1{fill:none;}
</style>
<g>
	<g>
		<path class="st0" d="M189.5,34.6h-1.9c-0.3,0-0.7-0.1-0.9-0.2c-0.5-0.3-1-0.8-1.4-1.5c-0.5-1-0.8-2.4-1-4.1
			c-0.6,0.8-1.1,1.4-1.5,1.7c-0.5,0.5-1,0.7-1.3,0.7c-0.2,0-0.4,0-0.7-0.1l-1.7-0.3c-0.7-0.2-1.2-0.3-1.4-0.3s-0.3-0.2-0.3-0.4
			c0-0.3,0.3-1.1,1-2.4c0.7-1.4,1.1-2.2,1.4-2.5c0.2-0.3,0.7-0.6,1.3-1c0.4-0.2,0.9-0.6,1.5-0.9l0.8-0.4c0-0.1,0-0.3-0.1-0.4
			c0-0.1,0-0.3,0-0.4c0-0.4,0.1-0.8,0.2-1.4c0.2-0.5,0.5-1.2,0.9-2l1.4,8.8c0.2,1.4,0.5,2.3,0.8,2.8c0.2,0.3,0.5,0.5,0.9,0.5h1.9
			V34.6z M186.2,14.7l-1.6,2.6l-2-1.1l-1.1,2.2l-2.6-1.4l1.5-2.5l2.1,1l1.2-2.2L186.2,14.7z M184,26.6l-0.3-1.7
			c-0.3,0.1-0.5,0.3-0.7,0.3c-0.5,0.3-0.9,0.5-1.2,0.8c-0.2,0.2-0.4,0.4-0.6,0.5c-0.2,0.2-0.3,0.4-0.3,0.5c0,0.1,0.2,0.2,0.5,0.3
			s0.7,0.1,1,0.1c0.2,0,0.4-0.1,0.7-0.2C183.2,27.1,183.5,26.9,184,26.6z"/>
		<path class="st0" d="M196.3,34.6h-7.8v-3.9h6.1l-1.7-9.6l-0.9-0.6c0-0.6,0.1-1.1,0.3-1.7c0.2-0.7,0.6-1.6,1.1-2.6l0.7,0.3
			c0,0.1,0,0.2-0.1,0.5c0,0.3,0.2,0.6,0.6,0.9c0.3,0.3,0.9,0.6,1.7,0.9c-0.1,0.6-0.2,1.2-0.4,1.8s-0.4,1.1-0.6,1.5l-0.5-0.2l1.5,8.8
			V34.6z"/>
		<path class="st0" d="M203.1,34.6h-2c-1.1,0-1.9-0.5-2.4-1.4c-0.5-1-0.8-2.7-0.8-5.1v-4c0-0.9-0.1-1.6-0.4-2.1
			c-0.1-0.2-0.4-0.6-0.8-1.1l1.5-3.5c0.5,0.8,0.9,1.5,1.1,2.2c0.3,0.9,0.4,2,0.4,3.3v2.8c0,2,0.1,3.3,0.4,4.1c0.2,0.6,0.5,0.9,1,0.9
			h2V34.6z"/>
		<path class="st0" d="M218.2,34.6h-16.2v-3.9h10.1c-1.1-1.2-2.2-2-3.2-2.5c-0.9-0.5-1.7-0.7-2.5-0.7c-0.2,0-0.5,0-0.7,0
			c-0.2,0-0.5,0.1-0.9,0.2c0.5-1.2,1.1-2.1,1.7-2.6c0.6-0.6,1.4-0.8,2.2-0.8c0.6,0,1.2,0.2,1.8,0.5s1.2,0.8,1.9,1.5
			c0.6,0.5,1.4,1.4,2.4,2.5c0.7,0.8,1.2,1.3,1.6,1.5s0.9,0.4,1.7,0.6V34.6z"/>
		<path class="st0" d="M225,34.6h-7.8v-3.9h6.1l-1.7-9.6l-0.9-0.6c0-0.6,0.1-1.1,0.3-1.7c0.2-0.7,0.6-1.6,1.1-2.6l0.7,0.3
			c0,0.1,0,0.2-0.1,0.5c0,0.3,0.2,0.6,0.6,0.9c0.3,0.3,0.9,0.6,1.7,0.9c-0.1,0.6-0.2,1.2-0.4,1.8s-0.4,1.1-0.6,1.5l-0.5-0.2l1.5,8.8
			V34.6z"/>
		<path class="st0" d="M230.3,30.5c0,0.8-0.1,1.6-0.3,2.3c-0.2,0.7-0.6,1.6-1.1,2.8l-0.8-0.3c0.2-1.2,0.3-2.2,0.3-2.9
			c0-0.6,0-1.4-0.1-2.5s-0.2-2.2-0.4-3.3c-0.1-1.1-0.4-2.4-0.7-3.9c-0.1-0.5-0.2-0.9-0.2-1.1c0-0.3,0.1-0.8,0.4-1.5
			c0.3-0.7,0.7-1.6,1.2-2.6l0.8,5c0.3,1.9,0.5,3.6,0.7,5C230.2,28.4,230.3,29.5,230.3,30.5z"/>
	</g>
	<rect class="st1" width="407.8" height="49.8"/>
</g>
</svg>
