<?xml version="1.0" encoding="utf-8"?>
<!-- Generator: Adobe Illustrator 22.0.1, SVG Export Plug-In . SVG Version: 6.00 Build 0)  -->
<svg version="1.1" id="Layer_1" xmlns="http://www.w3.org/2000/svg" xmlns:xlink="http://www.w3.org/1999/xlink" x="0px" y="0px"
	 viewBox="0 0 407.8 49.5" style="enable-background:new 0 0 407.8 49.5;" xml:space="preserve">
<style type="text/css">
	.st0{fill:#542C0B;}
	.st1{fill:none;}
</style>
<g>
	<g>
		<g>
			<path class="st0" d="M63,36.9h-1.9c-1-1.5-1.8-3.1-2.3-4.7C58.3,30.6,58,29,58,27.5c0-1.9,0.3-3.7,1-5.3c0.6-1.5,1.3-2.8,2.1-4
				H63c-0.9,2-1.5,3.7-1.8,5c-0.3,1.4-0.5,2.8-0.5,4.4c0,1.1,0.1,2.2,0.3,3.3c0.2,1.1,0.5,2.2,0.8,3.2C62,34.7,62.4,35.6,63,36.9z"
				/>
			<path class="st0" d="M76.1,29.8h-4.4c-0.4,0-0.8-0.1-1-0.3c-0.3-0.2-0.4-0.6-0.4-1.1c0-0.3,0-0.6,0-0.9s0.1-0.7,0.1-1h0.4
				c0.1,0.2,0.2,0.4,0.3,0.5c0.2,0.1,0.4,0.2,0.6,0.2h3.4c-0.1-1-0.4-1.7-0.8-2.3C74,24.4,73.6,24,73,23.7l0.7-3
				c0.8,0.6,1.4,1.4,1.8,2.4c0.3,0.9,0.5,2.1,0.5,3.7v3H76.1z"/>
			<path class="st0" d="M83.3,29.8h-1.4c-0.5,0-1-0.1-1.4-0.3c-0.4-0.2-0.7-0.5-0.9-1c-0.4,0.5-1,0.9-1.7,1.1
				c-0.4,0.1-0.9,0.2-1.5,0.2h-1v-2.7h1c0.5,0,0.9,0,1.1-0.1s0.5-0.2,0.9-0.4c-0.2-0.4-0.4-0.7-0.5-0.8c-0.2-0.2-0.4-0.3-0.5-0.3
				s-0.1,0-0.2,0.1s-0.1,0.1-0.2,0.3l-0.4-0.1c0-1.2,0.2-2,0.6-2.5s1-0.8,1.9-0.8s1.6,0.2,2.1,0.5c0.5,0.4,0.8,0.8,0.8,1.5
				c0,0.3-0.1,0.7-0.2,1s-0.4,0.7-0.8,1.2c0.1,0.1,0.2,0.2,0.4,0.3c0.2,0.1,0.3,0.1,0.4,0.1h1.4L83.3,29.8L83.3,29.8z"/>
			<path class="st0" d="M88.7,29.8h-6.1v-2.7h5.1c-0.1-0.4-0.2-0.8-0.4-1.1c-0.1-0.2-0.3-0.5-0.7-0.9l0.8-2.3c0.5,0.6,0.8,1.1,1,1.7
				s0.3,1.5,0.3,2.7C88.7,27.2,88.7,29.8,88.7,29.8z M87.7,31.9l-1.2,2.2l-2.3-1.2l1.2-2.2L87.7,31.9z"/>
			<path class="st0" d="M97.7,29.1c0,1.1-0.5,2.2-1.4,3.3c-1,1.1-1.9,1.6-2.8,1.6c-0.5,0-1.1-0.2-1.8-0.5c-0.6-0.3-1.6-1-3-2
				l0.4-0.6c0.7,0.5,1.3,0.8,1.7,0.9c0.4,0.1,0.8,0.2,1.3,0.2c0.6,0,1.3-0.2,1.9-0.5c0.7-0.4,1.5-1.1,2.3-2c-0.3,0-0.5,0.1-0.7,0.1
				c-0.6,0-1.2-0.2-1.5-0.6s-0.6-1-0.6-1.7c0-1,0.2-1.9,0.7-2.8c0.5-1,1-1.5,1.7-1.5c0.5,0,1,0.4,1.3,1.1c0.4,0.7,0.5,1.6,0.5,2.6
				V29.1z M96.6,27.2c-0.2-1-0.6-1.6-1.1-1.6c-0.2,0-0.4,0.1-0.5,0.2c-0.1,0.2-0.2,0.3-0.2,0.5s0.1,0.4,0.4,0.6s0.6,0.2,1,0.2
				L96.6,27.2L96.6,27.2z"/>
			<path class="st0" d="M112.3,29.6c0,1-0.5,1.9-1.6,2.7c-1,0.8-2.2,1.2-3.6,1.2c-1.1,0-2-0.3-2.6-0.8c-0.6-0.6-0.9-1.3-0.9-2.4
				c0-0.9,0.1-1.8,0.4-2.5c0.3-0.8,0.8-1.8,1.6-2.9l0.6,0.4c-0.5,0.8-0.9,1.4-1.1,2s-0.3,1.1-0.3,1.7s0.2,1.1,0.7,1.4
				s1.1,0.5,1.9,0.5c1.1,0,2.1-0.2,2.8-0.7c0.7-0.4,1.1-1,1.1-1.7c0-0.1,0-0.2,0-0.3c0-0.1,0-0.1,0-0.2c0-0.3,0-0.5-0.1-0.8
				c0-0.3-0.2-0.9-0.3-1.9c-0.3-1.5-0.6-3.1-0.8-4.6l-0.5-0.4c0-0.6,0.3-1.6,0.9-2.9l0.4,0.2c0,0.1,0,0.2,0,0.3
				c0,0.3,0.1,0.5,0.4,0.6c0.4,0.2,0.8,0.4,1.1,0.6c-0.1,0.6-0.1,1-0.2,1.2s-0.2,0.6-0.4,1.1l-0.3-0.1c0,0.1,0.1,0.7,0.3,1.7
				c0.2,1,0.3,1.9,0.5,2.6c0.2,1.1,0.3,1.7,0.3,1.9v2.1H112.3z"/>
			<path class="st0" d="M117.8,29.8h-6.1v-2.7h5.1c-0.1-0.4-0.2-0.8-0.4-1.1c-0.1-0.2-0.3-0.5-0.7-0.9l0.8-2.3
				c0.5,0.6,0.8,1.1,1,1.7s0.3,1.5,0.3,2.7C117.8,27.2,117.8,29.8,117.8,29.8z M116.8,31.9l-1.2,2.2l-2.3-1.2l1.2-2.2L116.8,31.9z"
				/>
			<path class="st0" d="M123.8,29.8H117v-2.7h5.9c0-0.6,0-1,0-1.2c-0.1-0.4-0.2-0.7-0.3-1c-0.2,0.4-0.5,0.7-0.8,0.9
				s-0.7,0.3-1.1,0.3c-0.5,0-1-0.2-1.3-0.5c-0.4-0.3-0.5-0.8-0.5-1.3c0-0.8,0.2-1.7,0.7-2.7c0.5-1.2,1-1.7,1.6-1.7
				c0.7,0,1.3,0.6,1.9,1.8s0.9,2.5,0.9,3.8v4.3H123.8z M122.9,16.8l-1.1,2l-1.4-0.8l-0.8,1.5l-1.8-1l1-1.9l1.4,0.7l0.8-1.6
				L122.9,16.8z M121.7,23.2c-0.2-0.3-0.3-0.5-0.5-0.6c-0.1-0.1-0.3-0.2-0.4-0.2c-0.2,0-0.4,0.1-0.5,0.3s-0.2,0.4-0.2,0.6
				s0.1,0.3,0.2,0.4s0.3,0.2,0.5,0.2c0.1,0,0.3,0,0.5-0.1S121.5,23.4,121.7,23.2z"/>
			<path class="st0" d="M137.7,29.8h-1.3c-0.2,0-0.4,0-0.6-0.1c-0.4-0.2-0.7-0.5-1-1c-0.4-0.7-0.6-1.6-0.7-2.8
				c-0.4,0.5-0.8,0.9-1,1.2c-0.4,0.3-0.7,0.5-0.9,0.5c-0.1,0-0.3,0-0.5-0.1l-1.2-0.2c-0.5-0.1-0.8-0.2-0.9-0.2
				c-0.1,0-0.2-0.1-0.2-0.2c0-0.2,0.2-0.7,0.7-1.7c0.5-0.9,0.8-1.5,1-1.7s0.5-0.4,0.9-0.7c0.2-0.2,0.6-0.4,1.1-0.7l0.5-0.3
				c0-0.1,0-0.2,0-0.3c0-0.1,0-0.2,0-0.3c0-0.2,0.1-0.6,0.2-0.9c0.1-0.4,0.3-0.8,0.6-1.4l0.9,6.1c0.1,1,0.3,1.6,0.6,1.9
				c0.2,0.2,0.4,0.3,0.6,0.3h1.3v2.6H137.7z M135.4,16.1l-1.1,1.8l-1.4-0.8l-0.8,1.5l-1.8-1l1-1.7l1.4,0.7l0.8-1.5L135.4,16.1z
				 M133.9,24.3l-0.2-1.2c-0.2,0.1-0.4,0.2-0.5,0.2c-0.4,0.2-0.6,0.4-0.9,0.5c-0.2,0.1-0.3,0.3-0.4,0.4c-0.1,0.1-0.2,0.3-0.2,0.3
				c0,0.1,0.1,0.2,0.3,0.2c0.2,0.1,0.5,0.1,0.7,0.1c0.1,0,0.3,0,0.4-0.1C133.4,24.7,133.6,24.5,133.9,24.3z"/>
			<path class="st0" d="M143.8,29.8H137v-2.7h5.9c0-0.6,0-1,0-1.2c-0.1-0.4-0.2-0.7-0.3-1c-0.2,0.4-0.5,0.7-0.8,0.9
				s-0.7,0.3-1.1,0.3c-0.5,0-1-0.2-1.3-0.5c-0.4-0.3-0.5-0.8-0.5-1.3c0-0.8,0.2-1.7,0.7-2.7c0.5-1.2,1-1.7,1.6-1.7
				c0.7,0,1.3,0.6,1.9,1.8s0.9,2.5,0.9,3.8v4.3H143.8z M142.4,16.9l-1.2,2.2l-2.3-1.2l1.3-2.2L142.4,16.9z M141.7,23.2
				c-0.2-0.3-0.3-0.5-0.5-0.6c-0.1-0.1-0.3-0.2-0.4-0.2c-0.2,0-0.4,0.1-0.5,0.3s-0.2,0.4-0.2,0.6s0.1,0.3,0.2,0.4
				c0.1,0.1,0.3,0.2,0.5,0.2c0.1,0,0.3,0,0.5-0.1S141.5,23.4,141.7,23.2z"/>
			<path class="st0" d="M148.5,29.8h-1.4c-0.8,0-1.3-0.3-1.7-0.9c-0.4-0.7-0.6-1.9-0.6-3.5v-2.8c0-0.6-0.1-1.1-0.3-1.5
				c-0.1-0.2-0.3-0.4-0.6-0.7L145,18c0.4,0.5,0.6,1,0.8,1.5c0.2,0.6,0.3,1.3,0.3,2.3v1.9c0,1.4,0.1,2.3,0.3,2.8
				c0.1,0.4,0.4,0.6,0.7,0.6h1.4V29.8z"/>
			<path class="st0" d="M163.9,29.8h-10.3c-0.5,0-0.8-0.1-1.1-0.3c-0.3-0.2-0.5-0.6-0.7-1.1c-0.4,0.6-0.8,1-1.2,1.2
				c-0.3,0.2-0.8,0.3-1.4,0.3h-1.4v-2.7h1.4c0.8,0,1.3-0.2,1.7-0.6c0.5-0.4,0.7-1.2,0.9-2.3l0.7,0.1c0,0.2,0,0.4,0,0.6
				c0,0.4,0,0.8,0,1c0,0.4,0.1,0.7,0.3,0.9c0.2,0.2,0.5,0.3,0.8,0.3s0.6-0.1,0.9-0.2c0.3-0.1,0.7-0.4,1.3-0.8l3.5-2.5
				c0.4-0.3,0.7-0.5,0.9-0.6c0.5-0.3,0.9-0.4,1.4-0.4c0.7,0,1.3,0.3,1.7,0.8c0.5,0.6,0.8,1.5,0.8,2.7v3.6H163.9z M159.1,19.3
				l-1.2,2.2l-2.3-1.2l1.2-2.2L159.1,19.3z M162.5,26.2c0-0.3-0.2-0.5-0.7-0.7c-0.4-0.1-0.8-0.2-1.3-0.2c-0.4,0-0.9,0.1-1.5,0.4
				c-0.5,0.3-1.3,0.8-2.3,1.5h2.6C161.5,27.2,162.5,26.8,162.5,26.2z"/>
			<path class="st0" d="M173.3,19.4c0,0.5,0,0.9-0.1,1.4c0,0.2-0.1,0.6-0.3,1.1l-0.7-0.3c0,0.8-0.1,1.5-0.3,2.3s-0.5,1.5-0.9,2.3
				c0.4,0.6,0.6,1,0.6,1.1c0.2,0.3,0.2,0.6,0.2,0.8v0.3c0,0.2-0.1,0.8-0.2,2c-0.7,0.4-1.4,0.6-2,0.7s-1.5,0.2-2.6,0.2v-2.9
				c0.7-0.3,1.1-0.6,1.4-0.9c0.3-0.2,0.7-0.6,1.1-1.2c-0.7-0.9-1.3-1.6-1.6-2c-0.3-0.3-0.6-0.7-1.1-1.1c-0.1,0.2-0.2,0.4-0.2,0.4
				l-0.1,0.1c-0.2,0-0.4-0.1-0.9-0.4c-0.4-0.2-0.7-0.5-0.9-0.6c-0.2-0.2-0.4-0.5-0.5-1.1s-0.2-1.2-0.2-2c0-0.4,0-0.6,0.1-0.7
				s0.1-0.2,0.3-0.2c0.3,0,0.8,0.4,1.5,1.1c0.7,0.6,1.3,1.3,1.8,1.9c0.4,0.4,0.8,0.9,1.1,1.3s0.8,1.1,1.4,2.1
				c0.3-0.6,0.5-1.3,0.6-2.1c0.1-0.5,0.1-1.1,0.1-1.9c-0.2-0.1-0.4-0.2-0.5-0.3s-0.1-0.3-0.1-0.4c0-0.4,0-0.8,0.1-1.2
				c0.1-0.4,0.2-0.8,0.4-1.3l0.4,0.1c0,0.4,0.1,0.7,0.3,0.8C171.9,19,172.4,19.2,173.3,19.4z M170.4,33.8c-0.1,0.2-0.1,0.4-0.2,0.5
				c-0.1,0.1-0.2,0.1-0.3,0.2l-2.1,0.6c0.1-0.2,0.2-0.4,0.3-0.5s0.3-0.2,0.5-0.3c-0.2-0.1-0.3-0.2-0.4-0.3c-0.1-0.1-0.1-0.2-0.1-0.3
				s0-0.2,0.1-0.3s0.1-0.2,0.2-0.3c0.4-0.6,0.8-0.8,1.3-0.8c0.1,0,0.2,0,0.3,0.1s0.1,0.2,0.1,0.3s0,0.2,0,0.3s-0.1,0.2-0.2,0.3
				c-0.3-0.2-0.5-0.2-0.7-0.2s-0.2,0-0.4,0.1c-0.1,0-0.1,0.1-0.2,0.2c0,0.1,0.2,0.2,0.5,0.4s0.5,0.3,0.7,0.3
				C169.8,33.9,170.1,33.9,170.4,33.8z M170.8,27.9l-0.5-0.7c-0.3,0.3-0.5,0.5-0.7,0.7c-0.2,0.1-0.4,0.3-0.8,0.6
				c0.5-0.1,0.8-0.1,1.1-0.2C170.1,28.3,170.4,28.1,170.8,27.9z"/>
			<path class="st0" d="M177.3,27c0,0.6-0.1,1.1-0.2,1.6s-0.4,1.1-0.8,1.9l-0.6-0.2c0.2-0.8,0.2-1.5,0.2-2c0-0.4,0-1-0.1-1.7
				c-0.1-0.8-0.1-1.5-0.2-2.3s-0.3-1.6-0.5-2.7c-0.1-0.4-0.1-0.6-0.1-0.8c0-0.2,0.1-0.5,0.3-1s0.5-1.1,0.8-1.8l0.6,3.5
				c0.2,1.3,0.4,2.5,0.4,3.4C177.2,25.6,177.3,26.3,177.3,27z"/>
			<path class="st0" d="M194.4,29.3c0,0.9-0.1,1.6-0.3,2.2c-0.2,0.5-0.5,1-0.9,1.3s-1,0.6-1.8,0.8s-1.6,0.3-2.4,0.3
				c-1.6,0-2.8-0.3-3.7-0.9s-1.3-1.4-1.3-2.5c0-0.9,0.1-1.7,0.4-2.5c0.3-0.8,0.9-1.9,1.8-3.2l0.6,0.4c-0.6,1.1-1.1,1.9-1.3,2.4
				s-0.3,1-0.3,1.5c0,0.7,0.4,1.2,1.1,1.7c0.7,0.4,1.7,0.6,2.9,0.6s2.2-0.2,3-0.7s1.2-1,1.2-1.7c0-0.4-0.1-0.8-0.2-1.2
				c-0.1-0.4-0.4-1-0.9-1.9l0.9-2.6c0.5,0.8,0.7,1.4,0.8,1.7c0.2,0.6,0.3,1.3,0.3,2.2L194.4,29.3L194.4,29.3z M191.1,21.6l-1.2,2.2
				l-2.3-1.2l1.2-2.2L191.1,21.6z"/>
			<path class="st0" d="M204,25.1l-1.1,2.8c-1.8,0.5-3.2,1-4.3,1.3c-1,0.3-1.8,0.4-2.5,0.5c-0.5,0.1-1,0.1-1.5,0.1h-0.9v-2.7h1.1
				c0.2,0,0.3,0,0.4,0c0.2,0,0.4,0,0.6-0.1c-0.3-0.5-0.5-0.9-0.7-1.2s-0.2-0.6-0.2-1c0-1,0.4-1.8,1.2-2.5s1.7-1.1,2.8-1.1
				c0.7,0,1.4,0.2,2.1,0.7c0.6,0.4,1,1,1.3,1.6l-0.4,0.4c-0.5-0.2-0.9-0.3-1.2-0.4s-0.7-0.1-1.1-0.1c-0.8,0-1.5,0.1-2.1,0.2
				c-0.7,0.2-1.1,0.4-1.1,0.7c0,0.4,0.9,1.2,2.7,2.2L204,25.1z"/>
			<path class="st0" d="M219,29.8h-1.3c-0.2,0-0.4,0-0.6-0.1c-0.4-0.2-0.7-0.5-1-1c-0.4-0.7-0.6-1.6-0.7-2.8c-0.4,0.5-0.8,0.9-1,1.2
				c-0.4,0.3-0.7,0.5-0.9,0.5c-0.1,0-0.3,0-0.5-0.1l-1.2-0.2c-0.5-0.1-0.8-0.2-0.9-0.2c-0.1,0-0.2-0.1-0.2-0.2
				c0-0.2,0.2-0.7,0.7-1.7c0.5-0.9,0.8-1.5,1-1.7s0.5-0.4,0.9-0.7c0.2-0.2,0.6-0.4,1.1-0.7l0.5-0.3c0-0.1,0-0.2,0-0.3
				c0-0.1,0-0.2,0-0.3c0-0.2,0.1-0.6,0.2-0.9c0.1-0.4,0.3-0.8,0.6-1.4l0.9,6.1c0.1,1,0.3,1.6,0.6,1.9c0.2,0.2,0.4,0.3,0.6,0.3h1.3
				v2.6H219z M216.8,16.1l-1.1,1.8l-1.4-0.8l-0.8,1.5l-1.8-1l1-1.7l1.4,0.7l0.8-1.5L216.8,16.1z M215.2,24.3l-0.2-1.2
				c-0.2,0.1-0.4,0.2-0.5,0.2c-0.4,0.2-0.6,0.4-0.9,0.5c-0.2,0.1-0.3,0.3-0.4,0.4c-0.1,0.1-0.2,0.3-0.2,0.3c0,0.1,0.1,0.2,0.3,0.2
				c0.2,0.1,0.5,0.1,0.7,0.1c0.1,0,0.3,0,0.4-0.1C214.7,24.7,214.9,24.5,215.2,24.3z"/>
			<path class="st0" d="M228.7,25.1l-1.1,2.8c-1.8,0.5-3.2,1-4.3,1.3c-1,0.3-1.8,0.4-2.5,0.5c-0.5,0.1-1,0.1-1.5,0.1h-0.9v-2.7h1.1
				c0.2,0,0.3,0,0.4,0c0.2,0,0.4,0,0.6-0.1c-0.3-0.5-0.5-0.9-0.7-1.2s-0.2-0.6-0.2-1c0-1,0.4-1.8,1.2-2.5s1.7-1.1,2.8-1.1
				c0.7,0,1.4,0.2,2.1,0.7c0.6,0.4,1,1,1.3,1.6l-0.4,0.4c-0.5-0.2-0.9-0.3-1.2-0.4s-0.7-0.1-1.1-0.1c-0.8,0-1.5,0.1-2.1,0.2
				c-0.7,0.2-1.1,0.4-1.1,0.7c0,0.4,0.9,1.2,2.7,2.2L228.7,25.1z"/>
			<path class="st0" d="M238.9,29.1c0,1.1-0.5,2.2-1.4,3.3c-1,1.1-1.9,1.6-2.8,1.6c-0.5,0-1.1-0.2-1.8-0.5c-0.6-0.3-1.6-1-3-2
				l0.4-0.6c0.7,0.5,1.3,0.8,1.7,0.9s0.8,0.2,1.3,0.2c0.6,0,1.3-0.2,1.9-0.5c0.7-0.4,1.5-1.1,2.3-2c-0.3,0-0.5,0.1-0.7,0.1
				c-0.6,0-1.2-0.2-1.5-0.6s-0.6-1-0.6-1.7c0-1,0.2-1.9,0.7-2.8c0.5-1,1-1.5,1.7-1.5c0.5,0,1,0.4,1.3,1.1c0.4,0.7,0.5,1.6,0.5,2.6
				L238.9,29.1L238.9,29.1z M237.7,27.2c-0.2-1-0.6-1.6-1.1-1.6c-0.2,0-0.4,0.1-0.5,0.2c-0.1,0.2-0.2,0.3-0.2,0.5s0.1,0.4,0.4,0.6
				c0.3,0.2,0.6,0.2,1,0.2L237.7,27.2L237.7,27.2z"/>
			<path class="st0" d="M249.3,29.8h-11.2v-2.7h1.3c0.2,0,0.6-0.3,1.3-0.8c0.2-0.2,0.6-0.4,1-0.8c0-0.8,0-1.5-0.1-2
				c-0.1-0.6-0.2-1.1-0.3-1.7c0-0.1-0.2-0.8-0.5-2.1l-0.6-0.4c0.1-0.7,0.3-1.2,0.4-1.5c0.1-0.3,0.3-0.8,0.6-1.4l0.4,0.2
				c0,0,0,0.1,0,0.3c0,0.2,0.3,0.5,1,0.8c0.2,0.1,0.5,0.2,1,0.4c-0.1,0.5-0.2,1-0.3,1.4c-0.1,0.2-0.2,0.6-0.4,1l-0.4-0.1
				c0.2,0.9,0.3,1.6,0.4,2s0.1,0.8,0.1,1.2v0.1c0,0.2,0,0.3,0,0.4s0,0.3-0.1,0.5c0.3-0.2,0.7-0.5,1-0.7c0.5-0.4,1-0.7,1.4-0.9
				c0.5-0.3,1-0.4,1.3-0.4c0.8,0,1.4,0.2,1.8,0.6c0.5,0.4,0.8,1.1,0.8,1.9v4.7H249.3z M248,26.2c0-0.2-0.2-0.4-0.7-0.6
				s-0.9-0.3-1.3-0.3c-0.4,0-0.9,0.1-1.5,0.4c-0.5,0.3-1.3,0.8-2.3,1.5h2.6C246.9,27.2,248,26.8,248,26.2z"/>
			<path class="st0" d="M255.8,29.8h-7.2v-2.7h1.8c0.3,0,0.6,0,0.8,0c0.7,0.1,1.5,0.2,2.5,0.3c-1-0.2-1.6-0.5-2-0.9
				s-0.6-0.9-0.6-1.5c0-1,0.2-1.9,0.7-2.7s1-1.2,1.6-1.2c0.7,0,1.2,0.6,1.7,1.7s0.7,2.5,0.7,4.1V29.8z M254.6,18.1l-1.1,2l-1.4-0.8
				l-0.8,1.5l-1.8-1l1-1.9l1.4,0.7l0.8-1.6L254.6,18.1z M254.5,25.8c-0.2-0.6-0.5-1-0.8-1.3s-0.6-0.5-0.9-0.5c-0.1,0-0.2,0-0.3,0.1
				s-0.1,0.2-0.1,0.3c0,0.3,0.2,0.6,0.6,0.8S253.9,25.7,254.5,25.8z"/>
			<path class="st0" d="M264.1,29.8c-0.7,0-1.5-0.1-2.4-0.4c-0.8-0.2-1.5-0.5-2.1-0.8c-0.4,0.6-0.8,0.9-1.4,1.1
				c-0.3,0.1-0.6,0.1-1.1,0.1h-1.9v-2.7h1.9c0.6,0,1.1-0.1,1.4-0.2c0.4-0.2,0.7-0.5,0.9-0.9c0.4-0.8,0.8-1.5,1.4-2
				c0.5-0.5,1-0.7,1.3-0.7s0.7,0.5,1.2,1.5c0.5,1.1,0.8,2,0.8,2.9L264.1,29.8L264.1,29.8z M262.3,26.8c0-0.1-0.1-0.4-0.4-0.7
				c-0.3-0.4-0.6-0.6-0.8-0.6c-0.3,0-0.5,0.3-0.6,0.9c0.3,0.1,0.6,0.2,0.8,0.3c0.5,0.2,0.8,0.3,0.9,0.3
				C262.2,27,262.3,26.9,262.3,26.8z"/>
			<path class="st0" d="M268.8,29.8h-5.4v-2.7h4.2l-1.2-6.6l-0.6-0.4c0-0.4,0.1-0.8,0.2-1.2c0.1-0.5,0.4-1.1,0.8-1.8l0.4,0.2
				c0,0,0,0.1,0,0.3c0,0.2,0.1,0.4,0.4,0.6c0.2,0.2,0.6,0.4,1.2,0.6c-0.1,0.4-0.1,0.8-0.3,1.2c-0.1,0.4-0.2,0.8-0.4,1.1l-0.4-0.1
				l1.1,6L268.8,29.8L268.8,29.8z"/>
			<path class="st0" d="M272.4,27c0,0.6-0.1,1.1-0.2,1.6s-0.4,1.1-0.8,1.9l-0.6-0.2c0.2-0.8,0.2-1.5,0.2-2c0-0.4,0-1-0.1-1.7
				c-0.1-0.8-0.1-1.5-0.2-2.3s-0.3-1.6-0.5-2.7c-0.1-0.4-0.1-0.6-0.1-0.8c0-0.2,0.1-0.5,0.3-1c0.2-0.5,0.5-1.1,0.8-1.8l0.6,3.5
				c0.2,1.3,0.4,2.5,0.4,3.4C272.4,25.6,272.4,26.3,272.4,27z"/>
			<path class="st0" d="M293.9,29.8h-1.3c-1.1,0-2.4,0-3.9,0.1c-0.9,0-2,0.1-3.4,0.1c-1.4,0.1-2.1,0.1-2.2,0.1c-1.4,0-2.4-0.2-3-0.7
				s-0.9-1.2-0.9-2.1c0-0.7,0.1-1.4,0.2-1.9c0.1-0.6,0.5-1.4,1-2.7L281,23c-0.5,1.1-0.7,1.9-0.7,2.4c0,0.7,0.3,1.2,0.8,1.4
				c0.6,0.3,1.6,0.5,3,0.5c1-0.1,2-0.1,2.9-0.2c0.9,0,1.8-0.1,2.7-0.1c-0.3-0.1-0.5-0.3-0.6-0.4c-0.1-0.2-0.2-0.4-0.2-0.7
				c0-0.9,0.3-1.9,0.8-2.8c0.6-1,1.3-1.5,2-1.5s1.2,0.5,1.5,1.4s0.4,2.2,0.4,4v2.8H293.9z M293.1,18.3l-1.2,2.2l-2.3-1.2l1.2-2.2
				L293.1,18.3z M292.3,25.9c-0.2-0.6-0.4-1.1-0.6-1.3c-0.1-0.2-0.3-0.3-0.6-0.3c-0.1,0-0.2,0-0.3,0.1c-0.1,0.1-0.1,0.2-0.1,0.4
				c0,0.2,0.1,0.4,0.4,0.6S291.8,25.8,292.3,25.9z"/>
			<path class="st0" d="M302.9,29.1c0,1.1-0.5,2.2-1.4,3.3c-1,1.1-1.9,1.6-2.8,1.6c-0.5,0-1.1-0.2-1.8-0.5c-0.6-0.3-1.6-1-3-2
				l0.4-0.6c0.7,0.5,1.3,0.8,1.7,0.9c0.4,0.1,0.8,0.2,1.3,0.2c0.6,0,1.3-0.2,1.9-0.5c0.7-0.4,1.5-1.1,2.3-2c-0.3,0-0.5,0.1-0.7,0.1
				c-0.6,0-1.2-0.2-1.5-0.6s-0.6-1-0.6-1.7c0-1,0.2-1.9,0.7-2.8c0.5-1,1-1.5,1.7-1.5c0.5,0,1,0.4,1.3,1.1c0.4,0.7,0.5,1.6,0.5,2.6
				V29.1z M301.7,27.2c-0.2-1-0.6-1.6-1.1-1.6c-0.2,0-0.4,0.1-0.5,0.2c-0.1,0.2-0.2,0.3-0.2,0.5s0.1,0.4,0.4,0.6s0.6,0.2,1,0.2
				L301.7,27.2L301.7,27.2z"/>
			<path class="st0" d="M311.5,30c0,0.4-0.2,0.9-0.7,1.6c-0.5,0.7-1,1.2-1.6,1.7c-0.7,0.5-1.3,0.8-1.7,0.8c-0.6,0-1.2-0.2-1.8-0.5
				c-0.6-0.3-1.5-0.8-2.7-1.7l0.4-0.6c0.6,0.4,1.1,0.7,1.4,0.8c0.4,0.1,0.7,0.2,1.2,0.2c0.4,0,0.9-0.1,1.3-0.4
				c0.4-0.3,1.1-0.7,1.8-1.4c1.1-1,1.6-1.7,1.6-2.2c0-0.3-0.1-0.6-0.3-1c-0.2-0.5-0.5-0.9-0.9-1.2l0.5-2.6c0.4,0.5,0.8,1,1,1.6
				s0.4,1.3,0.4,2V30H311.5z"/>
			<path class="st0" d="M322,29.8h-11.2v-2.7h1.3c0.2,0,0.6-0.3,1.3-0.8c0.2-0.2,0.6-0.4,1-0.8c0-0.8,0-1.5-0.1-2
				c-0.1-0.6-0.2-1.1-0.3-1.7c0-0.1-0.2-0.8-0.5-2.1l-0.6-0.4c0.1-0.7,0.3-1.2,0.4-1.5s0.3-0.8,0.6-1.4l0.4,0.2c0,0,0,0.1,0,0.3
				c0,0.2,0.3,0.5,1,0.8c0.2,0.1,0.5,0.2,1,0.4c-0.1,0.5-0.2,1-0.3,1.4c-0.1,0.2-0.2,0.6-0.4,1l-0.4-0.1c0.2,0.9,0.3,1.6,0.4,2
				s0.1,0.8,0.1,1.2v0.1c0,0.2,0,0.3,0,0.4s0,0.3-0.1,0.5c0.3-0.2,0.7-0.5,1-0.7c0.5-0.4,1-0.7,1.4-0.9c0.5-0.3,1-0.4,1.3-0.4
				c0.8,0,1.4,0.2,1.8,0.6c0.5,0.4,0.8,1.1,0.8,1.9v4.7H322z M320.7,26.2c0-0.2-0.2-0.4-0.7-0.6s-0.9-0.3-1.3-0.3s-0.9,0.1-1.5,0.4
				c-0.5,0.3-1.3,0.8-2.3,1.5h2.6C319.6,27.2,320.7,26.8,320.7,26.2z M320.5,19.3l-1.2,2.2l-2.3-1.2l1.2-2.2L320.5,19.3z"/>
			<path class="st0" d="M326.7,29.8h-5.4v-2.7h4.2l-1.2-6.6l-0.6-0.4c0-0.4,0.1-0.8,0.2-1.2c0.1-0.5,0.4-1.1,0.8-1.8l0.4,0.2
				c0,0,0,0.1,0,0.3c0,0.2,0.1,0.4,0.4,0.6c0.2,0.2,0.6,0.4,1.2,0.6c-0.1,0.4-0.1,0.8-0.3,1.2c-0.1,0.4-0.2,0.8-0.4,1.1l-0.4-0.1
				l1.1,6L326.7,29.8L326.7,29.8z"/>
			<path class="st0" d="M331.4,29.8H330c-0.8,0-1.3-0.3-1.7-0.9c-0.4-0.7-0.6-1.9-0.6-3.5v-2.8c0-0.6-0.1-1.1-0.3-1.5
				c-0.1-0.2-0.3-0.4-0.6-0.7L328,18c0.4,0.5,0.6,1,0.8,1.5c0.2,0.6,0.3,1.3,0.3,2.3v1.9c0,1.4,0.1,2.3,0.3,2.8
				c0.1,0.4,0.4,0.6,0.7,0.6h1.4L331.4,29.8L331.4,29.8z"/>
			<path class="st0" d="M338.6,29.8h-7.9v-2.7h6.3c-0.3-0.3-0.5-0.6-0.7-0.8c-0.2-0.2-0.5-0.4-0.8-0.7c-0.4-0.3-0.7-0.6-1.1-0.9
				l-0.3,0.4c-0.6-0.6-0.9-0.9-1-1c-0.3-0.4-0.5-0.8-0.5-1.3c0-0.7,0-1.1,0.1-1.4c0.1-0.4,0.4-0.7,0.8-1s0.8-0.5,1.2-0.7
				c0.3-0.2,0.8-0.4,1.3-0.6c0.3-0.1,0.8-0.3,1.7-0.6v2.3c0,0-0.3,0.1-0.8,0.3c-0.6,0.2-1.1,0.4-1.5,0.5c-0.5,0.2-0.8,0.4-0.8,0.5
				s0.2,0.3,0.7,0.8c0.6,0.6,1.2,1.2,1.6,1.7c0.7,0.8,1.3,1.7,1.7,2.5L338.6,29.8L338.6,29.8z"/>
			<path class="st0" d="M344.8,36.9c0.5-1.2,0.9-2,1.1-2.7c0.2-0.6,0.4-1.3,0.6-2.1s0.3-1.6,0.4-2.3c0.1-0.7,0.1-1.5,0.1-2.2
				c0-1.5-0.2-3-0.5-4.4s-0.9-3.1-1.8-5h1.9c1,1.4,1.7,2.9,2.3,4.5c0.5,1.6,0.8,3.2,0.8,4.8c0,1.4-0.2,2.8-0.6,4.4
				c-0.5,1.7-1.3,3.5-2.4,5.2h-1.9V36.9z"/>
		</g>
	</g>
</g>
<rect class="st1" width="407.8" height="49.5"/>
</svg>
