<?xml version="1.0" encoding="utf-8"?>
<!-- Generator: Adobe Illustrator 22.0.1, SVG Export Plug-In . SVG Version: 6.00 Build 0)  -->
<svg version="1.1" id="Layer_1" xmlns="http://www.w3.org/2000/svg" xmlns:xlink="http://www.w3.org/1999/xlink" x="0px" y="0px"
	 viewBox="0 0 407.8 49.5" style="enable-background:new 0 0 407.8 49.5;" xml:space="preserve">
<style type="text/css">
	.st0{fill:#542C0B;}
	.st1{fill:none;}
</style>
<g>
	<g>
		<g>
			<path class="st0" d="M127.9,36.4H126c-1-1.5-1.8-3.1-2.3-4.7c-0.5-1.6-0.8-3.2-0.8-4.7c0-1.9,0.3-3.7,1-5.3
				c0.6-1.5,1.3-2.8,2.1-4h1.9c-0.9,2-1.5,3.7-1.8,5s-0.5,2.9-0.5,4.4c0,1.1,0.1,2.2,0.3,3.3s0.5,2.2,0.8,3.2
				C126.9,34.2,127.3,35.2,127.9,36.4z"/>
			<path class="st0" d="M137.2,13.4c0,0.3-0.2,0.6-0.5,0.9c-0.6,0.2-1.5,0.6-2.8,1.1c0-0.3,0.1-0.6,0.4-0.8
				C134.9,14.4,135.8,14,137.2,13.4z M137.2,14.9c0,0.3-0.2,0.6-0.5,0.9c-0.6,0.2-1.5,0.6-2.9,1.1c0-0.3,0.1-0.6,0.4-0.8
				C134.9,15.9,135.8,15.5,137.2,14.9z"/>
			<path class="st0" d="M138.8,29.3h-1.4c-0.8,0-1.3-0.3-1.7-0.9c-0.4-0.7-0.6-1.9-0.6-3.5v-2.8c0-0.6-0.1-1.1-0.3-1.5
				c-0.1-0.2-0.3-0.4-0.6-0.7l1.1-2.4c0.4,0.5,0.6,1,0.8,1.5c0.2,0.6,0.3,1.3,0.3,2.3v1.9c0,1.4,0.1,2.3,0.3,2.8
				c0.1,0.4,0.4,0.6,0.7,0.6h1.4V29.3z"/>
			<path class="st0" d="M147.1,29.3c-0.7,0-1.5-0.1-2.4-0.4c-0.8-0.2-1.5-0.5-2.1-0.8c-0.4,0.6-0.8,0.9-1.4,1.1
				c-0.3,0.1-0.6,0.1-1.1,0.1h-1.9v-2.7h1.9c0.6,0,1.1-0.1,1.4-0.2c0.4-0.2,0.7-0.5,0.9-0.9c0.4-0.8,0.8-1.5,1.4-2
				c0.5-0.5,1-0.7,1.3-0.7s0.7,0.5,1.2,1.5c0.5,1.1,0.8,2,0.8,2.9L147.1,29.3L147.1,29.3z M145.3,26.4c0-0.1-0.1-0.4-0.4-0.7
				c-0.3-0.4-0.6-0.6-0.8-0.6c-0.3,0-0.5,0.3-0.6,0.9c0.3,0.1,0.6,0.2,0.8,0.3c0.5,0.2,0.8,0.3,0.9,0.3
				C145.2,26.5,145.3,26.5,145.3,26.4z"/>
			<path class="st0" d="M151.8,29.3h-5.4v-2.7h4.2l-1.2-6.6l-0.6-0.4c0-0.4,0.1-0.8,0.2-1.2c0.1-0.5,0.4-1.1,0.8-1.8l0.4,0.2
				c0,0,0,0.1,0,0.3c0,0.2,0.1,0.4,0.4,0.6c0.2,0.2,0.6,0.4,1.2,0.6c-0.1,0.4-0.1,0.8-0.3,1.2s-0.2,0.8-0.4,1.1l-0.4-0.1l1.1,6V29.3
				z"/>
			<path class="st0" d="M161.4,24.7l-1.1,2.8c-1.8,0.5-3.2,1-4.3,1.3c-1,0.3-1.8,0.4-2.5,0.5c-0.5,0.1-1,0.1-1.5,0.1h-0.9v-2.7h1.1
				c0.2,0,0.3,0,0.4,0c0.2,0,0.4,0,0.6-0.1c-0.3-0.5-0.5-0.9-0.7-1.2s-0.2-0.6-0.2-1c0-1,0.4-1.8,1.2-2.5s1.7-1.1,2.8-1.1
				c0.7,0,1.4,0.2,2.1,0.7c0.6,0.4,1,1,1.3,1.6l-0.4,0.4c-0.5-0.2-0.9-0.3-1.2-0.4S157.4,23,157,23c-0.8,0-1.5,0.1-2.1,0.2
				c-0.7,0.2-1.1,0.4-1.1,0.7c0,0.4,0.9,1.2,2.7,2.2L161.4,24.7z"/>
			<path class="st0" d="M179,28.9c0,0.9-0.1,1.6-0.3,2.2s-0.5,1-0.9,1.3s-1,0.6-1.8,0.8s-1.6,0.3-2.4,0.3c-1.6,0-2.8-0.3-3.7-0.9
				s-1.3-1.4-1.3-2.5c0-0.9,0.1-1.7,0.4-2.5c0.3-0.8,0.9-1.9,1.8-3.2l0.6,0.4c-0.6,1.1-1.1,1.9-1.3,2.4s-0.3,1-0.3,1.5
				c0,0.7,0.4,1.2,1.1,1.7s1.7,0.6,2.9,0.6s2.2-0.2,3-0.7s1.2-1,1.2-1.7c0-0.4-0.1-0.8-0.2-1.2s-0.4-1-0.9-1.9l0.9-2.6
				c0.5,0.8,0.7,1.4,0.8,1.7c0.2,0.6,0.3,1.3,0.3,2.2L179,28.9L179,28.9z M175.8,21.2l-1.2,2.2l-2.3-1.2l1.2-2.2L175.8,21.2z"/>
			<path class="st0" d="M183.7,29.3h-1.4c-0.8,0-1.3-0.3-1.7-0.9c-0.4-0.7-0.6-1.9-0.6-3.5v-2.8c0-0.6-0.1-1.1-0.3-1.5
				c-0.1-0.2-0.3-0.4-0.6-0.7l1.1-2.4c0.4,0.5,0.6,1,0.8,1.5c0.2,0.6,0.3,1.3,0.3,2.3v1.9c0,1.4,0.1,2.3,0.3,2.8
				c0.1,0.4,0.4,0.6,0.7,0.6h1.4V29.3z"/>
			<path class="st0" d="M190.9,29.3H183v-2.7h6.3c-0.3-0.3-0.5-0.6-0.7-0.8c-0.2-0.2-0.5-0.4-0.8-0.7c-0.4-0.3-0.7-0.6-1.1-0.9
				l-0.3,0.4c-0.6-0.6-0.9-0.9-1-1c-0.3-0.4-0.5-0.8-0.5-1.3c0-0.7,0-1.1,0.1-1.4c0.1-0.4,0.4-0.7,0.8-1c0.4-0.3,0.8-0.5,1.2-0.7
				c0.3-0.2,0.8-0.4,1.3-0.6c0.3-0.1,0.8-0.3,1.7-0.6v2.3c0,0-0.3,0.1-0.8,0.3c-0.6,0.2-1.1,0.4-1.5,0.5c-0.5,0.2-0.8,0.4-0.8,0.5
				s0.2,0.3,0.7,0.8c0.6,0.6,1.2,1.2,1.6,1.7c0.7,0.8,1.3,1.7,1.7,2.5V29.3z"/>
			<path class="st0" d="M200,26.5c0,0.6-0.1,1.1-0.2,1.6s-0.4,1.1-0.8,1.9l-0.6-0.2c0.2-0.8,0.2-1.5,0.2-2c0-0.4,0-1-0.1-1.7
				s-0.1-1.5-0.2-2.3s-0.3-1.6-0.5-2.7c-0.1-0.4-0.1-0.6-0.1-0.8c0-0.2,0.1-0.5,0.3-1s0.5-1.1,0.8-1.8l0.6,3.5
				c0.2,1.3,0.4,2.5,0.4,3.4C200,25.1,200,25.8,200,26.5z"/>
			<path class="st0" d="M207.6,29.3h-4.4c-0.4,0-0.8-0.1-1-0.3c-0.3-0.2-0.4-0.6-0.4-1.1c0-0.3,0-0.6,0-0.9s0.1-0.7,0.1-1h0.4
				c0.1,0.2,0.2,0.4,0.3,0.5s0.4,0.2,0.6,0.2h3.4c-0.1-1-0.4-1.7-0.8-2.3c-0.3-0.5-0.7-0.9-1.3-1.2l0.7-3c0.8,0.6,1.4,1.4,1.8,2.4
				c0.3,0.9,0.5,2.1,0.5,3.7L207.6,29.3L207.6,29.3z M205.9,16.5l-1.2,2.2l-2.3-1.2l1.2-2.2L205.9,16.5z"/>
			<path class="st0" d="M211.2,32.7c-0.1,0.2-0.1,0.4-0.2,0.5c-0.1,0.1-0.2,0.1-0.3,0.2l-2.1,0.6c0.1-0.2,0.2-0.4,0.3-0.5
				s0.3-0.2,0.5-0.3c-0.2-0.1-0.3-0.2-0.4-0.3s-0.1-0.2-0.1-0.3s0-0.2,0.1-0.3s0.1-0.2,0.2-0.3c0.4-0.6,0.8-0.8,1.3-0.8
				c0.1,0,0.2,0,0.3,0.1s0.1,0.2,0.1,0.3c0,0.1,0,0.2,0,0.3c0,0.1-0.1,0.2-0.2,0.3c-0.3-0.2-0.5-0.2-0.7-0.2s-0.2,0-0.4,0.1
				c-0.1,0-0.1,0.1-0.2,0.2c0,0.1,0.2,0.2,0.5,0.4s0.5,0.3,0.7,0.3C210.6,32.8,210.8,32.8,211.2,32.7z M211.2,26.5
				c0,0.6-0.1,1.1-0.2,1.6s-0.4,1.1-0.8,1.9l-0.6-0.2c0.2-0.8,0.2-1.5,0.2-2c0-0.4,0-1-0.1-1.7s-0.1-1.5-0.2-2.3s-0.3-1.6-0.5-2.7
				c-0.1-0.4-0.1-0.6-0.1-0.8c0-0.2,0.1-0.5,0.3-1s0.5-1.1,0.8-1.8l0.6,3.5c0.2,1.3,0.4,2.5,0.4,3.4
				C211.2,25.1,211.2,25.8,211.2,26.5z"/>
			<path class="st0" d="M229,24.6c0,0.4,0,0.7-0.1,0.9s-0.2,0.5-0.5,0.9c-0.2-0.5-0.3-0.8-0.4-0.9s-0.3-0.2-0.5-0.2
				c-0.4,0-0.8,0.2-1.5,0.6s-0.9,0.7-0.9,1c0,0.1,0.1,0.2,0.4,0.3c0.2,0,0.4,0.1,0.8,0.1c0.1,0,0.2,0,0.3,0s0.2,0,0.3,0
				c0.7,0,1.2,0.1,1.4,0.2s0.3,0.4,0.3,0.7c0,0.7-0.1,1.4-0.4,2c-0.3,0.8-0.8,1.4-1.4,1.7c-0.8,0.4-1.6,0.8-2.4,1.1
				s-1.6,0.4-2.3,0.4c-2,0-3-0.9-3-2.7c0-0.9,0.1-1.7,0.3-2.4c0.3-0.7,0.8-1.7,1.6-3l0.4,0.3c-0.5,0.8-0.8,1.5-1.1,2.2
				s-0.4,1.2-0.4,1.7c0,1.2,0.7,1.8,2.1,1.8c0.5,0,1,0,1.5-0.1s0.9-0.2,1.4-0.4c0.3-0.1,0.7-0.3,1.1-0.4c0.6-0.3,1-0.4,1-0.5
				c0.3-0.2,0.4-0.3,0.4-0.4s-0.2-0.1-0.5-0.1s-0.5,0-0.7,0c-1,0-1.7-0.1-2-0.4c-0.3-0.2-0.4-0.7-0.4-1.3c0-0.3,0.1-0.7,0.3-1.1
				s0.4-0.9,0.8-1.4c0.5-0.7,1-1.2,1.4-1.6s0.9-0.5,1.4-0.5c0.4,0,0.7,0.1,0.9,0.4S229,24.1,229,24.6z"/>
			<path class="st0" d="M237.3,29.3h-4.4c-0.4,0-0.8-0.1-1-0.3c-0.3-0.2-0.4-0.6-0.4-1.1c0-0.3,0-0.6,0-0.9s0.1-0.7,0.1-1h0.4
				c0.1,0.2,0.2,0.4,0.3,0.5s0.4,0.2,0.6,0.2h3.4c-0.1-1-0.4-1.7-0.8-2.3c-0.3-0.5-0.7-0.9-1.3-1.2l0.7-3c0.8,0.6,1.4,1.4,1.8,2.4
				c0.3,0.9,0.5,2.1,0.5,3.7L237.3,29.3L237.3,29.3z"/>
			<path class="st0" d="M241.9,29.3h-1.4c-0.8,0-1.3-0.3-1.7-0.9c-0.4-0.7-0.6-1.9-0.6-3.5v-2.8c0-0.6-0.1-1.1-0.3-1.5
				c-0.1-0.2-0.3-0.4-0.6-0.7l1.1-2.4c0.4,0.5,0.6,1,0.8,1.5c0.2,0.6,0.3,1.3,0.3,2.3v1.9c0,1.4,0.1,2.3,0.3,2.8
				c0.1,0.4,0.4,0.6,0.7,0.6h1.4V29.3z"/>
			<path class="st0" d="M247.4,29.3h-6.1v-2.7h5.1c-0.1-0.4-0.2-0.8-0.4-1.1c-0.1-0.2-0.3-0.5-0.7-0.9l0.8-2.3
				c0.5,0.6,0.8,1.1,1,1.7s0.3,1.5,0.3,2.7L247.4,29.3L247.4,29.3z M247.4,18.7l-1.2,2.2l-2.3-1.2l1.2-2.2L247.4,18.7z"/>
			<path class="st0" d="M255.7,29.3c-0.7,0-1.5-0.1-2.4-0.4c-0.8-0.2-1.5-0.5-2.1-0.8c-0.4,0.6-0.8,0.9-1.4,1.1
				c-0.3,0.1-0.6,0.1-1.1,0.1h-1.9v-2.7h1.9c0.6,0,1.1-0.1,1.4-0.2c0.4-0.2,0.7-0.5,0.9-0.9c0.4-0.8,0.8-1.5,1.4-2
				c0.5-0.5,1-0.7,1.3-0.7s0.7,0.5,1.2,1.5c0.5,1.1,0.8,2,0.8,2.9L255.7,29.3L255.7,29.3z M253.8,26.4c0-0.1-0.1-0.4-0.4-0.7
				c-0.3-0.4-0.6-0.6-0.8-0.6c-0.3,0-0.5,0.3-0.6,0.9c0.3,0.1,0.6,0.2,0.8,0.3c0.5,0.2,0.8,0.3,0.9,0.3
				C253.8,26.5,253.8,26.5,253.8,26.4z"/>
			<path class="st0" d="M260.4,29.3H255v-2.7h4.2L258,20l-0.6-0.4c0-0.4,0.1-0.8,0.2-1.2c0.1-0.5,0.4-1.1,0.8-1.8l0.4,0.2
				c0,0,0,0.1,0,0.3c0,0.2,0.1,0.4,0.4,0.6c0.2,0.2,0.6,0.4,1.2,0.6c-0.1,0.4-0.1,0.8-0.3,1.2s-0.2,0.8-0.4,1.1l-0.4-0.1l1.1,6
				L260.4,29.3L260.4,29.3z"/>
			<path class="st0" d="M264,26.5c0,0.6-0.1,1.1-0.2,1.6s-0.4,1.1-0.8,1.9l-0.6-0.2c0.2-0.8,0.2-1.5,0.2-2c0-0.4,0-1-0.1-1.7
				s-0.1-1.5-0.2-2.3s-0.3-1.6-0.5-2.7c-0.1-0.4-0.1-0.6-0.1-0.8c0-0.2,0.1-0.5,0.3-1s0.5-1.1,0.8-1.8l0.6,3.5
				c0.2,1.3,0.4,2.5,0.4,3.4C263.9,25.1,264,25.8,264,26.5z"/>
			<path class="st0" d="M273.7,28.7c0,1.1-0.5,2.2-1.4,3.3c-1,1.1-1.9,1.6-2.8,1.6c-0.5,0-1.1-0.2-1.8-0.5s-1.6-1-3-2l0.4-0.6
				c0.7,0.5,1.3,0.8,1.7,0.9c0.4,0.1,0.8,0.2,1.3,0.2c0.6,0,1.3-0.2,1.9-0.5c0.7-0.4,1.5-1.1,2.3-2c-0.3,0-0.5,0.1-0.7,0.1
				c-0.6,0-1.2-0.2-1.5-0.6s-0.6-1-0.6-1.7c0-1,0.2-1.9,0.7-2.8c0.5-1,1-1.5,1.7-1.5c0.5,0,1,0.4,1.3,1.1s0.5,1.6,0.5,2.6V28.7z
				 M272.5,26.7c-0.2-1-0.6-1.6-1.1-1.6c-0.2,0-0.4,0.1-0.5,0.2s-0.2,0.3-0.2,0.5s0.1,0.4,0.4,0.6s0.6,0.2,1,0.2L272.5,26.7
				L272.5,26.7z"/>
			<path class="st0" d="M280,36.4c0.5-1.2,0.9-2,1.1-2.7s0.4-1.3,0.6-2.1c0.2-0.8,0.3-1.6,0.4-2.3s0.1-1.5,0.1-2.2
				c0-1.5-0.2-3-0.5-4.4s-0.9-3.1-1.8-5h1.9c1,1.4,1.7,2.9,2.3,4.5s0.8,3.2,0.8,4.8c0,1.4-0.2,2.8-0.6,4.4c-0.5,1.7-1.3,3.5-2.4,5.2
				H280V36.4z"/>
		</g>
	</g>
</g>
<rect class="st1" width="407.8" height="49.5"/>
</svg>
