<?xml version="1.0" encoding="utf-8"?>
<!-- Generator: Adobe Illustrator 22.0.1, SVG Export Plug-In . SVG Version: 6.00 Build 0)  -->
<svg version="1.1" id="Layer_1" xmlns="http://www.w3.org/2000/svg" xmlns:xlink="http://www.w3.org/1999/xlink" x="0px" y="0px"
	 viewBox="0 0 407.8 49.8" style="enable-background:new 0 0 407.8 49.8;" xml:space="preserve">
<style type="text/css">
	.st0{fill:#542C0B;}
	.st1{fill:none;}
</style>
<g>
	<g>
		<g>
			<path class="st0" d="M140.9,35.4H139c-1-1.5-1.8-3.1-2.3-4.7S136,27.5,136,26c0-1.9,0.3-3.7,1-5.3c0.6-1.5,1.3-2.8,2.1-4h1.9
				c-0.9,2-1.5,3.7-1.8,5c-0.3,1.4-0.5,2.8-0.5,4.4c0,1.1,0.1,2.2,0.3,3.3c0.2,1.1,0.5,2.2,0.8,3.2C140,33.2,140.4,34.2,140.9,35.4z
				"/>
			<path class="st0" d="M150.6,28.1c0,1-0.5,1.9-1.6,2.7c-1,0.8-2.2,1.2-3.6,1.2c-1.1,0-2-0.3-2.6-0.8c-0.6-0.6-0.9-1.3-0.9-2.4
				c0-0.9,0.1-1.8,0.4-2.5c0.3-0.8,0.8-1.8,1.6-2.9l0.6,0.4c-0.5,0.8-0.9,1.4-1.1,2c-0.2,0.6-0.3,1.1-0.3,1.7s0.2,1,0.7,1.4
				s1.1,0.5,1.9,0.5c1.1,0,2.1-0.2,2.8-0.7c0.7-0.4,1.1-1,1.1-1.7c0-0.1,0-0.2,0-0.3c0-0.1,0-0.1,0-0.2c0-0.3,0-0.5-0.1-0.8
				c0-0.3-0.2-0.9-0.3-1.9c-0.3-1.5-0.6-3.1-0.8-4.6l-0.5-0.4c0-0.6,0.3-1.6,0.9-2.9l0.4,0.2c0,0.1,0,0.2,0,0.3
				c0,0.3,0.1,0.5,0.4,0.6c0.4,0.2,0.8,0.4,1.1,0.6c-0.1,0.6-0.1,1-0.2,1.2c-0.1,0.2-0.2,0.6-0.4,1.1l-0.3-0.1
				c0,0.1,0.1,0.7,0.3,1.7s0.3,1.9,0.5,2.6c0.2,1.1,0.3,1.7,0.3,1.9v2.1H150.6z"/>
			<path class="st0" d="M154.2,25.5c0,0.6-0.1,1.1-0.2,1.6s-0.4,1.1-0.8,1.9l-0.6-0.2c0.2-0.8,0.2-1.5,0.2-2c0-0.4,0-1-0.1-1.7
				c-0.1-0.8-0.1-1.5-0.2-2.3s-0.3-1.6-0.5-2.7c-0.1-0.4-0.1-0.6-0.1-0.8c0-0.2,0.1-0.5,0.3-1s0.5-1.1,0.8-1.8l0.6,3.5
				c0.2,1.3,0.4,2.5,0.4,3.4C154.2,24.1,154.2,24.8,154.2,25.5z"/>
			<path class="st0" d="M164,27.7c0,1.1-0.5,2.2-1.4,3.3s-1.9,1.6-2.8,1.6c-0.5,0-1.1-0.2-1.8-0.5c-0.6-0.3-1.6-1-3-2l0.4-0.6
				c0.7,0.5,1.3,0.8,1.7,0.9s0.8,0.2,1.3,0.2c0.6,0,1.3-0.2,1.9-0.5c0.7-0.4,1.5-1.1,2.3-2c-0.3,0-0.5,0.1-0.7,0.1
				c-0.6,0-1.2-0.2-1.5-0.6s-0.6-1-0.6-1.7c0-1,0.2-1.9,0.7-2.8c0.5-1,1-1.5,1.7-1.5c0.5,0,1,0.4,1.3,1.1c0.4,0.7,0.5,1.6,0.5,2.6
				L164,27.7L164,27.7z M162.8,25.7c-0.2-1-0.6-1.6-1.1-1.6c-0.2,0-0.4,0.1-0.5,0.2c-0.1,0.2-0.2,0.3-0.2,0.5s0.1,0.4,0.4,0.6
				c0.3,0.2,0.6,0.2,1,0.2L162.8,25.7L162.8,25.7z"/>
			<path class="st0" d="M174.5,28.3h-11.2v-2.7h6.9c-0.8-0.8-1.5-1.4-2.2-1.8c-0.6-0.3-1.2-0.5-1.7-0.5c-0.2,0-0.3,0-0.5,0
				c-0.1,0-0.3,0.1-0.6,0.1c0.4-0.8,0.8-1.4,1.2-1.8s0.9-0.6,1.5-0.6c0.4,0,0.8,0.1,1.2,0.3c0.4,0.2,0.8,0.5,1.3,1
				c0.4,0.4,0.9,0.9,1.7,1.7c0.5,0.5,0.9,0.9,1.1,1.1c0.3,0.2,0.6,0.3,1.2,0.4v2.8H174.5z"/>
			<path class="st0" d="M183.9,18c0,0.5,0,0.9-0.1,1.4c0,0.2-0.1,0.5-0.3,1.1l-0.7-0.3c0,0.8-0.1,1.5-0.3,2.3s-0.5,1.5-0.9,2.3
				c0.4,0.6,0.6,1,0.6,1.1c0.2,0.3,0.2,0.6,0.2,0.8V27c0,0.2-0.1,0.8-0.2,2c-0.7,0.4-1.4,0.6-2,0.7s-1.5,0.2-2.6,0.2V27
				c0.7-0.3,1.1-0.6,1.4-0.9c0.3-0.2,0.7-0.6,1.1-1.2c-0.7-0.9-1.3-1.6-1.6-2c-0.3-0.3-0.6-0.7-1.1-1.1c-0.1,0.2-0.2,0.4-0.2,0.4
				l-0.1,0.1c-0.2,0-0.4-0.1-0.9-0.4c-0.4-0.2-0.7-0.5-0.9-0.6c-0.2-0.2-0.4-0.5-0.5-1.1s-0.2-1.2-0.2-2c0-0.4,0-0.6,0.1-0.7
				s0.1-0.2,0.3-0.2c0.3,0,0.8,0.4,1.5,1.1c0.7,0.6,1.3,1.3,1.8,1.9c0.4,0.4,0.8,0.9,1.1,1.3s0.8,1.1,1.4,2.1
				c0.3-0.6,0.5-1.3,0.6-2.1c0.1-0.5,0.1-1.1,0.1-1.9c-0.2-0.1-0.4-0.2-0.5-0.3s-0.1-0.3-0.1-0.4c0-0.4,0-0.8,0.1-1.2
				c0.1-0.4,0.2-0.8,0.4-1.3l0.4,0.1c0,0.4,0.1,0.7,0.3,0.8C182.5,17.5,183,17.7,183.9,18z M177.7,15.2c-0.1,0.2-0.1,0.4-0.2,0.5
				c-0.1,0.1-0.2,0.1-0.3,0.2l-2.1,0.6c0.1-0.2,0.2-0.4,0.3-0.5s0.3-0.2,0.5-0.3c-0.2-0.1-0.3-0.2-0.4-0.3c-0.1-0.1-0.1-0.2-0.1-0.3
				s0-0.2,0.1-0.3s0.1-0.2,0.2-0.3c0.4-0.6,0.8-0.8,1.3-0.8c0.1,0,0.2,0,0.3,0.1s0.1,0.2,0.1,0.3s0,0.2,0,0.3s-0.1,0.2-0.2,0.3
				c-0.3-0.2-0.5-0.2-0.7-0.2s-0.2,0-0.4,0.1c-0.1,0-0.1,0.1-0.2,0.2c0,0.1,0.2,0.2,0.5,0.4s0.5,0.3,0.7,0.3
				C177.1,15.4,177.3,15.3,177.7,15.2z M181.3,26.5l-0.5-0.7c-0.3,0.3-0.5,0.5-0.7,0.7c-0.2,0.1-0.4,0.3-0.8,0.6
				c0.5-0.1,0.8-0.1,1.1-0.2C180.6,26.8,180.9,26.7,181.3,26.5z"/>
			<path class="st0" d="M187.8,25.5c0,0.6-0.1,1.1-0.2,1.6s-0.4,1.1-0.8,1.9l-0.6-0.2c0.2-0.8,0.2-1.5,0.2-2c0-0.4,0-1-0.1-1.7
				c-0.1-0.8-0.1-1.5-0.2-2.3s-0.3-1.6-0.5-2.7c-0.1-0.4-0.1-0.6-0.1-0.8c0-0.2,0.1-0.5,0.3-1s0.5-1.1,0.8-1.8l0.6,3.5
				c0.2,1.3,0.4,2.5,0.4,3.4C187.8,24.1,187.8,24.8,187.8,25.5z"/>
			<path class="st0" d="M204.9,27.9c0,0.9-0.1,1.6-0.3,2.2c-0.2,0.5-0.5,1-0.9,1.3s-1,0.6-1.8,0.8s-1.6,0.3-2.4,0.3
				c-1.6,0-2.8-0.3-3.7-0.9s-1.3-1.4-1.3-2.5c0-0.9,0.1-1.7,0.4-2.5c0.3-0.8,0.9-1.9,1.8-3.2l0.6,0.4c-0.6,1.1-1.1,1.9-1.3,2.4
				s-0.3,1-0.3,1.5c0,0.7,0.4,1.2,1.1,1.7c0.7,0.4,1.7,0.6,2.9,0.6s2.2-0.2,3-0.7s1.2-1,1.2-1.7c0-0.4-0.1-0.8-0.2-1.2
				c-0.1-0.4-0.4-1-0.9-1.9l0.9-2.6c0.5,0.8,0.7,1.4,0.8,1.7c0.2,0.6,0.3,1.3,0.3,2.2L204.9,27.9L204.9,27.9z M201.7,20.2l-1.2,2.2
				l-2.3-1.2l1.2-2.2L201.7,20.2z"/>
			<path class="st0" d="M213.2,28.3c-0.7,0-1.5-0.1-2.4-0.4c-0.8-0.2-1.5-0.5-2.1-0.8c-0.4,0.6-0.8,0.9-1.4,1.1
				c-0.3,0.1-0.6,0.1-1.1,0.1h-1.9v-2.7h1.9c0.6,0,1.1-0.1,1.4-0.2c0.4-0.2,0.7-0.5,0.9-0.9c0.4-0.8,0.8-1.5,1.4-2
				c0.5-0.5,1-0.7,1.3-0.7s0.7,0.5,1.2,1.5c0.5,1.1,0.8,2,0.8,2.9L213.2,28.3L213.2,28.3z M211.4,25.4c0-0.1-0.1-0.4-0.4-0.7
				c-0.3-0.4-0.6-0.6-0.8-0.6c-0.3,0-0.5,0.3-0.6,0.9c0.3,0.1,0.6,0.2,0.8,0.3c0.5,0.2,0.8,0.3,0.9,0.3
				C211.3,25.5,211.4,25.5,211.4,25.4z"/>
			<path class="st0" d="M231.7,28.3h-8.2c-0.8,0-1.3,0-1.6,0s-0.5-0.1-0.8-0.2c-0.5-0.2-1-0.6-1.3-1.1c-0.3-0.6-0.5-1.2-0.5-1.9
				c0-0.3,0-0.5,0-0.7s0.1-0.5,0.2-0.7c0.1-0.4,0.2-0.8,0.4-1.1c0.1-0.3,0.4-0.7,0.7-1.2l0.5,0.4c-0.3,0.5-0.5,0.9-0.6,1.2
				c-0.1,0.3-0.2,0.6-0.2,0.9c0,0.4,0.1,0.7,0.4,1c0.2,0.3,0.5,0.5,0.9,0.6c0.2,0.1,0.5,0.1,0.9,0.1s0.8,0,1.2,0h7.1
				c-0.2-0.5-0.3-0.8-0.4-1.1c-0.1-0.2-0.4-0.6-0.7-0.9l0.9-2.3c0.5,0.7,0.8,1.3,1,1.9c0.1,0.5,0.2,1.3,0.2,2.2L231.7,28.3
				L231.7,28.3z M227.9,30.4l-1.2,2.2l-2.3-1.2l1.2-2.2L227.9,30.4z"/>
			<path class="st0" d="M238.9,28.3H231v-2.7h6.3c-0.3-0.3-0.5-0.6-0.7-0.8c-0.2-0.2-0.5-0.4-0.8-0.7c-0.4-0.3-0.7-0.6-1.1-0.9
				l-0.3,0.4c-0.6-0.6-0.9-0.9-1-1c-0.3-0.4-0.5-0.8-0.5-1.3c0-0.7,0-1.1,0.1-1.4c0.1-0.4,0.4-0.7,0.8-1c0.4-0.3,0.8-0.5,1.2-0.7
				c0.3-0.2,0.8-0.4,1.3-0.6c0.3-0.1,0.8-0.3,1.7-0.6v2.3c0,0-0.3,0.1-0.8,0.3c-0.6,0.2-1.1,0.4-1.5,0.5c-0.5,0.2-0.8,0.4-0.8,0.5
				s0.2,0.3,0.7,0.8c0.6,0.6,1.2,1.2,1.6,1.7c0.7,0.8,1.3,1.7,1.7,2.5V28.3z"/>
			<path class="st0" d="M247.6,28.6c0,0.4-0.2,0.9-0.7,1.6s-1,1.2-1.6,1.7c-0.7,0.5-1.3,0.8-1.7,0.8c-0.6,0-1.2-0.2-1.8-0.5
				s-1.5-0.8-2.7-1.7l0.4-0.6c0.6,0.4,1.1,0.7,1.4,0.8s0.7,0.2,1.2,0.2c0.4,0,0.9-0.1,1.3-0.4s1.1-0.7,1.8-1.4
				c1.1-1,1.6-1.7,1.6-2.2c0-0.3-0.1-0.6-0.3-1c-0.2-0.5-0.5-0.9-0.9-1.2l0.5-2.6c0.4,0.5,0.8,1,1,1.6s0.4,1.3,0.4,2v2.9H247.6z"/>
			<path class="st0" d="M257.8,28.3h-1.4c-0.8,0-1.3-0.3-1.7-0.9c-0.4-0.7-0.6-1.9-0.6-3.5v-2.8c0-0.6-0.1-1.1-0.3-1.5
				c-0.1-0.2-0.3-0.4-0.6-0.7l1.1-2.4c0.4,0.5,0.6,1,0.8,1.5c0.2,0.6,0.3,1.3,0.3,2.3v1.9c0,1.4,0.1,2.3,0.3,2.8
				c0.1,0.4,0.4,0.6,0.7,0.6h1.4V28.3z"/>
			<path class="st0" d="M266.1,28.3c-0.7,0-1.5-0.1-2.4-0.4c-0.8-0.2-1.5-0.5-2.1-0.8c-0.4,0.6-0.8,0.9-1.4,1.1
				c-0.3,0.1-0.6,0.1-1.1,0.1h-1.9v-2.7h1.9c0.6,0,1.1-0.1,1.4-0.2c0.4-0.2,0.7-0.5,0.9-0.9c0.4-0.8,0.8-1.5,1.4-2
				c0.5-0.5,1-0.7,1.3-0.7s0.7,0.5,1.2,1.5c0.5,1.1,0.8,2,0.8,2.9L266.1,28.3L266.1,28.3z M264.3,25.4c0-0.1-0.1-0.4-0.4-0.7
				c-0.3-0.4-0.6-0.6-0.8-0.6c-0.3,0-0.5,0.3-0.6,0.9c0.3,0.1,0.6,0.2,0.8,0.3c0.5,0.2,0.8,0.3,0.9,0.3
				C264.2,25.5,264.3,25.5,264.3,25.4z"/>
			<path class="st0" d="M266.8,35.4c0.5-1.2,0.9-2,1.1-2.7c0.2-0.6,0.4-1.3,0.6-2.1c0.2-0.8,0.3-1.6,0.4-2.3
				c0.1-0.7,0.1-1.5,0.1-2.2c0-1.5-0.2-3-0.5-4.4s-0.9-3.1-1.8-5h1.9c1,1.4,1.7,2.9,2.3,4.5c0.5,1.6,0.8,3.2,0.8,4.8
				c0,1.4-0.2,2.8-0.6,4.4c-0.5,1.7-1.3,3.5-2.4,5.2h-1.9V35.4z"/>
		</g>
	</g>
</g>
<rect class="st1" width="407.8" height="49.8"/>
</svg>
