<?xml version="1.0" encoding="utf-8"?>
<!-- Generator: Adobe Illustrator 22.1.0, SVG Export Plug-In . SVG Version: 6.00 Build 0)  -->
<svg version="1.1" id="Layer_1" xmlns="http://www.w3.org/2000/svg" xmlns:xlink="http://www.w3.org/1999/xlink" x="0px" y="0px"
	 viewBox="0 0 671 50.8" style="enable-background:new 0 0 671 50.8;" xml:space="preserve">
<style type="text/css">
	.st0{fill:#235958;}
</style>
<g>
	<path class="st0" d="M3.2,35.4c0,0.5-0.2,0.8-0.5,1.2c-0.3,0.3-0.7,0.5-1.1,0.5s-0.8-0.2-1.1-0.5C0.2,36.2,0,35.8,0,35.4
		c0-0.4,0.1-0.8,0.4-1.2c0.3-0.3,0.7-0.5,1.1-0.5C2.6,33.7,3.2,34.3,3.2,35.4z"/>
	<path class="st0" d="M31.7,34.1c0,0.2-0.2,1-0.5,2.3l-0.5,1.9c-0.4,1.6-1.8,3-4.1,4.1c-2.1,1-4,1.5-5.9,1.5c-2.1,0-3.8-0.6-4.9-1.7
		c-1.2-1.1-1.8-2.7-1.8-4.8c0-2.3,0.8-4.8,2.5-7.7l0.5,0.4c-0.9,2-1.4,3.6-1.4,4.7c0,1.6,0.6,2.8,1.8,3.7c1.1,0.8,2.4,1.2,4.1,1.2
		c2,0,3.9-0.4,5.9-1.2c1.7-0.7,2.6-1.3,2.6-1.8c0-0.3-0.5-0.7-1.5-1s-2.2-0.4-3.6-0.4c-1.1,0-1.6-0.2-1.6-0.6c0-0.2,0.1-0.4,0.3-0.8
		c0.2-0.4,0.5-0.9,1-1.5c0.5-0.2,1.1-0.4,1.6-0.5c0.8-0.2,1.1-0.6,1.1-1.1c0-0.1-0.2-0.3-0.7-0.9c-0.4-0.5-0.7-0.9-0.7-1.3
		c0-0.2,0.6-1.6,1.7-4.1c0.9,2.1,1.4,3.9,1.4,5.3c0,0.7-0.3,1.5-1,2.2C30.5,32.3,31.7,33,31.7,34.1z M26.3,46.2l-1.5,2.6l-2.3-1.6
		l-1.1,2.1L19,47.5l1.4-2.5l2.2,1.8l1.3-2.3L26.3,46.2z M28.5,20.7l-1.3,2.5l-2.4-1.8l1.4-2.5L28.5,20.7z"/>
	<path class="st0" d="M40.8,35.6H39c-1.2,0-2.1-0.5-2.7-1.6c-0.5-0.8-0.8-2.4-0.9-4.8c0-1-0.2-2.7-0.5-5c-0.3-2.1-0.5-3.8-0.5-5
		c0-0.4,0-0.6,0-0.8c0-0.2,0.7-0.8,2-1.9c0,0.1,0.2,2.2,0.5,6.4c0.3,3.7,0.4,5.7,0.4,6c0,0.9,0.2,1.6,0.5,2s0.9,0.6,1.8,0.6h1.2
		V35.6z"/>
	<path class="st0" d="M48.5,35.6h-1.8c-1.2,0-2.1-0.8-2.6-2.3c-0.7,1.5-1.6,2.3-2.5,2.3h-1.3v-4.1h1.3c1.1,0,1.9-0.2,2.1-0.5
		c0.1-0.1,0.1-0.7,0.1-1.9H44c0.2,1.5,1.4,2.3,3.6,2.3h0.9V35.6z M47.7,25.1l-1.4,2.5L44.1,26L43,28.1l-2.5-1.9l1.4-2.5l2.2,1.8
		l1.3-2.2L47.7,25.1z M45.1,21.3l-1.4,2.6L41.3,22l1.5-2.5L45.1,21.3z"/>
	<path class="st0" d="M54.4,16l-1.7,3l-0.6-0.3V19c0,1.2,0.2,3,0.6,5.4c0.4,2.4,0.6,4.2,0.6,5.4c0,1.5-0.3,2.8-0.9,3.9
		c-0.7,1.3-1.8,2-3.1,2H48v-4.1h1.5c1.2,0,1.8-0.6,1.8-1.9c0-1.4-0.3-3.6-0.8-6.5c-0.6-3.1-0.9-5.4-1-6.7c-0.1-0.2-0.3-0.4-0.4-0.7
		c0.4-1.6,1-2.6,1.8-3c0.1,0.9,0.4,1.7,1.1,2.4C52.7,15.9,53.5,16.1,54.4,16z"/>
	<path class="st0" d="M60.4,30.4c0,1.4-0.3,2.9-0.9,4.5h-0.7c0-2.3-0.2-4.7-0.7-7.3C57.4,23.4,57,21,57,20.4c0-0.7,0.2-1.4,0.7-2
		c0.2-0.3,0.7-0.9,1.4-1.7c0,1.5,0.2,3.8,0.6,6.9C60.2,26.5,60.4,28.8,60.4,30.4z"/>
	<path class="st0" d="M77.7,39.9c0,0.9-0.3,1.5-0.9,1.9l-5.3,3.1c0-0.6,0.1-1,0.2-1.2s0.5-0.5,1-0.8L77.7,39.9z"/>
	<path class="st0" d="M80,30.1c0,1.6-0.3,2.8-1,3.6c-0.6,0.8-1.7,1.3-3.3,1.7c-1.2,0.3-2.4,0.4-3.8,0.4c-0.6,0-1.4-0.3-2.3-0.8
		l0.8-4.7c0.8,0.4,1.4,0.6,1.7,0.6c4.4,0,6.6-0.6,6.6-1.7c0-1-2-2.5-6-4.5l1.4-4.5C78,22.9,80,26.2,80,30.1z"/>
	<path class="st0" d="M94.1,35.6h-2.4c-1.2,6.2-3.5,9.4-6.9,9.4c-1.6,0-3.3-0.7-5.3-2.1l0.3-0.4c0.6,0.2,1.3,0.3,2,0.3
		c2.2,0,4-0.7,5.5-2.1c1.2-1.1,2.3-2.7,3.5-5.1c-1.4,0-2.3-0.1-2.8-0.2c-0.9-0.3-1.3-1.1-1.3-2.3c0-1.1,0.4-2.5,1.1-4.3
		c0.8-2,1.6-3.1,2.5-3.1s1.5,1.9,1.9,5.8h1.9C94.1,31.5,94.1,35.6,94.1,35.6z M91.1,31.5c-0.6-1.2-1.3-1.9-2-1.9
		c-0.6,0-0.9,0.3-0.9,0.8c0,0.7,0.6,1,1.7,1h1.2V31.5z"/>
	<path class="st0" d="M108.5,35.6h-1.8c-1.1,0-1.9-0.3-2.4-1c-0.2,1.6-0.8,2.3-2.1,2.3c-1.1,0-2.6-1.1-4.6-3.3
		c-0.2,0.3-0.6,0.8-1.4,1.5c-0.4,0.3-1.4,0.5-2.9,0.5v-4.1h1.3c0.9,0,1.7-0.5,2.4-1.4c0.5-0.8,1-1.7,1.5-2.5
		c0.6-0.9,1.4-1.4,2.3-1.4c0.5,0,1,0.4,1.6,1.3s1.2,1.7,1.8,2.6c0.8,0.9,1.6,1.4,2.4,1.4h1.8L108.5,35.6L108.5,35.6z M102,31.5
		c0-0.6-0.1-1.3-0.3-2c-0.2-1-0.5-1.4-0.9-1.4c-0.3,0-0.7,0.3-1,1c-0.2,0.5-0.5,1-0.7,1.5c1.2,1.2,2,1.8,2.4,1.8S102,32.1,102,31.5z
		"/>
	<path class="st0" d="M119.7,35.6h-1.8c-0.5,0-1.2-0.4-2.1-1.3c-0.1,0-0.7-0.7-1.8-2c-2.1,2.1-3.7,3.2-4.7,3.2H108v-4.1
		c1.2,0,2,0,2.2-0.1c0.5-0.1,1.2-0.4,1.9-1c-0.9-1.3-1.9-2-3.2-2c0.1-1.6,0.6-2.8,1.4-3.4s2-0.9,3.6-0.9c1.2,0,2.2,0.3,3,0.9
		c0.9,0.7,1.4,1.6,1.4,2.8c0,1.3-0.7,2.3-2.1,3c0.7,0.4,1.6,0.6,2.8,0.6c0.1,0,0.2,0,0.3,0c0.1,0,0.2,0,0.4,0L119.7,35.6L119.7,35.6
		z"/>
	<path class="st0" d="M125.6,16l-1.7,3l-0.6-0.3V19c0,1.2,0.2,3,0.6,5.4s0.6,4.2,0.6,5.4c0,1.5-0.3,2.8-0.9,3.9
		c-0.7,1.3-1.8,2-3.1,2h-1.3v-4.1h1.5c1.2,0,1.8-0.6,1.8-1.9c0-1.4-0.3-3.6-0.8-6.5c-0.6-3.1-0.9-5.4-1-6.7
		c-0.1-0.2-0.3-0.4-0.4-0.7c0.4-1.6,1-2.6,1.8-3c0.1,0.9,0.4,1.7,1.1,2.4C123.9,15.9,124.7,16.1,125.6,16z"/>
	<path class="st0" d="M131.6,30.4c0,1.4-0.3,2.9-0.9,4.5H130c0-2.3-0.2-4.7-0.7-7.3c-0.7-4.2-1.1-6.6-1.1-7.2c0-0.7,0.2-1.4,0.7-2
		c0.2-0.3,0.7-0.9,1.4-1.7c0,1.5,0.2,3.8,0.6,6.9C131.4,26.5,131.6,28.8,131.6,30.4z"/>
	<path class="st0" d="M162.6,29.2c0,4-2,6.2-5.9,6.4c-0.2,0-0.3,0-0.1,0s0.2,0,0.1,0c-0.2,0-0.9,0-2.1,0c-1.7,0-2.5,0.2-2.5,0.6
		c0,0.2,0.5,0.5,1.4,0.9c1.3,0.4,2.2,0.8,2.7,1.1c0.9,0.6,1.4,1.5,1.4,2.4c0,1.7-1.4,3-4.1,4.1c-2.2,0.8-4.3,1.2-6.3,1.2
		c-1.8,0-3.4-0.6-4.8-1.7c-1.6-1.2-2.3-2.7-2.3-4.5c0-1.3,0.2-2.5,0.6-3.7c0.2-0.7,0.7-1.8,1.5-3.5l0.5,0.2c-0.7,1.7-1,2.9-1,3.8
		c0,3.6,2.8,5.4,8.5,5.4c0.9,0,2-0.1,3.2-0.3c1.7-0.3,2.6-0.6,2.6-1.1c0-0.3-0.4-0.4-1.2-0.4c-3.3,0-5-0.9-5-2.6
		c0-1.7,0.5-3.1,1.6-4.4c1.1-1.2,2.5-1.9,4.1-1.9h1.2c3.1-0.1,4.6-0.8,4.6-2c0-0.3-0.3-1.1-0.8-2.2c-0.4,0.8-0.7,1.4-1.1,1.8
		c-0.4,0.4-1.1,0.6-1.9,0.6c-1.5,0-2.2-0.7-2.2-2.1c0-0.3,0.1-0.9,0.2-1.8c0.7-4.4,1.8-6.6,3.3-6.6c1.2,0,2.2,1.4,2.9,4.1
		C162.3,25.4,162.6,27.3,162.6,29.2z M152.1,47.9l-1.5,2.4l-2.3-1.6l-1.1,2.1l-2.5-1.8l1.5-2.5l2.1,1.8l1.4-2.2L152.1,47.9z
		 M159.9,15.7l-1.4,2.5l-2.4-1.8l1.4-2.5L159.9,15.7z M159.1,24.6c-0.5-0.8-1-1.2-1.4-1.2c-0.5,0-0.8,0.3-0.8,1
		c0,0.8,0.4,1.2,1.1,1.2C158.3,25.6,158.7,25.3,159.1,24.6z"/>
	<path class="st0" d="M177.7,35.6h-1.8c-1.2,0-2.1-0.5-2.7-1.6c-0.5-0.8-0.8-2.4-0.9-4.8c0-1-0.2-2.7-0.5-5c-0.3-2.1-0.5-3.8-0.5-5
		c0-0.4,0-0.6,0-0.8c0-0.2,0.7-0.8,2-1.9c0,0.1,0.2,2.2,0.5,6.4c0.3,3.7,0.4,5.7,0.4,6c0,0.9,0.2,1.6,0.5,2s0.9,0.6,1.8,0.6h1.2
		V35.6z"/>
	<path class="st0" d="M186.9,9.5c0,1-0.3,1.6-0.9,2l-5.3,3.1c0-0.6,0.1-1,0.2-1.2s0.5-0.5,1-0.8L186.9,9.5z"/>
	<path class="st0" d="M190.9,35.6h-4.1c0.5,0.8,0.8,1.4,1,1.8c0.2,0.5,0.3,1.2,0.3,2c0,1.2-0.2,2.3-0.7,3.3
		c-0.6,1.2-1.4,1.8-2.5,1.8c-2.5,0-4.2-2.9-5-8.8h-2.7v-4.1h2.9c0.4-1.4,1.2-3.1,2.5-5.1c1.5-2.4,2.8-3.5,3.8-3.5
		c0.5,0,0.8,0.5,1.1,1.6c0.2,0.7,0.2,1.4,0.2,2.2c0,2.1-0.8,3.7-2.4,4.9h5.7v3.9H190.9z M186.9,39.2c0-1.8-2-3-5.9-3.5
		c0.3,1.2,0.8,2.3,1.4,3.2c0.8,1.2,1.8,1.8,2.9,1.8c0.4,0,0.8-0.1,1.1-0.4C186.7,40,186.9,39.6,186.9,39.2z M185.9,27.8
		c0-0.7-0.5-1-1.4-1c-0.8,0-1.7,1.3-2.9,4c1.3-0.4,2.2-0.7,2.7-1C185.3,29.2,185.9,28.6,185.9,27.8z"/>
	<path class="st0" d="M200.2,11.1l-0.2,1.8c-0.3-0.2-0.8-0.5-1.4-1c-1.4,1.8-2.6,2.7-3.6,2.7c-0.2,0-0.6-0.1-1.1-0.2
		c1.1-0.6,2.4-1.6,3.9-2.9c-0.8-0.6-1.1-1.2-1.1-1.7c0-0.6,0.2-1.3,0.7-2.1c0.4-0.7,1-1.1,1.6-1.1c0.8,0,1.2,0.5,1.2,1.6
		c0,0.8-0.2,1.5-0.5,2.2C199.8,10.7,200,10.9,200.2,11.1z M199,9.4c0-0.2-0.1-0.5-0.3-0.8s-0.4-0.4-0.6-0.4c-0.3,0-0.4,0.2-0.4,0.5
		c0,0.2,0.4,0.7,1.3,1.3C198.9,9.7,199,9.5,199,9.4z"/>
	<path class="st0" d="M204.2,35.6h-4.1c0.5,0.8,0.8,1.4,1,1.8c0.2,0.5,0.3,1.2,0.3,2c0,1.2-0.2,2.3-0.7,3.3
		c-0.6,1.2-1.4,1.8-2.5,1.8c-2.5,0-4.2-2.9-5-8.8h-2.7v-4.1h2.9c0.4-1.4,1.2-3.1,2.5-5.1c1.5-2.4,2.8-3.5,3.8-3.5
		c0.5,0,0.8,0.5,1.1,1.6c0.2,0.7,0.2,1.4,0.2,2.2c0,2.1-0.8,3.7-2.4,4.9h5.7v3.9H204.2z M200.2,39.2c0-1.8-2-3-5.9-3.5
		c0.3,1.2,0.8,2.3,1.4,3.2c0.8,1.2,1.8,1.8,2.9,1.8c0.4,0,0.8-0.1,1.1-0.4C200,40,200.2,39.6,200.2,39.2z M199.2,27.8
		c0-0.7-0.5-1-1.4-1c-0.8,0-1.7,1.3-2.9,4c1.3-0.4,2.2-0.7,2.7-1C198.6,29.2,199.2,28.6,199.2,27.8z"/>
	<path class="st0" d="M211.9,35.6h-1.8c-1.2,0-2.1-0.8-2.6-2.3c-0.7,1.5-1.6,2.3-2.5,2.3h-1.3v-4.1h1.5c1,0,1.6-0.2,1.9-0.5
		c0.1-0.1,0.1-0.7,0.1-1.9h0.2c0.2,1.5,1.4,2.3,3.4,2.3h1.1L211.9,35.6L211.9,35.6z M209.8,38.9l-1.5,2.5l-2.4-1.8l1.5-2.5
		L209.8,38.9z"/>
	<path class="st0" d="M224.3,7.5c0,0.8-0.3,1.5-0.8,2.1s-1.2,0.9-2,0.9c-1.3,0-2-0.7-2-2.2c0-0.9,0.2-1.7,0.5-2.4
		c0.5-0.8,1.1-1.2,2-1.2c0.6,0,1.2,0.3,1.6,0.9C224.1,6.2,224.3,6.8,224.3,7.5z M223.3,7.9c0-0.3-0.3-0.7-0.8-1.1s-1-0.6-1.3-0.6
		s-0.5,0.1-0.8,0.4c-0.2,0.3-0.3,0.6-0.3,0.9c0,0.7,0.5,1.1,1.6,1.1C222.8,8.7,223.3,8.5,223.3,7.9z"/>
	<path class="st0" d="M218.9,35.6h-0.3c-1.6,0-2.7-0.8-3.3-2.3c-0.7,1.5-1.5,2.3-2.5,2.3h-1.3v-4.1c1.9,0,3.1-0.2,3.5-0.5
		c0.2-0.1,0.3-0.7,0.3-1.8h0.2c0.3,0.8,0.7,1.4,1.3,1.7c0.4,0.2,1.2,0.3,2.1,0.3V35.6z"/>
	<path class="st0" d="M233.8,35.6h-2.6c-1,0-1.7-0.4-2.3-1.2c-0.4-0.5-0.7-1.4-1.1-2.6c-0.7,2.2-1.7,3.3-3,3.3
		c-1.1,0-1.8-0.7-2.3-2.2c-0.7,1.8-2.1,2.7-4,2.7v-4.3h1.3c1.1,0,1.7-0.2,1.9-0.6c0.1-0.1,0.1-0.8,0.3-2.1h0.5
		c0,0.6,0.5,1.2,1.4,1.9c0.3,0.2,0.9,0.4,1.9,0.4c0.7,0,1.2-0.3,1.5-0.8c0.2-0.3,0.2-0.9,0.3-1.8h0.4c0.2,1,0.7,1.8,1.4,2.5
		c0.4,0.4,1.1,0.7,2.1,0.7c-0.8,0,0,0,2.3,0L233.8,35.6L233.8,35.6z M226.9,22.8l-1.5,2.4l-2.2-1.6l-1.2,2.1l-2.5-1.9l1.5-2.5
		l2.2,1.8l1.3-2.2L226.9,22.8z M224.2,19l-1.4,2.5l-2.4-1.9l1.5-2.5L224.2,19z"/>
	<path class="st0" d="M239.2,8.3l-0.2,1.8c-0.3-0.2-0.8-0.5-1.4-1c-1.4,1.8-2.6,2.7-3.6,2.7c-0.2,0-0.6-0.1-1.1-0.2
		c1.1-0.6,2.4-1.6,3.9-2.9c-0.8-0.6-1.1-1.2-1.1-1.7c0-0.6,0.2-1.3,0.7-2.1c0.4-0.7,1-1.1,1.6-1.1c0.8,0,1.2,0.5,1.2,1.6
		c0,0.8-0.2,1.5-0.5,2.2C238.7,8,238.9,8.2,239.2,8.3z M237.9,6.7c0-0.2-0.1-0.5-0.3-0.8s-0.4-0.4-0.6-0.4c-0.3,0-0.4,0.2-0.4,0.5
		c0,0.2,0.4,0.7,1.3,1.3C237.9,6.9,237.9,6.7,237.9,6.7z"/>
	<path class="st0" d="M238.3,29.4c0,1.7-0.3,3.1-1,4.2c-0.8,1.3-2,2-3.5,2h-1.3v-4.1h1.8c1.5,0,2.3-0.3,2.3-1c0-0.1-0.2-0.5-0.7-1
		s-0.7-1-0.7-1.3c0-0.5,0.6-1.8,1.7-4.1C237.8,26.2,238.3,27.9,238.3,29.4z M240,21l-1.5,2.4l-2.3-1.6l-1.1,2.1l-2.5-1.8l1.5-2.5
		l2.1,1.7l1.4-2.2L240,21z"/>
	<path class="st0" d="M264.5,35.6h-3.6c-1.7,0-2.5,0.2-2.5,0.6c0,0.2,0.5,0.5,1.4,0.9c1.3,0.4,2.2,0.8,2.7,1.1
		c0.9,0.6,1.4,1.4,1.4,2.4c0,1.7-1.4,3-4.1,4.1c-2.2,0.8-4.3,1.2-6.3,1.2c-1.8,0-3.4-0.6-4.8-1.7c-1.6-1.2-2.3-2.7-2.3-4.5
		c0-1.3,0.2-2.5,0.6-3.7c0.2-0.7,0.7-1.8,1.5-3.5l0.5,0.2c-0.7,1.7-1,2.9-1,3.8c0,3.6,2.8,5.4,8.5,5.4c0.9,0,2-0.1,3.2-0.3
		c1.7-0.3,2.6-0.6,2.6-1.1c0-0.3-0.4-0.4-1.2-0.4c-3.3,0-5-0.9-5-2.6c0-1.7,0.5-3.1,1.6-4.4c1.1-1.2,2.5-1.9,4.1-1.9h2.7L264.5,35.6
		L264.5,35.6z M258.4,47.9l-1.5,2.4l-2.3-1.6l-1.1,2.1L251,49l1.5-2.5l2.1,1.8l1.4-2.2L258.4,47.9z"/>
	<path class="st0" d="M271.9,35.6h-1.8c-1.2,0-2.1-0.8-2.6-2.3c-0.7,1.5-1.6,2.3-2.5,2.3h-1.3v-4.1h1.7c0.9,0,1.4-0.2,1.7-0.5
		c0.1-0.1,0.1-0.7,0.1-1.9h0.2c0.2,1.5,1.4,2.3,3.5,2.3h1L271.9,35.6L271.9,35.6z M271.1,25.1l-1.4,2.5l-2.3-1.6l-1.1,2.1l-2.5-1.9
		l1.4-2.5l2.2,1.8l1.3-2.2L271.1,25.1z"/>
	<path class="st0" d="M277.8,16l-1.7,3l-0.6-0.3V19c0,1.2,0.2,3,0.6,5.4s0.6,4.2,0.6,5.4c0,1.5-0.3,2.8-0.9,3.9
		c-0.7,1.3-1.8,2-3.1,2h-1.3v-4.1h1.5c1.2,0,1.8-0.6,1.8-1.9c0-1.4-0.3-3.6-0.8-6.5c-0.6-3.1-0.9-5.4-1-6.7
		c-0.1-0.2-0.3-0.4-0.4-0.7c0.4-1.6,1-2.6,1.8-3c0.1,0.9,0.4,1.7,1.1,2.4C276.1,15.9,276.9,16.1,277.8,16z"/>
	<path class="st0" d="M283.8,30.4c0,1.4-0.3,2.9-0.9,4.5h-0.7c0-2.3-0.2-4.7-0.7-7.3c-0.7-4.2-1.1-6.6-1.1-7.2c0-0.7,0.2-1.4,0.7-2
		c0.2-0.3,0.7-0.9,1.4-1.7c0,1.5,0.2,3.8,0.6,6.9C283.5,26.5,283.8,28.8,283.8,30.4z"/>
	<path class="st0" d="M299.2,39.1c0,0.9-0.3,1.5-0.9,1.9l-5.3,3.1c0-0.6,0.1-1,0.2-1.2s0.5-0.5,1-0.8L299.2,39.1z"/>
	<path class="st0" d="M303.1,35.6h-1.8c-1.1,0-1.9-0.5-2.4-1.6c-0.3-0.6-0.5-1.7-0.7-3.1c-1.4,2-2.5,2.9-3.4,2.9
		c-0.6,0-1.1-0.2-1.7-0.5c-0.7-0.4-1-0.8-1-1.4s0.3-1.6,1-3.1c0.3-0.8,0.9-1.5,1.7-2.1c0.3-0.2,1.1-0.7,2.4-1.4
		c-0.2-1.1-0.4-1.7-0.4-2c0-0.5,0.6-1.4,1.8-2.6c0,0,0.3,1.9,0.8,5.6c0.4,3,0.7,4.6,1,4.9c0.2,0.3,0.8,0.4,1.6,0.4h1.1V35.6z
		 M300.2,17.1l-1.5,2.5l-2.3-1.6l-1.1,2.1l-2.5-1.8l1.4-2.4l2.2,1.7l1.4-2.2L300.2,17.1z M297.9,29.3c0-0.6-0.1-1.4-0.4-2.5
		c-1.9,1.1-2.9,1.9-2.9,2.4s0.9,0.8,2.7,0.8C297.7,29.9,297.9,29.7,297.9,29.3z"/>
	<path class="st0" d="M317.7,35.6h-1.8c-1.1,0-1.9-0.3-2.4-1c-0.2,1.6-0.8,2.3-2.1,2.3c-1.1,0-2.6-1.1-4.6-3.3
		c-0.2,0.3-0.6,0.8-1.4,1.5c-0.4,0.3-1.4,0.5-2.9,0.5v-4.1h1.3c0.9,0,1.7-0.5,2.4-1.4c0.5-0.8,1-1.7,1.5-2.5
		c0.6-0.9,1.4-1.4,2.3-1.4c0.5,0,1,0.4,1.6,1.3s1.2,1.7,1.8,2.6c0.8,0.9,1.6,1.4,2.4,1.4h1.8v4.1H317.7z M311.2,31.5
		c0-0.6-0.1-1.3-0.3-2c-0.2-1-0.5-1.4-0.9-1.4c-0.3,0-0.7,0.3-1,1c-0.2,0.5-0.5,1-0.7,1.5c1.2,1.2,2,1.8,2.4,1.8
		C311,32.4,311.2,32.1,311.2,31.5z"/>
	<path class="st0" d="M326.9,35.6h-1.8c-1.7,0-2.9-1.5-3.4-4.5c-0.8,3-1.9,4.5-3.2,4.5h-1.3v-4.1h1.3c1.7,0,2.5-1.6,2.5-4.8
		c0-1.3-0.1-3.3-0.4-5.9c-0.2-2.6-0.4-4.6-0.4-5.9c0-0.1,0.6-0.6,1.9-1.7c0.3,1.8,0.4,3.4,0.4,4.7c0,2.8,0.1,5.3,0.4,7.5
		c0.4,4,1.1,6.1,2.2,6.1h1.8V35.6z"/>
	<path class="st0" d="M344.9,35.6h-1.7c-0.7,0-1.3-0.3-2-0.8s-1.7-1.5-2.9-2.9c-1.5-1.8-2.5-2.8-2.9-3.2c0.3,0.8,0.4,1.4,0.4,1.9
		c0,3.3-2,4.9-5.9,4.9h-3.5v-4.1h3.5c3.1,0,4.7-0.5,4.7-1.5c0-0.7-0.6-1.4-1.9-2.2c-2-1.2-3.2-2-3.6-2.3c-1.3-1.1-1.9-2.4-1.9-3.9
		c0-2.2,2.2-4.7,6.6-7.4c3.1-1.9,6.4-3.5,9.7-4.7c-0.5,2.1-0.9,3.3-1.1,3.7s-2.7,1.7-7.4,3.9c-4.5,2.1-6.8,3.5-6.8,4.2
		c0,0.2,0.6,0.6,1.8,1.2c0.8,0.3,1.5,0.7,2.3,1c1.7,0.9,3.4,2.1,5,3.5c1,0.9,2,1.8,2.9,2.6c1.4,1.2,2.4,1.8,3,1.8h1.6L344.9,35.6
		L344.9,35.6z"/>
	<path class="st0" d="M350.9,16l-1.7,3l-0.6-0.3V19c0,1.2,0.2,3,0.6,5.4s0.6,4.2,0.6,5.4c0,1.5-0.3,2.8-0.9,3.9
		c-0.7,1.3-1.8,2-3.1,2h-1.3v-4.1h1.5c1.2,0,1.8-0.6,1.8-1.9c0-1.4-0.3-3.6-0.8-6.5c-0.6-3.1-0.9-5.4-1-6.7
		c-0.1-0.2-0.3-0.4-0.4-0.7c0.4-1.6,1-2.6,1.8-3c0.1,0.9,0.4,1.7,1.1,2.4C349.2,15.9,350,16.1,350.9,16z"/>
	<path class="st0" d="M359.9,35.6H358c-1.2,0-2.1-0.5-2.7-1.6c-0.5-0.8-0.8-2.4-0.9-4.8c0-1-0.2-2.7-0.5-5c-0.3-2.1-0.5-3.8-0.5-5
		c0-0.4,0-0.6,0-0.8c0-0.2,0.7-0.8,2-1.9c0,0.1,0.2,2.2,0.5,6.4c0.3,3.7,0.4,5.7,0.4,6c0,0.9,0.2,1.6,0.5,2s0.9,0.6,1.8,0.6h1.2v4.1
		H359.9z"/>
	<path class="st0" d="M365.1,29.4c0,1.7-0.3,3.1-1,4.2c-0.8,1.3-2,2-3.5,2h-1.3v-4.1h1.7c1.6,0,2.3-0.3,2.3-1c0-0.1-0.2-0.5-0.7-1
		s-0.7-1-0.7-1.3c0-0.5,0.6-1.8,1.7-4.1C364.7,26.2,365.1,27.9,365.1,29.4z M365.1,38.9l-1.5,2.5l-2.4-1.8l1.5-2.5L365.1,38.9z"/>
	<path class="st0" d="M384.5,45.4c0,0.9-0.3,1.5-0.9,1.9l-5.3,3.1c0-0.6,0.1-1,0.2-1.2s0.5-0.5,1-0.8L384.5,45.4z"/>
	<path class="st0" d="M389.6,15.8l-1.7,3l-0.4-0.2c0.1,0.8,0.1,1.7,0.3,2.7c0.6,4.7,0.9,8.4,0.9,11.3c0,2.6-0.7,4.7-2.2,6.1
		c-1.5,1.4-3.5,2.1-6.1,2.1c-1.9,0-3.3-0.4-4.5-1.2c-1.4-0.9-2-2.3-2-4.1c0-2.4,1.1-5.1,3.2-8l0.4,0.4c-0.6,1-1,1.7-1.2,2.1
		c-0.4,0.7-0.5,1.5-0.5,2.3c0,1.2,0.6,2.2,1.8,2.9c1,0.6,2.1,0.8,3.4,0.8c1,0,2.1-0.2,3.4-0.6c1.5-0.5,2.5-1,2.8-1.7
		c0.2-0.3,0.3-0.9,0.3-1.6c0-2.7-0.2-5.2-0.7-7.7c-0.5-1.8-1.2-4.5-2-8.2l-0.5-0.8c0.4-1.6,1-2.6,1.8-3c0.1,1,0.4,1.8,1.1,2.4
		C387.9,15.7,388.7,15.9,389.6,15.8z"/>
	<path class="st0" d="M401.6,31.8c0,2.8-0.5,5.5-1.6,7.9c-1.4,3.1-3.3,4.7-5.7,4.7c-1.4,0-3.2-0.6-5.5-1.7l0.4-0.5
		c0.8,0.2,1.3,0.3,1.6,0.3c1.5,0,3.2-0.7,5-2.2c1.6-1.3,2.8-2.7,3.6-4.3c0.6-1.1,0.9-2.4,0.9-3.9c-0.7,1.2-1.5,1.8-2.3,1.8
		c-0.7,0-1.2-0.3-1.6-0.9c-0.3-0.5-0.5-1.2-0.5-1.9c0-1.2,0.2-2.5,0.7-3.8c0.6-1.6,1.4-2.5,2.4-2.5c0.9,0,1.6,1,2.1,2.9
		C401.5,29.1,401.6,30.4,401.6,31.8z M399.5,30.1c-0.2-1-0.7-1.6-1.4-1.6c-0.6,0-0.9,0.3-0.9,0.9c0,0.3,0.1,0.6,0.4,0.8
		c0.3,0.2,0.5,0.3,0.9,0.3C398.7,30.5,399.1,30.4,399.5,30.1z"/>
	<path class="st0" d="M411.8,12.2c-0.1,0.5-0.3,0.9-0.4,1.1s-0.5,0.3-1,0.5l-5,1.5c0.4-0.9,1.1-1.5,2-1.8c-0.9-0.6-1.3-1.2-1.3-1.6
		c0-0.6,0.4-1.3,1.3-2.2s1.6-1.3,2.2-1.3c0.7,0,1.1,0.4,1.1,1.1c0,0.3-0.2,0.8-0.5,1.5c-0.7-0.5-1.3-0.7-1.7-0.7
		c-0.5,0-0.9,0.3-1.3,0.8c1.2,1,2.2,1.5,2.8,1.5C410.7,12.6,411.2,12.4,411.8,12.2z"/>
	<path class="st0" d="M422,17.8l-1.7,3.1l-0.3-0.2c0,0.2,0,0.5,0,1c0,2.2-0.1,3.6-0.2,4.3c-0.2,0.9-0.7,2.2-1.5,3.9
		c0.8,2,1.2,3.6,1.2,4.9c0,1.4-0.5,2.3-1.6,2.8c-0.7,0.3-1.9,0.5-3.4,0.5H411l0.7-4.1h1.4c1-0.8,2.2-2,3.5-3.4
		c-2.1-3.4-4.2-6.2-6.4-8.3c-0.4,0.9-0.8,1.4-1.2,1.4c-0.5,0-1.2-0.4-1.8-1.3c-0.7-0.9-1-1.6-1-2.2c0-0.8,0.7-2.1,2.1-3.9
		c3.3,2.4,6.4,6.5,9.3,12.1c0.5-1.2,0.8-2.6,0.8-4.2c0-0.8-0.3-2.6-0.8-5.3c-0.3-0.4-0.5-0.7-0.7-1.1c0.3-1.6,0.9-2.6,1.8-3
		c0.1,1,0.4,1.8,1.1,2.4C420.3,17.7,421,17.9,422,17.8z M417.8,33.3c0-0.3-0.2-0.8-0.7-1.5c-0.7,0.8-1.3,1.5-2,2.1h1
		C417.3,33.8,417.8,33.6,417.8,33.3z"/>
	<path class="st0" d="M427.9,30.4c0,1.4-0.3,2.9-0.9,4.5h-0.7c0-2.3-0.2-4.7-0.7-7.3c-0.7-4.2-1.1-6.6-1.1-7.2c0-0.7,0.2-1.4,0.7-2
		c0.2-0.3,0.7-0.9,1.4-1.7c0,1.5,0.2,3.8,0.6,6.9C427.7,26.5,427.9,28.8,427.9,30.4z"/>
	<path class="st0" d="M444.5,40.8c0,0.9-0.3,1.5-0.9,1.9l-5.3,3.1c0-0.6,0.1-1,0.2-1.2s0.5-0.5,1-0.8L444.5,40.8z"/>
	<path class="st0" d="M447.6,30.1c0,1.6-0.3,2.8-1,3.6c-0.6,0.8-1.7,1.3-3.3,1.7c-1.2,0.3-2.4,0.4-3.8,0.4c-0.6,0-1.4-0.3-2.3-0.8
		l0.8-4.7c0.8,0.4,1.4,0.6,1.7,0.6c4.4,0,6.6-0.6,6.6-1.7c0-1-2-2.5-6-4.5l1.4-4.5C445.6,22.9,447.6,26.2,447.6,30.1z"/>
	<path class="st0" d="M461.7,35.6h-2.4c-1.2,6.2-3.5,9.4-6.9,9.4c-1.6,0-3.3-0.7-5.3-2.1l0.3-0.4c0.6,0.2,1.3,0.3,2,0.3
		c2.2,0,4-0.7,5.5-2.1c1.2-1.1,2.3-2.7,3.5-5.1c-1.4,0-2.3-0.1-2.8-0.2c-0.9-0.3-1.3-1.1-1.3-2.3c0-1.1,0.4-2.5,1.1-4.3
		c0.8-2,1.6-3.1,2.5-3.1s1.5,1.9,1.9,5.8h1.9L461.7,35.6L461.7,35.6z M458.7,31.5c-0.6-1.2-1.3-1.9-2-1.9c-0.6,0-0.9,0.3-0.9,0.8
		c0,0.7,0.6,1,1.7,1h1.2V31.5z"/>
	<path class="st0" d="M476.1,35.6h-1.8c-1.1,0-1.9-0.3-2.4-1c-0.2,1.6-0.8,2.3-2.1,2.3c-1.1,0-2.6-1.1-4.6-3.3
		c-0.2,0.3-0.6,0.8-1.4,1.5c-0.4,0.3-1.4,0.5-2.9,0.5v-4.1h1.3c0.9,0,1.7-0.5,2.4-1.4c0.5-0.8,1-1.7,1.5-2.5
		c0.6-0.9,1.4-1.4,2.3-1.4c0.5,0,1,0.4,1.6,1.3s1.2,1.7,1.8,2.6c0.8,0.9,1.6,1.4,2.4,1.4h1.8v4.1H476.1z M469.6,31.5
		c0-0.6-0.1-1.3-0.3-2c-0.2-1-0.5-1.4-0.9-1.4c-0.3,0-0.7,0.3-1,1c-0.2,0.5-0.5,1-0.7,1.5c1.2,1.2,2,1.8,2.4,1.8
		C469.4,32.4,469.6,32.1,469.6,31.5z"/>
	<path class="st0" d="M487.3,35.6h-1.8c-0.5,0-1.2-0.4-2.1-1.3c-0.1,0-0.7-0.7-1.8-2c-2.1,2.1-3.7,3.2-4.7,3.2h-1.3v-4.1
		c1.2,0,2,0,2.2-0.1c0.5-0.1,1.2-0.4,1.9-1c-0.9-1.3-1.9-2-3.2-2c0.1-1.6,0.6-2.8,1.4-3.4s2-0.9,3.6-0.9c1.2,0,2.2,0.3,3,0.9
		c0.9,0.7,1.4,1.6,1.4,2.8c0,1.3-0.7,2.3-2.1,3c0.7,0.4,1.6,0.6,2.8,0.6c0.1,0,0.2,0,0.3,0c0.1,0,0.2,0,0.4,0L487.3,35.6L487.3,35.6
		z"/>
	<path class="st0" d="M493.2,16l-1.7,3l-0.6-0.3V19c0,1.2,0.2,3,0.6,5.4s0.6,4.2,0.6,5.4c0,1.5-0.3,2.8-0.9,3.9
		c-0.7,1.3-1.8,2-3.1,2h-1.3v-4.1h1.5c1.2,0,1.8-0.6,1.8-1.9c0-1.4-0.3-3.6-0.8-6.5c-0.6-3.1-0.9-5.4-1-6.7
		c-0.1-0.2-0.3-0.4-0.4-0.7c0.4-1.6,1-2.6,1.8-3c0.1,0.9,0.4,1.7,1.1,2.4C491.4,15.9,492.2,16.1,493.2,16z"/>
	<path class="st0" d="M499.1,30.4c0,1.4-0.3,2.9-0.9,4.5h-0.7c0-2.3-0.2-4.7-0.7-7.3c-0.7-4.2-1.1-6.6-1.1-7.2c0-0.7,0.2-1.4,0.7-2
		c0.2-0.3,0.7-0.9,1.4-1.7c0,1.5,0.2,3.8,0.6,6.9C498.9,26.5,499.1,28.8,499.1,30.4z"/>
	<path class="st0" d="M530.1,29.2c0,4-2,6.2-5.9,6.4c-0.2,0-0.3,0-0.1,0s0.2,0,0.1,0c-0.2,0-0.9,0-2.1,0c-1.7,0-2.5,0.2-2.5,0.6
		c0,0.2,0.5,0.5,1.4,0.9c1.3,0.4,2.2,0.8,2.7,1.1c0.9,0.6,1.4,1.5,1.4,2.4c0,1.7-1.4,3-4.1,4.1c-2.2,0.8-4.3,1.2-6.3,1.2
		c-1.8,0-3.4-0.6-4.8-1.7c-1.6-1.2-2.3-2.7-2.3-4.5c0-1.3,0.2-2.5,0.6-3.7c0.2-0.7,0.7-1.8,1.5-3.5l0.5,0.2c-0.7,1.7-1,2.9-1,3.8
		c0,3.6,2.8,5.4,8.5,5.4c0.9,0,2-0.1,3.2-0.3c1.7-0.3,2.6-0.6,2.6-1.1c0-0.3-0.4-0.4-1.2-0.4c-3.3,0-5-0.9-5-2.6
		c0-1.7,0.5-3.1,1.6-4.4c1.1-1.2,2.5-1.9,4.1-1.9h1.2c3.1-0.1,4.6-0.8,4.6-2c0-0.3-0.3-1.1-0.8-2.2c-0.4,0.8-0.7,1.4-1.1,1.8
		c-0.4,0.4-1.1,0.6-1.9,0.6c-1.5,0-2.2-0.7-2.2-2.1c0-0.3,0.1-0.9,0.2-1.8c0.7-4.4,1.8-6.6,3.3-6.6c1.2,0,2.2,1.4,2.9,4.1
		C529.8,25.4,530.1,27.3,530.1,29.2z M519.6,47.9l-1.5,2.4l-2.3-1.6l-1.1,2.1l-2.5-1.8l1.5-2.5l2.1,1.8l1.4-2.2L519.6,47.9z
		 M527.5,15.7l-1.4,2.5l-2.4-1.8l1.4-2.5L527.5,15.7z M526.7,24.6c-0.5-0.8-1-1.2-1.4-1.2c-0.5,0-0.8,0.3-0.8,1
		c0,0.8,0.4,1.2,1.1,1.2C525.9,25.6,526.3,25.3,526.7,24.6z"/>
	<path class="st0" d="M545.6,41.6c0,0.5,0,0.9-0.1,1.1c-0.1,0.2-0.3,0.5-0.8,0.7l-5.3,3.2c0-0.6,0.1-1,0.2-1.2
		c0.1-0.2,0.5-0.5,1-0.8L545.6,41.6z M545.6,44.4c0,0.5,0,0.9-0.1,1.2c-0.1,0.2-0.3,0.5-0.8,0.7l-5.3,3.1c0-0.6,0.1-1,0.2-1.2
		c0.2-0.3,0.5-0.5,1-0.8L545.6,44.4z"/>
	<path class="st0" d="M548.6,35.6h-1.8c-1.1,0-1.9-0.5-2.4-1.6c-0.3-0.6-0.5-1.7-0.7-3.1c-1.4,2-2.5,2.9-3.4,2.9
		c-0.6,0-1.1-0.2-1.7-0.5c-0.7-0.4-1-0.8-1-1.4s0.3-1.6,1-3.1c0.3-0.8,0.9-1.5,1.7-2.1c0.3-0.2,1.1-0.7,2.4-1.4
		c-0.2-1.1-0.4-1.7-0.4-2c0-0.5,0.6-1.4,1.8-2.6c0,0,0.3,1.9,0.8,5.6c0.4,3,0.7,4.6,1,4.9c0.2,0.3,0.8,0.4,1.6,0.4h1.1L548.6,35.6
		L548.6,35.6z M545.7,17.1l-1.5,2.5L542,18l-1.1,2.1l-2.5-1.8l1.4-2.4l2.2,1.7l1.4-2.2L545.7,17.1z M543.4,29.3
		c0-0.6-0.1-1.4-0.4-2.5c-1.9,1.1-2.9,1.9-2.9,2.4s0.9,0.8,2.7,0.8C543.2,29.9,543.4,29.7,543.4,29.3z"/>
	<path class="st0" d="M563.2,35.6h-1.8c-1.1,0-1.9-0.3-2.4-1c-0.2,1.6-0.8,2.3-2.1,2.3c-1.1,0-2.6-1.1-4.6-3.3
		c-0.2,0.3-0.6,0.8-1.4,1.5c-0.4,0.3-1.4,0.5-2.9,0.5v-4.1h1.3c0.9,0,1.7-0.5,2.4-1.4c0.5-0.8,1-1.7,1.5-2.5
		c0.6-0.9,1.4-1.4,2.3-1.4c0.5,0,1,0.4,1.6,1.3s1.2,1.7,1.8,2.6c0.8,0.9,1.6,1.4,2.4,1.4h1.8v4.1H563.2z M556.7,31.5
		c0-0.6-0.1-1.3-0.3-2c-0.2-1-0.5-1.4-0.9-1.4c-0.3,0-0.7,0.3-1,1c-0.2,0.5-0.5,1-0.7,1.5c1.2,1.2,2,1.8,2.4,1.8
		C556.5,32.4,556.7,32.1,556.7,31.5z"/>
	<path class="st0" d="M572.4,35.6h-1.8c-1.7,0-2.9-1.5-3.4-4.5c-0.8,3-1.9,4.5-3.2,4.5h-1.3v-4.1h1.3c1.7,0,2.5-1.6,2.5-4.8
		c0-1.3-0.1-3.3-0.4-5.9c-0.2-2.6-0.4-4.6-0.4-5.9c0-0.1,0.6-0.6,1.9-1.7c0.3,1.8,0.4,3.4,0.4,4.7c0,2.8,0.1,5.3,0.4,7.5
		c0.4,4,1.1,6.1,2.2,6.1h1.8V35.6z"/>
	<path class="st0" d="M587.4,12.8c-0.7,1.6-1.4,2.8-1.9,3.6c-0.2,0.4-0.7,0.7-1.4,1s-1.9,0.7-3.5,1.2c-4.6,1.5-6.9,2.4-6.9,2.9
		c0,0.3,0.7,0.8,2,1.5c3.5,1.9,5.3,4.4,5.3,7.6c0,2-0.7,3.3-2.1,4.1c-1,0.6-2.6,0.8-4.8,0.8H572v-4.1h1.7c4.2,0,6.3-0.5,6.3-1.4
		c0-0.6-1.2-1.8-3.6-3.5c-0.5-0.4-1.1-0.6-1.6-0.6c-0.3,0-0.6-0.2-1-0.5s-0.7-0.6-0.8-0.9c-0.2-0.4-0.3-1.1-0.3-2.1
		c0-1.6,0.1-2.6,0.4-3c0.5-0.8,2.7-2.1,6.6-3.8C582.9,14.4,585.4,13.4,587.4,12.8z"/>
	<path class="st0" d="M604.7,1.4c-0.1,0.5-0.3,0.9-0.4,1.1c-0.1,0.2-0.4,0.4-0.9,0.5l-5.2,1.9c0.1-0.5,0.3-0.9,0.4-1.1
		c0.2-0.2,0.6-0.4,1.1-0.6L604.7,1.4z M604.9,4.9c0,2.1-0.6,3.1-1.9,3.1c-0.2,0-0.6-0.1-1.2-0.4c-0.5,1.1-1.1,1.6-2,1.6
		c-1,0-1.4-0.7-1.4-2c0-0.4,0.1-1.1,0.4-1.9h0.4c0,1.4,0.2,2.1,0.7,2.1s0.9-0.4,1.3-1.2c0.3-0.7,0.4-1.3,0.4-1.9l0.4-0.1
		c0.3,1.3,0.7,1.9,1.1,1.9c0.7,0,1.1-0.9,1.2-2.8l0.4-0.2C604.8,3.7,604.9,4.4,604.9,4.9z"/>
	<path class="st0" d="M611,35.6h-1.8c-1.5,0-2.6-1.7-3.3-5c0,0.9,0.1,2.2,0.2,3.9s0.2,3,0.2,3.9c0,2.6-0.7,4.6-2.1,6
		c-1.4,1.4-3.3,2.1-5.9,2.1c-1.7,0-3-0.4-4-1.3c-1.1-0.9-1.6-2.2-1.6-3.9c0-2.2,0.8-4.8,2.4-7.6l0.5,0.3c-1,1.9-1.5,3.4-1.5,4.5
		c0,2.2,1.6,3.3,4.8,3.3c4.1,0,6.1-1.2,6.1-3.7c0-1-0.1-2.3-0.3-3.8c-0.2-1.3-0.4-2.5-0.5-3.8c-0.1-0.7-0.2-1.8-0.2-3.5
		c-0.3-5.8-0.4-8.5-0.4-8.2c0-0.8,0.2-1.7,0.6-2.5c0.2-0.3,0.6-1,1.4-2.2c0.1,2.9,0.2,5.8,0.4,8.7c0.3,4.4,0.8,7.1,1.6,8
		c0.4,0.5,1,0.7,1.9,0.7h1.3v4.1H611z"/>
	<path class="st0" d="M621.1,4.5l-0.2,1.8c-0.3-0.2-0.8-0.5-1.4-1c-1.4,1.8-2.6,2.7-3.6,2.7c-0.2,0-0.6-0.1-1.1-0.2
		c1.1-0.6,2.4-1.6,3.9-2.9c-0.8-0.6-1.1-1.2-1.1-1.7c0-0.6,0.2-1.3,0.7-2.1c0.4-0.7,1-1.1,1.6-1.1c0.8,0,1.2,0.5,1.2,1.6
		c0,0.8-0.2,1.5-0.5,2.2C620.6,4.1,620.9,4.3,621.1,4.5z M619.8,2.8c0-0.2-0.1-0.5-0.3-0.8s-0.4-0.4-0.6-0.4c-0.3,0-0.4,0.2-0.4,0.5
		c0,0.2,0.4,0.7,1.3,1.3C619.8,3.1,619.8,2.9,619.8,2.8z"/>
	<path class="st0" d="M626,12.8c-0.7,1.6-1.4,2.8-1.9,3.6c-0.2,0.4-0.7,0.7-1.4,1s-1.9,0.7-3.5,1.2c-4.6,1.5-6.9,2.4-6.9,2.9
		c0,0.3,0.7,0.8,2,1.5c3.5,1.9,5.3,4.4,5.3,7.6c0,2-0.7,3.3-2.1,4.1c-1,0.6-2.6,0.8-4.8,0.8h-2.1v-4.1h1.7c4.2,0,6.3-0.5,6.3-1.4
		c0-0.6-1.2-1.8-3.6-3.5c-0.5-0.4-1.1-0.6-1.6-0.6c-0.3,0-0.6-0.2-1-0.5s-0.7-0.6-0.8-0.9c-0.2-0.4-0.3-1.1-0.3-2.1
		c0-1.6,0.1-2.6,0.4-3c0.5-0.8,2.7-2.1,6.6-3.8C621.5,14.4,624.1,13.4,626,12.8z"/>
	<path class="st0" d="M642.6,6.2c0,0.8-0.3,1.5-0.8,2.1c-0.5,0.6-1.2,0.9-2,0.9c-1.3,0-2-0.7-2-2.2c0-0.9,0.2-1.7,0.5-2.4
		c0.5-0.8,1.1-1.2,2-1.2c0.6,0,1.2,0.3,1.6,0.9C642.4,5,642.6,5.6,642.6,6.2z M641.6,6.7c0-0.3-0.3-0.7-0.8-1.1s-1-0.6-1.3-0.6
		s-0.5,0.1-0.8,0.4c-0.2,0.3-0.3,0.6-0.3,0.9c0,0.7,0.5,1.1,1.6,1.1C641.1,7.5,641.6,7.2,641.6,6.7z"/>
	<path class="st0" d="M649.7,35.6h-1.8c-1.5,0-2.6-1.7-3.3-5c0,0.9,0.1,2.2,0.2,3.9c0.2,1.7,0.2,3,0.2,3.9c0,2.6-0.7,4.6-2.1,6
		c-1.4,1.4-3.3,2.1-5.9,2.1c-1.7,0-3-0.4-4-1.3c-1.1-0.9-1.6-2.2-1.6-3.9c0-2.2,0.8-4.8,2.4-7.6l0.5,0.3c-1,1.9-1.5,3.4-1.5,4.5
		c0,2.2,1.6,3.3,4.8,3.3c4.1,0,6.1-1.2,6.1-3.7c0-1-0.1-2.3-0.3-3.8c-0.2-1.3-0.4-2.5-0.5-3.8c-0.1-0.7-0.2-1.8-0.2-3.5
		c-0.3-5.8-0.4-8.5-0.4-8.2c0-0.8,0.2-1.7,0.6-2.5c0.2-0.3,0.6-1,1.4-2.2c0.1,2.9,0.2,5.8,0.4,8.7c0.3,4.4,0.8,7.1,1.6,8
		c0.4,0.5,1,0.7,1.9,0.7h1.3v4.1H649.7z"/>
	<path class="st0" d="M664.2,41.2c0,0.9-0.3,1.5-0.9,1.9l-5.3,3.1c0-0.6,0.1-1,0.2-1.2c0.1-0.2,0.5-0.5,1-0.8L664.2,41.2z"/>
	<path class="st0" d="M656.6,35.6h-0.3c-1.6,0-2.7-0.8-3.3-2.3c-0.7,1.5-1.5,2.3-2.5,2.3h-1.3v-4.1c1.9,0,3.1-0.2,3.5-0.5
		c0.2-0.1,0.3-0.7,0.3-1.8h0.2c0.3,0.8,0.7,1.4,1.3,1.7c0.4,0.2,1.2,0.3,2.1,0.3V35.6z"/>
	<path class="st0" d="M671,27.4c0,2.5-1.6,4.6-4.7,6.2c-2.3,1.2-5,1.9-7.9,2.1c-0.1,0.3-0.2,0.7-0.5,1.2c-0.4,0.6-0.6,0.9-0.8,0.9
		c-0.3,0-0.4-0.1-0.4-0.4c0,0,0.2-0.6,0.7-1.6h-1v-4.3c1.5,0,2.5,0,2.8,0c1-1.6,2.2-3.3,3.7-4.9c2-2.1,3.6-3.1,4.8-3.1
		c1,0,1.8,0.4,2.4,1.3C670.7,25.4,671,26.4,671,27.4z M669.3,28.8c0-0.8-0.8-1.2-2.3-1.2c-1.4,0-3.5,1.2-6.4,3.7
		c1.4,0,3-0.2,4.8-0.6C668.1,30.2,669.3,29.6,669.3,28.8z"/>
</g>
</svg>
