<?xml version="1.0" encoding="utf-8"?>
<!-- Generator: Adobe Illustrator 22.0.1, SVG Export Plug-In . SVG Version: 6.00 Build 0)  -->
<svg version="1.1" id="Layer_1" xmlns="http://www.w3.org/2000/svg" xmlns:xlink="http://www.w3.org/1999/xlink" x="0px" y="0px"
	 viewBox="0 0 86.2 86.2" style="enable-background:new 0 0 86.2 86.2;" xml:space="preserve">
<style type="text/css">
	.st0{fill:#235958;}
</style>
<g>
	<path class="st0" d="M39.1,18.9c0,1.9-0.6,3.3-1.8,4l-10.9,6.2c0-1.1,0.2-1.9,0.5-2.4s1-1,2-1.6L39.1,18.9z"/>
</g>
<g>
	<polygon class="st0" points="42,34.5 46.6,37.7 49.4,32.8 44.8,29.1 42,33.6 37.5,30 34.6,34.9 39.6,38.7 	"/>
	<path class="st0" d="M51,45.5h-1h-1c-4.4,0-6.8-1.5-7.2-4.6l-0.5-0.1c0,2.3-0.1,3.6-0.2,3.8c-0.6,0.6-1.8,1-3.5,1h-1.4h-2.1H21.7
		v8.3h12.4h2.1h0.6c2,0,3.7-1.5,5.2-4.6c1.1,3,2.9,4.6,5.4,4.6H50h1h13.4v-8.3H51V45.5z"/>
</g>
</svg>
