<?xml version="1.0" encoding="utf-8"?>
<!-- Generator: Adobe Illustrator 16.0.0, SVG Export Plug-In . SVG Version: 6.00 Build 0)  -->
<!DOCTYPE svg PUBLIC "-//W3C//DTD SVG 1.1//EN" "http://www.w3.org/Graphics/SVG/1.1/DTD/svg11.dtd">
<svg version="1.1" id="Layer_1" xmlns="http://www.w3.org/2000/svg" xmlns:xlink="http://www.w3.org/1999/xlink" x="0px" y="0px"
	 width="669.14px" height="175.114px" viewBox="44.179 444.012 669.14 175.114"
	 enable-background="new 44.179 444.012 669.14 175.114" xml:space="preserve">
<g>
	<g opacity="0.6">
		<g>
			<path fill="#EFE6E2" d="M115.915,619.126c-39.579,0-71.735-32.158-71.735-71.735v-31.645c0-39.578,32.157-71.734,71.735-71.734
				h525.669c39.577,0,71.735,32.156,71.735,71.734v31.233c0,39.577-32.158,71.733-71.735,71.733H115.915V619.126z"/>
		</g>
	</g>
</g>
<g>
	<path fill="#235958" d="M254.33,547.079l-2.418,15.718H202.34c-3.591,0-6.613-1.355-9.067-4.066
		c-2.456-2.711-3.683-5.826-3.683-9.343c0-2.271,0.513-5.313,1.539-9.123c1.245-4.396,2.528-7.07,3.848-8.023
		c0.805,0,1.209,0.367,1.209,1.099c0,0.879-0.221,2.217-0.66,4.012c-0.439,1.797-0.659,3.133-0.659,4.012
		c0,2.492,0.86,4.672,2.583,6.54c1.721,1.869,3.864,2.803,6.43,2.803h43.087c0.072-0.072,0.109-0.22,0.109-0.439
		c0-0.879-0.22-2.088-0.659-3.627c-0.514-1.831-1.063-2.894-1.648-3.188c-2.347,3.517-5.716,5.275-10.112,5.275
		c-2.566,0-4.874-0.621-6.925-1.868c-2.492-1.392-3.737-3.26-3.737-5.605c0-3.518,2.089-7.565,6.266-12.146
		c4.177-4.579,7.985-6.87,11.431-6.87c3.298,0,6.411,3.371,9.343,10.112C253.816,538.58,254.915,543.49,254.33,547.079z
		 M235.425,516.743c0,1.318-2.712,3.444-8.134,6.375c-5.276-3.224-7.914-5.313-7.914-6.266c0-0.512,1.171-1.904,3.518-4.177
		c2.344-2.271,3.809-3.407,4.396-3.407c0.292,0,1.721,1.192,4.286,3.572C234.142,515.223,235.425,516.524,235.425,516.743z
		 M241.58,536.967c-0.514-0.879-1.319-1.868-2.419-2.968c-1.318-1.171-2.382-1.758-3.188-1.758c-1.246,0-2.455,0.917-3.627,2.747
		c1.905,1.833,3.663,2.748,5.276,2.748C237.403,537.737,238.722,537.481,241.58,536.967z"/>
	<path fill="#235958" d="M284.172,502.977c0,2.126-0.843,4.141-2.528,6.045c-1.687,1.907-3.555,2.858-5.605,2.858
		c-1.173,0-2.088-0.512-2.747-1.539c-0.66-1.025-0.989-2.124-0.989-3.297c0-2.051,0.621-4.14,1.868-6.266
		c1.391-2.418,3.004-3.627,4.836-3.627c0.586,0,1.136,0.073,1.648,0.22C282.999,499.57,284.172,501.438,284.172,502.977z
		 M281.534,504.076c0-0.586-0.403-1.154-1.209-1.704c-0.808-0.55-1.503-0.824-2.089-0.824c-0.879,0-1.758,0.423-2.638,1.264
		c-0.879,0.844-1.319,1.704-1.319,2.583c0,1.394,0.88,2.089,2.639,2.089c0.806,0,1.775-0.385,2.912-1.154
		C280.966,505.56,281.534,504.81,281.534,504.076z"/>
	<path fill="#235958" d="M302.143,562.797h-8.024c-1.026,0-2.456-0.439-4.286-1.319l-0.55,0.66
		c-2.272,3.957-4.544,7.949-6.814,11.98c-3.371,4.763-7.072,7.145-11.102,7.145c-2.712,0-6.649-1.283-11.815-3.848
		c-5.166-2.565-8.738-4.945-10.717-7.144v-1.43c0-0.147,0.184-0.22,0.55-0.22c-0.221,0,0.989,0.731,3.627,2.198
		c2.638,1.465,4.982,2.198,7.034,2.198c3.149,0,7.767-2.033,13.85-6.1c6.081-4.067,9.123-7.382,9.123-9.947
		c0-1.245-1.063-3.243-3.188-5.99c-2.126-2.748-3.188-4.194-3.188-4.342c0-0.439,0.896-2.125,2.693-5.057
		c1.795-2.93,2.985-4.762,3.572-5.495c2.198,3.297,4.396,6.595,6.595,9.893c2.49,3.151,6.008,4.726,10.552,4.726h2.089V562.797z"/>
	<path fill="#235958" d="M329.099,477.835c-0.22,2.126-2.712,4.909-7.475,8.353c-3.445,2.272-6.853,4.545-10.222,6.815
		c0-1.831,0.585-3.26,1.759-4.287c1.83-1.61,4.433-3.479,7.804-5.605C325.653,480.107,328.365,478.348,329.099,477.835z"/>
	<path fill="#235958" d="M378.972,522.129c-0.294,0.587-1.907,2.565-4.837,5.936c-2.565,3.151-3.847,4.983-3.847,5.495l1.319,14.179
		c0.071,0.588-0.148,1.906-0.66,3.957c-2.346,8.793-4.435,14.399-6.265,16.817c-0.953,1.245-4.396,2.674-10.332,4.286
		c-5.496,1.392-9.381,2.089-11.651,2.089c-5.203,0-7.804-2.492-7.804-7.475c0-1.612,0.292-3.517,0.88-5.716
		c0.585-1.83,1.171-3.663,1.758-5.495c-0.879-0.292-1.723-0.439-2.527-0.439c-3.518,0-7.694,1.173-12.53,3.517
		c-4.837,2.347-7.658,3.518-8.464,3.518h-17.036v-12.091h20.334c2.344,0,4.542-0.476,6.595-1.429
		c-6.01-3.737-10.59-5.605-13.739-5.605c-2.492,0-5.094,0.879-7.804,2.638l-0.22-0.329c4.542-9.159,9.524-13.739,14.948-13.739
		c3.004,0,6.301,0.879,9.892,2.638c3.078,1.687,6.118,3.335,9.123,4.946c8.134,4.03,15.131,6.412,20.994,7.144
		c-1.613,2.272-4.067,5.606-7.364,10.003l-0.44,0.109l-7.034-0.879c-0.073,0.22-0.109,0.478-0.109,0.77
		c0,2.857,1.648,4.286,4.945,4.286c4.763,0,10.515-1.574,17.257-4.726v-0.66c0.072-3.149-0.367-8.279-1.319-15.388
		c-0.953-7.106-1.832-12.091-2.638-14.948c-1.099-0.806-2.271-1.904-3.517-3.298c3.956-7.985,6.814-12.236,8.573-12.75
		c0,1.1,0.329,2.676,0.989,4.727C367.612,515.902,371.789,518.539,378.972,522.129z"/>
	<path fill="#235958" d="M399.194,544.991c0,7.474-2.126,13.703-6.375,18.685l-4.946-35.392c1.392-4.029,4.103-8.829,8.134-14.399
		C398.131,528.174,399.194,538.544,399.194,544.991z"/>
	<path fill="#235958" d="M457.117,480.8c0,0.147-0.403,0.989-1.209,2.528c-0.514-0.292-1.393-0.659-2.638-1.1
		c-1.467,2.492-3.556,4.801-6.266,6.925c-3.077,2.418-5.789,3.627-8.134,3.627c2.711-2.27,6.596-5.897,11.651-10.881
		c-1.1-0.22-2.144-0.476-3.133-0.77c-0.989-0.292-1.483-1.281-1.483-2.968c0-1.685,0.714-3.479,2.144-5.386
		c1.429-1.904,2.948-2.857,4.561-2.857c1.905,0,2.858,1.502,2.858,4.506c0,0.808-0.258,2.162-0.77,4.067
		c0.806,0.293,1.429,0.549,1.868,0.77C456.934,479.921,457.117,480.435,457.117,480.8z M452.94,478.273v-2.748
		c0-0.366-0.238-0.77-0.714-1.209c-0.478-0.44-0.862-0.66-1.154-0.66c-0.514,0-1.1,0.294-1.759,0.88
		c-0.659,0.587-0.989,1.137-0.989,1.648C448.324,477.137,449.863,477.832,452.94,478.273z"/>
	<path fill="#235958" d="M474.265,562.797H466.9c-0.074,0.072-0.258,0.22-0.55,0.439c-4.616,10.258-12.75,15.389-24.401,15.389
		c-4.764,0-8.94-1.21-12.53-3.628c-4.03-2.638-6.045-6.009-6.045-10.112c0-3.809,1.154-8.114,3.462-12.914
		c2.309-4.799,5.111-8.738,8.409-11.816c0,0.22,0.036,0.753,0.109,1.594c0.072,0.844,0.11,1.338,0.11,1.484
		c0-0.366-0.733,0.642-2.198,3.022c-1.467,2.382-2.198,5.075-2.198,8.078c0,7.694,5.237,11.541,15.718,11.541
		c2.124,0,4.616-0.293,7.474-0.879c3.298-0.733,5.422-1.576,6.375-2.528l-4.616-40.998c0-0.805,1.135-2.894,3.407-6.265
		c2.125-3.149,3.59-5.128,4.396-5.936c0.731,3.226,1.245,6.339,1.539,9.343c0.512,6.449,1.429,16.597,2.748,30.446
		c0.146,1.1,0.512,1.648,1.099,1.648h5.057V562.797z"/>
	<path fill="#235958" d="M498.062,485.961c0,2.126-0.843,4.141-2.528,6.045c-1.687,1.907-3.555,2.858-5.605,2.858
		c-1.173,0-2.088-0.512-2.747-1.539c-0.66-1.025-0.989-2.124-0.989-3.297c0-2.051,0.621-4.14,1.868-6.266
		c1.391-2.418,3.004-3.627,4.836-3.627c0.586,0,1.136,0.073,1.648,0.22C496.889,482.554,498.062,484.422,498.062,485.961z
		 M495.424,487.061c0-0.586-0.403-1.154-1.209-1.704c-0.808-0.55-1.503-0.824-2.089-0.824c-0.879,0-1.758,0.423-2.638,1.264
		c-0.879,0.844-1.319,1.704-1.319,2.583c0,1.394,0.88,2.089,2.639,2.089c0.806,0,1.775-0.385,2.912-1.154
		C494.855,488.544,495.424,487.794,495.424,487.061z"/>
	<path fill="#235958" d="M513.063,562.797h-9.123l-7.913-7.475l-4.507,7.475h-20.884v-12.091h20.444l-17.146-16.487
		c0.951-5.495,2.454-10.917,4.506-16.267c21.03-4.543,31.985-6.741,32.864-6.595c-0.807,3.736-1.868,7.657-3.188,11.761
		l-24.95,5.056c3.883,4.396,7.767,8.831,11.651,13.3c5.567,6.155,9.964,9.232,13.189,9.232h5.056V562.797z"/>
	<path fill="#235958" d="M548.62,476.735c-0.22,2.126-2.712,4.909-7.475,8.353c-3.445,2.272-6.853,4.545-10.222,6.815
		c0-1.831,0.585-3.26,1.759-4.287c1.83-1.61,4.433-3.479,7.804-5.605C545.175,479.006,547.887,477.247,548.62,476.735z"/>
	<path fill="#235958" d="M534.496,562.797h-9.673c-0.073-0.951-0.403-1.979-0.989-3.077c-0.367,0.22-0.953,0.788-1.759,1.703
		c-0.807,0.917-1.538,1.374-2.198,1.374h-9.672v-12.091h12.42c0.951-1.759,1.429-3.663,1.429-5.715c0-1.025,1.062-2.748,3.188-5.166
		c2.125-2.419,3.737-3.848,4.837-4.287l0.22,2.748c0,1.979-1.1,6.119-3.298,12.42h5.496V562.797z"/>
	<path fill="#235958" d="M558.456,523.228c-0.439,0.88-1.502,2.272-3.188,4.177c-1.906,2.198-3.115,3.298-3.627,3.298
		c-0.439,0-3.481-1.611-9.123-4.837c-1.099,1.027-2.821,2.566-5.166,4.617c-1.979-0.072-5.092-1.721-9.343-4.946
		c0.368-0.731,1.484-2.105,3.353-4.122c1.869-2.015,3.059-3.059,3.572-3.133c4.469,3.078,7.181,4.617,8.134,4.617
		c0.366,0,1.319-0.696,2.857-2.089c1.025-0.879,2.015-1.795,2.968-2.748L558.456,523.228z M562.963,548.069
		c0,2.418-0.478,4.946-1.429,7.584c-0.88,2.346-1.797,4.727-2.748,7.145h-16.707c-0.22-0.512-0.623-1.1-1.209-1.759
		c-0.367,0.368-0.953,0.953-1.759,1.759h-9.123v-12.091h10.442c0-1.025,0.292-2.563,0.879-4.616c2.93-5.567,5.752-8.793,8.464-9.673
		v0.77c0,0.953-0.55,3.042-1.649,6.266c-1.099,3.226-1.648,5.495-1.648,6.814c0,0.147,0.146,0.294,0.439,0.439h7.805
		c0.22-0.22,0.329-0.439,0.329-0.659c0-0.439-0.073-1.08-0.22-1.924c-0.147-0.841-0.22-1.483-0.22-1.923
		c0-1.319,1.135-3.37,3.407-6.155c1.904-2.418,3.554-4.14,4.946-5.166V548.069z M549.004,514.215
		c-0.439,0.659-1.539,1.723-3.298,3.188c-1.759,1.467-2.896,2.198-3.407,2.198c-0.367,0-1.521-0.77-3.462-2.309
		c-1.942-1.538-2.913-2.49-2.913-2.857c0-0.366,0.951-1.465,2.857-3.298c1.905-1.83,3.04-2.747,3.408-2.747
		C542.774,508.39,545.047,510.332,549.004,514.215z"/>
</g>
</svg>
