<?xml version="1.0" encoding="utf-8"?>
<!-- Generator: Adobe Illustrator 22.0.1, SVG Export Plug-In . SVG Version: 6.00 Build 0)  -->
<svg version="1.1" id="Layer_1" xmlns="http://www.w3.org/2000/svg" xmlns:xlink="http://www.w3.org/1999/xlink" x="0px" y="0px"
	 viewBox="0 0 84.3 48.7" style="enable-background:new 0 0 84.3 48.7;" xml:space="preserve">
<style type="text/css">
	.st0{fill:#542C0B;}
	.st1{fill:none;}
</style>
<g>
	<path class="st0" d="M39.1,23.5c-0.3-0.9-0.9-1.3-1.6-1.3c-0.6,0-1.2,0.4-1.7,1.3c-0.5,0.8-0.7,1.5-0.7,2.2c0,0.5,0.2,0.9,0.7,1.3
		c0.4,0.3,1,0.6,1.9,0.8h-8.3c-2.3,0-4-0.2-5.1-0.7c-1.1-0.5-1.6-1.2-1.6-2.2c0-0.3,0.1-0.6,0.2-0.9c0.1-0.4,0.3-0.8,0.6-1.5
		l-0.4-0.3c-0.1,0.3-0.3,0.8-0.6,1.4c-0.4,0.9-0.6,1.6-0.6,2.3c0,1,0.4,1.8,1,2.4c0.6,0.6,1.4,1,2.6,1.2c0.9,0.2,2.2,0.3,3.8,0.3
		h10.2v-3.2C39.5,25.3,39.4,24.2,39.1,23.5z M37.1,25.9c-0.3-0.2-0.5-0.4-0.5-0.8c0-0.2,0.1-0.4,0.2-0.6c0.2-0.1,0.3-0.2,0.6-0.2
		c0.4,0,0.6,0.2,0.8,0.6c0.1,0.3,0.2,0.8,0.2,1.5C37.8,26.3,37.3,26.1,37.1,25.9z"/>
	<polygon class="st0" points="37.3,18.4 35.5,17.5 34.6,19.1 36.4,20.1 	"/>
	<path class="st0" d="M44.1,28h-0.8c-0.3,0-0.5-0.2-0.7-0.5c-0.3-0.4-0.5-1.3-0.6-2.6c-0.1-2.9-0.1-4.7-0.2-5.5
		c-0.1-1.2-0.3-2.3-0.6-3.2l-1.4,2.2c0.3,0.2,0.5,0.5,0.7,0.9c0.1,0.3,0.2,0.6,0.3,1.1c0.1,0.4,0.2,1.1,0.2,2c0,0.9,0.1,1.8,0.1,2.6
		c0.1,1,0.2,1.9,0.3,2.6c0.1,0.7,0.3,1.2,0.6,1.6s0.7,0.6,1.2,0.6h0.9h0.7h0.1h8.3h0.7h4.8v-2.3l-1.3-8.8l0.5,0.2
		c0.1-0.3,0.1-0.6,0.2-1c0.1-0.4,0.1-0.8,0.1-1.2c-0.3-0.1-0.7-0.2-1.1-0.4c-0.5-0.2-0.7-0.6-0.7-1l-0.2-0.1
		c-0.2,0.4-0.3,0.8-0.4,1.3c-0.1,0.5-0.1,1-0.1,1.5l0.6,0.3l1.3,9.5h-3.7c-0.6-1-1.3-2.1-2.2-3.1c-0.9-0.9-1.9-1.8-3-2.7
		c-0.3-0.3-0.6-0.5-0.9-0.7c-0.5-0.4-0.7-0.6-0.7-0.8c0-0.1,0.4-0.4,1.1-0.7c0.6-0.2,1.4-0.5,2.3-0.8l2.3-0.9v-1.9l-3.2,1.2
		c-1.4,0.5-2.4,1.1-3,1.8c-0.6,0.7-0.9,1.7-0.9,3c0,0.2,0.2,0.5,0.7,0.9l1.3,1l0.4-0.3c1.1,0.7,2,1.3,2.7,1.9s1.3,1.3,1.8,2.1"/>
	<path class="st0" d="M62.3,23.5c-0.1-1.2-0.2-2.5-0.4-4c-0.2-1.5-0.4-2.6-0.5-3.5c-0.1,0.4-0.3,0.7-0.5,1.1
		c-0.2,0.4-0.3,0.8-0.5,1.1c0.1,0.9,0.2,1.9,0.3,2.8c0.1,1.6,0.3,3,0.4,4.3c0.1,1.4,0.2,2.5,0.2,3.3c0,0.1,0,0.3,0,0.6
		c-0.1,0.3-0.1,0.6-0.1,0.8l0.3,0.1c0.3-0.6,0.6-1.1,0.7-1.4c0.2-0.5,0.3-1.1,0.3-1.7C62.5,26.2,62.4,25.1,62.3,23.5z"/>
</g>
<rect class="st1" width="84.3" height="48.7"/>
</svg>
