<?xml version="1.0" encoding="utf-8"?>
<!-- Generator: Adobe Illustrator 22.0.1, SVG Export Plug-In . SVG Version: 6.00 Build 0)  -->
<svg version="1.1" id="Layer_1" xmlns="http://www.w3.org/2000/svg" xmlns:xlink="http://www.w3.org/1999/xlink" x="0px" y="0px"
	 viewBox="0 0 84.3 48.7" style="enable-background:new 0 0 84.3 48.7;" xml:space="preserve">
<style type="text/css">
	.st0{fill:#542C0B;}
	.st1{fill:none;}
</style>
<g>
	<polygon class="st0" points="45.4,18.7 43.5,17.7 42.7,19.3 44.5,20.3 	"/>
	<polygon class="st0" points="42.8,19.7 41,18.9 40.2,20.5 42,21.4 	"/>
	<path class="st0" d="M37.6,27.8c-0.6,0-1.1,0-1.7,0.2c-0.7,0.3-1.4,0.6-1.8,1.1c-0.5,0.6-0.8,1.4-0.8,2.3c0,0.3,0.1,0.5,0.3,0.6
		c0.2,0.1,0.5,0.2,1,0.2c0.1,0,0.4,0,0.8,0c0.4,0.1,0.7,0.1,0.9,0.1c0.3,0,0.5,0,0.6,0.1c0.1,0.1,0.2,0.2,0.2,0.3
		c0,0.3-0.5,0.6-1.5,0.8c-0.8,0.1-1.7,0.2-2.8,0.2c-1.6,0-2.9-0.2-3.8-0.7s-1.4-1.2-1.4-2.1c0-0.5,0.2-1.2,0.6-2
		c0.2-0.4,0.5-0.9,0.8-1.4l-0.4-0.2c-0.8,1.2-1.2,1.9-1.4,2.3c-0.5,1-0.7,1.9-0.7,2.8c0,1.1,0.5,1.9,1.5,2.5
		c0.9,0.5,2.2,0.8,3.8,0.8c2.3,0,4-0.3,5-1c0.9-0.7,1.4-1.7,1.4-3.1c0-0.3-0.1-0.5-0.3-0.6c-0.1-0.1-0.3-0.2-0.7-0.2
		c-0.6,0-1-0.1-1.2-0.1s-0.4,0-0.7,0c-0.7,0-1-0.2-1-0.4c0-0.2,0.3-0.3,0.9-0.4c0.6-0.1,1.4-0.1,2.6-0.1H39h0.7h0.1h4.8h0.8h12.2v-2
		h-0.7c-0.3,0-0.9-0.5-1.8-1.3c-1.1-1-2-1.7-2.5-2.1c-1-0.7-1.9-1.1-2.7-1.1c-0.7,0-1.4,0.2-1.9,0.7c-0.4,0.3-0.7,0.7-0.9,1.3
		c0.4-0.1,0.8-0.1,1.2-0.1c0.6,0,1.2,0.1,1.8,0.3c0.6,0.2,1.1,0.5,1.8,0.9c0.5,0.3,1.1,0.8,1.9,1.4h-8.4v-0.7c0-1.4-0.1-2.3-0.3-2.9
		c-0.1-0.4-0.5-0.9-1-1.6l-0.9,1.8c0.6,0.6,1,1.1,1.1,1.4c0.2,0.4,0.3,1.1,0.3,2h-4.9"/>
</g>
<rect class="st1" width="84.3" height="48.7"/>
</svg>
