<?xml version="1.0" encoding="utf-8"?>
<!-- Generator: Adobe Illustrator 22.0.1, SVG Export Plug-In . SVG Version: 6.00 Build 0)  -->
<svg version="1.1" id="Layer_1" xmlns="http://www.w3.org/2000/svg" xmlns:xlink="http://www.w3.org/1999/xlink" x="0px" y="0px"
	 viewBox="0 0 84.3 48.7" style="enable-background:new 0 0 84.3 48.7;" xml:space="preserve">
<style type="text/css">
	.st0{fill:#542C0B;}
	.st1{fill:none;}
</style>
<g>
	<polygon class="st0" points="39.1,17.2 37.3,16.2 36.5,17.8 38.3,18.8 	"/>
	<path class="st0" d="M51.7,21.8c-0.3-0.6-0.7-1.3-1.2-2.1c-0.6,0.1-1.1,0.4-1.7,0.8c-0.7,0.5-1.2,1-1.7,1.7
		c-0.3,0.5-0.7,0.8-1.1,1.1c-0.5,0.3-1.1,0.5-1.8,0.5h-1v-0.1c0-1-0.1-1.9-0.2-2.5c-0.1-0.7-0.4-1.3-0.8-1.9l-0.9,2.3
		c0.3,0.4,0.6,0.9,0.8,1.5c0.2,0.6,0.3,1.3,0.3,2.1c0,1.1-0.6,2-2,2.6c-1.1,0.5-2.4,0.8-3.8,0.8c-1.2,0-2.1-0.2-2.8-0.7
		s-1-1.2-1-2.1c0-0.5,0.1-1.1,0.3-1.7c0.1-0.6,0.5-1.4,1-2.5l-0.4-0.2c-0.5,0.9-0.7,1.5-0.9,1.9c-0.2,0.7-0.4,1.3-0.6,2
		c-0.1,0.7-0.2,1.4-0.2,2c0,1.2,0.4,2.1,1.3,2.7c0.8,0.5,1.9,0.8,3.4,0.8c2.3,0,4-0.5,5.1-1.3c1-0.8,1.5-2,1.5-3.7h1
		c0.9,0,1.5-0.1,2-0.3c0.4-0.2,0.9-0.6,1.3-1.1c0.5,0.5,1.2,0.8,1.9,1.1c0.6,0.2,1.2,0.3,1.7,0.3h1.1v-1.9
		C52.3,23.3,52.1,22.7,51.7,21.8z M51,23.7c-0.4,0-0.9-0.2-1.4-0.4c-0.5-0.2-0.8-0.5-1.1-0.8c0.2-0.4,0.4-0.6,0.6-0.8
		c0.2-0.2,0.5-0.4,0.9-0.5c0.3,0.4,0.5,0.7,0.7,1.1C50.9,22.7,51,23.2,51,23.7L51,23.7z"/>
</g>
<rect class="st1" width="84.3" height="48.7"/>
</svg>
