<?xml version="1.0" encoding="utf-8"?>
<!-- Generator: Adobe Illustrator 19.2.0, SVG Export Plug-In . SVG Version: 6.00 Build 0)  -->
<svg version="1.1" id="Layer_1" xmlns="http://www.w3.org/2000/svg" xmlns:xlink="http://www.w3.org/1999/xlink" x="0px" y="0px"
	 viewBox="0 0 326.7 55.8" style="enable-background:new 0 0 326.7 55.8;" xml:space="preserve">
<style type="text/css">
	.st0{fill:#BA0017;}
	.st1{fill:none;}
</style>
<g>
	<g>
		<path d="M107.9,28.3c0,0.2,0,0.5-0.1,0.7c0,0.3-0.1,0.4-0.1,0.5c-0.3-0.3-0.6-0.6-0.9-0.8c-0.4-0.2-0.7-0.3-1.1-0.3
			c-0.7,0-1.3,0.4-2.1,1.1c-0.7,0.7-1,1.3-1,1.7c0,0.1,0.1,0.2,0.2,0.3c0.2,0.1,0.4,0.1,0.8,0.1h0.9c0.5,0,0.9,0,1.2,0
			c0.3,0,0.6,0,0.9,0.1c0.4,0.1,0.5,0.3,0.5,0.8c0,1.9-0.8,3.3-2.5,4.3c-1.5,0.9-3.5,1.3-6.1,1.3c-1.3,0-2.4-0.3-3.1-0.8
			c-0.8-0.6-1.1-1.4-1.1-2.5c0-0.8,0.1-1.6,0.4-2.4c0.2-0.7,0.5-1.3,0.8-2c0,0,0.3-0.5,0.7-1.3l0.5,0.2c-0.5,0.8-0.8,1.6-1.1,2.4
			c-0.3,0.7-0.4,1.4-0.4,1.9c0,0.9,0.3,1.6,0.9,2.1s1.5,0.7,2.7,0.7c0.9,0,1.9-0.2,3.1-0.5c1-0.3,1.9-0.7,2.8-1.1
			c0.8-0.4,1.2-0.7,1.2-0.9c0-0.1,0-0.2-0.1-0.3s-0.2-0.1-0.5-0.1h-2.6c-0.3,0-0.6-0.1-0.9-0.3c-0.2-0.2-0.4-0.5-0.4-0.9
			c0-0.5,0.2-1.2,0.6-2c0.4-0.9,1-1.7,1.6-2.3c0.8-0.8,1.5-1.1,2.3-1.1c0.5,0,0.9,0.2,1.2,0.4C107.8,27.4,107.9,27.8,107.9,28.3z
			 M101.1,40.4l-0.9,1.6l-1.8-0.9l0.8-1.6L101.1,40.4z M103.7,39.4l-0.9,1.6l-1.8-1l0.8-1.6L103.7,39.4z"/>
		<path d="M115.1,36c0,0.4-0.2,0.7-0.6,1c-0.7,0.3-1.8,0.7-3.3,1.3c0-0.3,0.2-0.6,0.5-0.9C112.4,37.1,113.5,36.7,115.1,36z"/>
		<path d="M116.4,34h-5c-0.4,0-0.8-0.1-1.2-0.4s-0.5-0.5-0.5-0.9c0-0.3,0-0.5,0-0.8c0-0.2,0.1-0.5,0.2-0.8h0.3
			c0.1,0.3,0.2,0.5,0.4,0.7c0.2,0.1,0.4,0.2,0.7,0.2h4.3c0-1.3-0.2-2.4-0.6-3.2c-0.5-1-1.2-1.7-2.3-2l0.2-2.2c1.3,0.6,2.2,1.7,2.8,3
			c0.4,1.1,0.7,2.6,0.7,4.4V34z"/>
		<path d="M122.2,20.7c0,0.3-0.2,0.7-0.6,1c-0.7,0.3-1.8,0.7-3.3,1.3c0-0.3,0.2-0.6,0.5-0.9C119.5,21.8,120.6,21.3,122.2,20.7z"/>
		<path d="M122,34h-6.4v-2h5.6c0-0.9-0.1-1.6-0.3-2c-0.1-0.3-0.5-0.8-1.1-1.4l0.9-1.8c0.5,0.7,0.9,1.2,1,1.6
			c0.2,0.6,0.3,1.5,0.3,2.9V34z M119.4,37.2l-0.9,1.6l-1.8-0.9l0.8-1.6L119.4,37.2z M122,36.2l-0.9,1.6l-1.8-1l0.8-1.6L122,36.2z"/>
		<path d="M126.8,40.9c0,0.4-0.2,0.7-0.6,1c-0.7,0.3-1.8,0.7-3.3,1.3c0-0.3,0.2-0.6,0.5-0.9C124.1,42.1,125.2,41.6,126.8,40.9z"/>
		<path class="st0" d="M127.6,34h-6.4v-2h5.6c0-0.9-0.1-1.6-0.3-2c-0.1-0.3-0.5-0.8-1.1-1.4l0.9-1.8c0.5,0.7,0.9,1.2,1,1.6
			c0.2,0.6,0.3,1.5,0.3,2.9V34z M126.5,36.7l-0.9,1.6l-1.8-0.9l0.8-1.6L126.5,36.7z"/>
		<path d="M147.6,34h-2c-1.2,0-2,0-2.6,0.1s-0.9,0.2-0.9,0.4c0,0.2,0.3,0.4,1,0.4c0.3,0,0.5,0,0.7,0s0.6,0.1,1.2,0.1
			c0.4,0,0.6,0.1,0.7,0.2c0.2,0.1,0.3,0.3,0.3,0.6c0,1.4-0.5,2.4-1.4,3.1c-1,0.7-2.7,1-5,1c-1.6,0-2.9-0.3-3.8-0.8
			c-1-0.6-1.5-1.4-1.5-2.5c0-0.9,0.2-1.8,0.7-2.8c0.2-0.4,0.6-1.1,1.4-2.3l0.4,0.2c-0.3,0.5-0.6,1-0.8,1.4c-0.4,0.8-0.6,1.5-0.6,2
			c0,0.9,0.5,1.6,1.4,2.1s2.2,0.7,3.8,0.7c1.1,0,2-0.1,2.8-0.2c1-0.2,1.5-0.5,1.5-0.8c0-0.1-0.1-0.2-0.2-0.3
			c-0.1-0.1-0.3-0.1-0.6-0.1c-0.2,0-0.5,0-0.9-0.1c-0.4,0-0.7,0-0.8,0c-0.5,0-0.8-0.1-1-0.2s-0.3-0.3-0.3-0.6c0-0.9,0.3-1.7,0.8-2.3
			c0.4-0.5,1.1-0.8,1.8-1.1c0.6-0.2,1.2-0.3,1.8-0.3h2L147.6,34L147.6,34z M140.6,41.2l-1,1l-1.3-0.8l1-1.1L140.6,41.2z M142.9,41.2
			l-1,1l-1.3-0.8l1-1.1L142.9,41.2z"/>
		<path d="M159.8,34h-0.9c-0.5,0-0.9-0.1-1.2-0.2s-0.7-0.3-0.9-0.6c-0.4,0.3-0.7,0.5-0.9,0.6c-0.4,0.1-0.9,0.2-1.6,0.2h-0.8
			c-0.4,0-0.8-0.1-1.2-0.2c-0.3-0.1-0.6-0.3-0.9-0.5c-0.4,0.3-0.7,0.5-1,0.6s-0.8,0.2-1.5,0.2h-2.2v-2h2.2c0.6,0,1-0.1,1.3-0.2
			c0.4-0.2,0.7-0.5,0.7-1c0-0.2,0-0.4,0-0.7c0-0.2-0.1-0.5-0.1-0.7l0.5-0.7c0.2,0.7,0.4,1.2,0.5,1.5c0.2,0.5,0.5,1,0.8,1.2
			c0.3,0.3,0.8,0.5,1.2,0.5h0.8c0.6,0,1-0.1,1.2-0.3c0.3-0.2,0.4-0.5,0.4-0.9c0-0.2,0-0.5,0-0.7s-0.1-0.5-0.1-0.7l0.5-0.7l0.2,1.1
			c0.2,0.8,0.4,1.4,0.7,1.7c0.3,0.3,0.6,0.4,1,0.4c0.2,0,0.4-0.1,0.5-0.2s0.2-0.3,0.2-0.5c0-0.4-0.2-0.9-0.5-1.3
			c-0.1-0.1-0.2-0.3-0.6-0.7l0.7-1.2c0.3,0.5,0.5,0.9,0.6,1.2c0.2,0.5,0.2,1.2,0.2,2V34H159.8z"/>
		<path d="M163.9,14.4c0,0.5-0.2,0.9-0.5,1.2c-0.3,0.4-0.8,0.5-1.3,0.5c-0.4,0-0.7-0.1-0.9-0.3c-0.2-0.2-0.3-0.5-0.3-0.9
			c0-0.6,0.1-1.1,0.4-1.5c0.3-0.4,0.7-0.7,1.1-0.7c0.4,0,0.7,0.2,1,0.5S163.9,13.9,163.9,14.4z M163.2,14.7c0-0.2-0.1-0.4-0.4-0.7
			c-0.3-0.3-0.5-0.4-0.7-0.4s-0.4,0.1-0.5,0.3c-0.1,0.2-0.2,0.3-0.2,0.5c0,0.3,0.1,0.4,0.4,0.6c0.2,0.1,0.5,0.1,0.8,0.1
			c0.2,0,0.3,0,0.5-0.1C163.2,14.9,163.2,14.8,163.2,14.7z"/>
		<path d="M163.9,18.9c0,0.2-0.1,0.4-0.3,0.5s-0.4,0.2-0.7,0.3l-2.1,0.7c0-0.3,0.4-0.6,1.1-0.9c-0.2-0.1-0.4-0.2-0.5-0.3
			c-0.2-0.1-0.2-0.3-0.2-0.4c0-0.2,0.2-0.6,0.6-1c0.4-0.5,0.8-0.7,1.2-0.7c0.2,0,0.3,0.1,0.4,0.2c0.1,0.1,0.2,0.2,0.2,0.4
			c0,0.1,0,0.2-0.1,0.3c0,0.1-0.1,0.2-0.2,0.4c-0.2-0.2-0.5-0.3-0.8-0.3c-0.2,0-0.3,0-0.5,0.1s-0.2,0.1-0.2,0.2s0.2,0.3,0.5,0.5
			s0.6,0.3,0.9,0.3c0.2,0,0.3,0,0.4,0C163.5,19,163.7,19,163.9,18.9z M163.6,31.1c0,0.6-0.1,1.2-0.3,1.7c-0.1,0.3-0.4,0.8-0.7,1.4
			l-0.2-0.1c0-0.2,0-0.5,0.1-0.8c0-0.3,0-0.5,0-0.6c0-0.8-0.1-1.9-0.2-3.3c-0.1-1.4-0.3-2.9-0.4-4.4c-0.1-0.9-0.2-1.9-0.3-2.8
			c0.2-0.3,0.3-0.7,0.5-1.1s0.4-0.7,0.5-1.1c0.1,0.9,0.3,2,0.5,3.5s0.3,2.8,0.4,4C163.5,29.2,163.6,30.4,163.6,31.1z"/>
		<path d="M172.1,20.7c0,0.3-0.2,0.7-0.6,1c-0.7,0.3-1.8,0.7-3.3,1.3c0-0.3,0.2-0.6,0.5-0.9C169.3,21.8,170.4,21.3,172.1,20.7z"/>
		<path d="M175.8,34c0,0.8-0.4,1.7-1.1,2.6c-0.6,0.8-1.4,1.4-2.3,2c-0.9,0.5-1.6,0.8-2.1,0.8s-1.1-0.1-1.7-0.2
			c-0.5-0.1-1-0.3-1.6-0.5c-0.5-0.2-1.1-0.4-1.6-0.6l0.2-0.4c0.5,0.1,1,0.2,1.5,0.3c0.5,0.1,1,0.2,1.5,0.2c1,0,2-0.3,3-0.9
			c0.9-0.6,1.7-1.3,2.4-2.1c0.7-0.9,1-1.6,1-2.3c0-0.6-0.2-1.2-0.5-1.9c-0.3-0.5-0.7-1.1-1.2-1.6l0.6-1.8c0.6,0.6,1.1,1.1,1.4,1.7
			c0.3,0.6,0.5,1.4,0.5,2.2L175.8,34L175.8,34z"/>
		<path d="M189.7,19.2c0,0.1,0,0.3,0,0.4s0,0.3-0.1,0.4l-0.9-0.6c-0.4,0.4-0.6,0.7-0.8,0.8c-0.6,0.5-1,0.8-1.4,0.8h-0.8
			c0.4-0.2,0.9-0.5,1.4-0.9s0.8-0.7,1.1-1c-0.2-0.1-0.4-0.3-0.5-0.4c-0.1-0.2-0.2-0.4-0.2-0.6c0-0.5,0.1-0.9,0.4-1.3
			s0.6-0.6,0.9-0.6c0.2,0,0.4,0.1,0.5,0.3c0.2,0.2,0.2,0.5,0.2,0.8c0,0.1,0,0.3-0.1,0.4c0,0.2-0.1,0.4-0.3,0.8
			c0.1,0.1,0.2,0.2,0.4,0.3C189.7,19,189.7,19.1,189.7,19.2z M188.9,18c0-0.2-0.1-0.4-0.2-0.6c-0.1-0.2-0.3-0.3-0.4-0.3
			c-0.1,0-0.1,0-0.2,0.1c0,0.1-0.1,0.1-0.1,0.2c0,0.2,0.1,0.3,0.3,0.5l0.5,0.4C188.9,18.1,188.9,18,188.9,18z"/>
		<path d="M198.6,34h-10.7c-1.4,0-2.6-0.3-3.4-0.8c-1.1-0.6-1.6-1.6-1.6-3c0-0.7,0.2-1.4,0.5-2.1c0.1-0.3,0.4-0.8,0.8-1.5l0.3,0.2
			c-0.2,0.3-0.3,0.7-0.5,1c-0.2,0.5-0.3,1-0.3,1.4c0,0.9,0.5,1.6,1.4,2.1c0.8,0.4,1.9,0.7,3.2,0.7h9.5v-0.3c0-0.8-0.1-1.5-0.3-2
			s-0.5-1-1-1.4l0.9-1.8c0.3,0.4,0.5,0.7,0.6,0.8c0.5,0.8,0.8,2.1,0.8,3.7v3H198.6z M190.7,24.8l-0.9,1.6l-1.8-0.9l0.8-1.6
			L190.7,24.8z M193.3,23.8l-0.9,1.6l-1.8-1l0.8-1.6L193.3,23.8z"/>
		<path d="M205.8,21.3c0,0.5-0.2,0.9-0.5,1.2c-0.3,0.4-0.8,0.5-1.3,0.5c-0.4,0-0.7-0.1-0.9-0.3c-0.2-0.2-0.3-0.5-0.3-0.9
			c0-0.6,0.1-1.1,0.4-1.5c0.3-0.4,0.7-0.7,1.1-0.7c0.4,0,0.7,0.2,1,0.5S205.8,20.9,205.8,21.3z M205.1,21.6c0-0.2-0.1-0.4-0.4-0.7
			c-0.3-0.3-0.5-0.4-0.7-0.4s-0.4,0.1-0.5,0.3c-0.1,0.2-0.2,0.3-0.2,0.5c0,0.3,0.1,0.4,0.4,0.6c0.2,0.1,0.5,0.1,0.8,0.1
			c0.2,0,0.3,0,0.5-0.1C205.1,21.9,205.1,21.8,205.1,21.6z"/>
		<path d="M210.8,34h-13v-2h9.2c-0.8-0.6-1.4-1.1-1.9-1.4c-0.7-0.4-1.2-0.7-1.8-0.9c-0.6-0.2-1.2-0.3-1.8-0.3c-0.4,0-0.8,0-1.2,0.1
			c0.2-0.6,0.5-1,0.9-1.3c0.5-0.5,1.2-0.7,1.9-0.7c0.8,0,1.7,0.4,2.7,1.1c0.5,0.4,1.4,1.1,2.5,2.1c0.9,0.8,1.5,1.3,1.8,1.3h0.7
			L210.8,34L210.8,34z"/>
		<path d="M217.7,20.7c0,0.3-0.2,0.7-0.6,1c-0.7,0.3-1.8,0.7-3.3,1.3c0-0.3,0.2-0.6,0.5-0.9C215,21.8,216.1,21.3,217.7,20.7z"/>
		<path d="M223,34h-0.9c-0.5,0-0.9-0.1-1.2-0.2s-0.7-0.3-0.9-0.6c-0.4,0.3-0.7,0.5-0.9,0.6c-0.4,0.1-0.9,0.2-1.6,0.2h-0.7
			c-0.4,0-0.8-0.1-1.2-0.2c-0.3-0.1-0.6-0.3-0.9-0.5c-0.4,0.3-0.7,0.5-1,0.6s-0.8,0.2-1.5,0.2H210v-2h2.2c0.6,0,1-0.1,1.3-0.2
			c0.4-0.2,0.7-0.5,0.7-1c0-0.2,0-0.4,0-0.7c0-0.2-0.1-0.5-0.1-0.7l0.5-0.7c0.2,0.7,0.4,1.2,0.5,1.5c0.2,0.5,0.5,1,0.8,1.2
			c0.3,0.3,0.8,0.5,1.2,0.5h0.8c0.6,0,1-0.1,1.2-0.3c0.3-0.2,0.4-0.5,0.4-0.9c0-0.2,0-0.5,0-0.7s-0.1-0.5-0.1-0.7l0.5-0.7l0.2,1.1
			c0.2,0.8,0.4,1.4,0.7,1.7c0.3,0.3,0.6,0.4,1,0.4c0.2,0,0.4-0.1,0.5-0.2s0.2-0.3,0.2-0.5c0-0.4-0.2-0.9-0.5-1.3
			c-0.1-0.1-0.2-0.3-0.6-0.7l0.7-1.2c0.3,0.5,0.5,0.9,0.6,1.2c0.2,0.5,0.2,1.2,0.2,2L223,34L223,34z"/>
		<path d="M229.4,20.7c0,0.3-0.2,0.7-0.6,1c-0.7,0.3-1.8,0.7-3.3,1.3c0-0.3,0.2-0.6,0.5-0.9C226.6,21.8,227.8,21.3,229.4,20.7z"/>
		<path d="M232,34h-1.2c-0.5,0-1.1-0.1-1.7-0.3c-0.7-0.3-1.4-0.6-1.9-1.1c-0.4,0.5-0.9,0.9-1.3,1.1c-0.5,0.2-1.1,0.3-2,0.3h-1.8v-2
			h1.7c0.7,0,1.3-0.2,1.8-0.5c0.4-0.3,0.8-0.6,1.1-1.1c0.5-0.7,1-1.2,1.7-1.7c0.6-0.4,1.1-0.7,1.7-0.8c0.5,0.8,0.9,1.5,1.2,2.1
			c0.4,0.9,0.6,1.5,0.6,2.1V34H232z M230.7,31.8c-0.1-0.4-0.2-0.9-0.4-1.3s-0.4-0.7-0.7-1.1c-0.4,0.1-0.7,0.3-0.9,0.5
			s-0.4,0.4-0.6,0.8c0.3,0.3,0.6,0.6,1.1,0.8c0.5,0.2,1,0.4,1.4,0.4L230.7,31.8z"/>
	</g>
	<rect class="st1" width="326.7" height="55.8"/>
</g>
</svg>
