<?xml version="1.0" encoding="utf-8"?>
<!-- Generator: Adobe Illustrator 19.2.0, SVG Export Plug-In . SVG Version: 6.00 Build 0)  -->
<svg version="1.1" id="Layer_1" xmlns="http://www.w3.org/2000/svg" xmlns:xlink="http://www.w3.org/1999/xlink" x="0px" y="0px"
	 viewBox="0 0 326.7 55.8" style="enable-background:new 0 0 326.7 55.8;" xml:space="preserve">
<style type="text/css">
	.st0{fill:#BA0017;}
	.st1{fill:none;}
</style>
<g>
	<g>
		<path d="M83.6,40.9c0,0.4-0.2,0.7-0.6,1c-0.7,0.3-1.8,0.7-3.3,1.3c0-0.3,0.2-0.6,0.5-0.9C80.8,42,81.9,41.6,83.6,40.9z"/>
		<path d="M93.7,34h-0.9c-0.4,0-0.8-0.1-1.2-0.2c-0.3-0.1-0.7-0.3-1-0.6c-0.3,0.3-0.6,0.5-0.8,0.6c-0.4,0.1-0.9,0.2-1.5,0.2h-1.4
			c0,0.7-0.2,1.4-0.5,2c-0.4,0.8-1.1,1.5-2,2c-1.1,0.6-2.5,0.9-4.1,0.9c-1.5,0-2.6-0.3-3.4-0.8c-0.9-0.6-1.3-1.5-1.3-2.7
			c0-0.6,0.1-1.3,0.2-2c0.2-0.7,0.4-1.3,0.6-2c0.2-0.4,0.4-1,0.9-1.9l0.4,0.2c-0.5,1.1-0.9,1.9-1,2.5c-0.2,0.6-0.3,1.2-0.3,1.7
			c0,0.9,0.3,1.6,1,2.1c0.7,0.5,1.6,0.7,2.8,0.7c1.4,0,2.7-0.3,3.9-0.8c1.4-0.6,2.1-1.5,2.1-2.6c0-0.7-0.1-1.5-0.4-2.1
			c-0.2-0.5-0.5-1-0.9-1.5l0.9-2.3c0.4,0.6,0.6,1.2,0.8,1.6c0.2,0.7,0.3,1.6,0.3,2.7h1.4c0.7,0,1.2-0.1,1.5-0.3
			c0.3-0.2,0.4-0.5,0.4-0.9c0-0.2,0-0.4,0-0.7c0-0.2-0.1-0.5-0.1-0.7l0.4-0.7l0.2,1.1c0.2,0.7,0.4,1.3,0.7,1.6
			c0.3,0.4,0.7,0.5,1.3,0.5c0.2,0,0.3-0.1,0.4-0.2s0.1-0.2,0.1-0.4c0-0.4-0.1-0.8-0.3-1.2c-0.2-0.3-0.4-0.6-0.7-0.9l0.8-1.2
			c0.4,0.6,0.6,1,0.6,1.2c0.2,0.5,0.2,1.2,0.2,2.1V34z"/>
		<path d="M99.8,21.3c0,0.5-0.2,0.9-0.5,1.2c-0.3,0.4-0.8,0.6-1.3,0.6c-0.4,0-0.7-0.1-0.9-0.3c-0.2-0.2-0.3-0.5-0.3-0.9
			c0-0.6,0.1-1.1,0.4-1.5s0.7-0.7,1.1-0.7c0.4,0,0.7,0.2,1,0.5S99.8,20.9,99.8,21.3z M99.1,21.6c0-0.2-0.1-0.4-0.4-0.7
			c-0.3-0.3-0.5-0.4-0.7-0.4c-0.2,0-0.4,0.1-0.5,0.3c-0.1,0.2-0.2,0.3-0.2,0.5c0,0.3,0.1,0.4,0.4,0.5c0.2,0.1,0.5,0.1,0.8,0.1
			c0.2,0,0.3,0,0.5-0.1C99.1,21.8,99.1,21.7,99.1,21.6z"/>
		<path d="M102.8,34h-1.2c-0.5,0-1.1-0.1-1.7-0.3c-0.7-0.3-1.4-0.6-1.9-1.1c-0.4,0.5-0.9,0.9-1.3,1.1s-1.1,0.3-2,0.3h-1.8v-2h1.7
			c0.7,0,1.3-0.2,1.8-0.5c0.4-0.3,0.8-0.6,1.1-1.1c0.5-0.7,1-1.2,1.7-1.7c0.6-0.4,1.1-0.7,1.7-0.8c0.5,0.8,0.9,1.5,1.2,2.1
			c0.4,0.9,0.6,1.5,0.6,2.1V34z M101.5,31.7c-0.1-0.4-0.2-0.9-0.4-1.3c-0.2-0.4-0.4-0.7-0.7-1.1c-0.4,0.1-0.7,0.3-0.9,0.5
			c-0.2,0.2-0.4,0.4-0.6,0.8c0.3,0.3,0.6,0.6,1.1,0.8c0.5,0.2,1,0.4,1.4,0.4L101.5,31.7z"/>
		<path d="M108.6,17.4c0,0.6-0.1,1-0.3,1.4c-0.2,0.4-0.5,0.6-0.9,0.6c-0.1,0-0.3,0-0.4-0.1c-0.1,0-0.2-0.1-0.4-0.2
			c-0.1,0.3-0.3,0.5-0.4,0.6c-0.2,0.2-0.5,0.4-0.8,0.4c-0.3,0-0.5-0.1-0.7-0.3c-0.2-0.2-0.2-0.5-0.2-0.9c0-0.2,0-0.4,0.1-0.6
			c0-0.1,0.1-0.3,0.2-0.6l0.2-0.1c0,0.1,0,0.2,0,0.3s0,0.2,0,0.3c0,0.2,0,0.3,0.1,0.4c0.1,0.1,0.2,0.2,0.3,0.2
			c0.3,0,0.6-0.2,0.8-0.6c0.1-0.2,0.2-0.6,0.3-1.1l0.2-0.1c0.1,0.4,0.1,0.6,0.1,0.7c0.1,0.2,0.2,0.3,0.4,0.3c0.3,0,0.5-0.2,0.7-0.6
			c0.1-0.3,0.2-0.6,0.2-1l0.2-0.1c0,0.1,0.1,0.3,0.1,0.5S108.6,17.3,108.6,17.4z M108.4,14.7c0,0.3-0.2,0.7-0.6,1
			c-0.7,0.3-1.8,0.7-3.3,1.3c0-0.3,0.2-0.6,0.5-0.9C105.7,15.8,106.8,15.4,108.4,14.7z"/>
		<path d="M115,34h-0.9c-0.5,0-0.9-0.1-1.2-0.2s-0.7-0.3-0.9-0.6c-0.4,0.3-0.7,0.5-0.9,0.5c-0.4,0.1-0.9,0.2-1.6,0.2h-0.7
			c-0.4,0-0.8-0.1-1.2-0.2c-0.3-0.1-0.6-0.3-0.9-0.5c-0.4,0.3-0.7,0.5-1,0.6c-0.3,0.1-0.8,0.2-1.5,0.2H102v-2h2.2
			c0.6,0,1-0.1,1.3-0.2c0.4-0.2,0.7-0.5,0.7-1c0-0.2,0-0.4,0-0.7c0-0.2-0.1-0.5-0.1-0.7l0.5-0.7c0.2,0.7,0.4,1.2,0.5,1.5
			c0.2,0.5,0.5,1,0.8,1.2c0.3,0.3,0.8,0.5,1.2,0.5h0.8c0.6,0,1-0.1,1.2-0.3c0.3-0.2,0.4-0.5,0.4-0.9c0-0.2,0-0.5,0-0.7
			c0-0.2-0.1-0.5-0.1-0.7l0.5-0.7l0.2,1.1c0.2,0.8,0.4,1.4,0.7,1.7c0.3,0.3,0.6,0.4,1,0.4c0.2,0,0.4-0.1,0.5-0.2
			c0.1-0.1,0.2-0.3,0.2-0.5c0-0.4-0.2-0.9-0.5-1.3c-0.1-0.1-0.2-0.3-0.6-0.7l0.7-1.2c0.3,0.5,0.5,0.9,0.6,1.2c0.2,0.5,0.2,1.2,0.2,2
			V34z M111.4,24.8l-0.9,1.6l-1.8-0.9l0.8-1.6L111.4,24.8z M111.8,21.8l-0.9,1.6l-1.8-1l0.8-1.6L111.8,21.8z M114,23.8l-0.9,1.6
			l-1.8-1l0.8-1.6L114,23.8z"/>
		<path d="M119.7,34h-5.5v-2h4.4l-1.3-9.5l-0.6-0.3c0-0.5,0-1,0.1-1.5c0.1-0.5,0.2-0.9,0.4-1.3l0.2,0.1c0,0.4,0.2,0.8,0.7,1
			c0.4,0.2,0.8,0.3,1.1,0.4c0,0.4,0,0.8-0.1,1.2c-0.1,0.4-0.1,0.7-0.2,1l-0.5-0.2l1.3,8.8V34z"/>
		<path d="M123.5,31.1c0,0.6-0.1,1.2-0.3,1.7c-0.1,0.3-0.4,0.8-0.7,1.4l-0.2-0.1c0-0.2,0-0.5,0.1-0.8c0-0.3,0-0.5,0-0.6
			c0-0.8-0.1-1.9-0.2-3.3c-0.1-1.4-0.3-2.9-0.4-4.4c-0.1-0.9-0.2-1.9-0.3-2.8c0.2-0.3,0.3-0.7,0.5-1.1c0.2-0.4,0.4-0.7,0.5-1.1
			c0.1,0.9,0.3,2,0.5,3.5s0.3,2.8,0.4,4C123.5,29.2,123.5,30.3,123.5,31.1z"/>
		<path d="M138.5,43.2c0,0.4-0.2,0.7-0.6,1c-0.7,0.3-1.8,0.7-3.3,1.3c0-0.3,0.2-0.6,0.5-0.9C135.8,44.3,136.9,43.8,138.5,43.2z"/>
		<path d="M142.8,40.2l-2.8,1.9c-1.6,0-2.8-0.1-3.6-0.2c-1.5-0.2-2.6-0.7-3.4-1.3c-1-0.8-1.5-2-1.5-3.5c0-0.9,0.1-1.8,0.4-2.5
			c0.2-0.6,0.6-1.2,1-1.7c0.2-0.3,0.6-0.6,1.1-1.2c-0.7-0.4-1.2-0.7-1.5-0.9c-0.6-0.6-0.9-1.3-0.9-2.2c0-0.8,0.3-1.6,1-2.3
			c0.8-0.9,1.7-1.3,2.8-1.3c0.5,0,1,0.1,1.5,0.4c0.4,0.2,0.8,0.5,1.4,0.9c-0.7,0-1.5,0-2.3,0.1c-1,0.1-1.8,0.3-2.4,0.5
			c-0.7,0.3-1.1,0.7-1.1,1.1c0,0.5,0.4,0.9,1.3,1.3c0.7,0.3,1.5,0.6,2.5,0.7c0.7-0.4,1.5-0.7,2.2-1c0.8-0.3,1.6-0.6,2.5-0.8
			l-0.5,1.8c-1.6,0.6-2.7,1.1-3.4,1.4c-1.4,0.7-2.5,1.3-3.2,2c-1,0.9-1.4,1.8-1.4,2.8c0,1.1,0.4,1.9,1.2,2.5c0.7,0.5,1.7,0.9,3,1.1
			c1.1,0.2,2.4,0.3,4.1,0.3c0.4,0,0.7,0,1.1,0S142.4,40.2,142.8,40.2L142.8,40.2z"/>
		<path d="M153.3,33.3c0,1.2-0.5,2.5-1.4,3.7c-1,1.4-2.2,2-3.5,2c-0.5,0-1-0.1-1.5-0.2c-0.4-0.1-0.9-0.2-1.5-0.4
			c-0.5-0.2-1-0.3-1.5-0.5l0.2-0.4c0.4,0.1,0.9,0.2,1.3,0.3c0.5,0.1,0.9,0.2,1.2,0.2c0.9,0,1.8-0.2,2.6-0.7c0.6-0.4,1.3-0.9,1.9-1.6
			c0.3-0.4,0.8-0.9,1.4-1.7c-1,0-1.8-0.2-2.3-0.5c-0.6-0.4-0.9-1-0.9-1.8c0-0.8,0.2-1.5,0.5-2.1c0.4-0.8,1-1.1,1.6-1.1
			c0.7,0,1.1,0.4,1.4,1.1c0.2,0.6,0.3,1.4,0.3,2.5V33.3z M152.6,32.1c-0.2-0.7-0.4-1.2-0.6-1.5c-0.2-0.2-0.4-0.4-0.7-0.4
			c-0.2,0-0.4,0.1-0.5,0.2s-0.2,0.3-0.2,0.5c0,0.4,0.2,0.6,0.5,0.8C151.3,32,151.9,32.1,152.6,32.1z"/>
		<path d="M158.1,34h-5.5v-2h4.4l-1.3-9.5l-0.6-0.3c0-0.5,0-1,0.1-1.5c0.1-0.5,0.2-0.9,0.4-1.3l0.2,0.1c0,0.4,0.2,0.8,0.7,1
			c0.4,0.2,0.8,0.3,1.1,0.4c0,0.4,0,0.8-0.1,1.2c-0.1,0.4-0.1,0.7-0.2,1l-0.5-0.2l1.3,8.8V34z"/>
		<path d="M164,10.5c0,0.1,0,0.3,0,0.4s0,0.3-0.1,0.4l-0.9-0.6c-0.4,0.4-0.6,0.7-0.8,0.8c-0.6,0.5-1,0.8-1.4,0.8H160
			c0.4-0.2,0.9-0.5,1.4-0.9c0.5-0.4,0.8-0.7,1.1-1c-0.2-0.1-0.4-0.3-0.5-0.4c-0.1-0.2-0.2-0.4-0.2-0.6c0-0.5,0.1-0.9,0.4-1.3
			c0.3-0.4,0.6-0.6,0.9-0.6c0.2,0,0.4,0.1,0.5,0.3c0.2,0.2,0.2,0.5,0.2,0.8c0,0.1,0,0.3-0.1,0.4s-0.1,0.4-0.3,0.8
			c0.1,0.1,0.2,0.2,0.4,0.3C164,10.3,164,10.4,164,10.5z M163.2,9.3c0-0.2-0.1-0.4-0.2-0.6c-0.1-0.2-0.3-0.3-0.4-0.3
			c-0.1,0-0.1,0-0.2,0.1c0,0.1-0.1,0.1-0.1,0.2c0,0.2,0.1,0.3,0.3,0.5l0.5,0.4C163.2,9.4,163.2,9.3,163.2,9.3z"/>
		<path d="M164.5,15.8c0,0.1,0,0.3,0,0.4s0,0.3-0.1,0.4l-0.9-0.6c-0.4,0.4-0.6,0.7-0.8,0.8c-0.6,0.5-1,0.8-1.4,0.8h-0.8
			c0.4-0.2,0.9-0.5,1.4-0.9c0.5-0.4,0.8-0.7,1.1-1c-0.2-0.1-0.4-0.3-0.5-0.4c-0.1-0.2-0.2-0.4-0.2-0.6c0-0.5,0.1-0.9,0.4-1.3
			c0.3-0.4,0.6-0.6,0.9-0.6c0.2,0,0.4,0.1,0.5,0.3c0.2,0.2,0.2,0.5,0.2,0.8c0,0.1,0,0.3-0.1,0.4s-0.1,0.4-0.3,0.8
			c0.1,0.1,0.2,0.2,0.4,0.3C164.5,15.6,164.5,15.7,164.5,15.8z M163.7,14.6c0-0.2-0.1-0.4-0.2-0.6c-0.1-0.2-0.3-0.3-0.4-0.3
			c-0.1,0-0.1,0-0.2,0.1c0,0.1-0.1,0.1-0.1,0.2c0,0.2,0.1,0.3,0.3,0.5l0.5,0.4C163.7,14.7,163.7,14.6,163.7,14.6z"/>
		<path d="M171.5,34h-14.2v-2l1.7,0c0.5,0,1-0.1,1.4-0.2c0.5-0.2,1.1-0.4,1.7-0.8c0.1-0.3,0.2-0.7,0.3-1.1c0.1-0.4,0.1-0.7,0.1-1.1
			c0-0.8-0.1-1.7-0.2-2.7c-0.1-0.7-0.3-1.5-0.5-2.5c-0.1-0.5-0.3-1.1-0.5-1.8l-0.7-0.3c0.1-0.4,0.1-0.9,0.2-1.3
			c0.1-0.4,0.2-0.8,0.4-1.2c0.1,0.4,0.4,0.6,0.8,0.8c0.4,0.2,0.8,0.3,1.3,0.3c-0.1,0.8-0.1,1.3-0.2,1.5c0,0.2-0.1,0.5-0.2,0.8
			c-0.1,0-0.2,0-0.4-0.1l-0.1,0c0.3,0.9,0.5,1.8,0.6,2.7c0.2,0.9,0.3,1.7,0.3,2.3c0,0.5-0.1,1.1-0.2,1.8c0,0.2-0.1,0.6-0.2,1.1
			c1.3-0.8,2.1-1.2,2.5-1.4c1.1-0.5,2.1-0.8,2.9-0.8c1,0,1.8,0.3,2.3,0.9c0.5,0.5,0.7,1.3,0.7,2.3V34z M169.7,31.1
			c0-0.4-0.2-0.7-0.6-0.9c-0.4-0.2-1-0.3-1.7-0.3c-0.5,0-1.2,0.1-1.9,0.4c-0.6,0.2-1.2,0.5-1.9,0.8c-0.5,0.3-1,0.5-1.5,0.9h4.9
			C168.8,32,169.7,31.7,169.7,31.1z"/>
		<path class="st0" d="M190,34c0,1.7-0.5,2.9-1.5,3.7c-1.1,0.8-2.8,1.3-5.1,1.3c-1.5,0-2.6-0.3-3.4-0.8c-0.9-0.6-1.3-1.5-1.3-2.7
			c0-0.6,0.1-1.3,0.2-2c0.2-0.7,0.4-1.3,0.6-2c0.2-0.4,0.4-1,0.9-1.9l0.4,0.2c-0.5,1.1-0.9,1.9-1,2.5c-0.2,0.6-0.3,1.2-0.3,1.7
			c0,0.9,0.3,1.6,1,2.1c0.7,0.5,1.6,0.7,2.8,0.7c1.4,0,2.7-0.3,3.8-0.8c1.4-0.6,2-1.5,2-2.6c0-0.8-0.1-1.5-0.3-2.1
			c-0.2-0.6-0.5-1.1-0.8-1.5l0.9-2.3c0.4,0.6,0.7,1.2,0.8,1.9c0.1,0.6,0.2,1.5,0.2,2.5V34z M185.8,25.3l-0.8,1.6l-1.8-1l0.8-1.6
			L185.8,25.3z"/>
		<path class="st0" d="M199,34h-1.2c-0.5,0-1.1-0.1-1.7-0.3c-0.7-0.3-1.4-0.6-1.9-1.1c-0.4,0.5-0.9,0.9-1.3,1.1s-1.1,0.3-2,0.3h-1.8
			v-2h1.7c0.7,0,1.3-0.2,1.8-0.5c0.4-0.3,0.8-0.6,1.1-1.1c0.5-0.7,1-1.2,1.7-1.7c0.6-0.4,1.1-0.7,1.7-0.8c0.5,0.8,0.9,1.5,1.2,2.1
			c0.4,0.9,0.6,1.5,0.6,2.1V34z M197.7,31.7c-0.1-0.4-0.2-0.9-0.4-1.3c-0.2-0.4-0.4-0.7-0.7-1.1c-0.4,0.1-0.7,0.3-0.9,0.5
			c-0.2,0.2-0.4,0.4-0.6,0.8c0.3,0.3,0.6,0.6,1.1,0.8c0.5,0.2,1,0.4,1.4,0.4L197.7,31.7z"/>
		<path d="M210.7,23.7c0,0.1,0,0.3,0,0.4s0,0.3-0.1,0.4l-0.9-0.6c-0.4,0.4-0.6,0.7-0.8,0.8c-0.6,0.5-1,0.8-1.4,0.8h-0.8
			c0.4-0.2,0.9-0.5,1.4-0.9c0.5-0.4,0.8-0.7,1.1-1c-0.2-0.1-0.4-0.3-0.5-0.4c-0.1-0.2-0.2-0.4-0.2-0.6c0-0.5,0.1-0.9,0.4-1.3
			s0.6-0.6,0.9-0.6c0.2,0,0.4,0.1,0.5,0.3c0.2,0.2,0.2,0.5,0.2,0.8c0,0.1,0,0.3-0.1,0.4c0,0.2-0.1,0.4-0.3,0.8
			c0.1,0.1,0.2,0.2,0.4,0.3C210.7,23.4,210.7,23.5,210.7,23.7z M209.9,22.4c0-0.2-0.1-0.4-0.2-0.6c-0.1-0.2-0.3-0.3-0.4-0.3
			c-0.1,0-0.1,0-0.2,0.1c0,0.1-0.1,0.1-0.1,0.2c0,0.2,0.1,0.3,0.3,0.5l0.5,0.4C209.9,22.6,209.9,22.5,209.9,22.4z"/>
		<path d="M213.2,34h-1.3c-1.2,0-2.3,0.1-3.3,0.3c-1.2,0.3-1.8,0.7-1.8,1.3c0,0.5,0.1,1,0.3,1.6c0.2,0.6,0.3,1.1,0.5,1.7
			c0.2,0.6,0.3,1.1,0.3,1.6c0,0.3,0,0.5-0.1,0.8s-0.1,0.5-0.2,0.9c-0.2-0.6-0.4-1.2-0.6-1.9c-0.4-1.2-0.6-2.1-0.8-2.7
			c-0.3-1-0.4-1.5-0.4-1.7c0-1,0.2-1.7,0.6-2.2c0.4-0.5,1-0.9,1.8-1.1c0.7-0.2,1.7-0.4,3-0.5c-0.5-0.5-0.8-0.8-0.9-0.9
			c-0.4-0.3-0.8-0.4-1.2-0.4c-0.2,0-0.5,0.1-0.7,0.2c-0.2,0.1-0.4,0.3-0.7,0.6l-0.5-0.3c0.2-0.6,0.5-1,0.8-1.3
			c0.5-0.6,1-0.8,1.7-0.8c0.5,0,0.9,0.2,1.4,0.5c0.4,0.3,0.8,0.7,1.2,1.2c0.2,0.2,0.5,0.7,0.9,1.3V34z"/>
		<path d="M223.1,33.3c0,1.2-0.5,2.5-1.4,3.7c-1,1.4-2.2,2-3.5,2c-0.5,0-1-0.1-1.5-0.2c-0.4-0.1-0.9-0.2-1.5-0.4
			c-0.5-0.2-1-0.3-1.5-0.5l0.2-0.4c0.4,0.1,0.9,0.2,1.3,0.3c0.5,0.1,0.9,0.2,1.2,0.2c0.9,0,1.8-0.2,2.6-0.7c0.6-0.4,1.3-0.9,1.9-1.6
			c0.3-0.4,0.8-0.9,1.4-1.7c-1,0-1.8-0.2-2.3-0.5c-0.6-0.4-0.9-1-0.9-1.8c0-0.8,0.2-1.5,0.5-2.1c0.4-0.8,1-1.1,1.6-1.1
			c0.7,0,1.1,0.4,1.4,1.1c0.2,0.6,0.3,1.4,0.3,2.5V33.3z M222.4,32.1c-0.2-0.7-0.4-1.2-0.6-1.5c-0.2-0.2-0.4-0.4-0.7-0.4
			c-0.2,0-0.4,0.1-0.5,0.2s-0.2,0.3-0.2,0.5c0,0.4,0.2,0.6,0.5,0.8C221.1,32,221.7,32.1,222.4,32.1z"/>
		<path d="M230,20.8c0,0.6-0.1,1-0.3,1.4c-0.2,0.4-0.5,0.6-0.9,0.6c-0.1,0-0.3,0-0.4-0.1c-0.1,0-0.2-0.1-0.4-0.2
			c-0.1,0.3-0.3,0.5-0.4,0.6c-0.2,0.2-0.5,0.4-0.8,0.4c-0.3,0-0.5-0.1-0.7-0.3c-0.2-0.2-0.2-0.5-0.2-0.9c0-0.2,0-0.4,0.1-0.6
			c0-0.1,0.1-0.3,0.2-0.6l0.2-0.1c0,0.1,0,0.2,0,0.3s0,0.2,0,0.3c0,0.2,0,0.3,0.1,0.4c0.1,0.1,0.2,0.2,0.3,0.2
			c0.3,0,0.6-0.2,0.8-0.6c0.1-0.2,0.2-0.6,0.3-1.1l0.2-0.1c0.1,0.4,0.1,0.6,0.1,0.7c0.1,0.2,0.2,0.3,0.4,0.3c0.3,0,0.5-0.2,0.7-0.6
			c0.1-0.3,0.2-0.6,0.2-1l0.2-0.1c0,0.1,0.1,0.3,0.1,0.5S230,20.7,230,20.8z M229.9,18.1c0,0.3-0.2,0.7-0.6,1
			c-0.7,0.3-1.8,0.7-3.3,1.3c0-0.3,0.2-0.6,0.5-0.9C227.2,19.2,228.3,18.7,229.9,18.1z"/>
		<path d="M242.6,34h-13.5c-0.4,0-0.8-0.1-1.2-0.2c-0.3-0.1-0.6-0.3-1-0.5c-0.3,0.3-0.6,0.5-0.9,0.6c-0.3,0.1-0.8,0.2-1.5,0.2h-2.2
			v-2h2.2c0.6,0,1-0.1,1.3-0.2c0.4-0.2,0.7-0.5,0.7-1c0-0.2,0-0.4,0-0.7c0-0.2-0.1-0.5-0.1-0.7l0.5-0.7c0.3,1,0.6,1.8,1.1,2.4
			c0.5,0.6,1.1,0.9,1.7,0.9c0.6,0,1.4-0.1,2.2-0.4c0.9-0.3,1.7-0.7,2.4-1.2c1.1-0.8,1.7-1.2,2-1.4c0.6-0.4,1.2-0.7,1.7-0.8
			c0.6-0.2,1.2-0.3,1.8-0.3c1,0,1.8,0.3,2.3,0.9c0.5,0.5,0.7,1.3,0.7,2.3V34z M240.8,31.1c0-0.4-0.2-0.7-0.7-0.9
			c-0.5-0.2-1-0.3-1.6-0.3c-0.7,0-1.7,0.3-2.7,0.8c-0.8,0.4-1.7,0.9-2.5,1.3h5.2c0.8,0,1.4-0.1,1.8-0.2
			C240.6,31.6,240.8,31.4,240.8,31.1z"/>
		<path d="M247.4,34h-5.5v-2h4.4l-1.3-9.5l-0.6-0.3c0-0.5,0-1,0.1-1.5c0.1-0.5,0.2-0.9,0.4-1.3l0.2,0.1c0,0.4,0.2,0.8,0.7,1
			c0.4,0.2,0.8,0.3,1.1,0.4c0,0.4,0,0.8-0.1,1.2c-0.1,0.4-0.1,0.7-0.2,1L246,23l1.3,8.8V34z"/>
		<path d="M251.1,31.1c0,0.6-0.1,1.2-0.3,1.7c-0.1,0.3-0.4,0.8-0.7,1.4l-0.2-0.1c0-0.2,0-0.5,0.1-0.8c0-0.3,0-0.5,0-0.6
			c0-0.8-0.1-1.9-0.2-3.3c-0.1-1.4-0.3-2.9-0.4-4.4c-0.1-0.9-0.2-1.9-0.3-2.8c0.2-0.3,0.3-0.7,0.5-1.1c0.2-0.4,0.4-0.7,0.5-1.1
			c0.1,0.9,0.3,2,0.5,3.5s0.3,2.8,0.4,4C251.1,29.2,251.1,30.3,251.1,31.1z"/>
	</g>
	<rect class="st1" width="326.7" height="55.8"/>
</g>
</svg>
