<?xml version="1.0" encoding="utf-8"?>
<!-- Generator: Adobe Illustrator 22.0.1, SVG Export Plug-In . SVG Version: 6.00 Build 0)  -->
<svg version="1.1" id="Layer_1" xmlns="http://www.w3.org/2000/svg" xmlns:xlink="http://www.w3.org/1999/xlink" x="0px" y="0px"
	 viewBox="0 0 84.3 48.7" style="enable-background:new 0 0 84.3 48.7;" xml:space="preserve">
<style type="text/css">
	.st0{fill:#542C0B;}
	.st1{fill:none;}
</style>
<path class="st0" d="M30.6,28c-0.5-0.3-0.7-0.6-0.7-0.9s0.2-0.5,0.6-0.7c0.4-0.2,0.7-0.3,1.1-0.3c0.3,0,0.6,0.1,1.1,0.4
	c0.1,0,0.2,0.1,0.5,0.3l0.6-1.5c-0.3-0.3-0.5-0.5-0.6-0.6c-0.4-0.3-0.8-0.5-1.4-0.5c-0.6,0-1.2,0.4-1.8,1c-0.4,0.5-0.8,1.2-1.2,1.9
	c-0.3,0.6-0.4,1.1-0.4,1.3c0,0.3,0.2,0.5,0.6,0.8l1.3,0.7c-0.2,0.2-0.4,0.4-0.5,0.7c-0.2,0.3-0.3,0.7-0.4,1l0.3,0.2
	c0.7-0.7,1.5-1.2,2.3-1.6c0.7-0.4,1.7-0.7,2.8-1l0.5-1.8c-1.1,0.3-2.2,0.7-3.1,1.3C31.5,28.5,31,28.2,30.6,28z"/>
<polygon class="st0" points="43.5,33.6 45.3,34.5 46.2,32.9 44.3,32 "/>
<path class="st0" d="M40.9,28.3h-0.7c-0.3,0-0.5-0.1-0.7-0.4c-0.3-0.4-0.5-1.3-0.6-2.6c-0.1-2.9-0.1-4.7-0.2-5.5
	c-0.1-1.2-0.3-2.3-0.6-3.2l-1.4,2.2c0.3,0.2,0.5,0.5,0.7,0.9c0.1,0.3,0.2,0.6,0.3,1.1c0.1,0.4,0.2,1.1,0.2,2c0,0.9,0.1,1.8,0.1,2.6
	c0.1,1,0.2,1.9,0.3,2.6c0.1,0.7,0.3,1.2,0.6,1.6s0.7,0.6,1.2,0.6h0.8h0.8h0.1h4.8h0.7H52v-2.3l-1.3-8.8l0.5,0.2
	c0.1-0.3,0.1-0.6,0.2-1c0.1-0.4,0.1-0.8,0.1-1.2c-0.3-0.1-0.7-0.3-1.1-0.4c-0.5-0.2-0.7-0.6-0.7-1l-0.2-0.1
	c-0.2,0.4-0.3,0.8-0.4,1.3c-0.1,0.5-0.1,1-0.1,1.5l0.6,0.3l1.3,9.5h-3.6v-0.7c0-1.4-0.1-2.3-0.3-2.9c-0.1-0.4-0.5-0.9-1-1.6
	l-0.9,1.8c0.6,0.6,1,1.1,1.1,1.4c0.2,0.4,0.3,1.1,0.3,2"/>
<path class="st0" d="M55.8,23.7c-0.1-1.2-0.2-2.5-0.4-4s-0.4-2.6-0.5-3.5c-0.1,0.4-0.3,0.7-0.5,1.1c-0.2,0.4-0.3,0.8-0.5,1.1
	c0.1,0.9,0.2,1.9,0.3,2.8c0.1,1.5,0.3,3,0.4,4.4c0.1,1.4,0.2,2.5,0.2,3.3c0,0.1,0,0.3,0,0.6c-0.1,0.3-0.1,0.6-0.1,0.8l0.2,0.1
	c0.3-0.6,0.6-1.1,0.7-1.4c0.2-0.5,0.3-1.1,0.3-1.7C55.9,26.5,55.8,25.4,55.8,23.7z"/>
<rect class="st1" width="84.3" height="48.7"/>
</svg>
