<?xml version="1.0" encoding="utf-8"?>
<!-- Generator: Adobe Illustrator 22.0.1, SVG Export Plug-In . SVG Version: 6.00 Build 0)  -->
<svg version="1.1" id="Layer_1" xmlns="http://www.w3.org/2000/svg" xmlns:xlink="http://www.w3.org/1999/xlink" x="0px" y="0px"
	 viewBox="0 0 84.3 48.7" style="enable-background:new 0 0 84.3 48.7;" xml:space="preserve">
<style type="text/css">
	.st0{fill:#542C0B;}
	.st1{fill:none;}
</style>
<path class="st0" d="M53.2,27.8c-0.8,0.1-1.8,0.3-3,0.5c-0.6-0.3-1-0.7-1.4-1.2c-0.4-0.4-0.6-0.8-0.6-1.2c0-0.4,0.3-0.7,0.9-0.9
	c0.6-0.2,1.4-0.3,2.4-0.3c0.5,0,0.9,0,1.3,0.1c0.4,0.1,0.9,0.2,1.4,0.3l0.2-0.2c-0.6-0.8-1-1.2-1.3-1.4c-0.6-0.5-1.4-0.7-2.3-0.7
	c-1.1,0-2.1,0.3-2.8,0.9s-1.1,1.3-1.1,2.2c0,0.4,0.1,0.9,0.2,1.3c0.1,0.4,0.3,0.8,0.5,1.2h-1.9c0,0,0-0.2,0-0.2l-1.3-8.8l0.5,0.2
	c0.1-0.3,0.1-0.6,0.2-1c0.1-0.4,0.1-0.8,0.1-1.2c-0.3-0.1-0.7-0.2-1.1-0.4c-0.5-0.2-0.7-0.6-0.7-1l-0.2-0.1
	c-0.2,0.4-0.3,0.8-0.4,1.3c-0.1,0.5-0.1,1-0.1,1.5l0.6,0.3l1.3,9.5h-3.8v-0.1h-2c-0.6,0-1.2,0.1-1.8,0.3c-0.7,0.3-1.4,0.6-1.8,1.1
	c-0.5,0.6-0.8,1.4-0.8,2.3c0,0.3,0.1,0.5,0.3,0.6s0.5,0.2,1,0.2c0.1,0,0.4-0.1,0.8,0c0.4,0.1,0.7,0.1,0.9,0.1c0.3,0,0.5,0,0.6,0.1
	c0.1,0.1,0.2,0.2,0.2,0.3c0,0.3-0.5,0.6-1.5,0.8c-0.8,0.1-1.7,0.2-2.8,0.2c-1.6,0-2.9-0.2-3.8-0.7c-0.9-0.5-1.4-1.2-1.4-2.1
	c0-0.5,0.2-1.2,0.6-2c0.2-0.4,0.5-0.9,0.8-1.4L29.7,28c-0.8,1.2-1.2,1.9-1.4,2.3c-0.5,1-0.7,1.9-0.7,2.8c0,1.1,0.5,1.9,1.5,2.5
	c0.9,0.5,2.2,0.8,3.8,0.8c2.3,0,4-0.3,5-1c0.9-0.7,1.4-1.7,1.4-3.1c0-0.3-0.1-0.5-0.3-0.6c-0.1-0.1-0.3-0.2-0.7-0.2
	c-0.6,0-1-0.1-1.2-0.1c-0.2,0-0.4,0-0.7,0c-0.7,0-1-0.2-1-0.4s0.3-0.3,0.9-0.4c0.6-0.1,1.4-0.1,2.6-0.1h1.3h0.6h0.1h4.8
	c0,0,0-0.1,0-0.1h2c1.2,0,2.6-0.1,4.1-0.4c1.5-0.2,2.8-0.6,3.9-1l0.8-2C55.1,27.5,54,27.7,53.2,27.8z"/>
<rect class="st1" width="84.3" height="48.7"/>
</svg>
