<?xml version="1.0" encoding="utf-8"?>
<!-- Generator: Adobe Illustrator 19.2.0, SVG Export Plug-In . SVG Version: 6.00 Build 0)  -->
<svg version="1.1" id="Layer_1" xmlns="http://www.w3.org/2000/svg" xmlns:xlink="http://www.w3.org/1999/xlink" x="0px" y="0px"
	 viewBox="0 0 326.7 55.8" style="enable-background:new 0 0 326.7 55.8;" xml:space="preserve">
<style type="text/css">
	.st0{fill:#BA0017;}
	.st1{fill:none;}
</style>
<g>
	<g>
		<path d="M108.9,41.2c0,0.4-0.2,0.7-0.6,1c-0.7,0.3-1.8,0.7-3.3,1.3c0-0.3,0.2-0.6,0.5-0.9C106.1,42.3,107.2,41.9,108.9,41.2z"/>
		<path d="M111.9,33.7c0,0.8-0.4,1.7-1.1,2.6c-0.6,0.8-1.4,1.4-2.3,2c-0.9,0.5-1.6,0.8-2.1,0.8c-0.5,0-1.1-0.1-1.7-0.2
			c-0.5-0.1-1-0.3-1.6-0.5c-0.5-0.2-1.1-0.4-1.6-0.6l0.2-0.4c0.5,0.1,1,0.2,1.5,0.3c0.5,0.1,1,0.2,1.5,0.2c1,0,2-0.3,3-0.9
			c0.9-0.6,1.7-1.3,2.4-2.1c0.7-0.9,1-1.6,1-2.3c0-0.6-0.2-1.2-0.5-1.9c-0.3-0.5-0.7-1.1-1.2-1.6l0.6-1.8c0.6,0.6,1.1,1.1,1.4,1.7
			c0.3,0.6,0.5,1.4,0.5,2.2V33.7z"/>
		<path d="M117.2,33.7h-1.6c-0.5,0-0.9-0.2-1.2-0.6c-0.3-0.4-0.5-0.9-0.6-1.6c-0.1-0.7-0.2-1.6-0.3-2.6c0-0.8-0.1-1.7-0.1-2.6
			c0-0.9-0.1-1.6-0.2-2c-0.1-0.5-0.2-0.8-0.3-1.1c-0.2-0.4-0.4-0.7-0.7-0.9l1.4-2.2c0.3,0.9,0.5,2,0.6,3.2c0.1,0.8,0.1,2.6,0.2,5.5
			c0.1,1.3,0.3,2.2,0.6,2.6c0.2,0.3,0.4,0.5,0.7,0.5h1.6V33.7z"/>
		<path d="M122.9,20.3c0,0.3-0.2,0.7-0.6,1c-0.7,0.3-1.8,0.7-3.3,1.3c0-0.3,0.2-0.6,0.5-0.9C120.2,21.5,121.3,21,122.9,20.3z"/>
		<path d="M126.3,33.7h-4.1c0.5,0.2,0.9,0.5,1.2,1c0.4,0.5,0.6,1.1,0.6,1.7c0,0.6-0.1,1.1-0.3,1.4c-0.2,0.4-0.6,0.7-1.1,0.7
			c-0.9,0-1.7-0.3-2.5-0.9c-0.9-0.7-1.3-1.7-1.3-3l0-0.8h-2.5v-2h2.8c0.3-0.7,0.6-1.3,0.9-1.9c0.4-0.8,0.8-1.4,1.2-1.9
			c0.5-0.6,1-0.8,1.4-0.8c0.2,0,0.4,0.2,0.6,0.6s0.3,0.8,0.3,1.3c0,0.7-0.2,1.2-0.5,1.6c-0.2,0.2-0.8,0.6-1.8,1.1h4.9V33.7z
			 M123,36.1c0-0.6-0.4-1.2-1.3-1.7c-0.7-0.4-1.4-0.7-2.1-0.9c0,0.8,0.2,1.5,0.6,2c0.5,0.6,1.2,1,2.1,1c0.2,0,0.3,0,0.5-0.1
			C122.9,36.4,123,36.3,123,36.1z M122.5,29.8c0-0.7-0.1-1.1-0.4-1.1c-0.3,0-0.7,0.4-1.2,1.1c-0.2,0.3-0.5,0.9-0.9,1.7
			c0.7-0.2,1.3-0.4,1.7-0.7C122.3,30.4,122.5,30.1,122.5,29.8z"/>
		<path d="M132.1,17.1c0,0.6-0.1,1-0.3,1.4c-0.2,0.4-0.5,0.6-0.9,0.6c-0.1,0-0.3,0-0.4-0.1c-0.1,0-0.3-0.1-0.4-0.2
			c-0.1,0.3-0.3,0.5-0.4,0.6c-0.2,0.2-0.5,0.4-0.8,0.4c-0.3,0-0.6-0.1-0.7-0.3c-0.2-0.2-0.2-0.5-0.2-0.9c0-0.2,0-0.4,0.1-0.6
			c0-0.1,0.1-0.3,0.2-0.6l0.2-0.1c0,0.1,0,0.2,0,0.3c0,0.1,0,0.2,0,0.3c0,0.2,0,0.3,0.1,0.4c0.1,0.1,0.2,0.2,0.3,0.2
			c0.3,0,0.6-0.2,0.8-0.6c0.1-0.2,0.2-0.6,0.3-1.1l0.2-0.1c0.1,0.4,0.1,0.6,0.1,0.7c0.1,0.2,0.2,0.3,0.4,0.3c0.3,0,0.5-0.2,0.7-0.6
			c0.1-0.3,0.2-0.6,0.2-1l0.2-0.1c0,0.1,0.1,0.3,0.1,0.5C132,16.9,132.1,17,132.1,17.1z M131.9,14.4c0,0.3-0.2,0.7-0.6,1
			c-0.7,0.3-1.8,0.7-3.3,1.3c0-0.3,0.2-0.6,0.5-0.9C129.2,15.5,130.3,15.1,131.9,14.4z"/>
		<path d="M131.9,33.7h-6.4v-2h5.6c0-0.9-0.1-1.6-0.3-2c-0.1-0.3-0.5-0.8-1.1-1.4l0.9-1.8c0.5,0.7,0.9,1.2,1,1.6
			c0.2,0.6,0.3,1.5,0.3,2.9V33.7z M131,23.3l-0.9,1.6l-1.8-0.9l0.8-1.6L131,23.3z"/>
		<path d="M136.6,33.7h-5.5v-2h4.4l-1.3-9.5l-0.6-0.3c0-0.5,0-1,0.1-1.5c0.1-0.5,0.2-0.9,0.4-1.3l0.2,0.1c0,0.4,0.2,0.8,0.7,1
			c0.4,0.2,0.8,0.3,1.1,0.4c0,0.4,0,0.8-0.1,1.2s-0.1,0.7-0.2,1l-0.5-0.2l1.3,8.8V33.7z"/>
		<path d="M140.4,30.8c0,0.6-0.1,1.2-0.3,1.7c-0.1,0.3-0.4,0.8-0.7,1.4l-0.2-0.1c0-0.2,0-0.5,0.1-0.8c0-0.3,0-0.5,0-0.6
			c0-0.8-0.1-1.9-0.2-3.3s-0.3-2.9-0.4-4.4c-0.1-0.9-0.2-1.9-0.3-2.8c0.2-0.3,0.3-0.7,0.5-1.1s0.4-0.7,0.5-1.1
			c0.1,0.9,0.3,2,0.5,3.5s0.3,2.8,0.4,4C140.4,28.9,140.4,30,140.4,30.8z"/>
		<path class="st0" d="M161.3,33.7h-2c-1.2,0-2,0-2.6,0.1c-0.6,0.1-0.9,0.2-0.9,0.4c0,0.2,0.3,0.4,1,0.4c0.3,0,0.5,0,0.7,0
			c0.2,0,0.6,0.1,1.2,0.1c0.4,0,0.6,0.1,0.7,0.2c0.2,0.1,0.3,0.3,0.3,0.6c0,1.4-0.5,2.4-1.4,3.1c-1,0.7-2.7,1-5,1
			c-1.6,0-2.9-0.3-3.8-0.8c-1-0.6-1.5-1.4-1.5-2.5c0-0.9,0.2-1.8,0.7-2.8c0.2-0.4,0.6-1.1,1.4-2.3l0.4,0.2c-0.3,0.5-0.6,1-0.8,1.4
			c-0.4,0.8-0.6,1.5-0.6,2c0,0.9,0.5,1.6,1.4,2.1c0.9,0.5,2.2,0.7,3.8,0.7c1.1,0,2-0.1,2.8-0.2c1-0.2,1.5-0.5,1.5-0.8
			c0-0.1-0.1-0.2-0.2-0.3c-0.1-0.1-0.3-0.1-0.6-0.1c-0.2,0-0.5,0-0.9-0.1c-0.4,0-0.7,0-0.8,0c-0.5,0-0.8-0.1-1-0.2
			c-0.2-0.1-0.3-0.3-0.3-0.6c0-0.9,0.3-1.7,0.8-2.3c0.4-0.5,1.1-0.8,1.8-1.1c0.6-0.2,1.2-0.3,1.8-0.3h2V33.7z M154.3,40.9l-1,1
			L152,41l1-1.1L154.3,40.9z M156.7,40.9l-1,1l-1.3-0.8l1-1.1L156.7,40.9z"/>
		<path class="st0" d="M167.5,33.7h-6.9v-2h6c0-0.7-0.1-1.3-0.2-1.9c-0.4,0.1-0.7,0.2-0.9,0.3c-0.3,0.1-0.6,0.1-0.9,0.1
			c-0.5,0-1-0.1-1.3-0.4c-0.4-0.3-0.6-0.8-0.6-1.4c0-1,0.2-2,0.6-2.7c0.4-0.9,1-1.3,1.6-1.3c0.9,0,1.6,0.7,2.1,2.1
			c0.4,1.2,0.6,2.6,0.6,4.2V33.7z M166,21.2l-0.9,1.6l-1.8-1l0.8-1.6L166,21.2z M165.6,27.8c-0.1-0.3-0.3-0.5-0.5-0.8
			c-0.3-0.4-0.6-0.6-0.9-0.6c-0.2,0-0.4,0.1-0.5,0.3c-0.1,0.2-0.2,0.4-0.2,0.6c0,0.6,0.3,0.9,1,0.9c0.2,0,0.4,0,0.5-0.1
			C165.3,28,165.5,27.9,165.6,27.8z"/>
		<path d="M181.4,18.9c0,0.1,0,0.3,0,0.4c0,0.1,0,0.3-0.1,0.4l-0.9-0.6c-0.4,0.4-0.6,0.7-0.8,0.8c-0.6,0.5-1,0.8-1.4,0.8h-0.8
			c0.4-0.2,0.9-0.5,1.4-0.9c0.5-0.4,0.8-0.7,1.1-1c-0.2-0.1-0.4-0.3-0.5-0.4c-0.1-0.2-0.2-0.4-0.2-0.6c0-0.5,0.1-0.9,0.4-1.3
			c0.3-0.4,0.6-0.6,0.9-0.6c0.2,0,0.4,0.1,0.5,0.3c0.2,0.2,0.2,0.5,0.2,0.8c0,0.1,0,0.3-0.1,0.4s-0.1,0.4-0.3,0.8
			c0.1,0.1,0.2,0.2,0.4,0.3C181.4,18.6,181.4,18.8,181.4,18.9z M180.6,17.6c0-0.2-0.1-0.4-0.2-0.6c-0.1-0.2-0.3-0.3-0.4-0.3
			c-0.1,0-0.1,0-0.2,0.1c0,0.1-0.1,0.1-0.1,0.2c0,0.2,0.1,0.3,0.3,0.5l0.5,0.4C180.6,17.8,180.6,17.7,180.6,17.6z"/>
		<path d="M190.3,33.7h-10.7c-1.4,0-2.6-0.3-3.4-0.8c-1.1-0.6-1.6-1.6-1.6-3c0-0.7,0.2-1.4,0.5-2.1c0.1-0.3,0.4-0.8,0.8-1.5l0.3,0.2
			c-0.2,0.3-0.3,0.7-0.5,1c-0.2,0.5-0.3,1-0.3,1.4c0,0.9,0.5,1.6,1.4,2.1c0.8,0.4,1.9,0.7,3.2,0.7h9.5v-0.3c0-0.8-0.1-1.5-0.3-2
			c-0.2-0.5-0.5-1-1-1.4l0.9-1.8c0.3,0.4,0.5,0.7,0.6,0.8c0.5,0.8,0.8,2.1,0.8,3.7V33.7z M182.4,24.5l-0.9,1.6l-1.8-0.9l0.8-1.6
			L182.4,24.5z M185,23.5l-0.9,1.6l-1.8-1l0.8-1.6L185,23.5z"/>
		<path d="M197.5,21c0,0.5-0.2,0.9-0.5,1.2c-0.3,0.4-0.8,0.6-1.3,0.6c-0.4,0-0.7-0.1-0.9-0.3c-0.2-0.2-0.3-0.5-0.3-0.9
			c0-0.6,0.1-1.1,0.4-1.5c0.3-0.4,0.7-0.7,1.1-0.7c0.4,0,0.7,0.2,1,0.5S197.5,20.6,197.5,21z M196.8,21.3c0-0.2-0.1-0.4-0.4-0.7
			c-0.3-0.3-0.5-0.4-0.7-0.4c-0.2,0-0.4,0.1-0.5,0.3c-0.1,0.2-0.2,0.3-0.2,0.5c0,0.3,0.1,0.4,0.4,0.5c0.2,0.1,0.5,0.1,0.8,0.1
			c0.2,0,0.3,0,0.5-0.1C196.7,21.6,196.8,21.5,196.8,21.3z"/>
		<path d="M201.5,33.7c0,0.8-0.4,1.7-1.1,2.6c-0.6,0.8-1.4,1.4-2.3,2c-0.9,0.5-1.6,0.8-2.1,0.8c-0.5,0-1.1-0.1-1.7-0.2
			c-0.5-0.1-1-0.3-1.6-0.5c-0.5-0.2-1.1-0.4-1.6-0.6l0.2-0.4c0.5,0.1,1,0.2,1.5,0.3c0.5,0.1,1,0.2,1.5,0.2c1,0,2-0.3,3-0.9
			c0.9-0.6,1.7-1.3,2.4-2.1s1-1.6,1-2.3c0-0.6-0.2-1.2-0.5-1.9c-0.3-0.5-0.7-1.1-1.2-1.6l0.6-1.8c0.6,0.6,1.1,1.1,1.4,1.7
			c0.3,0.6,0.5,1.4,0.5,2.2V33.7z"/>
		<path d="M206.8,17c0,0.3-0.2,0.7-0.6,1c-0.7,0.3-1.8,0.7-3.3,1.3c0-0.3,0.2-0.6,0.5-0.9C204.1,18.1,205.2,17.6,206.8,17z"/>
		<path d="M207.7,33.7h-6.9v-2h6c0-0.7-0.1-1.3-0.2-1.9c-0.4,0.1-0.7,0.2-0.9,0.3c-0.3,0.1-0.6,0.1-0.9,0.1c-0.5,0-1-0.1-1.3-0.4
			c-0.4-0.3-0.6-0.8-0.6-1.4c0-1,0.2-2,0.6-2.7c0.4-0.9,1-1.3,1.6-1.3c0.9,0,1.6,0.7,2.1,2.1c0.4,1.2,0.6,2.6,0.6,4.2V33.7z
			 M206.2,21.2l-0.9,1.6l-1.8-1l0.8-1.6L206.2,21.2z M205.8,27.8c-0.1-0.3-0.3-0.5-0.5-0.8c-0.3-0.4-0.6-0.6-0.9-0.6
			c-0.2,0-0.4,0.1-0.5,0.3c-0.1,0.2-0.2,0.4-0.2,0.6c0,0.6,0.3,0.9,1,0.9c0.2,0,0.4,0,0.5-0.1C205.5,28,205.7,27.9,205.8,27.8z"/>
		<path d="M212.9,33.7h-1.6c-0.5,0-0.9-0.2-1.2-0.6c-0.3-0.4-0.5-0.9-0.6-1.6c-0.1-0.7-0.2-1.6-0.3-2.6c0-0.8-0.1-1.7-0.1-2.6
			c0-0.9-0.1-1.6-0.2-2c-0.1-0.5-0.2-0.8-0.3-1.1c-0.2-0.4-0.4-0.7-0.7-0.9l1.4-2.2c0.3,0.9,0.5,2,0.6,3.2c0.1,0.8,0.2,2.6,0.2,5.5
			c0.1,1.3,0.3,2.2,0.6,2.6c0.2,0.3,0.4,0.5,0.7,0.5h1.6V33.7z"/>
		<path d="M219.9,20.3c0,0.3-0.2,0.7-0.6,1c-0.7,0.3-1.8,0.7-3.3,1.3c0-0.3,0.2-0.6,0.5-0.9C217.2,21.5,218.3,21,219.9,20.3z"/>
		<path d="M225.2,33.7h-0.9c-0.5,0-0.9-0.1-1.2-0.2c-0.3-0.1-0.7-0.3-0.9-0.6c-0.4,0.3-0.7,0.5-0.9,0.5c-0.4,0.1-0.9,0.2-1.6,0.2
			h-0.7c-0.4,0-0.8-0.1-1.2-0.2c-0.3-0.1-0.6-0.3-0.9-0.5c-0.4,0.3-0.7,0.5-1,0.6c-0.3,0.1-0.8,0.2-1.5,0.2h-2.2v-2h2.2
			c0.6,0,1-0.1,1.3-0.2c0.4-0.2,0.7-0.5,0.7-1c0-0.2,0-0.4,0-0.7c0-0.2-0.1-0.5-0.1-0.7l0.5-0.7c0.2,0.7,0.4,1.2,0.5,1.5
			c0.2,0.5,0.5,1,0.8,1.2c0.3,0.3,0.8,0.5,1.2,0.5h0.8c0.6,0,1-0.1,1.2-0.3c0.3-0.2,0.4-0.5,0.4-0.9c0-0.2,0-0.5,0-0.7
			c0-0.2-0.1-0.5-0.1-0.7l0.5-0.7l0.2,1.1c0.2,0.8,0.4,1.4,0.7,1.7c0.3,0.3,0.6,0.4,1,0.4c0.2,0,0.4-0.1,0.5-0.2
			c0.1-0.1,0.2-0.3,0.2-0.5c0-0.4-0.2-0.9-0.5-1.3c-0.1-0.1-0.2-0.3-0.6-0.7l0.7-1.2c0.3,0.5,0.5,0.9,0.6,1.2c0.2,0.5,0.2,1.2,0.2,2
			V33.7z"/>
	</g>
	<rect class="st1" width="326.7" height="55.8"/>
</g>
</svg>
