<?xml version="1.0" encoding="utf-8"?>
<!-- Generator: Adobe Illustrator 19.2.0, SVG Export Plug-In . SVG Version: 6.00 Build 0)  -->
<svg version="1.1" id="Layer_1" xmlns="http://www.w3.org/2000/svg" xmlns:xlink="http://www.w3.org/1999/xlink" x="0px" y="0px"
	 viewBox="0 0 326.7 55.8" style="enable-background:new 0 0 326.7 55.8;" xml:space="preserve">
<style type="text/css">
	.st0{fill:#BA0017;}
	.st1{fill:none;}
</style>
<g>
	<g>
		<path d="M106.3,38c0,0.4-0.2,0.7-0.6,1c-0.7,0.3-1.8,0.7-3.3,1.3c0-0.3,0.2-0.6,0.5-0.9C103.6,39.1,104.7,38.7,106.3,38z"/>
		<path d="M107.9,32.2l-0.5,1.8c-1.1,0.3-2.1,0.6-2.8,1c-0.8,0.4-1.6,0.9-2.3,1.6l-0.3-0.2c0.1-0.3,0.2-0.7,0.4-1
			c0.1-0.3,0.3-0.5,0.5-0.7l-1.3-0.7c-0.4-0.3-0.6-0.5-0.6-0.8c0-0.2,0.1-0.7,0.4-1.3c0.4-0.7,0.8-1.4,1.2-1.9c0.6-0.6,1.2-1,1.8-1
			c0.6,0,1,0.2,1.4,0.5c0.1,0.1,0.3,0.3,0.6,0.6l-0.6,1.5c-0.3-0.2-0.4-0.3-0.5-0.3c-0.5-0.3-0.8-0.4-1.1-0.4
			c-0.4,0-0.7,0.1-1.1,0.3c-0.4,0.2-0.6,0.4-0.6,0.7c0,0.3,0.2,0.6,0.7,0.9c0.4,0.2,0.9,0.5,1.6,0.7
			C105.8,32.9,106.9,32.5,107.9,32.2z"/>
		<path d="M114.3,35h-1.6c-0.5,0-0.9-0.2-1.2-0.6c-0.3-0.4-0.5-0.9-0.6-1.6s-0.2-1.6-0.3-2.6c0-0.8-0.1-1.7-0.1-2.6s-0.1-1.6-0.2-2
			c-0.1-0.5-0.2-0.8-0.3-1.1c-0.2-0.4-0.4-0.7-0.7-0.9l1.4-2.2c0.3,0.9,0.5,2,0.6,3.2c0.1,0.8,0.1,2.6,0.2,5.5
			c0.1,1.3,0.3,2.2,0.6,2.6c0.2,0.3,0.4,0.5,0.7,0.5h1.6V35z"/>
		<path d="M119.6,18.3c0,0.3-0.2,0.7-0.6,1c-0.7,0.3-1.8,0.7-3.3,1.3c0-0.3,0.2-0.6,0.5-0.9C116.9,19.4,118,18.9,119.6,18.3z"/>
		<path d="M120.5,35h-6.9v-2h6c0-0.7-0.1-1.3-0.2-1.9c-0.4,0.1-0.7,0.2-0.9,0.3c-0.3,0.1-0.6,0.1-0.9,0.1c-0.5,0-1-0.1-1.3-0.4
			c-0.4-0.3-0.6-0.8-0.6-1.4c0-1,0.2-2,0.6-2.7c0.4-0.9,1-1.3,1.6-1.3c0.9,0,1.6,0.7,2.1,2.1c0.4,1.2,0.6,2.6,0.6,4.2V35z
			 M117.6,23.2l-0.9,1.6l-1.8-0.9l0.8-1.6L117.6,23.2z M118.7,29.1c-0.1-0.3-0.3-0.5-0.5-0.8c-0.3-0.4-0.6-0.6-0.9-0.6
			c-0.2,0-0.4,0.1-0.5,0.3c-0.1,0.2-0.2,0.4-0.2,0.6c0,0.6,0.3,0.9,1,0.9c0.2,0,0.4,0,0.5-0.1C118.3,29.3,118.5,29.2,118.7,29.1z
			 M120.1,22.2l-0.9,1.6l-1.8-1l0.8-1.6L120.1,22.2z"/>
		<path d="M127,37c0,0.4-0.2,0.7-0.6,1c-0.7,0.3-1.8,0.7-3.3,1.3c0-0.3,0.2-0.6,0.5-0.9C124.3,38.1,125.4,37.6,127,37z"/>
		<path d="M128.3,35h-5c-0.4,0-0.8-0.1-1.2-0.4s-0.5-0.5-0.5-0.9c0-0.3,0-0.5,0-0.8c0-0.2,0.1-0.5,0.2-0.8h0.3
			c0.1,0.3,0.2,0.5,0.4,0.7c0.2,0.1,0.4,0.2,0.7,0.2h4.3c0-1.3-0.2-2.4-0.6-3.2c-0.5-1-1.2-1.7-2.3-2l0.2-2.2c1.3,0.6,2.2,1.7,2.8,3
			c0.4,1.1,0.7,2.6,0.7,4.4V35z"/>
		<path d="M134.9,22.3c0,0.5-0.2,0.9-0.5,1.2c-0.3,0.4-0.8,0.6-1.3,0.6c-0.4,0-0.7-0.1-0.9-0.3c-0.2-0.2-0.3-0.5-0.3-0.9
			c0-0.6,0.1-1.1,0.4-1.5c0.3-0.4,0.7-0.7,1.1-0.7c0.4,0,0.7,0.2,1,0.5S134.9,21.9,134.9,22.3z M134.2,22.6c0-0.2-0.1-0.4-0.4-0.7
			s-0.5-0.4-0.7-0.4c-0.2,0-0.4,0.1-0.5,0.3c-0.1,0.2-0.2,0.3-0.2,0.5c0,0.3,0.1,0.4,0.4,0.6c0.2,0.1,0.5,0.1,0.8,0.1
			c0.2,0,0.3,0,0.5-0.1S134.2,22.7,134.2,22.6z"/>
		<path d="M147.7,35h-13.5c-0.4,0-0.8-0.1-1.2-0.2c-0.3-0.1-0.6-0.3-1-0.5c-0.3,0.3-0.6,0.5-0.9,0.6c-0.3,0.1-0.8,0.2-1.5,0.2h-2.2
			v-2h2.2c0.6,0,1-0.1,1.3-0.2c0.4-0.2,0.7-0.5,0.7-1c0-0.2,0-0.4,0-0.7c0-0.2-0.1-0.5-0.1-0.7l0.5-0.7c0.3,1,0.6,1.8,1.1,2.4
			c0.5,0.6,1.1,0.9,1.7,0.9c0.6,0,1.4-0.1,2.2-0.4c0.9-0.3,1.7-0.7,2.4-1.2c1.1-0.8,1.7-1.2,2-1.4c0.6-0.4,1.2-0.7,1.7-0.8
			c0.6-0.2,1.2-0.3,1.8-0.3c1,0,1.8,0.3,2.3,0.9c0.5,0.5,0.7,1.3,0.7,2.3V35z M145.9,32.1c0-0.4-0.2-0.7-0.7-0.9
			c-0.5-0.2-1-0.3-1.6-0.3c-0.7,0-1.7,0.3-2.7,0.8c-0.8,0.4-1.7,0.9-2.5,1.3h5.2c0.8,0,1.4-0.1,1.8-0.2S145.9,32.4,145.9,32.1z"/>
		<path d="M152.2,14.3c0,0.3-0.2,0.7-0.6,1c-0.7,0.3-1.8,0.7-3.3,1.3c0-0.3,0.2-0.6,0.5-0.9C149.5,15.5,150.6,15,152.2,14.3z"/>
		<path d="M151.5,19.9c0,0.2-0.1,0.4-0.3,0.5c-0.2,0.1-0.4,0.2-0.7,0.3l-2.1,0.7c0-0.3,0.4-0.6,1.1-0.9c-0.2-0.1-0.4-0.2-0.5-0.3
			c-0.2-0.1-0.2-0.3-0.2-0.4c0-0.2,0.2-0.6,0.6-1c0.4-0.5,0.8-0.7,1.2-0.7c0.1,0,0.3,0.1,0.4,0.2c0.1,0.1,0.2,0.2,0.2,0.4
			c0,0.1,0,0.2-0.1,0.3c0,0.1-0.1,0.2-0.2,0.4c-0.2-0.2-0.5-0.3-0.8-0.3c-0.2,0-0.3,0-0.5,0.1s-0.2,0.1-0.2,0.2
			c0,0.1,0.2,0.3,0.5,0.5c0.3,0.2,0.6,0.3,0.9,0.3c0.2,0,0.3,0,0.4,0C151.1,20,151.3,19.9,151.5,19.9z M161.5,35h-0.7
			c-0.6,0-1.1-0.3-1.5-1c-0.5-0.8-0.7-2.1-0.7-3.7c0-0.1,0-0.3,0-0.5s0-0.3,0-0.4c-0.7,2-1.4,3.4-1.9,4.1c-0.7,0.9-1.6,1.4-2.8,1.7
			c-1,0.2-2.8,0.4-5.3,0.4v-0.3c2-0.6,3.5-1.1,4.5-1.6c1.6-0.7,2.8-1.5,3.6-2.4c1-1.1,1.5-2.4,1.5-3.9c0-0.7,0-1.4-0.1-2.1
			s-0.2-1.3-0.4-2l0.4-0.9c0.1-0.4,0.3-0.7,0.4-0.9c0.2,1.1,0.4,2.2,0.5,3.5c0.1,0.9,0.2,1.8,0.3,2.8c0.1,1.2,0.3,2.2,0.4,2.9
			c0.1,0.9,0.3,1.6,0.6,2c0.2,0.3,0.4,0.4,0.5,0.4h0.7V35z M156.9,29.1c0,0.1,0,0.3,0,0.4s-0.1,0.2-0.1,0.4c-0.4-0.9-1-1.9-1.9-2.9
			c-0.9-1.1-1.6-1.7-2.2-1.7c-0.1,0-0.2,0.1-0.3,0.3s-0.2,0.3-0.4,0.3c-0.2,0-0.5-0.1-1-0.4c-0.5-0.3-1-0.7-1.3-1.1
			c-0.4-0.6-0.7-1.2-0.7-1.9c0-0.5,0.2-0.7,0.5-0.7c0.5,0,1.4,0.3,2.5,1c1.3,0.8,2.4,1.6,3.2,2.7C156.3,26.7,156.9,27.9,156.9,29.1z
			"/>
		<path class="st0" d="M166.3,35h-5.5v-2h4.4l-1.3-9.5l-0.6-0.3c0-0.5,0-1,0.1-1.5c0.1-0.5,0.2-0.9,0.4-1.3l0.2,0.1
			c0,0.4,0.2,0.8,0.7,1c0.4,0.1,0.8,0.3,1.1,0.4c0,0.4,0,0.8-0.1,1.2c-0.1,0.4-0.1,0.7-0.2,1L165,24l1.3,8.8V35z"/>
		<path d="M179.7,22.4c0,0.1,0,0.3,0,0.4s0,0.3-0.1,0.4l-0.9-0.6c-0.4,0.4-0.6,0.7-0.8,0.8c-0.6,0.5-1,0.8-1.4,0.8h-0.8
			c0.4-0.2,0.9-0.5,1.4-0.9c0.5-0.4,0.8-0.7,1.1-1c-0.2-0.1-0.4-0.3-0.5-0.4c-0.1-0.2-0.2-0.4-0.2-0.6c0-0.5,0.1-0.9,0.4-1.3
			c0.3-0.4,0.6-0.6,0.9-0.6c0.2,0,0.4,0.1,0.5,0.3c0.2,0.2,0.2,0.5,0.2,0.8c0,0.1,0,0.3-0.1,0.4c0,0.2-0.1,0.4-0.3,0.8
			c0.1,0.1,0.2,0.2,0.4,0.3C179.6,22.2,179.7,22.3,179.7,22.4z M178.8,21.2c0-0.2-0.1-0.4-0.2-0.6c-0.1-0.2-0.3-0.3-0.4-0.3
			c-0.1,0-0.1,0-0.2,0.1s-0.1,0.1-0.1,0.2c0,0.2,0.1,0.3,0.3,0.5l0.5,0.4C178.8,21.3,178.8,21.2,178.8,21.2z"/>
		<path d="M183.9,41.3l-2.3,1.8c-1.4,0-2.5-0.1-3.3-0.2c-1.5-0.2-2.6-0.7-3.4-1.3c-1.1-0.9-1.6-2.1-1.6-3.6c0-1,0.2-2,0.6-2.9
			c0.3-0.7,0.8-1.4,1.4-2.1c0.3-0.3,0.8-0.9,1.7-1.6c-0.1-0.3-0.2-0.4-0.3-0.6s-0.3-0.2-0.4-0.2c-0.2,0-0.4,0.1-0.6,0.4h-0.2
			c0.2-0.8,0.3-1.3,0.5-1.6c0.4-0.7,1.1-1.1,2.1-1.1c0.6,0,1.2,0.2,1.7,0.5c0.5,0.4,0.8,0.8,0.8,1.4c0,0.4-0.1,0.7-0.4,0.9
			c-0.3,0.2-0.5,0.4-0.6,0.5c0.4,0.5,0.8,0.9,1.2,1.1s0.9,0.3,1.4,0.3h1v2h-1c-1.1,0-2-0.2-2.7-0.5s-1.1-0.9-1.5-1.7
			c-0.5,0.4-1,0.7-1.5,1.1c-0.6,0.5-1.1,1-1.4,1.5c-0.4,0.6-0.6,1.2-0.6,1.8c0,1.3,0.6,2.2,1.9,2.9c1,0.5,2.3,0.9,4,1.1
			C181.1,41.2,182.3,41.2,183.9,41.3L183.9,41.3z"/>
		<path d="M188.9,18.3c0,0.3-0.2,0.7-0.6,1c-0.7,0.3-1.8,0.7-3.3,1.3c0-0.3,0.2-0.6,0.5-0.9C186.1,19.4,187.3,18.9,188.9,18.3z"/>
		<path d="M188.7,35h-6.4v-2h5.6c0-0.9-0.1-1.6-0.3-2c-0.1-0.3-0.5-0.8-1.1-1.4l0.9-1.8c0.5,0.7,0.9,1.2,1,1.6
			c0.2,0.6,0.3,1.5,0.3,2.9V35z M187.8,24.6l-0.9,1.6l-1.8-0.9l0.8-1.6L187.8,24.6z"/>
		<path d="M195.3,22.3c0,0.5-0.2,0.9-0.5,1.2c-0.3,0.4-0.8,0.6-1.3,0.6c-0.4,0-0.7-0.1-0.9-0.3c-0.2-0.2-0.3-0.5-0.3-0.9
			c0-0.6,0.1-1.1,0.4-1.5c0.3-0.4,0.7-0.7,1.1-0.7c0.4,0,0.7,0.2,1,0.5S195.3,21.9,195.3,22.3z M194.6,22.6c0-0.2-0.1-0.4-0.4-0.7
			s-0.5-0.4-0.7-0.4c-0.2,0-0.4,0.1-0.5,0.3c-0.1,0.2-0.2,0.3-0.2,0.5c0,0.3,0.1,0.4,0.4,0.6c0.2,0.1,0.5,0.1,0.8,0.1
			c0.2,0,0.3,0,0.5-0.1S194.6,22.7,194.6,22.6z"/>
		<path d="M208.1,35h-13.5c-0.4,0-0.8-0.1-1.2-0.2c-0.3-0.1-0.6-0.3-1-0.5c-0.3,0.3-0.6,0.5-0.9,0.6c-0.3,0.1-0.8,0.2-1.5,0.2h-2.2
			v-2h2.2c0.6,0,1-0.1,1.3-0.2c0.4-0.2,0.7-0.5,0.7-1c0-0.2,0-0.4,0-0.7c0-0.2-0.1-0.5-0.1-0.7l0.5-0.7c0.3,1,0.6,1.8,1.1,2.4
			c0.5,0.6,1.1,0.9,1.7,0.9c0.6,0,1.4-0.1,2.2-0.4c0.9-0.3,1.7-0.7,2.4-1.2c1.1-0.8,1.7-1.2,2-1.4c0.6-0.4,1.2-0.7,1.7-0.8
			c0.6-0.2,1.2-0.3,1.8-0.3c1,0,1.8,0.3,2.3,0.9c0.5,0.5,0.7,1.3,0.7,2.3V35z M206.3,32.1c0-0.4-0.2-0.7-0.7-0.9
			c-0.5-0.2-1-0.3-1.6-0.3c-0.7,0-1.7,0.3-2.7,0.8c-0.8,0.4-1.7,0.9-2.5,1.3h5.2c0.8,0,1.4-0.1,1.8-0.2S206.3,32.4,206.3,32.1z"/>
		<path d="M214.5,21.6c0,0.3-0.2,0.7-0.6,1c-0.7,0.3-1.8,0.7-3.3,1.3c0-0.3,0.2-0.6,0.5-0.9C211.8,22.8,212.9,22.3,214.5,21.6z"/>
		<path d="M217.2,35H216c-0.5,0-1.1-0.1-1.7-0.3c-0.7-0.3-1.4-0.6-1.9-1.1c-0.4,0.5-0.9,0.9-1.3,1.1c-0.5,0.2-1.1,0.3-2,0.3h-1.8v-2
			h1.7c0.7,0,1.3-0.2,1.8-0.5c0.4-0.3,0.8-0.6,1.1-1.1c0.5-0.7,1-1.2,1.7-1.7c0.6-0.4,1.1-0.7,1.7-0.8c0.5,0.8,0.9,1.5,1.2,2.1
			c0.4,0.9,0.6,1.5,0.6,2.1V35z M215.9,32.7c-0.1-0.4-0.2-0.9-0.4-1.3c-0.2-0.4-0.4-0.7-0.7-1.1c-0.4,0.1-0.7,0.3-0.9,0.5
			c-0.2,0.2-0.4,0.4-0.6,0.8c0.3,0.3,0.6,0.6,1.1,0.8s1,0.4,1.4,0.4L215.9,32.7z"/>
		<path d="M221.9,35h-5.5v-2h4.4l-1.3-9.5l-0.6-0.3c0-0.5,0-1,0.1-1.5c0.1-0.5,0.2-0.9,0.4-1.3l0.2,0.1c0,0.4,0.2,0.8,0.7,1
			c0.4,0.1,0.8,0.3,1.1,0.4c0,0.4,0,0.8-0.1,1.2c-0.1,0.4-0.1,0.7-0.2,1l-0.5-0.2l1.3,8.8V35z"/>
		<path d="M225.7,32.1c0,0.6-0.1,1.2-0.3,1.7c-0.1,0.3-0.4,0.8-0.7,1.4l-0.2-0.1c0-0.2,0-0.5,0.1-0.8s0-0.5,0-0.6
			c0-0.8-0.1-1.9-0.2-3.3c-0.1-1.4-0.3-2.9-0.4-4.4c-0.1-0.9-0.2-1.9-0.3-2.8c0.2-0.3,0.3-0.7,0.5-1.1c0.2-0.4,0.4-0.7,0.5-1.1
			c0.1,0.9,0.3,2,0.5,3.5s0.3,2.8,0.4,4C225.7,30.2,225.7,31.3,225.7,32.1z"/>
	</g>
	<rect class="st1" width="326.7" height="55.8"/>
</g>
</svg>
