<?xml version="1.0" encoding="utf-8"?>
<!-- Generator: Adobe Illustrator 22.0.1, SVG Export Plug-In . SVG Version: 6.00 Build 0)  -->
<svg version="1.1" id="Layer_1" xmlns="http://www.w3.org/2000/svg" xmlns:xlink="http://www.w3.org/1999/xlink" x="0px" y="0px"
	 viewBox="0 0 276.8 46.1" style="enable-background:new 0 0 276.8 46.1;" xml:space="preserve">
<style type="text/css">
	.st0{fill:#BA0017;}
</style>
<g>
	<g>
		<g>
			<g>
				<path class="st0" d="M63.9,36.7c0,0.3-0.2,0.6-0.5,0.9c-0.6,0.2-1.5,0.6-2.8,1.1c0-0.3,0.1-0.5,0.4-0.8
					C61.6,37.7,62.5,37.3,63.9,36.7z"/>
				<path class="st0" d="M68.8,28.7h-1.3c-0.8,0-1.3-0.1-1.7-0.4s-0.5-0.8-0.5-1.5c0-0.3,0-0.6,0.1-0.9c0-0.1,0.1-0.3,0.1-0.6
					c-1.1,0.3-2,0.6-2.5,0.9c-1,0.4-1.8,0.9-2.4,1.5c-0.7,0.7-1.1,1.5-1.1,2.4c0,1.4,0.7,2.5,2.2,3.2c1.3,0.6,3,0.9,5.1,0.9h1.8
					l0.1,0.1l-2.2,1.6h-0.6c-1.4,0-2.6-0.1-3.5-0.4c-1.1-0.3-2-0.8-2.5-1.5c-0.7-0.8-1-1.8-1-3.1c0-1.1,0.3-2.1,0.8-2.9
					c0.4-0.7,1.1-1.2,1.9-1.8c0.2-0.2,0.9-0.5,2-1.1c-0.3,0-0.5-0.1-0.8-0.1s-0.6,0-0.8,0c-0.7,0-1.2,0-1.6,0.1
					c-0.1,0-0.6,0.1-1.3,0.3c0.2-0.6,0.5-1.1,0.7-1.3c0.5-0.5,1.4-0.8,2.5-0.8c0.6,0,1.3,0.1,2.1,0.2s1.4,0.2,1.9,0.2
					c0.3,0,0.7,0,1,0s0.6-0.1,1-0.1L67.8,25c-0.3,0-0.6,0.1-0.9,0.1c-0.2,0-0.5,0.1-0.9,0.2l0,0.5c0,0.5,0.2,0.9,0.5,1.1
					c0.2,0.1,0.5,0.2,1,0.2h1.3V28.7z"/>
				<path class="st0" d="M73,28.7h-4.8V27H72l-1.2-8.3l-0.5-0.2c0-0.4,0-0.9,0.1-1.3s0.2-0.8,0.4-1.1l0.1,0.1c0,0.4,0.2,0.7,0.6,0.8
					c0.3,0.1,0.7,0.3,1,0.4c0,0.3,0,0.7-0.1,1s-0.1,0.6-0.2,0.8l-0.5-0.2l1.2,7.7V28.7z"/>
				<path class="st0" d="M77.5,28.7h-1.4c-0.4,0-0.8-0.2-1.1-0.5c-0.2-0.3-0.4-0.8-0.5-1.4s-0.2-1.4-0.3-2.3c0-0.7-0.1-1.5-0.1-2.3
					s-0.1-1.4-0.2-1.8s-0.2-0.7-0.3-1c-0.1-0.3-0.3-0.6-0.6-0.8l1.2-1.9c0.3,0.8,0.4,1.7,0.5,2.8c0.1,0.7,0.1,2.3,0.2,4.8
					c0.1,1.2,0.3,1.9,0.5,2.2c0.2,0.3,0.4,0.4,0.6,0.4h1.4V28.7z"/>
				<path class="st0" d="M83.6,17.3c0,0.5-0.1,0.9-0.3,1.2c-0.2,0.4-0.4,0.5-0.8,0.5c-0.1,0-0.2,0-0.3-0.1s-0.2-0.1-0.3-0.2
					c-0.1,0.2-0.3,0.4-0.4,0.5c-0.2,0.2-0.4,0.3-0.7,0.3c-0.3,0-0.5-0.1-0.6-0.3S80,18.9,80,18.6c0-0.2,0-0.3,0.1-0.5
					c0-0.1,0.1-0.3,0.2-0.5l0.2-0.1c0,0.1,0,0.1,0,0.3s0,0.2,0,0.3c0,0.1,0,0.3,0.1,0.4s0.1,0.2,0.3,0.2c0.3,0,0.5-0.2,0.7-0.5
					c0.1-0.2,0.2-0.5,0.3-1L82,17c0.1,0.3,0.1,0.5,0.1,0.6c0.1,0.2,0.2,0.3,0.4,0.3c0.2,0,0.4-0.2,0.6-0.5c0.1-0.3,0.2-0.5,0.2-0.8
					l0.2-0.1c0,0.1,0.1,0.3,0.1,0.4S83.6,17.2,83.6,17.3z M83.4,14.9c0,0.3-0.2,0.6-0.5,0.9c-0.6,0.2-1.5,0.6-2.8,1.1
					c0-0.3,0.1-0.5,0.4-0.8C81,15.9,82,15.5,83.4,14.9z"/>
				<path class="st0" d="M94.5,28.7H82.7c-0.4,0-0.7-0.1-1-0.2c-0.2-0.1-0.5-0.2-0.8-0.4c-0.3,0.2-0.5,0.4-0.8,0.5s-0.7,0.1-1.3,0.1
					h-1.9V27h1.9c0.5,0,0.9,0,1.1-0.1c0.4-0.1,0.6-0.4,0.6-0.9c0-0.2,0-0.4,0-0.6s-0.1-0.4-0.1-0.6l0.4-0.6c0.2,0.9,0.5,1.6,0.9,2.1
					c0.4,0.5,0.9,0.8,1.5,0.8c0.5,0,1.2-0.1,1.9-0.4c0.8-0.3,1.5-0.6,2.1-1c0.9-0.7,1.5-1.1,1.7-1.2c0.5-0.3,1-0.6,1.4-0.7
					c0.5-0.2,1-0.2,1.6-0.2c0.9,0,1.6,0.3,2,0.8c0.4,0.5,0.6,1.1,0.6,2V28.7z M92.9,26.3c0-0.3-0.2-0.6-0.6-0.7s-0.9-0.3-1.4-0.3
					c-0.7,0-1.4,0.2-2.4,0.7c-0.7,0.4-1.5,0.7-2.2,1.1h4.5c0.7,0,1.2-0.1,1.6-0.2S92.9,26.5,92.9,26.3z"/>
				<path class="st0" d="M98.6,28.7h-4.8V27h3.8l-1.2-8.3L96,18.5c0-0.4,0-0.9,0.1-1.3s0.2-0.8,0.4-1.1l0.1,0.1
					c0,0.4,0.2,0.7,0.6,0.8c0.3,0.1,0.7,0.3,1,0.4c0,0.3,0,0.7-0.1,1s-0.1,0.6-0.2,0.8l-0.5-0.2l1.2,7.7V28.7z"/>
				<path class="st0" d="M101.9,26.3c0,0.5-0.1,1-0.3,1.5c-0.1,0.3-0.3,0.7-0.6,1.2l-0.2-0.1c0-0.2,0-0.4,0.1-0.7s0-0.4,0-0.5
					c0-0.7-0.1-1.6-0.2-2.8s-0.2-2.5-0.4-3.8c-0.1-0.8-0.2-1.6-0.3-2.5c0.1-0.3,0.3-0.6,0.4-0.9s0.3-0.6,0.5-0.9
					c0.1,0.7,0.2,1.8,0.4,3s0.3,2.5,0.4,3.5C101.8,24.6,101.9,25.6,101.9,26.3z"/>
				<path d="M114.7,32.8c0,0.3-0.2,0.6-0.5,0.9c-0.6,0.2-1.5,0.6-2.8,1.1c0-0.3,0.1-0.5,0.4-0.8C112.3,33.8,113.3,33.4,114.7,32.8z"
					/>
				<path d="M118.4,27.5c0,1-0.2,1.9-0.7,2.5c-0.4,0.5-1.1,0.9-1.9,1.2c-0.7,0.2-1.6,0.3-2.7,0.3c-1.3,0-2.2-0.2-2.9-0.7
					c-0.8-0.5-1.1-1.3-1.1-2.3c0-0.6,0.1-1.1,0.2-1.7c0.1-0.5,0.3-1.1,0.6-1.7c0.2-0.4,0.5-1,0.8-1.6l0.3,0.2
					c-0.2,0.4-0.4,0.8-0.6,1.2c-0.2,0.5-0.4,0.9-0.5,1.2c-0.1,0.4-0.2,0.9-0.2,1.3c0,0.8,0.3,1.4,0.9,1.8s1.4,0.6,2.4,0.6
					c1.1,0,2.1-0.2,3.1-0.6c1-0.4,1.5-0.9,1.5-1.5c0-0.6-0.1-1.7-0.3-3.2c-0.2-1.2-0.3-2.5-0.6-3.9l-0.3-1.9l-0.4-0.2
					c0-0.9,0.2-1.7,0.5-2.4h0.2c0,0.2,0.1,0.4,0.1,0.6s0.2,0.2,0.3,0.3c0.2,0.1,0.4,0.2,0.7,0.3c0.2,0.1,0.3,0.2,0.5,0.2
					c0,0.5,0,0.8,0,1s-0.1,0.5-0.2,0.9l-0.6-0.2c0,0.1,0.1,0.8,0.3,2c0.2,1.4,0.4,2.5,0.4,3.3C118.4,25.8,118.4,26.8,118.4,27.5z"/>
				<path d="M124,17.2c0,0.3-0.2,0.6-0.5,0.9c-0.6,0.2-1.5,0.6-2.8,1.1c0-0.3,0.1-0.6,0.4-0.8C121.6,18.1,122.6,17.7,124,17.2z"/>
				<path d="M126.3,28.7h-1c-0.4,0-0.9-0.1-1.5-0.3c-0.6-0.2-1.2-0.5-1.7-0.9c-0.4,0.5-0.8,0.8-1.2,1s-1,0.3-1.7,0.3h-1.5V27h1.5
					c0.6,0,1.1-0.1,1.6-0.4c0.4-0.2,0.7-0.6,1-1c0.4-0.6,0.9-1.1,1.5-1.5c0.5-0.4,1-0.6,1.4-0.7c0.4,0.7,0.8,1.3,1.1,1.8
					c0.4,0.7,0.5,1.3,0.5,1.8V28.7z M125.2,26.8c-0.1-0.4-0.2-0.7-0.4-1.1c-0.1-0.3-0.3-0.6-0.6-0.9c-0.3,0.1-0.6,0.2-0.8,0.4
					c-0.1,0.1-0.3,0.4-0.5,0.7c0.2,0.3,0.6,0.5,1,0.7s0.8,0.3,1.2,0.4L125.2,26.8z"/>
				<path d="M132.4,17.2c0,0.3-0.2,0.6-0.5,0.9c-0.6,0.2-1.5,0.6-2.8,1.1c0-0.3,0.1-0.6,0.4-0.8C130,18.1,131,17.7,132.4,17.2z"/>
				<path d="M134.2,28.7h-1.4c-0.4,0-0.9-0.1-1.3-0.3c-0.5-0.2-0.9-0.6-1.1-1c-0.4,0.4-0.9,0.7-1.5,0.9c-0.7,0.3-1.5,0.4-2.3,0.4
					h-0.9V27h0.9c0.5,0,1.1-0.1,1.5-0.2c0.5-0.1,1.1-0.4,1.6-0.7l-0.4-0.5c-0.2-0.2-0.4-0.4-0.7-0.4c-0.1,0-0.2,0-0.3,0.1
					s-0.2,0.1-0.3,0.3h-0.2v-0.6c0-0.7,0.2-1.2,0.6-1.5c0.3-0.2,0.9-0.4,1.8-0.4c0.7,0,1.3,0.1,1.8,0.3c0.6,0.3,0.9,0.6,0.9,1.2
					c0,0.3-0.1,0.6-0.4,0.9c-0.2,0.2-0.5,0.5-1,0.9c0.1,0.2,0.3,0.3,0.6,0.4s0.5,0.2,0.7,0.2h1.4V28.7z"/>
				<path d="M138.3,28.7h-4.8V27h3.8l-1.2-8.3l-0.5-0.2c0-0.4,0-0.9,0.1-1.3s0.2-0.8,0.4-1.1l0.1,0.1c0,0.4,0.2,0.7,0.6,0.8
					c0.3,0.1,0.7,0.3,1,0.4c0,0.3,0,0.7-0.1,1s-0.1,0.6-0.2,0.8l-0.5-0.2l1.2,7.7V28.7z"/>
				<path d="M142.9,28.7h-1.4c-0.4,0-0.8-0.2-1.1-0.5c-0.2-0.3-0.4-0.8-0.5-1.4s-0.2-1.4-0.3-2.3c0-0.7-0.1-1.5-0.1-2.3
					s-0.1-1.4-0.2-1.8s-0.2-0.7-0.3-1c-0.1-0.3-0.3-0.6-0.6-0.8l1.2-1.9c0.3,0.8,0.4,1.7,0.5,2.8c0.1,0.7,0.1,2.3,0.2,4.8
					c0.1,1.2,0.3,1.9,0.5,2.2c0.2,0.3,0.4,0.4,0.6,0.4h1.4V28.7z"/>
				<path d="M147.1,34.8c0,0.3-0.2,0.6-0.5,0.9c-0.6,0.2-1.5,0.6-2.8,1.1c0-0.3,0.1-0.5,0.4-0.8C144.7,35.8,145.7,35.4,147.1,34.8z"
					/>
				<path d="M147.8,28.7h-5.6V27h4.9c0-0.8-0.1-1.4-0.3-1.8c-0.1-0.3-0.4-0.7-0.9-1.2l0.8-1.6c0.5,0.6,0.8,1.1,0.9,1.4
					c0.2,0.5,0.3,1.3,0.3,2.5V28.7z M146.8,31.1l-0.8,1.4l-1.6-0.8l0.7-1.4L146.8,31.1z"/>
				<path d="M157.5,20.1c0,0.3-0.2,0.6-0.5,0.9c-0.6,0.2-1.5,0.6-2.8,1.1c0-0.3,0.1-0.6,0.4-0.8C155.1,21.1,156.1,20.7,157.5,20.1z"
					/>
				<path d="M165.4,27c0,0.2,0,0.5,0,0.7c-0.1,0.3-0.1,0.6-0.3,0.9l-0.1,0.2c-0.8,0-1.4-0.1-1.9-0.3c-0.4-0.2-0.7-0.5-1-0.8
					c-0.3,0.4-0.6,0.8-0.9,0.9c-0.3,0.2-0.7,0.2-1.1,0.2c-0.4,0-0.8-0.1-1.2-0.4s-0.7-0.6-0.8-1c-0.3,0.4-0.6,0.7-0.9,1
					s-0.7,0.4-1.1,0.4c-0.7,0-1.3-0.1-1.7-0.2s-0.6-0.2-0.6-0.4c0-0.5,0.4-1.2,1.1-1.9s1.6-1.3,2.7-1.8c0-0.1-0.1-0.2-0.1-0.4
					s-0.1-0.3-0.1-0.4c0-0.2,0.1-0.5,0.2-0.7c0.1-0.2,0.3-0.5,0.5-0.7c0.1,0.5,0.2,1.1,0.3,1.6c0.1,0.8,0.3,1.5,0.4,2.2
					c0.1,0.4,0.2,0.6,0.4,0.8s0.5,0.2,0.9,0.2c0.3,0,0.5,0,0.7-0.1s0.4-0.3,0.6-0.7l-0.6-2.7c0-0.2-0.1-0.4-0.1-0.5
					c0-0.3-0.1-0.4-0.1-0.5c0-0.2,0.1-0.5,0.2-0.8c0.1-0.2,0.3-0.5,0.5-0.7c0.1,0.3,0.1,0.7,0.2,1.1s0.2,1,0.3,1.7l0.4,1.7
					c0.1,0.5,0.3,0.8,0.5,1.1c0.3,0.3,0.6,0.4,1,0.4c0.2,0,0.3-0.1,0.4-0.2s0.2-0.3,0.2-0.6l-0.6-2.7c0-0.3-0.1-0.4-0.1-0.5
					c0-0.3-0.1-0.4-0.1-0.5c0-0.2,0.1-0.5,0.2-0.8c0.1-0.2,0.3-0.5,0.5-0.7c0,0.2,0.1,0.7,0.3,1.6c0.2,1.1,0.4,1.9,0.5,2.4
					C165.3,26,165.4,26.7,165.4,27z M157.7,26.7l-0.2-1.1c-0.6,0.2-1,0.4-1.3,0.6c-0.3,0.2-0.6,0.5-0.8,0.9c0.1,0.1,0.3,0.1,0.5,0.1
					s0.4,0,0.8,0c0.2,0,0.4-0.1,0.6-0.2S157.6,26.9,157.7,26.7z M162.6,18.8c0,0.5-0.1,0.9-0.3,1.2s-0.4,0.5-0.7,0.5
					c-0.1,0-0.3,0-0.4-0.1s-0.3-0.1-0.4-0.2c-0.1,0.2-0.2,0.4-0.4,0.5c-0.2,0.2-0.4,0.3-0.6,0.3c-0.3,0-0.5-0.1-0.6-0.3
					s-0.2-0.4-0.2-0.7c0-0.1,0-0.2,0-0.4s0-0.3,0.1-0.3l0.3-0.1c0,0.3,0,0.5,0.1,0.6s0.2,0.2,0.5,0.2c0.1,0,0.3-0.1,0.4-0.4
					s0.2-0.5,0.3-0.8l0.2-0.1c0.1,0.3,0.1,0.4,0.2,0.5c0.1,0.1,0.3,0.2,0.5,0.2c0.2,0,0.3-0.1,0.4-0.4c0.1-0.2,0.1-0.4,0.2-0.6
					l0.2-0.1C162.6,18.5,162.6,18.6,162.6,18.8z M160.8,18.3l-0.2,0.1c-0.2-0.4-0.4-0.8-0.7-1.1c-0.1-0.1-0.3-0.3-0.7-0.6
					c0.1-0.3,0.2-0.4,0.4-0.4s0.4,0.1,0.6,0.4c0.2,0.4,0.3,0.6,0.4,0.7C160.7,17.6,160.8,17.9,160.8,18.3z M168.4,26.3
					c0,0.5-0.1,1-0.3,1.5c-0.1,0.3-0.3,0.7-0.6,1.2l-0.2-0.1c0-0.2,0-0.4,0.1-0.7s0-0.4,0-0.5c0-0.7-0.1-1.6-0.2-2.8
					s-0.2-2.5-0.4-3.8c-0.1-0.8-0.2-1.6-0.3-2.5c0.1-0.3,0.3-0.6,0.4-0.9s0.3-0.6,0.5-0.9c0.1,0.7,0.2,1.8,0.4,3s0.3,2.5,0.4,3.5
					C168.3,24.6,168.4,25.6,168.4,26.3z"/>
				<path d="M186.5,28.7h-1.7c-1,0-1.8,0-2.3,0.1s-0.8,0.2-0.8,0.3c0,0.2,0.3,0.3,0.9,0.3c0.3,0,0.5,0,0.6,0s0.5,0,1,0.1
					c0.3,0,0.5,0.1,0.6,0.1c0.2,0.1,0.3,0.3,0.3,0.5c0,1.2-0.4,2.1-1.2,2.7c-0.9,0.6-2.3,0.9-4.3,0.9c-1.4,0-2.5-0.2-3.3-0.7
					c-0.9-0.5-1.3-1.2-1.3-2.2c0-0.8,0.2-1.6,0.6-2.4c0.1-0.3,0.5-1,1.2-2l0.4,0.2c-0.2,0.4-0.5,0.8-0.7,1.3
					c-0.4,0.7-0.6,1.3-0.6,1.8c0,0.8,0.4,1.4,1.3,1.8c0.8,0.4,1.9,0.6,3.3,0.6c0.9,0,1.8-0.1,2.5-0.2c0.9-0.2,1.3-0.4,1.3-0.7
					c0-0.1,0-0.2-0.1-0.2s-0.3-0.1-0.5-0.1c-0.2,0-0.5,0-0.8-0.1s-0.6,0-0.7,0c-0.4,0-0.7-0.1-0.9-0.2s-0.3-0.3-0.3-0.5
					c0-0.8,0.2-1.5,0.7-2c0.4-0.4,0.9-0.7,1.6-0.9c0.5-0.1,1-0.2,1.6-0.2h1.7V28.7z M180.5,35l-0.9,0.8l-1.1-0.7l0.9-0.9L180.5,35z
					 M182.5,35l-0.9,0.8l-1.1-0.7l0.9-0.9L182.5,35z"/>
				<path d="M203.5,28.7h-11.7c-0.4,0-0.7-0.1-1-0.2c-0.2-0.1-0.5-0.2-0.8-0.4c-0.3,0.2-0.5,0.4-0.8,0.5s-0.7,0.1-1.3,0.1h-1.9V27
					h1.9c0.5,0,0.9,0,1.1-0.1c0.4-0.1,0.6-0.4,0.6-0.9c0-0.2,0-0.4,0-0.6s-0.1-0.4-0.1-0.6l0.4-0.6c0.2,0.9,0.5,1.6,0.9,2.1
					c0.4,0.5,0.9,0.8,1.5,0.8c0.5,0,1.2-0.1,1.9-0.4c0.8-0.3,1.5-0.6,2.1-1c0.9-0.7,1.5-1.1,1.7-1.2c0.5-0.3,1-0.6,1.4-0.7
					c0.5-0.2,1-0.2,1.6-0.2c0.9,0,1.6,0.3,2,0.8c0.4,0.5,0.6,1.1,0.6,2V28.7z M197.3,20.6l-0.7,1.4l-1.6-0.8l0.7-1.4L197.3,20.6z
					 M201.9,26.3c0-0.3-0.2-0.6-0.6-0.7s-0.9-0.3-1.4-0.3c-0.7,0-1.4,0.2-2.4,0.7c-0.7,0.4-1.5,0.7-2.2,1.1h4.5
					c0.7,0,1.2-0.1,1.6-0.2S201.9,26.5,201.9,26.3z"/>
				<path d="M209.7,17.7c0,0.4-0.1,0.8-0.4,1.1s-0.7,0.5-1.1,0.5c-0.4,0-0.6-0.1-0.8-0.3s-0.3-0.5-0.3-0.8c0-0.5,0.1-0.9,0.4-1.3
					s0.6-0.6,1-0.6c0.4,0,0.6,0.1,0.9,0.4S209.7,17.3,209.7,17.7z M209.2,18c0-0.2-0.1-0.4-0.4-0.6s-0.5-0.3-0.6-0.3
					c-0.2,0-0.3,0.1-0.4,0.2s-0.2,0.3-0.2,0.5c0,0.2,0.1,0.4,0.3,0.5c0.2,0.1,0.4,0.1,0.7,0.1c0.2,0,0.3,0,0.4-0.1
					S209.2,18.1,209.2,18z"/>
				<path d="M213.2,28.7c0,0.7-0.3,1.5-0.9,2.2c-0.5,0.7-1.2,1.3-2,1.7c-0.8,0.5-1.4,0.7-1.9,0.7c-0.4,0-0.9-0.1-1.5-0.2
					c-0.4-0.1-0.9-0.3-1.4-0.5c-0.5-0.2-0.9-0.4-1.4-0.5l0.2-0.4c0.4,0.1,0.9,0.2,1.3,0.3s0.9,0.1,1.3,0.1c0.8,0,1.7-0.3,2.6-0.8
					c0.8-0.5,1.5-1.1,2.1-1.9s0.9-1.4,0.9-2c0-0.5-0.1-1.1-0.4-1.6c-0.2-0.5-0.6-0.9-1-1.4l0.6-1.5c0.5,0.5,0.9,1,1.2,1.5
					c0.3,0.6,0.4,1.2,0.4,1.9V28.7z"/>
				<path d="M217.9,14.9c0,0.1,0,0.2,0,0.3s0,0.2-0.1,0.4l-0.8-0.5c-0.3,0.4-0.5,0.6-0.7,0.7c-0.5,0.5-0.9,0.7-1.2,0.7h-0.7
					c0.3-0.2,0.7-0.4,1.2-0.8c0.4-0.3,0.7-0.6,0.9-0.9c-0.2-0.1-0.4-0.3-0.5-0.4c-0.1-0.2-0.2-0.4-0.2-0.6c0-0.4,0.1-0.8,0.4-1.1
					s0.5-0.5,0.8-0.5c0.2,0,0.3,0.1,0.5,0.3s0.2,0.4,0.2,0.7c0,0.1,0,0.3-0.1,0.4s-0.1,0.4-0.2,0.7c0.1,0.1,0.2,0.2,0.3,0.3
					C217.8,14.7,217.9,14.8,217.9,14.9z M217.1,13.8c0-0.2-0.1-0.3-0.2-0.5s-0.2-0.2-0.4-0.2c-0.1,0-0.1,0-0.2,0.1s-0.1,0.1-0.1,0.1
					c0,0.1,0.1,0.3,0.2,0.4l0.4,0.3C217.1,14,217.1,13.9,217.1,13.8z"/>
				<path d="M218.1,28.7h-5.6V27h4.9c0-0.8-0.1-1.4-0.3-1.8c-0.1-0.3-0.4-0.7-0.9-1.2l0.8-1.6c0.5,0.6,0.8,1.1,0.9,1.4
					c0.2,0.5,0.3,1.3,0.3,2.5V28.7z M215.8,20l-0.7,1.4l-1.6-0.8l0.7-1.4L215.8,20z M218.1,19.1l-0.8,1.4l-1.6-0.8l0.7-1.4
					L218.1,19.1z"/>
			</g>
		</g>
	</g>
</g>
</svg>
