<?xml version="1.0" encoding="utf-8"?>
<!-- Generator: Adobe Illustrator 22.0.1, SVG Export Plug-In . SVG Version: 6.00 Build 0)  -->
<svg version="1.1" id="Layer_1" xmlns="http://www.w3.org/2000/svg" xmlns:xlink="http://www.w3.org/1999/xlink" x="0px" y="0px"
	 viewBox="0 0 276.8 46.1" style="enable-background:new 0 0 276.8 46.1;" xml:space="preserve">
<style type="text/css">
	.st0{fill:#BA0017;}
</style>
<g>
	<g>
		<g>
			<g>
				<g>
					<path d="M47.5,17.7c0,0.2,0,0.5-0.1,0.7s-0.2,0.4-0.3,0.6c0.1,0.1,0.2,0.1,0.2,0.2s0.1,0.2,0.1,0.2c0,0.3,0,0.6-0.1,0.9
						l-0.8-0.7c-0.3,0.4-0.6,0.6-1,0.8c-0.5,0.2-1,0.4-1.5,0.4c0.3-0.4,0.4-0.7,0.4-0.7c0.1-0.2,0.1-0.3,0.1-0.5s0-0.3-0.1-0.4
						S44.2,19,44.1,19c-0.1,0-0.3,0.1-0.4,0.2c0,0.1-0.1,0.2-0.3,0.4c0-0.5,0.1-0.8,0.2-1c0.1-0.4,0.3-0.5,0.6-0.5
						c0.2,0,0.4,0.1,0.5,0.3s0.2,0.5,0.2,0.7c0,0.1,0,0.3,0,0.4c0,0.2-0.1,0.3-0.1,0.4c0.4-0.1,0.9-0.3,1.3-0.7
						c-0.1-0.1-0.2-0.2-0.3-0.3c-0.2-0.2-0.3-0.4-0.3-0.6c0-0.3,0.1-0.6,0.4-0.9c0.3-0.3,0.6-0.5,0.9-0.5c0.2,0,0.3,0.1,0.4,0.2
						S47.5,17.5,47.5,17.7z M46.8,18.2c0-0.1,0-0.3-0.1-0.4s-0.2-0.2-0.3-0.2c-0.1,0-0.2,0.1-0.2,0.3c0,0.1,0.1,0.2,0.2,0.4
						c0,0,0.1,0.1,0.3,0.3C46.8,18.5,46.8,18.4,46.8,18.2z"/>
					<path d="M49.1,28.6H48c-1.1,0-2,0.1-2.8,0.3c-1,0.3-1.5,0.6-1.5,1.1c0,0.4,0.1,0.9,0.2,1.4s0.3,1,0.4,1.5s0.2,1,0.2,1.4
						c0,0.2,0,0.5-0.1,0.7s-0.1,0.5-0.2,0.8c-0.2-0.5-0.3-1.1-0.5-1.6c-0.3-1-0.5-1.8-0.7-2.3c-0.2-0.8-0.4-1.3-0.4-1.5
						c0-0.8,0.2-1.5,0.5-1.9s0.9-0.8,1.6-1c0.6-0.2,1.4-0.3,2.6-0.4c-0.4-0.4-0.7-0.7-0.8-0.7c-0.3-0.3-0.7-0.4-1-0.4
						c-0.2,0-0.4,0.1-0.6,0.2c-0.2,0.1-0.3,0.3-0.6,0.5L44,26.2c0.2-0.5,0.4-0.9,0.7-1.2c0.4-0.5,0.9-0.7,1.5-0.7
						c0.4,0,0.8,0.1,1.2,0.4c0.3,0.2,0.7,0.6,1,1c0.2,0.2,0.4,0.6,0.8,1.1V28.6z"/>
					<path d="M53.1,30.3c0,0.3-0.2,0.6-0.5,0.9c-0.6,0.2-1.5,0.6-2.8,1.1c0-0.3,0.1-0.5,0.4-0.8C50.7,31.3,51.7,30.9,53.1,30.3z"/>
					<path d="M53.3,28.6h-4.8v-1.7h3.8l-1.2-8.3l-0.5-0.2c0-0.4,0-0.9,0.1-1.3s0.2-0.8,0.4-1.1l0.1,0.1c0,0.4,0.2,0.7,0.6,0.8
						c0.3,0.1,0.7,0.3,1,0.4c0,0.3,0,0.7-0.1,1s-0.1,0.6-0.2,0.8L52.1,19l1.2,7.7V28.6z"/>
					<path d="M57.9,28.6h-1.4c-0.4,0-0.8-0.2-1.1-0.5c-0.2-0.3-0.4-0.8-0.5-1.4s-0.2-1.4-0.3-2.3c0-0.7-0.1-1.5-0.1-2.3
						s-0.1-1.4-0.2-1.8s-0.2-0.7-0.3-1c-0.1-0.3-0.3-0.6-0.6-0.8l1.2-1.9c0.3,0.8,0.4,1.7,0.5,2.8c0.1,0.7,0.1,2.3,0.2,4.8
						c0.1,1.2,0.3,1.9,0.5,2.2c0.2,0.3,0.4,0.4,0.6,0.4h1.4V28.6z"/>
					<path d="M65.7,28.6h-1.4c-0.4,0-0.9-0.1-1.3-0.3c-0.5-0.2-0.9-0.6-1.1-1c-0.4,0.4-0.9,0.7-1.5,0.9c-0.7,0.3-1.5,0.4-2.3,0.4
						h-0.9v-1.7H58c0.5,0,1.1-0.1,1.5-0.2c0.5-0.1,1.1-0.4,1.6-0.7l-0.4-0.5c-0.2-0.2-0.4-0.4-0.7-0.4c-0.1,0-0.2,0-0.3,0.1
						s-0.2,0.1-0.3,0.3h-0.2v-0.6c0-0.7,0.2-1.2,0.6-1.5c0.3-0.2,0.9-0.4,1.8-0.4c0.7,0,1.3,0.1,1.8,0.3c0.6,0.3,0.9,0.6,0.9,1.2
						c0,0.3-0.1,0.6-0.4,0.9c-0.2,0.2-0.5,0.5-1,0.9c0.1,0.2,0.3,0.3,0.6,0.4s0.5,0.2,0.7,0.2h1.4V28.6z"/>
					<path d="M73.6,28.6h-1c-0.4,0-0.9-0.1-1.5-0.3c-0.6-0.2-1.2-0.5-1.7-0.9c-0.4,0.5-0.8,0.8-1.2,1s-1,0.3-1.7,0.3H65v-1.7h1.5
						c0.6,0,1.1-0.1,1.6-0.4c0.4-0.2,0.7-0.6,1-1c0.4-0.6,0.9-1.1,1.5-1.5c0.5-0.4,1-0.6,1.4-0.7c0.4,0.7,0.8,1.3,1.1,1.8
						c0.4,0.7,0.5,1.3,0.5,1.8V28.6z M72.5,26.6c-0.1-0.4-0.2-0.7-0.4-1.1c-0.1-0.3-0.3-0.6-0.6-0.9c-0.3,0.1-0.6,0.2-0.8,0.4
						c-0.1,0.1-0.3,0.4-0.5,0.7c0.2,0.3,0.6,0.5,1,0.7s0.8,0.3,1.2,0.4L72.5,26.6z"/>
					<path d="M90.9,28.6h-1.7c-1,0-1.8,0-2.3,0.1s-0.8,0.2-0.8,0.3c0,0.2,0.3,0.3,0.9,0.3c0.3,0,0.5,0,0.6,0s0.5,0,1,0.1
						c0.3,0,0.5,0.1,0.6,0.1c0.2,0.1,0.3,0.3,0.3,0.5c0,1.2-0.4,2.1-1.2,2.7c-0.9,0.6-2.3,0.9-4.3,0.9c-1.4,0-2.5-0.2-3.3-0.7
						c-0.9-0.5-1.3-1.2-1.3-2.2c0-0.8,0.2-1.6,0.6-2.4c0.1-0.3,0.5-1,1.2-2l0.4,0.2c-0.2,0.4-0.5,0.8-0.7,1.3
						c-0.4,0.7-0.6,1.3-0.6,1.8c0,0.8,0.4,1.4,1.3,1.8c0.8,0.4,1.9,0.6,3.3,0.6c0.9,0,1.8-0.1,2.5-0.2c0.9-0.2,1.3-0.4,1.3-0.7
						c0-0.1,0-0.2-0.1-0.2s-0.3-0.1-0.5-0.1c-0.2,0-0.5,0-0.8-0.1s-0.6,0-0.7,0c-0.4,0-0.7-0.1-0.9-0.2s-0.3-0.3-0.3-0.5
						c0-0.8,0.2-1.5,0.7-2c0.4-0.4,0.9-0.7,1.6-0.9c0.5-0.1,1-0.2,1.6-0.2h1.7V28.6z M84.9,34.8L84,35.7L82.9,35l0.9-0.9L84.9,34.8z
						 M86.9,34.8L86,35.7L84.9,35l0.9-0.9L86.9,34.8z"/>
					<path d="M95.1,28.6h-4.8v-1.7h3.8l-1.2-8.3l-0.5-0.2c0-0.4,0-0.9,0.1-1.3s0.2-0.8,0.4-1.1L93,16c0,0.4,0.2,0.7,0.6,0.8
						c0.3,0.1,0.7,0.3,1,0.4c0,0.3,0,0.7-0.1,1s-0.1,0.6-0.2,0.8L93.9,19l1.2,7.7V28.6z"/>
					<path d="M99.7,28.6h-1.4c-0.4,0-0.8-0.2-1.1-0.5c-0.2-0.3-0.4-0.8-0.5-1.4s-0.2-1.4-0.3-2.3c0-0.7-0.1-1.5-0.1-2.3
						s-0.1-1.4-0.2-1.8s-0.2-0.7-0.3-1c-0.1-0.3-0.3-0.6-0.6-0.8l1.2-1.9c0.3,0.8,0.4,1.7,0.5,2.8c0.1,0.7,0.1,2.3,0.2,4.8
						c0.1,1.2,0.3,1.9,0.5,2.2c0.2,0.3,0.4,0.4,0.6,0.4h1.4V28.6z"/>
					<path d="M110.3,28.6H99v-1.7h8c-0.7-0.5-1.2-0.9-1.7-1.2c-0.6-0.4-1.1-0.6-1.6-0.8c-0.5-0.2-1.1-0.3-1.6-0.3
						c-0.3,0-0.7,0-1,0.1c0.2-0.5,0.4-0.9,0.7-1.2c0.4-0.4,1-0.6,1.7-0.6c0.7,0,1.4,0.3,2.4,1c0.4,0.3,1.2,0.9,2.2,1.9
						c0.8,0.7,1.3,1.1,1.6,1.2h0.6V28.6z M105.6,19.5l-0.7,1.4l-1.6-0.8l0.7-1.4L105.6,19.5z"/>
					<path d="M114.4,28.6h-4.8v-1.7h3.8l-1.2-8.3l-0.5-0.2c0-0.4,0-0.9,0.1-1.3s0.2-0.8,0.4-1.1l0.1,0.1c0,0.4,0.2,0.7,0.6,0.8
						c0.3,0.1,0.7,0.3,1,0.4c0,0.3,0,0.7-0.1,1s-0.1,0.6-0.2,0.8l-0.5-0.2l1.2,7.7V28.6z"/>
					<path d="M117.7,26.1c0,0.5-0.1,1-0.3,1.5c-0.1,0.3-0.3,0.7-0.6,1.2l-0.2-0.1c0-0.2,0-0.4,0.1-0.7s0-0.4,0-0.5
						c0-0.7-0.1-1.6-0.2-2.8s-0.2-2.5-0.4-3.8c-0.1-0.8-0.2-1.6-0.3-2.5c0.1-0.3,0.3-0.6,0.4-0.9s0.3-0.6,0.5-0.9
						c0.1,0.7,0.2,1.8,0.4,3s0.3,2.5,0.4,3.5C117.6,24.4,117.7,25.4,117.7,26.1z"/>
					<path d="M130.7,36.5c0,0.3-0.2,0.6-0.5,0.9c-0.6,0.2-1.5,0.6-2.8,1.1c0-0.3,0.1-0.5,0.4-0.8C128.4,37.5,129.3,37.1,130.7,36.5z
						"/>
					<path d="M133.8,34.1l-2,1.6c-1.2,0-2.2-0.1-2.9-0.2c-1.3-0.2-2.3-0.6-3-1.2c-0.9-0.7-1.4-1.8-1.4-3.1c0-0.9,0.2-1.7,0.5-2.5
						c0.3-0.6,0.7-1.2,1.2-1.8c0.3-0.3,0.7-0.8,1.4-1.4c-0.1-0.2-0.2-0.4-0.3-0.5s-0.2-0.2-0.4-0.2c-0.2,0-0.3,0.1-0.5,0.3h-0.2
						c0.1-0.7,0.3-1.2,0.4-1.4c0.4-0.6,1-0.9,1.8-0.9c0.6,0,1,0.1,1.4,0.4c0.4,0.3,0.7,0.7,0.7,1.2c0,0.3-0.1,0.6-0.4,0.8
						c-0.2,0.2-0.4,0.3-0.6,0.4c0.4,0.4,0.7,0.7,1,0.9s0.8,0.3,1.3,0.3h0.9v1.7h-0.9c-1,0-1.8-0.1-2.3-0.4s-1-0.8-1.3-1.5
						c-0.5,0.3-0.9,0.6-1.3,0.9c-0.5,0.4-0.9,0.9-1.2,1.3c-0.4,0.5-0.5,1-0.5,1.5c0,1.1,0.5,2,1.7,2.6c0.8,0.5,2,0.8,3.5,0.9
						C131.4,34,132.5,34,133.8,34.1L133.8,34.1z"/>
					<path d="M137.9,17.5c0,0.4-0.1,0.8-0.4,1.1s-0.7,0.5-1.1,0.5c-0.4,0-0.6-0.1-0.8-0.3s-0.3-0.5-0.3-0.8c0-0.5,0.1-0.9,0.4-1.3
						s0.6-0.6,1-0.6c0.4,0,0.6,0.1,0.9,0.4S137.9,17.2,137.9,17.5z M137.3,17.8c0-0.2-0.1-0.4-0.4-0.6s-0.5-0.3-0.6-0.3
						c-0.2,0-0.3,0.1-0.4,0.2s-0.2,0.3-0.2,0.5c0,0.2,0.1,0.4,0.3,0.5c0.2,0.1,0.4,0.1,0.7,0.1c0.2,0,0.3,0,0.4-0.1
						S137.3,17.9,137.3,17.8z"/>
					<path d="M138,28.6h-5.6v-1.7h4.9c0-0.8-0.1-1.4-0.3-1.8c-0.1-0.3-0.4-0.7-0.9-1.2l0.8-1.6c0.5,0.6,0.8,1.1,0.9,1.4
						c0.2,0.5,0.3,1.3,0.3,2.5V28.6z M137,30.9l-0.8,1.4l-1.6-0.8l0.7-1.4L137,30.9z"/>
					<path d="M144.5,16.1c-0.2,0-0.5,0-0.7-0.1c-0.1,0-0.2-0.1-0.4-0.1c-0.4,0.3-0.6,0.5-0.8,0.6c-0.4,0.2-0.8,0.4-1.1,0.4
						c-0.1,0-0.2,0-0.3,0s-0.2-0.1-0.3-0.1c0.5-0.2,0.8-0.4,1-0.5c0.3-0.1,0.7-0.3,1-0.5c-0.1-0.1-0.3-0.3-0.3-0.4
						c-0.1-0.1-0.2-0.3-0.2-0.4c0-0.3,0.1-0.6,0.3-0.8s0.5-0.4,0.8-0.4c0.2,0,0.4,0.1,0.5,0.2s0.2,0.3,0.2,0.5c0,0.1,0,0.3-0.1,0.4
						c0,0-0.1,0.2-0.2,0.4c0.2,0.1,0.3,0.2,0.4,0.3C144.5,15.5,144.5,15.7,144.5,16.1z M144.5,17.1c0,0.5-0.1,0.9-0.3,1.2
						c-0.2,0.4-0.4,0.5-0.8,0.5c-0.1,0-0.2,0-0.3-0.1s-0.2-0.1-0.3-0.2c-0.1,0.2-0.3,0.4-0.4,0.5c-0.2,0.2-0.4,0.3-0.7,0.3
						c-0.3,0-0.5-0.1-0.6-0.3s-0.2-0.4-0.2-0.8c0-0.2,0-0.3,0.1-0.5c0-0.1,0.1-0.3,0.2-0.5l0.2-0.1c0,0.1,0,0.1,0,0.3s0,0.2,0,0.3
						c0,0.1,0,0.3,0.1,0.4s0.1,0.2,0.3,0.2c0.3,0,0.5-0.2,0.7-0.5c0.1-0.2,0.2-0.5,0.3-1l0.2-0.1c0.1,0.3,0.1,0.5,0.1,0.6
						c0.1,0.2,0.2,0.3,0.4,0.3c0.2,0,0.4-0.2,0.6-0.5c0.1-0.3,0.2-0.5,0.2-0.8l0.2-0.1c0,0.1,0.1,0.3,0.1,0.4S144.5,17,144.5,17.1z
						 M143.7,14.6c0-0.1,0-0.3-0.1-0.4s-0.2-0.2-0.4-0.2c0,0-0.1,0-0.1,0.1s0,0.1,0,0.2c0,0.1,0,0.3,0.1,0.3s0.2,0.2,0.4,0.3
						c0,0,0-0.1,0.1-0.2S143.7,14.6,143.7,14.6z"/>
					<path d="M147.8,28.6c0,0.7-0.3,1.5-0.9,2.2c-0.5,0.7-1.2,1.3-2,1.7c-0.8,0.5-1.4,0.7-1.9,0.7c-0.4,0-0.9-0.1-1.5-0.2
						c-0.4-0.1-0.9-0.3-1.4-0.5c-0.5-0.2-0.9-0.4-1.4-0.5l0.2-0.4c0.4,0.1,0.9,0.2,1.3,0.3s0.9,0.1,1.3,0.1c0.8,0,1.7-0.3,2.6-0.8
						c0.8-0.5,1.5-1.1,2.1-1.9s0.9-1.4,0.9-2c0-0.5-0.1-1.1-0.4-1.6c-0.2-0.5-0.6-0.9-1-1.4l0.6-1.5c0.5,0.5,0.9,1,1.2,1.5
						c0.3,0.6,0.4,1.2,0.4,1.9V28.6z"/>
					<path d="M151.9,28.6h-4.8v-1.7h3.8l-1.2-8.3l-0.5-0.2c0-0.4,0-0.9,0.1-1.3s0.2-0.8,0.4-1.1l0.1,0.1c0,0.4,0.2,0.7,0.6,0.8
						c0.3,0.1,0.7,0.3,1,0.4c0,0.3,0,0.7-0.1,1s-0.1,0.6-0.2,0.8l-0.5-0.2l1.2,7.7V28.6z"/>
					<path d="M155.2,26.1c0,0.5-0.1,1-0.3,1.5c-0.1,0.3-0.3,0.7-0.6,1.2l-0.2-0.1c0-0.2,0-0.4,0.1-0.7s0-0.4,0-0.5
						c0-0.7-0.1-1.6-0.2-2.8s-0.2-2.5-0.4-3.8c-0.1-0.8-0.2-1.6-0.3-2.5c0.1-0.3,0.3-0.6,0.4-0.9s0.3-0.6,0.5-0.9
						c0.1,0.7,0.2,1.8,0.4,3s0.3,2.5,0.4,3.5C155.1,24.4,155.2,25.4,155.2,26.1z"/>
					<path class="st0" d="M167.5,31.2c0,0.3-0.2,0.6-0.5,0.9c-0.6,0.2-1.5,0.6-2.8,1.1c0-0.3,0.1-0.5,0.4-0.8
						C165.1,32.2,166.1,31.8,167.5,31.2z"/>
					<path class="st0" d="M168.9,26.2l-0.5,1.6c-1,0.2-1.8,0.5-2.4,0.8c-0.7,0.4-1.4,0.8-2,1.4l-0.3-0.2c0.1-0.3,0.2-0.6,0.3-0.8
						c0.1-0.2,0.3-0.4,0.4-0.6l-1.1-0.6c-0.3-0.2-0.5-0.5-0.5-0.7c0-0.2,0.1-0.6,0.4-1.1c0.3-0.7,0.7-1.2,1.1-1.6
						c0.5-0.6,1-0.8,1.6-0.8c0.5,0,0.9,0.1,1.2,0.4c0.1,0.1,0.2,0.2,0.5,0.5l-0.5,1.3c-0.2-0.2-0.4-0.3-0.4-0.3
						c-0.4-0.3-0.7-0.4-1-0.4c-0.3,0-0.6,0.1-1,0.3s-0.5,0.4-0.5,0.6c0,0.3,0.2,0.5,0.6,0.8c0.3,0.2,0.8,0.4,1.4,0.6
						C167,26.8,167.9,26.4,168.9,26.2z"/>
					<path class="st0" d="M173.2,26.1c0,0.5-0.1,1-0.3,1.5c-0.1,0.3-0.3,0.7-0.6,1.2l-0.2-0.1c0-0.2,0-0.4,0.1-0.7s0-0.4,0-0.5
						c0-0.7-0.1-1.6-0.2-2.8s-0.2-2.5-0.4-3.8c-0.1-0.8-0.2-1.6-0.3-2.5c0.1-0.3,0.3-0.6,0.4-0.9s0.3-0.6,0.5-0.9
						c0.1,0.7,0.2,1.8,0.4,3s0.3,2.5,0.4,3.5C173.1,24.4,173.2,25.4,173.2,26.1z"/>
					<path class="st0" d="M183.8,28.6c0,0.7-0.3,1.5-0.9,2.2c-0.5,0.7-1.2,1.3-2,1.7c-0.8,0.5-1.4,0.7-1.9,0.7
						c-0.4,0-0.9-0.1-1.5-0.2c-0.4-0.1-0.9-0.3-1.4-0.5c-0.5-0.2-0.9-0.4-1.4-0.5l0.2-0.4c0.4,0.1,0.9,0.2,1.3,0.3s0.9,0.1,1.3,0.1
						c0.8,0,1.7-0.3,2.6-0.8c0.8-0.5,1.5-1.1,2.1-1.9s0.9-1.4,0.9-2c0-0.5-0.1-1.1-0.4-1.6c-0.2-0.5-0.6-0.9-1-1.4l0.6-1.5
						c0.5,0.5,0.9,1,1.2,1.5c0.3,0.6,0.4,1.2,0.4,1.9V28.6z"/>
					<path class="st0" d="M194.4,28.6h-11.3v-1.7h8c-0.7-0.5-1.2-0.9-1.7-1.2c-0.6-0.4-1.1-0.6-1.6-0.8c-0.5-0.2-1.1-0.3-1.6-0.3
						c-0.3,0-0.7,0-1,0.1c0.2-0.5,0.4-0.9,0.7-1.2c0.4-0.4,1-0.6,1.7-0.6c0.7,0,1.4,0.3,2.4,1c0.4,0.3,1.2,0.9,2.2,1.9
						c0.8,0.7,1.3,1.1,1.6,1.2h0.6V28.6z"/>
					<path class="st0" d="M200.4,17c0,0.3-0.2,0.6-0.5,0.9c-0.6,0.2-1.5,0.6-2.8,1.1c0-0.3,0.1-0.6,0.4-0.8
						C198,17.9,199,17.5,200.4,17z"/>
					<path class="st0" d="M211.3,28.6h-11.7c-0.4,0-0.7-0.1-1-0.2c-0.2-0.1-0.5-0.2-0.8-0.4c-0.3,0.2-0.5,0.4-0.8,0.5
						s-0.7,0.1-1.3,0.1h-1.9v-1.7h1.9c0.5,0,0.9,0,1.1-0.1c0.4-0.1,0.6-0.4,0.6-0.9c0-0.2,0-0.4,0-0.6s-0.1-0.4-0.1-0.6l0.4-0.6
						c0.2,0.9,0.5,1.6,0.9,2.1c0.4,0.5,0.9,0.8,1.5,0.8c0.5,0,1.2-0.1,1.9-0.4c0.8-0.3,1.5-0.6,2.1-1c0.9-0.7,1.5-1.1,1.7-1.2
						c0.5-0.3,1-0.6,1.4-0.7c0.5-0.2,1-0.2,1.6-0.2c0.9,0,1.6,0.3,2,0.8c0.4,0.5,0.6,1.1,0.6,2V28.6z M209.7,26.1
						c0-0.3-0.2-0.6-0.6-0.7s-0.9-0.3-1.4-0.3c-0.7,0-1.4,0.2-2.4,0.7c-0.7,0.4-1.5,0.7-2.2,1.1h4.5c0.7,0,1.2-0.1,1.6-0.2
						S209.7,26.4,209.7,26.1z"/>
					<path d="M228.6,28.6h-1.7c-1,0-1.8,0-2.3,0.1s-0.8,0.2-0.8,0.3c0,0.2,0.3,0.3,0.9,0.3c0.3,0,0.5,0,0.6,0s0.5,0,1,0.1
						c0.3,0,0.5,0.1,0.6,0.1c0.2,0.1,0.3,0.3,0.3,0.5c0,1.2-0.4,2.1-1.2,2.7c-0.9,0.6-2.3,0.9-4.3,0.9c-1.4,0-2.5-0.2-3.3-0.7
						c-0.9-0.5-1.3-1.2-1.3-2.2c0-0.8,0.2-1.6,0.6-2.4c0.1-0.3,0.5-1,1.2-2l0.4,0.2c-0.2,0.4-0.5,0.8-0.7,1.3
						c-0.4,0.7-0.6,1.3-0.6,1.8c0,0.8,0.4,1.4,1.3,1.8c0.8,0.4,1.9,0.6,3.3,0.6c0.9,0,1.8-0.1,2.5-0.2c0.9-0.2,1.3-0.4,1.3-0.7
						c0-0.1,0-0.2-0.1-0.2s-0.3-0.1-0.5-0.1c-0.2,0-0.5,0-0.8-0.1s-0.6,0-0.7,0c-0.4,0-0.7-0.1-0.9-0.2s-0.3-0.3-0.3-0.5
						c0-0.8,0.2-1.5,0.7-2c0.4-0.4,0.9-0.7,1.6-0.9c0.5-0.1,1-0.2,1.6-0.2h1.7V28.6z M222.5,34.8l-0.9,0.8l-1.1-0.7l0.9-0.9
						L222.5,34.8z M224.6,34.8l-0.9,0.8l-1.1-0.7l0.9-0.9L224.6,34.8z"/>
					<path d="M234,28.6h-6v-1.7h5.2c0-0.6-0.1-1.1-0.2-1.6c-0.3,0.1-0.6,0.2-0.8,0.2c-0.3,0.1-0.6,0.1-0.8,0.1
						c-0.5,0-0.9-0.1-1.2-0.4c-0.3-0.3-0.5-0.7-0.5-1.2c0-0.9,0.2-1.7,0.5-2.4c0.4-0.8,0.8-1.1,1.4-1.1c0.8,0,1.4,0.6,1.8,1.9
						c0.4,1,0.5,2.2,0.5,3.6V28.6z M232.7,17.7l-0.8,1.4l-1.6-0.8l0.7-1.4L232.7,17.7z M232.4,23.5c-0.1-0.2-0.2-0.5-0.4-0.7
						c-0.3-0.3-0.5-0.5-0.8-0.5c-0.2,0-0.3,0.1-0.4,0.2s-0.2,0.3-0.2,0.5c0,0.5,0.3,0.8,0.9,0.8c0.1,0,0.3,0,0.5-0.1
						S232.2,23.6,232.4,23.5z"/>
				</g>
			</g>
		</g>
	</g>
</g>
</svg>
