<?xml version="1.0" encoding="utf-8"?>
<!-- Generator: Adobe Illustrator 22.0.1, SVG Export Plug-In . SVG Version: 6.00 Build 0)  -->
<svg version="1.1" id="Layer_1" xmlns="http://www.w3.org/2000/svg" xmlns:xlink="http://www.w3.org/1999/xlink" x="0px" y="0px"
	 viewBox="0 0 276.8 46.1" style="enable-background:new 0 0 276.8 46.1;" xml:space="preserve">
<style type="text/css">
	.st0{fill:#BA0017;}
</style>
<g>
	<g>
		<path class="st0" d="M58.7,32.8c-0.7,0.3-1.4,0.5-2.1,0.8c-0.7,0.2-1.3,0.5-2,0.7c-0.1,0-0.1,0-0.1-0.1c0.1-0.1,0.1-0.3,0.2-0.4
			c0.1-0.2,0.1-0.3,0.2-0.4c0-0.1,0.1-0.1,0.2-0.2c0.2-0.1,0.4-0.2,0.7-0.3c0.3-0.1,0.6-0.2,1-0.4s0.8-0.3,1.2-0.4
			c0.4-0.1,0.8-0.3,1.2-0.4c0.1,0,0.1,0,0.1,0.1c0,0.1-0.1,0.1-0.1,0.2s-0.1,0.2-0.1,0.2c0,0.1-0.1,0.2-0.1,0.2
			c0,0.1-0.1,0.1-0.1,0.2C58.8,32.7,58.8,32.7,58.7,32.8C58.7,32.8,58.7,32.8,58.7,32.8z"/>
		<path class="st0" d="M58.5,22.4C58.5,22.4,58.5,22.4,58.5,22.4c-0.1,0.1-0.1,0.1-0.2,0l-1.2-0.9l-0.8,1.1c0,0.1-0.1,0.1-0.2,0
			l-1.3-1c0,0-0.1-0.1,0-0.1l0.8-1.2c0,0,0.1-0.1,0.1-0.1s0,0,0.1,0l1.2,0.9l0.8-1.1c0-0.1,0.1-0.1,0.1,0l1.3,1.1c0,0,0,0.1,0,0.1
			L58.5,22.4z M55.9,25.8C55.9,25.8,55.9,25.8,55.9,25.8c-0.1-0.1-0.1-0.2,0-0.3c0-0.1,0.1-0.3,0.1-0.5c0.1-0.2,0.1-0.3,0.2-0.4
			c0.1-0.1,0.1-0.2,0.1-0.2c1,0.2,1.7,0.4,2.2,0.9s0.7,1,0.7,1.8c0,0.5-0.1,1-0.4,1.6c-0.1,0.2-0.2,0.4-0.3,0.5s-0.3,0.3-0.5,0.4
			c-0.2,0.1-0.4,0.2-0.6,0.3S57.1,30,56.9,30c-0.3,0-0.6-0.1-0.9-0.2c-0.2-0.1-0.4-0.3-0.5-0.5c-0.1-0.2-0.2-0.5-0.2-0.7
			s0-0.6,0-0.9c0.1-0.3,0.1-0.7,0.2-1S55.8,26.1,55.9,25.8z M56.4,26.1c-0.1,0.2-0.2,0.4-0.3,0.7s-0.1,0.4-0.1,0.6s0,0.3,0.1,0.5
			c0.1,0.1,0.2,0.2,0.3,0.3c0.1,0.1,0.3,0.1,0.5,0.1c0.2,0,0.4,0,0.6,0c0.2,0,0.4-0.1,0.6-0.2c0.2-0.1,0.4-0.2,0.5-0.4
			c0-0.2-0.1-0.4-0.3-0.5s-0.4-0.4-0.6-0.5c-0.2-0.2-0.5-0.3-0.7-0.4C56.8,26.2,56.6,26.1,56.4,26.1z"/>
		<path class="st0" d="M72.6,13c-0.4,0.2-0.7,0.3-1.1,0.5c-0.4,0.2-0.8,0.3-1.2,0.5c-0.4,0.2-0.7,0.3-1.1,0.5s-0.6,0.3-0.8,0.4
			c0,0-0.1,0-0.1,0s0-0.1,0-0.1c0,0,0.1-0.1,0.1-0.2c0.1-0.1,0.1-0.2,0.2-0.3c0.1-0.1,0.1-0.2,0.2-0.3c0-0.1,0.1-0.1,0.1-0.2
			c0.1-0.1,0.1-0.2,0.2-0.2l4-1.7c0.1,0,0.1,0,0.1,0.1c0,0.1-0.1,0.1-0.1,0.2c0,0.1-0.1,0.2-0.1,0.3c0,0.1-0.1,0.2-0.1,0.3
			c0,0.1-0.1,0.2-0.1,0.2C72.8,12.8,72.7,12.9,72.6,13z"/>
		<path class="st0" d="M71.1,15.4c0.1,0.7,0.1,1.3,0.2,1.9c0.1,0.6,0.1,1.2,0.2,1.7c0.1,0.6,0.1,1.1,0.2,1.6c0.1,0.5,0.1,1,0.2,1.5
			c0.2,1,0.3,1.9,0.4,2.6c0.1,0.7,0.2,1.2,0.3,1.6c0.1,0.4,0.2,0.6,0.3,0.9s0.3,0.5,0.5,0.6c0.2,0.2,0.4,0.3,0.7,0.4
			s0.7,0.1,1.1,0.1h0.2c0.2,0,0.4,0.1,0.5,0.3C76,28.8,76,29,76,29.2c0,0.2-0.1,0.4-0.2,0.6C75.8,30,75.6,30,75.4,30h-0.2
			c-0.3,0-0.7,0-1-0.1s-0.7-0.2-0.9-0.3c-0.3-0.2-0.6-0.4-0.8-0.7c-0.2-0.3-0.4-0.7-0.6-1.3c-0.1-0.3-0.2-0.7-0.2-1
			s-0.1-0.6-0.2-0.9c-0.1-0.3-0.1-0.6-0.2-1c0-0.3-0.1-0.7-0.2-1.2c-0.1,0.5-0.2,1-0.3,1.6c-0.1,0.6-0.3,1.1-0.6,1.6
			c-0.3,0.5-0.6,1-0.9,1.5s-0.8,0.9-1.3,1.2c-0.7,0.5-1.5,0.8-2.2,1.1c-0.8,0.2-1.6,0.4-2.4,0.6c-0.1,0-0.2,0-0.3,0
			c-0.1,0-0.1,0-0.2-0.1c0,0,0-0.1,0-0.1c0,0,0.1-0.1,0.1-0.1c1.2-0.5,2.3-1.1,3.3-1.8c1-0.7,2-1.5,2.9-2.4
			c-0.1-0.4-0.2-0.8-0.4-1.3c-0.2-0.4-0.4-0.8-0.7-1.2s-0.5-0.8-0.9-1.2s-0.7-0.7-1-1.1c-0.4-0.3-0.7-0.6-1.1-0.9s-0.7-0.5-1.1-0.7
			c-0.1,0.2-0.1,0.3-0.2,0.3c-0.1,0-0.2,0.1-0.3,0.1c-0.2,0-0.4,0-0.6-0.1c-0.3-0.1-0.5-0.2-0.7-0.3c-0.2-0.1-0.5-0.3-0.6-0.5
			c-0.2-0.2-0.3-0.4-0.3-0.6c0-0.1,0-0.2,0-0.3c0-0.1,0-0.3,0.1-0.5c0-0.2,0-0.4,0.1-0.6c0-0.2,0.1-0.4,0.1-0.5
			c0-0.2,0.1-0.3,0.2-0.3s0.2,0,0.3,0.1c0.5,0.3,1.1,0.6,1.7,1c0.6,0.4,1.1,0.9,1.7,1.4s1.1,1,1.5,1.6s0.9,1.1,1.3,1.7
			c0.4,0.6,0.7,1.2,0.9,1.8s0.3,1.2,0.3,1.7c0.2-0.4,0.4-0.8,0.6-1.1c0.1-0.3,0.3-0.7,0.3-1s0.1-0.7,0.2-1.1c0-0.4,0-0.8,0-1.2
			c0-0.8,0-1.5-0.1-2.3c-0.1-0.8-0.1-1.6-0.2-2.3c0-0.1,0-0.3,0-0.4c0-0.2,0.1-0.3,0.2-0.5c0.1-0.2,0.2-0.3,0.2-0.4
			c0.1-0.1,0.2-0.3,0.2-0.4C71,15.3,71,15.3,71.1,15.4C71.1,15.4,71.1,15.4,71.1,15.4z"/>
		<path class="st0" d="M83,18.5c-0.1,0.3-0.3,0.5-0.5,0.7c-0.2,0.2-0.4,0.2-0.8,0.3c-0.3,0-0.5,0-0.6-0.1c-0.2-0.1-0.3-0.3-0.3-0.7
			c0-0.1,0-0.3,0-0.5c0-0.2,0.1-0.3,0.1-0.4c0.1-0.1,0.1-0.2,0.2-0.3c0.1-0.1,0.1-0.2,0.2-0.2c0.1,0,0.1,0,0,0.2
			c0,0.1-0.1,0.2-0.1,0.3s0,0.2,0,0.3s0,0.2,0,0.3s0.1,0.1,0.1,0.2c0.1,0.1,0.2,0.1,0.3,0.1s0.2,0,0.4-0.1c0.1-0.1,0.2-0.1,0.3-0.2
			c0.1-0.1,0.2-0.2,0.3-0.3c0.1-0.1,0.1-0.2,0.2-0.4c0-0.1,0.1-0.3,0.1-0.4c0,0,0-0.1,0-0.1s0-0.1,0-0.2c0,0,0-0.1,0.1-0.1
			c0,0,0.1-0.1,0.1-0.1c0,0,0,0,0.1,0.1c0,0,0,0.1,0,0.1c0,0,0,0.1,0,0.1s0,0.1,0,0.1c0,0.2,0,0.3,0.1,0.5c0.1,0.1,0.2,0.2,0.4,0.2
			c0.1,0,0.3,0,0.4,0c0.2,0,0.3-0.1,0.4-0.2c0,0,0-0.1,0-0.1c0-0.1,0-0.1,0-0.2s0-0.1,0-0.2c0-0.1,0-0.1,0-0.1c0,0,0-0.1,0-0.2
			c0-0.1,0.1-0.2,0.1-0.3s0.1-0.2,0.1-0.3c0-0.1,0.1-0.1,0.1-0.1c0.1,0,0.1,0.1,0.2,0.2c0,0.1,0.1,0.2,0.1,0.4c0,0.2,0,0.3,0,0.5
			c0,0.2,0,0.3,0,0.4c0,0.1-0.1,0.2-0.1,0.4c-0.1,0.1-0.1,0.2-0.2,0.3c-0.1,0.1-0.2,0.2-0.3,0.3s-0.2,0.1-0.4,0.1
			c-0.3,0.1-0.5,0-0.6,0C83.3,18.8,83.2,18.7,83,18.5z"/>
		<path class="st0" d="M85,17.9c-0.4,0.2-0.7,0.3-1.1,0.5c-0.4,0.2-0.8,0.3-1.2,0.5c-0.4,0.2-0.7,0.3-1.1,0.5s-0.6,0.3-0.8,0.4
			c0,0-0.1,0-0.1,0s0-0.1,0-0.1c0,0,0.1-0.1,0.1-0.2c0.1-0.1,0.1-0.2,0.2-0.3c0.1-0.1,0.1-0.2,0.2-0.3c0-0.1,0.1-0.1,0.1-0.2
			c0.1-0.1,0.1-0.2,0.2-0.2l4-1.7c0.1,0,0.1,0,0.1,0.1c0,0.1-0.1,0.1-0.1,0.2c0,0.1-0.1,0.2-0.1,0.3c0,0.1-0.1,0.2-0.1,0.3
			c0,0.1-0.1,0.2-0.1,0.2C85.1,17.8,85.1,17.9,85,17.9z"/>
		<path class="st0" d="M80.7,28.3c0.3-0.4,0.7-0.8,1-1.2c0.4-0.4,0.7-0.8,1.1-1.2c0.4-0.4,0.8-0.7,1.2-1.1c0.4-0.3,0.9-0.6,1.4-0.9
			c0.2-0.1,0.5-0.2,0.8-0.2c0.3,0,0.6,0,0.9,0s0.6,0.1,0.9,0.2c0.3,0.1,0.6,0.2,0.8,0.4c0.2,0.2,0.4,0.4,0.6,0.6
			c0.2,0.2,0.2,0.5,0.3,0.8c0,0.5-0.1,1-0.4,1.5s-0.5,0.8-0.8,1.2c0.4,0,0.7,0,1.1,0c0.4,0,0.7,0,1,0h0.2c0.2,0,0.4,0.1,0.5,0.3
			c0.1,0.2,0.2,0.4,0.2,0.6c0,0.2-0.1,0.4-0.2,0.6C91.2,30,91,30,90.8,30h-0.2c-0.4,0-0.8,0-1.2,0c-0.5,0-0.9,0-1.5,0
			c-0.5,0-1.1,0-1.6,0c-0.6,0-1.1,0-1.7,0c-0.8,0.1-1.5,0.2-2.2,0.1c-0.7,0-1.4-0.1-2-0.2c-0.1,0.1-0.1,0.2-0.2,0.4
			s-0.1,0.3-0.2,0.4c-0.1,0.2-0.2,0.3-0.3,0.2c-0.1,0-0.1-0.1-0.1-0.1c0-0.1,0-0.2,0-0.3c0-0.1,0.1-0.3,0.1-0.4
			c0-0.1,0.1-0.2,0.1-0.4c-0.2-0.1-0.4-0.1-0.5-0.2s-0.3-0.2-0.4-0.3c-0.1-0.1-0.3-0.2-0.4-0.3c-0.1-0.1-0.3-0.3-0.4-0.4
			c-0.4,0.6-0.8,1-1.3,1.2s-1,0.3-1.7,0.3H75c-0.2,0-0.4-0.1-0.5-0.3c-0.1-0.2-0.2-0.4-0.2-0.6c0-0.2,0.1-0.4,0.2-0.6
			c0.1-0.2,0.3-0.3,0.5-0.3h0.2c0.4,0,0.8,0,1.1-0.1c0.3,0,0.6-0.1,0.8-0.3c0.3-0.2,0.5-0.4,0.7-0.7c0.2-0.3,0.4-0.6,0.6-1.1
			c0-0.1,0.1-0.2,0.2-0.2s0.1,0,0.1,0.1c0,0.3,0.1,0.5,0.2,0.8c0.1,0.2,0.3,0.5,0.5,0.6c0.2,0.2,0.4,0.3,0.7,0.5
			C80.3,28.2,80.5,28.3,80.7,28.3z M81.6,28.3c0.3,0,0.7,0.1,1.1,0.1s0.9,0,1.3-0.1c0.5,0,0.9-0.1,1.4-0.2c0.5-0.1,0.9-0.2,1.3-0.4
			c0.4-0.1,0.8-0.3,1.1-0.5c0.3-0.2,0.6-0.4,0.9-0.6c-0.2-0.3-0.4-0.5-0.6-0.8c-0.3-0.2-0.6-0.4-0.9-0.5s-0.7-0.2-1-0.2
			s-0.6,0.1-0.9,0.2c-0.4,0.1-0.7,0.3-1,0.5c-0.3,0.2-0.7,0.5-1,0.7c-0.3,0.3-0.6,0.5-0.9,0.8S81.9,28,81.6,28.3z"/>
		<path class="st0" d="M91.6,15.8c0-0.1,0-0.1,0.1-0.1c0,0,0.1,0,0.1,0.1c0.1,0.2,0.1,0.3,0.2,0.5c0.1,0.2,0.2,0.3,0.2,0.5
			c0.1,0.2,0.2,0.3,0.3,0.5c0.1,0.1,0.3,0.3,0.4,0.4c-0.1,0.2-0.2,0.3-0.3,0.4c-0.1,0.1-0.1,0.2-0.2,0.3c0,0.1-0.1,0.2-0.1,0.3
			c0,0.1,0,0.2,0,0.3c0.1,0.7,0.2,1.3,0.3,2c0.1,0.7,0.2,1.3,0.3,2s0.2,1.3,0.3,2s0.1,1.3,0.1,2c0,0.2,0,0.5,0,0.7
			c0,0.2-0.1,0.5-0.2,0.7s-0.2,0.4-0.3,0.6c-0.1,0.2-0.2,0.3-0.4,0.5c-0.2,0.2-0.5,0.3-0.8,0.4S91,30,90.6,30h-0.2
			c-0.2,0-0.4-0.1-0.5-0.3c-0.1-0.2-0.2-0.4-0.2-0.6c0-0.2,0.1-0.4,0.2-0.6c0.1-0.2,0.3-0.3,0.5-0.3h0.2c0.2,0,0.5,0,0.7,0
			s0.4,0,0.6-0.1s0.3-0.1,0.5-0.2c0.1-0.1,0.2-0.2,0.3-0.3c-0.1-1.5-0.3-2.9-0.5-4.4s-0.4-2.9-0.7-4.3c0-0.3-0.1-0.6-0.1-0.9
			c0-0.3-0.1-0.6-0.3-0.8c-0.1-0.1-0.1-0.1-0.1-0.2s0-0.1,0.1-0.2c0.1-0.2,0.2-0.4,0.3-0.6C91.4,16.2,91.5,16,91.6,15.8z"/>
		<path class="st0" d="M96.5,16.4c0,0,0.1,0,0.1,0c0,0,0,0.1,0,0.1c0,0,0,0.1,0,0.1s0,0.1,0,0.1c0,0.3,0,0.5,0,0.8s0.1,0.5,0.1,0.8
			c0.1,0.6,0.2,1.3,0.3,1.9c0.1,0.7,0.2,1.3,0.3,2c0.1,0.7,0.2,1.3,0.3,2c0.1,0.7,0.2,1.3,0.3,1.9c0,0.2,0,0.5,0.1,0.9
			c0,0.3,0,0.7,0,1c0,0.3-0.1,0.7-0.1,1c-0.1,0.3-0.1,0.6-0.2,0.8c0,0.1-0.1,0.2-0.2,0.2c0,0-0.1,0-0.1-0.1
			c-0.1-1.2-0.2-2.5-0.4-3.7c-0.2-1.3-0.4-2.6-0.5-3.9s-0.3-2.6-0.5-3.9c0-0.3,0.1-0.7,0.3-1c0.1-0.2,0.2-0.4,0.2-0.5
			C96.3,16.7,96.4,16.5,96.5,16.4z"/>
		<path d="M108.8,19.8c-0.4,0.2-0.7,0.3-1.1,0.5c-0.4,0.2-0.8,0.3-1.2,0.5c-0.4,0.2-0.7,0.3-1.1,0.5s-0.6,0.3-0.8,0.4
			c0,0-0.1,0-0.1,0s0-0.1,0-0.1c0,0,0.1-0.1,0.1-0.2c0.1-0.1,0.1-0.2,0.2-0.3c0.1-0.1,0.1-0.2,0.2-0.3c0-0.1,0.1-0.1,0.1-0.2
			c0.1-0.1,0.1-0.2,0.2-0.2l4-1.7c0.1,0,0.1,0,0.1,0.1c0,0.1-0.1,0.1-0.1,0.2c0,0.1-0.1,0.2-0.1,0.3c0,0.1-0.1,0.2-0.1,0.3
			c0,0.1-0.1,0.2-0.1,0.2C109,19.7,108.9,19.7,108.8,19.8z"/>
		<path d="M109.6,28.1c-0.1,0.3-0.3,0.5-0.5,0.7s-0.6,0.3-1,0.3c-0.2,0-0.4,0-0.5-0.1c-0.2-0.1-0.3-0.2-0.4-0.4
			c-0.1-0.2-0.2-0.3-0.3-0.5c-0.1-0.2-0.1-0.4-0.1-0.6c0-0.1,0-0.3,0.1-0.5c0-0.2,0.1-0.4,0.2-0.6s0.2-0.4,0.3-0.6
			c0.1-0.2,0.2-0.4,0.3-0.5c0.1-0.2,0.3-0.3,0.4-0.4c0.1-0.1,0.3-0.1,0.4-0.1c0.3,0,0.5,0.1,0.8,0.3s0.4,0.5,0.6,0.8
			c0.2,0.3,0.3,0.7,0.4,1.1c0.1,0.4,0.1,0.8,0.1,1.2c0,0.5-0.1,1-0.2,1.6c-0.1,0.5-0.3,1.1-0.5,1.6s-0.4,1-0.7,1.5
			c-0.3,0.5-0.5,0.9-0.8,1.2c-0.3,0.3-0.6,0.6-0.9,0.8c-0.3,0.2-0.7,0.4-1.1,0.5s-0.7,0.2-1.1,0.2c-0.4,0-0.8,0.1-1.2,0
			c-0.4,0-0.8-0.1-1.3-0.1c-0.4-0.1-0.8-0.2-1.2-0.3c-0.1,0-0.1-0.1-0.1-0.1s0-0.1,0-0.2c0-0.1,0.1-0.1,0.1-0.1s0.1,0,0.2,0
			c0.6,0.1,1.1,0.1,1.7,0c0.6-0.1,1.1-0.2,1.6-0.4c0.4-0.2,0.9-0.4,1.3-0.6c0.4-0.3,0.8-0.5,1.2-0.9c0.3-0.2,0.5-0.5,0.8-0.8
			c0.3-0.3,0.5-0.6,0.7-1c0.2-0.3,0.4-0.7,0.5-1c0.1-0.3,0.2-0.7,0.3-1c0-0.1,0-0.1,0-0.2c0-0.1,0-0.2,0-0.2c0-0.1,0-0.2-0.1-0.2
			S109.7,28.2,109.6,28.1z M109.3,27.2c0,0,0-0.1-0.1-0.2c-0.1-0.1-0.1-0.2-0.2-0.3c-0.1-0.1-0.2-0.2-0.3-0.3
			c-0.1-0.1-0.3-0.1-0.4-0.1c-0.1,0-0.2,0-0.3,0.1c-0.1,0.1-0.2,0.2-0.2,0.3s-0.1,0.2-0.1,0.3c0,0.1,0,0.2,0,0.2
			c0.1,0.1,0.2,0.2,0.4,0.3s0.3,0.1,0.5,0.1c0.2,0,0.3-0.1,0.5-0.1C109.1,27.3,109.2,27.3,109.3,27.2z"/>
		<path d="M120.9,37.7c-0.7,0.3-1.4,0.5-2.1,0.8c-0.7,0.2-1.3,0.5-2,0.7c-0.1,0-0.1,0-0.1-0.1c0.1-0.1,0.1-0.3,0.2-0.4
			c0.1-0.2,0.1-0.3,0.2-0.4c0-0.1,0.1-0.1,0.2-0.2c0.2-0.1,0.4-0.2,0.7-0.3c0.3-0.1,0.6-0.2,1-0.4s0.8-0.3,1.2-0.4
			c0.4-0.1,0.8-0.3,1.2-0.4c0.1,0,0.1,0,0.1,0.1c0,0.1-0.1,0.1-0.1,0.2s-0.1,0.2-0.1,0.2c0,0.1-0.1,0.2-0.1,0.2
			c0,0.1-0.1,0.1-0.1,0.2C121.1,37.6,121.1,37.6,120.9,37.7C121,37.7,121,37.7,120.9,37.7z"/>
		<path d="M126.8,17.4c0,0.2,0,0.5-0.1,0.7c-0.1,0.2-0.2,0.4-0.3,0.6c-0.1,0.2-0.3,0.3-0.5,0.4s-0.5,0.2-0.7,0.2
			c-0.4,0-0.7-0.1-0.9-0.3c-0.2-0.2-0.4-0.5-0.4-0.9c0-0.2,0-0.4,0.1-0.7c0.1-0.3,0.2-0.5,0.3-0.8c0.1-0.3,0.3-0.5,0.5-0.7
			c0.2-0.2,0.4-0.3,0.7-0.3c0.3,0,0.5,0,0.7,0.2c0.2,0.1,0.3,0.3,0.4,0.5s0.2,0.4,0.2,0.6S126.8,17.2,126.8,17.4z M125.2,16.6
			c-0.1,0-0.2,0.1-0.3,0.1c-0.1,0.1-0.2,0.2-0.3,0.3s-0.2,0.2-0.2,0.3c-0.1,0.1-0.1,0.2-0.1,0.3c0,0.1,0,0.2,0.1,0.3
			s0.1,0.1,0.2,0.2s0.2,0.1,0.3,0.1s0.2,0,0.3,0c0.4,0,0.7-0.2,1-0.5c0-0.1,0-0.2,0-0.4s-0.1-0.3-0.2-0.4c-0.1-0.1-0.2-0.2-0.3-0.3
			C125.5,16.6,125.4,16.6,125.2,16.6z"/>
		<path d="M121.1,26.5c0-0.1,0-0.1,0.1-0.1c0,0,0.1,0,0.1,0.1c0.2,0.1,0.3,0.3,0.5,0.4c0.2,0.1,0.4,0.1,0.6,0.1
			c0.4,0,0.8-0.1,1.1-0.2c0.3-0.1,0.7-0.4,0.9-0.6c0.3-0.3,0.5-0.6,0.7-1c0.2-0.4,0.3-0.8,0.4-1.3c0-0.2,0.1-0.2,0.2-0.3
			c0.1,0,0.1,0.1,0.2,0.2c0.1,0.4,0.1,0.8,0.2,1.3c0.1,0.5,0.2,0.9,0.3,1.3c0.1,0.3,0.2,0.6,0.3,0.8c0.1,0.2,0.3,0.5,0.5,0.6
			c0.2,0.2,0.4,0.3,0.7,0.4s0.6,0.1,0.9,0.1h0.2c0.2,0,0.4,0.1,0.5,0.3c0.1,0.2,0.2,0.4,0.2,0.6c0,0.2-0.1,0.4-0.2,0.6
			c-0.1,0.2-0.3,0.3-0.5,0.3h-0.2c-0.9,0-1.6-0.3-2.2-1c-0.6-0.7-0.9-1.7-1.1-3c-0.1,0.3-0.2,0.6-0.4,0.9s-0.4,0.5-0.6,0.8
			c-0.2,0.2-0.5,0.4-0.7,0.5s-0.5,0.2-0.8,0.2c0,0.5-0.1,1-0.2,1.4c-0.1,0.5-0.2,0.9-0.3,1.3c-0.1,0.4-0.2,0.7-0.3,1.1
			c-0.1,0.3-0.2,0.6-0.4,0.8c-0.1,0.3-0.3,0.6-0.6,0.9c-0.2,0.3-0.5,0.5-0.8,0.8c-0.3,0.2-0.7,0.4-1,0.6c-0.4,0.2-0.8,0.3-1.2,0.3
			c-0.8,0.1-1.6,0.1-2.2,0s-1.2-0.3-1.7-0.4c-0.1,0-0.2-0.1-0.3-0.2s0-0.1,0-0.2c0-0.1,0.1-0.1,0.2-0.1c0.1,0,0.2,0,0.2,0
			c0.3,0.1,0.7,0.1,1.1,0.1c0.4,0,0.7-0.1,1.1-0.1c0.4-0.1,0.7-0.2,1.1-0.3c0.4-0.1,0.7-0.2,1-0.4c0.5-0.3,0.9-0.6,1.4-0.9
			c0.4-0.4,0.8-0.8,1.1-1.3c0.3-0.5,0.6-1,0.8-1.5c0.2-0.5,0.4-1.1,0.5-1.7c-0.2,0-0.4-0.1-0.6-0.1c-0.2,0-0.4-0.1-0.5-0.3
			c-0.1-0.1-0.1-0.1-0.1-0.2c0,0,0-0.1,0-0.2c0-0.2,0-0.4,0.1-0.7C121.1,26.9,121.1,26.7,121.1,26.5z M125.3,31l1.3,1.1
			c0.1,0,0.1,0.1,0,0.2l-0.9,1.1c0,0.1-0.1,0.1-0.2,0l-1.3-1.1c-0.1,0-0.1-0.1,0-0.2l0.9-1.1C125.2,31,125.3,30.9,125.3,31z"/>
		<path d="M136.7,18.5c-0.1,0.3-0.3,0.5-0.5,0.7c-0.2,0.2-0.4,0.2-0.8,0.3c-0.3,0-0.5,0-0.6-0.1c-0.2-0.1-0.3-0.3-0.3-0.7
			c0-0.1,0-0.3,0-0.5c0-0.2,0.1-0.3,0.1-0.4c0.1-0.1,0.1-0.2,0.2-0.3c0.1-0.1,0.1-0.2,0.2-0.2c0.1,0,0.1,0,0,0.2
			c0,0.1-0.1,0.2-0.1,0.3s0,0.2,0,0.3s0,0.2,0,0.3s0.1,0.1,0.1,0.2c0.1,0.1,0.2,0.1,0.3,0.1s0.2,0,0.4-0.1c0.1-0.1,0.2-0.1,0.3-0.2
			c0.1-0.1,0.2-0.2,0.3-0.3c0.1-0.1,0.1-0.2,0.2-0.4c0-0.1,0.1-0.3,0.1-0.4c0,0,0-0.1,0-0.1s0-0.1,0-0.2c0,0,0-0.1,0.1-0.1
			c0,0,0.1-0.1,0.1-0.1c0,0,0,0,0.1,0.1c0,0,0,0.1,0,0.1c0,0,0,0.1,0,0.1s0,0.1,0,0.1c0,0.2,0,0.3,0.1,0.5c0.1,0.1,0.2,0.2,0.4,0.2
			c0.1,0,0.3,0,0.4,0c0.2,0,0.3-0.1,0.4-0.2c0,0,0-0.1,0-0.1c0-0.1,0-0.1,0-0.2s0-0.1,0-0.2c0-0.1,0-0.1,0-0.1c0,0,0-0.1,0-0.2
			c0-0.1,0.1-0.2,0.1-0.3s0.1-0.2,0.1-0.3c0-0.1,0.1-0.1,0.1-0.1c0.1,0,0.1,0.1,0.2,0.2c0,0.1,0.1,0.2,0.1,0.4c0,0.2,0,0.3,0,0.5
			c0,0.2,0,0.3,0,0.4c0,0.1-0.1,0.2-0.1,0.4c-0.1,0.1-0.1,0.2-0.2,0.3c-0.1,0.1-0.2,0.2-0.3,0.3s-0.2,0.1-0.4,0.1
			c-0.3,0.1-0.5,0-0.6,0C137,18.8,136.8,18.7,136.7,18.5z"/>
		<path d="M138.7,17.9c-0.4,0.2-0.7,0.3-1.1,0.5c-0.4,0.2-0.8,0.3-1.2,0.5c-0.4,0.2-0.7,0.3-1.1,0.5s-0.6,0.3-0.8,0.4
			c0,0-0.1,0-0.1,0s0-0.1,0-0.1c0,0,0.1-0.1,0.1-0.2c0.1-0.1,0.1-0.2,0.2-0.3c0.1-0.1,0.1-0.2,0.2-0.3c0-0.1,0.1-0.1,0.1-0.2
			c0.1-0.1,0.1-0.2,0.2-0.2l4-1.7c0.1,0,0.1,0,0.1,0.1c0,0.1-0.1,0.1-0.1,0.2c0,0.1-0.1,0.2-0.1,0.3c0,0.1-0.1,0.2-0.1,0.3
			c0,0.1-0.1,0.2-0.1,0.2C138.8,17.8,138.7,17.9,138.7,17.9z"/>
		<path d="M134.4,28.3c0.3-0.4,0.7-0.8,1-1.2c0.4-0.4,0.7-0.8,1.1-1.2c0.4-0.4,0.8-0.7,1.2-1.1c0.4-0.3,0.9-0.6,1.4-0.9
			c0.2-0.1,0.5-0.2,0.8-0.2c0.3,0,0.6,0,0.9,0s0.6,0.1,0.9,0.2c0.3,0.1,0.6,0.2,0.8,0.4c0.2,0.2,0.4,0.4,0.6,0.6
			c0.2,0.2,0.2,0.5,0.3,0.8c0,0.5-0.1,1-0.4,1.5s-0.5,0.8-0.8,1.2c0.4,0,0.7,0,1.1,0c0.4,0,0.7,0,1,0h0.2c0.2,0,0.4,0.1,0.5,0.3
			c0.1,0.2,0.2,0.4,0.2,0.6c0,0.2-0.1,0.4-0.2,0.6c-0.1,0.2-0.3,0.3-0.5,0.3h-0.2c-0.4,0-0.8,0-1.2,0c-0.5,0-0.9,0-1.5,0
			c-0.5,0-1.1,0-1.6,0c-0.6,0-1.1,0-1.7,0c-0.8,0.1-1.5,0.2-2.2,0.1c-0.7,0-1.4-0.1-2-0.2c-0.1,0.1-0.1,0.2-0.2,0.4
			s-0.1,0.3-0.2,0.4c-0.1,0.2-0.2,0.3-0.3,0.2c-0.1,0-0.1-0.1-0.1-0.1c0-0.1,0-0.2,0-0.3c0-0.1,0.1-0.3,0.1-0.4
			c0-0.1,0.1-0.2,0.1-0.4c-0.2-0.1-0.4-0.1-0.5-0.2s-0.3-0.2-0.4-0.3c-0.1-0.1-0.3-0.2-0.4-0.3c-0.1-0.1-0.3-0.3-0.4-0.4
			c-0.4,0.6-0.8,1-1.3,1.2s-1,0.3-1.7,0.3h-0.2c-0.2,0-0.4-0.1-0.5-0.3c-0.1-0.2-0.2-0.4-0.2-0.6c0-0.2,0.1-0.4,0.2-0.6
			c0.1-0.2,0.3-0.3,0.5-0.3h0.2c0.4,0,0.8,0,1.1-0.1c0.3,0,0.6-0.1,0.8-0.3c0.3-0.2,0.5-0.4,0.7-0.7c0.2-0.3,0.4-0.6,0.6-1.1
			c0-0.1,0.1-0.2,0.2-0.2s0.1,0,0.1,0.1c0,0.3,0.1,0.5,0.2,0.8c0.1,0.2,0.3,0.5,0.5,0.6c0.2,0.2,0.4,0.3,0.7,0.5
			C134,28.2,134.2,28.3,134.4,28.3z M135.3,28.3c0.3,0,0.7,0.1,1.1,0.1s0.9,0,1.3-0.1c0.5,0,0.9-0.1,1.4-0.2
			c0.5-0.1,0.9-0.2,1.3-0.4c0.4-0.1,0.8-0.3,1.1-0.5c0.3-0.2,0.6-0.4,0.9-0.6c-0.2-0.3-0.4-0.5-0.6-0.8c-0.3-0.2-0.6-0.4-0.9-0.5
			s-0.7-0.2-1-0.2s-0.6,0.1-0.9,0.2c-0.4,0.1-0.7,0.3-1,0.5c-0.3,0.2-0.7,0.5-1,0.7c-0.3,0.3-0.6,0.5-0.9,0.8S135.6,28,135.3,28.3z"
			/>
		<path d="M145.2,15.8c0-0.1,0-0.1,0.1-0.1c0,0,0.1,0,0.1,0.1c0.1,0.2,0.1,0.3,0.2,0.5c0.1,0.2,0.2,0.3,0.2,0.5
			c0.1,0.2,0.2,0.3,0.3,0.5c0.1,0.1,0.3,0.3,0.4,0.4c-0.1,0.2-0.2,0.3-0.3,0.4c-0.1,0.1-0.1,0.2-0.2,0.3c0,0.1-0.1,0.2-0.1,0.3
			c0,0.1,0,0.2,0,0.3c0.1,0.7,0.2,1.3,0.3,2c0.1,0.7,0.2,1.3,0.3,2s0.2,1.3,0.3,2s0.1,1.3,0.1,2c0,0.2,0,0.5,0,0.7
			c0,0.2-0.1,0.5-0.2,0.7s-0.2,0.4-0.3,0.6c-0.1,0.2-0.2,0.3-0.4,0.5c-0.2,0.2-0.5,0.3-0.8,0.4s-0.7,0.1-1.1,0.1h-0.2
			c-0.2,0-0.4-0.1-0.5-0.3c-0.1-0.2-0.2-0.4-0.2-0.6c0-0.2,0.1-0.4,0.2-0.6c0.1-0.2,0.3-0.3,0.5-0.3h0.2c0.2,0,0.5,0,0.7,0
			s0.4,0,0.6-0.1s0.3-0.1,0.5-0.2c0.1-0.1,0.2-0.2,0.3-0.3c-0.1-1.5-0.3-2.9-0.5-4.4s-0.4-2.9-0.7-4.3c0-0.3-0.1-0.6-0.1-0.9
			c0-0.3-0.1-0.6-0.3-0.8c-0.1-0.1-0.1-0.1-0.1-0.2s0-0.1,0.1-0.2c0.1-0.2,0.2-0.4,0.3-0.6C145,16.2,145.1,16,145.2,15.8z"/>
		<path d="M148.8,17.7c0-0.3,0.1-0.5,0.2-0.7c0.1-0.2,0.2-0.5,0.3-0.7c0,0,0-0.1,0.1-0.1c0,0,0.1,0,0.1,0.1c0.1,0.4,0.2,0.8,0.3,1.2
			s0.2,0.9,0.2,1.3c0.1,0.5,0.2,1,0.2,1.6c0.1,0.6,0.1,1.2,0.2,1.9c0,0.5,0.1,1,0.1,1.4c0,0.4,0.1,0.7,0.1,1.1
			c0,0.3,0.1,0.6,0.1,0.9s0.1,0.5,0.1,0.8c0.1,0.4,0.2,0.7,0.3,0.9c0.1,0.3,0.3,0.5,0.5,0.6c0.2,0.2,0.4,0.3,0.7,0.4
			s0.6,0.1,0.9,0.1h0.1c0.2,0,0.4,0.1,0.5,0.3c0.1,0.2,0.2,0.4,0.2,0.6c0,0.2-0.1,0.4-0.2,0.6c-0.1,0.2-0.3,0.3-0.5,0.3h-0.1
			c-0.5,0-1-0.1-1.4-0.3c-0.4-0.2-0.7-0.4-0.9-0.7s-0.4-0.6-0.6-1c-0.1-0.4-0.2-0.8-0.3-1.3c-0.1-0.4-0.1-0.8-0.2-1.3
			c0-0.4-0.1-0.9-0.1-1.3s-0.1-0.8-0.1-1.2c0-0.4-0.1-0.7-0.1-1.1c-0.1-0.6-0.2-1.3-0.3-1.9c-0.1-0.7-0.2-1.3-0.5-2.1
			C148.8,17.9,148.8,17.8,148.8,17.7C148.8,17.8,148.8,17.8,148.8,17.7z"/>
		<path d="M157.2,36.6c-0.7,0.3-1.4,0.5-2.1,0.8c-0.7,0.2-1.3,0.5-2,0.7c-0.1,0-0.1,0-0.1-0.1c0.1-0.1,0.1-0.3,0.2-0.4
			c0.1-0.2,0.1-0.3,0.2-0.4c0-0.1,0.1-0.1,0.2-0.2c0.2-0.1,0.4-0.2,0.7-0.3c0.3-0.1,0.6-0.2,1-0.4s0.8-0.3,1.2-0.4
			c0.4-0.1,0.8-0.3,1.2-0.4c0.1,0,0.1,0,0.1,0.1c0,0.1-0.1,0.1-0.1,0.2s-0.1,0.2-0.1,0.2c0,0.1-0.1,0.2-0.1,0.2
			c0,0.1-0.1,0.1-0.1,0.2C157.3,36.5,157.3,36.5,157.2,36.6C157.3,36.6,157.2,36.6,157.2,36.6z"/>
		<path d="M155.7,24.3C155.8,24.2,155.8,24.2,155.7,24.3c0.1-0.1,0.2-0.1,0.3,0c0.2,0.2,0.4,0.4,0.5,0.6c0.2,0.2,0.3,0.5,0.4,0.7
			c0.1,0.3,0.2,0.5,0.3,0.8c0.1,0.3,0.1,0.5,0.1,0.8c0,0.1,0,0.3,0,0.4c0,0.2,0,0.3-0.1,0.5c0,0.2-0.1,0.3-0.1,0.4s-0.1,0.3-0.2,0.3
			c-0.2,0.3-0.4,0.5-0.7,0.6c-0.3,0.2-0.6,0.3-1,0.3s-0.7,0.1-1.1,0.2c-0.4,0-0.7,0-1,0H153c-0.2,0-0.4-0.1-0.5-0.3
			c-0.1-0.2-0.2-0.4-0.2-0.6c0-0.2,0.1-0.4,0.2-0.6c0.1-0.2,0.3-0.3,0.5-0.3h0.2c0.2,0,0.4,0,0.7,0c0.3,0,0.6,0,0.9,0s0.6-0.1,1-0.1
			c0.3-0.1,0.6-0.1,0.7-0.2c0.1-0.1,0.2-0.2,0.1-0.3c-0.1-0.4-0.3-0.7-0.5-1s-0.5-0.6-0.8-0.9c0.1-0.2,0.1-0.5,0.2-0.7
			C155.6,24.8,155.7,24.5,155.7,24.3z M154.9,32.1l1.3,1.1c0.1,0,0.1,0.1,0,0.2l-0.9,1.1c0,0.1-0.1,0.1-0.2,0l-1.3-1.1
			c-0.1,0-0.1-0.1,0-0.2l0.9-1.1C154.8,32.1,154.8,32.1,154.9,32.1z"/>
		<path d="M164.6,16.4c0,0,0.1,0,0.1,0c0,0,0,0.1,0,0.1c0,0,0,0.1,0,0.1s0,0.1,0,0.1c0,0.3,0,0.5,0,0.8s0.1,0.5,0.1,0.8
			c0.1,0.6,0.2,1.3,0.3,1.9c0.1,0.7,0.2,1.3,0.3,2c0.1,0.7,0.2,1.3,0.3,2c0.1,0.7,0.2,1.3,0.3,1.9c0,0.2,0,0.5,0.1,0.9
			c0,0.3,0,0.7,0,1c0,0.3-0.1,0.7-0.1,1c-0.1,0.3-0.1,0.6-0.2,0.8c0,0.1-0.1,0.2-0.2,0.2c0,0-0.1,0-0.1-0.1
			c-0.1-1.2-0.2-2.5-0.4-3.7c-0.2-1.3-0.4-2.6-0.5-3.9s-0.3-2.6-0.5-3.9c0-0.3,0.1-0.7,0.3-1c0.1-0.2,0.2-0.4,0.2-0.5
			C164.5,16.7,164.5,16.5,164.6,16.4z"/>
		<path d="M173,30l-1.1,0c-0.3,0-0.6,0-0.8-0.1c-0.3-0.1-0.5-0.2-0.7-0.3c-0.2-0.2-0.3-0.3-0.4-0.6c-0.1-0.2-0.1-0.5-0.1-0.8
			c0-0.1,0.1-0.3,0.1-0.5c0.1-0.2,0.1-0.4,0.2-0.5c0.1-0.2,0.2-0.4,0.3-0.6c0.1-0.2,0.3-0.3,0.4-0.5c0.1-0.1,0.3-0.3,0.4-0.4
			c0.2-0.1,0.3-0.1,0.5-0.1c0.2,0,0.5,0.1,0.7,0.3s0.4,0.4,0.6,0.7s0.3,0.6,0.4,0.9s0.2,0.6,0.2,0.8l0.8,0h0.2
			c0.2,0,0.4,0.1,0.5,0.3c0.1,0.2,0.2,0.4,0.2,0.6c0,0.2-0.1,0.4-0.2,0.6c-0.1,0.2-0.3,0.3-0.5,0.3h-0.2l-0.9,0
			c-0.1,0.6-0.3,1.2-0.4,1.7c-0.2,0.6-0.4,1.1-0.6,1.5c-0.3,0.5-0.6,0.9-0.9,1.2c-0.4,0.4-0.8,0.6-1.3,0.8c-0.4,0.1-0.8,0.2-1.2,0.2
			c-0.5,0-0.9,0-1.4,0c-0.5,0-0.9-0.1-1.4-0.1c-0.5-0.1-0.9-0.2-1.3-0.3c-0.1,0-0.2-0.1-0.2-0.1s0-0.1,0-0.2c0-0.1,0.1-0.1,0.1-0.2
			s0.2-0.1,0.3-0.1c0.4,0,0.8,0,1.2,0s0.8,0,1.3-0.1c0.4-0.1,0.8-0.1,1.2-0.3c0.4-0.1,0.8-0.3,1.1-0.4c0.4-0.2,0.7-0.5,1.1-0.8
			c0.3-0.3,0.6-0.6,0.8-0.9c0.2-0.3,0.5-0.7,0.6-1.1C172.7,30.8,172.8,30.4,173,30z M171.4,27.4c-0.1,0-0.2,0-0.3,0.1
			c-0.1,0.1-0.2,0.1-0.2,0.2c-0.1,0.1-0.1,0.2-0.2,0.3s-0.1,0.2-0.1,0.2c0,0.1,0.1,0.2,0.3,0.2c0.2,0,0.4,0.1,0.6,0.1
			c0.2,0,0.4,0,0.6,0c0.2,0,0.4,0,0.5,0c0,0,0-0.1-0.1-0.2c-0.1-0.1-0.2-0.2-0.3-0.4c-0.1-0.1-0.3-0.2-0.4-0.3
			S171.6,27.4,171.4,27.4z"/>
		<path d="M174.6,19.4c-0.1,0-0.1-0.1,0-0.1c0.1-0.1,0.1-0.1,0.3-0.2c0.2-0.2,0.5-0.3,0.7-0.4c0.2-0.1,0.4-0.3,0.7-0.4
			c0.2-0.2,0.4-0.3,0.6-0.5s0.4-0.4,0.6-0.6c-0.2-0.1-0.4-0.2-0.6-0.3c-0.2-0.1-0.4-0.3-0.5-0.4c-0.1-0.1-0.1-0.2-0.1-0.3
			c0-0.1,0-0.2,0-0.3c0.1-0.2,0.1-0.4,0.2-0.5c0.1-0.2,0.2-0.4,0.4-0.5c0.1-0.2,0.3-0.3,0.5-0.4c0.2-0.1,0.3-0.2,0.5-0.1
			c0.1,0,0.2,0.1,0.3,0.2c0.1,0.1,0.2,0.2,0.2,0.4c0,0.1,0.1,0.3,0.1,0.5c0,0.2,0,0.3,0,0.5c0,0.2,0,0.3,0,0.5c0,0.1,0,0.2-0.1,0.3
			c0,0,0,0.1,0.1,0.1c0.1,0,0.2,0.1,0.2,0.1s0.1,0.1,0.1,0.2c0,0.1,0,0.2,0,0.4c0,0.1-0.1,0.3-0.1,0.3c0,0.1-0.1,0.1-0.1,0.1
			c0,0-0.1,0-0.1-0.1c0,0-0.1-0.1-0.1-0.1c0,0-0.1-0.1-0.1-0.1c-0.2,0.3-0.4,0.5-0.6,0.7c-0.2,0.2-0.4,0.4-0.6,0.5
			c-0.2,0.2-0.4,0.3-0.7,0.4c-0.2,0.1-0.5,0.2-0.9,0.4c-0.1,0-0.2,0.1-0.4,0.1C174.8,19.4,174.7,19.4,174.6,19.4z M176.8,15.5
			c0.1,0.2,0.3,0.4,0.5,0.5s0.4,0.2,0.5,0.2h0c0-0.1,0-0.1,0-0.2c0-0.1,0-0.2,0-0.3s0-0.2,0-0.3s-0.1-0.2-0.1-0.2
			c-0.1,0-0.1-0.1-0.2-0.1c-0.1,0-0.2,0-0.3,0.1s-0.2,0.1-0.3,0.1S176.8,15.4,176.8,15.5z"/>
		<path d="M178.1,26.2c0,0.1,0,0.2,0,0.3s0,0.2,0,0.3c0,0.2,0.1,0.4,0.1,0.6c0.1,0.2,0.2,0.4,0.4,0.5c0.2,0.2,0.4,0.3,0.7,0.4
			s0.7,0.1,1.1,0.1h0.2c0.2,0,0.4,0.1,0.5,0.3c0.1,0.2,0.2,0.4,0.2,0.6c0,0.2-0.1,0.4-0.2,0.6c-0.1,0.2-0.3,0.3-0.5,0.3h-0.2
			c-0.8,0-1.4-0.1-1.8-0.4s-0.8-0.7-1.1-1.2c-0.2,0.4-0.4,0.7-0.6,0.9c-0.3,0.2-0.5,0.4-0.8,0.5c-0.3,0.1-0.5,0.2-0.8,0.2
			c-0.3,0-0.5,0.1-0.7,0.1h-0.2c-0.2,0-0.4-0.1-0.5-0.3c-0.1-0.2-0.2-0.4-0.2-0.6c0-0.2,0.1-0.4,0.2-0.6c0.1-0.2,0.3-0.3,0.5-0.3
			h0.2c0.2,0,0.4,0,0.7,0c0.2,0,0.5-0.1,0.7-0.1c0.2-0.1,0.5-0.2,0.7-0.3s0.4-0.3,0.6-0.5c0.1-0.2,0.3-0.4,0.3-0.5
			c0.1-0.2,0.2-0.4,0.3-0.6c0,0,0-0.1,0.1-0.1c0,0,0.1,0,0.1,0S178,26.2,178.1,26.2C178.1,26.2,178.1,26.2,178.1,26.2z M177.1,21.4
			l1.3,1.1c0.1,0,0.1,0.1,0,0.2l-0.9,1.1c0,0.1-0.1,0.1-0.2,0l-1.3-1.1c-0.1,0-0.1-0.1,0-0.2l0.9-1.1C177,21.4,177,21.4,177.1,21.4z
			"/>
		<path d="M184,26.2c0,0.1,0,0.2,0,0.3s0,0.2,0,0.3c0,0.2,0.1,0.4,0.1,0.6c0.1,0.2,0.2,0.4,0.4,0.5c0.2,0.2,0.4,0.3,0.7,0.4
			s0.7,0.1,1.1,0.1h0.2c0.2,0,0.4,0.1,0.5,0.3c0.1,0.2,0.2,0.4,0.2,0.6c0,0.2-0.1,0.4-0.2,0.6c-0.1,0.2-0.3,0.3-0.5,0.3h-0.2
			c-0.8,0-1.4-0.1-1.8-0.4s-0.8-0.7-1.1-1.2c-0.2,0.4-0.4,0.7-0.6,0.9c-0.3,0.2-0.5,0.4-0.8,0.5c-0.3,0.1-0.5,0.2-0.8,0.2
			c-0.3,0-0.5,0.1-0.7,0.1h-0.2c-0.2,0-0.4-0.1-0.5-0.3c-0.1-0.2-0.2-0.4-0.2-0.6c0-0.2,0.1-0.4,0.2-0.6c0.1-0.2,0.3-0.3,0.5-0.3
			h0.2c0.2,0,0.4,0,0.7,0c0.2,0,0.5-0.1,0.7-0.1c0.2-0.1,0.5-0.2,0.7-0.3s0.4-0.3,0.6-0.5c0.1-0.2,0.3-0.4,0.3-0.5
			c0.1-0.2,0.2-0.4,0.3-0.6c0,0,0-0.1,0.1-0.1c0,0,0.1,0,0.1,0S184,26.2,184,26.2C184,26.2,184,26.2,184,26.2z M184.8,34.2
			C184.8,34.3,184.7,34.3,184.8,34.2c-0.1,0.1-0.1,0.1-0.2,0l-1.3-1l-0.8,1.1c0,0.1-0.1,0.1-0.2,0l-1.3-1c0,0-0.1-0.1,0-0.1l0.9-1.2
			c0,0,0.1-0.1,0.1-0.1s0,0,0.1,0l1.3,1l0.9-1.1c0-0.1,0.1-0.1,0.1,0l1.3,1.1c0,0,0,0.1,0,0.1L184.8,34.2z"/>
		<path d="M191.8,33.2c-0.7,0.3-1.4,0.5-2.1,0.8c-0.7,0.2-1.3,0.5-2,0.7c-0.1,0-0.1,0-0.1-0.1c0.1-0.1,0.1-0.3,0.2-0.4
			c0.1-0.2,0.1-0.3,0.2-0.4c0-0.1,0.1-0.1,0.2-0.2c0.2-0.1,0.4-0.2,0.7-0.3c0.3-0.1,0.6-0.2,1-0.4s0.8-0.3,1.2-0.4
			c0.4-0.1,0.8-0.3,1.2-0.4c0.1,0,0.1,0,0.1,0.1c0,0.1-0.1,0.1-0.1,0.2s-0.1,0.2-0.1,0.2c0,0.1-0.1,0.2-0.1,0.2
			c0,0.1-0.1,0.1-0.1,0.2C192,33.1,191.9,33.1,191.8,33.2C191.9,33.2,191.9,33.2,191.8,33.2z"/>
		<path d="M186.2,30c-0.2,0-0.4-0.1-0.5-0.3c-0.1-0.2-0.2-0.4-0.2-0.6c0-0.2,0.1-0.4,0.2-0.6c0.1-0.2,0.3-0.3,0.5-0.3h0.2
			c0.2,0,0.4,0,0.7-0.1s0.5-0.1,0.8-0.2c0.3-0.1,0.6-0.2,0.9-0.3c0.3-0.1,0.6-0.3,0.9-0.5c-0.2-0.2-0.4-0.4-0.6-0.5
			s-0.4-0.2-0.6-0.3c-0.2,0-0.3,0-0.4,0s-0.3,0.1-0.4,0.2c-0.1,0.1-0.1,0.1-0.2,0c-0.1,0-0.1-0.1-0.1-0.2c0-0.1,0.1-0.2,0.1-0.4
			c0-0.1,0.1-0.3,0.2-0.5c0.1-0.2,0.2-0.3,0.3-0.5c0.1-0.2,0.2-0.3,0.4-0.4c0.6-0.5,1.3-0.8,2.2-0.8c0.2,0,0.5,0,0.8,0.1
			c0.3,0,0.6,0.1,0.8,0.2s0.5,0.3,0.7,0.5c0.2,0.2,0.3,0.4,0.3,0.7c0,0.4-0.1,0.8-0.3,1.1c-0.2,0.3-0.5,0.6-0.8,0.8
			c0.1,0.2,0.3,0.3,0.4,0.4c0.2,0.1,0.4,0.2,0.6,0.3c0.2,0.1,0.5,0.1,0.7,0.1c0.3,0,0.5,0,0.8,0h0.2c0.2,0,0.4,0.1,0.5,0.3
			c0.1,0.2,0.2,0.4,0.2,0.6c0,0.2-0.1,0.4-0.2,0.6c-0.1,0.2-0.3,0.3-0.5,0.3h-0.2c-0.8,0-1.5-0.1-2.2-0.4c-0.6-0.3-1.2-0.7-1.7-1.3
			c-0.4,0.3-0.7,0.6-1.1,0.8c-0.4,0.2-0.7,0.4-1.1,0.5c-0.4,0.1-0.7,0.2-1.1,0.3c-0.4,0.1-0.7,0.1-1.1,0.1H186.2z"/>
		<path d="M198.8,17.7c-0.4,0.2-0.7,0.3-1.1,0.5c-0.4,0.2-0.8,0.3-1.2,0.5c-0.4,0.2-0.7,0.3-1.1,0.5s-0.6,0.3-0.8,0.4
			c0,0-0.1,0-0.1,0s0-0.1,0-0.1c0,0,0.1-0.1,0.1-0.2c0.1-0.1,0.1-0.2,0.2-0.3c0.1-0.1,0.1-0.2,0.2-0.3c0-0.1,0.1-0.1,0.1-0.2
			c0.1-0.1,0.1-0.2,0.2-0.2l4-1.7c0.1,0,0.1,0,0.1,0.1c0,0.1-0.1,0.1-0.1,0.2c0,0.1-0.1,0.2-0.1,0.3c0,0.1-0.1,0.2-0.1,0.3
			c0,0.1-0.1,0.2-0.1,0.2C198.9,17.6,198.9,17.6,198.8,17.7z"/>
		<path d="M198.1,26.2c0,0.1,0,0.2,0,0.3s0,0.2,0,0.3c0,0.2,0.1,0.4,0.1,0.6c0.1,0.2,0.2,0.4,0.4,0.5c0.2,0.2,0.4,0.3,0.7,0.4
			s0.7,0.1,1.1,0.1h0.2c0.2,0,0.4,0.1,0.5,0.3c0.1,0.2,0.2,0.4,0.2,0.6c0,0.2-0.1,0.4-0.2,0.6c-0.1,0.2-0.3,0.3-0.5,0.3h-0.2
			c-0.8,0-1.4-0.1-1.8-0.4s-0.8-0.7-1.1-1.2c-0.2,0.4-0.4,0.7-0.6,0.9c-0.3,0.2-0.5,0.4-0.8,0.5c-0.3,0.1-0.5,0.2-0.8,0.2
			c-0.3,0-0.5,0.1-0.7,0.1h-0.2c-0.2,0-0.4-0.1-0.5-0.3c-0.1-0.2-0.2-0.4-0.2-0.6c0-0.2,0.1-0.4,0.2-0.6c0.1-0.2,0.3-0.3,0.5-0.3
			h0.2c0.2,0,0.4,0,0.7,0c0.2,0,0.5-0.1,0.7-0.1c0.2-0.1,0.5-0.2,0.7-0.3s0.4-0.3,0.6-0.5c0.1-0.2,0.3-0.4,0.3-0.5
			c0.1-0.2,0.2-0.4,0.3-0.6c0,0,0-0.1,0.1-0.1c0,0,0.1,0,0.1,0S198.1,26.2,198.1,26.2C198.1,26.2,198.1,26.2,198.1,26.2z
			 M198.5,24.1C198.5,24.1,198.5,24.2,198.5,24.1c-0.1,0.1-0.1,0.1-0.2,0l-1.3-1l-0.8,1.1c0,0.1-0.1,0.1-0.2,0l-1.3-1
			c0,0-0.1-0.1,0-0.1l0.9-1.2c0,0,0.1-0.1,0.1-0.1s0,0,0.1,0l1.3,1l0.9-1.1c0-0.1,0.1-0.1,0.1,0l1.3,1.1c0,0,0,0.1,0,0.1L198.5,24.1
			z"/>
		<path d="M207,17.4c0,0.2,0,0.5-0.1,0.7c-0.1,0.2-0.2,0.4-0.3,0.6c-0.1,0.2-0.3,0.3-0.5,0.4s-0.5,0.2-0.7,0.2
			c-0.4,0-0.7-0.1-0.9-0.3c-0.2-0.2-0.4-0.5-0.4-0.9c0-0.2,0-0.4,0.1-0.7c0.1-0.3,0.2-0.5,0.3-0.8c0.1-0.3,0.3-0.5,0.5-0.7
			c0.2-0.2,0.4-0.3,0.7-0.3c0.3,0,0.5,0,0.7,0.2c0.2,0.1,0.3,0.3,0.4,0.5s0.2,0.4,0.2,0.6S207,17.2,207,17.4z M205.5,16.6
			c-0.1,0-0.2,0.1-0.3,0.1c-0.1,0.1-0.2,0.2-0.3,0.3s-0.2,0.2-0.2,0.3c-0.1,0.1-0.1,0.2-0.1,0.3c0,0.1,0,0.2,0.1,0.3
			s0.1,0.1,0.2,0.2s0.2,0.1,0.3,0.1s0.2,0,0.3,0c0.4,0,0.7-0.2,1-0.5c0-0.1,0-0.2,0-0.4s-0.1-0.3-0.2-0.4c-0.1-0.1-0.2-0.2-0.3-0.3
			C205.8,16.6,205.6,16.6,205.5,16.6z"/>
		<path d="M207.9,26.3c0-0.1,0.1-0.1,0.1-0.2c0,0,0.1-0.1,0.1-0.1s0.1,0,0.1,0.1s0,0.1,0,0.2c0,0.1-0.1,0.3-0.1,0.4
			c-0.1,0.2-0.1,0.3-0.2,0.5c0,0.1,0.2,0.3,0.4,0.4c0.2,0.1,0.4,0.2,0.7,0.3s0.5,0.1,0.7,0.2c0.2,0,0.5,0,0.6,0c0-0.3,0-0.5-0.1-0.7
			s-0.1-0.5-0.2-0.7c0.1-0.1,0.1-0.2,0.2-0.3c0.1-0.1,0.1-0.2,0.2-0.3c0-0.1,0.1-0.2,0.2-0.2c0.1-0.1,0.1-0.2,0.2-0.3
			c0-0.1,0.1-0.1,0.1,0c0.1,0.3,0.1,0.5,0.2,0.7c0,0.2,0.1,0.4,0.1,0.7s0,0.4,0,0.6c0,0.2-0.1,0.4-0.1,0.6c0,0.1-0.1,0.3-0.2,0.5
			c-0.1,0.2-0.2,0.3-0.3,0.5s-0.2,0.3-0.3,0.4c-0.1,0.1-0.3,0.2-0.4,0.2c-0.2,0-0.4,0-0.6,0c-0.2,0-0.4-0.1-0.7-0.2
			c-0.2-0.1-0.5-0.2-0.7-0.4s-0.4-0.3-0.5-0.5c-0.2,0.3-0.5,0.6-0.8,0.8c-0.3,0.2-0.7,0.3-1.1,0.4c-0.4,0.1-0.8,0.1-1.3,0
			c-0.4-0.1-0.8-0.2-1.2-0.4c-0.3,0.1-0.5,0.3-0.7,0.3c-0.2,0.1-0.4,0.1-0.6,0.2c-0.2,0-0.4,0.1-0.5,0.1c-0.2,0-0.3,0-0.5,0h-0.2
			c-0.2,0-0.4-0.1-0.5-0.3c-0.1-0.2-0.2-0.4-0.2-0.6c0-0.2,0.1-0.4,0.2-0.6c0.1-0.2,0.3-0.3,0.5-0.3h0.2c0.4,0,0.8,0,1.2-0.1
			c0.4,0,0.7-0.1,1.1-0.3c0.3-0.1,0.6-0.3,0.9-0.6c0.3-0.3,0.5-0.6,0.7-0.9c0-0.1,0.1-0.1,0.1-0.2c0,0,0.1-0.1,0.1-0.1
			s0.1,0,0.1,0.1c0,0,0,0.1,0,0.2c0,0.1-0.1,0.3-0.1,0.4c0,0.2-0.1,0.3-0.2,0.5c-0.1,0.2-0.1,0.3-0.2,0.5c-0.1,0.1-0.2,0.3-0.2,0.4
			c0.4,0.1,0.8,0.1,1.3,0.1c0.5,0,0.9-0.2,1.3-0.4c0.3-0.2,0.6-0.4,0.8-0.7C207.5,27,207.7,26.7,207.9,26.3z"/>
		<path d="M213.8,16.4c0,0,0.1,0,0.1,0c0,0,0,0.1,0,0.1c0,0,0,0.1,0,0.1s0,0.1,0,0.1c0,0.3,0,0.5,0,0.8s0.1,0.5,0.1,0.8
			c0.1,0.6,0.2,1.3,0.3,1.9c0.1,0.7,0.2,1.3,0.3,2c0.1,0.7,0.2,1.3,0.3,2c0.1,0.7,0.2,1.3,0.3,1.9c0,0.2,0,0.5,0.1,0.9
			c0,0.3,0,0.7,0,1c0,0.3-0.1,0.7-0.1,1c-0.1,0.3-0.1,0.6-0.2,0.8c0,0.1-0.1,0.2-0.2,0.2c0,0-0.1,0-0.1-0.1
			c-0.1-1.2-0.2-2.5-0.4-3.7c-0.2-1.3-0.4-2.6-0.5-3.9s-0.3-2.6-0.5-3.9c0-0.3,0.1-0.7,0.3-1c0.1-0.2,0.2-0.4,0.2-0.5
			C213.7,16.7,213.7,16.5,213.8,16.4z"/>
		<path d="M221.4,19.8c-0.4,0.2-0.7,0.3-1.1,0.5c-0.4,0.2-0.8,0.3-1.2,0.5c-0.4,0.2-0.7,0.3-1.1,0.5s-0.6,0.3-0.8,0.4
			c0,0-0.1,0-0.1,0s0-0.1,0-0.1c0,0,0.1-0.1,0.1-0.2c0.1-0.1,0.1-0.2,0.2-0.3c0.1-0.1,0.1-0.2,0.2-0.3c0-0.1,0.1-0.1,0.1-0.2
			c0.1-0.1,0.1-0.2,0.2-0.2l4-1.7c0.1,0,0.1,0,0.1,0.1c0,0.1-0.1,0.1-0.1,0.2c0,0.1-0.1,0.2-0.1,0.3c0,0.1-0.1,0.2-0.1,0.3
			c0,0.1-0.1,0.2-0.1,0.2C221.5,19.7,221.5,19.7,221.4,19.8z"/>
		<path d="M222.2,28.1c-0.1,0.3-0.3,0.5-0.5,0.7s-0.6,0.3-1,0.3c-0.2,0-0.4,0-0.5-0.1c-0.2-0.1-0.3-0.2-0.4-0.4
			c-0.1-0.2-0.2-0.3-0.3-0.5c-0.1-0.2-0.1-0.4-0.1-0.6c0-0.1,0-0.3,0.1-0.5c0-0.2,0.1-0.4,0.2-0.6s0.2-0.4,0.3-0.6
			c0.1-0.2,0.2-0.4,0.3-0.5c0.1-0.2,0.3-0.3,0.4-0.4c0.1-0.1,0.3-0.1,0.4-0.1c0.3,0,0.5,0.1,0.8,0.3s0.4,0.5,0.6,0.8
			c0.2,0.3,0.3,0.7,0.4,1.1c0.1,0.4,0.1,0.8,0.1,1.2c0,0.5-0.1,1-0.2,1.6c-0.1,0.5-0.3,1.1-0.5,1.6s-0.4,1-0.7,1.5
			c-0.3,0.5-0.5,0.9-0.8,1.2c-0.3,0.3-0.6,0.6-0.9,0.8c-0.3,0.2-0.7,0.4-1.1,0.5s-0.7,0.2-1.1,0.2c-0.4,0-0.8,0.1-1.2,0
			c-0.4,0-0.8-0.1-1.3-0.1c-0.4-0.1-0.8-0.2-1.2-0.3c-0.1,0-0.1-0.1-0.1-0.1s0-0.1,0-0.2c0-0.1,0.1-0.1,0.1-0.1s0.1,0,0.2,0
			c0.6,0.1,1.1,0.1,1.7,0c0.6-0.1,1.1-0.2,1.6-0.4c0.4-0.2,0.9-0.4,1.3-0.6c0.4-0.3,0.8-0.5,1.2-0.9c0.3-0.2,0.5-0.5,0.8-0.8
			c0.3-0.3,0.5-0.6,0.7-1c0.2-0.3,0.4-0.7,0.5-1c0.1-0.3,0.2-0.7,0.3-1c0-0.1,0-0.1,0-0.2c0-0.1,0-0.2,0-0.2c0-0.1,0-0.2-0.1-0.2
			S222.2,28.2,222.2,28.1z M221.8,27.2c0,0,0-0.1-0.1-0.2c-0.1-0.1-0.1-0.2-0.2-0.3c-0.1-0.1-0.2-0.2-0.3-0.3
			c-0.1-0.1-0.3-0.1-0.4-0.1c-0.1,0-0.2,0-0.3,0.1c-0.1,0.1-0.2,0.2-0.2,0.3s-0.1,0.2-0.1,0.3c0,0.1,0,0.2,0,0.2
			c0.1,0.1,0.2,0.2,0.4,0.3s0.3,0.1,0.5,0.1c0.2,0,0.3-0.1,0.5-0.1C221.6,27.3,221.7,27.3,221.8,27.2z"/>
	</g>
	<g>
		<path d="M236.3,24.8c0,0.1-0.1,0.3-0.2,0.4c-0.2,0.2-0.4,0.4-0.8,0.6c0,0.3-0.1,0.7-0.2,1c-0.1,0.3-0.2,0.4-0.3,0.4
			c-0.4-0.4-0.7-0.7-1-0.9c-0.4-0.3-0.7-0.4-1.1-0.4c0,0.4,0.2,0.7,0.5,1.1c0.3,0.3,0.6,0.6,0.9,1c0,0.2-0.3,0.3-0.9,0.4
			c-0.5,0.1-0.8,0.1-1.1,0.1c-0.4,1.3-1,2.5-1.8,3.6c-0.3,0.5-0.8,1-1.4,1.6c-0.8,0.7-1.3,1.1-1.7,1.1c-0.1,0-0.2-0.1-0.2-0.2
			c0-0.1,0.2-0.4,0.7-0.9c0.6-0.7,1.1-1.4,1.4-1.9c0.6-1,0.9-2.2,1.1-3.4c-0.4-0.1-0.7-0.1-0.8-0.2c-0.1-0.1-0.2-0.1-0.2-0.3
			c0.9-0.7,1.3-1.4,1.3-2.1c-0.4,0-0.7,0.1-1.1,0.4c-0.2,0.2-0.5,0.5-0.9,1c-0.1,0-0.2-0.2-0.4-0.5c-0.1-0.3-0.2-0.7-0.2-1
			c-0.4-0.2-0.6-0.3-0.6-0.4c-0.2-0.2-0.4-0.4-0.4-0.6c0-0.1,0.1-0.2,0.2-0.4c0.1-0.1,0.3-0.2,0.8-0.5c0-1,0.2-1.5,0.5-1.5
			c0.7,0.8,1.4,1.2,2.1,1.3c0-0.3-0.2-0.7-0.5-1.2c0,0-0.3-0.4-0.9-1c0-0.1,0.1-0.2,0.2-0.2c0.1-0.1,0.4-0.1,0.8-0.2
			c-0.2-1-0.6-2-1.2-3.1c-0.6-1.1-1.3-2-2.1-2.6c-0.1-0.1-0.2-0.2-0.2-0.3s0.1-0.1,0.2-0.2c0.2,0,0.6,0.2,1.2,0.6
			c1.7,1.2,3,3,3.9,5.5c1.3,0,2,0.2,2,0.5c-0.4,0.3-0.6,0.6-0.9,0.9c-0.3,0.4-0.4,0.7-0.4,1.2c0.3,0,0.6-0.2,1-0.5l1-0.9
			c0.2,0,0.4,0.4,0.5,1.3c0,0.1,0,0.2,0,0.2C236,24.3,236.3,24.6,236.3,24.8z M233.4,21.8c0,0-0.1-0.1-0.3-0.1s-0.4-0.1-0.5-0.1
			h-0.4c-0.1,0-0.2,0-0.3,0.1c-0.4-1.2-0.9-2.2-1.6-3.3c-0.8-1.1-1.7-2.1-2.8-2.8c0.7,0.7,1.3,1.5,1.9,2.4c0.7,1.1,1.1,2.3,1.3,3.6
			c-0.5,0-0.7,0.1-0.8,0.2c0.6,0.4,0.9,0.9,1.2,1.4c0.1-0.2,0.2-0.4,0.3-0.7c0,0,0.1-0.1,0.1-0.3c0.1-0.2,0.1-0.3,0.2-0.3
			c0.2,0,0.4,0.4,0.7,1.3c0.1-0.3,0.3-0.6,0.5-0.9C233,22.2,233.1,22,233.4,21.8z M230.2,25.6c-0.1-0.1-0.5-0.2-1-0.4
			c-0.4-0.1-0.6-0.2-0.6-0.3c0,0,0.3-0.2,0.9-0.4c0.1-0.1,0.4-0.1,0.7-0.3c-0.3-0.1-0.6-0.3-0.9-0.5c-0.1-0.1-0.3-0.3-0.6-0.6
			c-0.1,0-0.2,0.4-0.2,1.1c-0.6,0.3-0.8,0.5-0.9,0.7c0,0.1,0.3,0.3,0.9,0.5c0,0.8,0.1,1.2,0.2,1.2c0,0,0.2-0.2,0.6-0.5
			C229.7,25.9,230,25.7,230.2,25.6z M233.5,27.9c-0.4-0.4-0.8-0.8-1.1-1.3c-0.1,0.1-0.2,0.4-0.3,0.6c0,0-0.1,0.2-0.2,0.4
			c-0.1,0.2-0.2,0.3-0.2,0.3c0,0-0.1-0.1-0.2-0.3c-0.1-0.2-0.1-0.3-0.1-0.3c0-0.1-0.1-0.3-0.3-0.7c-0.1,0.3-0.3,0.5-0.5,0.8
			c-0.2,0.2-0.4,0.4-0.6,0.6c0,0.1,0.2,0.1,0.7,0.2c-0.3,1.2-0.5,1.9-0.6,2.2c-0.4,1.3-1.2,2.6-2.2,3.8c1.8-1.2,3.1-3.2,4-6.1
			c0.7,0,0.9,0,0.8,0C233.2,28.1,233.4,28.1,233.5,27.9z M232.9,24.9c0-0.3-0.1-0.6-0.3-0.8c-0.2-0.2-0.5-0.3-0.9-0.3
			c-0.3,0-0.6,0.1-0.8,0.3c-0.2,0.2-0.4,0.5-0.4,0.8c0,0.3,0.1,0.6,0.3,0.9c0.2,0.2,0.5,0.4,0.9,0.4c0.3,0,0.6-0.1,0.9-0.3
			C232.8,25.5,232.9,25.2,232.9,24.9z M235.8,24.8c0-0.1-0.1-0.2-0.2-0.3s-0.4-0.2-0.6-0.3c0-0.3,0-0.6-0.1-0.8
			c-0.1-0.2-0.1-0.3-0.2-0.4c0,0-0.2,0.2-0.5,0.5c-0.3,0.3-0.6,0.5-1,0.7c0.2,0.1,0.4,0.2,0.7,0.3c0,0,0.2,0.1,0.5,0.2
			c0.3,0.1,0.4,0.2,0.4,0.2c0,0.1-0.2,0.2-0.6,0.3c-0.6,0.2-0.9,0.3-1,0.3c0.4,0.1,0.7,0.3,0.9,0.5c0.1,0.1,0.3,0.3,0.6,0.6
			c0.1,0,0.1-0.1,0.2-0.3c0-0.1,0-0.4,0-0.8C235.5,25.2,235.8,24.9,235.8,24.8z"/>
	</g>
	<g>
		<path d="M40,25.2c0-0.1,0.1-0.3,0.2-0.4c0.2-0.2,0.4-0.4,0.8-0.6c0-0.3,0.1-0.7,0.2-1c0.1-0.3,0.2-0.4,0.3-0.4
			c0.4,0.4,0.7,0.7,1,0.9c0.4,0.3,0.7,0.4,1.1,0.4c0-0.4-0.2-0.7-0.5-1.1c-0.3-0.3-0.6-0.6-0.9-1c0-0.2,0.3-0.3,0.9-0.4
			c0.5-0.1,0.8-0.1,1.1-0.1c0.4-1.3,1-2.5,1.8-3.6c0.3-0.5,0.8-1,1.4-1.6c0.8-0.7,1.3-1.1,1.7-1.1c0.1,0,0.2,0.1,0.2,0.2
			c0,0.1-0.2,0.4-0.7,0.9c-0.6,0.7-1.1,1.4-1.4,1.9c-0.6,1-0.9,2.2-1.1,3.4c0.4,0.1,0.7,0.1,0.8,0.2c0.1,0.1,0.2,0.1,0.2,0.3
			c-0.9,0.7-1.3,1.4-1.3,2.1c0.4,0,0.7-0.1,1.1-0.4c0.2-0.2,0.5-0.5,0.9-1c0.1,0,0.2,0.2,0.4,0.5c0.1,0.3,0.2,0.7,0.2,1
			c0.4,0.2,0.6,0.3,0.6,0.4c0.2,0.2,0.4,0.4,0.4,0.6c0,0.1-0.1,0.2-0.2,0.4c-0.1,0.1-0.3,0.2-0.8,0.5c0,1-0.2,1.5-0.5,1.5
			c-0.7-0.8-1.4-1.2-2.1-1.3c0,0.3,0.2,0.7,0.5,1.2c0,0,0.3,0.4,0.9,1c0,0.1-0.1,0.2-0.2,0.2c-0.1,0.1-0.4,0.1-0.8,0.2
			c0.2,1,0.6,2,1.2,3.1c0.6,1.1,1.3,2,2.1,2.6c0.1,0.1,0.2,0.2,0.2,0.3s-0.1,0.1-0.2,0.2c-0.2,0-0.6-0.2-1.2-0.6
			c-1.7-1.2-3-3-3.9-5.5c-1.3,0-2-0.2-2-0.5c0.4-0.3,0.6-0.6,0.9-0.9c0.3-0.4,0.4-0.7,0.4-1.2c-0.3,0-0.6,0.2-1,0.5l-1,0.9
			c-0.2,0-0.4-0.4-0.5-1.3c0-0.1,0-0.2,0-0.2C40.3,25.7,40,25.4,40,25.2z M43,28.2c0,0,0.1,0.1,0.3,0.1c0.2,0,0.4,0.1,0.5,0.1h0.4
			c0.1,0,0.2,0,0.3-0.1c0.4,1.2,0.9,2.2,1.6,3.3c0.8,1.1,1.7,2.1,2.8,2.8c-0.7-0.7-1.3-1.5-1.9-2.4c-0.7-1.1-1.1-2.3-1.3-3.6
			c0.5,0,0.7-0.1,0.8-0.2c-0.6-0.4-0.9-0.9-1.2-1.4c-0.1,0.2-0.2,0.4-0.3,0.7c0,0-0.1,0.1-0.1,0.3c-0.1,0.2-0.1,0.3-0.2,0.3
			c-0.2,0-0.4-0.4-0.7-1.3c-0.1,0.3-0.3,0.6-0.5,0.9C43.4,27.8,43.2,28,43,28.2z M46.2,24.4c0.1,0.1,0.5,0.2,1,0.4
			c0.4,0.1,0.6,0.2,0.6,0.3c0,0-0.3,0.2-0.9,0.4c-0.1,0.1-0.4,0.1-0.7,0.3c0.3,0.1,0.6,0.3,0.9,0.5c0.1,0.1,0.3,0.3,0.6,0.6
			c0.1,0,0.2-0.4,0.2-1.1c0.6-0.3,0.8-0.5,0.9-0.7c0-0.1-0.3-0.3-0.9-0.5c0-0.8-0.1-1.2-0.2-1.2c0,0-0.2,0.2-0.6,0.5
			C46.7,24.2,46.4,24.4,46.2,24.4z M42.9,22.1c0.4,0.4,0.8,0.8,1.1,1.3c0.1-0.1,0.2-0.4,0.3-0.6c0,0,0.1-0.2,0.2-0.4
			c0.1-0.2,0.2-0.3,0.2-0.3c0,0,0.1,0.1,0.2,0.3c0.1,0.2,0.1,0.3,0.1,0.3c0,0.1,0.1,0.3,0.3,0.7c0.1-0.3,0.3-0.5,0.5-0.8
			c0.2-0.2,0.4-0.4,0.6-0.6c0-0.1-0.2-0.1-0.7-0.2c0.3-1.2,0.5-1.9,0.6-2.2c0.4-1.3,1.2-2.6,2.2-3.8c-1.8,1.2-3.1,3.2-4,6.1
			c-0.7,0-0.9,0-0.8,0C43.1,21.9,42.9,22,42.9,22.1z M43.4,25.1c0,0.3,0.1,0.6,0.3,0.8c0.2,0.2,0.5,0.3,0.9,0.3
			c0.3,0,0.6-0.1,0.8-0.3c0.2-0.2,0.4-0.5,0.4-0.8c0-0.3-0.1-0.6-0.3-0.9c-0.2-0.2-0.5-0.4-0.9-0.4c-0.3,0-0.6,0.1-0.9,0.3
			C43.6,24.5,43.4,24.8,43.4,25.1z M40.5,25.2c0,0.1,0.1,0.2,0.2,0.3c0.2,0.1,0.4,0.2,0.6,0.3c0,0.3,0,0.6,0.1,0.8
			c0.1,0.2,0.1,0.3,0.2,0.4c0,0,0.2-0.2,0.5-0.5c0.3-0.3,0.6-0.5,1-0.7c-0.2-0.1-0.4-0.2-0.7-0.3c0,0-0.2-0.1-0.5-0.2
			c-0.3-0.1-0.4-0.2-0.4-0.2c0-0.1,0.2-0.2,0.6-0.3c0.6-0.2,0.9-0.3,1-0.3c-0.4-0.1-0.7-0.3-0.9-0.5c-0.1-0.1-0.3-0.3-0.6-0.6
			c-0.1,0-0.1,0.1-0.2,0.3c0,0.1,0,0.4,0,0.8C40.8,24.8,40.5,25.1,40.5,25.2z"/>
	</g>
</g>
</svg>
