<?xml version="1.0" encoding="utf-8"?>
<!-- Generator: Adobe Illustrator 22.0.1, SVG Export Plug-In . SVG Version: 6.00 Build 0)  -->
<svg version="1.1" id="Layer_1" xmlns="http://www.w3.org/2000/svg" xmlns:xlink="http://www.w3.org/1999/xlink" x="0px" y="0px"
	 viewBox="0 0 288.8 46.1" style="enable-background:new 0 0 288.8 46.1;" xml:space="preserve">
<style type="text/css">
	.st0{fill:#542C0B;}
</style>
<g>
	<path class="st0" d="M100.6,18h-1.8c-0.8,1.2-1.5,2.4-2,3.8c-0.6,1.6-0.9,3.3-0.9,5.1c0,1.4,0.2,2.9,0.7,4.5c0.5,1.5,1.2,3,2.2,4.4
		h1.8c-0.5-1.2-0.9-2.1-1.1-2.7c-0.3-1-0.6-2-0.8-3C98.5,29,98.4,28,98.4,27c0-1.5,0.2-2.9,0.5-4.2C99.1,21.5,99.7,19.9,100.6,18z"
		/>
	<path class="st0" d="M114.3,22.5c-0.2-1-0.3-1.5-0.3-1.6l0.3,0.1c0.2-0.5,0.4-0.8,0.4-1c0.1-0.2,0.1-0.6,0.2-1.1
		c-0.3-0.2-0.7-0.4-1.1-0.6c-0.3-0.2-0.4-0.4-0.4-0.6c0-0.1,0-0.2,0-0.3l-0.4-0.2c-0.6,1.2-0.9,2.2-0.9,2.8l0.5,0.3
		c0.3,1.5,0.5,2.9,0.8,4.4c0.2,0.9,0.3,1.5,0.3,1.8s0.1,0.6,0.1,0.8c0,0,0,0.1,0,0.2s0,0.2,0,0.3c0,0.7-0.3,1.2-1,1.6
		s-1.6,0.6-2.6,0.6c-0.8,0-1.3-0.2-1.8-0.5s-0.6-0.7-0.6-1.3c0-0.5,0.1-1,0.3-1.6c0.2-0.5,0.5-1.2,1-1.9l-0.6-0.4
		c-0.7,1.1-1.2,2-1.5,2.8c-0.2,0.7-0.3,1.4-0.3,2.3c0,1,0.3,1.7,0.9,2.2c0.6,0.5,1.4,0.8,2.5,0.8c1.3,0,2.4-0.4,3.4-1.1
		s1.5-1.6,1.5-2.5v-2.1c0-0.2-0.1-0.8-0.3-1.8C114.6,24.3,114.4,23.4,114.3,22.5z"/>
	<polygon class="st0" points="122.4,31.9 124.5,33.1 125.7,31 123.5,29.8 	"/>
	<path class="st0" d="M130.4,21c0.1-0.3,0.3-0.6,0.4-1c0.1-0.4,0.2-0.8,0.2-1.2c-0.5-0.2-0.9-0.4-1.1-0.6c-0.3-0.2-0.4-0.4-0.4-0.6
		s0-0.3,0-0.3l-0.4-0.2c-0.3,0.6-0.6,1.2-0.7,1.7c-0.1,0.4-0.2,0.7-0.2,1.1l0.6,0.4l1.1,6.3h-3.3c0-1.1-0.1-1.9-0.3-2.4
		c-0.2-0.6-0.5-1.1-0.9-1.6l-0.7,2.2c0.3,0.4,0.6,0.7,0.6,0.8c0.2,0.3,0.3,0.6,0.4,1.1h-4.2v-0.5c0-1.4-0.2-2.6-0.5-3.5
		s-0.9-1.7-1.7-2.3l-0.7,2.9c0.5,0.3,0.9,0.7,1.2,1.2c0.4,0.5,0.6,1.3,0.7,2.2h-3.2c-0.2,0-0.4,0-0.6-0.1s-0.3-0.3-0.3-0.5H116
		c-0.1,0.3-0.1,0.6-0.1,1c0,0.3,0,0.6,0,0.9c0,0.5,0.1,0.8,0.4,1c0.2,0.2,0.5,0.3,0.9,0.3h3.5h0.6h4.5h0.6h4.4v-2.5l-1-5.7L130.4,21
		z"/>
	<path class="st0" d="M133.9,21.1l-0.6-3.3c-0.3,0.7-0.6,1.2-0.8,1.7s-0.3,0.8-0.3,1c0,0.1,0,0.4,0.1,0.7c0.2,1,0.4,1.8,0.5,2.5
		s0.2,1.4,0.2,2.2s0.1,1.3,0.1,1.7c0,0.5-0.1,1.1-0.2,1.9l0.6,0.2c0.4-0.8,0.6-1.4,0.7-1.8c0.1-0.5,0.2-1,0.2-1.5c0-0.6,0-1.3-0.1-2
		C134.3,23.5,134.1,22.4,133.9,21.1z"/>
	<polygon class="st0" points="150.2,31.9 152.4,33.1 153.5,31 151.3,29.8 	"/>
	<path class="st0" d="M153.2,22.5l-0.7,2.2c0.3,0.4,0.6,0.7,0.6,0.8c0.2,0.3,0.3,0.6,0.4,1.1h-4.2h-0.6H148c-0.3,0-0.5-0.1-0.9-0.2
		c-0.4-0.2-0.8-0.4-1.1-0.8c0.4-0.2,0.6-0.4,0.8-0.8c0.2-0.3,0.3-0.7,0.3-1c0-0.6-0.2-1.1-0.7-1.5c-0.4-0.4-1-0.6-1.7-0.6
		c-0.8,0-1.4,0.3-1.8,0.9c-0.4,0.6-0.6,1.3-0.6,2.1l0.4,0.1c0.1-0.1,0.1-0.2,0.2-0.2c0.1-0.1,0.1-0.1,0.2-0.1c0.3,0,0.4,0.2,0.5,0.7
		c-0.9,0.8-1.6,1.7-2,2.6s-0.6,1.9-0.6,3c0,1.6,0.5,2.8,1.4,3.5c0.9,0.8,2.4,1.1,4.4,1.1l3.4-2.1l-0.1-0.4c-0.3,0-0.6,0-1,0
		s-0.7,0-1,0c-2.1,0-3.6-0.3-4.6-0.8s-1.4-1.3-1.4-2.4c0-0.6,0.2-1.2,0.6-1.8c0.4-0.6,0.9-1.1,1.6-1.6c0.5,1,1,1.7,1.6,2
		c0.5,0.3,1.2,0.5,2.1,0.5h0.6h0.6h5.1v-2.4c0-1.1-0.1-2-0.3-2.5C154,23.6,153.7,23,153.2,22.5z"/>
	<polygon class="st0" points="161.5,20.4 162.8,21.1 163.8,19.2 162.1,18.3 161.4,19.8 160,19.1 159,20.9 160.8,21.8 	"/>
	<path class="st0" d="M167.7,21c0.1-0.3,0.3-0.6,0.4-1c0.1-0.4,0.2-0.8,0.2-1.2c-0.5-0.2-0.9-0.4-1.1-0.6c-0.3-0.2-0.4-0.4-0.4-0.6
		s0-0.3,0-0.3l-0.4-0.2c-0.3,0.6-0.6,1.2-0.7,1.7c-0.1,0.4-0.2,0.7-0.2,1.1l0.6,0.4l1.1,6.3H164c0-1.1-0.1-1.9-0.3-2.4
		c-0.2-0.6-0.5-1.1-0.9-1.6l-0.7,2.2c0.3,0.4,0.6,0.7,0.6,0.8c0.2,0.3,0.3,0.6,0.4,1.1h-4.2h-0.6h-0.6c-0.3,0-0.5-0.2-0.6-0.6
		c-0.2-0.5-0.3-1.4-0.3-2.7v-1.8c0-0.9-0.1-1.6-0.2-2.1c-0.1-0.5-0.4-1-0.7-1.5l-1,2.3c0.3,0.3,0.5,0.5,0.6,0.7
		c0.2,0.3,0.2,0.8,0.2,1.4V25c0,1.5,0.2,2.6,0.5,3.3c0.3,0.6,0.8,0.9,1.6,0.9h0.6h0.6h4.5h0.6h4.4v-2.5l-1-5.7L167.7,21z"/>
	<path class="st0" d="M171.3,21.1l-0.6-3.3c-0.3,0.7-0.6,1.2-0.8,1.7s-0.3,0.8-0.3,1c0,0.1,0,0.4,0.1,0.7c0.2,1,0.4,1.8,0.5,2.5
		s0.2,1.4,0.2,2.2s0.1,1.3,0.1,1.7c0,0.5-0.1,1.1-0.2,1.9l0.6,0.2c0.4-0.8,0.6-1.4,0.7-1.8c0.1-0.5,0.2-1,0.2-1.5c0-0.6,0-1.3-0.1-2
		C171.7,23.5,171.5,22.4,171.3,21.1z"/>
	<path class="st0" d="M187.6,22.2c-0.5-1.5-1.2-2.9-2.2-4.2h-1.8c0.8,1.9,1.4,3.5,1.7,4.8s0.5,2.7,0.5,4.2c0,0.7,0,1.4-0.1,2.1
		s-0.2,1.4-0.4,2.2s-0.4,1.4-0.6,2c-0.2,0.6-0.6,1.4-1.1,2.5h1.8c1.1-1.6,1.8-3.2,2.3-4.9c0.4-1.5,0.6-2.9,0.6-4.1
		C188.4,25.2,188.1,23.7,187.6,22.2z"/>
</g>
</svg>
