<?xml version="1.0" encoding="utf-8"?>
<!-- Generator: Adobe Illustrator 22.0.1, SVG Export Plug-In . SVG Version: 6.00 Build 0)  -->
<svg version="1.1" id="Layer_1" xmlns="http://www.w3.org/2000/svg" xmlns:xlink="http://www.w3.org/1999/xlink" x="0px" y="0px"
	 viewBox="0 0 276.8 46.1" style="enable-background:new 0 0 276.8 46.1;" xml:space="preserve">
<style type="text/css">
	.st0{fill:#BA0017;}
</style>
<g>
	<g>
		<g>
			<g>
				<path class="st0" d="M71.8,29.5h-1.4c-0.4,0-0.8-0.2-1.1-0.5c-0.2-0.3-0.4-0.8-0.5-1.4s-0.2-1.4-0.3-2.3c0-0.7-0.1-1.5-0.1-2.3
					s-0.1-1.4-0.2-1.8s-0.2-0.7-0.3-1c-0.1-0.3-0.3-0.6-0.6-0.8l1.2-1.9c0.3,0.8,0.4,1.7,0.5,2.8c0.1,0.7,0.1,2.3,0.2,4.8
					c0.1,1.2,0.3,1.9,0.5,2.2c0.2,0.3,0.4,0.4,0.6,0.4h1.4V29.5z"/>
				<path class="st0" d="M79.7,29.5h-3.6c0.4,0.2,0.8,0.5,1.1,0.8c0.4,0.4,0.6,0.9,0.6,1.5c0,0.5-0.1,0.9-0.2,1.2
					c-0.2,0.4-0.5,0.6-0.9,0.6c-0.8,0-1.5-0.3-2.1-0.8c-0.8-0.7-1.2-1.5-1.2-2.6l0-0.7h-2.2v-1.7h2.5c0.2-0.6,0.5-1.2,0.8-1.7
					c0.3-0.7,0.7-1.2,1.1-1.6c0.4-0.5,0.8-0.7,1.2-0.7c0.2,0,0.4,0.2,0.5,0.5s0.2,0.7,0.2,1.1c0,0.6-0.1,1-0.4,1.4
					c-0.2,0.2-0.7,0.5-1.6,1h4.3V29.5z M76.8,31.6c0-0.5-0.4-1-1.1-1.5c-0.6-0.4-1.2-0.6-1.8-0.7c0,0.7,0.2,1.3,0.5,1.8
					c0.4,0.6,1,0.8,1.9,0.8c0.2,0,0.3,0,0.4-0.1S76.8,31.7,76.8,31.6z M76.4,26.1c0-0.6-0.1-0.9-0.4-0.9c-0.3,0-0.6,0.3-1,0.9
					c-0.2,0.3-0.5,0.8-0.8,1.5c0.6-0.2,1.1-0.4,1.5-0.6C76.2,26.7,76.4,26.4,76.4,26.1z"/>
				<path class="st0" d="M83.8,31.2c0,0.3-0.2,0.6-0.5,0.9c-0.6,0.2-1.5,0.6-2.8,1.1c0-0.3,0.1-0.5,0.4-0.8
					C81.5,32.2,82.4,31.8,83.8,31.2z"/>
				<path class="st0" d="M84.5,29.5H79v-1.7h4.9c0-0.8-0.1-1.4-0.3-1.8c-0.1-0.3-0.4-0.7-0.9-1.2l0.8-1.6c0.5,0.6,0.8,1.1,0.9,1.4
					c0.2,0.5,0.3,1.3,0.3,2.5V29.5z M82.3,20.7l-0.7,1.4l-1.6-0.8l0.7-1.4L82.3,20.7z M84.5,19.8l-0.8,1.4l-1.6-0.8l0.7-1.4
					L84.5,19.8z"/>
				<path class="st0" d="M90.6,16.9c0,0.3-0.2,0.6-0.5,0.9c-0.6,0.2-1.5,0.6-2.8,1.1c0-0.3,0.1-0.6,0.4-0.8
					C88.2,17.9,89.2,17.5,90.6,16.9z"/>
				<path class="st0" d="M91.3,29.5h-4.4c-0.4,0-0.7-0.1-1-0.3s-0.4-0.5-0.4-0.8c0-0.2,0-0.5,0-0.7s0.1-0.4,0.1-0.7h0.2
					c0.1,0.3,0.2,0.5,0.4,0.6c0.2,0.1,0.4,0.1,0.6,0.1h3.8c0-1.2-0.2-2.1-0.5-2.8c-0.4-0.9-1.1-1.5-2-1.8l0.1-1.9
					c1.1,0.6,1.9,1.4,2.4,2.6c0.4,1,0.6,2.3,0.6,3.8V29.5z"/>
				<path class="st0" d="M95.6,15.5c0,0.4-0.1,0.8-0.4,1.1s-0.7,0.5-1.1,0.5c-0.4,0-0.6-0.1-0.8-0.3S93,16.3,93,16
					c0-0.5,0.1-0.9,0.4-1.3s0.6-0.6,1-0.6c0.4,0,0.6,0.1,0.9,0.4S95.6,15.1,95.6,15.5z M95,15.8c0-0.2-0.1-0.4-0.4-0.6
					s-0.5-0.3-0.6-0.3c-0.2,0-0.3,0.1-0.4,0.2s-0.2,0.3-0.2,0.5c0,0.2,0.1,0.4,0.3,0.5c0.2,0.1,0.4,0.1,0.7,0.1c0.2,0,0.3,0,0.4-0.1
					S95,15.9,95,15.8z"/>
				<path class="st0" d="M96.5,29.5h-5.9v-1.7H94c0.4,0,0.7,0,1,0s0.6-0.1,0.9-0.2c-1.1-0.2-1.8-0.3-2.2-0.5
					c-0.7-0.3-1.1-0.9-1.1-1.7c0-0.7,0.2-1.3,0.5-1.9c0.4-0.7,0.9-1,1.5-1c0.7,0,1.2,0.4,1.5,1.3c0.3,0.7,0.4,1.5,0.4,2.4V29.5z
					 M93.9,19.2l-0.8,1.3l-1.2-0.8l0.8-1.3L93.9,19.2z M95.7,26.1c-0.1-0.5-0.3-0.9-0.4-1.2c-0.3-0.5-0.6-0.7-1-0.7
					c-0.2,0-0.3,0.1-0.5,0.2s-0.2,0.3-0.2,0.5c0,0.5,0.3,0.8,0.8,1C94.6,25.9,95,26,95.7,26.1z M96.1,18.6l-0.8,1.3l-1.2-0.8
					l0.8-1.3L96.1,18.6z"/>
				<path class="st0" d="M102.1,18.6c0,0.1,0,0.2,0,0.3s0,0.2-0.1,0.4l-0.8-0.5c-0.3,0.4-0.5,0.6-0.7,0.7c-0.5,0.5-0.9,0.7-1.2,0.7
					h-0.7c0.3-0.2,0.7-0.4,1.2-0.8c0.4-0.3,0.7-0.6,0.9-0.9c-0.2-0.1-0.4-0.3-0.5-0.4c-0.1-0.2-0.2-0.4-0.2-0.6
					c0-0.4,0.1-0.8,0.4-1.1s0.5-0.5,0.8-0.5c0.2,0,0.3,0.1,0.5,0.3s0.2,0.4,0.2,0.7c0,0.1,0,0.3-0.1,0.4s-0.1,0.4-0.2,0.7
					c0.1,0.1,0.2,0.2,0.3,0.3C102.1,18.4,102.1,18.5,102.1,18.6z M101.4,17.5c0-0.2-0.1-0.3-0.2-0.5s-0.2-0.2-0.4-0.2
					c-0.1,0-0.1,0-0.2,0.1s-0.1,0.1-0.1,0.1c0,0.1,0.1,0.3,0.2,0.4l0.4,0.3C101.4,17.6,101.4,17.5,101.4,17.5z"/>
				<path class="st0" d="M106,26.4l-0.7,1.8c-1,0.4-2.1,0.7-3.4,0.9s-2.5,0.4-3.6,0.4h-2.4v-1.7h2.3c-0.2-0.3-0.3-0.7-0.5-1
					s-0.2-0.8-0.2-1.1c0-0.8,0.3-1.4,1-1.9s1.5-0.8,2.5-0.8c0.8,0,1.5,0.2,2,0.6c0.2,0.2,0.6,0.6,1.1,1.2l-0.2,0.2
					c-0.4-0.1-0.9-0.2-1.2-0.3s-0.7-0.1-1.1-0.1c-0.9,0-1.6,0.1-2.1,0.3s-0.8,0.5-0.8,0.8c0,0.3,0.2,0.7,0.5,1.1s0.7,0.7,1.2,1
					c1.1-0.2,1.9-0.3,2.6-0.5S104.7,26.8,106,26.4z"/>
				<path d="M117.3,31.2c0,0.3-0.2,0.6-0.5,0.9c-0.6,0.2-1.5,0.6-2.8,1.1c0-0.3,0.1-0.5,0.4-0.8C114.9,32.2,115.9,31.8,117.3,31.2z"
					/>
				<path d="M120.1,29.5h-1.4c-0.5,0-0.9-0.4-1.2-1.2c-0.3-0.6-0.5-1.4-0.6-2.3c-0.2,0.4-0.4,0.6-0.7,0.8s-0.6,0.3-0.9,0.3
					c-0.7,0-1.4-0.1-1.9-0.2s-0.7-0.2-0.7-0.4c0-0.6,0.4-1.2,1.1-1.9s1.6-1.3,2.7-1.8c0-0.1,0-0.2-0.1-0.4s-0.1-0.4-0.1-0.4
					c0-0.2,0.1-0.5,0.2-0.7c0.1-0.2,0.3-0.4,0.5-0.7c0.1,0.4,0.1,0.8,0.2,1.2s0.1,0.8,0.2,1.2l0.3,1.7c0.2,0.9,0.3,1.6,0.4,2.1
					c0.2,0.7,0.4,1,0.6,1h1.4V29.5z M115.4,18.7l-0.7,1.4l-1.6-0.8l0.7-1.4L115.4,18.7z M116.7,25.1l-0.2-1.1
					c-0.6,0.2-1,0.4-1.3,0.6s-0.6,0.5-0.8,0.9c0.1,0.1,0.3,0.1,0.5,0.1s0.4,0,0.8,0C116,25.7,116.4,25.5,116.7,25.1z M117.7,17.8
					l-0.8,1.4l-1.6-0.8L116,17L117.7,17.8z"/>
				<path d="M125.2,17.9c0,0.3-0.2,0.6-0.5,0.9c-0.6,0.2-1.5,0.6-2.8,1.1c0-0.3,0.1-0.6,0.4-0.8C122.8,18.9,123.8,18.5,125.2,17.9z"
					/>
				<path d="M125,29.5h-5.6v-1.7h4.9c0-0.8-0.1-1.4-0.3-1.8c-0.1-0.3-0.4-0.7-0.9-1.2l0.8-1.6c0.5,0.6,0.8,1.1,0.9,1.4
					c0.2,0.5,0.3,1.3,0.3,2.5V29.5z M122.7,32.3l-0.7,1.4l-1.6-0.8l0.7-1.4L122.7,32.3z M125,31.4l-0.8,1.4l-1.6-0.8l0.7-1.4
					L125,31.4z"/>
				<path d="M128.3,27c0,0.5-0.1,1-0.3,1.5c-0.1,0.3-0.3,0.7-0.6,1.2l-0.2-0.1c0-0.2,0-0.4,0.1-0.7s0-0.4,0-0.5
					c0-0.7-0.1-1.6-0.2-2.8s-0.2-2.5-0.4-3.8c-0.1-0.8-0.2-1.6-0.3-2.5c0.1-0.3,0.3-0.6,0.4-0.9s0.3-0.6,0.5-0.9
					c0.1,0.7,0.2,1.8,0.4,3s0.3,2.5,0.4,3.5C128.2,25.3,128.3,26.3,128.3,27z"/>
				<path d="M137.8,28.9c0,1.1-0.4,2.1-1.2,3.2c-0.9,1.2-1.9,1.8-3.1,1.8c-0.4,0-0.9,0-1.3-0.1c-0.3-0.1-0.8-0.2-1.3-0.4
					c-0.4-0.1-0.8-0.3-1.3-0.4l0.2-0.3c0.4,0.1,0.7,0.2,1.1,0.3s0.8,0.1,1.1,0.1c0.8,0,1.5-0.2,2.3-0.6c0.6-0.3,1.1-0.8,1.7-1.4
					c0.3-0.3,0.7-0.8,1.2-1.5c-0.9,0-1.5-0.1-2-0.4c-0.5-0.3-0.7-0.8-0.7-1.6c0-0.7,0.2-1.3,0.5-1.9c0.4-0.7,0.8-1,1.4-1
					c0.6,0,1,0.3,1.2,1c0.2,0.5,0.3,1.2,0.3,2.1V28.9z M137.2,27.8c-0.1-0.6-0.3-1.1-0.5-1.3c-0.2-0.2-0.4-0.3-0.6-0.3
					c-0.2,0-0.3,0.1-0.5,0.2s-0.2,0.3-0.2,0.5c0,0.3,0.1,0.6,0.4,0.7S136.5,27.8,137.2,27.8z"/>
				<path d="M144.2,16.1c0,0.5-0.1,0.9-0.3,1.2c-0.2,0.3-0.4,0.5-0.8,0.5c-0.1,0-0.2,0-0.3-0.1s-0.2-0.1-0.3-0.2
					c-0.1,0.2-0.3,0.4-0.4,0.5c-0.2,0.2-0.4,0.3-0.7,0.3c-0.3,0-0.5-0.1-0.6-0.3s-0.2-0.4-0.2-0.8c0-0.2,0-0.3,0.1-0.5
					c0-0.1,0.1-0.3,0.2-0.5l0.2-0.1c0,0.1,0,0.1,0,0.3s0,0.2,0,0.3c0,0.1,0,0.3,0.1,0.4s0.1,0.2,0.3,0.2c0.3,0,0.5-0.2,0.7-0.5
					c0.1-0.2,0.2-0.5,0.3-1l0.2-0.1c0.1,0.3,0.1,0.5,0.1,0.6c0.1,0.2,0.2,0.3,0.4,0.3c0.2,0,0.4-0.2,0.6-0.5
					c0.1-0.3,0.2-0.5,0.2-0.8l0.2-0.1c0,0.1,0.1,0.3,0.1,0.4S144.2,15.9,144.2,16.1z M144.1,18.1c0,0.3-0.2,0.6-0.5,0.9
					c-0.6,0.2-1.5,0.6-2.8,1.1c0-0.3,0.1-0.5,0.4-0.8C141.7,19.1,142.7,18.7,144.1,18.1z"/>
				<path d="M147.6,29.5c0,0.7-0.3,1.5-0.9,2.2c-0.5,0.7-1.2,1.3-2,1.7c-0.8,0.5-1.4,0.7-1.9,0.7c-0.4,0-0.9-0.1-1.5-0.2
					c-0.4-0.1-0.9-0.3-1.4-0.5c-0.5-0.2-0.9-0.4-1.4-0.5l0.2-0.4c0.4,0.1,0.9,0.2,1.3,0.3s0.9,0.1,1.3,0.1c0.8,0,1.7-0.3,2.6-0.8
					c0.8-0.5,1.5-1.1,2.1-1.9s0.9-1.4,0.9-2c0-0.5-0.1-1.1-0.4-1.6c-0.2-0.5-0.6-0.9-1-1.4l0.6-1.5c0.5,0.5,0.9,1,1.2,1.5
					c0.3,0.6,0.4,1.2,0.4,1.9V29.5z"/>
				<path d="M151.7,29.5h-4.8v-1.7h3.8l-1.2-8.3l-0.5-0.2c0-0.4,0-0.9,0.1-1.3s0.2-0.8,0.4-1.1l0.1,0.1c0,0.4,0.2,0.7,0.6,0.8
					c0.3,0.1,0.7,0.3,1,0.4c0,0.3,0,0.7-0.1,1s-0.1,0.6-0.2,0.8l-0.5-0.2l1.2,7.7V29.5z"/>
				<path d="M156.3,29.5h-1.4c-0.4,0-0.8-0.2-1.1-0.5c-0.2-0.3-0.4-0.8-0.5-1.4s-0.2-1.4-0.3-2.3c0-0.7-0.1-1.5-0.1-2.3
					s-0.1-1.4-0.2-1.8s-0.2-0.7-0.3-1c-0.1-0.3-0.3-0.6-0.6-0.8l1.2-1.9c0.3,0.8,0.4,1.7,0.5,2.8c0.1,0.7,0.1,2.3,0.2,4.8
					c0.1,1.2,0.3,1.9,0.5,2.2c0.2,0.3,0.4,0.4,0.6,0.4h1.4V29.5z"/>
				<path d="M160.5,35.5c0,0.3-0.2,0.6-0.5,0.9c-0.6,0.2-1.5,0.6-2.8,1.1c0-0.3,0.1-0.5,0.4-0.8C158.1,36.5,159.1,36.1,160.5,35.5z"
					/>
				<path d="M161.2,29.5h-5.6v-1.7h4.9c0-0.8-0.1-1.4-0.3-1.8c-0.1-0.3-0.4-0.7-0.9-1.2l0.8-1.6c0.5,0.6,0.8,1.1,0.9,1.4
					c0.2,0.5,0.3,1.3,0.3,2.5V29.5z M160.2,31.8l-0.8,1.4l-1.6-0.8l0.7-1.4L160.2,31.8z"/>
				<path d="M173.3,16.6c0,0.1,0,0.2,0,0.3s0,0.2-0.1,0.4l-0.8-0.5c-0.3,0.4-0.5,0.6-0.7,0.7c-0.5,0.5-0.9,0.7-1.2,0.7h-0.7
					c0.3-0.2,0.7-0.4,1.2-0.8c0.4-0.3,0.7-0.6,0.9-0.9c-0.2-0.1-0.4-0.3-0.5-0.4c-0.1-0.2-0.2-0.4-0.2-0.6c0-0.4,0.1-0.8,0.4-1.1
					s0.5-0.5,0.8-0.5c0.2,0,0.3,0.1,0.5,0.3s0.2,0.4,0.2,0.7c0,0.1,0,0.3-0.1,0.4s-0.1,0.4-0.2,0.7c0.1,0.1,0.2,0.2,0.3,0.3
					C173.3,16.4,173.3,16.5,173.3,16.6z M172.6,15.5c0-0.2-0.1-0.3-0.2-0.5s-0.2-0.2-0.4-0.2c-0.1,0-0.1,0-0.2,0.1s-0.1,0.1-0.1,0.1
					c0,0.1,0.1,0.3,0.2,0.4l0.4,0.3C172.5,15.7,172.6,15.6,172.6,15.5z"/>
				<path d="M181,29.5h-9.3c-1.3,0-2.2-0.2-3-0.7c-0.9-0.5-1.4-1.4-1.4-2.6c0-0.6,0.1-1.2,0.4-1.9c0.1-0.2,0.3-0.7,0.7-1.3l0.3,0.2
					c-0.1,0.3-0.3,0.6-0.4,0.9c-0.2,0.5-0.3,0.9-0.3,1.2c0,0.8,0.4,1.4,1.2,1.8c0.7,0.4,1.6,0.6,2.7,0.6h8.3v-0.3
					c0-0.7-0.1-1.3-0.3-1.8s-0.5-0.9-0.9-1.2l0.8-1.6c0.3,0.4,0.5,0.6,0.5,0.7c0.4,0.7,0.7,1.8,0.7,3.2V29.5z M174.2,21.5l-0.7,1.4
					l-1.6-0.8l0.7-1.4L174.2,21.5z M176.4,20.6l-0.8,1.4l-1.6-0.8l0.7-1.4L176.4,20.6z"/>
				<path d="M185.8,18.5c0,0.4-0.1,0.8-0.4,1.1s-0.7,0.5-1.1,0.5c-0.4,0-0.6-0.1-0.8-0.3s-0.3-0.5-0.3-0.8c0-0.5,0.1-0.9,0.4-1.3
					s0.6-0.6,1-0.6c0.4,0,0.6,0.1,0.9,0.4S185.8,18.1,185.8,18.5z M185.2,18.7c0-0.2-0.1-0.4-0.4-0.6s-0.5-0.3-0.6-0.3
					c-0.2,0-0.3,0.1-0.4,0.2s-0.2,0.3-0.2,0.5c0,0.2,0.1,0.4,0.3,0.5c0.2,0.1,0.4,0.1,0.7,0.1c0.2,0,0.3,0,0.4-0.1
					S185.2,18.9,185.2,18.7z"/>
				<path d="M185.9,29.5h-5.6v-1.7h4.9c0-0.8-0.1-1.4-0.3-1.8c-0.1-0.3-0.4-0.7-0.9-1.2l0.8-1.6c0.5,0.6,0.8,1.1,0.9,1.4
					c0.2,0.5,0.3,1.3,0.3,2.5V29.5z M184.9,31.8l-0.8,1.4l-1.6-0.8l0.7-1.4L184.9,31.8z"/>
				<path d="M190.6,34.5c0,0.3-0.2,0.6-0.5,0.9c-0.6,0.2-1.5,0.6-2.8,1.1c0-0.3,0.1-0.5,0.4-0.8C188.2,35.5,189.2,35.1,190.6,34.5z"
					/>
				<path d="M196.5,29.5h-11.3v-1.7h8c-0.7-0.5-1.2-0.9-1.7-1.2c-0.6-0.4-1.1-0.6-1.6-0.8c-0.5-0.2-1.1-0.3-1.6-0.3
					c-0.3,0-0.7,0-1,0.1c0.2-0.5,0.4-0.9,0.7-1.2c0.4-0.4,1-0.6,1.7-0.6c0.7,0,1.4,0.3,2.4,1c0.4,0.3,1.2,0.9,2.2,1.9
					c0.8,0.7,1.3,1.1,1.6,1.2h0.6V29.5z M191.5,31.6l-0.7,1.4l-1.6-0.8l0.8-1.4L191.5,31.6z"/>
				<path d="M202.3,18.5c0,0.4-0.1,0.8-0.4,1.1s-0.7,0.5-1.1,0.5c-0.4,0-0.6-0.1-0.8-0.3s-0.3-0.5-0.3-0.8c0-0.5,0.1-0.9,0.4-1.3
					s0.6-0.6,1-0.6c0.4,0,0.6,0.1,0.9,0.4S202.3,18.1,202.3,18.5z M201.7,18.7c0-0.2-0.1-0.4-0.4-0.6s-0.5-0.3-0.6-0.3
					c-0.2,0-0.3,0.1-0.4,0.2s-0.2,0.3-0.2,0.5c0,0.2,0.1,0.4,0.3,0.5c0.2,0.1,0.4,0.1,0.7,0.1c0.2,0,0.3,0,0.4-0.1
					S201.7,18.9,201.7,18.7z"/>
				<path d="M205.9,26.4l-0.7,1.8c-1,0.4-2.1,0.7-3.4,0.9s-2.5,0.4-3.6,0.4h-2.4v-1.7h2.3c-0.2-0.3-0.3-0.7-0.5-1s-0.2-0.8-0.2-1.1
					c0-0.8,0.3-1.4,1-1.9s1.5-0.8,2.5-0.8c0.8,0,1.5,0.2,2,0.6c0.2,0.2,0.6,0.6,1.1,1.2l-0.2,0.2c-0.4-0.1-0.9-0.2-1.2-0.3
					s-0.7-0.1-1.1-0.1c-0.9,0-1.6,0.1-2.1,0.3s-0.8,0.5-0.8,0.8c0,0.3,0.2,0.7,0.5,1.1s0.7,0.7,1.2,1c1.1-0.2,1.9-0.3,2.6-0.5
					S204.7,26.8,205.9,26.4z"/>
				<path d="M210.4,12.5c0,0.1,0,0.2,0,0.3s0,0.2-0.1,0.4l-0.8-0.5c-0.3,0.4-0.5,0.6-0.7,0.7c-0.5,0.5-0.9,0.7-1.2,0.7h-0.7
					c0.3-0.2,0.7-0.4,1.2-0.8c0.4-0.3,0.7-0.6,0.9-0.9c-0.2-0.1-0.4-0.3-0.5-0.4c-0.1-0.2-0.2-0.4-0.2-0.6c0-0.4,0.1-0.8,0.4-1.1
					s0.5-0.5,0.8-0.5c0.2,0,0.3,0.1,0.5,0.3s0.2,0.4,0.2,0.7c0,0.1,0,0.3-0.1,0.4s-0.1,0.4-0.2,0.7c0.1,0.1,0.2,0.2,0.3,0.3
					C210.4,12.3,210.4,12.4,210.4,12.5z M209.7,11.4c0-0.2-0.1-0.3-0.2-0.5s-0.2-0.2-0.4-0.2c-0.1,0-0.1,0-0.2,0.1s-0.1,0.1-0.1,0.1
					c0,0.1,0.1,0.3,0.2,0.4l0.4,0.3C209.6,11.6,209.7,11.5,209.7,11.4z"/>
				<path d="M210.6,16.3c0,0.2-0.1,0.3-0.3,0.4c-0.1,0.1-0.3,0.2-0.6,0.3l-1.8,0.6c0-0.3,0.3-0.6,1-0.8c-0.2-0.1-0.4-0.2-0.5-0.3
					c-0.1-0.1-0.2-0.3-0.2-0.4c0-0.2,0.2-0.5,0.5-0.8c0.4-0.4,0.7-0.6,1-0.6c0.1,0,0.2,0,0.3,0.1s0.1,0.2,0.1,0.3
					c0,0.1,0,0.2-0.1,0.3s-0.1,0.2-0.2,0.3c-0.2-0.2-0.4-0.3-0.7-0.3c-0.1,0-0.3,0-0.4,0.1s-0.2,0.1-0.2,0.2c0,0.1,0.2,0.2,0.5,0.4
					s0.6,0.3,0.8,0.3c0.1,0,0.2,0,0.3,0S210.4,16.4,210.6,16.3z M210.3,27c0,0.5-0.1,1-0.3,1.5c-0.1,0.3-0.3,0.7-0.6,1.2l-0.2-0.1
					c0-0.2,0-0.4,0.1-0.7s0-0.4,0-0.5c0-0.7-0.1-1.6-0.2-2.8s-0.2-2.5-0.4-3.8c-0.1-0.8-0.2-1.6-0.3-2.5c0.1-0.3,0.3-0.6,0.4-0.9
					s0.3-0.6,0.5-0.9c0.1,0.7,0.2,1.8,0.4,3s0.3,2.5,0.4,3.5C210.2,25.3,210.3,26.3,210.3,27z"/>
			</g>
		</g>
	</g>
</g>
</svg>
