<?xml version="1.0" encoding="utf-8"?>
<!-- Generator: Adobe Illustrator 22.0.1, SVG Export Plug-In . SVG Version: 6.00 Build 0)  -->
<svg version="1.1" id="Layer_1" xmlns="http://www.w3.org/2000/svg" xmlns:xlink="http://www.w3.org/1999/xlink" x="0px" y="0px"
	 viewBox="0 0 276.8 46.1" style="enable-background:new 0 0 276.8 46.1;" xml:space="preserve">
<style type="text/css">
	.st0{fill:#BA0017;}
</style>
<g>
	<g>
		<g>
			<g>
				<g>
					<g>
						<path class="st0" d="M78.2,31.2h-9.3c-1.3,0-2.2-0.2-3-0.7C65,30,64.5,29.1,64.5,28c0-0.6,0.1-1.2,0.4-1.9
							c0.1-0.2,0.3-0.7,0.7-1.3l0.3,0.2c-0.1,0.3-0.3,0.6-0.4,0.9c-0.2,0.5-0.3,0.9-0.3,1.2c0,0.8,0.4,1.4,1.2,1.8
							c0.7,0.4,1.6,0.6,2.7,0.6h8.3v-0.3c0-0.7-0.1-1.3-0.3-1.8s-0.5-0.9-0.9-1.2l0.8-1.6c0.3,0.4,0.5,0.6,0.5,0.7
							c0.4,0.7,0.7,1.8,0.7,3.2V31.2z M71.4,23.2l-0.7,1.4l-1.6-0.8l0.7-1.4L71.4,23.2z M73.6,22.3l-0.8,1.4l-1.6-0.8l0.7-1.4
							L73.6,22.3z"/>
						<path class="st0" d="M82.8,31.2h-1.4c-0.4,0-0.8-0.2-1.1-0.5c-0.2-0.3-0.4-0.8-0.5-1.4s-0.2-1.4-0.3-2.3
							c0-0.7-0.1-1.5-0.1-2.3s-0.1-1.4-0.2-1.8s-0.2-0.7-0.3-1c-0.1-0.3-0.3-0.6-0.6-0.8l1.2-1.9c0.3,0.8,0.4,1.7,0.5,2.8
							c0.1,0.7,0.1,2.3,0.2,4.8c0.1,1.2,0.3,1.9,0.5,2.2c0.2,0.3,0.4,0.4,0.6,0.4h1.4V31.2z"/>
						<path class="st0" d="M90.7,31.2h-3.6c0.4,0.2,0.8,0.5,1.1,0.8c0.4,0.4,0.6,0.9,0.6,1.5c0,0.5-0.1,0.9-0.2,1.2
							c-0.2,0.4-0.5,0.6-0.9,0.6c-0.8,0-1.5-0.3-2.1-0.8c-0.8-0.7-1.2-1.5-1.2-2.6l0-0.7h-2.2v-1.7h2.5c0.2-0.6,0.5-1.2,0.8-1.7
							c0.3-0.7,0.7-1.2,1.1-1.6c0.4-0.5,0.8-0.7,1.2-0.7c0.2,0,0.4,0.2,0.5,0.5s0.2,0.7,0.2,1.1c0,0.6-0.1,1-0.4,1.4
							c-0.2,0.2-0.7,0.5-1.6,1h4.3V31.2z M87.9,33.3c0-0.5-0.4-1-1.1-1.5c-0.6-0.4-1.2-0.6-1.8-0.7c0,0.7,0.2,1.3,0.5,1.8
							c0.4,0.6,1,0.8,1.9,0.8c0.2,0,0.3,0,0.4-0.1S87.9,33.5,87.9,33.3z M87.5,27.9c0-0.6-0.1-0.9-0.4-0.9c-0.3,0-0.6,0.3-1,0.9
							c-0.2,0.3-0.5,0.8-0.8,1.5c0.6-0.2,1.1-0.4,1.5-0.6C87.2,28.4,87.5,28.1,87.5,27.9z"/>
						<path class="st0" d="M95.3,20.3c0,0.1,0,0.2,0,0.3s0,0.2-0.1,0.4l-0.8-0.5c-0.3,0.4-0.5,0.6-0.7,0.7c-0.5,0.5-0.9,0.7-1.2,0.7
							h-0.7c0.3-0.2,0.7-0.4,1.2-0.8c0.4-0.3,0.7-0.6,0.9-0.9c-0.2-0.1-0.4-0.3-0.5-0.4c-0.1-0.2-0.2-0.4-0.2-0.6
							c0-0.4,0.1-0.8,0.4-1.1s0.5-0.5,0.8-0.5c0.2,0,0.3,0.1,0.5,0.3s0.2,0.4,0.2,0.7c0,0.1,0,0.3-0.1,0.4s-0.1,0.4-0.2,0.7
							c0.1,0.1,0.2,0.2,0.3,0.3C95.3,20.1,95.3,20.2,95.3,20.3z M94.6,19.2c0-0.2-0.1-0.3-0.2-0.5s-0.2-0.2-0.4-0.2
							c-0.1,0-0.1,0-0.2,0.1s-0.1,0.1-0.1,0.1c0,0.1,0.1,0.3,0.2,0.4l0.4,0.3C94.6,19.4,94.6,19.3,94.6,19.2z"/>
						<path class="st0" d="M95.6,31.2H90v-1.7h4.9c0-0.8-0.1-1.4-0.3-1.8c-0.1-0.3-0.4-0.7-0.9-1.2l0.8-1.6c0.5,0.6,0.8,1.1,0.9,1.4
							c0.2,0.5,0.3,1.3,0.3,2.5V31.2z M94.6,33.6L93.8,35l-1.6-0.8l0.7-1.4L94.6,33.6z"/>
						<path class="st0" d="M100.6,15.8c-0.2,0-0.5,0-0.7-0.1c-0.1,0-0.2-0.1-0.4-0.1c-0.4,0.3-0.6,0.5-0.8,0.6
							c-0.4,0.2-0.8,0.4-1.1,0.4c-0.1,0-0.2,0-0.3,0s-0.2-0.1-0.3-0.1c0.5-0.2,0.8-0.4,1-0.5c0.3-0.1,0.7-0.3,1-0.5
							c-0.1-0.1-0.3-0.3-0.3-0.4c-0.1-0.1-0.2-0.3-0.2-0.4c0-0.3,0.1-0.6,0.3-0.8s0.5-0.4,0.8-0.4c0.2,0,0.4,0.1,0.5,0.2
							s0.2,0.3,0.2,0.5c0,0.1,0,0.3-0.1,0.4c0,0-0.1,0.2-0.2,0.4c0.2,0.1,0.3,0.2,0.4,0.3C100.6,15.2,100.6,15.4,100.6,15.8z
							 M100.6,16.8c0,0.5-0.1,0.9-0.3,1.2c-0.2,0.4-0.4,0.5-0.8,0.5c-0.1,0-0.2,0-0.3-0.1s-0.2-0.1-0.3-0.2
							c-0.1,0.2-0.3,0.4-0.4,0.5c-0.2,0.2-0.4,0.3-0.7,0.3c-0.3,0-0.5-0.1-0.6-0.3s-0.2-0.4-0.2-0.8c0-0.2,0-0.3,0.1-0.5
							c0-0.1,0.1-0.3,0.2-0.5l0.2-0.1c0,0.1,0,0.1,0,0.3s0,0.2,0,0.3c0,0.1,0,0.3,0.1,0.4s0.1,0.2,0.3,0.2c0.3,0,0.5-0.2,0.7-0.5
							c0.1-0.2,0.2-0.5,0.3-1l0.2-0.1c0.1,0.3,0.1,0.5,0.1,0.6c0.1,0.2,0.2,0.3,0.4,0.3c0.2,0,0.4-0.2,0.6-0.5
							c0.1-0.3,0.2-0.5,0.2-0.8l0.2-0.1c0,0.1,0.1,0.3,0.1,0.4S100.6,16.7,100.6,16.8z M99.8,14.3c0-0.1,0-0.3-0.1-0.4
							s-0.2-0.2-0.4-0.2c0,0-0.1,0-0.1,0.1s0,0.1,0,0.2c0,0.1,0,0.3,0.1,0.3s0.2,0.2,0.4,0.3c0,0,0-0.1,0.1-0.2S99.8,14.3,99.8,14.3
							z"/>
						<path class="st0" d="M106.2,31.2h-0.8c-0.4,0-0.8-0.1-1.1-0.2s-0.6-0.3-0.8-0.5c-0.3,0.2-0.6,0.4-0.8,0.5
							c-0.3,0.1-0.8,0.2-1.4,0.2h-0.6c-0.3,0-0.7-0.1-1-0.2c-0.2-0.1-0.5-0.2-0.8-0.4c-0.3,0.2-0.6,0.4-0.9,0.5s-0.7,0.1-1.3,0.1
							h-1.9v-1.7h1.9c0.5,0,0.9,0,1.1-0.1c0.4-0.1,0.6-0.4,0.6-0.9c0-0.2,0-0.4,0-0.6s-0.1-0.4-0.1-0.6l0.4-0.6
							c0.2,0.6,0.3,1,0.4,1.3c0.2,0.5,0.4,0.8,0.7,1.1c0.3,0.3,0.7,0.4,1.1,0.4h0.7c0.5,0,0.8-0.1,1.1-0.2c0.3-0.2,0.4-0.4,0.4-0.8
							c0-0.2,0-0.4,0-0.6s-0.1-0.4-0.1-0.6l0.4-0.6l0.2,0.9c0.2,0.7,0.4,1.2,0.6,1.5c0.2,0.2,0.5,0.4,0.9,0.4c0.2,0,0.3-0.1,0.4-0.2
							s0.2-0.2,0.2-0.4c0-0.4-0.1-0.7-0.4-1.2c0-0.1-0.2-0.3-0.5-0.6l0.6-1.1c0.3,0.4,0.4,0.8,0.5,1c0.1,0.4,0.2,1,0.2,1.8V31.2z
							 M103.1,23.2l-0.7,1.4l-1.6-0.8l0.7-1.4L103.1,23.2z M103.4,20.6l-0.8,1.4l-1.6-0.8l0.7-1.4L103.4,20.6z M105.3,22.3l-0.8,1.4
							l-1.6-0.8l0.7-1.4L105.3,22.3z"/>
						<path class="st0" d="M110.3,31.2h-4.8v-1.7h3.8l-1.2-8.3l-0.5-0.2c0-0.4,0-0.9,0.1-1.3s0.2-0.8,0.4-1.1l0.1,0.1
							c0,0.4,0.2,0.7,0.6,0.8c0.3,0.1,0.7,0.3,1,0.4c0,0.3,0,0.7-0.1,1s-0.1,0.6-0.2,0.8l-0.5-0.2l1.2,7.7V31.2z"/>
						<path class="st0" d="M114.9,31.2h-1.4c-0.4,0-0.8-0.2-1.1-0.5c-0.2-0.3-0.4-0.8-0.5-1.4s-0.2-1.4-0.3-2.3
							c0-0.7-0.1-1.5-0.1-2.3s-0.1-1.4-0.2-1.8s-0.2-0.7-0.3-1c-0.1-0.3-0.3-0.6-0.6-0.8l1.2-1.9c0.3,0.8,0.4,1.7,0.5,2.8
							c0.1,0.7,0.1,2.3,0.2,4.8c0.1,1.2,0.3,1.9,0.5,2.2c0.2,0.3,0.4,0.4,0.6,0.4h1.4V31.2z"/>
						<path class="st0" d="M119.1,37.2c0,0.3-0.2,0.6-0.5,0.9c-0.6,0.2-1.5,0.6-2.8,1.1c0-0.3,0.1-0.5,0.4-0.8
							C116.7,38.2,117.7,37.8,119.1,37.2z"/>
						<path class="st0" d="M119.8,31.2h-5.6v-1.7h4.9c0-0.8-0.1-1.4-0.3-1.8c-0.1-0.3-0.4-0.7-0.9-1.2l0.8-1.6
							c0.5,0.6,0.8,1.1,0.9,1.4c0.2,0.5,0.3,1.3,0.3,2.5V31.2z M118.8,33.6L118,35l-1.6-0.8l0.7-1.4L118.8,33.6z"/>
						<path d="M131.4,18.6c0,0.3-0.2,0.6-0.5,0.9c-0.6,0.2-1.5,0.6-2.8,1.1c0-0.3,0.1-0.6,0.4-0.8C129,19.6,130,19.2,131.4,18.6z"/>
						<path d="M132.1,31.2h-4.4c-0.4,0-0.7-0.1-1-0.3s-0.4-0.5-0.4-0.8c0-0.2,0-0.5,0-0.7s0.1-0.4,0.1-0.7h0.2
							c0.1,0.3,0.2,0.5,0.4,0.6c0.2,0.1,0.4,0.1,0.6,0.1h3.8c0-1.2-0.2-2.1-0.5-2.8c-0.4-0.9-1.1-1.5-2-1.8l0.1-1.9
							c1.1,0.6,1.9,1.4,2.4,2.6c0.4,1,0.6,2.3,0.6,3.8V31.2z"/>
						<path d="M140.8,30.6c0,1.1-0.4,2.1-1.2,3.2c-0.9,1.2-1.9,1.8-3.1,1.8c-0.4,0-0.9,0-1.3-0.1c-0.3-0.1-0.8-0.2-1.3-0.4
							c-0.4-0.1-0.8-0.3-1.3-0.4l0.2-0.3c0.4,0.1,0.7,0.2,1.1,0.3s0.8,0.1,1.1,0.1c0.8,0,1.5-0.2,2.3-0.6c0.6-0.3,1.1-0.8,1.7-1.4
							c0.3-0.3,0.7-0.8,1.2-1.5c-0.9,0-1.5-0.1-2-0.4c-0.5-0.3-0.7-0.8-0.7-1.6c0-0.7,0.2-1.3,0.5-1.9c0.4-0.7,0.8-1,1.4-1
							c0.6,0,1,0.3,1.2,1c0.2,0.5,0.3,1.2,0.3,2.1V30.6z M140.1,29.6c-0.1-0.6-0.3-1.1-0.5-1.3c-0.2-0.2-0.4-0.3-0.6-0.3
							c-0.2,0-0.3,0.1-0.5,0.2s-0.2,0.3-0.2,0.5c0,0.3,0.1,0.6,0.4,0.7S139.5,29.6,140.1,29.6z"/>
						<path d="M147.5,31.2h-4.4c-0.4,0-0.7-0.1-1-0.3s-0.4-0.5-0.4-0.8c0-0.2,0-0.5,0-0.7s0.1-0.4,0.1-0.7h0.2
							c0.1,0.3,0.2,0.5,0.4,0.6c0.2,0.1,0.4,0.1,0.6,0.1h3.8c0-1.2-0.2-2.1-0.5-2.8c-0.4-0.9-1.1-1.5-2-1.8l0.1-1.9
							c1.1,0.6,1.9,1.4,2.4,2.6c0.4,1,0.6,2.3,0.6,3.8V31.2z"/>
						<path d="M153.6,20.3c0,0.1,0,0.2,0,0.3s0,0.2-0.1,0.4l-0.8-0.5c-0.3,0.4-0.5,0.6-0.7,0.7c-0.5,0.5-0.9,0.7-1.2,0.7h-0.7
							c0.3-0.2,0.7-0.4,1.2-0.8c0.4-0.3,0.7-0.6,0.9-0.9c-0.2-0.1-0.4-0.3-0.5-0.4c-0.1-0.2-0.2-0.4-0.2-0.6c0-0.4,0.1-0.8,0.4-1.1
							s0.5-0.5,0.8-0.5c0.2,0,0.3,0.1,0.5,0.3s0.2,0.4,0.2,0.7c0,0.1,0,0.3-0.1,0.4s-0.1,0.4-0.2,0.7c0.1,0.1,0.2,0.2,0.3,0.3
							C153.6,20.1,153.6,20.2,153.6,20.3z M152.9,19.2c0-0.2-0.1-0.3-0.2-0.5s-0.2-0.2-0.4-0.2c-0.1,0-0.1,0-0.2,0.1
							s-0.1,0.1-0.1,0.1c0,0.1,0.1,0.3,0.2,0.4l0.4,0.3C152.8,19.4,152.9,19.3,152.9,19.2z"/>
						<path d="M158.1,31.2h-11.3v-1.7h8c-0.7-0.5-1.2-0.9-1.7-1.2c-0.6-0.4-1.1-0.6-1.6-0.8c-0.5-0.2-1.1-0.3-1.6-0.3
							c-0.3,0-0.7,0-1,0.1c0.2-0.5,0.4-0.9,0.7-1.2c0.4-0.4,1-0.6,1.7-0.6c0.7,0,1.4,0.3,2.4,1c0.4,0.3,1.2,0.9,2.2,1.9
							c0.8,0.7,1.3,1.1,1.6,1.2h0.6V31.2z"/>
						<path d="M162.2,31.2h-4.8v-1.7h3.8l-1.2-8.3l-0.5-0.2c0-0.4,0-0.9,0.1-1.3s0.2-0.8,0.4-1.1l0.1,0.1c0,0.4,0.2,0.7,0.6,0.8
							c0.3,0.1,0.7,0.3,1,0.4c0,0.3,0,0.7-0.1,1s-0.1,0.6-0.2,0.8l-0.5-0.2l1.2,7.7V31.2z"/>
						<path d="M165.5,28.7c0,0.5-0.1,1-0.3,1.5c-0.1,0.3-0.3,0.7-0.6,1.2l-0.2-0.1c0-0.2,0-0.4,0.1-0.7s0-0.4,0-0.5
							c0-0.7-0.1-1.6-0.2-2.8s-0.2-2.5-0.4-3.8c-0.1-0.8-0.2-1.6-0.3-2.5c0.1-0.3,0.3-0.6,0.4-0.9s0.3-0.6,0.5-0.9
							c0.1,0.7,0.2,1.8,0.4,3s0.3,2.5,0.4,3.5C165.5,27.1,165.5,28.1,165.5,28.7z"/>
						<path d="M175.2,28.7c0,0.5-0.1,1-0.3,1.5c-0.1,0.3-0.3,0.7-0.6,1.2l-0.2-0.1c0-0.2,0-0.4,0.1-0.7s0-0.4,0-0.5
							c0-0.7-0.1-1.6-0.2-2.8s-0.2-2.5-0.4-3.8c-0.1-0.8-0.2-1.6-0.3-2.5c0.1-0.3,0.3-0.6,0.4-0.9s0.3-0.6,0.5-0.9
							c0.1,0.7,0.2,1.8,0.4,3s0.3,2.5,0.4,3.5C175.2,27.1,175.2,28.1,175.2,28.7z"/>
						<path d="M184.7,30.6c0,1.1-0.4,2.1-1.2,3.2c-0.9,1.2-1.9,1.8-3.1,1.8c-0.4,0-0.9,0-1.3-0.1c-0.3-0.1-0.8-0.2-1.3-0.4
							c-0.4-0.1-0.8-0.3-1.3-0.4l0.2-0.3c0.4,0.1,0.7,0.2,1.1,0.3s0.8,0.1,1.1,0.1c0.8,0,1.5-0.2,2.3-0.6c0.6-0.3,1.1-0.8,1.7-1.4
							c0.3-0.3,0.7-0.8,1.2-1.5c-0.9,0-1.5-0.1-2-0.4c-0.5-0.3-0.7-0.8-0.7-1.6c0-0.7,0.2-1.3,0.5-1.9c0.4-0.7,0.8-1,1.4-1
							c0.6,0,1,0.3,1.2,1c0.2,0.5,0.3,1.2,0.3,2.1V30.6z M184.1,29.6c-0.1-0.6-0.3-1.1-0.5-1.3c-0.2-0.2-0.4-0.3-0.6-0.3
							c-0.2,0-0.3,0.1-0.5,0.2s-0.2,0.3-0.2,0.5c0,0.3,0.1,0.6,0.4,0.7S183.5,29.6,184.1,29.6z"/>
						<path d="M193.4,30.6c0,1.1-0.4,2.1-1.2,3.2c-0.9,1.2-1.9,1.8-3.1,1.8c-0.4,0-0.9,0-1.3-0.1c-0.3-0.1-0.8-0.2-1.3-0.4
							c-0.4-0.1-0.8-0.3-1.3-0.4l0.2-0.3c0.4,0.1,0.7,0.2,1.1,0.3s0.8,0.1,1.1,0.1c0.8,0,1.5-0.2,2.3-0.6c0.6-0.3,1.1-0.8,1.7-1.4
							c0.3-0.3,0.7-0.8,1.2-1.5c-0.9,0-1.5-0.1-2-0.4c-0.5-0.3-0.7-0.8-0.7-1.6c0-0.7,0.2-1.3,0.5-1.9c0.4-0.7,0.8-1,1.4-1
							c0.6,0,1,0.3,1.2,1c0.2,0.5,0.3,1.2,0.3,2.1V30.6z M191,24.6c0,0.2-0.1,0.3-0.3,0.4c-0.1,0.1-0.3,0.2-0.6,0.3l-1.8,0.6
							c0-0.3,0.3-0.6,1-0.8c-0.2-0.1-0.4-0.2-0.5-0.3c-0.1-0.1-0.2-0.3-0.2-0.4c0-0.2,0.2-0.5,0.5-0.8c0.4-0.4,0.7-0.6,1-0.6
							c0.1,0,0.2,0,0.3,0.1s0.1,0.2,0.1,0.3c0,0.1,0,0.2-0.1,0.3s-0.1,0.2-0.2,0.3c-0.2-0.2-0.4-0.3-0.7-0.3c-0.1,0-0.3,0-0.4,0.1
							s-0.2,0.1-0.2,0.2c0,0.1,0.2,0.2,0.5,0.4s0.6,0.3,0.8,0.3c0.1,0,0.2,0,0.3,0S190.8,24.6,191,24.6z M192.7,29.6
							c-0.1-0.6-0.3-1.1-0.5-1.3c-0.2-0.2-0.4-0.3-0.6-0.3c-0.2,0-0.3,0.1-0.5,0.2s-0.2,0.3-0.2,0.5c0,0.3,0.1,0.6,0.4,0.7
							S192.1,29.6,192.7,29.6z"/>
						<path d="M199.9,19.6c0,0.3-0.2,0.6-0.5,0.9c-0.6,0.2-1.5,0.6-2.8,1.1c0-0.3,0.1-0.6,0.4-0.8C197.5,20.6,198.5,20.2,199.9,19.6
							z"/>
						<path d="M203.1,31.2c0,0.7-0.3,1.5-0.9,2.2c-0.5,0.7-1.2,1.3-2,1.7c-0.8,0.5-1.4,0.7-1.9,0.7c-0.4,0-0.9-0.1-1.5-0.2
							c-0.4-0.1-0.9-0.3-1.4-0.5c-0.5-0.2-0.9-0.4-1.4-0.5l0.2-0.4c0.4,0.1,0.9,0.2,1.3,0.3s0.9,0.1,1.3,0.1c0.8,0,1.7-0.3,2.6-0.8
							c0.8-0.5,1.5-1.1,2.1-1.9s0.9-1.4,0.9-2c0-0.5-0.1-1.1-0.4-1.6c-0.2-0.5-0.6-0.9-1-1.4l0.6-1.5c0.5,0.5,0.9,1,1.2,1.5
							c0.3,0.6,0.4,1.2,0.4,1.9V31.2z"/>
						<path d="M208.9,19.2c0,0.4-0.1,0.8-0.4,1.1s-0.7,0.5-1.1,0.5c-0.4,0-0.6-0.1-0.8-0.3s-0.3-0.5-0.3-0.8c0-0.5,0.1-0.9,0.4-1.3
							s0.6-0.6,1-0.6c0.4,0,0.6,0.1,0.9,0.4S208.9,18.8,208.9,19.2z M208.3,19.5c0-0.2-0.1-0.4-0.4-0.6s-0.5-0.3-0.6-0.3
							c-0.2,0-0.3,0.1-0.4,0.2s-0.2,0.3-0.2,0.5c0,0.2,0.1,0.4,0.3,0.5c0.2,0.1,0.4,0.1,0.7,0.1c0.2,0,0.3,0,0.4-0.1
							S208.3,19.6,208.3,19.5z"/>
						<path d="M209.9,31.2h-4.4c-0.4,0-0.7-0.1-1-0.3s-0.4-0.5-0.4-0.8c0-0.2,0-0.5,0-0.7s0.1-0.4,0.1-0.7h0.2
							c0.1,0.3,0.2,0.5,0.4,0.6c0.2,0.1,0.4,0.1,0.6,0.1h3.8c0-1.2-0.2-2.1-0.5-2.8c-0.4-0.9-1.1-1.5-2-1.8l0.1-1.9
							c1.1,0.6,1.9,1.4,2.4,2.6c0.4,1,0.6,2.3,0.6,3.8V31.2z"/>
						<path d="M213.2,28.7c0,0.5-0.1,1-0.3,1.5c-0.1,0.3-0.3,0.7-0.6,1.2l-0.2-0.1c0-0.2,0-0.4,0.1-0.7s0-0.4,0-0.5
							c0-0.7-0.1-1.6-0.2-2.8s-0.2-2.5-0.4-3.8c-0.1-0.8-0.2-1.6-0.3-2.5c0.1-0.3,0.3-0.6,0.4-0.9s0.3-0.6,0.5-0.9
							c0.1,0.7,0.2,1.8,0.4,3s0.3,2.5,0.4,3.5C213.1,27.1,213.2,28.1,213.2,28.7z"/>
					</g>
				</g>
			</g>
		</g>
	</g>
</g>
</svg>
