<?xml version="1.0" encoding="utf-8"?>
<!-- Generator: Adobe Illustrator 22.0.1, SVG Export Plug-In . SVG Version: 6.00 Build 0)  -->
<svg version="1.1" id="Layer_1" xmlns="http://www.w3.org/2000/svg" xmlns:xlink="http://www.w3.org/1999/xlink" x="0px" y="0px"
	 viewBox="0 0 276.8 46.1" style="enable-background:new 0 0 276.8 46.1;" xml:space="preserve">
<style type="text/css">
	.st0{fill:#BA0017;}
</style>
<g>
	<g>
		<g>
			<g>
				<g>
					<path d="M59.8,17.4c0,0.3-0.2,0.6-0.5,0.9c-0.6,0.2-1.5,0.6-2.8,1.1c0-0.3,0.1-0.6,0.4-0.8C57.4,18.4,58.4,18,59.8,17.4z"/>
					<path d="M58.5,25c-0.1,0-0.3,0-0.6,0s-0.4,0-0.6,0c-0.4,0-0.9,0-1.4,0.1c-0.3,0.1-0.8,0.1-1.4,0.3c0.3-0.7,0.5-1.2,0.7-1.4
						c0.5-0.5,1.3-0.7,2.5-0.7c0.4,0,1.3,0.1,2.6,0.3c0.6,0.1,1.2,0.1,1.6,0.1c0.2,0,0.5,0,0.8-0.1s0.6-0.1,0.8-0.1l-0.4,1.7
						c-1.4,0.2-2.5,0.5-3.5,0.8c-1.4,0.4-2.5,1-3.3,1.6c-1,0.8-1.5,1.7-1.5,2.8c0,1.4,0.7,2.5,2.2,3.2c1.3,0.6,3,0.9,5.1,0.9H64
						l0.1,0.1l-2.2,1.6h-0.6c-1.4,0-2.6-0.1-3.5-0.4c-1.1-0.3-2-0.8-2.5-1.5c-0.7-0.8-1-1.8-1-3.1c0-1.1,0.3-2.1,0.8-2.9
						c0.4-0.7,1-1.3,1.7-1.9C57,26,57.6,25.7,58.5,25z M61.3,29.3l-0.8,1.5l-1.5-0.9l0.8-1.4L61.3,29.3z"/>
					<path d="M69.6,29h-1.4c-0.4,0-0.8-0.2-1.1-0.5c-0.2-0.3-0.4-0.8-0.5-1.4s-0.2-1.4-0.3-2.3c0-0.7-0.1-1.5-0.1-2.3
						s-0.1-1.4-0.2-1.8s-0.2-0.7-0.3-1c-0.1-0.3-0.3-0.6-0.6-0.8l1.2-1.9c0.3,0.8,0.4,1.7,0.5,2.8c0.1,0.7,0.1,2.3,0.2,4.8
						c0.1,1.2,0.3,1.9,0.5,2.2c0.2,0.3,0.4,0.4,0.6,0.4h1.4V29z"/>
					<path d="M76.1,17.5c0,0.5-0.1,0.9-0.3,1.2c-0.2,0.4-0.4,0.5-0.8,0.5c-0.1,0-0.2,0-0.3-0.1s-0.2-0.1-0.3-0.2
						c-0.1,0.2-0.3,0.4-0.4,0.5c-0.2,0.2-0.4,0.3-0.7,0.3c-0.3,0-0.5-0.1-0.6-0.3s-0.2-0.4-0.2-0.8c0-0.2,0-0.3,0.1-0.5
						c0-0.1,0.1-0.3,0.2-0.5l0.2-0.1c0,0.1,0,0.1,0,0.3s0,0.2,0,0.3c0,0.1,0,0.3,0.1,0.4s0.1,0.2,0.3,0.2c0.3,0,0.5-0.2,0.7-0.5
						c0.1-0.2,0.2-0.5,0.3-1l0.2-0.1c0.1,0.3,0.1,0.5,0.1,0.6c0.1,0.2,0.2,0.3,0.4,0.3c0.2,0,0.4-0.2,0.6-0.5
						c0.1-0.3,0.2-0.5,0.2-0.8l0.2-0.1c0,0.1,0.1,0.3,0.1,0.4S76.1,17.4,76.1,17.5z M76,15.2c0,0.3-0.2,0.6-0.5,0.9
						c-0.6,0.2-1.5,0.6-2.8,1.1c0-0.3,0.1-0.5,0.4-0.8C73.6,16.1,74.6,15.7,76,15.2z"/>
					<path d="M80.2,29H68.9v-1.7h8c-0.7-0.5-1.2-0.9-1.7-1.2c-0.6-0.4-1.1-0.6-1.6-0.8C73.1,25.1,72.6,25,72,25c-0.3,0-0.7,0-1,0.1
						c0.2-0.5,0.4-0.9,0.7-1.2c0.4-0.4,1-0.6,1.7-0.6c0.7,0,1.4,0.3,2.4,1c0.4,0.3,1.2,0.9,2.2,1.9c0.8,0.7,1.3,1.1,1.6,1.2h0.6V29z
						 M75.2,31.1l-0.7,1.4l-1.6-0.8l0.8-1.4L75.2,31.1z"/>
					<path d="M90.8,29H79.5v-1.7h8c-0.7-0.5-1.2-0.9-1.7-1.2c-0.6-0.4-1.1-0.6-1.6-0.8c-0.5-0.2-1.1-0.3-1.6-0.3c-0.3,0-0.7,0-1,0.1
						c0.2-0.5,0.4-0.9,0.7-1.2c0.4-0.4,1-0.6,1.7-0.6c0.7,0,1.4,0.3,2.4,1c0.4,0.3,1.2,0.9,2.2,1.9c0.8,0.7,1.3,1.1,1.6,1.2h0.6V29z
						"/>
					<path d="M94.9,29h-4.8v-1.7h3.8L92.8,19l-0.5-0.2c0-0.4,0-0.9,0.1-1.3s0.2-0.8,0.4-1.1l0.1,0.1c0,0.4,0.2,0.7,0.6,0.8
						c0.3,0.1,0.7,0.3,1,0.4c0,0.3,0,0.7-0.1,1s-0.1,0.6-0.2,0.8l-0.5-0.2l1.2,7.7V29z"/>
					<path d="M98.2,26.5c0,0.5-0.1,1-0.3,1.5c-0.1,0.3-0.3,0.7-0.6,1.2l-0.2-0.1c0-0.2,0-0.4,0.1-0.7s0-0.4,0-0.5
						c0-0.7-0.1-1.6-0.2-2.8s-0.2-2.5-0.4-3.8c-0.1-0.8-0.2-1.6-0.3-2.5c0.1-0.3,0.3-0.6,0.4-0.9s0.3-0.6,0.5-0.9
						c0.1,0.7,0.2,1.8,0.4,3s0.3,2.5,0.4,3.5C98.2,24.9,98.2,25.8,98.2,26.5z"/>
					<path class="st0" d="M110.3,30.7c0,0.3-0.2,0.6-0.5,0.9c-0.6,0.2-1.5,0.6-2.8,1.1c0-0.3,0.1-0.5,0.4-0.8
						C107.9,31.7,108.9,31.3,110.3,30.7z"/>
					<path class="st0" d="M118.9,29h-9.3c-1.3,0-2.2-0.2-3-0.7c-0.9-0.5-1.4-1.4-1.4-2.6c0-0.6,0.1-1.2,0.4-1.9
						c0.1-0.2,0.3-0.7,0.7-1.3l0.3,0.2c-0.1,0.3-0.3,0.6-0.4,0.9c-0.2,0.5-0.3,0.9-0.3,1.2c0,0.8,0.4,1.4,1.2,1.8
						c0.7,0.4,1.6,0.6,2.7,0.6h8.3V27c0-0.7-0.1-1.3-0.3-1.8s-0.5-0.9-0.9-1.2l0.8-1.6c0.3,0.4,0.5,0.6,0.5,0.7
						c0.4,0.7,0.7,1.8,0.7,3.2V29z M112.1,21l-0.7,1.4l-1.6-0.8l0.7-1.4L112.1,21z M114.3,20.1l-0.8,1.4l-1.6-0.8l0.7-1.4
						L114.3,20.1z"/>
					<path class="st0" d="M123.5,29h-1.4c-0.4,0-0.8-0.2-1.1-0.5c-0.2-0.3-0.4-0.8-0.5-1.4s-0.2-1.4-0.3-2.3c0-0.7-0.1-1.5-0.1-2.3
						s-0.1-1.4-0.2-1.8s-0.2-0.7-0.3-1c-0.1-0.3-0.3-0.6-0.6-0.8l1.2-1.9c0.3,0.8,0.4,1.7,0.5,2.8c0.1,0.7,0.1,2.3,0.2,4.8
						c0.1,1.2,0.3,1.9,0.5,2.2c0.2,0.3,0.4,0.4,0.6,0.4h1.4V29z"/>
					<path class="st0" d="M128.8,29h-6v-1.7h5.2c0-0.6-0.1-1.1-0.2-1.6c-0.3,0.1-0.6,0.2-0.8,0.2c-0.3,0.1-0.6,0.1-0.8,0.1
						c-0.5,0-0.9-0.1-1.2-0.4c-0.3-0.3-0.5-0.7-0.5-1.2c0-0.9,0.2-1.7,0.5-2.4c0.4-0.8,0.8-1.1,1.4-1.1c0.8,0,1.4,0.6,1.8,1.9
						c0.4,1,0.5,2.2,0.5,3.6V29z M127.5,18.2l-0.8,1.4l-1.6-0.8l0.7-1.4L127.5,18.2z M127.2,23.9c-0.1-0.2-0.2-0.5-0.4-0.7
						c-0.3-0.3-0.5-0.5-0.8-0.5c-0.2,0-0.3,0.1-0.4,0.2s-0.2,0.3-0.2,0.5c0,0.5,0.3,0.8,0.9,0.8c0.1,0,0.3,0,0.5-0.1
						S127.1,24,127.2,23.9z"/>
					<path class="st0" d="M135.4,17.4c0,0.3-0.2,0.6-0.5,0.9c-0.6,0.2-1.5,0.6-2.8,1.1c0-0.3,0.1-0.6,0.4-0.8
						C133,18.4,134,18,135.4,17.4z"/>
					<path class="st0" d="M138.6,29c0,0.7-0.3,1.5-0.9,2.2c-0.5,0.7-1.2,1.3-2,1.7c-0.8,0.5-1.4,0.7-1.9,0.7c-0.4,0-0.9-0.1-1.5-0.2
						c-0.4-0.1-0.9-0.3-1.4-0.5c-0.5-0.2-0.9-0.4-1.4-0.5l0.2-0.4c0.4,0.1,0.9,0.2,1.3,0.3s0.9,0.1,1.3,0.1c0.8,0,1.7-0.3,2.6-0.8
						c0.8-0.5,1.5-1.1,2.1-1.9s0.9-1.4,0.9-2c0-0.5-0.1-1.1-0.4-1.6c-0.2-0.5-0.6-0.9-1-1.4l0.6-1.5c0.5,0.5,0.9,1,1.2,1.5
						c0.3,0.6,0.4,1.2,0.4,1.9V29z"/>
					<path class="st0" d="M144.7,17.4c0,0.3-0.2,0.6-0.5,0.9c-0.6,0.2-1.5,0.6-2.8,1.1c0-0.3,0.1-0.6,0.4-0.8
						C142.3,18.4,143.3,18,144.7,17.4z"/>
					<path class="st0" d="M148,25.9l-0.7,1.8c-1,0.4-2.1,0.7-3.4,0.9s-2.5,0.4-3.6,0.4h-2.4v-1.7h2.3c-0.2-0.3-0.3-0.7-0.5-1
						s-0.2-0.8-0.2-1.1c0-0.8,0.3-1.4,1-1.9s1.5-0.8,2.5-0.8c0.8,0,1.5,0.2,2,0.6c0.2,0.2,0.6,0.6,1.1,1.2l-0.2,0.2
						c-0.4-0.1-0.9-0.2-1.2-0.3s-0.7-0.1-1.1-0.1c-0.9,0-1.6,0.1-2.1,0.3s-0.8,0.5-0.8,0.8c0,0.3,0.2,0.7,0.5,1.1s0.7,0.7,1.2,1
						c1.1-0.2,1.9-0.3,2.6-0.5S146.8,26.3,148,25.9z"/>
					<path d="M166.5,29h-1.7c-1,0-1.8,0-2.3,0.1s-0.8,0.2-0.8,0.3c0,0.2,0.3,0.3,0.9,0.3c0.3,0,0.5,0,0.6,0s0.5,0,1,0.1
						c0.3,0,0.5,0.1,0.6,0.1c0.2,0.1,0.3,0.3,0.3,0.5c0,1.2-0.4,2.1-1.2,2.7c-0.9,0.6-2.3,0.9-4.3,0.9c-1.4,0-2.5-0.2-3.3-0.7
						c-0.9-0.5-1.3-1.2-1.3-2.2c0-0.8,0.2-1.6,0.6-2.4c0.1-0.3,0.5-1,1.2-2l0.4,0.2c-0.2,0.4-0.5,0.8-0.7,1.3
						c-0.4,0.7-0.6,1.3-0.6,1.8c0,0.8,0.4,1.4,1.3,1.8c0.8,0.4,1.9,0.6,3.3,0.6c0.9,0,1.8-0.1,2.5-0.2c0.9-0.2,1.3-0.4,1.3-0.7
						c0-0.1,0-0.2-0.1-0.2s-0.3-0.1-0.5-0.1c-0.2,0-0.5,0-0.8-0.1s-0.6,0-0.7,0c-0.4,0-0.7-0.1-0.9-0.2s-0.3-0.3-0.3-0.5
						c0-0.8,0.2-1.5,0.7-2c0.4-0.4,0.9-0.7,1.6-0.9c0.5-0.1,1-0.2,1.6-0.2h1.7V29z M160.4,35.2l-0.9,0.8l-1.1-0.7l0.9-0.9
						L160.4,35.2z M162.4,35.2l-0.9,0.8l-1.1-0.7l0.9-0.9L162.4,35.2z"/>
					<path d="M171.8,29h-6v-1.7h5.2c0-0.6-0.1-1.1-0.2-1.6c-0.3,0.1-0.6,0.2-0.8,0.2c-0.3,0.1-0.6,0.1-0.8,0.1
						c-0.5,0-0.9-0.1-1.2-0.4c-0.3-0.3-0.5-0.7-0.5-1.2c0-0.9,0.2-1.7,0.5-2.4c0.4-0.8,0.8-1.1,1.4-1.1c0.8,0,1.4,0.6,1.8,1.9
						c0.4,1,0.5,2.2,0.5,3.6V29z M170.5,18.2l-0.8,1.4l-1.6-0.8l0.7-1.4L170.5,18.2z M170.2,23.9c-0.1-0.2-0.2-0.5-0.4-0.7
						c-0.3-0.3-0.5-0.5-0.8-0.5c-0.2,0-0.3,0.1-0.4,0.2s-0.2,0.3-0.2,0.5c0,0.5,0.3,0.8,0.9,0.8c0.1,0,0.3,0,0.5-0.1
						S170.1,24,170.2,23.9z"/>
					<path d="M183.9,16.2c0,0.1,0,0.2,0,0.3s0,0.2-0.1,0.4l-0.8-0.5c-0.3,0.4-0.5,0.6-0.7,0.7c-0.5,0.5-0.9,0.7-1.2,0.7h-0.7
						c0.3-0.2,0.7-0.4,1.2-0.8c0.4-0.3,0.7-0.6,0.9-0.9c-0.2-0.1-0.4-0.3-0.5-0.4c-0.1-0.2-0.2-0.4-0.2-0.6c0-0.4,0.1-0.8,0.4-1.1
						s0.5-0.5,0.8-0.5c0.2,0,0.3,0.1,0.5,0.3s0.2,0.4,0.2,0.7c0,0.1,0,0.3-0.1,0.4s-0.1,0.4-0.2,0.7c0.1,0.1,0.2,0.2,0.3,0.3
						C183.9,15.9,183.9,16,183.9,16.2z M183.2,15c0-0.2-0.1-0.3-0.2-0.5s-0.2-0.2-0.4-0.2c-0.1,0-0.1,0-0.2,0.1s-0.1,0.1-0.1,0.1
						c0,0.1,0.1,0.3,0.2,0.4l0.4,0.3C183.2,15.2,183.2,15.1,183.2,15z"/>
					<path d="M191.6,29h-9.3c-1.3,0-2.2-0.2-3-0.7c-0.9-0.5-1.4-1.4-1.4-2.6c0-0.6,0.1-1.2,0.4-1.9c0.1-0.2,0.3-0.7,0.7-1.3l0.3,0.2
						c-0.1,0.3-0.3,0.6-0.4,0.9c-0.2,0.5-0.3,0.9-0.3,1.2c0,0.8,0.4,1.4,1.2,1.8c0.7,0.4,1.6,0.6,2.7,0.6h8.3V27
						c0-0.7-0.1-1.3-0.3-1.8s-0.5-0.9-0.9-1.2l0.8-1.6c0.3,0.4,0.5,0.6,0.5,0.7c0.4,0.7,0.7,1.8,0.7,3.2V29z M184.8,21l-0.7,1.4
						l-1.6-0.8l0.7-1.4L184.8,21z M187,20.1l-0.8,1.4l-1.6-0.8l0.7-1.4L187,20.1z"/>
					<path d="M197.4,17c0,0.4-0.1,0.8-0.4,1.1s-0.7,0.5-1.1,0.5c-0.4,0-0.6-0.1-0.8-0.3s-0.3-0.5-0.3-0.8c0-0.5,0.1-0.9,0.4-1.3
						s0.6-0.6,1-0.6c0.4,0,0.6,0.1,0.9,0.4S197.4,16.6,197.4,17z M196.8,17.3c0-0.2-0.1-0.4-0.4-0.6s-0.5-0.3-0.6-0.3
						c-0.2,0-0.3,0.1-0.4,0.2s-0.2,0.3-0.2,0.5c0,0.2,0.1,0.4,0.3,0.5c0.2,0.1,0.4,0.1,0.7,0.1c0.2,0,0.3,0,0.4-0.1
						S196.8,17.4,196.8,17.3z"/>
					<path d="M198.4,29H194c-0.4,0-0.7-0.1-1-0.3s-0.4-0.5-0.4-0.8c0-0.2,0-0.5,0-0.7s0.1-0.4,0.1-0.7h0.2c0.1,0.3,0.2,0.5,0.4,0.6
						c0.2,0.1,0.4,0.1,0.6,0.1h3.8c0-1.2-0.2-2.1-0.5-2.8c-0.4-0.9-1.1-1.5-2-1.8l0.1-1.9c1.1,0.6,1.9,1.4,2.4,2.6
						c0.4,1,0.6,2.3,0.6,3.8V29z"/>
					<path d="M204.1,17.4c0,0.3-0.2,0.6-0.5,0.9c-0.6,0.2-1.5,0.6-2.8,1.1c0-0.3,0.1-0.6,0.4-0.8C201.8,18.4,202.7,18,204.1,17.4z"
						/>
					<path d="M206.1,27.3c0,0.4-0.1,0.8-0.4,1.3c-0.3,0.5-0.5,0.8-0.8,0.8c-0.3,0-0.8-0.2-1.5-0.5c-0.7-0.3-1.2-0.6-1.7-0.9
						c-0.8,0.4-1.3,0.7-1.7,0.8c-0.4,0.2-1,0.2-1.5,0.2h-0.9v-1.7h0.9c0.3,0,0.5,0,0.8-0.1s0.6-0.1,1-0.2c-0.2-0.1-0.3-0.3-0.5-0.4
						c-0.2-0.2-0.3-0.3-0.3-0.5c0-0.1,0-0.2,0-0.2s0.1-0.1,0.1-0.3l1-1.7c0.1-0.2,0.2-0.4,0.4-0.5s0.3-0.2,0.4-0.2
						c-0.4-0.3-0.7-0.5-0.7-0.7s0.1-0.5,0.4-1c0.1-0.2,0.2-0.5,0.4-0.8c0.4,0.4,0.9,1,1.6,1.7c0.8,1,1.4,1.8,1.9,2.5
						C205.8,26,206.1,26.8,206.1,27.3z M202.6,25.2c0-0.3-0.1-0.5-0.2-0.7c-0.1-0.2-0.4-0.3-0.7-0.3s-0.6,0.1-0.8,0.3
						s-0.4,0.4-0.4,0.7c0,0.3,0.4,0.6,1.2,1.1c0.3-0.2,0.5-0.4,0.6-0.5C202.6,25.6,202.6,25.4,202.6,25.2z M205,27.5
						c0-0.2-0.2-0.6-0.5-1.1c-0.2-0.3-0.5-0.6-0.8-1c0,0.3-0.1,0.6-0.2,0.9s-0.3,0.5-0.6,0.6c0.4,0.2,0.8,0.4,1.2,0.6
						c0.3,0.1,0.6,0.2,0.7,0.2c0.1,0,0.1,0,0.2-0.1S205,27.5,205,27.5z"/>
					<path d="M212,29h-1.4c-0.4,0-0.8-0.2-1.1-0.5c-0.2-0.3-0.4-0.8-0.5-1.4s-0.2-1.4-0.3-2.3c0-0.7-0.1-1.5-0.1-2.3
						s-0.1-1.4-0.2-1.8s-0.2-0.7-0.3-1c-0.1-0.3-0.3-0.6-0.6-0.8l1.2-1.9c0.3,0.8,0.4,1.7,0.5,2.8c0.1,0.7,0.1,2.3,0.2,4.8
						c0.1,1.2,0.3,1.9,0.5,2.2c0.2,0.3,0.4,0.4,0.6,0.4h1.4V29z"/>
					<path d="M222.6,29h-0.8c-0.4,0-0.8-0.1-1.1-0.2s-0.6-0.3-0.8-0.5c-0.3,0.2-0.6,0.4-0.8,0.5c-0.3,0.1-0.8,0.2-1.4,0.2h-0.6
						c-0.3,0-0.7-0.1-1-0.2c-0.2-0.1-0.5-0.2-0.8-0.4c-0.3,0.2-0.6,0.4-0.9,0.5s-0.7,0.1-1.3,0.1h-1.9v-1.7h1.9c0.5,0,0.9,0,1.1-0.1
						c0.4-0.1,0.6-0.4,0.6-0.9c0-0.2,0-0.4,0-0.6s-0.1-0.4-0.1-0.6l0.4-0.6c0.2,0.6,0.3,1,0.4,1.3c0.2,0.5,0.4,0.8,0.7,1.1
						c0.3,0.3,0.7,0.4,1.1,0.4h0.7c0.5,0,0.8-0.1,1.1-0.2c0.3-0.2,0.4-0.4,0.4-0.8c0-0.2,0-0.4,0-0.6s-0.1-0.4-0.1-0.6l0.4-0.6
						l0.2,0.9c0.2,0.7,0.4,1.2,0.6,1.5c0.2,0.2,0.5,0.4,0.9,0.4c0.2,0,0.3-0.1,0.4-0.2s0.2-0.2,0.2-0.4c0-0.4-0.1-0.7-0.4-1.2
						c0-0.1-0.2-0.3-0.5-0.6l0.6-1.1c0.3,0.4,0.4,0.8,0.5,1c0.1,0.4,0.2,1,0.2,1.8V29z M219.5,21l-0.7,1.4l-1.6-0.8l0.7-1.4
						L219.5,21z M219.8,18.4l-0.8,1.4l-1.6-0.8l0.7-1.4L219.8,18.4z M221.7,20.1l-0.8,1.4l-1.6-0.8l0.7-1.4L221.7,20.1z"/>
				</g>
			</g>
		</g>
	</g>
</g>
</svg>
