<?xml version="1.0" encoding="utf-8"?>
<!-- Generator: Adobe Illustrator 22.0.1, SVG Export Plug-In . SVG Version: 6.00 Build 0)  -->
<svg version="1.1" id="Layer_1" xmlns="http://www.w3.org/2000/svg" xmlns:xlink="http://www.w3.org/1999/xlink" x="0px" y="0px"
	 viewBox="0 0 288.8 46.1" style="enable-background:new 0 0 288.8 46.1;" xml:space="preserve">
<style type="text/css">
	.st0{fill:#542C0B;}
</style>
<g>
	<path class="st0" d="M110.7,16.9h-1.8c-0.8,1.2-1.5,2.4-2,3.8c-0.6,1.6-0.9,3.3-0.9,5.1c0,1.4,0.2,2.9,0.7,4.5
		c0.5,1.5,1.2,3,2.2,4.4h1.8c-0.5-1.2-0.9-2.1-1.1-2.7c-0.3-1-0.6-2-0.8-3c-0.2-1.1-0.3-2.1-0.3-3.1c0-1.5,0.2-2.9,0.5-4.2
		C109.2,20.4,109.8,18.8,110.7,16.9z"/>
	<path class="st0" d="M128.3,21.4l-0.7,2.2c0.3,0.4,0.6,0.7,0.6,0.8c0.2,0.3,0.3,0.6,0.4,1.1h-4.2h-0.6h-0.6c-0.3,0-0.5-0.1-0.6-0.3
		c-0.2-0.3-0.4-0.9-0.6-1.8l-0.9-5.8c-0.3,0.5-0.5,1-0.6,1.3c-0.1,0.4-0.2,0.6-0.2,0.9c0,0.1,0,0.2,0,0.3c0,0.1,0,0.2,0,0.3
		l-0.5,0.3c-0.4,0.3-0.8,0.5-1,0.6c-0.4,0.3-0.7,0.5-0.8,0.6c-0.2,0.2-0.5,0.8-0.9,1.6s-0.6,1.4-0.6,1.6c0,0.1,0.1,0.2,0.2,0.2
		s0.4,0.1,0.9,0.2l1.1,0.2c0.2,0,0.3,0.1,0.4,0.1c0.2,0,0.5-0.2,0.9-0.5c0.2-0.2,0.6-0.6,1-1.1c0.1,1.1,0.3,2,0.6,2.7
		c0.2,0.5,0.5,0.8,0.9,1c0.2,0.1,0.4,0.1,0.6,0.1h0.6h0.6h5.1v-2.4c0-1.1-0.1-2-0.3-2.5C129.1,22.5,128.8,21.9,128.3,21.4z
		 M120.2,23.2c-0.1,0.1-0.3,0.1-0.4,0.1c-0.2,0-0.4,0-0.6-0.1c-0.2,0-0.3-0.1-0.3-0.2s0.1-0.2,0.2-0.3c0.1-0.1,0.2-0.2,0.4-0.3
		c0.2-0.2,0.5-0.3,0.8-0.5c0.1-0.1,0.3-0.1,0.5-0.2l0.2,1.1C120.5,23,120.3,23.1,120.2,23.2z"/>
	<polygon class="st0" points="125.3,30.9 127.5,32 128.6,29.9 126.4,28.7 	"/>
	<polygon class="st0" points="143.6,20.3 145,21.1 146,19.2 144.3,18.2 143.5,19.7 142.1,19.1 141.2,20.9 142.9,21.8 	"/>
	<path class="st0" d="M172.3,19.9c0.1-0.3,0.3-0.6,0.4-1c0.1-0.4,0.2-0.8,0.2-1.2c-0.5-0.2-0.9-0.4-1.1-0.6
		c-0.3-0.2-0.4-0.4-0.4-0.6s0-0.3,0-0.3L171,16c-0.3,0.6-0.6,1.2-0.7,1.7c-0.1,0.4-0.2,0.7-0.2,1.1l0.6,0.4l1.1,6.3h-3.4
		c-0.1-0.7-0.3-1.5-0.7-2.3c-0.5-0.9-0.8-1.4-1.2-1.4c-0.3,0-0.8,0.2-1.2,0.7c-0.5,0.5-1,1.1-1.3,1.9c-0.2,0.4-0.5,0.7-0.9,0.9
		c-0.3,0.1-0.8,0.2-1.3,0.2h-1.2l-1-5.7l0.3,0.1c0.1-0.3,0.3-0.6,0.4-1c0.1-0.4,0.2-0.8,0.2-1.2c-0.5-0.2-0.9-0.4-1.1-0.6
		c-0.3-0.2-0.4-0.4-0.4-0.6s0-0.3,0-0.3l-0.4-0.2c-0.3,0.6-0.6,1.2-0.7,1.7c-0.1,0.4-0.2,0.7-0.2,1.1l0.6,0.4l1.1,6.3h-3.3
		c-0.5-0.1-0.9-0.2-1.1-0.4s-0.6-0.5-1.1-1c-0.7-0.7-1.2-1.3-1.6-1.6c-0.5-0.4-0.9-0.8-1.3-1c-0.4-0.2-0.8-0.3-1.2-0.3
		c-0.5,0-1,0.2-1.4,0.6s-0.8,0.9-1.1,1.7c0.3-0.1,0.4-0.1,0.6-0.1s0.3,0,0.4,0c0.5,0,1.1,0.2,1.6,0.5c0.6,0.3,1.3,0.9,2.1,1.7h-6
		c-0.1-0.8-0.2-1.5-0.5-2.1c-0.4-1-0.9-1.4-1.6-1.4c-0.6,0-1.2,0.5-1.6,1.5c-0.5,0.9-0.7,1.8-0.7,2.7c0,0.6,0.2,1.1,0.6,1.4
		s0.9,0.5,1.6,0.5c0.3,0,0.8,0,1.4-0.1c0,0.1,0,0.2,0.1,0.3c0,0.1,0,0.2,0,0.3c0,0.6-0.5,1.2-1.5,1.7s-2.1,0.7-3.4,0.7
		c-1.4,0-2.5-0.2-3.3-0.6s-1.2-1-1.2-1.8c0-0.5,0.1-1.1,0.4-1.6c0.2-0.6,0.6-1.2,1.2-2.1l-0.6-0.4c-0.9,1.2-1.4,2.2-1.8,3
		c-0.3,0.7-0.4,1.6-0.4,2.5c0,1,0.5,1.9,1.4,2.4s2.2,0.8,3.9,0.8c2,0,3.6-0.4,4.7-1.3c0.5-0.4,0.8-0.8,1-1.2
		c0.1-0.4,0.2-1.2,0.2-2.4V28h9.3h0.6h3.8h0.6h1.2c0.4,0,0.8,0,1-0.1c0.5-0.2,1-0.5,1.3-1.1c0.6,0.3,1.3,0.6,2,0.8
		c0.6,0.2,1.1,0.3,1.6,0.3V28h5.1v-2.5l-1-5.7L172.3,19.9z M144.2,25.5c-0.1,0-0.2,0-0.4,0c-0.5,0-0.8-0.2-0.8-0.6
		c0-0.2,0-0.3,0.1-0.4s0.2-0.1,0.4-0.1s0.4,0.1,0.6,0.2c0.2,0.2,0.3,0.4,0.5,0.8C144.5,25.5,144.3,25.5,144.2,25.5z M166.6,25.3
		c-0.1,0-0.3-0.1-0.8-0.3c-0.2-0.1-0.4-0.2-0.7-0.3c0.2-0.6,0.4-0.8,0.6-0.8c0.2,0,0.5,0.2,0.8,0.6c0.3,0.3,0.4,0.6,0.4,0.7
		C166.8,25.3,166.8,25.3,166.6,25.3z"/>
	<path class="st0" d="M175.9,20.1l-0.6-3.3c-0.3,0.7-0.6,1.2-0.8,1.7s-0.3,0.8-0.3,1c0,0.1,0,0.4,0.1,0.7c0.2,1,0.4,1.8,0.5,2.5
		s0.2,1.4,0.2,2.2s0.1,1.3,0.1,1.7c0,0.5-0.1,1.1-0.2,1.9l0.6,0.2c0.4-0.8,0.6-1.4,0.7-1.8c0.1-0.5,0.2-1,0.2-1.5c0-0.6,0-1.3-0.1-2
		C176.2,22.4,176.1,21.3,175.9,20.1z"/>
	<path class="st0" d="M186.9,21.1c-0.5-1.5-1.2-2.9-2.2-4.2H183c0.8,1.9,1.4,3.5,1.7,4.8s0.5,2.7,0.5,4.2c0,0.7,0,1.4-0.1,2.1
		s-0.2,1.4-0.4,2.2s-0.4,1.4-0.6,2c-0.2,0.6-0.6,1.4-1.1,2.5h1.8c1.1-1.6,1.8-3.2,2.3-4.9c0.4-1.5,0.6-2.9,0.6-4.1
		C187.7,24.1,187.4,22.6,186.9,21.1z"/>
</g>
</svg>
