<?xml version="1.0" encoding="utf-8"?>
<!-- Generator: Adobe Illustrator 22.0.1, SVG Export Plug-In . SVG Version: 6.00 Build 0)  -->
<svg version="1.1" id="Layer_1" xmlns="http://www.w3.org/2000/svg" xmlns:xlink="http://www.w3.org/1999/xlink" x="0px" y="0px"
	 viewBox="0 0 288.8 46.1" style="enable-background:new 0 0 288.8 46.1;" xml:space="preserve">
<style type="text/css">
	.st0{fill:#542C0B;}
</style>
<g>
	<path class="st0" d="M43.3,17.7h-1.8c-0.8,1.2-1.5,2.4-2,3.8c-0.6,1.6-0.9,3.3-0.9,5.1c0,1.4,0.2,2.9,0.7,4.5
		c0.5,1.5,1.2,3,2.2,4.4h1.8c-0.5-1.2-0.9-2.1-1.1-2.7c-0.3-1-0.6-2-0.8-3c-0.2-1.1-0.3-2.1-0.3-3.1c0-1.5,0.2-2.9,0.5-4.2
		C41.9,21.1,42.5,19.5,43.3,17.7z"/>
	<polygon class="st0" points="62.8,17.8 60.6,16.7 59.5,18.8 61.7,19.9 	"/>
	<polygon class="st0" points="66.1,30.9 64.7,30.2 63.7,32 65.4,33 66.2,31.5 67.5,32.2 68.5,30.4 66.8,29.4 	"/>
	<path class="st0" d="M80.9,21.9c-0.4,0-0.9,0.1-1.3,0.4c-0.2,0.1-0.5,0.3-0.9,0.6l-3.3,2.4c-0.5,0.4-1,0.6-1.2,0.8
		c-0.3,0.1-0.5,0.2-0.8,0.2s-0.5-0.1-0.7-0.3c-0.2-0.2-0.3-0.5-0.3-0.8c0-0.2,0-0.6,0-1c0-0.1,0-0.3,0-0.5l-0.6-0.1
		c-0.1,1-0.4,1.7-0.8,2.2c-0.4,0.4-0.9,0.5-1.6,0.5h-0.7c0-1.1-0.1-1.9-0.3-2.4c-0.2-0.6-0.5-1.1-0.9-1.6l-0.7,2.2
		c0.3,0.4,0.6,0.7,0.6,0.8c0.2,0.3,0.3,0.6,0.4,1.1h-4.2c0-1.7-0.1-3-0.4-3.8c-0.3-0.9-0.8-1.4-1.4-1.4c-0.7,0-1.3,0.5-1.9,1.4
		c-0.5,0.9-0.8,1.8-0.8,2.6c0,0.3,0,0.5,0.1,0.7s0.3,0.3,0.5,0.4c-0.8,0-1.7,0-2.6,0.1c-0.9,0-1.8,0.1-2.8,0.1
		c-1.4,0-2.3-0.2-2.9-0.5c-0.5-0.3-0.7-0.7-0.7-1.4c0-0.5,0.2-1.3,0.7-2.3L50.8,22c-0.5,1.2-0.8,2-0.9,2.5s-0.2,1.1-0.2,1.8
		c0,0.9,0.3,1.6,0.8,2C51,28.8,52,29,53.3,29c0.1,0,0.8,0,2.1-0.1s2.4-0.1,3.2-0.1c1.4,0,2.6-0.1,3.7-0.1h0.6h0.6h5.1l0,0h0.7
		c0.5,0,1-0.1,1.3-0.3c0.4-0.2,0.7-0.6,1.1-1.1c0.2,0.5,0.4,0.8,0.7,1.1s0.6,0.3,1,0.3h9.8v-3.5c0-1.1-0.2-2-0.7-2.6
		C82.1,22.1,81.6,21.9,80.9,21.9z M60.9,24.6c-0.3-0.2-0.4-0.3-0.4-0.5c0-0.1,0-0.3,0.1-0.3c0.1-0.1,0.2-0.1,0.3-0.1
		c0.2,0,0.4,0.1,0.6,0.3c0.1,0.2,0.3,0.6,0.5,1.2C61.6,24.9,61.2,24.8,60.9,24.6z M78.9,26.2h-2.4c1-0.7,1.7-1.2,2.2-1.4
		c0.5-0.3,1-0.4,1.4-0.4s0.9,0.1,1.2,0.2c0.4,0.2,0.7,0.4,0.7,0.7C82,25.9,81,26.2,78.9,26.2z"/>
	<polygon class="st0" points="78.7,18.8 76.5,17.7 75.4,19.8 77.6,20.9 	"/>
	<path class="st0" d="M86.4,16.7c0.1-0.1,0.2-0.2,0.2-0.4c-0.4,0.1-0.6,0.1-0.7,0.1s-0.3-0.1-0.6-0.3s-0.4-0.3-0.4-0.4
		c0.1-0.1,0.1-0.1,0.2-0.1c0.1-0.1,0.2-0.1,0.3-0.1c0.1,0,0.3,0.1,0.6,0.2c0.1-0.1,0.1-0.2,0.2-0.3c0-0.1,0-0.2,0-0.3s0-0.2-0.1-0.3
		s-0.2-0.1-0.3-0.1c-0.4,0-0.8,0.3-1.2,0.8c-0.1,0.1-0.1,0.2-0.2,0.3c0,0.1-0.1,0.2-0.1,0.3c0,0.1,0,0.2,0.1,0.3
		c0.1,0.1,0.2,0.2,0.4,0.3c-0.2,0.1-0.4,0.1-0.5,0.2s-0.2,0.2-0.3,0.5l2-0.6C86.3,16.9,86.4,16.8,86.4,16.7z"/>
	<path class="st0" d="M86.2,20.8l-0.6-3.3c-0.3,0.7-0.6,1.2-0.8,1.7c-0.2,0.5-0.3,0.8-0.3,1c0,0.1,0,0.4,0.1,0.7
		c0.2,1,0.4,1.8,0.5,2.5s0.2,1.4,0.2,2.2s0.1,1.3,0.1,1.7c0,0.5-0.1,1.1-0.2,1.9l0.6,0.2c0.4-0.8,0.6-1.4,0.7-1.8
		c0.1-0.5,0.2-1,0.2-1.5c0-0.6,0-1.3-0.1-2C86.5,23.1,86.4,22,86.2,20.8z"/>
	<path class="st0" d="M95.5,20.8L95,17.5c-0.3,0.7-0.6,1.2-0.8,1.7c-0.2,0.5-0.3,0.8-0.3,1c0,0.1,0,0.4,0.1,0.7
		c0.2,1,0.4,1.8,0.5,2.5s0.2,1.4,0.2,2.2s0.1,1.3,0.1,1.7c0,0.5-0.1,1.1-0.2,1.9l0.6,0.2c0.4-0.8,0.6-1.4,0.7-1.8
		c0.1-0.5,0.2-1,0.2-1.5c0-0.6,0-1.3-0.1-2C95.9,23.1,95.7,22,95.5,20.8z"/>
	<path class="st0" d="M101.1,20l-0.7,2.9c0.5,0.3,0.9,0.7,1.2,1.2c0.4,0.5,0.6,1.3,0.7,2.2h-3.2c-0.2,0-0.4,0-0.6-0.1
		s-0.3-0.3-0.3-0.5h-0.4c-0.1,0.3-0.1,0.6-0.1,1c0,0.3,0,0.6,0,0.9c0,0.5,0.1,0.8,0.4,1c0.2,0.2,0.5,0.3,0.9,0.3h4.2v-3
		c0-1.4-0.2-2.6-0.5-3.5C102.4,21.4,101.9,20.6,101.1,20z"/>
	<polygon class="st0" points="101.6,16.6 99.5,15.4 98.4,17.5 100.5,18.7 	"/>
	<path class="st0" d="M106.1,20.8l-0.6-3.3c-0.3,0.7-0.6,1.2-0.8,1.7c-0.2,0.5-0.3,0.8-0.3,1c0,0.1,0,0.4,0.1,0.7
		c0.2,1,0.4,1.8,0.5,2.5s0.2,1.4,0.2,2.2s0.1,1.3,0.1,1.7c0,0.5-0.1,1.1-0.2,1.9l0.6,0.2c0.4-0.8,0.6-1.4,0.7-1.8
		c0.1-0.5,0.2-1,0.2-1.5c0-0.6,0-1.3-0.1-2C106.5,23.1,106.3,22,106.1,20.8z"/>
	<path class="st0" d="M105.3,31.8c-0.3-0.2-0.4-0.3-0.4-0.4c0.1-0.1,0.1-0.1,0.2-0.1c0.1-0.1,0.2-0.1,0.3-0.1c0.1,0,0.3,0.1,0.6,0.2
		c0.1-0.1,0.1-0.2,0.2-0.3c0-0.1,0-0.2,0-0.3c0-0.1,0-0.2-0.1-0.3c-0.1-0.1-0.2-0.1-0.3-0.1c-0.4,0-0.8,0.3-1.2,0.8
		c-0.1,0.1-0.1,0.2-0.2,0.3c0,0.1-0.1,0.2-0.1,0.3c0,0.1,0,0.2,0.1,0.3s0.2,0.2,0.4,0.3c-0.2,0.1-0.4,0.2-0.5,0.3s-0.2,0.2-0.3,0.5
		l2-0.6c0.1,0,0.2-0.1,0.3-0.2c0.1-0.1,0.2-0.2,0.2-0.4c-0.2,0-0.5,0-0.5,0C105.8,32,105.6,32,105.3,31.8z"/>
	<polygon class="st0" points="126.2,17.8 124,16.7 122.9,18.8 125.1,19.9 	"/>
	<path class="st0" d="M125.1,21.1c-0.7,0-1.3,0.5-1.9,1.4c-0.5,0.9-0.8,1.8-0.8,2.6c0,0.3,0,0.5,0.1,0.7s0.3,0.3,0.5,0.4
		c-0.8,0-1.7,0-2.6,0.1c-0.9,0-1.8,0.1-2.8,0.1c-1.4,0-2.3-0.2-2.9-0.5c-0.5-0.3-0.7-0.7-0.7-1.4c0-0.5,0.2-1.3,0.7-2.3l-0.6-0.3
		c-0.5,1.2-0.8,2-0.9,2.5s-0.2,1.1-0.2,1.8c0,0.9,0.3,1.6,0.8,2c0.6,0.5,1.5,0.7,2.8,0.7c0.1,0,0.8,0,2.1-0.1s2.4-0.1,3.2-0.1
		c1.4,0,2.6-0.1,3.7-0.1h1.2v-2.5c0-1.7-0.1-3-0.4-3.8C126.2,21.5,125.8,21.1,125.1,21.1z M124.3,24.6c-0.3-0.2-0.4-0.3-0.4-0.5
		c0-0.1,0-0.3,0.1-0.3c0.1-0.1,0.2-0.1,0.3-0.1c0.2,0,0.4,0.1,0.6,0.3c0.1,0.2,0.3,0.6,0.5,1.2C125,24.9,124.6,24.8,124.3,24.6z"/>
	<path class="st0" d="M153.5,20.6c0.1-0.3,0.3-0.6,0.4-1c0.1-0.4,0.2-0.8,0.2-1.2c-0.5-0.2-0.9-0.4-1.1-0.6
		c-0.3-0.2-0.4-0.4-0.4-0.6s0-0.3,0-0.3l-0.4-0.2c-0.3,0.6-0.6,1.2-0.7,1.7c-0.1,0.4-0.2,0.7-0.2,1.1l0.6,0.4l1.1,6.3h-3.3v-1
		c0-1.1-0.2-2-0.7-2.6c-0.4-0.5-1-0.7-1.7-0.7c-0.4,0-0.9,0.1-1.3,0.4c-0.2,0.1-0.5,0.3-0.9,0.6l-3.3,2.4c-0.5,0.4-1,0.6-1.2,0.8
		c-0.3,0.1-0.5,0.2-0.8,0.2s-0.5-0.1-0.7-0.3c-0.2-0.2-0.3-0.5-0.3-0.8c0-0.2,0-0.6,0-1c0-0.1,0-0.3,0-0.5l-0.6-0.1
		c-0.1,1-0.4,1.7-0.8,2.2c-0.4,0.4-0.9,0.5-1.6,0.5h-0.7v-0.1c0-0.7-0.1-1.4-0.3-1.9c-0.2-0.6-0.6-1.1-1-1.5l-0.5,2.5
		c0.3,0.3,0.6,0.7,0.8,1.1s0.3,0.7,0.3,1c0,0.5-0.5,1.2-1.5,2.1c-0.7,0.7-1.3,1.1-1.7,1.3c-0.4,0.2-0.8,0.4-1.3,0.4
		c-0.4,0-0.8-0.1-1.1-0.2s-0.8-0.4-1.3-0.7l-0.4,0.6c1.2,0.8,2,1.3,2.5,1.6c0.6,0.3,1.2,0.5,1.7,0.5s1-0.3,1.6-0.8s1.1-1,1.5-1.6
		s0.6-1.1,0.6-1.5v-0.2h0.7c0.5,0,1-0.1,1.3-0.3c0.4-0.2,0.7-0.6,1.1-1.1c0.2,0.5,0.4,0.8,0.7,1.1s0.6,0.3,1,0.3h9.1h0.6h4.4v-2.5
		l-1-5.7L153.5,20.6z M145.4,26.2H143c1-0.7,1.7-1.2,2.2-1.4c0.5-0.3,1-0.4,1.4-0.4s0.9,0.1,1.2,0.2c0.4,0.2,0.7,0.4,0.7,0.7
		C148.4,25.9,147.4,26.2,145.4,26.2z"/>
	<path class="st0" d="M157,20.8l-0.6-3.3c-0.3,0.7-0.6,1.2-0.8,1.7s-0.3,0.8-0.3,1c0,0.1,0,0.4,0.1,0.7c0.2,1,0.4,1.8,0.5,2.5
		s0.2,1.4,0.2,2.2s0.1,1.3,0.1,1.7c0,0.5-0.1,1.1-0.2,1.9l0.6,0.2c0.4-0.8,0.6-1.4,0.7-1.8c0.1-0.5,0.2-1,0.2-1.5c0-0.6,0-1.3-0.1-2
		C157.4,23.1,157.3,22,157,20.8z"/>
	<polygon class="st0" points="170.7,21 168.6,19.9 167.4,21.9 169.6,23.1 	"/>
	<path class="st0" d="M179.7,22.5c-0.3,0-0.8,0.2-1.2,0.7c-0.5,0.5-1,1.1-1.3,1.9c-0.2,0.4-0.5,0.7-0.9,0.9
		c-0.3,0.1-0.8,0.2-1.3,0.2h-1.2c0-0.7-0.1-1.3-0.3-1.8c-0.1-0.3-0.4-0.8-0.8-1.6l-0.8,2.5c0.4,0.8,0.7,1.4,0.9,1.8s0.2,0.8,0.2,1.1
		c0,0.6-0.4,1.1-1.1,1.6s-1.7,0.6-2.8,0.6s-2-0.2-2.7-0.6s-1-0.9-1-1.6c0-0.5,0.1-1,0.3-1.5s0.6-1.2,1.2-2.3l-0.6-0.4
		c-0.8,1.3-1.4,2.3-1.7,3s-0.4,1.5-0.4,2.3c0,1,0.4,1.8,1.2,2.3c0.8,0.5,2,0.8,3.5,0.8c0.8,0,1.5-0.1,2.3-0.3
		c0.7-0.2,1.3-0.5,1.7-0.8s0.7-0.7,0.8-1.2c0.1-0.4,0.2-1,0.2-1.6h1.2c0.4,0,0.8,0,1-0.1c0.5-0.2,1-0.5,1.3-1.1
		c0.6,0.3,1.3,0.6,2,0.8c0.9,0.3,1.6,0.4,2.3,0.4v-2c0-0.8-0.2-1.8-0.7-2.8C180.4,23,180,22.5,179.7,22.5z M179.7,26.1
		c-0.1,0-0.3-0.1-0.8-0.3c-0.2-0.1-0.4-0.2-0.7-0.3c0.2-0.6,0.4-0.8,0.6-0.8c0.2,0,0.5,0.2,0.8,0.6c0.3,0.3,0.4,0.6,0.4,0.7
		C179.9,26,179.8,26.1,179.7,26.1z"/>
	<path class="st0" d="M195.9,32.8c-0.2,0-0.4,0-0.8,0h-0.2c-2.3,0-4-0.3-5.1-0.8c-0.9-0.4-1.4-1.1-1.4-1.9c0-0.9,0.5-1.7,1.6-2.5
		s2.6-1.4,4.5-1.9c0.2-0.5,0.4-0.8,0.5-1.1c0.1-0.2,0.2-0.6,0.4-1.2c-1,0.2-1.7,0.4-2.1,0.5c-0.5,0.1-1.1,0.4-2,0.8
		c-0.7-0.3-1.2-0.6-1.6-0.9c-0.3-0.3-0.4-0.5-0.4-0.8s0.4-0.6,1.2-0.8c0.8-0.2,1.8-0.3,3.1-0.3c0.2,0,0.4,0,0.5,0c0.2,0,0.3,0,0.5,0
		c-0.4-0.6-0.9-1-1.5-1.3s-1.2-0.5-1.9-0.5c-0.5,0-0.9,0.1-1.4,0.2s-0.7,0.4-0.9,0.6c-0.3,0.3-0.5,0.8-0.8,1.5s-0.4,1.2-0.4,1.6
		c0,0.3,0.1,0.7,0.4,1.1c0.2,0.5,0.5,0.9,0.8,1.2c-0.6,0.6-1,1.3-1.3,2.1c-0.2,0.7-0.4,1.5-0.4,2.4c0,1.4,0.4,2.5,1.3,3.2
		s2.2,1.1,3.9,1.1h0.9l3.5-2.2l-0.2-0.4C196.4,32.8,196.1,32.8,195.9,32.8z"/>
	<polygon class="st0" points="210.8,18.7 208.7,17.5 207.6,19.6 209.7,20.7 	"/>
	<path class="st0" d="M230.2,20.6c0.1-0.3,0.3-0.6,0.4-1c0.1-0.4,0.2-0.8,0.2-1.2c-0.5-0.2-0.9-0.4-1.1-0.6
		c-0.3-0.2-0.4-0.4-0.4-0.6s0-0.3,0-0.3l-0.4-0.2c-0.3,0.6-0.6,1.2-0.7,1.7c-0.1,0.4-0.2,0.7-0.2,1.1l0.6,0.4l1.1,6.3h-3.4
		c-0.1-0.7-0.3-1.5-0.7-2.3c-0.5-0.9-0.8-1.4-1.2-1.4c-0.3,0-0.8,0.2-1.2,0.7c-0.5,0.5-1,1.1-1.3,1.9c-0.2,0.4-0.5,0.7-0.9,0.9
		c-0.3,0.1-0.8,0.2-1.3,0.2h-1.2c-0.1-0.7-0.3-1.5-0.7-2.3c-0.5-0.9-0.8-1.4-1.2-1.4c-0.3,0-0.8,0.2-1.2,0.7c-0.5,0.5-1,1.1-1.3,1.9
		c-0.2,0.4-0.5,0.7-0.9,0.9c-0.3,0.1-0.8,0.2-1.3,0.2h-1.2c0-1.1-0.1-1.9-0.3-2.4c-0.2-0.6-0.5-1.1-0.9-1.6l-0.7,2.2
		c0.3,0.4,0.6,0.7,0.6,0.8c0.2,0.3,0.3,0.6,0.4,1.1h-4.2v-0.5c0-0.9-0.2-1.8-0.5-2.4s-0.8-1-1.3-1c-0.6,0-1.1,0.5-1.6,1.4
		c-0.4,0.9-0.6,1.7-0.6,2.7c0,0.7,0.2,1.2,0.5,1.6c0.4,0.4,0.8,0.6,1.5,0.6c0.2,0,0.4,0,0.6-0.1c-0.7,0.9-1.5,1.5-2.1,1.9
		c-0.6,0.3-1.2,0.5-1.8,0.5c-0.4,0-0.8-0.1-1.2-0.2s-1-0.4-1.6-0.9l-0.4,0.5c1.3,1,2.2,1.6,2.8,1.9c0.6,0.3,1.2,0.5,1.7,0.5
		c0.9,0,1.8-0.5,2.7-1.6c0.7-0.8,1.1-1.7,1.3-2.5h4.6h0.6h1.2c0.4,0,0.8,0,1-0.1c0.5-0.2,1-0.5,1.3-1.1c0.6,0.3,1.3,0.6,2,0.8
		c0.6,0.2,1.1,0.3,1.6,0.3v0.1h1.8c0.4,0,0.8,0,1-0.1c0.5-0.2,1-0.5,1.3-1.1c0.6,0.3,1.3,0.6,2,0.8c0.6,0.2,1.1,0.3,1.6,0.3v0.1h5.1
		v-2.5l-1-5.7L230.2,20.6z M204.2,26.2c-0.4,0-0.7-0.1-1-0.2s-0.4-0.3-0.4-0.5s0.1-0.3,0.2-0.5c0.1-0.2,0.3-0.2,0.5-0.2
		c0.5,0,0.9,0.5,1.1,1.5L204.2,26.2L204.2,26.2z M216.7,26.1c-0.1,0-0.3-0.1-0.8-0.3c-0.2-0.1-0.4-0.2-0.7-0.3
		c0.2-0.6,0.4-0.8,0.6-0.8c0.2,0,0.5,0.2,0.8,0.6c0.3,0.3,0.4,0.6,0.4,0.7C216.9,26,216.8,26.1,216.7,26.1z M224.6,26.1
		c-0.1,0-0.3-0.1-0.8-0.3c-0.2-0.1-0.4-0.2-0.7-0.3c0.2-0.6,0.4-0.8,0.6-0.8c0.2,0,0.5,0.2,0.8,0.6c0.3,0.3,0.4,0.6,0.4,0.7
		C224.8,26,224.7,26.1,224.6,26.1z"/>
	<path class="st0" d="M233.8,20.8l-0.6-3.3c-0.3,0.7-0.6,1.2-0.8,1.7s-0.3,0.8-0.3,1c0,0.1,0,0.4,0.1,0.7c0.2,1,0.4,1.8,0.5,2.5
		s0.2,1.4,0.2,2.2s0.1,1.3,0.1,1.7c0,0.5-0.1,1.1-0.2,1.9l0.6,0.2c0.4-0.8,0.6-1.4,0.7-1.8c0.1-0.5,0.2-1,0.2-1.5c0-0.6,0-1.3-0.1-2
		C234.2,23.1,234,22,233.8,20.8z"/>
	<path class="st0" d="M244.8,21.9c-0.5-1.5-1.2-2.9-2.2-4.2h-1.8c0.8,1.9,1.4,3.5,1.7,4.8s0.5,2.7,0.5,4.2c0,0.7,0,1.4-0.1,2.1
		s-0.2,1.4-0.4,2.2s-0.4,1.4-0.6,2c-0.2,0.6-0.6,1.4-1.1,2.5h1.8c1.1-1.6,1.8-3.2,2.3-4.9c0.4-1.5,0.6-2.9,0.6-4.1
		C245.6,24.9,245.4,23.4,244.8,21.9z"/>
</g>
</svg>
