<?xml version="1.0" encoding="utf-8"?>
<!-- Generator: Adobe Illustrator 22.0.1, SVG Export Plug-In . SVG Version: 6.00 Build 0)  -->
<svg version="1.1" id="Layer_1" xmlns="http://www.w3.org/2000/svg" xmlns:xlink="http://www.w3.org/1999/xlink" x="0px" y="0px"
	 viewBox="0 0 288.8 46.1" style="enable-background:new 0 0 288.8 46.1;" xml:space="preserve">
<style type="text/css">
	.st0{fill:#542C0B;}
</style>
<g>
	<path class="st0" d="M77.9,19.3h-1.8c-0.8,1.2-1.5,2.4-2,3.8c-0.6,1.6-0.9,3.3-0.9,5.1c0,1.4,0.2,2.9,0.7,4.5
		c0.5,1.5,1.2,3,2.2,4.4h1.8c-0.5-1.2-0.9-2.1-1.1-2.7c-0.3-1-0.6-2-0.8-3c-0.2-1.1-0.3-2.1-0.3-3.1c0-1.5,0.2-2.9,0.5-4.2
		C76.4,22.7,77,21.1,77.9,19.3z"/>
	<polygon class="st0" points="90.9,22.6 88.8,21.5 87.7,23.5 89.8,24.7 	"/>
	<path class="st0" d="M92.9,24.4l-0.8,2.5c0.4,0.8,0.7,1.4,0.9,1.8s0.2,0.8,0.2,1.1c0,0.6-0.4,1.1-1.1,1.6S90.3,32,89.2,32
		c-1.1,0-2-0.2-2.7-0.6s-1-0.9-1-1.6c0-0.5,0.1-1,0.3-1.5c0.2-0.5,0.6-1.2,1.2-2.3l-0.6-0.4c-0.8,1.3-1.4,2.3-1.7,3
		c-0.3,0.7-0.4,1.5-0.4,2.3c0,1,0.4,1.8,1.2,2.3c0.8,0.5,2,0.8,3.5,0.8c0.8,0,1.5-0.1,2.3-0.3c0.7-0.2,1.3-0.5,1.7-0.8
		c0.4-0.3,0.7-0.7,0.8-1.2c0.2-0.5,0.2-1.2,0.2-2V28c0-0.8-0.1-1.5-0.3-2C93.6,25.7,93.3,25.1,92.9,24.4z"/>
	<polygon class="st0" points="100.9,32.5 99.6,31.8 98.6,33.6 100.3,34.6 101.1,33.1 102.4,33.8 103.4,32 101.7,31 	"/>
	<polygon class="st0" points="104.5,33.2 106.6,34.3 107.7,32.3 105.6,31.1 	"/>
	<path class="st0" d="M112.4,22.2c0.1-0.3,0.3-0.6,0.4-1s0.2-0.8,0.2-1.2c-0.5-0.2-0.9-0.4-1.1-0.6c-0.3-0.2-0.4-0.4-0.4-0.6
		s0-0.3,0-0.3l-0.4-0.2c-0.3,0.6-0.6,1.2-0.7,1.7c-0.1,0.4-0.2,0.7-0.2,1.1l0.6,0.4l1.1,6.3h-3.3c0-1.1-0.1-1.9-0.3-2.4
		c-0.2-0.6-0.5-1.1-0.9-1.6l-0.7,2.2c0.3,0.4,0.6,0.7,0.6,0.8c0.2,0.3,0.3,0.6,0.4,1.1h-4.2c0-1.1-0.1-1.9-0.3-2.4
		c-0.2-0.6-0.5-1.1-0.9-1.6l-0.7,2.2c0.3,0.4,0.6,0.7,0.6,0.8c0.2,0.3,0.3,0.6,0.4,1.1h-4.2h-0.6h-0.6c-0.3,0-0.5-0.2-0.6-0.6
		c-0.2-0.5-0.3-1.4-0.3-2.7v-1.8c0-0.9-0.1-1.6-0.2-2.1s-0.4-1-0.7-1.5l-1,2.3c0.3,0.3,0.5,0.5,0.6,0.7c0.2,0.3,0.2,0.8,0.2,1.4v2.6
		c0,1.5,0.2,2.6,0.5,3.3c0.3,0.6,0.8,0.9,1.6,0.9h0.6h0.6h4.5h0.6h4.5h0.6h4.4V28l-1-5.7L112.4,22.2z"/>
	<path class="st0" d="M116,22.4l-0.6-3.3c-0.3,0.7-0.6,1.2-0.8,1.7c-0.2,0.5-0.3,0.8-0.3,1c0,0.1,0,0.4,0.1,0.7
		c0.2,1,0.4,1.8,0.5,2.5s0.2,1.4,0.2,2.2s0.1,1.3,0.1,1.7c0,0.5-0.1,1.1-0.2,1.9l0.6,0.2c0.4-0.8,0.6-1.4,0.7-1.8
		c0.1-0.5,0.2-1,0.2-1.5c0-0.6,0-1.3-0.1-2C116.4,24.7,116.2,23.6,116,22.4z"/>
	<polygon class="st0" points="136.1,19.4 133.9,18.3 132.8,20.4 135,21.5 	"/>
	<path class="st0" d="M161.7,22.2c0.1-0.3,0.3-0.6,0.4-1c0.1-0.4,0.2-0.8,0.2-1.2c-0.5-0.2-0.9-0.4-1.1-0.6
		c-0.3-0.2-0.4-0.4-0.4-0.6s0-0.3,0-0.3l-0.4-0.2c-0.3,0.6-0.6,1.2-0.7,1.7c-0.1,0.4-0.2,0.7-0.2,1.1l0.6,0.4l1.1,6.3H158l-1-5.7
		l0.3,0.1c0.1-0.3,0.3-0.6,0.4-1c0.1-0.4,0.2-0.8,0.2-1.2c-0.5-0.2-0.9-0.4-1.1-0.6c-0.3-0.2-0.4-0.4-0.4-0.6s0-0.3,0-0.3l-0.4-0.2
		c-0.3,0.6-0.6,1.2-0.7,1.7c-0.1,0.4-0.2,0.7-0.2,1.1l0.6,0.4l1.1,6.3h-3.3h-0.6h-0.7c-0.1,0-0.3,0-0.4-0.1
		c-0.1-0.1-0.3-0.2-0.4-0.3c0.4-0.5,0.6-0.9,0.7-1.2c0.1-0.3,0.2-0.6,0.2-0.9c0-0.6-0.2-1-0.7-1.4c-0.5-0.3-1.2-0.5-2-0.5
		s-1.4,0.2-1.8,0.7c-0.4,0.5-0.6,1.3-0.6,2.4l0.4,0.1c0.1-0.1,0.1-0.2,0.2-0.3c0.1,0,0.1-0.1,0.2-0.1c0.2,0,0.4,0.1,0.5,0.3
		c0.1,0.2,0.3,0.4,0.5,0.8c-0.4,0.2-0.6,0.3-0.8,0.4s-0.6,0.1-1.1,0.1h-0.3v-1.9c0-0.8-0.2-1.4-0.7-1.8c-0.4-0.4-1-0.6-1.7-0.6
		c-0.3,0-0.7,0.1-1.2,0.4c-0.4,0.2-0.8,0.5-1.3,0.9c-0.3,0.2-0.6,0.5-1,0.7c0-0.2,0.1-0.4,0.1-0.5s0-0.2,0-0.4v-0.1
		c0-0.3,0-0.7-0.1-1.1s-0.2-1.1-0.4-1.9l0.3,0.1c0.2-0.4,0.3-0.8,0.4-1c0.1-0.4,0.2-0.9,0.3-1.3c-0.4-0.2-0.7-0.3-0.9-0.4
		c-0.6-0.3-0.9-0.6-0.9-0.8c0-0.1,0-0.2,0-0.2l-0.4-0.2c-0.3,0.6-0.4,1-0.5,1.3s-0.2,0.7-0.4,1.4l0.5,0.3c0.3,1.2,0.5,1.9,0.5,2
		c0.1,0.6,0.2,1.1,0.3,1.6s0.1,1.2,0.1,1.9c-0.4,0.4-0.8,0.6-1,0.8c-0.7,0.5-1.1,0.8-1.2,0.8H137c0-1.7-0.1-3-0.4-3.8
		c-0.3-0.9-0.8-1.4-1.4-1.4c-0.7,0-1.3,0.5-1.9,1.4c-0.5,0.9-0.8,1.8-0.8,2.6c0,0.3,0,0.5,0.1,0.7s0.3,0.3,0.5,0.4
		c-0.8,0-1.7,0-2.6,0.1c-0.9,0-1.8,0.1-2.8,0.1c-1.4,0-2.3-0.2-2.9-0.5c-0.5-0.3-0.7-0.7-0.7-1.4c0-0.5,0.2-1.3,0.7-2.3l-0.6-0.3
		c-0.5,1.2-0.8,2-0.9,2.5s-0.2,1.1-0.2,1.8c0,0.9,0.3,1.6,0.8,2c0.6,0.5,1.5,0.7,2.8,0.7c0.1,0,0.8,0,2.1-0.1
		c1.3-0.1,2.4-0.1,3.2-0.1c1.4,0,2.6-0.1,3.7-0.1h0.6h0.6h9.3h0.6h0.3c0.5,0,1-0.1,1.4-0.2c0.6-0.2,1.2-0.6,1.6-1
		c0.2,0.4,0.5,0.8,0.9,1s0.8,0.3,1.3,0.3h0.7h0.6h3.8h0.6h4.4v-2.5l-1-5.7L161.7,22.2z M134.2,26.2c-0.3-0.2-0.4-0.3-0.4-0.5
		c0-0.1,0-0.3,0.1-0.3c0.1-0.1,0.2-0.1,0.3-0.1c0.2,0,0.4,0.1,0.6,0.3c0.1,0.2,0.3,0.6,0.5,1.2C134.9,26.5,134.5,26.3,134.2,26.2z
		 M142.4,27.8H140c1-0.7,1.7-1.2,2.2-1.4c0.5-0.3,1-0.4,1.4-0.4c0.3,0,0.7,0.1,1.2,0.3c0.5,0.2,0.7,0.4,0.7,0.6
		C145.4,27.5,144.4,27.8,142.4,27.8z"/>
	<path class="st0" d="M180.5,23.7l-0.7,2.2c0.3,0.4,0.6,0.7,0.6,0.8c0.2,0.3,0.3,0.6,0.4,1.1h-4.2H176h-0.6c-0.3,0-0.5-0.1-0.9-0.2
		c-0.4-0.2-0.8-0.4-1.1-0.8c0.4-0.2,0.6-0.4,0.8-0.8c0.2-0.3,0.3-0.7,0.3-1c0-0.6-0.2-1.1-0.7-1.5c-0.4-0.4-1-0.6-1.7-0.6
		c-0.8,0-1.4,0.3-1.8,0.9c-0.4,0.6-0.6,1.3-0.6,2.1l0.4,0.1c0.1-0.1,0.1-0.2,0.2-0.2c0.1-0.1,0.1-0.1,0.2-0.1c0.3,0,0.4,0.2,0.5,0.7
		c-0.9,0.8-1.6,1.7-2,2.6s-0.6,1.9-0.6,3c0,1.6,0.5,2.8,1.4,3.5c0.9,0.8,2.4,1.1,4.4,1.1l3.4-2.1l-0.1-0.4c-0.3,0-0.6,0-1,0
		s-0.7,0-1,0c-2.1,0-3.6-0.3-4.6-0.8s-1.4-1.3-1.4-2.4c0-0.6,0.2-1.2,0.6-1.8c0.4-0.6,0.9-1.1,1.6-1.6c0.5,1,1,1.7,1.6,2
		c0.5,0.3,1.2,0.5,2.1,0.5h0.6h0.6h5.1v-2.4c0-1.1-0.1-2-0.3-2.5C181.3,24.8,181,24.2,180.5,23.7z"/>
	<polygon class="st0" points="177.5,33.2 179.6,34.3 180.7,32.3 178.6,31.1 	"/>
	<polygon class="st0" points="188.8,21.6 190.1,22.3 191.1,20.4 189.4,19.5 188.7,21 187.3,20.3 186.3,22.1 188,23.1 	"/>
	<path class="st0" d="M195,22.2c0.1-0.3,0.3-0.6,0.4-1c0.1-0.4,0.2-0.8,0.2-1.2c-0.5-0.2-0.9-0.4-1.1-0.6c-0.3-0.2-0.4-0.4-0.4-0.6
		s0-0.3,0-0.3l-0.4-0.2c-0.3,0.6-0.6,1.2-0.7,1.7c-0.1,0.4-0.2,0.7-0.2,1.1l0.6,0.4l1.1,6.3h-3.3c0-1.1-0.1-1.9-0.3-2.4
		c-0.2-0.6-0.5-1.1-0.9-1.6l-0.7,2.2c0.3,0.4,0.6,0.7,0.6,0.8c0.2,0.3,0.3,0.6,0.4,1.1h-4.2h-0.6h-0.6c-0.3,0-0.5-0.2-0.6-0.6
		c-0.2-0.5-0.3-1.4-0.3-2.7v-1.8c0-0.9-0.1-1.6-0.2-2.1c-0.1-0.5-0.4-1-0.7-1.5l-1,2.3c0.3,0.3,0.5,0.5,0.6,0.7
		c0.2,0.3,0.2,0.8,0.2,1.4v2.6c0,1.5,0.2,2.6,0.5,3.3c0.3,0.6,0.8,0.9,1.6,0.9h0.6h0.6h4.5h0.6h4.4v-2.5l-1-5.7L195,22.2z"/>
	<path class="st0" d="M198.6,22.4l-0.6-3.3c-0.3,0.7-0.6,1.2-0.8,1.7s-0.3,0.8-0.3,1c0,0.1,0,0.4,0.1,0.7c0.2,1,0.4,1.8,0.5,2.5
		s0.2,1.4,0.2,2.2s0.1,1.3,0.1,1.7c0,0.5-0.1,1.1-0.2,1.9l0.6,0.2c0.4-0.8,0.6-1.4,0.7-1.8c0.1-0.5,0.2-1,0.2-1.5c0-0.6,0-1.3-0.1-2
		C198.9,24.7,198.8,23.6,198.6,22.4z"/>
	<path class="st0" d="M214.9,23.5c-0.5-1.5-1.2-2.9-2.2-4.2h-1.8c0.8,1.9,1.4,3.5,1.7,4.8s0.5,2.7,0.5,4.2c0,0.7,0,1.4-0.1,2.1
		s-0.2,1.4-0.4,2.2s-0.4,1.4-0.6,2c-0.2,0.6-0.6,1.4-1.1,2.5h1.8c1.1-1.6,1.8-3.2,2.3-4.9c0.4-1.5,0.6-2.9,0.6-4.1
		C215.6,26.5,215.4,25,214.9,23.5z"/>
</g>
</svg>
