<?xml version="1.0" encoding="utf-8"?>
<!-- Generator: Adobe Illustrator 22.0.1, SVG Export Plug-In . SVG Version: 6.00 Build 0)  -->
<svg version="1.1" id="Layer_1" xmlns="http://www.w3.org/2000/svg" xmlns:xlink="http://www.w3.org/1999/xlink" x="0px" y="0px"
	 viewBox="0 0 86.2 86.2" style="enable-background:new 0 0 86.2 86.2;" xml:space="preserve">
<style type="text/css">
	.st0{fill:#235958;}
</style>
<path class="st0" d="M55.3,48.8c-0.5,0-0.8,0-1,0c-0.1,0-0.1,0-0.2,0c-0.2,0-0.3,0-0.5,0c-2.5,0-4.6-0.4-6.1-1.2
	c3.1-1.5,4.7-3.6,4.7-6.4c0-2.5-1-4.5-3-6c-1.8-1.3-3.9-1.9-6.5-1.9c-3.6,0-6.2,0.6-7.8,1.9c-1.8,1.4-2.8,3.8-3,7.3
	c2.8,0,5.1,1.4,6.9,4.2c-1.6,1.1-3,1.8-4.2,2c-0.5,0.1-2.1,0.2-4.7,0.2h-13v8.8h13h2.2h0.6c2.1,0,5.5-2.3,10.2-6.9
	c2.5,2.7,3.9,4.1,4,4.2c1.9,1.8,3.4,2.7,4.5,2.7h2.8h1.2h14.1v-8.8L55.3,48.8L55.3,48.8z"/>
<g>
	<path class="st0" d="M37.2,23.4c0,1.6-0.6,3-1.6,4.3c-1.1,1.2-2.5,1.8-4.1,1.8c-2.7,0-4-1.5-4-4.5c0-1.9,0.4-3.5,1.1-4.8
		c1-1.6,2.3-2.3,4.1-2.3c1.3,0,2.4,0.6,3.3,1.8C36.8,20.8,37.2,22.1,37.2,23.4z M35.1,24.4c0-0.6-0.5-1.4-1.6-2.1
		c-1.1-0.8-2-1.2-2.7-1.2c-0.6,0-1.1,0.3-1.6,0.8c-0.5,0.6-0.7,1.1-0.7,1.7c0,1.5,1.1,2.3,3.3,2.3C34,25.9,35.1,25.4,35.1,24.4z"/>
</g>
</svg>
