<?xml version="1.0" encoding="utf-8"?>
<!-- Generator: Adobe Illustrator 22.0.1, SVG Export Plug-In . SVG Version: 6.00 Build 0)  -->
<svg version="1.1" id="Layer_1" xmlns="http://www.w3.org/2000/svg" xmlns:xlink="http://www.w3.org/1999/xlink" x="0px" y="0px"
	 viewBox="0 0 86.2 86.2" style="enable-background:new 0 0 86.2 86.2;" xml:space="preserve">
<style type="text/css">
	.st0{fill:#235958;}
</style>
<g>
	<g>
		<g>
			<path class="st0" d="M44.9,8.8L34.6,15c-1,0.6-1.7,1.1-2,1.6s-0.5,1.3-0.5,2.4L43,12.8C44.3,12.1,44.9,10.7,44.9,8.8z"/>
		</g>
	</g>
	<path class="st0" d="M51,28.4v-0.6l1.3,0.6l3.5-6.1c-1.9,0.3-3.5-0.2-4.9-1.6s-2.1-3-2.3-4.9c-1.7,0.8-2.9,2.8-3.7,6
		c0.3,0.6,0.5,1,0.8,1.4c0.1,2.7,0.8,7.2,2.1,13.5c1.1,5.9,1.7,10.3,1.7,13.1c0,2.5-1.2,3.8-3.7,3.8h-1.2h-2H30.1V62h12.5h2h0.6
		c2.8,0,4.9-1.3,6.4-4c1.2-2.2,1.8-4.8,1.8-7.9c0-2.4-0.4-6-1.2-10.9C51.4,34.5,51,30.8,51,28.4z"/>
</g>
</svg>
